<svg xmlns="http://www.w3.org/2000/svg" viewBox="0 0 980 700"><title>Albania</title><path d="M980,0H0V700H980Z" style="fill:red"/><path d="M516.51,528.94c-6.15-5.33-13.61-16.13-13.5-26.54.55-7.76,5.87-12.27,9.31-2.8,4.86,10.46,15.29,27.75,29.66,17.6,6.28-4.61,6.18-11.39-2.43-10.61-10.63-.73-17.16-6.58-21.92-21.64-.86-8.28,2.58-8.08,7.39-2.75,6.18,7.09,18.48,17.81,32,12.06,7.54-3.16,9.67-9.68-1.72-11.29-10.78.16-19.59-6.83-28.35-17.5-4.8-5.9,2.28-11.86,6.54-6.83,3.79,3.26,9.11,9.27,13.66,10.09,5.27,1,11.8.52,19-3.31,7.8-6.53,5.27-11.24-4.2-12.32-7.34.36-11.34,3.15-20.8-3.16-17-11.5-30.54-26.86-32.65-45.35-1.39-12.16,5.15-15.84,10.58-14.44,14.78,3.8,24.45,31.42,34.67,46.6,3.35,4.37,6.42,4.44,8.6,3.1,4.1-3.52,7.38-6.41,11.48-10.34,0,0,30.09,5.41,46.47,10.75l-18.24,6.48c-6.91-3.81-15.24.3-15.24,6.92-6.54,4.52-6,9.82-3.19,14.93.86-3.56,1.59-8.19,6.76-8.8,7.37,3,16-1.3,16-7.06l21.52-8.46,21.74,12.31c0,8.32,7.88,11,16.09,8.71,3.86,2.4,6.35,6.56,7.66,11,2.42-6.42,1.91-11-1.87-14.11,2.17-8.3-9.46-16.29-18.47-11l-15.64-9,26.77-.75c3.11,5.5,14.34,5.8,17.61,0,2.8-.77,5.17-1.26,10.63,2.8-1.72-6.57-5.07-9.37-10.09-9.37-3.82-6.76-17.63-6.73-19.62.88l-27.88.77,16.54-11.78c6.17,3.65,14.84-.41,16.58-7,2.46-2.93,5.5-4.3,11.47-2.32-3.08-5.45-7.42-7.08-15.26-3.38-7.15-5.42-16.57,1.15-15.14,6.61l-22,15c-16-4.77-44.91-12.19-44.91-12.19,3.45-3.62,6.94-7,10.38-10.67,1.24-2.15-.66-4.66-3.29-5.18-25.82-5.33-40.6-15.73-49.55-42.19-3.75-11.08,4.35-14.39,7.14-7.61,3.85,9.42,8.1,19.72,19.69,27.7,4,2.8,15.9.51,8.86-6.16-7.29-6-10.43-8.59-14-23.19,0-7.4,7.54-10.71,11.75-3.62,4.5,14.55,5,20.81,13.11,30.18,6.17,7.09,14.22,11.86,18.22,11.75,7.19-.1,14.43-7.87,4.81-13.51-14.12-5.64-19.29-13.35-21.37-20.71-2.27-12.83.21-19,8-12.73,11,12.48,31.94,35.72,42.92,46.54,12.3,9.42,26.42,9.73,37.66.16,6.43-7.4,4.15-15.37-5.92-13.67-22.73,1.92-39.93-9.37-58.82-39.86-3.7-6.88-4.71-16.77,3.45-9.42,9.41,12.73,23.13,23.55,35.89,28.21s23.38,2.06,27.48-2c4.94-4.94,3.64-17.39-4.91-14.39a39.89,39.89,0,0,1-27.28-.88c-10.33-4-21.06-12.73-32.45-27.48-3.9-8.33-2.63-15.37,5.27-11.08,18.68,15.85,42.78,28.68,55.07,21,9.06-5.64,9.22-20.14-2.27-19.2-23.14,3.15-31.89-2-54.11-21.58-5.06-3.78-4.71-13.36,3.34-7.25,18.68,12.06,44.19,16.77,54.21,10.46,9-5.64,7.69-22.89-7.49-16.78-12.15,7.4-25.57,7.2-52.44-12-6.78-5.64-1.72-13,3.84-9.84,21.62,12.32,53.1,17.6,61.3-7.45,3.19-9.57-2.58-15.17-11-8.54-18.58,17.18-39.64,8.75-51.42.1-3.38-2-9.57-12.06,1.31-10.19,28.15,6.42,56,.83,61-19.1,2.94-6.47-2.84-17.91-13.11-8.33-13.51,13.35-27.84,13.82-45.86,13.72-9.17-1.92-9.26-12-1.57-13.51,14.22.31,28.24-5.91,39.48-12.22,11-6.31,20.1-15.17,23-27.43,1.77-11-8.81-22.62-15.19-11-9.42,17-30.27,33.08-53.46,36-1.21-2-4.25-7.2-8-5.74-6.81,2.64-14.92,6.17-23.27,10.14-18,8.55-25.51,12.67-23.34,27.44,2.26,15.41-9.63,25.15-19.44,22.46-8.56-2.3-13.28-10-11.75-23.45,1.23-10.69,12-23.61,24-30.39,7.83-4.38,19.64-6.78,33.86-9.94,8.66-1.71,13.07-5.07,13.57-8.6,0,0-5.92,4.33-15.39,3.68-4.48-.32-7.48-2.29-8.61-4.3,3.29-.67,9.26.11,14.63.11,7.14-.06,23.7-1.65,28.1-11.7,1.37-6.63-3-7.82-7-3.57-4.35,4.59-6.15,8.71-14.88,10.25-5.31.93-10.63,2-17.47.37,3.85-4.57,10-9.25,15.19-8.39,1.72.29,4,1.87,5.82,4.72,1.12-7.25-.86-15.43-20.25-12,.31-5.49-11.24-7.87-18.17-7.76-3.95.1-12,2.43-17.82,5.22a125.85,125.85,0,0,1-29.06,5.7c6.23,5.33,7.4,5.64,13.62,10.14a45.33,45.33,0,0,0-20,15.53s11-.31,13.77.93c-11.5,3.36-16.66,5.38-22.73,11.59a48.65,48.65,0,0,1,6.68,1.51c1.42.51,1.05,1.45-.1,2.33C503.22,186.67,493,198.55,490,201.4c-3-2.85-13.22-14.73-15.69-16.62-1.15-.88-1.52-1.81-.1-2.33a48.76,48.76,0,0,1,6.68-1.51c-6.08-6.21-11.24-8.23-22.73-11.59,2.78-1.24,13.77-.93,13.77-.93a45.35,45.35,0,0,0-20-15.53c6.22-4.5,7.39-4.82,13.62-10.14a125.76,125.76,0,0,1-29.06-5.7c-5.82-2.79-13.87-5.12-17.82-5.22-6.93-.11-18.48,2.28-18.17,7.76-19.39-3.42-21.37,4.77-20.25,12,1.83-2.85,4.11-4.43,5.82-4.71,5.22-.86,11.33,3.82,15.19,8.39-6.84,1.65-12.15.57-17.47-.36-8.73-1.54-10.53-5.66-14.88-10.25-4.05-4.24-8.4-3.05-7,3.57,4.39,10,21,11.64,28.1,11.7,5.36,0,11.33-.78,14.63-.11-1.13,2-4.13,4-8.61,4.3-9.47.65-15.39-3.68-15.39-3.68.5,3.52,4.91,6.89,13.57,8.6,14.22,3.16,26,5.56,33.86,9.94,12.09,6.78,22.82,19.7,24,30.39,1.53,13.41-3.19,21.14-11.75,23.45-9.81,2.69-21.7-7.05-19.44-22.46,2.16-14.77-5.34-18.89-23.35-27.44-8.35-4-16.46-7.5-23.27-10.14-3.75-1.45-6.79,3.73-8,5.74-23.19-2.9-44-18.95-53.46-36-6.38-11.65-17,0-15.19,11,2.89,12.27,12,21.12,23,27.43,11.24,6.31,25.26,12.53,39.48,12.22,7.69,1.5,7.6,11.59-1.57,13.51-18,.1-32.35-.36-45.86-13.72-10.27-9.58-16,1.86-13.11,8.33,5.06,19.93,32.9,25.52,61,19.1,10.88-1.87,4.69,8.2,1.31,10.19-11.79,8.65-32.85,17.08-51.42-.1-8.45-6.63-14.22-1-11,8.54,8.2,25.05,39.68,19.77,61.3,7.45,5.57-3.16,10.62,4.2,3.84,9.84-26.88,19.2-40.29,19.41-52.44,12-15.18-6.11-16.5,11.14-7.49,16.78,10,6.31,35.53,1.61,54.21-10.46,8-6.11,8.4,3.47,3.34,7.25-22.22,19.62-31,24.74-54.11,21.58-11.49-.93-11.34,13.56-2.27,19.2,12.3,7.71,36.39-5.12,55.07-21,7.9-4.29,9.17,2.75,5.27,11.08-11.39,14.75-22.12,23.45-32.45,27.49a39.9,39.9,0,0,1-27.28.88c-8.55-3-9.85,9.45-4.91,14.39,4.1,4,14.68,6.57,27.48,2s26.48-15.48,35.89-28.21c8.15-7.36,7.14,2.53,3.45,9.42-18.88,30.49-36.09,41.78-58.82,39.86-10.07-1.7-12.35,6.26-5.92,13.67,11.24,9.57,25.36,9.27,37.66-.16,11-10.82,31.94-34.06,42.92-46.54,7.74-6.31,10.23-.1,8,12.73-2.08,7.36-7.24,15.07-21.37,20.71-9.62,5.64-2.38,13.41,4.81,13.51,4,.11,12-4.66,18.22-11.75,8.15-9.37,8.61-15.64,13.11-30.18,4.21-7.09,11.75-3.77,11.75,3.62-3.59,14.6-6.73,17.18-14,23.19-7,6.68,4.86,9,8.86,6.17,11.59-8,15.84-18.28,19.69-27.7,2.78-6.78,10.88-3.47,7.14,7.61-9,26.45-23.74,36.86-49.55,42.19-2.64.52-4.54,3-3.29,5.18,3.44,3.67,6.93,7,10.38,10.67,0,0-28.93,7.42-44.91,12.19l-22-15c1.43-5.45-8-12-15.14-6.61-7.84-3.7-12.18-2.07-15.26,3.38,6-2,9-.61,11.47,2.32,1.73,6.62,10.4,10.68,16.58,7l16.54,11.78-27.88-.78c-2-7.61-15.8-7.64-19.62-.88-5,0-8.37,2.81-10.09,9.37,5.46-4.06,7.83-3.57,10.63-2.8,3.28,5.8,14.51,5.5,17.61,0l26.77.75-15.64,9c-9-5.32-20.64,2.67-18.47,11-3.79,3.15-4.3,7.68-1.87,14.11,1.31-4.45,3.79-8.62,7.66-11,8.2,2.25,16.08-.39,16.08-8.71l21.74-12.31,21.52,8.46c0,5.76,8.58,10.11,16,7.06,5.16.61,5.9,5.24,6.76,8.8,2.82-5.11,3.35-10.41-3.19-14.93,0-6.62-8.34-10.73-15.24-6.92l-18.24-6.48c16.38-5.34,46.47-10.74,46.47-10.74,4.1,3.93,7.38,6.82,11.48,10.34,2.18,1.35,5.25,1.28,8.6-3.1,10.23-15.17,19.89-42.79,34.67-46.6,5.43-1.4,12,2.28,10.58,14.44-2.11,18.48-15.64,33.85-32.65,45.35-9.47,6.31-13.46,3.52-20.8,3.16-9.47,1.08-12,5.79-4.2,12.32,7.23,3.83,13.76,4.34,19,3.31,4.55-.83,9.87-6.83,13.67-10.09,4.26-5,11.34.93,6.54,6.83-8.76,10.66-17.57,17.65-28.35,17.5-11.39,1.61-9.26,8.13-1.72,11.29,13.57,5.74,25.86-5,32-12.06,4.81-5.33,8.25-5.54,7.39,2.75-4.76,15.06-11.29,20.91-21.92,21.64-8.61-.78-8.71,6-2.43,10.61,14.37,10.14,24.8-7.15,29.66-17.61,3.44-9.47,8.76-5,9.31,2.8.11,10.41-7.35,21.21-13.5,26.54S490,568.18,490,568.18s32.66-33.9,26.51-39.24ZM560.27,145c-5.08,0-8.22,1.78-8.22,3.94s3.14,4,8.22,4,8.26-1.95,8.26-4.15-3.21-3.78-8.26-3.78Zm-140.54,0c5.08,0,8.22,1.78,8.22,3.94s-3.14,4-8.22,4-8.26-1.95-8.26-4.15,3.21-3.78,8.26-3.78Z"/></svg>