<svg xmlns="http://www.w3.org/2000/svg" viewBox="0 0 1000 500"><title>American_Samoa</title><path d="M0,0H1000V500H0Z" style="fill:#006"/><path d="M0,250,1000,0V500Z" style="fill:#bd1021"/><path d="M107.14,250,1000,26.79V473.21" style="fill:#fff"/><path d="M766.47,277.93c6.66.51,6.44,7.12,6.44,7.12l23.6.53c3-8.23,6.15-7.28,11.89-3.21a42.86,42.86,0,0,0,11.39,5.58c2.28-11.81,19-9.42,19-9.42,7.14-17.05,7.75-16.83,3.49-19a14,14,0,0,1-6-5.81c-4-4.87-6.16-11.92-6.62-16.25s-5.47,2.16-6.38.8-8.35-.57-8.35-.57c1.82,1.93-4.41.8-4.41.8.61.46,0,2.27,0,2.27-.61-.8-5.32-1.59-5.32-1.59a9.79,9.79,0,0,1-1.52,2.16c-2.58-1.14-7.75-.91-7.75-.91A26.15,26.15,0,0,0,781.7,244c-2.13,1.25-9.72,5.12-16,11.14s-9.72,5.34-9.72,5.34c-1.82,6.71-16.71,14.89-16.71,14.89-2.43,2.16-9.87,3.18-13.67,0s0-8.87,0-8.87c1.41-2.66,2.8-2.55,3-11.77.1-6.24,6.54-11.18,13.15-18.43,8.08-8.86,19.37-23.45,19.37-23.45.06,4.48,2.51,5.2,2.51,5.2A42.59,42.59,0,0,1,769,209.8a1.66,1.66,0,0,0,.63.64,33.32,33.32,0,0,1,4-4.77c-.85-.34-7.86,0-14.41,5.71s-11.05,3.79-11.05,3.79c-4.56-1.45-5-4.95-5-4.95C740,195.91,753,185.66,753,185.66c-17.54-4.18-4.9-26.43,16.86-35.9S791.42,136,791.42,136a17.33,17.33,0,0,1,2.28,4c.23-.17,1.82-2.56,14.35-8.1s18.57-10.32,18.57-10.32a9.4,9.4,0,0,1,1.25,5.29C862.17,114.89,896,87.3,896,87.3c1,2.3.46,5.8.46,5.8,5.58-5.16,25.75-17.18,25.75-17.18a11.25,11.25,0,0,1-6,10.62,11.82,11.82,0,0,1,1.08,3.11c3.3-1.79,18.68-12.53,18.68-12.53,5.64,4.86.51,12.83.51,12.83a6.49,6.49,0,0,0,3.47-2c1.42,8.27-7.75,15.56-7.75,15.56,1.59,0,4.27-1.54,4.27-1.54C934.74,111,917.6,121,917.6,121c2.51,2.22.11,5.16-1.94,6.48s-5.7,4.22-4.56,5.41,8.72-4.14,8.72-4.14c1.31,3.79-8.43,11.26-8.43,11.26,6.78.9,25.63-7.67,25.63-7.67-1.54,7.29-8.66,13-17.43,16.24s-8.32,3.79-8.32,3.79c1.54,1.24,13.67-2.3,13.67-2.3-3.65,8.14-16.29,13.73-16.29,13.73,3.47,2.94,8.2-.47,12.93-3.71s11.16-6,18.28-8.4,12.13-.6,12.13-.6a15.37,15.37,0,0,1,10.94.77c11.39.94,12.53,5.07,12.53,5.07,1.25.3,2.22.81,5.13,2.94s2.73,8.74,2.62,12-1,3.24-1.59,4.14a5.62,5.62,0,0,0-.63,3.15c0,1.24-2.85,8.91-20.45,9s-26.68,0-26.68,0a8.79,8.79,0,0,0-3.19.85c-7.41,3.67-3.49-2.5-12.3,4.75s-13.29,6-13.29,6c-1.44,1.73-10.67,10.32-16,13.73s-4.33,3.1.27,5.09,11.54,0,11.54,0c-4.44,3-1.37,4.32-1.37,4.32,5.85-3.55,9.38-2.24,9.38-2.24,1.86,5.09-4.82,13.13-4.82,13.13a50.56,50.56,0,0,0,7.44,0c-1.18,3.44-6,7.22-9.61,8.38s-2.92,1.62-1.86,3.78a5.72,5.72,0,0,1,.15,4.35c-6.23-4.32-6.46-.46-6.46-.46a100.06,100.06,0,0,0-.61,12.45c-4.41-2.22-4.63.74-4.63.74-1.14,4.66-6.53,10.06-6.53,10.06a4.16,4.16,0,0,0-2.89-3.64,25.2,25.2,0,0,1-8,8.64c-.68,4.66.61,11.2.61,11.2-3.34-.68-4.56-.62-5.09.17s.76,1.19.76,1.19L911,291.72c.61.06,3.19.34,3.27,5.06s-3.8,4.95-3.8,4.95l-47.62-1.14s.23,1.31-2.28,2.61-1.67-1.48-2.35,4.38-10.18-.45-10.18-.45a31.65,31.65,0,0,1-5.24,5.23c-2.13-6.42-4.33-8.41-7.75-2.84s6.15,4.61,6.15,4.61,55.9-8.24,58.94-8.53,6.38-.11,7.75,4.15-6.76,4.95-6.76,4.95l-57.34,6.25c-1.22,3.41-6,3.13-6,3.13.38,3.24-3,5.29-4.78,6.48s-7.22.63-7.22.63c-6.68,4.55-10,1-10,1-4.33,1.88-7.06,1.08-10.63-.45s-3.27-5.86-3.27-5.86l-36.19,3.75a8.75,8.75,0,0,0-2.89,1.73c1.29,1.65-2.59,5.48-2.59,5.48,1.08.75,3.16,2.83,3.45,7.36.3,4.78-5.84,5.58-2.76,8.91s8.69.58,15-2.43S788.29,348,791,348s10.14,1.9,14.78,3.54,6.24.66,6.55-1.73a3.78,3.78,0,0,1,2.39-3.07c-.57,2.35.68,3.39.68,3.39,1.79.13,4.93-1.62,4.93-1.62-.28,1.73-2.56,2.81-2.56,2.81-4.56,3,1.71,1.92,1.71,1.92,12.47-2.56,16.92-2.3,20.16-2s18.57,6.86,18.57,6.86c.57-1.54.17-5.33.17-5.33a10.18,10.18,0,0,1,5.53,3.33c1.48-1.62.51-4.35.51-4.35,12.65,7.08-2.62,10.27-6.66,11.64s-4,3-4,3a34.27,34.27,0,0,1,8.49-1.66c2.79-.21,1.82,0,8.49-1.36S880.8,365,880.8,365c-5.58.3-7.23,2-7.23,2,3.53,2.43.17,4.48.17,4.48-5.07-6.39-9.4.26-9.4.26a20,20,0,0,1,8.29,1.73c1.12.71,3.76,2,7,3.52,4.63,2.14,3.76.77,7.35,2.13a3.62,3.62,0,0,1,2.22,4.82,9,9,0,0,0-4.84-3.8c-.28,3.8-4.1,4.43-4.1,4.43,4.67-5.2-5.41-7.46-10.14-7.38a14.41,14.41,0,0,0-8.26,3.11c9.51,8.91,16.12,6,16.12,6-1.2,3.24-9.06,2-9.06,2,3.65,2.77,3.25,4.73,3.25,4.73-1.94-1.88-5.13-.94-12-5.37s-12.93-3-12.93-3c6.66,7.12-2.45,11.34-2.45,11.34-3.36,1.92,1.42,4.52,1.42,4.52-4.22.77-4.78-3.45-4.78-3.45-2.22-.43-5.41,2.26-5.41,2.26.23-4.35,5.92-2.17,6.09-6.69s-5.3-8-21.42-5.8-20.85-2.94-20.85-2.94a1.79,1.79,0,0,0-1.65,1.41c2.68,2.56,3.87,3.62,3.42,5.42a1.93,1.93,0,0,0,.85,2.39c-3-.17-3.19-3.71-3.19-3.71-.06,1.45-.68,1.58-1.65,3.11a4.06,4.06,0,0,0-.06,3.5c-1.25-1.11-3.53-2.43-1.37-5.58,1.67-2.43-3.47-5.54-3.47-5.54-2-2-7.29-.13-7.29-.13a19.31,19.31,0,0,1-17.43-4.77,18.72,18.72,0,0,1-3.65-.68c-11.62,5.2-21.82-6.05-21.82-6.05-8.77,1.66-12.76-2.56-15.44-6.69s-3.19-4.48-6.72-6.61-6.83-8.16-3.59-11.34c2.83-2.77,2-3.41,2-3.41-4.56-7.66,8.13-10.13,8.35-12,.33-2.67,3-4.37,5.83-4.54s2.85.08,4.73-1.83,5.47.47,5.47.47c.74-.55,7-5.42,12.59-2.9a14.11,14.11,0,0,0,10.2.73c3.93-.85,36.57-5.29,36.57-5.29,2.11-3.15,3.59-7,12.59-9A43.07,43.07,0,0,0,831,303.14c-1.59-1.7-4.27-1.62-5.64-1.79s-4.22-2.6-4.22-2.6c-1.65.73-2.5.37-14.3,7.55C796.32,312.7,796,300,796,300l-23,0a8.55,8.55,0,0,1-4.1,6.78l-8.37.43c-4.67-2.47-4.73-10.7-4.73-10.7-25.29.38-39.36,9.42-39.36,9.42-28.65-14.67-51.1-18-51.1-18,34.8-3.8,53.2-13.47,53.2-13.47,19.2,11.51,37.26,11.81,37.26,11.81.68-7,5.35-8.65,5.35-8.65l5.3.29Z"/><path d="M725.09,335.68c-7.27,4.27-6,6.59-5.33,7.9s.72,2.61-1.25,4.61-1.78,2.68-1.78,2.68c.3,7.07,5.31,8.57,7.4,10.3,1.75,1.45,4.72,6,4.72,6,3.72,5.34,7.67,5.4,10.59,5.4s2.66-.25,1.18-1.56-4.33-3.64-4.33-3.64c3.91,1.36,7.63,5.46,7.63,5.46,7.39,8.09,14.2,7,17.2,6.62s2.47-2.13,2.47-2.13c-.16-.29-3.08-.51-3.08-.51-11.09-1.05-14.43-8.33-14.43-8.33,6.68,6.57,17.16,7.9,20.39,7.78s3,.8,2.35,1a12.53,12.53,0,0,1-3.15-.11c-1.48-.11-1.48.26-1.14.88s1.74.69,3.5.63.34.13,4.93,3.69,16,.68,16,.68c-7.38-1.83-8.4-5.16-8.4-5.16-10,1.17-14.1-4.84-14.1-4.84-1.79-1.79-7.15-4.56-7.15-4.56a11,11,0,0,1-6.55-7.56,16.25,16.25,0,0,0,8.63,6,31.66,31.66,0,0,1,5,1.66,5,5,0,0,1-3-.34c-3.93-1.15-1.71.45-1.71.45,4.33,3.45,5.53,3.2,5.53,3.2,11.36,1.17,5.72-3.37,5.72-3.37,8.09,1.92,9.43-1.11,9.43-1.11,1.68,3.56,7.8,2.28,7.8,2.28-8.15,3.92-2,2.8-2,2.8,8.23-1.54,9.84.55,9.84.55a6,6,0,0,0,4.48,1.78,31.4,31.4,0,0,1,4.61.67c3.13.63,7.92,3.3,12.47,2.73s5.3.87,5.3.87c-.85-.3-2.85-.6-6.38,1s-9.63,2.09-18.51,0-9.57-1.83-9.57-1.83c2.11,1.58,4,3.8,4.39,5.33a2.2,2.2,0,0,0,1.94,1.62c.63-2,3.3-2.81,3.3-2.81,1.75,1.62,6.44,3.75,6.44,3.75a1.86,1.86,0,0,0,0-1.81,8.44,8.44,0,0,0,7.41,2.28c1.08-.77.74-2.6.74-2.6,1.37,0,1.59.81,2.56,1.45s4,.21,4,.21a5,5,0,0,1-1.94-2.22c4.5-3.11,14.24-1.75,14.24-1.75,7,1.24,6.15,5.84,6.15,5.84a14.54,14.54,0,0,1,3.3,2.81,5.49,5.49,0,0,0,.06-3.26,7.87,7.87,0,0,1,3.9,5.29c3.73-4.26-3.56-9.06-3.56-9.06a39.17,39.17,0,0,1,9.8.21,18.18,18.18,0,0,1,8.52,3.88c2.76,2.3,7.72,3.37,7.72,3.37-.15-1-2.79-2.56-3.39-2.9a2.29,2.29,0,0,1-.85-1.17,15.11,15.11,0,0,0,4.1.21c-8.52-5.2-10.65-7.67-10.65-7.67a5.84,5.84,0,0,0,5-1.58c-6.72.15-7-1.6-7-1.6a17.41,17.41,0,0,0,7.89.19,34.89,34.89,0,0,1,9.6,0c-2.91-4.67-14.16-3.88-17.74-3.69a15.26,15.26,0,0,1-5-.28c.57-.28,1.17-.87,4-.89s5.58.21,8.77-2,7.57-1.47,7.57-1.47c-1.06-2.1-6.11-2.84-10.56,0a12,12,0,0,1-8.47,1.93c7-1,9.08-3.47,9.08-3.47-2.13-.51-3.3.17-7.52,1s-5.35-.62-5.35-.62a47.09,47.09,0,0,1,7.86-3.87,40.21,40.21,0,0,1-7.59-2.51c-4.1,3.86-7.29,6-15.15,1.91s-12-3.64-12-3.64c6.91-4.09,14-2.33,19.18.77S848,360,848,360c-1.63-1-1.41-1.9-1.41-1.9,12.53,6.39,18,2.42,20.73.54s-1.25-4.38-1.25-4.38c-.27,4.07-5.39,5.91-9.42,4.55s-7.75-3.1-13.54-5.51-13-1.17-19.8.26-7.63.74-8.24.2-.95-2.19-4.41-.77-11.51-2.36-16.52-3.55-13.22-.54-20.32,3.35-10.59,2.93-12.72,2-3.46-3.64-1.18-6,2.47-3,2.28-6.48-3.57-5.49-3.57-5.49c3.11-3.21,3.87-3.92,2.81-5.32s.61-1.36,2.39-2.16,1-.91.57-2a1.35,1.35,0,0,0-1.44-.88,14.16,14.16,0,0,1-6.42-1c-6.85-3.15-13.22,3-13.22,3-3.89-3-4.78-1.05-5.47-.31a6.15,6.15,0,0,1-3.87,1.42c-1.66.15-4.16.8-5,2.35a2.43,2.43,0,0,0,.19,2.61s1.06,1.61-.87,3.54-2.62,2.41-2,4.24a5,5,0,0,1-.31,4.43,3,3,0,0,1-.66-2.28,4.5,4.5,0,0,0-.06-2.67A10,10,0,0,0,723,345s-.8-2.07,2-4.84,4-4.15,3.25-5.22c-.57-.79-2.59.49-3.08.77Z" style="fill:#ffc221"/><path d="M732.94,366.24s-3.46-2.64-3-6.31.35-4.12,0-4.89c0,0-.63.36-.61,1.79a10.82,10.82,0,0,1-.3,3,23.55,23.55,0,0,0-2.51-3.61s.61-3.18-.38-4.55a2.32,2.32,0,0,0-3.08-1c-1.57.59-2.75,2,2.52,6.37a12.67,12.67,0,0,1,3.33,5A6.45,6.45,0,0,0,732.94,366.24Zm17.13-10.15s-.27-2.08,1.59-5.74A8,8,0,0,0,752,343c-.42-.91-.67-.57,1.21-2.15,2.31-1.94-.89-4.39,2.91-7.79a26.48,26.48,0,0,0,3.08-3s-4,2.16-6.65,3.24-12.65,6-10.44,9.29,2,3.47,1.63,4.83c0,0-6-3.15-3.87-8.27a15.57,15.57,0,0,1,3.46-4.38c2.28-2.1.91.45,5.54-2.19a19.85,19.85,0,0,0,5.62-5.14,23.85,23.85,0,0,1-3.3,1.79s-5.35,1-7.52,3.24-6.76,6.23-5.2,10.63a8,8,0,0,1-6.57-6.23s-9.91,12.22,10.9,17.91A47.09,47.09,0,0,0,750.07,356.09Z"/><path d="M841.61,315.23c7.77-1.17,52.82-8,56.91-8.4,4.48-.45,6.2-1.05,7.67,2.56,1.67,4.09-6.15,4.15-6.15,4.15l-53.7,6.09c-2.63.3-3.22-.7-3.22-.7a20.25,20.25,0,0,0-2-2.75s-.71-.77.48-1Z" style="fill:#ffc221"/><path d="M731.61,339.66s-5.81,12.24,17,15.26a9.4,9.4,0,0,1,1-3.28c.91-1.92,2.91-5.8,1-8.31s1.54-1.19,2.05-4.48-.34-2.81,1.25-4.95c0,0-7.18,2.6-9.91,5.76s3.7,5.54-.11,9a10.43,10.43,0,0,1-5.07-4.61,8.91,8.91,0,0,1-7.23-4.39Z" style="fill:#5a3719"/><path d="M753.94,354.69s5.64,4.88,12.36,4.67,9.57-2,11.28-4.67a8.75,8.75,0,0,1,1.31,3.43s5.81-4.82,15.84-.64,7,3,9.17,3.33c0,0-4.26-.76-14,3.71-10,4.59-36.17,3-35.94-9.83Z"/><path d="M744.6,333.1s2.53.38,5.07-2.47C749.67,330.62,746.25,331.26,744.6,333.1Zm-19.16,22.73s-4.71-3.71-1.69-4.43C723.75,351.39,725.9,351,725.44,355.82Z" style="fill:#5a3719"/><path d="M828,379s2.51-4.48,9.74-4.48,8.09,3.33,17.2,4c0,0-10.94,3.08-18.57.26A10.8,10.8,0,0,0,828,379Z"/><path d="M756.45,358s10.82,6.57,20.45-.55a7.45,7.45,0,0,1,1.48,2.52s7.29-7,20.34.55c0,0-1.6-.18-7.75,2.47C783,366.39,762.94,368.65,756.45,358Z" style="fill:#5a3719"/><path d="M798.2,364.6a129.89,129.89,0,0,0,19.14.68c5.39-.32,11.22-1.31,8.32.52s-1.48,2,10.94.85-.11,2.35,8.43,3.45C845,370.1,824.32,380.68,798.2,364.6Z"/><path d="M825.43,358s6.09-2.22,11.73.43,4.78,2.86,8.54,3.24c0,0-2.62,3.75-8.83.73S829,358.77,825.43,358Zm6.78,18.72a15.44,15.44,0,0,1,12.59.12,22.46,22.46,0,0,0,4.33,1.5,19.24,19.24,0,0,1-10.25,0,36.78,36.78,0,0,0-6.66-1.58ZM802.64,366s13.33,1.24,20.56-.2c0,0-8.37,4,12.65,2.17,0,0,4.67-.51,4.1.21s-.91,1.28,1.37,2c0,0-15.61,7-38.68-4.14Z" style="fill:#5a3719"/><path d="M736,354.69s.11,1,3.08,2.35a10.81,10.81,0,0,1,5.18,5,7.27,7.27,0,0,0,4.59,3.8s-10.45,2.18-15.13-3.26c0,0-3.55-3.92,2.17-7.86"/><path d="M818.31,378.8a40.66,40.66,0,0,1-9.8-2.22c-5.64-2-7.12-.3-10.31-2.69s-9.63-.89-10.82-.73-4.61,0-.34-2.77c0,0-3.42-.08-4.73-1.79,0,0-1.54,1.49-7.29.94,0,0,2.56,4-7.75,2.87,0,0,3.08,3.57,6.78,4.3a13.39,13.39,0,0,0,7.63-.21s-.68,3.11,4.1,4.31,5.75,2.13,8.2,3.11c0,0,.34-2-6-6.65a32,32,0,0,1,8.32,1c4.9,1.19,16,4.05,22,.51Zm2.58,4.77a3.65,3.65,0,0,0,4.18,1.85c3.15-.54,8.34-1.46,13.35,1.09,0,0,.85-4.26-9.21-4.56,0,0-6.3.34-8.32,1.62ZM735.67,356.2s-3.87,3.18-.36,6.49c3.21,3,8.16,2.76,10.54,2.67a9,9,0,0,1-2.68-2.69c-1.25-1.88-1.3-3.14-3.93-4.35S736.19,356.76,735.67,356.2Zm-4.06-16.54s-5.81,12.24,17,15.26a9.4,9.4,0,0,1,1-3.28c.91-1.92,2.91-5.8,1-8.31s1.54-1.19,2.05-4.48-.34-2.81,1.25-4.95c0,0-7.18,2.6-9.91,5.76s3.7,5.54-.11,9a10.43,10.43,0,0,1-5.07-4.61,8.91,8.91,0,0,1-7.23-4.39Z" style="fill:#5a3719"/><path d="M791.65,367.89s4.78-.77,17,3.8,17.26,3.41,19.08,3.28c0,0-6.88,3.59-17.53-1.1-9.42-4.15-10-2.57-18.53-6Z"/><path d="M868,365.16a12,12,0,0,1,4.41.67,7,7,0,0,1,3.61-1.18S874.3,363,868,365.16Zm-8.34-6.75s2.79-.13,3.63-1.46a9.51,9.51,0,0,0-3.55-2.64A10.11,10.11,0,0,1,859.63,358.41ZM766,327.26s-.51-1.36,2.39-1.79,40.88-5.84,40.88-5.84,2,0,2.3,1.32-.23,2.5-9.4,3.58-33.38,4.1-33.38,4.1S766.19,329,766,327.26Z" style="fill:#ffc221"/><path d="M803,325.62s0,5.37,5.47,6.17c5.31.77,7.13-.33,8.54-3.12.37-.73,2-6.34-.36-6.77a7.52,7.52,0,0,0-3.74.43c-1.83.78-3.53,1.7-2.92,2.61,1.29,2,1.54,2.42,1.06,2.56a2.19,2.19,0,0,1-2.54-1.56c-.33-1,.72-1.64-2.85-1.11-1.46.22-2.66.17-2.66.8Z" style="fill:#ffc221"/><path d="M825.75,321.49c2.79.32,2.58,6.23-.76,8.9a8.16,8.16,0,0,1-7,1.85c-1.82-.77-1.59-.51-.18-2.64s2-4.73,1.22-6.62c-.24-.6.42-1.09,1.34-1.29A19,19,0,0,1,825.75,321.49Z" style="fill:#ffc221"/><path d="M828.18,322s2,2.51-.49,7.13c0,0-1.1,1.36,1.37,1.17s8-2.84,7.41-6.23c0,0-.19-.82-1.63-.74s-.27-.8.34-1,2.49-.87-2.39-4a2,2,0,0,0-1.75-.43c-.74.24-3.34,1.3-3.34,2.81a2.43,2.43,0,0,0,.49,1.25Z" style="fill:#ffc221"/><path d="M833.52,317.76s3.89,2.79,3.87,3.62-.36,2,.66,1.85,5.24-1,4.08-3.78-2.32-3.77-4.27-4.45-2.45.24-4.12,1.51C833.75,316.51,832.53,317.25,833.52,317.76Zm-21.06,3.94s.65-2.08-2.85-2.84c0,0,1.48-1.22,4.44-.57s2.63,2.59,2.6,2.84a13.46,13.46,0,0,0-4.2.57Zm7.6-.48a29.23,29.23,0,0,1,5.85-.48s-2-4.46-7.39-2.94c0,0,1.94,2.19,1.54,3.42Zm6.93-1.11s0-1.36,3.44-2.73a5.8,5.8,0,0,0-4-1.42c-2.66.17-3.19,1.14-3.19,1.14S826.13,318.1,827,320.11Zm1.35-4.66a10,10,0,0,1,3.46,1.68s2-2.2,3.72-2.67A7,7,0,0,0,828.33,315.44Z" style="fill:#ffc221"/><path d="M716.51,304.7s9.38-8,14.64-7,2.62.3,8.37-.6,11.68-1.49,14.07-1.19c0,0-7-5-19.37-4.9,0,0-8.77,3-14.81,7,0,0-11.62-6.48-23.64-2.6,0,0,13,4.73,20.73,9.25Z" style="fill:#5a3719"/><path d="M816.29,318.47l1.57-.26s2.64,3.27.72,3.31c-1.5,0-.89-.46-1.18-1.41A3.08,3.08,0,0,0,816.29,318.47Zm-11.79.26s-.94,1.17.83.89c2.15-.33,1.74.07,4.1-1.53a3.88,3.88,0,0,1,4.16-.58,6.27,6.27,0,0,0,4.13-.15c1.85-.89,2.28-.83,3.28-.75s.93.3,2.26-.67,3.64-.23,5.09-1.44,3.28-.19,0-2.54c0,0-.68-.68-.63-1.26A6.48,6.48,0,0,1,830,312a3.24,3.24,0,0,0,2.93.47,9.1,9.1,0,0,1,3.08-5.61c2.91-2.69,2.93-2.9,1.22-2.92s-4.59-.68-5.55,0-9.48,6.27-14.44,7.2S807.68,313.46,804.49,318.73ZM672.25,288.17s15.21,3.92,18.63,5.57c0,0,.82-2.54-6.09-4.53a86.4,86.4,0,0,1,34.56,7.56s8.57-7.35,36.14-5.07c0,0,.05-2.43.24-4.31,0,0-19.37-.57-37.14-11.37,0,0-15.91,7.83-46.33,12.15Zm84.53,7.35c-1.06-15.55,4.9-16.94,4.9-16.94a45.19,45.19,0,0,1,5.85.48s-4.71,5.6-3.46,16.71c0,0,.49,1.79-3.49,1.79S756.79,295.52,756.79,295.52Z" style="fill:#ffc221"/><path d="M760.85,305.81s-2.89-3-3.19-6.37c0,0-.08-.88,2.85-.8s3.31-.28,4,1.42a33.86,33.86,0,0,0,3,5.54l-6.68.2Z" style="fill:#5a3719"/><path d="M767.1,298a37,37,0,0,1-.32-5.91c.19-8.67,1.63-7.9,2.2-6.82l3,.05s-2.16-9.78-4.71-4.07-2.32,9.27-2,13.7a23.78,23.78,0,0,0,.8,5.1Z" style="fill:#ffc221"/><path d="M800.59,298.07s5.72.87-3,3c0,0,.43,10.6,10.79,3.18a72.23,72.23,0,0,1,10.37-5.51s2.14-.74,1.88-2.34c0,0,.17-1.88-2.05-1.51a9.72,9.72,0,0,1-2.88-.37s-1.22-1.44-2.05-.89-2.76.23-1.25,2.07,2,1.36,2.71.83,4-1.83,1,.87-5.38-1.49-6.35-2.26l-9.11,3Zm-28.65,1.2-2.54-.06s-1.37,2-2.3-1.17L766,300.11S769.17,311.49,771.94,299.27Z" style="fill:#5a3719"/><path d="M768.33,286.14s-1.29,7.45.34,12.05l27.53.51a114.54,114.54,0,0,1,.08-12.56h-3.91a56.67,56.67,0,0,0,0,9.69h-.65a53.77,53.77,0,0,1,0-9.7H788.5a60.86,60.86,0,0,0-.11,9.75h-.61a55.19,55.19,0,0,1,.08-9.75h-3.19a44.87,44.87,0,0,0,0,9.68l-.76,0a41,41,0,0,1,0-9.66h-3.53a31.53,31.53,0,0,0,0,9.72h-.72a32.51,32.51,0,0,1,.08-9.72h-3.53a36.26,36.26,0,0,0-.11,9.72h-.68a41.27,41.27,0,0,1,.19-9.72h-3.3a33.1,33.1,0,0,0-.15,9.72h-.72a42.54,42.54,0,0,1,.15-9.72h-3.26Zm29.09,13.59s-.76-13.47,1.82-16.94,3.11-2.79,7.52,0a114.55,114.55,0,0,0,11,6.14c.91.34,2.2.68,2.2,3.13s.46,3.18-3.34.11a14.43,14.43,0,0,0-3.63-2.49c-3.4-1.09.82.76,2,2.49,1,1.47,1.82,1.31-.84,2s-11.85,3.75-16.79,5.57Z" style="fill:#ffc221"/><path d="M807.06,290.08s-2-2.52.54-3.1,2.73,4,3.16,6.74S807.57,290.94,807.06,290.08Zm-3.7,11.74s-3,1.09-1,2,7.41-3.58,5.53-3.28A31.41,31.41,0,0,0,803.36,301.82Zm4-4.16s2.62-.26,2.11.87-1.45.41-1.85.16-2.25-.89-.26-1Z"/><path d="M821.33,294.14s.7,5.13,5.11,6.43c0,0,2.54.63,2-1.61a20.24,20.24,0,0,0-.8-2.66c-.36-.78-2.13-1.28-2.32-1.36s-.42-.62.8-.23,1.41.44,1.31-.41-.81-.51-1.93-1.05c-.43-.21,0-.49.5-.39s1.54.43,1.56-1.34c0,0,.24-1-1.1-1.05s-1.35-.73-.89-.83,2,1,2.41-.78-2.11-.76-1.77-1.68,2.15.53,2.29-.57,1.6-1.53-.88-1.87c-1.18-.16-.09-.68,1.23-.5s2.27-1.55,3.09-2.12,5.43-3.33-.72-2.42-8,3.89-8.35,4.49-2.11,4.12-1.56,10Z" style="fill:#ffc221"/><path d="M835.66,298.12a1.6,1.6,0,0,1,1.81.61c1,2.08-1.31,1.34-2.6,2.87s-1.33,1.22-3.15.68-2.51-3.3-2.51-3.3c-.2-.85.58-.92,1.53-.81a21.49,21.49,0,0,0,4.92-.06ZM829,297s.13.62,1.17.71a18.09,18.09,0,0,0,5.88-.23s.66-.13.37-1.31c0,0,0-.76-1.65-.45a14.66,14.66,0,0,1-4.76-.17c-.78-.17-1.42,0-1,1.46Zm-.25-3.72a1.78,1.78,0,0,0,1.58,1.83,17.94,17.94,0,0,0,4.51,0c.65-.13,1.81-.36,1.91-1.32s.36-1.66-1.65-1.17a13.31,13.31,0,0,1-4.69.11c-.25-.06-1.61-.47-1.65.5Zm.74-3.27a3,3,0,0,0-.34,1.45c.06.71,1.23,1,3.36,1s4-.28,4.16-1,.65-1.54-1-1.28a11.74,11.74,0,0,1-4.61,0C830.2,289.82,829.63,289.7,829.49,290Z" style="fill:#ffc221"/><path d="M907.57,298.26a5,5,0,0,0,1.14,2.94l-59-1.7s.86-.53,1.08-2.83l56.81,1.58Z" style="fill:#5a3719"/><path d="M830,287.58s-.51,1.49.55,1.79a12.35,12.35,0,0,0,5.3.24,1.65,1.65,0,0,0,1.63-1.21c.42-1.29.38-.57-3.06-1.25,0,0-1.08-.32,2.05-.33,0,0,1.75.06,2-.24s2.58-2.13-.42-2-1.52-.53,0-.53,2,.31,2.49-.17,0-.16-.78-1-.25-.58.34-.13.95.6,1.61,0-.51-1.43,0-1.34.76,1.07,2.7.14a6.32,6.32,0,0,1,5.27.08c.71.53,2.73,1.21,4,0s-1.45-2.28-.31-2.45,1.94.23,2.39-.68-1.77-1.79.37-2.37.34-6.57-.4-7.12c0,0-2.39,1.41-5,5.65s-4.16,6.71-7.72,5.42a8.08,8.08,0,0,0-8.56,1.31c-1.23.75,2.58,1.12.35,1.17s-2.22.23-2.45.58,0,.64.37.66,1.25.87-.11.83-2.34-.26-1.93,1.2c0,0,0,.32.82.4s1.08.92-.4.92c-1,0-1,.37-1.07.46Zm5.46,14.8s-1.05.75.4.83,2.22.36,2.68-.42,2.42-.46,1.11-1.55-2.19-.47-4.19,1.13Z" style="fill:#ffc221"/><path d="M841.52,284.62s4.91-4.63,9-1.49a45.58,45.58,0,0,1,4.56,3.67c.06.06.48.4-.63,1.39s0,1,1.2.36,1.31,0,1.91.62,1.4,1-.5,1.07-6,0-6,0-2.76.23-1.37-.89,1.2-2.47.48-2.56-.06.68-.48,1.21a3.16,3.16,0,0,1-2.36,1c-1,0-1.82.7-.28,1.26s-.17.92-1,.9-4.64.3-.74.77-.35.36,2.51,2c3.16,1.81.88,5.64-.31,6,0,0-1.31.71.34.52s2.56-.43,1.4.46-3.5,3.88-6.75,1.6c0,0-1.48-.7,1.17-.83s-2.16-.69-3-1.23-3.84-3.65-1.94-3.27,1.22-.73.09-1.13-1.37-2.15-.09-1.77,2.79,1.1,3.82,1,.74-.48-1.45-1.16-3.1-.79-2.59-2.64,2.91.73,2.34-.66-2.65-.7-1.54-2.54,1.37-1,1.88-.81,1.33.06-.11-1c-.91-.68.08-1.61.34-1.83Z" style="fill:#ffc221"/><path d="M845.05,285.9s0-.62.85-.51.66-.32.91-.45,2.47.66.4,1.41c-.76.28-2,.08-2.16-.45Z"/><path d="M849.75,291.14s-1.66.85-.16,2.59c1.28,1.49,1.28,2,1.17,2.95s56.81,1.58,56.81,1.58-.1-3.66,2.34-5.71l-60.15-1.41Z" style="fill:#ffc221"/><path d="M908.54,297.26s.23-3.08,1.94-4.11c.94-.56,2.18-.23,2.72,2.25.77,3.54-2.23,6.54-3.62,5.2a4.28,4.28,0,0,1-1-3.35Z" style="fill:#5a3719"/><path d="M843.32,310.56s3.79-3.22,4.36-4.67c0,0,10.25,7.26,9.63.59a27.14,27.14,0,0,1,.31-3.49s3.71.36,4.27-2.6l-9.57-.28s-1-.21-2.48,1.39-4.53,3.35-7.38,1.82a2,2,0,0,0-2.41-.16c-1.21.87-1.27,1.13-.27,2.07a16.84,16.84,0,0,1,3.53,5.33Zm22-20.06-5.61-.21a34.36,34.36,0,0,0-6-6.08s-1.17-.51,1.08-2.3a7.35,7.35,0,0,0,3-4.58c.09-.87-.14-2.24.71-1.19s6.66,6.29,7.49,4.73a11.7,11.7,0,0,0,1.11-2.75c.14-.47.34-1.92,1.17-.4s1.39,1.13,1.42,5.05a22.93,22.93,0,0,0,.74,5.29s-7.35-2.35-5.07,2.45ZM841,278.56s4.27,2.39,6.38-.85,3.53-3.75,1.94-6.86,0-4.56,1.25-5.84,2.23-1.07,2.4-6,3.59-6.61,5.13-8.14,5.41-3.88-.46-4.86-17.49-4-20.51-8.53-4.39-1.83-4.44-1.66-1,3.5,2,9.51,5.58,9.88,8.49,11.82,5.53,3,4,7S843.15,275.32,841,278.56Z" style="fill:#7b3c20"/><path d="M856.76,265.78s.74,10.27,8.26,13.94a16.14,16.14,0,0,0,1-8s2.45.21,3.13,1.32a4.33,4.33,0,0,0-3.42-4.07c-3.53-1.09-1.82-7.78-.57-8.55s.85-2.1,0-3.31-1.08-3,1.88-2.27,2.51-.81.74-2.26-1.71-3.24.8-3.24,6.66-2.43,4.16-3.2-3.3-1.58.11-2.56,5.07-2.22,2.51-2.51-4.27-1.19-1.77-1.62-.46-3-3.36-3.11-9.17,1.07-4.22-2.9-7.12-1.07-2.16-3.67-1.65-1.45-2.56-1.49-.9,0-.57-1.32-.69-1.92-2.11-1.11-1.42.81-1.37-1-1.71-.47-2.79,0-3.82,2.51-4.9,1.41-1.71-2.26-5.07-.21-2.56.21-2.51-.68,1.31-4.43-3.3-.64-.85-4.09-4.5-1.41-4,3.15-4.61,2-1.26-2.17-5.27.38-1-1.54-.48-2.43,2.28-6.69-1.25-2.17c0,0-1.71,3.15-5.53-2.47,0,0-4,5.59-5.07,3.12s-2.05-2.73-3.36-1.11-.34-.09-.91-1.45-.91-3.88-7.63,1,2.34,1.32-2.79,3.54-17.49,9.21-6.15,7.59-5.53,4.43-1.59,5.54,2.68,4.52,17.43.47,12.36-.64,19.88-3.88-1.71,1.11,8.37.9,1.71,0,3.65,2.13,10.48,7,18.46,7.85,9.91-2.17,7.63,1.28-3.08,4.77-4.44,6-5.13,3.92-5.18,8.7-6.27,5.54-4,10.83c0,0,3.53-3.41,5.41-5.29Z" style="fill:#5a3719"/><path d="M869.88,277.27a4.54,4.54,0,0,1-1.78-3.55,2.92,2.92,0,0,1,1.78,1.05s4.59-5.2-.89-7.08-2.75-6.85-.89-6.88,2.18-.54.62-2.61-1.45-2.16,1.66-2.7,2.69-1.19,1.31-2a10.08,10.08,0,0,1-2.44-2s8.81-3.84,6-5.6,0-1.31,2.54-3.13,2.89-2.16,3.27-2.87a17.87,17.87,0,0,1-4.37-.11s2.2-1.08,0-2.87-3.11-3.41-6.6-2.59-2.35-.34-1-1.79.72-2.27-1.75-2.64a7.45,7.45,0,0,1,2.16-3.33s-4.75.34-6.34-.48c0,0,1.9-1.31,2.05-2.87a16.18,16.18,0,0,1-5.92.54s1.94-1.68,1.94-3.15c0,0-5.73,1.28-8.39,3.3a1.86,1.86,0,0,1-1-.74c-.46-.62-.8-1.25-7.14.77,0,0,.72-2.81,2.24-4s1.29-3.41-8.58,2.76c0,0-1.33-.8-2.43-3.75a19.19,19.19,0,0,1-3.76,4s-1.37.57-1.2-1.35-1-.55-2,0-1.71,1.92-1.2-2-1.37-4.69-1.37-4.69-3.08,4.35-4.84,4.82a31.3,31.3,0,0,1-4.39-5.24c-1.14-2.09-1.14-2.86-2.28.77s-2.56,3.92-2.56,3.92-1.94-1.66-2.16-2.56a3.27,3.27,0,0,1-1,1.41,7.93,7.93,0,0,1-1.65-4.9s-10.59,5.84-11.91,9.38c0,0-10-.6-14.18.17a9.84,9.84,0,0,1,3.65-4.86,3.12,3.12,0,0,1-2.73-3,11.08,11.08,0,0,0,3.42,0c1.31-.34-1.82-4.14,1.48-4.22s5.41,1.58,3.93-2.81-.8-4.39-.8-4.39,5.75,3.41,6.66,2.56-.74-2.69,4.39-1.83,3.7-2.09,5.7-2.22,3.08,1.28,1.82-8,6.21,4.6,1.14-9.42c0,0-1.28-4.24-4.33-6.05,0,0-.68,3.07-4.13.36s-10.22-3.67-7.38-5.8,4.19-5,3.36-6.78c0,0-3.36,3.51-9.2,1-4.61-2-5.58,1.66-10.31.6,0,0,.09-1.21,4.07-4.35s-2.31,1-4.78,1.6-3.19.11,2.05-3.94S795,150,793.59,144.09c0,0,2.45,3.11,8.89.85s11.22-3.07,13.16-6.4,7-6.69,8.32-7.42S827,129.89,825,133a27.67,27.67,0,0,1-14.13,12.24c-8.89,3.67-12.3,6.35-13.9,8.27s-9.68,6.23-4.44,5.5,14.35.13,10.08-1.11-9.11.77-5.18-2.81,4.61-4.77,10.31-7.16,12-7.85,11.39-2-11.22,12-13.84,13.86-1.65,1.58-1.59,2.35a3.87,3.87,0,0,1-1.48,3.07c-1.08.73-.74,1.54-.46,3.15s-.28,2.26.51,2.51,1.59.38,1.82,1.54.83,1.3,2.36,1.17,2.51,0,2.62.92,1.57,2.11,1.74-.62,1.17-3.26-1.62-2-3.39.81-3.33-.49-.26-1-1.42-1.11-1.57-1.75.51-2.84,2.05,0,4.64-2.13,2.59-2.75,3-3.75-3.7,2.92-5.67,3.82-1.45-.62-1.11-2.86,5.24-5.16,7.49-5.2,7.32,1.28,5.13,4.35-8.4,6.71-5.72,7,3.1-.77,4.64.6.11,4.14-.6,5.61a11,11,0,0,1-2.85,3.67s-2.82-5-2.73-1-.6,5.41,0,5.56,3.73,2.24,4.73,2.28-5.41,3-2.73,3.2,6.92-1.17,8.4-3.94c0,0-5.44-1.32-7.63-3.37,0,0,6.35-1.49,4.59-7.61,0,0,6.32,1.73,3.59,4.58s-4.39,2.43-2,3.24a21.55,21.55,0,0,1,3.53,1.49s1.62.81.68,2.13-1,3.33-.17,3.28,3.47-1.28,1.22-2.64,2.56-1.13.51-2.28a13.58,13.58,0,0,1-3.13-2c-.54-.55,25.75-16,12.47-10.19,0,0,2.76-6,6.64-6s4.16,3,2,5.37-3.62,5.95-8.77,6.8c0,0,7.37,3.61-1.34,9.51,0,0-1.89.9-1.21,1.55s5.85-2.27,6.57-3.92a7.42,7.42,0,0,1,3.8-3.89c2-1,11.7-7.59,14.62-12.59s3.72-5.17,9.42-9.75,4.71-3.67,5.43-4.77,1-2.93,3.65-4.41,12.8-7.13,16-9.44,9.72-6.54,12.53-10.12,10.38-8.16,12.27-7.31-.19,3.53-4.63,6.91-15.46,12.28-17.24,13.64-11.13,8.19-14.62,8.64-3.11,1.68-5.2,4-6.91,7-8.54,8.36-5.51,4-5.73,5.85.68,2.1-2.43,5-12.23,9.55-15.53,10.6c0,0,5.85,1.93,2.35,5.88s-3.27,3.38-3.53,3.64c0,0,8.88-1.31,2.58,5.6,0,0-1.22,2,1.59-.09a4.24,4.24,0,0,0,1.37-5.68,22.31,22.31,0,0,1,10.14-3c5.43-.09,5.24-.46.38-1.85,0,0,3.46-4.21,6.38-2.13s2,3.27-1.1,4.92-7.63,2.33-11,4.21c0,0,6.42,1.25,9.87-1.36s3.61-1.31,4.06-.85.84,1.31-.68,3.5-1.67,2.3-1.59,2.79-.11,2-3.23,2.5-4.52,1.82-3.46,3.3,1.1,5.15-1.56,4.8-1.94-2.44-3-3.27-2.47-2.1-7.1.31-5-.46-4.78-2c0,0-3,2.62-5.51.2s-.23-3.35,1.22-4.58,7.33-3.78,3.8-3.33-8.81.68-10-2,2.62-2.42,3.23-2.16,3.11,2.27,3.19-.37,4-2.93,2.66-3.47-3.19,1.14-3.72,1.79c0,0-2.73-3.81-7.14-2.56s1.41.74,2.58.94.49,2.39-3.46,5.94-2.16,2.47.76,2.47,10.1,0,5.92,3.44-5.85,5.12-8,4.52.27-2,1.22-2.62,1.52-1.65-.53-.88-2.77.91-4.41-2-.95-2-.27-4,2.28-3.92.38-3.21-1.71.77-1.56-1.42a2.66,2.66,0,0,0-2.16-2.67s.91,2.19.08,3.58-.87,1.88.49,2.24,2.66,1.54.8,2.81-1.63,1.11-.46,1.88,2.89,1.65,1.06,3.44-.3,1.25.61,1.25,3,.77,3,2.53-.12,2.19,2.84.54,8.89-1.45,8.81.85-.76,2.87,2.39.91,4.56,1.85,6.72,0,3.53-3.64,6-.48,1.72,4.11-1.33,6.34,1.48.51,3.8-.68,8.81-2,12.53-.34,4.78,1.28,7.52.14,4.14-1.39,8.28,1.36,7.37,3.27,9.53,3.21a37.06,37.06,0,0,1-9.76,2.13c-5.17.34-7.75,1.31-8.77,2.1,0,0,3.11,1.88,3.72,4.18,0,0,3.38-.46,5.05.23a3.23,3.23,0,0,0,1.22,3.75c2.09,1.31,3.53,1.79,2,3.58s2.39,1,.15,3.55-2.85,3.81-2.92,5.85.49,2.36-1.52,2.56.34,2.44-.57,5.12-6.53,2.39-6.3,9.55a22.34,22.34,0,0,1,4.9-6.57c3.34-3.07,3.46-3.35,3.38-5.2s-.23-1.42,1.56-2.81-.8-2.7,1-4.69.23-1.59,2.32-3.61-1.82-2.27.3-4.35-5.13-4.43-3-5.77,5.7-3.18-6.46-3c0,0,2.92-4.83,13.18-3.78,0,0-2.7,1.9-2.92,3.78a11.53,11.53,0,0,0,1.9.77,7.25,7.25,0,0,1-2.35,3s5.43,3,6.3,4.83c0,0-3.3,1-4.14,2.47a9.85,9.85,0,0,1,1.94,3.78s-3.68-.46-4.18,2.3-1.59.88-1.59,2.5.11,2.27-1.18,2.53-.23,1.62,0,2.53a11.73,11.73,0,0,1,.46,3.64,14.44,14.44,0,0,0-2.73.28s.57,4-1.63,4.52,1.18,1.36-1.18,1.79-2.05.57-4.94,5.74c0,0,2.47-1.39,5-3.07s-.19-1.17,4-5.32,3.46-4.46,3.11-6.57-.42-3.81,1.1-5.8,2-4.26,7.41-4c0,0-1.59-3.59-3.57-4.52a13,13,0,0,1,5.32-2,28.36,28.36,0,0,0-7.29-5.66s4-3.47,5-5.12a10.56,10.56,0,0,1-3.34-.06s.7-1.66,4.33-4c0,0,1.94,1.88,1.86,3.84,0,0,6.23-3.58,9.76-3.18,0,0,1.78,4.49-6.87,12.9a49.69,49.69,0,0,0,7.63.2s-1.29,4.15-7.78,6.59,1.4,5.3-5.24,4.8-4.59,1.79-4.41,5.17a74,74,0,0,1,.27,7.79s-5.32-1.73-5.2,3.41-2.73,6.23-3.3,6.71a12.56,12.56,0,0,0-3.87-2.19s-3.3,6.27-8.63,9.92Z" style="fill:#5a3719"/><path d="M862.28,212.78s1.82-.3,4.9,1.62,6.09-2,2.68-3.07.06-2.22,3.13.26,4.27,1.24,5.41.38,2.51-1.32.4-2.77,1.42-.77,3,.26,1,2.09.74,2.39-.4,3.62,2.73.51,4.67-6.23,4.61-7.76a4.51,4.51,0,0,1,1.94,3c.23,2,2.62-1.07,3.42-2.13s2.16-3.76,2-5.78c0,0,2.11,3.26,5.24,0s1.77-1.21,5.53-2.19a23.56,23.56,0,0,0,11.05-6.86c2.56-3.11,2.73-1,6-1.79s10-5.37,10.59-7.89.51-4.05-.46-3.2-.57.17-2-.73-3.53,1.15-3.53,1.15,2.11,1.62.51,2.3-3.13,2.94-6.15,2.09-6.15,2.77-6.15,2.77,2.62,2.17-.91,3.54-3,1.83-5.13.34c0,0-3.76,4.77-5.92,5.76a2.61,2.61,0,0,1-1.71-1s-2.45,2.77-3.7,3.33a9.74,9.74,0,0,0-3-2s-3,3.67-5.47,4.82a6.72,6.72,0,0,0-2.34-2.3,11.63,11.63,0,0,1-6,7.63s.34-1.28-2.28-3c0,0-6.49,5.63-9.06,6.18s-.17-1.19.17-1.92,1.94-3.11-1.2-4.09-2.62.68-3.3,1-.74-.55-2.85-.26-1.77,1.24-2.68,1.58-4.56-.6-4.39,1.83,1.88,4.09-1.31,5.5,1.2,1.11,5.41.47Z" style="fill:#7b3c20"/><path d="M875.44,205.92a4.22,4.22,0,0,0-1.94-4.56s17.2-2.64,4.22-9.21c0,0,15.44-3.2,11.79-8.14s-7.19-3.84-7.72-3.75,3.28-2.86,4.31-2.47,13.44,5.16,10.25,1.07-2.91-3.84-3.42-5c0,0,4.1,0,10.31,6.05a5.22,5.22,0,0,0,1.14-3.84s4.44,1.24,5.81,2.56a4.31,4.31,0,0,0,.46-2.39s3.82,2,5.13,4.22a6.72,6.72,0,0,0,2.05-3.28s3.82,1.58,4.78,2.77a5.44,5.44,0,0,0,.8-4.05s6.32,1.88,7.18-2c0,0,6.36,1.38,2.23,3.85-5.31,3.18-.54-.79-6,3-4.23,2.94-6.59,6.4-8.62,5.68-1.49-.52-3.28,3.82-5.34,1.69s-2.05-1.15-3.47,1.07a33.29,33.29,0,0,1-3.65,4.48,10.58,10.58,0,0,1-2-1.49,20.39,20.39,0,0,1-2.84,3.58,10.52,10.52,0,0,0-3.25-2.69,34.66,34.66,0,0,1-5.07,4.86,11.16,11.16,0,0,0-3.76-2.39s-.28,4.9-4.1,7.42a6.19,6.19,0,0,0-3.25-2.6,19.59,19.59,0,0,1-6.09,5.63Z" style="fill:#5a3719"/><path d="M866.39,198.41s-2.09,1.61-.74,3.33,1.42-.3,3.13-.47,22.79-3.79,3.7-9.51c0,0,.8-.73,4.1-1s15.27-3.54,9.68-7.8-10.22,1.45-5.53-3.67c3.76-4.09.74-6.1.74-6.1s-11.11,7.42-13.56,8.78-6,4-1.82,5.33,7-4.52,7.41-3.2-8.37,6.18-7.12,8.44,1,4.14,3.13,3.71,8,1.11,3.25.94-6.38,1.24-6.38,1.24Z" style="fill:#5a3719"/><path d="M874,187.8s-1.94,1.36.63.68,7.69-1.79,6.72-3.11S877,185.63,874,187.8Z"/><path d="M907.86,165.8s9.8-.26,13.84,2.47,6,4.52,7.18,4.9c0,0-.17,3.71-6.44,1.07a7.16,7.16,0,0,1-.34,3.54,18.9,18.9,0,0,0-5-2.22,6.17,6.17,0,0,1-1.31,2.22,15.77,15.77,0,0,0-5.92-3.67,7.6,7.6,0,0,1-1.2,1.92s-3.36-1.92-5.92-1.88c0,0,.51,2,0,2.86,0,0-7.12-5.59-13.44-4.86,0,0,3.08,4.48,5.07,6.69,0,0-12.82-1-10.71-7.93s-.17-5.17,8.2-5.12S907.86,165.8,907.86,165.8Z" style="fill:#7b3c20"/><path d="M847.76,184.88s-1.48,1.21,0,2.23,6.55-2.64,7.23-3.15,2.51-.43,0,1.45a36.35,36.35,0,0,0-6.66,6s8.49-2.3,14-7.08-.26-1.68,9.17-6.23,14.35-11.85,9.28-11.09-9.63,6.57-13.56,8.78-6.15,2.51-5.53,1.24,3.53-.77,8.94-5.12,4.22-4.05,4.27-5.59-2.05-5.33,6.09-9.59,33.49-19.1,35.66-24.17c0,0-7.41.81-17.15,8s-15,10.57-17.65,11.47-2.35.3-4.11,2.39-11.39,11.38-13.16,12.75-2.28,2.26-2.43,5c-.07,1.27-11.07,9.55-14.43,12.68Z" style="fill:#5a3719"/><path d="M881.25,165.56a4.74,4.74,0,0,1-3.7,0c-1.82-.87-1.25-4.8,3.13-7.14s12.36-5.84,16.41-6.35c0,0-.57,5.07-13.16,9.34C883.93,161.4,884.72,164,881.25,165.56Z" style="fill:#5a3719"/><path d="M885.7,162.26a4.62,4.62,0,0,1,0,2.39s23.41,2.26,35.49-12c0,0-16.58,1.54-23.18,5.5,0,0,4.16-5.2,16.58-9.51s17.49-9.64,18.57-12.58c0,0-15.71,5.5-23.18,5.5a6.16,6.16,0,0,0-2.91.77c-1.42.81-11.45,8.1-14.13,9.34,0,0,5.64-.47,7.63-2.3,0,0-3.92,10.54-14.87,12.88Z" style="fill:#aa5323"/><path d="M840.87,175.64s-3,2.13-1.77,3.2,3.41,1.28,8-2.56,15.7-13.39,8.68-13.77c0,0-9-.55-8.68,4.95S841.32,175.29,840.87,175.64Zm-20.73-3.24s5.92,3.45,3.7,6.31c0,0,18.17-15.43,13-18.76s-9.17,2.94-7.92,3.58,3.93-.55,3,.64-10.65,7.72-11.79,8.23Zm-4.73-5s4,1.19,4.16,2.9,12-8.36,8.89-12.58c-1.44-1.93-8-2.73-8.32,1.07s5.92-.38,3.76,2.35C821.06,164.72,816.26,166.81,815.41,167.41ZM858,159s-2.54,1.84-.26,3,3.76-.64,4.9-1.66,6.78-5.16,8.09-7.8,3.25-3.45,5.3-4.82,16.52-8.57,25.41-16.54,5.18-5.93,14.41-11,15.27-9.81,17.2-15.35a39.86,39.86,0,0,0-8,3.84c-3.76,2.43-12.25,7.76-14,8.48s-4.1.85-5.35,2.17-1.14,2.9-5.58,6.57S872.77,145.67,870,148,858,159,858,159Z" style="fill:#5a3719"/><path d="M839.58,164.37s2.51-1.38,7.22-1.06,23.32-17.7,28.71-21.34,22.25-15.8,24.53-18,2.66-4.61,4.63-5.91,3.8-1.14,8.35-3.75S939.46,98.6,938.17,91c0,0-32.58,19.56-40.1,25.92S869.66,137.71,865.94,140s-6.68,6.37-12.91,11.43-12.38,9.32-13.44,12.9Z" style="fill:#aa5323"/><path d="M832.74,157.44s6-.62,6.84,2.33c0,0,12.91-8.87,15.87-12.51s-1-1.54,6.38-6.37,31.82-21.94,35.32-25,10.1-7.11,15.42-10.69,26.13-13.76,23.77-22.11c0,0-15.27,10.23-18.68,12.45s-4.86,1-8.35,3.69-11.16,8.19-12.53,9.89S883.7,119.81,878,123.62s-18.46,11.2-24.61,16.54-18.08,15.24-20.66,17.28Z" style="fill:#aa5323"/><path d="M814,155.69s3.05,0,4,1.24c0,0,5.64-4.95,11.64-.06,0,0,22-14.89,24.23-18.65s5.77-3.81,14.35-10.06,14-8.87,19.67-13.3,10.48-9.44,14.58-12.11,14.43-9.44,12.68-15.29c0,0-8.35,4.78-13.82,10.74s-5,.85-10.56,5.86-14.13,11.82-21.27,15.35-2.81,3.13-8,6.42-4.78,2.79-6.68,3.24a13.66,13.66,0,0,0-6.68,4c-1.9,2.22-7,5.23-12.53,8.36s-19.18,11.24-21.6,14.23Z" style="fill:#aa5323"/><path d="M820.59,144.26a3.57,3.57,0,0,1,.91-4.22c2.11-1.75,5.92-6.35,6.55-9.25s.17-2.43,6.27-4.95,19.94-9,27.74-13.81,19.65-12.58,22.1-14.45,8.39-6.05,10.8-8a5.29,5.29,0,0,1-1.46,5.54c-2.62,2.26-12.7,9.34-14.35,10.45s-10.94,7.33-13.78,8.91-9.91,5.16-12.42,7.25-2.18,2.73-13.37,8.19-11.7,6-11.35,6.44,5.35-1.75,7.75-3.15,11.56-5.58,14.3-7.76a100.73,100.73,0,0,1,9.34-6.69c2-1.11,18.51-11,23.24-14.5s6-4.65,7.06-4.05,2.68.64.57,2.64a141.62,141.62,0,0,1-11.39,9.59c-2.56,1.71-10.59,6.48-12.82,7.63s-3.08,3.28-4.33,4.18a27.18,27.18,0,0,1-9.34,4.52c-4.44,1-5.24,4.35-8.15,6.23s-23.58,13-24.21,13.56c0,0,1.25-1.28.34-4.26Z" style="fill:#aa5323"/><path d="M892.13,97.83s-1.14,1-.51,1.58c.83.75,3.7,2.77,7.29-.79s13.23-11.32,16.36-13.15,4.61-3.58,4.49-6.1A190.18,190.18,0,0,0,892.13,97.83Zm20.39-1.36a25.8,25.8,0,0,1,7.86-7.38c5.58-3.58,14-8.79,15.09-10.06,0,0,2,2.26-2.39,5s-12.93,8.44-14,9.25A17.45,17.45,0,0,1,912.52,96.47Z" style="fill:#aa5323"/><path d="M799,137.78s-6.21,3.33-4,5.41,5.53,1.45,6.89.85a42.56,42.56,0,0,1,4.39-1.36c.4-.13,5.81-1.66,7.18-4.18s5-5.41,7.92-7.5,3.93-4.18,3.53-5.67C824.92,125.33,800.47,136.88,799,137.78Zm-36.91,28.69a14.2,14.2,0,0,1,10.31-.94,4.39,4.39,0,0,0-1.2-2.23s7.29-1.91,8.89-5.15,1.94-2.56,3.36-3.5,11.28-8.87,10.14-10.57-1.37-3.92-2.22-4.82c0,0-2.05,2.81-11.62,7.46s-20.22,8.14-28,18.59-7,16.5,2.51,19.14c0,0,6.66-4.18,22.9-2.73s21.76,7.55,22.79,8.65,4.33,5.12,1.14,11.9c0,0,3.25,1.41,3.53-1.71s.46-2.39,1.2-1.92,1.65.55,1.31-1.83-1.48-7.72-3-9.55.17-1,1.14-.64,4.39,3.15,2.34-2-2.56-2.6-2.62-2.35-.46,1.54-4.9-1.79a34.91,34.91,0,0,0-11.51-5.8c-3-.85-.91-.85.85-1.49s4.16-1,5-3c0,0-1.77.43-5-.73a17.17,17.17,0,0,0-15,2.64s1.65-6.05-3.13-5.71-8.15.21-13.22,4.22c0,0-.28-6.1,4.5-9.25s4.16-1.24,6.84-2,2.91-3.5,1.77-4.35c0,0,6.27,1.07,16.8-7.67,0,0-5.66,7.42-12.54,8.91,0,0-1.09,3.95-7.34,4.82s-6.09,4.48-6,5.37Z" style="fill:#7b3c20"/><path d="M744.1,202.61s3.07-18.37,20.28-19.7c15.08-1.16,19.86.71,22.86,1.68s10.33,3.13,7.48,5.49-4.48,1.93-4.48,1.93,3.3-3.67.3-4.29-3.27,1.19-3.68,2.73-.61,3.38-2.09,4.58a2.67,2.67,0,0,0-3.68-.23c-2.17,1.53-.3,1.59.57,1.34s2-.71,1.78.63-1.44,3.64-5,5.51S775,204,770.8,204.71s-8.2,2.36-13.63,7-11.37,3.11-12.57-2.1a18.06,18.06,0,0,1-.49-7Z" style="fill:#5a3719"/><path d="M763.79,202s1.65-3.62-1.31-5.29c0,0-9.06,1.55-11.73-1.19,0,0,9.85-.51,16-2.9s4.27-4.05,2.16-4.43-6,.55-6.38,2.47c0,0-1.2-2,.34-3.41a6.5,6.5,0,0,1,6.09-1c2.16.64,4.1,1.58,11.22-2.13,0,0,4.1.94,4.22,3.71s-.28,3.92-.63,4.35-.85,1.24-1.71,1.15-1.94-.3-3,1.62-1.73,3.58-3.54,4.86c0,0,2.12-6-3.12-7.38,0,0-4.33,2.56-7.63,2.69,0,0,4.22,3.92-.91,6.87Z"/><path d="M773.25,191.08s-2-2.2.63-2.43,6.09,1.68,5.41,3.3-3.76,1.56-6-.87Z" style="fill:#5a3719"/><path d="M921.3,162s-4.78,1.36-.34,4.31,6.61,5.5,9.85,6.35,6.61,2,6.55,5.29a9.11,9.11,0,0,1-2.45,6.74c-1.77,2.22,1,3.2,3.3,1.92s4.33-2,5.87-2.86,4.1-.77,1.77.43-4.78,1.92-1.77,2,21.19.43,25-.81,8.77-1.62,9.23-6.57a4.52,4.52,0,0,1,1.59-3.11c1.42-.92,2.39-3,.31-1.6s-3.67,2.15-4.07,1.73-.51-.73,1-1.43,2.36,0,3.76-2.11,1.26-1.73.52-2.51-2.31-1.36-1.54-2.37,1.54-4-1.79-2.24-9.89,6.25-12.93,7-5.35,1.63-9.46,2.47a33.33,33.33,0,0,0-11,4.13c-4.37,2.42-4.06-1.33-3.3-1.85,0,0,1.67,2.93,6.11-.88s3-.24,13.86-3.81,8.2-4.15,12.46-6.37,8.28-2.3,5.32-5.26-3.3-3.21-7.14,0-14.43,8.38-20.77,8.53c0,0,24.49-10.57,22-12.11a27.1,27.1,0,0,0-6.91-3.27c-1.71-.37-2.16-.8-6.11,1s-4.59,2.19-5.73,2.3a27.89,27.89,0,0,0-9.11,3.18c-4.67,2.42-7.18,3.38-10.29,5.29,0,0,2.16-4.38,11.81-7.28s14.58-5.57,13.52-6.05a11.16,11.16,0,0,0-5.28-.6c-1.82.28-1.29-.14-7.18,2.19s-3.38,1.82-8.13,2.84a39.71,39.71,0,0,0-9,3.07s1-1.28,4.16-2.45c1.64-.6-1.8-1.22,2.76-1.41a4.91,4.91,0,0,0,1.28,0c5.9-1.69,12.34-4,11.35-4.18a23.73,23.73,0,0,0-12.53,1.9c-5.81,2.67-3.15,1.76-5.2,2.19s-6.38,3.15-7.82,4.32a17.87,17.87,0,0,1-3.46,2Z" style="fill:#fff"/><path d="M777.84,188.43s2.28.68,2.85,2.28,2-.7,1.94-1.43-1.45-3.92-3.93-2.43-1.23,1.44-.85,1.58Z" style="fill:#5a3719"/><path d="M771.48,220s4.86-2.29,8.94-2c0,0-1.59-5.76,1.25-4.77s2.05.6,2.62.55c0,0,.17-3.79-.57-5.29a31.34,31.34,0,0,0,5.87.73s-2.79-5.46.28-9.21a8.86,8.86,0,0,0,5.49,4.48s0-1.54,0-3.15a7.9,7.9,0,0,1,4,.68c1.77.94,3.25-9.89-2-12.28,0,0-1.25,2-6.15,3.07s-4.86,2-6.87,5.69-3.78,3.73-7.88,6.37-6.59,8-6.83,8.48a9.85,9.85,0,0,1,1.82,6.65Z" style="fill:#7b3c20"/><path d="M934.91,157.12c1.78-.31-1.8-1.22,2.76-1.41a4.91,4.91,0,0,0,1.28,0c5.9-1.69,12.34-4,11.35-4.18a23.73,23.73,0,0,0-12.53,1.9c-5.81,2.67-3.15,1.76-5.2,2.19s-6.38,3.15-7.82,4.32a17.81,17.81,0,0,1-3.46,2s-4.78,1.36-.34,4.31,6.61,5.5,9.85,6.35,6.61,2,6.55,5.29a9.11,9.11,0,0,1-2.45,6.74c-1.77,2.22,1,3.2,3.3,1.92s4.33-2,5.87-2.86,4.1-.77,1.77.43-4.78,1.92-1.77,2,21.19.43,25-.81,8.77-1.62,9.23-6.57a4.52,4.52,0,0,1,1.59-3.11c1.42-.92,2.39-3,.31-1.6s-3.67,2.15-4.07,1.73-.51-.73,1-1.43,2.36,0,3.76-2.11,1.26-1.73.52-2.51c-.38-.4-1-.75-1.37-1.13a2,2,0,0,0-2.37-.15c-1.27.81-6.85,3.17-9.09,3.44S964,173.1,960,175.06s-10.71,6-11.77,2.24c0,0-2.91,1-3.55,1.36-4.49,2.29-4.1-1-3.3-1.85,0,0-2.35,2.64-2.26.24s1.61-2,4.23-2.76,6.76-2.47,5.05-3.89-3.51,1.41-5.41,2.28-5.7,1.63-6.28-1.12-.57-4.68-5.72-5-5-3.51-3.55-4.89,2.64-3.74,7.46-4.58Z" style="fill:#999"/><path d="M951.26,182.05a95.73,95.73,0,0,1,15.38-5.43c7.37-1.73,1.59.23.34.63s-12.72,4.18-15.42,5.43-2.14.18-.3-.62Zm1.86,1.62s9-3,10.67-1.73.3.63-1.67.91-7.41,1.19-8.85,1.16S953.12,183.67,953.12,183.67Zm14.43-3.13s1.71-.31,1.9.31-.76.71-1.71.6S966,180.8,967.56,180.55Z"/><path d="M729.84,259s-.34-7.9,3.65-11.91,23.35-24.16,26.32-29.8a6.7,6.7,0,0,1,2.62,4.94s3.25-5.59,5.81-7.7c0,0,2.28,2.33,1.88,7A27.87,27.87,0,0,1,782,219s-2.68,3.15-2.79,5c0,0,10-1.11,15.27-.26,0,0-13.78,7.72-9.91,8.4a25.91,25.91,0,0,0,7.92,0,21,21,0,0,1-11.39,5.37s8.89-.13,10.65,1.88a38.68,38.68,0,0,0-15.61,6.61s-.65-.3-.7-2.26a5.88,5.88,0,0,1-2.21,3.41c-2,1.66-6.78,5.2-8.54,7s-5.07,5.33-8.6,5.16a2.86,2.86,0,0,0-1.82-3.58,7.38,7.38,0,0,0-7.75,2s-9.34.13-12.3.55c0,0,2.11-3.37,4-3.28s9.74,1.15,10.42-4.18-5-3.92-2.85-7.08,1.65-3,1.71-3.33a7.19,7.19,0,0,0-2.79,3.79c-1,2.81-1.77,5-5.47,7.8s-5.24,4.52-6.26,6.48C733,258.4,731.35,258.63,729.84,259Z" style="fill:#fff"/><path d="M738.82,254.19s.3-1.08,3-1.54,2.85-1.76,2.51-2.33-2-.57.68-3.58a3.62,3.62,0,0,1,1.59,1C747.29,248.48,750.29,254.9,738.82,254.19Z" style="fill:#fff"/><path d="M732.26,248.61c.14,5.26,7,3.31,7,3.31a27.93,27.93,0,0,0-5,4.54c.46-2.56-3.89-3.2-3.89-3.2A14.86,14.86,0,0,1,732.26,248.61Zm25.37-28.14a25.29,25.29,0,0,0,2.18-3.21,6.7,6.7,0,0,1,2.62,4.94s3.25-5.59,5.81-7.7c0,0,2.28,2.33,1.88,7A27.86,27.86,0,0,1,782,219s-2.68,3.15-2.79,5c0,0,10-1.11,15.27-.26,0,0-13.78,7.72-9.91,8.4a25.9,25.9,0,0,0,7.92,0,21,21,0,0,1-11.39,5.37s8.89-.13,10.65,1.88a37.2,37.2,0,0,0-6,1.58s-2.55-2.4-10-2.06a48.33,48.33,0,0,1,10.33-4.26s-2-2.64-5.16-.23c0,0-6.27-4.32-1.1-8,0,0-3.65-.77-6,.94a5.32,5.32,0,0,1,2.77-4.29s-7-1.14-8.77,4a6.46,6.46,0,0,1-.72-4.55s-4.25,2.45-6.19,5.22c0,0-.64-5.25-3.34-7.21M744,253.89a17.57,17.57,0,0,1-5.19.3s.19-.68,1.64-1.19c0,0,.41.86,3.55.88" style="fill:#999"/><path d="M756.79,234a32.31,32.31,0,0,1,4.33,4.05,19.25,19.25,0,0,0,4-3.71,8.7,8.7,0,0,1,3.08,3.71,5.2,5.2,0,0,0,1.94-2.64s4,.85,5.34,2.17a19.92,19.92,0,0,0,0-6.31,17.92,17.92,0,0,1,4.51.94s-1.59-2.56,6.53-5.84c0,0-6.14,1.32-8.46,4,0,0-2.62.13-3.76-.68,0,0,.17,3.92.06,5.8a35.22,35.22,0,0,0-4.66-1.36,6.1,6.1,0,0,1-1.26,1.58,10.69,10.69,0,0,1-2.79-3.5s-3,2.69-4.1,3.84c0,0-2.79-2-4.73-2Z"/><path d="M738.44,273.88s1.25.6,4.22-1.79,11.34-7.72,12.13-12-2.68-4.52-5.41-3.28-1.59,3.62-1.48,4.39.17,3.75-4.27,7.89-5.18,4.78-5.18,4.78Z" style="fill:#ffc221"/><path d="M737.48,275.24s-6.72-2.81-.68-5.84,8.72-3.84,9.4-6.35.28-2.09-1.94-1-10.77,4.9-12.08,1.32a10.57,10.57,0,0,0,7.92-.77c4.39-2.13,8-2.77,5.18-3.67s-12.87.21-14.53.68-1.25.38-1.54,2a24.61,24.61,0,0,1-2.85,6.18c-.68,1-2.34,5.29.74,7.16S735.06,276.73,737.48,275.24Z" style="fill:#ffc221"/><path d="M734.86,260.57s-1.54.21-1.26.81.69.51,1.26.55,1.42-.3,1.54-.68-1-.81-1.54-.68Z"/><path d="M737.08,273.75s-3.19-1.54.4-3.5,7.46-3.84,8-4.65c0,0-1.71,2.43-8.37,8.14Z" style="fill:#fff"/></svg>