<svg xmlns="http://www.w3.org/2000/svg" viewBox="0 0 1500 1000"><title>Barbados</title><rect width="1500" height="1000" style="fill:#00267f"/><rect x="500" width="500" height="1000" style="fill:#ffc726"/><path d="M750,257.75c-16.25,44.31-32.81,90.44-68.25,125.75,11-3.62,30.25-6.87,42.63-6.56V563.31l-52.62,7.81c-1.87-.19-2.5-3.12-2.5-7.12-5.06-57.87-18.75-106.5-34.5-156.81-1.12-6.87-21.06-33.12-5.69-28.5,1.88.25,22.44,8.63,19.19,4.63-28-29-68.94-49.87-108.69-56.06-3.5-.87-5.56.88-2.44,4.94,52.75,81.19,96.88,177,96.5,290.69,20.5,0,70.19-12.12,90.75-12.12v131.5h25.94L756.25,375Z"/><path d="M750,257.75c16.25,44.31,32.81,90.44,68.25,125.75-11-3.62-30.25-6.87-42.62-6.56V563.31l52.63,7.81c1.88-.19,2.5-3.12,2.5-7.12,5.06-57.87,18.75-106.5,34.5-156.81,1.13-6.87,21.06-33.12,5.69-28.5-1.87.25-22.44,8.63-19.19,4.63,28-29,68.94-49.87,108.69-56.06,3.5-.87,5.56.88,2.44,4.94-52.75,81.19-96.87,177-96.5,290.69-20.5,0-70.19-12.12-90.75-12.12v131.5H749.69L743.75,375Z"/></svg>