<svg xmlns="http://www.w3.org/2000/svg" viewBox="0 0 1000 600"><title>Belize</title><path d="M0,0H1000V600H0Z" style="fill:#d90f19"/><path d="M0,60H1000V540H0Z" style="fill:#171696"/><circle cx="500" cy="300" r="175" style="fill:#fff"/><path d="M408.91,366.94a33.79,33.79,0,0,0-1,5.13c0,.47-.47,3,1,3.13,1,.1,1.33-2.66,1.33-2.66s-1,3,.28,3.42c1.71.38,1.9-3.32,1.9-3.32-.19,1-1.33,3.71.29,4s2.18-3.61,2.18-3.61-1.42,3.9.28,4,1.61-3.8,1.61-3.8-.86,4.65,1.42,4.27c1.23-.19,1.52-1.81,1.8-2.76.38-1.42,1.23-3.23.19-6.17-.76-2.18-.47-2.75-.47-2.75s-2.66,2-4.75,3.32c-1,.57-6.08-2.18-6.08-2.18Zm27.73-4.09c-.47-.29-.38,1.71-.57,2.66s.19,3,3.42,2.85,6.27-1,8.26-.48a27.42,27.42,0,0,0,6.55.66,9.61,9.61,0,0,0,3.42-.48c.67-.28,2.09.38,2.75.38s1.71-1,1.61-1.71c-.1-1.24-1.23-1.24-2.85-1.33a27.29,27.29,0,0,1-4.65-.85,28.81,28.81,0,0,0-5.32-1.9s-4.56.19-5.5.19-6.55.28-7.13,0Z" style="fill:#ad7d5a;stroke:#000;stroke-width:0.61080002784729px"/><path d="M421.35,369.6l-.19-4.37,1.8,1.52.47-3.33c.76-.19,2,1.33,2,1.33l-.19-3.32,2.75,3a8.14,8.14,0,0,1,.76-4.08s2.09,1.8,2.09,3.89c0,1.81,1.8-2.56,1.8-2.56l1.52,4.84,1.23-1.81,1,3.8,2.28-3.32,1.8,3.89,4.08-.29.48,2.28,1.8-2,2.37,1.52a15.56,15.56,0,0,1,3-.57c1,0,2.28,1.33,2.28,1.33a6.29,6.29,0,0,1,1.52-1.8c.76-.48,1.8.76,2.09,1.52l1.52-2.75a15.68,15.68,0,0,1,2.28,2.75,11.41,11.41,0,0,1,.76-3c.48-.76,1.23.29,1.8,1.24l1.23-4.08a3.93,3.93,0,0,1,2.28,1.8c1,1.52,1-2.28,1-2.28a20.86,20.86,0,0,1,2.85,5.13m57.17-.76a10.41,10.41,0,0,1,1.8-3.13s2,2.38,2,3.13a13.23,13.23,0,0,0,1.61-1l1.52,1.52,1.81-1.23,1.71,1.52,3.13-1.33,1.23,1.33,4.84-.57,1.81.76,1.71-2.18,1.61,1.71,2.56-2.56a6.44,6.44,0,0,1,1.52,1.8,9.16,9.16,0,0,0,2.56-1.8s2-.76,2.28.47c0,0,1.23-1,1.14-2s1.42-.28,1.9,1c0,0,.57-2.09,2.09-2.28a4.73,4.73,0,0,1,.76,3.52,13,13,0,0,1,3.32-2,11.09,11.09,0,0,1-.28,4.84s2.37-3.9,2.85-2.57a10.92,10.92,0,0,1,.19,5.13l2.09-1.33.76,2.57,2.28-.48M473.23,381.7a18,18,0,0,1,2.75-3.61,10.4,10.4,0,0,1,3,4.08,10.42,10.42,0,0,1,1-2.85s2.85,1.33,3.32,3.13a9,9,0,0,1,1.8-2.28c.76-.57,1.52,2,1.52,3.51,0,0,1.8-1.9,2.85-2,0,0,2,.95,2.56,4.27,0,0,1.9-1.8,2.56-1.52,0,0,2.28,1.52,1.71,3.61-.28,1.14,2.28-1.33,5.41-2.09l2.75,2.09s2.56-3.42,3.32-4.56c0,0,2.09.76,2.09,2,0,0,1-3.61,1.71-4s1.8,1.14,1.8,2.18c0,0,.29-2.75,1.81-3.32,0,0,1.52,1,1.52,2.09,0,0,1.61-3.13,2.85-3.9" style="fill:none;stroke:#060;stroke-width:0.6110000014305115px"/><path d="M421.35,369.6l-.19-4.37,1.8,1.52.47-3.33c.76-.19,2,1.33,2,1.33l-.19-3.33,2.75,3a8.15,8.15,0,0,1,.76-4.09s2.09,1.81,2.09,3.89c0,1.81,1.8-2.57,1.8-2.57l1.52,4.84,1.23-1.8,1,3.8,2.28-3.32,1.8,3.9,4.08-.29.48,2.28,1.8-2,2.37,1.52a15.59,15.59,0,0,1,3-.57c1,0,2.28,1.33,2.28,1.33a6.33,6.33,0,0,1,1.52-1.81c.76-.47,1.81.76,2.09,1.52l1.52-2.75a15.75,15.75,0,0,1,2.28,2.75,11.39,11.39,0,0,1,.76-3c.48-.76,1.23.29,1.8,1.24l1.23-4.08a3.94,3.94,0,0,1,2.28,1.8c1,1.52,1-2.28,1-2.28a20.72,20.72,0,0,1,2.85,5.13s-15.72,5.4-26.81,3.92c-13.05-1.74-23.8-4.21-23.8-4.21m107.79-.47a10.4,10.4,0,0,1,1.81-3.14s2,2.38,2,3.14a13.24,13.24,0,0,0,1.61-1l1.52,1.52,1.81-1.23,1.71,1.52,3.13-1.33,1.23,1.33,4.84-.57,1.8.76,1.71-2.18,1.61,1.71,2.56-2.56a6.47,6.47,0,0,1,1.52,1.81,9.05,9.05,0,0,0,2.56-1.81s2-.76,2.28.48c0,0,1.23-1,1.14-2s1.42-.29,1.9,1c0,0,.57-2.09,2.09-2.28a4.72,4.72,0,0,1,.76,3.52,12.87,12.87,0,0,1,3.32-2,11.1,11.1,0,0,1-.28,4.85s2.37-3.9,2.85-2.57a10.9,10.9,0,0,1,.19,5.13l2.09-1.33.76,2.57,2.28-.48a122.71,122.71,0,0,1-26.18.85,109,109,0,0,1-24.62-5.7m-9.39,9.43c.62-.38-4.24,10-16,10.55-16.39.77-30.41-7.41-30.41-7.41a18,18,0,0,1,2.75-3.61,10.4,10.4,0,0,1,3,4.08,10.42,10.42,0,0,1,1-2.85s2.85,1.33,3.32,3.13a8.94,8.94,0,0,1,1.81-2.28c.76-.57,1.52,2,1.52,3.51,0,0,1.8-1.9,2.85-2,0,0,2,1,2.56,4.27,0,0,1.9-1.8,2.56-1.52,0,0,2.28,1.52,1.71,3.61-.28,1.14,2.28-1.33,5.41-2.09l2.75,2.09s2.56-3.42,3.32-4.56c0,0,2.09.76,2.09,2,0,0,1-3.61,1.71-4s1.8,1.14,1.8,2.19c0,0,.29-2.75,1.81-3.32,0,0,1.52,1,1.52,2.09,0,0,1.61-3.14,2.85-3.9Z" style="fill:#5ac800"/><path d="M531.6,183.26a4.8,4.8,0,0,1-2.18-.86l2.18.85" style="fill:#6f6"/><path d="M531.6,183.26a4.8,4.8,0,0,1-2.18-.86" style="fill:none;stroke:#060;stroke-width:0.61080002784729px"/><path d="M507,202.07l1.24.76,1.33.19s1.42,1.33,3,2.56c1.23,1,1.23-.19,1.23-.19l.76,3h1a29.48,29.48,0,0,0-.29,3l1.8-1.52,2.09,1.81s1.52-1.33,2.28-1.33a1.19,1.19,0,0,0,1-.76h.09c-5-2.37-7.21-4.84-5.7-7.41,2.47-4.27,6.55-1.52,7.88-.95l18.42,9.87s1.23-.76.38-1.52a3.79,3.79,0,0,1-1-3.42c.28-.76,2.37,2.37,3.42,2.66s3.42.67,3.42.67l-.1-1s3,2.09,3,3.14c0,0,2.18-1.14,1.42-1.81s3.32,1.62,3.61,2.85l.86-1a10,10,0,0,1,1.33-4.46,4.66,4.66,0,0,1,2-1.8s1-1.61,1.9-1.61a4.77,4.77,0,0,1-1.33-1.42,3.47,3.47,0,0,0-1.61-1.14,14.93,14.93,0,0,0,1.8-1.52,1.49,1.49,0,0,1,.76-.66,11.42,11.42,0,0,0-3.7-2.09s-.09-2.47-2-2.66h.85s-1.42-2.66-2.75-2.75a3.49,3.49,0,0,1,1.61-1s-1.61-2.09-3.8-1.33l1.43-.57s-1-1.14-4.27-.57a2.46,2.46,0,0,0-1.14-2.37s-1.23.09-1.23,1a4.27,4.27,0,0,0-2.56-1c-1.42,0,.47,1.52.47,1.52s-1.9-1.23-3-.86c0,0,.47-2.18-.76-3.32a4.52,4.52,0,0,0-1.81,1.71l-.38-1s-1.9,2.28-2.28,1.61a8.1,8.1,0,0,1-.57-2l-1.14,1.71.19-2.38a6.77,6.77,0,0,0-2.37,3.23,4.21,4.21,0,0,0-1.33,2.37,1.22,1.22,0,0,0-2,0c-.86,1.33,0,1,0,1a2.34,2.34,0,0,1-1.33.67l.19.76a3.47,3.47,0,0,0-2.18-.38l.47,1.14s-2.47.19-2.56-1.8c0,0-2.09-1-2.37.09,0,0-1.71,0-1.52.95a2.31,2.31,0,0,0-1.33-1.14c-.95-.29-.19,1.23-.19,1.23a2.86,2.86,0,0,0-1.42-1.71c-1.14-.47-.19,1-.19,1s-1.52-1.23-.76-2.18c0,0-1.42,1.33-.76,2.57l-1,.66s-.47-.47-.38-.86-1.61,1.14-1.61,1.14-1-2.47,0-2.47a2.14,2.14,0,0,0-2.09,2.09h0a11.38,11.38,0,0,0-2.37.47c-1.24.38.85,1.24.85,1.24a5.12,5.12,0,0,0-2.85.19l.67.86s-.67-.66-2.28-.09.38.76.38.76a5.5,5.5,0,0,0-2.56,0c-.86.38.28,1,.28,1s-3.13-1-3.61-.67,1,1.81,1,1.81-1.9.47-2.28,1.9l1.71.67a2.84,2.84,0,0,0-1.14,1.14c-.38.76,1.14.38,1.14.38s-2.09,1.52-2.09,2.66a2.8,2.8,0,0,0,2.66-.67c1.14-1.14.38-.76.38-.76l.09.76s2.18-.95,2.18-1.52-.38.76-.38.76l2.18-1.14,1.42.95" style="fill:none"/><path d="M505.2,172.43l-.48-2.08a23.16,23.16,0,0,1,4.84.57l.85-2a15.1,15.1,0,0,1,3,1.8s4.46-1.14,5.79-.66l-.57,2.09a33.51,33.51,0,0,1,5.41.76c1.23.47-.57,1.52-.57,1.52s4.65.57,6.65,1.8,2.09,2.28,1,2.57l2.56,4.08s-4.08.47-4.84,1.52-1.52-1-1.52-1l-.76,2.85a23.52,23.52,0,0,1-3.61-2.28s-1.24,1.52-.48,2.28a5.32,5.32,0,0,1-4.66-3s-2-.28-2,1.52c0,0-2.28-2.56-2.85-3.33l-2.57.76a4,4,0,0,0-1.71-1.33c-1-.19-.29,1.33-.29,1.33L507,180.32l-1.52-1.81s-1.33,1.8-2.38,1.8-1-1.24-.76-2.09-3-.95-3.32,0c0,0-1-3.8,2.56-4.84l3.61-.95" style="fill:none"/><path d="M528.84,184.5s.57-1.33,1.61-.57,1.23,4.08,1.23,4.08l-1.52.76s.86-1.23-1.33-4.27Zm-8.63,29.82s.76-1-.28-3.33l1.52-.47a6.32,6.32,0,0,1-.19,3.8h-1m26.3-5.23-3.61,2.19,1.8.85,4.37-2.57-2.57-.48m-48.34,14.15c-1,.76-1,2.09-1.61,2.85s-1.9,1.8-2,2.94a6.16,6.16,0,0,0,.19,3.42c.57,1.52,2.94,8.26,2,13.39s-.66,7.31-.28,8.07,1.52,2.85,2.18,2.85c1.52-.19.85-.66,1.42-1.61,1.42-2.47,0-21.56-.67-26.88a26.43,26.43,0,0,0-2.56-8.17c-.19-.48-.57-1.71-.86-2.47-1.42-3.42-3.13-6.36-3.13-13.49,0,0-4.65,1-8.64-8-2.09-4.56-5.13-4.08-8.74-5.6l1.61-1s3,1.52,4.56,1.52,1-3,1-3l1.52-1.52v6.65c0,3,4.18,7.22,6.65,8.45,1.52.76,3.52-2.38,3-5.41a32,32,0,0,1,0-7.12l2.09,1.23a3.94,3.94,0,0,0-.57,2.09c.28.76,1.33-.76,2.09-1.52,0,0,.19.19.95.19,0,0-1.52,2.56-2.28,3.89s-.76,6.08-.76,7.88.66,6,.66,7.31c0,1,1.8,4.84,3.23,7.22.47.95,1.61,3.42,1.61,3.42,1.14,1.81,1.23,3,1.9,4.56a24.86,24.86,0,0,1,1.52,6.74c.19.95.38,4.56.67,6.93s2.18.48,4.46-1.14,2.28-5.79,2.28-5.79,1.81-1.52,1.52-.67,1,1.9,1,1.9c-1.42,3.23-.57,2.85.85,2.75s6.36-3.89,6.36-3.89c.67-.19,3.61-.19,3.13,0s-1.33,1.71-1.33,1.71l3.23-.38c-1.14.86-5.41,3.32-6.36,3.89a87.87,87.87,0,0,1-8.35,4c-2.18.95-6.46,3-6.65,5.22s.28,8.07,0,10-.95,10.35-.95,10.35H494s2-7.41-.1-9.4-6.65-8.17-9.68-10.26,2-.47,2-.47V244.7l4.65,5.61s8.07-7.12,0-16.81c-2.56-3-5.13-7.69-7.12-8.17a9.21,9.21,0,0,0-6.65,0c-3.61,1-12.25,1-15.86-4.66l3-.47,2.56-1s-1,3.61,6.17,3.61,8.17,0,7.6-6.65l2.09-1,1.52,1.52s-1,3.61-.48,5.13,3,2.57,5,4.08a3.14,3.14,0,0,0,2.09.76c.85-.09,1-.09,2.18-1.24a26.09,26.09,0,0,1,3-3.32s.85-1.33,1-1.52l1,2.76Z" style="fill:#d67c59;stroke:#000;stroke-width:0.61080002784729px"/><path d="M499.69,218.21a21,21,0,0,0,1.8-3c1.14-1.9,2.47-3,4-5.41a10.68,10.68,0,0,0,1.42-7.69l1.33.76.1,3.61a21.87,21.87,0,0,1,2.57-1.9l.76.38a81.21,81.21,0,0,0-11,15.39l-1-2.09Zm-49.94-19.75c.76,1.33,1.52,3.89,3.8,5.89l1.52-.47s-3.51-4.08-3.51-5.89l-1.81.47m8.92-2.29s.47,4.84-.76,6.65l1.52-.76s1-3.32.76-5.13l-1.52-.76Zm50-15.29s-.29,6.84,1,11l1.8-.57a1.61,1.61,0,0,1,1.23-1.81,25,25,0,0,0,6.93-3.51l-.57-1.52a28.44,28.44,0,0,1-4.08,2.75c-1.23.48-2,1-3,.76s-2.28-2-1.52-5.89Zm20.12,31.91a44.66,44.66,0,0,0-.19,6.93l1.61.38s-.38-5.79.66-6.27l-2.09-1m7.22,3.61s-1.8,3.13-3.89,3.42l3.32-.67a9.76,9.76,0,0,0,2.38-2l-1.81-.76" style="fill:#d67c59;stroke:#000;stroke-width:0.61080002784729px"/><path d="M507,202.06l1.23.76,1.33.19s1.42,1.33,3,2.56c1.23,1,1.23-.19,1.23-.19l.76,3h1a29.73,29.73,0,0,0-.29,3l1.81-1.52,2.09,1.8s1.52-1.33,2.28-1.33a1.2,1.2,0,0,0,1-.76h.1c-5-2.38-7.21-4.84-5.7-7.41,2.47-4.27,6.55-1.52,7.88-.95l18.42,9.87s1.23-.76.38-1.52a3.79,3.79,0,0,1-1-3.42c.28-.76,2.37,2.37,3.42,2.66s3.42.67,3.42.67l-.09-1s3,2.09,3,3.13c0,0,2.18-1.14,1.42-1.81s3.33,1.62,3.61,2.85l.85-1a9.92,9.92,0,0,1,1.33-4.46,4.67,4.67,0,0,1,2-1.8s1-1.61,1.9-1.61a4.75,4.75,0,0,1-1.33-1.42,3.44,3.44,0,0,0-1.61-1.14,15.15,15.15,0,0,0,1.81-1.52,1.52,1.52,0,0,1,.76-.67,11.37,11.37,0,0,0-3.71-2.08s-.09-2.47-2-2.66h.86s-1.42-2.66-2.75-2.75a3.51,3.51,0,0,1,1.61-1s-1.61-2.09-3.8-1.33l1.42-.57s-1-1.14-4.27-.57a2.46,2.46,0,0,0-1.14-2.38s-1.23.09-1.23,1a4.27,4.27,0,0,0-2.56-1c-1.42,0,.47,1.52.47,1.52s-1.9-1.24-3-.86c0,0,.47-2.18-.76-3.33a4.55,4.55,0,0,0-1.8,1.71l-.38-.95s-1.9,2.28-2.28,1.61a8.26,8.26,0,0,1-.57-2l-1.14,1.71.19-2.38a6.76,6.76,0,0,0-2.37,3.23,4.23,4.23,0,0,0-1.33,2.37,1.22,1.22,0,0,0-2,0c-.86,1.33,0,1,0,1a2.35,2.35,0,0,1-1.33.66l.19.76a3.46,3.46,0,0,0-2.18-.38l.47,1.14s-2.47.19-2.56-1.8c0,0-2.09-1-2.37.09l-1.52,1a2.3,2.3,0,0,0-1.33-1.14c-1-.29-.19,1.23-.19,1.23a2.86,2.86,0,0,0-1.42-1.71c-1.14-.47-.19,1-.19,1s-1.52-1.24-.76-2.18c0,0-1.42,1.33-.76,2.57l-.95.66s-.48-.47-.38-.85-1.61,1.14-1.61,1.14-1-2.47,0-2.47a2.14,2.14,0,0,0-2.09,2.09,11.38,11.38,0,0,0-2.37.47c-1.23.38.86,1.24.86,1.24a5.11,5.11,0,0,0-2.85.19l.67.86s-.67-.67-2.28-.1.38.76.38.76a5.49,5.49,0,0,0-2.56,0c-.86.38.28,1,.28,1s-3.13-1-3.61-.66,1,1.8,1,1.8-1.9.47-2.28,1.9l1.71.66a2.84,2.84,0,0,0-1.14,1.14c-.38.76,1.14.38,1.14.38s-2.09,1.52-2.09,2.66a2.8,2.8,0,0,0,2.66-.67c1.14-1.14.38-.76.38-.76l.1.76s2.18-.95,2.18-1.52-.38.76-.38.76l2.18-1.14,1.42,1h0Z" style="fill:#338a00;stroke:#030;stroke-width:0.61080002784729px"/><path d="M505.2,172.44l-.48-2.09,4.84.57.85-2a15.08,15.08,0,0,1,3,1.8s4.46-1.14,5.79-.66l-.57,2.09a33.74,33.74,0,0,1,5.41.76c1.23.48-.57,1.52-.57,1.52s4.65.57,6.65,1.8,2.09,2.28,1,2.56l2.56,4.08s-4.08.47-4.84,1.52-1.52-1-1.52-1l-.76,2.85a23.47,23.47,0,0,1-3.61-2.28s-1.23,1.52-.47,2.28l-4.65-3s-2-.28-2,1.52c0,0-2.28-2.57-2.85-3.33l-2.57.76a4,4,0,0,0-1.71-1.33c-1-.19-.28,1.33-.28,1.33l-1.52-1.8-1.52-1.8s-1.33,1.8-2.37,1.8-1-1.23-.76-2.09-3-.95-3.32,0c0,0-1-3.8,2.56-4.84l3.61-1Zm-18.41,13L485.17,187l-1-.48-1.9,2.09-.38-1.14-1,1.71-1.61-.57-.76,1.23-1.42-.29a9,9,0,0,1-2,1.43c-.76.19,0-1.71,0-1.71s-1.14,1.9-2,1.9-.47-.86-.47-.86-.47,1.23-1.42,1.42-.48-.95-.48-.95l-1.52,1.14V191l-.66-.28s.38-1.71,1-2.09-.67-1.52-.67-1.52l.66-.76s-1.9-.47-1.9-.09c0,0,1-2.56,2.28-3l.1-2.85a5.56,5.56,0,0,1,2.56-1.24c1.33-.19-.38-2.18-.38-2.18l3-1.8.38-2.18,4.65.38,1-2,3.71.95,3.13-1.61,2.28,2.66,3.42.29s-.09,2.37-.09,3a38.35,38.35,0,0,1,4.56,1.61,25.66,25.66,0,0,0-.76,2.94,14.36,14.36,0,0,1,3.71-.57s.29,2.66.38,3.32c0,0,4.84,1.52,5.13,2.38a6.27,6.27,0,0,0-1.61,1.52,36.47,36.47,0,0,1,.57,3.89l-.38.57a6.66,6.66,0,0,0-2.56-1.52l-1,2.09-1.71-1.14-1,.09s-.85-1-1.52-1l-.09-.95-1.33.85s-2.09-1-2.09-1.71.1-1.52.1-1.52L491.91,189a4.39,4.39,0,0,1-.38-1.61c.09-.47-.86,1.14-.86,1.14a9.3,9.3,0,0,1-1-2.38l-.29,1.61s-2.28-.76-2.56-2.28h0Z" style="fill:#338a00;stroke:#030;stroke-width:0.61080002784729px"/><path d="M456.4,194.75s4,2,4,2.95c0,0,1-2.09.47-2.85l1.52,1s.47-1.9-.1-2.47,3.42-2.09,4.27.48c0,0,2.38-2.47-2.18-4.56,0,0-.38-1.52,2.38-1.14a2.19,2.19,0,0,0-.86-1.33h2.66a9.12,9.12,0,0,0-4-1.71c-2.28-.38-.86-.66-1-1.14a8.16,8.16,0,0,1,0-2.18,3.29,3.29,0,0,0-2.37.09l.38-.48s-2.47-.66-3.42-.09a2,2,0,0,1-1.24-2.09,2.23,2.23,0,0,0-2.09,1.42,4.7,4.7,0,0,1-3.13,1.52,7.46,7.46,0,0,1-1.71-.76l-1.14,2.66-1.8-.09.57,1s-2.75-.76-3.61,0a4.49,4.49,0,0,1,.76,2.75,10.69,10.69,0,0,0-2.66.76c-.57.38.76.66.76.66s-2.47.76-3,1.52l1,.76L439.69,193l1,.19s-1.61.48-2.47.76,1.52.48,1.52.48l-1.14,1,1.81.28a28.14,28.14,0,0,0-1.52,5.61s2.18-2.66,2.75-2.85l-1.71,2.85s3.23-1,3.51-1.52.57-1,.57-1l.1,1.61a13.84,13.84,0,0,0,1.42-2.38c.1-.66,2,.67,2,.67v-1s1.71.57,2.28.67.76-.29.76-.29l1.61-.19-.29,1.33a4.34,4.34,0,0,0,1.42-1.52c.19-.76.76,0,.76,0l.76-3h1.62Zm-13,13.49,1.52,3.13a7.8,7.8,0,0,0-3,1.52c.28,5.23-1,4.94-1,4.94a5.14,5.14,0,0,1-.24,2.71l7.55-4.52.1-.47,8.93-4.18.28.47,2.57-1.42,1.8,4.75-1.8,1c.1,1.61,2,4.47,2,4.47l2.37-.57,2.56-1s.1,1.42.1,1,2.75-1.33,2.75-1.33L471,220c1-.09,2.66-2.38,2.66-2.38l2,.76a5.06,5.06,0,0,0,.66-2c0-.76,2.47-.76,2.47-.76l1.71,1.23,2.18-1.8s.66,1.33,1.52,1.52,3.32,1.9,3.32,1.52a16.11,16.11,0,0,1,1-2.47l4,1.61a22.32,22.32,0,0,0-1.9-4s1.9-1.52,1.52-1.9-1.52,0-1.52,0l1.14-2.28H490.3l.47-.57-2.47-1,1.33-2.66c-.57-.67-7.12-2-7.12-2l1.52-1.42s-.76-1.14-1.52-1.14-4.75.1-4.94-.28a10.71,10.71,0,0,0-1.71-1.81L473.39,200l-1.23-.38-2.18.86s0,1.23-.29.38a15.51,15.51,0,0,0-2.28-2.75c-.38.66-2.94,3.7-2.94,3.7s-.38,1.62-1.24.47-2.94-2.37-3.23-1.42-2.09,2-2.47,1.71-2.47-.1-2.66.47-2.37,2.37-2.37,2.37a7.72,7.72,0,0,0-3.71-.28A5.55,5.55,0,0,0,448,207l-4.65,1.23h0Zm42.92,38.46v-2l2.28,1.52,1.33-1.52,1.71,1.71,1-1.71v2.76l2.56-2.28,1.52.66v-2.18s1.81-3,1-3.61l1.52-.47a41.18,41.18,0,0,0-3.32-3,3.4,3.4,0,0,0-1.8-.57,15.25,15.25,0,0,0-3.32-2.56,1.74,1.74,0,0,0-2,.57,3.63,3.63,0,0,0-2.09-1.8c-1.23-.28-1.23,1-1.23,1a7.13,7.13,0,0,0-2.18-1.43c-1.23-.57-.38,1.14-.38,1.14l-4.37-1.33.57,1.33-4.08-1,.47,1.52-2.85-.48-.19,1.24-4.08.76.76,1.33-2.56-1V237l-2.85,1,1,1s-3.8,1.8-4.56,2.37,1.52,1.52,1.52,1.52l-4.08-.57,1.52,1.33L455.64,247l2.56,1.8-1.52,2.28,3.8.76,1.52,2.56,3.13-.57v2.85l4.56-3.61s3.33,2.94,3.61,2.09a24.62,24.62,0,0,0,.19-3.32h1.61v-2.56l1.23,1,2.09-3,2.75,3.8,2.09-4.84,3,.47Zm18.61-11.49-.47-4.37-1.33,1.33.57-4.08-2.09-.38.76-4-1.52-.76.38-1.9,1.52-1.14,2.75-2.66,6.36.1.76-2.09,4.56.76c.76.85,3.13-1.71,3.13-1.71h1l1,2s3.32-.48,4.84.57l-1.8,2.47,3.32.28,2.28.48,2.38-.76,3-.19.76,1.23H540l-.95,1.14,3.7,1.71L542,224a13.23,13.23,0,0,0,3.61.76h.76s.76,1.8-.29,2.56c0,0,1,2.57,3.32,3s2.28.47,2.56,1a2.49,2.49,0,0,1-2.56,3V237a13.13,13.13,0,0,0-2.28,2.56l-1.52-1a5.56,5.56,0,0,0-1.33,2.57s-3.33-4.37-4.56-4.56-1,2.47-1,2.47L535,236l-.48,2.09-3-2.56-1.8,1.23-3.23-3.32-3.13.38,1.23-1.62h-3.8l-.76-3.32-.57,2.75-2.28-1.52-2.94,3.23a5.27,5.27,0,0,1-.85-1.9c-.47-1.52-1.8,1.8-1.8,1.8l-1-2.37-1.23,2.37a7.69,7.69,0,0,0-2.09-2.37c-.95-.47-2,2.85-2.28,4.37Zm.57,10,.19-1.52,5.41-2.09,4.56-1.71,2.28-1,1,1.8,1.33-2.56,2.09,2.66,1.14-1.42,1.8,1.33h1.52l.28,2s3.8.28,4.08-.47.76,2.56.76,2.56l3.61.47.76,4.08s1.8,3.8,1.23,5.32-2-2-2-2a26.51,26.51,0,0,1-.57,3.61c-.19.76-4.84-.76-4.84-.76l-2,3.8s-2.09-3-3-3-1,3-1,3-3-3.61-4.37-5.13-1.52,1.52-1.52,1.52-2-3.33-2-4.27-1.81-2.09-1.81-2.09-3.14,3.61-5.41,4.56c0,0,.29-2.28-.47-3s-3,1.52-3,1.52a9.36,9.36,0,0,1,0-7.12Z" style="fill:#338a00;stroke:#030;stroke-width:0.61080002784729px"/><path d="M530.56,188.58l.48,1.9a12,12,0,0,1,2.85-.28,9.66,9.66,0,0,1-.66,2.18s2.28-.38,3.32.28l-.47,1.14,2.66,1.14-2.47,2s4,1.42,4.75,2.56c0,0-2.56,1.8-2.94,1.71s-.1.76.57,1.61l-2.18-.09a9,9,0,0,1,.76,2.75c-.09.76-3.61.57-3.61.57m13.67-5.12s.66-3.8-.38-4.75c0,0,2.47,2.09,4.08,2.18s-.1-3.13-.1-3.13a24.32,24.32,0,0,0,3.51,1.52c1.14.19-.86-2.37-.86-2.37s.66-1.24,2.56-.1m-44.15-15.1a2.12,2.12,0,0,0-.29-1.33c-2.28-3.13,2.38,2.38,3.32,2.56m4.37,0a6.18,6.18,0,0,0,2.28,1.14c.76,0-.47-3-.85-3.42s2.75,1.23,3.89,1.42,1.33-1.9,1.33-1.9a22.47,22.47,0,0,1,4.27,1M505.86,178s-.28-2-.38-2.85m-23.54,12.35c-.19-.38,1-2.09.48-2.85a3.14,3.14,0,0,0,1.33.67c.57.09.38-2.19.38-2.19l.76.28s2-1,1.61-1.71,1.33,1.14,1.33,1.14,1.14-1.14,1.14-1.61,1.33,1.14,1.33,1.14,1.42-.29,1.42-1.14,1.8.28,1.8.28a3.29,3.29,0,0,0,.67-1.71M475,189.34s.85-2-.1-3.32m-23,9.59c.1-.95.57-3.51.1-3.89s1,.38,2.09.67m9-.37c-1.14-1.14-1.8-1.71-3.61-1.71m-15.67,8.07a6,6,0,0,0,.47-3.23m24.31,50.33,1.23-2.56,1.52,3.61,1-2.28.38.76,2.28-2.47,2.47,3.7m39.6-16,1.61-3.23,2.18,1.14,1-3.13,2.28,1.42,1.33-2.94,2.56.66.19-2.09a9,9,0,0,1,2.28,1.8c.57.76,0-2.56,0-2.56l2.09.95a1.35,1.35,0,0,0-.57-2.38" style="fill:none;stroke:#004b00;stroke-width:0.61080002784729px"/><path d="M523.53,226.1l2.28,3.33,1.9-2.18,1.71,3.7,2.18-1.33,3.13,1.8,1.42-1.14,3.42,2.47L541,229.8l3,.95,2-3.42m-82-8.93s1.33-2.28.85-3.33,2.75,1.8,2.75,1.8.76-2.28.28-3.32,3.8,3,3.8,3,.76-3.51,0-4.27,4.18,1,4.18,1,2-.57,1.24-1.61,3.32,1.52,3.32,1.52.95-2.56,0-3.51,3,1.24,3,1.24l-1.52-2.76,3.32.19-.28-3m29.43,43.87,2.18-1,1.9,1.9,2.09-3.32,2.56,2.47.38-2.47,2.75,1.14.57-1.52,3,1.62.28-2.28,1.52.48.29-1.52" style="fill:none;stroke:#004b00;stroke-width:0.61080002784729px"/><path d="M464.75,357.34A67.9,67.9,0,0,1,459,344.71l41.12-36.19,41.12,36.09a62.83,62.83,0,0,1-6,12.92l-.33.53-3.09-1.19a5.45,5.45,0,0,1-2.37,1.33,3.53,3.53,0,0,1-2.66-1.23,5.29,5.29,0,0,1-3.61,1.23,3.57,3.57,0,0,1-2.57-1.33s-1.9,1.52-3.23,1.23a4.85,4.85,0,0,1-2.09-1.14,3.16,3.16,0,0,1-2.75,1.14,10.39,10.39,0,0,1-2.94-1.14,18.6,18.6,0,0,1-3.89,1.23c-1.52.29-2.85-1.33-2.85-1.33a9.23,9.23,0,0,1-2.75,1.33,18.45,18.45,0,0,1-3.61-1.33,22.41,22.41,0,0,1-4,1,18.86,18.86,0,0,1-3.89-1.23,22.73,22.73,0,0,1-4,.76,11.12,11.12,0,0,1-3.23-.76s-2.28,1-3.51.76a12.86,12.86,0,0,1-2.37-.76,9.32,9.32,0,0,1-4.08.76,12.8,12.8,0,0,1-3.32-1.33s-.29.76-3.23,1.33h-.1" style="fill:#9dc9e2"/><path d="M500.08,266.93v41.6L459,344.9a81.87,81.87,0,0,1-4.27-26.4V266.93h45.39" style="fill:#fff;stroke:#000;stroke-width:0.8543999791145325px"/><path d="M500.08,266.93v41.6l41,36.38a81.84,81.84,0,0,0,4.27-26.4V266.93H500.08" style="fill:#ffe682;stroke:#000;stroke-width:0.8543999791145325px"/><path d="M473.55,348.7c3.09,1.68,2,1.15,8.45,3.42,5.22,1.81,11.3,2.66,20.13,2.66,7.73,0,12.08-.61,14.52-1.29s3.14-1.75,3.14-1.75l-6.36,6.46s-25.57,1.38-30.2-1.61c-1.8-1-5.7-4.08-9.68-7.88Z" style="fill:#d67c59;stroke:#000;stroke-width:0.61080002784729px"/><path d="M511.06,336.64s8.17,4.65,0,13.58m-36.75-1L486.09,338l-1.33,15m6.17,1.13V329.23m20.13,25.07V327.71M500.9,354.78V326.19" style="fill:none;stroke:#000;stroke-linecap:round;stroke-width:0.61080002784729px"/><path d="M490.93,330.56l-5.32,1.71,5.32.57v-2.28m10-3.9-5.6,2.09,5.6.19Zm10.16,1.52-5.6,2.09,5.6.28v-2.38Zm3.32,12.07c-.28-1.14,3.32-1,3.32-1s1,3.8,0,6.17l-3-.57a14,14,0,0,0-.29-4.56Z" style="fill:#d90f19;stroke:#000;stroke-linejoin:round;stroke-width:0.61080002784729px"/><path d="M476.12,347.65l10-9.69-.48,5.79s-5.13,3.32-5.13,5.7l-4.37-1.8m5.31,2a9,9,0,0,1,3.89-4.56l-.28,6.08-3.61-1.52Zm14.35-16.81a26.78,26.78,0,0,1,7.12,0s-.48,4.08,0,4.84c0,0-5.6-1.33-7.88.76,0,0-.76-3.8.76-5.6Zm-8.64,1a26.78,26.78,0,0,1,7.12,0s-.76,4.56-.29,5.32c0,0-4.56-2.57-6.84-.48,0,0-1.52-3.13,0-4.84Z" style="fill:#fff;stroke:#000;stroke-linejoin:round;stroke-width:0.61080002784729px"/><path d="M486.84,339.2a32.09,32.09,0,0,1,7.12,0s-.47,4.08,0,4.84c0,0-5.32-1.23-7.6.76C486.37,344.8,485.32,341,486.84,339.2Zm8.17-.76s5.89-.76,8.92-.28c0,0-1.23,3.32.29,5.6,0,0-6.36-1.71-8.74.28,0,0-2-3.8-.48-5.6Zm-8.63,6.37,7.88.57s-.76,5.79-.28,6.55c0,0-6.36-1.52-7.6.57,0,0-2.09-5.32,0-7.69h0Zm8.92,0s6.83-.48,10,0c0,0-1.81,4.37.19,8.17,0,0-8.93-2.56-10.16-.48,0,0-2.08-5.32,0-7.69Zm10.44-12a26.78,26.78,0,0,1,7.12,0s-.47,4.08,0,4.84c0,0-5.6-1.33-7.88.76C505,338.44,504.22,334.64,505.74,332.84Zm0,5.6a32.09,32.09,0,0,1,7.12,0s-.47,4.08,0,4.84c0,0-5.6-1.23-7.88.76,0,0-.76-3.8.76-5.6Zm.48,5.89a27.52,27.52,0,0,1,7.21,0s-1,6.36-.57,7.12c0,0-4.65-2.18-6.84-.28,0,0-1.33-5,.19-6.84Z" style="fill:#fff;stroke:#000;stroke-linecap:round;stroke-linejoin:round;stroke-width:0.61080002784729px"/><path d="M514.67,344.81s1.33,4.84,3,5.41L515.43,353s-2.75-2-3-4.27a12.46,12.46,0,0,0,2.28-3.9Z" style="fill:#fff;stroke:#000;stroke-width:0.61080002784729px"/><path d="M535,357.91c-6.55,10.92-17.28,21.18-34.94,27.54-17.95-6.46-28.87-17.19-35.32-28l.09-.09c2.94-.57,3.23-1.33,3.23-1.33a12.86,12.86,0,0,0,3.32,1.33,9.37,9.37,0,0,0,4.08-.76,12.9,12.9,0,0,0,2.37.76c1.23.28,3.51-.76,3.51-.76a11.06,11.06,0,0,0,3.23.76,22.66,22.66,0,0,0,4-.76,18.9,18.9,0,0,0,3.89,1.23,22.38,22.38,0,0,0,4-.95,18.47,18.47,0,0,0,3.61,1.33,9.25,9.25,0,0,0,2.75-1.33s1.33,1.61,2.85,1.33a18.51,18.51,0,0,0,3.89-1.23,10.22,10.22,0,0,0,2.94,1.14,3.16,3.16,0,0,0,2.75-1.14,4.78,4.78,0,0,0,2.09,1.14c1.33.29,3.23-1.23,3.23-1.23a3.56,3.56,0,0,0,2.56,1.33,5.3,5.3,0,0,0,3.61-1.23,3.51,3.51,0,0,0,2.66,1.23,5.45,5.45,0,0,0,2.37-1.33s2.37.76,3.23,1" style="fill:#006ac8"/><path d="M533.41,360.39c-1.42.1-1.61-.85-1.61-.85s-1.89,1.62-3.7,1.33a4.2,4.2,0,0,1-2.75-1.52s-2,1.61-3.32,1.33a4.48,4.48,0,0,1-2.28-1.14,3.4,3.4,0,0,1-2.85,1.14,7.92,7.92,0,0,1-3-1.14,26.84,26.84,0,0,1-4.18,1.33c-1.61.29-2.94-1.52-2.94-1.52a34.85,34.85,0,0,1-4.46,1.24,15.94,15.94,0,0,1-3.52-1.24,7.7,7.7,0,0,1-2.85,1.14,18,18,0,0,1-4.18-1.33,24,24,0,0,1-4.18.76,12,12,0,0,1-3.32-.76s-2.47,1-3.8.76a13,13,0,0,1-2.37-.76,10.49,10.49,0,0,1-4.27.76,14,14,0,0,1-3.51-1.33s-.28.66-3.42,1.33h-.1" style="fill:none;stroke:#000;stroke-width:0.61080002784729px"/><path d="M474.44,364.26s-.27.62-2.74,1.17c-.05,0-.67.15-.67.15l.61-.12-.7.23a43.47,43.47,0,0,0,11.37,10.66c4.37,2.95,9.4,6.46,17.95,9,9-3.51,11.39-4.85,17.27-8.78,5.88-4.29,8.94-7,12.22-11.37-2.57,1.46-2.2,1.47-3.53,1.28a5.2,5.2,0,0,1-2.31-1.25,3.6,3.6,0,0,1-2.83,1.25,8.83,8.83,0,0,1-3-1.25,8.11,8.11,0,0,1-4.2,1.34A5.13,5.13,0,0,1,510.9,365a35.14,35.14,0,0,1-4.46,1.23,15.83,15.83,0,0,1-3.5-1.23,7.8,7.8,0,0,1-2.86,1.14,17.8,17.8,0,0,1-4.17-1.34,23.87,23.87,0,0,1-4.17.76,12.11,12.11,0,0,1-3.32-.76s-2.37,1-3.79.76a13.28,13.28,0,0,1-2.39-.76,10.41,10.41,0,0,1-4.26.76,14.27,14.27,0,0,1-3.53-1.31Z" style="fill:#006ac8;stroke:#000;stroke-width:0.7319999933242798px"/><path d="M500.25,385.32c9.29-3.87,11-4.92,16.59-8.35-1,0-3.83-.89-2.8-1.19a4.13,4.13,0,0,1-2.28,1,18.53,18.53,0,0,1-4.08-1.33,24,24,0,0,1-4.18.76,12.12,12.12,0,0,1-3.32-.76s-2.47,1-3.8.76a12.81,12.81,0,0,1-2.37-.76s-2.75,1-4.27.76a13.82,13.82,0,0,1-3.52-1.33,13.91,13.91,0,0,1-3.8,1.38,52,52,0,0,0,17.84,9Z" style="fill:#006ac8;stroke:#000;stroke-width:0.7319999933242798px"/><path d="M461.75,270.47c-.66,0-1.45.37-2.66,1.47-1.92,1.73-2.61,3.51-.09,5.67l12.46,11.33c1.82,1.77,4.37,2.09,5.43,3l12.67,13c1.6,1.38,2.36,2.36,1.46,3.54-1,1.94.07,2.2.3,2.26,1.73.39.79-.7,1-1.26a5.09,5.09,0,0,1,2.51-2.7c.6-.23.93-.11,1.08.21.55.22,1.12-.6.32-1.46s-1.78.6-3,.23a9.79,9.79,0,0,1-2.35-2c-1.08-1.2-2.46-2.27-3.26-3.3a131,131,0,0,0-8.86-10c-1.39-.91-1.07-4.34-2.07-5.41-.08-.74-9.67-10.23-13.09-13.66A3.51,3.51,0,0,0,461.75,270.47Z" style="fill:#d67c59;stroke:#000;stroke-width:0.28504300117492676px"/><path d="M462.35,275.57l13,12.87" style="fill:none;stroke:#000;stroke-width:0.6000000238418579px"/><path d="M480,281.45c.2-.39.64-1.37,1.11-2.45.18-.43,3.69-6,5.44-6.18,0,0,10.9,7.93,10.91,8,0,.43-4.73,7.55-5.14,7,0,0-12.77-5.36-12.31-6.42Z" style="fill:#e8e8e6;stroke:#000;stroke-width:0.6851999759674072px"/><path d="M486.94,283.32c-1.49-1.16-4-2.29-6-3.62l-.9,1.87c.72.81,9.79,5,11.28,5.83a34.68,34.68,0,0,0-4.43-4.08Z" style="fill:#ccb8c8"/><path d="M481,279.46c1.17.82,3.38,2.22,4.78,3,2.68,1.87,4.38,3.92,6.3,5" style="fill:none;stroke:#000;stroke-width:0.47999998927116394px"/><path d="M458.9,313.43l24.81-30.71a2.17,2.17,0,0,1,3.08,1.93l-23.5,32a6.24,6.24,0,0,1-4.39-3.25Z" style="fill:#d67c59;stroke:#000;stroke-width:0.61080002784729px"/><path d="M542.08,313.76a5.49,5.49,0,0,1-2.31.84c-1.61-1.9-2.94-3.89-5.22-6.36l-24.78-30.48,2.56-2.47,22.31,26.11A114.57,114.57,0,0,1,542.9,311s.33,1.9-.82,2.77Z" style="fill:#d67c59;stroke:#000;stroke-width:0.61080002784729px"/><path d="M518.21,281.65l-4-4.75s-3,.38-3.61,2c0,0-2.18,3.61-8,4A17.43,17.43,0,0,0,511,293.23s2.47-6.93,4.84-8.17c0,0,2.47-1.81,2.37-3.42Z" style="fill:#e8e8e6;stroke:#000;stroke-width:0.61080002784729px"/><path d="M508.24,302.73a2.46,2.46,0,0,0-2,.48c-.76.48-1.71.28-1.61-.67s0-.76,1-1.42a6.08,6.08,0,0,1,4.75-.48l-2.18,2.09m27.06-27a2.1,2.1,0,0,1,.28-2.18c.66-.76.66-2.09-1-1.43s-2.18,2.47-.85,5.22l1.52-1.62Z" style="fill:#d67c59;stroke:#000;stroke-width:0.61080002784729px"/><path d="M507.67,303.3l28.11-27.92,6.93,7.41s-1.42-.57-2-.19.57,1.81.57,1.81-1.33-.47-1.9-.09,0,2,0,2-1.14-.85-1.71-.48,0,2.18,0,2.18-1.52-.47-1.9-.09,0,2,0,2-1.52-.76-2.28,0,.38,1.81.38,1.81-1.9-.76-2.66.38a1.89,1.89,0,0,0,.09,2.18s-1.52-.76-1.9-.38,0,2.18,0,2.18-1.33-.76-2.18.19a1.35,1.35,0,0,0,.09,1.9s-1.23-.76-1.9-.38.19,2.18.19,2.18-1.23-.86-2.09,0a1.41,1.41,0,0,0,0,1.9,1.48,1.48,0,0,0-2.09,2.09s-1.52-.76-2.09,0,.19,1.81.19,1.81-1.14-.67-1.9-.29,0,2.09,0,2.09-1.14-1.23-1.61-.57.09,2.28.09,2.28-1-1.24-1.61-.57.38,2,.38,2-1.9-.85-1.42-.85Z" style="fill:#e8e8e6;stroke:#000;stroke-width:0.61080002784729px"/><path d="M534.16,277.66,532,279.85l.47,7.5s.48-2.18,1.14-.67c0,0,.19-1.8.67-1.52-.38-.19-.09-7.5-.09-7.5m-4.08,4.08-1.61,1.52.57,7.5s.48-2.85,1.14-.57c0,0-.1-1.9-.1-2.57,0,.48,0-5.89,0-5.89m-17,16.82-1.52,1.61.38,4.56s.47-2.94,1.14-.67c0,0-.19-1.89-.19-2.56,0,.48.19-2.94.19-2.94" style="fill:#4d4d4d"/><path d="M511.18,279.75c1,1,4,4.84,4,4.84m-2.65-2.75a7.76,7.76,0,0,1-1.42,3m1.89-2.67a4.42,4.42,0,0,1-1.42,2.85m1.9-2.27a3.22,3.22,0,0,1-.76,1.61m1-1c0,.47-.28.57-.38.86m-3.13-2.67a23.07,23.07,0,0,1-4.65,2.75m3.89-1.71a13.92,13.92,0,0,1-3,2.09m2.76-1a13.78,13.78,0,0,1-2.28,1.61m1.71-.48A5.41,5.41,0,0,1,507.2,286" style="fill:none;stroke:#4d4d4d;stroke-width:1.0992000102996826px"/><path d="M492.14,285.92a27.18,27.18,0,0,1,1.56-2.72,9.16,9.16,0,0,1,1.75-2" style="fill:none;stroke:#4d4d4d;stroke-linecap:square;stroke-width:1.0992000102996826px"/><path d="M400.47,362.48c1.42.66,0-4.65.47-6.65s4.65,5.13,6.65,6.08,14.81-5,14.81-5l3-5.7,1.61,4.65s3.51-4.08,4.56-5.6,0,3-1,4.56,3,2.09,2.56,5.13,4.08-2.09,4.08-2.09l11.77,1s2-7.12,5.13-11.21l1,4.56,4.84-4.94c5.41,14.25,16.81,29.73,40.17,38.18,21.93-8,33.23-22.13,39.12-35.62l6.55,6.75a59.41,59.41,0,0,0,6.08-2.09c1-.48,12.06,3.9,12.06,3.9a16.64,16.64,0,0,1,3,1.52c1,.76.28-3.33.28-3.33s5.6,1,5.13,4.08c0,0,1.24-2.85,2.28-3.32s3.51,2.56,4.08,3.61,12.53,2.47,14.24,3.51a5.56,5.56,0,0,1,1.33,2.57s2.56-.29,4.56-.29a2.85,2.85,0,0,0-1.52,2.37,3.77,3.77,0,0,1-2.28,3.51c-1.52.76,0,1.33,2,1.52s0,2.85-4.08,4.37c0,0-1,2.28.76,3,0,0-3.52.29-4.08-.76a11.59,11.59,0,0,0-1.23,3.61s-3.8-1.24-4.84-1.8c0,0-1.52,1.52-.48,2.28,0,0-6.93-.76-8.26-3.32,0,0-2.47.76-2,1.61,0,0-4.84-3.32-6.36-3.32l-1,1.7s-3.32-2-4.37-2-.19,1.52-.19,1.52l-4.65-2.85-1.8,2.85a53.59,53.59,0,0,1-4.84-2.56c-1-.76-1.23,1.52-2,1.8,0,0-1.52-2.09-3.61-1.8,0,0-.76,2.56-.47,3.32,0,0-5.89-1.23-6.93-1.52s-.47,1.24,0,2.28c0,0-4.37-1.23-5.32-2l-.28,2s-3.61-.29-4.37-1l-2.28,3.13H521l-.76,2.75s-5.74-2.11-6.27-.67a6,6,0,0,0-.38,2.47l-4.72-.32-1.45,2.54S501,389,499.51,390a34.78,34.78,0,0,1-4.34,2.39,10.24,10.24,0,0,0-4.58-2.84c-1.67-.26-5.32,2-6.65,1.23,0,0,0-1.81-1-2.28a2.83,2.83,0,0,0-3.52.76s-.76-1-2.09-3-3,.19-3,.19l-.28-2.47-3.51-.29a3,3,0,0,1-2.56-2.09s-5.41.57-6.17.29l1.33-1.24s-7.41,1.52-8.92,1,1.71-2.57,1.71-2.57-6.84-1.71-8.17-2-8.64,1.23-9.69,1.23-1.52-1.71-1.52-1.71a12.29,12.29,0,0,1-3.33,2s-1.23-3-.47-3.32c0,0-4.84,1.33-5.13,2.57,0,0-1.23-2-1-2.85,0,0-2.28,3.61-3.32,4.37s-.19-1.8-.19-1.8-2.85,3.61-3.89,3.89V378.8s-8.17,4.37-10.44,3.8c0,0,0-1.81.76-2.28l-5.13-.29c-1.23-.19-2.75-.76-4.08-1s1.81-1.52,3.89-.95c0,0-5.7-2.09-7.41-1,0,0-.76-2.09,2.28-2.85,0,0-3.89-3.8-6.17-3.51,0,0,2.57-1.52,4.66-.76,0,0-2.37-6.45-3.89-7.21,0,0,5.41-.95,6.93-.19Z" style="fill:#358b03;stroke:#060;stroke-width:0.61080002784729px"/><path d="M392.58,251.07l69.13-35.8c.33-1.85-.72-3.3-1.8-4.75-19.77,9.7-37.76,21.46-59.73,28.59-1.23.48-12.15,5-17.76,11.78a7.44,7.44,0,0,0-1.91,4.41s.14,3,.77,3.83a2.58,2.58,0,0,0,1.2,1.49,1.68,1.68,0,0,0,1.09.16c.5.09,1.32.09,2.46-1.91a51.05,51.05,0,0,1,6.55-7.79Z" style="fill:#d67c59;stroke:#000;stroke-width:0.61080002784729px"/><path d="M448.23,215.65l8.92-4.27s3,2.28,2.75,4.84c0,0,.67,5.89,8,10a25.2,25.2,0,0,1-17,8.36s1.24-10.15-1-13.1c0,0-.38.36-.21-.14.32-1-.22-4.38-1.61-5.12-.17-.09.11-.37.2-.54Z" style="fill:#e8e8e6;stroke:#000;stroke-width:0.61080002784729px"/><path d="M458.67,216.88c-1.9.76-8.07,4-8.07,4m5.13-2.09c-.1.95-.67,3.23,0,4.84m-.86-4.55a7.57,7.57,0,0,0,.1,4.46m-1-4a4,4,0,0,0,0,2.57m-.77-2a2.67,2.67,0,0,0,0,1.23m5.6-1.52a36.57,36.57,0,0,0,4.37,6.36m-4-4.56a18.86,18.86,0,0,0,2.75,4.56M459,223.24a16.47,16.47,0,0,0,1.9,3.61m-1.9-1.7a6.13,6.13,0,0,0,1.14,2.38" style="fill:none;stroke:#4d4b4d;stroke-width:0.9769999980926514px"/><path d="M520.88,198.92c-1.26.15-2.4,1-3.68,3.2-2.24,4.28-1.7,6.62,5.07,9.55h0l25.39,12.43c5.09,2.47,6.92.18,9.79,1.43l50.11,25.53c4.3,1.88,6.71,2.48,6.09,4.7-.08,2.87.93,3.26,1.63,3.4,1.08.45,1.92.71,2.14-.54.16-.25-.14-.65-.46-1.18a3.08,3.08,0,0,1-.58-1.92,3.14,3.14,0,0,1,.39-1.48,17,17,0,0,1,1.51-1.73,1.85,1.85,0,0,1,1.17-.69,1.76,1.76,0,0,1,1.06.29c.46.27.87.58,1.28.88,1.67-.13.18-2.51-1-3.41-2.52-1.18-2.81,1.5-5.47,1.22a41.64,41.64,0,0,1-6.46-3c-3.15-1.71-7.55-3.75-8.54-4.86-3.2-.6-27.28-14.15-40.93-20.95-1.46-1.22-2.26-5.76-5.14-7.27-.84-1.22-19.32-9.66-29-14.49-1.78-.66-3.17-1.22-4.43-1.07Z" style="fill:#d67c59;stroke:#000;stroke-width:0.28504300117492676px"/><path d="M439.68,221.63c-.19.57-.66.19-.66.38-.38,2-.28,3-.76,4.18a7.59,7.59,0,0,1-2.94,2.47c-1.9.57-4.18,2.85-7.88.76a2.47,2.47,0,0,1-.57-.47,5.09,5.09,0,0,1-2.75,5.79c-1.33.67-14.72,7.69-14.72,7.69a8.67,8.67,0,0,0-.48,6.08c.1.57.28,1-.28,1.42a12,12,0,0,0-3.42,5.6s-2.85-1.24-2.85-3,1.14-2.75,1.42-4.09,1-4.37.66-5.32-2.09-1.42-2.75-1.8-1.33.38-1.23,1.23.76.76,1.52,1a7.86,7.86,0,0,0-.76,3.13l-8.64,4.46s1.14,1.52,1.52,2.18,1.23,9.5,3.8,13.68,3.42,3,4,3.61,1.23,1.23,1.9,1.81,3.61.76,4.18-.85a8.32,8.32,0,0,1,2.94-3.9c1.8-1.42,5.51-5,5.51-6.65,0,0,2.18,6.27,1.9,11.49a102.83,102.83,0,0,0,15.1,1.8c7.12.1,10.73-1.42,10.73-1.42s1-6,.57-7.12a30.71,30.71,0,0,0,2,5.22c1,1.61,2,4.94,4.08,5.13a4.5,4.5,0,0,0,3.89-2.85v-6.27h8.07c0-.09,3.61,1.33,4.75,1.14s1.8-1.14.76-1.52l-.38-.28a6.61,6.61,0,0,1,2.37.66h4c.1-.1,0-.38-.1-.48-.28-1.14-2.37-2.09-3.89-2.75a20.22,20.22,0,0,0-4.37-1.33,18.45,18.45,0,0,0-5.79.38,19.74,19.74,0,0,0-5.41,1.23c-.48.29-1,.38-.76-.85s.19-7.31-1.23-9.88a7,7,0,0,1-.76-4.84,79.25,79.25,0,0,0,0-8.26c-.29-1.52-2.37-3.61-6.17-4.08-3.61-.48-6.65-3.42-6.84-5.79a35.78,35.78,0,0,1,.76-8.64" style="fill:#ad7c59;fill-opacity:0.9899500012397766;stroke:#000;stroke-width:0.5090000033378601px"/><path d="M423.54,210.9a33.37,33.37,0,0,0-.57,8.64,19.86,19.86,0,0,0,1.9,6.27,7.66,7.66,0,0,0,2.56,3.61c3.33,2.18,6.46-.19,8.26-1a6,6,0,0,0,2.56-2.28c.47-1.14.28-2,.76-4.18a2.45,2.45,0,0,0,.66-.38,17.28,17.28,0,0,0,1.14-2.85c.48-1-.57-2-1.71-1.8a9.2,9.2,0,0,0,.38-5.51c-.19-.57.48-2.09-.57-1.71-4.27,1.71-9.31,1.33-13.86,1.33-.38,0-.66-.76-1.23-.66-.1,0-.19.28-.29.47" style="fill:#b68a6a;stroke:#000;stroke-width:0.5090000033378601px"/><path d="M423.16,212.51c-.47-.38-.57-1.23,0-3s0-1.9,1-2.94.76-1.52,1.42-1.8,2.66-.19,3.32-.47a8.45,8.45,0,0,1,2.75-.85,10.25,10.25,0,0,1,5.6.57c1.43.76,2.38,2.66,3.23,3.32s1.52,3.42,1.33,7.41-1,3.23-1,3.23-1.14-1.9-2.09-.29a19.69,19.69,0,0,1,.19-2.66c.1-1.14-.57-3.23.1-4.65,0,0-5.41,1.71-8.17,1.61s-6.83-.86-7-1.52l-.67,2.09" style="stroke:#000;stroke-width:0.5090000033378601px"/><path d="M425.91,209.19c-.28-.57-1.71-2.66-.57-3.32s.38,2.56,1.81,3.23c0,0-.48,1.42-1.23.1Z" style="fill:#fff;stroke:#fff;stroke-width:0.5090000033378601px"/><path d="M429.05,217c-.47,1.62-.66,2-.85,2.95m9.88,1.52c.19.57.38.28.85.38m.38-3.7c.48-.57,1.14-.28.76,1.14" style="fill:none;stroke:#000;stroke-width:0.5090000033378601px"/><path d="M423.54,214.7a26.17,26.17,0,0,1,2.56,1c1.42.57.57,2.66.19,4-.19.67-1,1.81-.57,2.38.48.76,1,.28,1.9.38,0-.28.57-.47.76-.47.66-.09,1,.47,1.52.29s.48-1.14.29-1.61m-.1-4.18c.1-.38,1-.76,1.42-.85,2-.38,3.42-.66,5,.48m-5.32,10.35c-1.61.38-3.32.66-4.84-.19m0-.75c.76-.38,1-.76,2-.29a4.62,4.62,0,0,1,1-.38,3.5,3.5,0,0,1,2,.76m-5.13.28a12.88,12.88,0,0,1,5,.1" style="fill:none;stroke:#000;stroke-width:0.5090000033378601px"/><path d="M423.45,217c.67-.09,1.42-.85,2.94.29,1,.66-1.71,1.33-1.23,1.24-1.23.19-1.61-.47-1.71-1,0-.19-.19-.47,0-.47Zm7.78.76c.66-1.33,1.71-1,2.66-.76a4.24,4.24,0,0,1,1.52.57c-1,.19-.76.28-1.52.66s-1.61.57-2.18.19c-.19-.19-.66-.47-.66-.85a.21.21,0,0,0,.19.19Z" style="fill:#fff;stroke:#000;stroke-linecap:round;stroke-linejoin:round;stroke-width:0.3037090003490448px"/><path d="M424.78,218.12a.73.73,0,0,0,.66-.76.72.72,0,1,0-1.42,0A.75.75,0,0,0,424.78,218.12Zm8.07.19c.38,0,.66-.38.66-.85a.75.75,0,0,0-.76-.76.68.68,0,0,0-.66.76.83.83,0,0,0,.76.86Z" style="stroke:#000;stroke-width:0.3050000071525574px"/><path d="M473.39,266.93a3.59,3.59,0,0,0-1.71-1.24l-1.9-.95c-.66-.38-1.61-.47-2.18-.85m.38,2.47c-.29-.19-.47-.28-.76-.48s-.66-.09-1-.19c-.1,0-.1-.19-.19-.19a3.25,3.25,0,0,1-2.28-1.23m-58.59-8.74c.85.66,2.94,2.09,3.13,4.84a9.78,9.78,0,0,0,1,2.85M397,255.92c.48,1.61.57,6.93,5.6,12.53M398,248.51c-.38,1-.85,2,.19,2.75m13.48,10c1-2.38,4.27-2.19,4.27-4.46" style="fill:none;stroke:#000;stroke-width:0.5090000033378601px"/><path d="M416.42,260.95c-.29-2.66-.85-4.18-.38-8.07a33.83,33.83,0,0,0,0-7.6s1.52,7.31-3.42,8.74m32.1,11.68a16.66,16.66,0,0,1,.85-5.8c1.14-5.22-1-7.21-.19-8.54.76-1.14,1.9-3.51.38-8.26,0,0,2.66,9.78-4.18,9.78s-6.65-2.56-6.65-2.56" style="fill:none;stroke:#000;stroke-width:0.5090000033378601px"/><path d="M416,245.28c0,2,0,7.88,8.45,7.88,2.56,0,5.32-1.8,6.83-3m2.09-2.57a44.74,44.74,0,0,1-.29-6.46m-12.73-3.22a53.73,53.73,0,0,1,8.36-.57m.28-5.9c.48,2.09-.28,5.41,3.61,5.89m4.08-6.65a20,20,0,0,0-.76,4.08m.19,2.57c1.61,0,4.65-1,8.45-.29M446,258.29c.76,1.52,1,3.51,3.32,5.79m-29.62-10.64c.19,1.24-1.61,5.32-.29,8.64a11.49,11.49,0,0,1-1,10.35m6.17-17.75c-.76,1.52-2.09,3-2.37,4.37m6.16-1.52c0,1-2.56,8.17-4.37,10.16,0,0,3.32,1.33,2.85,6.17m6.84-19.66c0,1.24-.19,1.52.85,2.28m2.28,0c1.23,1.52,5.13,6.08,4.27,8.64m-6.84-6.08a22.35,22.35,0,0,1-.57,8.36m-2-.19a3,3,0,0,0-2.85,2.56m8.16-2.85c1-.29,3.13,1.52,3.13,6.65M454.69,264c-2,.57-2.85,1.62-2.28,1a18.86,18.86,0,0,1-2,1.42" style="fill:none;stroke:#000;stroke-width:0.5090000033378601px"/><path d="M421.07,252.3a1,1,0,0,0,1-.85c0-.38-.47-.76-1-.76a.82.82,0,1,0,0,1.62Zm21.56.29a.94.94,0,0,0,1-.85.86.86,0,0,0-1-.76c-.57,0-1,.29-1,.76a1,1,0,0,0,1,.86Z" style="stroke:#000;stroke-width:0.3050000071525574px"/><path d="M412.44,291.34c1.14-7.41,4.65-13.58,4.75-14.15a93.94,93.94,0,0,0,9.87,1.33,45.66,45.66,0,0,0,10.73.19c2.75-.28,6.36-.76,6.36-.76a13,13,0,0,1,1.23,4.56c.28,4.84,2.09,25.83,2.28,31.44,0,0,.76,3.32.76,11.49,0,8.93,2.47,27.07,2.47,36.76l-2.47.48s-13.48,1-13.48-.76c0-2-.76-25.26,1.23-39.32a44.42,44.42,0,0,0-1.23-5.13c-.76-2.28-4.08-9.4-4.08-10.92,0,0-5.32,15-5.6,17.57-.28,2.37-1,35.8-1.52,38.56,0,0-7.69,5.89-8.74,6.46s-8.45-3.14-8.64-4.08.76-12.35,4.27-31c1.33-6.65.57-7.88.57-9.68s.1-25.64,1.23-33Z" style="fill:#e8e8e6;stroke:#000;stroke-width:0.5090000033378601px"/><path d="M425.25,324.11a9.57,9.57,0,0,1-3.32,5.42m-2.57-50.06c-.28,1.23-2.09,6.84-6.65,10.16M426,280.51c-1,3.32-5.13,21.18-5.89,42.36m-.28,6.65c-.19,2-1.23,16.81-1.52,19.37m-.76,2.85A66.16,66.16,0,0,0,415,369.12m30.1-33.53c-.19,1.8-1,14.62,3.32,26.11m-17.28-80.25c-.28,2.09-.76,15.58-.76,16.62s1.52,2.56,2.28,2.85c0,0-1.52.48-1.8,5.6m-3.8-12.06A81.94,81.94,0,0,1,424.2,305m12.25-23.74s4.56,1,4.84,0c0,0,1.52,27.54,3.61,42.83m-10.44-39.32c0,1.81-.57,15.39-.57,15.39m2.28,2s1.8,2.56,1.33,3.79m-16.62-26.2c1.52.47,2.85.76,2.85.76m4.84,1.52a33.14,33.14,0,0,0-.57,4.27m8.17,36.28a4.19,4.19,0,0,1,.76,4.09" style="fill:none;stroke:#000;stroke-width:0.5090000033378601px"/><path d="M416.52,277s0-3,1.14-4.56c0,0,3.23.67,7.79,1.14s8.35.85,11.77.47a63.44,63.44,0,0,0,6.93-1.23s.95,4.46.47,5.13a56.84,56.84,0,0,1-7.78.95,79.37,79.37,0,0,1-13.48-.76c-3.14-.38-5.89-1-6.84-1.14Z" style="fill:#d67c59;stroke:#000;stroke-width:0.5090000033378601px"/><path d="M419.46,277.37l.57-4.56,1,.09-.19,4.75Zm20.61-3.8.1,5.13,1.14-.19-.09-5.22Zm-14.63,0-.38,4.94h.67l.67-4.94Z" style="fill:#fff;stroke:#000;stroke-width:0.5090000033378601px"/><path d="M408.92,366.94a33.78,33.78,0,0,0-1,5.13c0,.47-.47,3,1,3.13,1,.1,1.33-2.66,1.33-2.66s-1,3,.28,3.42c1.71.38,1.9-3.32,1.9-3.32-.19,1-1.33,3.71.29,4S414.9,373,414.9,373s-1.42,3.9.28,4,1.61-3.8,1.61-3.8-.86,4.65,1.42,4.27c1.23-.19,1.52-1.81,1.8-2.76.38-1.42,1.23-3.23.19-6.17-.76-2.18-.47-2.75-.47-2.75s-2.66,2-4.75,3.32c-1,.57-6.08-2.18-6.08-2.18Zm27.73-4.09c-.47-.29-.38,1.71-.57,2.66s.19,3,3.42,2.85,6.27-1,8.26-.48a27.42,27.42,0,0,0,6.55.66,9.61,9.61,0,0,0,3.42-.48c.67-.28,2.09.38,2.75.38s1.71-1,1.61-1.71c-.1-1.24-1.23-1.24-2.85-1.33a27.29,27.29,0,0,1-4.65-.85,28.81,28.81,0,0,0-5.32-1.9s-4.56.19-5.5.19-6.55.28-7.13,0Z" style="fill:#653024;stroke:#000;stroke-width:0.5090000033378601px"/><path d="M389.26,244.71c-.47.29-1-1.9.38-2.75,0,0,.38-1.8,1.9-2a3.71,3.71,0,0,1,3-1.52s2.09-1.42,2.85-1.24a5.76,5.76,0,0,1,2.75,2.66,2.74,2.74,0,0,1-.48,2.28c-.57.57-1-.1-1-.85a1.76,1.76,0,0,1-.76,2c-1.14.67-1,.19-1.14-.57,0,0-.29,1.52-1,1.71s-1.23-.38-1.81-.38c0,0,1,.76.29,1.33a1.56,1.56,0,0,1-1.9-.09c-.48-.48-1-1.71-3-.57Z" style="fill:#ad7c59;stroke:#000;stroke-linecap:round;stroke-linejoin:round;stroke-width:0.5090000033378601px"/><path d="M398.57,241.2a3.71,3.71,0,0,0-3.8-2.66m2.09,4.08c-.29-.38-.38-.76-.66-1.14-.85-1.43-2.66-1.33-4.18-1.71m2.28,4.28c-.57-.38-.76-1.14-1.33-1.42a5.52,5.52,0,0,0-3-.67" style="fill:#ad7c59;stroke:#000;stroke-linecap:round;stroke-width:0.5090000033378601px"/><path d="M560.47,221.63c.66-.29.48.57.57.85a23.53,23.53,0,0,0,.76,3.7c.57,1,.76,1.42,1.71,1.9,1.52.85,6,3.32,9.12,1.33a2.87,2.87,0,0,0,.66-.47,5,5,0,0,0,2.75,5.79c1.23.66,14.62,7.69,14.62,7.69a9,9,0,0,1,.57,6.08c-.19.57-.38,1,.19,1.42a11.91,11.91,0,0,1,3.51,5.6s2.75-1.24,2.75-3-1.14-2.75-1.42-4.08-.95-4.37-.57-5.32,2-1.42,2.66-1.81,1.42.38,1.23,1.23-.76.76-1.52,1a6.44,6.44,0,0,1,.76,3.13l8.73,4.46s-1.14,1.52-1.52,2.18-1.33,9.5-3.89,13.68-3.42,3-3.89,3.61-1.33,1.24-2,1.81-3.51.76-4.18-.85a8.34,8.34,0,0,0-2.94-3.9c-1.81-1.42-5.51-5-5.51-6.65,0,0-2.18,6.27-1.9,11.49a101,101,0,0,1-15.1,1.81c-7.12.1-10.73-1.43-10.73-1.43s-1-6-.57-7.12a38.09,38.09,0,0,1-1.9,5.22c-1,1.61-2.09,4.94-4.08,5.13s-3.7-2-4-2.85v-6.27h-8.07c0-.09-3.51,1.33-4.75,1.14s-1.71-1.14-.76-1.52l.38-.28a6.6,6.6,0,0,0-2.37.66h-4c0-.1.1-.38.1-.48.29-1.14,2.38-2.09,4-2.75a19.54,19.54,0,0,1,4.27-1.33,18.54,18.54,0,0,1,5.79.38,19.08,19.08,0,0,1,5.41,1.23c.47.28,1,.38.76-.85s-1.14-5.22.29-7.79a8.25,8.25,0,0,0,.76-4.84c-.19-1.61-1-5.22-1-6.84,0-5.32,4.08-7.5,7.69-8.64,4-1.23,6.65-2.56,6.46-4.94s.57-6.55.19-8.45" style="fill:#653024;stroke:#000;stroke-width:0.5090000033378601px"/><path d="M576.52,210.9c.85,3.13,1,3.89,1,4.94s-.48,1.33-.1,2.57c.67,2.28-.66,4.75-2.28,7.41-.76,1.23-1.33,2.85-2.56,3.61-3.13,2-6.93-.38-8.93-1.24a3.48,3.48,0,0,1-1.9-2,27.68,27.68,0,0,1-.76-3.7c0-.29.1-1.14-.57-.85-1.14-1.33-.95-1.9-1.42-2.85s.85-2,1.9-1.81a9.17,9.17,0,0,1-.28-5.51c.19-.57-.47-2.09.48-1.71,4.27,1.71,9.31,1.33,13.86,1.33.38,0,.66-.76,1.23-.66.09,0,.19.28.28.47" style="fill:#653024;stroke:#000;stroke-width:0.5090000033378601px"/><path d="M576.9,212.51c.47-.38.19-2.18-.29-4.08-.19-.95-1-1.33-2-2.37a4.49,4.49,0,0,0-2.09-1.33c-.57-.19-1.9-.19-2.56-.48s-2.09-.1-3.51.1c-1.9.28-2.94.19-4.37,1a5.61,5.61,0,0,0-3,3c-.38,1-1,2.37-.76,6.36s1,3.23,1,3.23,1-1.52,1.71-.57c0,0-.1-2.09-.28-3.32a12.15,12.15,0,0,1,.48-4.27,28.4,28.4,0,0,0,8.45,1.62c2.85,0,6.55-.29,6.65-.95l.66,2.09Z" style="stroke:#000;stroke-width:0.5090000033378601px"/><path d="M571,217c.57,1.62.1,1.14.38,2.18m-9.59,1.89c0,.76-.57.57-1,.57" style="fill:none;stroke:#000;stroke-width:0.5090000033378601px"/><path d="M577,215.75c-.85-.67-2.47-.19-3.23.1-1.42.66-.66,2.09-.19,3.42.19.66,1,1.61.48,2.28s-.66.38-1.52.48c.1-.29-.76,0-1,0-.57-.09-.85.38-1.33.19s-.47-1.14-.29-1.61m.09-4.18c0-.38-1.23-.76-2.56-.85-2.09-.1-2.28.1-3.89,1.23m10.73,8.36c-.38-.57-1-.85-2-.38,0-.19-1.42-.38-1.42-.38a4.14,4.14,0,0,0-2,.66m5.22.57c-.85-.57-3-.19-5.22-.19m.19.76a6.54,6.54,0,0,0,4.84,0" style="fill:none;stroke:#000;stroke-width:0.5090000033378601px"/><path d="M576.61,217c-.66-.09-1-.85-2.94.29-1,.57,1.71,1.33,1.33,1.24a1.23,1.23,0,0,0,1.61-1c0-.19.19-.47,0-.47Zm-7.78.76c0-.76-1.71-1-2.66-.76a3.76,3.76,0,0,0-1.42.57c1,.19.66.28,1.42.66s1,.76,2.18.19a1.38,1.38,0,0,0,.76-.85c-.09.09-.19.19-.28.19Z" style="fill:#fff;stroke:#000;stroke-linecap:round;stroke-linejoin:round;stroke-width:0.3050000071525574px"/><path d="M575.38,218.12a.75.75,0,0,1-.76-.74s0,0,0,0a.78.78,0,0,1,.76-.85.77.77,0,0,1,.66.85A.73.73,0,0,1,575.38,218.12Zm-8.17.19c-.38,0-.66-.38-.66-.85a.74.74,0,0,1,.76-.76.67.67,0,0,1,.66.76A.77.77,0,0,1,567.21,218.3Z" style="stroke:#000;stroke-width:0.3050000071525574px"/><path d="M526.7,266.93a3.59,3.59,0,0,1,1.71-1.24l1.9-.95c.66-.38,1.61-.47,2.18-.85m-.38,2.47c.29-.19.47-.28.76-.48s.66-.09,1-.19c.1,0,.1-.19.19-.19a3.25,3.25,0,0,0,2.28-1.23m58.59-8.74c-.85.66-2.94,2.09-3.13,4.84a9.78,9.78,0,0,1-1,2.85M603,255.91c-.48,1.61-.57,6.93-5.6,12.53m4.65-19.95c.38,1,.85,2-.19,2.75m-13.48,10c-1-2.38-4.27-2.19-4.27-4.46" style="fill:none;stroke:#000;stroke-width:0.5090000033378601px"/><path d="M583.67,260.94c.29-2.66.85-4.18.38-8.07a33.83,33.83,0,0,1,0-7.6s-1.52,7.31,3.42,8.74m-32.1,11.68a16.66,16.66,0,0,0-.85-5.8c-1.14-5.22,1-7.21.19-8.54-.76-1.14-1.9-3.51-.38-8.26,0,0-2.66,9.78,4.18,9.78s6.65-2.56,6.65-2.56" style="fill:none;stroke:#000;stroke-width:0.5090000033378601px"/><path d="M584.05,245.27c0,2,0,7.88-8.45,7.88-2.56,0-5.32-1.8-6.83-3m-2.09-2.57a44.74,44.74,0,0,0,.29-6.46m12.73-3.22a53.73,53.73,0,0,0-8.36-.57m-.28-5.9c-.48,2.09.28,5.41-3.61,5.89m-4.08-6.65a20,20,0,0,1,.76,4.08m-.19,2.57c-1.61,0-4.65-1-8.45-.29m-1.33,21.27c-.76,1.52-1,3.51-3.32,5.79m29.62-10.64c-.19,1.24,1.61,5.32.29,8.64a11.49,11.49,0,0,0,1,10.35m-6.17-17.75c.76,1.52,2.09,3,2.37,4.37m-6.16-1.52c0,1,2.56,8.17,4.37,10.16,0,0-3.32,1.33-2.85,6.17m-6.84-19.66c0,1.24.19,1.52-.85,2.28m-2.28,0c-1.23,1.52-5.13,6.08-4.27,8.64m6.84-6.08a22.35,22.35,0,0,0,.57,8.36m2-.19a3,3,0,0,1,2.85,2.56m-8.16-2.85c-1-.29-3.13,1.52-3.13,6.65M545.4,264c2,.57,2.85,1.62,2.28,1a18.86,18.86,0,0,0,2,1.42" style="fill:none;stroke:#000;stroke-width:0.5090000033378601px"/><path d="M579,252.3a1,1,0,0,1-1-.85c0-.38.47-.76,1-.76a.82.82,0,1,1,0,1.62Zm-21.56.29a.94.94,0,0,1-1-.85.86.86,0,0,1,1-.76c.57,0,1,.29,1,.76a1,1,0,0,1-1,.86Z" style="stroke:#000;stroke-width:0.3050000071525574px"/><path d="M587.66,291.33c-1.14-7.41-4.65-13.58-4.75-14.15a93.94,93.94,0,0,1-9.87,1.33,45.66,45.66,0,0,1-10.73.19c-2.75-.28-6.36-.76-6.36-.76a13,13,0,0,0-1.23,4.56c-.28,4.84-2.09,25.83-2.28,31.44,0,0-.76,3.32-.76,11.49,0,8.93-2.47,27.07-2.47,36.76l2.47.48s13.48,1,13.48-.76c0-2,.76-25.26-1.23-39.32a44.42,44.42,0,0,1,1.23-5.13c.76-2.28,4.08-9.4,4.08-10.92,0,0,5.32,15,5.6,17.57.28,2.37,1,35.8,1.52,38.56,0,0,7.69,5.89,8.74,6.46s8.45-3.14,8.64-4.08-.76-12.35-4.27-31c-1.33-6.65-.57-7.88-.57-9.68s-.1-25.64-1.23-33Z" style="fill:#e8e8e6;stroke:#000;stroke-width:0.5090000033378601px"/><path d="M574.84,324.1a9.57,9.57,0,0,0,3.32,5.42m2.57-50.06c.28,1.23,2.09,6.84,6.65,10.16m-13.29-9.12c1,3.32,5.13,21.18,5.89,42.36m.28,6.65c.19,2,1.23,16.81,1.52,19.37m.76,2.85a66.16,66.16,0,0,1,2.56,17.38M555,335.59c.19,1.8,1,14.62-3.32,26.11M569,281.46c.28,2.09.76,15.58.76,16.62s-1.52,2.56-2.28,2.85c0,0,1.52.48,1.8,5.6m3.8-12.06A81.94,81.94,0,0,0,575.89,305m-12.25-23.74s-4.56,1-4.84,0c0,0-1.52,27.54-3.61,42.83m10.44-39.32c0,1.81.57,15.39.57,15.39m-2.28,2s-1.8,2.56-1.33,3.79m16.62-26.2c-1.52.47-2.85.76-2.85.76M571.52,282a33.14,33.14,0,0,1,.57,4.27m-8.17,36.28a4.19,4.19,0,0,0-.76,4.09" style="fill:none;stroke:#000;stroke-width:0.5090000033378601px"/><path d="M583.58,277s0-3-1.14-4.56c0,0-3.23.67-7.79,1.14s-8.35.85-11.77.47a63.44,63.44,0,0,1-6.93-1.23s-.95,4.46-.47,5.13a56.84,56.84,0,0,0,7.78.95,79.37,79.37,0,0,0,13.48-.76c3.14-.38,5.89-1,6.84-1.14Z" style="fill:#d67c59;stroke:#000;stroke-width:0.5090000033378601px"/><path d="M580.64,277.37l-.57-4.56-1,.09.19,4.75ZM560,273.57l-.1,5.13-1.14-.19.09-5.22Zm14.63,0,.38,4.94h-.67l-.67-4.94Z" style="fill:#fff;stroke:#000;stroke-width:0.5090000033378601px"/><path d="M591.17,366.93a33.78,33.78,0,0,1,1,5.13c0,.47.47,3-1,3.13-1,.1-1.33-2.66-1.33-2.66s1,3-.28,3.42c-1.71.38-1.9-3.32-1.9-3.32.19,1,1.33,3.71-.29,4s-2.18-3.61-2.18-3.61,1.42,3.9-.28,4-1.61-3.8-1.61-3.8.86,4.65-1.42,4.27c-1.23-.19-1.52-1.81-1.8-2.76-.38-1.42-1.23-3.23-.19-6.17.76-2.18.47-2.75.47-2.75s2.66,2,4.75,3.32c1,.57,6.08-2.18,6.08-2.18Zm-27.73-4.09c.47-.29.38,1.71.57,2.66s-.19,3-3.42,2.85-6.27-1-8.26-.48a27.42,27.42,0,0,1-6.55.66,9.61,9.61,0,0,1-3.42-.48c-.67-.28-2.09.38-2.75.38s-1.71-1-1.61-1.71c.1-1.24,1.23-1.24,2.85-1.33a27.29,27.29,0,0,0,4.65-.85,28.81,28.81,0,0,1,5.32-1.9s4.56.19,5.5.19,6.55.28,7.13,0Z" style="fill:#653024;stroke:#000;stroke-width:0.5090000033378601px"/><path d="M609.47,248.12c.47.19,1.81-1.9.47-2.85,0,0-.47-1.8-2-1.9,0,0-1.23-1.8-3-1.52,0,0-2-1.42-2.75-1.33a6.15,6.15,0,0,0-2.85,2.75,3.34,3.34,0,0,0,.47,2.28c.57.48,1-.1,1-1a1.92,1.92,0,0,0,.76,2.09c1.14.66,1,.09,1.14-.66,0,0,.29,1.52,1,1.8s1.23-.38,1.81-.38c0,0-1,.76-.29,1.23a1.44,1.44,0,0,0,1.9-.1c.57-.38.28-1.61,2.28-.48Z" style="fill:#653024;stroke:#000;stroke-linecap:round;stroke-width:0.5090000033378601px"/><path d="M600.93,244.61a3.59,3.59,0,0,1,3.8-2.66m-2,4.09a6.33,6.33,0,0,1,.57-1.14c.85-1.42,2.75-1.42,4.27-1.71m-2.38,4.18c.57-.38.76-1,1.33-1.33a4.93,4.93,0,0,1,3-.67" style="fill:#653024;stroke:#000;stroke-linecap:round;stroke-linejoin:round;stroke-width:0.5090000033378601px"/><path d="M600.76,241.83A5.58,5.58,0,0,0,599,244a3.33,3.33,0,0,0,.47,2.28c.51.43.89,0,1-.73a1.8,1.8,0,0,0,.79,1.87c1.14.66,1,.09,1.14-.67,0,0,.29,1.53,1,1.81s1.24-.38,1.81-.38c0,0-1,.75-.29,1.23a1.43,1.43,0,0,0,1.89-.09c.57-.38.28-1.61,2.28-.47.25.1.75-.42,1-1.08l-7.18-5.16Z" style="fill:#653024"/><path d="M599.24,243.16c-1.4,2.41.47,3.86,1.09,2.45-.18,2.23,1.5,2.14,2.13,1.43.61,2.34,1.71,1.3,2.71,1.09-1.14,2.14,1.38,1.5,2,1,.86-1.27,1.27-.26,1.9-.39l1.09-1.16m-7.45-5.32a3.87,3.87,0,0,0-2.37,3.45m4.54-2.05a3.87,3.87,0,0,0-2.37,3.45m5-1.63c-1.57.84-1.65,1.61-2.33,2.64" style="fill:#653024;stroke:#000;stroke-width:0.5090000033378601px"/><path d="M500.08,419.36c21.37.19,34-7.6,40.93-12.25,16.24-10.92,19.66-11.3,22.32-11.11,3,.29,7.5,1.33,7.69,4,.28,4.08-6.36,5.89-10.16,5.89s-14.05-2.57-14.05-2.57l-2.66,1.81c1.8.86,22.6,7.79,26.59,1.24S578.89,389,578.89,389a17.4,17.4,0,0,0-14.72-8.17c-10.26,0-20.23,6.46-26.87,11.3s-15,11.49-37.23,11.49-30.67-6.65-37.32-11.49-16.62-11.3-26.78-11.3A17.47,17.47,0,0,0,421.17,389s4.08,10.73,8.17,17.38,24.78-.38,26.59-1.24l-2.56-1.81s-10.25,2.56-14.05,2.56S428.76,404.07,429,400c.19-2.66,4.65-3.71,7.69-4,2.66-.19,6.08.19,22.31,11.11,6.93,4.65,19.56,12.16,41,12.25" style="fill:#ffe682"/><path d="M465.7,394.19s0-1.81-.29-4.46c-.38-3.42-2.37-4.27-4-3.8-1,.37-3.13,2.94-3.13,2.94v.1a30.21,30.21,0,0,0-2.94-1.8c.76-.86,5.13-3.51,6.17-3.51s14.05,5.32,18.23,8.92c1,1,1.81,6.84,1.23,8.74a45.13,45.13,0,0,1-15.29-7v-.09m-6.27,13.3a12.23,12.23,0,0,0-2.94,8.07c-.1,6.17,4.37,6.46,7.31,6.36,3.51-.1,6.36-2.09,6.27-8.64a70.79,70.79,0,0,1-10.64-5.79m74.93-13.3s.1-1.81.38-4.46c.38-3.42,2.28-4.27,3.89-3.8,1,.37,3.13,2.94,3.13,2.94v.1a30.06,30.06,0,0,1,2.94-1.8c-.76-.86-5.12-3.51-6.08-3.51s-14.15,5.32-18.32,8.92c-1,1-1.71,6.84-1.23,8.74a44.25,44.25,0,0,0,15.29-7v-.09m6.26,13.3a12.23,12.23,0,0,1,2.94,8.07c.19,6.17-4.37,6.46-7.31,6.36-3.52-.1-6.27-2.09-6.27-8.64a70.85,70.85,0,0,0,10.64-5.79" style="fill:#ffe682"/><path d="M453.26,403.31s-10.16,2.57-14,2.57S428.76,404.07,429,400c.19-2.66,4.65-3.7,7.69-4,2.28-.19,5.22.09,16.52,7.31m93.54,0s10.16,2.57,14.05,2.57S571.3,404.07,571,400c-.19-2.66-4.65-3.7-7.69-4-2.28-.19-5.22.09-16.52,7.31m-81.1-9c-1-.76-2.09-1.52-3-2.28-1.42-1-2.85-2-4.37-3,0,0,2.09-2.66,3.13-2.95,1.61-.57,3.61.28,4,3.7.29,2.66.29,4.56.29,4.56m-6.93,26.78a8.53,8.53,0,0,0,5,.86c3.51-.1,6.36-2.09,6.27-8.64a58.75,58.75,0,0,0,11.49,3.89,8.05,8.05,0,0,1,1.33,4.27c.29,2.38-1.33,4.94-3.23,4.75,0,0-10-1.81-16-2.85-3.51-.67-4.84-2.28-4.84-2.28m75.59-26.79,3.13-2.28c1.33-1,2.75-2,4.27-3,0,0-2.09-2.66-3.13-2.95-1.61-.57-3.51.28-3.89,3.7-.29,2.66-.38,4.56-.38,4.56m6.93,26.79a8.53,8.53,0,0,1-5,.86c-3.51-.1-6.27-2.09-6.27-8.64a59.18,59.18,0,0,1-11.4,3.89,7.61,7.61,0,0,0-1.42,4.27c-.19,2.38,1.43,4.94,3.23,4.75,0,0,10.06-1.81,16-2.85,3.51-.67,4.84-2.28,4.84-2.28" style="fill:#171696"/><path d="M500.08,419.36c21.37.19,34-7.6,40.93-12.25,16.24-10.92,19.66-11.3,22.31-11.11,3,.28,7.5,1.33,7.69,4,.29,4.08-6.36,5.89-10.16,5.89s-14.05-2.56-14.05-2.56l-2.66,1.81c1.8.86,22.6,7.79,26.59,1.23S578.89,389,578.89,389a17.4,17.4,0,0,0-14.72-8.17c-10.25,0-20.23,6.46-26.87,11.3s-15,11.49-37.22,11.49-30.67-6.65-37.32-11.49S446.14,380.8,436,380.8A17.46,17.46,0,0,0,421.17,389s4.08,10.73,8.17,17.38,24.78-.38,26.59-1.23l-2.56-1.81s-10.26,2.56-14.05,2.56S428.77,404.08,429,400c.19-2.66,4.65-3.7,7.69-4,2.66-.19,6.08.19,22.31,11.11,6.93,4.66,19.56,12.16,41,12.25Z" style="fill:none;stroke:#000;stroke-width:0.8543999791145325px"/><path d="M453.26,403.31s-10.16,2.57-14,2.57S428.76,404.07,429,400c.19-2.66,4.65-3.71,7.69-4,2.28-.19,5.22.09,16.52,7.31Zm93.53,0s10.16,2.57,14.05,2.57,10.44-1.8,10.16-5.89c-.19-2.66-4.65-3.71-7.69-4-2.28-.19-5.23.09-16.52,7.31Zm-81.09-9c-1-.76-2.09-1.52-3-2.28-1.42-1-2.85-2-4.37-3,0,0,2.09-2.66,3.13-2.95,1.61-.57,3.61.28,4,3.71.29,2.65.29,4.56.29,4.56Z" style="fill:none;stroke:#000;stroke-width:0.8543999791145325px"/><path d="M465.7,394.19s0-1.81-.29-4.46c-.38-3.42-2.37-4.27-4-3.8-1,.38-3.14,2.94-3.14,2.94v.1a31,31,0,0,0-2.94-1.8c.76-.86,5.13-3.51,6.17-3.51s14.05,5.32,18.23,8.93c1,1,1.8,6.84,1.23,8.74a45.33,45.33,0,0,1-15.29-7m-6.27,13.2a12.24,12.24,0,0,0-2.94,8.07c-.1,6.17,4.37,6.46,7.31,6.36,3.51-.1,6.36-2.09,6.27-8.65a70.68,70.68,0,0,1-10.64-5.79Z" style="fill:none;stroke:#000;stroke-width:0.8543999791145325px"/><path d="M461.81,408.91a11.28,11.28,0,0,0-2.66,6.27c-.19,3,1.8,4.75,4.37,4.56,3.61-.19,5-5.13,3.32-7.88Z" style="fill:none;stroke:#000;stroke-width:0.8543999791145325px"/><path d="M458.77,421.07a8.54,8.54,0,0,0,5,.86c3.51-.1,6.36-2.09,6.27-8.64a58.85,58.85,0,0,0,11.49,3.89,8,8,0,0,1,1.33,4.27c.29,2.37-1.33,4.94-3.23,4.75,0,0-10-1.8-16-2.85-3.52-.67-4.85-2.28-4.85-2.28Zm75.59-26.79,3.13-2.28c1.33-1,2.75-2,4.27-3,0,0-2.09-2.66-3.13-2.95-1.61-.57-3.51.28-3.89,3.71q-.25,2.27-.38,4.56h0Z" style="fill:none;stroke:#000;stroke-width:0.8543999791145325px"/><path d="M534.36,394.19s.1-1.81.38-4.46c.38-3.42,2.28-4.27,3.89-3.8,1,.38,3.13,2.94,3.13,2.94v.1a31,31,0,0,1,2.94-1.8c-.76-.86-5.13-3.51-6.08-3.51s-14.15,5.32-18.32,8.93c-1,1-1.71,6.84-1.23,8.74a44.44,44.44,0,0,0,15.29-7m6.26,13.2a12.23,12.23,0,0,1,2.94,8.07c.19,6.17-4.37,6.46-7.31,6.36-3.51-.1-6.27-2.09-6.27-8.65a70.71,70.71,0,0,0,10.63-5.79Z" style="fill:none;stroke:#000;stroke-width:0.8543999791145325px"/><path d="M538.25,408.91a11.28,11.28,0,0,1,2.66,6.27,3.9,3.9,0,0,1-4.37,4.56c-3.61-.19-4.94-5.13-3.32-7.88Z" style="fill:none;stroke:#000;stroke-width:0.8543999791145325px"/><path d="M541.28,421.07a8.54,8.54,0,0,1-5,.86c-3.51-.1-6.26-2.09-6.26-8.64a59.27,59.27,0,0,1-11.39,3.89,7.61,7.61,0,0,0-1.42,4.27c-.19,2.37,1.42,4.94,3.23,4.75,0,0,10.06-1.8,16-2.85,3.52-.67,4.84-2.28,4.84-2.28Z" style="fill:none;stroke:#000;stroke-width:0.8543999791145325px"/><path d="M480.8,418.89s3.13,2.28-.67,5.13m-8.73-6.65,9.59,4.18m-8-2,7,3m-4.55-4.84,5.32,2.38m38.55-1.24s-3.23,2.28.57,5.13m8.74-6.65-9.59,4.18m8.07-2-7,3m4.47-4.84-5.22,2.38" style="fill:none;stroke:#fff;stroke-width:0.8539999723434448px"/><path d="M443.26,389.67a2,2,0,0,1,.27.69,2.52,2.52,0,0,1,0,.81,2.28,2.28,0,0,1-1.13,1.6,2.94,2.94,0,0,1-2.1.31,3.58,3.58,0,0,1-1.06-.37,4.23,4.23,0,0,1-.86-.58l-.32.37-.46-.09c.15-.92.29-1.84.44-2.76l.46.09a5.82,5.82,0,0,0,.16,1,3.21,3.21,0,0,0,.36.86,2.29,2.29,0,0,0,.6.66,2.33,2.33,0,0,0,1.59.4,1.19,1.19,0,0,0,.53-.2,1.28,1.28,0,0,0,.36-.39,1.72,1.72,0,0,0,.2-.56,1.66,1.66,0,0,0-.1-.95,1.71,1.71,0,0,0-.7-.78l-.79-.49q-.39-.23-.77-.49a2.64,2.64,0,0,1-.91-1,2.08,2.08,0,0,1-.14-1.36,2,2,0,0,1,.35-.81,2.2,2.2,0,0,1,.67-.6,2.45,2.45,0,0,1,.87-.32,2.81,2.81,0,0,1,1,0,2.84,2.84,0,0,1,1,.36,4.76,4.76,0,0,1,.73.55l.31-.34.46.09-.46,2.66-.46-.09q0-.47-.11-.93a3.46,3.46,0,0,0-.27-.83,1.89,1.89,0,0,0-.5-.64,1.8,1.8,0,0,0-.83-.36,1.34,1.34,0,0,0-1,.17,1.12,1.12,0,0,0-.54.77,1.46,1.46,0,0,0,.09.91,1.79,1.79,0,0,0,.61.7,8.9,8.9,0,0,0,.76.5c.25.15.49.3.72.46a5.18,5.18,0,0,1,.6.46,2.64,2.64,0,0,1,.46.54m11.65,1.63a3.51,3.51,0,0,0-.45-.17,1.37,1.37,0,0,0-.54-.08.8.8,0,0,0-.5.35,5.52,5.52,0,0,0-.56.85l-1.71,3.1a2.34,2.34,0,0,1-.82.89,2.44,2.44,0,0,1-1.05.35,3.15,3.15,0,0,1-1.06-.07,4,4,0,0,1-.92-.36,4.18,4.18,0,0,1-1.07-.81,2.94,2.94,0,0,1-.6-.93,2.16,2.16,0,0,1-.15-.95,2,2,0,0,1,.25-.86l2.33-4.22a.88.88,0,0,0,.11-.33.69.69,0,0,0-.12-.35,1.46,1.46,0,0,0-.26-.3,3.41,3.41,0,0,0-.3-.23l.2-.36,3,1.66-.2.35a3,3,0,0,0-.38-.15,1.88,1.88,0,0,0-.36-.1.4.4,0,0,0-.34.08.88.88,0,0,0-.23.27L447,392.9a3.24,3.24,0,0,0-.26.63,1.73,1.73,0,0,0-.08.72,1.65,1.65,0,0,0,.29.75,2.38,2.38,0,0,0,.84.69,2.58,2.58,0,0,0,1,.35,1.81,1.81,0,0,0,.85-.13,1.93,1.93,0,0,0,.61-.41,2.46,2.46,0,0,0,.42-.55l1.61-2.93a4.66,4.66,0,0,0,.42-1,.87.87,0,0,0,0-.59,1.47,1.47,0,0,0-.38-.46,3.45,3.45,0,0,0-.43-.34l.2-.35,3,1.63-.2.36m4.19,7.25a2,2,0,0,1,.21.85,1.83,1.83,0,0,1-.27.94,1.88,1.88,0,0,1-.71.73,2.12,2.12,0,0,1-.91.27,2.86,2.86,0,0,1-1-.09,3.92,3.92,0,0,1-1-.39l-3.39-2,.21-.35.38.16a1.67,1.67,0,0,0,.37.12.52.52,0,0,0,.33-.06.69.69,0,0,0,.24-.26l2.92-5.08a.91.91,0,0,0,.12-.33.54.54,0,0,0-.11-.34,1.63,1.63,0,0,0-.27-.31,3,3,0,0,0-.28-.23l.2-.35,3.3,1.9a4.28,4.28,0,0,1,.69.49,2.69,2.69,0,0,1,.51.65,1.61,1.61,0,0,1,.22.76,1.57,1.57,0,0,1-.22.84,1.75,1.75,0,0,1-.52.58,1.64,1.64,0,0,1-.67.28,2.48,2.48,0,0,1-.72,0,3.23,3.23,0,0,1-.77-.16l0,0a4.73,4.73,0,0,1,.6.55,2.77,2.77,0,0,1,.49.72Zm-.61-1.77a1.39,1.39,0,0,0,.53-.32,2.71,2.71,0,0,0,.42-.56,1.47,1.47,0,0,0,.2-1.1,1.56,1.56,0,0,0-.83-.92l-.41-.23-.41-.22-1.57,2.72.64.36a2.45,2.45,0,0,0,.77.31,1.24,1.24,0,0,0,.66,0Zm-.59,2.66a1.58,1.58,0,0,0,.17-1.27,2,2,0,0,0-1-1.11l-.55-.31-.34-.18-1.43,2.49a.6.6,0,0,0,0,.62,1.54,1.54,0,0,0,.63.57,1.7,1.7,0,0,0,1.4.23,2.11,2.11,0,0,0,1.13-1Zm18.39,4.2a3.36,3.36,0,0,0-.47-.12,1.39,1.39,0,0,0-.55,0,.81.81,0,0,0-.47.39,5.7,5.7,0,0,0-.47.9L472.94,408a2.36,2.36,0,0,1-.72,1,2.5,2.5,0,0,1-1,.46,3.14,3.14,0,0,1-1.07,0,4,4,0,0,1-1-.26,4.23,4.23,0,0,1-1.14-.7,3,3,0,0,1-.69-.87,2.16,2.16,0,0,1-.24-.92,2,2,0,0,1,.16-.89l1.9-4.43a.88.88,0,0,0,.07-.34.69.69,0,0,0-.15-.33,1.55,1.55,0,0,0-.29-.27,3.65,3.65,0,0,0-.32-.2l.16-.37,3.16,1.35-.16.37-.39-.11a2.24,2.24,0,0,0-.37-.07.4.4,0,0,0-.33.11.93.93,0,0,0-.2.29L468.56,406a3.3,3.3,0,0,0-.2.65,1.73,1.73,0,0,0,0,.73,1.65,1.65,0,0,0,.36.71,2.38,2.38,0,0,0,.91.6,2.58,2.58,0,0,0,1.07.24,1.77,1.77,0,0,0,.83-.21,2,2,0,0,0,.57-.46,2.5,2.5,0,0,0,.36-.59l1.32-3.07a4.79,4.79,0,0,0,.33-1,.88.88,0,0,0,0-.59,1.44,1.44,0,0,0-.42-.42,3.62,3.62,0,0,0-.46-.3l.16-.37,3.1,1.33-.16.37m8.93,10.49-3.5-1,.11-.39.5.1a1.54,1.54,0,0,0,.44,0,.79.79,0,0,0,.33-.17.69.69,0,0,0,.18-.31l1.65-5.7-.09,0c-1.53,2-3.1,3.92-4.64,5.89l-.28-.08c-.19-2.52-.42-5-.61-7.55l-.07,0-1.35,4.68a4.62,4.62,0,0,0-.21,1.05,1,1,0,0,0,.12.58,1.36,1.36,0,0,0,.45.37,3.08,3.08,0,0,0,.47.26l-.11.39-3.2-.92.11-.39a4.7,4.7,0,0,0,.56.07,1,1,0,0,0,.48-.06.86.86,0,0,0,.41-.4,5.8,5.8,0,0,0,.38-1l1.16-4a1.7,1.7,0,0,0,.08-.59.92.92,0,0,0-.14-.43,1.19,1.19,0,0,0-.36-.34,2,2,0,0,0-.48-.23l.11-.39,2.7.78c.18,2.18.4,4.36.58,6.54,1.11-1.46,2.25-2.9,3.36-4.36a4.46,4.46,0,0,0,.35-.52,2.75,2.75,0,0,0,.19-.37l2.59.75-.11.39-.41-.06a2.32,2.32,0,0,0-.38,0,.43.43,0,0,0-.32.15.91.91,0,0,0-.16.32l-1.63,5.65a.77.77,0,0,0,0,.34.62.62,0,0,0,.19.31,1.31,1.31,0,0,0,.33.2,3.23,3.23,0,0,0,.39.17l-.12.39m8.49-2.58a2,2,0,0,1,.52.7,1.8,1.8,0,0,1,.12,1,2,2,0,0,1-.37.95,2.23,2.23,0,0,1-.73.6,3,3,0,0,1-.92.29,3.93,3.93,0,0,1-1,0l-3.88-.49.05-.41h.41a1.69,1.69,0,0,0,.39,0,.51.51,0,0,0,.28-.19.7.7,0,0,0,.12-.33l.73-5.81a.94.94,0,0,0,0-.35.55.55,0,0,0-.24-.27,1.62,1.62,0,0,0-.37-.18,2.83,2.83,0,0,0-.35-.1l.05-.4,3.78.48a4.19,4.19,0,0,1,.83.19,2.59,2.59,0,0,1,.72.4,1.65,1.65,0,0,1,.49.61,1.59,1.59,0,0,1,.11.86,1.69,1.69,0,0,1-.76,1.26,2.58,2.58,0,0,1-.66.3,3.31,3.31,0,0,1-.77.15v.05a4.88,4.88,0,0,1,.77.27,2.73,2.73,0,0,1,.72.47Zm-1.25-1.39a1.43,1.43,0,0,0,.37-.5A2.69,2.69,0,0,0,493,409a1.45,1.45,0,0,0-.24-1.09,1.55,1.55,0,0,0-1.12-.53l-.46-.05-.47,0c-.13,1-.26,2.08-.39,3.11l.73.09a2.49,2.49,0,0,0,.83,0,1.26,1.26,0,0,0,.58-.29Zm.48,2.68a1.59,1.59,0,0,0-.34-1.24,2,2,0,0,0-1.34-.64l-.62-.07-.39,0c-.12,1-.24,1.9-.36,2.85a.61.61,0,0,0,.22.58,1.58,1.58,0,0,0,.8.28,1.69,1.69,0,0,0,1.38-.33,2.12,2.12,0,0,0,.64-1.4ZM504,415.42h-2.23c-.49-.77-.94-1.42-1.33-2s-.84-1.12-1.3-1.71h-.85v2.59a1,1,0,0,0,.06.35.45.45,0,0,0,.28.24,1.84,1.84,0,0,0,.37.07l.44,0v.41H496V415l.41,0a1.49,1.49,0,0,0,.37-.07.5.5,0,0,0,.25-.22.72.72,0,0,0,.07-.37v-5.89a1,1,0,0,0-.06-.36.44.44,0,0,0-.28-.23,2.16,2.16,0,0,0-.38-.1l-.4-.05v-.41h3.81a4.36,4.36,0,0,1,1,.1,2.75,2.75,0,0,1,.83.35,1.71,1.71,0,0,1,.58.6,1.76,1.76,0,0,1,.22.9,2.25,2.25,0,0,1-.14.83,1.72,1.72,0,0,1-.43.63,2.45,2.45,0,0,1-.63.43,5,5,0,0,1-.81.31c.4.54.75,1,1,1.34s.6.8,1,1.33a2.45,2.45,0,0,0,.87.78,1.21,1.21,0,0,0,.38.11l.38,0c0,.13,0,.27,0,.41ZM501,409.34a1.49,1.49,0,0,0-1.65-1.61h-1v3.49h.76a1.79,1.79,0,0,0,1.88-1.88Zm12.57,5.47-3.43.26c0-.14,0-.27,0-.41a3.36,3.36,0,0,0,.75-.17c.19-.07.29-.15.28-.23s0-.07,0-.13a.45.45,0,0,0,0-.13c-.27-.59-.55-1.18-.82-1.77l-2.89.22c-.09.28-.16.51-.21.72s-.1.39-.14.56a3.48,3.48,0,0,0-.07.41,1.37,1.37,0,0,0,0,.25c0,.15.14.26.39.33a2.94,2.94,0,0,0,.84.09l0,.41-3.1.23c0-.14,0-.27,0-.41a1.94,1.94,0,0,0,.37-.1,1.21,1.21,0,0,0,.36-.17,1.44,1.44,0,0,0,.34-.36,1.82,1.82,0,0,0,.21-.48c.33-1.05.72-2.23,1.11-3.54s.77-2.47,1.08-3.5l.47,0c1.07,2.28,2.2,4.53,3.28,6.8a1.52,1.52,0,0,0,.22.35,1.26,1.26,0,0,0,.33.25,1.16,1.16,0,0,0,.36.11,1.67,1.67,0,0,0,.36,0c0,.14,0,.28,0,.41ZM510,411.74c-.49-1-1-2-1.49-3.05-.32,1.08-.67,2.16-1,3.24Zm15.28-6.43-.42.11a3.08,3.08,0,0,0-.75-.8,1.28,1.28,0,0,0-.87-.36l-.42.08-.55.14-1.33.36.86,3.16.92-.25a1.93,1.93,0,0,0,.63-.26,1,1,0,0,0,.32-.37,1.19,1.19,0,0,0,.1-.44,2.29,2.29,0,0,0,0-.58l.42-.11.84,3.09-.42.11a2.78,2.78,0,0,0-.26-.52,1.6,1.6,0,0,0-.34-.39.85.85,0,0,0-.49-.17,2.22,2.22,0,0,0-.64.1l-.91.25.73,2.71a.71.71,0,0,0,.17.31.55.55,0,0,0,.32.16,1.55,1.55,0,0,0,.39,0,2.68,2.68,0,0,0,.44-.06l.11.39-3.45.94-.11-.4.44-.16a1.55,1.55,0,0,0,.35-.16.49.49,0,0,0,.19-.28.79.79,0,0,0,0-.36l-1.54-5.67a1.07,1.07,0,0,0-.15-.31.53.53,0,0,0-.32-.16,2.36,2.36,0,0,0-.44,0,2.3,2.3,0,0,0-.43,0l-.11-.4,6.25-1.69.53,2m9.21-.7.9,2.26-5.81,2.81-.18-.37.35-.21a1.4,1.4,0,0,0,.29-.22.49.49,0,0,0,.14-.31.76.76,0,0,0-.09-.36l-2.54-5.25a.91.91,0,0,0-.21-.28.49.49,0,0,0-.35-.1,1.55,1.55,0,0,0-.4,0,1.88,1.88,0,0,0-.39.1l-.18-.37,3.14-1.52.18.37a2.78,2.78,0,0,0-.35.23,2.13,2.13,0,0,0-.3.25.4.4,0,0,0-.14.33.78.78,0,0,0,.09.35l2.38,4.93a3.06,3.06,0,0,0,.29.51.51.51,0,0,0,.3.22.69.69,0,0,0,.41-.06,5.6,5.6,0,0,0,.68-.29l.4-.21a4,4,0,0,0,.38-.23,2.83,2.83,0,0,0,.3-.25.57.57,0,0,0,.16-.24,5.22,5.22,0,0,0,.15-1,6.33,6.33,0,0,0,0-1l.37-.18m4.35-8.08a4.07,4.07,0,0,1,1.42.73,5,5,0,0,1,1.17,1.36,4.84,4.84,0,0,1,.63,1.68,4,4,0,0,1-.07,1.61,3.84,3.84,0,0,1-.65,1.37,4.07,4.07,0,0,1-2.69,1.57,3.72,3.72,0,0,1-1.53-.13,3.93,3.93,0,0,1-1.4-.75,4.89,4.89,0,0,1-1.12-1.31,4.83,4.83,0,0,1-.63-1.69,4.23,4.23,0,0,1,.06-1.6,3.85,3.85,0,0,1,.66-1.39,3.82,3.82,0,0,1,1.15-1,3.9,3.9,0,0,1,1.49-.52,3.74,3.74,0,0,1,1.52.09ZM541,402a3.82,3.82,0,0,0-.19-1.26,6.7,6.7,0,0,0-.62-1.34,7,7,0,0,0-.92-1.24,3.82,3.82,0,0,0-1-.78,2.32,2.32,0,0,0-1.08-.25,2.18,2.18,0,0,0-1.09.33,2.08,2.08,0,0,0-.86.88,2.53,2.53,0,0,0-.26,1.13,4,4,0,0,0,.23,1.24,7,7,0,0,0,.6,1.3,7.19,7.19,0,0,0,.89,1.21,3.81,3.81,0,0,0,1,.78,2.36,2.36,0,0,0,1.09.27,2.21,2.21,0,0,0,1.13-.33,2.24,2.24,0,0,0,.82-.82A2.31,2.31,0,0,0,541,402Zm10.24-5.56-1.82,1.29c-.84-.35-1.58-.61-2.22-.84s-1.33-.43-2-.65l-.69.49,1.49,2.11a1.12,1.12,0,0,0,.25.25.47.47,0,0,0,.36,0,1.64,1.64,0,0,0,.34-.15,3.71,3.71,0,0,0,.38-.22l.24.33-2.85,2-.24-.33.31-.27a1.52,1.52,0,0,0,.26-.28.47.47,0,0,0,.08-.32.72.72,0,0,0-.15-.34l-3.41-4.81a1,1,0,0,0-.25-.26.42.42,0,0,0-.36,0,3,3,0,0,0-.72.33l-.24-.33,3.11-2.2a4.43,4.43,0,0,1,.86-.48,2.63,2.63,0,0,1,.88-.2,1.71,1.71,0,0,1,.81.15,1.73,1.73,0,0,1,.7.61,2.1,2.1,0,0,1,.36.77,1.71,1.71,0,0,1,0,.76,2.48,2.48,0,0,1-.27.71,4.67,4.67,0,0,1-.48.72l1.61.51,1.57.51a2.44,2.44,0,0,0,1.16.13,1.28,1.28,0,0,0,.37-.13,2.82,2.82,0,0,0,.34-.18l.23.34Zm-6-3.18a1.5,1.5,0,0,0-2.28-.36l-.81.57,2,2.85.63-.44a1.79,1.79,0,0,0,.44-2.62Zm12.81-2c.23.77.45,1.54.69,2.31L552.31,396l-.14-.38a4.27,4.27,0,0,0,.42-.21,1.62,1.62,0,0,0,.33-.2.57.57,0,0,0,.16-.3.72.72,0,0,0-.05-.35L551,389a1,1,0,0,0-.18-.29.53.53,0,0,0-.33-.13,2,2,0,0,0-.44,0,2.08,2.08,0,0,0-.42.08l-.14-.38,6-2.22.68,1.84-.41.15a2.63,2.63,0,0,0-.79-.69,1.23,1.23,0,0,0-.88-.25,3.54,3.54,0,0,0-.41.12l-.54.19-1.21.45,1.13,3,.88-.32a1.83,1.83,0,0,0,.59-.31.85.85,0,0,0,.24-.38,1.46,1.46,0,0,0,.05-.5,2.8,2.8,0,0,0-.07-.53l.41-.15,1.11,3-.41.15a3.08,3.08,0,0,0-.32-.51,1.47,1.47,0,0,0-.36-.34.84.84,0,0,0-.48-.13,2,2,0,0,0-.6.15l-.88.33.85,2.3a2.66,2.66,0,0,0,.25.52.53.53,0,0,0,.3.23.83.83,0,0,0,.43,0c.17,0,.41-.12.71-.23l.48-.18a3.42,3.42,0,0,0,.49-.21,3.65,3.65,0,0,0,.4-.24.67.67,0,0,0,.25-.27,3.43,3.43,0,0,0,.24-1,5.32,5.32,0,0,0,.07-.9l.39-.15M565,385.6a4,4,0,0,1,1,1.23,5,5,0,0,1,.53,1.71,4.73,4.73,0,0,1-.08,1.79,4.05,4.05,0,0,1-.69,1.46,3.8,3.8,0,0,1-1.14,1,3.86,3.86,0,0,1-1.47.49,3.76,3.76,0,0,1-1.62-.11,3.68,3.68,0,0,1-1.36-.72,4,4,0,0,1-1-1.23,4.73,4.73,0,0,1-.52-1.65,4.83,4.83,0,0,1,.08-1.8,4.21,4.21,0,0,1,.69-1.45,3.87,3.87,0,0,1,2.61-1.51,4,4,0,0,1,1.57.1,3.76,3.76,0,0,1,1.36.68Zm-.11,5.85a3.84,3.84,0,0,0,.32-1.24,7.08,7.08,0,0,0-.05-1.48,6.79,6.79,0,0,0-.36-1.51,3.75,3.75,0,0,0-.64-1.12,2.35,2.35,0,0,0-.9-.65,2.2,2.2,0,0,0-1.13-.13,2.08,2.08,0,0,0-1.14.47,2.49,2.49,0,0,0-.68.94A4,4,0,0,0,560,388a6.77,6.77,0,0,0,0,1.43,6.86,6.86,0,0,0,.35,1.46A3.67,3.67,0,0,0,561,392a2.28,2.28,0,0,0,.89.68,2.19,2.19,0,0,0,1.17.14,2.23,2.23,0,0,0,1.07-.43,2.31,2.31,0,0,0,.71-.9Z" style="stroke:#000;stroke-width:0.8399999737739563px"/><path d="M468.7,266.93h62.72m5.13,0h8.82V318.5c0,10.26-1.42,51.1-45.3,67-44-15.86-45.39-56.7-45.39-67V266.93h8.88" style="fill:none;stroke:#000;stroke-width:1.2200000286102295px"/><path d="M494.08,132.86c-3.4,0-7.17,1.66-11,5.81h0c9.3-2.73,13.4,3.44,17.28,7.37a154.29,154.29,0,0,0-33.49,3.72c-3.6-8-16.31-17.63-26.19-3,9-4.25,14.06,1.64,18.6,4.88a152.78,152.78,0,0,0-26.76,10.25c0-.06-.05-.14-.08-.2-3.71-7.09-23-15.74-27.57,3.83,9.52-9.87,19,1,24.63-2.1A154.1,154.1,0,0,0,405,179.33s-.07-.12-.11-.17c-5.16-6.13-25.9-10.46-26.09,9.63,7-11.44,18.29-3.39,23.29-7.09A154.86,154.86,0,0,0,380,204.38c-.12-.13-.23-.29-.35-.41-5.75-5.59-26.82-7.83-25,12.17,6-12.41,18.55-4.76,22.84-9.7a5.54,5.54,0,0,0-1.18,2.77,153.78,153.78,0,0,0-15.64,26.64c-7.1-3.8-27.9-.28-20.69,18.45h0c2.37-13.56,16.55-9.57,19.34-15.48,0,.06,0,.13-.06.19a152.68,152.68,0,0,0-9.65,31.16c-8.75.21-23,8.49-12.66,23.15-.74-9.89,6.67-12.43,11.36-15.47a155,155,0,0,0-1.58,22.07c0,2.22.06,4.43.15,6.63C339,310,328.62,324.33,345,333.27c-4.63-7.82-.4-13.11,2.54-17.61A153.06,153.06,0,0,0,353.14,344c-7.39,4.76-14.93,18.06.61,25.88-5-7.75-.76-13.21,2-17.85a153.19,153.19,0,0,0,12.64,26.71c-5.93,6.41-9.85,22.13,7.83,25.1-7.21-6.08-4.57-12.68-3.33-18a154.71,154.71,0,0,0,19.94,23.95c-5.59,6.67-8.67,22.92,9.35,24.71-8.68-6.37-4.59-14.31-4.26-19.93a154.34,154.34,0,0,0,28.69,20.35c-1.57,8.6,3.09,23.26,19.49,17.27-8.87-1.64-10.2-8.12-11.67-13.26A152.72,152.72,0,0,0,466.54,450c-.15,8.71,5.75,20.94,20.74,14.3-9.12-1.06-10.79-7.64-12.65-12.7a154.76,154.76,0,0,0,26,2.19c1.68,0,3.36,0,5-.09,1.9,8.53,12,20.31,24.78,8.35-9.68,2.16-13.3-4.63-17-8.79A153.15,153.15,0,0,0,547,446.66c5.27,7,18.06,13.31,25.51-1.62-7.25,4.65-12.57,1.35-17.07-1.33A153.28,153.28,0,0,0,581,431.15c6.57,5.36,25,7.67,24.78-11.25-4.8,8.27-12,6.71-17.49,6.49a154.74,154.74,0,0,0,24.4-21c7.74,4.14,23.67,4.15,22.61-13.39-4.4,8.46-11.63,7.25-17.15,7.28a154.25,154.25,0,0,0,18.11-26.58c8.61,1.46,24.34-4,16.88-20.4h0c-1,9.23-7.9,10.81-13,12.72a152.7,152.7,0,0,0,10.84-32c8.6-1.86,20.5-11.84,8.54-24.55,1.76,8-2.75,11.82-6.75,15a155,155,0,0,0,1.78-23.49c0-1.1,0-2.19,0-3.28,8.38-2.68,19.29-13.81,6.08-25.3,2.88,8.78-2.62,13-6.48,16.86a153.47,153.47,0,0,0-4.16-25.73c7.39-4.4,15.82-19.93-1.54-26.73,5.95,7.64,1.59,13.68-.69,18.7a152.91,152.91,0,0,0-10.75-26c6.24-6.06,11-22-6.8-25.54,7.08,6.37,4.11,12.95,2.71,18.25A154.43,154.43,0,0,0,616.7,199c3.31-8.1,1.78-23.34-15.48-20.86,7.3,3,8.13,8.45,8.48,13.33a154.73,154.73,0,0,0-19.81-16.83c2.38-8.25-1.94-25.1-19.29-18.6h0c9.2,1.62,10.36,8.49,11.95,13.68A153.31,153.31,0,0,0,555,156c1.46-8.48-4.56-24.61-21.09-16.46,10.29.77,11.46,8.93,13.94,14a153.28,153.28,0,0,0-39.31-7.21c-1.33-5.8-7-13.44-14.49-13.38Zm6.53,17,2.29,0c-5.17,3.1-9.62,13.31-20.74,10.46,12,13.53,25.13-1.9,26.58-10.27a149.58,149.58,0,0,1,38.54,7.18c-5.78,1.77-13.17,8.32-21.93,2.18,6.27,16.63,23.68,7.36,28.35.08a149.52,149.52,0,0,1,29.8,15.29c-6,.34-14.71,7.73-23.46.17,4.53,17.06,22.6,9.77,28.11,3a150.8,150.8,0,0,1,22.46,19.83,5,5,0,0,0,1.6,2.36c-5.2-4-17.44,4.88-25.43-5.82.76,18.68,22.29,13.9,27.85,8a150.36,150.36,0,0,1,16.43,23.36c-5.24-3-16.69-1.18-20.09-12.28-5.43,17.25,14.85,20.33,22.74,17.15a149.07,149.07,0,0,1,11,27.37c-4.92-3.48-15.74-4.1-17.06-15.21-8.16,15.57,9.93,22.23,18.62,21a150,150,0,0,1,4.22,29c-1.93-5.77-14.63-9.58-11.83-21.72-13.79,12.7,3.8,25.81,12,26.18,0,.9,0,1.79,0,2.7A150.9,150.9,0,0,1,648,328a4.57,4.57,0,0,0-.6,2c.33-6.51-14-11.42-9.69-24-15,11.25,1.13,26,9.23,27.24A149,149,0,0,1,635,366.67c-.35-6-8.93-14.28-1.71-23.67-17.3,5.72-7.93,23.88-.71,28.35a150.32,150.32,0,0,1-19.45,27.81c2-5.68-3.24-16.59,7-22.85-18.66-.81-15.87,20.5-10.48,26.71a150.73,150.73,0,0,1-26,21.88c1.29-5.86-2.13-15.91,7.65-21.32-17.25-1.53-16.95,16.76-12.75,24.57a149.35,149.35,0,0,1-28,13.27,4.92,4.92,0,0,0-2.67,0c6.26-2,5.85-17,19.26-17.46-16.07-10.07-24.35,10.7-22.4,18.45.07.27.19.55.29.82a149.56,149.56,0,0,1-33.78,6.32c5.4-2.7,10.54-12.7,21.49-9.11-11.44-14.84-26.3,1.39-27.41,9.41-1.59,0-3.18.08-4.79.08a150.93,150.93,0,0,1-28.15-2.64,4.69,4.69,0,0,0-1.8-1.33c6.1,2.43,15.43-9.41,26.06-1.28-5.92-17.92-25.64-7.15-29.11.06a9.09,9.09,0,0,0-.53,1.43,149,149,0,0,1-36.24-13.41l-.06,0c5.92,2.84,16-8.35,26.08.47-4.66-18.17-24.83-9-29-2a150.36,150.36,0,0,1-26.36-18.58c5.91,1.15,14.79.24,18.66,9.48,3.68-17.74-16.89-18.77-24.39-14.8a150.67,150.67,0,0,1-21.61-26.49c5.15,3.14,17,.61,20.84,11.87,4.93-17.63-16-19.91-23.55-16.3a149.23,149.23,0,0,1-13.83-30.77c2.11,6.1,17,5.93,17.37,19.15,10.28-15.84-10.52-24.24-18.36-22.39A149.57,149.57,0,0,1,351,311.26c4.14,4.37,15.53,6.08,15.43,17.64,10.06-14.39-6.93-23.25-15.73-23.16-.07-1.93-.12-3.87-.12-5.82a151.31,151.31,0,0,1,1.78-23.14c2.18,5.6,10.84,12,5.78,22,16-8.84,3.2-25.1-4.72-28a148.94,148.94,0,0,1,6.88-24.07c1.9,5.29,4.48,11.61-1.1,18,15.81-4.2,10.77-19.69,4.55-26.37a149.73,149.73,0,0,1,12.63-22.59c.36,5.28.44,11.3-6.06,15.57,16,.2,15.75-15.27,11.87-23.54a150.85,150.85,0,0,1,18.42-19.71c-.25,5.78.3,13.19-7.73,17.38,16.16,1.82,17.26-14.2,14-22.71a150.28,150.28,0,0,1,19.34-13.16c-1.49,5.58-2.59,12.88-11.29,15.24,15.37,5.22,19.93-10.15,18.62-19.16a149,149,0,0,1,28.33-10.73c-4.54,4-7.38,14.5-18.7,13.42,14.31,11.8,25-6.65,24.63-14.88a150.64,150.64,0,0,1,32.81-3.6Z" style="fill:#338a00;stroke:#075400;stroke-width:0.2980000078678131px"/><path d="M408.92,366.94a33.79,33.79,0,0,0-1,5.13c0,.47-.47,3,1,3.13,1,.1,1.33-2.66,1.33-2.66s-1,3,.28,3.42c1.71.38,1.9-3.32,1.9-3.32-.19,1-1.33,3.71.29,4S414.9,373,414.9,373s-1.42,3.9.28,4,1.61-3.8,1.61-3.8-.86,4.65,1.42,4.27c1.23-.19,1.52-1.81,1.8-2.76.38-1.42,1.23-3.23.19-6.17-.76-2.18-.47-2.75-.47-2.75s-2.66,2-4.75,3.32c-1,.57-6.08-2.18-6.08-2.18Zm27.73-4.09c-.47-.29-.38,1.71-.57,2.66s.19,3,3.42,2.85,6.27-1,8.26-.48a27.42,27.42,0,0,0,6.55.66,9.61,9.61,0,0,0,3.42-.48c.67-.28,2.09.38,2.75.38s1.71-1,1.61-1.71c-.1-1.24-1.23-1.24-2.85-1.33a27.29,27.29,0,0,1-4.65-.85,28.81,28.81,0,0,0-5.32-1.9s-4.56.19-5.5.19-6.55.28-7.13,0Z" style="fill:#ad7d5a;stroke:#000;stroke-width:0.61080002784729px"/><path d="M421.36,369.6l-.19-4.37,1.8,1.52.47-3.33c.76-.19,2,1.33,2,1.33l-.19-3.32,2.75,3a8.14,8.14,0,0,1,.76-4.08s2.09,1.8,2.09,3.89c0,1.81,1.8-2.56,1.8-2.56l1.52,4.84,1.23-1.81,1,3.8,2.28-3.32,1.8,3.89,4.08-.29.48,2.28,1.8-2,2.37,1.52a15.56,15.56,0,0,1,3-.57c1,0,2.28,1.33,2.28,1.33a6.29,6.29,0,0,1,1.52-1.8c.76-.48,1.8.76,2.09,1.52l1.52-2.75a15.68,15.68,0,0,1,2.28,2.75,11.41,11.41,0,0,1,.76-3c.48-.76,1.23.29,1.8,1.24l1.23-4.08a3.93,3.93,0,0,1,2.28,1.8c1,1.52,1-2.28,1-2.28a20.86,20.86,0,0,1,2.85,5.13m57.17-.76a10.41,10.41,0,0,1,1.8-3.13s2,2.38,2,3.13a13.23,13.23,0,0,0,1.61-1l1.52,1.52,1.81-1.23,1.71,1.52,3.13-1.33,1.23,1.33,4.84-.57,1.81.76,1.71-2.18,1.61,1.71,2.56-2.56a6.44,6.44,0,0,1,1.52,1.8,9.16,9.16,0,0,0,2.56-1.8s2-.76,2.28.47c0,0,1.23-1,1.14-2s1.42-.28,1.9,1c0,0,.57-2.09,2.09-2.28a4.73,4.73,0,0,1,.76,3.52,13,13,0,0,1,3.32-2,11.09,11.09,0,0,1-.28,4.84s2.37-3.9,2.85-2.57a10.92,10.92,0,0,1,.19,5.13l2.09-1.33.76,2.57,2.28-.48M473.23,381.7a18,18,0,0,1,2.75-3.61,10.4,10.4,0,0,1,3,4.08,10.42,10.42,0,0,1,1-2.85s2.85,1.33,3.32,3.13a9,9,0,0,1,1.8-2.28c.76-.57,1.52,2,1.52,3.51,0,0,1.8-1.9,2.85-2,0,0,2,.95,2.56,4.27,0,0,1.9-1.8,2.56-1.52,0,0,2.28,1.52,1.71,3.61-.28,1.14,2.28-1.33,5.41-2.09l2.75,2.09s2.56-3.42,3.32-4.56c0,0,2.09.76,2.09,2,0,0,1-3.61,1.71-4s1.8,1.14,1.8,2.18c0,0,.29-2.75,1.81-3.32,0,0,1.52,1,1.52,2.09,0,0,1.61-3.13,2.85-3.9" style="fill:none;stroke:#060;stroke-width:0.6110000014305115px"/><path d="M421.36,369.6l-.19-4.37,1.8,1.52.47-3.33c.76-.19,2,1.33,2,1.33l-.19-3.33,2.75,3a8.15,8.15,0,0,1,.76-4.09s2.09,1.81,2.09,3.89c0,1.81,1.8-2.57,1.8-2.57l1.52,4.84,1.23-1.8,1,3.8,2.28-3.32,1.8,3.9,4.08-.29.48,2.28,1.8-2,2.37,1.52a15.59,15.59,0,0,1,3-.57c1,0,2.28,1.33,2.28,1.33a6.33,6.33,0,0,1,1.52-1.81c.76-.47,1.81.76,2.09,1.52l1.52-2.75a15.75,15.75,0,0,1,2.28,2.75,11.39,11.39,0,0,1,.76-3c.48-.76,1.23.29,1.8,1.24l1.23-4.08a3.94,3.94,0,0,1,2.28,1.8c1,1.52,1-2.28,1-2.28a20.72,20.72,0,0,1,2.85,5.13s-15.72,5.4-26.81,3.92c-13.05-1.74-23.8-4.21-23.8-4.21m107.79-.47a10.4,10.4,0,0,1,1.81-3.14s2,2.38,2,3.14a13.24,13.24,0,0,0,1.61-1l1.52,1.52,1.81-1.23,1.71,1.52,3.13-1.33,1.23,1.33,4.84-.57,1.8.76,1.71-2.18,1.61,1.71,2.56-2.56a6.47,6.47,0,0,1,1.52,1.81,9.05,9.05,0,0,0,2.56-1.81s2-.76,2.28.48c0,0,1.23-1,1.14-2s1.42-.29,1.9,1c0,0,.57-2.09,2.09-2.28a4.72,4.72,0,0,1,.76,3.52,12.87,12.87,0,0,1,3.32-2,11.1,11.1,0,0,1-.28,4.85s2.37-3.9,2.85-2.57a10.9,10.9,0,0,1,.19,5.13l2.09-1.33.76,2.57,2.28-.48a122.71,122.71,0,0,1-26.18.85,109,109,0,0,1-24.62-5.7m-9.39,9.43c.62-.38-4.24,10-16,10.55-16.39.77-30.41-7.41-30.41-7.41a18,18,0,0,1,2.75-3.61,10.4,10.4,0,0,1,3,4.08,10.42,10.42,0,0,1,1-2.85s2.85,1.33,3.32,3.13a8.94,8.94,0,0,1,1.81-2.28c.76-.57,1.52,2,1.52,3.51,0,0,1.8-1.9,2.85-2,0,0,2,1,2.56,4.27,0,0,1.9-1.8,2.56-1.52,0,0,2.28,1.52,1.71,3.61-.28,1.14,2.28-1.33,5.41-2.09l2.75,2.09s2.56-3.42,3.32-4.56c0,0,2.09.76,2.09,2,0,0,1-3.61,1.71-4s1.8,1.14,1.8,2.19c0,0,.29-2.75,1.81-3.32,0,0,1.52,1,1.52,2.09,0,0,1.61-3.14,2.85-3.9Z" style="fill:#5ac800"/></svg>