<svg xmlns="http://www.w3.org/2000/svg" viewBox="0 0 900 600"><title>Bhutan</title><path d="M0,0H900V600H0Z" style="fill:#ffd520"/><path d="M0,600H900V0Z" style="fill:#ff4e12"/><path d="M481.74,187.59c-5-1.77-8.21.8-8,7.24s3.54,10.14,8.53,7.73l-.48-15Z" style="fill:#fff;stroke:#000;stroke-width:0.5210000276565552px"/><path d="M486.12,175.53c-4.15-3.28-8-1.87-9.95,4.28s.1,10.74,5.6,10.06l4.35-14.33Z" style="fill:#fff;stroke:#000;stroke-width:0.5210000276565552px"/><path d="M493,163.86c-3.58-3.9-7.63-3.14-10.51,2.63s-1.62,10.62,3.92,10.82Zm-4.54,56.73c-6.12,2.25-6.76,10.63-2.9,15.78s10.95,6.12,14.81,0L488.5,220.59Z" style="fill:#fff;stroke:#000;stroke-width:0.5210000276565552px"/><path d="M481.42,202.88c-5.8-1.93-11,5.85-11.91,12.88-1.12,8.85-13.68,11.75-6.76,25.11,1.45-8.53,7.08-13.2,11.59-13.52s11.27-1.29,14.17-6.76Zm18.35,34.45c-6.76,1.61-7.73,10.63-2.9,17.06,4.13,5.51,17.06,4.19,16.74-1.29Zm19.16,54.25c.32-5.8-9-8-13.52-6.92s-13.12-.16-15.13-5c-1.61,3.86.73,8,7.25,10.14,4.93,1.58,4.83,5.15,3.38,6.76,3.7.64,14.65.64,18-5Z" style="fill:#fff;stroke:#000;stroke-width:0.5210000276565552px"/><path d="M513.62,254.56c-6.6-2.9-10.51,1.52-13,5.8-3.7,6.28-15.13-1.77-19,6.6,5.23-2.25,10.56,2.55,13,4.19,7.08,4.67,20.77,3.22,22.7-7.73l-3.7-8.85Z" style="fill:#fff;stroke:#000;stroke-width:0.5210000276565552px"/><path d="M517.48,262.28c-6.6,5-9.17,10.95-9,15s5.8,12.88,11.91,13.36c3.54-7.24,5.31-22.54-2.9-28.33Zm-27.36,31.07c0-2.42,3.54-3.38,6-2.58s6.12,3.22,4.83,5.8Zm-36.39-13.2c-.64-2.9,4-7.89,10.3-5.15s7.08,8,4.5,10.14l-14.81-5Z" style="fill:#fff;stroke:#000;stroke-width:0.5210000276565552px"/><path d="M469,285.46c-.48-1.61,4-4.83,11.75-2.9s9.62,6.91,9.34,10.79L469,285.46Zm-16.09-5.31c4-3.06,2.5-8.86-1.13-10.62-6.6-3.22-4.18-11.59-8.37-13.2s-8.21-4.51-8.37-7.4c-2.09,4-.8,7.73,2.1,10.3s-2.25,13,1.45,15.78l14.33,5.15Zm-86.29-2.25c-3.38-5.31-11.43-4.35-14.81-.64s-2.9,9.18.32,11.59ZM386,270c-1.29-7.08-9.82-7.89-14.49-6.12s-7.89,8.85-4.83,14L386,270Z" style="fill:#fff;stroke:#000;stroke-width:0.5210000276565552px"/><path d="M398.84,269c3.06-6-2.9-14.81-9.66-16.1-5.64-1.07-12.32-1-14.49-6.6-1.37,4.83,2.25,7.89,6.44,10.63s-.81,9.82,6,13.84L398.84,269Z" style="fill:#fff;stroke:#000;stroke-width:0.5210000276565552px"/><path d="M398.2,269.25c-1.41-4.27,1.45-9.94,7.23-9.55s9.08,4.6,6.53,9.86l-13.76-.31Z" style="fill:#fff;stroke:#000;stroke-width:0.5210000276565552px"/><path d="M411.07,269.57c-.8-4.42,2.83-9.64,8.5-8.43s8.34,5.83,5.08,10.67Z" style="fill:#fff;stroke:#000;stroke-width:0.5210000276565552px"/><path d="M423.86,271.6c-.58-4.46,3.31-9.49,8.91-8s8,6.24,4.54,10.92Zm-97.14,73.75c-10.79,0-13.42,2.57-15,13.68C309.82,372.88,328.65,374.49,326.72,345.35Z" style="fill:#fff;stroke:#000;stroke-width:0.5210000276565552px"/><path d="M331.55,330.86c-16.58-6.28-25.6,20-42,15.29,5.88,9.34,20.12,0,25.43,1,9,1.61,28.49-1.77,16.58-16.26Zm-10.79,35.9c-8.21-3.7-17.06,8.85-15.45,14.33C307.35,388,326.07,382.38,320.76,366.76Zm-38.31,54.09c4.51,1.28,10,3.86,9,12.55s-17.39,26.4-32.2,27.37-20.12,18.83-32.84,13.84c11.91-2.25,11.91-15.77,21.25-20-6.76-2.42-10.3,12.88-19,12.88s-12.88,13.84-23.5,12.88-11.74,16.85-33,17.07c-16.26.16-36.38,19.15-43.62,10.95,15.78-2.25,22.14-11,31.55-20.61,15.13-15.45,32.2-8.53,38-22.21a39.57,39.57,0,0,1-22.86,6.76c-9.9-.2-20.77,15.77-31.87,8.69,6.44-.8,10.63-3.54,17.39-10.62,6.92-7.25,17.08-2.57,25.11-10,12.56-11.59,23.34-1.93,35.41-16.42-3.38-1.61-10.62-.48-17.39,3.06s-15.45-2.42-23.18,1.77c1-9.5,19-4.06,30.26-10.62,12.72-7.4,23.26-5.23,33.32-4.35-14-.08-19.48-13.36-38.79-9.5-8.43,1.69-15.13-11.59-23.5-4.83.24-5,9-9,18-4.18s12.65-4.23,30.59,7.08c7.4,4.67,20.12-2.9,28.17,2.09-1-3.06-5.63-5-11-4.59,3.38-6.92,25.19-6,34.69.89Z" style="fill:#fff;stroke:#000;stroke-width:0.5210000276565552px"/><path d="M296.78,410.38c-7.08-5.47-16.9,1.13-23.66-1.45a14.43,14.43,0,0,0,9.66,13.84C285,421.17,295.17,412.31,296.78,410.38Z" style="fill:#fff;stroke:#000;stroke-width:0.5210000276565552px"/><path d="M307.89,394.77c-11.11-5.63-13,8.37-21.73,5.47.32,4,3.54,9,10.63,10.14l11.11-15.61Z" style="fill:#fff;stroke:#000;stroke-width:0.5210000276565552px"/><path d="M314.49,382c-16.42-6.44-18.51,9.34-28.17,6.28,2.25,5.47,16.1,8.37,23.18,6.44l5-12.72ZM337,313c-4.35-6.12-13.52-1.13-15,6.12s2.09,17.39,8.21,15.13L337,313Z" style="fill:#fff;stroke:#000;stroke-width:0.5210000276565552px"/><path d="M348.13,293.67c-7.57-1.77-16.26-1-15.29,6.44-2.9,1.29-3.7,10.79,4.18,12.88l11.11-19.32Z" style="fill:#fff;stroke:#000;stroke-width:0.5210000276565552px"/><path d="M353.12,288.68c-7.4-8.69-15.66-8.49-20.28-4.83-8.53,6.76-16.82,2.9-17.06,9.66,5.15-3.95,9.66.8,13.84-.64s7.24,6.6,18.83,3.22l4.67-7.4ZM335.25,418.6c1.13,2.09,8,3.06,11.43-.48,4.48-4.7-.48-17.71-7.57-18.67s-7.73,14.65-3.86,19.16Z" style="fill:#fff;stroke:#000;stroke-width:0.5210000276565552px"/><path d="M327.2,418.92c10.14,3.7,14.49-4.67,9-10C334.77,410.71,329.45,417.15,327.2,418.92Z" style="fill:#fff;stroke:#000;stroke-width:0.5210000276565552px"/><path d="M289.21,432.76c-1.93,5.8-11.91,6.76-23.18,24.79S244,468,241.24,480.41c13.52-10.95,24.14-3.67,32.19-14.49,12.23-16.42,22.31-14.06,27-25.11,6.76-15.77,36.38-15.45,38-40.24-10-1.93-41.53,24.79-49.26,32.19Zm254-243.4c12.88,4.18,13.2,20.93,28,26.4s16.26,18.67,28.33,15.45c-11.27-3.06-10.46-16.1-22.21-19.32-13.78-3.78-19-24.79-29.95-28m54.9,92.88c2.25,5.15,1.93,14.33-6.12,16.74,4.35,2.74,10.78.16,14.33-5.8-5.31,11.75-1.77,22.38,6.6,24.47-4-8.21,5-12.07,2.1-17.39,5.31,2.25,10,9.5,9.82,14,6.92-7.73-5.15-18-2.9-25.27l-23.83-6.76Zm-83.39,82.74c-7.89-6.92-11.25,1.81-15.13-1.21-3.62-2.82-8.45-3.22-10.3-.4,6.76.24,3.46,5.47,16.58,6.76-13.12.89-10.7,15.54-19.48,14.81,9.34,8.85,14.17-7.89,21.73-5.15-2.25.64,3.54,6-.48,13,6.52-.16,9.18-9.18,10-13.84l-2.9-14Zm-173.7,75.18c-2.9-2.41-11.27-3.54-14.49-1.61s-2.09,2.41,1.77,2.74,8.85,6.57.48,6.92c-3.86.16-2.58,9.5-10.62,10.14,3.3,4,12.72,1.37,16.1-3.06-.64,3.62,4.18,6.92,2.25,11.27,6,.65,2.49-12.07,11.91-11.43-3.86.48-2.25,9.18,4.51,6.92-4,1.93-1.93,6.6,2.58,5.48-2.9,1-3.86,4.67.16,6.76,3.86-5.31-.48-24.31-14.65-34.13ZM695.85,257.07a22.31,22.31,0,1,0-22.31-22.31A22.31,22.31,0,0,0,695.85,257.07Z" style="fill:#fff;stroke:#000;stroke-width:0.5210000276565552px"/><path d="M579.3,284c6.76-6.44,17.07-9.66,24.15-4.83s30.59,10.63,42.18,2.58,17.06-12.23,22.21-11.27c3.87,5.8,8.53,8.53,14.33,9,1.77,1.93,8,3.54,11.59,3.06,5.15,1.29,11.43-.32,16.42-5.8,7.73,1.13,15-4.67,17.71-13.36,8.21-1,8.69-10.14,3.54-16.26-4.83-1-1.12-17.23-18.67-14,7.41,4.51,1.77,13.52,7.89,17.71-4.19,0-9.58,1.77-10.87,8,1.61-4.35-.24-7.24-1.37-8.21.16-3.7-8-12.8-15.78-9.5,5.55,1.21,2.42,10.14,6.44,13.52a10.18,10.18,0,0,0-7.73,4.18c-2.09-3.7-9.5-7.57-14-7.89a16.41,16.41,0,0,0-.8-5.15c-2-3.86-3.7-8.45-2.9-14.33a57.78,57.78,0,0,0-9,14.17c-6.12-4.18-21.25,1.93-28.33,3.54s-30.91-2.25-36.38-8-16.1-9.34-26.08-12.23c-13.72-4-13.85-19-29-29.3-.32,18.67,28,77.91,34.45,84.35ZM421.54,426.32A21.57,21.57,0,1,0,400,404.75a21.57,21.57,0,0,0,21.57,21.57Z" style="fill:#fff;stroke:#000;stroke-width:0.5210000276565552px"/><path d="M370,409.74c4.35,5.64,11.75,5.31,14.81,4.83,2.58,6.76,10.79,6.6,14.33,10.3s15.61,3.38,19.15,1.29c-3.22-.32-7.4-2.25-11.43-5.63-4.86-4.08-2.58-12.23-6.44-15.13,2.9-3.22,3.38-8.53,2.74-10.62,3.06-1.77,5.31-4.67,5.64-6.12a19.14,19.14,0,0,0,11.91-5.15c2.74,2.58,9.66-.81,13.36,3.54.8-10.62-9.34-16.26-16.1-12.72-2.74-1.45-10-.48-11.27,1.45-2.25-1-8.53,2.25-11.43,4.35,3.22-1.77,3.7-7.08,2.41-9,2.74-1.13,5.8-4.83,6.12-7.57,3.86.64,9.66-1.93,12.23-1.29-4.18-5.47-11.11-7.4-18.19-6.92-7.33.4-10.46,5.55-11.43,11.11-4.35,2.58-5.8,11.27-4.18,14.33-2.5-.08-4.83,2.33-5.8,3.7A33.35,33.35,0,0,0,364.79,382m1.53-8.77c-1.45-4.18.47-8,1.45-11.27,2.49-8.45,1-10.62-6.6-9.5C360.52,356.46,364.39,369.66,366.32,373.2Z" style="fill:#fff;stroke:#000;stroke-width:0.5210000276565552px"/><path d="M360.77,352.91c1.93,1.93,8.77,2.82,9.5-3.3.83-7-2-9.74-8.13-7-.48,1.61-1,8.21-1.37,10.3Z" style="fill:#fff;stroke:#000;stroke-width:0.5210000276565552px"/><path d="M362.22,342.37c2.58,1,8.13,3.14,11.19-2.82,2.57-5-.8-8.85-6.12-8.53-1.29,1.45-3.86,6.6-5.07,11.35Z" style="fill:#fff;stroke:#000;stroke-width:0.5210000276565552px"/><path d="M367,330.54c.64,1.93,7.24,8.37,12.07,3.7s4.83-11.59-2.42-14.17c-1.93.32-7.73,7.08-9.66,10.46Z" style="fill:#fff;stroke:#000;stroke-width:0.5210000276565552px"/><path d="M376.62,320.08c1.45,4,6,10.95,14.33,7.73s4.83-13.68,1-15.78C389.66,312.19,380.48,316.38,376.62,320.08Z" style="fill:#fff;stroke:#000;stroke-width:0.5210000276565552px"/><path d="M391.92,312c-.64,3.54,0,13.2,11.43,13s8.21-13.52,5.31-15.45c-4.67,0-12.56.16-16.74,2.42Z" style="fill:#fff;stroke:#000;stroke-width:0.5210000276565552px"/><path d="M409.14,310.09c-1.29,2.74-4.19,20.75,18.19,15.78C430.23,325.22,437.79,308.64,409.14,310.09Z" style="fill:#fff;stroke:#000;stroke-width:0.5210000276565552px"/><path d="M421.37,311.7c-2.25,2.25,3.54,20.44,18.67,17.39S442.46,308.8,421.37,311.7Z" style="fill:#fff;stroke:#000;stroke-width:0.5210000276565552px"/><path d="M434.25,314.44c-2.41,5,1.21,19.8,19.88,19.8C471.05,334.24,453.25,314.76,434.25,314.44Z" style="fill:#fff;stroke:#000;stroke-width:0.5210000276565552px"/><path d="M448.9,318.79c-1.21,2.77-2.7,18.47,19.32,19.8C484.15,339.56,480.29,317,448.9,318.79Z" style="fill:#fff;stroke:#000;stroke-width:0.5210000276565552px"/><path d="M472.57,325.39c-2.73,4.83-5.63,16.9,18.51,17.87C506.55,343.88,497,325.71,472.57,325.39Z" style="fill:#fff;stroke:#000;stroke-width:0.5210000276565552px"/><path d="M492.69,329.09c-3.54,4.83-.93,14.3,8,16.1,11.27,2.25,12.88-8.37,5.15-13.52s-13.2-2.58-13.2-2.58Z" style="fill:#fff;stroke:#000;stroke-width:0.5210000276565552px"/><path d="M503.64,331.34c-2.58,4.51-1,15.45,16.1,15.45C523.28,346.79,536.8,333,503.64,331.34ZM371.48,541.27a25,25,0,1,0-25-25A25,25,0,0,0,371.48,541.27Z" style="fill:#fff;stroke:#000;stroke-width:0.5210000276565552px"/><path d="M555.15,177.13c-1.93,1.93-6,7.73-6.76,10-8.37,25.11,14,43.87,27,70.83,10.3,21.25,9,54.73-7.08,76-5.51,7.27-3.86,9.34-10.95,16.74-2.72,2.84-5.8,6.44-4.83,16.74,4.51-1.61,10.95,2.58,12.23,6.12,3.22-1.61,7.73-1,9.34,1,5.47-2.58,10-1.29,14.81,3.86a13.58,13.58,0,0,1,12.88,4.51c2.25-4.51,6.76-6.12,10-5.15-.32-5.8,5.47-10,10.63-7.73a9.53,9.53,0,0,1,12.24-11.27c5.79-4.51,17.38-4.83,23.18,1.93-10.3-2.9-10,8-18.67,7.08,2.25,6.44-3.54,10.14-9.33,12.23,3.7-1.77,7.72-3.86,9-1.61,3.22-2.82,9.66-1.77,11.27-.32,4.26-1.37,8.37-.32,10.3,4.83,5.8,3.54,9.66,12.56,5.48,19.32-1.29-7.08-6.12-6.76-8-9.66-4.51,1.61-9,1.61-10.3-1.29-2.58,2.58-11.27,4.83-15.13,1C631,398,626,402.82,620.18,402.82c1.61,4.51-2.9,12.24-6.44,16.1,5.47,2.9,3.86,9.34,2.58,13.2,8.37,1.29,1.29,8.69,15.78,13.52-7.08,2.25-20.92,0-22.86-8.69-7.08-.32-11.91-7.4-11.59-14.81-5.47-5.15-6.28-12.55,1.29-17.7-6.44,1.93-10-8.37-19.32-4.18-4.64,2.08-16.9-1.45-16.74-5.8-1.93,3.22-13.68,1.93-15.3-3.54-3.86,2.09-12.88-1.45-12.72-6.76-5,2.25-11.75-1.77-11.43-6.92-4.67-.64-5.15-4.83-4.83-8.37-4.19-1.93-3.06-6-1.45-10.79-2.9-3.22-1.61-7.73.65-11.91-3.22-3.22-2.58-7.08-1.61-11.59-15.45-1.29-34.81-5-79.2-18.67-67-20.61-85,27.69-70.19,58,17.09,34.92-1.93,42.5,3.86,68.58a11.14,11.14,0,0,1,9,11.91c3.62.16,6.2,3.54,4.91,10a11.2,11.2,0,0,1,9.58,2.89c2.25-4.18,9.66-5.15,13.52-.32,8.37-.65,12.56,6.12,12.23,14.49,4.51,8,2.9,17.87-1.93,24.15.48-3.38,0-8.21-.16-11.1-.3-5.33-7.73-6.44-6.92-10.79-3.86.32-7.57-1.77-8.85-4.67a8.5,8.5,0,0,1-8.21,1.61c4.35,1.93,7.73,9.66,6.44,14.81,2.25,3.87,1.77,11-1,14-1.29,6.28-6.12,8.53-12.39,5.79a10.72,10.72,0,0,0,4.67-9.66c-2.25-1.93-3.38-5.63-3.54-7.89-6.28,1-15-4.35-16.57-6.45a25,25,0,0,0-25,25c-.64-5.15-7.16-10.23-6.36-14.58-3.86-11.91,1.61-23,17.39-25.27-1.93-4.51,4.83-9.18,2.25-14.33-3.29-6.58-9.34-15.13-18.35-25.11,5.47-9.34,3.86-21.89.64-29.62-4.62-11.1-9-8.37-25.43,9.66-26.76,29.38-62.46,21.25-94,40.57-8.38,5.13-16.74,7.08-7.73-1.93s32.84-18,48.29-25.76c28.94-14.47,53.45-38.64,63.1-85.64,22.7-110.46,106.24-74,159-53.45,49.57,19.35,40.57-24.47,15.45-50.87-30.18-31.73-24.15-56.66-10-76.62,25.43-3.54,74.21,5.31,64.39,13.85Z" style="fill:#fff;stroke:#000;stroke-width:0.5210000276565552px"/><path d="M644.82,448.48a27.55,27.55,0,1,0-27.55-27.55,27.55,27.55,0,0,0,27.55,27.55Z" style="fill:#fff;stroke:#000;stroke-width:0.5210000276565552px"/><path d="M539.7,178.41c-6.12,27-1,39.28,8,51.19,18.63,24.62,33.48,80.81,12.23,117.51" style="fill:none;stroke:#000;stroke-width:0.5210000276565552px"/><path d="M571.89,315.41c2.58-1,7.4-4,8.53-9.34m-6.6-2.41c.8-4.67,8-6.68,8.21-11.67m-8-6.53c-.48-4.83,7.25-9.18,6.12-14m-10.3-3.37c-.65-2.74,6.44-7.89,4.51-12.23m-9.82-4.67c-1.45-3.06,3.38-6.6,1.29-9.82m-9-3.71c-.48-2.09,2.5-6.68.89-9.42M549,221.72c.64-.8,3.22-2.74,2.17-5.15m-7.48-6.52c1-.56,4.18-1.53,3.78-3.86" style="fill:none;stroke:#000;stroke-linecap:round;stroke-width:0.5210000276565552px"/><path d="M382.58,513.57c-6.44-2.25-14.49,1-16.1,6.44m4.83,5c.8-5.47,9.18-7.89,11.75-5.31-5.31-2.9-7.89,7.41-3.22,7.73m43.31-129.75c-3.86,1.93-5,9,0,14.33m5.79-12.72c-2.73,2.25-2.58,9,1.45,10.63-3.38-2.42,0-6.6,2.42-6.76s4,2.74,1.13,5.63m221.19,6.43c-9-2.41-16.26,8-8,17.39-.16-9,6.28-15,14.17-13.36m-3.63,6.24a3.37,3.37,0,0,0-3.46,3.42c0,1.77,1.53,3.46,4,3.46,1.61,0,2.9-1.85,2.9-3.3M689.4,227.83c1.45,5.47,9,7.73,15,6.44m0-3.54c-4.67.16-8.53-4.18-8.21-7.89,0,2.74,6.28,4,8.21,2.25" style="fill:none;stroke:#000;stroke-linecap:round;stroke-linejoin:round;stroke-width:0.5210000276565552px"/><path d="M384.83,414.57c-1.29-3.22,3.86-6.44,4-9.5s5.8-5.47,11.59.32m-2.73-34.28c-1.13.48-2.09,1.13-3.06,1.45m14.17,16.09c-1.37.08-4.18-.08-5.71-1.13m.08,7.25a28.81,28.81,0,0,1-5.07,1.85M348,492c-.16,2.9,2.74,7.08,4.35,8.37m8.21-15.29c-1.61,2.41-2.58,6.6-1.61,9.5m25.59.16c-2.9-1.93-1-6.92-1.29-10.14s3.38-8.37,10.63-4m-36.38-4.18a15.63,15.63,0,0,1,7.89.48m28.81-9.66a10.4,10.4,0,0,0-1.77,5m15.29-5.31a6.38,6.38,0,0,0-5.15,3.22m-26.08-85.64c2.58.89,9.26,5,9.5,9.26m17.87-30.19c-7.89-.16-10.95-8.21-5-8.21m19.16,19c-3.06,1.29-1.61,6.6,2.74,9.18m-21.58,41.37c-1.53-1.93.48-7.56,5.47-5.87m6.28,64.64c.32-4.91,6.52-7.81,9-2.25M388,497.63c-.4-5.39,2.33-7.16,4.75-7.48s5.88,1.69,7.49,5.23m-60.2,6.28c.32-3.22,3.06-6.6,6-6.12M634.67,358.71c-2.1,1.53-3.46,8.37,4.5,9M622.44,370c0,.8,1,1.93,1.69,2.42m36.3,10.46c-2.09-1.61-7.49,4.91-2.58,9.66M609.24,437c-1.21-4.59,3.06-5.8,7.08-4.83m-17.38-27.69c2.41-1.61,4.83-3.38,7.89-4.18m-9.18,21.89c0-3.86,1.93-7.08,3.7-8m10.46-36.37a21.14,21.14,0,0,0,3.06,11.59M650.13,378c-2.34.73-4.43,1.61-5.31,3.54m2.73,9.66a20.45,20.45,0,0,0,3-2.9M708.4,250.69c0,4.51-5.63,6.92-9.33,4m21.57-3.86c2.49,1.93,11.1.08,9.09-4.91m-19.56,30.83a13.2,13.2,0,0,1-6.12-3.86m23.83-9.5a9.35,9.35,0,0,1-6.28-.64m-39.44,16.74a21.64,21.64,0,0,0,8.13-2m-13-26.48a6.91,6.91,0,0,0-4.83,1m37.27,6.91c-.56,2-2,5.15-3.78,6.52" style="fill:none;stroke:#000;stroke-linecap:round;stroke-width:0.5210000276565552px"/><path d="M671.86,266c4-1.77,9,11.91,18.67,7.08m.81-14.17a14.14,14.14,0,0,0-2.25,6.92" style="fill:none;stroke:#000;stroke-linecap:round;stroke-linejoin:round;stroke-width:0.5210000276565552px"/><path d="M498.81,238c1.29-.16,3.54-.64,4-2.25M333.16,387.85c4.83,2.74,8.21,7.4,6.12,14.33m215.22-179c1.45,1,6.92,1,10-.16m3.87,3.38c-.16,2.25.48,10.79-3.86,12.56m1.61-1.13c4,1.29,12.08.8,14.65-6.6m-5.64,6.27a8.83,8.83,0,0,1-3.54,12.88m5.15-7.56c4.67,1.61,15.45,1.77,14.33-7.4m-3.7,7.4c3.22,4.51,17.39,9.82,15.13.48m-28.17,12.55c5.47,1.29,13.2-2.41,10-12.07m15.45,4.83c.8,3.7,18.83,7.57,16.42-.8m-3.38,4.83c3.38,7.73,21.25,7.08,15.62-3.22m-2.9,8c3.54,4.35,19.32,1.77,13-8.69m-.17,8.53c9.82,7.4,21.25-3.22,8.85-10.95m5.64,8.54c8.7,6.92,19.32-5.63,11.75-9.18M584.12,252c2.74.8,8.53.48,9.82-4.51m-2.17,3.38c-.32,7.33,12,10.14,15.13,1.69m-4.1,4.59c2.25,4.83,13,6.76,14.81-.16m-1.77,3.22c1.77,4.83,11.11,4.35,13.68-.64m-3.38,3.22c2.9,6.28,14.81,6.28,17.55-2.9m-2.09,4c4.67,2.9,14.65,1.77,13.84-7.24m-1.93,6.44c6.92,5.64,16.74.16,11.91-9.34m-.48,16.74c3.7-.64,5.63-8,1.77-10m-87.57,11.27c7.72-4.18,9.17-11.27,3.86-18.19m2.74,11.11c4.83,2.9,14-.16,15.61-7.24m-9,8c2.73,3.54,3.22,7.89-.33,11.91m2.58-7.4c8.53-5.31,19.15,4.51,11.27,10.46m-1.45-10.94c1.93-.48,5.31-4,5.63-8m-1.77,11.75c3.54-3.7,27.69,3.86,12.4,11.59m-1.13-21.73c4.67,1.77,7.08,8.37,0,10.63m6.12,5.48c5.15-5.31,21.25-1.93,15.45,4.83m-3.86-6.93c2.9-9.82,20.12-3.7,14.49.32m-18-10.14c.48,1.93.64,6.76-2.58,9.34m17.07-11.27a7.68,7.68,0,0,1-1,6.6m11.91-6.44c1,1.77,2.58,5.15-1,7.89M521.35,191.45c.16,9.18,3.38,15.29,15.78,9.5m-11.91,1.45c-6.12,8.21.8,17.06,12.88,8.21m-31.72-4.19c8.37,9,23.34,2.41,13.68-11.27m10.15,19c-1.61,8.85,5.63,10.63,11.59,6.6M499,207.87c1.52,8.9,10.63,15.94,19.48,10.46m-8.53,1.78c0,12.72,17.55,14.17,21.57,1m-6.28,8c5.63,11.59,17.87,6.92,21.89-.16m-34.29-18.35c2.25,5.63,6.76,11.91,17.22,7.24m-49.41-10c1.45,4.67,9.82,10.3,19.48,3.86m-13.53,2.1c-5.15,7.57,5.15,14.65,17.55,3.38m-11.43,6c2.09,10.63,6.27,19.16,21.41,5.47m-7.57,5.47c5.48,6.76,13.85,10.95,21.73-.48" style="fill:none;stroke:#000;stroke-width:0.5210000276565552px"/><path d="M534.06,236c-.48,8,1.13,12.07,7.4,11.75,5-.25,9.66-4.18,12.4-8.37m-13.52,8.38c-.16,9.18,7.08,16.42,20.6,7.08m-15,3.7c-2.58,6.92,5.15,18.19,20.28,12.39m-52.31-30.74c-1,8.85,7.25,14.81,20.45,3.38m-14,6.44c.48,7.24,8.69,15.94,20.77,3.38m-15,5.8c-1,12.39,10.46,15.94,20.12,6.44M509,250.05c2.58.16,4.67-2.09,6-3.7m-.48,12.71c2.25.48,6.12-1.61,7.41-4.18m-1.77,18.83c2.58,2.74,11.27.8,12.39-2.9m-2.73,2.74c4.83,11.27,17.7,10.79,23-1.93m-2.42,4.51c2.41,6.6,8.53,10.79,18.51,8.53m-13.68-1.77c-5.63,9.18,1.77,20,14.33,9.34m-11.27,4.34c-.64,5.8,4.67,12.39,11.91,13.2m-35.74-30.1c-1.93,13,7.4,19.32,19.16,12.39M520.7,286c3.06,2.42,8.53,2.74,13.68.8m6.28,7.57c-2.9,10.95,8.37,18.83,18,6.6M525,287.72c.16,5.63,5.64,11.75,15.13,10M566.74,309C560.3,313.32,559,321,568,326M551,306.71c.33,6.6,3.38,10.3,10.63,10.95m-20.12-14.33c-9.66,8.85-.16,19.16,11.27,10.46m-4.51,2.74c-3.22,10.14,8.85,16.26,15.29,6M528.27,295c-3.54,10,1,16.58,9.17,15.94M515.55,293c.48,6,5.63,8,11.43,6.76m-7.73-.48c-4.35,8.37,2.25,12.88,11,9.66m26.4,18.67c-1.45,5.31-.65,9.18,7.24,10.95m-6.76-3.38c-9.5,4.35-10.3,13.52-2.9,19.48M549.43,325a9.51,9.51,0,0,0,1.45,15.37m-43.7-44.75c-5.48,5.39-.24,20.28,11.83,12.15m19.56,6.68c-7.41,6.12-4,17.23,8.21,14.17m-20.45-18.84c-3.86,10.95-.16,14.81,8.53,15" style="fill:none;stroke:#000;stroke-width:0.5210000276565552px"/><path d="M499.13,295.12c-6.6,5-4.83,12.07-1.93,15.29s8.37,1.77,10.14-2.42m-22.06-17.22c-7.4,9.5,0,20.77,10.47,17.39M524.89,319c-7.57,2.74-13.34,9.61-8.7,15.61,2.74,3.54,14.65,4,18-9.66m-23-14.82c-4.35,6.28-2.9,12.23,5.15,15.29m-5.63-3.53c-4.67,2.58-7.73,5.64-6.6,11.27M500.26,312c-1.77,7.57.32,12.23,5,14.49M500.1,321c-7.25-.48-10.95,2.58-8.53,9.66m.64-7.89c-7.08-2.58-8.21-8.69-5.15-15.13m-1,9.5c-7.73.32-11.11,4.18-11.11,9.5" style="fill:none;stroke:#000;stroke-width:0.5210000276565552px"/><path d="M475.62,287.07c-5.63,2.42-7.4,10-5.31,14.17S479,305.74,483,303m-23.18-21.89c-5.15,5.8.8,17.06,10,14.33m-23.18-18.84c-4.83,6.76.48,18,12.88,14.81m.64,31.39c-1.29-8,7.08-13.36,17.39-2.9m-5-16.25a12.64,12.64,0,0,0-4,10.63m-35.1-41.54c-5.31,9,1.13,17.23,12.56,14m17.22,8.36c-7.57,7.57-5,15.13.64,19.48M458.4,304c-11.43.16-12.07,13.36-2.73,17.55m-6-30.75c-4.67,3.22-6.12,12.07,1.93,15.61m-2.25,4.18c-4.83-2.25-10.62.48-10.14,6.12m2.89-6c-4.35-10.3-17.06-8.53-15.93,2.09M445.68,298c-2.73.48-8.21,2.09-10.3,6.28m.81-17.87a8.8,8.8,0,0,0,3.06,14.17M420.9,270.17c-1,6.92,1.77,10.3,10.46,9.66M424,279c-3.38,8.37,1.13,12.07,9.82,11.59m-7.89-1.29c-5.15,6.12-1.61,12.72,3.38,15.45m-5.79-7.72c-9.17-1.13-10.62,9.5-7.57,14.49" style="fill:none;stroke:#000;stroke-width:0.5210000276565552px"/><path d="M416.06,269.37c-5.63,2.42-8.85,9.5-5.79,13.84s9.18,2.9,12.56.64m-10.62,1.28c-4.67,7.08-.48,12.39,4.51,14.49" style="fill:none;stroke:#000;stroke-width:0.5210000276565552px"/><path d="M394.17,268.56c-3.7,3.86-1.45,11.75,7.57,11.91,7.26.13,10.95-6.76,8.69-11.59m-10,11.59c-2.9,6.44-1.13,13.36,9.82,12.23m4.67,10.15c-6.76-3.06-15.78,0-11.91,8m-1-19.48c-2.74,3.86-1.77,9.34,1.29,12.72m-1.77-2.42c-4.51.8-8.85,3.22-6.12,10.3m-.65-5.79c-5.8-1.77-13.2,2.42-8.69,8.37m-1-5.63c-5-.8-10.95,4.51-6.12,9.82m-1.93-4.35c-4.51,1.13-9.82,6.28-5.15,10.3m27.85-35.57c-6.44,2.9-7.08,10.14-4,15.45M393,275.81c-9.66,3.7-9.5,16.58,1.13,20.61m-4.51-2.9c-5.8,3.38-6.92,9.82-3.06,14M379.52,271c-3.86,1.29-3.54,13.2,6.76,12.88M368.9,275c-7.73,5.15,1.61,18.19,14.17,8.85m-6.93,3.22c-1.13,5.31.32,11.11,8.85,11.75m-8.37-4.66c-6.12,2.25-7.24,14.81,3.86,15.78m-23.33-27.21c-7.89,7.24,6.44,13.52,11.75,3.06m-22.7,9c-3.86,4.67,9.66,16.9,15.61-3.54m1.45-.32c.32,4.83,3.22,7.73,9.17,8m-.15,4.67c-9.5,1.45-12.56,13.36-1.93,15.94M354.73,302c-.32,4.51,4.35,8.21,9.66,7.4m4.83,9.82c-8.69,1.93-9.82,13.2-2.09,12.56m-4,10.46c-7.24-2.17-7.4-10.79-1-14" style="fill:none;stroke:#000;stroke-width:0.5210000276565552px"/><path d="M357.15,334.72c-6.12,3.7-3.7,12.56-.48,13.84s5.8-.32,6.12-3.06m-.49,12.39c.64,4.18-14.89,2.58-6.92-10.46m-.09,11.19c-5.23,8.21,3.3,14.89,8.69,7.89m-8,2c-2.09,6.6,5.88,11.35,11,6.2m-28.42-68c-2.9,6,11.59,8.21,12.56-4m-16.58,12.89c-2.9,11.59,19,9.18,13.36-5.8m.48,7.73c3.06,1.77,12.23,1.93,14.49-7.89m-6.6,8.21c.64,3.06,3.38,6.76,6,7.89m-16.42-4.83c-1,6.28,5.31,11.43,12.56,10.95M347,327c-3.54,4.83-4.67,14.17,6.44,14.81m-23.34-13.2c-1.77,5,8.69,10.14,14.81,1.93m-18,10.78c-.89,3.78,8.53,8.85,13.84-7.24m-4.18,8.21c2.25,4,9.82,7.24,14.49-.64m-7.57,4.83c-1.93,5.63,3.38,10.95,9.82,9.34m-21.89-10.63c-1.29,8,8,12.72,13.84,8.53m-20-5c-2.74,10.3,10.46,14.17,15.45,6.44m-3.37,3.06c.48,5.8,9.5,10.79,16.58,6m-32.68-1.13c-.64,2.58,10.14,5.15,11.75-3.86m-5.47,6.11c2.58,6.6,11.27,8.21,16.26.16m-2.9,3.22c1.13,6.12,9,9.5,15.94,5.31m2.89,2.42c-1.77,8.21,6.76,14.81,12.07,10.3M346,375c-2.58,9,8.69,14.17,15,9.18m-28.49-13.69c-.64,8.37,6,13.36,13.52,9.66m-27.85-8.85c-2.25,5.47,9.66,10,15.29,5.31m-22.7,9.66c3.06,3.54,13.68,0,14.65-7.89m-2.89,5.79c3.86,4.51,13,6.92,16.74-2.74m-3.22,5c-.16,6.92,12.23,11.91,16.26-.8m14.56,2.49c-1.13,3.38,1.53,8.77,7.08,9.42M356.66,386c-.8,3.86,4.83,9.26,10.79,7.08m1.13,1.61c-1.61,4.18-.24,10.22,5.39,10.14m-4.83-2.33c-4.18,3.54-2.42,9.82,3.62,10.06M367,408.45c-6,4-3.86,12.88,4,12.4m-22.05-29.46c0,8.69,10.79,10,12.88,1.93m-4.19,5.15c-1.61,5.15,2.58,10.14,9.17,8.69m-7.88,53.45c1.45,2.1,7.4-1.45,5.8-5s-7.92-1.62-7.24,2.09m5.79-3.54c.8-7.08-7.57-8.21-9.66-2.09m3.06-3.54c2.09-3.54-5-8.37-7.89-3.22m2.58-2.1c1.93-5.15-6.12-7.4-6.76-2.74m-1.77-6.76c1-2.58,10-1,6.12,4.35m6.92,6.44c3.54-3.22-2.41-9.82-6.12-7.4m29.94,17.22c-2.82.32-5.72,2.17-3.62,8.13,1.45,4.13,7.65,4.35,8.53,1.85" style="fill:none;stroke:#000;stroke-width:0.5210000276565552px"/><path d="M375.58,457.31c-2.74-1.77-8.69,1.21-6,7,2.06,4.36,7.24,2.58,8,.32m-17.47,1c1.37,2.41,8.21,1.37,9.42-1.29m-4.75-6.68c1.45-1,4.1.24,4.67,1.45M364.39,418c-4.67,3.06-1.77,12.4,5.47,10m-6.92-2.41c-3.7,2.9-.32,11.91,6.6,8.53m-5.47,0c-2.58,2.58-.08,9.74,6.6,8.37m-7.57-4.83a6.52,6.52,0,0,0-6.84,2.25M358.92,405c-3.54,3.38-1.85,10.3,4.75,10.87m-6-3.79c-5.07,2.5-5.07,12.55,5.07,13m-5.47-1.61c-2.82,2.25-1.45,10.95,5.8,9.82m-3.47-.32a4.4,4.4,0,0,0-.32,4.83m-2.9-8.13c-2.58.08-6,1.93-6.84,4.59m-4.67-9.34c1-2.58,8.93-2.41,9.5,5.15m.8-9a5.21,5.21,0,0,0-3.86,3.46m.4-27c-3.46,3.14-5.15,13,5.39,15m-12.39,5.47c0-2.66,7.16-4.91,9.66-1m-14.25-13.44c1,2,6,4.75,9.1,2.5m-35-18.27a7.93,7.93,0,0,0,9,8.21c5.31-.64,6.44-5.31,4.83-8.37m-4,8.53c-3.54,4.35.8,10.46,4.83,8.69M328,393c2.09-.8,9-1.77,11.11,1.45m-33.49-.16c-1.61,2.42,8.37,4.83,11.75.16M314,396.86c-.32,3.22,1.29,8.69,9.5,6.44" style="fill:none;stroke:#000;stroke-width:0.5210000276565552px"/><path d="M324.79,408.29c1.29-2.74-4.83-7.24-9.5-2.25s.64,10.63,3.54,8.69m-15.45-17.22c-2.42,4.18,6.92,11.83,12.23,4.75" style="fill:none;stroke:#000;stroke-width:0.5210000276565552px"/><path d="M297.18,404.75c-3.38,3.46.8,9.82,5.88,7.89s4.59-7.24,3.38-8.61" style="fill:none;stroke:#000;stroke-width:0.5210000276565552px"/><path d="M290.66,411.19c-2.74,2.49-.08,8.37,3.7,8.37s6.12-3,5.39-6.76m6.27-2.09c-.48,3.7,5,6.28,8.53,2.82m.17-6.77a2.43,2.43,0,0,0-.72-2.82m-29.22,12.24c-3.14,2.5,3.62,9.42,7.89,3.06M309,414.81c-2,1.93,1.21,7,4.43,5.47M298,418.35c.48,3.46,7.24,6,11.51.73m-7.81,2.73c-1,2.17,1,5.64,3.62,5.15m60.45,14.74c-2.49,4.91,5.47,10.63,11.27,4.67M371.55,449c-1.21,2.65.24,6.36,2.42,7.73m-10-2.17c.56-2.42,4-4.67,7.16-3.54m-11.35-2.82c.48-2.17,3.38-4.35,5.55-3.78m184-96.67c-11.43.16-6.6,18.51,3.22,14.81m-6.92-1.28c-2.25,3.7,2.09,9.58,6.92,6.12m-1.28.72c-3.38,5.63,8.69,14.25,13.52,5.39M561,376.9c.16,5.31,15.61,8.69,13.36-1.93m-1.45,5.79c3.7,6.28,17.55,6.92,16.1-2.42m-3.06,6.45c2.9,4.18,16.42,6.76,15.94-1.93m-70.84-51c1.93,5,8.53,6.76,15.78,3.86m-20-.32c4.51,2.9-2.09,16.1-9,10.79m9-2.58c5,2.42,11.11.64,12.88-6.44m-3.06,5.47c.48,3.7,5.8,6.6,12.72,5.15m-25.12-1.28c6.44,5.47-2.9,16.74-7.08,11.59m9.5-7.41c3.06,2.25,10.95,1,11.75-5m-3.54,5c.65,3.86,3.7,5.31,8,5.47m-18-.16c3.22,4.51,11.27,5.8,14.81-.16m-3.55,3.38c-.32,4.35,4.51,7.89,9.5,6.92m-27,2.74c4.18,2.09,8.69-5.8,5.15-11.27m-.32,19.64c5,.32,5.63-7.24,1-11.43m10.46,18.35c4.19-1,2.9-10.14-7.25-10.95m20,17.72c4-1.13.8-11.27-10.3-10.62m25.6,14.17c2.73-4.18-6.28-11.27-13.68-7.57m21.24,13.36c5,1.45,8.37-11.75-7.4-9.66m16.58,9.66c4.35-1.13,7.41-9-5.31-6.44m15,7.09c3.86,1.93,5.63-9.34-6.12-6.28M524.4,365.79c4.83,2.74,12.4-.48,11.75-6.6m-1.93,5.32c1.61,2.9,1,8.53-2.09,10m2.57-3.22c3.22,1.29,7.57.16,10.14-5m-4.5,5c1,2.25,1.29,6.76-.81,9m1.62-5.15c3.54,1.93,7.72-.64,9.5-4.35M548.39,374c2.58,1.61,4.83,9.18.48,12.23m2.42-3.53c3.06.16,7.57.16,10.46-3.7m-2.09,2.09c2.74.8,6,5.31,4.83,9.34m.16-1.46c3.06-.32,8.37-2.42,9.82-6.12M573,385.27a8.29,8.29,0,0,1,4,8m0-2.58c3.06-.16,5.8-1.77,6.6-5.15m-.8,2.26c2.25.8,5,3.38,5.15,6.44m-.32-1.94c2.25-.32,3.86-1.77,5.31-4m6.12-.32c2.9,2.9-1,12.56-6.92,10.79m-54.9-205.9c-6,3.54-22.86,2.41-14.49-11.59m16.1,2.09c-11.75,4.67-26.24-4.35-11.11-14.17m-4-3.21c-9.82,0-16.42,15.78-3.22,21.25m-34.93-14.65c-2.58,5,6.6,10.46,12.88,5.47,4.86-3.87,4.5-14.33,1.61-18.35m-19.48,24.79c-3.22,10.62,20.45,11.27,16.74-5.63m-18,21.41c.8,8,22.7,5.47,15.61-10.79m2.58-4.51c1.77,2.41,6.6,6.6,14.81,5.79m-10.95-17.22c.73,2.9,5.63,5.15,11.91,3m-231.56,242c-5.55,3.95,3,10.14,6.12,3.3m-10.47-.24c-5.55,3.94,3,10.14,6.12,3.3m-10.71-.32c-5.55,3.95,3,10.14,6.12,3.3M268,427.29c-5.31,2.82.89,9.74,6.28,3.62m-11.51-1c-5.31,2.81.89,9.74,6.28,3.62m20.69-11.92c-.08,4.1,7.73,5.8,10.54-.33m-5.63,4.12c-2.42,3.06,2,6.84,4.43,5.47m-14.82-6c-.24,3.46,6.52,5.48,9.82,1.69m-6.11,1.94c-2.17,2.82,2.09,6.6,4.83,5.47m-13-6c.24,2.74,4.1,5.88,8.29,4.1m-5.8-.4c-1.61,1.45-.8,4.83,1.45,5.88m-9.82-6.12c-.64,2.5,3.62,6.92,8,4m-7.09-1.12c-2.58,2-2.25,5.07,1,5.47M268.53,434c-.32,1.69,1.85,4.42,4.59,4.1m-18.36-4.26c-2.57,1.37,4,8.37,8.13,1.85m-14.49,1c-3.22,1.53,4.75,9.26,8.29,1.37m12.56-1.69c-2.5.56-4.11,4.19-2,5.63m-6.12-4.34c-.32,1.45,2.74,3.86,5.23,3M259,438.4c-2.42,1.53-1.13,5.79,1.69,5.15m-10.3-2.34c-2.25,1.69-.73,5.07,2.41,4.27m1.69-4.51c.08.88,2.09,2.25,3.78,1.69m-15.69-3.14c-2.82,1.21-2.65,8.29,6.84,4.43m-13.2-1.61c-3.95,1.93-2.66,7.25,6,2.17m.72.41c-1,.8-2.17,4.35,1.77,3m-9-1.3c-1.61,1.45-.56,4.43,3,3.3m-11.27-2.81c-2.9,1.69,3.46,3.95,7.73-.56m-5.8,2.65c-1.29,1.29-1.29,5.07,2.09,3.7m-10.3-2.17c-1.93,1.45,1.37,3.38,7.4.73m-5,1.36c-2.25,1.85-2,4.18,1.29,3.46m-8-2.41c-2.49,2.25,1.13,3.78,5.47,1.93m-5.39.57c-4.27,1.93-2.41,5.47.24,4.1m142.23,8.21c-1,2.13,2.25,3.86,5.31,3.38s5.75-2.88,3.54-6.28m.16,4.19c2.9,2.25,8-.32,8-3.7" style="fill:none;stroke:#000;stroke-width:0.5210000276565552px"/><path d="M546,128.83c-12.88-6.44-39.6-18.35-47.17-8.69,6.92-2.9,27.2.16,43.95,15.61l3.22-6.92Z" style="fill:#fff;stroke:#000;stroke-width:0.5210000276565552px"/><path d="M553.78,128.15c-14.89-17.35-23.66-13.46-34.37-19.44-10.06-5.61-26.08-6.76-29.18,2.17,14.7-7.16,28.19,3.85,36.48,5.18,11.38,1.83,17.81,10.63,21.14,14.68l5.94-2.58Zm56.1-2.22c-7.73-17.71-24.25-13.08-31.55-20.61-10.62-10.95-37.5-21.09-48.61-13.52,24.47-1.29,34.89,16.86,48,23.18,9.34,4.51,19.32,14.17,32.2,10.95Z" style="fill:#fff;stroke:#000;stroke-width:0.5210000276565552px"/><path d="M580.91,124c-13.2-16.42-33.49-30.91-42.82-25.43,12.23.64,16.1,9.18,24.79,14.65S567.71,126.58,580.91,124Zm-62.79,29c-13.85-5.15-40.89-7.73-53.45,8.05C485.6,164.57,517.15,162.64,518.12,153Z" style="fill:#fff;stroke:#000;stroke-width:0.5210000276565552px"/><path d="M515.55,159.1c-13.85-6.44-24.66,2.55-37.67,1.29-24.79-2.41-42.5-1-44.75,10.95,14.17-12.72,38-2.25,47.65-4.83s45.4-.32,56.66,4.51C531.65,163.93,522.63,162,515.55,159.1ZM559,122.23c-3.22-10.62-3.06-21.89,12.88-21.09-4-5-18.83-7.57-21.25,11.11-17.55-12.88-36.7-15.13-40.24-4,9-7.73,23-2.09,39.76,16.9a29.74,29.74,0,0,1,8.85-2.9Z" style="fill:#fff;stroke:#000;stroke-width:0.5210000276565552px"/><path d="M534.87,136.88c-10-6.44-23.5-16.9.16-21.09-10.14-5.47-25-3.06-23.34,15.62-27-10.95-46.47-7.25-50.55,3.54-4.51,11.91,12.24,18.51,15.13,10.95-3.06,1.29-13.52-2.25-8-9s33.52-1.68,60.21,12.24c7.4,3.86,32.84,3.22,6.44-12.24Z" style="fill:#fff;stroke:#000;stroke-width:0.5210000276565552px"/><path d="M527.78,154.59c-7.7-15.72-32.68-1.45-37.71-16.68C483.19,160.22,525.59,147.88,527.78,154.59Zm158.89,17.06c5.24,2.6,9.77-1.49,1.75-4.7,5.24,2.6,9.81-1.39,1.8-4.6,5.24,2.6,9.81-1.39,1.8-4.6C689.89,159.9,686.83,167.79,686.67,171.65Zm2.73-30.26c11.59-12.23-1-16.42,13.2-29,11.59-10.27,2.21-17.12,13.2-25.11,3.54-2.57,11.27-7.73,11.91-12.88,4.67,11.59-14.49,13.2-13.2,31.87.82,11.89-7.22,10.85-10.3,30.91-.65,4.18-3.54,13.52-14.81,4.18Z" style="fill:#fff;stroke:#000;stroke-width:0.5210000276565552px"/><path d="M694.56,146.86c6.44-13.84,13.83-13.58,17.38-19,6.76-10.3,21.09,1.77,33.16-7.4-2.09,13-18.35,8.37-25.43,16.74s-12.88,12.24-25.11,9.66Z" style="fill:#fff;stroke:#000;stroke-width:0.5210000276565552px"/><path d="M696.17,151.37c11.27-9,19.58-3,27.37-7.73,19.64-11.91,27.53,2.41,45.08-3.22-4.67,11.27-30.59,1.61-41.85,10S675.89,166.82,696.17,151.37ZM663.33,215.6c-.16-5.15-5-11.75-11.75-12.56s-9.66-7.89-14.81-8.21-8.53-10.62-15.62-10.46-10,9.34,6.6,17.71,34.93,18,35.58,13.52Zm-20.93,4.35c-7.08.32-8,10.63-14.81,10.95,9.33,5,16.1-2.25,20.92-8.69L642.4,220Z" style="fill:#fff;stroke:#000;stroke-width:0.5210000276565552px"/><path d="M648.2,221.23c-6.12,5.15-7.89,15.94,1,19-5.31-7.32,9.34-10.62,4.83-17.39l-5.8-1.61Z" style="fill:#fff;stroke:#000;stroke-width:0.5210000276565552px"/><path d="M654.31,221.56c-4.83,9.34,7.57,10.46,4.35,17.55,7.08-1.61,8.21-15,1.77-18.51Z" style="fill:#fff;stroke:#000;stroke-width:0.5210000276565552px"/><path d="M607,201.59c11.59-.64,22.19,5.63,29.3,15.78,4.51,6.44,19.64,9,24.79,3.86s2.25-16.1-10.62-12.56c-3.22-5.47-12.56-3.54-17.06-8s-21.9-17.38-26.4,1Z" style="fill:#fff;stroke:#000;stroke-width:0.5210000276565552px"/><path d="M650.45,208.68c-3.06.64-4,6-2.1,8.69m8.7-5.47c1,1.61.32,3.86-.16,5m-31.55-14.81c6,.32,7.08,4.67,13.52,6.28" style="fill:#fff;stroke:#000;stroke-linecap:round;stroke-width:0.5210000276565552px"/><path d="M621.4,187.43c20.57,5.15,36.89,9.66,47,15.45s25.79,7.4,39.5,3.54,40.15-7.4,38.85,9.66c7.19-8.53-2-17.71-20.24-19.32.33-8.37-8.63-15.94-15.07-10.95,6-.8,11.1,10.3-.65,14.81,2.28-8.37-6-15.94-14.69-12.23,5.55,1.61,11.16,10.92-1.25,14.49-7.84,2.25-19.26-.64-27.75-5.79S611,173.26,621.4,187.43Z" style="fill:#fff;stroke:#000;stroke-width:0.5210000276565552px"/><path d="M673.31,179.06c-6.44,2.9-2.25,9.66-12.23,13.52s-16.9,12.72-14.65,20.28c6.76-14.81,18.67-14.17,22.86-20s10.3-14.33,4-13.84Z" style="fill:#fff;stroke:#000;stroke-width:0.5210000276565552px"/><path d="M675.08,180c-.32,11.75-9.57,7.47-6,24,1.13,5.15,3.22,13.52-.32,21.89,10.38-7.57,3.7-23.46,8.37-29.46,2.26-2.9,5.15-7.4,6.28-11.27-2.42,6.76-2.25,19.32,4.35,22.54-5.31-12.56,14.33-22.86.8-37.35-1.93,3.54-8,9.82-13.52,9.66Zm-32.84-11.75c1.61,2.41,3.22,8.53,1.77,11.91,3.22-1.93,7.89-6.92,9.34-10.3,6.6,1,9.17,9.18,2.9,12.72,3.86,0,10.46,0,14.16-4.35-4.5-5-18.51-12.72-28.17-10Z" style="fill:#fff;stroke:#000;stroke-width:0.5210000276565552px"/><path d="M542.11,145.18c-1-.95-2.8-1.85-6-2.5-9.75-2-4.71-10.78,3.58-10.71,17.7-19.32,27.65-4.43,49.22-10.54,7.55-2.14,12.73-1.51,16.85.27,9.66-6.44,21-4.64,29.2,2.93a6.6,6.6,0,0,1,3.86-3c7.56-2.1,13.68,4.35,15.77,12.72,5.9-1.09,12.63,1.82,17.06,5.85,6.13-3.15,10.36-3.29,11.91-.05,5.47-2.57,12.57-4.19,16.11,4.5s-8.37,6.12-10.3,24.47c-1.19,11.32-13.84,15.77-23.83,9-16-10.82-31.55-12.56-39.28,3.86s-13.78,26-32.52,20.6c-6.76-1.93-15.45.64-20.92,8S559,211.1,549,211.9c12.55-1.93,7.75-5.09,18.67-5.79,10-.64,7.41-10,13.84-11.27-25.11,6.44-24.15-2.9-44.75,3.54,9-11.59,23.18-5.15,30.26-11.91-18.67-.32-27-12.52-35.42-7.4-13.2,8.05-7.41,31-41.85,29-16.74-1-27.37,1.29-37.35,11.27,17.39-36.06,41-16.25,52.48-27.69,6.76-6.76,11.91-11.91,15.45-18.35a7.64,7.64,0,0,1,5-4.06c-28.65-9-11.33-23.06,16.69-24Z" style="fill:#fff;stroke:#000;stroke-width:0.5210000276565552px"/><path d="M683.59,140.11a8.13,8.13,0,0,1,.66,3.53c0,7.08-10.62,7.4-11.27,17.87-.34,5.47-1,8.53-4.67,7.89s-6.92-6.44-3.38-13.2" style="fill:#fff;stroke:#000;stroke-linecap:round;stroke-width:0.5210000276565552px"/><path d="M547.42,134.63A13.62,13.62,0,0,0,539.7,132m66-10.32c8.53,3.69,12.68,12.55,25.07,13,11.92.42,19.32,17.71,39.28,6.44q.81-.46,1.58-.85M635,124.63c-1.78,2.83-2.18,6.78-1.7,10.24M596,161c-15.13,0-19,7.73-19,15.13s7.08,17.06,19.64,17.06S616,185.5,616,177.13,608.27,161,596,161Z" style="fill:#fff;stroke:#000;stroke-width:0.5210000276565552px"/><path d="M598.77,192.9c-.32-4.18-7.89-3.54-7.57-6.76s4.19-4.51,4.19-9,6.76-4.83,9-1.29,9,10.46,10.47,6.92m-10.46-6.92a12.37,12.37,0,0,0-.48,16.42m5.31-10.95c-1.12,2.41-1.45,6.12-.16,8.37" style="fill:#fff;stroke:#000;stroke-width:0.5210000276565552px"/><path d="M669.36,169.48c11.83,1,13.85-12.07,5-12.88M654.8,134.31c-4.1-5.23-13.52-7-13.68,4.1" style="fill:none;stroke:#000;stroke-width:0.5210000276565552px"/><path d="M640,151.05c-4-10-14.33-11.43-19.8-6.44-4.55,4.15-4.67,15,5.15,17.23,3.38-4,10-9.34,14.65-10.79Zm-4.43-6.28c-5.8-5.15-14.33,4.59-6.6,13.52M525.31,169.16c3.88-.92,9.55,1,18.25,5.07,5.47,2.58,21.9,8.05,32.2,2.58-10.62,3.86-18.67-12.24-26.72-10.3s-22.78,4.91-29-1c15.13,1,23.27-11,40.56-.64,4.83,2.9,11,4.83,16.42,4.51-14.16-17.06-32.84-6.12-34.77-20,8.53,9.18,29.38-2.09,40,15.13M545.33,152c-2-2.48-1.09-4.95-3.23-6.9" style="fill:#fff;stroke:#000;stroke-width:0.5210000276565552px"/><path d="M654.8,134.31c-3.54-3.78-11.27-.8-9.1,6.84C647.4,137.61,651,134.63,654.8,134.31Zm-21.89,20.62A26.43,26.43,0,0,1,640,151a15.54,15.54,0,0,0-4.76-6.53C633.39,143.24,628.09,150.36,632.91,154.93Z"/><path d="M623.4,141.87c-5.8-3.86-11.11-3.54-12.88-.32-4.18-.16-7.65,2.9-7.81,9m8.94,2.58c-6.92-4.75-16.42-3-15.78,7.65m-4.18,6c3.38-2.74,8.21-4.67,11.91.16m39.77-10.62c-1.29,1.77-2.25,4.51-.16,8.69-2.58-3.38-9-3.38-15.94,5.63m31.39-14.81c-8.37,1-8.21,6.44-1.45,8.85m-58.11-29.3c-7.08-1.45-12.23,2.74-2.41,6.28m15.93-11.11c-10-2.41-14,.16-9.5,2.41M583.8,170.69c-.32,3.54,1.61,8.21,7.4,2.9m-5.46,7.72a4.66,4.66,0,0,1-.81,2.9m-22.38-50.07c-6.12-1.77-7.24-7.4-.16-6.92m-1.93,20c-6.76-2.25-6.76-8.85-1.13-8.21M573,143.8c-7.89-1.93-8.21-7.4-2.25-6.6M574,127.06c-4.18-.32-10.62,4.35.16,7.08m11.6,2.26c-9.82-1.45-9.66,2.58-3.87,5.15m11.27-14.49c-7.57-1.45-10.14,3.06-5,5m-18.83,22.86c-1.85-1.53-3.38-8.85,5.47-6.68m12.88,4.43c-6-1.61-11.59,4.18-6.12,7.57m14-14.49c-6.28-1.13-11.59.64-8.21,2.9" style="fill:none;stroke:#000;stroke-linecap:round;stroke-width:0.5210000276565552px"/><path d="M654.46,134.31a12,12,0,0,0-8.76,6.84" style="fill:#fff;stroke:#000;stroke-width:0.5210000276565552px"/></svg>