<svg xmlns="http://www.w3.org/2000/svg" viewBox="0 0 800 400"><title>Bosnia_and_Herzegovina_Final</title><rect width="800" height="400" style="fill:#002395"/><path d="M212,0H612V400Z" style="fill:#fecb00"/><path d="M167.66,76.24,190,7.5l22.34,68.74L153.86,33.76h72.28Z" style="fill:#fff"/><path d="M217.66,126.24,240,57.5l22.34,68.74L203.86,83.76h72.28Z" style="fill:#fff"/><path d="M267.66,176.24,290,107.5l22.34,68.74-58.48-42.49h72.28Z" style="fill:#fff"/><path d="M317.66,226.24,340,157.5l22.34,68.74-58.48-42.49h72.28Z" style="fill:#fff"/><path d="M367.66,276.24,390,207.5l22.34,68.74-58.48-42.49h72.28Z" style="fill:#fff"/><path d="M417.66,326.24,440,257.5l22.34,68.74-58.48-42.49h72.28Z" style="fill:#fff"/><path d="M467.66,376.24,490,307.5l22.34,68.74-58.48-42.49h72.28Z" style="fill:#fff"/><polygon points="126.19 0 117.66 26.24 140 10.01 162.34 26.24 153.81 0 126.19 0" style="fill:#fff"/><polygon points="553.8 399.98 576.14 383.75 548.53 383.75 540 357.5 531.47 383.75 503.86 383.75 526.2 399.98 526.19 400 553.81 400 553.8 399.98" style="fill:#fff"/></svg>