<svg xmlns="http://www.w3.org/2000/svg" viewBox="0 0 600 300"><title>British_Indian_Ocean_Territory_Final</title><path d="M0,0H600V300H0Z" style="fill:#fff"/><path d="M600,260.88c-6.72,4-12.5,13.5-30.36,13.5-35.71,0-44.64-19.9-71.43-19.9-17.86,0-26.79,19.9-44.64,19.9-35.71,0-44.64-19.9-71.43-19.9-17.86,0-26.79,19.9-44.64,19.9-35.71,0-44.64-19.9-71.43-19.9-17.86,0-26.79,19.9-44.64,19.9-35.71,0-44.64-19.9-71.43-19.9-17.86,0-26.79,19.9-44.64,19.9-35.71,0-44.64-19.9-71.43-19.9-17.86,0-23.22,14.18-33.93,14.18v25.62c10.71,0,16.07-14.18,33.93-14.18,26.78,0,35.71,19.9,71.43,19.9,17.86,0,26.79-19.9,44.64-19.9,26.79,0,35.71,19.9,71.43,19.9,17.86,0,26.79-19.9,44.64-19.9,26.79,0,35.71,19.9,71.43,19.9,17.86,0,26.79-19.9,44.64-19.9,26.79,0,35.71,19.9,71.43,19.9,17.86,0,26.79-19.9,44.64-19.9,26.79,0,35.72,19.9,71.43,19.9,17.86,0,23.64-5.64,30.36-9.68Z" style="fill:#012169"/><path d="M600,211.13c-6.72,4-12.5,13.5-30.36,13.5-35.71,0-44.64-19.9-71.43-19.9-17.86,0-26.79,19.9-44.64,19.9-35.71,0-44.64-19.9-71.43-19.9-17.86,0-26.79,19.9-44.64,19.9-35.71,0-44.64-19.9-71.43-19.9-17.86,0-26.79,19.9-44.64,19.9-35.71,0-44.64-19.9-71.43-19.9-17.86,0-26.79,19.9-44.64,19.9-35.71,0-44.64-19.9-71.43-19.9-17.86,0-23.22,14.18-33.93,14.18v25.62c10.71,0,16.07-14.18,33.93-14.18,26.78,0,35.71,19.9,71.43,19.9,17.86,0,26.79-19.9,44.64-19.9,26.79,0,35.71,19.9,71.43,19.9,17.86,0,26.79-19.9,44.64-19.9,26.79,0,35.71,19.9,71.43,19.9,17.86,0,26.79-19.9,44.64-19.9,26.79,0,35.71,19.9,71.43,19.9,17.86,0,26.79-19.9,44.64-19.9,26.79,0,35.72,19.9,71.43,19.9,17.86,0,23.64-5.64,30.36-9.68Z" style="fill:#012169"/><path d="M600,161.37c-6.72,4-12.5,13.5-30.36,13.5-35.71,0-44.64-19.9-71.43-19.9-17.86,0-26.79,19.9-44.64,19.9-35.71,0-44.64-19.9-71.43-19.9-17.86,0-26.79,19.9-44.64,19.9-35.71,0-44.64-19.9-71.43-19.9-17.86,0-26.79,19.9-44.64,19.9-35.71,0-44.64-19.9-71.43-19.9-17.86,0-26.79,19.9-44.64,19.9-35.71,0-44.64-19.9-71.43-19.9C16.07,155,10.71,169.15,0,169.15v25.62c10.71,0,16.07-14.18,33.93-14.18,26.78,0,35.71,19.9,71.43,19.9,17.86,0,26.79-19.9,44.64-19.9,26.79,0,35.71,19.9,71.43,19.9,17.86,0,26.79-19.9,44.64-19.9,26.79,0,35.71,19.9,71.43,19.9,17.86,0,26.79-19.9,44.64-19.9,26.79,0,35.71,19.9,71.43,19.9,17.86,0,26.79-19.9,44.64-19.9,26.79,0,35.72,19.9,71.43,19.9,17.86,0,23.64-5.64,30.36-9.68Z" style="fill:#012169"/><path d="M600,111.62c-6.72,4-12.5,13.5-30.36,13.5-35.71,0-44.64-19.9-71.43-19.9-17.86,0-26.79,19.9-44.64,19.9-35.71,0-44.64-19.9-71.43-19.9-17.86,0-26.79,19.9-44.64,19.9-35.71,0-44.64-19.9-71.43-19.9-17.86,0-26.79,19.9-44.64,19.9-35.71,0-44.64-19.9-71.43-19.9-17.86,0-26.79,19.9-44.64,19.9-35.71,0-44.64-19.9-71.43-19.9C16.07,105.22,10.71,119.4,0,119.4V145c10.71,0,16.07-14.18,33.93-14.18,26.78,0,35.71,19.9,71.43,19.9,17.86,0,26.79-19.9,44.64-19.9,26.79,0,35.71,19.9,71.43,19.9,17.86,0,26.79-19.9,44.64-19.9,26.79,0,35.71,19.9,71.43,19.9,17.86,0,26.79-19.9,44.64-19.9,26.79,0,35.71,19.9,71.43,19.9,17.86,0,26.79-19.9,44.64-19.9,26.79,0,35.72,19.9,71.43,19.9,17.86,0,23.64-5.64,30.36-9.68Z" style="fill:#012169"/><path d="M600,61.87c-6.72,4-12.5,13.5-30.36,13.5-35.71,0-44.64-19.9-71.43-19.9-17.86,0-26.79,19.9-44.64,19.9-35.71,0-44.64-19.9-71.43-19.9-17.86,0-26.79,19.9-44.64,19.9-35.71,0-44.64-19.9-71.43-19.9-17.86,0-26.79,19.9-44.64,19.9-35.71,0-44.64-19.9-71.43-19.9-17.86,0-26.79,19.9-44.64,19.9-35.71,0-44.64-19.9-71.43-19.9C16.07,55.46,10.71,69.64,0,69.64V95.27c10.71,0,16.07-14.18,33.93-14.18,26.78,0,35.71,19.9,71.43,19.9,17.86,0,26.79-19.9,44.64-19.9,26.79,0,35.71,19.9,71.43,19.9,17.86,0,26.79-19.9,44.64-19.9,26.79,0,35.71,19.9,71.43,19.9,17.86,0,26.79-19.9,44.64-19.9,26.79,0,35.71,19.9,71.43,19.9,17.86,0,26.79-19.9,44.64-19.9,26.79,0,35.72,19.9,71.43,19.9,17.86,0,23.64-5.64,30.36-9.68Z" style="fill:#012169"/><path d="M600,12.11c-6.72,4-12.5,13.5-30.36,13.5-35.71,0-44.64-19.9-71.43-19.9-17.86,0-26.79,19.9-44.64,19.9-35.71,0-44.64-19.9-71.43-19.9-17.86,0-26.79,19.9-44.64,19.9-35.71,0-44.64-19.9-71.43-19.9-17.86,0-26.79,19.9-44.64,19.9-35.71,0-44.64-19.9-71.43-19.9-17.86,0-26.79,19.9-44.64,19.9-35.71,0-44.64-19.9-71.43-19.9C16.07,5.71,10.71,19.89,0,19.89V45.51c10.71,0,16.07-14.18,33.93-14.18,26.78,0,35.71,19.9,71.43,19.9,17.86,0,26.79-19.9,44.64-19.9,26.79,0,35.71,19.9,71.43,19.9,17.86,0,26.79-19.9,44.64-19.9,26.79,0,35.71,19.9,71.43,19.9,17.86,0,26.79-19.9,44.64-19.9,26.79,0,35.71,19.9,71.43,19.9,17.86,0,26.79-19.9,44.64-19.9,26.79,0,35.72,19.9,71.43,19.9,17.86,0,23.64-5.64,30.36-9.68Z" style="fill:#012169"/><path d="M0,0H300V150H0Z" style="fill:#012169"/><path d="M0,0V16.77L266.46,150H300V133.23L33.54,0ZM300,0V16.77L33.54,150H0V133.23L266.46,0Z" style="fill:#fff"/><path d="M125,0V150h50V0ZM0,50v50H300V50Z" style="fill:#fff"/><path d="M0,60V90H300V60ZM135,0V150h30V0ZM0,150l100-50h22.36l-100,50ZM0,0,100,50H77.64L0,11.18ZM177.64,50l100-50H300L200,50ZM300,150,200,100h22.36L300,138.82Z" style="fill:#c8102e"/><path d="M446.52,79.22l-2.07,204.16c-.28,11.59,10.34,11.63,10.34,0L452.73,79.22Z" style="fill:#a24300;stroke:#000;stroke-width:0.75px"/><path d="M468.57,155.18l-6.74-7.4-1.66,7.47-2.93-10.82-2.74,5.45L454,138.36l-2.74,5.45-.48-11.52L448,137.73l-1.56-13.55-2.74,5.45-1.56-13.55-2.74,5.45L437.89,108l-.78-6.77,1.37-2.73L442,99.82l5.67,5.37L459,115.94l-7-2.65L463.3,124l-7-2.65,11.33,10.75-7-2.65,10.26,8.72-7-2.65L474,144.28l-7-2.65,7.82,9.42-8.11-4.67Z" style="fill:#006d00;stroke:#000;stroke-width:0.890531px"/><path d="M468.57,155.18,438.48,98.49" style="fill:none;stroke:#000;stroke-width:0.2px"/><path d="M459,115.94l-16.22-9.35-3.33,14.95" style="fill:none;stroke:#000;stroke-width:0.2px"/><path d="M463.3,124l-16.22-9.35-3.33,14.95" style="fill:none;stroke:#000;stroke-width:0.2px"/><path d="M467.6,132.13l-16.22-9.35L448,137.73" style="fill:none;stroke:#000;stroke-width:0.2px"/><path d="M470.82,138.21l-15.15-7.32-4.4,12.92" style="fill:none;stroke:#000;stroke-width:0.2px"/><path d="M474,144.28,458.9,137l-4.4,12.92" style="fill:none;stroke:#000;stroke-width:0.2px"/><path d="M474.83,151.05,461,141l-.88,14.25" style="fill:none;stroke:#000;stroke-width:0.2px"/><path d="M389.6,58.56l11,4.2-3.2-8.32L407,63.92l-.91-6.8,7.78,11.36-.91-6.8L420.78,73l-.91-6.8,10.08,12.88-.91-6.8,10.07,12.88-.91-6.8,10.08,12.88,5,6.44.45,3.4-4.13.36-8.71-2.68L423.5,93.44l8.26-.72-17.43-5.36,8.26-.72-17.43-5.35,8.26-.72-15.13-3.83,8.26-.72-15.13-3.83,8.26-.72-13.3-5.72,10.55.8Z" style="fill:#006d00;stroke:#000;stroke-width:0.890531px"/><path d="M389.6,58.56l64.17,42.55" style="fill:none;stroke:#000;stroke-width:0.2px"/><path d="M423.5,93.44,444.6,95l-6.4-16.64" style="fill:none;stroke:#000;stroke-width:0.2px"/><path d="M414.34,87.36,435.44,89,429,72.31" style="fill:none;stroke:#000;stroke-width:0.2px"/><path d="M405.17,81.29l21.1,1.59-6.4-16.64" style="fill:none;stroke:#000;stroke-width:0.2px"/><path d="M398.29,76.73l18.81.07L413,61.67" style="fill:none;stroke:#000;stroke-width:0.2px"/><path d="M391.42,72.17l18.81.07-4.11-15.12" style="fill:none;stroke:#000;stroke-width:0.2px"/><path d="M386.38,65.73l19.26,3.47-8.24-14.76" style="fill:none;stroke:#000;stroke-width:0.2px"/><path d="M517.52,72.77l-9.17,6.71,10.12,1.13L504.36,84l7.53,2.24L496.6,87.3l7.53,2.24-15.29,1.11,7.53,2.24-17.87,2.23L486,97.36l-17.88,2.23,7.53,2.24-17.88,2.23-8.94,1.11L445.09,104l1.41-3.35,6.58-5.59,13.16-11.18-2.82,6.71,13.16-11.18-2.82,6.71L486.94,75l-2.82,6.71L494.7,71.64l-2.82,6.71,10.58-10.06L499.64,75l11.75-7.82L506,75Z" style="fill:#006d00;stroke:#000;stroke-width:0.890531px"/><path d="M517.52,72.77,445.09,104" style="fill:none;stroke:#000;stroke-width:0.2px"/><path d="M466.25,83.93,455.44,99.58l20.23,2.25" style="fill:none;stroke:#000;stroke-width:0.2px"/><path d="M476.59,79.46,465.79,95.11,486,97.36" style="fill:none;stroke:#000;stroke-width:0.2px"/><path d="M486.94,75,476.13,90.65l20.23,2.25" style="fill:none;stroke:#000;stroke-width:0.2px"/><path d="M494.7,71.64l-8.22,14.54,17.65,3.37" style="fill:none;stroke:#000;stroke-width:0.2px"/><path d="M502.46,68.29l-8.22,14.54,17.64,3.37" style="fill:none;stroke:#000;stroke-width:0.2px"/><path d="M511.4,67.18l-12,13.42h19.05" style="fill:none;stroke:#000;stroke-width:0.2px"/><path d="M516,140.5l-11.41-3.31,4.08,8-10.6-8.68,1.63,6.7-9-10.7,1.63,6.7-9-10.7,1.63,6.7-11.42-12,1.63,6.7-11.42-12,1.63,6.7-11.41-12-5.71-6-.82-3.35,4.07-.69,9,2,17.93,4-8.15,1.38,17.93,4-8.15,1.38,17.93,4-8.14,1.38,15.48,2.62-8.15,1.38,15.48,2.62-8.15,1.38,13.85,4.64-10.59,0Z" style="fill:#006d00;stroke:#000;stroke-width:0.890531px"/><path d="M516,140.5l-68.47-37.28" style="fill:none;stroke:#000;stroke-width:0.2px"/><path d="M478.53,108.46l-21.18.09,8.16,16.07" style="fill:none;stroke:#000;stroke-width:0.2px"/><path d="M488.31,113.78l-21.18.09,8.16,16.07" style="fill:none;stroke:#000;stroke-width:0.2px"/><path d="M498.09,119.11l-21.18.09,8.16,16.07" style="fill:none;stroke:#000;stroke-width:0.2px"/><path d="M505.42,123.1l-18.74,1.42,5.71,14.73" style="fill:none;stroke:#000;stroke-width:0.2px"/><path d="M512.76,127.1,494,128.52l5.71,14.74" style="fill:none;stroke:#000;stroke-width:0.2px"/><path d="M518.47,133.11l-19.55-1.93,9.79,14" style="fill:none;stroke:#000;stroke-width:0.2px"/><path d="M397.16,144.46l5.73-8-8.73,1.26,10.79-6.12-6.9-.31,12.4-4.4-6.9-.31,12.4-4.4-6.9-.31,14.24-6-6.9-.31,14.24-6-6.9-.31,14.24-6,7.12-3,3.45.16-.22,3.29-3.89,6.44-7.78,12.87.44-6.59-7.78,12.87.44-6.59L422,135.66l.44-6.59-5.95,11.3.44-6.59L411,145.08l.44-6.59-7.56,9.58,2.28-8.16Z" style="fill:#006d00;stroke:#000;stroke-width:0.890531px"/><path d="M397.16,144.46l51.38-44" style="fill:none;stroke:#000;stroke-width:0.2px"/><path d="M436.64,123.1l4.55-16.32-17.47,2.52" style="fill:none;stroke:#000;stroke-width:0.2px"/><path d="M429.3,129.38l4.55-16.32-17.47,2.52" style="fill:none;stroke:#000;stroke-width:0.2px"/><path d="M422,135.66l4.55-16.32-17.47,2.52" style="fill:none;stroke:#000;stroke-width:0.2px"/><path d="M416.46,140.37l2.72-14.75-15.63,1" style="fill:none;stroke:#000;stroke-width:0.2px"/><path d="M411,145.08l2.72-14.75-15.63.95" style="fill:none;stroke:#000;stroke-width:0.2px"/><path d="M403.83,148.07l6.17-14.6-15.85,4.25" style="fill:none;stroke:#000;stroke-width:0.2px"/><path d="M501,38.94l-11.07,7.41-1.82-7.95-6.53,11-1.17-5.29-5.34,11.27-.75-5.19-4.14,11.55-2.37-5.57-4.15,14.05-2.37-5.57-4.15,14.06-2.37-5.57L450.62,87.2l-2.08,7L449.72,97l4.44-1.46,7.71-5.7,15.41-11.4-8.89,2.91L483.8,70l-8.89,2.91,15.41-11.4-8.89,2.91,15.4-8.9L486.32,58l16.59-8.61-10.09,2.63L505,42.39l-10.52,5Z" style="fill:#006d00;stroke:#000;stroke-width:0.667149px"/><path d="M496.69,42.94l-16,13.77-31,40.3" style="fill:none;stroke:#000;stroke-width:0.2px"/><path d="M473.9,80.16l-17.66,8.36-1.49-12.88" style="fill:none;stroke:#000;stroke-width:0.2px"/><path d="M480.69,71.74,462.76,80l-1.49-12.88" style="fill:none;stroke:#000;stroke-width:0.2px"/><path d="M487.07,63.23l-17.79,8.33-1.35-12.85" style="fill:none;stroke:#000;stroke-width:0.2px"/><path d="M492.37,57l-16.56,6.11-1.92-10.48" style="fill:none;stroke:#000;stroke-width:0.2px"/><path d="M498.47,50.88,480.7,56.71,480,46.52" style="fill:none;stroke:#000;stroke-width:0.2px"/><path d="M500.84,45.13,484.4,53.55l3.17-12.76" style="fill:none;stroke:#000;stroke-width:0.2px"/><path d="M441,25.06l4.94,11.29,6.38-6-1.1,12.3,4.21-4-2.29,12,3.79-4.09-3.48,11.71,5.4-3.69-5,13.85,5.4-3.69-5,13.85,5.4-3.69-5,13.85-2.5,6.93-2.7,1.85-2.91-3.24L443.46,86,437.24,69.4l5.81,6.47-6.22-16.63,5.81,6.47-6.22-16.63,5.81,6.47L434.5,41.05l7.42,6.87L433,33.13l7,6.77-4.51-13.69,5.92,9Z" style="fill:#006d00;stroke:#000;stroke-width:0.667149px"/><path d="M442.25,30.4l5.29,18.92,2,48.27" style="fill:none;stroke:#000;stroke-width:0.2px"/><path d="M439.09,72.37l10,15,9.09-10.32" style="fill:none;stroke:#000;stroke-width:0.2px"/><path d="M438.41,62.14l10.25,15.12,9.09-10.32" style="fill:none;stroke:#000;stroke-width:0.2px"/><path d="M438.13,52l10.12,15.08,9-10.35" style="fill:none;stroke:#000;stroke-width:0.2px"/><path d="M437.42,44.29l10.42,12.64,8-8.08" style="fill:none;stroke:#000;stroke-width:0.2px"/><path d="M435.91,36.37l11.63,12.94,6.78-8.38" style="fill:none;stroke:#000;stroke-width:0.2px"/><path d="M437.38,30.41,446.29,45l5-12.3" style="fill:none;stroke:#000;stroke-width:0.2px"/><path d="M374.65,108.11l14.46-10-7.24-3.73,12.66,2.16-4.35-5.73,12.31,4.6-4.35-5.73,12.31,4.6-4.35-5.74,14.84,5-4.35-5.74,14.48,7.46-4.35-5.73,14.84,5,7.24,3.73,2.18,2.87-2.89,2-8,1.14-12.84,5.3,2.35-4.59-15.91,2.27,5.78-4L403.24,108l5.78-4-13.74,5.14,6.14-6.44-14.1,7.58,6.14-6.44-11.57,8,6.5-8.87Z" style="fill:#006d00;stroke:#000;stroke-width:0.704538px"/><path d="M379.23,105.43,394.18,99l8-1.14,6.64-.11,11.45.71,10.32.45L451,101.18" style="fill:none;stroke:#000;stroke-width:0.2px"/><path d="M429.28,107.46l11.42-7L429.06,91.3" style="fill:none;stroke:#000;stroke-width:0.2px"/><path d="M416.45,106.41l14.09-7.54-11.64-9.14" style="fill:none;stroke:#000;stroke-width:0.2px"/><path d="M407.32,106.2l12.91-7.78-11.74-8.48" style="fill:none;stroke:#000;stroke-width:0.2px"/><path d="M390.21,108.27l11.92-10.45-9.61-5.28" style="fill:none;stroke:#000;stroke-width:0.2px"/><path d="M384.91,109l9.27-10-7.39-2.74" style="fill:none;stroke:#000;stroke-width:0.2px"/><path d="M398.17,107.14l11.77-9.42-9.45-6.4" style="fill:none;stroke:#000;stroke-width:0.2px"/><path d="M451.75,194.52h28.45a33,33,0,0,0,2.08-6.13,11.1,11.1,0,0,0-.28-5.07,10.64,10.64,0,0,0-2.68-5.08,10,10,0,0,0-4.91-2.66,11.48,11.48,0,0,0-4.93-.27c-2.73.61-4.51,1.57-7.48,2.58a20.8,20.8,0,0,1-6,1.11,16.08,16.08,0,0,1-4.29-.61Z" style="opacity:0.995;isolation:isolate"/><path d="M447.51,194.52H419.06a33,33,0,0,1-2.08-6.13,11.11,11.11,0,0,1,.28-5.07,10.64,10.64,0,0,1,2.68-5.08,10,10,0,0,1,4.91-2.66,11.48,11.48,0,0,1,4.93-.27c2.73.61,4.51,1.57,7.48,2.58a20.8,20.8,0,0,0,5.95,1.11,16.07,16.07,0,0,0,4.29-.61Z" style="opacity:0.995;isolation:isolate"/><path d="M445.76,220.32c-4,.05-8.06.14-12.06.41-3,.24-6.32.51-9.19,1l-.73.14c-1.81.38-2.06,2.7-1.11,4,1.93,2.62,13.41,4.65,27,4.65s25-2,26.95-4.65c1-1.27.7-3.59-1.11-4l-.73-.14c-2.86-.44-6.24-.72-9.19-1-4-.27-8-.36-12.06-.41h-7.73Z" style="fill:#fff"/><path d="M452.31,222.81a28.4,28.4,0,0,1-2.79-.63c-.76-.22-1.48-.46-2.18-.72a2.15,2.15,0,0,0,1.24,1,4.45,4.45,0,0,0-1.65.36,5,5,0,0,0,1.68.34,1.81,1.81,0,0,0-1.14,1c.62-.24,1.29-.46,2-.67A28.94,28.94,0,0,1,452.31,222.81Z"/><path d="M441.78,222.87a25.27,25.27,0,0,1-2.79-.55,22.72,22.72,0,0,1-2.19-.65,2,2,0,0,0,1.25,1,4.37,4.37,0,0,0-1.63.41,4.79,4.79,0,0,0,1.68.29,1.9,1.9,0,0,0-1.13,1c.62-.26,1.27-.51,2-.74A28.81,28.81,0,0,1,441.78,222.87Z"/><path d="M431.32,223.41a27.7,27.7,0,0,1-2.84-.34c-.78-.14-1.52-.29-2.22-.48a2,2,0,0,0,1.32.85,4.82,4.82,0,0,0-1.6.53,5.26,5.26,0,0,0,1.7.17,1.85,1.85,0,0,0-1,1.11c.6-.31,1.24-.62,1.92-.89A22.7,22.7,0,0,1,431.32,223.41Z"/><path d="M462.85,223c-1,.15-1.94.32-2.81.55a18.74,18.74,0,0,0-2.19.66,2,2,0,0,1,1.25-1,4.85,4.85,0,0,1-1.63-.41,5.18,5.18,0,0,1,1.68-.31,1.77,1.77,0,0,1-1.11-1c.62.27,1.27.51,2,.75A27.37,27.37,0,0,0,462.85,223Z"/><path d="M473.28,224a28,28,0,0,0-2.82.33c-.78.14-1.52.31-2.24.5a2.05,2.05,0,0,1,1.33-.85,4.81,4.81,0,0,1-1.62-.53,4.54,4.54,0,0,1,1.71-.17,1.88,1.88,0,0,1-1.06-1.11c.6.31,1.24.6,1.92.89C471.36,223.36,472.28,223.69,473.28,224Z"/><path d="M449.63,225.28c-16.16,0-25.95,1-25.14,1.78,5.67,2.55,16.82,3.37,25.14,3.38s19.46-.84,25.12-3.38C475.56,226.29,465.77,225.28,449.63,225.28Z" style="fill:#ccc"/><path d="M474.72,227.11c.14-.41-.49-.53-1.16-.61-2.59-.36-5.46-.6-8-.8-4-.27-8-.36-12.06-.41h-7.73c-4,.05-8.06.14-12.06.41-2.56.21-5.43.45-8,.8-.67.08-1.3.2-1.16.61" style="fill:none;stroke:#000;stroke-width:0.1232px"/><path d="M445.76,220.32c-4,.05-8.06.14-12.06.41-3,.24-6.32.51-9.19,1l-.73.14c-1.81.38-2.06,2.7-1.11,4,1.93,2.62,13.41,4.65,27,4.65s25-2,26.95-4.65c1-1.27.7-3.59-1.11-4l-.73-.14c-2.86-.44-6.24-.72-9.19-1-4-.27-8-.36-12.06-.41h-7.73Z" style="fill:none;stroke:#000;stroke-width:0.1232px"/><path d="M471.41,216.49l2-6.14.79-2.54,2-1.31,2-4.84.93-1.27.14-4.46s-1.37-3.17-3.48-4.3a15.65,15.65,0,0,0-7.13-1.4s-.95-2.7-2.69-3.76a10.67,10.67,0,0,0-5.7-1.31c-2,0-5.67,2-7.64,2.53-1,.3-3.33,1.31-3.33,1.31s-2.31-1-3.33-1.31c-2-.57-5.61-2.53-7.64-2.53a10.46,10.46,0,0,0-5.7,1.31,22.53,22.53,0,0,0-4,3.76A7.44,7.44,0,0,0,424,191a14.12,14.12,0,0,0-3.94,4.65l.16,4.88.36,1.87,1.49,1.85,1.95,3.73,1.4,3.68,1.49,4.81Z" style="fill:#c8102e"/><path d="M471.41,216.49l2-6.14.79-2.54,2-1.31,2-4.84.93-1.27.14-4.46s-1.37-3.17-3.48-4.3a15.65,15.65,0,0,0-7.13-1.4s-.95-2.7-2.69-3.76a10.67,10.67,0,0,0-5.7-1.31c-2,0-5.67,2-7.64,2.53-1,.3-3.33,1.31-3.33,1.31s-2.31-1-3.33-1.31c-2-.57-5.61-2.53-7.64-2.53a10.46,10.46,0,0,0-5.7,1.31,22.53,22.53,0,0,0-4,3.76A7.44,7.44,0,0,0,424,191a14.12,14.12,0,0,0-3.94,4.65l.16,4.88.36,1.87,1.49,1.85,1.95,3.73,1.4,3.68,1.49,4.81Z" style="fill:none;stroke:#000;stroke-width:0.483394px"/><path d="M473.91,173.81a12.13,12.13,0,0,1,6.13,3.4,13.89,13.89,0,0,1,3.36,6.32,14.71,14.71,0,0,1,.34,6.08,18.35,18.35,0,0,1-2.05,6l-3-.57a31.38,31.38,0,0,0,2-5.84,10.59,10.59,0,0,0-.26-4.83,10.16,10.16,0,0,0-2.55-4.84,9.53,9.53,0,0,0-4.68-2.53,10.91,10.91,0,0,0-4.7-.25c-2.6.58-4.29,1.49-7.12,2.46a19.82,19.82,0,0,1-5.67,1.06,15.3,15.3,0,0,1-4.09-.58c-1.37-.31-2.51-.64-2.51-.64l.77-3.18s1.09.31,2.38.61a20.2,20.2,0,0,0,3.28.51,16.3,16.3,0,0,0,4.92-.92,63.57,63.57,0,0,1,7.43-2.54A13.3,13.3,0,0,1,473.91,173.81Z" style="opacity:0.995;isolation:isolate"/><path d="M473.91,173.81a12.13,12.13,0,0,1,6.13,3.4,13.89,13.89,0,0,1,3.36,6.32,14.71,14.71,0,0,1,.34,6.08,18.35,18.35,0,0,1-2.05,6l-3-.57a31.38,31.38,0,0,0,2-5.84,10.59,10.59,0,0,0-.26-4.83,10.16,10.16,0,0,0-2.55-4.84,9.53,9.53,0,0,0-4.68-2.53,10.91,10.91,0,0,0-4.7-.25c-2.6.58-4.29,1.49-7.12,2.46a19.82,19.82,0,0,1-5.67,1.06,15.3,15.3,0,0,1-4.09-.58c-1.37-.31-2.51-.64-2.51-.64l.77-3.18s1.09.31,2.38.61a20.2,20.2,0,0,0,3.28.51,16.3,16.3,0,0,0,4.92-.92,63.57,63.57,0,0,1,7.43-2.54A13.3,13.3,0,0,1,473.91,173.81Z" style="fill:none;stroke:#000;stroke-width:0.235292px"/><path d="M482.12,192.1a1.64,1.64,0,1,0,1.64-1.79,1.72,1.72,0,0,0-1.64,1.79Z" style="fill:#fff;stroke:#000;stroke-width:0.353558px"/><path d="M482.9,187.86a1.64,1.64,0,1,0,1.64-1.79,1.72,1.72,0,0,0-1.64,1.79Z" style="fill:#fff;stroke:#000;stroke-width:0.353558px"/><path d="M482.67,183.38a1.64,1.64,0,1,0,1.64-1.79,1.72,1.72,0,0,0-1.64,1.79Z" style="fill:#fff;stroke:#000;stroke-width:0.353558px"/><path d="M481.07,179.13a1.64,1.64,0,1,0,1.64-1.79,1.72,1.72,0,0,0-1.64,1.79Z" style="fill:#fff;stroke:#000;stroke-width:0.353558px"/><path d="M478.08,175.8a1.64,1.64,0,1,0,1.64-1.79,1.72,1.72,0,0,0-1.64,1.79Z" style="fill:#fff;stroke:#000;stroke-width:0.353558px"/><path d="M474.34,173.61a1.64,1.64,0,1,0,1.64-1.79,1.72,1.72,0,0,0-1.64,1.79Z" style="fill:#fff;stroke:#000;stroke-width:0.353558px"/><path d="M470.08,172.46a1.64,1.64,0,1,0,1.64-1.79,1.72,1.72,0,0,0-1.64,1.79Z" style="fill:#fff;stroke:#000;stroke-width:0.353558px"/><path d="M465.7,172.69a1.64,1.64,0,1,0,1.64-1.79,1.72,1.72,0,0,0-1.64,1.79Z" style="fill:#fff;stroke:#000;stroke-width:0.353558px"/><path d="M453.86,176a1.64,1.64,0,1,0,1.64-1.79,1.72,1.72,0,0,0-1.64,1.79Z" style="fill:#fff;stroke:#000;stroke-width:0.353558px"/><path d="M461.54,174a1.64,1.64,0,1,0,1.64-1.79,1.72,1.72,0,0,0-1.64,1.79Z" style="fill:#fff;stroke:#000;stroke-width:0.353558px"/><path d="M457.7,175.22a1.64,1.64,0,1,0,1.64-1.79,1.72,1.72,0,0,0-1.64,1.79Z" style="fill:#fff;stroke:#000;stroke-width:0.353558px"/><path d="M425.34,173.81a12.13,12.13,0,0,0-6.13,3.4,13.9,13.9,0,0,0-3.36,6.32,14.74,14.74,0,0,0-.34,6.08,18.36,18.36,0,0,0,2.05,6l3-.57a31.32,31.32,0,0,1-2-5.84,10.55,10.55,0,0,1,.26-4.83,10.16,10.16,0,0,1,2.55-4.84A9.53,9.53,0,0,1,426,177a10.9,10.9,0,0,1,4.7-.25c2.61.58,4.3,1.49,7.13,2.46a19.82,19.82,0,0,0,5.67,1.06,15.31,15.31,0,0,0,4.09-.58c1.37-.31,2.51-.64,2.51-.64l-.77-3.18s-1.09.31-2.38.61a20.19,20.19,0,0,1-3.28.51,16.29,16.29,0,0,1-4.92-.92,63.59,63.59,0,0,0-7.43-2.54A13.29,13.29,0,0,0,425.34,173.81Z" style="opacity:0.995;isolation:isolate"/><path d="M425.34,173.81a12.13,12.13,0,0,0-6.13,3.4,13.9,13.9,0,0,0-3.36,6.32,14.74,14.74,0,0,0-.34,6.08,18.36,18.36,0,0,0,2.05,6l3-.57a31.32,31.32,0,0,1-2-5.84,10.55,10.55,0,0,1,.26-4.83,10.16,10.16,0,0,1,2.55-4.84A9.53,9.53,0,0,1,426,177a10.9,10.9,0,0,1,4.7-.25c2.61.58,4.3,1.49,7.13,2.46a19.82,19.82,0,0,0,5.67,1.06,15.31,15.31,0,0,0,4.09-.58c1.37-.31,2.51-.64,2.51-.64l-.77-3.18s-1.09.31-2.38.61a20.19,20.19,0,0,1-3.28.51,16.29,16.29,0,0,1-4.92-.92,63.59,63.59,0,0,0-7.43-2.54A13.29,13.29,0,0,0,425.34,173.81Z" style="fill:none;stroke:#000;stroke-width:0.235292px"/><path d="M417.13,192.1a1.64,1.64,0,1,1-1.64-1.79,1.72,1.72,0,0,1,1.64,1.79Z" style="fill:#fff;stroke:#000;stroke-width:0.353558px"/><path d="M416.34,187.86a1.64,1.64,0,1,1-1.64-1.79,1.72,1.72,0,0,1,1.64,1.79Z" style="fill:#fff;stroke:#000;stroke-width:0.353558px"/><path d="M416.58,183.38a1.64,1.64,0,1,1-1.64-1.79,1.72,1.72,0,0,1,1.64,1.79Z" style="fill:#fff;stroke:#000;stroke-width:0.353558px"/><path d="M418.18,179.13a1.64,1.64,0,1,1-1.64-1.79,1.72,1.72,0,0,1,1.64,1.79Z" style="fill:#fff;stroke:#000;stroke-width:0.353558px"/><path d="M421.17,175.8a1.64,1.64,0,1,1-1.64-1.79,1.72,1.72,0,0,1,1.64,1.79Z" style="fill:#fff;stroke:#000;stroke-width:0.353558px"/><path d="M424.9,173.61a1.64,1.64,0,1,1-1.64-1.79,1.72,1.72,0,0,1,1.64,1.79Z" style="fill:#fff;stroke:#000;stroke-width:0.353558px"/><path d="M429.17,172.46a1.64,1.64,0,1,1-1.64-1.79,1.72,1.72,0,0,1,1.64,1.79Z" style="fill:#fff;stroke:#000;stroke-width:0.353558px"/><path d="M433.55,172.69a1.64,1.64,0,1,1-1.64-1.79,1.72,1.72,0,0,1,1.64,1.79Z" style="fill:#fff;stroke:#000;stroke-width:0.353558px"/><path d="M445.39,176a1.64,1.64,0,1,1-1.64-1.79,1.72,1.72,0,0,1,1.64,1.79Z" style="fill:#fff;stroke:#000;stroke-width:0.353558px"/><path d="M437.71,174a1.64,1.64,0,1,1-1.64-1.79,1.72,1.72,0,0,1,1.64,1.79Z" style="fill:#fff;stroke:#000;stroke-width:0.353558px"/><path d="M441.55,175.22a1.64,1.64,0,1,1-1.64-1.79,1.72,1.72,0,0,1,1.64,1.79Z" style="fill:#fff;stroke:#000;stroke-width:0.353558px"/><path d="M445.63,167.86c.44-.61,1-1.06,1.41-1.67a6.46,6.46,0,0,0,1-2.29,5.88,5.88,0,0,0-2.15,1.07c-.57.46-1,1-1.55,1.52v-7.77c.56.48,1,1.05,1.55,1.52A5.88,5.88,0,0,0,448,161.3a6.46,6.46,0,0,0-1-2.29c-.43-.62-1-1.07-1.41-1.67h8c-.44.61-1,1.06-1.41,1.67a6.46,6.46,0,0,0-1,2.29,5.89,5.89,0,0,0,2.15-1.07c.57-.46,1-1,1.55-1.52v7.77c-.56-.48-1-1.05-1.55-1.52a5.89,5.89,0,0,0-2.15-1.07,6.46,6.46,0,0,0,1,2.29c.43.62,1,1.07,1.41,1.67Z" style="fill:#fed100;stroke:#000;stroke-width:0.194456px"/><path d="M451.61,162.6a2,2,0,1,1-2-2.17,2.08,2.08,0,0,1,2,2.17Z" style="fill:#fff;stroke:#000;stroke-width:0.292196px"/><path d="M454.12,172.73a4.51,4.51,0,1,1-4.5-4.84,4.68,4.68,0,0,1,4.5,4.84Z" style="fill:#fed100"/><path d="M454.12,172.73a4.51,4.51,0,1,1-4.5-4.84,4.68,4.68,0,0,1,4.5,4.84Z" style="fill:none;stroke:#000;stroke-width:0.129788px"/><path d="M448.66,167.52v4.07h-3.78v2.07h9.47v-2.07h-3.78v-4.07Z" style="fill:#fed100"/><path d="M448.66,167.52v4.07h-3.78v2.07h9.47v-2.07h-3.78v-4.07Z" style="fill:none;stroke:#000;stroke-width:0.24948399999999998px"/><path d="M448.15,176.58h2.94a1.56,1.56,0,0,1,1.5,1.61v14.9a1.56,1.56,0,0,1-1.5,1.61h-2.94a1.56,1.56,0,0,1-1.5-1.61v-14.9A1.56,1.56,0,0,1,448.15,176.58Z" style="fill:#fed100"/><path d="M448.15,176.58h2.94a1.56,1.56,0,0,1,1.5,1.61v14.9a1.56,1.56,0,0,1-1.5,1.61h-2.94a1.56,1.56,0,0,1-1.5-1.61v-14.9A1.56,1.56,0,0,1,448.15,176.58Z" style="fill:none;stroke:#000;stroke-width:0.235292px"/><path d="M446.43,176.56h0a.91.91,0,0,1,.95.87v16.42a.91.91,0,0,1-.95.87h0a.91.91,0,0,1-.95-.87V177.43A.91.91,0,0,1,446.43,176.56Z" style="fill:#fed100"/><path d="M446.43,176.56a.91.91,0,0,1,.95.87v16.42a1,1,0,0,1-1.89,0V177.43A.91.91,0,0,1,446.43,176.56Z" style="fill:none;stroke:#000;stroke-width:0.23072px"/><path d="M452.82,176.56h0a.91.91,0,0,1,.95.87v16.42a.91.91,0,0,1-.95.87h0a.91.91,0,0,1-.95-.87V177.43A.91.91,0,0,1,452.82,176.56Z" style="fill:#fed100"/><path d="M452.82,176.56h0a.91.91,0,0,1,.95.87v16.42a.91.91,0,0,1-.95.87h0a.91.91,0,0,1-.95-.87V177.43A.91.91,0,0,1,452.82,176.56Z" style="fill:none;stroke:#000;stroke-width:0.23072px"/><path d="M451.26,177a1.64,1.64,0,1,1-1.64-1.79,1.72,1.72,0,0,1,1.64,1.79Z" style="fill:#fff;stroke:#000;stroke-width:0.353558px"/><path d="M451.26,180.53a1.64,1.64,0,1,1-1.64-1.79,1.72,1.72,0,0,1,1.64,1.79Z" style="fill:#fff;stroke:#000;stroke-width:0.353558px"/><path d="M451.26,184.1a1.64,1.64,0,1,1-1.64-1.79,1.72,1.72,0,0,1,1.64,1.79Z" style="fill:#fff;stroke:#000;stroke-width:0.353558px"/><path d="M451.26,187.67a1.64,1.64,0,1,1-1.64-1.79,1.72,1.72,0,0,1,1.64,1.79Z" style="fill:#fff;stroke:#000;stroke-width:0.353558px"/><path d="M451.26,191.24a1.64,1.64,0,1,1-1.64-1.79,1.72,1.72,0,0,1,1.64,1.79Z" style="fill:#fff;stroke:#000;stroke-width:0.353558px"/><path d="M479,202.57c-1.58,3.8-2.84,7.5-4.08,11.32H424.14c-1.2-3.69-2.42-7.65-3.92-11.32,0,0,3.16,4.77,5.53,5.92a5.6,5.6,0,0,0,4.32.31c1.79-.69,4.18-4.19,4.18-4.19s2.14,2.7,3.6,3.41a9.15,9.15,0,0,0,4.46.62,7,7,0,0,0,3.89-.93c1.66-1.23,3.31-5.43,3.31-5.43a20.92,20.92,0,0,0,2.88,4.5,8.11,8.11,0,0,0,3.75,2,7.41,7.41,0,0,0,4.18-.31c1.78-.69,4.61-3.57,4.61-3.57s1.95,2.6,3.31,3.26a6.5,6.5,0,0,0,4.32.46,9.45,9.45,0,0,0,3.89-2.64A25,25,0,0,0,479,202.57Z" style="fill:#fed100"/><path d="M479,202.57c-1.58,3.8-2.84,7.5-4.08,11.32H424.14c-1.2-3.69-2.42-7.65-3.92-11.32,0,0,3.16,4.77,5.53,5.92a5.6,5.6,0,0,0,4.32.31c1.79-.69,4.18-4.19,4.18-4.19s2.14,2.7,3.6,3.41a9.15,9.15,0,0,0,4.46.62,7,7,0,0,0,3.89-.93c1.66-1.23,3.31-5.43,3.31-5.43a20.92,20.92,0,0,0,2.88,4.5,8.11,8.11,0,0,0,3.75,2,7.41,7.41,0,0,0,4.18-.31c1.78-.69,4.61-3.57,4.61-3.57s1.95,2.6,3.31,3.26a6.5,6.5,0,0,0,4.32.46,9.45,9.45,0,0,0,3.89-2.64A25,25,0,0,0,479,202.57Z" style="fill:none;stroke:#000;stroke-width:0.235292px"/><path d="M449.62,204.72a16.89,16.89,0,0,1-1.87,2.58,7.34,7.34,0,0,1-2.91,1.89,12.74,12.74,0,0,1-4.37.59,9.52,9.52,0,0,1-3.77-1.08,16.4,16.4,0,0,1-2.61-2.05,8.91,8.91,0,0,1-2.72,2.42,6,6,0,0,1-3.66.72c-2.55-.15-4.93-1.86-6.84-5.34a92.18,92.18,0,0,0-4.44-9.69,23.31,23.31,0,0,1,7.08-1.33c-1.08,3.27-2.19,6.45-1.8,9.08,2.22-1.79,2.94-4.24,3.71-6.66l2.58,9.81c-1.57-.3-.73-.65-4.86-1.49.83,1.68,2.72,3.75,4.8,4a4,4,0,0,0,3.31-1.16,3.27,3.27,0,0,0,1.22-2.28q0-.77,0-1.53c0-.33-.38-.79-.68-.8s-.37.5-.45.8c-.16.6.16,1.27,0,1.87a2.56,2.56,0,0,1-1,1.55,4.21,4.21,0,0,1-1.54.38l.35-1.45c.25-1-.67-1.81-.9-2.84a3.89,3.89,0,0,1,0-2,2.92,2.92,0,0,1,1.34-1.66,1.45,1.45,0,0,1,.75-.11,6,6,0,0,1,1,.27,8,8,0,0,1-.15-1.66,10.39,10.39,0,0,1,1-2.84,11.19,11.19,0,0,1,1.55-2.23,12.52,12.52,0,0,1,1.69,2.14,7.17,7.17,0,0,1,.88,2.33,16.51,16.51,0,0,1,.06,1.94,9.73,9.73,0,0,1,1.37-.51,1.46,1.46,0,0,1,.75.05,2.87,2.87,0,0,1,1.45,1.55,3.87,3.87,0,0,1,.13,2c-.15,1-.72,1.84-.41,2.84l.44,1.42a4.18,4.18,0,0,1-1.56-.26,2.52,2.52,0,0,1-1.14-1.47c-.19-.59-.08-1.31-.42-1.82-.15-.22-.36-.47-.65-.45s-.52.56-.53.89l-.05,1.38a2.25,2.25,0,0,0,.37,1.21,4.48,4.48,0,0,0,2.15,1.73,6.81,6.81,0,0,0,2.79.58,10.85,10.85,0,0,0,3.11-.43,5.84,5.84,0,0,0,2.33-1.58,4.13,4.13,0,0,0,.91-1.65,6.62,6.62,0,0,0,.14-1.88A10.12,10.12,0,0,0,445,204a17,17,0,0,0-2.35,2.41l-.07-11.86a30.59,30.59,0,0,0,2.78,3.21,5.55,5.55,0,0,0,2.16,1.36,6.62,6.62,0,0,0-1-2.49c-.88-1.32-1.74-2.74-2.8-4.07a39.19,39.19,0,0,1,11.81,0c-1.06,1.32-1.92,2.74-2.8,4.07a6.6,6.6,0,0,0-1,2.49,5.56,5.56,0,0,0,2.16-1.36,30.82,30.82,0,0,0,2.78-3.21l-.07,11.86A17,17,0,0,0,454.3,204a10.16,10.16,0,0,0-2.6-1.57,6.6,6.6,0,0,0,.14,1.88,4.1,4.1,0,0,0,.91,1.65,5.83,5.83,0,0,0,2.33,1.58,10.87,10.87,0,0,0,3.11.43,6.81,6.81,0,0,0,2.79-.58,4.48,4.48,0,0,0,2.15-1.73,2.25,2.25,0,0,0,.37-1.21l-.05-1.38c0-.33-.23-.86-.53-.89s-.5.22-.65.45c-.34.51-.23,1.23-.42,1.82a2.52,2.52,0,0,1-1.14,1.47,4.17,4.17,0,0,1-1.56.26l.44-1.42c.31-1-.26-1.8-.41-2.84a3.85,3.85,0,0,1,.13-2,2.88,2.88,0,0,1,1.45-1.55,1.46,1.46,0,0,1,.75-.05,9.78,9.78,0,0,1,1.37.51,16.37,16.37,0,0,1,.06-1.94,7.19,7.19,0,0,1,.88-2.33,12.62,12.62,0,0,1,1.69-2.14,11.23,11.23,0,0,1,1.55,2.23,10.4,10.4,0,0,1,1,2.84,8.16,8.16,0,0,1-.15,1.66,6,6,0,0,1,1-.27,1.45,1.45,0,0,1,.75.11,2.93,2.93,0,0,1,1.34,1.66,3.89,3.89,0,0,1,0,2c-.22,1-1.14,1.82-.9,2.84l.35,1.45a4.21,4.21,0,0,1-1.54-.37,2.56,2.56,0,0,1-1-1.55c-.16-.6.15-1.27,0-1.87-.08-.3-.16-.81-.45-.8s-.68.47-.68.8q0,.77,0,1.53A3.27,3.27,0,0,0,468,207a4,4,0,0,0,3.31,1.16c2.08-.2,4-2.27,4.8-4-4.12.84-3.29,1.19-4.86,1.49l2.58-9.81c.77,2.42,1.49,4.86,3.71,6.66.4-2.63-.72-5.81-1.8-9.08a23.31,23.31,0,0,1,7.08,1.33,92.6,92.6,0,0,0-4.44,9.69c-1.91,3.48-4.29,5.19-6.83,5.34a6,6,0,0,1-3.66-.72,8.9,8.9,0,0,1-2.72-2.42,16.38,16.38,0,0,1-2.61,2.05,9.52,9.52,0,0,1-3.76,1.08,12.74,12.74,0,0,1-4.37-.59,7.34,7.34,0,0,1-2.91-1.89A16.82,16.82,0,0,1,449.62,204.72Z" style="fill:#fed100"/><path d="M427.73,209.78c-2.55-.15-4.93-1.86-6.84-5.34a92.18,92.18,0,0,0-4.44-9.69,23.31,23.31,0,0,1,7.08-1.33c-1.08,3.27-2.19,6.45-1.8,9.08,2.22-1.79,2.94-4.24,3.71-6.66l2.58,9.81c-1.57-.3-.73-.65-4.86-1.49.83,1.68,2.72,3.75,4.8,4Zm43.55-1.67c2.08-.2,4-2.27,4.8-4-4.12.84-3.29,1.19-4.86,1.49l2.58-9.81c.77,2.42,1.49,4.86,3.71,6.66.4-2.63-.72-5.81-1.8-9.08a23.31,23.31,0,0,1,7.08,1.33,92.6,92.6,0,0,0-4.44,9.69c-1.91,3.48-4.29,5.19-6.83,5.34l0,.1Z" style="fill:#fed100"/><path d="M440.48,209.78a9.52,9.52,0,0,1-3.77-1.08,16.4,16.4,0,0,1-2.61-2.05,8.91,8.91,0,0,1-2.72,2.42,6,6,0,0,1-3.66.72l0,.47.3-2.14a4,4,0,0,0,3.31-1.16,3.27,3.27,0,0,0,1.22-2.28q0-.77,0-1.53c0-.33-.38-.79-.68-.8s-.37.5-.45.8c-.16.6.16,1.27,0,1.87a2.56,2.56,0,0,1-1,1.55,4.21,4.21,0,0,1-1.54.38l.35-1.45c.25-1-.67-1.81-.9-2.84a3.89,3.89,0,0,1,0-2,2.92,2.92,0,0,1,1.34-1.66,1.45,1.45,0,0,1,.75-.11,6,6,0,0,1,1,.27,8,8,0,0,1-.15-1.66,10.41,10.41,0,0,1,1-2.84,11.19,11.19,0,0,1,1.55-2.23,12.52,12.52,0,0,1,1.69,2.14,7.17,7.17,0,0,1,.88,2.33,16.51,16.51,0,0,1,.06,1.94,9.73,9.73,0,0,1,1.37-.51,1.46,1.46,0,0,1,.75.05,2.88,2.88,0,0,1,1.45,1.55,3.87,3.87,0,0,1,.13,2c-.15,1-.72,1.84-.41,2.84l.44,1.42a4.18,4.18,0,0,1-1.56-.26,2.52,2.52,0,0,1-1.14-1.47c-.19-.59-.08-1.31-.42-1.82-.15-.22-.36-.47-.65-.45s-.52.56-.53.89l-.05,1.38a2.25,2.25,0,0,0,.37,1.21,4.48,4.48,0,0,0,2.15,1.73,6.81,6.81,0,0,0,2.79.58Z" style="fill:#fed100"/><path d="M465.76,204.64l0-.05a10,10,0,0,1,.17-1.76,2,2,0,0,1,1.1-1.36,1.17,1.17,0,0,1,1,0,1.53,1.53,0,0,1,.48.32,1.58,1.58,0,0,1,.29.6,2.38,2.38,0,0,1,0,1.15,2.79,2.79,0,0,0,.06,1.48,1.43,1.43,0,0,0,.6.66,3.32,3.32,0,0,1-.12-.51,2,2,0,0,1,.12-1c.2-.51.48-.92.67-1.37a3.09,3.09,0,0,0,.24-1.37,2,2,0,0,0-.33-1,1.56,1.56,0,0,0-.88-.61,2.63,2.63,0,0,0-1.17.18,6.19,6.19,0,0,0-.68.29l-.34.17.06-.4a6.38,6.38,0,0,0,0-3.31,6.62,6.62,0,0,0-.86-1.76c-.21-.33-.45-.71-.72-1.07a8.08,8.08,0,0,0-1.49,2.65,9.61,9.61,0,0,0-.25,3.32l0,.42-.33-.21s-.37-.25-.83-.48a3.24,3.24,0,0,0-1.24-.42,1.37,1.37,0,0,0-1,.66,2,2,0,0,0-.34,1.09,6.92,6.92,0,0,0,.08,1.2c.05.42.28.86.34,1.39a4.35,4.35,0,0,0,.11.48,1.48,1.48,0,0,1,0,.6,4.88,4.88,0,0,1-.13.47,1.77,1.77,0,0,0,.25-.13,1.86,1.86,0,0,0,.45-.83,1.7,1.7,0,0,0,.1-.58,2.34,2.34,0,0,1,.12-.72,2.82,2.82,0,0,1,.8-1.34,1.35,1.35,0,0,1,1.25-.21,1.07,1.07,0,0,1,.55.43,3.49,3.49,0,0,1,.3.6,4.53,4.53,0,0,1,.23,1c.05.35.08.64.08.64V204l-.3,1.08-.39-.09.29-1s0-.27-.08-.59a5,5,0,0,0-.2-.89,3.45,3.45,0,0,0-.26-.53.62.62,0,0,0-.34-.28,1,1,0,0,0-.9.15,2.58,2.58,0,0,0-.66,1.15,1.86,1.86,0,0,0-.09.58,2.15,2.15,0,0,1-.12.72,2.1,2.1,0,0,1-.59,1,4,4,0,0,1-.73.4l-.41.18.15-.45s.21-.66.25-.89a1,1,0,0,0,0-.42,4.18,4.18,0,0,1-.12-.53c-.05-.42-.28-.86-.34-1.39a6.32,6.32,0,0,1-.08-1.3,2.52,2.52,0,0,1,.43-1.31,1.8,1.8,0,0,1,1.3-.82,3,3,0,0,1,1.45.46c.3.16.4.23.55.32a9.16,9.16,0,0,1,.27-3.12,8.52,8.52,0,0,1,1.72-3l.15-.17.15.17a11.56,11.56,0,0,1,.9,1.32,7.14,7.14,0,0,1,.92,1.88,6.34,6.34,0,0,1,.06,3.15,3.09,3.09,0,0,1,.41-.17,2.72,2.72,0,0,1,1.36-.19,1.92,1.92,0,0,1,1.12.76,2.44,2.44,0,0,1,.42,1.28,3.55,3.55,0,0,1-.28,1.59c-.21.5-.49.91-.67,1.36a1.51,1.51,0,0,0-.1.73,7.17,7.17,0,0,0,.22.92l.13.4-.38-.13a1.94,1.94,0,0,1-1.2-1.13,3.2,3.2,0,0,1-.08-1.72,2,2,0,0,0,0-.92,1.21,1.21,0,0,0-.21-.44,1.3,1.3,0,0,0-.37-.24.85.85,0,0,0-.66,0,1.56,1.56,0,0,0-.84,1A3.9,3.9,0,0,1,465.76,204.64Zm11.44-.77.1-.22-.22-.08a6,6,0,0,0-4.58.51,36,36,0,0,0,1.33-5.09c1.55,3,2.87,4,4.11,4.6l.23.11.05-.27a15.85,15.85,0,0,0-1.17-8.86,13.44,13.44,0,0,1,5.23,1.15l.16-.4a14.22,14.22,0,0,0-5.67-1.22l-.32,0,.13.32c1.61,4,1.61,6.63,1.28,8.65-1.19-.62-2.4-1.57-3.94-4.73l-.27-.55-.1.62a35.75,35.75,0,0,1-1.56,6l-.17.49.44-.22a6.13,6.13,0,0,1,4.46-.72l0,0Zm-54.67.06a6.13,6.13,0,0,1,4.46.72l.44.22-.17-.49a35.65,35.65,0,0,1-1.56-6l-.1-.62-.27.55c-1.54,3.16-2.75,4.11-3.94,4.73-.32-2-.32-4.63,1.29-8.65l.12-.32-.31,0a14.22,14.22,0,0,0-5.68,1.22l.16.4a13.42,13.42,0,0,1,5.23-1.15c-1.56,4.07-1.54,6.81-1.17,8.86l0,.27.23-.11c1.24-.61,2.56-1.59,4.11-4.6a36,36,0,0,0,1.33,5.08,6,6,0,0,0-4.58-.51l-.22.08.1.22,0,0,.52,0Zm12.88,1-.23-.92s0-.26.07-.57a5.08,5.08,0,0,1,.21-.89,3.5,3.5,0,0,1,.26-.53.62.62,0,0,1,.34-.28,1,1,0,0,1,.89.15,2.57,2.57,0,0,1,.67,1.15,1.86,1.86,0,0,1,.09.58,2.13,2.13,0,0,0,.12.72,2.1,2.1,0,0,0,.59,1,4,4,0,0,0,.73.39l.4.18-.14-.45s-.21-.66-.25-.89a1,1,0,0,1,0-.42,4.34,4.34,0,0,0,.11-.53c.05-.42.28-.86.34-1.39a6.36,6.36,0,0,0,.09-1.3,2.53,2.53,0,0,0-.43-1.31,1.8,1.8,0,0,0-1.3-.82,3,3,0,0,0-1.45.46,6,6,0,0,0-.55.32,9.21,9.21,0,0,0-.27-3.12,8.5,8.5,0,0,0-1.72-3l-.15-.17-.15.17a11.73,11.73,0,0,0-.91,1.32,7.1,7.1,0,0,0-.91,1.88,6.32,6.32,0,0,0-.06,3.15,3.1,3.1,0,0,0-.41-.17,2.72,2.72,0,0,0-1.36-.19,1.92,1.92,0,0,0-1.12.76,2.44,2.44,0,0,0-.42,1.28,3.55,3.55,0,0,0,.28,1.59c.21.5.49.91.67,1.36a1.51,1.51,0,0,1,.09.73,7.83,7.83,0,0,1-.21.92l-.12.4.38-.13a2,2,0,0,0,1.2-1.13,3.2,3.2,0,0,0,.08-1.72,2,2,0,0,1,0-.92,1.21,1.21,0,0,1,.21-.44,1.26,1.26,0,0,1,.36-.24.88.88,0,0,1,.67,0,1.7,1.7,0,0,1,.84,1h0a11.11,11.11,0,0,1,.16,1.65l.47.09c0-.71-.24-1.83-.24-1.83a1.94,1.94,0,0,0-1.09-1.36,1.18,1.18,0,0,0-1,0,1.55,1.55,0,0,0-.47.32,1.59,1.59,0,0,0-.3.6,2.38,2.38,0,0,0,0,1.15,2.81,2.81,0,0,1-.06,1.48,1.42,1.42,0,0,1-.59.66,3.6,3.6,0,0,0,.12-.51,2,2,0,0,0-.12-1c-.2-.51-.48-.92-.67-1.37a3.1,3.1,0,0,1-.25-1.37,2,2,0,0,1,.33-1,1.57,1.57,0,0,1,.89-.61,2.6,2.6,0,0,1,1.16.18,6.74,6.74,0,0,1,.69.28l.34.17-.07-.4a6.4,6.4,0,0,1,0-3.31,6.55,6.55,0,0,1,.85-1.76c.21-.32.46-.71.73-1.07a8.09,8.09,0,0,1,1.49,2.65,9.6,9.6,0,0,1,.24,3.32l0,.42.33-.21a9,9,0,0,1,.82-.48,3.3,3.3,0,0,1,1.25-.42,1.37,1.37,0,0,1,1,.66,2,2,0,0,1,.34,1.09,6.94,6.94,0,0,1-.09,1.2c-.05.42-.27.86-.34,1.39a4.68,4.68,0,0,1-.11.48,1.43,1.43,0,0,0,0,.6,4.06,4.06,0,0,0,.13.47,1.75,1.75,0,0,1-.25-.13,1.85,1.85,0,0,1-.45-.83,1.73,1.73,0,0,1-.1-.58,2.27,2.27,0,0,0-.12-.72,2.84,2.84,0,0,0-.8-1.34,1.36,1.36,0,0,0-1.25-.21,1.08,1.08,0,0,0-.56.43,3.56,3.56,0,0,0-.29.6,4.54,4.54,0,0,0-.24,1c-.05.35-.09.64-.09.64V204l.24.95h.12l.27-.11Zm15.17-3.5v-.27l.24.06a9.43,9.43,0,0,1,2.68,1.16,17.37,17.37,0,0,1,2.26,1.84l.12-7.13a11.71,11.71,0,0,1-2,2.07,7.31,7.31,0,0,1-3.1,1.29l-.28,0,.06-.29a11,11,0,0,1,.54-2.31,25.25,25.25,0,0,1,2.59-4.41,25.84,25.84,0,0,0-8.17,0,25.31,25.31,0,0,1,2.59,4.41,10.94,10.94,0,0,1,.54,2.31l.06.29-.28,0a7.31,7.31,0,0,1-3.1-1.29,11.71,11.71,0,0,1-2-2.06l.12,7.11a17.27,17.27,0,0,1,2.26-1.83,9.36,9.36,0,0,1,2.67-1.16l.25-.06v.27l-.4.3a9.25,9.25,0,0,0-2.31,1,22.37,22.37,0,0,0-2.54,2.09l-.31.27v-.43L443,196.5V196l.35.38a17.23,17.23,0,0,0,2.26,2.42,7.39,7.39,0,0,0,2.65,1.15,8.29,8.29,0,0,0-.46-1.92,25.32,25.32,0,0,0-2.73-4.62l-.2-.3.34,0a34.45,34.45,0,0,1,4.46-.37h0a34.26,34.26,0,0,1,4.46.37l.35,0-.21.3a25.52,25.52,0,0,0-2.74,4.62,8.29,8.29,0,0,0-.46,1.93,7.29,7.29,0,0,0,2.65-1.16,17.32,17.32,0,0,0,2.27-2.42l.34-.38v.54l-.13,8.13v.43l-.32-.27a21.91,21.91,0,0,0-2.53-2.08,9,9,0,0,0-2.31-1Z"/><path d="M449.62,204.72a16.89,16.89,0,0,1-1.87,2.58,7.34,7.34,0,0,1-2.91,1.89,12.74,12.74,0,0,1-4.37.59,9.52,9.52,0,0,1-3.77-1.08,16.4,16.4,0,0,1-2.61-2.05,8.91,8.91,0,0,1-2.72,2.42,6,6,0,0,1-3.66.72c-2.55-.15-4.93-1.86-6.84-5.34a92.18,92.18,0,0,0-4.44-9.69,23.31,23.31,0,0,1,7.08-1.33c-1.08,3.27-2.19,6.45-1.8,9.08,2.22-1.79,2.94-4.24,3.71-6.66l2.58,9.81c-1.57-.3-.73-.65-4.86-1.49.83,1.68,2.72,3.75,4.8,4a4,4,0,0,0,3.31-1.16,3.27,3.27,0,0,0,1.22-2.28q0-.77,0-1.53c0-.33-.38-.79-.68-.8s-.37.5-.45.8c-.16.6.16,1.27,0,1.87a2.56,2.56,0,0,1-1,1.55,4.21,4.21,0,0,1-1.54.38l.35-1.45c.25-1-.67-1.81-.9-2.84a3.89,3.89,0,0,1,0-2,2.92,2.92,0,0,1,1.34-1.66,1.45,1.45,0,0,1,.75-.11,6,6,0,0,1,1,.27,8,8,0,0,1-.15-1.66,10.39,10.39,0,0,1,1-2.84,11.19,11.19,0,0,1,1.55-2.23,12.52,12.52,0,0,1,1.69,2.14,7.17,7.17,0,0,1,.88,2.33,16.51,16.51,0,0,1,.06,1.94,9.73,9.73,0,0,1,1.37-.51,1.46,1.46,0,0,1,.75.05,2.87,2.87,0,0,1,1.45,1.55,3.87,3.87,0,0,1,.13,2c-.15,1-.72,1.84-.41,2.84l.44,1.42a4.18,4.18,0,0,1-1.56-.26,2.52,2.52,0,0,1-1.14-1.47c-.19-.59-.08-1.31-.42-1.82-.15-.22-.36-.47-.65-.45s-.52.56-.53.89l-.05,1.38a2.25,2.25,0,0,0,.37,1.21,4.48,4.48,0,0,0,2.15,1.73,6.81,6.81,0,0,0,2.79.58,10.85,10.85,0,0,0,3.11-.43,5.84,5.84,0,0,0,2.33-1.58,4.13,4.13,0,0,0,.91-1.65,6.62,6.62,0,0,0,.14-1.88A10.12,10.12,0,0,0,445,204a17,17,0,0,0-2.35,2.41l-.07-11.86a30.59,30.59,0,0,0,2.78,3.21,5.55,5.55,0,0,0,2.16,1.36,6.62,6.62,0,0,0-1-2.49c-.88-1.32-1.74-2.74-2.8-4.07a39.19,39.19,0,0,1,11.81,0c-1.06,1.32-1.92,2.74-2.8,4.07a6.6,6.6,0,0,0-1,2.49,5.56,5.56,0,0,0,2.16-1.36,30.82,30.82,0,0,0,2.78-3.21l-.07,11.86A17,17,0,0,0,454.3,204a10.16,10.16,0,0,0-2.6-1.57,6.6,6.6,0,0,0,.14,1.88,4.1,4.1,0,0,0,.91,1.65,5.83,5.83,0,0,0,2.33,1.58,10.87,10.87,0,0,0,3.11.43,6.81,6.81,0,0,0,2.79-.58,4.48,4.48,0,0,0,2.15-1.73,2.25,2.25,0,0,0,.37-1.21l-.05-1.38c0-.33-.23-.86-.53-.89s-.5.22-.65.45c-.34.51-.23,1.23-.42,1.82a2.52,2.52,0,0,1-1.14,1.47,4.17,4.17,0,0,1-1.56.26l.44-1.42c.31-1-.26-1.8-.41-2.84a3.85,3.85,0,0,1,.13-2,2.88,2.88,0,0,1,1.45-1.55,1.46,1.46,0,0,1,.75-.05,9.78,9.78,0,0,1,1.37.51,16.37,16.37,0,0,1,.06-1.94,7.19,7.19,0,0,1,.88-2.33,12.62,12.62,0,0,1,1.69-2.14,11.23,11.23,0,0,1,1.55,2.23,10.4,10.4,0,0,1,1,2.84,8.16,8.16,0,0,1-.15,1.66,6,6,0,0,1,1-.27,1.45,1.45,0,0,1,.75.11,2.93,2.93,0,0,1,1.34,1.66,3.89,3.89,0,0,1,0,2c-.22,1-1.14,1.82-.9,2.84l.35,1.45a4.21,4.21,0,0,1-1.54-.37,2.56,2.56,0,0,1-1-1.55c-.16-.6.15-1.27,0-1.87-.08-.3-.16-.81-.45-.8s-.68.47-.68.8q0,.77,0,1.53A3.27,3.27,0,0,0,468,207a4,4,0,0,0,3.31,1.16c2.08-.2,4-2.27,4.8-4-4.12.84-3.29,1.19-4.86,1.49l2.58-9.81c.77,2.42,1.49,4.86,3.71,6.66.4-2.63-.72-5.81-1.8-9.08a23.31,23.31,0,0,1,7.08,1.33,92.6,92.6,0,0,0-4.44,9.69c-1.91,3.48-4.29,5.19-6.83,5.34a6,6,0,0,1-3.66-.72,8.9,8.9,0,0,1-2.72-2.42,16.38,16.38,0,0,1-2.61,2.05,9.52,9.52,0,0,1-3.76,1.08,12.74,12.74,0,0,1-4.37-.59,7.34,7.34,0,0,1-2.91-1.89A16.82,16.82,0,0,1,449.62,204.72Z" style="fill:none;stroke:#000;stroke-width:0.235292px"/><path d="M451.42,200.73a1.81,1.81,0,1,1-1.8-2,1.89,1.89,0,0,1,1.8,2Z" style="fill:#fff;stroke:#000;stroke-width:0.321416px"/><path d="M422.93,203.44a1.81,1.81,0,1,1-1.8-2,1.89,1.89,0,0,1,1.8,2Z" style="fill:#fff;stroke:#000;stroke-width:0.321416px"/><path d="M476.32,203.44a1.81,1.81,0,1,0,1.8-2,1.89,1.89,0,0,0-1.8,2Z" style="fill:#fff;stroke:#000;stroke-width:0.321416px"/><path d="M432.28,203.65l4-.23.56.93-.47,1-4,.23-.68-.92Z" style="fill:#fed100"/><path d="M432.28,203.65l4-.23.56.93-.47,1-4,.23-.68-.92Z" style="fill:none;stroke:#000;stroke-width:0.235292px"/><path d="M467,203.65l-4-.23-.56.93.47,1,4,.23.68-.92Z" style="fill:#f6e078"/><path d="M467,203.65l-4-.23-.56.93.47,1,4,.23.68-.92Z" style="fill:#fed100;stroke:#000;stroke-width:0.235292px"/><path d="M424.62,220.21s2.83-.22,7.81-.53,10.32-.46,13-.46h8.3c2.64,0,8.1.16,13,.46s7.75.56,7.75.56l1.73-8.34s-17.76-1.73-26.68-1.73-26.68,1.73-26.68,1.73Z" style="fill:#fed100"/><path d="M449.51,210.26a224.51,224.51,0,0,1,26.71,1.57l-1.62,8.42c-8.83-.85-16.06-1.08-25-1.16m.12-8.84A224.49,224.49,0,0,0,423,211.84l1.63,8.42c8.83-.85,16.06-1.08,25-1.16" style="fill:none;stroke:#000;stroke-width:0.235292px"/><path d="M432.35,210.46h0c-3.17.25-6.84.51-10,1-.45.58-.49,1.12.33,1.54,3.07-.45,6.7-.73,9.87-1,4.3-.27,8.64-.44,13-.48h8.3c2.59,0,8.06.17,13,.49s9.89,1,9.89,1c.85-.47.76-1,.3-1.54,0,0-5-.67-10-1s-10.43-.49-13.12-.49h-8.3C441.09,210,436.72,210.21,432.35,210.46Z" style="fill:#fed100"/><path d="M432.35,210.46h0c-3.17.25-6.84.51-10,1-.45.58-.49,1.12.33,1.54,3.07-.45,6.7-.73,9.87-1,4.3-.27,8.64-.44,13-.48h8.3c2.59,0,8.06.17,13,.49s9.89,1,9.89,1c.85-.47.76-1,.3-1.54,0,0-5-.67-10-1s-10.43-.49-13.12-.49h-8.3C441.09,210,436.72,210.21,432.35,210.46Z" style="fill:none;stroke:#000;stroke-width:0.26600799999999997px"/><path d="M433.56,219.15h0c-2.95.25-6.36.51-9.34,1-.42.58-.46,1.12.31,1.54,2.86-.45,6.23-.73,9.18-1,4-.27,8-.44,12.06-.48h7.72c2.41,0,7.49.17,12.06.49s9.19,1,9.19,1c.79-.47.71-1,.28-1.54,0,0-4.69-.67-9.33-1s-9.7-.49-12.2-.49h-7.72C441.69,218.68,437.62,218.9,433.56,219.15Z" style="fill:#fed100"/><path d="M433.56,219.15h0c-2.95.25-6.36.51-9.34,1-.42.58-.46,1.12.31,1.54,2.86-.45,6.23-.73,9.18-1,4-.27,8-.35,12.06-.39h7.72c2.41,0,7.49.08,12.06.4s9.19,1,9.19,1c.79-.47.71-1,.28-1.54,0,0-4.69-.67-9.33-1s-9.7-.4-12.2-.4h-7.72Q439.65,218.77,433.56,219.15Z" style="fill:none;stroke:#000;stroke-width:0.275864px"/><path d="M444.67,212.16h9.9a.33.33,0,0,1,.36.29v5.2a.33.33,0,0,1-.36.29h-9.9a.33.33,0,0,1-.36-.29v-5.2A.33.33,0,0,1,444.67,212.16Z" style="fill:none;stroke:#000;stroke-width:0.532014px"/><path d="M446.07,212.92h7.1a.57.57,0,0,1,.61.51v3.25a.57.57,0,0,1-.61.51h-7.1a.57.57,0,0,1-.61-.51v-3.25A.57.57,0,0,1,446.07,212.92Z" style="fill:#012169;stroke:#a0892c;stroke-width:0.532014px"/><path d="M453.61,217a.68.68,0,0,1-.43.15h-7.1a.69.69,0,0,1-.43-.15.47.47,0,0,1-.18-.36v-3.25a.47.47,0,0,1,.18-.36C445.75,213,453.72,216.94,453.61,217Z" style="fill:#2b96f6;stroke:#a0892c;stroke-width:0.532014px"/><path d="M453.61,217a.68.68,0,0,1-.43.15h-7.1a.69.69,0,0,1-.43-.15.47.47,0,0,1-.18-.36v-3.25a.47.47,0,0,1,.18-.36c.06,0,2.14,1,4.16,2S453.67,217,453.61,217Z" style="fill:#012169;stroke:#000;stroke-width:0.532014px"/><path d="M453.61,213.06a.46.46,0,0,1,.18.36v3.25a.46.46,0,0,1-.18.36.68.68,0,0,1-.43.15h-7.1a.69.69,0,0,1-.43-.15C445.53,216.94,453.5,213,453.61,213.06Z" style="fill:#012169;stroke:#000;stroke-width:0.532014px"/><path d="M453.61,217a.68.68,0,0,1-.43.15h-7.1a.69.69,0,0,1-.43-.15c-.06,0,2-1.09,4-2.1C449.63,214.94,453.72,216.94,453.61,217Z" style="fill:#012169;stroke:#000;stroke-width:0.532014px"/><path d="M446.07,212.92h7.1a.57.57,0,0,1,.61.51v3.25a.57.57,0,0,1-.61.51h-7.1a.57.57,0,0,1-.61-.51v-3.25A.57.57,0,0,1,446.07,212.92Z" style="fill:none;stroke:#000;stroke-width:0.532014px"/><rect x="447.29" y="213.89" width="4.67" height="2.18" style="fill:#012169;stroke:#000;stroke-width:0.532014px"/><path d="M434,213.3l2.9-.31a2.32,2.32,0,0,1,2.53,1.87l0,.22a2,2,0,0,1-1.84,2.33l-2.9.31a2.32,2.32,0,0,1-2.53-1.87l0-.22A2,2,0,0,1,434,213.3Z" style="fill:#fed100;stroke:#000;stroke-width:0.285676px"/><path d="M434.2,213.89l2.72-.29a1.78,1.78,0,0,1,1.94,1.43h0a1.55,1.55,0,0,1-1.42,1.79l-2.72.29a1.78,1.78,0,0,1-1.94-1.43h0A1.55,1.55,0,0,1,434.2,213.89Z" style="fill:#306947"/><path d="M434.2,213.89l2.72-.29a1.78,1.78,0,0,1,1.94,1.43h0a1.55,1.55,0,0,1-1.42,1.79l-2.72.29a1.78,1.78,0,0,1-1.94-1.43h0A1.55,1.55,0,0,1,434.2,213.89Z" style="fill:none;stroke:#000;stroke-width:0.285676px"/><path d="M424,219.23l4.08-3.71-5-1.85-.08,3Z" style="fill:#fed100;stroke:#000;stroke-width:0.272242px"/><path d="M423.86,218.47l3-2.69-3.62-1.34-.77,2.13Z" style="fill:#c8102e"/><path d="M423.86,218.47l3-2.69-4.35.78Z" style="fill:#c8102e"/><path d="M426.83,215.76l-4.41.82" style="fill:none;stroke:#000;stroke-width:0.272242px"/><path d="M423.86,218.47l3-2.69-3.62-1.34-.82,2.09Z" style="fill:none;stroke:#000;stroke-width:0.272242px"/><path d="M442.65,213.55a.9.9,0,1,1-.9-1,.94.94,0,0,1,.9,1Z" style="fill:#fff;stroke:#000;stroke-width:0.6455200000000001px"/><path d="M442.84,216.63a.9.9,0,1,1-.9-1,.94.94,0,0,1,.9,1Z" style="fill:#fff;stroke:#000;stroke-width:0.6451600000000001px"/><path d="M430.59,214.26a.9.9,0,1,1-.9-1,.94.94,0,0,1,.9,1Z" style="fill:#fff;stroke:#000;stroke-width:0.6455200000000001px"/><path d="M430.77,217.34a.9.9,0,1,1-.9-1,.94.94,0,0,1,.9,1Z" style="fill:#fff;stroke:#000;stroke-width:0.6455200000000001px"/><path d="M465.23,213.3l-2.9-.31a2.32,2.32,0,0,0-2.53,1.87l0,.22a2,2,0,0,0,1.84,2.33l2.9.31a2.32,2.32,0,0,0,2.53-1.87l0-.22A2,2,0,0,0,465.23,213.3Z" style="fill:#fed100;stroke:#000;stroke-width:0.285676px"/><path d="M465,213.89l-2.72-.29a1.78,1.78,0,0,0-1.94,1.43h0a1.55,1.55,0,0,0,1.42,1.79l2.72.29a1.78,1.78,0,0,0,1.94-1.43h0A1.55,1.55,0,0,0,465,213.89Z" style="fill:#306947"/><path d="M465,213.89l-2.72-.29a1.78,1.78,0,0,0-1.94,1.43h0a1.55,1.55,0,0,0,1.42,1.79l2.72.29a1.78,1.78,0,0,0,1.94-1.43h0A1.55,1.55,0,0,0,465,213.89Z" style="fill:none;stroke:#000;stroke-width:0.285676px"/><path d="M475.26,219.23l-4.09-3.71,5-1.85.08,3Z" style="fill:#fed100;stroke:#000;stroke-width:0.272242px"/><path d="M475.39,218.47l-3-2.69,3.62-1.34.78,2.13Z" style="fill:#c8102e"/><path d="M475.39,218.47l-3-2.69,4.36.78Z" style="fill:#c8102e"/><path d="M472.42,215.76l4.41.82" style="fill:none;stroke:#000;stroke-width:0.272242px"/><path d="M475.39,218.47l-3-2.69,3.62-1.34.82,2.09Z" style="fill:none;stroke:#000;stroke-width:0.272242px"/><path d="M456.59,213.55a.9.9,0,1,0,.9-1,.94.94,0,0,0-.9,1Z" style="fill:#fff;stroke:#000;stroke-width:0.6455200000000001px"/><path d="M456.41,216.63a.9.9,0,1,0,.9-1,.94.94,0,0,0-.9,1Z" style="fill:#fff;stroke:#000;stroke-width:0.6455200000000001px"/><path d="M468.66,214.26a.9.9,0,1,0,.9-1,.94.94,0,0,0-.9,1Z" style="fill:#fff;stroke:#000;stroke-width:0.6455200000000001px"/><path d="M468.48,217.34a.9.9,0,1,0,.9-1,.94.94,0,0,0-.9,1Z" style="fill:#fff;stroke:#000;stroke-width:0.6455200000000001px"/></svg>