<svg xmlns="http://www.w3.org/2000/svg" viewBox="0 0 900 600"><title>Burkina_Faso</title><rect width="900" height="600" style="fill:#009e49"/><rect width="900" height="300" style="fill:#ef2b2d"/><path d="M450,200l-30.9,95.11,47.55,15.45" style="fill:#fcd116"/><path d="M450,200l30.9,95.11-47.55,15.45" style="fill:#fcd116"/><path d="M545.11,269.1h-100v50" style="fill:#fcd116"/><path d="M545.11,269.1l-80.9,58.78-29.39-40.45" style="fill:#fcd116"/><path d="M508.78,380.9l-30.9-95.11-47.55,15.45" style="fill:#fcd116"/><path d="M508.78,380.9l-80.9-58.78,29.39-40.45" style="fill:#fcd116"/><path d="M391.22,380.9l80.9-58.78-29.39-40.45" style="fill:#fcd116"/><path d="M391.22,380.9l30.9-95.11,47.55,15.45" style="fill:#fcd116"/><path d="M354.89,269.1l80.9,58.78,29.39-40.45" style="fill:#fcd116"/><path d="M354.89,269.1h100v50" style="fill:#fcd116"/></svg>