<svg xmlns="http://www.w3.org/2000/svg" viewBox="0 0 1000 600"><title>Burundi_Final-01</title><path d="M0,0H1000V600H0Z" style="fill:#ce1126"/><polygon points="0 0 0 600 500 300 0 0" style="fill:#1eb53a"/><polygon points="500 300 1000 600 1000 0 500 300" style="fill:#1eb53a"/><polygon points="577.75 300 1000 553.35 1000 46.65 577.75 300" style="fill:none"/><polygon points="422.25 300 0 46.65 0 553.35 422.25 300" style="fill:none"/><polygon points="922.25 600 1000 600 1000 553.35 577.75 300 1000 46.65 1000 0 922.25 0 500 253.35 77.75 0 0 0 0 46.65 422.25 300 0 553.35 0 600 77.75 600 500 346.65 922.25 600" style="fill:#fff"/><circle cx="500" cy="300" r="170" style="fill:#fff"/><path d="M510.5,193.8h21L521,212l10.5,18.2h-21L500,248.4l-10.5-18.2h-21L479,212l-10.5-18.2h21L500,175.6Z" style="fill:#ce1126"/><path d="M500,251.4l-11.37-19.7H465.9L477.27,212,465.9,192.3h22.73L500,172.6l11.37,19.7H534.1L522.73,212l11.37,19.7H511.37Zm-28.9-22.7h19.27L500,245.4l9.63-16.7H528.9L519.27,212l9.63-16.7H509.63L500,178.6l-9.63,16.7H471.1l9.63,16.7Z" style="fill:#1eb53a"/><path d="M434.3,325.8h21L444.8,344l10.5,18.2h-21l-10.5,18.2-10.5-18.2h-21L402.8,344l-10.5-18.2h21l10.5-18.2Z" style="fill:#ce1126"/><path d="M423.8,383.4l-11.37-19.7H389.7L401.07,344,389.7,324.3h22.73l11.37-19.7,11.37,19.7H457.9L446.53,344l11.37,19.7H435.17Zm-28.9-22.7h19.27l9.63,16.7,9.63-16.7H452.7L443.07,344l9.63-16.7H433.43l-9.63-16.7-9.63,16.7H394.9l9.63,16.7Z" style="fill:#1eb53a"/><path d="M586.7,325.8h21L597.2,344l10.5,18.2h-21l-10.5,18.2-10.5-18.2h-21L555.2,344l-10.5-18.2h21l10.5-18.2Z" style="fill:#ce1126"/><path d="M576.2,383.4l-11.37-19.7H542.1L553.47,344,542.1,324.3h22.73l11.37-19.7,11.37,19.7H610.3L598.93,344l11.37,19.7H587.57Zm-28.9-22.7h19.27l9.63,16.7,9.63-16.7H605.1L595.47,344l9.63-16.7H585.83l-9.63-16.7-9.63,16.7H547.3l9.63,16.7Z" style="fill:#1eb53a"/></svg>