<svg xmlns="http://www.w3.org/2000/svg" viewBox="0 0 1000 640"><title>Cambodia</title><path d="M0,0H1000V640H0Z" style="fill:#032ea1"/><path d="M0,160H1000V480H0Z" style="fill:#e00025"/><path d="M409.86,300H591.94v70.06H409.86Z" style="fill:#fff;stroke:#000;stroke-linejoin:bevel;stroke-width:0.9599999785423279px"/><path d="M582.55,338.68h5.74v26.39h-5.74Zm-172.69-13H591.94v8.14H409.86Zm0-11H591.94v7.18H409.86Z" style="fill:#fff;stroke:#000;stroke-linejoin:bevel;stroke-width:0.9599999785423279px"/><path d="M409.86,303.58H591.94v7H409.86Z" style="fill:#fff;stroke:#000;stroke-linejoin:bevel;stroke-width:0.9449999928474426px"/><path d="M457.8,338.68h5.74v26.39H457.8Zm78.38,0h5.74v26.39h-5.74Zm-124.88,0H417v26.39H411.3Zm11.25,0h5.74v26.39h-5.74Zm12,0h5.74v26.39h-5.74Zm12,0h5.74v26.39h-5.74Zm100.51,0h5.74v26.39h-5.74Zm12,0h5.74v26.39h-5.74Zm12,0h5.74v26.39h-5.74Z" style="fill:#fff;stroke:#000;stroke-linejoin:bevel;stroke-width:0.9599999785423279px"/><path d="M338.64,373.74a15,15,0,0,0,7.08-8.51H654.63a15,15,0,0,0,7.08,8.51Z" style="fill:#fff;stroke:#000;stroke-width:0.9599999785423279px"/><path d="M496.23,193.34s-.23-6.58,3.6-6.65,3.6,6.65,3.6,6.65Zm-20,87.26v-8.86c-.13-4.43-4.42-4.75-4.54-8,0,0-.55-4.84.72-7.05,1.73,6.48,4.89,5.29,4.89,2.62,0-2.32-1.79-4.49-5.45-10.13-1.17-1.8-.45-7.46,1.2-9.48.64,4.91,1.36,7.26,3.47,7.26,1.29,0,2.34-.84,2.34-3.3,0-3.13-2.12-4.71-3.16-7.56a8,8,0,0,1,1.64-8.61c.87,4.85.61,6.78,2.76,6.78,4.34-1.37,0-7.66-.93-9.24-1.07-1.85,1.44-5.54,1.44-5.54,1.38,4.3,1.82,4.66,3.31,4.26,1.88-.5,1.64-3.29-.66-5.54-1.45-1.42-1.29-3.54.26-5.24,1.56,3,3.56,2.86,3.75,1.05L486,207h27.61l-1.37,6.8c-.39,1.94,2.23,2.37,3.87-.82,1.56,1.7,1.71,3.82.26,5.24-2.29,2.25-2.53,5-.66,5.54,1.49.4,1.93,0,3.31-4.26a6.54,6.54,0,0,1,1.44,5.54c-.93,1.58-5.27,7.87-.93,9.24,2.15,0,1.9-1.93,2.76-6.78a8,8,0,0,1,1.64,8.61c-1,2.85-3.16,4.43-3.16,7.56,0,2.46,1.05,3.3,2.34,3.3,2.11,0,2.84-2.35,3.48-7.26,1.64,2,2.36,7.67,1.19,9.48-3.66,5.64-5.45,7.8-5.45,10.13,0,2.66,3.15,3.85,4.89-2.62,1.28,2.21.72,7.05.72,7.05-.12,3.23-4.41,3.55-4.54,8v8.86ZM487.8,207l-.64-5H512.5l-.63,5Zm1.7-5.1-.54-4.11h21.76l-.54,4.11Zm3.46-4.26-.36-4.11h14.49l-.36,4.11Zm52.83,176.13c-3.24-1.25-8-4.67-8-8.11V326.75l4.22-5.37H457.6l4,5.38v38.87c0,3.44-3.24,6.86-6.48,8.11Z" style="fill:#fff;stroke:#000;stroke-width:0.9599999785423279px"/><path d="M472.61,338.68h5.74v26.39h-5.74Zm48.51,0h5.74v26.39h-5.74Z" style="fill:#fff;stroke:#000;stroke-linejoin:bevel;stroke-width:0.9599999785423279px"/><path d="M456.08,277.13v44.25h86.44v-9.53l.12-34.72a6.72,6.72,0,0,0-4.15,4.59v18.84h-78V281.72a7.5,7.5,0,0,0-4.41-4.59Z" style="fill:#fff;stroke:#000;stroke-width:0.9599999785423279px"/><path d="M530.79,373.74c-2.83-1.25-9-4.67-9-8.11v-43.5c.6-2.43,3.9-3.86,6-5.37H470.51c2.73,1.44,5.77,2.64,6.86,5.38v43.5c0,3.44-4.86,6.86-7.69,8.11Z" style="fill:#fff;stroke:#000;stroke-width:0.9599999785423279px"/><path d="M538.48,317.21V285.87h-7.86v-3.06H468.48v3.06h-7.86v31.34ZM518.4,373.74c-2.77-1.25-6.8-4.67-6.8-8.11V328.48l2.28-3.38h-28.3l2.27,3.38v37.14c0,3.44-4,6.86-6.8,8.11Z" style="fill:#fff;stroke:#000;stroke-width:0.9599999785423279px"/><path d="M492.56,325.11h14.35v48.6H492.56Z" style="fill:#fff;stroke:#000;stroke-width:0.9810000061988831px"/><path d="M514.44,314.42c0-3.2,9.34-3.34,14.13-6.07H471c4.79,2.73,13.88,3,13.88,6.07l1.95,6.21,23.81,1Z" style="fill:#fff;stroke:#000;stroke-linejoin:bevel;stroke-width:0.9599999785423279px"/><path d="M525.68,280.6c0-7.84.33-10.86,2.74-10.86v24.93c-5.9,2.14-10.12,9.68-10.12,9.68H481.16s-4.22-7.54-10.12-9.68V269.74c3,0,3,3.16,3,10.86Zm2.74-3.22c0-9,7.76-10,7.76-10v8c-3-.13-4.38,2.52-4.38,6.47s2.38,4,2.38,4v22.7h-5.76Z" style="fill:#fff;stroke:#000;stroke-width:0.9599999785423279px"/><path d="M471.08,277.38c0-9-7.76-10-7.76-10v8c3-.13,4.38,2.52,4.38,6.47s-2.38,4-2.38,4v22.7h5.76Z" style="fill:#fff;stroke:#000;stroke-width:0.9599999785423279px"/><path d="M486.37,215.45h27.4M483.12,224H516.6m-36.72,10.38h39.85m-43.24,12.69h47.26M475.4,261.54h48.68" style="fill:none;stroke:#000;stroke-width:0.800000011920929px"/><path d="M460.63,308.73h77.86m-53.15,0h28.86v10.61H485.33Z" style="fill:none;stroke:#000;stroke-width:0.9599999785423279px"/><path d="M481.72,285.24c4.78,5.74,4.34,15.49,4.29,21.23h27.75c-.06-5.74-.5-15.49,4.28-21.23Zm15.6-65.81-3.8-2v-5.6c1.55.46,3.3.66,3.47,3.13.54-3.54,1.52-3.36,3.05-4.74,1.53,1.38,2.51,1.2,3,4.74.17-2.48,1.92-2.67,3.47-3.14v5.6l-3.8,2Z" style="fill:#fff;stroke:#000;stroke-width:0.9599999785423279px"/><path d="M497.06,228.62l-6.31-4.34v-5.16c2.21.51,4.7.72,4.94,3.44.77-3.88,2.16-5.88,4.34-7.39,2.18,1.51,3.57,3.51,4.34,7.39.24-2.72,2.73-2.93,4.94-3.44v5.16L503,228.62Z" style="fill:#fff;stroke:#000;stroke-width:0.9599999785423279px"/><path d="M496.61,242.94l-7.26-6.38V229c2.54.75,5.4,1.06,5.68,5,.88-5.7,2.48-8.64,5-10.86,2.51,2.22,4.11,5.16,5,10.86.28-4,3.14-4.3,5.68-5.05v7.58l-7.26,6.38ZM510,251.4l-6.57,9.08H496l-6.57-9.08Zm-24.35,15.25c3.28,1.8,4.5,5.37,4.85,12.08H509c.35-6.71,1.56-10.29,4.85-12.08Z" style="fill:#fff;stroke:#000;stroke-width:0.9599999785423279px"/><path d="M514.1,251.4v-9.12a8.35,8.35,0,0,0-6,5.21c0-3-4-10-8.33-13.49-4.36,3.89-8.41,10.21-8.33,13.49-.74-2.39-2.92-4.35-6-5.21v9.12Z" style="fill:#fff;stroke:#000;stroke-linejoin:bevel;stroke-width:0.9599999785423279px"/><path d="M515.49,266.65v-9.12c-3.42.86-5.64,2.7-6.62,5.21,0-3-4.37-10-9.13-13.49-4.78,3.89-9.22,10.21-9.13,13.49-.81-2.39-3.2-4.35-6.62-5.21v9.12Z" style="fill:#fff;stroke:#000;stroke-linejoin:bevel;stroke-width:0.9599999785423279px"/><path d="M519.33,285.37V274.84a15.21,15.21,0,0,0-8.24,6.08c0-5.7-6.43-14.38-11.36-17.23-5.06,2.92-11.36,11.9-11.36,17.23-1.38-1.82-4-5-8.24-6.08v10.52Z" style="fill:#fff;stroke:#000;stroke-linejoin:bevel;stroke-width:0.9599999785423279px"/><path d="M517,308.73V297.91c-3.75,1.47-4.88,5.09-6.06,7.55.46-11-6.18-22.77-11.24-25.76-5.06,3-11.83,15-11.24,25.76-1.21-2.44-2.3-6.08-6.06-7.55v10.82Z" style="fill:#fff;stroke:#000;stroke-linejoin:bevel;stroke-width:0.9599999785423279px"/><path d="M514.4,325.11V314.29c-3.93.94-4.18,2.38-5.43,4.81.46-6.56-4.18-14-9.24-17-5.06,3-9.7,10.47-9.24,17-1.25-2.42-1.4-3.87-5.42-4.81v10.82Z" style="fill:#fff;stroke:#000;stroke-width:0.9599999785423279px"/><path d="M345.72,365.22v-32.7c-1.07-4.16-4.61-7.85-7.26-8.59V295.14l6,3.24,6.84,30.1v36.75Z" style="fill:#fff;stroke:#000;stroke-width:0.9599999785423279px"/><path d="M345.72,365.35V332.52c-1.07-4.16-4.61-7.85-7.26-8.58V293.15c4,0,6,5.24,6,5.24l6.84,30.1V365.1Z" style="fill:#fff;stroke:#000;stroke-width:0.9599999785423279px"/><path d="M341.47,373.74c2.77-1.25,6.8-4.67,6.8-8.11V324.75l-1.9-3.37H416l-2.72,3.37v40.88c0,3.44,2.77,6.86,5.54,8.11Z" style="fill:#fff;stroke:#000;stroke-width:0.9599999785423279px"/><path d="M404.77,373.74c-2.77-1.25-6.8-4.67-6.8-8.11V326.75l5.79-5.38H356.42l5.79,5.37v38.88c0,3.44-4,6.86-6.8,8.11Z" style="fill:#fff;stroke:#000;stroke-width:0.9599999785423279px"/><path d="M398.13,373.74c-2.77-1.25-6.8-4.67-6.8-8.11V330.48l3.79-5.38H365l3.79,5.38v35.14c0,3.44-4,6.86-6.8,8.11Z" style="fill:#fff;stroke:#000;stroke-width:0.9599999785423279px"/><path d="M372.9,325.11h14.37v48.63H372.9Z" style="fill:#fff;stroke:#000;stroke-width:0.9599999785423279px"/><path d="M353.35,338.68h5.74v26.39h-5.74Zm49.2,0h5.74v26.39h-5.74Zm-54.1-44.51h6.91v27.06h-6.91Zm0-5.09h6.87v5h-6.87Z" style="fill:#fff;stroke:#000;stroke-linejoin:bevel;stroke-width:0.9599999785423279px"/><path d="M405.3,300h9.86v20.89H405.3Z" style="fill:#fff;stroke:#000;stroke-linejoin:bevel;stroke-width:1.034000039100647px"/><path d="M355.25,321v-46.3c2,0,2.28,6.78,6.8,6.78,2.35,0,2.1-2.81.78-5.1-1.17-2-2.62-4.83-.65-10,1.35,4,5,5.26,4.31,2.76-1.15-4.3-4.47-5-2-11.68.87,5.57,4.44,5.32,3.57,2.09-1-3.65-3-5.14-.51-10.28,1.4,5.84,3.28,5.5,3.28,1.87,0-5.35-.2-11.13,6.72-13.27,0,0,.4-4.91,2.9-4.91s2.9,4.91,2.9,4.91c6.93,2.14,6.72,7.92,6.72,13.27,0,3.62,1.89,4,3.28-1.87,2.49,5.14.47,6.64-.5,10.28-.87,3.24,2.7,3.48,3.57-2.09,2.49,6.68-.83,7.38-2,11.68-.67,2.5,3,1.24,4.31-2.76,2,5.22.52,8-.65,10-1.32,2.29-1.57,5.1.78,5.1,4.52,0,4.83-6.78,6.8-6.78V321Zm-10.83-35v35.33h4V286a3.53,3.53,0,0,0-4,.09Z" style="fill:#fff;stroke:#000;stroke-width:0.9599999785423279px"/><path d="M344.55,308.9c5,2.54,9.91,5.49,11.16,12.47H344.55Zm69.07-10.58v23.05h3.26V298.27A3.45,3.45,0,0,0,413.62,298.33Z" style="fill:#fff;stroke:#000;stroke-width:0.9599999785423279px"/><path d="M416.88,308.73c-5,2.54-9.91,5.49-11.16,12.47h11.16Z" style="fill:#fff;stroke:#000;stroke-width:0.9599999785423279px"/><path d="M384,254.89l2.9-2.44v-3.12a3.07,3.07,0,0,0-2.43,1.5,8,8,0,0,0-4.1-4.69,7.88,7.88,0,0,0-4.1,4.62,3,3,0,0,0-2.43-1.42v3.12l2.9,2.44Z" style="fill:#fff;stroke:#000;stroke-width:0.9599999785423279px"/><path d="M385.51,262.71l1.35-2.92v-4.06a3.07,3.07,0,0,0-2.43,1.52,8.1,8.1,0,0,0-4.1-4.76,8,8,0,0,0-4.1,4.68,3,3,0,0,0-2.43-1.44v4.06l1.35,2.92Z" style="fill:#fff;stroke:#000;stroke-width:0.9599999785423279px"/><path d="M385.72,273.32l4.31-5.26v-5.19c-1.58.18-2.44.8-3.6,2.57-1-3.56-3.17-4.33-6.09-6.06-2.92,1.72-5.1,2.38-6.09,5.93-1.16-1.76-2-2.27-3.6-2.44v5.19l4.31,5.26Z" style="fill:#fff;stroke:#000;stroke-width:0.9599999785423279px"/><path d="M387,283.74s5-4.38,5.32-6.79V271.4a6.32,6.32,0,0,0-5.23,3c-1.22-4.59-3.14-5.87-6.74-8.1-3.6,2.23-5.52,3.51-6.74,8.1a6.33,6.33,0,0,0-5.23-3v5.55c.63,2.41,5.32,6.79,5.32,6.79Z" style="fill:#fff;stroke:#000;stroke-width:0.9599999785423279px"/><path d="M389.12,303s6.88-7.62,7-10.59v-8.65c-2.58.36-5,2.13-6.91,5.68-1.62-7.16-4.14-12.15-8.91-15.62-4.77,3.47-7.3,8.46-8.91,15.62-1.9-3.56-4.34-5.33-6.92-5.68v8.65c.49,3,7,10.59,7,10.59Z" style="fill:#fff;stroke:#000;stroke-width:0.9599999785423279px"/><path d="M389.12,314.34s5.88-6,7-8.59v-8.65c-2.58.36-5,2.13-6.91,5.68-1.62-7.16-4.14-11.26-8.91-14.73-4.77,3.47-7.3,7.57-8.91,14.73-1.9-3.56-4.34-5.33-6.92-5.68v8.65c1.49,2.6,7,8.59,7,8.59Z" style="fill:#fff;stroke:#000;stroke-width:0.9599999785423279px"/><path d="M391.49,321c-1.72-7.47-3.19-13-11.46-18.62-8.27,5.62-9.74,11.16-11.46,18.62Z" style="fill:#fff;stroke:#000;stroke-width:0.9599999785423279px"/><path d="M395.75,325.11V314.29c-3.75,1.47-7.15,3.65-8.4,6.07-1.4-6-4.09-8.65-7.44-12.29-3.36,3.64-5.6,6.28-7,12.29-1.25-2.42-4.64-4.6-8.4-6.07v10.82Z" style="fill:#fff;stroke:#000;stroke-width:0.9599999785423279px"/><path d="M654.32,365.22v-32.7c1.07-4.16,4.61-7.85,7.26-8.59V295.14l-6,3.24-6.84,30.1v36.75Z" style="fill:#fff;stroke:#000;stroke-width:0.9599999785423279px"/><path d="M654.32,365.35V332.52c1.07-4.16,4.61-7.85,7.26-8.58V293.15c-4,0-6,5.24-6,5.24l-6.84,30.1V365.1Z" style="fill:#fff;stroke:#000;stroke-width:0.9599999785423279px"/><path d="M658.57,373.74c-2.77-1.25-6.8-4.67-6.8-8.11V324.75l1.9-3.37H584l2.72,3.37v40.88c0,3.44-2.77,6.86-5.54,8.11Z" style="fill:#fff;stroke:#000;stroke-width:0.9599999785423279px"/><path d="M595.27,373.74c2.77-1.25,6.8-4.67,6.8-8.11V326.75l-5.79-5.38h47.34l-5.79,5.37v38.88c0,3.44,4,6.86,6.8,8.11Z" style="fill:#fff;stroke:#000;stroke-width:0.9599999785423279px"/><path d="M601.91,373.74c2.77-1.25,6.8-4.67,6.8-8.11V330.48l-3.79-5.38H635l-3.79,5.38v35.14c0,3.44,4,6.86,6.8,8.11Z" style="fill:#fff;stroke:#000;stroke-width:0.9599999785423279px"/><path d="M627.14,325.11H612.77v48.63h14.37Z" style="fill:#fff;stroke:#000;stroke-width:0.9599999785423279px"/><path d="M646.69,338.68H641v26.39h5.74Zm-49.2,0h-5.74v26.39h5.74Zm54.1-44.51h-6.91v27.06h6.91Zm0-5.09h-6.87v5h6.87Z" style="fill:#fff;stroke:#000;stroke-linejoin:bevel;stroke-width:0.9599999785423279px"/><path d="M594.74,300h-9.86v20.89h9.86Z" style="fill:#fff;stroke:#000;stroke-linejoin:bevel;stroke-width:1.034000039100647px"/><path d="M644.79,321v-46.3c-2,0-2.28,6.78-6.8,6.78-2.35,0-2.1-2.81-.78-5.1,1.17-2,2.62-4.83.65-10-1.35,4-5,5.26-4.31,2.76,1.15-4.3,4.47-5,2-11.68-.87,5.57-4.44,5.32-3.57,2.09,1-3.65,3-5.14.51-10.28-1.4,5.84-3.28,5.5-3.28,1.87,0-5.35.2-11.13-6.72-13.27,0,0-.4-4.91-2.9-4.91s-2.9,4.91-2.9,4.91c-6.93,2.14-6.72,7.92-6.72,13.27,0,3.62-1.89,4-3.28-1.87-2.49,5.14-.47,6.64.5,10.28.87,3.24-2.7,3.48-3.57-2.09-2.49,6.68.83,7.38,2,11.68.67,2.5-3,1.24-4.31-2.76-2,5.22-.52,8,.65,10,1.32,2.29,1.57,5.1-.78,5.1-4.52,0-4.83-6.78-6.8-6.78V321Zm10.83-35v35.33h-4V286a3.53,3.53,0,0,1,4,.09Z" style="fill:#fff;stroke:#000;stroke-width:0.9599999785423279px"/><path d="M655.49,308.9c-5,2.54-9.91,5.49-11.16,12.47h11.16Zm-69.07-10.58v23.05h-3.26V298.27A3.45,3.45,0,0,1,586.42,298.33Z" style="fill:#fff;stroke:#000;stroke-width:0.9599999785423279px"/><path d="M583.16,308.73c5,2.54,9.91,5.49,11.16,12.47H583.16Z" style="fill:#fff;stroke:#000;stroke-width:0.9599999785423279px"/><path d="M616.08,254.89l-2.9-2.44v-3.12a3.07,3.07,0,0,1,2.43,1.5,8,8,0,0,1,4.1-4.69,7.88,7.88,0,0,1,4.1,4.62,3,3,0,0,1,2.43-1.42v3.12l-2.9,2.44Z" style="fill:#fff;stroke:#000;stroke-width:0.9599999785423279px"/><path d="M614.53,262.71l-1.35-2.92v-4.06a3.07,3.07,0,0,1,2.43,1.52,8.1,8.1,0,0,1,4.1-4.76,8,8,0,0,1,4.1,4.68,3,3,0,0,1,2.43-1.44v4.06l-1.35,2.92Z" style="fill:#fff;stroke:#000;stroke-width:0.9599999785423279px"/><path d="M614.32,273.32,610,268.06v-5.19c1.58.18,2.44.8,3.6,2.57,1-3.56,3.17-4.33,6.09-6.06,2.92,1.72,5.1,2.38,6.09,5.93,1.16-1.76,2-2.27,3.6-2.44v5.19l-4.31,5.26Z" style="fill:#fff;stroke:#000;stroke-width:0.9599999785423279px"/><path d="M613.06,283.74s-5-4.38-5.32-6.79V271.4a6.32,6.32,0,0,1,5.23,3c1.22-4.59,3.14-5.87,6.74-8.1,3.6,2.23,5.52,3.51,6.74,8.1a6.33,6.33,0,0,1,5.23-3v5.55c-.63,2.41-5.32,6.79-5.32,6.79Z" style="fill:#fff;stroke:#000;stroke-width:0.9599999785423279px"/><path d="M610.92,303s-6.88-7.62-7-10.59v-8.65c2.58.36,5,2.13,6.91,5.68,1.62-7.16,4.14-12.15,8.91-15.62,4.77,3.47,7.3,8.46,8.91,15.62,1.9-3.56,4.34-5.33,6.92-5.68v8.65c-.49,3-7,10.59-7,10.59Z" style="fill:#fff;stroke:#000;stroke-width:0.9599999785423279px"/><path d="M610.92,314.34s-5.88-6-7-8.59v-8.65c2.58.36,5,2.13,6.91,5.68,1.62-7.16,4.14-11.26,8.91-14.73,4.77,3.47,7.3,7.57,8.91,14.73,1.9-3.56,4.34-5.33,6.92-5.68v8.65c-1.49,2.6-7,8.59-7,8.59Z" style="fill:#fff;stroke:#000;stroke-width:0.9599999785423279px"/><path d="M608.55,321c1.72-7.47,3.19-13,11.46-18.62,8.27,5.62,9.74,11.16,11.46,18.62Z" style="fill:#fff;stroke:#000;stroke-width:0.9599999785423279px"/><path d="M604.29,325.11V314.29c3.75,1.47,7.15,3.65,8.4,6.07,1.4-6,4.09-8.65,7.44-12.29,3.36,3.64,5.6,6.28,7,12.29,1.25-2.42,4.64-4.6,8.4-6.07v10.82Z" style="fill:#fff;stroke:#000;stroke-width:0.9599999785423279px"/><path d="M330.49,373.3v9.88h339V373.3Zm-6.14,10v12.88h351.3V383.27Zm351.3,12.88-351.3.1-10.27-.1v17H685.92v-17Zm-371.91,17.1v20H696.27v-20Zm392.53,20v0H303.74v0H293.39v20H706.61v-20Z" style="fill:#fff;stroke:#000;stroke-width:0.9599999785423279px"/><path d="M367.28,373.35h25.61v79.9H367.28Z" style="fill:#fff;stroke:#000;stroke-width:1.0449999570846558px"/><path d="M372.95,373.35h14.27v79.9H372.95Z" style="fill:#fff;stroke:#000;stroke-width:1.0429999828338623px"/><path d="M486.76,373.35h25.61v79.9H486.76Z" style="fill:#fff;stroke:#000;stroke-width:1.0449999570846558px"/><path d="M492.6,373.35h14.27v79.9H492.6Z" style="fill:#fff;stroke:#000;stroke-width:1.0429999828338623px"/><path d="M606.93,373.35h25.61v79.9H606.93Z" style="fill:#fff;stroke:#000;stroke-width:1.0449999570846558px"/><path d="M612.6,373.35h14.27v79.9H612.6Z" style="fill:#fff;stroke:#000;stroke-width:1.0429999828338623px"/><path d="M345.72,365.22H654.64m-281.94,78h14.79m-14.79-10h14.79m-14.79-10h14.79m-14.79-10h14.79m-14.79-10h14.79m-14.79-10h14.79m-14.79-10h14.79m105.18,60h13.77m-13.77-10h13.77m-13.77-10h13.77m-13.77-10h13.77m-13.77-10h13.77m-13.77-10h13.77m-13.77-10h13.77m105.91,60h14.79m-14.79-10h14.79m-14.79-10h14.79m-14.79-10h14.79m-14.79-10h14.79m-14.79-10h14.79m-14.79-10h14.79" style="fill:none;stroke:#000;stroke-width:0.9599999785423279px"/></svg>