<svg xmlns="http://www.w3.org/2000/svg" viewBox="0 0 1200 600"><title>Canada</title><path d="M0,0H300l12.38,12.38H887.63L900,0h300V600H900l-12.37-12.37H312.38L300,600H0Z" style="fill:#d52b1e"/><path d="M300,0H900V600H300ZM611.25,553.75l-5.62-107.87a11.87,11.87,0,0,1,13.88-12.25L726.88,452.5l-14.5-40a8.13,8.13,0,0,1,2.5-9.12L832.5,308.13,806,295.75a8.12,8.12,0,0,1-4.25-9.87L825,214.38l-67.75,14.38a8.12,8.12,0,0,1-9.12-4.75L735,193.13l-52.87,56.75a8.13,8.13,0,0,1-13.87-7.12l25.5-131.5-40.87,23.63a8.13,8.13,0,0,1-11.12-2.9q-.14-.23-.26-.47L600,50l-41.5,81.5a8.13,8.13,0,0,1-10.9,3.63l-.47-.26-40.87-23.62,25.5,131.5a8.12,8.12,0,0,1-13.87,7.13L465,193.13,451.88,224a8.13,8.13,0,0,1-9.12,4.75L375,214.38l23.25,71.5a8.12,8.12,0,0,1-4.25,9.88l-26.5,12.38,117.63,95.25a8.12,8.12,0,0,1,2.5,9.13l-14.5,40L580.5,433.63a11.87,11.87,0,0,1,13.88,12.25l-5.62,107.88Z" style="fill:#fff"/></svg>