<svg xmlns="http://www.w3.org/2000/svg" viewBox="0 0 1020 600"><title>Cape_Verde_Final</title><path d="M0,0H1020V600H0Z" style="fill:#003893"/><path d="M0,300H1020V450H0Z" style="fill:#fff"/><path d="M0,350H1020v50H0Z" style="fill:#cf2027"/><polygon points="411 215.73 389.24 215.73 382.5 195 375.76 215.73 354 215.73 371.61 228.52 364.87 249.27 382.5 236.46 400.13 249.27 393.39 228.52 411 215.73" style="fill:#f7d116"/><polygon points="393.39 528.52 411 515.73 389.24 515.73 382.5 495 375.76 515.73 354 515.73 371.61 528.52 364.87 549.27 382.5 536.46 400.13 549.27 393.39 528.52" style="fill:#f7d116"/><polygon points="326.2 244.37 304.44 244.37 297.7 223.64 290.97 244.37 269.2 244.37 286.81 257.16 280.07 277.91 297.7 265.1 315.33 277.91 308.59 257.16 326.2 244.37" style="fill:#f7d116"/><polygon points="484.93 499.87 502.54 487.08 480.77 487.08 474.04 466.35 467.3 487.08 445.54 487.08 463.15 499.87 456.41 520.62 474.04 507.81 491.67 520.62 484.93 499.87" style="fill:#f7d116"/><polygon points="239.84 298.68 233.11 319.38 211.31 319.38 228.95 332.19 222.22 352.89 239.83 340.1 257.48 352.92 250.75 332.2 268.38 319.39 246.56 319.39 239.84 298.68" style="fill:#f7d116"/><polygon points="531.88 412.09 525.15 391.39 518.43 412.09 496.63 412.09 514.26 424.9 507.54 445.6 525.15 432.8 542.8 445.63 536.06 424.9 553.69 412.09 531.88 412.09" style="fill:#f7d116"/><polygon points="243.19 391.39 236.46 412.09 214.66 412.09 232.3 424.9 225.57 445.6 243.18 432.8 260.83 445.63 254.1 424.9 271.73 412.09 249.91 412.09 243.19 391.39" style="fill:#f7d116"/><polygon points="535.23 319.39 528.5 298.68 521.78 319.38 499.98 319.38 517.62 332.19 510.89 352.89 528.5 340.1 546.15 352.92 539.42 332.2 557.04 319.39 535.23 319.39" style="fill:#f7d116"/><polygon points="265.83 487.11 283.44 499.9 276.7 520.63 294.33 507.82 311.94 520.61 305.21 499.91 322.86 487.09 301.07 487.08 294.34 466.36 287.6 487.11 265.83 487.11" style="fill:#f7d116"/><polygon points="463.93 244.4 442.17 244.4 459.77 257.19 453.04 277.92 470.67 265.11 488.28 277.9 481.55 257.2 499.2 244.38 477.41 244.38 470.67 223.66 463.93 244.4" style="fill:#f7d116"/></svg>