<svg xmlns="http://www.w3.org/2000/svg" viewBox="0 0 900 600"><title>Cayman_Islands_Final</title><rect width="900" height="600" style="fill:#012169"/><path d="M0,300H450V0H900V600H0Z" style="fill:#012169"/><path d="M684.8,108c-3.7,1.1-7.81,5.72-9.19,8a18,18,0,0,0-2.35-7.6c-.94,3.81-4.27,7.14-1.91,12.39-4.15-1.4-7.85-1.9-11.1,1.65-3.84-5.13-8.28-9.07-13.4-11.18a134.66,134.66,0,0,1,14.87,28.28C653,127,646.33,123.8,642.12,120.31c2,3.86,5.43,10.76,9.11,17.9-7.38-6.47-15.89-11.6-25.13-13.11,6.33,3.66,15.38,11.77,22.67,21.4-8.26-4.92-17-8.88-25.49-9.49,7.42,3.93,17.5,11.87,25.45,19.83-8-5.35-16.78-9.7-25-10.78,4.56,2.77,14.41,10.33,22.23,16.73l-.72.44c-.24.16-.52.31-.76.48l-.32.24h-.08L644,164l-.84.64c-.28.22-.78.65-1.15,1l-.32.32h0l-.16.12h0l-.12.16h0l-1,.48c-1.83-.93-5.42.42-6.92,1.37a10,10,0,0,1-6.76-3.78c-3.3-4.29-12.26-6.19-16-2.37-1.41,1-3.28,1-4.69,1.45-2.36,0-5.2,2.35-4.26,7.12,1.89-1.43,2.36,0,3.78,0l.2-.08H606a4.9,4.9,0,0,1-.08.88h0v.44c0,2.38,5.15,7.15,9.86,6.68a16.07,16.07,0,0,1,4.41.56h0l.28.08h0a8.88,8.88,0,0,1,3.74,2.21c.18.18.33.31.44.44h0v.16h0a5.22,5.22,0,0,1,.2.76v.08h0a4.71,4.71,0,0,0,.12.68h0v.16h0s.11.23.16.36c.63.64,1.1,1.1,1.19,1.57v.08h0v.16h0V186a5.19,5.19,0,0,1-1.55,1.69,9.71,9.71,0,0,0,0,14.76A30.24,30.24,0,0,0,635,207.52a3.69,3.69,0,0,0-1.15.68l-.16.16a1.85,1.85,0,0,0-.44,1.24c-3.61,0-6.61,1.6-9.9,3.82-3.77,2.38-4.73,9.06-1,12.87a15.73,15.73,0,0,0,6.16,3.82h-42v99.57h0c.48,17.57,2.87,32.5,6.88,45.33-.88-.79-1.74-1.48-2.51-2.17a18.55,18.55,0,0,1,1.23,1.61,18.81,18.81,0,0,0-2-1.81,7.72,7.72,0,0,0-5.33-2.13c-4.17,0-8.54,2.85-11.13,5.47-.69.7-1.35,1.35-1.91,2h0c-4.15,4.25-11.76,10-17.78,12.59-6.13,3.34-11.31,8.61-6.12,18.62a148,148,0,0,0,11.49,18.7c-5.44.66-11.63-.94-18.57-6.8a2.51,2.51,0,0,0-.6-.4c-.84-2-1.58-3.74-2.23-5.31-2.36-5.72-7.06-12.4-12.25-10.5s-4.71,5.72-3.3,10c.94,4.75,4.66,23.2,9.35,30.41h0c2.83,7.63,23.08,17.66,46.65,4.79l.56-.32C609.82,479,647.9,488,675.13,488s65.19-9,95.84-36.72c.26.15.53.33.8.48,23.1,12.87,43.35,2.84,46.65-4.79h0c4.22-7.2,8-25.66,9.39-30.41.94-4.29,1.88-8.11-3.3-10s-9.89,4.78-12.25,10.5q-1,2.35-2.23,5.31a2.54,2.54,0,0,0-.6.4c-7.08,6-13.42,7.52-19,6.76a149.3,149.3,0,0,0,11.45-18.66c5.18-10,0-15.29-6.12-18.62-6.16-2.67-13.57-8.64-18-12.91h0c-.51-.55-1-1.12-1.63-1.69-3.2-3.7-10.44-7.88-16-3.78v-.12a40.57,40.57,0,0,0-3.66,3.26c.79-2.58,1.54-5.23,2.19-8h-.08a161,161,0,0,0,3.7-21.92h.16a145,145,0,0,0,.91-18.66V231.69H636.61c.71-.14,1.46-.3,2.23-.48,4-1.11,8-3.39,11.17-4.34h.08c3.46.43,7.2-.72,14.2-2.33a6.41,6.41,0,0,1-1.27-.93,8,8,0,0,0,.8.44c4.24,2.38,16.06.95,18.41-.48,3.62,2.75,15.52,2.85,17.7,1.17l.16-.16a7.86,7.86,0,0,0,1.47,1.41c3.29,3.33,12.65,3.32,15.51,2.37a10.24,10.24,0,0,0,1.43,1.41c3.3,2.38,11.79,2.87,13.68-2.37,1.36-2.75,1.94-6.3-.16-9.53,1-.48,1.58-1.68,1.11-3.82-1.78-12.62-9-15-10.62-20.47l.68-.88c4.23.38,7.23.25,9-1.53,1.41-1.91,3.32-5.24,5.21-6.19a2.48,2.48,0,0,0,1-1v-.12h0v-.08h-.32a3.68,3.68,0,0,0-.91.12c-1.82.37-3.09,1-5.53,1l.12-.16.12-.16.08-.16v-.08h0v-.08h0v-.08h0v-.12h0v-.48l-.08-.08h0l-.12-.12-.16-.12a5,5,0,0,0-1.87-.64c-2.36-.48-3.75-2.38-4.69-3.34l-.84-.84c-.55-.55-1.12-1.08-1.67-1.61l-.2-.2c-.48-.46-1-.89-1.43-1.33h0l-.12-.12h0c-.27-.25-.56-.49-.84-.72h0l-.12-.08h0l-.8-.68h0l-.12-.12h0l-.6-.48-.44-.32-.6-.48-.2-.16-.64-.48-.4-.28-.4-.28-.24-.16-.6-.4c-.07,0-.13-.12-.2-.16-.35-.23-.72-.43-1.07-.64l-.4-.24-.24-.12-.2-.12-.44-.24-.44-.24-.2-.12c-.58-.3-1.15-.55-1.75-.8l-.91-.36-.24-.12-.24-.08-.44-.16-.48-.16h-.16c-.23-.07-.44-.17-.68-.24h-.2l-.87-.24a190.07,190.07,0,0,1,31-15.93c-7.71-1.5-17.29,1-25.45,4.18,8.23-8.47,18-18.33,24-24.21-13.37,4.51-26,14.68-34.4,22.89a301.79,301.79,0,0,1,28.75-34.79c-17,6.8-27.69,18.61-34,27,3.52-10.34,11.32-25,16.62-30.37a45.76,45.76,0,0,0-18,14.72,150.38,150.38,0,0,1,6.72-19,129.07,129.07,0,0,0-9,9.41h0a17.24,17.24,0,0,0-6.28,1.89c3-3.87,2.75-9.36,7-10.34-2.77-.28-6.76,1.45-9.9,4.55,1.16-2.55,1.3-5.83,2.66-7.12a2.27,2.27,0,0,1,.28-.24h0ZM760,373.45l.08-.08ZM661.29,122.62c3.73-.09,7,1.36,8.67,3.94-2.83-.36-4.58.61-5.69,2.13a62.85,62.85,0,0,0-3.9-6h.92Zm24.93,2.78h0l-.08.12h-.08l.12-.16h0Zm-16.15,3.42a4,4,0,0,1,1.19.12c-1.32,1.34-3.4,3.53-4.06,5.35-.72-1.5-1.44-3-2.23-4.38a29.56,29.56,0,0,1,4.77-1h.32Zm-1.67,5a10.21,10.21,0,0,0-.76,1.37l-.32-.68a9,9,0,0,1,1.07-.68Zm27.68,29v1.85h-.6a8.74,8.74,0,0,0,.61-1.87Zm14,39.34a37.69,37.69,0,0,1,3.1,8.49c-1.53-2.25-4-2.64-8.87-3-5.51-.43-8-.47-9.78.56a7.05,7.05,0,0,0-2.11-1.85,63,63,0,0,0,17.66-4.18Zm-48.24,1.53a47.89,47.89,0,0,0,5,1.37c-1,0-2,.11-3.1.2a39.65,39.65,0,0,0-5.65.76,40.76,40.76,0,0,0,3.74-2.33Zm10.9,2.33c.51.06,1,.07,1.55.12a3.86,3.86,0,0,0-.64.52,4.69,4.69,0,0,0-.91-.66ZM596.08,383.83l.08.16h0c1.79,10.3-6,22.33-14.12,30.29-1-1.37-2-2.79-3-4.22,1.94-5.62,8-7.43,8.91-2.69,5.19-6.56,9.51-15.61,8.15-23.57Zm168.37,20.84h.4c2.29,0,5.21,2,6.4,5.43-1,1.51-2.14,3-3.22,4.42h0a64.37,64.37,0,0,1-6.12-7.12,3.08,3.08,0,0,1,2.54-2.73Zm-152,7.52A106.57,106.57,0,0,0,624.79,425h0c13.69,12,30,20.9,48.56,28.8h0c.36.15.71.33,1.07.48h0l.6.24.68-.28,1.07-.48,1.19-.52.56-.24h0l.84-.36,2.07-.93h.08l1-.48.28-.12c15.81-7.23,30.33-15.43,42.47-26.06l-.12-.08a105.9,105.9,0,0,0,12.13-12.67,115.47,115.47,0,0,0,13.12,21.44c-20.26,18-45.06,27.07-75.48,27.07s-55.25-9.08-75.52-27.11a109.91,109.91,0,0,0,12.85-21.48Z" style="fill:#fff;stroke:#fff;stroke-linecap:square;stroke-linejoin:round;stroke-width:6.738999843597412px"/><path d="M531.92,446.79c2.83,7.63,23.1,17.64,46.67,4.77,16-9.06,26.4-21.93,36.3-44.82,2.83-5.72,4.24-12.87-2.36-17.16-5.19-3.81-13.67-8.11-17.44-11.92-1.89-1.91-3.77-3.34-5.19-4.77a20.67,20.67,0,0,1,2.83,3.34c9.43,11.44-.47,28.13-10.84,38.14-7.54,7.15-21.21,24.79-41,8.11-4.24-3.81-14.14,11.92-9,24.32Zm286.6,0c-3.3,7.63-23.57,17.64-46.67,4.77-16-9.06-26.4-21.93-36.77-44.82-2.36-5.72-3.77-12.87,2.83-17.16,5.19-3.81,13.67-8.11,17.44-11.92a47.15,47.15,0,0,1,5.19-4.77,20.67,20.67,0,0,0-2.83,3.34c-9.43,11.44.47,28.13,10.37,38.14,7.54,7.15,21.68,24.79,41.48,8.11,4.24-3.81,13.67,11.92,9,24.32Z" style="fill:#fcea83;stroke:#000;stroke-width:0.9359999895095825px"/><path d="M675.22,487.8c37.71,0,95.69-17.16,126.8-77.24,5.19-10,0-15.26-6.13-18.59-6.6-2.86-14.61-9.54-18.85-13.83,7.54,7.63,6.13,12.87.94,21.45-24,40.53-57,61-102.76,61s-78.72-20.5-102.76-61c-5.19-8.58-6.6-13.83.47-21.45-3.77,4.29-12.26,11-18.85,13.83-6.13,3.34-11.31,8.58-6.13,18.59C579.06,470.63,637.51,487.8,675.22,487.8Z" style="fill:#fcea83;stroke:#000;stroke-width:1.5px"/><path d="M588,407.22c-.94-4.77-7.07-2.86-9,2.86a78.52,78.52,0,0,1-6.6-10.49c-5.66-8.58-6.6-14.3,1.41-22.41,3.77-3.81,11.31-8.11,16.5-3.34C601.18,382.9,595.53,397.68,588,407.22Zm173.94,0c.94-4.77,7.54-2.86,9.43,2.86a78.52,78.52,0,0,0,6.6-10.49c5.66-8.58,6.6-14.3-1.89-22.41-3.3-3.81-10.84-8.11-16.5-3.34-10.38,9.06-5.2,23.84,2.35,33.38Zm-230,39.57c-4.71-7.15-8.48-25.75-9.43-30.51-1.41-4.29-1.89-8.11,3.3-10s9.9,4.77,12.26,10.49,6.13,14.3,10.37,24.79c-10.44-6.21-18.91-1.92-16.55,5.23Zm286.6,0c4.24-7.15,8-25.75,9.43-30.51.94-4.29,1.89-8.11-3.3-10s-9.9,4.77-12.26,10.49-6.13,14.3-10.37,24.79c10.32-6.21,18.34-1.92,16.45,5.23Z" style="fill:#db161c;stroke:#000;stroke-width:1.5px"/><path d="M763.28,231.29v93c0,80.57-37.71,108.23-88.15,130.16-50.44-21.93-88.62-49.59-88.62-130.16v-93H763.28Z" style="fill:#fff"/><path d="M675.22,310c4.24,0,10.84-3.81,16.5-9.54,6.13-6.67,16.5-9.06,27.34,0s17.44,5.24,23.1,0,10.37-7.15,21.21-7.15v-62H586.6v62c10.84,0,15.56,1.91,21.21,7.15s12.26,9.06,23.1,0c11.31-9.06,21.21-6.67,27.81,0C663.91,306.18,670.5,310,675.22,310Z" style="fill:#c8102e"/><path d="M675.19,357.63c5.66,0,17-6.2,19.8-7.63,10.37-6.2,17.91-.48,24,2.38,6.6,2.86,18.86,6.2,26.4,0s11.78-5.72,17-5.72c.94-7.15.94-14.3.94-22.41v-5.72c-6.6-1.43-9.9.48-17,6.67s-15.08,4.77-25.45,1c-9.9-4.29-19.8-11.92-29.7,0-2.83,3.34-9.43,8.11-16,8.11-7.07,0-13.2-4.77-16-8.11-10.37-11.92-19.8-4.29-29.7,0-10.37,3.81-18.86,5.24-25.93-1-6.6-6.2-9.9-8.11-17-6.67v5.72A167.93,167.93,0,0,0,588,346.67c5.19,0,9-.48,16.5,5.72s20.27,2.86,26.4,0c6.6-2.86,14.14-8.58,24.51-2.38C658.22,351.43,669.06,357.63,675.19,357.63Zm0,20.5c7.07,0,15.56-2.86,23.1-7.15,9.43-5.24,16-2.86,25.45,1.91,9.9,4.77,17.91,3.34,23.57,0,2.83-1.91,5.19-5.72,11.31-4.29a108.64,108.64,0,0,1-12.26,31c-9.43,2.38-14.61,2.38-24.51-1.91-9.9-4.77-22.16-7.63-28.75-3.34-6.13,3.81-12.73,5.72-17.91,5.72s-11.78-1.91-17.91-5.72c-6.6-4.29-18.86-1.43-28.75,3.34C618.63,402,613.45,402,604,399.6a108.64,108.64,0,0,1-12.26-31c6.13-1.43,8.48,2.38,11.31,4.29,5.19,3.34,13.67,4.77,23.1,0,9.9-4.77,16.5-7.15,25.93-1.91C659.64,375.27,668.12,378.13,675.19,378.13Zm0,76.28c18.86-8.11,36.3-17.16,50.44-29.56-3.77-1.43-6.13-.48-9.43-2.86s-13.2-3.34-21.68,1.43c-9,4.29-12.73,5.24-19.33,5.24s-10.37-1-19.33-5.24c-8.48-4.77-18.38-3.81-21.68-1.43s-5.66,1.43-9.43,2.86c14.14,12.4,31.11,21.46,50.44,29.57Z" style="fill:#0b50a0"/><path d="M638.89,230.81c-6.13,1.43-10.37,1.91-16-3.34-3.77-3.81-2.83-10.49.94-12.87,4.24-2.86,8-4.77,13.2-3.34s18.86,14.3,15.56,14.78C649.26,226,644.08,229.38,638.89,230.81Zm14.61-22.89c1.89-1.43,4.24-2.38,10.37-2.86,5.66-.48,9.9-.48,11.31,3.81,1.89,5.24,3.3,11.44,7.07,14.3-2.36,1.43-14.14,2.86-18.38.48-5.65-2.85-7.06-13.82-10.36-15.72Zm40.54.48c1.89-1.43,4.24-1.43,10.37-1s8.48,1,9.9,5.24c1.41,4.77,0,11,2.83,15.26-2.83,1-12.26,1-15.56-2.38-5.18-3.77-4.71-14.73-7.58-17.12Z" style="fill:#fff;stroke:#000;stroke-width:1.5px"/><path d="M722.33,211.26c-4.24-1-7.07-1.43-9,0,2.36,2.86.47,14.3,5.19,18.12,3.3,2.38,11.78,2.86,13.67-2.38C734.59,222.23,734.59,215.08,722.33,211.26Zm-48.55-4.77c1.41-1.43,4.24-1.91,9.9-1.91,6.13,0,9.9,1,11.78,4.77,1.89,4.77,1.41,11,4.71,14.78-1.41,1.91-14.14,1.91-17.91-1-5.18-3.29-5.66-14.25-8.48-16.64Zm-40.07,4.29c0-2.38,3.3-2.86,11.78-3.34,8.48-1,9-.48,11.78,5.72,1.41,3.34,3.3,9.06,7.07,11-10.37,2.38-13.67,3.81-19.33.48-4.24-2.38-9-8.11-9.9-10.49-.46-1.46-.46-2.89-1.4-3.36Z" style="fill:#073163;stroke:#000;stroke-width:1.5px"/><path d="M656.34,162.15c-9.9-7.63-21.68-14.78-32.53-16.21,7.07,4.29,26.87,20,32,25.27" style="fill:#f9d050;stroke:#000;stroke-width:0.75px"/><path d="M662,155c-11.78-8.11-25.45-17.16-38.65-18.12,9.9,5.24,24.51,17.64,32.53,27.65m21.21-22.89c6.6-14.78,13.67-22.89,23.1-31.94-4.71,10-9.9,30.51-12.26,38.62" style="fill:#f9d050;stroke:#000;stroke-width:0.75px"/><path d="M687.45,139.27c4.71-10.49,11.78-19.55,24-25.27-6.13,6.2-15.56,24.79-17.91,34.8" style="fill:#f9d050;stroke:#000;stroke-width:0.75px"/><path d="M691.69,148.81c5.66-8.11,17-23.36,37.24-31.47-11.78,11.92-29.23,33.85-33.47,42.43m2.83-.48c8.48-4.77,25.45-12.4,37.71-10-7.54,2.86-30.17,13.35-40.07,22.89" style="fill:#f9d050;stroke:#000;stroke-width:0.75px"/><path d="M696.4,156c8-8.58,22.63-21.45,38.18-26.7-11.31,11-35.35,35.76-38.65,39.57m-22.16-18.12c-5.66-17.64-14.14-34.33-26.87-39.57a131,131,0,0,1,20.74,48.63m-4.71-9.54c-9.43-11.44-22.16-22.89-36.77-25.27,9.9,5.72,26.4,22.41,32.53,38.62" style="fill:#f9d050;stroke:#000;stroke-width:0.75px"/><path d="M668.12,149.76c-11.78-21.45-20.74-25.27-25.93-29.56,4.24,8.11,14.61,29.56,20.74,38.62" style="fill:#f9d050;stroke:#000;stroke-width:0.75px"/><path d="M644.55,148.33c5.66,3.34,14.14,11.44,17,16.69m-17-6.67c2.83,2.38,8,5.24,12.73,9.54m43.37-2.38c4.71-3.81,15.08-10,20.27-11.92m-23.57,8.58c4.71-6.2,14.14-14.78,17.44-17.64m-4.24-11.92c-4.24,4.77-14.14,16.69-17.91,22.41m5.66-26.7c-3.3,4.29-9.9,16.69-11.78,21m-25.45-20c2.83,7.63,8,20.5,9.9,25.75m-14.14-17.64c1.89,2.86,5.66,9.54,7.07,14.3" style="fill:none;stroke:#000;stroke-width:0.75px"/><path d="M672.83,135c0-4.29,2.83-9.06,5.66-9.06,3.3,0,5.66,5.72,5.66,9.06,0,3.81-2.83,7.15-5.66,7.15S672.83,139.27,672.83,135Z" style="fill:#f9d050;stroke:#000;stroke-width:1.1369999647140503px"/><path d="M666.71,138.79c.47-4.77,3.77-8.58,6.6-8.11s4.24,6.2,3.77,9.54c-.47,3.81-3.77,6.67-6.13,6.2C668.59,146.42,666.23,143.08,666.71,138.79Zm12.73,1.43c-.94-4.29.94-9.06,3.77-9.54s5.66,4.29,6.13,8.11c.94,3.81-1.41,7.63-3.77,7.63-2.37.48-5.67-1.91-6.14-6.2Z" style="fill:#f9d050;stroke:#000;stroke-width:0.75px"/><path d="M672.36,144c0-4.77,2.83-9.06,5.66-9.06,3.3,0,5.66,5.24,5.66,9.06s-2.83,7.15-5.66,7.15S672.36,148.33,672.36,144Z" style="fill:#f9d050;stroke:#000;stroke-width:0.75px"/><path d="M663.88,146.42c0-4.29,3.3-9.06,6.13-9.06s5.66,5.72,5.66,9.06c0,3.81-3.3,7.15-5.66,7.15C667.18,153.57,663.88,150.71,663.88,146.42Zm17.44-1.91c0-4.29,2.83-9.06,5.66-9.06,3.3,0,5.66,5.72,5.66,9.06,0,3.81-2.83,7.15-5.66,7.15S681.32,148.81,681.32,144.51Z" style="fill:#f9d050;stroke:#000;stroke-width:0.75px"/><path d="M679.43,148.33c0-4.77,3.3-9.06,6.13-9.06s5.66,5.24,5.66,9.06-2.83,7.15-5.66,7.15S679.43,152.62,679.43,148.33Z" style="fill:#f9d050;stroke:#000;stroke-width:0.75px"/><path d="M671.89,152.62c0-4.77,2.83-9.06,5.66-9.06,3.3,0,5.66,5.72,5.66,9.06,0,3.81-2.83,7.15-5.66,7.15S671.89,156.91,671.89,152.62Zm-11.78,0c0-4.77,2.36-9.06,4.71-9.06s4.24,5.72,4.24,9.06c0,3.81-2.36,7.15-4.24,7.15C662.46,159.77,660.11,156.91,660.11,152.62Zm26.4-1c0-4.29,2.36-8.58,4.71-8.58s4.71,5.24,4.71,8.58c0,4.29-2.83,7.15-4.71,7.15-2.36.05-4.72-2.77-4.72-7.1Z" style="fill:#f9d050;stroke:#000;stroke-width:0.75px"/><path d="M689.33,159.77c.94-4.77,3.77-8.58,5.66-8.11s2.36,6.2,1.41,9.54c-.47,4.29-3.3,6.67-5.19,6.2S688.39,163.59,689.33,159.77Z" style="fill:#f9d050;stroke:#000;stroke-width:0.75px"/><path d="M680.38,158.34c.47-4.29,3.3-8.58,5.66-8.11,2.83,0,4.24,5.72,3.77,9.06-.47,4.29-2.83,7.15-5.19,6.67C682.26,166,679.9,162.63,680.38,158.34Zm-13.2,1.43c-1.41-4.77-4.24-8.11-6.13-7.63s-2.36,6.2-1.41,9.54c.94,3.81,3.77,6.2,5.66,5.72,1.41-.48,2.82-3.81,1.88-7.63Z" style="fill:#f9d050;stroke:#000;stroke-width:0.75px"/><path d="M663.88,158.82c0-4.29,2.36-8.58,4.71-8.58,2.83,0,4.71,5.24,4.71,8.58,0,4.29-2.36,7.15-4.71,7.15C666.71,166,663.88,163.11,663.88,158.82Z" style="fill:#f9d050;stroke:#000;stroke-width:0.75px"/><path d="M671,160.72c0-4.77,2.83-9.06,5.66-9.06,3.3,0,5.66,5.24,5.66,9.06s-2.83,7.15-5.66,7.15S671,165,671,160.72Z" style="fill:#f9d050;stroke:#000;stroke-width:0.75px"/><path d="M673.31,108.28c-.94,3.81-4.24,7.15-1.89,12.4-4.24-1.43-8-1.91-11.31,1.91,4.24-.48,8,1,9.9,3.81-3.77-.48-5.66,1.43-6.6,3.81,3.3-1,6.6-1.91,8-1.43-1.41,1.43-3.77,3.81-4.24,5.72,2.83-2.38,6.13-1.91,8-3.34-1.41,3.34,1.41,6.67,3.77,10-.47-4.77,2.36-8.11.94-10.49,4.24,1,4.71,4.77,10.84,4.77-2.36-1.43-3.77-6.2-6.6-6.2,1.41-.48,7.07-1,8,0a8.6,8.6,0,0,0-6.13-3.81c1.89-1.91,5.19-5.72,7.54-6.67-3.3.48-8.48,1-10.37,3.81,4.71-3.81,3.77-11,9-11.92-2.83-.48-7.07,1.43-10.37,4.77,1.41-2.86,1.41-6.67,3.3-7.63-3.77,1-8,5.72-9.43,8.11A18.13,18.13,0,0,0,673.31,108.28Z" style="fill:#f9d050;stroke:#000;stroke-width:0.75px"/><path d="M675.66,115.91c0,1.43,0,4.29-.47,5.24m6.6-5.72a12.56,12.56,0,0,0-2.83,7.15m5.66-1.43a7.6,7.6,0,0,0-3.3,4.29" style="fill:none;stroke:#000;stroke-width:0.75px"/><path d="M634.65,168.35a10,10,0,0,1-8-3.81c-3.3-4.29-12.26-6.2-16-2.38-1.41,1-3.3,1-4.71,1.43-2.36,0-5.19,2.38-4.24,7.15,1.89-1.43,2.36,0,3.77,0,.94-.48.47.48.47,1.43,0,2.38,5.19,7.15,9.9,6.67,5.19,0,7.54,1.91,8.48,2.86,1.41,1.43.47,1,1.41,3.34,1.41,1.43,1.89,1.91-.47,3.81a9.73,9.73,0,0,0,0,14.78c6.13,4.77,21.68,11.92,39.12-1.91,17-13.35,43.37-5.72,45.25-1a39.77,39.77,0,0,1,3.77,10c.47,1.91,2.83,3.81,6.13,3.34a16.69,16.69,0,0,1,9,2.86c2.36,1.43,5.66,1,4.71-3.34-1.89-13.35-9.9-15.26-10.84-21.45,4.71.48,8,.48,9.9-1.43,1.41-1.91,3.3-5.24,5.19-6.2,1.41-1,1.41-1.91-.47-1.43-2.36.48-3.77,1.43-8,1C707.24,181.7,646.44,165,634.65,168.35Z" style="fill:#059334;stroke:#000;stroke-width:1.5px"/><path d="M730.81,184.56c-2.36,1.43-4.71,3.81-9,9.54-4.71,6.2-18.86,12.4-36.3,12.4-17,0-27.34-2.86-34.88-9.06a59.54,59.54,0,0,0-10.37-6.67c-5.19-2.38-6.13-7.63-4.71-11.92-1.41,2.38-2.36,4.77-5.19,4.29-1.89,0-5.66,0-4.71,1.91-.47-1-.47-2.38-.94-2.86l-.94-1c1.41,1,4.71-1.91,7.07-1.91,1.89.48,4.24-1.91,3.77-4.77-.47-2.38-.94-4.29-1.41-6.2,3.77-1.91,53.27,7.15,63.17,8.11C706.3,176.93,734.59,181.23,730.81,184.56Z" style="stroke:#000;stroke-width:1.5px"/><path d="M641.25,166.45c4.71-4.77,10.37-7.15,16-5.72h1.41c2.83-2.38,9.43-2.86,13.2-1h1.89c5.66-1.91,16.5,0,20.27,3.81l1.41,1c12.73-1,20.27,4.77,29.23,13.83.94,1,2.36,2.86,4.71,3.34,2.83.48,3.3,1.91.94,3.34-2.83,1.43-5.19,3.81-9.9,9.06-4.24,5.72-17.91,11.44-34.88,11.44-16.5,0-26.4-2.86-33.94-8.58a87.79,87.79,0,0,0-9.9-6.67c-2.83-1-6.6-4.77-5.19-8.58.94-3.81-1.41-8.58-3.3-13.35,1.41-1,5.19-2.38,7.07-1.43Z" style="fill:#059334;stroke:#000;stroke-width:1.5px"/><path d="M724.69,178.37c-9-9.06-16.5-14.78-29.23-13.83a7.16,7.16,0,0,1-.47,2.86c7.54,2.86,18.38,11.44,23.1,17.64C720,183.13,723.27,180.75,724.69,178.37ZM694,163.59c-3.77-3.81-14.61-5.72-20.27-3.81,0,1.91,0,4.77-.94,6.67,3.3,1.43,6.13,4.77,9,8.11,1.89-.48,6.6-1.91,9-2.38A46.2,46.2,0,0,0,694,163.59Zm-22.16-3.81c-3.77-1.91-10.37-1.43-13.2,1a21.81,21.81,0,0,0-1.41,7.63,10.29,10.29,0,0,1,5.66,2.38c2.83-1,6.6-2.86,8-4.29.53-2,1.47-4.82,1-6.73Zm-30.64,6.67c4.71-4.77,10.37-7.15,16-5.72-.94,1.43-1.41,4.29-1.41,7.15-5.19-.48-11.78,1-14.61,2.86Z" style="fill:#00493d;stroke:#000;stroke-width:1.5px"/><path d="M716.2,186c-4.24-6.2-14.61-13.35-21.68-16.69,0,.48-.94,2.38-1.41,3.81A182.16,182.16,0,0,1,704,192.19C706.3,191.24,712.9,188.38,716.2,186Zm-35.83,10.49a180.09,180.09,0,0,0,1.41-19.55c2.36-.48,7.07-1.91,9-2.38,2.36,3.81,8,13.83,10.37,18.59-5.69,1.43-15.15,3.85-20.77,3.33Zm-16.5-22.89a35.47,35.47,0,0,0,8-4.77A47.15,47.15,0,0,1,679,175.5c0,4.29-1.41,16.69-1.89,21-3.77,0-9.9-1-13.2-2.86.44-7.17.91-15.27,0-20Zm-23.57,5.72a20.7,20.7,0,0,0,.94-5.72c3.77-2.38,13.2-4.77,20.27-1a128.45,128.45,0,0,1-.47,19.55c-6.12-4.73-16-11.4-20.73-12.83Z" style="fill:#00493d;stroke:#000;stroke-width:1.5px"/><path d="M616.74,170.74c-.94,0-1.41-2.86-3.3-2.86-.47,0-1.89.48-2.36,0a3.66,3.66,0,0,0,.94,2.38C612.5,171.69,614.85,170.74,616.74,170.74Z"/><path d="M616.74,178.84c5.66,0,6.6-7.15,9.43-7.63M620,179.32c4.24,1.91,7.54-8.11,10.84-7.63m-19.33-4.77c1.41,0,2.36-1.91,4.71.48a5.06,5.06,0,0,0,3.3,1.43m-.94,5.24c-1.89,2.86-5.19,4.77-7.07,3.81m-.94-15.73c-1.41,1-2.36,2.86-3.3,4.29m-1.41,2.86v2.38" style="fill:none;stroke:#000;stroke-width:1.5px"/><path d="M662.93,254.65c.47,1-.47,3.34,0,4.29.94,1.91.94,2.86,2.36,3.81h3.3c10.37,0,22.63-4.29,33-4.29,9.9,0,16,3.34,21.68,3.34,3.3,0,6.13-2.38,6.13-4.77s-3.77-3.81-11.78-3.81c-11.31,0-17.44,2.86-26.87,2.86-14.14,0-16.5-5.24-16.5-7.63s2.36-5.72,9.9-5.72c2.36,0,4.24-.48,5.19-1.43A10.59,10.59,0,0,1,694,237c3.3-1.91,9.9,0,13.2-2.38,0,1.91-2.83,4.77-5.19,5.72,4.71-1.43,9.9-1.43,10.84,2.38-2.36-1.43-6.13-.48-7.54,0-1.89.48-2.83,1-4.71,1.43,1.89-.48,2.83,3.34,5.66,3.34-2.83,2.38-7.54,2.38-12.26.48-1.41-.48-5.19-1.91-7.54-1.91-4.71,0-7.54,1-7.54,2.86,0,2.38,2.83,3.81,11.31,3.81s13.2-2.38,25.93-2.38c-.94-1.43.47-2.86-1.41-4.29,4.71,0,9.9,1.43,11.78,4.77-.47-3.34,2.36-6.2,1.41-9.06a7.71,7.71,0,0,1,5.66,5.72c0-1.43,1.89-1.43,1.89-2.86a7.39,7.39,0,0,1,3.77,7.63c1.41-2.38,2.83-1.43,3.77-4.29.94,1.91.47,7.63-2.83,9.54a7.38,7.38,0,0,1,9.9,1.43c-2.83-.48-4.24,1-5.66,1.43-5.66,3.34-15.08,5.24-22.16,4.77-7.54-.48-8.48-1.91-13.2-1.91,2.83.48,8.48,6.2,13.67,6.2,3.3,0,5.66,0,7.07-.48s3.77,0,5.66,1c1.41,1.43,4.24,2.86,6.13,2.38a4.17,4.17,0,0,1-2.83,3.34c2.36,1.43.94,2.38,3.3,4.29-.94,0-1.89,1-3.3.48,1.41,1.43,1.41,3.34,2.83,4.29-.47,0-1.89.48-2.83,0,1.41,1.91,0,4.29,1.41,5.24,1.41,1.91-1.41,4.29-3.77,2.38a1.9,1.9,0,0,1-2.36,2.38c-1.41-.48-2.36-1.91-1.89-2.38,0-.48,0-.48.47-1a3.06,3.06,0,0,1-3.77,1c-.47-.48-.94-1-.94-1.43-3.3,1-4.71-1.91-4.24-3.34s3.3-1.91,4.24-1.43,1.89,1,2.83,0a2.63,2.63,0,0,0,1.41-2.38c0-1.43-1.41-5.72-7.54-5.24-7.07.48-18.38-1.43-24-3.34-.47-.48-.94-.48-1.41-1,0,1.91-1.89,2.86-1.89,4.77a5,5,0,0,0,3.77,5.24c-1.41,2.38-3.77,1.91-4.71.48,0,1.43-1.89,2.38-1.89,4.29-.47-1-.94-1.43-1.41-2.38-1.41,3.34-5.19,5.24-7.07,4.29-2.36,1.91-5.19,1.43-6.13-.48-1.41,1-3.3,1-4.24,0,0,1.43-.94,1-1.41,2.86,0,1-1.89,1.43-2.83,1a2.32,2.32,0,0,1-.55-3.23l.08-.11c-1.41,1-2.83,1-3.77,0,0-1,0-2.38.94-2.86h.94c-.94-.48-2.36,0-3.3-.48a2.26,2.26,0,0,1-.47-2.86c.47-.48,1.89-1.43,2.83-.48l.47.48c0-1,.47-1.91.94-1.91.94-.48,2.36-.48,3.77,1,.94,1.43,1.89,1.43,4.71,1,2.36,0,6.13-2.38,9-4.77-8-1.43-3.3-6.67-.94-8.58a10.5,10.5,0,0,0-6.6.48c-9.9,5.24-20.27,11.44-26.87,9.54a6.83,6.83,0,0,0,.94,2.86c-1.41,0-4.24,0-5.19-1.43-.47,1-1.41,3.34-.47,5.24-.94-1-3.77-1.91-5.19-2.38.94,1,0,2.86.47,4.29-1.41-1.43-3.77-2.38-4.71-1.43a4.48,4.48,0,0,1-4.24,1,7.34,7.34,0,0,1-3.77,2.86c0-1,0-2.38-.47-2.86a8.12,8.12,0,0,1-3.77,4.29,8.2,8.2,0,0,0-.47-3.34c0,1.91-3.77,2.86-4.24,4.29a12,12,0,0,0,.47-3.81,7.23,7.23,0,0,1-4.71,3.34c.47-1,.94-1.91.47-2.86-.47,1.91-3.3,2.86-5.66,2.38,0,1-1.89,2.38-4.24,1-1.41-.48-2.36-1.91-1.41-2.86-1.89,0-3.77-1.91-2.83-3.34,0-.48.47-1,.47-1.43a2.71,2.71,0,0,1-.47-4.29c.47-.48,1.89-.48,2.83-.48,0-3.81,3.3-3.81,4.71-1,.94,1.43,3.77,3.81,6.13,3.34.94,0,1.41-.48,2.36-.48,2.83-1,8.48-3.34,11.78-6.2a9.41,9.41,0,0,0,.47-3.34c-1.89,1-3.77,1.91-4.71,3.34v-1.43c-1.41,0-3.77-.48-4.71-.48.47-.48.94-2.86,1.89-3.34a15,15,0,0,1-6.6-.48c.94-1,.94-2.38,1.41-3.81-.94.48-3.3-.48-5.19,0,.47-1.43.94-3.34,2.36-3.81a11.19,11.19,0,0,1-6.6-1c1.89,0,2.83-2.38,4.24-2.38-3.77,0-4.71-1.91-6.6-2.86,1.41.48,2.36-1,3.77-1-1.41-.48-3.77-2.86-2.83-4.29-.47.48-.94,1.43-1.89,1.91s-2.83,0-4.24-1.43c-.94-1.91-.47-4.29,1.41-4.77a2.29,2.29,0,0,1-1.41-3.81c.47-1,2.36-2.38,3.3-1,.47.48.94,1.43,1.41,1.91a12,12,0,0,1-.47-4.29c.47-1.43,1.41-1.43,2.83-1.91a2.66,2.66,0,0,1,2.36,2.86c0,1.43.47,2.38.94,4.29,0-.48.47-1.43.47-1.91,0-1.91,2.36-1.43,3.77-1s1.89,3.34,0,4.77c-.94,1-.47,2.38.47,3.34,3.3,5.24,9,9.54,13.67,10a7.7,7.7,0,0,1,2.36-5.24,8.92,8.92,0,0,1,.94-3.34c.47-2.86,1.89-4.29,3.77-3.34-.47-.48-.94-1-.94-1.43-1.41-1.43-2.83-3.81-1.89-5.72s3.77-1.43,4.71-.48c-.47-2.86,2.83-5.24,2.83-6.67.47,1.43,1.41,3.34.94,4.77.47-1.91,3.77-4.29,6.13-5.24-.94,1.43,1.89,3.81,1.41,5.24.94-2.38,4.71-3.81,7.54-3.81-.94,1-.94,2.86-.94,3.81,1.41,0,3.77-.48,4.71-1.91a7.33,7.33,0,0,1-1.89,4.77c.47-.48,2.36-.48,3.77-.48-1.41,1.43-.94,2.86-2.36,3.81,1.89-1,4.24-1,4.71,1,.94,1.43-.47,3.81-1.41,5.24C664.35,253.7,663.41,254.65,662.93,254.65Z" style="fill:#f9d050;stroke:#000;stroke-width:1.5px"/><path d="M633.71,260.37c-3.3,1.43-4.24,4.77-4.71,6.67m4.24-3.34c-4.71,2.86-6.6,5.24-5.66,10.49m8,3.81c2.83-1,4.71-1.91,7.07-6.2" style="fill:none;stroke:#000;stroke-width:1.5px"/><path d="M641.25,273.72c-.94,1.91,0,5.24-1.41,6.67a8.91,8.91,0,0,0,4.71-6.67" style="fill:none;stroke:#000;stroke-width:1.5px"/><path d="M642.19,279a15.63,15.63,0,0,0,6.13-7.15c-.47,1.43,0,3.81-.94,5.24,2.36-2.38,3.3-3.81,3.77-6.2,0,.48.47,1.43.47,1.91a5,5,0,0,0,1.89-3.81m0,1.43v2.38c1.89-1.43,2.36-3.34,2.36-5.72m-.47,2.86c2.83-1.91,3.3-4.77,3.3-9.06m0,4.77c1.89-1.43,2.36-2.38,2.36-6.67m-6.13-12.87A1.74,1.74,0,0,0,653,248c0,1-1.41,2.38-1.41,3.81-.47,1.91-1.41,2.38-2.83,1.91-1.41-1-1.41-1-1.41-2.38,0-1.91,2.36-2.38,2.36-4.29.47-1,.94-2.38,1.41-2.38-2.36,1.43-5.66.48-6.13-2.38" style="fill:none;stroke:#000;stroke-width:1.5px"/><path d="M659.16,247.5c-.94.48-1.89-1-3.3-.48-.47,0-1.89.48-2.36,0" style="fill:none;stroke:#000;stroke-width:1.5px"/><path d="M652.56,249.88a5.64,5.64,0,0,0,5.19.48,1.83,1.83,0,0,1-1.41-3.34m-8-1.91c-1.89,0-3.3,1.43-2.83,2.86s2.36,1.43,3.77.48M645,269a3.63,3.63,0,0,0,1-2,3.58,3.58,0,0,0,2.36-1,4.11,4.11,0,0,0,3.77-2.86c.94,0,1.41-2.38,1.89-3.34.47.48,1.41,0,1.89-1.91a2.1,2.1,0,0,0,2.83-1.43m-19.33-3.34c0,.48-.94,1.43-1.89,1.91.47,1,0,3.34-.94,3.81.47,1,0,2.38-.47,3.34,0,.48.47,1.91.47,2.38m4.71-21c-.94,2.38-.47,5.24,1.41,5.72" style="fill:none;stroke:#000;stroke-width:1.5px"/><path d="M642.19,251.31c-.47,2.38-.47,5.72-.94,7.15-.47,1-1.41,4.29,2.36,5.24,4.24,1,6.6.48,9-6.67m7.07,18.59a1.51,1.51,0,0,1-1.41,1.43m4.71-2.38a5.46,5.46,0,0,1-1.41,2.86m4.71-3.81c0,1,0,2.38-.94,2.86m-27.81-32.42c.47,0,.94,1,1.41,1.91-1.41-1-2.83,1.43-1.89,2.86m-.94,3.34c-.47.48-1.41,1-1.89,1.43m.47,2.86c-.47,0-.94.48-1.41.48M612,248c0-.48,0-.48.47-1m-4.71-.48c-.47,0-.47,0-.94-.48m1.41,7.15h.94m-2.83-2.86a5.16,5.16,0,0,0-2.83-1.43M632.29,268c-3.3,2.86-4.71,5.24-5.19,8.58m8.48-6.2a11.21,11.21,0,0,1-3.77,4.29m-14.61,10a10.6,10.6,0,0,1-9.43-1.43c-.47-.48-.94-.48-1.41-1m25-4.29c-.47,1.91-.94,4.29-1.89,4.77,3.77-1.91,7.07-4.77,7.54-9.06M604,287c1.41-.48,2.83.48,3.77-.48M686,271.34a15.62,15.62,0,0,1,2.83,1.43,8,8,0,0,1,3.77-2.86m-40.07,11.44c-.47-1.91.47-4.29,3.3-5.24m-21.68,13.35c.47-1,.47-2.38.94-3.34m-21.68,4.77c-.47,1-1.41,1.91-1.41,2.86m-5.66-1.91a.47.47,0,0,1,.46-.48h0a7,7,0,0,0,2.83-2.38m60.81-3.81c-.94.48-1.41,0-1.89-.48m1.41,2.86a1.64,1.64,0,0,1-.94.48m3.3,1.91c-.47.48-.94,1-1.41,1m15.08,0c.94-.48,1.41-1.43,1.89-3.34m-8,2.86c1.41-.48,2.36-1.43,3.77-2.86m9.43-1a6.11,6.11,0,0,1,.47-2.86M728,290.88a2.06,2.06,0,0,1,.47-3.34c.94-.48,1.41-1,2.36-1.43m-31.6-11.91c-7.54-3.34-7.07-7.63-13.2-7.15M732.7,289c.47.48,0,1.91,0,2.38m4.24-2.38a8.2,8.2,0,0,0-.47,3.34m-35.83-48.15h-3.77M661,260.37c0,1,1.41,2.86,5.19,2.86a1.64,1.64,0,0,1-.94-.48" style="fill:none;stroke:#000;stroke-width:1.5px"/><path d="M662.93,254.65a.65.65,0,0,1-.92,0h0c-.94-1,.47-2.86,1.89-3.81a9.11,9.11,0,0,1-3.3.48c-.94,2.86-3.77,4.29-5.66,2.38-.47,1.91-2.83,4.29-4.71,3.81-1.89-1-2.36-2.38-1.89-3.81-2.36,2.86-5.19,1-6.13,0-.47-1,0-3.34.94-6.2" style="fill:none;stroke:#000;stroke-width:1.5px"/><path d="M693.1,272.77c-1.41,1-2.83,0-4.24,1.43-.94,1,.47,1.43,1.41,1.43-.47,1.43-.47,1.91,1.89,1.91-.94,1.43,1.89,1.91,1.41,3.81a4.59,4.59,0,0,0,.94-4.77C694,275.15,691.69,274.2,693.1,272.77Z"/><path d="M650.21,257.51c-1.89-1-2.36-2.38-1.89-3.81a2.59,2.59,0,0,1-2.36,1.43c-1.89,4.29-4.24,8.11-7.07,8.11-3.3.48-2.83,3.81-.47,3.81C643.61,268,646,266.09,650.21,257.51Zm-46.67-11.44a2,2,0,0,0-.47-3.34,5.19,5.19,0,0,0-5.66,2.38c1.41-.48,2.83-.48,3.3.48s1.42,1.91,2.83.48Zm2.36-8.58c3.3,0,4.24.48,4.71,1.91a1.82,1.82,0,0,1-1.14,2.31h0l-.27.07c-1.41,0-2.83-1-2.36-1.43a1.92,1.92,0,0,0-.94-2.86Zm9.43,7.63c2.36.48,3.3-1,1.89-2.86-.47-1.43-1.89-2.38-4.24-1.91,2.34,1.43,0,3.81,2.34,4.76Zm-17.44,8.11a3.82,3.82,0,0,0,4.71,1.91,2.13,2.13,0,0,0,1.41-2.86c-.94-1.43-2.36-1.91-2.83,0-.94,1.89-2.35,1.42-3.3.94ZM605,282.3c-.94-1.91-3.77-1.91-6.13,0a2.89,2.89,0,0,1,3.3,1,1.87,1.87,0,0,0,1.89,1C604.48,283.73,605.43,283.26,605,282.3Zm3.77-2.86c0-2.38-3.3-2.86-5.19-1.91.94,0,2.36,1,2.36,1.91a2.53,2.53,0,0,0,1.89,1.43c.9-.47,1.37-1,.9-1.43ZM604,288c-2.83-.48-4.24,2.86-4.24,5.24a2.68,2.68,0,0,1,3.27-1.92h0c1.41,0,1.89-.48,1.89-1.43C605.43,289,605,288.5,604,288Zm.47,8.11c.94.48,1.89-.48,2.36-1.91,0-1,1.89-1,2.36-.48.94.48.94,2.38-.47,3.34-.94.5-3.29.94-4.24-.93ZM670,281.83c-.94-.48-3.3-1.43-5.19,0a2.28,2.28,0,0,1,2.83,1.43,1,1,0,0,0,1.89.48C670,283.26,670.48,282.3,670,281.83Zm-4.24,3.34c-1.89-1-4.24,1.43-4.71,3.34a7,7,0,0,1,3.3-1.43,1.2,1.2,0,0,0,1.89-1c.47-.44.47-.92-.48-.92Zm2.36,3.81c-1.41,0-3.3,1.91-3.3,3.81a1.71,1.71,0,0,1,2.16-1.08l.2.08c.94,0,2.36-.48,2.36-1.43a1.26,1.26,0,0,0-1.42-1.36Zm4.24,3.81a1.59,1.59,0,0,0-2.36,1.43c0,1.43,0,2.86-.47,3.34a9.85,9.85,0,0,1,2.83-1.91,2.16,2.16,0,0,0,0-2.86Zm53.27-4.29a1.77,1.77,0,0,0-2.83.48,6.64,6.64,0,0,0,0,5.24c0-1,.94-2.38,1.89-2.38a2.12,2.12,0,0,0,.94-3.34Zm2.83,1.91c-1.89,1-1.89,4.29-.47,6.2a3.41,3.41,0,0,1,1.41-2.86c1.41,0,1.89-1.91,1.41-2.86a2.37,2.37,0,0,0-2.35-.48Zm5.66,1.91c-.94-.48-1.89.48-1.89,1.43-.47,1.43.47,3.34,1.89,4.29a3.66,3.66,0,0,1,.94-2.38c1.41-1,.94-2.87-1-3.35Zm4.24-.48c-.94,0-1.89,1.43-.94,2.86.47,1,1.41,1.43,3.3,1-.47,0-1.41-1.43-.94-1.91.46-1,0-2-1.42-2Z" style="fill:#073163"/><path d="M630.88,307.57l-9,28.13H592.7l23.57,17.16-9,28.13,23.57-17.16L654.45,381l-9-28.13L669,335.71H639.84Zm89.09,0,8.48,28.13h29.7l-24,17.16,9,28.13L720,363.83,696.4,381l9-28.13-24-17.16h29.23Z" style="fill:#f9d050"/><path d="M675.19,359.54l-9,28.13H637l23.57,17.16-9,28.13,23.57-17.16L698.76,433l-9-28.13,23.57-17.16H684.15Z" style="fill:#f9d050"/><path d="M630.88,316.15l-7.07,21.93h-23.1l18.86,13.83L612,374.32l18.86-13.83,18.38,13.83-7.07-22.41L661,338.08H638Zm89.09,0,6.6,21.93h23.57l-18.86,13.83,7.07,22.41L720,360.49l-18.86,13.83,7.07-22.41-18.86-13.83h23.1Zm-44.78,52-7.07,21.93H645l18.86,13.83-7.54,22.41,18.86-13.83,18.38,13.83-7.07-22.41,18.86-13.35h-23.1Z" style="fill:#024919"/><path d="M559.23,403.88l-3.77,1.91a1.91,1.91,0,0,0-.94,1.91H554l-1.89-4.29h.47c0,.48.47,1,1.41.48l8-4.29c.94-.48.94-1,.47-1.43l.47-.48,2.36,4.77h-.47c-.47-.48-.94-1-1.89-.48l-3.3,1.91,1.41,2.86,3.77-1.43c.94-.48.47-1.43.47-1.91h.47l1.89,4.29c-.47-.48-.94-1-1.89-.48l-8,4.29c-.94.48-.94,1-.47,1.43l-.47.48-2.36-4.29.47-.48c.47.48.94,1,1.89.48l3.77-1.91Zm8,6.2c.94-.48.94-1,.47-1.91h.47l4.71,7.15-3.3,2.38v-.48c1.89-1.43,1.89-3.34,1.41-3.81s-.94-1-.94-1.43c-.47,0-.47-.48-1.41.48-.47.48-3.3,2.38-3.3,2.38.47.48.94,1.91,3.3.48h.47l-5.19,3.81v-.48c2.36-1.91,1.41-3.34.94-3.81l-3.3,2.38a1.37,1.37,0,0,0-.94,1.43c.47,0,.47.48.94,1,.47,1,1.89,1.91,4.24,1l.47.48-3.77,1.43-4.71-7.63h.47c.47.48.94,1,1.89.48Zm7.54,18.12-3.3,2.86a1.46,1.46,0,0,0,0,1.91H571l-3.3-3.34.47-.48c.47.48.94,1,1.89,0l6.13-6.2c.94-.48.94-1,.47-1.91l3.3,3.81a1.42,1.42,0,0,0-1.89,0l-2.83,2.86,2.36,2.38,2.83-2.38c.94-1,.47-1.43,0-1.91l.47-.48,3.3,3.81h-.47c-.47,0-.94-.48-1.89.48l-6.13,5.72c-.94,1-.94,1.43-.47,1.91v.48l-3.3-3.81c.47,0,1.41.48,1.89,0l3.3-3.34Zm7.07,10,1.41,1.43,1.89-4.29a21.39,21.39,0,0,0-3.77,1.91l.47,1-.47.48-.94-1c-.47.48-.94.48-1.41,1-1.41,1-.94,1.43-.47,1.91v.48l-2.36-2.38h.47a4.65,4.65,0,0,0,1.89-.48L588,433l.47.48s-.47.48-4.71,10c0,1-.47,1.43,0,2.38L580,442.5l.47-.48a1,1,0,0,0,1.89,0c0-.48.47-1.43.47-1.91l-1.41-1.43Zm3.77,9.54.47-.48c.47.48.94.48,1.89,0l6.13-8.11-.47-.48c-.94-.48-2.36-.48-3.77,1v-.48l1.89-2.38,7.07,5.24-2.36,2.86H596c1.41-1.43.94-3.34,0-3.81v-.48l-6.13,8.11c-.94.48-.47,1.43,0,1.91h-.47Z" style="fill:#00493d"/><path d="M597.88,449.65,595.53,453c-.47,1,0,1.43.47,1.91l-.47.48-3.77-2.86V452c.94.48,1.41.48,1.89-.48l5.19-7.15c.47-1,0-1.43-.47-1.91l.47-.48,3.77,2.86v.48c-.94-.48-1.41-.48-1.89.48l-2.36,3.34,2.83,1.91,2.36-3.34c.47-1,0-1.43-.47-1.91l.47-.48,3.77,2.86v.48a1.16,1.16,0,0,0-1.89.48l-4.71,7.63c-.94.48-.47,1,0,1.43v.48l-4.24-2.86H597a1.72,1.72,0,0,0,1.41-.48l2.36-3.81ZM607.31,463l.47-.48a1.16,1.16,0,0,0,1.89-.48l3.77-8.11c.47-1,0-1.43-.47-1.91l8,3.81-1.89,3.81-.47-.48a3.33,3.33,0,0,0-.47-4.29c-.47,0-.94-.48-1.41-.48s-.47,0-.94,1a27.43,27.43,0,0,0-1.89,3.34c.47.48,1.41,1.43,3.3-1h.47l-2.83,5.72-.47-.48c1.41-2.86-.47-3.34-.94-3.34l-1.89,3.81c-.47,1,0,1.43.47,1.43v.48ZM621,469.67c-1.41-1-1.41-3.81,0-6.67.94-2.86,2.83-5.24,4.71-4.29,1.41.48.94,3.34,0,6.2-1.41,3.34-3.3,5.24-4.71,4.77h-.47c3.3,1.43,5.66-.48,7.07-3.81,1.41-2.86.94-6.2-1.89-7.63s-5.66.48-7.07,3.81-.94,6.67,1.89,7.63Zm14.61,1L637.5,465c.47-1,0-1.43-.47-1.91l2.36.48V464c-.47,0-.94,0-1.41,1l-1.89,5.72c-.94,2.38-2.36,4.29-5.19,3.34a3.9,3.9,0,0,1-2.48-4.93h0a2.48,2.48,0,0,1,.12-.31l2.36-6.2c.47-1,0-1.43-.47-1.91v-.48l4.24,1.91v.48c-.47-.48-1.41-.48-1.41.48l-2.36,6.2c-.47,1.91-.47,3.81.94,4.29s2.81-.59,3.75-3Zm4.24-6.2c0-.48,0-.48-.47-.48l3.3.48,2.83,9.06,1.41-5.72c.47-1,0-1.43-.47-1.91l2.83.48-.47.48c-.47,0-.94,0-1.41,1l-2.4,10.4h-.47l-3.77-11.44-2.36,7.63c0,1.43.47,1.43.94,1.91v.48l-2.83-1v-.48c.47.48,1.41,0,1.41-1l2.36-8.58Zm16,9.54c-.94,4.29-2.83,5.24-3.77,5.24h-.94a.67.67,0,0,1-.05-.95h0l0,0,1.41-9.54c.47-.48.47-1,.94-.48h.94c.94,0,1.89,1.91,1.41,5.72l1.41.48c.94-4.77-.94-6.67-3.3-7.15-1.89-.48-4.71-1-4.71-1v.48c.47.48,1.41.48.94,1.91l-1.41,8.58q-.71,1.43-1.41,1.43h-.47l4.71,1c2.36.48,4.71,0,5.66-5.24Zm4.24-3.81a1.51,1.51,0,0,0-1.41-1.43v-.48l8.48,1-.47,3.81c0-2.38-1.41-3.34-2.36-3.34a1.72,1.72,0,0,0-1.41-.48c-.47,0-.47,0-.47,1.43,0,.48-.47,3.81-.47,3.81.47,0,1.89.48,2.83-2.38l-.47,6.2h-.47c0-2.86-1.41-2.86-1.89-2.86l-.47,4.29c0,1,0,1,.47,1,0,0,.94,0,.94.48,1.41,0,2.83-.48,3.77-3.34h.47l-.94,3.81-9-1c.94,0,1.41-.48,1.89-1.43Zm29.23,9.54c0,1,.47,1,1.41,1v.48l-5.19.48c.47-.48,1.41-1,1.41-1.91l-.94-9.06c-.47-1-.94-1-1.89-1v-.48l5.19-.48c-.47.48-1.41,1-.94,1.91Zm4.71,1v-.48c.47,0,.94-.48.94-1.43l-1.89-10h-.47a2.66,2.66,0,0,0-1.41,3.34h-.47l-.47-3.34,8.48-1.43.47,3.34h-.47c0-1.91-1.41-2.38-2.83-2.38h-.47l1.89,10a1.26,1.26,0,0,0,1.41,1.43v.48Zm20.27-9.54-1.89-5.72c0-1-.94-1-1.41-1V464l2.36-1v.48c-.47.48-.47.48-.47,1.43l1.89,6.2c.47,1.91.47,4.77-2.36,5.72a3.78,3.78,0,0,1-4.71-3.34l-1.89-6.2c-.47-1-.94-1-1.41-1l-.47-.48,4.71-1.43v.48c-.47.48-.94,1-.47,1.91l1.41,6.2a3.45,3.45,0,0,0,3.3,2.86c1.43-.43,1.9-2.34,1.43-4.72Zm5.19-3.34c2.36-1,1.89-2.38,1.41-3.81s-1.41-2.38-2.36-1.91c-.47,0-.94.48-.47,1l1.41,4.77.47.48.94,3.81a1.16,1.16,0,0,0,1.89.48V473l-4.24,1.91-.47-.48c.94-.48.94-1,.94-1.91l-3.3-8.11c-.47-1.43-.94-1-1.89-1V463l4.71-1.91a3.84,3.84,0,0,1,4.71,1.91,3.94,3.94,0,0,1-2.36,4.77,1.64,1.64,0,0,0-.94.48Zm12.26-11.92h-.94l2.83-1.91,8.48,4.77-2.83-5.24a1.87,1.87,0,0,0-1.89-1V452l2.36-1c-.47.48-.94,1,0,1.91l4.71,9.54L744,463l-10.37-5.72,3.77,7.15a1.16,1.16,0,0,0,1.89.48v.48l-2.36,1.43v-.48c.47-.48.47-1,0-1.91l-3.77-7.63ZM753,457.28v-.48c0-.48.47-1,0-1.91l-5.66-8.11h-.47c-.94.48-1.41,2.38,0,3.81l-.47.48-1.89-3.34,7.07-4.77,1.89,2.86a3.26,3.26,0,0,0-3.77-1l-.47.48,5.66,8.11a1.16,1.16,0,0,0,1.89.48v.48Zm5.19-11.44,2.83,3.34a1.42,1.42,0,0,0,1.89,0v.48L759.1,453v-.48c.47-.48.47-1,0-1.91l-5.66-7.15c-.47-1-.94-.48-1.89-.48l3.77-3.34v.48c0,.48-.47,1,0,1.91l2.36,2.86,2.83-1.91-2.36-3.34c-.47-1-1.41-.48-1.89-.48l3.77-3.34v.48c-.47.48-.47,1,0,1.91l5.66,7.15a.88.88,0,0,0,1.41,0l.47.48-3.77,3.34-.47-.48c.47-.48.94-1,.47-1.91l-2.8-3.34Zm4.24-10a1.42,1.42,0,0,0-1.89,0v-.48l6.13-5.72,2.83,2.86H769c-1.41-1.91-3.3-1-4.24-.48,0,.48-.47.48-.94,1a3.72,3.72,0,0,0,.47,1.43l2.83,2.86c.47-.48,1.89-1.43,0-3.81h.47l3.77,4.29v.48c-2.36-2.38-3.3-1-3.77-.48l2.83,2.86c.47,1,.94,1,.94,1l1.41-1.43c.47-.48.94-1.91,0-4.77h.47l1.89,3.34L769,445l-.47-.48c.47-.48.94-1,0-1.91Zm11.31-13.35a1.19,1.19,0,0,0,.47,1.91c.94,1,1.89,1,3.77,0a3.6,3.6,0,0,1,4.24.48c2.36,2.38,1.41,4.29.94,5.24-.47.48-1.41,1-1.89,1.43-.47,0-.47,0-.47.48v.48l-3.3-2.86h.5c1.89,1,3.77,1.43,4.71,0,.94-1,0-1.91-.47-2.38-.94-1-1.89-1-3.3,0a5.52,5.52,0,0,1-4.71-.48c-1.89-1.91-1.89-3.34-.94-4.77.47-.48,1.41-1,1.89-1.43.47,0,.47,0,0-1l3.3,2.38H778c-2.4-1-3.82-.45-4.29.5Zm4.24-3.81c-.94-.48-1.41,0-1.89.48h-.47l5.19-7.63,3.3,2.38-.47.48a3.35,3.35,0,0,0-4.24,0c0,.48-.47,1-.47,1.43-.47,0-.47.48.47,1,.47.48,3.3,2.38,3.3,2.38.47-.48,1.41-1.43-.47-3.34v-.48l4.71,3.81c-2.83-1.43-3.3,0-3.77.48l3.3,2.38a3.62,3.62,0,0,0,1.41.48c0-.48.47-1,.94-1.43.47-1,.94-2.38-.94-4.29l.47-.48,2.36,2.86-4.71,7.1h-.47c.47-1,.47-1.43-.47-2.38Zm12.73-8.58-1.41,2.38a24.58,24.58,0,0,1-2.83-3.34l4.24,1h.94c.47,0,1.41.48,1.89.48,1.41.48.94,1,.47,1.91h.47l2.36-4.29c-.94,1-1.41.48-2.36.48-9.9-1.91-10.84-2.38-10.84-2.38v.48l7.54,8.58a2.89,2.89,0,0,1,.47,1.91h.47l1.41-2.38-.47-.48c-.47,1-.94,1.43-1.89,0l-.94-1,1.41-3.34Zm-2.83-10.49c-.47.48-.47,1.43.94,1.91s1.89,0,3.3-1,2.83-1.91,4.71-1c2.83,1.43,2.36,3.81,1.89,4.77-.47.48-.94,1.43-1.41,1.91v1l-3.77-1.91c2.36.48,4.24,0,4.71-1.43.47-1-.47-1.91-.94-2.38-.94-.48-1.89,0-3.3,1-1.41,1.43-2.83,1.91-4.71,1s-2.83-2.38-1.89-3.81c0-1,.94-1.43,1.41-1.91,0-.48,0-.48-.47-1v-.48l3.77,1.91h-.47c-2.38-.51-3.8.45-3.8,1.4ZM675.66,475.87c0,4.29-1.41,5.72-2.83,5.72-.47-.48-.47-.48-.94-.48a.46.46,0,0,1-.47-.45h0l.47-10c0-.48,0-.48.47-.48h.94c.94,0,2.36,1.43,2.36,5.72h1.89c0-4.77-2.36-6.2-4.71-6.2a23.92,23.92,0,0,0-4.71-.48v.48a1.51,1.51,0,0,1,1.41,1.43l-.47,9.06c0,1-.47,1.43-.94,1.43v.48h4.24c2.36,0,4.71-1,5.19-6.2Zm55.62-6.67c-1.41.48-3.3-1.43-4.71-4.77-1.41-2.86-1.41-5.72,0-6.2s3.3,1.43,4.71,4.29,1.41,5.72,0,6.67c2.83-1,3.77-4.29,2.36-7.63-1.41-2.86-4.24-4.77-7.07-3.81a5.59,5.59,0,0,0-2.41,7.53h0l0,.1c1.42,3.34,4.25,5.25,7.08,3.82Z" style="fill:#00493d"/><path d="M763.28,231.29v93c0,80.57-37.71,108.23-88.15,130.16-50.44-21.93-88.62-49.59-88.62-130.16v-93H763.28Z" style="fill:none;stroke:#000;stroke-width:0.9359999895095825px"/><path d="M0,0V36.06L170.92,150,0,264v36H54.08L225,186.06,395.91,300H450V264L279.08,150,450,36.06V0H395.91L225,113.95,54.08,0Z" style="fill:#fff"/><path d="M0,300,150,200h33.54L27,300ZM0,0,150,100H116.46L0,22.36ZM266.46,100l150-100H450L300,100ZM450,300,300,200h33.54L450,277.64Z" style="fill:#c8102e"/><path d="M225,0V300M0,150H450" style="stroke:#fff;stroke-width:83.33300018310547px"/><path d="M225,0V300M0,150H450" style="stroke:#c8102e;stroke-width:50px"/></svg>