<svg xmlns="http://www.w3.org/2000/svg" viewBox="0 0 1000 500"><title>Christmas_Island</title><rect width="1000" height="500" style="fill:#0021ad"/><path d="M0,0H1000V500Z" style="fill:#1c8a42"/><circle cx="500" cy="250" r="90.32" style="fill:#ffc639"/><path d="M444.84,209.43c6.18,8.48,15.54,22.69,23.07,19,5.88,0,8.91.43,9.71,4.34,13.86,2.36,37.15-3.49,51.65-22.37,0,0,1.22.16.8-7,.08-3.12,4.27-2.5,4.37-1.48.58,1.55.48,2.71,1.27,2.75,1.78-.59,4.22-4.6,6.27-7.14.55-1.12.25-2.3.38-3.71,1.08-2.65,3.77-2.08,4.33-.69.51.9.52,1.58,1,2.48,2.73,1.82,7.66.12,8,.12.48-2.23,1.92-2,1.92-2,1.82-.4,1.11-.24,2.31.38-1.06,12,2.36,12.54,2.08,18.7.12,6.87-2.08,8.83-2.08,11.45.7,3.21,10.84,3.32,7.27,6-3.13,1.67,0,4.81-4.71,6-13.73,7-16.36,12.94-16.36,12.94s-3.45,6.51-3.83,6.51c-2.3,4.34-5.21,2-6.83,4.09-.81,2.66-1.71,8.56-.1,11.62.81,4.21-.1,6.51-1.11,10.72-.91,8.79-4.39,10.12-4.8,13.2-1.61,3.3.34,18.78-1.19,18.78-10.22.2-18.05-2-22.09-2.76A117.09,117.09,0,0,0,508.64,278c-1-12.15-18.19-9.19-20.82-10.8-2.18-.46-3.55-2.24-4.31-3-2.43-.26-3.34-.82-5.77-1.07-1.21.6-.48,1.23-3.19,2.07-6.85.83-9.88-6-9.88-6,.33-2.29-15.41.46-24-1.52-3.51,2-5,7.74-7.91,8.43-.08,1.79-4.73-1.47-5.66-3.24-.19-5.13,4.48-7.4,4.48-7.4,3.71-2.61,5.91-3,7.69-4.84.9-4.47.44-7.77,2.35-11.13,1.61-2.56,4-1.36,5.6-2.51s2.47-8.67.87-10.72c0,0-6.93-6.26-7.32-6.64-2.26-6.47,2.64-10.64,4-10.17Z" style="fill:#1c8a42"/><path d="M877.93,97.56c-4.09-16.19-40.72-51.07-68.25-73.26-6.57-4.48-10.85-1.81-10,4.57,3.43,5.72,6,12,9.42,17.72,1,3.81,2.76,6.48,3.72,10.29,0,0,.28,6.57.86,7.14,8.57,9.43,9.72,17.43,9.72,17.43,4.95,9.53,9.33,16.48,18,24.29,9.72,6.1,2.57,25,2.85,35.15,0,6.38-4.57,5.62-8.57,4.86-31.53-29-62.77-29-90.3-37.43-10.77-1.14-11,4-7.43,6.85,19.24,20.58,37.33,34.58,61.15,46.29l12,7.44,13.71,11.43c10.57,6.85,11.44,13.14,11.44,13.71.28,12.86-6.58,22.86-8.58,26.86-3.61,13.64-10.85,16-10.85,16-58.87,39.72-89.74,50-185.18,37.72-1.43-.76-10.57.77,0,4.58,24.29,8.09,84,21.08,141.69-6.26,13.86-9.72,23.13-6.53,33.17-12.35,16.49-10.17,40-22.83,44.32-24.25,12.86-6.86,48.86-14.57,57.16-21.44,9.51-.77,19.39-2,20.06-10.2,3.12-2,7.7-.54,11.1-7.22,7.55-1.31,6.28-4,6.28-4-1.91-5.33-9-7.53-14-11.43-7.44-2.48-12.58-3.25-18-.57l-5.14,2.29s-8-1.15-8-1.71c-17.78-1-16-59.9-22.34-84.48Z" style="fill:#ffc639"/><path d="M919.63,194c-.51,1.43-2.81,2-5.13,1.27s-3.78-2.48-3.27-3.91h0c.51-1.43,2.81-2,5.13-1.27S920.14,192.58,919.63,194Z" style="fill:#1c8a42"/><path d="M188.16,190.94,175.41,179l-12.9,11.77,1.38-17.4-17.25-2.75,14.48-9.77-8.61-15.2,16.67,5.22,6.52-16.2L182,150.95l16.73-5L189.94,161l14.35,10L187,173.52l1.16,17.42Z" style="fill:#fff"/><path d="M233.39,335.53l-13.75-9.17L206.25,336,211,320.46,197.38,311,214,310.6l5-15.5,5.59,15.3,16.67-.16-13.21,9.9,5.31,15.38Z" style="fill:#fff"/><path d="M190.68,460l-12.75-11.94L165,459.83l1.38-17.4-17.25-2.75,14.48-9.77L155,414.71l16.67,5.22,6.52-16.2L184.53,420l16.73-5-8.8,15.09,14.35,10-17.28,2.53L190.68,460Z" style="fill:#fff"/><path d="M76.09,314.16,63.34,302.23,50.44,314l1.38-17.4-17.25-2.75L49,284.06l-8.61-15.2,16.67,5.22,6.52-16.2,6.31,16.29,16.73-5-8.8,15.09,14.35,10-17.28,2.53,1.16,17.42Z" style="fill:#fff"/><path d="M296.59,276,283.84,264l-12.9,11.77,1.38-17.4-17.25-2.75,14.48-9.77-8.61-15.2,16.67,5.22,6.52-16.2L290.43,236l16.73-5-8.8,15.09,14.35,10-17.28,2.53L296.59,276Z" style="fill:#fff"/></svg>