<svg xmlns="http://www.w3.org/2000/svg" viewBox="0 0 900 600"><title>Curaçao</title><rect width="900" height="600" style="fill:#002b7f"/><path d="M0,375H900v75H0Z" style="fill:#f9e814"/><path d="M200,133.33l-20.6,63.4L211.1,207Z" style="fill:#fff"/><path d="M200,133.33l20.6,63.4L188.9,207Z" style="fill:#fff"/><path d="M263.4,179.4H196.74v33.33Z" style="fill:#fff"/><path d="M263.4,179.4l-53.93,39.19-19.59-27Z" style="fill:#fff"/><path d="M136.6,179.4l53.93,39.19,19.59-27Z" style="fill:#fff"/><path d="M136.6,179.4h66.67v33.33Z" style="fill:#fff"/><path d="M239.19,253.93l-20.6-63.4-31.7,10.3Z" style="fill:#fff"/><path d="M239.19,253.93l-53.93-39.19,19.59-27Z" style="fill:#fff"/><path d="M160.81,253.93l53.93-39.19-19.59-27Z" style="fill:#fff"/><path d="M160.81,253.93l20.6-63.4,31.7,10.3Z" style="fill:#fff"/><path d="M100,50,84.55,97.55l23.78,7.73Z" style="fill:#fff"/><path d="M100,50l15.45,47.55-23.78,7.73Z" style="fill:#fff"/><path d="M147.55,84.55h-50v25Z" style="fill:#fff"/><path d="M147.55,84.55,107.1,113.94,92.41,93.71Z" style="fill:#fff"/><path d="M52.45,84.55,92.9,113.94l14.69-20.23Z" style="fill:#fff"/><path d="M52.45,84.55h50v25Z" style="fill:#fff"/><path d="M129.39,140.45,113.94,92.9l-23.78,7.73Z" style="fill:#fff"/><path d="M129.39,140.45,88.94,111.06l14.69-20.23Z" style="fill:#fff"/><path d="M70.61,140.45l40.45-29.39L96.37,90.84Z" style="fill:#fff"/><path d="M70.61,140.45,86.06,92.9l23.78,7.73Z" style="fill:#fff"/></svg>