<svg xmlns="http://www.w3.org/2000/svg" viewBox="0 0 900 600"><title>Cyprus</title><rect width="900" height="600" style="fill:#fff"/><path d="M463.1,506.74a1,1,0,0,1-.35-.24l-.12-.12a21.52,21.52,0,0,1-1.58-1.64c-1.33-1.51-3.12-3.73-4.69-5.68-3.11-3.88-5.69-7.23-6.17-7.86l-.79-1-7.77-2.39L436,485.12l3-3.41,10.41,4.46,7.77,1.59,14.36,10.56h0s-2.09,1.74-4.14,3.6c-.91.83-2.06,1.9-2.88,2.78a11,11,0,0,0-.93,1.14,9,9,0,0,0-.46.88m-53.34-16a39.63,39.63,0,0,1-19.89-5.57h0a10.24,10.24,0,0,1,2.88-3.1c1.94-1.42,5.44-3.13,11.1-3.15H404c6.7,0,14.9,2.28,24.37,6.77a36,36,0,0,1-18.57,5.05h0Zm-29.37-6.51a4.24,4.24,0,0,1-3.17-1.33A6.44,6.44,0,0,1,375.8,480a14.66,14.66,0,0,1-.35-4.22,4.34,4.34,0,0,1,1.56-.35h.11c2.51,0,4.49,2.18,5.34,4.34a4.35,4.35,0,0,1,.27,3.07,2.42,2.42,0,0,1-2.34,1.37Zm51.68-6c-17.36-2.48-24.72-8.76-27.83-13.58a15.7,15.7,0,0,1-2.63-10h0a11.54,11.54,0,0,1,2.66-.29c4.62,0,16.43,2.32,27.8,23.84h0Zm-35.58-3.44c-7.42,0-13.06-1.28-16.78-3.8a10.3,10.3,0,0,1-3.69-4.12,6.75,6.75,0,0,1-.59-2,22.7,22.7,0,0,1,7.77-1.65l1.17,0c5.73,0,14.45,1.87,23.65,10.78h0a90,90,0,0,1-11.53.84Zm-35.91-1.38c-7.82,0-18.56-2.39-25.26-9.09h0a78.49,78.49,0,0,1,15.52-2.06l1.48,0c7.33,0,12.94,1.42,16.68,4.23a4.94,4.94,0,0,1,2.18,2.78,2.28,2.28,0,0,1-1.06,2.15c-1.68,1.27-4.69,1.95-8.95,2l-.6,0Zm-25.34-13a3.21,3.21,0,0,1-2.48-1.17,5.87,5.87,0,0,1-1.11-2.52,14.3,14.3,0,0,1-.29-3.67v0a3,3,0,0,1,1.22-.27h0a3.78,3.78,0,0,1,2.59,1.16,7,7,0,0,1,1.69,2.64,4,4,0,0,1,.18,2.64,1.91,1.91,0,0,1-1.8,1.21Zm58.53-1.32a4.24,4.24,0,0,1-3.17-1.33,6.45,6.45,0,0,1-1.42-2.88,14.66,14.66,0,0,1-.35-4.22,4.34,4.34,0,0,1,1.56-.35h.11c2.51,0,4.49,2.18,5.34,4.34a4.35,4.35,0,0,1,.27,3.07,2.41,2.41,0,0,1-2.34,1.37Zm-28.51-1.18c-15.74-.55-23.9-5-28-8.68a18.3,18.3,0,0,1-4.24-5.45,11.65,11.65,0,0,1-.91-2.44h0a13.46,13.46,0,0,1,3.89-.58h.37c5.31,0,16.11,2.23,28.85,17.15h0Zm17.09-1.59c-12.66-1.93-19.83-7.36-23.62-11.58a24.18,24.18,0,0,1-5.21-8.74,18.62,18.62,0,0,1,3.9-.47h1.08c6.37.14,17.93,3,23.86,20.79h0Zm-65-6.08a49.33,49.33,0,0,1-12-1.43c-6.63-1.66-9.47-4.19-10.69-6a6.32,6.32,0,0,1-1-2.53,4.28,4.28,0,0,1,0-1.07h0a45.24,45.24,0,0,1,10.46-1.33h.73a43.81,43.81,0,0,1,8.56.83,27.15,27.15,0,0,1,16.05,10.14h0a49.64,49.64,0,0,1-12.12,1.42Zm29.39-10.68a4.24,4.24,0,0,1-3.17-1.3,6.49,6.49,0,0,1-1.42-2.91,14.4,14.4,0,0,1-.35-4.18,4.34,4.34,0,0,1,1.56-.35h.11c2.51,0,4.49,2.18,5.34,4.34a4.25,4.25,0,0,1,.24,3,2.36,2.36,0,0,1-2.31,1.38Zm-22.1-3a48.23,48.23,0,0,1-12-5.23c-5.54-3.41-12.33-9.45-13.15-18.83h0a7.14,7.14,0,0,1,1.28-.15h.33c1.66,0,5,.47,9.15,3.58,5.22,4,10,10.92,14.35,20.65Zm14.43-.53a39,39,0,0,1-9.47-6.08,60.76,60.76,0,0,1-16.72-23.33,7.7,7.7,0,0,1,2.89-.72h.77c2.41.07,6.08,1.07,10.15,5.46,4.68,5,8.85,13.34,12.4,24.65v0h0Zm-37.39-1.09c-4.82,0-6.47-2.61-7-3.74a7.78,7.78,0,0,1-.55-3.71v0a10.61,10.61,0,0,1,2.4-.31h.17a9.92,9.92,0,0,1,8.08,3.84c.26.38,1,1.69.39,2.72-.52.81-1.7,1.22-3.53,1.22ZM291,421.43a63.91,63.91,0,0,1-11.14-1c-4.29-.78-6.73-4.43-8-7.36a25.55,25.55,0,0,1-1.8-6.25h0c13.28.39,19.55,4.27,22.48,7.46a11.71,11.71,0,0,1,3.21,6.92h0s-1.89.18-4.74.18Zm13.83-13.82s-1.54-1.9-3-4.23-3-5-3-7.08-.47-6.27-.76-8.62c-.36-3-.72-5.54-.75-5.76h0c.34.12,8.31,3.11,8.31,10.59s-.74,15-.74,15.09h0Zm-10.33-.71-.25,0c-2.36-.39-6.5-2.19-11.07-4.82-5.08-2.91-9.21-6-11.62-8.79-2.2-2.51-3.5-6.46-3.88-11.73a43.59,43.59,0,0,1,.09-7.16,4.14,4.14,0,0,1,1.32-.2c1.76,0,3.65.82,6.19,2.57a49.76,49.76,0,0,1,6.49,5.51,99.38,99.38,0,0,1,7.2,8l0,0c.27.48,2.54,4.57,4.31,8.56a27.55,27.55,0,0,1,2,5.75,3.1,3.1,0,0,1,0,1.78.9.9,0,0,1-.39.45,1.09,1.09,0,0,1-.44.09Z" style="fill:#4e5b31"/><path d="M436.9,506.74a1,1,0,0,0,.35-.24l.13-.12a21.52,21.52,0,0,0,1.58-1.64c1.33-1.51,3.12-3.73,4.69-5.68,3.11-3.88,5.69-7.23,6.17-7.86l.79-1,7.77-2.39,5.67-2.64-3-3.41-10.41,4.46-7.77,1.59-14.36,10.56h0s2.09,1.74,4.14,3.6c.91.83,2.06,1.9,2.88,2.78a11,11,0,0,1,.93,1.14,9,9,0,0,1,.46.88m53.34-16a39.63,39.63,0,0,0,19.89-5.57h0a10.24,10.24,0,0,0-2.88-3.1c-1.94-1.42-5.44-3.13-11.1-3.15H496c-6.7,0-14.9,2.28-24.37,6.77a36,36,0,0,0,18.57,5.05h0Zm29.37-6.51a4.24,4.24,0,0,0,3.17-1.33A6.44,6.44,0,0,0,524.2,480a14.66,14.66,0,0,0,.35-4.22,4.34,4.34,0,0,0-1.56-.35h-.11c-2.51,0-4.49,2.18-5.34,4.34a4.35,4.35,0,0,0-.27,3.07,2.42,2.42,0,0,0,2.34,1.37Zm-51.68-6c17.36-2.48,24.72-8.76,27.83-13.58a15.7,15.7,0,0,0,2.63-10h0a11.54,11.54,0,0,0-2.66-.29c-4.62,0-16.43,2.32-27.8,23.84h0Zm35.58-3.44c7.42,0,13.06-1.28,16.78-3.8a10.3,10.3,0,0,0,3.69-4.12,6.75,6.75,0,0,0,.59-2,22.7,22.7,0,0,0-7.77-1.65l-1.17,0c-5.73,0-14.45,1.87-23.65,10.78h0a90,90,0,0,0,11.53.84Zm35.91-1.38c7.82,0,18.56-2.39,25.26-9.09h0a78.49,78.49,0,0,0-15.52-2.06l-1.48,0c-7.33,0-12.94,1.42-16.68,4.23a4.94,4.94,0,0,0-2.18,2.78,2.28,2.28,0,0,0,1.06,2.15c1.68,1.27,4.69,1.95,8.95,2l.6,0Zm25.34-13a3.21,3.21,0,0,0,2.48-1.17,5.87,5.87,0,0,0,1.11-2.52,14.3,14.3,0,0,0,.29-3.67v0a3,3,0,0,0-1.22-.27h0a3.78,3.78,0,0,0-2.59,1.16,7,7,0,0,0-1.69,2.64,4,4,0,0,0-.18,2.64,1.91,1.91,0,0,0,1.8,1.21Zm-58.53-1.32a4.24,4.24,0,0,0,3.17-1.33,6.45,6.45,0,0,0,1.42-2.88,14.66,14.66,0,0,0,.35-4.22,4.34,4.34,0,0,0-1.56-.35h-.11c-2.51,0-4.49,2.18-5.34,4.34a4.35,4.35,0,0,0-.27,3.07,2.41,2.41,0,0,0,2.34,1.37Zm28.51-1.18c15.74-.55,23.9-5,28-8.68a18.3,18.3,0,0,0,4.24-5.45,11.65,11.65,0,0,0,.91-2.44h0a13.46,13.46,0,0,0-3.89-.58h-.37c-5.31,0-16.11,2.23-28.85,17.15h0Zm-17.09-1.59c12.66-1.93,19.83-7.36,23.62-11.58a24.18,24.18,0,0,0,5.21-8.74,18.62,18.62,0,0,0-3.9-.47h-1.08c-6.37.14-17.93,3-23.86,20.79h0Zm65-6.08a49.33,49.33,0,0,0,12-1.43c6.63-1.66,9.47-4.19,10.69-6a6.32,6.32,0,0,0,1-2.53,4.28,4.28,0,0,0,0-1.07h0a45.24,45.24,0,0,0-10.46-1.33h-.73a43.81,43.81,0,0,0-8.56.83,27.15,27.15,0,0,0-16.05,10.14h0a49.64,49.64,0,0,0,12.12,1.42Zm-29.39-10.68a4.24,4.24,0,0,0,3.17-1.3,6.49,6.49,0,0,0,1.42-2.91,14.4,14.4,0,0,0,.35-4.18,4.34,4.34,0,0,0-1.56-.35h-.11c-2.51,0-4.49,2.18-5.34,4.34a4.25,4.25,0,0,0-.24,3,2.36,2.36,0,0,0,2.31,1.38Zm22.1-3a48.23,48.23,0,0,0,12-5.23c5.54-3.41,12.33-9.45,13.15-18.83h0a7.14,7.14,0,0,0-1.28-.15h-.33c-1.66,0-5,.47-9.15,3.58-5.22,4-10,10.92-14.35,20.65ZM560.93,436a39,39,0,0,0,9.47-6.08,60.76,60.76,0,0,0,16.72-23.33,7.7,7.7,0,0,0-2.89-.72h-.77c-2.41.07-6.08,1.07-10.15,5.46-4.68,5-8.85,13.34-12.4,24.65v0h0Zm37.39-1.09c4.82,0,6.47-2.61,7-3.74a7.78,7.78,0,0,0,.55-3.71v0a10.61,10.61,0,0,0-2.4-.31h-.17a9.92,9.92,0,0,0-8.08,3.84c-.26.38-1,1.69-.39,2.72.52.81,1.7,1.22,3.53,1.22ZM609,421.43a63.91,63.91,0,0,0,11.14-1c4.29-.78,6.73-4.43,8-7.36a25.55,25.55,0,0,0,1.8-6.25h0c-13.28.39-19.55,4.27-22.48,7.46a11.71,11.71,0,0,0-3.21,6.92h0s1.89.18,4.74.18Zm-13.83-13.82s1.54-1.9,3-4.23,3-5,3-7.08.47-6.27.76-8.62c.36-3,.72-5.54.75-5.76h0c-.34.12-8.31,3.11-8.31,10.59s.74,15,.74,15.09h0Zm10.33-.71.25,0c2.36-.39,6.5-2.19,11.07-4.82,5.08-2.91,9.21-6,11.62-8.79,2.2-2.51,3.5-6.46,3.88-11.73a43.59,43.59,0,0,0-.09-7.16,4.14,4.14,0,0,0-1.32-.2c-1.76,0-3.65.82-6.19,2.57a49.76,49.76,0,0,0-6.49,5.51,99.38,99.38,0,0,0-7.2,8l0,0c-.27.48-2.54,4.57-4.31,8.56a27.55,27.55,0,0,0-2,5.75,3.1,3.1,0,0,0,0,1.78.9.9,0,0,0,.39.45,1.09,1.09,0,0,0,.44.09Z" style="fill:#4e5b31"/><path d="M727.13,104l-2.35.94-.92.37-2.85-.16-2.67,1.28-4.74,3.24-.21.15-1.77.46-1.64-.71L709,110l-.32,1.92-.89,1.38-1.09.77-3.78.39-3.19,1.64L695.61,115l-1.93.75-4.1,3.69-2.09,1-.73,0-2.78-.14-1.17.38-1.75,1.69-3.32.26-1,.71-1.62,3.26-1.75,1.81-1,.21-1.09-.4-.82.14-.37,2.09-.79.87-2.22.76-1.77,1.48-1.56.8-2.08-.05h-.48l-2.08,1.15-3.9.34-1.62,1.55-.36.33-.76.46-1.24.74-.3.18-1.5-.27-1.75.69-.71-1.09-1.21.73-1.6.07-2-.89-1.52-.68-1.11.16-.39,1.94,0,.21-1.17,1.56-2.18,1.32-.3.39-2.48,3.21-4.72,5-4,2-4.14,1.26-2.9,2.38-7.6,3.77-12,6-2.45.79-3.52.56-6.28,2.31L579.8,172l-.31.09-1.1.33-7.81,2.36-3.64-.38-2.15.78-5.6-.62-3.9.08-2.47.51-4.64,2.22-7.83,3.76-2.59,2.37-4,2.1L529,187.13v-2l0-.08-1.64.52-1.18.37-3.83.59h-2.13l-1.32-.38-.2.07-7.82,2.57-8.72.84-4.36,1.4-3.26-.05-2,.61-4,.49-1.43-.38-.32-.09-11.75.51-5.37-.61-2.56.58-4.3-1.45-6.27-.73-1.46-.44-3.3-1-1.49.86-1.12.12-2.67-1-1,0-2.2.8L442,189l-1.18-.94-2.76-.41-1.68-1.41-9.4,1.25-2.55-.75-8.55-2.49-1.36.07-1.7,1.27-2.55.93-2.21.57-3,.1-3.5-.92L398,184.49l-1.33-.32-3,.3-.91.08-5.47-2.93-7-4.4-4.78-2.3-1.79-.29-.24.85.89,2.8.3,2.77-.09,2.56,0,1.59.45,1.43,1.73,1.91.72,1.92.53,5.28v5.36l-.84,8.55-.28,1.3-1,4.43-.91,4.07-3.55,10.83-1,1.34L368,233.27,362.54,237l-4,2.3-1.26.52L354,240l-2-.1-2.51-1.36-2.47-.63-3.23-2.32-3.6-.74-3.94-2.28-1-1.23-2.15-.2-3-.89h0l-1.09-.33-.76-.22h0l-3.8-.1L320.94,228l-1.86-.45-2.55-.13-2.67,1.24h0l-1.35.63-1.71-.68-1.23.08-1.4,2.12-.17.32-1,.51-1.2,0-.94,0-1,.44-1.37.59h0l-1.21.53-.59.26h0l-.36.07-.64.11-.8.15-1.41-.82-.75-.44-1.26-.26-.68.49-.13,2.3-.62,1.38-2,1.73-2,1.76-1.39,2L285,250.29l-2.3,3.38-.71.79-2.42,2.66-2.14,1.66-4.92,3.82-4.66,1.74-4,.82h-2l-3.7-.49-3.32-1-3.65-2.28-4-3.22-5.79-5.72-.82-.49-.17-.11-1.82-1.17-1.35,0-.53.87-.29,1.26-.24,1.12-.66,6.37,0,.37.35,2.62,4.4,6.15,1.36,3.27.22.37.91,1.52.69,1.16.07.12,1.5,4.49L244,282.92l.53,1.7-1.34,1-.24,1.46,4,5,.86,2.18-1,3L245.31,299l-.43.46.22,1.28,1.82,1.64,3.09,2.75,1.65,4.09,1.25,1.1,1.46-.31.81.62,1.23,0,1.21,1.21.78.38,1.24.62,1,1.27.22,3.91,1.82,4.86,0,2.64v.37l1.13,1.95.36,1.54-.6,4.07,1.45,1.31,1.57-.32,1,.16,1.63,1.35,2,3,1.93-.28,1.22.59,5.9,5.33,1.34.68.07,0,1,.48,1.2,1.21,1.86-1.23.21,0,2-.18.89.6,1.7,1.15,2.23,0,4.84,1.48,2.12.54,4.26,2.65,1.81,1.12,1.07.87,1.42,1.16,2.85,1.22,2.44.58,1.32.31,1,.38,0-.06h0l0,.06,5.28,2,2.86.67,2.65,1,1.93.7,1.41,0,2-1.68,1.94-.11,1.61.4,1.57-.26,2.48-1.53.48-.72,1.76-.84,5.94-.74,1.74.56,4.46-1.94,3,.83,2.64-.94,5.78,1.28,1.54,1.08,1.72,2h.21l1.91,0-.8,1.33,2.52,2.65,2.28,3.45.15.45,1.66,4.86,1.23,1.72.86,2.4,0,1.57-1.34,1-.22.58-.08.22.27.65.51-.28,1-.53,1.17-.18,2.07.22,1.36.14,2.15-1.07,1.43-.71,2.29,1,2.52,0,1.06.47,3,1.36,1.53.14.57-.37.36-.86-.18-1L397,377.23l-2.53-2.94-1-1.51-.79-2.19-.24-2.8-.17-1.89.31-2.48.68-.88.5-2h0l.13-.52,1.41-1.87,3.72-2.39,4-3.58,3.16-2.08,3.26-1.41.09-.4.36.15,8.29-2.82.14,0L422,345l24.92,1.76.92-.28h0l.83-2.33.45-.43.3-.28,2.74-1.21,1.28-.18,3.56.88,1.46.36,2.33-1.31,1.65,0,3.42-1.87,2.11.05.8-.32,4.11-3,4-1.14,1-.55.36-.2,4.06-2.14,2.58-2,2.23-1.18,2.44-.63,6.38-.45,1.28-2.14,2.74-.37,1.66-1.87,1.9-.77,1.36-2,1.14-1.64,1.59-.92,5.1-.32,6,.75.8-.48,1.37-4.87,1.43-.92,3.85-5.61v-3.75l.63-2.43-.43-4.39.51-4.45,2.39-5.65,2.11-2.28,3.4-2.3,1.73-.75,2.45-.41h0l.36-.06.62-.11,8.43-.12c.12-.09,3.07,0,3.07,0l2.81,0,7.12,1.26.51.09,2.4.78,2.77,2.16,2.94,2.87.55.54,1.9.8.58.25,1.57-.25,2.24-1.17,1.69-1.43,2.3-1.26.06-.08,1.29-1.95,0,0h0l.51-.77,4.45-1.73,5.23-.3.59-.32.33-.17,1.38-1.62H596l3.14,1.13,2.2-.44,1.75.7,1.36-.16,2.57-.3,2.75,1.94,1.6.2,5.66,3.31.29,0,.15,0,.32.05.67-.2,1-.29.13,0,.13.17.64.91.88.13,1-1.39-.41-.63-.16-.23-2-.41-1.82-3.1,1.73-1.86-2.71-3.33-.45-.55-.15-.23-.94-1.42-4.75-7.23-6.18-4.93h0l-2.16-1.73h0l-.76-.6-3.3-3.36-2.36-3.13-.31-.67-.49-1.06-1.41-3.08-2.46-1.9-2-2.19-.1-.13-4.14-5.63-.68-.94-1-.57H581.2l-.2-.2-.12-.12.07-.07,1-1,1.1-.28.48-1.09-2.11-6.1v-.21l-.16-1.95,1.72-8.85.22-1.08,2.93-6,1.81-1.49,2-3.89,1.7-2.49,1.63-1.58.28-.17,2.93-1.78,2.47-.35,2.35-.33,4.1,1.26,3.9-.08.76-.08,1.77-.2,2.91-.92,1.37-.85.71-1.09,1.49-5,.48-1.59.92-1.72,5.31-6.11,4-3.71,9-6.61,4.41-2.64,2.25-1.35,20.13-8.95,5.23-5.3,2.72-2.76,4.82-3.24,5.64-2.31,4.85-3.84,1.06-1.33,1.34-4.3,1.11-.27,1-2.17.29-.62,4-2.79.45-.22,15.39-7.71,2.24.31,1.2-1.79,4.48-.75.82-.14,1.1-.55.94-1.6v-.32l.13-4.27,1-1.15.52-2.82.49-.65.51-.68,1.27-.89-.22-.53Z" style="fill:#d57800"/></svg>