<svg xmlns="http://www.w3.org/2000/svg" viewBox="0 0 1000 500"><title>Eritrea</title><path d="M0,0H1000V500H0Z" style="fill:#ea0437"/><path d="M0,500H1000V250" style="fill:#4189dd"/><path d="M0,0H1000V250" style="fill:#12ad2b"/><path d="M230.25,371.5c-10.81,3-17,11.37-16.85,19.28l53.21-.21c.48-8.5-6.52-16.37-17.17-19.46C301.54,370,346.8,350.51,355,338c-8.14-3.53-17.55,2.15-24.26.84,15.93-7.36,63.65-38.25,55.89-71.36-6,18.39-24.3,33.61-32.08,37.69,17.83-27.07,42.17-55.25,21-77.07,1.07,12.65-8,26.57-12.06,27.61,10.34-28.6,20.21-64.51-2.2-88.18,2.94,8.56,1.75,32.69-2.3,33.78-1.25-19.45-4.57-60.35-25-59.77,6.5,5.79,9.35,21.6,9.5,37.56-4.67-10.94-10-19.17-21.32-27.25-9.18-17.6-25.51-32.19-41.84-42.63,1.83,12.81,3.35,22.92,21.24,36.21-9.33-.58-18.65-18.26-28.62-18.75-7.93-.38-14.15,7.18-27.11,2.83,1.43,4.28,7.48,6.17,8.76,9.34-2.78,1.92-9.36-.3-14.84-3.15C247.32,146,259,152,268.91,150a52.31,52.31,0,0,1,36.48,5.79c-3.08,1.58-15.06,1.57-22.75.61,7,7.08,11.68,11.77,23.83,11.69,10.85-.07,16.55-5.79,19.33-2.25,6.81,8.07,11.39,16.13,17.09,25.63-12.58,1.39-8.79-14.23-22.8-22.22-7.87,16.29,9.05,35.61,20.58,43.64.15,12.25,1.95,22.49,7.14,31.82,3.5,6.57,8,13.3,6.32,28.14-6.9-5-13.64-22-11.16-35.42-8.63,2.35-12,17.53-7.94,25.18,3,5.82,5.07,17,1.56,21.93-3.42,4.64-3.77,4.12-3.73,14.07.12,6-3.2,13-8.62,17.91,1.13-4.2,2.42-11.41,1.17-15.93-4.28,7.27-15,14.78-18.41,22.6s-4.16,21.39-20.24,24.52c-20.69,4.11-27.83,7.69-41.14,13.14-1.48-10.11,2.94-31.19,11.4-30,8.25,1.47,33.28-8.62,24.33-29.71-1.77,6.65-7.67,13.13-14,13.42,6.89-8.94,19.18-18.19,13.2-33.17-3.33,6.37-8.56,14-16.5,18.31,8.51-16.31,1-21.19-9.12-7.76-3.82,5.18-6.12,15.57-8.55,28.76-4-10.73-3.71-24.85-8.41-36.31-4.91-12.4,6.52-15.67,11.9-14.68,13.18,3.52,35.2,3.52,33.56-18.25-5.69,7.36-15.67,9.64-26.45,7,12.1-8.84,21.66-25.46,8.17-34.14-.45,9.2-7.57,19.52-17.08,24.28-2.23-7.77-2.23-16-.32-25-5.31,5.59-9.19,17.22-12.27,30.44-.23-13.07,2.24-22.49,4.07-29.51,2.78-10.27,9.69-3.59,20.26-2.83,10.18.58,24.2-5.05,21.52-18.86-3.48,5.46-10.61,7.59-17.91,7,8.78-5.32,24.08-14.77,15.69-29.31-3.52,5.51-4.67,10.22-14.87,11.9,2.67-6.14,3.12-14.83,11-18.28-14.12-2.81-22.21,6.46-26.32,21-1.67-10.06-3.65-13.77-4-21.13,7.63-8.48,8.43-25.07-8.09-28.77-1,8.56-.69,10.59,1.19,17.56-7.76-4.61-18.69-7.15-26-.63,4.93,5.32,12.57,10,24.33,4.2-2.78,9.09-10,7.54-19.94,4.07,6.07,11.4,13.73,13.43,22.19,12.12C243,194.1,243.2,203,230.26,220c.6-10.56-.15-18.43-8.55-27-7.19-7-13,.3-1.8,16-6.82-5-14.54-15.21-16.86-25.4-2.25,12.59-.22,27.43,6.74,35.74-3.3,3.52-7-.37-12.59-9,2.1,27.58,13.86,32.9,29.67,26.75.45,15.14.45,29.15,1.35,47.43-9.22-13.26-20.91-23.15-27.43-25.63-2,7.42,5.62,17.08,9.89,22.48C204.18,280,190,269.2,190,269.2c-1.42,12.29,14.46,23.68,24.73,28.77-12.06-.52-17.39-5.09-25.18-12.59.15,34.09,36.94,28.17,43.84,22.93.9,16.79,2.18,36.19,3.08,53-10.4-1.81-9.58-4.94-18.48-5.77-24.7-1-44.29-29.65-50.78-50.75-1.86,3.47-.38,7.11-2.09,11.37-4-10.36-9.13-23.74-16-30,1.75,6,1.93,12.18,1.33,23.46-2.36-7.31-4.55-9.55-4.71-18.14.15-6.59,6.36-11.45,6-20.72-.25-6.77-6.43-21.44-7.33-32.79-3,11.69-4.86,24-9.44,31.24,2.27-12.48,1.55-21.09,5.39-29.49,4.45-8.84,8.23-16.74,5.27-25.66-2.84,3.45-1.86,6.58-9,15-1.55-9.11,9.22-23.68,19.67-29.54,7.37-3.88,16.66-17.78,10.61-27.3-6.93,5-10,11.71-19.84,23.2,7-27.31,25.13-34.45,46.86-34.54,4.81,0,14.5-1.76,17.22-8.12a36.52,36.52,0,0,1-19.81,1.38c4.69-6.89,14.57-6,23.77-6,7.22,0,18.49-1,23-11.29-8.81,3.82-22.54,4.61-31.19,1.91,13.75-7.13,35.29-7.89,46.34-17.24-12.59-9.4-44.1,2.19-64,15.84,5.56-5.09,14.35-14.11,19.21-21.39-10.89-5.22-38.41,25.28-47.9,43.4-9,5.09-12.61,13.06-16.11,18.63,4.8-16.22,5.31-28,9.31-41.34-30.88,10.63-18,67.68-24.76,81.33.79-15.07.15-34.43-6.05-44.41-9.51,7.26-10.28,50-1.35,85.51-3.22-9.51-9.31-18.4-11.26-30-14.08,25.67,8.25,56,26.92,79.88-14.06-7.32-28-23.07-37.08-36.27,2.52,45.95,50.5,55.49,57.95,66.79-10.11-4.71-29.44-14-37.64-4.26,13.35,3.08,24,6.65,32.58,12.27,12.45,15.55,36,22.35,77.1,24.06Z" style="fill:#ffc726"/></svg>