<svg xmlns="http://www.w3.org/2000/svg" viewBox="0 0 900 600"><title>Eswatini</title><path d="M0,0H900V600H0Z" style="fill:#3e5eb9"/><path d="M0,112.5H900v375H0Z" style="fill:#ffd900"/><path d="M0,150H900V450H0Z" style="fill:#b10c0c"/><path d="M739.28,231.42l-36.43,12.86,36.43,12.86,36.43-12.86Z" style="fill:#fff;stroke:#000;stroke-width:1.0080000162124634px"/><path d="M188.93,240H715.31a4.48,4.48,0,0,1,4.66,4.29h0a4.48,4.48,0,0,1-4.66,4.29H188.93a4.48,4.48,0,0,1-4.66-4.29h0A4.48,4.48,0,0,1,188.93,240Z" style="fill:#ffd900;stroke:#000;stroke-width:1.0080000162124634px"/><path d="M707.16,248.57a4.29,4.29,0,1,0,0-8.57m-4.29,8.57a4.29,4.29,0,1,0,0-8.57m-4.29,8.57a4.29,4.29,0,1,0,0-8.57" style="fill:#ffd900;stroke:#000;stroke-width:1.0080000162124634px"/><path d="M704.37,257.14,667.94,270l36.43,12.86L740.8,270Z" style="fill:#fff;stroke:#000;stroke-width:1.0080000162124634px"/><path d="M154,265.72H680.41a4.48,4.48,0,0,1,4.66,4.29h0a4.48,4.48,0,0,1-4.66,4.29H154a4.48,4.48,0,0,1-4.66-4.29h0A4.48,4.48,0,0,1,154,265.72Z" style="fill:#ffd900;stroke:#000;stroke-width:1.0080000162124634px"/><path d="M672.26,274.29a4.29,4.29,0,1,0,0-8.57M668,274.29a4.29,4.29,0,1,0,0-8.57m-4.29,8.57a4.29,4.29,0,1,0,0-8.57" style="fill:#ffd900;stroke:#000;stroke-width:1.0080000162124634px"/><path d="M96.05,293.58H811.93a6.38,6.38,0,0,1,6.34,6.43h0a6.38,6.38,0,0,1-6.34,6.43H96.05A6.38,6.38,0,0,1,89.72,300h0A6.38,6.38,0,0,1,96.05,293.58Z" style="fill:#ffd900;stroke:#000;stroke-width:1.0800000429153442px"/><path d="M664.28,300c-42.86,42.85-100,128.57-214.29,128.57-100,0-171.42-85.71-214.29-128.57C278.55,257.14,350,171.43,450,171.43,564.27,171.43,621.41,257.14,664.28,300Z" style="fill:#fff;stroke:#000;stroke-width:1.5119999647140503px"/><path d="M435,216.15c11.4,12.82,1.88,18,14,18.83,12.73.93,5.51,13.55,16.22,14,7.48.33-.75,30.23,6.46,40.09,7.34,10.29,13.49,3,13.62,10.44.13,7.69-20,6.91-20.33,30.58-.59,13.64-17,14.52-17.75,23.3-1,8.26,32.26,12.89,31.82,20.28s-35.88,6.22-37.42,14.62c-.79,7.55,48.67,13.74,52.65,35.57-7.38,2.41-28.38,4.68-44.25,4.7C350,428.64,278.57,342.85,235.71,300,278.57,257.13,350,171.42,450,171.42c0,0-29.68,27.12-15,44.72Z"/><path d="M320.9,288.57V254.28m20.78,0v34.29m20.79-34.29v34.29" style="stroke:#fff;stroke-width:6.927000045776367px"/><path d="M320.9,345.72V311.43m20.78,0v34.29m20.79-34.29v34.29" style="stroke:#fff;stroke-width:6.927000045776367px"/><path d="M383.24,288.57V254.28m20.78,0v34.29m20.79-34.29v34.29" style="stroke:#fff;stroke-width:6.927000045776367px"/><path d="M383.24,345.72V311.43m20.78,0v34.29m20.79-34.29v34.29" style="stroke:#fff;stroke-width:6.927000045776367px"/><path d="M478,288.57V254.28m20.78,0v34.29m20.79-34.29v34.29" style="stroke:#000;stroke-width:6.927000045776367px"/><path d="M478,345.72V311.43m20.78,0v34.29m20.79-34.29v34.29" style="stroke:#000;stroke-width:6.927000045776367px"/><path d="M540.38,288.57V254.28m20.78,0v34.29m20.79-34.29v34.29" style="stroke:#000;stroke-width:6.927000045776367px"/><path d="M540.38,345.72V311.43m20.78,0v34.29m20.79-34.29v34.29" style="stroke:#000;stroke-width:6.927000045776367px"/><path d="M767,294.9c-6.49,11.24,5-3.74,33,15.08,5.19,3.5,9.72,12.73,9.72,19.14-1.32-.88-2.29-2.84-3.74-4.11-2,2,1.94,11.37,2.52,15.77-4.38-2.45-4-3.61-5.41-6.62.29,3.64-.75,13.66,1,17.52-3.45-1-3.22-3.76-5-4.32,1.22,4.37-1.07,9.12-.46,14-2-2-4.16-3.56-5.1-4.36-.16,2.34-3.88,8.48-4,10.7a5.61,5.61,0,0,1-2.46-3.73c-2.13,2.67-9.68,12.54-10.16,15.55-5.82-5.14-20.73-17.66-22.68-24.31-1.72,3.77-4.2,5-9.11,7.8-1.94-10.53-9.19-22.37-5.31-31.4-2.75,1.63-5,3.26-7.76,5.27,2.6-15.26,15.88-33.14,35-42Z" style="fill:#3d5da7;stroke:#000;stroke-width:1.2825000286102295px"/><path d="M742.82,350.58c2.7-5.39,5.18-7.1,6.92-10.57,3.08-6.1,3.52-10.95,6.2-10.24s2.68,3.21-.79,9.2S750,346.26,742.82,350.58ZM761,363.42c-.35-4.1.84-5.82.63-8.46-.37-4.65-2.27-7.84.2-8.07s3.63,1.36,3.63,6-.72,5.92-4.46,10.48Zm13.83,8c-1.08-5.73-.27-8.27-1-12-1.2-6.49-3.58-10.77-1.29-11.36s3.67,1.51,4.54,8.09.41,8.39-2.28,15.23Zm14.39-40.12c-3.38-2.56-5.35-2.74-7.53-4.38-3.84-2.89-5.78-6-7-4.45s-.36,3.22,3.66,5.88,5.38,2.88,10.88,2.95Zm-2.39,19c-1.78-3.7-3.65-4.64-4.81-7-2-4.18-2-7.8-4.25-6.87s-2.39,2.82,0,6.87S781.39,348.1,786.87,350.34Z" style="fill:#a70000"/><path d="M121.17,305.73c-.36-3.27.34-3.67-1.68-6.14,2.93,1.23,3,4.49,6.61,2.17,1.31-.68,1.88-.7.29-4.34,3.72.17,15.89,4.35,17.84,4.44,5.12.24,14.47-5.38,21,1.52,6.23,6.29,4.15,12.83,4.15,21.54-2.5-1.2-1.3-1.79-4-4.91,2,7.62-.11,21.36-.11,29.44-1-1.95-.87-1.1-1.87-3.12-2.65,7.38-5.84,8.89-5.84,17.61-1-3.42,0-2.7-1.1-4.49-2.58,5.6-19.89,10.39-13.22,16-6-3.53-8.66-3.16-11.39-6.33-1.18.76-2.11,2.2-3.21,4.17-10.58-4.87-6.8-15.37-15.09-22.39-1.43,2.94-.78,2.52-2.33,7.3-1.68-6.65-2.14-10.88-4-15.77-1.63,2.71-1.48,1.67-4.44,5.77-1.22-8.1-3.22-10-2.43-15.37-3.14,2.22-1.09,1.32-4.23,4,3-20.76,15.84-36.1,25.07-31.19Z" style="fill:#3d5da7;stroke:#000;stroke-width:1.6004999876022339px"/><path d="M108.15,339.61c2.73-6.68,5.19-8.78,6.95-13.09,3.11-7.56,3.62-13.61,6.23-12.69s2.57,4-.93,11.47-5.14,9-12.26,14.3Zm10.33,16.73c1.09-6,2.82-8.17,3.53-12,1.26-6.79.56-11.84,3-11.57s3,2.83,1.36,9.58-2.73,8.35-7.88,14ZM130.83,368c.31-5.81,1.67-8.08,1.87-11.82.37-6.58-.9-11.29,1.42-11.32s3.14,2.34,2.43,8.93S135,362,130.83,368Zm26.52-38c-5.07-5.05-8.14-6-11.41-9.24-5.76-5.71-8.55-11.06-10.6-9.17s-.82,4.75,5.25,10.18S148.77,328,157.35,330Zm-3.09,19.53c-3.3-5.07-5.73-6.39-7.86-9.65-3.76-5.74-5.05-10.67-7.18-9.44s-1.66,3.8,2.42,9.36,5.71,6.58,12.63,9.74Z" style="fill:#a70000"/><path d="M380.7,194.25c-5.94,11.48,10.39-3.82,36,15.4,4.74,3.57,11.55,17.68,11.55,24.22-5.45-1.16-15.1-6.54-15.1-6.54s11.33,11.35,11.33,24.43c-4-2.5-6-2.13-7.33-5.2,0,4.23,3.56,6.93,3.56,13.47a52.94,52.94,0,0,0-7.78-5.19c3.78,6.54-6.88,19.23-1.55,23.46C402,277,392.5,271,388.72,264.46c-2,1.35-2.22,3.47-2.3,5.72.29.24-14.2-10.76-12.87-15-1.94,2.73-2.22,4.23-2.66,7.3-5.32-5.25-10.2-10.5-12-17.29-2.36,3.07-2.51,3.07-4.88,6.15-1.77-10.76-1.77-10.37,1.77-19.59a86.2,86.2,0,0,0-7.1,5.38c2.38-15.58,14.52-33.85,32-42.89Z" style="fill:#3d5da7;stroke:#000;stroke-width:1.2389999628067017px"/><path d="M366.06,250.35c1-7.91,3-10.89,3.64-16,1.1-9-.21-15.51,3-15.35s4.09,3.47,2.52,12.41-2.89,11.11-9.13,18.92Zm16.58,14.49c-.64-6.67.59-9.52.18-13.82-.7-7.57-3-12.69-.27-13.16s4.17,2.07,4.46,9.71-.44,9.68-4.37,17.27Zm25.88,11.82c-2.81-5.78-5.23-7.5-7-11.22-3.21-6.53-3.88-11.87-6.35-10.9s-2.34,3.73,1.24,10.12S401.53,272.36,408.51,276.66Zm9-51.74c-7.17-3.77-10.85-3.82-15.47-6.24-8.13-4.25-12.87-9.05-14.55-6.41s.56,5.27,8.95,9.13,11,4,21.07,3.52Zm2.63,21.61c-5.22-4.34-8.3-5-11.67-7.77-5.93-4.9-8.88-9.71-10.86-7.76s-.66,4.53,5.57,9.15,8.35,5.19,17,6.39Z" style="fill:#a70000"/></svg>