<svg xmlns="http://www.w3.org/2000/svg" viewBox="0 0 1200 600"><title>Ethiopia</title><path d="M0,0H1200V600H0Z" style="fill:#da121a"/><path d="M0,0H1200V400H0Z" style="fill:#fcdd09"/><path d="M0,0H1200V200H0Z" style="fill:#078930"/><circle cx="600" cy="300" r="200" style="fill:#0f47af"/><path d="M600,140l-7,21.57,28.91,89H583.35L579,263.89h123.6L721,250.56H635.92Z" style="fill:#fcdd09"/><path d="M643.1,240.67,694,170.56" style="stroke:#fcdd09;stroke-width:4px"/><path d="M752.17,250.56H729.49l-75.69,55-11.91-36.66h-14l38.2,117.55,18.35,13.33-26.28-80.89Z" style="fill:#fcdd09"/><path d="M669.74,322.66l82.42,26.78" style="stroke:#fcdd09;stroke-width:4px"/><path d="M694,429.44l-7-21.57-75.69-55,31.19-22.66-4.33-13.33-100,72.65-7,21.57,68.81-50Z" style="fill:#fcdd09"/><path d="M600,373.33V460" style="stroke:#fcdd09;stroke-width:4px"/><path d="M506,429.44l18.35-13.33,28.91-89,31.19,22.66,11.34-8.24-100-72.65H473.06l68.81,50Z" style="fill:#fcdd09"/><path d="M530.26,322.66l-82.42,26.78" style="stroke:#fcdd09;stroke-width:4px"/><path d="M447.83,250.56l18.35,13.33h93.56l-11.91,36.66,11.34,8.24,38.2-117.55-7-21.57-26.28,80.89Z" style="fill:#fcdd09"/><path d="M556.9,240.67,506,170.56" style="stroke:#fcdd09;stroke-width:4px"/></svg>