<svg xmlns="http://www.w3.org/2000/svg" viewBox="0 0 810 540"><title>European_Union_Final</title><rect width="810" height="540" style="fill:#039"/><polygon points="415.89 93.54 433.53 80.73 411.74 80.73 405 60 398.26 80.73 376.47 80.73 394.11 93.54 387.37 114.27 405 101.46 422.63 114.27 415.89 93.54" style="fill:#fc0"/><polygon points="415.89 453.54 433.53 440.73 411.74 440.73 405 420 398.26 440.73 376.47 440.73 394.11 453.54 387.37 474.27 405 461.46 422.63 474.27 415.89 453.54" style="fill:#fc0"/><polygon points="326.73 118.4 344.36 105.59 322.57 105.59 315.83 84.86 309.1 105.59 287.3 105.59 304.94 118.4 298.2 139.13 315.83 126.32 333.46 139.13 326.73 118.4" style="fill:#fc0"/><polygon points="260.13 181.39 277.77 168.58 255.97 168.58 249.24 147.85 242.5 168.58 220.71 168.58 238.34 181.39 231.61 202.12 249.24 189.31 266.87 202.12 260.13 181.39" style="fill:#fc0"/><polygon points="233.03 276.41 250.66 263.6 228.87 263.6 222.13 242.87 215.4 263.6 193.6 263.6 211.24 276.41 204.5 297.13 222.13 284.33 239.76 297.13 233.03 276.41" style="fill:#fc0"/><polygon points="263.74 363.33 281.38 350.52 259.58 350.52 252.84 329.79 246.11 350.52 224.31 350.52 241.95 363.33 235.22 384.06 252.84 371.25 270.48 384.06 263.74 363.33" style="fill:#fc0"/><polygon points="323.12 426.31 340.76 413.5 318.96 413.5 312.23 392.77 305.49 413.5 283.7 413.5 301.33 426.31 294.6 447.05 312.23 434.24 329.86 447.05 323.12 426.31" style="fill:#fc0"/><polygon points="483.27 118.4 465.64 105.59 487.43 105.59 494.17 84.86 500.9 105.59 522.7 105.59 505.06 118.4 511.8 139.13 494.17 126.32 476.54 139.13 483.27 118.4" style="fill:#fc0"/><polygon points="549.87 181.39 532.23 168.58 554.03 168.58 560.76 147.85 567.5 168.58 589.29 168.58 571.66 181.39 578.39 202.12 560.76 189.31 543.13 202.12 549.87 181.39" style="fill:#fc0"/><polygon points="576.97 276.41 559.34 263.6 581.13 263.6 587.87 242.87 594.6 263.6 616.39 263.6 598.76 276.41 605.5 297.13 587.87 284.33 570.24 297.13 576.97 276.41" style="fill:#fc0"/><polygon points="546.26 363.33 528.63 350.52 550.42 350.52 557.15 329.79 563.89 350.52 585.68 350.52 568.05 363.33 574.78 384.06 557.15 371.25 539.52 384.06 546.26 363.33" style="fill:#fc0"/><polygon points="486.88 426.31 469.24 413.5 491.04 413.5 497.77 392.77 504.51 413.5 526.3 413.5 508.67 426.31 515.4 447.05 497.77 434.24 480.14 447.05 486.88 426.31" style="fill:#fc0"/></svg>