<svg xmlns="http://www.w3.org/2000/svg" viewBox="0 0 760 400"><title>Federated_States_of_Micronesia</title><rect width="760" height="400" style="fill:#75b2dd"/><path d="M380,40,367.64,78l19,6.18" style="fill:#fff"/><path d="M380,40l12.36,38-19,6.18" style="fill:#fff"/><path d="M418,67.64H378v20" style="fill:#fff"/><path d="M418,67.64,385.68,91.15,373.93,75" style="fill:#fff"/><path d="M403.51,112.36l-12.36-38-19,6.18" style="fill:#fff"/><path d="M403.51,112.36,371.15,88.85l11.76-16.18" style="fill:#fff"/><path d="M356.49,112.36l32.36-23.51L377.09,72.67" style="fill:#fff"/><path d="M356.49,112.36l12.36-38,19,6.18" style="fill:#fff"/><path d="M342,67.64l32.36,23.51L386.07,75" style="fill:#fff"/><path d="M342,67.64h40v20" style="fill:#fff"/><path d="M540,200l-38-12.36-6.18,19" style="fill:#fff"/><path d="M540,200l-38,12.36-6.18-19" style="fill:#fff"/><path d="M512.36,238V198h-20" style="fill:#fff"/><path d="M512.36,238l-23.51-32.36L505,193.93" style="fill:#fff"/><path d="M467.64,223.51l38-12.36-6.18-19" style="fill:#fff"/><path d="M467.64,223.51l23.51-32.36,16.18,11.76" style="fill:#fff"/><path d="M467.64,176.49l23.51,32.36,16.18-11.76" style="fill:#fff"/><path d="M467.64,176.49l38,12.36-6.18,19" style="fill:#fff"/><path d="M512.36,162l-23.51,32.36L505,206.07" style="fill:#fff"/><path d="M512.36,162v40h-20" style="fill:#fff"/><path d="M380,360l12.36-38-19-6.18" style="fill:#fff"/><path d="M380,360l-12.36-38,19-6.18" style="fill:#fff"/><path d="M342,332.36h40v-20" style="fill:#fff"/><path d="M342,332.36l32.36-23.51L386.07,325" style="fill:#fff"/><path d="M356.49,287.64l12.36,38,19-6.18" style="fill:#fff"/><path d="M356.49,287.64l32.36,23.51-11.76,16.18" style="fill:#fff"/><path d="M403.51,287.64l-32.36,23.51,11.76,16.18" style="fill:#fff"/><path d="M403.51,287.64l-12.36,38-19-6.18" style="fill:#fff"/><path d="M418,332.36l-32.36-23.51L373.93,325" style="fill:#fff"/><path d="M418,332.36H378v-20" style="fill:#fff"/><path d="M220,200l38,12.36,6.18-19" style="fill:#fff"/><path d="M220,200l38-12.36,6.18,19" style="fill:#fff"/><path d="M247.64,162v40h20" style="fill:#fff"/><path d="M247.64,162l23.51,32.36L255,206.07" style="fill:#fff"/><path d="M292.36,176.49l-38,12.36,6.18,19" style="fill:#fff"/><path d="M292.36,176.49l-23.51,32.36-16.18-11.76" style="fill:#fff"/><path d="M292.36,223.51l-23.51-32.36-16.18,11.76" style="fill:#fff"/><path d="M292.36,223.51l-38-12.36,6.18-19" style="fill:#fff"/><path d="M247.64,238l23.51-32.36L255,193.93" style="fill:#fff"/><path d="M247.64,238V198h20" style="fill:#fff"/></svg>