<svg xmlns="http://www.w3.org/2000/svg" viewBox="0 0 1200 600"><title>Fiji_Final</title><rect width="1200" height="600" style="fill:#012169"/><path d="M0,300H600V0h600V600H0Z" style="fill:#69b3e7"/><path d="M778.8,143.94V349c0,67.08,121.2,106.91,121.2,106.91s121.2-39.8,121.2-106.91V143.94Z" style="fill:#fff"/><path d="M883.2,216v92.34H778.8v33.6H883.2v107.6l16.8,6.4,16.8-6.4V341.94h104.4v-33.6H916.8V216Z" style="fill:#c8102e"/><path d="M778.8,143.94h242.4v79.2H778.8Z" style="fill:#c8102e"/><ellipse cx="798.23" cy="192.21" rx="13.62" ry="10.96" style="fill:#fff;stroke:#000;stroke-miterlimit:3;stroke-width:0.8029999732971191px"/><ellipse cx="798.23" cy="186.52" rx="12.11" ry="6.12" style="fill:#fff;stroke:#000;stroke-miterlimit:3;stroke-width:0.8050000071525574px"/><ellipse cx="798.23" cy="198.77" rx="12.11" ry="6.12" style="fill:#fff;stroke:#000;stroke-miterlimit:3;stroke-width:0.8050000071525574px"/><ellipse cx="798.23" cy="192.21" rx="12.11" ry="6.12" style="fill:#fff;stroke:#000;stroke-miterlimit:3;stroke-width:0.8050000071525574px"/><path d="M1015.2,207.43l-2-5.48s-5.43-2.22-5.85-5.1c-1-7.69-3.71-10.58-7.83-11.68a9,9,0,0,0-6.87.69c-1.24,1.79-7.43,1.79-10.86,1.92s-3.49-1.49-3.49-1.49a4.37,4.37,0,0,1-3.79-1.94c-1.75-3.49-3-4.79-3.91-5.23,4.46.07,7.81-2,12.84-7.27,5.49-5.77,9.42-3.54,9.42-3.54-2.67,5.39.89,4.91.89,4.91,7.28-3.71,1-13.05-1.24-12.64s-2.82-1.07-2.82-1.07c.07,1.68-2.44,2.34-2.44,2.34,1.88-10.67-4.49-13.5-4.49-13.5a8,8,0,0,0-1.52,2.88c-1.78,6.46-7.69,5.5-14.29,2.34s-24.18,3.3-29.67,5.5-15.53,5.63-24.6.55-11.27-4.12-14.84-3.16-9.89,2.48-12.22,1.24a12.9,12.9,0,0,0-5-1.31c.64-.36-.36-1.85-.36-1.85-2.75-3.71.36-6,.36-6s-5.11,1.44-3.08,10.17l.93,1.31s.69,2.75,2.2,3.57l-.06.6s1.29-.6,1.7,1.18,2.34.14,3.16-1.37c0,0-1.38,8,8.52,9.89,0,0-1.11-1.24-.69-2.06s-1.23-1.52-1.09-2.75-2.47-1.78-.41-2.75,3-2.89,7.42-.27,7.83,2.06,7.83,2.06-2.68-5.5-1.2-5.5,8.12,8.23,11.39,7.82,9.59-4.11,12.75-2.74c0,0,.27-1.65,12.36-3.71s27-8.09,32.6-2.81c0,0,.65,4.18,3,5.28,0,0-.42,8.65-15.39,3.84l-5.43-1.43s-.83-2.63-29.3,4.69a12.15,12.15,0,0,0-2.77,1.41c-1.1.82-2.61-.41-8.25,1.65s-26.65,8.94-39.56,6.46h0c-2.84-.85-5.51-.41-5.62-.86s1.51.14,1.51.14c-1-1.1-1.37-1.19-1.37-1.19-10.85-1.19-8.94-6.09-8.94-6.09l.55,1.51c1.79-2.33-.69-7.83-.69-7.83h-.1a2.11,2.11,0,0,0-.1-.5l.9-.62a24.58,24.58,0,0,1,11.27-5.22c-3.57-4.39-11.13-2.06-11.13-2.06a38,38,0,0,0-2.06-11.54c-7.42.82-11.68,7-11.68,7-.27-5.49-7.28-8.65-7.28-8.65,2.61,3.16,1,10.71,1,10.71l.27.14h-.69l-.16,1.62-.26-.11s-2.61,1-5.63,7.83a7.85,7.85,0,0,1-1.47,3.09v-.56s-3.38,4.42-11.18,0c0,0-10.6-6.29-14.32-6.06s-6.17,2-5.94,3c0,0-8.5-.7-11.41,4.19,0,0-6.4,2.33-.93,7.57a8.16,8.16,0,0,0,2.33,3.5s-.23-4.78.93-3.38a2.75,2.75,0,0,0,.87.8,6.89,6.89,0,0,0,1.8,3.48l.82-.26a15.56,15.56,0,0,1,.65-3.33h.27l-.1.09,1.51,2.33,1.74-.93a3.16,3.16,0,0,1,1.86.7l2-1.63h0c2,.33,2.48-3.45,2.48-3.45a6.11,6.11,0,0,0,4.78-.9c.85,3.13,7.79,6.5,7.79,6.5h.3a11.43,11.43,0,0,0-.94.66c3.16,2.2,9.07,1.65,9.07,1.65-2.47,1-2.13,5.54-2.13,5.54a2.6,2.6,0,0,0-1.59,2c4.81,1.92,8.1.33,8.1.33.26,1.56-.12,1.73-.12,1.73a41.45,41.45,0,0,0-2.75,8.1h.13a3.43,3.43,0,0,0-.18.32s-8.38,2.91-12.11,7c0,0-.35-1.17-1.4-1.17s-4.31-2.67-5.82-3.14-3.72.47-4.31-.23-.29-5.41-1.3-6.18h0l-1-2.91c-.7,1.51-3.61,1.16-3.61,1.16l-1.2.87a4.33,4.33,0,0,1-1.25-.17c-.3.06-.59.9-.81,1.71l-.35.27V199c-.58.47-1.74-.23-2.21-.23-.23,0-.51.67-.74,1.35a23,23,0,0,1-2.75.28c-.47.23-.12,3.84-.12,3.84-3.37,1.86-1.75,4.66-1.75,4.66,1.86,9.08,17.35,5,18.52,6.17s3.84,1.39,5.24,1.39,3.14,3.38,5.12,3.73,0-2.68,9.18-4.87,12.24-6,12.24-6c2.88-.55,3.68-4,3.89-5.46a17.24,17.24,0,0,0,.21,2.19,4.1,4.1,0,0,1-1.77,4.31l8-2.39a3.28,3.28,0,0,0,2.75-3.57c3,8.66,8.52,9.21,8.52,9.21,1.1-3.3,1-4.26,1-4.26l2.47-.13c.1-1.86-1.54-3.23-2.5-3.86l3.87,2.35,1.51-.27c0,1.37,2.06,2.61,2.06,2.61l.28-1.78c1.79,2.34,5.08,1.51,5.08,1.51a11,11,0,0,0-.29-1.28c7,4.35,18.29-1.19,18.29-1.19,3,.69,3.43-1.1,3.43-1.1,3.43.41,4.23-1.94,4.23-1.94,8.08-.7,13.77-6.45,13.77-6.45,4-.27,4.11-3.12,4.11-3.12s4,.79,7.84-4c8.93-12.77,22.28-6.12,22.28-6.12l-7.72.49c-20.19-.14-11.82,13.6-11.82,13.6l1.24-.13c1.92.41,8.52,5.63,6.09,9.52l-.14.19c-4.12,5.64-11.74.26-13.91-4.5A6.12,6.12,0,0,0,917,200s-11.4,1.92-6.73,11h.17c.09,2.21,1.47,4.73,5.54,7.24,2.28,3.23,9.79,3.57,15.31,2.37,2.57-.56,16.11-6.38,16.11-6.38,1-2.95,4.36-2.27,7.38-6.53s-4.26-5.77-5.91-8.1.41-1.92.41-1.92c6.59,3.57,7.14-7.83,7.14-7.83a9.89,9.89,0,0,0,6.46,8.38c3.57-3.57,1-10.85,1-10.85,8.52,15.25,13.68,12.82,13.68,12.82-4.59-2.84-2.28-6.64-2.28-6.64,4.12,16.21,21,2.06,21,2.06-.82,2.33,0,3.71,1.51,5.22s3.3,2.2,2.48,4.95-8.65,2.2-8.65,2.2-7.7-.41-7,6c.4,1.51,5.49,2.06,7.41,1.65,0,0-.79.17,2,.55a21.32,21.32,0,0,0,3.27.1,62,62,0,0,0,6.77-.66c4.39-1,3.71-2.48,3.71-2.48,6.73-1.24,7.42-5.78,7.42-5.78Z" style="fill:#fedd00;stroke:#000;stroke-miterlimit:3;stroke-width:1.2000000476837158px"/><path d="M792,179.29s.36-.85,1-.95,1.16.31,1.83,1.12l.37-.28s-1.81-2.65-1.1-4.5a3,3,0,0,1,2.36-1.67l-.1-.45a3.44,3.44,0,0,0-2.69,2,3.13,3.13,0,0,0-.2,1.14,6.24,6.24,0,0,0,.64,2.52,1.73,1.73,0,0,0-1.18-.3,1.66,1.66,0,0,0-1.21.93Z"/><path d="M1004,215.28c-4.59.73-11.33,1.13-11.86-.26-.09-.25-.11-1.24,3.65-3.69l-.44-.67c-3.14,2-4.4,3.52-4,4.65,1,2.5,10.8,1.07,12.76.76Z"/><path d="M916.2,217.93c-1-1.6-.58-3.79,1.4-6.52l-.65-.47c-2.19,3-2.67,5.52-1.42,7.43Z"/><path d="M910,211c.1,2.77,2.06,5.34,5.8,7.63l.42-.69c-3.51-2.14-5.32-4.49-5.42-7-.14-3.81,3.89-6.75,3.93-6.78l-.47-.65c-.18.13-4.42,3.22-4.26,7.47Z"/><path d="M988.29,212.05a6.11,6.11,0,0,0-.82,4.2l.79-.15a5.33,5.33,0,0,1,.7-3.6,4.59,4.59,0,0,1,3.1-1.83l-.15-.79A5.37,5.37,0,0,0,988.29,212.05Z"/><path d="M808.92,176.89l-.25-.06v.26s-.36,2.46-1.46,3.13a1.13,1.13,0,0,1-1,.06l-1.88-1.14a1.2,1.2,0,0,0-1.24-.41,2.71,2.71,0,0,1-.54-1.66,2.38,2.38,0,0,1,0-.33,4.82,4.82,0,0,1,2.29-3.15l-.26-.38a5.24,5.24,0,0,0-2.48,3.48,3.35,3.35,0,0,0,.7,2.45l.11.13.15-.07c.42-.18.54-.08,1,.28l2,1.23a1.58,1.58,0,0,0,1.42-.1c1.14-.69,1.55-2.68,1.64-3.24,4.88,1,8.8-4.88,9-5.13l-.39-.25c0,.06-4,6.13-8.71,4.91Z"/><path d="M797.23,176a3.68,3.68,0,0,0,.49,2.88c.54.88,1.07,1.34,1.62,1.42a2.21,2.21,0,0,0,1.69-.84c.35-.32.67-.63.94-.6l.42.29.36-.29-.75-.46a2,2,0,0,0-1.29.73c-.42.4-.85.79-1.31.73s-.83-.46-1.29-1.21a3.25,3.25,0,0,1-.44-2.53c.53-2.18,3.13-3.77,3.15-3.79l-.24-.39C800.48,172,797.8,173.62,797.23,176Z"/><path d="M790.52,207a3.66,3.66,0,0,1,1.92-2.13c-.21,0,1,1,2.07.9l.68-.37a6,6,0,0,1,2.1,4,3.38,3.38,0,0,1-.28,1.35l.43.18c1.33-3.15-2-5.94-2-6l-.12-.1-.21.13-.6.32a3.54,3.54,0,0,1-2-.83,3.78,3.78,0,0,0-2.4,2.4Z"/><path d="M806,199c-1,.09-3.8.62-4.71,2.07a1.86,1.86,0,0,0-.14,1.73l.37,1c.87,2.34,1.78,4.77,2.76,5.31l.22-.4c-.84-.46-1.75-2.91-2.56-5.07l-.36-1a1.41,1.41,0,0,1,.09-1.33c.75-1.19,3.27-1.77,4.37-1.86.64-.05.85,2.31,1,3.73h.46c-.18-2.08-.38-4.24-1.47-4.14Z"/><path d="M798.38,201.3a1.58,1.58,0,0,0-.46,1.35c0,.22.27,6.07,3,7.28l.18-.42c-2.51-1.1-2.77-6.84-2.77-6.9a1.16,1.16,0,0,1,.32-1c.42-.37,1.26-.4,2.42-.08l.12-.44c-1.34-.37-2.3-.31-2.85.18Z"/><path d="M796.18,201.78c-1.23.86-1.18,3.3-1.18,3.4h.46s0-2.3,1-3a1.54,1.54,0,0,1,1.5,0l.17-.42a1.94,1.94,0,0,0-1.93.08Z"/><path d="M862.33,169.49a15.72,15.72,0,0,1,1.31,5.31,4,4,0,0,1-.29,1.08l-.5-1.37-.39,1a3.44,3.44,0,0,0,.38,2.88c1.2,2,4.19,3.24,8.88,3.76h0l.07.06a.86.86,0,0,0-.39.12l-.19.16v.4c.12.49.68.51,1.78.55l.71.07.56.15-.09-.11a12.82,12.82,0,0,1,3.58.83l-1,.25,1.16.46c.09,0,8.65,3.47,12.19,6.3-1,.87-5.3,4.08-12.74,2.25l-1.25-.31.84,1c0,.06,4.9,5.61,5.9,9-1.69,0-8.19,0-10.46-2l-.59.54s3.12,4.58,3.8,8.1a4.55,4.55,0,0,1-4.25-1.43l-.58-.75-.31,2c-.6-.46-1.37-1.14-1.37-1.87v-.48l-1.83.33-3.77-2.28c-.32-.21-.54-.33-.6-.36h0l-.39.71.58.35a4.8,4.8,0,0,1,2.33,3.19l-2.45.14V210a14.06,14.06,0,0,1-.85,3.68c-1.16-.28-5.37-1.74-7.86-8.87l-.78.19a1.92,1.92,0,0,1,0,.27,2.89,2.89,0,0,1-2.46,2.86l-6.4,1.87a4.5,4.5,0,0,0,.82-2.68,7.24,7.24,0,0,0,0-.84,20.41,20.41,0,0,1-.22-2.62,3.08,3.08,0,0,1,1.41-3l-.36-.72c-.1,0-9.62,3.82-14.34,2.25a40.78,40.78,0,0,1,2.63-7.62l-.21.2c.31-.13.63-.62.36-2.17l-.09-.53-.48.23a10.41,10.41,0,0,1-7.42-.24,1.93,1.93,0,0,1,1.23-1.38l.27-.11V190c0-1.18.18-3.94,1.88-4.6l-.18-.78c-.06,0-5.16.42-8.26-1.31a11.14,11.14,0,0,1,4.5-1.88h.32v-.32a2,2,0,0,0,0-.26,5.94,5.94,0,0,0-.51-2c1.18.33,2.59.63,3.09.25l.17-.13-.15-3.1h-.8s.1,2.05.12,2.56a11.66,11.66,0,0,1-3-.63l-1.23-.39.79,1a4,4,0,0,1,.74,2.33,12.68,12.68,0,0,0-5.07,2.33l-.41.34.43.3c2.4,1.67,6.15,1.82,8.08,1.77a7.24,7.24,0,0,0-1.33,4.49v.39a3.12,3.12,0,0,0-1.58,2.18v.3l.28.12c4.12,1.64,6.94.85,7.9.5v.39a1.09,1.09,0,0,1-.07.49,41.67,41.67,0,0,0-2.89,8.32l-.07.33.31.12c3.83,1.53,10.71-.56,13.75-1.63a4.68,4.68,0,0,0-.63,2.43,21.22,21.22,0,0,0,.23,2.73,5.35,5.35,0,0,1,0,.72,3.54,3.54,0,0,1-1.61,3.18l.31.74,8-2.39a3.64,3.64,0,0,0,2.82-2.49c3.14,7.44,8.07,8.11,8.28,8.14h.32l.1-.3a16.78,16.78,0,0,0,1-4l2.46-.13v-.54a3.66,3.66,0,0,0-.49-1.76l1.38.83,1.32-.24a5.18,5.18,0,0,0,2.13,2.5l.51.31s.19-1.21.27-1.74a6.09,6.09,0,0,0,4.89,1.2l.35-.09,0-.36c-.4-2.69-2.2-5.89-3.27-7.6,3.49,1.59,9.85,1.47,10.16,1.46h.47l-.09-.46c-.56-2.82-4.09-7.27-5.57-9,8.2,1.54,12.61-2.71,12.8-2.91l.29-.31-.32-.28c-2.76-2.4-9.11-5.19-11.66-6.26l.89-.23-.88-.49a12.9,12.9,0,0,0-5.93-1.41h0c-1-1.11-1.46-1.29-1.59-1.32-5.55-.61-7.58-2.17-8.32-3.37-.06-.1,0-.17-.08-.26l.24-.32a4.25,4.25,0,0,0,.73-2.62,16.23,16.23,0,0,0-1.37-5.62l-.74.33Z"/><path d="M836.8,167.86a7.12,7.12,0,0,1-3.2,4.54c-2,1.07-4.52,1-7.64-.27l-.35-.14v.38a5,5,0,0,0,1.9,3.17c1.4,1.09,3.41,1.47,5.92,1.2-.84,1-3.54,4.45-3.54,7.8v.53c.34.25,4.58,1.39,6.54-1.12.07,1.08.38,4.52,1.72,5.87a3.71,3.71,0,0,1,.91,2.66,6.68,6.68,0,0,1-.15,1.38l-.15.61.51-.37c.16-.12,4.06-3,5.3-6.71a3.77,3.77,0,0,1,1.83-1.32,3.43,3.43,0,0,0,0,.56c0,1.44.63,4.06,4.84,5.67l.34.13v-.37a7.14,7.14,0,0,1,0-.73c0-1.05.15-3,1.15-4a2.82,2.82,0,0,0,.86-2,3.42,3.42,0,0,0-.23-1.22c.85.21,2.85.86,3.67,2.39,1.19,2.22,5.34.45,5.52.38l-.14-.44a4.17,4.17,0,0,1-2.84-.36,2.12,2.12,0,0,1-.87-1.51l-.19-2.31a3.19,3.19,0,0,0-.71-2.27,2,2,0,0,1,2.12,1c.73,1.62,3.25,1.77,3.36,1.78h.86l-.72-.47s-2.2-1.46-1.82-3.34l.31-1.38c.6-2.48,1.59-6.63.78-9.18l-.44.14a7.47,7.47,0,0,1,.28,2.2,31.08,31.08,0,0,1-1.07,6.74l-.32,1.39a2.61,2.61,0,0,0,0,.54,3.79,3.79,0,0,0,1.41,2.7,2.93,2.93,0,0,1-2.15-1.37,2.7,2.7,0,0,0-3-1.23l-.54.11.46.31c.73.49.75,1.05.8,2.29l.19,2.36a2.55,2.55,0,0,0,1.06,1.82,3.25,3.25,0,0,0,1.67.44c-1.23.32-2.92.52-3.53-.62-1.14-2.13-4.29-2.7-4.42-2.73l-.48-.08.24.42a3.16,3.16,0,0,1,.36,1.42,2.38,2.38,0,0,1-.73,1.74c-1.12,1.13-1.29,3.17-1.29,4.3v.39c-3.6-1.51-4.23-3.75-4.23-5a3.42,3.42,0,0,1,.12-.94l.1-.35-.36.06a3.55,3.55,0,0,0-2.5,1.77,14.9,14.9,0,0,1-4.69,6.15,6.88,6.88,0,0,0,.07-.9,4.15,4.15,0,0,0-1-3c-1.43-1.43-1.62-6-1.62-6v-.82l-.4.71c-1.58,2.83-6.2,1.47-6.24,1.46-.19-3.58,3.87-8.16,3.91-8.21l.42-.47-.63.09c-2.65.38-4.71,0-6.12-1.06a4.63,4.63,0,0,1-1.64-2.5c3.08,1.15,5.66,1.21,7.64.11a7.43,7.43,0,0,0,3.41-4.81c2.91-6.61,5.46-7.65,5.49-7.66l-.16-.43c-.12,0-2.74,1.07-5.77,7.95Z"/><path d="M843.45,158.07h-.19l-2.36,3.24.7.07c12.83,1.25,19.61,9,19.68,9.07l.3.34,2.33-2.53-.17-.26c-6.51-10.24-20.14-9.95-20.27-9.94Zm.22.8c1.59,0,13.27.36,19.19,9.33l-1.28,1.4a32.65,32.65,0,0,0-19.24-8.91l1.33-1.82Z"/><path d="M841.6,164.84a11,11,0,0,0-2.11,4.74.69.69,0,0,0,.12.45h.06a7.29,7.29,0,0,0-2.13,5.46,10.83,10.83,0,0,0,.68,3.77l.26.69c1.26,3.42,2.34,6.38,7.79,4.64,5.24-1.68,5.45-2,6.77-4.19l.34-.56a3.45,3.45,0,0,1,2.34-1.65,4.08,4.08,0,0,0,2.94-2.4l.88-1.32a9.78,9.78,0,0,0,2.28-5h-.46a9.39,9.39,0,0,1-2.2,4.78l-.92,1.39a3.65,3.65,0,0,1-2.66,2.17,3.89,3.89,0,0,0-2.6,1.85l-.35.57c-1.27,2.1-1.43,2.37-6.51,4s-6-.9-7.22-4.36l-.26-.7c-1.43-3.82-.31-7.67,1.55-9l.64-.48-.89.1a.45.45,0,0,1,0-.13,10.52,10.52,0,0,1,2-4.46,15.44,15.44,0,0,1,3.92-3.16l-.23-.4a15.66,15.66,0,0,0-4.06,3.29Z"/><path d="M839.16,178.65c.9.62,2.17.58,3.69,0a3.42,3.42,0,0,0,1.08,2.54c1.12,1,3,1.18,5.5.57l-.11-.45c-2.37.57-4.09.41-5.09-.47a3.11,3.11,0,0,1-.92-2.46V178l-.36.15c-1.54.66-2.74.7-3.57.12-1.5-1-1.38-3.75-1.38-3.79h-.46c0,.12-.13,3,1.58,4.19Z"/><path d="M842.07,175a1.07,1.07,0,0,0-.83,1.13,1.74,1.74,0,0,0,0,.28c.12,1.18,1.4,2,2.56,2.31s2.53.35,3.08-.36c.22-.28.38-.79-.1-1.61A3.72,3.72,0,0,0,842,175Zm1.89,3.27c-1-.29-2.14-1-2.23-1.93,0-.09-.13-.75.45-.89h0a3.25,3.25,0,0,1,4.19,1.55c.28.48.33.84.13,1.09-.34.44-1.45.53-2.58.2ZM842,175Z"/><path d="M843.65,181c-.3,2.51-.12,2.57.07,2.63l.16.05.18-.21,1.46-1.92-1.83-.87V181Zm.42.38.74.35-.84,1.11c0-.38,0-.91.11-1.46Z"/><path d="M839.86,179l-.1,2.38,2-2.41-1.89-.21V179Zm.45.27.55.06-.58.71v-.77Z"/><path d="M838.53,178.2a32.08,32.08,0,0,1,1.74,3.95,3.25,3.25,0,0,0,2,1.8,2.82,2.82,0,0,0,2.66-.17l1.32-1.1c.44-.42.59-.54,1-.48l.08-.45c-.6-.1-.89.18-1.34.6l-1.27,1.06a2.43,2.43,0,0,1-2.24.12,2.85,2.85,0,0,1-1.74-1.48,32.5,32.5,0,0,0-1.78-4l-.41.21Z"/><path d="M840.44,169.6a5.18,5.18,0,0,0-2.33,2.8l.43.15a4.8,4.8,0,0,1,2.09-2.53,2.91,2.91,0,0,1,2.34,0l.17-.42A3.31,3.31,0,0,0,840.44,169.6Z"/><path d="M851.33,174.76c.13.1,3.19,2.41,1.43,5.24l.39.24c2-3.19-1.51-5.83-1.54-5.86l-.27.37Z"/><path d="M842.13,175.21s-.48,1.73,2,2.34c0,0-2.29,0-2.43-.61S841.67,175,842.13,175.21Z"/><path d="M849.57,177.28a.27.27,0,1,1-.27-.27.27.27,0,0,1,.27.27Z"/><path d="M849.84,178.36a.27.27,0,0,1-.27.27h0a.27.27,0,1,1,.27-.27Z"/><circle cx="848.01" cy="177.82" r="0.27"/><path d="M848.75,179.45a.27.27,0,1,1-.27-.27.27.27,0,0,1,.27.27Z"/><path d="M841.65,172.13a.27.27,0,1,1-.55,0h0a.27.27,0,1,1,.55,0Z"/><circle cx="841.65" cy="173.22" r="0.27"/><circle cx="840.09" cy="172.68" r="0.27"/><path d="M840.83,174.3a.28.28,0,0,1-.27.27.28.28,0,1,1,0-.55A.28.28,0,0,1,840.83,174.3Z"/><path d="M845.57,164.75s3.52,2.16.13,6.23a5,5,0,0,0,1.84-3.36C847.72,165.49,846.33,163.8,845.57,164.75Z"/><path d="M859.07,170.59c-1.13.58-2.76-.5-3.58-1.51s-2.5-1.28-3.55.58a6.36,6.36,0,0,1-2.56,2.56,15.1,15.1,0,0,0,3-2.5c1.51-1.63,2.39-.32,3.87.47s1.72,1,2.76.55l.06-.14Z"/><path d="M858.78,170.86a1.71,1.71,0,0,1-2.21-.09c-.9-.73-1.66-1.71-2.79-1.13a33.17,33.17,0,0,0-3.29,2.21s3.49-2.42,4.17-1.89,2.24,1.8,3.2,1.43.93-.53.93-.53Z"/><path d="M856.1,172.34c-1.11-.84-2.21,1-3.14.76s-1.69-1.78-1.69-1.78.88,1.63,2.1,1.25,2.07-1.14,2.82-.55S856.1,172.34,856.1,172.34Z"/><path d="M854.37,172.57a2.06,2.06,0,0,1-2.38-1.68s0-.1,0-.15a2.39,2.39,0,0,0,2.62,1.46Z"/><path d="M854.3,171.18c.14.55.11.8-.47.8s-1-.2-1-.77S854.21,170.82,854.3,171.18Z"/><path d="M846.46,168.15a.69.69,0,0,1-.69.69h0c-.39,0-.46-.26-.46-.64s.08-.73.46-.73a.69.69,0,0,1,.7.68Z"/><path d="M844,165.71s3.74,0,1.89,4.72c0,0,1.43-2.33.53-4a2,2,0,0,0-2.31-1.25S843.82,165.49,844,165.71Z"/><path d="M843.94,167.58a3.93,3.93,0,0,0,1.86,2.88l.29-.36a3.49,3.49,0,0,1-1.68-2.51,1.72,1.72,0,0,1,.62-1.26l-.27-.37a2.18,2.18,0,0,0-.8,1.62Z"/><path d="M844.77,168.37a1.92,1.92,0,0,0,1.24,1.21l.17-.42a1.49,1.49,0,0,1-1-.91,2.39,2.39,0,0,1,.41-1.73l-.37-.27a2.81,2.81,0,0,0-.48,2.13Z"/><path d="M849.9,171a3.49,3.49,0,0,1-.32,3.14,18.33,18.33,0,0,1-1,1.54s1.22-2.24.76-3.18a1.18,1.18,0,0,1,.55-1.51Z"/><path d="M864.45,186.76c3.84.72,12.51,7.52,12.6,7.59l.5-.64c-.36-.28-8.91-7-13-7.74l-.15.79Z"/><path d="M867.86,196.35c.26,3.41,4,5.53,4.13,5.61l.39-.7s-3.49-2-3.72-5Z"/><path d="M858.65,197.06c0,3.82,3.58,8.45,3.74,8.65l.63-.5s-3.57-4.6-3.57-8.15Z"/><path d="M846.5,197.49c.63,1.26.57,1.9.4,2.22a.86.86,0,0,1-.59.41l.09.8a1.65,1.65,0,0,0,1.2-.82c.38-.7.25-1.7-.38-3l-.72.35Z"/><path d="M791.86,178.63a6.36,6.36,0,0,0,2.21,4.08s-.23-2.8.35-4a1.89,1.89,0,0,0-2.56-.12Z" style="fill:#fff;stroke:#000;stroke-miterlimit:3;stroke-width:0.36000001430511475px"/><path d="M795.81,180.26a6.43,6.43,0,0,0,1.86,3.38l.82-.23s.35-2.91.81-3.26S797.33,181.19,795.81,180.26Z" style="fill:#fff;stroke:#000;stroke-miterlimit:3;stroke-width:0.36000001430511475px"/><path d="M799.31,180.14l1.51,2.33,1.74-.93-.35-2.79s-1-.24-2.91,1.39Z" style="fill:#fff;stroke:#000;stroke-miterlimit:3;stroke-width:0.36000001430511475px"/><path d="M806.41,180.61l-2,1.63a3.16,3.16,0,0,0-1.86-.7l.35-2.56s1.4-1,3.49,1.63Z" style="fill:#fff;stroke:#000;stroke-miterlimit:3;stroke-width:0.36000001430511475px"/><path d="M792.32,204.71s-.35-3.61.12-3.84c0,0,1.39.47,2-.12a13.76,13.76,0,0,1,.58,4.08c-.23,1.16-1.63.7-2.68-.12Z" style="fill:#fff;stroke:#000;stroke-miterlimit:3;stroke-width:0.36000001430511475px"/><path d="M801.29,201s-.12-3,.47-3.38c0,0,2.91.35,3.61-1.16l1,2.91S803.15,199,801.29,201Z" style="fill:#fff;stroke:#000;stroke-miterlimit:3;stroke-width:0.36000001430511475px"/><path d="M798.15,201.56s.58-3.14,1.17-3.26c0,0,1.51.46,2-.12L801.2,202s.12-1.63-3-.47Z" style="fill:#fff;stroke:#000;stroke-miterlimit:3;stroke-width:0.3499999940395355px"/><path d="M794.77,202s.7-2.79,1.17-2.79,1.63.7,2.21.23v2.1s-2.57-.58-2.91,2.91l-.47-2.44Z" style="fill:#fff;stroke:#000;stroke-miterlimit:3;stroke-width:0.3499999940395355px"/><path d="M840.16,260s7.91,7.35,5.85,13.76c0,0,5.09-10.93-.38-14.14S840,258.87,840.16,260Z" style="fill:#00ad50;stroke:#000;stroke-miterlimit:4.800000190734863;stroke-width:0.7799999713897705px"/><path d="M830.17,267.15s-2.07,2.83.19,4.91c0,0-2.45,3.57-.56,6.6a13.87,13.87,0,0,0-1.13,6.6s-1.32,5.28,1.5,7.73c0,0,3,1.51,4.34.19,0,0,2.64-4,.94-8.11a8.81,8.81,0,0,0-.19-7.73,7.67,7.67,0,0,0-1.13-5.27s1.13-1.89.19-3.39c0,0-3.77-4-4.15-1.51Z" style="fill:#862633;stroke:#000;stroke-miterlimit:4.800000190734863;stroke-width:0.7799999713897705px"/><path d="M832.43,257.92s-9.42-18.09-16-18.85-7-7.16-7-7.16.75,3,6,3,15.46,7.35,16.59,13,2.26,4.9,2.26,4.9l-1.89,5.09Z" style="fill:#00ad50;stroke:#000;stroke-miterlimit:4.800000190734863;stroke-width:0.7799999713897705px"/><path d="M832.43,256.6s3.39-22.8,18.29-23.18,10,1.13,13.57-1.32c0,0-10,5.28-16.21,6S836.77,250.94,837,253.21s-3.39,6.6-5.09,5.09.56-1.7.56-1.7Z" style="fill:#00ad50;stroke:#000;stroke-miterlimit:4.800000190734863;stroke-width:0.7799999713897705px"/><path d="M835.82,265.09s3.39-9,9.24-6c0,0-4.53-8.67-12.63-1.13,0,0,3.58,4.9,3.39,7.16Z" style="fill:#00ad50;stroke:#000;stroke-miterlimit:4.800000190734863;stroke-width:0.7799999713897705px"/><path d="M824.51,256s4.9,20.17-2.64,26.39c0,0,.19-10.36-4.34-16.58s4.52-13,7-9.81Z" style="fill:#00ad50;stroke:#000;stroke-miterlimit:4.800000190734863;stroke-width:0.7799999713897705px"/><path d="M825.08,259.62s8.86,8.48,9.43,11.31,2.64-8.48-1.51-11.68a19.72,19.72,0,0,0-8.67-3.77Z" style="fill:#00ad50;stroke:#000;stroke-miterlimit:4.800000190734863;stroke-width:0.7799999713897705px"/><path d="M808.74,281.85s.8,3.56,3,4.25c0,0,.11,2.65,2.07,3.45a3.09,3.09,0,0,0,.69,3.56s-.35,4.37,1.26,5.29c0,0,3.91-.23,5.28-1.38a7,7,0,0,0-1.37-5.75,4.74,4.74,0,0,0-1.84-4.25s.69-3.68-2.07-5.06c0,0-.46-3-2.18-4.48,0,0-3.33,4.71-4.82,4.37Z" style="fill:#862633;stroke:#000;stroke-miterlimit:4.800000190734863;stroke-width:0.7799999713897705px"/><path d="M813.1,277.48s-11.61-4.25-18,1.84c0,0,9.88,1.38,11.15,3.33s7.35-3.22,6.9-5.17Z" style="fill:#00ad50;stroke:#000;stroke-miterlimit:4.800000190734863;stroke-width:0.7799999713897705px"/><path d="M809.54,284.72s-.92-.8-2.07-1.61-10.92-3.45-12.3,6c0,0-3.56-9.31,1.61-10.57s9.31,1.72,12.76,6.21" style="fill:#00ad50;stroke:#000;stroke-miterlimit:4.800000190734863;stroke-width:0.7799999713897705px"/><path d="M801.9,265.46s3.58,7.73,4.9,8.11a2.29,2.29,0,0,0,2.26-.94S804.35,265.65,801.9,265.46Z" style="fill:#00ad50;stroke:#000;stroke-miterlimit:4.800000190734863;stroke-width:0.7799999713897705px"/><path d="M799.26,253.59s-3-10-6.6-7.35S790,256,790,256s-7.16-7.35-3-13.19,12.25.57,12.25,10.74Z" style="fill:#00ad50;stroke:#000;stroke-miterlimit:4.800000190734863;stroke-width:0.7799999713897705px"/><path d="M807.37,274.13s0,1.89,1.32,2.45,3.77,1.5,3.77.38-1.88-5.47-2.64-4.9-2.07.56-2.45,2.07Z" style="fill:#862633;stroke:#000;stroke-miterlimit:4.800000190734863;stroke-width:0.7799999713897705px"/><path d="M805.11,262.45s-.38-8.67,5.27-11.88c0,0,1.13.19,1.7-1.5,0,0-4.53,10.93-3.21,16.39l-.19.75" style="fill:#00ad50;stroke:#000;stroke-miterlimit:4.800000190734863;stroke-width:0.7799999713897705px"/><path d="M806.24,251.89s10.18-21.11,22.62-13.76c0,0-13,2.64-17.71,11.88l-4.71,7-.19-5.08Z" style="fill:#00ad50;stroke:#000;stroke-miterlimit:4.800000190734863;stroke-width:0.7799999713897705px"/><path d="M800.77,259.62s-3-14.13-4.9-16-5.09-4-8.86-.76c0,0,6.6-5.85,13.57-.94A13.07,13.07,0,0,1,806,254.53l-.75,9.8L800.58,260" style="fill:#00ad50;stroke:#000;stroke-miterlimit:4.800000190734863;stroke-width:0.7799999713897705px"/><path d="M811.7,276.39s-12.44-23.55-20.54-6.78c0,0-1.51,4.33.18,6,0,0-4.52-3.39-2.45-11.68s15.83-4.52,19.79,2.26,5.09,10.18,4.52,10.55-1.51-.38-1.51-.38Z" style="fill:#00ad50;stroke:#000;stroke-miterlimit:4.800000190734863;stroke-width:0.7799999713897705px"/><path d="M846.76,283.18s9-18.66,14.32-10.18c0,0,1.51,4.14-.76,5.85,0,0-3.58-4.34-6.78.94s-1.89,4.9-1.89,4.9-3.39.94-4.9-1.51Z" style="fill:#00ad50;stroke:#000;stroke-miterlimit:4.800000190734863;stroke-width:0.7799999713897705px"/><path d="M860.32,278.84s4.9,2.64,3.21,7.91c0,0,6.59-12.62-2.45-13.76C861.08,273,862.78,277,860.32,278.84Z" style="fill:#00ad50;stroke:#000;stroke-miterlimit:4.800000190734863;stroke-width:0.7799999713897705px"/><path d="M860.89,266s11.88,3.39,12.25,8.48c0,0,2.08-9.81-4.71-12.82C868.43,261.66,860.32,263,860.89,266Z" style="fill:#00ad50;stroke:#000;stroke-miterlimit:4.800000190734863;stroke-width:0.7799999713897705px"/><path d="M866.17,250.38c5.09-10,11.5,3.2,11.5,3.2s2.26-10.36-4.14-12.25-10.56,22-10.56,22l-7.54,1.7s2.07-20.92,13.38-22.8l1.32.19" style="fill:#00ad50;stroke:#000;stroke-miterlimit:4.800000190734863;stroke-width:0.7799999713897705px"/><path d="M857.12,256.41s-7.16-14.7-12.06-16.21,2.64-3.77,5.66-.94,8.67,6.41,8.1,13.95l-1.7,3.2Z" style="fill:#00ad50;stroke:#000;stroke-miterlimit:4.800000190734863;stroke-width:0.7799999713897705px"/><path d="M849.77,276.58s2.07-10,7.73-13a17.45,17.45,0,0,1,10.93-1.88s-6.79,1.5-7.91,4.9-3,3.58-3,3.58l-7.73,6.41Z" style="fill:#00ad50;stroke:#000;stroke-miterlimit:4.800000190734863;stroke-width:0.7799999713897705px"/><path d="M846.76,283.18s-3.2,6-2.45,7c0,0-3.39,4.9-2.07,7.35,0,0,3.39,2.64,4.9,1.51,0,0,4-5.46,2.82-8.48,0,0,2.64-3.58,1.7-5.84,0,0-4,.19-4.9-1.51Z" style="fill:#862633;stroke:#000;stroke-miterlimit:4.800000190734863;stroke-width:0.7799999713897705px"/><path d="M830.18,272.41c.21.11,2.12,1,3.4.6l.92-.78-.72-.36c-.47.93-2.54.16-3.23-.18Z"/><path d="M829.87,278.26l-.16.79c.16,0,4,.77,5.81-.85l-.54-.6c-1.52,1.35-5.08.67-5.12.66Z"/><path d="M828.9,284.92l-.47.65s4.49,3.2,7.33-.26l-.62-.51C832.78,287.67,829.06,285,828.9,284.92Z"/><path d="M811.64,285.88l.17.43c.16-.07,3.93-1.58,4.16-4.33h-.46C815.3,284.41,811.68,285.87,811.64,285.88Z"/><path d="M813.77,289.32v.46c.15,0,3.62-.27,4.23-2.7l-.45-.12C817.06,289.07,813.8,289.32,813.77,289.32Z"/><path d="M814.49,292.88v.46c.17,0,4.06.21,5.38-2l-.39-.24C818.27,293.08,814.53,292.88,814.49,292.88Z"/><path d="M844,290.44a5.71,5.71,0,0,0,3.71,1.66,3.46,3.46,0,0,0,2.53-1.3l-.61-.53a2.69,2.69,0,0,1-2,1,5,5,0,0,1-3.12-1.43l-.57.57Z"/><path d="M961.06,304.22a1.66,1.66,0,0,0-.61.4Z" style="fill:#862633;stroke:#000;stroke-miterlimit:4.800000190734863;stroke-width:0.41999998688697815px"/><path d="M974.92,300.75c-.13-.34-.22-.2-.4-.35s-.4-.88-.62-1.13-.28,0-.43,0c-.32-.71-.71-1.46-1-2.15a.6.6,0,0,0,.09-.32s-.16-.58-.17-.6a.57.57,0,0,1-.34-.3,4.62,4.62,0,0,1-.06-1,2.89,2.89,0,0,1-.1-.69c0-.28.17-.62.15-.87a2.93,2.93,0,0,0-.25-.64,4.75,4.75,0,0,1-.44-1.71,9.48,9.48,0,0,1,.14-1.49c.06-.63-.27-.93-.27-1.51a10.93,10.93,0,0,1,.24-1.33,10,10,0,0,0,0-1.88,5.52,5.52,0,0,1-.11-1.45,4.29,4.29,0,0,0,.11-.47v-2.15c0-.27-.16-.46-.16-.64a3.13,3.13,0,0,0,.15-.87,2.81,2.81,0,0,0-.14-.63,14.28,14.28,0,0,1-.12-1.52,6.17,6.17,0,0,1-.14-.62,2.05,2.05,0,0,1,.1-.7,3.24,3.24,0,0,0,0-.81A3,3,0,0,1,971,274l-.11,3.78c-.09-3.3-.23-6.36-.23-6.36l-5-2.36s-.42,9.21-.32,10.5.53,10.08.32,11.15-.74,6.43-.74,6.43a12.3,12.3,0,0,0-3.41,3.64c-1,1.93-.75,2.57-1.07,2.57l2.38-.37L961,304.17a1.09,1.09,0,0,1,1.11.17,2.74,2.74,0,0,0,.34.26c.09,0,.22-.24.34-.28.37-.12.68.57,1,.51a1.14,1.14,0,0,0,.6-.43c.13-.17.18-.47.31-.58s.42,0,.55,0h1.06c.35,0,.84-.67,1.28-1a1.45,1.45,0,0,1,1.12-.43c.47,0,.89.47,1.37.5s.61.06.9-.32.34-.66.54-.93l1.19-.18a1.84,1.84,0,0,0,.68.2,4.52,4.52,0,0,1,.92,0c.11,0,.34.28.43.22a4.64,4.64,0,0,0,.24-.52,4.46,4.46,0,0,0-.12-.63Z" style="fill:#862633;stroke:#000;stroke-miterlimit:4.800000190734863;stroke-width:0.41999998688697815px"/><path d="M964.77,304c.3,0,.58-.07.83.15l.12.23a.26.26,0,0,0,.25,0,.91.91,0,0,0,.39.22,2.84,2.84,0,0,0,.54,0,1.34,1.34,0,0,1,.53.17c.36.15.59,0,.9-.22s.49-.06.83.27.21.22.44.06a2.15,2.15,0,0,1,.12-.22,1.71,1.71,0,0,1,.35-.1c.19-.09.38-.08.56-.15s.33-.29.53-.25a5.76,5.76,0,0,1,.54.23,1.12,1.12,0,0,1,.36.18c.24-.49.77-.64,1.11-.88s.68,0,1.06.06c.21,0,.29-.12.43-.17a1.74,1.74,0,0,1,.51,0c.16,0,.2-.22.38-.24.34,0,.72.51,1.06.62.19.06,1.08.26,1-.39s-.68-.19-.8-.63c-.06-.25.07-.6,0-.88a1,1,0,0,0-.51-.6c-.21-.07-.33.15-.51,0s-.2-.64-.33-.84c-.17.12-.28.24-.5.19s-.23-.15-.42-.39c-.42-.52-.66.31-1,.18s-.56-.83-.79-1.13-.47-.68-.64-.56,0,.76-.18,1-.51,0-.65,0-.27.11-.43.38c-.33.55-.52,1-1,.92-.24,0-.43-.27-.66-.18s-.4.37-.67.4a1.47,1.47,0,0,1-.63,0c-.19-.09-.41-.45-.59-.55a.23.23,0,0,0-.24,0l-.29-.17c-.31-.09-.28-.08-.41.33-.07.25-.1.51-.19.75a2.91,2.91,0,0,1-.4.59c-.22.23-.32.17-.6.25s-.53.42-.65,0c-.18-.68.5-1.7-.26-1.52a.5.5,0,0,0-.44.38c-.13.34,0,.56-.09.93s-1,1.25-.79,1.67.51-.16.62-.09.13.42.26.62c.27.41,1.06-.64,1.11-.07" style="fill:#862633;stroke:#000;stroke-miterlimit:4.800000190734863;stroke-width:0.41999998688697815px"/><path d="M961.55,300.4v-.18c-.21,0-.45-.26-.65-.27s-.54.44-.67.65c-.39.64-.28,1.52-.93,1.51-.16,0-.54-.11-.68,0s-.09.69-.09,1,.15,0,0,.43c0,.12-.21.16-.25.31-.13.56.33.38.54.38h1.58a1.89,1.89,0,0,0,.8-.22c.19-.07.61-.06.77-.24a3.33,3.33,0,0,0,.28-.61v-.66c0-.18.37-.2.42-.62.14-1-1-.26-.81-1.29" style="fill:#862633;stroke:#000;stroke-miterlimit:4.800000190734863;stroke-width:0.41999998688697815px"/><path d="M974.21,271.28a2.1,2.1,0,1,1-2.08-2.45A2.28,2.28,0,0,1,974.21,271.28Z" style="stroke:#000;stroke-miterlimit:4.800000190734863;stroke-width:0.7799999713897705px"/><path d="M967.43,268.26a2.1,2.1,0,1,1-2.07-2.45A2.28,2.28,0,0,1,967.43,268.26Z" style="stroke:#000;stroke-miterlimit:4.800000190734863;stroke-width:0.7799999713897705px"/><path d="M971,269.2a2.1,2.1,0,1,1-2.07-2.45A2.28,2.28,0,0,1,971,269.2Z" style="stroke:#000;stroke-miterlimit:4.800000190734863;stroke-width:0.7799999713897705px"/><path d="M967.54,271.44a2.1,2.1,0,1,1-2.08-2.45A2.29,2.29,0,0,1,967.54,271.44Z" style="stroke:#000;stroke-miterlimit:4.800000190734863;stroke-width:0.7799999713897705px"/><path d="M970.76,273.31a2.1,2.1,0,1,1-2.07-2.45A2.29,2.29,0,0,1,970.76,273.31Z" style="stroke:#000;stroke-miterlimit:4.800000190734863;stroke-width:0.7799999713897705px"/><path d="M971.76,246.58s20.92-29.21,43.35,1.13a11.24,11.24,0,0,1-1.89,6.22l-.57-2.45-1.32.37-.38-1.51-2.46-.19.76-3.21-2.64,2.07.38-2.26-3,3,.38-6.41-3.21,5.47.38-3.77-1.13,1.69-.68-2.2-1,2.2-1.51-1.13v1.51l-2.64-2.26-.94,3-1.32-3.2-.38,2.26-1.32-2.64-.18,2.83-4.34-1.89.94,2.64-2-1.45.38,1.5-2.82-.56.18,1.69-3-.57.57,1.51-4.15-.56,1.5,1.7-.42.69s22.66-7.47,24.17,20.8l-4.15,2.07,1.13-2.26-1.13-.76L993.81,269l.94-3.58-1.13.38-.19-2.07-.56.38L991.55,262l-.38.75-.94-2.45-.94,1.7-.57-4.15-1.5,2.64L987,259l-.57.94-1.88-2.26-.56,1.51-.76-1.13-.56,1.32-2.07-1.89V259l-1.32-1.13-.57.75-3.2-1.7-.2,1.5-1.69-1.5-.57,1.5s20.55,11.69,14.14,30.73l-1.13,2.45-.37-6.4-1.88,3.39,1.31-7.35-1.31,1.32-.19-2.82-1.69,2.82-.57-3.2-.75.94-1.14-4.9-.94,2.08L977,272l-1.13,2.26-.75-4.71-.75,2.83-2.26-4.15-.37,1.69-1.32-3.39-.76,1.13s-3.77-.19-4.9-1.13-4.34,5.66-4.34,5.66l.38-4-1.32,2.64v-2.64L957,276.1l-.57-5.65-1.32,4.9-.57-1.5-.38,2.07-.75-.76-.66,2.22-1.23-.9v3L950.42,278l-.94,4.52-.56-1.88v2.07l-.94-1.13-1,4.52-1.32-1.88-.18,3.2.56,2.45-1.51-.75.57,4s-5.84-10.93,1.13-21.48,16.39-13.38,16.39-13.38l-1-.94-.19-1-5.65,2.83.19-1.7-1.51,1.32-.38-1.88-1,1.7-.18-.75L951.77,260l-.76-3-.94,3.58-.89-2.51-1.94,5.33v-4l-1.51,4.15-.56-4.52L944,264.31V259.6l-1.7,4.71-1.13-4.52-.75,4.33-1.13-3.39-1.13,5.09-1.69-4.52-.94,6.79-1.13-2.64-.19,4.9-1.32-3,1.32,6.4-1.7-2.45.57,4L930.63,271l.19,5.09-1.32-1.7-.57,1.89s-.56-19.6,12.82-23.37,22,1.13,22,1.13l-5.09-4.14.56-1.32h-1.88l.75-1.51-4,.19,1.13-1.51-3,.38v-.94l-1.88,1.5.75-1.69-2.64,1.69-.16-2.51L947,246.27l-.75-2.26-6,6,1.7-6.22-1.13,1.32-.19-1.32L939,246.4l-.38-1.89-.75,2.26-.57-2.64L936,246.77l-1.32-2.45-.56,3.21-1-1.7L932,248.29l-1.5-1.51-.19,1.51-3-1.32.75,2.26-2.26-1.88-.57,3-1.32-1.51-.94,3.77L922,249l-.94,2.83s11.79-30.29,41.6-10.53c0,0,3.25,3.18,4,5.44s.19.38.19.38l-.57-20.92,1.13,9,.75-3.21L968,236.7l3-6.6S967.39,241,968.71,245c0,0,1.32-12.63,5.85-14.14l-4.15,9,1.32-.19-.94,1.89h1.13l-1.37,3-.71,1.53.75,1.51,1.14-1.14Z" style="fill:#00ad50;stroke:#000;stroke-miterlimit:4.800000190734863;stroke-width:0.7799999713897705px"/><path d="M968.66,258.87l.59.54c.08-.08,1.94-2.07,5.07.57l.52-.62C971.1,256.2,968.68,258.84,968.66,258.87Z"/><path d="M967.75,248.61l-.12.72,1.45-.62-1,1.75,2.17-.72-2.69,3.52.64.49,4.28-5.6-2.66.89,1.14-2-2.3,1,.48-2.87-.8-.13-.59,3.6Z"/><path d="M963.76,248.84l.93,2-1.47-.59,4.35,7.69.56-.71-.88,2.26.75.29,1.87-4.82-.69-.39-1.51,1.93L965,251.89l1.21.48-1.2-2.65,1.63,1v-2.87h-.8v1.42l-2.66-1.66.55,1.21Z"/><path d="M961,258.5l.32.74a3.52,3.52,0,0,1,2.88-.24,2.3,2.3,0,0,1,1.13,1.31l.78-.21a3.06,3.06,0,0,0-1.54-1.82A4.26,4.26,0,0,0,961,258.5Z"/><rect x="964.06" y="262.37" width="0.81" height="4.27" transform="translate(-29.33 152.57) rotate(-8.91)"/><rect x="969.63" y="262.49" width="0.81" height="3.39" transform="translate(-33.76 320.4) rotate(-18.44)"/><rect x="971.89" y="264.88" width="0.81" height="3.32" transform="translate(-35.63 244.55) rotate(-14.08)"/><path d="M811.41,365s-3.53-1.61-5.14-.43-1.39,2.89-2.78,2.79c0,0,5.35,1.18,6.53-.22a12.56,12.56,0,0,0,1.39-1.82" style="fill:#00ad50;stroke:#000;stroke-miterlimit:4.800000190734863;stroke-width:0.7799999713897705px"/><path d="M812.06,366.52s-2.33,3.11-1.52,4.93,2.52,2,2.12,3.32c0,0,2.3-5,1.2-6.43a12.93,12.93,0,0,0-1.47-1.74" style="fill:#00ad50;stroke:#000;stroke-miterlimit:4.800000190734863;stroke-width:0.7799999713897705px"/><path d="M808.14,357.91s-3.71,1.15-4.13,3.09.88,3.09-.23,3.93c0,0,4.78-2.68,4.74-4.51a13.35,13.35,0,0,0-.16-2.28" style="fill:#00ad50;stroke:#000;stroke-miterlimit:4.800000190734863;stroke-width:0.7799999713897705px"/><path d="M810.32,359.19s1.76-3.47.65-5.12-2.83-1.52-2.66-2.9c0,0-1.41,5.3-.07,6.54a13.19,13.19,0,0,0,1.76,1.47" style="fill:#00ad50;stroke:#000;stroke-miterlimit:4.800000190734863;stroke-width:0.7799999713897705px"/><path d="M806.68,357.93S806.77,354,805,353s-3.21-.14-3.66-1.47c0,0,1,5.39,2.77,5.93a13.16,13.16,0,0,0,2.23.56" style="fill:#00ad50;stroke:#000;stroke-miterlimit:4.800000190734863;stroke-width:0.7799999713897705px"/><path d="M813,364.39s4.07-1.4,4.39,3-.22,2.89-.22,2.89-2.14-4.71-4.5-5.46Z" style="fill:#00ad50;stroke:#000;stroke-miterlimit:4.800000190734863;stroke-width:0.7799999713897705px"/><path d="M812,366.59c0,.09.43,3.41.43,3.41l.57-.07-.43-3.32,1.39-7.3-.57-.1Z"/><path d="M808.29,365.51l-.19.54c2,.68,4.66-1.45,4.77-1.54l-.36-.45s-2.58,2-4.22,1.45Z"/><rect x="808.58" y="353.42" width="0.8" height="10.2" transform="translate(123.93 918.59) rotate(-63.17)"/><rect x="806.12" y="358.56" width="2.57" height="0.8" transform="translate(-17.51 675.63) rotate(-44.97)"/><rect x="808.97" y="354.73" width="0.8" height="4.6" transform="translate(-75.12 371.8) rotate(-24.76)"/><path d="M812.67,364.42l0,.8c2.48-.17,3.08,1.44,3.08,1.45l.79-.16c-.09-.46-1.08-2.28-3.93-2.09Z"/><path d="M854.43,366.27c3-1.7,3.64-7.66,3.64-7.66-.73,2.19-6.31,4.38-6.31,4.38,4.13-2.56,9.1-14.08,9.1-14.08-1.33,4.13-12.14,7.53-19.06,11.41s-3.28,15.06-3.28,15.06c-1.94-1.34-5.71-7.28-6.43-12.51s-2.8-7.28-7.53-7.89-7.53,4.73-7.53,4.73l-7,3.65,7.16.24s5.11,1.7,5.11,5.71-4.49,20,2.91,29c5.15,6.24,24.17,9.83,24.17,9.83" style="fill:#fff;stroke:#000;stroke-miterlimit:4.800000190734863"/><path d="M840.47,378.65s1.46-7.17,6.19-6.92,6.07-5.34,8.86-6.19,17.24-4.73,18.82-11.66c0,0-1.34,11.42-14.57,17.12,0,0,10.68-3.52,11.9-5.83,0,0-4.74,10.2-16.27,11.78,0,0,10.81-.85,12.39-3.76,0,0-4.86,6.43-12.87,7.29,0,0,7.41,3,9.35.48,0,0-4,4.74-9,5.1l1.34.37s-4.74,5.59-10,1.82-5.34,1-5.34,1" style="fill:#fff;stroke:#000;stroke-miterlimit:4.800000190734863"/><path d="M851.25,389.45s6.1,10.2,6.71,15.67c0,0,11.66,12.87,16,13.6,0,0-2.07.85-5.83-2.31,0,0,3.16,3.28,3.77,3.4s-2.55-.24-3-1.1c0,0,1.34,2,2.19,2.19l-.85-.24a5.93,5.93,0,0,1-2.31-.85c-.73-.6-.24,1.58-.24,1.58a7.42,7.42,0,0,1-2.43-1.09c-.61-.6.24,1.34.24,1.34l-1.58-.37-1.09.73s-.12.73-.86.12-2.06,0-2.06,0-1,.85-1.46.24-2.32,2.34-2.32,2.34l-7.65-18.45" style="fill:#fff;stroke:#000;stroke-miterlimit:4.800000190734863"/><rect x="853.61" y="403" width="1.15" height="20.78" transform="translate(-94.26 444.77) rotate(-27.72)"/><rect x="858.54" y="399.62" width="1.15" height="24.82" transform="translate(-56.11 677.02) rotate(-41.77)"/><rect x="861.09" y="397.92" width="1.15" height="25.79" transform="translate(-26.32 761.13) rotate(-47.02)"/><path d="M823.44,360.84s-1.23-2.2-2.3-1.38-1.68,1-1.87.92a2.57,2.57,0,0,0,1.69-.52c.61-.59,1.66-.22,2.49,1Z"/><path d="M816.78,359.83l.69,1.42c-.07,0-.76,2.26-.76,2.26l.55.17.75-2.45a14.76,14.76,0,0,0-.7-1.64l-.52.25Z"/><path d="M823.16,360.5a2.36,2.36,0,0,1-2.18.77l-1.25-.31,1.78.09C822.21,361.08,823.13,360.72,823.16,360.5Z"/><path d="M822.86,360.72s-1.13-1.2-1.9-.86a1.91,1.91,0,0,1,2.12.73Z"/><path d="M822.67,360.5a2.43,2.43,0,0,1-2.7-.09l-.09-.07.18-.06S821.85,361,822.67,360.5Z"/><circle cx="821.57" cy="360.28" r="0.38"/><path d="M822.61,394.2s-1,1.83-.48,2.94,2.89,1.68,3.21,3.15,1.11,1.47,2.21,1.27l1.31-.26s-4.62-2.47-5.83-6.46Z"/><path d="M972.09,356.85s8.42-11.1,15.88-8.18,12.32,4.32,12.32,4.32.14,7.47-3.83,7.47-7.76-7.47-11.37-5.25-6.58,5.25-6.82,6.3S968.71,362.79,972.09,356.85Z" style="fill:#862633;stroke:#000;stroke-miterlimit:4.800000190734863;stroke-width:0.47999998927116394px"/><path d="M940.14,410.37s-2.33,2.44-1.28,3,3.15-.12,3.15-.93-1.4-2.33-1.87-2.1Z" style="fill:#862633;stroke:#000;stroke-miterlimit:4.800000190734863;stroke-width:0.7799999713897705px"/><path d="M938.28,412.7s-4.31-2.46-7.69,3.38-6.18,15.28-8.16,16.56,19.24-9.33,19.47-13.76c0,0,1.4-5.72-.82-5.6S938.75,413.64,938.28,412.7Z" style="fill:#862633;stroke:#000;stroke-miterlimit:4.800000190734863;stroke-width:0.7799999713897705px"/><path d="M938.86,413.4s-4.43,1-5.36,7.34-7.11,9.57-7.46,9.8" style="fill:#862633;stroke:#000;stroke-miterlimit:4.800000190734863;stroke-width:0.47999998927116394px"/><path d="M1000.3,353s-6.74,2.34-5.57,7" style="fill:#862633;stroke:#000;stroke-miterlimit:4.800000190734863;stroke-width:0.47999998927116394px"/><path d="M948.54,366.64s.23-16,13.28-15.28c2.47.23,1.29,3.15,1.29,3.15s2.82-2,4.11,1.17c0,0,4.12-1.86,4.59,2.22,0,0,4.47-.58,3.88,3,0,0,3.06-.7,2.94,1.87,0,0,3.53-1.4,3.17,2.22,0,0,3.88-2.57,3.3,2.1,0,0,4-2.79,5.4,1.87s-4,14.57-9.29,17.14" style="fill:#fedd00;stroke:#000;stroke-miterlimit:4.800000190734863;stroke-width:0.47999998927116394px"/><path d="M984.81,367.61c0,.12,1.76,12.5-5.26,17l.25.39c7.27-4.69,5.48-17.36,5.47-17.48l-.46.07Z"/><path d="M976.36,381.16l.32.33c4.44-4.32,5.4-16,5.43-16.47h-.45c0,.12-1,12-5.3,16.18Z"/><path d="M972.21,378.39h.46c.57-7.2,6.2-15.42,6.26-15.51l-.38-.26c-.06.08-5.75,8.41-6.33,15.73Z"/><path d="M969,376.29h.46c.8-8.68,6.53-15.2,6.59-15.26l-.34-.31c-.06.06-5.89,6.69-6.71,15.52Z"/><path d="M964.4,373.39h.46a20.84,20.84,0,0,1,7.25-15.33l-.27-.37a21.33,21.33,0,0,0-7.43,15.68Z"/><path d="M960.2,370.84h.46c-.34-9.33,6.84-14.91,6.91-15l-.28-.36c-.07.06-7.43,5.78-7.09,15.35Z"/><path d="M952.63,367.43l.45.06a15.33,15.33,0,0,1,10.33-12.75l-.12-.44a15.79,15.79,0,0,0-10.66,13.14Z"/><path d="M940.84,386s-2.21-14.81,6.65-19.47c0,0,1.64-.35,2.57,1.75,0,0,4.67-2,4.78,2,0,0,2.33-1.86,2.91.7,0,0,5-1,4.08,2.68,0,0,4.2-1.17,3.85,2.45,0,0,4.2-1.51,3.5,1.63,0,0,4.43-1,3.38,2.57,0,0,5.48-.58,3.85,3.27,0,0,4.08-1,3.15,2.1,0,0,5.37.93,2.91,4.32s-8.63,8.51-14.69,10.72" style="fill:#00ad50;stroke:#000;stroke-miterlimit:4.800000190734863;stroke-width:0.47999998927116394px"/><path d="M936.06,400.92s-3.62-12.36,3.27-15.51a1.16,1.16,0,0,1,1.51.93s1.52-2,2.69-.23c0,0,3.49-1.63,4.32.93,0,0,2.33-2,3.5.93,0,0,2.22-.93,2.22,1.4,0,0,3-1.28,3,1.52,0,0,2.91-1.17,2.33,2,0,0,4.43.7,3.15,2.8,0,0,4,1,2.45,2.68,0,0,4.31-.47,2,2.45,0,0,3.27-1,1.4,2.57s-7.69,7.58-11.78,8" style="fill:#00ad50;stroke:#000;stroke-miterlimit:4.800000190734863;stroke-width:0.47999998927116394px"/><path d="M940.37,410.71s-7.69-7.46-4.08-9.68a3.57,3.57,0,0,1,2.21,2.1s1.86-2.68,2.92.12c0,0,2.8-.93,2.8.94l2.21,1.63s2.57-.24,2.1,1.4c0,0,2.8-.35,2.68,1.17,0,0,2.45.12,2.22,1.74,0,0,4.19.7,2.33,2.8,0,0-7.35,1.51-12.47-.58,0,0-2.69-.94-2.92-1.63Z" style="fill:#00ad50;stroke:#000;stroke-miterlimit:4.800000190734863;stroke-width:0.47999998927116394px"/><path d="M966.76,398.38l.16.43c4.56-1.76,12.48-12.56,12.82-13l-.37-.27c-.08.12-8.17,11.16-12.61,12.87Z"/><path d="M964.17,396.41l.22.4c4-2.21,11.87-12.68,12.2-13.12l-.37-.28c-.08.11-8.17,10.83-12.06,13Z"/><path d="M961.92,395.49l.3.35c4.19-3.48,10.29-15,10.55-15.45l-.41-.22C972.3,380.29,966,392.07,961.92,395.49Z"/><path d="M959.86,392.84l.46.06c.8-5.81,9-15,9-15l-.34-.31c-.34.38-8.33,9.34-9.15,15.28Z"/><path d="M943.53,385.78H944c-.69-8.2,6.18-17.24,6.25-17.33l-.36-.28C949.8,368.22,942.83,377.4,943.53,385.78Z"/><path d="M947.85,386.5l.46-.08c-1.14-6.58,6.63-15.93,6.71-16l-.35-.3c-.33.39-8,9.6-6.81,16.4Z"/><path d="M954.49,388.92H955c-.23-7.51,7-15,7-15.11l-.33-.32c-.07.08-7.41,7.74-7.18,15.44Z"/><path d="M938.65,402.52l.43-.16c-2.62-6.94,1.92-15.82,2-15.9l-.41-.21c0,.09-4.68,9.15-2,16.28Z"/><path d="M941.67,403l.44-.14c-2.28-7.07,1.59-16.54,1.63-16.63l-.43-.18C943.31,386.14,939.31,395.77,941.67,403Z"/><path d="M954.17,410l.16.43c7.44-2.68,12.3-9.46,12.35-9.53l-.38-.27c0,.07-4.83,6.74-12.13,9.36Z"/><path d="M952.64,408.41l.19.42c5.93-2.68,11.47-10.15,11.52-10.22l-.37-.27c-.06.07-5.52,7.44-11.34,10.07Z"/><path d="M951.2,407.85l.27.37c4.64-3.36,10.6-12,10.67-12.07l-.38-.26c-.06.09-6,8.64-10.56,12Z"/><path d="M943.76,403.52l.46-.07c-1-7.41,3.77-16.21,3.82-16.3l-.4-.22c0,.09-4.92,9-3.88,16.58Z"/><path d="M947,405.53l.31.34c4.79-4.32,6.42-16,6.48-16.46l-.46-.06c0,.12-1.67,12-6.34,16.19Z"/><path d="M950.27,406.91l.27.37c6.76-4.89,8.59-14.27,8.61-14.36l-.45-.09C958.7,392.92,956.88,402.13,950.27,406.91Z"/><path d="M951,386.68a9.8,9.8,0,0,0,.06,1.32l-5.13,16.58.44.14L951.56,388c-.79-8.06,6.3-16.86,6.37-17l-.35-.29c-.07.08-6.53,8.09-6.53,15.87Z"/><path d="M956.41,390.74c-.07.23-1.63,11.62-7.77,15.82l.26.38c6.31-4.32,7.85-15.54,7.91-16,2.73-3.24,9-14.61,9.07-14.73l-.4-.22c-.06.11-6.32,11.45-9.07,14.77Z"/><path d="M938.28,403.18c0,.24,1.07,5.9,2.25,7.89l.4-.23c-1.14-1.93-2.18-7.68-2.19-7.74Z"/><path d="M941.19,403.25c0,2.82.06,7.44-.09,7.85l.43.17a78.75,78.75,0,0,0,.13-8h-.46Z"/><path d="M941.45,411.32l.42.19a37.37,37.37,0,0,0,2.59-7.28l-.45-.09A36.75,36.75,0,0,1,941.45,411.32Z"/><path d="M941.89,411.45l.23.4a9.9,9.9,0,0,0,4.54-6l-.45-.1a9.65,9.65,0,0,1-4.32,5.68Z"/><path d="M942.57,411.77v.45c3.58-.36,6-4.71,6.13-4.89l-.4-.22s-2.43,4.33-5.77,4.66Z"/><path d="M942.93,412v.46c5.75-.35,8.34-3.79,8.45-3.94l-.37-.27a11.19,11.19,0,0,1-8.1,3.75Z"/><path d="M943.34,412.12l-.09.45c.31.07,7.64,1.62,10.15-2.2l-.39-.25C950.68,413.68,943.41,412.12,943.34,412.12Z"/><path d="M778.8,143.94V349c0,67.08,121.2,106.91,121.2,106.91s121.2-39.8,121.2-106.91V143.94Z" style="fill:none;stroke:#000;stroke-miterlimit:4.800000190734863;stroke-width:4.199999809265137px"/><path d="M0,0H600V300H0Z" style="fill:#012169"/><path d="M0,0V33.54L532.92,300H600V266.4L67.08,0ZM600,0V33.54L67.08,300H0V266.4L532.92,0Z" style="fill:#fff"/><path d="M250,0V300H350V0ZM0,100V200H600V100Z" style="fill:#fff"/><path d="M0,120v60H600V120ZM270,0V300h60V0ZM0,300,200,200h44.72l-200,100ZM0,0,200,100H155.28L0,22.36ZM355.28,100l200-100H600L400,100ZM600,300,400,200h44.72L600,277.64Z" style="fill:#c8102e"/></svg>