<svg xmlns="http://www.w3.org/2000/svg" viewBox="0 0 600 400"><title>French_Southern_and_Antarctic_Lands_Final</title><rect width="600" height="400" style="fill:#002654"/><rect x="80" width="160" height="160" style="fill:#fff"/><rect x="160" width="80" height="160" style="fill:#ce1126"/><polygon points="242.02 161.97 0 161.97 0 157.77 237.82 157.77 237.82 0 242.02 0 242.02 161.97" style="fill:#fff"/><path d="M355,183l12.88,20.5H404.5V275L377,232l-37,59h23l3.44-6.5h23L416,327l26.53-42.5h23L469,291h23l-37-59-27.5,43V235.5H444L456.25,216H427.5V203.5h36.63L477,183Zm22.18,73.7,9,14-16,.09Zm77.29,1.42,7.18,12.53-14.56-.09Z" style="fill:#fff"/><path d="M460.61,306.78l4.73,14.84,15.58-.08-12.65,9.09,4.89,14.79-12.56-9.23L448,345.42l4.89-14.79-12.65-9.09,15.58.08Z" style="fill:#fff"/><path d="M415.49,341.23l4.73,14.84L435.8,356l-12.65,9.09L428,379.87l-12.56-9.23-12.56,9.23,4.89-14.79L395.18,356l15.58.08Z" style="fill:#fff"/><path d="M371.62,306.84l-4.73,14.84-15.58-.08L364,330.69l-4.89,14.79,12.56-9.23,12.56,9.23-4.89-14.79L392,321.6l-15.58.08Z" style="fill:#fff"/><path d="M498.52,205.69l4.73,14.84,15.58-.08-12.65,9.09,4.89,14.79-12.56-9.23L486,244.33l4.89-14.79-12.65-9.09,15.58.08Z" style="fill:#fff"/><path d="M334.2,205.39l4.73,14.84,15.58-.08-12.65,9.09L346.75,244l-12.56-9.23L321.64,244l4.89-14.79-12.65-9.09,15.58.08Z" style="fill:#fff"/></svg>