<svg xmlns="http://www.w3.org/2000/svg" viewBox="0 0 1000 600"><title>Grenada</title><path d="M0,0H1000V600H0Z" style="fill:#ce1126"/><path d="M84,84H916V516H84Z" style="fill:#007a5e"/><path d="M84,84H916L84,516H916Z" style="fill:#fcd116"/><circle cx="500" cy="300" r="72" style="fill:#ce1126"/><path d="M135.5,300.82c9,16.78,26.53,35,41.83,41.46.25-17-5.8-38.88-14.07-56.28Z" style="fill:#ce1126"/><path d="M120.22,243.26c13.06,27.22-33.87,92.16,44.31,107.38-9.64-13.16-15.86-34.88-13.51-52.32,16.4,6.24,33.66,24.5,40.63,38.46,20.46-74.3-52.48-69.78-71.44-93.52Z" style="fill:#fcd116"/><path d="M300,519l-22.92,70.55,60-43.6H262.91l60,43.6Z" style="fill:#fcd116"/><path d="M500,519l-22.92,70.55,60-43.6H462.91l60,43.6Z" style="fill:#fcd116"/><path d="M700,519l-22.92,70.55,60-43.6H662.91l60,43.6Z" style="fill:#fcd116"/><path d="M700,3,677.08,73.55l60-43.6H662.91l60,43.6Z" style="fill:#fcd116"/><path d="M500,3,477.08,73.55l60-43.6H462.91l60,43.6Z" style="fill:#fcd116"/><path d="M300,3,277.08,73.55l60-43.6H262.91l60,43.6Z" style="fill:#fcd116"/><path d="M500,234,461.21,353.39,562.77,279.6H437.23l101.56,73.79Z" style="fill:#fcd116"/></svg>