<svg xmlns="http://www.w3.org/2000/svg" xmlns:xlink="http://www.w3.org/1999/xlink" viewBox="0 0 960 600"><defs><radialGradient id="a" cx="449.85" cy="296.77" r="16.53" gradientTransform="matrix(1.01, 0, 0, -1.03, -9.26, 615.11)" gradientUnits="userSpaceOnUse"><stop offset="0.22" stop-color="#f9f0aa"/><stop offset="1" stop-color="#b07e09"/></radialGradient><radialGradient id="b" cx="453.99" cy="292.04" r="10.91" xlink:href="#a"/><radialGradient id="c" cx="456.54" cy="296.39" r="9.78" xlink:href="#a"/><radialGradient id="d" cx="460.82" cy="297.98" r="17.35" xlink:href="#a"/><linearGradient id="e" x1="476.33" y1="345.86" x2="474.78" y2="373.07" gradientTransform="matrix(1.01, 0, 0, -1.03, -9.26, 615.11)" gradientUnits="userSpaceOnUse"><stop offset="0.22" stop-color="#b07e09" stop-opacity="0"/><stop offset="1" stop-color="#b07e09"/></linearGradient><linearGradient id="f" x1="485.55" y1="308.38" x2="487.92" y2="278.45" xlink:href="#e"/><radialGradient id="g" cx="448.41" cy="352.67" r="13.02" xlink:href="#a"/><linearGradient id="h" x1="453.97" y1="355.51" x2="457.8" y2="364.46" gradientTransform="matrix(1.01, 0, 0, -1.03, -9.26, 615.11)" xlink:href="#a"/><linearGradient id="i" x1="475.75" y1="367.79" x2="478.36" y2="334.59" gradientTransform="matrix(1.01, 0, 0, -1.03, -9.26, 615.11)" xlink:href="#a"/><radialGradient id="j" cx="480.29" cy="389.77" r="0.34" gradientTransform="matrix(1.01, 0, 0, -1.03, -9.26, 615.11)" gradientUnits="userSpaceOnUse"><stop offset="0.26" stop-color="#a50a0a"/><stop offset="1" stop-color="#4c0505"/></radialGradient><radialGradient id="k" cx="487.48" cy="396.82" r="0.34" gradientTransform="matrix(0.99, 0, 0, -1.06, -5.21, 632)" gradientUnits="userSpaceOnUse"><stop offset="0" stop-color="#fff"/><stop offset="1" stop-color="#fff" stop-opacity="0"/></radialGradient></defs><title>Guatemala</title><path d="M0,0H960V600H0Z" style="fill:#4997d0"/><path d="M320,0H640V600H320Z" style="fill:#fff"/><path d="M451.73,380a27.92,27.92,0,0,0,6.12-1.85" style="fill:none;stroke:#24420e;stroke-width:0.43700000643730164px"/><path d="M460.09,374a13.5,13.5,0,0,1,3,4.79" style="fill:none;stroke:#24420e;stroke-width:0.43700000643730164px"/><path d="M454.9,373.56a15.88,15.88,0,0,1,3.18,4.29" style="fill:none;stroke:#24420e;stroke-width:0.43700000643730164px"/><path d="M407.8,236.76A10.78,10.78,0,0,1,403,240.3" style="fill:none;stroke:#24420e;stroke-width:0.43700000643730164px"/><path d="M402.61,240.09a27.07,27.07,0,0,1,.05-4.54" style="fill:none;stroke:#24420e;stroke-width:0.43700000643730164px"/><path d="M400.65,240.74c.12.38.44,1.45.69,2.09" style="fill:none;stroke:#24420e;stroke-width:0.43700000643730164px"/><path d="M403.39,243.79c-.38.08-1.54.27-2.06.35" style="fill:none;stroke:#24420e;stroke-width:0.43700000643730164px"/><path d="M397.33,243.23a78.46,78.46,0,0,0,.54,8.08" style="fill:none;stroke:#24420e;stroke-width:0.43700000643730164px"/><path d="M396,250.32a6.07,6.07,0,0,0,1.57,1.94" style="fill:none;stroke:#24420e;stroke-width:0.43700000643730164px"/><path d="M393,258.94a14.84,14.84,0,0,1,1.32,4.09" style="fill:none;stroke:#24420e;stroke-width:0.43700000643730164px"/><path d="M398.06,258.25a15.47,15.47,0,0,0-2,1.6" style="fill:none;stroke:#24420e;stroke-width:0.43700000643730164px"/><path d="M397.71,264.39a15.88,15.88,0,0,1-3.48,2.19" style="fill:none;stroke:#24420e;stroke-width:0.43700000643730164px"/><path d="M390.37,308.32a16.43,16.43,0,0,0,4,4.84" style="fill:none;stroke:#24420e;stroke-width:0.43700000643730164px"/><path d="M395,314.9a8,8,0,0,1-3-1" style="fill:none;stroke:#24420e;stroke-width:0.43700000643730164px"/><path d="M396.44,322.59l1.71,1" style="fill:none;stroke:#24420e;stroke-width:0.43700000643730164px"/><path d="M397.71,327.17a18.64,18.64,0,0,1,3.82,4" style="fill:none;stroke:#24420e;stroke-width:0.43700000643730164px"/><path d="M400.06,334.11a11.87,11.87,0,0,1,3.28,1.1" style="fill:none;stroke:#24420e;stroke-width:0.43700000643730164px"/><path d="M402.27,337.7l2.15.07" style="fill:none;stroke:#24420e;stroke-width:0.43700000643730164px"/><path d="M405.64,332.22a41.3,41.3,0,0,1-.49,4.39" style="fill:none;stroke:#24420e;stroke-width:0.43700000643730164px"/><path d="M406.18,338.25l.44-1.7" style="fill:none;stroke:#24420e;stroke-width:0.43700000643730164px"/><path d="M411.37,342.74l-.15,3.34" style="fill:none;stroke:#24420e;stroke-width:0.43700000643730164px"/><path d="M451,374.91l-1.18,1.65" style="fill:none;stroke:#24420e;stroke-width:0.43700000643730164px"/><path d="M447.37,372.51l-.69-1.89" style="fill:none;stroke:#24420e;stroke-width:0.43700000643730164px"/><path d="M486.2,387.74a8.49,8.49,0,0,0-3.32-2.74c-7.84-4.19-15.62-6-24.46-7.48-2-.35-4.08-2.29-6.17-3.29-5-2.44-10.64-3.39-15.53-5.89a7.9,7.9,0,0,1-2.14-1.6c-1.95-2.3-5.46-3-7.65-5.14-8.45-8.13-17.43-15.61-22.08-26.39-5.65-13.12-12.68-26.64-11.73-41.55.62-9.43-.76-19,1.52-27.94,3.37-13.32,7.69-26.49,15.62-37.51l-1.33.85c-8,11-12.3,24.2-15.67,37.51-2.28,9-.9,18.51-1.52,27.94-.95,14.92,6.08,28.43,11.73,41.6,4.65,10.73,13.68,18.21,22.08,26.39,2.18,2.09,5.7,2.79,7.65,5.14a10.13,10.13,0,0,0,2.14,1.6c4.89,2.49,10.5,3.44,15.53,5.84,2.09,1,4.13,2.94,6.17,3.29,8.83,1.45,16.62,3.34,24.46,7.48a8.17,8.17,0,0,1,3.32,2.74l1.38-.85" style="fill:#406325;stroke:#24420e;stroke-width:0.164000004529953px"/><path d="M405.3,332.67c-2.83-6.51-1.38-22.32-.2-24.31C411.82,321.8,409.58,332.89,405.3,332.67Z" style="fill:#67923d;stroke:#24420e;stroke-width:0.164000004529953px"/><path d="M451.81,379.56c-7.19.38-20.9,9.6-22.17,11.77C444.93,391.45,454,383.77,451.81,379.56Z" style="fill:#67923d;stroke:#24420e;stroke-width:0.164000004529953px"/><path d="M459.37,375.13c-6.94-5.63-14.39-24.44-14.23-27.38C460.47,358.94,464.35,372.83,459.37,375.13Z" style="fill:#67923d;stroke:#24420e;stroke-width:0.164000004529953px"/><path d="M454.25,375.19c-7-4.37-16-20.78-16.16-23.5C453.5,360.15,458.57,372.48,454.25,375.19Z" style="fill:#67923d;stroke:#24420e;stroke-width:0.164000004529953px"/><path d="M438.47,368.18c1-8.08-5.75-25-7.69-26.84C427.79,358.36,433.82,369.83,438.47,368.18Z" style="fill:#67923d;stroke:#24420e;stroke-width:0.164000004529953px"/><path d="M410.77,343.1c-2.34-5.83-.62-20,.48-21.69C416.85,333.49,414.56,343.33,410.77,343.1Z" style="fill:#67923d;stroke:#24420e;stroke-width:0.164000004529953px"/><path d="M396.87,263.74c3.64-6.87,18.64-16.23,21.29-16.46C411.29,262.33,399.86,267.76,396.87,263.74Z" style="fill:#67923d;stroke:#24420e;stroke-width:0.164000004529953px"/><path d="M397.59,258c2.18-7.52,15.08-19.9,17.61-20.7C411.42,253.49,401.32,261.24,397.59,258Z" style="fill:#67923d;stroke:#24420e;stroke-width:0.164000004529953px"/><path d="M425.79,360.42c-5.06-6.38-8.12-24.65-7.39-27.23C429.83,346.11,430.6,359.25,425.79,360.42Z" style="fill:#67923d;stroke:#24420e;stroke-width:0.164000004529953px"/><path d="M396.74,322.75c-7,1.12-21.66-4.79-23.25-6.55C388.23,313,398.12,318.35,396.74,322.75Z" style="fill:#67923d;stroke:#24420e;stroke-width:0.164000004529953px"/><path d="M394.49,312.75c.83-5.76,8.79-16.33,10.51-17.21C403.87,307.9,397.44,314.76,394.49,312.75Z" style="fill:#67923d;stroke:#24420e;stroke-width:0.164000004529953px"/><path d="M446.54,373.23c-8.6.45-25,11.47-26.5,14.07C438.33,387.44,449.16,378.26,446.54,373.23Z" style="fill:#67923d;stroke:#24420e;stroke-width:0.164000004529953px"/><path d="M405.37,332.52c4.29.22,6.5-10.74-.27-24.15C406.32,321.09,406.32,331.41,405.37,332.52Z" style="fill:#406325;stroke:#24420e;stroke-width:0.164000004529953px"/><path d="M416.71,353.17c-4.54-5.65-19.66-11.7-22-11.51C403.7,354.14,414.85,357.25,416.71,353.17Z" style="fill:#406325;stroke:#24420e;stroke-width:0.164000004529953px"/><path d="M391.94,298.44c-1.16-8.31-12.51-23.46-15-24.76C378.53,291.42,387.69,301.25,391.94,298.44Z" style="fill:#406325;stroke:#24420e;stroke-width:0.164000004529953px"/><path d="M400.45,333.86c-5.06-3.8-19.24-5.52-21.24-4.88C389.49,337.56,399.71,337.72,400.45,333.86Z" style="fill:#406325;stroke:#24420e;stroke-width:0.164000004529953px"/><path d="M391,308.21c-2.93-5.88-15-13.93-17.13-14.15C379.42,306.85,388.59,311.55,391,308.21Z" style="fill:#406325;stroke:#24420e;stroke-width:0.164000004529953px"/><path d="M393.73,259.1c.92-7.82-5.61-24.22-7.45-26C383.37,249.56,389.24,260.66,393.73,259.1Z" style="fill:#406325;stroke:#24420e;stroke-width:0.164000004529953px"/><path d="M398.26,243.69c2.7-6.71.77-23.17-.53-25.22-6.49,14-3.88,25.46.53,25.22Z" style="fill:#406325;stroke:#24420e;stroke-width:0.164000004529953px"/><path d="M403.35,235.78c3.18-4.93,4.22-18.27,3.53-20.11C399.55,225.71,399.83,235.24,403.35,235.78Z" style="fill:#406325;stroke:#24420e;stroke-width:0.164000004529953px"/><path d="M409.38,229.44c4.46-3.59,9.35-16,9.21-18C408.72,218.62,406.2,227.8,409.38,229.44Z" style="fill:#406325;stroke:#24420e;stroke-width:0.164000004529953px"/><path d="M393.11,274.07c.11.9-1-8.45-10.2-18.92C383.33,270.46,389.25,276.24,393.11,274.07Z" style="fill:#406325;stroke:#24420e;stroke-width:0.164000004529953px"/><path d="M426.13,362.68c-6.26-4.71-23.72-7-26.13-6.12C412.74,367.25,425.23,367.46,426.13,362.68Z" style="fill:#406325;stroke:#24420e;stroke-width:0.164000004529953px"/><path d="M438.37,368.09c-4.61,1.65-10.59-9.73-7.65-26.74C433.57,355.77,437,367.24,438.37,368.09Z" style="fill:#406325;stroke:#24420e;stroke-width:0.164000004529953px"/><path d="M451.86,379.61c2.15,4.22-6.8,11.81-22.1,11.69C441.88,386.25,451.3,381.11,451.86,379.61Z" style="fill:#406325;stroke:#24420e;stroke-width:0.164000004529953px"/><path d="M459.35,375c4.93-2.32,1.12-16-14.21-27.24C453.86,361.4,459.8,373.17,459.35,375Z" style="fill:#406325;stroke:#24420e;stroke-width:0.164000004529953px"/><path d="M454.21,375.08c4.34-2.75-.7-14.92-16.12-23.39C447.63,363.24,454.42,373.35,454.21,375.08Z" style="fill:#406325;stroke:#24420e;stroke-width:0.164000004529953px"/><path d="M410.81,343.06c3.79.23,6-9.57.48-21.61C412,332.78,411.72,342.09,410.81,343.06Z" style="fill:#406325;stroke:#24420e;stroke-width:0.164000004529953px"/><path d="M396.86,263.79c3,4,14.25-1.35,21.13-16.45C407.68,257,398.49,263.94,396.86,263.79Z" style="fill:#406325;stroke:#24420e;stroke-width:0.164000004529953px"/><path d="M397.71,258c3.73,3.25,13.73-4.44,17.51-20.64C407,249,399.36,257.75,397.71,258Z" style="fill:#406325;stroke:#24420e;stroke-width:0.164000004529953px"/><path d="M425.82,360.35c4.81-1.16,4-14.24-7.36-27.14C423.55,347.07,426.6,358.79,425.82,360.35Z" style="fill:#406325;stroke:#24420e;stroke-width:0.164000004529953px"/><path d="M396.55,322.69c1.43-4.38-8.41-9.68-23.13-6.47C385.85,318.49,395.77,321.43,396.55,322.69Z" style="fill:#406325;stroke:#24420e;stroke-width:0.164000004529953px"/><path d="M394.58,312.76c2.94,1.95,9.31-4.81,10.43-17.17C400.27,305.08,395.71,312.4,394.58,312.76Z" style="fill:#406325;stroke:#24420e;stroke-width:0.164000004529953px"/><path d="M446.5,373.38c2.61,5-8.07,14.12-26.4,14C434.58,381.31,445.84,375.18,446.5,373.38Z" style="fill:#406325;stroke:#24420e;stroke-width:0.164000004529953px"/><path d="M398.22,327.17c-2.7-6.47-15-16-17.22-16.36C386,324.9,395.45,330.59,398.22,327.17Z" style="fill:#406325;stroke:#24420e;stroke-width:0.164000004529953px"/><path d="M391.18,273.07c4.13-4.82,17.72-9.44,19.88-9.16C402.9,274.66,392.86,276.84,391.18,273.07Z" style="fill:#67923d;stroke:#24420e;stroke-width:0.164000004529953px"/><path d="M416.61,353.22c-1.83,4-12.88.95-22-11.52C405.69,348.75,415.18,353.59,416.61,353.22Z" style="fill:#67923d;stroke:#24420e;stroke-width:0.164000004529953px"/><path d="M391.87,298.42c-4.25,2.82-13.31-7-14.89-24.67C383.69,287.38,390.2,297.9,391.87,298.42Z" style="fill:#67923d;stroke:#24420e;stroke-width:0.164000004529953px"/><path d="M400.41,333.89c-.78,3.85-10.84,3.71-21.16-4.87C390.13,332.53,399.27,334.53,400.41,333.89Z" style="fill:#67923d;stroke:#24420e;stroke-width:0.164000004529953px"/><path d="M390.83,308.12c-2.37,3.35-11.45-1.31-17-14.11C382.09,302.24,389.49,308.21,390.83,308.12Z" style="fill:#67923d;stroke:#24420e;stroke-width:0.164000004529953px"/><path d="M393.62,259c-4.49,1.61-10.3-9.38-7.4-25.83C388.93,247.1,392.25,258.14,393.62,259Z" style="fill:#67923d;stroke:#24420e;stroke-width:0.164000004529953px"/><path d="M398.16,243.65c-4.36.23-7-11.17-.47-25.12C396.85,231.74,397.17,242.52,398.16,243.65Z" style="fill:#67923d;stroke:#24420e;stroke-width:0.164000004529953px"/><path d="M403.27,235.72c-3.52-.54-3.77-10,3.57-20C404.06,226,402.63,234.69,403.27,235.72Z" style="fill:#67923d;stroke:#24420e;stroke-width:0.164000004529953px"/><path d="M409.33,229.44c-3.18-1.7-.71-10.78,9.17-17.91C412.9,220.46,409,228.24,409.33,229.44Z" style="fill:#67923d;stroke:#24420e;stroke-width:0.164000004529953px"/><path d="M393,274.08c-3.86,2.18-9.71-3.62-10.13-18.93C388.08,267.22,391.63,273.55,393,274.08Z" style="fill:#67923d;stroke:#24420e;stroke-width:0.164000004529953px"/><path d="M426.07,362.71c-.9,4.78-13.33,4.55-26-6.09C413.38,361,424.62,363.54,426.07,362.71Z" style="fill:#67923d;stroke:#24420e;stroke-width:0.164000004529953px"/><path d="M417.78,352.92c-4.08-4.49-7.26-17.92-6.84-19.88C420.08,342.07,421.3,351.8,417.78,352.92Z" style="fill:#67923d;stroke:#24420e;stroke-width:0.164000004529953px"/><path d="M400.66,327.1c-3.62-6-3.93-21.6-3-23.71C406.08,315.59,405.06,326.72,400.66,327.1Z" style="fill:#67923d;stroke:#24420e;stroke-width:0.164000004529953px"/><path d="M398,327.2c-2.77,3.41-12.1-2.23-17.11-16.36C389.13,320.25,396.58,327.17,398,327.2Z" style="fill:#67923d;stroke:#24420e;stroke-width:0.164000004529953px"/><path d="M391.13,273.15c1.64,3.74,11.61,1.58,19.77-9.17C398.76,271,394,274,391.13,273.15Z" style="fill:#406325;stroke:#24420e;stroke-width:0.164000004529953px"/><path d="M400.6,326.94c4.39-.38,5.41-11.4-3-23.6C400.33,315.58,401.47,325.73,400.6,326.94Z" style="fill:#406325;stroke:#24420e;stroke-width:0.164000004529953px"/><path d="M417.8,352.88c3.52-1.11,2.28-10.8-6.81-19.81C415.46,343.11,418.3,351.67,417.8,352.88Z" style="fill:#406325;stroke:#24420e;stroke-width:0.164000004529953px"/><path d="M393,291.51c2.09-8.66-1.73-23.35-4.36-26.4C383.87,281,388.41,292.58,393,291.51Z" style="fill:#406325;stroke:#24420e;stroke-width:0.164000004529953px"/><path d="M392.71,293.57c-6,1.38-8.77-12.43-4.14-28C389.66,279.59,391.45,292.61,392.71,293.57Z" style="fill:#67923d;stroke:#24420e;stroke-width:0.164000004529953px"/><path d="M391.49,293.52c-.57-7.78,7-23.85,9-25.52C402.58,284.32,396,295.17,391.49,293.52Z" style="fill:#67923d;stroke:#24420e;stroke-width:0.164000004529953px"/><path d="M391.61,293.41c4.48,1.69,11-9.05,9-25.37C397,281.74,393,292.58,391.61,293.41Z" style="fill:#406325;stroke:#24420e;stroke-width:0.164000004529953px"/><path d="M392.91,303.37c0-7.86,8.59-23,10.71-24.4C404.47,295.67,397.21,305.66,392.91,303.37Z" style="fill:#67923d;stroke:#24420e;stroke-width:0.164000004529953px"/><path d="M393,303.53c4.29,2.28,11.47-7.61,10.62-24.3C399.14,292.51,394.44,302.88,393,303.53Z" style="fill:#406325;stroke:#24420e;stroke-width:0.164000004529953px"/><ellipse cx="395.66" cy="249.67" rx="1.1" ry="1.12" style="fill:#ba1f3e;stroke:#511124;stroke-width:0.1860000044107437px"/><ellipse cx="404.15" cy="243.26" rx="1.1" ry="1.12" style="fill:#ba1f3e;stroke:#511124;stroke-width:0.1860000044107437px"/><ellipse cx="400.45" cy="239.79" rx="1.1" ry="1.12" style="fill:#ba1f3e;stroke:#511124;stroke-width:0.1860000044107437px"/><ellipse cx="391.26" cy="313.56" rx="1.3" ry="1.32" style="fill:#ba1f3e;stroke:#511124;stroke-width:0.21799999475479126px"/><ellipse cx="393.83" cy="297.04" rx="1.3" ry="1.32" style="fill:#ba1f3e;stroke:#511124;stroke-width:0.21799999475479126px"/><ellipse cx="407.2" cy="335.6" rx="1.3" ry="1.32" style="fill:#ba1f3e;stroke:#511124;stroke-width:0.21799999475479126px"/><ellipse cx="401.29" cy="337.64" rx="1.3" ry="1.32" style="fill:#ba1f3e;stroke:#511124;stroke-width:0.21799999475479126px"/><ellipse cx="446.23" cy="369.87" rx="1.3" ry="1.32" style="fill:#ba1f3e;stroke:#511124;stroke-width:0.21799999475479126px"/><ellipse cx="449.18" cy="377.18" rx="1.3" ry="1.32" style="fill:#ba1f3e;stroke:#511124;stroke-width:0.21799999475479126px"/><path d="M562.3,257.62c.63.64,1.19.83,2.33,2" style="fill:none;stroke:#24420e;stroke-width:0.43700000643730164px"/><path d="M557.91,240a36.34,36.34,0,0,0-.93-5.14" style="fill:none;stroke:#24420e;stroke-width:0.43700000643730164px"/><path d="M560.47,238a12,12,0,0,1-1.08,5.69" style="fill:none;stroke:#24420e;stroke-width:0.43700000643730164px"/><path d="M555.18,243.09a23.75,23.75,0,0,0,5.33,4" style="fill:none;stroke:#24420e;stroke-width:0.43700000643730164px"/><path d="M564.39,248.38a19.66,19.66,0,0,1-.69,6.14" style="fill:none;stroke:#24420e;stroke-width:0.43700000643730164px"/><path d="M564,256.07l1.33-2.34" style="fill:none;stroke:#24420e;stroke-width:0.43700000643730164px"/><path d="M563.47,266.36c1.42.3,2.85,2,3.55,3.6" style="fill:none;stroke:#24420e;stroke-width:0.43700000643730164px"/><path d="M567.5,268.62l1.66-2.26" style="fill:none;stroke:#24420e;stroke-width:0.43700000643730164px"/><path d="M570.9,298.11a24.78,24.78,0,0,1-2.49,3.6" style="fill:none;stroke:#24420e;stroke-width:0.43700000643730164px"/><path d="M564.39,301.63a19.34,19.34,0,0,0,2.63,4.16" style="fill:none;stroke:#24420e;stroke-width:0.43700000643730164px"/><path d="M569.51,311.86A13.46,13.46,0,0,1,565,316" style="fill:none;stroke:#24420e;stroke-width:0.43700000643730164px"/><path d="M565.15,320.67c-1.11.78-2.46,3.05-3.74,4.87" style="fill:none;stroke:#24420e;stroke-width:0.43700000643730164px"/><path d="M570,304.69l-2.15.9" style="fill:none;stroke:#24420e;stroke-width:0.43700000643730164px"/><path d="M566.4,297.85l1.27,1.15" style="fill:none;stroke:#24420e;stroke-width:0.43700000643730164px"/><path d="M558.24,337.62a8.47,8.47,0,0,0-2.15.07" style="fill:none;stroke:#24420e;stroke-width:0.43700000643730164px"/><path d="M554.06,335.7l.62,1.69" style="fill:none;stroke:#24420e;stroke-width:0.43700000643730164px"/><path d="M546.86,342.68a20.56,20.56,0,0,0,.21,5.78" style="fill:none;stroke:#24420e;stroke-width:0.43700000643730164px"/><path d="M551.44,339.15l1,2.33" style="fill:none;stroke:#24420e;stroke-width:0.43700000643730164px"/><path d="M556.36,341.26l-2.56.42" style="fill:none;stroke:#24420e;stroke-width:0.43700000643730164px"/><path d="M522.5,367.79l-.93,1.8" style="fill:none;stroke:#24420e;stroke-width:0.43700000643730164px"/><path d="M533.64,365.53a15.76,15.76,0,0,1-4.15-.21" style="fill:none;stroke:#24420e;stroke-width:0.43700000643730164px"/><path d="M523.94,371.46a27.31,27.31,0,0,0-3-1" style="fill:none;stroke:#24420e;stroke-width:0.43700000643730164px"/><path d="M506,373.22a22.8,22.8,0,0,0-3.12,4.23" style="fill:none;stroke:#24420e;stroke-width:0.43700000643730164px"/><path d="M502.34,372.73c-2.47,1.29-3.23,3.83-4.5,6" style="fill:none;stroke:#24420e;stroke-width:0.43700000643730164px"/><path d="M500.68,381.69a52.62,52.62,0,0,1-5.4-2.12" style="fill:none;stroke:#24420e;stroke-width:0.43700000643730164px"/><path d="M512.28,378.87c-2.35-1.24-4.82-1.12-7.24-1.52" style="fill:none;stroke:#24420e;stroke-width:0.43700000643730164px"/><path d="M516,377a30,30,0,0,0-10.42-.14" style="fill:none;stroke:#24420e;stroke-width:0.43700000643730164px"/><path d="M513.42,374.17l-1.42-.6" style="fill:none;stroke:#24420e;stroke-width:0.43700000643730164px"/><path d="M506.39,379.25,504,377.91" style="fill:none;stroke:#24420e;stroke-width:0.43700000643730164px"/><path d="M562.8,327.09a18.63,18.63,0,0,0-3.82,4" style="fill:none;stroke:#24420e;stroke-width:0.43700000643730164px"/><path d="M560.83,248.83l-2.18-.75" style="fill:none;stroke:#24420e;stroke-width:0.43700000643730164px"/><path d="M474.31,387.66a8.49,8.49,0,0,1,3.32-2.74c7.84-4.19,15.62-6,24.46-7.48,2-.35,4.08-2.3,6.17-3.29,5-2.44,10.64-3.39,15.53-5.89a7.9,7.9,0,0,0,2.14-1.6c1.95-2.3,5.46-3,7.65-5.14,8.45-8.13,17.43-15.61,22.08-26.39,5.65-13.12,12.68-26.64,11.73-41.55-.62-9.43.76-19-1.52-27.94-3.37-13.32-7.7-26.49-15.63-37.51l1.33.85c8,11,12.3,24.2,15.67,37.51,2.28,9,.9,18.51,1.52,27.94.95,14.92-6.08,28.43-11.73,41.6-4.65,10.73-13.68,18.21-22.08,26.39-2.18,2.09-5.7,2.79-7.65,5.14a10.13,10.13,0,0,1-2.14,1.6c-4.89,2.49-10.5,3.44-15.53,5.84-2.09,1-4.13,2.94-6.17,3.29-8.83,1.45-16.62,3.34-24.45,7.48a8.17,8.17,0,0,0-3.33,2.74l-1.38-.85" style="fill:#406325;stroke:#24420e;stroke-width:0.164000004529953px"/><path d="M554.69,335.75c2.78-7.66,0-25.66-1.51-27.84C546.44,323.79,549.79,336.32,554.69,335.75Z" style="fill:#406325;stroke:#24420e;stroke-width:0.164000004529953px"/><path d="M547.48,343c2.34-5.83.62-20-.48-21.69C541.41,333.41,543.7,343.25,547.48,343Z" style="fill:#406325;stroke:#24420e;stroke-width:0.164000004529953px"/><path d="M564.53,266.42c-3.34-6.3-17.11-14.89-19.53-15.1C551.3,265.13,561.78,270.12,564.53,266.42Z" style="fill:#406325;stroke:#24420e;stroke-width:0.164000004529953px"/><path d="M562.92,258.14c-1.82-6.27-12.57-16.58-14.67-17.24C551.4,254.39,559.81,260.85,562.92,258.14Z" style="fill:#406325;stroke:#24420e;stroke-width:0.164000004529953px"/><path d="M567.73,273.59c-3.59-4.18-15.38-8.19-17.25-7.95C557.55,275,566.26,276.87,567.73,273.59Z" style="fill:#406325;stroke:#24420e;stroke-width:0.164000004529953px"/><path d="M564.89,321.45c6.22,1,19.23-4.25,20.63-5.81C572.44,312.75,563.65,317.54,564.89,321.45Z" style="fill:#406325;stroke:#24420e;stroke-width:0.164000004529953px"/><path d="M564.73,315.63c0-5.82-6.49-17.41-8.07-18.52C556.1,309.49,561.54,317.2,564.73,315.63Z" style="fill:#406325;stroke:#24420e;stroke-width:0.164000004529953px"/><path d="M565.15,301.49c0-7.86-8.59-23-10.71-24.4C553.59,293.79,560.86,303.78,565.15,301.49Z" style="fill:#406325;stroke:#24420e;stroke-width:0.164000004529953px"/><path d="M511.51,379.25c4.54,5.69,19.93,11.5,22.4,11.26C525,377.88,513.56,375,511.51,379.25Z" style="fill:#406325;stroke:#24420e;stroke-width:0.164000004529953px"/><path d="M554.6,335.57c-4.89.57-8.2-11.81-1.41-27.67C552.69,322.56,553.43,334.38,554.6,335.57Z" style="fill:#67923d;stroke:#24420e;stroke-width:0.164000004529953px"/><path d="M500.48,380.67c7.19.38,20.9,9.6,22.17,11.77C507.35,392.57,498.29,384.89,500.48,380.67Z" style="fill:#67923d;stroke:#24420e;stroke-width:0.164000004529953px"/><path d="M500.48,372.47c2.13-8.23,15.22-21.91,17.76-22.88-3.65,17.7-13.93,26.38-17.76,22.88Z" style="fill:#67923d;stroke:#24420e;stroke-width:0.164000004529953px"/><path d="M522,368.1c-1-8.08,5.75-25,7.69-26.84C532.73,358.28,526.7,369.75,522,368.1Z" style="fill:#67923d;stroke:#24420e;stroke-width:0.164000004529953px"/><path d="M543.81,353.08c4.54-5.65,19.66-11.7,22-11.51C556.82,354.05,545.67,357.17,543.81,353.08Z" style="fill:#67923d;stroke:#24420e;stroke-width:0.164000004529953px"/><path d="M570,298.06c.92-6.54,9.85-18.47,11.77-19.49C580.53,292.54,573.32,300.28,570,298.06Z" style="fill:#67923d;stroke:#24420e;stroke-width:0.164000004529953px"/><path d="M558.11,337.38c5.9-4.43,22.42-6.43,24.74-5.69C570.88,341.69,559,341.88,558.11,337.38Z" style="fill:#67923d;stroke:#24420e;stroke-width:0.164000004529953px"/><path d="M568.53,312.05c3.08-6.18,15.79-14.64,18-14.87C580.65,310.63,571,315.57,568.53,312.05Z" style="fill:#67923d;stroke:#24420e;stroke-width:0.164000004529953px"/><path d="M567,265c-.1-7.88,8.1-23.48,10.11-25,1.18,16.67-5.8,27.07-10.11,25Z" style="fill:#67923d;stroke:#24420e;stroke-width:0.164000004529953px"/><path d="M560,238.21c-2.36-5.46-1.12-19-.09-20.74C565.53,228.8,563.63,238.31,560,238.21Z" style="fill:#67923d;stroke:#24420e;stroke-width:0.164000004529953px"/><path d="M555.71,236c-5.35-4.84-10.8-20.41-10.56-22.83C557.07,222.7,559.74,234.16,555.71,236Z" style="fill:#67923d;stroke:#24420e;stroke-width:0.164000004529953px"/><path d="M567.5,271.64c-.32.84,3-7.95,14.42-15.81C577.85,270.57,570.72,274.71,567.5,271.64Z" style="fill:#67923d;stroke:#24420e;stroke-width:0.164000004529953px"/><path d="M532.92,364.51c7.1-5.34,26.91-7.89,29.65-6.95C548.11,369.7,533.94,369.93,532.92,364.51Z" style="fill:#67923d;stroke:#24420e;stroke-width:0.164000004529953px"/><path d="M547.45,343c-3.79.23-6-9.57-.48-21.61C546.24,332.7,546.54,342,547.45,343Z" style="fill:#67923d;stroke:#24420e;stroke-width:0.164000004529953px"/><path d="M564.54,266.47c-2.75,3.69-13.08-1.24-19.39-15.09C554.61,260.22,563,266.6,564.54,266.47Z" style="fill:#67923d;stroke:#24420e;stroke-width:0.164000004529953px"/><path d="M562.82,258.14c-3.11,2.71-11.44-3.7-14.59-17.2C555.06,250.62,561.44,257.93,562.82,258.14Z" style="fill:#67923d;stroke:#24420e;stroke-width:0.164000004529953px"/><path d="M567.78,273.67c-1.42,3.25-10.08,1.37-17.16-8C561.15,271.79,565.33,274.44,567.78,273.67Z" style="fill:#67923d;stroke:#24420e;stroke-width:0.164000004529953px"/><path d="M565,321.4c-1.27-3.89,7.47-8.59,20.53-5.74C574.54,317.67,565.73,320.29,565,321.4Z" style="fill:#67923d;stroke:#24420e;stroke-width:0.164000004529953px"/><path d="M564.64,315.62c-3.18,1.52-8.56-6.08-8-18.47C560,307.21,563.57,315.09,564.64,315.62Z" style="fill:#67923d;stroke:#24420e;stroke-width:0.164000004529953px"/><path d="M565.07,301.65c-4.29,2.28-11.47-7.61-10.62-24.3C558.92,290.63,563.63,301,565.07,301.65Z" style="fill:#67923d;stroke:#24420e;stroke-width:0.164000004529953px"/><path d="M511.63,379.2c2-4.28,13.34-1.42,22.29,11.25C522.77,383.47,513.15,378.77,511.63,379.2Z" style="fill:#67923d;stroke:#24420e;stroke-width:0.164000004529953px"/><path d="M522.14,368c4.61,1.65,10.59-9.73,7.65-26.74C526.94,355.69,523.52,367.16,522.14,368Z" style="fill:#406325;stroke:#24420e;stroke-width:0.164000004529953px"/><path d="M532.56,362.6c4.4-6.87,5.63-25.36,4.64-27.86C527.12,348.78,527.67,361.93,532.56,362.6Z" style="fill:#406325;stroke:#24420e;stroke-width:0.164000004529953px"/><path d="M500.43,380.72c-2.15,4.22,6.8,11.81,22.1,11.69C510.4,387.35,501,382.22,500.43,380.72Z" style="fill:#406325;stroke:#24420e;stroke-width:0.164000004529953px"/><path d="M500.59,372.4c3.84,3.45,14-5.11,17.66-22.81C510,362.42,502.3,372.11,500.59,372.4Z" style="fill:#406325;stroke:#24420e;stroke-width:0.164000004529953px"/><path d="M543.9,353.13c1.83,4,12.88.95,22-11.52C554.82,348.67,545.32,353.51,543.9,353.13Z" style="fill:#406325;stroke:#24420e;stroke-width:0.164000004529953px"/><path d="M570,298c3.35,2.22,10.48-5.48,11.72-19.42C576.45,289.36,571.33,297.64,570,298Z" style="fill:#406325;stroke:#24420e;stroke-width:0.164000004529953px"/><path d="M558.16,337.41c.91,4.49,12.63,4.32,24.66-5.68C570.14,335.83,559.49,338.15,558.16,337.41Z" style="fill:#406325;stroke:#24420e;stroke-width:0.164000004529953px"/><path d="M568.67,312c2.49,3.52,12-1.38,17.91-14.83C577.85,305.78,570.07,312.05,568.67,312Z" style="fill:#406325;stroke:#24420e;stroke-width:0.164000004529953px"/><path d="M567.14,264.89c4.3,2.08,11.22-8.21,10-24.89C573,253.57,568.6,264.19,567.14,264.89Z" style="fill:#406325;stroke:#24420e;stroke-width:0.164000004529953px"/><path d="M560.08,238.17c3.59.1,5.49-9.33-.14-20.65C560.91,228.36,560.87,237.23,560.08,238.17Z" style="fill:#406325;stroke:#24420e;stroke-width:0.164000004529953px"/><path d="M555.79,235.86c4-1.8,1.35-13.13-10.57-22.7C551.78,224.54,556.23,234.41,555.79,235.86Z" style="fill:#406325;stroke:#24420e;stroke-width:0.164000004529953px"/><path d="M567.56,271.67c3.22,3.07,10.29-1.1,14.36-15.84C574,266.25,569.05,271.51,567.56,271.67Z" style="fill:#406325;stroke:#24420e;stroke-width:0.164000004529953px"/><path d="M533,364.55c1,5.42,15.12,5.16,29.54-6.91C547.38,362.65,534.64,365.49,533,364.55Z" style="fill:#406325;stroke:#24420e;stroke-width:0.164000004529953px"/><path d="M540,356.56c3.32-5.1,4.33-18.88,3.61-20.74C536,346.24,536.33,356,540,356.56Z" style="fill:#406325;stroke:#24420e;stroke-width:0.164000004529953px"/><path d="M559.86,327c3.62-6,3.93-21.6,3-23.71C554.44,315.49,555.46,326.63,559.86,327Z" style="fill:#406325;stroke:#24420e;stroke-width:0.164000004529953px"/><path d="M532.52,362.54c-4.9-.66-5.41-13.75,4.62-27.76C533.46,349.1,531.6,361.07,532.52,362.54Z" style="fill:#67923d;stroke:#24420e;stroke-width:0.164000004529953px"/><path d="M568.18,292c-1-8,4-20.81,6.73-23.27C577.52,283.55,572.21,293.43,568.18,292Z" style="fill:#67923d;stroke:#24420e;stroke-width:0.164000004529953px"/><path d="M539.95,356.51c-3.65-.52-4-10.28,3.59-20.67C540.72,346.49,539.26,355.4,539.95,356.51Z" style="fill:#67923d;stroke:#24420e;stroke-width:0.164000004529953px"/><path d="M563.64,248.83c-2.2-6.08,0-20.7,1.25-22.49C570.26,239,567.57,249.18,563.64,248.83Z" style="fill:#67923d;stroke:#24420e;stroke-width:0.164000004529953px"/><path d="M504.74,372.95c2.51-8.36,16.42-21.78,19.07-22.64C519.41,368.3,508.53,376.68,504.74,372.95Z" style="fill:#67923d;stroke:#24420e;stroke-width:0.164000004529953px"/><path d="M560,330c2.7-6.47,15-16,17.22-16.36C572.24,327.71,562.81,333.4,560,330Z" style="fill:#67923d;stroke:#24420e;stroke-width:0.164000004529953px"/><path d="M559.92,326.85c-4.39-.38-5.41-11.4,3-23.6C560.19,315.5,559,325.65,559.92,326.85Z" style="fill:#67923d;stroke:#24420e;stroke-width:0.164000004529953px"/><path d="M568.23,293.85c5.23,1.9,9.21-10.22,6.69-24.7C572.46,281.61,569.47,293.12,568.23,293.85Z" style="fill:#406325;stroke:#24420e;stroke-width:0.164000004529953px"/><path d="M569,293.44c.57-7.78-7-23.85-9-25.52C557.93,284.24,564.5,295.09,569,293.44Z" style="fill:#406325;stroke:#24420e;stroke-width:0.164000004529953px"/><path d="M563.72,248.79c3.89.35,6.56-9.75,1.2-22.41C565.26,238.21,564.64,247.82,563.72,248.79Z" style="fill:#406325;stroke:#24420e;stroke-width:0.164000004529953px"/><path d="M504.85,372.86c3.84,3.74,14.57-4.56,19-22.56-9,12.76-17.21,22.33-19,22.56Z" style="fill:#406325;stroke:#24420e;stroke-width:0.164000004529953px"/><path d="M560.26,330c2.77,3.41,12.1-2.23,17.11-16.36C569.12,323.06,561.68,330,560.26,330Z" style="fill:#406325;stroke:#24420e;stroke-width:0.164000004529953px"/><path d="M568.9,293.32c-4.48,1.69-11-9.05-9-25.37C563.5,281.65,567.49,292.5,568.9,293.32Z" style="fill:#67923d;stroke:#24420e;stroke-width:0.164000004529953px"/><ellipse cx="565.82" cy="253.42" rx="1.1" ry="1.12" style="fill:#ba1f3e;stroke:#511124;stroke-width:0.21799999475479126px"/><ellipse cx="569.67" cy="265.73" rx="1.1" ry="1.12" style="fill:#ba1f3e;stroke:#511124;stroke-width:0.21799999475479126px"/><ellipse cx="571.03" cy="304.45" rx="1.3" ry="1.32" style="fill:#ba1f3e;stroke:#511124;stroke-width:0.21799999475479126px"/><ellipse cx="565.85" cy="297.21" rx="1.3" ry="1.32" style="fill:#ba1f3e;stroke:#511124;stroke-width:0.21799999475479126px"/><ellipse cx="550.9" cy="338.4" rx="1.3" ry="1.32" style="fill:#ba1f3e;stroke:#511124;stroke-width:0.21799999475479126px"/><ellipse cx="557.28" cy="341.22" rx="1.3" ry="1.32" style="fill:#ba1f3e;stroke:#511124;stroke-width:0.21799999475479126px"/><ellipse cx="514.28" cy="374.65" rx="1.3" ry="1.32" style="fill:#ba1f3e;stroke:#511124;stroke-width:0.21799999475479126px"/><ellipse cx="507.18" cy="379.85" rx="1.3" ry="1.32" style="fill:#ba1f3e;stroke:#511124;stroke-width:0.21799999475479126px"/><ellipse cx="558.15" cy="247.58" rx="1.1" ry="1.12" style="fill:#ba1f3e;stroke:#511124;stroke-width:0.21799999475479126px"/><path d="M433.6,337.47a1.92,1.92,0,0,0,2.16,2.14c.39-.08.63-.6.13-.51a1.33,1.33,0,0,1-1.22-.39,1.76,1.76,0,0,1-.4-2l-.67.73h0Z" style="fill:#8c959d;stroke:#485654;stroke-width:0.10899999737739563px"/><path d="M436.64,339.61c-1,1.2-2.6,1.73-3.48.86a1.69,1.69,0,0,1-.48-2l-1.14,1.27a4.52,4.52,0,0,0,1.73,1.82c1.24.57,3-.29,4.07-1.62.75-.94,1.58-2.51,1-3.73a4.06,4.06,0,0,0-2-1.76l-1,1.14a1.6,1.6,0,0,1,1.72.32c1.29,1.07.54,2.58-.38,3.66h0Z" style="fill:#8c959d"/><path d="M436.64,339.61a4.08,4.08,0,0,1-1.18,1,2.46,2.46,0,0,1-1.49.33,1.49,1.49,0,0,1-.72-.31,2.43,2.43,0,0,1-.52-.6,1.68,1.68,0,0,1-.25-.76,1.75,1.75,0,0,1,.14-.79l.12.08-1.13,1.28v-.1a5.19,5.19,0,0,0,1.06,1.34,2.58,2.58,0,0,0,.7.45,2,2,0,0,0,.81.14,3.49,3.49,0,0,0,1.6-.49,5.19,5.19,0,0,0,1.32-1.08,6.38,6.38,0,0,0,.95-1.43,3.41,3.41,0,0,0,.38-1.65,1.92,1.92,0,0,0-.23-.8,3.16,3.16,0,0,0-.51-.68,4.24,4.24,0,0,0-1.39-1l.09,0-1.05,1.13-.09-.12a1.45,1.45,0,0,1,.76-.12,1.82,1.82,0,0,1,.72.25,2,2,0,0,1,.94,1.18,2.25,2.25,0,0,1-.21,1.5,5.27,5.27,0,0,1-.85,1.24h0Zm0,0a5.48,5.48,0,0,0,.8-1.27,2.18,2.18,0,0,0,.17-1.45,1.94,1.94,0,0,0-.91-1.1,1.45,1.45,0,0,0-1.36-.1l-.09-.12,1-1.15,0,0,.05,0a4.22,4.22,0,0,1,1.47,1,3.36,3.36,0,0,1,.54.72,2.12,2.12,0,0,1,.26.88,3.62,3.62,0,0,1-.39,1.75,6.61,6.61,0,0,1-1,1.49,5.34,5.34,0,0,1-1.38,1.12,3.7,3.7,0,0,1-1.69.51,2.2,2.2,0,0,1-.89-.16,2.77,2.77,0,0,1-.75-.49,5.15,5.15,0,0,1-1.09-1.41l0-.06,0,0,1.15-1.26.12.08a1.59,1.59,0,0,0-.14.72,1.56,1.56,0,0,0,.22.7,2.32,2.32,0,0,0,.48.58,1.4,1.4,0,0,0,.67.3,2.38,2.38,0,0,0,1.46-.28,4.2,4.2,0,0,0,1.2-.94Z" style="fill:#485654"/><path d="M515.74,247.58,475,288.4c-3.1,3.13-38.5,37.58-41.69,40.68-1.12,1.37-4.29,5-4.63,5.53-2.16,2.39-4.5,5.51-7.3,8.29-.5.64-1.16.41-1.76.76a23.84,23.84,0,0,0-5.12,4.51l-12.38,14c-.8.88-1,1.43-.47,1.93l6.72,9.14c1.25,1.25,2.68,1.9,3.24.85,3.19-5.63,11.12-14.21,14.11-21,1.79-4.06,4-11.42,5.64-13.2,2-2.23,7.27-8,12-13.12l.94-1,1-1.05c23.84-24.74,51.43-54.8,71.52-76-.79-.8-.29-.32-1.06-1.07Z" style="fill:#6c301e;stroke:#351710;stroke-linejoin:round;stroke-width:0.21799999475479126px"/><path d="M431.21,329a4.2,4.2,0,0,1-2.89-1.45c1.19.36,2.38.82,3.5.35l-.61,1.1Z" style="fill:#8c959d;stroke:#485654;stroke-width:0.10899999737739563px"/><path d="M558.14,217.47l-32.25,27.08c-.31.39-.63.28-.94,0l-2.94-2.5a1,1,0,0,0,0-.11,1.49,1.49,0,0,0-.08-.48l1.44-1.5c.18-.23.12-.32-.12-.56s-.35-.38-.6-.62-.42,0-.65.18l-1.45,1.52a1.45,1.45,0,0,0-1.37,1.41c-19.51,19.35-36.3,36.6-55.72,55.65l-22.89,22.26c-.82,1.08-4.35,3-6.69,4.56A5.74,5.74,0,0,0,432,326l-1.87,5.61c-.59,1.23-2.47,4.13-2.55,4.33,2.4,2.47,2.28,2.29,3.92,3.85,1.84-2.09,6.78-7.35,11.27-12.24.36-.39.38-.44.84-1a13.7,13.7,0,0,0-1.41-1.71c-.4-.39-.84-.79-1.22-1.13s-.47-.4-.64-.56.24-.46.43-.66C467.66,296,496.57,267,520.21,243.33a1.41,1.41,0,0,0,.4.06,1.39,1.39,0,0,0,.64-.16l2.83,3.32a1.39,1.39,0,0,0,1.76.41l32.31-29.48Z" style="fill:#b2b6ba;stroke:#485654;stroke-width:0.21799999475479126px"/><path d="M430.26,331.4a2.72,2.72,0,0,0,.61,0,1.5,1.5,0,0,0,.58-.17l0,0c.23-.82.48-1.64.72-2.46s.51-1.63.77-2.44v0a1.51,1.51,0,0,0-.74-.51,1.53,1.53,0,0,1,.78.47h0v0c-.23.82-.47,1.64-.72,2.46s-.5,1.63-.77,2.44h0a1.41,1.41,0,0,1-.61.15,2.86,2.86,0,0,1-.62-.07Z" style="fill:#485654"/><ellipse cx="437.59" cy="329.07" rx="0.63" ry="0.64" style="fill:none;stroke:#485654;stroke-width:0.164000004529953px"/><ellipse cx="433.79" cy="332.94" rx="0.63" ry="0.64" style="fill:none;stroke:#485654;stroke-width:0.164000004529953px"/><path d="M440.42,323.13a13.43,13.43,0,0,1-1.76-1.68,13.43,13.43,0,0,1,1.76,1.68Z" style="fill:#485654"/><path d="M502.48,257.72l3.54,3.52.65-.61-3.54-3.52-.65.6Z" style="fill:#8c959d;stroke:#485654;stroke-width:0.10899999737739563px"/><path d="M523.82,339.28a1.91,1.91,0,0,1-2.26,2c-.39-.1-.6-.63-.11-.51a1.33,1.33,0,0,0,1.24-.32,1.75,1.75,0,0,0,.5-2l.63.77h0Z" style="fill:#8c959d;stroke:#485654;stroke-width:0.10899999737739563px"/><path d="M520.69,341.26c1,1.25,2.52,1.86,3.43,1a1.69,1.69,0,0,0,.57-1.95l1.07,1.33a4.51,4.51,0,0,1-1.82,1.73c-1.27.51-3-.44-4-1.82-.7-1-1.46-2.58-.8-3.77a4.05,4.05,0,0,1,2.08-1.65l1,1.19a1.6,1.6,0,0,0-1.73.24c-1.34,1-.67,2.55.2,3.68h0Z" style="fill:#8c959d"/><path d="M520.69,341.26a4.09,4.09,0,0,0,1.13,1,2.46,2.46,0,0,0,1.48.4,1.48,1.48,0,0,0,.74-.27,2.42,2.42,0,0,0,.55-.57,1.68,1.68,0,0,0,.29-.75,1.75,1.75,0,0,0-.1-.8l-.13.08,1.06,1.34v-.1a5.18,5.18,0,0,1-1.12,1.29,2.58,2.58,0,0,1-.72.41,2,2,0,0,1-.81.1,3.49,3.49,0,0,1-1.57-.57,5.2,5.2,0,0,1-1.26-1.14,6.4,6.4,0,0,1-.88-1.48,3.42,3.42,0,0,1-.3-1.66,1.92,1.92,0,0,1,.27-.79,3.15,3.15,0,0,1,.54-.65,4.23,4.23,0,0,1,1.44-.89l-.09,0,1,1.18.09-.12a1.45,1.45,0,0,0-.76-.16,1.81,1.81,0,0,0-.74.22,2,2,0,0,0-1,1.13,2.25,2.25,0,0,0,.14,1.5,5.29,5.29,0,0,0,.79,1.29h0Zm0,0a5.5,5.5,0,0,1-.74-1.3,2.18,2.18,0,0,1-.1-1.46,1.94,1.94,0,0,1,1-1.05,1.45,1.45,0,0,1,1.37,0l.09-.12-1-1.2,0,0-.06,0a4.21,4.21,0,0,0-1.51.92,3.35,3.35,0,0,0-.58.69,2.12,2.12,0,0,0-.3.87,3.63,3.63,0,0,0,.3,1.77,6.63,6.63,0,0,0,.9,1.54,5.36,5.36,0,0,0,1.32,1.18,3.7,3.7,0,0,0,1.67.59,2.19,2.19,0,0,0,.89-.11,2.76,2.76,0,0,0,.78-.45,5.14,5.14,0,0,0,1.16-1.35l0-.05,0,0-1.09-1.32-.13.08a1.59,1.59,0,0,1,.11.73,1.55,1.55,0,0,1-.25.69,2.31,2.31,0,0,1-.51.55,1.4,1.4,0,0,1-.68.27,2.38,2.38,0,0,1-1.44-.36,4.22,4.22,0,0,1-1.15-1Z" style="fill:#485654"/><path d="M446.16,245.35l38.67,42.82c2.94,3.28,36.62,39.48,39.66,42.74,1.05,1.42,4,5.23,4.35,5.76,2,2.49,4.23,5.73,6.89,8.65.47.66,1.14.46,1.72.85a23.91,23.91,0,0,1,4.9,4.77L554,365.5c.75.92.94,1.47.38,2l-7.15,8.79c-1.31,1.19-2.77,1.76-3.28.68-2.91-5.78-10.41-14.76-13.07-21.69-1.59-4.14-3.47-11.61-5-13.47-1.85-2.32-6.87-8.34-11.32-13.71L513.7,327l-.91-1.1c-22.61-25.91-48.7-57.33-67.74-79.5.83-.76.31-.31,1.11-1Z" style="fill:#6c301e;stroke:#351710;stroke-linejoin:round;stroke-width:0.21799999475479126px"/><path d="M526.62,331a4.19,4.19,0,0,0,3-1.3c-1.2.3-2.42.7-3.51.17l.56,1.13Z" style="fill:#8c959d;stroke:#485654;stroke-width:0.10899999737739563px"/><path d="M405.27,213.13l30.9,28.68c.29.4.62.31.94,0l3.05-2.35a1,1,0,0,1,0-.11,1.49,1.49,0,0,1,.11-.47l-1.37-1.57c-.17-.24-.11-.33.15-.56s.37-.36.63-.59.42,0,.64.22l1.38,1.6a1.45,1.45,0,0,1,1.3,1.48c18.54,20.31,34.47,38.39,52.94,58.39l21.78,23.39c.76,1.12,4.2,3.22,6.46,4.89a5.76,5.76,0,0,1,1.76,1.69l1.59,5.7c.53,1.26,2.26,4.25,2.33,4.45-2.52,2.34-2.39,2.17-4.1,3.65-1.74-2.18-6.42-7.68-10.66-12.8-.34-.41-.36-.45-.8-1a13.66,13.66,0,0,1,1.49-1.63c.42-.37.87-.75,1.27-1.07s.49-.38.66-.53-.22-.47-.4-.68c-25.52-27.75-53-58.21-75.44-83a1.4,1.4,0,0,1-.4,0,1.39,1.39,0,0,1-.63-.19l-3,3.17a1.39,1.39,0,0,1-1.78.32l-30.84-31.08Z" style="fill:#b2b6ba;stroke:#485654;stroke-width:0.21799999475479126px"/><path d="M527.46,333.38a2.72,2.72,0,0,1-.62,0,1.5,1.5,0,0,1-.57-.2l0,0c-.19-.83-.4-1.66-.6-2.49s-.43-1.65-.65-2.48v0a1.5,1.5,0,0,1,.77-.47,1.53,1.53,0,0,0-.8.43h0v0c.19.83.39,1.66.6,2.49s.42,1.66.65,2.48h0a1.41,1.41,0,0,0,.6.18,2.86,2.86,0,0,0,.62,0Z" style="fill:#485654"/><ellipse cx="520.25" cy="330.68" rx="0.64" ry="0.63" transform="translate(164.64 834.22) rotate(-87.21)" style="fill:none;stroke:#485654;stroke-width:0.164000004529953px"/><ellipse cx="523.85" cy="334.74" rx="0.64" ry="0.63" transform="translate(164.02 841.68) rotate(-87.21)" style="fill:none;stroke:#485654;stroke-width:0.164000004529953px"/><path d="M517.71,324.6a13.4,13.4,0,0,0,1.84-1.59,13.39,13.39,0,0,0-1.84,1.59Z" style="fill:#485654"/><path d="M458.9,256.14l-3.7,3.34-.62-.64,3.7-3.34.62.64Z" style="fill:#8c959d;stroke:#485654;stroke-width:0.10899999737739563px"/><path d="M433.26,367.52c-8-3.43-27.27-.69-29.63,1C420.14,376.76,433.58,373.21,433.26,367.52Z" style="fill:#67923d;stroke:#24420e;stroke-width:0.164000004529953px"/><path d="M523.54,371c8-3.43,27.27-.69,29.63,1C536.66,380.16,523.21,376.64,523.54,371Z" style="fill:#67923d;stroke:#24420e;stroke-width:0.164000004529953px"/><path d="M433.11,367.65c.33,5.69-13,9.18-29.49.93C419.13,369.54,431.81,369,433.11,367.65Z" style="fill:#406325;stroke:#24420e;stroke-width:0.164000004529953px"/><path d="M523.69,371c-.33,5.69,13,9.18,29.49.93C537.67,372.94,525,372.4,523.69,371Z" style="fill:#406325;stroke:#24420e;stroke-width:0.164000004529953px"/><path d="M508.89,362c-21-31.11-52.73-56.41-77.18-70.23,3.61-.17,11.62,4,14.88,6.14,24.28,15.94,44.93,37,66.59,61.8a35.91,35.91,0,0,1-3.49,3.15l-.8-.86Z" style="fill:#b2b6ba;stroke:#485654;stroke-width:0.21799999475479126px"/><path d="M511,361.73l-1.47,1.44c-23.34-30.6-55.87-59.86-77.75-71.41,30.51,14.31,56.18,43.15,79.14,69.88l.09.09Z" style="fill:#8c959d"/><path d="M511,361.73l-1.47,1.44h0c-5.4-7-11.13-13.83-17.1-20.38s-12.18-12.88-18.63-18.94S460.66,312,453.7,306.53c-3.48-2.72-7-5.34-10.69-7.81a121.8,121.8,0,0,0-11.29-6.86l.1-.2a136.24,136.24,0,0,1,22.69,13.72,214.53,214.53,0,0,1,20.31,17.18c6.44,6.12,12.6,12.54,18.59,19.11S505.2,355,511,361.73Zm0,0c-5.82-6.73-11.66-13.44-17.67-20s-12.16-13-18.61-19.07a214.57,214.57,0,0,0-20.32-17.14,136.05,136.05,0,0,0-22.68-13.67l.1-.2a121.46,121.46,0,0,1,11.3,6.89c3.65,2.48,7.21,5.11,10.69,7.84,7,5.45,13.63,11.28,20.08,17.35s12.65,12.41,18.61,19,11.65,13.38,17,20.45h0l1.47-1.44Z" style="fill:#485654"/><path d="M518,356.89a18.4,18.4,0,0,0-5.33,2.3,5,5,0,0,1-3.64,3.42c-.3-.39-.37-.5-.6-.8a.13.13,0,0,0-.17,0c-.14.08-.34.19-.58.35a1.55,1.55,0,0,0-1.68,1c-.38,1,.39,2.32,1.24,3.19s1.41,1.1,2.49.95a3.47,3.47,0,0,0,2-1.58,65,65,0,0,0,11.39,11c2.13,0,3.27-1.35,2.56-2.9a1.15,1.15,0,0,0-1.35-.67,1.12,1.12,0,0,0,0-.47c2.5-2.34,3.56-5.26.93-10.2-2.26-4.16-4.78-5.58-7.19-5.56h0Zm6.33,4.68c.44.77.7,1.43,1,2.12,1.5,3.1.2,6.82-2.37,8-.12,0-.09,0-.22,0,.42-.71-.84-2.22-1.48-1.69.3-.78-.68-2.09-1.48-1.75.42-.73-.54-2-1.44-1.57a1.21,1.21,0,0,0-1.26-1.72,1.27,1.27,0,0,0-1.37-1.65,1.62,1.62,0,0,0-.51-1.5,34.64,34.64,0,0,1,3.49-2.83c2.76-1.22,4.47,1.11,5.61,2.6h0Z" style="fill:#fab81c;stroke:#6c301e;stroke-width:0.21799999475479126px"/><path d="M525.53,364.85a1,1,0,0,1-.6-1.14c.17-.35.71-.45,1.23-.18s.81.77.64,1.12a1,1,0,0,1-1.28.2h0Z" style="fill:#fab81c;stroke:#6c301e;stroke-width:0.10899999737739563px"/><path d="M525.22,363.79a1,1,0,0,1-.6-1.14c.17-.35.71-.45,1.23-.18s.81.77.64,1.12a1,1,0,0,1-1.28.2h0Z" style="fill:#fab81c;stroke:#6c301e;stroke-width:0.10899999737739563px"/><path d="M524.59,362.63a1,1,0,0,1-.6-1.14c.17-.35.71-.45,1.23-.18s.81.77.64,1.12a1,1,0,0,1-1.28.2h0Z" style="fill:#fab81c;stroke:#6c301e;stroke-width:0.10899999737739563px"/><path d="M523.8,361.57a1,1,0,0,1-.6-1.14c.17-.35.71-.45,1.23-.18s.81.77.64,1.12a1,1,0,0,1-1.28.2h0Z" style="fill:#fab81c;stroke:#6c301e;stroke-width:0.10899999737739563px"/><path d="M522.76,360.55a1,1,0,0,1-.6-1.14s0-.14.06-.12c.21.11.65.19.6-.14-.07-.12-.15-.23-.07-.15a2.12,2.12,0,0,1,.65.23c.52.26.81.77.64,1.12a1,1,0,0,1-1.28.2h0Z" style="fill:#fab81c;stroke:#6c301e;stroke-width:0.10899999737739563px"/><path d="M511.71,365.71c.69-1.83,2.08-3.53,3.56-3.93" style="fill:#fab81c"/><path d="M511.95,366c1.28.27,3.36-1.28,3.86-2.67" style="fill:#fab81c"/><path d="M513.15,367.46c1.68.39,3.34-1.26,4-2.49" style="fill:#fab81c"/><path d="M514.66,369.09a4.22,4.22,0,0,0,3.79-2.47" style="fill:#fab81c"/><path d="M516.2,370.67a4.45,4.45,0,0,0,3.7-2.5" style="fill:#fab81c"/><path d="M517.68,372.12a4,4,0,0,0,3.67-2.14" style="fill:#fab81c"/><path d="M519.34,373.59a3.66,3.66,0,0,0,3.49-1.92" style="fill:#fab81c"/><path d="M521.15,375.09a3.21,3.21,0,0,0,3.18-2" style="fill:#fab81c"/><path d="M511.71,365.71a7.33,7.33,0,0,1,.55-1.26,7.62,7.62,0,0,1,.78-1.14,5.76,5.76,0,0,1,1-.95,3.4,3.4,0,0,1,1.23-.58,4,4,0,0,0-1.18.65,6.11,6.11,0,0,0-1,.95,9.58,9.58,0,0,0-1.41,2.33Z" style="fill:#6c301e"/><path d="M511.95,366a2.33,2.33,0,0,0,1.2-.2,4.92,4.92,0,0,0,1.06-.61,5.76,5.76,0,0,0,.91-.83,3.92,3.92,0,0,0,.69-1,3.3,3.3,0,0,1-.62,1.09,5.37,5.37,0,0,1-.91.86,4.61,4.61,0,0,1-1.1.6,2.09,2.09,0,0,1-1.23.12Z" style="fill:#6c301e"/><path d="M513.15,367.46a2.54,2.54,0,0,0,1.22-.09,3.8,3.8,0,0,0,1.09-.57,5.76,5.76,0,0,0,.92-.83,6.44,6.44,0,0,0,.75-1,4.84,4.84,0,0,1-.69,1.06,5.32,5.32,0,0,1-.92.86,3.66,3.66,0,0,1-1.13.56,2.27,2.27,0,0,1-1.24,0Z" style="fill:#6c301e"/><path d="M514.66,369.09a4.2,4.2,0,0,0,1.16-.19,3.86,3.86,0,0,0,1-.52,4.76,4.76,0,0,0,.88-.79,6.82,6.82,0,0,0,.7-1,4.68,4.68,0,0,1-1.52,1.85,3.65,3.65,0,0,1-1.09.51,3.36,3.36,0,0,1-1.19.11Z" style="fill:#6c301e"/><path d="M516.2,370.67a4.12,4.12,0,0,0,2.14-.79,5.26,5.26,0,0,0,.87-.76,4.36,4.36,0,0,0,.68-1,3.5,3.5,0,0,1-.62,1,4.86,4.86,0,0,1-.87.8,4.28,4.28,0,0,1-1,.53,3,3,0,0,1-1.16.16Z" style="fill:#6c301e"/><path d="M517.68,372.12a7.07,7.07,0,0,0,1.09-.19,4.64,4.64,0,0,0,1-.4,3.72,3.72,0,0,0,.89-.65,3.62,3.62,0,0,0,.66-.9,3,3,0,0,1-.6,1,3.55,3.55,0,0,1-.9.69,4.5,4.5,0,0,1-2.17.49Z" style="fill:#6c301e"/><path d="M519.34,373.59a4.52,4.52,0,0,0,1-.12,4,4,0,0,0,1-.37,3.85,3.85,0,0,0,.85-.6,3.19,3.19,0,0,0,.65-.83,2.61,2.61,0,0,1-.59.89,3.63,3.63,0,0,1-.85.64,3.72,3.72,0,0,1-1,.36A3.37,3.37,0,0,1,519.34,373.59Z" style="fill:#6c301e"/><path d="M521.15,375.09a3.93,3.93,0,0,0,1-.12,3.13,3.13,0,0,0,.89-.39,3.37,3.37,0,0,0,.75-.63,4.17,4.17,0,0,0,.57-.82,3.14,3.14,0,0,1-1.26,1.54,3,3,0,0,1-.93.38,3,3,0,0,1-1,0Z" style="fill:#6c301e"/><path d="M449.68,359.33c22.81-29.78,55.93-53.12,81.14-65.44-3.59-.39-11.84,3.3-15.21,5.23-25.17,14.44-47,34.2-70.08,57.66a36,36,0,0,0,3.3,3.36l.85-.81Z" style="fill:#b2b6ba;stroke:#485654;stroke-width:0.21799999475479126px"/><path d="M447.61,359l1.38,1.53c25.08-29.13,59.27-56.37,81.78-66.58-31.29,12.44-58.59,39.67-83.08,65l-.09.08Z" style="fill:#8c959d"/><path d="M447.6,359l1.38,1.53h0c5.8-6.71,11.92-13.13,18.26-19.31s12.91-12.12,19.7-17.78,13.8-11.06,21.07-16.07c3.64-2.5,7.34-4.9,11.13-7.15A121.46,121.46,0,0,1,530.81,294l-.09-.21a135.86,135.86,0,0,0-23.45,12.32A213.85,213.85,0,0,0,486,322c-6.79,5.71-13.31,11.75-19.67,17.95s-12.55,12.58-18.73,19Zm0,0c6.2-6.36,12.42-12.71,18.8-18.89s12.9-12.21,19.69-17.91a213.89,213.89,0,0,1,21.28-15.88A135.67,135.67,0,0,1,530.81,294l-.09-.21A121.11,121.11,0,0,0,519,300c-3.79,2.26-7.49,4.67-11.13,7.17-7.27,5-14.27,10.43-21.06,16.11S473.5,334.9,467.17,341.1,454.76,353.75,449,360.48h0L447.6,359Z" style="fill:#485654"/><path d="M440.85,353.71a18.45,18.45,0,0,1,5.19,2.62,5.05,5.05,0,0,0,3.43,3.63l.65-.76a.13.13,0,0,1,.17,0c.14.09.33.21.56.39a1.55,1.55,0,0,1,1.62,1.11c.32,1-.53,2.29-1.43,3.1s-1.47,1-2.54.8a3.48,3.48,0,0,1-1.86-1.69,64.74,64.74,0,0,1-12,10.28c-2.13-.11-3.19-1.54-2.38-3a1.15,1.15,0,0,1,1.39-.59,1.12,1.12,0,0,1,0-.47c-2.36-2.49-3.25-5.46-.33-10.24,2.49-4,5.1-5.28,7.5-5.11h0Zm-6.6,4.29c-.49.74-.78,1.38-1.16,2.05-1.68,3-.6,6.8,1.9,8.09.12,0,.09,0,.21,0-.38-.73,1-2.17,1.58-1.6-.26-.8.8-2,1.58-1.66-.38-.75.65-1.93,1.53-1.48a1.2,1.2,0,0,1,1.36-1.64,1.26,1.26,0,0,1,1.47-1.56,1.62,1.62,0,0,1,.6-1.46,34.75,34.75,0,0,0-3.32-3c-2.68-1.38-4.52.84-5.75,2.26h0Z" style="fill:#fab81c;stroke:#6c301e;stroke-width:0.21799999475479126px"/><path d="M432.91,361.19a1,1,0,0,0,.66-1.1c-.15-.36-.68-.49-1.22-.26s-.86.72-.71,1.08a1,1,0,0,0,1.27.28h0Z" style="fill:#fab81c;stroke:#6c301e;stroke-width:0.10899999737739563px"/><path d="M433.27,360.16a1,1,0,0,0,.66-1.1c-.15-.36-.68-.49-1.22-.26s-.86.72-.71,1.08a1,1,0,0,0,1.27.28h0Z" style="fill:#fab81c;stroke:#6c301e;stroke-width:0.10899999737739563px"/><path d="M434,359a1,1,0,0,0,.66-1.1c-.15-.36-.68-.49-1.22-.26s-.86.72-.71,1.08A1,1,0,0,0,434,359h0Z" style="fill:#fab81c;stroke:#6c301e;stroke-width:0.10899999737739563px"/><path d="M434.82,358a1,1,0,0,0,.66-1.1c-.15-.36-.68-.49-1.22-.26s-.86.72-.71,1.08a1,1,0,0,0,1.27.28h0Z" style="fill:#fab81c;stroke:#6c301e;stroke-width:0.10899999737739563px"/><path d="M435.92,357.07a1,1,0,0,0,.66-1.1s0-.14,0-.12c-.22.1-.66.15-.6-.18.07-.11.16-.23.08-.14a2.12,2.12,0,0,0-.66.19c-.54.23-.86.72-.71,1.08a1,1,0,0,0,1.27.28h0Z" style="fill:#fab81c;stroke:#6c301e;stroke-width:0.10899999737739563px"/><path d="M446.65,362.89c-.58-1.87-1.87-3.65-3.32-4.14" style="fill:#fab81c"/><path d="M446.4,363.13c-1.29.19-3.27-1.48-3.7-2.9" style="fill:#fab81c"/><path d="M445.11,364.55c-1.7.29-3.26-1.46-3.84-2.73" style="fill:#fab81c"/><path d="M443.5,366.09a4.23,4.23,0,0,1-3.64-2.69" style="fill:#fab81c"/><path d="M441.88,367.57a4.47,4.47,0,0,1-3.54-2.72" style="fill:#fab81c"/><path d="M440.32,368.93a4,4,0,0,1-3.54-2.36" style="fill:#fab81c"/><path d="M438.57,370.29a3.67,3.67,0,0,1-3.37-2.13" style="fill:#fab81c"/><path d="M436.68,371.68a3.22,3.22,0,0,1-3.06-2.15" style="fill:#fab81c"/><path d="M446.65,362.89a7.35,7.35,0,0,0-.48-1.3,7.64,7.64,0,0,0-.71-1.19,5.78,5.78,0,0,0-.94-1,3.41,3.41,0,0,0-1.19-.65,4,4,0,0,1,1.14.72,6.13,6.13,0,0,1,.91,1,9.61,9.61,0,0,1,1.27,2.41Z" style="fill:#6c301e"/><path d="M446.4,363.13a2.33,2.33,0,0,1-1.18-.27,4.94,4.94,0,0,1-1-.68,5.78,5.78,0,0,1-.86-.88,3.93,3.93,0,0,1-.62-1.07,3.31,3.31,0,0,0,.56,1.13,5.38,5.38,0,0,0,.86.92,4.63,4.63,0,0,0,1.06.67,2.1,2.1,0,0,0,1.22.19Z" style="fill:#6c301e"/><path d="M445.11,364.55a2.54,2.54,0,0,1-1.21-.16,3.81,3.81,0,0,1-1.06-.63,5.78,5.78,0,0,1-.87-.89,6.46,6.46,0,0,1-.69-1,4.86,4.86,0,0,0,.63,1.1,5.33,5.33,0,0,0,.87.92,3.67,3.67,0,0,0,1.1.62,2.27,2.27,0,0,0,1.24.08Z" style="fill:#6c301e"/><path d="M443.5,366.09a4.2,4.2,0,0,1-1.15-.26,3.87,3.87,0,0,1-1-.59,4.78,4.78,0,0,1-.83-.84,6.84,6.84,0,0,1-.65-1,4.7,4.7,0,0,0,1.41,1.94,3.66,3.66,0,0,0,1.05.58,3.36,3.36,0,0,0,1.18.18Z" style="fill:#6c301e"/><path d="M441.88,367.57a4.13,4.13,0,0,1-2.09-.92,5.28,5.28,0,0,1-.83-.81,4.38,4.38,0,0,1-.62-1,3.51,3.51,0,0,0,.56,1,4.88,4.88,0,0,0,.83.85,4.29,4.29,0,0,0,1,.6,3,3,0,0,0,1.14.23Z" style="fill:#6c301e"/><path d="M440.32,368.93a7.08,7.08,0,0,1-1.08-.26,4.65,4.65,0,0,1-1-.46,3.73,3.73,0,0,1-.85-.7,3.63,3.63,0,0,1-.61-.94,3,3,0,0,0,.54,1,3.56,3.56,0,0,0,.86.74,4.51,4.51,0,0,0,2.14.62Z" style="fill:#6c301e"/><path d="M438.57,370.29a4.53,4.53,0,0,1-1-.19,4,4,0,0,1-.94-.43,3.86,3.86,0,0,1-.81-.65,3.2,3.2,0,0,1-.6-.86,2.62,2.62,0,0,0,.53.92,3.64,3.64,0,0,0,.82.69,3.73,3.73,0,0,0,1,.42A3.37,3.37,0,0,0,438.57,370.29Z" style="fill:#6c301e"/><path d="M436.68,371.68a3.93,3.93,0,0,1-1-.18,3.14,3.14,0,0,1-.87-.44,3.38,3.38,0,0,1-.71-.68,4.18,4.18,0,0,1-.52-.85,3.15,3.15,0,0,0,1.16,1.62,2.93,2.93,0,0,0,1.9.53Z" style="fill:#6c301e"/><path d="M408.24,238c7.31-2.44,19-16,19.75-18.51-15.81,4.29-23.08,14.82-19.75,18.51Z" style="fill:#406325;stroke:#24420e;stroke-width:0.164000004529953px"/><path d="M556,242.9c-1.73-7.28-13.47-19.64-15.79-20.57C543.06,238,552.34,245.84,556,242.9Z" style="fill:#406325;stroke:#24420e;stroke-width:0.164000004529953px"/><path d="M408.24,238c-3.37-3.69,3.85-14.12,19.61-18.41-11.11,8.68-19.47,16.71-19.61,18.41Z" style="fill:#67923d;stroke:#24420e;stroke-width:0.164000004529953px"/><path d="M556,242.9c-3.71,3-12.9-4.81-15.71-20.42C547.6,233.92,554.47,242.63,556,242.9Z" style="fill:#67923d;stroke:#24420e;stroke-width:0.164000004529953px"/><path d="M451.82,318.7s-6.25.68-8-8.09c-1.87-9.39,5.38-10.38,5.38-10.38s8.22-.81,13.34-.94l2.27,18.55-13,.87Z" style="stroke:#999270;stroke-width:0.164000004529953px;fill:url(#a)"/><path d="M452.64,315.87s-4,.79-4.87-5.74c-.59-4.62,2.22-5.28,2.22-5.28l9.37,1.62.05,8.51-6.76.88Z" style="stroke:#999270;stroke-width:0.164000004529953px;fill:url(#b)"/><path d="M450,304.86s6-.44,9.12-.86l1.3,5.9-7.2.46S452.7,305,450,304.86Z" style="stroke:#999270;stroke-width:0.164000004529953px;fill:url(#c)"/><path d="M448.72,300.38s7.68-1.92,8.64,6.7c.25,2.25-1,7.4-4.72,8.8l14.07-1.5-1.27-15.5-4.74.4s-10.06.35-12,1.11Z" style="stroke:#999270;stroke-width:0.164000004529953px;fill:url(#d)"/><path d="M451.81,318.7s52.64-3.61,58-3.38c16-8.92-.08-44-13.53-63.56,1.54-4.42-30.28-14.35-44.67-13.45-1.81.11-3.55.23-5.23.37-7.8.84-7.89,11-4.7,17.48,3.09,6.24,30.74,56.95,11.3,62.31l-1.19.24Z" style="fill:#f9f0aa;stroke:#999270;stroke-width:0.164000004529953px"/><path d="M508.18,272.47a153.94,153.94,0,0,0-11.88-20.71c1.54-4.42-30.28-14.35-44.67-13.45-1.81.11-3.55.23-5.23.37-7.8.84-7.89,11-4.7,17.48,1,2,4.36,8.3,8,16.25" style="stroke:#999270;stroke-width:0.164000004529953px;fill:url(#e)"/><path d="M454.69,284.46c5.63,15.13,8.79,31.11-1.66,34l-1.19.24s52.64-3.61,58-3.38c8.66-4.84,7.9-17.36,3.25-30.93" style="stroke:#999270;stroke-width:0.164000004529953px;fill:url(#f)"/><path d="M446.94,241.63c-3.76,0-4.72,3.68-4.67,6,.14,6.1,4.67,6.4,4.67,6.4l6-.34,2.9-12.56-8.95.5Z" style="stroke:#999270;stroke-width:0.164000004529953px;fill:url(#g)"/><path d="M446.94,241.67l8.95-.5.92,9.39-7.8.35s2.53-7.51-2.06-9.23Z" style="stroke:#999270;stroke-width:0.164000004529953px;fill:url(#h)"/><path d="M496.35,251.76c6.78-1.11,6.69-10.4,2.05-14.12a505,505,0,0,0-51.35,1c1.7,0,6.43.39,7,6.73a8.53,8.53,0,0,1-3.1,7.22,6.94,6.94,0,0,1-4,1.51,25.17,25.17,0,0,0,3.65-.09c.75-.05,2.59-.27,3.1-.34a272.73,272.73,0,0,1,42.58-1.88h.08Z" style="stroke:#999270;stroke-width:0.164000004529953px;fill:url(#i)"/><path d="M458.17,266.35c-.15-.34-.33-.77-.74-.83-.25,0-.66-.05-.58-.4a2.35,2.35,0,0,1,.81-.07c.57,0,1.13-.12,1.69-.15.34.1.26.56-.11.48-.41.1-.18.58-.08.84.45,1.07.88,2.14,1.35,3.21a.94.94,0,0,0,.73.63,2.05,2.05,0,0,0,1.11-.12c.32-.21.25-.64.2-1s.55-.29.5,0c.13.44.28.88.45,1.31,0,.21-.28.15-.43.17-1,.08-2,.14-3,.23-.32,0-.81.29-1-.1s.52-.17.6-.48a3,3,0,0,0-.31-.95l-1.19-2.84Z" style="fill:#b07e09"/><path d="M463.06,266c-.14-.33-.31-.74-.7-.82s-.66,0-.62-.39c.16-.17.46-.06.68-.1a14.08,14.08,0,0,0,1.78-.15c.29,0,.4.54,0,.46s-.39.42-.24.67c.48,1.18,1,2.35,1.46,3.53.11.25.24.57.55.61s.66,0,.71.33-.44.12-.64.17a6.56,6.56,0,0,0-1.58.12c-.23.07-.56,0-.57-.28s.59-.07.62-.41a4.29,4.29,0,0,0-.33-1L463.06,266Z" style="fill:#b07e09"/><path d="M467.59,266.73c.09.23.41.07.59.08a.53.53,0,0,0,.53-.53,1.75,1.75,0,0,0-.64-1.22,1.63,1.63,0,0,0-1.19-.17c0,.16.1.31.15.47l.56,1.37Zm.68,1.65a3.28,3.28,0,0,0,.57,1.05,1.22,1.22,0,0,0,.86.07.47.47,0,0,0,.39-.63,1.82,1.82,0,0,0-1.26-1.48,2.42,2.42,0,0,0-.93,0c0,.15.09.3.14.44l.23.55Zm-2.06-2.45c-.16-.36-.31-.79-.7-1s-.65,0-.71-.33.57-.09.81-.17a8,8,0,0,1,2.63,0,1.93,1.93,0,0,1,1.47,1.64,1,1,0,0,1-.59.87c0-.14.37.06.51.08a2.27,2.27,0,0,1,1.4,1.18,1.27,1.27,0,0,1,0,1.36,2,2,0,0,1-1.46.45,13.18,13.18,0,0,0-2.28.18c-.27,0-.46-.5-.09-.46s.41-.43.25-.69l-1.29-3.15Z" style="fill:#b07e09"/><path d="M473.72,264c.33-.06.36.33.46.55s.28.56.35.86c-.28.29-.51-.15-.63-.37a.78.78,0,0,0-.7-.47,8.27,8.27,0,0,0-1.24.07c-.15.16.07.41.11.6.19.46.37.93.57,1.38.27,0,.63,0,.82-.21s-.27-.77.21-.66c.3.18.27.62.42.91s.39.75.5,1.15c-.27.3-.53-.13-.63-.38s-.63-.32-1-.31-.08.18,0,.29a13.56,13.56,0,0,0,.67,1.52c.21.35.66.3,1,.29s.74,0,.94-.35-.28-.78.13-.86.34.39.44.63.19.57.29.85-.28.14-.43.17c-1,.07-2.07.11-3.1.2-.3,0-.82.25-.91-.2,0-.3.66-.14.56-.56a7.42,7.42,0,0,0-.38-1c-.38-.93-.74-1.86-1.14-2.78-.14-.31-.37-.64-.74-.65s-.61-.13-.47-.42c.35-.07.72,0,1.08-.06l2.81-.17Z" style="fill:#b07e09"/><path d="M476.07,265.33c-.16-.36-.31-.79-.69-1s-.74,0-.71-.41c.25-.2.67,0,1-.09a7.77,7.77,0,0,1,2.44,0,2.2,2.2,0,0,1,1.59,1.9.92.92,0,0,1-.69.89c-.3,0,.23.1.31.2a3.49,3.49,0,0,1,1.43,1.52c.08.23.53.72.59.25s.65-.08.49.27a.65.65,0,0,1-.69.6,1.26,1.26,0,0,1-1.15-.64,8.53,8.53,0,0,0-1.28-1.72.88.88,0,0,0-.84-.16c-.06.14.07.29.11.43a9,9,0,0,0,.55,1.26,1,1,0,0,0,.94.37c.36.09.26.59-.13.45a8.41,8.41,0,0,0-1.78.08c-.27.13-.88,0-.66-.38.29,0,.68-.18.49-.54-.34-.9-.71-1.79-1.06-2.68l-.26-.65Zm1.42.92c.14.34.6.15.87.12s.35-.52.24-.8c-.16-.48-.38-1.06-.9-1.23-.27,0-.86-.21-.9.16.19.55.43,1.09.64,1.64l.05.13Z" style="fill:#b07e09"/><path d="M484.81,268c.11.27.22.63.55.68s.67,0,.73.34-.45.11-.65.15a7.08,7.08,0,0,0-1.63.09c-.23.07-.56,0-.53-.33s.66,0,.63-.42a9.17,9.17,0,0,0-.42-1.19l-1.16-3c-.1-.31-.45-.31-.71-.29s-.69.06-.69.43.22.64,0,.76-.37-.28-.43-.5-.26-.64-.39-1c0-.22.33-.18.5-.2l4.19-.18a.47.47,0,0,1,.52.49,10,10,0,0,0,.42,1c-.11.34-.52,0-.56-.2a1.24,1.24,0,0,0-1-.73c-.26,0-.65-.09-.83.15a2.58,2.58,0,0,0,.22.7l1.24,3.19Z" style="fill:#b07e09"/><path d="M488.59,267.08c-.19,0-.1.25-.12.38a7.23,7.23,0,0,0,0,.88c.13.32.53.24.8.33s.18.52-.14.4a4.2,4.2,0,0,0-1.29,0c-.25.14-.72-.13-.5-.4.2,0,.46-.1.5-.35a9.52,9.52,0,0,0,0-1.3q0-1.92,0-3.84c.12-.29.52,0,.61.17,1.21,1.57,2.4,3.14,3.64,4.68a1.1,1.1,0,0,0,.78.43c.26,0,.41.55,0,.44a6.84,6.84,0,0,0-1.56,0c-.23,0-.5.12-.71,0s-.07-.45.2-.42,0-.49-.12-.67-.38-.53-.6-.78c-.17-.09-.38,0-.57,0l-1.07,0Zm1.19-.53c.18,0-.06-.16-.09-.24l-1.29-1.72c.09,0,0,.18,0,.26,0,.58,0,1.16,0,1.74l1.34,0Z" style="fill:#b07e09"/><path d="M492.88,264.65c-.15-.41-.35-.92-.83-1-.25,0-.71-.18-.46-.45.56,0,1.12,0,1.68,0a4.74,4.74,0,0,1,2.11.21,4.46,4.46,0,0,1,3,3.43,1.66,1.66,0,0,1-.63,1.7,4.06,4.06,0,0,1-2.51.34,9.61,9.61,0,0,0-1.42.09c-.31,0-.34-.53,0-.47s.37-.44.23-.69l-1.15-3.13Zm2,2.58a2.12,2.12,0,0,0,.57,1,1.83,1.83,0,0,0,1,.08.93.93,0,0,0,.73-.94,4.47,4.47,0,0,0-.64-2.19,2.7,2.7,0,0,0-1.87-1.42,3.06,3.06,0,0,0-1-.05c-.07.13.06.28.09.41l1.13,3.1Z" style="fill:#b07e09"/><path d="M473.47,280a1,1,0,0,0,.82.65c.26,0,.71,0,.72.37-.14.24-.54.07-.78.13a8.59,8.59,0,0,0-1.57.1,2.66,2.66,0,0,1-.85.05c-.25-.12-.2-.49.11-.44s.61-.14.63-.46a3.32,3.32,0,0,0-.28-.83c-.39-.95-.77-1.9-1.17-2.84-.09-.33-.45-.34-.73-.29s-.62.13-.69-.23.5-.25.71-.4.63-.26,1-.37.33.16.38.33l1.74,4.24Z" style="fill:#b07e09"/><path d="M474.23,275.39c.69,0,1.39.08,2.08,0,.3,0,.1-.51.39-.49s.32.49.34.76a.53.53,0,0,1-.58.6c-.54,0-1.08-.05-1.62,0,.12.43.29.84.45,1.25,0-.14.47-.16.65-.19a2.82,2.82,0,0,1,2.65,1.59,1.57,1.57,0,0,1,0,1.59,2.06,2.06,0,0,1-1.62.57,1.59,1.59,0,0,1-1.37-.57c-.17-.22-.14-.7.22-.66s.67.27.62.62c.17.23.53.15.79.14a.58.58,0,0,0,.58-.58,2.53,2.53,0,0,0-.46-1.4,1.59,1.59,0,0,0-1.32-.72c-.3-.05-.56.15-.84.15s-.34-.38-.44-.6c-.24-.62-.47-1.24-.66-1.88a.16.16,0,0,1,.18-.18Z" style="fill:#b07e09"/><path d="M481.18,276.44c-.16-.41-.38-.91-.85-1-.25.06-.71-.18-.47-.44.57,0,1.13,0,1.7-.07a4.52,4.52,0,0,1,2.14.18,4.47,4.47,0,0,1,3,3.5,1.63,1.63,0,0,1-.64,1.61,4.14,4.14,0,0,1-2.46.39,9.61,9.61,0,0,0-1.37.13c-.31,0-.36-.52,0-.48s.35-.45.21-.7l-1.23-3.12Zm2.06,2.54a2.16,2.16,0,0,0,.6,1,1.77,1.77,0,0,0,1,.05.93.93,0,0,0,.69-1,4.58,4.58,0,0,0-.7-2.2,2.68,2.68,0,0,0-1.9-1.38,3,3,0,0,0-1,0c-.07.13.07.28.1.42l1.22,3.1Z" style="fill:#b07e09"/><path d="M489.77,274.58c.32-.05.36.3.44.52s.25.57.35.86c-.19.32-.51-.06-.6-.29s-.36-.54-.68-.53a9.61,9.61,0,0,0-1.25,0c-.23.1,0,.4.05.59.19.47.35.94.55,1.4a1.41,1.41,0,0,0,.81-.16c.18-.22-.27-.76.21-.7.33.12.28.59.42.87s.36.77.5,1.18c-.18.34-.55-.06-.6-.31s-.53-.37-.84-.36-.38,0-.23.22a14.48,14.48,0,0,0,.66,1.59c.21.36.66.31,1,.31s.75,0,1-.33-.2-.68.08-.84.42.29.47.54.19.62.29.93-.28.14-.43.16c-1,0-2.09.07-3.13.13-.29,0-.7.21-.88-.12s.51-.19.54-.54a2.45,2.45,0,0,0-.25-.88c-.39-1-.76-2-1.16-3-.14-.32-.37-.68-.75-.7s-.61-.14-.46-.43c.36-.06.74,0,1.11,0l2.82-.11Z" style="fill:#b07e09"/><path d="M462.1,289.34c.15.5.68.71,1.13.84a4.65,4.65,0,0,1,2.18,1.2,2.11,2.11,0,0,1,.5,1.39,1.22,1.22,0,0,1-.94,1,2.48,2.48,0,0,1-1.76-.1c-.27-.12-.17.48-.5.28s-.17-.58-.3-.84a9.44,9.44,0,0,0-.39-1c0-.34.49-.16.5.1a2,2,0,0,0,1.66,1.16c.36,0,.82-.19.85-.6a1.46,1.46,0,0,0-.88-1.22c-.65-.34-1.39-.45-2-.84a2,2,0,0,1-1-1.66,1.07,1.07,0,0,1,.78-.93,2.62,2.62,0,0,1,1.59-.06c.24.13.35-.28.6-.08s.09.48.2.69.28.55.34.85c-.16.25-.47,0-.52-.21-.22-.38-.52-.8-1-.83a1.07,1.07,0,0,0-1,.3.62.62,0,0,0,0,.53Z" style="fill:#b07e09"/><path d="M468.89,287.63c.33-.06.34.32.42.55s.21.54.29.82c-.14.3-.5,0-.54-.22s-.34-.59-.68-.57a9.6,9.6,0,0,0-1.24.08c-.23.1,0,.4,0,.59.16.47.3.94.47,1.4a1.45,1.45,0,0,0,.81-.19c.2-.21-.2-.62.14-.72s.35.46.44.71c.1.46.34.88.47,1.33-.15.33-.54,0-.56-.26a.7.7,0,0,0-.8-.38c-.18,0-.43,0-.28.22.18.52.32,1.06.56,1.56a.68.68,0,0,0,.74.33,1.72,1.72,0,0,0,1.17-.29c.25-.24,0-.6.1-.88.25-.21.53.07.51.35a10.17,10.17,0,0,0,.27,1.05c0,.21-.3.15-.45.18-1,.08-2.07.14-3.1.24-.28,0-.69.24-.87-.09s.46-.21.55-.52-.1-.59-.17-.88c-.34-1-.66-2-1-3-.12-.32-.33-.68-.71-.68s-.6-.14-.44-.42c.35-.07.72,0,1.08-.07l2.81-.2Z" style="fill:#b07e09"/><path d="M473.12,291.91a.92.92,0,0,0,.62.72c.25.09.67-.08.74.3s-.5.15-.72.21a6.26,6.26,0,0,0-1.54.11c-.22,0-.55.11-.62-.2s.47-.15.58-.41a1.44,1.44,0,0,0-.14-.79c-.34-1-.67-2.08-1-3.12-.12-.3-.27-.7-.64-.73s-.64,0-.57-.38c.18-.17.49-.05.72-.09.74,0,1.47-.2,2.21-.15a2,2,0,0,1,1.76,1.27,1.32,1.32,0,0,1-.08,1.32,2.4,2.4,0,0,1-1.6.64c-.21,0,0,.2,0,.31l.32,1Zm-.58-1.78a1.81,1.81,0,0,0,.69-.09.57.57,0,0,0,.4-.72,2.33,2.33,0,0,0-.55-1.21,1.25,1.25,0,0,0-1.13-.17c-.14.13,0,.33,0,.49l.56,1.7Z" style="fill:#b07e09"/><path d="M478.78,291.61c.09.26.17.63.5.67s.67,0,.7.33-.45.12-.65.16a7.06,7.06,0,0,0-1.63.12c-.23.08-.56,0-.5-.32s.66-.05.65-.43a8.37,8.37,0,0,0-.33-1.17c-.32-1-.64-2-1-3-.08-.32-.44-.3-.69-.28s-.63,0-.7.36,0,.55,0,.8c-.24.17-.47-.09-.46-.34a6.89,6.89,0,0,0-.35-1c0-.25.31-.23.49-.24L479,287c.3-.06.5.19.49.49a9.16,9.16,0,0,0,.35,1c-.07.29-.49.13-.51-.12-.18-.37-.45-.76-.89-.79a1.35,1.35,0,0,0-.87.13c-.05.21.08.42.13.62l1.06,3.3Z" style="fill:#b07e09"/><path d="M480.91,288.21c-.11-.32-.22-.72-.58-.82s-.66,0-.63-.37c.1-.22.42-.08.62-.12a12.38,12.38,0,0,0,1.81-.12c.27-.12.49.43.15.43s-.55.19-.45.49c.13.55.33,1.08.49,1.62.24.76.47,1.52.73,2.27a.58.58,0,0,0,.51.46c.24,0,.67,0,.6.39-.18.16-.49.06-.72.08a7.79,7.79,0,0,0-1.63.12c-.24.1-.54-.14-.4-.39s.66,0,.63-.4a12.63,12.63,0,0,0-.36-1.24l-.76-2.41Z" style="fill:#b07e09"/><path d="M486.76,286.56c.32-.06.34.31.41.53s.2.56.28.84c-.15.29-.5,0-.54-.23s-.33-.59-.68-.58a9.62,9.62,0,0,0-1.25.05c-.23.1,0,.4,0,.59.15.47.28.94.45,1.4a1.45,1.45,0,0,0,.82-.17c.2-.2-.18-.63.16-.71s.34.46.43.71c.09.46.32.88.45,1.33-.12.3-.53,0-.54-.22a.67.67,0,0,0-.75-.44c-.15,0-.51-.08-.36.18.18.53.31,1.08.54,1.6a.69.69,0,0,0,.73.35,1.74,1.74,0,0,0,1.18-.27c.25-.23.05-.6.11-.87.26-.2.53.08.5.36a9.87,9.87,0,0,0,.25,1.05c0,.2-.28.14-.44.16-1,.06-2.09.1-3.14.18-.28,0-.65.21-.85-.07s.39-.26.51-.5,0-.57-.11-.84c-.33-1-.64-2.06-1-3.08-.11-.33-.32-.73-.71-.74-.24.05-.6-.15-.43-.42.35-.07.71,0,1.07-.05l2.85-.15Z" style="fill:#b07e09"/><path d="M488.78,287.55a.7.7,0,0,0-.74-.64c-.38.1-.51-.59,0-.44a7,7,0,0,1,1.55,0c.25.27.45.59.67.89l2.2,3c-.16,0,0-.19-.05-.31l.36-3.66c.28-.23.74-.14,1.09-.21s.94-.14.76.36c-.34.06-.78.23-.54.67.36,1.24.75,2.47,1.13,3.7.07.43.5.56.87.54s.34.58,0,.44a8.39,8.39,0,0,0-1.8.07c-.27.09-.83.06-.65-.37.3-.06.81-.15.59-.59-.32-1.1-.67-2.18-1-3.28.07.1,0,.26,0,.39-.1,1-.23,2-.3,3.07,0,.27,0,.59-.07.82s-.39-.12-.51-.29l-2.9-3.82c.1,0,.09.22.14.3.31,1,.6,2,.92,3a.8.8,0,0,0,.86.52c.38.2.1.57-.23.42a5.81,5.81,0,0,0-1.51.09c-.32,0-.33-.53,0-.46s.33-.54.22-.83l-1-3.38h0Z" style="fill:#b07e09"/><path d="M497.65,288.43c.06.23.37.08.53.1s.63-.18.64-.51a1.58,1.58,0,0,0-.51-1.23,1.61,1.61,0,0,0-1.18-.2c0,.15.06.31.09.47Zm.49,1.65a2.92,2.92,0,0,0,.46,1.06c.24.19.58.11.85.09a.49.49,0,0,0,.47-.52,1.71,1.71,0,0,0-.92-1.54,2.4,2.4,0,0,0-1.08-.09c-.11.1,0,.3.05.44l.17.57Zm-1.8-2.48c-.12-.36-.23-.8-.59-1s-.65,0-.67-.35.55-.08.78-.14a8.54,8.54,0,0,1,2.7.07,1.74,1.74,0,0,1,1.3,1.61,1,1,0,0,1-.7.89c0-.14.37.07.51.1a2,2,0,0,1,1.24,1.13,1.34,1.34,0,0,1,0,1.37,1.94,1.94,0,0,1-1.47.46,14.44,14.44,0,0,0-2.4.12c-.29,0-.4-.52,0-.46s.47-.39.33-.68l-.94-3.15Z" style="fill:#b07e09"/><path d="M501.42,287.41c-.12-.36-.22-.8-.59-1s-.7,0-.67-.38c.2-.26.67,0,1-.11a17.09,17.09,0,0,1,2.06,0A2.06,2.06,0,0,1,505,287.4a1,1,0,0,1-.36,1.23c-.09.1-.53.2-.45.2a2.74,2.74,0,0,1,1.43,1.31,3.73,3.73,0,0,0,.47.82c.27.2.3-.17.35-.34.36-.18.54.33.39.6a.86.86,0,0,1-1.08.42,1.19,1.19,0,0,1-.77-.67,7.67,7.67,0,0,0-1-1.66.87.87,0,0,0-.86-.2c-.08.14,0,.3.06.44a9.7,9.7,0,0,0,.39,1.21.92.92,0,0,0,.89.42c.33,0,.35.58,0,.44a9.92,9.92,0,0,0-1.86,0c-.22,0-.54.14-.68-.1-.22-.43.42-.24.57-.48a1.64,1.64,0,0,0-.13-.86l-.82-2.8Zm1.33.95c.1.34.56.15.82.15a.5.5,0,0,0,.4-.62,2.15,2.15,0,0,0-.56-1.3,1.42,1.42,0,0,0-1.1-.17c-.16.13,0,.35,0,.52l.41,1.41Z" style="fill:#b07e09"/><path d="M509.74,285.74c.32-.05.33.31.39.53s.19.57.26.86c-.14.27-.49,0-.52-.21s-.3-.61-.63-.63a9.47,9.47,0,0,0-1.3,0c-.24.09,0,.4,0,.58.14.47.25.94.4,1.41a1.82,1.82,0,0,0,.79-.11c.29-.16-.11-.61.19-.72s.37.41.43.66a14.36,14.36,0,0,0,.42,1.39c-.13.29-.54,0-.53-.24a.65.65,0,0,0-.68-.45c-.14,0-.56-.12-.44.14.16.54.28,1.1.49,1.62a.7.7,0,0,0,.73.37,1.77,1.77,0,0,0,1.2-.22c.26-.22.07-.59.15-.86.26-.19.53.09.49.37a9.8,9.8,0,0,0,.22,1.05c-.05.2-.3.13-.46.15-1.05,0-2.11,0-3.16.07-.27,0-.62.16-.83-.06-.27-.39.3-.31.48-.48s0-.53,0-.78c-.3-1.06-.59-2.12-.9-3.17-.1-.32-.27-.7-.65-.75s-.62-.1-.49-.42a4.32,4.32,0,0,1,1,0l3-.05Z" style="fill:#b07e09"/><path d="M476.45,299.3c-.09-.38-.22-.88-.65-1-.24,0-.65-.06-.51-.41a4.38,4.38,0,0,1,1-.08,7.78,7.78,0,0,1,2.5,0,3.62,3.62,0,0,1,2.62,2.45,2.59,2.59,0,0,1-.23,2.31,2.78,2.78,0,0,1-2.24.89,8.7,8.7,0,0,0-1.87.12c-.24.15-.64-.1-.43-.37.26-.08.68-.15.6-.53-.1-.53-.25-1.05-.37-1.58l-.43-1.8Zm1.66,2.52a2,2,0,0,0,.41,1,1.53,1.53,0,0,0,.93.07,1.13,1.13,0,0,0,.9-1,4.11,4.11,0,0,0-.38-2.3,2.11,2.11,0,0,0-1.47-1.25,3,3,0,0,0-1.17,0c-.09.12,0,.28,0,.42l.75,3.09Z" style="fill:#b07e09"/><path d="M485.27,297.25c.32-.06.31.31.37.53s.16.56.22.84c-.13.27-.49.06-.51-.19s-.27-.6-.6-.6a9.21,9.21,0,0,0-1.29.06c-.24.09,0,.4,0,.59.12.47.21.94.34,1.4a1.54,1.54,0,0,0,.83-.18c.22-.19-.13-.64.21-.71s.31.46.37.71c.05.46.26.88.35,1.33-.12.29-.54.06-.52-.22a.61.61,0,0,0-.71-.43c-.15,0-.5-.08-.38.18a15.85,15.85,0,0,0,.42,1.6c.1.3.44.36.71.34a1.7,1.7,0,0,0,1.24-.32c.25-.23,0-.62.17-.86s.49.15.45.42a9.43,9.43,0,0,0,.16,1c-.06.21-.31.15-.47.17-1,.07-2.08.12-3.12.2-.26,0-.56.16-.79,0s.1-.42.33-.45.26-.46.19-.7c-.27-1.12-.52-2.23-.79-3.35-.08-.31-.24-.7-.61-.73s-.61-.08-.47-.4a4.13,4.13,0,0,1,1-.08l3-.18Z" style="fill:#b07e09"/><path d="M491.86,301.48a.75.75,0,0,0,.6.64c.24.1.61,0,.74.25s-.39.24-.6.26a10.09,10.09,0,0,0-1.74.07,5,5,0,0,1-.87.07.24.24,0,0,1,.15-.46c.27-.06.64-.13.72-.46a2.8,2.8,0,0,0-.13-.81c-.22-1-.43-1.91-.65-2.85,0-.34-.39-.35-.64-.3s-.6.17-.67-.17.47-.28.68-.42c.37-.13.74-.28,1.12-.39.21,0,.31.16.32.33l1,4.25Z" style="fill:#b07e09"/><path d="M495.6,298.05c-.07-.38-.28-.81-.7-.87a.66.66,0,0,0-.79.35,1,1,0,0,0,.37,1.06,5.29,5.29,0,0,0,.91.47,1.31,1.31,0,0,0,.24-.58,1.52,1.52,0,0,0,0-.44Zm.85,3a1.53,1.53,0,0,0-1-1c-.19,0-.45-.29-.57-.18a1.09,1.09,0,0,0-.32,1.14,1.25,1.25,0,0,0,1,1,.78.78,0,0,0,.88-.49,1,1,0,0,0,0-.53Zm.9-.22a1.26,1.26,0,0,1-.48,1.34,2.39,2.39,0,0,1-2,.24,1.71,1.71,0,0,1-1.2-1.32,1.27,1.27,0,0,1,.52-1.35c.1-.1.49-.15.18-.22a1.88,1.88,0,0,1-1.11-1.26,1.2,1.2,0,0,1,.56-1.32,2,2,0,0,1,2.62.7,1.18,1.18,0,0,1,0,1.26,1,1,0,0,1-.57.46,2.1,2.1,0,0,1,1.24.82,1.74,1.74,0,0,1,.29.66Z" style="fill:#b07e09"/><path d="M500.66,301.4a.51.51,0,0,0,.55-.41c.09-.2-.08-.64.26-.61s.28.39.31.62a1.34,1.34,0,0,1-.35,1.17,1.54,1.54,0,0,1-.85.1,11.42,11.42,0,0,0-1.71-.08c-.24,0-.5.3-.73.1s-.08-.54,0-.79a3.67,3.67,0,0,1,1.12-1.59,2,2,0,0,0,.77-1.17,2,2,0,0,0-.3-1.23,1.05,1.05,0,0,0-1.42-.33.58.58,0,0,0-.23.77c.21.17.61,0,.71.37a.41.41,0,0,1-.31.61.92.92,0,0,1-1-.71,1.25,1.25,0,0,1,.5-1.45,2.21,2.21,0,0,1,1.71-.18,1.75,1.75,0,0,1,1.23,1.18,1.66,1.66,0,0,1-.08,1.38c-.38.74-1.17,1.11-1.68,1.73a.67.67,0,0,0-.19.6c.08-.21.4-.14.59-.17.35,0,.7.08,1,.07Z" style="fill:#b07e09"/><path d="M504.65,301a.75.75,0,0,0,.59.65c.23.1.58,0,.73.23s-.34.29-.54.28a10.67,10.67,0,0,0-1.8,0,5,5,0,0,1-.88,0,.24.24,0,0,1,.16-.45c.27-.05.64-.12.73-.44a2.79,2.79,0,0,0-.11-.81c-.2-1-.39-1.91-.59-2.86,0-.29-.32-.36-.55-.32s-.57.17-.72-.1.35-.36.56-.45c.41-.13.82-.29,1.24-.4.21,0,.3.16.32.34l.87,4.25Z" style="fill:#b07e09"/><path d="M475.74,216.76l-3.82,4.63c-1.22,5.41,1.81,9.49,7.76,13,4.82,3,13.74,3.81,16.56,1.35l-13.91-13.5-6.58-5.51Z" style="stroke:#4c0505;stroke-width:0.21799999475479126px;fill:url(#j)"/><path d="M503.91,356.07l-2.06-2.5c-8.68,11.67-19.52,22.14-33.08,29.52,15.29-4.41,25.3-15.76,35.14-27Z" style="fill:#448127;stroke:#34541f;stroke-width:0.21799999475479126px"/><path d="M488.26,393c5.39-11.13,11.9-22.26,18.46-33.38q-1.07-1.36-2.17-2.72c-7.46,12.59-16.21,27.56-16.29,36.11Z" style="fill:#448127;stroke:#34541f;stroke-width:0.21799999475479126px"/><path d="M530.58,274.68a65.46,65.46,0,0,0-4.37-13.49c-2.69-5.61-6.72-11.19-12-17.36-9.52-10.51-19-20.66-32.38-28.15l.07-.14.08,0h.17l-.16-.21h.48l-.26-.26h.44l-.36-.41h.47l-.33-.34h.5l-.28-.38.4,0-.38-.4.56-.11-.45-.29.49-.09-.41-.28.59-.19-.52-.32.66-.3-.64-.47.68-.24-.74-.31.62-.33-.73-.13.5-.58-.71,0,.32-.62-.68.06,0-.06.37-.46-.68.12.3-.63-.66.34.19-.73-.64.45.1-.74-.59.51.06-.71-.52.55,0-.75-.51.63-.05-.74-.41.58-.21-.7-.34.7-.17-.74-.32.74-.16-.74-.28.74-.21-.7-.22.7-.16-.61-.24.74-.23-.7-.24.8-.3-.71-.13.85-.36-.69,0,.82-.39-.62,0,.81-.41-.59,0,.71-.44-.38.22.77-.53-.32.2.67-.44-.25.16.65-.4-.13.21.49,0,.07-.31-.06.18.38h0a9.49,9.49,0,0,0-.36,3.63c0,.24.6.48.7.63a1,1,0,0,1,.23.68c-1.61,2.67-3.06,4.72-3.22,7.78,1.3-1.67,2.64-3.72,4.52-3.72-.93,1.59-1.38,6.38-.33,7.1l.78-1.4a7.08,7.08,0,0,0,.39,2.4,15.91,15.91,0,0,1,1-1.8,7.24,7.24,0,0,0,.71,3.42,4.58,4.58,0,0,1,1.64-1.62,7.26,7.26,0,0,0-.39,2.79,16.58,16.58,0,0,1,2-2.6c-.38,1.64,0,2.86.42,4.67.41-2.14.57-2.37,1.54-3.27.11,2-.26,3.75.14,4.85.89-1.73,1.48-1.48,2-2.6-.1,1.63-.43,3.4,0,4.86a4.62,4.62,0,0,1,2-2.76c.06,2.27.57,1.9-.81,3.82.59.27,2.58-.39,3.66-.86-.52,1.22-.37,2.17-.89,3a12,12,0,0,0,2.94-2.4c-.42,1.4-1.55,2.79-1,4.19a3.3,3.3,0,0,1,2.27-2.58c-.15.73-.26,2.25-1.29,3,2.48.26,3.46-1.44,4.7-2.79-.16,1.4-.12,2.52,1.57,4.5-.34-2.51.24-2,1.36-3.5.54,2.22,1.16,4.58,3.43,6.21-.94-2.34-1.12-3.55-.58-5,.29,1.52,1.71,3.36,2,4.8a14.16,14.16,0,0,1,1-4.19,21.32,21.32,0,0,1,1.37,5.78,17.92,17.92,0,0,0,1.18-3.19c20,21.3,24.48,48.39,2.55,77,7.88-5.42,9.91-14,14.29-21.34-4.27,9.59-6.18,20.39-13.7,28.33,7.29-6.41,8.84-12.28,13.22-18.45-4.67,12.91-11.14,27.06-20.1,40q2.39,2.65,4.79,5.36,2.09-3.54,4.15-7.07c9.5-15.95,25-38.74,17.15-73.5Z" style="fill:#448127;stroke:#34541f;stroke-width:0.21799999475479126px"/><path d="M473.06,212.5a3.62,3.62,0,0,0-2.14,1.49,12.44,12.44,0,0,0,2.56.27c.26,0,.35-.36.29-.6l-.13-1c0-.22-.61-.21-.89-.09l.31-.08Z" style="fill:#eac102;stroke:#a08307;stroke-width:0.21799999475479126px"/><path d="M470.91,214a9.88,9.88,0,0,1,1.07-.31,9.78,9.78,0,0,1,1.09-.2,10.93,10.93,0,0,1-2.16.51Z" style="fill:#a08307"/><ellipse cx="477.65" cy="212.63" rx="0.79" ry="0.84" style="stroke:#000;stroke-width:0.09799999743700027px"/><ellipse cx="477.83" cy="212.47" rx="0.34" ry="0.36" style="fill:url(#k)"/><path d="M488.3,392.66q.71-2.32,1.55-4.59t1.81-4.49c1.28-3,2.7-5.86,4.19-8.71s3.09-5.65,4.73-8.42q1.23-2.08,2.49-4.14l2.55-4.1-2.45,4.16q-1.23,2.08-2.43,4.17c-1.61,2.79-3.19,5.59-4.68,8.44s-2.93,5.73-4.23,8.68q-1,2.21-1.86,4.46T488.3,392.66Z" style="fill:#34541f"/><path d="M469.19,382.88q2.52-1.14,5-2.45t4.77-2.79a73.14,73.14,0,0,0,8.86-6.63,86.63,86.63,0,0,0,7.87-7.82q1.85-2.07,3.61-4.24t3.45-4.37q-1.65,2.25-3.36,4.44t-3.56,4.28a83.82,83.82,0,0,1-7.85,7.87,71,71,0,0,1-8.91,6.6q-2.35,1.46-4.81,2.74t-5,2.36Z" style="fill:#34541f"/><path d="M507,352.58c.78-1.11,1.51-2.26,2.23-3.4s1.44-2.31,2.13-3.47q2.08-3.5,4-7.09c1.3-2.38,2.56-4.8,3.8-7.22l3.73-7.26-1.77,3.68-1.81,3.66q-1.82,3.65-3.76,7.24c-1.31,2.39-2.64,4.76-4.06,7.07s-2.89,4.6-4.51,6.79Z" style="fill:#34541f"/><path d="M513,326.64a60.27,60.27,0,0,0,4.76-6.63,62.56,62.56,0,0,0,3.86-7.2,75.94,75.94,0,0,0,5-15.57q.22-1,.42-2c.11-.67.21-1.35.3-2q.27-2,.41-4.08a57,57,0,0,0,0-8.2,53.2,53.2,0,0,0-1.26-8.1A55.87,55.87,0,0,0,524,265a56,56,0,0,1,2.54,7.8,53,53,0,0,1,1.3,8.12,57.12,57.12,0,0,1,.07,8.23q-.13,2.06-.39,4.1c-.09.68-.18,1.36-.29,2s-.27,1.34-.41,2a76.05,76.05,0,0,1-5.13,15.58,62.2,62.2,0,0,1-3.91,7.2,60.07,60.07,0,0,1-4.85,6.57Z" style="fill:#34541f"/><path d="M511.31,320.74a37,37,0,0,0,5-6,54,54,0,0,0,3.85-6.84c1.13-2.37,2.13-4.8,3.07-7.25q.71-1.84,1.38-3.69l.34-.93c.11-.31.2-.62.3-.93.19-.63.36-1.26.59-1.89v0a43.77,43.77,0,0,0,.82-7.92,48.21,48.21,0,0,0-.58-8,60.77,60.77,0,0,0-1.76-7.78c-.74-2.56-1.62-5.07-2.59-7.54,1,2.46,1.92,5,2.69,7.51a60.46,60.46,0,0,1,1.8,7.79,48.3,48.3,0,0,1,.62,8,43.57,43.57,0,0,1-.79,8h0c-.22.61-.4,1.25-.59,1.87-.1.32-.19.63-.31.94l-.34.92c-.46,1.23-.92,2.46-1.4,3.69-1,2.45-2,4.88-3.11,7.24a53.52,53.52,0,0,1-3.89,6.84,37,37,0,0,1-5.05,6Z" style="fill:#34541f"/><path d="M505.41,350.86q1.83-2.57,3.62-5.16l1.8-2.59c.6-.87,1.22-1.71,1.76-2.62,1.08-1.8,2-3.69,2.94-5.59s1.85-3.79,2.75-5.7c1.81-3.81,3.55-7.65,5-11.6a78.87,78.87,0,0,0,3.5-12.15c.86-4.14,1.44-8.33,1.91-12.53a61.39,61.39,0,0,0,0-12.65A54.94,54.94,0,0,0,526,267.95a75.72,75.72,0,0,0-5.17-11.53,75.64,75.64,0,0,1,5.27,11.49,55,55,0,0,1,2.81,12.35,61.59,61.59,0,0,1,0,12.69c-.46,4.21-1,8.41-1.88,12.55a79.1,79.1,0,0,1-3.54,12.17c-1.5,4-3.26,7.79-5.08,11.6-.91,1.9-1.85,3.79-2.77,5.69s-1.87,3.79-3,5.59c-.54.91-1.18,1.75-1.78,2.61l-1.82,2.57c-1.22,1.72-2.43,3.43-3.67,5.13Z" style="fill:#34541f"/><path d="M508.2,354c2.4-4,4.78-7.93,7.05-12s4.55-8.07,6.56-12.25a85.53,85.53,0,0,0,5.07-12.94q1-3.34,1.68-6.76.35-1.71.6-3.43t.48-3.45a108.47,108.47,0,0,0,.94-13.9,76.81,76.81,0,0,0-1.22-13.87,60.29,60.29,0,0,0-4-13.29,56,56,0,0,0-7.06-11.91,56.05,56.05,0,0,1,7.15,11.87,60.29,60.29,0,0,1,4.08,13.31,77,77,0,0,1,1.26,13.89,108.24,108.24,0,0,1-.9,13.93q-.22,1.73-.49,3.46c-.17,1.15-.38,2.3-.61,3.44q-.7,3.42-1.7,6.77a85.72,85.72,0,0,1-5.11,12.95c-2,4.18-4.3,8.22-6.6,12.24s-4.72,8-7.15,11.91Z" style="fill:#34541f"/><path d="M480,218.16a7.94,7.94,0,0,1,1.44.12,14.24,14.24,0,0,1,1.41.3,18.89,18.89,0,0,1,2.72,1,26.1,26.1,0,0,1,5,3,36.55,36.55,0,0,1,4.32,3.91q1,1.06,1.93,2.19c.62.75,1.21,1.52,1.78,2.31-.61-.76-1.22-1.51-1.87-2.24s-1.29-1.45-2-2.14a38.58,38.58,0,0,0-4.33-3.85,27.07,27.07,0,0,0-4.91-3,19,19,0,0,0-2.68-1,11.5,11.5,0,0,0-2.82-.53Z" style="fill:#34541f"/><path d="M496.61,229.32a16.21,16.21,0,0,1,4.79,4.58,16,16,0,0,1-8.18-4.8" style="fill:#448127"/><path d="M496.61,229.32a14.6,14.6,0,0,1,1.4.91q.67.5,1.3,1.06a13.42,13.42,0,0,1,1.18,1.2,10.65,10.65,0,0,1,1,1.36l.14.22-.25-.06a14.55,14.55,0,0,1-2.3-.74,15.8,15.8,0,0,1-2.17-1.07,14,14,0,0,1-3.69-3.11,15.42,15.42,0,0,0,3.77,3,18.37,18.37,0,0,0,2.16,1,14.41,14.41,0,0,0,2.27.71l-.11.17a11.5,11.5,0,0,0-1-1.34,16.49,16.49,0,0,0-1.14-1.21c-.4-.39-.82-.75-1.25-1.1s-.87-.69-1.33-1Z" style="fill:#34541f"/><path d="M489.72,228.41s7.33,4.76,8.39,5.14a11.31,11.31,0,0,0-5.12-5.14" style="fill:#448127"/><path d="M489.72,228.41l4.2,2.57,2.1,1.28,1.06.62a10,10,0,0,0,1.07.57l-.13.15a11.07,11.07,0,0,0-.94-1.58,13.29,13.29,0,0,0-1.16-1.43,11,11,0,0,0-1.37-1.22,9.33,9.33,0,0,0-1.56-1,8.48,8.48,0,0,1,1.62.88,10.07,10.07,0,0,1,1.42,1.19,11.76,11.76,0,0,1,2.18,3l.13.26-.26-.11a19.13,19.13,0,0,1-2.17-1.21l-2.09-1.31c-1.38-.89-2.75-1.79-4.1-2.73Z" style="fill:#34541f"/><path d="M492.64,226s3.81,1.65,4.68,4.52c0,0-6.85-2.93-8.07-4.49" style="fill:#448127"/><path d="M492.64,226a10.74,10.74,0,0,1,1.49.75,11,11,0,0,1,1.36,1,7.35,7.35,0,0,1,1.16,1.23,5,5,0,0,1,.78,1.52l.07.23-.22-.09q-1.06-.47-2.11-1c-.7-.33-1.39-.67-2.08-1s-1.36-.74-2-1.15c-.33-.21-.65-.42-1-.65a4.34,4.34,0,0,1-.86-.79,4.69,4.69,0,0,0,.89.74c.32.22.65.42,1,.61.67.39,1.35.75,2,1.09,1.38.68,2.78,1.34,4.2,1.95l-.15.14a5,5,0,0,0-.74-1.46,8,8,0,0,0-1.11-1.22,10.93,10.93,0,0,0-1.3-1,12.83,12.83,0,0,0-1.43-.85Z" style="fill:#34541f"/><path d="M486.86,229s6.74,4.91,8.73,4.91a13.4,13.4,0,0,0-5.46-4.91" style="fill:#448127"/><path d="M486.86,229q1,.71,2.11,1.39c.7.46,1.42.91,2.14,1.34s1.44.86,2.19,1.24c.37.19.75.37,1.13.52a3.61,3.61,0,0,0,1.17.31l-.09.16a12.82,12.82,0,0,0-1.09-1.5,16.08,16.08,0,0,0-1.27-1.35,13.21,13.21,0,0,0-1.43-1.17,11.08,11.08,0,0,0-1.59-.94,10.84,10.84,0,0,1,3.12,2,13.28,13.28,0,0,1,1.31,1.34,13,13,0,0,1,1.12,1.52l.1.17h-.19a3.76,3.76,0,0,1-1.25-.31c-.39-.16-.77-.35-1.15-.54-.75-.39-1.47-.82-2.19-1.27s-1.41-.92-2.1-1.4-1.37-1-2-1.49Z" style="fill:#34541f"/><path d="M486.86,230.53s3.51,3,5.5,3a13.4,13.4,0,0,0-5.46-4.91" style="fill:#448127"/><path d="M486.86,230.53c.42.32.85.63,1.29.93s.88.59,1.33.86a11.38,11.38,0,0,0,1.4.73,5.66,5.66,0,0,0,.73.26,2.84,2.84,0,0,0,.75.12l-.09.16a12.8,12.8,0,0,0-1.09-1.5,16.12,16.12,0,0,0-1.27-1.35,13.23,13.23,0,0,0-1.43-1.17,11.12,11.12,0,0,0-1.59-.94,10.84,10.84,0,0,1,3.12,2,13.26,13.26,0,0,1,1.31,1.34,13,13,0,0,1,1.12,1.52l.1.16h-.19a3.92,3.92,0,0,1-1.57-.4,11.55,11.55,0,0,1-1.41-.76c-.45-.29-.88-.6-1.31-.92s-.83-.67-1.22-1Z" style="fill:#34541f"/><path d="M485.1,223.75s7.31,5.29,8.17,8.16c0,0-6.61-3.09-7.84-4.65" style="fill:#448127"/><path d="M485.1,223.75c.8.55,1.57,1.14,2.34,1.73s1.51,1.22,2.24,1.87a26.32,26.32,0,0,1,2.08,2.05,12.73,12.73,0,0,1,.92,1.15,4.8,4.8,0,0,1,.7,1.32l.07.24-.22-.11q-1-.49-2.05-1c-.68-.35-1.35-.7-2-1.08s-1.32-.77-2-1.19c-.32-.21-.63-.43-.93-.67a4.62,4.62,0,0,1-.83-.79,5,5,0,0,0,.87.75c.31.22.63.43,1,.63.65.4,1.31.77,2,1.13,1.34.71,2.7,1.4,4.08,2l-.15.13a4.87,4.87,0,0,0-.66-1.26,12.57,12.57,0,0,0-.9-1.13c-.64-.73-1.34-1.4-2-2.06s-1.44-1.29-2.19-1.91-1.5-1.23-2.27-1.82Z" style="fill:#34541f"/><path d="M444.53,372.66c-5,3.76-18.82,5.61-20.74,5C433.87,369.07,443.79,368.87,444.53,372.66Z" style="fill:#406325;stroke:#24420e;stroke-width:0.164000004529953px"/><path d="M515.27,377.24c5.33,4.93,21.4,8.32,23.81,7.71C528.39,373.83,516.67,372.7,515.27,377.24Z" style="fill:#406325;stroke:#24420e;stroke-width:0.164000004529953px"/><path d="M444.48,372.63c-.73-3.79-10.61-3.56-20.67,4.93C434.41,374,443.33,372,444.48,372.63Z" style="fill:#67923d;stroke:#24420e;stroke-width:0.164000004529953px"/><path d="M515.38,377.18c1.39-4.55,13-3.45,23.69,7.71C527,379.7,516.82,376.52,515.38,377.18Z" style="fill:#67923d;stroke:#24420e;stroke-width:0.164000004529953px"/></svg>