<svg xmlns="http://www.w3.org/2000/svg" viewBox="0 0 1000 600"><title>Haiti</title><path d="M0,0H1000V600H0Z" style="fill:#d21034"/><path d="M0,0H1000V300H0Z" style="fill:#00209f"/><path d="M405.17,222.41H594.83V377.59H405.17Z" style="fill:#fff"/><path d="M499.61,332.12v.08c-4.08.43-47.87,5.23-59.77,14.11-12.48,9.32-34.67,19.08-34.67,19.08v12H594.83v-12s-22.19-9.76-34.67-19.08c-11.9-8.88-55.7-13.68-59.77-14.11v-.08l-.39,0-.39,0Z" style="fill:#016a16"/><path d="M467.93,359.55c-.52-1.33-4.82-1.22-8.18-.2s-5.24.71-12.47.82a35.63,35.63,0,0,0-11.95,1.94c-.63.2-11.53,5.41-15.72,6.73a14.65,14.65,0,0,1-8.18,0,10,10,0,0,0,11.64.92s-5.66,3.06-9.33,3.47c0,0,5.47,1.12,10.1-.83a11.23,11.23,0,0,0,1.22-.6,82.46,82.46,0,0,1,7.81-3.33c13.26-4.8,18.42-1.74,27.52-4" style="fill:#fff;stroke:#000;stroke-width:0.30000001192092896px"/><path d="M467.91,359.36c-.62,1.17-4.19.52-6.48,1.24.55.47,2.13,1.3,6.55,2.13C468.71,360,467.91,359.36,467.91,359.36Z" style="fill:#fff;stroke:#000;stroke-width:0.3121396005153656px"/><path d="M432.36,368.22c-4.26,1.4-6.32,2.69-8.65,3.54m8.12-4.31c-3.7,1.28-5.82,2.5-8.09,3.36m7.56-4.13c-3.13,1.16-5.32,2.32-7.53,3.17m7-4c-2.57,1-4.82,2.13-7,3m6.44-3.77c-2,.91-4.33,1.94-6.4,2.81" style="fill:none;stroke:#000;stroke-width:0.30000001192092896px"/><path d="M437.35,366.17s6-1.75,10.58-1.21m-9.91.11a35.58,35.58,0,0,1,10.52-1.12m-9.85,0a40.49,40.49,0,0,1,10.47-1m-9.79-.05a47.87,47.87,0,0,1,10.41-1m-9.74-.14a60.14,60.14,0,0,1,10.36-.88" style="fill:none;stroke:#000;stroke-width:0.2645833194255829px"/><path d="M455.93,360.8s2.69-.64,5.4-1c2.31-.32,4.62-.46,5.3.14" style="fill:none;stroke:#000;stroke-width:0.30000001192092896px"/><path d="M455.42,361.73a53.08,53.08,0,0,0,5.68-1" style="fill:none;stroke:#000;stroke-width:0.30000001192092896px"/><path d="M454.92,362.66a22.61,22.61,0,0,0,6-.89" style="fill:none;stroke:#000;stroke-width:0.30000001192092896px"/><path d="M454.41,363.59s4,.25,6.25-.83" style="fill:none;stroke:#000;stroke-width:0.30000001192092896px"/><path d="M453.9,364.43s4.51.49,6.54-.68" style="fill:none;stroke:#000;stroke-width:0.30000001192092896px"/><path d="M476.79,282.76l6.52,13.41,1.49-.73,11.64,21.39.09-3.63-11-18.91.52-.39-.74-.82-.36.2v0s-.74-.09-.84.18Z" style="fill:#f1b517;stroke:#000;stroke-width:1.2283464670181274px"/><path d="M476.79,282.76l6.52,13.41,1.49-.73L484,293.4ZM490,302a7.47,7.47,0,0,0-1.31.58l1.61,3a3.07,3.07,0,0,1,1.3-.58.18.18,0,0,0,.1,0Z" style="fill:#fff;stroke:#000;stroke-width:0.5669291615486145px"/><path d="M485.26,293.09l-.34.19.57,1,.51-.38Z" style="fill:none;stroke:#000;stroke-width:0.9999999403953552px"/><path d="M476.79,282.76l6.52,13.41,1.49-.73,11.64,21.39.09-3.63-11-18.91.52-.39-.74-.82-.36.2v0s-.74-.09-.84.18Z" style="fill:none;stroke:#000;stroke-width:1.2283464670181274px"/><path d="M481,277.7l5.11,14,1.56-.58,9.39,22.41.46-3.6-9-19.89.56-.34-.66-.88L488,289v0s-.73-.16-.85.1Z" style="fill:#f1b517;stroke:#000;stroke-width:1.2283464670181274px"/><path d="M481,277.7l5.11,14,1.56-.58-.57-2.12Z" style="fill:#fff;stroke:#000;stroke-width:0.5669291615486145px"/><path d="M488.41,288.8l-.35.15.47,1.06.54-.33Z" style="fill:none;stroke:#000;stroke-width:0.9999999403953552px"/><path d="M481,277.7l5.11,14,1.56-.58,9.39,22.41.46-3.6-9-19.89.56-.34-.66-.88L488,289v0s-.73-.16-.85.1Z" style="fill:none;stroke:#000;stroke-width:1.2283464670181274px"/><path d="M481,277.7l5.11,14,1.56-.58-.57-2.12Z" style="fill:#fff;stroke:#000;stroke-width:0.15000000596046448px"/><path d="M488.41,288.8l-.35.15.47,1.06.54-.33Z" style="fill:none;stroke:#000;stroke-width:0.2645833194255829px"/><path d="M490.78,295a3.13,3.13,0,0,0-1.16.66l1.24,3a7.88,7.88,0,0,1,1.3-.58Z" style="fill:#fff;stroke:#000;stroke-width:0.5669291615486145px"/><path d="M481,277.7l5.11,14,1.56-.58,9.39,22.41.46-3.6-9-19.89.56-.34-.66-.88L488,289v0s-.73-.16-.85.1Z" style="fill:none;stroke:#000;stroke-width:0.32499998807907104px"/><path d="M486.6,276l4.06,14.3,1.6-.47,7.7,23,.73-3.56-7.54-20.48.58-.3-.59-.93-.39.14v0s-.72-.21-.86,0Z" style="fill:#f1b517;stroke:#000;stroke-width:1.2283464670181274px"/><path d="M486.6,276l4.06,14.3,1.6-.47-.41-2.15Z" style="fill:#fff;stroke:#000;stroke-width:0.5669291615486145px"/><path d="M493.13,287.59l-.36.13.39,1.09.57-.29Z" style="fill:none;stroke:#000;stroke-width:0.9999999403953552px"/><path d="M486.6,276l4.06,14.3,1.6-.47,7.7,23,.73-3.56-7.54-20.48.58-.3-.59-.93-.39.14v0s-.72-.21-.86,0Z" style="fill:none;stroke:#000;stroke-width:1.2283464670181274px"/><path d="M486.6,276l4.06,14.3,1.6-.47-.41-2.15Z" style="fill:#fff;stroke:#000;stroke-width:0.15000000596046448px"/><path d="M493.13,287.59l-.36.13.39,1.09.57-.29Z" style="fill:none;stroke:#000;stroke-width:0.2645833194255829px"/><path d="M495,293.95a3.14,3.14,0,0,0-1.21.57l1,3a7.91,7.91,0,0,1,1.34-.49Z" style="fill:#fff;stroke:#000;stroke-width:0.5669291615486145px"/><path d="M486.6,276l4.06,14.3,1.6-.47,7.7,23,.73-3.56-7.54-20.48.58-.3-.59-.93-.39.14v0s-.72-.21-.86,0Z" style="fill:none;stroke:#000;stroke-width:0.32499998807907104px"/><path d="M474.28,323.75,475.66,337l17.3-1.12Z" style="fill:#d20014"/><path d="M441.06,309.14s1.26,21.12,7.86,31.73L475.87,337l-.73-12.86-34.07-22.55Z" style="fill:#0a328c"/><path d="M466.28,276.7a4.42,4.42,0,0,0,3.06.14s.71.9-1.2,1c0,0-.76.07-.25.9" style="fill:#0a328c;stroke:#000;stroke-width:0.2645833194255829px"/><path d="M464,275.1s2.88-2.29,4.7-2.15,1.91.1,2.07.41a3,3,0,0,1-.34,2.79c-.81,1-1.15.79-1.29.57s-1.29-.88-3.47-.4" style="fill:#d20014;stroke:#000;stroke-width:0.30000001192092896px"/><path d="M468.55,272.94h.17c1.82.14,1.91.1,2.07.41a3.13,3.13,0,0,1,.13,1.74,2.66,2.66,0,0,0-2-.43,7.64,7.64,0,0,0-3.64,1l-.23.16-1-.76S466.72,273,468.55,272.94Z" style="fill:#0a328c;stroke:#000;stroke-width:0.5669291615486145px"/><path d="M497.64,327.66,477,309.37c-4.6,2-4.25,5.54-1.06,10l-.1,4.5,16.86,11.44,4.62-1.13.19-4.13Z" style="fill:#d20014"/><path d="M497,315.88,484.38,300l-3.2,6.9,1,6.51,15.08,13.81Z" style="fill:#d20014"/><path d="M484.33,300.33a30.93,30.93,0,0,0-2.15,13l-15.38-14-7.34-6.47.15.1.95-4.47L461,286l1.2.29v-1.46l.2-1.26,1-2,.85-2.14.2-1.8-.4-2.14.55.24Z" style="fill:#0a328c"/><path d="M438.78,301.4a7.46,7.46,0,0,0-1.7,4.76c-.2,3.31-.15,5.59-.15,5.59a7.3,7.3,0,0,0,4.74.83,7.46,7.46,0,0,1-.45-2.33c0-1.36,0-8.41,0-8.41Z" style="fill:#0a328c;stroke:#000;stroke-width:0.2645833194255829px"/><path d="M440.18,301.84l1.1.07c0,.13-.1,7,0,8.34a7.46,7.46,0,0,0,.45,2.33,5.53,5.53,0,0,1-2.45,0c0-.26-.29-4.31-.24-6.42A11.09,11.09,0,0,1,440.18,301.84Z" style="fill:#d20014;stroke:#000;stroke-width:0.5669291615486145px"/><path d="M420.75,361.58a2.54,2.54,0,0,0-1.7-1.43s-.09-.09.28-.94a2.34,2.34,0,0,0,.18-1.48c-.14-4.52.32-5.73.32-5.73-.32,0-1.79,1.7-1.79,1.7,0-4.3,6.57-6.31,6.57-6.31-2.39,5.91-1.47,6.58-1.47,6.58-1.52-.63-1.7-1.61-1.7-1.61a27,27,0,0,0,0,4.74s-.09,1.48,1.33.76,7.17-3.4,7.17-3.4l.6,1.16-7.91,3.58s-1.15.49-.83,1.34.51,1,.51,1Z" style="fill:#f1b517"/><path d="M421.39,357.1a27,27,0,0,1,0-4.74s.18,1,1.7,1.61c0,0-.92-.67,1.47-6.58,0,0-6.53,2-6.57,6.31,0,0,1.47-1.7,1.79-1.7,0,0-.46,1.21-.32,5.73" style="fill:none;stroke:#000;stroke-width:0.30000001192092896px"/><path d="M420.75,361.58a2.54,2.54,0,0,0-1.7-1.43s-.09-.09.28-.94a2.34,2.34,0,0,0,.18-1.48c-.14-4.52.32-5.73.32-5.73-.32,0-1.79,1.7-1.79,1.7,0-4.3,6.57-6.31,6.57-6.31-2.39,5.91-1.47,6.58-1.47,6.58-1.52-.63-1.7-1.61-1.7-1.61a27,27,0,0,0,0,4.74s-.09,1.48,1.33.76,7.17-3.4,7.17-3.4l.6,1.16-7.91,3.58s-1.15.49-.83,1.34.51,1,.51,1" style="fill:none;stroke:#000;stroke-width:0.15000000596046448px"/><path d="M432.79,352.89a1.43,1.43,0,0,1,.84.27.82.82,0,0,1,.32.51,1.29,1.29,0,0,1-.16.79,1.78,1.78,0,0,1-1.44.93,3.2,3.2,0,0,1-.94,0l.08-.37a2.85,2.85,0,0,0,.81,0,1.37,1.37,0,0,0,1.14-.72.94.94,0,0,0,.13-.56.42.42,0,0,0-.17-.28,1.24,1.24,0,0,0-.6-.19,1,1,0,0,0-.56.1,3.45,3.45,0,0,0-1.13,1.07l-.31-.22a3.77,3.77,0,0,1,1.27-1.19,1.48,1.48,0,0,1,.73-.14Z" style="fill:#f1b517;stroke:#000;stroke-width:0.15000000596046448px"/><path d="M432.2,356.93s-.18-3-2.11-4c0,0-.46,0-.51.4a25.06,25.06,0,0,0,1.79,3.49Z" style="fill:#f1b517;stroke:#000;stroke-width:0.15000000596046448px"/><path d="M432,356.59s-.15-2.46-1.76-3.32c0,0-.38,0-.42.34a20.88,20.88,0,0,0,1.49,2.91Z" style="fill:#f1b517;stroke:#000;stroke-width:0.12497752159833908px"/><ellipse cx="449.67" cy="349.39" rx="2.06" ry="2.01" style="fill:#f1b517;stroke:#000;stroke-linecap:round;stroke-width:0.15000000596046448px"/><path d="M423.13,328.47s-3.48.19-3.44,1.87.56,3.31-.6,3.62-3.56.31-4.16.93a2.08,2.08,0,0,0-.6,1.32s3-1.05,4.32-.31a2.41,2.41,0,0,0,2.92-.82c.48-.86.2-2.53,1.12-2.84a21.18,21.18,0,0,1,3.84-.35Z" style="fill:#d20014"/><path d="M448.38,305.42a111.82,111.82,0,0,1,1.09-19.86l.14-1.59,28.16,26.22s-1.91,2.79-1.63,13.9L474,322.63Z" style="fill:#0a328c"/><path d="M448.38,305.42a111.82,111.82,0,0,1,1.09-19.86l.14-1.59" style="fill:none;stroke:#000;stroke-width:0.2645833194255829px"/><path d="M455.92,264l3.77,8.56a1.3,1.3,0,0,1,2,0l.88,1.12M455.93,264l7.28,6s-1.39.7-.55,1.86l.84,1.15-.94.67" style="fill:#f1b517;stroke:#000;stroke-width:0.30000001192092896px"/><polygon points="465.44 271.2 460.26 274.88 461.62 276.69 466.79 273.01 465.44 271.2" style="fill:#f1b517;stroke:#000;stroke-width:0.30000001192092896px"/><polygon points="465.32 271.75 460.84 274.95 461.73 276.14 466.21 272.94 465.32 271.75" style="fill:#f1b517;stroke:#000;stroke-width:0.15000000596046448px"/><path d="M439.18,274.65l5.11,7.87a1.3,1.3,0,0,1,2-.27l1.06,1m-8.12-8.58,8.17,4.84s-1.26.9-.24,1.92l1,1-.82.81" style="fill:#f1b517;stroke:#000;stroke-width:0.30000001192092896px"/><polygon points="449.75 280.24 445.23 284.68 446.87 286.25 451.38 281.82 449.75 280.24" style="fill:#f1b517;stroke:#000;stroke-width:0.30000001192092896px"/><polygon points="449.72 280.81 445.82 284.65 446.89 285.69 450.8 281.84 449.72 280.81" style="fill:#f1b517;stroke:#000;stroke-width:0.15000000596046448px"/><path d="M428.29,292.54l6.42,6.9a1.29,1.29,0,0,1,1.89-.59l1.21.78m-9.51-7.1,8.9,3.41a1.22,1.22,0,0,0,.1,1.93l1.18.83-.66.94" style="fill:#f1b517;stroke:#000;stroke-width:0.30000001192092896px"/><polygon points="439.68 296.29 436.02 301.41 437.91 302.69 441.57 297.57 439.68 296.29" style="fill:#f1b517;stroke:#000;stroke-width:0.30000001192092896px"/><polygon points="439.76 296.85 436.59 301.29 437.83 302.13 441 297.69 439.76 296.85" style="fill:#f1b517;stroke:#000;stroke-width:0.15000000596046448px"/><path d="M464.42,274.7l32.71,40.44-.51.39-32.71-40.44Z" style="fill:#f1b517;stroke:#000;stroke-width:0.30000001192092896px"/><path d="M450.3,284.59l47.29,42.7-.44.46L449.86,285Z" style="fill:#f1b517;stroke:#000;stroke-width:0.30000001192092896px"/><path d="M442.68,301.69,493,335.23l-.37.52-50.35-33.54Z" style="fill:#f1b517;stroke:#000;stroke-width:0.30000001192092896px"/><path d="M448.07,285.15s4.75-.88,5.9-.2-2,.72-2.64.52l1.2,1.17s2.72-.64,3.18-3.13-1.36-2.49-1.77-2.45S451.13,281.45,448.07,285.15Z" style="fill:#0a328c;stroke:#000;stroke-width:0.2645833194255829px"/><path d="M454.89,282.53a1,1,0,0,1,.78,1.17,7.83,7.83,0,0,1-.41,1.17l-.06-.07a3.8,3.8,0,0,1-.52.63l-.47-.15c.06-.09,0-.2-.23-.33a1.65,1.65,0,0,0-.51-.17,7,7,0,0,0-2.42,0l-1.44.08s4.3-2.58,5.29-2.3Z" style="fill:#d20014;stroke:#000;stroke-width:0.15000000596046448px"/><path d="M450,284.67s5.29-1.54,5.29-.05" style="fill:none;stroke:#000;stroke-width:0.15000000596046448px"/><path d="M448.07,285.15s4.75-.88,5.9-.2-2,.72-2.64.52l1.2,1.17s2.72-.64,3.18-3.13-1.36-2.49-1.77-2.45S451.13,281.45,448.07,285.15Z" style="fill:none;stroke:#000;stroke-width:0.30000001192092896px"/><path d="M448.69,285.11a5.73,5.73,0,0,1,.19,1.68c-1.55,3.84-3.65,3.93-2.82,8.6l-1.63,0a12.06,12.06,0,0,1,.59-5.13,6.4,6.4,0,0,1,1.16-1.53c.5-.53,1-1,1.42-1.44a1.66,1.66,0,0,0,.23-1.82Z" style="fill:#0a328c;stroke:#000;stroke-width:0.15000000596046448px"/><path d="M449.7,284.74a5.33,5.33,0,0,1,.29,1.77,5.14,5.14,0,0,1-.29,1.71,16.14,16.14,0,0,0-.55,1.88,26.17,26.17,0,0,0-.51,5.36l-2.59-.07c-.82-4.67,1.28-4.75,2.82-8.6a5.73,5.73,0,0,0-.19-1.68Z" style="fill:#d20014;stroke:#000;stroke-width:0.2645833194255829px"/><path d="M447.83,285.43a1.66,1.66,0,0,1-.23,1.82c-.38.4-.92.91-1.42,1.44a6.4,6.4,0,0,0-1.16,1.53,12.06,12.06,0,0,0-.59,5.13m0,0,4.22.11a26.17,26.17,0,0,1,.51-5.36,16.15,16.15,0,0,1,.55-1.88,5.14,5.14,0,0,0,.29-1.71,5.33,5.33,0,0,0-.29-1.77l-1.87.68" style="fill:none;stroke:#000;stroke-width:0.30000001192092896px"/><path d="M447.3,295.4a7.29,7.29,0,0,1,.76-4.85c1.36-2.33,1.76-5.88,1.05-5.64" style="fill:none;stroke:#000;stroke-width:0.15000000596046448px"/><path d="M452,332.65l3.64,6.21,14.39,1,1.36.18s2.1,4.82,4.44,5.47,17.95,5.38,17.95,5.38l.48-3.48-10.12-3.18s-3-1.06-3.85-2.19-8.24-8-8.24-8Z" style="fill:#f1b517;stroke:#000;stroke-width:0.15734830498695374px"/><path d="M458.47,316.83l20.92,33.94-.44.26L458,317.09Z" style="fill:#f1b517;stroke:#000;stroke-width:0.30000001192092896px"/><path d="M458.89,318.2s-.59.54-1.32-.33-2.88-4.47-3.29-5.12-.94-1.2-.24-1.63,1.67.11,2.47,1.74S459.94,317.33,458.89,318.2Z" style="fill:#fff;stroke:#000;stroke-width:0.30000001192092896px"/><path d="M440.37,322.86c-.78-.1-2.11,1.39-2.47,4s0,4.76.77,4.87c.29,0,.6-.22.91-.72l41.76,5.47.88-7.68L440.79,324C440.66,323,440.77,322.91,440.37,322.86Z" style="fill:#f1b517;stroke:#000;stroke-width:0.5669291615486145px"/><path d="M480.57,328.61a5.15,5.15,0,0,0-.34.63m-.56-.73a5.15,5.15,0,0,0-.34.63m-.56-.73a5.15,5.15,0,0,0-.34.63m-.56-.73a5.15,5.15,0,0,0-.34.63m-.56-.73a5.15,5.15,0,0,0-.34.63m-.56-.73a5.15,5.15,0,0,0-.34.63m-.56-.73a5.15,5.15,0,0,0-.34.63m-.56-.73a5.14,5.14,0,0,0-.34.63m-.56-.73a5.14,5.14,0,0,0-.34.63m-.56-.73a5.14,5.14,0,0,0-.34.63m-.56-.73a5.14,5.14,0,0,0-.34.63m-.56-.73a5.14,5.14,0,0,0-.34.63m-.56-.73a5.14,5.14,0,0,0-.34.63m-.56-.73a5.14,5.14,0,0,0-.34.63m-.56-.73a5.14,5.14,0,0,0-.34.63m-.56-.73a5.14,5.14,0,0,0-.34.63m-.56-.73a5.14,5.14,0,0,0-.34.63m-.56-.73a5.14,5.14,0,0,0-.34.63m-.56-.73a5.14,5.14,0,0,0-.34.63m-.56-.73a5.14,5.14,0,0,0-.34.63m-.56-.73a5.14,5.14,0,0,0-.34.63m-.56-.73a5.14,5.14,0,0,0-.34.63m-.56-.73a5.14,5.14,0,0,0-.34.63m-.56-.73a5.14,5.14,0,0,0-.34.63m-.56-.73a5.14,5.14,0,0,0-.34.63M458,326a5.14,5.14,0,0,0-.34.63m-.56-.73a5.14,5.14,0,0,0-.34.63m-.56-.73a5.14,5.14,0,0,0-.34.63m-.56-.73a5.14,5.14,0,0,0-.34.63m-.56-.73a5.14,5.14,0,0,0-.34.63m-.56-.73a5.14,5.14,0,0,0-.34.63m-.56-.73a5.14,5.14,0,0,0-.34.63m-.56-.73a5.14,5.14,0,0,0-.34.63m-.56-.73a5.14,5.14,0,0,0-.34.63m-.56-.73a5.14,5.14,0,0,0-.34.63m-.56-.73a5.14,5.14,0,0,0-.34.63m-.56-.73a5.14,5.14,0,0,0-.34.63m-.56-.73a5.14,5.14,0,0,0-.34.63m-.56-.73a5.14,5.14,0,0,0-.34.63m-.56-.73a5.14,5.14,0,0,0-.34.63m-.56-.73a5.14,5.14,0,0,0-.34.63m-.56-.73a5.14,5.14,0,0,0-.34.63m-.56-.73a5.14,5.14,0,0,0-.34.63m-.56-.73a5.14,5.14,0,0,0-.34.63m-.56-.73a5.14,5.14,0,0,0-.34.63" style="fill:#f4cf0e;stroke:#000;stroke-linecap:round;stroke-width:0.15000000596046448px"/><path d="M439.36,326.5l42.3,5.54" style="fill:none;stroke:#000;stroke-width:0.2645833194255829px"/><path d="M439.23,327.43l42.3,5.54" style="fill:none;stroke:#000;stroke-width:0.2645833194255829px"/><path d="M439.11,328.35l42.3,5.54" style="fill:none;stroke:#000;stroke-width:0.2645833194255829px"/><path d="M439,328.81l42.3,5.54" style="fill:none;stroke:#000;stroke-width:0.2645833194255829px"/><path d="M439,329.28l42.3,5.54" style="fill:none;stroke:#000;stroke-width:0.2645833194255829px"/><path d="M438.92,329.74l42.3,5.54" style="fill:none;stroke:#000;stroke-width:0.2645833194255829px"/><path d="M438.85,330.2l42.3,5.54" style="fill:none;stroke:#000;stroke-width:0.2645833194255829px"/><path d="M438.79,330.66l42.3,5.54" style="fill:none;stroke:#000;stroke-width:0.2645833194255829px"/><path d="M446.66,324c-.74,0-1.47,1.83-1.64,4.19h0c-.17,2.36.29,4.31,1,4.35h0a.59.59,0,0,0,.42-.18,7.21,7.21,0,0,1-.59-4.06c.13-1.86.63-3.48,1.22-4a.62.62,0,0,0-.44-.29Z" style="fill:#f1b517;stroke:#000;stroke-linecap:round;stroke-width:0.15000000596046448px"/><path d="M476.24,327.87c-.74,0-1.47,1.83-1.64,4.19h0c-.17,2.36.29,4.31,1,4.35h0a.59.59,0,0,0,.42-.18,7.21,7.21,0,0,1-.59-4.06c.13-1.86.63-3.48,1.22-4a.62.62,0,0,0-.44-.29Z" style="fill:#f1b517;stroke:#000;stroke-linecap:round;stroke-width:0.15000000596046448px"/><path d="M482.43,331.31l2.36-.15s1.45.48,1.54,1.09a4.79,4.79,0,0,1,0,1.73c-.12.24-2.87.72-3.83-.12Z" style="fill:#f1b517;stroke:#000;stroke-width:0.15000000596046448px"/><path d="M486.33,332.24a14.47,14.47,0,0,1-3.87,0l.05,1.59c1,.84,3.72.36,3.83.12a4.79,4.79,0,0,0,0-1.73h0Z"/><path d="M482,328.55a.36.36,0,0,0-.29.17,13.43,13.43,0,0,1,.15,3.69,11.47,11.47,0,0,1-.82,3.91c.11.31.24.48.39.49.51,0,1-1.77,1.21-4h0c.16-2.28-.13-4.17-.64-4.21h0Z" style="fill:#f1b517;stroke:#000;stroke-linecap:round;stroke-width:0.5669291615486145px"/><path d="M458.21,328.62v0a1,1,0,0,1,.83,1v7l-5-4.92a1,1,0,0,1-.15-1.29l0,0-2.19,2.13h0a1.09,1.09,0,0,1,1.42.07l5.13,5h-7.31a1.06,1.06,0,0,1-1-.81h0v3h0a1.05,1.05,0,0,1,1.06-.93h7.26l-5.17,5a1.09,1.09,0,0,1-1.33.14l0,0,2.19,2.13h0a1,1,0,0,1,.08-1.38l5.13-5v7.12a1,1,0,0,1-.83,1v0h3.09a1,1,0,0,1-1-1v-7.23l5.25,5.11a1,1,0,0,1,.08,1.38h0l2.19-2.13,0,0a1.09,1.09,0,0,1-1.33-.14l-5.17-5h7.26a1.05,1.05,0,0,1,1.06.93h0v-3h0a1.06,1.06,0,0,1-1,.81h-7.31l5.13-5a1.09,1.09,0,0,1,1.42-.07h0l-2.19-2.13,0,0a1,1,0,0,1-.15,1.29l-5.17,5v-7.07a1,1,0,0,1,1-1h-3.09Z" style="fill:#f1b517;stroke:#000;stroke-linecap:round;stroke-width:0.5669291615486145px"/><ellipse cx="459.7" cy="338.38" rx="1.97" ry="1.92" style="fill:#f1b517;stroke:#000;stroke-linecap:round;stroke-width:0.15000000596046448px"/><path d="M459.7,325.6a12.86,12.86,0,0,0-13,12.69h0a12.86,12.86,0,0,0,13,12.69h0a12.86,12.86,0,0,0,13-12.69h0a12.86,12.86,0,0,0-13-12.69Zm0,3.23a9.46,9.46,0,1,1-9.72,9.46A9.59,9.59,0,0,1,459.7,328.83Z" style="fill:#f1b517;stroke:#000;stroke-linecap:round;stroke-width:0.5669291019439697px"/><ellipse cx="459.7" cy="327.17" rx="0.42" ry="0.41"/><ellipse cx="459.7" cy="349.3" rx="0.42" ry="0.41"/><path d="M468,330.12a.4.4,0,0,1,0,.57.42.42,0,0,1-.59,0,.4.4,0,0,1,0-.57A.42.42,0,0,1,468,330.12Z"/><path d="M452,345.77a.4.4,0,0,1,0,.57.42.42,0,0,1-.59,0,.4.4,0,0,1,0-.57A.42.42,0,0,1,452,345.77Z"/><path d="M451.36,330.12a.4.4,0,0,0,0,.57.42.42,0,0,0,.59,0,.4.4,0,0,0,0-.57A.42.42,0,0,0,451.36,330.12Z"/><path d="M467.44,345.77a.4.4,0,0,0,0,.57.42.42,0,0,0,.59,0,.4.4,0,0,0,0-.57A.42.42,0,0,0,467.44,345.77Z"/><ellipse cx="448.33" cy="338.23" rx="0.42" ry="0.41"/><ellipse cx="471.06" cy="338.23" rx="0.42" ry="0.41"/><path d="M448.78,342.54a.42.42,0,0,0,.54.22.4.4,0,0,0,.23-.53A.42.42,0,0,0,449,342,.4.4,0,0,0,448.78,342.54Z"/><path d="M469.84,334.23a.42.42,0,0,0,.54.22.4.4,0,0,0,.23-.53.42.42,0,0,0-.54-.22A.4.4,0,0,0,469.84,334.23Z"/><path d="M470.51,342.79a.42.42,0,0,1-.55.21.4.4,0,0,1-.22-.53.42.42,0,0,1,.55-.21A.4.4,0,0,1,470.51,342.79Z"/><path d="M449.65,334a.42.42,0,0,1-.55.21.4.4,0,0,1-.22-.53.42.42,0,0,1,.55-.21A.4.4,0,0,1,449.65,334Z"/><path d="M464.31,327.68a.4.4,0,0,1,.22.53.42.42,0,0,1-.55.21.4.4,0,0,1-.22-.53A.42.42,0,0,1,464.31,327.68Z"/><path d="M455.4,348a.4.4,0,0,1,.22.53.42.42,0,0,1-.55.21.4.4,0,0,1-.22-.53A.42.42,0,0,1,455.4,348Z"/><path d="M455.08,327.68a.4.4,0,0,0-.22.53.42.42,0,0,0,.55.21.4.4,0,0,0,.22-.53A.42.42,0,0,0,455.08,327.68Z"/><path d="M464,348a.4.4,0,0,0-.22.53.42.42,0,0,0,.55.21.4.4,0,0,0,.22-.53A.42.42,0,0,0,464,348Z"/><ellipse cx="444.64" cy="349.39" rx="2.06" ry="2.01" style="fill:#f1b517;stroke:#000;stroke-linecap:round;stroke-width:0.15000000596046448px"/><path d="M495.38,322.74s-5.08,2.13-5.52-1.53c0,0-3.06,3.75,1.14,6.14,0,0-1.93-3,4.38-3.32,0,0,.88.09.79-.6A.79.79,0,0,0,495.38,322.74Z" style="fill:#fff;stroke:#000;stroke-width:0.15000000596046448px"/><path d="M496.17,323.54a47.41,47.41,0,0,0-4.91.73,3.76,3.76,0,0,1-2.48-.2,3.68,3.68,0,0,0,2.22,3.27s-1.93-3,4.38-3.32c0,0,.77.07.79-.48Z"/><path d="M493.14,322.71l-.43.06,1.75,11.42.43-.06Z" style="fill:#fff;stroke:#000;stroke-width:0.15000000596046448px"/><path d="M493.31,322.68l-.77.11.35,2.3.77-.11Z" style="fill:#fff;stroke:#000;stroke-width:0.15000000596046448px"/><ellipse cx="483.39" cy="353.12" rx="3.08" ry="1.41" style="fill:#fff;stroke:#000;stroke-width:0.15000000596046448px"/><path d="M483.66,336.37c-.28,0-.56,0-.64.2-.15.33.3.41.3.41v1.88c0,.59-.49,9.49-.72,11.22a6.32,6.32,0,0,1-.4,1.56s-2.18.25-2.06,1.21,1.29,1.59,3.26,1.55c2.43-.05,3.11-.55,3.22-1.14s-.57-1.14-1.59-1.33l-.53-3s.11.44,1.52.15,1.37-2.36,1.37-2.36,0-6.2,0-7.35a2.17,2.17,0,0,0-1.63-2c-.72-.11-1.21,0-1.29.44s-.27.52-.38.37a4.6,4.6,0,0,1,0-1.26s.53-.26.3-.41a1.71,1.71,0,0,0-.69-.16Zm1.83,2.12.49.26.15,1.33v6.72l-.08.44-.64.52-.72-.15-.38-.44-.27-6-.08-1.92.91-.59Z" style="fill:#f1b517;stroke:#000;stroke-width:0.5669291615486145px"/><path d="M485.23,352.63s-.83-2.07-1-7.5-.27-5.87,0-6.13,1-.7,1.48-.44.34.33.42,1.26.08,6.9.08,6.9-.23,1-.8,1-1-.26-1.06-.66" style="fill:none;stroke:#000;stroke-width:0.15000000596046448px"/><path d="M481.59,352.74a5.37,5.37,0,0,0,1-2.66c.23-1.74.72-10.63.72-11.22V337" style="fill:none;stroke:#000;stroke-width:0.15000000596046448px"/><path d="M472.42,346.29s2.78.08,3.69,1.75.41,3.27-.66,3.91-3.36,1.12-4.42.48-1.8-2.71-.57-2.95,3.28-.64,3-1.44-1.31-.8-1.31-.8Z" style="fill:#fff;stroke:#000;stroke-width:0.2645833194255829px"/><polygon points="472.79 345.92 472.28 345.84 471.88 347.61 472.39 347.69 472.79 345.92" style="fill:#fff;stroke:#000;stroke-width:0.15014049410820007px"/><path d="M433.28,337.57l11.76,6-.06.12-.83.15L433,338.13Z" style="fill:#fff;stroke:#000;stroke-width:0.30000001192092896px"/><path d="M432.93,337.85l6.63,11.42-1.07-.57-6.12-10.54Z" style="fill:#fff;stroke:#000;stroke-width:0.30000001192092896px"/><path d="M421.6,326.75h0a.33.33,0,0,1,.22.1L433,337.63a.31.31,0,0,1,0,.45.33.33,0,0,1-.46,0h0l-11-10.6v-.72h0Z"/><path d="M431.18,336a.33.33,0,0,1,.22.1l11.08,10.71-1,0-10.57-10.21a.31.31,0,0,1,0-.45A.33.33,0,0,1,431.18,336Z" style="fill:#fff;stroke:#000;stroke-linecap:round;stroke-width:0.30000001192092896px"/><ellipse cx="473.16" cy="357.44" rx="2.06" ry="2.01" style="fill:#f1b517;stroke:#000;stroke-linecap:round;stroke-width:0.15000000596046448px"/><ellipse cx="468.23" cy="353.41" rx="2.06" ry="2.01" style="fill:#f1b517;stroke:#000;stroke-linecap:round;stroke-width:0.15000000596046448px"/><ellipse cx="460.65" cy="353.89" rx="2.06" ry="2.01" style="fill:#f1b517;stroke:#000;stroke-linecap:round;stroke-width:0.15000000596046448px"/><ellipse cx="454.89" cy="356.96" rx="2.06" ry="2.01" style="fill:#f1b517;stroke:#000;stroke-linecap:round;stroke-width:0.15000000596046448px"/><ellipse cx="449.86" cy="356.96" rx="2.06" ry="2.01" style="fill:#f1b517;stroke:#000;stroke-linecap:round;stroke-width:0.15000000596046448px"/><ellipse cx="444.84" cy="356.96" rx="2.06" ry="2.01" style="fill:#f1b517;stroke:#000;stroke-linecap:round;stroke-width:0.15000000596046448px"/><ellipse cx="439.82" cy="356.96" rx="2.06" ry="2.01" style="fill:#f1b517;stroke:#000;stroke-linecap:round;stroke-width:0.15000000596046448px"/><ellipse cx="452.33" cy="353.22" rx="2.06" ry="2.01" style="fill:#f1b517;stroke:#000;stroke-linecap:round;stroke-width:0.15000000596046448px"/><ellipse cx="447.3" cy="353.22" rx="2.06" ry="2.01" style="fill:#f1b517;stroke:#000;stroke-linecap:round;stroke-width:0.15000000596046448px"/><ellipse cx="442.28" cy="353.22" rx="2.06" ry="2.01" style="fill:#f1b517;stroke:#000;stroke-linecap:round;stroke-width:0.15000000596046448px"/><path d="M463,276.06a2.88,2.88,0,0,1-1.22,2.52c-1.38.95-3,2-3.65,4.65s-.16,2.37-.16,2.37l4.29.71a4.52,4.52,0,0,1,.57-3.39c1.05-1.5,2.59-5.84,1.13-7.57Z" style="fill:#d20014;stroke:#000;stroke-width:0.30000001192092896px"/><path d="M463.12,276a2.85,2.85,0,0,1-.3,3.1c-1.3,1.34-2.51,2-3,3.79a28.38,28.38,0,0,0-.6,3l-1.26-.21s-.49.32.16-2.37,2.27-3.71,3.65-4.65a2.88,2.88,0,0,0,1.22-2.52Z" style="fill:#0a328c;stroke:#000;stroke-width:0.5669291615486145px"/><path d="M463.63,275.27a4.63,4.63,0,0,1-.08,3.63c-.89,1.81-1.78,2.68-2.27,3.87s0,2.29-.57,3.16" style="fill:none;stroke:#000;stroke-width:0.15000000596046448px"/><path d="M430,355a.17.17,0,0,1,.15.18.17.17,0,0,1-.19.15h0a6.43,6.43,0,0,0-5.12,1.72.18.18,0,0,1-.24,0,.17.17,0,0,1,0-.24l0,0A6.81,6.81,0,0,1,430,355Z" style="fill:#fff;stroke:#000;stroke-linecap:round;stroke-width:0.15000000596046448px"/><path d="M424.89,358.21a1.43,1.43,0,0,1-.37.88A3.38,3.38,0,0,1,422,360v-.34a3,3,0,0,0,2.31-.77,1,1,0,0,0,.29-.65Z" style="fill:#fff;stroke:#000;stroke-width:0.15000000596046448px"/><path d="M420.75,361.58a2.54,2.54,0,0,0-1.7-1.43s-.09-.09.28-.94a2.34,2.34,0,0,0,.18-1.48c-.14-4.52.32-5.73.32-5.73-.32,0-1.79,1.7-1.79,1.7,0-4.3,6.57-6.31,6.57-6.31-2.39,5.91-1.47,6.58-1.47,6.58-1.52-.63-1.7-1.61-1.7-1.61a27,27,0,0,0,0,4.74s-.09,1.48,1.33.76c.76-.38,4.46-2.13,4.46-2.13l.35,1.23-4.95,2.24s-1.15.49-.83,1.34.51,1,.51,1Z" style="fill:#f1b517"/><path d="M429.21,354.94l-.18.34-.26,0,.17-.35Zm-.87.07-.12.35-.25,0,.12-.36Zm-.94.19c0,.12,0,.23-.06.37l-.24.08c0-.13,0-.25.05-.37Zm-.94.33c0,.12,0,.24,0,.37l-.22.11c0-.13,0-.25,0-.37l.23-.11Zm-.87.47.08.35-.2.14c0-.12-.06-.24-.08-.36Z"/><path d="M424.34,358.77l.16.34-.17.17-.15-.32.08-.09Zm-.47.42,0,.36-.22.1,0-.35Zm-.55.24-.07.37-.24.06.07-.36Zm-.49.12-.16.36-.26,0,.16-.36Z"/><path d="M441.38,297.75s2.6-1.22,3.2-.19a4.48,4.48,0,0,1,0,4.28s-3.7.44-5.59-.19l-.25-.15Z" style="fill:#0a328c;stroke:#000;stroke-width:0.30000001192092896px"/><path d="M444,298.87a2.62,2.62,0,0,1,1.12.26,3.92,3.92,0,0,1-.5,2.71,19,19,0,0,1-5.24-.09c.95-.29,2.58-1.81,3.69-2.58A1.67,1.67,0,0,1,444,298.87Z" style="fill:#d20014;stroke:#000;stroke-width:0.5669291615486145px"/><path d="M445.08,300.91a3.5,3.5,0,0,0-3.25,0c-2,.87-2,.73-2,.73" style="fill:none;stroke:#000;stroke-width:0.15000000596046448px"/><path d="M441.38,297.75s2.6-1.22,3.2-.19a4.48,4.48,0,0,1,0,4.28s-3.7.44-5.59-.19l-.25-.15Z" style="fill:none;stroke:#000;stroke-width:0.30000001192092896px"/><path d="M440.63,301.88a27.72,27.72,0,0,0-.5,5.1c-.1,3.45.65,5.78.95,5.74" style="fill:none;stroke:#000;stroke-width:0.15000000596046448px"/><path d="M438.78,301.4a7.46,7.46,0,0,0-1.7,4.76c-.2,3.31-.15,5.59-.15,5.59a7.3,7.3,0,0,0,4.74.83,7.46,7.46,0,0,1-.45-2.33c0-1.36,0-8.41,0-8.41" style="fill:none;stroke:#000;stroke-width:0.2645833194255829px"/><path d="M461.11,286a59.55,59.55,0,0,0-1.35,7" style="fill:none;stroke:#000;stroke-width:0.30000001192092896px"/><path d="M470.39,276.15s-1.22-1.62-4.83-.21" style="fill:none;stroke:#000;stroke-width:0.15000000596046448px"/><path d="M497.62,269.77l.66-21,3.06-1.6.87,22.57Z" style="fill:#016a16;stroke:#000;stroke-width:0.28690797090530396px"/><path d="M498.87,229.61s-.3,0-.79-.48-.79-.48-.39-1.15a2.4,2.4,0,0,1,2.56-1.44c1.68.1,3,.19,3.55,1.92a21,21,0,0,1,.3,8.25c-2.56-.1-6.41-2.11-7-3.46S498.87,229.61,498.87,229.61Z" style="fill:#0a328c;stroke:#000;stroke-width:0.3253130316734314px"/><path d="M522.41,282.76l-6.52,13.41-1.49-.73-11.64,21.39-.09-3.63,11-18.91-.52-.39.74-.82.36.2v0s.74-.09.84.18Z" style="fill:#f1b517;stroke:#000;stroke-width:1.2283464670181274px"/><path d="M522.41,282.76l-6.52,13.41-1.49-.73.79-2.05ZM509.21,302a7.47,7.47,0,0,1,1.31.58l-1.61,3a3.07,3.07,0,0,0-1.3-.58.18.18,0,0,1-.1,0Z" style="fill:#fff;stroke:#000;stroke-width:0.5669291615486145px"/><path d="M513.94,293.09l.34.19-.57,1-.51-.38Z" style="fill:none;stroke:#000;stroke-width:0.9999999403953552px"/><path d="M522.41,282.76l-6.52,13.41-1.49-.73-11.64,21.39-.09-3.63,11-18.91-.52-.39.74-.82.36.2v0s.74-.09.84.18Z" style="fill:none;stroke:#000;stroke-width:1.2283464670181274px"/><path d="M518.16,277.7l-5.11,14-1.56-.58-9.39,22.41-.46-3.6,9-19.89-.56-.34.66-.88.38.16v0s.73-.16.85.1Z" style="fill:#f1b517;stroke:#000;stroke-width:1.2283464670181274px"/><path d="M518.16,277.7l-5.11,14-1.56-.58.57-2.12Z" style="fill:#fff;stroke:#000;stroke-width:0.5669291615486145px"/><path d="M510.79,288.8l.35.15-.47,1.06-.54-.33Z" style="fill:none;stroke:#000;stroke-width:0.9999999403953552px"/><path d="M518.16,277.7l-5.11,14-1.56-.58-9.39,22.41-.46-3.6,9-19.89-.56-.34.66-.88.38.16v0s.73-.16.85.1Z" style="fill:none;stroke:#000;stroke-width:1.2283464670181274px"/><path d="M518.16,277.7l-5.11,14-1.56-.58.57-2.12Z" style="fill:#fff;stroke:#000;stroke-width:0.15000000596046448px"/><path d="M510.79,288.8l.35.15-.47,1.06-.54-.33Z" style="fill:none;stroke:#000;stroke-width:0.2645833194255829px"/><path d="M508.42,295a3.13,3.13,0,0,1,1.16.66l-1.24,3A7.88,7.88,0,0,0,507,298Z" style="fill:#fff;stroke:#000;stroke-width:0.5669291615486145px"/><path d="M518.16,277.7l-5.11,14-1.56-.58-9.39,22.41-.46-3.6,9-19.89-.56-.34.66-.88.38.16v0s.73-.16.85.1Z" style="fill:none;stroke:#000;stroke-width:0.32499998807907104px"/><path d="M512.61,276l-4.06,14.3-1.6-.47-7.7,23-.73-3.56,7.54-20.48-.58-.3.59-.93.39.14v0s.72-.21.86,0Z" style="fill:#f1b517;stroke:#000;stroke-width:1.2283464670181274px"/><path d="M512.61,276l-4.06,14.3-1.6-.47.41-2.15Z" style="fill:#fff;stroke:#000;stroke-width:0.5669291615486145px"/><path d="M506.08,287.59l.36.13-.39,1.09-.57-.29Z" style="fill:none;stroke:#000;stroke-width:0.9999999403953552px"/><path d="M512.61,276l-4.06,14.3-1.6-.47-7.7,23-.73-3.56,7.54-20.48-.58-.3.59-.93.39.14v0s.72-.21.86,0Z" style="fill:none;stroke:#000;stroke-width:1.2283464670181274px"/><path d="M512.61,276l-4.06,14.3-1.6-.47.41-2.15Z" style="fill:#fff;stroke:#000;stroke-width:0.15000000596046448px"/><path d="M506.08,287.59l.36.13-.39,1.09-.57-.29Z" style="fill:none;stroke:#000;stroke-width:0.2645833194255829px"/><path d="M504.18,293.95a3.14,3.14,0,0,1,1.21.57l-1,3a7.91,7.91,0,0,0-1.34-.49Z" style="fill:#fff;stroke:#000;stroke-width:0.5669291615486145px"/><path d="M512.61,276l-4.06,14.3-1.6-.47-7.7,23-.73-3.56,7.54-20.48-.58-.3.59-.93.39.14v0s.72-.21.86,0Z" style="fill:none;stroke:#000;stroke-width:0.32499998807907104px"/><path d="M502.32,230.32s-2.07.38-2,1.34" style="fill:none;stroke:#000;stroke-linecap:round;stroke-width:0.28690797090530396px"/><path d="M501.34,228.17a4.87,4.87,0,0,0-3.15,2.59" style="fill:none;stroke:#000;stroke-width:0.28690797090530396px"/><path d="M500.25,228.46s-1.38,1.15-2,.77" style="fill:none;stroke:#000;stroke-width:0.28690797090530396px"/><path d="M497.93,231.23h-.14l-.27.08a2.26,2.26,0,0,0-.42,1.94,1.65,1.65,0,0,0,.18.3l.22-.1s4.54-.38,6.51,3l.12.2a15,15,0,0,0,.26-3.25,11.4,11.4,0,0,0-6.45-2.14Z" style="fill:#d20014;stroke:#000;stroke-width:0.2873598039150238px"/><path d="M503.21,231.37s-1.08.48-1.08,1" style="fill:none;stroke:#000;stroke-linecap:round;stroke-width:0.28690797090530396px"/><path d="M502.31,269.68s1.47,46.23.27,63.6m-.27-63.6a26.19,26.19,0,0,0-4.66,0s-1.47,46.23-.27,63.6a21.6,21.6,0,0,1,5.2,0" style="fill:#f1b517;stroke:#000;stroke-width:0.30000001192092896px"/><path d="M499.84,271.81h-.94l-1.32,0c0,.05,0,.17,0,.22,1.29,0,2.95-.07,4.8,0,0-.06,0-.17,0-.22-.89,0-1.75,0-2.54,0Zm0,1.62h-.93l-1.34,0c0,.07,0,.15,0,.22,1.3,0,3-.07,4.89,0,0-.07,0-.16,0-.22-.92,0-1.8,0-2.61,0Zm0,1.62h-.93l-1.36,0v.22c1.32,0,3-.06,5,0v-.22c-.95,0-1.85,0-2.68,0Zm0,1.62h-.93l-1.38,0v.22c1.33,0,3.09-.06,5.07,0v-.22c-1,0-1.9,0-2.75,0Zm-.95,1.62-1.4,0c0,.07,0,.16,0,.22,1.35,0,3.13,0,5.15,0,0-.07,0-.16,0-.22C501.18,278.29,499.91,278.28,498.81,278.29Zm0,1.62-1.42,0c0,.07,0,.15,0,.22,1.36,0,3.17,0,5.22,0,0-.07,0-.15,0-.22-1.39,0-2.69-.05-3.8,0Zm0,1.62-1.43,0c0,.08,0,.15,0,.22,1.37,0,3.22,0,5.3,0,0-.08,0-.15,0-.22-1.42,0-2.73-.05-3.86,0Zm0,1.62h-1.45c0,.08,0,.14,0,.22,1.38,0,3.26,0,5.38,0,0-.08,0-.14,0-.22C501.22,283.15,499.88,283.14,498.74,283.15Zm0,1.62h-1.46c0,.08,0,.14,0,.22,1.39,0,3.29,0,5.45,0,0-.08,0-.14,0-.22-1.47,0-2.83,0-4,0Zm0,1.62h-1.48c0,.07,0,.15,0,.22,1.4,0,3.33,0,5.52,0,0-.07,0-.15,0-.22-1.49,0-2.87,0-4,0Zm0,1.62h-1.49c0,.07,0,.15,0,.22,1.41,0,3.36,0,5.59,0,0-.08,0-.15,0-.22-1.52,0-2.91,0-4.09,0Zm0,1.62h-1.5c0,.08,0,.15,0,.22,1.43,0,3.3,0,5.65,0,0-.08,0-.15,0-.22-1.54,0-3,0-4.15,0Zm-1.53,1.61c0,.07,0,.15,0,.22,1.43,0,3.33,0,5.71.05,0-.07,0-.15,0-.22-2.38,0-4.27,0-5.7-.05Zm0,1.61c0,.07,0,.15,0,.22,1.42,0,3,0,5.76.06,0-.07,0-.15,0-.22l-5.76-.06Zm0,1.61c0,.08,0,.15,0,.22l5.82.06c0-.08,0-.15,0-.22l-5.81-.06Zm0,1.61c0,.07,0,.15,0,.22,1.42,0,3,0,5.87.07,0-.07,0-.15,0-.22-2.84,0-4.44,0-5.86-.07Zm0,1.61c0,.07,0,.15,0,.22,1.45,0,3.43.06,5.91.07,0-.07,0-.15,0-.22-2.48,0-4.46,0-5.91-.07Zm0,1.61c0,.07,0,.15,0,.22,1.46,0,3.45.07,6,.07,0-.07,0-.15,0-.22-2.51,0-4.5,0-6-.07Zm0,1.62c0,.07,0,.15,0,.22,1.45,0,3.56.07,6,.07,0-.07,0-.15,0-.22-2.43,0-4.54,0-6-.07Zm0,1.61c0,.07,0,.15,0,.22,1.46,0,3.58.08,6,.07,0-.07,0-.15,0-.22-2.45,0-4.57,0-6-.07Zm0,1.61c0,.07,0,.15,0,.22,1.46.05,3.59.09,6.06.07,0-.07,0-.15,0-.22-2.47,0-4.6,0-6.06-.07Zm0,1.61V306c1.47.06,3.6.11,6.09.08v-.22c-2.49,0-4.62,0-6.09-.07Zm0,1.61v.22c1.47.06,3.6.12,6.1.08v-.22c-2.5,0-4.64,0-6.1-.08Zm0,1.62v.22c1.47.07,3.61.13,6.12.08,0-.07,0-.15,0-.22C500.52,309.12,498.38,309.06,496.92,309Zm0,1.61c0,.07,0,.15,0,.22,1.47.08,3.61.14,6.14.08,0-.07,0-.15,0-.22-2.53.06-4.67,0-6.13-.08Zm0,1.62c0,.07,0,.15,0,.22,1.47.08,3.6.15,6.13.07,0-.07,0-.15,0-.22-2.53.07-4.67,0-6.13-.08Zm0,1.62c0,.07,0,.15,0,.22,1.47.09,3.6.16,6.13.07,0-.07,0-.15,0-.22-2.53.08-4.67,0-6.13-.07Zm0,1.61v.22c1.46.09,3.59.17,6.13.07v-.22C500.5,315.61,498.38,315.54,496.92,315.44Zm0,1.62c0,.08,0,.15,0,.22a57.28,57.28,0,0,0,6.1.07c0-.08,0-.15,0-.22a57,57,0,0,1-6.11-.07Zm0,1.62c0,.07,0,.15,0,.22A53.23,53.23,0,0,0,503,319c0-.07,0-.15,0-.22a52.87,52.87,0,0,1-6.08-.07Zm0,1.62c0,.07,0,.15,0,.22a49.68,49.68,0,0,0,6,.06c0-.07,0-.15,0-.22a49.35,49.35,0,0,1-6-.06Zm0,1.62c0,.07,0,.15,0,.22a46.54,46.54,0,0,0,6,.06c0-.07,0-.15,0-.22a46.24,46.24,0,0,1-6-.06Zm0,1.62c0,.08,0,.15,0,.22a43.8,43.8,0,0,0,5.94.06c0-.08,0-.15,0-.22a43.45,43.45,0,0,1-6-.06Zm0,1.62c0,.07,0,.15,0,.22a41.35,41.35,0,0,0,5.87.05c0-.07,0-.15,0-.22a41,41,0,0,1-5.88-.05Zm0,1.62V327a39.15,39.15,0,0,0,5.78,0v-.22a38.81,38.81,0,0,1-5.79,0Zm.05,1.62v.22a37.24,37.24,0,0,0,5.67,0v-.22a36.86,36.86,0,0,1-5.68,0Zm.06,1.62v.22a35.46,35.46,0,0,0,5.53,0V330a35.12,35.12,0,0,1-5.55,0Zm.08,1.63v.22a34,34,0,0,0,5.37,0v-.22a33.59,33.59,0,0,1-5.39,0Z"/><path d="M501.19,330.86l1.09.1m-1.08-1.71,1.1.09m-1.1-1.7,1.12.09M501.2,326l1.14.08m-1.14-1.69,1.16.08m-1.15-1.69,1.18.08m-1.17-1.68,1.2.07m-1.19-1.68,1.21.07M501.22,318l1.23.06m-1.23-1.67,1.25.06m-1.25-1.67,1.27.05m-1.26-1.66,1.29,0m-1.28-1.66,1.31,0m-1.3-1.65,1.32,0m-1.32-1.65,1.34,0m-1.34-1.64,1.36,0m-1.36-1.64,1.38,0m-1.37-1.63,1.4,0m-1.43-1.63,1.42,0m-1.45-1.63h1.43m-1.47-1.62h1.45m-1.49-1.62h1.47m-1.51-1.61h1.49M501,293.86h1.51m-1.54-1.6h1.53m-1.56-1.6h1.54M500.93,289l1.56,0m-1.6-1.59,1.58,0m-1.62-1.59,1.6,0m-1.64-1.58,1.62,0m-1.65-1.58,1.64,0M500.74,281l1.65,0m-1.69-1.57,1.67,0m-1.71-1.56,1.69-.05m-1.73-1.56,1.71-.05m-1.75-1.55,1.73-.06M500.56,273l1.75-.06m-1.78-1.54,1.76-.07" style="fill:none;stroke:#000;stroke-width:0.6000000238418579px"/><path d="M497.63,330.95l1.09.1m-1.12-1.71,1.1.09m-1.14-1.71,1.12.09m-1.16-1.7,1.14.08m-1.17-1.7,1.16.08m-1.19-1.69,1.18.08m-1.21-1.69,1.2.07m-1.23-1.68,1.21.07M497.37,318l1.23.06m-1.27-1.68,1.25.06m-1.28-1.67,1.27.05m-1.3-1.67,1.29,0m-1.32-1.66,1.31,0M497.2,310l1.32,0m-1.36-1.65,1.34,0m-1.38-1.65,1.36,0m-1.37-1.64,1.38,0m-1.35-1.64,1.4,0m-1.37-1.63,1.42,0m-1.39-1.63h1.43m-1.41-1.63h1.45m-1.42-1.62h1.47m-1.44-1.62h1.49m-1.46-1.61h1.51m-1.48-1.61h1.53m-1.5-1.6h1.54m-1.52-1.6,1.56,0m-1.53-1.59,1.58,0m-1.55-1.59,1.6,0m-1.57-1.59,1.62,0m-1.59-1.58,1.64,0m-1.61-1.58,1.65,0m-1.63-1.57,1.67,0m-1.64-1.57,1.69-.05m-1.66-1.56,1.71-.05m-1.68-1.56,1.73-.06m-1.7-1.55,1.75-.06m-1.72-1.55,1.76-.07" style="fill:none;stroke:#000;stroke-width:0.6000000238418579px"/><path d="M524.66,324.14,524.34,337,507,335.87Z" style="fill:#d20014"/><path d="M558.94,309.14s-1.26,21.12-7.86,31.73L524.13,337l.73-12.86,34.07-22.55Z" style="fill:#0a328c"/><path d="M533.72,276.7a4.42,4.42,0,0,1-3.06.14s-.71.9,1.2,1c0,0,.76.07.25.9" style="fill:#0a328c;stroke:#000;stroke-width:0.2645833194255829px"/><path d="M536,275.1s-2.88-2.29-4.7-2.15-1.91.1-2.07.41a3,3,0,0,0,.34,2.79c.81,1,1.15.79,1.29.57s1.29-.88,3.47-.4" style="fill:#d20014;stroke:#000;stroke-width:0.30000001192092896px"/><path d="M531.45,272.94h-.17c-1.82.14-1.91.1-2.07.41a3.13,3.13,0,0,0-.13,1.74,2.66,2.66,0,0,1,2-.43,7.64,7.64,0,0,1,3.64,1l.23.16,1-.76S533.27,273,531.45,272.94Z" style="fill:#0a328c;stroke:#000;stroke-width:0.5669291615486145px"/><path d="M502.36,327.66,523,309.37l3,6.87-1.89,7.66-16.86,11.44-4.62-1.13-.19-4.13Z" style="fill:#d20014"/><path d="M503,315.88,515.62,300l3.2,6.9-1,6.51-15.08,13.81Z" style="fill:#d20014"/><path d="M515.67,300.33a30.93,30.93,0,0,1,2.15,13l15.38-14,7.34-6.47-.15.1-.95-4.47L539,286l-1.2.29v-1.46l-.2-1.26-1-2-.85-2.14-.2-1.8.4-2.14-.55.24Z" style="fill:#0a328c"/><path d="M561.21,301.4a7.46,7.46,0,0,1,1.7,4.76c.2,3.31.15,5.59.15,5.59a7.3,7.3,0,0,1-4.74.83,7.46,7.46,0,0,0,.45-2.33c0-1.36,0-8.41,0-8.41Z" style="fill:#0a328c;stroke:#000;stroke-width:0.2645833194255829px"/><path d="M559.82,301.84l-1.1.07c0,.13.1,7,0,8.34a7.46,7.46,0,0,1-.45,2.33,5.53,5.53,0,0,0,2.45,0c0-.26.29-4.31.24-6.42A11.09,11.09,0,0,0,559.82,301.84Z" style="fill:#d20014;stroke:#000;stroke-width:0.5669291615486145px"/><path d="M579.25,361.58a2.54,2.54,0,0,1,1.7-1.43s.09-.09-.28-.94a2.34,2.34,0,0,1-.18-1.48c.14-4.52-.32-5.73-.32-5.73.32,0,1.79,1.7,1.79,1.7,0-4.3-6.57-6.31-6.57-6.31,2.39,5.91,1.47,6.58,1.47,6.58,1.52-.63,1.7-1.61,1.7-1.61a27,27,0,0,1,0,4.74s.09,1.48-1.33.76-7.17-3.4-7.17-3.4l-.6,1.16,7.91,3.58s1.15.49.83,1.34-.51,1-.51,1Z" style="fill:#f1b517"/><path d="M578.6,357.1a27,27,0,0,0,0-4.74s-.18,1-1.7,1.61c0,0,.92-.67-1.47-6.58,0,0,6.53,2,6.57,6.31,0,0-1.47-1.7-1.79-1.7,0,0,.46,1.21.32,5.73" style="fill:none;stroke:#000;stroke-width:0.30000001192092896px"/><path d="M579.25,361.58a2.54,2.54,0,0,1,1.7-1.43s.09-.09-.28-.94a2.34,2.34,0,0,1-.18-1.48c.14-4.52-.32-5.73-.32-5.73.32,0,1.79,1.7,1.79,1.7,0-4.3-6.57-6.31-6.57-6.31,2.39,5.91,1.47,6.58,1.47,6.58,1.52-.63,1.7-1.61,1.7-1.61a27,27,0,0,1,0,4.74s.09,1.48-1.33.76-7.17-3.4-7.17-3.4l-.6,1.16,7.91,3.58s1.15.49.83,1.34-.51,1-.51,1" style="fill:none;stroke:#000;stroke-width:0.15000000596046448px"/><path d="M567.2,352.89a1.43,1.43,0,0,0-.84.27.82.82,0,0,0-.32.51,1.29,1.29,0,0,0,.16.79,1.78,1.78,0,0,0,1.44.93,3.2,3.2,0,0,0,.94,0l-.08-.37a2.85,2.85,0,0,1-.81,0,1.37,1.37,0,0,1-1.14-.72.94.94,0,0,1-.13-.56.42.42,0,0,1,.17-.28,1.24,1.24,0,0,1,.6-.19,1,1,0,0,1,.56.1,3.45,3.45,0,0,1,1.13,1.07l.31-.22a3.77,3.77,0,0,0-1.27-1.19,1.48,1.48,0,0,0-.73-.14Z" style="fill:#f1b517;stroke:#000;stroke-width:0.15000000596046448px"/><path d="M567.8,356.93s.18-3,2.11-4c0,0,.46,0,.51.4a25.06,25.06,0,0,1-1.79,3.49Z" style="fill:#f1b517;stroke:#000;stroke-width:0.15000000596046448px"/><path d="M568,356.59s.15-2.46,1.76-3.32c0,0,.38,0,.42.34a20.88,20.88,0,0,1-1.49,2.91Z" style="fill:#f1b517;stroke:#000;stroke-width:0.12497752159833908px"/><ellipse cx="550.33" cy="349.39" rx="2.06" ry="2.01" style="fill:#f1b517;stroke:#000;stroke-linecap:round;stroke-width:0.15000000596046448px"/><path d="M576.87,328.47s3.48.19,3.44,1.87-.56,3.31.6,3.62,3.56.31,4.16.93a2.08,2.08,0,0,1,.6,1.32s-3-1.05-4.32-.31a2.41,2.41,0,0,1-2.92-.82c-.48-.86-.2-2.53-1.12-2.84a21.18,21.18,0,0,0-3.84-.35Z" style="fill:#d20014"/><path d="M551.61,305.42a111.82,111.82,0,0,0-1.09-19.86l-.14-1.59-28.16,26.22s2-2.12,1.36,8.74l2.45,3.71Z" style="fill:#0a328c"/><path d="M551.61,305.42a111.82,111.82,0,0,0-1.09-19.86l-.14-1.59" style="fill:none;stroke:#000;stroke-width:0.2645833194255829px"/><path d="M544.08,264l-3.77,8.56a1.3,1.3,0,0,0-2,0l-.88,1.12m6.62-9.73-7.28,6s1.39.7.55,1.86l-.84,1.15.94.67" style="fill:#f1b517;stroke:#000;stroke-width:0.30000001192092896px"/><polygon points="534.56 271.2 539.74 274.88 538.38 276.69 533.2 273.01 534.56 271.2" style="fill:#f1b517;stroke:#000;stroke-width:0.30000001192092896px"/><polygon points="534.68 271.75 539.16 274.95 538.27 276.14 533.78 272.94 534.68 271.75" style="fill:#f1b517;stroke:#000;stroke-width:0.15000000596046448px"/><path d="M560.82,274.65l-5.11,7.87a1.3,1.3,0,0,0-2-.27l-1.06,1m8.12-8.58-8.17,4.84s1.26.9.24,1.92l-1,1,.82.81" style="fill:#f1b517;stroke:#000;stroke-width:0.30000001192092896px"/><polygon points="550.25 280.24 554.76 284.68 553.13 286.25 548.62 281.82 550.25 280.24" style="fill:#f1b517;stroke:#000;stroke-width:0.30000001192092896px"/><polygon points="550.28 280.81 554.18 284.65 553.11 285.69 549.2 281.84 550.28 280.81" style="fill:#f1b517;stroke:#000;stroke-width:0.15000000596046448px"/><path d="M571.71,292.54l-6.42,6.9a1.29,1.29,0,0,0-1.89-.59l-1.21.78m9.51-7.1-8.9,3.41a1.22,1.22,0,0,1-.1,1.93l-1.18.83.66.94" style="fill:#f1b517;stroke:#000;stroke-width:0.30000001192092896px"/><polygon points="560.32 296.29 563.98 301.41 562.09 302.69 558.43 297.57 560.32 296.29" style="fill:#f1b517;stroke:#000;stroke-width:0.30000001192092896px"/><polygon points="560.24 296.85 563.41 301.29 562.17 302.13 558.99 297.69 560.24 296.85" style="fill:#f1b517;stroke:#000;stroke-width:0.15000000596046448px"/><path d="M535.58,274.7l-32.71,40.44.51.39,32.71-40.44Z" style="fill:#f1b517;stroke:#000;stroke-width:0.30000001192092896px"/><path d="M549.7,284.59l-47.29,42.7.44.46L550.14,285Z" style="fill:#f1b517;stroke:#000;stroke-width:0.30000001192092896px"/><path d="M557.31,301.69,507,335.23l.37.52,50.35-33.54Z" style="fill:#f1b517;stroke:#000;stroke-width:0.30000001192092896px"/><path d="M551.92,285.15s-4.75-.88-5.9-.2,2,.72,2.64.52l-1.2,1.17s-2.72-.64-3.18-3.13,1.36-2.49,1.77-2.45S548.87,281.45,551.92,285.15Z" style="fill:#0a328c;stroke:#000;stroke-width:0.2645833194255829px"/><path d="M545.11,282.53a1,1,0,0,0-.78,1.17,7.83,7.83,0,0,0,.41,1.17l.06-.07a3.8,3.8,0,0,0,.52.63l.47-.15c-.06-.09,0-.2.23-.33a1.65,1.65,0,0,1,.51-.17,7,7,0,0,1,2.42,0l1.44.08s-4.3-2.58-5.29-2.3Z" style="fill:#d20014;stroke:#000;stroke-width:0.15000000596046448px"/><path d="M550,284.67s-5.29-1.54-5.29-.05" style="fill:none;stroke:#000;stroke-width:0.15000000596046448px"/><path d="M551.92,285.15s-4.75-.88-5.9-.2,2,.72,2.64.52l-1.2,1.17s-2.72-.64-3.18-3.13,1.36-2.49,1.77-2.45S548.87,281.45,551.92,285.15Z" style="fill:none;stroke:#000;stroke-width:0.30000001192092896px"/><path d="M551.31,285.11a5.73,5.73,0,0,0-.19,1.68c1.55,3.84,3.65,3.93,2.82,8.6l1.63,0a12.06,12.06,0,0,0-.59-5.13,6.4,6.4,0,0,0-1.16-1.53c-.5-.53-1-1-1.42-1.44a1.66,1.66,0,0,1-.23-1.82Z" style="fill:#0a328c;stroke:#000;stroke-width:0.15000000596046448px"/><path d="M550.3,284.74a5.33,5.33,0,0,0-.29,1.77,5.14,5.14,0,0,0,.29,1.71,16.14,16.14,0,0,1,.55,1.88,26.17,26.17,0,0,1,.51,5.36l2.59-.07c.82-4.67-1.28-4.75-2.82-8.6a5.73,5.73,0,0,1,.19-1.68Z" style="fill:#d20014;stroke:#000;stroke-width:0.2645833194255829px"/><path d="M552.17,285.43a1.66,1.66,0,0,0,.23,1.82c.38.4.92.91,1.42,1.44a6.4,6.4,0,0,1,1.16,1.53,12.06,12.06,0,0,1,.59,5.13m0,0-4.22.11a26.17,26.17,0,0,0-.51-5.36,16.15,16.15,0,0,0-.55-1.88,5.14,5.14,0,0,1-.29-1.71,5.33,5.33,0,0,1,.29-1.77l1.87.68" style="fill:none;stroke:#000;stroke-width:0.30000001192092896px"/><path d="M552.7,295.4a7.29,7.29,0,0,0-.76-4.85c-1.36-2.33-1.76-5.88-1.05-5.64" style="fill:none;stroke:#000;stroke-width:0.15000000596046448px"/><path d="M548,332.65l-3.64,6.21-14.39,1-1.36.18s-2.1,4.82-4.44,5.47-17.95,5.38-17.95,5.38l-.48-3.48,10.12-3.18s3-1.06,3.85-2.19,8.24-8,8.24-8Z" style="fill:#f1b517;stroke:#000;stroke-width:0.15734830498695374px"/><path d="M541.53,316.83l-20.92,33.94.44.26L542,317.09Z" style="fill:#f1b517;stroke:#000;stroke-width:0.30000001192092896px"/><path d="M541.11,318.2s.59.54,1.32-.33,2.88-4.47,3.29-5.12.94-1.2.24-1.63-1.67.11-2.47,1.74S540.05,317.33,541.11,318.2Z" style="fill:#fff;stroke:#000;stroke-width:0.30000001192092896px"/><path d="M559.62,322.86c.78-.1,2.11,1.39,2.47,4s0,4.76-.77,4.87c-.29,0-.6-.22-.91-.72l-41.76,5.47-.88-7.68L559.21,324C559.34,323,559.23,322.91,559.62,322.86Z" style="fill:#f1b517;stroke:#000;stroke-width:0.5669291615486145px"/><path d="M519.43,328.61a5.15,5.15,0,0,1,.34.63m.56-.73a5.15,5.15,0,0,1,.34.63m.56-.73a5.15,5.15,0,0,1,.34.63m.56-.73a5.15,5.15,0,0,1,.34.63m.56-.73a5.15,5.15,0,0,1,.34.63m.56-.73a5.15,5.15,0,0,1,.34.63m.56-.73a5.15,5.15,0,0,1,.34.63m.56-.73a5.14,5.14,0,0,1,.34.63m.56-.73a5.14,5.14,0,0,1,.34.63m.56-.73a5.14,5.14,0,0,1,.34.63m.56-.73a5.14,5.14,0,0,1,.34.63m.56-.73a5.14,5.14,0,0,1,.34.63m.56-.73a5.14,5.14,0,0,1,.34.63m.56-.73a5.14,5.14,0,0,1,.34.63m.56-.73a5.14,5.14,0,0,1,.34.63m.56-.73a5.14,5.14,0,0,1,.34.63m.56-.73a5.14,5.14,0,0,1,.34.63m.56-.73a5.14,5.14,0,0,1,.34.63m.56-.73a5.14,5.14,0,0,1,.34.63m.56-.73a5.14,5.14,0,0,1,.34.63m.56-.73a5.14,5.14,0,0,1,.34.63m.56-.73a5.14,5.14,0,0,1,.34.63m.56-.73a5.14,5.14,0,0,1,.34.63m.56-.73a5.14,5.14,0,0,1,.34.63m.56-.73a5.14,5.14,0,0,1,.34.63M542,326a5.14,5.14,0,0,1,.34.63m.56-.73a5.14,5.14,0,0,1,.34.63m.56-.73a5.14,5.14,0,0,1,.34.63m.56-.73a5.14,5.14,0,0,1,.34.63m.56-.73a5.14,5.14,0,0,1,.34.63m.56-.73a5.14,5.14,0,0,1,.34.63m.56-.73a5.14,5.14,0,0,1,.34.63m.56-.73a5.14,5.14,0,0,1,.34.63m.56-.73a5.14,5.14,0,0,1,.34.63m.56-.73a5.14,5.14,0,0,1,.34.63M551,325a5.14,5.14,0,0,1,.34.63m.56-.73a5.14,5.14,0,0,1,.34.63m.56-.73a5.14,5.14,0,0,1,.34.63m.56-.73a5.14,5.14,0,0,1,.34.63m.56-.73a5.14,5.14,0,0,1,.34.63m.56-.73a5.14,5.14,0,0,1,.34.63m.56-.73a5.14,5.14,0,0,1,.34.63m.56-.73a5.14,5.14,0,0,1,.34.63m.56-.73a5.14,5.14,0,0,1,.34.63m.56-.73a5.14,5.14,0,0,1,.34.63" style="fill:#f4cf0e;stroke:#000;stroke-linecap:round;stroke-width:0.15000000596046448px"/><path d="M560.64,326.5,518.34,332" style="fill:none;stroke:#000;stroke-width:0.2645833194255829px"/><path d="M560.76,327.43,518.47,333" style="fill:none;stroke:#000;stroke-width:0.2645833194255829px"/><path d="M560.89,328.35l-42.3,5.54" style="fill:none;stroke:#000;stroke-width:0.2645833194255829px"/><path d="M561,328.81l-42.3,5.54" style="fill:none;stroke:#000;stroke-width:0.2645833194255829px"/><path d="M561,329.28l-42.3,5.54" style="fill:none;stroke:#000;stroke-width:0.2645833194255829px"/><path d="M561.08,329.74l-42.3,5.54" style="fill:none;stroke:#000;stroke-width:0.2645833194255829px"/><path d="M561.15,330.2l-42.3,5.54" style="fill:none;stroke:#000;stroke-width:0.2645833194255829px"/><path d="M561.21,330.66l-42.3,5.54" style="fill:none;stroke:#000;stroke-width:0.2645833194255829px"/><path d="M553.34,324c.74,0,1.47,1.83,1.64,4.19h0c.17,2.36-.29,4.31-1,4.35h0a.59.59,0,0,1-.42-.18,7.21,7.21,0,0,0,.59-4.06c-.13-1.86-.63-3.48-1.22-4a.62.62,0,0,1,.44-.29Z" style="fill:#f1b517;stroke:#000;stroke-linecap:round;stroke-width:0.15000000596046448px"/><path d="M523.76,327.87c.74,0,1.47,1.83,1.64,4.19h0c.17,2.36-.29,4.31-1,4.35h0a.59.59,0,0,1-.42-.18,7.21,7.21,0,0,0,.59-4.06c-.13-1.86-.63-3.48-1.22-4a.62.62,0,0,1,.44-.29Z" style="fill:#f1b517;stroke:#000;stroke-linecap:round;stroke-width:0.15000000596046448px"/><path d="M517.56,331.31l-2.36-.15s-1.45.48-1.54,1.09a4.79,4.79,0,0,0,0,1.73c.12.24,2.87.72,3.83-.12Z" style="fill:#f1b517;stroke:#000;stroke-width:0.15000000596046448px"/><path d="M513.67,332.24a14.47,14.47,0,0,0,3.87,0l-.05,1.59c-1,.84-3.72.36-3.83.12a4.79,4.79,0,0,1,0-1.73h0Z"/><path d="M518,328.55a.36.36,0,0,1,.29.17,13.43,13.43,0,0,0-.15,3.69,11.47,11.47,0,0,0,.82,3.91c-.11.31-.24.48-.39.49-.51,0-1-1.77-1.21-4h0c-.16-2.28.13-4.17.64-4.21h0Z" style="fill:#f1b517;stroke:#000;stroke-linecap:round;stroke-width:0.5669291615486145px"/><path d="M541.79,328.62v0a1,1,0,0,0-.83,1v7l5-4.92a1,1,0,0,0,.15-1.29l0,0,2.19,2.13h0a1.09,1.09,0,0,0-1.42.07l-5.13,5h7.31a1.06,1.06,0,0,0,1-.81h0v3h0a1.05,1.05,0,0,0-1.06-.93h-7.26l5.17,5a1.09,1.09,0,0,0,1.33.14l0,0-2.19,2.13h0a1,1,0,0,0-.08-1.38l-5.13-5v7.12a1,1,0,0,0,.83,1v0H538.7a1,1,0,0,0,1-1v-7.23l-5.25,5.11a1,1,0,0,0-.08,1.38h0l-2.19-2.13,0,0a1.09,1.09,0,0,0,1.33-.14l5.17-5h-7.26a1.05,1.05,0,0,0-1.06.93h0v-3h0a1.06,1.06,0,0,0,1,.81h7.31l-5.13-5a1.09,1.09,0,0,0-1.42-.07h0l2.19-2.13,0,0a1,1,0,0,0,.15,1.29l5.17,5v-7.07a1,1,0,0,0-1-1h3.09Z" style="fill:#f1b517;stroke:#000;stroke-linecap:round;stroke-width:0.5669291615486145px"/><ellipse cx="540.3" cy="338.38" rx="1.97" ry="1.92" style="fill:#f1b517;stroke:#000;stroke-linecap:round;stroke-width:0.15000000596046448px"/><path d="M540.3,325.6a12.86,12.86,0,0,1,13,12.69h0a12.86,12.86,0,0,1-13,12.69h0a12.86,12.86,0,0,1-13-12.69h0a12.86,12.86,0,0,1,13-12.69Zm0,3.23a9.46,9.46,0,1,0,9.72,9.46A9.59,9.59,0,0,0,540.3,328.83Z" style="fill:#f1b517;stroke:#000;stroke-linecap:round;stroke-width:0.5669291019439697px"/><ellipse cx="540.3" cy="327.17" rx="0.42" ry="0.41"/><ellipse cx="540.3" cy="349.3" rx="0.42" ry="0.41"/><path d="M532,330.12a.4.4,0,0,0,0,.57.42.42,0,0,0,.59,0,.4.4,0,0,0,0-.57A.42.42,0,0,0,532,330.12Z"/><path d="M548,345.77a.4.4,0,0,0,0,.57.42.42,0,0,0,.59,0,.4.4,0,0,0,0-.57A.42.42,0,0,0,548,345.77Z"/><path d="M548.63,330.12a.4.4,0,0,1,0,.57.42.42,0,0,1-.59,0,.4.4,0,0,1,0-.57A.42.42,0,0,1,548.63,330.12Z"/><path d="M532.56,345.77a.4.4,0,0,1,0,.57.42.42,0,0,1-.59,0,.4.4,0,0,1,0-.57A.42.42,0,0,1,532.56,345.77Z"/><ellipse cx="551.67" cy="338.23" rx="0.42" ry="0.41"/><ellipse cx="528.94" cy="338.23" rx="0.42" ry="0.41"/><path d="M551.22,342.54a.42.42,0,0,1-.54.22.4.4,0,0,1-.23-.53A.42.42,0,0,1,551,342,.4.4,0,0,1,551.22,342.54Z"/><path d="M530.16,334.23a.42.42,0,0,1-.54.22.4.4,0,0,1-.23-.53.42.42,0,0,1,.54-.22A.4.4,0,0,1,530.16,334.23Z"/><path d="M529.49,342.79a.42.42,0,0,0,.55.21.4.4,0,0,0,.22-.53.42.42,0,0,0-.55-.21A.4.4,0,0,0,529.49,342.79Z"/><path d="M550.35,334a.42.42,0,0,0,.55.21.4.4,0,0,0,.22-.53.42.42,0,0,0-.55-.21A.4.4,0,0,0,550.35,334Z"/><path d="M535.68,327.68a.4.4,0,0,0-.22.53.42.42,0,0,0,.55.21.4.4,0,0,0,.22-.53A.42.42,0,0,0,535.68,327.68Z"/><path d="M544.59,348a.4.4,0,0,0-.22.53.42.42,0,0,0,.55.21.4.4,0,0,0,.22-.53A.42.42,0,0,0,544.59,348Z"/><path d="M544.92,327.68a.4.4,0,0,1,.22.53.42.42,0,0,1-.55.21.4.4,0,0,1-.22-.53A.42.42,0,0,1,544.92,327.68Z"/><path d="M536,348a.4.4,0,0,1,.22.53.42.42,0,0,1-.55.21.4.4,0,0,1-.22-.53A.42.42,0,0,1,536,348Z"/><ellipse cx="555.35" cy="349.39" rx="2.06" ry="2.01" style="fill:#f1b517;stroke:#000;stroke-linecap:round;stroke-width:0.15000000596046448px"/><path d="M504.62,322.74s5.08,2.13,5.52-1.53c0,0,3.06,3.75-1.14,6.14,0,0,1.93-3-4.38-3.32,0,0-.88.09-.79-.6A.79.79,0,0,1,504.62,322.74Z" style="fill:#fff;stroke:#000;stroke-width:0.15000000596046448px"/><path d="M503.83,323.54a47.41,47.41,0,0,1,4.91.73,3.76,3.76,0,0,0,2.48-.2,3.68,3.68,0,0,1-2.22,3.27s1.93-3-4.38-3.32c0,0-.77.07-.79-.48Z"/><path d="M506.86,322.71l.43.06-1.75,11.42-.43-.06Z" style="fill:#fff;stroke:#000;stroke-width:0.15000000596046448px"/><path d="M506.69,322.68l.77.11-.35,2.3-.77-.11Z" style="fill:#fff;stroke:#000;stroke-width:0.15000000596046448px"/><ellipse cx="516.61" cy="353.12" rx="3.08" ry="1.41" style="fill:#fff;stroke:#000;stroke-width:0.15000000596046448px"/><path d="M516.34,336.37c.28,0,.56,0,.64.2.15.33-.3.41-.3.41v1.88c0,.59.49,9.49.72,11.22a6.32,6.32,0,0,0,.4,1.56s2.18.25,2.06,1.21-1.29,1.59-3.26,1.55c-2.43-.05-3.11-.55-3.22-1.14s.57-1.14,1.59-1.33l.53-3s-.11.44-1.52.15-1.37-2.36-1.37-2.36,0-6.2,0-7.35a2.17,2.17,0,0,1,1.63-2c.72-.11,1.21,0,1.29.44s.27.52.38.37a4.6,4.6,0,0,0,0-1.26s-.53-.26-.3-.41a1.71,1.71,0,0,1,.69-.16Zm-1.83,2.12-.49.26-.15,1.33v6.72l.08.44.64.52.72-.15.38-.44.27-6,.08-1.92-.91-.59Z" style="fill:#f1b517;stroke:#000;stroke-width:0.5669291615486145px"/><path d="M514.77,352.63s.83-2.07,1-7.5.27-5.87,0-6.13-1-.7-1.48-.44-.34.33-.42,1.26-.08,6.9-.08,6.9.23,1,.8,1,1-.26,1.06-.66" style="fill:none;stroke:#000;stroke-width:0.15000000596046448px"/><path d="M518.41,352.74a5.37,5.37,0,0,1-1-2.66c-.23-1.74-.72-10.63-.72-11.22V337" style="fill:none;stroke:#000;stroke-width:0.15000000596046448px"/><path d="M527.58,346.29s-2.78.08-3.69,1.75-.41,3.27.66,3.91,3.36,1.12,4.42.48,1.8-2.71.57-2.95-3.28-.64-3-1.44,1.31-.8,1.31-.8Z" style="fill:#fff;stroke:#000;stroke-width:0.2645833194255829px"/><polygon points="527.21 345.92 527.71 345.84 528.12 347.61 527.61 347.69 527.21 345.92" style="fill:#fff;stroke:#000;stroke-width:0.15014049410820007px"/><path d="M566.72,337.57l-11.76,6,.06.12.83.15L567,338.13Z" style="fill:#fff;stroke:#000;stroke-width:0.30000001192092896px"/><path d="M567.07,337.85l-6.63,11.42,1.07-.57,6.12-10.54Z" style="fill:#fff;stroke:#000;stroke-width:0.30000001192092896px"/><path d="M578.39,326.75h0a.33.33,0,0,0-.22.1L567,337.63a.31.31,0,0,0,0,.45.33.33,0,0,0,.46,0h0l11-10.6v-.72h0Z"/><path d="M568.82,336a.33.33,0,0,0-.22.1l-11.08,10.71,1,0,10.57-10.21a.31.31,0,0,0,0-.45A.33.33,0,0,0,568.82,336Z" style="fill:#fff;stroke:#000;stroke-linecap:round;stroke-width:0.30000001192092896px"/><ellipse cx="526.84" cy="357.44" rx="2.06" ry="2.01" style="fill:#f1b517;stroke:#000;stroke-linecap:round;stroke-width:0.15000000596046448px"/><ellipse cx="531.77" cy="353.41" rx="2.06" ry="2.01" style="fill:#f1b517;stroke:#000;stroke-linecap:round;stroke-width:0.15000000596046448px"/><ellipse cx="539.35" cy="353.89" rx="2.06" ry="2.01" style="fill:#f1b517;stroke:#000;stroke-linecap:round;stroke-width:0.15000000596046448px"/><ellipse cx="545.11" cy="356.96" rx="2.06" ry="2.01" style="fill:#f1b517;stroke:#000;stroke-linecap:round;stroke-width:0.15000000596046448px"/><ellipse cx="550.13" cy="356.96" rx="2.06" ry="2.01" style="fill:#f1b517;stroke:#000;stroke-linecap:round;stroke-width:0.15000000596046448px"/><ellipse cx="555.16" cy="356.96" rx="2.06" ry="2.01" style="fill:#f1b517;stroke:#000;stroke-linecap:round;stroke-width:0.15000000596046448px"/><ellipse cx="560.18" cy="356.96" rx="2.06" ry="2.01" style="fill:#f1b517;stroke:#000;stroke-linecap:round;stroke-width:0.15000000596046448px"/><ellipse cx="547.67" cy="353.22" rx="2.06" ry="2.01" style="fill:#f1b517;stroke:#000;stroke-linecap:round;stroke-width:0.15000000596046448px"/><ellipse cx="552.7" cy="353.22" rx="2.06" ry="2.01" style="fill:#f1b517;stroke:#000;stroke-linecap:round;stroke-width:0.15000000596046448px"/><ellipse cx="557.72" cy="353.22" rx="2.06" ry="2.01" style="fill:#f1b517;stroke:#000;stroke-linecap:round;stroke-width:0.15000000596046448px"/><path d="M537,276.06a2.88,2.88,0,0,0,1.22,2.52c1.38.95,3,2,3.65,4.65s.16,2.37.16,2.37l-4.29.71a4.52,4.52,0,0,0-.57-3.39c-1.05-1.5-2.59-5.84-1.13-7.57Z" style="fill:#d20014;stroke:#000;stroke-width:0.30000001192092896px"/><path d="M536.88,276a2.85,2.85,0,0,0,.3,3.1c1.3,1.34,2.51,2,3,3.79a28.38,28.38,0,0,1,.6,3l1.26-.21s.49.32-.16-2.37-2.27-3.71-3.65-4.65a2.88,2.88,0,0,1-1.22-2.52Z" style="fill:#0a328c;stroke:#000;stroke-width:0.5669291615486145px"/><path d="M536.37,275.27a4.63,4.63,0,0,0,.08,3.63c.89,1.81,1.78,2.68,2.27,3.87s0,2.29.57,3.16" style="fill:none;stroke:#000;stroke-width:0.15000000596046448px"/><path d="M570,355a.17.17,0,0,0-.15.18.17.17,0,0,0,.19.15h0a6.43,6.43,0,0,1,5.12,1.72.18.18,0,0,0,.24,0,.17.17,0,0,0,0-.24l0,0A6.81,6.81,0,0,0,570,355Z" style="fill:#fff;stroke:#000;stroke-linecap:round;stroke-width:0.15000000596046448px"/><path d="M575.11,358.21a1.43,1.43,0,0,0,.37.88A3.38,3.38,0,0,0,578,360v-.34a3,3,0,0,1-2.31-.77,1,1,0,0,1-.29-.65Z" style="fill:#fff;stroke:#000;stroke-width:0.15000000596046448px"/><path d="M579.25,361.58a2.54,2.54,0,0,1,1.7-1.43s.09-.09-.28-.94a2.34,2.34,0,0,1-.18-1.48c.14-4.52-.32-5.73-.32-5.73.32,0,1.79,1.7,1.79,1.7,0-4.3-6.57-6.31-6.57-6.31,2.39,5.91,1.47,6.58,1.47,6.58,1.52-.63,1.7-1.61,1.7-1.61a27,27,0,0,1,0,4.74s.09,1.48-1.33.76c-.76-.38-4.46-2.13-4.46-2.13l-.35,1.23,4.95,2.24s1.15.49.83,1.34-.51,1-.51,1Z" style="fill:#f1b517"/><path d="M570.79,354.94l.18.34.26,0-.17-.35Zm.87.07.12.35.25,0-.12-.36Zm.94.19c0,.12,0,.23.06.37l.24.08c0-.13,0-.25-.05-.37Zm.94.33c0,.12,0,.24,0,.37l.22.11c0-.13,0-.25,0-.37l-.23-.11Zm.87.47-.08.35.2.14c0-.12.06-.24.08-.36Z"/><path d="M575.66,358.77l-.16.34.17.17.15-.32-.08-.09Zm.47.42,0,.36.22.1,0-.35Zm.55.24.07.37.24.06-.07-.36Zm.49.12.16.36.26,0-.16-.36Z"/><path d="M558.62,297.75s-2.6-1.22-3.2-.19a4.48,4.48,0,0,0,0,4.28s3.7.44,5.59-.19l.25-.15Z" style="fill:#0a328c;stroke:#000;stroke-width:0.30000001192092896px"/><path d="M556,298.87a2.62,2.62,0,0,0-1.12.26,3.92,3.92,0,0,0,.5,2.71,19,19,0,0,0,5.24-.09c-.95-.29-2.58-1.81-3.69-2.58A1.67,1.67,0,0,0,556,298.87Z" style="fill:#d20014;stroke:#000;stroke-width:0.5669291615486145px"/><path d="M554.92,300.91a3.5,3.5,0,0,1,3.25,0c2,.87,2,.73,2,.73" style="fill:none;stroke:#000;stroke-width:0.15000000596046448px"/><path d="M558.62,297.75s-2.6-1.22-3.2-.19a4.48,4.48,0,0,0,0,4.28s3.7.44,5.59-.19l.25-.15Z" style="fill:none;stroke:#000;stroke-width:0.30000001192092896px"/><path d="M559.37,301.88a27.72,27.72,0,0,1,.5,5.1c.1,3.45-.65,5.78-.95,5.74" style="fill:none;stroke:#000;stroke-width:0.15000000596046448px"/><path d="M561.21,301.4a7.46,7.46,0,0,1,1.7,4.76c.2,3.31.15,5.59.15,5.59a7.3,7.3,0,0,1-4.74.83,7.46,7.46,0,0,0,.45-2.33c0-1.36,0-8.41,0-8.41" style="fill:none;stroke:#000;stroke-width:0.2645833194255829px"/><path d="M538.89,286a59.55,59.55,0,0,1,1.35,7" style="fill:none;stroke:#000;stroke-width:0.30000001192092896px"/><path d="M525.4,323.2s1.36-1.43,1.45-2,.06-1.62-.78-1.64-4.84-.67-6.05.27-1.43,1.43-1.19,1.92a2.66,2.66,0,0,0,2.05,1.22c.82,0,1.62.32,1.95.13s1.73-1.81,2.1-.36l0,.48Z" style="fill:#d20014;stroke:#000;stroke-width:0.15000000596046448px"/><path d="M521.54,328.65s.82-3.81,2.19-5.5c0,0,1.73-.44,2.37,0s-.09-.53.64.35.73,4.26.73,4.26l.91.8c-2.37,1.06-6.83.09-6.83.09Z" style="fill:#f1b617;stroke:#000;stroke-width:0.15000000596046448px"/><path d="M528.19,328.45c-2.19,1.15-6.65.27-6.65.27s-.73,1.68,0,1.42.36.62,1.09,0,.73-.8.73-.8a37.23,37.23,0,0,0,5-.27Z" style="stroke:#000;stroke-width:0.15000000596046448px"/><path d="M524.19,323.7a4.79,4.79,0,0,0,.67.11m-.69.37a4.61,4.61,0,0,0,.66.1m-.68.38a4.46,4.46,0,0,0,.66.09m-.68.39a4.34,4.34,0,0,0,.66.08m-.68.39a4.24,4.24,0,0,0,.66.07m-.68.4a4.16,4.16,0,0,0,.66.07m-.67.41a4.11,4.11,0,0,0,.65.06m-.67.42a4.07,4.07,0,0,0,.65,0m-.67.43a4.05,4.05,0,0,0,.65,0M524,328a4.07,4.07,0,0,0,.65,0m-.67.45a4.08,4.08,0,0,0,.64,0" style="fill:none;stroke:#000;stroke-width:0.15000000596046448px"/><path d="M525.54,323.9a1,1,0,0,0,.68-.35m-.72.81a1.42,1.42,0,0,0,.83-.39m-.87.85a1.93,1.93,0,0,0,1-.43m-1,.89a2.5,2.5,0,0,0,1.14-.47m-1.17.93a3.13,3.13,0,0,0,1.29-.51m-1.32,1a3.8,3.8,0,0,0,1.44-.55m-1.48,1a4.52,4.52,0,0,0,1.59-.59m-1.63,1a5.29,5.29,0,0,0,1.74-.63m-1.78,1.09a6.08,6.08,0,0,0,1.89-.67M525.2,328a6.92,6.92,0,0,0,2-.71m-2.08,1.17a7.78,7.78,0,0,0,2.2-.75" style="fill:none;stroke:#000;stroke-width:0.15000000596046448px"/><path d="M523.91,321.69,522.46,323m.51-1.38L522,323m0-1.36-.46,1.31m-.47-1.34,0,1.3m-1-1.33.52,1.28m-1.46-1.31,1,1.26" style="fill:#d20014;stroke:#000;stroke-width:0.15000000596046448px"/><path d="M519.78,321.65l.63,1.2" style="fill:#d20014;stroke:#000;stroke-width:0.15000000596046448px"/><path d="M529.61,276.15s1.22-1.62,4.83-.21" style="fill:none;stroke:#000;stroke-width:0.15000000596046448px"/><path d="M461.37,360.43c-.48,1.74-1.43,6.14-1.43,6.14,9.53,4.31,36.42,4.51,38.92,4.52h.48c2.51,0,30.2-.2,39.75-4.52,0,0-1-4.4-1.43-6.14,0,0-1.19,3.94-38.56,4.63-37.37-.7-37.73-4.63-37.73-4.63Z" style="fill:#fff;stroke:#000;stroke-width:0.3253130316734314px"/><path d="M531,359.55c.52-1.33,4.82-1.22,8.18-.2s5.24.71,12.47.82a35.63,35.63,0,0,1,11.95,1.94c.63.2,11.53,5.41,15.72,6.73a14.65,14.65,0,0,0,8.18,0,10,10,0,0,1-11.64.92s5.66,3.06,9.33,3.47c0,0-5.47,1.12-10.1-.83a11.23,11.23,0,0,1-1.22-.6,82.46,82.46,0,0,0-7.81-3.33c-13.26-4.8-18.42-1.74-27.52-4" style="fill:#fff;stroke:#000;stroke-width:0.30000001192092896px"/><path d="M566.53,368.22c4.26,1.4,6.32,2.69,8.65,3.54m-8.12-4.31c3.7,1.28,5.82,2.5,8.09,3.36m-7.56-4.13c3.13,1.16,5.32,2.32,7.53,3.17m-7-4c2.57,1,4.82,2.13,7,3m-6.44-3.77c2,.91,4.33,1.94,6.4,2.81" style="fill:none;stroke:#000;stroke-width:0.30000001192092896px"/><path d="M561.54,366.17s-6-1.75-10.58-1.21m9.91.11a35.58,35.58,0,0,0-10.52-1.12m9.85,0a40.49,40.49,0,0,0-10.47-1m9.79-.05a47.87,47.87,0,0,0-10.41-1m9.74-.14a60.14,60.14,0,0,0-10.36-.88" style="fill:none;stroke:#000;stroke-width:0.2645833194255829px"/><path d="M543,360.8s-2.69-.64-5.4-1c-2.31-.32-4.62-.46-5.3.14" style="fill:none;stroke:#000;stroke-width:0.30000001192092896px"/><path d="M543.47,361.73a53.08,53.08,0,0,1-5.68-1" style="fill:none;stroke:#000;stroke-width:0.30000001192092896px"/><path d="M544,362.66a22.61,22.61,0,0,1-6-.89" style="fill:none;stroke:#000;stroke-width:0.30000001192092896px"/><path d="M544.48,363.59s-4,.25-6.25-.83" style="fill:none;stroke:#000;stroke-width:0.30000001192092896px"/><path d="M545,364.43s-4.51.49-6.54-.68" style="fill:none;stroke:#000;stroke-width:0.30000001192092896px"/><path d="M531,359.36c.62,1.17,4.19.52,6.48,1.24-.55.47-2.13,1.3-6.55,2.13C530.18,360,531,359.36,531,359.36Z" style="fill:#fff;stroke:#000;stroke-width:0.3121396005153656px"/><rect x="492.34" y="336.6" width="15.28" height="13.89" style="fill:#f1b517;stroke:#000;stroke-linecap:round;stroke-width:0.14999999105930328px"/><path d="M499.89,349.94c1,0,2,0,2.87-.14m-2.87-.61c1,0,2,0,2.87-.14m-2.87-.61c1,0,2,0,2.87-.14m-2.87-.61c1,0,2,0,2.87-.14m-2.87-.61c1,0,2,0,2.87-.14m-2.87-.61c1,0,2,0,2.87-.14m-2.87-.61c1,0,2,0,2.87-.14m-2.87-.61c1,0,2,0,2.87-.14m-2.87-.61c1,0,2,0,2.87-.14m-2.87-.61c1,0,2,0,2.87-.14m-2.87-.61c1,0,2,0,2.87-.14m-2.87-.61c1,0,2,0,2.87-.14m-2.87-.61c1,0,2,0,2.87-.14m-2.87-.61c1,0,2,0,2.87-.14m-2.87-.61c1,0,2,0,2.87-.14" style="fill:#d20014;stroke:#000;stroke-linecap:round;stroke-width:0.15000000596046448px"/><path d="M507.51,348.65a9.3,9.3,0,0,1-2.36.83m2.36-1.58a9.3,9.3,0,0,1-2.36.83m2.36-1.58a9.3,9.3,0,0,1-2.36.83m2.36-1.58a9.3,9.3,0,0,1-2.36.83m2.36-1.58a9.3,9.3,0,0,1-2.36.83m2.36-1.58a9.3,9.3,0,0,1-2.36.83m2.36-1.58a9.3,9.3,0,0,1-2.36.83m2.36-1.58a9.3,9.3,0,0,1-2.36.83m2.36-1.58a9.3,9.3,0,0,1-2.36.83m2.36-1.58a9.3,9.3,0,0,1-2.36.83m2.36-1.58a9.3,9.3,0,0,1-2.36.83m2.36-1.58a9.3,9.3,0,0,1-2.36.83m2.36-1.58a9.3,9.3,0,0,1-2.36.83m2.36-1.58a9.3,9.3,0,0,1-2.36.83m2.36-1.58a9.3,9.3,0,0,1-2.36.83" style="fill:#fff;stroke:#000;stroke-linecap:round;stroke-width:0.15000000596046448px"/><path d="M496.38,339.31a14.28,14.28,0,0,1-3.56-.87m3.56,1.62a14.28,14.28,0,0,1-3.56-.87m3.56,1.62a14.28,14.28,0,0,1-3.56-.87m3.56,1.62a14.28,14.28,0,0,1-3.56-.87m3.56,1.62a14.28,14.28,0,0,1-3.56-.87m3.56,1.62a14.28,14.28,0,0,1-3.56-.87m3.56,1.62a14.28,14.28,0,0,1-3.56-.87m3.56,1.62a14.28,14.28,0,0,1-3.56-.87m3.56,1.62a14.28,14.28,0,0,1-3.56-.87m3.56,1.62a14.28,14.28,0,0,1-3.56-.87m3.56,1.62a14.28,14.28,0,0,1-3.56-.87m3.56,1.62a14.28,14.28,0,0,1-3.56-.87m3.56,1.62a14.28,14.28,0,0,1-3.56-.87m3.56,1.62a14.28,14.28,0,0,1-3.56-.87m3.56,1.62a14.28,14.28,0,0,1-3.56-.87" style="fill:none;stroke:#000;stroke-linecap:round;stroke-width:0.15000000596046448px;opacity:0.9800000190734863;isolation:isolate"/><path d="M499.89,332.47c-4.33,0-7.83.89-7.83,2h0a.61.61,0,0,0,.12.34v1.9a.61.61,0,0,0-.12.34.61.61,0,0,0,.12.35v.36h.4c1.16.77,4.07,1.27,7.31,1.27s6.14-.51,7.3-1.27h.48v-.5a.54.54,0,0,0,0-.21.55.55,0,0,0,0-.19v-2.2a.55.55,0,0,0,0-.19c0-1.1-3.51-2-7.83-2h0Zm0,1.34h1.23l.43,0,.36,0,.38,0,.39,0,.33,0,.4,0,.3,0,.39.06.27,0,.33.06.21,0h0a6.8,6.8,0,0,1,2.35.85c-1.12.79-4.06,1.31-7.36,1.32s-6.24-.53-7.36-1.31c.93-.66,3.15-1.14,5.84-1.28l.77,0h.75Z" style="fill:#d20014;stroke:#000;stroke-linecap:round;stroke-width:0.15000000596046448px"/><path d="M499.89,333.82c-3.3,0-6.25.53-7.36,1.32,1.12.79,4.06,1.31,7.36,1.31s6.25-.53,7.36-1.32c-1.12-.79-4.06-1.31-7.36-1.31Z" style="fill:#fff;stroke:#000;stroke-linecap:round;stroke-width:0.15000000596046448px"/><path d="M499.72,332.48h-.63v1.35h.63Zm4.29.3v1.35l.63.11v-1.35Zm-8.69.08-.63.13v1.34l.63-.13Z" style="fill:#fff;stroke:#000;stroke-linecap:round;stroke-width:0.14999999105930328px"/><path d="M504.85,336l-.73.13v2.57l.73-.13Zm-7.22.36v2.58l.73,0v-2.58l-.73,0Z" style="fill:#fff;stroke:#000;stroke-linecap:round;stroke-width:0.14999999105930328px"/><path d="M507.67,349.14a5.43,5.43,0,0,1-1.16.48,24,24,0,0,1-13.23,0,5.68,5.68,0,0,1-1.1-.44v1.62a.61.61,0,0,0-.12.34.61.61,0,0,0,.12.35v.36h.4c1.16.77,4.07,1.27,7.31,1.27s6.14-.51,7.3-1.27h.48v-.5a.54.54,0,0,0,0-.21.55.55,0,0,0,0-.19Z" style="fill:#d20014;stroke:#000;stroke-linecap:round;stroke-width:0.15000000596046448px"/><path d="M492.34,337.93v2.23l2.8,10,.66.11Z" style="fill:#d20014;stroke:#000;stroke-width:0.15000000596046448px"/><path d="M497.65,338.94l-2.48,11.21.59.1L498.26,339l-.61,0Z" style="fill:#d20014;stroke:#000;stroke-width:0.15000000596046448px"/><path d="M504.63,338.61l-.65.11-3,11.81.63,0Z" style="fill:#d20014;stroke:#000;stroke-width:0.15000000596046448px"/><path d="M497.64,338.94l3.09,11.61.62,0L498.28,339l-.64,0Z" style="fill:#d20014;stroke:#000;stroke-width:0.15000000596046448px"/><path d="M504.8,338.58l-.6.11,3,10.44.38-.11v-.74Z" style="fill:#d20014;stroke:#000;stroke-linecap:round;stroke-width:0.14999999105930328px"/><path d="M507.67,349.14a4.5,4.5,0,0,1-.68.31V352l.21-.12h.48Zm-12.6,1v2.58l.68.12v-2.58Zm6.36.39-.68,0v2.57l.68,0Z" style="fill:#fff;stroke:#000;stroke-linecap:round;stroke-width:0.14999999105930328px"/><path d="M500.85,268.94h1.35m-1.38-.75h1.35m-1.38-.75h1.35m-1.38-.75h1.35m-1.38-.75h1.35m-1.38-.75H502m-1.38-.75H502m-1.38-.75H502m-1.38-.75h1.35m-1.38-.75h1.35m-1.38-.75h1.35m-1.38-.75h1.35m-1.38-.75h1.35m-1.38-.75h1.35m-1.38-.75h1.35m-1.38-.75h1.35m-1.38-.75h1.35m-1.38-.75h1.35m-1.38-.75h1.35m-1.38-.75h1.35m-1.38-.75h1.35m-1.38-.75h1.35m-1.38-.75h1.35m-1.38-.75h1.35" style="fill:none;stroke:#000;stroke-width:0.30000001192092896px"/><path d="M497.56,245.44c-12.77-1.64-16.8-.43-17.39-.21s-8.81,2.43-12,7.71-.73,7.29-.73,7.29c-.59-1.21,1.54-5.71,1.54-5.71-1,1.86.29,5,.29,5-.44-.93.51-3.71.51-3.71l.73,2.21a32.07,32.07,0,0,1,.66-4.36c.07,4,.88,4.71.88,4.71-.73-1,.51-7.14.51-7.14-.73,3.64.44,4.43.44,4.43a9.73,9.73,0,0,1,2.13-6.5c-2.27,2.5-.66,6.14-.66,6.14.22-4.21,3.52-7.57,3.52-7.57-3.08,3.21-1.25,5.36-1.25,5.36.07-2.71,4.84-6.64,4.84-6.64a6.1,6.1,0,0,0-2,4.29,28.94,28.94,0,0,1,3.89-4.43,14.72,14.72,0,0,0-1.39,3.64l1-.57,2.64-3.14-1.61,2.43,1.61-.71,1.83-1.64-.81,1.07L488,247l1.32-1.5-.81,1.07h1.91l.81-.79-.37.86,1.39.07.44-.79-.07.79h.66l.59-1.14-.22,1.14s1.54,0,1.83.36-9.39,2.93-9.39,2.93,2.13,0,2.27.57-4.84,1.36-4.84,1.36l2.42,1-4.84.64,3.52.43-6.09,1.43h5.58l-5.87,1.14,3.74.5-4.92.71,4.7.43-5.06,2.07,2.72-.43c-5.36,5-3.45,8.57-3.45,8.57.37-1.57,2.79-5.21,2.79-5.21-.59,4.64.73,6.29.73,6.29.15-1.29,1.83-7.86,1.83-7.86.29,1.5.44,5.79.44,5.79,1.25-1,.73-6,.73-6l2,1.86c-1-1.57-.73-5.21-.73-5.21a12.89,12.89,0,0,1,1.32,3.14c.07-.57.66-4.79.66-4.79a17.26,17.26,0,0,0,1.17,4.43l.44-5a12.77,12.77,0,0,0,1.47,3.64v-5.43l1,2.43.15-3.79.44,4.43.81-.93-.66-.07.29-.14.81-4.36,1.25,2,.44-1.29L493,250.3c.44.14,1.1,1.43,1.1,1.43v-2.64l1.17.5,1.76-2.5-1.1,2,1.69-1-2,1.5,1.25.5-2.79.29v.71l2.49.21c-3.52.57-3.6,1.57-3.6,1.57l3.38-.14a6.9,6.9,0,0,0-4.55,1.79l4-.14c-3.74.29-5.28,1.71-5.28,1.71l4.7.29c-2.35-.21-4.92,2.29-4.92,2.29l3.08.07c-2.86.29-3.52,1.86-3.52,1.86l2.49.07a5.11,5.11,0,0,0-2.72,3.86l2.86-2.21c-3,2.57-2,4.71-2,4.71l1.83-2.07c-2.57,2.43-2,4.14-2,4.14l1.91-2c-1,6.07.37,6.21.37,6.21l.44-6.14c1.61.79,2.64,4.36,2.64,4.36l-1.39-5.64a5.86,5.86,0,0,1,2,3.29c.59-2.57-1.83-5.93-1.83-5.93l3,3.71-2.27-5.64,2.64,3.86a9,9,0,0,0-2.05-5.93l3.23,2.71a20.2,20.2,0,0,0-1.83-4.14,18.27,18.27,0,0,1,1.91,2,11.68,11.68,0,0,0-2.27-3.86c.88.21,2.35,2,2.35,2a35.65,35.65,0,0,0-1-4.71l1.1,2.29-.44-3.71,1,1.43-.22-2.57.66.14.44-3.07-.22,3.14-.73-.29.22,2.5,2.27-2.43L500.94,255l2.27-2.07-1.83,3.79,2.64-3-2,4.93,2.13-1.79-2,3.57c1.1,0,3.3-2.36,3.3-2.36-1.1.64-2.72,4.57-2.72,4.57,1.39,0,2.35-2.43,2.35-2.43l-2.27,4.07c1.39-.43,2.94-3,2.94-3,.29,1.43-2.42,6.07-2.42,6.07a5.25,5.25,0,0,0,2.27-1.14s.22-.93-.73.79a20.37,20.37,0,0,1-3.16,3.79c1.91.07,3.74-2.43,3.74-2.43.29,1.14-2.27,5.64-2.27,5.64,1.83-.14,3.38-5.14,3.38-5.14.59.64,1,6.43,1.1,5.71s.07-7.86.07-7.86c.37.5,1.87,3.77,1.87,3.77.11-1.6-1.64-7.77-1.64-7.77l2.08,3.73-2.52-7.13,3.06,3.62-3.83-7.24,2,2.87c-.66-4.9-3.94-4.9-3.94-4.9,3.94-.53,4.27,4.26,4.27,4.26.87-.21.77-2.66.77-2.66l.22,1.17.66,4,.44-3.51v4.37c0,.43,1.31-2.56,1.31-2.56.33.53.33,4.15.33,4.15l1.09-2.87a11.34,11.34,0,0,1,.22,4.58c1.09,0,1.42-2.56,1.42-2.56l1.31,3.73-.11-2.77c-.11-2.77-3.94-8.2-4.92-8.73a48.82,48.82,0,0,0-4.81-1.7l-3.61-3.3,3.61,3.3c.44-.53-.44-3.19-.44-3.19l2.84,3.62c.66-1.28-.66-3.41-.66-3.41.87,1,3.39,4.47,3.39,4.47.33-1.28-.66-4.15-.66-4.15a59.8,59.8,0,0,1,3.5,5.11c-.11-.43-1.64-4.79-1.64-4.79,1.86,1.6,3.72,6.71,3.72,6.71.55-1.7-.77-6.17-.77-6.17l3.17,7.35a15.75,15.75,0,0,0-.22-4.47c1,.85,2.62,4.68,2.62,4.68a45.21,45.21,0,0,0-.87-5l2.84,5.11-.55-3.41,1.75,3.73-.87-3.3,2.41,3.3-2-3.51,2.84,2.77s-4.16-5-5-5.75-8.64-3.51-10.39-4.37-9.41-.43-9.41-.43l2.3-.11-.44-1,.44.85h1.53l-.87-.85.66,1h2.62l-1.75-1.49a7.19,7.19,0,0,1,1.75,1.38l1.31.11-.87-1.81,1.31,2,2.19.43a10.47,10.47,0,0,0-1.64-2.45,18.47,18.47,0,0,1,2,2.56l1.86.64c0-1-1.53-3.09-1.53-3.09a11.78,11.78,0,0,1,2.41,3.3,14.53,14.53,0,0,0-.66-3.41c.87.53,2.3,3.83,2.3,3.83.11-1-.11-3.83-.33-3.73a28.57,28.57,0,0,1,2.08,4.58v-3.73c.44,0,1.64,4,1.64,4,.66-1.49-.11-4.58-.11-4.58.55,1.06,1.75,4.47,1.75,4.47l.22-1.49.33,2.77.33-2.34,1,2.56a43.78,43.78,0,0,0-1.31-5.54c.87.85,3.17,5.86,3.17,5.86v-1.81l.66,2.87c1-2.87-1.09-6.07-1.09-6.07a14.34,14.34,0,0,1,2.08,4.9l.66-1.49c.66,1.06.66,3.83.66,3.83a7.43,7.43,0,0,0-.87-5.64c1.86,1.38,3,7,3,7l.33-4.37a45.86,45.86,0,0,1,1.58,4.38,10.53,10.53,0,0,0-1.6-6.32c-1-1.36-1.9-2.77-8.49-4.13s-22.52-.19-22.52-.19l2.55-.53c1.65-1.26,5.44-.19,5.44-.19l.95,0s-.15-1.07-.2-1.46,1.8,1.26,1.8,1.26l.65,0v-1.85l2.7,2,1,.15-1.75-2.28a18.23,18.23,0,0,0,4,2.09c-.2-.83-2.45-2.58-2.45-2.58.75,0,3.85,2.72,3.85,2.72l-1.85-2.09,4.44,2a18.7,18.7,0,0,0-1.8-2c1.75,1.56,5.34,2.48,5.34,2.48L521,241.78l5.29,4a13.17,13.17,0,0,0-3.45-4.76c1.3.19,6.24,5,6.24,5,0-1.9-1.85-4.13-1.85-4.13,1.3.44,4.59,4.81,4.59,4.81.15-1.17-1.75-4.23-1.75-4.23,1,.49,3.7,4.28,3.7,4.28.6-2.19-1.95-4.13-1.95-4.13l5.11,2.73c-2.67-3.89-8-5.19-8.69-5.43s-5.38-.24-9.48-.1-9.33,2.45-9.58,2.5-4.44,1.3-4.44,1.3l-1.14-.43,1.43.34,2-.53-2-1.2,2.57,1,1.33-.48L507,241.16l2.07.91,3.06-1.11-3.5-1.3,5.53,0-4.2-1.44,6.81,1.11A7.3,7.3,0,0,0,514.3,238a31,31,0,0,1,4.54.72,16,16,0,0,0-3.31-1.87c1.48.29,5.43,1.44,5.43,1.44l-2.91-2,2.81,1.06a5.54,5.54,0,0,0-2.07-1.59,45.48,45.48,0,0,1,5.38,2.26,31.77,31.77,0,0,0-3.31-3.94l2.91,1.78-1.68-1.87,4.34,2c-1.48-2-4.79-3.17-5.78-3.32s-7.95.62-13.43,4.42-6.12,7.3-6.12,7.3-5.62-11.85-15.45-12.56a10.22,10.22,0,0,0,4.55,2.07s-3.3.71-4.11,1.86a22.09,22.09,0,0,1,6,.36s-3.89.79-4.48,1.79a33.3,33.3,0,0,1,6.38-.07s-3.74.5-3.89,1.36c0,0,5.8,0,6,1.07,0,0-4-.14-5,.5,0,0,5.21.71,6.24,1.43l-3.23.5s4.18.86,4.7,2c0,0-9.25-3.93-16.8-4.71s-9.83,1.14-11.15,2.21-4.33,3.86-3.82,6.14a16.22,16.22,0,0,1,5.5-5.5L469.09,247l4-3.14s-2.42,3.21-2.42,4.29c0,0,3.74-5.93,5.36-7,0,0-2.72,3.36-2.64,4.64,0,0,5.21-5,5.72-4.93,0,0-4,3.5-3.89,5.79,0,0,4.55-4.71,5.94-5.14,0,0-3.45,1.93-2.79,3.57l3.74-3.36-2.27,3.57,1.1-.36s1.61-3,3.89-2.93l-3,2.79,1.54-.14a10.25,10.25,0,0,1,3.89-2.86,27.61,27.61,0,0,0-3.23,2.86l1,.07a9.75,9.75,0,0,1,3.23-2.21l-1.32,2.07h.66l1.76-1.64L488,244.51l1.61.14,1.17-1-1,1.14H491l.73-.57-.07.71,1.91.07.51-1-.07.86Z" style="fill:#016a16;stroke:#000;stroke-width:0.30000001192092896px"/><path d="M489.34,245.51,488,247l-.15,0v.18a33.82,33.82,0,0,0-9,5.07c-3.82,3.21-6.16,6.79-6.6,8.5a44.83,44.83,0,0,0-.51,6.5s.73-4,1.17-4.57a10.58,10.58,0,0,0,.37,3.07s.29-4.36.44-5,.15,3.57,1,3.93c0,0-.22-4.5.37-5.93,0,0-.22,2.43.22,3.07,0,0,.66-5.64,2.2-7.14a9.29,9.29,0,0,0-.66,7.07l.35-1.58-.5.08.53-.22.5-2.21.74,1.71.3-.12L479,258l-1.88-.17,2.25-.33,0-.74-1.1-.15,1.11-.22,0-.93h-.85l.85-.2,0-.8.1.77,1.21-.28.17-.77.17.7.1,0,.2-1.21-.25,0,.26,0,.18-1.11.14,1.07.57-.08.31-1.56.37,1.43s1-3.07,1.69-3.43l.06,1.87.34-.06,1.58-2.66,0,.87.62-.17.65-1.49.44,1.14.73-.86.35.6c2.78-.78,6.29-1.81,6.11-2s-1.83-.36-1.83-.36l.22-1.14-.59,1.14h-.66l.07-.79-.44.79-1.39-.07.37-.86-.81.79h-1.91ZM486.59,250l0,1.2.51-1.16Zm-4.87,3.63.14,1,.17,0,.18-.91Zm-2.17,1.78.11.87.81-.16.15-.71Zm.17,1.34.08.62.41-.06.1-.48Zm-.67,1.2.23,1,0-.94Zm.83.08.07.53.11-.51ZM478.71,260h-.05l0,.09Z" style="fill:#016a16;stroke:#000;stroke-width:0.9999999403953552px"/><path d="M500.69,233.87l-.64,8.63c.71,1.16,1.08,1.94,1.08,1.94a6.4,6.4,0,0,1,.7-1.7l-.28-8.52A7.16,7.16,0,0,0,500.69,233.87ZM501.9,245l-.32.07.33.09Z" style="fill:#f1b517;stroke:#000;stroke-width:0.3253130316734314px"/><path d="M472.78,323.15s3.06-1.7,4.8-.07l-.58,1.2-3,.21Z" style="fill:#fff;stroke:#000;stroke-width:0.2898930013179779px"/><path d="M475,319.45l-.06,4.61h.61l.06-4.61Z" style="fill:green;stroke:#000;stroke-width:0.1643487960100174px"/><path d="M472.87,324.66a1,1,0,0,1,.49,1.14c-.12.89-.37,4.12,2,4.12s2-3.12,2-3.62a10.4,10.4,0,0,1,.18-1.44v-1.79a4.07,4.07,0,0,1-4.68,0Z" style="fill:green;stroke:#000;stroke-width:0.2645833194255829px"/><path d="M474.89,325.38a15.49,15.49,0,0,0-.19,2.23,5.05,5.05,0,0,0,.19,1.56,1.37,1.37,0,0,0,.33.57l.12.09a2,2,0,0,0,.53-.07v-.19a.29.29,0,0,1-.25-.1,1.05,1.05,0,0,1-.23-.41,4.85,4.85,0,0,1-.18-1.45,15.12,15.12,0,0,1,.18-2.17Z" style="fill:#fff"/><path d="M477.52,324.44a7,7,0,0,1-4.65.08v.14a.87.87,0,0,1,.43.48,4,4,0,0,0,4.24-.36Z" style="fill:#fff;stroke:#000;stroke-width:0.5669291615486145px"/><path d="M467.71,363.84l-.55-.1-.79,4,2.63.49.09-.48-2.08-.39Z"/><path d="M469.89,365.69l.42.07.24-1.42-.42-.07Z"/><path d="M473.93,364.81l-.36,2.54a1.34,1.34,0,0,1-.17.52.85.85,0,0,1-.31.31,1.22,1.22,0,0,1-.77.13,1.25,1.25,0,0,1-.36-.11,1,1,0,0,1-.32-.22.88.88,0,0,1-.19-.37,1.3,1.3,0,0,1,0-.55l.36-2.53-.56-.07-.38,2.68a1.41,1.41,0,0,0,.24,1.05,1.57,1.57,0,0,0,1.15.6,1.69,1.69,0,0,0,1.32-.29,1.53,1.53,0,0,0,.55-1l.37-2.61Z"/><path d="M477.65,368.51h0L475.91,365l-.66-.07-.43,4,.54.05.35-3.26h0l1.76,3.48.63.06.43-4-.54-.06Z"/><path d="M480,365.42l-.56,0-.36,4,.56,0Z"/><path d="M484,367.75a1.82,1.82,0,0,1-.47,1.15,1.33,1.33,0,0,1-1.1.39,1.3,1.3,0,0,1-1-.54,2,2,0,0,1,.17-2.36,1.45,1.45,0,0,1,2.13.15A1.8,1.8,0,0,1,484,367.75Zm.58,0a3,3,0,0,0,0-.72,2.13,2.13,0,0,0-.29-.71,1.72,1.72,0,0,0-.58-.57,2.27,2.27,0,0,0-1-.27,2.66,2.66,0,0,0-.53,0,1.81,1.81,0,0,0-.45.12,1.79,1.79,0,0,0-.67.49,2.09,2.09,0,0,0-.38.67,2.64,2.64,0,0,0-.16.7,2.53,2.53,0,0,0,.05.7,2.21,2.21,0,0,0,.28.72,1.78,1.78,0,0,0,.59.57,2.06,2.06,0,0,0,1,.28,2.14,2.14,0,0,0,.54,0,1.71,1.71,0,0,0,.45-.12,1.76,1.76,0,0,0,.66-.49,2.3,2.3,0,0,0,.39-.67,2.91,2.91,0,0,0,.14-.69Z"/><path d="M487.91,369.21h0L486,365.83l-.67,0-.22,4.05.54,0,.18-3.28h0l1.94,3.39.63,0,.22-4.05-.55,0Z"/><path d="M491.6,368.3l2,.06,0-.49-2-.06,0-1.24,2.32.07,0-.49-2.89-.09-.13,4.06.56,0Z"/><path d="M496.4,369.08l.39,1.19h.62L496,366.19h-.64l-1.65,4h.58l.46-1.17Zm-1.49-.51.7-1.77h0l.58,1.8Z"/><path d="M498.63,366.23h-.56l0,4.06h.56Z"/><path d="M499,366.72l1.41,0,0,3.57h.56l0-3.57,1.41,0v-.49l-3.39,0Z"/><path d="M505.08,366.12l-.56,0,.13,4.06,2.68-.08,0-.49-2.12.06Z"/><path d="M510.16,368.82l.46,1.16.62,0-1.69-4-.64,0-1.39,4.12.58,0,.38-1.2Zm-1.52-.42.59-1.81h0l.69,1.76Z"/><path d="M513.87,368l2-.13,0-.49-2,.13-.08-1.24,2.32-.14,0-.49-2.88.18.27,4.05.56,0Z"/><path d="M520,367.33a1.81,1.81,0,0,1-.28,1.21,1.44,1.44,0,0,1-2.12.17,1.77,1.77,0,0,1-.49-1.15,1.75,1.75,0,0,1,.29-1.21,1.31,1.31,0,0,1,1-.55,1.33,1.33,0,0,1,1.1.38,1.82,1.82,0,0,1,.49,1.15Zm.58,0a3,3,0,0,0-.15-.7,2.16,2.16,0,0,0-.4-.66,1.75,1.75,0,0,0-.66-.48,2.28,2.28,0,0,0-1-.12,2.65,2.65,0,0,0-.52.09,1.8,1.8,0,0,0-.43.19,1.77,1.77,0,0,0-.58.58,2.07,2.07,0,0,0-.27.71,2.62,2.62,0,0,0,0,.72,2.54,2.54,0,0,0,.16.69,2.23,2.23,0,0,0,.39.67,1.8,1.8,0,0,0,.67.48,2.07,2.07,0,0,0,1,.14,2.13,2.13,0,0,0,.53-.11,1.7,1.7,0,0,0,.43-.19,1.73,1.73,0,0,0,.57-.58,2.28,2.28,0,0,0,.28-.72,2.9,2.9,0,0,0,0-.7Z"/><path d="M521.86,367.44l1.36-.14a1.09,1.09,0,0,1,.41,0,.48.48,0,0,1,.24.14.54.54,0,0,1,.12.22,2,2,0,0,1,0,.26q0,.14.07.46l.06.3a1.66,1.66,0,0,0,.07.24l.69-.07v-.09a.41.41,0,0,1-.18-.14.67.67,0,0,1-.07-.24l-.12-.73a1.8,1.8,0,0,0-.09-.34.53.53,0,0,0-.14-.2.49.49,0,0,0-.16-.11L524,367a1.32,1.32,0,0,0,.19-.16,1.07,1.07,0,0,0,.17-.2.87.87,0,0,0,.11-.28,1.39,1.39,0,0,0,0-.38.94.94,0,0,0-.52-.82,1.9,1.9,0,0,0-1-.12l-1.92.2.45,4,.56-.06Zm-.21-1.84,1.4-.15a1.17,1.17,0,0,1,.49,0,.5.5,0,0,1,.21.18.8.8,0,0,1,.12.37.77.77,0,0,1,0,.36.49.49,0,0,1-.17.23.71.71,0,0,1-.26.12,1.44,1.44,0,0,1-.31.07l-1.3.14Z"/><path d="M528.62,365.5a1.44,1.44,0,0,0-.61-.85,1.79,1.79,0,0,0-1.28-.23,1.82,1.82,0,0,0-1.33.77,2.22,2.22,0,0,0-.29,1.59,2.16,2.16,0,0,0,.82,1.57,1.84,1.84,0,0,0,1.35.31l.38-.09a1.93,1.93,0,0,0,.52-.26,1.54,1.54,0,0,0,.47-.56,2,2,0,0,0,.21-.93l-.54.08a1.7,1.7,0,0,1-.12.59,1.09,1.09,0,0,1-.27.38,1.31,1.31,0,0,1-.32.21,1.25,1.25,0,0,1-.31.09,1.2,1.2,0,0,1-1.14-.34,2.11,2.11,0,0,1-.48-1.15,1.67,1.67,0,0,1,.23-1.25,1.25,1.25,0,0,1,.89-.53l.34,0a1.21,1.21,0,0,1,.36.08,1,1,0,0,1,.58.62Z"/><path d="M532.74,367.15l-2.47.46-.26-1.33,2.24-.42-.09-.48-2.24.42-.24-1.22,2.43-.45-.09-.48-3,.56.78,4,3-.56Z"/></svg>