<svg xmlns="http://www.w3.org/2000/svg" viewBox="0 0 1350 900"><title>India</title><rect width="1350" height="900" style="fill:#f93"/><rect y="300" width="1350" height="300" style="fill:#fff"/><rect y="600" width="1350" height="300" style="fill:#128807"/><circle cx="675" cy="450" r="120" style="fill:#008"/><circle cx="675" cy="450" r="105" style="fill:#fff"/><circle cx="675" cy="450" r="21" style="fill:#008"/><circle cx="779.1" cy="463.71" r="5.25" transform="translate(217.67 1175.62) rotate(-82.5)" style="fill:#008"/><path d="M675,555l3.6-63L675,462l-3.6,30Z" style="fill:#008"/><circle cx="772.01" cy="490.18" r="5.25" transform="translate(23.7 1015.84) rotate(-67.5)" style="fill:#008"/><path d="M647.82,551.42l19.78-59.92,4.29-29.91-11.24,28Z" style="fill:#008"/><circle cx="758.3" cy="513.92" r="5.25" transform="translate(-111.04 802.67) rotate(-52.5)" style="fill:#008"/><path d="M622.5,540.93l34.62-52.76L669,460.39l-18.12,24.18Z" style="fill:#008"/><circle cx="738.92" cy="533.3" r="5.25" transform="translate(-171.96 560.03) rotate(-37.5)" style="fill:#008"/><path d="M600.75,524.25l47.09-42,18.67-23.76-23.76,18.67Z" style="fill:#008"/><circle cx="715.18" cy="547.01" r="5.25" transform="translate(-154.89 315.33) rotate(-22.5)" style="fill:#008"/><path d="M584.07,502.5l56.36-28.38L664.61,456l-27.78,11.88Z" style="fill:#008"/><circle cx="688.71" cy="554.1" r="5.25" transform="translate(-66.43 94.63) rotate(-7.5)" style="fill:#008"/><path d="M573.58,477.18l61.79-12.83,28-11.24-29.91,4.29Z" style="fill:#008"/><circle cx="661.29" cy="554.1" r="5.25" transform="translate(25.62 1137.41) rotate(-82.5)" style="fill:#008"/><path d="M570,450l63,3.6,30-3.6-30-3.6Z" style="fill:#008"/><circle cx="634.82" cy="547.01" r="5.25" transform="matrix(0.38, -0.92, 0.92, 0.38, -113.49, 924.17)" style="fill:#008"/><path d="M573.58,422.82l59.92,19.78,29.91,4.29-28-11.24Z" style="fill:#008"/><circle cx="611.08" cy="533.3" r="5.25" transform="translate(-184.02 693.45) rotate(-52.5)" style="fill:#008"/><path d="M584.07,397.5l52.76,34.62L664.61,444l-24.18-18.12Z" style="fill:#008"/><circle cx="591.7" cy="513.92" r="5.25" transform="translate(-190.58 466.4) rotate(-37.5)" style="fill:#008"/><path d="M600.75,375.75l42,47.09,23.76,18.67-18.67-23.76Z" style="fill:#008"/><circle cx="577.99" cy="490.18" r="5.25" transform="translate(-143.59 258.5) rotate(-22.5)" style="fill:#008"/><path d="M622.5,359.07l28.38,56.36L669,439.61l-11.88-27.78Z" style="fill:#008"/><circle cx="570.9" cy="463.71" r="5.25" transform="translate(-55.64 78.48) rotate(-7.5)" style="fill:#008"/><path d="M647.82,348.58l12.83,61.79,11.24,28-4.29-29.91Z" style="fill:#008"/><circle cx="570.9" cy="436.29" r="5.25" transform="translate(63.82 945.36) rotate(-82.5)" style="fill:#008"/><path d="M675,345l-3.6,63,3.6,30,3.6-30Z" style="fill:#008"/><circle cx="577.99" cy="409.82" r="5.25" transform="matrix(0.38, -0.92, 0.92, 0.38, -21.82, 786.98)" style="fill:#008"/><path d="M702.18,348.58,682.39,408.5l-4.29,29.91,11.24-28Z" style="fill:#008"/><circle cx="591.7" cy="386.08" r="5.25" transform="translate(-74.8 620.47) rotate(-52.5)" style="fill:#008"/><path d="M727.5,359.07l-34.62,52.76L681,439.61l18.12-24.18Z" style="fill:#008"/><circle cx="611.08" cy="366.7" r="5.25" transform="translate(-96.95 447.78) rotate(-37.5)" style="fill:#008"/><path d="M749.25,375.75l-47.09,42-18.67,23.76,23.76-18.67Z" style="fill:#008"/><circle cx="634.82" cy="352.99" r="5.25" transform="translate(-86.76 269.8) rotate(-22.5)" style="fill:#008"/><path d="M765.93,397.5l-56.36,28.38L685.39,444l27.78-11.88Z" style="fill:#008"/><circle cx="661.29" cy="345.9" r="5.25" transform="translate(-39.49 89.28) rotate(-7.5)" style="fill:#008"/><path d="M776.42,422.82l-61.79,12.83-28,11.24,29.91-4.29Z" style="fill:#008"/><circle cx="688.71" cy="345.9" r="5.25" transform="matrix(0.13, -0.99, 0.99, 0.13, 255.87, 983.56)" style="fill:#008"/><path d="M780,450l-63-3.6L687,450l30,3.6Z" style="fill:#008"/><circle cx="715.18" cy="352.99" r="5.25" transform="matrix(0.38, -0.92, 0.92, 0.38, 115.37, 878.65)" style="fill:#008"/><path d="M776.42,477.18,716.5,457.39l-29.91-4.29,28,11.24Z" style="fill:#008"/><circle cx="738.92" cy="366.7" r="5.25" transform="translate(-1.83 729.69) rotate(-52.5)" style="fill:#008"/><path d="M765.93,502.5l-52.76-34.62L685.39,456l24.18,18.12Z" style="fill:#008"/><circle cx="758.3" cy="386.08" r="5.25" transform="translate(-78.33 541.41) rotate(-37.5)" style="fill:#008"/><path d="M749.25,524.25l-42-47.09-23.76-18.67,18.67,23.76Z" style="fill:#008"/><circle cx="772.01" cy="409.82" r="5.25" transform="translate(-98.07 326.63) rotate(-22.5)" style="fill:#008"/><path d="M727.5,540.93l-28.38-56.36L681,460.39l11.88,27.78Z" style="fill:#008"/><circle cx="779.1" cy="436.29" r="5.25" transform="translate(-50.28 105.43) rotate(-7.5)" style="fill:#008"/><path d="M702.18,551.42l-12.83-61.79-11.24-28,4.29,29.91Z" style="fill:#008"/></svg>