<svg xmlns="http://www.w3.org/2000/svg" viewBox="0 0 630 360"><title>Iran</title><rect width="630" height="360" style="fill:#da0000"/><rect width="630" height="240" style="fill:#fff"/><rect width="630" height="120" style="fill:#239f40"/><path d="M8.4,101.8H44.8m-35,12.6v-7H21V113H32.2v-5.6h-7M14,113h2.8m28,0h-7v-5.6H49m0-7V113H60.2V100.4m-5.6,0V113" style="fill:none;stroke:#fff;stroke-width:2px"/><path d="M8.4,120H33.6m2.8,0H61.6" style="fill:none;stroke:#fff;stroke-width:2px"/><path d="M8.4,240H33.6m2.8,0H61.6" style="fill:none;stroke:#fff;stroke-width:2px"/><path d="M8.4,247H44.8m-35,12.6v-7H21v5.6H32.2v-5.6h-7M14,258.2h2.8m28,0h-7v-5.6H49m0-7v12.6H60.2V245.6m-5.6,0v12.6" style="fill:none;stroke:#fff;stroke-width:2px"/><path d="M64.4,101.8h36.4m-35,12.6v-7H77V113H88.2v-5.6h-7M70,113h2.8m28,0h-7v-5.6H105m0-7V113h11.2V100.4m-5.6,0V113" style="fill:none;stroke:#fff;stroke-width:2px"/><path d="M64.4,120H89.6m2.8,0h25.2" style="fill:none;stroke:#fff;stroke-width:2px"/><path d="M64.4,240H89.6m2.8,0h25.2" style="fill:none;stroke:#fff;stroke-width:2px"/><path d="M64.4,247h36.4m-35,12.6v-7H77v5.6H88.2v-5.6h-7M70,258.2h2.8m28,0h-7v-5.6H105m0-7v12.6h11.2V245.6m-5.6,0v12.6" style="fill:none;stroke:#fff;stroke-width:2px"/><path d="M120.4,101.8h36.4m-35,12.6v-7H133V113h11.2v-5.6h-7M126,113h2.8m28,0h-7v-5.6H161m0-7V113h11.2V100.4m-5.6,0V113" style="fill:none;stroke:#fff;stroke-width:2px"/><path d="M120.4,120h25.2m2.8,0h25.2" style="fill:none;stroke:#fff;stroke-width:2px"/><path d="M120.4,240h25.2m2.8,0h25.2" style="fill:none;stroke:#fff;stroke-width:2px"/><path d="M120.4,247h36.4m-35,12.6v-7H133v5.6h11.2v-5.6h-7M126,258.2h2.8m28,0h-7v-5.6H161m0-7v12.6h11.2V245.6m-5.6,0v12.6" style="fill:none;stroke:#fff;stroke-width:2px"/><path d="M176.4,101.8h36.4m-35,12.6v-7H189V113h11.2v-5.6h-7M182,113h2.8m28,0h-7v-5.6H217m0-7V113h11.2V100.4m-5.6,0V113" style="fill:none;stroke:#fff;stroke-width:2px"/><path d="M176.4,120h25.2m2.8,0h25.2" style="fill:none;stroke:#fff;stroke-width:2px"/><path d="M176.4,240h25.2m2.8,0h25.2" style="fill:none;stroke:#fff;stroke-width:2px"/><path d="M176.4,247h36.4m-35,12.6v-7H189v5.6h11.2v-5.6h-7M182,258.2h2.8m28,0h-7v-5.6H217m0-7v12.6h11.2V245.6m-5.6,0v12.6" style="fill:none;stroke:#fff;stroke-width:2px"/><path d="M232.4,101.8h36.4m-35,12.6v-7H245V113h11.2v-5.6h-7M238,113h2.8m28,0h-7v-5.6H273m0-7V113h11.2V100.4m-5.6,0V113" style="fill:none;stroke:#fff;stroke-width:2px"/><path d="M232.4,120h25.2m2.8,0h25.2" style="fill:none;stroke:#fff;stroke-width:2px"/><path d="M232.4,240h25.2m2.8,0h25.2" style="fill:none;stroke:#fff;stroke-width:2px"/><path d="M232.4,247h36.4m-35,12.6v-7H245v5.6h11.2v-5.6h-7M238,258.2h2.8m28,0h-7v-5.6H273m0-7v12.6h11.2V245.6m-5.6,0v12.6" style="fill:none;stroke:#fff;stroke-width:2px"/><path d="M288.4,101.8h36.4m-35,12.6v-7H301V113h11.2v-5.6h-7M294,113h2.8m28,0h-7v-5.6H329m0-7V113h11.2V100.4m-5.6,0V113" style="fill:none;stroke:#fff;stroke-width:2px"/><path d="M288.4,120h25.2m2.8,0h25.2" style="fill:none;stroke:#fff;stroke-width:2px"/><path d="M288.4,240h25.2m2.8,0h25.2" style="fill:none;stroke:#fff;stroke-width:2px"/><path d="M288.4,247h36.4m-35,12.6v-7H301v5.6h11.2v-5.6h-7M294,258.2h2.8m28,0h-7v-5.6H329m0-7v12.6h11.2V245.6m-5.6,0v12.6" style="fill:none;stroke:#fff;stroke-width:2px"/><path d="M344.4,101.8h36.4m-35,12.6v-7H357V113h11.2v-5.6h-7M350,113h2.8m28,0h-7v-5.6H385m0-7V113h11.2V100.4m-5.6,0V113" style="fill:none;stroke:#fff;stroke-width:2px"/><path d="M344.4,120h25.2m2.8,0h25.2" style="fill:none;stroke:#fff;stroke-width:2px"/><path d="M344.4,240h25.2m2.8,0h25.2" style="fill:none;stroke:#fff;stroke-width:2px"/><path d="M344.4,247h36.4m-35,12.6v-7H357v5.6h11.2v-5.6h-7M350,258.2h2.8m28,0h-7v-5.6H385m0-7v12.6h11.2V245.6m-5.6,0v12.6" style="fill:none;stroke:#fff;stroke-width:2px"/><path d="M400.4,101.8h36.4m-35,12.6v-7H413V113h11.2v-5.6h-7M406,113h2.8m28,0h-7v-5.6H441m0-7V113h11.2V100.4m-5.6,0V113" style="fill:none;stroke:#fff;stroke-width:2px"/><path d="M400.4,120h25.2m2.8,0h25.2" style="fill:none;stroke:#fff;stroke-width:2px"/><path d="M400.4,240h25.2m2.8,0h25.2" style="fill:none;stroke:#fff;stroke-width:2px"/><path d="M400.4,247h36.4m-35,12.6v-7H413v5.6h11.2v-5.6h-7M406,258.2h2.8m28,0h-7v-5.6H441m0-7v12.6h11.2V245.6m-5.6,0v12.6" style="fill:none;stroke:#fff;stroke-width:2px"/><path d="M456.4,101.8h36.4m-35,12.6v-7H469V113h11.2v-5.6h-7M462,113h2.8m28,0h-7v-5.6H497m0-7V113h11.2V100.4m-5.6,0V113" style="fill:none;stroke:#fff;stroke-width:2px"/><path d="M456.4,120h25.2m2.8,0h25.2" style="fill:none;stroke:#fff;stroke-width:2px"/><path d="M456.4,240h25.2m2.8,0h25.2" style="fill:none;stroke:#fff;stroke-width:2px"/><path d="M456.4,247h36.4m-35,12.6v-7H469v5.6h11.2v-5.6h-7M462,258.2h2.8m28,0h-7v-5.6H497m0-7v12.6h11.2V245.6m-5.6,0v12.6" style="fill:none;stroke:#fff;stroke-width:2px"/><path d="M512.4,101.8h36.4m-35,12.6v-7H525V113h11.2v-5.6h-7M518,113h2.8m28,0h-7v-5.6H553m0-7V113h11.2V100.4m-5.6,0V113" style="fill:none;stroke:#fff;stroke-width:2px"/><path d="M512.4,120h25.2m2.8,0h25.2" style="fill:none;stroke:#fff;stroke-width:2px"/><path d="M512.4,240h25.2m2.8,0h25.2" style="fill:none;stroke:#fff;stroke-width:2px"/><path d="M512.4,247h36.4m-35,12.6v-7H525v5.6h11.2v-5.6h-7M518,258.2h2.8m28,0h-7v-5.6H553m0-7v12.6h11.2V245.6m-5.6,0v12.6" style="fill:none;stroke:#fff;stroke-width:2px"/><path d="M568.4,101.8h36.4m-35,12.6v-7H581V113h11.2v-5.6h-7M574,113h2.8m28,0h-7v-5.6H609m0-7V113h11.2V100.4m-5.6,0V113" style="fill:none;stroke:#fff;stroke-width:2px"/><path d="M568.4,120h25.2m2.8,0h25.2" style="fill:none;stroke:#fff;stroke-width:2px"/><path d="M568.4,240h25.2m2.8,0h25.2" style="fill:none;stroke:#fff;stroke-width:2px"/><path d="M568.4,247h36.4m-35,12.6v-7H581v5.6h11.2v-5.6h-7M574,258.2h2.8m28,0h-7v-5.6H609m0-7v12.6h11.2V245.6m-5.6,0v12.6" style="fill:none;stroke:#fff;stroke-width:2px"/><path d="M290.33,217.64a41,41,0,0,0,39.45-70.14,45,45,0,0,1-39.45,70.14" style="fill:#da0000"/><path d="M342.83,209.76A34.38,34.38,0,0,0,334,146.65a45,45,0,0,1,8.93,63l-.08.1" style="fill:#da0000"/><path d="M315,225l-2.25-45L315,144.57a14,14,0,0,0,5.31,4.46v26.45l-1.81,44.7Z" style="fill:#da0000"/><path d="M314.1,141.75l.9.85a6.49,6.49,0,0,0,11.34-6.14A6.14,6.14,0,0,1,315,138.39" style="fill:#da0000"/><path d="M339.67,217.64a41,41,0,0,1-39.45-70.14,45,45,0,0,0,39.45,70.14" style="fill:#da0000"/><path d="M287.17,209.76A34.38,34.38,0,0,1,296,146.65a45,45,0,0,0-8.93,63l.08.1" style="fill:#da0000"/><path d="M315,225l2.25-45L315,144.57a14,14,0,0,1-5.31,4.46v26.45l1.81,44.7Z" style="fill:#da0000"/><path d="M315.9,141.75l-.9.85a6.49,6.49,0,0,1-11.34-6.14A6.14,6.14,0,0,0,315,138.39" style="fill:#da0000"/></svg>