<svg xmlns="http://www.w3.org/2000/svg" viewBox="0 0 900 600"><title>Iraq</title><path d="M0,0H900V600H0Z" style="fill:#ce1126"/><path d="M0,200H900V600H0Z" style="fill:#fff"/><path d="M0,400H900V600H0Z"/><path d="M537.73,262.58a10.9,10.9,0,0,1-3.05-2.31c-.69-1-.29-1,2.55-.23,5.08,1.38,8.35.84,11.6-1.91l2.86-2.42,3.37,1.72c1.86.94,3.83,1.59,4.4,1.44,1.46-.39,4.49-4.27,4.39-5.61-.12-1.66,1.29-1.24,2,.58,1.35,3.57-.62,7.67-4.08,8.58-1.69.44-3.26.28-5.82-.62-3.15-1.1-3.69-1.08-5.27.13-3.54,2.71-8.47,3-12.91.65Z" style="fill:#007a3d"/><path d="M550.29,251.1c-1.23-1.57-2.71-7.5-2.24-9,.42-1.26.86-1.51,2-1.15,2,.63,2.47,2,2.17,6.71-.23,3.83-.8,4.83-1.94,3.4Z" style="fill:#007a3d"/><path d="M402.45,246.84c-.41,2.87,5.09,10,7.57,11.29-1.69.76-3.78.41-5.33,1.26-8.65,8.65-40.22,39.43-46,46.79,17.08.34,36-.23,52-1,0-11.6,11-12.2,18.35-16.43,3.79,6,13.3,5.51,14.49,14.49,0,10.75,0,26.95,0,38.64H297.7c-2.57,11.33-12.8,20-27.05,16.42,4.41-4.61,11.84-6.19,14.49-12.56,2.24-13.94-4.48-22.55-8.83-30.45,7.19-2.62,8.28-3.27,15.59-8.18C286.78,322.75,305.25,321,319,320.68c.46-5.29.19-11.54-3.87-12.32,5.25-1.91,6.12-2.56,14.49-9.66v21c32.6,0,67.76-.24,101-.24,0-6.57,1.74-17.13-3.46-17.13-5,0-.23,13.52-4.09,13.52H345c0-2.91-.07-9-.07-13.37,3.31-3.31,2.91-3,25.51-25.61,2.25-2.26,18.1-16.57,32-30Z" style="fill:#007a3d"/><path d="M597.47,246.28c5.45,2.93,9.76,7,16.43,8.7-.78,2.76-3.23,3.85-3.88,6.76v58.93c7.45,1.64,9-2.58,12.56-4.83,1,9.43,7,18.68,6.76,26.08H597.46q0-47.81,0-95.64Z" style="fill:#007a3d"/><path d="M555,277.84s11.6-9.79,11.6-10.17V319.1h8.35c0-19.59-.26-39.46-.26-57.67,3.39-3.39,10-8.3,11.69-11.73v92.1l-73.23,0c-1.08-19.11-1.26-38.91,21-34.66v-7.8c-.68-1.33-1.9.32-2.19-1.41,3.54-3.54,4.74-4.44,14.32-12.81,0,10.1.18,33.94.18,33.94h8.45s.08-39.91.08-41.23Zm-27.49,40.74c1.57,2.35,6.91,2.31,6.66-1.65C533.23,313.66,526.21,314.9,527.47,318.58Z" style="fill:#007a3d"/><circle cx="315.47" cy="352.78" r="4.47" style="fill:#007a3d"/><path d="M453.48,246.38c5.45,2.93,9.76,7,16.43,8.7-.77,2.76-3.23,3.85-3.87,6.76v58.93c7.45,1.64,9-2.58,12.56-4.83,1,9.43,7,18.67,6.76,26.08H453.47q0-47.81,0-95.63Z" style="fill:#007a3d"/></svg>