<svg xmlns="http://www.w3.org/2000/svg" viewBox="0 0 600 300"><title>Isle_of_Man</title><rect width="600" height="300" style="fill:#cf142b"/><path d="M226,126.35a21.06,21.06,0,0,0,2.9,1.73c0-.09,6.9-1.67,6.86-1.58s-3.84,4.6-3.67,4.69,4,4.63,4.06,4.68-7.18-.6-7.18-.6l-4.81,3.88-1.08-5s-6-2.13-6.14-2.18,5.18-1.78,5.18-1.78l1.57-4.1a15.09,15.09,0,0,0,2.3.3Z" style="fill:#f9dd16;stroke:#000"/><path d="M314.47,136.2c0-4.24-8.33-23.42-9.71-26.37a38.09,38.09,0,0,1-6.43-12.65c-.75-4.42-3.12-7.89-6.45-9.06-3.85-2-7.6-1.24-11.21-.93a6.27,6.27,0,0,0-4.14,2.74c-2,2.79-3,2.58-4.36,3.78-11.11,1.73-21.62,7.47-29.62,11.38-4.23,2.94-7.83,4.65-9.49,5a15.81,15.81,0,0,1-9.37-3.26L208.35,92.9c-4.43-3.31-5.53,1.47-4.68,2.2,1.48,3.18-1.72,5.11,10.44,16.57l4.61,9.46a11.29,11.29,0,0,0,0,2.7c2.22,5.29,5.75,4,7.41,2.49L229.7,123s7.16-2.27,7.27-2.48c7.68,1.14,27.46-2.63,30.73-4.17,2.94-1.65,3.13-.25,5.68-2.33,2.13-1.41,1-.29,4.89-3.88,1.21-1,2.17.65,2.39,1.82.22,11.17,1.59,18.31,2.61,29.44L300,150Z" style="fill:#fff;stroke:#000;stroke-width:1.2999999523162842px"/><path d="M217.84,102.28c.15.14-2.76,9.63-2.76,9.63s-2.69-2.68-2.67-2.73l1.88-10Z" style="fill:#f9dd16"/><path d="M217.92,101.93c-.13.64-.7,3.5-1,4.29s-.42,1.74-.56,2.61-.39,1.57-.69,2.54a18.23,18.23,0,0,1-.48,2.46m-1.85-16.25a7.1,7.1,0,0,1,.31,1.54c-.1.58-.26,2.67-.49,3.37s-.33,1.58-.44,2.36-.31,1.42-.56,2.3a15,15,0,0,1-.37,2.23" style="fill:none;stroke:#000;stroke-width:1.1299999952316284px"/><path d="M262.23,96.64c3.58,4,4.69,10.45,4,14.08" style="fill:none;stroke:#000"/><path d="M248.38,120.22l.06-.12c-.2.39,0,.17-.43-.7a4.79,4.79,0,0,1-.07-3.83c.24-.61.64-1.54.94-2.12.09-.17.33-.33.42-.5" style="fill:none;stroke:#000"/><path d="M222.8,106.78l-.06.12-.26.5c-.34.65-.79,1.23-1.09,1.8s-.82,1.15-1.15,1.78-.78,1.35-1.21,2-.85,1.23-1.24,2c-.34.6-.61.88-1,1.55l1-1.55c-.34.6-.61.88-1,1.55" style="fill:none;stroke:#000"/><path d="M209.8,94.66a6.68,6.68,0,0,1,.35,1.45c-.08.54-.17,2.48-.36,3.13s-.27,1.46-.35,2.19-.26,1.31-.47,2.13a13,13,0,0,1-.28,2.07" style="fill:none;stroke:#000"/><path d="M225.39,117.56c-.84-.88-1.33-.56-1.87-.6a5.89,5.89,0,0,0-2.79,1.72,15.77,15.77,0,0,1-1.27,1.24,3,3,0,0,1-.7.74" style="fill:none;stroke:#000"/><path d="M288.48,87.76l-.06.12c.2-.39.06-.17.24.76.24.64.27,1.08.54,1.7" style="fill:none;stroke:#000"/><path d="M275.42,91.22c0,.08-.15,9.12.22,10.28.11.75.31,1.37.42,2.26,0,.54.13,1,.17,1.51.31.58.37,1.16.68,1.62.15.64.66.66.94,1.26.38.41,1,1.14,1.39,1.47" style="fill:none;stroke:#000"/><path d="M269.14,116c-.28-.09-1-.66-1.6-1a6.62,6.62,0,0,1-2.46-3.84" style="fill:none;stroke:#000"/><path d="M275.9,103.13s-.94.95-2.45,2.48a49.12,49.12,0,0,1-7.8,5.1,10.38,10.38,0,0,1-2,1,13.79,13.79,0,0,1-2,.53,14.34,14.34,0,0,1-2.08.34c-1.84.8-11.55.49-12.05.38s-1.23,0-1.69-.09a10.44,10.44,0,0,1-1.63.1,7.55,7.55,0,0,0-1.82.16,19.94,19.94,0,0,0-1.9.91c-.77.31-1.24.74-1.77,1-.55.46-8.11,4.87-8.48,5.06-.79.35-3.64,1.2-4.35-.81a15.62,15.62,0,0,1-.57-2.2,6,6,0,0,1-.06-2.16,14,14,0,0,1,2.06-5.33l.32-.62" style="fill:none;stroke:#000"/><path d="M297.88,96.44l-.06.12c.17-.34.09-.16-.38.43-.49.39-1.09,1-1.53,1.42s-.87,1.07-1.27,1.24a3.75,3.75,0,0,1-1.46,1,9.9,9.9,0,0,0-1.9.91c-.82.44-1.33.85-2.09,1.29a12.64,12.64,0,0,0-1.34,1.67c-.39.65-.79,1.21-1.16,1.93l-.91,1.74.91-1.74-.91,1.74" style="fill:none;stroke:#000"/><path d="M291.57,144.22l.13-.25c-.24.46-.16.34.07-.44,0-.93.22-2.06.23-2.88a18.64,18.64,0,0,0,.29-2.69,28.13,28.13,0,0,0-.21-3c0-.92-.12-1.87-.15-2.76a12,12,0,0,0-.28-2.51,14.51,14.51,0,0,0-.21-2.33,4.26,4.26,0,0,0-.23-1.7c-.24-1-.34-1.52-.59-2.52-.15-.53-.3-1.22-.53-2a19.3,19.3,0,0,0-.65-2.39,6.71,6.71,0,0,1-.54-1.7,7.48,7.48,0,0,1-.66-1.77c-.25-.46-.51-1.16-.79-1.83s-.41-1.23-.66-1.77a15.42,15.42,0,0,1-.72-2,2.83,2.83,0,0,1-.43-.7" style="fill:none;stroke:#000"/><path d="M289.89,91.74a32.08,32.08,0,0,1-3.05,4.82l-2.07,4.14c-.91,2.27-.33,3.17.07,3.83.82,1.46,1,2.24,1.58,3.35.23,1.38-2.22,1.85-2.26,1.91-5.11,1.77-7.7-3.13-7.73-3.38-.69-2.57-.6-3,1-3.53,1.8-.41,2.52-.43,3.41-1.08,1.68-1.26,2.87-5.07,2.9-5.13s.25-2.16.25-2.16c.13-1-.34-1.94.18-3.54.67-1.55,1.08-2,2.67-2.09,2.07-.19,3.68,1.28,3.09,2.87Z" style="fill:#f9dd16;stroke:#000"/><path d="M357.5,97.72a21.06,21.06,0,0,0-3,1.65c.05.08-2,6.81-2.06,6.73s-2.06-5.63-2.23-5.52-6,1.12-6.08,1.17,4.11-5.92,4.11-5.92l-1-6.1,4.89,1.58s4.87-4.17,5-4.22-1,5.37-1,5.37l2.77,3.41a15.09,15.09,0,0,0-1.41,1.84Z" style="fill:#f9dd16;stroke:#000"/><path d="M304.71,169.43c3.66,2.13,24.45,4.49,27.7,4.78a38.09,38.09,0,0,1,14.17.76c4.2,1.56,8.39,1.24,11.07-1.05,3.69-2.31,4.87-6,6.41-9.25a6.27,6.27,0,0,0-.3-5c-1.44-3.09-.73-3.9-1.09-5.67,4.06-10.49,4.35-22.46,5-31.34-.43-5.14-.11-9.1.41-10.72a15.81,15.81,0,0,1,7.51-6.48l19.75-6.31c5.08-2.18,1.49-5.52.44-5.15-3.49-.31-3.57-4.05-19.57.75L365.65,94s-2.11-1.52-2.32-1.39c-5.69-.72-6.31,3-5.86,5.18l1,4.78s-1.62,7.33-1.49,7.54c-4.83,6.08-11.46,25.1-11.75,28.7,0,3.37-1.35,2.83-.82,6.08.16,2.55-.23,1,.92,6.18.3,1.57-1.64,1.56-2.78,1.16-9.78-5.39-16.65-7.78-26.8-12.46L300,150Z" style="fill:#fff;stroke:#000;stroke-width:1.2999999523162842px"/><path d="M382.41,102.71c-.19.06-7-7.21-7-7.21s3.67-1,3.69-.95l7.7,6.62Z" style="fill:#f9dd16"/><path d="M382.67,103c-.49-.44-2.69-2.36-3.23-3s-1.3-1.23-2-1.79-1.16-1.12-1.86-1.87a18.23,18.23,0,0,1-1.88-1.65m15,6.52a7.1,7.1,0,0,1-1.49-.5c-.45-.38-2.18-1.56-2.68-2.11s-1.2-1.07-1.83-1.56-1.07-1-1.71-1.64A15,15,0,0,1,379.26,94" style="fill:none;stroke:#000;stroke-width:1.1299999952316284px"/><path d="M365.1,144c-5.24,1.11-11.4-1.17-14.21-3.54" style="fill:none;stroke:#000"/><path d="M351.6,120.19l.08.12c-.24-.37-.12-.12.82,0a4.79,4.79,0,0,1,3.35,1.86c.41.51,1,1.32,1.36,1.88.1.16.12.45.22.61" style="fill:none;stroke:#000"/><path d="M376,104.75l-.08-.12-.3-.47c-.39-.61-.68-1.3-1-1.85s-.59-1.29-1-1.88-.78-1.35-1.09-2-.64-1.35-1.1-2.07-.45-1-.86-1.61l.86,1.61c-.35-.6-.45-1-.86-1.61" style="fill:none;stroke:#000"/><path d="M393,99.56a6.68,6.68,0,0,1-1.43-.42c-.43-.34-2.07-1.39-2.53-1.88s-1.13-1-1.72-1.4-1-.88-1.61-1.47a13,13,0,0,1-1.65-1.28" style="fill:none;stroke:#000"/><path d="M365.4,101.61c1.18-.29,1.15-.87,1.46-1.32a5.89,5.89,0,0,0-.09-3.27,15.77,15.77,0,0,1-.43-1.72,3,3,0,0,1-.29-1" style="fill:none;stroke:#000"/><path d="M359.66,171.14l-.08-.12c.24.37.12.13-.78-.17-.67-.11-1.07-.31-1.74-.38" style="fill:none;stroke:#000"/><path d="M363.2,158.1c-.05-.08-7.82-4.69-9-4.95-.7-.28-1.34-.41-2.17-.77-.47-.27-.92-.38-1.39-.61-.65,0-1.19-.26-1.74-.22-.63-.19-.91.24-1.56.18-.55.13-1.49.31-2,.47" style="fill:none;stroke:#000"/><path d="M344.91,140.3c.22-.19,1.07-.53,1.63-.91a6.62,6.62,0,0,1,4.55-.22" style="fill:none;stroke:#000"/><path d="M352.64,152.57s-.35-1.29-.92-3.36a49.12,49.12,0,0,1-.52-9.3,10.38,10.38,0,0,1,.09-2.2,13.79,13.79,0,0,1,.55-2,14.34,14.34,0,0,1,.74-2c.23-2,5.35-10.25,5.7-10.63s.65-1,.92-1.42a10.44,10.44,0,0,1,.73-1.46,7.55,7.55,0,0,0,.77-1.66,19.94,19.94,0,0,0,.16-2.1c.12-.82,0-1.44,0-2-.12-.71-.16-9.46-.15-9.87.09-.86.79-3.75,2.88-3.37a15.62,15.62,0,0,1,2.19.61,6,6,0,0,1,1.91,1,14,14,0,0,1,3.59,4.45l.38.59" style="fill:none;stroke:#000"/><path d="M347.44,174.95l-.08-.12c.2.32.09.16-.18-.55-.1-.62-.34-1.45-.47-2a6.34,6.34,0,0,1-.43-1.72,3.75,3.75,0,0,1-.12-1.75,9.9,9.9,0,0,0,.16-2.1c0-.93-.07-1.58-.07-2.45a12.64,12.64,0,0,0-.78-2c-.37-.67-.66-1.29-1.09-2l-1.06-1.66,1.06,1.66-1.06-1.66" style="fill:none;stroke:#000"/><path d="M309.22,145.59l.15.24c-.28-.44-.22-.3.34.28.81.47,1.67,1.22,2.38,1.64a18.64,18.64,0,0,0,2.19,1.6,28.13,28.13,0,0,0,2.66,1.3c.8.45,1.68.83,2.47,1.26a12,12,0,0,0,2.32,1,14.51,14.51,0,0,0,2.12,1,4.26,4.26,0,0,0,1.58.65c1,.27,1.49.47,2.48.75.54.13,1.2.35,2,.55a19.3,19.3,0,0,0,2.4.63,6.71,6.71,0,0,1,1.74.38,7.48,7.48,0,0,1,1.86.31c.52,0,1.26.14,2,.23s1.27.26,1.86.31a15.42,15.42,0,0,1,2.06.35,2.83,2.83,0,0,1,.82,0" style="fill:none;stroke:#000"/><path d="M355.51,170.38a32.08,32.08,0,0,1-2.64-5.05l-2.55-3.86c-1.51-1.92-2.58-1.87-3.35-1.86-1.67,0-2.43-.28-3.69-.31-1.31-.49-.49-2.85-.53-2.91,1-5.31,6.56-5.11,6.79-5,2.57.69,2.9,1,2.58,2.6-.54,1.76-.88,2.4-.77,3.49.25,2.09,3,5,3,5.08s1.75,1.3,1.75,1.3c.81.62,1.85.68,3,1.93s1.17,1.92.48,3.36c-.87,1.89-2.95,2.55-4,1.24Z" style="fill:#f9dd16;stroke:#000"/><path d="M316.53,225.94a21.06,21.06,0,0,0,0-3.38c-.1,0-4.9-5.14-4.8-5.15s5.91,1,5.9.83,2-5.75,2-5.85,3.07,6.52,3.07,6.52l5.76,2.23-3.82,3.45s1.18,6.3,1.18,6.4-4.13-3.59-4.13-3.59l-4.34.69a15.09,15.09,0,0,0-.89-2.14Z" style="fill:#f9dd16;stroke:#000"/><path d="M280.82,144.37c-3.68,2.11-16.12,18.93-18,21.6a38.09,38.09,0,0,1-7.74,11.89c-3.45,2.86-5.27,6.64-4.62,10.11.15,4.35,2.73,7.2,4.8,10.18a6.27,6.27,0,0,0,4.45,2.22c3.39.29,3.74,1.32,5.46,1.89,7.06,8.76,17.28,15,24.66,20,4.66,2.2,7.94,4.46,9.08,5.72a15.81,15.81,0,0,1,1.86,9.74l-4.41,20.25c-.65,5.49,4,4.05,4.24,3,2-2.87,5.29-1.06,9.13-17.32l5.89-8.72s2.37-1.07,2.36-1.31c3.47-4.57.57-7-1.55-7.66l-4.66-1.48s-5.54-5.07-5.78-5.06c-2.85-7.22-16-22.47-19-24.52-2.9-1.72-1.78-2.58-4.85-3.75-2.29-1.14-.73-.69-5.81-2.3-1.51-.53-.53-2.2.38-3,9.56-5.77,15.06-10.53,24.2-17L300,150Z" style="fill:#fff;stroke:#000;stroke-width:1.2999999523162842px"/><path d="M299.76,245c0-.2,9.72-2.42,9.72-2.42s-1,3.67-1,3.67l-9.58,3.36Z" style="fill:#f9dd16"/><path d="M299.41,245.12c.62-.21,3.38-1.15,4.19-1.31s1.72-.51,2.54-.82,1.55-.45,2.55-.68a18.23,18.23,0,0,1,2.37-.81m-13.14,9.73a7.1,7.1,0,0,1,1.18-1c.55-.2,2.44-1.11,3.16-1.26s1.53-.5,2.26-.8,1.38-.44,2.27-.66a15,15,0,0,1,2.11-.8" style="fill:none;stroke:#000;stroke-width:1.1299999952316284px"/><path d="M272.67,209.39c1.66-5.09,6.71-9.29,10.17-10.54" style="fill:none;stroke:#000"/><path d="M300,209.59h-.14c.44,0,.17,0-.39.72a4.79,4.79,0,0,1-3.28,2c-.65.1-1.65.21-2.31.24-.19,0-.45-.12-.64-.11" style="fill:none;stroke:#000"/><path d="M301.17,238.47h.14l.56,0c.73,0,1.46.06,2.11,0s1.41.14,2.11.1,1.56,0,2.3.07,1.49.12,2.34.09c.69,0,1.07.09,1.83.06l-1.83-.06c.69,0,1.07.09,1.83.06" style="fill:none;stroke:#000"/><path d="M297.17,255.78a6.68,6.68,0,0,1,1.08-1c.51-.2,2.23-1.1,2.89-1.25s1.4-.49,2.07-.8,1.27-.44,2.08-.66a13,13,0,0,1,1.93-.79" style="fill:none;stroke:#000"/><path d="M309.21,230.83c-.34,1.17.18,1.43.42,1.92a5.89,5.89,0,0,0,2.88,1.56,15.77,15.77,0,0,1,1.71.49,3,3,0,0,1,1,.24" style="fill:none;stroke:#000"/><path d="M251.86,191.1H252c-.44,0-.17,0,.54-.59.43-.53.8-.78,1.2-1.32" style="fill:none;stroke:#000"/><path d="M261.38,200.68c.09,0,8-4.43,8.79-5.33.59-.47,1-1,1.75-1.49.46-.27.79-.6,1.22-.9.35-.55.82-.9,1.06-1.4.48-.45.24-.91.62-1.44.17-.54.48-1.44.57-1.93" style="fill:none;stroke:#000"/><path d="M285.94,193.75c.06.29-.08,1.19,0,1.87a6.62,6.62,0,0,1-2.09,4.05" style="fill:none;stroke:#000"/><path d="M271.46,194.3s1.29.34,3.37.88a49.12,49.12,0,0,1,8.32,4.2,10.38,10.38,0,0,1,1.86,1.18,13.79,13.79,0,0,1,1.47,1.48,14.34,14.34,0,0,1,1.34,1.63c1.62,1.19,6.2,9.76,6.36,10.25s.58,1.08.77,1.51a10.44,10.44,0,0,1,.9,1.36,7.55,7.55,0,0,0,1.05,1.5,19.94,19.94,0,0,0,1.74,1.19c.66.51,1.26.71,1.73,1,.67.25,8.27,4.59,8.62,4.81.7.51,2.86,2.56,1.48,4.17a15.62,15.62,0,0,1-1.62,1.59,6,6,0,0,1-1.84,1.14,14,14,0,0,1-5.65.89l-.7,0" style="fill:none;stroke:#000"/><path d="M254.67,178.62h.14c-.38,0-.19,0,.57.11.58.23,1.42.43,2,.61a6.34,6.34,0,0,1,1.71.49,3.75,3.75,0,0,1,1.58.77,9.9,9.9,0,0,0,1.74,1.19c.79.49,1.4.73,2.16,1.17a12.64,12.64,0,0,0,2.12.33c.76,0,1.44.08,2.25,0l2-.09-2,.09,2-.09" style="fill:none;stroke:#000"/><path d="M299.21,160.19h-.28c.52,0,.37,0-.41.16-.81.46-1.9.84-2.61,1.24a18.64,18.64,0,0,0-2.48,1.09,28.13,28.13,0,0,0-2.45,1.65c-.79.47-1.56,1-2.32,1.51a12,12,0,0,0-2,1.5,14.51,14.51,0,0,0-1.91,1.35,4.26,4.26,0,0,0-1.36,1c-.71.69-1.15,1.05-1.89,1.77-.39.4-.9.87-1.48,1.47a19.3,19.3,0,0,0-1.75,1.76,6.71,6.71,0,0,1-1.2,1.32,7.48,7.48,0,0,1-1.2,1.46c-.27.44-.75,1-1.19,1.6s-.86,1-1.2,1.46a15.42,15.42,0,0,1-1.33,1.6,2.83,2.83,0,0,1-.39.72" style="fill:none;stroke:#000"/><path d="M254.6,187.89a32.08,32.08,0,0,1,5.7.24l4.62-.28c2.42-.34,2.91-1.3,3.28-2,.85-1.44,1.46-2,2.11-3,1.08-.89,2.71,1,2.78,1,4.09,3.54,1.14,8.24.94,8.38-1.88,1.89-2.3,2-3.54.93-1.25-1.35-1.63-2-2.64-2.41-1.93-.83-5.83.05-5.9.05s-2,.86-2,.86c-.94.39-1.51,1.26-3.16,1.62-1.68.19-2.24.05-3.15-1.26-1.2-1.7-.73-3.83.94-4.12Z" style="fill:#f9dd16;stroke:#000"/><path d="M304.62,169.37c-1.77-.9-3.13-1.08-3.77-.65-1-5.75-1.93-11.5-3.25-17.23-10.9-4.54-13.2-5.57-16.77-7.13,1.67-1.08,2.5-2.17,2.45-2.95,5.49,2,10.92,4.08,16.55,5.8,9.38-7.17,11.43-8.64,14.56-11,.1,2,.63,3.25,1.33,3.59-4.46,3.76-9,7.42-13.29,11.43,1.52,11.7,1.77,14.22,2.21,18.09Z" style="fill:#f9dd16;stroke:#000;stroke-width:1.2999999523162842px"/></svg>