<svg xmlns="http://www.w3.org/2000/svg" viewBox="0 0 840 600"><title>Kosovo</title><path d="M0,0H840V600H0Z" style="fill:#244aa5"/><path d="M424.54,190.13c3.51,4.1,5.87,8.2,5.87,13.19-3,1.46-7,2.05-9.38,4.69,14.65-2.06,17.57,14.93,34,8.49a4.67,4.67,0,0,0,5.87,3.52l1.76-4.68c6.43-1.76,4.67,8.78,11.73,6.73,3.52,2.93,1.16,7.91,3.52,11.44,0,4.09,1.76,7.61,3.51,11.12,1.76-2,2.92-5,7-4.09,2.92,3.22,5.27,6.15,5.87,9.66-1.19,6.75-2.95,12.6,4.08,16.11v2.05c4.71,2.05,15.25-2.05,15.25,6.15-.6,2.93,2.92.3,4.11,2.05,2.92-1.18,7-.58,10.54-.58,2.92,6.15-3.51,10.54-5.27,16.11,2.92,2.92,1.76,8.2,1.16,11.7l-1.76.88c4.67.88,10.54-.56,14.65,2.07l7.62,2.92c3.51-2,7.59-2.35,12.3-2,3.51,2.64-1.19,7,1.76,9.07,4.11,0,7.62.6,8.19,4.11l.6,1.16c2.92-5.27,11.14-1.76,14.65-5.55,5.87,0,7,6.43,9.94,9.95,1.19,9.1-9.94,13.21-6.43,22.27-2.35,4.39-7,7.91-10.54,12,1.16.6.56,2,.56,2.92-3.51,2.07-.56,8.22-5.27,8.79-.56,3.83-7.59,2.35-5.27,6.46,4.7,6.15-2.32,9.95-2.32,15.53-2.95,3.23-8.82-2.95-8.82,3.23-3.51.88-7-3.23-9.35.28-1.19,4.11,2.32,5.55,1.76,9.66,5.84-.6,7.59,5.27,9.95,8.79l5.87,5.87c-5.87,4.67-13.49-.6-20.52,2-1.76-.88,0-3.2-1.76-4.08-1.76-2.07-5.27-2.07-8.19-2.64.56,2.64-4.71,3.51-2.35,6.71,0,.88,1.16,3.51-1.16,3.51-4.71,1.47-4.11-4.08-8.22-2-5.27,2-1.16,9.95-8.78,9.07,1.16,7.06-11.7,11.73-2.92,17.88,1.16,1.16.56,3.51.56,5.27-5.27,4.71-14.62,2.95-20.49,1.19-4.71-1.19-1.76-7.06-3.51-10.26-1.76-2.95-7-5-7-9.1-3.52-1.44-6.46-2.35-8.82-5.27-8.19,7.91-18.16,15.53-29.87,15.81-5.27,2.64-8.22,13.21-16.41,8.81-3.22,5.27-12.9,0-13.48,7.59-3.81,1.47-2.05,6.46-4.39,8.78-.88,5.87,0,10.85,5,14.37,2.05,4.39-4.39,4.39-1.76,8.5a3.91,3.91,0,0,1-.88,4.11c-1.76.88-2.34,1.76-1.76,3.51-1.46,0-2.05.88-3.22,2-1.47,2.92-6.15,4.39-9.38,6.43-3.22.88-5.57-1.44-7.61-3.51-.6,3.23-3.23,5-6.45,5-4.69,0-3.81-4.11-7.33-5.87,1.46-5.27-3.23-7.59-1.76-12.3,3.81-2.92,10.24-5,8.49-11.14-4.09-5-2.64-12.3-6.73-18.17-2.64-2.32-7-5.84-5.57-11.42,3.81-4.39,0-9.66-2.05-14.34-.88-3.83-3.22-7.34-3.22-11.73-6.45-3.8-6.75-13.77-15.83-14.65-6.45,0-7.61-8.19-14.06-7.62-.6-1.16-2.05-2-3.23-3.2-4.67,3.2-10.54-.88-16.39.56-3.81-6.43,3.22-15.22-7-19v-4.08c1.18.56,1.76-.6,2.05-1.19.58-4.39-7.33-5-4.09-9.95-1.76-1.47-3.81-2.07-2.64-5-4.41-9.07-17.59-8.19-20.52-17.29,2.35-2,2.35-4.11,3.23-5.87a16.59,16.59,0,0,1-2.06-11.11c2.06-.6,3.22-3.23,4.39-5.3-2.64-1.76-5.85-4.39-8.79-3.51-5.27-.88-9.08-5-13.77-7.31-1.18-1.16-.58-3.23-.58-4.67,6.45-2.07-.88-11.15,7-10,2.06-2.64,6.45-3.51,9.66-5.57,3.23-.58,5.87.6,9.08,1.47,2.64,3.5,7.33,2,10,5,2.64-.6,5.87-2.06,9.08-.6,0-5,2.34-7.91,5.87-11.42.58-2,3.8-3.51,6.43-4.67,5,1.16,10.84,1.16,14.37-2.35,2.34,1.47,4.39-1.46,7-1.46a11,11,0,0,1,8.2,1.76c.28-5.87,10.54-.88,12.6-7.91,2.34-4.69-6.45-6.45-5.87-10.56-1.46-4.69,2.06-7,3.81-10.24,2.05-.88,4.39-2.05,7-1.47,6.75-2.34,1.47-16.11,12.31-11.12,0,1.46-.6,3.22.28,3.51,3.81,0,4.4-4.4,7-5.87,1.16-4.09-1.47-9.08,2-12.3a6.52,6.52,0,0,0,4.39-2.35c0-3.22-1.76-5-4.39-7-.88,1.46-3.22.3-4.69.88,0-3.51-2-5.85-2.64-9.08a3.47,3.47,0,0,1-2-4.39c2.64-2.64,0-9.08,6.15-7.62,2.34-2,6.45-.58,8.79-4.1,6.15-3.51,14.35-3.51,19-10,2.05.3,4.39-1.76,6.45,0,.58,3.81,6.15,2.34,6.15,5.86" style="fill:#d0a650"/><path d="M469.9,110.7l-8.1-24.9-8,24.9H427.6l21.2,15.4L440.7,151l21.1-15.4L483,151l-8.1-24.9,21.2-15.4Z" style="fill:#fff"/><path d="M552.3,125.2l-8.1-24.8-8,24.8H510l21.2,15.4-8.1,24.9,21.1-15.4,21.2,15.4-8.1-24.9,21.2-15.4Z" style="fill:#fff"/><path d="M630.9,153.8l-8-24.8-8.1,24.8H588.6l21.2,15.4-8.1,24.9,21.2-15.4L644,194.1l-8.1-24.9,21.2-15.4Z" style="fill:#fff"/><path d="M386.2,110.7l-8-24.9-8.1,24.9H343.9l21.2,15.4L357,151l21.2-15.4L399.3,151l-8.1-24.9,21.2-15.4Z" style="fill:#fff"/><path d="M303.8,125.2l-8-24.8-8.1,24.8H261.5l21.2,15.4-8.1,24.9,21.2-15.4,21.1,15.4-8.1-24.9L330,125.2Z" style="fill:#fff"/><path d="M225.2,153.8,217.1,129l-8,24.8H182.9l21.2,15.4L196,194.1l21.1-15.4,21.2,15.4-8.1-24.9,21.2-15.4Z" style="fill:#fff"/></svg>