<svg xmlns="http://www.w3.org/2000/svg" viewBox="0 0 1000 600"><title>Kyrgyzstan</title><path d="M0,0H1000V600H0Z" style="fill:red"/><path d="M454.87,259.27a212.93,212.93,0,0,0-35.22-17.44A96.76,96.76,0,0,0,403,296.19a95.62,95.62,0,0,0,4.4,28.79,183.17,183.17,0,0,1,19.31-33.87,188.22,188.22,0,0,1,28.11-31.84Zm-29.81-24.56a227.49,227.49,0,0,1,38.1,17.44c2.71-2.37,5.59-4.4,8.3-6.44a220.37,220.37,0,0,0-40.64-17.27A66.38,66.38,0,0,0,425.06,234.72Zm11.85-12a205.38,205.38,0,0,1,43.52,16.93c3.22-2,6.44-3.9,9.48-5.76A209.83,209.83,0,0,0,444,217.1a57.44,57.44,0,0,0-7.11,5.59Zm14.39-10.16a200.11,200.11,0,0,1,48.26,16.26,205.18,205.18,0,0,1,48.26-16.26,95.84,95.84,0,0,0-96.53,0Zm103.81,4.74a209.35,209.35,0,0,0-45.89,16.6c3.22,1.86,6.27,3.73,9.48,5.76a212.69,212.69,0,0,1,43.52-16.93,43.85,43.85,0,0,0-7.11-5.42Zm13.21,11.35a213.24,213.24,0,0,0-40.64,17.1c2.88,2,5.76,4.23,8.47,6.44a219.83,219.83,0,0,1,37.93-17.44,39.06,39.06,0,0,0-5.76-6.1ZM579.51,242a198.12,198.12,0,0,0-35.06,17.27,195.92,195.92,0,0,1,28.11,31.84A204.81,204.81,0,0,1,591.87,325a102.07,102.07,0,0,0,4.23-28.79A95.8,95.8,0,0,0,579.51,242Zm-8.3,66.38A204,204,0,0,0,535.31,265c-3,2.2-6.27,4.4-9.14,6.6a208.15,208.15,0,0,1,53,79.25,104.5,104.5,0,0,0,7.28-12.53A226.93,226.93,0,0,0,571.21,308.38Zm-53.68-44c3-2.2,6.1-4.4,9.31-6.44-2.71-2.37-5.59-4.57-8.47-6.77-3.22,2-6.44,4.06-9.65,6.27h.17c2.88,2.2,5.76,4.57,8.64,6.94Zm-18-13.55c3.22-2,6.6-4.06,9.65-5.93-3.22-2-6.44-4.06-9.65-5.93-3.22,1.86-6.27,3.9-9.48,5.93C493.31,246.74,496.36,248.77,499.58,250.8Zm-9.14,6.6c-3.22-2.2-6.27-4.23-9.48-6.27l-8.64,6.6c3.22,2.2,6.27,4.23,9.31,6.44,2.88-2.37,5.76-4.57,8.81-6.77Zm9.14,6.77c-2.88,2.2-5.76,4.57-8.81,7.11,3,2.37,5.93,4.91,8.81,7.45,2.88-2.54,5.76-5.08,8.81-7.45C505.5,268.92,502.62,266.38,499.58,264.18Zm0,31.67a213.91,213.91,0,0,0-33.36,47.59A204.87,204.87,0,0,0,451.31,380a98.05,98.05,0,0,0,96.53,0,204.87,204.87,0,0,0-14.9-36.58,208.5,208.5,0,0,0-33.36-47.59ZM443.69,360a216.3,216.3,0,0,1,47.25-73c-2.88-2.71-5.76-5.25-8.81-8A214.08,214.08,0,0,0,429,361.9a94.44,94.44,0,0,0,10.33,9.82c1.35-3.9,2.88-7.79,4.4-11.69Zm64.52-73a219.29,219.29,0,0,1,47.42,73c1.52,3.9,2.88,7.79,4.23,11.69a96.09,96.09,0,0,0,10.5-9.82A216.4,216.4,0,0,0,517,279.09c-3,2.71-5.93,5.25-8.81,8ZM420,350.89a206,206,0,0,1,53.18-79.09c-3-2.37-6.1-4.57-9.31-6.77a209.33,209.33,0,0,0-35.9,43.52,215.11,215.11,0,0,0-15.24,29.81A92.78,92.78,0,0,0,420,350.89Zm80.1-159.19A108.21,108.21,0,1,1,391.87,299.92,108.41,108.41,0,0,1,500.08,191.7ZM547.84,168A64,64,0,0,0,538,183.4a10.27,10.27,0,0,1-.34-6.44c.85-7.79,3-12.53,7.11-19.14,1.35-2.37,2.71-4.4,3.39-6.94a29.57,29.57,0,0,0-3.56-25.74,32.8,32.8,0,0,1-4.91,21,9.83,9.83,0,0,1-1.69,2,64.13,64.13,0,0,0-11.35,13.89,66.34,66.34,0,0,0-7.45,16.77,10.16,10.16,0,0,1-1.19-6.1c-.34-8,1-12.87,3.9-20.15a29.38,29.38,0,0,0,2.37-7.45c1.19-7.79-.85-17.78-7.62-24.72a32.72,32.72,0,0,1-1.52,21.51,25.07,25.07,0,0,1-1.35,2.2,72.84,72.84,0,0,0-9.14,15.41,74,74,0,0,0-4.57,17.78,9.72,9.72,0,0,1-2.2-5.93c-1.52-7.79-1-12.87.68-20.49a23.14,23.14,0,0,0,1.19-7.62A29.92,29.92,0,0,0,488.4,119.9a33.27,33.27,0,0,1,1.86,21.68c-.34.68-.68,1.52-1,2.2-2,4.23-4.4,8.3-6.6,16.77a74,74,0,0,0-1.86,18.29,13,13,0,0,1-3-5.42c-2.71-7.62-3-12.53-2.37-20.49a38.19,38.19,0,0,0,0-7.62c-1.35-8-6.44-16.77-14.9-21.34a33.21,33.21,0,0,1,5.08,21L465,147.5a73,73,0,0,0-3.89,17.61,65.62,65.62,0,0,0,1,18.29,12.58,12.58,0,0,1-3.9-4.91c-3.89-7.11-4.91-12-5.59-19.81a23.29,23.29,0,0,0-1.35-7.62c-2.37-7.62-8.81-15.58-18-18.63,5.93,6.6,8.3,14.23,8.3,19.81a12.82,12.82,0,0,1-.17,2.54,74.41,74.41,0,0,0-1,18,72,72,0,0,0,3.9,18,12.48,12.48,0,0,1-4.74-4.23c-4.91-6.27-6.6-11-8.47-18.63a29.82,29.82,0,0,0-2.54-7.45c-3.56-6.94-11.18-13.89-20.66-15.58,6.77,5.76,10.33,13,11.35,18.46a12.82,12.82,0,0,1,.17,2.54,83.45,83.45,0,0,0,1.86,18,65.4,65.4,0,0,0,6.6,16.93,12.12,12.12,0,0,1-5.25-3.39c-5.93-5.42-8.47-9.82-11.35-17.1a33.55,33.55,0,0,0-3.56-6.94c-4.74-6.27-13.21-11.85-23-12,7.79,4.57,12.36,11,14.23,16.26l.51,2.54c.85,4.57,1.35,9.31,4.57,17.44a65.82,65.82,0,0,0,9.31,15.75,11.65,11.65,0,0,1-5.76-2.54c-6.6-4.4-9.82-8.47-14.06-15.07a23.85,23.85,0,0,0-4.57-6.27c-5.59-5.59-14.9-9.82-24.56-8.47,8.3,3.39,13.89,9.14,16.6,14.06.34.68.68,1.52,1,2.37,1.52,4.23,2.71,8.81,7.11,16.43a67.54,67.54,0,0,0,11.69,14.23,13.8,13.8,0,0,1-6.1-1.69c-7.28-3.39-11-6.77-16.09-12.7a43.56,43.56,0,0,0-5.59-5.59c-6.44-4.57-16.26-7.28-25.57-4.4,8.81,2,15.24,6.77,18.46,11.18a6,6,0,0,1,1.35,2.2A72.61,72.61,0,0,0,377.14,232a62.55,62.55,0,0,0,13.55,12.36,12.18,12.18,0,0,1-6.27-.85c-7.62-2-11.85-4.91-17.78-10a42.46,42.46,0,0,0-6.27-4.57,30.44,30.44,0,0,0-26.08-.34,33.14,33.14,0,0,1,20.15,8.13,21.15,21.15,0,0,1,1.52,2c2.88,3.56,5.42,7.62,12,13.38a69.21,69.21,0,0,0,15.41,10,11.18,11.18,0,0,1-6.27.17c-8-.85-12.53-3-19.31-7.11-2.37-1.35-4.4-2.71-6.94-3.39a29.21,29.21,0,0,0-25.57,3.56,33.09,33.09,0,0,1,21,4.91,8.88,8.88,0,0,1,1.86,1.69c3.39,3.22,6.6,6.77,13.89,11.35a63.28,63.28,0,0,0,16.77,7.45,11.6,11.6,0,0,1-6.1,1.35c-8,.17-12.87-1.19-20.15-4.06a29.38,29.38,0,0,0-7.45-2.37c-7.79-1.19-17.78.85-24.72,7.62,8.64-2.2,16.6-.85,21.51,1.52a25.07,25.07,0,0,1,2.2,1.35,65.72,65.72,0,0,0,33.19,13.72,9.64,9.64,0,0,1-5.76,2.2c-8,1.69-12.87,1-20.66-.68a28.64,28.64,0,0,0-7.62-1.19c-8,0-17.44,3.56-23.2,11.35a32.72,32.72,0,0,1,21.51-1.86c.85.34,1.52.68,2.37,1a72.39,72.39,0,0,0,16.77,6.6,71.5,71.5,0,0,0,18.12,1.86,13,13,0,0,1-5.42,3c-7.45,2.71-12.53,3-20.32,2.37a39.91,39.91,0,0,0-7.79,0c-7.79,1.35-16.6,6.44-21.17,15.07a32,32,0,0,1,21-5.25c.85.17,1.52.34,2.37.51a66.76,66.76,0,0,0,35.9,2.88,12.58,12.58,0,0,1-4.91,3.9c-6.94,3.89-12,4.91-19.81,5.59a37.79,37.79,0,0,0-7.62,1.35,29.56,29.56,0,0,0-18.63,18,32.61,32.61,0,0,1,20-8.3,12.82,12.82,0,0,1,2.54.17,73.06,73.06,0,0,0,18,1,62.88,62.88,0,0,0,17.78-3.9,10.2,10.2,0,0,1-4.23,4.74c-6.27,4.91-11,6.6-18.63,8.47a28.64,28.64,0,0,0-7.28,2.54A29.7,29.7,0,0,0,345,392a32.67,32.67,0,0,1,18.29-11.35,12.82,12.82,0,0,1,2.54-.17,82.52,82.52,0,0,0,18-1.86,68.5,68.5,0,0,0,17.1-6.6,11.64,11.64,0,0,1-3.56,5.25c-5.42,5.93-9.82,8.47-17.1,11.35a51.6,51.6,0,0,0-6.77,3.56c-6.44,4.74-12,13.21-12.19,23A32.48,32.48,0,0,1,377.65,401c.85-.17,1.52-.34,2.37-.51,4.57-.85,9.31-1.35,17.44-4.57a74.7,74.7,0,0,0,15.92-9.14,12.21,12.21,0,0,1-2.71,5.59c-4.4,6.6-8.3,9.82-15.07,14.06a31.1,31.1,0,0,0-6.27,4.57,29.84,29.84,0,0,0-8.3,24.56A32.5,32.5,0,0,1,394.92,419c.85-.34,1.52-.68,2.37-1a65.76,65.76,0,0,0,16.43-7.11,67.54,67.54,0,0,0,14.23-11.68,10.45,10.45,0,0,1-1.69,6.1c-3.39,7.28-6.77,11-12.7,16.09a33.75,33.75,0,0,0-5.42,5.59c-4.57,6.44-7.28,16.26-4.4,25.57,1.86-8.81,6.6-15.24,11.18-18.46a14.13,14.13,0,0,1,2-1.35,77.43,77.43,0,0,0,15.24-9.82,67.24,67.24,0,0,0,12.19-13.55,13.74,13.74,0,0,1-.68,6.27c-2.2,7.62-4.91,11.85-10.16,17.78a28.83,28.83,0,0,0-4.4,6.44c-3.56,7.11-4.74,17.1-.51,25.91.68-9,4.4-16.09,8.3-20a8.88,8.88,0,0,1,1.86-1.69c3.73-2.88,7.62-5.42,13.38-12a69.21,69.21,0,0,0,10-15.41,12.89,12.89,0,0,1,.34,6.27c-1,8-3,12.53-7.11,19.31a30,30,0,0,0-3.56,6.94c-2.37,7.62-1.86,17.78,3.73,25.74-.85-9,1.69-16.6,4.91-21.17a18,18,0,0,1,1.52-1.86c3.22-3.39,6.77-6.6,11.52-13.89a69.93,69.93,0,0,0,7.28-16.77,11.6,11.6,0,0,1,1.35,6.1c.34,8-1,12.87-4.06,20.15a38.16,38.16,0,0,0-2.37,7.45c-1.19,7.79.85,17.78,7.62,24.72-2.2-8.64-.85-16.6,1.69-21.51a9.13,9.13,0,0,1,1.19-2.2,64.52,64.52,0,0,0,9.14-15.58,62.88,62.88,0,0,0,4.74-17.61,12.44,12.44,0,0,1,2.2,5.76c1.52,8,1,12.87-.85,20.66a28.64,28.64,0,0,0-1.19,7.62,29.55,29.55,0,0,0,11.52,23.2c-3.56-8.13-3.56-16.09-1.86-21.51a13.27,13.27,0,0,1,.85-2.37,72.38,72.38,0,0,0,6.6-16.77,71.5,71.5,0,0,0,1.86-18.12,11.38,11.38,0,0,1,3,5.42c2.88,7.45,3,12.53,2.54,20.49a23,23,0,0,0,0,7.62A29.52,29.52,0,0,0,539.71,476c-4.74-7.62-5.93-15.58-5.08-21a6.79,6.79,0,0,1,.51-2.54,73,73,0,0,0,3.9-17.61,82,82,0,0,0-1-18.29,14.32,14.32,0,0,1,3.9,4.91c3.9,6.94,4.91,12,5.59,19.81a28.64,28.64,0,0,0,1.19,7.62,29.84,29.84,0,0,0,18.12,18.63c-5.93-6.77-8.3-14.39-8.47-20a12.82,12.82,0,0,1,.17-2.54,65.42,65.42,0,0,0,1-18,68,68,0,0,0-3.73-17.78,11.92,11.92,0,0,1,4.57,4.23c4.91,6.27,6.77,11,8.64,18.63a28.2,28.2,0,0,0,2.37,7.28c3.73,7.11,11.18,13.89,20.83,15.58a32.14,32.14,0,0,1-11.52-18.29,12.82,12.82,0,0,1-.17-2.54,71.6,71.6,0,0,0-1.69-18,70.2,70.2,0,0,0-6.77-17.1,10.81,10.81,0,0,1,5.25,3.56c5.93,5.42,8.47,9.82,11.52,17.1a28.88,28.88,0,0,0,3.56,6.77c4.74,6.44,13.21,12,22.86,12.19a32.88,32.88,0,0,1-14.06-16.43,12.48,12.48,0,0,1-.68-2.37,68,68,0,0,0-4.57-17.44,64.25,64.25,0,0,0-9.14-15.75,10.32,10.32,0,0,1,5.76,2.54c6.6,4.4,9.82,8.3,13.89,15.07a33,33,0,0,0,4.57,6.27,29.84,29.84,0,0,0,24.56,8.3c-8.3-3.22-13.89-9-16.43-13.89a7.17,7.17,0,0,1-1-2.37,75.24,75.24,0,0,0-7.28-16.43,71.46,71.46,0,0,0-11.52-14.23,12.82,12.82,0,0,1,6.1,1.69c7.11,3.39,11,6.77,16.09,12.7a27.38,27.38,0,0,0,5.42,5.42,30.11,30.11,0,0,0,25.57,4.57c-8.64-2-15.07-6.77-18.46-11.35a14.12,14.12,0,0,1-1.35-2c-2.2-4.06-4.06-8.47-9.65-15.24a74.31,74.31,0,0,0-13.72-12.19,13.52,13.52,0,0,1,6.27.68c7.62,2.2,11.85,5.08,18,10.16a32.14,32.14,0,0,0,6.27,4.4c7.11,3.56,17.1,4.74,25.91.51-9-.68-15.92-4.4-20-8.3a8.88,8.88,0,0,1-1.69-1.86,72.13,72.13,0,0,0-11.85-13.38,78.38,78.38,0,0,0-15.41-10,12.76,12.76,0,0,1,6.27-.34c7.79,1,12.53,3,19.14,7.28a37.57,37.57,0,0,0,6.94,3.39c7.62,2.37,17.78,1.86,25.74-3.73-9,.85-16.43-1.69-21-4.91l-2-1.52a69,69,0,0,0-13.89-11.52,67,67,0,0,0-16.77-7.28,12,12,0,0,1,6.1-1.35c8.13-.34,13,1,20.15,4.06a38.16,38.16,0,0,0,7.45,2.37c7.79,1.19,17.78-.85,24.72-7.62-8.64,2.2-16.43.85-21.51-1.69a14,14,0,0,1-2.2-1.19,72.84,72.84,0,0,0-15.41-9.14,79,79,0,0,0-17.78-4.74,12.4,12.4,0,0,1,5.93-2.2c7.79-1.52,12.87-1,20.49.85a28.64,28.64,0,0,0,7.62,1.19A30.46,30.46,0,0,0,680.1,288.4c-8.3,3.39-16.26,3.39-21.51,1.69a9.79,9.79,0,0,1-2.37-.85c-4.23-2-8.3-4.4-16.77-6.6a73,73,0,0,0-18.29-1.86,11.38,11.38,0,0,1,5.42-3c7.62-2.88,12.7-3,20.49-2.54a24,24,0,0,0,7.79,0A29.55,29.55,0,0,0,676,260.29c-7.62,4.74-15.41,5.93-21,5.25a14.11,14.11,0,0,1-2.54-.68,73.2,73.2,0,0,0-17.44-3.9,74.05,74.05,0,0,0-18.29,1.19,10.81,10.81,0,0,1,4.91-4.06c6.94-3.9,11.85-4.91,19.64-5.59a28.64,28.64,0,0,0,7.62-1.19c7.62-2.54,15.58-8.81,18.63-18.12a32.16,32.16,0,0,1-19.81,8.47,12.82,12.82,0,0,1-2.54-.17c-4.57-.68-9.31-1.69-18-1a65,65,0,0,0-18,3.9,12.48,12.48,0,0,1,4.23-4.74c6.27-4.91,11-6.77,18.63-8.64a29.38,29.38,0,0,0,7.45-2.37c6.94-3.73,13.89-11.18,15.58-20.83-5.76,6.94-12.87,10.5-18.46,11.52a12.82,12.82,0,0,1-2.54.17,69.83,69.83,0,0,0-17.78,1.69,65.34,65.34,0,0,0-17.1,6.77,10.46,10.46,0,0,1,3.39-5.25c5.42-5.93,9.82-8.47,17.1-11.52a26.93,26.93,0,0,0,6.94-3.56c6.27-4.74,11.85-13.21,12-22.86-4.57,7.62-11,12.19-16.26,14.06a14.11,14.11,0,0,1-2.54.68c-4.57.85-9.31,1.35-17.44,4.57a71.08,71.08,0,0,0-15.75,9.14,12.34,12.34,0,0,1,2.54-5.76c4.4-6.6,8.47-9.82,15.07-13.89a28.38,28.38,0,0,0,6.27-4.57c5.59-5.59,9.82-14.9,8.47-24.56-3.39,8.3-9.14,13.89-14.06,16.6a11.76,11.76,0,0,1-2.2.85,79.41,79.41,0,0,0-16.6,7.28,71.46,71.46,0,0,0-14.23,11.52,13.75,13.75,0,0,1,1.69-5.93c3.39-7.28,6.77-11,12.7-16.26a33.75,33.75,0,0,0,5.59-5.42c4.57-6.44,7.28-16.26,4.4-25.57-2,8.64-6.77,15.07-11.18,18.46a9.6,9.6,0,0,1-2.2,1.35c-4.06,2.2-8.47,4.06-15.07,9.65a63.76,63.76,0,0,0-12.19,13.72,10.32,10.32,0,0,1,.68-6.27c2.2-7.62,4.91-11.85,10-18,1.69-2,3.39-3.73,4.57-6.27a30.06,30.06,0,0,0,.34-25.91,31.66,31.66,0,0,1-8.13,20,16.86,16.86,0,0,1-1.86,1.69,68.21,68.21,0,0,0-13.55,12Z" style="fill:#ff0"/></svg>