<svg xmlns="http://www.w3.org/2000/svg" viewBox="0 0 900 600"><title>Lebanon</title><path d="M0,0H900V600H0Z" style="fill:#ed1c24"/><path d="M0,150H900V450H0Z" style="fill:#fff"/><path d="M445.91,150c-6.44,13.56-18.57,23-30.16,32-1.91,1.66-6.65,4.89-3.21,7.35,2.95-3.29,11,1.07,6.33,4.61-4.21,3.94-10,5.38-14.68,8.63-4.14,2.25-8.34,4.6-11.62,8-.22,5.38,6.67,2.4,9.47,4.64,3.64,3.9-1.55,10.47-6.33,9-6.12.19-10.34,5.57-12.65,10.7-4.78,7.4-13.85,9.59-21.07,13.8a139.12,139.12,0,0,0-12,7.88c-5,3.39-.64,10.1,4.63,8.45,5.69-.57,10.82-5,16.71-3.75,5.35,1.88,6.85,8.86,5,13.74-1.35,3.9-4.62,6.66-7.24,9.71a31.87,31.87,0,0,1-15.68,8.44A31.13,31.13,0,0,0,339,303.28c-4.31,4.34-8.61,8.76-13.57,12.38-1.57,4,2.86,7.4,6.54,7.3,7.77-.49,13.15-6.85,19.77-10.11,5.49-2.47,12,3.45,10.61,9.17-.42,5.56-5.63,8.39-10.27,10.1-13.61,6.84-25.44,16.77-35.93,27.72-2.17,4.43-8.14,3.13-11.35,6.21-2.09,3.91,3.16,6,6.3,5.57,13.47-1.62,26-7.31,37.95-13.58,4.43-2.12,8.59-4.9,13.19-6.59,4.32-1.07,10.35.81,11.13,5.73,0,5.2-5.15,8.07-9.23,10.1-12.57,6.6-26.36,10.26-39.8,14.62-5-1.41-8.82,7.54-3.3,9.15,5.83,2,12,.4,18,.13,18.45-2.83,34.6-12.81,51.85-19.27A16.39,16.39,0,0,1,410,379.56a19.06,19.06,0,0,1-.52,19.69c-5.93,12.68-14.94,24.34-27,31.63-7.59,3.76-16.46,5.2-23,11-6,2,3,10.12,4.32,3.66,3.62-4.93,10-6.41,15.78-6.61,8.7-.95,17.93-2.55,24.69-8.57,6.06-4.7,12-11.2,20.25-11.3,4.55.54,9,4.19,13.66,2,4-1.85,10.38-.77,11.43,4.2,1.93,5.81,7.92,8.45,12.67,11.56,1.72,2.41,7.43,8.64,8.75,3.15-1.06-3.92.46-9.91,5.59-8.6,4.49.2,8.76,1.86,13.24,2.13,6,1.23,10.94,5.32,14.32,10.25,2.33,3.22,7.43,8.74,11.22,4.48,2.35-4.41-2.14-8.09-5.79-9.67-5.33-3.3-9.89-7.7-14.55-11.87-6.87-6.42-12.8-14.58-13.89-24.16-1.48-9.55-.7-19.3.55-28.83,1.57-6.14,9.42-9.48,14.9-6.23,7.72,3.52,15.39,8.56,24.23,8,12.79.27,25.93-2.17,38.43,1.53,12.16,3.83,20.86,14.09,32.7,18.54a4.88,4.88,0,0,0,7-2.76,5.73,5.73,0,0,0-2.11-7.25c-13.73-13.86-32.49-20.59-48.38-31.42-5-1.27-5.91-9.32-1.29-11.64,6.08-4.42,14.68-2.36,20.07,2.19,4.55,2.67,9.68,4.67,15,4.67,5.47-1.71,2.82-9.63-2.08-10.23-8.88-5-15.24-13.24-22.93-19.76-4.43-3.75-9.28-7.55-15.23-8.27a40.15,40.15,0,0,0-9.88-.5c-3.09-3.36,1-8.51,5-8.08a59.48,59.48,0,0,0,12.28,0c4.58-.33,9.15-.81,13.75-.84,3.71,2.52,11.12-1.84,7.77-6.19-3.66-3.2-8.94-2.93-13.31-4.57a205.29,205.29,0,0,0-23.4-6.15c-5.53-.33-4.85-7.61,0-8.42,3.18-1.19,6,1.26,9,1.64,5.22,1.12,10.6,1.11,15.82,2.24,4.42-2.18,1-8.64-3-9-9.44-3.37-17.59-9.47-25.57-15.39-8.8-6.62-16.79-14.28-25.7-20.75-3.23-2-8.53-2.58-9.38-7-.3-4.09,4.51-5.95,7.92-5,4.84,1.43,9.34,3.91,14.27,5.14,3.87.66,7.85,1.8,11.58,1.32,4.73-3-2-4.87-4.48-5.9-6.31-3.4-11.91-7.94-17.59-12.26-4.8-4.1,4.07-5.9,7.12-4.33,5.1,2.13,5.68-5.3,1.87-7.17-4.49-1.91-8.35-5.08-12.43-7.85-7.36-5.24-15.69-9.38-24.74-10.54a33.69,33.69,0,0,1-25-15.52A97,97,0,0,1,445.91,150ZM412.6,206.9c5.23.15,4.42,9.58-.72,8.95C406.88,215.53,407.19,205.89,412.6,206.9ZM461.91,212c5.09-.91,6.16,8.37,1.08,8.81C457.69,221.73,455.73,211.39,461.91,212Zm-14.44,1.21c5.16,1,4.24,10-1,10.08-3.81.85-7.91,3.45-11.76,1.5-3.13-3.31,1.39-8.21,4.89-9.29,2.68-.54,5.15-1.76,7.84-2.29Zm33.24,0c5,1.81,3.22,10.59-2,10.47-5,.66-7.27-7.6-2.64-9.57a12.48,12.48,0,0,1,4.67-.91Zm-56.07,10c3.65,3.48,1.5,10.19-3,11.79-3.25,1.81-7.67,6.08-11.21,2.56-1.92-4.29,2.9-7.53,5.73-9.91a21.75,21.75,0,0,1,8.49-4.44Zm41.73,19.4c5.23,2.47,2.58,11.9-3.17,11.31-4.72-1.2-4.1-9.28.65-9.93A12.76,12.76,0,0,0,466.37,242.57Zm-16.6.94c4.89,2.29,1.16,10.46-3.77,9.28-5.11-.6-5-9.58.62-8.77A9,9,0,0,0,449.77,243.51Zm35.79,4.68c5.36-1.66,11.82,3.86,10.08,9.46-2.39,4.34-8.3,4.89-12.54,3.27-4.86-.24-8.13-7.55-3.8-10.64A11.9,11.9,0,0,1,485.55,248.19Zm-79.22,1.4c4.43-2.41,9.14,4.84,5.37,8-2.5,3.67-8.91,5.17-11.74,1.09-2.35-4,1.45-10.69,6.37-9.13ZM385.87,253c5,.69,8.31,5.26,10.17,9.61.45,5.3-7.37,8.21-10.78,4.35-3.84-2.41-7.2-7.36-5.18-12a5.42,5.42,0,0,1,5.8-2Zm122.4,19.16c5.46-1.44,9.42,7.29,4.74,10.44-4.29,3.89-12.62-1.26-10.38-6.82a7.18,7.18,0,0,1,5.65-3.62Zm-69.49,10c4.58.58,3.1,8.52-1.14,8.25C433.11,289.55,434.15,281.7,438.79,282.15Zm-23.22,4.21c3.73-2.64,8.55,3.81,5.44,6.81C417.29,295.79,412.47,289.45,415.57,286.36Zm36.92.78c4.33,2.63,6.9,7.53,7.43,12.48-2.07,4.62-10.08,3.51-11-1.41a9.17,9.17,0,0,1,3.55-11.07Zm12.88,7.65C471,293.39,469,305,464.3,301c-1.55-1.84-.72-4.86,1.08-6.21Zm-80.92,8.12c3.69-1.08,9.08.06,10.1,4.29.43,4-4,6.05-7.16,7-5.14,1.59-10.17,4.19-15.71,3.84-4.15-2.37-5.64-7.22-7.11-11.45,4-3.75,9.89-2.65,14.85-3.59,1.67-.09,3.35-.13,5-.14ZM510,321.17c4.71-2.31,9.78,5.17,5.83,8.66-4.93,5.68-14.43,6.73-20.33,2-.71-5,4.31-8.67,8.77-9.39,1.88-.53,3.74-1.32,5.73-1.23Zm26.48,5.74c5.35-.92,9.57,6.71,5.75,10.67C538.58,343,530,344.46,525,340c-1.92-4.52,2-9.23,6.13-10.68,1.78-.76,3.47-1.73,5.3-2.39ZM403.33,335c5-.49,9.5,4.43,8.85,9.32,3.59,3.53-2.77,10.11-6.34,6.45-3.15-3.82-3.13-9-4.35-13.56-.05-1,.7-2.33,1.85-2.2Zm38.05,2.85c5.13-2.22,11.76,3.92,9,9.11-2,4.23-9.76,2.81-9.51-2.09,0-2.34-.2-4.74.54-7Zm-18.51,3.32c5.14-1.18,9.85,5.48,7,9.93C424.74,351.58,422.08,345.5,422.87,341.19Z" style="fill:#00a651"/></svg>