<svg xmlns="http://www.w3.org/2000/svg" viewBox="0 0 900 600"><title>Lesotho</title><path d="M0,0H900V600H0Z" style="fill:#009543"/><path d="M0,0H900V420H0Z" style="fill:#fff"/><path d="M0,0H900V180H0Z" style="fill:#00209f"/><path d="M450.45,190.12l-1,0a9.32,9.32,0,0,0-5.25,2.16,16.82,16.82,0,0,0-2.24,2l-.21.24a35.06,35.06,0,0,0-18.61,9.26c-6.79,6.59-11.11,16.3-12.47,28.66-1.4,12.68,2.08,26.81,5.71,38.05A179.37,179.37,0,0,0,424,290.16l.71,1.49L379,353.26l-9.2-3.18-16.57,35.34.75.47s39.35,24.64,96.39,24c62.54-.74,96.7-25.13,96.7-25.13l.69-.49-17.13-34.91-8.15,3.55L475,290.07l.37.14a172.81,172.81,0,0,0,7.89-20c3.73-11.46,7.23-25.87,5.39-38.76-1.73-12.19-5.56-21.75-12.37-28.25-5-4.75-11.37-7.56-18.82-8.68v-.2l-.28-.29a16.87,16.87,0,0,0-2.33-1.94,10.36,10.36,0,0,0-4.36-1.74Zm7,14.48a22.69,22.69,0,0,1,11.94,5.82c4.6,4.39,7.83,11.55,9.38,22.42,1.41,10-1.5,23.49-5,34.27a149,149,0,0,1-5.37,14.22l-7.19-9.51-.08-22.56H473l-15.6-14.65Zm-15.59.15.22,30.32-14.11,14.78h11.68l-.08,21.87-7.88,10.62a123.88,123.88,0,0,1-5.71-14.86c-3.42-10.59-6.38-23.94-5.29-33.88,1.17-10.66,4.7-17.92,9.5-22.58a24.24,24.24,0,0,1,11.68-6.27Zm81.28,156.94,2.54,3.69L518.51,376l-7.38-9.45Zm-147.54,3.46,3,9.22-8.76,1.84S374.89,366.06,375.58,365.14Zm9.22.22,12.91,3.92,3,6.46L389.41,379Zm118,4.15,3.69,3.92L495.69,382l-6.69-8.3ZM528,370.9l4.38,8.76-8.76,3-.69-4.15Zm-119.42,1.38L421.45,375l3.69,5.53L413.84,385Zm70.09,2.32,3.46,5.07-12.91,6.22-5.53-9.45ZM432.74,376l21,.92,1.84,4.38-16.37,6ZM508.82,378l6.69,9-14.29,3.69-2.77-4.84Zm-128.18.24,1.84,7.38-11.06-4.38Zm21.9,2.08,6,12.68-15-3.69-1.61-5.53Zm82.29,3.22,7.84,9.22-17.29,2.77L471.93,390Zm-26.5,1.85,7.61,11.3-20.29.69-3.46-6Zm-30.43,0L435.29,397l-17.52-2.54-1.84-4.84Z"/></svg>