<svg xmlns="http://www.w3.org/2000/svg" viewBox="0 0 900 600"><title>Macau</title><path d="M0,0H900V600H0Z" style="fill:#0f7562"/><path d="M449.35,113.79c3.38,6.51,5.23,14.56,7.65,22h23.84c-6.14,4.8-12.71,9.18-18.89,13.94,1.75,7.7,4.65,14.24,6.75,21.59-1.28.5-3.07-1.19-4.5-2.25-4.13-3.05-9.63-7.19-13.94-10.35-7,3.5-13.38,10-19.34,13,1.9-7.54,4.82-14.07,6.75-21.59-5.75-5.2-12.32-9.58-18.89-13.94,6.9-1,15.74-.15,23.39-.45A195.74,195.74,0,0,0,449.35,113.79Z" style="fill:#ffde23;fill-rule:evenodd"/><path d="M347.25,177.66c4.61-2.74,8.74-6,13-9-2-4.62-2.79-10.4-4.95-14.84,4.14,1.41,8.59,6.4,13,9a152.89,152.89,0,0,0,13-9c-.35,4.3-3.36,9.83-4.5,14.84,3.47,4,8.27,6.73,12.59,9.9-4.53,1.08-11.05.26-15.74,0a79.65,79.65,0,0,0-5.4,15.29c-2.36-4.38-3.6-9.89-4.95-15.29H351.3C351,177.26,347.59,179,347.25,177.66Z" style="fill:#ffde23;fill-rule:evenodd"/><path d="M548.31,178.56H536.61c-1.92,4.82-3.15,10.34-4.95,15.29-2-4.86-3.61-10.19-5.4-15.29a155.07,155.07,0,0,1-16.19.45c3.9-3.6,8.7-6.29,12.59-9.89-1.26-5.49-3.34-10.15-4.95-15.29,4.55,2.79,8.72,6,13,9,5.07-2.58,8.63-6.66,13.49-9.45-2,4.62-2.79,10.4-4.95,14.84,3.78,3.71,8.52,6.48,13,9.44C552,179,548.65,177.26,548.31,178.56Z" style="fill:#ffde23;fill-rule:evenodd"/><path d="M323.41,206c2.21,4.23,2.23,10.66,3.6,15.74,5.64.35,10.68,1.31,16.19,1.8-4.54,2.66-9,5.36-13.94,7.65.3,5.7,1.77,10.22,2.7,15.29-1.31.29-3.93-2.26-5.85-4-2.11-2-4-4.43-5.85-5.85-5,2.3-9.34,5.35-14.39,7.65,2.25-4.64,4.11-9.68,6.75-13.94-3.17-4.48-7.51-7.78-11.69-11.24,4.72-.82,10.73,1,15.74,1.35A101.9,101.9,0,0,0,323.41,206Z" style="fill:#ffde23;fill-rule:evenodd"/><path d="M582.49,220.39c5.41-.59,10.48-1.51,16.19-1.8-3.79,3.85-8.14,7.15-11.69,11.24,2.39,4.51,4.26,9.53,6.75,13.94-4.26-1-9.46-4.93-13.94-7.2-4.36,2.84-8.29,8.5-12.14,10.34.79-5.2,2.29-9.7,2.7-15.29A105.28,105.28,0,0,0,556.4,224c4.55-1.45,10.47-1.52,15.74-2.25,2-4.46,2-10.88,3.6-15.74A158,158,0,0,1,582.49,220.39Z" style="fill:#ffde23;fill-rule:evenodd"/><path d="M430.91,171.82c6-3,12.34-9.54,19.34-13,4.32,3.16,9.81,7.29,13.94,10.35,1.43,1.05,3.22,2.75,4.5,2.25-2.1-7.35-5-13.89-6.75-21.59,6.18-4.76,12.75-9.14,18.89-13.94H457c-2.41-7.48-4.26-15.53-7.65-22a195.75,195.75,0,0,1-7.2,22c-7.65.3-16.49-.6-23.39.45,6.58,4.37,13.14,8.75,18.89,13.94C435.74,157.75,432.81,164.27,430.91,171.82Z" style="fill:#ffde23"/><path d="M312.62,230.29c-2.64,4.26-4.49,9.3-6.75,13.94,5-2.3,9.34-5.35,14.39-7.65,1.86,1.42,3.74,3.88,5.85,5.85,1.91,1.78,4.53,4.34,5.85,4-.92-5.07-2.4-9.59-2.7-15.29,4.91-2.29,9.41-5,13.94-7.65-5.51-.49-10.55-1.45-16.19-1.8-1.37-5.08-1.38-11.51-3.6-15.74a101.89,101.89,0,0,1-6.75,14.39c-5-.39-11-2.17-15.74-1.35C305.11,222.5,309.45,225.81,312.62,230.29Z" style="fill:#ffde23"/><path d="M351.3,178.56h12.14c1.35,5.4,2.58,10.91,4.95,15.29a79.65,79.65,0,0,1,5.4-15.29c4.69.26,11.21,1.08,15.74,0-4.33-3.17-9.12-5.87-12.59-9.9,1.13-5,4.15-10.54,4.5-14.84a152.88,152.88,0,0,1-13,9c-4.46-2.59-8.9-7.59-13-9,2.15,4.45,3,10.22,4.95,14.84-4.3,3-8.44,6.26-13,9C345.68,179.12,350.08,178.4,351.3,178.56Z" style="fill:#ffde23"/><path d="M526.27,178.56c1.79,5.11,3.36,10.44,5.4,15.29,1.8-5,3-10.47,4.95-15.29h11.69c1.22-.16,5.62.56,4-.9-4.53-3-9.26-5.73-13-9.45,2.15-4.45,3-10.22,4.95-14.84-4.86,2.78-8.42,6.87-13.49,9.45-4.33-3-8.49-6.2-13-9,1.6,5.14,3.69,9.81,4.95,15.29-3.89,3.6-8.7,6.29-12.59,9.89A155.07,155.07,0,0,0,526.27,178.56Z" style="fill:#ffde23"/><path d="M567.65,246.93c3.86-1.84,7.78-7.51,12.14-10.34,4.48,2.27,9.68,6.21,13.94,7.2-2.48-4.41-4.36-9.44-6.75-13.94,3.55-4.1,7.9-7.39,11.69-11.24-5.71.29-10.78,1.21-16.19,1.8A158,158,0,0,0,575.74,206c-1.58,4.87-1.61,11.29-3.6,15.74-5.27.72-11.19.8-15.74,2.25a105.28,105.28,0,0,1,13.94,7.65C569.94,237.23,568.44,241.73,567.65,246.93Z" style="fill:#ffde23"/><path d="M581.59,408.85c-88,.59-178.19-1.19-264.47.9.45,0,.53.36.9.45,1.15,1.31,2.7,3.55,4.5,4,3.56,1,10,0,15.74,0H578c.93-1.62,2.67-2.43,3.6-4C582.37,410.33,583.17,408.46,581.59,408.85Z" style="fill:#fff"/><path d="M579.79,388.61H514.12c-29.25-1.48-47.82-13.65-64.77-27.44-15.85,14.58-35.19,25.68-63.87,27.44H300.93c.1.35,0,.89.45.9a64.59,64.59,0,0,0,6.3,8.55c26.3,1.79,57.57.9,84.11.45,25.48-1.51,42.41-11.56,58-22.94,15.56,11.43,32.57,21.41,58,22.94,27,.46,58.28,1.33,84.11-.45a92.36,92.36,0,0,0,6.3-8.55c.12.05.34-.07.45,0C595.41,387.49,585.23,388.61,579.79,388.61Z" style="fill:#fff"/><path d="M318.92,339.59a25.46,25.46,0,0,0,4.5,4.5c.45,0,.53.36.9.45,15.53,14,34.34,24.74,62.07,26.54,2.4,1,6.74.15,9.89.45-1.85,1.15-5.12.88-8.1.9h-9.44c-30.43-1.06-49-14-66.57-27.89a43.5,43.5,0,0,1-10.79,2.25c-1.3.25.69.7.45,1.35a49.84,49.84,0,0,0,6.3,6.3C324,368.68,343.54,379.28,372,381a20.16,20.16,0,0,0,9.45,0c28.47-1.67,47.91-12.36,63.87-26.54,1.77-1.08,2.73-3,4.5-4,1.77,1.08,2.73,3,4.5,4,16,14.18,35.38,24.89,63.87,26.54a20.16,20.16,0,0,0,9.45,0c28.19-1.65,47.52-12.15,63.42-26.09a57.08,57.08,0,0,0,6.75-6.75c2.19-2.36-8.43-1.93-10.79-3.6-17.08,14.25-36,26.71-66.12,27.89h-9.45c-3,0-6.24.25-8.1-.9,3.15-.3,7.49.59,9.89-.45,27.7-1.84,46.56-12.51,62.07-26.54.45,0,.53-.36.9-.45a25.42,25.42,0,0,0,4.5-4.5c0-.45.36-.54.45-.9a93.33,93.33,0,0,0,20.24-32.83c-16.86-7.07-36.61-10.58-59.37-8.55-23.8,2.12-44.12,13.65-58.92,23.84,19.63-18.75,44.21-32.55,81.86-33.28,1.4-1.57,2.52-4.28,4-6.3s4.45-3.59,3.6-4.95h-1.8c-1.07-.75-5.23-.75-6.3,0-34.62,1.36-57.47,14.5-76.91,31-1.33.62-1.82,2.08-3.15,2.7,8.65-13.84,15.83-29.15,17.09-50.38a43.49,43.49,0,0,0,0-13.94c-1.32-17.12-5.9-31-13-42.28-1.56,7-6.13,11-9,16.64,5.38,11,8.86,23.83,9.45,39.58v5.4c-.8,23-8.21,41.87-18,54.42,8.75-16,16.26-35.57,13.94-60.27-2.79-29.65-18-52.46-34.63-67.47A97.86,97.86,0,0,0,414.72,260c-1.91,22.95,4.49,40.62,11.69,56.67-9.08-13.26-14.87-29.81-15.74-51.28v-6.75c1-.62.17-3.13.45-4.5a100.29,100.29,0,0,1,9-34.18c-3.51-5-7.07-10-9.44-16.19-6.39,11.9-11.48,25.1-12.59,42.28a43.54,43.54,0,0,0,0,13.94c1.2,20.53,8,35.47,16.19,49-.56,1.1-1.31-1.35-2.25-1.35-.45,0-.54-.36-.9-.45-18.88-16.65-42-29.08-76-30.59-1.07-.75-5.23-.75-6.3,0h-2.25c2.06,2.74,5.61,7.88,8.55,11.24,37.42.66,61.31,14.85,81.41,32.83-.1.54-.5.28-.9,0-14.48-10.21-34.84-21.4-58.47-23.39-22.59-1.9-42.17,1.45-58.92,8.55a93.21,93.21,0,0,0,20.24,32.83C318.47,339.14,318.83,339.22,318.92,339.59Z" style="fill:#00785e"/><path d="M338.71,424.15c-1.28,0-5.09-1.29-5.4,1.35.45,0,.54.36.9.45,2.73,2.07,5.42,4.18,8.1,6.3,70.62.75,144.38.75,215,0,2.68-2.12,5.37-4.23,8.1-6.3.45,0,.53-.36.9-.45,0-.57.58-.62.45-1.35C491.79,425.62,413.32,422.18,338.71,424.15Z" style="fill:#fff"/><path d="M520.87,439.89H364.35c-2.91,0-11.37-.61-9.45.9a146.12,146.12,0,0,0,16.64,9c51.13.75,105.4.75,156.53,0a137.12,137.12,0,0,0,16.64-9c1.22-.88,1.06-.65,0-.9C538.48,438.41,528.88,439.89,520.87,439.89Z" style="fill:#fff"/><path d="M515,454.73c-9.87-1.46-21.73,0-32.83,0-33.07,0-67.85-.74-98.5.9h.9c16.19,6,33.56,10.81,54.87,11.69,1.81,1,5.54.16,8.1.45h4.5c2.56-.29,6.29.59,8.1-.45,21.22-1,38.72-5.66,54.87-11.69h.9C515.9,454.87,515.75,454.84,515,454.73Z" style="fill:#fff"/><path d="M410.67,265.37c.87,21.47,6.66,38,15.74,51.28-7.21-16.05-13.6-33.73-11.69-56.67a97.86,97.86,0,0,1,35.53-67.92c16.66,15,31.85,37.82,34.63,67.47,2.32,24.7-5.19,44.26-13.94,60.27,9.78-12.56,17.19-31.38,18-54.42.75-.77.75-4.62,0-5.4-.59-15.75-4.07-28.62-9.45-39.58,2.86-5.68,7.43-9.66,9-16.64,7.14,11.3,11.72,25.16,13,42.28V260c-1.26,21.23-8.45,36.53-17.09,50.38-.36.05-1.36,1.49-.45,1.35.93-1.62,2.67-2.43,3.6-4,19.45-16.54,42.29-29.68,76.91-31h8.1c.85,1.36-2.17,3.06-3.6,4.95s-2.65,4.73-4,6.3c-37.65.73-62.24,14.53-81.86,33.28C497.89,311,518.21,299.43,542,297.31c22.77-2,42.51,1.47,59.37,8.55a93.32,93.32,0,0,1-20.24,32.83,43,43,0,0,0-5.85,5.85c-15.51,14-34.37,24.7-62.07,26.54H502.43c0,.44.55.35.9.45,1.85,1.15,5.12.88,8.1.9a20.16,20.16,0,0,0,9.45,0c30.16-1.18,49-13.63,66.12-27.89,2.36,1.67,13,1.24,10.79,3.6a57.34,57.34,0,0,0-6.75,6.75c-15.9,13.94-35.23,24.44-63.42,26.09h-9.45c-28.49-1.64-47.91-12.36-63.87-26.54-1.53-1.62-2.67-3.62-4.95-4.5-1.08,1.77-3,2.73-4,4.5-16,14.18-35.4,24.87-63.87,26.54H372c-28.45-1.69-48-12.29-63.87-26.54a49.86,49.86,0,0,0-6.3-6.3c.24-.65-1.75-1.1-.45-1.35a43.5,43.5,0,0,0,10.79-2.25c17.6,13.89,36.14,26.83,66.57,27.89a20.16,20.16,0,0,0,9.44,0c3,0,6.24.25,8.1-.9h.9c-2.7-1-7.34-.15-10.79-.45-27.73-1.8-46.54-12.53-62.07-26.54a43,43,0,0,0-5.85-5.85,93.21,93.21,0,0,1-20.24-32.83c16.75-7.1,36.33-10.45,58.92-8.55,23.63,2,44,13.17,58.47,23.39a23.54,23.54,0,0,0,3.15,2.7c-.16-1.49-1.35-2-2.25-2.7-20.1-18-44-32.17-81.41-32.83-2.94-3.36-6.49-8.5-8.55-11.24h8.55c34,1.5,57.14,13.93,76,30.59,1.83,1.92,3.27,4.23,5.85,5.4.33-2-.89.36-.9-.9a8.6,8.6,0,0,0-1.8-2.7c-8.19-13.55-15-28.49-16.19-49V246c1.11-17.18,6.2-30.38,12.59-42.28,2.37,6.17,5.93,11.16,9.44,16.19a100.29,100.29,0,0,0-9,34.18c-1,.62-.17,3.13-.45,4.5V260C409.93,260.75,409.93,264.6,410.67,265.37Zm15.74,51.28a6,6,0,0,0,2.25,3.6A6,6,0,0,0,426.42,316.65Z" style="fill:#fff;fill-rule:evenodd"/></svg>