<svg xmlns="http://www.w3.org/2000/svg" viewBox="0 0 1800 900"><title>Moldova</title><rect width="1800" height="900" style="fill:#cc092f"/><rect width="1200" height="900" style="fill:#ffd200"/><rect width="600" height="900" style="fill:#0046ae"/><path d="M847.69,183.24a13,13,0,0,0-7.68,2.1,6.29,6.29,0,0,1,4.51,6.09v7.42h-7.42A6.31,6.31,0,0,1,831,194.4a15.1,15.1,0,0,0,0,15.36,6.29,6.29,0,0,1,6.09-4.51h7.42v35.68a6.3,6.3,0,0,1-4.2,6c3.54.48,6.59,5.23,7.42,7.83.84-2.59,3.88-7.35,7.42-7.83a6.28,6.28,0,0,1-4.25-6V205.25h7.42a6.3,6.3,0,0,1,6.09,4.46,15.1,15.1,0,0,0,0-15.36,6.29,6.29,0,0,1-6.09,4.5h-7.42v-7.42a6.3,6.3,0,0,1,4.46-6.09,13,13,0,0,0-7.68-2.1Z"/><path d="M847.69,184.78a14.26,14.26,0,0,0-4.4.72,7.85,7.85,0,0,1,2.77,5.94v7.42a1.51,1.51,0,0,1-.05.31v1.18h-1.18a1.58,1.58,0,0,1-.31.05h-7.42a7.85,7.85,0,0,1-5.89-2.71,13.72,13.72,0,0,0-.77,4.4,14.26,14.26,0,0,0,.72,4.4,7.85,7.85,0,0,1,5.94-2.76h9c0,.15-.05.3-.05.46V205a1.56,1.56,0,0,1,.05.31v35.68a7.53,7.53,0,0,1-2.77,5.58,12,12,0,0,1,2.92,2.56,14.84,14.84,0,0,1,1.54,2.66,15,15,0,0,1,1.54-2.66,12,12,0,0,1,2.87-2.51,7.57,7.57,0,0,1-2.77-5.63V203.77h1.23a1.56,1.56,0,0,1,.31-.05h7.42a7.86,7.86,0,0,1,5.89,2.71A13.73,13.73,0,0,0,865,202a14.26,14.26,0,0,0-.72-4.4,7.85,7.85,0,0,1-5.94,2.76h-7.42a1.51,1.51,0,0,1-.31-.05h-1.18v-1.18a1.55,1.55,0,0,1-.05-.31v-7.42a7.86,7.86,0,0,1,2.71-5.89,13.77,13.77,0,0,0-4.4-.77" style="fill:#f5d402"/><path d="M940.61,314a39.43,39.43,0,0,1-10.9-11.11c-6.37-10.22-9.06-22.77-9.06-35.53,0-5.39,6-11.46,6-15.82a76,76,0,0,0-.61-10.54c2.14.29,5.89,4.1,5.89,4.1s-.13-10.94-3.59-12.85c0,0,1.4-1.44,6.45-1.59-1.42-3.6-8.45-8-8.45-8a4.57,4.57,0,0,1,1.84-1.64,22.89,22.89,0,0,1,6.14-2,66,66,0,0,1-6.91-1.9,163,163,0,0,1-19.15-7.78,56.44,56.44,0,0,0-25.6-6c-3.58,0-8.84.1-11.93,2.15-2.83,1.88-2.59,4.31-3.58,5.17-2.33,2-6.32,1.95-8.24,1.95-12.44,0-12.9,13.31-12.9,13.31s3.18-4.81,8.8-4.81c9.35,0,16.43,5.09,16.43,7,0,.78-1,.92-1,.92-6.11,0-15.33-3.52-20.22-3.69v2.41c10.93,3.8,22,9.19,22,32.92,0,14.94-1.79,30.19-9.27,42.18a39.75,39.75,0,0,1-11,11.11l44.39,8Z"/><path d="M896.22,304l-44.38,10c-2-.61-11.51-3.56-18.17-7.27-11.73-6.53-17.81-13-31.74-13.67v-10.6c0-5.66,2-10.76,2-16.18-5.87-1.58-22.18-21.51-37.22-30.36-22.13,14.33-39.27,37.86-39.27,48.69,0,0,.66,232.51,0,313.51,0,4.67-2.82,11.26-2.82,11.26,8.08-3.42,22.89-23.68,26-31.38v3.69c12.2-5.56,21.14-20.18,25.14-27.75.07,1.09.26,3.84.26,3.84,10.9-9.55,24.78-66,24.78-66L824,514.46s-8.36,17-11.62,20a39,39,0,0,0,4.66.26c-1.52,2.19-13.15,18.92-16.79,25.24-3.41,5.91-5.82,3.28-11.06,3.28-4.35,0-14.2,6.92-15.82,9.73a20.49,20.49,0,0,0-3,9.47c0,3.24,3.43,7.68,3.43,7.68a4,4,0,0,1,1-2.1s9,11.23,10.34,12.7c1,1.14,5.65,1.89,7.27.41,4.07-3.7,8-6.28,11.62-11.62,1.86-2.75,2-5.9,4.15-8.86,7.16-9.88,21.41-28.8,24.67-33.12.22,1.2.41,2.21.61,3.43,3.69-7.46,21.45-21.71,21.45-21.71l18.58,8.55s-34.69,79.73-65.48,92c0,0,13.4,5.69,29.84,14.23,2.4,1.25,4.87,2.58,7.37,3.94,2.07-2.49,4.25-5.27,6.4-8.14,9.84-13.16,19.46-28.41,19.46-28.41.67,4-4.52,16.19-13.31,31.28-1.73,3-3.53,6.06-5.53,9.21,2.23,1.27,4.44,2.56,6.66,3.89,16.29,9.8,31.6,21.08,37.27,31.43l4-10-4-10v-350l2-5Z"/><path d="M896.2,667.22c-5.75-6.24-17.77-13.85-31.28-20.89,16.33-29.32,24.43-75.65,20.63-84.88,0,0-6.71,24-14.9,37.73-7.59,12.68-16.92,27-26,37.53A205.68,205.68,0,0,0,823.92,629c27.06-20.84,54.73-89.74,54.73-89.74L850,526s-10.7,12.48-14.18,14.8c0,0-1.48-6.21-2.35-8.4,0,0-4.1,3.1-6.35,3.18,0,0-.67-4.21-1.18-7-2.83,1.88-7.53,1.48-7.53,1.48,4.13-2,9-13.92,9-13.92l-27.32-36.34s-9.6,46.12-20.53,55.6V336.87l8.65,8,13.1-12.23v-9.32l-11.62,10.85V306.1c1.75-2.65,2.91-4.63,3.79-6.19,1.88,3.28,8,13.33,15.1,19.51,1.17-4.78,8.91-9.32,8.91-9.32s2.77,7.51,7,9.37c1.49-2.63,10.39-8.45,10.39-8.45s-7.62,1.16-10.7,4c-2.65-.59-3.33-11.06-3.33-11.06s-11.21,5.46-13.16,9.37c-2.14-.58-5.46-9-6.76-12.44a74.75,74.75,0,0,1,8.34-.46c3.2,0,7.28,1.51,11.57,3.53,4.71,2.22,9.63,5,14,7,5.63,2.55,14.15,3.07,16.64,3.17a73.8,73.8,0,0,1-9.37,5.53s13.41-.12,22.83-4.81a90.23,90.23,0,0,0,9.83-6.86,36.32,36.32,0,0,1-6.45,11.47c13.84-1.17,20.73-9.07,22.68-11.72a37.68,37.68,0,0,0,5.12,9.47h5v340Z" style="fill:#b07f55"/><path d="M794.25,267.3l.26,6.35v18.69c-5-1.73-11.33-10-14.38-14.33v-2.56a7.07,7.07,0,0,1,2.46-5.12l-3-1.07a8.8,8.8,0,0,0-2.41,5.78v1.48l-9,9.68-8.86-13.41V269.5c0-2.21,1.7-4.67,3.12-6.35l-3-1.08c-1.5,1.94-3.07,4.56-3.07,7v2.66l-10.19,10.5L741,271.14c6.21-8.6,16.27-18.22,25.75-25.12,0,0,20.56,18.88,27.49,21.28Z" style="fill:#b07f55"/><path d="M742.13,285.42v15.41L735,307.49V284.6a17.57,17.57,0,0,1,2.46-7.73Z" style="fill:#b07f55"/><path d="M764.45,291.36v9.52l-8.24,7.73V278.82Z" style="fill:#b07f55"/><path d="M753.29,308.56,745,300.88V289.72l8.24-8.65Z" style="fill:#b07f55"/><path d="M790.91,297c-1.91,2.7-6.93,9.32-12.34,12.24V283.07C779.82,285.13,785.51,294.34,790.91,297Z" style="fill:#b07f55"/><path d="M775.66,284.4v24.16l-8.24-7.68v-8.55Z" style="fill:#b07f55"/><path d="M742.13,310.15v24.11L735,327.55v-10.7Z" style="fill:#b07f55"/><path d="M753.28,317.88v8.65L745,334.21v-24Z" style="fill:#b07f55"/><path d="M764.44,310.2v24l-8.24-7.73v-8.55Z" style="fill:#b07f55"/><path d="M775.65,317.93v8.55l-8.24,7.73v-24Z" style="fill:#b07f55"/><path d="M786.81,334.26l-8.24-7.73v-8c2.84-1.73,5.7-4.92,8.24-8.29Z" style="fill:#b07f55"/><path d="M765.92,344.91l8.7-8.09V535.45s.61,9.86,1,16.28l-18.43,18.63V336.77Z" style="fill:#b07f55"/><path d="M752.25,562.94c0,6.39-11.66,21.27-17.3,24.67V336.88l8.6,8,8.7-8.09Z" style="fill:#b07f55"/><path d="M824.53,541.39l6.35-4.35s.42,2.1,1,5c-2.72,3.72-18.33,25-26.06,35.42-1.92,2.58-3.53,9.16-3.53,9.16s-2.81-1.33-2.81-3.74.31-5.17.31-5.17a8,8,0,0,1-5.73,2.41c0-2.9,5.61-6.05,5.84-10.19-4.28,3.17-8,1.54-13,3.07-5.39,1.66-6.9,3.93-8.55,3.84-1-.05-1.86-1.73-1.48-2.77.64-1.79,7.31-6.73,12-7.63,1.12-.21,9.9,1.91,11.67-.82l20.27-31.28a6.66,6.66,0,0,0,2-.72s-.07,5.75,1.74,7.78Z" style="fill:#d10429"/><path d="M783.72,576.45a.94.94,0,0,1-.05,1.33l-2.87,2.51a1,1,0,0,1-1.33-.15.94.94,0,0,1,.05-1.33l2.87-2.51a.85.85,0,0,1,.67-.2,1.06,1.06,0,0,1,.67.36Z" style="fill:#d10429"/><path d="M788.07,579.47a2.23,2.23,0,0,1-.1,3.17l-7,6.09a2.38,2.38,0,0,1-3.12-3.58l7-6a2.21,2.21,0,0,1,1.23-.51A2.42,2.42,0,0,1,788.07,579.47Z" style="fill:#d10429"/><path d="M792.06,584.18a2.23,2.23,0,0,1-.1,3.17l-7,6.09a2.25,2.25,0,0,1-3.17-.36,2.29,2.29,0,0,1,.1-3.22l7-6a2.07,2.07,0,0,1,1.18-.51,2.51,2.51,0,0,1,2,.87Z" style="fill:#d10429"/><path d="M794.46,587.92a2.37,2.37,0,0,1,2,.82,2.29,2.29,0,0,1-.1,3.22l-7,6a2.37,2.37,0,0,1-3.12-3.53l7-6.09a2,2,0,0,1,1.18-.46Z" style="fill:#d10429"/><path d="M896.18,304l44.38,10c2-.61,11.51-3.56,18.17-7.27,11.73-6.53,17.81-13,31.74-13.67v-10.6c0-5.66-2-10.76-2-16.18,5.87-1.58,22.18-21.51,37.22-30.36,22.13,14.33,39.27,37.86,39.27,48.69,0,0-.66,232.51,0,313.51,0,4.67,2.82,11.26,2.82,11.26-8.08-3.42-22.89-23.68-26-31.38v3.69c-12.2-5.56-21.14-20.18-25.14-27.75-.07,1.09-.26,3.84-.26,3.84-10.9-9.55-24.78-66-24.78-66l-23.12,22.73s8.36,17,11.62,20a39,39,0,0,1-4.66.26c1.52,2.19,13.15,18.92,16.79,25.24,3.41,5.91,5.82,3.28,11.06,3.28,4.35,0,14.2,6.92,15.82,9.73a20.49,20.49,0,0,1,3,9.47c0,3.24-3.43,7.68-3.43,7.68a4,4,0,0,0-1-2.1s-9,11.23-10.34,12.7c-1,1.14-5.65,1.89-7.27.41-4.07-3.7-8-6.28-11.62-11.62-1.86-2.75-2-5.9-4.15-8.86-7.16-9.88-21.41-28.8-24.67-33.12-.22,1.2-.41,2.21-.61,3.43-3.69-7.46-21.45-21.71-21.45-21.71l-18.58,8.55s34.69,79.73,65.48,92c0,0-13.4,5.69-29.84,14.23-2.4,1.25-4.87,2.58-7.37,3.94-2.07-2.49-4.25-5.27-6.4-8.14-9.84-13.16-19.46-28.41-19.46-28.41-.67,4,4.52,16.19,13.31,31.28,1.73,3,3.53,6.06,5.53,9.21-2.23,1.27-4.44,2.56-6.66,3.89-16.29,9.8-31.6,21.08-37.27,31.43l-4-10,4-10v-350l-2-5Z"/><path d="M896.2,667.22c5.75-6.24,17.77-13.85,31.28-20.89C911.14,617,903,570.68,906.85,561.46c0,0,6.71,24,14.9,37.73,7.59,12.68,16.92,27,26,37.53A205.68,205.68,0,0,1,968.48,629c-27.06-20.84-54.73-89.74-54.73-89.74L942.37,526s10.7,12.48,14.18,14.8c0,0,1.48-6.21,2.35-8.4,0,0,4.1,3.1,6.35,3.18,0,0,.67-4.21,1.18-7,2.83,1.88,7.53,1.48,7.53,1.48-4.13-2-9-13.92-9-13.92l27.32-36.34s9.6,46.12,20.53,55.6V336.87l-8.65,8L991,332.67v-9.32l11.62,10.85V306.1c-1.75-2.65-2.91-4.63-3.79-6.19-1.88,3.28-8,13.33-15.1,19.51-1.17-4.78-8.91-9.32-8.91-9.32s-2.77,7.51-7,9.37c-1.49-2.63-10.39-8.45-10.39-8.45s7.62,1.16,10.7,4c2.65-.59,3.33-11.06,3.33-11.06s11.21,5.46,13.16,9.37c2.14-.58,5.46-9,6.76-12.44a74.75,74.75,0,0,0-8.34-.46c-3.2,0-7.28,1.51-11.57,3.53-4.71,2.22-9.63,5-14,7-5.63,2.55-14.15,3.07-16.64,3.17a73.8,73.8,0,0,0,9.37,5.53s-13.41-.12-22.83-4.81a90.23,90.23,0,0,1-9.83-6.86A36.32,36.32,0,0,0,924,319.52c-13.84-1.17-20.73-9.07-22.68-11.72a37.68,37.68,0,0,1-5.12,9.47h-5v340Z" style="fill:#b07f55"/><path d="M998.15,267.3l-.26,6.35v18.69c5-1.73,11.33-10,14.38-14.33v-2.56a7.07,7.07,0,0,0-2.46-5.12l3-1.07a8.8,8.8,0,0,1,2.41,5.78v1.48l9,9.68,8.86-13.41V269.5c0-2.21-1.7-4.67-3.12-6.35l3-1.08c1.5,1.94,3.07,4.56,3.07,7v2.66l10.19,10.5,5.17-11.11c-6.21-8.6-16.27-18.22-25.75-25.12,0,0-20.56,18.88-27.49,21.28Z" style="fill:#b07f55"/><path d="M1050.27,285.42v15.41l7.17,6.65V284.6a17.57,17.57,0,0,0-2.46-7.73Z" style="fill:#b07f55"/><path d="M1028,291.36v9.52l8.24,7.73V278.82Z" style="fill:#b07f55"/><path d="M1039.11,308.56l8.24-7.68V289.72l-8.24-8.65Z" style="fill:#b07f55"/><path d="M1001.49,297c1.91,2.7,6.93,9.32,12.34,12.24V283.07C1012.58,285.13,1006.89,294.34,1001.49,297Z" style="fill:#b07f55"/><path d="M1016.74,284.4v24.16l8.24-7.68v-8.55Z" style="fill:#b07f55"/><path d="M1050.27,310.15v24.11l7.17-6.71v-10.7Z" style="fill:#b07f55"/><path d="M1039.12,317.88v8.65l8.24,7.68v-24Z" style="fill:#b07f55"/><path d="M1028,310.2v24l8.24-7.73v-8.55Z" style="fill:#b07f55"/><path d="M1016.75,317.93v8.55l8.24,7.73v-24Z" style="fill:#b07f55"/><path d="M1005.59,334.26l8.24-7.73v-8c-2.84-1.73-5.7-4.92-8.24-8.29Z" style="fill:#b07f55"/><path d="M1026.48,344.91l-8.7-8.09V535.45s-.61,9.86-1,16.28l18.43,18.63V336.77Z" style="fill:#b07f55"/><path d="M1040.15,562.94c0,6.39,11.66,21.27,17.3,24.67V336.88l-8.6,8-8.7-8.09Z" style="fill:#b07f55"/><path d="M967.87,541.39,961.52,537s-.42,2.1-1,5c2.72,3.72,18.33,25,26.06,35.42,1.92,2.58,3.53,9.16,3.53,9.16s2.81-1.33,2.81-3.74-.31-5.17-.31-5.17a8,8,0,0,0,5.73,2.41c0-2.9-5.61-6.05-5.84-10.19,4.28,3.17,8,1.54,13,3.07,5.39,1.66,6.9,3.93,8.55,3.84,1-.05,1.86-1.73,1.48-2.77-.64-1.79-7.31-6.73-12-7.63-1.12-.21-9.9,1.91-11.67-.82L971.6,534.33a6.66,6.66,0,0,1-2-.72s.07,5.75-1.74,7.78Z" style="fill:#d10429"/><path d="M1008.68,576.45a.94.94,0,0,0,.05,1.33l2.87,2.51a1,1,0,0,0,1.33-.15.94.94,0,0,0-.05-1.33L1010,576.3a.85.85,0,0,0-.67-.2,1.06,1.06,0,0,0-.67.36Z" style="fill:#d10429"/><path d="M1004.33,579.47a2.23,2.23,0,0,0,.1,3.17l7,6.09a2.38,2.38,0,0,0,3.12-3.58l-7-6a2.21,2.21,0,0,0-1.23-.51A2.42,2.42,0,0,0,1004.33,579.47Z" style="fill:#d10429"/><path d="M1000.34,584.18a2.23,2.23,0,0,0,.1,3.17l7,6.09a2.25,2.25,0,0,0,3.17-.36,2.29,2.29,0,0,0-.1-3.22l-7-6a2.07,2.07,0,0,0-1.18-.51,2.51,2.51,0,0,0-2,.87Z" style="fill:#d10429"/><path d="M997.94,587.92a2.37,2.37,0,0,0-2,.82A2.29,2.29,0,0,0,996,592l7,6a2.37,2.37,0,0,0,3.12-3.53l-7-6.09a2,2,0,0,0-1.18-.46Z" style="fill:#d10429"/><path d="M885.93,206.64c11.46,0,19.52,5.22,30.36,10,2.84,1.26,5.45,2.28,7.78,3.07a9.58,9.58,0,0,0-2.92,3.69s4.86.9,7.06,5c0,0-4.62.52-5.37,3.22,2.59.2,5.16,3.46,5.17,6.6l-6.55-2A82.41,82.41,0,0,1,923,251.53c0,4.09-5.89,8.89-5.89,15.82,0,21.73,5.47,30.09,9.37,36.81,1.52,2.63,2.76,5.65,5.32,7.93-11.22-6-19.56-13.44-19.56-20.37V265.46h-2.92v26.26c0,5,1.23,7.37,1.23,7.37,1.76,5.56,5.32,14.15,7.53,17.61-10.32-5.58-15.56-12.56-15.56-15.15V265.46h-2.92v36.6l.56,2.51c-1.25,1.88-2.88,4.11-4,4.86-1.11-.76-2.69-3-3.94-4.86l.56-2.51v-36.6h-2.92v36.09c0,2.59-5.24,9.58-15.56,15.15,2.21-3.46,5.76-12,7.52-17.61,0,0,1.23-2.34,1.23-7.37V265.46H880.2v26.26c0,6.93-8.31,14.4-19.51,20.37,2.54-2.28,3.76-5.32,5.27-7.93,4.26-7.35,9.52-16.68,9.52-43.26,0-10-1.47-16.76-4-21.5-.78-1.57-1.83-5.73,4.15-5.73,3.1,0,10.19,5.48,10.19,5.48a9.84,9.84,0,0,0-3.89-6.86,4.21,4.21,0,0,1-1.59-2.92,6.18,6.18,0,0,1,2.76-3.69c.83-.38-12.18-2.65-12.18-8.55,0-1.23.77-2,3.48-2,3.54,0,9.31,4.25,14.44,4.25,3.79,0,5.28-.92,9.16-.92,4.74,0,14.64,9,18,8.65-3.78-2.37-9.89-11.37-19.15-11.37-3.21,0-6.12.72-9.11.72-3.84,0-7.62-3.53-11.77-3.53-2.78,0-5.89.15-6.35-.56-.8-1.26-.08-2,.67-3,1.41-2,5.37-2.52,9.27-2.66,1.17,0,2.34-.06,3.43-.05s2.1.05,3,.05Z" style="fill:#b07f55"/><path d="M848.73,220.69a9.69,9.69,0,0,1,8.53-4.58c2.56,0,11-.18,11-.18,1.12,2.92,6.25,7.8,6.25,12.88,0,0-5.2-9.38-19.72-9.38a14.16,14.16,0,0,0-6.05,1.26Z" style="fill:#cc092f"/><path d="M872.34,230.6s-3.09,3.26-3.77,5c-3.06-1.16-8.4-6.66-8.4-6.66s4.53,2.64,12.16,1.66Z" style="fill:#d10429"/><path d="M867.44,222s-3.57-1.14-3.57-2.34c0-1.53,1.73-1.53,2.77-.34a5.49,5.49,0,0,1,.8,2.68Z"/><ellipse cx="884.08" cy="223.93" rx="7.37" ry="5.6"/><circle cx="884.07" cy="223.93" r="5.12" style="fill:#f5d402"/><circle cx="884.08" cy="223.93" r="2.35"/><polygon points="801.38 591.95 817.58 600.79 813.65 618.82 797.45 609.98 801.38 591.95"/><path d="M725.9,418.73l-5.84,2.66L786,565.81h7Zm77.76,170.32L798.9,594l3,6.55,5.78-2.66Z"/><path d="M746.39,532.6s5.55,11.47,9.78,13c-2.18-.59-9.27,2-9.27,2s12.5,11.16,23.1,11.9c9,.62,13.35-3.87,13.35-3.87l-1.8-9.52a35.67,35.67,0,0,0-14.3-9.71c-8.89-3.1-20.86-3.85-20.86-3.85Z"/><path d="M788.26,512s-7.67,6.57-9.77,14.17,1.37,16.25,1.37,16.25l6.44,12s8.93-4.75,12.73-11.86,2.41-16.7,2.41-16.7-7.08,2.63-8,3.8c1.49-7.88-5.21-17.68-5.21-17.68Z"/><path d="M763.61,509s-8.72,2.95-17.19,2.44c-8.07-.49-14.78-7.26-14.78-7.26s6.69-4.53,10-3.92c-3.63-1.33-8.9-10.42-8.9-10.42s7.48-2.26,14.12.24,12.42,9.77,12.42,9.77l4.34,9.16Z"/><path d="M766.61,466.38s4.36,9,3.33,12.17c1.35-2.09,6.47-5.35,6.47-5.35s3.1,14.62.14,23.66-12,12.47-12,12.47L754.63,490s-1.48-7.16,1.62-12.84,10.36-10.78,10.36-10.78Z"/><path d="M709.86,442.47s9.43-1,18.05,2.58c7.21,3,9.42,8.43,9.42,8.43l3.55,9.52s-10.26,3.85-18.37.91-14.07-12.68-14.07-12.68,5.67-2.15,7.82-1.34c-3.14-1.39-6.41-7.42-6.41-7.42h0Z"/><path d="M739.51,424.8s4.14,5.31,4.26,11.42c1.1-3.25,6.27-6.84,6.27-6.84s5.31,12.86,4.15,22-8.81,14.53-8.81,14.53l-9.53-18.09s-3.11-7.42-2.19-13.17,5.86-9.84,5.86-9.84Z"/><path d="M706.86,390.2s-1.71,9.85,1.2,15.53c2.6,5.07,4.25,6.18,4.25,6.18-5-3.27-12.44-3.55-12.44-3.55s2.67,10.72,9,15.61,16.2,3.75,16.2,3.75,6.46-8.6,6-17.86-7.81-19.2-7.81-19.2-2.9,6-3.16,10.51c-1.88-4.63-13.28-11-13.28-11Z"/><path d="M783.86,555.27l.27,3.54c5.88.05,6.75-.53,8.26,1.32a5,5,0,0,0,5.79,1.22,4.84,4.84,0,0,0,2.38-6.38c-1.09-2.4-3.33-2.92-5.47-2.5-1.32.26-2.19,1.31-3.31,1.89-2.13,1.1-7.91.91-7.91.91Z"/><path d="M783.35,552.57l2.86,2.09c-3.07,5-4,5.45-3.25,7.71a5,5,0,0,1-2,5.55,4.84,4.84,0,0,1-6.67-1.36c-1.45-2.2-.72-4.37.78-6,.92-1,2.27-1.16,3.35-1.8,2.06-1.22,5-6.23,5-6.23Z"/><path d="M763.45,510.57l.26,3.54c5.88.05,6.75-.53,8.26,1.32a5,5,0,0,0,5.79,1.22,4.83,4.83,0,0,0,2.38-6.37c-1.09-2.4-3.33-2.92-5.47-2.5-1.32.26-2.19,1.31-3.3,1.89-2.13,1.1-7.91.91-7.91.91Z"/><path d="M764.64,511.82l2.5,2.52c-3.81,4.47-4.82,4.75-4.41,7.1a5,5,0,0,1-2.87,5.17,4.84,4.84,0,0,1-6.38-2.38c-1.09-2.4,0-4.42,1.7-5.77,1.06-.83,2.42-.79,3.59-1.26,2.23-.89,5.87-5.38,5.87-5.38Z"/><path d="M743.67,468.72l.27,3.54c5.88.05,6.75-.53,8.26,1.32a5,5,0,0,0,5.79,1.21,4.84,4.84,0,0,0,2.38-6.38c-1.1-2.4-3.33-2.92-5.48-2.49-1.32.26-2.19,1.31-3.31,1.89-2.13,1.1-7.91.91-7.91.91Z"/><path d="M745.3,468l2.5,2.52c-3.81,4.48-4.82,4.75-4.41,7.11a5,5,0,0,1-2.87,5.17,4.84,4.84,0,0,1-6.38-2.38c-1.09-2.4,0-4.43,1.7-5.77,1.06-.83,2.42-.79,3.59-1.26,2.23-.89,5.87-5.38,5.87-5.38Z"/><path d="M722.6,424.54l.26,3.54c5.88.05,6.75-.53,8.26,1.32a5,5,0,0,0,5.79,1.22,4.84,4.84,0,0,0,2.38-6.38c-1.09-2.4-3.33-2.92-5.48-2.5-1.32.26-2.19,1.31-3.3,1.89-2.13,1.1-7.91.91-7.91.91Z"/><path d="M724.23,423.8l2.5,2.52c-3.81,4.48-4.82,4.75-4.41,7.11a5,5,0,0,1-2.87,5.17,4.84,4.84,0,0,1-6.37-2.38c-1.1-2.4,0-4.43,1.7-5.77,1.06-.83,2.42-.79,3.59-1.26,2.23-.89,5.87-5.38,5.87-5.38Z"/><polygon points="803.71 597.06 813.76 602.54 811.32 613.73 801.27 608.25 803.71 597.06" style="fill:#f5d402"/><path d="M759.72,500.09c-2.11.87-5.23-8.3-7.52-13.32s-7.13-13.1-5.77-13.72,3.45,3.49,5.86,8.77,9.41,17.45,7.44,18.27Z" style="fill:#f5d402"/><path d="M738.09,451.8c-2.1.88-4.41-5.13-6.7-10.15s-4.65-8.8-3.29-9.42,3.69,3.84,5.62,8.05,6.35,10.69,4.37,11.51Z" style="fill:#f5d402"/><path d="M788.13,561.29c-1.65.44-8.87-14.66-14.7-27.44s-10.18-23.12-8.82-23.74,6.21,11.39,12,24.17,12.71,26.67,11.47,27Z" style="fill:#f5d402"/><circle cx="796.2" cy="556.98" r="2.61" style="fill:#f5d402"/><circle cx="778.27" cy="563.93" r="2.61" style="fill:#f5d402"/><circle cx="775.78" cy="512.25" r="2.61" style="fill:#f5d402"/><circle cx="757.84" cy="522.24" r="2.61" style="fill:#f5d402"/><circle cx="756" cy="470.41" r="2.61" style="fill:#f5d402"/><circle cx="738.5" cy="478.4" r="2.61" style="fill:#f5d402"/><circle cx="734.93" cy="426.24" r="2.61" style="fill:#f5d402"/><circle cx="717.43" cy="434.22" r="2.61" style="fill:#f5d402"/><path d="M709.76,396.19s-.26,7.2,2.13,11.29,7.7,5.71,7.7,5.71.25-7.2-2.13-11.28S709.76,396.19,709.76,396.19Z" style="fill:#097754"/><path d="M704.78,412.48s6.26.37,9.87,3.14,5,8.54,5,8.54a11.94,11.94,0,0,1-7.76-2.35C708.29,419,704.78,412.48,704.78,412.48Z" style="fill:#097754"/><path d="M724.41,397.94a25.13,25.13,0,0,0-1.84,9.91c.24,5.14,3.24,10.94,3.24,10.94s2.71-6.17,2.47-11.32-3.15-8.08-3.87-9.53Z" style="fill:#097754"/><path d="M713.88,444.3a23.76,23.76,0,0,0,7.8,6.63c4.73,2.34,11.77,2.42,11.77,2.42a27.35,27.35,0,0,0-8.24-6.9c-4.73-2.34-11.33-2.15-11.33-2.15Z" style="fill:#097754"/><path d="M715.4,454.26s2.26,4.42,6.38,6.32,12.57,1.74,12.57,1.74a23.47,23.47,0,0,0-7.37-6c-4.13-1.9-11.59-2-11.59-2Z" style="fill:#097754"/><path d="M739.17,430.68a17.17,17.17,0,0,0-2.25,8.67c.24,4.55,3.23,9.51,3.23,9.51s2.1-5.69,1.85-10.24a15.85,15.85,0,0,0-2.83-7.94Z" style="fill:#097754"/><path d="M748.36,436.51s-4.27,5.73-4.88,11.62,2.43,11.94,2.43,11.94,5.16-5.18,5.77-11.07-3.32-12.49-3.32-12.49Z" style="fill:#097754"/><path d="M736.59,490.91a12.6,12.6,0,0,0,2.3,4.37,34.33,34.33,0,0,0,4.84,4.63,14,14,0,0,1,6.61-.15c3.66.8,8.54,4.06,8.54,4.06s-5.25-7.83-10.7-10.88a19.78,19.78,0,0,0-11.59-2Z" style="fill:#097754"/><path d="M736,504.37s6.79-2.9,12.39-2.15,10.64,5.17,10.64,5.17-7.56,2.62-13.16,1.87a19.81,19.81,0,0,1-9.87-4.89Z" style="fill:#097754"/><path d="M764.76,472.79s-6,6.36-6.51,11.89,4.87,10.67,4.87,10.67a16.17,16.17,0,0,1,.66-5.87,23.24,23.24,0,0,1,2.89-4.82,14.49,14.49,0,0,0,.51-5.12,23.44,23.44,0,0,0-2.43-6.74Z" style="fill:#097754"/><path d="M773.38,480.16s-5.66,5.73-7.16,11.86,1.17,12.68,1.17,12.68,5.15-4.06,6.65-10.2-.66-14.34-.66-14.34Z" style="fill:#097754"/><path d="M787.56,517.14a41.47,41.47,0,0,1,3.22,9.83c.65,4.48,0,6,0,6s-2.65,2.61-3.84,4.14c-1.53,2-1.75,5.58-1.75,5.58s-5.33-7.92-4.5-13.7,6.83-11.87,6.83-11.87Z" style="fill:#097754"/><path d="M798.78,529.53s-6.82,4.5-9.52,9.12A12.8,12.8,0,0,0,788,548a10.52,10.52,0,0,0,7.57-5c2.71-4.62,3.26-13.43,3.26-13.43Z" style="fill:#097754"/><path d="M754,548.55s9.83-.27,15.83,1.21,8.19,4.7,8.19,4.7-6.75,3.16-12.76,1.69S754,548.55,754,548.55Z" style="fill:#097754"/><path d="M752.32,536.89s4.43,6.87,10.16,9.37c7.9,3.43,17,1.77,17,1.77s-5-6.09-11.8-8.78-15.4-2.36-15.4-2.36Z" style="fill:#097754"/><path d="M1088.74,401.94l1.28,2.71a5.88,5.88,0,0,0-3,2.56c-.94,1.85.61,4.45.61,4.45s-10.8-.94-12.49.15c-1.53,1,.65,8.47-.36,14.8-1.4,8.81-4.87,8.07-5,9.78s1.33,4.25,1.33,4.25-2,.64-2.46,1.48c-.69,1.36.48,3.88-.36,5.53L1052,479.5c-.64,1.26-2.36,1.74-3.23,3.43a6.23,6.23,0,0,0-.15,3.84s-3,.18-4.1,2.25a8.9,8.9,0,0,0-.46,5.17,4,4,0,0,0-2.87,2.1c-1,2,.7,3,.26,3.89l-17.87,35.07c-1.63,3.2-7.34,3.84-10.65,10.34a9.6,9.6,0,0,0,1.38,11s-4.77.43-6,2.92-.27,6.38,3.17,8.14,7.21.33,8.5-2.2-1.28-6.6-1.28-6.6a9.69,9.69,0,0,0,9.68-5.38c3.31-6.5.52-11.44,2.15-14.64l17.87-35.07c.44-.87,2.27-.12,3.28-2.1a4,4,0,0,0,0-3.53,9,9,0,0,0,3.94-3.43c1.06-2.07-.56-4.66-.56-4.66a6.12,6.12,0,0,0,3-2.35c.86-1.69.23-3.35.87-4.61l16.23-31.84c.84-1.65,3.56-2.22,4.25-3.58.43-.85-.26-2.87-.26-2.87s3-.3,4.25-1.38-1.34-3.52,5-9.83c4.52-4.53,11.82-7.19,11.72-9-.1-2-7.22-10.19-7.22-10.19s3-.25,3.94-2.1a6,6,0,0,0,.31-4l3-.51V393.65ZM990.6,598a3.5,3.5,0,0,0,0,3.12s-3.58-1.12-4.81-.51,0,17.46,0,17.46,14.29-9,14.08-10.29-3.22-3.64-3.22-3.64a3.42,3.42,0,0,0,2.51-1.79c.47-.92.53-3.57-2.71-5.22a5.78,5.78,0,0,0-3.17-.72A3.39,3.39,0,0,0,990.6,598Z"/><path d="M1091.34,402.51l6.76,3.43-.1-8.14Z" style="fill:#f5d402"/><path d="M1088.73,407.42a3.91,3.91,0,1,0,5-1.33,4.2,4.2,0,0,0-2.2-.46,3.35,3.35,0,0,0-2.82,1.79Z" style="fill:#f5d402"/><path d="M1077.11,413.62c-.71.46.26,6.55.05,11.72-.19,4.88-1.76,6.26-2.61,7.93s-3.63,3.38-3.63,3.38l2.35,2.36s1.53-2.39,3.94-7.12c2.84-5.58,2.75-15.69,3.58-16.23a64.49,64.49,0,0,1,6.66-1.95s-5.44-.29-8.45-.25A6.67,6.67,0,0,0,1077.11,413.62Z" style="fill:#f5d402"/><path d="M1077.73,441.73a77.88,77.88,0,0,1,3.53-7.58c3.31-6.5,10.38-11.21,10.54-12.39s-2.46-6.91-2.46-6.91-6.24,1.2-7.12,2-.48,9.27-3.79,15.77a77.77,77.77,0,0,1-4.09,7.37Z" style="fill:#f5d402"/><path d="M1093.65,422.22c.05,1-8.16,6.86-11,12.44-2.41,4.73-3.43,7.37-3.43,7.37l3.28.51s-.23-3.37.56-4.92,1.08-3.73,4.92-6.76c4.07-3.21,9.57-6,9.52-6.86s-6.14-8.34-6.14-8.34a66.19,66.19,0,0,1,2.3,6.55Z" style="fill:#f5d402"/><path d="M1069.59,458.72c4.94-9.69,6.44-10.35,7.06-11.57s.51-3.08-1.69-4.2a3.77,3.77,0,0,0-2.15-.46,2.8,2.8,0,0,0-2.2,1.59c-.62,1.22-.29,2.86-5.22,12.54l-11.21,22a2.33,2.33,0,0,0,1,3.28,2.24,2.24,0,0,0,3.17-1.13Z" style="fill:#f5d402"/><path d="M1049.78,483.91c-.61,1.2.44,3,2.35,3.94s4,.79,4.61-.41-.49-3-2.41-3.94a5.2,5.2,0,0,0-2.76-.61A2.1,2.1,0,0,0,1049.78,483.91Z" style="fill:#f5d402"/><path d="M1045.63,490.15c-.79,1.55.44,3.78,2.77,5s4.84.89,5.63-.67-.44-3.78-2.77-5a6.32,6.32,0,0,0-2.56-.72,3.12,3.12,0,0,0-3.07,1.38Z" style="fill:#f5d402"/><path d="M1043,497.12c-.61,1.2.44,3,2.35,3.94s4,.79,4.61-.41-.44-3-2.35-3.94a5.38,5.38,0,0,0-2.82-.61,2.11,2.11,0,0,0-1.79,1Z" style="fill:#f5d402"/><path d="M1041.33,503.77s-12.45,24.5-16.84,33.12c-1.4,2.75-7.31,4.47-9.62,9s-.69,8.84,2.35,10.39,7.5.42,9.83-4.15.23-10.35,1.64-13.11c4.39-8.62,16.84-33.12,16.84-33.12a2.3,2.3,0,0,0-1-3.28,2.37,2.37,0,0,0-1.43-.26A2.58,2.58,0,0,0,1041.33,503.77Z" style="fill:#f5d402"/><path d="M1009.84,560.65c-.93,1.83.13,4.27,2.41,5.43s4.9.6,5.84-1.23-.19-4.27-2.46-5.43a5.29,5.29,0,0,0-2.56-.61,3.63,3.63,0,0,0-3.22,1.84Z" style="fill:#f5d402"/><path d="M993.26,598.07a1.69,1.69,0,0,0-1.53.72c-.48.93.51,2.41,2.2,3.28s3.46.78,3.94-.15-.51-2.41-2.2-3.28a5,5,0,0,0-2.41-.56Z" style="fill:#f5d402"/><path d="M987.42,602.67v12.08l9.83-7.07a11,11,0,0,0-9.83-5Z" style="fill:#f5d402"/><path d="M993.64,333.6c0-6.63,8.7-13.16,8.7-13.16H790.1s8.7,6.53,8.7,13.16v158a14.39,14.39,0,0,0,3.33,9.52c2,2.85,6.39,6.8,10.9,9.73,13.94,9.05,37.25,18.6,54.88,26.62,14.69,6.68,20.67,9.38,28.31,18.84,7.64-9.46,13.67-12.15,28.36-18.84,17.63-8,40.94-17.57,54.88-26.62,4.52-2.93,8.86-6.87,10.9-9.73a14.36,14.36,0,0,0,3.28-9.52Z" style="fill:#f5d402"/><path d="M803.82,423V333.6a13.51,13.51,0,0,0-2.56-8.14H991.19a13.52,13.52,0,0,0-2.56,8.14l.05,89.39-92.43,28Z" style="fill:#d10429"/><path d="M988.68,423l-57.23-1.08H861.05L803.82,423v68.6c0,3.45,3.58,11.52,24.22,21.81,34.11,17,60.33,24.93,68.19,34.61,7.86-9.67,34.08-17.61,68.19-34.61C985,503.11,988.63,495,988.63,491.58Z" style="fill:#0b45bb"/><path d="M930.06,419.4s33-8.33,33-43.62c0-27.56-33.1-41.24-34-47.81-3.23,11.38,11.06,27.1,11.06,45.71,0,24.09-17.76,25.24-17.76,25.24-4.16,0-5.84,3-7.47,3-3.5-.36-5.14-4.81-8.6-4.81-3.25,0-5.74,5-10,5s-6.73-5-10-5c-3.46,0-5.1,4.45-8.6,4.81-1.63,0-3.32-3-7.48-3,0,0-17.76-1.15-17.76-25.24,0-18.61,14.29-34.34,11.06-45.71-.94,6.58-34,20.25-34,47.81,0,35.29,33,43.62,33,43.62L853,436.55s13.65.68,20.89,6.86c8.73,7.45,7.88,23.23,7.88,34.71,0,9-1.14,18.59-5.78,22.52-6.23,5.28-10.45,5.67-10.45,11.88,0,5.17,4,6.21,10.45,9.63,8.29,4.37,7.9,10.24,20.22,10.24s12-5.86,20.27-10.24c6.47-3.41,10.44-4.45,10.44-9.62,0-6.2-4.21-6.59-10.44-11.88-4.64-3.94-5.78-13.48-5.78-22.52,0-11.48-.85-27.26,7.88-34.71,7.24-6.18,20.89-6.86,20.89-6.86Z"/><path d="M896.22,330.42l-5.73,16.28-15.61-7.42,7.42,15.61L866,360.68l16.28,5.79L874.87,382l15.61-7.42,5.73,16.28L902,374.6,917.62,382l-7.42-15.56,16.28-5.79-16.28-5.78,7.42-15.61L902,346.7Z"/><path d="M861,421.91s-20.39-5-28-15.05A78.57,78.57,0,0,1,803.82,423s16.61,7.5,29.23,17c5.82-8.34,28-18.12,28-18.12Z"/><path d="M931.44,421.91s22.19,9.79,28,18.12c12.62-9.55,29.23-17,29.23-17a78.58,78.58,0,0,1-29.23-16.13c-7.61,10.07-28,15.05-28,15.05Z"/><path d="M869.4,443.61l-7.93,7.93,7.93,7.93,7.93-7.93Z"/><path d="M923.1,443.61l-7.93,7.93,7.93,7.93,7.93-7.93Z"/><path d="M867.4,489.94a94.08,94.08,0,0,1-1,15.31s11.19-3.29,13.41-14.64c1-5.32,2.21-24.92-3.17-28.26l-14.59-2.87a89.45,89.45,0,0,1,5.32,30.46Z"/><path d="M915.83,462.35c-5.38,3.34-4.22,22.94-3.17,28.26,2.23,11.35,13.41,14.64,13.41,14.64a94.08,94.08,0,0,1-1-15.31,89.38,89.38,0,0,1,5.32-30.46Z"/><path d="M833,462.92a9.29,9.29,0,0,0-5.94,13.57,9.25,9.25,0,0,0-2.3-.46,9.55,9.55,0,0,0-1,0,9.39,9.39,0,1,0,1.95,18.64,9.22,9.22,0,0,0-1.12,2,9.41,9.41,0,1,0,17.46,7,9.07,9.07,0,0,0,.56-2.2,9.28,9.28,0,0,0,1.59,1.69,9.39,9.39,0,1,0,10.14-15.61,9.32,9.32,0,0,0,2.1-1,9.46,9.46,0,0,0,3-13,9.32,9.32,0,0,0-8.55-4.35,9.46,9.46,0,0,0-4.4,1.43,9.33,9.33,0,0,0-1.79,1.43A9.47,9.47,0,0,0,833,462.91Z"/><path d="M932.83,490.25c1,9.59,8.81,17.62,18.43,19.91a21.28,21.28,0,0,1-3.07-8.86c-1.21-11.37,7.59-20.58,19.61-20.58a23.5,23.5,0,0,1,5.53.67,24.82,24.82,0,0,0-20.89-11.77C940.41,469.62,931.62,478.88,932.83,490.25Z"/><path d="M847.59,373.68c0,18.13,9.67,28.82,22.58,28.82,2.46,0,5.16,3.33,7.47,3.33,3.78,0,6.3-4.2,8.6-4.2,2.93,0,4.9,4.61,10,4.61s7.11-4.61,10-4.61c2.3,0,4.82,4.2,8.6,4.2,2.32,0,5-3.33,7.47-3.33,12.91,0,22.58-10.69,22.58-28.82,0-14.78-12.42-32.81-11.06-35.73,0,0,24.21,17.37,24.21,37.83,0,33-33.43,41.11-33.43,41.11l7.53,16.94s-10.36,1.55-16.69,6.66c-8.44,6.8-8.55,25.19-8.55,37.63,0,14.65.54,20.86,5.84,24.83,5.58,4.19,9.78,5.1,9.78,9.37,0,3.72-4.34,5.25-10,7.73-6.41,2.83-7.05,7.73-16.33,7.73s-9.87-4.9-16.28-7.73c-5.64-2.48-10-4-10-7.73,0-4.27,4.2-5.18,9.78-9.37,5.29-4,5.84-10.18,5.84-24.83,0-12.43-.11-30.82-8.55-37.63-6.33-5.1-16.69-6.66-16.69-6.66l7.52-16.94s-33.43-8.14-33.43-41.11c0-20.46,24.22-37.83,24.22-37.83,1.36,2.92-11.06,21-11.06,35.73Zm36,136.13c-6.57,0-10.75,1.39-10.75,3.38s4.18,3.33,10.75,3.33c1.75,0,3.74-1,3.74-3.33a3.47,3.47,0,0,0-3.74-3.38Zm25.34,0a3.47,3.47,0,0,0-3.74,3.38c0,2.31,2,3.33,3.74,3.33,6.57,0,10.75-1.33,10.75-3.33s-4.18-3.38-10.75-3.38Z" style="fill:#ffd200"/><path d="M896.28,341.38,900,351.77,909.9,347l-4.71,10,10.34,3.69-10.34,3.69,4.71,9.93L900,369.59l-3.74,10.34-3.69-10.34-9.93,4.71,4.71-9.93L877,360.68,887.32,357l-4.71-10,9.93,4.76,3.74-10.39Z" style="fill:#ffd200"/><path d="M813.54,423.28s12.61,6.28,18.94,11.88l.36.31.2-.26c6-6.87,17.1-12.7,17.1-12.7s-10.68-2.95-17.4-10.65C825.62,419.11,813.54,423.28,813.54,423.28Z" style="fill:#ffd200"/><path d="M978.95,423.3s-12.61,6.28-18.94,11.88l-.36.31-.2-.26c-6-6.87-17.1-12.7-17.1-12.7s10.68-2.95,17.4-10.65C966.86,419.13,978.95,423.3,978.95,423.3Z" style="fill:#ffd200"/><path d="M869.4,447.4l4.15,4.14-4.15,4.2-4.2-4.2Z" style="fill:#ffd200"/><path d="M923.1,447.4l4.2,4.14-4.2,4.2-4.15-4.2Z" style="fill:#ffd200"/><path d="M875,465.52c2.9,4,2.41,10.46,2.41,19.45a14.07,14.07,0,0,1-6.81,12.54c0-21.79-2.25-27-3.43-33.63Z" style="fill:#ffd200"/><path d="M925.3,463.88c-1.18,6.6-3.43,11.84-3.43,33.63A14.07,14.07,0,0,1,915.06,485c0-9-.49-15.45,2.41-19.45l7.83-1.64Z" style="fill:#ffd200"/><path d="M842.83,472.13a7.11,7.11,0,0,1,.15,2.41,6.88,6.88,0,0,1-.46,1.84,10.7,10.7,0,0,0-11.57,3,7.31,7.31,0,0,1-1.33-1.54,7.17,7.17,0,0,1-1-2.15,7.31,7.31,0,0,1,14.18-3.53Z" style="fill:#ffd200"/><path d="M853.75,485.79a7.11,7.11,0,0,1-2.24.89,6.88,6.88,0,0,1-1.89.13,10.7,10.7,0,0,0-6.4-10.09,7.31,7.31,0,0,1,1-1.74,7.17,7.17,0,0,1,1.74-1.59,7.31,7.31,0,0,1,7.74,12.39Z" style="fill:#ffd200"/><path d="M844.13,500.39a7.11,7.11,0,0,1-1.54-1.86,6.88,6.88,0,0,1-.71-1.76,10.7,10.7,0,0,0,7.61-9.2,7.31,7.31,0,0,1,2,.46,7.17,7.17,0,0,1,2.05,1.17,7.31,7.31,0,0,1-9.4,11.19Z" style="fill:#ffd200"/><path d="M827.27,495.75a7.11,7.11,0,0,1,1.29-2A6.88,6.88,0,0,1,830,492.5a10.7,10.7,0,0,0,11.11,4.4,7.31,7.31,0,0,1,.17,2,7.17,7.17,0,0,1-.48,2.31,7.31,7.31,0,0,1-13.55-5.48Z" style="fill:#ffd200"/><path d="M826.47,478.29a7.11,7.11,0,0,1,2.34.6,6.88,6.88,0,0,1,1.61,1,10.7,10.7,0,0,0-.75,11.92,7.31,7.31,0,0,1-1.87.79,7.17,7.17,0,0,1-2.35.26,7.31,7.31,0,0,1,1-14.58Z" style="fill:#ffd200"/><circle cx="838.89" cy="486.47" r="7.07" style="fill:#ffd200"/><path d="M962.92,476.94c-11.73,2.27-20.17,12.63-18.94,24.73-3.74-3.1-6.47-7.27-7-11.88-1-9,5.57-15.92,15.41-15.92a20.08,20.08,0,0,1,10.49,3.07Z" style="fill:#ffd200"/></svg>