<svg xmlns="http://www.w3.org/2000/svg" viewBox="0 0 640 320"><title>Montenegro</title><rect width="640" height="320" style="fill:#d3ae3b"/><rect x="16" y="16" width="608" height="288" style="fill:#c40308"/><path d="M389.64,157.4c1.87-.53,8.39-2.43,13-6.16s5.49-6.71,5.86-8.32.53-2.88-.66-2a69.08,69.08,0,0,1-7.18,5.07,26.85,26.85,0,0,1-6,2.35c-1.32.37-2.37.61-1.11.1a24.33,24.33,0,0,0,8.6-5.15c3.19-3.2,5.71-8,5.77-10.93s-.16-2.73-1.1-2-4.31,4.89-6.2,6.46a60,60,0,0,1-6.46,4.57c-1.52.89-3.68,1.89-.68-.16s8.67-6.88,11-13.13,1.89-9.93,1.84-10.56-.58-1.89-1.1-.73-4.31,8.72-7.35,12-2.31,2.63-3,3.15-1.84,1.47-.37-.37a42.34,42.34,0,0,0,6.09-10.29,34.31,34.31,0,0,0,2-10.82,19.41,19.41,0,0,0-1.47-6.77c-.47-1-.95-1.73-1.1-.58s-2.57,8.61-3.89,12.24a47.14,47.14,0,0,1-4.46,8.51c-.52.79-1.89,2.42-.42-.32a51.61,51.61,0,0,0,4.68-18.39c.37-7.62-.68-11.82-1.73-13.92a9.17,9.17,0,0,0-2-2.85,58.85,58.85,0,0,1-1.37,12.67,42.08,42.08,0,0,1-3.82,11.42s-1,1.08-.3-.72a31.79,31.79,0,0,0,1.77-8.36c.44-4.72.49-10.09-.89-14.66a18.69,18.69,0,0,0-4.1-7.52c-.73,7.14-.58,16.34-3.2,23.8-.49-.44-1.14-1.25-1.4.4a42.09,42.09,0,0,1-4.65,12.91c-3.22,5.86-4.54,6.63-4.54,6.63s-.6-1.43-1-2.21-.66-1.2-1.19-.12a41.16,41.16,0,0,1-6.27,9.74c-3.94,4.54-6.15,6.75-6,10.16s1.91,5.14,4.3,6.69,2.81,2.39,2.45,4.24-2.51,2.51-4.36,2.57-4.18-.12-5,.36-.89,1.67-1.73,2.51-1.19,1.31-2,1.44l-.67.09c-.17-9,3.31-13,3.31-13l-9.73-11.43q-.75.37-1.51.7a2.72,2.72,0,0,0-.29-.43,7.46,7.46,0,0,1-1.72-5.18,7,7,0,0,0,2.34.22c.88-.18.22-1.06,0-1.9a17.35,17.35,0,0,1-.35-4.87c.18-1.11.26-1.55.26-1.55s1.41,1.55,2.29,1.55.79-.88.93-1.86a7.52,7.52,0,0,1,2-4.33,6.6,6.6,0,0,0,3.31,1.06,8.7,8.7,0,0,0,6-2.3c1.9-1.81,1.85-2.26,1.85-2.26a27.26,27.26,0,0,0,6.22,1.37c2.69.13,5.56-.31,6.92-3.14a6,6,0,0,0-.7-5.88c-.31-.44-1.19-.8-1.19,0s0,2.92-1.59,4a4.67,4.67,0,0,1-4.45.53A13.68,13.68,0,0,0,356,111a8.59,8.59,0,0,0-2.55.53,11.91,11.91,0,0,1,4.1-2.78,3.37,3.37,0,0,1,3.88,1c.66.8,1.23,2.08,1.76.22a6.9,6.9,0,0,0-.66-5.35,5.05,5.05,0,0,0-4.76-2,10.6,10.6,0,0,0-2.69.53s-1-2.87-3.57-3.4c-3.12-.65-6.56.53-9.26,2a9.57,9.57,0,0,1-4.28-.13,14,14,0,0,1-3.64-1.81c.25-.83.73-2.35.73-2.35s.62-.19,1.26-.43.51-.46.59-1-1.21-1.47-1.21-1.47-.19-1.62,1.94-2.73,1.89-.92,1.89-.92,1.25.23,1.76-.14.51-.6.51-.6a2.76,2.76,0,0,0,1.29-.88,2.44,2.44,0,0,0,.16-2c-.25-.66-.57-.79-.22-1.11a2.78,2.78,0,0,0,.69-1.61c0-.54,0-.66,0-.66a1.28,1.28,0,0,0,.69-1.36,1.6,1.6,0,0,0-1-1.64,2.38,2.38,0,0,0-.56-.09,3.86,3.86,0,0,0-.63-1.54,8.35,8.35,0,0,0-.94-1.26.93.93,0,0,0,.19-1,1.94,1.94,0,0,0-1.23-1.33,2,2,0,0,0-1,0s-1.67-1-2.45-1.42l-1-.5a2.34,2.34,0,0,0-.31-1.07,1.81,1.81,0,0,0-1.29-.54,1.9,1.9,0,0,0-.72.19s-2.83-.73-4-.92-1.23-.28-1.23-.28a24.56,24.56,0,0,0-3.49-1.39,12.39,12.39,0,0,1-1.26-.28,5.13,5.13,0,0,0,1.08-2.65,4,4,0,0,0-1.89-3.36c-.57-.34-.87-.39-1.06-.51l0-1,1.89.19.16-3-1.84.23.28-1.83-3.86,0,.28,1.83-1.86-.13.16,3,2-.25L318.62,63a3.48,3.48,0,0,0-1.32.57,3.59,3.59,0,0,0-1.79,3.19,5.94,5.94,0,0,0,.91,2.68s-.25.06-1.23.25a24.58,24.58,0,0,0-3.49,1.39s-.06.09-1.23.28-4,.92-4,.92a1.9,1.9,0,0,0-.72-.19,1.8,1.8,0,0,0-1.29.54,2.33,2.33,0,0,0-.31,1.07l-1,.5c-.79.41-2.45,1.42-2.45,1.42a2,2,0,0,0-1,0,1.93,1.93,0,0,0-1.23,1.33.93.93,0,0,0,.19,1,8.19,8.19,0,0,0-.94,1.26,3.86,3.86,0,0,0-.63,1.54,2.39,2.39,0,0,0-.57.09,1.6,1.6,0,0,0-1,1.64,1.28,1.28,0,0,0,.69,1.36s0,.13,0,.66a2.79,2.79,0,0,0,.69,1.61c.35.32,0,.44-.22,1.11a2.45,2.45,0,0,0,.16,2,2.76,2.76,0,0,0,1.29.88s0,.23.51.6,1.76.14,1.76.14-.23-.18,1.89.92,1.94,2.73,1.94,2.73-1.29.94-1.21,1.47-.05.75.59,1,1.27.43,1.27.43.48,1.53.73,2.35a14,14,0,0,1-3.64,1.81,9.57,9.57,0,0,1-4.28.13c-2.7-1.51-6.14-2.68-9.26-2-2.56.53-3.57,3.4-3.57,3.4a10.62,10.62,0,0,0-2.69-.53,5.06,5.06,0,0,0-4.76,2,6.9,6.9,0,0,0-.66,5.35c.53,1.86,1.1.57,1.76-.22a3.37,3.37,0,0,1,3.88-1,11.91,11.91,0,0,1,4.1,2.78A8.59,8.59,0,0,0,284,111a13.68,13.68,0,0,0-6.17.75,4.67,4.67,0,0,1-4.45-.53c-1.63-1.06-1.59-3.18-1.59-4s-.88-.44-1.19,0a6,6,0,0,0-.71,5.88c1.37,2.83,4.23,3.27,6.92,3.14a27.27,27.27,0,0,0,6.22-1.37s0,.44,1.85,2.26a8.7,8.7,0,0,0,6,2.3,6.6,6.6,0,0,0,3.31-1.06,7.52,7.52,0,0,1,2,4.33c.13,1,0,1.86.93,1.86s2.29-1.55,2.29-1.55.09.44.26,1.55a17.35,17.35,0,0,1-.35,4.87c-.26.84-.93,1.73,0,1.9a7,7,0,0,0,2.34-.22,7.47,7.47,0,0,1-1.72,5.18,2.94,2.94,0,0,0-.27.41q-.72-.32-1.45-.67l-9.73,11.43s3.5,4,3.31,13.06v-.06l-.71-.09c-.78-.12-1.13-.6-2-1.44s-.89-2-1.73-2.51-3.16-.3-5-.36-4-.72-4.36-2.57.06-2.69,2.45-4.24,4.18-3.29,4.3-6.69-2.09-5.62-6-10.16a41.27,41.27,0,0,1-6.27-9.74c-.54-1.08-.78-.66-1.19.12s-1,2.21-1,2.21-1.31-.78-4.54-6.63a42,42,0,0,1-4.65-12.91c-.26-1.65-.91-.84-1.4-.4-2.62-7.46-2.48-16.66-3.2-23.8a18.69,18.69,0,0,0-4.1,7.52c-1.38,4.57-1.32,9.94-.89,14.66a31.85,31.85,0,0,0,1.77,8.36c.66,1.79-.3.72-.3.72a42,42,0,0,1-3.82-11.42,58.9,58.9,0,0,1-1.37-12.67,9.2,9.2,0,0,0-2,2.85c-1.05,2.1-2.1,6.3-1.73,13.92a51.58,51.58,0,0,0,4.68,18.39c1.47,2.73.1,1.1-.42.32a47.3,47.3,0,0,1-4.46-8.51c-1.31-3.62-3.73-11.08-3.89-12.24s-.63-.42-1.1.58a19.47,19.47,0,0,0-1.47,6.77,34.3,34.3,0,0,0,2,10.82,42.29,42.29,0,0,0,6.09,10.29c1.47,1.84.32.89-.37.37s.05.1-3-3.15-6.83-10.82-7.35-12-1.05.1-1.1.73-.47,4.31,1.84,10.56,8,11.09,11,13.13.84,1.05-.68.16a60,60,0,0,1-6.46-4.57c-1.89-1.57-5.25-5.73-6.2-6.46s-1.15-.95-1.1,2,2.57,7.73,5.77,10.93a24.29,24.29,0,0,0,8.6,5.15c1.27.5.21.26-1.11-.1a26.79,26.79,0,0,1-6-2.35,69.26,69.26,0,0,1-7.18-5.07c-1.19-.93-1,.34-.66,2s1.27,4.6,5.86,8.32,11.11,5.63,13,6.16.55.53.55.53-.74-.1-4.54-1-9.55-3.86-11.11-4.83-1.79-1.35-1.58.71a13.54,13.54,0,0,0,5.91,8.54c3.51,2.06,9.84,3.12,11.48,3.2s1.21.32.48.37a33.57,33.57,0,0,1-5.54-.29,42.92,42.92,0,0,1-7.3-1.89c-.14-.53-.26-1-.32-1.35-.15-.79-.55-.67-.81-.49a8.06,8.06,0,0,1-1.28.76c-.87.44-.9-.09-.93-.35s-.2-1.4-.23-2-.35-.61-.75-.44-2.35,1-3.08,1.31-.06.9.32,1.6,1,1.72,1,1.72l-2.41.64c-.58.15-.41.55-.26,1s1,2.45,1.28,3a.48.48,0,0,0,.76.23l1.83-1.08.64,2.44a6.46,6.46,0,0,0-1.77.84c-.92.65-.69,1.48.42,1.81s2.4.88,3.84,3.48,1.8,7.28,2.68,14.65a17.2,17.2,0,0,0,6.24,11.59c.65.46.28.83.28.83a3.27,3.27,0,0,0-.37,2.37,3.55,3.55,0,0,0,2.17,2.5.72.72,0,0,1,.46.88,15.69,15.69,0,0,0,0,4.45,13.75,13.75,0,0,0,3.33,6.67c.65.55.69.83.6,1.07s-.51,0-1.29.65a8.15,8.15,0,0,0-2.22,2.46c-.55,1-.37,1.62-.19,3s2.22,2.64,2.22,2.64-.37.09-.46,1.11a3.75,3.75,0,0,0,1.57,2.92,7.82,7.82,0,0,0,2.68,1.11s.14.88.23,1.48,1.25,1.2,2,1.62a3.79,3.79,0,0,0,2.77-.09c.6-.28,1,0,1.39.65s.23,2.92.23,3.85-.55,1.9-.23,2.36,1.2.14,2.08-.37,1.11-.14,1.89.37a6,6,0,0,0,2.36.93c.32,0,.18-.88.18-1.58s.13-2.27.45-2.5a21.34,21.34,0,0,0,2.55-.65c.48-.2,1.11-.42,1.15-.88s-.65-.46-2.17-1.25a18.67,18.67,0,0,1-2.77-1.9c-1-.65-.51-.88-.51-1.16s.46-.6.65-1a3,3,0,0,0,.09-1.2s.79-.79,1.15-1.21a13,13,0,0,1,1.34-1.48c.51-.42,1.29-2.41,1.8-3.06s1.66-1.34,2.36-2.23a19.46,19.46,0,0,1,3.61-3c1.06-.7,3.93-2,3.93-2a4.44,4.44,0,0,0,.69,2.55c.74.84,1.71-.65,5-3a24.87,24.87,0,0,1,5.78-3.15s.69,1.07,1.57,2.18,1.66,0,5.68-5.61a72.84,72.84,0,0,1,9-9.9l.89.4c-.08.21-.16.46-.24.72a30.48,30.48,0,0,1-1.75,3.5c-.78,1.61-2,2-3.36,4.15a10.47,10.47,0,0,0-1.7,5.85c-.14,2.21,1.11,2.67,1.11,2.67a14.13,14.13,0,0,0-2.62,3.45,22.53,22.53,0,0,0-.92,4.47s-.32.14-1.06,1.66-2.07,1.75-4,3.68a19.81,19.81,0,0,1-5.11,3.36c-1,.6-.74,1.2-.46,2s1.66,1.57,3.27,2.16a6.1,6.1,0,0,0,3.27.32c1.11,0,.23.83-.23,1.29a6.05,6.05,0,0,0-1,3.87c.09,1.8,1.43,1.38,3.09,1.1a18.7,18.7,0,0,0,3.59-1.1l-.18.51a5.68,5.68,0,0,0-.28,2.3c0,1.43.23,2.12.64,2.48s1.24-.41,1.84-.6a20.54,20.54,0,0,1,3.08-1.1,3.82,3.82,0,0,0,2-1,2.9,2.9,0,0,0-.46,1.47,11.79,11.79,0,0,0,.18,3.41,6.27,6.27,0,0,0,1.89,2.85c1,.92,1.24.51,2-.64a19.09,19.09,0,0,1,2.26-2.63s.09.37,1.11,3.64,4.33,6,4.33,6,3.32-2.72,4.33-6,1.1-3.64,1.1-3.64a19,19,0,0,1,2.26,2.63c.74,1.15,1,1.57,2,.64a6.29,6.29,0,0,0,1.89-2.85,11.93,11.93,0,0,0,.19-3.41,2.91,2.91,0,0,0-.46-1.47,3.82,3.82,0,0,0,2,1,20.6,20.6,0,0,1,3.08,1.1c.6.18,1.43,1,1.84.6s.64-1.06.64-2.48a5.68,5.68,0,0,0-.28-2.3l-.18-.51a18.72,18.72,0,0,0,3.59,1.1c1.66.27,3,.69,3.09-1.1a6.06,6.06,0,0,0-1-3.87c-.46-.46-1.33-1.33-.23-1.29a6.11,6.11,0,0,0,3.27-.32c1.61-.6,3-1.38,3.27-2.16s.55-1.38-.46-2a19.83,19.83,0,0,1-5.11-3.36c-1.93-1.93-3.27-2.16-4-3.68s-1.06-1.66-1.06-1.66a22.56,22.56,0,0,0-.92-4.47,14.11,14.11,0,0,0-2.62-3.45s1.24-.46,1.11-2.67a10.45,10.45,0,0,0-1.7-5.85c-1.38-2.16-2.58-2.53-3.36-4.15a30.44,30.44,0,0,1-1.75-3.5c-.07-.23-.15-.46-.23-.7l1.19-.52a72.71,72.71,0,0,1,9,9.91c4,5.56,4.81,6.72,5.68,5.61s1.57-2.18,1.57-2.18A24.83,24.83,0,0,1,353.5,220c3.28,2.32,4.25,3.8,5,3a3.05,3.05,0,0,0,.52-1.73s1.89.55,4,1.31c1.3.45,2.73,1,3.8,1.48,2.84,1.2,3.15,1.82,5.41,3.61s5.48,1.61,8.53.69,11.17-3.6,14.42-5,5.58-2.65,5.93-3.3a10.35,10.35,0,0,0,.72-3.12,3.16,3.16,0,0,0-1-1.79c-.24-.17-.14-.69-.07-1.1a3.45,3.45,0,0,0-.65-2.2c-.51-.55-.45-.75-.38-2.34.14-3.35-2.25-7.58-5.64-8.92a1.29,1.29,0,0,0-.37-.62,3.8,3.8,0,0,0-.73-.43s.07-1.93,0-2.34.16-.37.39-.25a4,4,0,0,0,1.14.71c.55.14.89-.25,1-.87a25.44,25.44,0,0,1,.78-2.48c.21-.62,0-.71-.3-.78s-1.07-.16-1.46-.25-.39-.11-.3-.32a8.7,8.7,0,0,1,.73-1.31c.5-.78,0-.8-.43-1s-2.65-.83-3.25-.92a.61.61,0,0,0-.73.66c0,.25,0,1.35,0,1.77s-.36.3-.59.18a8.45,8.45,0,0,1-1.17-.76c-.41-.32-.71,0-.87.44s-.66,2.34-.82,2.89-.11,1,.11,1.08a13.22,13.22,0,0,0,1.94,0c.64,0,.27.37.27.37s-.69,1.12-.92,1.56-.62.51-1.14.51h-1.41a12.33,12.33,0,0,0-6.1,2.06,10.12,10.12,0,0,0-3.71,4.44c-.4.93-.86.73-1.26,1.06s-1.52,1.53-1.52,2.26.27,1.13-.86,1.85-2.06,3.91-.53,5.57a17.27,17.27,0,0,1,2.59,4.11c.46.8,0,1.13-.4,1.13s-1.23-.68-1.92-1.19-4.2-3.25-5.7-4.37-.4-1-.4-1a3.08,3.08,0,0,0,1.26-.34c.88-.37,1-.83.14-1.11a11.14,11.14,0,0,1-3-1.71c-.46-.46-.69-1,.18-1.44s2.82-1.71,1.29-2.13-3.33-.74-4.81-1.16-1.62-.83-1.62-.83l1-1.39s.79-1.11-.14-1.25a20.54,20.54,0,0,1-5.17-1.3,12.51,12.51,0,0,1-7.55-8.38l.07-.09c.76,1.5,2.52,4.31,5.19,4.39,3.64.12,4.06-1,3.22-2.21s-1.79-2.27-2-2.63-.3-.84.65.06,2.77,3.94,8.26,3.59,5.46-1.43,5.46-1.73c0-1.05-1.12-1.22-1.78-1.88-.34-.35-.55-.85.55-.42a14.24,14.24,0,0,0,7.52.13c1.46-.31,5.32-2,5.7-4a14.65,14.65,0,0,1-4.17-.87c-1.72-.74-2.74-1.35-.92-1s5.36,1.11,8.47.05c1.82-.62,4.17-2.09,4.17-4.78,0,0-3.38-.71-4.62-1.16A5.76,5.76,0,0,1,382,180a13.48,13.48,0,0,0,9.21-.69c4.38-2.22,4.56-5.26,4.56-6a2.45,2.45,0,0,0-.11-.93,34.58,34.58,0,0,1-7,1,17.73,17.73,0,0,1-3.91-.29s8.34-.24,12.53-2.8,4.43-7.61,4.43-7.61a46.3,46.3,0,0,1-7.73,2,33.58,33.58,0,0,1-5.54.29c-.74-.05-1.16-.29.48-.37s8-1.14,11.48-3.2a13.54,13.54,0,0,0,5.91-8.54c.21-2.06,0-1.69-1.58-.71s-7.31,4-11.11,4.83-4.54,1-4.54,1-1.46-.07.42-.59ZM239.54,167l-1.68,1s-.67-1.37-.84-1.77-.09-.58.14-.58.93-.2,1.48-.26l.21,0a10.71,10.71,0,0,0,.74,1.66l-.06,0Zm51.18,30c-1,1.9-3.79,3.9-5.82,4.77a20.51,20.51,0,0,1-5.17,1.3c-.92.14-.14,1.25-.14,1.25l1,1.39s-.14.42-1.62.83-3.28.74-4.8,1.16.42,1.67,1.29,2.13.65,1,.18,1.44a11.17,11.17,0,0,1-3,1.71c-.88.28-.74.74.14,1.11a25.83,25.83,0,0,0,3.28.83,13.94,13.94,0,0,1-1.52,1.21,12.1,12.1,0,0,1-5.78,1.95,76.73,76.73,0,0,1-7.84,0c-3.43-.16-3.82-.24-3.82-.24s-.12-1.14-.36-2.84a14.36,14.36,0,0,0-2-5.2c-.79-1.1-2.44-3.31-2.44-3.31a9,9,0,0,1,.16-1,3.74,3.74,0,0,0-.36-2.18,9.4,9.4,0,0,0-2.4-2.56s-.08-1.12-.08-2.16a36.78,36.78,0,0,0-1.36-7c-.64-1.92-3.76-7-5.21-9.37a26.3,26.3,0,0,1-2.73-8.73,10.86,10.86,0,0,1-.12-4.4,3.53,3.53,0,0,1,.33-.87,8.59,8.59,0,0,0,2.32,2.08c4.2,2.56,12.53,2.8,12.53,2.8a17.72,17.72,0,0,1-3.9.29,34.65,34.65,0,0,1-7-1,2.43,2.43,0,0,0-.11.93c0,.71.19,3.75,4.57,6A13.48,13.48,0,0,0,258,180a5.76,5.76,0,0,1-1.64.79c-1.24.45-4.62,1.16-4.62,1.16,0,2.69,2.35,4.16,4.17,4.78,3.11,1.06,6.65.32,8.47-.05s.79.24-.92,1a14.65,14.65,0,0,1-4.17.87c.38,2,4.24,3.65,5.7,4a14.25,14.25,0,0,0,7.52-.13c1.11-.42.9.08.55.42-.66.66-1.78.83-1.78,1.88,0,.3,0,1.38,5.46,1.73s7.31-2.69,8.26-3.59.89-.42.66-.06-1.19,1.43-2,2.63-.42,2.33,3.22,2.21c2.68-.09,4.45-2.93,5.2-4.42l0,.07.15.2a34.44,34.44,0,0,1-1.58,3.54ZM335,78.19c-.5-.94-.76-1.39-.76-1.39a11.84,11.84,0,0,1,3.3,2.36A5,5,0,0,1,338.93,82a9.6,9.6,0,0,1-.18,3.12,3.91,3.91,0,0,0,.05,2.31,3.1,3.1,0,0,0,.45.63,17.12,17.12,0,0,0-1.78.58c-.86.34-2,.66-2.62.13s-.79-.89-.39-1.23a3.63,3.63,0,0,0,2-3.28,12.3,12.3,0,0,0-1.49-6ZM323.72,85a8.32,8.32,0,0,0,.3-4.79,56.32,56.32,0,0,1-.8-6,9.3,9.3,0,0,1,3.72,2.34,7.34,7.34,0,0,1,2.7,5.07c0,1-.53,2.23-.61,3.21a4.38,4.38,0,0,0,.28,1.84,9.23,9.23,0,0,0-1.53.83,3.19,3.19,0,0,1-2.33.75,5.23,5.23,0,0,1-2.42-.89A3.54,3.54,0,0,0,322,87,4.43,4.43,0,0,0,323.71,85ZM313,76.55a9.32,9.32,0,0,1,3.72-2.34,55.57,55.57,0,0,1-.81,6,8.33,8.33,0,0,0,.31,4.79A4.44,4.44,0,0,0,318,87a3.59,3.59,0,0,0-1.06.39,5.23,5.23,0,0,1-2.42.89,3.2,3.2,0,0,1-2.33-.75,9.3,9.3,0,0,0-1.53-.83,4.36,4.36,0,0,0,.28-1.84c-.08-1-.61-2.2-.61-3.21a7.41,7.41,0,0,1,2.7-5.07Zm-7.91,12.2c-.63.53-1.75.21-2.62-.13a17.23,17.23,0,0,0-1.78-.58,3.11,3.11,0,0,0,.45-.63,3.92,3.92,0,0,0,.05-2.31A9.6,9.6,0,0,1,301,82a5,5,0,0,1,1.39-2.81,11.84,11.84,0,0,1,3.3-2.36s-.26.44-.76,1.39a12.28,12.28,0,0,0-1.49,6,3.63,3.63,0,0,0,2,3.28c.39.34.23.71-.4,1.23Zm29.24,21.08c-2.16,1.19-3.4.93-3.31,1.81s2,1.55,2,1.55a23.57,23.57,0,0,1-3.53,3.1,18.34,18.34,0,0,1-3.35,1.59s-.62.09-.26,1.06a3.61,3.61,0,0,0,1.45,1.9,5.26,5.26,0,0,0,.75.35s-2.69,2.88-3.88,3.8a10.18,10.18,0,0,1-2.82,1.64c-1,.4-.48,2-.27,2.7a3.38,3.38,0,0,0,1.54,1.81c.48.13.66.49,0,1.46-.46.73-2,2.66-2.73,3.72l0,0c-.73-1.06-2.29-3-2.75-3.74-.62-1-.44-1.33,0-1.46a3.38,3.38,0,0,0,1.54-1.81c.22-.71.7-2.3-.27-2.7a10.16,10.16,0,0,1-2.82-1.64c-1.19-.93-3.88-3.8-3.88-3.8a5.29,5.29,0,0,0,.75-.35,3.6,3.6,0,0,0,1.46-1.9c.35-1-.27-1.06-.27-1.06a18.41,18.41,0,0,1-3.35-1.59,23.68,23.68,0,0,1-3.53-3.1s1.94-.66,2-1.55-1.15-.62-3.31-1.81a6.87,6.87,0,0,1-2.87-2.7,7.09,7.09,0,0,0,3.75-3.36,4.66,4.66,0,0,0,.5-2.39l.1,0a46.32,46.32,0,0,0,25.78,0l.1,0a4.65,4.65,0,0,0,.49,2.39,7.09,7.09,0,0,0,3.75,3.36,6.85,6.85,0,0,1-2.86,2.71Z" style="fill:#b96b29"/><path d="M347.47,158.5a20.13,20.13,0,0,1,3.12-11.08l-8.49-9.73c-8.09,3.13-15.5,3.32-22.1,0-6.6,3.36-14,3.17-22.1,0l-8.5,9.73a20.13,20.13,0,0,1,3.12,11.08,61.13,61.13,0,0,1-2.08,15.1c-.77,3.28-1.42,9.41.33,13.79s3.61,8.21,11.16,11.38,11.49,4.81,14.12,7a26.42,26.42,0,0,1,3.94,3.94,26.37,26.37,0,0,1,3.94-3.94c2.63-2.19,6.57-3.83,14.12-7s9.41-7,11.16-11.38,1.09-10.51.33-13.79a61.48,61.48,0,0,1-2.07-15.1Z" style="fill:#d4af3a"/><path d="M344.8,161.3c-1.07-6.48,2.67-12.19,2.67-12.19l-7.27-8.5c-5.6,3.15-13.4,2.72-20.17-.39-6.77,3.12-14.57,3.54-20.17.39l-7.27,8.5s3.74,5.71,2.67,12.19-3.36,16.74-2.79,20.92A20.53,20.53,0,0,0,299,193.79a38.39,38.39,0,0,0,10.74,5.82,31,31,0,0,1,7.8,4.51,28.83,28.83,0,0,1,2.46,2.13,29.11,29.11,0,0,1,2.46-2.13,31,31,0,0,1,7.79-4.51A38.36,38.36,0,0,0,341,193.79a20.53,20.53,0,0,0,6.56-11.57c.57-4.2-1.73-14.45-2.8-20.93Z" style="fill:#b96b29"/><path d="M344.1,162.07a21.67,21.67,0,0,1,2.1-12.63l-6.56-7.31c-5.55,2.85-12.29,2.11-19.63-.43-7.34,2.55-14.08,3.28-19.63.43l-6.56,7.31a21.66,21.66,0,0,1,2.11,12.63c-1.05,7-2.66,14.92-2.35,19.57,0,.32.05.64.1,1h6a2.94,2.94,0,0,1,1-.69,3,3,0,0,0,.85-.48s.13-1.21.86-1.46a3.43,3.43,0,0,1,1.33-.26,1.07,1.07,0,0,0,.86-.41,6.42,6.42,0,0,0,1.71-2.41,7.44,7.44,0,0,0,.67-2.48,12.28,12.28,0,0,1,.29-2.06s-.16-.38-.76-.16-.7-.38-.76-1a4.86,4.86,0,0,1,.32-2.41c.35-.57.48-.76.48-.76l-.25-1s-3.8.76-4.46-2.19-.79-4.38-.89-4.7-.19-.48-.7-.45-1.58-.32-2.34-1.84-.82-2.16-.6-2.76.63-.38.76-.19,1.14,1.65,1.55,1.24.19-.41-.38-1.56a2.73,2.73,0,0,1-.32-2.1,10,10,0,0,0-.19-1.65.48.48,0,0,1,.7-.41,2.5,2.5,0,0,1,.82.6c.16.19.22.48.54.29s.13-1.24.13-1.59.41-.6.92-.32a1.49,1.49,0,0,1,.76,1.21c0,.38,0,.73.22.73s.41-.57.44-1,.25-1,.6-.48a2.52,2.52,0,0,1,.35,1.9c-.13.73.13.35-.13,1.62a10.9,10.9,0,0,0-.35,2.79,6.36,6.36,0,0,0,.54,2.67c.48,1.18.85,2.54,1.74,2.57l1.14,0a8,8,0,0,1,1.74-2.35,7,7,0,0,1,2.6-.6c.76-.1,1.08-.32,1.08-.51s-.25-.25-1.17-.38-1.68-.35-1.71-1,.16-1.3-.44-1.33a3.68,3.68,0,0,1-2.63-1.49,2.09,2.09,0,0,1-.35-1.75c.06-.54.76-1.62,1.2-.6s.73,1.14,1.11,1.37.89.29.63-.41a3.51,3.51,0,0,1-.35-1.65.94.94,0,0,1,.82-.83c.41-.1,1.65-.48,2.28-.6s.67-.19.67-.19.06-.45.89-.7a6,6,0,0,1,2-.29,3.34,3.34,0,0,0,1.84-.29,3.79,3.79,0,0,1,1.93-.41,2.48,2.48,0,0,1,1.27.48c.38.26.25.6.25,1s.06.54.6.54a4.1,4.1,0,0,1,1.52.19c.51.19,1.2.48.76,1s-.47,1.14-.76,1.11-.25.29-.38.48-.22.35.1.54.35.38.79.79,1.11.86.44,1.52a7.59,7.59,0,0,1-1.83,1.21s-.67.32.09.76,1.11,1.37,1.39,1.52.57.41.76.51.16.73.16.73a7,7,0,0,1-2.69,1c-.54,0-.82,0-.6.51s.6,1,.7,1.33.22.79.22.79a9.42,9.42,0,0,0,1.68.19,18.93,18.93,0,0,0,2.88-.16,13.67,13.67,0,0,1,3.93-.06,14,14,0,0,1,2.37.29,9,9,0,0,1,.89.38,24.49,24.49,0,0,0,3.67-.32c1.3-.29,1.62-1.11,1.43-1.56s-.16-1.11-2.44-1.43-3.2-.19-5-.54-4.62-1.27-5.13-3.52,1.33-3.21,2.25-3.65,2.91-1.14,3.83-1.52a8.83,8.83,0,0,1,4.37-.51c1.77.26,2.79.73,3.48.32s1.27-.1,1.14.54a3.76,3.76,0,0,1-2.82,2.54,12,12,0,0,1-5.7.32c-1.3-.35-2.28-.86-3.07-.57a1.54,1.54,0,0,0-.82,2.45c.86,1.18,5.23,1.52,6.4,1.65s5.51-.19,6.74,2,.25,4.57-1.2,5.11a18.77,18.77,0,0,1-3.8,1l-1.11.16a6.52,6.52,0,0,1,.51,1.62c0,.48-.06,1.37.48,1.71a3.39,3.39,0,0,0,2.22.51c.92-.09,2,.54,2.09,1.37s.32,2,.41,3.62a26.3,26.3,0,0,1,0,3,5.74,5.74,0,0,1-.28,1.24c-.22.6-1.36,2.94-1.36,2.94h6.38q.07-.49.1-1c.26-4.71-1.35-12.63-2.4-19.63Z" style="fill:#1d5e91"/><path d="M294.42,185.72a18.27,18.27,0,0,0,7.75,9.55c5.45,3.28,7.8,2.85,12.94,6.19s4.83,3.9,4.89,3.9-.25-.56,4.89-3.9,7.49-2.91,12.94-6.19a18.25,18.25,0,0,0,7.75-9.55H294.42Z" style="fill:#6d8c3e"/><path d="M298.88,158.13a1.94,1.94,0,0,0,1.91.71c.89-.1,1.11.55,1.26,1.26a16.37,16.37,0,0,0,.8,3.91c.65,1.54,2.8,1.63,2.8,1.63a9.61,9.61,0,0,1,.65-2.56c.06-.15.34-.83-.43-.83s-.74-.31-1.2-1a14.44,14.44,0,0,1-1.57-4,10,10,0,0,1,.4-3.82c.22-.68.25-1.14,0-1.26a1.4,1.4,0,0,0-.74,0s.18.59,0,.68-.4-.31-.55-.74-.34-.37-.65-.34-.31.31-.09.62a1.31,1.31,0,0,1,.09.86,9,9,0,0,0-1-.62c-.28-.12-.92.12-1,.49a2.54,2.54,0,0,0,.83,1.82,1.94,1.94,0,0,1,.4,2c-.18.46-1,.4-1.23.18a.53.53,0,0,0-.8,0c-.25.28-.5.44.09,1.05Z" style="fill:#d4af3a"/><path d="M298.54,156.5a4.35,4.35,0,0,1-.46-.43l-.37-.49a1.57,1.57,0,0,0-.06.52,1.39,1.39,0,0,0,.4.77l.49-.37Z" style="fill:#d4af3a"/><path d="M299.83,152.22c.28-.12.49-.19.28-.49s-.4-.65-.62-.71a1,1,0,0,0-.4,0,5.28,5.28,0,0,1,.31.89c.06.34.16.46.43.34Z" style="fill:#d4af3a"/><path d="M301.44,150.92c0,.28,0,.4.28.28a.54.54,0,0,0,.21-.71,1.33,1.33,0,0,0-.4-.43l-.18-.12a9.67,9.67,0,0,1,.08,1Z" style="fill:#d4af3a"/><path d="M303.74,151.29a1.72,1.72,0,0,0-.09-.65,1.2,1.2,0,0,1-.15.59c-.15.21-.12.15,0,.34s.18,0,.21-.28Z" style="fill:#d4af3a"/><path d="M307.36,166.95c.45,1.05,1.6-.6,2.65-1.93s1-.31.87.77a5.1,5.1,0,0,0,.7,3c.42.73.77.31.94-.21a10.08,10.08,0,0,1,.66-2.13c.35-.53.7-.07.73.38a5.05,5.05,0,0,0,1.11,2.06c.52.6.77-.21.94-.94s.38-1.85.52-2.31.63-.07.63-.07.35.35,1,1,.77-.38.84-.91-.11-1.68.1-1.86.8.25,1.71.7.87-.42.77-.91a5,5,0,0,0-1.36-2.24c-.73-.63-.84-1.36-.59-1.68s1.11,0,1.67-.1.84-.14,1.26-.21a.5.5,0,0,0,.42-.49,5,5,0,0,0-.91-1,3.74,3.74,0,0,0-1.67-1.12,5.25,5.25,0,0,0-1.74,0l-.11-.21c-.1-.21-.31-.21-.45,0a5.19,5.19,0,0,1-.77.73c-.28.24-.45.38-.63.28s.14-.35.14-.35a2.79,2.79,0,0,0,.73-1c.35-.7.45-1.37.17-1.68s-1,0-1.46,0-.66.07-.7-.14.42-.1.94-.18.84-.7,1-1.22.31-.46.63-.14.59.24.66,0a7.18,7.18,0,0,1,.7-1.26,1.55,1.55,0,0,0,.17-1.75,1.36,1.36,0,0,0-1.71-.1,1.86,1.86,0,0,0-.73,1.4c-.11.77-.31.35-.31.1s-.31-.63-.17-.94a1.18,1.18,0,0,0-.8-1.47,5.71,5.71,0,0,0-2.3.21.69.69,0,0,0-.59.81s-.56,0-1.15.1a15.67,15.67,0,0,0-1.85.45c-.56.14-.77.21-.77.49a4.28,4.28,0,0,0,.11.74,1.77,1.77,0,0,1,.7.14c.24.14.1.38-.17.49s-.38.14-.38.49.14.42.42.42a3.65,3.65,0,0,1,1.57.31,1.24,1.24,0,0,1,.8,1.29c-.07.35-1,.8-1.54.8s-.63.11-.63.42.59.28.59.28.59,0,1.74.17a2.57,2.57,0,0,1,1.85.84c.52.46.14.56-.11.7a6.48,6.48,0,0,1-1,.6c-.38.14-.63.42-1,.49a9.65,9.65,0,0,0-2.82.67,4.38,4.38,0,0,0-2.16,2.73,8.63,8.63,0,0,0,.94-.46c.73-.38,1.64-.8,2.48-1.33s.84.25.42,1,.38.59.63.38a6.86,6.86,0,0,1,1.36-.84c.8-.42.52.24.52.24a4.68,4.68,0,0,0-.31,1.65c-.07,1.15,1.15.07,1.71-.66s.8,0,.38.84-1.22,1.5-1.67,1.5a1,1,0,0,1-.84-.77c0-.28.14-1.12-.14-1.33s-1.08,0-1.67.38-.73.07-.87-.24.21-.42.07-.63-.45,0-.7.1-.8.42-1.88,1-1,.87-1,1.68.2,1,.65,2Z" style="fill:#d4af3a"/><path d="M317.82,149.44a5,5,0,0,1,.64-.31s.52-.12,1-.19.39-.33.29-.55-.29-.31-.9-.31a3.12,3.12,0,0,0-1.36.45,6.41,6.41,0,0,1-.76.25s.08.1.31.43a.56.56,0,0,0,.79.24Z" style="fill:#d4af3a"/><path d="M320.34,151.94a1.28,1.28,0,0,0,.52-.15,8.28,8.28,0,0,1,.86-.37,1.11,1.11,0,0,0,.82-.7c.25-.49-.27-.49-1-.68s-1.07.06-1.15.33a3.59,3.59,0,0,1-.35,1.09c-.29.51,0,.47.29.47Z" style="fill:#d4af3a"/><path d="M320.11,152.57c-.7,0-1.48,1.05-1.77,1.24s-.12.37-.12.37a4.19,4.19,0,0,1,.29.84,8.49,8.49,0,0,1,.1,1.11,1.63,1.63,0,0,0,1.57-.45,2.65,2.65,0,0,1,1.26-.49,4.11,4.11,0,0,0,1.44-.53c.62-.33-.33-.91-1-1.44a2.46,2.46,0,0,0-1.77-.62Z" style="fill:#d4af3a"/><path d="M310.8,155c.55-.06.8-.34.8-.65s-.28-.65-1-.59c-1.73.15-3.42-.47-3.73-2.19a2,2,0,0,0,.49,2.28,4.29,4.29,0,0,0,3.43,1.14Z" style="fill:#d4af3a"/><path d="M304.89,182.31a.75.75,0,0,0,.31.3h2.66c.45-.13.46-.54.48-.83s.29-1.32.66-3.08a21.21,21.21,0,0,1,1.26-3.74c.26-.71-.26-.95-.45-1.4a12,12,0,0,1-.55-1.63c-.08-.4-.71-.34-1.05-.32s-.39.58-.45,1.11-.29,2.08-.55,3.43a9,9,0,0,1-2.21,3.53,1.63,1.63,0,0,1-1.05.55,2.94,2.94,0,0,0-1.23.18,1.57,1.57,0,0,0-.66,1.08c0,.4.61.61.61.61a3.1,3.1,0,0,0,.68-.53c.18-.24.6-.29,1-.37s.47.08.32.29-.11.25.21.81Z" style="fill:#d4af3a"/><path d="M300.82,182.17a.91.91,0,0,0-.44.44h1.74a.93.93,0,0,0-.17-.44C301.74,181.91,301.18,182,300.82,182.17Z" style="fill:#d4af3a"/><path d="M303.18,182.12a1.88,1.88,0,0,0-.6.49h1.87a.49.49,0,0,0-.14-.59c-.42-.35-.84-.06-1.13.1Z" style="fill:#d4af3a"/><path d="M319.4,181.35c-.2,0-.39.18-.68.38a1.12,1.12,0,0,0-.43.77.17.17,0,0,0,0,.11h.79a.14.14,0,0,0,.05-.11c0-.23.09-.43.43-.73s0-.43-.17-.43Z" style="fill:#d4af3a"/><path d="M321,182.21c0-.25-.09-.48-.27-.45s-.47.34-.72.52a1.58,1.58,0,0,0-.32.34h1.17a1.05,1.05,0,0,0,.14-.41Z" style="fill:#d4af3a"/><path d="M328.18,173.58c.56-.41.47-.52.49-1s0-.57-.2-.72a3.92,3.92,0,0,0-1.85-.52,6.74,6.74,0,0,0-2.85.57,3.69,3.69,0,0,0-.84,2.49c0,.72.11.84.32.84s.54-.52.54-.52.74,1,1.2,1.65.25.95,0,1.47a5.48,5.48,0,0,1-1.54,2.2c-.59.29-1,0-1.74-.09a1.51,1.51,0,0,0-1.49.5c-.41.41,0,.73.23.73a1,1,0,0,1,.86.32c.19.24.06.77,0,1.08h3.46a2.76,2.76,0,0,0,1.16-1.51,5.45,5.45,0,0,1,1.29-1.49c.36-.34.41-.57.41-1.31a3.24,3.24,0,0,0-.48-1.7,3.09,3.09,0,0,1-.38-1.7c.06-.46.81-.93,1.37-1.34Z" style="fill:#d4af3a"/><path d="M322.49,164.95c.35.56.17.67-.32.78a5.69,5.69,0,0,1-1.81.13c-.77-.07-.76,0-.77.43a3.4,3.4,0,0,1-.54,1.81.9.9,0,0,1-1.36.13c-.35-.24-.54-.17-.67.26a7.34,7.34,0,0,1-.73,1.38c-.37.65-.6.67-.86.6s-.5-.45-.76-.48-.67-.54-1.06-1.16-.58.06-.84.6-.52.93-1,.86-1.06-1-1.34-1.55-.45-1.1-.88-1.08-1.14.93-1.62,1.16-.6.15-.82-.15-.5.11-.78.82a1.17,1.17,0,0,0,.41,1.51c.39.19,1.16-.37,1.68-.71a1.76,1.76,0,0,1,1.29-.26c.54,0,.5.88.73,2.18s1,1.47,1,1.47.26.22.84-.77.65-2,1.21-2,.6.13,1.16.9,1,1.36,1.36.78a7.56,7.56,0,0,1,1-1.75c.37-.3.71-.39.32.17s-.56,1.16.24.93,3.84-1.47,5.07-1.7c0,0,1.44-.24,3.11-.32s2.07-.2,2.72-.2.67-.07.71-.5-.3-.35-1.51-.35a16.94,16.94,0,0,0-2.89.28c-.84.13-1.23.11-1.08-.11s.39-.37,1.36-.52a39.71,39.71,0,0,1,4-.28c1,0,.71.3.62,1a12,12,0,0,0,.15,2.35,3.05,3.05,0,0,0,.65,1.75c.56.9,2.5,1.47,3.06,1.77s.48,0,.45-.54.43-.52.93-.24a8.87,8.87,0,0,0,1.9.67c.58.15.67.26.67.56s.07,1,.13,1.6a1.45,1.45,0,0,1-.22,1.21,19.65,19.65,0,0,1-1.36,1.51,7.39,7.39,0,0,0-1.55.26c-1.06.26-1.38.76-1.49,1.19s.2.56.24.73a2.43,2.43,0,0,1,0,.52h.24a5.51,5.51,0,0,1,.38-.56,1.72,1.72,0,0,1,1.9-.3.75.75,0,0,1,.36.86h2.42c.33-.63,1.1-2.13,1.3-2.59a3.87,3.87,0,0,0,.43-1.75,30.3,30.3,0,0,0,0-4.05c-.15-.17,0-.69,0-1.55s0-1.51-1.6-1.66a3.55,3.55,0,0,1-2.63-1.36c-.54-.54-.41-1.79-.84-3.3s-1.49-1.75-3.36-2.11a15.57,15.57,0,0,0-4.66-.28,29.23,29.23,0,0,1-4.12.24c-1-.12-.8.16-.45.72Z" style="fill:#d4af3a"/><path d="M331.55,182.27a1.18,1.18,0,0,0-.35.34h1.63a.64.64,0,0,0-.16-.47c-.24-.3-.72-.13-1.12.13Z" style="fill:#d4af3a"/><path d="M334.47,182.16a1.48,1.48,0,0,0-.54.45h1.65a.64.64,0,0,0,0-.19c0-.26-.55-.54-1.1-.26Z" style="fill:#d4af3a"/><path d="M293.75,183.19a15.93,15.93,0,0,0,.36,1.55H345.9a15.29,15.29,0,0,0,.36-1.55H293.75Z" style="fill:#d4af3a"/><path d="M328.65,158.45c1.64,1.09,6.83,1.15,9.27,1.64s2.27,2.35,1.52,3.33-4.18,1.09-4.79,1.18a5.15,5.15,0,0,1,.83.95l1.41-.12A7.5,7.5,0,0,0,341,164a2.52,2.52,0,0,0,.06-3.82c-1.09-1.12-2.9-1.23-4.74-1.43s-3.27-.35-5.34-.69-3.07-1.18-3.07-2.38,1.12-1.84,1.92-2.07a5.33,5.33,0,0,1,3.24-.14,9.8,9.8,0,0,0,4.76.2,3.18,3.18,0,0,0,2.78-1.87,4.2,4.2,0,0,1-1.43.17c-1.15,0-2-.49-4.07-.52s-2.84.72-3.82,1.06-3.59.6-4.36,2.3.12,2.5,1.76,3.59Z" style="fill:#d4af3a"/><ellipse cx="315.04" cy="150.64" rx="0.98" ry="0.96" style="fill:#b96b29"/><path d="M336,152.28a12.67,12.67,0,0,0-3,.23,1.15,1.15,0,0,0,.75.23,9.57,9.57,0,0,1,2.47.17,3.2,3.2,0,0,0,2.18-.37s-1.12-.14-2.41-.26Z" style="fill:#b96b29"/><path d="M323.74,176.38c-.32-.5-.41-.45-.77-.13s-.73-.77-.77-1.45a22.35,22.35,0,0,1,.27-2.76s-1.77.36-2.71.68a26.06,26.06,0,0,1-2.62.59,4.07,4.07,0,0,1-1.58.27,11.56,11.56,0,0,0-1.95-.14c-.68,0-.63.14-1.31.81a5.75,5.75,0,0,0-1.4,2.31,13.45,13.45,0,0,0-.9,4,10.37,10.37,0,0,1-.44,2.06h8.11c.1-.26.22-.59.33-.83a2,2,0,0,1,1-.91c.32-.15.6-.15.74-.51a1.86,1.86,0,0,1,1-.85,3.15,3.15,0,0,1,1.85.11c.68.19.91-.28,1.1-.53s.28-.62.64-1.08a.79.79,0,0,0,.09-.89,2.58,2.58,0,0,1-.65-.72Z" style="fill:#1d5e91"/><path d="M336.75,176.6c-.11-.47-.06-.53-.34-.6a7,7,0,0,1-1.15-.32c-.4-.17-.36.91-.36.91a10.27,10.27,0,0,1-2,0,7.17,7.17,0,0,1-2.8-1.42,5.08,5.08,0,0,1-.93-1,4.23,4.23,0,0,1-.68.51c-.34.19-.53.87-.59,1.55s.79,1.51.85,2.19a5.67,5.67,0,0,1-1.15,2.59,10.34,10.34,0,0,0-.83,1.66h3.91a2,2,0,0,1,.42-.66,2.11,2.11,0,0,1,1.08-.49,1.61,1.61,0,0,1,.15-.53c.15-.36.55-.79,1.53-1.17a8,8,0,0,1,2.15-.45,4.41,4.41,0,0,0,.81-.91,2.48,2.48,0,0,0,0-1.8Z" style="fill:#1d5e91"/><path d="M304.15,219.77a3.12,3.12,0,0,0,2.77-1.12,25.63,25.63,0,0,0,1.41-2.82l.84-1.27a10.92,10.92,0,0,1-.75,2.81,10.31,10.31,0,0,0-.58,4.54c.29,1.8,1.46,2.09,2.14,1.85a5.28,5.28,0,0,0,2-2.18c.23-.38.39-.9.61-1.32.46-.87.88-2.31,1.08-2.27.45.09.16,1.1,0,1.78a29.26,29.26,0,0,0-1.07,4.57c0,1.22.1,3.4,1.31,3.5s1.85-1,2.53-3.45.83-3.26,1.12-3.26.29,1.7.29,2.43a12.42,12.42,0,0,0,.11,1.64,8.18,8.18,0,0,0,1,3.28,1.53,1.53,0,0,0,2.14,0c.58-.54,1.07-4.18,1.07-4.91s0-2.43.29-2.43.44.78,1.12,3.26,1.31,3.55,2.53,3.45,1.36-2.29,1.31-3.5a29.16,29.16,0,0,0-1.07-4.57c-.34-1.36.15-1.26,1.07.49.29.55.59,1.22.88,1.68a4.38,4.38,0,0,0,1.75,1.82c.68.24,1.85,0,2.14-1.85s-1.07-7-1.07-7l.58.88a25.21,25.21,0,0,0,1.41,2.82,3.12,3.12,0,0,0,2.77,1.12c.73-.24.83-1.61.29-4s-2.72-3.79-4.28-5.74a21.13,21.13,0,0,1-2.7-5.43,18,18,0,0,0-5.23,3.69c-3.22,3.36-3.92,4.2-3.92,4.2s-.7-.84-3.92-4.2a18,18,0,0,0-5.27-3.71,27.81,27.81,0,0,1-3,5.23c-.72.9-1.71,1.58-2.41,2.44a8.28,8.28,0,0,0-1.6,3.51c-.52,2.42-.42,3.78.31,4Z" style="fill:#d4af3a"/><path d="M304.06,228c.94-.83,1.43-1.29,1.43-1.29s.68-.57.51.51a15.74,15.74,0,0,0-.31,4.28c.23,1,.34,1.8,1.54,1.08a7.48,7.48,0,0,0,2.05-1.74c.57-.6,1.17-.85,1,.09a14.12,14.12,0,0,0-.37,4.28c.2,1.91,1.14,2.2,2.37.57a21.51,21.51,0,0,0,2.34-3.91c.37-.8,1.11-1.48,1.11,0,0,3.19.73,7.84,4.25,9.07,3.52-1.24,4.25-5.88,4.25-9.07,0-1.48.74-.8,1.11,0a21.59,21.59,0,0,0,2.34,3.91c1.23,1.63,2.17,1.34,2.37-.57a14.22,14.22,0,0,0-.37-4.28c-.14-.94.46-.69,1-.09a7.43,7.43,0,0,0,2.05,1.74c1.2.71,1.31-.11,1.54-1.08a15.86,15.86,0,0,0-.31-4.28c-.17-1.09.51-.51.51-.51s.48.46,1.43,1.29a4,4,0,0,0,2.23.88s.61-3.35-.79-5.35-1.91-2.65-1.91-2.65a5.5,5.5,0,0,1-1.39-.28,5.91,5.91,0,0,1-1.19-.67v1.85s1.71,1.63,2.11,2.11,1.2,1.31,0,.51-2.14-1.6-2.14-1.6-.23,1.68-.71,2.11a1.63,1.63,0,0,1-1.45.37l-.29-.12-.09.66a15.64,15.64,0,0,1,1.2,2.77c.14.8-.09.71-.57-.32s-1.43-2.34-1.85-3.05-1.06-1.2-1-.29a8.19,8.19,0,0,1-.63,3.17,3.56,3.56,0,0,1-.51.8s.65,2.31.74,2.74,0,.91-.34.37-1.43-2.82-1.43-2.82-1.4-.06-1.8-.46a9.41,9.41,0,0,1-1-1.94,12.31,12.31,0,0,1-1,2.6,6.38,6.38,0,0,1-1.58,1.26s-.08,3.42-.16,4-.11.87-.36.87-.28-.26-.36-.87-.16-4-.16-4a6.37,6.37,0,0,1-1.58-1.26,12.41,12.41,0,0,1-1-2.6,9.36,9.36,0,0,1-1,1.94c-.4.4-1.8.46-1.8.46s-1.06,2.28-1.43,2.82-.43.06-.34-.37.74-2.74.74-2.74a3.58,3.58,0,0,1-.51-.8,8.21,8.21,0,0,1-.63-3.17c.06-.91-.57-.43-1,.29s-1.37,2-1.85,3.05-.71,1.11-.57.32a15.7,15.7,0,0,1,1.2-2.77l-.08-.66-.29.12a1.64,1.64,0,0,1-1.46-.37c-.48-.43-.71-2.11-.71-2.11s-1,.8-2.14,1.6-.37,0,0-.51,2.11-2.11,2.11-2.11v-1.85a5.85,5.85,0,0,1-1.19.67,5.5,5.5,0,0,1-1.4.28s-.51.65-1.91,2.65-.79,5.35-.79,5.35a4,4,0,0,0,2.24-.86Z" style="fill:#d4af3a"/><path d="M321.23,250.32a12.17,12.17,0,0,1-1.2-1.58,12.21,12.21,0,0,1-1.2,1.58,28.71,28.71,0,0,1-3,2.71,10.71,10.71,0,0,0,1.2,4.29,11,11,0,0,0,3,3.31,11,11,0,0,0,3-3.31,10.7,10.7,0,0,0,1.2-4.29,28.76,28.76,0,0,1-3-2.71Z" style="fill:#d4af3a"/><path d="M319.57,253.73c.08.65,0,2.28.42,2.28s.34-1.63.42-2.28.11-2.2.11-2.2h-1.07s0,1.54.12,2.19Z" style="fill:#b96b29"/><path d="M320,100.87a33.73,33.73,0,0,1-10.61-1.36l-2.59.57c4,1.51,7.36,2.09,13.21,2.15s9.2-.64,13.21-2.15l-2.59-.57A34,34,0,0,1,320,100.87Z" style="fill:#d4af3a"/><path d="M333.68,97.73A28.23,28.23,0,0,0,331.22,96c-.45-.22-.1-.82,0-1.07s2-.8,3.08-1.07.89-.5.89-.5-.62-.72-4.5-1.15S320,91.92,320,91.92s-6.81-.1-10.68.32-4.5,1.15-4.5,1.15-.17.22.89.5,3,.82,3.08,1.07.42.85,0,1.07a27.91,27.91,0,0,0-2.46,1.69c-.3.25-.32.65.15.67a5.71,5.71,0,0,0,1.81-.25,64.79,64.79,0,0,1,23.45,0,5.74,5.74,0,0,0,1.81.25c.47,0,.45-.42.15-.67Z" style="fill:#d4af3a"/><path d="M329.27,99.37a54.88,54.88,0,0,0-9.27-.61,66.18,66.18,0,0,0-9.27.61c1.67.67,4.38,1,9.27,1s7.6-.34,9.27-1Z" style="fill:#d4af3a"/><polygon points="319.18 62.89 321.21 62.73 321.02 60.95 323.2 61.25 323.29 59.5 321 59.71 321.4 57.82 318.88 57.8 319.32 59.71 317.1 59.5 317.1 61.25 319.3 61 319.18 62.89" style="fill:#d4af3a"/><path d="M323.61,65.76h-2.73V63.44a4,4,0,0,0-.8-.08,4,4,0,0,0-.71.06v2.34h-2.82a3.06,3.06,0,0,0-.12,1.33h7.3a2.9,2.9,0,0,0,0-.4,3.6,3.6,0,0,0-.16-.94Z" style="fill:#d4af3a"/><path d="M320.08,70a3.66,3.66,0,0,0,3.48-2.28h-7A3.67,3.67,0,0,0,320.08,70Z" style="fill:#1d5e91"/><path d="M321.58,63.65v1.6h1.81a3.5,3.5,0,0,0-1.81-1.6Z" style="fill:#1d5e91"/><path d="M318.57,63.65a3.56,3.56,0,0,0-1.81,1.6h1.81Z" style="fill:#1d5e91"/><path d="M322.17,93.31c-.69-.32-2.19-1-2.19-1l-2.2,1.09c-.77.39-.67.28-.91.84s0,.76.36.92S320,96.6,320,96.6l3-1.41c.59-.28.48-.55.31-1s-.49-.57-1.17-.9Z" style="fill:#b96b29"/><polygon points="317.64 94.03 320.04 95.25 322.41 94.03 319.98 92.89 317.64 94.03" style="fill:#d4af3a"/><path d="M320,84.65a4.35,4.35,0,0,1-.47,1.21,1.39,1.39,0,0,0-.4,1.12.88.88,0,0,0,1.74,0,1.39,1.39,0,0,0-.4-1.12,4.71,4.71,0,0,1-.47-1.21Z" style="fill:#d4af3a"/><circle cx="320" cy="88.56" r="0.45" style="fill:#d4af3a"/><path d="M318.39,86.24a9.71,9.71,0,0,0,1.07-1.42c.29-.55.52-1,.52-1s.23.49.52,1a9.85,9.85,0,0,0,1.07,1.42,4.4,4.4,0,0,0,1.73-2.68c.64-2.11-.15-4.33-.43-6.72s-.52-6.52-.52-6.52a4.41,4.41,0,0,1-4.74,0s-.23,4.13-.52,6.52-1.07,4.62-.43,6.72a4.43,4.43,0,0,0,1.73,2.68Z" style="fill:#d4af3a"/><ellipse cx="319.98" cy="81.51" rx="1.89" ry="1.83" style="fill:#b96b29"/><ellipse cx="319.98" cy="77.22" rx="1.82" ry="1.76" style="fill:#b96b29"/><ellipse cx="319.98" cy="73.12" rx="1.74" ry="1.68" style="fill:#b96b29"/><ellipse cx="319.98" cy="81.18" rx="1" ry="0.97" style="fill:#d4af3a"/><ellipse cx="319.98" cy="76.9" rx="0.97" ry="0.93" style="fill:#d4af3a"/><ellipse cx="319.98" cy="72.82" rx="0.85" ry="0.82" style="fill:#d4af3a"/><path d="M319.93,224c.12,0,.14-.28.16-.84a25.52,25.52,0,0,1,.23-2.69c.14-.79-.21-.74-.42-.7s-.32.65-.32,1,.09,2.34.09,2.76.14.44.26.46Z" style="fill:#b96b29"/><path d="M300.28,239.41c.84-.53,1.57-1.13,3.48-2.39a7.86,7.86,0,0,0,2.61-2.67h-.67c-.36,0-.67-.51-.7-1a18.4,18.4,0,0,1,.14-2.76,5.53,5.53,0,0,0-.2-2.19,10.36,10.36,0,0,1-2,1.41c-1.23.65-1.74.34-1.74.34l-.31-1.24s-.53,1.13-1.29,2.45-2.8,2.79-4.26,3.88a19.21,19.21,0,0,1-4.26,2.67c-1.21.42-.5,1-.5,1a8.49,8.49,0,0,0,4.32,1.77,6.47,6.47,0,0,0,5.44-1.24Z" style="fill:#d4af3a"/><path d="M311.17,238.2a1.92,1.92,0,0,1-2-1.74,30.75,30.75,0,0,1,.06-3.8,7.13,7.13,0,0,0-.79.82,2.47,2.47,0,0,1-1.37.62,5.75,5.75,0,0,1-.56,1.1,6.19,6.19,0,0,1-2,2.17,33.62,33.62,0,0,0-3.11,2.14,18.78,18.78,0,0,1-2.83,2.05,4.66,4.66,0,0,0-2.39,3.12c-.36,1.57-.08,2.08,1.15,2a12.05,12.05,0,0,0,3.37-.48c2-.51,4.82-2.73,6.9-4.05a13.21,13.21,0,0,0,3.59-3.94Z" style="fill:#d4af3a"/><path d="M316.69,240a7,7,0,0,1-1.15-2.28c-.31-1.21-.9-3.6-.9-3.6s-.28.76-1,2.19a3.27,3.27,0,0,1-1.82,1.77,4.19,4.19,0,0,1-1,1.83,14,14,0,0,1-3.79,3.18,14,14,0,0,0-4.29,3.43c-1,1.43-1.09,2.93-.62,3.57s1.15-.09,2.1-.56,3.67-.9,7.43-2.93,5-6.61,5-6.61Z" style="fill:#d4af3a"/><path d="M318.32,248.44c1-1.55,1.21-5.32,1.21-5.32s-.36-.25-.87-.68a13.53,13.53,0,0,1-1.49-1.91s-.62,1.29-1.29,2.5a9.4,9.4,0,0,1-2.41,2.93c-1.4,1.29-3.31,2.56-4.12,3.94s-.36,4.13.17,5.06,1.29.62,2.08-.14,1-1,2.41-2.14a24.74,24.74,0,0,0,4.32-4.25Z" style="fill:#d4af3a"/><path d="M306,216.89a27,27,0,0,1,1.68-3.19,10,10,0,0,0,.86-1.49,13.3,13.3,0,0,0-1.87,2.09,9.39,9.39,0,0,0-1.1,2.64C305.31,217.87,305.43,218,306,216.89Z" style="fill:#b96b29"/><path d="M311.31,217.85c.22-.74.34-1.24.34-1.24s.22-.72.1-.77-.67.45-1.06,1.67a16.92,16.92,0,0,0-.84,3.07,10.37,10.37,0,0,0,1.46-2.73Z" style="fill:#b96b29"/><path d="M315.51,221.23a6,6,0,0,0,.24-.55,13.79,13.79,0,0,0,.43-1.68c0-.29-.14-.62-.5.1a5.92,5.92,0,0,0-.46,1.73c-.07.31-.48,1.39-.36,1.49s.41-.55.65-1.08Z" style="fill:#b96b29"/><path d="M302.47,234l-.56-.34a12.12,12.12,0,0,1-.81,1c-.48.51-1,.7-1.37,1.18a5.3,5.3,0,0,1-1.8,1.52c-.87.45-1.21.59-1,.73s.76-.2.76-.2a4.89,4.89,0,0,0,1.29-.65,10.13,10.13,0,0,0,2-1.55A19.33,19.33,0,0,0,302.47,234Z" style="fill:#b96b29"/><path d="M307,239.41c.39-.42.81-.7.59-.93s-.51-.2-.87.11-1.4,1.29-1.88,1.72-.87.68-1.35,1a21.28,21.28,0,0,1-2,1.21c-.51.28,0,.31,0,.31a7,7,0,0,1,.81-.34c.42-.14,1.63-.68,1.63-.68a8.61,8.61,0,0,0,1.12-.68,16.14,16.14,0,0,0,2-1.77Z" style="fill:#b96b29"/><path d="M312.26,243c.34-.67,0-.48-.59-.25s-1.82,1.6-2.55,2.11a13.47,13.47,0,0,1-2,1c-.62.31-.62.48-.59.62s.28.14.53,0,1.12-.62,1.12-.62a4.06,4.06,0,0,1,.7-.14c.34,0,.81-.4,1.57-1s1.43-1,1.77-1.72Z" style="fill:#b96b29"/><path d="M314.7,247.85a9.71,9.71,0,0,0-2.95,2.67c-.42.85-.7,1.43-.56,1.57s.59-.14.79-.48a8.28,8.28,0,0,1,.62-.84,23.61,23.61,0,0,1,2.19-1.94,5.55,5.55,0,0,0,1.77-2,1.29,1.29,0,0,0,.06-1,8.4,8.4,0,0,1-1.91,2Z" style="fill:#b96b29"/><path d="M290,113.28a14.87,14.87,0,0,0-5.56-1.68,17.16,17.16,0,0,0-6.32.7,7,7,0,0,1-3.77.14,5.23,5.23,0,0,1-3.54-4,3.6,3.6,0,0,0,0,4.28,4.81,4.81,0,0,0,2.86,2c3.4.68,6.73-1.39,9.56-1.57a7.73,7.73,0,0,1,4.85,1.55,1.36,1.36,0,0,0,1.55,0C290.57,114.18,290.84,113.78,290,113.28Z" style="fill:#c52126"/><path d="M280.2,211.66l-.8-.1a10.06,10.06,0,0,1-1.77-.54.93.93,0,0,0-1.07.17,29.81,29.81,0,0,1-2.74,1.78h4a3.25,3.25,0,0,0,2.34-1.31Z" style="fill:#d4af3a"/><path d="M291.59,211v-.4l-.54-1.16a7.47,7.47,0,0,0-1.24,1,31.46,31.46,0,0,0-2,2.46c-.67.86-1.62,1.68-.81.3s1.08-2,1.72-2.89,1.13-1.32,1.05-1.38a15.49,15.49,0,0,0-2.29-.35,8.54,8.54,0,0,1-3.53-1.32c-.78-.46-2.18-1.21-2.18-1.21s-2.88,1.21-4,1.49-1.72.43-.67.95,1.94.68,2.45,1a7.79,7.79,0,0,0,3.07.84c1,0,2.61,0,2,.7a11.6,11.6,0,0,0-2.07,3.94,13.5,13.5,0,0,0-.73,4.59,16.09,16.09,0,0,0,.11,1.73,22.24,22.24,0,0,1,4.36-3.32,56.11,56.11,0,0,1,5-2.95c.59-.27.89-.27.78-1s-.43-2.62-.43-3Z" style="fill:#d4af3a"/><path d="M303.73,201.31l-.59-.27-.15.05a10.47,10.47,0,0,0-3.1,2.76c-.78,1.27-1.57,1.38-.71,0a11.94,11.94,0,0,1,2.16-2.76c.26-.23.49-.42.68-.57a35.56,35.56,0,0,1-4.89-2.8,7.49,7.49,0,0,1-1.08,1.66,7.63,7.63,0,0,1-2.16,1.31,10,10,0,0,0,1.6-2.16,9.61,9.61,0,0,0,.52-1.62,21.09,21.09,0,0,1-3.21-3.07,11.85,11.85,0,0,1-2.76,4.91c-2.5,2.8-7.5,4.21-7.5,4.21s-1.75.19-.33.56a9.05,9.05,0,0,0,5.18.52,20.88,20.88,0,0,0,3.32-.71c.37-.11,1.38,0,0,.48a19.31,19.31,0,0,1-5.82.9c-1.23-.11-2.91-.37-1.16.56s2.5,1.3,3.58,1.3,1.53.34,2.57.34a7.64,7.64,0,0,0,2.09-.34c.75-.15,1.23.11,1.23.41a5.87,5.87,0,0,0-1,3.17,17.55,17.55,0,0,0,.37,4,15.53,15.53,0,0,0,.93,2.13c.3.56.41,1.12.71-.07s1-2.91,1.23-4.06.41-1.19.52-1.79.75-1,.45,0-.63,2.46-.86,3.43-.75,2.76.15,1.34,4.25-5.18,4.81-5.85,1-1.31,1.42-1.86,1.57-1.31,2.13-2.13a19,19,0,0,1,2.62-2.7c-.95-.4-2-.82-3-1.3Z" style="fill:#d4af3a"/><path d="M257.37,115.23c.09,2.06,2.36,6,3.66,8.09s1.65,2.95,1.43,3.08-.76-.94-1.47-1.87-2.1-3.13-3.26-4.78a61.22,61.22,0,0,1-3.08-5.94c-.22-.36-.31-.58-.89-.14s-1.7,4.78-.36,7.73a26.15,26.15,0,0,0,4.19,6.12c.85,1,2,2.64,1.78,2.77s-.49-.27-1.52-1.34-2.72-2.9-3.84-4.24a31.69,31.69,0,0,1-2.57-4.09c-.16-.3-.37-.22-.53-.06-.37.37-1,1.23-.7,3.57.36,3.26,2.05,5.14,3.57,6.79s3,3,2.81,3.26-1.78-1.16-2.85-2.19-3.7-3.57-4.28-4.29-1.43-.36-1.38,2.46,3.17,5.67,4.46,7.24,2.9,2.5,2.77,2.81-1.43-.49-2.27-1.07-4-2.64-4.64-3.08-.94.4-.13,3.08a12.18,12.18,0,0,0,4.51,5.81c1.38,1,3.61,2.19,3.48,2.5s-1.07-.09-2.36-.72a26.26,26.26,0,0,0-4-1.52c-1.12-.31-1.12.49-1.12.49a5.81,5.81,0,0,0,1.43,4.11,8.86,8.86,0,0,0,5.31,2.86c1.78.31,2.05.4,2,.67s-.22.31-.62.31-2.05.18-3.57.18-2.32.36-2.32,1,0,1.56,2.23,3.08a14.79,14.79,0,0,0,5.89,2c1.07.22,1.11.31.89.63s-.71.27-2.41.45-2.72.85-2.94,1.29.13,1.79,1.52,2.73,3.17,1.25,5.84,1.07,3.35-.22,3.43.22-.8.58-2.14.8-2.36.22-3.12.85-.18,1.92,1.11,2.86,4.51.94,5.84.85,3.39-.58,3.52-.22-1,.9-2.36,1.38-1.79.8-2.05,1.39,0,1.12,1.61,1.74a8,8,0,0,0,5.31,0c1.25-.58,1.92-.8,2.14-.58s0,.45-.27.76a6.15,6.15,0,0,1-2.72,1.52c-1.38.36-1.52.36-2,1.47s.76,2,3.26,2.1a16.53,16.53,0,0,0,6.92-1.52c1.07-.63,1.47-.76,1.65-.54s.13.36-.4.76a13.67,13.67,0,0,1-3.08,1.83c-.85.22-.94.85-.94,1.43s-.22,1.74,2,2.28a9,9,0,0,0,7.27-1.56,5.5,5.5,0,0,0,1.48-1.39,18.65,18.65,0,0,1,.18-5.29,8.81,8.81,0,0,1-2.29-.55,4.3,4.3,0,0,1-2.19-2.46c-.31-.67-.76-.67-1.29-.49a4.42,4.42,0,0,1-1.83.36,5.26,5.26,0,0,1-3.52-1.83,4.73,4.73,0,0,1-1-3.4c0-.67-1.11-.18-1.65-.18a7,7,0,0,1-3.52-1.21,3.82,3.82,0,0,1-1.56-2.86,1.85,1.85,0,0,0-1.16-1.07,6.38,6.38,0,0,1-2.14-1.16,4.76,4.76,0,0,1-1.38-2.9c0-.54-.62-.58-2.63-1.61s-1.83-3.17-1.74-4,1-1.56,1-1.88-.67-.4-1.34-.8a3.8,3.8,0,0,1-2.41-3.57c0-2.5,1.61-2.77,1.61-2.77a9.65,9.65,0,0,1-1-.54c-.67-.4-2.5-1.65-2.5-3.13a2.83,2.83,0,0,1,1.16-2.5,8,8,0,0,1,1.83-.71,3.24,3.24,0,0,1-1.2-1.7,3.86,3.86,0,0,1,.36-3.62,3.77,3.77,0,0,1,3-1c.76,0,1.43.4,1.7.18s.31-.4,0-1a4.38,4.38,0,0,1-.09-2.5,2.79,2.79,0,0,1,2.19-2.1c1.92-.62,3.92.67,4.55,1s.36-.49.36-1.12-1.29-2.19-2.77-4.42a48.74,48.74,0,0,1-3.79-6.79,43.78,43.78,0,0,1-2.94-8.89c-.22-1.12-.67-.58-.67-.58s-.45.18-1.47,2.77a16.66,16.66,0,0,0-1.11,7Z" style="fill:#d4af3a"/><path d="M291,160.92a5,5,0,0,1-3.79-2.36c-1.15-1.67-2.87-2.07-5.86-2a4.75,4.75,0,0,1-5.11-3.45c-.75-2.07.11-4.43,3.16-5.93s4.42-3.16,4.54-5.75-3-5.81-6.2-9.44a45.91,45.91,0,0,1-5.63-8.75,4.73,4.73,0,0,0-.92,2.42c0,1.21.46,2.47,0,2.82s-.63-.52-2.47-1.32-3.33-.92-4.48.4,0,3.63,1,4.72,1.9,1.9,1.61,2.3-1.84-.63-2.36-1-1.72-1.67-3.51-1.5-2.41.69-2.59,2.19,1.61,2.82,2.76,3.4,1.61,1.09,1.32,1.32-.58,0-1.09-.17a5.35,5.35,0,0,0-2.87,0c-.92.35-2.41,1.61-1,3.16s4.25,2.13,4.83,2.24.86-.06.92.4-1.21.46-2.76.52-2,1.55-1.78,2.7,2.82,2.42,4.25,2.65,2,0,2.07.4-.17.57-1,.81-2.36.4-2.64,1.67a2.38,2.38,0,0,0,.86,2.94,4.72,4.72,0,0,0,3.73.8c.58-.11,1.27-.75,1.84-.17s-.52,1-1.49,1.73-.92,2,.75,2.94a5.12,5.12,0,0,0,4,.35c.69-.23,1.61-1.32,2.07-.63s-1.44.92-2.24,1.9-.52,2.59,1.09,3.57a5.37,5.37,0,0,0,4.71-.11c.46-.4,1-.57,1.38-.23s-.17,1.26-.52,2.07-1,3.16,1.44,4.09,4.6-1.15,5-1.55a1,1,0,0,1,1.15-.29c.34.17.17.52-.11.92a2.44,2.44,0,0,0,.8,3.34,4.23,4.23,0,0,0,3.16.64c.36-1.35.83-2.79,1.3-4.8H290c-.23,0-.28.35-.28.48s.07.25-.14.25-.23.12-.53.32-.58.46-.74.35.62-.53.83-.78.62-.65.64-.92.16-.44.58-.78a1.56,1.56,0,0,0,.31-.36c.28-1.34.55-2.91.8-4.82.17-1.29.26-2.51.3-3.64l-.76,0Z" style="fill:#d4af3a"/><path d="M241.91,125.05a26.16,26.16,0,0,0,6.19,8.12s-.48-1.29-.69-2.18a5.62,5.62,0,0,1,0-1.89s-.91-1.17-2.59-3.76a23.89,23.89,0,0,1-2.57-6.42,57.34,57.34,0,0,0,2.78,5.86,31.4,31.4,0,0,0,2.62,3.69s.49-1.8.84-1.89.61.19.91.58.56.36.56.36-.41-.86-1.05-1.89c-.29-.47-.71-1-1-1.44a39.52,39.52,0,0,1-4.08-7.26c-1.06-2.87-3.37-10.08-3.78-12.2s-.8-1-1.21.61a18.42,18.42,0,0,0-.6,7.11,35.69,35.69,0,0,0,3.73,12.6Z" style="fill:#d4af3a"/><path d="M245.23,139.07c1,.71,2.37,1.66,2.37,1.66a7.41,7.41,0,0,1-.36-1.15,15.46,15.46,0,0,1-.2-1.91L245.12,136a27.83,27.83,0,0,1-3.72-4c-1.95-2.42-.38-1,1.21.77a60.21,60.21,0,0,0,4.63,4.25s0,0,0-.56a2.08,2.08,0,0,1,.46-1.27c.28-.36.13-.41-1.58-1.72a49.3,49.3,0,0,1-8-9.28c-1.81-3-3.78-7-3.78-7a21.19,21.19,0,0,0,2.67,12.5C240.7,136.25,244.27,138.36,245.23,139.07Z" style="fill:#d4af3a"/><path d="M264.25,176.6a2.3,2.3,0,0,0,1.44-2.76s-1.22.39-2.34.8a23.8,23.8,0,0,1-5,1.25c-1.09,0-1.09-.13-1.12-.29s.83,0,2.4-.29a19.61,19.61,0,0,0,4.8-2.05c.48-.32.42-.39-.29-.45a3,3,0,0,1-1.57-.61c-.26-.23-1,.1-2.79.51a43.19,43.19,0,0,1-8.36,1.06,33.2,33.2,0,0,1-6-.58c-.45-.1-.93.16.45,2.47s6.21,3.56,9.58,3.53,6.73-1.83,8.71-2.6Z" style="fill:#d4af3a"/><path d="M255.31,171.83c3.47,0,4.76-1,4.76-1s0-.18-.47-.88a3.64,3.64,0,0,1-.38-1.91s-.82.15-2.27.35a15.38,15.38,0,0,1-5,.09c-1.85-.32-1.06-.53.41-.35a16.2,16.2,0,0,0,5.21-.68c.91-.32.53-.62-.09-.83a18.5,18.5,0,0,1-2.29-1.27,39.63,39.63,0,0,1-8.12.09,47,47,0,0,1-7.18-1.56c-.79-.12-.76.21-.76.21s-.21.35,1.15,2.47a11.22,11.22,0,0,0,6.24,4.15,33.54,33.54,0,0,0,8.76,1.12Z" style="fill:#d4af3a"/><path d="M254.42,163.7a3.5,3.5,0,0,1-.35-.91,1.3,1.3,0,0,1,.38-1.24,25.92,25.92,0,0,0-3.38-.56,27.55,27.55,0,0,1-4.32-.88c-1.59-.35-2.65-.82-2.62-1s.53.09,1.47.44a64.71,64.71,0,0,0,6.59,1c1.68.24,2.62.41,2.91.24a8.41,8.41,0,0,1,1.32-.44,16,16,0,0,0-1.59-.35,5.61,5.61,0,0,1-2.15-.85c-.47-.32-.62-.41-2.74-.65s-3.82-.91-7.62-2.3a32.43,32.43,0,0,1-7.41-3.65c-.76-.62-.71-.18-.5.62a7.33,7.33,0,0,0,2.09,4c1.91,2.24,2.85,3.21,7.67,5a30.23,30.23,0,0,0,10.24,1.53Z" style="fill:#d4af3a"/><path d="M240.16,151.95a27,27,0,0,0,10.32,4.24c.24-.28-.26-1.28,0-1.88s.74-.74,1.76-.79.35-.27.12-.27a10.42,10.42,0,0,1-2-.47,46.44,46.44,0,0,1-5.79-1.59c-2.35-.88-3.06-1.53-3-1.71s1.09.56,3.26,1.38a39.09,39.09,0,0,0,6.09,1.44c1.38.29.18-.3-.47-.68a7.6,7.6,0,0,1-1.56-1.8,36.77,36.77,0,0,1-4-1,32.52,32.52,0,0,1-6.68-2.8,25,25,0,0,1-2.16-1.47l-3.43-2.48c-.85-.62-.59-.12-.5.26a14.27,14.27,0,0,0,2,4.09C235.46,148.36,235.9,148.95,240.16,151.95Z" style="fill:#d4af3a"/><path d="M239.46,143.5a28.13,28.13,0,0,0,8.44,4.62c.62.27.56-.09.44-.44a10.81,10.81,0,0,1-.21-1.5L245,144.35c-1.68-1-3.53-2.3-4.76-3.15s-.5-.79-.12-.47,2.09,1.33,3.79,2.39,4.29,2.59,4.29,2.59a1.71,1.71,0,0,1,.41-.91c.35-.35,1.23-.26,1.23-.26a6.28,6.28,0,0,1-.71-.85c-.26-.41-1.65-.85-3.21-1.59a38.48,38.48,0,0,1-6.41-4.53,83.89,83.89,0,0,1-6.32-6.45c-.26-.35-.44-.29-.47.15A6.53,6.53,0,0,0,233,134,18.43,18.43,0,0,0,239.46,143.5Z" style="fill:#d4af3a"/><path d="M254.34,112c.48,1,1,1.74,1.38,2.38.57,1,.89,1.61.89,1.61a2.16,2.16,0,0,0,0-.93,7.34,7.34,0,0,1,0-2.36,7.26,7.26,0,0,0,.17-1.49,6.56,6.56,0,0,0-.28-1.27c-.14-.56-.74-3-1-4.75a38.79,38.79,0,0,1-.58-6.39c0-2.18.34-1.08.34,0a40.7,40.7,0,0,0,.45,5.18,60.47,60.47,0,0,0,1.39,6.3,6.56,6.56,0,0,1,.38-1.42c.32-.83.83-1.78,1.24-2.81s.26-1.21.26-1.21-1.48-7.07-1.86-10.41-1-12.12-1-12.12c-2.16,2.17-3.77,7.89-4.05,13.3a49.16,49.16,0,0,0,.63,9.38,23.78,23.78,0,0,0,1.7,7Z" style="fill:#d4af3a"/><path d="M249.55,123.18c.07-1.6.43-2.81,1.47-3.17a25.92,25.92,0,0,1-1.71-3.88,30.53,30.53,0,0,1-1.23-5.11c-.56-3.79-1-7.69.11-1.3s2.48,8.65,2.48,8.65l1.64,2.66a11.53,11.53,0,0,1-.22-3.26,21,21,0,0,1,.61-4.37,50.38,50.38,0,0,1-3.22-8.71,54.61,54.61,0,0,1-2-11.64c-.11-2.49-.17-3.45-.17-3.45s-2,1.53-2.71,9.27a45.94,45.94,0,0,0,2.37,18c1,2.82,2.54,6.33,2.54,6.33Z" style="fill:#d4af3a"/><path d="M271.71,182.24s-.32-.22-1.28-.83-.67-2.44-.67-2.44-.26.19-1,.67a12.85,12.85,0,0,1-2.47,1.41c-1,.39-1.44.64-2,.83s-.45-.06.06-.35a10.64,10.64,0,0,1,2-1,21.71,21.71,0,0,0,3.84-2.76s-.61-.06-1.67-.1a8.56,8.56,0,0,1-2.4-.58s-1.06,1-5.32,2.79a33.34,33.34,0,0,1-7.88,2.31,4.21,4.21,0,0,0,2.5,2.92c1.7.74,4,1.19,8.62.1a29,29,0,0,0,7.72-3Z" style="fill:#d4af3a"/><path d="M277.32,186.61a3.91,3.91,0,0,0-.67-3.05,6.49,6.49,0,0,0-.86.71,13,13,0,0,1-3.36,2.57c-1.79.9-2.43.83-.7-.1a24.35,24.35,0,0,0,4.26-3.56l-.67-.26c-.67-.26-1.83.19-6.63,3.08s-7.62,3-7.62,3,2.15,2.6,8,2.41,7.95-3,8.3-4.78Z" style="fill:#d4af3a"/><path d="M288.34,184.52a6.73,6.73,0,0,1-1.51,1.48,11.18,11.18,0,0,1-3.17.93,3.87,3.87,0,0,1-.54.83,14,14,0,0,1-2.47,2.7c-1,.74-2.63,1.22-2.72,1s.93-.58,1.92-1.19a12.68,12.68,0,0,0,2.56-2.5c.67-.77-.29-.64-.29-.64s-1.22,0-2.34-.06-.9,0-1.22.55a15.22,15.22,0,0,1-1.6,2c-1,1.17-2,2.24-2.95,3.4-.64.77-.16,1-.16,1s.29.48,2.88.77a8.17,8.17,0,0,0,5.16-1.08,15.59,15.59,0,0,0,3.49-3c3.11-3.4,2.95-6.19,2.95-6.19Z" style="fill:#d4af3a"/><path d="M289.72,191.54a13.41,13.41,0,0,1-1,1.19,13.52,13.52,0,0,1,.83-2c.2-.34.43-.67.59-.89a17.27,17.27,0,0,1-1-3.12,26.29,26.29,0,0,1-2.27,5.39c-1.34,2.15-2.53,2.92-1.76,3.49s2.27.71,4-.13a4.37,4.37,0,0,0,2.35-3.35c-.29-.45-.56-.91-.81-1.39a3.34,3.34,0,0,0-.87.83Z" style="fill:#d4af3a"/><ellipse cx="289.34" cy="105.75" rx="1.19" ry="1.09" style="fill:#d4af3a"/><path d="M286.83,103.69c1.09,0,1.67-.54,2.87-.43a17.48,17.48,0,0,1,5.67,2.2,9.71,9.71,0,0,0,6.55.57,9.33,9.33,0,0,0,1.91-.89,4.54,4.54,0,0,0,2.15-4.77,11.12,11.12,0,0,1-7.09,2.16,6.67,6.67,0,0,1,.59.55c.41.41,1.17.89.92,1.1s-1.28-.78-2.15-1.42a12.92,12.92,0,0,0-4.34-2.15c-2.2-.64-4.66-.69-6.31.23s-1.78,2.07-1.55,2.52A.78.78,0,0,0,286.83,103.69Z" style="fill:#d4af3a"/><path d="M317.64,126.8a5,5,0,0,1-2.51-1.33,47.76,47.76,0,0,1-4.21-4.63c-.32-.55-.18-1.06.6-1.38a3.35,3.35,0,0,0,1.33-1.33,14.67,14.67,0,0,1-2.83-1.47,29.51,29.51,0,0,1-4.16-3.81c-.37-.6-.18-.69.37-.87a1.07,1.07,0,0,0,.69-.55s-1.23-.78-2.38-1.7-2.7-2.43-2.7-2.43c-1.71.69-4.4.4-5.85.14a15.54,15.54,0,0,1-4.43-1.51,8.34,8.34,0,0,1-.41,1.19,1.77,1.77,0,0,1-2.7.46,2.65,2.65,0,0,1-.92-2.48,18.08,18.08,0,0,0-2.93-1.33,6.35,6.35,0,0,0-5.17-.09c-1.6.73-2.38,2.93-2.38,4.59s.87,1,1.05.73a3.11,3.11,0,0,1,2.56-1.74c2-.32,3.84.64,6.13,2.52a43.87,43.87,0,0,1,3.93,3.21c1.14,1.19.23,1.83-1.74,2.48s-4.48-.64-4.57-.6c-.38.19.85,1.94,2.54,2.6a8,8,0,0,0,5.55-.44c1.14-.46,1.36,0,1.69.37a9.7,9.7,0,0,1,2.65,6,2.7,2.7,0,0,0,1.74-2c.06-.37.18-1.19.82-.6s1.14,3.9,1.14,5.41a19.59,19.59,0,0,1-.46,3.53l.46,0a7.75,7.75,0,0,0,1.55-.78c.73-.41.78,0,.78.87a15.73,15.73,0,0,0,1.37,5.18,7.41,7.41,0,0,0,2.7,3.71,8,8,0,0,0,.64-1.65,22.06,22.06,0,0,0,.55-5.14c0-1.88-.5-5.92-.5-5.92s2.29,2.8,4.66,3.49,4.76.27,5.76-.87.09-1.65-.42-1.79Z" style="fill:#d4af3a"/><path d="M302,134a21.11,21.11,0,0,1-1.12,2.17,2.23,2.23,0,0,1-.57.66,5.6,5.6,0,0,0,1.77.94c1.05.33,2,.52,2,.52a14.84,14.84,0,0,1-1.6-2.76A10.63,10.63,0,0,1,302,134Z" style="fill:#d4af3a"/><path d="M316.28,133.1c-.35-.9-.57-1.4-.57-1.4a10,10,0,0,1-5.43-1.12,10,10,0,0,0,2.19,3,8.72,8.72,0,0,0,1.25.81s-1.09.18-2.56-1.27A10.11,10.11,0,0,1,309,130a24.23,24.23,0,0,1-.26,6.22c-.59,2.36-.72,2.67-.72,2.67a16.51,16.51,0,0,0,6.57-.42c3.46-1,3.72-1.27,3.72-1.27s.42-.11-.13-.83a18.68,18.68,0,0,1-1.92-3.28Z" style="fill:#d4af3a"/><path d="M310,124.64a7.73,7.73,0,0,1-1.17-1.52.73.73,0,0,0-.05.9,11.11,11.11,0,0,0,2.87,2.44,7.4,7.4,0,0,0,2.07.77l-.05-.21A13.45,13.45,0,0,1,310,124.64Z" style="fill:#b96b29"/><path d="M305.78,132.67s-.27-4.84-.27-5.56-.45-.53-.45-.53l-.53.24,1,7.08c.11.76.49.7.68.66-.38-.2-.45-1.67-.47-1.89Z" style="fill:#b96b29"/><path d="M299.25,111.72c-.39-.39-1.28-.69-.43.26a11.36,11.36,0,0,1,2.3,3.13c.33,1,.53,2.2,0,1.94a5.18,5.18,0,0,1-1.55-.76,9.85,9.85,0,0,0-2.17-1.45c-.46-.13-1.28,0-.62.72a16.52,16.52,0,0,0,2.63,2.34c1.25.92,2,1.32,2.63,1.78s1.32.86,1.32.86-.59-3.95-1.68-5.69A17.52,17.52,0,0,0,299.25,111.72Z" style="fill:#b96b29"/><path d="M277.91,177.87a5.67,5.67,0,0,1-1.85.86s-.5,0-.5.17.58,0,1.19-.11a5.43,5.43,0,0,0,1.74-.94c.3-.22.75-.5.61-.89s-.39.3-1.19.91Z" style="fill:#b96b29"/><path d="M284.8,181.56c-.17.19-1.49,1.19-1.49,1.19a4.88,4.88,0,0,1-.86.44,1,1,0,0,0-.55.42s.08.11.55,0a11.23,11.23,0,0,0,2.3-1.5c.44-.39.64-.5.47-.66s-.25-.05-.42.14Z" style="fill:#b96b29"/><path d="M256.87,131.93c.25.3.55.71.69.58s0-.27-.36-.66-.52-.58-.52-.58a8.32,8.32,0,0,0-.74-1c-.27-.27-.69-.41-.16.22S256.62,131.63,256.87,131.93Z" style="fill:#b96b29"/><path d="M254.75,136.58c.3.28.58.52.91.88s.58.74.77.55-.49-.6-.8-1a5,5,0,0,0-.94-.94,6.64,6.64,0,0,0-.85-.55,12.58,12.58,0,0,0,.91,1Z" style="fill:#b96b29"/><path d="M255.54,144.09c.53.55,1.3.72,1.41.5s-.05-.4-.5-.62a15.89,15.89,0,0,1-1.51-.94,7.61,7.61,0,0,1-1-.77c-.25-.25-.54-.47-.63-.39s.73,1,1,1.11a7.08,7.08,0,0,1,1.22,1.11Z" style="fill:#b96b29"/><path d="M257.06,150.1c0-.22.05-.33-.39-.36s-1.05-.11-1.05-.11-.86-.33-.91-.17.72.5,1.05.55a3.54,3.54,0,0,1,.94.27c.2.11.36,0,.36-.19Z" style="fill:#b96b29"/><path d="M257.72,156.63c-.94,0-1.74-.22-1.8-.08s.44.36.91.53a8.38,8.38,0,0,0,2,.25c.61,0,.72-.11.69-.41S258.66,156.63,257.72,156.63Z" style="fill:#b96b29"/><path d="M265.08,163.78c-.14-.14-.47,0-1,.08a9,9,0,0,1-1.88.25l-1.58-.06-.61.14c0,.14.8.11,2,.25a7.51,7.51,0,0,0,2.49-.19c.55-.08.75-.33.61-.47Z" style="fill:#b96b29"/><path d="M268.12,168.87a3.73,3.73,0,0,1-1.44.28,12.65,12.65,0,0,0-1.49.19s-.5.06-.42.25.25,0,.69-.06.77,0,1.55,0a9,9,0,0,0,1.69-.3c.47-.08,1-.33.75-.64s-.75.08-1.33.31Z" style="fill:#b96b29"/><path d="M274,172.72a18.59,18.59,0,0,1-1.6,1.19,4.87,4.87,0,0,1-.75.44c-.5.25-.47.36-.39.5s.39-.19.66-.3a10.9,10.9,0,0,0,1.66-1.11c.47-.39,1.08-.69,1-1s-.22-.08-.55.25Z" style="fill:#b96b29"/><path d="M264.19,122.87a11.45,11.45,0,0,0,1.13,1.53c1,1.28.48.07.22-.25s-1.75-2.44-2.26-3-.58-.29-.33.07S264.19,122.87,264.19,122.87Z" style="fill:#b96b29"/><path d="M262,129.43c.15-.15-.18-.29-.77-1s-1.75-2.22-1.75-2.22-.33-.69-.44-.62a3.39,3.39,0,0,0,.88,1.64c.48.47,1.09,1.39,1.42,1.79s.51.58.66.44Z" style="fill:#b96b29"/><path d="M264.87,141.73c0-.36-1.15-.3-1.68-.41l-1.46-.3s-1.1-.19-1.13-.05.22.27.83.39,1.51.38,2.2.49,1.24.25,1.24-.11Z" style="fill:#b96b29"/><path d="M262,135.09a10.2,10.2,0,0,0,1.68,1.13c.4.22.73.55.95.29s-.18-.44-.84-.73a5.15,5.15,0,0,1-1-.55l-.69-.37c-.33-.18-.88-.4-.11.22Z" style="fill:#b96b29"/><path d="M268.64,130.71a6,6,0,0,0-.88-.62s-.58-.55-.69-.37.66.73,1,1.06,1,1.28,1.35,1.1S269.11,131.11,268.64,130.71Z" style="fill:#b96b29"/><path d="M264.33,147.85l-1.05.28c-.41.11-.44.31.3.31a8.1,8.1,0,0,0,1.8-.33c.75-.14,1-.22.89-.47s-.5-.17-.8-.08Z" style="fill:#b96b29"/><path d="M265.49,154.06c-.05.14.52,0,.91-.14s1.19-.55,1.66-.69.47-.22.47-.5-.5-.06-1.11.14a5.69,5.69,0,0,0-1.38.8s-.5.25-.55.39Z" style="fill:#b96b29"/><path d="M273.48,157.82c.55-.33.67-.58.47-.75s-.36-.14-.8.22-1.3,1-1.3,1-.44.17-.77.33-.75.44-.64.61.8,0,1.16-.3a21.63,21.63,0,0,1,1.88-1.08Z" style="fill:#b96b29"/><path d="M277.25,162.81c.22-.2.88-.41,1.19-.64s.5-.89.25-1-.39.28-.91.66-2.32,1.58-2.32,1.58l-.47.19c-.5.19-.28.33.14.28a2,2,0,0,0,1.19-.44C276.81,163.09,277,163,277.25,162.81Z" style="fill:#b96b29"/><path d="M282.83,167.54a6.76,6.76,0,0,0,1.49-1.11c.33-.31.75-.69.5-.89s-.52.06-.91.41-1.41,1.44-1.41,1.44a2.54,2.54,0,0,0-.69.47c-.55.44,0,.36.22.17a2,2,0,0,1,.8-.5Z" style="fill:#b96b29"/><polygon points="305.58 96.59 307.83 94.99 305.18 94.31 303.48 95.67 305.58 96.59" style="fill:#d4af3a"/><ellipse cx="312.78" cy="94.72" rx="2.15" ry="2.07" style="fill:#b96b29"/><ellipse cx="312.78" cy="94.28" rx="1.3" ry="1.24" style="fill:#d4af3a"/><path d="M308.3,87.61a3.15,3.15,0,0,0,1.27.11s.22-1-.31-1.42-1-.8-1.31-1.11a4.85,4.85,0,0,1-.38-.41s0,.82,0,1.34a1.52,1.52,0,0,0,.77,1.48Z" style="fill:#d4af3a"/><ellipse cx="309.44" cy="88.65" rx="0.39" ry="0.37" style="fill:#d4af3a"/><path d="M306.51,88.25a7.58,7.58,0,0,1-.52.6,1.61,1.61,0,0,1,.8.27,1.9,1.9,0,0,0,1.24.43.59.59,0,0,0,.51-.73c-.09-.28-.29-.58-1-.84S306.68,88,306.51,88.25Z" style="fill:#d4af3a"/><path d="M308,90.76c-1.35.12-3.13-1.37-3.13-1.37a2.29,2.29,0,0,1-2,2l.1.05a8.47,8.47,0,0,0,2.3.73,4.64,4.64,0,0,0,1.67-.13,7.06,7.06,0,0,0,2-.63c.81-.5.57-1.8.57-1.8s-.12,1-1.47,1.11Z" style="fill:#d4af3a"/><path d="M302.76,89.4a10.31,10.31,0,0,0-1.73-.62c-.35,0-.85-.1-.76.54a1.3,1.3,0,0,0,1.38,1,2.43,2.43,0,0,0,1.35-.42C303.38,89.68,303.31,89.61,302.76,89.4Z" style="fill:#d4af3a"/><path d="M298.54,87.11a3.5,3.5,0,0,0-1.14-.55,3.12,3.12,0,0,0-.17,1.68,1.14,1.14,0,0,0,1.26.8c.57,0,1.42-.31,1.18-.75A3.38,3.38,0,0,0,298.54,87.11Z" style="fill:#d4af3a"/><ellipse cx="299.09" cy="90.04" rx="0.47" ry="0.34" style="fill:#d4af3a"/><path d="M300.38,84.86a7.39,7.39,0,0,1,1.37-6.16,10.21,10.21,0,0,1,4.61-3.46,9,9,0,0,1,1-1.18,19.83,19.83,0,0,1,2.83-2.24s-2.2.54-3.46.94c0,0,0,0,0,.07a1.53,1.53,0,0,1-1.51,1.54,1.49,1.49,0,0,1-.86-.27,15.32,15.32,0,0,0-3.52,2,1.55,1.55,0,0,1,.23.81,1.53,1.53,0,0,1-1.51,1.54,1.46,1.46,0,0,1-.69-.17l-.19.33a15.58,15.58,0,0,0-1.08,2.48,1.61,1.61,0,0,1,.65,1.34A1.44,1.44,0,0,1,297,83.93a5.23,5.23,0,0,0,0,1c.06.5.25.81,1.12,1.06s2.05,1.77,2.05,1.77a3.46,3.46,0,0,0,.25-2.89Z" style="fill:#d4af3a"/><path d="M305.74,73.51a.57.57,0,0,0,.12-.88.82.82,0,0,0-1,.06.57.57,0,0,0-.12.88A.82.82,0,0,0,305.74,73.51Z" style="fill:#d4af3a"/><path d="M300.1,77.32a.77.77,0,0,0,.14-1.1.86.86,0,0,0-1.16.08.77.77,0,0,0-.14,1.1A.86.86,0,0,0,300.1,77.32Z" style="fill:#d4af3a"/><ellipse cx="296.74" cy="82.11" rx="0.87" ry="0.86" style="fill:#d4af3a"/><path d="M315.54,70A10.83,10.83,0,0,0,313,71h0a1.41,1.41,0,0,1,1.55,1.28,1.7,1.7,0,0,1-1.66,1.5,1.49,1.49,0,0,1-1.46-1.48,1.12,1.12,0,0,1,.11-.48c-.37.23-.77.48-1.19.77A11.66,11.66,0,0,0,305.58,78c-1.37,2.55-1.87,5.35-1.28,7s2.77,2,2.8,2a1.38,1.38,0,0,1-.28-.56A4.9,4.9,0,0,1,307,85.3a7,7,0,0,0,0-1.37.94.94,0,0,1,.78.28c.28.34.69.75,1,1.09a12.85,12.85,0,0,0,1,1,2.68,2.68,0,0,0,.44-1.37c0-.75-.5-1.56-.59-2.86a9.35,9.35,0,0,1,1.87-5.35,15.05,15.05,0,0,1,4.39-3.61,1.4,1.4,0,0,0,.87-1.18c0-.31.09-.53.15-1.31s-.65-.75-1.37-.59Z" style="fill:#d4af3a"/><path d="M312.79,73a1,1,0,0,0,.94-.85.79.79,0,0,0-.87-.72.82.82,0,0,0-.89.73A.84.84,0,0,0,312.79,73Z" style="fill:#d4af3a"/><path d="M316.91,89.25a2.07,2.07,0,0,0,1.78-.12.75.75,0,0,0,.05-1.19,1.34,1.34,0,0,0-1.43-.12c-.39.22-1.26.83-1.26.83A1.79,1.79,0,0,0,316.91,89.25Z" style="fill:#d4af3a"/><path d="M319,90a1.16,1.16,0,0,1-1.16.63,2.69,2.69,0,0,1-2-.5A5.12,5.12,0,0,1,315,89l-.84,0a4,4,0,0,1-.64,1.49,2.36,2.36,0,0,1-2.23,0c-.56-.42-1.08-.94-1.18-.87s0,.49.58,1a2.52,2.52,0,0,0,1.92.81H318s1.08.06,1.39-.58.32-1.05.18-1.21-.24.11-.48.49Z" style="fill:#d4af3a"/><path d="M311,89.1c.8.44,1.24.17,1.53-.18a2,2,0,0,0,.35-.52,8.91,8.91,0,0,1-1.12-.49c-.37-.21-.61-.42-1-.38s-.42.1-.42.1A1.51,1.51,0,0,0,311,89.1Z" style="fill:#d4af3a"/><ellipse cx="307.11" cy="81.24" rx="1.77" ry="1.76" style="fill:#b96b29"/><path d="M310.19,75.14a1.79,1.79,0,0,0-2.33.43,1.45,1.45,0,0,0,.24,2.16,1.79,1.79,0,0,0,2.33-.43A1.45,1.45,0,0,0,310.19,75.14Z" style="fill:#b96b29"/><ellipse cx="307.04" cy="81.01" rx="1.03" ry="0.98" style="fill:#d4af3a"/><path d="M309.45,75.34a1.18,1.18,0,0,0-1.26.5c-.24.4,0,.83.62,1,1.12.23,1.65-1.18.64-1.46Z" style="fill:#d4af3a"/><path d="M282.34,212.67a39.27,39.27,0,0,1-3.61,1.54,5.74,5.74,0,0,1-1.07.24,25.27,25.27,0,0,1-3.24,2.51,12.18,12.18,0,0,1-4.75,1.65c-2.14.23-8,.17-10.67.07s-4.28.54-5.42,1.81a3.14,3.14,0,0,0,0,4.53,2.25,2.25,0,0,0,3.58-.17,2.8,2.8,0,0,0,0-2.48c-.23-.5.47-.67,1.2-.71a18.89,18.89,0,0,1,3.11.24,16.06,16.06,0,0,1,4,1.31c.87.47.37.54-.23.44a13.45,13.45,0,0,1-2.34-.74,9.28,9.28,0,0,0-2.64-.64c-.67,0-.44.34-.3.57a11.13,11.13,0,0,1,.6,1.07,3.85,3.85,0,0,1-.2,1.27l.33.64a9,9,0,0,0,.54-1c.13-.34,0-1,.1-1.27s.7-.3,1.14.2a4.47,4.47,0,0,1,1.17,2.38,3.83,3.83,0,0,1-.2,2.18,2.53,2.53,0,0,1,.64.74,5.92,5.92,0,0,1-.13,1.51s.37.23.7-.47a15.85,15.85,0,0,0,.83-2.38c.1-.44.4-1.24.94-.64a5,5,0,0,1,1,1.71,2.87,2.87,0,0,1,.1.67,13.71,13.71,0,0,0,1.61-1.85,11.19,11.19,0,0,1,2.38-2.62c1.14-.94,3.11-2.82,4.08-3.46s3.44-2,4.21-2.45.9-.5,1-1.81a15,15,0,0,1,1.07-3.39c.29-.91.36-1.24.36-1.24Z" style="fill:#d4af3a"/><path d="M238.49,163.52c0-.22-.47-1-.58-1.41s-.51-.16-.51-.16a8.55,8.55,0,0,1-1.52.67c-.65.18-.74-.07-.8-.4s-.22-1.39-.33-2.12-.27-.69-.54-.58-1.07.4-1.63.65-.38.51-.2.83.82,1.63,1.11,2.1,0,.67-.31.83-.82.22-1.49.45-.62.38-.56.6a13.49,13.49,0,0,0,.76,1.56c.24.43.47.13.47.13a7.09,7.09,0,0,1,1.32-.94c.6-.29.65-.2.8.25s.85,2.79,1,3.24.36.4.67.27.74-.2,1.09-.31.49-.83.49-.83-1.32-2.37-1.67-3,0-.74.27-.78,1-.16,1.72-.31.48-.55.46-.78Z" style="fill:#d4af3a"/><path d="M253.35,227.9c-.1-.57,0-1.14-.43-1.58a5.41,5.41,0,0,1-1.17-2c-.2-.71.17-1,.1-1.44s-.6-.4-1.14,0a2.38,2.38,0,0,0-1.24,2.11,3.18,3.18,0,0,0,2.24,3.32c1.77.54,1.74.14,1.64-.43Z" style="fill:#d4af3a"/><path d="M255.15,227.29s-.37-.23-.54.1-.13.5.33,1.24a3.23,3.23,0,0,0,1.3,1.24c.54.34.17-.33.1-.54s0-.47-.13-.64a1.31,1.31,0,0,1-.2-.9c0-.53-.87-.5-.87-.5Z" style="fill:#d4af3a"/><path d="M257.32,233.33c.33-.51.64-.64,1.44-1a10.2,10.2,0,0,1,2.77-.6,2,2,0,0,0,1.47-2,1.83,1.83,0,0,0-1.54-1.54c-.63-.13-1.2-.13-1.4.17a2.36,2.36,0,0,1-1.27.94c-.7.23-.8.47-1.24.6s-.1.4-.47.71-.87,0-1.44-.17a3.75,3.75,0,0,0-1.24-.3L252.1,230a1.34,1.34,0,0,0-.43,0c-.37,0-.4.07-.57.47a2.49,2.49,0,0,0,.43,1.91c.4.5,1.71.74,2.57,1a15,15,0,0,0,2,.5c.76.13.86,0,1.19-.51Z" style="fill:#d4af3a"/><path d="M265.45,234.13c.7-.47.3-1.27.13-1.78s-1.14-.6-1.64-.6-.77,0-1,.23a3.5,3.5,0,0,1-1.37.81c-.73.23-1.3.5-2.31.9s-1.3,1.07-1.74,1.34a1.94,1.94,0,0,1-1.27,0s-.6-.17-.8,0,0,.5.4.94,1.17.4,2,.67,1,.07,1.37-.17.6-.74,1.2-1.11a7.44,7.44,0,0,1,2.54-.5,6.15,6.15,0,0,0,2.49-.74Z" style="fill:#d4af3a"/><path d="M265.45,231.08c.3.27.64.64.9.2s.7-1.34.4-1.88a9.34,9.34,0,0,0-.67-1,18.41,18.41,0,0,1-.74,1.95c-.22.41-.19.47.11.74Z" style="fill:#d4af3a"/><path d="M262.74,226.45a4.91,4.91,0,0,0-.6-1.95,7.9,7.9,0,0,1-.57,1.51,4.78,4.78,0,0,1-.74,1.07,7.57,7.57,0,0,0,1.2.23c.33,0,.71,0,.71-.86Z" style="fill:#d4af3a"/><path d="M257.73,228.3a3.91,3.91,0,0,0,1.84-.9,1.62,1.62,0,0,0,.37-1.71,2.2,2.2,0,0,0-1.2-1h-.5a4.66,4.66,0,0,1-.64,1.31c-.37.44-.8.74-.77,1.31s0,1.16.9,1Z" style="fill:#d4af3a"/><path d="M259.63,224a1.59,1.59,0,0,0-.43-1.21l-.5-.5s-.07.67-.13,1a2.35,2.35,0,0,1-.1.44,2,2,0,0,0,.5.37c.23.09.63.3.66-.14Z" style="fill:#d4af3a"/><path d="M248.07,200.25l.63-4c-.48-4-2.53-7.69-4.16-10.27a49,49,0,0,1-4.06-8.8,24.93,24.93,0,0,1-1.23-6.67,3.84,3.84,0,0,1,.66-2.35s.29-.42,0-.69-.68,0-1.1.4a5,5,0,0,0-1,1.75,3,3,0,0,0-.18.75,7.68,7.68,0,0,0-2.18-.09c-1.35.11-2,.22-2,.51s.18.51,1.15.93a5.06,5.06,0,0,1,2.07,1.17,21.9,21.9,0,0,1,2.11,4.86,66.62,66.62,0,0,1,1.52,8.15,32.52,32.52,0,0,0,2.73,9.57c.46,1,3,5.67,5.09,4.73Z" style="fill:#d4af3a"/><path d="M250.52,207.21c-.91.51-.88,4.25-.48,6.19a13.91,13.91,0,0,0,2.88,5c.58.65.71.65,1,.48a1.09,1.09,0,0,1,.44-.17,5.52,5.52,0,0,0,1.43-.75c.61-.48.37-1.67.27-2.72a16.34,16.34,0,0,0-2.41-5.61c-1.48-2.45-2.23-2.93-3.14-2.42Z" style="fill:#d4af3a"/><path d="M251.53,204.18a2.21,2.21,0,0,0-2.27-2.14,2.1,2.1,0,0,0-1.4.43c-1.23,1.11-.49,3.89,1.29,3.89a2.73,2.73,0,0,0,1.87-.55,2.19,2.19,0,0,0,.51-1.62Z" style="fill:#d4af3a"/><path d="M269.21,239.32a3.69,3.69,0,0,1-1.49-.77,7.63,7.63,0,0,1-2.07-2c-.2-.49-.2-.52-.89-.29a9.59,9.59,0,0,1-2.41.23c-.75,0,.08.86.6,1.64s.34,3.38.34,3.38a2.28,2.28,0,0,1-.11.6c-.11.37,0,.63.17.72s.32-.09.83-.69a23.36,23.36,0,0,0,1.46-2.18l.95.23a6.27,6.27,0,0,0,2.76-.12c.68-.2.36-.69-.13-.78Z" style="fill:#d4af3a"/><path d="M266.14,241.34c-.34-.06-.49-.09-.66.14a4.18,4.18,0,0,0-.4.89.49.49,0,0,0,.14.6c.2.17.49.37.49.37a2.38,2.38,0,0,0,.58.46c.29.15.34-.29.34-.6s.17-.89.17-1.26-.3-.55-.65-.6Z" style="fill:#d4af3a"/><path d="M396.62,216.11a2.89,2.89,0,0,1-1.2-.52s-.36,0-.64.48a5.07,5.07,0,0,1-1.35,1.2s-1.52.4-1.71,1.44.52,1.4,1.24,1.27a5.86,5.86,0,0,0,3.23-1.4,5.55,5.55,0,0,0,1-1.8c.14-.35.23-.47-.61-.67Z" style="fill:#1d5e91"/><path d="M399,207.85a9.81,9.81,0,0,0-4.9-6.58s-1.08,3.79-1.4,5-.32,1.16.6,1.4,3.87.88,4.47,1,1.6.67,1.24-.85Z" style="fill:#1d5e91"/><path d="M385.29,205.7c.68.12.6-.16.84-1.08l1.43-5.46a13.49,13.49,0,0,0-5.66,1.15,8.81,8.81,0,0,0-3.79,3.63,17.5,17.5,0,0,0,2.47.68c1.8.39,4,.95,4.71,1.07Z" style="fill:#1d5e91"/><path d="M378.27,212c-1.08-.2-1.48-.32-1.48-.32a13.64,13.64,0,0,0,1.8,4,5.31,5.31,0,0,0,4.67,2.19c2.31,0,4.07-1.24,4.35-2.23a7.33,7.33,0,0,1,.76-1.75s-4.19-.56-5.9-1-3.13-.76-4.21-1Z" style="fill:#1d5e91"/><path d="M377.55,210.32c1,.24,9.57,1.87,10.29,2s1.32.32,1.52.12a2.34,2.34,0,0,1,1.08-.6,1.08,1.08,0,0,0,.72-1,10.42,10.42,0,0,0,.28-1.44c.08-.72.48-1,1.32-.08a5.77,5.77,0,0,1,1.16,3.39c.16,1.24,2.11,1.55,2.87,1.68s1.12-.12,1.56-.84a9.39,9.39,0,0,0,.8-3.07c.12-.92,0-.84-.92-1.08s-5.38-1.24-6.18-1.44-.64-.72-.52-1.27,1.87-6.18,1.87-6.18a12.67,12.67,0,0,0-5.1-1.48s-1.28,5.74-1.52,6.62-.8.88-1.71.72-7.54-1.71-7.54-1.71l-.52,1.23a10.31,10.31,0,0,0-.76,3.47c0,.76.27.74,1.3,1Z" style="fill:#d4af3a"/><path d="M400.2,215.51c-.88-.57-1.53-.73-2,.34s-.5,2.64-1.64,3.75-2.75,2.26-4.35,2.14-2.52-.5-2.14-2.33,2.83-2.41,3.4-3.37a2.12,2.12,0,0,0-.42-2.79,2.64,2.64,0,0,0-2.4-.65,5.29,5.29,0,0,0-1.83,2.45c-.5,1.38-.8,2.49-1.87,3.37a8.1,8.1,0,0,1-6,1.26c-2.14-.5-2.9-1.15-3.7-3.25s-1.76-5.58-2.18-6a1.29,1.29,0,0,0-1.87,0,3.07,3.07,0,0,0-1.11,2.37,3.31,3.31,0,0,0,.92,2.75,10.89,10.89,0,0,1,2.22,3.36c.34,1.15,1.37,2.91-.08,3s-2.1.11-3.21-1-5.42-4-6.61-5a19.29,19.29,0,0,0-1.68-1.26,11.15,11.15,0,0,1-6-2.22,41.86,41.86,0,0,1,1.37,4.05,7.26,7.26,0,0,1,.19,1.72s4.35,2.22,6.07,3.06,5.19,2.83,6.87,3.86,3.09,2.64,6.07,2,9-2.45,11-3,7.33-1.91,9.32-3.29,2.18-1.3,2.52-2.68a2.16,2.16,0,0,0-.88-2.69Z" style="fill:#d4af3a"/><path d="M388.71,194.92c.33,0,.46-.09,1.48-.22s.64.84.46,1.22a19.34,19.34,0,0,1-.9,1.83c-.42.71.13.82.42.93s.71.15,1.52.38.66-.38.68-.69.07-1.93.15-2.5.62-.42.82-.31l1.13.62a.44.44,0,0,0,.71-.26,13.18,13.18,0,0,0,.46-1.33c.18-.64-.22-.51-.62-.51s-1,0-1.63,0-.24-.66-.24-.66L394,192c.38-.6.24-.68-.13-.8s-1.55-.38-1.88-.46-.48,0-.48.18,0,1.37,0,1.81,0,.71-.62.73-.93-.31-1.39-.82-.66-.31-.71-.11-.42,1.66-.51,2.06.11.37.44.32Z" style="fill:#d4af3a"/><path d="M391.91,209.41a10.1,10.1,0,0,1-.16,1.55c-.12.4-.4,1,.08,1.16a2.66,2.66,0,0,0,1.19.28c.28-.08.16-.64,0-1.12a4.27,4.27,0,0,0-.76-1.48l-.35-.39Z" style="fill:#d4af3a"/><path d="M398.93,214a1,1,0,0,0,.72.52c.24.08.56.08.56-.36a2.25,2.25,0,0,0-.28-1.48c-.36-.48-.55-.83-.76-.12s-.4,1.09-.24,1.44Z" style="fill:#d4af3a"/><path d="M374.48,209.37c.2,0,1,.28,1,.28a11.35,11.35,0,0,1,.16-1.87c.16-.76.48-1.27.2-1.27s-.44.24-.64.56-.76.4-1,1.32.08.95.28,1Z" style="fill:#d4af3a"/><circle cx="379.27" cy="207.45" r="1.56" style="fill:#b96b29"/><circle cx="383.65" cy="208.53" r="1.6" style="fill:#b96b29"/><circle cx="396.42" cy="211.24" r="1.6" style="fill:#b96b29"/><circle cx="388.04" cy="209.57" r="1.6" style="fill:#b96b29"/><circle cx="389.2" cy="205.74" r="1.6" style="fill:#b96b29"/><circle cx="390.32" cy="201.91" r="1.6" style="fill:#b96b29"/><circle cx="379.38" cy="207.3" r="0.78" style="fill:#d4af3a"/><circle cx="383.77" cy="208.37" r="0.8" style="fill:#d4af3a"/><circle cx="396.54" cy="211.08" r="0.8" style="fill:#d4af3a"/><circle cx="388.16" cy="209.41" r="0.8" style="fill:#d4af3a"/><circle cx="389.32" cy="205.58" r="0.8" style="fill:#d4af3a"/><circle cx="390.44" cy="201.75" r="0.8" style="fill:#d4af3a"/><path d="M339.69,239.41c-.84-.53-1.57-1.13-3.48-2.39a7.86,7.86,0,0,1-2.61-2.67h.67c.36,0,.67-.51.7-1a18.4,18.4,0,0,0-.14-2.76,5.53,5.53,0,0,1,.2-2.19,10.36,10.36,0,0,0,2,1.41c1.23.65,1.74.34,1.74.34l.31-1.24s.53,1.13,1.29,2.45,2.8,2.79,4.26,3.88a19.21,19.21,0,0,0,4.26,2.67c1.21.42.5,1,.5,1a8.49,8.49,0,0,1-4.32,1.77,6.47,6.47,0,0,1-5.44-1.24Z" style="fill:#d4af3a"/><path d="M328.8,238.2a1.92,1.92,0,0,0,2-1.74,30.75,30.75,0,0,0-.06-3.8,7.13,7.13,0,0,1,.79.82,2.47,2.47,0,0,0,1.38.62,5.75,5.75,0,0,0,.56,1.1,6.19,6.19,0,0,0,2,2.17,33.62,33.62,0,0,1,3.11,2.14,18.78,18.78,0,0,0,2.83,2.05,4.66,4.66,0,0,1,2.39,3.12c.36,1.57.08,2.08-1.15,2a12.05,12.05,0,0,1-3.37-.48c-2-.51-4.82-2.73-6.9-4.05a13.21,13.21,0,0,1-3.59-3.94Z" style="fill:#d4af3a"/><path d="M323.28,240a7,7,0,0,0,1.15-2.28c.31-1.21.9-3.6.9-3.6s.28.76,1,2.19a3.27,3.27,0,0,0,1.82,1.77,4.19,4.19,0,0,0,1,1.83,14,14,0,0,0,3.79,3.18,14,14,0,0,1,4.29,3.43c1,1.43,1.09,2.93.62,3.57s-1.15-.09-2.1-.56-3.67-.9-7.43-2.93-5-6.61-5-6.61Z" style="fill:#d4af3a"/><path d="M321.65,248.44c-1-1.55-1.21-5.32-1.21-5.32s.36-.25.87-.68a13.53,13.53,0,0,0,1.49-1.91s.62,1.29,1.29,2.5A9.4,9.4,0,0,0,326.5,246c1.4,1.29,3.31,2.56,4.12,3.94s.36,4.13-.17,5.06-1.29.62-2.08-.14-1-1-2.41-2.14a24.74,24.74,0,0,1-4.32-4.25Z" style="fill:#d4af3a"/><path d="M334,216.89a27,27,0,0,0-1.68-3.19,10,10,0,0,1-.86-1.49,13.3,13.3,0,0,1,1.87,2.09,9.39,9.39,0,0,1,1.1,2.64C334.66,217.87,334.54,218,334,216.89Z" style="fill:#b96b29"/><path d="M328.66,217.85c-.22-.74-.34-1.24-.34-1.24s-.22-.72-.1-.77.67.45,1.06,1.67a16.92,16.92,0,0,1,.84,3.07,10.37,10.37,0,0,1-1.46-2.73Z" style="fill:#b96b29"/><path d="M324.46,221.23a6,6,0,0,1-.24-.55,13.79,13.79,0,0,1-.43-1.68c0-.29.14-.62.5.1a5.92,5.92,0,0,1,.46,1.73c.07.31.48,1.39.36,1.49s-.41-.55-.65-1.08Z" style="fill:#b96b29"/><path d="M337.5,234l.56-.34a12.12,12.12,0,0,0,.81,1c.48.51,1,.7,1.38,1.18a5.3,5.3,0,0,0,1.8,1.52c.87.45,1.21.59,1,.73s-.76-.2-.76-.2a4.89,4.89,0,0,1-1.29-.65,10.13,10.13,0,0,1-2-1.55A19.33,19.33,0,0,1,337.5,234Z" style="fill:#b96b29"/><path d="M332.95,239.41c-.39-.42-.81-.7-.59-.93s.51-.2.87.11,1.4,1.29,1.88,1.72.87.68,1.35,1a21.28,21.28,0,0,0,2,1.21c.51.28,0,.31,0,.31a7,7,0,0,0-.81-.34c-.42-.14-1.63-.68-1.63-.68a8.61,8.61,0,0,1-1.12-.68,16.14,16.14,0,0,1-2-1.77Z" style="fill:#b96b29"/><path d="M327.71,243c-.34-.67,0-.48.59-.25s1.82,1.6,2.55,2.11a13.47,13.47,0,0,0,2,1c.62.31.62.48.59.62s-.28.14-.53,0-1.12-.62-1.12-.62a4.06,4.06,0,0,0-.7-.14c-.34,0-.81-.4-1.57-1s-1.43-1-1.77-1.72Z" style="fill:#b96b29"/><path d="M325.27,247.85a9.71,9.71,0,0,1,2.95,2.67c.42.85.7,1.43.56,1.57s-.59-.14-.79-.48a8.28,8.28,0,0,0-.62-.84,23.61,23.61,0,0,0-2.19-1.94,5.55,5.55,0,0,1-1.77-2,1.29,1.29,0,0,1-.06-1,8.4,8.4,0,0,0,1.91,2Z" style="fill:#b96b29"/><path d="M350,113.28a14.87,14.87,0,0,1,5.56-1.68,17.16,17.16,0,0,1,6.32.7,7,7,0,0,0,3.77.14,5.23,5.23,0,0,0,3.54-4,3.6,3.6,0,0,1,0,4.28,4.81,4.81,0,0,1-2.86,2c-3.4.68-6.73-1.39-9.56-1.57a7.73,7.73,0,0,0-4.85,1.55,1.36,1.36,0,0,1-1.55,0C349.39,114.18,349.13,113.78,350,113.28Z" style="fill:#c52126"/><path d="M359.77,211.66l.8-.1a10.06,10.06,0,0,0,1.77-.54.93.93,0,0,1,1.07.17,29.81,29.81,0,0,0,2.74,1.78h-4a3.25,3.25,0,0,1-2.34-1.31Z" style="fill:#d4af3a"/><path d="M348.38,211v-.4l.54-1.16a7.47,7.47,0,0,1,1.24,1,31.46,31.46,0,0,1,2,2.46c.67.86,1.62,1.68.81.3s-1.08-2-1.72-2.89-1.13-1.32-1.05-1.38a15.49,15.49,0,0,1,2.29-.35,8.54,8.54,0,0,0,3.53-1.32c.78-.46,2.18-1.21,2.18-1.21s2.88,1.21,4,1.49,1.72.43.67.95-1.94.68-2.45,1a7.79,7.79,0,0,1-3.07.84c-1,0-2.61,0-2,.7a11.6,11.6,0,0,1,2.07,3.94,13.5,13.5,0,0,1,.73,4.59,16.09,16.09,0,0,1-.11,1.73,22.24,22.24,0,0,0-4.36-3.32,56.11,56.11,0,0,0-5-2.95c-.59-.27-.89-.27-.78-1s.43-2.62.43-3Z" style="fill:#d4af3a"/><path d="M336.24,201.31l.59-.27.15.05a10.47,10.47,0,0,1,3.1,2.76c.78,1.27,1.57,1.38.71,0a11.94,11.94,0,0,0-2.16-2.76c-.26-.23-.49-.42-.68-.57a35.56,35.56,0,0,0,4.89-2.8,7.49,7.49,0,0,0,1.08,1.66,7.63,7.63,0,0,0,2.16,1.31,10,10,0,0,1-1.6-2.16,9.61,9.61,0,0,1-.52-1.62,21.09,21.09,0,0,0,3.21-3.07,11.85,11.85,0,0,0,2.76,4.91c2.5,2.8,7.5,4.21,7.5,4.21s1.75.19.33.56a9.05,9.05,0,0,1-5.18.52,20.88,20.88,0,0,1-3.32-.71c-.37-.11-1.38,0,0,.48a19.31,19.31,0,0,0,5.82.9c1.23-.11,2.91-.37,1.16.56s-2.5,1.3-3.58,1.3-1.53.34-2.57.34a7.64,7.64,0,0,1-2.09-.34c-.75-.15-1.23.11-1.23.41a5.87,5.87,0,0,1,1,3.17,17.55,17.55,0,0,1-.37,4,15.53,15.53,0,0,1-.93,2.13c-.3.56-.41,1.12-.71-.07s-1-2.91-1.23-4.06-.41-1.19-.52-1.79-.75-1-.45,0,.63,2.46.86,3.43.75,2.76-.15,1.34S340,210,339.4,209.3s-1-1.31-1.42-1.86-1.57-1.31-2.13-2.13a19,19,0,0,0-2.62-2.7c.95-.4,2-.82,3-1.3Z" style="fill:#d4af3a"/><path d="M382.6,115.23c-.09,2.06-2.36,6-3.66,8.09s-1.65,2.95-1.43,3.08.76-.94,1.47-1.87,2.1-3.13,3.26-4.78a61.22,61.22,0,0,0,3.08-5.94c.22-.36.31-.58.89-.14s1.7,4.78.36,7.73a26.15,26.15,0,0,1-4.19,6.12c-.85,1-2,2.64-1.78,2.77s.49-.27,1.52-1.34,2.72-2.9,3.84-4.24a31.69,31.69,0,0,0,2.57-4.09c.16-.3.37-.22.53-.06.37.37,1,1.23.7,3.57-.36,3.26-2.05,5.14-3.57,6.79s-3,3-2.81,3.26,1.78-1.16,2.85-2.19,3.7-3.57,4.28-4.29,1.43-.36,1.38,2.46-3.17,5.67-4.46,7.24-2.9,2.5-2.77,2.81,1.43-.49,2.27-1.07,4-2.64,4.64-3.08.94.4.13,3.08a12.18,12.18,0,0,1-4.51,5.81c-1.38,1-3.61,2.19-3.48,2.5s1.07-.09,2.36-.72a26.26,26.26,0,0,1,4-1.52c1.12-.31,1.12.49,1.12.49a5.81,5.81,0,0,1-1.43,4.11,8.86,8.86,0,0,1-5.31,2.86c-1.78.31-2.05.4-2,.67s.22.31.62.31,2.05.18,3.57.18,2.32.36,2.32,1,0,1.56-2.23,3.08a14.79,14.79,0,0,1-5.89,2c-1.07.22-1.11.31-.89.63s.71.27,2.41.45,2.72.85,2.94,1.29-.13,1.79-1.52,2.73-3.17,1.25-5.84,1.07-3.35-.22-3.43.22.8.58,2.14.8,2.36.22,3.12.85.18,1.92-1.11,2.86-4.51.94-5.84.85-3.39-.58-3.52-.22,1,.9,2.36,1.38,1.79.8,2.05,1.39,0,1.12-1.61,1.74a8,8,0,0,1-5.31,0c-1.25-.58-1.92-.8-2.14-.58s0,.45.27.76a6.15,6.15,0,0,0,2.72,1.52c1.38.36,1.52.36,2,1.47s-.76,2-3.26,2.1a16.53,16.53,0,0,1-6.92-1.52c-1.07-.63-1.47-.76-1.65-.54s-.13.36.4.76a13.67,13.67,0,0,0,3.08,1.83c.85.22.94.85.94,1.43s.22,1.74-2,2.28a9,9,0,0,1-7.27-1.56,5.5,5.5,0,0,1-1.48-1.39,18.65,18.65,0,0,0-.18-5.29,8.81,8.81,0,0,0,2.29-.55,4.3,4.3,0,0,0,2.19-2.46c.31-.67.76-.67,1.29-.49a4.42,4.42,0,0,0,1.83.36,5.26,5.26,0,0,0,3.52-1.83,4.73,4.73,0,0,0,1-3.4c0-.67,1.11-.18,1.65-.18a7,7,0,0,0,3.52-1.21,3.82,3.82,0,0,0,1.56-2.86,1.85,1.85,0,0,1,1.16-1.07,6.38,6.38,0,0,0,2.14-1.16,4.76,4.76,0,0,0,1.38-2.9c0-.54.63-.58,2.63-1.61s1.83-3.17,1.74-4-1-1.56-1-1.88.67-.4,1.34-.8a3.8,3.8,0,0,0,2.41-3.57c0-2.5-1.61-2.77-1.61-2.77a9.65,9.65,0,0,0,1-.54c.67-.4,2.5-1.65,2.5-3.13a2.83,2.83,0,0,0-1.16-2.5,8,8,0,0,0-1.83-.71,3.24,3.24,0,0,0,1.2-1.7,3.86,3.86,0,0,0-.36-3.62,3.77,3.77,0,0,0-3-1c-.76,0-1.43.4-1.7.18s-.31-.4,0-1a4.38,4.38,0,0,0,.09-2.5,2.79,2.79,0,0,0-2.19-2.1c-1.92-.62-3.92.67-4.55,1s-.36-.49-.36-1.12,1.29-2.19,2.77-4.42a48.74,48.74,0,0,0,3.79-6.79,43.78,43.78,0,0,0,2.94-8.89c.22-1.12.67-.58.67-.58s.45.18,1.47,2.77a16.66,16.66,0,0,1,1.11,7Z" style="fill:#d4af3a"/><path d="M348.95,160.92a5,5,0,0,0,3.79-2.36c1.15-1.67,2.87-2.07,5.86-2a4.75,4.75,0,0,0,5.11-3.45c.75-2.07-.11-4.43-3.16-5.93s-4.42-3.16-4.54-5.75,3-5.81,6.2-9.44a45.91,45.91,0,0,0,5.63-8.75,4.73,4.73,0,0,1,.92,2.42c0,1.21-.46,2.47,0,2.82s.63-.52,2.47-1.32,3.33-.92,4.48.4,0,3.63-1,4.72-1.9,1.9-1.61,2.3,1.84-.63,2.36-1,1.72-1.67,3.51-1.5,2.41.69,2.59,2.19-1.61,2.82-2.76,3.4-1.61,1.09-1.32,1.32.58,0,1.09-.17a5.35,5.35,0,0,1,2.87,0c.92.35,2.41,1.61,1,3.16s-4.25,2.13-4.83,2.24-.86-.06-.92.4,1.21.46,2.76.52,2,1.55,1.78,2.7-2.82,2.42-4.25,2.65-2,0-2.07.4.17.57,1,.81,2.36.4,2.64,1.67a2.38,2.38,0,0,1-.86,2.94,4.72,4.72,0,0,1-3.73.8c-.58-.11-1.27-.75-1.84-.17s.52,1,1.49,1.73.92,2-.75,2.94a5.12,5.12,0,0,1-4,.35c-.69-.23-1.61-1.32-2.07-.63s1.44.92,2.24,1.9.52,2.59-1.09,3.57a5.37,5.37,0,0,1-4.71-.11c-.46-.4-1-.57-1.38-.23s.17,1.26.52,2.07,1,3.16-1.44,4.09-4.6-1.15-5-1.55a1,1,0,0,0-1.15-.29c-.34.17-.17.52.11.92a2.44,2.44,0,0,1-.8,3.34,4.23,4.23,0,0,1-3.16.64c-.36-1.35-.83-2.79-1.3-4.8H350c.23,0,.28.35.28.48s-.07.25.14.25.23.12.53.32.58.46.74.35-.62-.53-.83-.78-.62-.65-.64-.92-.16-.44-.58-.78a1.56,1.56,0,0,1-.31-.36c-.28-1.34-.55-2.91-.8-4.82-.17-1.29-.26-2.51-.3-3.64l.76,0Z" style="fill:#d4af3a"/><path d="M398.06,125.05a26.16,26.16,0,0,1-6.19,8.12s.48-1.29.69-2.18a5.62,5.62,0,0,0,0-1.89s.91-1.17,2.59-3.76a23.89,23.89,0,0,0,2.57-6.42,57.34,57.34,0,0,1-2.78,5.86,31.4,31.4,0,0,1-2.62,3.69s-.49-1.8-.84-1.89-.61.19-.91.58-.56.36-.56.36.41-.86,1.05-1.89c.29-.47.71-1,1-1.44a39.52,39.52,0,0,0,4.08-7.26c1.06-2.87,3.37-10.08,3.78-12.2s.8-1,1.21.61a18.42,18.42,0,0,1,.6,7.11,35.69,35.69,0,0,1-3.73,12.6Z" style="fill:#d4af3a"/><path d="M394.74,139.07c-1,.71-2.37,1.66-2.37,1.66a7.41,7.41,0,0,0,.36-1.15,15.46,15.46,0,0,0,.2-1.91l1.91-1.67a27.83,27.83,0,0,0,3.72-4c1.95-2.42.38-1-1.21.77a60.21,60.21,0,0,1-4.62,4.25s0,0,0-.56a2.08,2.08,0,0,0-.46-1.27c-.28-.36-.13-.41,1.58-1.72a49.3,49.3,0,0,0,8-9.28c1.81-3,3.78-7,3.78-7a21.19,21.19,0,0,1-2.67,12.5C399.27,136.25,395.69,138.36,394.74,139.07Z" style="fill:#d4af3a"/><path d="M375.72,176.6a2.3,2.3,0,0,1-1.44-2.76s1.22.39,2.34.8a23.8,23.8,0,0,0,5,1.25c1.09,0,1.09-.13,1.12-.29s-.83,0-2.4-.29a19.61,19.61,0,0,1-4.8-2.05c-.48-.32-.42-.39.29-.45a3,3,0,0,0,1.57-.61c.26-.23,1,.1,2.79.51a43.19,43.19,0,0,0,8.36,1.06,33.2,33.2,0,0,0,6-.58c.45-.1.93.16-.45,2.47s-6.21,3.56-9.58,3.53-6.73-1.83-8.71-2.6Z" style="fill:#d4af3a"/><path d="M384.66,171.83c-3.47,0-4.76-1-4.76-1s0-.18.47-.88a3.64,3.64,0,0,0,.38-1.91s.82.15,2.27.35a15.38,15.38,0,0,0,5,.09c1.85-.32,1.06-.53-.41-.35a16.2,16.2,0,0,1-5.21-.68c-.91-.32-.53-.62.09-.83a18.5,18.5,0,0,0,2.29-1.27,39.63,39.63,0,0,0,8.12.09,47,47,0,0,0,7.18-1.56c.79-.12.76.21.76.21s.21.35-1.15,2.47a11.22,11.22,0,0,1-6.24,4.15,33.54,33.54,0,0,1-8.76,1.12Z" style="fill:#d4af3a"/><path d="M385.55,163.7a3.5,3.5,0,0,0,.35-.91,1.3,1.3,0,0,0-.38-1.24,25.92,25.92,0,0,1,3.38-.56,27.55,27.55,0,0,0,4.32-.88c1.59-.35,2.65-.82,2.62-1s-.53.09-1.47.44a64.71,64.71,0,0,1-6.59,1c-1.68.24-2.62.41-2.91.24a8.41,8.41,0,0,0-1.32-.44,16,16,0,0,1,1.59-.35,5.61,5.61,0,0,0,2.15-.85c.47-.32.62-.41,2.74-.65s3.82-.91,7.62-2.3a32.43,32.43,0,0,0,7.41-3.65c.76-.62.71-.18.5.62a7.33,7.33,0,0,1-2.09,4c-1.91,2.24-2.85,3.21-7.67,5a30.23,30.23,0,0,1-10.24,1.53Z" style="fill:#d4af3a"/><path d="M399.81,151.95a27,27,0,0,1-10.32,4.24c-.24-.28.26-1.28,0-1.88s-.74-.74-1.76-.79-.35-.27-.12-.27a10.42,10.42,0,0,0,2-.47,46.44,46.44,0,0,0,5.79-1.59c2.35-.88,3.06-1.53,3-1.71s-1.09.56-3.26,1.38a39.09,39.09,0,0,1-6.09,1.44c-1.38.29-.18-.3.47-.68a7.6,7.6,0,0,0,1.56-1.8,36.77,36.77,0,0,0,4-1,32.52,32.52,0,0,0,6.68-2.8,25,25,0,0,0,2.16-1.47l3.43-2.48c.85-.62.59-.12.5.26a14.27,14.27,0,0,1-2,4.09C404.51,148.36,404.07,148.95,399.81,151.95Z" style="fill:#d4af3a"/><path d="M400.51,143.5a28.13,28.13,0,0,1-8.44,4.62c-.62.27-.56-.09-.44-.44a10.81,10.81,0,0,0,.21-1.5l3.18-1.83c1.68-1,3.53-2.3,4.76-3.15s.5-.79.12-.47-2.09,1.33-3.79,2.39-4.29,2.59-4.29,2.59a1.71,1.71,0,0,0-.41-.91c-.35-.35-1.23-.26-1.23-.26a6.28,6.28,0,0,0,.71-.85c.26-.41,1.65-.85,3.21-1.59a38.48,38.48,0,0,0,6.41-4.53,83.89,83.89,0,0,0,6.32-6.45c.26-.35.44-.29.47.15A6.53,6.53,0,0,1,407,134,18.43,18.43,0,0,1,400.51,143.5Z" style="fill:#d4af3a"/><path d="M385.63,112c-.48,1-1,1.74-1.37,2.38-.57,1-.89,1.61-.89,1.61a2.16,2.16,0,0,1,0-.93,7.34,7.34,0,0,0,0-2.36,7.26,7.26,0,0,1-.17-1.49,6.56,6.56,0,0,1,.28-1.27c.14-.56.74-3,1-4.75a38.79,38.79,0,0,0,.58-6.39c0-2.18-.34-1.08-.34,0a40.7,40.7,0,0,1-.45,5.18,60.47,60.47,0,0,1-1.39,6.3,6.56,6.56,0,0,0-.38-1.42c-.32-.83-.83-1.78-1.24-2.81s-.26-1.21-.26-1.21,1.48-7.07,1.86-10.41,1-12.12,1-12.12c2.16,2.17,3.77,7.89,4.05,13.3a49.16,49.16,0,0,1-.63,9.38,23.78,23.78,0,0,1-1.7,7Z" style="fill:#d4af3a"/><path d="M390.42,123.18c-.07-1.6-.43-2.81-1.47-3.17a25.92,25.92,0,0,0,1.71-3.88,30.53,30.53,0,0,0,1.23-5.11c.56-3.79,1-7.69-.11-1.3s-2.48,8.65-2.48,8.65L387.65,121a11.53,11.53,0,0,0,.22-3.26,21,21,0,0,0-.61-4.37,50.38,50.38,0,0,0,3.22-8.71,54.61,54.61,0,0,0,2-11.64c.11-2.49.17-3.45.17-3.45s2,1.53,2.71,9.27a45.94,45.94,0,0,1-2.37,18c-1,2.82-2.54,6.33-2.54,6.33Z" style="fill:#d4af3a"/><path d="M368.26,182.24s.32-.22,1.28-.83.67-2.44.67-2.44.26.19,1,.67a12.85,12.85,0,0,0,2.47,1.41c1,.39,1.44.64,2,.83s.45-.06-.06-.35a10.64,10.64,0,0,0-2-1,21.71,21.71,0,0,1-3.84-2.76s.61-.06,1.67-.1a8.56,8.56,0,0,0,2.4-.58s1.06,1,5.32,2.79a33.34,33.34,0,0,0,7.88,2.31,4.21,4.21,0,0,1-2.5,2.92c-1.7.74-4,1.19-8.62.1a29,29,0,0,1-7.72-3Z" style="fill:#d4af3a"/><path d="M362.65,186.61a3.91,3.91,0,0,1,.67-3.05,6.49,6.49,0,0,1,.86.71,13,13,0,0,0,3.36,2.57c1.79.9,2.43.83.7-.1a24.35,24.35,0,0,1-4.26-3.56l.67-.26c.67-.26,1.83.19,6.63,3.08s7.63,3,7.63,3-2.15,2.6-8,2.41-7.95-3-8.3-4.78Z" style="fill:#d4af3a"/><path d="M351.63,184.52a6.73,6.73,0,0,0,1.51,1.48,11.18,11.18,0,0,0,3.17.93,3.87,3.87,0,0,0,.54.83,14,14,0,0,0,2.47,2.7c1,.74,2.63,1.22,2.72,1s-.93-.58-1.92-1.19a12.68,12.68,0,0,1-2.56-2.5c-.67-.77.29-.64.29-.64s1.22,0,2.34-.06.9,0,1.22.55a15.22,15.22,0,0,0,1.6,2c1,1.17,2,2.24,2.95,3.4.64.77.16,1,.16,1s-.29.48-2.88.77a8.17,8.17,0,0,1-5.16-1.08,15.59,15.59,0,0,1-3.49-3c-3.11-3.4-2.95-6.19-2.95-6.19Z" style="fill:#d4af3a"/><path d="M350.25,191.54a13.41,13.41,0,0,0,1,1.19,13.52,13.52,0,0,0-.83-2c-.2-.34-.43-.67-.59-.89a17.27,17.27,0,0,0,1-3.12,26.29,26.29,0,0,0,2.27,5.39c1.34,2.15,2.53,2.92,1.76,3.49s-2.27.71-4-.13a4.37,4.37,0,0,1-2.35-3.35c.29-.45.56-.91.81-1.39a3.34,3.34,0,0,1,.87.83Z" style="fill:#d4af3a"/><ellipse cx="350.63" cy="105.75" rx="1.19" ry="1.09" style="fill:#d4af3a"/><path d="M353.14,103.69c-1.09,0-1.67-.54-2.87-.43a17.48,17.48,0,0,0-5.67,2.2A9.71,9.71,0,0,1,338,106a9.33,9.33,0,0,1-1.91-.89,4.54,4.54,0,0,1-2.15-4.77,11.12,11.12,0,0,0,7.09,2.16,6.67,6.67,0,0,0-.59.55c-.41.41-1.17.89-.92,1.1s1.28-.78,2.15-1.42a12.92,12.92,0,0,1,4.34-2.15c2.2-.64,4.66-.69,6.31.23s1.78,2.07,1.55,2.52A.78.78,0,0,1,353.14,103.69Z" style="fill:#d4af3a"/><path d="M322.33,126.8a5,5,0,0,0,2.51-1.33,47.76,47.76,0,0,0,4.21-4.63c.32-.55.18-1.06-.6-1.38a3.35,3.35,0,0,1-1.33-1.33,14.67,14.67,0,0,0,2.83-1.47,29.51,29.51,0,0,0,4.16-3.81c.37-.6.18-.69-.37-.87a1.07,1.07,0,0,1-.69-.55s1.23-.78,2.38-1.7,2.7-2.43,2.7-2.43c1.71.69,4.4.4,5.85.14a15.54,15.54,0,0,0,4.43-1.51,8.34,8.34,0,0,0,.41,1.19,1.77,1.77,0,0,0,2.7.46,2.65,2.65,0,0,0,.92-2.48,18.08,18.08,0,0,1,2.93-1.33,6.35,6.35,0,0,1,5.17-.09c1.6.73,2.38,2.93,2.38,4.59s-.87,1-1.05.73a3.11,3.11,0,0,0-2.56-1.74c-2-.32-3.84.64-6.13,2.52a43.87,43.87,0,0,0-3.93,3.21c-1.14,1.19-.23,1.83,1.74,2.48s4.48-.64,4.57-.6c.38.19-.85,1.94-2.54,2.6a8,8,0,0,1-5.55-.44c-1.14-.46-1.36,0-1.69.37a9.7,9.7,0,0,0-2.65,6,2.7,2.7,0,0,1-1.74-2c-.06-.37-.18-1.19-.82-.6s-1.14,3.9-1.14,5.41a19.59,19.59,0,0,0,.46,3.53l-.46,0a7.75,7.75,0,0,1-1.55-.78c-.73-.41-.78,0-.78.87a15.73,15.73,0,0,1-1.37,5.18,7.41,7.41,0,0,1-2.7,3.71,8,8,0,0,1-.64-1.65,22.06,22.06,0,0,1-.55-5.14c0-1.88.5-5.92.5-5.92s-2.29,2.8-4.66,3.49-4.76.27-5.76-.87-.09-1.65.42-1.79Z" style="fill:#d4af3a"/><path d="M338,134a21.11,21.11,0,0,0,1.12,2.17,2.23,2.23,0,0,0,.57.66,5.6,5.6,0,0,1-1.77.94c-1.05.33-2,.52-2,.52a14.84,14.84,0,0,0,1.6-2.76A10.63,10.63,0,0,0,338,134Z" style="fill:#d4af3a"/><path d="M323.69,133.1c.35-.9.57-1.4.57-1.4a10,10,0,0,0,5.43-1.12,10,10,0,0,1-2.19,3,8.72,8.72,0,0,1-1.25.81s1.09.18,2.56-1.27a10.11,10.11,0,0,0,2.12-3.11,24.23,24.23,0,0,0,.26,6.22c.59,2.36.72,2.67.72,2.67a16.51,16.51,0,0,1-6.57-.42c-3.46-1-3.72-1.27-3.72-1.27s-.42-.11.13-.83a18.68,18.68,0,0,0,1.92-3.28Z" style="fill:#d4af3a"/><path d="M330,124.64a7.73,7.73,0,0,0,1.17-1.52.73.73,0,0,1,.05.9,11.11,11.11,0,0,1-2.87,2.44,7.4,7.4,0,0,1-2.07.77l.05-.21A13.45,13.45,0,0,0,330,124.64Z" style="fill:#b96b29"/><path d="M334.19,132.67s.27-4.84.27-5.56.45-.53.45-.53l.53.24-1,7.08c-.11.76-.49.7-.68.66.38-.2.45-1.67.47-1.89Z" style="fill:#b96b29"/><path d="M340.72,111.72c.39-.39,1.28-.69.43.26a11.36,11.36,0,0,0-2.3,3.13c-.33,1-.53,2.2,0,1.94a5.18,5.18,0,0,0,1.55-.76,9.85,9.85,0,0,1,2.17-1.45c.46-.13,1.28,0,.63.72a16.52,16.52,0,0,1-2.63,2.34c-1.25.92-2,1.32-2.63,1.78s-1.32.86-1.32.86.59-3.95,1.68-5.69A17.52,17.52,0,0,1,340.72,111.72Z" style="fill:#b96b29"/><path d="M362.06,177.87a5.67,5.67,0,0,0,1.85.86s.5,0,.5.17-.58,0-1.19-.11a5.43,5.43,0,0,1-1.74-.94c-.3-.22-.75-.5-.61-.89s.39.3,1.19.91Z" style="fill:#b96b29"/><path d="M355.17,181.56c.17.19,1.49,1.19,1.49,1.19a4.88,4.88,0,0,0,.86.44,1,1,0,0,1,.55.42s-.08.11-.55,0a11.23,11.23,0,0,1-2.3-1.5c-.44-.39-.64-.5-.47-.66s.25-.05.42.14Z" style="fill:#b96b29"/><path d="M383.1,131.93c-.25.3-.55.71-.69.58s0-.27.36-.66.52-.58.52-.58a8.32,8.32,0,0,1,.74-1c.27-.27.69-.41.16.22S383.34,131.63,383.1,131.93Z" style="fill:#b96b29"/><path d="M385.22,136.58c-.3.28-.58.52-.91.88s-.58.74-.77.55.49-.6.8-1a5,5,0,0,1,.94-.94,6.64,6.64,0,0,1,.85-.55,12.58,12.58,0,0,1-.91,1Z" style="fill:#b96b29"/><path d="M384.43,144.09c-.53.55-1.3.72-1.41.5s.05-.4.5-.62A15.89,15.89,0,0,0,385,143a7.61,7.61,0,0,0,1-.77c.25-.25.54-.47.63-.39s-.73,1-1,1.11a7.08,7.08,0,0,0-1.22,1.11Z" style="fill:#b96b29"/><path d="M382.91,150.1c0-.22-.05-.33.39-.36s1.05-.11,1.05-.11.86-.33.91-.17-.72.5-1.05.55a3.54,3.54,0,0,0-.94.27c-.2.11-.36,0-.36-.19Z" style="fill:#b96b29"/><path d="M382.25,156.63c.94,0,1.74-.22,1.8-.08s-.44.36-.91.53a8.38,8.38,0,0,1-2,.25c-.61,0-.72-.11-.69-.41S381.3,156.63,382.25,156.63Z" style="fill:#b96b29"/><path d="M374.89,163.78c.14-.14.47,0,1,.08a9,9,0,0,0,1.88.25l1.58-.06.61.14c0,.14-.8.11-2,.25a7.51,7.51,0,0,1-2.49-.19c-.55-.08-.75-.33-.61-.47Z" style="fill:#b96b29"/><path d="M371.85,168.87a3.73,3.73,0,0,0,1.44.28,12.65,12.65,0,0,1,1.49.19s.5.06.42.25-.25,0-.69-.06-.77,0-1.55,0a9,9,0,0,1-1.69-.3c-.47-.08-1-.33-.75-.64s.75.08,1.33.31Z" style="fill:#b96b29"/><path d="M365.93,172.72a18.59,18.59,0,0,0,1.6,1.19,4.87,4.87,0,0,0,.75.44c.5.25.47.36.39.5s-.39-.19-.66-.3a10.9,10.9,0,0,1-1.66-1.11c-.47-.39-1.08-.69-1-1s.22-.08.55.25Z" style="fill:#b96b29"/><path d="M375.78,122.87a11.45,11.45,0,0,1-1.13,1.53c-1,1.28-.48.07-.22-.25s1.75-2.44,2.26-3,.58-.29.33.07S375.78,122.87,375.78,122.87Z" style="fill:#b96b29"/><path d="M377.93,129.43c-.15-.15.18-.29.77-1s1.75-2.22,1.75-2.22.33-.69.44-.62a3.39,3.39,0,0,1-.87,1.64c-.48.47-1.09,1.39-1.42,1.79s-.51.58-.66.44Z" style="fill:#b96b29"/><path d="M375.1,141.73c0-.36,1.15-.3,1.68-.41l1.46-.3s1.1-.19,1.13-.05-.22.27-.83.39-1.51.38-2.2.49-1.24.25-1.24-.11Z" style="fill:#b96b29"/><path d="M377.93,135.09a10.2,10.2,0,0,1-1.68,1.13c-.4.22-.73.55-.95.29s.18-.44.84-.73a5.15,5.15,0,0,0,1-.55l.69-.37c.33-.18.88-.4.11.22Z" style="fill:#b96b29"/><path d="M371.33,130.71a6,6,0,0,1,.88-.62s.58-.55.69-.37-.66.73-1,1.06-1,1.28-1.35,1.1S370.85,131.11,371.33,130.71Z" style="fill:#b96b29"/><path d="M375.64,147.85l1.05.28c.41.11.44.31-.3.31a8.1,8.1,0,0,1-1.8-.33c-.75-.14-1-.22-.89-.47s.5-.17.8-.08Z" style="fill:#b96b29"/><path d="M374.48,154.06c.05.14-.52,0-.91-.14s-1.19-.55-1.66-.69-.47-.22-.47-.5.5-.06,1.11.14a5.69,5.69,0,0,1,1.38.8s.5.25.55.39Z" style="fill:#b96b29"/><path d="M366.49,157.82c-.55-.33-.67-.58-.47-.75s.36-.14.8.22,1.3,1,1.3,1,.44.17.77.33.75.44.64.61-.8,0-1.16-.3a21.63,21.63,0,0,0-1.88-1.08Z" style="fill:#b96b29"/><path d="M362.72,162.81c-.22-.2-.88-.41-1.19-.64s-.5-.89-.25-1,.39.28.91.66,2.32,1.58,2.32,1.58l.47.19c.5.19.28.33-.14.28a2,2,0,0,1-1.19-.44C363.16,163.09,362.94,163,362.72,162.81Z" style="fill:#b96b29"/><path d="M357.14,167.54a6.76,6.76,0,0,1-1.49-1.11c-.33-.31-.75-.69-.5-.89s.52.06.91.41,1.41,1.44,1.41,1.44a2.54,2.54,0,0,1,.69.47c.55.44,0,.36-.22.17a2,2,0,0,0-.8-.5Z" style="fill:#b96b29"/><polygon points="334.39 96.59 332.14 94.99 334.79 94.31 336.49 95.67 334.39 96.59" style="fill:#d4af3a"/><ellipse cx="327.19" cy="94.72" rx="2.15" ry="2.07" style="fill:#b96b29"/><ellipse cx="327.19" cy="94.28" rx="1.3" ry="1.24" style="fill:#d4af3a"/><path d="M331.67,87.61a3.15,3.15,0,0,1-1.27.11s-.22-1,.31-1.42,1-.8,1.31-1.11a4.85,4.85,0,0,0,.38-.41s0,.82,0,1.34a1.52,1.52,0,0,1-.77,1.48Z" style="fill:#d4af3a"/><ellipse cx="330.53" cy="88.65" rx="0.39" ry="0.37" style="fill:#d4af3a"/><path d="M333.46,88.25a7.58,7.58,0,0,0,.52.6,1.61,1.61,0,0,0-.8.27,1.9,1.9,0,0,1-1.24.43.59.59,0,0,1-.51-.73c.09-.28.29-.58,1-.84S333.29,88,333.46,88.25Z" style="fill:#d4af3a"/><path d="M332,90.76c1.35.12,3.13-1.37,3.13-1.37a2.29,2.29,0,0,0,2,2l-.1.05a8.47,8.47,0,0,1-2.3.73,4.64,4.64,0,0,1-1.67-.13,7.06,7.06,0,0,1-2-.63c-.81-.5-.57-1.8-.57-1.8s.12,1,1.47,1.11Z" style="fill:#d4af3a"/><path d="M337.21,89.4a10.31,10.31,0,0,1,1.73-.62c.35,0,.85-.1.76.54a1.3,1.3,0,0,1-1.38,1,2.43,2.43,0,0,1-1.35-.42C336.58,89.68,336.65,89.61,337.21,89.4Z" style="fill:#d4af3a"/><path d="M341.43,87.11a3.5,3.5,0,0,1,1.14-.55,3.12,3.12,0,0,1,.17,1.68,1.14,1.14,0,0,1-1.26.8c-.57,0-1.42-.31-1.18-.75A3.38,3.38,0,0,1,341.43,87.11Z" style="fill:#d4af3a"/><ellipse cx="340.88" cy="90.04" rx="0.47" ry="0.34" style="fill:#d4af3a"/><path d="M339.59,84.86a7.39,7.39,0,0,0-1.37-6.16,10.21,10.21,0,0,0-4.61-3.46,9,9,0,0,0-1-1.18,19.83,19.83,0,0,0-2.83-2.24s2.2.54,3.46.94c0,0,0,0,0,.07a1.53,1.53,0,0,0,1.51,1.54,1.49,1.49,0,0,0,.86-.27,15.32,15.32,0,0,1,3.52,2,1.55,1.55,0,0,0-.23.81,1.53,1.53,0,0,0,1.51,1.54,1.46,1.46,0,0,0,.69-.17l.19.33a15.58,15.58,0,0,1,1.08,2.48,1.61,1.61,0,0,0-.65,1.34A1.44,1.44,0,0,0,343,83.93a5.23,5.23,0,0,1,0,1c-.06.5-.25.81-1.12,1.06s-2.05,1.77-2.05,1.77a3.46,3.46,0,0,1-.25-2.89Z" style="fill:#d4af3a"/><path d="M334.23,73.51a.57.57,0,0,1-.12-.88.82.82,0,0,1,1,.06.57.57,0,0,1,.12.88A.82.82,0,0,1,334.23,73.51Z" style="fill:#d4af3a"/><path d="M339.87,77.32a.77.77,0,0,1-.14-1.1.86.86,0,0,1,1.16.08.77.77,0,0,1,.14,1.1A.86.86,0,0,1,339.87,77.32Z" style="fill:#d4af3a"/><ellipse cx="343.23" cy="82.11" rx="0.87" ry="0.86" style="fill:#d4af3a"/><path d="M324.43,70A10.83,10.83,0,0,1,327,71h0a1.41,1.41,0,0,0-1.55,1.28,1.7,1.7,0,0,0,1.66,1.5,1.49,1.49,0,0,0,1.46-1.48,1.12,1.12,0,0,0-.11-.48c.37.23.77.48,1.19.77A11.66,11.66,0,0,1,334.39,78c1.37,2.55,1.87,5.35,1.28,7s-2.77,2-2.8,2a1.38,1.38,0,0,0,.28-.56A4.9,4.9,0,0,0,333,85.3a7,7,0,0,1,0-1.37.94.94,0,0,0-.78.28c-.28.34-.69.75-1,1.09a12.85,12.85,0,0,1-1,1,2.68,2.68,0,0,1-.44-1.37c0-.75.5-1.56.59-2.86a9.35,9.35,0,0,0-1.87-5.35,15.05,15.05,0,0,0-4.39-3.61,1.4,1.4,0,0,1-.87-1.18c0-.31-.09-.53-.15-1.31s.65-.75,1.37-.59Z" style="fill:#d4af3a"/><path d="M327.18,73a1,1,0,0,1-.94-.85.79.79,0,0,1,.87-.72.82.82,0,0,1,.89.73A.84.84,0,0,1,327.18,73Z" style="fill:#d4af3a"/><path d="M323.06,89.25a2.07,2.07,0,0,1-1.78-.12.75.75,0,0,1-.05-1.19,1.34,1.34,0,0,1,1.43-.12c.39.22,1.26.83,1.26.83A1.79,1.79,0,0,1,323.06,89.25Z" style="fill:#d4af3a"/><path d="M320.92,90a1.16,1.16,0,0,0,1.16.63,2.69,2.69,0,0,0,2-.5,5.12,5.12,0,0,0,.82-1.16l.84,0a4,4,0,0,0,.64,1.49,2.36,2.36,0,0,0,2.23,0c.56-.42,1.08-.94,1.18-.87s0,.49-.58,1a2.52,2.52,0,0,1-1.92.81H322s-1.08.06-1.39-.58-.32-1.05-.18-1.21.24.11.48.49Z" style="fill:#d4af3a"/><path d="M329,89.1c-.8.44-1.24.17-1.53-.18a2,2,0,0,1-.35-.52,8.91,8.91,0,0,0,1.12-.49c.37-.21.61-.42,1-.38s.42.1.42.1A1.51,1.51,0,0,1,329,89.1Z" style="fill:#d4af3a"/><ellipse cx="332.86" cy="81.24" rx="1.77" ry="1.76" style="fill:#b96b29"/><path d="M329.78,75.14a1.79,1.79,0,0,1,2.33.43,1.45,1.45,0,0,1-.24,2.16,1.79,1.79,0,0,1-2.33-.43A1.45,1.45,0,0,1,329.78,75.14Z" style="fill:#b96b29"/><ellipse cx="332.93" cy="81.01" rx="1.03" ry="0.98" style="fill:#d4af3a"/><path d="M330.52,75.34a1.18,1.18,0,0,1,1.26.5c.24.4,0,.83-.62,1-1.12.23-1.65-1.18-.64-1.46Z" style="fill:#d4af3a"/></svg>