<svg xmlns="http://www.w3.org/2000/svg" viewBox="0 0 1200 600"><title>Montserrat</title><rect width="1200" height="600" style="fill:#012169"/><path d="M0,300H600V0h600V600H0Z" style="fill:#012169"/><path d="M769.47,147.53h256.88L1026,330.31c2.14,73.48-43.66,119.08-127.93,139.63-59.83-14.86-128.84-45.6-128.94-137.55l.31-184.87Z" style="fill:#fff"/><path d="M775.15,153h245.49l-.29,175.15c2,70.41-41.73,114.1-122.26,133.8C840.9,447.76,775,418.3,774.86,330.19L775.16,153Z" style="fill:#00a2bd;stroke:#000;stroke-width:1.8125px"/><path d="M1018.74,348.94c-8.93,67.21-60.69,96.58-120.66,112.16-53.07-14.24-110.17-37-121.24-111.82l241.9-.34Z" style="fill:#a53d08"/><path d="M888.36,185.66,888,163.59l17.46.17.17,21.9h47.74l.17,17.11-47.91.17-.38,201.82-17,.11L888,202.78l-47.58.17V185.49Z"/><path d="M849.71,357.27l43.7,45.34c15.11-16.61,4.63-78.7-15.25-90.13-2.38,7.35-6.43,16.17-10.74,19-9.47,6.46-32.69,14-24.93,18.84,1.77-2.45,6.4-4.76,8.58.68,2.59,8.58-9.67,9.12-9.67,9.12s-7.76-1-9.12-8.85,11.56-15.1,12.66-15.66,18-4.9,20.83-19.88c3.54-14.7,7.22-12.53,7.9-12.8,22.05,2.18,36.49,41.66,37.3,69.44s-11.3,46.15-13.48,47.38S844.95,360,844.95,360l4.77-2.72Z" style="fill:#ff9a08;stroke:#000;stroke-width:0.9675999879837036px"/><path d="M881.57,315.06l.27,81.82" style="fill:#ff9a08;stroke:#000;stroke-width:0.9675999879837036px"/><path d="M876.67,316.56c0,.14.27,74.34.27,74.34" style="fill:#ff9a08;stroke:#000;stroke-width:0.9675999879837036px"/><path d="M871.36,327.31l.27,59.09" style="fill:#ff9a08;stroke:#000;stroke-width:0.9675999879837036px"/><path d="M867,331.53l.27,48.88" style="fill:#ff9a08;stroke:#000;stroke-width:0.9675999879837036px"/><path d="M862.38,333.71V375" style="fill:#ff9a08;stroke:#000;stroke-width:0.9675999879837036px"/><path d="M857.34,337v32.67" style="fill:#ff9a08;stroke:#000;stroke-width:0.9675999879837036px"/><path d="M853,339.57v25.05" style="fill:#ff9a08;stroke:#000;stroke-width:0.9675999879837036px"/><path d="M849,362.44,894.1,414" style="fill:none;stroke:#ffdf00;stroke-linecap:round;stroke-width:0.9675999879837036px"/><path d="M896.28,329.9s20.42,44.66,1.5,81.42" style="fill:none;stroke:#ffdf00;stroke-linecap:round;stroke-width:1.8125px"/><path d="M843.72,353s1.5-3.95,3.4-2.31" style="fill:none;stroke:#ffdf00;stroke-linecap:round;stroke-width:1.8125px"/><path d="M840.18,341.61s-8.17,7.22-3.68,11.85" style="fill:none;stroke:#ffdf00;stroke-linecap:round;stroke-width:1.8125px"/><path d="M905.78,228c3-2.59,4.6-4.18,6.47-3.89a15.56,15.56,0,0,0,6.3-.43c1.88-.58,11.18-1.73,15-.43,1.3.14,3,.87,5.69,3.1s6.56,6.13,5.27,16.94-.87,15.44-1.44,21.48c-1,10.67-3.37,19.46-7.64,18.74,5.77,10.09,6.34,18.74,10.09,25.67s6.06,21.05,4.61,36.33-5.47,49.6,6.63,72.67c-2,1.44-6.92,0-11.25-4.61s-6.22-4.46-9.8-1.73c-11,8.36-21.22,18.44-36.33,8.36-3.46-2.31-4.56-5.07-2-12.11,6.34-17.59,9.42-41.72,8.42-53.06V228Z" style="fill:#008021;stroke:#000;stroke-width:0.3986999988555908px"/><path d="M916.17,217.23a11.94,11.94,0,0,1-.08,8.51c-1.3,2.88-1.58,6.34.58,10.53,3.46-4.9,8.37-3.89,11.25-6.78s3.46-5.62,5.63-6.2c-2.16-1.87-5.48-3.89-4.76-9.37s8.36-9.95,1.44-18.31a10.14,10.14,0,0,0-13.77-1.8,10,10,0,0,0-2.88,3.32c-.44.94.11,3.07-.94,4.33a14.17,14.17,0,0,1-2.59,2.45c-.65.47-1.05,1.15-.36,1.95.28.32.78.39,1.34.58a11.28,11.28,0,0,1-1.05,1.76c-.34.44-.2.86.22,1.22-.54,1.73.51,1.92-.22,3.22-.63,1.12-1.47,2.45.87,3.75a13.54,13.54,0,0,0,5.34.87Z" style="fill:#ffe1cf;stroke:#000;stroke-width:0.3986999988555908px"/><path d="M888.13,245.92c-4,1-10.53-.72-15.43-.14-2.16.26-3.89-.86-3.6-3a32.76,32.76,0,0,0,.14-8.51c-.67-4.72,1.59-11.25,4.76-18.46s4.76-11.25,4.76-14.63c0-2.23.22-4.76,2.23-6.06a6.76,6.76,0,0,0,2.31-2.67c1.22-1.8,2.37-2.23,2.52-1.15a3,3,0,0,1-.72,2.09c1.3-1.08,3.5-2.34,4-2.7s3.07-2.16,3.21-.47c1-.5,1.7-.47,1.95.07s.11.83-.4,1.26c.72-.14,1.55,1.12.11,2.23.76-.25,1.51,1,.18,2.16s-3,2-3.46,3-3.93,3.57-5.3,4.15-1.44,1.37-1.44,3.39c0,22.2-2.66,20.4-2.66,25.74,0,1.44-.29,2.74,1.15,2.31a20,20,0,0,1,5.7-1.08v12.54Z" style="fill:#ffe1cf;stroke:#000;stroke-width:0.3986999988555908px"/><path d="M889,293.79c6.52-3.26,14-4.47,17.88-5.48s10.1-4,13.12-5.62,5.48-3.75,7.21-4.33a8.12,8.12,0,0,0,4.76-3.89c5.62-11,8.65-19.75,8.65-27.4,0-5-1.3-10.67-6.2-6.63-4.61,3.8-9.63,11.11-11,16.44-2,8.07-3.75,9.8-4.18,11.39s-2.06,1.58-4,2c-8.51,1.87-10.53,3.17-16.87,7.93a170,170,0,0,1-17.88,11.54c-4.61,2.6-5.47,2.88-6.49,5a19.91,19.91,0,0,1-2.81,4.61,3.64,3.64,0,0,0-.94,3.17c.15.94-.29,5.26-.36,6.7s.28,1.8.87,1.87,1.37-.22,1.66-1.95c-.29,1.73,2.09,1.15,2.23-.14-.08,1.87,2.45.79,2.59-.94,0,1.23,1.91.38,2.09-.22a28.28,28.28,0,0,1,1.37-4.18c.84-1.67,1.74-3.84,3.39-5,1.87-1.37,1-2.88,4.9-4.83Z" style="fill:#ffe1cf;stroke:#000;stroke-width:0.3986999988555908px"/><path d="M935.7,411.88c.44,1.59,1.23,3.39,1.51,4.47s-.22,1.42-.5,2a41,41,0,0,0-3.39,11,10.89,10.89,0,0,1-1.73,4c-.56,1-.34,1.83.94,2.81.61.47,2.59-.14,2.81-1.15a1.67,1.67,0,0,0,2.59-.65c.65.65,1.73.22,2.46-.86.65.43,1.58-.43,1.94-1,1,.51,2.09-.11,2.13-2.09a3.69,3.69,0,0,1,.54-1.55,4.42,4.42,0,0,0,.36-2.16,7.76,7.76,0,0,1,1.15-3.5c.68-1.12,1.87-3.1,1.37-5s-1.22-1.59-1.87-4.11c-1.58-1.66-3.75-4-6-4.11s-3.53,1.37-4.33,1.87Z" style="fill:#ffe1cf;stroke:#000;stroke-width:0.3986999988555908px"/><path d="M894.68,424.28c2,2,6.56,2.09,9.73-1.3a26.36,26.36,0,0,1-4.83-2.59C898,422,896.2,423.77,894.68,424.28Z" style="fill:#ffe1cf;stroke:#000;stroke-width:0.3986999988555908px"/><path d="M915.09,195c.79-5.12,4.42-5,6.7-4.47a12.59,12.59,0,0,0,5.41-.14c4.28-1.14,7.5.36,7.07,4.47a5.68,5.68,0,0,1,2.16,4.61c-.22,1.73.15,2.45,1.73,2.67s5,2.16,2.73,4.9c2.16,1.3,3.82,4.61,2.67,6.85a3.69,3.69,0,0,1-6.06.58c-1.58.72-4.18.87-5.77-.79-1.08,1.3-3.82,1.15-4.33,0a3.62,3.62,0,0,0-2.37-2.09c-1.16-.36-1.23-3.53.5-3.89a3.21,3.21,0,0,1,.29-2.52c.43-.5.07-1.44-.94-2.24s-1.87-3.82-.87-5.48c-1.73.58-5.55-1.08-6.34-2.23S915.81,194,915.09,195Z" style="fill:#870f00;stroke:#000;stroke-width:0.3986999988555908px"/><path d="M916.17,217.23c2.81-.36,3.75-2.09,5.84-1.95" style="fill:none;stroke:#000;stroke-width:0.3986999988555908px"/><path d="M910.18,209.4a3.81,3.81,0,0,0,.68.44,4.78,4.78,0,0,0,1.77.41" style="fill:none;stroke:#000;stroke-width:0.3986999988555908px"/><path d="M911,206.42a2.88,2.88,0,0,1,1.18.72" style="fill:none;stroke:#000;stroke-width:0.3986999988555908px"/><path d="M917.54,195c-1.66-1.59,2.81-4.83,7.5-.22.87.86,3.09.87,3.75.65" style="fill:none;stroke:#000;stroke-width:0.3986999988555908px"/><path d="M924,197.48c2.16-.51,5.41-.51,6.34,1.95s2.82.87,4.33,3.75,3.89,6.13,6.2,3.89" style="fill:none;stroke:#000;stroke-width:0.3986999988555908px"/><path d="M931.74,213.7a5.09,5.09,0,0,1-.51-4c-.87-1-.51-3.1,0-4.11" style="fill:none;stroke:#000;stroke-width:0.3986999988555908px"/><path d="M925.54,207.71a3.73,3.73,0,0,0,3,2.74" style="fill:none;stroke:#000;stroke-width:0.3986999988555908px"/><path d="M937.51,214.49c-1-1.3-.87-2.45-.65-4" style="fill:none;stroke:#000;stroke-width:0.3986999988555908px"/><path d="M927,200.15a3.91,3.91,0,0,0,2.09,3.6,4.48,4.48,0,0,0,4.61,2.45" style="fill:none;stroke:#000;stroke-width:0.3986999988555908px"/><path d="M934.27,194.88a13.61,13.61,0,0,0-6.56-3.11" style="fill:none;stroke:#000;stroke-width:0.3986999988555908px"/><path d="M916.67,236.26c-2.45,3.32-4,7.93-2.88,14.42s3,16-1.73,20.33" style="fill:none;stroke:#000;stroke-width:0.3986999988555908px"/><path d="M935.42,283.55c-3.32-.72-8.08-.72-10.67,1.15a10.29,10.29,0,0,1-9.8.58" style="fill:none;stroke:#000;stroke-width:0.3986999988555908px"/><path d="M928.42,283.34c-2.89.5-4.25,2.52-4.25,7.86S923,304.32,924,312" style="fill:none;stroke:#000;stroke-width:0.3986999988555908px"/><path d="M923.16,285.57c-1.87.5-3.82.58-3.46,5.62" style="fill:none;stroke:#000;stroke-width:0.3986999988555908px"/><path d="M913.43,291.34c.07-3.1,1.15-6,3.17-5.48" style="fill:none;stroke:#000;stroke-width:0.3986999988555908px"/><path d="M934.19,291.92c.15-6.85-1.37-8.8-3.39-8.72,2.74.07,4.61.41,5.77,11.61.87,8.36,2.61,11.32,4.61,17.88,5.19,17,2.59,43.26,5.19,52.48" style="fill:none;stroke:#000;stroke-width:0.3986999988555908px"/><path d="M930.23,293.94c5.47,15.86,8.36,33.45-.58,61.71,6.05,16.73,12.11,28.84,13.26,35.76" style="fill:none;stroke:#000;stroke-width:0.3986999988555908px"/><path d="M912.92,331.42c1-3.6-2.59-4,.58-16.73,1.37-5.5,1.59-8.8.72-10.53" style="fill:none;stroke:#000;stroke-width:0.3986999988555908px"/><path d="M914.22,311.67c-1.3,5.62,4.18,16.15,1.44,23.79" style="fill:none;stroke:#000;stroke-width:0.3986999988555908px"/><path d="M908.89,336.9c0,4.9,1.15,11.25.87,16.15s1.71,7.17,4,11.82c8.36,16.73,14.05,28.66,13.26,44.41-.14,2.88.87,8.94-2.16,10.67" style="fill:none;stroke:#000;stroke-width:0.3986999988555908px"/><path d="M909.1,424.21c.87.07,1.8-.36,2.89-3s4.54-18.17,3.1-28.84" style="fill:none;stroke:#000;stroke-width:0.3986999988555908px"/><path d="M916.82,404.53c.43,3.32.43,10.09-1.73,15.43" style="fill:none;stroke:#000;stroke-width:0.3986999988555908px"/><path d="M922.3,394.58a46.56,46.56,0,0,1,.15,17.88" style="fill:none;stroke:#000;stroke-width:0.3986999988555908px"/><path d="M919.41,412.46c.15,2.88,1.44,10.09-.72,10.67" style="fill:none;stroke:#000;stroke-width:0.3986999988555908px"/><path d="M930.23,379c5.33,8.36,9.51,29,14,33.31" style="fill:none;stroke:#000;stroke-width:0.3986999988555908px"/><path d="M934.84,409c-.15-2.31-.29-5.48-1.59-6.92" style="fill:none;stroke:#000;stroke-width:0.3986999988555908px"/><path d="M877.24,308.07c.07-1.59-.22-3.1,1.51-5.55" style="fill:none;stroke:#000;stroke-width:0.3986999988555908px"/><path d="M874.65,309c.22-5.55.14-6.06,1.73-7.57" style="fill:none;stroke:#000;stroke-width:0.3986999988555908px"/><path d="M872.41,309.15c.07-4-.44-5.33,1.15-7.86" style="fill:none;stroke:#000;stroke-width:0.3986999988555908px"/><path d="M892.3,190.2c-.61.4-4.22,3.14-5.73,4.29" style="fill:none;stroke:#000;stroke-width:0.3986999988555908px"/><path d="M893.85,191.53c-.68.11-2.66,1.73-6.2,4.47" style="fill:none;stroke:#000;stroke-width:0.3986999988555908px"/><path d="M894,193.76c-1.11.5-3.24,2.56-5.19,3.93" style="fill:none;stroke:#000;stroke-width:0.3986999988555908px"/><path d="M885.09,193.37c-.54.4-1.58,1.55-2.09,1.95" style="fill:none;stroke:#000;stroke-width:0.3986999988555908px"/><path d="M935.34,435c-.32-.36-.32-1.62.25-3" style="fill:none;stroke:#000;stroke-width:0.3986999988555908px"/><path d="M937.94,434.37c-.39-.4,0-2.13.4-3.24" style="fill:none;stroke:#000;stroke-width:0.3986999988555908px"/><path d="M940.39,433.51c-.47-.22-.61-1.23.07-2.6" style="fill:none;stroke:#000;stroke-width:0.3986999988555908px"/><path d="M942.34,432.5c-.32-.11-.47-.65.11-2.23" style="fill:none;stroke:#000;stroke-width:0.3986999988555908px"/><path d="M914,199.57c1,1.37,2.13,1.22,2.32,2.11a2.05,2.05,0,0,0,.53,1.21c.2.26-.49.21-.84.07a6,6,0,0,0-1.7-.12c-.51,0-1.13-.6-.74-.67s.33-.19.27-.46a.93.93,0,0,1,.37-.77c.16-.08.05-.06-.09-.42s-.34-1.24-.12-.94Z"/><path d="M914.6,198.31a7.54,7.54,0,0,1,4.28,2c.86,1,.16.7-.28.74a2.38,2.38,0,0,1-1.72-.81,5.83,5.83,0,0,0-2.37-1.41c-.41-.11-.8-.6.09-.5Z"/><path d="M0,0H600V300H0Z" style="fill:#012169"/><path d="M0,0V33.54L532.92,300H600V266.4L67.08,0ZM600,0V33.54L67.08,300H0V266.4L532.92,0Z" style="fill:#fff"/><path d="M250,0V300H350V0ZM0,100V200H600V100Z" style="fill:#fff"/><path d="M0,120v60H600V120ZM270,0V300h60V0ZM0,300,200,200h44.72l-200,100ZM0,0,200,100H155.28L0,22.36ZM355.28,100l200-100H600L400,100ZM600,300,400,200h44.72L600,277.64Z" style="fill:#c8102e"/></svg>