<svg xmlns="http://www.w3.org/2000/svg" viewBox="0 0 900 600"><title>Mozambique_Final</title><rect width="900" height="600"/><rect width="900" height="206.25" style="fill:#fff"/><rect width="900" height="187.5" style="fill:#007168"/><rect y="393.5" width="900" height="206.5" style="fill:#fff"/><rect y="412.5" width="900" height="187.5" style="fill:#fce100"/><path d="M0,0V600L393.75,300Z" style="fill:#d21034"/><path d="M204.37,412.48l-73.15-53.56L58.16,412.5l28.33-86.12L13,273.45l90.66.33,27.61-86.28L159,273.83l90.59-.4-73.54,53Z" style="fill:#fce100"/><path d="M67.72,352.43h52.7c4.24,4.76,13.7,6.7,22.71-.06,16.52-9,48.47.06,48.47.06l6.29-6.69L182.56,295.4l-5.51-5.9s-11.8-7.08-34.22-4.72-30.28-.79-30.28-.79-19.66,2.36-25.17,5.11c-.61.49-6.29,6.29-6.29,6.29Z" style="fill:#fff;stroke:#000;stroke-linecap:round;stroke-linejoin:round;stroke-width:1.25px"/><path d="M78.34,339.45s50.34-6.29,64.89,13c-8.22,5.62-15.45,6.09-23.2.39,1.23-2.06,18.09-19.66,61-13.76" style="fill:none;stroke:#000;stroke-linecap:round;stroke-linejoin:round;stroke-width:1.25px"/><path d="M132.22,289.11l-.39,55.45m45.23-54.67,9.44,44M87.91,289.2l-5.24,22.72" style="stroke:#000;stroke-linecap:round;stroke-linejoin:round;stroke-width:1.25px"/><path d="M33.5,358.47,45.89,373a3.55,3.55,0,0,0,4,0L68.3,351l7.7-9.6a6,6,0,0,0,1.48-4.4l14.75-13.1c1.21.08,1.92.22,3.13.3-1.43-.37-2.47-1.06-1.35-2.63L97.32,319l2.57,3.31s-3.67,4.78-4,4.78h-4l-7.71,7,3.37,3,5,13.91,6.25-4.41-4-14.33,8.82-9.55-3.31-5.14,2.2-2.94s30.5,19.17,42.23,14c.32.11.71-13.7.71-13.7s-31.59-3.31-32.33-9.55,7-7,7-7l-3.31-4.78.74-2.57,5.51,7,12.49-10.65L209,371.16c4-1.63,4.87-2.61,5.14-6.61-.1-.1-72-82.65-72-82.65l5.51-5.88a4.34,4.34,0,0,0,1.47-3.67l8.45-7.35a10.46,10.46,0,0,1,5.51,4.41l23.23-19.69a3.67,3.67,0,0,0,3.73.54l38.4-36.86L186.58,243l-1.47-1.1c0-1.22,1.52-1.53,0-3.67s-4,1.84-4.41,1.84-6.06-2-7.31-4.56l-.41,6.76-10.65,9.92-8.08-.37L142.5,263.16l-1.5,4.41,1.84,3.67s-6.25,5.51-6.25,5.14-1.26-1.62-1.32-1.79l5.36-4.83.73-3.31-1.79-2.79c-.54.39-7.4,7.57-7.76,6.83L112,248.1l1.1-4-12.49-13.59c-4.55-1.57-11.76-1.84-13.22,8.08-1.14,2.33-10.65.37-10.65.37l-5.14,1-29,41.14,16.16,19.47,33.06-41.88,1-11.86,6.94,7.76a11,11,0,0,0,6.61-.73L126,275.76,122.67,279c1.1,1.22,1.86,2,3,3.23,1.1-.73,2.15-1.62,3.26-2.35.37.49,1,1.42,1.35,1.91-1.64.89-2.79,2.08-4.43,3-2.63-1.71-5.16-3.84-5-7.24l-11,9.18-.37,1.84L76.75,315.69l-2.94.37-.73,8.45,21.31-17.63V304.3l2.2,1.84,16.53-13.22s1.1,1.47.74,1.47-14.69,13.22-14.69,13.22l-.37,1.47-2.57,2.2-1.47-1.1L74.91,327.81H72l-11,11c-2.84.25-5.31.55-7.71,2.2Z" style="stroke:#000;stroke-linecap:round;stroke-linejoin:round;stroke-width:1.25px"/></svg>