<svg xmlns="http://www.w3.org/2000/svg" viewBox="0 0 900 600"><title>Namibia_Final</title><path d="M0,600V0H900Z" style="fill:#003580"/><path d="M900,0V600H0Z" style="fill:#009543"/><path d="M180,112.92a50.5,50.5,0,1,0,50.5,50.5h0A50.56,50.56,0,0,0,180,112.92Z" style="fill:#ffce00"/><path d="M238,178.91l42-15.5-42-15.5,28.6-34.5L222.4,121,230,76.8l-34.5,28.6L180,63.4l-15.5,42L130,76.82l7.6,44.2-44.2-7.6,28.6,34.5-42,15.5,42,15.5-28.6,34.5,44.2-7.6L130,250l34.5-28.6,15.5,42,15.5-42L230,250l-7.6-44.2,44.2,7.6Zm-58,44a59.5,59.5,0,1,1,59.5-59.5,59.5,59.5,0,0,1-59.5,59.5Z" style="fill:#ffce00"/><polygon points="900 0 737.75 0 0 491.83 0 600 162.25 600 900 108.17 900 0" style="fill:#fff"/><polygon points="900 0 778.31 0 0 518.88 0 600 121.69 600 900 81.13 900 0" style="fill:#d21034"/></svg>