<svg xmlns="http://www.w3.org/2000/svg" viewBox="0 0 1200 600"><title>New_Zealand</title><rect width="1200" height="600" style="fill:#012169"/><path d="M900,105.25v22.7l45.4-22.7Z" style="fill:#fff"/><path d="M908.67,131.93l-13.34-18.36,50.07-8.32Z" style="fill:#fff"/><path d="M900,105.25v22.7l-45.4-22.7Z" style="fill:#fff"/><path d="M891.33,131.93l13.34-18.36-50.07-8.32Z" style="fill:#fff"/><path d="M914,115.44l-21.59,7,35.62,36.16Z" style="fill:#fff"/><path d="M891.33,131.93l13.34-18.36,23.39,45.05Z" style="fill:#fff"/><path d="M886,115.44l21.59,7L900,72.26Z" style="fill:#fff"/><path d="M914,115.44l-21.59,7L900,72.26Z" style="fill:#fff"/><path d="M886,115.44l21.59,7-35.62,36.16Z" style="fill:#fff"/><path d="M908.67,131.93l-13.34-18.36-23.39,45.05Z" style="fill:#fff"/><path d="M900,110.25v15l30-15Z" style="fill:#c8102e"/><path d="M905.73,127.89l-8.82-12.14,33.09-5.5Z" style="fill:#c8102e"/><path d="M900,110.25v15l-30-15Z" style="fill:#c8102e"/><path d="M894.27,127.89l8.82-12.14L870,110.25Z" style="fill:#c8102e"/><path d="M909.27,117,895,121.62l23.54,23.9Z" style="fill:#c8102e"/><path d="M894.27,127.89l8.82-12.14,15.45,29.77Z" style="fill:#c8102e"/><path d="M890.73,117,905,121.62l-5-33.17Z" style="fill:#c8102e"/><path d="M909.27,117,895,121.62l5-33.17Z" style="fill:#c8102e"/><path d="M890.73,117,905,121.62l-23.54,23.9Z" style="fill:#c8102e"/><path d="M905.73,127.89l-8.82-12.14-15.45,29.77Z" style="fill:#c8102e"/><path d="M1018.83,210.17v20.2l40.4-20.2Z" style="fill:#fff"/><path d="M1026.55,233.92l-11.87-16.34,44.56-7.4Z" style="fill:#fff"/><path d="M1018.83,210.17v20.2l-40.4-20.2Z" style="fill:#fff"/><path d="M1011.12,233.92,1023,217.58l-44.56-7.4Z" style="fill:#fff"/><path d="M1031.32,219.24l-19.21,6.24,31.7,32.18Z" style="fill:#fff"/><path d="M1011.12,233.92,1023,217.58l20.81,40.09Z" style="fill:#fff"/><path d="M1006.35,219.24l19.21,6.24-6.73-44.66Z" style="fill:#fff"/><path d="M1031.32,219.24l-19.21,6.24,6.73-44.66Z" style="fill:#fff"/><path d="M1006.35,219.24l19.21,6.24-31.7,32.18Z" style="fill:#fff"/><path d="M1026.55,233.92l-11.87-16.34-20.81,40.09Z" style="fill:#fff"/><path d="M1018.83,215.18v12.5l25-12.5Z" style="fill:#c8102e"/><path d="M1023.61,229.87l-7.35-10.11,27.57-4.58Z" style="fill:#c8102e"/><path d="M1018.83,215.18v12.5l-25-12.5Z" style="fill:#c8102e"/><path d="M1014.06,229.87l7.35-10.11-27.57-4.58Z" style="fill:#c8102e"/><path d="M1026.56,220.79l-11.89,3.86,19.61,19.91Z" style="fill:#c8102e"/><path d="M1014.06,229.87l7.35-10.11,12.88,24.81Z" style="fill:#c8102e"/><path d="M1011.11,220.79l11.89,3.86L1018.83,197Z" style="fill:#c8102e"/><path d="M1026.56,220.79l-11.89,3.86,4.16-27.64Z" style="fill:#c8102e"/><path d="M1011.11,220.79l11.89,3.86-19.61,19.91Z" style="fill:#c8102e"/><path d="M1023.61,229.87l-7.35-10.11-12.88,24.81Z" style="fill:#c8102e"/><path d="M761.36,244.73v22.7l45.4-22.7Z" style="fill:#fff"/><path d="M770,271.42l-13.34-18.36,50.07-8.32Z" style="fill:#fff"/><path d="M761.36,244.73v22.7L716,244.73Z" style="fill:#fff"/><path d="M752.69,271.42,766,253.05,716,244.73Z" style="fill:#fff"/><path d="M775.39,254.93l-21.59,7,35.62,36.16Z" style="fill:#fff"/><path d="M752.69,271.42,766,253.05l23.39,45.05Z" style="fill:#fff"/><path d="M747.33,254.93l21.59,7-7.56-50.19Z" style="fill:#fff"/><path d="M775.39,254.93l-21.59,7,7.56-50.19Z" style="fill:#fff"/><path d="M747.33,254.93l21.59,7L733.3,298.1Z" style="fill:#fff"/><path d="M770,271.42l-13.34-18.36L733.3,298.1Z" style="fill:#fff"/><path d="M761.36,249.74v15l30-15Z" style="fill:#c8102e"/><path d="M767.09,267.37l-8.82-12.14,33.09-5.5Z" style="fill:#c8102e"/><path d="M761.36,249.74v15l-30-15Z" style="fill:#c8102e"/><path d="M755.63,267.37l8.82-12.14-33.09-5.5Z" style="fill:#c8102e"/><path d="M770.63,256.47l-14.27,4.64L779.9,285Z" style="fill:#c8102e"/><path d="M755.63,267.37l8.82-12.14L779.9,285Z" style="fill:#c8102e"/><path d="M752.09,256.47l14.27,4.64-5-33.17Z" style="fill:#c8102e"/><path d="M770.63,256.47l-14.27,4.64,5-33.17Z" style="fill:#c8102e"/><path d="M752.09,256.47l14.27,4.64L742.82,285Z" style="fill:#c8102e"/><path d="M767.09,267.37l-8.82-12.14L742.82,285Z" style="fill:#c8102e"/><path d="M900,463.62v25.2l50.4-25.2Z" style="fill:#fff"/><path d="M909.63,493.25l-14.81-20.39,55.59-9.24Z" style="fill:#fff"/><path d="M900,463.62v25.2l-50.4-25.2Z" style="fill:#fff"/><path d="M890.37,493.25l14.81-20.39-55.59-9.24Z" style="fill:#fff"/><path d="M915.57,474.94l-24,7.79,39.54,40.15Z" style="fill:#fff"/><path d="M890.37,493.25l14.81-20.39,26,50Z" style="fill:#fff"/><path d="M884.43,474.94l24,7.79L900,427Z" style="fill:#fff"/><path d="M915.57,474.94l-24,7.79L900,427Z" style="fill:#fff"/><path d="M884.43,474.94l24,7.79-39.54,40.15Z" style="fill:#fff"/><path d="M909.63,493.25l-14.81-20.39-26,50Z" style="fill:#fff"/><path d="M900,468.63v17.5l35-17.5Z" style="fill:#c8102e"/><path d="M906.68,489.2,896.4,475l38.6-6.41Z" style="fill:#c8102e"/><path d="M900,468.63v17.5l-35-17.5Z" style="fill:#c8102e"/><path d="M893.32,489.2,903.6,475,865,468.63Z" style="fill:#c8102e"/><path d="M910.82,476.49l-16.64,5.41,27.46,27.88Z" style="fill:#c8102e"/><path d="M893.32,489.2,903.6,475l18,34.73Z" style="fill:#c8102e"/><path d="M889.18,476.49l16.64,5.41L900,443.2Z" style="fill:#c8102e"/><path d="M910.82,476.49l-16.64,5.41L900,443.2Z" style="fill:#c8102e"/><path d="M889.18,476.49l16.64,5.41-27.46,27.88Z" style="fill:#c8102e"/><path d="M906.68,489.2,896.4,475l-18,34.73Z" style="fill:#c8102e"/><path d="M0,0H600V300H0Z" style="fill:#012169"/><path d="M0,0V33.54L532.92,300H600V266.4L67.08,0ZM600,0V33.54L67.08,300H0V266.4L532.92,0Z" style="fill:#fff"/><path d="M250,0V300H350V0ZM0,100V200H600V100Z" style="fill:#fff"/><path d="M0,120v60H600V120ZM270,0V300h60V0ZM0,300,200,200h44.72l-200,100ZM0,0,200,100H155.28L0,22.36ZM355.28,100l200-100H600L400,100ZM600,300,400,200h44.72L600,277.64Z" style="fill:#c8102e"/></svg>