<svg xmlns="http://www.w3.org/2000/svg" viewBox="0 0 600 450"><title>Papua_New_Guinea</title><rect width="600" height="450"/><path d="M0,0H600V450Z" style="fill:#ce1126"/><path d="M371.47,130.74c-4.43,5.72-14.92-5.76-27.48-6s-21.46,12-25.13,16.23-15.44,26.17-15.18,28.53,7.33-6.54,9.95-8.11c.26,3.14-2.88,6.8-2.09,7.85s9.16-6.28,12-6.54c.79,2.09-1.57,4.19-.79,7.33,1,1,5.76-5.23,8.9-6.54.52,2.36-2.88,6.8-1,9.68,1.31.26,9.16-8.9,11.78-9.95s-1.31,8.64,0,9.42c2.36-1.57,9.68-9.95,12-11s-.26,10.73.79,10.73c2.88-2.09,10.21-12,11-13.61s-.79,15.18,7.33,24.08,20.41,19.11,21.72,19.11c1.57-2.88-.52-8.9.79-8.64,3.66,3.93,10.47,9.68,12,9.68s-1-6.28,1-6.28c4.19,3.93,16.23,19.37,39.78,26.43-1.57-4.45-5-8.38-5.23-10.47,1.57.26,7.07,2.88,8.11,2.62s-11.52-15.7-10.73-17.8c2.88-.26,4.19,1.57,5.23.26C445,195.65,434,183.35,434,180.47s3.4.52,4.45,0-4.19-11.52-3.14-12.82,12.56,7.07,15.44,7.07.79-10.21,2.09-10.73,11,5.5,13.09,5.5,1.83-4.45,2.62-3.93,23.55,23.29,15.7,50c-7.85,19.11-23.55,29.31-46.59,20.94,1.31,2.09,13.61,12.3,27,8.64s29.57-14.13,27.74-40.3S481.92,175,480.61,171.05s2.09,1,5,2.09-.52-5.5-1.31-8.38,8.64,6,11,6.8-5.5-21.46-7.85-23,2.36.52,3.93,1-14.4-24.34-17.8-24.34,2.88-1.31,4.71-1.31-18.32-16.23-21.72-16.23,7.33-4.19,8.37-4.45c1.83.26-23.29-13.35-45.8.26-1.31-1,10.6-9.29,11-12.82.13-.92-3.92-2.88-4.19-3.93s6.28-4.19,6.54-6.54c-1.57-2.09-4.45-1.31-6-1.83-.39-2,5.5-6.8,5-8.9-.39-1.18-4.71-1.57-5.76-.79s2.75-5.5,2.09-7.33c-.52-.79-2.62-.26-4.71.26-1.31-.26,6.8-11.52,5.23-13.09S404.71,60.08,396.6,74.74s-1.83,26.43-2.88,31.41-2.36,9.95-5.76,9.95-11.25-5.23-13.87-7.85-3.14-4.45-6.8-5.5-12,2.09-15.18,2.36-15.44-2.36-16.23-1.57,12,5.5,14.92,7.07,3.14,3.66,5.23,5S377.75,122.63,371.47,130.74Zm76.68,36.9c6.28,6.28,48.68,34.55,48.68,69.09s-30.88,33.5-39.78,32.45c9.95,8.37,47.63,6.8,47.63-32.45,0-34.55-48.68-69.09-55-72.23S441.87,161.37,448.16,167.65Z" style="fill:#fcd116"/><path d="M172.07,327,181,298.24l8.95,29.1-23.57-17.84h29.23Z" style="fill:#fff"/><path d="M150.33,139.45,132.43,197l47.13-35H121.09l47.13,35.68Z" style="fill:#fff"/><path d="M81.58,227.34l-17.9,57.58,47.13-35H52.34l47.13,35.68Z" style="fill:#fff"/><path d="M218.75,221.09l-17.9,57.58,47.13-35H189.52l47.13,35.68Z" style="fill:#fff"/><path d="M150.33,346.09l-17.9,57.58,47.13-35H121.09l47.13,35.68Z" style="fill:#fff"/></svg>