<svg xmlns="http://www.w3.org/2000/svg" viewBox="0 0 1200 660"><title>Paraguay</title><path d="M0,0H1200V660H0Z" style="fill:#0038a8"/><path d="M0,0H1200V440H0Z" style="fill:#fff"/><path d="M0,0H1200V220H0Z" style="fill:#d52b1e"/><path d="M683.66,330A83.66,83.66,0,1,1,600,246.34,83.66,83.66,0,0,1,683.66,330Z" style="fill:#fff;stroke:#000;stroke-miterlimit:10;stroke-width:3.687000036239624px"/><path d="M640.45,317c-2-.08-2,2.16-2,2.16s.07-.66,0,.09.33,2.55,1.83,2.7,2.11-1.71,2.12-2.61c0-.36-.12-2.3-1.92-2.34" style="fill:#009b3a;stroke:#000;stroke-width:0.9850000143051147px"/><path d="M547.52,363.47l-.72-1.19a4.62,4.62,0,0,0-.56-.67.82.82,0,0,0-.55-.27,1,1,0,0,0-.65.13.93.93,0,0,0-.49.67,1.91,1.91,0,0,0,.39,1.2l.72,1.23Zm7.08-.41-9.1,5.41-2.78-4.67a7.86,7.86,0,0,1-1-2.12,2.37,2.37,0,0,1,.16-1.6,2.92,2.92,0,0,1,1.23-1.31,3.16,3.16,0,0,1,1.48-.46,3,3,0,0,1,1.43.36,4.56,4.56,0,0,1,1,.77,3.46,3.46,0,0,1-.11-.93,6,6,0,0,1,.22-.73,7.09,7.09,0,0,1,.31-.73l1.84-2.93,1.88,3.18-1.87,3.16a2.6,2.6,0,0,0-.4.92,1.49,1.49,0,0,0,.2.81l.16.26,3.69-2.19Zm-16-7.41-2.78-8.3,2.14-.72,1.74,5.2,1.61-.54-1.64-4.83,2.06-.67,1.62,4.81,2-.64-1.78-5.36,2.27-.77,2.82,8.46Zm.3-16.9-.11-.78a2,2,0,0,0-.47-1.28,1.13,1.13,0,0,0-.9-.28,1.3,1.3,0,0,0-.79.42,1.63,1.63,0,0,0-.19,1.28l.09.93Zm-4.12,3.79-.63-5.39a3.81,3.81,0,0,1,.52-2.73,3.21,3.21,0,0,1,2.29-1.15,3.26,3.26,0,0,1,2.6.66,4.28,4.28,0,0,1,1.24,2.82l.2,1.78,3.9-.45.38,3.26Zm-.37-20.64.34-3.25,6.28.68a5.52,5.52,0,0,1,1.71.48,3.54,3.54,0,0,1,1.36,1.07,3.76,3.76,0,0,1,.74,1.4,6.51,6.51,0,0,1,.1,2.31,11.92,11.92,0,0,1-.29,1.65,4.27,4.27,0,0,1-.59,1.47,3.85,3.85,0,0,1-1,1,3.32,3.32,0,0,1-1.29.55,5.82,5.82,0,0,1-1.81.11l-6.25-.66.34-3.26,6.42.7a1.69,1.69,0,0,0,2-1.6,1.78,1.78,0,0,0-.34-1.37,1.82,1.82,0,0,0-1.29-.62ZM544.91,313l.56-1.57a1.92,1.92,0,0,0,.1-1.24,1,1,0,0,0-.64-.58.91.91,0,0,0-.83.07,1.86,1.86,0,0,0-.67,1l-.56,1.58ZM541,311.63l.47-1.33a1.58,1.58,0,0,0,.09-1.1.87.87,0,0,0-.61-.52.91.91,0,0,0-.77,0,1.57,1.57,0,0,0-.58.89l-.5,1.37Zm-5,1.76,2-5.79a3.42,3.42,0,0,1,1.51-2,2.52,2.52,0,0,1,2-.15,2.56,2.56,0,0,1,1.32,1.1,1,1,0,1,0,1.72,0,2.61,2.61,0,0,1,1.78,0,2.93,2.93,0,0,1,1.26.84,3.14,3.14,0,0,1,.63,1.33,3.72,3.72,0,0,1-.09,1.28c-.17.74-.26,1.21-.35,1.43L546,316.87Zm5.39-13.55L543.1,297l6.81,4.13,2.65-4.36,2.22,1.36-4.32,7.14Zm7-10.41,2.1-2.51,8.07,6.82-2.11,2.51ZM563,283.74l2.75-1.18a5.47,5.47,0,0,1,.58,2.14,4.09,4.09,0,0,1-.39,1.92,6.47,6.47,0,0,1-1.53,1.82,7,7,0,0,1-2.5,1.42,4.66,4.66,0,0,1-2.59-.15,6.16,6.16,0,0,1-2.66-2,5.56,5.56,0,0,1-1.51-4,6.28,6.28,0,0,1,5.07-5,4.63,4.63,0,0,1,2.89.81l-1.81,2.34a2.19,2.19,0,0,0-.7-.34,1.59,1.59,0,0,0-.88,0,1.86,1.86,0,0,0-.8.4,1.92,1.92,0,0,0-.74,1.78,3.88,3.88,0,0,0,1,1.88,4,4,0,0,0,2,1.51,2.09,2.09,0,0,0,2.33-1.76,3.25,3.25,0,0,0-.43-1.62m10.7-6.36L571,274.52l.7,3.92Zm1.65,1.74-3.31,1.68.34,1.79-3,1.51-1.26-11.23,3.18-1.62,8.35,7.62-3,1.56Zm12.86-11,.81,5.71.79-.12a3.3,3.3,0,0,0,1.42-.42,1.56,1.56,0,0,0,.54-.89,4.66,4.66,0,0,0,0-1.84,3.57,3.57,0,0,0-.86-2.19,2.34,2.34,0,0,0-1.9-.35Zm-3.56-1.91,4.8-.69a5.84,5.84,0,0,1,2.33.06,3.84,3.84,0,0,1,1.62.9A4.58,4.58,0,0,1,594.5,268a7.43,7.43,0,0,1,.55,2,6.49,6.49,0,0,1,0,2.64,4.46,4.46,0,0,1-.83,1.72,3.52,3.52,0,0,1-1.34,1,7.33,7.33,0,0,1-1.9.58l-4.81.68Zm14.39-2,8.73.65-.16,2.25-5.46-.41L602,268.3l5.07.37-.18,2.14-5-.36-.15,2.06,5.62.42-.18,2.38-8.9-.66Zm13.45,1.23,3.14.88-2.17,7.68,4.91,1.39-.72,2.49-8.05-2.28Zm17.84,11.73.68.44a2.11,2.11,0,0,0,1.28.46,1,1,0,0,0,.78-.49,1.3,1.3,0,0,0,.2-.89,1.77,1.77,0,0,0-.86-1l-.78-.53Zm-.26-5.57,4.54,3a3.68,3.68,0,0,1,1.74,2.16,3.1,3.1,0,0,1-.59,2.5,3.21,3.21,0,0,1-2.17,1.55,4.18,4.18,0,0,1-3-.86l-1.49-1L627,282.16l-2.74-1.81Zm11.47,16.12,1.84-3.52-3.5,1.89Zm-1.12,2.1-2.65-2.61-1.6.88-2.38-2.33,4.88-2.26,5.38-2.49,2.53,2.5L642,293.78l-2.43-2.41Zm9.82,4.59.74,1.18a4.37,4.37,0,0,0,.58.66.87.87,0,0,0,.57.25.91.91,0,0,0,.63-.16,1,1,0,0,0,.49-.69,1.94,1.94,0,0,0-.44-1.18l-.76-1.21Zm-7.07.63,8.91-5.69,2.93,4.59a9,9,0,0,1,1.05,2.08,2.58,2.58,0,0,1-.14,1.61,2.93,2.93,0,0,1-1.17,1.34,2.78,2.78,0,0,1-1.49.5,3.22,3.22,0,0,1-1.44-.29,5.48,5.48,0,0,1-1-.75,3.71,3.71,0,0,1,.14.92,5.78,5.78,0,0,1-.19.73,3.86,3.86,0,0,1-.32.75l-1.72,3-2-3.12,1.79-3.2a2.22,2.22,0,0,0,.36-.95,1.17,1.17,0,0,0-.22-.8l-.14-.24L645,297.74Zm12.5,14.24,3.17-2.39-4,.22Zm-1.92,1.42-1.27-3.5-1.8.13-1.15-3.14,11.3.13,1.22,3.34-8.58,7.35-1.18-3.23Zm5.06,11.25,2.18-.29.63,5-4.47.54a10,10,0,0,1-1.64-2.37,8.27,8.27,0,0,1-.69-2.58,6.09,6.09,0,0,1,.27-3.12,4.43,4.43,0,0,1,1.66-2.08,6.43,6.43,0,0,1,2.8-1,5.92,5.92,0,0,1,3.08.34,4.64,4.64,0,0,1,2.19,1.82,6.56,6.56,0,0,1,.86,2.81,7.28,7.28,0,0,1,0,2.63,3.16,3.16,0,0,1-.8,1.56,4.09,4.09,0,0,1-1.55,1.06l-1-3a1.69,1.69,0,0,0,.82-.78,2.17,2.17,0,0,0,.17-1.21,2.25,2.25,0,0,0-1-1.61,3.65,3.65,0,0,0-2.44-.34,3.81,3.81,0,0,0-2.35.94,2.42,2.42,0,0,0-.5,1.89,3.41,3.41,0,0,0,.28,1,6.61,6.61,0,0,0,.68,1.08l1-.14Zm6.69,15.86-.37,3.24-6.25-.7a5.31,5.31,0,0,1-1.73-.49,3.81,3.81,0,0,1-1.35-1.07,3.75,3.75,0,0,1-.72-1.39A6.88,6.88,0,0,1,655,335c.07-.51.17-1.07.29-1.66a4.27,4.27,0,0,1,.62-1.46,4.14,4.14,0,0,1,1-1,3.64,3.64,0,0,1,1.3-.54,5.52,5.52,0,0,1,1.81-.1l6.26.71-.37,3.23-6.41-.74a1.85,1.85,0,0,0-1.41.33,1.78,1.78,0,0,0-.62,1.26,1.76,1.76,0,0,0,.33,1.37,1.92,1.92,0,0,0,1.28.65Zm-9.73,12,4,.14-3.22-2.35Zm-2.36-.12,1.21-3.51-1.48-1.06,1.1-3.16,8.69,7.22-1.2,3.38-11.27.28,1.11-3.24Zm5.84,9.73-1.84,3.13h-4.16l2,3.66-1.83,3.09-3.21-6.66-3.81-2.25,1.67-2.83,3.81,2.26Z"/><path d="M670,330a70,70,0,1,1-70-70,70,70,0,0,1,70,70Z" style="fill:none;stroke:#000;stroke-miterlimit:10;stroke-width:1.475000023841858px"/><path d="M652.09,329.75A52.11,52.11,0,1,1,600,277.65a52.1,52.1,0,0,1,52.11,52.1Z" style="fill:none;stroke:#000;stroke-miterlimit:10;stroke-width:1.475000023841858px"/><path d="M600,311l4.38,12.53,13.24.3-10.55,8,3.84,12.7L600,337l-10.91,7.55,3.82-12.7-10.57-8,13.27-.3Z" style="fill:#fedf00;stroke:#000;stroke-width:0.6019999980926514px"/><path d="M624.05,365.73a8.87,8.87,0,0,1-2.69.65c-.48.06-2.34.08-3.13.11-.43,0-1.27.15-1.71.15-3.83-.44,6.22-.37,7.53-.91m-10-3c.25-.45,1.51-3.24,2-4s1.5-2.86,2.12-3.72c.32-.47,1.57-1.82,1.87-1.22-2.17,1.88-3.89,5.16-4.8,7.37a18.19,18.19,0,0,1-1.1,1.79c-.26.32-.15.91-.55,1s-.13.13-.13.13.36-.81.64-1.28Zm14.43,2.14a19.17,19.17,0,0,1-2.8-.64,14.36,14.36,0,0,0-4.39-.6,12,12,0,0,0-4.14.95,10.28,10.28,0,0,1-2.82.5s-.9.14-.48-.07,1.8-1.29,1.8-1.29l.9-1.23c.26-.07,4.84-6.08,4.34-7.69.7-1.19,1.52-3.3,1.21-3.67a13.23,13.23,0,0,0-4.31,1.76,7.45,7.45,0,0,0-1.74,3.21c-.25.89-1.57,1.63-1.57,1.63-1.07.77-1.84,3.2-2.21,5.19S607,366,607,366s-1.34.5-.15.88c.21.06.74,1,1.16,1,.59.07,3.6-1.22,4.06-1.12q1.53.35,3,.83a4.44,4.44,0,0,0,2.9.29,5.92,5.92,0,0,1,2.85,0,5.17,5.17,0,0,0,2.37-.06,18.9,18.9,0,0,0,2.15-1s1.69-.73,2.66-1.19.38-.66.38-.66" style="fill:#009b3a;stroke:#000;stroke-width:0.7540000081062317px"/><path d="M615.3,370.74s-6.66-3.49-7-3.57-3-1.58-4.31-2a9,9,0,0,0-2.68-.35,20,20,0,0,0-2.89.56l1.66.68s1.55.76,2.31,1.17c1.09.57,1.14,1.27,1.14,1.27l6,2.65,1.22.88s1.11-1.54,4.53-1.32" style="fill:#009b3a;stroke:#000;stroke-width:0.6019999980926514px"/><path d="M622,356.9c2.1-1.87,3.12-4.53,4.85-6,.28.2.28.53-.06,1.12s-.76.78-1,1.08a24.75,24.75,0,0,0-1.69,1.87,3.61,3.61,0,0,1-1.49,1.72c-.91.54-.62,1.41-.7,1.77s-1.47,1.4-2.15,2.64c-.13,1.29-.19.75-1,1.21A54.56,54.56,0,0,0,622,356.9m-4.71,5.92c-.14.28-4.27,2.63-3,2.28s5.1-1.72,6.19-2.2c1.33-.58,2.12-1.8,3.12-2.78s4.16-4,4.71-5.18,1-2.85-1.12-6.58a4.79,4.79,0,0,1-1.13,1.41,20.87,20.87,0,0,1-2,1.5l-1.37,1.29s-4.83,8.88-5.47,10.26" style="fill:#009b3a;stroke:#000;stroke-width:0.7940000295639038px"/><path d="M634.09,359.7s-2.65-.24-2.88-.24-1.7-.2-3.81-.2a4.06,4.06,0,0,0-3.42,1.31c-.59.65-2.24,2.16-2.24,2.16l.89-.08a5.5,5.5,0,0,1,4.42-1.09,9.46,9.46,0,0,0,3.63-.71c2.15-.75,2,0,1.79,0a11.16,11.16,0,0,1-3.19.64c-1.6.09-3,.4-3.62.4s-5.29,1.27-5.29,1.27,5,.3,5.58.48a2.82,2.82,0,0,0,2.09-.22,15.06,15.06,0,0,1,3.6-1.24,7.07,7.07,0,0,0,1.75-.7,3.34,3.34,0,0,0,1-1.18c.48-.88-.28-.64-.28-.64m2.47-13.81a10.53,10.53,0,0,1,2-3.37,6.79,6.79,0,0,1,1.87-.86c.2-.07,1.65-.14-.16.36a3.75,3.75,0,0,0-2.21,1.4,10.84,10.84,0,0,1-2.36,4.4,8.84,8.84,0,0,0-1.41,2.08l-.92.32c1.69-1,2.43-3,3.24-4.34Zm8.19-1a4.78,4.78,0,0,0-1.3.59c-2.16.65-3,2-4,3.11-.48.58-1.16,1-3.43,2a18.23,18.23,0,0,0-3.73,2.28s-.66.14-.53.46c0,.15.61,0,.61,0s4.29-.61,6.08-1.7a7.82,7.82,0,0,0,2.87-2.91c.48-.74,1-2.13,1.05-1.23.08,2.37-3.6,4.67-5.21,5.38a16.84,16.84,0,0,1-3.5.76c-1.48.27-2.38.19-2.27-.14s.32-.57.72-1c.71-.84,2.41-1.14,3.66-1.73a10.92,10.92,0,0,0,3.6-2.48,4.31,4.31,0,0,0,1.17-1.87c.55-1.87.58-2.9,1.09-3.57,1.81-2.23,2.08-3,2.17-3.95,0-.23-.94.53-1.44.81a10.64,10.64,0,0,1-3.34,1.1c-2,.51-2,1.81-2.3,2.43a4.93,4.93,0,0,1-1.31,1.46,7.5,7.5,0,0,0-1.71,2.41c-.26.6-.74,1-1.11,1s.76-4.4,1-5.11a9.2,9.2,0,0,0,.33-2.56c0-.45,0-1.62-.77-1.76s-.82-1.21-.82-1.21c-1.88,1.63-.83,4.49-.63,6.18a21.51,21.51,0,0,1-.39,4.8c1.81.77.39,3-.18,3.69s-1.72.86-2.22,1.49-4.33,5.94-4.33,5.94l4.72-1.34s.44.08-.27-.46.23-2.5.84-3a3,3,0,0,1,2.73-.25,10.25,10.25,0,0,0,4.88-.73c2.24-.89,3.21-2.32,4.27-3.4a27.73,27.73,0,0,0,2.3-3.7c.4-.67,1.12-1.94.68-1.79" style="fill:#009b3a;stroke:#000;stroke-width:0.7540000081062317px"/><path d="M631.36,357.6c.36-.15.41-.21,1.08-.93a1.15,1.15,0,0,0-.93-1.89c-.49,0-1-.08-2,1.22s.45,1.78,1,1.83a2.17,2.17,0,0,0,.86-.23" style="fill:#009b3a;stroke:#000;stroke-width:0.8399999737739563px"/><path d="M628.92,349.36c-.63,1-1,2.25-.47,2.62a2,2,0,0,0,.91.44,3.17,3.17,0,0,0,2-1.4c.59-.88,1.07-1.84-.13-2.44a1.59,1.59,0,0,0-2.29.77" style="fill:#009b3a;stroke:#000;stroke-width:0.8579999804496765px"/><path d="M632.49,336.58s.1-.16-.31-.59a17.58,17.58,0,0,1-1.47-1.86,3.47,3.47,0,0,0-1.73,2.71,16.21,16.21,0,0,1,0,3.2,10.36,10.36,0,0,1-.78,2.58,4.91,4.91,0,0,0,.24,3.6c.11.52.65,2.12.65,2.12a4.06,4.06,0,0,1,.68-.36,5.32,5.32,0,0,1,.89,0,7.09,7.09,0,0,0,.81-2.2,16.55,16.55,0,0,0-.35-3.07,8.67,8.67,0,0,1-.1-4,3.82,3.82,0,0,1,1.46-2.06" style="fill:#009b3a;stroke:#000;stroke-width:0.7540000081062317px"/><path d="M634.43,338.77a1.89,1.89,0,0,0,1.11-.84,2.84,2.84,0,0,0,.34-1.66,1.5,1.5,0,0,0-2.68-.43c-1.37,2.81,1.22,2.93,1.22,2.93" style="fill:#009b3a;stroke:#000;stroke-width:0.828000009059906px"/><path d="M638.32,334.71c-1.7.09-2.54,3.15-2.54,3.15a3,3,0,0,1-1.18,1.34c-1,.6-.4,1.45-.4,3a15.94,15.94,0,0,1-1.06,4.22l-.4.91s0,.69.66-.56c1.06-2.1,2.21-1.59,2.65-3.84.28-1.68,3.05-2.21,3.05-2.21l-.78-.15c-2.89-1.35.17-4.73.66-5.33s1-.6-.66-.52" style="fill:#009b3a;stroke:#000;stroke-width:0.984000027179718px"/><path d="M637.83,338.35c-.78,1.67,1.44,1.75,2,1.46a4.8,4.8,0,0,0,.68-.68c.9-1.29.08-2.17-.39-2.3s-1.42-.27-2.23,1.51" style="fill:#009b3a;stroke:#000;stroke-width:0.8379999995231628px"/><path d="M633.61,331.85c.58,1.08,2.21,4.1,2.59,3.92s0-.73,0-.73a10.1,10.1,0,0,0-.31-1.8c-.26-1-.2-2.27-.72-3.09s-1.71-1.79-2.19-3.07a10.75,10.75,0,0,1-.06-4c0-.28.19-.1-.06-.39a17.51,17.51,0,0,0-2.31-1.41,13.58,13.58,0,0,1,.07,2.24c0,.35-.12.76-.17,1.37s.3,1.31,1.14,3c1,1.93,1.45,3.11,2,4m12.34-14.36a12.52,12.52,0,0,1-.8,1.21c-.22.22-3.57,3.1-3.76,3.22s-1.91.69-3.5,5a17.72,17.72,0,0,0-.91,8.3l.77-.1.13-.42.46-2.5c.22-1.07,1.42-2.55,2.21-3.65a15,15,0,0,0,1.36-2.62,39.34,39.34,0,0,1,2.22-4.69c0,1.5-5.68,10.74-6.29,13.89l1.69-.26a41.72,41.72,0,0,0,4.32-5.5,14.78,14.78,0,0,0,1.93-5.46c.21-1.15.16-6.4.16-6.4" style="fill:#009b3a;stroke:#000;stroke-width:0.7540000081062317px"/><path d="M634.56,318.44a5.06,5.06,0,0,0-1.53-1,25.25,25.25,0,0,1,.21,2.52c0,1,.08,2.56,0,3.42s-.46,2.27.15,3.66a24.57,24.57,0,0,0,1.82,2.92,39.8,39.8,0,0,1,1.28,5.22,69.42,69.42,0,0,1,0-7.59,16.55,16.55,0,0,0,0-5.49,8.94,8.94,0,0,0-1.86-3.62m3.94-5.78a9.57,9.57,0,0,0,1.12-3.14,17.64,17.64,0,0,0,.13-2.53c0-.51-.22-1.39,0-1.45s0,.27.14,1c.05.27-.13,1-.16,2a8.2,8.2,0,0,1-.41,2.42c-.29.9,0,1.91-.21,2.19s-.72,1.37-.72,1.37a4.79,4.79,0,0,0-.26,1.67c0,.82.08,1.7.08,1.7a1.73,1.73,0,0,1,1.22-.82s.19-1.37.19-1.8a30.53,30.53,0,0,1,.83-4.09,11.8,11.8,0,0,0,0-6,26.8,26.8,0,0,1-.29-2.83s-.81.65-1.29,3.09c-.15.74.17,2.74,0,4.86a47.05,47.05,0,0,1-1.33,6.22" style="fill:#009b3a;stroke:#000;stroke-width:0.7540000081062317px"/><path d="M638.5,312.67l-.05.1a.22.22,0,0,0,.05-.1" style="fill:#009b3a;stroke:#000;stroke-width:0.7540000081062317px"/><path d="M635.32,300.33c.43,0,.43.47.34.84a8.71,8.71,0,0,0-.06,1.23,13.08,13.08,0,0,0,.32,1.7,3,3,0,0,1,.31,1.79c-.08.68-.78,1.48-.53,2.64a11.25,11.25,0,0,0,.78,1.77,8.46,8.46,0,0,1,.13,2,2.12,2.12,0,0,0,.41,1.19s-.48.91-.65-.23a9.71,9.71,0,0,0-.48-2.47,5.34,5.34,0,0,1-.15-4,3.75,3.75,0,0,0,.19-1.31c0-.58-.36-1.57-.42-2.18s0-1.51,0-1.88m-2.27,5.44a8.37,8.37,0,0,0,1.17,2.75,17.07,17.07,0,0,1,.92,2.3,7.72,7.72,0,0,1,.19,1.08c0,.14.09,1.15.09,1.15v.42s-2.29-1.34-3.3-2.05-2.14-1.71-2.86-2.3-2.78-3-2.81-4.86l-.9-.82a7.75,7.75,0,0,0,2.56,6.82,16.24,16.24,0,0,0,4.14,2.6c2.19,1,1.9,1.91,2.81,3.85a29,29,0,0,1,1.57,3.61c.08.59-.25,8.86-.25,8.86l.08.75s2-7.66,3-8.52c0,0-1.91-.29-1.75-3.29l-.33-2a7.88,7.88,0,0,1,.33-3.85,14,14,0,0,0,.56-5c-.18-1.4-.25-1.81-.42-3.15a47.27,47.27,0,0,0-1.19-5.42,13.07,13.07,0,0,0-.72-2c-.1-.29-.28-1.26-.59-1.27s-.45,1.24-.45,1.24-.4,1.36-.48,1.73a21.34,21.34,0,0,0-1.15,4.49c0,.45-.1,1.65-.15,1.82a4.59,4.59,0,0,0,0,1.12" style="fill:#009b3a;stroke:#000;stroke-width:0.7540000081062317px"/><path d="M634.93,317.27a5.48,5.48,0,0,0-.67-1.12c-.68-.8-1.6-1.48-4.2-2.76s-3.28-3.42-4.61-4.3a5.58,5.58,0,0,0-1.78-.62s1.16,1.59,1.43,2.14a6.3,6.3,0,0,0,1.87,2.51,10,10,0,0,0,4.27,2.14,16.85,16.85,0,0,1,3.7,2M626.75,305a14.11,14.11,0,0,0,2.15,4.27c2.15,2.72,6.29,4.66,6.29,4.66a18.3,18.3,0,0,0-1.6-4.51c-1.88-3-6.85-4.53-6.85-4.53s-.09-.12,0,.11m5.94,1.28c1.11-2.44-2.21-4.77-3.15-6.47.35-.28.76.45,1.14.93.54.72,2.08,2.82,2.08,2.82l.47-2.23-4-3.6c0,.52-1.27,1-1.27,1-.59,3.34,4.69,7.6,4.69,7.6" style="fill:#009b3a;stroke:#000;stroke-width:0.7540000081062317px"/><path d="M625.79,300.61a4,4,0,0,1-1.29.43l.53,1.41.31.38s1.24,1.8,2,2a11.72,11.72,0,0,1,6.34,3.45s-3.88-4.38-5.37-7.66l-.5-1.89-1.41.09s.39,1.33-.57,1.77" style="fill:#009b3a;stroke:#000;stroke-width:0.7540000081062317px"/><path d="M611.25,297.81a13.88,13.88,0,0,0,2.11,1.57,19.16,19.16,0,0,0,5.17,2.32c.43.07,2.75.36,2.75.36a1.29,1.29,0,0,1,1.2-1.11l-3.29-.36a8.87,8.87,0,0,1-6.24-3.08c2.11,1.28,5.13,3.29,7.59,3.18,10.08-1-3-1.24-4.17-2a10.77,10.77,0,0,1-2.23-2l-3-.13s-1.45-.09.06,1.2" style="fill:#009b3a;stroke:#000;stroke-width:0.7540000081062317px"/><path d="M623.11,303.55c.65,0,1.11-.17,1.26-.88a1.26,1.26,0,0,0-1.13-1.59,1.47,1.47,0,0,0-1.85.79c-.42,1,1.1,1.6,1.1,1.6a1.36,1.36,0,0,0,.63.09m1.13-5.78c-.85,0-1.14.7-1,2.05s2.32.77,2.32.77l.39-.2s.28-.22.13-1.31-1-1.31-1.87-1.31m3.43,1h0s0,0,0,0" style="fill:#009b3a;stroke:#000;stroke-width:0.7540000081062317px"/><path d="M627.64,298.73a2,2,0,0,1,.3-.1c.43-.17.88-1.21.88-1.21a1.47,1.47,0,0,0-.79-1.76c-1.71-.34-1.75,1.16-1.75,1.16-.47,2,1.11,1.93,1.36,1.92M620,292a4.71,4.71,0,0,0,1.16,1.75,22.13,22.13,0,0,1,1.74,1.92c.4.55,1.72,3,1.72,3a.49.49,0,0,0,.33-.23c.23-.39-.88-3.41-1-3.62a8.51,8.51,0,0,0-1.74-2.32,16.07,16.07,0,0,1-1.31-1.57,62.53,62.53,0,0,1,5.15,7.79s-.11-2.06-.22-3.16a9.43,9.43,0,0,0-1.49-4.68,5.22,5.22,0,0,0-2.54-2c-.86-.31-1.88-.74-3-1.09s-.26.67.16,1.55a10.13,10.13,0,0,1,1,2.62" style="fill:#009b3a;stroke:#000;stroke-width:0.7540000081062317px"/><path d="M615.84,297.33a6.05,6.05,0,0,0,3.92,1.94c2.33.36,2.52.21,2.52.21s1.21-.58.59-1.09c-3.42-1.5-6.66-3.29-8.3-5.31,0,0,.28-.28,1.47.91a13.77,13.77,0,0,0,1.57,1.37,25,25,0,0,0,3,1.79,13.42,13.42,0,0,0,2.31.75s.23-.5.45-.56-.13-.83-1.56-2a11.45,11.45,0,0,1-2.1-2.28s-1.7-.37-3.54-.68c-1.37-.22-4-2.22-3.91-1.68a9.24,9.24,0,0,0,1.08,3.4,13.6,13.6,0,0,0,2.47,3.22" style="fill:#009b3a;stroke:#000;stroke-width:0.7540000081062317px"/><path d="M596.61,366.91c-1,.3-8.57,3.14-8.57,3.14l-2.11.85a7.19,7.19,0,0,1,5.15.81l8.42-3.9s0-.13-.23-.28a4,4,0,0,0-2.66-.62" style="fill:#009b3a;stroke:#000;stroke-width:0.6019999980926514px"/><path d="M585.61,371.15c-.06,0-.11.25,0,.31.42.23.31.33,2.22.55s3.18-.16,3.51-.52-4.77-1.21-5.76-.35" style="fill:#009b3a;stroke:#000;stroke-width:0.6439999938011169px"/><path d="M573.5,343.94l-.35-2.36s-.44-6.39-1.17-7.67c-.14-.28-.08-.95-.54-1-.88-.07-.88,2-1,3.9-1.43,9.5,6.14,16.75,6.14,16.75Z" style="fill:#009b3a;stroke:#000;stroke-width:0.8360000252723694px"/><path d="M611,372.09s-.79-.18-.29-.8a4,4,0,0,1,2.2-.91,7,7,0,0,1,1.68.23c.6.15,1.44.68,1.19,1.07a2.81,2.81,0,0,1-2.19.83,7,7,0,0,1-1.87-.14l-.73-.27" style="fill:#009b3a;stroke:#000;stroke-width:0.7699999809265137px"/><path d="M602.78,367.57s-2.6-1.2-5.07-2.4c-3.25-1.59-7.16-3.79-9.87-7.83a39.41,39.41,0,0,0-7.08-8.22c-.74-.54-.84-.74-1.11-.36s-.07.62.13,1c.7,1.14,2.42,3.28,3,4.43,1.06,2.05,3.26,4.29,3.24,5.62,0,.18-.64-.13-.64-.13a12.83,12.83,0,0,1-7.24-8c-1.52-4.52-.87-5.85-1.23-8.11-.6-4-.72-4.34-2.71-8.85-.05-.11-1.22-2-1.37-1.58a8.37,8.37,0,0,0,.2,2.55l.21,2.32s-.17,5.15-.17,5.46-1.3,3.53,4.21,8.93c0,0,.08.92-.66.11-.52-.58-4.47-3.61-5.67-8.59s-1.42-10-.48-12c.85-1.87,2.55-6.45,1.82-10.45-.08-.42-.2-1.64-.47-1.32-.11.16-.61,2.18-.91,2.88-.42,1-1.06,1.9-1.26,2.56-.39,1.12-2.29,2.86-1.92,6.05a20.26,20.26,0,0,0,1.1,5.55c.15.48.52,1.69.28,1.81s-1-1.45-1-1.45-3.49-6.86-1.34-12.42,7.63-10.79,7.63-10.79,4.43-3.68,5.34-4.53c.35-.33.27-.58.15-.54a16.94,16.94,0,0,0-12.63,12.21s-.16.43-.38.32,0-.6,0-.6,1.88-7.21,7.14-10.48c5.75-3.58,5.07-3.06,7-4.19a10.67,10.67,0,0,0,3.62-4,6.13,6.13,0,0,0,.61-1.76c-.06-.22-.32.08-.44.45a9.29,9.29,0,0,1-4.06,3.36c-2.44.85-4.43-.36-6.88,2.35a36.12,36.12,0,0,0-4.41,6.51s-.64,1-.78.95.13-1,.13-1,3.28-7,5.92-8.38a52.49,52.49,0,0,0,6.49-4,74.71,74.71,0,0,0,6.1-6.14c.24-.26,1.93-2,2.3-2.52.22-.3.76-.74.67-.82-.24-.18-1.84.59-1.84.59a27.4,27.4,0,0,0-14.1,10.57,13.55,13.55,0,0,1-1.16,1.48,4.46,4.46,0,0,0-.87,1.6c-.35-.29,3.06-4.55,3.06-4.55l.6-2.76a23.46,23.46,0,0,1,3.13-7.07c.21-.27,1.46-1.53,1.68-1.79.42-.46-.8.4-.58.21,0,0-8.11,5.82-8.11,13.16,0,1.32-.82,2.52-2,4.16a13.05,13.05,0,0,0-2.34,5.9q-.36,1.78-.74,3.56s.08,1-.26,1-.23-.94-.23-.94a68.59,68.59,0,0,1,1.42-7.15c.57-1.63,1-2.75,1-2.75s-.34-4.11.57-6.36a45.37,45.37,0,0,1,3-5.2,14.34,14.34,0,0,0,1.29-4.23c0-.28-.19,0-.55.77-.89,2-1.64,2.54-3.1,4.43,0,0-3.76,2.72-5.12,10.83,0,0,0,3-.5,7.75a31.61,31.61,0,0,0,.34,8.67c.25,1.2.73,1.21.43,1.35s.12,0-.31-.89a11.91,11.91,0,0,1-.92-5.06c0-4.23.37-7.62.37-7.62s.28-6.83-2.56-9.91c-.14-.16.5,1.38.78,2.92a17.18,17.18,0,0,1-.47,5.58c-.18,1-2.07,5.55-1.4,9.79,0,0,1.6,7.18,3.66,10.67,0,0,1.28,1.5.15.09s-3.43-7-3.63-7.47a19.91,19.91,0,0,0-3.38-5.35,26.31,26.31,0,0,0-3-2.08s-1.2-.92-.29.3c.72,1,1.69,2.68,2.15,3.43a40.25,40.25,0,0,1,2.55,4.82c.74,1.63,2.46,6.41,2.46,6.41l1.1,3a13.27,13.27,0,0,1,2.85,2.14,20.77,20.77,0,0,1,3.94,6.68,12.87,12.87,0,0,0,1.91,3.13s-.27.52-1.4-1.44-2.21-5.71-4.9-8.61c-2-2.22-7.54-4.46-7.54-4.46s3.53,6.16,4.41,7.26c1.48,1.76,3.63,4.23,4.18,4.88s3.9,4.77,4.39,5.43a15.88,15.88,0,0,0,1.69,1.9c.88.93,3.47,2.64,3.67,2.9,0,.27.09,0-.13-.11-1.15-.69-2.53-1.77-3.95-2.7s-6.88-3.27-10.57-8.35c-.87-1.5-1.29-2.1-1.58-1.95-.45.24,2.48,9.94,8.51,13,0,0,6.65,3,8.12,3.85a33.91,33.91,0,0,1,3.2,1.81c.43.36-.39.34-.45.33-3.53-.28-8.6-.74-11.72-2.55,0,0-1.34-.94-.24.38a15.28,15.28,0,0,0,5.72,5,34.24,34.24,0,0,0,9.55,2.31c1.67.09,7.63.12,8.77.49s3,1.6,4.11,1.95,4,1.46,4,1.46a14,14,0,0,0,1.38.67c.54.21,2.77.2,2.93-.22s-.64-.95-.64-.95" style="fill:#009b3a;stroke:#000;stroke-width:0.6019999980926514px"/><path d="M641.42,317.08c.67.25,1,2.25,1,2.25s-.06-1.15-.06-1.71-.28-2.7-.28-2.7l-.6.43a4.35,4.35,0,0,0-1.11,1.58,2.42,2.42,0,0,1,1.07.16" style="fill:#009b3a;stroke:#000;stroke-width:0.7540000081062317px"/></svg>