<svg xmlns="http://www.w3.org/2000/svg" viewBox="0 0 1200 600"><title>Philippines</title><rect width="1200" height="600" style="fill:#0038a8"/><rect y="300" width="1200" height="300" style="fill:#ce1126"/><path d="M519.62,300,0,600V0" style="fill:#fff"/><path d="M30,52,48.06,67.57,69,56.06l-9.26,22L77.12,94.39l-23.78-2L43.18,114,37.74,90.74l-23.68-3L34.49,75.41Z" style="fill:#fcd116"/><path d="M436.58,268.3l.49,23.86L459.62,300l-22.55,7.84-.49,23.86-14.42-19-22.85,6.91L412.95,300l-13.63-19.59,22.85,6.91Z" style="fill:#fcd116"/><path d="M43.18,486l10.15,21.6,23.78-2L59.71,521.94l9.26,22L48.06,532.43,30,548l4.49-23.44L14.06,512.24l23.68-3Z" style="fill:#fcd116"/><path d="M186.67,173.33l-7.79,7.79,3.86,59q-2,.13-3.9.38l-7.09-53.84L165.39,193,175,241.15a59.64,59.64,0,0,0-21.63,9l-27.26-40.79h-9l33.06,43.09c-1,.8-2,1.63-3,2.49l-39-44.47h-11v11l44.47,39q-1.29,1.47-2.49,3L96,230.41v9l40.8,27.26a59.64,59.64,0,0,0-9,21.62l-48.13-9.57-6.36,6.36,53.84,7.09q-.25,1.93-.38,3.9l-59-3.86L60,300l7.79,7.79,59-3.86c.09,1.31.21,2.62.38,3.91l-53.84,7.09,6.36,6.36,48.13-9.57a59.64,59.64,0,0,0,9,21.63L96,360.59v9l43.09-33.06c.8,1,1.63,2,2.49,3l-44.47,39v11h11l39-44.47q1.48,1.3,3,2.49l-33.07,43.09h9l27.26-40.8a59.57,59.57,0,0,0,21.62,9L165.39,407l6.36,6.36,7.09-53.84q1.93.25,3.9.38l-3.86,59,7.79,7.79,7.79-7.79-3.86-59q2-.13,3.9-.38l7.09,53.84,6.36-6.36-9.57-48.13a59.64,59.64,0,0,0,21.63-9l27.26,40.79h9L223.19,347.6c1-.8,2-1.63,3-2.49l39,44.47h11v-11l-44.47-39q1.29-1.47,2.49-3l43.09,33.07v-9l-40.8-27.26a59.64,59.64,0,0,0,9-21.62l48.13,9.57,6.36-6.36-53.84-7.09q.25-1.93.38-3.9l59,3.86,7.79-7.79-7.79-7.79-59,3.86q-.13-2-.38-3.9L300,285.08l-6.36-6.36-48.13,9.57a59.64,59.64,0,0,0-9-21.63l40.79-27.26v-9l-43.09,33.06c-.8-1-1.63-2-2.49-3l44.47-39v-11h-11l-39,44.47q-1.47-1.29-3-2.49l33.07-43.09h-9L220,250.12a59.64,59.64,0,0,0-21.62-9L207.95,193l-6.36-6.36-7.09,53.84q-1.93-.25-3.9-.38l3.86-59Z" style="fill:#fcd116"/></svg>