<svg xmlns="http://www.w3.org/2000/svg" viewBox="0 0 1080 720"><title>Rwanda</title><rect width="1080" height="720" style="fill:#20603d"/><rect width="1080" height="540" style="fill:#fad201"/><rect width="1080" height="360" style="fill:#00a1de"/><path d="M1002.6,188.1l-80.41,4.7,76.45,25.35-78.88-16.27L987,246.15l-72-36.13L968.6,270.2l-60.18-53.53,36.13,72-44.27-67.29,16.27,78.88L891.2,223.79l-4.7,80.41-1-117.1Z" style="fill:#e5be01"/><path d="M1002.6,188.1l-80.41-4.7,76.45-25.35-78.88,16.27L987,130.05l-72,36.13L968.6,106l-60.18,53.53,36.13-72-44.27,67.29L916.55,76,891.2,152.41,886.5,72l-1,117.1Z" style="fill:#e5be01"/><path d="M770.4,188.1l80.41,4.7-76.45,25.35,78.88-16.27L786,246.15l72-36.13L804.4,270.2l60.18-53.53-36.13,72,44.27-67.29-16.27,78.88,25.35-76.45,4.7,80.41,1-117.1Z" style="fill:#e5be01"/><path d="M770.4,188.1l80.41-4.7-76.45-25.35,78.88,16.27L786,130.05l72,36.13L804.4,106l60.18,53.53-36.13-72,44.27,67.29L856.45,76l25.35,76.45L886.5,72l1,117.1Z" style="fill:#e5be01"/><circle cx="886.5" cy="188.1" r="34.3" style="fill:#e5be01;stroke:#00a1de;stroke-width:3.4000000953674316px"/></svg>