<svg xmlns="http://www.w3.org/2000/svg" viewBox="0 0 1200 600"><title>Saint_Helena</title><path d="M0,0H1200V600H0Z" style="fill:#012169"/><path d="M0,300H600V0h600V600H0Z" style="fill:#012169"/><path d="M999.48,257c-.19,67.85-11,140.95-99.47,175.76C811.5,398,800.72,324.86,800.52,257Z" style="fill:#128bbf"/><path d="M900,432.77c40.12-15.78,65-41.54,79.39-69a17.81,17.81,0,0,0-8.64-.18c-2.18-.14-85.55-6.28-95.34-9.85-8.52-3.1-41,2.63-56.19,8C833.38,391,857.89,416.2,900,432.77Z" style="fill:#e8ece9"/><path d="M838.16,390.71a13.52,13.52,0,0,1,5-.15c1.2.22,1.41.32,1.85-1s1.41-1,2.18-.32,2.72.32,3.48-.76,1-1,1.74-.22,1.09.54,1.85.32a5.18,5.18,0,0,0,2.72-2.26c.65-1.19,1.63-1.62,2.17-1a1.93,1.93,0,0,0,1.85.86c.76-.11,1,.65.87,1.62s.33,1.19,2.18-.32c1.63,1.62,2.17,1,2.17-.76s-.43-8.1-1.08-9a12.4,12.4,0,0,1-1.41-5.29c-.21-3.67-.22-3.88-4.68-6.15,0-1.3-.33-1.84-3.48-1.62a3.37,3.37,0,0,0-1.09-2.27c-.65-.54-.76-.76-.44-2.26a3.71,3.71,0,0,0,3.48-1.19c.76-1.08,3.26-.86,4.78-.22s3.48.76,6.42.32a41.19,41.19,0,0,1,4.9-2.92c2-1.08,2.5-1.51,2.61-3A21.86,21.86,0,0,0,874,342.84c-1.08-2.05-1.41-4.64-2.93-7.89-1.66-3.53-1.63-4.42-3.48-6.58a3.57,3.57,0,0,1-1.2-2.26,6.13,6.13,0,0,0-1.85-4c-3.29-3-4.57-12.63-5.88-19.76-.75-4.08-.22-13.71-2-15.22-2.94-2.38-4.35-1.94-6.31-2.7-1.41-1.94-2.06-5.83-3.37-9.29-2.07.32-3.48,2.48-4.9,3.24s-1.63.76-1.63,2.7-1.09,4.64-3,7.66-5.22,2.16-7.94,6.69c-6-7.23-6.09-9.29-6.53-11.34s-1.41-2.48-4.78-5.4a37.3,37.3,0,0,1-.11-6.26c-2.5-2.05-4.35-1.73-5.55-.22s-2.07,3.78-3.92,4.64a94.86,94.86,0,0,0-7.19,9.14c2.49,37.57,11,74.87,36.72,104.7Z" style="fill:#69522b"/><path d="M999.48,257c.08-25.56-1.36-50.37-.7-72.12-33.07-14.69-76.58-17.71-98.77-17.71s-65.71,3-98.77,17.71c.65,21.74-.77,46.56-.7,72.12Z" style="fill:#bca76b"/><path d="M805.9,286.59c1.09,1.73,3,4.7,3.27,6.31.76-1.57,1.36-2.26,1.52-3.24s1.31-2.86.87-3.89-.76-1.84.44-1.08,1,2.06.7,4c-.7,5.29-2.93,6.37-3.26,9.93,3.21,7.5.82,10.2,4.29,17.54.54.32,2-.25,2.43-.15,1.85-1.3,3.23-.83,5.84-.29s4,2.37,4,4,0,2.05.54,3,1.63,2.48,1.41,3.56a2.84,2.84,0,0,0,.54,2.26c.33.54-.11,1.73-.44,2.48s-.22,1.73,1.09,3.35,4.35,8.42,4.35,12.41.22,5.83,1.85,6.58,2.18,1.4,2,3.13.76,10.69,1,12.09.76,1.08,1.41,1.84A3.39,3.39,0,0,0,843,372.1a51.8,51.8,0,0,1,5.69-.07,23.59,23.59,0,0,1,3.59,8.64c.44,2.27.4,5.36,1.16,5.36s1.52.11,1.31-2.7-.44-3.24-1.41-4.64-1.52-2.05-1-2.92a5,5,0,0,0,.44-3.35c-.22-1.08-.54-2.7,1.31-.54s2.39,2.7,2.94,3.46a5.69,5.69,0,0,1,.65,3.46c-.11,1.29.1,1.83.87,1.18s1.74.43,1.31,1.84a1.93,1.93,0,0,0,1.41,2.7c1.31.43,1.85.76,2.18,1.73s1.41,1.4,1.41-.54a28.54,28.54,0,0,0-1.31-7.34,23.25,23.25,0,0,1-1.09-5.72c-.11-1.62-.44-2-1.2-2.37a2.28,2.28,0,0,1-1.52-1.62,1.21,1.21,0,0,0-1.25-1,1.45,1.45,0,0,1-1.19-.92c-.27-.54-.54-.59-1.09-.65s-1.41.27-1.69-.59a10,10,0,0,0-1.2-2.81c-.54-.7-1-.92-1.09-3.34s-.11-2.75-.87-3.62a32.65,32.65,0,0,1-2.61-4.1c-.54-1-1.08-1.94-1.08.11s0,3.13,1.3,3.88,1.63.76,1.09,1.84,0,1.84.22,2.59.65,1.51,0,2.26-1.31.54-1.2-.64a6.71,6.71,0,0,0-.87-3.56c-.54-1-1-1.62-1.63-1.08s-1.2-.11-.76-.54a.65.65,0,0,0,0-1.08c-.33-.32-.44-.65.11-1.3s.54-1,.22-2.48-2.72-9.07-3.81-10.8-1-3,.44-1.3,2.61,3.24,2.72,4.64a5,5,0,0,0,.87,2.81c.44.54.76.32,1-.86s1.09-.76-.44-3a29,29,0,0,1-5.44-12.85c-1.09-6.8-1.52-11.34-2.61-13.17s-1.41-2.27-1.52-4,0-3.46-.76-4.75-1.31-1.51-1.41.43.11,6.26.65,7,.22,2.7.11,3.78-1.82,2.15,1.74,4.32a2.21,2.21,0,0,1,1,2.81c-.22.75-.44.64-1.2-.54a12.79,12.79,0,0,0-2.29-2.81c-.76-.65-.87-1.08-.76-2.59s.44-2.59,0-3.13-.65-.11-.87.75-.44,3.24-.87,3.89-.65.22-1-1.19.11-3.56.87-6a16.06,16.06,0,0,0,.54-8.31c-.65-3.24-.33-4.21-2.83-6.91s-5.33-5.29-6.53-8.64-1.41-6.26-2.72-7.78-3.15-3.45-4.35-4v-5c0-1.19-.54-1.94-2-1.73s-2.29,1.4-3.15,3-1.52.86-2.72,3.67-2.94,4.21-2.94,7.23Z" style="fill:#cfa763"/><path d="M813.74,318.22a2.71,2.71,0,0,0,3,.25c1.31-.65,2.87-2.52,4.61-.68a11.29,11.29,0,0,1,2.72,7.23c0,2.37,0,6.8,2.72,9.29s4.13,5.07,4.24,8.31a55.94,55.94,0,0,0,1.63,9.5,8.58,8.58,0,0,0,2,3.67c.87.86,1.52,3.35,1.63,5.94s-.33,4.43,0,5.72,0,2.38-1,1.73a4.06,4.06,0,0,1-1.74-2.05c-.54-1.08-1.2-.86-.65.76s2.18,3.13,3.59,3.13a3,3,0,0,1,2.72,1.08c.87.86,1,1.3,2.5,1.3a7.72,7.72,0,0,1,3.16.43,2.45,2.45,0,0,0,2.18,0c.76-.22,1.52.43,2.06,1.84a33.91,33.91,0,0,1,1.85,6.37,5.11,5.11,0,0,0,.76,3.24c.76,1.08.54,2.16-.33,1.51s-.87-.43-1.52-.32-1.09-.22-2-.76-.33-.43-1.2-1.73-1.41-1.73-1.41-.76-.11,2.16-.76,1.62-1-.54-1.52,0-.76,1-1.41-.11a2.8,2.8,0,0,0-2.07-1.3c-.65-.22-.65-.22-1-1.19a2,2,0,0,0-2.18-1.19,1.26,1.26,0,0,1-1.41-1.08,2.39,2.39,0,0,0-1.09-1.4c-.44-.32-.22-1.08-.33-1.84s-.76-.43-1.2-.65-.76-.11-.76-1.19-.44-1.4-.76-2.16a3.67,3.67,0,0,1,.22-2.37,2.07,2.07,0,0,0-.54-2.16c-.65-.76-.11-1.51-1.85-3s-2.61-.22-3.16-3.78-1.63-10.91-2.61-12.09-1.63-2.05-2.61-2.38-1.63-.11-1.74-2.16-.76-4.64-2.07-5.94a29.74,29.74,0,0,0-2.5-2.27c-.65-.54-.87-1.51,0-3.34s.54-4.32.44-5.51a16.1,16.1,0,0,1-.22-4A8.47,8.47,0,0,0,814,320c-.33-.86-.76-1.08-.22-1.73Z" style="fill:#cfa763"/><path d="M846.81,377.28c-.65,1.3-1.41.86-2.07.22s-1.41-.65-1.09-1.84.22-1.4-.65-2.05l-.3-.21h-1c-1.52,0-1.63-.43-2.5-1.3-.2-.19-.37-.35-.54-.48,0,.21,0,.48,0,.81,0,1.19,0,1-1.2,1.3s-1-1.19-1.2-2.16a3.55,3.55,0,0,0-.19-.58,4.81,4.81,0,0,1-3.19-3.09c-.54-1.62.11-1.84.65-.76a4.06,4.06,0,0,0,1.74,2.05c1,.65,1.31-.43,1-1.73a5.45,5.45,0,0,1-.12-1.43,2.1,2.1,0,0,0-1-.94c-1.74-.76-1.2-1-1.09-2.38s-.22-1.4-1.31-.65-1.2-.11-1.2-2.26-1.41-2.16-1.74-.65-.87.54-1.52-1.62-1.52-2.7-1.63-.65c-.09,1.74-.58,2.15-1.72,1.19.2,1.25.38,2.43.52,3.35.54,3.56,1.41,2.26,3.16,3.78s1.2,2.27,1.85,3a2.07,2.07,0,0,1,.54,2.16,3.67,3.67,0,0,0-.22,2.37c.33.76.76,1.08.76,2.16s.33,1,.76,1.19c.27.13.62.06.88.17a11,11,0,0,1,.86-1.14c1.31-1.3,3.27.11,3.92,1.73s1.41,2.05,2.39.76.65-1.08,1.74.11,1.52,1,1.52,1a2,2,0,0,1,1.85.22c.76.65,1.2.54,2.61-1.51s-.65-1.4-1.3-.11Z" style="fill:#d7c99c"/><path d="M847.79,392.4c2.61-.22,9.68-2.27,10.44-2.92,1.74,1.19,4.79,2.81,6.09,2.81-2.5.54-4.14.22-4.79-.22.33.76,1.2,1.94,1.74,2.05-2.39-.11-5.11-.65-6-1.51-2.07.86-5.55,1.08-7.51-.22Z" style="fill:#7fb8c1"/><path d="M852.46,395.64a60.79,60.79,0,0,0,6.14,1c-1.52,1.29-.22,2.53,2.34,2.32-1.25.16-2.62.63-1.69.81,2.23.43,8.27-1.19,9.46-1.84-2.07,2.65-12.13,5.08-16.26-2.32Z" style="fill:#7fb8c1"/><path d="M856.6,402.22c1.25-.65,4.35-.43,5.82.27C860.78,403.09,857.58,403.09,856.6,402.22Z" style="fill:#7fb8c1"/><path d="M861.27,402.11c2.23-.38,8.54,1.13,10.77-.22-.76,2-4.73,2.27-6.09,1.84a12.48,12.48,0,0,0-3.59-.92c.49-.27-.33-.32-1.09-.7Z" style="fill:#7fb8c1"/><path d="M863.56,405.19a33.14,33.14,0,0,0,9.57-1.19c2,.65,5.82,1.67,6.69,1.56-1.85,1.13-5.39.49-6.53,0C870,406.65,867.36,407,863.56,405.19Z" style="fill:#7fb8c1"/><path d="M866.44,406.2a12.14,12.14,0,0,0,6.85-.64,10.93,10.93,0,0,0,4.13.62,10.4,10.4,0,0,0,4,1.59c-1.47.59-6.86,0-7.94-.59-2.72.05-7.4.65-8.54,1.57A3.12,3.12,0,0,1,866.44,406.2Z" style="fill:#7fb8c1"/><path d="M863.56,394c1.88.62,8.7.32,12.18-1.3,1.37-.64,2.22.43.65,1-5.66,1.94-10.12,2.7-13.38,1-1.29-.68-1.41-1.3.54-.65Z" style="fill:#7fb8c1"/><path d="M897,384.84c-8.38,3.88-13.93,5.07-25.56,1.51-1.08-.33-1.85,0-.65.76s7.61,2.48,9.14,2.59,1,.81.05,1.08-1.2.92.05.43,8.24-.67,11.1.81c1.25.65,1.57.54,1.47.05s.54-.81,1.47-.92,1.47-.43.76-.7-.82-.43-.27-.7.6-.54-.22-.7-1.36-.38-.6-.76a9.59,9.59,0,0,1,2.78-.75C896.68,386.95,896.3,385.38,897,384.84Z" style="fill:#7fb8c1"/><path d="M883,385.81c4.79.34,13.6-1.84,18.28-6.37a20.23,20.23,0,0,0,5.11,2.26c1.2.22,2.29,1.3.44,1.3a16.72,16.72,0,0,1-5.66-1.3,32.3,32.3,0,0,1-18.06,4.64C881.84,386.24,881.51,385.7,883,385.81Z" style="fill:#7fb8c1"/><path d="M875.47,372.31a32.79,32.79,0,0,1-4.19.7c-.76-.05-1.52.16-1.47.7s.27.86-.87.76a3.16,3.16,0,0,0-2.39.65c-.27.32-.49.65.65.76a4.76,4.76,0,0,0,3-.38c1.31-.59,2.56-1.51,4-1.57S877,372,875.47,372.31Z" style="fill:#7fb8c1"/><path d="M871.55,375.66c1.19.76,7.07,2.75,9.19,2.59s1.72.84.11,1.19c-3.32.7-7.37-.74-10.12-2.92-1.36-1.08-.11-1.46.82-.86Z" style="fill:#7fb8c1"/><path d="M899.4,378.52a21.7,21.7,0,0,1-10.93.43c-1.85-.49-3.54-.59-2.29.59s5.28,2,7.56,1.4c-8.1,1.84-10.23,1.67-12.24,1.35a39.38,39.38,0,0,0-7.4-.11,7.12,7.12,0,0,1-3.54-.49c-.71-.43-.93-1.24,1.2-1s2.39-.22.54-.49-4.41.49-1.9,2.05,8-.11,11.48.86a20.09,20.09,0,0,0,17.89-3.94c.36-.29,1-1.08-.38-.64Z" style="fill:#7fb8c1"/><path d="M888.91,374a9.81,9.81,0,0,1-3.43-.92c-.87-.38-2.12-.43-1.19.81s4.95,1.94,6.36,1.35.82-1.24,2.23-.38a8.62,8.62,0,0,0,3.92,1.46c1,0,1.41,0,.27-.65s-1.69-.81-1.8-1.35-.27-.86.76-.54,2.23.92,3,.49a8.8,8.8,0,0,1,3.7-1.4l.33-.81a7.46,7.46,0,0,0-3.75.65,5.34,5.34,0,0,1-2.56.16,10.23,10.23,0,0,1-2.72-.54c-.33-.27-.33-.49.54-.65s1.14-.76-.05-.54a17.33,17.33,0,0,1-6.09-.43c-1.69-.54-2.39-.59-3.1-.32s-.6,1,.44,1.08,3.37.27,4.19,1,.71.81-.22.43-2.61-.16-.87,1.08Z" style="fill:#7fb8c1"/><path d="M928.28,371.13c-3.26,2.38-7.18,2.92-11.85,3.24-1.36.1-.94.48.22.59,4.89.49,10.55-1.3,12.4-3.24C929.58,371.16,929.52,370.23,928.28,371.13Z" style="fill:#7fb8c1"/><path d="M906,376.63a50.13,50.13,0,0,1,7.89,1.84c1.2-.11,1.52-.38,1.31-.81s-.38-.92,1.8-.81,7.18.05,8.1.05c.76-.32,2.44-1.62,3.21-1.67-2,.11-10.11.54-11.15.43A3.22,3.22,0,0,0,915,376a1.75,1.75,0,0,1-1.85.22c-.82-.32-2.29-.76-3.1-.27s-2.5.05-4,.65Z" style="fill:#7fb8c1"/><path d="M925.13,376.9c.76-.32,2.44-1.62,3.21-1.67a15.61,15.61,0,0,1,3.81.59c.76.11,1.58-.05,1-.65s-.05-1.62,2.18-1.35,3.37.65,5.55.43,3.16,1.4,7.29-.22c-.33,1.62.44,1.73,1.2,1.4s1.63-.22,2.94.76,9.25,1.08,11.1.76,2.83.65,1.41,1.08-1.74,1.08-1.41,1.51.65,1-1.09.75-2.07.32-2.94,1-1.09.86-3.48.43a8.24,8.24,0,0,0-4.13.11,4.6,4.6,0,0,1-2.94-.22,11.75,11.75,0,0,0-5.87-.32c-1.74.54-3,1.08-4.57.65s-1.63-.22-.65-1.19,1.2-.86,3-1.08,3.26-.75,2-1.51-1.74-.65-3.48.22-2.61,1.4-4.57.32a4.81,4.81,0,0,0-4.24-.54c-1.31.32-3.48-.43-5.33-1.24Z" style="fill:#7fb8c1"/><path d="M931.66,380.14c-2.49.35-3.16-1.24-5.76-.91-.87.11-2.34,1.18-.33,1s4.19.92,6.14.76S932.8,380,931.66,380.14Z" style="fill:#7fb8c1"/><path d="M928.77,382c1.31-.47,4,.43,5.17.22s2.23.49,1,.86-4.08-.7-5.39-.32-2.61-.11-.82-.76Z" style="fill:#7fb8c1"/><path d="M902.77,389c1.8.06,8.27-.22,10.82-5.61.2-.42.38-.59,1.2-.05s3.81,2.32,9.41,2.81c1.57.14,3.27.92.11.7s-8.16-1.08-9.85-2.11c-2.83,4.42-7.91,4.95-11.7,4.86-2.28-.05-1.74-.65,0-.59Z" style="fill:#7fb8c1"/><path d="M916.75,381.65c-.87,1.19-3.86,3.24-5.22,3.35a27.41,27.41,0,0,1-6.47-.65c-1-.38-2.29-.27-.82.76a11.67,11.67,0,0,0,6.58,1.4c1.47-.32,3.16-.81,4.3-.11s3.27,2,4.51,1.78a11.05,11.05,0,0,1,4.63.11c.82.38,2.23,1.51.11.86s-3.86-.11-4.84-.54c1.09,1.51,3.56,3.94,5.66,3.94.49,0,.82.86-.22,1.35,1,.49,3.42.86,4.68-.27-.33.43-.16.7.38,1s1.2.65.22.76a13.49,13.49,0,0,1-3.86.11,20,20,0,0,0,13.21,2.43c1.07-.2,1.63-.64-.11-.59-3.59.11-3.8.05-4.46-.32s-.54-.7.49-1a23.22,23.22,0,0,1,4.73-.7c1.09,0,2.18-.43-.05-.43a26.74,26.74,0,0,1-6-.38c-1.09-.38-1.9-.86-.76-1.62s2.34-.54,2.88-1.24c-3.59-.05-8-1.94-5.55-3.67.57-.4.38-.43-.54-.54a18.71,18.71,0,0,1-4.78-1.51c-1.14-.65-.38-1.19.54-1.35-2.12.38-6.37-.76-9.19-2.86Z" style="fill:#7fb8c1"/><path d="M948.68,381.54c-2,1.46-5.66,2.05-7.23,2.05s-1.8.54-.54.7a11.3,11.3,0,0,0,3.16.16,1.92,1.92,0,0,1,1.68.16,6.37,6.37,0,0,0,4.08.11,18.27,18.27,0,0,1,5.06-.65c1,.05,2.18.11.11-.49a15.69,15.69,0,0,0-6.25.05c-.82.22-3,.05-1.85-.32a9.08,9.08,0,0,0,2.83-1.46c-.44-.11-.71-.22-1-.32Z" style="fill:#7fb8c1"/><path d="M947.65,385.76a12.68,12.68,0,0,1-6.63,2.53c2.29.81,4.19,3.13,5.66,3a6.68,6.68,0,0,1-2.5,1.19,8.84,8.84,0,0,0,5.76-1.13c3.26.92,7.51.32,8.92-.86a10.3,10.3,0,0,1-5.82-1.73,3.5,3.5,0,0,0,2.5-1.24,13.2,13.2,0,0,1-7.89-1.78Z" style="fill:#7fb8c1"/><path d="M944.17,392.5a6.68,6.68,0,0,0,2.5-1.19c-1.79.59-9.63-.65-12-2.7s-2.34-.49-.71,1S938.51,393.26,944.17,392.5Z" style="fill:#7fb8c1"/><path d="M949.93,397.47c-1,.54-5.66.86-7.18.54s-2.18-.16-1.8.43.54,1.13-.71,1a12.71,12.71,0,0,0-4.4.43c-.93.32-2.07,1.13-.11.81s3.75-.7,5.22-.32,6.69.49,7.72.05.33-.43-.16-.43-.71-.32,0-.65a3.11,3.11,0,0,0,1.41-1.84Z" style="fill:#7fb8c1"/><path d="M904.68,391.21a55.29,55.29,0,0,1-10.23,2.7,14.38,14.38,0,0,1-5,1.51,8.21,8.21,0,0,0,4.89,1,16.28,16.28,0,0,1-2.72,1.72,18.84,18.84,0,0,1,4.68.32,13.11,13.11,0,0,1-7.07,1.51,3,3,0,0,0,2.29,1.51,12.09,12.09,0,0,1-5.88.11c.54,1.08,1.09,1.73,1.85,1.84-1.74.22-3.92.54-5.76-.54,1.41,1.84,4.57,2.48,9.25,1.94a22.3,22.3,0,0,0,9.68-3.46,27.31,27.31,0,0,1-5.88.11c2.61-.65,8.27-3,9.25-4a5.24,5.24,0,0,1-2.94-.86,29.08,29.08,0,0,0,8.49-1.08,6.23,6.23,0,0,1-3.7-2.38,36.88,36.88,0,0,0,18.17.54c.87-.22,1-1.31-.76-1.19-3,.22-8.92-.65-10.44-1.4a10.87,10.87,0,0,0,4.35,1.94c-2.83.76-6.74,1.3-12.51-1.84Z" style="fill:#7fb8c1"/><path d="M891.63,398.12a16.27,16.27,0,0,0,2.72-1.72,8.21,8.21,0,0,1-4.89-1,14.38,14.38,0,0,0,5-1.51c-3.91-.11-6.63-.11-8-.86s-4-.54-5-.32-.65,1.84,3.48,1.4c-1.74,1.19-6.42,1.62-8.16,1.19.44,1.4.76,2.8.33,3.56,2.29,1.3,8.27,2.92,11.21,2.7-2.61-1-4-2.05-1.85-2.27a24.68,24.68,0,0,0,5.22-1.19Z" style="fill:#7fb8c1"/><path d="M884.88,405.14c5.21-.43,12.18-.52,17.73-5.18,1.41-1.19,2.37-.79,1,.43-2.93,2.59-10.23,6.15-17.19,6.26C883.57,406.69,882.27,405.35,884.88,405.14Z" style="fill:#7fb8c1"/><path d="M923.88,396.6a20.54,20.54,0,0,1-6,.92,6,6,0,0,0-3.54.32c-.87.54-.93.86.27,1a28.37,28.37,0,0,0,3.48.16,5.73,5.73,0,0,0-1.85,1.62,11,11,0,0,1,5.87.86,2.92,2.92,0,0,1-2.12-.38c2.94,3.08,11.64,3.08,13.06,2.54a5.92,5.92,0,0,1-1.9,1.13,11.51,11.51,0,0,0,8-1.24,28.92,28.92,0,0,1-4.4-.16,5.23,5.23,0,0,1,2.12-1.24,14.43,14.43,0,0,0-5.33.32,3.77,3.77,0,0,1,1.58-1.73c-4.3,0-9.52-.05-11.42-1.08,3,.32,6.42-1.46,7.83-1.46-2.39-.05-5-.59-5.66-1.57Z" style="fill:#7fb8c1"/><path d="M912.94,399a34.29,34.29,0,0,0-6.2,1.78c-.87.49-1.8.76.11.76s7.07.22,8.21.38a65.41,65.41,0,0,0-7.56-.54c-.76,0-1.63-.05-.22-.49a45.35,45.35,0,0,1,5.66-1.89Z" style="fill:#7fb8c1"/><path d="M908.65,404c.76,0,4.08,0,5.38-1.13,1.36,1,4,2.48,5.66,2.48s1.52.43.05.59a10.6,10.6,0,0,1-5.82-1.78c-2,.7-3.59.11-5.27-.16Z" style="fill:#7fb8c1"/><path d="M883.47,418.52c3.37,1.3,7.83,2.27,11.09,1.19,1.85,1.62,5.66,1.73,7.72,1.3a11,11,0,0,1,6.2.11c2.28.76,7,.81,8.27,1.89-1.2.06-3.75,0-4.35.17s-.27.54.82,1.13c-3.7-.22-10.06,1.35-12,3a6.87,6.87,0,0,1,6.31-3.94c-2-.7-8.21-.75-10.23.49a6.23,6.23,0,0,1-1.36-2.16c-3.32,1.89-9.85-.81-12.45-3.19Z" style="fill:#7fb8c1"/><path d="M874.82,412.48c4-.57,6.75-1.84,7.94-3,.71.65,3.64,1.3,6.85.32a1.55,1.55,0,0,0-.44,1.89,24.63,24.63,0,0,0-7.51,1.78c-1.36.7-5.33,1.18-6.63.48s-1.36-1.29-.22-1.45Z" style="fill:#7fb8c1"/><path d="M889.18,411.67a24.63,24.63,0,0,0-7.51,1.78,6.31,6.31,0,0,1,.49,2c3.91-1.4,12.89-2.26,16.32-1.72-1.63.11-4.73,1.78-6.47,2a33,33,0,0,1,9.46.81c1.09.27,1.31,1.08.49,1.84s-1.19.86.54.92,5.33-.16,7-1.73c-.65-.7-2.34-.43-2.83-.92a7.55,7.55,0,0,0,2.94-1.78,26.71,26.71,0,0,1-5-.32c-1-.21-1.69-.49-.49-1.13a7.06,7.06,0,0,0,2.12-1.62c-2.12.59-5.44,1.08-8.21-1.08a9.75,9.75,0,0,0,4.35-.27,5.58,5.58,0,0,0-2.44-.86c2.23-1.08,6.63-2.05,12.07.11a25.25,25.25,0,0,1,7.72.43,27.52,27.52,0,0,1,3.7-3.46c-6.42.54-17.95-.65-17.73-4-2.07,2.7-6.85,4.21-8.92,3.78-.22,1,.65,2.16,1.41,2.81a26.64,26.64,0,0,1-7.61.43,6.09,6.09,0,0,0,3.91,1.73c-2.28,0-3.48.43-5.27.27Z" style="fill:#7fb8c1"/><path d="M902.5,419.28c1.74.05,5.33-.16,7-1.73-.65-.7-2.34-.43-2.83-.92a7.55,7.55,0,0,0,2.94-1.78c4.57-.37,8.65-.16,10.6-.75s7-.27,7.94-.54c-4.35.7-5.22,1.08-5.44,1.78s1.41,1.3,2.45,1.3c-2-.11-4.41,1.94-4.63,2.75-2.61-1.51-3.86.27-4.13.86a8.31,8.31,0,0,0-6.53,1.24,12.92,12.92,0,0,0-6.36-.7c1.47-.32,1.2-1.3-1-1.51Z" style="fill:#7fb8c1"/><path d="M923.39,406.65c1.47-.05,4.68.11,5.82-.05a7,7,0,0,0-2,1.4,62.8,62.8,0,0,1,10.22-.49c-1.79-.27-3.64.86-4.57,1.46s-.38,1,.87,1.13,2.94,1.13.65.81a44.45,44.45,0,0,0-7.89-.16c-1.09.16-1.69-.38-.11-.59a9.18,9.18,0,0,0,3.42-1.19,13.19,13.19,0,0,1-4.57.11c-.76-.22-1.25-.65-.38-.86s.27-.54-.65-.43a10.45,10.45,0,0,0-4.57,2.32,28.87,28.87,0,0,1,3.7-3.46Z" style="fill:#7fb8c1"/><path d="M906.8,409.08a9.36,9.36,0,0,0,7.29,3.24c.71,0,2,1,.33,1-4.57.16-6.85-.92-8.87-3.83C905.13,408.91,905.9,408.07,906.8,409.08Z" style="fill:#7fb8c1"/><path d="M964.78,384.52c-1.36.92-3.15,2.54-2,4.8l.41-.24A131.76,131.76,0,0,0,977,369c0-.24.09-.47.12-.67a19.21,19.21,0,0,1-4.9,2.91c.65,1.73-2.39,4-4,4.64a1.94,1.94,0,0,1-1,3c.33,1-.76,1-2.07,1.51a4.76,4.76,0,0,0-2.39,1.62,3.65,3.65,0,0,1,2.23-.54c.54.16.65,1-.33,1.19a3.39,3.39,0,0,0-2,1.19c1.41-.54,3.43-.27,2.07.65Z" style="fill:#7fb8c1"/><path d="M868.89,359.9c1.63,1.13,4.52,3,8.27,2.75a18.21,18.21,0,0,0,6,3c-2.5,1-5.22,1.89-5.93,2.7-1.14-1.08-2.61-.92-3-1.46-1.09.86-.93,1.4-.22,1.84s6.2,1.35,7.56,1,1.72.74.6,1.13c-2.94,1-8.65.05-10.61-3.07s-3.65-4.32-9-1.46c-.6-1.51-.6-1.89-1.63-1.89s-2.94-1.35-1.47-1.3a17.29,17.29,0,0,0,9.36-3.18Z" style="fill:#7fb8c1"/><path d="M870.19,366.86c-.91.22-3.48,1.62-4.4,1.73s-2.56,1.4-.87,1.46,3.86-1.78,5.06-1.94S871.28,366.59,870.19,366.86Z" style="fill:#7fb8c1"/><path d="M877.32,371.94a2.38,2.38,0,0,1,0,1.51c-.16.38-.16.86.54.32s1.14-1.19,1.85-.81a7.57,7.57,0,0,0,3.32.22c.82-.11,1.09-.27-.1-.76a7.45,7.45,0,0,0-3-.59,4.93,4.93,0,0,1-2-.32c-.54-.22-.71-.11-.54.43Z" style="fill:#7fb8c1"/><path d="M903.1,372.1l-.33.81c2-.05,6.91.43,8.48,1.4,1.52-1.19,1.25-1.57,2.34-1.35s2.45.59,3,.27a2.28,2.28,0,0,1,1.69-.16,5.42,5.42,0,0,0,2.88-.65,8.82,8.82,0,0,1,3.48-1.13c1,0,2.17-.22.38-.49a14.54,14.54,0,0,0-5.44.59,24.12,24.12,0,0,1-5.33.54c-1.63,0-3.86.81-5.71.32a21.59,21.59,0,0,0-5.5-.16Z" style="fill:#7fb8c1"/><path d="M934,371.34a27.73,27.73,0,0,0,11,1.94c.65,0,2,.66.32.81a19.59,19.59,0,0,1-11.58-2.16c-1-.54-.65-1,.27-.59Z" style="fill:#7fb8c1"/><path d="M936.5,371.29c3.7-.11,6.47-.05,7.61,1a23.82,23.82,0,0,1,6.8-.86c.87.16,1.85-.22-.16-.7a30.66,30.66,0,0,0-8.16-.37,44.5,44.5,0,0,1-7.56.27,2.19,2.19,0,0,1,1.47.65Z" style="fill:#7fb8c1"/><path d="M950.86,372.75c1.74-.92,6.74-.05,8.27-.7-1.09,1.3,3.48,1.4,7.45.38-1.52,1-4.78,1.13-6.2,1.73s-2.18.16-3.27-.32a12.48,12.48,0,0,0-6.25-1.08Z" style="fill:#7fb8c1"/><path d="M966.57,372.42c-4,1-8.54.92-7.45-.38-1.52.65-6.53-.22-8.27.7,1.8-1.08,3.16-.22,4.46-2.43.82.17,2.72.27,3.37-.59,1.14.27,3.16.76,3.75,1.35s1.52-.16.76-1.08c1.8-.65.66.77,4.84-.27a35.77,35.77,0,0,1,3.7-.65,25.76,25.76,0,0,1-5.17,3.34Z" style="fill:#7fb8c1"/><path d="M999.48,257c-.19,67.85-11,140.95-99.47,175.76C811.5,398,800.72,324.86,800.52,257Z" style="fill:none;stroke:#000;stroke-width:2px"/><path d="M840,287.53a23.58,23.58,0,0,1-5.07,4.89c-2,1.44-4.64,2.59-3.19,5s2.61,2.74,2.9,4.61.73,3.46,2.18,3.89,2,.14,2,3.17,0,4.18,1.31,5.33,1.16,2.3,1.74,5,.58,8.64,2.32,12.67,5.66,11.66,5.22,13.24-1,2.73.72,4.6a12.3,12.3,0,0,1,3,6.19c.14,1.59.44,2.16,2.17,1.59a6.36,6.36,0,0,0,3.19-1.87c.58-.72,1.74-.57,3.34.29s4.06,1.73,5.51.86,2.18-2.16,3.48-2.16c2-1.44,2.75-4.47,3.19-5.33s.15-.86-.72-1.73-.44-2.31-.58-3.74a18.2,18.2,0,0,0-2.47-6.77c-1.74-3.17-2.75-7.05-3.91-8.06s-1.74-3.46-1.89-4.61-1.45-2.16-2.32-3-1.74-2.16-2.75-7.2-1.74-8.64-1.74-9.5-.15-1-1-1.3a2.12,2.12,0,0,1-1-2.45c.29-.72-.29-1.44-.58-2.3a4.55,4.55,0,0,1,.58-3.31c.58-.86.44-3.31-.15-5.33s-1.16-3.74-3.48-4-2.75-.86-3.62-2.73-1.74-5.18-2-5.9-.72-.86-2.47.58-2.32,1.92-2.32,4.61a5.34,5.34,0,0,0,.87,3.31c.58,1,.73,1.3,1.16,4s2.9,7.05-.29,9.5-2.75,3-2.61,4.75-.87,2.88-1.45.43,0-3.88,1.74-5,3.34-2.59,2.18-4.18-1.59-5.33-1.74-7.05-.44-2.31-1.45-1Z" style="fill:#cfa763"/><path d="M814.11,324.23a22.53,22.53,0,0,0,.28,3.49c.11,1.19.44,3.67-.44,5.51s-.65,2.8,0,3.34l.1.09a2.6,2.6,0,0,0,1.53-3.51,3.44,3.44,0,0,1,.22-3.24c.58-1,.58-1.58.08-2.31s-.51-.72.07-2.73c.51-1.77-.78-1.76-1.84-.65Z" style="fill:#d7c99c"/><path d="M832.66,352.13a55.94,55.94,0,0,1-1.63-9.5c-.11-3.24-1.52-5.83-4.24-8.31-2.12-1.94-2.59-5.06-2.69-7.46-1.59-1-2.27-.53-2.13,1.27s2.1,2.88,1.81,5.68-.29,2.09,1.09,3.46,1.88,2.66,1.16,3.24-.8,1.58.22,1.94,1.09,1.44.94,2.45.8,1.23,1.38,1.94a3.63,3.63,0,0,1,.08,3.46c-.58,1-.65,2.59.36,1.73s1.45-.07,2.25,1.29c.69,1.18,1.27.81,2,.45A9.06,9.06,0,0,1,832.66,352.13Z" style="fill:#d7c99c"/><path d="M824.18,292.17c-1.08.08-1.81,1-1.2,4.28.39,2-1.16,1.58-1.74.57s-1-3.17-2.18-5-.58,1.3-.72,3,1,1.73,2,3.17.14,2-1,2-.58,2.3-.29,3.88-.29,1.87-1.16.58-.29-3.31-.14-5.76.29-1.87-1.31-2.45-1.31-.86-.72-2.31,1.16-2.16.44-2.88-.58-1.15.58-1.3.73-1,1.74-1.3,1.45.15,1.59-1.72c.12-1.56.65-2.52,1.83-2,.71,2.41,1.64,6.15,2.27,7.27Z" style="fill:#d7c99c"/><path d="M850.69,318c.43-3.17.14-6.33,1.45-7.49s2.9-3.45,2.75,1.44-.29,4.61-1.3,5.76-1.89,1.44-.87,3.31,1.16,2,1,4.89-.14,4,1,5.47,1.45,1.58,1.74,3.17a9.52,9.52,0,0,0,2.61,4.89c1.31,1.15,2.76,4.46,2.9,6.77s2.18,2.88,4.06,4.46-.43,2.73-1.88,2-.87,0-1.74,1-1.16,1.15-1.88-.57-3.19-2.88-4.35-3.31-2.17-2.31-3.19-4.18a5.6,5.6,0,0,0-4.17-2.9,5.77,5.77,0,0,1,.54,2.62c-.44,1.58-1,2.73.72,4.6a12.3,12.3,0,0,1,3,6.19c.14,1.59.44,2.16,2.17,1.59a6.36,6.36,0,0,0,3.19-1.87c.58-.72,1.74-.57,3.34.29s4.06,1.73,5.51.86,2.18-2.16,3.48-2.16c2-1.44,2.75-4.47,3.19-5.33s.15-.86-.72-1.73-.44-2.31-.58-3.74a18.2,18.2,0,0,0-2.47-6.77c-1.74-3.17-2.75-7.05-3.91-8.06s-1.74-3.46-1.89-4.61-1.45-2.16-2.32-3-1.74-2.16-2.75-7.2c-.8-3.94-1.41-7-1.64-8.55-1,1.65-1.75,2.05-2.13.92-.44-1.29-1-2-1.59-1.15s-.73-.72-.73-1.44-.14-.86-.87-.86-.14-1.15-.44-3.31-.72-2.45-1,.15-1.74,4.17-1.16,4.75.29,1.73-.29,3.46a5,5,0,0,0,.15,3.88c.44,1.15-.29,3.31-.58,5.18s1.16,3.74,1.6.57Z" style="fill:#d7c99c"/><path d="M838.79,309.12c0,3,0,4.18,1.31,5.33s1.16,2.3,1.74,5,.58,8.64,2.32,12.67c.52,1.2,1.23,2.73,2,4.31a8.12,8.12,0,0,0,2.1-2.73c.43-1-.87-3-1.89-4.75s.15-2.31,1.16-4.47-.14-2.3-1.74-2.88-1.6-2-2.47-4.32-.72-3.31-.14-4.61.14-2.3-1-2.59-.87-1.15-.44-2.59.72-1.73-1-1.3c-1.32.32-1.64.57-2,1a8.53,8.53,0,0,1,.14,1.84Z" style="fill:#d7c99c"/><path d="M866.19,308l-3.48,38" style="fill:none;stroke:#000;stroke-width:0.4999989867210388px"/><path d="M876.61,331.25c-1.42,6.43-3.29,13.74-5.19,19.94" style="fill:none;stroke:#000;stroke-width:0.4999989867210388px"/><path d="M922.12,312.93c2.64,2.45,6.18,3,10.1,4.92" style="fill:none;stroke:#000;stroke-width:0.4999989867210388px"/><path d="M939.58,329.75l-1.93,14.66" style="fill:none;stroke:#000;stroke-width:0.4999989867210388px"/><path d="M937.69,330.4l-3.46,15" style="fill:none;stroke:#000;stroke-width:0.4999989867210388px"/><path d="M874.33,331.7c-1.63,6.25-3.82,12-5.92,17.75" style="fill:none;stroke:#000;stroke-width:0.4999989867210388px"/><path d="M949.78,367.08l-.29.06-.32,0-.33,0-.33,0-.31,0a1.32,1.32,0,0,0-.27.09.73.73,0,0,0-.21.14.59.59,0,0,0-.14.22l-.13.17-.15.17-.15.17-.16.17-.16.17-.15.18-.14.19-.12.2a5.31,5.31,0,0,1-2.7,1.16,7.24,7.24,0,0,1-3.09,0,6.77,6.77,0,0,1-3.6-.64,3.32,3.32,0,0,0-3,.26c-.6.34-.72,1-1.42,1.16-.42.55-2.25.48-3,.26a9,9,0,0,1-3.73-.77,2.25,2.25,0,0,0-2.83-.13,4.12,4.12,0,0,1-2.19,1.16c-1.57-.06-3.34.21-4.5-.39-1.29-.11-1.78-.81-3-1.16-1.35-.23-2,.47-2.83.77a4.55,4.55,0,0,1-3.21.64c-1.4-.06-3.1.19-4-.39a8.29,8.29,0,0,1-2.7-1.16c-.83-.65-2.36,0-3.09.39-1.24.19-1.7,1.16-3.25,1a18.4,18.4,0,0,1-3.3-1c-1.11-.49-2.1-1.27-3.86-1.16a3.76,3.76,0,0,1-2.82,1,8.76,8.76,0,0,1-2.84-.26c-2.1-.06-3.11-2.27-4.63-3.46l-7.6-7.53c.44-1.35.59-1.58-.11-2.46.29-1.34-.63-1.53-.26-2.87.57-1-1-.85-1.41-1.41-.91-.18-1.3-.85-2.19-1.16a17.6,17.6,0,0,0-2.31-1.29,21.26,21.26,0,0,1-2.19-1.16c-.54-.49-1.26-.8-1.8-1.29a9.24,9.24,0,0,1-1.8-1.16c-.74-.23-1.1-.78-1.8-1.16a16.21,16.21,0,0,0-1.93-1.29,29.94,29.94,0,0,0-2.83-1.16c-.7,0-.92-1.6.38-1.54a4.48,4.48,0,0,1,2.19,1,16.43,16.43,0,0,0,3.47,1.16,14.55,14.55,0,0,0,2.31,1c.76.59,1.76.69,2.7,1.29a14.34,14.34,0,0,1,2.44,1.29c.74.32,1.13.85,1.93,1.16.28.33.84.49,1.29.9a9.13,9.13,0,0,1,2.06,1,11.1,11.1,0,0,1,1.67,1c.66.2,4.84,2.31,4.63,2.06,4.12.79,5.94,1,10.08,1.63l30,.47,10.89-4.55,3.31-5.24,16.09-2.94c-.3-.32,28.24-1,28.85,1.39.25,1,1,3,.1,3.52-.61.31-27-3.35-27.37-1a73.74,73.74,0,0,0,.19,8.45l.44,3.09.44,3.09.44,3.09.44,3.09h0Z" style="fill:#666"/><path d="M868.19,326.59a119.68,119.68,0,0,1-14.86,14.14" style="fill:none;stroke:#000;stroke-width:0.4999989867210388px"/><path d="M894.87,304.1l15.64-13.53" style="fill:none;stroke:#000;stroke-width:0.4999989867210388px"/><path d="M887.85,317.48a33.5,33.5,0,0,0,11.42,5.38" style="fill:none;stroke:#000;stroke-width:0.4999989867210388px"/><path d="M885.64,297c1.95,3.08,4.23,6.08,11.06,7.86" style="fill:none;stroke:#000;stroke-width:0.4999989867210388px"/><path d="M881.2,266.24a27.11,27.11,0,0,1-9.91,7.57" style="fill:none;stroke:#000;stroke-width:0.4999989867210388px"/><path d="M886.8,285.23c2.23,2.16,5.36,3.41,8.57,4.59" style="fill:none;stroke:#000;stroke-width:0.4999989867210388px"/><path d="M886.8,332.34c1.58,7.75,2.94,13.91,4.73,20.32" style="fill:none;stroke:#000;stroke-width:0.4999989867210388px"/><path d="M885.56,352.5c8.13-8.35,15.07-17.31,19.58-27.55" style="fill:none;stroke:#000;stroke-width:0.4999989867210388px"/><path d="M921.72,294.77a19.14,19.14,0,0,0,9.56,6" style="fill:none;stroke:#000;stroke-width:0.4999989867210388px"/><path d="M933,284.79c2.21,4,4.93,6.89,7.47,10.17" style="fill:none;stroke:#000;stroke-width:0.4999989867210388px"/><path d="M909,272.42c-.27,3.93-2.66,7.89-4.33,11.3" style="fill:none;stroke:#000;stroke-width:0.4999989867210388px"/><path d="M914.62,274.36c-2.9,3.22-5.69,6.68-9.65,8.66" style="fill:none;stroke:#000;stroke-width:0.4999989867210388px"/><path d="M915.12,260.33a35.89,35.89,0,0,1-6.93,3.73" style="fill:none;stroke:#000;stroke-width:0.4999989867210388px"/><path d="M944.77,290.26c-2.4,2.85-4.8,6.2-8.75,8.66" style="fill:none;stroke:#000;stroke-width:0.4999989867210388px"/><path d="M945.21,314c-3.07,2.91-5.82,6.29-9.35,8.51" style="fill:none;stroke:#000;stroke-width:0.4999989867210388px"/><path d="M963,330.78a108.3,108.3,0,0,1-17.23,11.49" style="fill:none;stroke:#000;stroke-width:0.4999989867210388px"/><path d="M948.68,342.83c5.16-3.22,9.72-7.66,14.3-12" style="fill:none;stroke:#000;stroke-width:0.4999989867210388px"/><path d="M947.18,290.85a19.21,19.21,0,0,0,5.6,7.28" style="fill:none;stroke:#000;stroke-width:0.4999989867210388px"/><path d="M943.8,265l-.45,77.91,5.67-.34-2.38-77.82Z" style="fill:#bca76b;stroke:#472b1f;stroke-width:0.2869130074977875px"/><path d="M947.58,365.47a16.37,16.37,0,0,1,3.24,2.62c2.48,2.28,4.15,2.29,7.69,0,1.32.15,2.66.84,4.09.58a15.33,15.33,0,0,0,3.73-.45c1.51-.36,1.73-2.19,2.27-3.41a21.27,21.27,0,0,1,2.45-4.11,13,13,0,0,0,3.63-3.1c1-1.22.86-2.81.64-4.27s-.23-2.69-.22-4.09c-.35-1.77,1.19-3.14,1.06-4.88-.88-.78-2.32-1-3.5-1.33a44.53,44.53,0,0,0-6.28-.91c-1.73-.14-3.45-.32-5.17-.45s-3.39-.25-5.09-.25a43.06,43.06,0,0,0-5.75.12c-1.34.31-3,.19-4.13.81a12.66,12.66,0,0,0-.87,4,23,23,0,0,0-.25,3.57c.07,2.21-.23,4.46.39,6.6.41,1.73.55,3.48.88,5.19a5.63,5.63,0,0,0,1.18,3.81Z" style="fill:#333;stroke:#000;stroke-width:0.9999989867210388px"/><path d="M954.06,327.52,961.77,342" style="fill:none;stroke:#000;stroke-width:0.4999989867210388px"/><path d="M973.34,342.72a27.78,27.78,0,0,1-5.44-8.56" style="fill:none;stroke:#000;stroke-width:0.4999989867210388px"/><path d="M972.82,320.19l2.54,1.79.18.07a6.27,6.27,0,0,0-2.7-1.85h0Z" style="fill:#472b1f"/><path d="M967.45,320.95l-.29.09-3.57,14Z" style="fill:#472b1f"/><path d="M984.49,321.45a7.54,7.54,0,0,0-2.55.84l1.5-.52,2-.29a5.55,5.55,0,0,0-.9,0Z" style="fill:#472b1f"/><path d="M967.9,334.16l-.7.14a3.29,3.29,0,0,1,.81.07,4.46,4.46,0,0,1,1,.39Z" style="fill:#472b1f"/><path d="M969.3,334.94a10.86,10.86,0,0,0,2.77,1.55Z" style="fill:#472b1f"/><path d="M977.56,335.66l-4.77,1C974.46,336.76,976,336.1,977.56,335.66Z" style="fill:#472b1f"/><path d="M967.69,320.09,963.59,335l4.31-.84,4.52,2.52,6.83-1.37,3.47.53c1.07-4.79.76-10.45,3.57-14.49l-2.84.42-4.52,1.58L975.36,322l-2.84-2Z" style="fill:#fff"/><path d="M974.2,321.87a12.12,12.12,0,0,0-1.58,4.41,22.16,22.16,0,0,0-3-.84,23.55,23.55,0,0,0-3.36,0l0,.09-1,3.53a20.91,20.91,0,0,1,3.94-.16,12.29,12.29,0,0,1,2.52.95l-1.32,5.68.84.47,1.83.55h.05l.77-.16a16.65,16.65,0,0,1,1.5-5.38,17.71,17.71,0,0,0,4.31.63c1.06-.08,3.24-.31,3.78-.37.15-1.2.31-2.4.52-3.58a15.54,15.54,0,0,1-4.19.59,13.11,13.11,0,0,1-3.36-1.26,20.41,20.41,0,0,1,1.47-3.68Z" style="fill:#c8102e"/><path d="M964.71,320a110.33,110.33,0,0,1-5-19.57" style="fill:none;stroke:#000;stroke-width:0.4999989867210388px"/><path d="M966.34,321.17s4.49-1.06,6.36-.66,3.2,2.66,5.18,2.94c2.28.32,4.32-1.81,6.62-2a14.81,14.81,0,0,1,3.26.42l-1.47,5.46L985,332v4.1a24.73,24.73,0,0,0-5.78-.74c-2.42.24-4.42,1.66-6.83,1.26-1.78-.29-2.67-1.76-4.41-2.21-1.44-.37-5.1.58-5.1.58Z" style="fill:none;stroke:#472b1f;stroke-width:0.9999989867210388px"/><path d="M967.17,321l-1.79.11-5.67,20.06,2.63.11Z" style="fill:#bca76b;stroke:#472b1f;stroke-width:0.30000001192092896px"/><path d="M965.38,321.14a2.18,2.18,0,0,1-.94-2.52c.46-.91,2-1.13,2.94-.84s2.56,1.46,2.21,2.52C969.12,321.65,966.63,321.83,965.38,321.14Z" style="fill:#bca76b;stroke:#472b1f;stroke-width:0.30000001192092896px"/><path d="M986.06,321.58c-2.73,4-2.51,9.37-3.55,14,1.31.21,2.37.45,2.37.45V332l1.32-4.62,1.54-5.46S986.95,321.7,986.06,321.58Z" style="fill:#472b1f"/><path d="M953.75,305.33c2.81,1.92,5.69,7,9.69,11" style="fill:none;stroke:#000;stroke-width:0.4999989867210388px"/><path d="M959,298a78,78,0,0,1-4.05-21.1" style="fill:none;stroke:#000;stroke-width:0.4999989867210388px"/><path d="M950.75,330.2l4.43,11.57" style="fill:none;stroke:#000;stroke-width:0.4999989867210388px"/><path d="M955.16,271.54c-3.81-1-7.43-3.68-8-5.85" style="fill:none;stroke:#000;stroke-width:0.4999989867210388px"/><path d="M930.26,275.34c2.47.19,11.13-6.28,12.45-9.65" style="fill:none;stroke:#000;stroke-width:0.4999989867210388px"/><path d="M952.31,328.54l6.1,13" style="fill:none;stroke:#000;stroke-width:0.4999989867210388px"/><path d="M951.83,332.93l4.44-1.67" style="fill:none;stroke:#000;stroke-width:0.4999989867210388px"/><path d="M952.58,335.36l4.74-2" style="fill:none;stroke:#000;stroke-width:0.4999989867210388px"/><path d="M954.53,340.25l5.16-2.19" style="fill:none;stroke:#000;stroke-width:0.4999989867210388px"/><path d="M949.22,314.59l6.23,6.68" style="fill:none;stroke:#000;stroke-width:0.4999989867210388px"/><path d="M936,330.76l-4.3,14.54" style="fill:none;stroke:#000;stroke-width:0.4999989867210388px"/><path d="M934.83,334l4.35-.06" style="fill:none;stroke:#000;stroke-width:0.4999989867210388px"/><path d="M933.77,337.58l5.07.15" style="fill:none;stroke:#000;stroke-width:0.4999989867210388px"/><path d="M932.6,341.29l5.49,1" style="fill:none;stroke:#000;stroke-width:0.4999989867210388px"/><path d="M947.18,263.05c-1-.35-3.69-.42-4.76.44-.57.46-.1,2,.62,2,1.44,0,3.27.09,3.84-.33s1-1.88.29-2.12Z" style="fill:#bca76b;stroke:#472b1f;stroke-width:0.2895689904689789px"/><path d="M931.44,275.21c1.86,7.61,9.94,6.35,9.57-.61" style="fill:#bca76b;stroke:#472b1f;stroke-width:0.3974219858646393px"/><path d="M938.85,274.85c2.42,8.75,12.92,7.29,12.44-.7" style="fill:#bca76b;stroke:#472b1f;stroke-width:0.4856320023536682px"/><path d="M947.74,274.69c2.37,6.41,5.7,5.16,9.68-.66" style="fill:#bca76b;stroke:#472b1f;stroke-width:0.41584500670433044px"/><path d="M959.72,271.65l-29.54,1.69.07,2L960,273.81Z" style="fill:#bca76b;stroke:#472b1f;stroke-width:0.40257200598716736px"/><path d="M932.51,301.28c1.79,8.38,10.21,7.13,10-.49" style="fill:#bca76b;stroke:#472b1f;stroke-width:0.42422598600387573px"/><path d="M940.23,301c2.35,9.63,13.29,8.22,12.94-.54" style="fill:#bca76b;stroke:#472b1f;stroke-width:0.5183860063552856px"/><path d="M949.47,301c2.34,7.06,5.83,5.76,10.07-.54" style="fill:#bca76b;stroke:#472b1f;stroke-width:0.4438920021057129px"/><path d="M962,297.89l-30.74,1.32,0,2.19,31-1.13Z" style="fill:#bca76b;stroke:#472b1f;stroke-width:0.4297240078449249px"/><path d="M931.73,324.89c2,8.55,10.6,7.12,10.2-.68" style="fill:#bca76b;stroke:#472b1f;stroke-width:0.43492698669433594px"/><path d="M939.64,324.49c2.12,12.76,13.78,8.18,13.27-.78" style="fill:#bca76b;stroke:#472b1f;stroke-width:0.5314620137214661px"/><path d="M949.12,324.3c2.52,7.19,6.08,5.8,10.32-.74" style="fill:#bca76b;stroke:#472b1f;stroke-width:0.4550890028476715px"/><path d="M961.9,320.89l-31.51,1.9.08,2.25,31.77-1.72Z" style="fill:#bca76b;stroke:#472b1f;stroke-width:0.44056299328804016px"/><path d="M951.31,286.86l-11.69.34,0,2.9,11.78,0Z" style="fill:#bca76b;stroke:#472b1f;stroke-width:0.2559080123901367px"/><path d="M951.39,311.59l-11.69.34,0,2.9,11.78,0Z" style="fill:#bca76b;stroke:#472b1f;stroke-width:0.2559080123901367px"/><path d="M922.19,325.14l8.62,20.75" style="fill:none;stroke:#000;stroke-width:0.4999989867210388px"/><path d="M878.52,331.61a205.66,205.66,0,0,1-4.1,21.2" style="fill:none;stroke:#000;stroke-width:0.4999989867210388px"/><path d="M975.24,344.24a128.77,128.77,0,0,0-14.81-1.82,88.34,88.34,0,0,0-11.75.41c-5.69.51-11.51.77-17,2.47a5,5,0,0,0-2.07,1c-1.54,1.5-1.69,4-3,5.72s-6.06,4.43-7.79,5.59a239.39,239.39,0,0,1-42.35-2.21l-2.21-2.47-.91-.91,2.47.91,5.59.13,13.64-.52s11.52,0,17.28-.26c3.25-.15,6.51-.35,9.74-.78a4.9,4.9,0,0,0,2.08-.39c1-.63,1.28-1.92,1.95-2.86s1-2,1.95-2.6c2.46-1.84,5.58-1.68,8.26-2.19,3.21-.61,6.17-.74,9.41-1.21,3.74-.55,7.52-.81,11.3-1a57.27,57.27,0,0,1,7.27-.13c3.68.27,7.71,0,10.91,1.82.59.34,1.64,1,1.3,1.56-.23.38-.86-.19-1.3-.26Z" style="stroke:#000;stroke-width:0.30000001192092896px"/><path d="M917.8,260.33c1.87,1.43,5.32,2.63,8.66,3.13" style="fill:none;stroke:#000;stroke-width:0.4999989867210388px"/><path d="M913.92,313a43.34,43.34,0,0,1-12.45,6.16" style="fill:none;stroke:#000;stroke-width:0.4999989867210388px"/><path d="M925.11,350l-6.87-18" style="fill:none;stroke:#000;stroke-width:0.4999989867210388px"/><path d="M919.6,326.12l7.91,20.55" style="fill:none;stroke:#000;stroke-width:0.4999989867210388px"/><path d="M918.62,331.43l5.25-1.82" style="fill:none;stroke:#000;stroke-width:0.4999989867210388px"/><path d="M915,257.67l-1.63,95.75,5.67-.34L918,257.68Z" style="fill:#bca76b;stroke:#472b1f;stroke-width:0.288098007440567px"/><path d="M921.79,272.47a22.2,22.2,0,0,0,10.94,9.94" style="fill:none;stroke:#000;stroke-width:0.4999989867210388px"/><path d="M903.26,266.5c1.79,8.38,10.21,7.13,10-.49" style="fill:#bca76b;stroke:#472b1f;stroke-width:0.42422598600387573px"/><path d="M911,266.24c2.35,9.63,13.29,8.22,12.94-.54" style="fill:#bca76b;stroke:#472b1f;stroke-width:0.5183860063552856px"/><path d="M920.21,266.22c2.34,7.06,6.6,7.7,10.07-.54" style="fill:#bca76b;stroke:#472b1f;stroke-width:0.4438920021057129px"/><path d="M932.74,263.11,902,264.43l0,2.19,31-1.13Z" style="fill:#bca76b;stroke:#472b1f;stroke-width:0.4297240078449249px"/><path d="M903.26,285.8c1.79,8.38,10.21,7.13,10-.49" style="fill:#bca76b;stroke:#472b1f;stroke-width:0.42422598600387573px"/><path d="M911,285.54c2.35,9.63,13.29,8.22,12.94-.54" style="fill:#bca76b;stroke:#472b1f;stroke-width:0.5183860063552856px"/><path d="M920.21,285.52c2.34,7.06,9.4,5.87,10.07-.54" style="fill:#bca76b;stroke:#472b1f;stroke-width:0.4438920021057129px"/><path d="M932.74,282.41,902,283.73l0,2.19,31-1.13Z" style="fill:#bca76b;stroke:#472b1f;stroke-width:0.4297240078449249px"/><path d="M912.42,296.56c-2.77,1.82-5.29,4.05-8.94,5.17" style="fill:none;stroke:#000;stroke-width:0.4999989867210388px"/><path d="M902.34,303.92c1.79,8.38,10.21,7.13,10-.49" style="fill:#bca76b;stroke:#472b1f;stroke-width:0.42422598600387573px"/><path d="M910.06,303.66c2.35,9.63,13.29,8.22,12.94-.54" style="fill:#bca76b;stroke:#472b1f;stroke-width:0.5183860063552856px"/><path d="M919.3,303.64c2.34,7.06,8.58,4.84,10.07-.54" style="fill:#bca76b;stroke:#472b1f;stroke-width:0.4438920021057129px"/><path d="M931.82,300.53l-30.74,1.32,0,2.19,31-1.13Z" style="fill:#bca76b;stroke:#472b1f;stroke-width:0.4297240078449249px"/><path d="M906.22,325.83c-.79,9.46-4.58,18-7.14,26.94" style="fill:none;stroke:#000;stroke-width:0.4999989867210388px"/><path d="M909.65,325.91c-.85,9.19-3.7,17.84-6,26.47" style="fill:none;stroke:#000;stroke-width:0.4999989867210388px"/><path d="M912.48,325.09c-1.1,10.21-2.33,18.74-4.61,27.24" style="fill:none;stroke:#000;stroke-width:0.4999989867210388px"/><path d="M902.73,321.25c1.79,8.38,10.21,7.13,10-.49" style="fill:#bca76b;stroke:#472b1f;stroke-width:0.42422598600387573px"/><path d="M910.45,321c2.35,9.63,13.29,8.22,12.94-.54" style="fill:#bca76b;stroke:#472b1f;stroke-width:0.5183860063552856px"/><path d="M919.69,321c2.34,7.06,8.49,5.67,10.07-.54" style="fill:#bca76b;stroke:#472b1f;stroke-width:0.4438920021057129px"/><path d="M932.21,317.86l-30.74,1.32,0,2.19,31-1.13Z" style="fill:#bca76b;stroke:#472b1f;stroke-width:0.4297240078449249px"/><path d="M922.44,276.12l-11,.34,0,2.9,11.12,0Z" style="fill:#bca76b;stroke:#472b1f;stroke-width:0.2486249953508377px"/><path d="M922,294.77l-9.81.32,0,2.72,9.89,0Z" style="fill:#bca76b;stroke:#472b1f;stroke-width:0.2269819974899292px"/><path d="M922.6,312.93l-10.67.35,0,2.92,10.75,0Z" style="fill:#bca76b;stroke:#472b1f;stroke-width:0.24498699605464935px"/><path d="M906,329.26l5.73,1.19" style="fill:none;stroke:#000;stroke-width:0.4999989867210388px"/><path d="M904.66,334.62l6.62.15" style="fill:none;stroke:#000;stroke-width:0.4999989867210388px"/><path d="M903.62,338.49l6.85,1.94" style="fill:none;stroke:#000;stroke-width:0.4999989867210388px"/><path d="M901.76,344.59l8-.37" style="fill:none;stroke:#000;stroke-width:0.4999989867210388px"/><path d="M900.34,349.5l8.48-.22" style="fill:none;stroke:#000;stroke-width:0.4999989867210388px"/><path d="M898.36,325.61c-.9,9.68,5.34,18.85,8.46,27" style="fill:none;stroke:#000;stroke-width:0.4999989867210388px"/><path d="M924.26,347.51l5.45-1.62" style="fill:none;stroke:#000;stroke-width:0.4999989867210388px"/><path d="M923,344.59l6.16-2.59" style="fill:none;stroke:#000;stroke-width:0.4999989867210388px"/><path d="M921,340l6.35-1.88" style="fill:none;stroke:#000;stroke-width:0.4999989867210388px"/><path d="M919.6,335.65l6.22-1.62" style="fill:none;stroke:#000;stroke-width:0.4999989867210388px"/><path d="M886.3,369.7a14.46,14.46,0,0,1-2.13-.34,13.86,13.86,0,0,1-2.11-.79,13.6,13.6,0,0,1-1.88-1.24,14.08,14.08,0,0,1-1.7-1.45c-.67-.62-1.36-1.19-2-1.86s-1.32-1.3-1.86-2a16.9,16.9,0,0,1-1.8-1.91c-.55-.54-.56-1.49-1-2.08-.76-.15-1.89-.28-1.92-1.28-.25-.61-.36-1.35-1.12-1.27-.32,0-.4.48-.21.19-.39-.21-.29.72-.34.22a8.32,8.32,0,0,0-.47,1.1c-.34.67-.3,1.43.58,1.53s.94,1,1.65,1.41c.57.55,1.27,1.29,1.9,1.79a12.32,12.32,0,0,1,1.54,2c.29.59,1.07,1,1.51,1.5a11.53,11.53,0,0,0,1.27,1.7,8.61,8.61,0,0,0,1.84,1.47c.57.35,1.15.66,1.74,1a8,8,0,0,0,2,.9,8.77,8.77,0,0,0,2.53.47,3.34,3.34,0,0,0,2.34-.53c.69-.46,0-.38-.36-.52Z"/><path d="M931.18,347.95a27,27,0,0,1-4.63,7.8c6.59,1.27,11.89-.57,17.83-1.57a24.61,24.61,0,0,1-.39-8.26C939.26,346.4,935.9,347.47,931.18,347.95Z"/><path d="M931.73,348.6c-.83,2.12-1.47,4.31-3.12,6.14,5.41,1.13,9.82-.5,14.69-1.39-.93-2-.65-4.11-.32-6.26-3.87.43-7.38,1.08-11.25,1.51Z" style="fill:#333"/><path d="M874.82,358.17l19.13,1.44a349.72,349.72,0,0,0,48.22-2c.62-.07,1.65-.25,1.85.35s-.75,1.62-1.51,1.74C925,362,907.35,361.13,889.77,361l-10.43-1.1Z"/><path d="M881.84,315.28c-4.92,3.79-9.83,7.63-15.39,9.81" style="fill:none;stroke:#000;stroke-width:0.4999989867210388px"/><path d="M882.58,297.24c-4.5,3.25-9,7.26-13.78,9.22" style="fill:none;stroke:#000;stroke-width:0.4999989867210388px"/><path d="M880.92,264.3l-.13,89.48,4.91-.34-2.85-89.65Z" style="fill:#bca76b;stroke:#472b1f;stroke-width:0.2681159973144531px"/><path d="M882.86,263.79a93.08,93.08,0,0,0,10.53,9.65" style="fill:none;stroke:#000;stroke-width:0.4999989867210388px"/><path d="M884.13,261.23c-1-.51-3.64-.61-4.69.64-.56.67-.1,2.91.61,2.93,1.42,0,3.22.14,3.79-.48S884.81,261.58,884.13,261.23Z" style="fill:#bca76b;stroke:#472b1f;stroke-width:0.34698501229286194px"/><path d="M881.33,365.34c.14-.76.73-1,1.41-1.11a5.62,5.62,0,0,1,2.27.2,8,8,0,0,1,1.46.71,4.48,4.48,0,0,0,1.31.91c1.61.62.73-1.24,1.65-1.31s1.59-.29,2.24,0a2.05,2.05,0,0,1,1.16.91,4.07,4.07,0,0,1,.91.91c.13.47,1.86,1.31,1.92.2.36-.76.2-2.07,1.41-1.92a19.58,19.58,0,0,1,3.63.4,4.1,4.1,0,0,1,1.72.91c.47.28.43.83.86.81,1.23.91,1-.77,1.36-1.31s1.19-.35,1.62-.71a6.61,6.61,0,0,1,2.62-.4c.44.25,1.2.63,1.72.91a4.12,4.12,0,0,1,1.11,1.41c0,.59.58,1.06,1.11.61.27-.68.81-.66,1.31-1a2.42,2.42,0,0,0,1.21-.81c.31-.08.62-.75.91-1,.54-.4,1.62-.31,2.52-.4A6.29,6.29,0,0,1,921,365c.31.33.53.74,1,.91.28.59,1,.1,1.41-.1a10,10,0,0,1,1.41-.81,2.68,2.68,0,0,1,1.85-.71c1-.11,1.51.41,2.29.5.73.32,1.56.37,2,.81s1.24.66,1.77.2c.69,0,.16-1.33.42-1.64.79-.63,2.68-.55,3.67-.17a6.31,6.31,0,0,1,2.37.2c.55.13.63.66.86,1.21s1.72.5,2.22.1c.48,0-.11-.68-.3-.91a3.09,3.09,0,0,1-.81-1c.75-.36,1.1.32,1.72.4.36.31.85.41,1.21.81a3.75,3.75,0,0,0,2,.4c.84.25.47,1.48-.5,1.21a14.4,14.4,0,0,1-2.73.1,39.65,39.65,0,0,0-4.14-.1c-.69.26-1.82.19-2.62.4-.86,0-1.53.17-2.45.1a20.59,20.59,0,0,1-2.9.1c-.89.17-1.65.2-2.59.3a23.14,23.14,0,0,1-2.36.1,32.39,32.39,0,0,1-4,.1c-.83.14-1.54.12-2.32.2s-1.59.17-2.49.2-1.62.17-2.58.1a41.15,41.15,0,0,1-4.51.1c-.72-.17-1.67-.1-2.45-.2a17.89,17.89,0,0,0-2.19-.1c-.63-.22-1.71,0-2.33-.2-1.23.07-2.16-.15-3.36-.1h-6.53a10,10,0,0,0-2.28-.1c-1.21,0-2.66,0-3.74,0a11.67,11.67,0,0,1-2.86-.38c-1.3-.24-3-.66-2.85-1.72Z" style="stroke:#000;stroke-width:0.699999988079071px"/><path d="M870.51,275.31c1.57,5.8,8.94,4.94,8.71-.34" style="fill:#bca76b;stroke:#472b1f;stroke-width:0.3301970064640045px"/><path d="M877.27,275.14c2.05,6.66,11.63,5.69,11.33-.37" style="fill:#bca76b;stroke:#472b1f;stroke-width:0.4034860134124756px"/><path d="M885.35,275.12c2,4.89,5.78,5.33,8.81-.38" style="fill:#bca76b;stroke:#472b1f;stroke-width:0.3455039858818054px"/><path d="M896.31,273l-26.9.91,0,1.52,27.12-.79Z" style="fill:#bca76b;stroke:#472b1f;stroke-width:0.3344759941101074px"/><path d="M877.84,286c-2.36,2.06-6.81,4.76-8.77,4.5" style="fill:none;stroke:#000;stroke-width:0.4999989867210388px"/><path d="M873,278.53a671.92,671.92,0,0,1-20.48,64.31" style="fill:none;stroke:#000;stroke-width:0.4999989867210388px"/><path d="M870.2,292c1.61,6.23,9.19,5.3,9-.36" style="fill:#bca76b;stroke:#472b1f;stroke-width:0.346994012594223px"/><path d="M876.62,291.9c2.11,8.35,12,7.13,11.64-.47" style="fill:#bca76b;stroke:#472b1f;stroke-width:0.4580090045928955px"/><path d="M885.47,291.83c2.33,5.23,6.59,5.7,10-.4" style="fill:#bca76b;stroke:#472b1f;stroke-width:0.38143301010131836px"/><path d="M896.69,288.87l-27.6,1.21,0,2,27.82-1Z" style="fill:#bca76b;stroke:#472b1f;stroke-width:0.38989800214767456px"/><path d="M868.75,308c1.74,7.63,10,6.5,9.71-.45" style="fill:#bca76b;stroke:#472b1f;stroke-width:0.39967700839042664px"/><path d="M876.29,307.89c2.45,11.24,13.85,9.6,13.48-.63" style="fill:#bca76b;stroke:#472b1f;stroke-width:0.5716860294342041px"/><path d="M885.28,307.72c2.28,6.43,6.44,7,9.82-.49" style="fill:#bca76b;stroke:#472b1f;stroke-width:0.41820499300956726px"/><path d="M897.47,304.88l-31.42,1.2,0,2,31.67-1Z" style="fill:#bca76b;stroke:#472b1f;stroke-width:0.4145910143852234px"/><path d="M868.19,326.59c1.89,8.26,10.78,7,10.51-.48" style="fill:#bca76b;stroke:#472b1f;stroke-width:0.4328260123729706px"/><path d="M891.44,330.88a220.79,220.79,0,0,0,6.46,21.72" style="fill:none;stroke:#000;stroke-width:0.4999989867210388px"/><path d="M889.08,330.61a133.93,133.93,0,0,0,5.28,22" style="fill:none;stroke:#000;stroke-width:0.4999989867210388px"/><path d="M876.34,326.33c2.27,11,13.76,10,13.66-.53" style="fill:#bca76b;stroke:#472b1f;stroke-width:0.5288940072059631px"/><path d="M886.09,326.31c2.47,7,7,7.6,10.63-.54" style="fill:#bca76b;stroke:#472b1f;stroke-width:0.452890008687973px"/><path d="M899.27,322.86l-35,1.44,0,2.39,35.29-1.24Z" style="fill:#bca76b;stroke:#472b1f;stroke-width:0.47870999574661255px"/><path d="M887.85,283.47l-10,.27,0,2.24L888,286Z" style="fill:#bca76b;stroke:#472b1f;stroke-width:0.20865799486637115px"/><path d="M887.85,299.75l-10,.27,0,2.24,10.13,0Z" style="fill:#bca76b;stroke:#472b1f;stroke-width:0.20865799486637115px"/><path d="M888.5,317.48l-10.69.27,0,2.24,10.77,0Z" style="fill:#bca76b;stroke:#472b1f;stroke-width:0.21485699713230133px"/><path d="M892.44,333.17l-5.73,1.19" style="fill:none;stroke:#000;stroke-width:0.4999989867210388px"/><path d="M893.35,337.54l-5.73,1.19" style="fill:none;stroke:#000;stroke-width:0.4999989867210388px"/><path d="M894.62,342.28,888.8,342" style="fill:none;stroke:#000;stroke-width:0.4999989867210388px"/><path d="M896.35,346.83l-6,.9" style="fill:none;stroke:#000;stroke-width:0.4999989867210388px"/><path d="M869.5,345.91l6,1.19" style="fill:none;stroke:#000;stroke-width:0.4999989867210388px"/><path d="M871.17,341l5.43,1.19" style="fill:none;stroke:#000;stroke-width:0.4999989867210388px"/><path d="M872.64,337.21l5,1.29" style="fill:none;stroke:#000;stroke-width:0.4999989867210388px"/><path d="M873.55,333.81l4.53.89" style="fill:none;stroke:#000;stroke-width:0.4999989867210388px"/><path d="M945.23,353.86c10-.45,22.05-1.61,30.13,1.54" style="fill:none;stroke:#000;stroke-width:0.9999989867210388px"/><path d="M945.87,357.2c9.26-1.37,20-2.14,28,.9" style="fill:none;stroke:#000;stroke-width:0.9999989867210388px"/><path d="M946.9,363.89c6.67-1.5,15.61-1.84,21.94-.26" style="fill:none;stroke:#000;stroke-width:0.9999989867210388px"/><path d="M947.58,365.47c6.67,1.5,14.53,1.84,20.87.26" style="fill:none;stroke:#000;stroke-width:0.9999989867210388px"/><path d="M849.9,342.11l21.68,13.1.46-.58-6.84-4.75C860.32,346.86,855.41,343.88,849.9,342.11Z"/><path d="M954,352.81l-.17-7.23" style="fill:none;stroke:#000;stroke-width:0.5px"/><path d="M956.18,345.66v7.4" style="fill:none;stroke:#000;stroke-width:0.5px"/><path d="M960.26,353.15v-7.74" style="fill:none;stroke:#000;stroke-width:0.5px"/><path d="M964.77,346.06v7.43" style="fill:none;stroke:#000;stroke-width:0.5px"/><path d="M967.49,346l.09,7.57" style="fill:none;stroke:#000;stroke-width:0.5px"/><path d="M971.06,346.78v7" style="fill:none;stroke:#000;stroke-width:0.5px"/><path d="M972.94,346.68l-.09,7.91" style="fill:none;stroke:#000;stroke-width:0.5px"/><path d="M954.91,356l-.09,6.8" style="fill:none;stroke:#000;stroke-width:0.5px"/><path d="M952.61,356.29v6.46" style="fill:none;stroke:#000;stroke-width:0.5px"/><path d="M958.56,356.12l-.26,6.46" style="fill:none;stroke:#000;stroke-width:0.5px"/><path d="M960.77,356l-.09,6.46" style="fill:none;stroke:#000;stroke-width:0.5px"/><path d="M964.09,356l-.43,6.29" style="fill:none;stroke:#000;stroke-width:0.5px"/><path d="M967.24,356.8,966,362.59" style="fill:none;stroke:#000;stroke-width:0.5px"/><path d="M945.38,346c9.92-1.18,19.84.24,29.77,1.23" style="fill:none;stroke:#000"/><path d="M999.48,257c.08-25.56-1.36-50.37-.7-72.12-33.07-14.69-76.58-17.71-98.77-17.71s-65.71,3-98.77,17.71c.65,21.74-.77,46.56-.7,72.12Z" style="fill:none;stroke:#000;stroke-width:2px"/><path d="M894,215.49s3.57,5.31,4.53,8.17a11.51,11.51,0,0,1,.55,4.4c-.18,2.69-1.22,5.27-2.06,7.83-.58,1.78-1.86,3.13-1.16,4.86.34.84.68,1.6,1.57,1.46.55-.08.81-.76,1.24-1.1a4.26,4.26,0,0,1,1-.69c.51-.21,1.25.11,1.65-.27s.57-1,.27-1.37-.82,0-1.24,0c-.6,0-1.27.43-1.79.14s-.82-1.65-.82-1.65,1.07-2.94,1.65-4.4a21.84,21.84,0,0,0,1.51-3.57,9.67,9.67,0,0,0,0-1.24c0-.65-.17-1.45.27-1.92.29-.31,1.08.12,1.24-.27.59-1.5-2.15-2.49-2.75-4-.22-.56-.08-1.22-.27-1.79a20.83,20.83,0,0,0-1.92-3.44Z" style="fill:#69737c;stroke:#000;stroke-width:1.5px"/><path d="M905.18,219.62s3.17,4,3.5,6.36c.07.53-.36,1-.37,1.57,0,.84.5,1.64.46,2.49-.12,2.71-1.55,5.2-2.21,7.83-.56,2.23-1.47,6.72-1.47,6.72l2-.18.37-3.41s1.06-3.86,1.57-5.8c.35-1.35.54-2.74,1-4.05a25.5,25.5,0,0,0,1.2-2.49c.28-1.16.62-2.52.09-3.59-.18-.37-.72-.44-1-.74a10,10,0,0,1-1.66-2.49,23.1,23.1,0,0,1-1-2.86c-.42.16-2.49.64-2.49.64Z" style="fill:#66452b;stroke:#000;stroke-width:1.5px"/><path d="M890.2,212.41l2.26,1.8,3.91,2.36,1.81.11,2,.73,2.55-.08,1.88,1.92.53.36,2.09-.29.77-.86,4-6.09-1-10-19,1.23Z" style="fill:#fff"/><path d="M910.72,195.47a41.25,41.25,0,0,1,7.08,6.92c1.55,1.83,2.5,4.33,4.77,5.47,3.2,3.42,16.9,7.38,16.95,8.45-3.16-1.29-4.53,3-7.59,2.33-2.85.83-5.19-1-7.66-2.07-3.7-.13-7.56.06-10.86,1.94-1.8,1-3.94-.53-5.37,0l-.16.31-.21.19m-17.47-6.57c-2.19-1.09-3.8-3.13-5.84-4.37-1.58-2.22-3.61-4.45-3.51-7.37-.25-3-1-7.2.4-10.08-1-2.25-2.48-2.86-3.62-5.08-.83-3.07-3.94-4.83-2.07-7.17,2.08-1.85,3.53-4,6.21-5a11.67,11.67,0,0,1,6.61.46c2.76.32,4.27,2.68,5.73,4.72a23.34,23.34,0,0,1,3.43,9.09c1.27,2.66,4.66,3.2,7.14,4.34a22.89,22.89,0,0,1,6,3.5" style="fill:#fff"/><path d="M925.73,213.27c-1.08-.15-3.66.91-3-.68-2.65-.19-5.43.38-8-.51a46.52,46.52,0,0,0-8.33-2.86c-2.76-.15-6,.49-8.14-1.78-2.2-1.29-5.42-.36-7.44-2.23a8.58,8.58,0,0,1-3.19-6.82c-.41-2.63-1.38-6.17,1.56-7.71,1.92-.58,3.76-.08,4.92-2,2.45-.4,4.69.49,6.8,1.69,2.48,1.23,5.21,2,7.61,3.36s4.27,3.5,6.43,5.23c1.7,1.95,3.68,3.75,4.77,6.14,1.3,2.57,4,3.92,6.3,5.4,1.38.36,4.68,1.89,1.55,2.3C927,212.88,926.38,213.2,925.73,213.27Z"/><path d="M898.74,204.63a7.92,7.92,0,0,1-3.82-1.29c-.87-.52-3-1.79-1.63-2.78,1.16-.14,2.49.44,3.53-.36,1.56-.33,3.22-.36,4.66-1.13s2.93-.24,4.33-.69c1-.55.9-2.65,2.49-2.29,1.46-.37,1,2.43-.27,1.54-.81,1.13,1.46,1.52,2.06,2.22,1.21,1.37-1.45,1.68-1.69,2.7-1.68.49-2.91-1.62-4.59-1-.31.56,0,1.72-1.18,1.43-1.4-.86-2.62.11-4,.28.4.31-.48,1.43.1,1.4Z" style="fill:#69737c"/><path d="M927.91,214.69c-.79-.42-1.8-.06-2.68,0a4,4,0,0,1-1.72-.21c-.87,0-2.52-1-2.77.29.06.54,1.48.77.3.94a7.08,7.08,0,0,1-3.35-.76c-.45-.42-1.39-.94-1.16.06s-.56,1.28-1.31,1.25a4.75,4.75,0,0,1-3-1.14c-.56.69.79,1.66,1.58,1.71.79.67-1.2.41-1.65.31a2.65,2.65,0,0,0-2,.21c-.93.21-1,1.12.13,1a4.16,4.16,0,0,0,3.24.11,10.74,10.74,0,0,1,3.61-1.34,23.35,23.35,0,0,1,3-.47,35.69,35.69,0,0,1,4.1-.14c1.07.57,2.12.08,3.06-.43.58-.18,2.34-.84,1.06-1.35-.16.06-.29-.2-.44-.08Z" style="fill:#69737c"/><path d="M924.27,216.57a3,3,0,0,0,1.52-.26,10.76,10.76,0,0,1,1.62-.58c.7,0,1-.94.29-1.13a8.51,8.51,0,0,0-1.25-.62c-.42-.36-1-.47-1.41-.85.32-.39.59-.82.91-1.21a12.86,12.86,0,0,1,1.61-.25,4.41,4.41,0,0,1,1.2-.08c.55.28,1.14.46,1.66.77a9.15,9.15,0,0,0,1.7.74c.5.15,1,.33,1.45.53a12.7,12.7,0,0,0,1.75.56c.58.12.81.77,1.5.67a3.17,3.17,0,0,1,1.77.72c.37.16,1,.5,1.05.82-.55.07-1-.42-1.57-.31s-.73.53-1.25.45c-.23.66-1.09.56-1.49,1.11a7.74,7.74,0,0,1-1.83,1.08,2.1,2.1,0,0,1-1.6,0,17.19,17.19,0,0,0-1.84-.12,3,3,0,0,1-1.85-.18,5.76,5.76,0,0,1-1.4-.82c-.56-.23-1.56-.49-2.11-.72-.29-.14-.26-.23-.57-.29Z"/><path d="M883.36,173a4,4,0,0,0-1.65.23,4.28,4.28,0,0,0-2.35,1.48,13.37,13.37,0,0,1-2.65,2.35,3.85,3.85,0,0,0-1.16,1.28,1.28,1.28,0,0,0,1.83-.2,5.52,5.52,0,0,1,2.3-1.7,8.11,8.11,0,0,1,2.4.25,6,6,0,0,0,2,.72c.38.14,1,.2,1.56.35a21.08,21.08,0,0,0,2.27.61,7.19,7.19,0,0,0,2.6,0c.19,0,.39,0,.58,0a1.72,1.72,0,0,0-.2.67,3.52,3.52,0,0,0,.48,1.45l.83,1.35c.22.52.48,1,.68,1.55a7.7,7.7,0,0,1,.59,1.28,2.89,2.89,0,0,0,.66,1.34c.35.46.76.87,1.08,1.36a10.93,10.93,0,0,1,.72,1.33c.38.32.78.78,1.3.73a6.7,6.7,0,0,0,1.58-.2l-.18,0a2.76,2.76,0,0,1-1-1.22c-.12-.51-.17-1-.26-1.55a5.53,5.53,0,0,0-.39-1.47c-.13-.42-.3-.83-.42-1.25a14,14,0,0,1-.53-1.34,7.07,7.07,0,0,0-.6-1.39c-.26-.46-.46-.94-.74-1.39s-.47-.93-.79-1.32a1.13,1.13,0,0,0-.62-.45.78.78,0,0,0-.28-.82,7.44,7.44,0,0,1-1.15-1.41,6.07,6.07,0,0,0-2.4-1.37,13.6,13.6,0,0,0-3-.85,8.08,8.08,0,0,0-2.49-.27Z"/><path d="M893,186.55c0-.74-1-.45-1.35-.05-.5.49-.77,1.17-1.37,1.57-.88.64-2,.73-2.91,1.38a6.09,6.09,0,0,1-1.56,1.5,3.87,3.87,0,0,0-1.8,1.52c-.16.54-.52,1.28,0,1.71.72.27,0,.92.07,1.39a1.27,1.27,0,0,0,1.66.34,5.2,5.2,0,0,0,1.85-1.47,7,7,0,0,1,2.3-2,3.18,3.18,0,0,0,1.51-1c.44-.36.07-1.06.74-1.19s.94-.81,1.33-1.29-.3-1.08-.21-1.68a.91.91,0,0,0-.31-.7Z" style="fill:#69737c"/><path d="M903.51,245.09H899.8c-.61-.25-1-1.27-1.82-.87a17.42,17.42,0,0,0-2,.93,4.63,4.63,0,0,0-1.57,1.37c-.08.39-1.22.83-.26.85s1.35-.79,2.16-.9a6.38,6.38,0,0,1,2-.14,7.42,7.42,0,0,0,1.74.13c.66-.05,1.28.07,1.92.05.93.08-.34.65-.64.78a11.58,11.58,0,0,1-2.32.6,5.19,5.19,0,0,0-2.27.32,14.22,14.22,0,0,0-2.09,1.13c-.36.2-1.28.68-.37.69a4.65,4.65,0,0,0,2-.28,17.54,17.54,0,0,1,3.43-.87c.76-.17,1.47-.5,2.24-.64.47,0,1.73-.23,1.33.6a5,5,0,0,1-1.85,1.29c-.57.33-1.11.86-1.83.84-.55-.19-1.7.23-.86.78.42.75,1.31.24,1.85,0s1.27-.57,2-.84,1.54-.58,2.26-.9,1.36-.52,1.92-.94,1.44-.7,1.76-1.46a1.88,1.88,0,0,1,1.26-1.21c.68-.17,1.39-.06,2.08-.21s.55-1.39-.16-1.43c-.62-.4-1.15-.88-1.79-1.24a5.44,5.44,0,0,0-2.36-.39,2,2,0,0,0-1.53,1c-.42.49-.51,1.35-1.34,1.16a1.71,1.71,0,0,1-1.08-.17Z" style="fill:#66452b;stroke:#000;stroke-width:1.5px"/><path d="M885.42,249.71a10.39,10.39,0,0,1,1.62-3.49c1.86-1.82,7.15-3.15,7.15-3.15-2.26.88-5,.23-7.15.85a23.93,23.93,0,0,0-4.94,2.89,20.17,20.17,0,0,1,2-3.49c2.62-2.86,6.8-3.2,10-2.72l3.57.51s.61.37.34.91c-.56,1.14-2.26,1.79-3.4,2.33C891.4,246,887.41,247.28,885.42,249.71Z" style="fill:#66452b;stroke:#000;stroke-width:1.5px"/><path d="M896.31,240.61c-2.88,1.95-9.52,5.43-9.28,5.62a53.71,53.71,0,0,0,8.25-2.55c.9-.44,2.16-.75,2.47-1.7a1.37,1.37,0,0,0-.51-1.45A.92.92,0,0,0,896.31,240.61Z" style="fill:#69737c;stroke:#000;stroke-width:1.5px"/><path d="M910.06,225.52c-.7,0-.8,1.23-.83,1.93,0,.48,0,1.35.46,1.38s.77-1,.83-1.66.11-1.62-.46-1.66Z" style="fill:#69737c"/><path d="M907.11,244.4c0-.56-.69-.26-1-.16a7.07,7.07,0,0,0-1.91.91c-.48.31-1,.56-1.48.85-1,.46-1.84,1.09-2.8,1.55a5.55,5.55,0,0,1-1.27.48c-.36.07-.23.3.08.27a3.68,3.68,0,0,0,2-.16c.71-.22,1.52-.4,2.2-.69a9.19,9.19,0,0,1,1.56-.7c.35-.23,1.28-.37,1.66-.54.63-.33.38-.79,1.1-.79a.39.39,0,0,0,.07-.78.39.39,0,0,1-.19-.23Z" style="fill:#69737c;stroke:#000;stroke-width:1.5px"/><path d="M900.57,250.48c.51-.14,1.05-.11,1.55-.3s1.23-.36,1.83-.57l.86-.43a5,5,0,0,0,1.19-1.41c.23-.44.45-.88.67-1.32a.31.31,0,0,0-.55-.26c-.33.24-.63.51-1,.73s-.73.47-1,.78a16.61,16.61,0,0,1-1,1.41,2.13,2.13,0,0,1-.68.46c-.52.29-1.11.44-1.64.71a.92.92,0,0,0-.27.2Z" style="fill:#69737c;stroke:#000;stroke-width:1.5px"/><path d="M907.52,212.93a2.35,2.35,0,0,1,.34,1.12c.06.48.18.94.24,1.42s-.55.79-.63,1.28a6.81,6.81,0,0,1-.06,1,10.15,10.15,0,0,1-.15,1.6c-.25.48-1,.12-1.41.24a1,1,0,0,1-1.21-.31,13.64,13.64,0,0,0-1.1-1.18,6.62,6.62,0,0,1-1.34-1.6c-.3-.42-.55-.87-.84-1.29-.1-.18-.2-.41-.27-.56" style="fill:none;stroke:#000;stroke-width:1.5px"/><path d="M902.77,217.34a9,9,0,0,1-1.28.08h-1.27a6.83,6.83,0,0,1-1.22-.33c-.35-.07-.52-.27-.82-.4s-.43,0-.71,0a6.15,6.15,0,0,0-.84-1,1.65,1.65,0,0,1-.7-.49c-.26-.06-.46-.49-.56-.63s-.25-.54-.44-.78-.25-.52-.43-.79c0-.06,0-.13,0-.19" style="fill:none;stroke:#000;stroke-width:1.5px"/><path d="M897.47,216.66c-.1.61-.78,0-1.09-.08a5.21,5.21,0,0,0-.77-.37,3.84,3.84,0,0,0-.72-.38,4.23,4.23,0,0,1-.8-.48c-.38-.09-.66-.46-1-.56A7.56,7.56,0,0,0,892,214a11.39,11.39,0,0,1-1.16-.92,1.56,1.56,0,0,1-.66-1.06,3.34,3.34,0,0,0-.31-1.18c0-.23-.13-.31-.09-.52" style="fill:none;stroke:#000;stroke-width:1.5px"/><path d="M925.74,217a3.82,3.82,0,0,0,1.17-.1,6.68,6.68,0,0,0,1.15-.27c.4-.17.72-.57,1.19-.53s.9.13,1.27-.13a.93.93,0,0,1,1-.37,3.31,3.31,0,0,1,1.15.15c.35.13.72.21,1.08.33a10.08,10.08,0,0,0,1,.52c.36.18-.25.43-.36.62-.36.15-.79,0-1.11.29a1.64,1.64,0,0,0-.78.76c-.19.4-.67.28-1,.41s-.69,0-1,.06a1.7,1.7,0,0,1-.88,0,4.21,4.21,0,0,0-1.14-.21c-.3-.21-.54-.54-.94-.57s-1-.47-1.48-.64a.45.45,0,0,1-.26-.27Z" style="fill:#bca76b"/><path d="M877.9,182.72a13.87,13.87,0,0,0-2.63.21,14.7,14.7,0,0,1-2.49.09,8.14,8.14,0,0,0-2.68.06c-1.31.21-2.56.73-3.88.93-1.78.11-3.58,0-5.37,0-1.26.11.12-1.52.83-1.45a30.41,30.41,0,0,1,4.92-1.2c1.26-.19,2.48-.57,3.73-.79,1-.29,2-.51,3-.81a9.44,9.44,0,0,1,3.17-.19,21.06,21.06,0,0,0,3.23-1c.95-.47,2.08-.16,3-.74a2.54,2.54,0,0,1,2.51-.73,3.86,3.86,0,0,1,2.58,1.37c.7,1-1.44.88-.8,1.95a2.31,2.31,0,0,1-1.69.45,3.07,3.07,0,0,1-1.49-.17,14.06,14.06,0,0,1-2.18-1.34c-.77-.12-.81,1.3-1.78,1.14a11.13,11.13,0,0,1-3.86.37,7.25,7.25,0,0,1,2.35,1.16c.25.39-.2.54-.49.62Z" style="stroke:#000"/><path d="M883.09,179.16l.82-.37.45-.74s.7,1.05.37,1.41-1.63-.3-1.63-.3Z" style="fill:#fff"/><path d="M885.26,177.17c.17-.13-.68-.65,0-.79.67-.8,1.71-.14,2.49.1a7.86,7.86,0,0,1,4.05,2.33c1.43,1.65,1.75,3.91,2.88,5.73a16.71,16.71,0,0,1,1.12,2.76c.24.75,1.38,1.52.78,2.33-.7.43-1.41-.14-2.08-.32-.9-.09-.46.91.13,1s.84,1.27-.08,1.21-1.74-.17-2.59-.3c-.68-.37.18-1,.56-1.3s1.18-.71,1.08-1.41c0-1.26-.86-2.29-1-3.5a11,11,0,0,0-.9-2.67,5.63,5.63,0,0,0-4-3.91c-.77-.4-1.6-.74-2.34-1.18l-.05-.11Z" style="fill:#fff"/><path d="M891.78,178.15c.26.14.51.3.78.44a9.81,9.81,0,0,1,.84,1.2,3.16,3.16,0,0,1,.2.67,2,2,0,0,0,.43.73c.14.33.25.69.38,1a2.48,2.48,0,0,1,.41.85,4.55,4.55,0,0,0,.25.78c.15.21.23.63-.14.65a1.08,1.08,0,0,1-.64-.41,5.42,5.42,0,0,1-.65-.92,2.41,2.41,0,0,1-.27-.7,5.74,5.74,0,0,1-.29-.86c-.13-.27-.18-.56-.33-.82s-.23-.62-.42-.91-.71-1.19-.58-1.58c0-.06,0-.11,0-.17Z" style="fill:#bca76b"/><path d="M885.91,176a1.17,1.17,0,0,1-.49-.38,3.5,3.5,0,0,1-.55-.3c-.38.15-.07-.25-.25-.19-.09-.15-.08-.25-.17-.41s-.27-.25-.38-.39-.16-.19,0-.18a1.19,1.19,0,0,1,.6.07c.2,0,.35.11.55.08s.56,0,.84,0,.15.13.3.08.12.1.24.06.26.25.38.38a.7.7,0,0,1,.28.46.54.54,0,0,1,.06.2s0,.2-.08.19c-.14.14-.34.16-.49.25s-.35.19-.55.15l-.29-.07Z" style="fill:#bca76b"/><path d="M885.42,175.59a1.7,1.7,0,0,1-.91.19,1.24,1.24,0,0,0-.52.34,1.7,1.7,0,0,1-.61.19c-.17,0-.3-.17-.47-.22s-.14-.25-.3-.3a2.7,2.7,0,0,0-.51-.25c-.15-.07-.1-.25-.12-.38a1,1,0,0,1,.08-.44c0-.21.18-.29.36-.25h1a.94.94,0,0,1,.57-.16c.19.06.29.26.44.38.32.29.63.6.94.9Z" style="fill:#fff"/><path d="M887,174.78a2.33,2.33,0,0,1,.73-.26,3,3,0,0,1,.74.15,3.28,3.28,0,0,1,.77.29,8,8,0,0,1,.79.36c.24.13.48.27.72.39a4.45,4.45,0,0,1,.65.39,3.07,3.07,0,0,1,.6.58c.15.17,0,.5-.23.32a3.17,3.17,0,0,0-.74-.33,2.09,2.09,0,0,1-.69-.19c-.25,0-.48-.21-.74-.28s-.67-.25-1-.4a5,5,0,0,0-.47-.21l-.91-.46c-.09-.1-.28-.19-.24-.35Z" style="fill:#fff"/><path d="M890.68,180.06c-1-.08-2,.39-3,.07-.75-.1-1.33.46-2,.73-.83-.08-1,1.11-1.74,1.05s-1.39-.57-2-.34a20.08,20.08,0,0,1,3.75,2,5.66,5.66,0,0,0,2.15,1.33c.56.24,1.2.8,1,1.47s-1.43.93-1.47,1.82-1,1.11-1.27,1.82c-.3.55-1,.88-1.06,1.55.17.84,1.14.21,1.12-.41.15-.54.62-1.37,1.29-1,.54.77,1.21-.54,1.86-.23.3.45,1,.69,1.3.09.44-.17,1.14-.46.72-1.09,0-.65.78-.6,1.15-1s1-.88.48-1.36c-.5-.69,0-1.67-.58-2.31s0-1.65-.38-2.41-.59-1.52-1.27-1.79Z"/><path d="M917.53,207.27c-1.14,0-2.06.85-3.2.93-1.37.19.36.81.78,1.11a15.32,15.32,0,0,0,3.59,1.39,6.15,6.15,0,0,0,3.66.66c1.16-.27.3-1.43,0-2.07-.7-1-1.88-1.5-2.75-2.32a1.41,1.41,0,0,0-2.06.3Z" style="fill:#69737c"/><path d="M916.76,209.7a5.4,5.4,0,0,1-1.26.14,2.36,2.36,0,0,1-1.46-.12,5.29,5.29,0,0,1-1.49-.5c-.35-.23-.83-.33-1-.73s.31-.46.59-.51a4,4,0,0,1,1.57-.1c.56.29,1.18.44,1.74.74a3.61,3.61,0,0,1,1.27.81,1.1,1.1,0,0,1,.08.27Z" style="fill:#fff"/><path d="M922.37,209.36c.08.49-.79,0-1.09.19a3,3,0,0,1-1.63-.33,12.74,12.74,0,0,0-2.63-1c-.43-.11-1.29-.5-.67-1a3.79,3.79,0,0,1,1.73-.76,4.84,4.84,0,0,1,1.8.61,8.29,8.29,0,0,1,1.75,1,1.7,1.7,0,0,1,.75,1.32Z" style="fill:#fff"/><path d="M906.87,203.82a5.06,5.06,0,0,1-2.75.71c-.86.32-2.33-.46-2.63.68-.41.93.7,1.32,1.3,1.73,1.75,1,3.81,1,5.76,1,.53,0,2.23-.2,1.33-.85a16.3,16.3,0,0,1-2.49-2.68,2.06,2.06,0,0,1-.52-.62Z" style="fill:#69737c"/><path d="M916.66,204.46a8.39,8.39,0,0,1-1.14-.33,12.62,12.62,0,0,1-1.45-.76c-.66-.38-1.32-.79-2-1.11-.34-.12-.27-.48.1-.44s.49-.57.85-.19a5,5,0,0,1,1.22,1,3.55,3.55,0,0,0,1.36.9c.39.22,1,.43,1.06,1Z" style="fill:#69737c"/><path d="M915.34,206.27a5.72,5.72,0,0,1-2.6.12,9.63,9.63,0,0,1-1.8-.6,6.85,6.85,0,0,1-2-1.23.76.76,0,0,1,.81-1.2c.43-.12.25-1.11.91-.67a12,12,0,0,1,2.59,1.48c.47.45,1,.84,1.44,1.3C914.93,205.73,915.34,206.27,915.34,206.27Z" style="fill:#69737c"/><path d="M902.13,193.82a5.67,5.67,0,0,1,3.28,1.9c1,1.26-1,2-1.91,1.24a28.16,28.16,0,0,0-4.63-2c-1.54.2.68,1.09,1.12,1.5a2.45,2.45,0,0,1,1.26,2c-1,.79-2.32-.05-3.45-.16s-1.91-1.21-2.68-2a1.66,1.66,0,0,0-2-.59c0,1,.75,1.28,1.22,2.15.42.52,2,1.85.48,1.86a4.73,4.73,0,0,1-2.81-2.11c-.7-.72-1.25-2.22.19-2.41a8,8,0,0,1,4.14-1.11c1.57-.15,3.17.11,4.71-.3C901.31,193.81,902.31,193.29,902.13,193.82Z" style="fill:#69737c"/><path d="M890.17,194.72a2.06,2.06,0,0,0-.34,1,8,8,0,0,0,.06,1.22c.11.32.19.69.32,1a3,3,0,0,0,.79.84,2.76,2.76,0,0,0,.79.57,3.59,3.59,0,0,0,.73.32,5,5,0,0,0,.93.27c.35.06.6,0,.74-.29.35-.22.07-.41-.17-.48a1.85,1.85,0,0,1-.75-.48,3.08,3.08,0,0,1-.62-.8,3.62,3.62,0,0,0-.47-.77,5.57,5.57,0,0,0-.56-.64,5.86,5.86,0,0,1-.71-.77,8.69,8.69,0,0,0-.65-.76.35.35,0,0,1-.09-.22Z" style="fill:#fff"/><path d="M900.56,198.82a16.54,16.54,0,0,1-2.5-.56,4.61,4.61,0,0,1-2.26-1.6,14.15,14.15,0,0,0-2.07-1.74c-.8-.24-1.13.88-.62,1.37.44.7,1.08,1.25,1.57,1.91a7.81,7.81,0,0,0,2,1.45,6.78,6.78,0,0,0,3.12.82,1.75,1.75,0,0,0,1.53-1.12C901.42,198.92,900.87,198.83,900.56,198.82Z" style="fill:#fff"/><path d="M898.26,204.1a2.12,2.12,0,0,1-1.7-.26,3.13,3.13,0,0,1-1.11-1.17,3.32,3.32,0,0,0-1.47-1.14c-.54-.15-1.18.22-1,.83a2.45,2.45,0,0,0,.8,1.26,6.37,6.37,0,0,0,2.06,1.13,2.67,2.67,0,0,0,1.2.24c.41,0,1.07.15,1.21-.38,0-.17,0-.34,0-.52Z" style="fill:#fff"/><path d="M904,202.42a1,1,0,0,1,.51,1.33,1.8,1.8,0,0,1-1.66.74,6.29,6.29,0,0,1-1.6-.09,9.06,9.06,0,0,1-1.7-.75c-.6-.2-.67-.91-1.07-1.32-.25-.46.58-.69.93-.55.58.19.94.74,1.5,1a4,4,0,0,0,1.41.52c.43.1,1,.19,1.29-.25a4,4,0,0,1,.39-.58Z" style="fill:#fff"/><path d="M909.09,201.15a.89.89,0,0,1-.44,1.42,2.93,2.93,0,0,1-1.52.05,6.84,6.84,0,0,1-2-1c-.38-.32-1-.43-1.25-.87a.76.76,0,0,1,1-.86,12.82,12.82,0,0,1,2.4.78,4.78,4.78,0,0,0,1.68.49Z" style="fill:#fff"/><path d="M910.72,195.47a41.25,41.25,0,0,1,7.08,6.92c1.55,1.83,2.5,4.33,4.77,5.47,3.2,3.42,16.9,7.38,16.95,8.45-3.16-1.29-4.53,3-7.59,2.33-2.85.83-5.19-1-7.66-2.07-3.7-.13-7.56.06-10.86,1.94-1.8,1-3.94-.53-5.37,0l-.16.31-.21.19m-17.47-6.57c-2.19-1.09-3.8-3.13-5.84-4.37-1.58-2.22-3.61-4.45-3.51-7.37-.25-3-1-7.2.4-10.08-1-2.25-2.48-2.86-3.62-5.08-.83-3.07-3.94-4.83-2.07-7.17,2.08-1.85,3.53-4,6.21-5a11.67,11.67,0,0,1,6.61.46c2.76.32,4.27,2.68,5.73,4.72a23.34,23.34,0,0,1,3.43,9.09c1.27,2.66,4.66,3.2,7.14,4.34a22.89,22.89,0,0,1,6,3.5" style="fill:none;stroke:#000;stroke-width:1.5px"/><path d="M0,0H600V300H0Z" style="fill:#012169"/><path d="M0,0V33.54L532.92,300H600V266.4L67.08,0ZM600,0V33.54L67.08,300H0V266.4L532.92,0Z" style="fill:#fff"/><path d="M250,0V300H350V0ZM0,100V200H600V100Z" style="fill:#fff"/><path d="M0,120v60H600V120ZM270,0V300h60V0ZM0,300,200,200h44.72l-200,100ZM0,0,200,100H155.28L0,22.36ZM355.28,100l200-100H600L400,100ZM600,300,400,200h44.72L600,277.64Z" style="fill:#c8102e"/></svg>