<svg xmlns="http://www.w3.org/2000/svg" viewBox="0 0 900 600"><title>Saudi_Arabia</title><path d="M900,600V0H0V600Z" style="fill:#006c35"/><path d="M636.91,160.58c5.1-3.64,9.84-7.71,15.52-10.58-1.62,6.5-6.49,11.46-11.47,15.64-2.55,2-1.39,5.62-1.74,8.37-1.39-.33-2.66-.66-4.05-1.1,1.27,16.53,3.13,32.94,3.94,49.47.12,1.87.23,3.86,1.85,5.07,7.64,6.83,15.52,13.55,21.08,22.25,2.2,3.42,3.36,7.27,4.52,11.13a61.17,61.17,0,0,0,.58-19.5q-4.17-37.68-7.53-75.57c-.23-3.08-.69-6.28-.35-9.36a5.83,5.83,0,0,1,6-5.07,14.48,14.48,0,0,1,3.59,5.4c2.32,5.18,4.4,10.8,3.82,16.64-1.39-.44-2.78-1-4.29-1.54,2.08,17.08,4.17,34.15,5.44,51.34.58,11.57,2.32,23.25-.12,34.7-2.08,10.58-7.3,21.26-16.56,27.32-7.76,5.07-16.79,7.93-25.83,9.8a23.72,23.72,0,0,1-11.12.11c3.82-2.09,8.11-3.64,12.16-5.4a105.89,105.89,0,0,0,16.91-8.81c5-3.31,10.19-6.61,13.9-11.46-4.63-12.34-12.28-23.91-23.16-31.51.35,12.12.93,24.46-.93,36.47a12.53,12.53,0,0,1-3.59,7.38c-1.27-5.07-1.39-10.36-2-15.53-1-11.24-2-22.58-2.78-33.82,0-2.31-1.51-4.08-3.24-5.4-6.83-5.73-13.2-12.12-19.8-18.07.23,6.94,1.27,13.77,1.74,20.6.81,9.25.93,18.51,1.85,27.76.58,6.5.69,13.33-1.74,19.5-2.43,5.84-7.88,10.8-14.36,11.24a40.24,40.24,0,0,1-10.31-.55c-3.59-.55-6.37-3.31-8-6.39-2-3.75-3-7.93-4.63-11.79-3,.66-6.14,1.32-8.34,3.64-4.63,4.41-6,11.13-8.22,16.86-1.27,3.42-2.78,7.16-6.14,9s-7.76,1.21-11.12-.66c-5.1-2.75-8.22-8-9.73-13.44-1.51-4.19.58-9-2-13-1.85-3.64-.81-7.93.12-11.68,2-6.72,6.14-12.45,11.12-17.3l-19.8-17.19c.58,15.86,1.85,31.73-.23,47.48a13.78,13.78,0,0,1-3.82,8.48,60.17,60.17,0,0,1-1.39-9.14q-2.43-26.11-4.17-52.22c-.12-2-.46-4.19-2.08-5.51a253.1,253.1,0,0,1-19.23-20.38c-3.47-4.41-7.06-8.92-8.92-14.21-.69-2.2-1.27-5.29.81-6.94a18.13,18.13,0,0,1,6.72,2.42,46.88,46.88,0,0,1,10.54,8.37,12.42,12.42,0,0,1,2.66,5.18c-2,0-3.82-.11-5.79-.11a77.07,77.07,0,0,0,13.9,15.2c-.46-14.76-2.08-29.63-2.78-44.4,0-2,0-4.19,1.39-5.84,1.27-1.43,3.24-2,5-2.64A48,48,0,0,1,517.74,167a22.42,22.42,0,0,1,.35,6.83c-1.39-.33-2.78-.77-4.05-1.21.93,12,2.2,23.91,3,35.91a25.4,25.4,0,0,0,.69,5.07,13,13,0,0,0,2.66,2.86c8.22,6.94,16.45,13.88,24.78,20.6,5-4.3,9.84-8.7,14.82-12.89a27.18,27.18,0,0,0,3.24-3c.93-1,.58-2.42.58-3.64-1.62-14.43-2.78-28.86-4.05-43.3-.35-5.29-1.16-10.47-1.16-15.64-.12-3.08,2.32-6.17,5.44-6.28,1.39-.11,2,1.43,2.66,2.31a47.81,47.81,0,0,1,5.1,13.11,15.14,15.14,0,0,1-.12,6.83c-1.27-.55-2.66-1.21-3.94-1.76,1.74,13.55,3.13,27.1,4.4,40.65,3.59-2.64,6.83-5.73,10.19-8.59,3.71-3.19,7.64-6.28,11.23-9.69-4.29-4.63-8.8-8.92-13.2-13.44-2.78-2.86-6.14-5.62-7.3-9.69-.93-2.86-.35-5.95.23-8.7,5.21.88,9.73,4,13.9,7.05a81.44,81.44,0,0,1,8,7.27c-.23-5.73-.93-11.46-1.39-17.19,0-2.2-.23-4.63,1.27-6.39,1.27-1.43,3.24-2,4.86-2.75a42.31,42.31,0,0,1,6.83,15,22.09,22.09,0,0,1,.58,7.27l-4.29-1c.46,4.41.93,8.7,1.51,13.11,5.44-4.08,10.42-8.7,15.87-12.78,1.85-1.76,5.21-3.08,5.21-6.17.12-3.31-.58-6.72-.12-10a5.82,5.82,0,0,1,6-5c2.78,2.64,3.82,5.95,5.33,8.81Zm-28.26,31.84c-.93,1-2.66,1.87-2.55,3.53.69,1.43,2.08,2.53,3.24,3.75,6.72,6.06,13.09,12.45,20.15,18-.23-6.5-.93-12.89-1.27-19.39-.58-6.83-.81-13.66-1.51-20.49-6.25,4.52-11.93,9.8-18.07,14.65Zm-17-12c1.51,1.65,2.9,3.31,4.4,5,0-1.65-.12-3.31-.12-5h-4.29Zm-16.21,40.21c-1.16,1-2.55,2.09-2.43,3.75-.12,8.37.81,17-1.27,25.12-.46,2.09-2,3.53-3.47,4.85-1.85-8-2-16.3-3.36-24.46-5,4-9.73,8.26-14.36,12.56,2.66,3,5.33,6.17,6.25,10.25a15.5,15.5,0,0,1-4.86,15.86c-5.68,4.74-13.32,5.51-20.38,6.39,1,4.63,2,9.47,4.75,13.44,1.74,2.31,4.52,4.52,7.53,3.64,3.24-.88,5.21-4,6.37-6.83a92.17,92.17,0,0,1,8.34-16.86c2.78-4.41,7.3-8,12.62-8.15,1.74.11,4.05-.44,5.1,1.43,2.32,3.86,3.13,8.48,6,12.12,4.86,6.39,15.17,6.5,21,1.21,2-1.76,2-4.63,1.74-7.05-2.66-21.92-4.63-44.07-6.95-66C590.24,207.95,582.94,214.34,575.41,220.62Zm-40.88,37.46a16.79,16.79,0,0,0-2.55,5.84A24.77,24.77,0,0,0,547,260.72c1.39-.88,3-2.31,2.66-4.19-.35-3.75-3.47-6.39-6.25-8.59a85.5,85.5,0,0,0-8.92,10.14Z" style="fill:#fff"/><path d="M317,151.21c1.39-.88,2.66.66,3.59,1.65,2.78,3.42,5.79,6.83,7.41,11l-4.29.66c.35,6.61,5.91,11.13,7.53,17.41a24.39,24.39,0,0,1,.46,11.9,14,14,0,0,1-11,10.8c-6.37,1.1-13.55-.44-18.3-5.18-3.13-3.08-4.29-7.49-5.68-11.46-1.51,5.4-3.71,10.58-7.53,14.76a27.2,27.2,0,0,1-8,5.84c.81,14.76,2.32,29.52,1,44.18-.46,4.19-.69,9.14-4.52,11.9-1.39-5.84-1.62-11.9-2.32-18-1.27-12.23-2.2-24.46-3.47-36.69-3.59-.88-7.53-1.65-10.31-4.3-4.63-4.19-6.14-10.69-5.79-16.64.12-4.63,1.62-9.14,2.66-13.66a16.78,16.78,0,0,0-3.94,6.17c-2.43,7.38-4.05,15.09-7.41,22.14a10.06,10.06,0,0,1-6.72,5.73c-3.71.77-8.11.55-11-2.31-3.13-3.08-3.82-7.71-4.29-11.9-.23-4.3-.58-8.92,1.39-12.89,1.16-2.42,3.59-3.75,5.68-5-1.39,2.31-3,4.63-3.36,7.27-.46,3.75.23,7.6.93,11.24.46,2.2.93,4.63,2.66,6.17a7.42,7.42,0,0,0,9.73-.22,16.12,16.12,0,0,0,2.78-5.4c2.32-7.05,4.17-14.32,7.06-21.15,2.55-5.73,7.06-11.35,13.55-12.56-.69,7.82-4.29,15.09-4.52,23-.12,3.53.23,7.38,2.55,10.14,1.74,2.31,4.63,3.08,7.3,3.86-.69-10.69-1.74-21.37-2.43-32.17-.23-4-.93-8-.23-12,.58-2.75,3.59-3.75,5.91-4.63,4.4,6.5,7.64,14.21,7.53,22.14l-4.4-1c.93,9.14,1.85,18.4,2.9,27.54a17.37,17.37,0,0,0,9.5-6.94c4.52-6.5,5.21-15,3-22.47-.93-3.19-2.43-6.17-3.13-9.47-.69-3.08,1.51-6.28,4.29-7.27,1.27-.55,1.85,1,2.43,1.87,1.74,3.75,2.32,7.93,3.13,12,1,5.4,0,11,2,16.19a20,20,0,0,0,8.69,10.8A16.84,16.84,0,0,0,321.19,196,5,5,0,0,0,325,192.3c.93-3.53-.35-7.16-1.85-10.36-3.47-7.27-7.76-14.21-9.38-22.14-.58-2.86.23-6.83,3.24-8.59Z" style="fill:#fff"/><path d="M476,159.69a21.93,21.93,0,0,1,9.61-8.48,43.43,43.43,0,0,1-4.17,7.49c-1.16,1.76-1.16,4-1.27,5.95a37.76,37.76,0,0,0,7.88-1.21c-.69,2.09-1.39,4.3-3.36,5.62-2.2,1.54-5.44,2.53-7.76.66a8.63,8.63,0,0,1-.93-10Z" style="fill:#fff"/><path d="M332.43,154.85c1.16-1.76,3.36-2.42,5.1-3.19a42.33,42.33,0,0,1,7.18,15.86,18.13,18.13,0,0,1,.12,6.61c-1.27-.44-2.66-.88-3.94-1.32,1.51,10.69,3.36,21.26,4.63,31.95,6.14-3,11.81-6.61,18.18-9.25A20,20,0,0,1,370,194c-.81,1.76-1.74,3.53-3.59,4.3-6.72,3.42-13.55,6.39-20.15,10.14.58,5.29,1.16,10.69,1.85,16,3-3.86,5.68-8.7,10.89-9.92.23,2.86-.69,6.28,1.39,8.59,3.24,2.53,7.64,1,10.66-1.32-.23-4.19.93-8.26,1.74-12.34,1.27.55,2.9.77,3.36,2.31,1.39,3.86,1,8.15,0,12-1,4.41-4.63,7.71-8.57,9.69-2.43,1.21-5.44,1.87-8.11.77s-4.52-3.75-6.37-6.06c-1.62,4-4.29,7.6-4.4,12.12a47.25,47.25,0,0,1-9.84,26c-9.84,12.89-24.9,20.6-40.19,25.12-8.8,2.42-18,4.63-27.22,4.19A28.55,28.55,0,0,1,257,291.68c-1.85-1.21-3.47-2.86-5.33-4-2.32-.44-4.75.22-7.18.22-5.79.22-11.58.44-17.26-.55,6.95-2.31,14-4.08,20.85-6.61a55.39,55.39,0,0,1,6.95-36.13,37.41,37.41,0,0,1,6.25-7.6c-2,4-4.4,7.82-5.44,12.23a51.83,51.83,0,0,0,.46,28.2c4.75-1.54,9.38-3.64,13.9-5.62,10.54-4.63,20.85-9.58,30.46-16,3.59-2.53,7.3-5.18,9.73-9,1.16-1.87.93-4.08.93-6.17-5,1-9.84,3.31-15.06,3.19-3.24-.22-6.72-.88-9-3.42s-2.43-6.17-2-9.36A18.06,18.06,0,0,1,291.2,220c3.82-3.19,9.5-3.08,13.9-1.1s6.72,6.17,8.8,10.14c6.49-2.42,10.89-8.15,17.26-10.91.23,3.31-.12,7.16,2.43,9.8,1.51,1.87,4.05,1.76,6.14,2-.35-5.29-1.16-10.47-1.85-15.64-2.2-17.3-4.4-34.7-6.25-52.11-.12-2.53-.46-5.18.81-7.27Zm-39.61,75.24c-.58,1.21.81,2,1.74,2.42,3.47,1.21,7.3.44,10.89-.22-1.85-2-4.05-4.19-7.06-4.3-2-.11-4.75,0-5.56,2.09Zm25.25,7.16c.23,3.53.35,7.05-.81,10.36-1.85,5.62-6.14,10.14-10.54,13.88-8.45,6.94-18.41,11.46-28,16.53a116.5,116.5,0,0,1-13.55,6.5c5.91.44,11.81-.55,17.6-1,8.92-.55,17.49-3.08,25.71-6.39,8.57-3.53,16.91-8,23.63-14.65a31.1,31.1,0,0,0,8.69-14.54,41.35,41.35,0,0,0,.81-8.48c-3.47-.11-7.18,0-10.31-1.76-2.55-1.43-3.94-4.19-5.44-6.61a57,57,0,0,1-7.76,6.17Z" style="fill:#fff"/><path d="M412.23,154.52c1.27-1.43,3.59-1.21,5.1-.22a11.66,11.66,0,0,1,5.1,10.25,19.23,19.23,0,0,1-1.51,5.18c-.46-2.53-.35-5.18-1.51-7.49-1.74-2.42-5-2.86-7.06-4.85C411.53,156.72,411.18,155.18,412.23,154.52Z" style="fill:#fff"/><path d="M459.71,155.84c.23-1.54,1.74-3.19,3.36-2.31,4.52,2.2,7.76,6.39,9.84,10.91-1.62,0-3.24-.11-4.75-.22a63.27,63.27,0,0,0,2.9,9c1.74,4.19,4.17,8.15,4.86,12.78.81,5.07-.12,10.8-3.71,14.65-6.72,7.49-20.15,6.17-25.94-1.87-2.2-2.86-3.36-6.17-4.52-9.58-1.85,7.27-5.79,14.32-12.39,18.07a20.86,20.86,0,0,1-22-.77,14.1,14.1,0,0,1-6.6-11.57c-.46-6.83,2.2-13.22,3.13-19.83a14.49,14.49,0,0,0-3.82,5.84c-2.78,7.38-3.94,15.31-7.88,22.25-1.85,3.31-5,6.28-8.92,6.61s-8-1.21-10.19-4.52c-2-3.08-2.43-6.83-2.43-10.47a36.28,36.28,0,0,1,3.94-16c0,6.94-2.08,14.54,1.39,21,1.74,3.64,6.37,5.73,10,3.75,3.24-2,4.75-5.73,5.91-9.14,2.43-7.27,5-14.65,8.57-21.48,1.51-2.75,3.13-5.62,5.68-7.6,1.27-1.1,3.13-1.1,4.75-1.43.35,6.17-3.13,11.57-4.29,17.52-1.16,5.18-1.51,11.35,2.2,15.64,4.17,4.52,11.12,5.62,16.91,4.08,8-2.53,13.78-10.58,14.13-18.95.23-5,.46-10.36-2.2-14.76-1.16-2.31-3.36-4.74-2.43-7.6a9.69,9.69,0,0,1,5.1-6.39,21.35,21.35,0,0,1,3.59,9c.93,7.6,1,15.42,3.71,22.69,1.62,4.19,4.05,8.48,8.34,10.47,3.94,1.87,8.8,2.31,12.62.33,2.43-1.21,3-4.19,2.43-6.61-1.62-7.93-7.06-14.21-9.61-21.81-1.39-3.86-2.43-7.82-1.62-11.79Z" style="fill:#fff"/><path d="M537.54,154.19c2.43-1.1,5.91-.22,7.06,2.31a2.62,2.62,0,0,1-1.27,3,22.2,22.2,0,0,1-4.75-1.87c-2,3.75-3,7.93-4.17,12.12a27.27,27.27,0,0,0-2.78-5.84c-1.62-2.2-4.17-3.31-6-5.29-.58-1.76,1.51-3.75,3.24-3.19,2.55.77,4.05,3.08,5.56,5.18.69-2.31,1-5.07,3.13-6.39Z" style="fill:#fff"/><path d="M226,163.44c2-4.19,5.79-7.27,10-9.25-1,2.75-2.78,5.07-4.17,7.6-1.16,1.76-1,4-1.16,5.95a34.41,34.41,0,0,0,8-1.65c-.81,2.09-1.62,4.41-3.59,5.84s-5.21,2.42-7.41.88C225.07,170.6,224.6,166.53,226,163.44Z" style="fill:#fff"/><path d="M374.12,157.82c.69-3.64,6.14-3.53,7.88-.77,1.16,2,1.74,4.08,2.9,6.06s2.32,4.08,1.62,6.39c-1,3.64-3.71,6.5-4.05,10.36,1.27-.55,2.55-1.21,3.82-1.87-.35,2,0,4.63-2.08,5.73-2.55,1.21-5.68-1.21-5.44-4,.35-5,5.21-8.81,3.71-14.1-4.86,6.5-11.58,12.34-19.8,13.55,3.59-2.86,7.64-4.85,10.89-8.15a29.29,29.29,0,0,0,4.86-6.94c-1.74-1.76-4.75-3.42-4.29-6.28Zm3.36-.33a9.13,9.13,0,0,0,3,2.86A4.5,4.5,0,0,0,377.48,157.49Z" style="fill:#fff"/><path d="M348.41,160.14c1.74-.44,3.82-1.1,5.21.44a16.25,16.25,0,0,1,4.75,15.53c-.93-2.09-1.62-4.3-2.66-6.28-1.74-3.75-5.56-5.95-7.3-9.69Z" style="fill:#fff"/><path d="M311.12,162.45a8,8,0,0,1,2.2,6.72c-2.78.44-5.56,1.21-8.34,1.87a2.89,2.89,0,0,1-3.47-2.2,17.7,17.7,0,0,1,.81-4.85c.58,1.65,1.16,3.31,1.74,5.07.69-.33,1.51-.55,2.2-.88v-4.52h1.62c.23,1.32.46,2.75.69,4.08l2.66-.33c-.12-1.65-.12-3.31-.12-5Z" style="fill:#fff"/><path d="M546.34,166.08a24.52,24.52,0,0,1,6.95-.88,11.17,11.17,0,0,1-4.05,3.19c-8,3.19-16.21,5.51-23.86,9.58.69,1.43,1.39,2.75,2.08,4.19-1.85-.33-4.05-.33-5.44-1.87a3.09,3.09,0,0,1,.12-4.63,18.59,18.59,0,0,1,4.17-2.2c6.6-2.42,13.2-5.18,20-7.38Z" style="fill:#fff"/><path d="M425.31,171.81a21.45,21.45,0,0,1,2.9-1.87c-.12,3,.93,5.62,2.2,8.26s.23,6.39-2.9,7.05c-2.66.88-5.1-.77-6.95-2.31-1.51,1.32-3.13,3.08-5.33,2.75-4.05-.22-6-5-5.21-8.48.35-2.31,2.2-3.75,3.82-5.18-.23,2.42-1.16,4.85-.58,7.27.46,1.65,2.43,1.65,3.82,2.2.46-2.64.58-5.4,1.27-8.15.23-1.43,2-1.54,2.9-2.2.23,2.31.12,4.63.81,6.83.58,1.65,2.55,2.2,3.94,3,.69-3.19-.69-6.17-.69-9.14Z" style="fill:#fff"/><path d="M305.1,176c1.74,0,3.82-.33,5.21,1.1a16,16,0,0,1,4.4,15.31c-1.39-3.64-2.55-7.6-5.56-10.36C307.3,180.41,305.44,178.53,305.1,176Z" style="fill:#fff"/><path d="M544.84,189.88a15,15,0,0,1,2.9-2.42,17.89,17.89,0,0,0,2.08,7.71c1.16,2.42,1.16,6.28-1.74,7.38-2.66,1.21-5.44-.22-7.64-1.76-1.74,1.32-3.82,3-6.25,2.31-3.59-.77-5.1-5-4.52-8.26.23-2.42,2.32-4,3.94-5.51-.35,2.53-1.39,5.07-.69,7.6.58,1.65,2.55,1.32,3.94,1.65.46-2.86.23-5.84,1.39-8.48a11.88,11.88,0,0,1,2.9-1.54c.12,2.53-.35,5.29.93,7.6.81,1.43,2.55,1.54,3.94,2-.12-2.75-.93-5.51-1.16-8.26Z" style="fill:#fff"/><path d="M641.08,193.85a2.62,2.62,0,0,1,2.55-3.53c2.9,0,5.1,2.42,6.49,4.74,2.43,4.74,3.59,10.47,1.62,15.53-1-4.52-.93-10.25-5.1-13.22-1.85-1.1-4.05-1.76-5.56-3.53Z" style="fill:#fff"/><path d="M481.14,203.76a5.34,5.34,0,0,1,5.21-1.43c2.32,2.2,1.85,6.17,0,8.48-3.36,4.41-8.92,6.5-14.36,6.5,3.36-2,7.18-3.08,10.19-5.62,1.39-1,1.16-2.86,1.39-4.41-1.62.22-3.24.55-4.75.77a22.24,22.24,0,0,1,2.32-4.3Z" style="fill:#fff"/><path d="M559,207.18c1-.22,2.43-.88,3.13.22-.81,2.64-3.59,3.75-5.79,4.85-8.34,3.86-16.45,8.15-24.67,12.34-.35-.77-.81-1.43-1.16-2.2,4.63-3.42,9.73-5.95,14.71-8.7,4.63-2.31,9-4.85,13.78-6.5Z" style="fill:#fff"/><path d="M402,213.68c.23-1.65,1.39-2.86,2.32-4.08,6.37,6.94,11.81,15,14.71,24.13,2.78,8.7,3.47,17.85,5.21,26.77.93,4.52,1.74,9.25,4.75,12.89,2,2.53,4.86,4.08,7.64,5.62.58-2.86,1.27-5.95,3.94-7.6,8.11-5.4,17.49-8.7,26.75-11.68-7.53-.22-15.17,0-22.7-.11-6.14-.11-12.28.44-18.3-.66.23-2.31.23-4.74,1.62-6.83,2.78-4.63,7.64-7.27,12.28-9.69a113.41,113.41,0,0,1,21.89-8.92c-2-2.09-5-4.41-4.17-7.82,1.39-4,4.86-7.93,9.27-7.82,4.86,0,9.61,2,13.78,4.41,2.55,1.65,5.68,3.42,6.6,6.5a11.51,11.51,0,0,1-2.55,5.95c-2.66,3.31-7.41,3.08-11.35,3.53-.23,2.64-.58,5.84-3.24,7.05-.81-2.09-1.62-4.08-2.55-6.17-9.61,1.76-18.18,6.72-25.71,12.67,21.31.11,42.5-.44,63.82-.33,1.39.11,2.78.22,4.17.44-.93,5.62-6.6,8.37-11.58,9.58-10.08,2.2-20.15,4.19-30.23,6.17-7.53,1.54-15.17,3.31-22,6.72A17.9,17.9,0,0,0,440,280a92.72,92.72,0,0,0,15.4,4c1.74.44,4.17.77,4.63,2.86.69,2.75.81,6.61-1.85,8.37-3.36.77-6.83,0-10.19-.55-9.27-1.43-18.18-6.28-23.51-14.21-4.05-5.73-5.21-12.89-6.25-19.72a66.13,66.13,0,0,1-8.8,10.58c-9,8.48-19.92,14.65-31.27,19.61-3.94,1.76-8.92,2.31-12.86-.11-2.78-1.65-3.82-5.07-5-7.93-10.54,5.4-21.31,10.58-33,12.78a111.4,111.4,0,0,1-21.77,2.2c3.82-1.87,7.76-3.31,11.58-4.85,12.74-5.29,25.25-11.24,37.52-17.63,1.51-.88,3.36-1.65,4.4-3.08,1.16-3.19,1.27-6.61,3-9.69a22.06,22.06,0,0,1,8.22-8.81c-2.2,4.85-4.52,9.8-5.21,15.09a112.45,112.45,0,0,0,20.73-15.75c1.62-1.76,3.94-4,3-6.61-1.16-3.75-3.13-7.05-4.52-10.69-2.08-5.29-4.63-10.8-4.05-16.64.12-1.87,1.51-3.31,2.43-4.74,5.1,3.31,8.34,8.7,11.23,13.88l-3.24.66c2,5.4,5.21,10.25,6.14,16a15,15,0,0,1-3.47,12.56c-7.88,8.48-17.6,14.87-26.75,21.81,1.62.88,3.36,2.09,5.33,2,3.82-.11,7.53-1.43,11-2.86,12.74-5.62,23.16-15,33.93-23.69-2.66-10.36-7.41-20.05-12.39-29.52A19.65,19.65,0,0,1,402,213.68Zm61.5,13.66a11.1,11.1,0,0,0,5.1,4c3.13.66,6.14-1.21,8.45-3.19-2.9-2.2-6.25-4-10-4-1.74,0-3.59,1.43-3.59,3.19Z" style="fill:#fff"/><path d="M242.67,213.68a2.73,2.73,0,0,1,2.66-2.64c3.94-.44,6.72,2.75,9.15,5.29,1.27,1.32,2.32,3.08,1.51,5-.46,2.09-2.9,2-4.52,2.42-3.47.22-4.86,4-7.53,5.62-5.33,3.64-11.93,6.5-18.53,5.62,1.62-2.31,4.29-3.31,6.83-4.08,4.75-1.54,8.57-5,12-8.48-.93-2.86-2.08-5.73-1.62-8.7Zm2.2.44a13.4,13.4,0,0,0,1.74,5.51c.69-1.54,1.39-3.19,2-4.74A36.35,36.35,0,0,0,244.87,214.12Zm5.21,7.16c1.27-.11,2.55-.33,3.82-.44a17.68,17.68,0,0,0-1.27-4.85c-1.62,1.21-1.85,3.42-2.55,5.29Z" style="fill:#fff"/><path d="M439.33,214.56a9.71,9.71,0,0,1,2.78-2c0,3.86,2.78,6.83,3.13,10.58s-4.63,5.84-7.64,4.08c-.93-.66-1.74-1.43-2.55-2.09-1.62,1.43-3.36,3.53-5.79,3-3.71-.66-5.68-5-5-8.48.35-2.42,2.32-4,4.05-5.4-.35,2.31-1.16,4.52-.93,6.94.23,1.76,2.2,2.31,3.59,3.08a48.9,48.9,0,0,0,1.62-8.37c.23-1.54,2.08-1.76,3.13-2.53.12,2.31,0,4.74.69,6.94.69,1.54,2.32,2.31,3.59,3.19,1.39-3-.58-5.95-.69-8.92Z" style="fill:#fff"/><path d="M254.48,228.66c2-.88,4.05-2,6.25-2.2s3.13,3.08,1.51,4.41c-2.43,1.87-5.33,2.64-8.11,3.86-6.49,3.08-13,6.06-19.34,9.47-1.39.88-3.13.66-4.63.44a11,11,0,0,1,4.05-4.74C240.93,235.82,247.65,232.07,254.48,228.66Z" style="fill:#fff"/><path d="M498,232.07c.46-2.2,3-2.53,4.86-3.19.46,3.19.81,6.5,2.78,9.14l-3,.33c-1.39,2.09-2.9,4.41-5.21,5.51-3.82,1.87-8.11,1.87-12.28,1.65,4.4-1.21,9.84-1.54,12.74-5.51,2-2.31-.12-5.29.12-7.93Z" style="fill:#fff"/><path d="M585.49,235.27c.58-1.76,2.66-1.76,4.17-1.54,3.24.55,5.56,3.31,7.64,5.62a4.34,4.34,0,0,1,.58,5.73c-2.08,1.65-5.44.66-7.3,2.86-5.56,6.39-14.13,10.47-22.7,9.58,1.62-2.31,4.29-3.31,6.95-4.08,4.75-1.54,8.45-5.07,11.93-8.48-.93-3.08-2.32-6.39-1.27-9.69Zm2.2,1.32a25.31,25.31,0,0,0,1.39,5.84,24.7,24.7,0,0,0,2.08-4.74C590,237.25,588.73,236.92,587.69,236.59Zm6.72,2.42a34.25,34.25,0,0,0-1.62,4.85c1.27-.11,2.55-.33,3.82-.44a20.22,20.22,0,0,0-1.27-4.52C595.1,238.9,594.64,239,594.41,239Z" style="fill:#fff"/><path d="M366.36,238.68c2.2-2.09,6.14-1,7.53,1.54.69,1.43-.81,2.53-1.39,3.64a15.83,15.83,0,0,0-3.59-1.87c-1.16-.33-1.51,1-1.85,1.76-1.39,3.31-2.08,6.83-3.13,10.25a28.58,28.58,0,0,0-2.66-6.06c-1.39-2-3.71-3.08-5.44-4.74-1.62-1.32.12-4.19,2-3.86,2.66.33,4.29,2.75,6.14,4.52.69-1.76,1.16-3.75,2.43-5.18Z" style="fill:#fff"/><path d="M227.15,257.85a21.93,21.93,0,0,1,9.61-8.48,44.44,44.44,0,0,1-4.17,7.6c-1.16,1.76-1.16,3.86-1.27,5.84a49.77,49.77,0,0,0,8-1.1c-.69,2.09-1.51,4.41-3.47,5.62-2.2,1.43-5.33,2.53-7.64.66a8.86,8.86,0,0,1-1-10.14Z" style="fill:#fff"/><path d="M412,274.82c2-.33,4.29-1.21,6,.22a3.67,3.67,0,0,1,.69,5.51c-2.43,1.32-5.56.55-7.64,2.42.35,2.86,2.55,5.18,3,7.93.12,1.76-1.27,3.19-2.08,4.63-.58-2.75-1-5.73-2.55-8.15-.93-1.76-2.32-3.53-1.85-5.62.46-2.31,2.9-3.42,4.63-4.52A14.47,14.47,0,0,1,412,274.82Z" style="fill:#fff"/><path d="M500.83,278.23c.93-2.31,3.13-3.42,5.1-4.63-.81,1.87-2.2,3.75-2.43,5.84.93,1.65,2.43,2.86,3.24,4.63.23,2.86-3.94,3.31-5.44,1.54-1.74-2-1.51-5.07-.46-7.38Z" style="fill:#fff"/><path d="M479.4,275c3.24-1.1,6.72,0,9.61,1.65-2.08,4.3-6.95,5.4-10.54,8a9.2,9.2,0,0,1,.23,1.76c2.55.11,5.21.44,7.41-.88a34.28,34.28,0,0,1,9.15-3.64c-2.55,2.2-5,4.41-7.53,6.5-3,2.42-7.18,2.42-10.77,1.43-1.74-.55-3.94-2.09-3.36-4.3.93-2.75,3.71-4.19,5.91-5.84l-4.75-.33C476,277.68,477.2,275.48,479.4,275Z" style="fill:#fff"/><path d="M563.37,282.86a2.38,2.38,0,0,1,1.51-3.75c3.13-.55,5.79,2,7.18,4.52a12.39,12.39,0,0,1,.23,11.57c-.58-2.53-.58-5.18-1.85-7.49-1.74-2.31-5-2.75-7.06-4.85Z" style="fill:#fff"/><path d="M615.83,284.51c4.29-1.54,8.57-3.53,13.2-3.08a8.42,8.42,0,0,1-4.29,3.86c-7.18,2.64-14.48,5.07-21.54,8a36.49,36.49,0,0,1-6.95,2.31c-.23-.66-.58-1.32-.81-2,6.49-3.75,13.43-6.39,20.38-9.14Z" style="fill:#fff"/><path d="M601.83,426H566.16v-3.38c1.61-1.39,3.8-3.28,3.8-4.38,0-1.89-4.49-5.77-5.52-5.77s-5.52,4-5.52,5.77c0,1.19,2,2.88,3.57,4.28l.12.1v3.48H281.25c10,9.95,24.86,9.85,54.66,10.15,26.58.4,26.47.4,226.57,0v3.58c-1.61,1.39-3.57,3.28-3.57,4.38,0,1.89,4.26,5.77,5.52,5.77.81,0,3.45-2.19,4.83-4.08h12.31c.81,1.39,2.65,2.19,4.83,2.19a5.65,5.65,0,0,0,4.83-2.19H606a7.36,7.36,0,0,0,5.87,2.19c5.64-.2,6.9-3.08,6.9-13-.12-8.36-5.75-9.25-16.92-9.05Zm2.53,16.81H591.25a6.25,6.25,0,0,0-9.67,0H569.5a14.42,14.42,0,0,0-3.22-3.08v-3.58h38.2A11,11,0,0,0,604.37,442.84Z" style="fill:#fff"/></svg>