<svg xmlns="http://www.w3.org/2000/svg" viewBox="0 0 4320 2880"><title>Singapore</title><rect width="4320" height="2880" style="fill:#ed2939"/><rect y="1440" width="4320" height="1440" style="fill:#fff"/><path d="M1481.68,720c0,299.06-242.44,541.5-541.5,541.5S398.68,1019.06,398.68,720s242.44-541.5,541.5-541.5S1481.68,420.94,1481.68,720Z" style="fill:#fff"/><path d="M1651.83,720c0,282.62-229.11,511.73-511.73,511.73S628.36,1002.62,628.36,720,857.48,208.27,1140.1,208.27,1651.83,437.38,1651.83,720Z" style="fill:#ed2939"/><path d="M1007.2,733.06l-73.56-56.43-73.54,56.46,28.31-91L814.61,586l91.06.19,27.93-91.12,28,91.11,91.06-.23-73.78,56.12Z" style="fill:#fff"/><path d="M1584.38,733.06l-73.56-56.43-73.54,56.46,28.31-91L1391.8,586l91.06.19,27.93-91.12,28,91.11,91.06-.23L1556,642.08Z" style="fill:#fff"/><path d="M1296.08,518.85l-73.56-56.43L1149,518.88l28.31-91-73.79-56.09,91.06.19,27.93-91.12,28,91.11,91.06-.23-73.78,56.12Z" style="fill:#fff"/><path d="M1115.19,1075.81l-73.56-56.43-73.54,56.46,28.31-91-73.79-56.09,91.06.19,27.93-91.12,28,91.11,91.06-.23-73.78,56.12Z" style="fill:#fff"/><path d="M1476.38,1075.81l-73.56-56.43-73.54,56.46,28.31-91-73.79-56.09,91.06.19,27.93-91.12,28,91.11,91.06-.23L1448,984.83Z" style="fill:#fff"/></svg>