<svg xmlns="http://www.w3.org/2000/svg" viewBox="0 0 900 600"><title>Sint_Eustatius</title><path d="M0,0H900V600H0Z" style="fill:#dc171d"/><path d="M450,168.79,215.69,300,450,431.21,684.31,300Z" style="fill:#fff"/><path d="M281.48,336.85V376h70l290.73-52.4V376H548.5Z" style="fill:#dc171f"/><path d="M188,288H20V20H438V148Z" style="fill:#012a87"/><path d="M712,288H880V20H462V148Z" style="fill:#012a87"/><path d="M188,312H20V580H438V452Z" style="fill:#012a87"/><path d="M712,312H880V580H462V452Z" style="fill:#012a87"/><path d="M450,199.5l8.07,24.83h26.1l-21.12,15.34,8.07,24.83L450,249.16,428.88,264.5l8.07-24.83-21.12-15.34h26.1Z" style="fill:#f9d90f"/><path d="M281.48,336.85c2.71-8.85,8.61-12.77,16.59-11,4.94-18.73,27.74-22.07,36.79-12.86l22.27,22.37c4.84,2.25,12.21,3.09,17.33,3.09,6.33.1,5.62,3,10.91,3.11,14.1.27,51.14.46,57.86,0,2.75-.19,64.13-67.86,64.13-67.86,5.12-6.31,18.45-8.33,25.71-3.21,6.79,6.43,13.93,7.14,18.93,2.86,4.4-6.55,14.39-7.31,20.71-3.57l69.45,53.81L548.5,376H351.44Z" style="fill:#008830"/></svg>