<svg xmlns="http://www.w3.org/2000/svg" viewBox="0 0 800 400"><title>Solomon_Islands</title><path d="M0,400V0H800Z" style="fill:#0051ba"/><path d="M0,400H800V0Z" style="fill:#215b33"/><path d="M0,400,800,0"/><polygon points="154.53 124.72 178.04 107.64 148.98 107.64 140 80 131.02 107.64 101.96 107.64 125.47 124.72 116.49 152.36 140 135.28 163.51 152.36 154.53 124.72" style="fill:#fff"/><polygon points="75.57 57.04 99.08 39.96 70.02 39.96 61.04 12.32 52.05 39.96 22.99 39.96 46.51 57.04 37.52 84.68 61.04 67.6 84.55 84.68 75.57 57.04" style="fill:#fff"/><polygon points="75.57 192.4 99.08 175.32 70.02 175.32 61.04 147.68 52.05 175.32 22.99 175.32 46.51 192.4 37.52 220.04 61.04 202.96 84.55 220.04 75.57 192.4" style="fill:#fff"/><polygon points="233.5 192.4 257.01 175.32 227.94 175.32 218.96 147.68 209.98 175.32 180.92 175.32 204.43 192.4 195.45 220.04 218.96 202.96 242.48 220.04 233.5 192.4" style="fill:#fff"/><polygon points="233.5 57.04 257.01 39.96 227.94 39.96 218.96 12.32 209.98 39.96 180.92 39.96 204.43 57.04 195.45 84.68 218.96 67.6 242.48 84.68 233.5 57.04" style="fill:#fff"/><polygon points="800 400 800 20.13 40.25 400 800 400" style="fill:none"/><polygon points="0 0 0 379.88 759.75 0 0 0" style="fill:none"/><polygon points="759.75 0 0 379.88 0 400 40.25 400 800 20.13 800 0 759.75 0" style="fill:#fcd116"/></svg>