<svg xmlns="http://www.w3.org/2000/svg" viewBox="0 0 900 600"><title>South_Korea</title><rect width="900" height="600" style="fill:#fff"/><path d="M220.77,237.32,200.8,224,284,99.2l20,13.31Zm-31.2-20.8-20-13.31L252.8,78.4l20,13.31Zm-31.2-20.8-20-13.31L221.6,57.6l20,13.31Z"/><circle cx="450" cy="300" r="150" transform="translate(-49.23 508.01) rotate(-56.31)" style="fill:#cd2e3a"/><path d="M325.19,216.79A75,75,0,1,0,450,300a75,75,0,1,1,124.81,83.21A150,150,0,1,1,325.19,216.79Z" style="fill:#0047a0"/><path d="M668.41,64.25m83.21,124.81"/><rect x="621.9" y="474.34" width="68.75" height="24" transform="matrix(0.55, -0.83, 0.83, 0.55, -112.42, 762.63)"/><rect x="590.7" y="453.54" width="68.75" height="24" transform="matrix(0.55, -0.83, 0.83, 0.55, -109.01, 727.4)"/><rect x="635.77" y="385.94" width="68.75" height="24" transform="translate(-32.69 734.8) rotate(-56.31)"/><rect x="666.97" y="406.74" width="68.75" height="24" transform="translate(-36.1 770.02) rotate(-56.31)"/><rect x="653.11" y="495.15" width="68.75" height="24" transform="matrix(0.55, -0.83, 0.83, 0.55, -115.84, 797.85)"/><rect x="698.18" y="427.54" width="68.75" height="24" transform="translate(-39.52 805.25) rotate(-56.31)"/><rect x="719.16" y="477.11" width="12.5" height="13" transform="translate(-79.36 818.93) rotate(-56.31)" style="fill:#fff"/><rect x="656.96" y="435.39" width="12.5" height="13.5" transform="translate(-72.56 748.71) rotate(-56.31)" style="fill:#fff"/><rect x="625.97" y="414.98" width="12.5" height="13" transform="translate(-69.17 713.72) rotate(-56.31)" style="fill:#fff"/><rect x="186.65" y="384.37" width="24" height="68.75" transform="translate(-198.91 180.52) rotate(-33.69)"/><rect x="231.72" y="451.97" width="24" height="68.75" transform="matrix(0.83, -0.55, 0.55, 0.83, -228.84, 216.87)"/><rect x="240.39" y="356.74" width="24" height="150" transform="translate(-197.1 212.51) rotate(-33.69)"/><rect x="177.98" y="398.34" width="24" height="150" transform="translate(-230.66 184.88) rotate(-33.69)"/><rect x="675.48" y="58.48" width="24" height="68.75" transform="translate(63.96 396.94) rotate(-33.69)"/><rect x="666.81" y="72.46" width="24" height="150" transform="translate(32.21 401.3) rotate(-33.69)"/><rect x="613.08" y="100.08" width="24" height="68.75" transform="translate(30.4 369.31) rotate(-33.69)"/><rect x="658.15" y="167.69" width="24" height="68.75" transform="matrix(0.83, -0.55, 0.55, 0.83, 0.47, 405.67)"/><rect x="720.55" y="126.08" width="24" height="68.75" transform="translate(34.03 433.3) rotate(-33.69)"/><rect x="693.85" y="128.93" width="6.75" height="12.5" transform="translate(42.11 409.45) rotate(-33.69)" style="fill:#fff"/><rect x="205.02" y="454.82" width="6.75" height="12.5" transform="translate(-220.76 193.03) rotate(-33.69)" style="fill:#fff"/></svg>