<svg xmlns="http://www.w3.org/2000/svg" viewBox="0 0 750 500"><title>Spain</title><rect width="750" height="500" style="fill:#c60b1e"/><rect y="125" width="750" height="250" style="fill:#ffc400"/><path d="M168,222.24a2,2,0,0,1-.79-.16,12,12,0,0,1-1.13-1l-.68-.49-.62-.85a2.9,2.9,0,0,1-.4-2.09,2.59,2.59,0,0,1,1.42-1.5,13.63,13.63,0,0,1,1.58-.59,9.28,9.28,0,0,1,1.13-.42l1.3-.32a5,5,0,0,1,.56-.27,5.83,5.83,0,0,1,.91-.16,6.78,6.78,0,0,1,1.13-.26c.52,0,1.36.1,1.64.1s1.24.05,1.64.05,1.8-.11,2.2-.11a8.51,8.51,0,0,1,1.13,0,7.08,7.08,0,0,1,1.47.43c.23.11,1.58.59,2.09.75a21.43,21.43,0,0,1,2.32.64,3.27,3.27,0,0,1,1.19,1.1,3.7,3.7,0,0,1,.45,1.05,1.91,1.91,0,0,1,0,1.11,6.41,6.41,0,0,1-.51.81l-.62,1-.79.64s-.57.54-1,.48a66.13,66.13,0,0,0-8-.86,55.12,55.12,0,0,0-7.64.86h0Z" style="fill:#ad1519;stroke:#000;stroke-linejoin:round;stroke-width:0.25999999046325684px"/><ellipse cx="175.66" cy="215.68" rx="1.38" ry="2.5" style="fill:#c8b100;stroke:#000;stroke-width:0.25999999046325684px"/><ellipse cx="175.68" cy="215.68" rx="0.64" ry="2.3" style="fill:#c8b100;stroke:#000;stroke-width:0.25999999046325684px"/><ellipse cx="175.68" cy="213.04" rx="0.93" ry="0.87" style="fill:#c8b100"/><path d="M177,212.74v.58h-2.53v-.58h.94v-1.32h-.62v-.57h.62v-.57h.6v.57h.62v.57H176v1.32h1" style="fill:#c8b100;stroke:#000;stroke-width:0.30000001192092896px"/><path d="M175.94,212.2a.86.86,0,0,1,.65,1.07.94.94,0,0,1-1.15.6.86.86,0,0,1-.65-1.07.9.9,0,0,1,.65-.6" style="fill:none;stroke:#000;stroke-width:0.25999999046325684px"/><path d="M175.68,222.08h-4.81l-.11-1.18-.23-1.23-.23-1.53c-1.33-1.75-2.55-2.9-3-2.65a1.14,1.14,0,0,1,.47-.71c1.18-.7,3.61,1,5.44,3.74.16.25.32.5.46.75h4c.14-.25.3-.5.46-.75,1.82-2.76,4.26-4.44,5.43-3.74a1.1,1.1,0,0,1,.47.71c-.41-.24-1.62.9-3,2.65l-.23,1.53-.23,1.23-.1,1.18h-4.84Z" style="fill:#c8b100;stroke:#000;stroke-width:0.25999999046325684px"/><path d="M167.55,215.44c.91-.53,3,1.14,4.73,3.74m11.55-3.74c-.91-.53-3,1.14-4.73,3.74" style="fill:none;stroke:#000;stroke-width:0.25999999046325684px"/><path d="M168.58,224.25a4.67,4.67,0,0,0-.58-1.08,31.84,31.84,0,0,1,15.36,0l-.52.91a6.88,6.88,0,0,0-.38.81,23.94,23.94,0,0,0-6.8-.82,23.46,23.46,0,0,0-6.86.86,5.37,5.37,0,0,0-.23-.68h0" style="fill:#c8b100;stroke:#000;stroke-width:0.25999999046325684px"/><path d="M175.67,226.73a31.54,31.54,0,0,0,6.1-.63c.66-.2,1.05-.49,1-.84a.6.6,0,0,0-.37-.38,28.58,28.58,0,0,0-13.43,0,.6.6,0,0,0-.37.38c-.07.35.32.64,1,.84A31.66,31.66,0,0,0,175.67,226.73Z" style="fill:#c8b100;stroke:#000;stroke-width:0.25999999046325684px"/><path d="M183.48,222.08l-.59-.53a2.15,2.15,0,0,1-1.28.24c-.7-.11-.93-1-.93-1a2.56,2.56,0,0,1-1.44.62,1.69,1.69,0,0,1-1.07-.62,2.45,2.45,0,0,1-1.33.46,2.26,2.26,0,0,1-1.21-.83s-.63.8-1.25.86a1.57,1.57,0,0,1-1.13-.54,1.45,1.45,0,0,1-1.07.72,1.88,1.88,0,0,1-1.47-.62,2.49,2.49,0,0,1-1,.92,1.76,1.76,0,0,1-1.24-.27s-.12.27-.2.43a.44.44,0,0,1-.31.19l.18.47a31.77,31.77,0,0,1,15.14,0l.2-.54h0Z" style="fill:#c8b100;stroke:#000;stroke-width:0.25999999046325684px"/><path d="M175.69,219.49l.28.05a1,1,0,0,0-.06.38A1.09,1.09,0,0,0,177,221a1.13,1.13,0,0,0,1.06-.73s.11-.38.15-.38,0,.41.05.41a1.12,1.12,0,0,0,2.21-.17.49.49,0,0,0,0-.12l.35-.35.19.44a1,1,0,0,0-.1.46,1,1,0,0,0,1.06,1,1.07,1.07,0,0,0,.88-.45l.23-.29v.36c0,.34.14.66.49.71a1.46,1.46,0,0,0,.91-.38,5.66,5.66,0,0,0,.8-.75l0,.42a3.91,3.91,0,0,1-1,1.1,1.51,1.51,0,0,1-.95.25.92.92,0,0,1-.67-.61,1.59,1.59,0,0,1-2.22-.64,1.56,1.56,0,0,1-1.16.5,1.64,1.64,0,0,1-1.26-.58,1.57,1.57,0,0,1-1.09.43,1.62,1.62,0,0,1-1.33-.69,1.64,1.64,0,0,1-1.34.69,1.57,1.57,0,0,1-1.09-.43,1.63,1.63,0,0,1-1.25.58,1.57,1.57,0,0,1-1.17-.5,1.54,1.54,0,0,1-1.42.86,1.51,1.51,0,0,1-.79-.22.91.91,0,0,1-.68.61,1.5,1.5,0,0,1-.94-.25,4.21,4.21,0,0,1-1-1.1l.07-.42a6.2,6.2,0,0,0,.81.75,1.45,1.45,0,0,0,.91.38.64.64,0,0,0,.49-.71v-.36l.22.29a1.07,1.07,0,0,0,.88.45,1,1,0,0,0,1.06-1,.89.89,0,0,0-.1-.46l.19-.44.35.35a.49.49,0,0,0,0,.12,1.12,1.12,0,0,0,2.22.17,2.84,2.84,0,0,1,0-.41c.05,0,.14.39.16.38a1.11,1.11,0,0,0,1.06.73,1.08,1.08,0,0,0,1.11-1.05,1,1,0,0,0-.05-.38l.29-.05h0Z" style="fill:#c8b100;stroke:#000;stroke-width:0.25999999046325684px"/><path d="M175.67,222.23a28.93,28.93,0,0,0-7.67.94.3.3,0,0,1-.33-.17.27.27,0,0,1,.18-.32,31.73,31.73,0,0,1,15.65,0,.27.27,0,0,1,.18.32.3.3,0,0,1-.33.17A29,29,0,0,0,175.67,222.23Z" style="fill:#c8b100;stroke:#000;stroke-linejoin:round;stroke-width:0.25999999046325684px"/><path d="M165.43,221s-.38-.48-.65-.73a2.4,2.4,0,0,0-.68-.33c0-.08.28-.28.58-.28a.56.56,0,0,1,.45.2l0-.2a.53.53,0,0,1,.35.32,1.6,1.6,0,0,1,.05.72.86.86,0,0,1-.14.3Z" style="fill:#c8b100;stroke:#000;stroke-width:0.25999999046325684px"/><path d="M167.32,220.22l-.11.66-1.4.15-.21-.12,0-.23,1.06-.87.62.41" style="fill:#c8b100;stroke:#000;stroke-width:0.25999999046325684px"/><path d="M165.45,220.75a.41.41,0,0,1,.53.06c.18.15.24.38.12.5a.39.39,0,0,1-.53-.06C165.39,221.1,165.33,220.87,165.45,220.75Z" style="fill:#c8b100;stroke:#000;stroke-width:0.25999999046325684px"/><path d="M168,220.88a.33.33,0,0,1,.13-.42.37.37,0,0,1,.37.27c.06.19,0,.38-.14.42S168.09,221.07,168,220.88Z" style="fill:#c8b100;stroke:#000;stroke-width:0.25999999046325684px"/><path d="M168.67,220l.51.48,1.22-.66.09-.21-.17-.17-1.4-.12-.25.68" style="fill:#c8b100;stroke:#000;stroke-width:0.25999999046325684px"/><path d="M170.08,217.76l-.67.64.86,1.14.23.09.17-.18.3-1.37-.89-.32" style="fill:#c8b100;stroke:#000;stroke-width:0.25999999046325684px"/><path d="M172.36,219.3l-.26.63-1.4-.13-.18-.16.1-.22,1.22-.64.52.52" style="fill:#c8b100;stroke:#000;stroke-width:0.25999999046325684px"/><ellipse cx="170.51" cy="219.65" rx="0.49" ry="0.47" style="fill:#c8b100;stroke:#000;stroke-width:0.25999999046325684px"/><path d="M172.87,219.95a.32.32,0,0,1,.21-.39c.14,0,.28.13.3.33s-.07.37-.21.38S172.89,220.14,172.87,219.95Z" style="fill:#c8b100;stroke:#000;stroke-width:0.25999999046325684px"/><path d="M173.78,219.24l.4.57,1.34-.42.14-.18-.15-.2-1.33-.39-.4.62" style="fill:#c8b100;stroke:#000;stroke-width:0.25999999046325684px"/><path d="M175.66,217.15l-.86.52.64,1.38.22.14.22-.14.64-1.38-.86-.52" style="fill:#c8b100;stroke:#000;stroke-width:0.25999999046325684px"/><path d="M177.55,219.24l-.39.57-1.34-.42-.14-.18.14-.2,1.34-.39.39.62" style="fill:#c8b100;stroke:#000;stroke-width:0.25999999046325684px"/><ellipse cx="175.67" cy="219.21" rx="0.49" ry="0.47" style="fill:#c8b100;stroke:#000;stroke-width:0.25999999046325684px"/><path d="M178.5,219.95a.33.33,0,0,0-.22-.39c-.14,0-.28.13-.3.33s.07.37.21.38S178.47,220.14,178.5,219.95Z" style="fill:#c8b100;stroke:#000;stroke-width:0.25999999046325684px"/><path d="M179,219.3l.26.63,1.4-.13.18-.16-.1-.22-1.22-.64-.52.52" style="fill:#c8b100;stroke:#000;stroke-width:0.25999999046325684px"/><path d="M181.27,217.76l.67.64-.86,1.14-.23.09-.17-.18-.3-1.37.89-.32" style="fill:#c8b100;stroke:#000;stroke-width:0.25999999046325684px"/><path d="M182.68,220l-.51.48-1.22-.66-.1-.21.19-.17,1.4-.12.24.68" style="fill:#c8b100;stroke:#000;stroke-width:0.25999999046325684px"/><ellipse cx="180.85" cy="219.65" rx="0.49" ry="0.47" style="fill:#c8b100;stroke:#000;stroke-width:0.25999999046325684px"/><path d="M183.34,220.88a.33.33,0,0,0-.13-.42.37.37,0,0,0-.37.27c-.06.19,0,.38.14.42S183.27,221.07,183.34,220.88Z" style="fill:#c8b100;stroke:#000;stroke-width:0.25999999046325684px"/><path d="M185.73,221s.38-.48.66-.73a2.26,2.26,0,0,1,.67-.33c0-.08-.28-.28-.58-.28a.56.56,0,0,0-.45.2l0-.2a.55.55,0,0,0-.36.32,1.63,1.63,0,0,0,0,.72.77.77,0,0,0,.13.3Z" style="fill:#c8b100;stroke:#000;stroke-width:0.25999999046325684px"/><path d="M183.84,220.22l.11.66,1.4.15.21-.12-.05-.23-1.05-.87-.62.41" style="fill:#c8b100;stroke:#000;stroke-width:0.25999999046325684px"/><path d="M185.74,220.75c-.11-.12-.35-.09-.53.06s-.24.38-.12.5a.4.4,0,0,0,.54-.06C185.81,221.1,185.86,220.87,185.74,220.75Z" style="fill:#c8b100;stroke:#000;stroke-width:0.25999999046325684px"/><path d="M168.05,224.3l.31-.5.65.13-.38.56-.58-.19" style="fill:#ad1519;stroke:#000;stroke-width:0.25999999046325684px"/><path d="M170.85,223.81l-.69.11a.34.34,0,0,1-.38-.26.32.32,0,0,1,.27-.35l.7-.1.71-.11a.33.33,0,0,1,.37.25.31.31,0,0,1-.27.35l-.71.11" style="fill:#058e6e;stroke:#000;stroke-width:0.25999999046325684px"/><ellipse cx="173.19" cy="223.3" rx="0.44" ry="0.41" style="fill:#fff;stroke:#000;stroke-width:0.25999999046325684px"/><path d="M175.7,223.48h-1a.32.32,0,0,1-.33-.31.31.31,0,0,1,.32-.31h2a.32.32,0,0,1,.33.31.32.32,0,0,1-.33.31h-1" style="fill:#ad1519;stroke:#000;stroke-width:0.25999999046325684px"/><ellipse cx="178.16" cy="223.3" rx="0.44" ry="0.41" style="fill:#fff;stroke:#000;stroke-width:0.25999999046325684px"/><path d="M180.5,223.81l.69.11a.34.34,0,0,0,.38-.26.31.31,0,0,0-.27-.35l-.7-.1-.71-.11a.32.32,0,0,0-.37.25.3.3,0,0,0,.27.35l.71.11" style="fill:#058e6e;stroke:#000;stroke-width:0.25999999046325684px"/><path d="M183.24,224.33l-.25-.53-.67.06.32.59.6-.12" style="fill:#ad1519;stroke:#000;stroke-width:0.25999999046325684px"/><path d="M175.66,226.16a26.35,26.35,0,0,1-6.3-.65,28.84,28.84,0,0,1,12.63,0A26.62,26.62,0,0,1,175.66,226.16Z" style="fill:#ad1519;stroke:#000;stroke-linejoin:round;stroke-width:0.25999999046325684px"/><path d="M176.8,226.08v-1.16m-.58,1.2v-1.23m-.43,1.25v-1.26" style="fill:none;stroke:#000;stroke-width:0.009999999776482582px"/><path d="M175.44,226.15v-1.27" style="fill:none;stroke:#000;stroke-width:0.019999999552965164px"/><path d="M175.09,226.15v-1.27" style="fill:none;stroke:#000;stroke-width:0.029999999329447746px"/><path d="M174.77,226.15v-1.27" style="fill:none;stroke:#000;stroke-width:0.03999999910593033px"/><path d="M174.44,226.15v-1.27" style="fill:none;stroke:#000;stroke-width:0.03999999910593033px"/><path d="M174.16,226.15v-1.27" style="fill:none;stroke:#000;stroke-width:0.05000000074505806px"/><path d="M173.61,226.08v-1.15m.27,1.17v-1.21" style="fill:none;stroke:#000;stroke-width:0.05999999865889549px"/><path d="M173.1,226V225m.26,1.09v-1.13" style="fill:none;stroke:#000;stroke-width:0.07000000029802322px"/><path d="M172.42,226V225m.23.94v-1m.23,1v-1" style="fill:none;stroke:#000;stroke-width:0.07999999821186066px"/><path d="M172.19,226v-.9" style="fill:none;stroke:#000;stroke-width:0.09000000357627869px"/><path d="M172,225.92v-.85" style="fill:none;stroke:#000;stroke-width:0.10000000149011612px"/><path d="M171.73,225.89v-.78" style="fill:none;stroke:#000;stroke-width:0.10999999940395355px"/><path d="M171.24,225.82v-.62m.26.66v-.7" style="fill:none;stroke:#000;stroke-width:0.11999999731779099px"/><path d="M171,225.77v-.55" style="fill:none;stroke:#000;stroke-width:0.11999999731779099px"/><path d="M170.76,225.73v-.46" style="fill:none;stroke:#000;stroke-width:0.12999999523162842px"/><path d="M170.51,225.67v-.36" style="fill:none;stroke:#000;stroke-width:0.14000000059604645px"/><path d="M170.26,225.64v-.27" style="fill:none;stroke:#000;stroke-width:0.15000000596046448px"/><path d="M170,225.58v-.13" style="fill:none;stroke:#000;stroke-width:0.18000000715255737px"/><path d="M191.28,330.68a8.52,8.52,0,0,1-3.93-.87,8.68,8.68,0,0,0-3.86-.82,8.91,8.91,0,0,0-3.91.83,8.64,8.64,0,0,1-3.92.86,8.48,8.48,0,0,1-3.93-.9,8.78,8.78,0,0,0-3.79-.79,8.49,8.49,0,0,0-3.86.81,8.63,8.63,0,0,1-3.95.88v2.41a8.76,8.76,0,0,0,3.95-.88,8.49,8.49,0,0,1,3.86-.82,8.81,8.81,0,0,1,3.79.8,9.19,9.19,0,0,0,7.85,0,9.46,9.46,0,0,1,7.77,0,8.43,8.43,0,0,0,3.91.87l0-2.41Z" style="fill:#005bbf;stroke:#000;stroke-width:0.38999998569488525px"/><path d="M191.28,333.09a8.52,8.52,0,0,1-3.93-.87,8.68,8.68,0,0,0-3.86-.83,8.76,8.76,0,0,0-3.91.84,9.19,9.19,0,0,1-7.85,0,8.78,8.78,0,0,0-3.79-.8,8.48,8.48,0,0,0-3.86.82,8.76,8.76,0,0,1-3.95.88v2.41a8.76,8.76,0,0,0,3.95-.88,8.49,8.49,0,0,1,3.86-.82,8.81,8.81,0,0,1,3.79.8,8.48,8.48,0,0,0,3.93.9,8.77,8.77,0,0,0,3.92-.86,8.76,8.76,0,0,1,3.91-.84,8.54,8.54,0,0,1,3.86.84,8.56,8.56,0,0,0,3.91.86l0-2.41" style="fill:#ccc;stroke:#000;stroke-width:0.38999998569488525px"/><path d="M191.28,335.5a8.65,8.65,0,0,1-3.93-.86,8.54,8.54,0,0,0-3.86-.84,8.76,8.76,0,0,0-3.91.84,8.77,8.77,0,0,1-3.92.86,8.48,8.48,0,0,1-3.93-.9,8.78,8.78,0,0,0-3.79-.8,8.48,8.48,0,0,0-3.86.82,8.76,8.76,0,0,1-3.95.88v2.4a8.63,8.63,0,0,0,3.95-.88,8.63,8.63,0,0,1,3.86-.8,8.81,8.81,0,0,1,3.79.79,8.48,8.48,0,0,0,3.93.89,8.64,8.64,0,0,0,3.92-.85,9.56,9.56,0,0,1,7.77,0,8.31,8.31,0,0,0,3.91.86l0-2.4" style="fill:#005bbf;stroke:#000;stroke-width:0.38999998569488525px"/><path d="M191.26,340.32a8.43,8.43,0,0,1-3.91-.87,9.56,9.56,0,0,0-7.77,0,8.77,8.77,0,0,1-3.92.86,8.61,8.61,0,0,1-3.93-.9,8.64,8.64,0,0,0-3.79-.79,8.49,8.49,0,0,0-3.86.81,8.76,8.76,0,0,1-3.95.88v-2.4a8.63,8.63,0,0,0,3.95-.9,8.63,8.63,0,0,1,3.86-.8,8.81,8.81,0,0,1,3.79.79,8.48,8.48,0,0,0,3.93.89,8.64,8.64,0,0,0,3.92-.85,9.56,9.56,0,0,1,7.77,0,8.4,8.4,0,0,0,3.93.86l0,2.42" style="fill:#ccc;stroke:#000;stroke-width:0.38999998569488525px"/><path d="M191.26,342.73a8.56,8.56,0,0,1-3.91-.86,8.54,8.54,0,0,0-3.86-.84,8.76,8.76,0,0,0-3.91.84,8.77,8.77,0,0,1-3.92.86,8.61,8.61,0,0,1-3.93-.9,8.63,8.63,0,0,0-3.79-.8,8.48,8.48,0,0,0-3.86.82,8.76,8.76,0,0,1-3.95.88v-2.39a8.76,8.76,0,0,0,3.95-.9,8.49,8.49,0,0,1,3.86-.81,8.81,8.81,0,0,1,3.79.79,8.61,8.61,0,0,0,3.93.9,8.77,8.77,0,0,0,3.92-.86,9.56,9.56,0,0,1,7.77,0,8.49,8.49,0,0,0,3.93.87l0,2.41Z" style="fill:#005bbf;stroke:#000;stroke-width:0.38999998569488525px"/><path d="M166.92,320.78a2.63,2.63,0,0,1,.13.62,2.73,2.73,0,0,1-2.81,2.63h22.94a2.72,2.72,0,0,1-2.81-2.63,2.65,2.65,0,0,1,.09-.62,1.27,1.27,0,0,1-.44.06H167.33A1.4,1.4,0,0,1,166.92,320.78Z" style="fill:#c8b100;stroke:#000;stroke-linejoin:round;stroke-width:0.38999998569488525px"/><path d="M167.33,319.27H184a.81.81,0,1,1,0,1.57H167.33a.81.81,0,1,1,0-1.57Z" style="fill:#c8b100;stroke:#000;stroke-width:0.38999998569488525px"/><path d="M164.27,329.86h22.87V324H164.27Z" style="fill:#c8b100;stroke:#000;stroke-width:0.38999998569488525px"/><path d="M167.55,318.32H183.8V238.69H167.55Z" style="fill:#ccc;stroke:#000;stroke-width:0.38999998569488525px"/><path d="M179.13,238.8v79.46M181,238.8v79.46" style="fill:none;stroke:#000;stroke-width:0.38999998569488525px"/><path d="M164.58,232.37h22.29v-5.84H164.58v5.84Z" style="fill:#c8b100;stroke:#000;stroke-width:0.38999998569488525px"/><path d="M166.92,236.26a.91.91,0,0,1,.41-.07H184a1.34,1.34,0,0,1,.46.08,1.4,1.4,0,0,1-1-1.32,1.45,1.45,0,0,1,1-1.33,1.93,1.93,0,0,1-.49.08h-16.7a1.41,1.41,0,0,1-.47-.06l.09,0a1.31,1.31,0,0,1,.94,1.29,1.4,1.4,0,0,1-1,1.31Z" style="fill:#c8b100;stroke:#000;stroke-linejoin:round;stroke-width:0.38999998569488525px"/><path d="M167.33,236.19H184a.81.81,0,1,1,0,1.57H167.33a.81.81,0,1,1,0-1.57Z" style="fill:#c8b100;stroke:#000;stroke-width:0.38999998569488525px"/><path d="M167.33,232.37H184c.57,0,1,.3,1,.66s-.46.67-1,.67h-16.7c-.56,0-1-.3-1-.67S166.77,232.37,167.33,232.37Z" style="fill:#c8b100;stroke:#000;stroke-width:0.38999998569488525px"/><path d="M162.48,298.62c-2.26,1.3-3.8,2.64-3.55,3.31s.84,1.07,1.87,1.75c1.62,1.13,2.6,3.14,1.83,4.07a5.73,5.73,0,0,0-.15-9.13Z" style="fill:#ad1519;stroke:#000;stroke-width:0.38999998569488525px"/><path d="M200.4,268.47c-3.54-1.46-9.57-2.55-16.49-2.78a51.48,51.48,0,0,0-7.79.7c-9.72,1.63-17.13,5.51-16.54,8.67l.05.26s-3.64-8.21-3.7-8.52c-.65-3.51,7.56-7.82,18.35-9.62a55,55,0,0,1,9.56-.76c6.9,0,12.9.89,16.52,2.23l0,9.82" style="fill:#ad1519;stroke:#000;stroke-linejoin:round;stroke-width:0.38999998569488525px"/><path d="M167.52,278.47c-4.51-.32-7.58-1.53-7.94-3.41-.28-1.5,1.25-3.17,4-4.68a34.51,34.51,0,0,0,4,.3l0,7.79" style="fill:#ad1519;stroke:#000;stroke-width:0.38999998569488525px"/><path d="M183.83,272.38c2.82.43,4.93,1.13,6,2l.1.17c.5,1-2,3.22-6.11,5.67l0-7.83" style="fill:#ad1519;stroke:#000;stroke-width:0.38999998569488525px"/><path d="M157.42,293.83c-.43-1.28,4-3.86,10.18-6.14,2.84-1,5.18-2.07,8.09-3.35,8.63-3.82,15-8.2,14.22-9.79l-.09-.17c.46.38,1.18,8.24,1.18,8.24.78,1.46-5.05,5.78-13,9.58-2.54,1.22-7.91,3.2-10.44,4.09-4.54,1.57-9,4.54-8.63,5.64l-1.51-8.09h0Z" style="fill:#ad1519;stroke:#000;stroke-linejoin:round;stroke-width:0.38999998569488525px"/><path d="M324.85,220.42a3.54,3.54,0,0,1-1.28.89c-.53.1-1.21-.49-1.21-.49a2.43,2.43,0,0,1-1.08.64c-.59.14-1.41-.66-1.41-.66a3.35,3.35,0,0,1-1.07,1,1.5,1.5,0,0,1-1.13-.24,1.81,1.81,0,0,1-.65.61.69.69,0,0,1-.48-.05l-.6-.38-.68-.72-.62-.24s-.28-.91-.31-1.07-.08-.57-.08-.57c-.13-.65.87-1.4,2.3-1.72a4.09,4.09,0,0,1,2.06,0,5.38,5.38,0,0,1,3.2-.82,5.71,5.71,0,0,1,3,.7,5.64,5.64,0,0,1,3-.7,5.34,5.34,0,0,1,3.19.82,4.13,4.13,0,0,1,2.07,0c1.42.32,2.43,1.07,2.3,1.72,0,0-.06.41-.08.57s-.32,1.07-.32,1.07l-.62.24-.68.72-.58.38a.69.69,0,0,1-.48.05,1.7,1.7,0,0,1-.66-.61,1.5,1.5,0,0,1-1.13.24,3.24,3.24,0,0,1-1.07-1s-.82.8-1.42.66a2.43,2.43,0,0,1-1.07-.64s-.68.59-1.21.49a3.48,3.48,0,0,1-1.27-.89Z" style="fill:#ad1519;stroke:#000;stroke-width:0.27000001072883606px"/><ellipse cx="324.82" cy="216.2" rx="1.38" ry="1.96" style="fill:#c8b100;stroke:#000;stroke-width:0.25999999046325684px"/><ellipse cx="324.85" cy="216.2" rx="0.63" ry="1.81" style="fill:#c8b100;stroke:#000;stroke-width:0.25999999046325684px"/><ellipse cx="324.84" cy="213.95" rx="0.93" ry="0.88" style="fill:#c8b100"/><path d="M326.13,213.64v.58H323.6v-.58h.94v-1.3h-.62v-.58h.62v-.58h.61v.58h.61v.58h-.61v1.3h1" style="fill:#c8b100;stroke:#000;stroke-width:0.30000001192092896px"/><path d="M325.11,213.12a.87.87,0,0,1,.62,1.1.94.94,0,0,1-1.16.58.87.87,0,0,1-.62-1.1.91.91,0,0,1,.65-.59" style="fill:none;stroke:#000;stroke-width:0.25999999046325684px"/><path d="M314.41,220a3,3,0,0,1-.22-1.08A2.85,2.85,0,0,1,317,216a2.68,2.68,0,0,1,1.37.37" style="fill:none;stroke:#000;stroke-linecap:round;stroke-width:0.25999999046325684px"/><path d="M319.48,217.93a1.73,1.73,0,0,1-.29-.84,2.42,2.42,0,0,1,2.64-2.08,3.15,3.15,0,0,1,1.65.45" style="fill:none;stroke:#000;stroke-width:0.25999999046325684px"/><path d="M330.17,218a1.79,1.79,0,0,0,.25-.87,2.41,2.41,0,0,0-2.64-2.08,3.11,3.11,0,0,0-1.64.45" style="fill:none;stroke:#000;stroke-width:0.25999999046325684px"/><path d="M335.21,220a3,3,0,0,0,.21-1.08A2.85,2.85,0,0,0,332.6,216a2.71,2.71,0,0,0-1.38.37" style="fill:none;stroke:#000;stroke-linecap:round;stroke-width:0.25999999046325684px"/><ellipse cx="313.57" cy="218.68" rx="0.45" ry="0.43" style="fill:none;stroke:#000;stroke-width:0.20999999344348907px"/><ellipse cx="313.74" cy="217.1" rx="0.45" ry="0.43" style="fill:none;stroke:#000;stroke-width:0.20999999344348907px"/><ellipse cx="314.76" cy="215.9" rx="0.45" ry="0.43" style="fill:none;stroke:#000;stroke-width:0.20999999344348907px"/><ellipse cx="316.11" cy="215.25" rx="0.45" ry="0.43" style="fill:none;stroke:#000;stroke-width:0.20999999344348907px"/><ellipse cx="317.55" cy="215.31" rx="0.45" ry="0.43" style="fill:none;stroke:#000;stroke-width:0.20999999344348907px"/><ellipse cx="318.43" cy="217.08" rx="0.45" ry="0.43" style="fill:#fff;stroke:#000;stroke-width:0.20999999344348907px"/><ellipse cx="318.68" cy="215.58" rx="0.45" ry="0.43" style="fill:none;stroke:#000;stroke-width:0.20999999344348907px"/><ellipse cx="319.81" cy="214.64" rx="0.45" ry="0.43" style="fill:none;stroke:#000;stroke-width:0.20999999344348907px"/><ellipse cx="321.23" cy="214.19" rx="0.45" ry="0.43" style="fill:none;stroke:#000;stroke-width:0.20999999344348907px"/><ellipse cx="322.67" cy="214.24" rx="0.45" ry="0.43" style="fill:none;stroke:#000;stroke-width:0.20999999344348907px"/><ellipse cx="326.94" cy="214.24" rx="0.45" ry="0.43" style="fill:none;stroke:#000;stroke-width:0.20999999344348907px"/><ellipse cx="328.39" cy="214.19" rx="0.45" ry="0.43" style="fill:none;stroke:#000;stroke-width:0.20999999344348907px"/><ellipse cx="329.8" cy="214.64" rx="0.45" ry="0.43" style="fill:none;stroke:#000;stroke-width:0.20999999344348907px"/><ellipse cx="330.93" cy="215.58" rx="0.45" ry="0.43" style="fill:none;stroke:#000;stroke-width:0.20999999344348907px"/><ellipse cx="331.18" cy="217.08" rx="0.45" ry="0.43" style="fill:#fff;stroke:#000;stroke-width:0.20999999344348907px"/><ellipse cx="332.06" cy="215.31" rx="0.45" ry="0.43" style="fill:none;stroke:#000;stroke-width:0.20999999344348907px"/><ellipse cx="333.51" cy="215.25" rx="0.45" ry="0.43" style="fill:none;stroke:#000;stroke-width:0.20999999344348907px"/><ellipse cx="334.86" cy="215.9" rx="0.45" ry="0.43" style="fill:none;stroke:#000;stroke-width:0.20999999344348907px"/><ellipse cx="335.88" cy="217.1" rx="0.45" ry="0.43" style="fill:none;stroke:#000;stroke-width:0.20999999344348907px"/><ellipse cx="336.05" cy="218.68" rx="0.45" ry="0.43" style="fill:none;stroke:#000;stroke-width:0.20999999344348907px"/><path d="M317.75,224.25a4.67,4.67,0,0,0-.58-1.08,31.84,31.84,0,0,1,15.36,0l-.52.91a6.88,6.88,0,0,0-.38.81,23.94,23.94,0,0,0-6.8-.82,23.46,23.46,0,0,0-6.86.86,5.37,5.37,0,0,0-.23-.68h0" style="fill:#c8b100;stroke:#000;stroke-width:0.25999999046325684px"/><path d="M324.84,226.73a31.54,31.54,0,0,0,6.1-.63c.66-.2,1.05-.49,1-.84a.6.6,0,0,0-.37-.38,28.58,28.58,0,0,0-13.43,0,.6.6,0,0,0-.37.38c-.07.35.32.64,1,.84A31.66,31.66,0,0,0,324.84,226.73Z" style="fill:#c8b100;stroke:#000;stroke-width:0.25999999046325684px"/><path d="M332.65,222.08l-.59-.53a2.15,2.15,0,0,1-1.28.24c-.7-.11-.93-1-.93-1a2.56,2.56,0,0,1-1.44.62,1.69,1.69,0,0,1-1.07-.62,2.45,2.45,0,0,1-1.33.46,2.26,2.26,0,0,1-1.21-.83s-.63.8-1.25.86a1.57,1.57,0,0,1-1.13-.54,1.45,1.45,0,0,1-1.07.72,1.88,1.88,0,0,1-1.47-.62,2.49,2.49,0,0,1-1,.92,1.76,1.76,0,0,1-1.24-.27s-.12.27-.2.43a.44.44,0,0,1-.31.19l.18.47a31.77,31.77,0,0,1,15.14,0l.2-.54h0Z" style="fill:#c8b100;stroke:#000;stroke-width:0.25999999046325684px"/><path d="M324.86,219.49l.28.05a1,1,0,0,0-.06.38A1.09,1.09,0,0,0,326.2,221a1.13,1.13,0,0,0,1.06-.73s.11-.38.15-.38,0,.41.05.41a1.12,1.12,0,0,0,2.21-.17.49.49,0,0,0,0-.12l.35-.35.19.44a1,1,0,0,0-.1.46,1,1,0,0,0,1.06,1,1.07,1.07,0,0,0,.88-.45l.23-.29v.36c0,.34.14.66.49.71a1.46,1.46,0,0,0,.91-.38,5.66,5.66,0,0,0,.8-.75l0,.42a3.91,3.91,0,0,1-1,1.1,1.51,1.51,0,0,1-.95.25.92.92,0,0,1-.67-.61,2.66,2.66,0,0,0-3.38-.14,1.64,1.64,0,0,1-1.26-.58,1.57,1.57,0,0,1-1.09.43,1.62,1.62,0,0,1-1.33-.69,1.64,1.64,0,0,1-1.34.69,1.57,1.57,0,0,1-1.09-.43,1.63,1.63,0,0,1-1.25.58,1.57,1.57,0,0,1-1.17-.5,1.54,1.54,0,0,1-1.42.86,1.51,1.51,0,0,1-.79-.22.91.91,0,0,1-.68.61,1.5,1.5,0,0,1-.94-.25,4.21,4.21,0,0,1-1-1.1l.07-.42a6.2,6.2,0,0,0,.81.75,1.45,1.45,0,0,0,.91.38.64.64,0,0,0,.49-.71v-.36l.22.29a1.07,1.07,0,0,0,.88.45,1,1,0,0,0,1.06-1,.89.89,0,0,0-.1-.46l.19-.44.35.35a.49.49,0,0,0,0,.12,1.12,1.12,0,0,0,2.22.17,2.84,2.84,0,0,1,0-.41c.05,0,.14.39.16.38a1.11,1.11,0,0,0,1.06.73,1.08,1.08,0,0,0,1.11-1.05,1,1,0,0,0-.05-.38l.29-.05h0Z" style="fill:#c8b100;stroke:#000;stroke-width:0.25999999046325684px"/><path d="M324.84,222.23a28.93,28.93,0,0,0-7.67.94.3.3,0,0,1-.33-.17.27.27,0,0,1,.18-.32,31.73,31.73,0,0,1,15.65,0,.27.27,0,0,1,.18.32.3.3,0,0,1-.33.17A29,29,0,0,0,324.84,222.23Z" style="fill:#c8b100;stroke:#000;stroke-linejoin:round;stroke-width:0.25999999046325684px"/><path d="M314.6,221s-.38-.48-.65-.73a2.4,2.4,0,0,0-.68-.33c0-.08.28-.28.58-.28a.56.56,0,0,1,.45.2l0-.2a.53.53,0,0,1,.35.32,1.6,1.6,0,0,1,.05.72.86.86,0,0,1-.14.3Z" style="fill:#c8b100;stroke:#000;stroke-width:0.25999999046325684px"/><path d="M316.49,220.22l-.11.66L315,221l-.21-.12,0-.23,1.06-.87.62.41" style="fill:#c8b100;stroke:#000;stroke-width:0.25999999046325684px"/><path d="M314.62,220.75a.41.41,0,0,1,.53.06c.18.15.24.38.12.5a.39.39,0,0,1-.53-.06C314.56,221.1,314.5,220.87,314.62,220.75Z" style="fill:#c8b100;stroke:#000;stroke-width:0.25999999046325684px"/><path d="M317.19,220.88a.33.33,0,0,1,.13-.42.37.37,0,0,1,.37.27c.06.19,0,.38-.14.42S317.26,221.07,317.19,220.88Z" style="fill:#c8b100;stroke:#000;stroke-width:0.25999999046325684px"/><path d="M317.84,220l.51.48,1.22-.66.09-.21-.17-.17-1.4-.12-.25.68" style="fill:#c8b100;stroke:#000;stroke-width:0.25999999046325684px"/><path d="M319.25,217.76l-.67.64.86,1.14.23.09.17-.18.3-1.37-.89-.32" style="fill:#c8b100;stroke:#000;stroke-width:0.25999999046325684px"/><path d="M321.53,219.3l-.26.63-1.4-.13-.18-.16.1-.22,1.22-.64.52.52" style="fill:#c8b100;stroke:#000;stroke-width:0.25999999046325684px"/><ellipse cx="319.68" cy="219.65" rx="0.49" ry="0.47" style="fill:#c8b100;stroke:#000;stroke-width:0.25999999046325684px"/><path d="M322,219.95a.32.32,0,0,1,.21-.39c.14,0,.28.13.3.33s-.07.37-.21.38S322.06,220.14,322,219.95Z" style="fill:#c8b100;stroke:#000;stroke-width:0.25999999046325684px"/><path d="M322.95,219.24l.4.57,1.34-.42.14-.18-.15-.2-1.33-.39-.4.62" style="fill:#c8b100;stroke:#000;stroke-width:0.25999999046325684px"/><path d="M324.83,217.15l-.86.52.64,1.38.22.14.22-.14.64-1.38-.86-.52" style="fill:#c8b100;stroke:#000;stroke-width:0.25999999046325684px"/><path d="M326.72,219.24l-.39.57-1.34-.42-.14-.18.14-.2,1.34-.39.39.62" style="fill:#c8b100;stroke:#000;stroke-width:0.25999999046325684px"/><ellipse cx="324.84" cy="219.21" rx="0.49" ry="0.47" style="fill:#c8b100;stroke:#000;stroke-width:0.25999999046325684px"/><path d="M327.67,219.95a.33.33,0,0,0-.22-.39c-.14,0-.28.13-.3.33s.07.37.21.38S327.64,220.14,327.67,219.95Z" style="fill:#c8b100;stroke:#000;stroke-width:0.25999999046325684px"/><path d="M328.16,219.3l.26.63,1.4-.13.18-.16-.1-.22-1.22-.64-.52.52" style="fill:#c8b100;stroke:#000;stroke-width:0.25999999046325684px"/><path d="M330.44,217.76l.67.64-.86,1.14-.23.09-.17-.18-.3-1.37.89-.32" style="fill:#c8b100;stroke:#000;stroke-width:0.25999999046325684px"/><path d="M331.85,220l-.51.48-1.22-.66-.1-.21.19-.17,1.4-.12.24.68" style="fill:#c8b100;stroke:#000;stroke-width:0.25999999046325684px"/><ellipse cx="330.02" cy="219.65" rx="0.49" ry="0.47" style="fill:#c8b100;stroke:#000;stroke-width:0.25999999046325684px"/><path d="M332.51,220.88a.33.33,0,0,0-.13-.42.37.37,0,0,0-.37.27c-.06.19,0,.38.14.42S332.44,221.07,332.51,220.88Z" style="fill:#c8b100;stroke:#000;stroke-width:0.25999999046325684px"/><path d="M334.9,221s.38-.48.66-.73a2.26,2.26,0,0,1,.67-.33c0-.08-.28-.28-.58-.28a.56.56,0,0,0-.45.2l0-.2a.55.55,0,0,0-.36.32,1.63,1.63,0,0,0,0,.72.77.77,0,0,0,.13.3Z" style="fill:#c8b100;stroke:#000;stroke-width:0.25999999046325684px"/><path d="M333,220.22l.11.66,1.4.15.21-.12-.05-.23-1.05-.87-.62.41" style="fill:#c8b100;stroke:#000;stroke-width:0.25999999046325684px"/><path d="M334.91,220.75c-.11-.12-.35-.09-.53.06s-.24.38-.12.5a.4.4,0,0,0,.54-.06C335,221.1,335,220.87,334.91,220.75Z" style="fill:#c8b100;stroke:#000;stroke-width:0.25999999046325684px"/><path d="M317.22,224.3l.31-.5.65.13-.38.56-.58-.19" style="fill:#ad1519;stroke:#000;stroke-width:0.25999999046325684px"/><path d="M320,223.81l-.69.11a.34.34,0,0,1-.38-.26.32.32,0,0,1,.27-.35l.7-.1.71-.11a.33.33,0,0,1,.37.25.31.31,0,0,1-.27.35l-.71.11" style="fill:#058e6e;stroke:#000;stroke-width:0.25999999046325684px"/><ellipse cx="322.36" cy="223.3" rx="0.44" ry="0.41" style="fill:#fff;stroke:#000;stroke-width:0.25999999046325684px"/><path d="M324.87,223.48h-1a.32.32,0,0,1-.33-.31.31.31,0,0,1,.32-.31h2a.32.32,0,0,1,.33.31.32.32,0,0,1-.33.31h-1" style="fill:#ad1519;stroke:#000;stroke-width:0.25999999046325684px"/><ellipse cx="327.33" cy="223.3" rx="0.44" ry="0.41" style="fill:#fff;stroke:#000;stroke-width:0.25999999046325684px"/><path d="M329.67,223.81l.69.11a.34.34,0,0,0,.38-.26.31.31,0,0,0-.27-.35l-.7-.1-.71-.11a.32.32,0,0,0-.37.25.3.3,0,0,0,.27.35l.71.11" style="fill:#058e6e;stroke:#000;stroke-width:0.25999999046325684px"/><path d="M332.41,224.33l-.25-.53-.67.06.32.59.6-.12" style="fill:#ad1519;stroke:#000;stroke-width:0.25999999046325684px"/><path d="M324.83,226.16a26.35,26.35,0,0,1-6.3-.65,28.84,28.84,0,0,1,12.63,0A26.62,26.62,0,0,1,324.83,226.16Z" style="fill:#ad1519;stroke:#000;stroke-linejoin:round;stroke-width:0.25999999046325684px"/><path d="M326,226.08v-1.16m-.58,1.2v-1.23m-.43,1.25v-1.26" style="fill:none;stroke:#000;stroke-width:0.009999999776482582px"/><path d="M324.61,226.15v-1.27" style="fill:none;stroke:#000;stroke-width:0.019999999552965164px"/><path d="M324.26,226.15v-1.27" style="fill:none;stroke:#000;stroke-width:0.029999999329447746px"/><path d="M323.94,226.15v-1.27" style="fill:none;stroke:#000;stroke-width:0.03999999910593033px"/><path d="M323.61,226.15v-1.27" style="fill:none;stroke:#000;stroke-width:0.03999999910593033px"/><path d="M323.33,226.15v-1.27" style="fill:none;stroke:#000;stroke-width:0.05000000074505806px"/><path d="M322.78,226.08v-1.15m.27,1.17v-1.21" style="fill:none;stroke:#000;stroke-width:0.05999999865889549px"/><path d="M322.27,226V225m.26,1.09v-1.13" style="fill:none;stroke:#000;stroke-width:0.07000000029802322px"/><path d="M321.59,226V225m.23.94v-1m.23,1v-1" style="fill:none;stroke:#000;stroke-width:0.07999999821186066px"/><path d="M321.36,226v-.9" style="fill:none;stroke:#000;stroke-width:0.09000000357627869px"/><path d="M321.14,225.92v-.85" style="fill:none;stroke:#000;stroke-width:0.10000000149011612px"/><path d="M320.9,225.89v-.78" style="fill:none;stroke:#000;stroke-width:0.10999999940395355px"/><path d="M320.41,225.82v-.62m.26.66v-.7" style="fill:none;stroke:#000;stroke-width:0.11999999731779099px"/><path d="M320.16,225.77v-.55" style="fill:none;stroke:#000;stroke-width:0.11999999731779099px"/><path d="M319.93,225.73v-.46" style="fill:none;stroke:#000;stroke-width:0.12999999523162842px"/><path d="M319.68,225.67v-.36" style="fill:none;stroke:#000;stroke-width:0.14000000059604645px"/><path d="M319.43,225.64v-.27" style="fill:none;stroke:#000;stroke-width:0.15000000596046448px"/><path d="M319.16,225.58v-.13" style="fill:none;stroke:#000;stroke-width:0.18000000715255737px"/><path d="M340.45,330.68a8.52,8.52,0,0,1-3.93-.87,8.68,8.68,0,0,0-3.86-.82,8.91,8.91,0,0,0-3.91.83,8.64,8.64,0,0,1-3.92.86,8.48,8.48,0,0,1-3.93-.9,8.78,8.78,0,0,0-3.79-.79,8.49,8.49,0,0,0-3.86.81,8.63,8.63,0,0,1-3.95.88v2.41a8.76,8.76,0,0,0,3.95-.88,8.49,8.49,0,0,1,3.86-.82,8.81,8.81,0,0,1,3.79.8,9.19,9.19,0,0,0,7.85,0,9.46,9.46,0,0,1,7.77,0,8.43,8.43,0,0,0,3.91.87l0-2.41Z" style="fill:#005bbf;stroke:#000;stroke-width:0.38999998569488525px"/><path d="M340.45,333.09a8.52,8.52,0,0,1-3.93-.87,8.68,8.68,0,0,0-3.86-.83,8.76,8.76,0,0,0-3.91.84,9.19,9.19,0,0,1-7.85,0,8.78,8.78,0,0,0-3.79-.8,8.48,8.48,0,0,0-3.86.82,8.76,8.76,0,0,1-3.95.88v2.41a8.76,8.76,0,0,0,3.95-.88,8.49,8.49,0,0,1,3.86-.82,8.81,8.81,0,0,1,3.79.8,8.48,8.48,0,0,0,3.93.9,8.77,8.77,0,0,0,3.92-.86,8.76,8.76,0,0,1,3.91-.84,8.54,8.54,0,0,1,3.86.84,8.56,8.56,0,0,0,3.91.86l0-2.41" style="fill:#ccc;stroke:#000;stroke-width:0.38999998569488525px"/><path d="M340.45,335.5a8.65,8.65,0,0,1-3.93-.86,8.54,8.54,0,0,0-3.86-.84,8.76,8.76,0,0,0-3.91.84,8.77,8.77,0,0,1-3.92.86,8.48,8.48,0,0,1-3.93-.9,8.78,8.78,0,0,0-3.79-.8,8.48,8.48,0,0,0-3.86.82,8.76,8.76,0,0,1-3.95.88v2.4a8.63,8.63,0,0,0,3.95-.88,8.63,8.63,0,0,1,3.86-.8,8.81,8.81,0,0,1,3.79.79,8.48,8.48,0,0,0,3.93.89,8.64,8.64,0,0,0,3.92-.85,9.56,9.56,0,0,1,7.77,0,8.31,8.31,0,0,0,3.91.86l0-2.4" style="fill:#005bbf;stroke:#000;stroke-width:0.38999998569488525px"/><path d="M340.43,340.32a8.43,8.43,0,0,1-3.91-.87,9.56,9.56,0,0,0-7.77,0,8.77,8.77,0,0,1-3.92.86,8.61,8.61,0,0,1-3.93-.9,8.64,8.64,0,0,0-3.79-.79,8.49,8.49,0,0,0-3.86.81,8.76,8.76,0,0,1-3.95.88v-2.4a8.63,8.63,0,0,0,3.95-.9,8.63,8.63,0,0,1,3.86-.8,8.81,8.81,0,0,1,3.79.79,8.48,8.48,0,0,0,3.93.89,8.64,8.64,0,0,0,3.92-.85,9.56,9.56,0,0,1,7.77,0,8.4,8.4,0,0,0,3.93.86l0,2.42" style="fill:#ccc;stroke:#000;stroke-width:0.38999998569488525px"/><path d="M340.43,342.73a8.56,8.56,0,0,1-3.91-.86,8.54,8.54,0,0,0-3.86-.84,8.76,8.76,0,0,0-3.91.84,8.77,8.77,0,0,1-3.92.86,8.61,8.61,0,0,1-3.93-.9,8.63,8.63,0,0,0-3.79-.8,8.48,8.48,0,0,0-3.86.82,8.76,8.76,0,0,1-3.95.88v-2.39a8.76,8.76,0,0,0,3.95-.9,8.49,8.49,0,0,1,3.86-.81,8.81,8.81,0,0,1,3.79.79,8.61,8.61,0,0,0,3.93.9,8.77,8.77,0,0,0,3.92-.86,9.56,9.56,0,0,1,7.77,0,8.49,8.49,0,0,0,3.93.87l0,2.41Z" style="fill:#005bbf;stroke:#000;stroke-width:0.38999998569488525px"/><path d="M316.09,320.78a2.63,2.63,0,0,1,.13.62,2.73,2.73,0,0,1-2.81,2.63h22.94a2.72,2.72,0,0,1-2.81-2.63,2.65,2.65,0,0,1,.09-.62,1.27,1.27,0,0,1-.44.06H316.5A1.4,1.4,0,0,1,316.09,320.78Z" style="fill:#c8b100;stroke:#000;stroke-linejoin:round;stroke-width:0.38999998569488525px"/><path d="M316.5,319.27h16.69a.81.81,0,1,1,0,1.57H316.5a.81.81,0,1,1,0-1.57Z" style="fill:#c8b100;stroke:#000;stroke-width:0.38999998569488525px"/><path d="M313.44,329.86h22.87V324H313.44Z" style="fill:#c8b100;stroke:#000;stroke-width:0.38999998569488525px"/><path d="M316.72,318.32H333V238.69H316.72Z" style="fill:#ccc;stroke:#000;stroke-width:0.38999998569488525px"/><path d="M328.3,238.8v79.46m1.83-79.46v79.46" style="fill:none;stroke:#000;stroke-width:0.38999998569488525px"/><path d="M313.75,232.37H336v-5.84H313.75v5.84Z" style="fill:#c8b100;stroke:#000;stroke-width:0.38999998569488525px"/><path d="M316.09,236.26a.91.91,0,0,1,.41-.07h16.69a1.34,1.34,0,0,1,.46.08,1.4,1.4,0,0,1-1-1.32,1.45,1.45,0,0,1,1-1.33,1.93,1.93,0,0,1-.49.08H316.5a1.41,1.41,0,0,1-.47-.06l.09,0a1.31,1.31,0,0,1,.94,1.29,1.4,1.4,0,0,1-1,1.31Z" style="fill:#c8b100;stroke:#000;stroke-linejoin:round;stroke-width:0.38999998569488525px"/><path d="M316.5,236.19h16.69a.81.81,0,1,1,0,1.57H316.5a.81.81,0,1,1,0-1.57Z" style="fill:#c8b100;stroke:#000;stroke-width:0.38999998569488525px"/><path d="M316.5,232.37h16.7c.57,0,1,.3,1,.66s-.46.67-1,.67H316.5c-.56,0-1-.3-1-.67S315.94,232.37,316.5,232.37Z" style="fill:#c8b100;stroke:#000;stroke-width:0.38999998569488525px"/><path d="M338.09,298.62c2.26,1.3,3.8,2.64,3.55,3.31s-.84,1.07-1.87,1.75c-1.62,1.13-2.6,3.14-1.83,4.07a5.73,5.73,0,0,1,.15-9.13Z" style="fill:#ad1519;stroke:#000;stroke-width:0.38999998569488525px"/><path d="M300.17,268.47c3.54-1.46,9.57-2.55,16.49-2.78a51.48,51.48,0,0,1,7.79.7c9.72,1.63,17.13,5.51,16.54,8.67l-.05.26s3.64-8.21,3.7-8.52c.65-3.51-7.56-7.82-18.35-9.62a55,55,0,0,0-9.56-.76c-6.9,0-12.9.89-16.52,2.23l0,9.82" style="fill:#ad1519;stroke:#000;stroke-linejoin:round;stroke-width:0.38999998569488525px"/><path d="M333.05,278.47c4.51-.32,7.58-1.53,7.94-3.41.28-1.5-1.25-3.17-4-4.68a34.51,34.51,0,0,1-4,.3l0,7.79" style="fill:#ad1519;stroke:#000;stroke-width:0.38999998569488525px"/><path d="M316.74,272.38c-2.82.43-4.93,1.13-6,2l-.1.17c-.5,1,2,3.22,6.11,5.67l0-7.83" style="fill:#ad1519;stroke:#000;stroke-width:0.38999998569488525px"/><path d="M343.15,293.83c.43-1.28-4-3.86-10.18-6.14-2.84-1-5.18-2.07-8.09-3.35-8.63-3.82-15-8.2-14.22-9.79l.09-.17c-.46.38-1.18,8.24-1.18,8.24-.78,1.46,5.05,5.78,13,9.58,2.54,1.22,7.91,3.2,10.44,4.09,4.54,1.57,9,4.54,8.63,5.64l1.51-8.09h0Z" style="fill:#ad1519;stroke:#000;stroke-linejoin:round;stroke-width:0.38999998569488525px"/><path d="M166.42,264.65c2-.72,3.29-1.58,2.66-3.14-.41-1-1.43-1.19-3-.63l-2.71,1,2.44,6c.27-.12.54-.24.81-.34s.57-.18.85-.26l-1.08-2.64h0Zm-1.18-2.91.69-.25a1.2,1.2,0,0,1,1.5.8,1.18,1.18,0,0,1-.5,1.55,5,5,0,0,1-.7.33l-1-2.43" style="fill:#c8b100"/><path d="M172.78,259.22c-.29.08-.57.16-.86.22s-.59.09-.88.12l1.41,6.28,4.38-.88a2,2,0,0,1-.14-.38,3,3,0,0,1,0-.41c-.77.22-1.61.46-2.61.66l-1.26-5.61" style="fill:#c8b100"/><path d="M181.56,264.63c.82-2.28,1.82-4.46,2.81-6.67a5,5,0,0,1-.54.07,4.86,4.86,0,0,1-.54,0c-.53,1.61-1.18,3.21-1.87,4.8-.82-1.51-1.73-3-2.43-4.51l-1,.12c-.34,0-.7,0-1,0,1.26,2.06,2.48,4.11,3.64,6.23l.5-.08a4.27,4.27,0,0,1,.5,0" style="fill:#c8b100"/><path d="M190.72,259.8c.15-.31.31-.6.48-.89a3.59,3.59,0,0,0-1.81-.63c-1.79-.18-2.81.61-2.93,1.69-.26,2.26,3.31,2.07,3.14,3.57-.07.64-.75.9-1.48.83a1.54,1.54,0,0,1-1.51-1.19l-.22,0a7.57,7.57,0,0,1-.48,1.15,4.24,4.24,0,0,0,1.85.59c1.83.19,3.22-.54,3.35-1.74.23-2.15-3.37-2.27-3.23-3.54.06-.53.47-.88,1.4-.79a1.39,1.39,0,0,1,1.26,1l.18,0" style="fill:#c8b100"/><path d="M310.3,265c.62-2.33,1.41-4.58,2.19-6.87a3.12,3.12,0,0,1-.53.11,4.7,4.7,0,0,1-.54,0c-.37,1.64-.88,3.29-1.42,4.94-1-1.44-2-2.84-2.83-4.3-.34.07-.68.15-1,.2s-.69.07-1,.11c1.45,1.94,2.85,3.89,4.2,5.91a3.66,3.66,0,0,1,.5-.12c.16,0,.33,0,.49,0" style="fill:#c8b100"/><path d="M316.48,258.16c-.29,0-.59,0-.88,0s-.6,0-.89-.06l-.12,6.41,4.49.08a1.93,1.93,0,0,1-.06-.41,1.87,1.87,0,0,1,.07-.4c-.81,0-1.68.1-2.71.08l.1-5.73" style="fill:#c8b100"/><path d="M323.52,259.21c.72.06,1.41.19,2.1.31a2.75,2.75,0,0,1,0-.41,1.86,1.86,0,0,1,.1-.39l-6.07-.5a2.74,2.74,0,0,1,0,.4,1.8,1.8,0,0,1-.1.4,19.08,19.08,0,0,1,2.21,0l-.53,5.77a8.63,8.63,0,0,1,.88,0c.3,0,.59.07.88.11l.53-5.77" style="fill:#c8b100"/><path d="M326,265.53c.29,0,.59.09.88.15s.57.15.85.23l.72-2.94h.08c.16.41.38.9.49,1.19l.9,2.22c.36.06.71.11,1,.18s.7.18,1,.28l-.31-.67c-.48-1-1-2-1.41-3,1.12,0,2-.36,2.2-1.26a1.39,1.39,0,0,0-.68-1.53,6.06,6.06,0,0,0-1.83-.6l-2.44-.53L326,265.53m3.14-5.42c.71.16,1.59.27,1.59,1.07a2.59,2.59,0,0,1-.06.48c-.23.94-.94,1.26-2.13.91l.6-2.46" style="fill:#c8b100"/><path d="M337.57,267.46a20.49,20.49,0,0,1-.31,2.1c.3.14.61.27.9.44s.57.34.86.52l.6-7.23-.41-.19a2.92,2.92,0,0,1-.37-.24l-6.38,4c.17.08.35.16.51.25s.31.19.47.28c.54-.45,1.1-.82,1.74-1.3l2.39,1.31Zm-1.81-1.66,2.13-1.37-.25,2.4-1.88-1" style="fill:#c8b100"/><path d="M249.65,182.72c6.64,0,12.56,1,16.41,2.51a31.25,31.25,0,0,0,8.4,2.17,33.71,33.71,0,0,0,6.85.24,26.83,26.83,0,0,1,10.62,2.48,28.73,28.73,0,0,1,7.8,4.91l-1.57,1.4-.45,4-4.3,4.92-2.15,1.83-5.09,4.07-2.6.21-.79,2.25-32.91-3.86-33,3.86-.79-2.25-2.61-.21-5.08-4.07-2.15-1.83-4.3-4.92-.44-4L199.9,195a28.89,28.89,0,0,1,7.8-4.91,26.83,26.83,0,0,1,10.62-2.48,33.71,33.71,0,0,0,6.85-.24,31.25,31.25,0,0,0,8.4-2.17,45.49,45.49,0,0,1,16.08-2.51Z" style="fill:#ad1519;stroke:#000;stroke-width:0.25999999046325684px"/><path d="M225.34,191.42l1.38,1.11,2.08-3.4a7.71,7.71,0,0,1-3.8-6.51,6.84,6.84,0,0,1,.06-.91c.21-4.34,5.5-7.92,12.2-7.92a15.75,15.75,0,0,1,8.84,2.48c.06-.67.12-1.25.21-1.86a18.11,18.11,0,0,0-9.05-2.28c-7.71,0-13.74,4.39-14,9.57,0,.31-.05.61-.05.92a9.24,9.24,0,0,0,3.26,7l-1.1,1.81" style="fill:#c8b100;stroke:#000;stroke-width:0.38999998569488525px"/><path d="M225.43,191.46c-2.63-2-4.27-4.64-4.27-7.58,0-3.38,2.22-6.4,5.58-8.41a8.87,8.87,0,0,0-3.51,6.23c0,.31-.05.61-.05.92a9.24,9.24,0,0,0,3.26,7l-1,1.85" style="fill:#c8b100;stroke:#000;stroke-width:0.38999998569488525px"/><path d="M202.21,194.89a9,9,0,0,1-1.47-10.07c2.13-4.38,8.82-7.57,16.76-7.57a27.45,27.45,0,0,1,6.14.67,11,11,0,0,0-1.08,1.48,26.49,26.49,0,0,0-5.06-.48c-7.27,0-13.36,2.83-15.12,6.65a7.33,7.33,0,0,0-.73,3.2,7.58,7.58,0,0,0,2.79,5.82l-2.63,4.3-1.41-1.12,1.81-2.88Z" style="fill:#c8b100;stroke:#000;stroke-width:0.38999998569488525px"/><path d="M204.9,180.48a11.07,11.07,0,0,0-4.16,4.34,9,9,0,0,0,1.47,10.07l-1.6,2.59a10.86,10.86,0,0,1-2.42-6.7c0-4.2,2.67-7.87,6.71-10.3Z" style="fill:#c8b100;stroke:#000;stroke-width:0.38999998569488525px"/><path d="M250,171.27a3.68,3.68,0,0,1,3.64,2.73,31.87,31.87,0,0,1,.41,4.62c0,.18,0,.35,0,.52s0,.41.05.61a27.74,27.74,0,0,0,1.27,8.52L250,193.41l-5.43-5.14a27.65,27.65,0,0,0,1.29-8.52c0-.2,0-.41,0-.61s0-.34,0-.52a31.87,31.87,0,0,1,.41-4.62,3.75,3.75,0,0,1,3.7-2.73Z" style="fill:#c8b100;stroke:#000;stroke-width:0.38999998569488525px"/><path d="M250,172.94a1.88,1.88,0,0,1,1.87,1.39,28.81,28.81,0,0,1,.4,4.38c0,.16,0,.32,0,.48s0,.39,0,.59a25.75,25.75,0,0,0,1.21,8.05L250,191.18l-3.54-3.35a26.35,26.35,0,0,0,1.21-8.05c0-.2,0-.39,0-.59s0-.32,0-.48a28.81,28.81,0,0,1,.4-4.38A1.94,1.94,0,0,1,250,172.94Z" style="fill:#c8b100;stroke:#000;stroke-width:0.38999998569488525px"/><path d="M274.7,191.42l-1.39,1.11-2.08-3.4a7.7,7.7,0,0,0,3.81-6.51,6.84,6.84,0,0,0-.06-.91c-.21-4.34-5.5-7.92-12.2-7.92a15.72,15.72,0,0,0-8.84,2.48c-.06-.67-.12-1.25-.22-1.86a18.15,18.15,0,0,1,9.06-2.28c7.71,0,13.74,4.39,14,9.57,0,.31,0,.61,0,.92a9.25,9.25,0,0,1-3.27,7l1.11,1.81" style="fill:#c8b100;stroke:#000;stroke-width:0.38999998569488525px"/><path d="M274.61,191.46c2.63-2,4.27-4.64,4.27-7.58,0-3.38-2.22-6.4-5.58-8.41a8.87,8.87,0,0,1,3.51,6.23c0,.31,0,.61,0,.92a9.25,9.25,0,0,1-3.27,7l1,1.85" style="fill:#c8b100;stroke:#000;stroke-width:0.38999998569488525px"/><path d="M297.83,194.89a9.19,9.19,0,0,0,2.38-6.12,9.06,9.06,0,0,0-.91-3.95c-2.14-4.38-8.82-7.57-16.76-7.57a27.6,27.6,0,0,0-6.15.67,10.24,10.24,0,0,1,1.09,1.48,26.42,26.42,0,0,1,5.06-.48c7.27,0,13.35,2.83,15.11,6.65a7.33,7.33,0,0,1,.73,3.2,7.58,7.58,0,0,1-2.79,5.82l2.63,4.3,1.42-1.12Z" style="fill:#c8b100;stroke:#000;stroke-width:0.38999998569488525px"/><path d="M295.14,180.48a11.07,11.07,0,0,1,4.16,4.34,9.06,9.06,0,0,1,.91,3.95,9.19,9.19,0,0,1-2.38,6.12l1.6,2.59a10.85,10.85,0,0,0,2.41-6.7c0-4.2-2.67-7.87-6.7-10.3Z" style="fill:#c8b100;stroke:#000;stroke-width:0.38999998569488525px"/><ellipse cx="250.05" cy="167.3" rx="4.43" ry="4.2" style="fill:#005bbf;stroke:#000;stroke-width:0.25999999046325684px"/><path d="M248.89,155.54v2.26h-2.42v2.3h2.42v6.61h-3.05c0,.21-.22.37-.22.59a3.92,3.92,0,0,0,.35,1.64s0,0,0,0h8.12s0,0,0,0a4.09,4.09,0,0,0,.35-1.64c0-.22-.19-.38-.22-.59h-3V160.1h2.42v-2.3h-2.42v-2.26h-2.43Z" style="fill:#c8b100;stroke:#000;stroke-width:0.25999999046325684px"/><ellipse cx="250.04" cy="188.94" rx="1.91" ry="1.8" style="fill:#fff;stroke:#000;stroke-width:0.38999998569488525px"/><ellipse cx="250.04" cy="185.4" rx="1.91" ry="1.8" style="fill:#fff;stroke:#000;stroke-width:0.38999998569488525px"/><ellipse cx="250.04" cy="181.6" rx="1.52" ry="1.44" style="fill:#fff;stroke:#000;stroke-width:0.38999998569488525px"/><ellipse cx="250.04" cy="178.18" rx="1.1" ry="1.04" style="fill:#fff;stroke:#000;stroke-width:0.38999998569488525px"/><ellipse cx="250.04" cy="175.18" rx="0.88" ry="0.83" style="fill:#fff;stroke:#000;stroke-width:0.38999998569488525px"/><ellipse cx="198.94" cy="198.67" rx="1.1" ry="1.04" style="fill:#fff;stroke:#000;stroke-width:0.38999998569488525px"/><ellipse cx="197.44" cy="196.02" rx="1.1" ry="1.04" style="fill:#fff;stroke:#000;stroke-width:0.38999998569488525px"/><ellipse cx="196.44" cy="192.94" rx="1.1" ry="1.04" style="fill:#fff;stroke:#000;stroke-width:0.38999998569488525px"/><ellipse cx="196.31" cy="189.64" rx="1.1" ry="1.04" style="fill:#fff;stroke:#000;stroke-width:0.38999998569488525px"/><ellipse cx="197.12" cy="186.4" rx="1.1" ry="1.04" style="fill:#fff;stroke:#000;stroke-width:0.38999998569488525px"/><ellipse cx="198.81" cy="183.45" rx="1.1" ry="1.04" style="fill:#fff;stroke:#000;stroke-width:0.38999998569488525px"/><ellipse cx="201.06" cy="181.02" rx="1.1" ry="1.04" style="fill:#fff;stroke:#000;stroke-width:0.38999998569488525px"/><ellipse cx="203.68" cy="179.01" rx="1.1" ry="1.04" style="fill:#fff;stroke:#000;stroke-width:0.38999998569488525px"/><ellipse cx="206.8" cy="177.36" rx="1.1" ry="1.04" style="fill:#fff;stroke:#000;stroke-width:0.38999998569488525px"/><ellipse cx="210.04" cy="176.19" rx="1.1" ry="1.04" style="fill:#fff;stroke:#000;stroke-width:0.38999998569488525px"/><ellipse cx="213.66" cy="175.54" rx="1.1" ry="1.04" style="fill:#fff;stroke:#000;stroke-width:0.38999998569488525px"/><ellipse cx="217.1" cy="175.36" rx="1.1" ry="1.04" style="fill:#fff;stroke:#000;stroke-width:0.38999998569488525px"/><ellipse cx="220.47" cy="175.48" rx="1.1" ry="1.04" style="fill:#fff;stroke:#000;stroke-width:0.38999998569488525px"/><ellipse cx="224.21" cy="190.32" rx="1.1" ry="1.04" style="fill:#fff;stroke:#000;stroke-width:0.38999998569488525px"/><ellipse cx="222.34" cy="187.65" rx="1.1" ry="1.04" style="fill:#fff;stroke:#000;stroke-width:0.38999998569488525px"/><ellipse cx="221.35" cy="184.75" rx="1.1" ry="1.04" style="fill:#fff;stroke:#000;stroke-width:0.38999998569488525px"/><ellipse cx="221.47" cy="181.57" rx="1.1" ry="1.04" style="fill:#fff;stroke:#000;stroke-width:0.38999998569488525px"/><ellipse cx="222.16" cy="178.37" rx="1.1" ry="1.04" style="fill:#fff;stroke:#000;stroke-width:0.38999998569488525px"/><ellipse cx="223.84" cy="175.48" rx="1.1" ry="1.04" style="fill:#fff;stroke:#000;stroke-width:0.38999998569488525px"/><ellipse cx="226.4" cy="173.47" rx="1.1" ry="1.04" style="fill:#fff;stroke:#000;stroke-width:0.38999998569488525px"/><ellipse cx="229.39" cy="171.81" rx="1.1" ry="1.04" style="fill:#fff;stroke:#000;stroke-width:0.38999998569488525px"/><ellipse cx="232.7" cy="170.82" rx="1.1" ry="1.04" style="fill:#fff;stroke:#000;stroke-width:0.38999998569488525px"/><ellipse cx="236.13" cy="170.23" rx="1.1" ry="1.04" style="fill:#fff;stroke:#000;stroke-width:0.38999998569488525px"/><ellipse cx="239.5" cy="170.28" rx="1.1" ry="1.04" style="fill:#fff;stroke:#000;stroke-width:0.38999998569488525px"/><ellipse cx="242.99" cy="170.87" rx="1.1" ry="1.04" style="fill:#fff;stroke:#000;stroke-width:0.38999998569488525px"/><ellipse cx="246.23" cy="171.99" rx="1.1" ry="1.04" style="fill:#fff;stroke:#000;stroke-width:0.38999998569488525px"/><ellipse cx="253.8" cy="171.99" rx="1.1" ry="1.04" style="fill:#fff;stroke:#000;stroke-width:0.38999998569488525px"/><ellipse cx="257.04" cy="170.87" rx="1.1" ry="1.04" style="fill:#fff;stroke:#000;stroke-width:0.38999998569488525px"/><ellipse cx="260.54" cy="170.28" rx="1.1" ry="1.04" style="fill:#fff;stroke:#000;stroke-width:0.38999998569488525px"/><ellipse cx="263.9" cy="170.23" rx="1.1" ry="1.04" style="fill:#fff;stroke:#000;stroke-width:0.38999998569488525px"/><ellipse cx="267.34" cy="170.82" rx="1.1" ry="1.04" style="fill:#fff;stroke:#000;stroke-width:0.38999998569488525px"/><ellipse cx="270.64" cy="171.81" rx="1.1" ry="1.04" style="fill:#fff;stroke:#000;stroke-width:0.38999998569488525px"/><ellipse cx="273.64" cy="173.47" rx="1.1" ry="1.04" style="fill:#fff;stroke:#000;stroke-width:0.38999998569488525px"/><ellipse cx="276.19" cy="175.48" rx="1.1" ry="1.04" style="fill:#fff;stroke:#000;stroke-width:0.38999998569488525px"/><ellipse cx="277.88" cy="178.37" rx="1.1" ry="1.04" style="fill:#fff;stroke:#000;stroke-width:0.38999998569488525px"/><ellipse cx="278.57" cy="181.57" rx="1.1" ry="1.04" style="fill:#fff;stroke:#000;stroke-width:0.38999998569488525px"/><ellipse cx="278.69" cy="184.75" rx="1.1" ry="1.04" style="fill:#fff;stroke:#000;stroke-width:0.38999998569488525px"/><ellipse cx="277.69" cy="187.65" rx="1.1" ry="1.04" style="fill:#fff;stroke:#000;stroke-width:0.38999998569488525px"/><ellipse cx="275.83" cy="190.32" rx="1.1" ry="1.04" style="fill:#fff;stroke:#000;stroke-width:0.38999998569488525px"/><ellipse cx="279.57" cy="175.48" rx="1.1" ry="1.04" style="fill:#fff;stroke:#000;stroke-width:0.38999998569488525px"/><ellipse cx="282.94" cy="175.36" rx="1.1" ry="1.04" style="fill:#fff;stroke:#000;stroke-width:0.38999998569488525px"/><ellipse cx="286.38" cy="175.54" rx="1.1" ry="1.04" style="fill:#fff;stroke:#000;stroke-width:0.38999998569488525px"/><ellipse cx="290" cy="176.19" rx="1.1" ry="1.04" style="fill:#fff;stroke:#000;stroke-width:0.38999998569488525px"/><ellipse cx="293.24" cy="177.36" rx="1.1" ry="1.04" style="fill:#fff;stroke:#000;stroke-width:0.38999998569488525px"/><ellipse cx="296.36" cy="179.01" rx="1.1" ry="1.04" style="fill:#fff;stroke:#000;stroke-width:0.38999998569488525px"/><ellipse cx="298.97" cy="181.02" rx="1.1" ry="1.04" style="fill:#fff;stroke:#000;stroke-width:0.38999998569488525px"/><ellipse cx="301.22" cy="183.45" rx="1.1" ry="1.04" style="fill:#fff;stroke:#000;stroke-width:0.38999998569488525px"/><ellipse cx="302.91" cy="186.4" rx="1.1" ry="1.04" style="fill:#fff;stroke:#000;stroke-width:0.38999998569488525px"/><ellipse cx="303.72" cy="189.64" rx="1.1" ry="1.04" style="fill:#fff;stroke:#000;stroke-width:0.38999998569488525px"/><ellipse cx="303.6" cy="192.94" rx="1.1" ry="1.04" style="fill:#fff;stroke:#000;stroke-width:0.38999998569488525px"/><ellipse cx="302.6" cy="196.02" rx="1.1" ry="1.04" style="fill:#fff;stroke:#000;stroke-width:0.38999998569488525px"/><ellipse cx="301.1" cy="198.67" rx="1.1" ry="1.04" style="fill:#fff;stroke:#000;stroke-width:0.38999998569488525px"/><path d="M250.15,226.18c-12.26,0-23.25-1.47-31.09-3.83a1.21,1.21,0,0,1-.84-1.25,1.17,1.17,0,0,1,.84-1.17c7.84-2.36,18.83-3.81,31.09-3.83s23.25,1.47,31.09,3.83a1.16,1.16,0,0,1,.83,1.17,1.21,1.21,0,0,1-.83,1.25c-7.84,2.36-18.82,3.81-31.09,3.83" style="fill:#c8b100;stroke:#000;stroke-width:0.38999998569488525px"/><path d="M250.07,216.09c-12.41,0-23.55,1.58-31.39,4,.65-.31.59-1.12-.22-3.2-1-2.53-2.5-2.42-2.5-2.42,8.66-2.56,20.73-4.16,34.16-4.18s25.6,1.62,34.27,4.18c0,0-1.53-.11-2.51,2.42-.81,2.08-.87,2.89-.21,3.2-7.84-2.42-19.19-4-31.6-4" style="fill:#c8b100;stroke:#000;stroke-width:0.38999998569488525px"/><path d="M250.12,210.3c-13.43,0-25.5,1.62-34.16,4.18a1.08,1.08,0,0,1-1.38-.6,1.06,1.06,0,0,1,.7-1.35c8.71-2.67,21.08-4.35,34.84-4.38s26.19,1.71,34.9,4.38a1.06,1.06,0,0,1,.7,1.35,1.08,1.08,0,0,1-1.38.6c-8.67-2.56-20.78-4.16-34.22-4.18" style="fill:#c8b100;stroke:#000;stroke-width:0.38999998569488525px"/><path d="M250.2,199.78l1.23.22a4.57,4.57,0,0,0-.24,1.63,4.79,4.79,0,0,0,4.92,4.65,4.89,4.89,0,0,0,4.67-3.21c.08.05.47-1.68.68-1.66s.15,1.8.22,1.77a4.95,4.95,0,0,0,9.78-.72,3.64,3.64,0,0,0,0-.57l1.54-1.52.83,1.94a4.21,4.21,0,0,0-.46,2,4.57,4.57,0,0,0,4.69,4.44,4.75,4.75,0,0,0,3.9-2l1-1.25v1.53c0,1.55.66,2.93,2.16,3.18a6.62,6.62,0,0,0,4-1.7,26.42,26.42,0,0,0,3.55-3.29l.2,1.8a15.16,15.16,0,0,1-4,4.15,7.2,7.2,0,0,1-4.23,1.13,4.14,4.14,0,0,1-3-2.74,7,7,0,0,1-3.55,1,6.78,6.78,0,0,1-6.32-3.86,6.94,6.94,0,0,1-5.2,2.25,7.26,7.26,0,0,1-5.57-2.56,7.31,7.31,0,0,1-10.82-1.18,7.3,7.3,0,0,1-10.81,1.18,7.28,7.28,0,0,1-5.58,2.56,6.92,6.92,0,0,1-5.19-2.25,6.81,6.81,0,0,1-6.32,3.86,6.94,6.94,0,0,1-3.55-1,4.15,4.15,0,0,1-3,2.74,7.18,7.18,0,0,1-4.22-1.13,15.1,15.1,0,0,1-4-4.15l.2-1.8a27,27,0,0,0,3.56,3.29,6.51,6.51,0,0,0,4,1.7c1.51-.25,2.16-1.63,2.16-3.18v-1.53l1,1.25a4.76,4.76,0,0,0,3.9,2,4.57,4.57,0,0,0,4.69-4.44,4.21,4.21,0,0,0-.46-2l.83-1.94,1.54,1.52a5.46,5.46,0,0,0,0,.57,5,5,0,0,0,9.79.72c.06,0,.05-1.75.22-1.77s.6,1.71.67,1.66a4.9,4.9,0,0,0,4.68,3.21,4.79,4.79,0,0,0,4.91-4.65,4.16,4.16,0,0,0-.24-1.63l1.29-.22" style="fill:#c8b100;stroke:#000;stroke-width:0.38999998569488525px"/><path d="M208.37,206.32a2.24,2.24,0,0,0-.72-1.06,1.79,1.79,0,0,0-2.36-.25,1,1,0,0,0-.17.25,8,8,0,0,0-2.41-2.78,7.66,7.66,0,0,0-3.49-.52,2.91,2.91,0,0,1,3-2.89,3.17,3.17,0,0,1,2.48,1.11l.23-1.07a2.94,2.94,0,0,1,2,1.82,6.93,6.93,0,0,1-.06,3.8,6.68,6.68,0,0,1,.85-1.61,8.35,8.35,0,0,1,2.49-1.66,11.09,11.09,0,0,0,1.37-.79,5.94,5.94,0,0,1,.05.61,5,5,0,0,1,0,.83,8.16,8.16,0,0,1,3.83.48,5,5,0,0,1-2.62,2.3s.44.36.83.75a3.93,3.93,0,0,1,.44.49l-1.27.19a16.69,16.69,0,0,1-2.69.22,15.73,15.73,0,0,1-1.74-.22" style="fill:#c8b100;stroke:#000;stroke-width:0.38999998569488525px"/><path d="M205.29,205a1.79,1.79,0,0,1,2.36.25c.8.67,1,1.66.51,2.19a1.8,1.8,0,0,1-2.36-.25c-.79-.68-1-1.66-.51-2.19" style="fill:#ad1519;stroke:#000;stroke-width:0.38999998569488525px"/><path d="M216.39,205.91c-.28-.83,0-1.65.57-1.83s1.32.33,1.6,1.16,0,1.65-.57,1.84-1.31-.34-1.6-1.17" style="fill:#fff;stroke:#000;stroke-width:0.38999998569488525px"/><path d="M226.12,201.86a1.84,1.84,0,0,1-.67-1.08,1.74,1.74,0,0,1,.23-1.23,10.85,10.85,0,0,0-1.83-.69,11.62,11.62,0,0,0-2.37-.2c-.38,0-1.15,0-1.15,0s.07.17.28.55a7.14,7.14,0,0,0,.5.75,5.21,5.21,0,0,0-3,2.09,5.53,5.53,0,0,0,3.6,1,5.24,5.24,0,0,0-.2.86,5.11,5.11,0,0,0-.06.61l1.07-.39a12.22,12.22,0,0,0,2.15-1,10.43,10.43,0,0,0,1.48-1.25" style="fill:#c8b100;stroke:#000;stroke-width:0.38999998569488525px"/><path d="M225.68,191.65a5.34,5.34,0,0,1,2.3,3,1.88,1.88,0,0,1,.71-.59,2.36,2.36,0,0,1,1.09-.32s-.17,1-.25,1.32-.09,1.38-.32,2.32a8.15,8.15,0,0,1-.63,1.68,2,2,0,0,0-1.58-.41,1.87,1.87,0,0,0-1.32.9,8.36,8.36,0,0,1-1.21-1.38c-.55-.81-.93-1.78-1.13-2.08s-.72-1.15-.72-1.15a2.25,2.25,0,0,1,1.14-.05,1.83,1.83,0,0,1,.88.32,5.08,5.08,0,0,1,1-3.59" style="fill:#c8b100;stroke:#000;stroke-width:0.38999998569488525px"/><path d="M229,201.38a1.72,1.72,0,0,0-.42-2.3,10.46,10.46,0,0,1,1.47-1.26,11.76,11.76,0,0,1,2.15-.95l1.07-.4a5.11,5.11,0,0,1-.06.61,5.56,5.56,0,0,1-.2.87,5.45,5.45,0,0,1,3.61,1,5.25,5.25,0,0,1-3,2.08,6.3,6.3,0,0,1,.5.74c.21.39.28.56.28.56l-1.15,0a11.62,11.62,0,0,1-2.37-.2,11.16,11.16,0,0,1-1.84-.69" style="fill:#c8b100;stroke:#000;stroke-width:0.38999998569488525px"/><ellipse cx="227.37" cy="200.45" rx="2.17" ry="2.06" style="fill:#ad1519;stroke:#000;stroke-width:0.38999998569488525px"/><path d="M237.76,201.77c-.11-.87.31-1.63.93-1.7s1.23.57,1.34,1.44-.3,1.63-.93,1.7-1.22-.57-1.34-1.44" style="fill:#fff;stroke:#000;stroke-width:0.38999998569488525px"/><path d="M248.5,199.83a2,2,0,0,1-.53-1.33,2,2,0,0,1,.51-1.32,11.33,11.33,0,0,0-1.89-1.12,13.66,13.66,0,0,0-2.6-.67l-1.28-.24a6.19,6.19,0,0,0,.2.67,7.35,7.35,0,0,0,.4.93,6,6,0,0,0-3.81,1.76,6.13,6.13,0,0,0,3.81,1.75,6.61,6.61,0,0,0-.4.93,5.46,5.46,0,0,0-.2.67l1.28-.24a13.66,13.66,0,0,0,2.6-.67,13.41,13.41,0,0,0,1.91-1.11" style="fill:#c8b100;stroke:#000;stroke-width:0.38999998569488525px"/><path d="M250.11,188.36a5.89,5.89,0,0,1,1.95,3.82,2,2,0,0,1,.91-.53,2.72,2.72,0,0,1,1.28-.16s-.39,1.05-.55,1.42-.39,1.53-.84,2.53a8.81,8.81,0,0,1-1.05,1.76,2.23,2.23,0,0,0-3.34,0,8.81,8.81,0,0,1-1.05-1.76c-.45-1-.67-2.16-.84-2.53s-.56-1.42-.56-1.42a2.71,2.71,0,0,1,1.28.16,2.05,2.05,0,0,1,.92.53,5.91,5.91,0,0,1,1.89-3.82" style="fill:#c8b100;stroke:#000;stroke-width:0.38999998569488525px"/><path d="M251.76,199.83a1.95,1.95,0,0,0,0-2.65,11.17,11.17,0,0,1,1.9-1.12,13.29,13.29,0,0,1,2.6-.67l1.26-.24a3.27,3.27,0,0,1-.19.67,7.36,7.36,0,0,1-.4.93,6,6,0,0,1,3.81,1.76,6.08,6.08,0,0,1-3.81,1.75,6.6,6.6,0,0,1,.4.93,4.14,4.14,0,0,1,.19.67l-1.26-.24a9,9,0,0,1-4.52-1.78" style="fill:#c8b100;stroke:#000;stroke-width:0.38999998569488525px"/><ellipse cx="250.14" cy="198.5" rx="2.17" ry="2.06" style="fill:#ad1519;stroke:#000;stroke-width:0.38999998569488525px"/><path d="M262.58,201.77c.11-.87-.3-1.63-.93-1.7s-1.23.57-1.34,1.44.31,1.63.93,1.7,1.23-.57,1.34-1.44" style="fill:#fff;stroke:#000;stroke-width:0.38999998569488525px"/><path d="M271.38,201.38a1.7,1.7,0,0,1,.42-2.3,10.46,10.46,0,0,0-1.47-1.26,11.81,11.81,0,0,0-2.16-.95l-1.06-.4a3.26,3.26,0,0,0,.06.61,6.49,6.49,0,0,0,.19.87,5.44,5.44,0,0,0-3.6,1,5.23,5.23,0,0,0,3,2.08,5.67,5.67,0,0,0-.49.74,4.17,4.17,0,0,0-.28.56l1.14,0a11.56,11.56,0,0,0,2.37-.2,11.16,11.16,0,0,0,1.84-.69" style="fill:#c8b100;stroke:#000;stroke-width:0.38999998569488525px"/><path d="M274.67,191.65a5.4,5.4,0,0,0-2.31,3,1.77,1.77,0,0,0-.71-.59,2.33,2.33,0,0,0-1.09-.32s.17,1,.26,1.32.09,1.38.31,2.32a7.85,7.85,0,0,0,.64,1.68,2,2,0,0,1,1.57-.41,1.89,1.89,0,0,1,1.33.9,8.36,8.36,0,0,0,1.21-1.38c.54-.81.92-1.78,1.12-2.08s.72-1.15.72-1.15a2.25,2.25,0,0,0-1.14-.05,1.83,1.83,0,0,0-.88.32,5.07,5.07,0,0,0-1-3.59" style="fill:#c8b100;stroke:#000;stroke-width:0.38999998569488525px"/><path d="M274.22,201.86a1.75,1.75,0,0,0,.67-1.08,1.69,1.69,0,0,0-.22-1.23,10.85,10.85,0,0,1,1.83-.69,11.58,11.58,0,0,1,2.36-.2l1.15,0a3.85,3.85,0,0,1-.28.55,6.36,6.36,0,0,1-.49.75,5.28,5.28,0,0,1,3,2.09,5.55,5.55,0,0,1-3.6,1,6.09,6.09,0,0,1,.19.86,5.11,5.11,0,0,1,.06.61l-1.06-.39a12,12,0,0,1-2.16-1,11.15,11.15,0,0,1-1.48-1.25" style="fill:#c8b100;stroke:#000;stroke-width:0.38999998569488525px"/><ellipse cx="272.98" cy="200.45" rx="2.17" ry="2.06" style="fill:#ad1519;stroke:#000;stroke-width:0.38999998569488525px"/><path d="M284,205.91c.28-.83,0-1.65-.57-1.83s-1.32.33-1.61,1.16,0,1.65.57,1.84,1.32-.34,1.61-1.17" style="fill:#fff;stroke:#000;stroke-width:0.38999998569488525px"/><path d="M292,206.32a2.31,2.31,0,0,1,.72-1.06A1.79,1.79,0,0,1,295,205a1.05,1.05,0,0,1,.18.25,8,8,0,0,1,2.4-2.78,7.71,7.71,0,0,1,3.5-.52,2.92,2.92,0,0,0-3-2.89,3.14,3.14,0,0,0-2.47,1.11l-.23-1.07a2.94,2.94,0,0,0-2,1.82,7,7,0,0,0,0,3.8,6.47,6.47,0,0,0-.84-1.61,8.35,8.35,0,0,0-2.49-1.66,10.28,10.28,0,0,1-1.37-.79s0,.18-.06.61a5.62,5.62,0,0,0,0,.83,8.12,8.12,0,0,0-3.83.48,4.89,4.89,0,0,0,2.61,2.3s-.43.36-.83.75a4.2,4.2,0,0,0-.43.49l1.27.19a16.65,16.65,0,0,0,2.68.22,15.42,15.42,0,0,0,1.74-.22" style="fill:#c8b100;stroke:#000;stroke-width:0.38999998569488525px"/><path d="M295,205a1.79,1.79,0,0,0-2.36.25c-.79.67-1,1.66-.51,2.19a1.8,1.8,0,0,0,2.36-.25c.79-.68,1-1.66.51-2.19" style="fill:#ad1519;stroke:#000;stroke-width:0.38999998569488525px"/><path d="M250.12,224.57a118.45,118.45,0,0,1-28.68-3.26,119.28,119.28,0,0,1,28.68-3.19,119.75,119.75,0,0,1,28.74,3.19,118.92,118.92,0,0,1-28.74,3.26Z" style="fill:#ad1519;stroke:#000;stroke-linejoin:round;stroke-width:0.38999998569488525px"/><path d="M258,224.28v-6m-3,6.21,0-6.37m-2.24,6.45v-6.49" style="fill:none;stroke:#000;stroke-width:0.05000000074505806px"/><path d="M250.95,224.64v-6.57" style="fill:none;stroke:#000;stroke-width:0.09000000357627869px"/><path d="M249.16,224.64v-6.57" style="fill:none;stroke:#000;stroke-width:0.14000000059604645px"/><path d="M247.48,224.64v-6.57" style="fill:none;stroke:#000;stroke-width:0.18000000715255737px"/><path d="M245.81,224.64v-6.57" style="fill:none;stroke:#000;stroke-width:0.23000000417232513px"/><path d="M244.32,224.64v-6.57" style="fill:none;stroke:#000;stroke-width:0.2800000011920929px"/><path d="M241.48,224.28l0-6m1.39,6.05v-6.25" style="fill:none;stroke:#000;stroke-width:0.33000001311302185px"/><path d="M238.86,224v-5.5m1.33,5.66,0-5.86" style="fill:none;stroke:#000;stroke-width:0.3700000047683716px"/><path d="M235.35,223.7v-4.84m1.15,4.92V218.7m1.19,5.24v-5.28" style="fill:none;stroke:#000;stroke-width:0.41999998688697815px"/><path d="M234.12,223.66V219" style="fill:none;stroke:#000;stroke-width:0.46000000834465027px"/><path d="M233,223.42v-4.36" style="fill:none;stroke:#000;stroke-width:0.5099999904632568px"/><path d="M231.74,223.31v-4.06" style="fill:none;stroke:#000;stroke-width:0.5600000023841858px"/><path d="M229.22,222.95l0-3.22m1.33,3.38v-3.62" style="fill:none;stroke:#000;stroke-width:0.6000000238418579px"/><path d="M227.93,222.68v-2.84" style="fill:none;stroke:#000;stroke-width:0.6299999952316284px"/><path d="M226.74,222.45v-2.36" style="fill:none;stroke:#000;stroke-width:0.6800000071525574px"/><path d="M225.45,222.13v-1.85" style="fill:none;stroke:#000;stroke-width:0.7300000190734863px"/><path d="M224.12,222V220.6" style="fill:none;stroke:#000;stroke-width:0.7699999809265137px"/><path d="M222.72,221.66V221" style="fill:none;stroke:#000;stroke-width:0.9100000262260437px"/><path d="M220.12,221.66c7.75-2.18,18.29-3.52,30-3.54s22.31,1.36,30.06,3.54" style="fill:none;stroke:#000;stroke-width:0.38999998569488525px"/><path d="M216.72,217.16l1.22-1.59,3.37.43-2.69,2-1.9-.8" style="fill:#ad1519;stroke:#000;stroke-width:0.38999998569488525px"/><path d="M224,215.28a1.1,1.1,0,1,1,1.1,1,1.07,1.07,0,0,1-1.1-1" style="fill:#fff;stroke:#000;stroke-width:0.38999998569488525px"/><path d="M233.64,215.07l-2.36.27a1.09,1.09,0,0,1-1.24-.9,1,1,0,0,1,1-1.15l2.37-.28,2.42-.28a1.08,1.08,0,0,1,1.22.9,1.06,1.06,0,0,1-1,1.16l-2.41.28" style="fill:#058e6e;stroke:#000;stroke-width:0.38999998569488525px"/><path d="M240.54,213.35a1.1,1.1,0,0,1,2.2,0,1.1,1.1,0,0,1-2.2,0" style="fill:#fff;stroke:#000;stroke-width:0.38999998569488525px"/><path d="M250.15,214.16h-3.29a1.08,1.08,0,0,1-1.11-1,1.07,1.07,0,0,1,1.1-1h6.64a1.07,1.07,0,0,1,1.1,1,1.08,1.08,0,0,1-1.11,1h-3.33" style="fill:#ad1519;stroke:#000;stroke-width:0.38999998569488525px"/><path d="M257.56,213.35a1.1,1.1,0,1,1,1.1,1,1.07,1.07,0,0,1-1.1-1" style="fill:#fff;stroke:#000;stroke-width:0.38999998569488525px"/><path d="M266.66,215.07l2.36.27a1.1,1.1,0,0,0,1.24-.9,1,1,0,0,0-1-1.15l-2.37-.28-2.42-.28a1.07,1.07,0,0,0-1.22.9,1.05,1.05,0,0,0,1,1.16l2.41.28" style="fill:#058e6e;stroke:#000;stroke-width:0.38999998569488525px"/><path d="M274.07,215.28a1.1,1.1,0,1,1,1.1,1,1.07,1.07,0,0,1-1.1-1" style="fill:#fff;stroke:#000;stroke-width:0.38999998569488525px"/><path d="M283.57,217.16l-1.21-1.59L279,216l2.69,2,1.89-.8" style="fill:#ad1519;stroke:#000;stroke-width:0.38999998569488525px"/><path d="M250.49,344.33a85.24,85.24,0,0,1-36.95-8.54,23.65,23.65,0,0,1-13.36-21.19V281.3H300.6v33.3a23.63,23.63,0,0,1-13.36,21.19,84.33,84.33,0,0,1-36.75,8.54Z" style="fill:#ccc;stroke:#000;stroke-width:0.5199999809265137px"/><path d="M252.91,329.55a4.08,4.08,0,0,1,3.15,4c0,2.38-2.3,4.18-5.3,4.18s-5.42-1.8-5.42-4.18c0-1.79,1-3.8,3.08-3.94a2.8,2.8,0,0,0-.24-.5l-.64-.66a3,3,0,0,1,1.25,0,2.66,2.66,0,0,1,.77.47,3.54,3.54,0,0,1,.52-.76,2.71,2.71,0,0,1,.7-.53,3.47,3.47,0,0,1,.61.64,3.64,3.64,0,0,1,.25.59,3.43,3.43,0,0,1,.79-.49,6.74,6.74,0,0,1,.84-.26s-.13.46-.22.69a3.8,3.8,0,0,0-.14.72" style="fill:#ffd691;stroke:#000;stroke-width:0.5199999809265137px"/><path d="M250.32,340.32s-4-2.68-5.7-3c-2.21-.47-4.69-.09-5.76-.15a22.2,22.2,0,0,1,1.84,1.48,10.51,10.51,0,0,0,3.43,1.91,12.13,12.13,0,0,0,6.19-.2" style="fill:#058e6e;stroke:#000;stroke-width:0.5199999809265137px"/><path d="M251.46,340.56s2.54-2.66,5.21-3a14.48,14.48,0,0,1,6.44.58s-1,.49-1.56.87a7,7,0,0,1-4.14,1.59c-2.18,0-4.58-.23-5-.17l-1,.15" style="fill:#058e6e;stroke:#000;stroke-width:0.5199999809265137px"/><path d="M250.69,337.28a5.06,5.06,0,0,1,0-7.43,5.08,5.08,0,0,1,0,7.43" style="fill:#ad1519;stroke:#000;stroke-width:0.5199999809265137px"/><path d="M249.68,342.71a10.36,10.36,0,0,0,.67-2.83,10.09,10.09,0,0,0-.15-2.17h.8a8.07,8.07,0,0,1,.39,2.17,21.89,21.89,0,0,1-.18,2.37,3.85,3.85,0,0,0-.73.17c-.19.09-.8.29-.8.29" style="fill:#058e6e;stroke:#000;stroke-width:0.5199999809265137px"/><path d="M250.32,314.57c0,13.16-11.16,23.82-25.05,23.82s-25.15-10.66-25.15-23.82V281.22h50.2v33.35" style="fill:#ad1519;stroke:#000;stroke-width:0.5199999809265137px"/><path d="M200,314.12a25.44,25.44,0,0,0,5.73,15.67V280.32H200.1l-.07,33.8Z" style="fill:#c8b100;stroke:#000;stroke-width:0.5199999809265137px"/><path d="M211.08,334.23a26.06,26.06,0,0,0,6,2.77L217,280h-5.88Z" style="fill:#c8b100;stroke:#000;stroke-width:0.5199999809265137px"/><path d="M222.28,338.25a27.34,27.34,0,0,0,5.87,0V280h-5.87Z" style="fill:#c8b100;stroke:#000;stroke-width:0.5199999809265137px"/><path d="M233.32,337a19.81,19.81,0,0,0,6-2.63V280h-5.88l-.15,57Z" style="fill:#c8b100;stroke:#000;stroke-width:0.5199999809265137px"/><path d="M244.81,329.24c2.45-2.18,4.75-7.12,5.59-12.76l.14-36.44h-5.87Z" style="fill:#c8b100;stroke:#000;stroke-width:0.5199999809265137px"/><path d="M300.65,281.22v33.35c0,13.16-11.28,23.82-25.17,23.82s-25.16-10.66-25.16-23.82V281.22h50.33" style="fill:#ad1519;stroke:#000;stroke-width:0.5199999809265137px"/><path d="M272.71,306.14a2.93,2.93,0,0,1,.19-.4L268.64,301l-1.67.72-3.06-3.39,1-1.46-5.34-6-.27,0,0,4,1.75.5v4.46l-1.75.48,0,4.08a2.62,2.62,0,0,1,1.74,1.67h3.21l.51-1.67h4.72l.5,1.67Zm-7-18.5v1.61h2.76v-1.61ZM258.43,308a1.11,1.11,0,1,0-1.17-1.1A1.13,1.13,0,0,0,258.43,308Zm16-9.73-1.76-.48v-4.46l1.76-.5v-1.92a2.67,2.67,0,0,1-1.79-1.67h-2.68l-.51,1.67h-4.71l-.51-1.67h-3.09a3.11,3.11,0,0,1-.29.61l5.38,6,1.67-.71,3.06,3.4-1,1.45,4.18,4.64.28-.12Zm-7.25-1.39-1.29,1,1.77,2,1.29-1Zm8,36.19a2.69,2.69,0,0,1-2.51-2,18.08,18.08,0,0,1-4.73-1.3l.84-1.43a16.1,16.1,0,0,0,4.08,1.11,2.64,2.64,0,0,1,1.58-1.4v-5.62l-1.76-.49v-4.46l1.76-.48v-7.64a.88.88,0,0,1-.2-.09l-4,4.42,1,1.44-3.06,3.4-1.67-.71-3.3,3.67a2.44,2.44,0,0,1-.11,2.85,15.58,15.58,0,0,0,3.24,2.75l-.84,1.44a17.53,17.53,0,0,1-3.79-3.22,2.82,2.82,0,0,1-2.6-.5,2.48,2.48,0,0,1-.3-3.64L259,321a15.92,15.92,0,0,1-1.32-5h1.71a14,14,0,0,0,1.09,4.27,3.14,3.14,0,0,1,1.46.16l3.32-3.68-1-1.45,3.06-3.4,1.67.72,4-4.43a2.15,2.15,0,0,1-.21-.46H270l-.5,1.67h-4.72l-.51-1.67H261a2.67,2.67,0,0,1-1.69,1.62v4H257.6v-4a2.62,2.62,0,0,1-1.91-2.47,2.65,2.65,0,0,1,1.92-2.48v-4l-1.76-.48v-4.46l1.76-.5v-4a2.6,2.6,0,0,1-1.84-2.45,2.65,2.65,0,0,1,2.73-2.58,2.73,2.73,0,0,1,2.61,1.78h3.09l.51-1.67h4.71l.51,1.67h2.68a2.71,2.71,0,0,1,2.56-1.78l.07,8.37h-.85v2.61h.85l0,21.59h-.78V321h.78Zm-5.91-18.31-1.29-1-1.78,2,1.29,1Zm-10-18.44h-1.69v2.61h1.7Zm9.16,11.41v-1.6h-2.85v1.6Zm-10.6,9.69L256.1,317l-.25-4.45,1.75-.58v2.56a15.84,15.84,0,0,0,.26,2.86Zm1.46-5.52,1.75.41s.09,2.87,0,2.22.19,2.24.19,2.24l-1.76.58a14.27,14.27,0,0,1-.24-2.79Zm10.81,16.93.39-1.7a14.32,14.32,0,0,1-4.17-2.09l-1.26,1.11a16.6,16.6,0,0,0,5,2.68Zm-.85,1.44L268,331.5a19.29,19.29,0,0,1-4.12-2.11l.38-1.77a18.27,18.27,0,0,0,5,2.66Z" style="fill:#c8b100;stroke:#c8b100;stroke-width:0.25999999046325684px"/><path d="M277.72,306.14a2.93,2.93,0,0,0-.19-.4l4.26-4.74,1.67.72,3.06-3.39-1-1.46,5.34-6,.27,0,0,4-1.75.5v4.46l1.75.48,0,4.08a2.62,2.62,0,0,0-1.74,1.67h-3.21l-.51-1.67H281l-.5,1.67Zm7-18.5v1.61h-2.76v-1.61ZM292,308a1.11,1.11,0,1,1,1.17-1.1A1.13,1.13,0,0,1,292,308Zm-16-9.73,1.76-.48v-4.46l-1.76-.5v-1.92a2.67,2.67,0,0,0,1.79-1.67h2.68l.51,1.67h4.71l.51-1.67h3.09a3.11,3.11,0,0,0,.29.61l-5.38,6-1.67-.71-3.06,3.4,1,1.45-4.18,4.64-.28-.12Zm7.25-1.39,1.29,1-1.77,2-1.29-1Zm-8,36.19a2.69,2.69,0,0,0,2.51-2,18.08,18.08,0,0,0,4.73-1.3l-.84-1.43a16.1,16.1,0,0,1-4.08,1.11A2.64,2.64,0,0,0,276,328v-5.62l1.76-.49v-4.46L276,317v-7.64a.88.88,0,0,0,.2-.09l4,4.42-1,1.44,3.06,3.4,1.67-.71,3.3,3.67a2.44,2.44,0,0,0,.11,2.85,15.58,15.58,0,0,1-3.24,2.75l.84,1.44a17.53,17.53,0,0,0,3.79-3.22,2.82,2.82,0,0,0,2.6-.5,2.48,2.48,0,0,0,.3-3.64l-.14-.16a15.92,15.92,0,0,0,1.32-5h-1.71a14,14,0,0,1-1.09,4.27,3.14,3.14,0,0,0-1.46.16l-3.32-3.68,1-1.45-3.06-3.4-1.67.72-4-4.43a2.15,2.15,0,0,0,.21-.46h2.76l.5,1.67h4.72l.51-1.67h3.24a2.67,2.67,0,0,0,1.69,1.62v4h1.71v-4a2.62,2.62,0,0,0,1.91-2.47,2.65,2.65,0,0,0-1.92-2.48v-4l1.76-.48v-4.46l-1.76-.5v-4a2.6,2.6,0,0,0,1.84-2.45,2.65,2.65,0,0,0-2.73-2.58,2.73,2.73,0,0,0-2.61,1.78h-3.09l-.51-1.67H281l-.51,1.67h-2.68a2.71,2.71,0,0,0-2.56-1.78l-.07,8.37H276v2.61h-.85l0,21.59H276V321h-.78Zm5.91-18.31,1.29-1,1.78,2-1.29,1Zm10-18.44h1.69v2.61h-1.7ZM282,307.74v-1.6h2.85v1.6Zm10.6,9.69,1.76-.39.25-4.45-1.75-.58v2.56a15.84,15.84,0,0,1-.26,2.86Zm-1.46-5.52-1.75.41s-.09,2.87,0,2.22-.19,2.24-.19,2.24l1.76.58a14.27,14.27,0,0,0,.24-2.79ZM280.3,328.84l-.39-1.7a14.32,14.32,0,0,0,4.17-2.09l1.26,1.11a16.6,16.6,0,0,1-5,2.68Zm.85,1.44,1.3,1.22a19.29,19.29,0,0,0,4.12-2.11l-.38-1.77a18.27,18.27,0,0,1-5,2.66Z" style="fill:#c8b100;stroke:#c8b100;stroke-width:0.25999999046325684px"/><path d="M272.59,306.94a2.74,2.74,0,1,1,2.74,2.58,2.67,2.67,0,0,1-2.74-2.58" style="fill:#058e6e"/><path d="M200.12,281.25H250.3V225.53H200.12Z" style="fill:#ad1519;stroke:#000;stroke-width:0.5199999809265137px"/><path d="M217.34,238.41h-.92v-.92H214.8v3.69h1.62v2.55h-3.47v7.39h1.85v14.79h-3.7v7.63h28.42v-7.63h-3.69V251.12h1.85v-7.39h-3.47v-2.55h1.62v-3.69h-1.62v.92h-.93v-.92h-1.61v.92h-1.16v-.92h-1.62v3.69h1.62v2.55h-3.46v-8.09h1.84v-3.7h-1.84v.93h-.93v-.93H224.5v.93h-.92v-.93h-1.85v3.7h1.85v8.09h-3.47v-2.55h1.62v-3.69h-1.62v.92h-.92v-.92h-1.85v.92Zm-6.24,35.13h28.42m-28.42-1.85h28.42m-28.42-1.85h28.42M211.1,268h28.42m-28.42-2.08h28.42m-24.72-1.62h21m-21-1.85h21m-21-2.08h21m-21-1.84h21m-21-1.85h21m-21-1.85h21m-21-1.85h21m-22.88-1.85h24.73m-24.73-1.85h24.73m-24.73-1.85h24.73m-24.73-1.84h24.73m-21.26-1.85h17.79m-10.63-1.85H227M223.58,240H227m-3.47-1.85H227m-3.47-1.85H227M221.73,234h7.16m-12.47,7.86h3.69m-5.31-2.31h6.93m-6.93,34v-1.85m0-1.85V268m-1.85,1.85v1.85m3.47,0v-1.85m1.84,3.7v-1.85m0-1.85V268m0-2.08v-1.62m0-1.85v-2.08M216.42,268v-2.08M212.95,268v-2.08m7.16,0V268m1.62-2.08v-1.62m-5.31-1.85v1.85m3.69-1.85v1.85m3.47-1.85v1.85m-1.85-1.85v-2.08m1.85-1.84v1.84m0-5.54v1.85m-1.85-3.7v1.85m1.85-3.7V253m-3.47-1.85V253m-3.69-1.85V253m-1.62-3.7v1.85m3.46-1.85v1.85m3.47-1.85v1.85m1.85-3.7v1.85m-3.47-1.85v1.85m-3.69-1.85v1.85m-1.62-3.69v1.84m6.93-1.84v1.84m-3.47-5.54v1.85m15.95-1.85h-3.7m5.32-2.31h-6.94m6.94,34v-1.85m0-1.85V268m1.85,1.85v1.85m-3.47,0v-1.85m-1.85,3.7v-1.85m0-1.85V268m0-2.08v-1.62m0-1.85v-2.08m1.85,7.63v-2.08m3.47,2.08v-2.08m-7.17,0V268m-1.62-2.08v-1.62m5.32-1.85v1.85m-3.7-1.85v1.85m-3.46-1.85v1.85m1.84-1.85v-2.08m-1.84-1.84v1.84m0-5.54v1.85m1.84-3.7v1.85m-1.84-3.7V253m3.46-1.85V253m3.7-1.85V253m1.62-3.7v1.85m-3.47-1.85v1.85m-3.47-1.85v1.85m-1.84-3.7v1.85m3.46-1.85v1.85m3.7-1.85v1.85m1.62-3.69v1.84m-6.94-1.84v1.84m3.47-5.54v1.85m-7.16,18.71v-2.08m0-5.54V253m0,5.55v-1.85m0-5.55v-1.85m0-1.85v-1.84m0-3.7V240m0-1.85v-1.85m-8.78,4.85h3.69m3.47-5.54h3.47m3.46,5.54h3.7" style="fill:#c8b100;stroke:#000;stroke-width:0.46000000834465027px"/><path d="M230.05,273.54v-4.86c0-.92-.46-3.7-4.85-3.7-4.16,0-4.62,2.78-4.62,3.7v4.86Z" style="fill:#c8b100;stroke:#000;stroke-width:0.46000000834465027px"/><path d="M222.19,268.91l-2.31-.23c0-.92.23-2.31.93-2.77l2.08,1.62A2.63,2.63,0,0,0,222.19,268.91Z" style="fill:#c8b100;stroke:#000;stroke-width:0.46000000834465027px"/><path d="M226.12,266.6l1.16-2.08a5.55,5.55,0,0,0-2.08-.46,5.47,5.47,0,0,0-1.85.46l1.15,2.08h1.62Z" style="fill:#c8b100;stroke:#000;stroke-width:0.46000000834465027px"/><path d="M228.43,268.91l2.31-.23c0-.92-.23-2.31-.92-2.77l-2.08,1.62A2.62,2.62,0,0,1,228.43,268.91Z" style="fill:#c8b100;stroke:#000;stroke-width:0.46000000834465027px"/><path d="M221.73,260.83v-5.09a2.54,2.54,0,1,0-5.08,0v5.09h5.08Z" style="fill:#c8b100;stroke:#000;stroke-width:0.46000000834465027px"/><path d="M228.89,260.83v-5.09a2.55,2.55,0,0,1,5.09,0v5.09Z" style="fill:#c8b100;stroke:#000;stroke-width:0.46000000834465027px"/><path d="M220.11,248.35l.23-4.62h-4.39l.47,4.62Z" style="fill:#c8b100;stroke:#000;stroke-width:0.46000000834465027px"/><path d="M227.05,248.35l.46-4.62h-4.39l.23,4.62Z" style="fill:#c8b100;stroke:#000;stroke-width:0.46000000834465027px"/><path d="M230.51,248.35l-.46-4.62h4.62l-.46,4.62h-3.7Z" style="fill:#c8b100;stroke:#000;stroke-width:0.46000000834465027px"/><path d="M228.43,273.54v-4.16c0-.7-.46-2.78-3.23-2.78a2.81,2.81,0,0,0-3,2.78v4.16h6.24Z" style="fill:#0039f0"/><path d="M221.27,260.36V256a2.09,2.09,0,1,0-4.16,0v4.39Z" style="fill:#0039f0"/><path d="M229.36,260.36V256a2.09,2.09,0,1,1,4.16,0v4.39Z" style="fill:#0039f0"/><path d="M250.28,281.25H300.6V225.53H250.28Z" style="fill:#ccc;stroke:#000;stroke-width:0.5199999809265137px"/><path d="M275.93,239.26l0-.62.09-.34a9.37,9.37,0,0,1-2.46-.11,6.16,6.16,0,0,1-2.4-1.25c-.79-.68-1.1-1.1-1.67-1.18a3.87,3.87,0,0,0-2.4.4,4.55,4.55,0,0,1,1.78,1.31,4.91,4.91,0,0,0,2,1.53,21.73,21.73,0,0,0,3.22.07c.57,0,1.84.19,1.84.19Z" style="fill:#db4446;stroke:#000;stroke-width:0.38999998569488525px"/><path d="M283.46,237s0,.72.08,1.4-.22,1.24-.11,1.61a5.36,5.36,0,0,0,.3.93,3.69,3.69,0,0,1,.21.94l-.74-.54c-.35-.27-.6-.44-.6-.44l.1,1a2.8,2.8,0,0,0,.51,1.24,6.22,6.22,0,0,1,1,1.33,4.87,4.87,0,0,1,.14,1.44s-.46-.75-.87-.89a13.44,13.44,0,0,1-1.26-.62,2.75,2.75,0,0,1,.79,1.55,5.38,5.38,0,0,1-.32,1.6,5,5,0,0,0-.83-1.12,10.44,10.44,0,0,0-1.13-.9,6.27,6.27,0,0,1,.52,1.95c0,.79-.15,2.47-.15,2.47a4.46,4.46,0,0,0-.79-1,8.33,8.33,0,0,1-1-.78,3.52,3.52,0,0,1,.54,1.16,10.68,10.68,0,0,0,1.92,4.69c.94,1.37,2.39,3.77,5.5,3s2-5,1.3-6.92a17.53,17.53,0,0,1-.94-4.87c0-.75.58-3,.51-3.39a8.43,8.43,0,0,1,.14-3.28,17.59,17.59,0,0,1,1-2.4,6.1,6.1,0,0,0,.46-1.34,12.87,12.87,0,0,0,.07-1.37s.58,1.06.73,1.44a7,7,0,0,1,.14,1.5,2.43,2.43,0,0,1,1-1.67,14.34,14.34,0,0,0,2.13-1.44,2.27,2.27,0,0,0,.33-.51,6.72,6.72,0,0,1-.62,2.67c-.36.49-1.77,2.09-1.77,2.09a5,5,0,0,1,1.23-.3,5.1,5.1,0,0,1,.87,0,7.65,7.65,0,0,0-1.41,1.64c-.8,1.16-.47,1.26-1,2.22s-1,1-1.78,1.58c-1.08.87-.5,4.34-.36,4.86s2,4.76,2.07,5.79.21,3.33-1.6,4.8c-1.16,1-3.07,1-3.51,1.23a3.32,3.32,0,0,0-1.29,2.91,2.52,2.52,0,0,0,1.15,2.51c.51.44,1.16.2,1.3.55a2,2,0,0,0,.44.75.84.84,0,0,1,.29.82c-.08.38-.91,1.23-1.2,1.85a15,15,0,0,0-.87,2.47,2.79,2.79,0,0,0,.18,1.37s.91,1.06.29,1.26c-.4.14-.78-.25-1-.2-.54.14-.83.47-1,.45-.36-.07-.36-.25-.4-.76s0-.72-.17-.72-.33.18-.37.45,0,.89-.29.89-.61-.45-.83-.55-.83-.2-.87-.48a1.22,1.22,0,0,1,.76-1c.4-.1.76-.3.51-.51a.56.56,0,0,0-.76,0c-.25.21-.79,0-.76-.27a3.58,3.58,0,0,0,.07-.86c0-.17-.47-.51.1-.82s.84.27,1.42.17a1.41,1.41,0,0,0,1.08-.65,1.38,1.38,0,0,0-.22-1.5c-.39-.45-.79-.52-.94-.8a9.63,9.63,0,0,1-.36-.92,8.3,8.3,0,0,1,0,1.37,4.17,4.17,0,0,0,0,.89s-.39-.45-.72-.79a5.12,5.12,0,0,1-.65-1.37s0,1,0,1.34.43.72.29.86-.83-.72-1-.86a3.83,3.83,0,0,1-1-1.06,8.09,8.09,0,0,1-.51-1.41,4.4,4.4,0,0,1-.07-1.58c.18-.4.47-1.13.47-1.13h-1.41c-.76,0-1.3-.23-1.59.28s-.15,1.54.21,2.88a6.46,6.46,0,0,1,.48,2.22,3.19,3.19,0,0,1-.76.89,1.36,1.36,0,0,1-.91,0,2.64,2.64,0,0,0-1.26-.27,8.49,8.49,0,0,1-1.37,0c-.26-.07-.88-.38-1.17-.31s-.79.32-.65.72c.22.61-.21.75-.51.72a7.71,7.71,0,0,1-.9-.24c-.36-.11-.9,0-.83-.42s.22-.44.4-.74.25-.52,0-.54a.93.93,0,0,0-.7.11c-.2.16-.51.51-.76.38s-.46-.43-.46-1.08-.68-1.2,0-1.17,1.41.48,1.55.13.06-.51-.28-.78-.76-.43-.31-.77a8.74,8.74,0,0,0,.74-.54c.17-.18.41-.79.73-.64.62.3,0,.73.65,1.42a2,2,0,0,0,2.06.83c1-.11,1.33-.24,1.33-.54a9.64,9.64,0,0,0-.12-1,6.38,6.38,0,0,1,.15-1,2.14,2.14,0,0,0-.63.59c-.13.29-.42.8-.42.8a5.39,5.39,0,0,1-.08-1.09c0-.29.12-.79.11-.89a8.53,8.53,0,0,0-.23-.94,5.65,5.65,0,0,1-.28.94,4.91,4.91,0,0,0-.16,1.07,1.69,1.69,0,0,1-.48-1.55c.13-.75-.12-1.74.11-2.06s.75-1.64,2.06-1.69,2.31,0,2.77,0,2.06-.33,2.06-.33-3-1.52-3.64-2a10,10,0,0,1-2.07-2.16,8.27,8.27,0,0,1-.65-1.58,2.57,2.57,0,0,0-1,.29,5.13,5.13,0,0,0-1.24,1,10.84,10.84,0,0,0-.73,1.05s.08-.94.08-1.23S269,252,269,252a3.68,3.68,0,0,1-1,1.76c-.68.49-1.47,1.15-1.47,1.15s.08-.71.08-.88.17-1,.17-1a2.17,2.17,0,0,1-1.21.86c-.74.13-1.81.11-1.9.56s.2,1.07,0,1.39a1.65,1.65,0,0,1-.54.54,1.78,1.78,0,0,0-.79-.38,1.45,1.45,0,0,0-.71.16s-.31-.4-.19-.67.67-.66.54-.83-.6.06-.88.19-.88.27-.82-.19.2-.72,0-1,0-.53.18-.61,1.12,0,1.21-.19-.22-.48-.82-.61-.88-.49-.57-.78a2.08,2.08,0,0,0,.54-.64c.14-.27.2-.76.74-.51s.42.83,1,1a4.24,4.24,0,0,0,2.17-.24c.28-.16,1.19-.83,1.5-1s1.61-1.12,1.61-1.12-.76-.53-1-.8a9.41,9.41,0,0,0-1-1.05,9.19,9.19,0,0,0-1.92-.64,11,11,0,0,1-1.72-.48,3.65,3.65,0,0,0,.79-.35c.19-.16.64-.56.87-.53l.28,0a12.56,12.56,0,0,1-1.47-.13,7.45,7.45,0,0,0-1.27-.54,6.19,6.19,0,0,0-.84.11,4.8,4.8,0,0,1,1.38-.59,6.08,6.08,0,0,1,1.1-.08,3.2,3.2,0,0,1-1.19-.58c-.22-.33-.45-.8-.62-1s-.28-.56-.59-.59-.85.38-1.16.35-.54-.22-.57-.67,0-.3-.1-.54-.57-.8-.15-.93,1.33.08,1.42-.08-.48-.65-.85-.83-1-.51-.65-.78.62-.37.79-.61.37-.91.74-.7.87,1.26,1.16,1.18.3-.83.25-1.15,0-.88.28-.83.51.43,1,.46,1.13-.11,1.07.21a2.42,2.42,0,0,1-.62,1.06,1.61,1.61,0,0,0-.25,1.5,4,4,0,0,0,1.16,1.48c.45.29,1.3.51,1.84.85a16.5,16.5,0,0,0,2.2,1.45,5.34,5.34,0,0,1,.85.32,3.09,3.09,0,0,1,1.13-.21,10.11,10.11,0,0,0,2.71-.14c.57-.24,1.3-.64,1.08-1.15s-1.47-1-1.36-1.36.57-.43,1.33-.46,1.8.14,2-.94.26-1.68-.81-1.92-1.87-.27-2.07-1-.39-1-.17-1.18a2.29,2.29,0,0,1,1.41-.37,6.38,6.38,0,0,0,2-.25c.25-.18.3-.69.61-.91a6.52,6.52,0,0,1,1.53-.4,19.83,19.83,0,0,1,2.8,1.71,15.35,15.35,0,0,1,2.3,2.23" style="fill:#ed72aa;stroke:#000;stroke-width:0.38999998569488525px"/><path d="M269,243.39a2.36,2.36,0,0,0-1.1.67,1.87,1.87,0,0,0-.34,1.07,1.88,1.88,0,0,1,1.56-.33c.87.24,1,.33,1.33.3a8,8,0,0,0,1.27-.35s-.74.86-.65,1.45a7.51,7.51,0,0,1,.17,1.15,4.62,4.62,0,0,1-.6,1.61,3.7,3.7,0,0,1,1-.35,4.6,4.6,0,0,0,1.75-.81,5.73,5.73,0,0,0,.9-1,4,4,0,0,0,0,1.42,8.4,8.4,0,0,1,.23,1.67,5.39,5.39,0,0,1,.85-.62,2.72,2.72,0,0,0,.9-.7,5.65,5.65,0,0,0,.32-1.06,4.16,4.16,0,0,0,.39,1.34,11,11,0,0,1,.7,1.74,4.69,4.69,0,0,1,.6-1.21,2.73,2.73,0,0,0,.7-1.07,4.18,4.18,0,0,0-.08-.85l.39.85m-11.41.61a3.85,3.85,0,0,1,.93-1.1c.46-.26,1.08-.74,1.25-.8s.9-.46.9-.46m1,5.17s1.09-.55,1.41-.75a4.14,4.14,0,0,0,1.16-1.12" style="fill:none;stroke:#000;stroke-width:0.38999998569488525px"/><path d="M282.57,240.9a7.71,7.71,0,0,1-.42-.65c-.09-.15-.23-.48-.23-.48" style="fill:none;stroke:#000;stroke-width:0.25999999046325684px"/><path d="M278.33,257.41s2,1.26,2,2.31a5.73,5.73,0,0,1-1.13,2.41" style="fill:none;stroke:#000;stroke-width:0.38999998569488525px"/><path d="M273,236.24s-.17-.48-.2-.62a1.35,1.35,0,0,0-.12-.29s.88,0,.85.27-.28.27-.34.37a1.51,1.51,0,0,1-.19.27Z" style="stroke:#000;stroke-width:0.25999999046325684px"/><path d="M277.06,234.85l-.06-.43a2.45,2.45,0,0,1,1.13.26,2.8,2.8,0,0,1,.91,1.05c-.1.09-.54-.27-.85-.37a2.45,2.45,0,0,1-.45.05c-.23,0-.34-.11-.37-.21a.67.67,0,0,1,0-.3Z" style="stroke:#000;stroke-width:0.05000000074505806px"/><path d="M273.08,240.14l.33-.53.34.49-.67,0" style="stroke:#000;stroke-width:0.25999999046325684px"/><path d="M273.89,240.12l.4-.53.43.48-.83.05" style="stroke:#000;stroke-width:0.25999999046325684px"/><path d="M273.53,236.83l.82.29-.74.38-.08-.67" style="stroke:#000;stroke-width:0.25999999046325684px"/><path d="M274.52,237.1l.73.18-.59.46-.14-.64" style="stroke:#000;stroke-width:0.25999999046325684px"/><path d="M261.88,236.08a2.64,2.64,0,0,0,.85.4,6.66,6.66,0,0,0,.82.05,1.7,1.7,0,0,0,.11-.91,1.84,1.84,0,0,0-1.3-1.47s.33.73.17,1.07a3.2,3.2,0,0,1-.65.86Z" style="fill:#db4446;stroke:#000;stroke-width:0.38999998569488525px"/><path d="M259.59,237.12a1.4,1.4,0,0,0-1.33-.67,2.61,2.61,0,0,0-1.5.81,3.88,3.88,0,0,1,1.25.13,1.48,1.48,0,0,1,.48.86,3.5,3.5,0,0,0,.71-.54c.16-.21.39-.59.39-.59Z" style="fill:#db4446;stroke:#000;stroke-width:0.38999998569488525px"/><path d="M258.49,240.25a1.67,1.67,0,0,0-1.55,2,1.71,1.71,0,0,1,1-.54,6.67,6.67,0,0,1,1.16.16,3.46,3.46,0,0,1-.22-.8,2.69,2.69,0,0,0-.34-.81Z" style="fill:#db4446;stroke:#000;stroke-width:0.38999998569488525px"/><path d="M261.06,250.37a1.32,1.32,0,0,0-1.16-.32,2.15,2.15,0,0,0-1.22,1,2.63,2.63,0,0,1,1-.08,1.22,1.22,0,0,1,.62.45,3.63,3.63,0,0,0,.45-.45c.11-.16.31-.57.31-.57Z" style="fill:#db4446;stroke:#000;stroke-width:0.38999998569488525px"/><path d="M260.21,253.34a1.61,1.61,0,0,0-1.16.33,1.88,1.88,0,0,0-.56,1.25,1.49,1.49,0,0,1,.91-.37,3.68,3.68,0,0,1,.87.27s.08-.51.11-.64a1.39,1.39,0,0,0-.17-.84Z" style="fill:#db4446;stroke:#000;stroke-width:0.38999998569488525px"/><path d="M261.66,256.08a2.18,2.18,0,0,0,.33,1.28,1.85,1.85,0,0,0,1.13.59,4.4,4.4,0,0,1-.28-.8,1,1,0,0,1,.34-.75,1.28,1.28,0,0,0-.73-.38,6.56,6.56,0,0,0-.79.06Z" style="fill:#db4446;stroke:#000;stroke-width:0.38999998569488525px"/><path d="M269,263.12a1.7,1.7,0,0,0-1.21-.62,2.87,2.87,0,0,0-1.45.69s.88-.07,1.11.22a8,8,0,0,1,.45.67,4.63,4.63,0,0,0,.57-.35,4.87,4.87,0,0,0,.53-.61Z" style="fill:#db4446;stroke:#000;stroke-width:0.38999998569488525px"/><path d="M266.83,265.93a1.8,1.8,0,0,0-1.39.35,2.18,2.18,0,0,0-.42,1.36s.56-.61,1.07-.56a3.89,3.89,0,0,1,1.08.32s-.09-.53-.15-.78-.19-.69-.19-.69Z" style="fill:#db4446;stroke:#000;stroke-width:0.38999998569488525px"/><path d="M268.84,268.9s-.46.64-.12,1.15a2.32,2.32,0,0,0,1,.75,1,1,0,0,1-.14-.8c.09-.34.67-.8.67-.8l-1.46-.3Z" style="fill:#db4446;stroke:#000;stroke-width:0.38999998569488525px"/><path d="M281.24,270.11a2.12,2.12,0,0,0-1.27.08c-.45.26-.82,1.39-.82,1.39s.74-.62,1.28-.54a3.09,3.09,0,0,1,.93.3,2.71,2.71,0,0,0,0-.78,2.42,2.42,0,0,0-.14-.45Z" style="fill:#db4446;stroke:#000;stroke-width:0.38999998569488525px"/><path d="M281.64,273.1s-.62.64-.4,1.18a7.24,7.24,0,0,0,.62,1.1s0-.8.23-1a2.13,2.13,0,0,1,1-.37,4.72,4.72,0,0,0-.71-.54C282.26,273.4,281.64,273.1,281.64,273.1Z" style="fill:#db4446;stroke:#000;stroke-width:0.38999998569488525px"/><path d="M284.75,274a1.18,1.18,0,0,0,.28,1.28,2.18,2.18,0,0,0,1.11.57s-.46-.81-.32-1.23a1.58,1.58,0,0,1,.54-.72,4.52,4.52,0,0,0-.85-.22c-.11,0-.76.32-.76.32Z" style="fill:#db4446;stroke:#000;stroke-width:0.38999998569488525px"/><path d="M282.88,232.71l-.29,0a1.49,1.49,0,0,1-.26.35.63.63,0,0,1-.86.07.49.49,0,0,1-.14-.41.49.49,0,0,1-.51,0,.55.55,0,0,1-.14-.79.54.54,0,0,1,.11-.18l0-.32-.35.08-.1.19a.53.53,0,0,1-.7.17.53.53,0,0,1-.13-.27.37.37,0,0,1-.17.11c-.54.13-.75-1.05-.77-1.35l-.17.25a4.31,4.31,0,0,1,.08,1.3,7,7,0,0,1-.29,1.19,9.57,9.57,0,0,1,3,1.65,9.47,9.47,0,0,1,2.34,2.42,7.52,7.52,0,0,1,1.18-.51,5.56,5.56,0,0,1,1.36-.2l.22-.21c-.32.05-1.58.1-1.56-.43a.3.3,0,0,1,.08-.18.7.7,0,0,1-.3-.06c-.18-.13-.18-.43,0-.69l.18-.13v-.34l-.34.05s-.11.09-.15.13a.63.63,0,0,1-.86,0,.42.42,0,0,1-.11-.46.58.58,0,0,1-.45-.05.55.55,0,0,1-.11-.8A1.33,1.33,0,0,1,283,233l-.07-.3h0Z" style="fill:#c8b100;stroke:#000;stroke-width:0.25999999046325684px"/><path d="M280.63,233.4c0-.07.15-.06.23,0a.16.16,0,0,1,.06.21.17.17,0,0,1-.24,0c-.07-.05-.1-.15,0-.2Z" style="stroke:#000;stroke-width:0.05000000074505806px"/><path d="M281.58,234.19l-.33-.25a.12.12,0,0,1,0-.16.15.15,0,0,1,.18,0l.33.26.33.25s.08.12,0,.16a.15.15,0,0,1-.18,0l-.33-.26" style="stroke:#000;stroke-width:0.05000000074505806px"/><path d="M279.84,233l-.26-.15a.13.13,0,0,1-.07-.17.12.12,0,0,1,.17,0l.26.16.26.15a.14.14,0,0,1,.07.16.12.12,0,0,1-.17,0l-.26-.15" style="stroke:#000;stroke-width:0.05000000074505806px"/><path d="M278.8,232.29a.18.18,0,0,1,.24,0c.08.07.1.16,0,.22a.18.18,0,0,1-.23,0,.16.16,0,0,1-.06-.21Z" style="stroke:#000;stroke-width:0.05000000074505806px"/><path d="M282.63,234.92c0-.05,0-.14,0-.21a.18.18,0,0,0-.24,0,.16.16,0,0,0,.06.21.17.17,0,0,0,.23,0Z" style="stroke:#000;stroke-width:0.05000000074505806px"/><path d="M283.2,235.58l.22.21a.14.14,0,0,0,.18,0,.11.11,0,0,0,0-.16l-.21-.21-.22-.21c0-.05-.14-.07-.18,0s0,.11,0,.16l.21.21" style="stroke:#000;stroke-width:0.05000000074505806px"/><path d="M284.15,236.39a.15.15,0,0,0,0-.21.16.16,0,0,0-.23,0c-.05.06,0,.15,0,.22A.18.18,0,0,0,284.15,236.39Z" style="stroke:#000;stroke-width:0.05000000074505806px"/><path d="M281.4,230.36h-.59l-.11.87.06.14h.15l.76-.51-.27-.5" style="fill:#c8b100;stroke:#000;stroke-width:0.25999999046325684px"/><path d="M281.4,230.36h-.59l-.11.87.06.14h.15l.76-.51-.27-.5" style="fill:#c8b100;stroke:#000;stroke-width:0.25999999046325684px"/><path d="M279.8,230.84l0,.54.92.12.15-.07,0-.15-.53-.71-.5.27" style="fill:#c8b100;stroke:#000;stroke-width:0.25999999046325684px"/><path d="M281.7,231.92l-.49.27-.54-.71v-.15l.14-.06.93.11,0,.54" style="fill:#c8b100;stroke:#000;stroke-width:0.25999999046325684px"/><path d="M280.51,231.25a.29.29,0,0,1,.39-.09.26.26,0,0,1,.1.37.29.29,0,0,1-.39.09A.26.26,0,0,1,280.51,231.25Z" style="fill:#c8b100;stroke:#000;stroke-width:0.25999999046325684px"/><path d="M278.36,230.35s-.13-.46-.26-.71a1.55,1.55,0,0,0-.39-.43.83.83,0,0,1,.87.09c.38.31,0,.87,0,.87a.54.54,0,0,1-.19.18Z" style="fill:#c8b100;stroke:#000;stroke-width:0.25999999046325684px"/><path d="M279.39,230.66,279,231l-.68-.6.06-.08,0-.15.92-.07.09.53" style="fill:#c8b100;stroke:#000;stroke-width:0.25999999046325684px"/><path d="M278.24,230.29a.25.25,0,0,1,.28-.2c.11,0,.15.18.1.33a.26.26,0,0,1-.29.2C278.22,230.58,278.18,230.44,278.24,230.29Z" style="fill:#c8b100;stroke:#000;stroke-width:0.25999999046325684px"/><path d="M283.67,231.77l-.59-.06-.25.85,0,.14H283l.83-.41-.19-.53" style="fill:#c8b100;stroke:#000;stroke-width:0.25999999046325684px"/><path d="M282,232l-.1.54.9.23.15,0v-.14l-.43-.79-.53.2" style="fill:#c8b100;stroke:#000;stroke-width:0.25999999046325684px"/><path d="M283.73,233.36l-.53.2-.42-.78v-.15l.15,0,.89.23-.1.53" style="fill:#c8b100;stroke:#000;stroke-width:0.25999999046325684px"/><path d="M282.65,232.54a.29.29,0,0,1,.4,0,.25.25,0,0,1,0,.38.31.31,0,0,1-.41,0,.26.26,0,0,1,0-.38Z" style="fill:#c8b100;stroke:#000;stroke-width:0.25999999046325684px"/><path d="M285.64,233.61l.11.55-.87.3-.16,0v-.14l.36-.81.57.14" style="fill:#c8b100;stroke:#000;stroke-width:0.25999999046325684px"/><path d="M285.49,235.2l-.56.13-.31-.83,0-.15.15,0,.85.35-.17.52" style="fill:#c8b100;stroke:#000;stroke-width:0.25999999046325684px"/><path d="M284,233.66l-.18.52.85.34.16,0,0-.14-.3-.83-.56.13" style="fill:#c8b100;stroke:#000;stroke-width:0.25999999046325684px"/><path d="M284.91,234.63a.27.27,0,0,0,0-.39.32.32,0,0,0-.41,0,.27.27,0,0,0,0,.39.29.29,0,0,0,.4,0Z" style="fill:#c8b100;stroke:#000;stroke-width:0.25999999046325684px"/><path d="M286.29,236.43s.5,0,.79.09a1.9,1.9,0,0,1,.52.27c.06,0,.12-.42-.28-.79s-.88.22-.88.22a.75.75,0,0,0-.15.21Z" style="fill:#c8b100;stroke:#000;stroke-width:0.25999999046325684px"/><path d="M285.75,235.54l-.29.46.76.51.09-.08.13,0-.12-.88-.57,0" style="fill:#c8b100;stroke:#000;stroke-width:0.25999999046325684px"/><path d="M286.37,236.53c.14-.07.21-.22.15-.31a.28.28,0,0,0-.36,0c-.14.08-.2.22-.14.31S286.23,236.61,286.37,236.53Z" style="fill:#c8b100;stroke:#000;stroke-width:0.25999999046325684px"/><ellipse cx="250.43" cy="281.01" rx="16.26" ry="18.3" style="fill:#ad1519;stroke:#000;stroke-width:0.6100000143051147px"/><ellipse cx="250.44" cy="280.97" rx="11.44" ry="13.42" style="fill:#005bbf;stroke:#000;stroke-width:0.6100000143051147px"/><path d="M245,271.74a5.3,5.3,0,0,0-1.35,2.86,6.37,6.37,0,0,0,.57,2.54,1.49,1.49,0,0,0-1.41-.94,1.46,1.46,0,0,0-1.5,1.42,2.1,2.1,0,0,0,.24.77l.49,1a1,1,0,0,1,1-.57,1,1,0,0,1,1.08,1,.69.69,0,0,1,0,.25h-1.22v1H244l-.81,1.61,1.07-.42.81.91.84-.91,1.07.42-.8-1.61h1.08v-1H246a1,1,0,0,1,0-.25,1,1,0,0,1,1.06-1,1,1,0,0,1,1,.57l.49-1a2.1,2.1,0,0,0,.24-.77,1.45,1.45,0,0,0-1.49-1.42,1.48,1.48,0,0,0-1.41.94,6.37,6.37,0,0,0,.57-2.54,5.24,5.24,0,0,0-1.39-2.86Z" style="fill:#c8b100;stroke:#000;stroke-linejoin:round;stroke-width:0.3400000035762787px"/><path d="M242.87,281.11h4.36v-1h-4.36Z" style="fill:#c8b100;stroke:#000;stroke-width:0.3400000035762787px"/><path d="M255.66,271.74a5.3,5.3,0,0,0-1.35,2.86,6.37,6.37,0,0,0,.57,2.54,1.49,1.49,0,0,0-1.41-.94,1.46,1.46,0,0,0-1.5,1.42,2.1,2.1,0,0,0,.24.77l.49,1a1,1,0,0,1,1-.57,1,1,0,0,1,1.08,1,.69.69,0,0,1,0,.25H253.5v1h1.09l-.81,1.61,1.07-.42.81.91.84-.91,1.07.42-.8-1.61h1.08v-1h-1.22a1,1,0,0,1,0-.25,1,1,0,0,1,1.06-1,1,1,0,0,1,1,.57l.49-1a2.1,2.1,0,0,0,.24-.77,1.45,1.45,0,0,0-1.49-1.42,1.48,1.48,0,0,0-1.41.94,6.37,6.37,0,0,0,.57-2.54,5.24,5.24,0,0,0-1.39-2.86Z" style="fill:#c8b100;stroke:#000;stroke-linejoin:round;stroke-width:0.3400000035762787px"/><path d="M253.5,281.11h4.36v-1H253.5Z" style="fill:#c8b100;stroke:#000;stroke-width:0.3400000035762787px"/><path d="M250.34,280.88a5.3,5.3,0,0,0-1.35,2.86,6.37,6.37,0,0,0,.57,2.54,1.49,1.49,0,0,0-1.41-.94,1.46,1.46,0,0,0-1.5,1.42,2.1,2.1,0,0,0,.24.77l.49,1a1,1,0,0,1,1-.57,1,1,0,0,1,1.08,1,.69.69,0,0,1,0,.25h-1.22v1h1.09l-.81,1.61,1.07-.42.81.91.84-.91,1.07.42-.8-1.61h1.08v-1h-1.22a1,1,0,0,1,0-.25,1,1,0,0,1,1.06-1,1,1,0,0,1,1,.57l.49-1a2.1,2.1,0,0,0,.24-.77,1.45,1.45,0,0,0-1.49-1.42,1.48,1.48,0,0,0-1.41.94,6.37,6.37,0,0,0,.57-2.54,5.24,5.24,0,0,0-1.39-2.86Z" style="fill:#c8b100;stroke:#000;stroke-linejoin:round;stroke-width:0.3400000035762787px"/><path d="M248.18,290.25h4.36v-1h-4.36Z" style="fill:#c8b100;stroke:#000;stroke-width:0.3400000035762787px"/></svg>