<svg xmlns="http://www.w3.org/2000/svg" viewBox="0 0 1200 600"><title>Sri_Lanka</title><path d="M0,0H1200V600H0Z" style="fill:#ffbe29"/><path d="M56,56H368V544H56Z" style="fill:#eb7400"/><path d="M56,56H212V544H56Z" style="fill:#00534e"/><path d="M424,56h720V544H424Z" style="fill:#8d153a"/><path d="M502.26,449.22s-6.62,13.82-13.93,19.45c-10.84,8.34-33.06,7.74-42.49,17.47-11.3,11.47.88,26.64.78,28l-.62,8s7.62.09,10.83.61c4.82.77,6.71,4.79,15.69,4.2,22.58-1.5,21.67-22.36,22.95-40.18,1.13-6.79,3.76-15.63,5.25-22.42a103.67,103.67,0,0,0,1.55-15.08Z" style="fill:#ffbe29;stroke:#000;stroke-width:2.0959999561309814px"/><path d="M671,482.46l4.55-2.56,1.95,2.57c2.59,3.42,9.77,3.38,14.53-.08l3.64-2.65,3,2.65c4,3.48,11.49,3.48,16.27,0,3.35-2.43,3.81-2.48,6-.63,1.32,1.1,5.19,2.36,8.6,2.79,6.14.78,6.23.73,9.82-4.52,3-4.4,3.48-6.19,2.76-10.46-.48-2.83-1-7.39-1.14-10.13-.27-5-.24-5,7.16-7.5a101.19,101.19,0,0,0,10.51-4.14c3-1.55,11.11-10.89,11.11-12.74,0-.49-3.18-1.24-7.08-1.66-15.48-1.69-18.1-9.8-8-24.87C771.14,384,781,360.06,781.11,344.82c0-6.81.43-9.1,1.32-7.62,3.67,6.05-2.9,31.44-12.85,49.67l-4,7.34,3.82-.86c2.1-.47,14.46-5.56,27.47-11.31,35.6-15.73,47.83-18.81,70.87-17.87,19.3.79,27.52,4.47,41.15,18.42,7.22,7.39,14.17,12.68,26.9,20.44,27.11,16.55,28.24,18,29.52,37.46,1.31,19.73.66,20.8-14.63,24.09-13.07,2.82-21.26,8.76-23.46,17-1.17,4.41,1.3,4.54,7.89.41l4.83-3,2.15,3c2.82,4,8.82,4,13.81,0l3.76-3,3.85,3c6,4.65,13.93,3.52,16.17-2.29.43-1.12,1.58-.76,3.91,1.22,4.37,3.7,15.56,5.29,16.77,2.38.46-1.11-.42-3.86-1.95-6.1-6.51-9.53-8.55-14.07-8.64-19.26-.12-7.22,2.09-10.7,10.5-16.56,10.22-7.13,13.37-16.32,5.6-16.32-4.8,0-9.63-4.14-12.72-10.88-6.27-13.71-5-29.07,4.37-54.63,9.56-26,10.62-30.75,10.66-48.11,0-14-.33-16.47-3.61-24.17a86.16,86.16,0,0,0-9-15.57l-5.39-7,6.92-5.59c21.11-17.07,16.8-45-8.62-55.76-7.78-3.29-9.72-3.58-23.35-3.49a203.7,203.7,0,0,0-27.7,2.33,196.93,196.93,0,0,1-27.74,2.29c-13.28.05-15.53-.27-20.65-2.92-5.34-2.77-6.25-4.09-7.3-10.49a3.82,3.82,0,0,0-2.1-2.92c-1.81-.56-10.2,6.54-11.44,9.68-.61,1.55-1.11,1.44-2.9-.62a25.35,25.35,0,0,1-3.69-7c-2.11-6.25.48-10.93,8-14.44l5.84-2.72L872,171c-7.1-4.3-19.19-1.36-23.55,5.74-1.24,2-2.58,3.65-3,3.66s-2.76-1.91-5.22-4.26c-9.17-8.75-6-21.68,6.25-25.63,6.54-2.11,12.33-.5,13.54,3.76,1.84,6.5,7.56-2,6.53-9.76-.68-5.13-.58-5.31,3.06-5.31,5.06,0,15.83,6.48,19.16,11.52,3.87,5.86,3.59,15.09-.67,22l-3.34,5.4,4.37-.85c6.41-1.25,12.64-5.14,15.79-9.85,3.33-5,3.69-14.68.74-19.91-2.86-5.07-2.53-5.88,1.7-4.16,7.2,2.91,11,6.13,13.93,11.64,2.6,5,2.74,6.19,1.34,11.36a32.24,32.24,0,0,1-4.29,9.31c-2.32,3-2.4,3.52-.55,3.52,3.45,0,10.65-3.18,13.21-5.84a26,26,0,0,0,4.19-7.34L937,161l2.11,3.74c3,5.29,8.79,10,15.87,13,7.61,3.18,10.78,3.36,6.8.38-2.68-2-7.63-16.17-6.13-17.55.88-.81,11.21,6.94,23,17.28,11.16,9.78,18.17,13,28.42,13,13.09,0,20.72-11.12,14.83-21.64-3.43-6.13-11.08-7-15.54-1.73-2.06,2.41-2.62,4.34-2,6.87.74,3.1.45,3.52-2.45,3.52-3.81,0-11.31-4.75-24.63-15.6-20.32-16.54-45-30.57-62.84-35.69-11.44-3.29-35.88-4.57-47.51-2.49-12.59,2.25-27.48,9.28-35.59,16.8-14.37,13.33-14.6,31.07-.61,47.23l4,4.63L832,196.86a17.44,17.44,0,0,0,.84,20c2,2.61,3.94,4.75,4.39,4.75s1-1.68,1.11-3.73c.39-5.19,2.68-8.67,6.59-10,3.53-1.24,5.81-.65,22,5.64,17,6.62,45,7.07,74.68,1.22,14.57-2.87,31.75-2.7,39.31.39,13.86,5.66,17.07,20.4,6.88,31.59-4.41,4.84-8.66,6.81-22.94,10.64-10.87,2.91-13.44,3.1-38.13,2.86-21.1-.21-28.68.19-37.29,1.94-9.35,1.9-15.1,2.1-42.57,1.42l-31.76-.78,3.52,2.85a55.39,55.39,0,0,0,6.08,4.28c2.4,1.34,2.32,1.52-1.24,2.81A37.94,37.94,0,0,1,813.15,274h-6.52l-.88,5.4c-.48,3-.45,6.44.08,7.71.78,1.87.49,2.14-1.53,1.42-1.37-.49-5.19-1.44-8.48-2.12a53.08,53.08,0,0,1-9.85-3.09c-3.57-1.71-4-1.66-5.29.61-1.18,2-12.21,10-13.83,10-.26,0-.6-1.55-.75-3.43s-1.74-6.81-3.54-10.93-3.67-8.62-4.17-10c-.75-2.07-1.09-2.18-2-.62a26.38,26.38,0,0,0-1.94,6.24,29.22,29.22,0,0,1-3.7,8.68l-2.84,4.31-1.81-3.68c-1.95-4-5.18-8.05-6.35-8.05-.39,0-1.07,1.26-1.49,2.81-.89,3.23-8.55,12.17-10.43,12.17-.69,0-1.25-2.53-1.25-5.62s-.61-5.62-1.35-5.62A1.61,1.61,0,0,0,723.9,282c0,2.38-6.54,9.46-8.74,9.46a5.65,5.65,0,0,0-3.42,1.87c-2.41,2.69-4.39,2.31-3.37-.64.48-1.38.17-4.62-.69-7.18l-2-6.07c-.32-1-2.67-.71-7.63.84-8,2.51-10.71,2.06-6.58-1.09,1.51-1.15,3.8-5.14,5.1-8.87s3.21-7,4.25-7.35c1.46-.44,1.38.1-.34,2.37a10.86,10.86,0,0,0-2.24,4.85,15.69,15.69,0,0,1-2.05,5.53c-1.12,2-1.83,3.82-1.57,4.06s3.31-.89,6.78-2.51l6.31-3,0,2.64a45.59,45.59,0,0,0,1.69,8.51l1.66,5.87,4.29-1.93c4.39-2,8.54-9,8.54-14.42,0-2.69,1.58-2.28,2.22.58.19.84,1.18,4,2.2,7l1.86,5.47,2.94-3.45a29.06,29.06,0,0,0,4.5-8.28c1.49-4.61,3.84-6.59,3.84-3.24,0,2.41,6.74,11.06,8,10.32.63-.36,1.88-3.6,2.78-7.21,1.87-7.5,4.9-12.61,6.82-11.51a1.29,1.29,0,0,1,.63,1.78c-.38.57,1.17,5.44,3.45,10.84s4.56,10.83,5.08,12.07c.83,2,1.58,1.71,6.46-2.5,3-2.62,5.79-5.55,6.13-6.51.5-1.46,1.18-1.4,4,.32,4,2.41,17.33,6.28,18.36,5.33.39-.36.78-3.78.88-7.61l.18-7,3.84.78a36.76,36.76,0,0,0,9.87-.06l6-.84-5.37-3.6c-3-2-5.94-4.54-6.64-5.69s-3.37-2.27-6.35-2.51c-8.05-.67-22.32-8.48-22.32-12.21,0-.7,2,.49,4.39,2.65,5.36,4.79,12.8,7.8,19.3,7.8h4.87l-3-3.91a22.31,22.31,0,0,1-3.64-10c-.58-5.58-1.18-6.47-7.16-10.52a68.37,68.37,0,0,1-9.87-8.1l-3.35-3.68-1.71,4.37c-.94,2.4-2.09,4.37-2.55,4.37s-2.27-1.4-4-3.12-3.52-3.12-4-3.11-2,2.32-3.44,5.14l-2.66,5.12-2.05-3a45.49,45.49,0,0,0-5.93-6.39c-2.13-1.89-3.25-3.43-2.49-3.43s3.39,2,5.85,4.37l4.46,4.37,1.82-3.2a11.15,11.15,0,0,0,1-7.18c-.71-3.44-.61-3.64.74-1.48a31.4,31.4,0,0,0,5.8,5.85l4.24,3.35,2.92-5.23c2.91-5.2,2.93-5.21,4.26-2.11,1.77,4.15,14.59,14.41,25.5,20.4q2.52,1.38-2.13-9.55a23.66,23.66,0,0,1-1.5-7.75c0-3.45-1-5-5.54-8.35-6.53-4.85-8.64-8.3-9.88-16.12-.5-3.17-1.64-6.69-2.54-7.83-1.33-1.69-1.55-.74-1.2,5.14.24,4-.29,8.89-1.17,11L787.09,211l-1.25-3.12c-.69-1.72-3.72-4.7-6.73-6.64S774,197.36,774.4,197s3.53,1.36,6.9,3.91c5.13,3.88,6.26,4.3,7,2.59.83-2,0-10.75-1.61-16.86-.8-3.05-.73-3,3.12.73,2.85,2.78,4.42,6.09,5.64,11.86,1.55,7.34,2.33,8.56,9.28,14.52,4.18,3.58,7.81,6.3,8.08,6.06s.79-9.5,1.17-20.57c.73-21.22-.09-26.27-5.33-32.83L805.93,163l4.23-4.45c5.52-5.81,8.05-10.46,9.15-16.82l.89-5.17L815.43,141c-3.91,3.61-5.78,4.41-10.3,4.41s-6.24-.73-9.26-3.87c-3.63-3.77-10-7.4-16.23-9.16-2.28-.65-3-.37-3,1.14,0,1.1-1.26,4.29-2.8,7.08l-2.8,5.07L765.13,140c-3.6-3.47-7.87-6.17-11.05-7-8.12-2.08-8.56-1.88-8.56,4,0,9-3.92,10.62-11,4.67-5.38-4.54-9.83-5.52-20-4.43l-7.87.84,1.42,3.47c1.18,2.9.92,4.12-1.62,7.41-4.11,5.34-9.46,7.65-17.69,7.65-3.79,0-8.53.77-10.54,1.7s-7,2-11.08,2.39a60.12,60.12,0,0,0-9.68,1.51c-1.94.71-2.15.12-1.53-4.17,1-6.58-3.75-11.43-11.09-11.43-9.52,0-13.91,8.31-10.18,19.27.72,2.11,1.66,5.44,2.09,7.39s4.73,7.41,10,12.54c5.06,4.94,9.85,10.08,10.63,11.43s3.38,3.5,5.77,4.79l4.34,2.35-.57-4.53c-.63-5,.48-5.76,3.2-2.25a23.78,23.78,0,0,0,5.48,4.51c3.22,1.93,3.72,2,3.72.29a19,19,0,0,1,1.46-5.45l1.46-3.52,2.53,4.78c1.39,2.63,5.92,8.61,10.06,13.29,8,9.07,12.93,19.21,10.4,21.55-1,.95-3.79.87-9.54-.25-4.45-.87-10-1.33-12.23-1-4.65.63-5,0-2.16-3.45,3-3.69,2.54-4.3-3.39-4.3-6.86,0-23.9-3.21-30.44-5.73-6.36-2.46-7.83-1.84-9.7,4-.84,2.65-2.38,7.45-3.43,10.66l-1.9,5.85,6.88-.65a73.68,73.68,0,0,0,10.82-1.8c2.16-.63,4.13-1,4.37-.75s-.72,2.51-2.14,5.08l-2.58,4.68,4.29-.85A41,41,0,0,0,662,242c3.44-1.63,3.72-1.51,6.44,2.75,3.34,5.23,6,5,6.6-.53.61-5.73,2.55-4.89,6.18,2.71,3.5,7.31,7.14,9.89,7.84,5.56.23-1.44,2.12-3.78,4.19-5.2,4.19-2.88,7.34-2,9.15,2.51,1.87,4.68-2.3,9.5-14.46,16.69q-36.51,21.6-42.53,59.18c-3.64,22.64,7.74,46,30.57,62.83,10.92,8,28.28,16.53,27.18,13.29-4.68-13.75-4.53-40,.26-44.41.72-.66.47,2.07-.55,6.08-3.8,14.94-2.15,26.84,7.6,54.74,8.82,25.23,7.6,36-4.88,43.14-4,2.29-6.59,2.67-17.37,2.54-11.69-.14-13,.09-16.72,3s-8.36,12.12-8.36,16.46c0,2.35,2.67,2,7.93-.92Z" style="fill:#ffbe29;stroke:#000;stroke-width:5.559999942779541px"/><path d="M860.85,482l4.91-3.08,3.33,3.08c4.36,4,9.47,3.94,13.66-.24,1.83-1.82,3.47-3.09,3.65-2.81s1,1.63,1.81,3c1,1.74,3.17,2.61,7,2.88,4.64.32,5.88-.12,7.72-2.72l2.2-3.1,4.83,3c13.22,8.29,20.27-.41,14.36-17.73-3-8.81-1.35-13.76,8.33-25,4.08-4.73,7.43-9.77,7.43-11.21,0-2.29-.76-2.6-6.19-2.5-5.2.1-6.72-.44-9.46-3.38-4.45-4.78-4.19-10.26.79-16.34l4-4.85-7.05-4.67a116.44,116.44,0,0,1-15.55-13.51c-10.49-10.91-20.81-16.09-34.41-17.26l-9.12-.79v6.74c0,8.67,4.19,17,15.57,31.14,12.95,16.07,13.85,18.55,14.37,39.55l.44,17.76-3.75,3.47c-3.38,3.13-4.91,3.53-15.83,4.15-10.4.59-12.58,1.11-15.63,3.75-4.05,3.5-5.26,5.41-6.52,10.25-.73,2.82-.43,3.43,1.65,3.43,1.4,0,4.75-1.38,7.45-3.08Z" style="fill:#ffbe29;stroke:#000;stroke-width:5.559999942779541px"/><path d="M584.72,430.58c0-2.25,1-2.84,6.09-3.55l6.09-.84L592.83,423c-4.82-3.75-5.27-6.68-1-6.68s11.4-4.29,12.49-7.46a4.89,4.89,0,0,0-.72-4.46c-2.37-2.64-6.83-2.24-7.66.68-.89,3.15-2.38,3.16-5.76,0-5.09-4.7-5.2-14.43-.24-20.09,2.34-2.67,2.32-2.84-.66-5.6-3.21-3-5.5-8.83-4-10.23.48-.44,3-.09,5.63.79,3.72,1.24,5.19,1.26,6.72.09,4.64-3.56-.39-8.14-7.83-7.13-3,.41-4.23,0-4.67-1.52-.33-1.15-2.95-2.65-5.9-3.38-5.28-1.3-5.31-1.29-5.31,2.26,0,3.89-2.27,4.62-6.6,2.13-3.51-2-6.92-.45-6.92,3.2,0,3.4,3.51,5.08,9.8,4.69,4.82-.3,5,3.2.42,8.23l-3.29,3.62,2.61,3.66c3.86,5.42,3.54,14.42-.68,18.88l-3.31,3.5-2.17-2.81c-3-3.9-7.15-3.64-8.28.52-.74,2.73-.13,4,3.37,6.87,2.35,1.94,5.79,3.53,7.64,3.53,4.57,0,4.39,3.51-.36,7l-3.72,2.77,5.74.87c3.16.48,5.74,1.38,5.74,2,0,2.38,1.49,9.61,5.26,9.79,3.37.16,5.47-4.84,5.55-8.25Z" style="fill:#ffbe29;stroke:#000;stroke-width:5.559999942779541px"/><path d="M657.39,404.43c5.22-2,16.51-11.34,16.51-13.64,0-.72-3.12-4.07-6.93-7.43-8-7.08-16.74-19-19-26-1.18-3.63-6.87-9.85-22.91-25l-21.34-20.19-6.15,1.52a55.42,55.42,0,0,1-9.17,1.56c-2.86,0-2.81.2,1,3.08l4,3,5.63-3c5.46-3,5.65-3,6.33-.6.39,1.39-.46,3.81-2,5.58s-2.3,3.67-1.85,4.33-1,2.05-3.12,3.09c-4,1.91-6.79,8.22-3.63,8.22,2.84,0,9.12-7.55,8.39-10.11-.37-1.31-.19-2.65.4-3,2.44-1.4,2.29,4.53-.19,7.45-1.46,1.72-2.3,3.67-1.85,4.33s-1,2.05-3.12,3.09c-4,1.9-6.79,8.22-3.66,8.22s9.24-7.22,8.48-9.92c-.4-1.41-.24-2.84.34-3.18,1.65-.94,2.53,3.74,1.14,6a4.27,4.27,0,0,0,0,4.24c1.37,2.41,0,7-2.54,8.47-1.08.62-.35,1.83,2.27,3.76,3.79,2.79,3.86,3.09,3.86,15.41,0,10.3.43,13,2.36,14.75,2.18,2,2.36,2,2.36.09,0-2.11,3.79-4.68,6.89-4.68.91,0,6.63,4.72,12.7,10.5s12.49,10.75,14.3,11.07l4.33.74c.58.09,3.32-.7,6.08-1.76Z" style="fill:#ffbe29;stroke:#000;stroke-width:5.559999942779541px"/><path d="M592.15,354.62c0-3.32-7-6.86-15.41-7.78-6.78-.74-6.89-.7-6.89,2.6,0,2.73,1.07,3.81,5.74,5.8,7.52,3.19,16.55,2.85,16.55-.62Z" style="fill:#ffbe29;stroke:#000;stroke-width:5.559999942779541px"/><path d="M599.84,354.31c3.42-3,5-6.63,3-6.63-2.37,0-8.65,5.5-8.65,7.58,0,3.24,1.17,3,5.67-.94Z" style="fill:#ffbe29;stroke:#000;stroke-width:5.559999942779541px"/><path d="M592.55,344.5c.29-1.87-.9-3.12-4.46-4.69-7.68-3.38-16.85-4.95-19.06-3.25-4.07,3.12-1.36,7.31,5.22,8.07a40.9,40.9,0,0,1,8,1.75C587.29,348.29,592.1,347.42,592.55,344.5Z" style="fill:#ffbe29;stroke:#000;stroke-width:5.559999942779541px"/><path d="M592.55,334.47c.41-2.67-1.34-3.63-15.63-8.54-10.67-3.66-15.39-1.94-12,4.38,1.19,2.2,3.18,3.21,7.65,3.86a86.21,86.21,0,0,1,10.1,2.11c6,1.8,9.4,1.17,9.86-1.82Z" style="fill:#ffbe29;stroke:#000;stroke-width:5.559999942779541px"/><path d="M599.71,325.07c2.16-2.13,3.92-4.65,3.92-5.59,0-3.06-8.52,2.35-9.6,6.1-1.3,4.5.81,4.31,5.68-.51Z" style="fill:#ffbe29;stroke:#000;stroke-width:5.559999942779541px"/><path d="M592.55,324.44c.47-3-4.72-5.79-14.92-7.9-7.48-1.55-10.78-.67-10.22,2.72.31,1.85,2.8,3.21,9.87,5.36,11.32,3.45,14.72,3.41,15.27-.18Z" style="fill:#ffbe29;stroke:#000;stroke-width:5.559999942779541px"/><path d="M602.52,310.28c13.07-5.68,14.2-20,1.88-23.75-5.12-1.56-8.38-.72-10.34,2.66-1.5,2.59-.5,7.3,1.55,7.3.69,0,1.26.87,1.26,1.94,0,5-20,7.22-28.14,3.18-2.88-1.42-4.13-5.11-1.73-5.11,1.79,0,3-3.76,2.11-6.42-1.24-3.62-5-4.88-10.42-3.49-12.25,3.13-11.91,17.17.57,23.13,10.23,4.89,32.65,5.18,43.27.57Z" style="fill:#ffbe29;stroke:#000;stroke-width:5.559999942779541px"/><path d="M594.4,299.27c.76-.7.43-1.77-.84-2.75-2.78-2.13-2.63-5.3.42-8.93,2.29-2.72,2.57-6.8,3.36-47.93,1.36-70.88,6.76-124.19,13.88-137,2.83-5.09,2.44-5.11-4.89-.25-9.44,6.26-16.62,14.42-23,26.1-12,22-16.19,51.7-16.19,115,0,35.95.25,40.65,2.35,44,2,3.21,2.1,4.39.7,7.82-.91,2.22-1.32,4.35-.92,4.72,2.68,2.48,22.23,1.82,25.11-.85Z" style="fill:#ffbe29;stroke:#000;stroke-width:5.559999942779541px"/><path d="M704.21,231.69c.41-.61-.5-3.7-2-6.87-2.36-4.93-3.31-5.75-6.68-5.75-10.54,0-27.49-4.6-45-12.19-10.09-4.39-13.57-5.4-14.78-4.28-3.09,2.85,2,9.62,10,13.18,7,3.16,26.75,7,35.74,7,5.21,0,5.34.23,2.37,4.41l-2.18,3.08,5.9.15a60.36,60.36,0,0,1,10,1.1c5.79,1.36,5.85,1.36,6.67.14Z" style="fill:#ffbe29;stroke:#000;stroke-width:5.559999942779541px"/><path d="M765.79,263.63c0-1.83-5.51-6.8-11.1-10-4.39-2.51-5.11-2.59-5.12-.54,0,3.11-2.85,10.93-4,10.93-.63,0-1.56-1.53-2.06-3.39a29.79,29.79,0,0,0-4.73-8.17l-3.8-4.78-3,4.43c-2.76,4.13-7.55,8.17-9.67,8.17-.51,0-.61-2.17-.22-4.83.42-2.89.1-5.18-.8-5.69s-1.51-.31-1.51.37c0,1.56-6.64,8.91-8.05,8.91-.58,0-1.39-2.11-1.8-4.68s-1.11-6.65-1.56-9.05.5-.77,2.1,3.62l2.91,8,3.19-4.87c1.75-2.68,3.19-5.61,3.2-6.51s.6-1.3,1.32-.89,1.73,3.63,2.23,7.16l.92,6.41,3.51-3.76a55.61,55.61,0,0,0,5-6.15c1.49-2.35,1.57-2.34,4.54.11a30.43,30.43,0,0,1,5.67,7.3c1.46,2.64,2.85,4.61,3.09,4.37a29.77,29.77,0,0,0,1.19-6.05c.41-3.09.79-5.73.82-5.87.21-.77,10.58,5.81,14.41,9.14,2.47,2.14,4.81,3.59,5.2,3.23s.72-3.52.72-7c0-5.41-.59-6.86-4-9.82-3.9-3.4-4-3.42-5.45-.93-1.87,3.23-4.08,3.28-4.08.09,0-2.33-7.37-11.28-9.29-11.28-.5,0-2.05,2-3.45,4.37s-2.91,4.37-3.35,4.37c-1.89,0-12.29-11.32-12.28-13.36,0-1.62.7-1.21,2.52,1.5a40.59,40.59,0,0,0,6.15,6.83c4,3.44,5.51,2.6,7.07-4,.44-1.89,1.22-3.43,1.72-3.43,1.73,0,10.78,9.38,12,12.49l1.28,3.12,1-3.43c1.18-4.2,2.49-4.36,4.38-.52.79,1.6,4.69,4.93,8.66,7.4l7.23,4.48,1.45-4.51c.8-2.48,1.85-3.91,2.35-3.17.74,1.1-1.14,8.58-2.56,10.18-.21.24-2.55-1.09-5.2-3l-4.82-3.4,0,6.08a43.39,43.39,0,0,1-.83,8.89c-.88,3-3.2,3.87-3.2,1.17Z" style="stroke:#000;stroke-width:5.559999942779541px"/><path d="M729.75,215.16c-8.59-7-9.89-8.6-9.7-11.91l.2-3.53.56,3.41c.33,2,2.61,5,5.5,7.17l4.94,3.76,3-3.42c1.67-1.88,3.06-4.13,3.08-5,.07-2.24.48-2.05,6.3,2.87,5.17,4.37,5.25,4.4,6,1.56a14.5,14.5,0,0,0-.34-6.61c-1.69-5.65-1.36-6.5,1.2-3.1a61.49,61.49,0,0,0,4.55,5.33c2.14,2.15,2.27,2.12,3.07-.62a28.45,28.45,0,0,0,.85-6.42l0-3.55,4.66,5.15c4.35,4.81,4.75,5,6.08,2.7a18,18,0,0,0,1.44-7.22c0-3.39.38-4.24,1.26-3,1.47,2.15.45,8-2.27,13l-2,3.58-2.56-3.9c-3.28-5-4.37-4.9-6.47.47-2,5.08-3.28,5.47-5.22,1.56-1.25-2.53-1.49-2.22-2.38,3.09l-1,5.9L744.7,212l-5.93-4.49-2.66,3c-1.47,1.63-2.68,3.66-2.71,4.52-.05,1.86-1.48,1.92-3.65.15Z" style="stroke:#000;stroke-width:5.559999942779541px"/><path d="M806.16,189.1c-3.13-2.75-5.28-5.37-4.79-5.83s1.05-.59,1.24-.29,2.74,2.92,5.68,5.83c6.76,6.7,5.37,6.89-2.13.29Z" style="stroke:#000;stroke-width:5.559999942779541px"/><path d="M704.38,178.83c-2.84-3.75-2.65-6.24.81-10.3,2.5-2.94,3.64-3.34,8-2.8,2.8.35,8.83,2.76,13.4,5.37,5.28,3,10.73,5,15,5.53,3.66.43,6.65.6,6.65.36a46.72,46.72,0,0,0-3.38-5.37c-4.41-6.46-4.26-7.15.72-3.28s11.22,5.13,24.87,4.73l6.67-.2-3.87-3.73c-5.41-5.22-3.75-5.69,2.23-.63,5.61,4.75,5.26,5.08-6.54,6.23a45.76,45.76,0,0,1-14.89-1c-6.71-1.66-7-1.64-5.7.55.73,1.26,1.92,2.3,2.63,2.3a1.37,1.37,0,0,1,1.3,1.42c0,2.41-14.48.29-21.4-3.13-15.81-7.81-17.8-8.49-21.56-7.33A8.24,8.24,0,0,0,704.4,172c-2.41,6.3,6.75,11.2,10.52,5.63,1.09-1.61.84-2.72-1.08-4.68-2.63-2.69-2.39-3.07,1.17-1.81,2.53.9,2.87,6.81.52,9-2.69,2.48-8.82,1.78-11.14-1.28Z" style="stroke:#000;stroke-width:5.559999942779541px"/><path d="M766.66,163.27c-2-1.83-.43-2.27,8.44-2.44,11-.2,17.63-2,25.48-6.82,6.3-3.88,8-3.11,2,.91-5.45,3.67-14,6.49-22.16,7.35-4,.42-8.51,1-10.07,1.29s-3.23.16-3.72-.28Z" style="stroke:#000;stroke-width:5.559999942779541px"/><path d="M671,482.46l4.55-2.56,1.95,2.57c2.59,3.42,9.77,3.38,14.53-.08l3.64-2.65,3,2.65c4,3.48,11.49,3.48,16.27,0,3.35-2.43,3.81-2.48,6-.63,1.32,1.1,5.19,2.36,8.6,2.79,6.14.78,6.23.73,9.82-4.52,3-4.4,3.48-6.19,2.76-10.46-.48-2.83-1-7.39-1.14-10.13-.27-5-.24-5,7.16-7.5a101.19,101.19,0,0,0,10.51-4.14c3-1.55,11.11-10.89,11.11-12.74,0-.49-3.18-1.24-7.08-1.66-15.48-1.69-18.1-9.8-8-24.87C771.14,384,781,360.06,781.11,344.82c0-6.81.43-9.1,1.32-7.62,3.67,6.05-2.9,31.44-12.85,49.67l-4,7.34,3.82-.86c2.1-.47,14.46-5.56,27.47-11.31,35.6-15.73,47.83-18.81,70.87-17.87,19.3.79,27.52,4.47,41.15,18.42,7.22,7.39,14.17,12.68,26.9,20.44,27.11,16.55,28.24,18,29.52,37.46,1.31,19.73.66,20.8-14.63,24.09-13.07,2.82-21.26,8.76-23.46,17-1.17,4.41,1.3,4.54,7.89.41l4.83-3,2.15,3c2.82,4,8.82,4,13.81,0l3.76-3,3.85,3c6,4.65,13.93,3.52,16.17-2.29.43-1.12,1.58-.76,3.91,1.22,4.37,3.7,15.56,5.29,16.77,2.38.46-1.11-.42-3.86-1.95-6.1-6.51-9.53-8.55-14.07-8.64-19.26-.12-7.22,2.09-10.7,10.5-16.56,10.22-7.13,13.37-16.32,5.6-16.32-4.8,0-9.63-4.14-12.72-10.88-6.27-13.71-5-29.07,4.37-54.63,9.56-26,10.62-30.75,10.66-48.11,0-14-.33-16.47-3.61-24.17a86.16,86.16,0,0,0-9-15.57l-5.39-7,6.92-5.59c21.11-17.07,16.8-45-8.62-55.76-7.78-3.29-9.72-3.58-23.35-3.49a203.7,203.7,0,0,0-27.7,2.33,196.93,196.93,0,0,1-27.74,2.29c-13.28.05-15.53-.27-20.65-2.92-5.34-2.77-6.25-4.09-7.3-10.49a3.82,3.82,0,0,0-2.1-2.92c-1.81-.56-10.2,6.54-11.44,9.68-.61,1.55-1.11,1.44-2.9-.62a25.35,25.35,0,0,1-3.69-7c-2.11-6.25.48-10.93,8-14.44l5.84-2.72L872,171c-7.1-4.3-19.19-1.36-23.55,5.74-1.24,2-2.58,3.65-3,3.66s-2.76-1.91-5.22-4.26c-9.17-8.75-6-21.68,6.25-25.63,6.54-2.11,12.33-.5,13.54,3.76,1.84,6.5,7.56-2,6.53-9.76-.68-5.13-.58-5.31,3.06-5.31,5.06,0,15.83,6.48,19.16,11.52,3.87,5.86,3.59,15.09-.67,22l-3.34,5.4,4.37-.85c6.41-1.25,12.64-5.14,15.79-9.85,3.33-5,3.69-14.68.74-19.91-2.86-5.07-2.53-5.88,1.7-4.16,7.2,2.91,11,6.13,13.93,11.64,2.6,5,2.74,6.19,1.34,11.36a32.24,32.24,0,0,1-4.29,9.31c-2.32,3-2.4,3.52-.55,3.52,3.45,0,10.65-3.18,13.21-5.84a26,26,0,0,0,4.19-7.34L937,161l2.11,3.74c3,5.29,8.79,10,15.87,13,7.61,3.18,10.78,3.36,6.8.38-2.68-2-7.63-16.17-6.13-17.55.88-.81,11.21,6.94,23,17.28,11.16,9.78,18.17,13,28.42,13,13.09,0,20.72-11.12,14.83-21.64-3.43-6.13-11.08-7-15.54-1.73-2.06,2.41-2.62,4.34-2,6.87.74,3.1.45,3.52-2.45,3.52-3.81,0-11.31-4.75-24.63-15.6-20.32-16.54-45-30.57-62.84-35.69-11.44-3.29-35.88-4.57-47.51-2.49-12.59,2.25-27.48,9.28-35.59,16.8-14.37,13.33-14.6,31.07-.61,47.23l4,4.63L832,196.86a17.44,17.44,0,0,0,.84,20c2,2.61,3.94,4.75,4.39,4.75s1-1.68,1.11-3.73c.39-5.19,2.68-8.67,6.59-10,3.53-1.24,5.81-.65,22,5.64,17,6.62,45,7.07,74.68,1.22,14.57-2.87,31.75-2.7,39.31.39,13.86,5.66,17.07,20.4,6.88,31.59-4.41,4.84-8.66,6.81-22.94,10.64-10.87,2.91-13.44,3.1-38.13,2.86-21.1-.21-28.68.19-37.29,1.94-9.35,1.9-15.1,2.1-42.57,1.42l-31.76-.78,3.52,2.85a55.39,55.39,0,0,0,6.08,4.28c2.4,1.34,2.32,1.52-1.24,2.81A37.94,37.94,0,0,1,813.15,274h-6.52l-.88,5.4c-.48,3-.45,6.44.08,7.71.78,1.87.49,2.14-1.53,1.42-1.37-.49-5.19-1.44-8.48-2.12a53.08,53.08,0,0,1-9.85-3.09c-3.57-1.71-4-1.66-5.29.61-1.18,2-12.21,10-13.83,10-.26,0-.6-1.55-.75-3.43s-1.74-6.81-3.54-10.93-3.67-8.62-4.17-10c-.75-2.07-1.09-2.18-2-.62a26.38,26.38,0,0,0-1.94,6.24,29.22,29.22,0,0,1-3.7,8.68l-2.84,4.31-1.81-3.68c-1.95-4-5.18-8.05-6.35-8.05-.39,0-1.07,1.26-1.49,2.81-.89,3.23-8.55,12.17-10.43,12.17-.69,0-1.25-2.53-1.25-5.62s-.61-5.62-1.35-5.62A1.61,1.61,0,0,0,723.9,282c0,2.38-6.54,9.46-8.74,9.46a5.65,5.65,0,0,0-3.42,1.87c-2.41,2.69-4.39,2.31-3.37-.64.48-1.38.17-4.62-.69-7.18l-2-6.07c-.32-1-2.67-.71-7.63.84-8,2.51-10.71,2.06-6.58-1.09,1.51-1.15,3.8-5.14,5.1-8.87s3.21-7,4.25-7.35c1.46-.44,1.38.1-.34,2.37a10.86,10.86,0,0,0-2.24,4.85,15.69,15.69,0,0,1-2.05,5.53c-1.12,2-1.83,3.82-1.57,4.06s3.31-.89,6.78-2.51l6.31-3,0,2.64a45.59,45.59,0,0,0,1.69,8.51l1.66,5.87,4.29-1.93c4.39-2,8.54-9,8.54-14.42,0-2.69,1.58-2.28,2.22.58.19.84,1.18,4,2.2,7l1.86,5.47,2.94-3.45a29.06,29.06,0,0,0,4.5-8.28c1.49-4.61,3.84-6.59,3.84-3.24,0,2.41,6.74,11.06,8,10.32.63-.36,1.88-3.6,2.78-7.21,1.87-7.5,4.9-12.61,6.82-11.51a1.29,1.29,0,0,1,.63,1.78c-.38.57,1.17,5.44,3.45,10.84s4.56,10.83,5.08,12.07c.83,2,1.58,1.71,6.46-2.5,3-2.62,5.79-5.55,6.13-6.51.5-1.46,1.18-1.4,4,.32,4,2.41,17.33,6.28,18.36,5.33.39-.36.78-3.78.88-7.61l.18-7,3.84.78a36.76,36.76,0,0,0,9.87-.06l6-.84-5.37-3.6c-3-2-5.94-4.54-6.64-5.69s-3.37-2.27-6.35-2.51c-8.05-.67-22.32-8.48-22.32-12.21,0-.7,2,.49,4.39,2.65,5.36,4.79,12.8,7.8,19.3,7.8h4.87l-3-3.91a22.31,22.31,0,0,1-3.64-10c-.58-5.58-1.18-6.47-7.16-10.52a68.37,68.37,0,0,1-9.87-8.1l-3.35-3.68-1.71,4.37c-.94,2.4-2.09,4.37-2.55,4.37s-2.27-1.4-4-3.12-3.52-3.12-4-3.11-2,2.32-3.44,5.14l-2.66,5.12-2.05-3a45.49,45.49,0,0,0-5.93-6.39c-2.13-1.89-3.25-3.43-2.49-3.43s3.39,2,5.85,4.37l4.46,4.37,1.82-3.2a11.15,11.15,0,0,0,1-7.18c-.71-3.44-.61-3.64.74-1.48a31.4,31.4,0,0,0,5.8,5.85l4.24,3.35,2.92-5.23c2.91-5.2,2.93-5.21,4.26-2.11,1.77,4.15,14.59,14.41,25.5,20.4q2.52,1.38-2.13-9.55a23.66,23.66,0,0,1-1.5-7.75c0-3.45-1-5-5.54-8.35-6.53-4.85-8.64-8.3-9.88-16.12-.5-3.17-1.64-6.69-2.54-7.83-1.33-1.69-1.55-.74-1.2,5.14.24,4-.29,8.89-1.17,11L787.09,211l-1.25-3.12c-.69-1.72-3.72-4.7-6.73-6.64S774,197.36,774.4,197s3.53,1.36,6.9,3.91c5.13,3.88,6.26,4.3,7,2.59.83-2,0-10.75-1.61-16.86-.8-3.05-.73-3,3.12.73,2.85,2.78,4.42,6.09,5.64,11.86,1.55,7.34,2.33,8.56,9.28,14.52,4.18,3.58,7.81,6.3,8.08,6.06s.79-9.5,1.17-20.57c.73-21.22-.09-26.27-5.33-32.83L805.93,163l4.23-4.45c5.52-5.81,8.05-10.46,9.15-16.82l.89-5.17L815.43,141c-3.91,3.61-5.78,4.41-10.3,4.41s-6.24-.73-9.26-3.87c-3.63-3.77-10-7.4-16.23-9.16-2.28-.65-3-.37-3,1.14,0,1.1-1.26,4.29-2.8,7.08l-2.8,5.07L765.13,140c-3.6-3.47-7.87-6.17-11.05-7-8.12-2.08-8.56-1.88-8.56,4,0,9-3.92,10.62-11,4.67-5.38-4.54-9.83-5.52-20-4.43l-7.87.84,1.42,3.47c1.18,2.9.92,4.12-1.62,7.41-4.11,5.34-9.46,7.65-17.69,7.65-3.79,0-8.53.77-10.54,1.7s-7,2-11.08,2.39a60.12,60.12,0,0,0-9.68,1.51c-1.94.71-2.15.12-1.53-4.17,1-6.58-3.75-11.43-11.09-11.43-9.52,0-13.91,8.31-10.18,19.27.72,2.11,1.66,5.44,2.09,7.39s4.73,7.41,10,12.54c5.06,4.94,9.85,10.08,10.63,11.43s3.38,3.5,5.77,4.79l4.34,2.35-.57-4.53c-.63-5,.48-5.76,3.2-2.25a23.78,23.78,0,0,0,5.48,4.51c3.22,1.93,3.72,2,3.72.29a19,19,0,0,1,1.46-5.45l1.46-3.52,2.53,4.78c1.39,2.63,5.92,8.61,10.06,13.29,8,9.07,12.93,19.21,10.4,21.55-1,.95-3.79.87-9.54-.25-4.45-.87-10-1.33-12.23-1-4.65.63-5,0-2.16-3.45,3-3.69,2.54-4.3-3.39-4.3-6.86,0-23.9-3.21-30.44-5.73-6.36-2.46-7.83-1.84-9.7,4-.84,2.65-2.38,7.45-3.43,10.66l-1.9,5.85,6.88-.65a73.68,73.68,0,0,0,10.82-1.8c2.16-.63,4.13-1,4.37-.75s-.72,2.51-2.14,5.08l-2.58,4.68,4.29-.85A41,41,0,0,0,662,242c3.44-1.63,3.72-1.51,6.44,2.75,3.34,5.23,6,5,6.6-.53.61-5.73,2.55-4.89,6.18,2.71,3.5,7.31,7.14,9.89,7.84,5.56.23-1.44,2.12-3.78,4.19-5.2,4.19-2.88,7.34-2,9.15,2.51,1.87,4.68-2.3,9.5-14.46,16.69q-36.51,21.6-42.53,59.18c-3.64,22.64,7.74,46,30.57,62.83,10.92,8,28.28,16.53,27.18,13.29-4.68-13.75-4.53-40,.26-44.41.72-.66.47,2.07-.55,6.08-3.8,14.94-2.15,26.84,7.6,54.74,8.82,25.23,7.6,36-4.88,43.14-4,2.29-6.59,2.67-17.37,2.54-11.69-.14-13,.09-16.72,3s-8.36,12.12-8.36,16.46c0,2.35,2.67,2,7.93-.92Z" style="fill:#ffbe29"/><path d="M860.85,482l4.91-3.08,3.33,3.08c4.36,4,9.47,3.94,13.66-.24,1.83-1.82,3.47-3.09,3.65-2.81s1,1.63,1.81,3c1,1.74,3.17,2.61,7,2.88,4.64.32,5.88-.12,7.72-2.72l2.2-3.1,4.83,3c13.22,8.29,20.27-.41,14.36-17.73-3-8.81-1.35-13.76,8.33-25,4.08-4.73,7.43-9.77,7.43-11.21,0-2.29-.76-2.6-6.19-2.5-5.2.1-6.72-.44-9.46-3.38-4.45-4.78-4.19-10.26.79-16.34l4-4.85-7.05-4.67a116.44,116.44,0,0,1-15.55-13.51c-10.49-10.91-20.81-16.09-34.41-17.26l-9.12-.79v6.74c0,8.67,4.19,17,15.57,31.14,12.95,16.07,13.85,18.55,14.37,39.55l.44,17.76-3.75,3.47c-3.38,3.13-4.91,3.53-15.83,4.15-10.4.59-12.58,1.11-15.63,3.75-4.05,3.5-5.26,5.41-6.52,10.25-.73,2.82-.43,3.43,1.65,3.43,1.4,0,4.75-1.38,7.45-3.08Z" style="fill:#ffbe29"/><path d="M584.72,430.58c0-2.25,1-2.84,6.09-3.55l6.09-.84L592.83,423c-4.82-3.75-5.27-6.68-1-6.68s11.4-4.29,12.49-7.46a4.89,4.89,0,0,0-.72-4.46c-2.37-2.64-6.83-2.24-7.66.68-.89,3.15-2.38,3.16-5.76,0-5.09-4.7-5.2-14.43-.24-20.09,2.34-2.67,2.32-2.84-.66-5.6-3.21-3-5.5-8.83-4-10.23.48-.44,3-.09,5.63.79,3.72,1.24,5.19,1.26,6.72.09,4.64-3.56-.39-8.14-7.83-7.13-3,.41-4.23,0-4.67-1.52-.33-1.15-2.95-2.65-5.9-3.38-5.28-1.3-5.31-1.29-5.31,2.26,0,3.89-2.27,4.62-6.6,2.13-3.51-2-6.92-.45-6.92,3.2,0,3.4,3.51,5.08,9.8,4.69,4.82-.3,5,3.2.42,8.23l-3.29,3.62,2.61,3.66c3.86,5.42,3.54,14.42-.68,18.88l-3.31,3.5-2.17-2.81c-3-3.9-7.15-3.64-8.28.52-.74,2.73-.13,4,3.37,6.87,2.35,1.94,5.79,3.53,7.64,3.53,4.57,0,4.39,3.51-.36,7l-3.72,2.77,5.74.87c3.16.48,5.74,1.38,5.74,2,0,2.38,1.49,9.61,5.26,9.79,3.37.16,5.47-4.84,5.55-8.25Z" style="fill:#ffbe29"/><path d="M657.39,404.43c5.22-2,16.51-11.34,16.51-13.64,0-.72-3.12-4.07-6.93-7.43-8-7.08-16.74-19-19-26-1.18-3.63-6.87-9.85-22.91-25l-21.34-20.19-6.15,1.52a55.42,55.42,0,0,1-9.17,1.56c-2.86,0-2.81.2,1,3.08l4,3,5.63-3c5.46-3,5.65-3,6.33-.6.39,1.39-.46,3.81-2,5.58s-2.3,3.67-1.85,4.33-1,2.05-3.12,3.09c-4,1.91-6.79,8.22-3.63,8.22,2.84,0,9.12-7.55,8.39-10.11-.37-1.31-.19-2.65.4-3,2.44-1.4,2.29,4.53-.19,7.45-1.46,1.72-2.3,3.67-1.85,4.33s-1,2.05-3.12,3.09c-4,1.9-6.79,8.22-3.66,8.22s9.24-7.22,8.48-9.92c-.4-1.41-.24-2.84.34-3.18,1.65-.94,2.53,3.74,1.14,6a4.27,4.27,0,0,0,0,4.24c1.37,2.41,0,7-2.54,8.47-1.08.62-.35,1.83,2.27,3.76,3.79,2.79,3.86,3.09,3.86,15.41,0,10.3.43,13,2.36,14.75,2.18,2,2.36,2,2.36.09,0-2.11,3.79-4.68,6.89-4.68.91,0,6.63,4.72,12.7,10.5s12.49,10.75,14.3,11.07l4.33.74c.58.09,3.32-.7,6.08-1.76Z" style="fill:#ffbe29"/><path d="M592.15,354.62c0-3.32-7-6.86-15.41-7.78-6.78-.74-6.89-.7-6.89,2.6,0,2.73,1.07,3.81,5.74,5.8,7.52,3.19,16.55,2.85,16.55-.62Z" style="fill:#ffbe29"/><path d="M599.84,354.31c3.42-3,5-6.63,3-6.63-2.37,0-8.65,5.5-8.65,7.58,0,3.24,1.17,3,5.67-.94Z" style="fill:#ffbe29"/><path d="M592.55,344.5c.29-1.87-.9-3.12-4.46-4.69-7.68-3.38-16.85-4.95-19.06-3.25-4.07,3.12-1.36,7.31,5.22,8.07a40.9,40.9,0,0,1,8,1.75C587.29,348.29,592.1,347.42,592.55,344.5Z" style="fill:#ffbe29"/><path d="M592.55,334.47c.41-2.67-1.34-3.63-15.63-8.54-10.67-3.66-15.39-1.94-12,4.38,1.19,2.2,3.18,3.21,7.65,3.86a86.21,86.21,0,0,1,10.1,2.11c6,1.8,9.4,1.17,9.86-1.82Z" style="fill:#ffbe29"/><path d="M599.71,325.07c2.16-2.13,3.92-4.65,3.92-5.59,0-3.06-8.52,2.35-9.6,6.1-1.3,4.5.81,4.31,5.68-.51Z" style="fill:#ffbe29"/><path d="M592.55,324.44c.47-3-4.72-5.79-14.92-7.9-7.48-1.55-10.78-.67-10.22,2.72.31,1.85,2.8,3.21,9.87,5.36,11.32,3.45,14.72,3.41,15.27-.18Z" style="fill:#ffbe29"/><path d="M602.52,310.28c13.07-5.68,14.2-20,1.88-23.75-5.12-1.56-8.38-.72-10.34,2.66-1.5,2.59-.5,7.3,1.55,7.3.69,0,1.26.87,1.26,1.94,0,5-20,7.22-28.14,3.18-2.88-1.42-4.13-5.11-1.73-5.11,1.79,0,3-3.76,2.11-6.42-1.24-3.62-5-4.88-10.42-3.49-12.25,3.13-11.91,17.17.57,23.13,10.23,4.89,32.65,5.18,43.27.57Z" style="fill:#ffbe29"/><path d="M594.4,299.27c.76-.7.43-1.77-.84-2.75-2.78-2.13-2.63-5.3.42-8.93,2.29-2.72,2.57-6.8,3.36-47.93,1.36-70.88,6.76-124.19,13.88-137,2.83-5.09,2.44-5.11-4.89-.25-9.44,6.26-16.62,14.42-23,26.1-12,22-16.19,51.7-16.19,115,0,35.95.25,40.65,2.35,44,2,3.21,2.1,4.39.7,7.82-.91,2.22-1.32,4.35-.92,4.72,2.68,2.48,22.23,1.82,25.11-.85Z" style="fill:#ffbe29"/><path d="M704.21,231.69c.41-.61-.5-3.7-2-6.87-2.36-4.93-3.31-5.75-6.68-5.75-10.54,0-27.49-4.6-45-12.19-10.09-4.39-13.57-5.4-14.78-4.28-3.09,2.85,2,9.62,10,13.18,7,3.16,26.75,7,35.74,7,5.21,0,5.34.23,2.37,4.41l-2.18,3.08,5.9.15a60.36,60.36,0,0,1,10,1.1c5.79,1.36,5.85,1.36,6.67.14Z" style="fill:#ffbe29"/><path d="M765.79,263.63c0-1.83-5.51-6.8-11.1-10-4.39-2.51-5.11-2.59-5.12-.54,0,3.11-2.85,10.93-4,10.93-.63,0-1.56-1.53-2.06-3.39a29.79,29.79,0,0,0-4.73-8.17l-3.8-4.78-3,4.43c-2.76,4.13-7.55,8.17-9.67,8.17-.51,0-.61-2.17-.22-4.83.42-2.89.1-5.18-.8-5.69s-1.51-.31-1.51.37c0,1.56-6.64,8.91-8.05,8.91-.58,0-1.39-2.11-1.8-4.68s-1.11-6.65-1.56-9.05.5-.77,2.1,3.62l2.91,8,3.19-4.87c1.75-2.68,3.19-5.61,3.2-6.51s.6-1.3,1.32-.89,1.73,3.63,2.23,7.16l.92,6.41,3.51-3.76a55.61,55.61,0,0,0,5-6.15c1.49-2.35,1.57-2.34,4.54.11a30.43,30.43,0,0,1,5.67,7.3c1.46,2.64,2.85,4.61,3.09,4.37a29.77,29.77,0,0,0,1.19-6.05c.41-3.09.79-5.73.82-5.87.21-.77,10.58,5.81,14.41,9.14,2.47,2.14,4.81,3.59,5.2,3.23s.72-3.52.72-7c0-5.41-.59-6.86-4-9.82-3.9-3.4-4-3.42-5.45-.93-1.87,3.23-4.08,3.28-4.08.09,0-2.33-7.37-11.28-9.29-11.28-.5,0-2.05,2-3.45,4.37s-2.91,4.37-3.35,4.37c-1.89,0-12.29-11.32-12.28-13.36,0-1.62.7-1.21,2.52,1.5a40.59,40.59,0,0,0,6.15,6.83c4,3.44,5.51,2.6,7.07-4,.44-1.89,1.22-3.43,1.72-3.43,1.73,0,10.78,9.38,12,12.49l1.28,3.12,1-3.43c1.18-4.2,2.49-4.36,4.38-.52.79,1.6,4.69,4.93,8.66,7.4l7.23,4.48,1.45-4.51c.8-2.48,1.85-3.91,2.35-3.17.74,1.1-1.14,8.58-2.56,10.18-.21.24-2.55-1.09-5.2-3l-4.82-3.4,0,6.08a43.39,43.39,0,0,1-.83,8.89c-.88,3-3.2,3.87-3.2,1.17Z"/><path d="M729.75,215.16c-8.59-7-9.89-8.6-9.7-11.91l.2-3.53.56,3.41c.33,2,2.61,5,5.5,7.17l4.94,3.76,3-3.42c1.67-1.88,3.06-4.13,3.08-5,.07-2.24.48-2.05,6.3,2.87,5.17,4.37,5.25,4.4,6,1.56a14.5,14.5,0,0,0-.34-6.61c-1.69-5.65-1.36-6.5,1.2-3.1a61.49,61.49,0,0,0,4.55,5.33c2.14,2.15,2.27,2.12,3.07-.62a28.45,28.45,0,0,0,.85-6.42l0-3.55,4.66,5.15c4.35,4.81,4.75,5,6.08,2.7a18,18,0,0,0,1.44-7.22c0-3.39.38-4.24,1.26-3,1.47,2.15.45,8-2.27,13l-2,3.58-2.56-3.9c-3.28-5-4.37-4.9-6.47.47-2,5.08-3.28,5.47-5.22,1.56-1.25-2.53-1.49-2.22-2.38,3.09l-1,5.9L744.7,212l-5.93-4.49-2.66,3c-1.47,1.63-2.68,3.66-2.71,4.52-.05,1.86-1.48,1.92-3.65.15Z"/><path d="M806.16,189.1c-3.13-2.75-5.28-5.37-4.79-5.83s1.05-.59,1.24-.29,2.74,2.92,5.68,5.83c6.76,6.7,5.37,6.89-2.13.29Z"/><path d="M704.38,178.83c-2.84-3.75-2.65-6.24.81-10.3,2.5-2.94,3.64-3.34,8-2.8,2.8.35,8.83,2.76,13.4,5.37,5.28,3,10.73,5,15,5.53,3.66.43,6.65.6,6.65.36a46.72,46.72,0,0,0-3.38-5.37c-4.41-6.46-4.26-7.15.72-3.28s11.22,5.13,24.87,4.73l6.67-.2-3.87-3.73c-5.41-5.22-3.75-5.69,2.23-.63,5.61,4.75,5.26,5.08-6.54,6.23a45.76,45.76,0,0,1-14.89-1c-6.71-1.66-7-1.64-5.7.55.73,1.26,1.92,2.3,2.63,2.3a1.37,1.37,0,0,1,1.3,1.42c0,2.41-14.48.29-21.4-3.13-15.81-7.81-17.8-8.49-21.56-7.33A8.24,8.24,0,0,0,704.4,172c-2.41,6.3,6.75,11.2,10.52,5.63,1.09-1.61.84-2.72-1.08-4.68-2.63-2.69-2.39-3.07,1.17-1.81,2.53.9,2.87,6.81.52,9-2.69,2.48-8.82,1.78-11.14-1.28Z"/><path d="M766.66,163.27c-2-1.83-.43-2.27,8.44-2.44,11-.2,17.63-2,25.48-6.82,6.3-3.88,8-3.11,2,.91-5.45,3.67-14,6.49-22.16,7.35-4,.42-8.51,1-10.07,1.29s-3.23.16-3.72-.28Z"/><path d="M1065.8,449.33s6.61,13.8,13.92,19.42c10.83,8.33,33,7.73,42.45,17.44,11.29,11.46-.88,26.6-.77,27.91l.62,8s-7.61.09-10.82.61c-4.82.77-6.7,4.79-15.67,4.19-22.56-1.5-21.65-22.33-22.93-40.12-1.13-6.78-3.75-15.61-5.24-22.39a103.48,103.48,0,0,1-1.55-15.06Z" style="fill:#ffbe29;stroke:#000;stroke-width:2.0940001010894775px"/><path d="M1065.75,150.77s6.62-13.81,13.93-19.44c10.84-8.34,33.05-7.74,42.48-17.47,11.3-11.47-.88-26.63-.78-27.95l.62-8s-7.62-.09-10.83-.61c-4.82-.77-6.7-4.79-15.69-4.2-22.58,1.5-21.67,22.35-22.95,40.17-1.13,6.79-3.76,15.63-5.25,22.42a103.66,103.66,0,0,0-1.55,15.08Z" style="fill:#ffbe29;stroke:#000;stroke-width:2.0959999561309814px"/><path d="M502.26,150.78s-6.62-13.82-13.93-19.45c-10.84-8.34-33.06-7.74-42.49-17.47-11.3-11.47.88-26.64.78-28l-.62-8s7.62-.09,10.83-.61c4.82-.77,6.71-4.79,15.69-4.2,22.58,1.5,21.67,22.36,22.95,40.18,1.13,6.79,3.76,15.63,5.25,22.42a103.67,103.67,0,0,1,1.55,15.08Z" style="fill:#ffbe29;stroke:#000;stroke-width:2.0959999561309814px"/></svg>