<svg xmlns="http://www.w3.org/2000/svg" viewBox="0 0 1200 600"><title>Turks_and_Caicos_Islands</title><path d="M0,298H598V0h602V600H0" style="fill:#002868"/><path d="M792,172v93a175.77,175.77,0,0,0,24.81,90.73c18.54,30.8,46.1,54.89,81.93,71.61l1.27.59,1.27-.59c35.82-16.72,63.39-40.81,81.93-71.61A175.77,175.77,0,0,0,1008,265V172Z" style="fill:#fff;stroke:#000;stroke-width:0.5px"/><path d="M900,420.2c-33.71-16.08-59.68-39-77.2-68.08A168.77,168.77,0,0,1,799,265V179h202v86a168.77,168.77,0,0,1-23.8,87.12C959.68,381.22,933.71,404.12,900,420.2Z" style="fill:#fcd116;stroke:#000;stroke-width:0.5px"/><path d="M862.13,274.13c-2.75,4.63-7.37,5.63-11,4.13s-7.12-10.25-10.87-15-4.62-2.62-7.12-5.37-6.12-4.62-12-7.37c-3.25-1.5-6.62-2.87-8.87-8.62a9.76,9.76,0,0,1,5.13-5.12c1.88-.62,3.38-3.37,3.63-5.75s2.25-4.75,5-6.62a8.55,8.55,0,0,1-5.12-1.12,3.38,3.38,0,0,0-4.12.13,6.27,6.27,0,0,1-4.5.75c.75-.62,2.13-2,2.25-3.25S816.13,219,819,219s4.63-3.25,6.88-3.25c-1.62,0-1.25-2.75-.37-2.87-4-.75-3.5-4-1.87-4-.12-.5-.62-1-2.5-1.62s-.87-2.25.5-3.25c-1.25-2.5-.12-4.37,1.88-6-2.75-.12.25-4,1-6.12s1.13-2.25,2-1,3.25,3.75,5.88,4.5,4,2.13,4.5,4.25,1.5,3.38,4.25,4.38,6.75,3.25,6.25,8.63a8.58,8.58,0,0,1,5.25,1.88" style="fill:#fcad56;stroke:#000;stroke-linecap:round;stroke-linejoin:round;stroke-width:0.30000001192092896px"/><path d="M869,206.38a7.92,7.92,0,0,0,3.13,6.38c1.88,1.5,3.5,2.75,3.13,4.63s.38,3.25,2,4.5,3,2.75,2.5,5.25a7.74,7.74,0,0,0,.88,5.88c1,1.88,2.75,3.38,2,6.38a15.21,15.21,0,0,0,.63,9c.88,1.88,0,3.38-1.75,6.75s-2.75,4.5-6.37,5.75-4,3.38-4,7.25-2.62,6-7.5,5.25c-5,4.13-8.12-.75-9.37-6.87s-1.5-12.75-8.87-18.12-4.37-14.75,1.75-18.5,5.38-14.37,4.63-21,3.75-10.37,7.13-14C863.38,196.63,869,203.5,869,206.38Z" style="fill:#ffa1a1;stroke:#000;stroke-linecap:round;stroke-linejoin:round;stroke-width:0.30000001192092896px"/><path d="M858.38,249c-1.37-3.25-2.87-6.5.75-13.5s1.38-12.5.25-16.12-1.37-6.75,0-8.25a5.57,5.57,0,0,0,2.25-4.62c.13-2.25,2-1.5,2.25-.37s.5,3-1.5,6.38,5.63,12,2.13,21.13c-2.37,6.38.75,14.5,2,20.13s2,19.13-6.25,21.13C865.88,272.13,860.63,254.25,858.38,249Z" style="fill:#f1b2dc;stroke:#000;stroke-linecap:round;stroke-linejoin:round;stroke-width:0.30000001192092896px"/><path d="M821.25,248a2.11,2.11,0,0,0,2.5-1.37c.38-.87.63-1.37,1.88-1.5s3.25-.37,3.75-1.37,1.88-.12,3.25-2.62,2.13-5.62,5.5-6.75m9.25-21.75c-1.25,0-4.87.13-6.37,3.38m-10.37-18.87c3,.88,1.75,2.88,3.25,4,2.75,2.13.25,4.38,2.5,5s2.13,1,1.63,3.5c-.75,2.88,2,3,1,4.88m-13,9.88c1.75-1.62,6.13-2.87,7.13-4.62m-7.25-4c2.63-.12,6.13.88,6.63-.12m-7-2.75c1.25,0,3.88-.87,4.38-2.62m-6.25-1.37a8.3,8.3,0,0,0,5.25-1.5M821.63,204c1.13-.87,3.13.13,5-1.12M823.5,198c.88,0,2.75-.25,2.75.88" style="fill:none;stroke:#000;stroke-linecap:round;stroke-linejoin:round;stroke-width:0.30000001192092896px"/><path d="M943.13,220.88s-8.75-7.37-16-12.37-16-11.12-16-12.37c1.38-1,8.75,3.75,18.88,9.88a83,83,0,0,1,16,12.38Zm-.62,5a164.83,164.83,0,0,0-16.87-8.75c-8.75-3.62-21.87-3.62-23.25-4.87,0-1.25,15.25-2,26.13,2.38a161.87,161.87,0,0,1,16.88,8.75Zm-.12,8.5a106,106,0,0,0-18.25-6.25c-8.75-2-21.25-1.25-22.75-2.37,0-1.25,15.5-3.75,27.13,0s16.75,6.13,16.75,6.13Zm-.5,8.63a39.59,39.59,0,0,0-16.25-5.75c-8.75-.87-20.37,5.75-21.87,4.5,0-1.25,10.13-8.62,22.75-7.37,12.38,1.25,18.25,6.13,18.25,6.13Zm2.88-27.25s-8.87-8.12-8.87-13.62c0-4.87,5.38-12.37,7.75-12.37-1.25,2.5-5.37,7.5-5.37,12.38s9.38,11.13,9.38,11.13Z" style="fill:#9e540a;stroke:#000;stroke-linecap:round;stroke-linejoin:round;stroke-width:0.30000001192092896px"/><path d="M944.75,215.75a82,82,0,0,0,1.75-13.62c0-7.37-5.25-14.12-4.75-16,1.88,1.88,7.13,7.38,7.13,16,0,7.5-1.25,11.13-1.25,11.13Z" style="fill:#9e540a;stroke:#000;stroke-linecap:round;stroke-linejoin:round;stroke-width:0.30000001192092896px"/><path d="M946.88,213.13A8.93,8.93,0,0,0,944.5,207c-2-2.37-5-3.12-8.12-2.62a11.83,11.83,0,0,0-8.62,6.38c-2.5,4.63-2.75,9.63-2.87,14.5,0,16.88.63,23.75,1.13,40.38.13,4.88,1,14.88-1.25,22.75a56.31,56.31,0,0,1-3.37,9.75c1-4.12,1.5-6.25,2-9.37,1.38-8.12,1-15.75.75-23.25-.5-15.37-1.37-23.25-1.87-41.87-.12-5.62.38-9.87,3-14.37s7.5-8,12.88-8a11,11,0,0,1,6,1.5c3.75,2,5.5,6.13,5.5,10.25Z" style="fill:#9e540a;stroke:#fcd116;stroke-linecap:round;stroke-linejoin:round;stroke-width:0.75px"/><path d="M947.63,273.38s-3.5,6.25-6.12,10.75-4.75,5.5-6.75,4.13-.25-5,1.25-6.75,9.88-9.87,9.88-9.87Z" style="fill:#9e540a;stroke:#000;stroke-linecap:round;stroke-linejoin:round;stroke-width:0.30000001192092896px"/><path d="M948.5,273.88s-1.37,7.13-2.5,12.25-2.75,6.88-4.87,6.25-1.87-4.62-1-6.75,6.13-12.87,6.13-12.87Z" style="fill:#9e540a;stroke:#000;stroke-linecap:round;stroke-linejoin:round;stroke-width:0.30000001192092896px"/><path d="M950,274.13v12.5c0,5.25-1.25,7.38-3.62,7.25s-2.75-4.12-2.25-6.5,3.5-13.87,3.5-13.87Z" style="fill:#9e540a;stroke:#000;stroke-linecap:round;stroke-linejoin:round;stroke-width:0.30000001192092896px"/><path d="M956.88,220.88s8.75-7.37,16-12.37,16-11.12,16-12.37c-1.37-1-8.75,3.75-18.87,9.88a83,83,0,0,0-16,12.38Zm.63,5a164.83,164.83,0,0,1,16.88-8.75c8.75-3.62,21.88-3.62,23.25-4.87,0-1.25-15.25-2-26.12,2.38a161.87,161.87,0,0,0-16.87,8.75Zm.13,8.5a106,106,0,0,1,18.25-6.25c8.75-2,21.25-1.25,22.75-2.37,0-1.25-15.5-3.75-27.12,0s-16.75,6.13-16.75,6.13Zm.5,8.63a39.59,39.59,0,0,1,16.25-5.75c8.75-.87,20.38,5.75,21.88,4.5,0-1.25-10.12-8.62-22.75-7.37-12.37,1.25-18.25,6.13-18.25,6.13Zm-2.87-27.25s8.88-8.12,8.88-13.62c0-4.87-5.37-12.37-7.75-12.37,1.25,2.5,5.38,7.5,5.38,12.38s-9.37,11.13-9.37,11.13Z" style="fill:#9e540a;stroke:#000;stroke-linecap:round;stroke-linejoin:round;stroke-width:0.30000001192092896px"/><path d="M955.25,215.75a82,82,0,0,1-1.75-13.62c0-7.37,5.25-14.12,4.75-16-1.87,1.88-7.12,7.38-7.12,16,0,7.5,1.25,11.13,1.25,11.13Z" style="fill:#9e540a;stroke:#000;stroke-linecap:round;stroke-linejoin:round;stroke-width:0.30000001192092896px"/><path d="M953.13,213.13A8.93,8.93,0,0,1,955.5,207c2-2.37,5-3.12,8.13-2.62a11.83,11.83,0,0,1,8.63,6.38c2.5,4.63,2.75,9.63,2.88,14.5,0,16.88-.62,23.75-1.12,40.38-.12,4.88-1,14.88,1.25,22.75a56.31,56.31,0,0,0,3.38,9.75c-1-4.12-1.5-6.25-2-9.37-1.37-8.12-1-15.75-.75-23.25.5-15.37,1.38-23.25,1.88-41.87.13-5.62-.37-9.87-3-14.37s-7.5-8-12.87-8a11,11,0,0,0-6,1.5c-3.75,2-5.5,6.13-5.5,10.25Z" style="fill:#9e540a;stroke:#fcd116;stroke-linecap:round;stroke-linejoin:round;stroke-width:0.75px"/><path d="M952.38,273.38s3.5,6.25,6.13,10.75,4.75,5.5,6.75,4.13.25-5-1.25-6.75-9.87-9.87-9.87-9.87Z" style="fill:#9e540a;stroke:#000;stroke-linecap:round;stroke-linejoin:round;stroke-width:0.30000001192092896px"/><path d="M951.5,273.88s1.38,7.13,2.5,12.25,2.75,6.88,4.88,6.25,1.88-4.62,1-6.75-6.12-12.87-6.12-12.87Z" style="fill:#9e540a;stroke:#000;stroke-linecap:round;stroke-linejoin:round;stroke-width:0.30000001192092896px"/><path d="M950,274.13v12.5c0,5.25,1.25,7.38,3.63,7.25s2.75-4.12,2.25-6.5-3.5-13.87-3.5-13.87Z" style="fill:#9e540a;stroke:#000;stroke-linecap:round;stroke-linejoin:round;stroke-width:0.30000001192092896px"/><path d="M950,274c-6.62-.12-7.25-2.5-7.25-2.5a30,30,0,0,1-1-4.87c-.12-.25-1.87-4-1.37-5.62-.62-1.5-2.12-5.12-.75-5.75-.62-1.75-1.62-3.75-1.75-5.62-.5-1.37-1.75-4.37-.75-5.37,0,0-2.37-5-1.25-6.25,0,0-1.12-4.87,0-6.12,0,0,0-5,1.25-6.25,0,0,0-4.87,1.13-6.12,0,.25,3.5-6.87,11.75-6.87l-.12,10.63H950Z" style="fill:#9e540a;stroke:#000;stroke-linecap:round;stroke-linejoin:round;stroke-width:0.30000001192092896px"/><path d="M950,246.75c-10.62-.12-12.87-2.5-12.87-2.5M950,240.5c-10.62,0-14.12-2.5-14.12-2.5M950,234.38c-10.62-.12-14.12-2.5-14.12-2.5M950,228.13c-10.62-.12-12.87-2.5-12.87-2.5m12.75-2.37c.13,0-8,0-9.25-1.25l-2.37-2.37M950,269c-3.12,0-6.62-.5-8.25-2.37M950,264a17.79,17.79,0,0,1-9.37-2.37,5.26,5.26,0,0,1-.25-.62m9.63-3.12c-7.75-.12-9.87-1.75-10.37-2.62M950,252.88c-10.62,0-11.75-2.5-11.75-2.5l-.37-.75" style="fill:none;stroke:#000;stroke-linecap:round;stroke-linejoin:round;stroke-width:0.30000001192092896px"/><path d="M950,274c6.63-.12,7.25-2.5,7.25-2.5a30,30,0,0,0,1-4.87c.13-.25,1.88-4,1.38-5.62.63-1.5,2.13-5.12.75-5.75.63-1.75,1.63-3.75,1.75-5.62.5-1.37,1.75-4.37.75-5.37,0,0,2.38-5,1.25-6.25,0,0,1.13-4.87,0-6.12,0,0,0-5-1.25-6.25,0,0,0-4.87-1.12-6.12,0,.25-3.5-6.87-11.75-6.87l.13,10.63H950Z" style="fill:#9e540a;stroke:#000;stroke-linecap:round;stroke-linejoin:round;stroke-width:0.30000001192092896px"/><path d="M950,246.75c10.63-.12,12.88-2.5,12.88-2.5M950,240.5c10.63,0,14.13-2.5,14.13-2.5M950,234.38c10.63-.12,14.13-2.5,14.13-2.5M950,228.13c10.63-.12,12.88-2.5,12.88-2.5m-12.75-2.37c-.12,0,8,0,9.25-1.25l2.38-2.37M950,269c3.13,0,6.63-.5,8.25-2.37M950,264a17.79,17.79,0,0,0,9.38-2.37,5.26,5.26,0,0,0,.25-.62M950,257.88c7.75-.12,9.88-1.75,10.38-2.62M950,252.88c10.63,0,11.75-2.5,11.75-2.5l.38-.75" style="fill:none;stroke:#000;stroke-linecap:round;stroke-linejoin:round;stroke-width:0.30000001192092896px"/><path d="M900,389c-5.37,5-15.75,1.75-19-.5-3.37,1.13-12.37-2.37-14.75-6.25-6.5.88-8.75-8.37-7.62-10.75,1.75-3.5-1.37-5.75.88-8.12,3.13-3-1.75-5.87,1.25-7.87s-.75-5.62,2.25-7.87-1.62-5.62,1.63-7.25-.37-5.87,2.38-7.5-1.62-5.75,2.13-7.62.38-5.12,3.25-6.5c3.13-1.62.25-5,3.13-6.12,3.25-1.37.88-5,3.63-6,2.38-.87.88-3.12,2.38-5.12H900" style="fill:#009e49;stroke:#000;stroke-linecap:round;stroke-linejoin:round;stroke-width:0.30000001192092896px"/><path d="M887.63,302.25c-2.5,2.5.5,4.38-2,7.38s-.25,4.75-2.37,7.5,1,4.13-1.37,7.25.5,4.88-2.12,7.38.5,4.88-2.12,7.63.5,4.75-2,7.25.38,5.38-2.12,7.88.5,5.88-2.37,8.88.5,5.38-1.75,7.63-.25,4.75-1.87,6.38-1.87,3.88-1.25,4.88m26.25-79.12c-2.25,3.13,1.25,4.5-.87,7s.88,3.5-.75,6.5,1.25,3.75-.87,6.75,1.13,5.38-1.12,8.38,1.13,4.63-1,7.63,1,4.75-.87,7,1.38,4.63-1,7.5,1,4.88-.87,7.38.75,5.38-.87,7.5,1.13,5.13-1.25,7.88.5,4.63-.87,6.5-2.5,4.63-1.12,5.38" style="fill:none;stroke:#000;stroke-linecap:round;stroke-linejoin:round;stroke-width:0.30000001192092896px"/><path d="M900,389c5.38,5,15.75,1.75,19-.5,3.38,1.13,12.38-2.37,14.75-6.25,6.5.88,8.75-8.37,7.63-10.75-1.75-3.5,1.38-5.75-.87-8.12-3.12-3,1.75-5.87-1.25-7.87s.75-5.62-2.25-7.87,1.63-5.62-1.62-7.25.38-5.87-2.37-7.5,1.63-5.75-2.12-7.62-.37-5.12-3.25-6.5c-3.12-1.62-.25-5-3.12-6.12-3.25-1.37-.87-5-3.62-6-2.37-.87-.87-3.12-2.37-5.12H900" style="fill:#009e49;stroke:#000;stroke-linecap:round;stroke-linejoin:round;stroke-width:0.30000001192092896px"/><path d="M912.38,302.25c2.5,2.5-.5,4.38,2,7.38s.25,4.75,2.38,7.5-1,4.13,1.38,7.25-.5,4.88,2.13,7.38-.5,4.88,2.13,7.63-.5,4.75,2,7.25S924,352,926.5,354.5s-.5,5.88,2.38,8.88-.5,5.38,1.75,7.63.25,4.75,1.88,6.38,1.88,3.88,1.25,4.88M907.5,303.13c2.25,3.13-1.25,4.5.88,7s-.87,3.5.75,6.5-1.25,3.75.88,6.75-1.12,5.38,1.13,8.38-1.12,4.63,1,7.63-1,4.75.88,7-1.37,4.63,1,7.5-1,4.88.88,7.38-.75,5.38.88,7.5-1.12,5.13,1.25,7.88-.5,4.63.88,6.5,2.5,4.63,1.13,5.38" style="fill:none;stroke:#000;stroke-linecap:round;stroke-linejoin:round;stroke-width:0.30000001192092896px"/><path d="M900,389V301.5" style="fill:none;stroke:#009e49;stroke-linecap:round;stroke-linejoin:round;stroke-width:2.200000047683716px"/><path d="M900,306c-1.12,4.88,1.63,9.13,0,13.25s1.13,5.63.25,8.88,1.13,5.63-.25,9.13,1.88,6.25,0,10.88,1.25,5.63,0,10.25c-1.37,5.25,2.38,8,0,11.75s2.13,4.63.25,8.88,1.13,5.75-.25,10" style="fill:none;stroke:#000;stroke-linecap:round;stroke-linejoin:round;stroke-width:0.30000001192092896px"/><path d="M901.88,321.75c-.62,1.38,1.88,4.63.5,7.13s.75,6.13-.75,9.13,2.38,6.75.88,10.25.75,7.88,0,11.13,1.63,9.5,0,11.75,1.63,3-.25,8.75-3.12.88-2-.87c2.38-3.87-2.62-5.12-.25-8.87s-1.37-6.5,0-11.75c1.25-4.62-1.87-5.75,0-10.25s-1.37-7.37,0-10.87-.75-5.87.25-9.12-1.87-4.87-.25-8.87C901.25,315.25,902.5,320.38,901.88,321.75Zm-10.5,4c-.87,1.5,1.5,4.38-.62,7.25-1.5,2,1,4.38-1.12,7.25-1.37,2,1.38,4.5-.5,7.38-1.25,1.63.88,4.75-.62,7.13s.75,4.5-1.87,7.75c-1.5,1.75,1.13,6.13-.5,7.5s-.12,6.75-1.25,7.5,0,4.75-2.75,5.63c1.38-1.87-1.37-3.75.88-6.5s-.37-5.87,1.25-7.87-1-4.87.88-7.5-1.37-4.62.88-7.37-.87-5.12,1-7.5-1.12-3.87.88-7-1.37-4.62,1-7.62-1-5.37,1.13-8.37-.75-3.75.88-6.75C893.88,317.75,892.38,324.25,891.38,325.75Zm-6.25-8.12c-1.25,2,.5,4.38-1.37,6.88s0,5.88-1.87,8,.5,6-1.87,7.63-.87,6.5-2.75,8.13,0,6.25-2.12,8.63-1.12,7.25-2.37,8.38,1.63,3.5-.37,5.13-2.12,4.88-4.87,7c1.63-1.62-.5-4,1.88-6.37s-1-4.62,1.75-7.62-.12-6.25,2.38-8.87-.5-5.25,2.13-7.87-.5-4.37,2-7.25-.37-5,2.13-7.62-.25-4.37,2.13-7.37-.75-4.5,1.38-7.25a4.76,4.76,0,0,0,1-3.37C885.75,309.88,885.75,316.63,885.13,317.63Z" style="fill:#fcd116;stroke:#000;stroke-linecap:round;stroke-linejoin:round;stroke-width:0.30000001192092896px"/><path d="M882.63,304.38c0-26.25,3.63-35.37,17.38-35.37s17.38,9.13,17.38,35.38Z" style="fill:#ce1126;stroke:#000;stroke-linecap:round;stroke-linejoin:round;stroke-width:0.30000001192092896px"/><path d="M882.63,304.38c0-26.25,3.63-35.37,17.38-35.37a12,12,0,0,0-11.12,8.13c-1.12,3.25-.5,3,.88,1.75s.75,1.5-.5,3-2.25,5.88-.62,4.5,2.88.13,1.13,2.63-3.25,8.13-1.5,6.13,2.13,1.25,1,2.88-.87,3.13,0,2.38.88,2.63,0,4Zm23.88-.5c0-3.87.13-13-2-16-1.5-2.37-1.5-4.87.25-2.12s2.63,1.38,1.38-1.37c-1.5-3.5-3.5-7.37-3-8.12s1-.5,2.25,1.38,1.5-.87.13-2.75-1.25-2.12,1.63-.87c5.13,2.13,7.63,8.25,7.63,28.88Z" style="stroke:#000;stroke-linecap:round;stroke-linejoin:round;stroke-width:0.30000001192092896px"/><path d="M900,308.13c-5.5,0-11.5-.87-15.5-2.5-4.75-1.87-5-3.5-3.37-5.5,1.25-1.5,3.75-.62,6.25.5s9.13,1.75,12.63,1.75,10.25-.75,12.63-1.87,5-1.87,6.25-.37c1.63,2,1.38,3.63-3.37,5.5C911.5,307.25,905.5,308.13,900,308.13Z" style="fill:#ce1126;stroke:#000;stroke-linecap:round;stroke-linejoin:round;stroke-width:0.30000001192092896px"/><path d="M0,0H600V300H0Z" style="fill:#002868"/><path d="M0,0V33.54L532.92,300H600V266.4L67.08,0ZM600,0V33.54L67.08,300H0V266.4L532.92,0Z" style="fill:#fff"/><path d="M250,0V300H350V0ZM0,100V200H600V100Z" style="fill:#fff"/><path d="M0,120v60H600V120ZM270,0V300h60V0ZM0,300,200,200h44.72l-200,100ZM0,0,200,100H155.28L0,22.36ZM355.28,100l200-100H600L400,100ZM600,300,400,200h44.72L600,277.64Z" style="fill:#c8102e"/></svg>