<svg xmlns="http://www.w3.org/2000/svg" viewBox="0 0 1200 600"><title>Tuvalu</title><rect width="1200" height="600" style="fill:#012169"/><path d="M0,300H600V0h600V600H0Z" style="fill:#009cde"/><path d="M645.34,490.91l29.44,90.6-77.07-56H693l-77.07,56Z" style="fill:#fedd00"/><path d="M817.46,464,788,554.6,758.59,464l77.07,56H740.4Z" style="fill:#fedd00"/><path d="M817.46,342,788,432.61,758.59,342l77.07,56H740.4Z" style="fill:#fedd00"/><path d="M943.47,433.17,914,523.77l-29.44-90.6,77.07,56H866.4Z" style="fill:#fedd00"/><path d="M943.47,167.75,914,258.35l-29.44-90.6,77.07,56H866.4Z" style="fill:#fedd00"/><path d="M996.44,340l29.44,90.6-77.07-56h95.26l-77.07,56Z" style="fill:#fedd00"/><path d="M1049.36,131.56l-29.44,90.6-29.44-90.6,77.07,56H972.3Z" style="fill:#fedd00"/><path d="M1102.84,271.47l29.44,90.6-77.07-56h95.26l-77.07,56Z" style="fill:#fedd00"/><path d="M1102.84,37.41l29.44,90.6-77.07-56h95.26l-77.07,56Z" style="fill:#fedd00"/><path d="M0,0H600V300H0Z" style="fill:#012169"/><path d="M0,0V33.54L532.92,300H600V266.4L67.08,0ZM600,0V33.54L67.08,300H0V266.4L532.92,0Z" style="fill:#fff"/><path d="M250,0V300H350V0ZM0,100V200H600V100Z" style="fill:#fff"/><path d="M0,120v60H600V120ZM270,0V300h60V0ZM0,300,200,200h44.72l-200,100ZM0,0,200,100H155.28L0,22.36ZM355.28,100l200-100H600L400,100ZM600,300,400,200h44.72L600,277.64Z" style="fill:#c8102e"/></svg>