<svg xmlns="http://www.w3.org/2000/svg" viewBox="0 0 1235 650"><title>United_States</title><rect width="1235" height="650" style="fill:#b22234"/><path d="M0,75H1235m0,100H0M0,275H1235m0,100H0M0,475H1235m0,100H0" style="fill:none;stroke:#fff;stroke-width:50px"/><rect width="494" height="350" style="fill:#3c3b6e"/><path d="M41.17,15,52.92,51.18,22.15,28.82h38L29.41,51.18Z" style="fill:#fff"/><path d="M41.17,85l11.76,36.18L22.15,98.82h38L29.41,121.18Z" style="fill:#fff"/><path d="M41.17,155l11.76,36.18L22.15,168.82h38L29.41,191.18Z" style="fill:#fff"/><path d="M41.17,225l11.76,36.18L22.15,238.82h38L29.41,261.18Z" style="fill:#fff"/><path d="M41.17,295l11.76,36.18L22.15,308.82h38L29.41,331.18Z" style="fill:#fff"/><path d="M82.33,50,94.09,86.18,63.31,63.82h38L70.58,86.18Z" style="fill:#fff"/><path d="M82.33,120l11.76,36.18L63.31,133.82h38L70.58,156.18Z" style="fill:#fff"/><path d="M82.33,190l11.76,36.18L63.31,203.82h38L70.58,226.18Z" style="fill:#fff"/><path d="M82.33,260l11.76,36.18L63.31,273.82h38L70.58,296.18Z" style="fill:#fff"/><path d="M123.5,15l11.76,36.18L104.48,28.82h38L111.74,51.18Z" style="fill:#fff"/><path d="M123.5,85l11.76,36.18L104.48,98.82h38l-30.78,22.36Z" style="fill:#fff"/><path d="M123.5,155l11.76,36.18-30.78-22.36h38l-30.78,22.36Z" style="fill:#fff"/><path d="M123.5,225l11.76,36.18-30.78-22.36h38l-30.78,22.36Z" style="fill:#fff"/><path d="M123.5,295l11.76,36.18-30.78-22.36h38l-30.78,22.36Z" style="fill:#fff"/><path d="M164.67,50l11.76,36.18L145.65,63.82h38L152.91,86.18Z" style="fill:#fff"/><path d="M164.67,120l11.76,36.18-30.78-22.36h38l-30.78,22.36Z" style="fill:#fff"/><path d="M164.67,190l11.76,36.18-30.78-22.36h38l-30.78,22.36Z" style="fill:#fff"/><path d="M164.67,260l11.76,36.18-30.78-22.36h38l-30.78,22.36Z" style="fill:#fff"/><path d="M205.83,15l11.76,36.18L186.81,28.82h38L194.08,51.18Z" style="fill:#fff"/><path d="M205.83,85l11.76,36.18L186.81,98.82h38l-30.78,22.36Z" style="fill:#fff"/><path d="M205.83,155l11.76,36.18-30.78-22.36h38l-30.78,22.36Z" style="fill:#fff"/><path d="M205.83,225l11.76,36.18-30.78-22.36h38l-30.78,22.36Z" style="fill:#fff"/><path d="M205.83,295l11.76,36.18-30.78-22.36h38l-30.78,22.36Z" style="fill:#fff"/><path d="M247,50l11.76,36.18L228,63.82h38L235.24,86.18Z" style="fill:#fff"/><path d="M247,120l11.76,36.18L228,133.82h38l-30.78,22.36Z" style="fill:#fff"/><path d="M247,190l11.76,36.18L228,203.82h38l-30.78,22.36Z" style="fill:#fff"/><path d="M247,260l11.76,36.18L228,273.82h38l-30.78,22.36Z" style="fill:#fff"/><path d="M288.17,15l11.76,36.18L269.15,28.82h38L276.41,51.18Z" style="fill:#fff"/><path d="M288.17,85l11.76,36.18L269.15,98.82h38l-30.78,22.36Z" style="fill:#fff"/><path d="M288.17,155l11.76,36.18-30.78-22.36h38l-30.78,22.36Z" style="fill:#fff"/><path d="M288.17,225l11.76,36.18-30.78-22.36h38l-30.78,22.36Z" style="fill:#fff"/><path d="M288.17,295l11.76,36.18-30.78-22.36h38l-30.78,22.36Z" style="fill:#fff"/><path d="M329.33,50l11.76,36.18L310.31,63.82h38L317.58,86.18Z" style="fill:#fff"/><path d="M329.33,120l11.76,36.18-30.78-22.36h38l-30.78,22.36Z" style="fill:#fff"/><path d="M329.33,190l11.76,36.18-30.78-22.36h38l-30.78,22.36Z" style="fill:#fff"/><path d="M329.33,260l11.76,36.18-30.78-22.36h38l-30.78,22.36Z" style="fill:#fff"/><path d="M370.5,15l11.76,36.18L351.48,28.82h38L358.74,51.18Z" style="fill:#fff"/><path d="M370.5,85l11.76,36.18L351.48,98.82h38l-30.78,22.36Z" style="fill:#fff"/><path d="M370.5,155l11.76,36.18-30.78-22.36h38l-30.78,22.36Z" style="fill:#fff"/><path d="M370.5,225l11.76,36.18-30.78-22.36h38l-30.78,22.36Z" style="fill:#fff"/><path d="M370.5,295l11.76,36.18-30.78-22.36h38l-30.78,22.36Z" style="fill:#fff"/><path d="M411.67,50l11.76,36.18L392.65,63.82h38L399.91,86.18Z" style="fill:#fff"/><path d="M411.67,120l11.76,36.18-30.78-22.36h38l-30.78,22.36Z" style="fill:#fff"/><path d="M411.67,190l11.76,36.18-30.78-22.36h38l-30.78,22.36Z" style="fill:#fff"/><path d="M411.67,260l11.76,36.18-30.78-22.36h38l-30.78,22.36Z" style="fill:#fff"/><path d="M452.83,15l11.76,36.18L433.81,28.82h38L441.08,51.18Z" style="fill:#fff"/><path d="M452.83,85l11.76,36.18L433.81,98.82h38l-30.78,22.36Z" style="fill:#fff"/><path d="M452.83,155l11.76,36.18-30.78-22.36h38l-30.78,22.36Z" style="fill:#fff"/><path d="M452.83,225l11.76,36.18-30.78-22.36h38l-30.78,22.36Z" style="fill:#fff"/><path d="M452.83,295l11.76,36.18-30.78-22.36h38l-30.78,22.36Z" style="fill:#fff"/></svg>