<svg xmlns="http://www.w3.org/2000/svg" viewBox="0 0 945 630"><title>Uruguay</title><path d="M0,0H945V630H0Z" style="fill:#fff"/><path d="M350,70H945v70H350Z" style="fill:#0038a8"/><path d="M350,210H945v70H350Z" style="fill:#0038a8"/><path d="M0,350H945v70H0Z" style="fill:#0038a8"/><path d="M0,490H945v70H0Z" style="fill:#0038a8"/><path d="M167.08,209.22l11.59,17.3c-47.61,34.45-18.54,54.83-52.28,65.86,21-20.48-2.77-23.64,14.91-66.32" style="fill:#fcd116;stroke:#7b3f00;stroke-linecap:square;stroke-miterlimit:20;stroke-width:0.6110000014305115px"/><path d="M145.2,193.6l-4,20.43c-58-9.3-51.88,25.66-83.54,9.6C86.94,224,73,204.69,115.72,187" style="fill:#fcd116;stroke:#7b3f00;stroke-linecap:square;stroke-miterlimit:20;stroke-width:0.6000000238418579px"/><path d="M145.2,193.6,136.06,192l.09.38c-24.39,6-37.63,16.09-48,23.77-5.19,3.84-9.67,7.11-14.52,8.88a21.78,21.78,0,0,1-10.07,1.21c25.18,8.94,23.51-20.84,77.61-12.17Z" style="fill:#7b3f00;stroke:#7b3f00;stroke-linecap:square;stroke-miterlimit:20;stroke-width:0.27300000190734863px"/><path d="M135.87,191.21c-49.19,12-53.84,41.05-78.25,32.41" style="fill:none;stroke:#7b3f00;stroke-miterlimit:20;stroke-width:0.6000000238418579px"/><path d="M175,175l-16.33-16.33L85.16,264.84l106.17-73.5L175,175,85.16,264.84" style="fill:#fcd116;stroke:#7b3f00;stroke-miterlimit:20;stroke-width:0.6110000014305115px"/><path d="M140.78,167.08l-17.3,11.59C89,131.05,68.65,160.12,57.62,126.38c20.48,21,23.83-2.73,66.52,14.95" style="fill:#fcd116;stroke:#7b3f00;stroke-linecap:square;stroke-miterlimit:20;stroke-width:0.6000000238418579px"/><path d="M140.78,167.08l-5.3-7.63-.2.33c-21.47-13-38-15.23-50.76-17.14-6.39-1-11.86-1.81-16.55-4a21.78,21.78,0,0,1-8-6.26c11.48,24.13,31.36,1.89,63.48,46.28Z" style="fill:#7b3f00;stroke:#7b3f00;stroke-linecap:square;stroke-miterlimit:20;stroke-width:0.27300000190734863px"/><path d="M135.87,158.79c-43.29-26.27-67.1-9-78.25-32.41" style="fill:none;stroke:#7b3f00;stroke-miterlimit:20;stroke-width:0.6000000238418579px"/><path d="M175,175V151.9L47.95,175l127,23.1V175h-127" style="fill:#fcd116;stroke:#7b3f00;stroke-miterlimit:20;stroke-width:0.6000000238418579px"/><path d="M175,175v0h-127l127,23.1" style="fill:#7b3f00"/><path d="M156.4,145.2l-20.43-4c9.3-58-25.66-51.88-9.6-83.54C126,86.94,146.3,75.38,164,118.06" style="fill:#fcd116;stroke:#7b3f00;stroke-linecap:square;stroke-miterlimit:20;stroke-width:0.6000000238418579px"/><path d="M156.4,145.2l1.65-9.14-.38.09c-6-24.39-16.09-37.63-23.77-48-3.84-5.19-7.11-9.67-8.88-14.52a21.78,21.78,0,0,1-1.21-10.07c-8.94,25.18,20.84,23.51,12.17,77.61Z" style="fill:#7b3f00;stroke:#7b3f00;stroke-linecap:square;stroke-miterlimit:20;stroke-width:0.27300000190734863px"/><path d="M158.79,135.87c-12-49.19-41.05-53.84-32.41-78.25" style="fill:none;stroke:#7b3f00;stroke-miterlimit:20;stroke-width:0.6000000238418579px"/><path d="M175,175l16.33-16.33L85.16,85.16l73.5,106.17L175,175,85.16,85.16" style="fill:#fcd116;stroke:#7b3f00;stroke-miterlimit:20;stroke-width:0.6000000238418579px"/><path d="M175,175l-16.33,16.33L175,175,85.16,85.16l73.5,106.17" style="fill:#7b3f00"/><path d="M182.92,140.78l-11.59-17.3C218.95,89,189.88,68.65,223.62,57.62c-21,20.48,2.65,23.86-15,66.54" style="fill:#fcd116;stroke:#7b3f00;stroke-linecap:square;stroke-miterlimit:20;stroke-width:0.6000000238418579px"/><path d="M182.92,140.78l7.63-5.3-.33-.2c13-21.47,15.23-38,17.14-50.76,1-6.39,1.81-11.86,4-16.55a21.78,21.78,0,0,1,6.26-8c-24.13,11.48-1.89,31.36-46.28,63.48Z" style="fill:#7b3f00;stroke:#7b3f00;stroke-linecap:square;stroke-miterlimit:20;stroke-width:0.27300000190734863px"/><path d="M191.21,135.87c26.27-43.29,9-67.1,32.41-78.25" style="fill:none;stroke:#7b3f00;stroke-miterlimit:20;stroke-width:0.6000000238418579px"/><path d="M175,175h23.1L175,48,151.9,175H175V48" style="fill:#fcd116;stroke:#7b3f00;stroke-miterlimit:20;stroke-width:0.6000000238418579px"/><path d="M175,175h0V48L151.9,175" style="fill:#7b3f00"/><path d="M204.8,156.41l4-20.43c58,9.3,51.88-25.66,83.54-9.6-29.32-.36-16.26,19-58.94,36.71" style="fill:#fcd116;stroke:#7b3f00;stroke-linecap:square;stroke-miterlimit:20;stroke-width:0.6000000238418579px"/><path d="M204.8,156.4l9.14,1.65-.09-.38c24.39-6,37.63-16.09,48-23.77,5.19-3.84,9.67-7.11,14.52-8.88a21.78,21.78,0,0,1,10.07-1.21c-25.18-8.94-23.51,20.84-77.61,12.17Z" style="fill:#7b3f00;stroke:#7b3f00;stroke-linecap:square;stroke-miterlimit:20;stroke-width:0.27300000190734863px"/><path d="M214.13,158.79c49.19-12,53.84-41.05,78.25-32.41" style="fill:none;stroke:#7b3f00;stroke-miterlimit:20;stroke-width:0.6000000238418579px"/><path d="M175,175l16.33,16.33,73.5-106.17-106.17,73.5L175,175l89.84-89.84" style="fill:#fcd116;stroke:#7b3f00;stroke-miterlimit:20;stroke-width:0.6000000238418579px"/><path d="M175,175l-16.33-16.33L175,175l89.84-89.84-106.17,73.5" style="fill:#7b3f00"/><path d="M209.22,182.92l17.3-11.59c34.45,47.61,54.83,18.54,65.86,52.28-20.48-21-24.32,2.5-67-15.18" style="fill:#fcd116;stroke:#7b3f00;stroke-linecap:square;stroke-miterlimit:20;stroke-width:0.6000000238418579px"/><path d="M209.22,182.92l5.3,7.63.2-.33c21.47,13,38,15.23,50.76,17.14,6.39,1,11.86,1.81,16.55,4a21.78,21.78,0,0,1,8,6.26c-11.48-24.13-31.36-1.89-63.48-46.28Z" style="fill:#7b3f00;stroke:#7b3f00;stroke-linecap:square;stroke-miterlimit:20;stroke-width:0.27300000190734863px"/><path d="M214.13,191.21c43.29,26.27,67.1,9,78.25,32.41" style="fill:none;stroke:#7b3f00;stroke-miterlimit:20;stroke-width:0.6000000238418579px"/><path d="M175,175v23.1L302,175,175,151.9V175H302" style="fill:#fcd116;stroke:#7b3f00;stroke-miterlimit:20;stroke-width:0.6000000238418579px"/><path d="M175,175v0H302L175,151.9" style="fill:#7b3f00"/><path d="M193.6,204.8l20.43,4c-9.3,58,25.66,51.88,9.6,83.54C224,263.06,204.67,276.64,187,234" style="fill:#fcd116;stroke:#7b3f00;stroke-linecap:square;stroke-miterlimit:20;stroke-width:0.6000000238418579px"/><path d="M193.6,204.8,192,213.94l.38-.09c6,24.39,16.09,37.63,23.77,48,3.84,5.19,7.11,9.67,8.88,14.52a21.78,21.78,0,0,1,1.21,10.07c8.94-25.18-20.84-23.51-12.17-77.61Z" style="fill:#7b3f00;stroke:#7b3f00;stroke-linecap:square;stroke-miterlimit:20;stroke-width:0.27300000190734863px"/><path d="M191.21,214.13c12,49.19,41.05,53.84,32.41,78.25" style="fill:none;stroke:#7b3f00;stroke-miterlimit:20;stroke-width:0.6000000238418579px"/><path d="M175,175l-16.33,16.33,106.17,73.5-73.5-106.17L175,175l89.84,89.84" style="fill:#fcd116;stroke:#7b3f00;stroke-miterlimit:20;stroke-width:0.6000000238418579px"/><path d="M175,175l16.33-16.33L175,175l89.84,89.84-73.5-106.17" style="fill:#7b3f00"/><path d="M167.08,209.22l-7.63,5.3.33.2c-13,21.47-15.23,38-17.14,50.76-1,6.39-1.81,11.86-4,16.55a21.78,21.78,0,0,1-6.26,8c24.13-11.48,1.89-31.36,46.28-63.48Z" style="fill:#7b3f00;stroke:#7b3f00;stroke-linecap:square;stroke-miterlimit:20;stroke-width:0.27799999713897705px"/><path d="M158.79,214.13c-26.27,43.29-9,67.1-32.41,78.25" style="fill:none;stroke:#7b3f00;stroke-miterlimit:20;stroke-width:0.6110000014305115px"/><path d="M175,175H151.9l23.1,127,23.1-127H175v127" style="fill:#fcd116;stroke:#7b3f00;stroke-miterlimit:20;stroke-width:0.6110000014305115px"/><path d="M175,175h0v127l23.1-127" style="fill:#7b3f00"/><path d="M175,175l16.33,16.33L175,175,85.16,264.84l106.17-73.5" style="fill:#7b3f00"/><circle cx="175" cy="175" r="42.35" style="fill:#fcd116;stroke:#7b3f00;stroke-miterlimit:20;stroke-width:0.6110000014305115px"/><path d="M206.18,158.06c-2.69,3.08-4.23-2.31-13.86-2.31s-11.17,5.78-12.71,4.62,8.09-8.09,11.17-8.47,11.93,2.69,15.4,6.16M195,161.53c2.69,2.31.39,7.31-2.31,7.31s-7.7-4.62-5.39-7.7" style="fill:#7b3f00"/><path d="M182.31,165c.39-4.62,4.23-5.39,10.4-5.39s8.85,4.62,11.16,5.78c-2.7,0-5-3.85-11.17-3.85s-6.16,0-10.4,3.85m1.16.77c1.54-2.31,3.47,2.31,7.7,2.31a14,14,0,0,0,9.24-3.08c2.7-1.93-3.85,4.62-8.09,4.62s-10-2.31-8.85-3.85" style="fill:#7b3f00"/><path d="M153.44,161.14c-1.93.77-5,4.62,0,7.31C149.59,165.76,152.67,161.91,153.44,161.14Z" style="fill:#7b3f00"/><path d="M196.56,161.14c.77.77,3.85,4.62,0,7.31C201.57,165.76,198.49,161.91,196.56,161.14Z" style="fill:#7b3f00"/><path d="M168.84,177.7c-3.46.77-2.31,5.78-5.39,6.16s-4.62,3.85-4.23,3.46c1.93-1.54,6.16-2.7,9.24-2.7s3.85,1.93,6.54,1.93,3.46-1.93,6.54-1.93,7.32,1.16,9.24,2.7c.39.38-1.15-3.08-4.23-3.46s-1.93-5.39-5.39-6.16c0,1.54,1.15,1.15,1.54,3.46,0,1.93-3.46,1.93-4.23,0,.77,3.08-1.54,3.08-3.46,3.08s-4.23,0-3.46-3.08c-.77,1.93-4.23,1.93-4.23,0C167.69,178.85,168.84,179.24,168.84,177.7Z" style="fill:#7b3f00"/><path d="M156.9,190.79c-3.08,2.31-3.85,3.47-4.23,6.16a27.92,27.92,0,0,1,2.08-3.23l-.54-.23.64.09c.47-.63.88-1.17,2.05-2.79Z" style="fill:#7b3f00"/><path d="M154.85,193.57l0,.07a6.85,6.85,0,0,0,1.53.17l-1.48-.23Z" style="fill:#7b3f00"/><path d="M156.33,193.81a43,43,0,0,1,6,1.54,113.94,113.94,0,0,1,25.31,0,43,43,0,0,1,6-1.54c-4.24,0-9.9-3-12.51-3-3.08,0-3.85.77-6.16.77s-3.08-.77-6.16-.77C166.23,190.79,160.57,193.82,156.33,193.81Z" style="fill:#7b3f00"/><path d="M193.67,193.81a6.86,6.86,0,0,0,1.53-.17l0-.07-1.48.23Z" style="fill:#7b3f00"/><path d="M195.15,193.57l.64-.09-.54.23a27.92,27.92,0,0,1,2.08,3.23c-.39-2.69-1.15-3.85-4.23-6.16,1.17,1.61,1.59,2.16,2.05,2.79Z" style="fill:#7b3f00"/><path d="M195.25,193.72l0,0c-4,1.55-5.43,1.81-7.58,1.65-3.65,1.18-6.66,2.38-12.66,2.38s-9-1.19-12.66-2.38c-2.14.16-3.56-.1-7.58-1.65l0,0c12.09,5.21,10.77,7.08,20.25,7.08s8.16-1.87,20.25-7.08Z" style="fill:#7b3f00"/><path d="M154.77,193.69l0,0a5,5,0,0,1-.59-.16Z" style="fill:#7b3f00"/><path d="M195.23,193.69l.56-.21a5.1,5.1,0,0,1-.59.16l0,0Z" style="fill:#7b3f00"/><path d="M143.81,158.06c2.69,3.08,4.23-2.31,13.86-2.31s11.16,5.77,12.7,4.62-8.08-8.08-11.16-8.47-11.93,2.69-15.4,6.16M155,161.53c-2.69,2.31-.38,7.31,2.31,7.31s7.7-4.62,5.39-7.7" style="fill:#7b3f00"/><path d="M167.68,165c-.39-4.62-4.23-5.39-10.39-5.39s-8.85,4.62-11.16,5.77c2.69,0,5-3.85,11.16-3.85s6.16,0,10.39,3.85m-1.16.77c-1.54-2.31-3.46,2.31-7.7,2.31a14,14,0,0,1-9.24-3.08c-2.69-1.92,3.85,4.62,8.08,4.62s10-2.31,8.85-3.85" style="fill:#7b3f00"/><path d="M175,204.26c-1.93,0-6.93,1.15,0,1.15s1.93-1.15,0-1.15" style="fill:#7b3f00"/></svg>