<svg xmlns="http://www.w3.org/2000/svg" viewBox="0 0 1000 500"><title>Uzbekistan</title><path d="M0,0H1000V500H0Z" style="fill:#1eb53a"/><path d="M0,0H1000V250H0Z" style="fill:#0099b5"/><path d="M0,160H1000V340H0Z" style="fill:#ce1126"/><path d="M0,170H1000V330H0Z" style="fill:#fff"/><path d="M100,80a60,60,0,0,1,50-59.15,60,60,0,1,0,0,118.31A60,60,0,0,1,100,80Z" style="fill:#fff"/><polygon points="276.36 129.42 283.41 124.29 274.69 124.29 272 116 269.31 124.29 260.59 124.29 267.64 129.42 264.95 137.71 272 132.58 279.05 137.71 276.36 129.42" style="fill:#fff"/><polygon points="276.36 81.42 283.41 76.29 274.69 76.29 272 68 269.31 76.29 260.59 76.29 267.64 81.42 264.95 89.71 272 84.58 279.05 89.71 276.36 81.42" style="fill:#fff"/><polygon points="276.36 33.42 283.41 28.29 274.69 28.29 272 20 269.31 28.29 260.59 28.29 267.64 33.42 264.95 41.71 272 36.58 279.05 41.71 276.36 33.42" style="fill:#fff"/><polygon points="323.36 129.42 330.41 124.29 321.69 124.29 319 116 316.31 124.29 307.59 124.29 314.64 129.42 311.95 137.71 319 132.58 326.05 137.71 323.36 129.42" style="fill:#fff"/><polygon points="323.36 81.42 330.41 76.29 321.69 76.29 319 68 316.31 76.29 307.59 76.29 314.64 81.42 311.95 89.71 319 84.58 326.05 89.71 323.36 81.42" style="fill:#fff"/><polygon points="323.36 33.42 330.41 28.29 321.69 28.29 319 20 316.31 28.29 307.59 28.29 314.64 33.42 311.95 41.71 319 36.58 326.05 41.71 323.36 33.42" style="fill:#fff"/><polygon points="370.36 129.42 377.41 124.29 368.69 124.29 366 116 363.31 124.29 354.59 124.29 361.64 129.42 358.95 137.71 366 132.58 373.05 137.71 370.36 129.42" style="fill:#fff"/><polygon points="370.36 81.42 377.41 76.29 368.69 76.29 366 68 363.31 76.29 354.59 76.29 361.64 81.42 358.95 89.71 366 84.58 373.05 89.71 370.36 81.42" style="fill:#fff"/><polygon points="370.36 33.42 377.41 28.29 368.69 28.29 366 20 363.31 28.29 354.59 28.29 361.64 33.42 358.95 41.71 366 36.58 373.05 41.71 370.36 33.42" style="fill:#fff"/><polygon points="229.36 129.42 236.41 124.29 227.69 124.29 225 116 222.31 124.29 213.59 124.29 220.64 129.42 217.95 137.71 225 132.58 232.05 137.71 229.36 129.42" style="fill:#fff"/><polygon points="229.36 81.42 236.41 76.29 227.69 76.29 225 68 222.31 76.29 213.59 76.29 220.64 81.42 217.95 89.71 225 84.58 232.05 89.71 229.36 81.42" style="fill:#fff"/><polygon points="182.36 129.42 189.41 124.29 180.69 124.29 178 116 175.31 124.29 166.59 124.29 173.64 129.42 170.95 137.71 178 132.58 185.05 137.71 182.36 129.42" style="fill:#fff"/></svg>