<svg xmlns="http://www.w3.org/2000/svg" viewBox="0 0 600 360"><title>Vanuatu</title><rect width="600" height="180" style="fill:#d21034"/><rect y="180" width="600" height="180" style="fill:#009543"/><path d="M0,0,349.15,180,0,360Z"/><rect y="147.79" width="600" height="64.42"/><path d="M0,25.58,299.53,180,0,334.42Z" style="fill:#fdce12"/><rect y="170.53" width="600" height="18.95" style="fill:#fdce12"/><path d="M0,46.9,258.18,180,0,313.1Z"/><path d="M72.94,214.44v20.51c17.84,0,52.86-13.67,52.86-57.7s-37.35-52.2-48.53-52.2-45.69,8-45.69,44,33.85,39.36,40.52,39.36,31.68-6,28.85-33c0,7.67-8.67,23.85-26.85,23.85s-29.52-13.51-29.52-26.85,11-31.18,30.18-31.18,33.19,17,33.19,34.19S94.45,214.44,72.94,214.44Z" style="fill:#fdce12"/><path d="M57.3,187.73l1.06.69s8.44-19.26,31.14-33C86.63,157,71.43,164.6,57.3,187.73Z" style="fill:#fdce12;stroke:#fdce12"/><path d="M59.49,184.42s-2.63-5.38-.31-7.75S60.43,183,60.43,183l1-1.44s-1.56-6.57.19-7.94.88,6.32.88,6.32l1.06-1.38s-1.13-6.38.56-7.57.63,6,.63,6L66,175.54s-.94-6.07,1.13-7.5.25,5.75.25,5.75l1.38-1.5s-.63-5.57,1.13-6.82.25,5.25.25,5.25l1.25-1.31S71,164.22,72.69,163s.13,4.94.13,4.94l1.31-1.25s-.31-5.19,1.81-6.19-.38,4.88-.38,4.88L77,164.16s.44-6.07,2.25-6.63-.81,5.38-.81,5.38l1.31-1.06s.69-5.19,2.69-5.82-1.25,4.75-1.25,4.75l1.31-1s1.44-5.19,3.31-5.75-1.94,4.88-1.94,4.88l1.25-.88s2.06-4.69,3.75-5S87,156.9,87,156.9l1.56-.94s2.69-4.88,3.63-3.38-3.75,3.69-3.75,3.69l-1.56.88s5.69-2.69,6.38-1.31-7.82,2.25-7.82,2.25l-1.38.94s5.69-1.56,5-.13S82.75,160,82.75,160l-1.31.94s5.69-1.38,4.94-.06-6.32,1.19-6.32,1.19l-1.38,1.13s5.57-1.44,4.75.25-7.13,1.63-7.13,1.63l-1.56,1.44s5.88-2,5.38-.44-7.19,2.38-7.19,2.38l-1.5,1.5s6.32-2.13,4.44-.19-6.44,2.44-6.44,2.44l-1.81,2.19s6.25-3.75,5.38-1.63-7,3.56-7,3.56l-1.25,1.5s5.63-3.25,5.07-1.44-6.57,3.75-6.57,3.75l-1,1.38s6.63-3.94,6.07-1.94S61.43,183,61.43,183l-.81,1.25s6.13-3.5,6.19-1.81-7.19,3.38-7.19,3.38Z" style="fill:#fdce12"/><path d="M93.33,187.73l-1.06.69s-8.44-19.26-31.14-33C64,157,79.2,164.6,93.33,187.73Z" style="fill:#fdce12;stroke:#fdce12"/><path d="M91.14,184.42s2.63-5.38.31-7.75S90.2,183,90.2,183l-1-1.44S90.77,175,89,173.6s-.88,6.32-.88,6.32l-1.06-1.38s1.13-6.38-.56-7.57-.63,6-.63,6l-1.25-1.44s.94-6.07-1.13-7.5-.25,5.75-.25,5.75l-1.38-1.5s.63-5.57-1.13-6.82-.25,5.25-.25,5.25l-1.25-1.31s.38-5.19-1.31-6.38-.13,4.94-.13,4.94l-1.31-1.25s.31-5.19-1.81-6.19.38,4.88.38,4.88l-1.44-1.25s-.44-6.07-2.25-6.63.81,5.38.81,5.38l-1.31-1.06s-.69-5.19-2.69-5.82,1.25,4.75,1.25,4.75l-1.31-1s-1.44-5.19-3.31-5.75,1.94,4.88,1.94,4.88L65.5,158s-2.06-4.69-3.75-5,1.88,3.88,1.88,3.88L62.06,156s-2.69-4.88-3.63-3.38,3.75,3.69,3.75,3.69l1.56.88s-5.69-2.69-6.38-1.31,7.82,2.25,7.82,2.25l1.38.94s-5.69-1.56-5-.13S67.88,160,67.88,160l1.31.94s-5.69-1.38-4.94-.06,6.32,1.19,6.32,1.19l1.38,1.13s-5.57-1.44-4.75.25,7.13,1.63,7.13,1.63l1.56,1.44s-5.88-2-5.38-.44,7.19,2.38,7.19,2.38l1.5,1.5s-6.32-2.13-4.44-.19,6.44,2.44,6.44,2.44L83,174.41s-6.25-3.75-5.38-1.63,7,3.56,7,3.56l1.25,1.5s-5.63-3.25-5.07-1.44,6.57,3.75,6.57,3.75l1,1.38s-6.63-3.94-6.07-1.94S89.2,183,89.2,183l.81,1.25s-6.13-3.5-6.19-1.81S91,185.86,91,185.86Z" style="fill:#fdce12"/></svg>