<svg xmlns="http://www.w3.org/2000/svg" viewBox="0 0 500 500"><title>Vatican_City</title><rect width="500" height="500" style="fill:#fff"/><rect width="250" height="500" style="fill:#ffe000"/><path d="M356.21,198.06l3.22.77,5.13.83,2.35.26-.42,10a64.9,64.9,0,0,1-1.54,9.79,48.11,48.11,0,0,1-3.16,6.64l-1.54,2.35-9.06-7.85a31,31,0,0,0,2.1-3.4,38.92,38.92,0,0,0,1.54-4.77l.89-5.18.49-6.56Zm-11.4,30.3,8.25,7.2a15.59,15.59,0,0,1-2.67,1.94,14.72,14.72,0,0,1-6.31,1.46,11.6,11.6,0,0,1-4.47-1.24c-3.14-1.44-6.61-2.95-8.63-5.75a5.94,5.94,0,0,1-1-3.54,13.88,13.88,0,0,1,1.26-4,9.05,9.05,0,0,0,1,2.4,9.83,9.83,0,0,0,3.52,2.47,8.51,8.51,0,0,0,3.1.87,9.78,9.78,0,0,0,4.13-.65,9.26,9.26,0,0,0,1.78-1.21Z" style="fill:#fff;stroke:#000;stroke-linecap:round;stroke-linejoin:round;stroke-width:0.5px"/><path d="M331.73,175.53a16.67,16.67,0,0,1,.86,2,13.34,13.34,0,0,1,.57,3.72,14.46,14.46,0,0,1-.63,3.72,34.19,34.19,0,0,1-2.06,5.26c-.5,1.08-1.21,2.06-1.72,3.15-.82,1.75-1.4,3.59-2.12,5.38-.6,1.49-1.37,2.92-1.83,4.46a42,42,0,0,0-1.2,6.29,42.69,42.69,0,0,0-.46,5.49,33.84,33.84,0,0,0,.46,6.52,24.35,24.35,0,0,0,1.95,6.18,17.77,17.77,0,0,0,3,4.29,15.55,15.55,0,0,0,3.38,2.69,24.55,24.55,0,0,0,3.61,1.55c1.68.67,5.09,1.87,5.09,1.87s-4.71-2.32-6.35-4.27a13.68,13.68,0,0,1-2.58-5.78,22.69,22.69,0,0,1-.23-7.32,38.48,38.48,0,0,1,1.83-7.67c.84-2.64,2-5.17,3.09-7.73.77-1.84,1.66-3.64,2.4-5.49.88-2.19,1.75-4.39,2.46-6.64a19.43,19.43,0,0,0,1.09-4.18,15.22,15.22,0,0,0-.43-4.67,17.79,17.79,0,0,0-2.37-6.13,8.23,8.23,0,0,0-3-2.63,6.07,6.07,0,0,0-3.77-.83,3.09,3.09,0,0,0-1.06.74Z" style="fill:#fff;stroke:#000;stroke-linecap:round;stroke-linejoin:round;stroke-width:0.5px"/><path d="M342.32,189.12a48.47,48.47,0,0,0,1-5.44,25.38,25.38,0,0,0-.12-4.73,18.34,18.34,0,0,0-1-5.18,13.66,13.66,0,0,0-3.12-4.49,13.83,13.83,0,0,0-4.53-2.91,18.45,18.45,0,0,0-5.58-1,26,26,0,0,0-4.86.24,14.12,14.12,0,0,0-2.75.57,19.9,19.9,0,0,0-2.35,1.13l6,9.79a16.5,16.5,0,0,1,2.91-1.38,10.94,10.94,0,0,1,3.4-.24,9.75,9.75,0,0,1,3.4.65,11.41,11.41,0,0,1,3.51,2.66,14.77,14.77,0,0,1,3,4.39,19.44,19.44,0,0,1,.94,4.84c0,.35.09,1.07.09,1.07Z" style="fill:#fff;stroke:#000;stroke-linecap:round;stroke-linejoin:round;stroke-width:0.5px"/><path d="M343.41,181.34a22.85,22.85,0,0,0-2.07-4.69,12.76,12.76,0,0,0-4.45-4c-1.89-.94-6.2-1.24-6.2-1.24l2.28,4.23-4-.1-2.09-3.49L323,173.81l-1.91-3.13,4.09-1.89-1.88-3,4.08-.39,1.78,2.94a32.7,32.7,0,0,1,4.72.33,11.12,11.12,0,0,1,5.51,2.88,13.05,13.05,0,0,1,2.37,2.83,20.9,20.9,0,0,1,1.31,3.35Z" style="fill:#ffe000;stroke:#000;stroke-linecap:round;stroke-linejoin:round;stroke-width:0.5px"/><path d="M316.33,169l6.38,9.32m-3.59-10.95-3,1.76-2.86,2.17,6.18,9.44,2.75-2.12L325,177Z" style="fill:#ffe000;stroke:#000;stroke-linecap:round;stroke-linejoin:round;stroke-width:0.5px"/><path d="M330.76,207.17l3.58-7.38,3.83,1.52,1.55-3.81-3.81-1.77,2-4.26-2.8-1.26L333,194.3l-3.84-1.6-1.69,4,3.72,1.56-3.43,7.32Z" style="fill:#ffe000;stroke:#000;stroke-linecap:round;stroke-linejoin:round;stroke-width:0.5px"/><path d="M359.38,205l3.64-.08v4.21l3.51.17-.6,4.27-3.27-.21a30.53,30.53,0,0,1-1,3.7,31.66,31.66,0,0,1-1.93,3.48l-3.88-1a38.72,38.72,0,0,0,1.94-3.4,34.68,34.68,0,0,0,1.13-3.32l-4-.5.69-4,3.62.25Z" style="fill:#ffe000;stroke:#000;stroke-linecap:round;stroke-linejoin:round;stroke-width:0.5px"/><path d="M387.34,198.06l-3.22.77-5.13.83-2.35.26.42,10a64.9,64.9,0,0,0,1.54,9.79,48.11,48.11,0,0,0,3.16,6.64l1.54,2.35,9.06-7.85a31,31,0,0,1-2.1-3.4,38.92,38.92,0,0,1-1.54-4.77l-.89-5.18-.49-6.56Zm11.4,30.3-8.25,7.2a15.59,15.59,0,0,0,2.67,1.94,14.72,14.72,0,0,0,6.31,1.46,11.6,11.6,0,0,0,4.47-1.24c3.14-1.44,6.61-2.95,8.63-5.75a5.94,5.94,0,0,0,1-3.54,13.88,13.88,0,0,0-1.26-4,9.05,9.05,0,0,1-1,2.4,9.83,9.83,0,0,1-3.52,2.47,8.51,8.51,0,0,1-3.1.87,9.78,9.78,0,0,1-4.13-.65,9.26,9.26,0,0,1-1.78-1.21Z" style="fill:#fff;stroke:#000;stroke-linecap:round;stroke-linejoin:round;stroke-width:0.5px"/><path d="M411.82,175.53a16.67,16.67,0,0,0-.86,2,13.34,13.34,0,0,0-.57,3.72A14.46,14.46,0,0,0,411,185a34.19,34.19,0,0,0,2.06,5.26c.5,1.08,1.21,2.06,1.72,3.15.82,1.75,1.4,3.59,2.12,5.38.6,1.49,1.37,2.92,1.83,4.46a42,42,0,0,1,1.2,6.29,42.69,42.69,0,0,1,.46,5.49,33.84,33.84,0,0,1-.46,6.52,24.35,24.35,0,0,1-1.95,6.18,17.77,17.77,0,0,1-3,4.29,15.55,15.55,0,0,1-3.38,2.69,24.55,24.55,0,0,1-3.61,1.55c-1.68.67-5.09,1.87-5.09,1.87s4.71-2.32,6.35-4.27a13.68,13.68,0,0,0,2.58-5.78,22.69,22.69,0,0,0,.23-7.32,38.48,38.48,0,0,0-1.83-7.67c-.84-2.64-2-5.17-3.09-7.73-.77-1.84-1.66-3.64-2.4-5.49-.88-2.19-1.75-4.39-2.46-6.64a19.43,19.43,0,0,1-1.09-4.18,15.22,15.22,0,0,1,.43-4.67,17.79,17.79,0,0,1,2.37-6.13,8.23,8.23,0,0,1,3-2.63,6.07,6.07,0,0,1,3.77-.83,3.09,3.09,0,0,1,1.06.74Z" style="fill:#fff;stroke:#000;stroke-linecap:round;stroke-linejoin:round;stroke-width:0.5px"/><path d="M401.23,189.12a48.47,48.47,0,0,1-1-5.44,25.38,25.38,0,0,1,.12-4.73,18.34,18.34,0,0,1,1-5.18,13.66,13.66,0,0,1,3.12-4.49,13.83,13.83,0,0,1,4.53-2.91,18.45,18.45,0,0,1,5.58-1,26,26,0,0,1,4.86.24,14.12,14.12,0,0,1,2.75.57,19.9,19.9,0,0,1,2.35,1.13l-6,9.79a16.5,16.5,0,0,0-2.91-1.38,10.94,10.94,0,0,0-3.4-.24,9.75,9.75,0,0,0-3.4.65,11.41,11.41,0,0,0-3.51,2.66,14.77,14.77,0,0,0-3,4.39,19.44,19.44,0,0,0-.94,4.84c0,.35-.09,1.07-.09,1.07Z" style="fill:#fff;stroke:#000;stroke-linecap:round;stroke-linejoin:round;stroke-width:0.5px"/><path d="M400.14,181.34a22.85,22.85,0,0,1,2.07-4.69,12.76,12.76,0,0,1,4.45-4c1.89-.94,6.2-1.24,6.2-1.24l-2.28,4.23,4-.1,2.09-3.49,3.85,1.74,1.91-3.13-4.09-1.89,1.88-3-4.08-.39-1.78,2.94a32.7,32.7,0,0,0-4.72.33,11.12,11.12,0,0,0-5.51,2.88,13.05,13.05,0,0,0-2.37,2.83,20.9,20.9,0,0,0-1.31,3.35Z" style="fill:#ffe000;stroke:#000;stroke-linecap:round;stroke-linejoin:round;stroke-width:0.5px"/><path d="M427.22,169l-6.38,9.32m3.59-10.95,3,1.76,2.86,2.17-6.18,9.44-2.75-2.12L418.55,177Z" style="fill:#ffe000;stroke:#000;stroke-linecap:round;stroke-linejoin:round;stroke-width:0.5px"/><path d="M412.79,207.17l-3.58-7.38-3.83,1.52-1.55-3.81,3.81-1.77-2-4.26,2.8-1.26,2.12,4.09,3.84-1.6,1.69,4-3.72,1.56,3.43,7.32Z" style="fill:#ffe000;stroke:#000;stroke-linecap:round;stroke-linejoin:round;stroke-width:0.5px"/><path d="M384.17,205l-3.64-.08v4.21l-3.51.17.6,4.27,3.27-.21a30.53,30.53,0,0,0,1,3.7,31.66,31.66,0,0,0,1.93,3.48l3.88-1a38.72,38.72,0,0,1-1.94-3.4,34.68,34.68,0,0,1-1.13-3.32l4-.5-.69-4-3.62.25Z" style="fill:#ffe000;stroke:#000;stroke-linecap:round;stroke-linejoin:round;stroke-width:0.5px"/><path d="M351.33,147.12,345.85,153l3.38,10.19,1.93,7.16-5.55,5.17,10.15,14.1,32.25-3.1,10.36-11.1-4-3.57-.09-8.65L397.7,153l-5.08-5.14L388,135.61a36.12,36.12,0,0,0-1.77-5,15.56,15.56,0,0,0-1.83-2.58,19.06,19.06,0,0,0-2.57-2.78,17.08,17.08,0,0,0-2.92-1.8,15.77,15.77,0,0,0-3.37-1.49,23.44,23.44,0,0,0-7.58,0,15.71,15.71,0,0,0-3.37,1.49,16.92,16.92,0,0,0-2.92,1.8,19,19,0,0,0-2.58,2.78,15.66,15.66,0,0,0-1.83,2.58,36.12,36.12,0,0,0-1.77,5Z" style="fill:#fff;stroke:#000;stroke-linecap:round;stroke-linejoin:round;stroke-width:0.5px"/><ellipse cx="371.81" cy="194.41" rx="19.52" ry="5.79" style="fill:red;stroke:#000;stroke-linecap:round;stroke-linejoin:round;stroke-width:0.75px"/><path d="M392.65,186.63a11.51,11.51,0,0,0-1-.8,12.9,12.9,0,0,0-2.39-1.21,26.46,26.46,0,0,0-3.48-.93c-1.34-.31-2.68-.63-4-.81a39.55,39.55,0,0,0-4.82-.32c-1.72,0-5.16.24-5.16.24s-3.43-.26-5.16-.24a39.56,39.56,0,0,0-4.82.32c-1.36.18-2.71.5-4,.81a26.46,26.46,0,0,0-3.48.93,12.89,12.89,0,0,0-2.39,1.21,11.52,11.52,0,0,0-1,.8m43.74-8.54a5,5,0,0,0-1.72-1.18,1.79,1.79,0,0,0-1.32.3,2.59,2.59,0,0,0-.93,1.48,2.62,2.62,0,0,0,.12,1.56,1.75,1.75,0,0,0,.83,1c1,.39,3.08-.4,3.08-.4Zm1-.72a1.91,1.91,0,0,1,1.89,1.29m-48.65-.58-.06,2.78s2.12.79,3.08.4a1.75,1.75,0,0,0,.83-1,2.62,2.62,0,0,0,.12-1.56,2.59,2.59,0,0,0-.93-1.48,1.78,1.78,0,0,0-1.32-.3,5,5,0,0,0-1.72,1.18Zm-1-.72a1.91,1.91,0,0,0-1.89,1.29m39.63.27-1.69-.19m-26,.19,1.69-.19m15.2.16a4.71,4.71,0,0,1-1.52-.84m-4.56.84a4.71,4.71,0,0,0,1.52-.84m28.19-3.87A4.31,4.31,0,0,1,397,175l-.24.13a4.74,4.74,0,0,1-2,2.88,5.86,5.86,0,0,0-1.55-1,1.93,1.93,0,0,0-1.21,0,2.24,2.24,0,0,0-.95.86,2.48,2.48,0,0,0-.52,1.42,4.5,4.5,0,0,0,.78,1.64l-.52.9-.73.47a17.7,17.7,0,0,1-3.79-1.51,3.78,3.78,0,0,1-.9-1.81,3.59,3.59,0,0,0,1.12-1,1.89,1.89,0,0,0,0-1.68,2,2,0,0,0-1.68-.82,1.77,1.77,0,0,0-1.25.56,1.74,1.74,0,0,0-.52,1.38c.08.49.95,1.16.95,1.16s-.36.91-.77,1.09a11.78,11.78,0,0,1-3,1,7.82,7.82,0,0,1-3.26,0,3.41,3.41,0,0,1-1.79-1.11,1.65,1.65,0,0,1-.17-.6,6.9,6.9,0,0,0,1.81-.73,2.75,2.75,0,0,0,1.16-1.55,2.7,2.7,0,0,0-.6-1.85,3.59,3.59,0,0,0-1.51-1.21,3.17,3.17,0,0,0-.86-.13l-.19.17a2.9,2.9,0,0,1-1,.76h-.06l-.23.11-.15,0-.49.16a2.5,2.5,0,0,1,1,.55,1.37,1.37,0,0,1,.22.66,1.75,1.75,0,0,1,0,.43,2.36,2.36,0,0,1-.14.67,1.81,1.81,0,0,1-.33.7,1.55,1.55,0,0,1-.32.28l0,0h0a2.48,2.48,0,0,1-.68.3,3.14,3.14,0,0,1-.86,0,3.54,3.54,0,0,0,1.53-.31l0,0a2.14,2.14,0,0,0,.65-1,2.79,2.79,0,0,0,.1-.46,3.27,3.27,0,0,0,0-.63,1.53,1.53,0,0,0-.44-.83,3.91,3.91,0,0,0-3.76,0,1.53,1.53,0,0,0-.44.83,3.25,3.25,0,0,0,0,.63,2.79,2.79,0,0,0,.1.46,2.14,2.14,0,0,0,.65,1l0,0a3.53,3.53,0,0,0,1.53.31,3.14,3.14,0,0,1-.86,0,2.48,2.48,0,0,1-.68-.3h0l0,0a1.55,1.55,0,0,1-.32-.28,1.81,1.81,0,0,1-.33-.7,2.36,2.36,0,0,1-.14-.67,1.75,1.75,0,0,1,0-.43,1.37,1.37,0,0,1,.22-.66,2.5,2.5,0,0,1,1-.55l-.49-.16-.15,0-.23-.12h0a2.91,2.91,0,0,1-1-.76l-.19-.17a3.16,3.16,0,0,0-.86.13,3.6,3.6,0,0,0-1.51,1.21,2.7,2.7,0,0,0-.6,1.85,2.75,2.75,0,0,0,1.16,1.55,6.9,6.9,0,0,0,1.81.73,1.65,1.65,0,0,1-.17.6,3.41,3.41,0,0,1-1.79,1.11,7.82,7.82,0,0,1-3.26,0,11.78,11.78,0,0,1-3-1c-.41-.17-.77-1.09-.77-1.09s.87-.67.95-1.16a1.84,1.84,0,0,0-1.76-1.94,2.05,2.05,0,0,0-1.68.82,1.89,1.89,0,0,0,0,1.68,3.59,3.59,0,0,0,1.12,1,3.78,3.78,0,0,1-.9,1.81,17.7,17.7,0,0,1-3.79,1.51l-.73-.47-.52-.9a4.5,4.5,0,0,0,.78-1.64,2.48,2.48,0,0,0-.52-1.42,2.24,2.24,0,0,0-.95-.86,1.93,1.93,0,0,0-1.21,0,5.86,5.86,0,0,0-1.55,1,4.73,4.73,0,0,1-2-2.88l-.24-.13a4.3,4.3,0,0,1-1.46-.77l-.89.19s-.82.44-.83.83.75.78,1.09,1.2.57.73.83,1.12a4.17,4.17,0,0,1,.69,1.12c.13.46-.19,1,0,1.43a2.08,2.08,0,0,0,1.34,1.2c.52.11,1.52-.52,1.52-.52l0,4,2.06,1.86,1.95,4.06-.77,1,.23,2c1.5-1.92,4.1-2.76,6.44-3.43,3.15-.9,8.91-1,11.6-.94l1.45,0s8.86-.29,13.05.92c2.34.67,4.94,1.51,6.44,3.43l.23-2-.77-1,1.95-4.06,2.06-1.86,0-4s1,.62,1.52.52a2.08,2.08,0,0,0,1.34-1.2c.19-.44-.13-1,0-1.43a4.17,4.17,0,0,1,.69-1.12c.26-.38.54-.76.83-1.12s1.1-.66,1.09-1.2-.83-.83-.83-.83l-.89-.19Zm-29.67-.52a6.12,6.12,0,0,0,1,.76l0,0a2.85,2.85,0,0,0,.38.15,5.64,5.64,0,0,0,1.61.05h0a5.66,5.66,0,0,0,1.61-.05,2.89,2.89,0,0,0,.38-.14l.06,0a6.11,6.11,0,0,0,1-.76,2,2,0,0,0,.26-.43,2.14,2.14,0,0,0,0-1.74c-.31-.61-1-.9-1.62-1.26a15,15,0,0,0-1.6-.75,15,15,0,0,0-1.6.75c-.58.36-1.31.65-1.62,1.26a2.14,2.14,0,0,0,0,1.74,2,2,0,0,0,.26.43Z" style="fill:#ffe000;stroke:#000;stroke-linecap:round;stroke-linejoin:round;stroke-width:0.5px"/><path d="M396.15,166s-2.18-1-3.32-1.38a55.58,55.58,0,0,0-6.39-1.46c-2.49-.48-5.05-.61-7.52-1.19-.78-.18-1.51-.55-2.29-.72a8.16,8.16,0,0,0-3.29-.34,5.47,5.47,0,0,0-1.56.92,5.53,5.53,0,0,0-1.56-.92,8.14,8.14,0,0,0-3.29.34c-.78.16-1.51.53-2.29.72-2.47.58-5,.71-7.52,1.19a55.58,55.58,0,0,0-6.39,1.46c-1.14.36-3.32,1.38-3.32,1.38m39.49-9a6.78,6.78,0,0,0,1.46-1,1.9,1.9,0,0,0,.53-1.05,1.74,1.74,0,0,0-.45-1.29,1.81,1.81,0,0,0-1.26-.45,1.65,1.65,0,0,0-1.05.36,1.82,1.82,0,0,0-.61,1.13,1.88,1.88,0,0,0,.27,1.06A6.7,6.7,0,0,0,386.89,156.93Zm-30.22,0a6.7,6.7,0,0,0,1.1-1.24,1.88,1.88,0,0,0,.27-1.06,1.82,1.82,0,0,0-.61-1.13,1.65,1.65,0,0,0-1.05-.36,1.8,1.8,0,0,0-1.25.45,1.74,1.74,0,0,0-.45,1.29,1.9,1.9,0,0,0,.53,1.05A6.78,6.78,0,0,0,356.66,156.93Zm-8.21,3.6-2.39,3.12a3.45,3.45,0,0,0,.16,1.17,4.75,4.75,0,0,0,1.17,1.13l.17,4.28-2.26,3.92-.2,0,1.46.77a.86.86,0,0,0,.2,0c.88-.07,1.41-1.05,2.18-1.49a27.19,27.19,0,0,1,3-1.43c1.42-.6,2.87-1.15,4.35-1.6A37.31,37.31,0,0,1,362,169a28.36,28.36,0,0,1,4.42-.29q.74,0,1.47.06a34.73,34.73,0,0,1,3.89.69,34.8,34.8,0,0,1,3.9-.69,28.13,28.13,0,0,1,5.89.23,37.31,37.31,0,0,1,5.67,1.43c1.48.46,2.92,1,4.35,1.6a27.19,27.19,0,0,1,3,1.43c.76.44,1.3,1.42,2.18,1.49a.86.86,0,0,0,.2,0l1.46-.77-.2,0L396,170.23l.17-4.28a4.75,4.75,0,0,0,1.17-1.13,3.43,3.43,0,0,0,.16-1.17l-2.39-3.12a7.5,7.5,0,0,1-2,1.46,2.18,2.18,0,0,1-1.29,0,4.26,4.26,0,0,1-1.29-.89,16.81,16.81,0,0,1-2.59-2.43,14,14,0,0,1-1.05-1.74,16.48,16.48,0,0,1-4.13,2.43,9,9,0,0,1-4.69-.12,4.32,4.32,0,0,1-1-.61,9.68,9.68,0,0,0-10.57,0,4.34,4.34,0,0,1-1,.61,9,9,0,0,1-4.69.12,16.48,16.48,0,0,1-4.13-2.43,14,14,0,0,1-1.05,1.74A16.8,16.8,0,0,1,353,161.1a4.26,4.26,0,0,1-1.29.89,2.18,2.18,0,0,1-1.29,0,7.5,7.5,0,0,1-2-1.46Z" style="fill:#ffe000;stroke:#000;stroke-linecap:round;stroke-linejoin:round;stroke-width:0.5px"/><path d="M397.18,159.27a8.07,8.07,0,0,0,0-1.69,4.19,4.19,0,0,0-.63-1.42,8.75,8.75,0,0,0-1.13-1.17m-.29,5.54a2.8,2.8,0,0,0,1-.12,5,5,0,0,0,1.21-1.25s1.33.92,2.06.81a1.36,1.36,0,0,0,.85-.69,1.59,1.59,0,0,0,.24-1.13,1.5,1.5,0,0,0-.57-.73c-.46-.39-1.28-.33-1.58-.85a1.9,1.9,0,0,1,0-1.42,9.69,9.69,0,0,1,1.5-2.55c.35-.52,1.06-.88,1.13-1.5,0-.34-.4-.93-.4-.93a7,7,0,0,0-1.54.12,4.93,4.93,0,0,0-2.24,1.22,5.69,5.69,0,0,0-.88,1.93c-.19.5-.48,1.54-.48,1.54a5.77,5.77,0,0,0-1.74.24,3.42,3.42,0,0,0-1.74,1.54,2.47,2.47,0,0,0,0,1.82,3,3,0,0,0,1.21,1.38,6.89,6.89,0,0,0,1.94.57ZM348.16,155a8.75,8.75,0,0,0-1.13,1.17,4.19,4.19,0,0,0-.63,1.42,8.07,8.07,0,0,0,0,1.69m-3.39-9.1s-.44.6-.4.93c.07.62.78,1,1.13,1.5a9.69,9.69,0,0,1,1.5,2.55,1.9,1.9,0,0,1,0,1.42c-.3.52-1.12.46-1.58.85a1.5,1.5,0,0,0-.57.73,1.59,1.59,0,0,0,.24,1.13,1.36,1.36,0,0,0,.85.69c.73.11,2.06-.81,2.06-.81a5,5,0,0,0,1.21,1.25,2.8,2.8,0,0,0,1,.12,6.89,6.89,0,0,0,1.94-.57,3,3,0,0,0,1.21-1.38,2.47,2.47,0,0,0,0-1.82,3.42,3.42,0,0,0-1.74-1.54,5.77,5.77,0,0,0-1.74-.24s-.29-1-.48-1.54a5.69,5.69,0,0,0-.88-1.93,4.93,4.93,0,0,0-2.24-1.22,7,7,0,0,0-1.54-.12ZM370.11,153l1.66-.49,1.66.49m-2.9,4a6.68,6.68,0,0,1-1.54-2,1.49,1.49,0,0,1,.08-1.09,3.58,3.58,0,0,1,1.17-.93,5.29,5.29,0,0,1-1.78-1.34,1.72,1.72,0,0,1-.12-1.25,3.39,3.39,0,0,1,1.17-1.62,9.38,9.38,0,0,1,2.25-1.05,9.37,9.37,0,0,1,2.25,1.05,3.38,3.38,0,0,1,1.17,1.62,1.72,1.72,0,0,1-.12,1.25,5.29,5.29,0,0,1-1.78,1.34,3.58,3.58,0,0,1,1.17.93,1.49,1.49,0,0,1,.08,1.09,6.68,6.68,0,0,1-1.54,2l-1.23.08Zm4.53-5.38a13,13,0,0,1,3.6,2.22,1.64,1.64,0,0,1,.45,1.09c-.09,1.39-2.06,3.64-2.06,3.64l-4-1.66h-2.59l-4,1.66s-2-2.25-2.06-3.64a1.64,1.64,0,0,1,.45-1.09,13,13,0,0,1,3.6-2.22" style="fill:#ffe000;stroke:#000;stroke-linecap:round;stroke-linejoin:round;stroke-width:0.5px"/><path d="M368.87,133.85l1.61-1.24,1.3,0-1.33,0a3.72,3.72,0,0,1-.92-.86,1.84,1.84,0,0,1-.2-1.2,2.09,2.09,0,0,1,.89-1.36,12.8,12.8,0,0,1,3.1,0,2.08,2.08,0,0,1,.89,1.36,1.84,1.84,0,0,1-.2,1.2,3.72,3.72,0,0,1-.92.86l-1.33,0,1.3,0,1.61,1.24m10.52,1-.54.93m6.53-4-1.5.2m1.7,1.76-2.3.12m-.3-2.75c.29.19.83.57.92.93a2,2,0,0,1-.63,1.83c-.48.4-1.85.3-1.85.3m-36.34,6.72,3.39-.84c1.62-.39,3.22-.84,4.86-1.13a53.08,53.08,0,0,1,5.6-.71c2.34-.17,7-.11,7-.11s4.7-.05,7,.11a53.07,53.07,0,0,1,5.6.71c1.64.29,3.24.75,4.86,1.13l3.39.84m-34.31-6,.54.93m-6.53-4,1.5.2m-1.7,1.76,2.3.12m-1.3,3.22s2.51-.64,3.78-.9,2.77-.56,4.18-.74c1.61-.21,3.24-.31,4.86-.39,1.93-.09,5.78-.07,5.78-.07s3.85,0,5.78.07c1.63.07,3.25.18,4.86.39,1.4.18,2.79.46,4.18.74s3.78.9,3.78.9m-34-2.91s-1.37.1-1.85-.3a2,2,0,0,1-.63-1.83c.12-.49,1.11-1,1.11-1m12.63,14.8a59.42,59.42,0,0,0-7.16.73,44,44,0,0,0-7.24,1.94c-2.22.82-4.57,4.53-6.42,3-.4-.32.15-1,.34-1.49a8.67,8.67,0,0,1,1.55-2.52c.48-.54,1.6-.61,1.72-1.32.09-.52-.69-.82-.86-1.32a3.41,3.41,0,0,1-.11-2c.25-.82,1.31-1.24,1.55-2.06s-.51-1.57-.17-2.23c.43-.84,2.27-.56,2.4-1.49.07-.45-.77-.6-.92-1s.06-.65.06-1a3.1,3.1,0,0,0-.11-1.32c-.17-.35-.74-.43-.86-.8a1.14,1.14,0,0,1,.23-1.09c.21-.21.73.09.86-.17.27-.53-.51-1.06-.74-1.6a11.57,11.57,0,0,1-.8-1.95c-.13-.54-.59-1.38-.11-1.66s1.1.65,1.6,1a7.64,7.64,0,0,1,1.89,1.66c.34.5.15,1.3.59,1.72s1.55.1,2.1.57a1.93,1.93,0,0,1,.74,1.72c-.14.58-1.51.56-1.37,1.14s1.36.64,2.06.52c.41-.07.69-.45,1-.69a4.65,4.65,0,0,1,.77-.57,4.49,4.49,0,0,1,1.09-.19l-.43-.1s-.63-.51-.7-.87a1.23,1.23,0,0,1,.33-1,1.54,1.54,0,0,1,1.1-.43,1.31,1.31,0,0,1,.92.37,1.26,1.26,0,0,1,.33,1,1.18,1.18,0,0,1-.46.76,2.58,2.58,0,0,1-.92.29l.46.13,1.23,1.69,5.31-.29s.65-.67.53-1-.5-.53-1.13-.51c-1.72.08-2.07-1.37-2-2.41.05-.87,1.1-1.45,1.9-1.78s2.16.72,2.51,0-1.16-1-1.4-1.7a1.29,1.29,0,0,1,0-1,3.32,3.32,0,0,1,5.79,0,1.29,1.29,0,0,1,0,1c-.23.7-1.7,1-1.4,1.7s1.73-.27,2.51,0,1.85.91,1.9,1.78c.06,1-.29,2.48-2,2.41-.63,0-1,.12-1.13.51s.53,1,.53,1l5.31.29,1.23-1.69.46-.13a2.58,2.58,0,0,1-.92-.29,1.18,1.18,0,0,1-.46-.76,1.26,1.26,0,0,1,.33-1A1.31,1.31,0,0,1,382,131a1.54,1.54,0,0,1,1.1.43,1.23,1.23,0,0,1,.33,1c-.07.37-.7.87-.7.87l-.43.1a4.49,4.49,0,0,1,1.09.19,4.65,4.65,0,0,1,.77.57c.34.24.62.62,1,.69.7.12,1.9.17,2.06-.52s-1.24-.56-1.37-1.14a1.93,1.93,0,0,1,.74-1.72c.55-.48,1.57-.08,2.1-.57s.25-1.21.59-1.72a7.64,7.64,0,0,1,1.89-1.66c.51-.38,1.06-1.35,1.6-1s0,1.12-.11,1.66a11.57,11.57,0,0,1-.8,1.95c-.24.54-1,1.08-.74,1.6.13.26.65,0,.86.17a1.14,1.14,0,0,1,.23,1.09c-.12.37-.69.45-.86.8a3.1,3.1,0,0,0-.11,1.32c0,.32.16.67.06,1s-1,.58-.92,1c.14.93,2,.65,2.4,1.49.34.67-.38,1.52-.17,2.23s1.3,1.24,1.55,2.06a3.42,3.42,0,0,1-.11,2c-.16.5-.95.8-.86,1.32.12.71,1.23.78,1.72,1.32a8.67,8.67,0,0,1,1.55,2.52c.19.47.74,1.17.34,1.49-1.85,1.48-4.2-2.23-6.42-3a44,44,0,0,0-7.24-1.94,59.43,59.43,0,0,0-7.16-.73c-1.39-.08-4.19-.08-4.19-.08s-2.79,0-4.19.08Z" style="fill:#ffe000;stroke:#000;stroke-linecap:round;stroke-linejoin:round;stroke-width:0.5px"/><path d="M373.81,119.08l-2,0-2,0m3.39-6.78c.53-1.12-.4-1.95-1.35-2.77-1,.82-1.88,1.65-1.35,2.77m2.81,9.35c.78.06,1.73.85,2.32.34.27-.23.14-.73,0-1.06-.31-.76-1.68-.92-1.75-1.75s1-1,1.26-1.72a1.57,1.57,0,0,0,0-1.06c-.55-1.32-2.9-1.39-3.31-2.74-.18-.6,1.19-1.3,1.36-1.37.87-.38,1.94.53,2.8.16.58-.25,1.23-.82,1.21-1.46s-.75-1.26-1.38-1.54c-1.22-.53-3.24,1.18-4,.08s1.73-2.22,1.41-3.4c-.15-.56-1.4-1.05-1.4-1.05s-1.24.49-1.4,1.05c-.32,1.18,2.1,2.39,1.41,3.4s-2.77-.61-4-.08c-.63.27-1.36.85-1.38,1.54s.63,1.21,1.21,1.46c.86.37,1.93-.54,2.8-.16.17.08,1.54.78,1.36,1.37-.41,1.35-2.76,1.42-3.31,2.74a1.56,1.56,0,0,0,0,1.06c.22.67,1.31,1,1.26,1.72s-1.43,1-1.75,1.75c-.14.33-.27.83,0,1.06.59.51,1.54-.29,2.32-.34.49,0,1.46,0,1.46,0S372.75,121.61,373.24,121.65Z" style="fill:#ffe000;stroke:#000;stroke-linecap:round;stroke-linejoin:round;stroke-width:0.5px"/><path d="M390.75,190.7s-1.43-.6-2.16-.87c-1.32-.48-2.65-.93-4-1.29a26.72,26.72,0,0,0-4-.89,77.36,77.36,0,0,0-8.8,0,77.25,77.25,0,0,0-8.8,0,26.72,26.72,0,0,0-4,.89c-1.35.37-2.69.82-4,1.29-.73.26-2.16.87-2.16.87m40.38-44.5s-2.39-1-3.61-1.37c-1-.35-2-.72-3.09-1a38.23,38.23,0,0,0-3.89-.69q-2.82-.39-5.66-.56c-1.72-.1-5.16-.12-5.16-.12s-3.44,0-5.16.12q-2.84.17-5.66.56a38.23,38.23,0,0,0-3.89.69c-1,.26-2.07.62-3.09,1-1.21.42-3.61,1.37-3.61,1.37m-2.83,24.08s3.51-1.18,5.28-1.73,3.63-1.21,5.5-1.62a64.5,64.5,0,0,1,6.8-1c2.21-.24,6.66-.49,6.66-.49s4.44.25,6.66.49a64.46,64.46,0,0,1,6.8,1c1.87.41,3.68,1.05,5.5,1.62s5.28,1.73,5.28,1.73" style="fill:none;stroke:#000;stroke-linecap:round;stroke-linejoin:round;stroke-width:0.5px"/><path d="M306.66,180.81l20.23,17.34s-1,2.24-1.46,3.4a28.51,28.51,0,0,0-1,3.25c-.39,1.63-.83,5-.83,5L300,188.15c.33-4.94,3.11-6.7,6.67-7.34Z" style="fill:#ccc;stroke:#000;stroke-linejoin:round;stroke-width:0.5px"/><path d="M303.8,191.64l-4.86,5.43,3,2.92-4.69,4.58-3-3-5.1,5.44,0,6.75,11.62,9.1,4-3-.23-6.47,3.09,1.72,3.09-1.89.17,5.84-2.52-1.83-2.75,3.61-.29,6.41L314,235l10.61-9.42-.8-2.82-.46-2.54-.25-5,.4-5.49Z" style="fill:#ccc;stroke:#000;stroke-linejoin:round;stroke-width:0.5px"/><path d="M298.94,197.07l-.12,6,3.13-3.05Z" style="fill:#ccc;stroke:#000;stroke-linejoin:round;stroke-width:0.5px"/><path d="M314.39,228.09l-.36,6.85M310.3,207l.13,6.36m-3-3.47.17,5.18m-2.89-7.27.11,5.78m-4.29,3,.06,6.13m4.95-1.94,8.81,7.38,9-7.91m-34.2-13.38,11.52,9.84,3.78-3.38-3-2.52,3.32-3.15,2.58,2.23,2.92-3,3.78,3.66-3.43,2.69,3.2,2.92-3,2.8" style="fill:none;stroke:#000;stroke-linejoin:round;stroke-width:0.5px"/><path d="M380.27,245.87l9.72,8.92,2.15,6.29-12.53-1.33-7.13-7.06-7.59-7-32.81-28.43s.7-2.62,1.13-3.9c.62-1.86,1.37-3.68,2.11-5.49.19-.46.58-1.36.58-1.36l36.6,32.45Z" style="fill:#ccc;stroke:#000;stroke-linejoin:round;stroke-width:0.5px"/><path d="M388.53,247.21c5.42,7.57,14.54,14.73,17.31,18.17s4.55,6.71.52,11.11-8.61,1.9-12.23-.52-9.92-10.26-18.94-16.27Z" style="fill:#ccc;stroke:#000;stroke-linejoin:round;stroke-width:0.5px"/><path d="M385.34,260l-7-3.17m8.19-7.66c.48,1.59.11,3.35.72,4.88a20,20,0,0,0,2.8,4,12.8,12.8,0,0,0-2.05.45c-.95.37-2.39.54-2.63,1.53s.81,1.61,1.42,2.25a8.92,8.92,0,0,0,2.06,1.51,12.31,12.31,0,0,0,3.88,1.78c1.75.32,5-2.15,5.33-.4.13.73-1.48.26-2.14.59-1.55.76-2.33,2.42-1,3.58.88.74,2.26.47,3.4.56s2.35-.55,3.3,0c1.12.65,2.53,2.22,1.94,3.37s-2.9,1.15-4,.38c-.8-.57-.59-1.89-.71-2.87a7.32,7.32,0,0,1,0-.88" style="fill:#ccc;stroke:#000;stroke-linejoin:round;stroke-width:0.5px"/><circle cx="430.93" cy="296.03" r="25.94" style="fill:#ccc;stroke:#000;stroke-linejoin:round;stroke-width:0.5px"/><path d="M421.23,297.13a8.1,8.1,0,1,0,8.1,8.1l2.81-.12a8.1,8.1,0,1,0,8.1-8.1l.12-1.59a8.1,8.1,0,1,0-8.1-8.1l-2.81-.24a8.1,8.1,0,1,0-8.1,8.1Z" style="fill:#fff;stroke:#000;stroke-linejoin:round;stroke-width:0.5px"/><circle cx="430.93" cy="289.21" r="2.92" style="fill:#ccc;stroke:#000;stroke-linejoin:round;stroke-width:0.5px"/><circle cx="437.87" cy="296.03" r="2.92" style="fill:#ccc;stroke:#000;stroke-linejoin:round;stroke-width:0.5px"/><circle cx="431.06" cy="302.24" r="2.92" style="fill:#ccc;stroke:#000;stroke-linejoin:round;stroke-width:0.5px"/><circle cx="423.87" cy="296.03" r="2.92" style="fill:#ccc;stroke:#000;stroke-linejoin:round;stroke-width:0.5px"/><path d="M430.45,311.68c-1.07,2.19-2.52,3.19-4.38,4.38a12.65,12.65,0,0,0,8.77,0A10.64,10.64,0,0,1,430.45,311.68Zm-15.32-16c-2.19-1.07-3.19-2.52-4.38-4.38a12.65,12.65,0,0,0,0,8.77,10.64,10.64,0,0,1,4.38-4.38Zm31.85.73c2.19-1.07,3.19-2.52,4.38-4.38a12.65,12.65,0,0,1,0,8.77,10.64,10.64,0,0,0-4.38-4.38ZM431.3,280.2c-1.07-2.19-2.52-3.19-4.38-4.38a12.65,12.65,0,0,1,8.77,0A10.64,10.64,0,0,0,431.3,280.2Z" style="fill:#fff;stroke:#000;stroke-linejoin:round;stroke-width:0.5px"/><path d="M306.7,180.76a5,5,0,0,0,0-1.49,4.51,4.51,0,0,0-1.32-2,3.93,3.93,0,0,0-1.83-.92,4.91,4.91,0,0,0-2.2.17,7.52,7.52,0,0,0-1.35.66l-3,1.22-1.1,3.53a9.74,9.74,0,0,0-.79,1.73,4.26,4.26,0,0,0-.11,2,4,4,0,0,0,1.26,2,3.72,3.72,0,0,0,2.06.8,5.54,5.54,0,0,0,1.66-.37c.32-3.72,2-6.56,6.7-7.38Z" style="fill:#ffe000;stroke:#000;stroke-linejoin:round;stroke-width:0.5px"/><path d="M300.05,177.13l-7.75-3.4-.63.6L295.9,182s1.18-1.75,1.87-2.55,2.29-2.29,2.29-2.29Z" style="fill:#ffe000;stroke:#000;stroke-linejoin:round;stroke-width:0.5px"/><circle cx="291.46" cy="173.05" r="3.19" style="fill:#ffe000;stroke:#000;stroke-linejoin:round;stroke-width:0.5px"/><path d="M313.24,186.45a93.3,93.3,0,0,0,3.2,16.77l6.21,5.69c-1.32-5.85-3.69-11.69-3.67-17.54Z" style="fill:#ffe000;stroke:#000;stroke-linejoin:round;stroke-width:0.5px"/><path d="M322.61,194.48l-17.1-1.27,5.44,5,15.61.68.23-.8Z" style="fill:#ffe000;stroke:#000;stroke-linejoin:round;stroke-width:0.5px"/><path d="M343.67,213.38a12.38,12.38,0,0,0-7.57,7.43c-1.27.11-2.46.12-2.88-.83,1.07-6.94,6-9.11,7.15-9.55C343.36,209.88,342.8,212.21,343.67,213.38Z" style="fill:#ffe000;stroke:#000;stroke-linejoin:round;stroke-width:0.5px"/><path d="M349.18,218.56A12.38,12.38,0,0,0,341.6,226c-1.27.11-2.46.12-2.88-.83,1.07-6.94,6-9.11,7.15-9.55,3-.56,2.44,1.77,3.3,2.94Z" style="fill:#ffe000;stroke:#000;stroke-linejoin:round;stroke-width:0.5px"/><path d="M411.73,270.94a14.39,14.39,0,0,0-3,.3c.06,1.6-.59,3.32-2.36,5.25a6.67,6.67,0,0,1-4.73,2.41h0s-.57,3.53.52,4.65c1.27,1.31,5.42.78,5.42.78l.35-.23a25.94,25.94,0,0,1,6.38-8l.07-.25s.61-3.3-.43-4.3a1.69,1.69,0,0,0-2.2,0Z" style="fill:#ffe000;stroke:#000;stroke-linejoin:round;stroke-width:0.5px"/><circle cx="450.9" cy="275.08" r="3.53" style="fill:#ffe000;stroke:#000;stroke-linejoin:round;stroke-width:0.5px"/><circle cx="452.12" cy="316" r="3.53" style="fill:#ffe000;stroke:#000;stroke-linejoin:round;stroke-width:0.5px"/><circle cx="412.42" cy="318.31" r="3.53" style="fill:#ffe000;stroke:#000;stroke-linejoin:round;stroke-width:0.5px"/><path d="M437,180.81l-20.23,17.34s1,2.24,1.46,3.4a28.51,28.51,0,0,1,1,3.25c.39,1.63.83,5,.83,5l23.59-21.61c-.33-4.94-3.11-6.7-6.67-7.34Z" style="fill:#ffe000;stroke:#000;stroke-linejoin:round;stroke-width:0.5px"/><path d="M439.85,191.64l4.86,5.43-3,2.92,4.69,4.58,3-3,5.1,5.44,0,6.75-11.62,9.1-4-3,.23-6.47-3.09,1.72L433,213.21l-.17,5.84,2.52-1.83,2.75,3.61.29,6.41L429.6,235,419,225.6l.8-2.82.46-2.54.25-5-.4-5.49Z" style="fill:#ffe000;stroke:#000;stroke-linejoin:round;stroke-width:0.5px"/><path d="M444.71,197.07l.12,6L441.7,200Z" style="fill:#ffe000;stroke:#000;stroke-linejoin:round;stroke-width:0.5px"/><path d="M429.26,228.09l.36,6.85M433.35,207l-.13,6.36m3-3.47-.17,5.18m2.89-7.27-.11,5.78m4.29,3-.06,6.13m-4.95-1.94-8.81,7.38-9-7.91m34.2-13.38-11.52,9.84-3.78-3.38,3-2.52-3.32-3.15-2.58,2.23-2.92-3-3.78,3.66,3.43,2.69-3.2,2.92,3,2.8" style="fill:none;stroke:#000;stroke-linejoin:round;stroke-width:0.5px"/><path d="M363.38,245.87l-9.72,8.92-2.15,6.29L364,259.74l7.13-7.06,7.59-7,32.81-28.43s-.7-2.62-1.13-3.9c-.62-1.86-1.37-3.68-2.11-5.49-.19-.46-.58-1.36-.58-1.36l-36.6,32.45Z" style="fill:#ffe000;stroke:#000;stroke-linejoin:round;stroke-width:0.5px"/><path d="M355.12,247.21c-5.42,7.57-14.54,14.73-17.31,18.17s-4.55,6.71-.52,11.11,8.61,1.9,12.23-.52,9.92-10.26,18.94-16.27Z" style="fill:#ffe000;stroke:#000;stroke-linejoin:round;stroke-width:0.5px"/><path d="M358.31,260l7-3.17m-8.19-7.66c-.48,1.59-.11,3.35-.72,4.88a20,20,0,0,1-2.8,4,12.8,12.8,0,0,1,2.05.45c.95.37,2.39.54,2.63,1.53s-.81,1.61-1.42,2.25a8.92,8.92,0,0,1-2.06,1.51,12.31,12.31,0,0,1-3.88,1.78c-1.75.32-5-2.15-5.33-.4-.13.73,1.48.26,2.14.59,1.55.76,2.33,2.42,1,3.58-.88.74-2.26.47-3.4.56s-2.35-.55-3.3,0c-1.12.65-2.53,2.22-1.94,3.37s2.9,1.15,4,.38c.8-.57.59-1.89.71-2.87a7.32,7.32,0,0,0,0-.88" style="fill:#ffe000;stroke:#000;stroke-linejoin:round;stroke-width:0.5px"/><circle cx="312.72" cy="296.03" r="25.94" style="fill:#ffe000;stroke:#000;stroke-linejoin:round;stroke-width:0.5px"/><path d="M322.43,297.13a8.1,8.1,0,1,1-8.1,8.1l-2.81-.12a8.1,8.1,0,1,1-8.1-8.1l-.12-1.59a8.1,8.1,0,1,1,8.1-8.1l2.81-.24a8.1,8.1,0,1,1,8.1,8.1Z" style="fill:#fff;stroke:#000;stroke-linejoin:round;stroke-width:0.5px"/><circle cx="312.72" cy="289.21" r="2.92" style="fill:#ffe000;stroke:#000;stroke-linejoin:round;stroke-width:0.5px"/><circle cx="305.78" cy="296.03" r="2.92" style="fill:#ffe000;stroke:#000;stroke-linejoin:round;stroke-width:0.5px"/><circle cx="312.6" cy="302.24" r="2.92" style="fill:#ffe000;stroke:#000;stroke-linejoin:round;stroke-width:0.5px"/><circle cx="319.78" cy="296.03" r="2.92" style="fill:#ffe000;stroke:#000;stroke-linejoin:round;stroke-width:0.5px"/><path d="M313.21,311.68c1.07,2.19,2.52,3.19,4.38,4.38a12.65,12.65,0,0,1-8.77,0A10.64,10.64,0,0,0,313.21,311.68Zm15.32-16c2.19-1.07,3.19-2.52,4.38-4.38a12.65,12.65,0,0,1,0,8.77,10.64,10.64,0,0,0-4.38-4.38Zm-31.85.73c-2.19-1.07-3.19-2.52-4.38-4.38a12.65,12.65,0,0,0,0,8.77,10.64,10.64,0,0,1,4.38-4.38Zm15.68-16.17c1.07-2.19,2.52-3.19,4.38-4.38a12.65,12.65,0,0,0-8.77,0A10.64,10.64,0,0,1,312.35,280.2Z" style="fill:#fff;stroke:#000;stroke-linejoin:round;stroke-width:0.5px"/><path d="M437,180.76a5,5,0,0,1,0-1.49,4.51,4.51,0,0,1,1.32-2,3.93,3.93,0,0,1,1.83-.92,4.91,4.91,0,0,1,2.2.17,7.52,7.52,0,0,1,1.35.66l3,1.22,1.1,3.53a9.74,9.74,0,0,1,.79,1.73,4.26,4.26,0,0,1,.11,2,4,4,0,0,1-1.26,2,3.72,3.72,0,0,1-2.06.8,5.54,5.54,0,0,1-1.66-.37c-.32-3.72-2-6.56-6.7-7.38Z" style="fill:#ccc;stroke:#000;stroke-linejoin:round;stroke-width:0.5px"/><path d="M443.6,177.13l7.75-3.4.63.6L447.75,182s-1.18-1.75-1.87-2.55-2.29-2.29-2.29-2.29Z" style="fill:#ccc;stroke:#000;stroke-linejoin:round;stroke-width:0.5px"/><circle cx="452.19" cy="173.05" r="3.19" style="fill:#ccc;stroke:#000;stroke-linejoin:round;stroke-width:0.5px"/><path d="M430.41,186.45a93.3,93.3,0,0,1-3.2,16.77L421,208.91c1.32-5.85,3.69-11.69,3.67-17.54Z" style="fill:#ccc;stroke:#000;stroke-linejoin:round;stroke-width:0.5px"/><path d="M421,194.48l17.1-1.27-5.44,5-15.61.68-.23-.8Z" style="fill:#ccc;stroke:#000;stroke-linejoin:round;stroke-width:0.5px"/><path d="M400,213.38a12.38,12.38,0,0,1,7.57,7.43c1.27.11,2.46.12,2.88-.83-1.07-6.94-6-9.11-7.15-9.55C400.29,209.88,400.85,212.21,400,213.38Z" style="fill:#ccc;stroke:#000;stroke-linejoin:round;stroke-width:0.5px"/><path d="M394.48,218.56A12.38,12.38,0,0,1,402,226c1.27.11,2.46.12,2.88-.83-1.07-6.94-6-9.11-7.15-9.55-3-.56-2.44,1.77-3.3,2.94Z" style="fill:#ccc;stroke:#000;stroke-linejoin:round;stroke-width:0.5px"/><path d="M331.92,270.94a14.39,14.39,0,0,1,3,.3c-.06,1.6.59,3.32,2.36,5.25a6.67,6.67,0,0,0,4.73,2.41h0s.57,3.53-.52,4.65c-1.27,1.31-5.42.78-5.42.78l-.35-.23a25.94,25.94,0,0,0-6.38-8l-.07-.25s-.61-3.3.43-4.3a1.69,1.69,0,0,1,2.2,0Z" style="fill:#ccc;stroke:#000;stroke-linejoin:round;stroke-width:0.5px"/><circle cx="292.75" cy="275.08" r="3.53" style="fill:#ccc;stroke:#000;stroke-linejoin:round;stroke-width:0.5px"/><circle cx="291.53" cy="316" r="3.53" style="fill:#ccc;stroke:#000;stroke-linejoin:round;stroke-width:0.5px"/><circle cx="331.23" cy="318.31" r="3.53" style="fill:#ccc;stroke:#000;stroke-linejoin:round;stroke-width:0.5px"/><path d="M373.84,235.16c0,1.08-.9,1.49-2.65,1.49s-2.56-.51-2.56-1.58.81-1.34,2.56-1.34S373.84,234.08,373.84,235.16Z" style="fill:#fa0204;stroke:#000;stroke-linejoin:round;stroke-width:0.5px"/><path d="M375.12,238c0,1.08-.9,1.49-2.65,1.49s-2.56-.51-2.56-1.58.81-1.34,2.56-1.34S375.12,236.94,375.12,238Z" style="fill:#fa0204;stroke:#000;stroke-linejoin:round;stroke-width:0.5px"/><path d="M375.47,241.74c-.35,1-1.34,1.11-3,.54s-2.25-1.32-1.89-2.34,1.2-1,2.86-.42,2.38,1.21,2,2.22Z" style="fill:#fa0204;stroke:#000;stroke-linejoin:round;stroke-width:0.5px"/><path d="M375.5,244.5c-.21,1.05-1.18,1.28-2.89.94s-2.41-1-2.19-2.06,1.06-1.15,2.77-.81,2.53.87,2.31,1.93Z" style="fill:#fa0204;stroke:#000;stroke-linejoin:round;stroke-width:0.5px"/><path d="M376.29,247.73c-.21,1.05-1.18,1.28-2.89.94s-2.41-1-2.19-2.06,1.06-1.15,2.77-.81,2.53.87,2.31,1.93Z" style="fill:#fa0204;stroke:#000;stroke-linejoin:round;stroke-width:0.5px"/><path d="M384.35,243.24c-.52-.14-.46-1.06-.32-1.58.22-.79,1.67-1.82,1.67-1.82a3.9,3.9,0,0,1,.19,1.64c-.23.75-.79,2-1.54,1.76Z" style="fill:#fa0204;stroke:#000;stroke-linejoin:round;stroke-width:0.5px"/><path d="M382.46,244.88c-.56-.12-.64-1.1-.49-1.66.23-.86,1.93-1.87,1.93-1.87a4.46,4.46,0,0,1,.1,1.77c-.25.74-.78,1.93-1.54,1.76Z" style="fill:#fa0204;stroke:#000;stroke-linejoin:round;stroke-width:0.5px"/><path d="M380.3,248c-.86-.23-.76-1.75-.53-2.61s.74-1.82,1.46-1.65.82,1.66.62,2.5-.79,2-1.54,1.76Z" style="fill:#fa0204;stroke:#000;stroke-linejoin:round;stroke-width:0.5px"/><path d="M377.75,250.44c-.84-.19-1.2-1.53-1-2.37s1.07-2.08,2-1.89,1.2,1.67,1,2.56S378.58,250.62,377.75,250.44Z" style="fill:#fa0204;stroke:#000;stroke-linejoin:round;stroke-width:0.5px"/><path d="M377.3,251.92A1.81,1.81,0,0,1,375,253a2.55,2.55,0,0,1-1.69-2.5c.23-1.08,1.64-1.36,2.46-1a2.49,2.49,0,0,1,1.52,2.44Z" style="fill:#fa0204;stroke:#000;stroke-linejoin:round;stroke-width:0.5px"/><path d="M360.29,242.06a7,7,0,0,1,1.47,1c.46.47,1,.66.74,1.38s-1.17.48-1.63,0a6.26,6.26,0,0,1-.59-2.31Z" style="fill:#fa0204;stroke:#000;stroke-linejoin:round;stroke-width:0.5px"/><path d="M365.37,243.81c1,.21,1,1.42.49,2.17a4.08,4.08,0,0,1-3.27,1.58c-1.1-.22-1-1.55-.36-2.33a4,4,0,0,1,3.14-1.42Z" style="fill:#fa0204;stroke:#000;stroke-linejoin:round;stroke-width:0.5px"/><path d="M368.85,246.11c1,.43.68,1.61,0,2.22a4.08,4.08,0,0,1-3.54.82c-1-.46-.6-1.73.16-2.35a4,4,0,0,1,3.37-.69Z" style="fill:#fa0204;stroke:#000;stroke-linejoin:round;stroke-width:0.5px"/><path d="M371.65,248.24c1,.43.68,1.61,0,2.22a4.08,4.08,0,0,1-3.54.82c-1-.46-.6-1.73.16-2.35a4,4,0,0,1,3.37-.69Z" style="fill:#fa0204;stroke:#000;stroke-linejoin:round;stroke-width:0.5px"/><path d="M372.59,250.14c1,.15,1.21,1.48.92,2.34s-1.49,2.13-2.5,2-1.2-1.63-.84-2.53,1.48-1.94,2.42-1.79Z" style="fill:#fa0204;stroke:#000;stroke-linejoin:round;stroke-width:0.5px"/><path d="M375,253.07c.79.46.61,1.92.08,2.71s-2,1.72-2.8,1.24-.55-2.06,0-2.88,1.89-1.53,2.68-1.07Z" style="fill:#fa0204;stroke:#000;stroke-linejoin:round;stroke-width:0.5px"/><path d="M357.8,245.09c.85-.08,1.44,1.19,1.43,2.12s-.66,2.48-1.55,2.56-1.46-1.34-1.41-2.32.7-2.28,1.54-2.35Z" style="fill:#fa0204;stroke:#000;stroke-linejoin:round;stroke-width:0.5px"/><path d="M360.58,247.53c.83.19,1,1.57.71,2.45s-1.39,2.16-2.26,2-1-1.72-.64-2.64,1.36-2,2.18-1.77Z" style="fill:#fa0204;stroke:#000;stroke-linejoin:round;stroke-width:0.5px"/><path d="M363.16,249.25c1,.23,1.19,2,.85,3s-1.64,2.68-2.67,2.44-1.17-2.14-.76-3.28,1.61-2.43,2.59-2.2Z" style="fill:#fa0204;stroke:#000;stroke-linejoin:round;stroke-width:0.5px"/><path d="M365.24,251.36c1-.13,1.8,1.41,1.86,2.55s-.59,3.09-1.65,3.22-1.84-1.59-1.86-2.81.66-2.84,1.65-3Z" style="fill:#fa0204;stroke:#000;stroke-linejoin:round;stroke-width:0.5px"/><path d="M367.72,253.13c.91-.11,1.64,1.17,1.69,2.12s-.54,2.56-1.5,2.67-1.67-1.32-1.69-2.33.6-2.36,1.5-2.46Z" style="fill:#fa0204;stroke:#000;stroke-linejoin:round;stroke-width:0.5px"/><path d="M370.28,255.2c.91-.11,1.64,1.17,1.69,2.12s-.54,2.56-1.5,2.67-1.67-1.32-1.69-2.33.6-2.36,1.5-2.46Z" style="fill:#fa0204;stroke:#000;stroke-linejoin:round;stroke-width:0.5px"/><path d="M385.86,250.18c-.65.57-1.94.06-2.52-.57s-1-2.1-.36-2.69,2.06,0,2.65.72.88,2,.24,2.55Z" style="fill:#fa0204;stroke:#000;stroke-linejoin:round;stroke-width:0.5px"/><path d="M384.46,252.73c-.65.57-1.94.06-2.52-.57s-1-2.1-.36-2.69,2.06,0,2.65.72.88,2,.24,2.55Z" style="fill:#fa0204;stroke:#000;stroke-linejoin:round;stroke-width:0.5px"/><path d="M382,254.87c-.65.57-1.94.06-2.52-.57s-1-2.1-.36-2.69,2.06,0,2.65.72.88,2,.24,2.55Z" style="fill:#fa0204;stroke:#000;stroke-linejoin:round;stroke-width:0.5px"/><path d="M381,256.24c-.23.83-1.59,1.12-2.42.91s-2-1.18-1.78-2,1.73-1.11,2.61-.86S381.26,255.41,381,256.24Z" style="fill:#fa0204;stroke:#000;stroke-linejoin:round;stroke-width:0.5px"/><path d="M377.44,255.64c.73.51.56,2.11.08,3s-1.81,1.9-2.57,1.36-.5-2.27,0-3.16,1.74-1.68,2.46-1.18Z" style="fill:#fa0204;stroke:#000;stroke-linejoin:round;stroke-width:0.5px"/><path d="M373.92,257.51c.79.46.61,1.92.08,2.71s-2,1.72-2.8,1.24-.55-2.06,0-2.88,1.89-1.53,2.68-1.07Z" style="fill:#fa0204;stroke:#000;stroke-linejoin:round;stroke-width:0.5px"/><path d="M366.27,262.58c-.68.65-.15,2.25.55,3.06s2.36,1.62,3.07.94.06-2.4-.72-3.23-2.24-1.41-2.91-.77Z" style="fill:#fa0204;stroke:#000;stroke-linejoin:round;stroke-width:0.5px"/><path d="M364.8,265.34c-.68.65-.15,2.25.55,3.06s2.36,1.62,3.07.94.06-2.4-.72-3.23-2.24-1.41-2.91-.77Z" style="fill:#fa0204;stroke:#000;stroke-linejoin:round;stroke-width:0.5px"/><path d="M364.17,267.91c-.87.35-1,2-.62,3s1.59,2.38,2.5,2,.94-2.21.53-3.26-1.55-2.14-2.41-1.79Z" style="fill:#fa0204;stroke:#000;stroke-linejoin:round;stroke-width:0.5px"/><path d="M362.06,270.88c-.87.35-1,2-.62,3s1.59,2.38,2.5,2,.94-2.21.53-3.26-1.55-2.14-2.41-1.79Z" style="fill:#fa0204;stroke:#000;stroke-linejoin:round;stroke-width:0.5px"/><path d="M360.53,274.21c-.91.21-1.29,1.86-1.09,2.91s1.19,2.6,2.15,2.38,1.28-2,1-3.14-1.2-2.36-2.1-2.15Z" style="fill:#fa0204;stroke:#000;stroke-linejoin:round;stroke-width:0.5px"/><path d="M358.51,277.39c-.91.21-1.29,1.86-1.09,2.91s1.19,2.6,2.15,2.38,1.28-2,1-3.14-1.2-2.36-2.1-2.15Z" style="fill:#fa0204;stroke:#000;stroke-linejoin:round;stroke-width:0.5px"/><path d="M356.81,280.66c-.94,0-1.61,1.59-1.61,2.66s.69,2.78,1.67,2.74,1.64-1.76,1.6-2.89-.74-2.54-1.66-2.5Z" style="fill:#fa0204;stroke:#000;stroke-linejoin:round;stroke-width:0.5px"/><path d="M354.75,284.49c-.94,0-1.61,1.59-1.61,2.66s.69,2.78,1.67,2.74,1.64-1.76,1.6-2.89-.74-2.54-1.66-2.5Z" style="fill:#fa0204;stroke:#000;stroke-linejoin:round;stroke-width:0.5px"/><path d="M352.33,288.06c-.94,0-1.61,1.59-1.61,2.66s.69,2.78,1.67,2.74,1.64-1.76,1.6-2.89-.74-2.54-1.66-2.5Z" style="fill:#fa0204;stroke:#000;stroke-linejoin:round;stroke-width:0.5px"/><path d="M349.84,291.12c-.94,0-1.61,1.59-1.61,2.66s.69,2.78,1.67,2.74,1.64-1.76,1.6-2.89-.74-2.54-1.66-2.5Z" style="fill:#fa0204;stroke:#000;stroke-linejoin:round;stroke-width:0.5px"/><path d="M347.25,294c-.94,0-1.61,1.59-1.61,2.66s.69,2.78,1.67,2.74,1.64-1.76,1.6-2.89-.74-2.54-1.66-2.5Z" style="fill:#fa0204;stroke:#000;stroke-linejoin:round;stroke-width:0.5px"/><path d="M344.41,296.29c-.94,0-1.61,1.59-1.61,2.66s.69,2.78,1.67,2.74,1.64-1.76,1.6-2.89-.74-2.54-1.66-2.5Z" style="fill:#fa0204;stroke:#000;stroke-linejoin:round;stroke-width:0.5px"/><path d="M341.7,298.78c-.94,0-1.61,1.59-1.61,2.66s.69,2.78,1.67,2.74,1.64-1.76,1.6-2.89-.74-2.54-1.66-2.5Z" style="fill:#fa0204;stroke:#000;stroke-linejoin:round;stroke-width:0.5px"/><path d="M338.56,300l-1.05,4.12s.59,1.47,1.2,1.41c1.1-.11,1.39-1.81,1.6-2.89C340.5,301,338.56,300,338.56,300Z" style="fill:#fa0204;stroke:#000;stroke-linejoin:round;stroke-width:0.5px"/><path d="M403.44,302.65c.32,1.22,3.05,2.26,3.05,2.26l-1.33-5.55C404,299.39,403.26,301.85,403.44,302.65Z" style="fill:#fa0204;stroke:#000;stroke-linejoin:round;stroke-width:0.5px"/><path d="M403.2,298.19c-.87-.34-2.11.81-2.54,1.79s-.48,2.82.43,3.18,2.21-1,2.63-2,.34-2.62-.52-3Z" style="fill:#fa0204;stroke:#000;stroke-linejoin:round;stroke-width:0.5px"/><path d="M400.16,295.73c-.94,0-1.74,1.44-1.84,2.5s.44,2.83,1.42,2.88,1.79-1.61,1.85-2.74-.51-2.59-1.44-2.64Z" style="fill:#fa0204;stroke:#000;stroke-linejoin:round;stroke-width:0.5px"/><path d="M397.48,293c-.94,0-1.74,1.44-1.84,2.5s.44,2.83,1.42,2.88,1.79-1.61,1.85-2.74-.51-2.59-1.44-2.64Z" style="fill:#fa0204;stroke:#000;stroke-linejoin:round;stroke-width:0.5px"/><path d="M395,289.89c-.94,0-1.74,1.44-1.84,2.5s.44,2.83,1.42,2.88,1.79-1.61,1.85-2.74-.51-2.59-1.44-2.64Z" style="fill:#fa0204;stroke:#000;stroke-linejoin:round;stroke-width:0.5px"/><path d="M392.43,287.27c-.94,0-1.74,1.44-1.84,2.5s.44,2.83,1.42,2.88,1.79-1.61,1.85-2.74-.51-2.59-1.44-2.64Z" style="fill:#fa0204;stroke:#000;stroke-linejoin:round;stroke-width:0.5px"/><path d="M390.36,283.68c-.94,0-1.74,1.44-1.84,2.5s.44,2.83,1.42,2.88,1.79-1.61,1.85-2.74-.51-2.59-1.44-2.64Z" style="fill:#fa0204;stroke:#000;stroke-linejoin:round;stroke-width:0.5px"/><path d="M388.11,280.45c-.94,0-1.74,1.44-1.84,2.5s.44,2.83,1.42,2.88,1.79-1.61,1.85-2.74-.51-2.59-1.44-2.64Z" style="fill:#fa0204;stroke:#000;stroke-linejoin:round;stroke-width:0.5px"/><path d="M386,277c-.94,0-1.74,1.44-1.84,2.5s.44,2.83,1.42,2.88,1.79-1.61,1.85-2.74S387,277.09,386,277Z" style="fill:#fa0204;stroke:#000;stroke-linejoin:round;stroke-width:0.5px"/><path d="M384.21,273.08c-.94,0-1.74,1.44-1.84,2.5s.44,2.83,1.42,2.88,1.79-1.61,1.85-2.74-.51-2.59-1.44-2.64Z" style="fill:#fa0204;stroke:#000;stroke-linejoin:round;stroke-width:0.5px"/><path d="M382.2,269.49c-.94,0-1.74,1.44-1.84,2.5s.44,2.83,1.42,2.88,1.79-1.61,1.85-2.74-.51-2.59-1.44-2.64Z" style="fill:#fa0204;stroke:#000;stroke-linejoin:round;stroke-width:0.5px"/><path d="M380.56,265.23c-.94,0-1.74,1.44-1.84,2.5s.44,2.83,1.42,2.88,1.79-1.61,1.85-2.74-.51-2.59-1.44-2.64Z" style="fill:#fa0204;stroke:#000;stroke-linejoin:round;stroke-width:0.5px"/><path d="M376.77,260.91s-.33,5.34,1.61,5.68c1.21.21,2.16-3,2.16-3Z" style="fill:#fa0204;stroke:#000;stroke-linejoin:round;stroke-width:0.5px"/><path d="M372.4,322.15c-.58.74.18,2.25,1,2.94s2.57,1.26,3.17.48-.3-2.39-1.19-3.09-2.42-1.06-3-.33Z" style="fill:#fa0204;stroke:#000;stroke-linejoin:round;stroke-width:0.5px"/><path d="M376.06,321.72c-.58.74.18,2.25,1,2.94s2.57,1.26,3.17.48-.3-2.39-1.19-3.09-2.42-1.06-3-.33Z" style="fill:#fa0204;stroke:#000;stroke-linejoin:round;stroke-width:0.5px"/><path d="M379.77,321c-.58.74.18,2.25,1,2.94s2.57,1.26,3.17.48-.3-2.39-1.19-3.09-2.42-1.06-3-.33Z" style="fill:#fa0204;stroke:#000;stroke-linejoin:round;stroke-width:0.5px"/><path d="M383.24,320.76c-.46.82.52,2.2,1.43,2.76s2.73.86,3.21,0-.65-2.32-1.64-2.87-2.55-.69-3,.12Z" style="fill:#fa0204;stroke:#000;stroke-linejoin:round;stroke-width:0.5px"/><path d="M387.24,320.12c-.46.82.52,2.2,1.43,2.76s2.73.86,3.21,0-.65-2.32-1.64-2.87-2.55-.69-3,.12Z" style="fill:#fa0204;stroke:#000;stroke-linejoin:round;stroke-width:0.5px"/><path d="M390.7,319.09c-.38.86.72,2.14,1.68,2.61s2.8.6,3.2-.3-.86-2.25-1.89-2.71-2.6-.45-3,.4Z" style="fill:#fa0204;stroke:#000;stroke-linejoin:round;stroke-width:0.5px"/><path d="M394.48,318c-.38.86.72,2.14,1.68,2.61s2.8.6,3.2-.3-.86-2.25-1.89-2.71-2.6-.45-3,.4Z" style="fill:#fa0204;stroke:#000;stroke-linejoin:round;stroke-width:0.5px"/><path d="M398.25,316.78c-.33.88.84,2.1,1.83,2.51s2.83.43,3.17-.49-1-2.19-2.05-2.59-2.63-.3-3,.57Z" style="fill:#fa0204;stroke:#000;stroke-linejoin:round;stroke-width:0.5px"/><path d="M402.08,315.53c-.33.88.84,2.1,1.83,2.51s2.83.43,3.17-.49-1-2.19-2.05-2.59-2.63-.3-3,.57Z" style="fill:#fa0204;stroke:#000;stroke-linejoin:round;stroke-width:0.5px"/><path d="M405.79,314c-.33.88.84,2.1,1.83,2.51s2.83.43,3.17-.49-1-2.19-2.05-2.59-2.63-.3-3,.57Z" style="fill:#fa0204;stroke:#000;stroke-linejoin:round;stroke-width:0.5px"/><path d="M409.75,312.34c-.33.88.84,2.1,1.83,2.51s2.83.43,3.17-.49-1-2.19-2.05-2.59-2.63-.3-3,.57Z" style="fill:#fa0204;stroke:#000;stroke-linejoin:round;stroke-width:0.5px"/><path d="M413.75,311.05c-.33.88.84,2.1,1.83,2.51s2.83.43,3.17-.49-1-2.19-2.05-2.59-2.63-.3-3,.57Z" style="fill:#fa0204;stroke:#000;stroke-linejoin:round;stroke-width:0.5px"/><path d="M414.23,307.91c-.33.88.84,2.1,1.83,2.51s2.83.43,3.17-.49-1-2.19-2.05-2.59-2.63-.3-3,.57Z" style="fill:#fa0204;stroke:#000;stroke-linejoin:round;stroke-width:0.5px"/><path d="M413.34,307s2.71.4,3-.57c.33-1.29-3.08-2.55-3.08-2.55Z" style="fill:#fa0204;stroke:#000;stroke-linejoin:round;stroke-width:0.5px"/><path d="M340.32,315.12c-.8.49-.61,2.17-.09,3.11s2,2.07,2.81,1.55.55-2.34,0-3.31-1.9-1.84-2.68-1.35Z" style="fill:#fa0204;stroke:#000;stroke-linejoin:round;stroke-width:0.5px"/><path d="M344.11,316.67c-.8.49-.61,2.17-.09,3.11s2,2.07,2.81,1.55.55-2.34,0-3.31-1.9-1.84-2.68-1.35Z" style="fill:#fa0204;stroke:#000;stroke-linejoin:round;stroke-width:0.5px"/><path d="M347.73,317.23c-.8.49-.61,2.17-.09,3.11s2,2.07,2.81,1.55.55-2.34,0-3.31-1.9-1.84-2.68-1.35Z" style="fill:#fa0204;stroke:#000;stroke-linejoin:round;stroke-width:0.5px"/><path d="M351.69,318.22c-.8.49-.61,2.17-.09,3.11s2,2.07,2.81,1.55.55-2.34,0-3.31-1.9-1.84-2.68-1.35Z" style="fill:#fa0204;stroke:#000;stroke-linejoin:round;stroke-width:0.5px"/><path d="M355.26,318.73c-.8.49-.61,2.17-.09,3.11s2,2.07,2.81,1.55.55-2.34,0-3.31-1.9-1.84-2.68-1.35Z" style="fill:#fa0204;stroke:#000;stroke-linejoin:round;stroke-width:0.5px"/><path d="M358.79,319.47c-.8.49-.61,2.17-.09,3.11s2,2.07,2.81,1.55.55-2.34,0-3.31-1.9-1.84-2.68-1.35Z" style="fill:#fa0204;stroke:#000;stroke-linejoin:round;stroke-width:0.5px"/><path d="M362.41,320.46c-.8.49-.61,2.17-.09,3.11s2,2.07,2.81,1.55.55-2.34,0-3.31-1.9-1.84-2.68-1.35Z" style="fill:#fa0204;stroke:#000;stroke-linejoin:round;stroke-width:0.5px"/><path d="M366,321.1c-.8.49-.61,2.17-.09,3.11s2,2.07,2.81,1.55.55-2.34,0-3.31-1.9-1.84-2.68-1.35Z" style="fill:#fa0204;stroke:#000;stroke-linejoin:round;stroke-width:0.5px"/><path d="M369.64,321.66c-.8.49-.61,2.17-.09,3.11s2,2.07,2.81,1.55.55-2.34,0-3.31-1.9-1.84-2.68-1.35Z" style="fill:#fa0204;stroke:#000;stroke-linejoin:round;stroke-width:0.5px"/><path d="M329.63,303.5c-.83-.43-2.18.6-2.71,1.52s-.76,2.76.12,3.21,2.29-.73,2.81-1.74.6-2.57-.22-3Z" style="fill:#fa0204;stroke:#000;stroke-linejoin:round;stroke-width:0.5px"/><path d="M328.4,306.88c-.88-.31-2.08.88-2.48,1.87s-.39,2.84.54,3.16,2.17-1,2.56-2.09.25-2.63-.62-2.94Z" style="fill:#fa0204;stroke:#000;stroke-linejoin:round;stroke-width:0.5px"/><path d="M329.55,310c-.91-.23-2,1.07-2.3,2.09s-.13,2.86.83,3.1,2.07-1.22,2.36-2.32,0-2.64-.88-2.87Z" style="fill:#fa0204;stroke:#000;stroke-linejoin:round;stroke-width:0.5px"/><path d="M332.47,311.26c-.9-.26-2,1-2.37,2s-.22,2.85.73,3.13,2.11-1.16,2.43-2.24.1-2.64-.79-2.9Z" style="fill:#fa0204;stroke:#000;stroke-linejoin:round;stroke-width:0.5px"/><path d="M334.38,311.76c-.91.23-1.25,1.88-1,2.93s1.25,2.58,2.2,2.34,1.24-2.06,1-3.16-1.25-2.33-2.14-2.11Z" style="fill:#fa0204;stroke:#000;stroke-linejoin:round;stroke-width:0.5px"/><path d="M337.74,313c-.91.23-1.25,1.88-1,2.93s1.25,2.58,2.2,2.34,1.24-2.06,1-3.16-1.25-2.33-2.14-2.11Z" style="fill:#fa0204;stroke:#000;stroke-linejoin:round;stroke-width:0.5px"/><path d="M368,260.34c-.68.65-.15,2.25.55,3.06s2.36,1.62,3.07.94.06-2.4-.72-3.23-2.24-1.41-2.91-.77Z" style="fill:#fa0204;stroke:#000;stroke-linejoin:round;stroke-width:0.5px"/><path d="M367.2,263.88c-.68.65-.15,2.25.55,3.06s2.36,1.62,3.07.94.06-2.4-.72-3.23-2.24-1.41-2.91-.77Z" style="fill:#fa0204;stroke:#000;stroke-linejoin:round;stroke-width:0.5px"/><path d="M367.25,267.92c-.68.65-.15,2.25.55,3.06s2.36,1.62,3.07.94.06-2.4-.72-3.23-2.24-1.41-2.91-.77Z" style="fill:#fa0204;stroke:#000;stroke-linejoin:round;stroke-width:0.5px"/><path d="M367.2,272.16c-.68.65-.15,2.25.55,3.06s2.36,1.62,3.07.94.06-2.4-.72-3.23-2.24-1.41-2.91-.77Z" style="fill:#fa0204;stroke:#000;stroke-linejoin:round;stroke-width:0.5px"/><path d="M367.38,276.3c-.68.65-.15,2.25.55,3.06s2.36,1.62,3.07.94.06-2.4-.72-3.23-2.24-1.41-2.91-.77Z" style="fill:#fa0204;stroke:#000;stroke-linejoin:round;stroke-width:0.5px"/><path d="M366.71,280.13c-.68.65-.15,2.25.55,3.06s2.36,1.62,3.07.94.06-2.4-.72-3.23-2.24-1.41-2.91-.77Z" style="fill:#fa0204;stroke:#000;stroke-linejoin:round;stroke-width:0.5px"/><path d="M367.2,284.39c-.68.65-.15,2.25.55,3.06s2.36,1.62,3.07.94.06-2.4-.72-3.23-2.24-1.41-2.91-.77Z" style="fill:#fa0204;stroke:#000;stroke-linejoin:round;stroke-width:0.5px"/><path d="M366.71,287.86c-.68.65-.15,2.25.55,3.06s2.36,1.62,3.07.94.06-2.4-.72-3.23-2.24-1.41-2.91-.77Z" style="fill:#fa0204;stroke:#000;stroke-linejoin:round;stroke-width:0.5px"/><path d="M367.2,291.27c-.68.65-.15,2.25.55,3.06s2.36,1.62,3.07.94.06-2.4-.72-3.23-2.24-1.41-2.91-.77Z" style="fill:#fa0204;stroke:#000;stroke-linejoin:round;stroke-width:0.5px"/><path d="M367.2,295.35c-.68.65-.15,2.25.55,3.06s2.36,1.62,3.07.94.06-2.4-.72-3.23-2.24-1.41-2.91-.77Z" style="fill:#fa0204;stroke:#000;stroke-linejoin:round;stroke-width:0.5px"/><path d="M367,299.37c-.68.65-.15,2.25.55,3.06s2.36,1.62,3.07.94.06-2.4-.72-3.23-2.24-1.41-2.91-.77Z" style="fill:#fa0204;stroke:#000;stroke-linejoin:round;stroke-width:0.5px"/><path d="M367,303.21c-.68.65-.15,2.25.55,3.06s2.36,1.62,3.07.94.06-2.4-.72-3.23-2.24-1.41-2.91-.77Z" style="fill:#fa0204;stroke:#000;stroke-linejoin:round;stroke-width:0.5px"/><path d="M367.14,307.29c-.68.65-.15,2.25.55,3.06s2.36,1.62,3.07.94.06-2.4-.72-3.23-2.24-1.41-2.91-.77Z" style="fill:#fa0204;stroke:#000;stroke-linejoin:round;stroke-width:0.5px"/><path d="M367.14,311.24c-.68.65-.15,2.25.55,3.06s2.36,1.62,3.07.94.06-2.4-.72-3.23-2.24-1.41-2.91-.77Z" style="fill:#fa0204;stroke:#000;stroke-linejoin:round;stroke-width:0.5px"/><path d="M367,315.2c-.68.65-.15,2.25.55,3.06s2.36,1.62,3.07.94.06-2.4-.72-3.23-2.24-1.41-2.91-.77Z" style="fill:#fa0204;stroke:#000;stroke-linejoin:round;stroke-width:0.5px"/><path d="M366.77,319.22c-.68.65-.15,2.25.55,3.06s2.36,1.62,3.07.94.06-2.4-.72-3.23-2.24-1.41-2.91-.77Z" style="fill:#fa0204;stroke:#000;stroke-linejoin:round;stroke-width:0.5px"/><path d="M366.77,323.6c-.68.65-.15,2.25.55,3.06s2.36,1.62,3.07.94.06-2.4-.72-3.23-2.24-1.41-2.91-.77Z" style="fill:#fa0204;stroke:#000;stroke-linejoin:round;stroke-width:0.5px"/><path d="M366.65,328.17c-.68.65-.15,2.25.55,3.06s2.36,1.62,3.07.94.06-2.4-.72-3.23-2.24-1.41-2.91-.77Z" style="fill:#fa0204;stroke:#000;stroke-linejoin:round;stroke-width:0.5px"/><path d="M366.65,332.43c-.68.65-.15,2.25.55,3.06s2.36,1.62,3.07.94.06-2.4-.72-3.23-2.24-1.41-2.91-.77Z" style="fill:#fa0204;stroke:#000;stroke-linejoin:round;stroke-width:0.5px"/><path d="M366.65,336.39c-.68.65-.15,2.25.55,3.06s2.36,1.62,3.07.94.06-2.4-.72-3.23-2.24-1.41-2.91-.77Z" style="fill:#fa0204;stroke:#000;stroke-linejoin:round;stroke-width:0.5px"/><path d="M366.53,340.84c-.68.65-.15,2.25.55,3.06s2.36,1.62,3.07.94.06-2.4-.72-3.23-2.24-1.41-2.91-.77Z" style="fill:#fa0204;stroke:#000;stroke-linejoin:round;stroke-width:0.5px"/><path d="M376.45,260.64c.49.74-.26,2.17-1,2.79s-2.38,1.09-2.89.31.37-2.29,1.21-2.92,2.24-.92,2.72-.18Z" style="fill:#fa0204;stroke:#000;stroke-linejoin:round;stroke-width:0.5px"/><path d="M377,263.86c.49.74-.26,2.17-1,2.79s-2.38,1.09-2.89.31.37-2.29,1.21-2.92,2.24-.92,2.72-.18Z" style="fill:#fa0204;stroke:#000;stroke-linejoin:round;stroke-width:0.5px"/><path d="M376.93,267.46c.49.74-.26,2.17-1,2.79s-2.38,1.09-2.89.31.37-2.29,1.21-2.92,2.24-.92,2.72-.18Z" style="fill:#fa0204;stroke:#000;stroke-linejoin:round;stroke-width:0.5px"/><path d="M376.87,271.11c.49.74-.26,2.17-1,2.79s-2.38,1.09-2.89.31.37-2.29,1.21-2.92,2.24-.92,2.72-.18Z" style="fill:#fa0204;stroke:#000;stroke-linejoin:round;stroke-width:0.5px"/><path d="M376.81,274.46c.49.74-.26,2.17-1,2.79s-2.38,1.09-2.89.31.37-2.29,1.21-2.92,2.24-.92,2.72-.18Z" style="fill:#fa0204;stroke:#000;stroke-linejoin:round;stroke-width:0.5px"/><path d="M377,278.05c.49.74-.26,2.17-1,2.79s-2.38,1.09-2.89.31.37-2.29,1.21-2.92,2.24-.92,2.72-.18Z" style="fill:#fa0204;stroke:#000;stroke-linejoin:round;stroke-width:0.5px"/><path d="M376.75,281.52c.49.74-.26,2.17-1,2.79s-2.38,1.09-2.89.31.37-2.29,1.21-2.92,2.24-.92,2.72-.18Z" style="fill:#fa0204;stroke:#000;stroke-linejoin:round;stroke-width:0.5px"/><path d="M376.65,285.21c.54.77-.29,2.24-1.14,2.89s-2.63,1.13-3.19.32.41-2.37,1.33-3,2.47-.95,3-.19Z" style="fill:#fa0204;stroke:#000;stroke-linejoin:round;stroke-width:0.5px"/><path d="M376.42,288.72c.68.65.15,2.25-.55,3.06s-2.36,1.62-3.07.94-.06-2.4.72-3.23,2.24-1.41,2.91-.77Z" style="fill:#fa0204;stroke:#000;stroke-linejoin:round;stroke-width:0.5px"/><path d="M376.54,292.8c.68.65.15,2.25-.55,3.06s-2.36,1.62-3.07.94-.06-2.4.72-3.23,2.24-1.41,2.91-.77Z" style="fill:#fa0204;stroke:#000;stroke-linejoin:round;stroke-width:0.5px"/><path d="M376.6,296.81c.68.65.15,2.25-.55,3.06s-2.36,1.62-3.07.94-.06-2.4.72-3.23,2.24-1.41,2.91-.77Z" style="fill:#fa0204;stroke:#000;stroke-linejoin:round;stroke-width:0.5px"/><path d="M376.48,301.14c.68.65.15,2.25-.55,3.06s-2.36,1.62-3.07.94-.06-2.4.72-3.23,2.24-1.41,2.91-.77Z" style="fill:#fa0204;stroke:#000;stroke-linejoin:round;stroke-width:0.5px"/><path d="M376.6,305.16c.68.65.15,2.25-.55,3.06s-2.36,1.62-3.07.94-.06-2.4.72-3.23,2.24-1.41,2.91-.77Z" style="fill:#fa0204;stroke:#000;stroke-linejoin:round;stroke-width:0.5px"/><path d="M376.48,309.24c.68.65.15,2.25-.55,3.06s-2.36,1.62-3.07.94-.06-2.4.72-3.23,2.24-1.41,2.91-.77Z" style="fill:#fa0204;stroke:#000;stroke-linejoin:round;stroke-width:0.5px"/><path d="M376.54,313.31c.68.65.15,2.25-.55,3.06s-2.36,1.62-3.07.94-.06-2.4.72-3.23,2.24-1.41,2.91-.77Z" style="fill:#fa0204;stroke:#000;stroke-linejoin:round;stroke-width:0.5px"/><path d="M376.54,317.45c.68.65.15,2.25-.55,3.06s-2.36,1.62-3.07.94-.06-2.4.72-3.23,2.24-1.41,2.91-.77Z" style="fill:#fa0204;stroke:#000;stroke-linejoin:round;stroke-width:0.5px"/><path d="M376.36,321.6c.68.65.15,2.25-.55,3.06s-2.36,1.62-3.07.94-.06-2.4.72-3.23,2.24-1.41,2.91-.77Z" style="fill:#fa0204;stroke:#000;stroke-linejoin:round;stroke-width:0.5px"/><path d="M376.6,325.37c.68.65.15,2.25-.55,3.06s-2.36,1.62-3.07.94-.06-2.4.72-3.23,2.24-1.41,2.91-.77Z" style="fill:#fa0204;stroke:#000;stroke-linejoin:round;stroke-width:0.5px"/><path d="M376.6,329.33c.68.65.15,2.25-.55,3.06s-2.36,1.62-3.07.94-.06-2.4.72-3.23,2.24-1.41,2.91-.77Z" style="fill:#fa0204;stroke:#000;stroke-linejoin:round;stroke-width:0.5px"/><path d="M376.48,333.59c.68.65.15,2.25-.55,3.06s-2.36,1.62-3.07.94-.06-2.4.72-3.23,2.24-1.41,2.91-.77Z" style="fill:#fa0204;stroke:#000;stroke-linejoin:round;stroke-width:0.5px"/><path d="M376.48,337.79c.68.65.15,2.25-.55,3.06s-2.36,1.62-3.07.94-.06-2.4.72-3.23,2.24-1.41,2.91-.77Z" style="fill:#fa0204;stroke:#000;stroke-linejoin:round;stroke-width:0.5px"/><path d="M369.93,369.65a15.4,15.4,0,0,0,9.64.09l-3.49-5.6" style="fill:#fa0204;stroke:#000;stroke-linejoin:round;stroke-width:0.5px"/><path d="M377.66,355.23l-6.34-1.63s.07-7,4.08-6.42c3.32.51,2.4,8.07,2.26,8.05Z" style="fill:#ffe000;stroke:#000;stroke-linejoin:round;stroke-width:0.5px"/><circle cx="374.58" cy="344.59" r="2.58" style="fill:#ffe000;stroke:#000;stroke-linejoin:round;stroke-width:0.5px"/><path d="M377.07,358.37c1.41,3.57,2.27,6.65.95,10.68m1.52.68c-2-1.65-7.32-1.17-9.6-.07-.89,0-3.29-16.65,5.14-16.24,7.74.38,5,16.38,4.45,16.31Z" style="fill:#fa0204;stroke:#000;stroke-linejoin:round;stroke-width:0.5px"/><path d="M363,373.27a9.41,9.41,0,0,0,10.85.09l-8.05-8.4" style="fill:#fa0204;stroke:#000;stroke-linejoin:round;stroke-width:0.5px"/><circle cx="368.68" cy="347.65" r="2.58" style="fill:#ffe000;stroke:#000;stroke-linejoin:round;stroke-width:0.5px"/><path d="M371.87,356l-6.54-.13s-.85-5.32,3.23-5.55c3.38-.19,3.45,5.67,3.32,5.68Z" style="fill:#ffe000;stroke:#000;stroke-linejoin:round;stroke-width:0.5px"/><path d="M368.72,372.15c-1.25-2.78-1.38-6.21-1-9.9m-1.89,10.07c-1.54-2.64-1.82-6-.6-10.25m8.68,11.33c-1-1.24-8-1.77-10.82-.08-1,0-3.71-18.77,5.8-18.31,8.73.43,5.63,18.47,5,18.38Z" style="fill:#fa0204;stroke:#000;stroke-linejoin:round;stroke-width:0.5px"/></svg>