<svg xmlns="http://www.w3.org/2000/svg" viewBox="0 0 900 600"><title>Venezuela</title><path d="M0,0H900V600H0Z" style="fill:#cf142b"/><path d="M0,0H900V400H0Z" style="fill:#00247d"/><path d="M0,0H900V200H0Z" style="fill:#fc0"/><polygon points="489.69 247.22 506.01 239.25 488.13 236.1 485.6 218.11 477.07 234.15 459.18 231 471.8 244.06 463.27 260.1 479.6 252.14 492.22 265.2 489.69 247.22" style="fill:#fff"/><polygon points="546.39 271.21 564.45 269.31 548.72 260.23 552.5 242.47 539 254.62 523.27 245.54 530.66 262.13 517.16 274.28 535.23 272.38 542.61 288.98 546.39 271.21" style="fill:#fff"/><polygon points="591.47 313.15 609.09 317.55 597.41 303.63 607.04 288.23 607.04 288.23 607.04 288.23 607.04 288.23 607.04 288.23 590.2 295.03 578.52 281.12 579.79 299.24 562.95 306.04 580.57 310.44 581.84 328.56 591.47 313.15" style="fill:#fff"/><polygon points="628.32 361.07 642.64 349.89 624.48 350.52 618.27 333.45 613.27 350.91 595.11 351.55 610.17 361.7 605.16 379.16 619.48 367.98 634.54 378.14 628.32 361.07" style="fill:#fff"/><polygon points="410.31 247.22 393.99 239.25 411.87 236.1 414.4 218.11 422.93 234.15 440.82 231 428.2 244.06 436.73 260.1 420.4 252.14 407.78 265.2 410.31 247.22" style="fill:#fff"/><polygon points="353.61 271.21 335.55 269.31 351.28 260.23 347.5 242.47 361 254.62 376.73 245.54 369.34 262.13 382.84 274.28 364.77 272.38 357.39 288.98 353.61 271.21" style="fill:#fff"/><polygon points="308.54 313.15 290.91 317.55 302.59 303.63 292.96 288.23 292.96 288.23 292.96 288.23 292.96 288.23 292.96 288.23 309.8 295.03 321.48 281.12 320.21 299.24 337.05 306.04 319.43 310.44 318.16 328.56 308.54 313.15" style="fill:#fff"/><polygon points="271.68 361.07 257.36 349.89 275.52 350.52 281.73 333.45 286.73 350.91 304.89 351.55 289.83 361.7 294.83 379.16 280.52 367.98 265.46 378.14 271.68 361.07" style="fill:#fff"/></svg>