<svg xmlns="http://www.w3.org/2000/svg" viewBox="0 0 900 600"><title>Virgin_Islands</title><rect x="-0.16" y="-0.16" width="900.31" height="600.31" style="fill:#fff"/><path d="M529.82,216c0-4.14-1.34-12.18-5.72-15-5.62-2.92-5.62-4.72-6.07-8.54s9.44-11,9.44-11-9-4-12.35-3.6-9.88,1.12-10.78,2-5.84-16.18-2.7-18.87,9.66,6.29,9.66,6.29,4.27-9.89-10.78-28.76c5.17-36.85-29.2-45.39-37.07-45.16-6.51-.9-23.36,5.17-26.06,13.26-8.54,2.92-9,10.34-9,10.34s-17.52,3.15-19.77,18.43c10.33-8.54,17.07.9,17.07.9s9,6.29,13.7,6.52-4.49,15.73-7.19,18.43-13.93,13-13.48,13.71,8.76,3.15,8.31,7-25.61,15.5-24.26,18.43a21.35,21.35,0,0,1,11.59-.46c.91,6.38-1.63,13.73-6,16.1h121.4Z" style="fill:#ffd600;stroke:#000;stroke-width:1.4839999675750732px"/><path d="M523.16,384.36s1.14,13.51-4.58,19.23c25.41,1.6,39.14,27.47,39.37,33.65s-7.78,11-7.78,11,2.75,11-7.78,12.82c.23,10.53-7.09,10.53-7.09,10.53s-2.75,8.7-11.22,8.24c-2.52,12.59-15.56,12.36-15.56,12.36s-7.55,18.32-18.77,11.22c-7.09,15.57-25.86,14.88-33,0-3.89-.23-12.59,5-17.85-10.53-11.67,2.06-16.25-12.82-16.25-12.82a13.45,13.45,0,0,1-10.76-8.47c-9.15-1.83-7.55-11-7.55-11s-9.15-2.52-8.93-12.59a13.47,13.47,0,0,1-6.64-12.13s5.72-27,38.91-32.74c-5.27-7.55-4.58-18.54-4.58-18.54l100-.23Z" style="fill:#ffd600;stroke:#000;stroke-linecap:round;stroke-linejoin:round;stroke-width:1.4835000038146973px"/><path d="M364.17,229.41s-18.09,19.47-27.14,4.94,12.61-18.64,12.88-18.92,12.61-4.11,13.7-26.87S336.48,151,328.53,149.08s-31.25-1.92-31.25-1.92-85.25-20.56-94-26.87-89.36-21.11-89.36-21.11S101,97.53,102.13,109s11.79,12.89,11.79,12.89-9,7.13-7.95,13.43,7.95,16.45,22.2,14.8c-1.64,22.48,29.6,26,29.6,26s3.29,32.35,32.07,30.71c6.85,22.21,32.62,23,32.62,23s12.06,15.08,29.6,16.17c10.14,25.22,32.07,18.09,32.07,18.09s-1.64,15.9,8.5,15.9c-5.21,18.09,14.25,20.56,21.65,17,1.92,3.84,8.5,15.63,23.57,8.23,9,13.43,23.85,7.13,23.85,7.13s3.29,10.69,16.17,6.58S363.89,230,364.17,229.41Z" style="fill:#ffd600;stroke:#000;stroke-linejoin:round;stroke-width:1.4839999675750732px"/><path d="M308.25,163.05s20,2.19,17.54,33.17" style="fill:#ffd600;stroke:#000;stroke-linecap:round;stroke-linejoin:round;stroke-width:1.4839999675750732px"/><path d="M232.06,131s-38.37,26.32,33.44,34.54" style="fill:#ffd600;stroke:#000;stroke-linecap:round;stroke-linejoin:round;stroke-width:1.4839999675750732px"/><path d="M243,162c-.27.55-18.09,21.66,14.8,28-15.62,14.8,13.7,19.74,13.7,19.74s-6,15.63,11.51,19.74c-5.76,16.18,13.16,15.35,13.16,15.35s.55,19.74,23,19.47c-.27,13.43,15.35,14.26,15.35,14.26s4.66,14.53,19.73,10.14c1.64,10.14,12.06,8,12.06,8" style="fill:#ffd600;stroke:#000;stroke-linecap:round;stroke-linejoin:round;stroke-width:1.4839999675750732px"/><path d="M362,312.74s.82-14-2.47-16.72" style="fill:#f7f308;stroke:#000;stroke-linecap:round;stroke-linejoin:round;stroke-width:1.4839999675750732px"/><path d="M337,305.07c.27-.27,6.58-12.89,4.39-15.08" style="fill:#f7f308;stroke:#000;stroke-linecap:round;stroke-linejoin:round;stroke-width:1.4839999675750732px"/><path d="M314,297.12l17-16.72" style="fill:#f7f308;stroke:#000;stroke-linecap:round;stroke-linejoin:round;stroke-width:1.4839999675750732px"/><path d="M292.63,280.67c.27-.27,25.76-16.17,25.76-16.17" style="fill:#f7f308;stroke:#000;stroke-linecap:round;stroke-linejoin:round;stroke-width:1.4839999675750732px"/><path d="M283.58,264.49c.27-.27,14.53-6.31,15.08-11.52" style="fill:#f7f308;stroke:#000;stroke-linecap:round;stroke-linejoin:round;stroke-width:1.4839999675750732px"/><path d="M252.06,246.12s34.54,7.4,40.57-.55" style="fill:#ffd600;stroke:#000;stroke-linecap:round;stroke-linejoin:round;stroke-width:1.4839999675750732px"/><path d="M223.28,229.68c1.37,0,51.8,5.48,56.46-.82" style="fill:#ffd600;stroke:#000;stroke-linecap:round;stroke-linejoin:round;stroke-width:1.4839999675750732px"/><path d="M189.84,206.92c.82-.27,59.75,11,76.47,2.47" style="fill:#ffd600;stroke:#000;stroke-linecap:round;stroke-linejoin:round;stroke-width:1.4839999675750732px"/><path d="M161.61,176.49c1.37,0,78.39,18.64,89.91,12.89" style="fill:#ffd600;stroke:#000;stroke-linecap:round;stroke-linejoin:round;stroke-width:1.4839999675750732px"/><path d="M132.28,149.62c.55,0,91.82,21.39,103.34,12.61" style="fill:#ffd600;stroke:#000;stroke-linecap:round;stroke-linejoin:round;stroke-width:1.4839999675750732px"/><path d="M120.49,123.57c.27,0,87.44,28.51,94.84,21.38" style="fill:#ffd600;stroke:#000;stroke-linecap:round;stroke-linejoin:round;stroke-width:1.4839999675750732px"/><path d="M583,230S601.06,249.5,610.1,235s-12.61-18.64-12.88-18.92-12.61-4.11-13.71-26.87,27.14-37.56,35.09-39.48,31.25-1.92,31.25-1.92,85.25-20.56,94-26.87,89.36-21.11,89.36-21.11,12.88-1.64,11.79,9.87-11.79,12.89-11.79,12.89,9,7.13,7.95,13.43-7.95,16.45-22.2,14.8c1.64,22.48-29.6,26-29.6,26s-3.29,32.35-32.07,30.71c-6.85,22.21-32.62,23-32.62,23s-12.06,15.08-29.6,16.17C684.93,272,663,264.85,663,264.85s1.64,15.9-8.5,15.9c5.21,18.09-14.25,20.56-21.65,17-1.92,3.84-8.5,15.63-23.57,8.23-9,13.43-23.85,7.13-23.85,7.13s-3.29,10.69-16.17,6.58,14-89.1,13.7-89.65Z" style="fill:#ffd600;stroke:#000;stroke-linejoin:round;stroke-width:1.4839999675750732px"/><path d="M638.89,163.68s-20,2.19-17.54,33.17" style="fill:#ffd600;stroke:#000;stroke-linecap:round;stroke-linejoin:round;stroke-width:1.4839999675750732px"/><path d="M715.07,131.6s38.37,26.32-33.44,34.54" style="fill:#ffd600;stroke:#000;stroke-linecap:round;stroke-linejoin:round;stroke-width:1.4839999675750732px"/><path d="M704.1,162.58c.27.55,18.09,21.66-14.8,28,15.62,14.8-13.7,19.74-13.7,19.74s6,15.63-11.51,19.74c5.76,16.18-13.16,15.35-13.16,15.35s-.55,19.74-23,19.47c.27,13.43-15.35,14.26-15.35,14.26s-4.66,14.53-19.74,10.14c-1.64,10.14-12.06,8-12.06,8" style="fill:#ffd600;stroke:#000;stroke-linecap:round;stroke-linejoin:round;stroke-width:1.4839999675750732px"/><path d="M585.15,313.37s-.82-14,2.47-16.72" style="fill:#f7f308;stroke:#000;stroke-linecap:round;stroke-linejoin:round;stroke-width:1.4839999675750732px"/><path d="M610.09,305.7c-.27-.27-6.58-12.89-4.39-15.08" style="fill:#f7f308;stroke:#000;stroke-linecap:round;stroke-linejoin:round;stroke-width:1.4839999675750732px"/><path d="M633.12,297.75l-17-16.72" style="fill:#f7f308;stroke:#000;stroke-linecap:round;stroke-linejoin:round;stroke-width:1.4839999675750732px"/><path d="M654.5,281.3c-.27-.27-25.76-16.17-25.76-16.17" style="fill:#ffd600;stroke:#000;stroke-linecap:round;stroke-linejoin:round;stroke-width:1.4839999675750732px"/><path d="M663.55,265.12c-.27-.27-14.53-6.31-15.08-11.52" style="fill:#f7f308;stroke:#000;stroke-linecap:round;stroke-linejoin:round;stroke-width:1.4839999675750732px"/><path d="M695.08,246.75s-34.54,7.4-40.57-.55" style="fill:#ffd600;stroke:#000;stroke-linecap:round;stroke-linejoin:round;stroke-width:1.4839999675750732px"/><path d="M723.85,230.31c-1.37,0-51.8,5.48-56.46-.82" style="fill:#ffd600;stroke:#000;stroke-linecap:round;stroke-linejoin:round;stroke-width:1.4839999675750732px"/><path d="M757.3,207.55c-.82-.27-59.76,11-76.48,2.47" style="fill:#ffd600;stroke:#000;stroke-linecap:round;stroke-linejoin:round;stroke-width:1.4839999675750732px"/><path d="M785.52,177.11c-1.37,0-78.39,18.64-89.91,12.89" style="fill:#ffd600;stroke:#000;stroke-linecap:round;stroke-linejoin:round;stroke-width:1.4839999675750732px"/><path d="M814.85,150.25c-.55,0-91.82,21.39-103.34,12.61" style="fill:#ffd600;stroke:#000;stroke-linecap:round;stroke-linejoin:round;stroke-width:1.4839999675750732px"/><path d="M826.65,124.2c-.27,0-87.44,28.51-94.84,21.38" style="fill:#ffd600;stroke:#000;stroke-linecap:round;stroke-linejoin:round;stroke-width:1.4839999675750732px"/><path d="M687.7,263.26s-5.36,76.61-5.62,76.43-11.18-13.38-11.18-13.38L637.2,432l7.88,23-19.62,64.34-16.18-20.53-26.14,10.51,21-67.77,19.39-13.93,34.9-104.1L639,326l48.66-62.72Z" style="fill:#00cede;stroke:#000;stroke-width:1.4835000038146973px"/><path d="M762.17,294.85s-40.76,65.08-40.9,64.81-3.57-17.07-3.57-17.07l-67,62.14-71.51,69-.2-14.21-24.47-3,32.37-24.77L603.48,429,708,334.28l-18.24-7,72.44-32.46Z" style="fill:#00cede;stroke:#000;stroke-width:1.4835000038146973px"/><path d="M579.26,459.42c.44-.92,37.18-32.32,37.18-32.32" style="fill:none;stroke:#000;stroke-width:1.5149999856948853px"/><path d="M740.4,239.8S720.48,314,720.26,313.74s-8.41-15.27-8.41-15.27L631.06,437.28l3.32,24.13-29,53.13-12-23.25-27.67,5.31,31-56.23,21.69-10,81.67-137L680.64,292,740.4,239.8Z" style="fill:#00cede;stroke:#000;stroke-width:1.4835000038146973px"/><path d="M593.87,490.41c0-.44,27.89-49.15,27.89-49.15" style="fill:none;stroke:#000;stroke-width:1.4835000038146973px"/><path d="M45.38,225.85l48.7.22-4.87,11.73,21.25,84.13L136.13,238l-9.08-12.18h50.69L166.9,237.58,125.07,357.8l10.84,15.72H87.21L98.06,357.8,57.11,238,45.38,225.86Z" style="fill:#00cede;stroke:#000;stroke-width:1.4835000038146973px"/><path d="M792.41,228.73h46.26l-7.53,10.4-.22,122.43,10.4,11.51H792.41l9.74-12.4-.22-121.32-9.52-10.63Z" style="fill:#00cede;stroke:#000;stroke-width:1.4835000038146973px"/><path d="M427.72,118s5.93,7.45,8.14,8.14,14.62,6.76,13.93,10.9-8.83,6.21-8.83,6.21" style="fill:none;stroke:#000;stroke-width:1.4835000038146973px"/><path d="M437.51,107l12.42,11.87s2.21,10.21,11,9.38,7.59-4.55,7.59-4.55-10.62-7.45-19-5.66" style="fill:none;stroke:#000;stroke-width:1.4835000038146973px"/><path d="M361.8,481l16.58-13.78s-3.65-7.59-16.87-7.31c-12.37-8.71-33.73-29.24-33.73-29.24l-10.68-29s8.71-2.53,10.68-9.56-.56-15.74-1.41-16.59-9.56,1.41-12.09,5.06-6.47,17.71-12.37,12.93.84-10.12.84-10.12,5.9-7.31,5.62-11.25-7.87-15.74-8.71-16-2.53,15.46-4.78,17.15-5.34,8.72-9.84,4.78,2.25-9.84,2.25-9.84,12.65-6.75.28-29A44.17,44.17,0,0,1,276.91,355s-3.37,5.91-6.47.84S274.1,346,274.1,346s11-6.47,11.24-16-13.21-20.52-13.21-20.52-.84,17.71-5.06,20-5.9,5.9-10.68,2S260,318.77,260,318.77s14.62-14.62,13.77-23.05-1.69-9.84-1.69-9.84-11,6.75-12.37,10.12-5.9,15.46-11.52,11.81c-3.94-4.5,3.37-13.21,3.37-13.21s5.34-5.9,5.06-8.43S252.18,276,244,268.73c-1.12-2.25-1.69-11.25-1.69-11.25s-6.18,7.31-5.9,11.25-.56,11.81.28,20.52-6.75-2.81-6.75-2.81l1.41-28.11s-10.68-12.93-23.61-17.71a25,25,0,0,1,4.5,13.78s-5.34,11.53-5.34,14.62,6.18,16.59,17.71,25.58c-17.43-18.84-39.07-12.65-45.54-16.31,3.09,3.66,12.37,17.43,11.24,21.09s16.58,11.25,16.58,11.25l18.83.28s9.28,6.47,10.12,10.68-13.49-7.87-19.11-7.59-20.52-2-20.52-2,9,8.43,9.28,12.09,4.22,12.09,9.56,14.34,19.68,3.09,19.68,3.09,6.18-3.66,7.31.28-8.15,7-8.15,7-9.56,0-12.65-2.53-3.65-6.75-17.43-8.43c-1.41,11.53,7.59,23.33,7.59,23.33s37.95-3.09,37.66,5.06-31.48.84-32.6-1.69,1.41,16,8.71,20,23.61,2,25.58,1.13S260,384,260,388.21s-37.1,7.59-37.66,6.47S228,409,242.9,408.18s21.36-5.34,21.36-5.34,9-1.69,9.84,2-9,5.34-9,5.34-23.61.56-24.45-.56,5.34,14.9,21.93,14.62c12.37-1.13,13.21-6.47,15.74-7.31a51.88,51.88,0,0,1,12.65-.56c1.12.28,20.8,14.05,20.8,14.05l50,50.61Z" style="fill:#188400;stroke:#000;stroke-linejoin:round;stroke-width:1.4835000038146973px"/><path d="M216.77,258.88s-.56,27,12.93,35.14" style="fill:none;stroke:#000;stroke-linecap:round;stroke-linejoin:round;stroke-width:1.4835000038146973px"/><path d="M245.15,280.25s9,13.78-6.18,18.84" style="fill:none;stroke:#000;stroke-linecap:round;stroke-linejoin:round;stroke-width:1.4835000038146973px"/><path d="M198.49,289.53s-1.12,15.46,26.14,14.34" style="fill:none;stroke:#000;stroke-linecap:round;stroke-linejoin:round;stroke-width:1.4835000038146973px"/><path d="M266,303s-4.5,11-15.46,10.4" style="fill:none;stroke:#000;stroke-linecap:round;stroke-linejoin:round;stroke-width:1.4835000038146973px"/><path d="M276.07,327.76c0,1.41,2,16.31-12.37,16" style="fill:none;stroke:#000;stroke-linecap:round;stroke-linejoin:round;stroke-width:1.4835000038146973px"/><path d="M207.49,321.58s18,11.25,26.14,10.4" style="fill:none;stroke:#000;stroke-linecap:round;stroke-linejoin:round;stroke-width:1.4835000038146973px"/><path d="M211.42,348.85s8.43,9,23.89,6.75" style="fill:none;stroke:#000;stroke-linecap:round;stroke-linejoin:round;stroke-width:1.4835000038146973px"/><path d="M285.63,355c0,1.13-2.81,9.84-9,11" style="fill:none;stroke:#000;stroke-linecap:round;stroke-linejoin:round;stroke-width:1.4835000038146973px"/><path d="M225.48,375s6.75,8.71,24.45,3.94" style="fill:none;stroke:#000;stroke-linecap:round;stroke-linejoin:round;stroke-width:1.4835000038146973px"/><path d="M302.5,371.34s-2.81,13.78-10.12,14.06" style="fill:none;stroke:#000;stroke-linecap:round;stroke-linejoin:round;stroke-width:1.4835000038146973px"/><path d="M319.64,386.24s-5.62,16.59-20,14.06" style="fill:none;stroke:#000;stroke-linecap:round;stroke-linejoin:round;stroke-width:1.4835000038146973px"/><path d="M253.59,415.76s5.62,5.06,19.39-1.13" style="fill:none;stroke:#000;stroke-linecap:round;stroke-linejoin:round;stroke-width:1.4835000038146973px"/><path d="M238.13,398.89c1.12,0,8.15,5.9,25-3.09" style="fill:none;stroke:#000;stroke-linecap:round;stroke-linejoin:round;stroke-width:1.4835000038146973px"/><path d="M361.78,460.33s-10.5,4.7-.31,20.54" style="fill:none;stroke:#000;stroke-linecap:round;stroke-linejoin:round;stroke-width:1.4835000038146973px"/><path d="M568.1,322.18s11,10.6,11.26,12.81,2.87,12.58,5.74,14.13,14.13,10.6,15.67,14.13,11.48,18.55,11.48,18.55,9.27,19,15.45,20.54,23.62-1.1,27.15,7.29,2.65,20.54,2.65,20.54-4.2,3.75-6.18,1.55-5.52,11-11.7,7.29c-8.42-17.93-30.46-15-30.46-15s4.85-7.52-14.8-14.14c-30.69,5.3-39.74-26.72-39.74-26.72L537.17,368l30.93-45.79Z" style="fill:#ffd600;stroke:#000;stroke-width:1.4835000038146973px"/><path d="M550.44,367.66l13.69,6.4-1.1-11.7" style="fill:#ffd600;stroke:#000;stroke-width:1.4835000038146973px"/><path d="M569.86,365.9l12.58,6.18-5.08-10.16" style="fill:#ffd600;stroke:#000;stroke-width:1.4835000038146973px"/><path d="M569.2,349.34,581.56,356l-5.74-12.81" style="fill:#ffd600;stroke:#000;stroke-width:1.4835000038146973px"/><path d="M588.85,410.06s-14.13-18.55-13.91-18.55S599,396.15,599,396.15l-8.83-19L612,382.9" style="fill:#ffd600;stroke:#000;stroke-width:1.4835000038146973px"/><path d="M629.47,412.93s13.91,3.09,13.47,26.28" style="fill:#ffd600;stroke:#000;stroke-width:1.4835000038146973px"/><path d="M636.75,409.4s15-.88,14.13,22.52" style="fill:#ffd600;stroke:#000;stroke-width:1.4835000038146973px"/><path d="M377.85,325s-11,10.6-11.26,12.81-4.7,11.21-7.57,12.76-12.76,11.52-14.3,15-11,19-11,19S322.82,400.45,316.64,402c-7.55.63-22,2.1-25.55,10.49s1.93,21.22,6,21.22c6.18,2.75,9,5.58,11,3.38,3.36,1,1.44,3.87,7.62.12-4.7-6-4.2-11.84.51-13.37s12.35,5.54,12.35,5.54,2.79-13,22.43-19.63c30.69,5.3,38.93-19.47,41.08-25.37,4.84-6.59,12.36-8.34,18.54-12.51L377.85,325Z" style="fill:#ffd600;stroke:#000;stroke-width:1.4835000038146973px"/><path d="M396,367.85l-14.23,7.48,1.1-10.09" style="fill:none;stroke:#000;stroke-linecap:round;stroke-linejoin:round;stroke-width:1.4835000038146973px"/><path d="M377.16,365.82,363.77,372l6.15-10.42" style="fill:none;stroke:#000;stroke-linecap:round;stroke-linejoin:round;stroke-width:1.4835000038146973px"/><path d="M377.56,349.53l-11.56,5,4.13-8.51" style="fill:none;stroke:#000;stroke-linecap:round;stroke-linejoin:round;stroke-width:1.4835000038146973px"/><path d="M357.64,410c2.15-4.3,13.05-17.74,12.83-17.74S348,396.88,348,396.88l7.22-18.72L335.8,382" style="fill:none;stroke:#000;stroke-linecap:round;stroke-linejoin:round;stroke-width:1.4835000038146973px"/><path d="M317.4,412.83s-16.88,3.09-10.26,24" style="fill:none;stroke:#000;stroke-linecap:round;stroke-linejoin:round;stroke-width:1.4835000038146973px"/><path d="M310.11,410s-18.44.49-12.07,23.44" style="fill:none;stroke:#000;stroke-width:1.4835000038146973px"/><path d="M513.32,393.06c0-.23,6.18,15.57-7.09,18.31,34.1-2.52,43.72,36.4,43.72,36.4" style="fill:none;stroke:#000;stroke-linecap:round;stroke-linejoin:round;stroke-width:1.8544000387191772px"/><path d="M505.54,398.79s3,11.45-6.87,17.17c35.7,7.78,43.94,44.87,43.94,44.87" style="fill:none;stroke:#000;stroke-linecap:round;stroke-linejoin:round;stroke-width:1.4835000038146973px"/><path d="M498,404c0,.46,3.43,14.88-7.78,17.17,22.2-6,45.32,50.36,45.32,50.36" style="fill:none;stroke:#000;stroke-linecap:round;stroke-linejoin:round;stroke-width:1.4835000038146973px"/><path d="M487.23,410.46s5.72,11-4.81,14.42c19.91,2.06,26.32,67.54,26.32,67.54" style="fill:none;stroke:#000;stroke-linecap:round;stroke-linejoin:round;stroke-width:1.4835000038146973px"/><path d="M480.36,414.35s3.2,12.13-7.09,15.8c20.83-11,16.94,73.72,16.94,73.72" style="fill:none;stroke:#000;stroke-linecap:round;stroke-linejoin:round;stroke-width:1.4835000038146973px"/><path d="M466.63,415s-4.35,12.82,5.27,15.34c-19-5.26-15.34,73.49-15.34,73.49" style="fill:none;stroke:#000;stroke-linecap:round;stroke-linejoin:round;stroke-width:1.4835000038146973px"/><path d="M457.7,410a15.77,15.77,0,0,0,8.7,17.63c-19.45-12.36-27.47,65.7-27.47,65.7" style="fill:none;stroke:#000;stroke-linecap:round;stroke-linejoin:round;stroke-width:1.4835000038146973px"/><path d="M488.6,420.77s35.48,34.11,35.25,59.29" style="fill:none;stroke:#000;stroke-linecap:round;stroke-linejoin:round;stroke-width:1.4835000038146973px"/><path d="M432.52,393.29c0,.23-4.35,18.32,8.24,18.77" style="fill:none;stroke:#000;stroke-linecap:round;stroke-linejoin:round;stroke-width:1.4835000038146973px"/><path d="M441.45,399.93c0,.46-3.43,15.34,6.64,16" style="fill:none;stroke:#000;stroke-linecap:round;stroke-linejoin:round;stroke-width:1.4835000038146973px"/><path d="M449.46,404.28s-6.18,14.88,8.93,16.94" style="fill:none;stroke:#000;stroke-linecap:round;stroke-linejoin:round;stroke-width:1.4835000038146973px"/><path d="M457.24,421.45c-.23,0-29.52,27.24-34.1,58.84" style="fill:none;stroke:#000;stroke-linecap:round;stroke-linejoin:round;stroke-width:1.4835000038146973px"/><path d="M451.75,418.7c-.23,0-37.31,23.12-39.83,52.65" style="fill:none;stroke:#000;stroke-linecap:round;stroke-linejoin:round;stroke-width:1.4835000038146973px"/><path d="M443.51,414.81s-41.2,24-39.37,45.79" style="fill:none;stroke:#000;stroke-linecap:round;stroke-linejoin:round;stroke-width:1.4835000038146973px"/><path d="M433.67,409.55s-30.67,5.72-38.22,38.69" style="fill:none;stroke:#000;stroke-linecap:round;stroke-linejoin:round;stroke-width:1.4835000038146973px"/><path d="M369,198.62s29.66,16.38,50.91,15.5S473,199.5,473,199.5s28.33,15.94,51.35,13.73,54.89-14.61,54.89-14.61c19,95-24.35,180.36-106.24,218.73-86.91-39.7-129.12-135.2-104-218.73Z" style="fill:none;stroke:#000;stroke-width:1.4835000038146973px"/><path d="M369,198.62s29.66,16.38,50.91,15.5S473,199.51,473,199.51s28.33,15.94,51.35,13.73,54.89-14.61,54.89-14.61C598.29,293.67,554.9,379,473,417.36c-86.91-39.7-129.11-135.2-104-218.74Z" style="fill:#fff;stroke:#000;stroke-width:0.8263099789619446px"/><path d="M379.91,267.69v59.43l16.85,28.42V267.69Z" style="fill:#c41e3a"/><path d="M413.62,267.69v107.6L430.48,391V267.69Z" style="fill:#c41e3a"/><path d="M447.32,267.69v136l16.85,9.36V267.69Z" style="fill:#c41e3a"/><path d="M565.28,267.69v59.45L548.43,355.8V267.69Z" style="fill:#c41e3a"/><path d="M531.59,267.69V375.82l-16.85,15.37V267.69h16.85Z" style="fill:#c41e3a"/><path d="M497.87,267.69V403.46L481,413.5V267.69Z" style="fill:#c41e3a"/><path d="M369,198.62a167.79,167.79,0,0,0,17.49,8.08c10.07,4,22.8,7.86,33.42,7.42C441.13,213.23,473,199.5,473,199.5s28.33,15.94,51.35,13.73,54.89-14.61,54.89-14.61c4.65,27.6,7,41.7,2.88,69.07H363.06c-2.79-27.32-2.64-39.7,5.92-69.07Z" style="fill:#002b7f;stroke:#000;stroke-width:0.8263099789619446px"/><path d="M369,198.62s29.66,16.38,50.91,15.5S473,199.5,473,199.5s28.33,15.94,51.35,13.73,54.89-14.61,54.89-14.61c19,95-24.35,180.36-106.24,218.73-86.91-39.7-129.12-135.2-104-218.73Z" style="fill:none;stroke:#000;stroke-width:1.4835000038146973px"/></svg>