<svg xmlns="http://www.w3.org/2000/svg" viewBox="0 0 800 500"><title>Argentina</title><rect width="800" height="500" style="fill:#74acdf"/><rect y="166.67" width="800" height="166.67" style="fill:#fff"/><path d="M396.84,251.31l28.45,62s.49,1.18,1.28.86.3-1.51.3-1.51l-23.71-64m-.68,24.12c-.35,9.43,5.45,14.61,4.69,23S411,309,412.11,312.3s-1.16,5.23-.2,5.7,3.07-2.12,2.38-6.78-4.22-6-3.39-16.32-4.21-12.68-3-22.06" style="fill:#f6b40e;stroke:#85340a;stroke-width:1.1116000413894653px"/><path d="M396.58,250l2.56,68.16s0,1.28.85,1.28.85-1.28.85-1.28L403.42,250m-9.86,22c-3.93,8.58-.55,15.59-4.48,23.08s-1.47,13.66-1.73,17.09-3.07,4.39-2.36,5.19,3.65-.78,4.79-5.35-1.59-7.19,3.11-16.37,1-13.32,5.69-21.52" style="fill:#f6b40e;stroke:#85340a;stroke-width:1.1116000413894653px"/><path d="M396.84,248.69l-23.71,64s-.49,1.18.3,1.51,1.28-.86,1.28-.86l28.45-62m-17.54,16.57c-6.91,6.42-6.48,14.19-13,19.61s-6.59,12.05-8.14,15.13-4.52,2.88-4.17,3.89,3.67.67,6.48-3.11,1.28-7.25,9.14-13.94,6-11.94,13.49-17.7" style="fill:#f6b40e;stroke:#85340a;stroke-width:1.1116000413894653px"/><path d="M397.58,247.58l-46.38,50s-.91.91-.3,1.51,1.51-.3,1.51-.3l50-46.38M379.87,261c-8.84,3.29-11.41,10.63-19.48,13.15s-10.7,8.62-13.31,10.86-5.28.93-5.34,2,3.13,2,7.17-.39,4-6.21,13.78-9.38,10.1-8.74,19.24-11.19" style="fill:#f6b40e;stroke:#85340a;stroke-width:1.1116000413894653px"/><path d="M404.31,274.41c.45,9.05,5.59,13.06,4.58,21.31,2.21-6.52-3.12-11.58-2.82-21.22m-7.65-23.76,19.49,42.58-16.33-43.89" style="fill:#85340a"/><path d="M394.64,274.2c-3,8.54.16,14.21-3.93,21.44,4.54-5.18,1.55-11.9,5.52-20.68m2-24.88L400,296.88l1.71-46.8" style="fill:#85340a"/><path d="M385.79,270.31C379.71,277,380.5,283.5,374,288.62c6.18-3,6-10.4,13-17m11.39-22.21L382,293.3l19.49-42.58" style="fill:#85340a"/><path d="M379.1,263.32c-8.19,3.88-9.93,10.16-17.94,12.39,6.88-.45,9.51-7.32,18.53-10.73m19-16.16-31.88,34.3,34.3-31.88" style="fill:#85340a"/><path d="M398.69,246.84l-62,28.45s-1.18.49-.86,1.28,1.51.3,1.51.3l64-23.71m-24.12-.68c-9.43-.35-14.61,5.45-23,4.69S341,261,337.7,262.11s-5.23-1.16-5.7-.2,2.12,3.07,6.78,2.38,6-4.22,16.32-3.39,12.68-4.21,22.06-3" style="fill:#f6b40e;stroke:#85340a;stroke-width:1.1116000413894653px"/><path d="M400,246.58l-68.16,2.56s-1.28,0-1.28.85,1.28.85,1.28.85L400,253.42m-22-9.86c-8.58-3.93-15.59-.55-23.08-4.48s-13.66-1.47-17.09-1.73-4.39-3.07-5.19-2.36.78,3.65,5.35,4.79,7.19-1.59,16.37,3.11,13.32,1,21.52,5.69" style="fill:#f6b40e;stroke:#85340a;stroke-width:1.1116000413894653px"/><path d="M401.31,246.84l-64-23.71s-1.18-.49-1.51.3.86,1.28.86,1.28l62,28.45m-16.57-17.54c-6.42-6.91-14.19-6.48-19.61-13s-12.05-6.59-15.13-8.14-2.88-4.52-3.89-4.17-.67,3.67,3.11,6.48,7.25,1.28,13.94,9.14,11.94,6,17.7,13.49" style="fill:#f6b40e;stroke:#85340a;stroke-width:1.1116000413894653px"/><path d="M402.42,247.58l-50-46.38s-.91-.91-1.51-.3.3,1.51.3,1.51l46.38,50M389,229.87c-3.29-8.84-10.63-11.41-13.15-19.48s-8.62-10.7-10.86-13.31-.93-5.28-2-5.34-2,3.13.39,7.17,6.21,4,9.38,13.78,8.74,10.1,11.19,19.24" style="fill:#f6b40e;stroke:#85340a;stroke-width:1.1116000413894653px"/><path d="M375.59,254.31c-9.05.45-13.06,5.59-21.31,4.58,6.52,2.21,11.58-3.12,21.22-2.82m23.76-7.65-42.58,19.49,43.89-16.33" style="fill:#85340a"/><path d="M375.8,244.64c-8.54-3-14.21.16-21.44-3.93,5.18,4.54,11.9,1.55,20.68,5.52m24.88,2L353.12,250l46.8,1.71" style="fill:#85340a"/><path d="M379.69,235.79C373,229.71,366.5,230.5,361.38,224c3,6.18,10.4,6,17,13m22.21,11.39L356.7,232l42.58,19.49" style="fill:#85340a"/><path d="M386.68,229.1c-3.88-8.19-10.16-9.93-12.39-17.94.45,6.88,7.32,9.51,10.73,18.53m16.16,19-34.3-31.88,31.88,34.3" style="fill:#85340a"/><path d="M403.16,248.69l-28.45-62s-.49-1.18-1.28-.86-.3,1.51-.3,1.51l23.71,64m.68-24.12c.35-9.43-5.45-14.61-4.69-23S389,191,387.89,187.7s1.16-5.23.2-5.7-3.07,2.12-2.38,6.78,4.22,6,3.39,16.32,4.21,12.68,3,22.06" style="fill:#f6b40e;stroke:#85340a;stroke-width:1.1116000413894653px"/><path d="M403.42,250l-2.56-68.16s0-1.28-.85-1.28-.85,1.28-.85,1.28L396.58,250m9.86-22c3.93-8.58.55-15.59,4.48-23.08s1.47-13.66,1.73-17.09,3.07-4.39,2.36-5.19-3.65.78-4.79,5.35,1.59,7.19-3.11,16.37-1,13.32-5.69,21.52" style="fill:#f6b40e;stroke:#85340a;stroke-width:1.1116000413894653px"/><path d="M403.16,251.31l23.71-64s.49-1.18-.3-1.51-1.28.86-1.28.86l-28.45,62m17.54-16.57c6.91-6.42,6.48-14.19,13-19.61s6.59-12.05,8.14-15.13,4.52-2.88,4.17-3.89-3.67-.67-6.48,3.11-1.28,7.25-9.14,13.94-6,11.94-13.49,17.7" style="fill:#f6b40e;stroke:#85340a;stroke-width:1.1116000413894653px"/><path d="M402.42,252.42l46.38-50s.91-.91.3-1.51-1.51.3-1.51.3l-50,46.38m22.54-8.6c8.84-3.29,11.41-10.63,19.48-13.15s10.7-8.62,13.31-10.86,5.28-.93,5.34-2-3.13-2-7.17.39-4,6.21-13.78,9.38-10.1,8.74-19.24,11.19" style="fill:#f6b40e;stroke:#85340a;stroke-width:1.1116000413894653px"/><path d="M395.69,225.59c-.45-9.05-5.59-13.06-4.58-21.31-2.21,6.52,3.12,11.58,2.82,21.22m7.65,23.76-19.49-42.58,16.33,43.89" style="fill:#85340a"/><path d="M405.36,225.8c3-8.54-.16-14.21,3.93-21.44-4.54,5.18-1.55,11.9-5.52,20.68m-2,24.88L400,203.12l-1.71,46.8" style="fill:#85340a"/><path d="M414.21,229.69c6.08-6.72,5.29-13.19,11.83-18.31-6.18,3-6,10.4-13,17m-11.39,22.21L418,206.7l-19.49,42.58" style="fill:#85340a"/><path d="M420.9,236.68c8.19-3.88,9.93-10.16,17.94-12.39-6.88.45-9.51,7.32-18.53,10.73m-19,16.16,31.88-34.3-34.3,31.88" style="fill:#85340a"/><path d="M401.31,253.16l62-28.45s1.18-.49.86-1.28-1.51-.3-1.51-.3l-64,23.71m24.12.68c9.43.35,14.61-5.45,23-4.69S459,239,462.3,237.89s5.23,1.16,5.7.2-2.12-3.07-6.78-2.38-6,4.22-16.32,3.39-12.68,4.21-22.06,3" style="fill:#f6b40e;stroke:#85340a;stroke-width:1.1116000413894653px"/><path d="M400,253.42l68.16-2.56s1.28,0,1.28-.85-1.28-.85-1.28-.85L400,246.58m22,9.86c8.58,3.93,15.59.55,23.08,4.48s13.66,1.47,17.09,1.73,4.39,3.07,5.19,2.36-.78-3.65-5.35-4.79-7.19,1.59-16.37-3.11-13.32-1-21.52-5.69" style="fill:#f6b40e;stroke:#85340a;stroke-width:1.1116000413894653px"/><path d="M398.69,253.16l64,23.71s1.18.49,1.51-.3-.86-1.28-.86-1.28l-62-28.45m16.57,17.54c6.42,6.91,14.19,6.48,19.61,13s12.05,6.59,15.13,8.14,2.88,4.52,3.89,4.17.67-3.67-3.11-6.48-7.25-1.28-13.94-9.14-11.94-6-17.7-13.49" style="fill:#f6b40e;stroke:#85340a;stroke-width:1.1116000413894653px"/><path d="M397.58,252.42l50,46.38s.91.91,1.51.3-.3-1.51-.3-1.51l-46.38-50m8.6,22.54c3.29,8.84,10.63,11.41,13.15,19.48s8.62,10.7,10.86,13.31.93,5.28,2,5.34,2-3.13-.39-7.17-6.21-4-9.38-13.78-8.74-10.1-11.19-19.24" style="fill:#f6b40e;stroke:#85340a;stroke-width:1.1116000413894653px"/><path d="M424.41,245.69c9.05-.45,13.06-5.59,21.31-4.58-6.52-2.21-11.58,3.12-21.22,2.82m-23.76,7.65,42.58-19.49-43.89,16.33" style="fill:#85340a"/><path d="M424.2,255.36c8.54,3,14.21-.16,21.44,3.93-5.18-4.54-11.9-1.55-20.68-5.52m-24.88-2L446.88,250l-46.8-1.71" style="fill:#85340a"/><path d="M420.31,264.21c6.72,6.08,13.19,5.29,18.31,11.83-3-6.18-10.4-6-17-13m-22.21-11.39L443.3,268l-42.58-19.49" style="fill:#85340a"/><path d="M413.32,270.9c3.88,8.19,10.16,9.93,12.39,17.94-.45-6.88-7.32-9.51-10.73-18.53m-16.16-19,34.3,31.88-31.88-34.3" style="fill:#85340a"/><circle cx="400" cy="250" r="27.78" style="fill:#f6b40e;stroke:#85340a;stroke-width:1.5px"/><path d="M409.47,244.06a5.49,5.49,0,0,0-4.78,2.53c2.14,1.92,6.86,2.13,10.06-.22a7.33,7.33,0,0,0-5.28-2.31Zm0,.44c1.85,0,3.57.81,3.81,1.66a5.63,5.63,0,0,1-7.69.44,4.5,4.5,0,0,1,3.88-2.09Z" style="fill:#843511"/><path d="M409.83,242.74a5.67,5.67,0,0,0-4.7,1.71,5.56,5.56,0,0,1-2.14,1.07c-.21.21,0,.85.43.64a12.25,12.25,0,0,0,2.56-1.71,5.33,5.33,0,0,1,3.85-1.07c3.85,0,6,3.2,6.41,3s-2.14-3.63-6.41-3.63Z" style="fill:#85340a"/><path d="M417.52,244c-4.91-4.27-11.11-4.91-14.53-1.71a8.38,8.38,0,0,0-1.59,3.57c-.43,2.43.33,5.06,2.24,7.76a1.61,1.61,0,0,0-.86.43,15.21,15.21,0,0,1-1.74-9.75,13.82,13.82,0,0,1,.67-2.44c4.7-3.85,11.11-4.27,15.81,2.14Z" style="fill:#85340a"/><circle cx="409.4" cy="246.15" r="1.92" style="fill:#85340a"/><path d="M415,247.44c-3.63,2.78-7.27,2.56-9.4,1.28s-2.14-1.71-1.71-1.71.85.43,2.56,1.28,4.27.86,8.55-.85Z" style="fill:#85340a"/><path d="M395.75,253.84a1.92,1.92,0,0,0,.38,3.81,1.89,1.89,0,0,0,1.56-.81,4.06,4.06,0,0,0,2.31.63h.25a4.06,4.06,0,0,0,2.31-.62,1.89,1.89,0,0,0,1.56.81,1.92,1.92,0,0,0,.38-3.81,1.29,1.29,0,1,1-1.72,1.28,2.91,2.91,0,0,1-5.31,0,1.28,1.28,0,1,1-1.72-1.28Z" style="fill:#85340a"/><path d="M397.84,259.53c-2.14,0-3,1.94-4.91,3.22a38.54,38.54,0,0,0,3.41-2.12c1.5-.85,2.77.19,3.63.19h0c.85,0,2.13-1,3.63-.19a38.35,38.35,0,0,0,3.44,2.13c-1.92-1.28-2.8-3.22-4.94-3.22a5.74,5.74,0,0,0-2.12.66h0A5.72,5.72,0,0,0,397.84,259.53Z" style="fill:#85340a"/><path d="M397.12,262.06a14.67,14.67,0,0,0-3.56.69c3.85-.85,4.7.44,6.41.44h0c1.71,0,2.56-1.29,6.41-.44-4.27-1.28-5.12-.44-6.41-.44h0a23,23,0,0,0-2.84-.25Z" style="fill:#85340a"/><path d="M393.75,262.72c-.25,0-.52,0-.81,0,4.49.43,2.33,3,7,3h0c4.7,0,2.57-2.57,7.06-3-4.7-.43-3.21,2.34-7.06,2.34h0c-3.61,0-2.5-2.42-6.22-2.37Z" style="fill:#85340a"/><path d="M403.85,269.66a3.85,3.85,0,1,0-7.69,0,4,4,0,0,1,7.69,0Z" style="fill:#85340a"/><path d="M382.73,244c4.91-4.27,11.11-4.91,14.53-1.71a8.38,8.38,0,0,1,1.59,3.57c.43,2.43-.33,5.06-2.24,7.76a1.61,1.61,0,0,1,.86.43,15.21,15.21,0,0,0,1.74-9.75,13.82,13.82,0,0,0-.67-2.44c-4.7-3.85-11.11-4.27-15.81,2.14Z" style="fill:#85340a"/><path d="M390.42,242.74a5.67,5.67,0,0,1,4.7,1.71,5.56,5.56,0,0,0,2.14,1.07c.21.21,0,.85-.43.64a12.25,12.25,0,0,1-2.56-1.71,5.33,5.33,0,0,0-3.85-1.07c-3.85,0-6,3.2-6.41,3s2.14-3.63,6.41-3.63Z" style="fill:#85340a"/><path d="M390.29,244.06a5.49,5.49,0,0,0-4.78,2.53c2.14,1.92,6.86,2.13,10.06-.22a7.33,7.33,0,0,0-5.28-2.31Zm0,.44c1.85,0,3.57.81,3.81,1.66a5.63,5.63,0,0,1-7.69.44,4.5,4.5,0,0,1,3.88-2.09Z" style="fill:#843511"/><circle cx="390.54" cy="246.15" r="1.92" style="fill:#85340a"/><path d="M385.29,247.44c3.63,2.78,7.27,2.56,9.4,1.28s2.14-1.71,1.71-1.71-.85.43-2.56,1.28-4.27.86-8.55-.85Z" style="fill:#85340a"/></svg>