<svg xmlns="http://www.w3.org/2000/svg" viewBox="0 0 720 504"><title>Brazil_Final</title><rect width="720" height="504" style="fill:#009b3a"/><path d="M61.2,252,360,442.8,658.8,252,360,61.2Z" style="fill:#fedf00"/><circle cx="360" cy="252" r="126" style="fill:#002776"/><circle cx="360" cy="252" r="126" style="fill:none"/><path d="M288,198a308.52,308.52,0,0,0-43.27,3.06A125,125,0,0,0,238,220.33a288.42,288.42,0,0,1,242.27,69.28,125.26,125.26,0,0,0,4.47-19.95A304.75,304.75,0,0,0,288,198Z" style="fill:#fff"/><path d="M257.17,208.56a5.71,5.71,0,0,0-6.09-5.3c-3,.36-5,3.32-4.63,6.61a5.71,5.71,0,0,0,6.09,5.3C255.54,214.81,257.54,211.85,257.17,208.56Zm-4.9,4.4a3.51,3.51,0,0,1-3.61-3.36c-.25-2.07,1-3.92,2.69-4.13a3.51,3.51,0,0,1,3.61,3.36,3.58,3.58,0,0,1-2.69,4.17Z" style="fill:#009b3a"/><path d="M268.62,201.62h-.14l-6.84.48.67,12,2.22-.16-.31-4.45,4.79-.33a3.77,3.77,0,1,0-.39-7.53Zm.07,5.33-4.62.32-.22-3.08,4.62-.32a1.54,1.54,0,0,1,.22,3.08Z" style="fill:#009b3a"/><path d="M272.49,213.37c-.12-1.71-.38-5.47-3-5.29l-3.25.23c3.76-.26,4,3.5,4.14,5.21" style="fill:#009b3a"/><path d="M288.23,207.81V206.1a5.14,5.14,0,0,0-5.18-5.1H283l-5.66.1.18,12,5.66-.1a5.14,5.14,0,0,0,5.05-5.23h0Zm-2.06-.31a3.26,3.26,0,0,1-3.2,3.31l-3.26.06-.11-7.51,3.26-.06a3.26,3.26,0,0,1,3.31,3.2Z" style="fill:#009b3a"/><path d="M292.76,213l10.79.38.08-2.23-8.74-.31.11-3.08,6.85.24.07-2.06-6.85-.24.08-2.4,8.22.29.08-2.23L293.18,201Z" style="fill:#009b3a"/><path d="M308,213.64l2,.18.72-8.2,1.67,8.41,1.88.16,3.11-8-.72,8.2,2,.18,1-12-3-.26-3.11,8L312,201.94l-3-.26Z" style="fill:#009b3a"/><path d="M332.85,216.44l8.87,1.52.35-2-6.84-1.18.46-2.7,5.58,1,.35-2L336,210l.32-1.86,6.63,1.14.35-2-8.66-1.49Z" style="fill:#009b3a"/><path d="M365.45,211.06l-6.64-1.72-3.18,11.58,2.16.56,1.12-4.32,4.65,1.2a3.77,3.77,0,0,0,1.89-7.3h0Zm.38,4a1.55,1.55,0,0,1-1.89,1.11L359.46,215l.78-3,4.47,1.17a1.55,1.55,0,0,1,1.12,1.88Z" style="fill:#009b3a"/><path d="M380.73,215.53h0l-6.54-2.06-3.78,11.39,2.13.67,1.34-4.25,4.58,1.44a3.77,3.77,0,0,0,2.32-7.17Zm.12,4a1.54,1.54,0,0,1-1.93,1l-4.41-1.39.93-2.94,4.41,1.39a1.54,1.54,0,0,1,1,1.92Z" style="fill:#009b3a"/><path d="M380.08,227.91c.52-1.63,1.65-5.23-.8-6l-3.11-1c3.6,1.13,2.46,4.73,2,6.37" style="fill:#009b3a"/><path d="M394.07,220.19a6,6,0,1,0,2.77,8v0q.12-.25.22-.51a5.71,5.71,0,0,0-3-7.5h0Zm.44,6.55a3.22,3.22,0,1,1-6-2.22c.73-2,2.64-3.06,4.29-2.42A3.51,3.51,0,0,1,394.51,226.74Z" style="fill:#009b3a"/><path d="M399.08,235l4.78-11,9.9,4.31-4.78,11Zm8.16-5.24-.82,1.89,5,2.15.82-1.89Z" style="fill:none"/><path d="M408.78,226.13c-2.74-1.19-6,.31-7.34,3.35a5.71,5.71,0,0,0,2.56,7.66h0c2.73,1.19,6-.31,7.34-3.35a5.71,5.71,0,0,0-2.56-7.66Zm.52,6.82a3.22,3.22,0,1,1-5.81-2.53c.83-1.91,2.81-2.91,4.41-2.19a3.52,3.52,0,0,1,1.4,4.77Z" style="fill:#009b3a"/><rect x="408.1" y="231.4" width="1.71" height="4.54" transform="translate(31.6 515.53) rotate(-66.5)" style="fill:#009b3a"/><rect x="406.4" y="235.34" width="6" height="1.71" transform="translate(29.55 517.46) rotate(-66.5)" style="fill:#009b3a"/><path d="M424.67,233.55l-6.14-3.06L413,241.16l2,1,2-4,4.3,2.14a3.77,3.77,0,1,0,3.37-6.75Zm-.46,4a1.54,1.54,0,0,1-2.06.69h0L418,236.16l1.38-2.76,4.14,2.07a1.54,1.54,0,0,1,.69,2.06h0Z" style="fill:#009b3a"/><path d="M422.14,245.72c.76-1.53,2.45-4.91.15-6.06l-2.91-1.45c3.38,1.68,1.69,5.06.93,6.59" style="fill:#009b3a"/><path d="M426.6,248.07l9.4,5.32,1.1-1.94-7.61-4.31,1.52-2.69,6,3.38,1-1.79-6-3.38,1.18-2.09,7.16,4.05,1.1-1.94-9-5.06Z" style="fill:#009b3a"/><path d="M444.1,253.94c-.64,1,0,2.14,1.45,3.06s2.43.89,2.85.24c1.31-2.06-6.28-5.07-3.94-8.66,2-3.09,5.47-.68,6.77.14s3.39,3,1.77,5.44l-2.2-1.4c.69-1.08-.07-2.13-1.22-2.86s-2-1-2.7,0c-1.12,1.68,6.32,4.84,4,8.42-1.68,2.64-4.61,1.49-6.56.24-1.66-1.06-4.15-3.56-2.53-6.08Z" style="fill:#009b3a"/><path d="M457,262.45c-.7,1-.1,2.14,1.29,3.13s2.38,1,2.83.39c1.42-2-6-5.39-3.48-8.85,2.18-3,5.49-.4,6.75.5s3.23,3.15,1.48,5.53l-2.13-1.52c.75-1,0-2.13-1.07-2.92s-2-1.14-2.7-.13c-1.2,1.61,6.06,5.16,3.59,8.62-1.82,2.55-4.68,1.24-6.56-.1-1.6-1.14-4-3.77-2.21-6.21Z" style="fill:#009b3a"/><path d="M476.66,266.87c-2.33-1.86-5.9-1.26-8,1.33a5.7,5.7,0,0,0,.48,8h0c2.33,1.86,5.9,1.26,8-1.33A5.7,5.7,0,0,0,476.66,266.87Zm-1.29,6.65c-1.3,1.65-3.46,2.09-4.83,1s-1.43-3.28-.13-4.93,3.46-2.09,4.83-1S476.67,271.87,475.37,273.52Z" style="fill:#009b3a"/><polygon points="289.78 305.6 288.8 303.14 287.83 305.59 285.2 305.75 287.18 307.44 286.53 310 288.78 308.59 291.03 310 290.38 307.44 292.41 305.76 289.78 305.6" style="fill:#fff"/><polygon points="294.5 292.09 293.35 289.21 292.21 292.11 289.13 292.31 291.49 294.29 290.74 297.29 293.35 295.63 295.95 297.29 295.2 294.29 297.59 292.31 294.5 292.09" style="fill:#fff"/><polygon points="280.18 272.55 279.43 270.72 278.77 272.55 276.8 272.68 278.3 273.94 277.81 275.85 279.48 274.8 281.14 275.85 280.65 273.94 282.15 272.68 280.18 272.55" style="fill:#fff"/><polygon points="344.47 283.02 343.49 280.57 342.47 283.02 339.84 283.19 341.87 284.87 341.22 287.43 343.47 286.02 345.72 287.43 345.07 284.87 347.1 283.19 344.47 283.02" style="fill:#fff"/><polygon points="308.51 317.93 307.16 314.53 305.78 317.93 302.12 318.17 304.95 320.51 304.04 324.05 307.16 322.07 310.25 324.06 309.34 320.51 312.17 318.17 308.51 317.93" style="fill:#fff"/><polygon points="269.23 279.93 267.88 276.53 266.52 279.9 262.86 280.14 265.69 282.48 264.78 286.03 267.88 284.07 270.97 286.06 270.06 282.51 272.89 280.17 269.23 279.93" style="fill:#fff"/><polygon points="311.97 253.65 310.83 250.77 309.66 253.65 306.57 253.85 308.96 255.83 308.21 258.83 310.82 257.17 313.43 258.83 312.68 255.83 315.06 253.85 311.97 253.65" style="fill:#fff"/><polygon points="420.61 325.02 422.86 323.61 425.11 325.02 424.46 322.47 426.46 320.76 423.83 320.59 422.85 318.15 421.84 320.62 419.21 320.79 421.26 322.47 420.61 325.02" style="fill:#fff"/><polygon points="444.9 298.6 448 296.64 451.16 298.6 450.25 295.05 453.02 292.74 449.36 292.5 448 289.09 446.64 292.47 442.99 292.71 445.81 295.05 444.9 298.6" style="fill:#fff"/><polygon points="387.22 245.46 389.47 244.05 391.72 245.46 391.07 242.9 393.1 241.22 390.47 241.05 389.5 238.6 388.55 241.09 385.92 241.26 387.88 242.9 387.22 245.46" style="fill:#fff"/><polygon points="358.37 275.73 360.98 274.08 363.59 275.73 362.84 272.73 365.23 270.76 362.13 270.55 361 267.68 359.82 270.55 356.74 270.76 359.12 272.73 358.37 275.73" style="fill:#fff"/><polygon points="255.82 291.09 254.68 288.21 253.5 291.11 250.41 291.31 252.8 293.26 252.05 296.26 254.66 294.61 257.27 296.26 256.52 293.26 258.9 291.29 255.82 291.09" style="fill:#fff"/><polygon points="254.42 233.72 257.52 231.76 260.62 233.72 259.71 230.17 262.53 227.83 258.88 227.59 257.52 224.19 256.16 227.59 252.51 227.83 255.33 230.17 254.42 233.72" style="fill:#fff"/><polygon points="361.15 349.39 360.63 348.09 360.11 349.39 358.71 349.49 359.79 350.38 359.44 351.75 360.63 351 361.81 351.75 361.47 350.38 362.55 349.49 361.15 349.39" style="fill:#fff"/><polygon points="423.97 346.12 423 343.66 422.08 346.11 419.44 346.27 421.39 347.97 420.73 350.53 422.98 349.12 425.23 350.53 424.58 347.97 426.61 346.28 423.97 346.12" style="fill:#fff"/><polygon points="436.2 320.78 435.22 318.33 434.21 320.78 431.58 320.95 433.61 322.63 432.96 325.19 435.21 323.78 437.46 325.19 436.81 322.63 438.83 320.95 436.2 320.78" style="fill:#fff"/><polygon points="423.13 329.78 421.96 332.65 418.88 332.86 421.26 334.83 420.51 337.83 423.12 336.17 425.73 337.83 424.98 334.83 427.36 332.86 424.27 332.65 423.13 329.78" style="fill:#fff"/><polygon points="448.13 315.21 447 312.34 445.82 315.21 442.74 315.41 445.12 317.39 444.37 320.39 446.98 318.73 449.59 320.39 448.84 317.39 451.23 315.41 448.13 315.21" style="fill:#fff"/><polygon points="470.08 294.3 467.45 294.13 466.47 291.68 465.46 294.13 462.83 294.3 464.85 295.99 464.2 298.54 466.45 297.13 468.7 298.54 468.05 295.99 470.08 294.3" style="fill:#fff"/><polygon points="454.14 305.21 453 302.34 451.82 305.21 448.74 305.42 451.12 307.39 450.37 310.39 452.98 308.74 455.59 310.39 454.84 307.39 457.23 305.42 454.14 305.21" style="fill:#fff"/><polygon points="408.97 323.55 407.99 321.09 406.97 323.55 404.34 323.71 406.37 325.4 405.72 327.95 407.97 326.54 410.22 327.95 409.57 325.4 411.6 323.71 408.97 323.55" style="fill:#fff"/><polygon points="389.76 320.51 387.13 320.34 386.15 317.89 385.14 320.34 382.51 320.51 384.54 322.19 383.89 324.74 386.14 323.33 388.39 324.74 387.74 322.19 389.76 320.51" style="fill:#fff"/><polygon points="373.62 281.38 372.48 278.47 371.37 281.38 368.23 281.54 370.62 283.51 369.87 286.51 372.46 284.89 375.07 286.55 374.32 283.55 376.7 281.57 373.62 281.38" style="fill:#fff"/><polygon points="361.57 307 360.22 303.59 358.86 307.02 355.2 307.25 358.03 309.59 357.11 313.15 360.21 311.19 363.31 313.15 362.4 309.59 365.23 307.23 361.57 307" style="fill:#fff"/><polygon points="403.5 204.5 399.85 204.27 398.49 200.86 397.17 204.29 393.51 204.52 396.33 206.86 395.42 210.41 398.49 208.43 401.59 210.39 400.68 206.84 403.5 204.5" style="fill:#fff"/><polygon points="353.92 291.45 355.42 290.19 353.45 290.06 352.7 288.23 352.04 290.06 350.07 290.19 351.57 291.45 351.08 293.36 352.75 292.31 354.41 293.36 353.92 291.45" style="fill:#fff"/><polygon points="397.62 335.68 396.49 332.8 395.36 335.67 392.28 335.87 394.65 337.85 393.9 340.85 396.51 339.2 399.12 340.85 398.37 337.85 400.71 335.88 397.62 335.68" style="fill:#fff"/></svg>