<svg xmlns="http://www.w3.org/2000/svg" viewBox="0 0 800 800"><polygon points="183.21 525.92 177.4 521.83 171.57 517.76 165.76 513.67 159.93 509.58 155.87 506.86 155.04 506.32 150.25 503.11 144.62 499.34 139 495.57 133.4 491.8 126.74 487.34 120.11 482.88 113.47 478.43 106.84 473.97 100.21 469.51 93.57 465.03 86.94 460.57 80.31 456.09 73.67 451.61 67.04 447.15 60.38 442.67 53.75 438.16 53.75 434.54 53.75 430.91 53.75 427.29 53.75 423.66 53.75 421.33 53.75 419.03 53.75 416.7 53.75 414.4 53.75 412.07 53.75 409.75 53.75 407.45 53.75 405.12 53.75 402.79 53.75 400.46 53.75 398.16 53.75 395.84 53.75 393.51 53.75 391.18 53.75 388.86 53.75 386.53 53.75 384.74 53.86 383.71 54.25 382.98 54.87 382.41 59.16 380.04 60.68 378.81 62.2 377.96 62.63 377.49 63.78 375.43 64.28 375.02 65.45 374.48 66.01 374.14 68.23 371.96 70.53 370.36 74.29 368.67 75.42 367.87 78.47 364.9 82.03 362.45 84.07 360.49 85.68 359.64 86.2 359.22 88.25 357.09 89.4 356.57 90.96 356.65 92.45 356.92 93.18 356.94 93.94 356.84 94.63 356.6 98.44 356.82 101.49 353.54 105.23 351.9 107.83 351.63 111.57 351.9 117.42 354.37 120.25 351.63 124.93 351.09 129.84 349.72 134.52 349.18 139.46 349.18 143.68 349.18 147.65 348.35 151.88 347.81 153.05 351.36 155.87 352.46 159.13 351.36 162.67 346.73 165.7 341.81 168.04 337.15 171.32 333.6 174.85 331.13 178.6 327.84 181.4 325.64 184.93 323.73 189.84 321.55 194.53 317.7 198.29 312.76 201.55 310.85 205.54 309.74 210.71 309.45 216.33 308.08 222.65 304.8 222.41 302.32 222.19 299.85 223.81 298.18 225.7 295.15 223.88 292.21 223.84 291.45 223.7 290.74 223.38 290 222.97 289.64 221.77 289.05 221.18 288.46 220.26 286.99 219.78 286.48 219.18 286.31 218.7 286.57 217.71 287.53 217.11 287.77 216.56 287.75 216.15 287.38 216.03 286.7 216.26 285.94 216.97 284.71 217.04 283.83 216.84 280.84 216.97 280.11 217.39 279.59 219.22 278.22 221.73 278.05 222.19 267.84 224.46 266.64 225.9 266.96 227.14 266.86 236.94 265.07 244.22 262.84 250.07 262.01 248.68 258.14 246.36 251.94 248.28 250.84 254.5 250.32 260.52 248.63 265.13 248.85 267.27 248.95 269.68 249.05 272.3 249.17 275.1 249.32 277.99 249.44 280.93 249.59 283.86 249.74 286.73 249.86 289.49 249.98 292.06 250.1 294.38 250.23 296.42 250.32 298.12 250.4 299.38 250.47 300.18 250.5 300.46 250.52 303.01 250.64 304.32 250.32 304.98 248.9 304.8 248.07 304.27 247.58 303.56 247.39 302.92 247.39 301.68 247.88 301.13 247.88 300.99 247.24 301.13 246.97 301.68 246.53 301.88 246.33 302.09 245.89 302.13 245.57 302.13 245.23 302.2 244.76 302.73 241.14 303.19 239.69 303.51 238.99 304.06 238.28 304.59 237.98 305.99 237.78 307.23 237.27 308.36 236.41 310.28 234.23 309.78 233.33 300.39 226.08 298.28 225.29 297.18 224.34 292.63 216.72 294.06 215.69 294.31 215.42 294.49 215.08 294.63 214.71 294.72 214.3 294.81 213.41 294.84 212.48 294.61 211.65 294.06 211.11 293.07 210.4 292.2 209.59 291.51 208.61 291.05 207.34 290.45 206.21 288.75 204.55 288.45 203.22 288.45 199.31 288.8 198.28 289.26 197.27 289.9 195.04 290.4 194.29 290.82 193.21 290.66 191.88 289.14 188.26 288.8 187.77 288.2 187.35 287.03 186.94 286.53 186.57 286.32 185.93 286.48 185.32 286.8 184.91 287.19 184.56 287.54 184.15 287.79 183.56 287.81 183.12 287.44 181.94 287.15 179.96 287.26 178.07 288.82 171.6 288.91 170.8 288.82 170.28 288.73 169.72 286.34 162.3 285.49 160.49 284.21 158.97 287.79 154.66 287.42 154.44 286.2 154.07 282.17 149.93 282.42 149.24 284.19 146.53 285.01 144.71 285.45 144.37 285.56 144.08 284.94 143.46 281.43 141.23 280.28 140.16 278.51 139.06 278.06 138.52 277.89 137.95 277.85 137.39 277.71 136.92 277.28 136.58 275.78 136.46 274.66 135.72 273.6 134.74 272.36 133.84 271.33 133.45 270.73 132.66 270.41 131.58 270.37 129.99 271.12 129.7 271.26 129.75 271.38 129.77 271.49 129.82 271.58 130.02 272.57 129.5 273.74 129.77 274.96 130.29 276.08 130.56 278.24 130.26 279.02 130.51 279.3 130.56 279.52 130.48 280.1 130.02 283.24 129.11 284.12 128.47 284.39 128.4 285.4 128.45 285.84 128.35 286.37 127.98 287.47 126.69 289.6 125.95 289.99 125.71 290.27 125 294.26 121.62 294.9 121.39 298.1 121.05 298.97 120.78 299.15 120.69 299.33 120.54 300.21 119.44 300.85 119.24 301.47 118.8 302.02 118.26 302.39 117.77 302.69 116.94 303.08 115.03 303.42 114.29 303.81 113.66 304.98 110.62 305.21 110.18 305.62 110.01 306.4 109.96 306.59 109.76 307.44 108.54 307.81 108.29 308.58 107.7 309.62 106.75 310.01 106.11 310.26 105.87 311.48 105.57 312.12 105.18 312.65 104.69 313.18 104.37 313.96 104.13 314.37 104.18 314.55 104.52 314.74 104.67 315.13 104.52 316.41 103.76 317.24 102.36 318.02 102.14 318.3 102.31 318.55 102.58 318.85 102.85 319.28 102.98 319.63 103.03 320.27 103.25 320.66 103.3 321.05 103.42 321.23 103.71 321.37 104.05 321.67 104.37 322.01 104.45 323.28 104.37 323.9 104.23 324.58 103.91 325.13 103.42 325.55 102.27 325.96 102.22 326.42 102.34 326.76 102.39 327.11 102.19 327.34 101.92 328.9 98.67 328.94 98.22 328.85 98.1 328.79 97.86 328.79 97.59 328.83 97.42 329.01 97.37 329.2 97.47 329.38 97.61 329.5 97.66 329.84 97.64 330.55 97.71 330.87 97.66 332.3 97 333.21 96.71 333.63 96.98 333.79 97.44 334.16 97.66 334.52 97.78 334.78 97.93 334.89 98.35 334.68 98.91 334.78 99.33 335.33 99.94 336.2 100.38 338.59 100.87 340.03 101.48 340.74 101.63 341.09 101.53 342.12 101.31 343.61 100.55 344.99 99.52 346.05 98.5 347.24 96.12 347.58 95.09 348.73 92.52 349.01 91.56 349.05 91.1 349.17 90.85 349.44 90.66 349.79 90.48 350.06 90.27 351.67 88.58 352.27 88.16 354.4 87.42 354.77 87.18 354.93 86.91 355.66 86.44 355.94 86.17 356.05 85.83 356.21 84.85 356.38 84.51 356.97 84.19 357.8 84.02 359.27 83.95 360.02 83.8 360.6 83.43 361.1 82.97 363.56 81.3 364.85 80.93 365.42 80.44 365.93 79.88 366.5 79.49 367.14 79.32 369.74 79.12 370.15 79.07 370.68 78.83 371.8 78.07 373.89 77.5 374.42 77.09 374.79 76.72 375.54 76.18 375.93 75.81 376.07 75.5 376.16 75.15 376.3 74.79 376.6 74.42 377.17 74.17 378.66 73.83 379.93 73 382.36 73 383.09 72.75 384.43 72.02 385.23 71.87 386.65 71.92 387.34 71.85 388.1 71.6 390.05 70.62 390.76 70.5 391.38 70.62 392.83 71.16 393.61 71.33 394.41 71.28 395.79 70.89 401.94 70.52 402.47 70.5 402.81 70.43 403.59 70.03 403.96 69.94 404.26 69.98 404.97 70.21 405.36 70.21 407.2 69.72 409.08 69.59 410.64 69.91 411.05 69.94 413.97 69.59 422.35 67.12 423.01 66.85 423.75 66.8 424.48 66.97 425.1 67.36 425.33 67.73 425.38 68.12 425.51 68.39 425.93 68.52 426.27 68.56 426.96 68.76 427.28 68.81 432.1 68.52 433.2 68.15 436.37 65.7 438.55 64.55 439.42 63.81 440.25 62.61 440.46 62.05 441.33 61.19 443.26 59.8 444.73 59.5 445 59.55 445.97 59.67 447.11 60.36 447.99 61.34 448.9 62.12 450.19 62.56 451.31 62.52 451.52 62.52 452.55 61.9 452.92 61.34 453.08 60.73 453.13 59.65 453.47 59.63 455.65 60.63 456.92 60.95 460.95 61.19 461.62 61.09 462.91 60.7 463.59 60.63 463.96 60.51 464.21 60.26 464.42 59.97 464.63 59.8 464.97 59.75 465.68 59.82 466.03 59.8 467.29 59.18 469.29 57.15 470.37 56.42 473.26 55.51 474.8 55.34 476.1 55.56 477.3 56.32 477.83 56.42 478.19 56.37 478.9 56.17 480.08 56.15 480.35 56.17 481.89 56.37 482.56 56.71 483.95 55.98 484.39 55.88 484.78 55.95 485.63 56.32 486.09 56.42 486.5 56.29 487.4 55.73 487.81 55.56 488.38 55.61 489.3 56.02 489.79 56.12 493.8 55.56 494.21 55.63 494.72 55.8 495.2 56.02 495.52 56.27 495.94 56.49 497.02 56.51 497.5 56.71 498.53 56.24 498.88 56.24 499.93 56.2 502.43 56.42 504.82 56.12 505.42 56.24 510.88 58.52 511.5 59.11 511.68 59.38 512.1 59.45 512.56 59.45 512.88 59.5 513.11 59.7 513.4 60.21 513.54 60.36 514.09 60.63 514.76 60.83 515.45 60.95 516.09 60.92 515.4 62.93 515.59 63.57 516.53 64.3 520.48 66.29 521.58 66.56 522.77 66.61 525.04 66.29 526.92 65.75 527.11 65.7 528.16 65.7 528.3 65.6 528.74 65.09 528.97 64.87 530.3 64.35 530.97 63.86 531.45 62.37 531.88 61.76 532.48 61.24 533.08 60.92 534.57 60.51 535.19 60.16 536.38 59.11 537.16 58.84 538.01 58.79 540.33 59.26 541.71 59.21 547.35 57.96 552.7 55.95 554.01 55.17 554.72 54.16 554.77 53.31 554.63 52.62 554.63 51.98 555.04 51.2 555.3 50.93 556.65 49.93 557.13 49.39 557.45 49.09 558.56 48.51 560.05 48.11 561.61 48.06 562.96 48.53 564.16 49.46 564.34 49.51 564.36 49.93 564.43 50.24 564.62 50.41 564.91 50.49 565.3 50.78 565.65 52.35 566.2 53.04 566.68 52.84 567.28 53.06 567.94 53.43 568.61 53.6 573.66 53.89 574.1 54.02 574.69 54.38 575.27 54.85 575.61 55.29 575.59 55.95 576.6 56.34 577.91 56.47 578.82 56.42 581.78 55.51 582.73 54.97 583.25 55.22 584.1 55.41 584.91 55.44 585.25 55.14 585.55 54.73 586.97 53.55 587.43 53.31 587.64 53.11 587.91 52.67 588.17 52.15 588.26 51.76 588.21 51.3 588.03 50.98 586.72 49.58 585.73 48.77 585.73 48.53 586.1 48.46 586.74 48.26 587.09 48.24 587.43 48.33 588.05 48.7 588.37 48.77 588.44 48.8 588.56 48.85 588.72 49.02 588.86 49.09 589.06 48.92 589.29 48.63 589.45 48.53 589.61 48.53 589.93 48.63 590.55 48.99 590.9 49.09 591.17 48.99 592.05 48.53 592.48 48.53 592.57 48.55 592.6 48.73 592.85 49.09 592.99 49.56 593.19 49.8 593.65 49.93 594.34 49.93 594.62 50.02 594.91 50.2 595.47 49.88 596.06 49.68 597.28 50.56 598.27 51.62 599.37 52.45 600.88 52.74 601.21 52.64 601.5 52.5 601.82 52.4 602.26 52.47 602.63 52.67 602.97 52.89 603.27 53.16 603.52 53.45 605.15 53.31 605.47 53.16 606.09 52.5 606.41 52.2 606.16 53.04 605.75 53.94 605.59 54.75 606.16 55.29 605.57 56.47 605.59 56.47 606.78 57.35 608.69 57.94 610.09 58.13 614.84 56.98 615.62 56.56 616.28 55.98 620.99 53.65 621.59 54.04 622.18 54.65 622.83 54.97 624.34 54.9 625.1 54.97 625.7 55.29 626.2 55.09 626.64 55.29 627.05 55.63 627.53 55.88 628.7 55.98 629.85 55.88 633.34 54.43 633.36 54.43 633.48 55.51 633.46 56 633.57 56.44 634.72 58.16 634.7 58.67 634.08 59.09 631.76 60.02 630.61 60.24 629.35 60.16 628.06 60.31 627.03 60.83 626.8 61.46 627.97 62.07 628.66 62.91 628.36 64.35 627.6 65.8 626.84 66.63 622.78 69.05 620.62 69.86 619.66 70.45 618.86 71.41 618.79 72.8 618.79 72.83 620.16 73.39 623.08 73.76 623.72 74.08 624.37 74.25 624.87 74.56 625.17 75.33 625.24 76.11 625.17 77.8 625.08 78.36 625.05 78.58 623.47 82.97 623.31 84.66 623.47 85.46 623.72 86.22 623.79 86.96 623.49 87.74 623.13 88.4 622.41 91.42 622.3 93.67 622.16 94.16 621.45 96.71 621.27 99.96 621.4 101.68 621.79 103.1 623.45 105.77 624.02 107.12 624.14 108.36 624.46 111.77 624.46 112.97 623.26 115.83 622.9 117.26 622.83 118.75 623.03 120.42 623.81 121.86 625.08 122.47 626.48 122.91 627.63 123.8 627.3 124.6 625.26 127.69 623.68 129.43 623.24 130.85 622.64 133.84 621.84 136.02 621.52 137.59 621.57 139.08 622.21 143.17 622.09 143.71 621.84 144.08 621.79 144.15 620.72 145.28 620.33 145.89 620.23 146.5 621.11 147.87 620.83 148.31 619.64 149.07 619.43 149.39 619.18 150.1 619.04 150.37 618.76 150.66 617.98 151.13 616.61 152.35 616.31 152.6 613.14 154.07 611.74 155.07 608.83 156.32 607.52 157.28 606.85 158.7 605.59 163.47 605.29 164.13 604.88 164.63 604.23 164.97 602.1 165.31 600.81 165.97 599.9 166.9 599.07 168 597.72 169.4 596.98 170.16 596.52 171.24 596.43 174.2 595.72 178.24 595.9 179.81 596.34 182.01 596.59 182.7 597.55 184.59 597.9 186.67 598.17 187.7 600.31 191.42 602.88 195.9 603.38 197.47 603.38 197.64 603.43 202.93 603.94 204.82 604.81 205.77 606.05 206.14 607.65 206.29 608.87 206.7 612.59 209.4 613.23 209.74 613.92 209.94 614.63 209.99 615.32 209.84 616.08 210.3 619.25 215.28 622.64 220.59 623.1 221.86 623.56 227.47 623.88 231.59 624.27 232.91 624.32 232.96 625.24 233.96 629.35 236.61 634.7 240.5 641.72 245.6 647.37 249.71 647.82 250.28 648.22 251.03 648.81 253.88 648.9 254.29 649.87 258.65 650.81 263.01 651.77 267.37 652.71 271.73 653.65 276.07 654.62 280.43 655.56 284.76 656.52 289.12 657.47 293.46 658.43 297.79 659.37 302.13 660.33 306.44 661.28 310.77 662.22 315.11 663.18 319.42 664.12 323.73 656.32 328.11 657.1 329.41 659.1 331.81 660.84 333.94 665.13 340.46 669.08 348.03 671.74 357.41 674.4 366.76 675.14 372.69 675.25 380.09 674.43 386.58 672.75 400.22 673.19 402.45 678.08 415.72 678.03 417.24 677.92 417.59 675.64 425.3 675.09 426.06 674.15 426.57 673.33 427.21 673.42 428 673.92 428.88 674.25 429.69 673.99 430.42 672.55 432.04 672.06 432.87 671.61 435.15 671.05 436.67 670.89 437.28 670.89 437.92 673.74 448.2 674.38 452.22 674.7 452.98 675.07 453.32 676.56 454.18 677.09 454.64 677.23 455.21 676.4 459.3 676.29 460.62 676.68 461.7 676.75 462.5 675.35 467.45 674.73 468.21 662.88 474.04 662.84 474.8 662.72 475.46 662.42 476 661.28 477.13 660.66 478.65 660.2 479.26 659.37 481.07 660.15 483.2 664.86 489.99 669.98 497.36 674.08 503.29 679.2 510.66 680.49 513.08 680.95 515.51 681.09 520.53 681.25 525.92 681.31 531.18 681.73 532.21 686.71 535.22 687.35 536.25 687.92 539.8 688.36 541.13 688.96 541.81 693.37 545.49 694.01 545.76 695.32 545.61 699.24 544.12 702.94 542.7 703.67 542.6 704.41 542.74 710.79 544.95 718.8 547.69 729.43 551.32 730.83 551.81 731.93 552.42 732.78 553.59 735.12 558.49 737.53 563.59 737.58 563.68 741.34 571.62 743.68 576.57 746.25 581.96 743.98 583.48 741.68 584.99 739.41 586.51 737.14 588.03 734.84 589.55 732.57 591.07 730.28 592.56 728 594.08 725.71 595.6 723.43 597.12 721.16 598.64 718.87 600.15 716.6 601.65 714.3 603.17 712.03 604.69 709.73 606.2 707.46 607.7 705.19 609.22 702.89 610.74 700.62 612.23 698.32 613.75 696.05 615.27 693.78 616.76 691.48 618.28 689.21 619.8 686.91 621.29 684.64 622.81 682.37 624.3 680.08 625.82 677.8 627.34 675.51 628.84 673.24 630.35 670.96 631.85 668.67 633.37 666.39 634.86 664.1 636.38 661.83 637.87 659.55 639.39 657.26 640.89 654.99 642.4 652.69 643.9 650.42 645.42 648.15 646.91 645.85 648.43 643.58 649.92 641.28 651.42 639.01 652.94 636.72 654.43 634.44 655.95 632.15 657.44 629.87 658.94 627.6 660.46 625.31 661.95 623.03 663.44 620.74 664.96 618.47 666.46 616.19 667.95 613.9 669.44 611.63 670.96 609.35 672.46 607.06 673.95 604.78 675.45 602.49 676.96 600.22 678.46 595.81 681.35 592.5 684.36 590.1 686.54 587.71 688.72 585.32 690.88 582.91 693.05 580.32 695.41 579.05 696.61 577.13 698.44 575.01 700.48 572.9 702.49 570.79 704.52 568.66 706.53 566.54 708.56 564.43 710.57 562.32 712.6 560.21 714.61 558.1 716.64 555.99 718.65 553.87 720.66 551.76 722.69 549.65 724.7 547.51 726.71 545.4 728.74 543.29 730.75 540.65 733.27 539.21 734.33 537.69 734.94 533.38 735.84 530.02 736.55 522.68 738.12 515.33 739.66 512 740.38 505.67 741.72 499.36 743.07 493.02 744.42 486.71 745.74 480.97 746.94 475.23 748.12 472 748.78 469.49 749.29 463.75 750.47 460.24 751.18 457.54 751.89 456.66 751.94 456.18 751.86 455.84 751.72 455.06 751.18 453.08 749.12 451.52 748.43 450.81 747.99 450.14 747.45 449.55 746.84 449 746.01 448.95 745.32 449.25 744.66 449.75 743.85 450.01 743.12 450.17 742.8 450.63 742.48 451.34 741.7 451.5 741.06 451.66 739.62 451.96 738.93 452.6 738.37 453.31 737.98 453.91 737.46 454.25 736.6 454.16 735.79 453.79 735.21 453.38 734.64 453.08 733.96 453.08 733.62 453.26 732.88 453.29 732.64 453.15 732.32 452.97 732.17 452.78 732.05 452.62 731.83 452.19 730.48 452.14 729.03 452.76 721.54 452.62 721.03 452.16 720.56 451.63 720.29 450.42 719.9 449.87 719.63 447.94 718.01 443.69 716.05 434.49 714.02 432.65 713.95 429.6 713.31 429.23 713.29 428.57 713.12 427.37 712.43 426.71 712.16 425.9 711.96 425.4 711.77 425.01 711.38 423.63 708.75 422.57 707.16 421.34 705.77 419.29 704.03 418.7 703.68 418.08 703.51 417.37 703.64 416.61 704.17 415.23 705.52 414.36 705.94 413.85 705.87 411.74 705.08 411.4 704.86 411.14 704.62 410.87 704.45 410.46 704.37 410 704.52 409.42 705.08 409.06 705.28 408.32 705.25 408.07 704.79 407.95 704.08 407.63 703.32 407.1 702.9 406.55 702.85 405.96 702.95 405.22 702.9 404.53 702.53 400.54 699.06 400.19 698.52 400.24 695.73 400.03 694.4 399.35 693.33 397.21 691.61 395.88 690.88 394.64 690.68 394.04 690.26 393.45 690.07 392.09 689.82 390.65 689.36 390.07 688.94 389.54 688.23 388.86 686.93 388.37 686.54 387.59 686.32 386.88 686.32 385.55 686.64 384.84 686.64 384.08 686.54 383.62 686.34 383.37 685.86 383.28 684.92 383.3 684.21 384.06 680.83 384.47 676.74 384.4 675.93 383.78 673.53 383.35 672.77 379.42 669.91 376.51 667.78 373.61 665.67 370.7 663.54 367.78 661.43 364.89 659.3 361.98 657.17 359.08 655.07 356.17 652.94 353.28 650.8 350.36 648.7 347.45 646.57 345.01 644.78 344.55 644.44 341.64 642.31 338.75 640.2 335.83 638.07 332.92 635.94 330.02 633.81 327.11 631.68 324.22 629.55 321.3 627.41 318.39 625.28 315.49 623.15 312.58 621.05 309.69 618.89 306.77 616.76 303.88 614.63 300.96 612.5 298.07 610.37 295.16 608.24 292.24 606.11 289.35 603.98 286.43 601.82 283.54 599.69 280.63 597.56 277.71 595.43 274.82 593.27 271.9 591.14 269.01 589.01 266.1 586.86 263.2 584.72 260.29 582.59 257.37 580.44 254.48 578.31 251.57 576.15 248.68 574.02 245.76 571.87 242.84 569.74 239.95 567.58 237.27 565.6 234.6 563.64 231.94 561.65 229.26 559.69 226.59 557.71 223.91 555.73 221.25 553.76 218.56 551.78 215.9 549.8 213.23 547.81 210.55 545.83 207.88 543.87 205.2 541.89 202.54 539.9 199.85 537.92 197.19 535.93 193.47 533.17 190.9 531.35 188.35 529.54 185.78 527.73 183.23 525.92 183.21 525.92" style="fill:#efc441"/></svg>