<?xml version="1.0" encoding="UTF-8"?><svg id="AmericanSamoa" xmlns="http://www.w3.org/2000/svg" viewBox="0 0 614.16 505.98"><path id="American_Samoa" d="M123.57,244.27l-.65,2.82c-.52,.6-1.96,2.17-2.75,2.44l-1.64,.06-1.45-1.61c-.57,.27-1.54,.47-2.17,.36-.73-1.41-2.07-2.86-3.3-3.85l.3-.67-.62-1.42-1.12,.25c-.46-.2-1.79-.67-2.31-.5l-1.76,.29-1.59,2.74-2.69,.5-1.64-.94c-2.63,.76-4.88,1.45-7.56,1.81l-.81-1.01c-.37,.56-1.7,1.21-2.29,1.43,0,0-3.47,1.43-4.05,1.35-1.29-1.57-4.36-1.25-5.53,.4-.85,.31-3.13-.15-3.96-.36-.89,.83-1.85,1.19-3.07,1.43-1.94-.93-3.2-2.75-3.78-4.79-.77-.75-2.44-1.48-3.54-1.4l-1.02-3.43c-.37-.39-1.26-.65-1.79-.57l-.55-.79,.65-2.12c-.54-1.74-3.86-5.23-5.74-6-.48-1.29-1.61-2.72-2.66-3.59l-.14-1.49c-1.64-1.89-3.9-2.44-5.71-4.7l.05-1.9-.44-.67-2.95-.29c-.76-1.16-1.73-1.38-2.56-2.22-.69-.7-1.17-1.68-1.85-2.4-1.61-1.72-4.77-3.21-7.04-3.98-1.66-1.96-2.23-4.11-4.11-5.97v-1.26c.16-.16,1.22-1.25,1.26-1.33,.31-.65,.5-1.95,1.18-2.33,1.08-.17,4.78-.63,4.78-.63l.25,.97c1.05,.59,6.41,3.42,7.59,3.41l1.67-.38c1.12-.26,2.63-.29,3.78-.13l.57-.81c1.88-.62,3.48,1.01,4.95,1.97l1.16-.59-.55-1.49c.81,.14,2.37-.87,2.92-1.35l5.23-.14c.44-.36,.75-.68,.91-1.26,1.93-.52,3.64-.72,4.76-2.38l.79-.18c1.52,.9,6.1,.29,7.58-.31,.09-.04,1.7-1.33,1.88-1.47,1.18-.33,1.63,.19,2.61,.32,1.31,.17,4.81,.52,4.81,.52,.13,0,1.37-.31,1.57-.36,.76-1.24,1.57-1.82,2.71-2.77,1.32-.14,2.68-.35,4-.42,.88-.04,1.6,.23,2.54-.02,.86-2.05,3.8-.56,5,.15l2.65-.28c.86,1.09,1.85,2.18,2.63,3.33,.8,1.19,1.55,2.77,2.47,3.85,1.67,1.95,3.81,3.59,5.52,5.51,.84,.94,1.18,2.28,2.22,3.1-.37,2.55,1.75,2.91,2.21,4.74l2.12,.8c.3,.1,.64,.52,.7,.82-.36,.08-.96,.42-1.12,.77,.25,1.23,1.42,2.03,1.92,3.1,.42,.89,.29,2.28,1.17,3.76l.67,.45c.58,3.44,2.64,4.15,3.14,5.75l-.42,.78c-1.38,.37-4.58,4.74-4.59,5.51l.85,1.98-.43,1.97-3.3,1.58c.45,.65,.08,1.83-.39,2.38,.15,.74,1.49,1.63,1.88,3.17Zm401.55,63.74c1.43,1.08,4.77,1.52,6.48,1.51l.08,.48c-1.35-.36-5.04,2.18-6.02,2.95l-.64-.52c-.13-1.3-.58-2.83-1.21-3.98l1.31-.45Zm7.12,1.69c.84-.07,1.93-1.07,2.28-1.79l.64,.44v2.05s.79,1.08,.79,1.08l-.29,1.56-.45,.19-.68-1.34c-.66-.18-2.37-1.41-2.29-2.19Zm26.78,6.91c1.44,1.04,3.16,.73,4.68,.17l.94,.18,1.28,1.22-1.15,2.72c.32,.81,.41,1.93,.35,2.79-.18,.33-.73,.97-1.16,1.01-.79-.7-1.87-1.07-2.89-1.29-2.8-.6-4.22,.51-5.42,2.96l-.6,.3c-.87-.26-1.19-.57-1.88-1.11,0,0-1.03-2.88-1.13-3.53-1.25-.5-2.51-1.52-2.7-2.93l1.72-.79,.41-.97,.67-.26,1.65,1.15,2.58-.86,1.31,.4,1.34-1.16Zm-174.24,10.96h.83s.67,.56,.67,.56l.15,.45-.64,.71-.37,.07-.41-.45-.94-.07-.04-.45,.75-.82Zm-41.97,4.05l.86,.3,.75-.56,.26-1.26,2.1-.89,2.54,.08,1.05,.63,2.06-.82,1.46,1.38c1.75-.36,2.72-1.99,3.71-2.12l.7-.13,.16-.84c1.08-.44,1.73-1.65,2.55-2.41,1.44-1.33,3.72-1.64,4.98-3.01,.08-.09,.9-1.59,1.01-1.78h.49c0,1.12-.77,1.84-.75,2.86l1.31-.52,2.62,.3,.97-.3,2.96,.37,1.53,.41s2.15,.67,2.49,.76c.33,.08,2.04,.14,2.04,.14l-.22-.6,1.09-1.11h1.95s.56,.08,.56,.08l-.34,.82c.48,1.08,.46,2.35-.49,3.16l-1.57,1.04-2.51,1.15h-1.76s-.19-1.41-.19-1.41l-2.47-.78-1.57,2.16-1.42,.59-.82-.19c-.36,.34-1.51,1.14-2.06,1l-1.27-1.15,.45-1.04-.67-1.6-1.49,.23c-.55,.48-1.76,.75-1.76,.75,.85,.02,1.08,1.03,1.52,1.69l.19,.74c-.71,2.04-2.58,3.42-4.13,4.75l-.82-.08c-1.76,.42-2.24,3.58-2.74,4.42-.56,.94-1.5,1.92-2.17,2.79l-.83,.18-.49-.56-.67-.11s-.48,1.25-1.35,2.49l-1.61-1.75c-.64-.2-2.39-.94-2.73-1.6l-.78-3.61-1.57-.08-.75-.86-.52,.11-.49,.82-.49,.11c-.77-.22-2.98-.9-3.59-1.42-.56-1.23,1.89-3.28,2.74-3.75Zm-206.52-80.57l.56,.15,.49,.78-.07,.93-.22,.22-.9-.37c-.19-.27-.31-.68-.34-1,.1-.18,.31-.59,.48-.71Zm4.09,4.67l.48-.37,2.17-.16,.98,1.19,.07,.52-.63,1.53-1.76-1-1.32-1.71Zm64.01,30.14c-.76,.72-3.15,1.53-3.52,1.73-.57,.3-1.39,.45-2.02,.66l-2.39,.03-.6-.52-1.65,.66-.63-.86c.35-1.25-1.31-3.93-2.03-4.81l-1.79-.72c-1.4,.45-6.13,.4-7.14-.63l-.7-1.27,.6-.74c.31,.86,1.31,.38,1.31,.38l.38-.63-.75-.82c-.58,.32-2.15,.96-2.84,.77l-.86-.52c-.49,.33-2.25,1.28-2.89,.99-.72,.57-3.03,2.09-4.05,1.87l-.45-.26-1.24,.74-1.38-.19-2.45-2.91-.34,.04c-4.27-1.61-2.82-6.89-5.97-8.25l-.5,1.63-1.73,1.33-.59-.67-.4-2.23c-.93-.19-1.38-.94-1.97-1.61l-.07-1.38c-.94-.44-2.01-.84-2.91-1.36-.15-.09-.4-.54-.56-.63-1.07-.66-2.27-.84-3.02-1.99,.03-1.02-.8-2.62-1.44-3.36l-.03-.93c1.4-.78,1.88-1.91,2.86-3.03,.11-.13,2.69-2.23,2.78-2.29,2.31-1.51,5.11-1.07,7.74-1.44,1.59-.23,2.04-1.07,3.26-1.69,.95-.48,6.59-2.74,7.71-2.75,.08,0,1.65,.49,1.79,.53,.43-.03,1-.62,1.2-.96,.66,.02,4.43-.06,4.71,.4l.6-.48s2.23-.43,3.03-.32c.81,.49,1.69,.96,2.46,1.5,.17,.12,1.71,.82,1.9,1.31l-.27,.82c.22,.48,3.33,2.27,3.87,2.1l-.29-2.12,.15-.37,.56,.04,1.33,2.35c.45,.29,1.21,.76,1.75,.57l.83-.74,1.94,.79,.78,1.64c2.61-.62,2.79,1.99,4.4,2.4,.13,.4,.6,1.19,1.04,1.34l.71-.63c.56-.21,1.76,.32,2.2,.61,1.6-1.04,3.16,.44,4.59,1.06,.71,.31,1.56,.49,2.31,.72l1.23-.29,1.16,.49,1.19,1.2,2.14-2.11,.93,.45c.45-.3,1.4-.26,1.87-.07l.52,.45c.27,.47,.11,1.47-.08,1.93l.45,.37h.9s1.05-.77,1.05-.77c.71,.94,1.66,2.4,1.93,3.58,1.05-.29,1.2-.38,2.39-.06l.56,.56,.18,.74c-.99,2.14-4.15,2.78-4.99,4.37,5.38,.77,4.16-1.53,7.64-2.8l.45,.48-.27,.71,.17,.55,1.06-.03,1.19,.41,.26,.41-.34,.41-1.01,.63,.26,.45,2.36-.47,2.24,1.12,.34-.26c1.53,1.36,1.86,4.12,4.54,4.11l.38-.93c.53-.05,1.4,.39,1.79,.71,.62,1.2,1.15,2.33,2.23,3.21l.47,3.46c-.05,.75-1.85,4-2.3,4.68-.76,.05-3.39,.05-3.96-.57-.98,.67-2.65-.62-3.89-.31l-.78-.49c-.14,.07-1.53,.81-1.57,.81-5.37,.12-10.61,.18-15.97-.07-.89-.04-1.45-.61-2.13-1.13-1.03,.03-1.7,.5-2.28,.59-.9,.13-3.57,.59-3.67,.65l-1.38-.34c-2.48,.81-4.58-.5-6.61-1.7Zm43.18,4.68c.37-.19,1.59-.71,2.02-.59l-.19,.56,.56,.97-.94,.59-1.31-.86-.14-.67Z" style="fill:#efc441;"/></svg>