<svg xmlns="http://www.w3.org/2000/svg" viewBox="0 0 800 800"><path d="M159,42l-.41,1.54-1.79.7-9.88,2.46-1.52.92-.86,1-.58,1.14-.31,1.21-.11,1.25-.48.66-2.24,1.4-.75.66L139.58,56l-.1.88-.38.59-1.21.44-2,.18-.45.37-.14,1.07-.82,2-1.86,1.29-4.24,1.54-.41.08-.38-.08-.31.11-.24.52,0,.48.07.55.2.51.31.3,3.1,1.17.59.44.34,1.8-.17,4.15-.14,4.6-.24,6.43-.24,6.68-.14,3.49-.17,5-3.69,0-4.57,0-4.31.67-2.44,1.43v0l-2.45-4.41-.72-3.41,1.14-3.38.61-.63.56-.14.58,0,.69-.3.48-.58.21-.66V87.41l-.17-.7-.76-1.91-.9-1.91-1.24-3.6,0-1.44-2-3.74-.38-2.58L108.45,68l-2.34-4,0-.59.58.18,1,.19.65.22.31.33.35,1.25,1,.22.83-.55.52-.89.06-.73.49-.26,0-1.06-.24-.48-.45-.19-.55,0-.38.59-.1.77,0,1.17-.28.26-.38-.15-.24-1.1-.31-.55-.41-.15-.24.48-.52,0-.59-.33-.72.11-1-.19.41-.58,5.68-5.15,1.31-2.28,1.55-5.51.21-.25h.62l.44.29.49.62.62,1.25.44-.4.73-.29.75-.19,1.73-.22.72-.29.52-.66,2.1-4.45.24-1.1L124,41.11l.48-.73,1.38.18.72-.07L130,39.28l5.58-1.1.79-.3.55-.62L138,35.09l.68-.85.83-.73.9-.55.68-.85.42-1.28.58-1.25,1.17-.74.69.26.38.22.93.52L146,30l.79-.18.59-.3.62-.07.75.48.76,1.1.9,2.57,1,1.21,2,1.69,3.3,4.19Zm548,336.82.34,2.69.31.91,1,1.62.2.77-.34,1.07-.17,1,0,3-.21,2.1.28.73,1,.19-.2,7.75.31,1.36,2.2,5.25,0,.66-.48.74-1.58,1.32-.52.81-.14.59v.7l.11,1.28v.88l-.21.66-1.38,2.28-.89,2.17-.28,1.07v1.39l.38,1,.52,1.07.45,1.28.2,4.08.24,1.32-.1.55-1.07,2.68-.31,7-.34,7.64.27,2.46,1.11,1.65,1.27,1.43.52,1.36.2,3.35.48,2.46L710,462l-.42.92-1.68,2.64-2.28,3.56L705,470.7l-.89,3.79-1,4-1,2.42-.34,2.17.44,1.77,1,1.5,2.72,3,1.13,1.58.86,1.73.59,2H607v24.66l0,8.26v49.45l0,8.27v60l0,5.62v8.12l0,.14v7.72l.14,1.17,1.3,1.8,1.76,3-1.27,0-.42,0,.55.77.18.7.1.7.21.81.24.33.58.55.17.25.11.52,0,1.21.07.33,1.69.41.82.44-.1.66-.48.73-.41,1-.28,1,0,.92.24.69.86,1.51.27.81,0,.73-.14.63.21.36,1,.15.55.33.21.81.14,1,.34.73,4.34,3.75.65.25.42-.07.75-.29.49-.11.17-.19.17-.11.24.15.38.44.21.11,1.34.26.48.51.35.74.79,1.14.34.66.28.33.27.15.8.14.48.3.38.51,3.65,6.1.51,1.54.45.7.72.48,1.59.51.65.74.1.44V712l.21.48.31.22h.62l3,1.29.72.55,2.24,2.61,1,1.43.69,1.47.58,2.57.45.81.66.62,1.58.89,2,1.91,1.34.91,3,1.4,2.41.7.72.44,2.1,2.39.31.62.38,1.51,1,1.65,1.23,1.47,1.21,1.07,2.2.88.55.62.14.88-.1.85,0,.81.59.7.89.25.86-.11.87-.25.86-.11,1.61.14.73.22.76.37,1,.81.93,1.21,1.17,1-.38.77,0,.74.31.69-4.2.89L663,752.57l-10.26,2.13-10.26,2.13L632.19,759l-12.64,2.53-12.64,2.57-12.6,2.54-12.63,2.57-3.62.73-.93.3-.31-.11L576,769l-1.49-.77-2.85-1.1-2.31-1.33-.79-.22-2.07.15-.72-.15-.9.19-.86.4-.86.22-.82-.37-4.62,1.33-.72.18-3.93,1.14-.72,1.47-1.65.33-1.48.59-1.31.11-1.07-1-1.51-.81-.86-.26-.38.52-.38.22-.83-.15-.82-.4-.38-.44-.79-.48-1.83-.19-2,.11-1.28.37-.65-.37-1.45-1.13-1.72-.89-.51-.44-1-1.14-1.13-1.06L528.1,763l-1.27.37-2-1.77-.58-.22-1.69.33-.69,0-.55-.37-1.75,1.55-1.17-.52-1.35-.07-1.2.33-.76.7-.34-.44-.73.33-.65.11H512l-2.92.29-.52-.07-1.76-.66-1.89-1.14H497l-.34.26-.59,1-.24.3-.79-.08-1.17-.4-1-.51-.44-.37-.49-1-1-.26-1.14.11-2.85.7-8.65.11-8-2.53-.8-.52-2.23.15-1.52-.33h-.55l-1.1.22-1.72.73-4.24.22-6.57-1.28L447.05,756l-2-.48-.69-.63-1-1.43-2.89-3.19-.48-.34-.93-.51-.49-.48-.27-.51-.24-1-.17-.41-2.62-2.28-.69-.4-.14-.59-1.72-3.56-1.2-.37-.18-.11-.06-.59-.83-2.05-.35-.3-.31-.22-.17-.51-.1-.33-.38,0H400.67l-12.88,0H271.66l-12.91,0H216l0,.29-.48,1.07-1.11.18-2.23-.37-.35.11-.79.52-.55.18h-.59l-.82-.29L208,737.1l-.93-.29-.59-.08-.44.11-.79.55-.62.15-1.18-.26-.72-.62-2.3-3.27-.66-.59L195,730.05l-4.85-2.87-4.41-3.82-4.27-2.5.48-1.58-.44-.92-.73-.73-.65-2.21-.76-.73-1-.48-1.21-.15-.89-.29-1.76-1.29-.93-.33-.89.22-1.24.37-.31,0-.35-.22-.75.19-1.31.62v-.4l-.52.22-.58,0-1.14-.18-.55-.3-.31-.51-.38-.33-.65.4-1-.73-1.06.07-1.18.41-5.4,1-2.65,1.61-1.55.41-1,.51-1.17.33-.28.56-.07.62-.2.48-.45.33-.89.29-.38.19-.45.4-.41.81-.35.48-1.72.55-2.24,1.14-1.75,1.58-.93.51-1.28.22-1.24.44-2.24,2.06-1.23.66-.62.07-1.79-.44-3-.25-.93-.34-1.2-.77-.52,0-.69.59-.72.33-3.27-.15-3.62.37-.17-.22-.14-.52-.24-.51-.48-.22-.51-.15-.59-.33-.48-.37-.28-.29-.2-.44L114,723l-.14-.37-.31-.29-.45-.19-.27.19-.24.22-.59.14-1.72-.55-.52-.36h-.38l-.27.11-.38.07-2.31.33-2.3.74-2.07,1L99.67,726l-2.06,1-.93.66-.28.48-.1.33-.28.25-.72.08-.55-.11-.9-.48-.65-.15v-.4l-.41-.33-.28-.55-.1-.7.07-.7.34-2.13,0-7.31.65-4.74.38-4.3L93.3,703v-1.69l.9-.26.24,2.35.65,1,.83-2.35-.14-4.22.28-1.44-.45-5.25.38-5.77-2.14-20.9,0-1.07.24-.88,1.14-2.5-1.14-2.53-2.41-4-.07-2.35.83-3.2.58-.51,1.07-.7,1-.44.45.33.21,1,.58.29.73-.22L99.67,645l.42-.81.17-.77,0-1.5.14-.78,1-1.32,3.1-1.91.66-1.25.17-1.61,1-4.12.62-1.47-.55-1.47.17-1.62.69-3.12.48-6.46.27-.81.45-.74,1.72-1.76.38-.07.76.4h.41l.49-.55.2-.92,0-1-.31-.78-.76-.4-.52.18-.24-.07.14-1.18.48-1.72,1.31-3.31.28-1.91.2-.73.49-.63.58-.55.45-.55.27-.77.49-3v-.69l.1-.41.38-.51h.34l.31.11.38-.15.41-.73.45-1.51,1-1.73,0-1-.21-1-.07-1,.1-.66.42-1.25.79-4L120,577l.27-.74.8-1.39.58-1.91.52-3.64.17-3.53-.17-1.76-.52-1.88-.38-.88-.1-.4,0-.55-.06-.3-.25-.51,0-.33.07-.41.17,0,.21.11.45-.22.58-.11.24-.15.21-.44.14-.47V557l0-.48-.38-.77-.62-.73-.31-.77.8-1.4.27-1.18,1-1.28.24-.77.14-.85.27-.81.86-1.39.14-.59.07-1.91.14-.85.45-.66,1.17-.4.31-.3.27-.18.38.07.69.59.31.19.38,0,.86-1.21.31-2,.38-5.69-.17-5.41.13-.62.73-1.43.17-.74-.48-.77-.11-.4.11-.22.13-.22v-1.73l-.1-.81-.48-1.73-.1-.88.1-.88.34-.81.55-.66.73-.22,1-.11.38-.37.27-.58.69-.81.83-.44.65-.19.52-.29.41-1,0-.48-.11-.44-.17-.37-.07-.4.11-.37.48-.52.1-.4.35-.84,1.41-.81.34-.63.14-.59.27,0,.35.18.27.08.93-.67.07-.07.9-.4.58-.48,3.31-4.52,1.45-1.14.51-.59.86-1.43,3.1-3.82.69-1.47v-1.43l-.45-1.47-.76-1.55-.34-1.72.59-1.4,2.34-2.53,1.17-.74L159,478l1.31-.77.41-.37.87-1.62.31-.44,1.48-1.39.82-.52,1-.11,0,.22,1.1.19.58.33,1.62-1.66.62-.25.86.18.9.73.82.26,1.79-.37,1.45-1.21,2.27-2.57,1.1-.88.49-.66.17-.88.1-2.25.21-1,.38-1,1-1.61,3.17-3.24h.34v.37l-.51.19-.35.36-.07.44.24.52.8-.81,1-1.76,1.66-1.95.48-.77,1.2-4.34,1.48-3.23.59-1.73.52-3.82.38-.84.72-.81.58-.88.52-1,.38-1.21.83-5.41.48-1.65.1-1.1-.83-9.85.21-5.87.21-1.25.41-1-.38-.51,0-.59.2-.7.14-.62v-3l0-.51.25-.59,1-1.4.14-.62v-1.51l1.24-7.75,0-3.16.07-4-.24-2-.76-1.73L192.43,374l-.38-1V372l.42-.92,1.51-1.95.1-.88-.34-.85-.62-.88-2.07-1.83-.34-.56-.21-.58-4.75-6.14-3.2-2.79-.76-1.1-.24-1-.1-3.67-.17-1.17-.42-1.18-2.72-4.08-.62-1.21-.58-2.65-.79-1.1-1.93-2.13-3-5.14.14-.77.45-.78.31-1.13-.42-2.21-1.06-2.35-1.38-2.2-4-5-.38-1,.24-.91,1.13-1.29.35-1-.07-.95-.31-1.07-.41-.92-.42-.36,0-.63-1.62-5-.1-1,.13-2.46-.2-.81-1-1.91-.2-1.18-1.14-.92-3.79-6.72-1.44-3.6-1-1.54-.2-3,1.93-4.26,2.82-3.63,2.51-1.14-1.1,1.72-3.62,3.2-1.82,4.52-.31,1.43.62.63.55-.48,2.82-5.11.11-.55.24-.59.62-.18h.69l.51-.11.73-.74.55-1.76.62-1.07,1.27-1.43.28-.62,0-.59-.07-1.25.21-.55,1.48-1.73.86-.73.93-.3-2.51,2.65-.59,1,.69-.44,1.69-.81.93-.63.37-.11.35-.22.1-.58,0-.37.1-.3.21-.18.34,0,3.13.48,1.21-.48.65-2.75.76-2,.14-.81-.24-.81-1.48-2.17-.59-1.61-.65-3.64-.52-1.73.69-.14.48,0,.38-.07.35-.55.13-.55.07-4-.24-1.18-.48-1.29-4.65-7.82-.62-.48-.69-2.46-.41-.92-.41-.62-.59-1.4-.38-.59-.86-2-.45-2.46-3.34-6.39L154.56,199l-2.34-6.17-1.42-5.48-1.37-1.58-.76-.88-1-1.25.27-1.87-.27-1.43-.83-10.73-.52-1.66-.1-.88-.07-.25-.14-.19-.1-.18.14-.3.34-.4.14-.29.14-.56.13-.14,0-.19-.24-.44-1.45,1-1-.48-3.68-5.4L136.17,155l-3.51-5.52-4.65-9-1.82-4.55-1.35-3.05-1.34-2-1.2-1.8L121,127.27l-2-3.9-.24-1.76.79-1,1.11-.33,1.06-.66-.34.84-.1,1.54,1.1-.11,1.79-.55,2.55-.07,3.23-.77,1.55-1.07,1.1-.4,1.55-.26,2.62-1.51.65-.29,1.21,0,1.07.4,1.27.41,1.31.25,1.45-.4,2.34-.55,2.2-.85,1.07-.81,2.27-1.06.93-1.36,1-1.29.34-1,.66-.62,1.27-.33.93-.11.83-.4.89.11,1.83.18.58,0,.86-.36,2-1.18.73-.29h.07l4.23.36,2.1.59,1.59.88.55-.44,1-1.14.31-.25,1.65,0,4,.08,1.48.47h.62l.9-.44.48-.11,4,.48,8.33-.73,6.86-.59,2,.62,1.2.74.73.33,6-.52,1.17.15,3,1.14,1,.15,5.23.07,4.55.11,2.3-.4,3.21.84,1.55.18L241,109l2.82-.07,1.89,0,4.58-.07,4.58-.07,4.61-.08,4.58-.11,4.58-.07,4.62-.07,4.58-.08,4.58-.07,4.58-.11,4.61-.07,4.58-.08,4.58-.07,4.61-.11,4.58-.07,1.31,0,3.27,0,4.61-.07,2.93-.07,1.31.29.86.55.79.7,1.1.59.83.14.76-.11,1.58-.51,1-.15.93,0,.89.22,1.9.81.38.22,1.86,1-.18.44-.68.88V113l.48.7.27.55.07.52.21,3.38.17.58.28,0,.48-.26.45,0,.2.52-1.07,1.32,1,.11.59.48.86,1.25.58.33.69.22.55.37.21.73.9,1.07.44.8-.13.7-.35.7-.14.88,0,3.93.07.48.17.48.1.55-.07.51-.27.22-.45,0-.45.15-.2.55,0,2.09.11.19.27.51.35.22.34-.11.24.07.1.74-.27.7-.45.73v.52l1.07.07-.31.77v.63l.34.47.52.52.45.62,0,.52-.62,1.1-.17,1,.14.89.76,1.8.2.95.14,2,.24.95.38.88,2.79,4.15.17.81.1.77.21.74.59.55.55.22,1.2.11.55.15,1.24.92.59,1.32.38,3.08-.11.22-.17.52v.48l.45.25.58.11.31.33.21.45.24.4.45,1-.21.84-.34.92L354.5,173l-1.62-.47-.1,1.36,1,3.52-.07,2.91.24.44.48.33.62.69.83,1.25.14.85v.81l.21.66,1.34.44,1.72,1.29,1.27.66.55.55.25.81V191l.31.73.72.52.38-.77.31-.08.31.22.38.22,1.1.3.44.26.18.4-.28.33-.58.22-.59.29-.27.63.13.51.31.37.45.33.45.44.69,1.25.82,2.57.76,1.18,2.45,1.32,1,.77-.17,1,.24.88,0,1.25.1.88.76-.4.1.44.11.07v0l-.21.22.83.37v.48l-.31.51-.18.48.28.7.89.88.21.48.21.29,1.17.18.48.26.1.52-.07.66.28.47.93,0v.37l-.45.48.35.11h.65l.48.14.17.59,0,.7.17.4.73-.22.58.7-.21.48-.44.48-.28.77.21.33.45.37L380,220l-.24.4,0,.18.13.15.14.37.14-.22.31-.26.24-.29.45,1.72.27.56.52.47,1.1.63.42.4.17.88-.59,1.55.38.8,0,0,.37.48,2.83.73,1.41,0,4.27-1.58,1.51.11,1.69.7.62-.08,3.13-1.83.83-.19,1.69.19,1.48.77,2.55,2.31,1.34.33,4.51-.11-.31-1.36.07-1.5.45-1.25.93-.59.75-.18,2.07-1.07.79-.11,3.75.15,2.48.11,1.86.77.66,0,.79-.26,1.1-.63.83-.11,3.1-.07.31.07,1,0-.24-2,.1-1.07.59-.44h11.19l.44.29.25,1.51.31.66.75,1.29h29.27l-1.07-4.19-.17-1.4.14-1.69.76-2.46.48-1.62,1-3.3.17-1.43,0-1.29-.38-1.4-.58-1.47-.41-1.43.1-1.43,3.48.33,1-.26.72-.81.52-2.09.69-1,0,0,.07,0,0,0,1.41-1.21,0-1.65-1.34-3.6-.38-1.84-.14-1.73.52-8.74.52-1.73.58-1L484,173l.31-.88-.1-.59-.93-2.13h38.87l0-.77.25-1.77.24-.77.38-.84.41-.34.58-.11h6.86l4.37,0h2.89L537,168.05l-1.38,3.86-.79,2.16-1,2.94-.31,2.54,0,2.57.07,2.64h2.34l3.65,0h7.34l3.65,0h7.33l3.65,0h11l3.68,0h7.3l3.69,0h10v.22l.17.26.34.11.38.26.31.4,1.14,2.57.27.37.28.48-.11.47-.27.37-.1.3.31.62.34.37.31.4.1.66,0,.33-.28.48-.07.29.14.3.48.51.11.3-.11.69-.44,1.11-.18.62,0,.66.14.33.14.3.13.55v2l-.17.4-.72.81-.17.3-.07,1-.24.67-.35,1.1-.58,1.8-.66,2-.38,1.21-.58,1.69-.28.88-.31,2.39.35,1.4,0,.62-.14.63-.72,1.06-.17.52.14,3.67.24,1,.48.41,1.58.95.31.63.14,1.32.31,1.1.55,1,1.28,1.54.31.73.13.92L601,235l.55,2.57.41.95,1.48,1.55.48,1-.38.22-.37.22-.28.62.59,1.4,1.24,2.09.37,2.32-.17,2.39-1.2,4.15.24.07.17.11.21.11.38,0-.93,1.73-.56,1.65-.58,4-.52,3.41-.34.37-.38,1.8-.52,1.29-.41,4.3.1,2.82-.72,6.21.62,5.44V290l-.55,2.28-1.55,3.38-.31,1.88-.55,1.1-.07.7.24.58.83,1.11.34.55.62,2.2.59,4.74.51,2.28,1.24,2.13,3.21,3.56.72,2.1.31-.19.79-.33.31-.18.07,1.76.62,1.51,2.89,3.6.48.29.38-.11.35-.4.55.29.86.77,1.93,1.33.68.84.38,1.21.42,1.92,1,3,.45,2.28.24.66-.35,1.76.9,2.47,1.24,2.46.89,2.53,1.21,2.24.41,1.62.72.95.18.63,0,.62-.27,1.07-.07.55-.24.81-1.14,2-.34,1.1.13,1.18.49.74.62.69.48,1.14.17,2.32,0,1.06,0,1.14.1,1.91.83,1.4-.27.33-.07.15.13,2.09-.13,1-.49.48-1,.14-1.24.41-2.1.92-.93.69-1.17,1.14-.86,1.18v.88l.48.84,1.07,3.79v2.09l.14.26.75.59.18.25.17,1,.82,1.58.35,1,.58,4.77-.17,2.32-.72,2.2,1.27-.07.93-.62,2.21-2.5.72-.55,5.06-1.84,1.45-1.32,1.58-4.34,1.86-.29,3.82,1.65,1.86.81,1.93.59,1.93.18,1.86-.33,1.06-.66,1.07-.85,1.14-.58,1.2.07,1,.55,1.86,1.36,1,.44,1.93.33H659l5.07-.92,4.13-.77,5.51-3.27,3.37-2,2.1-.63,2-.14,2,.18,3.13,1,4.27,1.25,1.65.11,2-.14,1.89.22,2.1.7,2,.4,1.69-.66.34-.52.38-1.21.31-.55.48-.4,1.07-.7.48-.48.41-1.06.21-1.29.41-1.1ZM91.17,693.05l0,2.13.55,2,.07.7-1.17-1.14L90,695.11l-1.61-5.44.06-1.51.52-.66,1-1,.9.33.1,2.72.21,1.21Z" style="fill:#efc441"/></svg>