<?xml version="1.0" encoding="UTF-8"?><svg id="Anguilla" xmlns="http://www.w3.org/2000/svg" viewBox="0 0 720 540"><path d="M395.24,398.79l-5.12-.49-1.4,1.44,6.02,.45,.5-1.41Zm5.14,1.47l.47-1.47-.47-.49h-2.82l-.46,1.44,.46,.45,2.82,.07Zm-16.74,12.7l1.33-1.41-1.33-1.5-1.43,2.45,1.43,.46Zm-.5-15.19l-1.4-1.47h-1.89l-.4,1.47,2.29,1.5,1.4-1.5Zm-15.35-1.47l.47-2.42-3.23-.56-.46,1.57,1.39,1.4h1.83Zm239.19-28.48l1.39-1.43v-1.96l-1.39-.46-1.9,1.89h-.93l-.4,1.47,.4,.49h2.83Zm-236.83,38.8l-1.43-4.44-9.76,1.5,4.21,4.38,6.98-1.44Zm36.75-8.33l.4-1.47-.4-.49h-1.9l-.47,1.44,.47,.52h1.9Zm231.65-30.47l.5-.49-.5-.46h-.93l-.4,.46,.4,.49h.93Zm-212.58,97.51l-1.39-2.41h-.93l-.47,1.5,1.4,1.47,1.39-.56Zm130.22-56.78l-1.4-1.47h-.87l-.56,1.47,2.36,.49,.47-.49Zm39.17-17.67l-1.4-2.42-3.69,.95-2.36,3.43v1.96l-2.36,2.41h-1.86l-1.89,1.96-2.27,1.5-1.43,3.43h-10.17l-4.71,3.92h-1.86l-2.76,1.83-5.71,1.14-.93-4.87-19.51,7.84-6.51-2.97-28.84,11.75-12.06,9.76-9.8,7.45,5.58,14.63-30.7,18.64,4.62,2.97-3.22,7.28-38.15,4.93-5.61,.95-8.31,11.75-25.11,11.75-11.66,13.25,16.28-4.41,11.13,3.88,4.68-4.86,4.72,3.92,6.48-9.79,8.37,1.96,12.07-9.79,10.26,.95,3.69,8.85,17.7-2.91,11.2-5.94,9.24-15.67,21.37-2.91,9.34-7.9,7.44-.95,2.79-6.82,23.76-8.36-.96-6.79,6.04-7.45,10.33,2.97,1.89-3.04h5.49l1.92-.95,1.36-1.46-.93-.95-.96-1.96,.53-.56,5.11-.46v-5.88l-.92-.95,.92-1.01v-1.96l3.23-2.41,1.4-.49,.92-5.91-4.15-.49-2.33-2.41v-2.97l2.33-2.45h.96l.4-1.47,4.22-4.38h2.82l6.01-8.3,.4-1.57h2.82l2.36-1.4v-1.01l-1.89-1.9,.96-5,1.87-1.89Zm-236.83,137.65l-.47,1.5,1.42,2.48,3.19-.56-2.33-3.42h-1.83Zm-15.42-128.76l6.05,4.38,8.84-1.47-7.84-4.38-7.04,1.47Zm235.46,33.21v1.01l.47,.49,.49-.49v-1.01l-.49-.46-.47,.46Zm-222.87-40.56l1.43-1.5-.47-.46h-3.78l-.38,1.47,.4,.49h2.79Zm284.75-20.68h-1.9l-.93,1.01-.87-1.01h-2.82l-.46-.49,2.82-1.96-.47-1.47-3.69,1.01-.93-2.97h-1.03l-1.8,1.96h-1.89l-1.8,2.03-3.75-2.97-3.72-1.01-3.29,2.42-1.39,2.52-1.89,.91h-4.62l-3.29,3.46,1.89,3.99v2.91l.93,1.93-1.4,2.45-3.22,.46-.96,2.97,1.43,1.5h5.55l1.89-1.96,4.62-1.96,2.36-2.42,.46-3.46h4.62l.96-1.96h2.82l.87-1.01h4.68l6.51-3.89h2.82l1.33-1.5-.46-1.47Zm-348.94,6.89l-.47,1.57,2.36,.46,1.39-1.47-1.39-1.5-1.89,.95Zm-42.37,11.33l1.4,1.5h.92l.47-2.51-2.26-.46-.53,1.47ZM78.92,23.17l3.29,2.49,5.09-6.35,1.39-12.31-6.98,5.4-2.79,10.76Zm185.17,364.85l13.43,8.33,17.27-12.31-24.69-4.35-6.01,8.33Zm5.98,9.31l-.4,2.42,3.22,.52,.47-1.47-1.36-1.5-1.93,.03Zm-2.72-18.65l.4-1.47-.4-.49-2.82,.03-.46,1.47,.46,.46h2.82Z" style="fill:#efc441;"/></svg>