<?xml version="1.0" encoding="UTF-8"?><svg id="Antigua_and_Barbuda" xmlns="http://www.w3.org/2000/svg" viewBox="0 0 720 540"><path d="M509.73,412.89l-.02,.47,.22,.25h.54l.22-.23,.02-.49-.22-.28h-.53l-.22,.28ZM417.82,68.06l.49,1h.52l2.25,2.25-.02,.48,1.5,1.54,2.01,4.01,.5,3.98,6.01,7.03,.5,5.01,.5,.48v2.52s.52,.49,.52,.49l-.02,4.99,.53,.54-.05,5.99-.99,2.04-1.52,7.98-.98,1.52-.99,3.99-1.52,2v1.04s-.48,.47-.48,.47l-.02,3.52,1.74,2.25,2.02-.02,1.99-1,2.52-2.51,1.99-.5,1.52-.98,1.99-1.04,1.04,.02,1.48-1h3.52l2.97,1.54,2.52-.04,1,1.02,3.5,1.99,1.5,1.52h1.02l2,.98,2.47,1.54,2.54,2.97,1.97,.5,1.04,1,3.49,.03,3.51,1.47,1,1h.5l1.5,1.54,.5-.03,3.26,3.25,.98,2.49,1.54,3.01-.28,4.77h1.03l.24-1.24,1.52-2.52,1.23-1.24,2.02-1.02,1.97-.5,.5,.52,3.02-.02,.5,.48,1.52,.02,.5,.52,1.5,.5,1.5,1.49h.5l2.49,3.02h1.02l.71-.75,.02-1-.77-.25-1.74-1.77v-1.52l-.5-.48,.52-.47,.49-2.04-1.97-1.5-.54-1v-1.49l1.54-2.02,.48-3.5-1.03-1.99v-3.5l1.52-1.52v-2.5s1.5-2,1.5-2l.02-2.47,.47-.52,.04-3.01-.5-.52-.03-1,.5-.52,.02-1.97-1.5-1v-1l-.5-.52v-4l-1.49-3.49-.02-2.52-.5-.49,.02-1.52-.5-.49-.02-2.52-1.5-3.01-1.49-1.97-.5-1.54-1.5-1.49-1.04-2-1-.49,.02-.52-7.76-7.78h-1l-1.5-1.5h-.5l-.5-1-1.25-.73-.5-1.49-1.25-1.28-.5,.03-2.24-2.77-2.54-4.51-.75-.27-3.21-3.24-.03-.52-2.75-3.26-3.49,.02-.5-.52-.5,.5h-1.02l-.5,1-1.52,.02-3.01-3.02-4.49,.02-.73,.75,.47,.49v1l1.04,1-.02,2.01-3,3.02,.75,1.25,2.02-1,.25,.25-1.27,1.23h-1s-.48,.5-.48,.5l-.53-.52-3.99,.05-.5-.52-1.52-.02-1-.49-1.75-1.77,.02-2-.5-.49v-5.01l2.52-1.5,.23-1.27,1.75,.25,.49,4.01-.72,.23-.77,1.27v1l.75,.77,2.52-.02,1.47-1,2.27-.74,.02-1.49-2.04-2.05v-.48l-1.5-1-.97-1.48-2.02-4.02-7.26-7.76-2.5-.5-1.48,1.52-2.27,.73-.49,1.52,.5,.48-.02,2-.5,1-.77,.75-.97-.02-.5,.52-.5-.52-1.27,.27-.47,1-.02,2.52-.52,.52v2.99s2.02,2.5,2.02,2.5v1.48l-1.02,1.5-.02,1,1.27,.25,1.5,1,2,.5,2.25,1.77,.25,.73h.5l.5,1,.75,.25v.52l3,3.49,.52,2,1.5,1.54v.97l.5,1-1.52,1.02,.04,1,2.49,5.03,1.23,1.72,.75,.25v2.52s2.02,2.49,2.02,2.49v1l.5,1-3.52,4.02-.48,2.5-.5,.48-.02,1,1,1v1l.5,.49,.02,3.52,.5,1-.52,.52v1l-1.02,.47v.52l-1.74,1.75-1.97-.02-2.04,1.52-3.49,.02-1.79-1.77,.02-2.49,.52-1,1.49-3.02,.5-5.01-.5-.49,.02-2.52-.54-.48,.02-1.52-.5-.48v-1.52l-.5-.52-.02-8,.5-1-.75-.23-3.74-3.76v-1l-.5-.52,.52-2.49-1.5-1-.53-2.52-.5-.49,1.02-1.52,.02-1-3.04-3.49,.02-3.01,2.5-3.02v-1.49l-.99-1.52-.5-1-.02-4,.52-.47-.03-1.04-1.22-1.25-2.52,.02-3.77,4.26-.47,1.48-1.52,1.5,.04,.52-3.79,1.74-.73,.75v2.01l4.76,4.27h.5Zm73.62,323.53l1.47-1.5,1.02-.03,.23,1.28,.75,.23,1.52-2.02h.5l1.49-1.47h1.03l.24-1.27-1.25-1.25-1.5,.04-.5-.52-2.52-.02-1.49-.98h-1.02l-1.22,1.75,.5,.49v1s-1.03,1.5-1.03,1.5l.03,1,1.25,1.77h.5Zm21.53,3.52l.25-.28-.02-2.47-.75-.25-.98,.95-.54,.03-.22,1.24,1.25,.77,1,.02Zm-.03,25.52l-.72,.75-.02,.52,.25,.23h.5l.52-.5h.5l.25-.25-.03-.52-.22-.23h-1.03Zm9.26-1.25l.02,.98,.25,.25h1l.26-.23v-.52l.5-.48-.25-.75-1.03-.02-.75,.77Zm.75-1.25h3.52l.75-.75-2.75-.27-1.5-1-1-.02-.77,1.27,1.3,.25,.45,.52Zm-10.52-3.5l-.73,2.75,.75,.25,2.52-.98,1.97-.03,1.77-1.25,.52-2-.25-.25-4.54,2.54-2-1.02Zm-24.29-21.3v1l.53,.53,.22,.72h.53l.22-.23v-1l.51-.52v-.48l-.25-.23-1.5-.02-.27,.23Zm10.78,14.76l-.25,3.29,1.25,.72,1.02-.47h2s1.49-1.54,1.49-1.54l3,.02,2.02-1.02,.97,.02,1.52-1,1-1.5,2.02-.98,1.27-1.27-.03-1-.75-.74-2-.53-1.5-.97-1.25,.75-.74,2.76-1.52,.99-1.5-.49-3.01,3.01-5.01-.03Zm41.32,34.82l.02-1,1-.98v-.52l-1.04-.48-.23-2.29-1.5,.03-.52,.98-1.5,1-.97,.02-2.02,.98h-2l-.5-1.48-1-.02-.5,.52-.25-.75-1.5-1.02,.02-1-.75-.73h-1.5l-1.02,.5-.5,.97-2.99,1.54h-.54l-.21-.77,1.27-.27,3.24-2.74,.47-1-.45-.49,.22-.75h1l.5-.5,3.02,.02,2.24-2.79-.5-1,.27-.75,1.25,.25v1s1.23,1.28,1.23,1.28l1,.48h1.5l.23-2.75,.52-1.03,1.02-1.99-.5-1,1.49-1.47,1.52-2.55-.28-.72-.97-.02-1.52,1.52-.52-1.52-1.47-.02-.52,.52-1.5-.02-.5,.52-3.49,.5-1.52-1.99-2.97-.53-1.27,2.27-.77,.75-1,.03-.02,1.48-2-.02-.97-.48-1.52,1.5-1.5,.52-.75-.77,2.49-2.02,.02-1-.75-.25-.48,.52-2,.5-1.52,1-1.5-.02-.5,.52-1.5-.02-1.02,.52-1.49,2.51-.23-1.75,.5-.52-.02-2,.5-.48,.02-1.52,.5-.98,1.22-.27,1.27-1.75-1.5-.98,.48-.98-.22-.77-2-.02-.5,.52-5.49,.48-2.53-2.5-2.25-.73-.48-2-1.99-3.01,.47-1,3.24-2.25,1.27-1.75v-1s-.99-.52-.99-.52l-.03-1.48-.75-.77-.97,.52-.54-.5-.72,.73-.02,2.5-5.78,4.76h-.97l-.75,.75-.02,1,2,.5,.5,1v3.52s-2.76,.22-2.76,.22l-.5,.52h-1l-.25-.25,.5-.49,.02-1.04-2.27-.22-1.02,1.52-1-.02-.5,.49-.75-.77,.02-1.48,.5-.5,.02-1.97-.5-.52-.27-2.25-2.99,.5-2.52,1.99-.25-.23-.98-3.54,1.74-1.22h1l2.27-2.25-.99-1.5,.22-.75,1-.51,1,1.5h1l1.25-.75-.02-1,.54-.49-.02-2-1.25-.28-1.5-.97h-1.51l-4-2.52-.75-.72,.02-2.04-1-.5-.5-1,.48-1.5-1.25-1.25-2.01-.5-2.75-2.74-.52-2.52-1.2-1.25h-1.52l-.5,.5-4.03,.02-1.5,.98-3.52,.02-.47,.48-2-1.02-1.5-1.49h-1l-1.04-1.02-1.47,.03-1.02,1-1.5-.02-1.99,1.5h-1.5l-.5,1.04-1.02-.02-.75,.75-.5,1,.49,.48,.03,2-4.5,4.01-1.5,4.99-1.52,1.52v1.52s-.52,.47-.52,.47l.04,2.04-2.54,2.5-.47,1,.25,.74h1.51l.5-.49,1.5-.02,.46,.52h2.02s.25-1.27,.25-1.27l-.75-.25-.75-.75,.25-.25,1.52,.02,2.24,2.25-.75,1.24-2.99-.02-.75,1.27,.74,.77,1.98,.02,3.04,1.49,1.74,1.74v1l-2.27,.27-.49-.52-1.98-.02-1.49-1.48-1.04-.49-3.02,.5-.47-.54-2.5,.03-1.99-3.02-2.05-.48-.5,.5-1.5,.03-1-1.52-1.47-.02-2.04-.97-1.97-.02-.77,1.27,1.25,.22,.75,.8v.97l-2.77,.25-1.47,1.52-1.02-.02-1.76,.75-.52,1,.03,2,.5,.52-1.52,1.47v.52l-1.52,2.03,.02,3.01-1.52,.98,.28,1.72,3,.54,1.99-2.02,3.02,.02,1.5-.98,3.99-.02,2-.98,1.02-1.52h.97l.28,1.74,.5,.52-.02,1.49-.5,.52v1.52s-2,1.99-2,1.99l-1.77,3.74-2.49,.03-.49-.53-3.52,.02-1.49,2h-5.01l-2.25,2.75v1l1.22,.72,1.03-.95,2.49-.02,.99,1,3.52-.5,.75,1.25v1.52s-2.77,.22-2.77,.22l-.23,1.75,2.25,.27,.75,.75,.5,.97,.02,3.04-.53,.49v2.04s-.7,1.75-.7,1.75l-2.02,.47-2.27,1.79v.48l1,.49,.5,1-.49,2.52,1.5,1.48-.52,2.01,2.52,4.49-.02,2.52,1.25,.77,.5,.49,1.5,.02,1,1,5.01-.02,1.02-.5,.49,.52h2.02l.5,.5,2.5,.48,.5,.53,2.01-.03,1.98,2.5,3.02-.47,.5,.48,3.5,.02,.75,.73,.23,1.75,2.52,.02,.5,.49,1-.03,1.52-2.02h.97l.25,4.29-.5,.47v1.52s.77,.77,.77,.77l.5-.03,.99-1,2-.5,.5-.48,2.52-.02,1.47-.98,2.5-.02,.52-.48,2,.02,.77-1.29v-1l.75-.75,4.49,.03,.98,1.49,2.05-.02,.45,.52h1.05l2.99,2.51h1.5s1,.5,1,.5l.72-.75-1.99-2.5,.02-1.04,2.99-2.97v-.52l1.77-1.75,2.97,.02,.54,.49h1.52s.73,1.25,.73,1.25l-1,1.03-.02,2.49-1.77,1.25h-1.5l-1.74,2.27v1.47s1.77,.25,1.77,.25l1.97,2.02h2.03s1.99-2,1.99-2l1,.48h1.5l1,1.54,1.5-.03,1.25,.75,1.8,.82,1.24-.82,.4-.2,.17,.2,.2,.3,3.01,.02,.16-.32,2.29-3.24h.5l1.54,1.99h.97l.75-.72,.02-1.52,.5-.52-.03-.52-2.99-3.45v-1.52h2.02l.23,2.77,1.27-2.27,1.52-1.52-.03-1.47-2.24-2.77-2-.5-1.79-1.74v-2.04s-1.47-2-1.47-2l-.03-1.97-.95-1.04-.53-1.5,.75-.75,1.5,1.02,2,.02,.52-.52,.5,.52,1.97-.02,3.04,1.5,.98,1,1-.03,2,1.54,2,.97h1s1.5,1.02,1.5,1.02h10.03l.5,.52,3.02-.02,.47-.98,1-.52,1.5,.02,.73-1.25-2.47-1-.03-1,1.27-.75,.5,.48,.5-.48,1-.04,.27-1.23,1.22-1.75,1.5,1.02h1l1.02-.5,.75-1.25-1.49-1-.03-1.52,1.02-1v-.98l-1.51-1.5v-2.04s2.51-1.47,2.51-1.47l-3.01-1.02Zm-113.17-59.08v.48l.22,.25,.75-.72-.25-.28h-.5l-.22,.27Zm117.94,64.35l-.77,1.23,.75,.77h1l.25-.75,.52-.52v-.48l-.25-.23-1.5-.02Zm5.97-9.03l-1-1h-1.47s-.53-.5-.53-.5h-2.47s-.54-.5-.54-.5l-1.97-.5-1.27,2.24,.25,.28h1.5l.5-.5,.75,.75,.75,1.25,1-1.5h1.02l.98,2,1,.02,1.02-1.04,.49,.52h1.02s0-1.5,0-1.5l-1.04-.02Zm-135.96-15.24v-.49l-.75-.75-.25,.23v.52l-.5,.52,.25,.23,1-.02,.25-.25Zm-16.76,8.26l-.77,.75,.25,.28,2.02-.03,.22-.72-.22-.28h-1.5Zm-262.93,82.15l-1.27,.23-.02,7.01,1.28,.23,.5,.52,1-.5,1.24-1.75v-3l-1.74-2.26-1-.48Zm403.16-58.63l-.25,.23v.52l.74,.73,.27-.23v-1l-.25-.25h-.5Zm-137.22-23.02l-.75,.75,.75,.77h.5l.25-.25v-1.04l-.25-.23h-.5Z" style="fill:#efc441;"/></svg>