<svg xmlns="http://www.w3.org/2000/svg" viewBox="0 0 800 800"><path d="M334.17,34.57l.95-1.64.54-.67,1.39-1.15.2-.32.06-.45-.17-1.92h.73l.28-.06.24-.18.18-.28.38-.42.49-.27,2.07-.67.2-.15v-.22l-.11-.59,0-.17.24-.31.13-.48.22-1.53.13-.49.24-.4.43-.39.24-.11h.2l.2.07.37.06.3.1h.1l.05-.14.05-.15.07-.1,2.16-.61,2.45-.74.44-.36.07-.19.12-.21.14-.17.16-.1h.23l.07.06h0l.12-.25.07-.3.18-1.93.87-3.39.33-.11,1.56.53.8.41.57.65.21,1,.1.1,1.71.31.39.25,2.37,2.91.53.4.57.19,2.58-.31.14-.07.07-.09.09-.08h.16l1.28.2,1,.11,4.93-.05h3.13l3.47.84,1.29.76.73.19h.16l.34-.16h.16l.15.06.39.06.35.27.42.22.37.09.16.12.49.64.17.24.16.42v.33l-.12.29-.24.29-.19.49.24.36.39.28.25.23V26l-.14.39v.22l.11.15.32.23.07.12.11.47.27.39,1,1v.31l-.14.22-.15.17-.07.23v.2l-.08.41v.55l.12.12L385,31l.18.15.49,1.11.2.17.41.19.24.46.06.56-.14.5.23.28.06,1,.35.18v-.27l.43-1.59.16-.4v-1.5l.8-3.1.28-.5.94-.94.44-.67,1.38-3.75.14-.15.37-.21.13-.23.59-1.52.27-1.16.17-.34.1-.06h.12l.14-.08.14-.14.07-.17.07-.4L394,18v-.13l.06-.06.27-.12.5-.09,1.72.12.36.17.76.7.22.1.85-.8.3-.16.71-.13h11.59l2.72-.15.81.15.27.06.05.2.11.77v.22l-.05.16.13.26v.64l.14.38.26.28.87.45.78.59.23.24.08.18v.19l.05.14.17.06h.17l.17.09.12.14.09.16h-.12l.11.28-.06.22-.13.17v.18l.14.19.23.13.25.07h.2l.45.12.31.27.44.62.23.1.75.25.16.13.13.31.31.34,1.29.91.35.15h.14l.66.1.2.07.14.08.05.11v.58h.33l.4.5.16.38-.1.33-.27.38V30l.24.21.47.22.22.06h.18l.09.21-.13.46v.27l.36.23-.23.48.08.13.24.06.12.18.08.24.11.22.51.58.07.14.05.19.07.16.13.07v.07l.16.15.18.13h.09l.07.26.17.24.39.42.26.43.36.77.2.31v.19l-.09.48.05.11v.09l.25.39.66.76,2.05,1.3.16.15.41.64.22.2.41.25.21.18.19.24.11.2.06.25v.39l.08.36.21.17.27.13.25.18.29.34.17.1.24.08h1l.26.13.94,1,.16.1h.56l-.09.16-.09.24V46l.29.2.16.48.18.12h.39l.34.07.3.13.28.2.22.22.19.13.25.07h.43l1.2.55.14.27.11.32.19.28.38.13.17.08.36.37.16.12h.63l.23.19.25.3.28.26.32.1.22.19.07.42-.07.47-.16.35.16.19.32.54.49.3.29.39.23.43v.28l.1.12.26.46.18.17.58.39.71-.21.68.35.62.53.53.33.38.06h1.61l.18.07.38.34.18.05.84-.05h.22l.2.07.31.19h.18v.11l.31.67h.75l.34.17.61.45,1.14.23h.83l.19.13.36.34.19.12h.76l1.45.23,1.38-.06.44-.09.87-.32h.38l.33.08,6.64,4.55.71.75.33.46L474,65l.19.08.47.06.3.2.34.07.15.11.21.22.2.17.41.25.41.19.11.1.06.14v.19L477,67l.45.22.72.66.16.2.38.74.31.38.6.24.24.3.18.07h.28l.14.1.1.14.17.15.77.28.52.38.44.16.68.47.37.13H484l.17.12.37.38.18.13.59.15,3.54,2.78.37.11h.95l.27.09.12.11.15.07.12.08v.16l.1.11,4.07.82.42.22.22.23.44.63,1.18,1.37.12.2.05.17.1.12.24.08h.2l.24-.12.22-.16L499,79l.3-.24h.34l1.67,1.18.17.31h.23l1.29.67h.17l.42-.06h.17l.12.18.08.24.11.2.25.1h1.47l.36.14.27.23.81,1,.27.21.59.3.21.27.61,1.37.35.51.56.41h0l.55,1.48v.26l1.14.93.24.28.14.27v.35l-.24,1.82-.09.37-.23.23-.25.07-.2.15-.08.5-.13.12h-.29l-.54-.08v.11l-.09.46-.07.17-.18.11h-.58l-.39.17-.23.23-.39.61.11.17.16.12.17.08.19.06-.19.27-.31.32-.36.28-.34.12-.27.18.06.4.29.72-.2.29-.13.1-.25.19-.39.21-.39.15-.05.15.05.15.42.16V99l-.1.25-.12.17-.64.54-.14.32.85.26v.28l-.24.34L504,102.8l-.6.37-1.2.44-.19.2-.18.72-.16.43-.17.23-.06-.15-.11-.12-.14-.1-.19-.06.05.37.21.22.29.15.27.2v.3l-.31.26-.42.17-.29.07-.15.15V107l.09.67-.06.35-.08.3-.62,1.13-.13.34.06.25.45.43-.07.23-.25.19-.06.18-.05.36-.1.32-.05.33.06.36.1.12.42.31.11.16.16.3.11.12-.12.14-.31.23-.08.06v.25l.09.18.1.18.05.19-.09.13h-.22l-.58-.13-.09-.06h-.07l-.08.25-.09.4-.05,1.64-.08.11h-.35l-.32.09v.22l.14.24.08.17-.26.29-.31-.06-.33-.11-.32.1-.22.46.22.29.33.27.13.37-.24.21-.85.07-.19.2-.16.27-.41.16-.82.23-.27.2-.17.27.05.29.27.25-.14.3-.33.42-.16.29-.07.16v.5l-.07.11h-.15l-.12-.08v-.14l-.05-.16-.1-.09h0l-.17.1-.12.14-.09.16-.06.17v1l-.09.22-.93.17-.42.25-.27.43-.1.62.12.27.25.26.45.35.23.4v.43l-.08,1h0l.08-.07,1.65-.74,5-.44,2,.26h.28l1.11-.2h.58l.34.08,1.09.23h0l.57.25.25.06.82.17.8.29,1.89.4.21.08h0l3,1.56.29.11h.12l.48.06,1.86-.29h.56l.39.11.16.11.3.31.13.13.2.11H517l.83.24h0l.18.1.49.43.18.1.19.07h1.32l.6-.14,1.82-1,.67-.27.68-.08.64.27,1.14,1.17.67.43.68-.14.95-.75.83-.26.46-.13,1.22.17h0l.74,1,.35.58.48.57.55.45.57.25h0l.6-.14.33-.51.25-.65.36-.54.36-.41.21-.42.08-.47-.08-.58.1-.47.43-.23.53-.16.42-.19.67-.8.35-.27.47-.27h.47l.45.1h0l1.24.49.41.08h.44l.45-.07h.43l.37.15.27.4.28.8.17.21.22.12.5.15,1.11.64.69-.57.66-.81.52-.4.45-.08.39-.23.3-.37.18-.48v-.61l.25-.43v-.44l-.07-.26-.44-.86v-.32l.48-.14.3-.16.11-.38.08-.43.21-.34h.37l.51.06h.45l.19-.34v-1l.11-.43.22-.41.31-.35.33-.23.37-.1.87-.13.9-.51h.44l.39.16.34.19.29.09h.73l.43-.08.29-.26.07-.45-.26-.84.13-.36,1.2-1.23.36-.15.91-.08.31-.15.26-.32.18-.31.14-.38.24-1,.2-.41.3-.3.44-.12h.82l.14.08.09.11h.1l.19-.09.25-.35.16-.48.06-.51v-.48l-.06-.39-.1-.3v-.3l.17-.39.28-.33.52-.45.57-.66.15-.29.09-.34.17-1.29.07-.11v-.12l.28-.66v-1.57l.15-.28.21-.31.12-.23-.07-.28-.32-.4-.08-.33.38-1.34V102l-.2-.67-.09-.65-.06-.21v-.22l.11-.23.15-.06h.61l.16-.33v-.39l-.14-.94.09-.35.2-.34.17-.36v-.47l-.12-.26-.42-.52-.09-.29V95.3l-.34-1.1v-.55l.18-.2h.64l.28-.19v-.42l-.29-.69v-.36l.73-.1.28.1.1.26v.29l.11.2.38-.09.38.16.34.24.23.35.06.45v.42l.11.12.19-.08.08-.18-.09-.44v-.23l.11-.16.34-.21.14-.16v-.62l.14-.19.16-.08h.17l.33.15h.19l.3-.43.21-.15h.41l.28.09.2.24.19.46.14.18.11-.11.11-.34h.27l.35.11h.37l-.09-.36-.37-.68.14-.06h.19l.35.14h.23l.2-.13.48-.58.12-.1h.2l.07.1-.08.39-.15.35-.11.33v.42l.11.19.15.2.19.15h.17l.07-.15v-.66l.13-.19.19.13.31.32.23-.06.12-.08h.11l.25.07.35.2.24.31.12.36v.43l.16.54h.35l.71-.45.22.22.2.46.2.77v.17l-.07.15v.47l.12.22L580,96l.16.2.17.39V97l-.08,1.23.23,1.13v.21l-.07.18v.2l.05.27.14.21.61.58h0l.52.56.21.65.13.7.24.73.89,1.29.35.66.08.86-.21.69-.78,1.15-.17.61.22,2v.65h0l-.27.23-.14.15v.35l.06.21.08.14v.3l-.24.74V114l.1.79v.39l-.11.39-.15.12h-.18l-.15.06-.05.22.09.26.16.14.15.06.09.07v.22L582,117v.2h.35l.21.78.21,1.25v.66l-.23.76-.81,1.76-.08.14-.13.08h-.29l-.1.06-.08.29v.89L581,124l-.28.18-.08.1v.17l.16.2V125l-.2.37-.23.14-.11-.13-.18-.35-.2-.32-.24-.12-.17.14-.15.68-.19.2h-.29l-.25-.22-.23-.16-.24.13v.27l.08.3v.21l-.35.1h-.14l-.08-.08-.07-.06h-.15l-.1.13-.14.38-1.35,1.55-.69.08-.54-.2v-.46l-.17-.15-.22-.16-.23.38-.53,1.44-.09.16-.09.13-.07.18v.62l-.14.07h-.22l-.19.08-.08.21,0,.17-.12.2-.12.18-.09.08h-.38l-.27-.2-.22-.28-.26-.25v.88l-.12.23-.17.15h-.15l-.06-.17-.08-.49-.19-.25-.27-.09h-.75l-.3.09-.07.21.32.49v.27l-.38.24-1.2.36h-.18l-.19-.09-.07-.11-.18-.38-.06-.09h-.36l-.16.14-.13.19-.07.21-.1.39-.2.39-.26.25h-.21l-.09-.39-.06-.09h-.13l-.13.14-.06.23v.44l-.06.09-.18.11H564l-.77.27h-.12l-.13-.15h-.08v-.11l.07-.12v-.09l-.11-.23-.23.07-.26.2-.16.19-.11.43-.06.54-.15.46-.38.18h-.45l-.16.07v.79l-.09.93-.1.47-.11.22-.37.15-1,.87-.44.07-.35-.11-.3-.17-.36-.08-.32.14.19.34.57.54.26.45-.07.21h-.29l-.41-.24-.19.09h-.4l-.17.07v.13l-.13.6-.38-.1-.41-.39-.3-.09-.37.15-.26.35-.23.35-.66.55-.18.07h-.19l-.4-.15h-.22l-.29.29-.07.39-.08.35-.4.15h-.31L552,143v.77l-.12.2-.84,1-.1.17-.44.14h-.2l-.13-.07-.07-.14L550,145l-.24.1-.07.11-.19.49-.09.08-.24.19-.11.09-.08.18v.16l-.07.12h-.2l-.23-.08v-.35l-.06-.13-.43-.1-.21.27-.12.31h0l-.15.19-.18.12-.78.76-1.18.41-.45.35.11.56.22.16.74.35.24.07.27.1.17.26.26.52-.26,1-.12.3-.18.26-.21.16-.18-.07-.06-.43-.29-.39-.69-.18-.75-.09-.56-.15-.83.37-.33.31.09.44.07.18v1.14l-.08.09-.16.13-.15,0-.6.07-.51.27-.6.16-.17.29v1.61l-.35.5-1.15.83-1.5,2.06-.62.42-.87.17-.38.18-.16.32-.12,1.85-.4.74-1.26.77-.36.83v.86l-.07.44-.22.39-.31.17-1.27.34-.65.35-.66.47-.61.62-.48.75-.14.27-.1.31v.31l.12.3-.19.42-.3.9-.21.35-.32.31-.23.16-.65.34-.17.12-.14.13-.1.17-.1.18v.66l-.3.18-.14.23-.1.25v.22l-.07.18-1.44,1.3-.13.3-.15.19-.72.59-.27.32-.25.73-.54.59-.09.23-.14.22-1.35,1.48-.34.3-.38.13h-.81l-.78.13-.8.31-.53.48-.31.71-.19,2.52-.11.34L514.82,187l-1.75,2.27-.78.55-.38.15-.79.13h-.41l-.16.21.09.47.26.93-.14.85-.4.68-3.62,3.37-.51.65L506,198l.08.84.41.84.27.42.41.9.16.48.17.77.13.57v.39l.06.54v1.13l-.1.51-.1.34-.23.08-.43-.06L506,206l-.35.23-.14.39.11.24.78,1.16.15,1-.34.74-.46.73-.24,1,.12,1V213l-.17.25-.4.83-.13.13-.31.24-.12.15-.17.45-.09,1-.19.42-.29.25-.69.42-.34.3-.24.67.45.57.22.16.48.37.48.62.14,1-.17,1L502.84,225l-.19.32-.45.17-.87.18-.41.17-.29.23-.5.58-.13.45.23.43.58.67.18.69.07.93-.06,1-.19.84-.41.68-.1.45.21.46,1.26,1.69.19.64-.09.67L500.7,238l-.46,1-.19.23h0l-.35,1-.06,1,.21,2.69.34,1.51.25,2.24.18.44.49.81.1.34-.06.4-.28.85-.06.48.19,1,.05.55-.17.24-.69.6-.22.08-.44.07h-.24l-2.61-.44-.66.29-.09.12-.11.2v.19l.36.16v.16l-.07.23-.05.23-.05.47-.19,1v.43l.3.94.09.5-.19.21-.33.18-.37.42-.51.76-.34.8-.28,1-.19,1-.06.89.12,1-.05.22-.18.44-.15,1.63v.49l.15.89.31.71,1,1.43.16.38.1.43.07,1,.22,1.23v.21l-.08.26v.2l.21.09H496l.45.22.14.11.14.33.07.45v1l-.11.7v.39l.18.39v.24l-.62.68-.08.16-.1.31L496,279l-.28.32-.36.27-.36.09-.34-.15h-.82l-.12.1-.07.15-.1.14-.22.06,1.07.61.33.28.51.43.22.41-.34.71-.22.21-.21.24-.27.39v.29l.14.31.48.45.06.19V285l.42.27.34.19.38.29.63.38.27.31.34.48.24.53.32.57,1.45,1,.85.76.65.34.67.07.46.09.55.34.61.13.57.19.64.82.49.21,1-.11h.21l.36.41.83.54.87.83,1.34.54,1.53,1.2,1.5.57.64.7.75.58,1.79,1.77.66.88.81.9.4.42.87,1.37.72,1.38.53,1,.1.55-.31,1-.66.85-.8,1-1.84,2.85-.53.69-.24.82-.11.58-.18.93L515,315l.19.83.18.88v.85l.08.25.34.29.07.23h0l.48,1.26.06.48.08.2.33.17.35.36.06.09.12.52.26.44,2.58,2.52,1.89,1.16.83.17.42.22.17.28-.32.33.13.16.34-.34L524,326l.79-.33.43-.07,1.21.07-.2-.5v-.34l.25-.08.41.31.1.27.24.92.1.19.35.41v2.82l.45,1.24.06.55.08,3.06.06,2.6-.08,1-.33.75L526,341.38l-1.81,2.8-2.41,4.22-.68,1.46-2,2.81-.65.71-2,1.78-.72,1.21-.23.2-.3.16-1.49,1.84-.55.85-.45.91-.32.94-.16,1-.08,1v.14l.17.27V364l-.1.22v.09l.06.68-.06.25-.42.85-.64.73L509.45,368l-1.85,1-1.31,1-2.89,1.7-.63.1-.24.13-1,.8-.7.38-2.21.89-.69.4-.33.15-1.64.26-1.36.47-1.36.78-3,.69-3.9,1.32-1,.69-.56.13-.65.27-5.25,1-5.25,1-3,1.26-.42.05-1.29-.05L460.5,384l-2.93.48-2.87.36-3.81.75h-2.08l-.46-.12h-.46l-.17.1-.25.2-1.71.42-3.58-.45h-1.67l-1.2.38-.17.16-.28.12L436,386l-.24-.22-.35-.09-.18-.22-.11-.07H435l-.13.07-.1.07h-.1l-.76.16H433l-3.46-1-.7-.33-.54-.49-.36-.67-.31-.82-.24-.43-.26-.18-3-.23-.3-.16-.43-.15-.4.27-.18.36.17.22-.11.49.34.86-.11.4.25-.23h.25l.2.15.08.31-.05.86.05.16.2.14h.27l.59-.13v.13l-.13.28-.1.36.05.33-.45.24-.19.21-.24.83-.2.48-.12.2-.12.18v.16l.1.17.15.19.09.19v.43l-.1.35v.37l.14.41.33.38.82.63.36.41H425l-.22-.07-.48-.24-.27.3.17.24.41.17.44.08,1.44.06.45.11,1.46.71.77.56.43.61v.27l-.07.28-.14.25-.18.17-.24.11-.14-.06-.12-.12-.13-.09-.37-.19-1.06-.92-.35-.48-.06-.12-.1-.26-.09-.09-.14-.08h-.24l-.34-.08-1,.08v.21l.06.22.1.21.17.15h.65l.11.22.15.47.35.48.76.7.35.19.9.23h.46l.11.11.06.23v.29l-.09.25-.22.21-.1.2-.05,1.62-.12.26-.09.27L428,402.9V405l-.1.39h-.11l-.65.39-.06.1-1.39-.24-.41-.23-.8-.63-.06.24.07.24.38.48-.45.2-.12.19V407l-.08.41-.25.82-.13.79-.35,1-.15.19-.07.23.51,1.36v.49l-.27,1-.08.37-.16.46-.39.24-.47.17-.37.17-.3.31-.34.42L421,416l-.1.47.08.32.55,1,.28,1.37.16.22v.11l.31.53.19.14.57.19.63.4.2.07.07.13v.54l.07.14.27.2.2.38.24.2.37-.3.25,1.05v.61L425,424l-.88-.17-.09-.09-.27-.42-.21-.12v.4l.07.15.12.16.11.25v.19l-.1.12h-.06l.18.35.13.08,1.44-.83.57-.21h.58l-.21.27-.66.49-.14.29v.34l-.17.72v.39l-.09.31-.54,1.05-.5,1.26-.5.64L421,431l-2.23,1.33-1.25.5-.31.21-.34.33-.36.16-.4.08h-.48l-.44-.08-.18.06-.21.25-.48.41-.28.31-1.33.33L410.53,436l-.85.18-4-.17-.81.25-.43.06-1.76-.16-2.63.16h-2.9l-.82-.19-.79-.4L393.69,434l-.82-.37h-.76l-.19-.11-.05-.23.08-.24.16-.34-.18-.17-.43.11-.5.2-.39.11-.75-.19-4.47-2.31-2.5-.64-1.7-.86-1.67-.38-.88-.07-1.3.14-.59-.06-.47-.16v-.35l.32-.24.48-.15.33.07-.07.4h.12l.14-.06.11-.06h1.44l.19-.16-.17-.48-.54-.21-.32-.21.53-.51-.45-.31-1.74-.41-1,.12-.65.29-.17.14.33.05.61-.17.32.12-.25.36.08.2.22.16.21.23-1.89-.07-.32.15-.24.25-1.48,1.15-.18.2-.07.22v.52l-.07.22-.27.43-.2.5-.15.54-.08.54v1l.54,4,.73,2.78v.73l.46,1.33.12.73.22.72,1,1.05.28.73v.68l-.16.79-.23.71-.26.49-.15.65.18.84.53,1.34v.85l-.33,1-.77,1.69-.28,1,.09.83.28.59.92,1.94.59.81.68.63,1.44.94h.86l.15.08.31.26.44.23.46.17.37.09h.94l.41.1.37.3.39.26.43-.06.45-.17.43-.1h.52l.24.07.18.14.26.33v.16l-.5.22-.37.35-1.4,1.95-.13.24-.15.73.13.2.54.12,1.48-.11.76.37h.63l.63-.1.41-.14.42-.21.29-.1,3.46.23.46-.11.18-.39.09-.05.53-.5.12-.23v-.71l-.1-.12V464h.09l.09-.08v-.42L392,463v-.22l-.16-.29-.38-.17-.83-.09-2,.08-1-.11-.8-.47.61-.32,2.66-.35,2.27-1.23,1.49-1,1.61-.7,1.12-.32.77.18.67.64.41.7.57,1.42.08.43.11.38.29.32.61.51.4.86.14,1-.13,2.39.33,3.59-.22,1-.47,1-.29.95.24.87-1,1.21-1.2.54-3.79.84H393l-.39.05-.81.39-.7.12-.57-.39-.43-.48-.62-.92-.34-.39-.37-.16-.31-.24v-.54l.15-.57.1-.28.34-1.44.23-.19.2-.09-.13-.21L389,471l-.09-.05-.28-.12-.08-.1-.09-.14-.08-.07-.67-.35-.24-.27-.09-.45-.18-.31-.45-.28-.77-.32-.92-.24h-1.92l-1.34.22-.46.15-.43.21-.47.39-.64.14-.22.12-.14.12-.8,1.08-.33.31-.36.13-.92.1-.91.24-.43.31-.22.36-.17.41L375,473l-.58.6-.13.35.14.58.27.33.74.19.6.44,1.18.36,2.26,1.07.62.42.72.63.37.24.58.14.43.22.2.06h.28l.48-.14h.65l.15.07.28.31.34.19.15.15.37.21h.47l1.46-.58h.24V479l.23.62-.07.31-.41.38-2.19,1.41-2.18.84-3.68,1-3.3,2.19-.58.73-.36.32-.37.26-.36,0-.2.53V488l.12.42.07.51-.12.42-.29.27-.36.2-1.5,1.49-.69,1.24-.32.41-1,.84-.22.14-.71,1.23-.06.24-.25.35-.06.23v1.38l.1.38.39.8-.11.31-.1.49v.46l.15.2.25.19.15.41.1.47.14.34.08.33-.09.93.07.31.26.08.34-.09.2.28-.43.31.17.54v.4l.36.23h.66l-.45.35-.38.41-.12.41v.7l.24.13.11.45-.29.13-.58.11-.38.18-.29.28-.19.81v1l.24.35.12.17.16.08.15.16-.07.26.06.2.06.26.24.13-.08.19v.2l.21.27h.32l.15.11v.43l.07.24-.21.1-.11.21v.19h-.44l-.12.16-.08.26h-.16l-.12.14.12.11V514h-.17v.06l.12.06-.06.08H369l-.14-.12h-.1v.13l.1.14-.06.12-.13,0-.08.11-.14.06-.05.17.08.08h.21l.07.12-.05.14-.09.15,0,.14.15.14H369l.25.08v.13l-.1.12v.13l.14.08v.1l-.21.06-.24-.06-.1.07-.07.12v.16l-.1.06-.06-.15.05-.24-.09-.2h-.22l-.2,0-.07.14h-.1l-.15.06v.13l.09.2.15.11v.16l-.15.06h-.2l-.14.1-.1.16.05.22.19.14h.16l.12.14h.16v.14l-.19.15h-.09v-.23h-.13l-.1.11-.06.15-.07.17-.1-.12-.14-.08-.05-.23-.11-.07h-.14l-.09-.1-.16.08-.22.07h-.22l-.07.15v.2l.09.25h-.28l-.07.12h-.37l-.79.36-.66.69-.37-.12-.83.6-.32.37-.19.35-.15.18-.19,0-.19.55.05.68v.36l-.08.35-.08.22-.24.08-.18.12v.51l.15.12-.1.08-.08.22.24.54.33.1H362l.07.09h.14l.09.12.09.16h.3l.27-.13.3.09.35.27.47-.08.37.36.32.12.26.39-.23.06-.25.27-.23.12-.09.16-.16.12-.24-.09-.17.19-.19.17.1.28.23.23.08.33-.32-.07-.2-.14-.19.21.09.14.28.35-.76.48-.39-.11H362l-.1.44-.81-.66-.32-.29-.63.09h-.31l-.27.31-.25-.13.05-.44-.25-.33h-.56l-.33.11v.44l0,.33h-.38l-.51.25-.52-.18-.39-.47-.57-.47h-.52l-1.21-.38-1.07.19-.6-.08-.38.55-.7.56-.41.46-.35-.24-.28-.08h-.64l-.31.1-.11.19-.39-.06-.19.27-1.17.32-.53.27-.51.52v.55l.91.25.39.18-.34.47-1.82-.67h-.3v.66l.83.18.38.46v.56h-2.68l-2.14.35-1.53.16-1.11.51-.59.49-.89.66-1,1.13-.59,1-.7.82-.6.88-.63,1-.41.66-.86.78-.44.72-.25.28-.46.3-.22.48-.22.64v1.14l.36.32-.08.25-.13.12h-.32v.35l-.1.31v.16l.13.19-.06.24-.24.19-.37-.08-.56.42-.27.24-.25.17-.33.92-.57.39-.19.47-.39.46-.21.42.26.62-.44.23-.39.62-.06.17-.58,1.77-.14.68-.07.74v.84l.89,3.89.61,2,.42.9,1.76,3.19,1.07,1,.53.47.89.27.59.19.18.2.26.47.7.5.77.15.41.24.28.73.6.53.65.94.26.59.19.06h.25l.17.08.17.35.16.08.18.15,1.65,1.75L341,576.7l.71.62,1.61.78.7-.05.59.37.76-.25.38.17h.37l.38-.11h.39l.3.11.6.33.29.07,1-.1.31.1.2.13,1,.18,1.9.39,2.12-.18,1.05-.37.47-.1.44.07,1.11.69.71.06.42.42.2.66.43.34.34.36.16.15,1,.76-.2.47.33,1.34.25.81.2.8-.25,1.67-.16,2.52-.48,1.47L360.1,593l-1,2.74-.37.18h-.54l-.51-.11-.93-.13h-1.1l-.54.47-.64.73-.48.31-.47.17-1.15.56-1.18.76-.41.11-1.42-.07-.29.07.88.28.74-.06,1.42-.74.45-.13,1-.24,1.75-.91.5-.53.89-.15.82.07.52.07.32.33.31,1.3.25,1.11.5.48.67.14.53.19-.48.34-.14.26.38.2.24.12-.46.12-.48.18-.44.06-.2-.47-1-.3-.52.23-.34.53-.11.46.4.25-.13.62-.06.14-.11.13v.3l-.37.23.08.24.49.36.64.18.11.4-.37.49-.52.11-.14-.34-.35-.14-.33.21h-.47l-.85.09-.52.17-.36.17-.42.32-.16.61-.22.36-.13.27-.77.34-.68.26-.49.84-.66.23-.3.31-.37.56-.34.88.26.8-.21.08-.62-.12H348l-.06.12-.33.25.12.35-.09.55-.61.34-.81.25h-.58l-1.37.18-.79.6-1,.51-.44.49-.66.46-.54.68-.36.22-.05.54-.11.51-.43.15-.47.21-1.32.19-1.05.82-1.3.75-.42.48-.16,1.27-.72.72-.15.62-.09.57-.92.7-1.37.54-1.55.94-2.78,2.83-.34.82-.28.93-.11.57-.35.28-.32.31-.05.65.37.13.1.43-.27.18-.14.15-.34.13-.1.2-.07.26-.15.26-.13.63-.51.47-.55.19.18.24.22.24.12.26-.14.3-.27.06-.25.25-.33.18.23.19v.34l-.53.48-1,.13v.16l.34.15h1.64l.5-.48.28-.91v-.67l.29-.36.1-.73.33-.39.17-.12.26.09.27.37v.48l-.07,1L325.7,637l-.06.45-.37,1.71-.44,1.86-.11.7v1.13l-.13.6-.09,1,.1.39-.35,2.45-.58,1.73-.15.56-.28.56-.12.33-.11.12-.63,1.15-1.13,1.08-1.62,1.2-1.73,1.13-1.73.68-1.63.27-1.28-.1H313l-.19-.19-.45-.69-.42-.21-.41-.62-.27-.5-.16-.67-.32-.65-.45-.54-.64-.48-.37-.64-.14-.56-.37-.91-.47-.62-.85-1.53-.24-.43-.35-.31-.42-.26L306,646h-.36l1.15.71.24.31.11.38.5.9.65,1,.33,1.15v.63l-.29.25-.62.41-.43.13-.45.26h-.5l-.77-.16-1.12.11-1.31-.15-.71.47-.61.27h-.53l-.7.4v.19h.83l1-.07.6-.48.48-.23.25-.07H304l.52.08.59-.07,1,.19.86.13.59-.27.7-.29.33-.06.29.1.15.15.14.51.36.21.24.19v.62l.11.54.33.5.5.51.4.26h.48l.3.14.21.31.52.13.24.36-.23.54-.61.22-.42.36-.37.23L308,659.41l-2.26,1-.57-.07-.44.39-.06.35-.57.18h-.27l-.3-.09-.37.21-.09.57-.34.24-.86,1.09-.53.63-.26.6-.38.66-.63,1-.29.67-.3.49-.07,1.14-.79,2-.37,1-.14.59.05.43.28.65.1,1.63v.82l-.15.66-.42.31-.86.51-1,1-1.62,1.15-.77.77-.39.93.56-.5,1.06-.85.66-.43,1.11-.6.56-.31.53-.06.18.47v.5l.23,1.08.41,2,.27,1.29.08.8.31.52.16,1.11.3,1.14,1.82,4.69.14.57v.54l-.15.44-.35.31-.33-.07-.37-.16H300l-.39.24-.61.71-.33.14h-.52l-.45-.09-2.07-1-1.4-.11h-.32l-.21.07-.53.29-1,.13-.48.12-.84.67-.9.28-.42.23,4-.86.85-.11.89.14,1.91.71.81.38-.14.44-1,.74v.17h.37l.34-.13,1.51-.75.8-.61.48-.41.51-.07.51.23.69.66,1.17,3,.85,1.18,1.36,2.92,1.26,2.37,3,4.18,2.29,3,.59.82.2.5-.14.36-.51.5-.31.35-.2.39-.31.13-.14-.31.11-.33-.23-.53v-1l-.13-.29-.43-.12-1.45-.29-.3-.1-.56-.32-.34-.12-3.66-.54-.71-.26-2.75-1.43-3.78-1.09-5-.15-3.3-1.25-3.13-1.2-2.19-.83h-1.51l-4.15,0h-4.17l-4.15-.06-4.15,0H261l-4.15-.06H252.7l-4.15-.06h-1.48l-.87-.51.09-1.12.21-.85-.19-.73-.41-.6-.53-.46-1.15-1.29-1.29-1-.82-.48-1.74-.51-.37-.26-.24-.53-.16-1.45-.15-.43-.38-.42-.45-.11h-.47l-.51-.09-.39-.61.52-.79,1.31-1.21,0-.21v-.72l.06-.26.13-.2.12-.18.1-.19.1-.47v-2l.12-.38.8-1,.21-.37V685l-.3-.35-1.41-.86-.6-.61-.38-.9v-.52l.16-.35.51-.68.32-.51.23-.25.3-.11.53-.1.3-.56.2-1.22.18-2.22-.12-1-.38-.66-.51-.56-.49-.74-.18-.45V672l.13-.37.66-1.3v-.41l-.34-.2-.44-.11-.69-.43-2.26-.5-.8.37-1.27,1.33h-.82l-.37-.22L232,669l-.4-.21-.42.08-2.3,1.23-.65.49-1.33,1.32-.77.55-.81.33h-.8l-.71-.54-.17-.85v-1l-.13-1-.19-.38-.78-1-.23-.41-.08-.44v-1.48L222,664.4v-.52l.05-1v-.52l-.18-.81-.31-.86-.41-.81-.43-.63-.34-.31-.76-.38-2.29-2-.21-.7.18-.78.95-1.55v-.35l-.17-.46-.24-.32-1-.81-.34-.39.09-.31.27-.31.21-.35.08-.44v-.39l.07-.37,1-.91.36-.64-.05-.7,5-2,1.16-1.57,1.36-1.69v-2l-.49-1.36-.63-.77.17-2.09.19-1v-.14l-1.2-.22-.14-.19-.24-.29v-.64l.24-.63,1.18-1.39.19-.35v-1l.25-.57,1.12-1.53.15-.21.74-.66.88-.31,1.79-.18.81-.27.7-.52,1.31-1.29,1-1.09.48-.73.19-.77.08-1-.12-2.68-.4-1.39-.1-1.23.69-1.45.72-.53.77-.42,1.16-.36.31-.23.51-.69.22-.35.1-.09.24-.1h.25l.55.16.24-.07.13-.36-.16-.43-.25-.43-.15-.34v-.43l.24-.94v-.5l-.44-3-.18-.51-.63-.21-.2-.1-.14-.18V603l-.07-.23-.31-.37-.32-.13-.36-.08-.4-.19-.58-.52-.48-.68-.16-.78.37-.81.44-.74.48-1.76.31-.84,1.74-2.85.21-.42.14-.41.07-.43.05-.48.33-1.35v-.34l-.3-.25-.39-.11-.21-.23.16-.59.27-.37.34-.24.74-.28h.47l1,.16.41-.08.31-.24.46-.65,1.61-1.73.37-.62.16-.43v-.26l-.12-.24-.11-.42v-.43l.07-.3.21-.15h.37l1.18.72.62.18.58-.31.33-.63v-.69l-.21-.66-.37-.53-.49-.36-1.17-.66-.4-.46.11-.48,1.2-.7.36-.39-.21-.37-.62-.54-.19-.33v-.37l.3-1.46.09-.18.13-.16.1-.18v-.2l-.09-.19-.11-.17-.08-.19v-.24l.29-.35.49-.12h.95l.4-.15.27-.23.49-.7.31-.31,1-.56.61-.63.12-.76-.28-1.79v-.45l.14-.37.1-.39-.09-.46-1.23-3.13-.18-.86v-1l.08-1.13-.08-.7-.36-.49-1.11-.7-.89-.82-.17-.09-.17-.06-.1-.1V556l.15-.13.27-.09,1.36-.16.44-.12.42-.23L250,555l.38-.73.23-.33,1.36-1.43.68-.72-.21-.89-.32-.7-.45-.53-.65-.38-.78-.27-.28-.23-.12-.42.08-.37.17-.34v-.38l-.26-.44-.48-.43-.17-.27-.07-.39v-.18l.3-.44.05-.23v-.16l-.07-.15V544l.06-.29.33-.6.1-.12.14-.12.11-.15.05-.16-.07-.18-.28-.27-.06-.09.29-.57.65-.39.77-.23.61-.09,1.43.09.66-.12.67-.5.21-.37v-.37l-.38-.71-.17-.5V538l1.86-.73.34-.19.27-.28.43-.65.31-.24.43-.58-.12-.78-.39-.81-.45-.62-.6-.55-1-.66L255,531l-.17-.29-.35-1.12-.73-1.46-.62-.68-.65-.06-.7.09-.74-.14-.31-.22-.48-.57-.27-.22-.42-.1h-.43l-.43.15-.39.2-.73.09-.73-.34-.75-.44-.74-.26-.8.06-.38-.12-.12-.38.1-.81V524l-.28-1.32.23-.54.53-.13.7.25.41.16,2.45.46.43-.06.34-.25.23-.28.25-.23.46-.07.41.08,1.24.5h.77l1.67-.71.79-.19.75.23,1.44,1,.79.24.71-.15.64-.44.46-.72.12-.93-.15-.85v-.39l.11-.47.39-.77.25-.37.21-.16h.39l.36-.07.29-.26.18-.51v-.46l-.15-.24-.23-.2-.23-.32-.13-.42-.05-.36-.12-.35-.28-.34-.43-.26-.46-.09h-.95l-2.79-.54h-3.79l-.94-.22h-.8l-.79.22h-.76l-.72-.62-.06-.44.3-.27.42-.18.27-.16.12-.46L249,511l-.23-.32-.14-.41.06-.44.41-.71v-.42l-.13-.42-.59-1-.27-.91.44-.32.72-.2.62-.53.31-.45,1.39-2.07.2-.48V502l-1-1.62-.24-.31-.16-.11-.34-.16-.11-.15-.05-.27.06-.19.1-.16,0-.23v-.52l-.14-.07-.24.16-.41.14-.34-.16-.06-.4.1-.44.19-.32.31-.22.77-.28.36-.19.3-.31.1-.31-.14-1.39-.06-.28-.18-.18-.78-.53-.11-.13-.12-.13-.08-.15-.12-.15-.2-.12h-.93l-.42-.08-.14-.35.06-.12.36-.49h0v-.51l-.2-.35-.32-.23-.36-.09h-.19l-.19.09-.21.05-.17-.09-.15-.23.08-.12.16-.11.1-.17-.08-.68v-.16l.12-.21.13-.11.14-.1.14-.16.06-.19v-.71l.1-.19.23-.07H248l.73-.33.36-.08.81.16.19-.27v-1.11l-.1-.37v-.25l.05-.21.16-.41,0-.21-.13-.42-.36-.27-1.69-.67-2.74-.31-.82-.35-.77-.65-.61-.86-.35-1,.11-.83.42-1.57.12-.82-.15-3.43-.09-.38L243,472v-.33l.17-.57v-.18l-.06-.22-.2-.34v-.19l.1-.85.38-.63.54-.46,1-.47v-.23l-.13-.27-.54-.86v-.24l.29-1.3-.16-.44-1-.88-.23-.6.18-.58.39-.53.48-.47.34-.55.14-.65.21-.61.55-.47h.6l.29.45.26.53.44.23.26-.11.17-.21.12-.25.18-.2.23-.11,1.3-.23.51-.24.45-.36.24-.49-.07-1.22-.07-.18-.34-.4-.13-.19-.21-.31v-.34l.09-.37v-.41l-.35-1.68-.38-.7-.46-.58-.33-.65v-.89l-.19-.77-1-1.48v-.7l.26-.31.62-.35.27-.25.19-.41-.07-.25-.2-.26-.24-.36-.14-.41v-.29l.14-.7.05-.46v-.34l-.08-.32-.15-.41-.22-.89v-.74l.44-1.56.09-.47-.05-.38-.23-.78v-.47l.15-.18.19-.13.1-.38.06-.85.15-.83v-.51L248,433v-.49l.31-1v-.45l-.16-.58-.21-.42-.73-1.06-.19-.52-.63-2.51.1-.27,1.41-1.44.37-.73.1-.85-.05-.21-.19-.26v-.4l.32-.61.69-2.09.14-.28.21-.07.78.22h.24l.19-.2.76-1.68.08-.38v-.47l-.08-.21-.13-.16-.22-.13H251l-.24.1-.1.09v.12l-.09.09-.23-.06-.14-.11-.37-.58-.59-.56-.25-.36-.15-.4v-.17l.16-.34v-.08l-.08-.23V413l.14-.71.07-.22v-.19l-.07-.17-.14-.22v-.15l.25-.31.63-.06.82.39.71.12.24-.89-.05-.24-.14-.49v-.25l0-.21.1-.12.14-.08.1-.13.68-1.49.16-.49-.09-.34-.24-.27-.65-.57-.19-.25-.08-.34-.05-.51-.09-.5-.34-1-.08-.49.1-.41.19-.42.09-.39-.4-.66-.06-.5.08-.51.16-.41.29-.35h.23l.67.73.17.18.26.2.32.06.45-.1h.39l.34.06h.31l.3-.31.15-.83-.86-.77.48-.73.27-.3.35-.62.21-.28.17-.35-.29-.73V395l.29-.36.4-.27.35-.31.15-.57.18-1.89-.19-3.12-.34-1.71v-.62l.26-1.47.3-.57.54-.52,1.68-.86.48-.41.24-.32.09-.16.15-.07,1.37-.23.31-.15,1.07-.81.55-.24h.71l.8.1.4-.08.29-.26.25-.54.12-.13.55-.27.1-.08v-.23l-.09-.15-.1-.14-.05-.18v-.41l.19-.35.46-.65.19-.35.07-.45-.27-.85-.58-.57-.68-.46-.62-.53-.43-.8-.79-3.66-.06-.69v-.7l.17-.77V367l-.11-.44-.13-.47v-.41l.25-.38v-.51l-.5-.66-.17-.38-.1-.49-.18-.47-.48-.87-.13-1-.71-1.35-1-3-.13-1v-.47l.12-.33.22-.25.28-.27.44-.28.1-.14v-.27l-.22-.4v-.25l.09-.44.29-.88.06-.44-.1-.53-.25-.41-.59-.76-.49-1.09-.17-.64v-.52l.16-.4.72-.89.22-.47V344l.16-.49.26-.29.67-.38-.71-.59-.22-.37-.17-1.09-.14-.24-.58-.35-.36-.34h.12l.36.08H261l.33-.23.14-.32-.08-.31-.53-.35v-.17l.1-.19v-.53l-.12-.24-.14-.14-.18-.06-.16-.11-.11-.23v-.2l.12-.2.12-.18.1-.17.46-1.23.09-.44v-.84l.06-.35.29-.26h.37l.35.26.33.16.29-.2V333l-.28-1.52v-.84l.13-1,.33-.82.29-.06.33-.09.38.13h.34l.33-.07.34-.23.21-.35.13-.85.15-.31.33-.1.4.09.74.34.15.11.11.12.13.08,1.64-.43.18-.26v-.51l-.09-.27-.29-.49-.05-.28.05-.19.3-.58v-.55l.09-.21.13-.14.17-.08.34-.09.26-.18.68-.87.09-.07.2-.11.09-.07,0-.15v-.41l.19-.43.12-.17.24-.09.43.08.85.47h.52l.36-.23.31-.35.07-.17.15-.28.23-.74.11-.21.32-.35.13-.29-.07-.35-.53-1.39V317l.14-.43.1-.12.15-.12.12-.14V316l-.12-.18-.41.05-.15-.09V315l1.17-1.19-.09-.72-.27-.48-.83-2.28V310l.19-.81v-.45l-.12-.9.18-.91-.15-.34-.27-.31-.26-.36-.45-1.5-.05-.34.22-.19.37-.09.22-.22-.21-.55-.66-.4-.83-.11-.73-.24-.35-.86.66-1.14,2.89-.95.33-1.55-.08-1.55v-.07l.36-1.59,1.41-3.45-.06-.27-.23-.18-.28-.33-.16-.39.14-.13.29-.07.38-.22.38-.68.17-1.7.28-.77.34-.38.76-.66.32-.44.41-1.09.27-.49.86-.72.16-.42v-.51l-.08-.65v-.67l.12-.49.18-.17.15-.15.93-.18h.4l.37.08.67.24.11-.08v-.27l1.29-.56.07-.23-.16-.53-.46-.86-.11-.29-.09-.38v-.2l.08-.19.08-.33.16-1.69v-1l-.18-.6-.34-.07-.3.11-.17-.08v-.61l.17-.86v-.39l-.33-1.73v-.47l.14-.25.63-.52.23-.24V267l-.5-.71-.17-.36v-.43l.38-1.26V264l-.06-.2v-.19l.06-.23.12-.1.36-.14.14-.08.06-.26.08-1,.06-.36.19-.34.48-.62.14-.35v-.43l-.34-.78-.15-1.2-.42-.53-.61-.35-.65-.25-.66.11-.79,1.13-.48.1-.58-1.33-.19-.3-.64-.52-.27-.32-.15-.38v-.45l.33-1.26-.06-.45-.18-.36v-.05l-.1-.31.15-.45.26-.21.6-.17.25-.18.16-.34.18-.93.14-.4.3-.61v-.27l-.25-.2-.42-.16-.32-.21-.61-.6-1-1.2-.29-.66-.46-2.37v-.9l.06-.19L279,242h.44l.17-.07-.37-.58v-.78l-.05-.47-.22-.45-.3-.24-.71-.42-.34-.67.05-1.62-.25-.35-.24-.32-.43-.17-.31-.07-.23-.18L276,235v-.18l.05-.4v-.2l-.06-.21h0l-.23-.46v-.47l.12-.35v-.2l-.08-.15-.3-.23-.08-.22v-.59l-.13-.19-.3-.34-.09-.18v-.26l.25-.24.39.06.79.31h.46l.17-.2.15-.81.18-.32.19-.25.1-.29v-.42l-.21-.35-.35-.42-.39-.35-.32-.19-.8-.12h-.69l-.63-.16-.65-.7-.22-.39-.15-.5-.09-.51v-.93l-.19-.37-.57-.66-1-2-.18-.53v-.4l.17-1,.07-.79v-.81l.07-.41.33-.68.05-.41-.09-.46-.14-.4v-.42l.42-.86.06-.38v-1.28l.1-.33,1-1.65.21-.16.37.18.14.47.08.48.23.27.28-.08.28-.27.22-.35.17-.63.17-.42.42-.69.35-.17.79.13.21-.06v-.27l-.23-.3-.53-.48-.3-.35-.19-.34-.08-.39.37-3,.26-.77.09-.16.33-.43.12-.27v-.21l0-.22V201l.07-.43.11-.35.35-.66.29-.76.33-1.65.38-.61.32-.21.29-.15.24-.23.12-.43-.09-.45-.45-.79V194l.49-.23,1.53.76.62.17.67-.19.54-.29.49-.42.48-.55.18-.37v-1.21l.08-.4.06-.19.09-.18.17-.17.36-.16.15-.14.26-.81-.27-.75-.57-.58-.7-.26-.72.1-.28-.07-.14-.36.09-.3.63-1,.25-.78.1-.8.13-2.9-.25-1.87h0l-.17-.28-.47-.41-.17-.42v-.49l.07-.65v-.63l-.43-2-.09-.26-.12-.23-.13-.2-.18-1.12-.14-.31-.16-.27-.13-.29v-.37l.07-1,.17-.43.4-.23.19-.08.18-.12.17-.15.1-.2v-.16l-.21-.28v-.13l.08-.13.1-.05h.09l.29-.27.49-.32.2-.19L284,168v-.15l.08-.12.3-.13.92-.18.41-.19.34-.45.12-.48v-.56l-.12-1.08-.07-.43v-.43l.07-.43.14-.41.18-.32.22-.28.11-.18v-.55l.53-1,.06-.39-.06-.48-.28-.9-.09-.47.05-.74.23-.7.35-.63.39-.57.14-.09h.15l.12-.1.07-.23v-2.25l.34-1.2v-.06l.85-.89,1-.82.79-1.08.17-.37.2-1.1.26-.23.37.18.38.27.28.08.16-.22.4-.86.42-.68.67-1.65.35-.34V144l-.05-.14v-.17l.17-.32.23-.22.29-.13,1.1-.31.48-.37.32-.58.72-3.22.17-.8.12-.27.17-.13.51-.25.1-.16-.08-.33-.14-.25L299,136v-.35l.11-.23.42-.4.17-.23.47-1,.18-.56,0-.53-.08-.27v-.29l.06-.27.14-.25.3-.24.65-.35.29-.26.21-.29.89-2.13.07-.34v-1.21l.16-.48.77-1.34.28-.32.24-.16.68-.18h.85l.66.43.61.52.71.31.46-.07.2-.28.11-.42.22-.47.32-.35.41-.3.43-.18H311l.4-.09.82-.38h.87v-.17l-.06-.52v-.26l.09-.4.3-.77.1-.39-.06-.61-.26-.58-3.51-5.1-.63-.84-.48-.82-.32-.89-.14-1.07V109l.11-.86.23-.73.54-.73,2.32-1.88.21-.75-.16-1.06-1.27-5.41-.23-1.72-.16-.55-.27-.48-.35-.39-.34-.52V92.78l-.18-.44.27-.32-.22-.44-.67-.86-.1-.38V90l.08-.78,1-3.06.69-2.26.37-.48.06-.1.36-.21h.29l.3.07h.39l.39-.08.37-.16.24-.28v-.42l-.41-.54-.58-.55-.43-.63.06-.78.06-.21v-.13l-.1-.14,0-.21-.08-.09-.2-.16-.08-.1v-.29h0l-.14-.29-.11-.18-.19-.08h-.38l-.14-.12-.44-.26-.18-.19-.08-.13L308.57,76v-.36l.12-.46.94-2,.21-.71v-.31l.08-.3.15-.21.25-.07.36.51.21.12.13-.39.13-.64.73-1.66.33-.19.32.07.32.11h.34l.24-.23.68-1.15.18-.59.09-.15.33-.24.61-.27.93-.4.93-.41.92-.4.92-.4,2.31-1.07,2.31-1.06L326,62l2.31-1.06.17-.07.36-.15.37-.15.17-.07.74-.29.92-.53.42-.62.39-1.36.62-2.1.61-2.1.07-.22,1.3-4.43,1.29-4.4L337,40l.32-1.11.1-.64ZM307.25,782.29l.21-.89v-1.49l.19.17.42.73.19.26.34.36.16.22.06.43-.35.19Zm.22-2.81V721.82l.6.39.18.23.35.85.15.24,1.2,1.57,1.2,1.89.33.38,1.26,1,.56.69.48.84.36,1,.67,2.84.07.4-.08.44-.2-.27-.22-.57-.5-1.91-.46-.24h-.36l-.46.21-.58.41-.54.45-.92,1-1.11.92-.63,1.24-.17.93.24,1,.77.8,1.06.78.75.07.84.24,1.28.29,2-.17,1.44.81.35.85.29.52-.11.93.06.22.24.51.19,1.24.15.54,1,1.75.17.33,3.51,3.4,1.27.86.4.42.08.4-.19.39h.48l.42-.1.54.35,1.34.62.16.31-.52.11-.18.48.07.64.22.4,5,3.94,2.89,1.88,2.09.88,1.23.7.33.48.66.35,2.59,1,1.2,1,.89,1.58,1.83,1.57.48.69.66.31.19.67.62.21.56.09.77.23,1.64.93L357,775l.25.07h.5l.26.07.63.49.2.06,1.4.08,1.29.34,4.44-.61.94.14h.49l1.3-.5,2.84.37.25.18-.16.39-.34.39-.33.16-.13.25-.56,1.45.08.15.11.27.07.16-.62.5-.14.2v.26l.1.31v.27l-.4.18-.58.48-.17.18-.48,1.69-.22.2-.27.15h-.23l-.4-.08L367,783v-.31l-.11-.33-.5-.27h-.63l-.41.28.15.54-.42.51-1.49-.13-.64.16-.15.23-.09.28-.12.26-.26.19-.38.06-.3-.06-.24-.22-.22-.35v-.75l-.06-.17-.09-.14-.24-.06h-.71l-.75.26-1.22-.43L358,783l-1.2-.26-.39.23.28.42.4.39-.33.47-.45.42-1.25.31-1,.32-1.46-.08-2.22.06-1,.29.06.46-.06.42-1,.24-.47.15h-1.66l-1.64-.54L344,786l-.38-.38-.31-.41-.31-.31-1.64-1-.51-.16-2.11-.22-1.58-.64-5.57-.35-3.84-.49-2.33.16-4.88-.48-2.68-.46-.85-.59-1.77-.15-1-.54-.56-.19-.23.26.06.62-.05.23-.25.26-3.55.27-.48-.1-.33-.26-.57-.75-.76-.73ZM395.14,778l.37.1.41-.31.38-.19.24.4-.39.27-.15.16-.15.23-.24.56-.14.2-.27.08h-.34l-.23.1-.94.69h-.2l-.24-.13.11-.26.33-.61.07-.16-.09-.4h-.21l-.28.17-.25.27-.25.23-.28.07h-.85l-.19.08-.1.11-.06.16V780l-.05.12-.45.2-1.72.27-.11.28-.26.14h-.29l-.2-.3v-.3l.11-.37.24-.62h-.33l-.14.06-.15.14-.26-.22h-.22l-.41.35-1,.57-.2.17-.33.39-.22.18-.29.13-.33.06h-.66l.06-.11V781l.05-.08.1-.1v-.2h-.21l-.19.06-.18.12-.16.19h.06l.17.16-.22.19-.88.37-.22.23-.26.52-.17.18-.31.08h-1l-.25-.07-.11-.24.12-.2.2-.22.18-.27-1.66-.94.09-.51.41-.32.44-.26.2-.31.25-.28.56.2.91.55h.39l1.1-.39.32-.3-1-.91-.17-.42.51-.18.14.14.46.59.21.23.64.17.21-.06.34-.25.15,0h.34l.16.13.07.34v.41l.05.17.13.07.21-.06v-1.67l.22-.41h.17l.25.25.32.17.33-.19.1.15h.28l.25.13.56-.15H389l.24.19.23.27.21.2h.22l.12-.26-.07-.27v-.23l.29-.1.14.07.25.27h.19l.15-.06.13-.17.15-.14h.2l.11.16.21.61.18.19.24-.06.53-.4,2-.5.62.2Zm36.54-388.7.07-.1.15.17.27.49.35,1.13v.35l-.16.33H432l-.41-.15-.25-.21L431,391l-1.16-.41-.43-.25-.32-.31-.77-1.07-.2-.45v-.35l.37-.06.68.33,1.84.41.37.6v.2h.09l.09-.13Zm-3.3-2.61-.26.27h-.37l-.19-.28.2-.43,1.47.08.69.21.56.43.08.31-.15.25-.29.14h-.34l-.36-.14ZM427.11,418l.48.08h.64l.5.51.32.65.39.64-.16.69-.55.63-.35.74-.42.49h-.51l-.46-.17.13-.72-.22-.4-.5.31h-.52l-.29-.3.33-.42.38-.66.1-.92.38-1.14Zm.66-5.66h.35l.55.14.54.23.48.68-.07,1v1.28l.1,1.28-.11.35-.19-.48-.2-.59-.43-.57-.85-1.24-.4-.89Z" style="fill:#efc441"/><polygon points="218.51 646.76 218 645.94 217.94 645.87 217.41 645.39 217.14 645.04 217.02 644.63 217.12 644.19 217.34 643.81 217.53 643.39 217.48 642.9 217.26 642.52 216.73 641.95 216.47 641.63 216.25 641.16 216.27 640.89 216.84 640.32 217.08 639.89 217.05 639.54 216.93 639.18 216.93 638.69 217.12 638.27 217.46 637.99 218.16 637.57 218.48 637.25 218.57 636.93 218.42 636.09 218.41 635.45 218.65 635.2 224.41 635.11 224.49 634.65 224.68 634.48 225.27 634.32 225.08 635.28 224.91 637.37 225.54 638.14 226.03 639.5 225.99 641.52 224.63 643.21 223.47 644.78 218.51 646.76" style="fill:#efc441"/><path d="M472.43,710.46l.32.2,0,.36-.26.35-.33.15-.15,0-.19.1-.17.15-.15.4h-.16l-.16-.19v-.41l0,0,0,0,.21-.19.16-.35.09-.43-.06-.47-.23-.34-.31-.16-.25-.21-.11-.45.09-.5.19.22.29.73.91-.1.4.1.28.33-.09.14-.08.17-.06.22Zm-27.66-10.29-.2.06-.56.31v.17l.18.09.19,0,.19,0,.2-.08-.43.64h-.64L443,701l-.54-.58.08-.08.09-.06.21-.06.16.08.39.09.3.27.09-.11.07-.33.06-.12,0-.18.07-.17.2-.07.17,0,.12.11.13.17Zm4.55,3.43-.53.15h-.38l-.87-.33.08-.25,0-.1h-.26l-.12-.16,0-.22-.07-.15-.19-.06-.39,0-.18-.08-.06-.06,0-.07-.05-.05h-.09l.14-.58-.13-.38-.29-.21-.34-.08.31-.35.26-.15.3,0h.86l.21-.45.36-.48.21-.21.27-.1.08,0h.21l.07,0,.15.08.05.1,0,.09,0,.06.37.16.16.21-.08.27-.35.27-.9.45-.34.45,0,.23.09,0,1.34-.4.57-.46.35-.18.3-.27.18-.6-.09-.22-.18-.08-.07-.11.2-.31.24-.18.2,0,.14.15.06.35,0,.23-.09.27-.1.24-.1.15-.11.24,0,.64,0,.29-.11.31-.41.77h.77l-.15.24-.13.48-.11.19-.26.16Zm-6-7h.4l.66.29.35.06-.31.17-.72-.05-.31.15-.14.27-.06.3v.79l-.24-.08-.22-.13-.19-.2-.1-.31.11-.53.14-.35.23-.22Zm30.21,1.61-.49.52-1.23,1-1.94,2.5-.38.68-.18.42-.19.33-.29.23-.81.19-1.17.78-.14-.77-.06-.12-.47-.05-.24-.08-.11-.12-.08-.29h-.17l-.21.15-.11.14,0,.27.22.53-.05.26-.37.19-1.59-.11-.43.22h-.21l-.12-.23.06-.16.33-.31.12-.22-1.22.45-.3.24-.19.47.1.41.22.44.11.59-.09.39-.22.33L460.15,709l-.22.15h-.41l-.57-.38-.4,0,.07,0,0,.13,0,.17,0,.1-.13.07-.13-.11-.12-.15-.31-.18-.34-.5-.11-.11-.22-.08-.35-.28h-.25l-.11.1,0,.19.05.18.49.21.29.37.21.47.11.46-.76.79-1,.53-1-.11-.64-1,.24,0,.17,0,.17,0,.2-.11-.35-.23-.46-.46-.4-.51-.19-.42.14-.08.25-.25.09-.27-.28-.12-1.87-.08-.22.08-.16.19.1.1.24.06.24,0,.38.15.42.41.35.47.18.43H452.4l-.31-.05-.15-.14-.09-.17-.83-1-.23-.18-.24,0h-.24l-.25-.06-.33-.29-.6-.74-.33-.23-.85-.17-.27-.3.11-.63.2-.26.46.08,1,.38.81.05.19.11.08.26v.29l.07.22.37,0-.27-.9,1.25-.15,1.16-.4V705l-.58-.3-.5-.08-.43-.2-.38-.66h1.59l.85.19.34.53h.12l.08-.18.08-.13.22-.24,0,.27.1.24.14.1.19-.14.19-.19h.17l.19.07.52.08.19.08.3.23.32.3H457l.16-.3-.25-.18v-.17h.47l.53-.09.49-.19.41-.27.47-.78.11-.12.05-.1-.1-.21-.21-.12-.26.14-.67.56-.88.29-.91,0-.76-.37,1.46.08.37-.17.14-.08.35-.14.08-.15.06-.22.14-.25.16-.2.16-.13-.18-.31,0-.21.09-.17.07-.2,0-.26-.09-.56,0-.37.19-.44L459,699l.5-.13.39.09-.15.22-.15.2-.33.3.56-.12h.24l.09.21-.05.24-.34.75.21.12.54.43,0-.42.14-.32.25-.18.34,0-.21-.39-.07-.3,0-.85.07-.25.17-.15.21-.07h.19l.13.13.12.41.12.21.12,0,.17-.14.15,0,.06.27.08.06.19-.1.55-.46.07-.47,0-.56,0-.39-.49-.14-.46.09-.44.16-.44.1-1.09-.15-.46.13.1.55-.14.3h-.14l-.15-.11-.2,0-.84.47-.25.08h-.82l-.27.09-.14.22-.1.23-.13.17h-.37l-.19-.39-.18-.46-.33-.23-.4-.14-.35-.41-.2-.52,0-.56.25-.44.31.05.34.25,1.84.51h.53l.44-.17.85-.6.43-.12,1.45.14,1.3-.47.38.06.77.69.44.19,1,.09-.26-.48-.44-.27-.52-.12-.48,0-.37-.16-1.08-1.09-.21-.1-.36-.13-.2-.14-.51-.7-.48-.05-2.7-1.1-.23-.19-.19-.54,0-.33.16-.13h1.09l.88.22.19-.14-.25-.52-.38-.35-.5-.25-.51-.15-.71-.08-.5,0-.26,0-.57-.29-.25,0-.19-.07-.2-.15-.14-.21,0-.19.06-.29-.09-.32-.28-.55h.4l.17-.07.18-.13.6.36,2,.73.64.35,1.89,1.41,1.5.68,1.66.21,3-.51-.44-.47-1.31-.1.18-.59.39-.46.43-.35.1-.35.12-.11.22.19.06.17.14.66,1.11-.84.61-.23.54.16v.18l-.1.08L469,689l0,.09-.06.1,1.74.29.54.25-.29.12-.31.05h-.66l.53.54h1l3.47-.71.33-.12.61-.52.38-.08v.18l-1.3.83-.48.22.84.43h.88l1.82-.62-.13-.24-.21-.23-.26-.16-.22-.07-.12-.15v-.76l-.05-.33.15,0,.32,0,.16,0,0-.12-.05-.29,0-.12h.26l.34,0,.29.15.12.24.13.17,1.87.68.51.31.28.38-.8-.05-.33.14-.15.4.06.39.24,0,.31-.08.27.05-.49.26-.86.86-.43.31-.12-.3-.19-.09-.23.07-.21.14v.18l.07.13,0,.17-.17.41.14-.06.38-.1v.16l-.58.73-.06.16-.07.73-.12.17-.24.11-.46.51-.25.11-.21-.11-.11-.22v-.29l.08-.27-.58.61-.32.23-.25-.12-1,.89.52,0-.08.29-.64.73Zm-4.92-11.45-.27.14-.11,0v.2l.25.3-.22.25-.41.15h-.38l-.37-.21-.31-.29-.27-.35-.19-.41.87-.24h.28l.29.07.72.36Zm-5,2.31-1.31.23-.28,0-.34-.13-.26-.25-.05-.35.26-.37.45-.22.88-.13.21.12.38.5.18.1h.28l.24,0,.22-.12.21-.17-.33-.29-1-.51-.7-.21-.87-.56-.26-.23-.3-.38v-.17l.19-.17.3,0,.16.17.12.26.12.23.38.29.48.14.51,0,.46,0,1-.22.47.12.19.54.08.11.14.28.05.28-.21.14-.71.71-.28.6-.1.1h-.19l-.53-.27Zm43.41,7.88.74-.23.35-.05.42.09v.19l-.52,0-1.87.81-.38.07-1.25,0-.25.08v.2l-.23.19-.25.09-2.8.3-1.43-.2-.73,0v.18l.22,0,.65.34.3.09,1,.07v.17l-.52.15-1.08-.07-.54.1-1.28.73h-.49l.39.17.38,0L499,700l1.23,0-.25.3-.46.3-.5.21-.79.21-1.4.78-.89.35-1.7-.25-.95.07-.67.19-2.93,0-.44-.15-.63-.52-.86-.29-.4-.32-.41-.19-.19-.19-.08-.23-.07-.27-.1-.22-.19-.11-.22.16-.21.36-.14.41-.05.25.09.33.25.32.31.24.86.24.74.34.68.47.36.5-.27.46.49.15,1-.26.54,0,.7.17.51.34,0,.54.5.35-1,.58-.3.32.21.19.14.23.09.31.15.89v.27l-.14.09-.32,0-.16-.13-.58-1-.2-.28-.22-.23-.26-.16-.34,0-.17-.07-.21-.23-.13-.05-.11.05-.05.11-.08.12-.2.07-.16,0-.27-.12-.14,0-.24.1,0,.2.1.24v.2l-.26.23-.56.33-.26.24-.3.19-.2-.31-.2-.88-.4.38-.2-.22-.14-.48-.13-.38-.41-.17-.4.08h-.32l-.14-.46-.34.15-.26-.07-.55-.46-.14-.2-.1-.1-.13,0-.22.1-.09.13-.05.15L482,705l-.27.12-.22,0-.24,0L481,705l-.16-.09-.13-.13-.14-.09-.21,0-.14.05L480,705l-.16,0-.19.16.11.3.27.17.56-.31,1,.22.26.17,0,.38v.38l.14.17.36-.06.24-.1.26,0,.34.19-.63.7.66,0,.33.06.28.17-.32.27-.7.26-.25.2-.14.48.26.17.43,0,1.06-.33h.35l.07.27-.2.21-.95.53.24.34.42.32.25.35-.27.43-.4.07-.46-.16-.79-.46-.48,0-.42.05-.38,0-.35-.36-.1-.23,0-.21-.07-.22-.18-.24-.22-.11-.22,0-.22-.11-.21-.28-.32.13-.74-.75-.36-.09-.07.16-.08.31-.1.52-.09.16-.21-.17-.32-.45-.41.26.17.47.62.72h-.07l-.13.16-.13.24-.05.23.09.19.23,0,.43,0,.46.24.29.3.12.39-.09.51-.11.1-.22.25-.1.26.23.12,0,.1.41.41.1,0L479,714l-.36-.15-.63-.67-.42-.23-.95-.16-.39-.31.08-.52-.24-.32-.37-.19-.84-.19-.32-.21v-.34l.44-.43-.32-.15-.63.19-.26-.13,0-.15v-.34l0-.12-.57-.59-.68-.46-.18-.16-.2-.25-.14-.29,0-.28.12-.1.17,0,.16.08.13.09.39.39.14.08.32,0,.24-.19.06-.31-.26-.38.77-.15.33-.2.18-.39-.33-.15-.37-.24-.3-.31-.15-.38,0-.23.11-.12.13,0,.19.22.18.11.27,0,.5,0-.29-.51-.15-.19-.2-.19.31-.13.66-.09.3-.13V704l-1-.25-.48-.29,0-.52.45-.24.6.2.63.31.48.09.38-.32-.26-.33-.5-.32-.25-.31.1-.29.24,0,.29,0,.26-.08.11-.21v-.23l-.13-.19-.23-.08.32-.19,1.39-.45.36.31.23-.27.24-1.19.29.25.3.06.66-.15-.32-.62-.06-.29,1.78-1.09.3.37.24-.16.23-.37.29-.19,1.42-.23.3,0,.1.22v.23l0,.24,0,.23.1.2.13.18.1.19.05.24-.05.24-.1.24-.08.22.1.38v.23l-.06.21-.05.18.3-.11.36-.08.31-.16.17-.37-.09-.37-.23-.46-.17-.47.07-.69-.25-.22-.2-.31.11-.54.16-.13.21,0,.19-.05.07-.23-.06-.26h-.33l-.39-.2-1.3-.44-.83-.64-.41-.62.33-.44.53-.54.18-.9.93,1.59.59.56.4-.71-.5-.61-.12-.59.27-.31.71.24-.49-.43-1.68-.68-.37-.23.07-.39.17-.43.26-.34.26-.18.11.06.37.24.15.07h.23l.61-.16.16-.11.09-.26.06-.25.06-.11,1.24,0,.44-.11.37-.22.16-.35-.11-.36-.52-.69-.2-.45-.16-.21-.21-.17-.13-.08-.09-.11-.23-.8.39.14.59.63.28.14.41,0,.87.3,1.54.83.43.07h.93l.22.08.19.14.2.1.27,0v-.16l-.07-.33.29-.28.43-.2,1.75-.15.32.15.31.21.75.23.33.27.83.89.13.36.06.53.08.36-.09.3-.43.31-.37.15-.46.1-.48.05-.35-.1-.17-.3-.32-.88-.26-.25-.31.07-.3.3-.52.68.62,0,.12.35-.23,1.16.24.18,1.16-.57.43,0,.09.28,0,.32-.08.35,0,.31,0,.46.06.16h.28l.08,0,.12-.24.12-.06.07.09.12.37.06.15.25.15h.29l.27-.15.14-.26.39.2.23.27.11.37,0,.51.1.35.26.44.32.39.26.17.32-.18-.15-.39-.48-.69.2-.32.39.08.8.42-.14-.61-.44-.27-.47-.16-.23-.31.13-.19.25-.16.17-.21-.09-.33-.24-.12-.57.24-.27,0-.19-.2V692l-.06-.27-.09-.14-.14-.17-.11,0-.05.25-.08.25-.19.14-.22.06h-.2l-.22-.09.09-.24.33-.38.84-1.54.23-.22.2-.09.49-.39.26-.08,3.86-.25,1-.29h.56l.49.13.2.14.2.27.32,1.08.11.15.2.15.57.85.19.18.25.14.51.13-.15.26-.36.19-.14.28h.48l.14.24-.15.3-.47.17-2.29-.28-1.54-.82-.39-.08-.17.2.23.64-1-.37L501,693l.33.49.62.4.68.27.52.12,1.06-.24.52.28,1.73.16.68.18.58.36.24.6-.34.33-.76.26-1.31.21v.19l1.11.37ZM471.44,686.2l-.79-.18-.16-.08-.13-.23,0-.23.09-.16.27,0,.41-.18.47.14.49.26.45.13,1.89-.17.16,0,0,.09,0,.13,0,.13.13.18.06.16.1.12.28,0,.13-.07.07-.16.06-.16.06-.11.18-.13.13-.06.19,0,.42.15.31.37.19.52.09.59-.45.1-.43.21-1.08,0-.43-.21-.61-.86-.48-.2Zm-.37,27.4.3-.46.47-.15h.63l.06.3-.44.12v.35l-.34.31-.21.35.4.24.72-.08.51-.23.21.34-.47.29-.36.34-.15.39-.51-.21-.41-.26-.28-.27-.48.07-.22-.34-.41-.27.57-.42.46-.1ZM496,704.83l.25.21v0l-.09,0,0,.19,0,.21h-.21l-.35-.13h-.17v.11l.12.26-.09.1h-.2l0,.07.2.11.2-.08.16-.15,0,.05-.09.24,0,.25,0,.25.17.3,0,.16-.05.11v.16l.13.2-.1.11-.38,0-.14-.15.13-.14v-.19h-.1l-.2.06-.29-.14-.27-.17-.43-.19,0-.14v-.22l-.09-.22-.22-.2-.17-.23.14-.18.23-.13.25-.14.27-.05.18-.11.17,0,.05,0-.13-.13.07-.08.27,0,.22.08.1.13.08.11h.1l.17,0,.1-.11,0-.19.07,0Zm-23.32-.76.11.14,0,.25-.16.19-.18.07-.1,0,0-.07,0-.09-.07-.07h-.09l-.12,0-.07-.1.11-.33,0-.2.07-.27.22-.2.19,0,0,.18-.07.21.1.21Zm-1.19-16.67.25.24.26.23.5.32,0-.52.41.05.09.42.42.21.69.08.07.31-.53.12-.7.31-.57.27-.53.07-.54-.31.06-.39.38-.28-.44-.11-.72.12-.57-.31L470,688l.49-.07.54,0,.15-.47ZM457,686.21l.24.24.08.31-.09.27-.11,0-.05-.15,0-.14-.05-.11-.23-.08-.36-.08-.37-.27-.19-.55.26-.22.5.36.27.29Zm-9.63-5.54.12.11v.14l-.14,0-.25-.07-.61-.26-.25,0-.17-.05v-.14l.15-.13.12-.11,0-.12-.12-.26v-.23l.25.07.24.22.27.32.08.15.07.17.05.08Zm34.19,48.19.11.09,0,.27-.05.14,0,0v.07l0,.15,0,0-.05,0,0,0-.12-.29,0-.48Zm2.4-12.77.45.19,0,.05-.7.18-.05,0-.32.11-.13.12-.29,0-.29-.15.06-.16.2-.11Zm-9.32-16.84.49-.42.08,0-.13.33v.62l-.16.11h-.62L474,700l-.18-.06-.1-.25,0-.19.17-.13.61-.07Zm-20.11-3.45.18.18v.12l-.08.13-.18.18-.2.07-.07-.07-.05-.1,0-.1.08-.19v-.86l-.08-.17-.07-.09-.07-.15,0-.13.12,0,.21.29,0,.14v.13l.08.46Zm-1.58-2,.22.11.17.17-.11.1-1.31-.23-.13-.18.15-.11Zm-2.6-9.71.75-.19.25.06-.29.17-.47.16-.64.11-.46,0,.19-.14Zm-.62-2.79.1-.41.56.64.38.21.25.07,0,.31-.31,0-.32-.22-.34-.35ZM445.1,680l.16.14.07.14-.07.08-.25,0-.29-.16-.21-.25-.37-.15-.13-.12h-.12l-.12,0,0-.16v-.2l.09-.08.21.08.42.33.11.12Z" style="fill:#efc441"/><polyline points="472.43 710.46 472.75 710.66 472.71 711.02 472.44 711.37 472.12 711.52 471.96 711.56 471.78 711.66 471.61 711.8 471.46 712.21 471.3 712.2 471.14 712.01 471.13 711.68 471.12 711.64 471.11 711.6 471.08 711.56 471.04 711.52 471.25 711.33 471.41 710.98 471.5 710.55 471.44 710.08 471.21 709.74 470.9 709.58 470.65 709.37 470.54 708.92 470.63 708.42 470.82 708.64 471.11 709.37 472.02 709.27 472.42 709.37 472.7 709.7 472.61 709.84 472.53 710.01 472.47 710.23 472.43 710.46" style="fill:#efc441"/><polyline points="444.77 700.17 444.57 700.23 444.01 700.54 444.01 700.71 444.19 700.8 444.38 700.83 444.57 700.79 444.77 700.71 444.34 701.35 443.7 701.35 443.03 700.95 442.49 700.37 442.57 700.29 442.66 700.23 442.87 700.17 443.03 700.25 443.42 700.34 443.72 700.61 443.81 700.5 443.88 700.17 443.94 700.04 443.98 699.87 444.05 699.7 444.25 699.63 444.42 699.67 444.54 699.78 444.67 699.95 444.77 700.17" style="fill:#efc441"/><polyline points="449.32 703.6 448.79 703.75 448.41 703.74 447.54 703.41 447.63 703.16 447.66 703.06 447.4 703.05 447.28 702.89 447.23 702.67 447.16 702.52 446.97 702.46 446.58 702.42 446.4 702.34 446.34 702.28 446.29 702.21 446.24 702.16 446.15 702.16 446.29 701.58 446.16 701.2 445.87 700.99 445.53 700.91 445.85 700.56 446.1 700.41 446.4 700.37 447.14 700.37 447.26 700.36 447.47 699.91 447.83 699.43 448.04 699.22 448.31 699.12 448.39 699.09 448.6 699.09 448.67 699.12 448.82 699.2 448.88 699.3 448.89 699.38 448.93 699.45 449.3 699.61 449.45 699.82 449.38 700.09 449.03 700.36 448.13 700.81 447.79 701.26 447.75 701.49 447.84 701.54 449.18 701.14 449.75 700.68 450.1 700.5 450.4 700.23 450.58 699.63 450.49 699.41 450.31 699.33 450.24 699.22 450.44 698.91 450.68 698.73 450.88 698.7 451.02 698.85 451.08 699.2 451.05 699.43 450.96 699.7 450.86 699.94 450.76 700.09 450.65 700.33 450.62 700.98 450.58 701.26 450.46 701.57 450.06 702.34 450.83 702.34 450.68 702.58 450.55 703.06 450.44 703.25 450.18 703.41 449.32 703.6" style="fill:#efc441"/><polyline points="443.36 696.58 443.76 696.58 444.42 696.87 444.77 696.93 444.46 697.1 443.74 697.05 443.43 697.2 443.3 697.47 443.23 697.77 443.24 698.56 443 698.48 442.78 698.35 442.59 698.15 442.49 697.84 442.6 697.31 442.74 696.96 442.97 696.75 443.36 696.58" style="fill:#efc441"/><polyline points="473.57 698.19 473.08 698.71 471.85 699.71 469.91 702.21 469.53 702.89 469.35 703.3 469.16 703.64 468.87 703.87 468.06 704.06 466.89 704.84 466.75 704.07 466.69 703.95 466.22 703.9 465.98 703.82 465.87 703.7 465.79 703.41 465.62 703.41 465.41 703.56 465.3 703.7 465.26 703.97 465.48 704.5 465.43 704.76 465.06 704.95 463.47 704.84 463.04 705.06 462.82 705.07 462.71 704.84 462.77 704.68 463.1 704.37 463.22 704.15 462 704.6 461.7 704.84 461.51 705.31 461.61 705.72 461.83 706.16 461.94 706.75 461.85 707.14 461.63 707.47 460.15 709.03 459.93 709.18 459.52 709.16 458.95 708.79 458.55 708.83 458.62 708.87 458.65 709 458.63 709.16 458.6 709.27 458.47 709.34 458.34 709.23 458.22 709.08 457.91 708.9 457.57 708.4 457.46 708.29 457.25 708.21 456.89 707.93 456.64 707.93 456.52 708.03 456.5 708.22 456.55 708.4 457.04 708.61 457.33 708.98 457.54 709.45 457.65 709.91 456.89 710.7 455.86 711.23 454.87 711.12 454.23 710.08 454.47 710.11 454.64 710.16 454.81 710.19 455.01 710.08 454.66 709.85 454.2 709.39 453.8 708.88 453.61 708.47 453.75 708.38 454 708.13 454.09 707.86 453.81 707.74 451.94 707.66 451.71 707.74 451.56 707.93 451.67 708.03 451.9 708.09 452.14 708.11 452.52 708.26 452.94 708.67 453.29 709.14 453.47 709.57 452.4 709.57 452.09 709.51 451.94 709.38 451.85 709.21 451.02 708.2 450.79 708.02 450.55 707.98 450.31 707.99 450.06 707.93 449.73 707.64 449.13 706.9 448.8 706.67 447.95 706.5 447.68 706.2 447.79 705.57 447.99 705.31 448.44 705.39 449.44 705.77 450.25 705.82 450.44 705.93 450.52 706.19 450.52 706.48 450.59 706.7 450.96 706.67 450.69 705.77 451.94 705.62 453.1 705.22 453.1 705.03 452.52 704.73 452.02 704.65 451.59 704.45 451.21 703.79 452.8 703.78 453.65 703.97 453.99 704.5 454.11 704.5 454.19 704.32 454.27 704.19 454.49 703.95 454.52 704.22 454.62 704.46 454.76 704.56 454.95 704.42 455.14 704.24 455.31 704.22 455.5 704.29 456.02 704.37 456.21 704.45 456.51 704.68 456.83 704.98 456.98 704.98 457.14 704.68 456.89 704.5 456.89 704.33 457.36 704.34 457.89 704.25 458.38 704.06 458.79 703.79 459.26 703.01 459.37 702.89 459.42 702.79 459.31 702.58 459.11 702.46 458.85 702.61 458.18 703.16 457.3 703.45 456.39 703.43 455.63 703.06 457.09 703.14 457.46 702.97 457.6 702.89 457.95 702.75 458.03 702.61 458.09 702.38 458.23 702.13 458.39 701.93 458.55 701.8 458.37 701.49 458.39 701.28 458.48 701.11 458.55 700.91 458.52 700.65 458.43 700.09 458.41 699.72 458.6 699.28 459.04 698.95 459.54 698.82 459.93 698.91 459.78 699.13 459.63 699.33 459.3 699.63 459.86 699.51 460.1 699.51 460.19 699.72 460.14 699.96 459.8 700.71 460.01 700.83 460.55 701.26 460.58 700.84 460.72 700.52 460.97 700.34 461.31 700.37 461.1 699.98 461.03 699.68 461.06 698.83 461.13 698.58 461.3 698.43 461.51 698.36 461.7 698.38 461.83 698.5 461.95 698.91 462.07 699.12 462.19 699.09 462.36 698.95 462.51 698.93 462.57 699.2 462.65 699.26 462.84 699.16 463.39 698.7 463.46 698.23 463.43 697.67 463.47 697.28 462.98 697.14 462.52 697.23 462.08 697.39 461.64 697.49 460.55 697.34 460.09 697.47 460.19 698.02 460.05 698.32 459.91 698.32 459.76 698.21 459.56 698.19 458.72 698.66 458.47 698.74 457.65 698.74 457.38 698.83 457.25 699.05 457.14 699.28 457 699.45 456.64 699.45 456.45 699.06 456.27 698.6 455.94 698.38 455.54 698.23 455.19 697.82 454.99 697.3 455.01 696.75 455.26 696.3 455.57 696.35 455.91 696.6 457.75 697.11 458.28 697.12 458.72 696.95 459.57 696.35 460 696.23 461.45 696.37 462.75 695.9 463.13 695.96 463.9 696.65 464.34 696.84 465.36 696.93 465.1 696.45 464.66 696.18 464.14 696.06 463.66 696.03 463.29 695.87 462.21 694.78 462 694.68 461.64 694.55 461.44 694.41 460.93 693.71 460.45 693.66 457.75 692.55 457.52 692.37 457.33 691.83 457.3 691.5 457.46 691.37 458.55 691.37 459.43 691.59 459.62 691.45 459.37 690.92 458.99 690.58 458.5 690.33 457.98 690.18 457.27 690.1 456.76 690.14 456.51 690.1 455.94 689.81 455.69 689.77 455.5 689.7 455.3 689.55 455.16 689.34 455.19 689.15 455.25 688.86 455.16 688.54 454.88 687.99 455.09 688 455.27 687.99 455.45 687.92 455.63 687.79 456.24 688.15 458.28 688.88 458.92 689.23 460.81 690.64 462.31 691.32 463.97 691.53 467 691.02 466.56 690.55 465.25 690.45 465.43 689.86 465.82 689.4 466.25 689.05 466.35 688.7 466.47 688.6 466.69 688.78 466.75 688.95 466.89 689.61 468 688.77 468.61 688.54 469.15 688.7 469.15 688.88 469.05 688.96 469 689.04 468.96 689.13 468.9 689.23 470.64 689.52 471.18 689.77 470.89 689.89 470.58 689.94 469.92 689.94 470.45 690.48 471.44 690.48 474.91 689.77 475.24 689.65 475.85 689.13 476.23 689.05 476.23 689.23 474.93 690.06 474.45 690.28 475.29 690.71 476.17 690.72 477.99 690.1 477.86 689.86 477.65 689.63 477.39 689.47 477.17 689.4 477.05 689.25 477.04 688.49 476.99 688.16 477.14 688.18 477.46 688.14 477.62 688.16 477.58 688.04 477.53 687.75 477.5 687.63 477.76 687.63 478.1 687.68 478.39 687.83 478.5 688.07 478.64 688.25 480.51 688.92 481.02 689.23 481.3 689.61 480.5 689.57 480.17 689.7 480.02 690.1 480.08 690.49 480.32 690.51 480.63 690.43 480.9 690.48 480.41 690.74 479.55 691.6 479.12 691.91 479 691.61 478.81 691.52 478.58 691.59 478.37 691.73 478.37 691.91 478.44 692.04 478.42 692.21 478.25 692.62 478.39 692.55 478.77 692.46 478.77 692.62 478.19 693.35 478.13 693.51 478.06 694.24 477.94 694.41 477.7 694.52 477.24 695.03 476.99 695.14 476.77 695.03 476.67 694.8 476.67 694.52 476.75 694.25 476.17 694.86 475.85 695.09 475.6 694.97 474.59 695.86 475.11 695.82 475.03 696.11 474.39 696.84 473.57 698.19" style="fill:#efc441"/><polyline points="468.64 686.74 468.38 686.88 468.27 686.9 468.27 687.1 468.52 687.4 468.3 687.65 467.89 687.8 467.51 687.79 467.14 687.59 466.83 687.29 466.56 686.94 466.37 686.53 467.24 686.29 467.52 686.29 467.81 686.36 468.53 686.72 468.64 686.74" style="fill:#efc441"/><polyline points="463.66 689.05 462.35 689.28 462.07 689.24 461.73 689.11 461.47 688.86 461.42 688.51 461.68 688.14 462.13 687.92 463.01 687.79 463.22 687.91 463.6 688.41 463.79 688.51 464.06 688.5 464.3 688.45 464.52 688.33 464.73 688.16 464.4 687.87 463.39 687.36 462.69 687.15 461.81 686.59 461.56 686.36 461.26 685.98 461.25 685.81 461.44 685.64 461.74 685.62 461.9 685.79 462.02 686.05 462.14 686.28 462.52 686.57 463 686.71 463.51 686.76 463.97 686.74 464.96 686.52 465.43 686.64 465.62 687.18 465.7 687.29 465.84 687.57 465.89 687.85 465.68 687.99 464.97 688.7 464.69 689.29 464.59 689.4 464.4 689.39 463.87 689.12 463.66 689.05" style="fill:#efc441"/><polyline points="507.07 696.93 507.81 696.7 508.16 696.65 508.58 696.75 508.58 696.93 508.06 696.97 506.19 697.78 505.81 697.85 504.56 697.88 504.31 697.96 504.3 698.16 504.07 698.35 503.82 698.44 501.01 698.74 499.59 698.54 498.86 698.56 498.86 698.74 499.08 698.78 499.73 699.12 500.03 699.21 501 699.28 501 699.45 500.49 699.6 499.4 699.53 498.86 699.63 497.58 700.36 497.09 700.37 497.48 700.54 497.86 700.52 499.01 700.02 500.25 700 499.99 700.3 499.52 700.6 499.03 700.81 498.24 701.01 496.84 701.8 495.95 702.15 494.25 701.9 493.3 701.97 492.63 702.16 489.7 702.12 489.26 701.97 488.63 701.45 487.77 701.16 487.37 700.84 486.96 700.65 486.77 700.46 486.69 700.23 486.62 699.96 486.52 699.74 486.33 699.63 486.11 699.79 485.9 700.15 485.76 700.56 485.71 700.81 485.8 701.14 486.06 701.46 486.36 701.7 487.22 701.95 487.96 702.28 488.64 702.75 489 703.25 488.73 703.71 489.22 703.86 490.26 703.6 490.8 703.63 491.5 703.8 492.01 704.14 492.03 704.68 492.53 705.03 491.57 705.61 491.27 705.93 491.48 706.12 491.62 706.35 491.71 706.66 491.86 707.55 491.85 707.82 491.71 707.91 491.39 707.93 491.23 707.8 490.65 706.84 490.45 706.55 490.23 706.32 489.97 706.16 489.63 706.12 489.46 706.05 489.25 705.82 489.12 705.77 489.01 705.82 488.96 705.93 488.88 706.05 488.68 706.12 488.52 706.08 488.25 705.96 488.11 705.93 487.87 706.03 487.88 706.23 487.99 706.47 487.99 706.67 487.73 706.9 487.17 707.23 486.91 707.47 486.61 707.66 486.41 707.35 486.21 706.47 485.81 706.85 485.61 706.63 485.47 706.15 485.33 705.77 484.93 705.6 484.53 705.68 484.21 705.68 484.07 705.22 483.73 705.37 483.47 705.3 482.92 704.84 482.79 704.64 482.68 704.54 482.55 704.5 482.33 704.6 482.24 704.73 482.19 704.88 482.04 705.03 481.77 705.15 481.55 705.18 481.31 705.14 481.04 705.03 480.88 704.93 480.75 704.81 480.61 704.72 480.4 704.68 480.26 704.73 480 704.98 479.83 705.03 479.64 705.19 479.75 705.49 480.02 705.66 480.58 705.35 481.54 705.57 481.8 705.74 481.84 706.12 481.84 706.5 481.98 706.67 482.34 706.61 482.58 706.51 482.83 706.48 483.18 706.67 482.55 707.37 483.21 707.33 483.54 707.39 483.82 707.56 483.5 707.83 482.8 708.09 482.55 708.29 482.41 708.77 482.67 708.94 483.1 708.9 484.16 708.57 484.51 708.56 484.58 708.83 484.38 709.04 483.43 709.57 483.67 709.91 484.08 710.23 484.34 710.58 484.07 711.01 483.67 711.08 483.21 710.92 482.42 710.46 481.94 710.42 481.52 710.47 481.14 710.45 480.79 710.08 480.69 709.85 480.65 709.64 480.58 709.42 480.4 709.18 480.18 709.07 479.96 709.03 479.74 708.92 479.53 708.64 479.21 708.77 478.47 708.02 478.11 707.93 478.04 708.09 477.96 708.4 477.86 708.92 477.77 709.08 477.56 708.91 477.24 708.47 476.83 708.72 477 709.19 477.62 709.91 477.55 709.91 477.42 710.07 477.29 710.31 477.24 710.54 477.33 710.73 477.56 710.78 477.99 710.82 478.45 711.07 478.75 711.36 478.86 711.75 478.77 712.26 478.66 712.36 478.44 712.61 478.34 712.87 478.57 712.99 478.61 713.09 479.02 713.5 479.12 713.53 478.99 713.99 478.62 713.84 477.99 713.17 477.57 712.94 476.62 712.77 476.23 712.47 476.31 711.95 476.07 711.63 475.7 711.44 474.86 711.25 474.54 711.04 474.53 710.7 474.97 710.27 474.65 710.12 474.02 710.31 473.76 710.17 473.72 710.03 473.73 709.69 473.69 709.57 473.13 708.98 472.44 708.52 472.27 708.36 472.07 708.11 471.93 707.82 471.96 707.53 472.09 707.44 472.26 707.47 472.42 707.55 472.55 707.64 472.94 708.03 473.08 708.11 473.4 708.09 473.64 707.9 473.69 707.59 473.44 707.21 474.21 707.06 474.54 706.86 474.72 706.47 474.39 706.32 474.02 706.08 473.72 705.77 473.57 705.39 473.59 705.16 473.69 705.04 473.83 705.08 474.02 705.3 474.2 705.41 474.46 705.43 474.97 705.39 474.68 704.88 474.53 704.69 474.33 704.5 474.64 704.37 475.3 704.27 475.6 704.15 475.6 703.95 474.57 703.7 474.09 703.41 474.07 702.89 474.52 702.64 475.12 702.85 475.75 703.16 476.23 703.25 476.61 702.93 476.35 702.61 475.85 702.28 475.6 701.97 475.7 701.67 475.94 701.66 476.23 701.7 476.49 701.62 476.6 701.41 476.59 701.18 476.46 700.99 476.23 700.91 476.55 700.72 477.94 700.27 478.3 700.58 478.53 700.32 478.77 699.12 479.06 699.37 479.36 699.43 480.02 699.28 479.7 698.66 479.64 698.38 481.42 697.28 481.72 697.65 481.96 697.49 482.19 697.12 482.48 696.93 483.9 696.7 484.2 696.75 484.3 696.96 484.31 697.19 484.29 697.43 484.31 697.66 484.41 697.86 484.54 698.04 484.64 698.23 484.69 698.47 484.64 698.71 484.54 698.95 484.46 699.17 484.56 699.55 484.56 699.78 484.5 699.99 484.45 700.17 484.75 700.06 485.11 699.98 485.42 699.82 485.59 699.45 485.5 699.08 485.27 698.62 485.1 698.15 485.17 697.46 484.92 697.24 484.72 696.93 484.83 696.39 484.99 696.26 485.2 696.23 485.39 696.18 485.46 695.95 485.4 695.69 485.25 695.68 485.07 695.69 484.68 695.49 483.38 695.05 482.55 694.41 482.14 693.79 482.47 693.35 483 692.81 483.18 691.91 484.11 693.5 484.7 694.06 485.1 693.35 484.6 692.74 484.48 692.15 484.75 691.84 485.46 692.08 484.97 691.65 483.29 690.97 482.92 690.74 482.99 690.35 483.16 689.91 483.42 689.58 483.68 689.4 483.8 689.46 484.16 689.7 484.31 689.77 484.54 689.77 485.15 689.61 485.31 689.5 485.4 689.24 485.46 688.99 485.52 688.88 486.76 688.84 487.2 688.73 487.57 688.51 487.73 688.16 487.62 687.8 487.1 687.11 486.9 686.65 486.74 686.45 486.53 686.28 486.4 686.2 486.31 686.09 486.08 685.29 486.47 685.43 487.06 686.06 487.34 686.2 487.75 686.25 488.62 686.55 490.16 687.38 490.59 687.45 491.52 687.45 491.74 687.53 491.93 687.66 492.13 687.77 492.4 687.79 492.4 687.63 492.33 687.3 492.62 687.02 493.05 686.82 494.8 686.67 495.12 686.82 495.44 687.03 496.18 687.26 496.51 687.53 497.34 688.42 497.47 688.78 497.53 689.31 497.61 689.67 497.52 689.97 497.09 690.28 496.72 690.43 496.26 690.53 495.78 690.58 495.44 690.48 495.26 690.18 494.94 689.29 494.68 689.05 494.37 689.12 494.07 689.42 493.55 690.1 494.17 690.12 494.29 690.47 494.06 691.63 494.3 691.81 495.46 691.24 495.89 691.28 495.98 691.56 495.94 691.88 495.86 692.23 495.83 692.54 495.85 693 495.92 693.16 496.19 693.16 496.27 693.12 496.39 692.88 496.51 692.83 496.58 692.91 496.7 693.28 496.76 693.43 497.01 693.58 497.3 693.57 497.57 693.42 497.71 693.16 498.1 693.36 498.33 693.63 498.44 694 498.48 694.51 498.58 694.86 498.84 695.3 499.16 695.69 499.42 695.86 499.74 695.68 499.59 695.29 499.11 694.6 499.31 694.28 499.7 694.36 500.5 694.78 500.36 694.17 499.92 693.9 499.45 693.74 499.22 693.43 499.35 693.24 499.6 693.08 499.76 692.87 499.68 692.54 499.44 692.42 498.87 692.66 498.6 692.62 498.41 692.42 498.4 692.22 498.41 692 498.35 691.73 498.26 691.59 498.12 691.42 498.01 691.38 497.96 691.63 497.88 691.88 497.69 692.02 497.47 692.08 497.27 692.08 497.05 691.99 497.14 691.75 497.47 691.37 498.31 689.83 498.54 689.61 498.74 689.52 499.24 689.13 499.49 689.05 503.35 688.8 504.36 688.51 504.92 688.51 505.41 688.63 505.61 688.78 505.81 689.05 506.13 690.13 506.24 690.28 506.44 690.43 507.01 691.28 507.2 691.46 507.45 691.6 507.96 691.73 507.81 691.99 507.45 692.18 507.31 692.46 507.8 692.45 507.93 692.69 507.78 692.99 507.31 693.16 505.02 692.88 503.48 692.06 503.09 691.98 502.92 692.18 503.15 692.83 502.16 692.45 501 692.97 501.33 693.46 501.95 693.86 502.63 694.13 503.15 694.25 504.21 694.01 504.73 694.29 506.46 694.46 507.14 694.63 507.72 694.99 507.96 695.59 507.62 695.92 506.86 696.18 505.55 696.39 505.55 696.58 506.66 696.95 507.07 696.93" style="fill:#efc441"/><polyline points="471.44 686.2 470.65 686.02 470.49 685.94 470.36 685.71 470.32 685.48 470.41 685.32 470.68 685.29 471.09 685.11 471.56 685.25 472.05 685.51 472.5 685.64 474.39 685.47 474.55 685.51 474.57 685.6 474.54 685.73 474.59 685.86 474.72 686.03 474.78 686.2 474.88 686.32 475.16 686.36 475.29 686.29 475.36 686.13 475.43 685.97 475.48 685.86 475.67 685.73 475.79 685.67 475.98 685.64 476.4 685.79 476.71 686.16 476.9 686.68 476.99 687.27 476.54 687.37 476.11 687.59 475.03 687.63 474.6 687.42 473.99 686.56 473.51 686.36 471.44 686.2" style="fill:#efc441"/><polyline points="471.07 713.6 471.37 713.14 471.84 712.99 472.47 712.99 472.53 713.29 472.09 713.41 472.1 713.76 471.76 714.07 471.55 714.42 471.95 714.66 472.67 714.58 473.18 714.35 473.39 714.69 472.93 714.99 472.56 715.32 472.41 715.71 471.9 715.5 471.49 715.24 471.21 714.97 470.73 715.04 470.51 714.7 470.1 714.43 470.67 714.01 471.13 713.91 471.07 713.6" style="fill:#efc441"/><polyline points="496.02 704.83 496.27 705.04 496.27 705.07 496.18 705.11 496.15 705.3 496.1 705.51 495.89 705.51 495.54 705.38 495.37 705.39 495.37 705.5 495.49 705.76 495.4 705.87 495.19 705.85 495.17 705.92 495.37 706.03 495.57 705.95 495.73 705.8 495.76 705.85 495.68 706.09 495.64 706.34 495.66 706.59 495.83 706.89 495.8 707.05 495.75 707.16 495.76 707.32 495.89 707.52 495.79 707.63 495.41 707.58 495.27 707.43 495.4 707.29 495.41 707.1 495.31 707.1 495.11 707.16 494.82 707.02 494.55 706.85 494.12 706.66 494.08 706.52 494.07 706.3 493.98 706.08 493.76 705.88 493.59 705.65 493.73 705.47 493.96 705.34 494.21 705.21 494.48 705.15 494.67 705.04 494.83 705 494.88 704.98 494.75 704.85 494.82 704.77 495.09 704.79 495.31 704.87 495.41 705 495.49 705.11 495.59 705.12 495.76 705.1 495.86 704.99 495.84 704.8 495.92 704.77 496.02 704.83" style="fill:#efc441"/><polyline points="472.7 704.07 472.81 704.21 472.85 704.46 472.69 704.65 472.51 704.72 472.41 704.68 472.37 704.61 472.33 704.52 472.26 704.45 472.17 704.44 472.05 704.46 471.98 704.36 472.09 704.03 472.05 703.83 472.12 703.56 472.34 703.36 472.53 703.41 472.55 703.59 472.48 703.8 472.58 704.01 472.7 704.07" style="fill:#efc441"/><polyline points="471.51 687.4 471.76 687.64 472.02 687.87 472.52 688.19 472.55 687.66 472.96 687.72 473.05 688.14 473.47 688.35 474.16 688.43 474.23 688.74 473.69 688.86 473 689.17 472.43 689.44 471.9 689.51 471.36 689.2 471.42 688.81 471.8 688.53 471.36 688.42 470.64 688.54 470.07 688.23 469.94 687.96 470.44 687.89 470.98 687.84 471.13 687.37 471.51 687.4" style="fill:#efc441"/><polyline points="456.95 686.21 457.19 686.45 457.27 686.76 457.18 687.03 457.07 687.07 457.02 686.92 456.99 686.78 456.94 686.67 456.71 686.59 456.35 686.51 455.98 686.24 455.79 685.68 456.05 685.47 456.55 685.83 456.82 686.12 456.95 686.21" style="fill:#efc441"/><polyline points="447.32 680.67 447.44 680.78 447.45 680.92 447.31 680.96 447.06 680.89 446.45 680.63 446.2 680.58 446.03 680.53 446.02 680.39 446.17 680.26 446.29 680.15 446.26 680.03 446.13 679.77 446.15 679.54 446.4 679.61 446.64 679.83 446.9 680.15 446.99 680.3 447.06 680.47 447.11 680.55 447.32 680.67" style="fill:#efc441"/><polyline points="481.51 728.86 481.62 728.95 481.64 729.22 481.59 729.36 481.57 729.41 481.57 729.48 481.59 729.63 481.56 729.68 481.51 729.72 481.47 729.74 481.35 729.45 481.4 728.97 481.51 728.86" style="fill:#efc441"/><polyline points="483.91 716.09 484.36 716.28 484.32 716.33 483.63 716.51 483.58 716.56 483.26 716.67 483.13 716.79 482.83 716.75 482.55 716.6 482.61 716.44 482.81 716.33 483.91 716.09" style="fill:#efc441"/><polyline points="474.59 699.25 475.08 698.83 475.16 698.81 475.03 699.14 475.02 699.76 474.86 699.87 474.24 699.88 473.95 700.02 473.77 699.96 473.67 699.71 473.71 699.52 473.88 699.38 474.49 699.32 474.59 699.25" style="fill:#efc441"/><polyline points="454.48 695.8 454.66 695.98 454.66 696.1 454.58 696.23 454.4 696.41 454.2 696.48 454.13 696.41 454.08 696.31 454.05 696.21 454.13 696.02 454.14 695.15 454.06 694.99 453.99 694.9 453.93 694.75 453.96 694.62 454.08 694.66 454.29 694.95 454.32 695.09 454.32 695.22 454.4 695.68 454.48 695.8" style="fill:#efc441"/><polyline points="452.9 693.81 453.12 693.92 453.29 694.09 453.18 694.18 451.87 693.96 451.74 693.78 451.89 693.67 452.9 693.81" style="fill:#efc441"/><polyline points="450.3 684.1 451.05 683.91 451.3 683.97 451.01 684.14 450.54 684.3 449.9 684.4 449.44 684.45 449.63 684.31 450.3 684.1" style="fill:#efc441"/><polyline points="449.68 681.31 449.78 680.9 450.34 681.54 450.72 681.75 450.97 681.82 450.93 682.13 450.62 682.09 450.3 681.87 449.96 681.52 449.68 681.31" style="fill:#efc441"/><polyline points="445.1 680 445.26 680.13 445.33 680.28 445.26 680.36 445.01 680.34 444.72 680.18 444.51 679.93 444.14 679.78 444.01 679.66 443.89 679.66 443.77 679.61 443.72 679.45 443.71 679.25 443.8 679.16 444.01 679.25 444.43 679.58 444.54 679.7 445.1 680" style="fill:#efc441"/><polygon points="444.43 679.58 444.01 679.25 443.8 679.16 443.71 679.25 443.72 679.45 443.77 679.61 443.89 679.66 444.01 679.66 444.14 679.78 444.51 679.93 444.61 680.04 444.81 679.84 444.54 679.7 444.43 679.58" style="fill:#fff"/><polygon points="449.68 681.31 449.96 681.52 450.04 681.61 450.23 681.42 449.78 680.9 449.68 681.31" style="fill:#fff"/><polygon points="456.71 686.59 456.94 686.67 456.99 686.78 457.02 686.92 457.07 687.07 457.18 687.03 457.27 686.76 457.19 686.45 456.95 686.21 456.82 686.12 456.76 686.06 456.33 686.49 456.35 686.51 456.71 686.59" style="fill:#fff"/><polygon points="456.24 688.15 455.63 687.79 455.45 687.92 455.28 687.99 455.09 688 454.88 687.99 455.16 688.54 455.25 688.86 455.19 689.15 455.16 689.34 455.3 689.55 455.5 689.7 455.69 689.77 455.86 689.79 457.17 688.48 456.24 688.15" style="fill:#fff"/><polygon points="451.74 693.78 451.79 693.86 451.97 693.68 451.89 693.67 451.74 693.78" style="fill:#fff"/><polygon points="444.57 700.79 444.38 700.83 444.19 700.8 444.01 700.71 444.01 700.54 444.57 700.23 444.77 700.17 444.67 699.95 444.54 699.78 444.42 699.67 444.25 699.63 444.05 699.7 443.98 699.87 443.94 700.04 443.88 700.17 443.81 700.5 443.72 700.61 443.42 700.34 443.03 700.25 442.87 700.17 442.66 700.23 442.57 700.29 442.49 700.37 443.03 700.95 443.7 701.35 444.3 701.35 444.43 701.22 444.77 700.71 444.57 700.79" style="fill:#fff"/><polygon points="457.75 692.55 459.41 693.24 461.63 691.01 460.81 690.64 459.88 689.94 459.12 690.7 459.37 690.92 459.62 691.45 459.43 691.59 458.55 691.37 458.45 691.37 457.5 692.32 457.52 692.37 457.75 692.55" style="fill:#fff"/><polygon points="463.39 687.36 464.4 687.87 464.6 688.05 465.58 687.07 465.43 686.64 464.96 686.52 463.97 686.74 463.51 686.76 463.1 686.72 462.68 687.15 462.69 687.15 463.39 687.36" style="fill:#fff"/><polygon points="455.91 696.6 455.57 696.35 455.26 696.3 455.01 696.75 454.99 697.3 455.09 697.56 456.02 696.63 455.91 696.6" style="fill:#fff"/><polygon points="450.46 701.57 450.58 701.26 450.62 700.98 450.65 700.33 450.76 700.09 450.86 699.94 450.96 699.7 451.05 699.43 451.08 699.2 451.02 698.85 451 698.82 450.44 699.39 450.49 699.41 450.58 699.63 450.4 700.23 450.1 700.5 449.75 700.68 449.18 701.14 448.47 701.35 447.2 702.62 447.23 702.67 447.28 702.89 447.4 703.05 447.66 703.06 447.63 703.16 447.54 703.41 448.41 703.74 448.79 703.75 448.94 703.71 450.31 702.34 450.06 702.34 450.46 701.57" style="fill:#fff"/><polygon points="454.05 696.21 454.08 696.31 454.13 696.41 454.2 696.48 454.4 696.41 454.58 696.23 454.66 696.1 454.66 695.98 454.48 695.8 454.4 695.68 454.36 695.46 454.13 695.69 454.13 696.02 454.05 696.21" style="fill:#fff"/><polygon points="461.47 688.86 461.73 689.11 462.07 689.24 462.35 689.28 463.58 689.07 464.17 688.48 464.06 688.5 463.79 688.51 463.6 688.41 463.22 687.91 463.01 687.79 462.13 687.92 461.69 688.13 461.66 688.16 461.42 688.51 461.47 688.86" style="fill:#fff"/><polygon points="459.86 699.51 459.3 699.63 459.63 699.33 459.78 699.13 459.93 698.91 459.54 698.82 459.04 698.95 458.6 699.28 458.41 699.72 458.43 700.09 458.52 700.65 458.55 700.91 458.48 701.11 458.42 701.23 460.11 699.54 460.1 699.51 459.86 699.51" style="fill:#fff"/><polygon points="455.31 704.22 455.14 704.24 454.95 704.42 454.76 704.56 454.62 704.46 454.52 704.22 454.49 703.95 454.27 704.19 454.19 704.32 454.11 704.5 453.99 704.5 453.65 703.97 453 703.82 452.15 704.67 452.52 704.73 453.1 705.03 453.1 705.22 451.94 705.62 451.1 705.72 450.77 706.05 450.96 706.67 450.59 706.7 450.52 706.48 450.52 706.3 449.48 707.34 449.73 707.64 450.06 707.93 450.31 707.99 450.55 707.98 450.79 708.02 451.02 708.2 451.22 708.43 451.64 708.01 451.56 707.93 451.71 707.74 451.94 707.66 451.99 707.66 455.4 704.25 455.31 704.22" style="fill:#fff"/><polygon points="471.76 687.64 471.51 687.4 471.13 687.37 470.98 687.84 470.44 687.89 469.94 687.96 470.07 688.23 470.64 688.54 471.2 688.45 471.89 687.76 471.76 687.64" style="fill:#fff"/><polygon points="456.28 703.37 456.54 703.11 455.63 703.06 456.28 703.37" style="fill:#fff"/><polygon points="458.72 698.66 459.56 698.19 459.76 698.21 459.91 698.32 460.05 698.32 460.19 698.02 460.09 697.47 460.55 697.34 461.64 697.49 462.08 697.39 462.36 697.29 463.42 696.23 463.13 695.96 462.75 695.9 461.45 696.37 460.54 696.28 458.08 698.74 458.47 698.74 458.72 698.66" style="fill:#fff"/><polygon points="462.21 694.78 463.29 695.87 463.63 696.02 470.2 689.45 468.9 689.23 468.96 689.13 469 689.04 469.05 688.96 469.15 688.88 469.15 688.7 468.61 688.54 468.08 688.74 466.29 690.53 466.56 690.55 467 691.02 465.56 691.26 462.1 694.73 462.21 694.78" style="fill:#fff"/><polygon points="473.31 686.34 474.16 685.49 472.5 685.64 472.05 685.51 471.56 685.26 470.77 686.05 471.44 686.2 473.31 686.34" style="fill:#fff"/><polygon points="461.7 704.84 461.63 705.02 462.08 704.57 462 704.6 461.7 704.84" style="fill:#fff"/><polygon points="475.29 690.71 474.45 690.28 474.93 690.06 476.23 689.23 476.23 689.05 475.85 689.13 475.24 689.65 474.91 689.77 473.83 689.99 454.31 709.51 454.66 709.85 455.01 710.08 454.81 710.19 454.64 710.16 454.47 710.11 454.23 710.08 454.87 711.12 455.47 711.18 457.44 709.21 457.33 708.98 457.04 708.61 456.55 708.4 456.5 708.22 456.52 708.03 456.64 707.93 456.89 707.93 457.25 708.21 457.46 708.29 457.57 708.4 457.85 708.8 461.63 705.02 461.7 704.84 462 704.6 462.08 704.57 475.93 690.72 475.29 690.71" style="fill:#fff"/><polygon points="478.39 687.83 478.1 687.68 477.76 687.63 477.5 687.63 477.53 687.75 477.58 688.04 477.62 688.16 477.46 688.14 477.14 688.18 476.99 688.16 477.04 688.49 477.05 689.25 477.17 689.4 477.23 689.42 478.54 688.11 478.5 688.07 478.39 687.83" style="fill:#fff"/><polygon points="476.54 687.37 476.99 687.27 476.93 686.89 476.37 687.45 476.54 687.37" style="fill:#fff"/><polygon points="487.06 686.06 486.47 685.43 486.08 685.29 486.31 686.09 486.4 686.2 486.53 686.28 486.74 686.45 486.9 686.65 486.93 686.72 487.44 686.21 487.34 686.2 487.06 686.06" style="fill:#fff"/><polygon points="481.3 689.61 481.26 689.56 481.22 689.6 481.3 689.61" style="fill:#fff"/><polygon points="479.12 691.91 479.55 691.6 480.41 690.74 480.9 690.48 480.63 690.43 480.32 690.51 480.31 690.51 479.06 691.76 479.12 691.91" style="fill:#fff"/><polygon points="473.71 699.52 473.67 699.71 473.75 699.9 474.31 699.34 473.88 699.38 473.71 699.52" style="fill:#fff"/><polygon points="466.89 704.84 468.06 704.06 468.87 703.87 469.16 703.64 469.35 703.3 469.53 702.89 469.91 702.21 471.85 699.71 473.08 698.71 473.57 698.19 474.39 696.84 475.03 696.11 475.11 695.82 475 695.82 466.75 704.07 466.75 704.07 466.89 704.84" style="fill:#fff"/><polygon points="483.8 689.46 483.68 689.4 483.42 689.58 483.16 689.91 482.99 690.35 482.93 690.72 484.03 689.62 483.8 689.46" style="fill:#fff"/><polygon points="475.85 695.09 476.17 694.86 476.75 694.25 476.67 694.52 476.67 694.8 476.78 695.03 476.99 695.14 477.24 695.03 477.7 694.52 477.94 694.41 478.06 694.24 478.13 693.51 478.19 693.35 478.77 692.62 478.77 692.46 478.39 692.55 478.25 692.62 478.29 692.53 475.77 695.05 475.85 695.09" style="fill:#fff"/><polygon points="475.6 703.95 475.6 704.15 475.3 704.27 474.64 704.37 474.33 704.5 474.53 704.69 474.68 704.88 474.97 705.39 474.46 705.43 474.2 705.41 474.02 705.3 473.83 705.08 473.69 705.04 473.59 705.16 473.57 705.39 473.72 705.77 474.02 706.08 474.35 706.3 483.94 696.71 483.9 696.7 482.48 696.93 482.19 697.12 481.96 697.49 481.72 697.65 481.42 697.28 479.64 698.38 479.7 698.66 480.02 699.28 479.36 699.43 479.06 699.37 478.77 699.12 478.53 700.32 478.3 700.58 477.94 700.27 477.36 700.46 476.59 701.23 476.6 701.41 476.49 701.62 476.23 701.7 476.13 701.69 475.71 702.11 475.85 702.28 476.35 702.61 476.61 702.93 476.23 703.25 475.75 703.16 475.12 702.85 475.01 702.81 474.29 703.53 474.57 703.7 475.6 703.95" style="fill:#fff"/><polygon points="470.82 708.64 470.63 708.42 470.54 708.92 470.65 709.37 470.9 709.58 471.01 709.64 471.3 709.35 471.11 709.37 470.82 708.64" style="fill:#fff"/><polygon points="484.68 695.49 484.99 695.65 493.9 686.74 493.05 686.82 492.62 687.02 492.33 687.3 492.4 687.63 492.4 687.79 492.13 687.77 491.93 687.66 491.74 687.53 491.52 687.45 490.59 687.45 490.4 687.42 484.82 693.01 485.1 693.35 484.7 694.06 484.22 693.6 483.04 694.79 483.38 695.05 484.68 695.49" style="fill:#fff"/><polygon points="472.55 707.64 472.42 707.55 472.26 707.47 472.09 707.44 471.96 707.53 471.93 707.82 472.07 708.11 472.27 708.36 472.28 708.37 472.78 707.87 472.55 707.64" style="fill:#fff"/><polygon points="471.1 713.73 470.85 713.97 471.13 713.91 471.1 713.73" style="fill:#fff"/><polygon points="472.67 714.58 471.95 714.66 471.55 714.42 471.76 714.07 472.1 713.76 472.09 713.41 472.53 713.29 472.47 712.99 471.84 712.99 471.83 713 471.1 713.73 471.13 713.91 470.85 713.97 470.27 714.55 470.51 714.7 470.73 715.04 471.21 714.97 471.49 715.24 471.9 715.5 472.08 715.57 473.22 714.42 473.18 714.35 472.67 714.58" style="fill:#fff"/><polygon points="477.29 710.31 477.42 710.07 477.55 709.91 477.62 709.91 477 709.19 476.83 708.72 477.24 708.47 477.56 708.91 477.77 709.08 477.86 708.92 477.96 708.4 478.04 708.09 478.11 707.93 478.47 708.02 479.05 708.61 481.81 705.84 481.8 705.74 481.54 705.57 480.58 705.35 480.02 705.66 479.75 705.49 479.64 705.19 479.83 705.03 480 704.98 480.26 704.73 480.4 704.68 480.61 704.72 480.75 704.81 480.88 704.93 481.04 705.03 481.31 705.14 481.55 705.18 481.77 705.15 482.04 705.03 482.19 704.88 482.24 704.73 482.33 704.6 482.55 704.5 482.68 704.54 482.79 704.64 482.88 704.77 486.13 701.52 486.06 701.46 485.8 701.14 485.71 700.81 485.76 700.56 485.9 700.15 486.11 699.79 486.33 699.63 486.52 699.74 486.62 699.96 486.69 700.23 486.77 700.46 486.96 700.65 486.99 700.66 495.96 691.69 495.98 691.56 495.89 691.28 495.46 691.24 494.3 691.82 494.06 691.63 494.27 690.55 485.55 699.27 485.59 699.45 485.42 699.82 485.11 699.98 484.76 700.06 474.69 710.14 474.97 710.27 474.53 710.7 474.54 711.04 474.86 711.25 475.7 711.44 476.04 711.61 477.28 710.37 477.29 710.31" style="fill:#fff"/><polygon points="495.26 690.18 495.44 690.48 495.78 690.58 496.26 690.53 496.72 690.43 497.09 690.28 497.52 689.97 497.61 689.67 497.53 689.31 497.47 688.78 497.34 688.42 496.89 687.93 495.1 689.73 495.26 690.18" style="fill:#fff"/><polygon points="488.25 705.96 488.11 705.93 487.87 706.03 487.88 706.23 487.99 706.47 487.99 706.66 488.56 706.09 488.52 706.08 488.25 705.96" style="fill:#fff"/><polygon points="490.8 703.63 490.26 703.6 489.22 703.86 488.73 703.71 489 703.25 488.82 703 485.52 706.3 485.61 706.63 485.81 706.85 486.21 706.47 486.41 707.35 486.61 707.66 486.91 707.47 487.17 707.23 487.73 706.9 487.88 706.77 487.99 706.66 487.99 706.47 487.88 706.23 487.87 706.03 488.11 705.93 488.25 705.96 488.52 706.08 488.56 706.09 490.98 703.67 490.8 703.63" style="fill:#fff"/><polygon points="499.68 692.54 499.76 692.87 499.6 693.08 499.35 693.24 499.22 693.43 499.45 693.74 499.92 693.9 500.36 694.17 500.38 694.27 501.27 693.38 501 692.97 502.16 692.45 502.19 692.46 505.72 688.93 505.61 688.78 505.41 688.63 504.92 688.51 504.36 688.51 503.35 688.8 503 688.82 499.37 692.45 499.44 692.42 499.68 692.54" style="fill:#fff"/><polygon points="483.67 709.91 483.43 709.57 484.38 709.04 484.58 708.83 484.51 708.56 484.16 708.57 483.1 708.9 482.91 708.91 481.36 710.46 481.52 710.47 481.94 710.42 482.42 710.46 483.21 710.92 483.6 711.05 484.23 710.42 484.08 710.23 483.67 709.91" style="fill:#fff"/><polygon points="499.7 694.36 499.31 694.28 499.11 694.6 499.49 695.15 500.09 694.56 499.7 694.36" style="fill:#fff"/><polygon points="489.7 702.12 492.49 702.16 499.07 695.58 498.84 695.3 498.58 694.86 498.48 694.51 498.44 694 498.33 693.63 498.26 693.56 489.7 702.12 489.7 702.12" style="fill:#fff"/><polygon points="478.99 713.99 479.12 713.53 479.02 713.5 478.67 713.15 478.31 713.51 478.62 713.84 478.99 713.99" style="fill:#fff"/><path d="M484.33,716.33l-.7.18-.05,0-.32.11-.13.12-.29,0-.29-.15.06-.16.2-.11,1.1-.24.45.19Z" style="fill:#fff"/><polygon points="498.24 701.01 499.03 700.81 499.52 700.6 499.99 700.3 500.25 700 499.01 700.02 498.65 700.17 497.26 701.56 498.24 701.01" style="fill:#fff"/><polygon points="499.4 699.53 500.49 699.6 501 699.45 501 699.28 500.03 699.21 499.73 699.12 499.71 699.11 499.26 699.56 499.4 699.53" style="fill:#fff"/><polygon points="495.73 705.8 495.57 705.95 495.37 706.03 495.17 705.92 495.19 705.85 495.4 705.87 495.49 705.76 495.37 705.5 495.37 705.39 495.54 705.38 495.89 705.51 496.1 705.51 496.15 705.3 496.18 705.11 496.27 705.07 496.27 705.04 496.02 704.83 495.92 704.77 495.84 704.8 495.86 704.99 495.76 705.1 495.59 705.12 495.49 705.11 495.41 705 495.31 704.87 495.09 704.79 494.82 704.77 494.75 704.85 494.88 704.98 494.83 705 494.67 705.04 494.48 705.15 494.21 705.21 493.96 705.34 493.73 705.47 493.59 705.65 493.76 705.88 493.98 706.08 494.07 706.3 494.08 706.52 494.12 706.66 494.55 706.85 494.7 706.95 495.74 705.91 495.76 705.85 495.73 705.8" style="fill:#fff"/><polygon points="482.81 716.33 482.61 716.44 482.55 716.6 482.83 716.75 483.13 716.79 483.26 716.67 483.58 716.56 483.63 716.51 484.32 716.33 484.36 716.28 483.91 716.09 482.81 716.33" style="fill:#fff"/><polygon points="491.39 707.93 491.71 707.91 491.85 707.82 491.86 707.55 491.78 707.04 491.15 707.67 491.23 707.8 491.39 707.93" style="fill:#fff"/><polygon points="507.31 693.16 507.78 692.99 507.93 692.69 507.8 692.45 507.31 692.46 507.45 692.18 507.81 691.99 507.96 691.73 507.45 691.6 507.3 691.52 505.84 692.98 507.31 693.16" style="fill:#fff"/><polygon points="504.73 694.29 504.6 694.22 500.2 698.62 501.01 698.74 503.13 698.51 507.04 694.61 506.46 694.46 504.73 694.29" style="fill:#fff"/></svg>