<?xml version="1.0" encoding="UTF-8"?><svg id="Aruba" xmlns="http://www.w3.org/2000/svg" viewBox="0 0 720 540"><path d="M340.53,386.7l-3.5-5.4-3.61-1.88-5.4,1.82-6.1-6.37v-1.76l-7.99-6.36-3.62-1.76-5.4-.13-10.59-5.46h-3.5l-5.45-4.12-3.5-3.89-5.5-.12-1.73,1.77,.54,2.12,4.62,5.03,3.72,1.82,1.84-.25,1.9,1.27h3.43l1.89,1.89h3.5l5.39,3.58h3.5l7.12,3.64,12.49,12.74,10.61,5.46,5.33,.12,1.78,1.76,2.71-2.79-2.71-2.73h-1.78Zm138.61,83.78l-5.27-5.52h-3.61l-1.71-1.88-.9,4.68,18.59,11.82,4.51-.91-6.28-6.36-5.33-1.82Zm-210.01-126.74l-5.5-1.69-6.88-7.52h-1.77l-1.59-3.77-1.91,.19-.11-2-8.88-8.62-1.84-.3-10.12-10.74-2.79,.43-9.77-16.63-3.86,3.76,.11,1.89,1.9,1.76v3.77l6.75,6.86,2.02,.12v3.89l3.49,1.76,1.13,3.09,6.28,2.37-.13,1.76,3.97,2,8.3,8.62,.36,2.36,3.37,1.64,1.48,3.52,5.52,3.71,10.79,5.21,3.62-.12,1.7-1.64-5.63-5.65Zm301.54,149.48l1.71-5.4-7-11.03-.05-3.64-1.72-1.82-.05-9.03-3.61-3.65,.11-10.91-3.67-5.52,.11-9.11-3.48-5.4-1.91-9.15-1.77-1.77v-7.4l-5.28-10.86v-5.4l-5.4-5.52,.06-12.81-3.61-7.22-1.77-12.68-7.94-10.02-10.66-.06-3.5-1.77-6.28-6.36-1.9-5.52-6.11-6.37-2.67-.85v-3.65l-4.49-4.55-1.73,.06-2.67-2.79v-3.64l-13.32-8.19-3.68-5.52h-3.48l-5.4-8.98-3.5-.13-.83-4.54-2.78-.85-.88-2.73-7-5.52v-3.64l-5.38-5.52v-3.45l1.83-1.94-1-4.49h-3.5l-3.62-3.58-3.5-.12-8.88-9.04-1.72,.06-2.78-6.44-2.61-.97-6.17-6.37v-1.76l-8.1-4.61-5.23,3.64-8.95,.06-1.71,1.88-2.78-1.03,.11-3.76-3.61-3.58,1.83-5.52-2.61-2.68-3.62,.06-3.55-3.77h-3.61l-7.11-7.22h-1.72l-1.78-1.89h-5.33l-1.78-3.64-8.88-3.58-3.61-3.65h-3.5l-.88-2.73-2.73-.96-1.77-1.77-7.11,1.77-11.49-11.84v-1.76l-9.77-10.02h-1.84l-10.71-9.41-21.04-23.79-2.78-.61-4.5-4.61-3.56-10.92-3.37-5.35-.13-3.52-4.91-9.53-6.11-5.89-1.89,.06-10.36-7.28-3.5-.48-1.95,2.31,.05-3.52-6.64-7.52-4.55-.36-2.9-2.98-5.98-2.24-8.41-8.86h-1.72l-.05-5.4-3.38-3.64-5.45-.05-3.26-3.28-11.26-4.07-3.37,2.13-.13,3.64-6.51,10.69,13.98,12.63,.18,3.77,1.37,2.13v7.28l1.89,1.64,3.79,16.64,1.55,2.12v4.8l7.18,15.11-.14,4.92,1.9,2.36-.24,12.32-1.41,1.88-.11,5.52-3.39,5.4-.24,5.65-14.15,12.07-1.84,4.06-.23,7.23-3.56,14.86-12.14,14.2-3.55,7.53-.14,10.68,3.39,3.64,7.52,1.82,5.22,3.77-.13,4.12,9.01,6.86,.05,2.13,3.32,1.63,5.7,7.1,2.72,1.03,2.49,2.73,4.26-.36,2.73,1.46-1.84,2.42,7.23,5.34,3.5-1.76,3.37,2.01,4.98,8.37,2.78,.73,6.53,6.74,4.15,14.44,3.37,3.46,3.5,.48,1.48,1.64,2.01-1.51,4.85,5.15,5.63,.3,14.65,14.75,4.84,1.63-1.95,1.89,.11,3.76,10.68,10.74h7.45l3.39,4.98,7.22,4.91h3.43l5.52-5.4,8.76,7.23h1.84l3.48,3.64,3.62,.06,3.48,3.64h1.79l8.88,9.1h1.84l4.38,4.49v1.88l9.9,8.13h3.5v5.52l12.32,3.58,11.67,10v5.52l2.62,4.61h1.77l1.71,3.52,3.67,1.89,5.34-.06,1.77,3.64h1.72l3.5,3.76h3.61l7.11,3.58,3.48,3.64,7.11-.06,1.9,1.89h3.5l1.78,1.76,16.04,.06,1.73,1.76,5.38,.12,2.61,2.61v5.52l-4.46,2.8-17.76-10.98h-7.05l-7.11-3.58-5.38-.12-3.5-3.64-5.33-1.88-1.77-1.7h-3.61l-3.5-3.64h-3.62l-.89,.91,4.51,4.49,5.27,1.88,7.12,5.46h3.61l7.1,3.57,12.32,1.88,7.11,3.59,3.62,3.63,5.4,1.89,1.77,1.88,3.5-.06,7.12,5.4,7.1-.06,5.32-3.52,3.61,1.76,8.83,.12,5.38,5.34h1.73l3.55,5.52,8.95-.06,7.1,5.52,7.12,1.69,5.27,5.52,7.11,3.77,2.78,2.61-1.91,9.16,2.67,2.73h3.61l1.73-3.64h3.61l1.73,1.88,12.49,1.82,3.55-5.52h3.5l1.78-1.88,3.61,1.82,4.39-.85-1.77-3.64Zm-73.71-13.65l-2.71,.85v1.89l6.21,4.48h1.77l1.79,3.64,2.72-.91-2.78-6.36-7-3.58Z" style="fill:#efc441;"/></svg>