<?xml version="1.0" encoding="UTF-8"?><svg id="Asia" xmlns="http://www.w3.org/2000/svg" viewBox="0 0 720 540"><polygon points="538.97 294.71 539.7 294.72 539.96 294.01 539.22 293.29 538.97 294.71" style="fill:#efc441;"/><path d="M496.93,300.28c-.12-.36-.62-.12-.62-.12l-.14,1.78,.86,.24s.01-1.54-.11-1.9Z" style="fill:#efc441;"/><path d="M491.55,300.09c.25-.47,1.11-.59,.75-1.3l-.86,.47s-.13,1.31,.12,.83Z" style="fill:#efc441;"/><path d="M486.55,308.39c.24,.36,.11,1.54,1.09,1.19,.99-.35,1.24-1.41,1.24-1.41,0,0-.24-.36-.61-.36-.37,0-1.97,.22-1.72,.58Z" style="fill:#efc441;"/><path d="M483.65,395.86c-.74,0-1.97-.97-1.97-.97l.41,2.03,1.53,2.28,.97,2.39,.74,.48,.98,1.2v-1.67s1.01-.47,1.25,.49c.24,.96-.51,2.14-.51,2.14l.24,1.19v.72s.86,.13,.86,.13l.86,.6,.86,.13,.38-1.55,.86,.13,1.48-.23,.36,.84,.73,.96,.36,.6s.37,.12,.87-.11c.49-.23-.73-1.08-.73-1.08l-.24-.84s.5-.35,.86,0c.37,.36,.86,.48,.86,.48l.74,.36s.49,.48,.49,.84c0,.36-.75,.83-.75,.83l.98,.48s.98,.84,1.85,.85c.76,0,.76-.36,.75-.45l.12,.7s.49,.36,.86,.25c.37-.12,.38-1.55,.26-1.91-.12-.36-.49-.72-.49-.72l-.24-.84,.37-.35s-.86,.11-1.36-.01c-.49-.12-.12-.95,.25-.83,.37,.12,.25-.48,.25-.48l-.61-.36h-1.11s-1.1-.73-1.1-.73c0,0,.12,.48,0,.83-.13,.36-1.11,0-1.11,0l-.24-.48s-.98-.72-1.35-.73c-.37,0-1.12,.59-1.12,.59l-1.85,.58-.36-1.08s-.12-.95-.11-1.31c0-.36,.01-1.55,.01-1.55l-.61-.96v-1.43s-.23-1.31-.23-1.31c0,0,.5-.95,1-1.18,.49-.24,.88-1.9,.88-1.9l-.36-1.67-.49-1.2,.25-1.07s.14-1.91,.02-2.5c-.12-.6-.97-2.03-.97-2.03l-.37-.6v-.83s-.54-1.02-.54-1.02c0,0-.44,1.01-1.18,1.24-.74,.23-2.03-.67-2.03-.67l-1.67-.07-.75,1.43v1.91s-1.51,1.42-1.51,1.42l.48,1.67,1.22,1.92-.26,1.19-.5,1.19s1.22,1.68,.48,1.67Z" style="fill:#efc441;"/><polygon points="487.21 303.98 487.22 302.91 486.11 303.73 487.21 303.98" style="fill:#efc441;"/><path d="M498.11,303.64c-.12-.71-.62,.23-.62,.23l.49,.72s.25-.24,.13-.95Z" style="fill:#efc441;"/><path d="M507.34,205.04l1.23,.96,1.21,2.87,.73,1.44s.48,2.15,.96,3.11c.49,.96,2.45,1.93,2.94,2.88,.49,.96,.97,2.39,.97,2.39l-.26,1.67s1.23,.72,1.22,1.68c0,.95-.5,.95,.96,3.11,1.46,2.16,3.17,4.79,3.17,4.79,0,0-.22-3.1-.21-4.06,0-.95,.75-1.42,1.49-1.18,.74,.24,2.95,1.69,2.95,1.69l.73,1.2s.75-1.19-.23-1.91c-.98-.72-1.96-1.92-1.96-1.92l-1.47-1.2-1.48-.25-.48-1.43-1.47-1.2-.73-1.44-1.22-2.16-1.7-2.87s-.47-3.34-.71-4.3c-.24-.96-.72-2.15-.72-2.15l.25-.95s.75-1.19,1.98-.22c1.23,.96,2.95,1.93,2.95,1.93,0,0,1.23,.96,2.21,1.93,.98,.96,1.72,1.2,1.72,1.2l-1.47-1.68s-1.46-2.16-2.2-2.64c-.74-.48-1.71-1.68-2.46-1.69-.74,0-1.72-.97-1.72-.97,0,0,.5-1.19-.23-1.91-.73-.72-1.21-2.39-1.7-3.11-.49-.72-2.2-2.88-2.69-3.6-.49-.72-1.21-2.87-1.21-2.87l-1.48-.49-1.46-2.63-1.72-.25-.95-4.3,.75-1.19-1.97-.73,1.98-.22-3.19-2.89-1.73-.49-.73-1.44s-.22-3.34-1.46-3.11l-.74,.47-.26,1.67-.99,.71,1.22,1.2,1.47,1.44,.73,.96-1.74,.94-.5,1.19,.48,1.2,.99,.48,1.46,3.11,.97,1.92,.98,1.2,.96,2.63,1.96,1.45s1.23,0,2.21,1.69c.97,1.68,.96,3.11,.96,3.11,0,0-.26,1.67-.52,2.86-.26,1.19,.97,2.39,.97,2.39Z" style="fill:#efc441;"/><polygon points="538.08 239.37 538.57 238.67 538.7 238.07 539.08 236.77 539.4 235.83 538.48 234.99 538.1 236.53 538.21 237.72 538.08 238.9 538.08 239.37" style="fill:#efc441;"/><path d="M537.13,235.33l-.99,1.42-1.98,1.88-1.48,.46-1.71-1.44-3.19-.5c-1.96-.49-3.67-2.4-3.67-2.4-.73-.48-2.43-2.63-2.43-2.63l-1.23-.48-.51,1.66-.25,.95,1.46,1.91,1.22,.96,.24,.95,.23,1.43-1.23,.47,1.19,4.28s.25-.24,0,.71c-.06,.23,.46,1.04-1.23,.7-1.23-.25-1.96-.49-1.96-.49l.23,1.43-.5,.94s.73,1.43,.72,2.14c0,.71-1.23,.7-1.97,.7-.74,0-1.47-.72-1.47-.72l.48,1.19,2.2,.73,2.44,2.15,.97,1.43,.73,.48,.24,.71s.73,1.43,1.21,2.14c.49,.72,1.96,.73,1.96,.73l-.73-1.19,.75-1.89,.48,.95h1.72s.02-1.88,.02-1.88l-2.7-.97-2.94-.97s-.98-.48-.73-1.19c.25-.71,1.24-1.18,1.24-1.18l.48,.72v-1.66s1.99-.93,2.73-1.4c.74-.47,1.96,.96,1.96,.96l.98,.72s1.71,.73,2.45,1.2c.73,.48,1.21,1.91,1.21,1.91l.5-.95s-.48-1.43-1.7-2.39c-1.22-.96-.72-2.62-.72-2.62l.5-1.42,1.23-.7h1.96s.99-1.16,.99-1.16c0,0,.25,0,1.23-.47,.99-.47,1.24-.94,1.24-.94l.74-.23,.26-1.42-1.97,.46,.26-1.42-1.71-.96,.5-1.42,.02-2.37Z" style="fill:#efc441;"/><path d="M539.71,235.12l.87-1.06,.99-.94,.63-1.77s.99-.82,1.85-1.29,.75-1.42,.14-1.78c-.61-.36-.74,.82-.74,.82l-.86-.24-.25,.71-.74,.35-.38,1.18-1.12,1.06,.48,1.43-.74,.83-.13,.71Z" style="fill:#efc441;"/><path d="M499.41,310.3c0-.83-.23-1.43-.23-1.43,0,0-.74,0-.62,.47,.12,.48,.85,1.79,.85,.96Z" style="fill:#efc441;"/><path d="M500.19,307.18c-.37,.23-.26,1.18-.26,1.18l1.47,.6-.49,.59s.24,.6,1.35,.13l.12,.95-.13,1.19s.73,.72,.86,.36c.12-.36,.38-1.06,.38-1.06,0,0,.36,.48,.73,.48,.37,0,.86,.12,.37-.35-.49-.48-1.34-.96-.97-1.19,.37-.23,.62-1.06,.99-.59,.37,.48,1.1,1.19,1.1,1.19l-.38,1.06,.24,.6s-.13,1.19-.5,1.18c-.37,0-.73-.84-.73-.84l-.74,.23s1.1,1.08,1.58,1.79c.49,.72,.48,1.19,.35,1.66-.13,.47-.37,.71,.11,1.31,.49,.6,1.71,.84,1.71,.84l.13-1.19s.61,.72,.6,1.19c0,.47,.85,.72,.98,.36,.13-.35,.75-1.89,.75-1.89v-1.19s1-1.18,1-1.18l-1.1-.72,.62-1.06-.36-.72s.38-1.66,.51-2.01c.13-.35-.36-.95-.36-.95l-.11-1.42,.37-.71-1.34-.96s-.37-.36-.85-.96c-.49-.6-.97-1.31-.97-1.31l-.62,.23s-.62,.59-1.11,.35c-.49-.24-1.22-.96-1.22-.96l-.61-.24-.74,.23s-.74-.12-.86,.23c-.13,.36,.11,1.19,.11,1.19l-.74,.11-1.11,.94,.12,.36s.12,.71-.25,.95Z" style="fill:#efc441;"/><path d="M479.98,351.74l-.48-1.43-1.29-.72-1.42,1.41-1.49,1.89-.76,2.31-.02,2.38-.26,1.54s.48,1.61,.96,2.56c.49,.95,1.95,2.15,1.95,2.15l.97,1.25,.95,1.11,.52,.03,.26-1.42v-1.19s.15-1.84,.4-2.79c.25-.95,.63-1.48,.39-2.19-.24-.71-.84-2.08-.84-2.08,0,0,.75-1.42,.75-2.13,0-.71-.59-2.68-.59-2.68Z" style="fill:#efc441;"/><path d="M505.42,297.85l-.13,.71-.74,.59v.36s-1.23,.23-1.23,.23l-.63,1.42,1.1,1.31,.86,.6s.87-.71,1.48-.34c.61,.36,2.21,.61,2.21,.61l.25-.59s-.12-.48,0-.83c.13-.36,.62-1.18,.62-1.18l.37,.24,.74-.35,.25-.47,.49,.48s1.11-.03,1.45-.58c.75-1.19,.9-1.19,.9-1.19l1.85-1.29c.13-.83,1.74-1.88,2.47-1.52,.73,.36,1.22,1.08,1.22,1.08l-.25,.95,.85,.72-.25,.95s.48,1.43,.97,1.43c.49,0,1.22,.48,1.22,.48l.48,1.43s1.71,1.2,2.08,.96c.37-.24,.63-1.66,.63-1.66l-.11-2.02s.86-.11,1.35-.35c.49-.23,1.36-.82,1.36-1.18,0-.36-.24-.95-.24-.95l-1.22-.72-.97-1.07s-.47-2.97-.1-2.97c.37,0,.62,0,.61,.36,0,.36,.23,1.66,.23,1.66l.73,.6s.75-1.06,1.11-.23c.36,.83,.48,1.43,.48,1.43h.49s.13-.47,.86-.23c.73,.24,1.59,.13,2.09-.7,.5-.83,1.6-.22,1.6-.22,0,0,.85,.95,.98,.24,.13-.71,.27-2.61,.27-2.61l-.61-.24,.13-.95s.99-.23,1.47,.37c.49,.6,.48,1.31,.48,1.31l.86-.23,.99-.94s.86-.23,.75-1.06c-.12-.83-.85-.84-.36-1.31,.5-.47,1.11-.35,.99-.82-.12-.48,0-1.31,0-1.31,0,0-.98,.35-1.46-1.08-.48-1.43-.47-3.33-.47-3.33,0,0-.09-4.51-1.06-5.82-.97-1.31-1.45-2.62-1.45-2.62l-.11-1.9,.86-.59,.49,.24,.5-1.42-.48-1.31,1.11-.7-.36-1.19-.61-.72v-.83s-.85-.36-.85-.36v-1.66s-1.34-.25-1.82-.61c-.49-.36-1.58-2.27-1.58-2.27l-.73-.84-.84-2.38-1.1-1.08-.13,.47,.6,1.67-.86,.47,.12,.59-.98-.72-.86-.12s-1.11,0-.74,.59c.36,.6,.24,1.19,.24,1.19l-1.36,.82s-.13,1.19-.01,1.54c.12,.36,.98,.84,.98,.84l.36,.95s.49,.72,.6,1.43c.12,.71-.14,1.66-.39,2.13-.25,.47,.48,1.55,.48,1.55,0,0-.4,4.03-.41,5.1,0,1.07-1.01,3.31-1.63,3.9-.62,.59-1.24,1.3-1.24,1.3l-.25,.83s-.75,1.42-1.12,1.18c-.37-.24-1.34-1.67-1.34-1.67l.14-1.9-.73-1.19-.5,.59-.5,1.3s.12,.24,.73,1.19c.6,.95,.35,1.66,.35,1.66,0,0-1.37,2.36-1.49,2.12-.12-.24,.24,1.19-.01,1.54-.25,.35-.5,1.66-.5,1.66l.24,.71s.36,.6,.97,1.19c.61,.6,0,.71,0,.71l-1.85,1.17-.61-.95s0-.95-.36-.83c-.37,.12-1.1-.25-1.48,.11-.37,.35-.86,.7-.86,.7,0,0-2.46,.1-3.2,.45-.74,.35-.74,.47-.74,.47l-1.59-.49-1.73,.82-.37,.24-.87,1.54,.36,.83-.37,.59-.63,1.77Zm16.15-5.41l-.51,2.37-.74,.94-.23-1.66,1.49-1.65Z" style="fill:#efc441;"/><path d="M495.48,309.43l.61,.36,.37-.47s.37-.59-.12-.6c-.49,0-.86,.71-.86,.71Z" style="fill:#efc441;"/><path d="M470.99,489.05s1.47-1.43,1.6-1.78c.12-.36,.98-2.26,.98-2.26l.25-.71,.74-1.43s-.98-.95-.98-1.31c0-.36,.12-1.9,.12-1.9l.12-1.31,1.11-.71,.74-.59s.74,.36,1.23,0c.49-.36,1.6-1.07,1.6-1.07l.25-1.66-1.75-1.12,.61-.59,.86-.59,.25-.59,1.11-.36,1.23-.12s1.35,.35,1.84,.24c.49-.12,.61-1.07,.61-1.07l-1.97-1.31-.37-1.31-.25-1.31-.99-.71-.37-.83,.61-.71-.25-1.42-1.23-.95-.25-.59-.62-.12,.49-.83-.86-.95-.12-1.54,.12-.59-.37-1.07,.74,.12-.37-1.42,.25-.95-.25-1.31,1.11,1.07,.98,.24,1.6,.12,.98-.6-.98-.12-.25-.71s-1.35-.71-.86-1.31c.49-.59,1.35-.6,1.35-.6l1.23,.59s.96-1.2,1.33-1.32c.37-.12,.49-.95,.49-.95h-1.23s-.61-.35-.61-.35l-.1-1.3h-1.11l-.25-.59s-1.35,.6-1.23,0c.12-.59,0-1.07,0-1.07,0,0-.86,.24-.99-.12-.12-.36-.74-.12-.86-.59-.12-.47-.37-1.07-.37-1.07l-2.21-1.07-.62-1.66-.1-1.01-.74-.59s-.98-.83-.86-.36c.12,.47,.25,1.42,.25,1.42,0,0-.62-1.66-.74-.95-.12,.71,0,1.66,0,1.66l-.74,1.07v.48l-.98,.83-.98,1.07-.49,.48s-.37,1.19,0,1.42c.37,.24-.74,.12-.74,.12l-.37,1.31s.98,1.42,.61,1.42c-.37,0-1.11-.12-1.11-.12l-.62-.12s-1.49-.71-2.09,.83c-.47,1.22-3.07,3.68-3.07,3.68,0,0-.98,2.02-1.1,2.61-.12,.59-.74,1.54-.74,1.54l-1.11,1.07-3.81,1.55s-1.6,.36-1.97,.71c-.37,.36-1.23,1.07-1.23,1.07,0,0-1.48,.24-1.23,.71,.25,.47-.49,2.02-.49,2.02l.74,.95,.25,1.54-1.35,.36h-1.6s-.37-.83-.37-.83l-.62-.24-1.11,.83-1.11,.24-.86-.83-.74,.24-.74,.71-.74,.6s0,1.19-.12,1.54c-.12,.36-.12,1.43-.12,1.43l.99,1.31,.62,1.07v.83l-.12,1.42,.86,.83,.99,.83,.74,.12-.61,.95,.12,1.43,.74,.36v1.19s-.12,.48-.12,.48c0,0,.98,.83,1.11,1.19,.12,.36-.12,1.19-.12,1.19l-.12,1.07,.37,.71-.12,1.19h1.11s.98-.36,.98-.36l.25,.48,1.6,.24,.37-.59,.74-.6,1.1-.12,.62,.95-.61,1.42,.74,.59,1.6-1.07,.61,.48s.49,.71,1.35,0c.86-.71,.86-1.07,.86-1.07l.86,.59,.25,1.07,.25,.71s1.11,.12,1.6,0c.49-.12,1.35-1.07,1.35-1.07l.12,.48,1.97,.59,.37,1.66-.49,2.02-.12,.6,1.11-.12s1.84-.83,2.21-1.07c.37-.24,1.72-2.14,1.72-2.14l1.23-2.14Z" style="fill:#efc441;"/><polygon points="424.74 475.04 423 473.83 422.49 474.79 424.72 476.49 424.74 475.04" style="fill:#efc441;"/><polygon points="421.68 470.37 421.19 470.96 422.04 471.33 421.68 470.37" style="fill:#efc441;"/><path d="M421.94,468.71h-1.35s-.37-.01-.37-.01l.73,.84s.61,.24,.98,.13c.37-.12,0-.95,0-.95Z" style="fill:#efc441;"/><path d="M421.17,473.22s.86,.36,.86,0c0-.36,.13-.95-.24-.95l-1.11,.23,.49,.72Z" style="fill:#efc441;"/><path d="M415.05,469.37l1.22,.6,.87-.94-2.82-.97-.36-1.19-.99,.11s.24,1.07,.6,1.31c.37,.24,1.46,1.08,1.46,1.08Z" style="fill:#efc441;"/><polygon points="418.86 469.64 418.74 469.16 417.63 469.28 418.37 469.88 418.86 469.64" style="fill:#efc441;"/><path d="M430.32,481.36c-.36-.48-1.59-1.55-1.59-1.55l-1.59-.37-.74,.71-.25,.83-.86-.24-.5,.71s-.13,.59,.49,.83c.61,.24,1.11,.13,1.11,.13l.86-.47,.61,1.31,.48,1.07s-.38,.95,.6,1.43c.98,.48,1.84,.73,1.84,.73l.86-.35v-.36s-.24-.95,.01-1.31c.25-.36-.98-.6-.98-.6l-.12-1.07s.13-.95-.23-1.43Z" style="fill:#efc441;"/><polygon points="435.4 386.42 436.62 388.09 439.32 388.12 440.55 388.6 441.54 387.42 441.8 386 441.57 384.33 443.06 382.92 443.07 381.49 441.85 380.53 441.61 379.58 440.38 379.34 439.64 379.33 438.99 379.89 437.67 380.03 436.19 380.73 434.7 381.91 434.94 382.86 434.44 384.28 435.4 386.42" style="fill:#efc441;"/><path d="M457.93,508.33c.24,.6,2.09-.58,2.47-.81,.37-.24,1.61-.94,1.61-.94l-.49-.48-2.83,.69-.49-.24-1.11,.59,.36,.72s.25-.12,.49,.48Z" style="fill:#efc441;"/><path d="M463.3,514.45l-.38,1.19s-.74,.35-.98-.36c-.24-.71-.12,0,.25-.47,.37-.47,.99-.94,.63-1.42-.36-.48-.48-1.07-.97-1.2-.49-.12-.86,.11-1.23,0-.37-.12-1.1-1.19-1.59-.49-.5,.71-.38,1.9-.75,1.78-.37-.12-1.1-.96-1.1-.96,0,0-1.35-.25-1.1-1.08,.25-.83,.51-1.54,.51-1.54,0,0,.37-.59,.13-.95-.24-.36-.61-.83-.61-.83,0,0-1.1-.84-1.71-.85-.62,0-.99,.35-1.48,.11-.49-.24-1.1-.6-1.1-.6l-1.1-.24s0-.95-.36-.96c-.37,0-1.97,.22-1.97,.22,0,0-.5,1.18-1.24,1.53-.74,.35-2.09-.49-2.46-.49-.37,0-2.82-.5-2.82-.5l-1.35,.11-.74-.12-.73-1.55-1.72-.61-1.36,.23-1.22-.72-.37,.24s-.48-.84-1.22-1.08c-.73-.24-1.6,.23-1.6,.23l-1.11,.11-.98-.96-.74,.47-.75,1.42,.11,1.19-1.36,.47-.62,.47-.38,.71h.86s1.6-.22,1.6-.22l.37,.12,1.1,.13h.98s-.74,.83-.74,.83l-.86,.35,.73,.72,1.72-.11,.99-.59,.61,.24,.86,.6,1.72,.49,.61,.84,.98,.13s.49,.36,1.72,.37c1.23,.01,1.97-.34,1.97-.34l.98,.48,.49,.24s1.72-.58,2.95,.14c1.22,.72,2.32,2.39,2.32,2.39l1.72,.49,1.6,.13,2.08,.61,1.11-.23s2.21,.02,2.7,.26c.49,.24,1.71,.73,1.71,.73l.24,.48s1.34,1.2,1.84,.96c.49-.24,1.48-.34,1.48-.34l.73,.72,.74-.11s-.85-1.07-.48-1.07c.37,0,.49,.72,1.35,.49,.86-.23,1.85-1.06,1.85-1.06l-.48-1.43-2.58,.1Z" style="fill:#efc441;"/><polygon points="436.04 488.77 436.66 488.06 435.55 488.17 436.04 488.77" style="fill:#efc441;"/><polygon points="438.09 458.76 437.61 456.35 436.6 456.83 436.84 459.24 438.09 458.76" style="fill:#efc441;"/><path d="M412.13,466.15c.87-.47-.85-.96-1.46-1.2-.61-.24-.25,.83-.25,.83,0,0,.86,.84,1.72,.37Z" style="fill:#efc441;"/><path d="M435.83,484.5s-.99,.59-1.48,1.06c-.5,.47-.01,1.66,.48,2.02,.49,.36,.99-.7,.99-.7l.74,.12,.73,.95,.14-2.14-.61-.6-.49-.6-.49-.12Z" style="fill:#efc441;"/><polygon points="432.99 486.14 432.62 486.61 433.35 486.85 432.99 486.14" style="fill:#efc441;"/><path d="M502.15,412.22l-.62,.47,.24,.6,.98,.96,1.59,1.2s1.36,.37,1.6,.85c.24,.48,.36,1.55-.01,1.55-.37,0-1.85-.37-1.85-.37l.24,.6,1.11,.49,.49,.24,1.6,.61s0-.83,.38-.59c.37,.24,1.6,.49,1.6,.49l-.49-.84s-1.23-.73-.98-1.2c.25-.47,.03-2.98-.34-3.22-.37-.24-1.47-.85-1.47-.85,0,0-.73-1.2-1.22-1.32-.49-.12-1.6-.13-1.6-.13l-1.24,.47Z" style="fill:#efc441;"/><polygon points="507.21 330.66 505.96 330.41 504.94 333.05 505.94 333.54 507.21 330.66" style="fill:#efc441;"/><path d="M509.46,423.96s.26-1.43,.14-1.79c-.12-.36-.98-.96-.98-.96l.12,1.07s.24,.84,.11,1.19c-.13,.36,.61,.48,.61,.48Z" style="fill:#efc441;"/><path d="M485.97,414c-.24-.6-.74,.35-.74,.35l.73,.84s.25-.59,.01-1.19Z" style="fill:#efc441;"/><path d="M508.24,422.88l-.85-1.56-.99-.48-.74-.6v-1.19s-1.22-.49-1.22-.49c0,0-.74-.13-1.61,.11-.87,.23,.36,1.43,.36,1.43l.36,1.43,1.24-.59,.61,.84,.24,.84s.73,.84,1.35,.84c.62,0-.36-.96-.36-.96l.98,.72,.62-.35Z" style="fill:#efc441;"/><path d="M494.47,415.62l-.74-.12v.95s.36,.48,.36,.48l.74,.6-.26,1.43,.12,.6-.13,.83-.14,1.67,.73,.96,.99-.47,.5-.83,.62-.23,.49,.48-.26,1.67,.85,1.2-.5,.47s-1.12,.83-1.25,1.9c-.13,1.07,.36,1.91,.36,1.91l1.73,.13,.98,.48,.5-.95v-.48s-.24-.72-.36-1.08c-.12-.36-.73-.72-.48-1.2,.25-.47,.88-2.5,.88-2.5l.02-2.5-.74-.72-.87,.41-.62-.24s.63-1.49,.76-1.84c.12-.36-.24-1.43-.24-1.43l-.74-.36-1.6-.49h-.62s-.49-.72-.49-.72h-.62Z" style="fill:#efc441;"/><polygon points="496.23 411.58 495.38 410.85 495.62 411.57 496.23 411.58" style="fill:#efc441;"/><polygon points="503.49 328.22 504.48 328.23 504.75 326.78 503.49 327.02 503.49 328.22" style="fill:#efc441;"/><polygon points="496.74 409.79 497.72 410.75 498.34 410.28 496.38 409.07 496.74 409.79" style="fill:#efc441;"/><path d="M503.91,424.04c-.37,.12-.75,.83-.75,.83l-.63,.95,1.36,.37s1-.95,1.12-1.66c.13-.71-.74-.6-1.11-.49Z" style="fill:#efc441;"/><path d="M500.05,413.04c-.49-.6-1.72-1.21-1.72-1.21l-.87,.35,.12,.36,.49,.24s-.38,.71,0,1.19c.37,.48,1.23,1.2,1.23,1.2,0,0,.13-.83-.11-1.19-.25-.36,.13-.48,.13-.48l1.1,1.2,.49,.6s.98,.36,.86,0c-.12-.36-.73-1.2-.73-1.2,0,0-.49-.48-.98-1.08Z" style="fill:#efc441;"/><polygon points="495.57 443.54 496.57 442.59 495.58 441.37 494.58 441.85 494.32 442.81 495.57 443.54" style="fill:#efc441;"/><path d="M501.3,426.4c0,.48,.38-.71,.38-.71l.07-1.31s.56-.59,.69-1.07c.13-.48-.47-2.51-.47-2.51l-.97-1.68-.3-1.08-.33,2.14,.85,1.91s-.27,2.14-.27,2.5c0,.36,.36,1.31,.36,1.79Z" style="fill:#efc441;"/><polygon points="498.06 500.39 498.42 500.87 499.17 500.05 498.31 499.68 498.06 500.39" style="fill:#efc441;"/><polygon points="502.37 342.67 501.1 345.3 502.1 345.07 504.13 340.75 503.14 340.5 502.37 342.67" style="fill:#efc441;"/><path d="M519.04,300.33c-.36-.48-.97-1.08-1.34-1.08-.37,0-.61-.24-1.1-.25l-.15,.05-2.5,1.01-.44,1.3c-1.96-.13-1.97-.02-1.97-.02l.12,.95-.25,.83s-.38,1.42-.75,1.54c-.37,.12-.74,.94-.74,.94l.24,.48s.86-.59,1.23,.13c.36,.71,.6,1.67,.6,1.67l.61,.12s-.5,1.18-.13,1.18c.37,0,1.72,.25,1.72,.25l.5-.71-.6-2.26v-.47s.37,.36,.87-.11c.49-.47,1.12-1.18,1.12-1.18,0,0,.74-.47,1.1,0,.36,.48,1.09,1.43,1.22,1.08,.13-.35,.14-1.66,.14-1.66,0,0-.12-.59,.13-1.19,.25-.59,.75-2.13,.39-2.61Z" style="fill:#efc441;"/><path d="M521.62,462.53s.49,.95,.86,1.31c.37,.36,1.11,.12,1.11-.24,0-.36-.25-1.78-.25-1.78l-1.11,.24-.62,.47Z" style="fill:#efc441;"/><path d="M532.57,476.6s-.61-.24-1.23-.25c-.62,0-1.36,.82-.99,.82,.37,0,1.47,.13,1.47,.13l.74-.71Z" style="fill:#efc441;"/><path d="M510.81,467.88c0-.59-.25-1.9-.25-1.9l-1.11-.24-.37,1.43-1.11,.71-1.84,.95-.12,1.07s-1.47,.36-2.09,0c-.62-.36-1.6,0-1.6,0l-1.72,.24-.86,.24-.86-.71s-2.09-.36-2.7-.47c-.62-.12-1.85-.11-1.85-.11l.74-1.19-1.23,.12-1.6-.12-.74,.36v1.43c0,.36-.86,.59-.98,1.07-.12,.47-1.72,.95-1.72,.95l-.98,.48,.12,1.42-.86,.24,.25,1.9-.49,.83s.37,1.43,.49,1.78c.12,.36-.86-.59-.86-.59l-.49,1.66-1.35,2.14s-.25,1.07,.25,1.66c.49,.59,.25,1.19-.25,1.9-.49,.71-1.35,1.31-1.35,1.31l-.61,1.43v1.31s.86,.71,.86,.71l-.74,.71,.13,1.19,1.47-.36,1.11,.24-.12,1.31,.74,.24-.24,1.55-.25,.95s0,1.19,0,1.54c0,.36-.74,1.31-.98,1.66-.25,.36-.74,1.31-.74,1.31l.25,1.07,.86,.36s1.72-.24,2.09-.24,1.23,.47,1.23,.47l-.25-1.19s.25-.71,.49-1.19c.25-.48-.25-1.66-.25-1.66l-.25-.71,.86-1.31,.49-1.19,.24-1.07-.12-1.66-.12-.83,.61-.59-.49-1.78-.37-.59s.37-.83,.61-1.54c.25-.71-.37-1.54-.37-1.54,0,0,.98-.12,1.23,.36,.25,.47,1.23,.47,1.23,.47l.62,.95,.12,.71-.86,.48,.12,.48-.49,.47,.86,1.31,.74,1.07v1.9s.86,.36,1.48,.83c.62,.48-.61,1.31-.61,1.31l-.37,.71v.95s.86,1.19,.86,1.19l.12,2.26,.62-.36,.61-.36h1.23s.98-.12,.98-.12l-.37-1.07,.37-1.43,.74-.48,.12,.59s1.47-.83,1.35-1.31c-.12-.47,.12-1.07,.12-1.07l.12-.83-1.23-.83-.49-.95-.25-.36-.62-1.19,.61-1.07-.37-.83s.25-.83-.12-.95c-.37-.12-.62-1.19-.62-1.19l-.49-2.14-.49-1.19-1.6-.59-.25-.83,1.11,.12,1.84-.36,.74-1.19,.24-1.54,.86,.12,.98-.59,1.6-.24,.37-.83-1.72-.95s-1.35,.59-1.11,1.07c.25,.47-.86,.36-.86,.36h-1.11s-1.48-.24-1.48-.24l-1.47,1.07-.74,.36v.95l-.98,.59-.49,.36-.86-.47,.12-1.19-.49-1.19-.98-.24-1.35-.35s0-1.9,.73-3.56c.74-1.66,1.47-1.55,1.47-1.55l1.6-.36,2.58,.59,1.47-.12,.12-.95,1.11-.12,1.84,.71,2.21,.36,.98,.47,1.23,.36,.49-.59,3.07-.71s.49-1.19,.61-1.55c.12-.36,.98-1.07,.98-1.07l.74-.36s.86-.6,.86-1.19Z" style="fill:#efc441;"/><polygon points="501.17 495.67 501.79 494.73 502.04 494.25 501.43 493.78 500.81 494.48 501.17 495.67" style="fill:#efc441;"/><path d="M528.71,482.62s.49,.72,1.1,.6c.62-.12,1.73-.82,1.73-.82l-.98-.84h-.86s-.99,1.05-.99,1.05Z" style="fill:#efc441;"/><polygon points="533.65 480.41 533.78 479.22 532.06 479.8 532.66 480.52 533.65 480.41" style="fill:#efc441;"/><path d="M534.18,475.07c-.49-.12-1.96-.13-1.96-.13,0,0-1.23,.35-.5,.71,.73,.36,1.35,.84,1.96,.73,.62-.12,2.1-.93,2.1-.93,0,0-1.11-.25-1.6-.37Z" style="fill:#efc441;"/><polygon points="501.97 479.05 501.11 478.81 499.88 479.53 499.51 480.6 500.37 480.83 500.62 480.24 501.35 480.6 501.35 480 502.09 479.53 501.97 479.05" style="fill:#efc441;"/><path d="M506.07,515.82c.49-.23,.37-.47,.37-.47h-.86s-2.2-.97-2.2-.97l-.13,.83-.5,.59s2.83,.26,3.32,.02Z" style="fill:#efc441;"/><polygon points="503.81 482.73 504.06 483.09 504.06 482.14 503.81 482.73" style="fill:#efc441;"/><polygon points="501.37 500.77 501.13 500.06 501.87 499.59 501.88 499.12 501.02 498.99 502.01 497.34 502.02 496.03 501.53 496.15 501.4 496.98 500.53 498.16 500.4 498.99 500.51 500.29 500.26 501.24 501.37 500.77" style="fill:#efc441;"/><path d="M509.47,482.01l-1.35-.47-2.95,.12-.25,1.07s.62,.59,1.23,.59,2.83-.72,2.83-.72l.49-.59Z" style="fill:#efc441;"/><path d="M499.43,497.44s-.13,1.19-.14,1.66c0,.48,.62-.59,.62-1.06,0-.47,.62-1.3,.62-1.3l-1.11,.7Z" style="fill:#efc441;"/><polygon points="502.39 515.08 502.15 514.49 501.15 515.55 501.89 515.79 502.39 515.08" style="fill:#efc441;"/><polygon points="503.2 480.95 502.58 480.47 502.34 481.31 502.95 481.78 503.2 480.95" style="fill:#efc441;"/><polygon points="540.83 16.67 542.07 16.44 543.8 15.26 547.48 15.29 549.47 13.41 552.68 11.77 551.74 10.27 541.62 10.26 540.13 12.62 540.61 14.53 540.83 16.67" style="fill:#efc441;"/><path d="M244.34,41.08l4.92-2.61-.49-.71s-3.93-.48-4.67-.25c-.74,.24-1.97,1.66-1.97,1.66l2.7,.48-.5,1.42Z" style="fill:#efc441;"/><path d="M244.85,36.09l1.72,.24,3.2-.71v1.19s1.23-1.19,1.23-1.19l2.46-.71,4.43-2.13-.25-.71,1.72-.71s1.48-1.19,.74-1.66c-.74-.48-1.96-.24-2.7-.24-.74,0-3.44-.72-3.44-.72l-2.46,.23-.25,1.19s.73,1.19,0,1.42c-.74,.24-2.21-.24-2.21-.24l-1.97,.24-1.48,2.61,1.48,.48-2.71,.71,.49,.71Z" style="fill:#efc441;"/><polygon points="245.27 78.82 245.76 79.77 247.24 79.06 245.27 78.82" style="fill:#efc441;"/><polygon points="249.25 82.27 247.29 80.84 245.32 81.79 246.79 82.5 249.25 82.27" style="fill:#efc441;"/><polygon points="267.88 60.34 268.37 61.29 270.09 60.34 269.36 59.62 267.88 60.34" style="fill:#efc441;"/><polygon points="265.42 60.81 267.15 59.86 266.41 59.15 264.93 59.86 265.42 60.81" style="fill:#efc441;"/><path d="M258.62,34.69l-1.47-.48-1.48,.71-1.72,1.9,1.47,1.43s-.99,.24-1.97,0c-.98-.24-2.71,2.13-2.71,2.13l.98,.95,1.23-1.42,.98,.71s2.21,.24,2.95,.48c.74,.24,.5-2.37,.5-2.37l.98,.24,1.72,1.19,1.72-.47,2.21,1.43,1.48-.71h2.21s1.96,0,2.7-.7c.74-.71-1.72-2.85-1.72-2.85l1.23-.47-.24-1.9-.73-1.66-.24-1.66-1.72-.95-2.46,.23-1.48,1.42,1.72,.72,.24,1.66-1.48,.24-.74-1.19-1.23-.48-3.44,.94,.49,.95Z" style="fill:#efc441;"/><polygon points="270.59 57.25 271.58 56.54 273.79 55.59 274.53 52.75 272.57 52.27 271.09 54.88 269.85 57.01 270.59 57.25" style="fill:#efc441;"/><polygon points="237.37 81.23 237.53 81.3 236.55 79.4 236.45 79.44 236.4 79.36 234.68 80.07 237.39 81.26 237.37 81.23" style="fill:#efc441;"/><polygon points="220.38 96.32 222.84 96.56 224.07 95.38 223.92 95.35 223.93 95.34 221.72 94.86 220.24 96.28 220.41 96.3 220.38 96.32" style="fill:#efc441;"/><polygon points="203.61 102.02 207.55 101.36 208.06 99.94 206.84 99.69 205.36 99.9 205.63 98.01 204.16 97.51 203.17 97.98 202.91 99.16 201.43 99.85 202.38 102 203.61 102.02" style="fill:#efc441;"/><polygon points="217.22 100.88 218.21 99.46 215.75 98.98 215.99 100.4 217.22 100.88" style="fill:#efc441;"/><path d="M231.4,98.4c.29,.12,.66,.1,1.11-.14,.39-.21,1.27-1.02,1.14-1.46-.17-.56-.93-1.11-1.67-1.29-.76-.24-1.55-.11-1.71,.77-.08,.41,.2,1.91,1.14,2.13Z" style="fill:#efc441;"/><polygon points="232.95 86.72 233.1 86.75 233.09 86.76 235.43 87.21 236.64 88.15 236.65 88.09 236.78 88.19 237.03 86.77 236.29 85.34 235.56 83.44 235.46 83.51 235.41 83.4 233.94 84.58 234.18 85.53 232.95 86.72" style="fill:#efc441;"/><polygon points="231.87 82.01 233.59 82.01 232.37 80.11 232.33 80.23 232.22 80.07 231.73 81.97 231.88 81.97 231.87 82.01" style="fill:#efc441;"/><path d="M271.08,59.63l.74,.24s2.46-.47,3.45-.71c.98-.24,0-1.19,0-1.19l-4.18,1.66Z" style="fill:#efc441;"/><polygon points="409.56 33.96 407.59 35.62 407.34 37.04 408.07 38.23 409.55 38.47 411.03 35.63 409.56 33.96" style="fill:#efc441;"/><path d="M414.23,36.1h-1.72s-.5,1.42-.5,1.42v1.42s-.99,1.66-.99,1.66l-.5,1.66,2.71-.95,2.95,.24,3.94-1.18,2.95-1.42-1.72-.71s-.49-1.43-1.47-1.67c-.99-.24-2.46-.72-2.46-.72l-1.72-.24-1.48,.47Z" style="fill:#efc441;"/><polygon points="392.58 40.11 394.79 42.25 397 43.2 395.77 40.83 392.58 40.11" style="fill:#efc441;"/><path d="M389.89,28.47l.24,2.38,1.72-.47s.49,1.19,1.47,1.66c.98,.48,3.19,1.67,3.19,1.67l2.7-.23s1.96,3.09,2.7,1.9c.74-1.19,1.97-2.61,1.97-2.61l-.98-.95-1.48-1.19-.24-1.19,2.21,1.43,1.23-.24,1.97-.71,1.48-2.13,1.48,.24,2.95-.71v-.95s-2.95-.48-2.95-.48l-1.72-.24-.24-1.43s-1.72-.24-1.23-1.66c.49-1.42,1.72-1.9,1.72-1.9l.49,1.66,1.96,.95,1.47,1.19s.98,0,1.97-.23c.99-.24,2.46-1.18,2.46-1.18l.49-.95-.98-1.19,.74-1.9-1.96-1.19-1.97,.23v-1.42s-2.46,.71-3.94,1.18c-1.48,.47-3.2,.95-3.2,.95l-1.97-.72h-3.2s-1.23,1.66-1.23,1.66l2.46,1.43,1.47,1.9-1.72,1.18-.74-1.66-2.21-.72-1.97,.47-.74-.71-2.21,.71-.98,.24-2.21,.47-.49,1.66,.74,1.66-1.23,1.19,.49,.95Z" style="fill:#efc441;"/><polygon points="493.4 410.6 494.13 412.63 494.62 412.76 494.27 410.61 493.4 410.6" style="fill:#efc441;"/><path d="M513.28,36.82l1.73,.25,1.49-.94s2.22-.22,1.25-1.66c-.97-1.44-3.93-1.94-3.93-1.94l-1.98,.7,.47,2.86,.98,.72Z" style="fill:#efc441;"/><path d="M423.35,21.63s4.67,.24,5.41,0c.74-.24,2.95-.47,2.95-.47l2.21-.95v-1.9s3.2-1.18,3.2-1.18l-.74-1.66h-2.7s-2.7-.48-2.7-.48l-.99,1.9-1.23,.24-.25-.95-5.66,.7,.98,1.43-1.23,.47-2.21-2.14-.74,1.19,1.96,3.09,1.72,.72Z" style="fill:#efc441;"/><polygon points="381.98 58.14 382.22 56.95 379.27 57.9 380.75 58.61 381.98 58.14" style="fill:#efc441;"/><path d="M274.11,34.48l1.96,1.67-.99,2.14,.49,.95,.98,1.43v3.33s.98,1.19,.98,1.19l.5-2.61,1.23-1.66,1.48-.47,.98,.71,.74-.95s2.21-.47,2.95-.71c.74-.24,1.23-1.66,.99-2.85-.25-1.19-1.47-1.66-1.47-1.66,0,0-1.23-.24-2.46-.24-1.23,0-1.23-1.19-1.23-1.19l-3.44-.72-.74,1.9-.74-1.19-1.96-1.19s-1.23,.24-1.72,1.19c-.49,.95,1.47,.95,1.47,.95Z" style="fill:#efc441;"/><polygon points="388.91 32.27 388.42 29.65 385.96 27.98 387.43 31.07 388.91 32.27" style="fill:#efc441;"/><polygon points="325.9 63.28 328.61 62.57 330.09 61.62 329.35 59.96 328.12 59.72 325.17 60.66 325.42 61.85 324.43 62.33 325.9 63.28" style="fill:#efc441;"/><polygon points="276.5 54.65 275.02 55.36 275.51 56.31 278.46 55.84 276.5 54.65" style="fill:#efc441;"/><polygon points="380.75 54.81 380.75 56 381.98 55.53 380.75 54.81" style="fill:#efc441;"/><path d="M128.17,322.72s-1.23,.71-2.22,1.19c-.98,.47-2.95,.24-2.95,.24l-.98,1.19-.74-.24c-.74-.24-1.48,.71-1.48,.71,0,0,0,1.19,.24,2.14,.25,.95,2.21,.71,3.44,.24,1.23-.47,.99-1.19,.99-1.19,0,0,1.47-.47,2.21-.71,.74-.24-.24-1.19-.24-1.19l.98-.95,.74-1.42Z" style="fill:#efc441;"/><polygon points="376.31 61.7 378.77 62.89 380.74 63.36 382.21 63.13 381.48 61.94 383.69 62.18 384.18 61.47 382.22 60.04 384.18 60.28 384.43 59.33 382.22 59.09 380.01 59.33 378.78 58.85 377.3 59.32 376.31 61.7" style="fill:#efc441;"/><polygon points="294.66 466.04 294.04 465.89 294.2 466.34 294.3 466.28 294.34 466.38 294.81 466.08 294.66 466.05 294.66 466.04" style="fill:#efc441;"/><path d="M427.58,501.18l-.48-1.19,.02-1.9s.52-3.2,.4-3.68c-.12-.48-.35-2.26-.35-2.26l-.24-.6,.88-2.01-.23-1.43,.75-1.42v-1.43s-1.22-.48-1.22-.48l-.36-.83-1.6-.13-.86-.36v.83s-.62-.84-.62-.84l.38-1.06-.36-.95-.73-.72-.61-1.19-.6-1.43-.85-.96-1.59-.49s-.98-.48-.85-.84c.13-.36,1.12-.94,.87-1.3-.24-.36-.61-.95-.61-.95,0,0-.73-1.31-1.09-1.2-.37,.12-1.35-.01-1.35-.01,0,0-.12-.36-.36-.83-.24-.48-.23-1.43-.23-1.43l-1.1-.6s-.98-.24-1.59-.49c-.61-.24-.49-.83-.49-.83,0,0,.5-.95,.13-1.19-.37-.24-.98,.11-1.6-.13-.61-.24-1.47-.37-1.47-.72,0-.36-.12-1.07-.12-1.07,0,0-.11-1.43-.48-1.9-.37-.48-1.85,.58-1.85,.58,0,0-1.1-.48-1.59-.84-.49-.36-.73-1.55-.73-1.55l-1.34-.84-.85-1.55-.98-.72-1.22-1.67-2.08-1.09-1.58-2.03-1.1-1.08-1.22-.96,.13-.83-.73-.6s-.73-.24-.98-.72c-.24-.48-2.2-.85-2.2-.85,0,0-.98,0-1.35-.01-.37,0-1.11,.47-1.11,.47l-.98-.13-.73-1.07s-1.1-.36-1.47-.13c-.37,.24-.75,1.89-.75,1.89l1.46,2.15s.73,.96,1.22,1.2c.49,.24,1.47,.84,1.47,.84l.36,1.31,1.72,.73,.11,1.54,.36,.83,.73,.96s.48,1.19,.85,1.08c.37-.12,.93,.29,.93,.29l.29,.78,.6,1.19,1.1,.96,.49,.48,1.35,.72h.62s1.22,1.32,1.22,1.32l1.7,2.15s.11,1.55,.11,1.9c0,.36,.11,1.66,.11,1.66l1.1,1.08,1.34,1.44,.61,1.19,.85,.96,1.09,1.79-.13,1.43,.97,1.08v1.31s.97,.72,.97,.72c0,0,2.07,2.63,2.06,3.34,0,.71,1.21,1.91,1.7,2.27,.49,.36,1.33,2.39,1.33,2.39,0,0,.11,1.54,.6,2.02,.49,.48,2.69,2.28,3.67,2.76,.98,.48,2.08,1.32,2.08,1.32l.48,1.31s1.46,2.03,1.95,2.15c.49,.12,1.47,.13,1.47,.13l.86,.84s.38-.95-.24-1.19c-.61-.24,.62-.11,.62-.11l.73,1.07s.85,.84,1.47,.84c.62,0,.99-.47,.99-.47Zm-25.49-35.98l-1.47-.72,1.23-.7-1.71-1.2-1.22-.48,.5-.83,.99-.35,2.19,2.63-.51,1.66Z" style="fill:#efc441;"/><polygon points="295.41 471.28 295.27 471.1 295.29 472.08 295.43 472.04 295.43 472.12 296.06 471.97 295.41 471.14 295.41 471.28" style="fill:#efc441;"/><path d="M373.16,424.1s-.62,.35-.62,.83c0,.47,.35,2.14,.48,1.43,.13-.71,.76-2.25,.14-2.26Z" style="fill:#efc441;"/><path d="M332.03,441.07l-.12-1.32-.6-1.48-.03-.96-.51,.19-.26-1.22-1.01-1.04-1.1-1.41-.66-.89-1.41-.72-.91-.79-1.13,.26-.09,.95,.47,.28s-.05,.59-.45,.91c-.4,.32-.32-.5-.32-.5l-.64,.18,.67,.77,1.02,.92-.74,1.37,.12,1.32-.27,1.53s-.12,1.3-.31,2c-.19,.7,.62,2.56,.83,3.05,.2,.49,.66,2.2,.87,2.58,.21,.38,1.78,.75,1.78,.75,0,0,1.78-.56,2.42-.74,.63-.18,1.61-1.41,1.61-1.41,0,0,1.23-1.32,1.39-1.67,.16-.34-.19-1.92-.19-1.92l-.4-.99Z" style="fill:#efc441;"/><polygon points="292.58 431.09 292.48 431.03 291.87 431.37 292.1 431.36 292.01 431.41 293.09 431.37 292.62 431.07 292.58 431.09" style="fill:#efc441;"/><polygon points="294.18 462.91 293.71 462.61 293.7 462.65 293.57 462.57 293.41 463.02 293.58 462.98 293.56 463.06 294.18 462.91" style="fill:#efc441;"/><polygon points="292.79 450.95 292.16 450.8 292.32 451.25 292.42 451.18 292.46 451.29 292.93 450.99 292.78 450.95 292.79 450.95" style="fill:#efc441;"/><polygon points="294.03 459.89 293.48 459.31 293.47 459.41 293.34 459.27 293.26 460 293.41 459.97 293.4 460.05 294.03 459.89" style="fill:#efc441;"/><polygon points="402.48 482.58 402.72 484.27 403.96 485 403.72 483.32 402.48 482.58" style="fill:#efc441;"/><polygon points="399.5 477.33 398.75 477.68 398.62 478.51 399.23 479.47 400.33 480.19 400.95 479.96 399.97 479 399.5 477.33" style="fill:#efc441;"/><polygon points="211.5 421.39 209.54 421.61 209.04 422.32 211.73 423.3 212.97 422.59 215.68 421.43 213.72 420.7 211.5 421.39" style="fill:#efc441;"/><polygon points="394.53 467.44 393.56 466.48 393.19 466.95 392.94 467.54 394.15 468.74 395.13 470.06 396.48 470.42 396.73 469.71 396 468.4 394.53 467.44" style="fill:#efc441;"/><polygon points="388.8 461.69 387.7 461.33 387.33 461.21 387.2 461.8 388.06 462.88 390.02 463.6 389.29 462.77 388.8 461.69" style="fill:#efc441;"/><polygon points="397.55 474.59 398.04 474.83 397.92 474 397.55 474.59" style="fill:#efc441;"/><path d="M374.24,411.76s-.12-1.07-.61-.6c-.5,.47-.76,2.61-.76,2.61v1.66s-.39,.95-.39,.95v1.31s-.03,2.14-.03,2.14c0,0-.13,1.07,.36,1.43,.49,.36,.25-.77,.13-1.25-.12-.48,.88-1.95,.88-2.31,0-.36-.11-1.31-.11-1.78,0-.48-.36-1.19-.23-1.66,.13-.47,.76-2.49,.76-2.49Z" style="fill:#efc441;"/><polygon points="404.94 486.7 406.18 488.15 405.69 485.98 404.94 486.7" style="fill:#efc441;"/><polygon points="290.59 427.05 290.45 426.95 290.52 427.52 290.65 427.43 290.67 427.56 291.06 427.29 290.59 426.99 290.59 427.05" style="fill:#efc441;"/><polygon points="290.35 423.81 290.29 423.63 290 424.12 290.17 424.11 290.14 424.16 290.59 424.12 290.43 423.67 290.35 423.81" style="fill:#efc441;"/><polygon points="292.79 467.1 292.16 466.95 292.32 467.4 292.42 467.33 292.46 467.44 292.93 467.14 292.78 467.1 292.79 467.1" style="fill:#efc441;"/><polygon points="291.11 455.02 290.13 454.87 290.29 455.33 290.4 455.28 290.43 455.37 291.25 455.07 291.07 455.04 291.11 455.02" style="fill:#efc441;"/><polygon points="289.51 449.74 288.88 449.59 289.06 450.38 289.16 450.24 289.2 450.42 289.65 449.78 289.5 449.75 289.51 449.74" style="fill:#efc441;"/><polygon points="290.76 447.93 291.23 448.23 291.24 448.19 291.37 448.27 291.54 447.42 291.36 447.58 291.4 447.38 290.76 447.93" style="fill:#efc441;"/><polygon points="290.23 457.85 289.66 458.34 290.13 458.65 290.14 458.6 290.28 458.69 290.37 457.89 290.21 458.04 290.23 457.85" style="fill:#efc441;"/><polygon points="291.21 429.56 291.2 429.6 291.07 429.52 290.91 429.97 291.08 429.93 291.06 430.01 291.68 429.86 291.21 429.56" style="fill:#efc441;"/><polygon points="292.62 458.39 292.15 458.08 292.14 458.13 292.01 458.04 291.81 458.99 292 458.8 291.95 459.03 292.62 458.39" style="fill:#efc441;"/><polygon points="291.38 452.46 290.76 452.31 291.27 452.76 291.29 452.7 291.41 452.8 291.52 452.5 291.38 452.46 291.38 452.46" style="fill:#efc441;"/><polygon points="292.77 461.4 292.31 461.1 292.29 461.14 292.16 461.06 292.01 461.51 292.18 461.47 292.15 461.56 292.77 461.4" style="fill:#efc441;"/><polygon points="292.01 453.82 291.87 454.46 292.05 454.35 292.01 454.5 292.77 454.01 292.62 453.97 292.63 453.97 292.01 453.82" style="fill:#efc441;"/><polygon points="292.17 425.61 292.16 425.59 291.81 425.54 292.32 426.05 292.27 425.89 292.46 426.09 292.31 425.63 292.17 425.61" style="fill:#efc441;"/><polygon points="292.06 456.89 292.19 457.05 292.31 456.27 292.15 456.31 292.16 456.23 291.54 456.38 292.05 457.01 292.06 456.89" style="fill:#efc441;"/><polygon points="292.93 428.35 292.46 428.05 292.45 428.09 292.32 428.01 292.11 429.05 292.3 428.84 292.25 429.09 292.93 428.35" style="fill:#efc441;"/><path d="M548.15,223.79l1.11-1.18s-.12-.83-.36-1.19c-.24-.36-1.36,1.41-1.36,1.41l-.25,.95-.5,1.54-.51,1.66,.99-.82,.88-2.37Z" style="fill:#efc441;"/><polygon points="554.8 192.27 555.46 193 556.98 190.36 557.73 189.16 556.33 188.19 555.31 190.11 554.8 192.27" style="fill:#efc441;"/><path d="M553.55,483.17h-1.11s-.86,.34-.86,.34l.73,.48s.86,0,1.23,.37c.37,.36,2.58-.1,2.58-.1l1.24-1.42-.86,.11-2.95,.22Z" style="fill:#efc441;"/><polygon points="557.75 186.75 557.02 185.3 556.26 186.5 557.24 187.95 557.75 186.75" style="fill:#efc441;"/><polygon points="553.45 193.95 553.42 198.04 554.92 198.29 554.7 194.68 553.45 193.95" style="fill:#efc441;"/><polygon points="607.54 48.15 606.31 48.14 608.03 49.11 607.54 48.15" style="fill:#efc441;"/><path d="M573.54,489.02l-1.1-.37-1.72-.25-.98-.96-1.59-.49-.36-.83-1.35-.84s-1.34-1.08-2.08-1.44c-.73-.36-1.09-1.67-2.81-1.68-2.73-.02-.75,1.06-2.23,1.77-.33,.16-.74,.35-.74,.35,0,0,.24,.83,.36,1.19,.12,.36-1.85,.7-1.85,.7l-.86-.13-.36-.95-.62,.59,.23,1.55-.99,1.06-1.48,.7s-.5,.59-.62,1.06c-.12,.48-1.6,.7-2.09,.7-.49,0-.48-1.19-.48-1.19l-.73-.36,.13-1.07-1.35-.72s.13-.71,0-1.19c-.12-.47-.86-.24-.86-.24l-.6-1.31-.36-.83,.38-1.3s.75-1.54,.75-2.13c0-.59-.6-1.31-.6-1.31l-.61-1.08-2.45-.61s-.61-.24-1.35-.37c-.74-.13-2.58-.14-2.58-.14l-1.49,1.41-.49-.72-.37-.24-1.23,.46-.62,.47v1.31s-.5,.11-.5,.11l-.37,.12-.62,1.06,.24,.48,1.23,.13s1.1,.48,1.83,.96c.73,.48-.38,1.66-.38,1.66l1.1,.6,.74-.35,.49,.48,.86,.13,2.95,.02,1.47,.13s0,1.07-.62,1.18c-.62,.11-2.58-.62-2.58-.62l-.87,1.06h-1.11s.12,1.06,.12,1.06c0,0-.86,0-1.23-.13-.37-.12-1.59-.37-1.59-.37v1.31s1.83,.49,1.83,.49l.73,.48,1.95,2.39-.14,1.66-.5,1.06,.6,1.43,1.72,.72s1.49-1.29,1.86-1.89c.37-.59,.14-1.66,.14-1.66l-.12-.71-.11-1.66,.5-1.66,1.23-.23,.75-.94,.73,1.19-1.36,.7-.62,.83s-.52,3.2-.15,3.2c.37,0,1.47,.96,1.47,.96l.12,.59,1.1,.36,.48,1.31,1.6-.46-.75,1.18,3.07,.85,2.94,1.8,3.32,.5,2.8,3.11,1.35,.25s-.38,.71-.38,1.06c0,.36,1.09,2.5,1.08,2.98,0,.47-.38,1.66-.38,1.66l.11,1.43,1.59,1.2h-1.11s.85,1.19,.85,1.19l-.63,2.37-.63,1.42,.98,.24s1.47,.37,2.09,.49c.61,.12,1.35,.48,1.35,.48l.49,.6,.85,1.08,.23,2.14,2.09,.61,1.59,1.08,.24,.04h.28s.41-11.02,.41-11.02l-1.11-3.11,.12-1.53,1.17-1.19,.7-17.66-.55-.32-.98-.72Z" style="fill:#efc441;"/><path d="M546.73,504.49c-.13,.36-.62,1.3-.13,1.3,.49,0,.86,.24,.86-.11,0-.36,.13-1.31,.13-1.31,0,0-.74-.24-.86,.11Z" style="fill:#efc441;"/><polygon points="539.85 503.49 539.85 504.32 540.84 503.38 540.97 502.07 540.48 502.54 539.85 503.49" style="fill:#efc441;"/><path d="M550.75,479.47l.61,.48,.73,.48s1.35,.37,1.34,1.08l1.85-.58-.86-.48-.98-.25-1.71-1.08-.99,.35Z" style="fill:#efc441;"/><path d="M534.14,510.45c.13-.59-.86-.48-.86-.48l-.5,.95-.99,1.18-.13,.83,.74,.13s.62-.47,1.11-.59c.49-.11,.5-1.42,.63-2.01Z" style="fill:#efc441;"/><path d="M562.16,512.69l-1.73,.7-1.49,2.36-.13,.83,.23,2.14s2.34-.58,2.83-.69c.49-.12,1.5-2.84,1.63-3.43,.13-.59-1.34-1.91-1.34-1.91Z" style="fill:#efc441;"/><path d="M533.58,491.73l-.25-1.31s-.25,.12-.37-.36c-.12-.48-.86-1.19-.99-1.78-.12-.59-1.85-1.54-1.85-1.54l-1.6-1.07-1.97-.24-1.48-.24-.25,.59-1.35-.35-.37,.71-.98-.12-.61,.48-1.48,.48-.86,1.66,.37,.59,.37-.36,.61-.71,.25,1.31,1.35,.12s.99-.12,.99-.48,.12-.95,.12-.95c0,0,.12,.59,.74,.48,.61-.12,1.23,.47,1.84-.12,.62-.59,1.6-.83,1.6-.83l.74,1.54s0,.95,.86,.71c.86-.24,2.09-.12,2.09-.12l1.23,1.31,1.23,.59Z" style="fill:#efc441;"/><path d="M546.5,502.71c-.37,.36-1.24,1.65-1.24,1.65l-.38,.95-.5,.71v.95s-.38,.95-.14,1.54c.24,.6,.23,1.43,.85,.96,.62-.47,1.5-2.36,1.5-2.36,0,0-.36-.96-.6-1.79-.24-.83,.26-1.42,.26-1.42h1.35s.01-1.3,.01-1.3c0,0-.74-.24-1.11,.11Z" style="fill:#efc441;"/><polygon points="476.37 173.01 476.1 174.91 477.07 176.58 478.06 175.64 479.04 176.12 480.03 175.18 478.82 173.5 476.37 173.01" style="fill:#efc441;"/><polygon points="474.37 177.03 474.63 175.14 472.9 176.07 474.37 177.03" style="fill:#efc441;"/><polygon points="554.93 121.51 553.1 121.2 552.56 122.83 552.95 124.5 553.82 125.96 554.22 127.4 554.74 126 555.76 123.68 555.6 122.02 554.93 121.51" style="fill:#efc441;"/><polygon points="472.64 317.49 472.02 317.96 474.11 318.33 472.64 317.49" style="fill:#efc441;"/><path d="M492.56,407.49c-.37-.12,.48,1.43,.48,1.43,0,0,.38-.59,.38-1.07,0-.48-.86-.36-.86-.36Z" style="fill:#efc441;"/><polygon points="550.53 218 551.15 218 551.77 217.18 551.65 216.34 550.53 218" style="fill:#efc441;"/><path d="M603.51,53.66h1.23s-2.45-1.43-2.45-1.43c0,0,1.24-1.42-.22-2.61-1.47-1.2-2.2-1.92-2.2-1.92l-1.23-.48-1.22-.96h1.72s1.23-.69,1.23-.69l.99-.23,2.7,.5-.23-1.43-.23-1.66s-.23-2.38,.27-3.32c.5-.95,1-2.13,1-2.13l-.98-.72s-.5,.95-1.97,.22c-1.47-.72-3.92-1.45-3.92-1.45l-3.19-.74-2.45-.97-2.22,.7-1.96-.25v1.42s-3.2-.5-3.2-.5l-1.48,.7,.49,.72s1.47,.49,2.2,.97c.73,.48,1.21,1.91,1.21,1.91l-.99,.47,1.47,.49s1.72,.01,1.72,.73c0,.71-.5,1.18-.5,1.18,0,0-.97-1.67-2.2-1.68-1.23,0-1.97,.22-1.97,.22l.26-1.66-.48-1.19s-.98,0-1.71-.96c-.73-.96-.48-2.14-.48-2.14l-1.22-.72-1.71-1.67-1.23,.47-1.24,.94-.48-1.19-1.96-.25-2.46-.49,.98,.96-2.95-.5-.24-1.19-2.95-.5v.95s-2.22-.49-2.22-.49l-.48-.95-3.92-1.93-1.23,.23,.24,1.19-1.71-1.44-.97-1.67-2.44-1.68-2.21-.02-1.97,.22h-1.48s0,.94,0,.94l-2.21-.02-1.48,.46-.97-1.2-2.22,.22-2.21-.25,.49,.72-2.46-.26-2.23,2.12-1.48,.7s-2.21-.49-3.69,.45c-1.48,.94-3.93-.5-3.93-.5l-2.96,1.4-1.72,.22-2.23,2.36,1.71,1.2,1.96,1.2,1.47,1.2,1.96,1.2s1.21,2.38,.96,3.1c-.25,.71-.76,2.13-.76,2.13,0,0-1.72-.01-2.46-.49-.73-.48-1.96-1.44-3.92-1.22-1.97,.22-2.95-.26-2.95-.26l-.97-1.67-2.94-.97s-1.23,0-.74,.71c.49,.72,.97,1.43,.97,1.43l-1.23,.47s-4.19,.92-5.17,1.15c-.99,.23-3.44-.03-3.44-.03l-1.98,1.65-1.97,.7-3.21,1.4-1,1.42,.47,2.38-2.2-1.92-1.48,.46-.73-1.43h-1.72s-.49-.97-.49-.97l-1.96-.96,.26-1.42-.23-1.9s.25-.71-.97-1.43c-1.22-.72-3.19-.97-3.19-.97l-1.48,.7-1.22-.96-3.69,.45-1,1.65-.89-1.44-5.44,3.28-3.86,1.84-2.22,2.61,1.23,1.66-3.19-1.91-3.23,.78-1.47-.95-1.72-.95-2.71,1.42v-1.42s-3.44,.47-3.44,.47l-1.72,.24v-2.14s2.22,.48,2.22,.48v-1.19s-3.44-1.67-3.44-1.67l-1.63-.23-4.64,.64-.74,.95-.5,2.14,.49,2.61,.49,.71-.49,2.14-1.48,.47-2.21-.95-.49-1.9,.98,.48,1.23-.47-1.47-.95,.99-1.9-.49-1.66-2.71,2.13-2.71,1.66-.25-.71,1.48-2.14,2.71-.47s1.23-1.42-3.2-.48c-4.43,.94-7.71,.45-9.43,.68-1.72,.23-3.94,1.66-5.41,1.89-1.48,.24-3.2-.24-1.97,1.18,1.23,1.43,2.7,1.67,2.7,1.67l-1.97-.24-1.23,1.42-2.22,1.66,.49,.95,.73,1.66s2.96-3.56,3.2-1.42c.24,2.14-.74,2.61-.74,2.61,0,0,1.23,.24,1.47,.95,.24,.71-1.48,3.09-1.48,3.09l.49,1.66-2.21-.48-1.72-.95-1.23,.24-1.23,.47-1.48-.71-.98-.24-2.7,.23-.74,1.42,2.46,2.38-1.23,.95-2.21-1.19h-1.23s-2.95,1.42-2.95,1.42l-2.7-2.14s-.73-2.61-1.72-2.38c-.99,.24-.5,2.37-.5,3.09,0,.71,.73,3.33,1.47,4.28,.74,.95,1.96,1.43,1.22,2.14-.74,.71-2.46,1.66-4.67,.71-2.21-.95-2.45-2.38-3.19-2.38-.74,0-2.21-.24-2.21-.24l-1.72-.72-.49-1.19,1.47-.24-3.93-1.43,.98,1.19-1.23,.24s-.49-.47-1.96-.95c-1.48-.48-2.95-.48-2.95-.48l-1.23-.95-1.97,1.42,.49,1.43,1.47,1.67-3.68-2.62,.25-1.42-.24-.95,3.2-2.13,.49-.71,.49-1.42,2.46-2.13-.74-.95-1.97-.72s-1.97,0-2.95,0c-.98,0-2.21,.47-2.21,.47l-1.72-.48-1.72,.95-1.23,.95-1.96-.95h-.74s-1.48-.24-1.48-.24l-1.72-.71-1.72,1.42v1.66s1.97-.71,1.47,.24c-.49,.95-2.71,1.66-2.71,1.66l.49,1.19s3.69,.24,3.44,1.19c-.25,.95-3.2,1.66-3.2,1.66l-1.72-.24-2.46,1.66s-5.41,2.13-6.15,1.41c-.74-.71-.24-2.38-.24-2.38l-2.21-1.19-3.2,.95-1.48,.71s-.49,1.42-2.22,1.18c-1.72-.24-3.2,.71-3.2,.71l-1.72,.95s-1.72-.72-.98,.71c.73,1.43,1.47,1.67,.98,2.61-.49,.95-.99,1.66-.99,1.66l-.73-3.09-.73-1.43v-1.66s-1.23-.71-1.23-.71l-1.96-1.43-.5,1.66v1.43s-.98-.71-2.21-1.19c-1.23-.48-2.46,.47-2.46,.47,0,0,.49,.48-.98,.47-1.48,0-2.7,.47-3.2,1.42-.49,.95,0,2.61,0,2.61,0,0,3.45-.94,4.18-1.66,.74-.71,1.47,.24,1.47,.24,0,0,0,1.19-1.97,1.9-1.97,.71-4.18,.94-4.18,.94l-1.23,.24-.74,1.19-4.43,1.18-.98,.95,1.22,2.62-2.46-.24s-.86,1.32-1.14,1.76c-.06,.09-.09,.14-.09,.14,0,0-.16-.06-.36-.14-.36-.14-.87-.34-.87-.34,0,0-.24,.15-.53,.34-.42,.27-.95,.61-.95,.61,0,0,.15-.25,.37-.61,.51-.84,1.36-2.24,1.36-2.24,0,0,1.72-2.37,.99-2.85-.74-.48-1.23-1.43-1.23-1.43l2.46-.23,3.45-3.32,1.23-1.66,2.95-1.42,1.23-1.19-1.72-.24s.74-.95,1.48-.95c.74,0,2.71-1.42,2.71-1.42,0,0,.99-1.9,.99-2.85,0-.95,2.95-.47,2.95-1.66,0-1.19,0-2.14,0-2.14l-1.23-1.67,.25-.71-1.72-1.19-.49,1.19-1.47-.72-2.21-1.9,2.46,.24,3.44-.71s.25-3.32-.98-4.04c-1.23-.71-3.93-1.43-3.93-1.43l-.99,1.19-.98-.95-.74-1.19-1.72-.48-2.22,1.18-3.2,1.18-2.21-.24-2.21,.47-6.4,2.6-.49,1.42-1.72,1.9,.49-2.61c.16-.5-.39-.91-.71-1.21-.63-.58-1.58,.77-2.29,.27-.27-.19-.72,.24-.57-.61h-.49c.14,.46-.57,.08-.49,.47-.35,.01-.78,.06-.94-.26-.14-.28-.1-.63-.53-.69,.17-.12,.31-.24,.25-.47,.49-.1,1.12,.3,1.44-.25,.11-.18,.12-.49,0-.67-.05-.08-.29-.03-.45-.03h.25c-.47,.2-.92,.01-1.18-.28-.69-.79-.2-1.76,.2-2.57-.42,.08-.03-.61-.49-.48-.43,.12-1.58-.19-1.47-1.19,0,0-2.33,.12-2.83,1.54-.49,1.42-.25,2.61-.25,2.61l-.99,.71-1.48,3.56,1.23,1.19v.95l.98,.48,1.47,1.19,1.97-.95-.5,2.37-2.21,.47-.74-1.19-4.18,.94-2.71,.95,.98,1.9,1.96,1.19,1.96,1.9-2.21-.48-1.48-.24-1.23,1.9-.49-1.43-1.97,1.66-1.72-1.67-2.71,2.13v-2.85s-3.44,2.13-3.44,2.13l-3.2,1.42-.25,1.66-2.46,.95-1.97,.95,1.72,.95-4.67,.94h-2.95s.49,.95,.49,.95l-2.46,2.37,.98,1.43-2.71,1.18-.74,.95-1.48,.95,.98,1.9s.06,.17,.16,.43c.28,.74,.82,2.19,.82,2.19l2.95,.48-2.22,.95,2.46,1.19,.74,2.14-3.2,2.84-.25,1.42-1.23-1.19,1.97-2.13-.73-1.9h-2.21s-2.22,1.89-2.22,1.89l.24,1.43-1.96-.72-1.48,.71-4.43,1.42-2.95,1.18-.74,2.14,1.47,.95-.99,.47,.98,1.43,1.47,.71,.49,1.43-.25,.71,2.7,1.19,1.72,.24,2.21,.48v.95s2.21-1.42,3.44-.23c1.23,1.19,0,3.56,0,3.56l1.23,.95s2.45,3.09,2.21,3.8c-.25,.71-.74,1.9-.74,1.9v1.43s.49,.95,1.22,1.9c.74,.95,3.19,1.9,3.19,1.9l-.99,1.42-2.21-.95-.98-2.14-3.19-1.19-1.72-2.38-.73-2.38,.5-2.37,.99-2.14,.25-2.14h-1.47s-2.71,1.18-2.71,1.18l-2.21,.71-.74-1.19s-4-1.6-6.14-2.86c-5.65-3.33-6.15-.25-6.15-.25l2.46,.72,.24,1.43-1.72-.24s3.43,4.04,2.45,4.04c-.98,0-1.72-1.43-2.95-1.67-1.23-.24-2.7-.72-3.69,0-.98,.71-1.73,2.37-1.73,2.37,0,0,.24,1.66,1.96,2.38,1.72,.72,3.69,.24,3.69,.24l3.44,1.43,.99-2.14,1.23,.24,2.21,3.57-1.48,.24-1.72-1.19-1.97,.71-2.7-1.19-2.46-.72-4.18-1.19-.24-2.38,.49-.95,.5-4.04-1.23-1.43-1.47-.72-.98-.48-.74,2.14,.74,.71s1.72,.24,.24,3.33l-2.46,3.08,.24,3.33,2.7,1.9,3.19,3.57-2.22,2.61,1.96,2.85,.24,3.8,2.95,.72,2.46-1.18,2.22-1.42,2.95,.48,3.93,2.86,1.47,2.14,1.22,2.14s1.03,1.66,1.36,2.2c.07,.11,.11,.17,.11,.17l3.69,.48,1.72,1.19,1.72,.48-3.93-.13-3.93-.72-1.72-.6s-.05-.37-.12-.88c-.14-1.06-.37-2.68-.37-2.68l-3.19-3.33-3.68-1.67s-1.23,1.19-1.97,1.42c-.74,.24-1.72,2.61-1.72,2.61l.24,2.85s.19,.38,.41,.8c.27,.52,.57,1.1,.57,1.1,0,0,1.47,.48,0,2.38-1.48,1.9-1.72,2.85-1.72,2.85,0,0-.74,3.56-1.24,4.27-.49,.71-2.7,.95-2.7,.95h-.74s-.74,1.42-.74,1.42l-1.72-1.19s-1.23-.48-2.21,0c-.99,.47-2.95,.71-2.95,.71l-1.72-2.14s1.97,.72,2.7,.72c.74,0,1.48-.71,1.48-.71,0,0-1.72-2.14-.98-1.66,.74,.48,3.93,.96,3.93,.96l1.73-2.61-.25-1.9,.74-2.61s1.97-.95,1.97-1.9c0-.21-.03-.42-.09-.62-.21-.73-.7-1.44-.89-1.99-.25-.71,1.23-2.37,1.23-2.37l-.24-.95-1.97-.48-2.21-3.57-1.96-2.38-.73-2.14v-1.66s-1.47-.71-1.47-.71l1.23-.71s-1.22-4.28-2.45-4.52c-1.23-.24-2.21-.95-2.21-.95l.25-2.14v-2.61s.25-1.66,.25-1.66l-2.21-2.62-2.7-.24h-1.97s-1.35-.24-1.35-.24l-1.35,.47-.47-.62-1.58-.61s-.77,2.37-.8,4.27c-.03,1.9,.69,3.33,.69,3.33,0,0,.71,1.67,.44,3.33-.27,1.66-2.23,.92-2.23,.92,0,0-.99,.22-2.22,.68-1.24,.46-.79,4.03-.54,3.32,.26-.71,1.71,.97,1.71,.97l1.68,2.87s-1.72-.02-1.73,.93c-.01,.95,.21,2.14,.21,2.85-.01,.71,.95,1.91,.95,1.91l1.25-1.17s1.72,.02,3.42,1.95c1.69,1.92,2.43,2.17,2.43,2.17l.95,2.15s.53,1.16,.73,2.22c.03,.13,.05,.27,.06,.39v.57s-.31,.53-.31,.53l-.7-.36-1.58,5.45-3.28,8.26-5.63,3.96-5.04,6.45-.23,8.38,3.52,13.58-.49,5.06,1.31,4,2.34,2.6-.59,3.62,2.23,1.25,3.52,6.68,1.88,11.62,6.25,6.79-1,1.7,.64,1.58-.33,2.79-.84,1.45,1.05,2.21-1.99,1.64,.53,1.08,2.99,1.3,1.64,2.21-1,1.98-3.11,.68-.82,1.13h-1.52l-1.76-.79-1.05-1.64h-2.64l-1.58,1.13-3.22-.23-2.05,1.92-4.63,.96-1.7-1.36v-1.47l-1.82-1.98-2.42-.57-3.32,.45-1.88,1.13-2.54-1.06-1.97,.89-2.11,1.75-1.17,.28-1.05,2.26-1,.4s0,.07,.01,.19c.05,.84,.28,4.17,.28,4.17l-2.05,.17-.76-2.72h-1.17l-1.52,2.26-.23,4.3,1.64,.62-.12,1.41-1.17,.4-.1,1.04,3.55,3.15,3.98,.57,1.23,2.21-1.11,1.87,3.16,.62,.21,.94-.09-.91,1.13-.34s1.8-2.49,2.56-2.96c.76-.47,2.43-2.72,4.87-.03l1.49,.15,.14-.96,1.38-.21,1.24,.38,.48,.85,.97,1.46,.09,1.69-.14,.84-.53,1.31s.49,.37,.48,.73c0,.36-.4,1.32-.4,1.32l-.64,.59s.99,.5,1.6,.87c.62,.37,1.23,.87,1.23,.87l-1.38,.09-1.73-.64-2.12,.2s-.98-.98-1.37-.03c-.39,.96-1.3,2.38-.81,3.12,.48,.73,1.22,1.35,1.22,1.35l-.51,.59-1.49-.51-.74-.38-1.61-.51s-1.13,.46-.28,1.44c.85,.98,1.72,1.36,1.72,1.36l.52-.95,1.59,1.24,1.18,3.03s-.28,1.56,.21,1.93c.49,.37,1.12,.02,1.12,.02,0,0,1.62,.15,2.35,.89,.73,.74,2.72,1.02,2.84,1.38,.12,.36,.22,1.33-.15,1.44-.38,.11-.65,1.31-.65,1.31l.47,1.45,1.68,2.92,.75,.14s-.35-1.09-.34-1.69c.01-.6-.48-.97-.48-.97l.77-1.07s-.25,.12-.11-.6c.14-.72,1.77-1.05,1.77-1.05,0,0,.27-.84,1.38-.21,1.11,.62,.84,1.58,1.2,2.19,.36,.61,1.59,1.6,1.59,1.6,0,0,1.11,.74,1.1,1.23,0,.48-2.3,2.85-2.3,2.85h-.5s.16-1.45,.16-1.45l-2.38,.44-.14,.72-.75-.14-.36-.85-.53,1.56-.14,.84s.1,1.09,.21,1.93c.11,.85,.96,1.83,.96,1.83l1.13-.46-.36-.85,.99,.26s1.38-.57,1.25,.02c-.14,.6-.89,.95-.89,.95l.11,.6s-.25,0-.62,.11c-.38,.11-.26,.6-.26,.6,0,0,.22,1.57,.59,1.58,.38,0,.63-.35,.63-.35,0,0,1.98,.88,1.97,1.24,0,.36,.09,1.45,.09,1.45l-.9,1.55,.11,.48-.55,2.76,.73,.98-.51,.83-.53,1.56s-1.63,.45-2.5,.31c-.87-.14-3.49,.05-4.61-.21-1.12-.26-3.44-2.36-3.81-2.72-.37-.37-2.37-.99-3.49-1.13-.94-.12-1.97-1-1.97-1l-1.29-3.06-1.08-1.95,.39-.96,.41-1.92s-.21-1.69,.39-.84c.61,.86,.83,2.18,.94,2.55,.12,.36,.66-2.03,.66-2.03l-.7-2.18,.51-.47,2.36,.17,.99,.5,.15-1.08-1.96-1.72-1.98-.76-.86-.5s-1.12-1.61-2.14-3.01l-2.19,.69-.59,1.02-1.29,.11-1.23-.96-.41-1.02-1.52-.45-2.52-.34-.59-1.47-2.58-1.02-2.29-.17-.55-.45-4.73-2.66-2.81,.34-4.28-.51-1.31-1.09-4.37,.3-1.92,1.11,.81,.38c.74,.31,1.51,.59,2.45,1.04,1.98,.95,.75,2.38,.75,2.38,0,0,4.95,3.8,2,5.72-2.95,1.92-6.91,.98-6.91,.98,0,0-3.46,.49-4.44,.73-.99,.24-6.18-.69-6.92-.93-.74-.24-1.24-1.19-1.24-1.19l-2.23-.71-2.47-.47,.49-.72-3.21-.23s-3.2,1.44-3.94,1.68c-.74,.24-3.2,2.16-3.2,2.16l-3.95,.73-1.97,1.2-2.22-.23-3.7,.25-.24,1.43,1.98,.95-3.45,.49s.03,.16,.06,.36c.08,.42,.19,1.07,.19,1.07,0,0-3.21-.46-3.95-.22-.74,.24-2.97-.7-4.44,.97-1.47,1.67-1.71,3.35-1.71,3.35l.5,.71,2.22-.25-1.23,1.91,2.23,1.18-1.97,1.92,1.24,1.43,1.97-.25,.5,1.67-.49,.96,.75,1.19,2.97,.94-2.96,.49,.99,.95s1.24,.95,1.98,.71c.74-.24,1.97-.48,1.97-.48,0,0,2.97,1.9,4.45,1.89,1.48,0,3.21-.73,3.21-.73l1.23-1.67,.24-.95s2.96-.49,4.2,.22c1.24,.71,2.97,2.61,5.19,2.36,2.22-.25,5.92-1.22,6.9-2.17,.98-.96,1.48,.47,2.47-.49,.98-.96,1.48-1.2,1.48-1.2,0,0,1.72-.48,1.24,1.19-.49,1.67-1.72,2.39-1.72,2.39l-.24,2.62,1,3.1-.98,1.43s-2.68,10.03-3.65,12.89c-.98,2.87-4.43,3.12-4.43,3.12l-1.34-.24-.33,4.38,.95,1.11s0,1.43,1,2.86c.99,1.43,2.73,4.28,2.73,4.28,0,0,.1,.32,.27,.81,.46,1.29,1.46,3.74,2.72,4.42l.37,.6c.86-1.32,.36-2.03,.36-2.03,0,0-.48-1.61-.53-2.99-.02-.61,.04-1.17,.27-1.54,.74-1.2,2.2-6.21,2.2-6.21,0,0,.26,3.58,.02,5.72-.08,.72,0,1.42,.16,2.02,.3,1.19,.84,2.03,.84,2.03l3.22,1.66s2.49,5.48,3.23,5.71c.74,.24,3.47,3.56,3.47,3.56l1.74,3.57,.99,.95s1.97-.25,3.71,1.42c1.74,1.66,2.74,5.71,2.74,5.71,0,0,.51,4.77,1.01,5.48,.5,.71,2.97,3.09,2.97,3.09,0,0,2.96,.23,3.71,1.18,.74,.95,6.21,10.23,6.96,11.18,.74,.95,3.22,3.8,2.98,5s-.97,3.58-.97,3.58l1.99,2.62v3.58s1.75,1.42,1.75,1.42c0,0,1.25,2.86,2.98,2.85,1.73,0,3.7-.49,3.7-.49l.74-.72s.98-2.15,3.45-2.16c2.47,0,5.67-1.69,5.67-1.69,0,0,1.48-.48,3.45-.97,1.97-.48,3.2-2.4,4.19-2.64,.99-.24,2.71-1.44,4.44-1.69,1.73-.25,4.19-1.45,4.19-1.45l3.95-.49s-.51-3.1,.97-3.82c1.48-.72,4.19-2.16,4.19-2.16l5.43-1.45,.24-1.43,.24-1.19s3.95-1.21,4.19-2.16c.24-.95,.24-1.91,.24-1.91,0,0,4.19-2.16,4.19-3.12,0-.95,.72-4.3,.72-4.3l1.73,.23,.99-.48v-2.39s2.94-3.11,2.94-3.11l.34-4.66s-2.58-.82-3.08-2.01-1.23-2.38-5.2-3.56c-4.04-1.2-5.93-.93-7.18-4.26-1.25-3.33-.28-7.63-1.51-7.39-1.23,.24-1.71,4.06-1.71,4.06l-1.48,.24-3.68,5.02s0,1.67-1.97,1.92c-1.97,.25-3.95-.22-3.95-.22,0,0-2.22,1.2-3.95,.73-1.73-.47-1.49-2.14-1.49-2.14l1.23-1.67-.5-.95,.73-1.67-.5-1.67-1.49-1.66s-1.48,0-1.48,1.44c0,1.43-.73,1.91-.73,1.91l1,2.38-.98,1.2-1-4.05h-1.48s-1.98-2.37-1.98-2.37l.49-1.67-1.74-1.9-3.22-1.66s-.03-.15-.08-.38c-.14-.67-.42-2-.42-2l-1.49-1.43v-1.43s-2.73-2.85-2.73-2.85l.49-1.43,.99,.71,.74-.48-.75-1.43,2.96,.47v-2.62s1.47,0,1.47,0l.75,1.67h1.97s3.23,4.75,3.23,4.75v1.43s.99,.23,.99,.23c0,0,1.99,3.33,2.73,3.33,.74,0,2.22-.96,2.96-.49,.32,.2,1.53,.88,2.82,1.58,1.74,.95,3.61,1.97,3.61,1.97,0,0,1.24,1.66,2.23,1.18,.98-.48,3.95-.97,3.95-.97,0,0,1.47-2.15,3.94-1.92,2.47,.23,2.97,2.61,3.23,4.28,0,0,.89,1.34,1.13,.98,.24-.36,2.53,.89,2.53,.89l1.98,.21,1.48-.26,1.74,.93,2.48,.44,1.23-.5,1.99,.68,2.72,.2,.73-.49,1.97-.51,1.98,.45,2.7-1,1.48,.22s.74-.25,1.72-.27c.99-.02,1.96-.98,1.96-.98l1.74,.45,1.49,.45s1.71-1.22,2.46-.75c.75,.47,2.01,1.88,2.01,1.88l.76,1.18,1.49,.69,2.31,.28,.75,.35,1.1,1.73c1.74,.93,2.73,1.16,2.73,1.16l1.23-.02-.72,1.2s.26,1.19,1.26,1.65c.99,.46,2.47,.45,2.47,.45l2.96-.04,.97-1.44-.22,1.91-2.46,.99s-.47,1.44-1.22,1.21c-.75-.23-.98,.73-.98,.73,0,0,1.99,1.17,3,2.35,1,1.18,2.01,2.6,3.01,3.54,1,.94,2.73,1.16,2.73,1.16l2.46-.75,2.68-2.9-.76-1.66,.23-1.2s1.23-.25,1.47-.97c.24-.72,1.31-1.6,1.31-1.6,0,0,.17,1.1-.31,1.82s-.97,1.68-.97,1.68c0,0-.48,1.2,.03,1.91,.5,.71,1.49,.7,1.49,.7,0,0,.51,1.19,.52,1.9,0,.72,.04,2.86,.04,2.86l-.97,1.68s.03,2.39,1.04,4.04c1.01,1.66,2.03,4.03,2.03,4.03l.51,1.19s1.02,2.61,1.28,3.56c.26,.95,1.52,2.84,1.52,2.84,0,0,.28,2.14,.78,2.85,.5,.71,2.5,2.59,2.5,2.59l1.02,2.61s1.18,1.11,1.72,1.62c.17,.16,.28,.26,.28,.26,0,0,.8,4.28,1.31,5.71,.51,1.42,1.29,3.8,2.79,5.45,1.5,1.65,2.02,3.55,2.78,4.5,.75,.94,1.53,3.32,1.53,3.32l.51,1.42-1.75-1.89s.52,1.66,1.78,3.79c1.26,2.13,3.01,3.78,3.01,3.78l3.19-1.47s.24-.48,.48-1.2c.24-.72-.27-2.14,.71-2.39,.99-.25,2.71-.75,2.71-.75l1.22-.97s-1.23,.25-1.24-.46c-.01-.71,.71-1.92,.71-1.92l1.96-1.22s1.47-.5,.96-1.68c-.51-1.19-.75-.94-1.26-2.13-.51-1.19-.06-4.53,.68-4.78,.74-.25,1.19-3.59,.67-5.25-.34-1.1-.68-1.78-.86-2.12-.1-.17-.15-.25-.15-.25l.48-1.2s-.55-4.29,.17-5.73c.72-1.44,.69-3.82,1.44-3.36,.75,.47,1.96-1.22,1.96-1.22,0,0,1.48-.02,2.71-.75,1.22-.73,.96-2.16,.96-2.16,0,0,1.19-3.12,2.18-2.89l1.46-1.45,1.68-3.12,1.21-1.68,1.71-1.21,1.71-.98s-1.19-1.18-.51-1.42c1.18-.43,1.01,1.66,1.74,.93,.73-.72,3.89-4.58,4.86-5.55l.48-1.2s-2.23-.93-1.26-1.89c.97-.97,1.46-1.21,1.46-1.21l1.46-1.45,.48-.72,.56-2.06,1.18,2.44,.56-2.05,.66,1.33-.24,.95,.85,1.4,.98-.25-.26-1.66,.99,.7,.51,1.18,.48-.96s-.49-2.46,.26-1.75c.75,.7,.98,1.98,.98,1.98l1.47-.25,.2-1.4,.92,.21s-.07,.7,.67,.7c.74,0,.98-.48,.98-.48l.98-.25s.59-.73-.16-1.43c-.75-.71-1.25-1.65-1.25-1.65l.99,.7,1.25,1.65,1.51,2.01-.35,2.57,1.32,.65,.31,2.25,1.32,.97,1.66,.98,.99,1.29,1.33,.33,.65,1.61v1.93s1.98-.31,1.98-.31l2.16,1.54,1.45,2.86,.97,1.67-.26,1.19-.27,2.61-.02,2.38,.97,1.19,1.29-.56,.18,.58,1.47,.25,.75-1.18,.74,.24s.26-1.42,1.49-2.13c1.24-.7,1.98-.94,1.98-1.89,0-.95,.26-1.42,.26-1.42,0,0,1.47,.72,1.95,1.91,.48,1.19,.48,1.67,1.21,2.38,.73,.72,1.2,3.33,.71,4.04-.5,.71-.02,2.38,.72,2.62l.97,1.91s-.75,1.89-.02,2.85c.73,.96,1.72,.25,1.96,.96,.11,.32,.31,.77,.5,1.18,.24,.52,.47,.97,.47,.97l1.7,2.63-.99,.94s-1.47-.25-1.24,.94c.23,1.19,1.21,2.15,1.21,2.15l.72,1.9s-.14,1.42,.23,1.55c.37,.12,.73,1.19,.73,1.19l-.5,.59-.13,.59,.6,1.55-.13,1.31-.37,.59s-1.12,1.89-1,2.25c.12,.36,.11,2.02,.11,2.02l.23,1.31,.47,2.26s.36,.48,.62-.11c.25-.59,.39-2.02,.39-2.02l.25-.59,.98,1.08-.13,1.19,1.46,1.32,.49,.24s.6,1.19,.85,1.67c.24,.48,1.34,1.2,1.71,2.03,.36,.83,.23,1.78,.23,1.78,0,0,.49,.24,.73,.72,.24,.48,.97,1.2,1.21,2.27,.24,1.07,1.81,4.53,1.67,6.31-.14,1.78-.15,3.2,.34,3.68,.49,.48,1.1,1.08,1.1,1.08,0,0,1.1,1.31,.84,2.03-.25,.71-.01,1.66-.01,1.66l1.47,.72,1.22,.96,2.33,1.44s.6,1.55,1.09,1.55c.49,0,1.72,.61,1.72,.61l2.08,.97,.86-.35,1.47,.49,.38-.71-.6-1.9-.73-1.55-.96-2.74-1.34-1.2-.36-1.19s1.02-4.39,.05-6.77c-.97-2.38-3.29-4.18-3.29-4.18,0,0-.73-1.31-1.46-1.91-.73-.6-.97-1.19-1.34-1.32-.37-.12-.61-.95-.61-.95,0,0-.59-2.74-1.2-3.22-.61-.48-1.48,.34-2.33-.25-.86-.6-1.22-1.32-1.22-1.32l-1.83-1.91s-.12-1.48-.35-2.38c-.12-.48-.24-.95-.24-.95,0,0,.13-1.19-.36-1.43-.49-.24-.86-.48-.86-.48,0,0,.51-1.54-.85-1.43-1.35,.11-1.6,.34-1.6,.34,0,0-.24-.6,.13-1.19,.37-.59,.01-1.31,.01-1.31,0,0-.23-1.43-.35-2.14,0,0,.75-1.18,.75-1.78,0-.59,.39-2.49,.39-2.49,0,0-.23-2.26,.27-2.49,.49-.23,.63-2.01,.63-2.01,0,0-.18-4.09-.21-4.58,0-.03,0-.05,0-.05,0,0-.85-1.08-.48-1.31,.37-.24,1.49-1.18,1.49-1.18l.74-.35,.24,.6,1.59,1.32s-.27,.42-.35,.97c-.04,.28-.03,.6,.09,.93,.36,.95,.36,1.55,.36,1.55l1.23-.23,2.09,.02,.74-.35,.12,.83,2.2,1.44,.6,1.31,.74,.24,1.58,2.03-.13,.95s1.34,1.79,1.7,2.03c.37,.24,.99-1.06,.99-1.06l.61,.84,.12,.83,.12,.36,1.48-.11,.49,.48,.73,1.67,.61,.48-.5,1.54,.23,2.38,.6,2.14,.62-.35,1.27-.79-1.52,1.5s1.59,.49,2.22-.34c.62-.83,1.61-1.89,1.61-1.89,0,0,1.23-.35,1.6-.58,.37-.24,.38-1.3,.38-1.3l1.23-.11h.86s.5-1.3,.5-1.3l-.61-1.19s1.86-1.17,2.47-1.29c.62-.11,2.83-.57,2.83-.57l1.12-1.18,2.72-2.47,.39-2.73s.4-4.39,.16-4.87c-.08-.16-.15-.48-.2-.83-.1-.66-.15-1.43-.15-1.43,0,0,.61,.48,.61,.12,0-.36-.11-2.02-.35-2.38-.24-.36-.47-2.26-.47-2.26l-1.33-2.5s-.23-2.14-.72-2.74c-.49-.6-1.71-1.79-1.71-1.79,0,0-2.44-1.68-2.94-1.8-.49-.12-2.57-1.8-2.57-1.8l-2.2-1.44-.61-1.19-.36-1.43-1.34-1.67-1.22-1.43-2.07-2.15-.73-1.31s-.12-.36-.36-.83c-.24-.48-.23-1.78-.23-2.14,0-.36,.26-1.3,.26-1.3l.38-1.9s1.97-.82,2.35-1.29c.37-.47,.87-1.54,.87-1.54l1.48-.94,.25-.71,.14-1.66,1.48-.94,1.48-.82,.49-.47,.61,.95,.86-.47,1.36-.11,1.1,.36v-.71s.87,.13,.87,.13l.24,.6,.98,.84-.26,1.54,.36,1.55,1.1,.36,.36,1.07,2.09-.1,.25-.83s-1.1,0-1.35-.6c-.24-.6,.51-2.37,.51-2.37l.5-.59s1.48-.94,2.35-1.05c.86-.11,2.71-1.17,2.71-1.17l.62-.71h1.23s1.61-.93,1.61-.93l-.24-.48,1.23-.11-.24-.83s-.44-2.62,.14-1.84c.67,.9,1.09,1.14,1.09,1.14l.61,1.07,1.36-1.3,.37-.71,1.12-1.06,1.22,.48,.5-.47,.99-.82,2.46-.34,1.85-1.17,.5-.83,.5-1.3,.49,.36,.75-1.66,1.36-.23,1.48-.94s.06-.21,.13-.41c.06-.21,.13-.42,.13-.42l-.97-1.55,.37-.23,.86,.48,.63-1.66,1.48-.82v-.59s.38-1.3,.38-1.3l.74-.23,.13-1.19-.11-1.55,.86,.24,.38-1.3-1.1-.72,.86-.35-.36-1.19,.99-.11,.13-.95-.61-.24s1.85-.82,1-1.54c-.86-.72-.6-1.31-.6-1.31l.87-.94-.12-.71s-.23-2.38,.26-1.9c.49,.48,.99-.82,.99-.82l.37-.24s.37-.23,.87-.82c.5-.59,.13-1.07,.13-1.07,0,0,.87-.94,.5-1.3-.36-.36-.98-.48-.98-.48l.49-.12v-.59s.14-1.07,.14-1.07c0,0,.74,0,.98,0,.25,0-.23-1.55-.6-1.31-.37,.23-.49,.23-.49,.23l-.12-.48,.26-2.02s.5-.59,.13-1.07c-.37-.48-.12-.71-.98-.72-.86,0-1.47-.37-1.47-.37h-.49s-.62,0-.62,0c0,0-.99,.47-1.48,.46-.49,0-.5,.47-.99,0-.49-.48-1.35-.6-1.35-.6l-.5,.59s-.11-1.43,.62-1.18c.74,.24,1.59,.72,2.09,.37,.49-.35,.74-.59,.74-.59l.74-.35s2.1-1.17,1.74-1.77c-.36-.6-.49-.72-.85-1.08-.37-.36-.73-.84-.73-.84l-.24-1.07h-1.35s-.49-.49-.49-.49l-1.35-.37-.49,.12-.24-.71h1.47s.86-.22,.86-.22l1.35,.13,1.11-.11-1.34-1.32-.49-.72-1.71-.96-.24-.95v-.36s-1.59-.49-1.96-1.08c-.36-.6-.85-.96-1.46-2.15-.61-1.19-2.44-2.75-2.44-2.75,0,0-1.33-2.15-2.31-2.87-.98-.72-2.33-.61-2.57-1.44-.08-.26-.16-.54-.24-.8-.19-.59-.36-1.1-.36-1.1,0,0,.87-.94,.87-1.42,0-.47-.98-.72-.85-1.31,.13-.59-.36-.72,.13-1.31,.5-.59,1.12-1.18,1.49-1.77,.37-.59-.48-1.07-.11-1.19,.37-.12,1.1,.96,1.35,.13,.25-.83,.5-1.3,.63-1.78,.13-.47,.63-1.18,.63-1.18l.62-.83s.61,.72,.98,.36c.37-.35,.38-.95,.75-.83,.37,.12,1.96,.37,1.97-.1,0-.47-.61-.95-.61-.95,0,0,0-.12,.37-.59,.37-.47,.63-1.42,.63-1.42,0,0-.12-.71-.98-.36-.86,.35-1.11,.23-1.11,.23l-.86-.48s-.86-.13-1.23,.35c-.37,.47-1.36,.47-1.36,.47l-.49-.84s-.62,.23-.99,.35c-.37,.12-.73-.36-.73-.36,0,0-.24-.71-.61-.6-.37,.12-1.35-.01-1.6,.82s-.38,1.9-.38,1.9l-.62,.71s.24,.71-.75,.83c-.98,.11-1.23,0-1.23,0,0,0-1.11-.13-1.72-.49-.61-.36-.73-.84-1.35-.37-.62,.47-1.35-.6-1.35-.6,0,0,1.11-.59,.99-.94-.12-.36-.24-.71-.6-1.31-.36-.6-.98-.6-1.47-.72-.49-.12-1.48,.11-1.48,.11v-1.07s-.6-.72-.6-.72c0,0-.86-.24-1.47-.96-.61-.72-.73-1.43-.6-1.9,.13-.47,.99-1.18,.99-1.18l.62-.23s.36,.48,.98,.48c.62,0,2.09-.1,2.09-.1,0,0,.12,.12,.37-.24,.25-.35,.38-1.18,.38-1.54,0-.36-.12-.83-.12-.83,0,0-.23-2.02,.88-2.13,1.11-.11,1.61-1.53,1.74-2.6,.13-1.07,1.38-2.84,1.99-3.19,.62-.35,1.98-1.05,2.34-.93,.37,.12,1.96,.85,1.96,.85l-.75,.94,.35,2.38-1.12,2.01-.26,1.19,.73,.48s2.08,1.2,1.71,1.67c-.37,.47-.87,.59-.87,.59l-.38,.83,.12,.95s.98,.13,1.11-.23c.12-.36,.25-.71,.75-.94,.49-.23,1.11-.82,1.48-1.18,.37-.35,.38-.95,.5-1.42,.13-.47,.99-1.3,.99-1.3l.49-.35,1.36-.94c.74,0,1.6-.34,2.21,.02,.61,.36,1.1,.36,.99-.35-.12-.71,.5-1.01,.51-1.48,0-.47,.24,.89,.24,.89,0,0-.25,.12,.24,.83,.49,.72,.85,1.08,1.59,.84,.74-.23,1.23-.7,1.48-.23,.24,.48,.48,.95,.48,.95,0,0-.12,.36-.13,.71,0,.36,.61,.96,.6,1.43,0,.47-.38,.95-.38,.95,0,0-.74,.71,.12,.83,.86,.13,1.1,.25,1.1,.25,0,0-1.23,.23-1.23,.58,0,.36,.73,.84,.6,1.19s-.13,1.31-.13,1.31l.61,.84,1.6,.25s.24,1.07,.61,.84c.37-.24,.37-.71,.37-.71l.5-.71s-.08,.19,.29,.67c.37,.48,1.1,1.31,1.35,.84,.25-.47,.62-.94,.62-.94l.49,.36,.12,.6h.62s.98,.25,.98,.25l-.13,.47s1.1,.72,.97,1.19c-.13,.47-.25,.71-.25,.71,0,0-.61,0-.49,.47,.12,.48,.97,1.55,.48,1.31-.49-.24-1.35-.6-1.35-.6,0,0-.86-.12-.37,.59,.49,.72,1.34,1.08,1.34,1.08,0,0,.48,.84,.73,1.43,.24,.6,1.1,1.2,1.58,2.03,.49,.84,.49,.6,.48,1.55,0,.95-.99,.82-.75,1.77,.24,.95,.6,1.55,.97,2.03,.37,.48,.36,1.19,.36,1.19l-.13,.47,.49-.23,.36,.72-.86,.35,.49,.36s.36,.12,.74,.35c.17,.1,.34,.23,.49,.37,.31,.3,.53-.06,.64-.37,.07-.18,.1-.34,.1-.34,0,0,.04,.16,.1,.34,.07,.23,.14,.5,.14,.5,0,0,.12-.23,.26-.5,.22-.41,.49-.92,.49-.92,0,0,.49,.36,.98,.25,.49-.12,.62-1.3,.62-1.3l.37-.59,.25-.71s.85,1.55,1.22,.96c.38-.59,0-.83,.38-1.07,.37-.23,.25-.35,.74-.83,.5-.47,.75-.83,.13-1.07-.61-.24-1.1-.48-1.1-.48,0,0,1.23-.47,1.48-.11,.24,.36,.86,.6,.86,.6l1.1,.72s.5-.47,.5-.95c0-.48,.26-1.42,.26-1.42,0,0-.12-.59-.12-1.07,0-.47-.37,.71-.36-1.19,.02-1.9-1.1-1.08-1.1-1.08,0,0-.62,.11-.49-.48,.13-.59,.03-3.56,.03-3.56,0,0-.97-1.31-1.46-1.67-.49-.36-1.45-2.62-2.19-3.34-.73-.72-1.95-2.03-2.32-2.16-.37-.12-1.71-1.08-1.71-1.08,0,0-.86-.36-1.22-1.2-.36-.83-1.33-2.5-1.33-2.5l-1.1-.13-1.1-.48-.16-1.02s-.97-1.43-.23-1.9c.74-.47,1.73-1.65,1.73-1.65,0,0-.23-1.55,.26-1.66,.49-.12,.99-.59,.99-.59,0,0,1.85-1.41,2.49-4.38,.18-.82-.51-.57-.51-.57l-1.22-1.31s.25-.83,.26-1.66c0-.83,.01-1.42,.01-1.42,0,0,1.13-.87,1.26-1.47,.13-.59,.75-1.66,.75-1.66l.62-.59-.75-.79-.47-2.02,.37-.35,.99-1.42,1.47,.49,1.71,.96,.24,1.19,.86-.47,1.48-.11,.61,.6,1.48-.23,.49,.12,.99-.59,.25-.59s1.35,.25,1.48-.35c.13-.59-.45-2.03-.2-2.62,.14-.32,.68-1.44,1.09-2.52,.35-.91,.61-1.79,.44-2.12-.36-.72,.83-1.5,1.2-1.85,.37-.35,.26-1.19,.26-1.9,0-.71-.35-2.02,.02-2.49,.37-.47,.51-2.13,.64-2.84,.13-.71,.26-2.14,.26-2.14,0,0,.87-1.54,.39-2.37-.49-.83-.73-1.43-.6-1.79,.13-.36,.39-3.08,.77-3.68,.37-.59,.76-2.73,.76-2.73l.38-1.3,1.36-1.42s1-1.66,1-2.01c0-.36-.11-1.43-.11-1.43,0,0,.13-1.07-.23-1.66-.36-.6-.72-1.67-.72-1.67l-.59-2.85s-.73-.36-.86-.72c-.12-.36-.72-1.55-.72-1.55l-.73-.48-.35-2.62-.85-.96-.24-.83-.47-2.5-.61-.95s-.35-2.14-.35-2.5c0-.36-.11-2.14-.11-2.14l-.36-1.67,.63-1.78-.49-.72-.24-.83-1.96-.37-1.22-1.32v-1.07s-.35-1.67-.35-1.67l-1.16-.37-1.42,.58,.81-.89,1.05-1-.61-.84-1.22-.37-1.47-.96-1.35-.72-.85-1.19-.36-.95-2.21-.61-1.22-1.08-.75,1.18-1.11,.35s-1.47-.84-1.47-.25c0,.59-.01,1.31-.01,1.31l.61,.48,.35,2.5-.97-1.91-.38,1.66-.62,.59s.73,.84,.12,.48c-.61-.36-1.71-.96-1.71-.96l-.98,.23v-.95s.63-1.42,.63-1.42l-.98-.25-.61-.6s.74-.82-.36-.95c-1.11-.13-1.23,.11-1.23,.11l-.25,.47s-.13,1.19,.36,1.43c.49,.24,.86-.11,.85,.84,0,.95-.26,1.9-1.12,1.53-.86-.36-1.22-1.55-1.22-1.55,0,0,.99-.59,.75-1.06-.24-.48-1.1-1.2-1.1-1.2l-1.1-1.2s-.74-.12-1.11,.11c-.37,.24-1.36,.94-1.36,.94h-1.23s-.61-.49-.98-.37c-.37,.12-1.11,.23-1.11,.23l.62-.95s.99-.7,1.12-1.06c.13-.35,.38-1.07,.38-1.07,0,0,.38-1.3,.87-1.18,.49,.12,1.61-1.89,1.86-2.36,.25-.47,.62-.59,.63-1.66,0-1.07-.23-2.02,.02-2.73,.25-.71,.63-2.01,.63-2.01l.26-2.02,1.25-1.89,.13-1.31,.75-1.9-.11-1.19,.76-2.37-.12-.48,1.01-2.84-.36-1.55,.63-2.13,.4-4.27s1.99-2.84,3.47-3.3c1.48-.46,3.45-.92,3.45-.92l2.46,.26,1.23-.7,1.71,1.44,1.96,.73,.75-1.66-2.21-.73,.99-1.18,1.47,.49,1.22,.72,1.97-.46,1.24-1.18,1.96,.73v-1.66s.4-.54,.69-.96c.18-.25,.32-.46,.32-.46,0,0-.49-.48-.23-1.66,.25-1.19,3.2-1.16,3.2-1.16l2.2,1.2,2.21,.02h1.23s-.26,1.43,.73,.96c.99-.47,2.22-1.17,2.22-1.17,0,0-.26,1.66-1.74,1.89-.57,.09-.92,.21-1.13,.38-.35,.28-.35,.68-.36,1.27,0,.95,1.71,1.44,1.71,1.44l1.73-1.17s.18-1.14,.24-1.53c.01-.08,.02-.13,.02-.13,0,0,2.6,.35,3.1-.36,.5-.71,.75-1.89,.75-1.89l1.48-.7s.25,0,1.48-.46c1.23-.47,3.46-1.87,3.46-1.87l-.48-1.9-2.7-.5-.74,.71-1.47-.49,.75-1.66-.97-1.67,1.01-3.08,1.5-2.36-1.46-1.91,.51-1.66,.52-3.08,1.24-.94-.48-2.14,1.97-.46,1.49-1.18v-1.9s1.98-.46,1.98-.46l.48,2.14,1.75-4.02s.23,1.66,.23,2.38c0,.71-.26,1.9,.47,2.14,.74,.24,1.23,.25,1.23,.25,0,0-1.01,3.32,.46,4.04,1.47,.72,2.45,1.44,3.18,1.92,.73,.48,1.22,.96,1.22,.96l1-2.37s.5-.47,.75-1.42c.25-.95-.23-2.38-.23-2.38l.27-2.37,1.24-1.42,1.72,.73,1.22,.72-.73-1.67s.26-1.42-1.21-2.62c-1.46-1.2-1.95-2.39-1.95-2.39l1.24-1.18-.23-1.43s1.25-2.6,1.98-1.88c.73,.72,2.94,1.21,2.94,1.21l1.73-.94-.26,1.42s-1.72-.25-2.46,.22c-.74,.47-1,1.89-1,1.89l.97,1.43,.47,2.14,1.46,1.44-1.23,.47,1.22,1.91,.96,2.15v1.66s-2.23,.46-2.23,.46l-1.98,2.12-.76,2.61s.73,.96,.97,1.67c.24,.71-1.25,2.37-1.25,2.37l.22,3.33-.75,1.9,.72,2.85-.75,.94-1.79,2.89-.26,1.66-.26,1.42-1.48,.7s0,.02,0,.05c-.05,.29-.25,1.61-.25,1.61l.24,1.19-1.97-.02-.82,.87,2.2,1.92,.72,1.9s1.47,.01-.01,1.9c-1.49,1.89-.76,2.84-.52,3.56,.24,.71,.94,4.76,.94,4.76l2.68,3.11,1.21,2.15,2.19,3.1,2.18,4.53,3.91,3.12,.72,1.91,3.16,4.77,2.18,3.58,1.22,1.91,1.95,1.91,.98,1.19,.03-3.33,1.01-3.56s.5-1.18,.51-2.61c.01-1.42-1.45-3.57-1.45-3.57,0,0-1.46-1.91-1.69-3.58-.23-1.66,1.73-1.65,1.73-1.65l1-1.42-1.47-1.2,.75-1.18-.97-1.43,.51-1.66,1.24-1.18,2.21,.02,1-2.13-.72-1.67-1.22-1.67-.72-2.86-.23-2.38-1.71-1.44,1.23-.47-.23-1.66,.5-.95,.48,1.67,1.46,1.44,1.72-.22-.73-1.43-.24-1.19s-.84-2.74-1.82-2.74c-.99,0-1.84-.13-1.84-.13l-.97-1.91s.01-1.19-.97-1.67c-.69-.34-.89-.91-.95-1.22-.02-.13-.02-.21-.02-.21,0,0-.46-4.04-2.19-3.1-1.73,.94-1.97,.46-1.97,.46l-.26,1.9-1.46-2.39,.51-2.61,.38-1.88-.47-2.14s-.96-2.86-.95-3.81c0-.95-.96-2.62-.96-2.62,0,0-.97-2.38-.47-3.33,.5-.95,2.23-1.65,2.96-1.16,.73,.48,1.46,1.67,1.46,1.67,0,0,1.96,1.44,1.96,.25,.01-1.19,.52-3.08,.52-3.08l.51-1.66-.23-2.38,1.73-1.41-.51,2.85,.97,1.67,.47,2.14h.74s.51-1.65,.51-1.65l1.48-.94-.23-2.62,1.99-2.36,2.47-.93,1.97,.25,2.45,1.44,.24,.95,2.7,.73-.96-2.86,.51-1.9,1.48-.94,.03-3.33,1.74-1.89-.23-1.9,1.49-2.13v-1.9s2.25-2.6,2.5-3.78c.26-1.19,.76-3.08,1.02-4.27,.25-1.19,2.72-2.12,2.72-2.12,0,0,.78-1.92,2.08-2.49,.34-.15,.72-.2,1.14-.1,.13,.03,.26,.07,.39,.1,1.88,.51,4.02,1.31,4.03,.65,0,0-.13-.3-.28-.65-.2-.47-.44-1.02-.44-1.02,0,0,1.25-1.89,.02-2.85-1.22-.96-4.5-1.21-4.5-1.21l-1.96-1.44-2.46-.26,.75-1.42-1.7-2.39-1.97,.46,.75-1.66-1.71-1.68-1.72-.49-.26,1.42-.74,.71s-.47-2.14-1.71-1.67c-1.23,.47-2.47,.93-2.47,.93l-1.48,.94-1.1-.13,.62-1.06,2.47-1.41-1.34-1.91,.37-.24s.23,1.43,1.71,1.68c1.47,.25,3.2-.45,3.2-.45l.99-.23,1.24-1.41v1.66s1.23-2.13,1.5-4.26c.26-2.14,.28-4.75-.44-5.7-.73-.95-1.95-2.63-1.95-2.63l-.97-.96-.48-1.67s.99,0,.74-.71c-.24-.71-.48-1.43-.48-1.43l-.24-.95,1.96,1.44,.27-2.85s.73,1.43,.71,3.09c-.01,1.66,.47,3.09,.47,3.09l2.2,1.2,2.45,1.21,1.72-.46,1.01-2.6,1.97-.46,.97,1.91,1.46,1.44,1.96,.73,1.46,1.2,2.45,.73,.75-1.18,.51-2.13,1.21,2.38,1.96,1.2,1.72,.25,2.22-.46-.73-1.43,2.2,1.68s1.48-.7,1-1.65c-.49-.95-1.71-1.44-1.71-1.44Zm-296.91,15.64c.72,2.87,.23,2.39-.75,1.19-.98-1.2,.75-1.19,.75-1.19ZM107.14,315.77l-.74-.24,.86-.72-.12,.95Zm2.1-.49l-.74,.72-.5-.24,1.48-1.2-.24,.72Zm2.22-.6l-.25-.83,.12-.6,.99-.12,.74,.83,.25,1.19-1.85-.47Zm5.69,1.77l-1.24-.71,.12-.72,1.98,1.18-.86,.24Zm4.17-5.74l-.13-.95s-.62-.59-.87-.95c-.25-.36,.36-1.79,.36-1.79l.87,1.19,.37,.83h.74s.5,2.14,.5,2.14l-1.85-.47Zm11.45,22.49l.61-.6,.5,.95-.61,.72-.5-1.07Zm.65,8.34l-.25-1.31s-.62-.71-.25-1.31c.37-.6,.49-1.31,.49-1.31l.74,.47s-.61,.36-.49,.96c.13,.6,.37,.12,.5,.47,.12,.36-.73,2.03-.73,2.03Zm24.93-31.22c-.37,.12-2.34,.49-2.34,.49l-1.11-.47,1.11-.72s-.12-.36-.5-1.19c-.37-.83,.61-1.19,.61-1.19,.49-.72,.62,1.31,.62,1.31,0,0,.5,.71,.99,1.07,.5,.36,.99,.59,.62,.71Zm1.43-11.81l.49-.96,1.24,.59v.83s-1.73-.47-1.73-.47Zm9.69,15.22l-1.12-1.19s-1.12-1.19-1.24-1.66c-.13-.48-.38-1.91-.38-1.91l-.5-.83s1.11,0,1.61,.23c.49,.24,1.12,1.9,1.12,1.9l.5,1.31,.86,.47,1,1.67h-1.85Zm3.39-14.56c-.12,.4-1.85-1.54-1.85-1.54l.24-1.07,.62,.6s1.24,1.18,.99,2.01Zm46.94-24.84c0,.36-.78,1.43-1.8,2.62-1.02,1.19-1.76,.57-3.85-.92-2.09-1.49-1.1-1.23-2.57-2.46-1.47-1.23-1.19-2.67-1.18-3.03,0-.36,1.41-1.66,3.02-1.39,1.62,.27,.41-1.68,.41-1.68l1.65-1.53s-.26,.48,1.36,.75c1.62,.27,1.08,1.95,1.08,1.95,0,0,1.7,2.08,2.07,2.57,.36,.49-.27,.84-1.16,1.66-.89,.83,.97,1.1,.96,1.46Zm15.79,66.06l-.25,.36-.43-1.03v-1.02s.69,.07,.69,.07l.91-.2,.05,1.45-.97,.38Zm45.64-127.03l-2.08,5.53-.46-4.3,.83-2.91,1.25-1.66c1.5-1.66,.47,3.34,.47,3.34Zm-5.91-93.53c.99-.47,3.71-.45,3.71-.45l-3.22,.93-2.23,1.41-.99-.25c.5-.95,1.74-1.18,2.73-1.65Zm-2.01,4.28s.99,0,1.73-.23c.74-.23,1.99-1.42,2.97-1.41,.99,0,4.47-2.83,2.72-.93-1.74,1.89-4.22,2.83-4.22,2.83,0,0-4.45,1.16-4.94,.2l1.73-.46Zm-7.96-7.69c.49,.72,2.08,2.64,1.09,2.39-.99-.25-2.82-2.29-2.82-2.29l-.6-2.27s1.84,1.44,2.33,2.16Zm-8.07,97.24s1.24-.47,1.98-.94c.75-.47,3.47-1.64,2.72-.46-.75,1.19-2.98,2.6-4.7,1.4Zm25.21,45.62c-1,.23-3.5,.7-3.5,.7l-2.74,.22-2.98-1.23-1.99-.98-1.76,1.43-1.49-.49-.26,1.2-1,.71,.74,1.45-1.76,2.15,1.48,1.7s-.02,2.17-.28,3.37l-1.24-.97-.24-1.45-1.49-.97-1.98-1.46,.02-2.41,1-.23,.76-1.2-.99-1.69,1.26-1.19,1.51-2.16,1.5,.25s1.25-.47,2.5-.46c1.25,0,3.74,.27,3.74,.27v1.69s1.97,.98,1.97,.98l1.75-.23,2.49,.26,1.51-1.67s3-.22,2.99,.5c0,.72-.51,1.68-1.51,1.92Zm7.39-167.95c-.98-1.2,1.25-1.66,1.25-1.66,.72,2.87-.27,2.86-1.25,1.66Zm2.76-20.37l-1.62,1.06s-.14,1.79,.35,2.51c.49,.72,1.58,3.23,.84,2.99-.74-.24-3.43-3.36-3.43-3.36l-2.72,.22-1.48-.73,1-1.19,2.23-.94-1.94-3.83s1.35,.21,1.97,.97c.98,1.2,1.22,1.68,1.22,1.68l1.98-.7,1.97,.49,2.98-2.84,3.23-1.88-.23-1.91s-1.71-2.64-.23-2.15c1.48,.49,2.7,2.17,2.7,2.17l.22,3.34-4.46,1.4-1.99,2.25s1.46,2.28,.23,2.03c-1.23-.25-2.83-1.57-2.83-1.57Zm3.02,191.16l-.97-2.39,1.23,.49-.26,1.9Zm3.31-12.14c-1.48-.73-3.43-2.65-3.43-2.65l-.72-2.63s.21-3.26-.55-4.1l-.4-.2c.16,0,.29,.07,.4,.2l2.06,1.01,.72,2.15-.02,2.15,1.97,1.21,2.94,2.17s-1.49,1.42-2.97,.69Zm3.66,16.7l-1.22-1.92,2.95,1.93h-1.73Zm8.65-11.85c-1.24,.47-1.23-.49-.48-1.43,.75-.95,1.49-.47,1.49-.47,.24,.72,.24,1.43-1,1.9Zm25.1-19.84c-.24-.72,.75-1.66,1.49-1.42,.74,.24,.73,1.2,.73,1.2,0,0-.76,2.38-2.73,1.65,0,0,.75-.71,.51-1.43Zm-3.15,64.12c-.13,.57,.29,1.27-.75,.47-1.52-1.17,.9-1.18,.75-.47Zm1.5-2.49c-1.77-.79,.57-.67,.86,0,.61,1.41,.66,.67-.86,0Zm1.72-1.26c-.13,.57,.29,1.26-.74,.47-1.52-1.17,.9-1.18,.74-.47Zm-1.9-47.26c-1.23-.49,.26-1.43,.26-1.43v-1.91s2.48,.73,2.48,.73l.24,.72c.74,.24-1.75,2.37-2.98,1.89Zm3.39,44.78c-1.76-.78,.57-.67,.86,0,.61,1.4,.66,.67-.86,0Zm27.77-233.65c.97,2.15,.23,2.39-.75,1.19,.48,.59,.75-1.19,.75-1.19Zm-3.7,.21c.72,2.87,.23,2.39-.75,1.19-.98-1.2,.75-1.19,.75-1.19Zm-18.54,255.06c-.13,.57,.29,1.26-.74,.47-1.52-1.16,.9-1.18,.74-.47Zm1.47-128.56l.97,1.68,3.2,.98-1,.95,2.95,2.17-3.94-1.7-1.96-1.68-.76,2.14-.46-3.58,.99-.95Zm1.38,124.07c-1.52-1.16,.57-.67,.86,0,.61,1.4,.17,.78-.86,0Zm-1.61,23.13c-1.07-1.56,.57-.67,.86,0,.61,1.4,1.63,3.64-.86,0Zm1.46-19.45c-1.52-1.17,.45-1.14,.74-.47,.6,1.4,.29,1.26-.74,.47Zm1.01,16.97c-1.52-1.17,.57-.67,.86,0,.61,1.4,.17,.78-.86,0Zm4.74,3.33s-.17,1.15-.42-.43c-.24-1.58,.32-.38,.94-.5,.63-.12,1-.1,1-.1l-.29,.64c-.25,.72-1.23,.38-1.23,.38Zm-.14-108.89l1.48,.25,.21,4.29-1.69-4.54Zm2.09,114.53c.63-.12,.89,1.42,.89,1.42l-.19,.44c-.25,.72-.81-.33-.81-.33,0,0-.49,.84-.73-.73-.24-1.58,.21-.68,.84-.8Zm-.14,4.83c-1.49-1.19,.57-.66,.86,0,.61,1.4-.32,.42-.86,0Zm10.94,25.34l-1.47-.96,.5-.95s-1.46-2.38-.73-1.9c.73,.48,2.45,1.2,1.7,3.81Zm-.53-76.76c-1.52-1.17,.58-.67,.87,0,.6,1.41,.16,.79-.87,0Zm3.05-3.79c-1.52-1.16,.57-.67,.86,0,.61,1.4,.17,.78-.86,0Zm7.99,19.98c-1.52-1.17,.57-.67,.86,0,.6,1.4,.17,.78-.86,0Zm2.61-10.48c-1.74-.84,1.69-1.02,1.98-.34,.61,1.41-.33,1.14-1.98,.34Zm.93-95.74l.48,2.41,.73,1.93-1.02,2.64-1.75,.95-1.02,2.4-.51,.72-.51,1.68-1.27,2.64-2.25,.47-1.26,1.44-4.75,.93-1.49-.73s1.75-.47,1.76-1.19c0-.72,.76-1.68,.76-1.68l-1.23-1.7-.89-1.52-3.49-1.15-1.2-3.82-1.46-2.4-2.46-1.45-.23-2.62-.98-1.68-2.18-4.31s-1.7-3.35-3.43-3.13l2.72-.46,2.21,1.21-.5,.95,1.21,2.63,2.21,1.45v1.91s-1.03,2.85,.21,3.34c1.23,.49,4.18,2.42,4.18,2.42l-2.22-.02,1.71,2.16,.22,2.86,3.44,2.03-.05-.09,2.23,1.46,1.24,1.45,1.75-.47,1.01-2.16,1.5-.47,.51-1.68-.23-3.13,1.27-2.64,.02-2.17,.76-1.44,1.52-3.12,1-.72-.74-1.21,.27-2.41-1.49-1.46,.02-2.17v-.96s1.51-1.19,1.51-1.19l1.98,1.7,.49,1.69-.02,2.41,1.23,2.42,.23,2.89-1.76,2.15Zm2.07,91.9c-1.73-.84,1.68-1.01,1.97-.34,.61,1.4-.33,1.14-1.97,.34Zm23.27,141.42c.74-.23,1.22,1.21,1.22,1.21l-.02,1.67-1.22-.97s-.72-1.68,.02-1.91Zm11.6-204.29l.03-3.58,1.76-3.33,.45,5.25-2.24,1.65Zm3.53,182.44l-1.95-3.33,.99-.94,1.71,1.43,.47,3.09-1.23-.24Zm.18-364.85c-.98-1.2,1.74-1.42,1.74-1.42,.72,2.87-.76,2.62-1.74,1.42Zm6.54,15.07c-.98-1.2,.75-1.19,.75-1.19,.72,2.87,.23,2.39-.75,1.19Zm3.04-9.75c-.98-1.2,.75-1.19,.75-1.19,.72,2.87,.23,2.39-.75,1.19Zm37.14,271.48l-.23-1.91c1.24-.94,1.22,1.92,1.21,3.11-.01,1.19-2.48,.93-2.48,.93l1.5-2.13Zm-24.93,7.5c-.07,.31-2.78,.64-2.78,.64,.56-1.01,1.31-1.12,1.31-1.12l.88-1.66s.86,.96,.6,2.15Zm-.55-54.38c1.22,1.68-.27,2.86-1.25,2.14-.98-.72,1.25-2.14,1.25-2.14Zm12.63,25.13l1.47,1.44-.75,1.66-1.46-2.4,.75-.71Zm-1.17,23.12l1.15,2.81,.28,3.4s-1,1.66-1.73-.25c-.73-1.91-1.43-6.69,.29-5.96Zm-.39-12.88l-1.37,1.18-1.84-1.21,1-1.42,2.21,1.45Zm-2.87-11.23l.73,1.67-3.44-1.7-.97-1.68,3.69,1.7Zm-4.64,24.77l1.72,1.21-1.74,1.66-.73-1.44,.75-1.42Zm.73-140.33l.48,1.2-3.94-.75,1.71,2.4-2.61,2.01,1.37-2.02-1.72-.73-.48-2.39-1.23-.49,1.73-.22-.73-1.44,2.21,.97,.49,1.2,.75-1.19,1.23,.96,1.98-.46-1.24,.94Zm39.37,49.55h1.83s1.15,1.79,1.15,1.79v1.45s1.14,1.45,1.14,1.45l-.68,1.28-1.99-.82-1.98-2.1-1.15-2.1,1.67-.95Zm-15.1,16.15l.55,.54,.36,1.02-1.43,.82-.85-1.5-.47-2.33-.48-1.38,2.32,2.82Zm2.26-187.38c-.98-1.2,.75-1.19,.75-1.19,.72,2.87,.23,2.39-.75,1.19Zm11.87,.02c-.98-1.2,.26-1.43,.26-1.43,.72,2.87,.72,2.63-.26,1.43Zm-.17-9.54c-.98-1.2,.74-.47,.74-.47,.72,2.87,.23,1.67-.74,.47Zm-.13-15.03c-.98-1.2,1.74-1.42,1.74-1.42-1.25,1.66-.76,2.62-1.74,1.42Zm79.97,30.59c-.98-1.2,2.98-2.12,2.98-2.12,.72,2.87-2,3.32-2.98,2.12Z" style="fill:#efc441;"/><polygon points="247.43 110.65 247.68 109.22 246.2 108.98 247.43 110.65" style="fill:#efc441;"/><polygon points="470.07 318.39 472.16 318.76 470.69 317.92 470.07 318.39" style="fill:#efc441;"/><polygon points="412.95 59.57 415.42 59.11 414 58.18 416.4 57.72 414.93 56.77 412.96 57.72 413.89 58.17 411.96 59.08 412.95 59.57" style="fill:#efc441;"/><polygon points="249.64 113.74 248.65 111.36 248.17 110.41 247.67 111.6 249.64 113.74" style="fill:#efc441;"/><polygon points="247.68 108.75 249.4 108.99 248.66 108.03 247.68 108.75" style="fill:#efc441;"/><polygon points="250.38 110.41 248.9 110.17 250.13 111.84 250.38 110.41" style="fill:#efc441;"/><polygon points="516.61 489.25 517.1 488.54 514.76 487.83 513.41 488.9 513.53 490.2 514.64 491.51 515.63 491.39 517.59 489.84 517.35 489.49 516.61 489.25" style="fill:#efc441;"/><polygon points="511.88 446.04 511.13 446.75 511.37 447.22 511.87 446.75 511.88 446.04" style="fill:#efc441;"/><polygon points="516.48 482.48 516.23 481.65 515 481.3 514.02 482.01 514.39 482.6 516.48 482.48" style="fill:#efc441;"/><path d="M510.21,482.49c.37,0,2.21,.12,2.21,.12l.49-.48-2.21-.24s-.86,.59-.49,.59Z" style="fill:#efc441;"/><polygon points="509.57 454.58 509.94 455.06 510.55 455.89 510.67 453.99 509.69 453.99 509.57 454.58" style="fill:#efc441;"/><path d="M514.16,438.18s.13-.95,.14-1.31c0-.36-.97-2.39-.97-2.39l.14-1.31-.48-1.2,.38-1.67-.97-1.68-1.6-1.2-1.1-1.2-.98-1.08-.62,.47,.12,.95,1.22,1.44,.24,.96-.86,.11-.25,.47-.74-.12-1.24,.23-.14,1.43-.99-.25-.25,.47-.26,1.07-1.11,.35-.62,.47-.98-.48-1.35-.84-.87,1.07c0,.48-1.37,2.14-1.37,2.14l-1.23-.37-1.74,1.54-.5,1.07s-.14,2.15,.23,2.27c.37,.12,.87-.59,1.24-.83,.37-.24,.75-1.31,.75-1.31l.86,.13,.36,1.43,.49-.11,.38-.71,1.11,.37v-.95s1.38-1.3,1.38-1.3l.62,.36,.99-.71,.25,.36-.26,2.02,.73,1.2-.62,.35s-.14,1.79,.35,2.27c.49,.48,2.08,1.81,2.08,1.81,0,0,1.23,.49,1.6,.49,.37,0,1.11,.72,1.6,.49,.5-.23,.87-1.19,.87-1.19l-.26,1.55,1.23,.25s.38-1.9,.02-2.27c-.37-.36-1.22-2.04-1.22-2.04l-.24-1.07,1.25-1.3h.62s.12,1.08,.12,1.08l.73,.84-.26,1.43s.49,0,.99-.95c.5-.95,.76-2.26,.76-2.26l.25-.83Z" style="fill:#efc441;"/><polygon points="514.85 451.13 514.85 452.2 514.24 453.27 514.61 453.63 514.65 453.57 514.75 453.67 515.73 452.48 515.85 451.05 515.71 451.07 515.71 451.01 514.85 451.13" style="fill:#efc441;"/><polygon points="511.74 514.2 512.11 513.38 513.47 513.15 513.84 512.2 512.74 511.84 512.12 512.54 511.25 513.13 509.9 513.48 509.65 514.07 509.65 514.42 510.51 514.43 511.74 514.2" style="fill:#efc441;"/><polygon points="490.82 444.47 490.57 445.19 493.3 445.93 492.06 444.72 490.82 444.47" style="fill:#efc441;"/><path d="M490.57,409.63c-.12-.36-.85-1.44-.85-1.44l-.86-.48-2.1,.1,.12,.84,.98,.72,.85,1.2,.24,1.43s.6,1.79,.97,1.56c.37-.24,1.49-.7,1.25-1.42-.24-.72-.48-2.15-.6-2.51Z" style="fill:#efc441;"/><polygon points="518.21 491.74 518.95 491.98 520.3 490.55 519.07 490.55 518.21 491.74" style="fill:#efc441;"/><polygon points="487.93 449.63 488.55 449.87 490.3 449.09 489.04 449.03 487.93 449.63" style="fill:#efc441;"/><polygon points="509.82 459.33 510.06 459.69 510.68 460.04 510.43 458.97 509.82 459.33" style="fill:#efc441;"/><polygon points="509.82 463.72 510.44 463.96 510.68 462.65 509.94 462.77 509.82 463.72" style="fill:#efc441;"/><polygon points="500.17 515.19 500.18 514.59 498.7 515.41 499.8 515.78 500.17 515.19" style="fill:#efc441;"/><path d="M496.14,527.03s0,.95,.48,.84c.49-.12,1.61-1.06,1.61-1.06l.38-1.19-.98,.23-1.49,1.18Z" style="fill:#efc441;"/><path d="M496.61,514.33l-.5,.83h-.98s-.37,.58-.75,1.05c-.37,.47-.86-.12-.86-.12,0,0-.98-.13-1.72-.25-.74-.12-1.11-.13-1.11-.13,0,0-.25,.23-.38,.71-.13,.47-.86-.36-.86-.36l-.85-.84-.61-.48-1.11,.35-.99,.7-.87,1.18-.86,.47c-.37,.12,.85,1.07,.85,1.07l1.72-.58s1.23,.13,1.6-.11c.37-.24,1.48,.01,1.48,.01,0,0,1.11-.11,1.6-.11,.49,0,1.24-.82,1.24-.82l1.97,.13,.62-.23,.5-.95s.99-.59,1.36-.82c.37-.23-.49-.71-.49-.71Z" style="fill:#efc441;"/><path d="M511.47,517.05c-.37,.12-1.72,.11-1.72,.11l-1.97-.02-1.36,1.06-2.71,.93-.13,.95-.37,.47-1.11,.23-1.11,.47s-.87,1.54-1.12,1.89c-.25,.36,0,1.07,0,1.07l.12,.59h1.97s1.98-1.51,1.98-1.51l1.74-1.77,1.11-.11,1.24-1.3s.98,0,1.72,.25c.73,.24,1.24-.7,1.24-.7l1.36-.82s.62-1.06,1.12-1.18c.49-.11,.74-.82,.74-.82l-1.35-.25s-.99,.35-1.36,.47Z" style="fill:#efc441;"/><path d="M518.57,481.65l-.12,.36s2.34,0,2.83-.36c.49-.36,0-.83,0-.83l-1.48-.24-1.23,1.07Z" style="fill:#efc441;"/><path d="M520.16,475.47c.62,.47,1.48,.95,1.48,.95,0,0,1.23,.71,.98,.36-.25-.36-.49-1.19-.49-1.19l-.49-.59s-1.11-.36-1.23-1.07c-.12-.71,.74-1.31,.74-1.31l1.47-.24,1.6,.36-.25-.83-1.11-.59s.86-.12,1.1-.71c.25-.59,.25-1.31-.12-1.66-.37-.36-1.6-.83-1.6-.83l-.98,1.19-.12,.48-.49,.71-.99-.24-.12-.59-.37-1.19,.62-1.07,.37-1.66-.37-.59,.62-.83,.25-1.31-.86,1.19-.74,.71-.74,.95v.71l-.86,1.07-.62,.48-.37,1.31,.25,1.31,.74,.59,.37,1.07,.25,1.07,.98,.59s.49,.95,1.11,1.42Z" style="fill:#efc441;"/><path d="M517.71,297.23c-.12-.36-.62,.71-.62,.71l.49,.72s.25-1.07,.14-1.42Z" style="fill:#efc441;"/><path d="M485.13,521.01l-.98-.13-1.1-.25-.86,.47-1.23-.48-.62,1.06s.73,.95,1.1,1.08c.37,.12,2.58-.22,2.58-.22l.72,1.55,.49,.36s2.21,.14,2.09-.22c-.12-.36-1.21-2.62-1.21-2.62l-.98-.6Z" style="fill:#efc441;"/><path d="M469.28,493.45c.37,0,.98,.12,.98,.12l1.23-1.78-.49-1.19s-2.09,2.85-1.72,2.85Z" style="fill:#efc441;"/><polygon points="500.48 405.41 500.85 404.81 500.74 403.98 500.12 404.09 500.48 405.41" style="fill:#efc441;"/><path d="M479.94,426.12c-.37,.12-.75,.95-1,1.42-.25,.47-1.37,1.18-1.99,1.54-.62,.35-1.12,1.42-1.12,1.42,0,0-.62,.83-1,1.3-.37,.47-.13,1.19-.13,1.19l1.61-1.18s.75-1.19,1-1.54c.25-.36,1.61-.82,1.98-.82s.75-.71,.75-.71c0,0,.14-1.43,.01-1.79-.12-.36,.99-.83,1.49-1.42,.5-.59,2.36-1.29,2.36-1.29,0,0,.75-.59,1-1.07,.25-.47,0-.72-.48-1.79-.49-1.08-.24-1.08-.48-1.91-.24-.84,.38-1.19,.26-1.79-.12-.6-.98-.6-.98-.6,0,0,.37,.48,.36,.84,0,.36-.62,.83-1,1.3-.37,.47-.13,.95-.14,1.55,0,.6,.37,.48,.73,.72,.37,.24,.36,.72-.25,1.19-.62,.47-1.12,.83-1.12,.83l-.75,1.43s-.75,1.07-1.12,1.18Z" style="fill:#efc441;"/><path d="M480.24,516.7l.87-.94-1.1-1.2-1.6,.34s-1.1-.36-2.09-.49c-.98-.13,.72,1.79,.72,1.79h-1.97s-1.22-1.09-1.22-1.09c.24,.48-.25,.59-.25,.59h-.74s-.24-.72-.24-.72l-.74-.24-.24-.48s-.37,.47-1.11,.71c-.74,.23-1.12,1.41-1.12,1.41-1.11,.7,1.34,1.44,1.34,1.44l.86-.35,.24,.95h1.23s.5-1.05,.5-1.05l1.35,.48,.99-.11,.25-.59s.62-.59,1.36-.58c.74,0,.73,.72,.73,.72l1.11,.25s.86-.23,1.48-.35c.62-.11-.61-.48-.61-.48Z" style="fill:#efc441;"/></svg>