<svg xmlns="http://www.w3.org/2000/svg" viewBox="0 0 800 800"><rect width="800" height="800" style="fill:none"/><polygon points="763.22 276.45 764.11 282.91 763.63 284.6 763.35 285.34 761.7 286.88 760.05 288.13 759.29 289.45 758.81 291.29 756.12 294.74 755.16 296.58 754.75 298.56 753.85 305.91 753.57 306.72 753.3 307.16 753.16 307.82 753.09 309.29 753.37 310.1 754.19 310.54 756.19 310.76 756.74 311.06 757.84 311.86 758.88 312.89 759.29 313.99 759.08 314.58 758.67 315.39 758.53 316.13 758.95 316.35 759.22 316.64 759.57 317.37 759.91 318.18 759.98 318.77 760.32 319.58 761.08 320.02 762.04 320.39 763.15 321.34 763.77 321.56 764.11 322 764.25 322.59 764.11 324.21 764.11 324.87 765.69 329.79 766.18 332.22 766.18 335.23 766.93 337.36 769.41 339.93 770.86 340.67 772.44 340.89 773.48 341.55 774.99 344.05 775.47 344.86 776.78 346.1 775.75 347.28 775.27 348.68 774.65 351.17 775.06 351.39 776.3 352.35 775.75 354.55 778.02 355.73 781.33 356.83 783.67 358.74 777.33 363.59 778.37 364.69 778.37 365.57 777.88 366.38 777.61 367.56 777.4 367.78 776.44 368.37 776.16 368.74 776.3 369.4 776.78 369.62 777.33 369.76 777.54 370.06 777.13 372.48 776.5 374.32 775.54 375.71 773.89 376.89 770.38 377.55 769.14 378.21 769.14 379.68 769.83 380.27 771.89 381.15 772.72 381.74 773.68 384.31 774.3 385.12 772.79 386.66 772.92 389.01 773.61 391.81 773.82 396.29 774.3 397.61 775.13 398.71 776.3 399.38 774.23 400.26 766.93 401.14 758.95 402.98 755.09 402.31 753.64 398.71 752.34 399.74 750.34 402.68 749.24 403.64 748.34 403.86 742.69 403.05 741.59 402.39 740.49 401.36 739.73 399.96 739.32 398.49 738.77 397.25 737.53 396.44 729.47 393.57 725.27 393.13 721.55 394.6 720.93 395.92 721.14 397.76 720.59 398.94 719.69 399.67 715.7 401.65 714.53 402.61 713.84 402.98 713.36 402.9 712.88 402.46 712.33 401.8 711.57 402.46 710.05 404.74 709.16 405.77 710.95 406.72 716.6 408.85 719.42 408.27 726.03 410.76 729.34 410.25 731.54 411.13 733.26 413.34 734.15 416.06 733.6 418.7 735.26 419.58 736.7 420.9 737.46 422.6 737.32 424.73 736.29 426.42 733.33 427.59 732.16 428.69 732.57 434.2 731.19 435.16 727.41 437.88 716.6 442.43 715.42 440.67 714.05 439.79 712.81 440.08 711.77 441.85 712.05 447.06 711.84 447.43 711.29 447.65 710.88 448.02 710.81 448.83 711.09 449.34 711.57 449.56 711.98 449.78 712.26 450 715.36 455.88 715.7 458.16 715.08 460 713.63 461.17 710.53 462.71 710.81 465.06 709.3 468.08 709.64 470.28 710.26 470.8 711.02 470.72 711.91 470.8 712.6 471.68 712.6 472.85 711.77 475.2 711.77 475.94 713.08 476.75 716.53 475.28 718.18 475.43 719.35 477.04 718.87 478.66 716.6 481.45 714.46 482.63 713.84 484.61 714.6 486.45 716.6 487.04 717.77 487.62 718.11 488.28 717.77 489.02 716.6 489.68 712.12 491.37 710.81 492.47 713.7 492.77 715.15 493.21 716.6 494.46 717.08 495.93 715.15 496.29 712.53 496.37 710.88 496.66 710.4 497.03 709.91 497.1 709.43 497.03 708.88 496.66 707.16 495.41 705.03 495.19 700.89 495.63 697.18 494.97 695.8 495.12 694.83 496.59 694.35 498.64 693.6 499.31 692.56 499.53 691.53 500.26 691.32 501.14 691.39 501.88 691.32 502.69 690.63 503.71 689.95 504.15 687.88 505.04 685.26 506.73 684.16 507.83 680.51 512.46 679.2 513.56 677.55 514.29 673.42 516.57 671.35 517.67 671.01 517.75 666.88 518.7 666.26 519 665.29 519.95 665.43 520.25 665.84 520.54 665.91 521.5 665.22 525.76 665.22 526.13 665.09 528.11 665.15 530.46 666.33 533.77 668.46 535.02 669.56 537.15 669.84 540.23 669.77 540.23 667.91 538.03 666.81 537.37 662.75 536.63 655.93 533.47 653.1 532.96 650.28 533.18 646.42 534.65 643.46 535.75 640.85 535.9 633.13 534.8 631.48 533.91 631.21 535.97 631.21 537.66 630.59 538.84 630.1 539.2 629.55 539.57 628.25 539.94 626.73 539.5 624.6 539.57 622.46 540.09 620.88 541.19 619.91 543.1 619.84 543.32 619.57 544.64 619.22 545.38 618.95 545.96 617.09 547.29 614.06 547.8 611.79 546.48 611.3 546.11 609.51 544.64 606.55 543.61 600.98 543.91 588.17 544.5 584.86 544.2 578.11 543.54 576.12 543.32 573.77 543.1 567.99 544.79 564.2 549.71 562.27 547.14 560.83 546.92 559.45 547.73 557.25 549.05 556.83 549.05 555.18 549.27 553.74 549.12 552.5 549.64 550.77 551.92 549.67 554.12 548.85 556.33 548.16 558.38 547.06 560.66 546.23 562.35 545.68 562.79 543.48 563.75 540.86 564.19 539.96 563.6 538.31 564.26 537.69 564.92 537.21 565.8 536.04 567.13 535.35 568.82 534.59 568.67 533.97 568.6 533.56 568.67 531.49 570.65 530.46 571.24 529.43 571.53 527.29 571.75 526.26 572.12 524.81 574.11 523.99 576.68 523.44 577.85 523.02 578.88 521.3 579.62 519.92 578.29 518.82 576.02 517.45 574.25 514 574.99 512.28 574.77 510.9 574.18 509.18 573.45 508.63 572.86 508.29 572.05 507.8 571.46 506.77 571.24 503.33 571.9 491.28 571.61 481.98 571.31 481.77 571.31 480.74 571.02 475.09 566.47 473.58 565.8 471.93 565.36 470.2 565.29 468.42 565.58 466.83 565.88 465.18 565.73 455.95 561.69 452.92 561.17 446.38 562.2 445 562.2 438.39 560.73 436.81 560.59 435.29 560.88 433.78 560.73 421.59 557.06 417.32 556.91 416.56 556.47 415.12 554.93 414.43 554.71 408.3 555.08 403.89 554.41 393.63 556.4 389.57 556.25 387.43 555.44 381.03 551.77 372.83 550.01 349.28 548.46 343.57 545.01 341.02 544.27 340.12 543.98 339.37 544.05 337.78 544.64 336.82 544.72 335.86 544.27 334.06 543.02 333.24 542.73 333.1 542.66 328.14 542.14 322.29 542.88 320.77 542.73 319.12 542 316.02 540.01 312.99 539.57 310.58 539.13 306.45 537.59 303.01 534.8 301.08 530.46 300.18 527.45 298.53 526.49 296.46 526.2 294.33 525.46 293.37 524.88 292.82 524.29 292.54 523.41 292.61 521.64 292.82 520.1 293.23 519.14 293.5 518.19 293.5 516.5 292.54 513.56 290.96 512.53 286.76 512.38 285.38 511.94 284.76 511.28 284.21 510.4 283.04 509.37 281.94 508.86 279.52 508.42 278.49 508.05 279.94 506.65 280.01 505.48 279.25 504.15 278.63 502.69 278.01 499.53 277.6 497.98 276.91 496.66 277.94 494.31 284.07 491.15 286.2 488.5 286.2 486.59 286.27 484.9 283.86 484.17 279.11 484.98 277.39 485.35 267.2 490.19 260.04 490.56 255.63 491.96 251.36 494.09 247.85 496.59 243.3 497.25 242.2 497.91 240.21 499.45 239.03 499.67 237.18 499.01 233.94 496.81 232.01 496.59 231.25 496.73 230.5 496.66 230.36 496.59 230.29 496.59 225.12 495.63 222.71 495.85 219.82 496.66 219.75 496.66 218.86 497.1 217.89 497.25 217 497.1 216.1 496.66 215.62 496 215 495.49 214.38 495.12 212.59 494.75 211.56 494.97 210.66 495.56 209.91 496.66 206.46 499.67 203.43 499.53 200.26 498.13 196.68 497.39 189.66 498.5 182.71 500.63 180.84 501.58 174.37 507.54 173.55 509.23 172.44 514 170.59 518.12 170.52 518.63 170.59 520.1 170.45 520.76 170.03 521.2 168.86 521.64 168.45 522.01 166.25 525.61 164.8 526.93 163.35 527.15 161.7 526.57 158.19 526.27 156.47 526.49 153.09 527.52 152.06 527.6 151.03 527.23 149.38 525.9 148.41 525.46 147.38 525.39 145.52 525.9 144.49 525.9 141.59 524.36 140.42 523.99 138.36 524.66 137.25 524.58 136.64 523.41 137.12 522.75 139.32 521.05 139.87 520.17 138.84 518.78 131.2 514.52 129.61 514.15 127.82 514.29 117.63 516.94 113.43 516.5 110.19 514.08 109.92 511.14 111.16 506.58 110.67 504.3 109.78 503.27 106.34 500.77 104.2 497.69 103.17 496.66 102.62 496.29 102.07 496.22 101.52 496.29 98.62 497.84 96.08 500.56 94.35 503.64 94.28 506.14 91.74 506.29 89.81 505.77 88.16 506.07 86.64 508.49 86.16 510.18 86.09 511.28 85.81 512.31 84.78 513.71 80.38 515.76 77.83 516.5 77.14 516.43 75.69 516.43 71.35 515.1 69.08 513.93 65.22 510.47 54.48 507.31 51.94 505.55 50.7 503.86 50.49 502.61 50.83 501.14 51.11 497.98 51.52 496.66 51.52 495.85 51.11 495.41 50.49 495.49 50.08 495.12 50.21 493.57 31.21 488.06 29.55 487.84 24.25 488.43 22.39 487.99 25.15 484.76 25.84 481.23 24.87 477.78 22.46 474.69 19.43 473.07 19.43 471.9 20.46 469.84 20.53 468.89 19.71 466.98 18.74 465.8 18.26 464.62 18.95 462.71 17.3 461.32 16.33 460.07 19.57 455 23.01 451.18 23.43 450.3 23.91 447.87 24.39 446.62 28.32 442.14 29.28 440.08 29.35 434.28 26.46 432 22.74 430.38 19.78 426.27 19.57 425.46 19.02 423.04 19.23 423.18 19.64 423.33 25.56 424.8 32.03 424.73 34.72 423.48 36.23 421.42 37.47 418.92 39.61 416.57 41.12 415.91 42.64 415.69 44.02 416.2 45.19 417.38 45.53 418.99 45.32 420.61 45.74 422.08 47.8 423.04 48.56 423.04 49.8 422.3 50.35 422.15 53.38 423.18 56.34 423.4 57.86 423.11 59.1 422.23 59.37 424.5 60.41 425.75 61.64 426.93 62.61 428.77 62.61 429.13 62.61 429.57 62.75 430.38 63.85 430.97 64.74 430.6 65.64 429.87 66.81 429.43 71.77 436.04 72.66 437.66 72.18 439.13 69.91 440.74 71.01 441.92 71.22 443.31 71.35 444.79 71.91 446.11 72.87 446.99 73.56 446.92 74.31 446.4 75.62 445.81 76.11 445.89 77.14 446.48 77.69 446.48 78.1 446.18 79.34 444.93 83.75 444.2 85.61 445.15 85.47 447.58 83.68 452.65 83.89 453.53 83.96 454.34 83.75 455.22 83.2 455.66 81.89 456.03 81.48 456.32 80.58 457.79 80.17 458.67 80.58 458.89 82.1 458.75 88.57 458.01 90.77 457.2 95.32 454.7 97.25 453.01 99.11 450.81 101.31 446.69 101.93 445.81 102.96 445.15 105.1 444.49 105.92 443.98 107.58 441.92 109.09 439.2 109.99 436.12 109.99 433.18 109.57 431.49 109.02 430.31 108.13 429.43 106.75 428.69 107.78 423.26 107.85 422.01 107.23 420.54 106.34 418.99 106.2 417.82 107.71 417.3 109.37 417.01 110.12 416.72 110.54 417.01 110.95 418.26 110.81 418.77 110.33 419.44 109.99 420.32 110.12 421.49 110.67 422.08 111.5 422.67 113.08 423.33 117.35 423.92 118.53 423.7 119.83 422.74 121.83 420.17 123.28 419.29 125.69 419.29 138.98 423.92 139.39 424.36 139.67 425.02 140.22 425.68 141.04 425.9 144 425.61 148.07 423.92 149.51 423.48 150.89 423.62 151.99 424.14 154.26 425.75 153.44 426.71 150.2 428.69 150.89 429.8 156.06 432 161.08 437 161.36 437.58 161.43 438.47 161.22 439.42 160.88 440.08 160.6 440.08 161.63 441.92 163.08 442.65 173.55 442.8 175.54 442.29 182.09 438.1 184.63 437.44 186.77 438.25 186.56 441.99 188.97 442.21 191.18 441.26 192.62 439.86 193.93 438.25 195.86 436.56 197.72 436.04 202.12 435.89 203.78 435.31 204.6 433.91 204.19 432.95 203.16 432.29 201.92 431.93 206.6 426.93 208.94 426.42 211.42 426.78 213.69 427.44 218.38 426.71 220.58 425.9 222.44 424.06 222.92 422.81 223.68 419.65 224.37 418.19 227.19 415.98 227.53 415.54 229.39 415.61 233.8 416.42 242 416.42 247.64 417.52 248.68 417.23 249.71 414.88 250.81 414.29 259.28 412.68 282.42 413.63 283.18 413.48 286.07 410.1 286.41 409.22 286.55 407.9 286.34 404.3 286.07 403.56 285.58 403.2 284.76 402.46 284 401.58 283.66 400.85 283.52 399.67 285.1 399.08 287.51 397.25 288.41 396.73 289.86 396.14 290.06 396.14 289.79 396.73 289.51 398.2 289.17 399.3 288.55 400.11 288.2 401.06 288.75 402.54 289.72 403.42 290.82 403.2 293.09 402.17 295.3 401.87 301.08 402.98 302.8 402.75 306.73 401.36 308.38 401.65 308.86 402.46 309.89 405.33 310.44 406.43 311.27 407.38 314.23 409.59 315.68 410.18 317.74 410.25 319.88 409.88 321.46 409.22 322.43 408.41 325.94 405.55 327.87 404.67 331.45 403.93 335.03 403.93 340.68 405.25 342.4 405.03 341.36 407.38 342.95 409.15 345.5 410.76 347.49 412.53 344.81 413.78 343.57 416.94 344.12 420.32 346.6 422.15 348.11 422.37 349.08 422.67 349.9 423.33 354.52 427.96 359.47 431.41 360.58 431.78 361.4 431.56 362.23 431.12 363.26 431.05 364.23 431.56 364.78 432.07 365.4 432.44 366.5 432.37 367.19 431.85 370.08 428.69 370.08 427.59 369.8 426.78 369.46 426.05 369.25 425.31 369.18 424.5 369.18 422.08 369.39 421.71 370.36 419.51 370.49 419.36 370.29 419.44 370.15 416.35 370.42 416.42 372.08 414.44 372.14 414.07 373.32 411.35 373.59 411.06 373.8 409.44 373.87 407.75 373.59 406.06 372.76 404.08 370.84 400.99 369.6 399.6 368.29 398.71 366.77 398.49 364.23 399.52 362.71 399.74 357.13 398.79 355.48 397.32 357.34 394.67 357.34 394.6 358.03 393.64 358.17 392.76 358.24 391.88 358.37 391 358.92 389.9 365.46 380.42 364.98 379.98 362.78 377.04 359.41 369.76 357.68 368.22 356.86 367.85 354.86 365.94 352.45 364.62 351.62 363.52 351.07 362.12 351.07 361.9 350.8 360.43 349.28 357.35 342.19 350.59 341.3 349.26 340.4 347.57 339.85 345.81 340.06 343.9 340.68 342.94 341.3 342.72 341.98 342.8 342.6 342.5 344.05 340.45 344.39 340 348.46 337.43 349.76 336.04 351.56 333.39 352.52 332.51 354.03 331.78 359.61 330.75 359.47 330.45 360.99 329.28 364.23 327.66 368.01 324.35 369.6 323.33 380.06 319.58 393.91 317.37 397.28 315.61 407.13 307.82 408.5 305.62 409.12 302.75 409.26 302.02 409.74 301.28 410.23 300.33 410.43 298.93 410.23 295.04 410.43 293.79 410.92 292.46 412.22 289.89 412.5 288.57 412.29 287.32 411.4 286 410.98 283.5 410.64 282.91 410.57 282.4 411.12 281.44 412.08 280.71 415.32 279.53 418.7 279.17 429.16 281.81 430.88 282.69 432.54 283.79 434.05 285.93 438.18 287.62 438.39 287.84 439.29 284.16 440.18 282.55 440.53 282.62 442.59 282.32 443.42 282.03 444.24 281.3 444.73 280.63 446.45 277.18 447.07 275.42 447.34 273.43 447.41 271.08 446.93 266.67 447.14 264.98 448.51 263.81 447.27 263.29 446.72 262.85 445.69 260.94 445.14 261.09 445.35 259.77 448.38 254.04 452.44 255.06 454.37 256.02 456.16 257.27 458.36 258.96 465.18 262.34 466 263.22 467.73 265.5 468.35 266.67 468.83 267.12 469.58 267.33 470.14 267.78 470.41 268.58 470.2 269.47 469.79 269.54 469.31 269.47 468.97 269.69 468.28 271.01 467.73 271.16 467.52 271.6 468 273.43 468.48 274.24 470.2 276.15 471.03 276.89 474.48 278.14 488.73 279.61 498.71 282.84 499.68 282.69 500.44 282.47 502.5 280.93 507.67 278.94 509.32 277.4 511.52 271.96 513.04 271.08 515.45 273.65 519.44 275.56 520.61 275.79 522.13 275.49 525.16 274.17 526.67 274.1 527.36 274.61 527.5 275.49 527.5 276.37 527.77 276.96 528.6 277.03 530.12 276.59 530.8 276.67 531.84 277.99 532.46 279.31 533.21 280.19 534.87 280.27 536.45 278.87 536.93 278.43 537.41 274.9 537.35 270.64 537.76 266.97 539.62 264.1 544.92 259.91 545.4 257.27 546.44 255.65 546.85 253.96 547.47 252.64 548.98 252.13 554.22 252.79 559.38 254.7 561.45 254.55 562.62 252.13 562.41 251.91 561.93 250.95 561.52 249.92 561.31 249.04 561.45 248.08 562.21 246.32 564.34 237.65 564.34 233.83 563.93 229.57 563.93 225.67 565.3 222.73 565.24 222 565.24 221.34 565.37 220.9 565.72 220.68 567.92 220.38 573.5 222.15 581.35 222.73 582.11 224.64 582.52 226.56 582.45 228.39 581.83 230.38 583.83 230.45 591.47 228.54 592.02 228.25 593.4 226.78 593.74 226.04 593.95 224.13 594.36 223.62 595.12 223.54 595.67 224.13 596.09 224.87 596.57 225.16 601.25 225.23 603.52 225.75 608.34 228.02 612.82 229.35 615.02 230.52 619.98 234.42 622.25 235.22 628.25 237.36 636.1 241.32 638.3 241.84 640.64 241.84 642.36 241.32 645.94 239.63 646.77 239.41 649.87 239.41 650.42 239.78 650.83 241.54 651.38 242.21 652 242.5 653.93 242.65 655.03 243.31 655.79 243.68 656.68 243.6 655.65 244.85 656.89 244.56 657.99 244.63 658.75 245.22 658.89 246.69 660.61 246.32 661.09 246.91 661.09 247.86 661.23 248.53 671.35 255.21 676.72 257.27 686.02 256.83 700.07 258.67 700.21 258.59 702.27 258.3 703.58 259.33 704.2 259.47 705.72 259.03 706.82 258.08 711.98 250.14 713.7 249.11 716.6 249.48 717.63 249.48 719.49 248.75 720.38 248.67 721.35 248.89 723 249.92 729.06 251.54 730.92 251.68 732.85 252.42 733.6 254.11 734.02 256.09 734.71 257.71 736.01 258.52 737.67 258.81 741.45 258.67 742.97 259.11 746.62 261.31 748.48 261.97 750.41 261.75 754.26 260.5 755.91 260.57 758.33 263.66 759.7 272.77 763.22 276.45" style="fill:#efc441"/></svg>