<svg xmlns="http://www.w3.org/2000/svg" viewBox="0 0 800 800"><path d="M663.31,627.38l1.69,8,.32,3.94-2,20.06L665,690.65l.32,3.34,1.21,6.6,4.25,13.29.16,1.29.25,1.28-1.05,2.15-2.33,2.48L665.08,723l-2.41.25-1.37-1.71-.8-2.66-1-5.31-2.25-5.23-3.06-.77-3.85.94-5-.51-2.65-1-1.29-.77-1-1-.81-2.31-.24-2.23-.56-2.14-1.53-2.15-3.77-1.28-4.5,5.57-3.7-.09-1.93.35-1.28,2.57-1.61,5.57-3.29,5-.64,2.23v2.57l.8,5.23-.08,2.57-.72,3.86-.41,2.06.73,2.31.88,1.8,2.73,2.75.81,1.88.64,2.06,4.82,4.2-.72,5.06-.25,5.4.57,5.31,1.2,4.8,3.38,5.4.56,1.38.24,2.48,2.17,6.86.88,1.63.32,1.46-.24,1.37-1,1-.72-.43-.57-1-.64-.51-.88-1.2-2.73-6.77-8-15.26-1.93-8.49-.8-1.37-6.11-5.4-1.2-1.71-1.85-3.86-1.36-2.06-5.15-6.43-.88-2.14-.16-2.74,1-8.49-.16-3.09-.64-2.48-6.51-12.43-1.12-1.2-1.29-.78L591,700.08l-.81-2.4-.4-2.14h.73l.24.42.16.09h.16l.32.34.88-2.4,1.45-2.48,1.85-1.38,2.25.86-1.45-1.46-1.21-2.4-.64-2.74V682l1.05-1.54,1.6-1.55,1.13-1.88-.48-2.14,1.76-2.23.32-.95-.48-1.28.73-1.29-.25-1.11-.8-.86-.72-.26.32-1.37.48-1.2v-1.11l-.48-1-.16,1-.24.43-.48.42h.88l-1.53,4.46-1.36,1.89h-2l-.88-1.63.32-2.06.64-2.06-.08-1.54H593l-.57,2.23-1.12-.17-1.05-1.54-.48-1.89.4-2.91,1-.78,1.52-.34,1.77-1.71-.72-.95-1.93,1.55-.8-1.12.72-2,2.73-1.2v-.94l-5.38.43-2.33.85-1.85.52-1-1.12.16-3.08,1.2-2.83,2.17-1.12-1-1.37.48-1.2,1.29-1,1.52-.77v-1l-1.2.17-1.13.6-.88,1-.72,1.2-.65-1.63-.56-2.74-.48-5.23-.4-1.29-1.69-2-.32-1.2v-5l-3-13.46-.17-4.46,1.21.51.4.26-.64-1.71-1,.25-.8,1.63v2.57H577l-1.29-2.31L574.54,604l-.73-3.26-.16-3.17.57-2.06,1-1.28,1-.94.64-1.2-.16-2.23-1-1-1.2-.6-.89-.77-.32-3.26,2-1.54,3-.95,2.57-1.37,1.29-2.4,2.65-9.34-.72.08-1.61-.08-.24,2-1.2,5.14.24,1-.81.69-1.36,1.45-1.77,1.55-2.09.77-.32.68-2.89,1.63-.89,1.29.33,2.06,1.2,1,1.53.6,1,.77v2.57l-2,1.63-2.57-.26-1.85-2.91-2-15.09-1.29-4.8-7.87-16.2-15-21.86L539,530.77l-2.09-2-1.61-2.4-.88-2.06-1,.6-.8-.69-.48-1.37-.16-1.63.24-1.63,1-1.63.73-3.77,1.92-5.57V505.4h-.8l-.4,2.4-2.09,6.94-1.12,1.46-2.58.86-1.6,2.14-.64,2.91.4,3.18-1.77-1.46-1.77-.77-1.93-.43-2.57-.17v1l2.49.77.32,1.2-1.2,1.2-2.09.51-6,.09,2.08.68,1.93.95.89.77-.33,2-1.44,1.11-2,.52-1.93.08-.08-.08L508,532.4l-.49.17h-.4l-.16-.51v-2.4l-1.44-.52-1.77-.25h-4v.77l1.45,1.46.56,1.37-.8.94-2.73-.09v1l6.74,1.8,3.14,1.37,1.28,2.58-.4,1.71-.88,1.89-1.37,5-2.41,2.41-2.17,1.8-3,.94-5.79,1.2-4.49-2.32-2.25-3.51-1.29-5.66-1.2-1.54-1.29-2.32-1.29-4-1-1.2-1.77.6,1.77,1.89,1.61,3.6,1,3.86-.32,2.57-2.33,1.2-3.86.6-3.53-.17-1.53-1.29-.72-1.8-3.21-2.4-.73-1.28-.4-1.2-1.69-2.4-1-3.69-1.29-.6-3.45.34-.48-.77-1.45-4.71-.88-.77-1-.6-1-.6-.72-2.41L451.86,522l-.4-.86-.16-1.37-1.45-3.6-.8-4.54-1-2.32-1-1.88-.88-2.23-.33-3-.64-1.63-9.08-12.86-1.2-3.43-.32-1.54v-1.46l1.36-8.06.16-5.4.73-2.91,1.28-2.58,1-2.4-.49-2.48h.73l-1.93-4.37-.08-1.72,1.28-1.2-.4-.08h-.32l-.24-.18.08-.68-3,1-2-2.75-1.13-3.94-.32-2.49.16-7.8,1-3,2.89-1.8h6.83L445,427l.08-4.89-.56-1.8-.64-.77-1.13-.17-2.09.09-.32.6,1,1.2,2.09,1.71-.8,2.74-2.09-1.28-1.28-.09L437,425.67l-3,1-1.68,1.2-.49-.51L430,422.16l.48-3.69,1.93-3.08,2.89-1.46-.72-.94-.16.6-.08.08-.09.09-.56.17-.88-1.29-1.93.26-4.34,1.89.73,1.8-.65,1.11-1.44.6-1.77.17-2-.17-1.53-.6-3-2,1,2.06,1.6,1.37,1.93.77,2,.34,4.34.18,1,1,.24,11.92-.4,1.37-.88.86-1,1.88-.72,2.32-.24,2.14-3.94-1.8-23-4.63-4.42-1.71-4-2.74-.16,1.54,1.12,1.46,15.27,9.51,1.77,1.54,1.12,1.72.72,1.63,1.05,1.2,3.69.85,3.3,1.72,1.85.68,7.63.86,1,.95,3.46,5.4.48,2.14.48,4.71-.48-.77-.89-1.28-1.12-1.2.56,2.57.56,7.8-.48,3.17L428.16,482l-.8.77-1.37-.35-.32-1.11.56-1.29,1.13-.94v-.94h-.81L425.27,480,424,481.31l-1.61.86-2.24.6-4.42-.17-1.45.6-.56,2.22.16.86.48,2.83,1.61,4.2,2.17,3.94,2.41,3.18.24.68-.16,1.55.32.94.24.08.48.09.48.17.41.43,1.36,1.2.48.86-.56,1.28-1.77.86-1.76-.17L418.6,508l-1.69.09-2.25,3-1,4.37-1.45,3.68-3.29.78,1.85,1.71-.41,1.71-1.6.69-1.45-1.54-2.57,1.8,1.77,1.37,3.29,1.11,2.33,1.2,1.13-2.4,2,.35,2,1.88,1.29,1.89.32,1.37.48,4.11,1.45,4.29.4,4.54-.32,1-1.13,1.55-1,.6-2.65.42-1.13.69-.64,2-1.37,7.29v2.06l.33-1.46.72-.77.8-.6.56-.86.09-1.37-.33-2.57.24-1.37,1.13-1.81,1.77-1.11,2.09-.34,2.25.43,4.17,2.74,2.09,3.77,1.45,4.37,1.93,4.55-1.77-.6-.64-.35.08,3,.8,2.4,2.33,4.63.56,2.66.16,2.74-.72,5.4-3.7,10.12-2.81,4.54-2.25.6-3.13,1.8-1.29,1.12-.48,1.2-.32,1.71-.72,2.06-3.3,6.17-1.12,1.46-1.37.6L411,614.1l-2-1L407.19,612l-.72-1,.72-3.26L410,601.5l.48-3.18-1.36-3.77-.24-1.71.72-4.12-.4-1.63-1.93-.51.56,2.74-1.2,5.83.24,1.89,1,.86.73.34.64.51.4,1.29-.16,1-.56.85-.89,1-.16.25-.24.26-.24.43-.24,1.89-.48-.09-.56-.34-.49.34-.32,1.29-.4,4.11-.48,1.63-.48,1.11-2.09,3.43-1.53,1.8-.32.52-.48,2.23-2.25,4.8-.48,2.4-.57,5.06-1,4.88-1,2.57L393,643.16,386.54,649l-1.6,1.11-2.25.52-2.41-.43-4.42-1.89-2.09-.51-1.85-1-.56-2.15.8-1.71,2,.43-.88-1.8.72-1.29,1.21-1.2.56-1.63-.16-1.11-.32-.69-.08-.85.56-1.37L374.65,635l-2.09,5.4-1.12,1.12-1.13.43-1.44,1.71-1.05.6-1-.26-1.53-1.28-1.36-.17.8-3.52.32-7.2,1.29-2.91,1-.95,1.37-.85,1.36-1.12,1-1.54.56-2.06.24-1.63.4-1.63,1.13-1.8,4.82-4.62.64-.78.8-1.54.65-.86,1-.43,1.05.26.88.52.64.17,2.49-1.8,1.85-2.92.8-3.51-.32-3.52L386.62,604l-1.44,3-1.69,1.29-3.13.43-1.93,1.2-7,7.8-.8,1.37-1,2.83-1.52,2.48-.33,1-.64.6-1.69.25-1.2-.17-3.7-1.54.65-1.89.16-2,.88-1.54,1.13-1,1-.51.8-.95.32-2.05-.4-3.86.48-1.46.41-2L367.1,606l1.29-.68,1.12-.77.72-1.63-3.05,1.2-1.44,2.23-1.85,6.43-1.05,1.54-3.21,3.26-.64,1,.24,6-.24,1.62-1.77,1.63-2.09-.85-1.85-2.23-.72-2.57-.24-1.29-1-3-.4-1.54-.24-9.69-1.12-5.4-.24-3.34-.33-1.29-1.44-2.49-.64-1.28-.41-1.72-.16-1.37.16-1.37.41-1.8,2.33-6L359,565.92l.64-1.63.4-1.63.72-1.46,1.45-1.2L359,562.23l-.41.43-3.77,4-1.61,2.14-.64,2.06-.88,2.14-2.09-.6-3.54-2.92.24,2.75.73,2.23.4,2.23-.48,2.82-4.9,9.78,1.44,2.83,1.21,4.62,1.36,8.92.16,4.54-.32,2.23-1,1.72-2,1.11-1.69-.17-1.77-.6h-2.25v1l2.5,1.11,2,1.37,1.45,2.06.48,3.09-.08,1.28-.64,2.32v1.37l.48,1.2,1.61,2.66,1,2.48,1.13,1.46.64,1.72-.8,2-.81.35-2.65.6-3,2.74-.64.86-.25.6-.4.6-1.12.68-2.17.86-1.29.17-.48-.6-.64-1.89-1.45.35-1.76,1.28-1.45.69-2-.17-2.17-.43-2-.86-1.44-1.2-.48-1-.49-1.37v-1.46l1.21-2.31-.24-1.29-1.69-2.48-3.29,7.2,1.36,2.4,2.25,3.34,2.65,2.92,2.33,1.2,1.05,1.28-1.29,2.66-2.57,1.8-2.89-.77-1.37-.94h-1.36l-2.9.6-.32.68,1.29,3.52.24,1.11-2.17,2.4-2.49-1.63-3.37-5.31.16-2.32-1.29-5.4.32-3,1-1.71L309,641.7l.88-2.06.32-2.14-.48-9.52,1-7.63.65-2.65,2.81-5.23.56-2.92-.4-2.74-1-2.74-1.44-2.49-1.61-2-.08-1.8,3.62-5,.88-2.15.16-2.82.4-2.75.73-2.48,1.12-2.32-1.29.94-1,1.72-1.61,3.6L311.83,588l-.48,1.11,1.12,3.09-.72,1.11-2.25,1.8-1.45,2.32.16,1.71,2.49,4.54.57,1.63.32,1.29.08,2.91-.32,1.63-1.21,2.49L309.9,615l-1,8.41-.57,1.88-2.17,1.2-1-2-.16-5.92.32-1.37,1.21-2.65.08-1.8-5.31-13-.32-2.66.56-5.92-.16-2.65-1.12-2.83h-.88l-1,8.74,1,16.63h.88l.08-1.89.56-1.71.64-.94.33.34.16,1.2.4,1.63.64,1.54.72,1.12.57,1.54-.08,1.89-1,3.34-.56.6-1.45.26-.32.42.16.95.24.6.49.77.4,1.46,1.44,3.17.89,1.2.16.94-1,6.95-1.2,1.54-1.53,1.2-1.6,1.54L298.17,643l-.16,1.8.4,2.14.32,3.26-.4,3-1.12,2.48-1.61,2.06-4.26,3.86-1.28.08L287,658.16l-.64-2-.16-3.35.4-5.91.64-2.4,1.53-4,.32-3.09-.56-2.65-2.17-4.38-.48-2.31H285l-.72,2.06.32,1.63.73,1.71.56,1.8v2.14l-.48,1.2-1.93,2.06-1.21,1.54-.8,1.38-1.93,4.8L279,649.5h-.56l-.65-1.71H277l.08,3.34,1.21,5.14-.49,3.18-2,4.54.33,1.46,2.49,1.28-1.37,1.63-2,1.54-2.33,1-2.33.26-2.17-1.29-.72-2.48.4-2.32,1.29-1,.24-1.45-3.7-10.72-.16-1.11-.08-1.55-.48-.6-1.12.78-1,1.28-.48,1.2-.72.52-1.53-.43-2.57-1.37-1.21-1.12-.56-.86L253,637.93l-.24-2.23.32-2.66,1.2-5.57.08-3-.88-2.83L250.93,618l-.56-2.05.72-6-.4-2.49.08-.09,2-2.65-.24-3.17-.65-2.66-1-2.23-5.14-6.94-1-2.75,1.69-1.2-2-3.51-.64-1.63-1.37-7v-1.29l.33-1.28,1-1.8.24-1-.48-3-2.17-5.23-1-4.89-1.44-1.2-3.62-1.45,2.65-1.8.73-3.09L238,544l-1.13-3.42-1.45-2.75-.48-2.91-.4-1.72-1.36-3.77-.33-2.4.81-1.8,1.28-1.71,1.29-2,.48-1.8.48-2.57.16-2.57-.24-1.71-1.36-1.38-3.22-1.11-1.36-1.71-2.57-6.18-1.21-2.14-2.25-2.91-.4-1.46.08-2.57,1-3.78.33-6.77,1.6-3.34,6.35-7,3.13-2.74,1-1.2.56-1.46.08-1-.72-.69-3.22.18-1-.26-1-.52-8.19-3-2-.42-1.53.25-1,.69-.72.77-1,.51-1.2-.08-7.71-2.57L208,459.45l-1.21-2.57-.08-2.83,1.13-2.57,2.81-4.72,5.7-15.68.25-2.92-1.53-1.29-1.53,1.29-1.36,2.14-1.53.6L209,427.39l-1.28-.69-3.46-2.4-2-2.23-2.73-5.14-1.76-2-.89-.17-2.33.25-1.2-.51-1.13-1.29-.08-.94.4-.94.24-1.72-.64-.42-1.2-.26-1.13-.6-.16-1.46,2.49-12.09-.16-1.2-.88-2.05.08-1.29.56-1.37,1.69-2.83.64-1.54v-1.2l-.24-1.2-.16-1.2.4-1.2,1.85-1.63,2.33-.09,2.41.26,2.25-.52,1.6-1.28,4.42-4.54,1.21-1.55.32-2.31-.32-2.83-.73-2.57-.8-1.55,1.45-2.57,1.36-1.88-.08-1.29-2.81-.69-.32-1.62L205.94,351l-.56-1.46.16-1.28.72-2.75.16-1.54-.56-2.66V340l.64-1.63,1.21-1.2,2.57-.95,1.85-.94.4-1.11,1.36-2.15.41-1.2-.33-.51-.24-2.14-.24-.6-.64-5.23-2.73-3.78-3.86-2.4-2.49-.6-1.28,3-1.77,2.83-2.57.17-5.79-2.05-7.63-.35-2.65-.6-8.68-7.11-30.85-16.72-3.37-.77-.24-.94-1.05-2-1-1.37-.48-.52-.16-.68v-6.86l-.33-.86L134.2,279,133,276.26l-1.93-.86-2.25-.69.65-3.94,1-2.49L132,266l.56-5.74,1.29-.6,1.52-.26.8-1.2.17-1.89.32-1.54.8-.94,1.53.25,1.12-2.4,1.61-1.71,1.12-1.72-.32-2.48L141,241.11l-.57-1.11-.64-.69v-.6l5.86-3.34,2.17-.78,2.25.26,1.93,1.37,1.61,2.23,1.12,2.57.08,2.4,1.45.09,4.9,1.37,1.93.26,1.12-.86,2.09-3.94,4.1-5.57,1.45-3.09.4-3.51,2.65-3.52,1.36-3.94,1-8.75-.32-7.45,1.12-2.23,4-.78,1.93.6,3.69,1.46,3.14.95.56.25h.48l1.37-.34.8-.51,1.45-1.72,1.12-.43,4.1.17,3.53.69,7.07,2.74,7,.77,1-.77,1.2-2.91.72-.95,1-.17.72.26.8.43,8,3,3,.17L233,202.36l2.17-.51.32-1.29-.32-1.8.16-1.8,1-1.46,4.42-3.34.8-1.28.32-1.29-.24-1.29-.88-1.11-5.71.26-2.81-.35L230.28,185l-.72-.51-2.41-.18-1.21-.34-.88-.77-2.73-3.6-.48-1.46-.16-1.28-.32-1.12-1.29-.94V174l2-4.8-.16-2.83-1.05-1.72-1.52-1.37-1.45-1.8-1-.94-3.62-1.37.08,2.31-1.12.6-1.13-.08-1-.18-1,.18-1.2,1-1,1.29-1,1.11-1.37.35-2.49-.6-3.77-2.49-2.33-1.2-5-.17-2.41-.51-1.13-1.2-1-1.89-3.14-2.57-1.2-2.66-4.42-2.31L176,148.53l-.48-8.23-3.13-3.6-8.52-6-7.07-8.49L153,120.15l-5.31,1.55-1.92,1.2-2.33,1-2.17.18-1.53-1.72-.8-2.48-.57-1.21-1.84-2.14v-1.2l.16-1.11-.81-2.06-.88-5.92.32-.68.64-.34.65-1,2.17-7.55L141,92.12l3-2.4.8-2.57-.16-1.46-.64-.77-.72-.43-.41-.68-.16-1.29.16-.69.32-.77,1.37-4.37,1-1.54,3.86-2.57,1.05-1,.72-.94.8-.86,1.29-.6,2.41-.51,6.83-2.4L164.57,65l1-2.06-.16-4.88.4-2,1.77-2.58,1.77-1.62,5.54-3.6.88-1.12.56-1.29.65-.51,1.2.77.81.34,1,.09,1.21-.17.88-.17,2.57.34-.24-3.34L182.08,36l-1.69-2.91-3.13-1.55-6.75-1.37-2.73-1.2L167,29l-.49.94-.32,3.09-.48.77-1.53-.52-.88-1.71-.16-2.23.64-1.8,1.53-2.66,2.41-8.66.88-1.88L170,11.88l1.44-1.63,1.05.77.24,2.49-.16,2.83L173,19l1.53,1.8,4.17,1.28,1.85,1,1.53,1.8,1.45,1.28,1.28,1.46,1,.94,2.33,1.63,2.66,1.2,1,.09h2.49l1.45.68.8,1.29.64,1.46,1,1.28,1.28.86,1.21.6,2.73.69-.48,1-.24,1.2.24,1,1,.34.88.43-.16,2.31.73,1L208,46.94l1.61,1.29.32,1.71-1.13,2.49-1.52,1.29L203,55.94l-.89,1,2,1.55,10-3.78,4.26,1.63.89,2.06.8,2.32,1.12,1.88,1.93.94,1.85-.77,1.77-4.37,2.41-1.71,3.13.6,5.22,5.4,3.3,1.11L246,62.55l2.33-1.72-.64-2.49-1.21-.42L245,57.83l-.8-.86.4-2.91-1.12.77-1.05.34-1-.34-.72-1.11-1-3.86-3-1.54-3.37-1.2-2.41-2.66-.08-2.23,1-2.57,1.53-2.23L234.78,36l1.93-.94,1,.34,1.13,1.12,1.85,1.37,1.36.77,1.77,2.06,1,.94,1.29.51,2.57.69,1.05.86.56,1.62-.4,1.2.16.86,1.92.86,2.82.86.88.94v1.89l-1,.51-1.69-.77-1.37.17.08,3.6.73,2.14,2.33,4,.88,2.15,1,8.14.89,2.4L259,76l7.8,3.52,1.76,1.11,1.21,1.72.72,2.57,1,1.2,4.17,2,2.82,3.43,2.17,1.54,2.33,1,1.92.26,1.85-1.12,1.45-1.37h1.36l1.77,2.75.56.25.57.09.56-.09.64-.25L300,94l.64.08.56.17.56.35,1.61,3L304.44,99l1.2.68,1.61-.34.8-1.2.32-1.71-.08-1.8,1-3.69,5.14-4.37,1-2.32-.88-1.63L313,82.52l-1.6.34-1.13-.6-.08-1.63,1.29-1,1.76-.94,1.37-.94-2.17-.26-1.93-.94-.8-1.72,1.28-2.4.73-.68.8-.43.88-.09,2.41.78.08-.69-.8-1.54-.24-4.12.8-1.11,2.57-.86,2.09.43.65,2-.08,2.83-.08,2.91-.17.52.33.26,1.44.68.81.17,2.33-.25,1,.08,1.45,1.2.64,2,.56,2.23.88,1.8,1.61,2.23.16,1.63L331.51,86l.16,2.32.64,1.28,2.41,3.18.89,1.8.64.94.72.26.81-.35.8-.85h.08l.16-.18h.4l.08.18,1.61,2-.4,1.89-1.61,1.37-2.33.86,2.25,1.37,1.85.17.88.77-.48,3.17L336,115.44l-.48,3.34,2.17,12,2.65,6.77,1.2,5.23-1,9.43-.24,10-1.77,6.69-.88,3.51-.16,1.38-.49,3.85.41,4.55,1,4.71,1.37,2.66,1.76.26,4.18-1.72,4.5-.17,26,11.4,18.4,4.2,9.16,4,4.09.09,12-2.66,9.56.94,4.74-1.28,1.69.08,1.29.43,2.57,1.2,4.34.77,1-.08.64-.43,1.21-1.37.64-.35,1.93.26,1.45.94,1.52,1.2,1.69.86,3.29.43,13.26-1.89,1-.17,3.78-1.37,18.8-3.17,6.51.26,1.44-.26,2.57-1.37H506l5.7,3,17.36,5.48,4.57.6,1.13-.25,2.41-.77,1.2-.18,1.45-.34,1.93-1.63,1-.51,2,.17.89,1,.8,1.54,1.85,1.54,2,.52,3,.17,2.73-.43,1.2-1.2.65-2.23h1.28l1.53.77,1,.35.81-.69.72-1.63.8-.77,1.77-.26,5.62.6,12.62-1.62,6.51,1,2.16-.77,3.14-1,3.77.18,3.78.94,3.21,1.37.89.69,1.12,2,.72.68.89.35,1.69.08.8.6.64.26,1.61-.52,1,.26.81.69,1.68,2.31,1.69,1.46,1.37,1,1.6.77,2.09.51,6.11.86,1,.77,1.85,2.75,3.29,1.45,2.9,1.8.48,2.49.24,1.29.88.25,2,.77h.08v.52l3.78,2.83,1.12.6.48.6-1,.94,2.89,1.29,1.13,1.11.8,2.14h.08l.32,2.32-.32,1.54-1.61,2.57-4.17,1.2-7.23,2.49-1.13-.17-.88-.43-.48-.69-.17-1-8-5-4.5-1.54-3.37,1.54-.64,2.23.48,2.32,1.52,4.28.24,2.15-.08,2.05-.32,2.15-5.94,17.31-1.13,5.15-.48,4.54-.64,2-1.21,2-.4.35L612,289.63l-1.77,1.11-1.45,1.46-.56,2.57.56,8.06-.4,3.77-2.25,3.26-3.05,1.37-3.38.35-9.8-.95-.16,1.63,2.65,4.46.08,1.8-2.25-.86-2.57-1.88-1-1-2.57.85-.4,2.4,1.2,5.32-.16,2.57-2.49,11.32-.88,2.31-1.45,1-2.41-.69-3.54-3.68-.32-1.2-.16-2.92-.32-.94h-1.2l-7.48-1.71-1.2,1.8.32,2.48.72,2.66.08,2.31L563,340.72l-2,.77-2.33-.34-2.09-1.37-1-2.06-2.09-5.31-1.21-.52-.56,1.63-1.2,8.4-1,2.83-1.12,1.8-1.69,1.2-2.73.86-4.82.6-4.34-.43-8.92-2-4.9.43-1.44,3.43-.17,5.05-1.2,5.4-1.37.95-1.28-.17-.89-.43-.48-.17-1.52-.09-2.09.86L509,363.52l-1.2,1.72-4,7.37-.48,1.89.08,1.8,1.28,3.08.48,1.63-.32,2.49-2.33,7.28-1.2,2.15L499.1,394l-2.25.26L495,395l-1.12,2.48.48,2.92,1.93,1,1.93.78.72,2-1.05,2.14-1.68-.08-1.45.17-.4,3.17.56,2.31,3.38,6.6.88,2.4,1,4.29,1.13,2.23,1,.94,2.09,1.29.72,1.2.33,1,.48,3.25,1.6,5.66,1.21,2.66,1.53,1.2,1.52.43.4.77-.56,1-1.12,1.2-.89,1.2.24,1,.65,1.11.48,1.37L513.64,474l1.53,5.4,2.81,3.95,3.94,1.11.4-4.37-2.17-11.06v-5.83l.56-3.08,1.37-2,2.57-.08L526.9,460l1.68,2.49,1,2-.08-.08.4-.95.08-.08.72,1,.08.85-.16.78.08.68,1.77,1.8h.24l.8,4.12.57,1.28,2.73,9.69.56,3.34.32.43,1.13.34.32.52.16,3.86.48,1.37,1.53,1.8,1.52.6,1.61.25,1.61.86.72,1.46v1.28l.32.43,1.93-1.11.72-.94.4-1.29.57-1,1-.51.8.17.89.34.8.17.81-.17,1.6-.6,3.22-.77,1.44-.94.89-1,1.92-1.89.89-.94,1.93-3.09.16-.51-.08-.69v-.6l.64-.51H568l1.12.08.33-.08,1.76-2,.49-1.2-.41-1.55-1.52-4L568,466.31l-1.77-4.2-.64-5.32,2.25-6.51,3.37-6.17,3.06-4.29,1.92-1.72,6.51-2.91,1.85-1.46,1.53-1.71,2.65-4.63.24-5.23-3.13-15.34-.17-5.06.25-2.83.72-1.72,1.61-.08,1.52,1.8,1.45,2.48,4.9,5.83,1.85.95,2.73-.77,2-1.81,3.77-5.57,1.93-2.23,5-1.8,2.33,3.78,1.21,5,1.6,2.23,1.77-1.71,1.45-6.17,2-1.2,2.41,1.37v.51l.24,2.32-1.37,5.65.32,4.38,4.5,15.08.64,6.52.57,1.88.64,1.12,1.53,1.54.64,1.12.16,1-.16,1.81.16.94.56.86,1.61,1.2.4.68.08,1.2-.32,2.66.08,1.28.56,2.15.56,1.28.08,1.38-.8,2.4-2.09,4.54-.48,2.06-.16,5.23,3.05,18.68L637,498l1,4.45,2.16,3.43,3.86,1.63,1.77,2.23,1,10.29.89,4,1.36,2,3.14,2.83,1.28,2,.48,2.06L654.8,543l-.32,7.72.48,2.14,1.52,4.11.16,2.32,6.83,42.95-.16,3.34-1.36.69h-1.77l-1.37,1.28,2.65,8.83,1.53,8.66.24,1.11ZM588.2,656l.32,5.91,4.25,8.66,1.05,5.14-.24,2.83-1.05,5.49-.32,2.91-1,2.32-2.57.08-3-.51-2.25.34v.69l.57,1v1l-1.37.78-1.28-.18-1-.68-.72-1.12-.48-2.31-.4-.86.08-.94,1.84-2.83.24-1.28.08-3.18-.64-5.31-2.41-8.66.64-4.89,1.13-2.57,1-1.28,1.29.17,1.77,1.37.56,1.71-.56,2.06-.89,2.06-.32,1.8,1.85-2.32.72-3.17L585,657l-.8-2.83,2.09-.34,1.93-.6V656Zm-331-2.83,2.73,1.88.72,3.6L259.21,661l-3.54-2-6-7.38v-.51l.81-.86.72-2.48-.08-2.49L250,640.93l-.33-2.06-.8-2.31.16-1.2,1.37-.09.48.34.4.6.32.78.48,1.88,1.13,8.83,1.37,3.86ZM582.57,642l-.4,2.06-1.69,3.43-.88,4.54-2.49,7.12-1.05,1.28-1-2.22L577,647.36l-.89-6.69.49-2.31.8-1.72,2.81-3.25.48.42.16.43.16,1,1.37,4.89ZM430.65,626.18v2.75l.48.6.4.94.65,2.06-1.85.43-1.13,3-1-.69h-.8l-1,2.66-1.93,2.83-2.25,1.88-2.08-.08v-1l.8-.17,1.52-.6,1-.09-1.05-1.54-.56-.69-.88-.6.72-.85v-1l-.16-1.12.32-1.45.48-.86.49-.69ZM400,632.53l2.57-5,2.09-2.4,2.65-.69-.4,2.83-3,5.23-2.82,10.28L400,644.19l-1,.77-.49-.35v-6.08l.41-3.09Zm6.51-14.4-.73,3.25-3.37,4-.8,2.66h-.73l.73-2.74,1.52-3.86,1.77-3Zm5.62.94,4.5,4.89,1.45,3.51-1.13,4.2-2.49,1.54-2.73,3.35-1.93.94-1.53-.77-1-2v-2.23l.64-1.89.81-1.37.64-1.63.24-2.83-.24-4.11.4-1.29,1.53-1.28Zm12.78-2.74-.65-.86-5.06,3.08-.64,1.29h-.72l.16-3.09.72-2.82,1.36-2.15,2.09-.77,1.45-1,3.13-3.6h1.45l1-1.46,1.37-1.45,1.36-.77,1.05.17L430.65,611v-1.37l-.16-.86-.72-1.46-1.37,4.55-.64,5-1.05,4.46-2.49,3.17-2.25.69-1.2-.6-.56-1.46-.08-1.8.64-1.2Zm46.67-18.78.65-.94.48-.09.32.6.32,1.2v7.12l-1,3-2.25.68-1.21-2,.08-3.69.89-3.94,1-2.92Zm4,2.49.08-7,.72-2.66,1.61.77.16,2.4-.4,2.83-.8,2.4Zm-2.73-5.4-1.85-.77.4-1.89,1.21-2.14.72-1.89.4-5.91.64-3.26,1.21-2.06.88.94.73,2,.4,2.48.16,2.66-.56,2.66Zm23-17.15.89,3.35,1.77,1.62,1.2,4.72.08,3.09.56,4.28-1.92,4-1.13,2-.8,1.63L495,605.27l-2.49,2.05-1.69,1.12-1.44.43L488,611.1l-2.25,1.54-2.89-.17L481,612l-1.36-.94-.73-1.89,3.46-4.2,2.09-3.51.8-2.23,1.13-6.34.08-9.26.64-10.2,2.09-.35,4,2.15Zm-62.1-8.91-.72-.52-.72.17-.65-.25-.32-1.63.32-.86.73-.26.8.18.56.51,1.61,1.8,1.69,3.17,1.28,3.69.32,3.08L437.32,575l-.32-1-.81,2.31.73,5.32-.81,2.23-.56-1.12-.16-1.46.08-1.45-.16-1.29h.8l-.72-2.4-.88-5.14Zm3.3,0,.72-7.72.24.34.64.09.49,1.46.16,1.46.08,2.48-1.21.77-.4.35Zm60-10.38,4.82-1.45,1.29,2.57-1.13,3L499.5,564l-2.41,1.12-3,.17-2.41-1.54,1.12-3.69Zm36.23-10.88,10.45,14.23.8,5.66-1,4.37-5.63.68-3.69-2.14-3.46-5.23-1.93-5.31-.72-4.2,2.73-6.69Zm-79.45,12,5.14,4.89,2.41,3.08L459,579.81l.16,21.26-1,3.34-6.27,10.12-2.09,1.8-.16-.52-.64-1.37-2.73,3-1.05.69-3.13,5.4-1,.43-1.52.77-1.45.68-1.2-.17-1-2.91,1.37-3.78,2.25-3.94L441,611l-6.5,9.86-1.93.43-.73-2.66.49-3.69,1.28-3.77,1.69-2.91L434,605.35l1.13-4.8,4.9-11.14.56-2.14.4-2.49v-7.72l.73-2.22-1-4-.24-2.57.48-1.63v-.77l-1.28-2.49-1.37-8L437,552.38l-1.93-1.8-6.59-4.89-1.93-.52-.56-4.88.32-4.63,2.57-10.8.81-1.46,1.28-1,2-.77,2.09-.51,2.25-.26,1.2,3.86,1.29,4.71,1.44,3.69,2.09,4.28,1.61,3.09,1.85,2.4,1.85,3.09.88,6.34L451,556.4Zm-17-46.64,2.16,2.66,1.69,2.75-1.85.34-4-.86-4.42-.26L427,520.66l-1.76.68-1.77,1.89-.24,3.26.56,2-1.61,2.23L421,529.32l-1.53-1.46-.16-1.2-.48-1.29-1.13-.86-3.21-1,1-1.55.16-1.2-.33-3.68.09-2.4.32-2.32.88-1.8,1.53-.68,4,.77,1.93-.26.81-1.89,1-.08h4.58l1.69.6,2.41,2.66ZM439.33,499l-3.06.08-1-.08,1.36.94L437.8,501l1,1.28.57,1.29-3.62-.43-1.12-.51-.89-1-1.36-2.66-1-.85-1.2-.43-.48.26-.41.51-1,.43-1.21.17-3.21.09-1.2-.26-1.93-3,2.33-4.2,3.93-3.26,2.9-.34,2.49,2.23,4.5,5.74,2.57,2.06Zm-18.4-15.26.72,1.2-.16,1-1.77,1.8-2.65,3.43-1,.6-1.05-5.4-.56-1.89H419l1-.26Zm1.61-33.52-2.17,1.12-2.17-.69L416,449l-3.7-4-1.28-1.88.4-1.2,3.05.08,4.26,1.55,5.54,3.08,4.5,3.43,1,2.91-4.26-3.25-2.33-.95Z" style="fill:#efc441"/></svg>