<?xml version="1.0" encoding="UTF-8"?><svg id="Barbados" xmlns="http://www.w3.org/2000/svg" viewBox="0 0 720 540"><polygon points="246.89 40.03 253.59 46.81 257.67 46.86 260.37 50.54 264.87 52.66 265.68 57.83 269.68 60.3 280.01 70.87 287.61 72.49 295.08 78.82 295.21 81.57 293.64 83.82 297.55 86.55 299.57 90.38 299.48 93.43 297.74 95.41 295.44 95.5 295.58 97.66 298.63 98.33 307.31 114.07 307.45 117.04 308.88 118.97 309.07 127.87 311.54 135.65 316.66 145.27 318.64 145.49 320.93 147.79 322.32 153.45 324.79 155.92 330.33 166.94 330.64 170.81 332.57 171.48 333.25 173.77 338.51 178.81 350.51 195.39 350.87 199.31 360.94 210.99 364.27 212.66 366.88 217.15 370.43 221.96 373.16 223.13 374.83 226.19 381.8 230.19 388.45 231.54 398.43 235.63 401.76 235.59 408.41 240.35 415.6 249.57 425.18 255.68 435.48 255.86 438.45 257.53 440.96 260.09 441.01 265.48 442.63 266.65 447.34 266.61 451.93 268.04 456.52 272.94 460.2 273.71 469.06 284.05 476.17 283.96 480.26 279.95 485.7 279.15 496.62 291.96 501.25 292.81 501.74 294.88 500.71 296.19 501.69 299.87 503.63 303.78 506.11 303.11 508.58 304.55 511.1 309.63 519.24 311.07 520.85 309.63 528.98 308.46 530.83 311.97 534.25 312.46 538.16 316.64 538.43 322.4 540.99 324.51 546.21 325.73 544.68 331.97 547.51 333.91 547.65 338.36 546.16 340.97 545.94 346.27 540.36 358.59 538.11 359.89 536.35 366.77 532.71 370.9 529.79 380.12 522.96 388.17 514.96 396.44 509.79 408.35 504.89 413.12 502.64 413.79 498.1 416.54 496.35 419.14 493.43 428.67 485.74 436.63 481.79 438.79 479.72 442.7 475.85 444.64 472.35 444.64 468.74 446.25 460.16 455.15 451.48 459.87 441.63 469.27 434.04 468.96 432.47 470.48 424.87 471.65 415.47 484.82 414.3 491.84 413 494.35 406.66 494.4 403.92 496.74 399.64 497.05 392.5 502.53 385.89 503.97 382.3 502.45 376.54 505.19 371.82 505.5 365.84 503.35 361.12 498.36 358.87 491.16 355.14 485.63 351.1 478.89 339.67 474.44 336.66 474.66 334.55 473.09 317.51 474.21 309.19 474.48 304.47 470.44 297.19 470.21 276.47 462.26 269.72 459.33 258.26 459.65 256.15 458.08 235.24 450.97 234.66 448.77 238.48 444.99 238.75 441.35 238.39 435.82 239.6 434.02 238.61 430.97 233.39 427.23 227.06 427.01 221.49 423.28 217.89 422.65 215.87 420.54 210.11 418.83 207.68 416.63 207.37 410.24 210.25 406.64 210.11 404.71 213.03 402.2 210.34 396.08 208.8 385.43 205.35 381.65 199.68 374.19 198.2 367.8 195.68 364.39 195.37 360.39 196.49 358.45 194.15 355.57 194.11 349.73 191.68 346.58 191.41 344.2 191.27 331.93 192.67 330.17 193.83 323.66 194.02 315.57 192.76 311.88 194.24 309.63 192.81 306.3 192.62 298.3 193.61 296.55 190.38 285.35 191.27 271.42 187.68 264 186.06 260.94 185.88 255.1 188.44 247.86 188.71 242.64 190.01 240.49 187.36 232.71 187.31 227.81 185.56 224.84 187.31 222.23 187.4 218.5 185.83 216.3 185.92 204.79 184.93 203.22 185.97 201.82 185.88 199.49 183.14 194.99 182.37 182.36 183.28 171.89 181.7 166.76 183.37 160.73 183 156.73 184.21 153.45 180.71 145.45 180.49 140.24 177.97 134.39 177.43 128.68 173.84 122.48 173.97 90.74 172.53 88.71 172.35 81.07 180.75 70.15 183.37 65.56 190.11 58.64 194.91 48.34 200.9 45.51 204.18 45.38 208.8 42.64 212.41 42.77 215.51 40.25 217.31 40.34 222.7 37.28 231.6 35.98 233.08 34.5 236.5 35.13 238.12 36.97 243.15 37.55 246.89 40.03" style="fill:#efc441; fill-rule:evenodd;"/></svg>