<svg xmlns="http://www.w3.org/2000/svg" viewBox="0 0 800 800"><polygon points="552.32 98.59 549.75 101.51 541.56 116.25 540.19 122 539.47 123.97 537.06 130.74 537.3 133.65 539.07 137.17 560.12 168.72 562.93 171.63 563.89 171.8 565.02 171.54 565.1 171.54 566.06 171.63 567.11 172.66 565.9 177.54 565.9 180.29 566.3 182.86 567.19 185.17 568.39 187.32 570.8 198.63 570.72 202.32 568.15 209.01 567.99 211.24 568.63 212.78 569.52 213.81 570.56 214.75 571.44 215.78 572.01 217.15 573.13 221.35 574.26 222.72 575.78 223.24 577.39 223.58 578.92 224.44 579.96 226.92 580.6 230.61 580.6 233.69 580.6 237.55 579.72 240.98 576.75 247.24 575.7 250.67 575.54 257.18 574.74 259.5 572.97 261.9 571.12 262.15 563.65 257.95 561.16 257.53 558.83 258.3 556.58 260.78 555.78 261.9 555.46 262.75 555.38 265.24 554.89 266.7 551.92 271.58 549.51 277.33 549.59 279.64 551.28 282.56 559.23 291.39 560.36 292.93 560.68 294.9 560.36 297.22 560.28 297.9 559.15 300.64 557.71 301.85 556.02 302.7 554.17 304.59 553.45 306.65 552.73 317.45 551.52 319.93 547.74 324.73 544.61 330.82 542.52 332.88 535.45 332.02 530.87 333.31 522.44 336.99 520.59 338.54 519.54 341.02 519.3 343.94 519.71 346.42 521.15 350.28 522.04 354.14 521.23 357.48 517.46 359.71 515.37 359.62 513.04 359.11 511.19 359.8 510.31 362.88 510.39 363.74 511.03 365.37 510.87 365.97 503.72 376 502.92 376.77 500.99 377.45 500.1 378.14 497.85 382.08 497.45 385.51 498.18 389.11 499.7 393.06 500.1 395.11 500.1 403.34 499.38 406 496.97 410.89 493.03 423.83 491.27 427.77 488.37 429.92 480.34 432.15 478.97 432.15 477.77 431.55 476.64 430.69 475.36 430.09 474.07 429.92 470.46 430 469.25 430.26 467.97 431.12 467 432.23 465.88 433.18 464.27 433.43 455.19 432.57 455.6 435.92 455.35 443.98 454.71 447.41 454.31 448.18 453.02 450.32 452.7 450.58 452.94 451.61 453.43 451.86 453.99 452.12 454.47 452.98 454.39 454.86 452.94 458.46 452.46 460.44 452.62 461.55 453.26 463.52 453.1 464.64 452.46 465.24 450.53 466.26 449.81 467.21 449.81 468.49 449.81 468.67 452.06 499.44 452.38 503.13 451.42 507.33 450.53 508.87 448.2 511.7 447.56 513.24 447.56 514.36 447.8 516.67 447.8 517.87 446.92 523.1 446.76 525.5 447.16 528.5 448.12 531.24 450.45 536.56 451.18 539.22 451.18 541.96 450.21 544.27 449.01 546.42 448.12 548.56 447.8 550.88 447.56 558.33 446.04 566.39 445.63 574.28 445.15 575.39 443.95 577.79 443.7 578.82 443.79 579.34 443.87 579.85 444.83 581.39 446.12 584.99 448.93 588.34 449.97 590.14 450.29 591.94 449.17 608.91 448.93 613.02 449.49 618 451.9 622.71 455.35 627.08 457.93 631.71 457.6 637.03 457.36 638.14 457.28 638.83 456.88 639.09 454.39 638.57 453.1 638.49 452.22 639.09 451.98 640.46 454.39 671.4 454.31 673.2 453.91 674.4 452.94 675.69 451.9 678.09 451.34 678.86 451.26 679.8 451.74 681.43 452.7 682.72 455.76 685.46 456.48 686.66 456 688.03 454.79 688.72 453.26 689.15 451.9 689.84 448.85 694.38 449.25 698.92 450.86 703.81 451.42 709.04 450.21 714.35 449.89 717.01 450.45 719.5 451.34 720.78 452.38 721.55 453.59 721.98 455.03 722.07 455.68 722.67 455.92 723.95 456.32 729.78 455.68 731.15 454.23 732.18 452.14 734.24 450.77 736.9 450.69 739.47 451.74 744.78 451.5 747.44 449.33 754.21 448.93 755.41 448.52 757.99 447.64 763.64 447.56 771.27 447.48 771.27 400.96 775.9 391.56 778.13 351.39 783.02 320.3 790.73 319.5 788.08 321.91 786.7 336.93 782.93 339.42 782.76 337.18 773.5 334.93 764.07 331.87 758.93 330.91 758.07 328.34 756.7 327.61 756.01 327.37 754.9 327.61 752.24 327.45 750.96 326.73 749.93 324.8 748.13 324.48 747.27 324.32 745.81 323.52 745.56 322.31 745.64 321.27 745.56 320.3 744.96 319.34 744.1 318.38 743.07 317.73 742.04 317.33 740.75 317.41 739.64 317.57 738.53 317.57 737.58 316.29 735.1 314.76 733.73 314.04 732.35 315 729.52 316.77 727.04 317.65 725.67 318.13 723.78 317.41 720.7 316.53 718.12 316.05 715.98 315.96 713.84 316.85 708.52 316.61 706.81 315.56 705.44 313.8 704.07 313.63 703.89 312.27 701.84 310.02 692.84 318.86 692.92 321.03 692.24 320.95 673.8 320.87 655.46 320.79 636.68 320.7 624.34 320.7 613.45 320.7 611.23 320.63 586.28 320.54 566.39 320.79 546.25 321.03 531.84 319.74 521.04 319.18 519.84 318.45 519.59 318.13 519.07 318.7 515.99 318.7 513.84 318.94 512.73 322.79 505.96 323.19 503.73 322.71 502.44 319.66 498.41 319.1 496.95 318.94 495.5 318.86 491.73 318.62 474.84 318.54 463.09 318.38 449.38 318.13 433.52 317.49 430.09 316.61 427.09 314.2 422.55 306.89 414.4 297.49 403.86 296.92 402.92 294.68 399.23 292.99 394.17 292.18 381.4 290.82 377.8 288.81 378.83 287.04 376.94 285.92 373.85 285.52 371.28 286 369.65 288.09 366.23 288.81 364.68 288.97 363.4 288.89 360.82 289.21 359.54 289.37 358 288.49 352.08 288.33 342.31 288.09 328.51 287.93 319.16 287.93 318.22 286.4 313.93 274.03 305.1 257.24 293.19 247.28 286.07 240.53 281.27 229.36 273.3 220.44 267.04 219.48 265.07 219.4 262.15 221.08 249.13 222.77 242.09 222.85 237.12 221.89 225.72 223.57 221.52 230 215.01 231.53 212.69 231.85 211.41 232.01 208.49 232.25 207.12 234.1 203.43 233.94 202.06 232.97 199.49 232.65 198.12 233.06 195.55 236.03 187.75 239.64 189.89 241.17 190.15 243.26 190.15 243.74 189.46 244.06 188 243.98 186.46 243.26 185.77 242.37 185.35 241.97 184.23 241.89 182.77 241.97 181.49 242.45 181.23 243.42 179.6 244.14 178.06 244.86 176.94 245.43 176.69 245.91 176.94 248.48 177.37 249.28 177.97 249.93 178.57 250.57 178.83 250.89 179.09 251.45 180.29 251.69 180.63 252.42 180.54 253.7 179.86 254.18 179.77 257.8 180.2 259 180.63 259.33 181.23 260.13 182.52 261.01 183.37 261.41 182.77 261.5 180.72 260.21 179.26 259.41 177.97 259.25 176.6 259.25 175.15 259 173.6 258.76 173.6 257.64 173.09 257.32 172.83 257.24 172.23 257.4 170.69 257.32 170.17 256.19 169.91 255.47 170.6 254.99 170.77 254.91 168.89 255.47 168.54 259.41 167.69 260.05 167.17 260.85 164.86 261.41 164.17 262.62 164.17 264.95 165.37 266.15 165.8 265.59 163.66 265.11 159.29 262.94 155.51 263.5 153.88 264.71 152.69 265.91 150.63 267.04 151.66 267.92 153.03 267.76 153.71 268.81 153.71 269.45 153.37 270.01 153.03 271.06 152.77 273.31 152.86 275.23 153.46 279.09 155.43 280.62 152.51 280.78 151.49 280.45 150.28 279.33 149.08 279.09 148.06 279.65 146.51 281.02 147.2 282.38 148.91 283.11 150.28 283.91 149.17 284.71 148.83 285.52 149.17 286.4 150.28 288.41 148.4 288.17 146.77 287.04 145.06 286.4 142.83 287.36 140.43 289.69 138.8 292.35 137.6 294.27 136.31 293.23 133.65 293.31 132.54 294.27 131 295.8 129.8 297.25 129.37 297.33 129.28 298.53 128.6 299.17 126.8 301.1 127.91 303.35 128.43 314.44 129.37 314.2 130.22 313.88 132.03 313.71 132.88 315.72 132.71 318.21 137.6 320.46 136.74 322.47 135.63 327.94 134.43 330.19 133.22 331.95 132.63 337.18 133.05 339.42 132.88 344 130.91 346.25 130.4 348.26 131 349.39 130.22 350.83 130.48 353.88 132.03 358.87 134 362.96 134.34 366.26 132.71 366.74 132.11 382.25 115.39 390.76 107.94 397.03 104.17 398.71 102.45 399.12 101.25 399.04 99.88 399.12 97.65 400.32 94.05 404.9 88.73 406.51 85.39 410.76 73.13 410.52 71.85 409.16 69.62 409 68.25 409.64 66.62 410.69 66.36 411.73 66.53 412.77 66.19 413.58 65.25 414.46 63.45 415.26 62.5 416.47 62.33 417.68 62.84 418.56 62.67 418.64 60.45 418.4 58.9 417.59 58.3 416.47 58.05 415.26 57.45 414.06 56.33 413.18 55.3 412.53 54.1 408.6 42.19 407.47 35.07 407.39 32.16 408.36 30.01 411.25 28.56 412.85 28.38 415.51 28.47 417.03 28.3 417.27 28.04 418.32 26.58 418.88 26.07 419.76 26.33 420.41 27.1 421.05 27.27 421.69 25.98 422.25 24.36 423.06 24.01 424.18 24.18 425.55 24.27 425.87 24.53 426.03 25.21 426.43 25.81 427.31 25.73 427.96 25.3 429 24.18 429.56 23.84 433.74 22.64 434.23 22.73 435.19 23.33 435.83 23.41 436.47 23.07 437.92 21.95 438.72 21.78 442.9 22.98 443.95 22.3 445.55 19.55 445.95 18.53 446.19 17.58 446.52 16.64 447.16 15.87 448.44 15.35 449.65 16.21 450.94 15.95 451.98 15.01 453.83 12.61 455.19 11.67 456.32 11.5 458.65 11.58 459.85 11.32 462.67 11.15 464.03 9.27 469.65 14.58 472.06 15.95 473.27 17.33 474.15 18.95 474.88 21.78 475.84 22.81 477.13 23.58 478.57 24.1 482.43 24.53 483.39 24.87 483.87 25.55 485 27.96 489.74 35.41 509.99 54.96 510.31 55.65 511.91 56.93 512.23 57.62 512.56 60.36 513.12 63.19 514 65.5 516.65 70.3 518.34 72.36 519.38 73.39 520.83 74.42 522.44 74.85 523.96 74.08 525.65 73.05 527.02 73.3 528.3 74.08 529.59 74.59 534.89 78.02 539.15 79.65 540.43 80.59 541.4 81.62 545.33 87.53 546.14 88.31 546.78 88.73 547.34 89.25 547.74 90.28 548.31 92.25 548.79 93.19 549.03 94.31 549.43 95.33 550.4 95.85 551.52 97.91 552.32 98.59" style="fill:#efc441"/></svg>