<svg xmlns="http://www.w3.org/2000/svg" viewBox="0 0 800 800"><polygon points="414.61 259.98 418.59 259.49 422.42 259.66 436.96 261.78 442.01 260.47 447.51 259.82 453.94 256.23 457.62 255.41 461.29 256.23 470.93 262.76 477.2 264.39 484.7 266.51 498.63 267.33 511.79 270.27 523.11 280.07 526.48 283.33 533.98 287.25 543.62 288.23 552.64 285.95 558.61 280.07 558.77 280.07 561.83 275 571.31 263.9 575.45 260.47 581.26 259.33 587.08 260.31 592.28 259.82 596.87 255.09 601.15 264.23 608.35 270.76 625.64 280.07 629.62 281.37 631.76 282.19 634.97 282.68 643.24 282.84 652.11 286.6 661.29 287.74 666.19 289.21 670.93 291.33 674.61 294.27 677.98 300.15 677.06 305.21 674.46 310.44 672.47 316.64 658.08 316.97 658.54 324.81 667.26 327.58 674.15 334.77 674 344.07 672.01 351.75 661.6 366.94 660.07 376.73 664.97 395.51 667.11 399.26 673.54 404.49 675.37 408.74 678.89 412.82 684.1 414.45 689.61 415.59 694.5 417.88 706.28 418.7 714.39 417.39 723.42 416.25 733.37 417.88 747.3 415.59 749.9 414.61 760.76 421.14 774.53 457.88 775.45 460.99 773.77 465.4 766.88 471.44 763.82 475.19 762.9 477.64 762.29 482.54 761.53 484.66 760.3 486.79 757.4 489.89 756.78 490.7 756.17 491.68 754.64 495.44 753.42 499.85 752.8 504.58 752.8 509.32 755.56 517.65 766.58 529.08 770.56 537.24 774.23 552.1 773.46 556.02 771.78 564.84 763.52 573.16 749.9 575.29 746.07 573.33 738.88 567.12 735.05 565.49 731.69 566.47 732.15 569.74 732.15 573.49 727.4 575.94 730 579.37 730.31 583.61 728.47 586.55 724.95 586.06 722.51 582.47 721.89 578.39 720.67 574.63 716.38 572.35 709.8 573.49 695.57 583.12 688.99 586.39 678.13 587.86 674.61 587.53 664.66 584.43 660.68 584.59 652.57 587.53 648.44 587.86 645.38 585.25 640.33 573.82 638.19 570.39 634.97 569.41 625.95 568.92 622.88 569.41 618.75 572.35 616.46 576.27 614.77 581 612.02 585.74 609.26 588.68 605.75 590.96 602.07 592.76 598.25 593.74 593.66 593.9 590.6 592.59 584.02 588.51 576.21 586.72 560.45 587.04 552.49 586.06 545.91 586.06 534.89 591.29 533.67 591.78 519.59 592.59 468.79 595.7 439.86 592.43 414.61 578.88 393.95 563.69 386.46 562.55 381.87 564.02 378.65 566.63 375.75 569.74 372.07 572.67 367.94 573.98 359.68 573.65 355.55 574.14 348.05 579.04 342.38 594.55 336.88 599.78 328.31 602.23 302.9 604.68 288.82 608.6 283.93 609.09 281.63 608.76 277.04 607.29 276.89 607.29 275.05 606.96 274.29 606.47 272.45 604.84 271.53 604.84 270.31 605.82 269.85 607.13 269.85 608.27 269.7 608.92 269.7 609.41 269.39 610.88 268.63 612.68 267.56 613.82 266.79 613.82 264.65 613 263.73 612.68 254.85 612.84 253.63 612.68 249.96 612.02 238.02 606.64 233.12 606.31 225.32 609.74 221.19 609.74 218.43 607.45 221.95 600.43 221.49 596.02 215.83 591.29 207.11 587.86 197.93 586.39 183.85 588.02 175.89 583.78 167.32 577.74 161.2 573.33 152.02 575.94 148.96 575.78 146.05 575.94 143.6 577.9 141.31 580.35 138.71 582.14 132.43 583.94 126.16 584.59 113.46 583.78 106.42 581.82 103.36 578.06 101.52 572.84 98.46 566.31 94.94 562.39 89.74 558.3 84.07 555.86 79.33 556.02 77.19 557.65 74.74 558.47 72.14 558.14 69.69 556.67 68.16 554.06 68.16 551.61 68.47 549 68.01 545.73 64.03 540.83 59.44 541.32 55.15 545.08 51.79 549.98 50.41 537.24 50.41 523.2 49.34 516.67 46.28 510.79 41.38 507.03 27.3 499.36 25.16 497.73 24.55 497.24 26.38 489.89 29.9 481.4 34.8 474.21 40.46 470.13 53.93 466.54 57.14 463.93 59.13 462.46 60.81 454.94 65.86 451.03 73.82 451.68 78.56 455.76 84.23 451.03 80.71 444.99 76.88 435.02 73.97 424.74 75.35 418.53 77.34 413.14 81.01 409.39 80.4 408.08 79.33 405.8 78.87 403.02 80.1 399.75 83.31 397.8 85.91 394.69 85.45 391.92 88.51 388 92.34 387.18 93.72 383.26 96.32 379.67 99.22 377.71 105.34 375.1 107.79 375.75 108.56 375.92 109.32 376.08 111.62 377.06 112.69 378.04 113.3 374.77 119.73 364.81 129.22 348.16 133.35 337.71 135.19 328.24 142.68 323.17 151.87 318.93 159.98 312.4 167.63 302.11 178.19 281.7 178.95 280.07 184.31 270.6 187.37 266.35 191.19 262.92 195.63 261.13 200.07 257.53 210.32 243.98 214.45 241.37 218.59 240.06 245.37 235 253.78 231.08 257.76 223.73 259.44 219.65 262.81 216.71 270.31 211.81 272.3 209.53 275.82 204.47 277.81 202.34 280.1 201.04 281.94 201.85 289.74 197.28 297.85 199.08 302.14 196.63 306.27 195.98 324.33 189.61 336.11 192.06 342.69 195.49 347.74 194.67 352.94 188.63 358.91 186.18 367.02 192.06 367.02 201.53 373.6 211.16 382.02 212.63 387.53 201.53 394.87 201.53 401.61 205.77 410.33 205.77 421.35 214.26 430.99 215.08 439.86 218.51 442.01 227 435.43 229.45 430.99 238.1 423.64 238.92 417.06 246.59 414.61 259.98" style="fill:#efc441"/><polygon points="281.63 201.71 280.1 201.04 277.81 202.34 275.82 204.47 272.3 209.53 270.31 211.81 263.62 216.19 263.06 216.75 266.19 217.15 281.63 201.71" style="fill:#fff"/><polygon points="271.99 220.96 272.5 220.84 294.91 198.43 292.02 197.79 270.31 219.5 271.99 220.96" style="fill:#fff"/><polygon points="279.85 223.49 307.96 195.38 306.27 195.98 303.37 196.43 278.27 221.53 279.85 223.49" style="fill:#fff"/><polygon points="317.94 191.86 282.69 227.12 284.22 229.12 323.41 189.93 317.94 191.86" style="fill:#fff"/><polygon points="329.19 190.62 288.9 230.9 289.9 230.59 292.61 230.73 332.11 191.23 329.19 190.62" style="fill:#fff"/><polygon points="337.19 192.62 300.03 229.77 303.06 228.8 303.81 229.53 339.51 193.83 337.19 192.62" style="fill:#fff"/><polygon points="352.94 188.63 347.74 194.67 344.63 195.17 307.06 232.75 308.84 234.5 355.94 187.4 352.94 188.63" style="fill:#fff"/><polygon points="361.64 188.16 312.8 237 313 237.12 313.6 239.74 363.69 189.65 361.64 188.16" style="fill:#fff"/><polygon points="367.02 192.78 316.49 243.32 317.9 243.82 321.73 239.25 323.98 239.36 367.02 196.32 367.02 192.78" style="fill:#fff"/><polygon points="367.53 202.27 341.33 228.48 343.6 229.74 368.97 204.37 367.53 202.27" style="fill:#fff"/><polygon points="335.96 233.85 332.51 237.29 336.26 235.33 335.96 233.85" style="fill:#fff"/><polygon points="371.59 208.21 347.76 232.04 349.58 233.04 349.8 233.54 373.02 210.31 371.59 208.21" style="fill:#fff"/><polygon points="391.81 201.53 388.28 201.53 386.79 203.01 383.31 210.03 391.81 201.53" style="fill:#fff"/><polygon points="377.89 211.91 352.01 237.79 353.99 239.35 380.9 212.44 377.89 211.91" style="fill:#fff"/><polygon points="396.96 202.84 359.92 239.88 363.04 238.92 363.92 239.42 399.13 204.21 396.96 202.84" style="fill:#fff"/><polygon points="404.03 205.77 372.67 237.13 372.69 237.12 375.13 238.21 407.57 205.77 404.03 205.77" style="fill:#fff"/><polygon points="412.42 207.38 378.98 240.82 380.35 242.99 414.42 208.92 412.42 207.38" style="fill:#fff"/><polygon points="418.07 211.74 382.85 246.96 384.21 249.13 420.06 213.28 418.07 211.74" style="fill:#fff"/><polygon points="425.21 214.59 387.2 252.61 388.91 254.43 428.47 214.87 425.21 214.59" style="fill:#fff"/><polygon points="433.68 216.12 390.41 259.4 390.89 261.13 391.81 261.53 436.23 217.11 433.68 216.12" style="fill:#fff"/><polygon points="423.64 238.92 424.52 238.82 440.86 222.47 440.15 219.65 399.35 260.45 402.24 261.1 418.97 244.37 423.64 238.92" style="fill:#fff"/><polygon points="415.46 255.34 409.92 260.89 414.29 260.05 414.67 259.67 415.46 255.34" style="fill:#fff"/><polygon points="105.34 375.1 104.23 375.58 85.8 394.01 85.91 394.69 83.31 397.8 80.1 399.75 78.87 403.02 79.08 404.26 107.63 375.71 105.34 375.1" style="fill:#fff"/><polygon points="112.69 378.04 112.21 377.6 80.82 408.98 81.01 409.39 82.7 409.55 84.23 408.08 85.48 407.86 114.39 378.95 112.69 378.04" style="fill:#fff"/><polygon points="118.05 382.45 117.7 382.1 96.31 403.5 96.62 403.35 99.07 404.27 118.69 384.65 118.05 382.45" style="fill:#fff"/><polygon points="115.24 394.56 113.98 395.82 114.37 395.67 115.24 394.56" style="fill:#fff"/><polygon points="118.81 392.73 120.61 389.2 116.19 393.62 118.81 392.73" style="fill:#fff"/></svg>