<svg xmlns="http://www.w3.org/2000/svg" viewBox="0 0 800 800"><polygon points="397.23 660.33 397.23 660.19 378.62 649.35 381.92 649.49 387.2 651.74 390.5 652.58 387.59 649.91 383.24 647.51 393.67 645.54 399.08 641.74 398.42 634.84 398.42 634.7 392.48 621.46 386.67 614.98 384.56 612.59 358.29 596.11 356.58 595.12 353.54 591.74 351.43 586.96 349.71 581.89 348.52 579.21 346.41 577.38 342.59 575.13 334.67 568.08 327.28 557.38 322.92 544.85 326.48 523.86 323.45 517.38 317.51 513.58 298.9 510.76 287.68 504.85 283.32 501.19 277.25 495.98 267.88 485.7 237.39 456.12 215.88 440.07 213.11 435.84 211.52 430.49 210.73 426.26 209.28 422.6 201.36 415.7 195.16 407.54 185.65 398.24 180.24 390.63 178.13 387.68 175.09 384.44 171.66 381.9 163.22 379.09 161.63 376.13 160.84 372.33 158.33 368.52 156.35 367.82 151.34 368.1 149.36 367.96 147.38 366.98 145.27 365.29 141.57 361.76 138.67 357.4 134.44 347.54 131.67 342.89 123.22 334.44 120.06 330.08 116.49 319.23 114.65 311.35 114.51 307.54 115.04 304.73 117.02 300.64 117.68 298.53 118.21 294.31 118.21 294.16 117.55 291.77 115.57 289.94 111.48 287.4 108.05 286.56 105.93 286.56 105.14 287.26 105.28 285.29 106.46 284.31 108.18 283.32 109.37 281.49 109.23 277.55 108.05 272.76 103.3 260.36 102.24 255.44 100.92 250.93 98.67 248.11 94.58 247.55 87.59 250.51 83.63 249.94 79.67 246 81.12 241.91 84.42 238.11 85.21 234.73 86.8 234.03 87.06 233.75 86.4 230.37 85.48 227.13 83.89 224.73 81.52 223.75 76.9 223.04 74.52 222.34 72.54 221.07 69.9 217.55 68.45 211.21 66.47 208.54 65.02 208.4 63.3 209.24 61.72 209.66 60.27 208.26 59.61 206 59.08 203.33 58.42 201.07 57.1 199.52 54.59 199.38 53.27 201.07 52.22 203.19 50.76 204.74 49.18 205.3 45.75 205.58 43.9 206.14 41 206.57 39.41 204.88 38.09 202.34 36.64 199.95 32.02 196.99 30.97 195.72 26.08 188.12 23.97 183.75 23.71 179.53 26.61 176 30.57 174.88 33.87 173.47 34.79 168.96 32.95 164.03 29.91 159.53 27.27 154.46 26.61 147.98 27.27 146.15 28.2 143.61 32.95 135.73 33.61 131.22 31.36 123.47 31.49 118.83 35.98 107.84 36.77 103.9 36.11 88.69 36.25 86.72 38.49 81.22 40.47 79.53 44.69 75.87 55.12 74.18 73.6 74.75 77.95 73.9 80.06 74.04 82.44 75.03 84.16 77.28 84.03 79.53 83.36 81.51 83.23 82.63 84.82 83.76 89.04 84.6 91.55 86.44 94.45 90.94 98.54 100.94 101.97 105.03 119.53 121.5 124.94 124.74 132.33 127.7 139.46 129.25 144.21 127.98 145.27 124.46 147.38 117.14 151.21 110.24 152.13 108.26 152.53 105.31 152.13 103.62 152.13 102.21 153.58 99.81 155.3 98.69 160.44 97.14 162.43 95.73 165.06 91.79 171.4 78.69 180.51 72.92 191.73 73.34 230.13 84.04 235.02 83.34 237.39 81.36 237.66 79.53 237.53 77.28 238.71 74.32 240.56 72.49 242.8 71.65 244.65 70.38 245.71 67.56 247.29 66.72 249.27 64.61 250.85 62.35 251.38 61.23 256.66 57.14 258.38 58.55 259.83 63.9 260.09 65.87 260.09 68.13 261.15 69.53 265.11 69.11 264.58 67.28 263.79 65.59 266.69 66.58 269.07 69.25 271.05 70.66 272.9 67.42 273.69 69.39 273.95 70.8 273.69 72.35 272.9 74.46 274.08 73.62 277.12 71.79 278.31 70.8 282 78.55 290.32 84.32 295.33 86.44 307.35 91.79 309.46 90.66 318.7 89.96 319.49 88.83 323.18 81.22 330.71 85.87 334.27 87.28 340.61 91.22 342.32 92.63 345.09 94.04 348.66 93.62 354.99 91.79 355.39 90.8 355.92 89.25 356.84 88.27 358.29 89.25 359.48 90.94 359.61 92.35 359.08 93.76 357.63 95.31 360.01 96.15 362.38 95.73 367 93.48 365.16 98.83 364.23 100.38 365.68 99.95 375.32 98.69 379.54 99.11 381.65 98.83 385.61 96.58 392.74 89.53 396.96 87.42 403.3 87.84 409.11 90.8 414.25 95.59 425.08 108.69 428.51 111.64 432.47 113.19 434.32 112.91 440.12 110.66 445.4 109.81 446.99 108.97 450.15 106.15 461.9 92.91 464.81 91.5 467.84 91.5 470.88 93.05 481.57 102.07 485.79 103.9 489.49 104.6 491.86 104.74 493.71 104.74 497.8 103.9 501.23 101.93 502.55 99.25 502.69 96.01 503.08 92.91 505.19 90.38 509.94 89.39 514.7 91.22 523.41 97.14 526.31 98.27 539.9 99.39 543.6 100.94 546.9 103.48 551.26 107.98 554.03 110.66 557.06 112.49 558.78 113.62 563.79 115.31 568.41 115.45 568.15 111.93 567.23 108.83 567.23 107 567.23 106.57 570.13 105.45 571.71 105.45 574.75 106.29 576.33 106.29 577.65 105.87 580.29 104.32 581.61 104.04 583.07 104.74 583.86 105.87 585.18 109.11 586.23 111.22 587.68 112.91 589.27 113.62 590.98 112.63 591.64 111.5 592.04 109.95 592.57 108.41 593.62 107.42 594.94 107.28 596 107.98 596.92 109.11 604.18 122.91 606.43 125.45 608.8 126.43 614.08 126.85 615.53 127.42 616.19 128.12 616.72 129.11 617.38 130.66 617.38 131.22 617.38 132.63 617.51 133.33 618.04 134.04 618.97 135.3 619.23 136.15 618.7 138.68 614.48 141.64 613.16 144.18 615.14 151.5 621.87 158.12 626.49 160.94 629.66 162.91 635.6 164.88 652.09 164.46 657.9 164.32 660.01 163.61 666.08 161.92 670.18 161.36 673.21 160.23 690.5 148.54 693.01 147.98 694.2 149.53 694.86 151.64 695.91 152.77 697.76 152.77 701.19 151.5 703.17 151.08 711.62 152.77 713.47 152.63 715.05 151.78 716.77 151.78 720.6 155.3 722.58 155.87 724.42 155.72 724.95 155.44 725.08 155.16 725.74 156.01 726.93 157.27 727.99 158.26 728.78 159.67 729.44 161.78 729.57 164.32 728.91 165.02 727.85 165.3 727.06 166.43 720.2 197.13 718.22 201.78 716.37 204.45 712.54 207.41 710.43 209.52 708.98 211.92 706.21 219.52 697.23 234.03 696.31 234.87 694.2 236 693.27 237.13 692.88 238.82 693.01 242.9 692.61 244.73 691.56 246.7 690.37 248.39 688.79 249.66 682.05 251.77 681.53 255.72 684.56 266.98 684.17 273.88 681.92 277.55 679.28 280.79 677.57 286 677.96 290.78 679.41 295.85 683.77 304.59 687.2 308.53 691.16 310.22 699.35 311.91 703.3 313.88 705.02 314.3 707.79 314.44 714 313.04 716.24 313.46 719.54 315.99 722.84 320.64 725.21 325.99 725.61 331.2 726.8 334.44 730.49 337.96 738.81 343.88 740.92 345.71 742.24 346.55 743.43 346.13 745.54 344.16 746.73 344.02 748.31 345.99 748.84 350.5 750.03 352.19 752.93 354.86 756.5 359.65 757.55 361.2 763.89 364.58 767.05 368.24 768.77 369.65 769.56 368.95 770.75 367.4 772.47 366.83 774.84 368.81 776.29 373.59 774.58 377.68 771.41 381.2 763.36 386.69 758.87 388.24 754.12 388.66 743.16 387.68 732.87 388.38 730.1 389.08 727.19 389.23 724.82 387.82 719.8 383.45 714.92 380.21 712.28 379.23 709.51 379.51 705.55 380.63 703.83 382.04 702.78 384.44 702.91 386.27 703.83 389.37 703.3 391.2 701.19 393.17 703.44 394.58 710.04 399.37 715.98 406.55 726.27 422.32 745.94 442.32 749.76 450.63 754.51 464.57 754.78 471.19 749.76 475.84 748.97 478.8 748.71 482.46 748.84 485.98 749.76 488.51 751.22 489.78 751.74 490.91 751.35 492.03 749.76 492.88 742.5 490.2 740.26 490.34 737.75 495.84 736.17 497.95 734.59 495.7 733 491.47 730.36 486.68 727.06 482.74 723.76 480.91 721.65 481.47 717.16 484.85 714.92 485.98 712.68 486.12 707.79 485.42 705.68 485.98 703.04 490.06 701.19 495.7 698.82 499.92 694.59 499.92 685.35 498.65 680.6 499.08 675.46 504.85 671.63 506.4 667.54 506.54 664.24 505.41 661.73 502.31 659.75 498.65 656.98 496.12 652.62 496.54 649.72 498.51 645.1 503.44 641.67 505.13 639.82 506.4 638.63 508.37 638.76 510.48 640.61 511.75 643.51 512.6 644.97 513.44 647.47 517.24 647.47 518.79 646.55 520.9 646.55 522.17 650.77 521.19 652.23 522.17 658.83 530.48 664.63 545.55 670.31 555.97 668.99 557.1 663.97 557.38 661.73 558.51 661.33 559.07 660.28 560.48 659.09 562.59 657.5 564.7 655.53 566.39 654.87 565.27 654.87 564.99 650.91 560.2 649.19 557.38 648.66 555.27 648.79 553.44 648.66 551.75 647.34 549.92 642.2 546.54 637.44 545.27 625.96 546.25 622.53 547.8 623.19 548.79 624.25 551.18 624.77 552.17 619.76 553.72 595.21 570.9 592.17 574.99 596.92 577.1 588.61 588.22 585.44 594.42 583.86 602.02 583.73 602.59 583.86 609.07 587.29 628.08 579.5 627.09 568.02 627.23 557.2 629.49 551.39 634.84 547.69 644.56 547.83 648.92 549.67 653.85 554.29 662.58 555.35 667.37 554.03 669.77 551.52 671.6 549.67 674.41 549.8 678.64 551.65 684.69 554.29 690.61 560.89 701.03 564.85 704.83 568.15 708.92 570.13 715.82 570.13 723 568.81 726.1 567.89 728.07 563.79 731.87 561.82 733 557.99 735.25 559.31 737.65 559.7 739.9 559.04 741.45 557.06 741.73 554.82 740.32 552.58 740.18 550.46 741.03 548.49 742.86 545.32 741.73 538.45 741.03 535.55 739.2 535.42 739.06 531.59 733.56 529.48 732.01 524.2 732.44 513.64 728.92 507.31 725.68 473.65 704.13 463.22 697.79 458.73 694.13 450.42 685.26 445.67 681.88 438.94 680.05 436.82 678.78 430.75 669.77 430.36 666.81 430.62 660.89 430.09 658.5 427.85 655.54 426.13 655.68 424.55 656.95 422.97 657.65 418.87 656.95 410.82 653.99 406.6 653.15 402.38 654.13 399.74 656.81 397.23 660.33" style="fill:#efc441"/></svg>