<svg xmlns="http://www.w3.org/2000/svg" viewBox="0 0 800 800"><polygon points="443.91 23.97 440.93 30.92 440.93 33.19 441.44 35.13 443.61 40.78 446.64 46.23 448.66 48.54 451.13 50.1 453.35 51.99 454.92 55.01 457.29 61.26 459.67 65.35 460.27 66.97 460.98 70.42 461.33 71.5 462.29 73.11 467.14 78.56 469.66 80.33 470.67 81.47 474.16 86.75 476.28 88.69 479.16 90.19 480.98 91.97 481.83 94.83 482.29 100.81 484.91 106.95 494.16 115.68 496.13 122.09 496.18 122.15 495.92 123.87 494.71 126.89 494.46 128.56 494.76 130.5 495.32 132.06 497.13 135.29 499.41 138.42 501.07 141.98 508.14 162.99 510.01 165.96 512.89 167.84 516.17 168.76 520.11 168.87 520.92 169.24 521.63 169.78 522.23 170.43 522.94 171.5 523.14 172.15 522.64 173.88 522.08 174.9 521.58 175.17 521.58 175.28 522.49 175.92 523.04 176.19 525.31 176.62 526.98 177.54 529 180.88 530.41 182.28 531.78 182.82 534.66 183.52 536.07 184.11 539.05 186.16 540.31 187.51 540.97 189.07 541.47 190.9 542.48 191.98 543.85 192.63 547.18 193.65 548.24 194.3 548.49 194.57 549.05 195.21 550.06 196.67 551.22 197.85 552.48 198.56 553.95 198.88 555.66 198.88 558.44 199.42 566.77 203.89 569.45 204.43 571.87 204.37 574.3 204.64 576.77 206.1 577.43 206.91 578.69 208.79 579.5 209.49 580.41 209.82 581.17 209.87 581.87 209.82 582.78 209.82 584.35 210.09 585.86 210.57 587.23 211.43 588.18 212.89 591.92 223.02 593.28 232.61 592.12 244.46 594.9 242.96 597.48 242.58 605.81 242.63 611.72 243.44 615.91 242.63 618.48 243.87 621.46 243.93 622.78 244.46 623.84 245.54 624.39 247 624.14 250.23 623.23 253.14 622.68 256.1 624.49 262.62 624.64 265.91 623.53 272.54 623.13 273.45 622.63 274.15 622.17 274.91 622.12 275.99 622.12 276.96 621.92 278.79 621.92 279.6 622.52 284.23 622.42 285.95 621.51 290.32 621.51 291.72 622.12 293.28 624.64 296.95 625.76 298.19 630.86 302.12 633.08 304.92 634.95 308.05 637.62 311.39 638.28 312.57 638.48 313.22 638.43 314.51 638.53 315.11 639.04 315.91 640.25 317.26 642.42 321.95 642.62 322.81 642.37 323.46 641.82 324.43 641.66 325.24 641.92 325.4 642.42 325.56 642.72 326.04 642.37 327.12 642.62 327.88 642.98 327.98 643.43 327.88 643.94 328.2 644.29 328.9 644.95 330.57 645.4 331.32 646.26 332.35 647.32 333.05 648.53 333.48 652.77 333.75 658.33 334.88 667.12 335.04 669.84 335.58 672.77 336.61 678.78 339.89 680.35 340.27 681.61 340 682.77 339.51 685.4 338.81 686.15 338.44 686.96 338.28 689.34 338.92 691.51 339.14 692.57 339.51 695.39 341.89 698.78 343.02 709.59 348.24 711.81 348.89 716.3 349.16 718.47 349.7 719.79 350.62 722.72 351.58 723.93 352.61 724.13 354.17 723.22 356.11 722.01 358.11 721.2 359.88 720.9 363.39 721.45 366.89 722.87 370.01 725.09 372.49 727.82 374 730.54 374.49 737.51 374.27 737.91 374.54 738.62 375.46 739.03 376.21 739.58 377.83 740.04 378.63 745.69 383.7 744.33 384.24 742.21 384.02 738.17 383.11 736.25 383.32 734.83 384.35 733.62 385.42 732.31 385.96 723.37 386.5 722.72 386.77 721.2 388.98 721.2 389.36 720.09 390.06 718.67 391.57 716.91 393.94 717.51 399.7 717.16 400.67 716.45 401.43 714.74 404.71 713.42 405.79 710.24 405.42 708.52 405.47 707.82 406.6 707.41 408.16 706.35 409.03 704.89 409.46 703.22 409.73 700.04 410.75 694.69 413.93 692.11 414.85 690.14 414.79 688.68 414.58 687.37 414.85 685.8 416.25 684.64 416.62 679.99 415.38 673.88 415.81 671.05 416.62 668.38 418.24 667.27 419.21 664.59 422.5 663.83 422.93 662.07 423.14 661.26 423.36 660.55 423.84 658.23 426.92 657.87 427.67 657.72 428.75 657.87 429.77 658.08 430.42 658.08 431.06 657.52 432.14 656.86 432.79 656.11 433.11 655.35 433.27 654.74 433.6 654.44 434.08 654.04 435.38 653.73 435.86 652.62 436.35 650.96 436.88 649.59 437.53 649.44 438.45 650.05 440.22 649.74 442.06 648.83 443.73 647.72 444.97 646.71 445.67 645.3 446.37 643.73 447.01 642.32 447.23 641.46 448.04 641.51 449.92 642.12 453.48 640.91 455.8 638.38 457.63 635.3 458.98 632.47 459.73 632.98 461.24 631.82 461.72 630.2 461.62 629.44 461.45 629.24 462.1 629.44 462.75 629.8 463.29 629.95 463.72 630.1 463.93 630.4 464.31 630.55 464.63 630.2 464.8 630.1 464.9 629.54 465.39 629.44 465.39 628.33 468.62 627.93 469.38 626.87 469.97 625.86 469.43 623.84 467.11 620.91 469.59 620.05 469.97 619.04 469.59 617.98 469.05 617.17 469.05 616.51 471.37 615.15 472.93 614.8 474.23 614.75 474.71 614.6 475.19 614.34 475.52 614.04 475.68 613.89 475.9 613.99 476.43 614.19 477.08 614.34 477.67 613.89 479.51 612.83 481.01 611.31 482.04 609.75 482.52 606.67 482.63 605.71 483.06 605 483.87 604.39 484.84 603.69 485.32 602.63 484.73 603.18 483.55 602.58 483.38 601.52 483.76 600.61 484.25 600.41 484.73 599.7 485.7 598.94 486.13 598.13 483.55 597.07 484.46 595.36 487.37 594.14 488.56 592.83 489.58 590 491.04 587.28 491.9 586.42 492.92 587.48 494.49 586.77 494.81 586.06 494.86 585.51 494.54 584.95 493.89 584.8 494.38 584.25 495.08 583.89 495.62 583.34 494.86 582.48 494.54 581.72 494.65 581.42 495.35 581.72 496.37 582.33 496.91 582.73 497.45 582.38 498.42 581.52 497.83 580.66 497.93 579.95 498.53 579.4 499.55 579.85 499.55 578.54 500.57 578.09 501.06 577.88 501.81 577.38 501.49 576.87 501.27 576.97 502.89 577.43 504.35 577.48 505.59 576.37 506.45 575.11 506.34 574.5 505.48 574.1 504.45 573.34 504.13 572.63 504.72 571.32 508.12 569.9 510.76 569.5 512.32 569.7 513.13 569.85 513.83 567.73 517.76 568.24 519.49 567.99 521.75 562.78 543.84 562.63 547.56 561.22 554.89 560.46 556.34 559.3 557.48 557.73 558.39 551.22 560.55 549.65 561.46 549 562.7 544.55 567.55 539.76 570.78 537.74 572.51 535.87 574.99 533.7 580.97 533.19 581.88 528.39 587.06 528.34 587.06 526.68 586.79 525.36 586.63 523.95 586.3 522.59 586.14 519.1 586.68 510.77 589.38 499.56 593.04 497.13 594.87 496.02 595.46 492.24 595.3 489.81 596.16 489.26 596.27 488.85 596.7 488.7 598.75 489.51 604.84 489.46 608.24 488.65 610.93 486.53 616.05 486.38 619.12 484.16 623.21 482.54 628.76 476.08 643.74 473.7 654.68 472.95 656.62 469.66 664.71 468.1 669.77 458.6 677.48 453.3 680.17 437.9 681.84 434.82 681.25 431.44 680.17 428.61 679.68 425.73 680.12 422.4 681.79 418 685.29 416.54 685.88 412.14 687.12 409.92 687.39 407.85 686.85 405.43 686.26 400.08 686.9 397.45 686.26 393.56 683.51 387.96 681.36 384.67 680.12 383.21 680.33 381.75 680.98 379.73 681.52 375.99 680.87 372.91 678.5 367.81 672.25 364.52 670.31 360.64 670.31 353.01 672.46 351.39 672.68 351.29 672.3 351.7 671.6 351.65 670.9 350.89 670.25 350.13 669.77 349.27 669.61 345.44 670.58 344.02 669.66 342.91 667.99 339.58 665.51 336.8 661.69 336.14 661.26 334.63 660.77 333.97 660.34 333.47 659.59 332.71 657.81 332 657.16 327.86 655.87 326.95 654.9 326.4 654.04 318.62 647.73 316.75 646.55 314.58 645.52 313.87 644.93 312.86 643.91 311.75 642.13 311.1 641.43 310.04 641.1 309.08 641.27 306.65 642.18 305.34 642.29 304.23 642.02 300.85 640.67 296.81 639.92 293.17 640.19 289.63 641.27 284.13 643.96 283.42 644.55 282.51 645.09 282.06 644.66 281.76 643.8 281.25 643.15 279.48 642.88 277.72 643.85 274.89 646.87 274.48 647.62 274.28 648.32 273.98 648.97 273.17 649.51 272.11 650 271.35 650.53 270.75 651.23 270.09 652.26 268.93 655.54 268.12 656.51 266.25 657.32 265.75 658.13 264.28 663.3 263.73 664.6 263.53 665.3 263.48 666 263.88 666.86 264.59 667.72 264.94 668.64 264.28 669.45 263.27 670.25 263.17 670.9 263.48 671.66 263.58 672.57 263.43 673.76 263.22 674.62 262.82 675.43 259.49 679.47 258.53 681.19 258.07 682.97 258.12 684.16 258.43 684.43 258.83 684.59 259.38 685.45 259.84 686.64 259.94 687.17 259.13 688.58 258.02 689.87 256.51 691.16 255.75 692.56 256.71 694.07 257.06 695.15 257.11 697.03 256.86 699.03 256.51 700.43 255.85 701.51 255.14 702.05 253.02 702.86 252.26 703.5 252.31 704.26 252.57 705.12 252.52 706.09 249.44 710.94 249.24 711.15 248.53 711.91 247.06 712.99 246.25 714.12 245.04 717.03 243.68 719.24 242.42 719.77 239.03 719.02 236.71 719.45 235.09 720.85 232.57 724.68 228.73 728.5 226.97 729.47 225.8 729.85 222.42 730.5 221.76 730.98 221.01 732.65 218.03 735.83 216.61 738.85 214.24 745.53 211.41 750 207.72 753.83 203.38 756.63 198.74 757.76 191.56 757.82 189.24 758.25 187.27 758.95 186.36 759.86 186.31 761.16 186.97 764.98 187.02 766.6 186.72 768.16 185.91 769.62 184.55 771.02 180.35 773.93 178.69 774.58 177.12 774.58 172.78 773.34 166.47 773.17 162.83 771.5 161.16 771.18 157.78 771.29 151.57 773.01 150.56 773.07 148.49 772.8 147.43 772.8 141.01 774.74 138.69 774.79 128.95 772.53 126.02 770.64 122.89 769.29 118.75 769.83 116.83 770.86 113.39 773.34 108.64 775.6 107.08 776.78 106.88 777.05 106.47 776.19 105.72 773.5 105.01 772.58 103.9 771.77 103.49 771.34 103.04 770.7 101.98 768.38 101.27 765.31 100.87 762.18 100.82 759.65 102.43 753.88 102.53 751.94 102.23 750.76 101.02 748.98 100.57 747.96 100.31 745.8 100.57 743.32 101.53 738.85 101.83 737.77 104 736.15 105.01 734.75 107.23 730.55 111.47 725.05 113.19 722.04 114.55 718.75 117.73 714.12 117.99 712.82 115.21 707.76 114.96 706.2 115.11 700.11 114.5 692.83 112.48 687.82 112.48 687.5 111.67 686.53 111.22 686.47 110.51 686.85 109.5 687.23 109.55 686.47 110.31 684.86 108.8 679.25 108.04 677.75 107.28 677.1 105.41 676.13 104.81 675.27 104.81 674.4 105.41 672.57 105.41 671.66 104.81 671.17 103.95 671.01 103.19 670.74 102.99 669.82 103.34 669.23 104.96 668.21 105.41 667.35 104.86 665.14 101.53 662.12 101.68 659.75 102.13 658.46 104.35 657 103.39 656.14 102.69 656.14 102.08 656.57 101.37 656.89 100.67 656.51 100.62 655.65 101.02 654.63 101.07 653.93 99.96 654.09 99.71 652.42 99.3 651.66 97.13 650.64 95.92 649.83 95.42 648.92 94.96 646.28 94.66 645.63 93.85 644.55 93.55 643.96 93.55 643.31 93.9 642.83 94.15 642.34 94 641.53 93.5 641.05 92.18 640.35 91.73 639.81 91.58 639.27 91.42 637.12 90.01 636.52 88.65 635.66 87.94 634.53 88.6 633.13 88.7 631.89 87.94 630.06 85.92 626.83 83.6 621.65 82.84 620.57 73.3 612.44 67.64 608.88 66.88 608.67 65.37 608.56 64.66 608.34 63.85 607.75 61.88 605.43 58.05 602.31 56.68 600.04 55.37 599.02 54.91 598.43 54.51 597.03 54.51 582.64 54.51 568.31 54.51 553.92 54.46 539.59 54.46 525.25 54.46 522.94 54.46 510.92 54.46 496.64 54.41 482.31 54.41 476.65 54.41 468.03 54.41 453.75 54.36 439.52 54.36 425.25 54.36 412.8 54.36 400.35 54.31 387.9 54.31 375.46 54.31 368.34 71.58 368.34 88.85 368.34 106.12 368.34 123.39 368.34 127.63 368.34 128.54 365.33 128.54 361.93 128.54 357.13 128.54 352.39 128.49 347.65 128.49 342.91 128.49 338.17 128.44 333.37 128.44 328.63 128.44 323.89 128.39 319.15 128.39 314.4 128.39 309.66 128.34 304.92 128.34 300.18 128.34 295.44 128.34 290.7 128.29 285.95 128.29 285.9 128.29 275.66 128.24 265.37 128.24 255.13 128.19 244.9 128.14 234.6 128.14 232.61 128.14 224.37 128.09 214.13 128.09 203.89 128.04 193.65 128.04 183.41 127.99 173.23 127.94 162.99 127.94 152.75 127.89 142.57 127.89 136.16 127.89 132.38 127.83 122.15 127.83 118.86 127.83 115.52 127.83 112.18 127.83 108.84 127.83 105.55 127.83 102.21 127.83 98.87 127.83 95.53 127.83 92.24 127.83 88.9 127.83 85.56 127.83 82.27 127.83 78.93 127.83 75.59 127.83 72.31 127.83 68.96 127.83 66.65 129.2 66.59 131.47 66.48 135.61 66.32 139.8 66.11 143.94 65.95 148.14 65.78 151.57 65.62 155.05 65.46 158.49 65.3 161.97 65.14 163.39 65.08 164.75 65.03 166.06 64.76 167.28 64.49 168.54 64.28 169.8 64.01 176.06 62.71 182.27 61.47 188.48 60.18 194.7 58.89 200.96 57.65 207.17 56.35 213.38 55.06 219.59 53.82 225.85 52.53 232.06 51.24 238.28 50 244.49 48.7 250.75 47.41 256.96 46.17 263.17 44.88 269.38 43.64 275.85 42.29 284.58 41.48 290.95 40.94 296.05 40.46 298.82 40.57 299.79 41.11 300.19 41.48 300.29 42.02 300.29 43.1 300.54 43.69 301.05 43.85 301.6 43.91 301.86 44.18 301.75 46.12 301.86 46.71 302.06 47.14 302.92 48.33 303.72 50.37 306 53.12 306.4 53.98 306.45 54.47 306.35 55.82 306.4 56.25 306.8 56.46 307.51 56.73 308.12 56.79 308.93 55.98 309.99 57 311.05 58.35 311.45 58.99 312.46 59.43 313.47 59.64 314.23 59.97 314.53 60.94 314.93 61.85 315.69 62.5 316.15 63.25 315.49 64.55 317.91 67.29 318.57 69.02 317.56 70.74 318.22 71.82 319.38 75.32 319.93 78.72 320.89 79.58 322.21 79.53 324.83 78.56 325.19 78.39 325.64 77.96 327.41 75.75 328.92 75.48 330.03 74.78 336.95 66.86 338.11 66.43 338.97 65.52 340.33 63.47 341.24 62.6 343.42 61.04 344.58 59.86 344.78 57.05 347.36 55.12 347.81 55.01 348.21 55.12 348.57 55.38 348.87 55.6 349.12 55.06 349.48 54.63 350.38 53.98 352.51 53.01 353.06 52.53 355.18 50.37 355.79 50.05 358.51 49.51 360.94 47.63 364.52 43.05 367.1 41.7 368.56 41.48 370.13 41.7 370.94 41.97 372.2 42.67 372.86 42.83 373.56 42.24 375.63 38.36 376.85 37.12 377.96 36.69 380.48 36.8 382.1 37.12 383.01 38.03 384.27 40.57 384.82 41.16 385.33 41.38 385.63 41.86 385.78 43.1 388.31 45.58 389.22 45.36 392.65 44.98 393.36 44.77 393.61 44.28 394.67 42.99 394.87 42.51 395.18 42.34 398.86 37.66 399.98 36.58 402.5 34.91 404.52 32.22 404.92 31.89 405.43 31.57 406.08 31.25 406.79 31.14 407.4 30.92 407.85 29.74 408.31 29.47 409.82 29.14 411.54 27.64 412.8 27.26 414.27 27.15 419.67 25.26 420.17 24.99 420.73 24.4 420.98 23.86 421.34 23.49 422.14 23.32 421.69 24.51 422.45 25.05 422.95 25.75 423.56 26.07 424.67 25.53 425.27 26.5 426.23 26.34 428.25 24.99 428.96 26.66 431.23 26.61 433.71 25.53 436.13 22.95 439.11 23 443.91 23.97" style="fill:#efc441"/></svg>