<?xml version="1.0" encoding="UTF-8"?><svg id="Bouvet" xmlns="http://www.w3.org/2000/svg" viewBox="0 0 2800 1926"><path id="Bouvet-2" d="M1296.25,149.51l-.66-.64v-.86s.87-.21,.87-.21l.22,1.07-.42,.64Zm104.96,30.85h-.98l.21-.86,1.19-1.29,.85,.21-.42,1.71-.85,.21Zm244.17,40.27l-1.3-.43-.22-.86,1.6-.86,.77,.64-.21,.86-.64,.64Zm67.77,28.49l-.75-1.5,.74-.86,.88,.21,.43,.86-.42,.86-.87,.43Zm-238.86,2.14l-.88-1.5-.04-3.43,1.4-1.5,.9,4.07-.21,.86-1.17,1.5Zm2.63,5.57l-.41-.64,.08-.86,.87-.21,.43,.86-.32,.86h-.66Zm282.93,.21l-.88-.21,.29-1.71,.66-.64h.87l.22,1.07-1.16,1.5Zm-1236.11,110.54l-.66-.64,.21-.86,.77-.43,.64,.64-.21,.86-.74,.43Zm239.81,26.35l-.65-1.29,.21-.86,.85-.43,.99,1.5-.53,.86-.87,.21Zm228.17,7.07l-.78-1.71,.32-1.07,.87-.21,.64,.64-.29,1.93-.77,.43Zm-174.3,7.28l-.09-.86,.74-.64,.24,.21-.12,.86-.77,.43Zm89.32,16.07l-.29-.43,.64-.64,.88,.21-.21,.86h-1.01Zm-470.67,65.34l-.77-.43-.11-.86h1.73l-.08,.86-.77,.43Zm1737.73-1.07l-.97-.86,.08-.86,.87-.43,.75,.64,.03,.86-.76,.64Zm-1788.5,57.63l-.73-.21-.58-.64,.53-.64,1.2,.64-.42,.86Zm-9.27,18.21l-1.03-.64,.36-.43,.77-.43,.56,.86-.66,.64Zm5.56,10.07l-.73-.21-.08-.86,.31-.86,.55,.43,.08,1.07-.13,.43Zm-14.04,109.25h-.4l-.64-1.5,.37-.64h.77l.55,1.29-.66,.86Zm54.3,97.47h-.98l-.22-1.93,.64-.86,.78,1.93-.21,.86Zm-9.37,140.74l-.56-.64,.21-.64,1.07,.21,.15,.86-.87,.21Zm-9.39,17.14l-.24-1.07,.76-1.07,.54,.86-.32,.86-.75,.43Zm8.73,104.32l-1.52-.86-.13-.86,.77-.43,.88,.43,.32,.86-.32,.86Zm62.71,90.61l-.54-.64,.21-1.07,.54,.86-.21,.86Zm-132.47,116.32l-1.6-.64-.35-1.29,.75-.43,1.54,.86-.13,1.29-.2,.21Zm83.6,8.14l-1.2-.64,.21-.86,.75-.43h.88l.64,.64-1.28,1.29Zm23.01,14.14l-.13-.86,.44-.86,.64,.64-.1,.86-.85,.21Zm4.16,5.36l-2.61-.64v-.86s2.58-.86,2.58-.86l.56,.86-.53,1.5Zm86.04,27.21l-1.2-1.29,.75-.43h.88l.11,.86-.53,.86Zm44.1,31.06l-2.72-1.29,.21-.86,1.73-.21,1.1,1.5-.32,.86Zm73.57,52.06l-1.09-.86,.42-.86,.98,.21,.35,.86-.66,.64Zm99.81,118.89l-1.97-1.07,.1-.86,.88,.21,1.52,.86-.53,.86Zm750.32,38.56l-.99-1.29,.55-.86,.86,.43,.07,.64-.49,1.07Zm82.95,7.07l-1.54-.86-.11-1.07,.98-.43,1.63,.86-.95,1.5Zm-41.35,8.35l-.35-.86,.42-.64,.88,.21-.21,.86-.28,.21-.46,.21Zm610.8,18.21v-1.5s1.18-1.29,1.18-1.29l.88,.21v.86s-1.18,1.5-1.18,1.5l-.87,.21Zm-885.22,49.48l-.77-.43v-.86s.74-.64,.74-.64l.88,.43-.1,.86-.74,.64Zm-439.67,68.12l-.55-.64,.2-1.07h.88l.64,.64-.32,.86-.85,.21ZM1361.55,129.8l-.56-.21-.38-.64,.18-1.07,.56-.21,.66,.21,.38,.64v1.07s-.83,.21-.83,.21Zm-46.28,3.21l-2.39-.64-1.54-1.29-.57-2.78,.31-1.71,.53-.86,.87-.21,2.01,.43,2.22,1.71,.46,3.43-.67,1.07-1.24,.86Zm344.4,10.28l-.43-.21-.4-.21-.28-.43,.4-.64,.35-.21,.66,.21,.22,1.07-.51,.43Zm-4.07,.86l-.53-.43-.52-.86,.25-.43,.38-.21,.85,.21,.35,.86-.41,.64-.38,.21Zm-4.87,6.43l-1.97-1.07-.88-1.71,.71-3.43,.76-.64,.88,.43,.43,.64h.87l1.29-1.29h.85l1.26,2.36-.47,1.29-1.27,1.29-.87,1.5-1.6,.64Zm-245.78,37.49l-1.09-1.29v-.86s.07-.86,.07-.86l.21-.86,.11-.21h1.14l1.18,.21,.86,.64,.13,.86-.87,1.71-1.72,.64Zm281.12,52.06l-.71-.43-.47-.43,.27-.43,.37-.21,.42-.21,.45,.21,.11,.86-.44,.64Zm40,3h-.47l-.16-.43,.25-.64,.3-.21,.35-.21,.5,.21v.43s-.12,.21-.12,.21l-.26,.43-.39,.21Zm-1.17,6l-.27-.21-.17-.21-.34-.86,.32-.43,.59,.43,.15,.64-.28,.64Zm-40.33,2.36l-1.95-.86-.35-.86,.31-1.07,.98-.43,1.73,.43,.64,.64,.13,1.29-.66,.64-.85,.21Zm-89.67,3.43l-.53-.21-.3-.43-.05-.43,.34-.43h.89l.29,.64-.64,.86Zm-14.38,4.07l-.99-.86,.44-.64,1.49-1.07,.88,.21,.13,.86-.21,1.07-1.75,.43Zm12.49,2.14l-.66-.64-.22-.86,.53-.64,.88,.21,.11,.86-.42,.86-.21,.21Zm-35.36,3l-.4-.21-.29-.21v-.43s.16-.43,.16-.43l.4-.21h.45l.24,.43,.14,.43-.32,.21-.38,.43Zm67.18,1.07l-1.22-.43-.24-.86,.32-.86,.87-.43h.85l.77,.64,.11,.86-.67,.64-.8,.43Zm195.64,10.28l-1.41-.86-1.23-2.57,.53-.64,3.48,1.29,.35,.86-.21,.86-1.51,1.07Zm-1.95,10.5l-.08-.43-.37-.64-.05-.43,.04-.43,.95,.43h.2l.5,.43-.15,.43-.16,.43-.41,.21h-.46Zm311.98,41.13h-.8l-.77-.64-.22-.86,.14-1.07,.31-.86,1.59-.43,1.94-.21,.66,.64v.86s-.84,1.29-.84,1.29l-1.09,1.07-.93,.21Zm-988.7,8.35l-.99-1.29-.22-.86,.21-.86,.85-.21,.67,.86,.11,1.71-.64,.64Zm-2.36,1.07l-.66-.64-.32-.86,.32-.86h.85l.45,.64-.1,.86-.53,.86Zm-11.04,2.57l-1.09-1.07,.21-1.71,.64-.64,.88,.21,.77,.43,.32,.86-.21,.86-1.51,1.07Zm-662.2,7.28l-.21-.21-.87,.21-.77-.43,.42-1.71,.77-.43,.88,1.71-.21,.86Zm55.03,22.92l-.86-.43-.56-.86,.53-.86,.88,.21,.66,.64,.11,.86-.77,.43Zm-210.39,3l-.77-1.07,.1-.86,.74-.43,.77,.43,.22,.86-.21,.86-.85,.21Zm167.62,3.21h-.33l-1.27-.64,.32-.86h.98l.75,.43-.21,.86-.24,.21Zm514.86,12.85l-.67-.86,.21-1.07,.64-.64,.88,.43,.22,.86-.42,1.07-.85,.21Zm-205.02,5.14l-.11-.21-.6-.43-.13-.86,.77-.43,.56,.64v.86s-.47,.43-.47,.43Zm1205.93-1.07l-1.25-.86-.45-.64,.21-1.07,.87-.21,.85,.21,.24,.86-.47,1.71Zm-1121.68,13.92l-.22-.86-.77-.43-.69-1.29-.41-1.29,.21-.86,.74-.64,1.31,1.5,.57,1.29,.33,1.29-.32,.86-.77,.43Zm1124.23-3.64l-1.1-.86-.64-.64,.51-.86,.66-.64,.8,.21,.82,.64,.24,1.07-.44,.86-.85,.21Zm-1118.24,6.86l-.53-.43-.14-.43,.21-.86,.39-.21,.59,.21,.45,.64-.1,.86-.87,.21Zm-6.48,1.29l-.66-.64-.18-.43,.17-.43,.42-.64h.45l.32,.43,.11,.86-.21,.43-.43,.43Zm24.6,.64l-.77-.64,.53-1.5,.98-.21,.88,.43,.43,1.07-.64,.64h-.87l-.53,.21Zm-189.73,2.36l-.98-.64-.22-.86,.64-.64h.87l.66,.64-.1,.86-.87,.64Zm1300.63-6.43l-.56-.21-2.17-1.93-.14-2.78,.87-.43,1.73,1.07,1.21,2.57-.95,1.71Zm-1192.68,5.57l-1.22,.86-1.41-1.29-.56-1.71,.42-2.57,.88,.43,1.91,4.28Zm-119.53,3.43l-1.09-.64,.1-.86,.87-.43,.75,.64,.13,.86-.77,.43Zm6.4,.86l-.32-1.07,.64-.64,.77,.64-.21,.86-.87,.21Zm185.3-.86l-1.65-1.07,.21-.43,1.75-.43,.64,.64-.1,.86-.85,.43Zm-187.74,1.93l-1.02-.21,.1-.86,.74-.43,.56,.64-.39,.86Zm1372.31,10.07l-.06-.43v-.21s.25-.43,.25-.43l.29-.43h.38l.43,.21-.04,.43-.11,.21-.37,.43h-.26l-.52,.21Zm-1568.11,10.28l-.43-.64h-.87l-1.93-.64-1.45-1.07,.12-3,.72-2.36,.64-.64,.87-.21,1.65,1.29,1.74,1.93-.26,2.57-.78,2.78Zm1611.19-1.29h-.32l-.66-.64-.33-.86,.74-1.71,.95-1.07,1.31-.64,.88,.21,1.54,1.29-1.03,1.71-1.35,1.29-1.73,.43Zm11.42,5.14h-.64l-.88-.64,.49-.86,.8-.43,.75,.64,.24,.86-.77,.43Zm1.62,1.71h-.29l.12-.86,.41-.64,.25-.21,.61,.21-.33,.86-.41,.64h-.35Zm16.75,2.14l-1.42-1.71-.13-.86,.87-.21,1.52,1.07-.21,1.07-.64,.64Zm-1669.23,43.7l-3.8-.43-3.8-1.5-.22-.86,.53-.64,4.65-.21,5.53,1.07,.02,.86-.42,.64-2.49,1.07Zm3.48,1.07l-.66-.86,.42-.86,1.09,.21-.21,.86-.64,.64Zm-42.01,3.86l-1.2-.64-.03-1.07,.98-.43,.88,.64,.11,.86-.74,.64Zm-24.56,40.49l-1.09-.21-.45-.64v-1.07s.74-.64,.74-.64l.98,.43,.67,1.71-.85,.43Zm-119.83,4.71l-1.2-.43-.13-.86,.66-.64,.85-.21,.45,.64v.86s-.63,.64-.63,.64Zm100.31,7.5l-1.65-1.07-.43-1.71,.64-.64,.98,.21,.88,1.5v.86s-.42,.86-.42,.86Zm1826.75-6.86l-.88-.43-.1-.86,.09-.86,.64-.86,.88,.21,.64,.64,.03,.86-.42,.86-.87,.43Zm-1827.59,11.14l-1.62-.43-2.39-1.29-.32-.86,.21-.86,1.07-.43,1.73,.86,1.34,3Zm9.95,4.28l-1.04-1.07,.55-.86h.85l.45,.86,.22,.64-1.04,.43Zm-23.01,8.35h-.29l-1.28-1.07-.76-1.29-.47-1.07,.41-.64,.78-.64,1.18,.64,1.32,1.07,.5,1.07,.27,1.07-.42,.64-1.25,.21Zm1897.44,23.99l-.31-.43v-.64s.54-.64,.54-.64l.37-.21,.33,.43-.32,1.07-.6,.43Zm-13.43,1.93h-1.41l-.67-.64,.07-.86,.67-.86,.98-.21,.74,.43,.81,.86-.31,.86-.87,.43Zm7.97,3.43l-.55-.21-.28-.64,.14-.43,.37-.21,.45-.21,.46,.43,.31,.43,.06,.64-.28,.21h-.69Zm-1898.81,25.71l-.55-.43-.19-.43,.08-.86,.77-.43,.77,.43,.22,.86-.53,.64h-.26l-.3,.21Zm1902.77-5.57h-.87l-.33-.86,.58-.64,.73-.43,.36,.21,.39,.43,.08,.64,.03,.43-.99,.21Zm-1911.11,42.63l-.88-1.5,1.61-2.14,.11,1.71-.85,1.93Zm.49,31.06l-.36-.43-.07-.64,.03-.64,.29-.43,.63-.64,.31,.21,.2,.64,.15,.64-.42,.86-.77,.43Zm28.82,33.42l-1.06-.86-.16-.64,.21-.21h.56l.27,.21,.18,.64v.86Zm2.96,3.21h-1.09l-.57-.86v-.21s.23-.21,.23-.21h.46l.74,.43,.24,.86Zm-.17,5.57l-.86-.43-.34-.64,.05-.43,.05-.21,.99,.21,.1,1.07v.43Zm1985.73-14.78l.2-1.07,1.63,.86,1.26,1.71,.84,1.93-.42,.86-.85,.43-.88-.21-1.23-1.93-.54-2.57Zm-1984.38,17.57h-.24l-.76-.43-.22-.86,.61-.21,.58,.21,.22,.86-.19,.43Zm1984.36-9.85l-.45-.86,.1-.86,.32-.21,.42-.43,.56,.64-.1,1.07-.85,.64Zm-1978.58,15.21h-.55l-.64-.86-.02-.86,.42-.21,.56,.21,.24,1.71Zm4.2,8.57h-.66l-.11-.86,.64-.86,.77,.64,.22,.86-.85,.21Zm4,9l-.78-.21,.1-.86,.75-.43-.06,1.5Zm.66,141.38l-.64-.64-.11-.86,.64-.64,.88,.43,.56,.64-.55,.86-.77,.21Zm4.86,4.07l-.35-.21v-1.93s-.78-1.5-.78-1.5l1.48-2.57,2.4,1.93h1.75l.88,1.71-.63,1.71-2.82-.21-1.62,1.07h-.31Zm-2.3,16.28h-.41l-.86-.21,.21-.86,.87-.64h.85l.66,.64-.53,.86-.79,.21Zm-4.08,13.71l-.5-.43,.18-.64,.46-.43,.58-.21,.69,.21v.86s-1.41,.64-1.41,.64Zm-4.46,10.5l-.46-.21-.38-.21,.28-1.07,.66-.86,.48,.21,.17,.43-.08,1.07-.66,.64Zm2063.92,36.85h-.34l-.26-.43-.18-.43,.06-.43,.13-.43,.36-.21,.41-.21,.36,.43,.31,.21-.02,.43-.08,.43-.31,.43-.43,.21Zm1.46,1.93l-.7-.21,.08-.43,.15-.43,.13-.43,.21-.21,.34,.21,.28,.21-.21,.64-.28,.64Zm-2044.16,17.57l-.77-.86,.42-.86,.77-.43h.85l.66,.64-.21,.86-1.73,.64Zm-.74,2.78l1.94-1.29h.88l.67,.86-3.48,.43Zm.25,3.64l.11-.43-.66-.64,.66-.64,.75,.43,.02,.86-.87,.43Zm-9.39,16.49l-.88-.21,.53-.86,.87-.21,.22,.86-.75,.43Zm-4.64,2.36l-.67-.86,.66-.64,.75,.43,.11,.86-.85,.21Zm4.33,0l-.43-.43,.53-.86,.66,.64-.77,.64Zm-3.77,1.93l-.56-1.07,.87-.21,.43,.64-.74,.64Zm-2.04,1.71l-1.09-.21,.1-.86,.85-.43,1.73,.21,.13,.86-1.73,.43Zm-5.41,3l-.43-1.5,.64-.64h.88l.32,.86-.53,.86-.87,.43Zm2.74,2.78l-1.09-.64,.31-1.71h.88l1.31,1.07-.55,.86-.85,.43Zm60.19,75.19l-2.5-1.29,.1-.86,.77-.64h1.84l.77,.64,.75,1.71-1.73,.43Zm4.88,23.35l-.98-.43-.22-.86,.75-.43,.88,.21,.22,.86-.64,.64Zm-.74,2.36l-.56-1.07,.77-.43,.43,.86-.64,.64Zm-.9,19.92l-.88-.21-.56-1.07,.42-.86h.88l.77,.64v.86s-.63,.64-.63,.64Zm-11.92,50.77l-.99-1.29,.1-.86,.64-.64,.77,.64,.32,.86-.1,.86-.75,.43Zm-130.44,41.77l-1.06-.43-.65-1.29-.15-1.07h.88l1.28,.43,1.23,1.07,.02,.86-1.54,.43Zm4.81,2.57l-.87-.43,1.06-1.5-.43-1.71-.88-.64,.32-.86,.85-.21,1.86,.64,.45,1.07-.21,1.93-1.19,1.29-.97,.43Zm2.52,3.21l-.3-1.07,.08-.86,.75-.43,.88,.21,.54,.86-.21,.86-1.73,.43Zm189.59,.43l-.43-1.07-.88-.43-.11-.86,.85-.21,1.65,1.29-.21,.86-.87,.43Zm-187.05,4.5l-.66-.64-.32-1.07,.53-.64,.87-.21,.64,.64,.24,.86-.02,.86-1.28,.21Zm93.97,4.93l-.39-.86-.38-.21-.22-.86,.64-.64,.98,.21v.86s-.28,.64-.28,.64l-.12,.21-.23,.64Zm-101.37,3.21l-1.5-.64-.58-.64-.13-1.71,.42-.86,.77-.43,1.01,1.29,.32,1.93-.32,1.07Zm123.5,9.85l-.97-.64-.34-.64-.45-.64,.77-.64,1.94-.64,.88,.43,.43,.64v.86s-.53,.86-.53,.86l-1.73,.43Zm6.34,4.71l-.78-1.93,.74-2.57,.75-.43,1.73-.21,.78,1.71-.42,.64-2.79,2.78Zm76.67,23.78h-.88l-.96-.43-.45-.86,.66-.64,.96-.21,.88,.43,.32,.86-.53,.86Zm22.98,10.5l-.19-.21-.69-.43,.19-1.07,.8-.64,1.07,.21,.55,.86,.02,.86-1.75,.43Zm2.53,2.57l-.39-.64,.19-.43,.61-.43,.65,.43-.21,.86-.85,.21Zm-4.08,5.36l-.67-.86,.21-1.29,.87-.43,.75,.64,.13,.86-1.3,1.07Zm32.45,13.92l-.98-.64-.35-.86,.77-.64,1.2,1.5-.64,.64Zm20.58,9.43l-.66-.64-.22-.86,.53-.64,.87-.21,.43,.86-.21,.86-.74,.64Zm41.4,34.49l-1.73-.21-.54-.86,1.28-1.07,.88,.21,.12,1.93Zm8.5,15l-1.08-.64-.23-1.07,.74-.64h.88l.64,.64-.03,1.5-.92,.21Zm14.44,25.71l-1.3-.43,.21-.86,.77-.64,.75,.64,.35,.86-.77,.43Zm41.14,60.41l-1.54-1.5,.42-.86h.88l.77,.64-.53,1.71Zm1466.24,40.7l-.52-.43-.36-.43-.05-.43,.15-.43h.88l.16,.43,.06,.43-.06,.43-.26,.43Zm-650.38,25.92l-.86-.43-.99-1.71,.64-.64,1.73-.21,.77,.43,.12,1.93-.15,.43-1.26,.21Zm11.63,1.71l-1.63-1.29-.11-.86,1.41-1.07,1.72-.64,.43,.86-.1,.86-.95,1.71-.77,.43Zm405.67,.64h-.32l-.26-.21-.19-.64,.11-.43,.2-.43h.46l.41-.21,.39,.43,.39,.21-.58,.86-.61,.43Zm103.63,0l-.98-.21,.31-1.5,1.19-1.07,.77,.43-.52,1.71-.77,.64Zm-550.44,6.43l-.24-.43-.17-.86,.16-.86,.59-.21,.58,.21,.69,.64,.22,.86-.91,.43-.93,.21Zm286.48,2.78l-.36-1.07-.07-.86,.64-.64,.88,.64,.35,.64-.55,.86-.87,.43Zm-171.16,4.5l-.62-.21-.31-1.29,1.04-.43,.69,.21,.43,.64-.41,1.07h-.81Zm95.39,5.14h-.45l-.09-.43-.17-.43-.05-.64h.81l.05,.86-.07,.43-.03,.21Zm48.81,6.43l-.66-1.07-.33-1.29,.28-.43,.47-.21,.35,.21,.42,.21,.28,.64,.18,.43-.46,.86-.52,.64Zm-113.75,1.29l-.88-.43-.21-.86,.1-.86,.96-.21,.67,.64-.08,.64-.55,1.07Zm-835.79,7.71h-.73l-.52-.86,.36-1.07,.66-.21,.81,.21,.07,.64-.22,.64-.44,.64Zm830.84-3.64l-.67-1.07,.1-.86,.77-.43,.86,.21,.09,.86-.4,.86-.75,.43Zm570.49-2.14l-.26-.64-.07-.86,.85-.21,.77,.43-.42,1.07-.87,.21Zm9.17,5.36l-.43-.43-.35-.21-.04-.43,.04-.43h.43l.44,.21-.02,.86-.07,.43Zm-1016.68,49.7l-1.48-.21-.16-.43,1.15-1.29,.64,.21,1,.43,.2,.64-1.35,.64Zm-123.82,57.41h-.72l-.69-.21-.43-.43-.22-.43,.53-.64h.85l.69,.43,.72,.64-.74,.64Zm5.43,1.29l-.49-.64-.27-.86,.42-.43h.43l.8,.21,.83,.86-.92,.43-.81,.43Zm-251.19,4.5l-.97-.21-.65-.43,.53-.64h.93l.69,.43-.53,.86Zm-8.43,2.78l-.86-.43-.68-.86,.1-.86,.87-.21,.86,.21,.77,.21,.02,.86-.23,.86-.85,.21Zm6,3.21l-1.86-.64-1.1-1.5,.1-.86,.53-.64,1.12-.64,1.37-.43,1.26,.64,.8,1.29,.13,.86-.21,.86-.87,.64-.62,.43h-.66Zm132.23-.21l-.71-.86-.28-1.07,.64-.64,.88,.21,.17,.86-.06,.86-.64,.64Zm5.96,.86h-.85l-.86-.43-.56-.64-.13-.86,.87-.43,.7,.21,.92,.43,.35,.86-.44,.86Zm-218.93,21.64l-.77-.64,.42-.86,.77-.43h.85l.24,.86-.66,.86-.85,.21Zm11.05,11.57l-1.63-1.07-.43-.86-1.54-.86-.43-.86,1.73-.64,.88,.21,2.58-.43,.32-.86-.43-.86-1.73-.43-.03-.86,1.3-1.29,.85-1.71-1.2-1.71-3.88,2.78-1.96,.43-3.15-1.93-.24-.86,.66-.64,3.67-1.71,.95-1.71-.75-.64h-.88l.21-.86,.64-.86,1.73-.64,1.3-1.71,.74-2.57-2.72-.86v-.86s3.64-3,3.64-3l-.44-1.93,1.62-.86,6.38-1.07,3.9-1.5,1.7-2.57,2.28-1.71,.1-1.07-1.76-1.07,3.98-2.57,2.04-1.93-.32-.86,1.19-1.29-.35-1.29-.67-.64,1.94-1.93,5.42-.86,1.73-.64,.42-1.71,1.3-1.5h5.53l2.61,.64,.54,.86,1.54,1.07,4.55,.21,1.65,1.29,4.45,2.36,2.97,3.86,6,4.5,1.13,4.5-2.04,2.36-.5,2.57-1.3,1.29-.88-.21-.89-2.57-1.2-.86,.25,2.78-.62,4.07-1.68,6-.74,.64-1.84,.43-2.42-1.71-.53,.86-.53,1.93-4.51,5.14-2.71,.43-1.51,.86-1.73,.21-.32-.86-.03-2.14-2.96-2.57-1.49,1.29-3.56,1.93-1.93,3.21-6.8,3.43h-.88l-.88-.64-.89-2.57-1.62,.64h-.85l-.45-.64h-.88l-.74,.64-1.69,3.86-.31,1.71-.55,.86-1.73,1.07h-1.84l-.75-.43-.46-1.93-.88-.21-.64,.86v.86s-1.5,2.14-1.5,2.14l-1.62,.86Zm500.84-116.75h-1.41l-7.12,3.86-3.91,.64-4.76,1.29-.88-.21-3.46,.21-3.59-1.07-8.03,.86h-4.76l-3.81-1.29h-1.94l-6.69,3.43-1.96,1.07h-4.66l-3.7-.21-5.19,.43-2.92,2.36-2.71,.43-6.16,3.43-.95,1.71-2,6.43-1.62,1.07-2.61-.86-6.2-.21-1.49,1.29-2.82,.21-1.19,1.5-1.73,.64-.74,.64-.21,.86-.77,.64-2.71,.43-3.32,3.43-1.96,.64-2.82-.43-3.34,2.14h-2.93l-6.27,2.78-3.44,3.64-2.58,1.5-.95,1.5-5.41,3.21-.42,.86-.2,1.93-.64,.64-5.29,1.5-1.5,2.57-.85,.43-14.72,3.86-3.91-.21-1.72,1.5-1.73,.64-7.39-.21-10.47,3.64-2.6,.43-3.87,3-4.67,.64-3.57-.86-1.51,1.29-2.71,.86-1.4,1.29-3.67,1.5-.41,2.78-2.64,7.07-2.86-3-5.68-4.5-5.75,.21-7.4-2.14-4.79-1.71-3.68-.21-8.91-1.5-3.81-1.5h-.98l-5.54-1.71-18.88,.86-2.26,1.71-3.88,1.5h-2.93l-11.16,3h-2.82l-1.52-1.07-.88-.21-5.51,1.5-3.8,.86-9.87-.86-10.18,1.71-4.36-.86-3.24,1.07-7.79,.86-3.7-1.29-1.73,.64-4.68-.21-.99-.64-3.5-4.07-.88-.43-4.48-3.64-19.68-5.78-2.6,.43-.42,1.07-.75,.43h-.98l-2.4-1.71-3.59-.64-6.91,1.93v.86s-1.5,2.57-1.5,2.57l-.85,.64-2.29-1.5-5.88-1.07-.75-.64-.78-1.5-.5-6.86,4.77-12.85-.35-1.07-1.73-.43-.45-.64,.73-4.5,.62-4.28-3.2-4.93,.42-1.93-.97-11.35-3.89-10.28-.92-5.14-2.09-3.43-.46-2.57-2.58-9.43-5.8-6.43-.78-2.78-2.42-1.71-.89-2.57-1.52-1.29-3.63-4.5-.65-1.71-7.55-6-1.99-4.5-4.4-4.28-.11-.43-.54-.64-5.26-16.28-.79-5.36-1.66-4.07-6.02-4.07-1.46-7.07-2.85-3.21-.98-.21-2.71,.43-4.02-.86-.85,.21-13.58-14.35-7.09-5.36-3.95-5.57-2.01-4.5-1.42-1.29-.32-.86,.1-.86-2.64-3.64-.11-.86,.32-1.07-.24-.86-4.66-1.71-.77-1.07-2.18-1.5-2.3-3.43-7.96-3.64-4.12,.43-2.92,1.5-3.82-3.86-.88-.21-.53,.86h-.98l-3.5-3.86-4.9-1.29-1.13-4.93,.73-3.43-.14-2.57-1.98-3.21-1.34-3.86-4.81-6.21-2.53-3.21-4.81-4.71-4.05-4.28-1.54-1.07-.22-1.07,.32-.86-.86-.21,.08-1.93-.67-1.5-2.4-1.93-.32-.86,.07-3.21-1.97-1.93,.2-3.21-.45-.86-1.95-.64-1.1-2.78-.88-.64-2.61-.86-.35-2.14-1.77-4.07h-1.86l.73-4.93-.57-2.57-1.41-1.29-1.55-3.64,.42-.64-.57-4.28-1.77-4.28-3.62-3.43-.56-.86-.23-3.86-1.33-1.29-3.59-1.29-1.31-1.5-1.09-.43-4.66-.64-2.61-1.29-2.61-.21-3.38-1.29-3.18-4.71-3.59-.64-.22-.86,.95-2.78-1.66-3.43-.77-.43-3.78,.86-2.29-1.5h-.98l-1.62,.86-.32-1.07,1.49-1.29-1.45-4.28v-3.21s-.9-1.71-.9-1.71l-.57-2.57-1.44-1.07-2.94-3.86-.88-.21-1.16,3.64-6.37,2.36-3.69,1.07-.75-.43-1.22-1.5-.75-.43-1.73,.21-.77-.43-4.76-.21-.77-.64,.85-1.71-.11-1.29-.56-.64-5.22-1.93-5.32,.43-1.31-1.5h-1.73l-.66-.64-.11-1.07-1.54-1.07-.22-.86-.64-.43-.88-.21-4.97,2.14h-.88l-.11-.86,.95-1.71,.1-.86-.54-.64-.88-.21-.64,.64-.98,.21-.56-1.93-3.06-2.14,.65-1.71-.66-.64h-.88l.1-1.07,1.62-1.07-.67-1.71,.32-.86,.17-6.43-.56-.86-2.27-1.5-5.71-7.71-5.01-2.78-.45-.86-.03-2.78-2.5-1.29-3.56,1.07-2.71-.43,.32-.86,.75-.43,.55-.86,1.62-1.07,.42-.86-.46-1.93,.32-.86,.64-.64-.22-1.07-2.08-3.21h-1.73l-4.92-2.36-.78-3.64-4.34-.86-2.96-2.78,.1-.86,.64-.86,.21-.86-.36-3.64,.21-1.93,2.26-1.93-.35-2.57,2.91-4.5,.08-1.29-.54-.64-1.76-1.29-2.08-2.14-.86-.43-.98,.21-2.15,1.5-5.84,3-.32-.86,.21-1.07,3-2.36-.11-.86-1.31-1.29-5.31,1.5-.75-.43-.99-1.5-6.3-1.5-.45-.64-5.89-3.86-2.65-4.71-.75-.43-.87,.43-.32,.86-3.31,4.5-5.42,1.71-3.65,4.28-.71,3.86,.22,1.71-.27,6-1.27,1.5-.87,.21-10.22-3.64-1.41-1.29-1.75-.21-1.83,1.93-.5,3.86,1.02,4.71,.47,6-.85,1.71-2.04,1.93h-.88l-1.1-1.93-2.71-.64-2.6,1.07-.96,.21-1.65-.86,.21-1.07-.86-.43-1.97-.43-.43-.86-.02-.86,.76-1.93,.74-.86,.1-.86-.45-.86-.88-.21-6.59,2.36-1.31-1.5-.67-1.71,.62-3.86-1.97-1.93-1.73,.21-.77-.64-.67-1.71,1.92-4.5,4.4-5.78,.85-1.71,11.86-9,2.05-.43,8.46,.43,1.3-.64,2.57-2.57,.48-7.07-1.31-2.78-5.04-5.14-1.67-5.57-.66-.64-4.54,2.36-.22-.86,3.06-8.14-.05-6.21,2.01-4.93,.72-6.43,2.64-7.07,1.15-5.57-.46-2.57,.32-.86,1.51-1.29,.29-3,1.82-3.21-.35-1.93,.21-1.5-.99-1.71,.21-.86-.14-3.43,2.78-4.07,2.15-2.14v-.86s-1.45-3.21-1.45-3.21l-1.41-1.07-.43-.86,.08-.86-.78-2.78,.62-3.86-.78-2.57,2.25-4.07,.31-1.71-1.73-9.64-2.19-3.43-1.1-2.57-1.65-.86-.32-.86,.31-1.71-5.08-11.14-3.17-2.78-.99-1.5-2.96-2.57-1.87-1.93-1.94-.21-2.6,1.07-2.72-1.07-1.97-1.71-.96-.21-2.63-.86-2.83-2.57-.14-1.71-.67-2.57-1.73-.43-1.41-1.07-.67-1.71,.31-2.57-.91-3.43-.88-.43-2.58,.64-.56-1.71,1.61-2.14v-.86s-1.76-2.14-1.76-2.14l-3.48-1.07-1.55-2.57-2.51-2.14-3.56,.43-.98-.43-3.1-7.28-2.18-1.71,1.26-5.57-.45-.86,.3-4.71-.88-.21-2.49,.86-.43-.64,.42-.86,7.42-7.93,7.53-6.64,2.78-5.14-.13-.86,.85-2.14,1.25-6.43-.14-3.64,.31-1.93,2.26-1.71,.1-1.07-1.42-1.5-2.72-1.07-.66-.64-.68-4.5,1.4-13.71-2.37-9.64-7.51-4.28-2.08-1.93-.6-4.93-2.96-3.64-3.31-6.86-.22-1.07-1.2-1.93,.21-.86-.14-1.93,3.06-9.21,.84-3.43,2.28-1.93,.19-1.29-.36-4.71,.53-1.93,1.51-1.29,.31-1.71-1.63-1.07,1.69-3.86,3.77-2.78,2.66-6-.14-1.71,.31-1.71-.11-1.07,1.19-.21,.64-.64,.1-2.14,1.05-3-.7-4.93,2.89-4.07,.84-2.78-.65-1.71-1.86-.21-6.27,2.36-.77-.86,.42-1.93,5.09-2.36,.32-.86-.14-1.71,1.69-4.5,1.68-7.28,2.87-7.28-.15-4.28-1.58-6,.59-5.36,.2-.86,.29-6.43-2.08-3.21,.84-3.43,2.73-11.14-1.68-4.71,.51-5.57-.7-4.07-2.75-4.07-1.42-3.64-1.12-1.5-.11-.86,.41-3-1.02-4.5-2.85-3.21-.22-.86-3.31-5.57,.21-.86-1.31-1.5-3.46-.86-.45-1.07,.63-1.71,1.07-.86-.86-1.93-3.01-8.78-1.11-1.93-2.87-3.43-4.13-5.36-.81-4.28-.88-1.5-4.05-4.28-1.1-1.93-2.7-12.42-.77-.64-.34-.86-2.05-.86h-2.6l-3.38-1.93-1.1-1.93-1.09-.86-.88-1.71-.66-.64-.11-1.07,.73-3.64-.24-1.71-3.94-4.07-.11,.21-.75-.64-1.65-2.36-.88-.43-.65-1.71,.39-4.5-1.91-8.14-.98,.21-.66-.86-.54-1.71-1.51,2.36-1.09,.43-.85-.21v-.86s.27-.86,.27-.86l1.2-3.64-.11-.86,.4-2.57-.14-3.86,3.26-12,2.63-10.07,1.33-7.93,.64-.86-.32-.86-.14-2.78-.89-2.57,2.62-11.78,.52-2.14-.13-1.07,.18-4.07,1.15-6.64-1.3,.21-.34-.86,.66-.64,1.16-3.64,.64-.86,2.03-4.28,2.08-8.78,2.04-2.14,.63-2.78,.06-5.36,4.32-3,9.15-5.14,1.4-2.36,6.16-.43,3.98-2.36,3.65-4.71,4.96-3.86,.21-1.07-.46-1.93-.66-.86-1.52-.86-2.6-.43-1.31-1.29-.14-1.93,.66-.64,3.17,1.93,6.2,3.21,.85-.21,.66-.64-2.53-1.93,.87-1.5h3.46v-.86s-2.75-2.78-2.75-2.78l-1.84-1.07-.24-.86,.66-.86h2.6l4.34,1.5,.87-.21-.66-.64-.32-.86,4.55,.43,2.15-1.93,.74-2.57-5.66-2.36-.75-1.93,.21-1.07-3.17-1.93,.21-.86-.24-.86-.75-.43-.45-.64,.1-.86,.64-.64,7.6,.43,.91,.64h.61l3.89-1.93,6.48-.86,4.57,.43,3.7,1.71,.42-.64-.78-2.36,.53-1.93,4.53-2.78,2.78-3.43,5.28-1.93,.77,.43,2.71-.86,2.78-3.64,1.16-2.78-.11-.86,2.58-1.5h1.86l1.52,.86,2.81-.64,4.96-3.43,1.38-1.71,3.23-1.93h1.86l1.41,1.29h.87l.28-.43,.54-.43,1.22-.86,3.1-2.78-.22-1.71,.64-.64,1.73-.43,1.29-1.71-.92-6.86-1.97-2.14-.46-2.78-1.84-.86h-.98l-2.08-2.14-.24-.86,.32-.86,14.5-2.14,.44-1.07,.39-3.64,1.83-2.14-.88-1.71v-.86s1.59-2.36,1.59-2.36l-2.83-3-.56-1.71,.2-2.78-.13-.86-.75-.64-4.46-1.29-.77-.64-.32-1.07-.04-5.36-1.41-1.5-.67-1.71,.21-.86-.46-1.71-.77-.64-7.36,.43-5.24-4.28-2.92-.21-19.65-6.64-.77-.64,.32-.86-.32-.86-1.75-.64,.42-.86,5.19-2.57,4.82-5.36,1.72-12.21,.98-1.5,.85-.43,1.3-1.29-.24-1.93-.86-.43-1.62,.64-4.74,4.93h-.85l-.77,.64-.1,.86,1.86,2.14,.34,.86-.84,2.57-.31,2.78-2.36,1.5-.88-.21-2.4-1.5-3.8-1.71h-2.6l-.77-.43-.11-.86,.32-.86,3.09-4.93,2.15-1.5,.21-.86-.99-1.71,.32-.86,1.62-.64-1.2-1.5,.1-.86,.87-.21h3.03l3.67-.64-.43-.64-1.52-.86-6.3-1.71-1.54-1.07-3.57-.86-.77-.64-2.13-8.57,.53-.86,4.51-3.21-.43-.64-2.61-.64-1.41-1.29-2.61-.64-.77-.64,.21-.86,.85-.64,5.31-1.29,.1-1.93-3.8-.43-.66-.64-.67-2.78,.21-1.93,2.49-.86,1.73,.64,1.76,2.14,6.07,2.78,4.5,5.57,.26,6.21-.28,3.64-.42,.86-1.62,1.07-.42,.64,.22,1.71,1.09,1.5,1.75,.21,2.3,3.43,1.94-.86,1.65,1.07,1.73,.43,.74-.43v-2.78s.73-.64,.73-.64h.87l2.64,4.07-.3,3.64,1.34,3.64,1.31,1.29,.88,.21,1.72-.86,3.67-.64,.77-.43-1.03-5.57,1.36-7.07,.74-1.07,3.56-1.71,4.33,.86,1.75-.21,.64-.64-.14-3.64-.3-.43,.31-.21,2.91,.43,1.43,1.29,2.33,6.86,3.45-.86,1.51-1.07,.61-3,.77,.64,2.53,4.07,.57,2.57,.88,1.71,.85,.21,1.3-1.29-.11-1.71,.21-.86,4.9,2.78,.85-.21,.98,.21,.98-.43,.95-2.78,.53-.64,1.65,.64,2.94,4.28,.63,7.28,5.15,6,1.84,.43,1.52,1.29,1.88,15.42,2.7,12.42,3.21,7.28,.98-.21,2.32-5.36,1.72-1.5,.88,.43,6.45,6.21,3.49,1.93,.66,.64,6.09,2.57,2.4,1.5,1.73,.86,3.03-.21,6.26-2.78,2.71-.21,1.94-.64,1.4-1.29,1.15-4.71,1.59-2.57,2.7-1.29,7.04-.43,.51-.43,1.16-.86,.59-.86,1.51-1.07,3.6,2.78,1.64-.43h.85l2.64,3,.86,.43,1.75,.21,.74-.64,.95-2.78,3.33-3.64,2.6-.64,1.84,.43,18.02,2.57,2.17,.86h.65l.85,.21,5.52-1.29,11.37,.64,1.76,2.14h1.83l.66-.64,1.8-3.86,1.51-1.71,.98-.21,.88,.21,3.7,2.57h.85l3.55-3.43,2.39,1.29,2.6,.21,8.33-2.36,1.84,.21,1.83-.64,4.54,.21,5.09-.86,5.88,2.36,2.92,.43,.64-.86-.43-.86,.64-.64,1.94-.64,.77,.43,2.3,3,4.37,4.07,7.18,2.36,3.6,3.43,3.48,.21,7.11-3,1.08-1.71,2.04-2.57,5.71-2.36,4.22-1.93-1.34-4.5-1.59-7.71,.32-1.07,1.4-1.29,.87-.21,1.84,.43,2.95,2.36,2.05-.21-.89-2.57-.03-1.71h.98l1.55,2.36,.85-.21-.11-.86-1.31-2.36-.24-2.14-.67-1.93-.11-1.71,.64-1.07,1.73,.86,6.3,1.93,2.4,1.71,7.42,17.78,7.95,3.21,2.74,2.36,1.94,.21,.32-.86,3.2-3.86,3.68-1.29,3.49,3.21,3.38,1.29,1.66,4.5,.64,.64,1.96-.43,5.81-2.78,3.38,1.5,10.38-1.07,5.83-3.64,2.99-4.71,1.73-.64,1.19-1.5-.03-1.71-5.05-9-.99-2.57,.64-.64,.88,.21,8.75,9.85,2.54,5.78,2.4,1.29,1.41,.43h2.07l2.47-1.5,1.83-.21,3.06,1.93,2.82,.64,2.4,2.14,1.75,.86,4.43-1.29,.88,.21,2.93,2.36,8.48,3,3.8,.86,3.28,3.64,4.57,1.93,2.16,1.71h6.72l.97-1.71,.17-3.86-.78-2.78-.66-.64-.12-2.36,6.47-2.78,.33,1.93,1.12,1.5,5.01,3,2.86,4.93,.54,1.5,3.48,1.29h1.73l9.38-5.36,.52-2.57-.32-.86,.42-.86,2.57-1.71,.97-1.5,2.14-2.14h.85l1.72-2.14-.43-.64,.85-.21,12.94-7.71,5.73-1.07,12.35-.43,7.32-4.71,2.04-1.93,.88,.21,.43,.86-.18,1.71,.75,.64,8.22-2.57,3.56-.43,.42-.64,7.77-2.78,3.03-.43,4-1.29,4.26,2.36,4.65-.64,3.55-1.71,2.82,.43,2.74,1.5,10.92-1.5,3.55-1.71,2.15-1.93-.47-3.64,2.13-6.21-.7-3.64-3.81-3-4.2-9.21,.85-1.71,8.76-2.57,1.84,.21,3.84,3.43,2.41,3.43,6.77,5.78,3.58-.64,11.75-4.28,3.55-2.36,1.82-2.36,1.83-.86,3.33-3.21,4.74-3.64h1.94l1.62-1.07,.85-1.71,1.62-1.07,2.24-3.64,16.17-8.57,3.03-.64,.77,.43,1.06-.43,3.33-4.5,.74-.43h.87l1.31,1.07,2.01,5.57,3.59,1.07h1.94l1.73,.86,3.68-1.71,10.7-1.29,5.77,1.29,6.47-2.14,6.36-2.78,6.82-1.5,.1-.86,4.72-3,2.71-.64,4.43-1.93,3.1-3.86,2.6-1.5,2.71,.43,6.78-5.36,2.68-.86,5.58-5.57,4.78-.43,6.34-3.43,4.95-3.21,5.73-1.29,5.61-3.43h.96l6.32-7.5,3.53-6.21,5.14-4.93,.73-3.86-.11-.86,.74-1.71,4.27-1.93,1.69-.86,1.14-2.57,5.37-4.93,1.27-1.71,6.37-2.36,1.75,.21,3.5-7.28,1.82-2.36-.03-.86,1.5-3.21,1.27-1.5-1.08-10.93,1.51-1.07,1.36-4.5-1.81-8.78-4.77-10.71-.57-3.43,1.99-6.86-.25-16.07,.84-3-3.11-7.5,1.82-1.93,.29-2.14-.79-3.64,.2-2.14-1.45-3.43-2.87-7.07,.49-4.93-.13-.86,2.79-4.28,1.62,.64,1.72-.86,4.6-5.57,1.73-.43,3.17,2.57,3.73,4.71,1.52,1.29h.98l1.51-1.29,2.61,.86,5.17-2.36,2.25-2.14,2.49-1.29,3.55-3.21,2.9-.64,3.36-1.93,6.28,1.5,2.35-4.28,1.4-1.07,1.62,.64,2.43,3.43,4.34,2.14,.88,.21,.99,1.5-1.37,3.43-1.08,1.5,.13,.86-1.5,3.21-.64,.64-.21,1.07,.43,.64,5.84-1.07,3.23-1.93,4.57,.64,.86,.43,.18,6.21-.73,2.78,.68,2.78-1.01,6.43,.57,3.64,2.08,3,.77,.64,4.01-.43,6.48-1.07,6.47-3.43,1.73,.64,1.23,2.78-.41,2.78-7.41,6.64-.42,.86,.11,.86,.77,.64,1.24,3.86,.75,.43,2.07,.43,.88,.64,.88,1.93-.31,1.71-1.61,1.29-.31,1.07,.36,2.78-2.24,3.43,.46,1.93,8.81,5.36,.05,5.78-1.48,2.57-.98,.86-2.31,7.71,2.68,7.28,1.41,1.29,1.94,.21h2.94l2.05,.86,3.39,3.43,9.43,.86,2.42,1.93,.54,1.71,.14,2.57,1.65,2.36,5.68,1.71,2.93,5.14,3.17,1.93h4.78l1.63,.64,2.58-.86,10.09,.43,4.23,2.36,9.02,2.14,3.58-.86,5.43,3,4.37,3.21,4.57,1.29,4.11-.86,6.84,1.93,2.81-.21,2.61,1.07,3.79-.86h4.76l5,.86,2.82,1.5,7.14-1.07,4.01,.21,6.93-1.29,3.91,.86,13.86-1.29,1.7-.64,.97-1.71-.14-1.71,4.46,.43h.84l.78,.64,.32,.86,.88,.64,6.5-1.07,5.39-1.5,1.72-.86,4.46,.64,2.61,1.29,7.18,2.57,10.53,1.71,8.04,3,1.94-.86,1.51-1.29,2.07-.43h4.76l2.92-.21,.77,.43,2.71,.64,2.5,1.07,6.16-.21,6.35-4.71,6.27-.64,3.57-1.71,9.08-1.93,6.78-4.28,4.64-.86,1.52,.43,2.93,.43,14.7-3.64,2.6-1.29,.94-3.86h2.05l6.96,1.71,3.91,1.93,7.97,6,.57,2.78,1.73,.86,2.82,.21,.76-.64,2.05,.86,.56,.86,.85-.43,11.61,1.07,1.62-.86,.84-1.71,2.46-1.71,4.25,1.71,3.02-2.36h2.71l.86,.43,2.65,4.28,.13,.86,6.67,6.21,2.3,3.21,3.59,.86,6.82-.21,3.25,1.71,1.96-.21,1.85,2.14,.24,1.71,2.08,2.36,8.25,2.36,9.77,.21,2.81-.21,2.93,.86,7.66,7.71,6.6,9,5.57,4.5,1.31,1.5,5.01,2.78,3.91,.86,5.46,4.07,11.73,14.35,3.06,2.14,4.68,1.5,3.49,2.78,2.71,.43,6.2,2.36h5.52l.96,.43,.45,.86-1.05,2.36v.86s8.33,9.21,8.33,9.21l7.41,5.78,12.28,1.93,4.69,3.43,5.35,2.78,2.06,2.14,4.94,5.78,1.97,.86h1.84l.98-.21,1.94,.43,12.79,10.5,17.16,6,6.02,5.36,10.65,4.5,11.13,6,6.64,4.07,3.8,.43,2.6-.64h.87l.75,.86,.11,.86-.95,1.71,1.87,3.21,8.49,4.07,.99,1.5,1.65,.86,3.24-1.07,6.09,2.14,2.48,.86,2.63,.64h3.67l2.51,1.71,5.55,1.29,.85-.64,6.4,.64,.98-.21,3.25,2.36,2.61-.21,1.85-.43,8.24,.86,.86,.64,1.85-.64,1.62-.86,2.41,3,9.23,2.57,3.59,.21,2.72,1.07,8.02,.21,6.55,3h1.73l3.66-1.29,.64-.64,.21-1.07,1.93-2.36,2.29-1.29,3-1.07,.43,.64-.74,1.93,.22,.86,1.85-1.07h.85l.33,1.07-1.53,3.64-1.63,3.43-1.57,2.14,1.49,2.36,2.53,1.71,3.03,.21,5.73-1.07,.77,.43,.22,.86-3.11,4.28,.14,2.14,1.76,2.36,6.73,1.29,2.19,1.71,8.9,12.42,3.92,2.78,1.66,2.78,11.26,9.43,4.59,3.43,2.82,1.29,2.53,1.71,1.28,.43,2.98,2.14,4.29,7.5,2.72,2.57h1.75l.22,.86-.84,1.71,3.72,4.93,6.5,9.85,6.13,5.36-.63,1.71-.77,.43-.32,.86,.35,.86,4.59,4.71,1.34,2.57,4.81,5.14,2.82,1.29,2.08,2.14,.11,.86,8.26,11.14,8.97,7.93,14.48,16.07,5.34,3.64,5.57,3.86,1.09,.21,1.62-.64h.87l-.41,3.64,1.1,1.5,.88,.43,1.66,2.36,.69,4.71,1.24,3.43,.19,7.5,.43,1.07,1.76,2.36,.67,1.71,2.2,3.43-.1,.86,1.67,4.07-.21,.86,1.45,2.78,.9,4.28,4.3,6,3.38,1.93,6.52,12.21,8.13,10.71,.12,1.71,4.72,3.64,2.09,3,13.38,14.78,11.22,7.07,2.08,2.14,4.79,1.29,1.84,.21,1.87,2.14,1.52,1.29,.03,.86,4.7,4.28,.56,.86,2.5,1.29,2.05,.21,1.2,1.5,3.91,.86,5.71,5.78,1.83-.64,7.82,1.71,.63-1.93,1.86,.64,1.31,1.71,.22,.86-.21,.86h-1.73l-.53,.64,.79,2.78,.54,.86,1.56,14.78,2.34,6.43,4.52,6.64,.05,4.71,1.13,2.78,2.84,3.64,1.24,3.86,3.08,4.5,1.44,1.5,.22,1.71-.21,.86,1.35,3.64,5.36,4.71,2.09,3.86,12.18,13.07,.33,.86,2.19,1.93,.43,.86-.28,3.21,2.77,6.43,.47,3.21,.8,2.36,1.74,1.07,.86,.86,.24,1.07,5.19,7.93,.76,1.93,2.43,3.43,.15,3.86,4.33,10.28v.86s-.73,1.93-.73,1.93l.47,3.43-.53,1.07-.74,.64,1.9,6.43,.03,1.93-1.57,4.5,.06,6.21,1.35,3.86,.39,7.07-.28,3.64,.42,9.85-.39,2.57,2.53,5.57-.47,2.57-.42,1.29,.2,1.71,2.65,4.28,.62,7.5,2.39,10.28,1.34,3.43-.2,1.93,2.44,3.86,1.86,11.14,1.42,2.57-.19,3.86-1.16,2.78-.69,5.36-1.1,9.21,.47,2.78-1.46,5.14,.68,3.64-.31,1.07,.67,1.71-.94,2.57-2.24,3.64-2.62,7.07-.4,4.07-10.01,17.14-2.61,9.85-.91,4.93-8.67,10.5-2.1,5.57-3.44,2.57-.63,1.93,.47,3.64-2.44,6.21-2.99,3.64-3.65,3-3.24,11.78-2.46,3.21-2.82,.43-6.39,10.07-.62,2.78-2.17,1.93-.84,1.71-1.83,.64-4.34,10.07-2.78,2.78-2.33,6-5.34,7.28-1.03,5.57-3.51,4.93-.84,2.78-7.26,10.71-7.04,11.78-1.05,3.64-2.88,3.64-4.16,7.93-.74,.64-3.75,5.78-2.99,4.07-1.47,3.64-1.51,1.07-2.36,1.71-1.57,4.5-2.28,1.5-2.63,6.86-2.58,3.43-1.7,1.29-6.26,14.14,.35,1.71-3.02,2.36-3.47,9.64-2.36,4.5-1.06,1.5-3.35,11.57,1.18,7.28,.89,1.71-1.03,6.43-2.35,3-.38,3.64,.12,2.78-1.58,3.43-.1,.86,1.98,2.36,3.06,1.93,.22,.86-1.29,1.29-1.73,.43-.95,1.5,.47,3-.87,3.43-.44,1.29,.42,3.64-.63,1.71,1.4,9.21,2.09,3.43,2.58-.21,1.44,1.29,.88,.21,.64-.64,4.34,.21,.88,.43-.42,.86h-.88l-.42,.64,.67,.64h1.84l1.73,.43,.99,1.71,.25,1.71-1.92,3.64,.26,4.5,1.2,1.5-2.3,7.5-.64,.86-1.73,.21-5.45,6.64-1.85,1.07-7.69,.21-3.55,1.93-2.67,3.43-2.6,.86-2.66,5.78-2.56,4.07-.98,.43-.96-.21-.87,.43-.98-.21-3.98,2.57-1.73,.21,.68,3.43-.42,1.93-7.99,3.43-5.37,4.93-2.49,1.29-4.14,7.07-.85,.86-3.56,1.5-3.42,6.43-1.49,1.29-1.83,.43-.55,.64-.29,1.93-.97,1.71-3.68,1.93-.64,.64-.42,1.71-1.27,1.71-2.36,2.36-.71,6,2.02,4.93-.95,2.57-2.59,2.14-9.18,3.64-14.06,13.92-3.77,1.5-1.61,2.78-3.41,4.93,.11,.86-.98,.64-.42,.86,.24,.86-2.87,5.57-.76,.86-1.83,.43-2.04,2.57-1.7,1.29-1.19,1.71-2.36,1.71-2.33,7.71-.64,.64-1.83,.64-.64,.64,.9,4.71-.73,3.43-.64,.64-2.08-1.93-4.58-1.5-3.77,1.29-10.85,.43-7.06-2.57-2.18,.21-10.21-.86-1.84-.43-1.84,.21-.98,.43-2.18-.86-5.09-.43-8.34,1.5h-3.57l-7.74-2.36-4.76,.64-4.09,2.78-12.21,4.71-7.84,6.86-7.91,2.14-6.9,3-14.39,4.28-17.51,4.71-18.53,1.29-2.72-.86-7.61-1.71-4.12,.86-13.14-1.07-2.79,1.29-5.55-.21-.86-.21-2.41-2.36-.99-.64h-3.14l-28.01,9.43h-.85l-.74,.21-1.19,.86-2.79,4.5,.03,1.71-1.73,.64-2.71-.43-3.89,3.21-5.07,1.93-23.33-.64-14.35-3.64-1.73,.43-2.61-1.07-2.71,.64-7.83-2.78-1.84,.21-3.49-.86-10.32-.86-1.84-.86h-4.76l-1.11-.43-7.47,.21-12.41-3-2.05,.43-1.2-.21-4.86,1.07-3.8-.21-6.17,1.07-10.73,2.14-.85,1.5,.24,1.71-.32,.86-.77,.43h-.85l-1.44-2.36-1.31-1.29-2.71,.64-2.4-1.29-5.18,1.5-2.63-.86-3.46-.21-5.63,1.29-1.35-1.07-.59,.64-1.75,.64-1.52-1.07-.86-.21-12.14,2.14-7.11,3.86-5.74,1.29-6.41-1.07-14.61,3h-2.61l-1.73-.64h-12.79l-12.64,5.14-1.79,5.36-1.18,2.57-2.88,3.86-2.58,.86h-1.86l-4.9-2.57-5.54-1.07-9.01,1.71-3.47-1.07-5.15-4.5-1.95-.43-1.65-1.07-11.64-3.21-2.96-2.57-4.77-.64-1.54-1.07-12.28-3.64-5.21,.64-2.08-1.93-4.24-2.36-5.32-.86-3.49-1.5-1.2-1.29-7.51-1.71-1.63-.86-10.1,.21-3.78,.21-8.17-1.5-5.75-.64-15.56-5.57-4.65,.86-1.97-.21-8.5-4.93-4.55-.86-2.49,1.29-1.84,.21-2.82-.21-2.96-2.14-10.01-2.36-9.1,.43-1.19,1.29,.35,1.07,1.52,.86-.42,.86-3.45,1.29-8.59-1.07-9.73,1.5-11.72,.86-3.24,1.93-6.28,.64-1.4,1.5-4.87,.43-4.68-.43-8.67,.64-1.57,.64-3.87,.21-5.27,.64-20.94,11.14-8.53,3.21-3.89,3-11.88,3.64-2.81,2.57-4.22,2.36h-4.34l-4.62,2.78-4.44,1.07-9.61,4.5-4.64,3.43-9.62,3.64-2.81,2.57-7.78,3.21-.84,2.78-2.99,4.5-.75,.43-1.73,.21-4.85,3.43-6.48,3.43-1.08,1.5h-3.57l-12.42,7.07-17.75,3.64Z" style="fill:#efc441;"/></svg>