<svg xmlns="http://www.w3.org/2000/svg" viewBox="0 0 800 800"><polygon points="508.07 566.43 503.25 566.79 500.58 566.06 498.95 564.77 495.59 561.1 494.56 560.55 492.75 560.37 490 562.94 483.11 563.12 479.75 564.04 476.39 566.61 475.45 566.98 474.59 567.07 473.73 567.35 472.87 568.26 472.18 570.29 472.09 572.58 472.44 574.88 473.04 576.72 473.64 577.54 474.59 578.83 476.31 579.65 478.12 580.02 479.58 580.66 480.61 581.86 481.39 583.24 482.51 587.37 482.59 588.56 482.42 591.04 482.68 592.14 483.37 592.7 485.35 593.06 486.04 593.8 486.64 595.91 486.81 597.75 486.64 599.59 486.21 601.61 484.74 603.08 484.49 604.09 485.78 606.93 486.29 607.67 488.01 609.23 488.44 610.24 488.19 611.52 487.58 611.89 486.81 612.17 486.12 613.09 484.74 617.13 482.76 621.17 481.3 623.37 480.53 623.83 479.67 623.56 468.9 625.95 467.27 626.77 463.91 628.88 461.07 630.26 459.69 630.35 457.97 630.08 456.25 630.08 453.07 631.64 451.35 632.01 448.85 631 445.15 627.05 442.39 626.04 441.1 626.5 436.37 629.62 432.06 629.89 430.6 630.35 429.05 631.46 428.19 632.28 427.33 632.93 425.87 633.11 424.66 632.74 422.08 631.27 420.87 630.81 409.77 630.08 408.05 630.72 407.1 632.19 406.24 633.94 405.12 635.31 403.92 635.77 402.97 635.68 401.94 635.31 400.65 635.22 397.38 635.77 376.29 642.29 373.36 642.57 370.43 642.11 368.02 640.64 362.69 633.57 360.27 631.64 359.76 631.46 355.02 629.34 354.51 628.79 353.56 627.14 353.22 626.77 352.53 626.77 350.46 627.14 329.98 618.78 326.1 616.49 324.38 616.3 323.18 616.58 320.51 617.5 315.69 617.77 315.26 619.88 315.6 622.73 314.48 625.03 311.99 624.93 309.32 622.55 305.01 617.31 302.6 615.2 300.28 614.1 297.78 613.82 294.86 613.82 295.63 612.17 291.24 612.26 289.61 611.8 287.63 610.15 287.54 609.5 287.88 607.76 287.71 606.93 287.19 606.47 285.99 605.74 285.56 605.19 284.87 604.27 284.27 603.63 283.75 602.89 283.41 601.61 282.98 597.2 281.43 592.97 278.76 590.68 275.14 592.05 272.39 592.61 269.81 596.19 267.91 596.55 265.33 596.1 263.35 596.28 259.13 597.56 258.01 597.66 254.66 597.29 253.54 597.38 252.76 597.84 251.9 598.12 250.7 597.75 250.53 596.92 250.78 595.54 250.7 594.07 248.2 592.61 246.14 590.4 243.98 590.68 241.57 591.69 239.51 592.97 239.34 593.06 237.44 594.63 236.93 595.64 236.41 598.12 236.06 598.76 235.12 598.67 234.6 597.93 234 597.01 233.05 596.28 229.26 595.27 224.27 594.81 220.57 596.46 220.91 601.61 221.26 605.19 221.17 606.57 220.4 607.76 219.02 608.4 217.47 608.13 214.72 606.38 214.29 607.48 213.68 607.85 213 608.03 212.31 608.49 210.16 610.51 208.35 610.61 202.41 606.47 201.38 606.29 198.02 609.32 195.95 610.24 193.37 610.88 190.7 611.16 188.46 611.07 186.57 611.98 183.73 616.49 181.75 617.04 177.62 616.12 173.4 616.12 170.99 617.04 167.8 620.07 167.46 620.25 165.91 621.26 161.69 621.08 153.43 616.94 141.03 616.67 138.62 617.4 134.84 620.07 132.6 621.26 129.93 621.54 128.55 620.34 127.43 618.51 125.11 616.94 122.87 617.04 119.86 618.23 117.11 619.98 115.3 621.63 114.87 622.91 114.61 625.76 114.01 627.32 112.89 628.42 111.51 629.25 108.67 629.99 103.42 630.63 78.45 626.86 81.47 624.66 81.9 621.63 81.3 618.32 81.04 614.92 81.38 613.91 82.84 612.17 83.19 611.43 83.02 610.51 82.33 608.86 82.16 608.13 81.81 596.83 81.73 594.44 82.33 591.78 82.42 590.77 82.16 589.76 80.95 587.92 80.52 587 80.35 584.89 80.44 582.59 80.87 580.39 81.47 578.46 82.07 577.91 84.05 577.45 84.74 576.99 85.17 576.16 85.94 573.87 87.06 572.12 88.7 569.55 90.08 565.88 89.99 562.11 87.75 558.71 86.46 558.07 83.45 557.98 82.07 557.34 81.3 556.14 78.63 550.08 77.25 544.57 76.48 542.73 75.87 542.09 74.41 541.26 74.07 540.89 73.89 540.71 73.55 539.52 73.64 537.13 73.46 536.03 72.09 532.35 71.14 528.59 70.97 524.73 70.62 522.98 69.68 521.24 69.59 521.24 69.5 519.13 69.5 519.03 69.25 517.93 68.56 517.11 67.09 516.19 66.41 516.1 64.51 516.74 63.65 516.83 62.62 516.1 62.19 514.99 61.93 513.89 61.33 513.25 60.03 513.16 54.35 513.34 53.49 513.07 52.89 512.42 52.46 511.69 51.86 511.23 48.16 510.49 42.04 507.46 40.84 506.91 29.91 499.38 27.32 496.9 26.89 496.26 25.34 493.69 23.71 489.09 18.89 485.69 6.49 469.62 8.9 468.43 14.15 468.33 16.48 467.69 18.29 465.4 20.27 459.43 22.25 457.04 24.14 456.12 25.69 455.84 27.15 454.83 28.44 452.26 30.17 446.38 30.6 442.99 30.08 440.6 30.08 440.5 29.13 438.21 27.58 436.37 23.71 433.71 17.17 427.92 16.65 427.74 17.08 424.43 18.63 418 19.06 416.26 19.66 412.31 18.72 410.1 21.99 404.13 23.71 402.57 23.8 402.11 23.88 401.65 23.8 401.1 23.71 400.64 21.82 399.26 20.09 396.79 17.17 389.9 16.65 389.25 16.91 388.7 17.25 388.06 18.03 386.96 19.15 385.95 22.33 384.39 23.71 383.28 25.6 380.44 26.81 379.52 28.53 379.43 30.77 379.79 31.63 379.24 32.32 378.32 34.04 377.22 37.48 376.76 46.95 379.15 50.74 378.32 54.53 376.76 56.08 375.02 56.16 374.83 56.85 373 59.09 365.1 59.86 363.08 60.81 361.7 62.27 360.87 65.72 360.05 67.35 359.4 69.07 357.2 74.32 352.42 75.01 351.14 75.87 348.2 76.56 347 77.59 346.08 79.75 345.17 80.78 344.43 83.28 340.76 85.6 335.43 86.98 329.92 86.72 327.9 86.55 325.97 84.48 325.14 78.28 323.86 76.05 322.48 74.24 320.83 70.97 316.51 67.87 313.66 67.09 312.56 66.75 311.27 66.32 308.34 65.89 306.96 64.34 304.75 55.3 296.21 54.27 295.48 53.58 295.02 51.51 294.19 50.31 294.01 47.9 294.19 46.69 293.73 46 293 45.66 292.72 44.28 289.88 43.34 288.86 42.22 288.59 39.46 288.77 38.09 288.4 36.97 287.58 35.16 285.37 34.3 284.46 30.08 282.62 28.36 281.06 27.15 277.93 24.83 270.22 23.28 267.19 23.19 266.36 23.37 265.54 23.71 264.8 23.88 264.34 23.88 263.88 23.88 263.51 23.71 263.15 23.28 262.6 23.11 261.95 23.28 261.4 23.71 260.76 23.71 260.67 23.71 260.57 23.71 260.48 23.71 260.39 22.76 258.37 22.59 254.6 21.73 252.49 20.44 251.3 16.74 249.37 15.19 247.99 14.07 246.25 13.04 244.23 12.26 242.11 11.66 240 11.66 238.62 12.09 235.87 12 234.58 8.73 230.91 7.1 226.5 7.79 222.92 9.34 219.15 10.54 214.1 10.8 209.14 11.14 208.31 12.43 206.11 12.78 205.47 13.04 202.9 13.12 198.12 13.38 196.1 14.93 193.8 17.77 192.7 21.73 192.06 23.71 191.78 26.46 191.69 27.93 190.04 28.88 187.65 30.34 185.63 32.92 184.71 35.5 184.89 37.74 184.43 39.2 181.95 39.2 180.48 38.34 176.99 38.26 175.43 38.52 173.59 39.81 168.73 39.55 168.64 39.38 168.18 39.2 167.26 39.38 166.25 39.63 166.06 41.7 163.86 43.59 160.92 44.71 159.82 50.14 157.43 77.16 174.79 81.64 176.63 87.41 177.36 89.9 178.46 92.74 179.66 93.95 184.71 91.8 189.76 87.41 192.06 84.65 192.42 79.66 193.99 77.08 194.35 74.5 195.91 73.12 199.59 70.11 211.9 70.19 215.57 71.74 218.69 74.93 221.26 78.8 222.18 95.5 220.81 105.48 219.89 109.27 218.42 113.66 217.5 118.4 215.11 129.76 213.55 149.81 214.56 163.41 221.63 166.94 222.18 168.92 222.55 179.51 220.25 182.27 220.81 189.5 224.75 233.48 235.22 234.69 235.5 256.98 234.49 259.65 234.31 261.89 233.66 268.86 228.7 273.25 227.42 277.55 227.88 297.87 235.04 303.38 236.97 309.32 237.8 335.83 236.05 350.63 241.1 366.99 242.21 372.15 243.4 376.29 245.7 376.72 245.97 381.02 249.09 385.58 251.67 391.09 252.31 393.93 251.67 399.18 249.46 401.08 249.09 401.85 249 407.53 249.28 410.37 249 412.7 247.9 415.11 247.35 417.95 246.16 420.62 244.59 422.6 242.85 424.83 241.29 432.58 241.1 433.36 241.1 438.61 238.9 441.53 234.31 441.79 233.76 445.92 229.71 449.71 227.6 455.65 220.53 456.68 218.14 457.8 216.21 472.95 205.74 473.9 203.26 476.14 200.05 480.78 195.18 485.09 192.97 495.25 190.5 505.14 186.36 507.9 186 518.4 184.53 543.36 181.03 547.58 179.66 550.08 179.38 551.28 179.01 553.78 177.54 555.24 177.18 560.92 177.18 565.4 175.89 577.28 169.28 592.08 167.81 595.35 165.88 604.48 171.21 617.73 173.78 620.4 175.16 623.5 174.88 623.67 174.97 625.74 176.53 625.14 180.21 627.81 183.06 634.86 186.27 636.33 187.56 638.74 191.6 640.12 192.52 664.13 192.33 671.53 190.13 674.37 191.05 676.87 196.01 677.73 197.11 682.64 203.35 690.9 201.43 699.6 196.83 706.57 196.1 709.58 200.78 715.26 219.7 719.48 222.83 745.47 234.03 772.24 238.35 790.41 237.43 790.06 239.63 789.72 259.47 789.98 261.59 791.27 264.43 792.56 266.45 793.42 268.29 793.51 270.68 792.39 274.81 790.41 280.05 788.08 284.46 786.19 286.29 784.9 286.94 779.04 292.17 777.93 293.73 777.24 295.75 777.15 298.6 775.43 296.4 769.75 293.37 768.54 292.45 767.17 290.88 763.98 289.69 758.04 288.59 755.29 289.14 750.55 291.44 748.23 291.89 740.05 291.62 737.38 291.89 732.56 294.56 729.12 299.06 728.6 300.53 721.54 317.8 719.82 320.46 717.67 322.02 709.06 324.23 707.69 325.14 706.83 325.42 705.53 325.42 705.53 326.52 709.92 329.64 710.78 330.93 710.61 332.77 708.2 339.93 706.48 347.74 705.62 349.3 704.5 350.4 703.55 351.5 703.04 353.34 703.21 357.01 705.1 364.45 705.53 367.76 704.85 378.78 705.53 381.17 703.04 383.01 703.04 385.67 703.99 389.16 704.67 393.48 704.67 401.19 704.41 404.23 704.07 405.42 697.62 405.79 690.9 404.59 685.31 404.5 684.01 404.78 683.15 405.69 682.29 407.99 681.86 409.74 682.03 411.2 682.98 412.49 684.88 413.41 681.52 413.96 676.01 416.26 673.25 416.72 670.93 418.64 671.19 422.87 672.57 427.37 673.68 430.13 671.62 429.21 659.91 428.93 656.21 430.86 654.58 434.26 653.72 438.21 652.25 442.25 650.01 441.15 648.81 442.71 648.89 445.1 650.44 446.66 650.01 447.76 649.84 448.59 650.44 451.07 650.79 449.87 650.96 449.69 650.87 449.69 650.44 448.95 651.3 445.65 655.26 449.6 656.56 449.96 658.11 448.59 659.05 446.75 660.34 445.92 662.58 447.85 663.7 446.2 664.73 446.38 665.77 447.3 666.8 447.85 668.52 447.39 669.81 446.66 671.02 446.2 672.82 446.66 672.74 447.49 672.57 447.67 672.31 447.58 671.96 447.85 672.65 450.7 673.94 452.63 675.84 453.09 678.85 451.07 679.11 452.63 679.8 453.45 680.92 453.64 682.29 453.27 682.29 454.47 681.6 454.74 679.62 455.57 680.57 457.22 681.09 457.59 682.29 457.86 681.09 459.43 681 461.63 681.69 463.93 683.15 465.58 684.96 466.31 686.51 466.13 688.06 465.67 690.04 465.58 690.04 466.59 689.26 467.42 689.26 468.33 689.87 469.16 690.99 470.08 687.8 472.56 686.34 475.5 686.94 478.53 690.04 481.01 689.44 481.38 689.44 481.56 689.18 482.2 693.74 485.05 694.43 486.06 695.03 487.25 696.41 488.82 698.13 490.19 699.6 491.02 699.34 491.57 698.99 492.77 698.73 493.32 702.43 495.34 703.38 496.44 705.53 500.94 712.33 505.07 713.2 506.63 714.23 508.11 715.95 508.66 715.43 510.4 716.04 511.87 717.24 513.16 718.53 514.08 718.62 514.9 718.45 515.18 718.1 515.18 717.67 515.36 719.13 516.74 720 518.85 720.17 521.15 719.39 522.98 719.74 524.64 715.26 523.72 713.37 523.08 707.17 523.81 705.45 523.26 702.18 521.7 699.08 520.96 697.87 520.87 695.55 521.24 695.03 521.05 694.52 521.05 694 521.05 693.48 521.24 693.14 522.89 693.14 525.1 692.79 526.66 694.77 527.85 694.43 528.77 692.88 529.41 691.25 529.41 689.52 528.86 682.89 525.46 678.25 525.28 668.52 527.76 668.18 529.32 667.75 530.15 667.06 530.15 666.11 529.41 665.16 530.7 663.87 531.53 661.12 532.44 661.29 532.81 661.63 533.09 662.07 533.27 662.41 533.46 661.98 533.82 661.2 534.19 660.95 534.56 662.67 535.29 660.6 536.12 658.97 535.02 655.95 530.98 654.06 529.41 644.85 524.45 641.84 521.97 639 518.85 633.66 510.95 630.3 507.74 626.26 505.44 621.87 504.43 619.11 504.8 617.48 505.99 614.72 509.57 614.38 510.22 614.29 510.86 613.77 511.04 610.68 510.31 607.92 510.13 606.46 510.31 604.56 508.75 602.41 507.55 600.09 506.91 597.94 506.82 597.76 506.82 594.75 508.29 591.91 513.34 589.5 514.9 587.78 515.64 586.66 517.29 585.63 519.22 584.16 520.87 583.13 521.15 580.72 520.78 579.43 521.24 578.14 522.62 576.93 522.52 575.73 522.16 574.35 522.16 573.06 522.98 571.51 524.18 570.22 525.28 569.19 525.74 567.81 525.37 565.49 523.44 564.28 522.89 562.82 523.35 560.06 525.92 558.77 526.84 556.36 527.12 544.57 525.19 542.33 525.46 540.26 526.84 536.65 530.61 535.7 531.25 534.93 531.99 534.41 533.09 534.67 533.64 536.13 534.56 536.56 535.11 536.39 536.03 535.87 537.5 535.79 538.32 535.7 539.24 535.53 540.43 535.01 543.37 533.98 546.31 532.26 548.52 526.32 550.26 513.32 549.71 508.16 554.12 506.35 557.98 505.92 561.47 506.78 564.68 508.07 566.43" style="fill:#efc441"/></svg>