<svg xmlns="http://www.w3.org/2000/svg" viewBox="0 0 800 800"><path d="M214.62,722.91l2.94,2.94,1.84,4.31.73,4.9.18,4.9-.91,4.7-2.39,2-2.39,1.57L213,751.13h-2l-2-2.94-5.14-3.53L202,740.94l-2,2.15,1.1-2.74.55-2.35-.55-2.55-1.1-2.54h3.67l-1.1-5.49,3.12-2,5-.78ZM324.07,718l-1.29,3.14.74,3.33,1.47,3.13v3.53l-1.84,2.74-9.37,9.21-11.2,4.71-10.28-1.57-9.18-4.9-15.43-13.72L264,721.93l-1.65-6.07,1.47-5.88,3.85-7.05,4.78-6.27,6.42-5.1,16.53-8.82,4.78-1.56,5.5-.59,5.88,1.37,3.67,3.53,2.39,4.5,3.49,9.8,3.12,14.5Zm225.32-31.15.55,1.37.73,1.18.92.78,1.47.59-1.29,4.31L549.94,698l-6.25,4.9,2,2-2.75,4.7-1.65,4.5-2,3.53L535.43,719l-2,.4-4.22,1.17-2,.39-2.21-.39-2.2-1.17-2-.4-8.82-.19-7.52-1-6.8-2.35-7.16-2.75L480,703.12l-4-5.09-.18-9.6-2.94-2.36-4.41-1.37-3.67-2-.18-1.17-1.84-6.66-.73-1.18-1.11-1-.91-1.57-.74-2.35.74-2.35,3.85-7.25.92-2.55-.18-3.92-3.49-10,2.57-.78,1.65-2,.92-2.94.18-3.33.55-3.14,1.29-2.15,1.47-1.37.55-1.57-.92-4.9-2.2-5.68-2.94-4.7-3.12-1.77,1.83-.78,5.51-3.14-4-1.56-1.65-.4,7.53-6.07h2l.18,2.15.37,1.18.55,1.18.55,1.56,5-3.33,4.22,2.75,1.47,5.09-3.3,3.53,3.49,5.29,4.22,3.33,8.81,5.09-2,2.35,4.78,1,2.2,2,4,7.06,8.27,9.6,4.59,3.13,4-.58.92,1.37.36,1,.74.78,1.47.78-.37.4,1.65,1.76,2,1.57.37.19h.73l2.39-.19.73.19.19.79-.37,2.35.18,1,11,21.94.92,1.18.92.2.73.78Zm88.14-84.26,1.65,3.73.37,4.5-.37,8,2.94,16.65-.37,8L637.53,651l-1.29.59L632,652l-1.84.78-.91,1.38L628,657.66l-1.47,1.18-3.67.39-3.49-1.17-5.69-3.34-6.43-4.7-2.94-3.53-1.65-3.72.73-3.53,2.21-3.72.92-3.52-2-3.34,3.67-2.35,1.83-3.92-1.1-3.13-4.4-.39,1.46-4.31,5.7-4.71,3.85-7.25-1.1-.58-.18-.2v-.39l-.55-1,3.67-1.77,3.49-2.15.18.78-.18,3.14,2.39-2,.55-.59.73-1.37,2,2.15-2,1.77,3.86,2,6.06-1.57ZM757.07,367.47l1.11.4,2,2.93,1.1,3.14-1.65,1.57-.74,1.17-.37,2.75-.73,2.74-4.59,3.13-14.69,12.35-9.73,5.68-5,1.57-15.43,1-2.75-.39-2.57-1.38-3.86-3.52-3.12-1-9.73-4.7-3.13-3.14-1.83-6.27.37-5.68,1.46-5.1L686,370.8l3.85-1.56L695,364l-2.94-25.67,2.39-9.21,1.1,2.15,1.1,1.57,3.3,2.55,4.6,2.35,6.79,2.35,6.24.79,2.76-2.55,2-4.51,4.77-1,15.79,4.31,2.94,1.18,2.76,2.15,1.1,2,1.65,5.69,1.1,1.17,4.59,2,.92,5.09ZM385.4,220.32l5.33,4.51,2.75,1.76,1.29-1.17V235.6l-2.94.59-19.1.2-20.57-9.6L341,223.85l-10.47,4.31-3.67,4.9L318.93,248l-2.39,11-2.39-3.53-3.85-11-1.47-2.35-1.84-2-1.47-2.55-.73-3.91v-3.14l-.74-2.15L302.77,227l-2.57-.58-6.06-2-4.41-4.9-1.65-6.66,2.2-6.67,16.34-5.68,1.84.2,3.67,1.56,3.31,2.16,6.24,5.88,3.31,1.76,2.75.2,15.06-2.35,2.57.58,9.73,4.9,2.21.59,22,2Zm305.38,6.08-3.3-22.34-4-8.82-5.51,3.14-1.29-4.31-.36-5.69.91-5.48,2.39-2.94v-2l-3.12-1-1.65-2.74-.74-4.12.19-9.21,5.51-4.51,12.85-8.62,1.47,2.16,5,4.9L700,157l-.36,1.18-1.66,3.52-1.83,2.94.37.79,1.1.59.55,1-.74,17.43.74,5.69,1.28,2,3.49,3.33.74,1.76-.19,3.33-1.28,5.88-.19,2.94-.55,1.57-2.38,2-.92,1.56.18,1.57.55,2.16.74,1.76.36.39-1.83,2.35-1.84,1.18-2.39.78Zm-534-88.77L156,139l2.21,2.74,3.85,2.74,3.86,1.18,1.28,1.57,1.29,3.72.73,4.11L168.9,158l-4.41,3.53-6.43,2.55-7.34,1.37-6.8.59-1.83.58-2.57,2.75-.92.58-2-.19-16.9-7.06-2.75-1.56-2-2.16-1.29-2.94-3.48,2,1.1-6.27,3.12-5.29,3.85-3.53,3.68-1.17,8.44-.2,3.31-1.76L132,135.87l7.53-4.31,1.65-2.16H143l1.65,4.12,2.75-.59L152,129.4l2.76,1.57,2.39,2.75,1.1,2.74ZM122.62,96.49l-2.2,2.94-16.16,8-7.35,8-5.32,7.45L85,127.84,73.22,129.4H63.12l-3.12.79-2.38,1H55.23l-3.31-2.55-.73-3.72V105.3l-3.67-6.85-1.11-.79-4.59-1-1.65-1.17-1.47-5.1L40,86.3l6.61-8,3.67-2.74,4-.59,3.49.39,2.39-.19,2.75-2,6.61-6.66,5-2.35L80.94,60l6.24-1.76,16.34-8.43,4.23-1,3.12,1L114,52.2l6.8-.19,3.85,1,2.57,2.15,1.1,2.16v6.86l1.47,1.17,6.25,2,1.47,1,.91,1.37L142.09,73l.92,2.16-.37,3.13L141,81.2l-9.74,11.17H130l-1.1,1-5,2.16ZM244.55,217.38l6.25,1.18-1.47,4.31-4-.39-3.12-1-.74-3.33Zm-48.47-52.31,6.61,2.54,3.49,4.12,2.75,6.46,5,1.18,3.12-2,3.12,1.18-.37,3.91-4.59,2-5.51.59h-4.59l-2.38-2.55L201,179l-4.95-2.16-3.86-3.72v-4.31Z" style="fill:#efc441"/></svg>