<svg xmlns="http://www.w3.org/2000/svg" viewBox="0 0 800 800"><polygon points="339.28 728.02 321.73 728.02 304.18 728.02 286.62 728.02 285.74 728.02 272.84 728.02 269.07 728.02 261.19 728.02 259.99 727.81 256.29 725.84 255.25 725.58 254.2 725.15 252.72 724.08 251.35 722.8 250.59 721.81 250.47 720.52 250.67 719.2 250.63 718.04 249.95 716.97 250.67 716.24 250.67 715.85 251.11 714.78 251.31 703.12 253.08 694.72 254.12 692.15 254.32 691.12 254.53 683.15 255.13 680.32 256.05 677.71 257.14 675.9 258.38 674.28 259.11 672.56 259.23 670.59 256.98 661.42 255.97 659.96 255.97 659.57 256.53 659.57 256.89 659.49 257.58 659.14 257.58 658.72 256.65 658.8 256.01 658.63 255.53 658.29 255.13 657.86 254.77 657.3 253.2 654.22 248.86 648.34 246.41 646.07 240.71 641.96 241.99 641.66 243.44 640.89 248.26 636.94 249.54 636.43 251.11 636.38 249.26 635.78 247.62 636.47 246.09 637.54 244.52 638.1 240.51 638.49 239.78 638.14 239.5 637.33 239.74 636.47 240.71 635.96 238.98 631.54 236.21 627.43 235.4 625.84 235.04 624.34 236.53 625.88 236.85 626.06 237.17 626.36 237.61 627.73 237.9 628.2 238.66 628.58 239.66 628.71 241.91 628.67 241.31 628.33 239.46 627.77 238.9 627.43 238.66 627.17 238.5 626.83 238.1 626.27 237.61 624.98 237.77 623.4 238.46 621.9 239.46 620.91 241.71 623.01 242.92 623.31 243.52 621.77 245.49 622.84 246.25 623.44 246.73 624.34 247.05 623.7 247.05 623.01 246.81 622.41 246.33 621.77 246.53 621.77 247.13 621.77 244.4 620.74 243.12 619.93 242.72 618.73 243.48 617.91 244.97 617.36 246.65 617.05 247.9 617.01 247.9 616.75 247.82 616.58 247.54 616.15 247.66 616.11 247.82 616.11 247.9 616.03 247.9 615.73 242.03 616.8 240.26 616.58 239.34 615.51 239.62 613.93 240.59 612.51 241.71 611.87 242.68 610.92 245.21 606.81 246.93 605.87 247.17 605.52 247.46 604.88 247.29 604.54 246.33 604.97 245.25 605.83 244.76 606.42 244.32 607.15 243.92 607.15 243.92 605.87 242.88 606.73 240.95 609.81 239.9 611.05 238.62 611.74 237.01 612.21 235.85 612 235.85 610.58 235.04 611.44 233.92 610.8 232.87 609.64 232.27 608.18 232.63 606.73 231.79 605.78 231.11 606.04 229.46 608.01 229.62 608.23 229.86 608.57 230.34 608.78 230.87 608.91 231.47 609.3 231.51 609.55 232.11 611.05 232.79 611.83 233.76 612.64 234.28 613.71 233.44 614.91 232.63 614.53 232.19 614.44 231.79 614.27 231.03 613.63 230.26 612.3 229.94 612.04 229.66 611.87 229.5 611.61 229.46 611.05 228.74 611.14 228.21 611.35 227.89 611.83 227.81 612.51 229.38 613.54 229.82 614.05 229.94 614.78 229.82 615.34 229.58 615.94 229.46 616.8 229.62 617.31 230.54 617.83 231.03 618.3 230.26 618.68 229.34 618.94 227.21 619.15 226.13 619.03 224.12 618.47 223.19 618.3 221.43 617.4 220.78 615.25 221.06 612.94 222.15 611.44 222.15 611.05 220.7 611.4 220.06 612.42 219.7 613.54 217.73 615.51 215.96 615.17 215.4 615.3 215.4 614.14 215.52 613.24 215.4 612.51 214.56 611.87 213.87 611.74 212.79 611.74 211.74 611.87 211.18 612.08 210.26 611.91 207.13 609.81 202.06 607.24 201.34 606.73 201.22 604.97 202.34 601.2 202.5 599.39 200.7 597.64 199.29 595.5 198.29 593.09 196.84 584.14 197.16 582.59 198.69 579.81 199.25 578.35 197.97 579.89 197.2 580.32 196.84 579.42 197 578.65 197.24 577.88 197.4 577.06 197.24 576.21 196.8 575.74 195.52 575.26 195.03 574.24 194.59 573.51 194.03 572.91 193.63 572.74 193.39 573.55 195.19 576.51 195.6 577.92 195.28 578.86 194.75 579.12 194.27 578.69 194.03 577.71 191.22 575.35 191.18 576.12 191.26 576.81 191.54 577.28 192.06 577.53 191.26 579.04 191.02 579.25 190.62 579.08 189.45 578.35 189.21 578.14 188.77 577.58 187.8 577.19 186.84 576.63 186.4 575.56 185.75 573.21 183.14 569.22 182.78 566.73 181.82 568.32 182.22 570.12 183.1 572.01 184.59 577.84 185.11 578.35 185.79 578.69 186.4 579.25 186.76 580.84 185.51 581.61 178.2 582.21 177.52 581.87 177.8 581.05 178.52 580.19 179.17 579.64 178.48 579.25 177.84 579.25 177.36 579.59 177 580.92 176.52 581.18 175.87 581.14 175.19 580.92 174.27 579.98 173.99 578.48 174.27 577.36 175.19 577.53 175.47 576.72 176.76 574.49 175.95 575.09 175.19 575.13 174.63 574.58 174.35 573.59 174.47 572.74 174.91 571.88 175.95 570.63 177.64 569.39 178 568.88 178 568.11 177.76 567.33 177.64 566.61 178 565.83 178.36 566.31 178.16 563.82 178.28 562.58 178.97 562.02 179.21 561.89 179.25 561.89 180.25 560.86 180.05 559.96 179.89 559.11 179.69 557.73 180.21 556.79 181.82 555.5 182.14 554.39 184.47 550.49 185.35 549.16 185.88 547.96 186.76 545.22 187.12 544.36 188.25 542.52 188.85 541.83 189.49 541.53 190.17 541.4 190.82 541.1 191.22 540.29 192.78 531.76 192.74 531.07 192.26 529.57 192.18 528.72 192.54 527.22 193.83 524.56 194.19 523.14 194.19 521.82 193.99 520.61 193.87 519.37 194.27 518.04 195.11 516.8 196.24 515.68 197.12 514.44 197.4 512.94 196.8 511.27 195.68 510.03 194.39 508.96 193.19 507.71 192.42 506.13 192.87 505.23 193.91 504.41 194.95 503.04 195.19 501.5 194.67 500.38 194.07 499.4 193.95 498.11 194.55 497.08 196.64 495.58 197.44 494.51 198.45 493.48 199.69 493.7 200.98 494.17 202.02 494.04 202.22 493.23 202.34 491.43 202.67 491 203.59 490.48 204.35 489.63 205.6 487.7 211.02 481.69 219.06 474.75 220.58 472.52 222.23 468.75 223.03 467.76 223.84 467.29 224.52 467.21 225.28 467.29 226.21 467.21 227.85 466.18 229.62 462.49 231.35 461.34 231.71 461.21 234.04 460.26 235.24 459.62 236.17 458.68 237.53 455.89 238.42 455.12 240.14 454.74 240.87 454.74 242.96 454.74 243.68 454.09 243.76 453.92 248.22 438.88 249.3 437.55 250.71 437.63 251.83 438.23 252.96 438.58 254.37 437.98 268.7 424.99 270.11 424.13 270.92 424.3 271.4 425.33 272.24 429.96 272.84 431.2 274.09 432.23 275.69 432.75 290.8 432.49 290.84 431.07 291.08 430.09 291.56 429.27 292.29 428.2 292.65 427.95 293.01 427.86 293.25 427.65 293.61 422.8 294.09 420.44 294.82 418.17 295.66 416.37 296.74 417.87 297.06 420.96 298.11 421.86 299.68 422.42 303.77 424.73 308.59 426.66 310.52 428.07 311.49 430.56 312.01 433.43 313.21 436.18 315.06 438.19 320.56 439.26 322.53 440.93 323.66 443.46 323.86 446.46 323.78 448.95 323.94 451.44 324.94 456.28 326.11 459.28 327.07 460.22 328.64 460.44 332.25 460.05 333.98 459.84 334.3 459.96 334.94 460.39 335.39 460.48 335.75 460.31 336.35 459.71 336.59 459.58 337.24 459.62 338.48 459.96 339.12 460.01 340.61 459.66 342.1 458.85 343.26 457.69 343.62 456.28 343.98 453.66 344.87 451.56 346.39 450.19 348.72 449.98 350.29 448.99 351.7 446.93 353.38 442.69 353.79 441.02 353.94 439.35 353.62 438.19 352.34 436.65 351.98 435.7 352.3 434.03 353.34 432.4 356.96 428.89 360.37 426.62 360.57 426.27 360.77 425.46 361.01 425.16 361.3 425.07 361.9 425.12 362.58 424.99 363.47 424.95 363.87 424.77 364.23 424.3 364.31 423.66 364.51 423.1 365.35 422.5 367.84 420.1 368.53 419.67 369.33 419.42 369.97 419.46 370.5 419.72 371.02 419.89 371.58 419.63 372.1 418.22 371.38 416.63 369.09 413.97 366.2 409.47 365.35 408.7 363.95 408.4 363.63 408.06 364.07 407.5 365.15 406.64 366.32 405.44 369.97 399.66 373.43 396.06 377.08 392.24 378.65 389.76 379.57 389.07 380.3 388.34 380.54 387.06 379.69 383.37 379.61 382.04 379.77 380.67 380.18 379.38 382.31 375.27 388.13 366.61 390.34 364.12 390.7 363.22 390.54 362.19 390.1 360.65 389.78 358.21 389.78 355.77 390.14 354.22 392.51 350.58 392.79 349.76 392.95 349.25 393.03 348.01 392.11 342.91 391.95 340.04 392.39 337.29 393.75 335.28 395.04 334.68 397.29 335.11 398.53 334.94 399.22 334.38 399.7 333.65 400.06 332.88 400.5 332.24 402.27 330.95 402.79 330.35 402.75 328.63 402.59 327.73 401.19 324.13 400.7 323.23 402.35 323.79 403.15 323.92 404 323.83 404.92 323.4 405.6 322.89 406.33 322.5 407.37 322.38 408.18 322.59 410.06 323.53 410.91 323.7 411.83 323.49 417.81 320.11 418.86 318.86 419.74 316.85 420.27 315.05 420.67 314.32 421.35 313.98 422.19 314.02 422.92 314.15 423.64 314.15 424.44 313.8 425.69 311.92 426.37 309.22 427.7 297.35 427.25 295.03 427.34 292.5 428.5 289.5 431.19 284.27 431.55 283.2 431.79 282.04 431.83 279.51 431.39 277.63 430.79 276.34 429.14 276.08 428.86 275.87 429.26 274.71 429.67 274.41 433.12 272.7 433.6 272.31 434.25 271.63 435.93 269.31 436.74 268.63 440.79 266.74 445.41 265.97 449.23 264.34 450.88 259.88 451.16 255.77 451.92 251.53 452.48 250.03 453.04 248.95 453.2 247.97 452.56 246.55 450.83 244.67 450.23 243.64 450.15 242.22 450.59 240.94 451.96 238.62 452.2 237.12 452 235.88 451.28 233.82 451.28 232.58 452.32 230.39 454.25 229.62 458.87 229.06 459.95 228.55 460.8 228.04 461.36 227.69 462.61 226.66 463.29 225.72 464.21 223.58 464.33 222.76 464.25 221.99 463.85 220.71 463.85 219.89 465.18 215.99 467.18 204.03 469.39 196.1 471 192.46 481.44 176.52 481.77 175.79 482.17 174.76 481.81 172.36 482.05 171.07 482.69 170 483.65 169.1 485.86 167.73 486.59 166.74 487.59 164.26 489 161.6 490.92 158.94 493.13 156.54 495.42 154.61 497.23 154.61 499.52 155.34 503.62 157.19 504.86 157.4 506.15 157.01 507.39 156.33 508.44 155.51 510.05 153.71 510.77 153.41 512.38 153.2 512.82 152.99 518.04 147.84 519.16 147.2 522.62 146.04 523.86 145.27 526.03 143.21 527.24 142.4 530.29 141.24 531.29 140.64 531.98 139.48 532.62 137.98 533.06 136.4 533.26 135.07 533.26 133.48 532.9 132.2 532.26 131.13 531.29 130.1 530.97 129.67 530.77 129.2 530.53 128.81 530.09 128.51 529.09 128.55 528.84 128.43 528.32 127.65 528.24 127.14 528.52 126.58 530.65 123.54 531.09 122.47 532.34 116 533.02 113.98 533.26 111.88 533.22 111.41 533.14 110.72 532.02 107.98 531.9 106.78 532.94 106.05 532.82 105.36 533.83 100.82 534.19 100.05 534.47 99.71 534.63 99.28 535.75 98.08 535.67 97.39 535.39 96.79 534.67 96.41 534.19 96.58 533.38 97.05 532.62 97.35 532.26 97.05 531.9 95.72 530.97 94.91 529.77 94.22 528.64 93.36 529.21 93.02 529.45 92.94 529.45 92.46 528.8 92.16 527.04 90.75 526.63 90.32 526.51 89.72 526.8 88.78 526.63 88.13 525.03 87.23 521.25 86.25 509.2 85.86 508.32 85.65 507.51 85.18 506.99 84.19 506.95 83.46 507.31 81.49 507.31 80.29 507.03 79.26 506.91 78.92 506.83 74.03 503.54 57.1 500.24 40.13 520.97 39.96 521.98 40.64 524.67 45.1 524.75 45.19 525.55 46.13 526.07 47.07 526.23 48.14 526.15 49.43 525.23 52.34 525.19 53.16 525.79 54.1 527.6 55.56 528.64 56.67 528.64 59.07 528.76 59.67 529 59.93 529.33 59.97 529.85 59.8 529.85 60.4 529.93 61 530.21 61.34 530.77 61.26 531.9 60.36 532.26 60.23 532.74 60.45 532.86 60.79 532.86 61.17 533.06 61.56 534.11 62.24 534.47 62.59 535.43 63.19 537.16 62.72 538.08 63.06 538.49 64.09 537.64 66.19 538.33 67.22 539.21 65.67 539.53 65.46 540.05 65.67 540.57 66.19 540.98 66.83 541.14 67.43 541.58 68.46 542.58 68.59 544.51 68.12 545.19 69.4 547.12 77.2 546.92 77.55 546.44 78.53 546.32 78.96 546.28 79.65 546.4 79.78 546.64 79.82 547.12 80.29 547 79.99 547.24 79.95 547.64 80.08 547.92 80.29 548 80.55 547.88 81.28 547.92 81.53 548.73 83.12 549.73 87.92 549.61 88.48 549.53 92.94 549.45 93.71 549.13 94.78 549.13 95.51 549.29 95.98 549.61 96.28 549.85 96.62 549.93 97.26 549.69 97.69 549.25 97.78 548.97 98.08 549.13 98.98 549.45 99.45 550.94 100.52 552.22 102.15 553.07 102.84 553.75 102.71 554.75 101.94 555.8 101.81 556.92 102.28 558.01 103.31 557.73 103.74 557.53 104.42 557.49 105.15 557.81 105.75 558.25 106.27 558.29 106.69 558.13 107.17 558.01 107.94 558.61 108.88 559.62 109.78 559.9 110.51 558.21 110.77 557.97 111.07 558.09 111.71 558.37 112.35 558.61 112.69 558.85 113.29 558.45 113.89 557.89 114.41 557.61 114.88 557.73 116.51 558.13 117.5 558.81 118.01 559.82 118.14 560.18 118.82 561.62 122.47 561.3 123.11 560.34 124.1 560.02 124.7 560.14 124.95 560.74 125.6 560.82 125.98 560.58 126.28 560.18 126.32 559.82 126.32 559.57 126.37 559.13 127.74 559.01 128.98 559.21 130.22 560.14 133.1 560.74 134.21 562.39 136.44 563.07 138.5 562.31 140.21 559.57 143.38 559.05 144.54 558.69 145.74 558.33 149.04 558.01 150.03 558.01 150.76 558.21 151.23 558.53 151.53 558.77 151.83 558.81 152.47 558.45 153.54 557.08 155.64 556.76 156.63 556.36 160.57 556.8 167.04 557.2 172.49 558.77 176.52 559.37 177.46 559.77 178.57 559.57 180.16 558.81 182.86 558.97 185.22 563.47 194.47 563.91 196.02 563.83 197 563.23 198.12 562.91 199.66 562.87 201.21 563.23 202.41 563.59 202.75 564.15 203.05 564.8 203.22 565.44 203.31 566.08 203.43 566.48 203.73 566.76 204.03 567.93 204.59 568.45 205.71 569.29 208.06 570.14 209.05 570.9 209.73 571.47 210.51 571.66 211.75 571.79 213.34 572.19 214.62 572.83 215.69 580.9 223.71 583.07 227.05 583.92 227.56 583.88 227.82 586.57 230.35 590.5 232.84 592.55 233.52 595.08 235.97 594.08 236.31 580.9 239.74 577.61 239.82 567.73 236.44 564.23 236.27 561.54 236.61 561.02 236.78 560.38 237.17 559.33 238.19 558.73 238.62 557.04 239.05 555.28 238.88 551.86 238.02 549.13 237.94 541.78 240.38 539.41 240.25 522.3 235.71 507.96 236.74 507.11 236.82 506.63 237 506.47 237.47 506.47 238.11 506.31 238.75 503.46 244.8 501.65 247.45 496.83 251.91 493.25 257.4 493.38 258.34 498.6 262.67 515.31 283.24 515.87 285.94 516.95 287.96 530.01 299.19 543.02 310.38 543.95 310.68 544.51 310.5 545.03 310.38 545.55 310.42 546.08 310.55 546.92 311.02 549.21 312.86 549.73 313.42 550.05 314.23 550.42 314.53 550.86 314.7 551.26 315.05 551.62 315.65 552.14 317.28 552.26 318.05 552.26 318.61 552.5 319.03 553.27 319.29 555.48 319.63 556.96 320.15 558.17 321.09 559.13 322.33 561.62 326.66 565 330.22 565.92 331.46 567.49 335.06 575.4 353.11 578.98 366.61 580.99 371.8 583.76 373.94 585 374.02 586.85 374.45 588.17 374.75 588.1 381.18 587.33 384.91 585.76 388.34 583.36 391.69 582.91 392.58 579.74 397.13 579.5 398.16 580.66 399.27 580.5 400.09 580.26 400.17 579.18 400.21 578.77 400.3 578.45 400.64 577.97 401.71 577.73 402.06 574.96 404.33 570.46 407.03 569.58 407.84 568.25 409.04 567.17 412 566.36 413.46 566.08 414.14 566 414.75 566.28 418.39 566.12 419.03 565.64 419.67 564.27 420.36 563.75 420.75 563.11 421.77 562.71 422.97 561.78 426.83 559.82 432.27 558.57 434.93 557.61 437.81 557.16 438.66 556.44 439.31 552.91 441.19 551.94 441.88 551.18 442.86 550.54 444.36 543.83 460.61 542.34 462.75 542.22 463.48 542.46 464.94 542.5 465.62 542.34 466.35 541.74 467.51 539.57 470.51 538.65 471.28 530.25 475.57 527.84 475.57 527.32 476.55 526.43 477.75 524.75 479.51 523.86 479.81 522.5 481.18 521.69 481.95 521.77 482.17 521.82 482.51 521.89 482.85 521.61 483.45 521.45 483.75 521.25 484.27 520.97 484.52 520.69 484.52 520.05 484.05 519.77 484.1 519.32 484.61 519.16 485.04 519.28 485.55 519.77 486.28 520.29 486.8 520.93 487.65 521.82 488.43 522.66 489.37 523.06 490.4 523.34 491.51 523.78 492.5 524.75 493.18 525.75 493.18 527.56 493.4 528.44 493.31 530.05 492.28 530.77 492.32 531.54 493.57 531.82 494.81 532.66 495.97 533.06 502.7 533.46 503.94 533.06 504.88 532.26 508.27 531.21 511.14 531.05 512.09 531.13 513.2 531.46 514.06 532.26 515.56 532.66 516.54 532.74 517.31 532.66 519.2 532.46 519.84 531.62 521.64 531.41 522.67 531.5 524.47 531.21 525.2 530.45 525.46 530.45 525.97 529.93 527 529.37 527.99 529.04 528.24 528.97 529.06 528.6 530.17 528.12 531.24 527.44 531.89 526.96 532.06 527.2 532.74 528.12 533.86 529.33 534.67 531.86 535.57 533.1 536.22 534.03 537.25 534.67 538.53 535.11 539.99 535.35 541.4 535.35 544.57 535.59 546.98 535.19 549.29 535.19 549.59 535.15 550.49 535.39 551.17 535.75 551.73 536.03 552.33 535.87 554 536.12 554.65 536.44 555.25 536.76 556.02 537.6 561.93 537.56 562.58 537.28 564.12 537.04 564.8 536.96 565.23 537.36 566.31 537.76 571.06 538.52 574.02 540.09 576.68 542.18 578.86 551.5 585.68 554.07 586.66 554.75 587.14 555.16 587.74 555.56 589.37 555.96 590.18 557.97 592.88 558.85 594.64 559.41 596.35 559.98 600.17 560.1 603.72 560.46 605.4 561.14 606 562.02 605.87 562.91 606.25 563.31 607.11 563.47 608.01 563.83 608.4 564.64 608.4 565.56 608.57 566.24 609.08 566.4 609.77 565.24 610.28 563.95 610.63 561.66 611.78 560.5 612.04 559.53 611.91 557.65 611.4 556.64 611.4 560.1 620.18 565.16 628.16 569.94 633.56 570.5 634.2 574.48 638.7 579.42 644.27 585.52 651.17 591.31 657.77 596.81 663.99 601.23 668.96 601.67 669.26 602.11 669.39 602.88 669.52 603.12 669.48 603.76 669.05 604.08 668.92 604.44 669 605.05 669.43 605.29 669.52 607.82 669.26 608.74 669.6 609.91 670.59 610.87 671.92 611.35 673.12 612.16 676.29 612.28 676.63 612.52 676.93 612.76 677.19 613.52 676.89 614.16 676.72 614.73 676.76 615.33 677.06 615.81 677.58 617.06 679.5 617.94 681.61 618.66 682.89 619.23 684.3 619.39 685.98 618.9 687.43 617.34 689.15 617.1 690.78 617.34 692.92 617.3 693.78 617.5 694.34 618.1 694.34 618.87 694.21 619.63 694.29 620.27 694.46 619.75 695.28 619.31 696.22 619.11 696.91 619.27 698.19 620.19 700.38 620.35 701.66 620.07 702.87 619.15 705.01 619.11 706.42 619.35 707.24 620.07 708.69 620.35 709.81 620.35 712.17 620.43 712.68 620.91 713.97 621.64 715.55 622.76 716.88 623.16 717.52 623.36 718.08 623.48 718.68 623.57 719.92 623.73 720.22 624.53 720.78 624.77 721 624.77 721.51 624.45 722.32 624.37 722.92 625.13 723.4 625.33 723.57 625.69 723.87 626.01 724.42 625.49 725.11 623.16 727 622.08 725.88 620.87 725.67 619.95 726.27 619.55 727.64 618.83 729.05 618.7 729.74 618.83 730.55 619.07 731.11 619.23 731.71 619.11 732.57 618.99 732.65 618.74 732.65 618.46 732.74 618.3 733 618.22 733.38 618.22 733.64 618.26 733.81 618.3 733.85 618.38 734.41 618.58 734.88 618.58 735.44 617.7 736.81 617.54 737.41 617.62 739.73 617.82 740.03 618.22 740.24 618.7 740.71 619.75 742.6 621.72 748.08 623.12 754.99 622.96 755.97 622.32 756.27 621.07 755.84 620.55 755.97 617.9 760.04 615.61 756.83 615.09 755.76 615.09 755.11 615.25 754.51 615.37 753.91 615.09 753.18 614.61 752.71 613.96 752.41 613.28 752.41 612.68 752.76 611.63 752.33 610.51 752.07 609.63 751.6 609.47 750.61 608.82 751 608.06 751.3 607.34 751.34 607.05 750.83 606.89 749.88 606.49 749.41 605.93 749.11 604.52 748.17 602.96 747.57 602.24 747.14 599.99 744.1 599.58 743.84 598.22 743.63 597.45 743.28 596.85 742.94 596.61 742.64 591.03 742 586.05 740.41 583.48 739.9 580.9 740.28 577.89 742.17 576.73 742.6 575.6 743.2 574.92 743.33 574.96 743.15 573.55 742.51 573.27 742.47 572.83 741.91 572.75 741.65 572.83 741.31 572.91 740.5 572.79 740.03 572.47 739.55 571.99 739.17 570.02 738.36 569.7 738.18 569.46 737.75 569.13 736.81 568.85 736.43 567.61 735.91 566.68 736.21 565.88 736.55 564.03 735.83 563.27 737.67 562.39 737.33 562.02 737.33 561.42 738.36 560.5 739.38 559.53 739.68 558.81 738.57 557.69 738.96 556.76 738.7 553.99 736.3 553.43 736.21 552.95 737.75 552.42 738.01 551.14 738.18 548.81 737.97 549.05 736.47 549.69 734.71 548.53 733.85 548.37 733.25 547.56 732.01 546.72 731.11 546.32 731.5 546.32 732.27 546.2 733.04 545.8 733.64 544.91 733.85 541.34 734.28 541.14 733.98 541.18 732.61 541.14 732.14 540.82 732.14 540.29 732.31 539.69 732.35 539.13 732.14 539.49 732.01 540.33 731.28 538.73 730.38 538.33 730.64 538.73 732.14 537.84 731.8 536.68 730.51 535.87 729.95 534.35 730.04 533.78 729.74 534.27 728.71 532.86 728.07 530.93 725.75 529.45 725.33 529.13 725.71 528.6 726.27 528.6 726.83 528.72 727.42 528.56 727.94 528 728.15 523.38 729.23 522.18 730 521.86 730.13 521.01 729.91 519.89 728.8 518.96 728.24 515.23 727.68 512.66 728.75 512.09 728.84 505.95 728.8 496.59 728.71 486.1 728.58 476.62 728.5 474.17 728.5 465.13 728.41 455.05 728.28 455.01 726.74 455.25 724.85 455.01 723.95 454.45 723.22 453.57 722.37 452.68 721.68 452 721.38 451.6 721.47 450.75 721.85 450.23 721.85 449.83 721.68 449.03 721 447.38 720.65 445.57 720.57 445.09 720.78 444.41 721.3 443.2 722.5 442.64 722.75 440.15 723.1 438.5 722.32 437.58 722.11 436.77 722.5 436.13 722.71 435.09 722.54 433.36 721.85 432.76 722.45 432.08 722.71 431.31 722.62 430.51 722.28 429.99 723.05 428.86 722.75 427.5 722.15 426.49 721.85 425.77 722.2 425.09 722.75 424.28 723.31 423.08 723.57 415.12 722.28 413.76 721.72 412.79 721 411.43 721.34 410.42 721 407.13 719.84 404.88 719.67 401.67 720.48 400.58 720.27 398.69 718.98 397.93 718.72 397.41 718.77 396.16 719.5 395.56 719.67 394.4 719.84 392.15 720.65 390.98 720.87 388.41 720.74 386.04 720.35 385 720.31 381.54 720.61 377.08 720.31 372.62 720.7 367.48 720.52 365.47 720.82 364.55 720.74 361.54 719.67 360.37 718.64 359.77 718.29 358.97 718.17 358.2 718.38 356.68 718.94 341.01 719.54 340.93 720.14 341.17 720.95 341.29 721.77 340.93 722.67 340.49 723.31 340.09 724.04 340.01 725.07 340.01 725.84 339.89 726.61 339.69 727.34 339.28 728.02" style="fill:#efc441"/></svg>