<?xml version="1.0" encoding="UTF-8"?><svg id="Cayman_Isalnds_" xmlns="http://www.w3.org/2000/svg" viewBox="0 0 720 540"><path d="M88.51,351.31l-.47-.49h-.32l-.14,.19v.32l.14,.15h.63l.15-.17Zm-21.06-31.24l.48-.51-.16-.16h-.93l-.16,.16v.34l.13,.17h.63Zm100.65,19.02l-.63-1.33,.02-1.64-1.12-1.51h-.32l-1.22-.63-.66-1-1.54-1h-1.25l-.31,.34-5.94-.02-.29-.32h-1.27s-.29-.31-.29-.31h-1.56l-.32-.34h-1.56l-1.25,.98h-5.31l-.61-.34-.31,.34h-1.57l-.31,.34h-.93s-2.19,.98-2.19,.98h-1.25s-1.25,.67-1.25,.67h-2.81l-.31,.32h-4.98l-.32-.32h-.62s-.3-.33-.3-.33h-.63l-1.25-.98h-.63l-.31-.34h-1.25l-.31-.34h-.93l-.61-.32-.31,.32h-1.25s-.32,.35-.32,.35h-.6l-.96,.64h-.61l-1.26,.66h-2.81l-.32-.32h-.61l-1.85-1.31h-.63l-1.88-1.67h-.32l-.6-.66h-.64s-2.79-2.66-2.79-2.66l-.48-.16-.15-.51h-.32l-.93-.97h-.63l-1.25-1.35h-.61l-.48,.51-.62,2.29,.48,.53,.31-.68,.48,.15-.95,1.67-.94,1v.32s-1.26,.98-1.26,.98v.68l1.71,.16,.48-.5,.6-1.64,.79-.82,.46,.16-.29,.98,.29,.68,.32,.32v2.29l-1.56,1.67,.16,.85h.61l1.27-.66,.93,1.63h.63l.61-1.64h.95l.14,1.16-.61,.66,.3,3.31-.29,.32v.68l.93,.64-.02,1-.46,.16-.63,1h-.61l-.63-1h-2.5s-.16-1.16-.16-1.16l-.77-.5-.16,1.16-1.43,1.51-.93,.64h-.93l-.32-.32-.29,.32h-.96l-1.08-.82,.92-1.67,.02-1,.29-.32-.16-.82h-.61l-.64,.66-.63-.34h-.93l-.63,.34-.14,.83,.32,.32-.02,5.3-.64,.32-.29,1.34-.63,.32v.98s1.09,.18,1.09,.18l.93-1.32h.32l.46,.47v.68l-.31,.66-.77,.48-.31,.34h-1.25l-1.56,.98h-.31l-.63-.97h-.94l-1.87,2.3-1.25,.32-1.24,1-.95,.32-.32-.32h-.93l-.31-.34h-2.17s-.32,.35-.32,.35h-.6l-.48-.85-.77-.49-.96,1.32-1.24,.32-.93,.68-.19-.84-.77-1.16h-.32l-1.85-1.97-1.73-.51,.31-.66v-1l-.93-.97v-.34l-.48-.47h-.93l-.8-.85v-.31l.96-.67v-.68l-.78-1.48-.62,.32-.48-.15,.31-2.65,.63-.34v-.98s1.24-.32,1.24-.32l.31-1.99,.31-.34v-2.64l-.94-1.32-.63-1.66-1.54-1.97-.63-1.67-.46-.5h-.63l-.61,.66-.47-.16,.93-1v-.98s-.94-1.32-.94-1.32l-.61-1.32v-.65l-.64-.68v-.64l.79-1.17,.63-.34h2.17l.32,.34,2.2,.33,.29,.32,1.09-.16-.3-1.31-.48-.19-.61-.98h-.31s-1.25-1.31-1.25-1.31h-.64l-1.86-.99-1.56-1.33-.64-.02-.32-.32h-1.24s-.32-.31-.32-.31l-2.17,.64-1.85,1h-.66l-1.56,.99h-.61l-.29,.32h-.63l-.63,.69-1.25,.64h-.61l-1.1,1.17-.64,1.32v.66s-.6,1-.6,1l-.02,1.63,1.11,.85h1.88s.29,.31,.29,.31h.61l.63-.32,1.25,.65h.95l.61,.34,1.25,.98h.61l2.36,2.49,.61,.98v.66l.63,1.32v.66l.94,1.66v1l.29,.32,.32,2.33-.31,.32v2.32l-.31,.34v.66l-.64,.98v2.33s.32,.32,.32,.32l-.62,1-.3,.32v2.33s.63,.99,.63,.99l.32,1.64,.29,.34v1.32l-.31,.32v.68l-1.87,1.98v.32l-1.87,3.31v.66l.61,1.31v.66l.32,.34-.31,.32v1.32l.79,.84,1.25,.34,.93,.64h1.88s1.87-1.31,1.87-1.31h.61l1.87-.98h.63l1.87-1.01,.61-.66h.64l.93-.66h.63l.31-.32h.94l.31-.34h2.49s.17,1.16,.17,1.16l.61,.66v.34l.79,.82h.61l.95-.66,1.85,.33,.32,.34,.31-.34h5.62s.31,.33,.31,.33h.63l1.23,.66h.34l1.55,1.65,3.12-.32,.63,.66,1.25,.65h2.8l.32-.32h2.81l.31-.34h1.85s2.52-1.31,2.52-1.31h.63l1.25-1.32h.31l.15-.5,.46-.16,4.38-4.31,.46-.15,.16-.51,1.25-.66,1.27-.32,.14-.51,.79-.47,1.24-.68,2.52-.66,.29-.32h.95l1.25-.66,3.73,.33,.93,.66h.95l.32,.32,2.18-.98,3.75-1.98h1.25s.31-.33,.31-.33h4.06l1.56,1,1.25,1.32,1.24,.31,.32,.34,2.49-.34,.32,.34h1.56l.93,.66h2.51l.32-.32h6.85s.29-.35,.29-.35h1.27l3.12-1.64,1.25-.34,.14-.47,.63-.34v-.34l2.81-2.97,1.87-3.99v-.97l.63-1.32v-1.32l-.32-.66,.32-.34v-.98l.29-.34-.29-.34v-.64Zm-67.42,3.31v.32l.16,.15h.63l.13-.15,.02-.98-.15-.16-.95-.02-.14,.51,.3,.34ZM677.21,173h-.93l-.32-.33h-1.88s-.29-.33-.29-.33l-.64,.02-.63-.67-3.1-.02-.32,.34h-.94s-.29,.33-.29,.33l-2.84,.32-.91,.68h-.64s-2.81,2.64-2.81,2.64h-.3l-1.57,1.68-.94,.33-1.26,.97h-.6l-.63,.68-2.18,.65-.32,.33h-.64l-.29,.34h-1.25s-.32,.33-.32,.33h-1.25s-.32,.33-.32,.33h-1.54s-.32,.33-.32,.33h-.93s-1.26,.66-1.26,.66l-2.17,.33-.94,.67-1.57,.97-.3,.69h-.32s-2.81,2.64-2.81,2.64l-4.37,2.98-1.24,.65h-.63l-.31,.34-2.8,.32-.32,.34h-.94s-1.23,.66-1.23,.66l-1.86,.33-1.89,.99-.61,.66-.96,.33-.92,.65-.32,.66-.31,.02-1.56,1.32h-.6s-.65,.65-.65,.65h-.63l-.91,1.02-.48,.15v1.33l.47,.51,3.75-.34,.32-.34h1.25s.29-.33,.29-.33h1.88s.3-.33,.3-.33h3.13l.31-.34h.94s.32-.33,.32-.33l.6,.35,.32-.34h.96l.29-.33,1.25-.34,1.55-1.32,1.9-.32,1.25-.65,2.8-.35,.61-.65h.63l1.55-.99h.63s.93-.67,.93-.67l1.25-.33,1.26-.65,.61-.66,1.56-.33,.93-.67h.63l.3-.33,2.19-.33,.31-.34,2.18-.32,1.25-.65,3.43-.66,.32-.34,2.5-.32,1.23-.65,.96-.02,1.55-.65h.93s.32-.33,.32-.33h.96s1.23-1.01,1.23-1.01l.94-.31,1.55-1.66h.32l.94-1.02,.48-.15,.16-.51h.3l2.81-2.64h.31l1.72-1.84,.31-.98,.63-.67,.31-1.99-.79-.83Zm-89.25,18.24h-.32l-1.55-1.34-1.57-.33-.29-.34-1.27,.02-.29-.32h-.93s-.31,.33-.31,.33h-.93s-1.25,.65-1.25,.65h-1.25s-.65,.64-.65,.64l-1.54,.34-1.87,1-1.89,.33-.29,.33h-1.57l-.31,.33h-.93l-.32,.34h-1.22s-.32,.33-.32,.33l-3.13,.32-.3,.34h-1.27s-.29-.35-.29-.35l-3.45,.03-.29,.31-1.25,.02-.32,.32h-1.56s-.32,.33-.32,.33h-.61s-.94,.65-.94,.65h-1.25s-.29,.33-.29,.33h-.96s-1.25,.67-1.25,.67h-.61s-.77,.81-.77,.81l-.64,1.69-1.07,1.16-1.89,.97-1.55,.33-.31,.34-2.18,.65-.63,.67h-.61l-.62,.66-.95,.33-1.87,.99-1.09,1.16-.61,1.32-1.42,.84-.78,1.16v1.33l.79,.83h2.79s.32-.33,.32-.33h3.42l1.27,.64h1.56s.3-.33,.3-.33h.64l2.49-1.65,1.24-.99,1.88-.33,.48-.49-.02-.99,.32-.66,1.42-1.5,.61-.31,1.86-.34,.95,.67,.61-.02,.63,.66h2.18s.64-.66,.64-.66l.91-.34,1.9-1.62,1.25-.69h.61s1.25-.99,1.25-.99l1.26-.33,.29-.32h.63s.32-.33,.32-.33h.61l1.57-1h.61l.93-.67,1.57-.33,1.88-.99,.93-.66,2.19-.33,.32-.31,1.56-.02,.3-.31h2.52s.29,.31,.29,.31h4.06l2.03-1.49v-.66s.32-.34,.32-.34v-1.98s-.48-.49-.48-.49ZM101.15,338.91l.16-.17v-.32l-.16-.15-.61-.02-.15,.19v.31l.15,.17h.61Z" style="fill:#efc441;"/></svg>