<svg xmlns="http://www.w3.org/2000/svg" viewBox="0 0 800 800"><polygon points="514.24 129.43 514.36 131.19 522.72 144.18 528.82 148.72 539.51 159.78 549.27 176.62 559.03 193.43 560.24 196.25 561.96 207.18 561.68 209.63 560.88 211.47 558.71 215.03 557.99 216.87 558.03 217.56 558.59 219.14 558.71 219.96 558.63 221.93 558.79 222.53 559.23 223.3 559.67 223.3 560 223.43 560.32 223.94 560.36 224.37 558.91 229.3 558.83 230.41 559.43 232.34 559.51 233.24 558.99 234.02 558.19 234.66 555.94 237.7 554.65 239.07 553.97 239.54 553.05 239.72 551.12 239.63 550.24 240.02 549.55 241.09 549.27 241.56 547.99 249.57 548.15 251.12 548.91 252.4 550.48 253.39 552.08 253.26 554.25 250.95 555.3 250.99 555.7 252.36 555.62 254.59 554.89 258.15 553.89 259.9 551.48 262.82 550.72 264.45 550.68 265.99 551.16 267.66 552.04 269.03 553.25 269.63 554.13 269.42 555.5 268.26 556.34 267.79 557.42 267.58 558.39 267.66 559.31 268.09 560.2 268.78 560.96 269.08 562.85 269.03 564.74 269.59 565.7 269.29 567.55 268.39 569.56 268.31 573.25 269.21 576.55 268.86 578.88 269.89 580 270.06 581.65 269.81 587.79 270.88 591.09 270.41 591.69 270.32 593.86 270.24 594.94 270.83 594.78 271.74 593.7 273.41 593.5 274.31 593.9 275.21 595.51 276.54 595.79 277.31 595.39 277.91 593.02 279.58 592.41 280.26 589.12 286.18 588.44 288.32 588.24 290.38 588.8 292.22 590.04 293.81 591.65 295.1 593.22 296 594.14 296.38 596.19 296.89 596.55 296.94 597.6 297.07 598.44 297.07 598.84 297.11 599.28 297.37 600.29 298.18 600.57 298.35 604.34 296.98 606.39 296.72 607.8 298.18 608.04 298.74 608.32 299.17 608.76 299.42 609.33 299.55 611.17 300.8 613.06 300.84 617.16 300.15 620.45 300.8 621.62 300.84 622.78 300.97 624.67 302.08 628.04 302.47 629.93 303.41 634.95 308.38 635.55 309.37 635.68 311.6 636.88 312.93 637 314.08 637.32 314.51 637.73 314.94 638.17 315.28 638.69 315.58 641.5 318.97 643.23 320.38 645.03 321.11 645.84 321.03 647.65 320.6 648.49 320.6 649.94 320.86 650.38 321.15 650.66 321.54 651.02 321.88 652.51 322.4 653.27 323.21 653.83 324.2 654.43 326.17 655.28 327.84 655.6 328.91 655.64 329.86 655.44 332.56 655.64 333.5 656 334.36 656.16 335.3 655.92 336.41 654.6 337.61 650.7 339.03 649.45 340.31 649.41 341.09 649.7 342.12 650.94 345.24 654.43 347.21 655.24 347.77 655.6 348.2 656.16 349.23 656.48 349.66 656.97 349.92 657.93 350.26 658.33 350.56 658.81 351.46 659.17 353.26 659.5 354.16 660.14 355.1 660.9 355.7 664.2 357.46 666.49 359.3 668.01 360.07 669.14 359.64 670.1 359.82 670.99 360.42 673.6 362.99 674.52 363.5 678.13 364.53 679.26 365 680.67 366.2 681.15 366.33 682.27 366.33 682.88 366.59 683.8 367.57 684.44 367.75 685.93 367.83 686.21 368.35 686.25 369.2 686.77 370.19 687.66 370.53 690.27 370.79 691.27 371.3 691.51 371.77 691.67 372.98 691.91 373.53 693.76 374.65 694.36 374.82 695.53 375.03 696.13 375.29 696.49 375.72 696.49 376.19 696.65 376.58 697.34 376.79 699.99 377 700.35 378.42 700.55 381.72 701.11 383.13 701.43 383.31 701.79 383.26 702.16 383.18 702.52 383.18 702.76 383.39 702.76 383.73 702.64 384.12 702.64 384.5 702.88 385.32 703 386.05 703.2 386.73 703.8 387.46 705.13 388.36 706.17 388.66 707.14 389.09 708.95 391.54 711.32 393.33 712.32 394.41 714.33 395.52 717.82 396.89 720.63 398.61 720.72 399.98 720.75 400.71 720.31 401.35 719.35 403.28 717.5 405.94 716.34 408.46 715.86 408.94 715.25 409.24 714.73 409.67 714.33 410.44 715.41 410.82 715.53 411.72 715.17 412.92 715.05 414.04 715.45 415.37 716.1 415.92 716.98 416.35 718.14 417.04 719.11 418.02 720.51 420.04 721.6 420.81 724.05 421.37 724.97 422.05 725.17 423.68 725.17 425.18 725.74 425.57 726.58 425.52 727.54 425.78 728.31 426.77 728.35 427.97 727.78 429.13 726.82 429.98 725.78 430.63 724.61 431.48 723.65 432.6 723.17 433.8 723.37 435.13 724.33 434.83 726.7 433.07 727.75 433.41 728.39 434.48 728.87 435.85 729.43 436.97 730.36 437.74 733.81 439.03 735.7 439.28 739.84 439.07 744.01 440.83 745.06 441.56 745.7 442.37 746.02 445.2 746.5 446.31 747.87 446.96 749.24 446.87 750.2 446.48 750.92 446.61 751.49 448.03 752.25 449.14 753.45 449.18 756.02 448.54 756.67 449.27 757.35 451.03 758.43 451.93 758.88 452.87 759.24 453.17 759.8 453.21 760.88 452.83 761.41 452.79 763.86 453.81 764.42 454.2 764.82 455.27 764.86 455.91 765.14 456.38 766.31 456.81 767.15 457.24 767.83 458.06 768.32 459.04 768.52 460.03 768.56 460.59 768.68 460.97 768.96 461.23 769.96 461.96 770 462.3 769.84 462.73 769.76 463.8 769.52 464.7 769.52 465.13 769.88 465.73 770.2 465.81 770.49 465.64 770.69 465.6 770.89 465.51 771.21 465.3 771.65 465.26 772.21 465.69 772.45 466.2 772.33 467.31 772.45 467.96 770.04 474.82 769.92 475.76 770.04 476.57 770.53 478.16 770.85 481.25 771.09 482.19 772.65 486.18 773.62 488.02 774.82 489.6 778.16 492 779.76 493.46 780.73 495.95 782.46 497.23 783.02 498.05 781.49 497.4 780.93 497.28 780.13 496.72 779.44 496.55 778.32 496.5 777.76 496.38 777.23 496.16 776.43 495.52 775.67 494.79 774.86 494.19 773.82 493.93 772.57 493.8 771.21 493.38 766.39 490.85 763.98 489.9 761.45 489.73 758.76 490.55 756.67 491.75 754.9 492.99 753.25 494.53 751.49 496.55 751.24 497.1 750.64 498.61 750.32 499.12 749.68 499.85 749.36 500.15 748.31 500.02 748.23 499.89 748.03 499.59 747.71 499.29 747.31 499.12 746.95 499.29 746.34 499.98 745.9 500.02 745.5 499.68 743.09 496.98 742.69 496.68 741.85 496.55 739.03 496.55 738.43 496.89 737.63 497.58 737.06 497.88 736.26 497.58 735.74 497.62 735.42 498.26 735.06 498.26 734.57 497.58 733.57 497.45 732.49 497.83 731.8 498.73 731.4 498.26 731 498.73 730.24 499.16 729.47 499.46 728.95 499.59 727.95 499.5 726.34 498.9 725.62 498.73 725.5 498.35 724.37 495.95 723.65 495.35 722.76 494.79 721.92 494.1 721.4 493.12 720.15 493.68 719.75 493.93 719.19 493.2 718.18 493.16 717.06 493.29 715.57 492.99 714.45 492.52 713.36 491.66 712.92 490.55 712.68 490.68 712 490.85 711.72 490.98 711.72 489.99 711.72 489.65 710.99 489.99 710.63 489.43 710.11 487.5 709.91 487.76 709.27 488.36 709.11 488.06 708.75 487.8 708.5 487.5 707.7 487.89 707.3 487.42 706.94 486.69 706.09 486.22 705.81 486.86 705.49 487.33 705.05 487.5 704.61 487.5 704.25 487.46 703.92 487.33 703.64 487.12 703.84 488.75 704.04 489.22 703.52 488.96 703 488.92 702.6 489.18 702.44 489.86 702.12 489.9 701.43 489.9 700.63 490.07 700.03 490.55 699.26 489.99 698.26 488.7 697.62 488.36 696.81 488.19 696.29 488.4 696.01 489 696.01 490.07 695.13 489.69 694.08 489.82 693.32 490.55 693.24 491.79 692.2 490.85 691.63 489.69 690.95 488.88 689.62 488.79 689.42 489.22 688.86 489.95 688.26 490.25 687.82 489 687.53 488.57 687.37 487.98 687.58 487.12 687.33 487.25 686.69 487.42 686.41 487.5 686.25 486 685.45 485.57 684.92 485.83 685.61 486.22 685.04 487.07 684.24 487.16 683.4 486.77 682.75 486.22 681.15 484.29 680.35 483.65 679.02 483.26 678.94 483.22 678.7 483.09 678.26 482.53 677.93 482.36 677.21 482.53 676.81 482.92 676.37 483.05 675.52 482.36 675.52 481.97 675.81 481.76 676.01 481.55 676.13 481.33 676.33 481.07 675 481.12 674.52 480.56 674.32 479.75 673.88 478.93 673.52 478.93 672.75 479.06 671.67 478.93 671.02 479.1 671.51 480.22 670.82 480.39 669.38 480.99 668.86 480.86 668.21 480.17 668.05 480.09 667.93 480.3 665.32 481.85 664.04 482.19 662.99 481.5 662.39 482.32 661.54 482.62 661.1 483 661.87 484.07 660.66 484.5 659.94 485.4 659.58 486.69 659.46 488.15 659.1 488.92 658.33 489.77 657.85 490.85 658.21 492.22 658.65 492.48 659.78 492.73 660.22 493.12 660.26 493.59 659.94 494.83 659.86 495.48 659.66 495.9 658.85 496.98 658.65 497.66 658.61 499.2 658.37 499.85 657.81 500.45 656.93 500.7 654.36 500.96 653.83 501.52 653.11 501.9 649.37 502.12 648.85 501.9 648.45 501.61 648.01 501.35 647.37 501.31 646.92 501.95 646.48 502.38 645.96 502.55 645.68 502.85 645.08 504.09 644.75 505.38 644.23 505.5 642.14 504.86 640.13 503.66 637.97 503.02 637.32 503.02 636.88 503.28 635.8 504.09 635.48 504.26 634.15 504.56 632.02 505.98 630.86 506.45 630.21 506.41 629.65 506.15 629.17 505.98 628.69 506.23 628.04 506.96 627.4 507.52 626.76 507.61 626.08 506.88 625.11 507.61 623.95 507.65 620.09 507.22 619.49 506.92 619.69 506.28 620.45 505.16 619.65 504.56 617.92 503.92 617.2 503.4 616.88 502.68 616.88 501.43 616.35 500.83 615.63 500.53 614.14 500.28 613.58 500.02 613.22 499.55 612.7 498.39 612.38 497.88 611.25 497.02 609.69 496.16 609.33 496.08 608.08 495.73 606.71 496.16 606.51 496.89 606.51 497.75 606.35 498.26 605.55 497.88 605.23 497.36 604.66 495.48 604.34 494.79 603.54 495.73 602.66 497.19 602.29 498.52 602.94 499.12 604.38 499.46 604.46 500.23 603.74 501.09 602.7 501.69 598.48 502.29 597.92 502.81 597.8 502.98 597.11 504.73 596.91 505.46 596.91 506.06 596.79 506.53 596.31 506.88 595.95 506.88 595.55 505.38 594.58 504.9 593.38 505.25 592.29 505.98 590.65 508.29 590.04 508.59 589.28 508.42 588.12 507.56 587.47 507.31 586.35 507.48 585.34 508.12 583.86 509.45 580.84 510.95 579.8 511.63 578.92 510.74 578.55 510.61 578.19 510.78 577.95 511.16 577.75 511.81 577.71 512.49 577.99 513.13 578.07 513.95 576.67 513.91 574.18 513.35 573.73 513.48 573.13 514.03 572.61 514.21 572.17 514.16 571 513.82 570.32 513.74 569.27 514.12 567.03 515.84 565.7 516.35 563.05 516.69 561.88 517.08 559.59 518.49 556.9 519.18 555.66 519.78 552.12 522.78 551.08 523.21 549.71 523.38 548.71 523.85 548.07 524.66 547.62 525.78 547.54 526.51 547.54 527.07 547.5 527.49 547.22 527.97 546.74 528.18 545.66 528.14 545.21 528.39 544.21 527.75 543.16 527.37 542.12 527.15 541 527.11 540.79 526.94 540.11 526.21 539.99 525.99 539.71 525.87 538.42 525.57 537.94 525.39 537.18 523.64 535.57 522.57 535.37 522.35 534.65 521.92 533.2 519.74 532.32 518.92 529.67 520.34 528.22 520.59 526.94 519.99 526.33 519.44 525.65 518.96 524.93 518.62 524.13 518.49 523.44 518.15 523.04 517.34 522.84 516.39 522.2 515.06 521.55 513.39 521.07 512.88 520.35 512.84 519.67 513.09 518.98 513.48 518.3 513.74 517.42 513.69 516.89 513.52 516.45 513.56 515.89 514.21 515.53 514.98 515.49 515.75 515.77 516.52 516.29 517.21 515.81 517.85 514.48 518.88 513.84 520.59 512.88 520.42 511.71 519.78 510.83 519.39 509.86 519.78 509.3 520.68 508.62 522.82 508.18 523.76 507.65 524.58 507.01 525.22 506.17 525.78 506.21 526.51 506.57 527.79 506.61 528.39 506.49 528.82 505.93 529.94 505.77 530.32 505.61 530.67 504.8 531.31 504.64 531.61 504.64 533.11 504.52 533.75 504.2 534.39 503.36 534.82 502.11 534.95 499.54 534.87 498.5 535.51 498.18 537.05 498.3 538.77 498.58 540.01 499.58 541.29 499.74 541.77 499.46 542.45 498.94 543.1 498.21 543.65 497.57 543.87 497.09 544.42 495.36 547.77 495.4 548.5 495.76 549.78 495.76 550.34 495.44 550.98 494.36 551.97 494.12 552.27 493.68 553.21 492.63 554.33 490.58 555.87 490.22 556.04 489.06 556.55 488.53 556.77 481.5 557.15 475.88 555.78 474.56 554.88 473.23 554.37 472.63 553.98 471.54 552.78 471.22 552.48 470.1 552.05 467.12 551.45 465.88 550.85 464.23 550.04 463.83 549.87 463.11 549.91 462.82 550 462.58 550.13 462.02 550.34 460.78 550.6 457.36 550.34 455.96 550.08 455.03 549.44 454.23 548.71 453.14 548.15 452.62 548.11 450.94 548.15 450.29 548.07 450.01 547.85 449.81 547.55 449.57 547.3 448.32 546.83 447.48 546.7 445.47 546.87 443.26 546.7 442.26 546.78 436.63 549.87 436.03 549.61 434.87 549.57 434.23 549.44 433.78 549.14 433.34 548.71 432.82 548.33 432.06 548.15 429.52 548.28 428.36 548.2 427.03 547.77 426.07 547.3 423.26 545.41 422.98 544.94 422.57 544.51 421.97 544.34 421.21 544.38 420.65 544.51 420.2 544.77 419.76 545.15 419.4 545.54 419.08 546.05 418.68 546.57 418.16 546.87 417.43 546.95 416.95 546.61 416.51 546.23 415.95 546.01 414.74 545.97 414.3 545.75 413.86 544.72 413.14 544.38 411.69 543.87 411.13 543.05 410 540.87 409.52 540.44 408.56 540.22 402.89 538.04 397.51 536.79 395.22 536.97 394.42 537.39 393.73 538 392.81 538.51 391.4 538.72 386.74 538.72 381.76 539.54 380.4 539.2 379.19 538.34 373.17 532.29 372.88 532.04 372.28 530.71 372.6 529.51 373.17 528.44 373.53 527.54 373.13 526.25 372.2 524.84 371.04 523.68 370.03 523.21 369.55 522.74 368.27 519.78 367.14 517.85 366.26 516.82 365.29 516.35 364.05 516.18 361.32 515.24 360.23 514.63 359.11 513.65 356.42 510.13 355.33 509.36 351.44 507.73 349.55 506.41 348.18 505.12 346.57 504.09 341.39 502.93 339.95 502.33 339.34 501.52 339.06 500.53 338.02 498.69 337.58 497.88 336.89 496.98 336.05 496.42 333.4 495.09 331.63 494.66 330.43 494.1 329.9 493.93 323.19 493.8 321.07 492.73 319.86 492.99 318.01 493.93 316.81 494.1 312.99 493.93 311.67 494.32 310.82 495.13 309.58 496.98 304.32 500.45 301.58 501.82 301.14 502.33 300.26 504 299.17 505.59 298.17 505.85 295.48 505.81 294.47 506.23 293.95 506.79 292.55 508.16 291.74 509.32 291.06 510.78 290.54 512.75 290.26 513.35 289.77 513.91 289.25 514.34 288.85 514.85 288.37 517.25 287.56 518.15 286.52 518.84 285.48 519.78 283.47 523.42 283.19 523.64 282.06 524.07 281.82 524.32 281.7 524.41 281.02 526.25 279.01 527.97 277.6 530.11 274.59 538.04 273.18 540.1 271.3 541.55 268.56 542.58 267.36 542.84 266.19 542.88 265.03 542.67 263.94 541.94 262.82 541.85 261.65 543.01 260.81 544.68 260.49 546.01 260.97 547.08 262.58 548.58 262.94 549.23 263.26 550.42 265.35 554.58 266.11 557.07 266.92 562.34 266.88 566.33 266.64 567.83 266.24 569.24 264.99 571.43 264.87 572.8 264.91 573.61 264.95 575.67 263.78 583.43 265.75 598.04 263.18 598 262.46 597.23 261.54 594.92 259.13 590.8 258.16 589.6 256.67 588.32 255.91 588.36 255.27 589.17 254.22 590.29 253.66 590.54 252.7 590.46 252.01 590.59 251.73 590.84 251.49 591.7 251.29 591.92 250.89 591.92 250.21 591.57 249.84 591.49 245.19 591.92 244.54 591.87 244.02 591.74 243.58 591.87 243.22 592.73 242.82 594.66 242.57 595.26 241.89 596.33 240.89 597.36 239.64 598 238.36 597.83 237.59 596.89 236.87 594.4 235.83 593.33 233.82 592.6 231.77 592.6 229.76 593.2 227.91 594.14 227.19 594.23 226.63 594.02 224.58 592.6 224.26 592.47 223.94 592.73 221.69 593.89 220.56 594.23 219.72 594.06 219.32 593.07 219.03 591.83 218.51 590.67 217.75 589.77 216.87 589.22 216.34 589.17 215.22 589.43 214.66 589.39 214.29 589.17 213.73 588.49 213.33 588.27 212.93 588.32 212.25 588.57 211.93 588.66 207.1 588.66 204.74 588.27 202.61 587.29 200.44 585.36 200.16 585.19 199.35 585.1 199.07 584.84 198.83 584.03 198.59 583.73 197.22 583.51 196.3 583.94 195.38 584.67 194.61 585.1 192.36 586.34 191.2 587.89 189.91 589.13 187.78 589.3 186.3 588.79 185.53 588.7 184.69 589 183.89 589.73 183.41 590.42 182.88 590.97 181.88 591.44 181.03 591.57 178.71 591.53 177.86 591.74 176.29 592.39 175.49 592.56 173.93 592.43 173.4 592.56 172.4 593.07 172 593.33 171.35 593.97 170.83 594.19 170.51 594.23 169.71 594.1 169.26 594.19 168.46 594.49 167.98 594.19 167.58 593.63 166.94 593.25 166.33 593.2 164.73 593.42 164.16 593.29 163.12 592.86 162.56 592.73 161.67 592.82 161.59 593.33 161.79 593.97 161.67 594.53 160.51 595.13 159.26 595.22 154.44 593.93 153.24 593.85 151.91 593.93 149.14 594.79 146.73 596.46 144.92 598.82 144 601.6 143.48 606.83 142.03 610.77 141.99 612.32 141.63 613.69 139.62 616.69 138.94 618.11 138.9 619.65 139.38 620.98 139.98 622.26 140.42 623.68 140.02 625.91 137.77 630.58 137.93 633.36 138.66 634.52 139.5 635.55 140.02 636.66 139.74 638.16 138.05 641.98 136.73 645.07 135.88 646.91 133.39 652.57 130.74 658.61 128.85 662.9 126.16 668.94 123.15 675.75 122.95 675.58 122.19 675.11 122.27 674.51 122.59 673.7 122.59 673.18 122.35 672.97 121.54 672.41 121.38 672.11 121.3 670.87 121.18 670.27 120.98 669.71 120.58 669.07 119.45 667.74 118.73 666.15 118.25 664.87 118.17 664.35 118.17 662 117.89 660.88 117.17 659.42 116.92 658.61 116.96 657.2 117.89 655.05 118.17 653.85 118.01 652.57 117.08 650.38 116.92 649.09 117.13 648.41 117.57 647.47 118.09 646.65 117.45 646.48 116.68 646.39 115.92 646.52 115.32 646.52 115.12 645.97 115.16 645.11 114.92 642.97 115.16 641.34 116.72 639.62 117.2 638.16 117.04 636.49 116.48 635.08 115.76 633.79 114.88 631.69 113.63 629.76 113.15 629.25 112.55 628.95 111.98 628.91 111.34 629.08 110.58 629.38 110.34 629.12 110.09 628.82 109.97 628.48 109.17 625.3 108.69 624.11 107.72 622.78 106.56 621.79 105.64 621.45 103.11 621.71 102.86 621.62 102.26 621.19 101.9 621.11 101.58 621.23 100.94 621.66 100.69 621.71 99.93 621.58 99.49 621.45 99.05 621.15 94.63 616.18 89.13 609.96 83.34 603.36 77.24 596.46 72.3 590.89 68.32 586.39 67.76 585.74 62.98 580.34 57.91 572.37 54.46 563.58 55.46 563.58 57.35 564.1 58.32 564.23 59.48 563.97 61.77 562.81 63.06 562.47 64.22 561.96 64.06 561.27 63.38 560.75 62.45 560.58 61.65 560.58 61.29 560.2 61.13 559.3 60.73 558.44 59.84 558.05 58.96 558.18 58.28 557.58 57.91 555.91 57.79 552.35 57.23 548.54 56.67 546.83 55.78 545.07 53.78 542.37 53.38 541.55 52.97 539.92 52.57 539.32 51.89 538.85 49.32 537.87 40 531.05 37.91 528.87 36.34 526.21 35.58 523.25 35.18 518.49 34.78 517.42 34.86 516.99 35.1 516.31 35.38 514.76 35.42 514.12 34.58 508.21 34.25 507.43 33.93 506.83 33.69 506.19 33.85 504.52 33.57 503.92 33.21 503.36 32.97 502.68 33.01 501.78 33.01 501.48 33.41 499.16 33.17 496.76 33.17 493.59 32.93 492.18 32.49 490.72 31.84 489.43 30.92 488.4 29.68 487.76 27.14 486.86 25.94 486.05 25.02 484.93 24.77 484.25 25.26 484.07 25.94 483.43 26.42 482.36 26.78 481.25 26.86 480.43 27.18 480.17 27.75 479.19 28.27 478.16 28.27 477.64 29.03 477.39 29.31 476.66 29.23 474.86 29.43 473.83 30.28 472.03 30.48 471.39 30.56 469.5 30.48 468.73 30.08 467.74 29.27 466.24 28.95 465.39 28.87 464.27 29.03 463.33 30.08 460.46 30.88 457.07 31.28 456.13 30.88 454.88 30.48 448.16 29.64 447 29.35 445.75 28.59 444.51 27.87 444.47 26.26 445.5 25.38 445.58 23.57 445.37 22.57 445.37 21.6 444.68 21.16 443.7 20.88 442.58 20.48 441.56 19.63 440.61 18.75 439.84 18.11 438.98 17.58 438.47 17.1 437.74 16.98 437.23 17.14 436.8 17.58 436.28 17.86 436.24 18.51 436.71 18.79 436.71 19.07 436.45 19.27 435.94 19.43 435.64 19.71 435.04 19.63 434.7 19.59 434.35 19.51 434.14 20.32 433.37 21.68 432 22.57 431.7 24.25 429.94 25.14 428.74 25.66 427.75 28.07 427.75 36.46 423.47 37.39 422.7 39.56 419.69 40.16 418.54 40.32 417.81 40.28 417.12 40.04 415.67 40.16 414.94 41.65 412.79 48.35 396.55 49 395.05 49.76 394.06 50.72 393.38 54.26 391.49 54.98 390.85 55.42 389.99 56.39 387.12 57.63 384.46 59.6 379.02 60.52 375.16 60.93 373.96 61.57 372.93 62.09 372.55 63.46 371.86 63.94 371.22 64.1 370.57 63.82 366.93 63.9 366.33 64.18 365.65 64.98 364.19 66.07 361.23 67.39 360.03 68.28 359.22 72.78 356.52 75.55 354.25 75.79 353.9 76.27 352.83 76.59 352.49 77 352.4 78.08 352.36 78.32 352.27 78.48 351.46 77.32 350.34 77.56 349.31 80.73 344.77 81.17 343.87 83.18 344.56 85.35 344.73 89.61 344.09 92.18 344.3 95.19 347.3 97.44 348.16 99.53 347.99 107.24 346.1 108.29 345.63 110.22 344.39 111.06 343.49 112.34 341.56 113.19 340.61 114.15 340.06 115.44 339.59 119.17 339.07 121.18 338.34 122.51 338.39 123.79 338.17 124.96 337.44 127.01 335.77 128.21 335.26 133.39 334.49 134.12 333.97 134.36 333.07 134.36 328.78 134.64 327.5 135.52 326.68 136.16 326.73 136.69 326.98 137.29 327.2 138.09 326.94 138.46 326.47 139.18 324.84 139.54 324.2 140.46 323.34 141.51 322.78 143.84 322.06 143.92 322.57 143.96 323.13 143.92 323.73 143.6 325.61 143.88 326.77 144.48 327.71 145.44 328.48 146.05 328.74 146.61 328.91 147.13 329.13 147.61 329.73 147.9 330.58 147.77 331.23 147.53 331.87 147.41 332.64 147.65 334.01 148.26 334.7 150.55 335.43 151.95 336.16 153.28 337.31 155.45 339.89 156.73 342.16 157.53 342.76 158.9 342.59 159.34 342.33 159.46 342.2 160.71 341.09 160.91 341.09 161.51 341.17 161.75 341.09 161.83 340.57 161.63 340.27 161.39 340.01 161.35 339.59 161.79 338.3 162.4 337.49 163.32 336.97 165.61 336.29 168.1 335.86 169.26 335.99 169.67 335.21 170.15 334.83 170.79 334.79 172.6 335.13 172.76 334.83 172.72 334.27 173 333.71 173.8 332.99 174.97 333.37 175.61 333.76 175.93 334.1 176.29 334.14 177.14 333.58 178.26 332.43 180.31 329.77 181.4 328.7 181.84 328.66 182.32 328.74 182.68 328.44 182.88 327.28 183.24 326.56 184.05 325.78 184.09 325.7 185.01 325.01 192.93 322.01 194.13 321.2 194.89 320.25 197.66 321.15 198.39 320.68 198.91 319.23 199.87 318.5 201.04 318.2 203.17 317.94 204.37 317.6 205.5 316.95 206.74 315.2 207.87 314.77 209.15 314.73 210.2 314.77 218.27 316.23 220.72 316.35 223.01 315.88 227.67 314.04 233.13 312.63 258.8 311.9 263.58 310.82 265.27 308.17 265.31 305.12 266.48 302.64 268.44 300.75 270.94 299.42 274.39 298.18 275.43 297.62 276.72 296.42 279.17 292.44 281.06 290.46 281.9 289.35 282.42 287.81 283.03 286.61 288.89 279.45 291.26 274.39 291.9 274.01 292.47 273.66 293.03 272.68 294.96 271.31 293.75 269.85 291.98 268.43 291.06 267.83 290.54 266.85 283.51 263.63 282.82 263.08 282.54 262.26 282.38 261.19 281.98 260.59 281.02 261.15 280.01 260.29 280.01 259.35 281.38 257.25 281.9 257.46 282.42 257.46 282.87 257.16 283.03 256.6 283.15 255.96 283.47 255.75 283.95 255.62 284.87 255.06 286.04 254.68 286.28 254.46 286.4 253.99 286.8 253.52 287.64 252.7 288.97 251.72 291.22 250.52 293.59 249.83 295.12 250.35 295.52 250.35 296 250.22 297.57 250.65 297.93 250.56 298.21 249.83 298.93 249.53 301.34 249.36 302.55 249.02 303.11 249.02 303.83 249.4 304.44 249.96 305 250.18 305.56 249.49 306.24 249.96 307.25 250.39 308.33 250.65 309.34 250.78 310.14 250.6 312.39 249.7 312.91 249.96 317.41 249.92 317.69 250 317.93 250.18 318.25 250.22 318.82 249.92 320.18 249.96 321.91 249.19 323.68 248.8 325.24 249.92 326.21 249.45 328.74 249.49 329.26 249.23 329.58 248.93 330.99 248.29 331.51 248.16 332.19 248.12 333.72 247.69 334.96 247.56 339.87 247.86 340.63 247.52 341.35 246.4 342.16 246.83 342.36 246.79 343.04 246.62 344.53 245.55 344.97 245.46 345.49 245.55 345.93 245.46 346.13 244.95 346.17 244.56 346.33 244.22 346.53 243.92 346.77 243.83 347.22 244.09 347.42 245.03 347.78 245.12 348.14 244.86 348.1 244.56 348.02 244.17 348.18 243.83 349.91 242.29 350.39 242.07 350.87 242.16 351.68 242.5 352.2 242.54 352.24 242.33 352.2 241.86 352.28 241.43 352.8 241.26 353.24 241.6 353.72 242.33 354.45 243.1 355.41 243.45 356.3 243.15 357.98 241.9 358.83 241.65 359.43 241.82 360.11 242.29 361.44 243.45 362.6 243.15 367.46 243.45 368.55 243.19 368.91 242.97 369.99 242.16 370.56 241.82 371.2 241.73 371.88 242.07 373.09 240.75 373.81 239.16 374.61 237.87 376.14 237.32 376.46 236.67 375.86 235.17 375.46 233.67 376.54 233.03 377.26 232.9 377.67 232.52 377.87 231.92 377.95 231.1 378.15 230.5 378.67 230.59 379.95 231.32 380 231.27 381.12 231.36 381.16 231.32 382.12 231.66 382.53 231.7 385.54 231.7 384.78 229.13 387.19 227.84 389.84 226.99 390.4 226.51 390.84 226.99 391.36 226.39 391.61 225.66 391.93 225.06 392.61 224.8 392.85 224.63 393.21 224.07 393.41 223.9 393.69 224.07 394.1 224.33 394.13 224.33 394.5 224.5 394.86 224.37 395.22 223.17 395.3 221.59 395.74 220.21 397.03 219.61 397.67 219.06 399.92 216.4 400.4 215.5 400.64 214.81 401.17 214.34 402.45 213.57 402.73 213.01 402.81 212.46 403.13 212.24 404.06 212.67 403.98 211.86 403.86 211.64 403.62 211.38 403.62 210.96 404.46 210.66 404.82 209.84 404.86 207.7 405.06 206.75 405.87 205.04 406.07 203.84 406.23 203.54 406.55 203.2 406.95 202.9 407.27 202.73 407.35 202.64 407.39 202.47 407.55 202.34 407.87 202.25 408.15 202.43 408.68 203.03 408.92 203.16 409.32 202.94 409.76 202.64 410.48 201.87 410.73 201.83 411.01 201.87 411.21 201.91 411.29 201.66 411.25 200.75 411.29 200.54 412.17 198.23 412.77 197.15 416.03 194.88 416.51 194.75 416.67 193.77 417.11 192.87 420.13 189.14 420.97 188.41 421.77 188.97 424.18 189.95 424.94 190.17 426.99 189.31 428.92 187.25 430.49 184.68 433.54 177.22 435.15 174.95 437.04 173.71 437.56 173.79 438.28 174.05 439.05 174.18 439.65 173.92 439.85 174.05 441.74 173.41 442.06 173.24 443.54 172.85 444.31 171.87 444.75 170.58 445.47 169.34 445.95 169.12 446.64 169.04 447.24 168.87 447.48 168.26 447.4 167.75 447.16 166.81 447.12 166.12 447.32 164.79 449.13 161.58 448.69 161.11 448.65 160.68 448.73 160.25 448.73 159.82 448.36 159.26 447.32 158.02 447.12 157.42 447 156.39 446.44 153.95 446.32 152.66 446.44 151.42 447 149.58 447.12 148.33 447.44 147.35 448.24 146.75 449.25 146.45 450.13 146.36 450.45 146.15 450.73 145.72 451.1 145.25 451.7 145.08 452.18 144.99 453.31 144.65 453.91 144.6 455.07 145.21 455.71 145.33 456 144.82 456.2 144.73 457.56 143.36 459.37 142.03 460.38 141.52 463.95 140.58 464.59 139.85 463.99 138.52 464.39 137.66 464.79 136.38 465.44 135.18 466.56 134.66 471.5 135.18 472.43 135.05 474.07 135.95 474.88 134.62 475.48 132.65 477.17 131.15 477.81 130.29 478.57 129.69 479.5 130.07 479.94 130.12 480.58 129.65 481.67 128.57 482.43 128.15 483.63 127.63 484.92 127.25 485.12 127.2 486.73 126.95 487.61 126.65 488.33 126.17 489.42 124.85 489.98 124.42 490.74 124.25 491.67 124.46 492.51 124.76 493.23 124.8 493.76 124.25 495.08 125.53 496.33 125.66 497.57 125.27 498.98 125.1 499.46 125.27 500.58 125.83 501.19 125.96 503.24 125.92 503.8 125.96 505.97 126.56 507.45 127.89 511.03 129.09 514.24 129.43" style="fill:#efc441"/></svg>