<?xml version="1.0" encoding="UTF-8"?><svg id="Christmas_Island" xmlns="http://www.w3.org/2000/svg" viewBox="0 0 720 540"><polygon points="591.2 199.01 593.29 196.55 587.89 190.51 581.4 187.99 578.17 184.31 578.14 179.41 575.92 176.87 578.11 167.07 571.65 159.89 571.63 157.54 577 151.26 582.35 147.5 584.55 137.7 588.73 130.44 584.5 123 582.17 113.31 571.41 91.17 573.45 81.53 569.27 74.14 567.1 71.6 567.07 61.8 571.2 52.16 571.18 44.82 563.81 36.16 550.78 36.24 540.03 43.53 520.67 45.88 516.38 48.48 503.46 41.06 496.97 41.06 493.71 44.82 493.71 49.56 491.65 52.08 491.75 59.52 489.45 64.39 483.09 69.29 485.32 74.19 485.34 81.48 482.09 85.13 473.37 85.21 469.22 80.31 462.62 80.31 459.47 83.83 459.5 91.25 463.89 96.15 463.92 103.59 457.4 118.29 452.05 124.41 447.84 124.41 444.53 127.9 444.56 132.99 434.92 143.82 430.55 143.82 422.02 151.26 415.64 153.86 407.01 161.11 398.32 163.5 387.52 175.81 376.9 175.65 374.86 178.17 364.1 180.63 357.51 185.53 346.76 190.43 340.3 190.43 338.23 192.95 323.24 195.41 316.67 200.31 310.19 192.87 306.03 192.87 301.63 187.99 290.85 187.99 282.25 183.17 258.57 182.99 236.93 168.4 230.47 168.4 228.38 165.85 224.22 165.85 215.3 161.03 201.26 142.6 201.39 132.88 198.14 129.15 185.19 121.94 174.51 121.94 169.14 127.98 169.16 132.88 166.94 135.24 166.99 147.58 164.77 149.94 164.93 169.69 167.15 174.59 188.68 199.01 190.85 203.88 190.91 221.12 182.27 230.74 178.14 240.54 178.06 262.65 176 265.19 176.02 267.55 170.65 273.67 164.18 273.67 157.78 286.01 153.49 286.01 141.67 299.38 141.67 301.93 126.68 318.95 126.74 331.3 129.92 337.33 140.69 342.23 149.35 342.23 151.5 339.8 155.82 339.8 157.93 337.26 166.54 334.87 174.06 326.32 176.1 319.06 188.05 305.5 196.57 303.14 203.04 308.04 213.81 310.32 215.96 312.86 220.28 312.86 226.74 307.96 243.93 308.12 250.41 312.76 263.31 312.76 284.84 334.82 289.16 332.44 295.59 332.44 297.9 329.92 319.27 330 321.55 332.36 345.25 332.36 349.41 334.87 351.55 337.41 358.09 337.33 368.92 342.23 382.99 358.07 385.08 365.49 389.34 370.41 389.4 382.73 391.59 385.08 391.75 404.6 398.27 421.82 400.41 424.33 400.47 436.52 398.24 439.03 398.29 453.7 402.56 461.15 404.81 465.78 404.84 473.22 411.4 487.92 420.96 498.86 429.76 501.37 431.82 503.76 449.12 503.84 451.18 501.32 459.87 501.32 461.93 498.94 474.86 496.58 478.06 492.82 478.01 473.22 475.89 470.71 475.78 458.63 477.93 456.09 477.93 431.62 482.19 421.82 482.11 399.86 488.47 390.06 490.48 375.37 499.17 367.95 499.12 358.15 507.62 348.35 507.62 345.99 501.29 338.58 496.86 328.78 496.84 299.38 506.32 285.9 514 282.33 516.06 277.27 516.04 269.99 521.41 263.95 529.94 261.35 533.2 257.86 535.4 245.52 541.73 233.36 551.45 222.32 564.29 222.32 593.32 203.96 591.2 199.01" style="fill:#efc441; fill-rule:evenodd;"/></svg>