<?xml version="1.0" encoding="UTF-8"?><svg id="Layer_1" xmlns="http://www.w3.org/2000/svg" viewBox="0 0 800 800"><path d="M692.17,323.46v-17.72c-3.22-7.25-6.45-14.5-9.67-21.75-3.36-24.49,18.01-38.95,5.64-61.23-8.32-.27-16.65-.54-24.98-.81-11.77-3.62-18.72-15.7-27.39-22.56-15.42-12.18-30-23.1-45.92-34.64-5.64-5.64-11.28-11.28-16.92-16.92-8.59-2.95-17.19-5.91-25.78-8.86-10.98-6.37-30.79-23.98-41.09-28.2-18.53-1.88-37.06-3.76-55.59-5.64-8.17-2.95-19.63-5.08-28.2-8.86-12.24-5.4-21.09-17.23-34.64-22.56-12.08-2.95-24.17-5.91-36.26-8.86-22.01-10.09-35.19-43.96-52.37-53.17-6.18-.27-12.35-.54-18.53-.81-12.44,12.69-37.76,12.84-49.15,26.59-8.44,10.19-4.23,31.03-15.31,38.67-7.91,5.46-19.03,4.85-28.2,8.86-7.25,4.83-14.5,9.67-21.75,14.5-8.59,1.07-17.19,2.15-25.78,3.22-11.05,7.7-17.52,17.77-26.59,27.39-4.6,4.88-13.57,5.94-16.92,12.09-7.77,14.26,4.2,29.24,3.22,43.51-.73,10.63,7.05,25.33,10.47,34.64,2.15,11.01,4.3,22.02,6.45,33.03,5.61,12.33,10.2,27.36,13.7,41.9,3.25,13.53-10.26,23.56-7.25,37.06,3.5,15.72,10.68,32.02,16.11,46.73v24.17c1.61,6.44,3.22,12.89,4.83,19.34v.81c-.76,4.85-4.72,14.86-2.42,22.56,3.46,11.58,14.97,21.71,20.14,32.23,6.68,13.59,3.48,30.78,12.09,41.9,8.32,6.98,16.65,13.97,24.98,20.95,6.71,10.2,13.43,20.41,20.14,30.62,4.83,4.3,9.67,8.59,14.5,12.89,2.69,8.86,5.37,17.73,8.06,26.59,5.25,12.91,17.74,26.52,26.59,37.06,8.07,9.62,22.45,14.14,30.62,24.17,23.09,28.38,44.79,71.73,83.79,82.98,21.41,6.18,38.44-.56,56.4-6.45,8.59-1.88,17.19-3.76,25.78-5.64,15.96-7.44,47.49-40.94,55.59-56.4,6.22-11.87,9.31-26.43,17.72-36.26,8.45-9.88,26.54-11.47,37.87-18.53,14.06-8.76,24.62-32.94,33.03-47.53,11.13-19.31,37.3-29.81,49.15-49.15,6.82-11.13,10.79-25.78,13.7-40.28,2.29-11.4-.37-18.12,3.22-28.2,14.29-40.13,31.26-89.14,16.92-143.41Zm-67.68,42.7c9.46,51.51,2.2,157.76-20.14,186.11-13.74,17.44-46.42,24.53-77.34,24.17-13.44,11.02-4.76,15.15-10.47,28.2-2.95,3.22-5.91,6.45-8.86,9.67-2.84,5.79-2.61,9.89-5.64,15.31-8.59,8.06-17.19,16.11-25.78,24.17-4.3,5.9-6.16,15.21-12.09,19.34-6.01,4.18-14.25,3.81-18.53,9.67-4.75,6.51-3.79,15.43-6.45,24.17-3.44,11.32-23.66,23.07-34.64,26.59-29.01,9.3-43.89-16.42-52.37-29.81-9.65-15.24-23.11-32.27-36.26-44.31-2.95-1.88-5.91-3.76-8.86-5.64-10.94-15.19-16.15-33.69-26.59-49.95-23.09-35.96-54.69-69.57-70.9-111.18-14.3-36.69-15.15-88.46-25.78-125.69-2.72-9.54,3.94-19.44,5.64-25.78,2.84-10.63,7.7-51.07,5.64-59.62-7.05-29.32-17.52-56.48-16.92-91.04v-16.92c9.46-26.36,17.63-43.64,36.26-60.43,4.03-2.42,8.06-4.83,12.09-7.25,7.01-7.63,11.8-25.84,20.95-30.62,3.76-1.07,7.52-2.15,11.28-3.22,10.32,.41,13.66,6.46,20.95,8.86,20.3,6.7,36.04-7.22,57.2,0,12.9,4.4,30.82,10.24,44.31,14.5h11.28c15.06,4.28,31.17,10.4,44.31,13.7,3.22,.27,6.45,.54,9.67,.81,8.06,5.37,16.11,10.74,24.17,16.11,7.52,1.07,15.04,2.15,22.56,3.22,9.67,7.52,19.34,15.04,29,22.56,3.49,2.11,12.68,1.16,16.11,4.03,2.15,3.76,4.3,7.52,6.45,11.28,4.39,5.48,13.17,12.35,18.53,16.92,15.25,12.99,36.39,16.74,44.31,37.06,5.39,13.82,1.2,27.08,5.64,43.51,4.19,15.5,9.44,36.47,14.5,53.98,4.44,15.36-6.49,29.76-3.22,47.53Z" style="fill:#efc441; fill-rule:evenodd;"/><path d="M705.06,209.86l.81,1.61-.81-1.61Z" style="fill:#efc441; fill-rule:evenodd;"/><path d="M156.39,551.47l.81,2.42h-.81v-2.42Z" style="fill:#efc441; fill-rule:evenodd;"/><path d="M156.39,557.91l.81,1.61-.81-1.61Z" style="fill:#efc441; fill-rule:evenodd;"/><path d="M373.12,770.61h7.25l3.22,5.64c-1.07,1.34-2.15,2.69-3.22,4.03l-2.42,.81-4.03-.81c-1.07-1.34-2.15-2.69-3.22-4.03l2.42-5.64Z" style="fill:#efc441; fill-rule:evenodd;"/><path d="M440.8,771.42l5.64,4.03c-.36,5.63-1.51,5.77-4.83,8.06-1.61-.81-3.22-1.61-4.83-2.42l-.81-5.64,.81-1.61,4.03-2.42Z" style="fill:#efc441; fill-rule:evenodd;"/><path d="M392.46,776.25c7.71-.29,9.66,3.76,7.25,10.47-4.09,.65-2.84,1.66-5.64,0l-3.22-.81v-5.64l1.61-4.03Z" style="fill:#efc441; fill-rule:evenodd;"/><path d="M405.35,776.25c3.67-.03,4.75-.11,6.45,1.61v9.67l-5.64,.81-3.22-6.45,2.42-5.64Z" style="fill:#efc441; fill-rule:evenodd;"/><path d="M426.29,777.06c3.58,.87,4.07,1.2,5.64,4.03l.81,4.03-2.42,4.03h-5.64l-.81-2.42c-1.78-1.75-1.69-3.47-1.61-7.25l4.03-2.42Z" style="fill:#efc441; fill-rule:evenodd;"/></svg>