<?xml version="1.0" encoding="UTF-8"?><svg id="Cocos_Islands" xmlns="http://www.w3.org/2000/svg" viewBox="0 0 720 540"><path d="M502.58,514.43c-1.66-.02-3.08-1.22-3.39-2.85l-.21-1.12c-.99-.02-1.92-.46-2.57-1.22l-.18-.21-3.29-.75c-.71-.16-1.36-.54-1.84-1.09l-1.42-1.6-.4,.49c-.61,.74-1.49,1.19-2.44,1.26l-.89,.07c-.09,0-.17,0-.26,0-1,0-1.95-.42-2.62-1.17l-.45-.5c-1.15-1.29-1.18-3.23-.08-4.56l1.17-1.42c-.34-.22-.64-.49-.9-.82l-.39-.51c-1-1.31-.96-3.14,.11-4.39l1.28-1.51c.65-.77,1.6-1.22,2.61-1.24,.02,0,.04,0,.06,0,.98,0,1.92,.41,2.58,1.14l.46,.5c.18,.2,.34,.42,.47,.65l.96-1.1c.68-.77,1.64-1.19,2.63-1.19,.42,0,.85,.08,1.26,.24l1.3,.5c1.45,.56,2.33,2,2.23,3.5,.53,.2,1.01,.53,1.38,.95,.32-.09,.64-.14,.97-.14,.6,0,1.2,.16,1.74,.46,.17,.09,.32,.2,.46,.32,.55-.44,1.22-.71,1.92-.77-.11-.34-.17-.69-.17-1.05v-.97c-.02-.84,.27-1.65,.81-2.29l1.28-1.52c.67-.79,1.65-1.25,2.68-1.25h.95c1.04,0,2.03,.47,2.7,1.27l.42,.5c.08,.1,.16,.2,.23,.31l1.08-.63c.54-.31,1.14-.48,1.76-.48h1.81c1.02,0,2,.45,2.66,1.23l.26,.3,2.51,.82,1.22-2.2-.02-.85c-.21-.16-.4-.34-.58-.54l-.43-.5c-.53-.62-.82-1.41-.83-2.23l-.03-3.07c0-.88,.31-1.73,.9-2.38l.43-.47c.37-.41,.82-.71,1.31-.91,0-.04-.05-1.16-.05-1.16-.04-.84,.24-1.67,.76-2.33l.44-.55c.13-.16,.27-.31,.43-.45,.07-.09,.14-.17,.21-.25l.44-.47c.66-.71,1.58-1.11,2.54-1.12l-1.86-3.47c-.21-.4-.34-.83-.39-1.26-.78-.86-1.09-2.07-.8-3.22l-.57-.42c-.48-.36-.87-.83-1.11-1.38l-.88-1.96c-.08-.17-.14-.34-.19-.51-.85-.07-1.66-.44-2.25-1.07l-.51-.54c-.62-.64-.96-1.49-.97-2.38v-.98c-.02-.94,.35-1.85,1.01-2.52l.5-.5c.33-.33,.73-.59,1.16-.77-.02-.29,0-.58,.04-.86l-.13-.14c-.4-.45-.66-.98-.79-1.54-.55-.19-1.06-.53-1.45-.98l-.45-.5c-.83-.93-1.08-2.2-.74-3.34-.34-1.13-.1-2.39,.73-3.33l.27-.3c-.31-.69-.39-1.46-.21-2.21,.06-.27,.15-.52,.27-.77-.29-.17-.56-.38-.79-.63l-1.39-1.48c-.85-.91-1.16-2.2-.81-3.39,.26-.86,.83-1.58,1.59-2.02-.59-.33-1.07-.83-1.39-1.45-.47-.92-.51-2-.11-2.95l.07-.17-4.18-5.4c-.75-.97-.94-2.27-.5-3.41,.02-.05,.04-.09,.06-.14l-.37-.42c-.55-.63-.85-1.43-.86-2.26v-.22s-1.33-1.02-1.33-1.02c-.86-.66-1.37-1.69-1.37-2.78v-1.07c-.86-.09-1.66-.5-2.25-1.16l-2.54-2.88s-3.78,.02-3.78,.02c-1.03,0-2.01-.45-2.67-1.24l-1.31-1.55c-.53-.63-.82-1.42-.83-2.25v-2.22s-.41-.86-.41-.86l-4.16-4.67c-.23-.25-.42-.54-.56-.85l-.94-2.02c-.21-.45-.32-.94-.33-1.44l-.02-2.02c-.01-1.44,.85-2.74,2.19-3.28l1.32-.54c.42-.17,.87-.26,1.31-.26,.53,0,1.05,.12,1.54,.36,.84,.41,1.47,1.13,1.77,2.01,.42,.2,.8,.48,1.11,.83l4.94,5.55c.26,.29,.47,.63,.62,.99l1.75,.5c.64,.18,1.22,.54,1.66,1.04l2.57,2.9h.18c1,0,1.95,.42,2.61,1.17l1.39,1.55c.56,.63,.88,1.43,.89,2.28l.04,2.1c.81,.09,1.59,.47,2.18,1.12l1.36,1.49c.38,.42,.66,.92,.8,1.47l1.86,7.1c.05,.21,.09,.42,.11,.63,.16,.12,.31,.25,.44,.4l1.38,1.49c.26,.28,.47,.6,.63,.96l2.48,5.57,2.39,2.69c.94,1.06,1.15,2.58,.54,3.85,.31,.19,.59,.42,.84,.71l1.33,1.55c.54,.63,.84,1.42,.84,2.25l.04,5.02c0,.83-.28,1.64-.82,2.28l-.94,1.12c.08,.45,.08,.91-.02,1.37,.11,.08,.22,.17,.32,.26l.51,.47c.71,.65,1.11,1.55,1.13,2.51,.01,.51-.09,1.02-.29,1.48l.2,.21c.44,.46,.74,1.03,.88,1.65l1.69,7.48,2.38,3.48c.4,.58,.61,1.27,.61,1.98v.67l.92,1.02c.58,.65,.91,1.49,.9,2.36v.64s.89,.96,.89,.96c.6,.65,.93,1.5,.93,2.38v.77c.52,.6,.83,1.36,.86,2.15l.09,2.02c.03,.66-.13,1.31-.45,1.88l-1.26,2.22v1.1c0,.69-.21,1.37-.59,1.94l-5.5,8.22v.88c.02,.57-.12,1.14-.38,1.64l-2.6,5.04-1.24,2.51c-.39,.79-1.07,1.41-1.9,1.72l-1.91,.73-1.15,1.32c-.33,.38-.74,.69-1.2,.89l-4.4,1.99c-.44,.2-.92,.3-1.4,.31h-1.14c-.09,.11-.19,.19-.3,.27l-2.66,2.05c-.43,.33-.94,.56-1.48,.67l-4.03,.78-.08,.09c-.67,.79-1.65,1.25-2.68,1.25-.02,0-4.52-.07-4.52-.07Zm-54.93-2.96c-.8,0-1.58-.28-2.2-.78l-3.16-2.56c-.78-.63-1.25-1.56-1.29-2.55l-4.18-5.38c-.65-.18-1.23-.54-1.69-1.05l-2.25-2.52c-.18-.2-.34-.42-.46-.66l-2.55-4.71-3.16-3.59-1.86-.71c-.52-.2-.99-.52-1.36-.94l-5.01-5.6c-.58-.65-.9-1.49-.89-2.36v-.66s-.08-.1-.08-.1c-.51-.61-.8-1.38-.82-2.18l-.08-4.01c-.02-.89,.31-1.76,.91-2.42l-.08-4.7c-.01-.87,.29-1.7,.86-2.35l-.18-16.89-1.35-2.25c-.33-.54-.5-1.17-.5-1.8v-3.66l-.03-.03c-.59-.64-.92-1.47-.93-2.33l-.08-6.07c0-.7,.19-1.39,.58-1.97l2.05-3.11v-.94c-.03-.85,.27-1.68,.82-2.33l2.19-2.56c.67-.78,1.64-1.23,2.66-1.23,.02,0,1.88,.03,1.88,.03,1.02,.02,1.98,.48,2.63,1.26l1.29,1.55c.74,.89,.99,2.09,.67,3.2l-.5,1.74,1.3,2.91c.19,.43,.3,.9,.3,1.38l.08,6.8,.07,.08c.51,.6,.79,1.35,.82,2.14l.07,2.02,2.13,3.24c.38,.57,.58,1.24,.58,1.93v.95l2.15,3.14c.28,.41,.47,.88,.56,1.36l.72,4.04,1.17,1.32c.56,.63,.87,1.44,.88,2.29l.07,6.03c0,.47-.09,.94-.27,1.38l-.86,2.09c-.38,.92-1.14,1.64-2.09,1.97l-1.36,.47c-.2,.07-.4,.12-.6,.15,.17,.35,.28,.73,.33,1.12l.44,3.78,2.24,3.33c.39,.58,.59,1.26,.59,1.95v1.25l.39,.84,5.97,6.64c.58,.64,.9,1.48,.9,2.34v2.26l.26,.55,.7,.53c-.56-.63-.9-1.46-.89-2.36,.02-1.8,1.4-3.29,3.19-3.45l5.76-.51c.1,0,.21-.01,.31-.01,.83,0,1.63,.3,2.26,.83,0-.1,.01-.21,.03-.31,.17-1.24,.98-2.3,2.14-2.78l1.3-.54c.43-.18,.88-.26,1.33-.26,.93,0,1.85,.37,2.52,1.07h.19c.98,.01,1.92,.44,2.57,1.18l1.32,1.49c.23,.26,.42,.55,.57,.87l1.47,3.22c.6-.44,1.32-.68,2.08-.68h.92c.97,0,1.9,.4,2.56,1.12l.45,.48c1.21,1.29,1.25,3.29,.12,4.64l-.03,.04v.71c.03,.99-.38,1.94-1.1,2.62l-.5,.47c-.65,.61-1.5,.94-2.39,.94-.04,0-.09,0-.14,0-.93-.04-1.81-.44-2.44-1.13l-.1-.11-3.77,3.4c-.4,.36-.87,.62-1.38,.77l-6.33,1.82-2.93,2.53c-.63,.54-1.44,.85-2.27,.85,0,0-6.2,.03-6.2,.03Zm2.06-12.89c.3,.12,.59,.28,.85,.48l1.56,1.2,1.22-2.16c.23-.41,.54-.77,.91-1.05-.53-.19-1.01-.5-1.4-.92h0s-3.58-.4-3.58-.4c-.41-.04-.79-.16-1.15-.33l.21,.16c.96,.73,1.46,1.88,1.38,3.03Zm-20.11-29.56c.5-.5,1.13-.83,1.8-.96l-.09-.1h-.23c-.32-.01-.64-.06-.94-.15-.09,.14-.18,.28-.29,.41l-.67,.8h.41Zm61.63-93.95c-1.27,0-2.46-.69-3.08-1.85l-1.84-3.43-3.87-.32c-1.31-.11-2.44-.93-2.95-2.14-.5-1.21-.29-2.6,.55-3.6l1.28-1.52c.67-.79,1.64-1.25,2.68-1.25h7.15c1.01,0,1.97,.44,2.63,1.2l1.3,1.49c.41,.47,.69,1.04,.81,1.65l.96,5.08c.34,1.83-.8,3.6-2.6,4.05l-2.17,.54c-.28,.07-.56,.1-.84,.1Zm-45.46-17.23c-.89,0-1.74-.36-2.39-.97,0,0-2.04,.02-2.05,.02-.95,0-1.86-.39-2.51-1.06l-1.11-.02c-.98-.02-1.91-.44-2.56-1.17l-3.11-3.5c-.51-.58-.82-1.3-.88-2.07l-.08-1.04c-.07-.96,.25-1.9,.9-2.61l1.38-1.52c.66-.73,1.61-1.15,2.59-1.15,.01,0,1.9,.02,1.9,.02,.65-.66,1.55-1.03,2.48-1.03,0,0,5.38,.04,5.38,.04,.59,0,1.17,.16,1.68,.45l1.79,1c.67,.38,1.2,.96,1.5,1.66l.46,1.07,1.37,.91c.96,.64,1.54,1.71,1.56,2.85l.03,2.01c0,.57-.12,1.13-.38,1.64l-1.3,2.57c-.6,1.18-1.8,1.92-3.12,1.92-.01,0-3.55-.03-3.55-.03ZM189.54,56.16l-5.21-.33c-.9-.06-1.74-.46-2.35-1.12l-4.49-4.85c-.89-.96-1.17-2.32-.73-3.55l3.55-9.97c.03-.08,.06-.15,.09-.23l.6-1.36-.23-1.49c-.14-.94,.1-1.89,.67-2.65l1.89-2.49c.34-.45,.78-.81,1.29-1.05l2.62-1.25c.47-.22,.98-.34,1.5-.34,.08,0,.15,0,.23,0l5.15,.34c1.41,.09,2.63,1.02,3.08,2.36l.67,1.98,.5,.26c.66,.34,1.19,.89,1.52,1.56l.99,2.02c.24,.49,.37,1.04,.36,1.58l-.09,7.71c-.01,1.01-.46,1.96-1.22,2.62l-1.22,1.05c-.49,.42-1.09,.7-1.72,.8l-.02,.83c0,.38-.08,.76-.21,1.12l-1.04,2.86c-.31,.87-.96,1.58-1.79,1.97l-2.68,1.27c-.47,.22-.98,.34-1.5,.34-.07,0-.15,0-.22,0Z" style="fill:#efc441;"/><path d="M188.75,29l5.15,.34,1.13,3.3,1.74,.91,.99,2.02-.09,7.72-1.22,1.05-1.69-.11-5.78-4.27,1.18-.55,4.79,2.52,.24-1.72-.98-1.48,.64-2.49-3.21-1.55,1.16-2.23-2.61-.3-1.65,1.99-.6,4.74-1.54,1.79-.36,2.22-1.99,1.92-1.03,3.4,.99,1.18,2.73,.94,3.82-1.28,.07-1.68-3.37-2.8,1.91-.26,1.76,1.14,1.17-.84,1.44,1.42-.05,2.49-1.04,2.86-2.68,1.27-5.21-.33-4.49-4.85,3.55-9.97,1.01-2.29-.38-2.49,1.89-2.49,2.62-1.25m251.59,316.23l5.35,.04,1.79,1.01,.87,2.02,2.23,1.49,.03,2.01-1.3,2.57-3.52-.03-.95-.98-3.52,.03-.91-1.04-2.66-.04-3.11-3.5-.08-1.04,1.38-1.52,3.55,.03,.83-1.05m50.8,19.23l1.3,1.49,.96,5.08-2.17,.54-2.74-5.11-5.77-.47,1.28-1.52h7.15m3.77,21.19l.44,1.54,1.37,.48,4.94,5.55,.49,1.52,3.53,1.01,3.62,4.08h1.75l1.39,1.55,.07,3.98-2.23,.54-3.6-4.08-5.35,.03-1.31-1.55v-2.99s-.96-2.02-.96-2.02l-4.49-5.05-.94-2.02-.02-2.02,1.32-.54m20.64,21.24l1.36,1.49,1.86,7.1-1.32,.48-1.36-1.55-.02-1.92-2.68-2.05v-2.02l2.16-1.52m4.58,11.11l1.38,1.49,2.7,6.07,2.75,3.09-1.3,2.49-1.37-.5-.5-2.52-2.2-.5,.86-2.05-5.43-7.02,3.1-.54m-96.6,1.99l1.81,.03,1.29,1.55-.85,2.96,1.81,4.08,.1,8.05,.87,1.04,.1,3.01,2.68,4.07v2.03l2.76,4.03,.9,5.02,1.82,2.05,.07,6.03-.86,2.09-1.36,.47-1.73-2.02-1.8-.03-.45-2.49,2.59-3.03v-1.05s-1.84-4-1.84-4l-.02-2.03-2.24-1.54-2.99,5.63,.97,10.03-2.59,3.1,.02,5.02,2.23,.5,1.75-2.09,2.67,.03,.83-1.05,.54,4.62,2.71,4.03v2.02l.93,2.02,6.33,7.04v3.04l.95,2.04,2.69,2.03-.87,2.01,.44,1.52,2.66-.03,2.69,2.05h1.8l1.74-1.02,1.73-3.06,1.78,1.08,1.28-4.59,1.32-.56,.93,1.07,3.09-.47-.93-1.05,.89-1.04-.9-2.99-2.69-2.07,1.3-.54,.92,1.05,1.75,.02,1.32,1.49,1.88,4.11,.02,3.98-3.94,3.56-7.07,2.03-3.51,3.03-6.19,.03-3.16-2.56v-1.05s-5.87-7.54-5.87-7.54h-.89l-2.25-2.52-2.74-5.06-3.99-4.54-2.67-1.02-5.01-5.6v-1.95s-.9-1.08-.9-1.08l-.08-4.01,.93-.97-.1-6.13,.87-.94-.21-19.23-1.84-3.06v-5.03l-.96-1.04-.08-6.07,2.64-4.01-.03-2.02,2.19-2.56m100.35,13.14l.87,1.05,1.8-.04,1.74-.97,1.33,1.55,.04,5.02-1.28,1.52-2.67-.03-1.32-1.49,1.3-.54,1.81,1.01,.44-.5-.94-2.02,.91-1.05-1.36-1.44-3.54-.03-1.39-1.48,2.24-.55m3.64,10.14l.45,.47-.36,1.52h-.95l-.84,1.04h-1.8l-.45-.5,.87-1.05-.87-.97,.42-.47,3.54-.03m.08,4.01l1.75,.03,.51,.47-.5,.5-.89,.07-.84,.94h-.95l-.42-.47,1.33-1.54m.01,3.06l1.75,.03,1.38,1.44,1.84,8.13,2.76,4.03v2.02l1.82,2.02v2.02s1.83,1.98,1.83,1.98v2.1l.86,.97,.09,2.02-1.72,3.03v2.02l-6.1,9.12,.02,1.97-2.6,5.04-1.27,2.57-2.73,1.04-1.73,1.99-4.4,1.99-2.67,.03-.87,.97-2.66,2.05-5.25,1.02-.87,1.04-4.47-.07-.47-2.49-1.35-1.55-1.74,.08-.93-1.08-4.41-1.01-2.25-2.54,.86-1.99-.05-4.04,1.32-1.51,1.3,.5-.85,3.04,1.39,1.48,.84-1.05,.89,.04,.94,2.02,2.64-.98,.45,2.52,1.38,1.49,1.3-.47v-2.02l1.28-1.52h.9l2.73,4.04,1.75-.03,2.15-2.49-.89-4.04,1.29-1.52,3.52-2.05h1.81l.9,1.05,6.2,2.02,3.07-5.55-.1-5.09,1.31-1.52,3.1-.44-.95-2.02-.02-2.12,2.69-.94-.11-6.13-2.69-5.02,.87-.97-1.76-.98,.86-2.09-2.74-2.02-.89-1.96,.86-2.01-1.74-2.13,.78-1.91-.85-2.02,.39-1.55m-2.57,5.05l.45,.5-.02,.98-.4,.54-.51-.54v-.98s.49-.5,.49-.5m6.43,21.22l.46,.5-.45,.47h-.85l-.45-.5,.44-.47h.85m-1.76,.97l.48,.55v.97s-.48,.57-.48,.57l-.39-.5-.04-1.04,.44-.55m-1.74,5.11l.45,.51-.82,.94,.02,2.02-.48,.57-.43-.5-.03-3.07,.43-.47h.86m-72.56,9.03l.93,1.08,2.25,.45-3.16,.49-.9-.97-4.88-.54,5.76-.51m55.01,1.05l.42,.5-2.15,2.49-.48-.5v-.97s1.27-1.52,1.27-1.52h.95m-23.92,2.02l.46,.5v1.05s-.43,.47-.43,.47h-.92l-.39-.51,1.28-1.51m-12.39,1.01l.45,.48-.87,1.04,.03,2.02-.5,.47-1.32-1.44v-1.05s1.3-1.52,1.3-1.52h.92m15.98,4.04l.45,.47-1.31,1.52-.43-.47v-1.05s.44-.47,.44-.47h.85m-3.52,1.99l.42,.54,.02,.98-.42,.5-.89,.07-.45-.5,1.31-1.58M188.75,22c-1.04,0-2.06,.23-3,.68l-2.62,1.25c-1.01,.48-1.9,1.2-2.57,2.09l-1.89,2.49c-1.15,1.51-1.63,3.42-1.34,5.29l.07,.48-.19,.43c-.07,.15-.13,.3-.18,.46l-3.55,9.97c-.87,2.45-.31,5.19,1.46,7.1l4.49,4.85c1.22,1.32,2.9,2.12,4.7,2.23l5.21,.33c.15,0,.29,.01,.44,.01,1.03,0,2.06-.23,3-.67l2.68-1.27c1.67-.79,2.96-2.21,3.59-3.94l1.04-2.86c.09-.24,.16-.49,.22-.74,.25-.16,.49-.34,.71-.54l1.22-1.05c1.53-1.31,2.42-3.22,2.44-5.24l.09-7.72c.01-1.1-.23-2.18-.72-3.17l-.99-2.02c-.52-1.06-1.31-1.97-2.27-2.65l-.25-.73c-.91-2.68-3.34-4.54-6.17-4.73l-5.15-.34c-.15-.01-.31-.02-.46-.02h0Zm251.59,316.23c-1.3,0-2.56,.36-3.64,1.02h-.67s-.04,0-.06,0c-1.97,0-3.86,.83-5.19,2.3l-1.38,1.52c-1.29,1.42-1.94,3.3-1.79,5.22l.08,1.04c.11,1.54,.73,2.99,1.75,4.14l3.11,3.5c1.29,1.45,3.11,2.29,5.05,2.34,1.11,.7,2.4,1.08,3.74,1.08,.02,0,.04,0,.07,0h.87c1.04,.6,2.24,.94,3.47,.95l3.52,.03s.04,0,.07,0c2.64,0,5.05-1.48,6.24-3.84l1.3-2.57c.51-1.01,.77-2.14,.75-3.28l-.03-2.01c-.04-2.3-1.2-4.43-3.12-5.71l-.51-.34-.05-.12c-.61-1.41-1.66-2.58-3-3.33l-1.79-1.01c-1.03-.58-2.19-.89-3.37-.89l-5.35-.04s-.04,0-.06,0h0Zm50.8,19.23h-7.15c-2.07,0-4.03,.91-5.36,2.49l-1.28,1.52c-1.69,2-2.11,4.78-1.11,7.2,1.01,2.42,3.28,4.07,5.89,4.28l1.97,.16,.94,1.76c1.24,2.31,3.63,3.69,6.17,3.69,.56,0,1.12-.07,1.67-.2l2.17-.54c3.61-.89,5.9-4.45,5.2-8.1l-.96-5.08c-.23-1.23-.79-2.37-1.61-3.31l-1.3-1.49c-1.33-1.52-3.25-2.39-5.27-2.39h0Zm3.77,21.19c-.89,0-1.78,.17-2.63,.51l-1.32,.54c-2.67,1.08-4.4,3.69-4.37,6.56l.02,2.02c.01,.99,.23,1.97,.65,2.87l.94,2.02c.29,.62,.66,1.19,1.12,1.7l3.68,4.13v1.3c.01,1.65,.6,3.24,1.66,4.49l1.31,1.55c1.33,1.57,3.29,2.48,5.35,2.48,.01,0,.03,0,.04,0h2.17s1.49,1.67,1.49,1.67c.45,.51,.96,.94,1.51,1.29,.33,1.65,1.25,3.14,2.6,4.18l.17,.13c.16,.64,.42,1.26,.75,1.84-.14,1.72,.35,3.47,1.44,4.87l3.14,4.06c-.14,1.29,.09,2.61,.68,3.81-.15,.32-.28,.65-.38,1-.71,2.39-.09,4.97,1.61,6.79l.87,.93c-.02,.33,0,.66,.02,.99-.75,1.36-1.02,2.9-.8,4.4-.29,1.99,.28,4.07,1.7,5.67l.45,.5c.13,.15,.26,.28,.4,.42-1.08,1.28-1.67,2.91-1.65,4.6v.98c.03,1.78,.73,3.48,1.96,4.77l.51,.54c.64,.66,1.39,1.19,2.21,1.55l.45,1c.32,.71,.76,1.36,1.29,1.92,.11,1.12,.49,2.19,1.11,3.13,.14,.49,.33,.97,.57,1.43l.13,.25c-.1,.1-.2,.19-.29,.3l-.44,.47c-.07,.08-.15,.16-.22,.24-.21,.2-.41,.42-.59,.65l-.44,.55c-.89,1.11-1.41,2.46-1.52,3.86-.13,.12-.25,.25-.37,.38l-.43,.47c-1.19,1.31-1.83,3.01-1.81,4.78l.03,3.07c0,.19,.01,.37,.03,.56-.43-.08-.88-.13-1.32-.13h-1.81c-.72,0-1.44,.11-2.12,.33-1.17-.84-2.59-1.3-4.07-1.3h-.95c-2.07,0-4.03,.91-5.36,2.49l-1.28,1.52c-.7,.84-1.2,1.82-1.45,2.87-.71-1.73-2.1-3.17-3.96-3.89l-1.3-.5c-.82-.32-1.68-.47-2.52-.47-1.25,0-2.48,.33-3.55,.97-1.07-.63-2.29-.97-3.55-.97-.04,0-.09,0-.13,0-2.01,.04-3.91,.94-5.21,2.47l-1.26,1.49c-.07-.08-.15-.17-.22-.25l-.45-.48c-1.32-1.42-3.18-2.23-5.12-2.23h-.92s-.09,0-.14,0l-.23-.49c-.29-.63-.67-1.22-1.14-1.74l-1.32-1.49c-1.05-1.18-2.47-1.97-4.01-2.24-1.16-.77-2.51-1.18-3.89-1.18-.9,0-1.8,.17-2.66,.53l-1.3,.54c-1.08,.44-2.01,1.14-2.73,2.01-.12,0-.24,0-.37,0-.21,0-.41,0-.62,.03l-5.76,.51c-.69,.06-1.35,.22-1.97,.47l-4.74-5.27v-.33c0-1.39-.41-2.75-1.19-3.9l-1.76-2.62-.16-1.35c1.48-.75,2.65-2.01,3.29-3.56l.86-2.09c.36-.87,.54-1.81,.53-2.75l-.07-6.03c-.02-1.69-.65-3.31-1.77-4.57l-.51-.58-.55-3.07c-.17-.98-.56-1.91-1.12-2.73l-1.54-2.25c-.03-1.32-.43-2.61-1.15-3.71l-1.59-2.42-.03-1.03c-.04-1.13-.35-2.23-.9-3.21l-.07-5.74c-.01-.95-.22-1.89-.6-2.76l-.78-1.75,.15-.51c.64-2.23,.14-4.63-1.34-6.41l-1.29-1.55c-1.3-1.57-3.22-2.49-5.26-2.53l-1.81-.03s-.08,0-.13,0c-2.04,0-3.99,.89-5.32,2.45l-2.19,2.56c-1.08,1.26-1.67,2.86-1.68,4.52l-1.46,2.21c-.77,1.17-1.17,2.54-1.16,3.94l.08,6.07c.02,1.22,.35,2.41,.96,3.45v2.52c0,1.27,.34,2.51,1,3.6l.86,1.43,.16,14.86c-.57,1.05-.87,2.24-.85,3.45l.06,3.58c-.6,1.07-.91,2.3-.89,3.55l.08,4.01c.02,1.17,.34,2.31,.91,3.32,.09,1.57,.72,3.07,1.77,4.24l5.01,5.6c.75,.83,1.68,1.48,2.72,1.87l1.05,.4,2.32,2.64,2.37,4.37c.26,.48,.57,.92,.93,1.32l2.25,2.52c.6,.68,1.32,1.22,2.12,1.61l3.05,3.92c.35,1.5,1.19,2.85,2.41,3.84l3.16,2.56c1.25,1.01,2.8,1.56,4.41,1.56,.01,0,.02,0,.04,0l6.19-.03c1.67,0,3.27-.61,4.54-1.7l2.35-2.02,5.59-1.61c1.02-.29,1.97-.82,2.76-1.53l1.82-1.64c.65,.22,1.32,.35,2.02,.38,.09,0,.18,0,.27,0,1.77,0,3.48-.67,4.78-1.89l.36-.34c.21,1.26,.77,2.47,1.68,3.49l.45,.5c1.33,1.5,3.24,2.34,5.22,2.34,.17,0,.34,0,.52-.02l.89-.07c.77-.06,1.51-.24,2.21-.53,.83,.67,1.81,1.15,2.86,1.39l2.27,.52c.48,.42,1.02,.78,1.59,1.05,.96,2.72,3.53,4.61,6.49,4.66l4.47,.07s.07,0,.1,0c1.64,0,3.21-.57,4.46-1.6l2.99-.58c1.07-.21,2.09-.67,2.95-1.34l2.07-1.6c.94-.02,1.87-.23,2.73-.62l4.4-1.99c.92-.42,1.74-1.03,2.4-1.79l.57-.66,1.09-.41c1.65-.63,3.01-1.86,3.79-3.45l1.24-2.51,2.57-4.98c.49-.96,.76-2.01,.78-3.09l4.9-7.33c.77-1.15,1.18-2.5,1.18-3.89v-.18l.81-1.42c.65-1.14,.96-2.44,.9-3.75l-.09-2.02c-.05-1.09-.35-2.14-.86-3.08-.07-1.65-.73-3.23-1.86-4.45-.16-1.46-.77-2.83-1.76-3.93l-.06-.06c-.12-1.16-.53-2.28-1.19-3.25l-2.01-2.93-1.54-6.82c-.15-.67-.4-1.3-.73-1.89,.02-.25,.03-.5,.02-.75-.03-1.45-.52-2.85-1.37-4,.78-1.16,1.2-2.54,1.18-3.96l-.04-5.02c-.01-1.65-.61-3.25-1.69-4.5l-.98-1.15c.09-1.8-.51-3.61-1.76-5.01l-2.03-2.28-2.26-5.07c-.31-.7-.74-1.35-1.26-1.91l-1.17-1.26-1.8-6.87c-.29-1.1-.84-2.11-1.6-2.95l-1.36-1.49c-.4-.43-.83-.81-1.31-1.12-.07-1.61-.7-3.15-1.78-4.35l-1.39-1.55c-.98-1.09-2.26-1.84-3.66-2.16l-1.68-1.9c-.88-1-2.04-1.72-3.32-2.09l-.44-.13c-.09-.11-.18-.22-.27-.32l-4.94-5.55c-.31-.34-.64-.65-1.01-.93-.69-1.17-1.71-2.12-2.95-2.73-.97-.47-2.02-.71-3.08-.71h0Z" style="fill:#cae3e8;"/></svg>