<svg xmlns="http://www.w3.org/2000/svg" viewBox="0 0 800 800"><path d="M248.11,559l.53-.27-.23-.63-.41-.37-.44-.32-.32-.39,0-.56.07-.67v-.68l-.26-.54-.2-.07-.44.22-.66.32-.28-.35-.34-.34-.44,0-.32-.32-.74-.44-.29-.15-.88-.58-.5-.57-.3-.54.16-.58.28-.35.52-.22.65-.17.59-.59.53-1.1.46-.66.85-.91.69-.85.46-.52.71-.58,1.56-.4.76.13.57-.08.74.17.64.32.71.17,1.12.1.74.17,1,.13.16.09.23.3.32.24.34.12.32-.07,0-.49,0-.29.13-.57.44-.51.23-.91-.25-.58,0-.54.05-.13.11-.17.1-.24v-.32l-.12-.2-.11.15-.21.44-.44.27h-.66l-.23-.49v-.66l.14-.74,0-.53.16-.86.05-.44-.12-.32-.27-.37-.35-.29-.32-.12-.36.22-.28.46-.34,1.13-.37.19-.25-.27-.05-.75-.12-1-.41-1.2-.3-1.72-.3-1.22-.09-1.55.39-.88.42-1,.23-.93.91-.4.28-1,1-1.91.73-1.54.39-1.08.51-.59-.21.61-.05.59.1.64.16.59.46-1.62.29-1.74.39-.71.62.15.83-1.13.85-1.05.8-1.25.71-.3.6-.61.71-.71.88-.56.41,0,.3.84.36.95.53.93.69,1,.76,0-.35-1.22-.18-1,0-1.08.28-.54.5-.49.37.64.25,1.08-.23.81.35.59.32.75.25.64.48.59.3.22,1.2.64.55.17.32,0,.55-.37.66-.22.05-.22v-.27l0-.22,0-.05.12-.22.05-.15,0-1.27-.14-.54-.14-.56-.34-.59-.19-.64.3-.31.76.14.32-.24.83,0,.62,0,.55,0,.44-.3.73-.46.67.07.45.44.35.69.27.39.37.1.62-.2-.3.57-.27.73,0,.66.67.3.41,0,.67.17.43,0,.87-.2.37,0,.83-.22.59-.49.3-.64v-.64l-.2-.46-.39-.62-.49-.51-.5-.15v-.22h.69v-.27l-.46-.09-.21-.25v-.32l.19-.32-.35-.09-.11-.22,0-.3.21-.37-.3,0-.14-.1,0-.2,0-.39.57.27.49-.22.41-.37.46-.19.2,0,.3-.07.21-.15-.14-.22-.27-.05-.56.27h-.29l-.49-.32.12-.27.37-.22.2-.24.26.07.52.12.62.05.46-.12.14.22.23.29.07.2h.25l-.32-.76-1.24-.32.39-.63.53-.3.48-.07.46-.12.39-.49.32.14.28.15.18.2.11.26.19-.83-.71-.27-1,.15-.71.44-.18-.54,0-.78.18-.74.46-.39.46.05.32.29.27.37.35.27.39.12.09-.07.05-.22.16-.32.3-.34.16-.1,0-.15,0-.39-.12-.19-.46-.13-.14-.17v-.17l.19-.15.16-.46.18-.05.09-.07-.13-.35-.23-.12h-.28l-.25-.05-.16-.32-.05.27,0,0v0l.09.14-.37.25-.37.07-.29-.12-.12-.42-.85.81-.32.17.07-.44,1.24-1.57.76-1.15.48-.56,2.57-2.3.66-1.33.4-.78.48-.15.55.22.11-.34,0-.32.09-.36h.23l.32.07.21-.22-.21-.37-.51-.24-.52.19-.74.08-.11-.32.41-.54.8-.76.58-.37.78-.32-.42-.41,0-.74.27-.39.37-.42.41-.24.32.07.56-.14.48-.08.13-.1.67-.63.76,1.49.48.59.85.34-.16-.39-1.13-1.42-.29-.54-.05-.59.16-.56.32-.44.12.32.23.32.2.19.12-.17-.07-.27-.3-.47-.07-.14.16-.71.32-.61.19-.64-.23-.74.34,0,.35,0-.12.18-.07.17,0,.22v.29l.09.27h.21l.32-.24.57,0,.16.1.3.32.16.1,0-.34-.14-.27-.23-.2-.3-.15.16-.07.14-.12.14-.05-.62-.25h-.28l.14-.34.12-.1.18.08.25.14.12-.54-.48-.19-.69,0-.53.17.11-.56.39-.1.51.12.57,0-.16-.1-.34-.27-.19-.1.19-.09.11-.08.14-.07.25,0-.09-.14-.14-.37.69-.17.69-.05v.22l-.16.32h.34l1-.32-.48-.12-.09-.25.13-.34.6-.76.21-.44.32-1,.39.29.27.08.26-.12.34-.37.37-.15.53-.12.22-.17-.52-.17-.46.07-.44.17-.34,0-.14-.57.23-.07.53-.12.55-.22.32-.47-.57.07-1.4.42-.46-.22-.14-.56.07-.64.18-.54.94.74.51.17.73.05.16-.08-.09-.14-.23-.17-.32-.08h-.34l-.28,0-.23-.15-.16-.32.55.05.46-.1.37-.24.25-.44-.53-.35-.32-.44,0-.46.55-.49.25.19.16.2.07.24,0,.37.48-.51-.21-.74-.09-.66,1.54-.54.41-.58.35-.67.48-.49V470l-2.05.47v-.25l.23-.07.23-.15-.85,0-.39-.08-.34-.22.11,1.57-1.95,1.18-2.41.44-1.31-.71.07-.32.49-.29.11-.27-.11-.15-.58-.29-.41-.3h-.14l-.09-.1,0-.36,0-.32.09-.25.12-.32.18-.9.16-.32.34-.22.49-.1.32.12,0,.27-.41.42,1.61-.29.48-.18v-.24l-1.15.24.16-.46.23-.39.9-1.13.55-1.25h-.35l-.18,0-.07-.15-.09-.29-.51.12-.39-.32-.41-.44-.53-.37.16.34,0,.4,0,.39-.16.34-.27-.17-.3-.05-.3.05-.28.17V465l.17.15v0l-.07.05-.1.29-.16-.14-.09-.05-.14,0-.27,0,.09.66-.09,1-.25.91-.35.39-.11.19-.12,1-.09.24-.55.08-.41-.32-.16-.49.2-.49L295.17,467l-.19-.29-.13-.61.16-.52.73-.05-.39-.53-.14-.25-.23-1-.13-1.08v-1.1l.07-.49.2-.41.39-.35.46-.12.46.07.35-.07.13-.47.12-.26.32-.25.41-.12.39.14.55.69.23.07.48-.14.6-.37.53-.54,1-1.32-2.82,0-.53-.09-.46-.62-1.24-2.2.94-1.42.21-.56.25-1.55.35-.54.76-.36v-.25l-.69.25.09-1,.37-1.69,0-4.9.09.32.14.27.18.22.25.19.14-.36.09-.59-.11-.54-.78-.44-.12-.49,0-.57-.07-.49.73.13.6.44.44.59.27.58h.21l-.39-1.15L299,439l-.21-1.2-.16.07-.39.12L298,438l-.3-1.46-.39-4.61-.21-.59-.2-5.39.16-1.22.29-1.15.44-1.05-.48-.32-.05-.79.09-.78-.16-.37-.32-.29-.16-.69-.09-1.44-.5.17-.3-.15-.12-.41v-.62H296l.16.17.12.1.13-.05.28-.22-.34-.22-.14-.34-.25-1.1,0-.12,0-.15-.21-.27-.16-.05-.55-.1-.21-.1-.36-.39-.26-.37-.27-.29-.48-.17H293l-.34.12-.23.22-.09.39-.39-.36-.39,0-.35.12-.25,0-.23-.39.07-.32.3-.22.44-.08.29-.36.78-1.77L293,410l.33-.1.73-.05.32-.09.42-.3.29-.32.33-.24.48-.1.59.2.51.34.55.2.76-.27.2-.22.07-.2.07-.27.14-.29,0-.15-.07-.42.05-.17.14,0,.23,0,.2,0,.09-.13.14-.39.39-.32.42-.27.32-.27.23-.36.16-.42.11-.42.07-.41-.09-1.5-.51-1.25-1.35-2.37-.11-.12-.23-.17,0-.79-1.31-3.87h-.25v1h-.21l-.55-1.57-.85-1.42-2.06-2.67-.37-.63-.12-.52,0-1.44.23-1.28,0-.61-.25-.46.23-.22,1.26,1.1.8,1.1.35-.27.34-.61.46-1.32.12-.69,0-.64-.05-.51-.09-.39-.62-.91.09-.29.78-.3.09.22.1.1.11.07.14.13.14-.57-.12-.49-.3-.41-.41-.25v-.24l.51-.93.16-.57,0-.76.44-.51.13-.81-.07-.81-.25-.56-1.15-1-.23-.27-.16-.24-.2-.25-.35-.22,0-.39.16-.76,0-.44-.09-.47-.25-.17-.35-.12-1.12-.69-.8.22-.65.54-.41.54.16.25.07.24-.25.05-.19.07-.25.15h-.23v-.91l.07-.44.16-.39-1.4-3.21-.67-.95-1-1-.48-.34-.87-.22-.16-.2-.14-.09-.39.14-.12.2,0,.29-.07.3-.3.17-.16-2.5.3-1,.91-.41.42-.64-.42-1.4-1.05-2.13h-.23l.23.42.09.14.16.15v.27h-.25l-.58-.83-2.45-2.82-.37-.22-.6-.07-.34-.22-.21-.44-.25-.42-.48-.17.23-.22-.44-.15-.39-.34-.55-.76-.25-.1,1.35-4.68,1.17-4,.81.17.73-.12.64-.39.51-.69.3-.9-.09-.79-.76-1.57-.3-1.12-.16-1.52.21-1.32.8-.47.34.2,1.68,1.52.32.39v.1l-.14.31v.15l.09.1.28.07.09.05.94,1.35.26.49.39,1.79.36.41.76-.07.85-.74,1.52-1.64,4.7-3.11,1-.95-.21-.66-.69-.71-.46-1.06.12-.44,1-1.34.87-2.06.71-.76,1-.56,1.12-.4,1-.24,1.27,0,.18-.14-.25-.57-.35-.36-.34-.3-.35-.32-.2-.51-.07-.88-.71-2.82-1-2-.3-.49-.87-1.38-.73-1.61-.23-.39-.44-.2-.46,0-.41-.18-.37-.61-.3-1.27-.27-2.48-.49-1.27-.57-1-.34-.3-.55-.22-1,.1-.33-.2,0-.83.27-1.05.37-.42.94-1.08.41-.9,0-.64-.16-.37,0-.29.55-.37.55-.12.53,0,.37-.27,0-.49v-.17l.07-.1.07-.1.09-.12.51.32.34,1.32.39.69.42.44.34.44.27.54.23.69.3,1.37.28.76,2.18,1.59,1.7.73.48.37.37.47,2.71,4.75.71.59.48.09h.92l.16.05.3.08.2-.47.28,0,.2.35,0,.59h-.2l-.12-.1-.14-.12v.9l.23.64.42.24.52-.29v.73l.46-.51.14.37-.32.58-.05.54-.16-.07-.36-.1-.17-.07.21,1.27.83.54.75-.12.07-.69h2.05l-.19.32-.18.34-.12.4,0,.41h.23l.13-.1.33-.17v.27l-1.15.47v.24l.3.05.18.1.28.34,0,0v.1l0,.12-.14-.17-.18-.1-.26,0-.32,0,.25.32.35.22.32.27.21.44-.83-.41-.92-.27-.78.09-.46.59,0,.17,0,0h.09l.09.05-.62,2,.89,1.25,1.8.61,2.08.05.39-.07.42-.15.34-.22.23-.29.12-.32,0-.22,0-.22-.05-.35.07-.29.32-.37.07-.32.21-2.23-.05-1-.41-.86-.07.3-.05.17,0,.19.09.32h-.21l-.16-.56-.14-.83v-.84l.39-1.22-.13-.76-.44-1.2-.18-1.18v-5l-.17-.66-.43-.29-.46-.2-.23-.51-.11-.64-.23-.61-.67-.76-1.06-.78-1.21-.62-1-.09v.26l-.39-.41.53-.91.83-1,.43-.76,3.31-1.1.83-.07,3.26-1,.43-.27.18-.29v-.4l.05-.41.16-.35.28-.22v-.22h-.23v-.27l.64-.09,2.27-.91.44-.34,1.49-1.6,1.72-1.27.78-.73v-.22l-.25-.42.3-.29,2-.54.8-.49.62-.08.28-.24.18-.34.3-.45,1.24-.95.27-.42-.29-1.25.34-1,.64-.84,1.13-1.05.32-.42.21-.54.39-3,.23-.49.18-.05.94-.39.14-.07.43-.17.16-.4,0-.66.07-.63.14-.32.37-.44.32-.22.27-.15,1.38-.47,1.08-.34.94-.59.8-.71.07-.88.23-.51.76.09.39.37,1.08-.07,1.17-.25.8-.34.25.1.28.17.16.29v.45l-.46-.23-.5,0-.46.12-.42.37.28.19.21.08.2-.08.26-.19.2.22.12.09.09.13,0,.31,1-.75.65-.35.75-.14.76.14.62.17,0,0,.85.22.46-.34,1.29-1.2.8-1.64.64-2.31,0-2.13-.37-1-.41-.54-.23-.22-.39-.71h-.53l-.46-.36-.34-.23-.67,0-.46.2-.39.31-.07-.36,1.88-2,.3-1,.58-2,0-.83.21-.78.44-1,.36-1.23.14-.73,0-.74.46-2,.09-1.18-.51-1.22,0-.74.19-.27.13-.12.26-.05.22-.15.14-.19.35-.81.23-.37.11-.22.12-.39,0-.42v-.36l0-.35.17-.36-1.08.63-1.38,1-1.33,1.52-1.38.81-.64-.1.5-1.2,1-.59.46-.34.29-.37.23-.36.19-.45.3-.41.09-.42-.14-.44.09-.29.76,0-.18-.29,0-.32,0-.32.18-.29.28.73.68-.17,1.22-.81.39-.34,0-.81-.19-1-.06-.83h-.23l-.28.17-.18-.25-.23-1h-.23l-.09.37-.12.22-.18.12-.3.07.14-.32.16-.66.13-.29.21-.2.41-.19.21-.22,1-1.13.32-.22-.19.59-.36.76-.12.61.53.27.46-.32.2-.76,0-.9-.09-.76-.14-.15-.25-.05-.33,0,0-.2.18-.46,0-.1-.07-.41v-.4l-.12-.29-.41-.1-.14-.17.16-.34.32-.32.35-.17.39-.05.43-.15.4-.24.29-.32v-.17l-.25-.37,0-.17.1-.08.25-.09.11-.08.28-.14.3,0,.2-.07.1-.44.13,0,.26-.32.2-.36v-.2l.21-.05.82-.42,2.21-.58.34-.3.32-.56.28-.34.18-.05.19.1.18,0,.16.1.07.22-.07.15-.14.1,0,.14.23.25v.24h.23l.18-.29.74-.71-.16-.29-.07-.27,0-.3v-.36l-.53.49-.14.24-.69-.39-.18-.69.27-.63,1.2-.44.52-.69.37-.15.39-.05.37-.09.37-.15,2.11-1.52,1.28-.32.69-.41.46-.57,0-.59.13-.36.19-.81.13-.32L376,216l.45-.22.62,0,.65-.27.41-.51.83-.71.07-.62H380l1.12-.09.55-.49,0-.67-.05-.63-.07-.2.21-.22.82.42.76.27,1.79.63,3.29,1.45,2.45.88,1.65.47,1.75.22,2.27.24,2.2-.15,1.34-.17-.49.39-1.65.35-3.24-.1-.39-.07-.36-.1-.37,0-.39.2-.09.29,0,.42,0,.39-.27.15-.14.46.36,1.06.83,1.69-.5-.3-.49-.56-.45-.32-.4.42-.22-.34H391l-.46-.25-.27.12L390,220l-.2.73-.07.49-.05,1.1.07.54.21.25.46-.18.2-.56.14-.64.35-.39v.37l.11.24.23.15.35,0-.07.34.07,1.35.5.24.55,0,.41-.32.14-.61-.37.22-.29-.1-.21-.34-.05-.54.12-.47.27-.34.19-.3-.12-.41.67.14.41.49.23.72.16,1.73.3.42.51.07,1.33-.07.23,0,.32-.19.64-.64.14-.12L398,223l1-1.91,0-.25,0-1,.37-.79.07-.29.09-.2L400,218l.12-.22.25-1.38.3-.8,2.09-3.24.11-.29-.09-.42-.48-.61-.14-.34,0-.39.19-.64,0-.34,0-.37-.32-.64-.09-.34.06-.15.33-.32.06-.17,0-.22-.09-.1-.09,0-.05-.1.09-.39.19-.35.43-.66.19-.22.13-.1.12-.14.05-.4.43-.88.53-.05.44.13.23-.18-.05-.88h.25l0,.25,0,.14.16.35.35-.52.09-.22.11.1H406l.07.15h.21v-.76l.32.29.25.57.39.14.32-.17.14-.39.14-.2.27.27h.26l.06-.24.14-.15.21,0,.25-.07.85.1.67.27.55.44.59.56.23.1,1.54.36,1.1.67,1.31.44,4.06.32,3.79-.32h6.36l3.7-.62.32-.19.2-.32,1-.83.85-.49.18-.15.25-.34.39-.86.16-.12.39-.12.3-.3.48-.71.37-.34,1.1-.54,1.93-1.94,4-2.27,5.85-5.1.62-.39,1.22-.44,2-.47.53-.26,1-.79.69.22.71-.37.74-.56.75-.27,2-.07.64-.17.53-.35.85-.76L465,185l1.47-1.13,1.79-.76.41-.59.62-.64.14-.39.05-.32.43-1.29,1.19-2,.35-1.22.73-1.06.23-.44.07-.71-.14-2-.16-.76-.18-.27-.32-.29-.28-.2-.13,0,.09-.47.27-.32.78-.49,1.06.42,3.44-.66,1.17.29-.13.66-1.38,1.55.5.29.51.91.59.29,1-.49.16-.12.09-.47.23-.41.3-.32.3-.17.44,0,.46.05.36-.05.14-.34-.14-.37-.23-.34-.11-.32.23-.37-.35-.27-.18-.27-.18-.24-.44-.17-.44,0-.41.07-.34.17-.21.3h-.21l-.25-.49L480,167.6l1.24-1.13.09-.17.14-.49.11-.1.62,0,.16,0,.51-.39.27,0,.42.2-.6.32-.46.41-.09.52.44.51.25.15.16,0,.5-.17,0-.09,0-.18,0-.17.14-.07.46,0,.14,0,.62-.34.39-.32.25-.42.09-.66-.07,0-.18,0-.12-.13.14-.29.21-.24.32-.15.32-.1.3-.05-.21.66.21.32.32.3.14.48h.2l.1-.12.13-.24.05-.27-.14-.1-.23-.1.16-.17.3-.17.12,0,.39-.24.48-.15.43-.22.33-.42-.42,0-.37.17-.27.2-.21.07-.34-.1,0-.29.3-.32.32-.24h-.36l-.35.07-.27.15-.19.24.07-.59.05-.19.14-.2-.44.3-.87.83-.3.34-.23-.22.34-.66.51-.56.62-.4L488,162l.65.12,1,.49.73.17h2.43l.69.15.69.34,1,.71.46.49.23.15.44.15,1.22,0,.29.15.67.54.69.27,1.54.29,1.1.61.66.52.35.61.16.19.14.3.13.68,2,3.7.23,1,1.27,2,.23.71-.21.81-.44.78-.39.54-.89.71-2.32,1.37-.69.79-.48.29-.58.22-.43.1-.16.32-.65,1.93-.16.3-1,0-.59.35-1.15,1.05-1.33.61-.9.25-2,.54-2,.53-1.95.57-2,.54-2,.53-2,.54-2,.54-1.95.57-.87.22-.65.49-.59.88-.32.66-1,2-1,2-1,2-1,2-1,2-1,2-1,2-1,2-.35.47-.6.15-1.24-.35-.66-.07-.67.15-1.86.73-1.44.08-.74.12-.59.41-.14.32,0,.71-.12.35-.25.39-.62.71-.28.42-1.14,3-.62.88-.62.64-1.47,1.08-.88,1.08-.78,1.61-1.6,4.93-.92,1.56-2.07,2.57L448.2,233l-.46.69-.55.58-.52.76-.26.71v.18l0,.51,0,.71-.67,7.91L444,251.41v1.43l-.28,1.42,0,.73.23.93.3.66.13.66-.27.93L443,260.48l-1.83,3.06-.85,2.45-.35.66-.55.59-1.33.9-.5.49-.62,1.6-2.69,4.21-1.17,3.08-.41.74-.6.61-1.24.91-.39.71v.78l.44.3.48,0,3.67-.1,1.4-.19,1.22-.64,1.15-1.15.57-.42.87-.27.76-.44,1.45-1.47.78,0,.2.27.42,1.32,0,.12-.11.32,0,.15.12.17.32.34.09.15.14.88-.09,1.52.18.78.6.89.64.17.67-.27,1.15-.81.27-.15.41-.14.39,0,.28.1h.25l.25-.27.65.64.55.34.18.41-.48.84.57.71.16.68.39,1.57.39,1.57.39,1.59.37,1.57.39,1.57.39,1.59.39,1.56.39,1.57.35,1.45.66,1.22.62.71.67.76.66.76.65.76.66.76.67.76.64.76.67.76.66.76.78.93.39.34.35.15.32.07.32.2.41.44.32.54.23.61.1.59-.07.58-.3,1.18-.05.59.19.81,1.12,2.22.71,2.48.07,1.37-.55.83h-.57l-.69-.12-.64.07-.35.67-.14.68-.3.56-.39.49-.48.45-.36.19-.39.15-.3.22-.12.41.16.32.71.88.23.4.14.63.09,1.55-.09.63-.66,2.21-.3,3.77.09.73.46,1.4.11.69-.13.8-.28.71-.21.74.1.86.94,1.59,1.21.95.65.22.82.3,1.65.34,2.76-.05,1.12.35,1.15,1.59.19.12.06.2-.32,1.44,0,.32.09,1.08.25,1,.37,1,1.84,3.8.57.74.39.26.92.45.46.27.78.71.39.22v0l1,.25,2.8.68,1.1.1.5-.1.37-.22.32-.29.44-.3.37,0,.34.07.23-.12-.09-.64,1,0,.78-.15.81-.05.94.27-.12-.59.21-.27.43-.07,1.13.05.28.2.2.29.39.29.23,0,.23-.08.46-.26.3-.08.16.15.09.19,0,.1,0,0,.67.05v-.05l0-.05.62-.17.73.19.67.59.41-.12.87-.42.53-.12.53.05,1.08.32.55.05,1.4-.3.5.08.3.24.09.42,0,.44.16.36.46.23,1.63,0,.39.22.27.22.32.1.6-.2.41-.32.28-.31.32-.22,2.37.26,1.81-.22,1.67-.66,1.43-1.07.36-.52.17-.34.25-.2.71,0,1.26-.47,1.47-.1,2-.51,1,0,.23.12.46.41.32.13,1.15.29.55,0,.94-.32.53-.12.25.24,1.7,2.3.32.2.55.15.34,0,.78-.12.33,0,.16.1.18.34.11.1.51.17,3.47,1.79,1,0,1.91-1.13,1.21-.34,1.24-.07,1,.27,1.08,1,.59.78,2.53,3.43,2.55,3.43,2.54,3.43,2.55,3.43,2.55,3.43,2.52,3.43,2.55,3.45,2.55,3.43,1,1.3h.44l.83-.25,1.6-.81.9-.17.69.37,1.42,1.74.76.61,1.9-1.15,2-2.06.71-.44.94-1,.65-.29.82,0,.69.18,1.26.58.6-.17.76.17.78.32.73.15,2.14-.12.71.12,2.13.71.76.07.69.17,1.4.69.8.1.46-.22.87-.81.37-.2,2.09-.12,2.46-.78.73-.08.69.1,2.2.64H601l3.81-1.47,1.47-.22,4.29.44,1.36-.22,1.17-.42.32-.07.32-.12.28-.27.16-.37.07-.37.16-.44.39-.12.46,0,.36-.07.35-.32.62-.68.41-.2.28,0,.59.19,2.35.22,5.27,1.3,1,.66.89.91.94.76,1.31.12h0l-.21.17-.66.54-.37.42-.16.49,0,1.39,1.24,2.06.85.66.25.71.1.83-.14.62-.42.36-1.21.57-.48.29-1.59,1.86-.3.57-2,2-.81,1.3-.53,1.42-.27,1.55v1.64l.39,2.13.05.68.11.17.51.52.11.19-.09.42-.21.3-.23.24-.2.27-.37,1.3-.19.17-.41.12-.34.27-.62.74-.3.19-1,.42-.16.14-.34.42-.19.17-.13,0-.39-.08-.14.05-1.26,1.1-.83,1.43-.3,1.49.32,1.37.3.59.21.54.13.63,0,.84-.07.32-.3.85-.09.42,0,.42,0,.36.07.37.12.34.2.35.6.76.14.24-.09.37-.14.24-.16.2-.07.17,0,1.59,0,.69-.44,1.39-.23,1.4,0,.83.07.22.3.64.09.25,0,.44-.12.24,0,.2.18.34-.23.69-.09,1.56-.25.59-.35.56-.16.79-.11,2-.21,1,0,1.15,0,.34-.18.3-.23.17-.21.24-.05.49.12.39.21.35.29.29.3.22v-.24l.62.46.26.47.27,1.27.14.12.41.17.14.22v.27l-.18.52,0,.29.09.47.48.78.12.47-.09.41-.6,1.18-.18,1.35.18,1.2.3,1.1.16,1.12.27.69.62.56.65.71.27,1.16.37.41.23.66-.09.59v0l.2.12.3.85.12,2.23.16.76,1.33,2.48.32.88.18,1.79.23.83.6.76.64.34h.62l.62-.12.69-.05,1.26.64,1,1.34,2.25,6.3.46.71.5.37,1.26.51,1.11,1.23-.17,1.51-.87,1.5-2,2.69-.41.34-.34.13-.74.14-.39.22-.64.62-1.43,1.42-1.44,1.42-1.45,1.42-1.42,1.42L621.78,502l-1.42,1.42-1.45,1.42-1.42,1.42-.85.81-.55,1,0,2.45.48-.41.27-.49.33-.44.68-.18.74,0,.37,0,.64-.34.27.12.37.45,1.4.71.83.17.66-.25.65-.17.59.51.49.81.25.66.18,1.62.19.78.41.32,1.49,0,.62.22.51.46.13.32.21.66.14.27.32.25.71.36.14.25.11.29.53.69.14.15.41.12.25.32.17.41.22.37.33.25.73.44.32.29.16.37.14.46.21.44.3.2.36.1.37.29.62.69.32.19,1.17.4,1.13.73.27.27.12.37,0,.68.18.32.21.71-.44.74-.64.66-.39.46,0,.66.53,1.38.23,1.1.55,1.52.3.46.51.32.59.2.51.29.23.56.11,1.94-.11.64-.16.27-.53.73.07.44.25.37.25.29.25.47.62.46.16.27.07.39.62,1.23,2.87,8.15.09.79v1.59l.14.69.32.78.72,1.27.32.76.13.79-.23,1.47.12.51.32.37.39.32.35.39.34.71.25.88.05.86-.62,1.32.16.83.71,1.55-1.28.27-2.19.63-2.91.88-.71-.12-.28-.9-.11-1.87.82-10.31L642,553l-1.15-3.77-1.28-2.82-3.67-5.17-.78-1.52L634,536.9l-.67-1.32-.85-.88-.53-.3-1.44-.54-.51,0-.32.19-.57.64-.3.15-1.17.17-.57.39-.92.83-1.29.66-2.57,2.92-4.06,5.75-1,1-1.33.81-1.11.44-1.19.29-1.19,0-1.13-.37-1.12-1-.9-1.39-.69-1.57-.75-2.28-.32-.66-.51-.49-.78-.34-.69-.15-.23-.12-.27-.27-.07-.27v-.71l-.16-.25-.3.25-2,5.36-.64,1,.23.15.84.12.3.42-.07.78.07.64,1.27.07.27.17.09.32,0,.44.11.25.28.22.57.29h-8.35l-6,0H577.69l-6,0h-5.83l-1.38-.2L562,547.48l-2.43-.54-1.28.1-2.32,1.1-1.38.13-.71-.1-.6,0-.57.15-1.43.78-.61.2H549l.22,1.4v2.45l0,2.45V558l0,2.45V563l0,2.45,0,2.45v4.61l.76.07,1.4-1,.83-.24.43,0,.44.08.3.19,0,.79.35.07,3.23-.49.78,0,1.45.54.35.05,1.1,0,1.08-.17.32.05.3.14.13.17.12.15.16.17.64.39.35.08,1.58-1.23.53-.14.55.09,1.67.93.49.37.57.76.55.39.25.27.1.32,0,.44.09.37.74.46-.19,1.3.53.57.78.31.39.25.23.29v.49l-.25.17-.32,0-.21.13-.07.76.32,1.59v.81l-.23.39-.34.27-.23.32.09.49.28.26.71.37.25.25.37.81.14.63-.21.47-.64.19-.3,0-.62-.24-.37,0-.25.18-.37.53-.23.18-.55,0-1.21-.2-.62,0,.16-1-.32-.39H567l-.76.22-.66.35-.23-.15L563,584.76l-.6-.44-.68-.17-.85.12-.67.32-1.08.73-.62.08-.66.32-.37.78-.48.59-1.08-.22-.94-.47-.51.05-1.28,1-1.17.67-1.27.49-1.35.29-2.3.15-.66.22-.64.09-.78-.17-.76,0-.74.36-.62.18-.5-.47-.05,2.47,0,.94-.07,2.4-.09,3.4-.09,3.89-.12,3.9-.09,3.4,0,2.4,0,.91,0,1.79.18,1.27.39.74,1.31,1.61,1.7,1.67.75,1.17.37.32.62.27,1.33.32.58.39.2.32.32.81.26.37.34.24.76.39.34.25,1,1.17.51.44,2.68,1.06.58.34.57.51.41.64.28.74.16.78v1.05l.07.37.18.34.23.3.19.29.09.44-.23.84-1,1.69-.23.63.34.86,1.26,1.52.28.49-.12.93.1.37.29.49.23.22.26.14.23.2.18.37,0,.41-.06.35,0,.36.21.47.3.27.71.32.32.22.74,1.12.2.2.35.05.16.07.11.15.12.27-.07.1.18,1.34-.07.39-.2.74v.42l1.26,2.18.37,1.07-.74,2v0l.09,1.62-.55,3.31,0,1.64-.62,2.45v.71l-.48,1.81-.37,2.18-1,5.78-1,5.75-1,5.78-1,5.76-1,5.78-1,5.78-1,5.76-1,5.78-1,5.75-1,5.78-1,5.78-1,5.78-1,5.76-1,5.78-1,5.78-1,5.78,0,.07,0,.08,0,.07-.05.1,0,.07,0,.08,0,.07,0,.1,0,.07-.05.07,0,.08,0,.1,0,.07-.05.07,0,.08,0,.09-1-2-.57-.94-.69-.83-1-.88-3.4-1.84-.89-1-.34-1.18-.19-1.3-.41-1.25-.8-1.22L535,748.45l-1.26-1-1.28-.49-1,.09-.73.47-1.31,1.3-.87.39h-.9l-1.79-.49-.34-.25L521,746l-1.46-.17,1.12-1.89,2.64-4.38,2.62-4.39,2.64-4.38,2.61-4.39,2.64-4.38,2.64-4.39,2.62-4.38,2.64-4.38.76-1.28v0l-.19-.08-.39-.31-.27-.42-.21-.54L541,704.6l-.36-.27-.69.49-.19.32-.16.39-.18.3-.27.07-.33-.17,0-.32V705l-.09-.36-.67-.54-.57.17-.55.27-.62-.25-.39-.63-.46-1.55-.44-.66-.73-.36-.65.22-.66.44-.83.22-.16-.1-.21-.27-.16-.32,0-.29.16-.17.57-.25.17-.1.16-.78-.44-.34-.71-.1-.71,0-.37.08-.8.36-.35,0-.39-.22-.18-.29-.12-.37-.2-.39-.42-.39-.59-.3-.62-.22-.58-.07-.52-.27-.42-.51-.43-.3-.58.39-.09.32,0,.42,0,.34-.25.15h-1.38l-.25-.2-.05-.44V697l0-.37-.21-.39-1.06-.93-.13-.07v-1l-.07-.29-.19-.18-.85-.12-.64-.14-1.22-.49-1.17-.81-1.74-2-1-.66-.69.31-.85-.17-1.42-.63-1,0-.34.49.07.81.32.91-.32.19-.39.05-.41-.1-.85-.54-.44,0-.94.2-.76.36L505.2,693l-.94.52-.64.54-.35.07-.37-.12-.39-.32-.36-.1-.51.22-.71.39-.62.15-.25-.49-2.41,1.25-1.13.27-.39-.76.14-.27.46-.44.09-.32-.11-.37-.81-1.07-.57-1.11L495,691l-.45.49-.35,1.35-.25.44-.53-.29-.23-.54-.05-1.5-.16-.68-.39-.3-1.92-.41-.69-.42-.62-.51-.67-.42-.8-.15-1.1.61-.67.13-.27-.62,0-1.27-.25-.19-.74.36-1.95,1.33-.34,0-.16.37-1.22,2-1.58,1.3-.23.27-.16.81-.42.44-.59.14-2.09-.31-1.1,0-.94.39-1,.86-1.46,1.81-.51.17L469,696.1l-.34,0-.85.2-.18.14,0,.74-.09.24-.28.1-.78.1-1.35.37-.74.07-.64-.15-.57-.34-.46-.44-.16-.42-.3-.29-3.45-.57-.64-.22-1.51-1.32-.6-.34-.6-.1-.43.59-.88,2-.43.41-.55.2L453,697l-.11-1-.1-.34-.13-.32-.16-.27-.42.22-.27.25-.16.34-.09.44-.88-.66-.57-.22-.83.44-1,.37-.39.41-.46.17-1.42.32h-.33l-.25-.24-.32-.59-.57-1.67-.49-.44-.11-.19-2.32-1.37-.07.39-.39.81-.46.41-.2-.76-.28-.32-1.47-.39-.55-.39-.09-.27-.16-1.08-.12-.17-.45-.39-.1-.17-.07-.22-.32-.54-.07-.34.05-.37.12-.22.29-.39,1.22-1.18.32-.78,1-1.74-.46-.44-.25-.76-.19-.81-.23-.69-.59-.9-.23-.47-.12-.56.05-.51.34-.91.07-.32-.2-.61-.79-1-.18-.49.25-1.35-.23-.39-.27-.2-.32-.14-.32-.25-.9-1h-.34l-.14.93-.21.12-1.12-.29-.53,0-.53.56-.25.39-.35,0-.8-.78-.44-.27-.39-.07-.36,0-.48-.05-.37.05-.16-.05-.05-.12-.11-.47,0-.14-2.16-1.4-.69-.91.07-1.37.39-1.2.3-.54.81-.51,0-.69-.37-1.49,0-.47v-.36l-.05-.37-.27-.37-.69-.56-.39-.64-1.24-.61-.3-.54.53-.68.16-.37-.53-.27L424,659l-.13-.27-.07-.24-.05-.78-.07-.3-.09-.27-.14,0-.43,0-.14,0-.07-.17,0-.39-.25-.54-.07-.39-.18-.32-.78-.25-.64-.51-.37-.12-.78-.12-.64-.4-.46-.54-.3-.63-.51.19-.52.91-.56.34-.41,0-.53-.12-.89-.35-.48-.32L414,653l-.59-1-.51-1.42-.2-.34-.55-.22-1.06.27-.46-.27,0-.29.33-.64-.05-.3-.28-.24-.16.1-.11.22-.14.15-.37.19-.16.17-.18.08-.41-.2-.28-.24-.16-.3-.8-2.5-.37-.36-.53,1-.92,0-2-.83-2-.37-.89-.54-.74-1-.48-1.64-.34-.47-.83-.58-.2-.35.22-.41.42-.08.55.1h.46l.2-.39-.18-.47-.34-.36-.21-.42.28-.59-.28-.12H399l-.33-.12-.22-.15-1.13-1.35-.25-.51,0-.69.16-.31.44-.4.07-.24-1.61-3.7-.07-.32v0l0-.39-.09-.35-.16-.17h-.46l-.16-.1-.3-.49-.44-.54-.41-.36-2-1.3-.9-.74-1.4-1.59-.94-1.71-.32-.27-.37.07-.27.2-.21.14-.18.1-.46,0-.21-.12-.09-.2-.18-.17-.23-.17-.14-.17-.21-.1-.82-.08-.67-.19-.34-.05-.6-.2.25-.49.94-.76-1.15-2.47-.48-.71-.71-.66-.39.1-.83,1.42-.39.32-.32,0-.57-.2-1.15-.27-.71-.34-.44-.37-1.37-1.59-.21-.17-.32-.1-.6,0-.27-.1-.39-.39-1.31-1.94-.64-.53-.72-.4-1.51-.41-.67-.1-.5.12-.32.37-.12.68-.18.47-.42.54-.52.44-.51.17-.62-.39-2.13-.83-1.86-.37-.67-.52-.8-.29-2-1.27L357.37,609l-.59-.2-.35-.24-.41-.52-.53-.49-.69-.24-.62.07-1.44.37-.78.07-.74-.07-.64-.17-.55-.22-1-.57-1.33-1.07-.27-.49-2-1.35-.85-.81-.37-.59-.14-.68-.18-.44-2.23-3-.16-.42-.32-.54-.76.1-.85.3-.6,0-.18-.27-.18-.95-.21-.4-.27-.12-.37,0-.74,0-.82,0-.74-.17-.66-.32-.65-.44-.91-1.05-.35-.15-.37.1-.59.49-.19.12-.18.17-.83,1.06-.32.12L330,596l-.72,0-.32,0,0,.22-.1,2.67.35,2.38-.6.42-3.33.41-.85.49-.5,0-.62-.22-.9-.91-.52-.39-.49-.14-1.65-.2-1.15-.34-.41.17.07,1.42-.51,0-1.19-.56-.41,0-2.34.37-.51,0-.48-.17-.57-.46-.74-.79-.32-.24-.57-.22-.42-.08-1.33,0-1-.37-1.28-1.54-.69-.17-.46-.12-.58.09-1.69.69-.74,0-.53-.17-.48-.27-.64-.25-3.56-.78-1.17-.44-.92-.76-.34-.91-.14-1.05-.3-1.23-.23-3.74-.43-1.74-1.4-.37-.17,0-1,.15-1.24-.51-2.2-1.64-.71-1.11-.21-2.59-1-.83H285l-2.66,1.07-.69.15H281l-.74-.17-.78-.32-.34-.34-.07-.37v-.42l-.12-.36-.32-.37h-.16l-.18.07H278l-2.29-.9-2.37-.1-1.42-.74-4.36-3.52-.69-.4-2-.56-.64-.34-.78-.64-3.17-3.75-.37-.29-.22-.2-1.86-.46-.51,0-.48.29-.18-.59-.72-.78-.13-.37,0-.68-.32-.1-.46.15-.53.09-.78-.27-.66-.53-.51-.71-.34-.81-.35-.59-1-.86-.69-1Zm23.39-42.69.05.17.78,1,.3.76,0,1.15-.36,1-.92.29-.78-.51-.9-1-.76-1.08-.32-.78.12-.49.23-.22.23-.17.16-.37-.25-.39-.49-1,.07-.42.32-.19.58.32.73-.25.71.42.19.66.25.32.09.46Zm7.67-2.47.48.32,1.26,1.76.51.42,1.12.68.58.49-.81.54-1.05,0-1-.24-.62-.35.25-.22-.25-.27.71-.71,0-.44-.44-.24-.59-.08-.53-.36-.21-.76.14-.62Zm3.24,1.22,1.28,1.06.46.51-.18.54-.55.07-.88-.46L281,515.59l-.92-1.29-.21-.42-.11-.42-.05-.41.1-.18.27.27.12.1.36.15.09-.22.1-.1.11-.07.14-.13.94,1,.11.27.17.68Zm15.19-57.43.69.37.69-.1.69-.17.64.14-.6,1.06-.43.41-.44-.19-.57-.79-.83.35-.8.12h-1.77l-.64-.17-.44,0-.5.1-.3.27-.21.32-.27.27-1.22.41-.14.1-.14-.29v-.52l.16-.46.33-.2.43-.14.74-.71.43-.15.44.05.83.19h.45l-.16-.29-.5-.37-.25-.32h1.17l-.81-.19.1-.35.55-.39.59-.32-.18,0-.12-.08-.13-.07-.26-.05.05-.15.05-.1.16-.24.89.49.51.46.36.52.28.59ZM151.45,160l-.3-.73.12-.71.34-.64.51-.39.16.42-.62,2.74-.41.07-.21-.34Zm11-28.95-.11-.81.25-.78.43-.39.49.27.16.64-.21.53-.44.37Zm-7.69,337.61-.11-.07,0-.1.05-.2.16-.19L155,468l.07-.09,0-.32.18-.1.18,0,.19,0,.09,0,.11.47,0,.07-.16.07-.14.15-.16,0-.42.4Zm114.86,34.71.46-.44.3,0-.07.49V504l0,.49-.49.59-.39.34-.5.15-.39-.15V505l.53-.07.16-.52.16-.71Zm87.18-265.23.37-.37.25.17.42.2.59.17.09.44-.36.41-.32,0-.39-.13-.28.2-.09.44-.12.27h-.29l-.12-.44-.05-.59.1-.47Zm-151-116.52v0l0,0v.05h0v0l0,0v-.05Z" style="fill:#efc441"/><polygon points="209.18 40.58 209.25 40.53 209.3 40.61 209.23 40.61 209.18 40.58" style="fill:#efc441"/><polygon points="254.54 38.13 254.43 38.06 254.54 37.94 254.54 38.13" style="fill:#efc441"/><polygon points="254.54 38.13 254.43 38.06 254.54 37.94 254.54 38.13" style="fill:#efc441"/><path d="M214,40.83l-.14-.13.23-.14Zm-4.85-.25.07,0,.05.08h-.07Zm.21-.1,0-.07,0,.05Zm7-2,0-.15.13.07Zm1-.1,0-.13,0,0Z" style="fill:#efc441"/></svg>