<?xml version="1.0" encoding="UTF-8"?><svg id="Layer_1" xmlns="http://www.w3.org/2000/svg" viewBox="0 0 677.68 684.85"><path d="M450.64,59.12l1.91-.29,.96,.57,.69-.14,1.1,.59v.45l-.54,.43v.73l.96-.14,.96-1.02,.14-.89,.96,.3,3.3,1.75,3.97,4.97,5.23,10.1,3.55,10.53-.4,6.88-3.03-3.81-5.15-13.89,3.43,17.25-.41,7.03-5.75,5.27,3.01-.59,2.06-1.59,1.93-1.75,2.74-1.9-.96,1.16-.27,1.32,.4,1.59,.83,1.75,.69-2.63,.83-4.78,1.23-2.79,9.56,28.67,12.2,30.59,14.34,25.49,38.23,53.4,3.03,2.5,12.74,16.68,7.97,8.19,4.67-2.77,1.93,1.16,5.21,1.02,1.1,1.59,.13,4.11,.69,3.36,1.37,2.92,2.74,2.93,9.34,14.78,2.88,2.2,11.52,16.68,8.76,8.78,5.08-1.75,1.23,3.36,1.1,8.78,1.78,3.95,3.19,2.49,13.45,4.97,4.78,.59,4.67-.14,4.38,.29,3.84,2.2,5.08,8.04,3.43,2.2,.13,.14,2.2,8.19h-1.59l-3.03-1.59-3.01-.57-1.39,2.29-.96,8.19-1.24,2.77-2.6,.45-3.84-.59-3.43-1.16-2.07-1.02-2.06-2.5-2.6-5.26-2.06-2.47-1.59,.88-1.93-.73-8.36-7.61-11.65-4.97-3.71,.43-3.7,3.38-2.33,3.5-.29,1.91,2.34,4.67,1.37,5.86,.96,1.31,1.23,.45,.97,.59-.27,1.75-3.03,1.75-10.69,1.59-3.71,1.32-1.7,3.04-.4,4.09,.13,17.84,.27,25.9,.56,35.27v2.49l5.89-2.79h2.01l1.37,1.18,.69,1.59,.54,1.59,.96,1.32,1.1,.88,4.52,2.04,9.19,7.31,9.19,3.19,2.74,1.9,5.07,9.37,.83,2.04-.14,.3-2.74,4.68-6.12,4.06-20.57,9.06-2.33,1.75-2.06,2.79,.96,.88,1.59,1.16v2.93l-1.91,2.2-5.89,4.09-1.59,1.75-.27,3.19,.96,3.07,1.78,2.79,6.37,7.6,3.3,4.99,2.6,5.56,1.59,6.58,1.24,14.93-.69,7.6-1.94,6.29-4.52,5.86-5.21,2.77-5.62,1.91-5.77,3.07-8.91,9.06-9.06,5.42-1.77,1.59-.29,2.63,1.93,2.2,5.62,3.5,.96,1.18,2.06,3.07,1.1,.88,1.24,.14,2.45-1.02,1.78,.14,3.44,2.06,1.37,2.18,.96,6.88,10.56,24.58-.97,9.65-1.23,4.78-2.74-2.18,.27-3.38,1.59-3.5,.96-3.36-.54-2.64-13.8-24.92-4.78-5.42-24.95-19.32-6.72-7.17,5.89-7.6,1.1-.59,1.1-2.2,2.2-2.92,1.37-3.19-1.37-3.52-6.37-8.78-1.1-2.34-.13-3.19,1.37-1.16,2.6-.73,3.03-2.06-2.34-.88-5.75,.29-2.88-1.02-1.59-1.9-3.97-8.35,.69-1.16,.27-.73,.41-1.18h1.37l1.91,3.52,.56,1.75,.27,2.77,.83,.59,6.02-2.63v-1.59l-2.74-1.18-2.88-2.34-2.6-2.77-1.37-2.49h-1.4l-1.59,2.63-3.7,.14-4.13-.43-3.19,.57-1.5-2.92-2.34-2.93-2.74-1.59-2.88,1.59-6.37-3.95-1.93-3.19,1.24-4.68h-2.42l.83-3.5-2.88-1.59-4.25-1.02-3.3-1.16-1.23,2.63-1.1-.29-1.23-1.04h-2.07l-.96,1.18-.27,1.59-.83,1.32-2.74,.43-6.58-1.02-2.74,1.02-.96,4.4,1.5-1.32h1.24l6.99,11.26,.96,3.36,4.11,6.88,1.59,2.06,2.6,1.47,7.55,2.49,3.01,.29,2.74,1.75,2.61,3.52,2.47,2.34,2.45-1.59,.14,5.26-.41,2.2-1.23,1.47v1.47l3.01,4.38,1.24,7.47-.56,7.97-2.2,5.42-4.38,.14-7.41-2.49-6.85-3.66-3.3-2.93h1.24l.81,.88,.83,.3,2.74,.29-3.97-1.75-1.59-1.18-1.59-1.59v3.07l-11.52-5.42-4.13-.57-12.33,1.59h-3.44l-2.87-1.47-2.61-2.93-4.94-6.72-17.41-17.27-1.1-2.06-.83-.14-4.11-1.75-1.23-.88-.69-6.74,6.17-9.94,1.37-1.75,3.19-2.06,2.2-.88,.96,.59,.69,1.31,1.37-1.47,4.78-7.97,1.37-1.59-2.61-3.36,3.01-3.81,5.62-3.19,4.94-1.31v-1.32l-4.38-.59-2.2,.3-1.59,1.16-2.33,2.63-2.33,1.32-.83-2.2,.96-3.65,3.12-3.74,4.94-2.63,2.33-1.59,.97-2.49-1.24-2.2-2.6-1.47-2.47-2.06-.41-3.79,3.84,2.18,1.91,.59h2.47l-1.23-1.47-1.51-1.31-2.88-1.59-1.23-1.04-.69-1.02-1.1-.73-2.33-.14,2.33-1.47-.27-1.16-1.37-.88-.69-.73,.81-2.34,1.1-1.77,1.37-1.59,2.06-1.75-5.34-14.93-.97-1.9-3.28-3.81-1.37,1.47-4.52-6.29-4.13-7.17-5.21-5.75-8.09-1.59,.56-5.56-4.4-4.68-6.17-3.36-4.38-1.18-15.77-16.09-15.5-7.61-2.47-2.04-19.2-8.06h-1.23l-1.39,.89h-1.08l-.97-.89-.69-1.59-2.74,1.18-1.59-1.32-1.93-2.04-3.43-.73,2.2-3.95-2.88-5.56-5.21-4.99-5.07-1.75v1.47l1.77,.29,1.24,.59,2.6,2.06-5.21-1.04-8.22-5.11-5.21-1.18-5.08-.43-27.03-8.08-5.07-.45-2.47,.45-2.47,.88-2.74,.59-2.61-.45-2.33-2.06-.83-2.63-.96-2.04-2.74-.59,.54,.88,.27,.59,.41,1.59-3.28-2.79-7.41-5.11-1.51-3.19-.69-3.07-1.78-1.32-2.2-1.02-2.18-1.47-.69-2.2,.27-2.2-.56-1.45-3.19,.14,.83-2.49-.27-2.34-.41-2.2-.14-1.91,1.24-2.49,3.43-3.65,1.37-3.66,1.37-1.75,1.37-2.34,.69-3.07-.69-2.63-1.5-2.2-3.19-3.36-8.09-12.89-2.23-1.85-3.19-1.47,.4-3.19,2.74-4.97-4.78-4.4-.96-2.04,1.1-3.19-5.77-1.91-17.83,1.91v-1.59l2.47-1.04,3.19-.29h6.99v-1.47l-6.37-.29-5.62-1.18-5.21-1.75-4.78-2.77-6.02-5.42-.97-1.18-1.23-.29-2.61-1.75-1.78-2.06,.97-1.02-3.3-1.91-8.22-8.19-4.4-2.34-2.15-1.99-1.23-.59-.97,.59-.96,.73-1.1,.29-1.78-1.59,1.24-2.2,.41-1.47-.97-.73-.81-.43-2.61-2.56-3.57,1.31-13.57,.16-3.57-1.04-3.28-2.34-4.94-5.56v-1.31l1.1-3.95-3.36-4.52-8.65-6.37,1.24,4.38,5.75,4.54,1.37,5.27,.56,9.94,1.1,5.86,2.47,4.09-2.61,1.75,.27,2.93,2.47,2.92,6.04,2.2,2.2,2.49,2.6,5.42h1.13l1.59-.59,.69,.45,.41,1.59-1.78,.14-1.78-.29-1.78-.59-1.51-.73v1.47l3.84,3.5,4.54,4.25,12.2,5.26,1.5,1.04,1.37-.59,3.3,1.32,7.68,4.78,3.57,1.16,3.84,.14,3.57-1.75,2.47,2.06,4.92,3.36,2.34,2.2v1.31l-3.98,1.04,.14,3.07,2.47,3.65,2.6,2.64-1.59,.57-1.59,1.18-2.47,2.63,3.03,1.47,3.57,.45,7.12-.3v1.47l-2.74,1.9-3.7,1.59-3.03,2.34-1.37,3.66-.69,.88-4.78,2.93-.83,1.59-1.1,3.95-.81,1.75-6.18-3.36-3.43-.3-1.37,2.79,.83,1.9,3.19,4.11-.56,.88-6.37,3.36-1.1,.29-.69,1.04-4.78,2.63-.96,1.75-4.38,14.78-1.78,3.81-2.49,3.39h-1.51l-5.62-12.3-16.58-24.13-1.1-2.79-.83-1.02-1.91-1.32-4.94-2.18-.41-1.59v-2.06l-.14-1.47-4.78-5.56-6.58-4.09-21.52-8.19-1.93,.43-2.88,2.2-1.37,.43-1.91-.43-2.74-2.06-2.2-.57-1.24-.16-.4-.29-.29-.59-.81-1.02-1.37-.73-1.1,.45-.83,.57-.14,.45-11.37-3.81-5.35-1.02-1.23-.73-1.1-1.02-1.51-.89-2.33,.16-1.51,.88-1.23,.14-1.78-2.49,1.37-4.09-2.06-5.42-20.57-26.8-1.24-2.49-1.59-5.7-2.47-4.11-7.82-20.33-.69-6.15-.81-3.81-1.24-2.63,2.88-2.93,1.1-2.04-.41-1.77-4.25-5.85-2.74-1.75,1.51-2.06,3.43-2.93,2.33-3.65,1.59-3.66,3.43,1.47,1.91-2.2,1.37-3.36,4.25-3.5-1.59-3.81-3.03-4.09-2.06-2.2,1.24-1.02,.54-.3,.97-.29v-1.47h-2.76v-1.47l2.34-.43,1.5-1.47,1.59-4.09h1.37l2.74,2.34,3.98-1.59,3.97-2.5,3.19,.45h1.24l-.29-2.93,.69-1.31,1.1-.73,1.1-1.04,1.78-3.36,.69,.29,2.61,.16,5.89-6.74-.41-1.75-1.1-1.32-2.49-1.9-8.22,8.78-.29-.73v-.59l-.13-.29h-.96v-1.32l2.33-2.66,1.37-1.18,1.78-.57-1.37-1.47-.27,.14-.29,.45-.4,.43-.56,.45,.41-1.75,.14-.73,2.33-.59v-1.32h-1.37v-1.59l3.28-2.93,.69-7.31-1.08-14.19-3.03-3.81-6.72-3.19-6.63-1.19-2.96,2.13h-1.24l-5.48-4.78-1.59-1.91,.96,.45,1.24-.59,.4-1.32-1.08-1.45-1.51-.3-3.84,.3h-1.59l-5.91-2.34-4.52-2.93-5.21-2.34-7.54-1.02v-1.59l4.52-1.32,8.51-4.09,4.65-.59-.69-1.32-.69-.73-.83-.57-1.77-.3v-1.5l9.86-.57,2.47,.57,1.1,1.59-.27,2.06-.56,1.59,.41,.59,.83,.43,2.61,2.5h1.23l1.51-1.59v-1.27l-2.34-2.34,2.2-1.59,4.25-.59,4.11,.14,1.37,.73,1.78,1.91,1.59,.29,1.24-.45,.54-1.31-.13-1.47-.97-1.18v-1.64l2.88-1.16,.96-2.34-.86-2.87-1.51-2.49-1.51-1.02-3.43-1.59-1.37-1.02-1.59-1.91v-.43l.96-.3,1.37-1.02,3.03-3.07,1.77,1.02,2.07,2.06h4.11l2.33-2.34-.54-3.19-2.06-2.93-2.47-2.04-1.78-.73,4.94-8.35,3.57-8.59,5.62-8.04,6.72-3.07,5.77,3.19,5.62,5.42,6.37,3.81,20.3,7.97,27.08,10.69,7.14,2.77,28.8,11.42,32.35,12.74,4.52,.43,4.67-1.75,20.71-14.48,14.8-10.53,6.37-1.47,3.57,1.59,7.68,5.85,3.43,.45,4.4-.16,4.52,1.47,10,4.78,1.1,.3,1.1,.43,.96,.59,.83,.59,4.52,6.17,1.59,1.59,1.93,1.04,2.06,.88,2.2,.29,1.91-.88,10.83-7.46,1.59-1.04,1.93,1.04,.41,1.59v2.18l.4,2.64,.83,1.59,2.74,3.5,.56,1.47,2.06,2.2,9.32,3.81,2.2,1.47,1.78,2.18,3.84,2.06,3.43,3.07,.69,5.26-2.74,1.47-.83,.59-.81,1.75,.27,1.18,.81,.88,.56,.73,4.38,3.81,.97,1.45,2.33-1.75,3.01,.14,1.51,.16,1.78,.29,2.33-.45,3.71,3.95,2.33,.88,2.33-1.9h1.37l2.47,2.63,4.94-3.36,3.43,.73,2.34-2.49,2.74-.45,2.2,1.59,.96,3.66,12.15,10.18,1.37,.73,1.78,.29,1.93-.45,2.88-2.04,1.37-.45,5.34,1.18,.83-.45,4.11-5.19,13.3-5.42,.96-.29,13.17-3.38,7.12-3.66,.56-5.86-1.93-7.76v-4.76l-2.06-1.16,.56-2.93-.29-1.16-.54-.3-1.59-3.79-1.42-.45ZM163.22,240.23l1.91,.43,1.1,1.04,1.59,.43h2.06v1.29l-2.45,.88-3.03,.88-3.43,.29-3.43-.43-3.43-1.47-1.78-2.06-2.88-5.4,3.84-1.47h1.59l6.45,1.16,5.89,1.91v1.47h-6.99l1.91,1.02,1.07,.03Zm247.24,300.13l2.74-1.32,2.74-.14-.1,2.42-1.59,.73-2.47-.59-1.32-1.1Z" style="fill:#efc441;"/></svg>