<svg xmlns="http://www.w3.org/2000/svg" viewBox="0 0 800 800"><path d="M128.68,85.15l2.14.89,2.3-.08,2.37-.65,2-1.06,2.07-1.8,1.07-.73,2.91-.41,1.07-.49,1-.65,1.07-1,2.68-3.6.38-1,.39-1.3.76-.66.84-.57.61-.89.23-1.8L153.86,67l-1.46-2,2.22-.57,2.53-1.55,1.22-2-1.3-1.8,1-.57.54-.16v-.82l1.53-1.39,1-.24,1.3.24,1-.41.53-1.22.46-1.47L165,52l2.37-.41,4,2.61,2.6.33,1.15-.16,2,.08,1-.41.92-.9,2.6-3.59,1.61-.08,1.3.24,1.07.74,1,1.06.62,1.47.07,1.39-.07,1.22.07,1.06.46,1.23,1.84,3.34.15,1.31-.23,1.14.15.74,1.46.08,1-.33L195.17,63l2.53.16.69,1.8-.77,5,.15,2.86.92,1.47,1.84.57,7,.16,8.87,1.39,11,3.35,1.84,1.14,1.83,2.29,1.69,2.69,2,2,2.75-.08,2.6-1.06,2.3-1.8,1.38-2.53-.23-3.1L242.53,78l-1.45-1.06-1.22-1.06-.23-1.63,2.68-9.56,1.3-1.55,2.52-.41,6.35.9,2.14-.32L261.2,60l2.45-.24,2.45.81,4.21,2.7,2.52.24,2.53-.9,1-1.39.08-.57.46-3.92.46-.89.76-.9.54-1.06V52.57l-.69-.9-1.15-.57-1.22-.41-.84-.41-1.46-2.36-.15-2L274.21,42l.54-5.47-.31-1-.38-.82-.23-1.06.23-2.2.53-2.21.31-.16,1.53-2.78-.15-.41,2.45-.89,1.53,1,2.21,4.16,1.69,1.71,2.29,1.64L291,36.08l1.83.65L298.93,38l2.29.16,2.76-.49L306,36.08l.46-2.78-.84-1.14-1.38-.73-1.3-.82-.61-1.72.23-4.73.76-2.12L305.28,21l2.44-.09,2.3.33,2.91.16,2.14-1.14,2.07-1.47,2.67-1.22,2.68-.41,1.15.65.15,1.72-.61,5,.31,1,2.14.81,1.22.66,1,.89.38,1-.61,1.47-1.07.66-1.23.65-.92,1.06.69,1.63.31,1.47-.15,1.39-.77,1.06-2.07,1.72-.45,1-.08,1.87.61.25.92-.25,1,.17.62.57.53.9.69.65.77.24,1.22-.16.92-.08.69.49.46,1.14-.16.74-1.22,2.12-.23,1.06.38,1.14L330.91,54l-1.69,3.76-.38,2.2,1.69,1.47-2.76,3.27.08.4.3.66.16.81-.23.66-.92.32-.77-.32-.53-.49-.31-.17-1.38,1.64-.3,1.63.38,4.49,1.68-.41,1.23.9,2.22,2.86,1.53,1,8.41,3.18,9.95-.08,2.14-2.21,1.3-2.28.77-2.53.46-3,1.3-1.15,5.2,2,1.3-1.06-.46-6.61.46-2.21,1.3-1.95,1.69-1.39,8-4.49,14.39-3.35,6.19-.65,3.14-.9h1.07l1.38.49,2.52,1.71,3,1.23,2,1.22,1.91,2.78,1.38,3,.15,2,1.61.65.76.17h1l.69.49.45,1,.39,1.06.38.73,1.22,1.14,1.53.82,1.84.49,2.3.08.53-.32L423,68l.39-.41.61.25.46.32.61.09h1.3l1.3-.33.69-.74.54-.81.84-.57,1.91.08,5.13.81,1.83-.57,5.51,3.51,1-.16.84-1.63,1.76.16,1.83,1.31h.08l.77,1.79v6.62l-.23.65-.46.73.15.49,1.3.17.84-.25.61-.65.54-.74.31-.81.3,2.45-.92,2.2-.07,1.31,3-.16-.76,2.2.69,1.22,2.83,2,.23,1-2.68,1-1,1h1l.69.25.69.32.68.25-1.53.73.92,1.39,1.23.25,1.3-.57L461.13,93l.54,2.21,1.22,1.14,1.46.74,1.38.89L467,99.84l.76,2.21-.38,1.63-2.37.08.46,1.23,1.3,1.71,1.22,2.86.16.73-1.61,5,.15,1.31,3.29,3.26,1,.41.61-.81.61-1.07.84-.57,1.3.25.46.57.39.57.91.25,2.68.24,2.22.74,1.53,1.47.77,2.53,2.14-.74.92,1.8.53,2.69,1.07,2-1.76.66-1,.16-1.07-.08v.9l1,1,.23.49.31,1,1.45-.49,1.53,2.54,1.69-.33-.62-.65-.23-.58.39-.4,1.14-.09,1.15.09.54.49.38.65.61.82,1.3,1.22.46.82.16,1.22.23,1,.61.49,1.45.65.61.66-.07.49.15.08.84-.41.92-.65.76-.82.39-.65-.16-.33H503l1.37-.16,1.31-.82,1.45-1.55,1.3,1.14,1.61,2.53,1.3.49,1.6-.49.39-1.22.07-1.63.54-1.64.38-.81.08-.49.38-.25h2l.92.17.61.4.31.58-.31,2.12-1.07,3.1-.23,2.21,1.61,2.44,3.59.41,4-.24,2.76.73,1,1.72.92,4,.76,1.3,1.53.74.39-1.06v-2l.3-1.88,1.76.49,3,1.31.76-.9,1.46-3,.3-1.55-.38-2.86v-1.06l.61-1.06,3.44-3.76-1.3-.49-.53-.08,1.53-1.47,1.91-.74,4.21-.57,2.07-1.22,3.21-4.82,2-1.63,1.91-.25,6.35,2,1.23.66.61.24.69-.16.23-.57.07-.65.08-.33,1.68-.9,1-.33h3.52l.76-1.71.46-2,1.68-1,2.38-.57,4.2-2.94,2.07-.65.23-.09,7.35-.16,2.14-.65,1-.74,1.76-2,1.15-.81,1.61-.58,5.43-.73.84.16,1.45.9.77.08.54-.32,1.07-1.39.38-.25,1.53.49.84.9.69,1,1.22.9,1.92.41,6.65-1,17.6,1.55,1.38.57,2,2,1.22.65,1-.32,1.3-.9,1.15-.49.53.81-.15,2.37.23,2.53,1.15,1.55,2.6-.32,1.6-1.63,3.75-5.72,1.76-1.31,1.3.9.08,2.29-.23,2.86.46,2.44,2,1.23h2.45l2.6.65,2.29,2.94,1.38,5.8,1.07,2.77,2,1.72,2,.16,3.83-1.22,2.14.49,1.76,1.87,1.38,2.86,2,5.55,5.58,11.6,11.1,15.84,2.6,2,2.67.24,2.07-2,2.76-6.12,3.44-3.59,1.53,2,.15,1.71-.46,3.84.16,1,.53,2V180l-.61,2.05-1.3.89-1.53.82-1.15,1.55-.15,2.29.84,1.88,1.61,1.22,1.91.49,1.76,1-.15,2.29L723,196.75l-3.51,2-1.31,2.13-2,4.32-2.38,2.53-.46,1.06-.23,6-.45,1.88-1.08,1.72,1.15.65.69.82.84.65,1.61.33,2.83.08,2.83.73,2.83,1.55.69,2,.15,2.45,1.76,5.64.62.57.76.08.61.33.31,1,.08,2.13,2.29,8.33-.08,1.71-1.22.65-.84.82-.23,1.55.53.9v.08l1-.49.53,1.88,5.13,33.63,5.2,33.64-.76,1.8-5,3.18-1.53.57-1.3-.16-1.38-.74-.92-.08-.76.74-.77,1.63-.46,1.88.23,1.55,1.53,3.43.69,2.86-.07,2.12-1.15,1.55-2.3,1.22L721,344l-2.07,1.55-5.13,6.29L712,353.42l-.15-.32-.61-.74-.77-.49-.69.08-.3.9-.46,8.9-.38,1.39-.92,1-2.45,1.63-1,1-.08.57.3,1.55v.66l-.45.81L703,371.79l-.45.74L694.43,391l-1.46,4.9-5.51,36.74.16,1.38.68,1.72.77,1,.46,1-.08,1.63-1,2.29-5.13,6.85-.53,1.23-.92,6-.62.9-5.5,1.88-.16.08-.07.08-1.38.9-12.86,23.59-1.91,4.65-.15,4.33.53,1.23,1.38,1.87,1.53,3.11.23.81-2.22,6.62-.61.73L658,507.65l-.76,1.3-.15,2,8.8,42.29,1.37,1.72.31.49,3.29,3.18,2.37,6.7,3.37,19.92,1.6,4.32,4.37,8.41,1.3,4.33.3,4.33-1.07,13.63,7.27-.65L689.22,627l.61,3.1,2.61,1.55,2.21-.24,3.68-2.37,1.76-.74,7.95,2.21,1.46,1.22.92,1.55.38,2,.31,6.21,2,8.57,3,7.67.53,2.13-.3,2.12-1.15,1.47-1.45.33L710,663l-.77,7.35.31,1.71,1.61,2.37.45,1.39v1l-.53,2.53.15,1.06.31.41,1.45,1.39.61.73-1.07,2.29L711,686.44l-2.6.33-4.44-.16-.3-3.35-3.68-.49-4.59.57-3-.08.92,2.45-.54,2.37-1.6,1.87-2.22.74-1.76-.49-5.9-2.94-1.83-1.55-2.22.65-4.44.16-1.91.9-.84-2.28-1.76-2.7-2.07-2.28-1.76-1-.92-.9,1.23-1.88,1.68-1.71.69-.41.54-1.64.3-3.59.69-1.39,1.53-1,1.22-.32.77-.74.23-2.36-.23-1.8-.77-.9-1.3-.24h-1.83l-.54.32-.69.57-.84.58-1,.24-.92-.16-1.53-.66-1-.08-1.07.41-2.14,1.63-1.38.49,1.07,2.78.62,2.45-.85,1.63-3.13.41.46.9v.9l-.46.81-.77.74,1,.73.53.17h-.76l1,.4,1.15.33,1.22.08,1.23-.08v.82l-1,.57-1.76-.16-1.07.32-1,.82-.84,1-.69,1.22-.54,1.23-1.22-.82-.77.41.16,1.06,1.83.9-.69,1.63.69,1,1.38.49,1.68.25-4.13,3.51-7.34-.41-28.39-6.45-5.2-.33-3.52-.73-.92-.33-.38-.57.23-1.14.3-.82-.23-.82L605,677.46l.77-1.55L604.67,677l-.91,1.55-.62,1.72-.3,1.47H602l-1.38-.82-2.14-.24-4.52.16-1.53-.41-5-2.94-7.8-1.06-3.52-1.14-1.61-2.7,2.07.74,2.37-.25,2.07-1.14,1.14-1.8,1.69,2.21.76.81.92.33.76-.24.31-.74-.15-.81-.54-.74v-.82l1.53.41,3.9,1.63.77.09,1.15-.41,2.52,1.06,4.06,2.29-.31-.74-.15-1.22-.31-.66,1.69.08,3.06.41,1.22-.49,1.45-1.87-.68-1.07-1.46-.89-.76-1.39-1.3-4-.23-1.72-.39-1-.91-.65-1.23-.08-1.22.41-.77-.49-1-.33-1,.16-.38,1.07.31.73,2.37,1.8,2.83,4.08,1.68,1.88,2,.89-1,1.56-1.76-.17-1.92-.41-1.37.74h-.84L596,670l-1.07-.49-1.15.08-1.76-.24L590.9,669l-1.38-.82-1-1.14-.31-1.63-.53.57-.69.49-.31.49-.46-1-.3-.9-.08-1.06v-1.22h-.76l-.16,1.71L584.4,666l-.92.65-1.38-.49-.84.74L580,667l-1.3-.24-1.23-.66-2.6.49-1.3.33,1.07,1.06,1.76.49,1.84-.16,1.45-.66,1.53,1.72-1.45,1.22-1.92,1.23-2.06.41-1.84-.82-1.37-.9-2.45-1.14-2.3-.74-1.07.33-.92,1.06-2.06-.57-3.22-1.8-1.45.49-1.23.82-1.14.41-1.61-.82-.61.74h-.69l-.84-.57-.77-1.07-3.06,2.21-1.53.65-1.61-.41.23-.49.31-1.38.23-.58-2.91-.57-1.22.25-1.3,1.22-.84-.81-1-.49h-.84l-.69,1.87-1.76,1.56-.92,1.14-.76-.9-1.38-1.06-1.38-.9-1.07-.41-1.15.66-1.14,1.14-1.23.41-1.07-1.39.31-.25h.15l.08-.16.23-.41-4.14.25-1.53.81-.45,2.21,1.07-.57.91.16.69.82.46,1.22-2.14-.49-8-.41-.46-1.14-.53-1-1.23-1.88-.61,1.15-.07,1,.45.73.92.41v.73l-2,.41-1.53.82-2.6,2.12-2.06-1.39-2.38.17-2.06,1-1.07,1.06h-.77l-.76-.33-1-.65-.84-.74-.46-.73,1.3-.57,1.07.08,1.23.41,1.68.08-.23-1.15-.38-.73-.61-.41-1-.16v-.9l1.15-.57.69-.82.38-1.14v-1.47h-.69L498,669.71l-1.91,1.47-2.37.57-2.83.08,3.06,2.45-2.3,2.12-4.13,1.88L484.78,680l-.69,1.72.15,1.14,1,.73,1.83.49,2,.17,2-.41,1.15-.82-.54-1.3v-.9l2.83-.82,1.38-.81.46.57.61.73.92.33,1.38-.33,2.22-1.06,1.68-.24h3.52l1.07.24.69.57.46.49.38.33,1.69.24,1.14-.16,2.6-.9-1.14.17-1.38-.09-1.07-.57-.31-1.14.69-.57,3.9-1.06v1.63h.84l2.45-1.22,6.58.4,3.22-1.63.53,1.8.92-.74.92-1.63.69-1.06,2.06.08,1.76.9,1.53.41,1.46-1.39,2.14.9,2.14-.33,2.3-.9,4.59-.9,2.83-1.71,1.76-.41,13.77-.33,3.52,1.23-1.07.49-1.07.32H568l-1.22-.08,8.34,4.17-35,3.1-34.89,3-18.36,4.41-10.1.9-2,.89-1.15-.65-1.3-.24-6-.17-1.46.17v-.74h.39l.68.08.39-.08v-.81l-3.14.08-.76-1.47.07-2.12-.76-2.29,1.45-1.8-1.45-.41-6.05.82-2,.65-1.91,1.07-1.45,1.38-1.92-1.71-3.21-1.72-3.75-.81-3.37.9-.46-.49-.76-.66-.15-.24-.23-.33h-.69l-1.23,1.39-2-.65-2.14-1-1.68.24h-.69l-1.15-.57-.61.49-.15,1.22.46,1.39-.31-.08-1.3-.73.08,1.3-.08.33.92-.25.23.33.46.74v.08l.84-.49.61-.17,1.53-.24v.9l-.84,1.06-2.6,1.3-1.15.82v-2.37l-1.53,5-.77,1.55L419,683.26h-.85l-.07.41.07,1.22-1.53-.82,1.69,3.43,4.59,2.21,5.43.65,4.44-1.31L431,687.59l-1.91.08-2,.32-2.07-.57v-.81l1.15.08.92-.17.84-.32.84-.49.61-.49,1.46-1.55.38-.41,1.68.41,1.84,1,1.83.49,1.53-1.07,1.38.9,1.38.33,1.15-.49.68-1.55-2.06.32-.92-1-.76-1.23-1.61-.57V680l1.53.82,3.75-.57,6.73,4.24,2.91-.81,1.53-1.31,1.53-.24,3.83.4.45.9.62,2,1,2.21,1.38,1.38-28.24.9-4.36,1.8-22.49,1.31-3.29-.58-2.91-1.79-3.06,2.45,2.3.73.76.08-8.87,2.94-24.72,4-.84.25-12.55,4.16-1.91,1.06-.84,1.15-1.3-.09-5.82,2.29-8.87,4.9-30.53,10.86-1,.81-.61,1.88-1.68.9-11.86,3.1-2.3.33-1.76.57-3,3.1L281,737.39l-14.15,4.41-11.18.81-2.9,1.55-2.68.66-1.22.81-3.14,4.09-6,5.38-7,4.49-4.59,1.47-8.34.9-6.58,3L211.93,766l-1.15,2.29-1.22.24h-1.38l-1.07.33-2,1.8-6.05,3.51-8.79,7.84-2,.81-2.76-.24-4.82-1.06-1.83.24-3.68-2.69-.61-1.39.15-1.23,1.15-2.2.31-1.23-.16-1.14-.76-2.37.23-3-.23-1.22-.31-1.14-.15-1.07.54-25.55-.54-6.2-.31-1.15-.68-.81-.85-.74-.84-.81-.53-1.39v-1.06l.61-2.54.15-1.3-.76-3.68v-1.14l3.44-2.94,1.45.17.92.73.46.08v-1.88l-.61-2.28-1.07-1.55-.77-1.64.16-2.61-.92-6.94.3-2,1.38-2.12,1.84-1,1.91.08,1.53.65,3.06-5.79.61-2.13.08-2-.92-5.63,1.22-3.92.46-1.06.85-1.14,2.9-1.64.23-.32,1.3.24-.15.41-.61.65.15.58.31.81v.9l.3.41,1.07-.49.54-.74.46-2,.23-.81,1.38-2,.68-1.23.08-1.3-.3-2.37-.62-2.21-.84-.16-1.15.25-1.68-1.07-1.07-1.55-.77-2.12-.38-2.12L189,652l1.61.9.46-1.31-.08-4.49.85-1.71,1.3-1.15.61-1-.23-.16-1.15-1.22.77.08,2.22-.17-1.53-2-.54-2.28L194,636l2.38.41-1.46-2-2.37-5.07-1.45-3.1-2.07-9.39.15-4.41.69-5.06-.46-4.16-3.59-1.63-.38,3.51-.54,2-.84.89-1.07-.65-.54-1.71-.76-1.55-1.76-.33.38-2-.84.41-1.38,1.22-1.3.65-.77-.49-1.53-2-.84-.73.92-1.31-.54-.73-2.44-1.14-.31-.09-2.3-1.3-.15-.49-2-.33L165.18,594,164,592.55l-.68-.65L162,593.45l-1.3,2.37-1.61.9-2-3-1.38-1.39-4.36-2.45-1.46-2-.15-.9.08-3.43.23-.49,1.07-.65.23-.57-.23-.82-.62-.32-.61-.17-.3-.41-.39-2.77-.45-1.06-1.08-1.06-1-.09-1.45.41-1.08.57v.57L143,575.08l-.31-2.45.31-2.69.46-2.53,1.53-4.57-.31-1.64-1.76-2.28L138,554.67l-.46-.57-.23-1.39-.23-.41-.69-.24-.54.16-.45.17-.62-.09-7.19-1.79-1.84-1.31-1.91-.49-3.06.08-5.2.74-1.3.57-2.45,1.47-1.53.41-1.84.08-1-.41-.69-.57-1.23-.74-1.37-.57-8.65-2-1-.41-.16-.49V546l-.15-1-.53-1-.85-.49-.46.41-.38.49-.53.08-1.15-1.15-1.15-1.3-1.15-.49-1.45,1.31-1.15-.58H84.07l-1.37.58-1.23,1.22-1.3-1.47.38-.73,1.08-.58.53-1.06-.23-1-1.07-2.2-.15-1.06.53-2,.85-.74.15-.65-1.46-1.8-3.52-2L76,527l-.68-.49-.54,1-.54,2.29-.84,2.2L72,533.2l-2.07-.74-3.37-4.73-1.22-1.23-1.3-.4-2.68.08-1.07-.25-1.91-.08,2.75-3.75.54-.25,1.37-.24.46-.33.23-.49.54-1.71-.16-.17.16-.08,1.83-1.06h.31l1.53-2L76,509l2.22-2.61,10-12,1.6-2.61,1.38-3.43.92-3.6.23-1.71-.08-1.63-.53-.66-.92-.65-.54-.9,1.38-3.35.15-1.87-.15-2,.15-2.12.54-1,2.29-2,.85-1.07.3-2.93-1.91-11.43-.15-2.94-.31-1.06-.69-1.23L91,444.45l-.39-.73-.07-.82.23-1.47-.08-.81-.38-1L89,437.84l-.53-.9-.85-3.75-.76-1.55-1.91-2.86-.69-1.47L83.62,425l-1.38-11.67-2.3-8.49-2-4.17-4.66-2.53,5-5.06,2.83-1.55,2.67,3.27,2.07-.17,4-1.22,3.75,1,4.21,3.51L102,399.8l3.14-3.84.07-.82-.38-2,.08-.9.53-1.38,2.22-3,.54-.49,1.22-.74.46-.49.08-.49-.31-1.22.08-.49,3.59-4.41.54-1.72.38-4,.46-2,.54-.65.68-.41.62-.73.23-1.14-.54-1.31-2.52-2.37-.85-1.22.31-4.82,5.51-9,1.15-4.65.23-2.94-.23-1.07,1.68.09,4.67-.82,1.14.41,1.08,1,1.37.9,2,.16-.38-1.39-.31-1.22-1.3-2.62-1.91-2.2-2.07-1.39-.61-1.63-.07-1.88.68-3.59.85-1.47.61-1.71-.08-1.15h-1.38L119,325.5l-1.07.16-10.86-3.51-9.34-6.53.15-1.3,1.84-2,.38-1.39-.3-2.21V306.4l1.37-6.86-.15-2.45-.61-1.47-.77-1.39L99.15,293l-.08-1.47.61-.82,5.44-4.65,1.6-.25,4,.9,2.3-.24,3.67-1.55,2.29-.25,1,.41,1.15,1.14.76.33.92.08,2-.16,1,.16,3.37-.9,1.68-.24,1.61.24,1.38,1.23.76,1.55.62,1.71.84,1.63,1.22,1.15,1.61,1,1.83.57,1.84.08,1.91-1,.23-1.63-.3-2,.38-1.8,2.45-.41,2.45,3.43,3.52,7.51,2.52,1.72,3.06.49,6.51-.82-2.3-5.06-.76-2.61.38-2.86.84-3v-2l-1.45-5-.23-2.62.3-4.57-.61-2.28-.77-1-3.13-2.29-1.07-1.31-2.68-5.14-.77-1-2.14-2-.53-.65-.85-1.47-.76-.57h-.61l-1.23.65-.46.08-6.73-2.2-2.45-.33-5.12-1.63L131,247.53,133,237.08l.46-5.88.54-2.85,1.15-2.94,1.68-1.88,10-5.47,2.14-.25h2.22l2.61-.4,1.83-1.47.15-.08L154.47,214l-4.67-2.78-2.53-2-1.22-1.31-1.53-3.1-.92-.16-1.15.49-1.37.24-5.66-2.45-.16-4.32,4-10.45.38-2.78,3-9.63-.61-1h-4.6l-2.37.49-4.28,2.53-2.3,1-2,.16-2.52-.08-2.45-.57-1.84-1L117.82,175l-6.51-9.79-.84-2-.53-2.12-.39-2.7-.07-2.69.15-1.06,4.13-31.36-.53-2.53-2.15.17-.46-.17-.45-1.14.38-.41.53-.16.16-.25-.16-.65-.23-2.12-.45-.65-.62-.17-.61-.08-.38-.24-.46-1-.31-1.23.08-1.06,2.37-1,1.38-1.14.46-1.15-1.38-.57-1.15-1.3,1.23-3,2.29-3.27,2.07-2.12L121,95.92l2.6-1.55,2.14-2.94.39-1.79.53-1.64.84-1.47ZM673.54,691.59l-.46,2H673l-4.9-1.23-10.94-1.14-1.6-.82.46-1.71,2.06-2.13,2.14-1.63,3,.82.84.57.31.73.15.66.3.49.92.49,2.45.81h.46l.46-.32,1,.81,1.61,1.55,1.53.17Z" style="fill:#efc441"/></svg>