<svg xmlns="http://www.w3.org/2000/svg" viewBox="0 0 800 800"><path d="M698.17,523.61h-.82l-2,.35-1.61.1-.23-.4,0-1.27.46-.34.73-.39,1.61-1.23.32-.29.92.09.23-.78-.28-.44-.78-.59-.92.84-.23-.15-.41-.54.18-.49h2.8Zm-4.36-5.43-.55.29-.18.69.5.49.46.88-1,.24-.82.15-.6.49-.18.39-.37-.1-.14-.39-.37,0-.36.2-.23.2V522l.82.59.88.14.09.25-1.1.05-1.57.39-.13,0,.27-2.79,3.35-2.45Z" style="fill:#efc441"/><path d="M698.17,523.61v-5.53h-2.8l.14-.34.37-.35,1-.73.88-.15.82-1.57.32-.88-.36-.73-.14-1.91-1.38.29-.64,1-.42.78-.45.94-.56-.35-.68-.39-1,.39-.42.88-.13.74.22.78.37.1.42.15.27-.1.18-.25.14-.34.14.34.28.79-.79.49-.09.54h-1.24l-3.35,2.45-.27,2.79-3.49.88-6.61.44-.74-.1-2.2-.54-.69-.34-.46-.1-.18.15-.55.69-.42.24-1.83.25-2.16,0-2-.39-1.38-.89L664,524l-2.76-1.52-2.75-2.06-2.34-1.27-1.47-.2-4.82.2-1.29-.2-2.61-.73-1.38-.15-2.57.29-1.33.4-.88.58-1,.15L630,517.3l-6.06-.74-3.08.1-5.37,1.52-2.57.39h-4.86l-1.43.24-2.8,1-1.51.35-8.54-.54-8.68.78-1.38.74-1.46,0-1.47-.35-1.38-.09-1.06.44-2.15,1.86-1.43.73-1.6.44-8.63.4-1.7-.3-3.35-1.37-1.75-.34-.92.73h-.46l-.5-.54-.69-.09-.64.34-.46.73-1.7-.58-1.93-.15-1.74.49-1.06,1.32h1.84v.49l-1.2,0-1.88.78-1.28.2-6.2.15-4.27,1.12-2.39.25-2.84-.25-4.14,1.18-1.28.1-.92-.2-.92-.44-.73-.64-.46-.83.09-1.37,1.24-2.45.09-.69.51-.14.82-.1.51-.29.46-.45.46-.78.46-.29-.19-.79.28-.58,1.28-1.23,1.52-2.15.09-.35.23-.59,3.21-3-.14-.64-.91-.93.13-.49.6.05,1.75.64.68-.69,1.29-.44.27-.29.19-.45,1.19-1.86,1.2-.83,2.89-1.62,1.1-1.66,1.24-1,6.75-3.33,1.28-.2,1-.59,1.06-2.69,1-.83.19,0H555l.42,0-.37.83.41.44.87.05,1-.29.92-.59.68-.93.46-1.13.19-1.18.5-.44,2.76-1.81L563,485l.46-.54.5-.49.92-2.65-2.06-3.53-.69-.63-1.79-1.23-2.39-1-.64-.09.41.83-.41.49-1.24-.88-1.06-.49-.69-.79-.27-1.66.23-.49.55-.3.6-.19.45-.3,1.43-2v-.53l-2.44-1.62-1.28-.29L553.1,468l-1.33-1.38-1.14-1.91-1.34-1.61-1.88-.69-1.93.15-2.11.54-1.74.78-.88,1-.64-.39h-.37l-.36.24-.46.15-.69.2-.46.19-.41.15h-.78l-1.15-.2L532,464l-2.61,1.47-.6.05-1-.78-.45-.25-.51-.1-2,.1-.55-.05-1.29-.39-.46-.29-.23.14-.87.1-3.31-.2-1.14-.39-1.79-1.27L514,461.7l-2.48-.3-1.43.35-1,.83-.87.83-1,.54-4.36.1-2.29-.59-.69-1.62h-.51l-.41,1.08-2.21-2.74-.82-.34-1.42-.35-.83-.78-1.19-2.4-.69-.88-1.24-1.18-1.38-.88-1.06.05-.73.39-.23-.34-.05-.74-.13-.54-.78-1-.42-.73-.18-.64-.51-1.07-4.72-3.63-.92-.24-2.34.14-.88-.54-.73-1.12-1-2-.83-.88-2.43-2-.6-.1-.46-.69-.41-2.54-.23-4.85-.55-2.11-1-2.11-.73-2.1.45-2.16.6.74.74.09.64-.49.27-1.07-.5-.79-2.16-.73-.5-.54-.14-1.32-.64-2.4-.14-1.47-.28-1.23-1.28-2.3-.28-1.08-.41-2.5-1-2.4-1.38-2.05-1.42-1.47-1.06-.79-1.05-.39-3.58-.59-.83-.29-.32-.54.46-1,.73.44.87.15,1.84-.05.28-.34-.37-.74-.83-1.22-.46-.44-.69-.54-1.37-.83-1-.3-.46.1-.46.29-.83.4-3.12.73-3.12.34-.32.15-.37.34-.32.39-.14.4-.18.24-.55.1-2-.15-.83-.19-.73-.05-.69.29-.46-.54-1.15.64-1.24.34-2.89,0-1.33.25-3.54,1.81-2.75.73-2.62.25-2.75-.25-5.37-1.61-1.11-.74-1.24-1.17-1-.2-3.44.44h-1.33l-1.47-.49-.65-.39-.64-.64-1-1.76-.6-.69-.27.64-.18.74-.51.53-.69.1-.64-.39-.64-.59-.42-.24-2.84-.84-.42-.14-.5-.49-.41-.69-.33-.83-.45-.74-.88-.29-4.73-.15-4.54-1.32h-1.7l-.78,1.23-.41,1.32-1.15-.2-1.52-.83-1.46-.54v-.54l1.37-.54v-.49l-1.05-.24-.23-.83.09-1.08-.18-.88-1.15.83-1.2.39h-1.28l-1.52-.24-1.37-.49-.78-.2-.6.15-.18.54.45.49.65.39.55.1-.83.93-1.24-.59-1.15-1.37-.5-1.23-.14-1.61-.46-1.38-.78-1-1.15-.4-1.37-.24-2.76-1.08-2.84-.64-2-1.71-3.53-1.18L349,373.08l-7.3-8.18-.14-.34v-.34l0-.44-.28-.4-.27-.05-.83.1-.27-.05-.74-.68-.18-.49v-.88l1,.19,1.15,0,1.15-.39.92-.78-1.06.29-.37.15.28-.64.37-.64.27-.63v-.59l-.55-.25-.78.25-.64-.05.09-1h-1.33l-.83-.54-.09-.93,1-1.13-1.6-1-.65-.64-.5-.93-.46.78-.83.3-1-.15-1-.44-.37,1.62.64,1,2,1.52,1,1.37.88,1.72.41,1.86-.41,1.76-2.9-1.12-8.31.24-8.26-.64L308.5,363l-5.83-.59-1.28-.49-2.53-1.32-2.61-.59-1.06-.73-.64-1.18-1.75-3.77-.23-.73,0-1.18.5-3.23-.32-.2L291,346.14l-.92-.64-.87-.19-.78.24-.46.79,0,.93.92,3.23.05,9.11-.51,2.3-1.42-.09,1-1.62-.27-2.35-1-2.21-.59-.54-1.88.74-.42.29-.23.64.09,1.42-.27.59-.83.34-.5-.24-.46-.49-.55-.15-.51.34-.09.54-.18.44-.83.2-2.43-1.13-1.47-5-2.53-1.13h-3.21l-.78-.25-1.29-1-.73-.19-.51.19-1,1-.78.25-.13.1-.14.19-.23.2-.41.05-.19-.1-.18-.69-.28-.24-2.8-.93-.32-.25-.78-.34-.83-.05-.36.83-.65.3-1.46.1-1.57-.15-.91-.44h-.42l-.18.88-.46.24-1.24-.19.18.34.14.2.19.49h-.78l-3.13-.39-1-.4-1.65-2-.65-1-.22-1.13-1.15-1.23-9.51-4-1-.54-1-.88-.64-.35-1.33-.19-.55-.2-.33-.44-.78-1.37,0-.29h-.92l-1.24-.15-1.15-.59-.64-1.27.41-1.18.78-.73,1-.44.88-.3,7.71.3,2.52-.69,1.75.29,2.06-.14,1.24-.25,1.79.44,1.52.15,3.44-.59,2.66-1.17.78.14.69-.39h1.33l.69-.15,1-.29.92-.93.59-.64.64-.29-.09-1.57.28-.68-.19-1.18.6-2.11,0-.83-1-.34-1-.05-1.83-1.62L254,320.33l-2.35-1.82-2.34-.93-6-2.2-2.35.05-5.37.54-7.11,1.27-2.16-1-4.55-1.37h-5.09l-2.85.39-1.47.15-1.42-.15-2.11-.59-4.41.64-3.53-.93-.78.14-1.29.74-.69.15-3.12-.69-2.39.59-7.07-2h-1.42l-1.38.73-.69,1.23-.23,1.47,0,1.47-.42,1.37-1,.69-2.29.83-4,3.52-.83.59-1.51.1-1.06.34-4.45,2.45-2.2,1.52-1.84,2-3.81,7.64L156.82,341l-2.15.29-2.21-.68-.92-.1-1,.29-.05.2.05,1-.09.29h-.28l-.32-.1-.46.2-.32-.1-.23,0-.14.3,0,1.07,0,.2-2.43,1.62-.78.93-.37.63-.09.4.05.24-.05.34-.46,1.08-.32.49-.6.49-.23-.24-.09-.25,0,.88-.46.54-.42-.78-.55-.25-.59.1-.05,1.22-1.1,1.28-3.35.29-3.45-.49-3-1.22.6-.64-.19-.78-.5-.84-.37-.88h-.46l-1,2-1.65,1.81-2,1.33-1.83.49.13-.25.14-.54.14-.29L116,353.64l-.37-.05-.23-.3-.18-.54-.09-.49,0-.24-.73.24-.83,1.08-1,.25-5.19-.3-1.51.3-2.76,2.79-.09.59-.5,2-.33.74.37.49.09.49.05,1.08-.73-.64-.74.15-.46.83,0,1.22.5,1,.69.35.78-.2.83-.69-.37,1.62L101,367.25l-.55,1.52.27.34.46.45.23.53-.27.74-.65.64-.73.58-.78.44-.83.15-1.24-.29-2.52-1.42-1.52-.35-1.42.35-2.62,1.66-1.24.59-.68.05-1.38-.15-.69.1-.73.29-1.52,1-2.11.64-7.9,6.91-2.89,1.66-2.8.25L66,382.49l2.66-5.93.5-2.94-1.51-2.2L65,371l-3,.44-5.32,1.66-2.57,1.28-6.8,4.7-2.71.68-2.89,0-2.84-.89L38,378,37.42,377l-.14-1.22.23-1.28.23-.49.36-.58.42-.49.46-.2.32.2.18.34.19.44.23.39.45.39.56.25.59.05.6-.05,1.15-.49.78-.88,0-.93-1.1-.84,1.15-.63h1l.64.73v1.52l5.51-3.09,4.87-1.51,5.69-2.7,3.67-2.74.51-.3.87,0,.83.09.41.35-.28.58,2.07,1,1.56-.44,1.56-1,1.93-.54,1,.35,1.1.73,1,.93.41.84.32.44,1.79-1.38,1.06.15,1-4.16-.83,1L81.08,363l-.79.74-.91-.89L79,361.42l.1-1.12-.23-.84-1.34-.68.65-1.62.32-.49-1.24-.14L75.84,356l-1.24-.69-.82-.69-.56-1.07-.41-1.23-.64-1-1.1-.24.69-.69.73-1.12.6-1.38.27-1.27.14-1.76.28-1.62,1-3.28.18-.2,1-1.91.32-.19.73-.1.32-.2.28-.49.28-.93.18-.39,1.42-2.16,1-1.17,1.2-.79v-.53H80.25l1.15-1,2.84-.54,1.29-.79.78-1.12.87-1.72.28-1.61-.78-.93v-.59l.73.24.64.35,1-.79.92-.15.78.45.55.93.59-2.8.37-.73.64-.29,1.75-.15.37-.39,0-.74.18-1.27.51-.93.87.39.87.59.69-.39.69-.84.69-.68-.5-.84-.69-.53-.88-.2-1.1.1.28-.59.5-.54.6-.39.64-.15,1.1.44.56.88.45.93.65.45.92-.2.78-.39,4.08-3.09.92,1,.64-1.57,1-.73,2.94-.2,1.1-.24,4.64-2.45,2.29-.83,1.11-.15.73.15.87.39.74,0,.46-.2.91-.59.51-.24v-.59l-.51.25-.45.34-.1-.3v-.14l0-.1-.32-.05,1.42-.93,1.47-.44,3.35-.15.28-.44.82-2.4.46-.24h2.76l-.19.49-.09.24-.18.29,1.33.25.78-.78.55-1.18.55-.88,1-.44.78.34.78.64,1.15.49-.51.78.74-.24,1.1-.69.55-.59.37-1.22,1-1.67,1.28-1.42,1.2-.59.92-.34,3.44-2.3,1.38-.59,1.24-.05,1,.39.92.84v.44l-.64.49-.23.93.13,1,.51.93.83.39.68-.44.56-.74.5-.54-1.24-1,.09-1,1-.89,1.51-.63,2.76-.59.55-.29.87-.59.37-.15.73.15.92.64.69.24.37-.2.36-.44.51-.24.64.39.41.78-.41.2-.69.15-.27.39.27.78.41.25.51-.25.64-.78-.14,1.52,1.15.1,1.33-.94.14-.09.74-1.86,1-1.62,2.16,0,2.39.39,1.6-.29,1.52-.54,6.06.29,6.19-.83,1.61-.69,1.38.1,2.94-1.76,1.47-.44.36-.25.69-1.07.32-.25.83-.1.64-.24,1.06-.69,2-1.62,1.06-.63,2.66-.44,3.08-1.37,4.68-.84,2.16-.88,4.59,1.13,1.47-.15,1.92-.49.79-.19,1.56-.2.68-.15.74-.29.73-.15.65.34,2.52,1.87,2,.58,4.31.44,2,.49,1.51-.49,10.47.05h1.74l1.06-.14.87-.49.78.44.73.05.79-.05.91.14.46.3,1.2,1,1.42.88.23,1.47-.23,1.76L266,286l-.42.58-.41.3v.19l.83.44.73.1.78-.19,1-.4.23-.39.42-1.86.27-.64.55-.53.46-.15.64-.05,5.65-1,.73-.34.74-.84,1.65-.49,3.17-.49,1-.39,2.53-1.27,1.61-1.28,3-1.81,1.1-.34,1.24.49-1,.88-1.84.78-3,.84-3.67,2.3-.92.88v.44l2.94.84,3.85,4.65,2.39,1.27,1.33.05.6-.34.46-.79,1-1.27.32-.59.69-1.86.37-.39.73-.1,1.38-.34.46-.1,2.75.54h.46l.28-.15.13.25v1.22l.51,1.67,1.24.39,1.51-.29,1.38-.44,10.51-2.16h1.66l3.12.64,1.7,0,1.42-.64,1.24-1.13.37-1.42-1.24-1.47.87-.44.92-.09.82.14.69.39v.49l-.59.54-1.75,3.63,1.88,1.47.05.14,2.43,4.56,1.38,1,1.1.1,2.71.54,1,.39.64.63.69.89.87.78,1.24.34h3.77l.87.25,1,.93,1.06.64,1.1.44,1.14.24,2.21.1,2.11-.49,4-1.62-.5-1.81h1.1l3.58,1.81,1.56.54,1.38-.29.23-1.77.73.4.74.53.55.64.23.74,1.51,2.84.19.49,2.52,1.56.37.05,1.19-.05.46.15.19.39,0,.35v.19l1.38-.44,2.2-2.15,4.09-1.23.6.15v.59l-.6.58-1.29.89-1.51-.79-.74.64-.87,2.74.69,1.18.46.49.64.44.69.19,2.76.25,1.19.44,4,2.94.23.34.23.3.41.14.37-.14.41-.4.28-.34.09-.19L392,309l.6.39,1.65,7.64v0l1,.35.83.44.73.58.74.84.78,1.22.92,2.3.64,1.13,1.7,2,.36.34,1,.2h1.93l.78.24,1.79,2.89.32.84.56.49,5,4.45,2,1,1.79-.29.69.68,1.24,1,1.24.44.55-.83.74-.1,3.49.79,1.24.05.73-.54.14-.49.18-.34.83-.1.69.19,1.05.64.78.15,1.43-.2,2.52-1,1.29-.29,1.51-.05,3.72.44,6.61.78,3.12-.14.37.73,1.28,4.41.23-.2.65-.34.64,1,.64-.59,1.06-2.4-.87-1.27-.46-.49-.55-.34v-.49l2,.24,2.16,2.26,7.3,2.74,1,.68.55.94,1.33,1.17,1.56,1.13,1.2.63,1.56.49,4,.74,1.24-.2v.49l0,1,0,.54.69-.39.27-.2.46.74.64,1.47.46.63.6.49,1.19.64.55.49.51.29h.69l.69,0h.64l2.3,1,1,.3,3.35.29.55.3.14.73.09.88.32.64.55.15h1.74l-.23.09-.23.3.69.68.88.3.87.24.69.25.13.05,1-.35.6.69.92,2,1.28,1.27.37.54.42,1.37L503.8,368l.55.73.78.3.83.58,3.07,3.29.23.63,1.15,2.16.46.54.82-.1.37-.78.32-5.59.37-.73.74-.35,1.79.3,1.1,0-.6.78-2.16.39-.46.64.1,1.32.27,1,.41.78.6.74.78.73.55.3h1.66l.73.49.5,1.17.28,1.28.09.88.28.93.59.64.92.44,1.88.63.37.1,1-.49.55.3.55.53.55.25,4.09-.64,1.19.15,1.11.54,3,2v-1l.55-.54,1.7-.49.13.73.37.4.64.09.74-.14-.14-.3-.18-.54-.14-.24,1,.34.87.74,1.38,1.52-1,.14-.69-.44h-.41l-.23,1.28.18,1.37,1,2.35.23,1.22.37.74.87.29,2,.3,1.61.88.41.1.65-.15.36-.34.19-.35.18-.14,0-.45-.36-.88-.65-.88-1.74-.83-.73-1-.83-2.2-.37-1.72-.32-.54-.46-.29-1.33-.54-.28-.25-.09-.78-.32-1-.69-.54-1.19.64-1-1.08-.88.88-1-.63-1.79-2.35L531.34,376l-.73-1.17-.46-.1-.92.44.55-1.27,1.1-1.33,1.2-.88,1,.15,2.35,2.06.22.63.46,1.91.23.4,7.12,5.38,1.38.69,3.39,1.13,1,.68,1,1,2.25,2,.92.34,4,3.09,1,.54.92.29,1,.05,1.19-.34-.55,1.42.37.88.68.69.42.63-.23,1.47-1.65,1.81-.42,1.33-.59-.39-1.15-1.38-.32-.29-4.32-2.11-1.1-.29-1.29-.15.05.15-.14.24-.23.3-.14.05-.13.29-.32-.15-.42-.24-.59-.29-.74-.69-.55-.2-1.56.1-.55.74.23.83.78.39.78.2.55.44.5.54.65.34.64.2,1.88-.2,1.33.59.33,1.27-.46,1.23L552,402l-.18.59.41,1.37.6,1.28.27.49.78.19,1.52-.29,1.06.15-.56,1.32.69-.2,1.66-.88,0-.1.64-.34.65-.1.59-1.12.83-4,1.7-3.33.55-.74,1.24-.24,1.24.78,7.21,9.21,1,1,.14.1,1,.73,2.43,1.23,3.68.83.87.69-.46,1H583l-.37,1.57-.55.74-.83.29-2.34.15-1,.39-.69.73-.23,1,.92,1.86,3.44-1.91-.23,1.91.69-.49.27-.78.19-.93.23-.88h-.46l1-1.47.28-.74.09-.93,4.13,1.52.41-.05.51-.29.27.1,1.15.78,1.84.49.69,0,1,.44.92,1.08.37,1-.46.49-1.1.24-3.77,1.81.28-1.12-.64-.64-.65-.05.1.78-.33,1.18.92.49,1.33.25,1.06.44,1,.83,1.15.54,1.28.29,1.43,0v-.44l-1.47-.54-.46-.34-.37-.64-.46-1.08.05-.49,1.28-.54,1.15,0,1.61.53,1.47.94.87,1.17h.41v-1.57h.46l-.23,3-.78,1-3.53.15v.54h1.33l-.65.39-.23.1.51,1,.69-.05.73-.39h.78l.6.49.69,1.27.6.24.36-.14.46-.35.37-.44.18-.34L603,426l.36-.05.42.09.36,0,2-1.23.78-.29-1.06-.39-2.15-.3-.88-.34-.82-1-.19-1.18.46-1,1.2-.44,8,.25,1.65.54,1,.83,2.15.88.19.2,1.56,1.32,1,.69,7.12,2.79,2.16,1.52.27,1.76.23.59,0,1.61.27.89.69.83.46-.1.64-.73,1.1-.64.74-.15,1,.25.69.44.46.54.27.68v.93h.42l.14-.34.22-.39.14-.34.46,1.17.55.25.42-.59-.05-1.32.55.09,1.79.05.87-.14.42-.3,1.05-1,.55-.19h.83l.87.19.64.39.56,1.28.55.15.36-.35-.36-.68,3.49-2.6.36.1,1,.49.19.19.27.54.64.05,1.2-.34h2.29l1.93.34,1.29,1.18.64,2.54,2.62-.53,1.51,1,2.34,3.68-1.37,3L664,444l-.78.64L663,445l-.09.44-.18,1.13-.14.44-.55.88-1,1-1.1.69-1-.05-.37-.69-.23-1.12-.41-.74-.83.54-.55-.39-.46,0-.41.15-.37.29.55,0,.37.2.27.29.14.49-1.93.15.05.93.87,1.27.6,1.27h.41l.74-1.17,1.79-.54,2-.1,1.47.2,2.8,1.52.41.34.09,1,.28.78.55.49.92-.05-.55,1.81h-.92l-1.06-.73-.91-.49-.51-.2-.23-.44-.14-.54-.32-.44-.46-.44-.23-.1-3.67.59-1.28.49-4.41-.54.37.84-.1,1-.68,1.76,0,.49,0,.93-.19.88-.32.79.64.63.74,1.62,2.61,1.57,1.06.34.46-.78.73-1.62,3.22-2.84.64-1.47,1.06.88.64,1.18.14,1.27-.46,1.32,1.74-.24.64.24-.32.79-.09.68.69.54,1.47.49-.37-1.62,3.95,1,1.06-1.37h.41l.32.39.41.44.55.4.6.29.46-1.52-1.1-.49-.55-.1-.69.1.83-1.17,1.6-.49,1.75,0,1.28.14,1.2.54,1.37.88.46.89-1.6.29.59,1,.32,1h.46l.09-.34.37-.69.6,1.62,1.61.34,3.81-.44-1.2-.78-2.52-1.33-1.33-.39.87-.93,1.61-.49h1.79l1.23.39-.45-.59,1,.1,3.12.69.82.49.23.49-1.1.34v.49l1.88.49.14-.15v-.09l.09-.1.19-.15.78.59,1.19-.3,1.1,0,.6,1.77.14-.4.32-.68,0-.54.65.54.59.29h.56l.5-.29-1-1,5.41-.69,1.29.45.64.39.69.14.55.3.18.68.51.44h1.06l1.65-.19,1.1.83,1,1,1.24.83,5.28.69,1.43.44,1,.78-.65.4-.27.09.92,1.82,0,.78.19.24h.27l.41.3.46.34.37.3,2.43.83.23,1,1.29,1.08,3.07,2,.56.69.68,1.57,2.16,3.08.51.3.18.49,3.31,3.62.59.34.92.1,1.47.44,1.84,1.18,1.47,1.52.55,1.52h.5l.87-1H748l1.47.39,1.33.1,1.1-.54,1.2-.74,1.24-.63,1.42-.1.83.24.68.49,1.34,1.28,2.29,1.52.83,1.07.5,1.28.32,1.37.14,1.42-.6,1.62-1.42.93-1.42.58-.92,1-1.38.79-.46.19-.32.39-.41,2.65-2.11,2-2.48-.05-2.8-.78-3.12-.1-4.23.93-2.84.19-5.51,1.38-2.57-.54-2.12.93-4.22-.74-5,.93-1.65.15-1.65.83-1.15,1-1.06,1.18-1.15.93-1.46.39-1.61.05-.92.2-.55.58-.41,1.57-1.06,1.76-2.2.84-2.39.29-.32-.83-.51-.3-.36.1-.19.54v.74l-1.7.53ZM481,474.63l.46,1.47-.14,1-.74.24-1.19-.93-.78-.44-1-.29-.87-.44-.87-2.06-1.2-.88-2.38-1.28.91-.78,1.06.29,1,.74.69.78,1,1.42.6.59,1.14.54.19-1.18.64-.19.78.44Zm-6.93-12.79-.88,1.08-3.12.79-1.05.73-1.11-.59-1.14-.39.82-.64,2.3-.54,1-.88.32.15.05.05.09.24.73-.39.69-.05Zm-26.17-2,1.33-.35,1.38.64,2.38,1.71-1.14,1-1.66-.59L448.71,461Zm222-3.09.6.59,1,1.91.55.83.23.88H671l-2.25-.63-1.2-.2-1-.59-.69-.93,0-1.37,3.31-.59Zm-228.62-1,3.31-.1,1.19.74.78,2h-.5l-1.15-.88-4.68-.59-1.52-1.57.83-1.32.64-.59.64.05.32.59.14.78Zm-6.66-5.88.79.35,1.56.19,1.28.44-.18,1.13-.6,1-.41.44-.19-.49-.23-.3-1.6-.44-3.35-2.3-.74-.83.87-.15,1.2.1,1.1.29Zm-3.25-2.3-.33-.05-1,.05.18.39.28,1.13-1.89-1-1.28-1.22L425,444v-.58l1.15.49.87.83.74,1,.87.83-.87-1.52-1.47-1.91-1.7-1.52-1.47-.19V442l.23.24.05.15,0,.19.19.4-.78-.25-.65-.39-.55-.59-.36-.78,2.84-.15,3,1.91,2.57,2.65Zm-21.12-15.38,2.11-.34,1.7,1.07,2.61,2.89-1,.44-1.14,0-1.06-.34-.92-.68h1.84l-.28-.84-.5-.49-.55-.1-.51.4-1.74-1.38Zm-133-43.6-.28.2-2.75,2.59-5.33,3.73-2.07.93-2.2.24v-1.47l.6-.39,1.88.34.73-.58.65-1.13.64-.83.78.24.87.44,1-.29.78-.59.32-.59.41-1.32,1-.88,2.11-1.42.55-.25.41.35.14.44ZM197,393.71l-.46.93.56.93,1,.78.78.44-.69,1.18-1.38,1.52-1.56,1.32-1.19.59-1.24.24-8.58,4.51-5.15,2-4.73.54-.78-.3-.64-.73-4.36-.05-.64-.25-1.33-.58-.78-.2-2.39,0-.64-.34-2.16-3-.83-.79-1.88-1.32-.73-.83-.6-1.42-.46-2.06-.78-1.86-.14-.73h.46l.73.78,3.4,2.55.42,1.07,1,.89,1.29.63,1.14.2h2.76l.23-.3,1.88-1.71,1.06-.69.5-.49.23-.58.23.05.32.44.09.78-.64,1,.46.49L172,397l-.32-.88-2-.35-.78-.78-5.74-10.53-.82-3,.69-3.23,2.84-2.36.37-.93.6-.78,1.33-1,1.56-.78,1.1-.25-.73-.39-.74-.15h-.78l-.83-.44V371l.42-.15.64-.49,8.72,1.13,5.47,1.37,3.76,1.12,1.19.54.92.84.37,1.17-.23,1.37-.37.93,0,.84,1,1.22,3,2.6.92-.05.64.34.46.83.37.93.32.69,0,.59-.37.88-.78,1.42h-.51l.37.59.14.68-.14.64-.37.64,1.52,1,.83.39.91.15ZM527.9,362.4l.51.89.13.93-.18,1-1.42,3.38.18.74.78,1.22-1.06.05-.78.35-1.42,1.12.32-1.37-.41-.59-.74.2-.55,1.22.19.25.27.49,0,.54-.51.34-.36-.15-.28-.34-.18-.44-.83-1.18-.32-.73-.41-.69-.83-.63-1,.49-1.47-.35-1.43-.73-.91-.69-.19-.68.28-.79.36-.83.23-.78-.32-.54-.73-.34-1.29-.4.32.64.14.64-.09.63-.37.64-.46-1.52h-.41l-.69,1.08-1.1.29-1-.44-.46-1.22-.6-.88-1.14-1-.83-1.28.32-1.71-.5-.49h1.33l.92.64.82.78,1.06.54,1.1.05.73-.39.65-.59.78-.54,1.15-.34.91,0,.83.35.78.44.23.34.64,1,.28.2.55-.15,1-.74.46-.14.73.34,2.16,1.47.78.29.87-.49.55-.63.65-.1Zm-14.28-15.48.51-1-.74-1.13-1.19-1-.83-.54L513,343l1.47,1.22,1,1.86.83,3.23,1,1.28,1.24,1.12.92,1.33-1.61.05-1.69-1.87Zm-10.1,8.48-.46-1.13L501,352.7l-.64-1.17,1.1-.44.83-1,.59-1.23.23-1.22.1-2.7-.23-.88-.74-1.27,1,.15,1,.39.83.64.32,1.07-.37.69-.73.78-.46.93.41,1.23.6.24,1.65-.24.78.29.46.64.32.78.46.54,1,.15-.87-.59.27-.49.28-.39.37-.34.36-.3.51.88.69.49.64-.14.51-.79.55,1.28-.74.58-1.24.3-.92.44.78.24.6.44.46.49.51.4.68.24,1.43.3.69.48-1.52,3.14-1,1.27-.73-.78-.32.15-.74.19-.32.2-.23-.59-.14-.34-.55-.64-.27-1.52-1.43-.49-1.15.59.6,1.91-.87-.44L504,355.79Zm-13.36-13.67,1.43-.93-.65-1.27-1.33-.74-.78.64,0,.73-.28.79-.46.44-.59-.15-.46-.83v-.93l.27-.59.64.29v-1.32l-1.05-1.52-1.61-.68-1.47,1-.36-.39-.28-.1-.32.05-.41-.1.91-1.23,1.33-.39,2.35,0,2.15-.88,1,0,.5.93,1.38-.78,1.7.49,1.7,1.12,1.24,1.28.64.93.6,1.12.41,1.18.28,2.5.32.78,1.42,1.67h.55l.92.39.87.1-1.15,1.17-1.6-.49-3.26-2.2-1.47-.29h-1.61l-1.7-.4Zm-15.38-10-1.33.59-1.79.29-3-.1-1.56-.49-1.83-1.32-2.76-.54-1.93-.63-1.19-.84,1-.83-1-1.18-1.37,1.08-1.11.59-.18-2.55.28.2.64.34.23-1.52.6-.14.68.34h.55l.74-.1,3,.64L465,326.6l1.88.14,1.93-.14,1.7.14,1.61-.1,1.05-.88.92-1,1.19-.49,1.56.15,1.61.44,1.33.83.78,1.08-.23-.1-.64-.34.32,1,4.46,4.8.27.69-.23.73H484l-.59-.34-.56-.15-8.35,2v-.49l.18-.19.14-.2.14-.34,0-.54.23-.3.42.05.46.1.27-.1.09-.73-.27-.69-.55-.34Zm-37.41-13.18-.41-1-1-.39-4-.29-.69-.3-.87-.53,1.14-.2,6.29.44,1.06.64-.05.83Zm-25.07,0-.59-.1-.6-.29-.87-.64-1-.93L407,314l-1.24.44-1.2-.15-1.14-.59-1.56-1.22-.42-.15-.27-.34-.09-.88-.23-.3-1.06-.83-.32-.15-.55-.49-.37-1.07-.6-1-1.24-.49-2,.88-.87-.1-.09-1.37,1.88-.59,1.38-.1,1.1.54,3.49,4.12,1.47,1.22,3.08,1,2.47,2.16,2.76,1.07,1.38,1.47,1,1.72.6,1.37-1.52-1.42Zm-36-24.2.55-.05-.05,1L376,296l-1.43-.93-.64.19-.69,1-.69.35-.5-1.87,1-.58,1.06-.39h1.1Zm-28.51-2.05,3.26-1.72,1.46-.14,1.2.83-.32.19-.69.59-.32.25.64.29.41.44.23.59.05.73-6.75-1.22-1-.83.41-.35.37-.19.46.1ZM356,281.82l.41,1,.74.84.92.58.91.25,1.06,0,.37.14-.19.3-.55.54-1.33.63-1.38-.24-2.84-1.42.18-.79.32-.53.46-.54.41-.79Zm-42.33-4.11h.51l.64,1.12.41.49v.35l-.59.63-1.15.69-.78-.1-.74-.34-.82-.25-2.16.25-1.61.59-3.35,1.71.78-.83,4-2.79,1.2-.3,1.33.05,1.42.34-.28-.44-.36-.78-.28-.39.46-.44.28.49,1.05,1Zm22.54-1,.37-.1.46-.19.41,0,.19.54-.14.54-.41.34-.51.25-.6.44-.64-.15-1.19-.49-1.38-.44-1.15.25-.23-.44h-.32l-.78.44.23-1L331,276l.74-.29,1.1-.1.28.15.55.68.32.2.59.05Zm128.13,190,.19.3,0,.68-.5.4-.55.05-.46-.2-.37-.34-.37-.3-.13-.29.32-.2.32.15,1.61.34,0-.24-.05-.15Zm-4.68-.24.51.15,1,.29-.14.44-1,.05-.64-.44.09-.39Zm-223.3-73.53.51.59,0,1.32-1.14,1-2.67,1-2,1-.41.1-.37.24-.28.34-.91.3-1.47,0-.28-.2.83-.34,1.33-1.13.73-.24.65-.39.45-.59.42-.35,1.93-.78.82-.05.74-.34.59-.64.23-.54.1-.29ZM245,391.7l.92-.2.09.39-1,.84-1.15.78-2.11,1.76-1.15.05-.92-1-.23-1,.19.15.73.83,1.1-.14.92-.74.23-.49h-.23l.18-.15,2-.93Zm-53.12-21.8,2.48,1.17,1.1.89-.78.39-1.79,0-1.88-.84-.69-1.27ZM131,369.36h.5l-.36.15-1.34.05-1.51-.1-1-.49.69-.39,2,.44Zm133.87-7.84.46.54.18,1.08h-.55l-.69-.44-.69.1-.41-.15-.32-.44-.14-.59V361l.41-.29.74.2.68.39Zm189-36.3L454,325l.51.24-.05.49-.5.84-.19.44-1.19.44H452l-.13-.49-.05-1.23.41-.14.92.29.64-.1Zm-253.33-5.78.28.93.18,1.72-.36,1.32-.37.54-.28.49-.32-.34.19-4.71-.19-.63,0-.39.27-.1.32.34.23.54Zm220.69-1.07.59-.25,2.57-.15-.87.79-1.1.78H422V319l-.18-.39Zm-30.58-16.56.92.54.37.54-.6.68-1,.2-.51-.49v-.54l-.18-.25-.27-.14-.37,0-.46-.15-1.29-.93-.59-.74,0-.73.87-.25-.13-.49,0-.63.37-.25.41.84-.18,1.17.5.2,1.29.29.41.64Zm-9.78-7.94.51.79.09.54-.41.34-.78.29-.51.54.32.39.6.15.09.39-.5.59-.79.1-.78-.49-.41-.69.18-.44.42-.39.18-.34-.6-.1-.64-.39.69-1.13,1.52-.39Zm-15.79-6.41.28.53.27,1-.18.2-.42-.59-.27-.34h-.32l-.42.1-.55-.05-.36-.35-.28-.44.05-.14.23,0,.09-.44.14-.89.73-.19.78.88Zm-12.3-4.36.18.24.28.49-.1.54-.36.44h-.37l-.46-.34-.32-.49-.28-.59-.5-.2-1-.58-.28-.15-.14-.34-.09-.15-.46-.29-.18-.59.64-.44.51-.1.5-.05.6.15v.44l.46.54,1,.88Zm-10.52-3.53h.78l.92.15-.09.34-.55.15-.55,0-1.7.24-.64.54-1,.44-.92.3-.14-.15-.14-.49.23-.15.6.05-.09-.68.32-.4,1-.14h.51Zm-17.9-4.36.18.24.14.59-.14.49h-.32l-.18.05-.09.54-.33.1-.78-.15-.5.29-.14.49-.23-.24,0-1,.68-.78,1.15-.49Zm-7.12.44,4.18.49.09.2,0,.49-.42.14-.5-.29-.46-.05-.32.49-.23.2-1.47-.69-.78-.24-.46-.1-1.24.14-.73,0-1.89-.74-.64-.15-.5-.73-.42-.2.28-.39,1.33.15,1.88.73Zm-7-3.33.32.1.18.68-.5.59-.79-.1-.73-.29-.78-.1-.78-.34-.32-.54-.28-.29-.59-.25.45-.44,1.52-.15,1.84,1.18Z" style="fill:#efc441"/><polygon points="692.7 518.18 689.11 521.77 689.03 522.55 693.41 518.18 692.7 518.18" style="fill:#fff"/><polygon points="691.61 521.41 691.43 521.8 691.15 521.73 690.52 522.35 690.78 522.54 691.01 522.58 692.76 520.82 692.21 520.92 691.61 521.41" style="fill:#fff"/><polygon points="690.52 522.35 689.65 523.23 690.6 522.99 691.01 522.58 690.78 522.54 690.52 522.35" style="fill:#fff"/><polygon points="695.37 518.08 695.29 518.29 695.51 518.08 695.37 518.08" style="fill:#fff"/><polygon points="693.4 519.47 691.15 521.73 691.43 521.8 691.61 521.41 692.21 520.92 692.76 520.82 693.71 519.88 693.58 519.65 693.4 519.47" style="fill:#fff"/><polygon points="696.8 518.08 695.71 519.17 695.83 519.25 696.75 518.42 696.99 518.6 697.51 518.08 696.8 518.08" style="fill:#fff"/><polygon points="697.67 519.91 697.81 519.45 697.66 519.22 696.73 520.14 697.37 520.21 697.67 519.91" style="fill:#fff"/><polygon points="696.73 520.14 693.5 523.38 693.49 523.66 693.65 523.93 697.37 520.21 696.73 520.14" style="fill:#fff"/><polygon points="697.67 519.91 698.17 519.41 698.17 518.71 697.66 519.22 697.81 519.45 697.67 519.91" style="fill:#fff"/><polygon points="698.17 520.71 694.89 523.98 695.33 523.96 695.69 523.9 698.17 521.41 698.17 520.71" style="fill:#fff"/><polygon points="698.17 522.71 697.25 523.63 697.35 523.62 697.97 523.62 698.17 523.41 698.17 522.71" style="fill:#fff"/></svg>