<?xml version="1.0" encoding="UTF-8"?><svg id="Layer_1" xmlns="http://www.w3.org/2000/svg" viewBox="0 0 720 540"><path d="M632.84,482.38c-5.01-3.45-10.02-6.91-15.03-10.36-6.56-9.15-13.13-18.31-19.69-27.46-14.02-17.75-31.84-32.59-38.86-57.51-.52-.35-1.04-.69-1.55-1.04-1.55,1.38-3.11,2.76-4.66,4.15,1.32-2.36,2.82-2.62,3.63-5.7,.83-3.38-1.8-6.25-3.11-8.81-.69-2.59-1.38-5.18-2.07-7.77-5.38-11.68-18.18-15.86-27.98-23.32-8.83-6.72-19.93-17.12-30.05-21.76-3.03,1.78-58.8-2.25-67.88-4.15-11.25-2.35-18.76-12.57-30.05-12.95-5.01,.86-10.02,1.73-15.03,2.59-9.62-1.06-37.35-8.86-43.52-12.95-5.35-5.7-10.71-11.4-16.06-17.1-5.01-3.11-10.02-6.22-15.03-9.33-2.42-2.94-4.84-5.87-7.25-8.81-6.93-5.54-22-14.19-26.94-20.73-7.95-10.5-18.06-40-29.02-45.08-2.93-10.55-4.23-30.69-4.15-51.3-2.42-.17-4.84-.35-7.25-.52v-.52c2.25-.17,4.49-.35,6.74-.52,3.19-11.96-7.08-16.55-9.33-24.35-3.28-11.38-14.65-32.82-28.5-34.72-5.7-.52-11.4-1.04-17.1-1.55-10.88-5.53-21.76-11.05-32.64-16.58-10.46-6.85-28.21-26.83-43.01-26.94-2.83,3.5-5.5,6.68-6.74,11.92-7.69,5.76,2.04,11.77,5.7,18.13,2.06,2.89-1.35,7.63-2.59,11.92,2.25,3.8,4.49,7.6,6.74,11.4-6.34,10.26,.78,9-1.55,16.58-.5,1.63-2.78,2.39-2.07,5.7,1.73,3.11,3.45,6.22,5.18,9.33-.52,1.55-1.04,3.11-1.55,4.66-.76,11.19,2.15,18.46,6.22,24.87-2.69,1.5-12.75,10.27-12.44,13.99,2.07,3.28,4.15,6.56,6.22,9.84,1.04,2.94,2.07,5.87,3.11,8.81,1.82,2.07,5.99,1.29,7.77,3.63,1.73,3.97,3.45,7.95,5.18,11.92,3.98,4.12,10.04,1.02,15.54,4.15,2.58,1.9,2.33,6.41,4.66,8.29,1.9,.52,3.8,1.04,5.7,1.55,5.35,3.47,16.81,14.37,18.65,19.69-.35,2.59-.69,5.18-1.04,7.77l2.07,4.15c2.52,1.11,4.69,1.67,8.81,1.55,2.14,4.49,4.51,6.36,7.25,9.84-.52,2.07-1.04,4.15-1.55,6.22,3.02,.97,6.79,2.6,8.29,5.18,2.24,3.8-1.39,10.43,0,16.06,1.15,4.65,5.56,3.72,7.77,6.74,.52,1.9,1.04,3.8,1.55,5.7,4.58,7.51,18.56,12.68,29.53,12.44,2.26-3.25,4.14-7.4,7.77-9.33,.17-2.42,.35-4.84,.52-7.25,4.63,.83,7.73-2.5,11.4-1.55,11.72,3.02,21.22,10.36,28.5,19.17-.52,2.59-1.04,5.18-1.55,7.77,3.36,4.07,5.3,13.73,9.84,18.14,2.97,2.88,7.61,3.63,9.84,7.25,3.55,5.74,1.59,17.93,9.84,15.54-1.6,3.18-3.52,3.04-4.15,7.25,2.24,3.32,5.94,9.4,9.84,10.88,2.59,.35,5.18,.69,7.77,1.04,1.38,2.07,2.76,4.15,4.15,6.22,3.43,2.61,16.76,8.7,18.65,8.29-.52,1.38-1.04,2.76-1.55,4.15,3,3.88,10.33,9.55,15.54,10.88-.62-1.67-.72-1.41-1.55-2.59,1.21,.52,2.42,1.04,3.63,1.55,.26,1.76,.16,.59-.52,2.07,4.27,4.71,18.46,9.12,25.91,9.84,2.08-1.87,2.65-4.8,5.18-6.22-1.04,2.42-2.07,4.84-3.11,7.25,33.71,8.63,51.98,29.76,79.79,43.01,4.43-1.1,6.13-5.53,8.29-8.81,1.73,.86,3.45,1.73,5.18,2.59,1.35,5.62,2.39,11.44,4.15,15.54,4.05,1.71,7.62-.6,11.92,.52,4.45,1.15,6.58,5.23,12.95,5.7-.52,.52-1.04,1.04-1.55,1.55,1.56,.43,.95,.99,2.07-1.04,2.07,.17,4.15,.35,6.22,.52-.15,7.89,7.25,13.54,15.03,13.47,2.37,3.09,2.98,1.93,1.04,4.66v.52c4.66,.86,9.33,1.73,13.99,2.59,5.93,2.39,10.94,7.21,18.65,8.29,5.1,.72,9.61-4.72,15.03-1.55,.24-1.94,.57-.85-1.04-2.07,.52-1.21,1.04-2.42,1.55-3.63,4.61,1.82,9.96-3.9,18.65-3.11,11.91,1.08,16.46,3.73,28.5,3.63,.69-1.48-.42-.77-1.55-1.55,.9-.24,2.62-1.34,3.11-4.15,5.4-.29,8.14,1.38,11.4,2.59,1.04-1.04,2.07-2.07,3.11-3.11l-13.47-13.47ZM101.23,50.25c.17-.35,.35-.69,.52-1.04h.52c-.35,.35-.69,.69-1.04,1.04Zm1.04-1.55v-.52c1.09-.84,.56-.63,1.04-2.59,.17,.86,.35,1.73,.52,2.59-.52,.17-1.04,.35-1.55,.52Zm3.63-6.74c-.17-.35-.35-.69-.52-1.04l1.55-1.55c.35,.35,.69,.69,1.04,1.04-.69,.52-1.38,1.04-2.07,1.55Zm3.11,69.43c-1.1-1.21-.26,.06-.52-1.55h.52v1.55Zm3.11,24.35v-2.07c.17,.69,.35,1.38,.52,2.07h-.52Zm-5.7,30.05h-.52c.69-1.21,1.38-2.42,2.07-3.63,.35,.17,.69,.35,1.04,.52-.86,1.04-1.73,2.07-2.59,3.11Zm3.11-5.18c.17-.35,.35-.69,.52-1.04h.52l-1.04,1.04Zm7.25-5.7c.52-1.04,1.04-2.07,1.55-3.11,.35,1.04,.69,2.07,1.04,3.11h-2.59Zm25.91,44.56c1.2-2.61,2.13-3.35,2.07-7.77-1.7-2.17-3.1-2.66-3.63-6.22,1.38,.17,2.76,.35,4.15,.52-1.22,2.7-.18,7.11,1.04,10.36l-3.11,3.11h-.52Zm2.59,1.55h-1.55c.86-.69,1.73-1.38,2.59-2.07h.52c-.52,.69-1.04,1.38-1.55,2.07Zm2.59-2.07c-1.02-1.27-.3-.21-.52-1.55h.52v1.55Zm-.52-2.59v-1.55h.52c-.17,.52-.35,1.04-.52,1.55Zm9.33-4.66c-3.54,.93-6.36,1.23-8.81,2.59v-1.04c-2.04-2.18-1.14-4.44,0-7.77l.52,.52c2.55,.52,4.76,3.7,8.29,5.18v.52Zm10.88-12.95c.17-.17,.35-.35,.52-.52,.35,.17,.69,.35,1.04,.52-.35,.35-.69,.69-1.04,1.04-.17-.35-.35-.69-.52-1.04Zm1.55,46.11v1.04h-.52c.43-2.3,.65-2.17,1.55-3.63,.22,1.33,.04,1.37-1.04,2.59Zm3.11,17.62v-7.77c.17,2.59,.35,5.18,.52,7.77h-.52Zm-.52-18.65c.17-.52,.35-1.04,.52-1.55l.52,.52c-.35,.35-.69,.69-1.04,1.04Zm24.87,57.51c.87,1.08,.83,1.02,1.04,3.11-.35-1.04-.69-2.07-1.04-3.11Zm35.23-137.83c.69,.17,1.38,.35,2.07,.52-.35,.17-.69,.35-1.04,.52-.35,.52-.69,1.04-1.04,1.55-.17-.17-.35-.35-.52-.52,.17-.69,.35-1.38,.52-2.07Zm-3.11-23.83c-2.36,0-3.05,.09-4.15-1.04,2.35,.05,2.97,.1,4.15,1.04Zm-2.07,176.69v-1.04c-.56,1.45,0-1.24,0-1.55,1.05,.93,.38-.01,1.04,1.55-.35,.35-.69,.69-1.04,1.04Zm.52-3.11c.17-.35,.35-.69,.52-1.04h.52l-1.04,1.04Zm-2.07,1.55h-.52c-3.4-1.27-4.33-1.22-4.15-6.22,2.94,.17,5.87,.35,8.81,.52,.35-.52,.69-1.04,1.04-1.55,.78-1.76-2.02-5-3.63-7.77,.35-.35,.69-.69,1.04-1.04,2.07,.96,2.63,1.03,3.63,3.11h.52c.97-1.26,1.13-4.38,1.55-6.22h4.15c-1.62,2.96-1.37,6.67,.52,9.84-5.26,2.38-10.89,3.83-12.95,9.33Zm82.9,72.54c.17-.52,.35-1.04,.52-1.55,.17,.17,.35,.35,.52,.52-.35,.35-.69,.69-1.04,1.04Zm2.59-8.81c.35-.52,.69-1.04,1.04-1.55h5.18c.17,.35,.35,.69,.52,1.04-2.85,3.47-1.96,1.12-6.74,.52Zm6.74-1.55c.35-.69,.69-1.38,1.04-2.07h1.55c-.69,.86-1.38,1.73-2.07,2.59l-.52-.52Zm1.55,2.59c.35-.86,.69-1.73,1.04-2.59h.52c-.77,1.4-.04,1.25-1.55,2.59Zm4.15-5.18c-.35,.17-.69,.35-1.04,.52-2.17-1.98-3.04-2.84-4.15-1.55-.52-.17-1.04-.35-1.55-.52,.69-1.04,1.38-2.07,2.07-3.11,1.55,.35,3.11,.69,4.66,1.04v3.63Zm2.59,23.83c.35,.69,.69,1.38,1.04,2.07-1.36-1.29-.8-.69-1.04-2.07Zm21.76,19.17c-1.01-1.43-.47-1.32,0-3.63,.51,1.59,.59,1.45-.52,2.59,.17,.35,.35,.69,.52,1.04Zm-1.04-5.18v-1.55h1.04c-.35,.52-.69,1.04-1.04,1.55Zm0-3.63c-2.05-1.74-2.12-8.15-2.07-12.95,.52-.69,1.04-1.38,1.55-2.07,2.07,1.38,4.15,2.76,6.22,4.15,.17,.35,.35,.69,.52,1.04-2.86,2.43-6.26,6.09-6.22,9.84Zm48.71,2.59c.17,1.21,.35,2.42,.52,3.63-.35-.17-.69-.35-1.04-.52,.17-1.04,.35-2.07,.52-3.11Zm-5.18-82.9c.35-.17,.69-.35,1.04-.52h1.04c-.69,.35-1.38,.69-2.07,1.04v-.52Zm-6.22,80.83c.47,.92,.51,.13,0,1.04v-1.04Zm-8.81,2.59v-2.59c.17-.17,.35-.35,.52-.52,.52,.17,1.04,.35,1.55,.52l2.07,2.07c-1.38,.17-2.76,.35-4.15,.52Zm7.77,7.77c-.35-.86-.69-1.73-1.04-2.59h2.59c.17,.35,.35,.69,.52,1.04v.52c-.35,.35-.69,.69-1.04,1.04h-1.04Zm20.21,9.84c.17-.35,.35-.69,.52-1.04,.17,.35,.35,.69,.52,1.04h-1.04Zm14.51,1.55h-.52c-.52-.17-1.04-.35-1.55-.52v-3.63c.69,1.21,1.38,2.42,2.07,3.63v.52Zm-11.4-6.74c-.17,.52-.35,1.04-.52,1.55,1.21,1.21,2.42,2.42,3.63,3.63-.86,.35-1.73,.69-2.59,1.04-.7-2.53-1.04-2.21-2.59-3.63-.94-.9-.6-1.7,0-3.63-2.24-2.41-6.51-1.07-8.29,1.55-.17-.86-.35-1.73-.52-2.59-5.06-.14-7.24-2.02-10.36-1.55,.52-.35,1.04-.69,1.55-1.04,.69-.86,1.38-1.73,2.07-2.59-2.25-.52-4.49-1.04-6.74-1.55-.35-1.21-.69-2.42-1.04-3.63,3.36,1.03,6.23,1.16,8.81-1.04,.35,1.38,.69,2.76,1.04,4.15,.69-.35,1.38-.69,2.07-1.04,.86,1.73,1.73,3.45,2.59,5.18,2.42-.35,4.84-.69,7.25-1.04,1.08-1.07,.98-1.34,1.04-3.63,2.59-.35,5.18-.69,7.77-1.04-.86,1.55-1.73,3.11-2.59,4.66v.52c3.47,.98,6.55,1.64,8.29-.52,1.12,2.43,.93,2.03,3.11,4.15-1.94,3.06-9.76,1.47-13.99,2.07Zm13.99-13.47v3.11c-1.21-.69-2.42-1.38-3.63-2.07-2.1,1.55-2.92,2.65-3.63,5.7h-1.04c.21-2.12,1.6-3.72,1.04-5.18-.43-.45-2.06-.98-2.59-3.11-1.21-.35-2.42-.69-3.63-1.04v-6.22c5.95,.09,8.15-1.26,11.4-3.63h3.63c.91,3.23,1.97,4.19,2.07,8.29-2.25,.69-4.49,1.38-6.74,2.07,.92,2.11,.48,1.69,3.11,2.07Zm7.25,11.92h-2.59c-.17-.35-.35-.69-.52-1.04,.17-1.04,.35-2.07,.52-3.11v-1.04h1.04l1.55,1.55v3.63Zm33.16,44.04c-1.75-1.11-2.61-1.88-5.18-1.04,.93-2.65-2.86-5.35-4.15-5.7,1.92-2.9,5.1-5.77,7.25-8.81,1.28,1.63,1.2,5.18,1.04,8.29,1.04,.17,2.07,.35,3.11,.52-.17,.35-.35,.69-.52,1.04h1.04c-.86,1.9-1.73,3.8-2.59,5.7Zm12.95-122.8h4.15c-1.3,1.36-2.85,1.44-4.15,0Zm39.9,129.02c-.63,.49,.01,.98-2.07,.52-.17,4.14-.35,8.29-.52,12.44-.35,.17-.69,.35-1.04,.52-.31-2.98-.59-4.88-2.59-6.22-1.37-1.09-3.48-1.16-6.22-1.04-.17,.35-.35,.69-.52,1.04-2.24,2.5-.56,7.35-3.11,10.36,.17,.35,.35,.69,.52,1.04-3.17-4.33,.13-11.09-1.55-13.99-3.18,.11-6.23,1.87-6.74,3.11h-1.55c.52-1.38,1.04-2.76,1.55-4.15-1.21-.89-4.06-1.05-5.18-2.07-.35-.35-.69-.69-1.04-1.04h2.59c.17-3.28,.35-6.56,.52-9.84,1.59,1.69,2.82,3.77,3.11,6.74,2.59-2.25,5.18-4.49,7.77-6.74h2.07c.17,2.25,.35,4.49,.52,6.74,1.04,.17,2.07,.35,3.11,.52,.17-.69,.35-1.38,.52-2.07-2.13-1.51-1.88-4.69-.52-6.74,.35,.52,.69,1.04,1.04,1.55,2.95-.46,3.53-1.57,5.7-1.04,1.55,1.73,3.11,3.45,4.66,5.18,.09,2.5,.14,4.02-1.04,5.18Zm41.97-47.15c-2.4,.87-4.99,1.11-7.77,.52-.69-2.25-1.38-4.49-2.07-6.74-3.33,1.54-4.55,2.69-8.29,5.18-1.74-2.57-2.3-4.02-6.74-4.15v-1.04c2.98-.25,4.16-.82,6.74-2.07-.75-2.89-2.39-5.28-5.18-6.22,.69-1.38,1.38-2.76,2.07-4.15,5.42,1.13,9.86,1.75,13.47,4.66,1.93-.08,2.83-.66,5.18-1.55l-3.11,3.11c1.52,5.21,2.33,8.76,5.7,11.92v.52Zm-1.04-14.51c.35-.52,.69-1.04,1.04-1.55h.52c-.52,.52-1.04,1.04-1.55,1.55Zm-58.03,57c.69,.17,1.38,.35,2.07,.52-.35-.69-.69-1.38-1.04-2.07-.35,.52-.69,1.04-1.04,1.55Zm-3.11,.52c-.3,2.97,.42,3.52,2.59,5.18,.61-.96,.05-4.33-2.59-5.18Zm21.24,36.27c.35,.35,.69,.69,1.04,1.04,.17-.35,.35-.69,.52-1.04-.35-.35-.69-.69-1.04-1.04-.17,.35-.35,.69-.52,1.04Zm60.1,25.39v-.52c-.52-.35-1.04-.69-1.55-1.04,.63,1.34-.52,.82,1.55,1.55Z" style="fill:#efc441; fill-rule:evenodd;"/></svg>