<svg xmlns="http://www.w3.org/2000/svg" viewBox="0 0 800 800"><polygon points="329.54 239.88 331.85 239.96 335.81 239.01 348.26 239.8 348.49 238.45 348.34 233.12 348.26 232.72 348.19 232.08 348.26 231.28 348.56 230.73 349.61 229.69 349.98 228.9 349.83 224.44 348.19 222.29 346.4 221.02 345.95 219.26 346.47 218.79 347 218.39 347.67 218.07 348.26 217.99 349.83 216.96 350.35 216.24 350.65 214.97 352.74 216.64 358.26 217.75 359.16 219.26 360.42 220.38 361.99 221.1 363.18 220.86 363.56 219.26 364.53 217.28 365.94 216.4 367.21 216.96 367.74 219.26 368.78 221.57 374.97 221.65 377.88 222.93 379.6 225.39 379.52 226.91 378.55 228.5 377.81 231.37 378.11 233.51 379.15 236.22 380.42 238.77 381.61 240.44 383.77 241.95 385.71 242.75 387.36 243.94 388.7 246.89 388.7 248.32 388.4 249.91 388.32 251.34 389 252.62 390.41 253.02 390.56 253.02 391.76 251.9 392.8 250.31 393.85 249.12 398.4 248.8 420.18 255.64 421.45 256.36 422.87 258.35 423.69 258.99 424.81 259.38 433.83 257.39 436.59 257.63 436.82 258.67 437.11 259.62 442.63 267.98 443.38 268.22 446.36 268.14 452.86 265.91 454.64 266.15 456.06 267.42 457.48 269.81 458.45 271.88 459.05 274.03 458.82 275.86 457.26 276.98 457.03 277.45 456.96 277.93 457.03 278.41 457.26 278.89 461.88 278.17 468.6 272.28 473.22 272.76 476.65 275.07 478.29 275.78 480.16 275.38 481.5 273.87 482.25 271.96 483.07 270.45 484.49 270.13 488.44 270.21 492.02 271.01 495.38 272.76 504.63 281.51 505.6 284.38 502.17 285.65 502.61 286.85 502.61 287.32 502.31 287.72 501.87 288.68 501.64 289.39 501.5 290.59 501.5 291.46 501.87 291.38 500.9 292.58 498.66 294.57 497.62 295.84 495.75 296.24 492.24 295.36 490.53 295.84 489.71 297.83 488.07 299.03 486.2 300.06 484.49 301.33 483.89 301.57 482.92 302.13 482.25 302.21 482.77 303.88 482.92 304.36 480.76 303.88 479.94 306.35 480.98 309.06 484.49 309.61 485.9 313.51 486.43 314.39 487.84 315.42 488.59 315.26 489.41 314.63 490.68 314.31 495.6 314.31 496.65 314.55 497.47 315.98 497.54 317.41 497.39 318.77 497.69 320.12 499.63 322.43 504.48 324.02 506.94 325.53 508.51 327.52 511.27 332.06 512.83 333.97 514.18 336.2 517.53 339.3 518.73 342.17 519.92 347.34 520.97 349.25 522.9 351.48 526.63 354.59 531.19 356.74 535.66 356.42 538.94 352.36 541.41 350.77 542.75 349.1 543.94 347.02 545.88 344.32 548.34 342.49 550.51 342.17 552.67 342.33 554.01 342.01 555.21 341.77 556.25 340.9 558.04 338.67 559.38 337.87 560.28 337.87 562.29 338.51 563.34 338.43 563.56 337.87 563.56 336.04 563.86 335.56 565.43 335.64 566.1 336.04 566.62 336.92 567.82 338.51 569.08 338.99 569.83 337.63 569.61 335.64 568.19 333.97 568.04 330.23 566.85 327.52 564.9 325.61 562.22 324.18 560.21 322.27 559.09 319.32 558.27 316.14 557.07 313.35 553.57 308.74 553.57 306.59 556.55 305 559.01 305.24 562.07 306.91 563.71 307.78 566.25 307.46 577.44 310.33 578.63 310.97 581.17 312.88 582.51 313.51 584 313.51 587.36 312.96 588.63 313.27 588.4 313.67 588.78 315.34 589.45 317.33 590.12 318.69 591.16 319.72 594.97 321.87 597.58 322.51 602.73 322.43 604.97 323.23 602.95 324.02 603.25 324.58 603.62 325.06 604.07 325.53 604.59 325.93 604.44 327.84 604.67 329.83 605.41 331.34 606.91 332.38 608.02 329.59 610.49 329.43 612.87 331.11 613.84 333.97 614.44 334.29 614.96 334.45 615.56 334.29 616.16 333.97 619.36 330.47 624.51 330.07 634.28 331.58 636.82 331.02 638.69 329.67 641.89 325.61 642.49 324.42 642.79 323.38 643.46 322.91 645.33 323.54 645.92 324.1 647.94 326.49 648.24 326.81 648.31 327.28 648.24 327.68 647.94 328.16 646.74 331.02 646.59 332.46 646.82 333.97 647.94 335.01 649.65 337.79 648.61 340.1 646.44 341.85 641.82 344.32 638.91 345.35 633.61 345.51 632.42 346.07 631.6 347.58 631.82 348.7 637.12 354.75 638.84 355.38 639.95 355.22 640.85 354.75 642.04 354.51 643.46 354.83 646.44 356.18 647.94 356.42 648.01 356.58 648.01 356.74 648.01 356.9 647.94 356.98 646.97 357.77 646.59 358.57 646.97 359.44 647.94 360.4 649.13 361.67 649.88 363.34 650.55 365.25 651.37 367 652.56 368.52 659.65 374.89 663.6 375.6 667.56 374.57 670.76 371.94 672.78 371.46 677.18 371.38 680.69 370.43 681.28 369.79 681.06 368.28 680.31 367.16 679.34 367.16 678.52 367.4 677.93 367.16 677.4 363.74 679.27 364.14 680.76 364.54 687.18 368.28 686.43 371.06 687.85 372.5 694.86 373.69 696.5 374.57 699.93 377.19 701.2 377.67 703.74 378.15 705.08 379.02 705.53 379.9 706.27 382.21 706.87 383.24 709.03 384.84 710.6 384.6 713.66 382.21 713.51 381.89 713.44 381.73 713.21 381.65 712.99 381.65 717.39 381.17 721.57 382.53 729.7 386.51 732.24 386.51 736.49 384.04 738.13 384.92 738.8 387.7 738.5 390.01 739.02 391.84 741.86 393.27 738.88 396.38 738.95 400.44 740.82 405.06 743.43 409.83 744.47 414.21 745.14 415.32 746.63 416.28 749.99 416.52 751.56 417 752.97 418.03 755.06 420.26 756.48 421.06 758.05 420.89 759.76 420.26 761.48 419.94 763.12 421.06 763.57 422.25 764.31 427.42 764.76 428.94 766.1 431.56 766.55 432.92 768.12 439.36 768.42 442.47 767.97 445.01 763.49 445.09 761.48 445.81 757 449.55 753.94 449.71 750.81 448.83 747.23 447.16 746.48 447 745.74 447.16 742.61 448.68 737.76 448.04 735.52 449.31 735 450.51 734.7 453.37 734.17 454.65 733.28 455.52 729.7 457.27 725 462.37 722.61 463.8 719.4 463.16 719.18 470.33 716.57 472.16 712.54 475.02 697.84 480.2 694.64 482.9 692.02 486.81 690.01 491.34 688.59 496.28 688.22 500.34 688.22 501.21 688.37 507.9 687.7 511.24 685.39 514.67 682.18 517.37 678.6 518.88 672.7 518.49 670.09 518.88 667.78 520.24 666.36 522.87 665.69 525.09 664.87 529.71 663.98 531.78 661.96 533.53 659.87 533.61 657.56 533.29 654.87 533.69 653.16 535.04 649.35 540.86 647.41 542.37 626.53 549.85 622.5 549.29 619.22 546.03 617.57 545.39 614.96 546.03 613.02 547.22 610.86 548.5 609 548.82 596.54 543.08 591.31 541.89 586.47 542.85 580.57 546.66 579.6 548.1 578.93 550.88 577.36 552.72 573.63 555.66 570.95 559.8 565.43 574.21 564.16 576.28 562.44 578.19 562.22 581.05 558.41 577.07 556.92 567.2 554.31 563.86 552.52 563.78 548.34 565.13 546.25 565.37 544.24 564.65 540.29 562.27 538.65 561.79 534.54 561.95 532.75 561.63 531.34 560.75 530.59 559 530.14 556.85 529.32 555.02 527.23 554.23 525.22 554.07 518.65 552.32 516.86 551.2 515.82 550.96 514.85 551.04 512.83 551.84 511.71 551.84 508.58 551.44 506.72 552.56 501.12 561.15 499.93 562.19 498.29 562.66 497.62 562.51 496.2 561.39 493.96 561.71 493.81 561.79 478.59 559.8 468.52 560.28 462.7 558.05 451.74 550.8 451.59 550.09 451.59 549.05 451.06 548.42 449.2 548.82 449.05 547.22 448.23 546.59 447.04 546.51 445.69 546.83 446.81 545.47 445.84 545.55 445.02 545.15 443.83 544.44 441.74 544.28 441.07 543.96 440.47 543.24 440.02 541.33 439.43 540.93 436.07 540.93 435.17 541.17 431.3 543 429.43 543.56 426.89 543.56 424.51 543 416 538.71 409.51 536.4 407.05 535.52 401.68 531.3 399.29 530.03 394.44 528.6 389.22 526.13 386.76 525.57 381.69 525.49 381.16 525.17 380.72 524.38 380.12 523.74 379.3 523.82 378.85 524.38 378.63 526.45 378.25 527.24 376.76 528.84 376.17 529.15 367.88 531.22 365.72 531.14 366.39 528.99 366.47 527 366.02 524.93 365.2 522.87 356.69 522.23 350.65 520.32 348.26 520.64 347.89 520.88 347.74 521.35 347.74 522.07 347.82 522.87 346.32 526.05 346.32 530.27 346.77 534.88 346.77 539.02 344.46 548.42 343.64 550.33 343.49 551.36 343.71 552.32 344.16 553.43 344.68 554.47 344.91 554.71 343.64 557.33 341.4 557.49 335.81 555.42 330.14 554.71 328.5 555.26 327.82 556.7 327.38 558.53 326.26 560.28 325.74 563.14 319.99 567.68 317.98 570.78 317.53 574.76 317.6 579.38 317.08 583.2 316.56 583.68 314.84 585.19 313.05 585.11 312.23 584.16 311.56 582.73 310.44 581.29 309.7 581.21 308.05 581.69 307.16 581.61 306.86 580.97 306.86 580.02 306.71 579.06 305.96 578.51 304.32 578.59 301.04 580.02 299.4 580.34 298.13 580.1 293.81 578.03 291.19 575.24 289.55 576.2 287.17 582.09 285.38 583.76 279.78 585.91 277.54 587.58 276.72 587.82 275.68 587.98 264.86 584.48 249.42 582.88 245.69 581.53 244.79 580.74 242.93 578.66 242.41 577.79 241.88 575.8 242.11 575.32 242.7 575.16 243.45 573.73 243.82 573.49 244.34 573.57 244.79 573.49 245.02 572.54 244.72 571.66 244.12 571.18 243.3 570.94 242.78 570.47 242.11 569.19 240.24 566.73 239.35 565.77 231.96 562.11 229.57 560.28 227.63 558.92 225.55 557.89 221.14 556.77 219.06 554.78 213.76 545.23 211.22 541.65 209.73 540.93 205.63 540.3 203.61 539.42 201.75 537.75 200.03 535.44 198.84 532.74 198.62 529.87 196.6 530.03 194.74 529.15 192.87 527.8 191 526.76 189.22 526.37 188.47 526.29 186.98 526.85 185.93 528.52 184.81 531.14 182.28 530.03 178.84 527.8 175.71 525.17 174.15 522.87 174.07 518.65 172.8 516.02 168.18 511.72 164.9 507.74 163.55 506.71 161.39 505.91 154.82 505.67 151.69 504 149.97 501.45 148.56 498.51 138.34 486.01 136.99 485.29 133.49 481.55 132.97 480.12 132.82 478.69 132.22 477.49 130.35 476.77 127.3 473.83 125.73 472.64 123.86 471.76 119.69 470.73 118.19 471.12 118.64 473.11 116.63 473.35 110.21 472.48 108.05 471.76 106.33 470.17 102.75 462.93 100.59 460.94 95.52 458.79 93.43 457.19 92.16 454.96 91.64 452.58 91.34 447.56 91.19 445.09 90.37 444.46 89.17 444.62 87.98 444.3 86.79 443.18 85.97 441.99 85.22 440.72 84.55 438.88 84.1 437.13 83.58 433.71 82.83 432.12 81.72 431 79.1 429.65 77.98 428.46 78.06 428.06 78.58 426.94 77.69 426.55 77.39 426.31 78.36 424.48 78.28 422.49 77.39 420.89 75.82 420.18 72.24 418.59 70.6 417.55 69.03 416.28 66.72 413.33 65.6 411.42 65.08 409.83 66.35 407.52 70.9 405.85 72.61 404.26 72.99 401.79 72.99 398.61 73.66 396.46 75.82 397.1 76.64 394.71 79.18 390.57 80.07 388.26 80.37 385.31 79.7 384.2 78.13 383.64 73.66 381.25 73.81 379.66 74.55 377.59 74.25 375.36 72.46 373.77 68.44 373.45 66.8 371.94 66.65 371.94 50.16 364.06 49.86 363.11 49.79 361.67 49.56 360.16 48.59 358.65 47.03 357.37 45.31 356.5 43.74 355.22 42.77 352.92 42.7 350.69 43.52 347.19 43.15 344.96 42.33 343.13 41.13 341.37 38.45 338.75 33.08 335.8 31.96 333.97 33.3 332.14 34.42 331.42 35.16 330.79 35.39 328.8 34.94 326.65 34.05 325.29 31.58 322.91 34.34 323.14 39.56 323.46 41.65 324.82 42.25 326.17 42.25 328.8 42.7 329.99 43.89 330.95 45.46 331.42 48.59 331.5 49.41 331.82 49.71 332.38 49.71 333.1 49.19 333.97 49.04 333.97 48.89 334.05 48.74 334.13 48.59 334.21 48.29 334.53 48.22 334.85 48.29 335.17 48.59 335.48 50.53 337.23 50.98 337.79 51.43 338.83 51.65 339.7 51.73 340.5 53.07 344.64 54.19 346.23 55.98 346.39 57.54 345.43 57.54 344.08 56.87 342.49 56.57 340.58 56.95 337.87 57.47 336.44 59.63 333.97 59.93 331.58 60.83 330.39 62.02 329.59 63.29 328.4 66.65 322.91 67.84 321.87 71.05 320.28 72.31 319.24 72.76 319.01 73.73 319.08 74.18 318.85 74.4 318.29 74.33 317.73 74.18 317.18 74.18 316.86 74.4 316.22 74.63 315.42 75.08 314.63 75.82 313.99 78.88 311.68 83.28 310.57 91.41 310.01 97.23 310.97 98.65 310.81 99.92 309.77 102.31 306.43 103.72 305.15 105.44 304.6 107.23 304.52 109.17 304.76 109.84 304.52 111.41 303.64 112.38 303.4 113.27 303.64 123.34 309.13 127.07 309.37 127.97 308.58 130.35 306.51 131.85 304.84 132.59 302.05 133.34 295.84 134.23 295.28 135.13 295.13 136.02 295.28 136.84 295.84 137.81 296.08 138.86 296.16 139.83 296.08 140.87 295.84 143.93 294.89 149.68 295.2 152.36 293.37 153.93 290.83 157.58 282.23 159.67 282.39 161.46 283.5 163.25 284.22 165.57 283.19 166.69 280.08 167.36 279.13 171.38 276.5 172.06 275.86 172.13 275.3 172.43 275.14 173.77 275.54 174.37 276.18 175.86 278.49 176.61 279.29 179.07 280.32 181.08 279.84 182.95 278.41 184.81 276.26 185.86 275.7 186.53 274.99 186.68 274.11 186.01 272.84 187.8 271.64 189.29 269.97 189.74 267.9 188.47 265.51 192.94 263.13 197.87 262.33 207.64 262.33 209.73 262.01 213.91 260.58 216.22 260.42 221.22 260.9 223.23 260.5 226.37 258.75 227.04 258.75 227.63 258.59 228.38 257.63 228.46 256.84 228.16 255.72 228.08 254.45 228.53 252.94 229.5 251.82 230.47 251.82 231.51 252.06 232.86 251.9 233.98 251.19 235.69 249.28 236.81 248.56 238.97 248.08 242.93 248.56 245.02 248.48 262.03 241.47 263.37 240.36 265.38 237.73 266.5 236.7 270.45 235.98 279.04 236.54 282.17 234.15 282.84 230.33 279.93 228.82 275.9 227.78 273.14 225.31 273.22 223.72 274.19 223.09 274.33 222.85 272.17 222.05 268.52 221.57 267.25 220.86 268.44 219.26 269.93 214.89 272.54 212.5 276.05 212.02 280.08 213.22 280.9 213.85 281.5 214.73 282.17 215.52 283.36 216.08 284.56 216.16 287.61 214.97 291.57 215.13 292.84 214.57 293.81 212.42 294.4 213.77 294.63 214.65 295 215.6 296.04 216.88 297.39 217.67 300.37 218.31 301.71 219.26 302.98 220.7 303.8 221.89 304.18 223.4 303.95 225.71 303.13 227.54 301.79 229.77 301.19 231.68 302.46 232.56 308.5 230.33 309.85 230.33 310.37 232.08 309.77 234.07 307.9 237.97 307.53 240.68 308.05 241.87 311.86 242.83 313.43 243.54 317.6 246.41 321.63 247.21 323.94 247.28 325.74 246.89 326.78 245.77 327.82 244.02 329.54 239.88" style="fill:#efc441"/></svg>