<svg xmlns="http://www.w3.org/2000/svg" viewBox="0 0 800 800"><polygon points="664.29 547.25 643.63 582.23 536.76 759.75 530.7 757.69 526.57 761.22 522.44 766.51 516.65 768.86 511.14 767.98 501.23 764.75 484.7 762.98 475.61 760.92 469 754.75 458.81 731.24 451.1 728.01 441.45 727.71 412.81 720.37 409.78 720.66 394.35 721.83 358.27 733.59 331.55 752.4 322.74 756.81 316.68 756.52 310.62 754.16 301.25 752.7 288.31 757.4 284.72 757.69 277.56 757.4 274.26 757.69 259.66 764.75 254.43 766.22 246.71 766.22 226.05 760.92 204.02 763.57 193 767.39 180.6 780.91 169.59 783.85 146.72 785.03 143.97 786.2 142.04 788.26 140.11 789.73 136.53 789.43 134.05 787.08 132.95 784.73 131.57 782.38 84.2 772.09 74 767.98 71.25 763.86 69.05 760.92 76.21 748.58 78.96 730.06 79.79 646.59 74.83 599.27 64.36 549.31 64.09 525.5 76.21 486.12 81.72 453.2 88.05 439.09 93.84 434.98 109.81 427.63 113.67 422.04 115.87 415.87 119.45 413.23 123.86 411.76 129.65 408.82 135.16 404.41 139.56 399.41 154.99 376.19 188.32 325.93 204.57 293.9 208.98 288.61 218.34 283.61 221.65 278.32 227.71 262.45 281.42 184.56 293.54 156.05 317.78 121.37 338.44 97.56 345.6 96.39 356.62 99.33 375.07 108.14 438.15 167.51 443.38 159.29 445.31 158.7 457.98 154.88 463.49 146.65 466.8 142.83 478.92 140.18 483.87 137.54 486.35 125.78 482.5 111.97 481.12 99.03 498.75 81.4 508.11 57.89 514.73 51.42 518.31 52.01 523.26 56.12 527.39 55.83 614.99 15.86 621.32 20.56 625.18 28.2 628.49 37.02 632.62 44.37 672.01 91.98 681.65 108.14 687.16 114.32 693.49 116.37 700.1 111.38 700.1 126.66 700.93 134.01 702.86 141.36 705.89 147.53 709.74 152.23 712.5 157.52 713.88 165.16 714.43 181.92 715.53 190.73 718.01 196.91 733.16 218.95 734.26 226.3 733.16 251.87 735.91 284.79 733.98 298.6 727.92 311.53 719.38 322.41 708.64 329.75 705.34 330.64 694.59 332.69 683.58 338.57 675.59 340.04 658.23 340.63 650.8 342.69 637.58 352.68 606.73 392.06 604.52 393.53 602.04 394.42 598.19 396.47 595.43 398.24 593.5 401.18 592.13 407.35 589.92 409.99 584.14 412.05 562.38 413.23 556.59 415.58 550.53 419.99 544.47 422.93 533.46 418.52 526.02 419.99 488.56 434.09 477.81 440.85 468.73 451.44 440.35 506.1 437.87 509.92 434.02 512.27 421.35 516.1 417.77 516.39 408.13 514.33 397.38 514.92 394.08 514.33 391.87 512.86 388.02 506.98 385.81 505.51 377.27 506.1 372.32 509.63 372.32 512.86 377.55 511.39 379.48 520.8 379.48 521.39 379.75 531.67 381.96 540.78 395.18 546.08 403.17 554.01 408.13 556.07 413.63 554.89 419.97 548.72 424.65 547.25 428.23 548.13 431.81 549.89 435.67 550.78 439.53 548.72 441.73 543.13 438.98 539.9 434.84 537.55 432.92 535.2 436.5 528.15 444.49 521.97 462.94 514.33 490.21 511.1 498.75 508.45 502.88 505.22 506.19 501.69 509.49 500.22 513.9 504.05 517.2 505.51 527.67 505.51 583.86 504.63 592.4 502.87 600.39 503.16 609.2 508.45 617.19 506.69 621.32 500.52 624.35 494.64 628.76 493.46 630.97 497.87 636.75 523.44 637.3 524.03 641.43 530.5 646.11 534.02 658.51 541.08 664.29 547.25" style="fill:#efc441"/><polygon points="627.11 10.27 626.28 10.86 625.47 10.86 623.75 12.57 624.45 13.31 627.49 10.27 627.11 10.27" style="fill:#efc441"/><polygon points="628.51 10.32 624.97 13.86 625.18 14.09 625.91 14.35 629.03 11.24 628.51 10.32" style="fill:#efc441"/><polygon points="624.63 10.27 624.08 10.57 623.25 11.45 623.39 11.88 624.84 10.42 624.63 10.27" style="fill:#efc441"/><polygon points="626.7 14.63 626.83 14.68 628.76 13.8 629.21 12.12 626.7 14.63" style="fill:#efc441"/><polygon points="625.46 10.86 624.84 10.42 623.39 11.88 623.53 12.33 623.75 12.57 625.47 10.86 625.46 10.86" style="fill:#fff"/><polygon points="628.49 10.27 627.49 10.27 624.45 13.31 624.97 13.86 628.51 10.32 628.49 10.27" style="fill:#fff"/><polygon points="629.31 11.74 629.03 11.24 625.91 14.35 626.7 14.63 629.21 12.12 629.31 11.74" style="fill:#fff"/></svg>