<svg xmlns="http://www.w3.org/2000/svg" viewBox="0 0 800 800"><path d="M600.82,260.9l2.47,1.8.86,1.32,1.23,1.07.43.74.43,1,.63.88.84.68,1,.33.66-.12.58-.18.4.12,0,.86.18.46.89,1,.23.73.6-.37.63-.06,2.32.58.29.25.46.37,4,4.68,1,.8.81.43,2.49.7.87.49,5.45,4.41,1.78.92,3,.12,2.87,1.13h.43l.23-.09h.2l.4.46.15.46v.52l.08.46.43.43,1,.4.92.21h.83l.86-.18,3.33-1.35h1l1.26,1,.26,3.25.89,1.37,2.76,2.05,1.54.65,1.21-.19.2,0,1.75.46.55,2.18.28,4.68.38,1.53.17,1.32.43,1.13,1.15.95,1.46.55,4.45,1,.8.31.6.33.66.22.92-.06,2.12-.86.72-.12.58.15.86.21,1.6,1.93,1.27.46,1.66,0,.52.09.71.28.41.31.91,1,.72.58.6.21.63,0,2.93-.46.52.06,1.49.71.63,0-.09-1.78.52-.21,1.44.43,2.06.24.6.18.66.49,1.12,1.14.78.27.63-.06,1.06-.61,4.16-.52.75-.52-.43-3,.11-3.34,0-.27.4.06.89-.06.46-.1.41-.15,1-1.32.23-.21.23-.15.74-.62.46-.12.43.19,1.15,1.31.8.55.84.4.91.22,1,.06.91,0,.46,0,.35.15.26.49.23,1.19.23.34.74,0,1.06-.37.95-.12.4.67.2.52,2.79,3.8.23.55.17.86.46.73,1.06,1,2.55,1.69.35.61L727,320.6l1.21.7.68.28.81.21.92.09,1-.09,1.81-.46.77-.09.86.31.66.61.52.64.43.31.75.24,2,1.9,2.44,1.59,1,.37.83.64,2.33.46,2.66,1,.78.49-.49.71-.95.7-.54.28-.55.21-.68,0-1.44-.21-.34,0-1.12.79-1.09-.12-3-1.68-.57-.15h-.58l-.74.09-.66-.16-.78-.3-.74-.22-.6.22-.23.76.2,1,.4.89.37.46.4.09.89-.06.4.06.52.31.89.89.52.3.89.31.66.43.48.67,1.35,5.05.78,1.9,1.2,1.75.78.79.46.31.43.09.51-.06.26.15.17.25,1.64,1.37.17.22.2.49.17.21.2.06.41-.21.2.06.46.8.17.82-.15,1.75,0,.37.12.33.06.34-.09.4-.37.43-.52.27-.46.31L749,355l0,.43.17.82,0,.46-.09.46-.26.8,0,.55,1.86,6.77,0,.39-.09.77.09.43.31.49.41.36.31.46v.31l-.37,0h-2l-1.78.22-.95,0-.43-.36-.23-.43-.57-.71L744.25,366l-.25.4-.52,2.2-1.26,5.27L741,379.14l-1.27,5.29-1.23,5.27-.63,2.57-.55,1.56-.31.43-.66.83L734,397.38l-1.66,2.08-2.1,2.61-2.09,2.6-2.1,2.6-2.09,2.6-2.09,2.61-2.1,2.63-2.09,2.57-2.1,2.6-2.49,2.05-2.5,2.06-2.5,2.05-2.52,2-2.5,2.05-2.49,2.05-2.5,2.05-2.5,2-2.38,2-1.86,1.2-.63.39-3.85,1.44-5.28,2-5.28,2-5.28,2-5.25,2-5.28,2-5.28,2-5.25,2-5.28,2-1.15.43-1.63.61-.78.43L638,461.74l-4.25,6.06-2,1.77-.6.71-1.29,2.63-.52.8-1.52,1.22-.49.65,0,1,.49.79.66.52.55.64.08,1.23-.4.92-.63.27-.75.19-.66.58-.57.27-.4-.79-.58-2.88-.31-.67-.52-.46-1.83-.55-.87-.13-.71.25-.46.83,0,.3.26.86v.49l-.35,2-.54,1.8-.06.19L619,485l-.28.92-.12.86,0,1.62.17.92,0,.43-.31.28-.55.09-.2.06v.79l.52,2.91-.26.86-1,1.07-.35.22-.52.24-.25.22-.43.85-.29.86-.43,3.34,0,.3-.17.19-.61.33-.54.19-.49,0-.49.12-.43.49-.2.74.06,2.66-.46,2-2.55,5.69-.41,2-.34.89-.78.67-.34,1,0,1.69.34,1.65.52.86,1,.64-.11.74-.66.85-.6,1-.12.8.06.92-.06.86-.37.7-1.15.83-.46.3-3.84,1.66-1.75,1-1.9,1.89-.8,1.14-.46,1.22,0,1.26,1,2,.2,1.07-.43.89-1,.24h-1.09l-.86.25L594,544l-.46,2.17-.31,1-1.1,1.23-1.2,1.07-.77-.83-.46-.36-.43-.22-.46-.06-.66.18-.43,0L587,548l-1.38-.52-.74-.12-1,0-2,.06-.94-.28-.61-.73-.43-.95-.57-.86-.35-.24-.83-.34-.37-.27-.2-.4-.29-.89-.23-.4-.71-.58-.87-.49-.74-.61-.29-1-.14-.83v-.06l-1.09-2.2-.49-2.67-1.21-1.89,0-1,1-1.84.12-.67-.23-.43-.87-.52h-1l-.26-.16-.6-.46-.32-.15-2.12-2.23-1.18-.62-1.49.22-1.46.92-2.81.92-1.55-.28-1-1.13-.88-1.41-1.07-1-1.09-.31h-1.09l-1.09-.15-1.12-.64-.86-.65-1.35-1.59-.77-.67-.72-.28-.83-.18-.72-.22-.26-.49-.11,0L544,517l-.46.15-.43.25-.35.3-.34.62-.43,1.56-.32.73-.66.74L537.78,524l-1.69,1-.43.37-.32.06h-.74l-.69-.28L532,524l-.58-.52-.34-.95.14-.76,5.54-7.87.46-1-1.93.24-1.8.58L532,513.6l-.89-2v-.43l.18-.85,0-.4-.23-.58-.69-1-.2-.55.06-.82,0-.06.35-1.11.49-1.1.46-.7.63-.49.77-.25.83-.06.86.06.87.28,1.77,1,.78.18.89-.46.69-.92.63-1,.57-.79,3.27-1.59.66-.8,0-.43v-.06l-.26-.25-.37-.27-.37-.46-.12-.37v-.82l-.05-.43-.38-.89-.83-1.44-.2-.89.09-.36.17-.31.14-.34,0-.43-.26-.85-.05-.34v-.46l.08-.4.26-.85.06-.46,0-.49-.26-.86v-.49l-.11-.43-.38-.15-.4-.16-.26-.3v-.37l.32-1.19.09-.86v-.43l-.12-.4-.26-.33-.69-.31-.25-.25-.09-.94.26-.92.08-.8-.6-.46-1.58-.46-.69-.4-.28-.15-.09-.3-.06-.34.15-.46.54-.37.26-.52.2-.64.4-.61-.4,1.25-.14.31.26.92.48-.43.23-1.41.43-.64,1.15,1.22.58-.27,3-.65.51.06.35.1h.31l.41-.16.94-1.19.2-.19,1.58-3.52.43-.64.95.18.2,1.08-.32,2.14.46-.28.29-.42.23-.53.34-.45.38-.34,1.35-.89.6-.76.4-.95.23-1,.2-1.72.69-1.62,1.4-2.42.38-.89-.43-.79.14-1,.57-1.75.09-.79,1.29-4.57.89-1.68.12-.31.4-.95.14-1,.89-2.6.49-.76,1.26-1.38.35-.8.05-1.07-.26-2-.57-1.59-.11-.25-.92.06-.49,0-.34-.18-.49-.83-.83-2.38-.52-.89-.26-.55-.06-.65,0-2.6-.28-2.08,0-.58.25-1,.09-.61-.2-.25-.06-.18-.54-.77-.12-.12-.08-.31-.12-.24-.08-.31,0-.52.21-.49.28-.4.09-.39-.32-.56.63-.73.66-.21.52-.31.2-1.07.32-.49.69-.34.71-.49.29-1-2.47,1.53-.28.22-.12.39,0,.77-.29.15-1.37.09-.29.37-.09.37-.34,1.07-.37,1.81-.06,1.28.26,1.32,1.29,2.36.09,1.34-.66,8.73-.43,1.81-.29.49-1.15,1.37-.43.28-.66.21-1.46.92-.61.12-.43-.21-.23-.61-.34-.12-.89.12-.29-.12-.54-.43-.23-.74.57-.7,1.24-.89.4-1,.17-.67.43-.4,1.15-.12.26.18.25.37.32.34.46,0,.4-.25.2-.37-.06-.46-.22-.49-.21.92-.54-.18-1-1-.92.09-.84.46-.6.21-.26-.64.2-1,.78-1.9.17-1.07.17-.58.38-.21.48-.1.44-.18.31-.37.86-1.44-.4.13-.2.12-.43.49-.37.15-.84-.06-.4,0-.46.34-.37.55-1.81,5-2.87,4.29-1.29,1.5-1.35.61-.31.58-.32.43-.4.24h-.4l-.2-.18-.17-.28-.21-.3-.63-.31-.4.34-.14.76.14.89.17.12,1.15,1.26.14.37,0,.49-.05,1-.41.39-1-.12-1.75-.73-1.78-1.63-.63-.36-.55-.55-.23-.22-.25-.09-.75-.09-.4-.12-1.61-1.11-4.45-5.6-3.44-3.43-1.38-.49-1.2-.61-1.38.06-2.21-.8-.77-.36-1.75-1.69-.95-.36h-.66l-.49-.1-.31-.39-.26-1.53-.32-.68-.69-1-.57-.64-1.55-1.32-.17-.27-.2-.49-.09-.43.15-.19.34.07.14.21.12.21.11.13,1.09.24.49.06.23.12.2.77.55.64,1.06-.06,1.49-.58,2.12-1.84,1.64-.85,1.49-1.81.32-2.63-.58-1.38-.34-1.38-.12-.37.18-.46.45-.12.61-.33.11-1.08-.11-1.13-1.15-4.78-.63-1.86-.29-.83-.37-.7-.37-.52-.52-.83-1-2.57-.57-.8-.2-.58-.06-.67.17-.49,1.47-1.11-.18-1v-1.31l.38-.37.51-.49.52-.12h.69l.17-.58,0-.65.09-.85.23-.77-.2-1,.17-.64.75-.37-.06-1.1-1.26-1.84-2.5-3.18-2-3.83-.89-2.3-.54-1.28.28-.95.52-.52.57-.52.55-.65.32-.43.31-.45.55-.62.51-.64.12-.37.46-.21.6.21h.57l.61-.39.54-.25.63.15.49-.18.52-.21-.09.39.75.4.66,0,.48-.46.32-.15.31-.43.46-.15.41.64.37.09.74.09,1.07-.42.89-.86.94-1.07.61-2.79.17-.89.54-2.87.78-2.24.94-2,.52-1.29.2-.24.37-.31.58-.09.54-.18.09,1.16.6.92,1.12.52,1.09.15,2.27,0v-.52l-1.18-.33-1.26-.31h-.86l-.58-.46-.45-1.25-.55-1.08-.6-.24-.32-.49,0-1-.46-1.26-.14-1.31-.57-1.41-.78-1-.49-1.9.44-.64.86-.06,1.37-1.2,1.29-2.11.43-.77.12-.61.37-1,.35-.73.91-.34.55-.92.55-.95.77.74.89-.49,1-.83,1.18-.92,2.5-2.91,2-2.72.71-.92.32-.89.06-.55.23-.21.25-.09.89-.28.63-1.71.35-1.47.26-2.36-.06-1.07-.34-1.93-.09-3.37.37-1.19,0-.37.09-.18.46.24.2.22.14.33.2.68h.32l0-.59.44-.85.11-.4-.09-.55-.25-.4-.58-.61-1-1.75-.32-.89-.11-.88.11-1,.32-.52.37-.43.34-.71.09-.95-.23-.88-.29-.8-.28-1.25-.41-.56-.57-.33-.75-.13-.54-.21-.37-.52-.26-.7-.12-.68,0-1.93.49-1.89.89-1.6,1.24-1.07.71.4.63.06,1.38-.12.63-.19.83-.82.55-.19.6-.09,1.06-.46,1.32-.21.81-.64.51-.16.32-.15,1.26-1.07.32-.37.51-.83.32-.3,1-.49L565,281l1.12-.83.23.46v.4l-.83,2.82.2.64.34.4.43.34.49.46.55,1.22.28.34-.66-2-.54-.49-.18-.31v-.24l.21-.4.05-.28-.08-1.1.11-.86.35-.64.74-.43,1.81.55,2-1.19,2.87-2.79.89-.24,3,.24.38-.09.94-.4.41-.09,1.14,0,.55-.09.46-.28,1,.59,1.21-.19,1.17-.46,1.09-.24.75-.43,3.18-4.47.61-.37,1,.4.83.7.52.92.29,1.1L594,275l.8-.46.43-.64.18-.86.14-2,.26-.52.37-.4.43-.67.15.37.25.18.35,0,.4-.21.37-.4.09-.31,0-.34.14-.49.69-.82.69-.12,1.78.64-.32-.64-.74-.22-.86-.09-.69-.31-.29-.64.15-.58.37-.52,1.58-1.66.23-.61,0-.67-.15-.61ZM549.2,444.19l1.92.07,2.87,1.89,1.81.49-.08.34-.12.34-.17.27-.2.28-.49.4-2.09,1-.15.39-.57.62-.15.21-.25.7-.35.68-.34.4h-.09l-.43.82-.52,1.07-.51,1-.29.74-.69.31-.54.67,0,1-.64.64-.25.65-.69,1-1.49-.16-.84.52-.71.25-1-.09-1-.28-.6-.34-.23-1,.23-1.59.17-5.39.14-.61,1.41-2.75.6-1.81.6-.46,2.56-.8,2.29-1.22ZM146.76,385l1.12.37.83,1,.06.95-1.27.46-1.37-.18-3.39-1.66.86-.92.66.13,2,0Zm-30.16-3.82.09.12.2.12.2.22.11.3,0,.31-.12.18-.08.12-.06.16-.12.15-.54.18-.2.1-.06.18.09.55,0,.22-.23.27-1.38.89-.29.06-1.52-.21-.6-.49-.57-.59-.89-.55.4-.46.34-.61.29-.61.26-1.35.43-.7.49-.28.37.64.83-.21,1.15.25,1,.49Zm45-25.45.52.34h.55l.54-.24.52-.28.11,1.68-.77,1.81-1.21,1.62-1.26,1-1.49.46-.23.28-.06.43-.52,1.31-.83,1.35-.57.64-.6.46-.66.22-.64.06h-1.43l-.43.12-.86.68-.6.12-.41-.12-.88-.62-.44-.18-1.49-.25-.34-.18-.09-.43.29-.49.52-.64.34-.37,1.66-.86.55-.45.46-1.54.43-.06,1.75-.43.49-.52.63-1.43.37-.52,1.12-1.11.23-.4.32-.27,1.52-.58.45-.49.64,0,1.29-.37Zm-37-6.61.46.46-.09,1.07-.54,1.87,0,.52.23.64.06.52-.09.13-.37,1,0,.24-.71.28-.52.7-.43.83-.52.64-.37.31-.23.06-2,0-.2.12-.23.89-.54.46-.75.12-.77-.06-1.44-.52-.91-.19-.26-.21-.2-.21-.23-.13-.32-.27-.89-1.41-.37-.43-.6.06-.78-.21-.74-.34-.46-.46-.06-.58.06-2.17.25-1.17.46-1.07.61-.95.66-.76.43-.28,1.12-.52.48-.15.46,0,1,.24.31,0,.41-.12.46-.34.28-.12,4-.49.92-.46.23.09.26.16.23.18.17.18.09.46,0,.49,0,.43.32.19.43,0,.8.21Zm-50.7-3.79-.4.24-2.9,1.22-.74.19h-.41l-.4-.12-.89-.65-.77-.21-1.26-.52-.2,0-.44,0h-.2l-.2-.19v-.12l0-.15-.11-.18-.72-.83-.55-.92-.34-1L63,340.07l-.54-1.68.11-.59,3.68.1,1.57-.83,2-.49,1-.37.29.06.49.31L73,338.17l.4.25.49.42.11,1-.17,1.69Zm35.06-7.54.55.37-.26.8-.89,1.44-.31.91-.78.28-1-.12-1.77-.58h-2.93l-.8-.28-.75-.49-.8-.27-.92.39-.6-.76-.26-1.14-.43-.94-1.07-.22,1.78-2.6.12-.61-.26-.8.34-.76.69-.59.81-.15.28.21h.15l.17-.21.8.61,2.87,1,1,.19,1.35.55,2.18,2.6,1.21.83-.2.06-.09.06ZM98.55,357.73l.38.22h.26l.14.15.06.68-.23.27-1,.43-.34.24-1.32,4.38.17,1.11-.09.79-.91-.27-.49.73-1.06,1.29-.49.7-.69-.34-.72-.06-1.32.09-.8.25-1.35,1.07L84,371.14l-1-.24-.63.21-3.79-.58-4.7.09-.89-.3-.63-.65-.17-.45-.09-.49v-1.05l-.14-.52-.41-.12H71.1l-.46-.12-1.06-1.78.4-2,1.14-1.93,1.24-1.31,4.9-3.37.23-.37v-.3l.15-.22.63-.06,1.06-.49,1.46-.4h.49l.46.13L82,355l.17.18.23.16.72.24.46,0,.43-.15.2-.28.4-.67.23-.12,0-.49.37-.92.57-.71.64.28.48-.73,0-.68-.31-.58-.52-.49-.55-.28-1.23-.39-.52-.25-1-.95-1-1.44-.8-1.59-.37-1.5.06-1.32-.15-.45-.49-.4-.34-.12-.55-.07-.25-.12-.15-.18-.4-.74-2.55-1.44-1-1.13.06-1.44-.83-.52-.55-1,.09-.92,1-.3-.74-1.17-.32-.67-.11-.76v-1.54l0-.39-.17-.74-.06-.43-.35-1.47-.94-.73-1.29-.06-1.44.58-1.46,1.07-.72.18-.83-.49-.86-1.19-.15-.31.09-.39.23-.22.34-.12L68.69,323l.8-.89.31-1.78,1,.34.83-.25.77-.42,1.38-.4.29-.37.26-.4.31-.33.49-.16.8,0,.43-.18.66.64.32,1,.17.95.15.43.57.43.49,1.9.37.46.26.18.6.83.29.21.89,0,.43.09.26.19.31.76.06,1.11-.09,2.08.78,5,.46.79L85.1,337l.17.18,0,.28V338l.14.52.29.18.29.09.14.13,4.27,2.87.32.49.09.43.23.37.57.61.17.12.66.19,0,.24-.11.28-.12.21-.06.16.38,1.68.17,1.87-.23.82-1.15,1-.31.71.91-.64.29.36,0,.86.17.67,1.78.34.86.49-.06,1,.61.06.46.25.4.4.28.55-.28.58.54.27ZM111,312.39l-.4-.18-.41-.37-.31-.4-.17-.27.11-1,.66-.77.92-.49.89-.18,1,.34,1,.52.83.7.37.89-.28.64-.72.74-1,.55-.89.21-.48-.18-.58-.61ZM99.13,295.83l1.69,1,.52,2-.66,1.41-1.87-.8.29-.95-.29-1.92Zm498.62-32.24,0,.43.06.31.17.52.06,1.5-.21,1.83-.57,1.2-1-.52-.41.49-.46.43-.86-.71-.63-.73-.14-.83.63-1ZM56.29,263l.2.09.14.34-.05.21-.2.19-.23-.13-.12-.27v-.25Zm-.11-.34.2,0-.12.16Zm-8-11.81.23-.28.28.21v.4l-.28.06Zm511,185.37.46,1.17,1,.4.51.95-.89,1.43-1.46.8-.2,2-1,.67-.83-.06-.2-1,.58-1.68.89-2.45Z" style="fill:#efc441"/></svg>