<?xml version="1.0" encoding="UTF-8"?><svg id="Europe" xmlns="http://www.w3.org/2000/svg" viewBox="0 0 554.77 525.4"><polygon points="247.7 181.07 246.26 185.92 250.48 178.89 247.7 181.07" style="fill:#efc441;"/><polygon points="217.63 202.62 217.15 204.61 218.98 204.19 217.63 202.62" style="fill:#efc441;"/><polygon points="240.25 190.28 236.58 190.23 234.25 193.31 233.81 191.97 231.98 191.95 231 196.37 227.31 198.09 228.68 198.55 235.6 195.09 240.25 190.28" style="fill:#efc441;"/><polygon points="231.49 211.42 231.05 210.53 229.89 211.63 231.49 211.42" style="fill:#efc441;"/><polygon points="237.53 188.03 237.1 185.81 233.41 187.54 230.15 191.49 233.84 189.76 237.53 188.03" style="fill:#efc441;"/><polygon points="246.3 182.83 242.65 181.9 242.62 183.67 239.85 185.85 242.57 187.65 246.3 182.83" style="fill:#efc441;"/><polygon points="199.62 248.45 197.29 251.08 197.28 252.4 201.44 249.58 199.62 248.45" style="fill:#efc441;"/><polygon points="216.93 84.59 213.73 82.29 209.6 80.87 210 83.56 218.25 87.74 216.93 84.59" style="fill:#efc441;"/><polygon points="212.8 474.22 209.6 473.72 208.19 475.46 203.56 477.59 204.9 478.93 204.78 485.14 204.72 487.8 206.06 489.59 204.6 493.55 207.35 493.6 210.16 491 214.27 491.52 214.78 489.32 215.33 484.9 213.53 483.1 215.44 479.59 212.8 474.22" style="fill:#efc441;"/><polygon points="221.8 199.35 219.91 203.76 224.07 201.15 226.83 199.86 224.56 198.5 221.8 199.35" style="fill:#efc441;"/><polygon points="255.54 177.62 255.12 174.52 252.79 177.59 255.54 177.62" style="fill:#efc441;"/><polygon points="291.86 65.92 295.57 65.99 296.99 64.23 294.71 62.39 288.18 64.95 286.72 68.05 288.55 69.43 291.86 65.92" style="fill:#efc441;"/><path d="M239.72,57.3l1.77,4.06,3.28-1.73,3.76-2.61,10.22-1.59,.42,2.24-7.43,1.2-2.35,1.74,3.2,1.85,3.73-1.27,4.12,2.31,8.34-.29,.06-2.68,5.07,.99,5.11-.79-.41-2.24s5.11-.8,5.6-2.13c.49-1.33,4.27-4.84,.59-6.25-3.67-1.41-8.72-3.75-8.72-3.75l-2.76-.5-1,3.56-2.28-1.83-3.71,.38-1.79-2.72-2.77-.5-2.35,1.74,2.22,4.51-.06,3.13-3.17-3.64-1.9,2.2,.52-2.67-3.69-.52-1.38-.47-2.73-2.29,1.94-4.43-4.17-.08-3.81,5.29,3.19,2.3-.04,1.79-3.23-.51,2.26,2.73-6.4-3.7-2.38,3.08,5.51,2.34-2.35,1.74Z" style="fill:#efc441;"/><polygon points="273.03 80.76 268.41 80.22 268 77.98 265.71 76.59 264.29 78.35 262 76.97 259.19 78.25 255.45 79.97 257.71 82.7 253.96 84.86 256.69 87.59 259.95 86.32 262.74 85.92 264.99 89.1 266.91 86 269.24 85.16 268.81 83.36 273 82.55 273.03 80.76" style="fill:#efc441;"/><polygon points="385.03 35.62 386.35 37.85 389.17 34.38 389.23 31.3 394.29 29.19 394.83 25.67 390.7 26.47 387.49 27.29 385.61 29.9 386.93 32.13 383.72 32.95 385.03 35.62" style="fill:#efc441;"/><polygon points="306.12 48.3 311.73 45.73 312.24 43.5 308.07 43.42 301.93 49.56 303.3 50.48 306.12 48.3" style="fill:#efc441;"/><polygon points="280.91 165.09 278.62 164.62 274.47 166.79 269.86 168.94 277.19 169.03 280.91 165.09" style="fill:#efc441;"/><polygon points="203.78 71.36 205.54 75.42 209.3 72.81 210.6 77.31 214.29 77.83 216.56 80.11 218.84 81.94 221.65 80.21 220.31 77.95 221.32 73.94 223.12 76.21 225.48 74.02 224.12 72.65 227.43 69.59 229.77 68.29 228.77 71.85 232.96 70.59 231.52 73.24 235.68 73.32 232.4 75.05 227.76 75.85 223.96 80.25 224.37 82.94 222.01 85.13 223.81 87.85 231.37 80.4 229.89 84.84 224.69 90.11 224.62 93.24 226.46 93.72 229.24 93.77 231.01 97.83 233.89 92.97 237.22 88.56 237.72 86.78 240.96 86.84 242 81.05 243.86 80.64 247.24 74 250.98 72.28 249.64 70.02 252.46 68.28 253.91 65.18 248.83 64.63 246.1 62.34 240.52 63.13 238.66 63.54 238.31 58.17 234.63 57.2 230.92 57.58 228.62 56.64 226.28 57.94 228.53 61.11 226.19 62.41 228.41 66.92 222.94 62.79 222.52 60.55 219.27 60.93 215.16 58.17 212.75 62.59 208.64 59.83 205.84 61.12 204.42 62.43 207.14 65.61 204.81 66.02 203.78 71.36" style="fill:#efc441;"/><polygon points="261.5 177.25 262.9 175.5 260.16 174.58 261.5 177.25" style="fill:#efc441;"/><polygon points="186.65 258.7 183.86 262.2 185.47 261.56 186.65 258.7" style="fill:#efc441;"/><polygon points="255.52 76.84 258.8 75.11 261.58 74.72 262.56 72.5 257.97 70.18 256.13 69.7 251.48 70.5 254.18 74.58 250.87 77.64 255.52 76.84" style="fill:#efc441;"/><path d="M61.91,233.38l-1.81-.92-.88-1.79,2.36-3.5-2.26-1.37,2.32-1.28-4.11-.97-4.65,3.01-1.3-3.57-4.6,.8-1.38,.42-.09,4.43-2.31,.84-2.74-.5-1.35-1.35-3.2-.51,1.8,1.81-.53,3.53-1.36-.91-1.77-3.13-3.63-1.84-1.87,1.73,2.62,6.25-1.77-3.13-3.57-4.5-1.4,1.3,.82,4.44,.88,1.79-3.21-.06,.36,4.88-1.33-2.67-2.28-.06-2.23-3.14,2.74,.5,.06-2.66-1.82-.48,.99-3.52-2.7-2.27-3.64-1.4-1.82-.48-1.42,2.19,2.75,.05-1.87,1.73,2.25,1.82-1.41,1.74-1.8-1.81-1.78-2.69-2.75-.05-1.47,4.4,2.72,1.38-4.14,.81-1.83-.04-.5,2.2,7.77,1.04,1.42-2.19,2.75,.05,3.19,.95-2.37,3.94,4.55,1.42-7.34,.3-5.05,.34-1.84,.41-.05,2.21s4.11,.52,5.5,.11c1.38-.42,3.2,.5,3.2,.5l1.36,.91-.5,2.2,3.23-1.27-2.36,3.5-3.69,1.26-2.27-.93,.87,2.23,4.58,.09,2.73,.94,.89,1.35,1.84-.41,1.37,.03s.91,.46,5.88,3.66c4.98,3.2,9.1,3.27,9.1,3.27,0,0,3.7-1.7,4.19-3.02,.49-1.32,2.78-1.27,2.78-1.27,0,0,4.59-.35,6.88-.31,2.29,.04,4.65-3.01,4.65-3.01l2.32-1.28,3.21,.06,2.8-2.6-.4-2.66,1.82,.48,2.81-3.04-2.71-1.82,2.77-.83,.05-2.21-.38-3.55-3.62-2.28Z" style="fill:#efc441;"/><path d="M168.94,485.71l-1.37-1.76-3.65,3.08,.91,2.2c3.2-1.76,.91,2.2,2.74,1.32,1.83-.88,4.57-3.52,4.57-4.85,0-1.32-3.2,0-3.2,0Z" style="fill:#efc441;"/><polygon points="338.72 518.12 339.4 519.8 341.38 518.92 341.4 516.35 339.19 516.78 338.72 518.12" style="fill:#efc441;"/><path d="M325.91,482.11c-1.37-1.32-1.83,1.32-1.83,1.32,0,0,3.2,0,1.83-1.32Z" style="fill:#efc441;"/><path d="M344.58,514.4c3.12,1.29,3.25-1.47,3.25-1.47l.59-2.03-3.65,1.32s-3.39,.85-.19,2.18Z" style="fill:#efc441;"/><polygon points="174.42 484.39 175.33 482.19 173.05 481.31 174.42 484.39" style="fill:#efc441;"/><polygon points="322.25 493.96 320.06 492.71 315.79 491.34 312.68 488.97 312.78 490.98 317.84 494.93 321.89 496.08 322.25 493.96" style="fill:#efc441;"/><polygon points="206 468.23 209.61 470.96 211.99 467.02 211.63 462.14 210.8 457.7 208.94 459.43 209.36 460.77 206.56 463.37 206 468.23" style="fill:#efc441;"/><path d="M249.63,507.67s3.56,5.38,4.1,1.41c.54-3.97-1.49-5.36-1-7.12,.49-1.76,1.25-4.83,1.25-4.83l-2.27-.93-4.64,2.57-4.58-.09-4.8,.57-2.53,.16-2.35,2.17,4.09,1.85,3.9-.13,2.01,2.46,4.08,2.29,2.76-.39Z" style="fill:#efc441;"/><path d="M332.33,519.51l-1.83,1.76-2.28-.44-4.57-.44-2.74-1.76h-4.11s-1.83,2.64-1.83,2.64l6.39,1.77s3.65,3.09,5.02,2.21c1.37-.88,1.83-1.32,1.83-1.32l6.39-.44,1.83-2.2-1.37-1.32-2.74-.44Z" style="fill:#efc441;"/><polygon points="180.62 264.38 180.14 266.37 181.98 265.94 180.62 264.38" style="fill:#efc441;"/><polygon points="284.45 484.06 285.36 485.85 287.2 487.36 286.6 484.37 284.45 484.06" style="fill:#efc441;"/><polygon points="115.42 361.16 116.83 360.32 117.79 359.03 114.11 359.34 115.42 361.16" style="fill:#efc441;"/><polygon points="104.59 332.42 107.37 331.64 104.75 328 104.59 332.42" style="fill:#efc441;"/><path d="M154.33,492.76c1.37,.88,3.65,1.33,2.28-1.32,0,0-3.65,.44-2.28,1.32Z" style="fill:#efc441;"/><polygon points="129.49 304.51 128.24 301.37 125.05 300.81 126.32 303.51 129.49 304.51" style="fill:#efc441;"/><path d="M106.53,317.43l-2.77,.34-1,2.18,2.75,.1,2.21,2.29,1.78,1.39-1.47,2.61,3.26-1.22-3.34,3.43,.39,1.79-1.02,2.62,.36,2.67,1.9-1.7,2.22-4.02,1.46,.83-.93,3.29-.13,3.54-.97,1.29-1,2.18,1.24,3.59,2.7,1.42,1.92-2.15s-.1,2.65,1.31,1.82c1.41-.83,3.73-1.64,3.73-1.64l1.34,.93,1.42-1.28-2.95,5.21s-.59,3.52,1.19,4.92c1.78,1.39,3.55,3.23,3.55,3.23l-.58,3.08-3.73,1.64-4.12-.14-2.85,2.56-.98,1.74,1.32,1.38,2.77-.34,.36,2.67-1.92,2.15s-3.22,.33-3.73,1.64c-.51,1.31-1.95,3.03-1.95,3.03l.83,2.24,4.21-2.07,2.19,2.74,3.17,1,4.6-.28,3.16,1.44-3.68,.31-6.44,.66-3.72,1.2-1.46,2.16-3.75,2.08-1.46,2.16-3.76,2.52,2.7,1.43,2.36-1.69,4.14-.3,2.36-1.69s2.66,2.31,4.06,1.92c1.39-.39,4.71-3.38,4.71-3.38l-.41-1.34,4.17-1.18,3.58,2.34,3.27-1.66,2.32-.8s4.56,.6,7.79,.28c3.22-.33,10.28-4.95,10.28-4.95l.97-1.3-2.26-.97-5.48-.64,1.86-.82,1.49-3.05s2.7,1.43,3.21,.11c.51-1.31,1.03-3.06,1.03-3.06l1.05-3.51s-.36-2.67-2.14-4.06c-1.78-1.39-2.71-.98-4.07-1.47-1.36-.49-2.7-1.43-2.7-1.43l.29,4.44-2.61-3.64,.53-1.75s.61-3.97-1.14-6.24c-1.75-2.28-3.12-2.33-3.12-2.33l1.85-.38s-1.71-3.16-3.53-3.67c-1.81-.51-4.05-1.92-4.05-1.92l.12-3.1s-.76-4.01-2.55-5.41c-1.78-1.39-4.94-2.83-4.94-2.83l-2.8,1.23,.08-2.21,2.81-1.67,2.81-1.67-3.17-1,2.8-1.23s1.88-1.26,1.93-2.59c.05-1.33,.13-3.54,.13-3.54l1.07-3.95s-.87-1.36-2.22-1.85c-1.36-.49-5.46-1.08-5.46-1.08,0,0-2.36,1.69-4.24,2.95-1.88,1.26-3.37,4.31-3.37,4.31l1.17-6.6,2.82-1.67,2.81-1.67,.66-5.29-4.1-.59-3.29,2.1-3.66-.13-3.73,1.64,.83,2.25-2.82,1.67-1.95,3.03,1.21,4.47-3.05-4.09Z" style="fill:#efc441;"/><path d="M114.43,350.93s-2.42,3.46-.57,3.08c1.85-.38,4.31-4.72,4.31-4.72l-3.73,1.64Z" style="fill:#efc441;"/><path d="M391.48,32.66l3.15,2.27-4.11-.08-.98,3.07,5.45,1.43,.97-2.63s1.79,1.8,3.15,2.27c1.36,.47,2.82-3.92,2.82-3.92l-1.78-1.8-.42-1.77,.5-2.19,3.2-.38,.49-1.76-2.2-4.01-4.63,3-.54,3.96-.05,2.2-2.72-.93-2.31,1.28Z" style="fill:#efc441;"/><polygon points="104.39 313.37 106.8 310.35 107.41 306.39 103.63 309.35 100.83 310.58 99.8 313.65 99.71 315.86 101.61 314.15 104.39 313.37" style="fill:#efc441;"/><path d="M81.8,376.8l4.14-.3,1.92-2.15,2.66,2.31,1.42-1.28,2.36-1.69s.98-1.74,2.81-1.67c1.83,.07,4.58,.16,4.58,.16l1.83,.07,2.34-1.25-1.77-1.83s2.85-2.56,2.92-4.33c.07-1.77-.73-4.9-.73-4.9,0,0,1-2.18,.59-3.52-.41-1.34-1.71-3.16-1.71-3.16l1.44-1.72s3.19,.55,2.8-1.23c-.39-1.79-1.24-3.59-1.24-3.59l-1.78-1.39s2.36-1.69,.56-2.64c-1.8-.95-4.07-1.47-4.07-1.47l-1.83-.07-3.73,1.64,.51-1.31s-1.83-.07-4.14,.3c-2.31,.36-3.29,2.1-3.29,2.1l-2.36,1.69,4.51,1.93-3.71,1.2,.32,3.56-2.7-1.42-2.24-1.41s-.92-.03-2.76,.34c-1.85,.38-2.82,1.67-2.82,1.67l3.11,2.77-3.65-.57-.1,2.65,3.63,1.01-2.32,.8,6.41,.23-.08,2.21-3.65-.57-.08,2.21-2.37,2.13,3.15,1.44,5.12-2.03-2.41,3.02-6.41-.23-2.83,2.11,1.8,.95-2.82,1.67-1,2.18,3.22-.33-1.97,3.47,2.75,.1,3.31-2.54,.36,2.67Z" style="fill:#efc441;"/><polygon points="100.07 318.53 96.42 317.96 98.61 320.69 100.07 318.53" style="fill:#efc441;"/><polygon points="215.07 205.69 214.62 204.8 213.46 205.89 215.07 205.69" style="fill:#efc441;"/><polygon points="404.26 32.91 404.12 39.96 407.41 35.17 404.26 32.91" style="fill:#efc441;"/><polygon points="225.13 344.79 221.48 344.31 217.82 345.59 221 346.95 225.13 344.79" style="fill:#efc441;"/><polygon points="221.95 343.65 224.91 343.46 222.19 342.55 221.95 343.65" style="fill:#efc441;"/><polygon points="217.88 339.86 213.36 336.29 212.85 340.25 213.73 343.34 218.29 344.27 217.88 339.86" style="fill:#efc441;"/><polygon points="234.62 350.67 236.49 347.16 234.22 345.37 231.02 346.22 233.27 348.89 234.62 350.67" style="fill:#efc441;"/><polygon points="227.72 340.27 227.28 338.5 225.5 334.51 224.15 333.18 220.92 336.23 217.26 336.19 221.77 341.97 225.42 342.01 227.72 340.27" style="fill:#efc441;"/><polygon points="246.92 440.7 246.01 439.6 246.7 441.58 248.52 442.9 246.92 440.7" style="fill:#efc441;"/><polygon points="244.64 443.78 246.01 446.87 247.83 448.19 245.55 441.58 244.64 443.78" style="fill:#efc441;"/><path d="M208.07,315.4l-2.77,3.06s-2.32,3.06-2.79,4.38c-.47,1.32-4.11-.04-4.11-.04l-1.39,1.31-.96,4.4c1.43-5.28,5.95-1.7,6.89-3.9,.94-2.19,5.99-4.79,5.99-4.79l3.16,2.68s1.84-1.31,2.32-3.51c.48-2.2-2.23-4.43-2.23-4.43l.94-2.64-5.06,3.48Z" style="fill:#efc441;"/><polygon points="216.05 323.23 214.46 322.55 214.22 323.65 216.05 323.23" style="fill:#efc441;"/><polygon points="180.74 290.94 178.92 290.04 179.33 293.14 180.74 290.94" style="fill:#efc441;"/><polygon points="180.36 302.23 179.01 300.66 178.52 302.65 180.36 302.23" style="fill:#efc441;"/><polygon points="285.97 292.06 286.45 289.86 283.24 291.15 285.97 292.06" style="fill:#efc441;"/><polygon points="258.29 318.23 255.97 321.74 255.45 327.02 256.84 325.27 257.79 322.64 258.29 318.23" style="fill:#efc441;"/><polygon points="280.99 288.05 282.82 287.62 279.64 286.27 280.99 288.05" style="fill:#efc441;"/><path d="M287.6,309.28l4.11-.4,.96-3.96-3.18-.78-2.74-.03c-1.38,.87-3.67,1.59-3.67,1.59l2.71,2.23-1.41,3.51,3.22-2.17Z" style="fill:#efc441;"/><polygon points="282.34 290.26 284.17 289.84 282.82 288.28 282.34 290.26" style="fill:#efc441;"/><path d="M286.76,303.1l2.74,.03,2.77-3.06-6.85-.07s2.72,2.23,1.34,3.1Z" style="fill:#efc441;"/><polygon points="267.94 295.65 269.32 294.34 267.07 291.68 267.94 295.65" style="fill:#efc441;"/><polygon points="272.59 287.76 273.07 286 270.33 285.54 268.03 287.28 269.36 290.38 272.59 287.76" style="fill:#efc441;"/><polygon points="263.46 320.63 264.35 322.84 267.57 320.67 267.6 317.59 268.56 313.19 267.68 310.53 263.04 317.54 263.46 320.63" style="fill:#efc441;"/><polygon points="278.07 284.27 277.61 284.92 278.51 285.15 278.07 284.27" style="fill:#efc441;"/><polygon points="216.45 345.14 214.86 344.46 214.62 345.56 216.45 345.14" style="fill:#efc441;"/><path d="M427.76,22.34s3.63,1.39,5.47,.55c1.84-.85,.54-3.96,.54-3.96l-5.02-.1-4.08-1.4-4.15,1.68-1.42,2.62,4.98,1.86,3.68-1.25Z" style="fill:#efc441;"/><path d="M422.89,15.19l-.03,1.32c9.13-.26,10.57-3.32,11.95-3.74,1.38-.41,.99-3.51,.99-3.51,0,0-5.06,1.67-6,2.97-.94,1.3-7.74-1.03-7.74-1.03l-.94,1.3,4.1,.52-2.33,2.16Z" style="fill:#efc441;"/><path d="M428.95,9.57c1.38-.42,3.72-3.46,3.72-3.46l-4.55-.53-3.25,2.58s2.7,1.82,4.08,1.4Z" style="fill:#efc441;"/><polygon points="438.11 30.04 441.79 28.35 440.46 26.55 443.69 24.85 443.76 21.33 437.33 23.41 435 25.57 438.11 30.04" style="fill:#efc441;"/><polygon points="249.43 448.2 250.11 450.18 251.94 451.5 250.34 449.3 249.43 448.2" style="fill:#efc441;"/><polygon points="426.74 27.61 422.15 28.85 427.58 31.16 429.45 29.43 426.74 27.61" style="fill:#efc441;"/><polygon points="419.03 25.26 416.23 28.29 420.84 26.17 419.03 25.26" style="fill:#efc441;"/><polygon points="421.16 32.79 420.76 29.7 418.46 30.98 413.44 30.88 412.01 33.5 416.09 34.9 421.16 32.79" style="fill:#efc441;"/><path d="M417.1,178.37l1.35,2.22,2.28-.42,2.28,.46,1.38-1.31,.94-2.64s1.81,1.34,3.18,1.36c1.37,.01,.51-4.84,.51-4.84,0,0-3.64-.92-5.47-.94-1.83-.02-4.58,1.28-4.58,1.28l-1.39,1.31,1.37,.45-1.38,.87-.48,2.2Z" style="fill:#efc441;"/><polygon points="471.5 152.26 472.37 153.61 474.2 153.66 475.21 150.6 472.51 149.2 467.89 150.83 469.66 152.65 471.5 152.26" style="fill:#efc441;"/><polygon points="482.21 154.91 484.4 158.06 486.21 158.56 487.17 156.82 489.44 157.33 490.28 159.56 493.07 158.32 490.42 155.15 488.18 153.76 484.59 151.89 480.08 150 478.28 149.06 476.86 150.79 477.7 153.02 474.95 153.38 477.19 154.77 482.21 154.91" style="fill:#efc441;"/><polygon points="436.71 31.33 433.14 27.29 429.51 26.34 433.06 31.26 436.71 31.33" style="fill:#efc441;"/><path d="M552.92,364.81l1.85-3.68-3.05-4.1-5.55-2.42-.98-2,3.7-3.05-1.96-4.1,1.63-2.31,.54-5.57s-.11-.27-.26-.65c-.35-.87-.94-2.3-.94-2.3l1.85-3.15-11.6-12.61-3.48-21.57-6.53-12.4-4.13-2.31,1.09-6.72-4.35-4.83-2.18-6.93,.65-9.88-6.53-25.22,.44-15.55,9.35-11.98,10.44-7.35,6.09-15.34,2.94-10.12c-.67-.78-1.22-1.77-1.22-1.77l-7-4.21-13.41-1.89-2.76-2.7-9.24-2.75-2.59,3.05c-3.18-1.36-9.1-2.3-9.1-2.3l.88,2.65-3.19-.47s-1.4,3.07-.97,4.84c.44,1.77,1.8,2.66,1.76,6.19-.04,3.53-1.4,3.07-3.68,3.05-2.28-.02-2.24-3.99-2.24-3.99l-1.81-1.34s-2.32,3.5-5.97,3.02c-3.65-.48-6.4,1.26-6.4,1.26l1.36,1.34,2.26,1.34s-.02,1.76-3.2,.41c-3.18-1.36-9.57-1.42-9.57-1.42l-3.24,3.94,2.71,3.11-5.52,3.47-4.11-.48,.73-3.96,2.98-.85-1.32-4.42s.03-2.64,2.32-3.94c2.3-1.3,6.88-2.57,4.6-2.6-2.28-.02-5.49,.83-5.49,.83l-9.69,9.16-.02,1.76-2.73-.47-12.39,5.6s-5.04,1.71-5.06,3.47c-.02,1.76-.49,3.08-.49,3.08,0,0-2.3,1.3-2.78,3.5-.48,2.2-.97,4.84-.97,4.84l1.34,2.66s-1.83,.42-3.65-.04c-1.82-.46-3.2-.03-3.2-.03l-1.84,.86s-3.63-1.8-6.8-4.04c-3.17-2.24-1.79-3.55-1.79-3.55,0,0,.48-2.2,2.78-3.94,2.3-1.74,4.11,.48,6.39,.51,2.28,.02-.42-3.53-1.77-4.87-1.36-1.34-1.81-1.34-1.81-1.34l.02-1.32s-3.64-1.36-6.37-1.83c-2.73-.47-6.41,1.7-8.69,1.67-2.28-.02-5-2.26-5-2.26l-1.83,.42,4.98,3.58s1.79,2.66,2.68,5.32c.88,2.65-.52,5.29,1.74,7.95,2.25,2.67,5.43,4.47,5.43,4.47,0,0,.87,3.54-.05,4.85-.93,1.31,2.2,7.08,2.2,7.08l-3.16-2.68-3.6-4.45s-5.02-.63-7.75-.65c-2.75-.03-1.86,2.06-2.81,4.7-.95,2.64-5.56,4.36-6.94,4.79-1.38,.43-.51,3.98-.51,3.98l3.64,2.26-.03,2.21,2.7,4.02-5.03-1.39s-2.31,1.3-4.16,2.61c-1.85,1.31-6.38-2.73-6.38-2.73l-5.01-2.27-5.99,2.14s.9,1.34,4.1,2.26c3.2,.92,2.72,2.69,2.72,2.69l.89,2.22,4.12,.49,2.25,3.13-.48,1.76-4.11-.94-2.33,2.63-2.28-.91-5.03-.5-2.71-3.13-2.28-.91-5.01-2.72,.48-1.32,.06-4.87-2.26-2.24,1.41-2.64s-1.35-1.79-2.71-3.57c-1.35-1.79-3.63-2.26-3.63-2.26l-5.03-.95-.87-3.55-2.28-.91-4.6,1.27-3.2-.92,6.46-3.02-1.81-1.35-6.38-2.73,6.42,.08,.9,1.34,3.18,2.25,4.58,.05,3.64,1.82,4.09,2.26,5.03,.95,6.41,.52s3.18,1.81,7.31,1.86c4.12,.05,8.71-.34,12.86-2.06,4.15-1.72,3.38-13.24,3.38-13.24l-3.62-4.03s-.86-4-4.06-4.92c-3.2-.92-5.03-.5-5.03-.5l-1.82-1.35s-1.81-1.35-5-3.16c-3.18-1.81-7.74-4.08-7.74-4.08,0,0-4.1-2.26-10.97-2.35-6.87-.08-11.01,.75-11.01,.75l.86,4-4.51-5.37-2.73-1.8s2.3-.42,2.32-2.19c.02-1.77-6.86-.97-6.86-.97l-.49,2.65-2.77,1.3-4.55-2.71-1.85,1.31-3.66-.04,2.78-2.62-6.89,1.24,1.4-2.2,3.67-.4,.47-1.32,1.83,.46,2.79-3.06-2.73-1.36-5.49-.51-2.29-.03-2.76,.85-.95,2.64-.88-2.67,1.83,.02,1.41-2.64-3.21-.04s-1.8-2.68-3.19-1.37c-1.39,1.31-3.71,3.05-3.71,3.05l1.82,1.35-1.39,1.31-1.85,.86,1-6.19-2.76,.41-2.8,4.39,.44,1.33-2.25-3.13,2.31-1.74-4.58-.5s-2.73-1.36-3.21-.04c-.48,1.32-.5,3.53-.5,3.53l4.12,.49-1.39,1.31-1.38-.02-2.29-.03-1.81-1.35-1.85,1.3,1.81,1.79,1.36,.9-1.86,2.19,1.8,2.24-4.11-1.38-.89-1.78-2.25-3.13-9.62-.12-.49,2.21,3.65,.93,.89,1.78-3.67-.04-2.32,2.19-1.85,1.31-2.33,3.07-.41-3.99-2.26-2.24-1.88,3.52-3.67-.04-1.86,2.19,2.28,.91-4.6,1.27-1.86,1.75-.95,2.64-5.06,1.71,.88,3.11,3.2,.48,.88,3.11-2.73-1.8-2.76,.85-.05,3.54-2.73-1.36-.95,2.2-2.75,.41-.96,3.53,4.11,1.38-.49,2.21-3.65-1.37,.87,3.55,.89,2.22-4.12-.05-2.8,3.95,1.35,2.23-3.21,.4,4.08,3.15,2.27,1.36-.93,1.32-5.9-4.06-.5,3.09,1.35,1.79-3.22,.85-1.87,2.63,2.26,2.24-1.84,.42-3.22,1.29-2.77,1.74-2.33,3.07,1.33,3.12,2.28,.91,3.21-.4,.49-2.21,5.08-2.6,2.75-.41-.94,1.76,3.18,2.25-1.4,1.75-3.62-3.59-3.23,1.73-.94,2.2-3.22,1.29-1.41,2.64-1.82-1.35-1.8-2.68-2.75,.41-1.39,1.31-2.33,2.63,2.26,2.68,2.27,1.8-3.21,.4-3.65-.93-2.29-.47-3.24,2.62,.44,1.33,.88,2.67-3.2-.48-3.24,2.62,3.65,1.37-5.49-.95,1.79,3.56-3.64-2.26-2.29-.47-1.4,2.2-3.22,1.29-.03,2.21,5.05-.38,4.09,2.71-5.04-.5-4.12-.49-4.14,.84-.03,2.21,2.75,.03,5.02,1.83-5.5-.07-3.22,.85-.5,3.54,2.28,1.35-1.39,.87,7.33,.73-6.9,1.04-.94,1.76,2.27,1.8-.04,3.1,2.3-.42-1.4,1.53,2.28,1.13-1.42,3.52,2.28,.91-2.31,1.3-.95,2.64,2.74,.92,3.68-.84-1.89,4.4-3.18-2.25-.49,2.21,1.3,6.21s.91,.45,3.18,1.81c2.27,1.36,5.01,2.72,5.01,2.72l2.3-.42,1.36,1.34s-.01,.88,6.44-2.14c6.46-3.02,6.95-6.11,6.95-6.11l1.88-3.96,.44,1.77,3.25-3.06-1.77-4.45,1.82,1.35,1.01-7.51,.8,8.86,2.27,1.8-.03,2.21-1.39,1.31,1.32,4,2.25,3.13,2.29,.47-1.41,2.64,1.33,3.12,3.16,3.58,1.82,.91-.04,3.1,3.6,4.91-2.29-.03-.5,3.09,2.71,2.69s.26,.8,.5,1.52c.2,.6,.38,1.15,.38,1.15l-1.86,1.75,4.11,.94,2.3-.86,3.2,.48s1.2-2.97,1.39-3.46c.02-.04,.03-.07,.03-.07l-.41-3.99,1.84-.42,1.85-1.31,2.73,1.36s1.41-2.64,3.25-3.5c1.85-.86,3.23-1.29,3.7-2.61,.47-1.32,2.38-6.61,2.38-6.61l-2.25-3.57,.97-3.97-.88-2.67,.49-2.21-1.35-1.79,3.22-.85,1.84-.42,3.24-2.62,2.33-2.63-2.27-1.8-3.22,.85-7.77-1.42,5.52-1.7,2.73,1.8,4.12,.05,3.71-3.06-.44-1.33,.05-3.54-3.17-2.7-1.79-3.56-3.64-1.82-4.13-.05,.56-7.52-1.34-2.67,1.49-9.28,2.77-1.3,.48-1.76,3.71-3.5,3.7-2.61,4.58,.05,1.9-4.85,4.63-3.93-.85-5.32-1.34-2.67,3.7-2.61-2.26-2.24,4.6-1.27-3.17-2.7,5.48,1.4,2.35-4.4,5.04,.06,3.65,1.37,1.88-3.52-.08,6.2,2.71,3.57-.93,1.32,4.1,2.26-6.41-.08-.03,2.21-4.17,3.49-.97,3.97-3.7,2.17-2.33,2.63-.95,2.2s-2.29,.41-3.7,3.05c-1.41,2.64-1.48,7.95-.58,9.73,.89,1.78,1.76,5.78,1.76,5.78l-.06,4.43,.37,6.64s4.97,5.37,6.34,5.83c1.37,.46,4.13-.39,4.13-.39,0,0,.87,3.99,4.55,2.71,3.68-1.28,7.38-3.45,7.38-3.45l3.71-3.5,6.41,.52,4.61-2.16,5.05-1.27,3.23-1.29-.97,3.97,11.09,2.62-.48,2.3-2.75,1.29-5.86-.34-1.66,1.71-1.84,1.31-1.38,1.31-2.29,.86-4.58,1.28-2.25-2.23s-1.37-.46-5.02-.49c-3.65-.04-8.26,3.44-11.01,4.74-2.76,1.3-2.79,4.38-2.79,4.38l1.8,2.22-.93,1.31s-.02,2.2,2.25,2.67c2.28,.46,3.71-4.68,4.13-1.59,.42,3.09,.76,13.54-.17,15.3-.93,1.76-5.94,.38-5.94,.38l-.86-4.42-5.89-4.47-4.61,4.36s-1.42,4.39-1.43,5.72c-.01,1.32-3.19-.03-3.22,2.17-.02,2.2,3.09,9.29,3.09,9.29,0,0,1.13,1.86,1.92,3.17,.43,.71,.77,1.26,.77,1.26l4.08,2.25-4.56-.49-1.84,1.3-2.3,1.3,.02-1.32s2.22-2.94,2.32-4.3c0-.03,0-.06,0-.08,0-.28-.22-.21-.58,.08-1.33,1.08-4.5,5.15-4.5,5.15l-.94,2.64s3.22-2.17,2.74-.41c-.48,1.76-3.69,3.49-6.43,3.9-2.74,.41,.48-1.76,.48-1.76l-4.58,1.27s.51-4.4-1.77-4.87c-2.28-.46-11.43,1.65-13.28,3.39-1.84,1.74-3.7,4.37-3.7,4.37,0,0-4.99-2.26-4.86,2.49l-2.36,.73-1.77,.55-3.82-2.14-4.54-2.25-3.66,.4,.48-2.2-5.04,2.15s-1.83-.02-4.13,1.72c-2.3,1.74-1.81-1.78-1.81-1.78l-1.35-1.78-3.2-.03-1.79-3.1-.43-2.21,.48-2.2s-1.49-2.95-2.03-4.04c-.12-.24-.2-.4-.2-.4l4.12-.84,1.4-2.63,3.66-.4,.05-4.41-3.18-1.35s-1.34-3.1-2.7-3.11c-1.37-.01-2.26-2.12-3.65,.07-1.39,2.19-.97,5.61-.97,5.61l-3.18-1.8s-2.72-1.35-2.74-.03c-.02,1.32-.94,1.1-.94,1.1l-2.85,1.06-.9,3.15s.5,2.61,.77,3.97c.09,.49,.16,.81,.16,.81,0,0,.69-.55,1.44-.81,.45-.16,.92-.22,1.27,0,.23,.15,.4,.41,.49,.85,.43,2.21-1.45,7.48-1.45,7.48l1.79,3.54,2.7,3.56-.96,3.96-2.75,1.29-3.63-1.8-2.58,1.26-1.83,.88-1.37,2.64-2.28-.88s-5.48,.88-6.85,1.76c-1.37,.88-2.74,4.41-2.74,4.41l3.19,3.09-1.37,2.64-4.11-.88,.91-1.76-1.37-2.65s.91-2.2,2.28-3.08c1.37-.88-3.2,1.32-3.65,3.52-.46,2.2-1.83,6.17-1.83,6.17l-3.65,3.08,2.28,1.32-3.2,.44-1.37,2.2-2.74,1.32s-4.57,3.52-6.85,3.96c-2.28,.44-2.28,2.2-2.74,3.97-.46,1.76-1.37,3.53-2.74,3.97-1.37,.44-5.48,.88-6.39,2.2-.91,1.32,1.37,1.76,1.37,1.76h-2.28s-.92,3.08-3.2,2.2c-2.28-.88-3.19-2.65-3.19-2.65l-.91-1.76h-2.28s-3.65,0-3.65,0l2.28,2.65v2.2s1.37,.44,1.37,.44l.45,3.09-5.48,1.32-3.65-1.76-5.48,.44-3.88,.88-1.6,3.09h2.28s-2.28,1.32-2.28,1.32l1.83,.44-.46,1.76v.88l3.65,.88h3.65s2.28,1.77,2.28,1.77l3.65,1.77,.46,3.09s4.95,2.3,5.86,3.62c.91,1.32,3.19,3.09,3.19,3.09l1.37,2.65-.91,1.76,4.1,5.73,.91,3.53-4.1-4.85s-1.76,8.28-3.59,11.81c0,0-3.2,7.05-4.57,7.93-1.37,.88-9.13-.45-11.87-.45-2.74,0-4.56-.44-4.56-.44l-4.11,.44-3.19-1.32h-3.65s-3.2,1.32-3.2,1.32l-4.11-.44-.45-2.65-5.02-.44-4.57,1.76,1.37,1.76-5.48,1.32-1.83,1.76,.91,6.17,1.37,1.76,2.74,.44-3.2,1.32-.46,6.61,1.83,1.32-.91,1.32s.45,5.29-1.83,11.02c-2.29,5.73-3.66,9.26-3.66,9.26l1.83-.88-.46,2.2,3.19,.88s-.91,3.97-.46,6.61c.45,2.64-1.37,4.85-1.37,4.85l2.74,.88,3.2-1.32,2.74,1.32s2.74-3.52,6.85-1.32c4.11,2.21,3.65,5.29,3.65,5.29l4.92,3.67,1.83-.44,.91-1.32s1.93,.3,5.12-.58c3.2-.88,4.57-3.08,4.57-3.08l5.93-.44s4.11-.44,7.3-.44c3.2,0,1.83-3.09,3.2-4.41,1.37-1.32,3.2-1.76,3.2-1.76l3.65-2.2v-3.09s2.29-1.76,4.11-3.52c1.83-1.76,1.37-3.97,1.37-3.97l-2.28-3.53s.92-5.73,2.29-7.49c1.37-1.76,4.11-3.97,4.11-3.97l1.83-3.08s6.39-1.32,8.22-2.2c1.83-.88,3.2-2.2,3.2-2.2l3.19-.88,1.37-4.41,.46-3.97s-3.65,.88-2.74-2.2c.91-3.09,5.48-8.82,13.24-4.84l6.84,3.09,5.48-.88,3.65-3.52,3.2-.44s1.37-4.85,2.74-5.29c1.37-.44,6.39-3.08,7.76-1.76,1.37,1.32,4.56,4.41,4.56,4.41l2.74,1.76,2.28,6.61,4.56,3.53,2.28,3.09,5.02,2.21,4.11,3.53,1.37,2.2,10.5,1.77,2.74,3.97,5.48,3.97,2.73,4.41,1.37,5.29-2.28,1.76-1.83,5.73,3.2,.44,6.39-4.4-.45-3.09,3.65-3.53-2.74-3.97-3.19-1.32,2.74-5.29h2.28s1.37,1.76,1.37,1.76l5.93,1.77-.45-3.09-3.65-3.53-6.39-2.65-5.48-2.65,.92-3.53h-4.57s-5.02-.44-5.02-.44l-4.11-4.41-3.65-7.94-6.39-6.62-4.11-.88-1.82-3.53,2.74-.88-2.73-5.73v-3.53s2.28,.44,2.28,.44l4.11-1.76,1.83,.44,2.28,3.97-2.74-.88,3.79,4.29,2.28,2.2,.92-3.52,1.37-.88s3.65,2.65,4.1,4.41c.46,1.76,.45,4.85,.45,4.85l4.1,5.73,5.93,1.33,1.82,1.76,2.74-1.76,2.28,4.41,3.2,2.21,2.28-.88,4.11,2.65,4.56,2.65,1.83,1.76-1.37,7.94,2.74,5.73,2.74,3.53,1.14,2.39,1.6,2.02,5.02,3.53,1.22,4.09,2.28-1.32,4.11,1.33,3.19,.44,2.74-.88,.91,3.09-5.02-.45-4.57-1.32-3.65,.88-1.37,3.53,1.83,1.32,1.82,1.76-.46,3.08,4.11,2.65v-1.76l2.28,.44,3.19,3.09,1.83,.88-1.37-3.09,3.65,2.21-1.37-3.53-.46-2.64,1.37-3.09-.91-2.2,2.28-.44h3.62s.61-2.78,.61-2.78l-2.64-2.74-3.98-3.01,.67-1.45-2.28-4.27-4.36-4.84,.5-4.24,2.77,.8,2.4,4.04,4.64-.86-.33-2.24-2.95-2.22,4.11-2.2,4.57,1.77,2.28-1.76s3.2,1.32,5.02,1.77c1.82,.44,4.56,.44,4.56,.44,0,0,3.65,.44,5.02-1.32,1.37-1.76,1.83-3.97,4.11-3.52,2.28,.44,6.39,.89,6.39,.89l.46-1.76-5.02-3.53s-1.83-.44-2.28-3.09c-.46-2.65-2.28-4.85-2.28-4.85l.91-4.41v-1.76s3.2-1.76,3.66-3.96c.46-2.2,0-4.85,0-4.85l-2.74-1.76,1.83-1.76,1.83,.88,3.65-2.2,1.37-4.41-.45-4.41s.46-.44,1.83-1.76c1.37-1.32,2.74-4.41,2.74-4.41l-.91-3.09,2.74,.44,2.74-3.53,3.2-1.76,3.01-.26,5.25-.26-5.98,2.28-1.83,2.64,3.19,.88,3.65-.44,1.83,1.32,1.82-.44,2.28,3.09-3.2-.88-2.28,2.64-3.2,3.08,2.28,.88h5.93s0,3.97-1.37,6.62c-1.37,2.64,5.02,2.21,7.76,.88,2.74-1.32,2.29-3.08,2.29-3.08l4.11-1.76s1.37-1.76,3.65-.44c2.28,1.32,4.57-.88,4.57-.88l-.91-4.41-2.74-.44s-1.37,1.76-3.2,1.76c-1.83,0-2.28-3.09-2.28-3.09l-2.28-1.77-3.19-1.32-2.28,.44s-1.83,.88-2.28-.88c-.46-1.76,1.37-2.2,3.65-1.76,2.28,.44,1.83-1.76,1.83-1.76,0,0,2.28-.44,2.74,1.76,.45,2.2,2.28-2.2,3.19-3.52,.91-1.32,3.65-1.76,3.65-1.76,0,0,1.83,0,3.2-1.32,1.37-1.32,5.02-2.64,5.02-2.64,0,0,0-1.76,3.19-1.76,3.2,0,5.94-2.2,7.31-1.76,1.37,.44,5.02-.88,5.02-.88,0,0-.46,1.32-2.74,2.64-2.28,1.32-5.02,1.76-5.02,1.76l.46,2.2-3.65-1.33-4.11,1.32s2.74,2.2,4.11,2.65c1.37,.44,1.82,2.2,1.82,2.2,0,0-1.83-1.32-3.2,1.76-1.37,3.09-.92,6.17-.92,6.17l-2.28,.88-1.51-.5-.26,5.17s.15-.39,1.99,.49c1.84,.88,.47,3.54,3.22,4.41,2.75,.88,5.51,1.31,5.51,1.31,0,0,1.84,2.21,5.05,3.08,3.21,.87,4.59,.87,7.8,3.07,1.03,.7,1.96,1.23,2.88,1.67l1.4-.49,2.18-1.58,8.48-.32,2.07,1.79,7.94,.95,5.22-.63,2.39,1.68,5.87,3.05,1.52,1.05,4.24,.32,4.79,1.89,1.09,2.73,4.68,.63,2.83,.84,.76,1.89,2.28,1.79,2.39-.21,1.09-1.89,4.07-1.27c-1.41-1.92-2.72-3.62-3.01-3.72-.69-.24-7.04-6.62-7.04-6.62,0,0-2.49-2.73-2.22-4.74,.28-2.01,.8-4.9,.8-4.9,0,0,.3-3.35-1.32-3.38-1.62-.03-4.16-.3-4.16-.3,0,0-2.77-.5-1.57-2.27,1.19-1.77,.57-5.13,.57-5.13l-.15-4.03,1.97-6s1.39,.25,2.54,.5c1.16,.25,3.03-1.06,3.75-1.94,.71-.88,1.21-2.44,1.21-2.44l2.8-1.06-.03-.32-.38-1.75-5.87-1.16,2.07-3.47-2.28-4.1-7.4-1.05-6.53-5.46,.11-2.31,2.18-.74,.22-2.63-3.05-1.16,.44-7.99,2.83-4.2h2.18l1.41,5.04,3.81-.31-.54-8.09,1.85-.74,1.96-4.2,2.18-.53,3.92-3.26,4.02-1.79,4.35,2.1,3.48-2.1,5.77-.84,4.89,1.05,3.37,3.68v2.73l3.15,2.52,3.59-.84,5-.95,3.81-3.57,5.98,.42,2.94-2.1h4.9l1.96,3.05,3.26,1.47h2.83l1.52-2.1,5.76-1.26Zm-178.1-172.13l-.26,2.21-2.26-2.46,2.52,.25Zm-25.21,1.76l-.26,2.21-2.26-2.46,2.52,.25Zm-134.82,86.28s-2.96-1.14-4.09-2.48c-1.13-1.34-.2-2.44-.2-2.44,.69-.43,1.36,.9,1.36,.9,0,0,.9,.9,2.05,.69,1.15-.21,.87,3.33,.87,3.33Zm23.63-37.12l3.42,1.37,.65,2.66-1.83-.46-2.5-2.02,.25-1.55Zm-2.19,9.93c.91,.23,1.36,1.12,1.36,1.12l-.02,1.33s1.8,2.46,.43,2c-1.37-.46-4.78-2.49-4.78-2.49,0,0,2.09-2.19,3-1.95Zm-8.64-5.2c1.37,.68,1.57,2.68,1.57,2.68l.2,2.44-1.83-.46-.89-2s-1.34-2.67-1.79-3.34c-.45-.67,1.37,.02,2.74,.7Zm8.29,50.13c.9,1.12,.88,2.67,.88,2.67l-1.84,.64s-.5,2.87-1.41,2.86c-.92,0-1.36-.9-2.52-.47-1.15,.43-4.16,2.61-4.16,2.61l-2.53,.63-.42-2.66,1.16-.87,.48-1.77,.27-3.32,.66,2.22,.89,1.78s2.31-1.3,1.87-2.63c-.44-1.33,2.09-1.75,2.09-1.75l1.41-2.42,4.12,.71s-1.84,.64-.94,1.76Zm7.04,4.73l-.48,1.76-1.64,2.64s-.73,3.53-1.44,4.85c-.71,1.32-1.84,.2-1.84,.2l1.21-5.3,.48-1.54s-.2-2.22-.19-2.88c0-.66,3.25-3.06,3.25-3.06l.66,2.44v.89Zm7.65-76.08c-1.15,.65-3.9-2.46-3.9-2.46l1.61-.87-2.51-.92-1.05-3.29s.17,.18,.86,.41c.69,.23,3.62,3.59,4.98,4.49,1.36,.9,1.16,1.98,0,2.63Zm3.1-11.89l-4.57-.72-2.95-2.47,2.52,.03s3.77,1.2,5.14,1.22c1.37,.02,4.45,1.33,4.45,1.33l-4.59,.61Zm7.55-16.51s-3.66-.71-4.34-.94c-.69-.23-4.82,.39-5.5,.16-.68-.23-1.8-2.46-2.02-3.12-.22-.67,2.74,1.14,2.74,1.14l5.5,.07,2.52,.47,2.5,1.58-1.38,.65Zm31.6,72.55l-1.12-2.01,1.16-1.54s.44,2-.04,3.54Zm-100.35,156.09l-1.61-.91-2.44,.54-1.4,.88,.13-1.34,2.21-1.55,3.13-.09,1.03,1.46-1.05,1Zm-.76-6.71l-.45-1.46,4.66-3.21,1.15,.45-5.36,4.21Zm16.89,10.63l-.46-1.99-1.37-1.99h1.15s2.06,3.77,.68,3.99Zm14.66,4.44l-1.14-1.77s.46-3.1,.69-2.21c.23,.88,.91,3.1,.46,3.98Zm101.79-124.31l-3.68-1.19-1.79-2.06-.43-1.8-1.37-1.57,.3-3.13,1.21-2.66,3.26-.61c1.61,.25,1.6,.7,.16,3.36-1.44,2.65-1.43-.15-1.45,.74-.02,.89,.19,2.02,.19,2.02l2.95,4.66,2.05,1.83-1.4,.42Zm53.75-35.5c.93-.18,2.43,2.49,2.43,2.49l2.22,2.04,2.6,4.01c1.2-1.04,1.83,.51,2.26,1.18,.44,.67-3.27,.74-4.59-.83-1.32-1.57-.84-1.77-1.03-2.86-.18-1.09-4.49-3-5.41-3.04-.92-.04,.58-2.8,1.52-2.98Zm-4.96-23.88c2.13-1.22,1.03,2.87,1.03,2.87l-2.52-.54,1.49-2.33Zm-27.47-11.09l-.26,2.21-2.26-2.46,2.52,.25Zm1.09,4.44l2.27,1.36c1.33,3.78-4.6,.83-5.96-.29-1.36-1.12,3.68-1.06,3.68-1.06Zm-16.6-45.58l2.05,.91,.71-1.32,1.57,2.01,1.41-2.86s.49-2.21,1.42-3.3c.93-1.1,3.68-.84,3.68-.84l-1.41,3.08s.21,1.55,.65,2.66c.44,1.11-3.92,1.5-3.92,1.5l.44,1.33-1.16,1.09-3.2-1.15-.67-1.11-2.97-.92,1.39-1.09Zm-1.03,26.55l3.86,2.26-1.38,.65s-2.05-.69-3.2-.48c-1.15,.21-3.22,.85-3,1.51,.22,.67-.93,.65-.93,.65,0,0,.04-2.66,.73-3.31,.7-.66,3.92-1.28,3.92-1.28Zm-6.99,26.48l-.44-1.56s-.45-.45-.67-1.34c-.22-.89-1.57-2.9-.64-3.33,.92-.43,2.05,1.13,2.05,1.13,0,0,3.88,1.15,4.54,2.93,.67,1.78,1.08,5.55,.85,4.88-.22-.67-.18-3.32-1.77-4.23-1.59-.9-2.98-.48-2.98-.48,0,0,.87,3.55-.94,1.98Zm-4.45,7.47c-1.37-.46-2.04-1.57-2.04-1.57,0,0-.91-.9-1.12-2.23-.21-1.33-.2-2.44-.2-2.44l-1.36-.9-2.04-1.57,2.29,.03,1.59,.9,1.62-1.31-.03,2.66s1.15,.01,2.97,.92c1.82,.91,3.41,2.48,2.49,2.24-.91-.23-4.79-1.83-4.57-1.16,.22,.67,1.77,4.89,.4,4.43Zm2.42-45.35l1.82,1.35,.48-1.32,2.94,3.14-2.28-.25-2.97-.7s2.02,3.12-.92,0l-.66-2,1.6-.2Zm-1.39,18.8c-.48,1.54-2.54,.86-3.66-.27-1.13-1.12,2.08-1.52,2.08-1.52,0,0,2.06,.25,1.58,1.79Zm-3.64-19.97c.7-1.32,1.65-3.96,1.65-3.96,0,0,1.37,.24,.89,2.22-.48,1.99-1.87,3.3-1.87,3.3,0,0-3.92,1.28-4.34-.94,0,0,2.97,.7,3.68-.62Zm-2.91-5.13c.68,.23,2.5,1.8,2.5,1.8,0,0-2.31,1.74-3.22,1.07-.9-.67-.89-2.22-.89-2.22,0,0,.93-.87,1.61-.65Zm-2.01,30.53c.69-.43,1.6,.24,1.82,.91,.22,.67-2.55,2.4-3.47,2.83-.92,.43-1.35-1.56-2.72-2.69-1.36-1.12-1.11-2.67-1.11-2.67,.72-2.65,2.5,1.8,3.17,2.7,.68,.89,1.61-.65,2.3-1.08Zm-6.72-55.75l2.99-.85,2.16,.57-1.62,1.75,.9,1.56,1.38-.2,.66,2-5.3,1.93-2.26-1.92-.2-1.99,1.3-2.85Zm-5.11,13.55s-.27,2.87-.72,2.21c-.45-.67-1.55-4-1.55-4,0,0,4.81-.16,5.97-.37,1.15-.21,3.88,1.6,3.88,1.6l3.64,1.81-1.65,3.74-1.59-1.13-1.35-2.01-2.05-.91-.93,.87-1.59-1.13-2.05-.69Zm-2.61,77.44c-2.05-1.13,.49-2.21,.49-2.21,1.85-1.53,1.13,1.56,1.13,1.56l1.84,.02s-1.4,1.75-3.45,.62Zm7.36-2.12l-.93,1.32-.67-1.34,1.62-1.31-3.63-2.7v-.66c-.66-1.56,3.49-3.5,3.49-3.5l-.04,2.88s1.81,1.79,2.25,2.9c.45,1.11-2.09,2.41-2.09,2.41Zm2.22-11.93s-2.73-1.36-2.03-2.46c.7-1.1,1.18-2.42,1.18-2.42l-.65-2.88,2.71,3.35s3.17,2.47,2.71,3.35c-.47,.88-2.98-.03-2.98-.03,0,0-.02,1.99-.93,1.1Zm4.94,8.03c-.48,1.54-1.83-.47-2.96-1.59-1.13-1.12,2.08-1.53,2.08-1.53,0,0,1.36,1.57,.88,3.11Zm2.16-7.72s-.66-2.22-2.25-3.57c-1.59-1.35-2.72-2.47-2.72-2.47,0,0,.7-1.1,1.15-.43,.45,.67,2.96,1.36,3.63,2.92,.67,1.56,1.55,4.23,.18,3.54Zm12.29,6.57c-1.15,.21-4.81,.16-4.81,.16l-.95,1.98-.92,.21s-.93,1.32-2.3,.86c-1.37-.46-1.81-1.35-1.81-1.35l1.83,.02,.02-1.77-.22-.89,1.84-.42,2.08-.86s.24-.66-.68-.89c-.91-.23-3.19-1.37-3.19-1.37,0,0-.66-2.22,.03-2.21,.69,0,3.43,.7,3.43,.7,0,0-2.53,.63-1.39,1.09,1.14,.46,2.73,1.58,2.73,1.58h1.15s1.35,1.8,2.04,1.59c.69-.21,.95-2.64,.95-2.64l1.82,1.35s-.49,2.65-1.64,2.86Zm3.94-3.5c-.25,1.55-1.37-.24-2.96-1.58-1.59-1.35-1.84,.2-1.84,.2,.27-3.1-4.06-4.7-2.69-4.46,1.37,.24,3.18,2.25,3.18,2.25,0,0,1.38,.02,2.07-1.08,.7-1.1,2.55-1.96,2.77-1.29,.22,.67-1.41,2.64-1.41,2.64,0,0,1.12,1.78,.87,3.33Zm1.16-19.02c-.68-.45-.42-2.44-.42-2.44l.25-1.55,1.35,1.79,2.06,.25,.44,1.78s-2.98,.63-3.67,.18Zm19.91,133.12l-1.26,2.38-.29-2.39-.92-1.5-.91-2.09,2.78-.57,.63-1.19-.04,5.37Zm-5.7-78.73l3.34-2.48,1.49,2.88-1.39,.16-3.44-.57Zm6.14-17.03s-3.22-.96-4.4-.09c-1.18,.87-1.92,3.54-1.92,3.54-.5,1.55-6-1.23-6-1.23l.53-3.12-1.58-2.04-.42-2.02-2.96-2.07,.5-1.55,.71-.88,.74-2.22s1.63-.42,3.26-.83c1.63-.42,5.53,1.45,5.53,1.45l2.04,2.05,2.3,.49,2.01,3.39-2.13,2.42,1.8,2.72Zm1.69-39.74l-.69,.44-.93,1.32-1.12-2.23,1.19-3.53,1.62-1.09,2.51,1.14,1.56,3.12,2.05,.69,2.5,1.58,1.37,.68-1.39,.87-2.96-1.14-1.36-1.12-2.54,1.3-1.81-2.01Zm2.16,16.44l1.86-.88,1.84,2.25,3.94-.19-1.12-4.03-4.62-2.05,.71-2.23,4.85,1.15,2.98,3.82,1.58,4.04,.43,4.03,2.07,2.03-.5,4.47-3.71,.87-1.14-2.47-3.67-3.83-5.5-6.97Zm15.43,137.79s-3.67,.17-6.85-1.65c-3.18-1.82-6.56-5.41-6.56-5.41l1.14,.9,3.17,2.04,.27-2.65,2.24,3.35,6.85,1.87,4.54,2.83-4.8-1.29Zm8.49,14.07c-1.38,.65-4.13,.61-4.13,.61l-1.61,.64,.5-2.43s2.75-.18,3.45-.61c.69-.43,1.17-1.75,1.87-2.19,.69-.43,3.24-2.17,3.24-2.17l1.1,3.11s-3.02,2.39-4.4,3.04Zm10.86-107.26s-3.75-1.56-4.43-1.8c-.68-.24-3.11-2.95-3.11-2.95l-6.8-2.88s.95-.61,1.21-1.26c.26-.64,3.66,.8,4.56,1.48,.89,.69,.06-1.52,.06-1.52,0,0,1.4-.38,1.67-1.02,.26-.64-1.21-3.96-.51-4.15,.7-.19,2.39,3.35,3.47,5.13,1.08,1.78,1.5,2.67,1.5,2.67l1.86-.36s-.05,1.08,.59,2.2c.65,1.11-.35,2.81-.35,2.81l.28,1.64Zm9.46-28.42c-.99,1.48-4.53-2.13-2.66-2.5,0,0,3.65,1.01,2.66,2.5Zm20.59,36.23c-.4-1.32-3.97-4.28-3.97-4.28l-4.88,.68-5.23-1.95-4.42,.69,1.72-2.32,3.48-.3,3.21,.56,1.07,1.78,1.86-.14,2.79-.33,2.33-.34,4.17-.27-.63,3.67,.95,4.6,.62,1.76s-2.66-2.5-3.07-3.82Zm19.22,82.89l-2.28,4.47s-2.36,1.21-2.4,2.08c-.04,.87-7.68,1-7.68,1l-4.16,.05,4.35-4.17s1.2-1.04,1.9-1.23c.7-.19,2.35-.78,2.35-.78,0,0,.58,2.41,2.45,2.05,1.87-.36,2.61-1.64,2.88-2.28,.26-.64,.36-2.81,.36-2.81l1.67-1.24-1.88-4.64,3.41,1.22,.8,2.86-1.77,3.41Zm16.48-32.81l-3.95,5.71s-.75,1.27-1.29,2.99c-.54,1.72-1.59-.72-1.08,3.43,.51,4.15,1.6,5.71,1.6,5.71l3.27-.74s2.15-1.44,2.58-.77c.43,.67,1.78,1.59,1.78,1.59,0,0-1.81-.94-2.52-.53-.71,.41-4.9,.89-4.95,2.19-.06,1.3-2.09,5.57-2.09,5.57l-3.44,4.43,.17-3.9,.5-.85,1-1.7,1.57-4.06-1.73-2.68-.37-1.97s-.12-2.61,.16-3.47c.27-.86,.03-6.08,.75-6.49,.71-.41,2.72-4.02,2.72-4.02l1.96-2.53,1.4-.38,3.3-1.39,3.04-.75-4.36,4.61Zm26.73-39.79s-2.9,2.93-3.6,2.9c-.69-.03-9.98,.91-9.98,.91l-2.87,2.28-1.08,3.43,2.4,3.35-.06,1.52s3.1-2.27,3.78-1.81,.62,1.76,.62,1.76l-2.39,1.86,.16,1.53,1.1,1.13,4.33,1.47,2.17,3.04-5.9-2.31-5.38,1.53,.44-4.55-2.39-3.35s-3.79-3.19-3.1-3.17c.69,.03,2.03,1.17,2.12-.78,.08-1.95,.16-3.69,.16-3.69l-3.3-3.82s-.78-3.07-3.03-4.68c-2.24-1.61-5.97-.89-6.65-1.13-.68-.24-5.64-3.05-5.64-3.05l-1.88-1.01,1.27-.97s1.99,2.04,3.11,2.73c1.13,.7,2.48,1.4,4.11,1.25,1.62-.15,4.86-.24,5.53,.44,.66,.68,1.31,1.79,1.31,1.79l1.64,2.13s2.23,4.54,2.97,3.49c.74-1.06,2.17-2.09,3.11-2.27,.93-.18,4.87-.46,6.96-.59,2.09-.13,5.1-.23,5.1-.23l.98-1.27,4.05-2.66,6.89-.51-7.01,3.33Zm21.48-29.26s-2.52,.33-2.93-.99c-.8-2.64-1.94-2.71-1.94-2.71l-1.09-1.59,.8-3.2,2.47-4.9-.67,6.98,1.76,1.35,2.86,2.92-1.25,2.14Z" style="fill:#efc441;"/><polygon points="257.64 455.7 259.47 457.02 257.87 454.81 256.96 453.71 257.64 455.7" style="fill:#efc441;"/><polygon points="260.84 456.8 266.77 459.89 264.03 456.8 260.84 456.8" style="fill:#efc441;"/><polygon points="460.59 2.69 458.36 0 454.68 1.25 458.73 4.42 460.59 2.69" style="fill:#efc441;"/><path d="M470.33,17.43c4.63-3,2.39-5.25,2.45-7.89,.05-2.64-4.96-3.18-7.26-2.34-2.3,.84,.41,2.21,.38,3.98-.04,1.76-3.69,1.69-3.69,1.69l-1.01,4.39s4.5,3.18,9.13,.18Z" style="fill:#efc441;"/><path d="M467.35,150.29l.97-1.74-3.64-.55-2.67-2.29-3.18-.53,.54-2.63-3.57-2.75,.09-3.08-2.64-3.17,.52-2.19-.38-2.22,1.93-3.47-1.3-2.24,2.74,.08,.55-3.07-3.19-.09-4.12,.32-5.48-.16-2.32,1.26-2.29,.37-.54,2.63,1.78,1.38-.98,2.18,1.3,2.24,.4,1.78-2.77,.8-1,2.62-3.19-.09s-1.83-.05-2.32,1.26c-.5,1.31,2.16,4.03,2.16,4.03l1.25,4.01,1.28,2.68,3.21-.35-.38-2.22,1.41-1.28,1.27,3.12,3.22-.79,2.76-.8-.99,2.62,4.55,.57-5.06,1.18,3.58,2.31,5.44,1.48,2.79-1.68,2.68,1.84-.83-2.67,4.52,1.45,1.89-2.15Z" style="fill:#efc441;"/><path d="M451.79,8.69s-2.75,.39-4.6,1.68c-1.85,1.29,.36,4.42,.36,4.42,4.11,.08,4.24-6.09,4.24-6.09Z" style="fill:#efc441;"/><path d="M442.94,112.97l-.97,1.74,3.18,.53,3.19,.09-4.19,2.52-.5,1.31,2.78-1.24,1.78,1.38s2.78-1.24,5.09-2.06c2.31-.81,2.68,1.84,2.68,1.84,0,0,3.21-.35,4.16-1.64,.95-1.3,1.04-3.94,1.04-3.94l-.83-2.67,1.42-1.72-1.31-1.8,2.78-1.24,2.35-2.14-2.25-.95-.8-3.55,1.34,.92,3.72-2.1,3.65,.11,3.76-3.42-2.26-.51,.04-1.32,3.25-1.67,1.09-5.7,5.02,.15,5.6-3.81,4.26-4.73,4.6-1.19,3.72-2.1,4.19-2.52,4.13-.76s1.92-3.03,2.02-6.12c.1-3.08-1.19-5.77-1.19-5.77l-6.39-.19-4.6,1.19-2.4,3.9,.83,2.67-3.65-.11s-.05,1.76-1.88,1.71c-1.82-.05-2.32,1.26-4.16,1.64-1.84,.39-2.35,2.14-2.35,2.14l-4.59,.75-4.58,.31-2.34,1.7-.51,1.75-2.71-.96-3.74,2.54-1.42,1.72-.55,3.07-3.21,.35-3.25,1.67-3.79,4.3,1.75,2.26-2.32,1.26-3.64-.55-2.82,2.56,1.73,3.14,3.6,1.87-2.79,1.68,.87,1.35-3.29,2.99,.4,1.78-3.25,1.67,1.33,1.36-2.82,2.56Z" style="fill:#efc441;"/><path d="M448.72,24.51c.48-1.31,3.19,.5,3.19,.5,0,0,3.18,.5,5.03-.34,1.85-.85,.06-3.09,.06-3.09l3.25-2.58-2.22-3.13-4.55-.53-5.52,2.1s-1.41,1.74-1.93,5.25c-.53,3.52,2.22,3.13,2.7,1.82Z" style="fill:#efc441;"/></svg>