<svg xmlns="http://www.w3.org/2000/svg" viewBox="0 0 800 800"><path d="M366.19,465.54l3.44,2.21-.41,4-2.89,3.83-3.58,1.61-1.66.44-2.06,1-1.79,1.62-1.66,4.41-1.79-.15-1.65-2.06-.14-3.52-.13-.45-.14-.44-.28-.44-.41-.44,2.2-2.06,1.79-3.82,1-4.7-.69-5.14-2.48-3.68L349.52,456l-2.75-2.35-1.24-4.85,1-5.44,2.07,2.35,3.17,7.94,9.91-1,4.41,1,3,3.67-1,1.47-.83,1.91L366.6,463ZM64.43,353.27l-2.2.73-6.06,3.38v1.77l1.93,1,2.06.3,2.07-.44,2.2-.88-4.68,7.05h-7l-7.3-4.41-5.92-6.32,1-.88,1-.59,2.21-.73,1.79.88,4.27,1,3.3,2.94,1-1.18.68-3.67.69-1.32.42-1.92.82-1.91,2.21-.73,1.79.44L62,349l1.38,1.91ZM114,390.74l-5.78,1.62-4.13-.15-9.5-3.53,1-2.79.41-1-2.89-.14L91.84,383l-.55-2.35L90.46,379l-2.06-.74-4.27-.44-1.93-.88-.69-.59-.55-.73-.55-.59h-1L81,368.7l-1.38-4.12-3.16-2.35-3.72-.88,3.44-3.82,2.75-1.62,3.31-.44h8.13l1.24-.14,2.34-4.85,3.85-5.29L100.1,343l2.9-1.17,1-.3h2.2l.83.3,1.65.88.55,1.17.14.88.41.74,4.14,1.76,1.65,2.21-.83,2.94-3.85,2.94-9.78,5-3.72,4.85-.41,2.5,1,.59,14.6-4.41,6.2-5,3.85-1.91,3.31-2.94,1.93-6.61-1-2.35-1.93-.88-.82-1.18,2.2-3.38,2.62-2.06,2.2-.29,1.52,1.62.69,3.82-.42,2.5-1,2.93-1.1,2.65-1.11,1.62-1.1,2.64-.41,7.06-.41,3.08-1.24,3.38-4.41,8.38h8.4l-1.65,2.64-1.38,5.29-1.24,2.06-2.89,1.76ZM49,314.18h4.41l7.16,3.08,3.85.74L61,319.76l-7.85-.44-3.31,1.62-1.51,2.94-.69,3.23.14,8.67-2.62-.88-2.48-1.47-2.06-2.21-1.1-3.38,1.23-5.73,1.52-3.82,2.48-2.35Zm329.57,17.49-5.37,5.73-13.36,10.87-21.21,27.34L334.51,383l-1.93,4.56-2.06,3.67-3.17,2.5-8.81,2.06-12.81,8.52-1.52-8.37-.69-1.33-5.09-.59-2.62-.88-1.24-1.32-.82-3.09h-1.93l-2.21,1.62-1.24,1.47-.41,2.94,2.34,5.88-.55,2.79-4,2.06-17.36-1.18-4.68,2.35-2.34.15-1.24-2.5.69-1.76,3.58-3.38,1.24-2.35-13.22,4.85-3.31,2.64-2.06,5.15,1.1,4.4,2.34,4.85,1.24,6.47-1,4.26-2.48,3.53L232.18,450l-2.34,1.61-4.54-.15-6.2-4.11-4.41.44.83.44.27,1.47-.13,1.76-.42,1.18-1.38.74-1.37-1.18-1.38-1.62-3.31-2.05-3.71-5.44-1.24-1.18-2.34-.88-3.86-3.09h-2.76l-1.23,1.18-.28,2.06.55,1.91,5.37,2.35,3.17,4,2.2,5.14,1.24,5-8.26,8.67-11.29,5.73-10.75-1.18-7-11.31,2.62.29,1.92.59,1.79.29,2.21-1.17-3.86-2.5-5-5-4.4-5.58-2.07-4.56,1.52-.88,2.75-2.79,1-2.94-3-1.32L142.66,435l-2.48.88-1.65,2.05,1.1,1.18,2.62.59,2.61.29,4.14,1.62,4.54,4.41,3.86,5.14,1.93,4.7H147.62l-3.31-.58-1.65-1.47-1-1.91-9.09-11-2.48-1.91-2.62-.44-2.62.15-2.75-.74-3.58-3.08L112,426.75l-3.58-2.5-9.23-1.91-3-3.24,1.24-6.9,2.2-2.79,5,.88,10.88,4.11,8.82.59,2.06,1.18.83,2.79v3.23l.82,2.35,4-.29L129,414.4l13.63-1.61,12.67-4.41v-2.06L149,403.09l-5.51-.89L138.8,400l-4.13-7.2,17.36-.15,9.22,2.06,3.72,5.88h1.38l.83-2.06.82-1.32,2.48-2.65.28,2.94,1.1,2.65,1.51,1,2.07-1.47,2.07-2.06,1.92-.15,2.07.74,5.65.88,2.06.88,3.31,2.5,3.44,3.23h1.65l1.79-3.23-2.75-1.91v-1.91l5.1.14,5.78-1,5.37-2.06,4.41-2.94,5.23-8.52,1.1-1.33.55-1-1.1-2.35-2.2-1.32L218,379.87l-7.3,6-9.64,3.24-9.92-.3-8.26-4,16,.89,4-1.92,1.51-.88,3.86-1.47.82-1.61.69-2.5,1.52-2.65,1.79-2.2,1.65-1.47-1.93-3.38.28-2.2,1-1.92.69-2.2-.27-2.79-1-6.17-.27-4,2.06-4.85,4.82-3.53,5.51-1.47,4.27,1L228.19,342l-1.65,2.21L223,347.39l6.06-1.32h2.62l1,2.35-.56,2.64-3.71,8.09,2.34,1.32,5.92,4.7.27-4.55,1.52-3.53,2.75-1.91,3.72.29-2.34-4.26-.69-3.23.28-9.26.82-2.79,1.8-1.62,2.34-.73,2.06.14,1.38,1.33,1.38,4.55,1.24,2.21,1.37-.3,1.79-1.47,1.66-.29.69,2.94.82.73,2.07-1.17,6.06-5,.69-5.14-.28-6,.41-4.26L263,320.2l-5,1L253.25,323l-4.82,1-11.84-1.61-5.1,1.47,1.11,6-1.52,3.23h-1.51L227.91,332l-2.2-.29-9.09,5.14-2.76.88h-9l-2.89,1-1.51,2.35-1.11,2.5-1.51,1.91h-4l-2.06-4.26-1.93-5-3.58-2.5-4.41-1.61-3.85-4.41L175.85,322l.28-6,2.75-4.85,3.31.59,3.72,2.64,20.1,5.59,5.79.15,4.82-1.91,9.23-6.47,4.68-1.32,15.84,1.47,14.18-5.15,4.14.74,8.4,7.49,4.82,2.06,11.15,1-2.89-5.29-4.82-2.94-5.65-1.32-5.23-.3-4-1.76-11.85-11.9-2.2-1-4-1.47-2.2-1.47-5.51-7.64-5.23-.59L206,270.24l-2.47-2.06-2.07-5.88-.41-3.53,1.79-1.46h11.84l9.64,2.35,2.07-1.47-2.76-5.73-4.13-3.83L214.14,246l-5.65-1.62-7.71-.88-5.51.44-2.75-.44-6.2-3.23-2.75-.44-2.07-.74-2.2-1.61-1.52-2.35.28-2.06.69-3.09-1-3.53-3-6,2.2.15,2.07-.15,1.93-.74,1.93-1.46,6.61,4,22.31,7.94,7,3.82,20.52,15.43,16.39,7.35,18.18,2.35L307,253.48l-4.82-5.14-14.33-1,1.93-6.46,4.27-5L298.7,232l1.11-3.82,1.37-1.18,2.34,2.06.69,1.76,1.52,7.2,12.12-9.11,6.61-2.5,5.92,1.77v1.91l-1.1.88-.55.88-.42,1-.68,1,19,3.23,5.92,2.65-3.16,1.32-3.45.59h-7.16l5.79,5.88h10.74l37.87-7.79,3.58-1.32,6.75-5.59,4.13-.88v1.91l-14.18,9.11-5.24,2.35,9.09,4.7,9.65.15,19.83-6.76-1.38-2.64-2.34-2.5-2.76-1.77-2.47-.73-1.24-1.62-.14-8.37-.55-3.53,1.65.15L421,222l1.79.29-.41-1.32-.55-3.24-.41-1.32h2.89L428,217l3.16,1.62,1.24,2.64,1.52,1.91,20.38,7.35,5.51,3.38,3,4.11-8.68-.44-3.58,1.47L449,243.49l.69,4.26,2.62.15,3.3-.88,3,.59-5.37,2.79-9.36,9.4-4.69,3.38L437.81,260l-2.07-1-2.48.74-2.34,1.61v1.91l.83,1.47-.28,1.77L429.68,271l1.51-.73,4.14-1V271L429,278.91l-.69,1.76-.69,7.94-1.37,1.91-2.62,1.17-5,5.59-2.75,1.17-2.34-1.17-1.11-2.5v-3.09l.83-2.94L407,295.37l-3.45,2.5-2.75-1.33-11,9.7,5.65-.44-.83,3.23-7,7.94ZM324.87,206.75,322,208.37l-1.24.15v2.2l2.75,3.23-2.34,2.8-4.54,1.61-4.13-.14-4-2.21L305,212.78,302.15,209l-2.07-4.41,9.5-2.65h3l3.17.74,7.85,4ZM270.47,232l-14.32,2.5-3-.44-3.72-1.47L246.64,230l-.55-3.82,2.76-4.11,5-2.36,9.64-1.46,2.2,1.32,4.13,5.44,2.07,1.17,3-.15,2.61-.58,2.35-1.33,2.34-1.76-3.58-3.23-11-5.59-7.72-2.2-9.5-6.17-2.75-2.5-3.31-4.12-.14-1.91,2.07-1.76,3.31-.29,1.79,1.91,1.24,2.79,1.37,2.5,4.13,3.23,5.24,1.47,5.51.59,5.09-.3,10.75-2.35,5.09,1.32,2.07,5.88,1,1.18,1.52,3.08.55,3.09-2.34,1.47-7.72,7.79-3,6.46-1.1,1.18-2.06-.15-5.79-2.94Zm473.64,86,8-2.5,3.86-.59,4.54,1V318l-5.64.44-20.39,8.82-4.13.73-13.63.3-2.76.88-.13,2.2-2.48,2.06-2.76,1L678,337.69l-15.57-2.2-8,.29v1.91l2.48.44,7,3.68,3.31,1,10.6.74v1.91l-5.65,1.62-11.84-.74-5.92,1-13.91,7.94-5.37.14,4.26,1.91,4.14-.29,12.53-5.44,13.5-.15-2.76,3.24L661.75,358l-5.38,2.35-8.67,2.21-15.29,8.52-9.64,3.82-18.59-2.64-10.33.73-7.3,2.06-31.95-.44L549.78,373l-6.89-5.73-9.37-3.09-4.4-3.52-4.41-2.06-2.07-2.06-1-2.5-.69-2.94-1.1-2.49-2.07-1.18-2.48,1.76-2.2,4-1.51,4.41-.55,2.79,1,3.53,2.75,3.53L518.1,370l9.36,2.65,8.13,3.67,7.44,5.14,3.85,5.44-2.89,5,5.37,1.61,11.3-2.79,5.92.3,7.57,1.91,5.65,3.67.14,5.88,5.51,3.82L575,412.64l-3.31,3.53,2.35,2.05,1.51,2.5,1,3.38,1.66,9.7-.14,2.94-1.52,1-3.44.14-1.79-1.32L564.93,426l-2.21-3.08-2.34-2.5-2.89-1.77-3.72-.44-1.79-.73-2.34-2.5-1.38-.59L547,415l-.55,1.18-.83,1.32-2.2.73-1.79-.44-2.89-1.32-1.52-.29-2.61,1,.13,2.21,1.11,2.64v2.21l-2.76,2.5-6.2,3.52-2.75,2.65L520.85,435l-2.2-3.38-2.2-9.56-4.27,4.12L510,423.81l-1.51-5.29-1.52-4.12-4.4-1.91-4.41.88h-3.44l-1.52-5L489.45,410l-2.89-.73-5.92-5-1.52-2.2-1.1-1-1.51-.44-2.35,1-1,1.47-.55,1.61L471,406.32l-2.9,1.32-2.47.3-2.62-.45-2.89-1.17-1.79-1L457,404l-1.52-1-2.34-.44-1.51.59-2.89,2.64-1.79.59-2.07,1.76,1.24,3.24,2.89,1.91,6.06-3.38,10.47,2.35,2.89,1.91.41,4.11v4.12l1.52,1.91,4-.74,2.62-1,2.75-.29,3.72,2.06-6.88,7.64,7.3-.44,3.58.59,3,1.91L487,436.89l-7.71,2.79-2.75,2.2L475,447.17l2.89,1.77,4.69-.44L494.13,445l3.86-.15.69,2.94-2.2,2.35-10.33,5.73,2.61,3.68,4.55,3.52,2.75,3.83-2.89,4.7-4.41.73-4.95-1.76-8.68-5-5.23-.44-4.55.59-4.13-.29-3.86-4-1.1-2.5-.41-2.35-.83-2.35-1.93-2.65-2.34-1.17-2.48-.44-2.34-1.18-2.34-3.09-3.44,1.47L432,438.94l-3.86-1-.82,1.77-.83,3.38-1.1,5.73-1,1.76-2.35-1.91-3.44-4.85-4.54,2.8,1.92,5.14,6.75,7.79H422l-1.38,1.76-1.38,2.65-.55,2.49,1,2.06,2.47.59,4.69.44,5.09,2.65,3.17,3.23,1.24,4.26-1,5.58-1.24,1-2.34,2.8-1.11,2.79,2.48,1.32.42,1,4.54,4.55,1.1.3-1.51,5-4-1.62-6.88-7.35-4.55-2.5-10.33-1.76-4.27-3.38.83-5.59-2.62-3.52-4-2.06-9.23-2.06-3.44-2.35-.14-3.67,4.82-4.7-3.44-1.62-6.89,2.06-2.89-1.47-.41-1.62.13-3.67-.41-1.33-6.2-6.46-7.43-5-1.93-1.76L362.19,440l-1.51-3.23.41-3.09,1.38-1,1.79.3,1.79.88,1.38,1,4.27,4.26,1.51.88,3.58-.29,2.62-2.06.55-3.38-2.75-4.11,8.4-1.62,3.58-2.2,1.93-4.27-3.58-1.61-4-2.65-3.3-3.38-1.66-4.11.28-2.5,1.1-1.32,1.52.44,2.06,2.35,1.93,1.17,2.89.3,5.51-.44-3.17-5.59-1.65-2.05-2.2-2.06,3.44-1.47,7.16-1,3.31-1.32v-2.21l-11.3-2.79-5.23-3.09-.14-5.73,4.82-2.64,6.61,2.2,6.89,3.38,5.23,1,4.14-3.53-2.9-3.52-5.37-3.53L400.76,373l1.1-3.23,2.62-.15,3.16.44,2.76-.88,1.24-2.35-.14-2.5-1.38-2.06-2.48-.88,3.45-2.06,15.15-4.85,4,3.38,2.48-2.94,2.62-13.07,3.16,2.79,3.31.59,7.16-1.62-3.44-6.76-.69-3.09,19.42-11.9,3.3,4,2.62-1.77,2.48-4,3.17-2.06,15.42-2.5,3.31.44,1.1,2.35.14,2.5-.28,2.65.28,2.49,1.1,2.21,1.38,1.91,1.1,2.06.55,2.64-.55,2.65-1.1,2.64-.83,2.35,1.1,4.12V349l-.69,2.35-.55,1.91,3.31-1.18,3.85-.88,3.45-1.76,1.79-4-1-4.12-2.48-5-1.92-5.15.82-7.49-2.75-2.35L500.19,318l1.24-5.88,1.79-1.47,2.21-.29,2.06-.59.83-2.5-.69-2.79-1.65-.15-1.93.15-4.27-2.21-14.18-4.85-9.09-6.9-4.41-6.76,3.58-4.85,5.78-5.88,1.93-9.85,10.19,17.34,6.48,6.18,4.27-7.79L499,272.29l-1.38-6.46,3-3.38,7.71,2.64-5.37-4.7-18.32-7.49-4-2.5.69-4.26,1.92-4.71,2.76-3.67,2.89-1.91,1.24.59,4,2.64,1.66.74h2.48l6.61-1.77,1.79-1.17,1-2.79.69-2.8.69-1.17,13.5-.44,4.82-1.18,4-2.35,1.79-3.82-1.24-4-5.65-7.49-2.2-5-1.79-2.2-2.2-1.91-1.52-.89-1-1.17L515.07,191l4.27,1.47,6.47,6.9,3,1.47,4.41.59,9.5,3.24,16.8,9.11,4.69.73h10.19l2.34.88,2.07,1.47,2.2,1.18,3,.15v-1.77l-.83-3.53,3.17-3.08,4.68-2.21L610.24,206l3.44,1.61,3.44,2.36,8.13,2.49,3.58,2.94,9.09,9.7,1.38,4,.69,5.73.82,4-1,3.23-4.68,3.38-4,1.62-5.09,1.17-5.24.44-3.72-1-1.92-3.24-3.45-9.7L608.86,232l-3.31.73-3.3,3.24-5.65,7.49,6.75.15,1.24,3.82-2.48,12.64,2.62,2,12.67-6.31,4.68.44,1,3.08-.42,3.53-.82,3.82-.42,3.38.28,5,.69,1.76h3l.82-.44,1.38-2.65,1.24-.58.83.88,1.24,4.11.68,1.62,2.76,1.62,3.17-.15,2.89-1.62,1.51-2.79,4.27,2.2,2.48,2.94,1.24,4,.41,5.59,1.11,3.82,2.89,4.85,3.44,4.26,2.89,1.76,3.45-1.91-1.66-4.26-5.23-7.5,2.2-3.52,4.27.88,8.68,4.56-1.51-6.62L666,284.93l-5.1-1.76-2.48-3.38,1.38-2.06,2.75-1.76,1.79-2.35-1-3.53-2.62-1.32-6.2,2.64-2.89-.44-2.06-2.2-.14-2.21.14-2.35-.69-2.94-1-1.61-1.51-1.77-1.24-.44-.55,2.65-.83,2.79-2.06,1.47-2.48.73h-2.21l-2.34-1,1-2.65,3.58-4.11,9.22-16.76,2.48-2.5,2.21-.88,5.37-4.26,2.75-.88,42.15-2.79,11-3.09h6.06l5.38,1.32,2.2,1.62,2.2,2.94,3.45,11.76L735,245.4l2.2,1.62,6.2,9.26,2.06,2.05,2.76,1.47,5.51,1.47-1.66,2.8-3.85,2.05-1.52,3.09,5.24-.15,1.51,2.65-1.65,3.23-5.1,1.91-25.06-3.09-16.81-9-4.27-.88-1.79,2.2,2.48,7.06-10.74-4.12-12.67,5.73,3.58,5.29,6.75,4.41,7.44,2.94,5.64,1.32,11.57-2.64,5.65,3.08L737.36,291l7.43,1.91,6.34,4,2.62,6.46L750,307l-8.27,2.79-14.32,2.35v2.06l12.12,4ZM355.31,200.87,346.77,199l-1.79-.88-1.38-2.5-.41-2.49,1-1.77L347,191l4.55-2.06,5.1,1.62,5.37,2.79,4.82,1.47,20.66-1.91,1.79.44.13,1-.27,1.32.55,1.47,1.38,1.91.69,1.76,1.1,1.33,3,.44,1.37-.74.83-1.76.69-1.76.55-1.18,2.07-1.47,1.37-.59,2.07-.29,4.54,1.62,3.45,4,2.06,5.73,1,6.47-5,1L406.27,216l-11.71.44-4.68-2.2-6.75-9.41-5.23-2.2Zm-4,298.91,3.31-5,5.1-1.62h6.88l.69,3.23-4.82,1.33.14,3.82-3.72,3.38-2.34,3.82,4.41,2.64,7.85-.88,5.5-2.5,2.35,3.68-5.1,3.23-4,3.67-1.66,4.27-5.51-2.36-4.54-2.79-3-2.94-5.23.74-2.35-3.68-4.54-2.94,6.2-4.55,5.09-1.18Zm272.15-95.67,2.75,2.36v.29l-1,.44-.28,2.06-.55,2.35h-2.34l-3.85-1.47-1.8.15v1.17l1.24,2.79-1,1.18-2.2-.15-.28.74,2.2,1.17,2.21-.88,1.65-1.61.41.58-1,2.65-.41,2.64.27,2.8,1.79,3.23-.27,1.76-.55,1.18.13,1.76,1.38,2.21-1.1,1.17-4.13-.59-1.52-1.61,1.38-1.47.14-2.06h-1.1l-2.21.59-3.17-1.47-2.89-1.91-4.68-2.06-.41-1.47-.14-2.5-1-2.35-2.47-2.2-1.79-2.5,1.51-1.91L601,409.7l2.75-1.47,2.9-.59,2.06-1.17,1.79-.44.55-.3-1.37-1.32.68-.88,3,.14,2.35.89,1.1,1.47.82,1.17,1.11.15,1.92-.3,1.11-1.17-.28-2.06.83-.29Zm-254.38-8.22,1.24,1.46.41,2.8-1.79,2.05-1.93.74-1.1-.44-.41-.74-.41-1-.83-.73-1-.15-1.24.3-.83-1.18,1.24-3.53-.41-2.2.69-2.94,2.47-2.2,2.07.58.14,1.91-.69,2.36,1.1,2.2ZM356.13,214l2.76,2.65,2.75,2.5,5.51,3.52.28-5.73,4.54.59,1,4.56,4.54,2.35,7.58.88.69,3.38L380,230l-7.57,3.38-6.2,2.94-5.79.74-5.92-3.38.69-4.27,4.13-3.08-4.82-1.18-7.85,1.32-6.2-3.38-1.37-2.93,5.37-.74,5.92-.59,1.65-5.14ZM197.34,201l2.61,2.65.83,3.38-1,2.94-1.24.44-.55-1.62-.28-1.62L197.2,206l-2.48-.88-4-.89-4-2.93-2.06-6,2.75-2.35,5.51,4,2.89,3.08ZM92.25,140.62l1.24,1.18.14,1.47-1.51.44L89.36,143l-6.61-2.79L80,139.59,78.21,139l-.14-1.47,1.65-1.47L81,134.89l-.28-1.32-1.37-2.79.14-2.5,2.75.73,2.62,2.35,2.89,3.53,1,1.62.69,1.91.55.88Zm373,525.66,1.24,1,.14,2.94-.55,1.47-.14.59V673l.14,1.62-.28.59-.55.44-.41.15-1.38-3.09.55-5.29ZM491.38,527l5,2.06-.41.59-7.58,1.91-.55.58-3.44,1.18-1.52,1.32-3.17-.44-3.16-1.62.68-1.76,2.21-1.17ZM389.74,343.27l5.37-4.55.83-.29-1.38,3.67-.14,6.76L392.63,350l-6.75.15-3.16,1.47-1.93-.59-1.1-2.79.41-2.06,1.93-1.47,6.61-.73Zm-219.4-37.62,1.93,1.91v1.33l-.82,1.47-1.93,1.91-2.21.73-.82-.73-.55-1-.28-1.18.83-2.05.14-9.41-.83-1.76-.83-1-.69-1.62.42-1.47,1.24.44,2.34,3.24.27,1.47v1.46l1,5ZM153.13,283.9l2.34,1.18L157.4,287l-1.24,1-14.33-2.5-1.37-1.91,1.65-1.18ZM124.76,178l8.12-2.06,2.76.74-3.17,1.76-5.1,1.76-7,1.18-5,.44,2.07-1.47ZM118,147.53l1.1-4.41,6.06,6.91,4.13,2.35,2.76.73-.42,3.38-3.44-.44-3.44-2.35L121,149.88ZM68,133.27l1.79,1.47.69,1.62-.69.88L67.05,137l-3.17-1.77-2.34-2.64-4-1.62-1.38-1.32H54.79L53.55,129,53,127.25,52.86,125l1-.88,2.34.88,4.54,3.68L62,130Z" style="fill:#efc441"/><polyline points="366.19 465.54 369.63 467.75 369.22 471.71 366.33 475.54 362.75 477.15 361.09 477.59 359.03 478.62 357.24 480.24 355.58 484.65 353.79 484.5 352.14 482.44 352 478.92 351.87 478.48 351.73 478.03 351.45 477.59 351.04 477.15 353.24 475.1 355.03 471.27 356 466.57 355.31 461.43 352.83 457.75 349.52 455.99 346.77 453.64 345.53 448.79 346.49 443.35 348.56 445.7 351.73 453.64 361.64 452.61 366.05 453.64 369.08 457.31 368.12 458.78 367.29 460.69 366.6 463.04 366.19 465.54" style="fill:#efc441"/><polyline points="64.43 353.27 62.23 354 56.17 357.38 56.17 359.15 58.1 360.18 60.16 360.47 62.23 360.03 64.43 359.15 59.75 366.2 52.73 366.2 45.43 361.79 39.51 355.47 40.47 354.59 41.43 354 43.64 353.27 45.43 354.15 49.7 355.18 53 358.12 53.97 356.94 54.66 353.27 55.34 351.94 55.76 350.04 56.58 348.12 58.79 347.39 60.58 347.83 61.95 349.01 63.33 350.92 64.43 353.27" style="fill:#efc441"/><polyline points="114.01 390.74 108.23 392.36 104.1 392.21 94.59 388.68 95.56 385.89 95.97 384.86 93.08 384.72 91.84 382.95 91.29 380.6 90.46 378.99 88.4 378.25 84.13 377.81 82.2 376.93 81.51 376.34 80.96 375.61 80.41 375.02 79.44 375.02 80.96 368.7 79.58 364.58 76.42 362.23 72.7 361.35 76.14 357.53 78.89 355.91 82.2 355.47 90.33 355.47 91.56 355.32 93.91 350.48 97.76 345.19 100.1 342.98 103 341.81 103.96 341.51 106.16 341.51 106.99 341.81 108.64 342.69 109.19 343.86 109.33 344.74 109.75 345.48 113.88 347.24 115.53 349.45 114.7 352.39 110.85 355.32 101.07 360.32 97.35 365.17 96.94 367.67 97.9 368.26 112.5 363.85 118.7 358.85 122.55 356.94 125.86 354 127.79 347.39 126.82 345.04 124.89 344.16 124.07 342.98 126.27 339.6 128.89 337.54 131.09 337.25 132.61 338.87 133.3 342.69 132.88 345.19 131.92 348.12 130.82 350.77 129.72 352.39 128.61 355.03 128.2 362.08 127.79 365.17 126.55 368.55 122.14 376.93 130.54 376.93 128.89 379.57 127.51 384.86 126.27 386.92 123.38 388.68 114.01 390.74" style="fill:#efc441"/><polyline points="49.01 314.18 53.41 314.18 60.58 317.26 64.43 318 60.99 319.76 53.14 319.32 49.84 320.94 48.32 323.88 47.63 327.11 47.77 335.78 45.15 334.9 42.67 333.43 40.61 331.22 39.51 327.84 40.74 322.11 42.26 318.29 44.74 315.94 49.01 314.18" style="fill:#efc441"/><polyline points="378.58 331.67 373.21 337.4 359.85 348.27 338.64 375.61 334.51 382.95 332.58 387.51 330.52 391.18 327.35 393.68 318.54 395.74 305.73 404.26 304.21 395.88 303.52 394.56 298.43 393.98 295.81 393.09 294.57 391.77 293.75 388.68 291.82 388.68 289.61 390.3 288.37 391.77 287.96 394.71 290.3 400.59 289.75 403.38 285.76 405.44 268.4 404.26 263.72 406.61 261.38 406.76 260.14 404.26 260.83 402.5 264.41 399.12 265.65 396.77 252.43 401.62 249.12 404.26 247.06 409.4 248.16 413.81 250.5 418.66 251.74 425.13 250.78 429.39 248.3 432.92 232.18 449.96 229.84 451.58 225.3 451.44 219.1 447.32 214.69 447.76 215.52 448.2 215.79 449.67 215.66 451.44 215.24 452.61 213.87 453.35 212.49 452.17 211.11 450.55 207.81 448.5 204.09 443.06 202.85 441.88 200.51 441 196.65 437.92 193.9 437.92 192.66 439.09 192.38 441.15 192.93 443.06 198.3 445.41 201.47 449.38 203.67 454.52 204.91 459.52 196.65 468.19 185.36 473.92 174.61 472.74 167.59 461.43 170.21 461.72 172.13 462.31 173.93 462.6 176.13 461.43 172.27 458.93 167.31 453.93 162.91 448.35 160.84 443.79 162.36 442.91 165.11 440.12 166.07 437.18 163.04 435.86 142.66 434.98 140.18 435.86 138.53 437.92 139.63 439.09 142.25 439.68 144.87 439.97 149 441.59 153.54 446 157.4 451.14 159.33 455.84 147.62 455.84 144.31 455.26 142.66 453.79 141.7 451.88 132.61 440.85 130.13 438.94 127.51 438.5 124.89 438.65 122.14 437.92 118.56 434.83 111.95 426.75 108.37 424.25 99.14 422.34 96.11 419.1 97.35 412.2 99.55 409.4 104.51 410.29 115.39 414.4 124.21 414.99 126.27 416.17 127.1 418.96 127.1 422.19 127.92 424.54 131.92 424.25 129.03 414.4 142.66 412.79 155.33 408.38 155.33 406.32 149 403.09 143.49 402.2 138.81 400 134.67 392.8 152.03 392.65 161.25 394.71 164.97 400.59 166.35 400.59 167.18 398.53 168 397.21 170.48 394.56 170.76 397.5 171.86 400.15 173.37 401.18 175.44 399.71 177.5 397.65 179.43 397.5 181.5 398.24 187.15 399.12 189.21 400 192.52 402.5 195.96 405.73 197.61 405.73 199.4 402.5 196.65 400.59 196.65 398.68 201.75 398.82 207.53 397.8 212.9 395.74 217.31 392.8 222.54 384.28 223.64 382.95 224.19 381.92 223.09 379.57 220.89 378.25 218 379.87 210.7 385.89 201.06 389.13 191.14 388.83 182.88 384.86 198.85 385.75 202.85 383.83 204.36 382.95 208.22 381.48 209.04 379.87 209.73 377.37 211.25 374.72 213.04 372.52 214.69 371.05 212.76 367.67 213.04 365.46 214 363.56 214.69 361.35 214.42 358.56 213.45 352.39 213.18 348.42 215.24 343.57 220.06 340.04 225.57 338.57 229.84 339.6 228.19 341.95 226.54 344.16 222.96 347.39 229.01 346.07 231.63 346.07 232.59 348.42 232.04 351.06 228.33 359.15 230.67 360.47 236.59 365.17 236.87 360.62 238.38 357.09 241.13 355.18 244.85 355.47 242.51 351.21 241.82 347.98 242.1 338.72 242.93 335.93 244.72 334.31 247.06 333.58 249.12 333.72 250.5 335.05 251.88 339.6 253.12 341.81 254.49 341.51 256.28 340.04 257.94 339.75 258.63 342.69 259.45 343.42 261.52 342.25 267.58 337.25 268.27 332.11 267.99 326.08 268.4 321.82 263.03 320.2 258.07 321.23 253.25 323 248.43 324.02 236.59 322.41 231.49 323.88 232.59 329.9 231.08 333.13 229.56 333.13 227.91 331.96 225.71 331.67 216.62 336.81 213.87 337.69 204.91 337.69 202.02 338.72 200.51 341.07 199.4 343.57 197.89 345.48 193.9 345.48 191.83 341.22 189.9 336.22 186.32 333.72 181.91 332.11 178.06 327.7 175.85 321.97 176.13 315.94 178.88 311.09 182.19 311.68 185.91 314.32 206.01 319.91 211.8 320.06 216.62 318.14 225.85 311.68 230.53 310.36 246.37 311.83 260.55 306.68 264.69 307.42 273.09 314.91 277.91 316.97 289.06 318 286.17 312.71 281.35 309.77 275.7 308.45 270.47 308.15 266.48 306.39 254.63 294.49 252.43 293.46 248.43 291.99 246.23 290.52 240.72 282.88 235.49 282.29 206.01 270.24 203.53 268.18 201.47 262.3 201.06 258.77 202.85 257.31 214.69 257.31 224.33 259.66 226.4 258.19 223.64 252.46 219.51 248.63 214.14 245.99 208.49 244.37 200.78 243.49 195.27 243.93 192.52 243.49 186.32 240.26 183.56 239.82 181.5 239.08 179.3 237.47 177.78 235.12 178.06 233.06 178.75 229.97 177.78 226.44 174.75 220.42 176.96 220.57 179.02 220.42 180.95 219.69 182.88 218.22 189.49 222.18 211.8 230.12 218.82 233.94 239.34 249.37 255.73 256.72 273.91 259.07 306.97 253.49 302.15 248.34 287.82 247.31 289.75 240.85 294.02 235.85 298.7 232.03 299.81 228.21 301.18 227.03 303.52 229.09 304.21 230.85 305.73 238.05 317.85 228.94 324.46 226.44 330.38 228.21 330.38 230.12 329.28 231 328.73 231.88 328.31 232.91 327.63 233.94 346.63 237.17 352.55 239.82 349.39 241.14 345.94 241.73 338.78 241.73 344.57 247.61 355.31 247.61 393.18 239.82 396.76 238.5 403.51 232.91 407.64 232.03 407.64 233.94 393.46 243.05 388.23 245.4 397.31 250.1 406.95 250.25 426.79 243.49 425.41 240.85 423.07 238.35 420.31 236.59 417.83 235.85 416.6 234.23 416.46 225.86 415.91 222.33 417.56 222.48 421 222.04 422.79 222.33 422.38 221.01 421.83 217.77 421.42 216.45 424.31 216.45 428.03 217.04 431.19 218.66 432.43 221.3 433.95 223.21 454.33 230.56 459.84 233.94 462.87 238.05 454.19 237.61 450.61 239.08 448.96 243.49 449.65 247.75 452.27 247.9 455.57 247.02 458.6 247.61 453.23 250.4 443.87 259.8 439.18 263.18 437.81 259.95 435.74 258.92 433.26 259.66 430.92 261.27 430.92 263.18 431.75 264.65 431.47 266.42 429.68 270.97 431.19 270.24 435.33 269.21 435.33 270.97 428.99 278.91 428.3 280.67 427.61 288.61 426.24 290.52 423.62 291.69 418.66 297.28 415.91 298.45 413.57 297.28 412.46 294.78 412.46 291.69 413.29 288.75 406.95 295.37 403.51 297.87 400.76 296.54 389.74 306.24 395.39 305.8 394.56 309.03 387.54 316.97 378.58 331.67" style="fill:#efc441"/><polyline points="324.87 206.75 321.98 208.37 320.74 208.52 320.74 210.72 323.49 213.95 321.15 216.75 316.61 218.36 312.48 218.22 308.48 216.01 305.04 212.78 302.15 208.96 300.08 204.55 309.58 201.9 312.61 201.9 315.78 202.64 323.63 206.6 324.87 206.75" style="fill:#efc441"/><polyline points="270.47 232.03 256.15 234.53 253.12 234.09 249.4 232.62 246.64 229.97 246.09 226.15 248.85 222.04 253.81 219.69 263.45 218.22 265.65 219.54 269.78 224.97 271.85 226.15 274.88 226 277.49 225.42 279.83 224.09 282.18 222.33 278.6 219.1 267.58 213.51 259.87 211.31 250.36 205.14 247.61 202.64 244.3 198.52 244.16 196.61 246.23 194.85 249.54 194.56 251.33 196.47 252.57 199.26 253.94 201.76 258.07 204.99 263.31 206.46 268.82 207.05 273.91 206.75 284.65 204.4 289.75 205.72 291.82 211.6 292.78 212.78 294.3 215.86 294.85 218.95 292.51 220.42 284.79 228.21 281.76 234.67 280.66 235.85 278.6 235.7 272.81 232.76 270.47 232.03" style="fill:#efc441"/><polyline points="744.11 318 752.09 315.5 755.95 314.91 760.5 315.94 760.5 318 754.85 318.44 734.47 327.26 730.33 327.99 716.7 328.29 713.94 329.17 713.81 331.37 711.33 333.43 708.57 334.46 678 337.69 662.43 335.49 654.45 335.78 654.45 337.69 656.93 338.13 663.95 341.81 667.25 342.83 677.86 343.57 677.86 345.48 672.21 347.1 660.37 346.36 654.45 347.39 640.54 355.32 635.16 355.47 639.43 357.38 643.57 357.09 656.1 351.65 669.6 351.5 666.84 354.74 661.75 357.97 656.38 360.32 647.7 362.53 632.41 371.05 622.77 374.87 604.18 372.23 593.85 372.96 586.55 375.02 554.6 374.58 549.78 372.96 542.89 367.23 533.52 364.14 529.12 360.62 524.71 358.56 522.64 356.5 521.68 354 520.99 351.06 519.89 348.56 517.82 347.39 515.35 349.15 513.14 353.12 511.63 357.53 511.07 360.32 512.04 363.85 514.79 367.38 518.1 370.02 527.46 372.67 535.59 376.34 543.03 381.48 546.88 386.92 543.99 391.92 549.36 393.53 560.66 390.74 566.58 391.04 574.15 392.95 579.8 396.62 579.94 402.5 585.45 406.32 574.98 412.64 571.67 416.17 574.01 418.22 575.53 420.72 576.49 424.1 578.15 433.8 578.01 436.74 576.49 437.77 573.05 437.92 571.26 436.59 564.93 426.01 562.72 422.93 560.38 420.43 557.49 418.66 553.77 418.22 551.98 417.49 549.64 414.99 548.26 414.4 547.02 414.99 546.47 416.17 545.64 417.49 543.44 418.22 541.65 417.78 538.76 416.46 537.24 416.17 534.63 417.19 534.76 419.4 535.87 422.04 535.87 424.25 533.11 426.75 526.91 430.27 524.16 432.92 520.85 434.98 518.65 431.6 516.45 422.04 512.18 426.16 509.97 423.81 508.46 418.52 506.94 414.4 502.54 412.49 498.13 413.37 494.69 413.37 493.17 408.38 489.45 409.99 486.56 409.26 480.64 404.26 479.12 402.06 478.02 401.03 476.51 400.59 474.17 401.62 473.2 403.09 472.65 404.7 471 406.32 468.11 407.64 465.63 407.94 463.01 407.5 460.12 406.32 458.33 405.29 456.95 403.97 455.43 402.94 453.09 402.5 451.58 403.09 448.69 405.73 446.89 406.32 444.83 408.08 446.07 411.32 448.96 413.23 455.02 409.85 465.49 412.2 468.38 414.11 468.79 418.22 468.79 422.34 470.31 424.25 474.3 423.51 476.92 422.48 479.67 422.19 483.39 424.25 476.51 431.89 483.81 431.45 487.39 432.04 490.42 433.95 486.97 436.89 479.26 439.68 476.51 441.88 474.99 447.17 477.88 448.94 482.57 448.5 494.13 444.97 497.99 444.82 498.68 447.76 496.48 450.11 486.15 455.84 488.76 459.52 493.31 463.04 496.06 466.87 493.17 471.57 488.76 472.3 483.81 470.54 475.13 465.54 469.89 465.1 465.35 465.69 461.22 465.4 457.36 461.43 456.26 458.93 455.85 456.58 455.02 454.23 453.09 451.58 450.75 450.41 448.27 449.96 445.93 448.79 443.59 445.7 440.15 447.17 432.02 438.94 428.17 437.92 427.34 439.68 426.51 443.06 425.41 448.79 424.45 450.55 422.11 448.64 418.66 443.79 414.12 446.58 416.05 451.73 422.79 459.52 421.97 459.52 420.59 461.28 419.21 463.93 418.66 466.42 419.63 468.48 422.11 469.07 426.79 469.51 431.88 472.16 435.05 475.39 436.29 479.65 435.33 485.24 434.09 486.26 431.75 489.06 430.64 491.85 433.12 493.17 433.54 494.2 438.08 498.75 439.18 499.05 437.67 504.05 433.67 502.43 426.79 495.08 422.24 492.58 411.91 490.82 407.64 487.44 408.47 481.86 405.85 478.33 401.86 476.27 392.63 474.21 389.19 471.86 389.05 468.19 393.87 463.49 390.43 461.87 383.54 463.93 380.65 462.46 380.24 460.84 380.37 457.17 379.96 455.84 373.76 449.38 366.33 444.38 364.4 442.62 362.19 439.97 360.68 436.74 361.09 433.65 362.47 432.62 364.26 432.92 366.05 433.8 367.43 434.83 371.7 439.09 373.21 439.97 376.79 439.68 379.41 437.62 379.96 434.24 377.21 430.13 385.61 428.51 389.19 426.31 391.12 422.04 387.54 420.43 383.54 417.78 380.24 414.4 378.58 410.29 378.86 407.79 379.96 406.47 381.48 406.91 383.54 409.26 385.47 410.43 388.36 410.73 393.87 410.29 390.7 404.7 389.05 402.64 386.85 400.59 390.29 399.12 397.45 398.09 400.76 396.77 400.76 394.56 389.46 391.77 384.23 388.68 384.09 382.95 388.91 380.31 395.52 382.51 402.41 385.89 407.64 386.92 411.77 383.39 408.88 379.87 403.51 376.34 400.76 372.96 401.86 369.73 404.48 369.58 407.64 370.02 410.4 369.14 411.64 366.79 411.5 364.29 410.12 362.23 407.64 361.35 411.09 359.29 426.24 354.44 430.23 357.82 432.71 354.88 435.33 341.81 438.49 344.6 441.8 345.19 448.96 343.57 445.52 336.81 444.83 333.72 464.25 321.82 467.55 325.79 470.17 324.02 472.65 320.06 475.82 318 491.24 315.5 494.55 315.94 495.65 318.29 495.79 320.79 495.51 323.44 495.79 325.93 496.89 328.14 498.27 330.05 499.37 332.11 499.92 334.75 499.37 337.4 498.27 340.04 497.44 342.39 498.54 346.51 498.54 349.01 497.85 351.36 497.3 353.27 500.61 352.09 504.46 351.21 507.91 349.45 509.7 345.48 508.73 341.36 506.25 336.37 504.33 331.22 505.15 323.73 502.4 321.38 500.19 318 501.43 312.12 503.23 310.65 505.43 310.36 507.49 309.77 508.32 307.27 507.63 304.48 505.98 304.33 504.05 304.48 499.78 302.27 485.6 297.42 476.51 290.52 472.1 283.76 475.68 278.91 481.46 273.03 483.39 263.18 493.58 280.52 500.06 286.7 504.33 278.91 498.95 272.3 497.58 265.83 500.61 262.45 508.32 265.09 502.95 260.39 484.63 252.9 480.64 250.4 481.33 246.14 483.25 241.43 486.01 237.76 488.9 235.85 490.14 236.44 494.13 239.08 495.79 239.82 498.27 239.82 504.88 238.05 506.67 236.88 507.63 234.09 508.32 231.29 509.01 230.12 522.51 229.68 527.33 228.5 531.32 226.15 533.11 222.33 531.87 218.36 526.23 210.87 524.02 205.87 522.23 203.67 520.03 201.76 518.51 200.87 517.55 199.7 515.07 191.03 519.34 192.5 525.81 199.41 528.84 200.87 533.25 201.46 542.75 204.69 559.55 213.81 564.24 214.54 574.43 214.54 576.77 215.42 578.84 216.89 581.04 218.07 584.07 218.22 584.07 216.45 583.24 212.93 586.41 209.84 591.09 207.63 610.24 206.02 613.68 207.63 617.12 209.99 625.25 212.48 628.83 215.42 637.92 225.12 639.3 229.09 639.99 234.82 640.81 238.79 639.85 242.02 635.16 245.4 631.17 247.02 626.08 248.19 620.84 248.63 617.12 247.61 615.2 244.37 611.75 234.67 608.86 232.03 605.55 232.76 602.25 236 596.6 243.49 603.35 243.64 604.59 247.46 602.11 260.1 604.73 262.15 617.4 255.84 622.08 256.28 623.04 259.36 622.63 262.89 621.81 266.71 621.39 270.09 621.67 275.09 622.36 276.85 625.39 276.85 626.21 276.41 627.59 273.76 628.83 273.18 629.66 274.06 630.9 278.17 631.58 279.79 634.34 281.41 637.51 281.26 640.4 279.64 641.91 276.85 646.18 279.06 648.66 281.99 649.9 285.96 650.32 291.55 651.42 295.37 654.31 300.22 657.75 304.48 660.64 306.24 664.09 304.33 662.43 300.07 657.2 292.57 659.4 289.05 663.67 289.93 672.35 294.49 670.84 287.87 666.02 284.93 660.92 283.17 658.44 279.79 659.82 277.73 662.57 275.97 664.36 273.62 663.4 270.09 660.78 268.77 654.58 271.41 651.69 270.97 649.63 268.77 649.49 266.56 649.63 264.21 648.94 261.27 647.97 259.66 646.46 257.89 645.22 257.45 644.67 260.1 643.84 262.89 641.78 264.36 639.3 265.09 637.09 265.09 634.75 264.06 635.72 261.42 639.3 257.31 648.52 240.55 651 238.05 653.21 237.17 658.58 232.91 661.33 232.03 703.48 229.24 714.5 226.15 720.55 226.15 725.93 227.47 728.13 229.09 730.33 232.03 733.78 243.78 735.02 245.4 737.22 247.02 743.42 256.28 745.48 258.33 748.24 259.8 753.75 261.27 752.09 264.06 748.24 266.12 746.72 269.21 751.96 269.06 753.47 271.71 751.82 274.94 746.72 276.85 721.66 273.76 704.85 264.8 700.59 263.92 698.79 266.12 701.27 273.18 690.53 269.06 677.86 274.79 681.44 280.08 688.19 284.49 695.63 287.43 701.27 288.75 712.84 286.11 718.49 289.19 737.36 290.96 744.79 292.87 751.13 296.84 753.75 303.3 750.03 306.98 741.76 309.77 727.44 312.12 727.44 314.18 739.56 318.14 744.11 318" style="fill:#efc441"/><polyline points="355.31 200.87 346.77 198.96 344.98 198.08 343.6 195.58 343.19 193.09 344.15 191.32 347.05 191.03 351.59 188.97 356.69 190.59 362.06 193.38 366.88 194.85 387.54 192.94 389.33 193.38 389.46 194.41 389.19 195.73 389.74 197.2 391.12 199.11 391.81 200.87 392.91 202.2 395.94 202.64 397.31 201.9 398.14 200.14 398.83 198.38 399.38 197.2 401.45 195.73 402.82 195.14 404.89 194.85 409.43 196.47 412.88 200.43 414.94 206.16 415.91 212.63 410.95 213.66 406.27 216.01 394.56 216.45 389.88 214.25 383.13 204.84 377.89 202.64 355.31 200.87" style="fill:#efc441"/><polyline points="351.31 499.78 354.62 494.79 359.71 493.17 366.6 493.17 367.29 496.4 362.47 497.73 362.61 501.55 358.89 504.93 356.55 508.75 360.95 511.39 368.81 510.51 374.31 508.01 376.66 511.69 371.56 514.92 367.57 518.59 365.91 522.86 360.4 520.5 355.86 517.71 352.83 514.77 347.6 515.51 345.25 511.83 340.71 508.89 346.91 504.34 352 503.16 351.31 499.78" style="fill:#efc441"/><polyline points="623.46 404.12 626.21 406.47 626.21 406.76 625.25 407.2 624.97 409.26 624.42 411.61 622.08 411.61 618.23 410.14 616.43 410.29 616.43 411.46 617.67 414.25 616.71 415.43 614.51 415.28 614.23 416.02 616.43 417.19 618.64 416.31 620.29 414.7 620.7 415.28 619.74 417.93 619.33 420.57 619.6 423.37 621.39 426.6 621.12 428.36 620.57 429.54 620.7 431.3 622.08 433.51 620.98 434.68 616.85 434.09 615.33 432.48 616.71 431.01 616.85 428.95 615.75 428.95 613.54 429.54 610.38 428.07 607.48 426.16 602.8 424.1 602.39 422.63 602.25 420.13 601.28 417.78 598.81 415.58 597.01 413.08 598.53 411.17 601.01 409.7 603.76 408.23 606.66 407.64 608.72 406.47 610.51 406.02 611.06 405.73 609.69 404.41 610.38 403.53 613.4 403.67 615.75 404.56 616.85 406.02 617.67 407.2 618.78 407.35 620.7 407.05 621.81 405.88 621.53 403.82 622.36 403.53 623.46 404.12" style="fill:#efc441"/><polyline points="369.08 395.88 370.32 397.36 370.73 400.15 368.94 402.2 367.01 402.94 365.91 402.5 365.5 401.76 365.09 400.74 364.26 400 363.3 399.85 362.06 400.15 361.23 398.97 362.47 395.44 362.06 393.24 362.75 390.3 365.22 388.1 367.29 388.68 367.43 390.6 366.74 392.95 367.84 395.15 369.08 395.88" style="fill:#efc441"/><polyline points="356.13 213.95 358.89 216.6 361.64 219.1 367.15 222.62 367.43 216.89 371.97 217.48 372.94 222.04 377.48 224.39 385.06 225.27 385.75 228.65 379.96 229.97 372.39 233.35 366.19 236.29 360.4 237.03 354.48 233.65 355.17 229.38 359.3 226.3 354.48 225.12 346.63 226.44 340.43 223.06 339.06 220.13 344.43 219.39 350.35 218.8 352 213.66 356.13 213.95" style="fill:#efc441"/><polyline points="197.34 201.02 199.96 203.67 200.78 207.05 199.82 209.99 198.58 210.43 198.03 208.81 197.75 207.19 197.2 206.02 194.72 205.14 190.73 204.25 186.73 201.31 184.67 195.29 187.42 192.94 192.93 196.91 195.82 199.99 197.34 201.02" style="fill:#efc441"/><polyline points="92.25 140.62 93.49 141.8 93.63 143.27 92.12 143.71 89.36 142.97 82.75 140.18 80 139.59 78.21 139.01 78.07 137.54 79.72 136.07 80.96 134.89 80.69 133.57 79.31 130.78 79.44 128.28 82.2 129.01 84.82 131.36 87.71 134.89 88.67 136.51 89.36 138.42 89.91 139.3 92.25 140.62" style="fill:#efc441"/><polyline points="465.21 666.28 466.45 667.31 466.59 670.25 466.04 671.72 465.9 672.31 465.9 673.04 466.04 674.66 465.76 675.25 465.21 675.69 464.8 675.84 463.42 672.75 463.97 667.46 465.21 666.28" style="fill:#efc441"/><polyline points="491.38 526.97 496.34 529.03 495.93 529.62 488.35 531.53 487.8 532.11 484.36 533.29 482.84 534.61 479.67 534.17 476.51 532.55 477.19 530.79 479.4 529.62 491.38 526.97" style="fill:#efc441"/><polyline points="389.74 343.27 395.11 338.72 395.94 338.43 394.56 342.1 394.42 348.86 392.63 350.04 385.88 350.18 382.72 351.65 380.79 351.06 379.69 348.27 380.1 346.21 382.03 344.74 388.64 344.01 389.74 343.27" style="fill:#efc441"/><polyline points="170.34 305.65 172.27 307.56 172.27 308.89 171.45 310.36 169.52 312.27 167.31 313 166.49 312.27 165.94 311.24 165.66 310.06 166.49 308 166.63 298.6 165.8 296.84 164.97 295.81 164.28 294.19 164.7 292.72 165.94 293.16 168.28 296.4 168.55 297.87 168.55 299.33 169.52 304.33 170.34 305.65" style="fill:#efc441"/><polyline points="153.13 283.9 155.47 285.08 157.4 286.99 156.16 288.02 141.84 285.52 140.46 283.61 142.11 282.44 153.13 283.9" style="fill:#efc441"/><polyline points="124.76 177.95 132.88 175.89 135.64 176.63 132.47 178.39 127.37 180.15 120.35 181.33 115.39 181.77 117.46 180.3 124.76 177.95" style="fill:#efc441"/><polyline points="118.01 147.53 119.11 143.12 125.17 150.03 129.3 152.38 132.06 153.11 131.64 156.49 128.2 156.05 124.76 153.7 121.04 149.88 118.01 147.53" style="fill:#efc441"/><polyline points="68.01 133.27 69.81 134.74 70.49 136.36 69.81 137.24 67.05 136.95 63.88 135.19 61.54 132.54 57.55 130.92 56.17 129.6 54.79 129.6 53.55 129.01 53 127.25 52.86 125.05 53.83 124.16 56.17 125.05 60.72 128.72 61.95 130.04 68.01 133.27" style="fill:#efc441"/></svg>