<svg xmlns="http://www.w3.org/2000/svg" viewBox="0 0 800 800"><path d="M536.35,767.88l-10.1,1.31-10.1-7.52-16.22-19.26-40.71-30-19.28-21.55,2.14-18.61-11.93-11.11-13.78-17.31-10.1-18-1.53-13.39-1.83-3.59-4-11.1h8.87l-.91-2.62v-.65l-2.15-2L421.27,584l8-1,6.43,4.9-8.88,7.84-3.37,2L427.7,601l4.59,1.64,4.9.32,4.89-.65L420.35,618v4.58l39.79-3.92,11.63,12.41,27.54,3.26,9.8,8.17,1.22,9.79-4.89,5.88-7.35,1-5.81-3.92-5.51-5.55-7.65-2.61-6.74.65L469,652.27l8.56,2,5.21,6.21,3.67,6.86,4.29,4.9,4.28,1,9.79-1.95,4.29,1,4.59,4.24,1.84,4.9L514,685.26l-4.9,2.61v4.9l18.67,7.51-1.53,6.2-4,1.31-5.2-1-5.21.33L496.56,714l-7.65.65L478.81,712v5.55l4.9,1,4.59,2.61,3.36,4.57,2.15,6.86,4.89-8.16,8-2.94,17.75,1-.92,2.94-2.14,7.18,9.79,3.27,6.74,10.77,2.45,12.41Zm19-310.89-6.12,7.83-3.06,4.9,1.53,2.29.92,3.92-.92,20.9-2.14,2.61-3.37,4.9-4,5.22-4.59,2.29-3.06-2-29.07-47.68L495.34,457l-41-5.88-7-2.29-6.13-5.22-2.44-9.47-1.84-12.74-9.79-18-3.68-11.76,10.41,1.64,19,6.53,8.88,1.3,14.38-1.63,5.51,1.63,4,3.92,6.43,8.82,4.9,2.29L531.14,424l5.21,5.23,3.06,10.45,12.85,10.12ZM210.4,255.49l-11.94-7.83-8.57-17L189,216.31l10.71-1.64,15.91,12.74,5.51,2.61,3.37.33,10.4-.33,3.37-1.63,1.22-3.59.31-3.27L241,219.9l5.21-1.64,8-7.18,31.21-6.2v4.57h-2.75v5.22l17.14,9.47,5.81,1.31,4.9,2.28,7,12.09,4.59,5.22L333.43,248l11.63-.32,11,1.63L365,260.07l-5.51,9.47-4,9.47L350,286.84l-9.49,3.6-8-1.31-7.34-2.61-7.35-1-7.95,4.9,3.67,2.61,3.67,1.63,4,1h4.29l-26,10.12L291.81,311l3.67-8.16,2.14-2.62-3.06-10.12-5.2-9.14-6.43-4.25-6.42,3.59,3.67,2.29,5.51,5.22,4,6.21-.92,6.2-4.59,1-19.9-10.77-27.85-4.58-18-10.12-6.43-.65v-4.9h42.85L244.68,264l-11.33-4.57Zm72.23-55.84-4.29-4.25-1.53-2.93-.3-5.23.92-8.16,2.44-2,3.06-.33,2.45-2.29,2.76-10.12.3-7.51,1.84-5.23,7.34-2.93-8.56-10.78V122.25l5.5-29.06L297,96.78l2.15.65h2.14l2.45,1,30.6,5.56,15.3,7.18,6.43,10.12,5.51,18,21.73,33.31v17l15,3.92,25.4,17.3,22.65,5.56,4,4.57.3,6.2-2.75,7.84-4.29,5.55L437.8,245l-6.12,3.6-5.21,1.3,39.18-1.3,6.73,9.14,6.12,11.1,2.15,7.84L477,280.31H451v5.55l15.91,5.56,30-.66,12.24,9.47-4.59,9.15-3.68,12.08,1.23,10.45,14.69,6.86-.92,5.88-2.14,9.79,1.53,12.09-14.39,4.24-13.77-11.1-12.85-15.35-28.16-15-23.87-31.68-15.92-7.18-6.12-2-4.28-4.9-2.14-8.82L392.81,263l-2.76-6.85L383,249l-8.26-5.88-6.43-3.59-35.19-4.57-8-3.27-4.29-6.85.31-7.19,7-2.94-3.67-8.82-6.12,1-7.35,4.9-7.34,2.94L299.16,213l-12.55-9.14Zm74.68-88.5-3.68-4.57-5.2-3.92-4-4.25-.61-5.22L347.51,88l4.9,1,4.9,2.94,4.89,1.31,9.49-3.27,16.53-9.79,20.5-3.6,5.21,1.64,4.89,2.94,3.67,3.59,4.29,2.61,5.51,1,2.14,7.51-8,5.23-10.1,4.57-5.2,5.55.31,12.41,1.22,10.12,3.67,8.17,7,6.86-4.28-22.54,1.83-8.82,33.36-9.14,11,.65,7,9.8-3.67.65-8.26,4.58,34.89,4.57,4.28,3.59L496,139.56l-8.27,7.19-8.87,2v5.55l5.2,1.3,8.27,6.86,4.59,2,3.67-.65,8.57-3.92,4.59-1L538.18,166l19,10.13,1.22,4.9-5.81,2.61-11.33,1-26.93-2.94-8.26,2.94v4.9l54.78,22.86,16.22,13.06-23.26-2.61-23.26-8.17v5.23l9.8,1.63,9.18,5.55,15,12.41V245l-8.26-1-9.18,1-8.26,3.6-5.21,6.85,2.15,1.31,1.83,2.29,2.14,1v5.55L536,268.56l-1.84,3.26.31,3.59,1.84,4.9-16.22-8.81-4.59-15.35V237.53l-3.68-17.63-7.65-13.39-11.93-15-13.47-9.8-12.55,2.94,10.41,9.47,13.16,9.14,11.63,12.41,4.59,19.27-8,16L480,239.49l-35.19-34.61-18.06.65-4.9-3.27L419.13,199l-9.49-7.84-3.37-1.63-5.2-3.92-28.16-36.9ZM589,184.63,573.69,168l-5.21-11.1,2.15-12.74,3.06-4.57,1.83.65,1.23,2.62,1.53,1.3,3.67-1,.61-2.94V136.3l1.53-5.23.92-6.2-1.22-20.58-.92-5.88-5.51-15.35-3.67-13.71,2.14-10.78L589,52.37l-3.37,5.55L598.17,87l15.3,20.58,19,15,23.87,11.1-8.26,11.43L634,146.75l-14.39-4.9-9.48-8.17-3.06,5.55,16.83,18,8.57,5.87,8.57-4.24,1.22,13.06,1.84,4.25,3.06,3.59v4.9l-7.35,3.92-9.18,2-8.87-2L615,182l-12.24-20.25-7-5.55L589,158.83,598.48,184l4,7.84,1.83,5.23-3.06.32-4.28-2-4.59-3.26-1.23-2.29-.61-2.61ZM131.74,246l6.12,4.57,4.29,2-4.29,1.31-5.5.65L95.63,251.9l-1.53-5.22L106,241.12l13.17-.65ZM685.4,98.09l13.46.32,7,3.6-.61,4.89-12.85,10.45,2.75,7.84v6.86l-1.84,4.57-4.28,3.92-5.82,2.61-7,2-7.34-1-5.2-7.51-4.59-9.79-1.84-8.17,5.51-5.88,7.34-2.61ZM567.56,111.48l1.84,6.2.61,10.78-6.73,4.24-9.49-3.59-9.18-10.45-4.28-6.86L528.08,88.62l-4.89-17.31L524.72,55l7.34-5.88,7.35,5.55,4,10.78,19.28,34.94Zm-31.21,19.26,3.06,2.94,4,8.17-1.84,7.51L534.82,151l-8.27-3.59-6.42-8.17-3.37-11.75-4.59-11.1-3.06-4.58L500.23,101,488.3,83.39l-3.06-5.88-8-18.94-.92-10.12L481,45.18l6.12,4.25,5.82,8.49,12.55,24.82ZM646.22,86.33l3.37,2.94,3.06,7.51-2.14,6.53-2.76,4.9-8,2.94-14.38-4.25L612.25,96.78,601.54,82.09,594.8,69.68l-4.28-19L585,46.16l-4.28-9.47,5.81-5.88,10.71,2.62,6.43,5.87L608,48.45l3.37,11.1,5.51,7.84,6.43,7.18L626,81.11l-.3,4.89,2.75,4.9,4.59-1L638,85l5.51-.32Z" style="fill:#efc441"/></svg>