<svg xmlns="http://www.w3.org/2000/svg" viewBox="0 0 800 800"><path d="M543.05,106.88l-5,3.34-5,1.29-10.79,5.32-1.92.12.11,1.44.57.77.75.37,8.44-.46,3.47.52,3,2.29-2.27,5.88-1.29,2.51-10.73,14.45-.52,1,0,1.14.58,1.86.83,2.21,7.66,20,1.12,1.62,1.55.8,12,3.49,12,3.52,1.35.7,1.23,1.23,3.44,5,1.61,2.36,7.15,10.5,2.61,2.39,12.39,8.14-.89,1-.43.77-.17,1-.37,4.93-.2,1-1.12,3.42-.72,1.41-16.61,16-.49.74-.46,1.38-.29.55-.4.46-2.15,1.8-13.8,18.25h0l-2,6.28,1.58,5.29,9.75,11.82,1.7,4,.05.15,1.21,1.44.11.65.06.73.2.8.35.58,4.82,5.75.4,1.29.49,3.15.23,1.41.77,2.6,1,2.39,2.41,4.32,5.94,8,3.47,3.49,1.06,1.9.83,2.94,1.21,5.72.4,1.29,1.63,3.12.52,1.16,1.23,3.71,1.5,3.15.34,1.35,1.21,6.83.17,1.8-.09,1.6-.66.67-1.4-.4L587,361.12l-10,2.2-2.58,1.38,1.23,1.53L578.8,368l1.35,1.47-.55.95-3.36,3-.6,1-.2.4v0l-.34,2.73.51,6.49-.43,2.66-4.42,4.35-1.46,2.48,2,1.47,5.88-.15,2.79.91.26,2.76-.41.61-.48.46-.38.52,0,.71.51.64.75.12.51.25-.2,1-1.06,1L573,405l-1.69,1.13-1.2,2-.43,3.13,1.89,6.12,2.72,4.93,3.42,3.15,4.1.77,7.75.06,1.63.64.72.52.06.46-.23.55-.14.71-.09.91-.11.43.11.4.46.83.46.55,1.66,1.41.72,1.41-.29,1.4-.86,1.2-1,.76-7.17,2.67-.29.27-.17.43.17.22.29.09.11.12.09,1.26.14.67.29.67-.06.22,0,.18,0,.21.06.19.46.18.08.19-.14.45,1.92.92,1.44,1.41-.32,1.69-.92,1.83-.34,1.87.86,1.35,1.66,1.22,3,1.38,6.58,1.74,2.06,1.23,1.21,1.25.91,1.32,1,1,2.41.49,1.37.67.92,1.08-.34,1.47-.75,1.4,0,1.2.49,1.16.75,1.35,1,3.06-.26,2.42L610,481.13l-1.8,2.17-7.58,6.8L598,494.76l-2.67,2.69L589,499.53l-2.21,1.16-.74.4L587,503l10.13,9.46,5.76,3.52,2.56,2.88.83,1.32,1.15.76L621.32,527l6.46,6.1,8.49,4.5,1.09.89.92,1.16.31,1.44,0,1.31.29,1.5.43,1.41.49,1.07,1.09,1.11,2.64,1.59,1.2,1,2.7,3.24,1,.74.51.37,1.06,1.25.58,1.75.69,1.68,1.4.95L649,565.63l-1.63,2.63L646,571.2l-2,6.65-.69,1.53-1.84,2.32-.8,1.63-1,3.33-.69,1.5-.89.8h0v0l-2.21,1.07-.66.61-.49.74-.78,1.53-6,5.27-.58.73-1.06,2.33-.66.86-.77.64-4.77,2.78-3.76,2.94-1.6.74-.75.49-.54.61-1.18,2.27-5.28,5.75-5.91,5.27h0L593,633.35l-7,8.39-5.68,4.69-.86,1.07-1,2.39-.78,1.13-6,5.63-1.29.8-2.7,1-1,.67-.74,1.1-.78,1.66-.75,1.44-6,5.14L557.11,670l-.52.8-.6.94-2.5,3-3,2.23-6.25,3.09-2.3,1.35-3,2.42-2.41,1.07-.69.67-1.29,1.75-2.59,2.3-.77,1-.69,1.4-1.66,2-3.68.8L523.22,696l-6.08,5-3.85,4.6-4,2.29-6.06,6.34-.94,1-3.71,3.06L495,721.74l-.69-.61-.58-.8-.66-.43-.94.4.14.22.29.52.14.24-.72.28-.11.76.31.92.52.8-.63.36-.23.1.57.36.29.07-1.46,1.16-.55.21-2.87-.46.38-.76,1.29-.52.63-.52-1.67-.25-.83.06-.66.65-.34.82.11.52.35.55.46.86-1.58-.43-3.5-2.45-1.52.56.4.09.17.15.29.67-.26.19-.37.52-.23.24.46.25.4.27.31.37.26.49-2.09-.43-3.68-2.29-1.83-.52-3.22-.16-.68-.27-.06-1,1.09-.22,2.15.25-1-.74L470,721.28l.66-1.35-.54-.36-.95.36-.6.83.26,1,.57,1,.15.92-1,.77-.06-.89-.26-.25-.83.22-.51-.22-.58-1-.49-.24-.28.21-.4,1-.32.25-.4-.22-.66-1-.37-.27-.38.09-.49.25-.4.39v.46l.12.65-.26.36-.37.34-.58,1.44-.89.31-1.89-.13,1,1.07.41.74-.12.76-.34-.15L458,727.53l-.4-.52-3.84,1.13-1.24,0,.32-.43.23-.46.34-1-.74-.06-.86.22-.81.42-.63.59-.14.49.08,1.13-.08.46-.29.27-.89.49-.37.4-.6.09-.75-.67-.77-.92-.64-.58-.8-.15-.95,0-.71.33-.12.71-.89.27-1.09-.46-1.06-.88-.8-1-.32-1.29.69-.73,1.09-.52.8-.68,1.12-1.87L443,722l-.14-1.54.14-.58.52-.7,1.89-1.23,1.76.22,3.61,2.17-.89-2.6-1.38-1.84-1.66-.79-1.84.58-1,1-1.61,2.48-3.67,5.66-.4,2.24,1.23,2.08-.66,1.1-.37.43-.4.31H437l-.29.3.35,1.07-.49-.12-.43-.3-.8-1,.05.79-.14.4-.32.15-.45,0-.49.22-.09.49,0,.46-.26.21-.77-.49-.57-1.1-.46-1.13-.38-.49-.48-.4-.69-.8-.69-.64h-.6l-.09.83.57.95,1.27,1.5-4-.59-.35.07-.83.76-.34.15-.35-.46-1.66-1.37-1.35-.62-.55-.33-1.49-1.69-1.37-.88-1.47-.59-1.2-.06v.49l2.29.89.43.46.89,1.16,1.06.49.32.59.11.67,0,.58-.31.37-.63-.06-.43.06.22.79.46.55,1.55.83.81,1.2.37.42.54.19.29.37-.08.79-.26.8-.38.36-2.15.46,0-1.53-1.75-2.17.35-.89-.52,0-.34.31-.32.37-.4.18-.49-.06-.34-.19-2.5-2-.89-.52-1.06-.33,1.49,1.62.89.7.78.4-.43,1.38-.95,1.41-.06.88.4,1,1.21,1.78.37,1.35-.89-.06-.6-.25-.52-.4-.57-.67.32-.46-.64-.76-.83-.25-.89-.09-.83-.28-1.26-1.41-.69-.45-.6.49.25,1.19,1.5.89,2.84,1.13L410,742v.43l-.78.33-1.12-.49-3.32-3.06-.26-.46.06-.91.31-.62.52-.3-.89-.46V736h2.29l-.6-1.44-.89-.12-1,.55-.71.58-1.12.61-3.19.77v.43l.63.3.21.71-.06.91-.2.92-.18.19-.28.09-.29.21-.23,1.14-.26.33-.34.22-5.91.06.08-1L392,741l-1.58-.37.11.31.15.79.06.31-1.3.37-3.87.06-.23.09-.08.24,0,.8,0,0-.21.31-.48-.16-.75-.42-.06.55,1.52.76.55.55-.4.22-.55,0,.66.67-.83.49-2.53.49-.94,0,.11-.49.09-.18.08-.28-1.77.89-.46.55.8.43-.26.4h-.66l-.66.58-.77-.22-.55-.76.55-.49.43-1,.2-1-.29-.77-.86-.12-.6.89-1,3.21-.43.56-3.56.21-.86-.25-.46-.79,1.53-.4-.09-1.22-1.09-1-1.49.27.86,1.87-.63.27-1.12.83-.55.28-2.18.24-1.38.4-.34.15-.26.31-.08.49.14.86-.2.27-.58,0-.28-.58-.15-.76-.17-.56-.49-.49-2.58-1.16-.6-.15-.23.21.49.74.69.46.57.18.26.34-.37.82-.55.49-.6.22-.52.33-.31.8,2.84-.92-.23.64-.38.46-.83.74.86.49v.43l-2.84,1.65-1.66,2-.81.61-.94.28-1.24.06.35-.92,1.2-2.17.46-.58-.74-.07-1.07.8-1.92,2-.31-1.16-.72.37-.86.88-.72.4.26-1.13.49-.49.57-.34.57-.61.12-.49,0-.58,0-.71.32-.76-2-.12-1,.24-.71.8.57.49-1.29.76-.37.12h-.58l-1.46-.45-1.15-.13-.74.34,0,.58,1,.61-.78.4-.68-.18-.66-.4-.72-.28-.37,0-1.58.73-.43,0-.49-.34-.78,1.08-.77-.1-.29-.67.69-.77v-.49l-.77.1-.43.43-.35.64-.49.7-.63.55-.63.28-2.81.4-3.1,2.45-1.17-.77-6.86.77-.55-.31-.46-.8-.43-.3H317l-2.79.64-1.78.74-1,0,.46-1,1.8-2.64.61-.55,1.2-.3.58-.34.08-.46-.29-.61-.05-.58.11-.62.38-.73-1.53.43-.48.27-.35.52-.17.71-.29.58-.63.27-.43.28-.17.7-.14.83-.26.71-.4.39-.95.55-.37.43-1.44,1.93L307.16,764l-3.73,1.69-.63.79v1.23l.46,1,.75.27v.46l-7.15.95-.51.4-2.58-.37-.95.18-.8.34-2.5.49-.72-.12.75-.43,1.06-1.56.63-.34,1.69-.27,5.89-2.3,1.72-.15-.29-1.44.2-.49.46,0,.52.12,1.37-.06,1-.4.91-.92,1-1.5.66-1.4.71-2,.26-1.38-.69.49-2.78,5-1.09,1.22H302l.06-.21.08-.43.12-.25-.43-.33-.46-.13-.46.1-.4.36.11.46-1.63-.43-.46.62-.15.67-.28,0-.29-.43-.14-.73.43-2,0-.25.68-.61,3.19-1,.6-.73,1-1.66.69-.43-2.21-.67-4.16.71-2,0-1-.33-.92-.46-.69-.71-.25-1,.25-.82.66-.8,1.38-1.32-.86-.91-.23.42-.46,1.14-.17.3-.35.25-.77.34-.34.27-.06-1.1-.4-.71-.69-.39-1.44-.31-.89-.86-.51-.33.43-.68,0-.64-.26-.55-.52-.4,2.3-3.18.89-.95,2.69-2.15.75-1.07.26-.64.29-1.1.31-.55,1.12-.77.43-.49-.09-.61-.86-.15-1.09.88-1,1.35-.55,1.16-2.38-.64-2.67,1-5.91,4.23-5.25,1.22-2.41,1-1.2.06.63-.64,2.23-1.22-.83-.19-.05-.52.77-1.32.43-.39,2-.71-2.07.19-1,.33-2,1.26-1,.34-2.27.12.34-.49.06-.43v-.4l.17-.52.26-.31.75-.52.92-1.1,1.32-1.19.23-1,2.12-2,1.29-.8.17-.95-.31-.64-1.81,1.56-1.58.25-3.36-.22.86-1.77-6.6,1.31-1.46,0-.46-.24L262,731.72,259.16,730l-.83-.28-1.87-.15-.22-.49-.15-.86-.29-.34-.77,1-.75.71-.74-.15-1.21-1.26,0-.15,0-.61v-.16l-.2,0-.49.09-.17-.06-.37-.27-.29-.1-.11-.27.2-.77h-2l.17-.49.26-.85.2-.46-.77-.4-1.21-.28-1.23-.06-.86.28-.4.67.2.8,1.06,1.74-1.89-.49-.95-.06-.86.55.17-1.16.57-2,.09-1.47v-1l.11-.92.49-.64,1.09-.19-.51-.58-.2-.67.08-.71.4-.79-2.78,1.68-.83.86-.92.64-2.24.34-.72.61,0,.55.37,1-.17.61-.26.4-.14.28,0,.43,0,.73-.52.89-1.23.46-1.35.06-.92-.28,1.06-.88-.57-1.44-2.18-2.76.66,0,1.89.55v-.52l-1-.3L230,720.3l-1.32.43-.52,0-.34-.15-.66-.58-.43-.16v-.49l.28,0,.18-.09.37-.3-.57-1,1.29.39.71,0,.32-.42-2-1.38-.89-.37-.86-.86-.69-1.07-.4-1,0-.33.06-.1,0-.09-.12-.4,3,.74.55-.06.29-.86-.2-.67-.44-.68-.37-.79h2v-.43l-.89-.06-.92-.31-.86-.46-.8-.61.69-.4.34-.09.43,0-.92-1-.51-.31-.58,0,.29-.95-.29-.94-.54-.59-.6.22-.32-.28-.26-.3-.17-.4-.12-.49.44-.68-.75-1.34.57-.25,2.1.34,1.06-.09.86-.77-.46-.3-.49-.13h-1l-.32-.15-.83-1.22.43-.16.75-.67.37-.15.37.18.35.4.34.33.52.07-.26-.71-.17-.76-.23-.65-.34-.24-.49-.12-.2-.31-.09-.46-.23-.49-1.86-3.18-.72-.52.6-.8.26-.18-1.15-.74-.4-.58-.14-1,.89,0,1.86,1.07.95.31.92-.22,0-.33,0-.19-.69-.49-1-.12,1.17-.64,2.47,1,1.18-.34-.58-.46-.57-.79-.17-.86.51-.71L228.6,683l-.25-.67-.46-.52.43,0,1-.43H229l-.28-.06-.26-.13-.29-.24.58-1h-.58l.55-.4.66-.15,1.35.06-.2-.67-.09-.28,1.26-.58,1.32-.31-.63-1.41-.8-.64-2-.76.4-.71.57-.33.38-.4-.2-.89h1.72v-.52l-.12-.37.12-1.22v-.71l-.12-.39-.31-.19-.15-.34,0-.39.05-.65,0-.36-.28-1.38-.23-.43-.63-.52-.58-.28-1.15-.36-.57-.28,1.23-.61,2.67.21,1.29-.55-.63-1-.63-.73L231,660.26l-2.87-1.16-.83-.7,5.6.7,1.55-.7-.89-2-.23-.37-.63-.15-1.12.3-.58-.15-1.69-1.87-.34-.76-.06-.31.26-.15.66-.22,1.09-.15,4.82,1.65,2.67,1.47,1.23.34v-.52l-2.87-2.27-1.41-1.74-.94-2.91-.78-.52-.86-.37-.63-.61-.06-.55.32-1-.12-.52-1-1.72v-.42l.77.21,1.44.92.63-.19-1.09-1.07-3-1.62-.8-1.56.12-.86.4-.92.28-1-.11-.82-.57-.4-.72-.21-.46-.43.17-1-1.26-1.44-.66-1-.37-.89.4-.25.34-.49.09-.45-.86-.43-.18-.55-.08-.65-.29-.52-.37-.09-1.92.09-.38-.09-.17,0-.95-.64-.51-.19L222,625l-.6-.59-1.83-.36,1.66-4.5.34-1.72.21-3.21.28-.62.69,1.47.69-2,.14-1-.26-.76.61-.86,1.29-.73.52-.55.25-1-.37-.68-1.15-1,.86-2.42-.91.07-.52.76-.43,1-.72.64.14-1.13.52-2,.2-1.16,0-3.25.23-1-2.27.74-.6-.28-.34-.7-.09-.89.2-.92.52-.77-.29-1-2.75,3.55-.12.74.58,1-.92-.15-.18-1.08.21-1.4.31-1.23-.23-.06-.4-.27-.26-.07.35-.82.23-.34.31-.31-.69-.42-.8.15-.8.52-.58.7-.11-.88.74-2.12.23-1.25-.71.49-.55.21-.34-.37-.12-1.25.09-1.23.37-1,.57-.76.69-.46-.23-.55-.91-1.32.83-.58.86-.92.86-.64.89.21-.66-1.31-3-.58-.64-.95-.51.24-.46.46-.75,1.19.12-1.71.63-2.72L213,576l.83-.18,1.12-.65,1-1,.46-1.07,0-.76-.17-.1-.29.1-.34-.19-.75-.76-.26-.4-.37-1.23.23-1,.66-.67.92-.24.83.67.52.15.23-.58.14-.15.75-1,.26-.52.25-1.14,0-1,.17-.91.69-.77,1,0,2.87,1,.89-.28.31-.42.78-.65.31-.4.2-.49.17-.91.41-.92.46-1.47.08-.49.23-.15,1.49-.53-.69-2.51-.17-1.25v-1.56l0-.49,0-.25.14-.21.52-.49.46,0,.34.37h.2l.09-1.08.54-1,1.18.56,1.75,1.62,1.26.4,1.29.79,1.29.4,1.32-.64-1.78-2-2.81-2-.8-.8-.26-.95.8-1-.51.28-.6.12-.58-.12-.49-.52-.17-.74.06-.73-.09-.52-.51-.16.28-.76.49-.28,1.26.09V541l-1.63-.49-.52-.52-.17-1.16.34-.61.81-.55.86-.4.57-.12,2.41,2,1.32.46.86-1.56.86.67,1.12.55,1.15.18.92-.42-.63-.37-1.32-.31-.63-.3v-.43l1.72-1,.6-.16,1.69.16.95-.31,2-1.13,1-.06-.4,1.07-.09.67.37,2.76-.05.58-.4.73,1,.19,3.3,2.26-.49-1.53-.69-1.41,1.18-.45.43-.37.43-.64.23-.71.11-.61.15-.52.37-.52.75-.46.46.34.31.61.46.46h.63l1.12-.74.55-.21.51.09.83.43.66-.06.23-.19,0-.33v-.31l0-.15h.23l.32.18.28.18.06.16,1.75-2,.89-1.29.52-1.13h.28l1,1.81.95-.59.92-1.53.88-1.1-.4-.4-.28-.52-.43-1.07-.55-.73-1.2-.92-2.1-2.36-.2-.37-.72,0-.63-.18-.52-.4-.43-.8-.2-1.89.95-.89,1.41.09,1.17,1,1.27,1.41,1.26.37,1.32.15,1.46.73-3.5-3-1.61-1.93-.34-1.83.4-.89.46-.25,1.15.16.74.3v.68l-.25.79.08.65,1,.39,1,.16.69.61-.09,1.75.55-.34.66-.8.52-.33v-.46l-.32-.65.14-.61.29-.67.17-.77.12,0,.74-2.6.41-.49.45-.37.41-.46.17-.89.26-.09,1.78.86-.35-.89-1.69-2.51.72-.92.31-.33.43-.25-.11-.49-.09-.21-.11-.25,1.77.31.78-.28.31-1.22-.08-1.41-.09-.64.2-.06.81.33.6.86.4.31.17-.4.15-.71.4-.36.46-.1.43.19.63.61.49.74.2.85-.17,1,.43.55.89,1.57.25.33.64-.09.74-.24.72-.37.49-.52.34-.25.43,0,.37-.15.15-.58v-.52l0-.4.08-.34.2-.4.63-.67,1.32-.55.64-.74-.69-.49-2.21-1h2.9l-.84-1.13-.31-.3,1.09.45.6.07.46-.31.11-.4.06-.58,0-.52-.14-.21-.78-.37-.37-.77.17-.82.84-.49.86.09.48.52.78,1.59.72.67.43-.15.05-.73-.45-1,.14-.92v-.4l-.14-.64,2.38-1.87.63-.83.51-.3,2,.55.45-.22.41-.42.46-.34-.09-.12-.4-.31v-.46L300,491l.52-.25,1.26-.24,3.24.12,1.32-.4.83-1.19,1,.89.92-.16L310,489l.91-1-1.32-.95-.57-.61v-.67l.34-.92-.08-.71-.26-.61-.14-.7.11-.43.49-3.19.6-.58h.8l1.47.58.26.19.46.52.43.21.4-.06.4-.24.4-.16,1.35.68,2.75.3.66-.73-.6-1.66-1-1.68-.66-.86.31-.73L318,475l1.2.36.32-.27.95-1.26.48-.39.18-.95.8-.86,1-.8.09-.12.72-.73h-.29l.11-1.14.21-1,.48-.52.92.46.63.06,1.95-.86.61-.42.34-.68.8-2.26.86.12,1.81.83.78.55-.35-.83-.31-.92-.09-1,.14-1.16.52-1.07,1.26-1.35.55-1,.49-2.18.37-.64.86-.61,1.81-.58L339,453l-.18-1.19.52.09.49-.06.46-.27.4-.53.17.1,1.67-.83H344l.21-.28v-1.22l.05-.55.23-.43.49-.15,1.18.21.48-.3.26-.53.26-.91.2-.34.86-.52.81-.18.77-.43.72-1.29-.06-.49-.17-.67,0-.55.77-.52,0-.62L351,440l-.11-.12.31-1.47.29-.83,1.09-1.65.23-.55.17-.64.2-.55.26-.22.52-.18,1.23-1.29,1.69-.79.81-.55.66-1.14-.41-.76-.17-.28v-.43l.46-.79.57-.46,1.3-.74-1.58-1.1-.49-.64.75-.28.91.09L363,426l.4,0,.35-.4,0-.33-.46-.55-.15-.4.35-1.26.8-.33,1.75-.1.2-1.4,1.55-.77,5.17-.52,7.43-3.12.86-.19.74.31.41.67.34.83.55.67.34,0,.29-.21.34-.12.46.3.11.31.18,1,.14.37.63.82.63.59.75.3,1,.09v.46h-.4l-.34.09-.69.4,1.43.46,4-.95.32-.27-.49-1.35.06-.64.63-2.27.06-.49-.38-.89-.49,0-.54.34-.57.15-.64-.3-1.09-1-1.63-.49-.75-.71-1.35-2,.2-.21.43-.58.23-.22-.31-.43.72-.3,4.21.52.78.46,1.49,1.25,1,.58.94.22.69-.31.23-1-.31-1-.49-.64-.32-.7.26-1.17-.29-.37-.14-.33,0-.37.11-.4-1-.92-.52-.61-.2-.7-.06-.77-.2-.61-.26-.46-.34-.4-1.32-1-4.71-1,.29-1.59.32-.8,1.4-1.13.55-.61.43-.8.11-1-.23-1.1.52.06.52,0,.48-.18.46-.37-.28-.09-.52-.34-.34-.06.37-1.13.2-.37-.69-.37-.34-.12h-.38l.61-.73.57-2.27.55-1-.15-.21-.29-.56-.17-.21.4-.12.26-.16.52-.73-2.87-2.48.57-.28,1.12,0,.61-.24.37-.4.69-1.1.37-.46-.46-1.23.6-2.69-.28-1.38-1.18-1.65-1.26-1.35L386.5,370l-.92-.4-1.15,0-1,.24-.92-.15-1-1.16-.2-.62-.14-.49-.06-.21-.25-.77-.49-.67-.55-.21-1.06.21-.54-.49-.75-.43-2,.31-.83-.09-.55-.49-.74-1.14-.46-.39-1.52-.56-1.67-.24-1.63.18-1.47.62-1.09,1-.51.33-.83.13-.49-.31-.2-.67,0-2.85-.09-.55-.34-.31-2.64-1-.55-.55-.69-1-.51-1.07-.2-1.35.43-1.9.63-1.41,2.35-3.85.58-1.41.34-.43.69-.46,1.15-.21.43-.34.11-.95-.66.58-2.21.92-.31.06-.38,0-.31.15-.12.59v.76l0,.34-.11.15-1,.74-1.84,3.33-1,.95-1,.09-.86-.15h-.86l-.94.58-.12.22-.06.33-.14.37-.32.37-.45.18-2-.73-1.24-1.38-.46-.34-1.63-.52-1.67-1,.43,1,.12,1.1-.29.92-.83.49-.78-.27-.74-.86-.63-1-.43-.86v-.52l0-1.31-1.64-2.09-.92-2.94-1.12-1.43-.89-1.47.09-1.63-.06-1.13-1.06-3.67-.43-1-.43-.49-1-.8-.43-.49-.38-.64-2.26-5-.95-.92-4.33-1.16-1.49-1-1.09-1.26-1.47-3.73-.34-1.93-.63-1.69-.15-.82.09-.74.34-.95.15-.79,0-1-.23-1.35-.06-1-.17-.77-.81-1.37-.17-.92.4-1.69,1-1.13,1.23-.67,1-.31V300l1-.65,1.29-.49.86-.73.06-.83,2.23-1.13.89-.67.4-1.17.06-1.28-.17-1.35-.29-1.32.4-1.19.32-1.41.17-1.47,0-1.56-.46-2.76,0-.55,1.35-1.65.6-1.35.92-.18,1,0,.63-.24.2-.68-.11-.52-1.7-3.73-1.14-2-.89-1.11-1.64-1.59-2.38-3.83-1-1-1.27-.39-.74-.52-1-1.2L322.14,259l-.28-.67-.18-.55-.08-.65,0-1-.14-.82-.35-.46-.43-.34L319.5,253l-.92-.83-.74-1-.29-1.5.52-.58.46-.73.4-.83.34-.95-.77-.3-.23-.56.14-1.43.35-1.23.8-.64,4.76-1.59,1.15-1.26.95-2.36-1.44-.67v-1.75l.49-2.14.09-1.71-.52-.55-.92-.31-2.87-.37-2.84-1.31-1.72.12L315,229l-1.55.06-1.41-1.28-.52-1.87.52-1.47.95-1.35.77-1.56-.46-.92,1.09-.86,1.5-.82.77-.77-.14-1.8-.32-1.2-1-2-.35-1.25-.46-3L314,207.7l-.18-.95v-4.5l-.2-1.59-.11-1.87.17-1.81.75-1.31,1.4-.86,3-.76,1.37-.8,1-1.47.05-1.38-.8-1-2.93-.76-3.73-3.28-1.14-.64-3.1-2.08-.35-.65-.14-.67-1.69-4.56-.49-.8-.55-.58-1.43.06-3.56,1.75h-.92l-.28-.4-.18-.06-.11-.16-.09-.7v-.43l.2-.67.23-1.93-.05-.61-.38-.58.23-1.81-.63-1.29-1.89-1.65-.58-.73-.2-.68-.11-.61-.29-.64-.63-.62-6.2-3-1.2-1.13-1.75-2.6-1.07-.8-2.49.74-1.24-1-1.2-1.38-1.18-.83h-.8l-.72.19H277l-1.78-.86-1.84-.15-2.69-1.08-3.3-.18-.18-.15,0-.77-.17-.18-2.84-.58-9.67-.09-1.43-.86-.06-.37,0-.55-.06-.49-.32-.25-.17-.06-.52-.46-.57-.73-1.2-1.16-.23-.49-1.9-1.66-7.63-1.53-.83-2.42-2.33-1.13L233.65,135l-3.21-.61-1.35-.89-.51-.77-1.27-2.42-.26-.85-.37-.8-.86-.4h-3l-.38-.15-.2-.25-.28-.7-.23-.15-.55-.49-2.47-3.19-2.66-1.93-3.39-2.17-7-2-.89-1,.11-1.59,1.27-.46.68-1.25,0-1.41-1-1.07-2-.43-2.87-2-5.05-.55-2.18-1.41,3.9-4.9,1.18-.46,12.08,5,1.63.34,1.15-.55,2.41-3.46-5.14-7.35,1.24-2.66.69-1.2.77-.73,9-4.08,13.63,1.57,1,.64,11.88,15.52,3.21,4.23,5.77,4.37.58,1,.6,2,.49.8,3.21,4,3.36,1.93.6.79L268.2,130l.52,1.47.83.24,4.79-1.25,1.12-.07,1.12.19,10.7,3.79,7-.85,2.21.46,1.09.82,3.24,3.77.95.31,11.91-5.27,6.71-.74,3.9-1.59,1.38-3.15.81-3.43,2.75-1.32,3.18,0,8.5,3.13,1.35,1.68,1,.8,6.11,2.78,6.23,1.53,7.63,1.81,3.82,2.17,3.15,3.4,1.32,2.39.78.67,1.06-.15.92-1,.49-1.41.57-1.28,1.23-.8,1.07,0,2.69-1.29,1.12-.18.83-.31.61-.79.51-1.56-.51-.68,0-.49.26-.43.18-.58.08-3.64.2-1.71.55-1.57,1.6-2.2,7.81-4.84,1.95-.7,2-.31,5.08,1.23,1.06-.19,1-.7.61-1.1.51-1.2.69-1,1.32-1.31.46-.8.23-1,.46-1,1.78-1.16.37-1-.17-.56-.35-.39-.8-.55-.31-.43-.06-.34.06-.34,0-.3-.63-1.26,0-.49.31-.76.09-.52.06-2.61.08-.33.17-.28.15-.37.06-.61-.15-.55L409,96.5l-.2-.46L408.08,94l.14-2.11,1.55-6.37.52-1.07,3.81-4.59-.2-.64-1.32-3.07,1-1.83.49-.49.38-.65,0-1.89.25-.92.61-.86-.2-.58-.46-.46-.17-.49.57-.89,2.52-1.31,1.09-1.32.75-1.72,0-1.89-1-1.78-.69-.73-.12-.8.29-.83.54-1,1-1.13,1.15-.58,6.25-1.16.72-.34.52-.58.51-.74,1.9-2.08,2-2.94L436.8,43l1.2-1.63-.48-1.44.4-.61,1.49-1.41.8-1.5,1.41-.55,7.26-.79,2.7.55,3.9-.8,1.29.31,2.32,1.13,1.27-.24,1.11.06,3.07,1.56.81.09,8.86-2.2L475.94,34l-.32-.19-.6-.52-.32-.18.46-.71.63-.21.66,0,.66-.22,2.7-2.32,5-1.63.32-1.37,1.75-1.69,2.18-.52,5.34.77,3.12-1.32,1.29.37L500,25.6l2.27,3.49,7.8,9.21L511,39l8,2.38L519,44,520,45.62l1.57.86,1.61.46,13.63,4.44,13.63,4.43.66.83,2.35,6.19,5.94,9.61-4.85,6.92L539.32,92l-.52,1-.34,1.75-.72,5.85,0,1.25.49.83ZM268.69,755.33l-.29-1.53.43-.65.78.25.8,1v2.48l-.06,1.13-.23,1h-.28l-.43-.64-.66-.15-.64.27-.28.71-.2.15-.49-.83-.49-1.07-.29-.77-.14-1,0-1.07.26-.82.66-.34.49.43.06.82.14.71Zm-38.22-5.51,1.38-1.63,1.75-.73,1.8.09,1.67.89-.29.7-.4.43-1,.64.71.07.29.3-.08.52-.38.58-.54.34-.58,0-1.14-.31-.43,0-1.15.37-.43.25-.4,0-.44-.4-.45-.46-.46-.34.71-.39.81-.13,1.66.09-.4-.79-.66-.25Zm10.36-3.71,2.35-.43h2.24l1.43.89v.49l-.46,0-.46,0-.43.15-.4.25.29.21.63.77h-3.18l1.43.4-.37.27-.4.22-.46.06.2.12.17.31-.92.79-1.32.55-1.32.1-1-.53.37-.36.09-.19-.17-.82.6-.43.23-.09v-.4l-.72-.34.12-.73.63-.8Zm-16.36-1.38.63.95,1.09.4,2.27,0v.46l-1.66-.06-.63.4-.29,1.07h-.29l-.34-.52-.63-.28-1.32-.12-.64-.21-.4-.43-.46-.34-.8,0,.6-.89.89-.39Zm29.56,0,.57.95-2.55,1.78.25.21.58.58.29.19L252,749.66l-1.32.13-1.15-.89-.63-1.84.63-.34,2-.61,1.21-1,.63-.37Zm157.4.22.35-.58.77-.16,1.5.1-.55.88-.46.31-.69.24-.63-.09Zm-151.09.24.54-1.31,1-1.29,1.06-.67.86.52L264,744l-1.15,1.71-1.55.74ZM403.4,742.9l-1.26-.28-.92-1-.23-1.35.72-1.22.69.37,3.61,3.06-.31.46-.72.27-.69.4-.4.67.08,1-1-.49-.34-.27.2-.46Zm-116.46-.22.91-1.59,1.07-1.35,1.23-.76,1.52.24-.31,1.53-.78.89-1,.64-.92.83-.32.64-.17.68-.26.55-1.15.43-.25.52,0,.73.26.8-.28.06-.2.15-.18.19-.23.12.26.06.63.4-.2.64-.11.28.6,2.08-1.43,1.93-3.48,2.39v.45l.41,0,.25.1.52.42-.43.4-.55,1.2-.2.24-1-.15-.46.12-.51.52-.55-1.25-.6-1.08-.38.71-1.34,1.35-.23.09-.12.27,0,.77h-.26l.09-.92-.15-.64-.31-.22-.52.43-.17-.82.26-.49.37-.56.14-.91-.48.52-1.49,1.19-.66.83-1.84.43-.69.3,0-1.74.09-.8.26-.73-.26-.83.08-.83.12-.73-.12-.58-.48-.46-1.12-.49-.55-.68.89-.24,1.55-.92.86-.18h4.16v-.46l-7.75-.52.46-1.44.32-1.9.6-1.47,1.24-.21-.92,1.65-.2.76.66.34,4.19-.64,1.49-.89.77-.31,8.15-1.07ZM256,737.85l1.07-.13L262,738l3,1,.75.73-.09.8-.23.34-.8.24-.31-.06-.32-.28-.32-.15-.34.28-.17.18-.52.4-.17.09-1.92.4-.61-.09.66-.77-.54-.7-.95-.34-1,0-.69.21h1.72l-.77,1.29-1.12-.22-1.12-.58-.86.16-.4,0-.15-1,.32-1.2Zm11.8-.49-.75.42-.8.07-1.61-.49.72-1.11.86-.7,1-.37,1-.12.14.12v.31l0,.3,0,.19,1.15.49.63.06.57-.06.49.18.35.71-1,.79-1.2.67-1.3.4H267l.28-.4.23-.48Zm-16.36-.89-.74.36-.81.07-.83-.13-.8-.3-.12.09-.23.21-.23.19-.28,0,0-.16.06-.64,0-.15-.92-.65-.46-.21-1.29-.21-1-.46-.83-.65-.37-.79.28-.77.69-.55.84-.3h.71v-.46l-2-1.84.15-.86.25-.67.41-.37.6.06.69.49,1.83,1,.38.61.14.59.34.33.43.19.38,0,.77,1.44v.39l-1.23-.33-.6-.06-.52.39.57.37,1.21.52.57.49-.34.49,1.38-.09.57.24.37.74-1,.49H250l.66.34.37.09h.4Zm-11.39-9.92-.46.73-.6.74-.52.3-.28-.64.4-1.29,1-1.65,1.15-1.22.95.06-.17.92-.41.7Zm-17,0-.81-.43L220.8,726l-.66-.55.43-1.44-.32-.8-.6-.7-.4-1.2h.89l1.18,1.17,1.12,1.59.11.61.72,1.87Zm3.13-5.27.71,1.13,2.13.25.86.92-.2,0-.12.06-.17,0-.32-.12-.2.64-.08.64.05.56.23.42-.69-.09-.54.31-.12.52.49.67-1-.43-1.06-.82-.89-1.26-.46-1.68-.57.7-.46.25-.29-.4-.12-1.23.32-.94.8-.31Zm-4-.52-.75.06-.31-.43-.15-.58-.23-.43-.83-.18-.49-.21-.43-.52-.37-1,.23-.43,1-.4.26-.46.14-.55.26-.28.49.31,0,.58.14.52.26.46.43.34-.34,1-.2,1,.14.7.72.09Zm-1.44-21.28h-1.37l-.64-.12-.6-.37,1.06-.7,2.07.73.92-.45-.15-.28-.05-.21-.06-.22-.06-.27.26-.16.37-.46.26-.24-1.23-1.35-.78-.46-.89-.09,1.12-1.16.63-.28.84,0,.71,1,.63.65,1.55,1.1-.8.73-.69.22-.46.43-.06,1.4-.34.62-.86.09-.92-.28Zm6.6-163.36-.29.92,0,.91.2.83.37.74-1,.39-1.12.19-.58-.25.69-.85-.74,0-3,2v.49l.29.07.86.36-.72.62-.74.3-1.7.09-.51-.55-.49-.79-.52-.95-.77-.58-.55.21-.57.46-.6,0-.58-1.13h.86V539l-.54-.34-1.18-1.2-.43-.61-.29-.67-.6-2.24-.11-.73,1.72,1.13,1.63-.15,1.7-.49h1.83v.43l-.69.21-.48.55-.86,1.75.14.55.06.09h0l-.17.31.63.3,2.29.13.32.18.31.27.29.13.34-.31.15-.52-.15-.4-.17-.37,0-.36,1-.89,1.67-.64,1.69,0ZM223,533.21l-.14-1.13-.41-.16-.54.28-.63.06-2-1.93.2-.31.2-.09.49-.06,1.12-.4,1.43-1,1.47-.58,1.17,1V530l-.66,1.26ZM377,406.67l1.69-.18,1.18,1-1.41.64-2.75,0-3.56-.76-2.41.15-.77,1.38-3.33,1.53,1.2,2,2.59-.25.63.46-.49.37-.46.06-.52-.06-.51.09-.37.22-.44.52-.37.24-.74.16-.89-.07-.52-.46.4-1.07-.17-.24-.37-.74-.58-.73L363,412.7l-1.12.31-1.43-1.78-.78-1.25-.37-1-.32-1,1-.89,2.87-2.26,3.61-.22,3.93-.82,2,.58.58,1-1,.49.43.46,1-.09,1.26.09Zm-45.19,354,.34.28L332,761l0,.55-.49.37-.54,0v.21l-.06.1-.34.12-.66.09-.61-.46-.23.06-.14-.15.29-.55.69-.65.91-.24Zm-43.07-6.3,1.27-.06.37.24-.29.46-.11.61-.26.52-.17.22-.26,0-.29.3-.4.92-.17.55-.32.34-.54-.37-.35-1.1.17-.89,1.18-.12v-.34l-.34-.21-.55,0-.29-.25.35-.46Zm2.93-2.88.17.43.06.52-.23.52-.46.27-.4.07-.2-.13.06-.27h-.23l-.55.33-.66.25-1.2,0-.38,0-.69-.06v-.25l.49-.4.32-.61.37-.61.29-.24.48-.37,1.07-.4.86.06.51.37Zm-40.49-1.29.35.13.51.36-.2.49-.83.25-.66,0-1.17-.15-.18-.19-.4-.55.23-.46.63-.27.49-.16.63.49ZM264.7,746l2.58-.83.46.58L267,747l-1,.55-1,.34,0,.24.57.43.17.37-.57.09h-1l-.43-.18.14-.16v-.27l-.06-.55.12-.4.2-.15,0-.22,0-.43.2-.43Zm-13.83-6.25-.29,0-.14-.06.26-.27.71-.46.49-.06-.08.33-.43.34Zm-1.12.25-.52.27h-.77l-.69-.18-.57-.67-.46,0-.4-1,.2-.37h.63l.57.06.69-.21,1.46,0,.58.18.06.46Zm14.38-5.79-.43.65-3.65,1-.46.09-.89-.16-.54-.52v-.43l.28-.21,3.85-.86,1.23-.06Zm-3.91-1,.06.46-4,1.53-.34-.09.74-1.16.66-.52.38-.1Zm-36.41-.06.61.86.2.82-.06.43-.12,0-.28-.15-.32,0-.2-.18v-.46l-.11-.15-.32-.1-.83.16L222,734l.06-.46.29-.43.2-.4.52-.12Zm220.65-4.25,1.78,1,.34.33-.11.37-.55.46-2.67.64-.6.52-.43,1.29h-.43l-.52-.46-.77-1.23.26-.52,2-.39.57-.34.26-.37v-.49l.17-.43.37-.33ZM252.68,530.79H253l1.15,1.41-.11.52-.49.89-.69.33-.66,0-.29-.21,0-.52-.14-.22-.29.16-.08.3,0,.34-.2.18-.23,0-.26-.21-.17-.49.14-.83.46-.82.57-.22.81.43.34-.06-.14-.37-.61-.49-.2-.3.23-.1h.23l.18.19Zm4.93,5-.31.06-2.15-.79-.26-.31.17-.31-.2-.27-.49-.34.09-.34.28-.15.32-.12.23-.49-.26-.67-.4-.59-.17-.43.4-.21.6-.09.72-.43.57.18.35,0,.34.28.34.46.41.34.23-.07.05-.33.2-.19.38.1.31.21.2.31.2.06.29-.22.23-.36.12-.52.2-.56.25-.39.21-.16.2.16.2.52.05.4.06.82.32.49-.06.31-.43.67-.49.92-.6.49-.89,0-1.29-1.07-1.75.33,0,.13,1,.21.84.37.2.73-.26.49-.35.06-.2.13Zm-7.83-5.66-.34-.16-.09-.27.09-.16.08-.27.2-.4.23-.31.2-.42.23-.37.29-.28.2-.3.14-.31.4-.49.78-.06.66.15.63-.3.6-.06.2.09.21.15.4.12.43,0,.28,0v.22l-.31.18-.4.06.05.22.21.49-.38.49-.72.15-1.34-.58-.61.15-.46.67-.2.4-.54.52-.75.58Zm35.66-31.72.64,0,.23.18-.15.25L286,499l-.06.18,0,.4-.17.46-.11.22-.12.45-.31.65-.38-.16-.46-.33-.2.24.12.52-.17.43-.49.09-.32.31-.71.15-.87-.43-.68-.7-.43-1-.23-.28-.18-.27-.05-.34.89-.43.37-.27.34-.4.72-.46,1.12-.43.75.09.34.46.26.43.17.12.2-.15ZM272.48,767l.48.09.12.19-.35.33-2.55,1.14-.69.15-.49-.24-.08-.56.34-.3h.23l.26-.06,1-.43,1-.09.32-.16Zm-37.65-25.23.63,0,.46.19-.2.64-.49.55-.17.43-.17.4-.4,0-.2,0-.41.06-.6-.31-.06-.91.38-1.08.66-.91.74,0,.09.55-.4.24Zm-14.29-40.35.32.16v.88l-.17.52-.55-.18-1.69-.83-.2.13-.12-.13-.06-.21-.23-.28-.37-.27.12-.28.71-.18.63.27.15.62.06.21.37-.12.29,0,.17.15.26-.06Zm6.8-22,.32.28.08.09-.34,0-1.44-.61-.83.33h-.71l-.23-.09.05,0,.06,0-.09-.25-.2-.58.18-.4.28-.09.17-.15,0-.18.25-.4.72-.4.46.31-.23.58.14.61Zm4.16-31.23.12.06.08.28-.17.24-.31,0L231,649l-.11.27-.29,0-.95-.21-.68-.37-.09-.21.46-.06.57-.71Zm-13.11-91-.72-.55-.34.28-.63.27-.89-.52-.46-.67,0-.31.23-.06.25.18.09.16.2-.28.17-.55-.25-.31-.52-.33-.37-.58-.06-.55.26-.43.37-.25H216l.14.25.2.15,1,.37.45.33.49.59.38.76.22,1,0,.7-.23.31Z" style="fill:#efc441"/><path d="M179.37,749.36l.83,1.37-.52,1.2-.69,1.16.38,1.32-.46.4-.32-.13-.28-.39-.41-.37-1.4-.64-.29-.28-.17-1.1.29-1.1.43-1,.31-.95.92,2,.57.76.23-.67-.43-1.38.09-.43Zm-26.74-5.3.14.52.75.7.28.4.15.43.08.43.06,1.19-.14.56-.32.09-.37-.06-.32.12-.6-.64-1-1.5-.74-.62.31,1.14.18,1.07-.15,1-.63,1-.83.33-.86-.3-.72-.92-.46-1.47-.08-.58-.06-.31.2-.27.52-.4.31-.49,0-.68-.06-.73.06-.67.23-.34.75-.8.31-.43.46-.33h.63l.63.21.81.71.29.42.14.59Zm33.05-3,.29.21.17.31.09.37v.49l-2,3.24-.52-.15v-.34l.2-.46,0-.42L184,744v-.74l-.2-.52-1.27.8-.31-.61.08-1,.49-.86.86-.28,1.32.71Zm16.38,2.27-1.2-.46-.37-1.66.25-1.53h.75l.43.37,1.26.7.32.31-.12.83-.48.43-.64.18-.51-.06Zm-25.56.49.54,1,.32.39-.46.19-.37,0-.38.09-.37.4-.23.43-.34.91-.15.22-.54.21-.32-.18-.26-.28-.45-.15h-1.75l-.35-.4.06-.92.29-1,.28-.67.86-.64,2.07-.16.69-.82-1.72,0-1.52.37-1.24,1.07-.72,2.2h-.28l.14-1.62-.54-.8-.69-.67-.35-1.26.55-1.1.86-1.44.17-1.13-1.58-.24v.45l.43.86-.37,1.2-.92.61-1.15-.77.18,1.17.6,1.31.8,1.1.72.53-.4.45-.26.56-.06.58.12.67-2.18-.76-.66-.62.23-.36.08-.22,0-.79-1.14.12-.55.3.12.71.51.76.58.68.63.49,1.2.39.4.46.29.49.26.22.43-.15.31-.37.32-.43.37-.43-.46,2.14-.11,1v.92l.17.25.26.15.29.25.11.52-.23.67h-.54l-1.06-.46-1.7.22-.71.49.11.91.29,1.11-.43.39-.43-.18.14-.64-.72-2.12-.57-.61-1,0-.54.34-.14.37-.09.36-.4.31-.58.12-.54,0-.37-.34.05-.67-.71-.37-.78.25-.63.64-.46.86-.63-1.84-1.58-2.94-.63-1.68-.29-1.93-.23-.86-.48-.36-.09-.49-.92-2.76.83,0,.66.12.38.52-.12,1.23.32-.71.26-.76.28-.58.4-.25.55-.09,1.61-.83-.32-.27-.2-.34-.37-.77.89.25.28.21.26-.21.12,0,.43.24-.66,2-.63,1.47.11.55.34.49.32.59.34,1.65.26.46.66.18.32-.37.08-.85-.08-.92-.17-.64.74.36.69.62.29-1.87.89-.92.2-.92.08-1.41.26-.89.23,1,.06.52,0,.59.23.27.49-.09.48-.28.23-.36-.11-1.17-.32-1-.49-.79-.51-.55-.29-.37-.17-.34-.17,0-.4.49-.46,1.23-.29.43-.4-.28-.63-1.13-.61-.86-.71-.49-1-.06.66-.37.38-.55.28-.67.38-.68L161,732l.92-.34h.94l1,.25.28.88.2,1.26.41.92,1.77-.34,1.07.34,1,.67.72.83-.35-1.35-.2-.49.63.12,1.41.65.43-.1.43-.24.52.34.89,1.07,2.18.73.57.74-.43,1.74.6-.27.26-.19.66.46.83.31,1.67.21-1.47,2.24-.28.89Zm27.92,20.78-.29-.27-.26-.68.37-.58.58-.18.54,0,.38.43.25.85.32.77-.34.34-1-.31Zm4.53-1.93-.57-.06v.13l.6.36.31.65-.37.36-2.12-1-.58-.46-.2-.36.09-.06.2-.28.6-.31,1.84.4h.49l.23.16,0,.3Zm-15.64-6.82.09.09.23.09-.12.09-.48.06-.12.07.32.21.08.4-.17.49-.4.43-.4.55-.4.09-1.12-.83-.2.16-.26.49-.52.27-.66-.06-.46-.43.2-.79,1.06-1.6.61-.52.54-.09.43,0,.32-.15h.28l.18.21,0,.28.14.06.31-.12.26.06.17.27Zm-7.8-.68,1-.67.57-.12-.48,1.8-.78,1-1.26.25-.49-.46.55-.83Zm4.07.46-.08.37-.78.43-1.23-.34-.06-1.07.77-.34,1.44-.15.11-.06-.37-.09.09-.22.63-.21.34.15-.26.46-.4.49Zm6.8-5.51.15.28.05.64-.25.46-.44.06-.66-.46-.71-1-.15-.83.35-.36.4-.13.29.1.34.3.46.58Zm0-6.61,1,.73.43.62-.37.64-.86.34-.69-.31-.26-.4,0-.76.2-.68Zm3.93-6.52-1.55,1-.31-.16-.06-.42,0-.25,0-.55.11-.34.35-.7.14-.25.14-.21.18-.37.11-.37.29-.12.49.09.48.31.2.61-.11.68-.17.61Zm-20.77,23.42.86-1.47L182,757.5l1,.18,1.52.56,1.6.27.43.67-2,.92-1.32,0-1.18.12-.6.19-.09,1-.66.61-1-.34Zm-10.39-5.82,1.44-.58,1.4-1.5,1.21.52,1.38-.06,1.26,1.5.8,2,.43,1.41.12.61-.58,1-1,1-.55.34.38-1.44-.52-.4-.83.4-1.18.27-.77-.52.48-.58.21-.76-.72-.77H171l-.83-.77-1.41-.18Zm44.22-28,.26.31.08.82-.37.77-.4.21-.58-.4-.23-.79.21-.52.51-.4.35,0Z" style="fill:#efc441"/></svg>