<svg xmlns="http://www.w3.org/2000/svg" viewBox="0 0 800 800"><polyline points="219.4 757.52 215.11 758.19 212.59 757.52 210.94 756.04 205.14 748.23 204 747.82 201.22 748.23 197.56 749.03 194.53 750.11 191.25 750.78 182.03 749.44 180.39 749.03 178.12 747.69 173.32 742.97 170.92 741.36 169.79 741.09 168.4 741.36 165.75 741.22 163.98 740.68 161.2 739.2 159.94 738.8 151.99 737.85 149.08 736.1 145.55 732.06 139.24 727.08 138.6 724.92 142.9 724.38 139.49 720.88 135.83 718.05 131.41 716.16 126.48 715.76 129.39 711.85 132.04 711.45 138.22 713.47 141.89 713.07 144.03 711.32 148.96 697.84 150.85 696.77 152.74 695.55 156.78 695.55 159.56 695.15 161.83 694.21 170.67 684.78 173.7 679.93 180.9 660.53 187.34 646.52 200.72 627.12 202.23 624.02 205.14 614.86 206.27 613.25 208.54 612.03 206.15 609.88 205.01 608.53 204.63 607.18 204.76 605.16 205.39 602.87 208.04 598.97 208.54 597.75 209.93 591.69 209.81 589 208.8 588.73 206.78 586.3 205.77 583.48 207.91 582.13 208.67 580.91 208.42 578.22 207.28 573.37 206.9 572.97 205.14 571.62 204.76 571.49 205.14 570.41 206.02 569.74 206.78 569.2 207.28 568.79 207.66 564.62 207.28 560.17 205.26 557.21 200.97 558.01 204.76 548.05 207.41 543.6 214.1 534.85 218.9 526.9 225.08 522.18 225.08 522.05 227.1 518.68 228.37 514.77 228.75 511.27 229.63 508.71 236.32 501.3 239.35 493.35 238.72 478.4 240.23 470.18 241.75 465.74 242 462.64 240.87 460.21 238.34 457.39 236.7 456.71 234.68 456.98 232.66 457.66 230.64 458.06 230.64 456.85 226.22 449.84 222.56 435.83 220.66 433.68 216.75 427.62 214.86 426.27 208.54 424.25 206.4 423.31 205.39 422.5 203.5 420.21 201.73 416.3 200.34 414.01 199.71 414.14 198.95 412.39 195.41 410.37 190.87 401.35 189.61 399.87 187.08 397.71 185.82 395.96 183.93 389.09 182.66 387.2 176.48 381.14 174.71 377.77 174.46 372.92 175.22 369.82 177.62 363.09 178.25 360.13 177.49 355.95 175.59 354.33 169.41 352.58 167.14 350.97 164.99 348.27 164.23 344.9 166.25 341.27 167.39 337.9 167.26 332.91 165.62 324.29 159.94 311.9 156.78 290.62 157.29 285.63 160.95 278.36 161.83 274.99 161.83 266.91 161.46 264.62 159.18 258.15 159.06 253.3 159.69 249.53 159.56 246.16 157.41 242.52 155.65 241.45 153.75 240.91 152.24 239.83 151.61 237.14 151.61 212.75 150.47 210.06 150.22 208.04 150.98 206.02 155.9 202.38 156.78 201.3 157.16 198.47 155.52 190.53 156.03 187.16 157.16 184.06 160.57 178.27 170.67 166.14 171.3 164.93 171.68 162.78 172.56 161.43 175.34 159.41 176.6 158.06 178.75 150.11 180.77 146.88 182.54 144.32 190.24 135.7 204.76 124.52 208.42 120.07 214.6 117.78 220.29 113.61 225.08 108.35 228.62 102.69 233.79 89.09 237.58 82.22 238.59 78.72 241.37 58.38 244.65 52.31 248.31 45.58 250.21 41.94 252.1 41.81 260.31 43.15 265.99 44.1 270.28 45.98 273.94 47.6 275.33 47.73 274.7 46.66 270.79 44.5 272.3 44.1 274.95 44.63 281.14 47.87 286.06 51.37 289.34 53.8 292.63 55.82 296.04 57.97 316.87 67 323.43 70.5 328.99 74.27 333.03 76.02 335.55 76.43 341.74 78.18 349.19 78.04 362.31 81.55 368.5 83.16 373.17 82.62 375.7 84.24 378.73 88.28 381.88 91.11 386.05 89.76 386.05 87.47 382.77 86.8 379.36 84.38 375.57 81.14 372.16 80.2 371.03 80.6 370.65 79.39 372.54 78.04 374.31 78.31 377.97 80.6 383.52 83.03 391.61 85.32 395.64 87.34 400.32 89.22 409.15 95.69 415.84 98.11 423.29 99.87 424.18 98.38 425.31 98.52 430.74 101.21 443.49 108.76 455.87 121.42 464.32 126.27 469.88 136.1 483.13 147.28 509.01 173.28 511.04 174.36 511.79 174.9 511.67 176.11 511.41 177.46 511.67 178.27 512.55 178.4 514.82 178.13 515.71 178.27 520.38 181.1 534.64 194.03 538.68 201.3 537.04 209.38 540.45 207.09 545.12 200.09 549.04 198.61 553.45 199.69 557.37 202.38 560.02 206.15 561.15 210.06 557.75 216.66 551.05 226.22 545.5 235.92 546.01 243.2 547.14 243.2 547.65 240.5 548.91 238.62 550.3 237.14 550.93 235.79 551.94 230.8 553.45 225.69 556.11 222.45 564.06 217.2 566.08 213.43 569.36 215.18 573.27 218.55 576.3 222.59 577.57 226.36 579.34 229.19 591.46 236.6 597.64 241.99 604.33 249.26 609.51 257.48 611.65 265.56 612.54 273.37 616.96 288.6 617.84 296.54 615.82 305.57 610.9 310.01 605.09 313.65 600.29 320.25 611.4 316.48 617.71 312.98 620.49 308.8 620.87 306.78 622.64 301.39 623.02 297.89 621.5 269.6 622.51 262.6 625.54 256.8 627.94 255.05 630.72 254.38 633.75 254.92 636.78 256.8 645.36 265.29 647 267.58 645.49 269.74 650.54 277.28 652.05 281.73 652.43 286.31 653.44 291.83 655.34 295.87 658.37 295.87 657.99 297.75 657.23 299.24 656.35 300.05 655.84 299.91 656.09 301.53 656.98 304.63 658.37 307.32 661.52 308.13 664.55 308.53 665.94 310.15 665.18 312.84 663.54 314.32 661.9 316.35 661.02 320.25 661.4 323.75 662.53 326.85 669.73 338.3 672.13 343.15 673.26 348.54 673.52 355.95 672.88 362.01 669.22 374 667.2 378.31 653.44 385.59 648.77 389.76 646.12 395.96 644.48 402.29 642.21 407.54 639.18 412.12 627.31 426.13 621.5 429.1 620.11 430.71 619.73 432.6 620.24 436.78 619.86 438.53 618.22 440.28 616.96 440.41 615.57 440.14 613.8 440.95 610.9 444.32 609.63 448.09 608.25 456.58 606.48 461.16 598.78 473.42 596.63 478.94 595.12 481.23 591.58 483.25 591.46 484.73 591.83 486.48 591.71 488.24 566.71 531.88 564.94 533.9 562.42 535.25 561.03 535.11 559.51 534.85 557.24 535.25 553.58 538.62 549.92 548.05 543.23 553.16 542.09 557.07 542.22 561.52 543.99 570.14 543.61 571.62 531.99 594.39 530.98 597.35 531.74 599.77 533 601.66 533.25 603.28 530.86 604.62 528.84 605.43 527.32 606.51 526.06 607.86 524.8 609.61 510.4 644.09 509.27 650.16 508.64 651.64 507.12 652.85 503.33 654.2 502.58 655.14 503.33 657.3 506.24 662.28 507 664.44 506.74 667.13 505.86 668.61 504.85 669.82 503.84 671.58 499.93 680.6 494.62 688.68 487.81 695.15 483.89 703.1 481.37 706.6 478.21 709.29 457.63 722.63 449.68 726 446.52 728.69 444.25 733.41 442.74 737.85 441.6 739.6 439.7 741.49 438.57 741.89 436.55 741.36 435.67 741.49 434.65 742.43 433.01 744.72 431.75 745.53 427.84 745.93 420.89 744.18 413.07 743.38 407.38 738.26 403.47 736.77 399.94 736.77 377.72 741.36 374.81 741.49 372.79 739.6 374.18 736.64 377.46 733.95 381.13 732.46 381.13 730.58 369.51 720.21 364.84 713.34 363.32 711.99 360.93 711.18 360.04 711.58 359.66 712.66 354.61 719.4 352.34 721.15 345.9 723.71 339.08 728.96 337.06 729.9 330 730.31 326.33 731.39 323.43 730.44 317.62 726.81 314.59 726.13 308.28 725.73 305.25 725.19 292.88 719.53 287.45 719.26 286.31 718.45 286.44 717.11 288.21 713.34 288.33 711.32 286.31 708.22 283.28 707.41 279.88 708.35 276.59 710.37 274.7 712.93 272.93 716.3 271.16 718.86 268.76 719.67 264.47 719.94 262.2 722.76 260.56 726.13 258.16 727.88 254.37 727.62 252.35 726.94 251.47 727.88 251.22 732.73 249.83 736.24 246.55 738.8 238.84 741.76 237.84 742.43 235.94 744.45 234.81 744.86 233.79 744.45 231.9 742.97 231.02 742.84 227.1 742.97 225.84 743.78 224.45 746.61 221.8 754.83 219.4 757.52" style="fill:#efc441"/><polygon points="226.09 522.06 219.9 526.77 216.05 533.14 225.79 523.4 226.09 522.06" style="fill:#fff"/><polygon points="225.2 533.37 225.25 530.41 204.55 551.12 202.38 556.82 225.36 533.84 225.2 533.37" style="fill:#fff"/><polygon points="225.88 539.78 207.2 558.46 208.28 560.04 208.35 560.84 225.5 543.7 225.88 539.78" style="fill:#fff"/><polygon points="225.46 551.02 232.27 546.44 231.13 544.53 208.41 567.25 208.28 568.67 207.78 569.07 207.02 569.61 206.14 570.28 205.76 571.36 206.14 571.5 207.03 572.17 226.46 552.74 225.46 551.02" style="fill:#fff"/><polygon points="229.8 555.86 209.07 576.59 209.42 578.1 209.56 579.63 231.94 557.26 229.8 555.86" style="fill:#fff"/><polygon points="237.83 558.16 237.52 558.14 208.55 587.11 209.8 588.6 210.43 588.77 239.26 559.94 237.83 558.16" style="fill:#fff"/><polygon points="239.66 566 210 595.66 209.55 597.63 209.04 598.84 206.39 602.75 206.37 602.83 240.87 568.33 239.66 566" style="fill:#fff"/><polygon points="237.7 579.04 237.25 578.41 206.58 609.08 207.15 609.75 208.36 610.84 239.12 580.08 237.7 579.04" style="fill:#fff"/><polygon points="242.37 583.29 203.92 621.74 203.24 623.9 201.72 627 200.65 628.55 242.28 586.92 242.37 583.29" style="fill:#fff"/><polygon points="240.1 598.98 240.21 595.45 187.55 648.12 184.54 654.66 240.12 599.08 240.1 598.98" style="fill:#fff"/><polygon points="149.08 700.11 149.96 697.72 151.85 696.64 153.75 695.43 153.77 695.43 177.83 671.36 179.92 665.74 134.02 711.64 136.68 712.51 149.08 700.11" style="fill:#fff"/><polygon points="243.23 605.97 241.35 604.31 179.92 665.74 177.83 671.36 243.23 605.97" style="fill:#fff"/><polygon points="134.02 711.64 129.83 715.83 132.41 716.04 132.93 716.26 136.68 712.51 134.02 711.64" style="fill:#fff"/><polygon points="153.75 695.43 151.85 696.64 149.96 697.72 149.08 700.11 153.77 695.43 153.75 695.43" style="fill:#fff"/><polygon points="162.84 694.08 171.67 684.65 172.78 682.88 160.69 694.97 162.84 694.08" style="fill:#fff"/><polygon points="142.89 712.94 145.03 711.19 145.36 710.3 142.7 712.96 142.89 712.94" style="fill:#fff"/><polygon points="245.21 610.45 172.78 682.88 171.67 684.65 162.84 694.08 160.69 694.97 145.36 710.3 145.03 711.19 142.89 712.94 142.7 712.96 137.34 718.32 139.34 719.86 245.65 613.55 245.21 610.45" style="fill:#fff"/><polygon points="142.67 722.99 141.05 724.61 143.9 724.26 142.67 722.99" style="fill:#fff"/><polygon points="238.33 627.94 238.27 627.39 142.67 722.99 143.9 724.26 141.05 724.61 139.89 725.77 140.24 726.95 141.36 727.84 239.24 629.96 238.33 627.94" style="fill:#fff"/><polygon points="238.71 640.2 240.23 637.91 239.4 636.26 144.97 730.69 146.55 731.93 146.88 732.31 238.84 640.36 238.71 640.2" style="fill:#fff"/><polygon points="241.43 644.24 149.9 735.76 150.09 735.98 152.04 737.16 241.06 648.14 241.43 644.24" style="fill:#fff"/><polygon points="240.11 655.56 157.41 738.25 160.57 738.63 240.86 658.34 240.11 655.56" style="fill:#fff"/><polygon points="236.6 669.06 165.08 740.59 166.75 741.09 168.04 741.16 236.98 672.22 236.6 669.06" style="fill:#fff"/><polygon points="233.03 683.17 235.13 680.53 173.42 742.24 174.32 742.85 175.35 743.85 231.36 687.84 233.03 683.17" style="fill:#fff"/><polygon points="218.51 710.25 223.32 702.34 178.61 747.05 179.12 747.56 180.7 748.5 217.7 711.5 218.51 710.25" style="fill:#fff"/><polygon points="211.66 724 185.93 749.73 189.01 750.18 212.44 726.75 211.66 724" style="fill:#fff"/><polygon points="212.83 734.63 212.14 733.52 195.75 749.91 198.56 748.91 200.78 748.42 214.18 735.02 212.83 734.63" style="fill:#fff"/><polygon points="214.84 744.36 217 742.19 215.35 742.71 214.84 744.36" style="fill:#fff"/><polygon points="215.35 742.71 217 742.19 220.66 738.53 218.63 737.04 206.75 748.92 208.25 750.94 214.84 744.36 215.35 742.71" style="fill:#fff"/><polygon points="216.1 749.56 211.01 754.65 211.95 755.91 212.65 756.55 217.76 751.44 216.1 749.56" style="fill:#fff"/><polygon points="219.81 755.85 217.87 757.79 220.41 757.39 219.81 755.85" style="fill:#fff"/></svg>