<svg xmlns="http://www.w3.org/2000/svg" viewBox="0 0 800 800"><polygon points="204.99 387.58 199.47 354.71 197.53 349.13 194.77 344.44 191.19 340.78 186.72 338.31 178.44 336.88 176.65 335.92 174.93 334.41 172.24 332.98 169.48 332.02 167.32 331.7 166.05 332.02 163.89 333.29 162.47 333.61 161.35 332.9 156.35 325.73 153.89 317.06 149.34 309.57 147.48 305.59 144.79 305.67 140.46 307.5 137.7 306.55 134.5 301.85 132.56 300.74 132.56 300.02 130.02 295.8 129.27 295.25 121.29 292.3 110.4 290.87 105.33 291.11 101.82 291.98 100.48 292.06 99.13 291.66 97.05 289.59 95.93 289.19 95.48 288.8 93.61 286.89 92.64 286.17 91.6 285.85 88.09 285.21 79.36 281.24 75.34 280.84 72.5 284.26 71.38 283.14 69.74 279.32 68.77 277.49 66.31 275.19 65.19 273.59 65.71 269.13 64 265 61.61 261.18 59.82 259.11 56.46 257.59 50.49 255.92 46.99 252.58 45.42 251.86 40.42 251.07 36.99 249.79 34.45 249.24 34.98 246.77 42.44 228.54 43.93 226.31 46.47 224.64 53.85 222.73 61.39 222.81 88.24 232.28 92.57 232.76 96 231.88 103.01 228.46 107.04 227.98 110.17 229.49 111.14 230.21 116.59 234.19 127.78 237.85 131.29 239.76 146.21 251.15 149.56 251.94 160.9 250.51 164.63 251.22 168.14 252.9 171.5 255.52 175.3 257.12 183.13 255.68 186.42 256.88 187.39 258.31 188.95 261.57 190 263.01 191.56 264.2 197.24 265.87 200.07 267.46 204.92 272.24 207.9 273.75 211.86 274.07 219.84 273.12 223.79 273.51 230.95 275.42 234.31 275.74 241.92 274.95 245.13 275.11 248.26 275.9 251.69 277.57 255.13 278.53 258.63 278.69 262.14 278.05 270.72 273.43 271.31 273.12 274.15 272.32 292.57 270.81 293.47 270.97 300.04 271.84 306.23 275.82 309.06 278.53 312.19 280.84 318.83 284.42 321 284.82 322.49 284.26 325.47 281.63 327.34 280.76 330.77 280.68 335.84 279.17 340.17 279.32 344.35 280.36 347.41 282.19 350.46 284.98 353.6 286.97 362.92 290.23 362.92 292.14 362.1 294.45 361.8 296.76 362.77 298.19 368.14 301.77 379.86 312.28 382.02 313.39 384.11 314.43 405 320.08 415.14 322.79 419.32 323.82 426.78 327.32 428.65 328.84 433.12 333.93 435.14 335.13 445.28 337.51 448.19 338.87 450.13 339.82 451.4 343.96 448.86 347.3 445.06 349.93 442 352.8 441.63 356.94 444.76 360.6 449.68 361.87 454.98 362.27 459.38 363.3 461.92 365.13 463.26 366.17 465.35 367.13 467.37 366.81 469.01 365.45 471.69 361.87 473.11 360.36 477.88 358.29 488.33 357.81 492.13 356.7 493.4 356.3 494.89 354.87 496.98 352.88 499 348.9 501.53 346.03 511.23 345.87 515.63 344.44 524.14 340.14 527.27 339.26 532.72 338.87 537.41 339.42 541.52 340.7 541.89 340.86 545.92 343 547.63 344.36 550.84 347.62 552.11 349.53 554.87 357.73 556.21 359.08 557.18 358.05 558.9 350.33 562.03 343.88 562.78 341.57 565.54 337.99 570.31 338.87 582.18 347.06 584.12 347.94 586.13 348.34 588.14 348.02 589.19 347.54 592.17 346.27 594.26 346.03 597.84 347.3 600.98 349.93 611.72 362.35 612.91 364.18 613.73 366.09 614.92 368.56 616.04 370.23 619.7 371.66 624.33 371.02 633.13 368.48 639.39 368.64 648.5 370.15 657 373.41 661.48 378.43 661.48 378.59 661.1 381.77 648.57 413.06 649.69 416.32 652.97 418.31 657.37 420.3 669.31 428.26 676.92 430.17 678.41 431.6 681.54 438.85 682.66 440.44 684.15 441.23 686.17 441.31 686.99 441.07 688.41 439.96 689.3 439.72 690.05 440.12 691.84 441.63 692.73 442.11 694.75 441.95 696.24 441.55 697.28 442.27 698.03 445.29 700.64 446.49 704 446.57 710.41 445.29 710.49 445.29 711.38 445.05 712.35 444.98 713.25 445.05 714.29 445.29 717.13 447.52 721.9 453.01 725.04 454.29 731.53 454.85 734.14 456.28 736.82 459.7 732.65 467.9 730.33 471.48 725.63 476.97 724.07 478.33 722.28 479.2 720.04 479.36 714.97 478.25 712.58 478.49 710.49 480.64 709.45 485.41 709.45 492.5 710.86 498.71 713.77 501.09 714.74 500.3 715.26 499.02 716.01 497.99 717.5 497.91 717.8 498.71 720.19 503.16 720.34 504.2 721.23 509.61 722.2 512.64 724.07 514.94 729.74 518.69 731.08 519.24 733.24 519.8 738.39 524.34 748.98 528.64 754.36 531.74 756.07 535.56 757.71 534.92 758.53 535.4 758.61 535.48 759.35 536.68 761.44 538.98 764.87 544 765.54 545.99 765.25 546.23 764.35 546.07 763.38 547.18 763.16 548.22 763.08 550.61 762.78 551.56 762.19 552.44 760.77 553.71 760.1 554.59 759.05 558.33 758.46 563.1 757.56 567.56 756.97 568.36 755.47 570.35 753.31 570.75 751.22 570.19 749.06 569.95 746.82 571.38 745.55 573.53 744.96 575.76 743.99 577.19 741.6 577.27 739.66 576.16 736.6 572.18 734.81 570.66 728.32 568.67 726.08 567.32 719.66 561.75 716.46 557.93 714.74 556.34 712.8 555.7 704.6 555.7 702.21 556.26 699.37 557.93 696.54 559.76 694.38 560.48 691.76 560.72 686.47 560.08 670.35 554.51 664.83 551.24 662.75 550.05 658.19 546.31 655.66 542.33 658.04 539.46 660.58 538.59 662.07 537.79 662 536.91 659.39 535.96 652.3 534.61 636.63 528.72 633.13 525.53 631.56 523.78 629.92 523.46 626.34 524.58 624.1 524.74 622.38 524.42 617.16 521.79 615.15 520.75 611.57 520.6 608.06 521.79 591.5 534.92 581.13 543.12 579.79 544 577.33 546.15 575.98 547.02 571.88 547.1 561.36 545.51 559.2 547.58 560.09 549.57 564.2 551.4 564.94 552.44 565.39 552.99 564.27 554.43 561.44 554.83 545.47 554.51 540.92 552.75 538.68 552.52 536.37 553.47 534.95 555.3 533.61 557.53 531.97 558.88 529.73 558.25 529.13 557.21 528.76 555.78 528.16 554.75 527.04 554.83 526.3 555.3 524.14 557.69 521.45 558.41 518.99 558.25 516.68 557.37 510.86 554.03 509.51 553.87 508.17 554.27 507.28 555.06 506.53 555.86 505.49 556.58 502.95 556.97 500.94 556.26 495.64 552.67 492.73 551.56 491.54 551.56 490.27 552.44 489.97 553.47 489.89 554.66 489.37 556.02 487.66 557.61 485.49 558.73 483.18 559.12 478.56 557.93 476.39 558.09 471.99 560 469.53 560.64 469.45 560.64 467.07 561.19 457 561.35 452.3 563.26 447.22 567.56 445.13 568.44 442.45 568.6 424.69 566.21 420.07 566.37 414.17 568.67 413.06 568.91 412.01 568.91 410.89 568.67 412.16 565.01 410.59 561.75 407.68 559.12 404.7 557.45 401.27 556.58 398.06 556.82 388.06 559.52 386.5 558.41 383.89 552.2 381.65 549.81 379.49 549.57 377.1 549.81 374.11 548.93 380.08 546.07 381.65 544.72 383.14 542.73 382.99 542.01 379.78 541.61 376.43 540.02 371.13 535.64 363.15 530.39 361.58 528.72 358.3 522.83 357.48 521.87 356.51 521.55 355.99 520.99 355.54 520.36 354.87 519.72 351.66 518.69 350.84 518.21 349.94 516.7 349.27 514.94 348.52 514.07 347.03 514.94 344.35 517.89 342.33 517.25 340.25 515.02 337.48 513.43 338.38 512.08 340.54 510.33 341.44 509.29 341.89 508.1 342.11 506.75 342.41 505.31 343.3 504.04 341.21 503.08 326 501.81 320.48 502.21 318.31 502.93 317.86 503.08 317.71 503.08 315.55 504.75 314.43 507.06 313.39 512.72 312.27 514.94 309.96 517.33 306.67 522.11 304.36 523.54 303.09 523.62 301.68 523.7 282.5 516.54 277.13 516.77 274.52 516.62 272.73 514.94 271.16 514.07 269.52 513.99 266.09 514.94 264.52 514.31 263.03 514.07 261.47 514.23 259.9 514.94 256.1 516.14 248.26 513.27 243.86 514.94 242.37 516.06 238.94 520.75 234.61 524.34 233.56 524.89 232.22 524.42 227.9 520.52 226.4 520.04 223.27 519.64 222 519.16 221.48 518.29 221.55 517.17 221.63 516.14 221.48 515.58 220.66 515.58 217.97 516.77 214.69 517.01 213.27 516.77 201.71 512.08 208.87 499.74 212.08 495.6 218.65 491.54 220.44 487.32 225.58 479.28 225.88 477.69 225.88 476.42 226.03 475.3 226.7 474.03 228.42 471.72 229.09 470.53 229.31 469.33 229.31 458.03 229.31 457.39 227.97 448.64 227.82 445.45 227.3 443.54 222.9 436.14 219.62 430.57 218.42 429.69 217.3 428.5 216.78 425.87 216.56 421.09 215.66 414.73 209.92 395.54 209.47 394.75 208.72 393.63 205.81 390.85 205.44 389.89 204.99 387.58" style="fill:#efc441"/><polygon points="53.85 222.73 53.01 222.94 38.99 236.97 36.54 242.96 56.73 222.76 53.85 222.73" style="fill:#fff"/><polygon points="64.17 223.79 37.85 250.11 40.42 251.07 40.43 251.07 66.78 224.71 64.17 223.79" style="fill:#fff"/><polygon points="73.04 226.92 47.19 252.77 49 254.5 75.65 227.84 73.04 226.92" style="fill:#fff"/><polygon points="81.91 230.05 54.82 257.13 56.46 257.59 57.45 258.04 84.52 230.97 81.91 230.05" style="fill:#fff"/><polygon points="92.57 232.76 91.34 232.62 62.06 261.9 63.42 264.07 95.48 232.02 92.57 232.76" style="fill:#fff"/><polygon points="107.67 228.29 65.57 270.39 65.19 273.59 65.48 274.01 110.06 229.44 107.67 228.29" style="fill:#fff"/><polygon points="116.59 234.19 114.96 233 69.36 278.6 69.74 279.32 70.47 281.02 117.13 234.37 116.59 234.19" style="fill:#fff"/><polygon points="123.5 236.45 78.78 281.18 79.36 281.24 81.35 282.14 126.17 237.32 123.5 236.45" style="fill:#fff"/><polygon points="131.8 240.16 87.17 284.79 88.09 285.21 89.94 285.55 133.81 241.69 131.8 240.16" style="fill:#fff"/><polygon points="138.61 245.35 95.32 288.64 95.48 288.8 95.93 289.19 97.05 289.59 97.47 290.02 140.61 246.88 138.61 245.35" style="fill:#fff"/><polygon points="146.21 251.15 145.42 250.54 104.69 291.26 105.33 291.11 108.54 290.95 147.94 251.56 146.21 251.15" style="fill:#fff"/><polygon points="160.9 250.51 156.95 251.01 116.31 291.64 119.44 292.06 160.97 250.52 160.9 250.51" style="fill:#fff"/><polygon points="168.14 252.9 167.41 252.55 125.94 294.02 128.52 294.97 169.52 253.97 168.14 252.9" style="fill:#fff"/><polygon points="175.3 257.12 174.98 256.98 132.32 299.63 132.56 300.02 132.56 300.74 133.95 301.54 179.07 256.43 175.3 257.12" style="fill:#fff"/><polygon points="187.39 258.31 186.69 257.27 137.58 306.37 137.7 306.55 140.11 307.38 187.97 259.52 187.39 258.31" style="fill:#fff"/><polygon points="191.71 264.24 148.4 307.56 149.34 309.57 149.56 309.93 194.44 265.05 191.71 264.24" style="fill:#fff"/><polygon points="200.28 267.67 152.76 315.2 153.89 317.06 154.01 317.48 202.06 269.43 200.28 267.67" style="fill:#fff"/><polygon points="207.9 273.75 206.78 273.18 155.88 324.07 156.35 325.73 156.93 326.56 209.6 273.89 207.9 273.75" style="fill:#fff"/><polygon points="219.84 273.12 218.71 273.25 160.41 331.55 161.35 332.9 162.11 333.38 222.15 273.35 219.84 273.12" style="fill:#fff"/><polygon points="230.95 275.42 229.04 274.91 171.31 332.65 172.24 332.98 173.73 333.77 231.97 275.52 230.95 275.42" style="fill:#fff"/><polygon points="241.92 274.95 240.91 275.05 178.99 336.97 182 337.49 244.42 275.07 241.92 274.95" style="fill:#fff"/><polygon points="251.69 277.57 250.81 277.14 188.61 339.35 190.88 340.61 253.44 278.06 251.69 277.57" style="fill:#fff"/><polygon points="262.14 278.05 261.86 278.1 195.05 344.91 196.36 347.13 269.29 274.2 262.14 278.05" style="fill:#fff"/><polygon points="246.57 305.38 242.01 309.94 243.26 311.48 243.44 312.06 250.84 304.66 247.96 305.12 246.57 305.38" style="fill:#fff"/><polygon points="247.96 305.12 250.84 304.66 268.45 287.04 268.4 284.5 268.32 283.63 246.57 305.38 247.96 305.12" style="fill:#fff"/><polygon points="243.26 311.48 242.01 309.94 198.9 353.06 199.47 354.71 199.66 355.83 243.44 312.06 243.26 311.48" style="fill:#fff"/><polygon points="245.87 320.72 245.12 318.84 200.88 363.08 201.39 366.11 246.01 321.49 245.87 320.72" style="fill:#fff"/><polygon points="243.25 332.71 202.6 373.35 203.11 376.38 243.8 335.7 243.25 332.71" style="fill:#fff"/><polygon points="244.38 344.28 244.3 343.66 204.33 383.63 204.84 386.65 245.46 346.04 244.38 344.28" style="fill:#fff"/><polygon points="231.66 371.84 248.18 355.31 247.81 352.64 247.76 352.19 223.56 376.4 223.72 376.36 231.66 371.84" style="fill:#fff"/><polygon points="442 352.8 441.93 353.56 446.68 348.81 445.06 349.93 442 352.8" style="fill:#fff"/><polygon points="446.68 345.28 444.18 347.78 445.13 347.78 446.68 345.28" style="fill:#fff"/><polygon points="442 352.8 445.06 349.93 446.68 348.81 450.99 344.51 451.4 343.96 450.6 341.36 446.68 345.28 445.13 347.78 444.18 347.78 424.7 367.25 426 369.49 441.93 353.56 442 352.8" style="fill:#fff"/><polygon points="444.76 360.6 444.12 359.84 425.22 378.74 424.39 381.53 424.57 382.92 446.46 361.04 444.76 360.6" style="fill:#fff"/><polygon points="454.98 362.27 453.78 362.18 424.56 391.4 426.4 393.09 456.8 362.7 454.98 362.27" style="fill:#fff"/><polygon points="463.26 366.17 462.43 365.53 426.75 401.21 429.32 402.17 464.68 366.82 463.26 366.17" style="fill:#fff"/><polygon points="481.85 358.11 427.67 412.29 427.08 415.05 427.46 416.03 485.56 357.94 481.85 358.11" style="fill:#fff"/><polygon points="496.31 356.46 495.93 356.03 429.56 422.4 430.36 423.48 430.36 425.13 497.42 358.07 496.31 356.46" style="fill:#fff"/><polygon points="504.52 362.59 502.28 362.59 500.83 363.12 434.04 429.91 434.76 430.49 436.06 431.43 504.65 362.85 504.52 362.59" style="fill:#fff"/><polygon points="508.25 368.88 507.76 368.19 447.01 428.95 448.34 429.06 448.34 431.15 509.7 369.79 508.25 368.88" style="fill:#fff"/><polygon points="510.68 380.81 511.51 379.98 510.56 380.74 510.68 380.81" style="fill:#fff"/><polygon points="510.56 380.74 511.51 379.98 514.61 376.89 513.03 374.93 464.48 423.48 466.39 424.12 467.37 424.12 510.68 380.81 510.56 380.74" style="fill:#fff"/><polygon points="457.07 433.19 456.54 431.42 451.18 436.78 453.19 436.78 457.07 433.19" style="fill:#fff"/><polygon points="460.87 430.49 462.63 425.33 457.95 430.01 460.87 430.49" style="fill:#fff"/><polygon points="519.21 382.81 516.53 384.24 515.99 383.97 480.5 419.45 482.14 420.62 482.42 421.07 520.28 383.21 519.21 382.81" style="fill:#fff"/><polygon points="524.66 389.17 523.95 388 485.35 426.61 486.4 429.1 525.54 389.95 524.66 389.17" style="fill:#fff"/><polygon points="489.3 436.78 491.39 435.34 491.88 432.07 489.06 434.89 489.3 435.34 489.3 436.78" style="fill:#fff"/><polygon points="531.25 392.7 492.27 431.69 494.15 430.49 495.89 431.61 533.12 394.37 531.25 392.7" style="fill:#fff"/><polygon points="540.47 398.25 538.86 397.1 501.05 434.91 502.88 436.06 503.12 436.38 539.98 399.51 540.47 398.25" style="fill:#fff"/><polygon points="539.75 408.21 504.7 443.26 505.49 443.54 507.36 444.14 540.89 410.6 539.75 408.21" style="fill:#fff"/><polygon points="541.59 419.98 542.5 417.46 514.61 445.34 515.41 445.21 518.09 442.99 520.33 442.99 520.41 443.09 541.75 421.74 541.59 419.98" style="fill:#fff"/><polygon points="530.63 441.55 531.01 440.95 527.4 444.56 527.94 444.42 530.63 441.55" style="fill:#fff"/></svg>