<svg xmlns="http://www.w3.org/2000/svg" viewBox="0 0 800 800"><polygon points="494.89 27.23 495.71 29.22 497.5 30.97 499.74 32.24 501.76 32.8 503.77 32.64 507.43 31.52 509.51 31.52 513.17 33.04 514.81 35.74 515.11 39.41 514.81 43.55 514.59 45.06 513.84 45.85 512.87 46.49 511.98 47.45 511.45 48.56 509.07 60.42 509.14 61.53 509.74 63.84 509.51 65.12 508.62 66.07 506.38 67.66 504.81 69.73 503.99 71.8 503.4 76.74 503.02 78.41 502.35 81.36 502.28 83.82 503.4 86.21 504.37 87.09 505.56 87.72 506.9 88.04 509.37 88.44 510.19 88.92 510.86 89.63 511.83 90.35 515.26 91.55 516.23 92.26 517.12 93.3 518.39 95.92 519.29 97.12 525.03 100.94 526.75 102.93 532.34 113.99 532.64 114.39 533.46 114.31 533.91 113.59 534.21 112.8 534.51 112.48 537.41 113.67 538.46 113.83 539.65 113.52 540.7 112.96 541.67 112.64 542.79 112.88 543.9 114.07 543.9 115.35 543.53 116.62 543.38 117.57 544.65 119.72 546.52 121.56 547.63 123.39 546.66 125.77 548.23 125.77 553.01 124.9 554.05 125.45 556.21 127.36 553.6 129.51 553.08 131.34 552.71 133.26 551.96 134.85 552.11 138.75 551.59 147.11 552.63 150.13 553.98 151.09 555.25 151.41 556.07 152.2 556.44 154.59 555.99 156.5 555.92 156.82 554.72 157.22 553.08 156.9 551.14 157.3 551.81 158.41 551.74 159.21 551.37 159.92 551.14 161.04 551.29 161.83 552.63 164.54 553.38 166.93 553.3 167.88 552.56 168.6 551.14 170.19 550.25 171.94 550.02 173.61 550.54 178.31 550.47 179.66 548.16 188.74 548.31 190.97 548.9 192.24 549.65 193.12 550.4 194.31 550.92 196.06 551.14 198.13 550.84 200.2 549.72 201.63 547.78 201.95 545.92 200.84 543.01 197.57 541.44 200.92 541.52 204.34 543.31 206.81 546.66 207.21 551.07 206.01 553.23 206.41 554.2 208.88 553.45 210.47 551.66 211.03 549.65 210.63 548.16 209.59 546.22 210.95 543.61 211.11 538.09 210.47 537.86 211.19 537.34 214.53 537.34 215.25 537.64 215.64 538.46 216.36 539.5 217.16 540.62 217.71 543.46 217.16 544.95 217.24 545.92 218.51 545.55 219.7 544.13 220.74 542.41 221.45 537.86 222.41 537.86 224.08 538.61 225.99 537.71 227.26 538.24 228.86 540.25 229.1 542.26 228.7 547.26 226.79 548.08 226.07 548.53 225.04 548.83 222.73 549.43 221.77 551.07 220.98 553.53 220.5 557.86 220.26 559.94 220.66 565.69 222.89 566.43 223.92 566.58 225.04 566.36 226.31 565.61 227.58 565.61 227.74 565.61 227.82 565.69 227.98 568.97 229.1 570.91 230.93 571.58 233.71 570.61 239.68 570.39 243.11 569.94 244.54 568.9 245.81 567.63 246.53 566.73 247.64 566.66 249.95 568 254.17 568 256.08 566.73 258.47 564.27 260.78 563.52 261.89 563.6 263.72 563 267.54 561.14 271.2 560.02 274.79 561.51 278.37 566.73 287.92 568.15 293.65 565.76 297.31 565.69 297.31 565.17 298.83 565.02 300.66 564.64 302.17 563.45 302.81 562.03 302.57 560.91 302.17 559.87 302.01 558.75 302.49 559.35 302.89 558.6 304.88 557.48 306.23 556.29 303.6 555.02 303.05 553.6 303.36 552.93 304.48 553.16 305.91 553.83 310.21 557.03 317.61 561.36 324.06 565.69 327.24 567.55 329.55 570.24 332.1 573.07 334.33 580.16 337.91 582.1 342.21 583.52 346.59 587.7 350.33 587.92 351.52 587.92 352.88 588.14 354.63 588.07 355.74 588.14 356.3 588.59 356.7 589.86 356.94 590.31 357.33 590.68 360.2 589.86 362.03 588.14 363.14 583.29 365.45 581.5 366.73 577.85 370.23 576.95 370.71 576.13 370.79 575.54 371.26 575.46 372.78 575.91 373.97 576.73 374.85 577.48 375.88 577.7 377.47 577.1 378.99 576.21 379.7 575.68 380.5 576.28 383.36 576.65 388.94 577.7 393.23 577.7 395.54 577.63 399.84 578.67 407.64 578.82 408.2 578.67 415.2 579.71 421.89 579.41 428.02 579.79 430.25 576.58 429.69 575.24 432.08 574.87 435.74 574.87 438.93 574.27 440.44 572.78 441.23 571.06 441.79 569.64 442.43 568.52 443.62 567.85 444.89 567.48 446.33 567.03 453.09 567.55 458.82 569.34 464 572.78 467.26 574.72 467.5 576.88 467.1 580.91 465.51 581.65 466.55 583.37 474.19 583.22 476.74 581.8 481.03 580.76 486.45 578.15 493.45 577.77 498.07 578.3 503.32 578.22 508.42 576.13 512.4 574.72 513.27 570.09 514.55 568.52 514.63 566.96 515.18 568.15 516.93 571.28 519.56 572.55 522.03 572.33 523.94 570.02 528.08 569.27 530.55 569.64 531.66 570.69 532.3 571.96 533.41 575.16 539.7 575.83 540.66 577.7 541.13 579.64 542.25 581.21 543.84 582.18 545.75 582.25 547.58 581.36 553.55 581.95 555.94 583.37 557.37 584.86 558.57 585.83 560.4 586.88 560.56 589.93 560.4 590.9 560.64 592.32 562.07 592.25 563.18 591.5 564.3 590.75 565.73 590.75 566.45 590.61 568.91 591.28 571.78 592.54 574.49 594.26 577.35 596.57 579.82 601.95 582.68 604.71 584.52 608.29 589.13 609.7 590.25 611.87 590.88 620.22 590.88 623.06 600.28 624.77 602.82 625.59 603.54 626.41 603.86 627.24 604.34 628.05 605.37 629.55 607.76 630.67 609.19 632.16 609.99 641.18 611.1 642.53 612.93 642.23 617.07 642.15 617.07 641.48 617.39 636.49 620.18 632.75 623.28 627.24 629.65 625.97 631.72 623.28 637.37 622.76 639.68 622.61 642.07 621.49 647.56 620.52 649.71 617.09 653.21 612.69 654.8 591.87 657.35 552.78 654.33 548.08 654.57 545.55 655.2 544.2 655.76 543.61 656.48 543.09 656.79 540.47 656.87 539.58 657.27 537.49 658.86 530.18 660.93 528.54 662.13 525.48 665.15 521.3 666.43 519.74 668.18 518.54 670.25 516.75 672.16 508.1 675.26 507.57 675.58 506.16 677.09 505.56 677.65 504.59 678.05 502.88 678.21 479.45 686.25 474.53 686.96 473.86 687.28 472.51 688 464.53 695.16 463.63 696.43 463.11 698.27 461.62 699.86 457.74 702.4 450.13 704.48 448.79 704.48 447.97 705.27 446.25 706.7 444.39 707.34 443.49 705.67 437.9 709.89 436.48 710.45 430.14 716.02 427.53 719.28 425.89 720.39 417.75 721.67 415.29 721.51 413.65 720 412.98 721.03 411.94 721.43 409.25 721.59 406.56 722.31 405.3 722.23 404.77 721.19 404.33 720.16 403.51 720.39 402.16 721.59 400.37 721.75 398.58 722.31 387.24 727.48 386.12 729.23 385.08 730.19 382.92 731.62 378.59 733.69 376.35 734.17 369.26 734.4 368.07 734.8 365.53 736.39 364.34 736.87 363.3 736.95 360.98 736.79 359.94 736.87 357.93 737.59 353.97 739.66 346.36 740.77 343.9 741.81 342.04 743.16 341.96 743.24 340.39 742.45 338.45 742.37 336.66 742.84 335.32 743.96 335.1 744.91 335.84 746.66 335.62 747.62 334.95 748.41 334.5 748.89 327.04 752.79 325.7 753.83 322.56 757.57 322.34 758.45 322.49 759.24 322.49 759.72 321.52 759.96 320.48 760.04 313.01 762.35 304.66 766.33 302.87 767.92 300.26 771.98 298.62 773.65 297.05 774.29 289.59 775.32 288.1 775.96 285.19 776.04 284.52 775.96 283.77 775.16 283.4 773.97 283.55 772.61 283.32 771.58 281.91 771.18 281.01 771.02 279.37 770.47 278.1 770.38 278.25 769.83 277.21 768.71 272.58 764.73 270.27 763.7 269.23 762.98 268.78 761.95 268.63 761.15 268.11 760.28 267.51 759.56 256.17 754.78 237.74 750.72 219.84 744.28 205.59 743.08 189.92 740.14 174.78 735.2 173.06 734.8 173.51 732.89 174.26 732.65 175.3 732.26 176.5 732.02 184.33 732.1 186.64 732.81 187.31 733.53 188.66 735.6 189.25 736 190.67 735.84 192.91 734.8 194.1 734.4 193.8 731.22 196.86 729.87 200.74 729.23 203.13 728.04 207.46 728.2 209.99 727.88 211.48 726.68 212.53 724.46 211.93 723.74 210.51 722.38 210.22 721.99 210.07 720.95 210.59 718.49 210.59 717.53 210.14 716.18 208.57 713.87 208.28 712.2 209.02 705.03 212.68 705.75 214.09 705.43 215.21 704 215.51 701.93 214.99 699.86 212.08 692.38 210.14 684.02 209.84 677.97 209.47 676.06 208.57 674.54 207.16 673.35 199.4 671.2 197.68 671.92 194.1 674.23 191.94 674.47 189.4 672.95 188.81 669.93 189.92 662.68 182.84 663.32 183.88 650.03 183.58 645.81 182.31 641.59 178.06 633.39 176.5 629.17 173.21 609.75 170.9 603.22 167.69 600.12 167.39 599.64 166.05 597.97 157.47 556.74 157.62 554.83 158.37 553.55 160.38 552.36 160.98 551.64 163.14 545.19 162.92 544.4 161.43 541.37 160.08 539.54 159.56 538.35 159.71 534.13 161.57 529.59 174.11 506.59 175.45 505.71 175.53 505.63 175.68 505.55 181.05 503.72 181.64 502.85 182.54 497.03 183.06 495.84 188.06 489.15 189.03 486.93 189.1 485.33 188.66 484.38 187.91 483.42 187.24 481.75 187.09 480.4 192.46 444.58 193.88 439.8 201.78 421.81 202.23 421.09 203.28 419.66 203.72 418.87 203.72 418.23 203.43 416.72 203.5 416.16 204.47 415.2 206.86 413.61 207.75 412.66 208.13 411.3 208.57 402.63 208.87 401.75 209.54 401.67 210.29 402.15 210.89 402.87 211.04 403.18 212.75 401.59 217.75 395.46 219.76 393.95 226.25 391.64 228.49 390.45 229.61 388.94 229.69 386.87 229.01 384.08 227.52 380.74 227.3 379.22 227.75 377.39 228.49 375.8 229.24 375.08 230.13 375.16 231.48 375.88 232.75 376.04 234.24 375.48 239.16 372.38 239.91 370.63 234.83 337.83 229.84 305.04 229.31 303.2 228.34 303.68 228.34 303.6 227.82 302.73 228.04 301.21 228.87 300.42 230.06 299.78 230.13 298.11 227.9 289.99 227.82 287.92 227.52 286.97 226.93 286.65 226.18 286.57 225.58 286.01 223.87 280.52 223.72 278.13 223.05 276.22 220.29 274.71 217.53 273.99 214.77 273.91 213.2 273.59 212.38 272.96 211.71 272.16 210.59 271.52 211.63 269.85 212.08 268.02 212.3 262.21 212.75 261.18 215.06 258.71 217 254.49 218.27 252.42 221.7 250.43 222.97 248.2 223.12 245.97 221.41 245.02 219.54 244.54 217.97 243.34 217.15 241.51 217.3 239.28 218.42 237.77 219.91 236.98 221.18 236.1 221.78 234.11 221.78 231.01 221.26 229.02 221.11 228.06 221.55 224.32 221.41 222.65 219.91 220.66 216.03 215.4 212.08 211.58 211.56 210.39 211.33 208.48 211.56 206.57 212.08 204.66 212.97 202.91 214.39 201.63 214.02 201.4 213.2 200.68 212.83 199.64 212.75 198.53 212.16 197.57 211.19 197.1 210.59 197.18 209.99 197.02 209.1 195.98 208.35 193.51 208.8 191.13 210.59 187.15 214.39 182.69 215.06 181.49 214.77 180.3 212.16 175.84 211.71 172.9 212.68 167.56 212.83 164.54 212.16 162.47 209.69 158.49 209.1 156.1 209.1 146.07 207.98 140.74 208.05 138.43 209.47 135.96 211.71 134.13 212.45 133.1 212.83 131.58 212.75 130.07 212.38 129.44 211.71 129.04 210.59 128.32 209.54 127.92 208.65 127.92 207.9 127.68 207.68 126.33 207.23 125.53 206.34 125.3 205.22 125.14 204.25 124.74 203.35 122.83 203.35 120.36 203.95 117.97 204.69 116.22 205.44 115.11 206.26 114.39 207.31 113.99 208.72 113.91 209.92 113.44 210.96 112.32 211.41 111.21 210.96 110.65 208.35 110.65 206.56 110.33 205.22 109.53 201.41 105.95 200.52 104.52 200.22 102.21 199.85 101.65 198.43 100.06 197.91 99.35 197.61 98.23 197.46 95.76 197.16 94.57 193.88 88.36 193.43 86.13 193.73 84.94 195.22 82.15 195.89 80.24 196.19 79.76 196.41 79.29 196.41 78.49 196.12 78.01 195.59 77.69 195.15 77.61 194.92 77.61 194.77 77.14 194.55 75.94 194.85 75.23 196.04 73.95 196.64 72.84 197.01 70.21 198.88 67.03 200.07 61.53 200.89 59.07 202.31 57.32 204.1 55.88 205.51 54.13 206.19 51.43 205.51 49.2 204.32 47.13 203.65 44.9 203.95 44.02 203.8 43.39 213.2 43.55 213.27 44.82 215.66 44.74 225.88 44.66 247.14 44.42 273.48 44.18 298.02 43.86 321.89 43.63 338.83 43.47 340.1 42.67 340.84 40.6 342.78 39.96 356.51 40.44 357.85 41 358.97 41.48 362.63 42.99 365.31 43.55 379.19 43.63 392.32 43.78 393.29 42.03 396.35 41.48 411.41 42.75 412.31 42.99 413.13 43.55 413.88 45.14 414.47 45.53 415.59 45.46 414.85 47.13 416.79 46.81 419.25 43.94 421.56 43.55 422.16 42.75 422.83 42.43 423.43 42.67 424.02 43.55 436.4 43.78 437.15 43.86 437.3 45.14 437.82 45.3 438.57 44.98 439.61 45.06 440.21 45.85 439.76 46.81 438.94 47.76 438.64 48.56 443.87 53.97 445.73 52.7 446.85 50.07 447.67 47.13 448.64 45.22 450.21 44.58 452.52 44.34 456.77 44.42 457.14 44.34 457.44 44.1 457.82 43.86 458.04 43.55 459.08 42.19 461.99 40.76 463.26 39.65 463.86 38.37 464.08 35.74 464.6 33.99 466.69 31.21 468.78 31.21 470.87 32.96 472.81 35.43 478.26 31.21 479.67 29.77 480.49 28.02 480.27 26.99 479.82 25.87 480.12 23.96 494.89 27.23" style="fill:#efc441"/></svg>