<svg xmlns="http://www.w3.org/2000/svg" viewBox="0 0 800 800"><path d="M165.65,121l12.28-.43,6-1.78,2.18.13,3.1.61,1.26.31h2.87l2.81-.62,1.32-.73,3-2.88,2-.86,2.06-.06,6.37.86.35.06,3.67,3.18,2.35.43.75-.49,2-1.83.86-.68.46-.06,1.21.06.4-.12.34-.61.17-1.35.18-.43,2.35-1,4.36.92,1.66-.31.75-.18,1-1,.35-1.23v-1.1l.11-.92.86-1,3.16-2.14,1.15-2,3-2.76,1.15-1.65.17-.79v-.37l.06-1.72.34-1,.69-.73,1.38-1,.75-.55,2.52-1.29,5.39-1.53.41-.31.86-.91.34-.19L257,89l.29.55.12.49.23.3,2.81,1.47.57.25,1.78-.61,3-2.64,1.9-.86,1.89-.18.63.06,1,.12,3.21,1,2.52.31.75.25.23.42.12,1.41.17.37.57.06.69-.49h1.55l2.12-.37,1.09.07.75.36,1.78,1.1,1,.37,2.47.06,1.32-.12,1.21-.31,1.6-.49h1.32l2.76.43,1.83-.12,1.27-.49.34-.12,1.43-1.16,1.44-1.78.17-.86-.06-.92.29-.79,1.26-.37,1,.25.06.12.4.49.4.85.63.86,1.49,1.23,1.09.55.92-.61,1-2.21.8-4.1.34-8.45.06-.37.81-3,.91-.73,1.55-1.35,1.32-.25,2.47-.42,7.63.55,16.64,2.51,3.51-.43,1.89-.49.92-.55.74-.74.4-1,.18-1.9.28-.85L355,64.59l1.84-1.16,2-.8,1.5-.06,1.55,1,.74,1.23.92.8,1.78-.19,1.49-.79,2.53-1.78,1.6-.49,8.27.18,5.5,2.76,2.82.12,1-.67.23-.12,2.12-2,1.61-.61h2.81l2.76.61,1.32-.36,1.89-3,1.26-.62,1.49.07,1.78-.19,1.72-.43,1.38-.61,2.24-2,.69.12,4,2.76,1.2-.06,1.44-1.35.46-.31.46-.12.4-.24.28-.74,1.84,1.17,1,.18.92-.43.52-.8.06-.91-.23-2.39L424,48.92l2.46-1.1,3.33.3,2.53.68.63.49.4.61.34.49.64.06.23-.43.34-1.65.34-.68,1.27-1,.11-.06,1.38-.86,1.61-.67,1.43-.18,1.38,1.47,1.66,1,.06,1-.17.92.11.55.8.24.58-.18.51-.31.75-.06,2.24.24.74-.06,2.82-.85,1.32-.13,1.72.31,1.26-.24,1.72-2.39,1.84-.37,2.41-.92,1.78,1.53,1,2.82.29,2.94.23.86.34.48.4.43.46.62.29.36.8.49.35.31.11.55-.23,1.16.06.43,1.32,1.1,1.09.31,2.93-.06-.52,1.1h2l1.67.19,1.54.73,1.61,1.41,2.87,3.49,1.78,1.59,1.66.06.75-1.53-.23-1.9.29-1.41,3.21-.18,1.78-.61.8-.19,1.15.13,2.58,1.53,13.66,5.57,1.38-.24h.46l.23.24.63,1.1.34.37,3.16,1.41.34.12,1.61,1.29,3.56,4.71,1.6,1,2,.31,1.95-.19,14.06-4.34,2.18-.37.86.06.69.24.63.07.8-.31.75-.92.57-1.16.63-1,1.15-.43,7.4.49.81.31,1.72,1,.8.24,1-.12.57-.43.57-.55,1-.74,1-.3,2.87-.19L571,68.94l.86-.3,1.83.67,2.47,2.63,1.67.68,1.14-.25,2.13-1h1.15l1.14.18.92-.06,1.89-.92,2.24-1.4,1.09-.56L596.73,67l.57.19.52-.31,1-1.47,1.32-2.69L601,60l.46-.61.52-.18.4-.25.17-.86-.29-.67-1.15-1-.34-.49-.86-1.9.17-.67,1-1,.28-1.35.12-1.22-.12-1.23-.4-1.41-.46-.49-1.32-.24-.46-.37-.17-.73.12-1.66-.06-.79-.75-2.76-.51-.92-.69-.79-1-.43-1.2-.25-1.15-.55-.63-.85-.4-.56-.4-1.22L591.68,33l.05-1.53.46-1.35.58-.61.57-.19.57-.06.64-.24,2.23-1.72,2.24-.61,4.59-.12,1.84-1.72,1.2.13.69.36,2.24,2.45,1.09.86,1.78.49,3.21-.24,2.18-.25,1.5.49,2.29,2,3.22.8,1.43.61,1.38.31-.29,1.53-.75,1.34,4.77,3.49,3.78,1.84.87.86,1.6-2.27-.06.8.12.79.17.68.35.61-.41,1.29.35,2.75-.52,1.1.86,1.54.4,1.83.46,4,1.32,5.21.41,2.14v2.27l-.41,2.26-.8,1.78-1,1-1.61.18-1.78-.49-1.61-.86-.86-1-4.24,4.35-.92.12-.35.37-.22.43-.46.55-2.36,1.41-2.18,2-1.43.67-5.34.55-.92.8,1.32,1.9L615,83l-.34,2.09.23,1.83,1,1.9-1.6,2.33V92l1.26.37.63.49-1.43,2.76.22,1.53,1.15,2.39.75,1.16,2.24,1,0,1.23-.57,1.22-.75.61-1.26.12-.69.43-.23.68.23.92.86,1.1.81.36.23.37-.81,1.1-1.2.86-2.35,1.1-1,1,.23.49.52.74.06.67-1.09.31-.75-.12-.57-.31-.46-.49-.29-.61h-.52l-.69,2.14-.45.92-.64.61h-.57l-.06-.43-.46-1v1.1l0,.56-.35.24-.8.18-.06.49.12.19.23.06.28.06-.8.37-.23.37-.12.73.64,1.16L601,125l-1.26,2-.75,2.81-1.83,2.15-2.58,1.22-3.16-.3.23-.43-.92-1.66-.17-2.14-.52-1.9-1.83-.85v-.74l1.2.06,1.49-.24,1.32-.37.58-.49-.52-1.1-1.26-.12-1.38.36-.86.49-.34-.73-.23-.8h-.58v.8l.35.55.23,1h-.58L586.28,123l-2.64-1.59-2.75-.8-1.84.86-1.43-.37-4.54-.12-1-.61-.92-.13-5.91.49-3.44-.67-3.73-1.22-3.56-.68-3.1,1.17-.75-.19-1.72-.37-1.78-.91-1.2-1.11-1.32-.79-4.19-.92-1.44-.12L536,113.64l-3.51-2.45-3.44-1-2.81,2.63h-.57l-.06-.55L519,111.07l-1.78-.92-1-.8-.74-.12-.35-.3.12-1.29.4-.92.63-.67.86-.43,1-.18-1.55-1-1.09-.55-6.77.06-1.55.36.06,1.78-1.78,1.53-1,.61-1.26.12.63,2-.8.8-1.5.18-1.49-.06-1.15.37-2.69,1.47-1.38.37-2.35,1.65-2.53,3.18-2.64,2.27-3-1.22-3.16,1.34-1.6.06-1.61-.73.4-.25.06-.12.17-.3-2.92-1.54-1.78,1.6-.52.61h-.52l-.8-1.65-.86-1.47L470,115.54l.4-1.35-1.2-.61-.92-.8-.58-1.1-.17-1.53-4.13-.67-1-.37-.81.61-1,.12-.92.31-.75,1.1-1.78-.73-2.29.3-2,.92-1.61,2.39-3.73,3-1.26.67,1,.8.69,1-.12.86-1.78.43-.34.36v.62l.28.67.52.31,1.38-.07.74.19-10.84,6.18-8.49,4.78-3.1.67-3.62-.18-3.67-.92-9.41-4.84-1.67-.36-1-.25-2.75.31-4.59,1.83-1.9,1.23-1.78,1.47-1.09,1.71-.46,2.82.69,2.26,1.49,1.6,2,.61,1.2.79,1.43,1.9,1.15,2.27.52,2,.52.12,2.92,2.45,1.09.37,1.32.12,1.26-.12,1-.37.52,1.1,1.66,1.53.06,1-.69.43-5.8.67-1.26,1.29-.34,2,.63,2.82,3.5,5,.8.79,2.64,1.29.52.49,3.15.74.87.3,1-.37,2.3-.36.74-.62v-1l-.51-1.34-1.21-2.08.63-.74-.63-.73,1.72-.13,1.44,1.78,2.06,4.22,1,1.23,1.72,1.59,2,.86,1.67-.8.86.49,2.52.8.92.18.57.49.92,2.39.52.73,2.47.07,2.75,2.93,4.59,6.43,5.22,5.15.86,2.81L450.34,197l-3.56.79-1.61-.36-.63-1.53L444,194l-1.2-1.11-1.49-.73-1.32-.92L437.83,188l-1.61-3.31-2-2.82-3.38-1.53-6.78-1.16-2.41-1-2.12-1.47-3-3-1.78-1.35-1.15-.43-3.15.43-3-.79-1.26.06-4.3,2.08-1.9.37-2.46-1-.23.55-.58.92-.34-.07-1.44,2-.45,1.84.11,1.72,1.38,3.36.4.62.57.67,2.87,1.84.58,1.71,1.2,1.35,1.15.67.57-.18,5.74,2.63,1-.37,1.38.55,1.44,1,1,1.22,1.2.86,3.33,1.16.92,1.29-.06.92-1.09,1v1l.52.61,1.49,1,.29.8-.23.91-.63.13H419l-.28.42.23,1.17.51.49.75-.06.8-.55v1.1l.06.67.17.55.4.55-2.23,1.84-.35.92.86.92v.73h-1.6l-.81.68.23.67,1.55.06v.8L415,216l-1.67-.43.23-1.22v-.68H413l-.69.49-.57-.12-.23-.73.4-1.11-3-1.65-.51-.18-.4-1.17-.92-.73-1.15-.31-.63.49-.06.49.29.92-3.1-5-.4-1.22.57-1.72.12-1.1-.35-.43-.92-.37-.46-.85-.34-1-.34-.74-7.46-9.73L390,186.08l-1.6-.43-6.89-.55-4.7-2.63-3.85-1-3.39.12-2.81,1.71-2.06,3.55-.17,2.09.63,1.77.86,1.72.4,2,.23.67.69.31,1.66.12.8.24.46.55.81,1.35,4.47,6.25,2.47,2.57,8.72,4.65,5.63,1.29.23.67V214l.28,1,.81,1.29,1,.92,1.32.48,1.72.19,1.21.37-.63.73-1.55.8-1.61.36L387.9,219l-12.22-5.08-2-.31-6.26,1-1,.43.46-1.16,1.09-2,.23-1.17-.29-.92-1.2-1.65-.29-.61-.63-2.57-1.49-1.84-1.55-1.53-.92-1.65,1.15-3.43.4-4-.46-3.8-1.67-2.63-3.38-1.84-1.84-.73-3.1-.68-1.43-.85-1.38-.62-1.43.37-4.36-3.12-.87-.12-.86-.74-2-.49-2-.73-1.55-2.7-3.95-3-1.55-.67-1.5-.25-3.27.25.81-1.72-.69-1.71-2.47-3.12.29-.07H325l.17-.12-.06-.43-3-3.36-.74-1.78,1.83-.73,5.34-.31,2.87-.55,1.26-1,.52-.92,1-.73.69-1.11-.57-1.9-2-1.28-.52-.18-.4-.31.17-.74.52-1.22-1.38-2.69-1.95-1.41-2.3-.31-2.41.8.58,2-.17,1.65-.69,1.23-.86,1-1.32.67-.81.55.06.24-1.66-.06-.75-.18-.75-.55-1.6,1.1-1.09,1.29-.29,1.59.69,1.9h-.58l-.57-.74v1.47h-.57v-.73H313l-.34,1.22-.69-.06-.86-.67-1-.49-.05-.55-1.27.06-1.32,1.1-.11,1.29,1.61.91-.81.07-.51.24-.29.55-.12,1-.34.55-.75-.18-1.26-.8-2,.06-1,.43-1,1,1.21,1L303,164l.46,1.66-.23,1.53,1,.92.81,1.22,1,1,1.55.43.23,1.1-1.15,2.45-2.23,3.8-2.53,7.22v1.23l-3.21,6.73-.23,2.39.69,1.78.86,1.77.4,2.39-.35,2.39.23,1.16,1,.43.4.55,1,3,4.42,3.62.75.43.46.36,2,.68.45.36.18.43.74-.06.23.43-.11,1.9.06.43.05.12,1.09,3.8.58,1.28.91,1.16,3.16,2.64,1.89,1,1.15,1.16,2.13,2.69.8,1.41.75,1.78.51,2.14.17,2.27.41,1.65,2.52,6,1.95,6.25,1.21,2,1.09,1.1L336.6,259l4.3,1.71,3.22,2.45.28.24.35.43,1,3.19,1,1.34,7.11,7.84,1.09,2.21,4,3.73,1.72,5.63,4.19,8,.11,1.34-.86.55-2.69,2.45-1.61.55-3.21.43-1.61.49-1.21.55.41.25.4.24.34.19.58.12v.61l-.75.25-.63.36-.52.43-.34.43-1-.37-1.89.13-1.89.49-1.27.79-1.32.68-1.95-.13-3.38-.91.8-1.47,1-1.29-.46-1.41,1.15-1,2.75-1.28v1.34l-1.15,4.41,6-3.18.92-1.17-.58-1,.46-.36.81.06.46.24.23.49.63-.61.57-1.16.29-1.23-.4-1.1-2.18-3.55-.87-1,.35-1.72-.92-1.89-1.49-1.72-1.38-1.22-1.61-1.11-1.43-.55-6.54-.55-.06-.37.12-.42-.23-.56-.41-.61-.86-1.65-.46-.55-.57-.06-2.29.06-1.9-.43-.4.12.57,1V280l-.86.85-.28,1.23.23,1.22.91,1-2,.49-3.28.31-3.15.73-1.38,1.72-.17,4,.17,1.29L324,299.3h.52l.63-1.11,1.09-1-.34-1.1.46-.06.69.67.4,1.23.57-.74.75,1.72L329,301l.52,1.9,1.32,1.47v-.49l.06-.13h.23l.28-.12-.34-.67-.23-.74,2.07,1.35,1,1.78.8,1.83,1.26,1.53-.51,1.29.17.31.34.55-2.64,1.53-.63,1,.41,1.71,4.36-2.51,2.23-.73,2.59-.25v.61l-.69.8-2.76,1.47-.74.67-.35.74-.63,2.14-.34.74-.58.79-.34.31-.34.37-.64.55-.51.12-1.21-.18-.63.06-.57.49-.46.24-.69.06.34,1.11.23.36-1.2.12-1.72,1.05-.81.24-1-.24-1.09-.43-1.09-.31-1.15.25-.4.73-.4,2.39-.63.49-2.07.06-.69.43-.4,1-1.2-.06-1.9.43-1.83.18-.81-1-.4-.86-.92.31-1.55,1-.74-.31-1.38-.92-.46-.24-.17-.25-2.93-2.14-.69.18-1.49,1.05-.51.49-.69.48-.92.19-.86.06-.63.18-.58.49-.51.74-.35-.31-.86-.49v2.82l4-.61v.61l-1.55,1.1.74,1.23,1.67.42.86-1.28h.57l-.57,1.47,1.26-.06,1.09-.31,1-.12.69.49,4.13-2.08,1-.07,2,3.25,1.78,2.14.92.55.92,1,.68.31.69-.06,1.67-.61.8-.13,1.15.31,1.37.86,1.21,1.16.57,1.23,1.73-1.66.91-.43,1.38-.06.92.43,1.61,1.41,1.26.31,4.7.06,2.18.79,1.44,2,2.58,8.21,1.21,1.1,1.6.18.81-.3,1-1,1-.49,1,.12,1.15-.12,1.15-1.35-1.67-1-.69-.31,1.55-.67,1.55.37,2.7,1.65,1.38.49,2.75.37,1.61.61,1.26,1,.86,1.35.4,1.41-.23,1.28-1,1-1.2.55-1.1,1.05-.68,2.32.86-1.16,1-.06,1,.67.86,1,.91.74L367,364l1.21.49v.73l-.75.25-2,.06-.8.3-.69.8-.23.67.52.49,1.26.19,5.74-.25,8.43,1.41,1-.73.91-1.41,2.07,1.1,2.87,2.82-1.72,1-.63.3v.8l1,.24.86.43.34.61-.51.86v.68l2.58,1.28,4,6,3.1,2,1.26.06,4.82-.79,1.89,1.16,1,.25,8,3.3,1.72.31,1.55.49,1.32,1.22,2,2.58,4,3.12.69.73.34.68,1.55.61.35.86-.18.85-.22.8.11.73.92.8-.92.31-.46.79-.29,1.17-.11,1.34-.52-1.47-1.32.19-4.07,2.14.11,2.14,1.21,4.47.34,1.9.81,1.47.8,1.1.4.86-.23,1-1.15,2.2-.4,1.05v.91l.23,1,.12,1.17-.35,1.28.92-.06,1,.31.74.67.29,1-.35.55-2.58.92.63.74.75.49.92.24h1.2l-.57.74.46.12,1.26.55-.52.92-.11.73.17.61.46.56-.46.24-.34.25-.23.36-.12.62,2,1.22.63,1,.23,1.71-.11,2.21-.35,1.16-1.89,2,1.15.68v.73H425v.67l.52.06.11.31-.11.49.11.61-.11-.3-.06-.31h-.06l-.4.61,1,1-.69,1.17-1.43,1.28-1.15,1.53-1-.67-3.22-1.29-1.32-.24-1.43-.49-.58-1.29V448.4h-.57l-1.15.61-.74-1.9-.92-4.41-.35.31-.8.49-.63-1.72-1.32-1.71-1.55-1.1-1.15.24-.4-.37-.29-.24-.28-.25-.23-.61h-.52l-.46,2.21h-.86l-.92-.37-.63,1-.11-.74-.06-.55-.29-.24-.74.12.51-1.29-.34-1.1-1.84-2-.23-2-3.44-5-.29-1.47-1.43-.67-1.44.31-1.43.61-1.49.43-.06-.49.06-.19.8-.36.23-.31L390,425l-1.26.56-.74-.62-.64-.92-1.09-.48h-1.2l-1-.19-.86-.43-.64-.79,3.05-2.7.74-1.53-.63-1.84-.8-.73-.52-.06-.57.24-.69.19H380l-.92.24-.51.49-.46.49-.4.19-2,.12-.86.24-.86.43-3.22,2.82-1.37.67,2.86.74-1.72.67-6.65-.67-8.61.73-3.16,1.53-2.52,1.9-1.44,1.1-4,2-3.56-1.47-.75.31h-.69l-.74-.19-.92-.12-.29.55v1.17l-.11,1.22-.75.49-.52,1,.41,2,1.09,1.53,1.6-.3,1.5.73,2,.25,2-.25,1.43-.73,2.7,2.57,1.49,1.1,1.55.61-.4,1-.12,1,.12.86.4.74-1.15.18-1.55,1-1.89.24-.23.37-.12.68-.23,1,2.07,1.59,1.15.55,1.37.06-.8,2.39-.17,1.59.29,1.53.68,2.27H349.8l.23,2.26.34.92,1.78.67,3.39,2.58.57-.8,3.1,3,.4.12.4.06.69.37,1.72,1.35.86.55,1.15.18,2-1.22-.12-2.76-1.55-2.69-2.41-1v-.74l1.44-1.1,1.55-.67,4.3-.31.86,1.23-.4,2.75L369,464.5l-1.37,1.59.86.86.86.61,1,.43,1.26.18v.8l-1.66.55-.57.12v.68h.57l.69.3,2.18.43,1.89,1.23,1.67.55,3.9,3.18-.4.49-.18.18.18.25.4.49v.73l-1.67.92-4.93,1.59-.4.07-10,.42-1.43-.18.11.37.06.3.11.31.23.43-3-.43-1.15.12.17,1-2.86.68-.06,1,.63.49.86.06.86-.12-.57.73v.67l.69.07,1.55.67-1.27.61-1.55.18-3.15-.12-1.72.31-.06.86.74,1.34.81,1.72-1.78.36-1.15-.06-1-.36-1.26-.68v-.67h1.72v-.74l-1-.24-1.2.18-1.09-.06-.75-1.22,1.72.73-.4-1-.63-.73-1.84-1.17-.63.68h-.86l-.8-.49v-.19l-.23-3.24.17-1.29,1,.68.91.55.86-.8.64-1.41.11-1.53,1.84,1,.46.37v-.67l-.41-.92-.11-.68-.06-.91-.23-.62-.51-.24-.64-.18-.57-.43-1.2-.55-2.93.73L340,476l1.15-.67L340,473.19,338,474.42l-.81.61-.57,1-1.15-3.73-.86-1.35-1.43-1.29-.35-.12-1,.12h-.41l-.34-.36-.12-.43-.05-.43-.06-.25-1.21-.49-.74-.12H328l1,.31.35.3.34.8-1.66-.74-1.49.19-1.32.79L324,470.32l-.57-.62-2.35-1.53.23-.36.34-1-1-.49-1-.74-.51-.86.23-.79-.87-1.29-.86-.79-1.78.73-1.54.92-1,1.47-.29,2.57.18.55.8,1.23.17.61-.11.67-.41,1.23-.05.61.4,1.1.4.61.46.49.46.68.06.49-.06,2,.17.3,1,.8-.05,1.1-.58,1.35.06,1,4.36,5.14.75.49-.58,1.47h1.15v.61h-.57v.74l.92.79,2,3.56.58,1.89,2.87,5.09.28.3.69,1,.4,1.1-.51.49-.4.56-.29,1.34-.17,2.7.69,1.28,1.54.37,1.78-.24,1.15-.37v.43l.17.3.23.25.18.43-.58.36.12.06.46.25-.58.8L334,514l.69.85-.17.49-1.32-.49.8,1.84L336.2,520,336,521.2l.69,1.71.46,1.84h-.4l-.92.06-.4-.06.17.55.63,1,.35.49.17-.36.06-.07h.11l.23-.24.29,1,.11.86-.05.85-.35.86.86,1.35,1.67,4.1.63.92-.29.8,1.15,1.77,2.29,2.33.52,1.1.23,1.16-.34.92-.92.31v.67h.86l.69.19,1.26.55-.34.79-1,.74-.34.61-.12.55v.31l.06.3.06.55-.46,1.11-1.09-.07-1.21-.67-.8-.73-.69,1.16-1.09,1.1-.4,1,1.09,1-.17.37-.23.67-.18.37h2.3l-2.07,1.84.06,2.63,1.26,2.69,1.67,2.64.86,1.83.34.31,1.67.67,1,.74,1.55.73.35.49.23.49.34.37.8.12-.8.55-.34.13v.67l.51.55.06.55-.4.49-.75.49,1.44,2.08,2.52,1.53,1.84,1.66-.63,2.39-2.87-1.41-.86,1.1-1,.18-3.73-.92-.8-1.1-.57-1.16-1-.86v-.61l.52-1.41-.63-1.65-1.15-1.35-1.32-.55-3.56.73-1.72.07-.74-1.17-.35-1.65-1.89-4-.63-1-1-.92-3.61-2.57,1.2-1.23-.4-1.22L323,555.8l-.46-.19-.29.8-1.2,1.41-.35-.55-.11-.92.46-2.39-.18-1.59-.74-2.21-.63-3.73-1.15-1.78-1.84-1.1-2.35-.49-4.3-.06-5.28.61-3.79,2.08.11,4.41-2.75,2-1,1.41-.75,2.26h1.32l.8.74.29,1.22-.11,1.6h-.52l-.17-.74-.35-.73-.51-.55-.75-.13-.69.55-.46,1-.11.92.4.37,1.38,1.16-.4,2.08-1.15,1-.63-2.2-1.27.8-.45,1-.06,6,.23,2.32.51,2,1.61,4-.34.61.34.85-1.15.74-.34,1.1.23,1.23.69,1.16v.67l-.81-.06-.17.31-.06.49-.11.67-1-1.16L292.3,583l-.12-1.89-.4-1.54-1.2-1-2.93-1.17-1-1.41H286l-.86.86-.86-.18-.75-.8-.68-.92-.81-1.47.06-1.16.52-1.1.51-1.47,1.38.43.34-1.23-.34-1.71-.86-1,.46-.49.74-1.53h-1.72l.17-1.35-.11-1.59.29-1.23,1.37-.12v-.67l-1.6-.62.17-1.71,1.43-3.37-2.46.43-1.61-2.51-1.32-3.25L278,546.55l.11-2-1.32-2.63-5.85-8-1.78-.92-2.12,1.59L264.87,533l-.92-1-.4-1.54.23.07.4-.56.4-.91.17-1,.12-1.17.4-2,.11-2.82-.17-.73L259.53,520l-3.1-.19-1.55.43-3.15,2-3.16.86-1,1-.46,1.41-.86,9.79-.4,1.23-.06,1,.35,1.16.52.92.23.86-.52,1.22,1.43,1.41.86.55,1.21.18v.68l-1.15.12-1,.43-.52.67.29.86-.52.92-3.5,3.18-.46.49-.52.37h-.74l-1.44-2.94-.28-.24-2.59-5.27-1.49.12-1.26.31-2.12,1-1-1-2-.74-.51-1h-.52l-.75.49-.46-.79-.46-1.35-.68-1.1.34-1-.06-.86-.23-1-.05-1.47.28-1,1.09-1.71L228,531l.05-1.72-.63-1.47-1.2-.73-1.73.49.81-.37.29-.37,0-.67-.74-.06-.41.3-.51,1.17-.58-3.61-2.12-2.7-2.52-2.57-1.73-3.18-.74-4.05-.17-4.16.57-3.67,1.49-2.88,5.22-4.17,2.3-2.44,1.15-3.31-.35-4.16-.8-2.33-.63-1.72-5.68-10.71-3.16-4.72-1.61-1.65-7.23-5.08-1.72-.86-1-.92-1.61-2.14-.86-.74-4.94-1.47-1.66.49-.4,2.82h-.52l-.17-1v-1l-.17-.92-.81-.67,1-2.14.28-1.66-.23-1.77-1.37-4.72-.86-1.35-1.21-.85-3.61-2-8.84-2.64-.75-.61-.46-1.22.29-1.59-.4-.74,2.29-7.1h.58l2,1.71,3.61-1.65,3.67-3.18,2.19-2.58,1.14.43,1-.61.91-1.1,1-.8v-.79l-.34-.19-.06-.12-.06-.06-.17-.25-.81.31-.86.55-.68.61-.52.55,3.79-5.63.11-.67,3-4.66.35-1.1.17-1.35.17-6.18-.11-1.71.91,1,1.09,1.89.87.74-.06-1.23-.17-1-.41-.73.46.67,1.21.61,1.49.19,1.78.06,1.2.43,4.19,3.12,6.6,1.47,1.67-.31,1.66-.79,2.7-1.78,2.24-2.69,3.38-6.68,1.9-2.69,6.37-4,.74-.8,5.57,1.17,1.78-.06.8-.19.8-.43.81.74,1,.61,1.21.55,1.32.18,1,.37.51.92.35,1.16.63,1.17.92.73,2.47,1.17.91.18.69-.06.92-.49.4-.06.75.73.57.49.69.19.52.55.86,2.63.63,1.1.69.37,3,1,.29.24.28.49.52.49.63.25H274l3.62.86,1,.55,1.55-.68,1.32.86,1.38,1.29,2.58,1,.86.67.86.37.92-.37.63-.18,6.6,1.47,9.13,4.77,5,1.72.74.79.81.25L317.6,420l1.55,2.51.46.37,1.61.43,2.64,2.27,1.2.85,1.32.19,1.32-.25,2-.67h.63l.69.06.69-.06.57-.31,1.67-2.51.17-.55-.8-1.22-1.21-1.23-1-.55-1.32-.43-2.07-1.65-1.55-.12.29-.31.29-.18-2.82-.13,1.78-1.47.86-.55,1.09-.18,1.09-.43,1.84-1.84.8-.55,2.24.12,4.13,1.78,1.67-.49,2.47,1.1,2.75-.36,6-1.78,1.37-1.53,1.44-.37.86-.55-.58-1.22-1.32-1.23-1.55-.43-.05-.55.05-.92,1-.06,1.89-.49,1.09-.12v-.8l-.86-.06-5.8-.79-1.31-.49,1.72-1.41-2.18-2.33-1.15-.18-2.7,2.51-.86.3-2.93-.3v-.74h1.67l-1.09-1.59-1.15-.86-1.26-.36-4.88-.55-1.55.36-.92,1.53,1.15-.36,1.2.12,1,.55.57,1.16h-1.43l-2.53-.49-1.15.49-1.14-5h-.58l-.63,1.47-.11-.49-.23-.49-.17-.49-1.5.49-3.1.37-1.2.61-3.39-2.14.69-1.1,1.49-1.23.64-1.22-1.55-.68-3.16-.91-1.95-1.35-1.38-.37-.52-.31-.45-.55L309,384.41l.74-1.78-1.2-2.14-2-.86-1.67,1.9,1.49.18.12.8-.75.61-1.09-.49-1-.3-1,.85-.75,1.17-.4.79v.68l.46.24.23.18.35.19.57.12v.67l-.57.43-.12.19.17.3v.55l-1,1-1,.31-1.15-.37-1.38-.92-.06-.3-1-1.78-.12-.06-.28-.61-.23-.31.17-.18.92-.31-1.15-2.32-4-4.84-.74-1.59-.46-.55-.35-.19-.92-.24L286,373l.12,1,.4,1.9.06,1-2.3,1.77-.63.68.63.85.4.37h.35l.4-.49.34.92-.23.8-.51.67-.75.43.57.73-.45.86-1.27.06-1.6-.55-2.13-.37-3.15.37-.52-.61-1-.55-1.21-.25-.74.31h-.52l-1-.25-1.32.74-1.09,1.41-.58,1.71-.69-.73-.51-1.35-.52-.8-.8-.3-.69.12-.46-.12.17-1-1.26-.92-2.64-.8-4.36-1.9-1.61-.06-1.55.74-2-1.9-2.46-.12-2.41.91L243,380.67l-.74.19H241l-.68-.31-.41-.73-.4-.8-.51-.37-.75.25-4.13,3.43-.63,1.16-.23,2-.81.55-1.6-1-2.24-2.08h-4.88l-1.38.37-1.2.67-1.15.31-1.2-.62-5.34,3.86-1,1.9H212l-.81-.67-1.14-.25-1.09-.06-.46-.12-.58-.74-3.44-1.77,1.43-.37,1.32.73,1.27,1.11,1.14.67v-.74l-.4-.49-.17-.3.06-.49.51-.8-.8-.55-.34-.18v-.74l.34-.18.8-.55h-1.66l.52-1.41-.75.37-.75.18-.63-.12-.69-.43-.45.37-.41.18-.86.25.52-2.09-1-1-1.72-.43-1.55-.12-.63-.92-.8-6.24-1.78-2-1-.74-.4-.18-.4.06-.8.12.28.8,3.5,5.63H197l.17.37.06.06h.11l.29.25-.34,1.1-.18,1.16-.34.92-.57.37-.86.18-1.78.92-.58.37.17.43.12.06.34.18-.63.8-1.14-.74-.69.31-.23.67,0,.37.41.37-.64.79-1.2,1-.92.62-.57.12-1.67-.06-.69-.43-.63-.61-.63-.13-.69,1.17.46.36.52.25.63.12-.46.12-1,.31-.69.61-.06,1.1-1.55-.12-.57-1-.23-1.41-.46-1-1-.36-2.53-.07-1.09-.3,1-.43.74-.55.29-.74-.23-1.16-.86.49-.29.31.75-1.66.4-.55-.29.74.86.43,1-.62.74-.92.58-1.1-1.55-1.16-.63.06-.69,1.1-1-.43-.69-.73-.4-1.1-.23-1.23.23-.24h.12l.06-.13.11-.42.86,1,.92.49.8-.25.35-1.28-1.15.79.34-1.41-.74-2,.4-.91v-.8h-.8l-.58-.18-.92-.43.75-.49.4-.19.57-.06-.34-.24-.46-.37-.4-.18.8-1.66.23-.85-.11-.62-.81-.42-.63.36-.69.74-.74.3-.35.43-.91.74-.92.49-.46-.49-.17-.92-.81-1.53-.17-1.17.63-4.22.06-2.27L168.86,355,167.54,351l-.74-.86-3.28-.06-1.14-.37-1-1-.57-1.28-2-8.45-.8-1.66-1.15-.86-1.26.37-1.21,1.23-1,1.53-.57,1.16-.64-1.16-.45.18-.58.55-.63-.18-.92.73-.34-.43-.12-.91-.34-.8-2.87-2.27v-.67l.63-1.35.4-1.89.63-1.72,1.55-.73,1.78.06,1-.06.4-.37-.29-.67-.63-.56-.69-.42-1.83-.86-.69-1.59-.17-1.9.28-1.53,1-2,.45.79.52,1.72,1.38.92,1.6.55,1.61-.8,1.15-1.53.86-1.78h.57l.29.8.06.55-.06.43-.29.37.12.18.29.19.05.36-.46.68h1.67l1.43-.19,1-.85.46-1.9h.57l.8,1.1.81.06,1-.37h1.32l1.15.43.8.49.92.43,1.49.12.23.68-.29,1.47-.05,1.47.69.67,1.14.3,1.09.68,2.07,1.9.11-.92.18-.55.34-.37.57-.37v-.67l-.68-1.35.91-.61,1.55.06,1.38.8,1.95,2.26v.31l.52.24.52.19.4-.25.28-1-.68-.61-.29-.49-.23-1.53-.29-.12-.34.12-.4-.31-1-1.83-.17-1,.63-1.41-.46-.8.23-1,.63-.55.69.24-.06-2.44-2-2.7-4.25-4.1-.57.67-.35.68v.67l.4.73-1.14-.42-.41.18-.46.12-1.49,1.66,1.78,1.34-4.65-.61v-.73l-1-.25-1-.67-.75-.68-.4-.24-1,.55-.8-.49-.58-.92-.22-1h.17l.28-.43.69-.18v-.74h-.63l-.8.56h-.92l-.92-.43-.69-.92h-.63l-.46,1.1-1.49.8-.29.67.35,1,.92.18.4.49-3.5-.06,1.26-.55-.17-.73v-1l-.23-.74-.75.31V309l-.06-.24,0-.19.11-.12v-.55l-.74-.06-.41.12-.28.31-.29.42,1-2.26-.34-1.78-1-.61-.91,1-.52-.73-.35.73-.45.61-.69.43-.86.37v.8l1.2.24-.29.92-.05,1.16-.29,1.23-.63.79-.63.43-.63.55-.35,1.11-1.2-.8.05,1,.12.49.34.06.69-.06,3.9,3.06,1.67.8.52.73.17.74-.29.36-.69-.18-1.55-.92-2.47-.79-.51.12-.75.3-.06.49-.8,1.23-1,.86-.52-.8-.23-1-.63-.73-.58-.55-.28-.56-.06-.61-.23-.37-.17-.18-.12-.31.23-.67.41-.43.34-.3.17-.31-.8-3.55-1.61-2.45-2.24-1.84-2.69-1.53-2.7-2L128.12,295l-2.47-1.65-.8-.92.28-.92-.4-1-.17-1.23.11-1.16.46-.92v-.79l-1,.42-.86.13-.63-.31-.41-1-1.2.74-1.21-.07-1.14-.61-1-.79-2.35.91-3.45-1.65-2.69-3.12-.17-3.25L108,276.7l-.64-1.28-.91-1.05-2-.24v-.74h.58v-.61l-.69-.85-.92-1.6-.63-.49,1.44-.43H106l1.14-.24-.28-1.47-.81-.86-3.21-2.08v-.67l1.44.12,1,.24.8-.06.75-1v-.73l-.86-.61-1.5-.68-1.14-.06,0,1.35-.74-.67-1-.56-1-.18,1-.8-1.6-.36-1.44-.19-1.38.13-1.32.42.64-.85.34-1,.17-1.17L97,256.13l.64.73.57-.06.57-.55.58-.74v-.36l-.06-1.35.06-.55.11-.06.81-.55h.23l-.58-2.15-1.38-1-1.43-.36-.63-.55-.29-.43-1.32-1.1-.46-.19-.92-.24-.68-.49-.69-.8-3.68-.8-1.95-.73-1-.61-.46.12-.4-.12,1.37-.8,2.82.92,3.32,1,3.85,2,2.41,2.08,1.72.74,1.32-.31.29-.55-.06-.74.11-.85.64-.68.68-.24h.69l.75.24.75.43.22-2.32,1.27-1.17,1.6-.85,1.15-1.41.23-1.11-.23-.55-.46-.49-.34-.91-.12-.31-.63-.74-.23-.36.12-.31.51-1.29.12-.55-.23-.79-.52-.49-.23-.43.63-.74.69-.3.81.12.11.06,3.16,1.17,1.49.85,1.38.13,1.49-1.41.69-2.15-.35-1.83-3.9-6.19-2-1.9-.46-.61-1.26-6.43-.4-.79,1-.31,4.19-.12,1.44-.31.34-1.9.69-1.89,1-1.66,1.09-1.22,1.61-.74,2.76.31,1.32-.74,1.55-.36L131,204l2.13-.18,3.15-1.41,2.07-1L139,201l.34-.74,1.27-3.43.11-.48-.4-2-.06-.56-.23-1.16v-.61l.41-.61,1.26-.37.46-.31.91-2.57v-2.14l-.17-2.14.4-2.39.64-1,.91-.62.92-.42.69-.62.23-.55,1.32-3.12.92-1.65.34-.86.29-1.35-.06-1.1-.34-2.88.11-1,.75-.73,1.78-.43.74-.37.69-1.1.29-1,.46-.86,1.15-.73,2.23-.07,1.9.92,1.89.43,2.07-1.41.8-1.1.29-.49.23-.61-.06-1.35.52-.92.91-.61,1-.24.57-1.11.8-.61.75-.43.57-.61.46-1,.12-.86.06-.85.11-1.23.92-3.67.29-2-.12-2.08-.52-1.84-.86-1.53-2.23-2.57-2.41-2.21-.35-.79-.17-.86-.29-.8-.86-.67,1.44-1.59.51-2.27ZM430.83,742.25l-.52.85-.06,1,.35,1,.8.49v.68l-2.24-.12-1.89-1-3.33-2.33v-.61l1-.06.75-.31.63-.49.52-.55,1-.06,1,.18,2,.49Zm238.72-58.42,2.18-.61.8-.06.12.67-.52.37-.63.3.63,2.09v.61l-1.2.06-2.07.43-.8.31-1,.67-.74.67-.81.49-1.09.25-.74.3-1.44,1.41-1,.37-1.09-.43-.86-1-.46-1,.28-.43.86-.43,1.5-1.89.57-.43.29-.31.57-1.47.29-.31.69.13,1,.49.4.06,3-1.23Zm-54.92,11.76-.75,1.9-1.2,1.16-1.44,1.1L610,701.22l1.55,5.27,1.26,2.26,1.84-1.22-.8,1.53-1.38,1.65-.86,1.59.75,1.41-.58,1.9-.8,1.84-.86,1.65-.92,1.23-.4.85-.86,2.45-.46.49-1,.19-.86.42-.75.43-4.82,2.21-1.2.24h-2.3l-.17-.24-1.2-1.35-.63-.43-2-.37-1.66.25h-1.55l-1.49-1-.75-.67-.69-.19-.68.19-.75.67-.63.12-3-.49-3.56.74L571.65,727l-17.39-.8L549,727.86l-1.26.79-1.44.49-7.57-.92-5.68.19-1.61.43-2.06.3-.75.37-1.26.86-4.77,1.83-1.32.31-4.76-.43-1.83.43-.52.31-.69.79-.57.25H512l-.52-.25-.46-.3-.69-.13-1.49.13-1.21.24-2.18.92-1.32-.49-1.66-.18-20.54.67v-.61l1.09-.86.28-1.16L483.1,728l.12-1.23.51-2-.05-1.41-.29-1-.46-1.35-.63-1.23-.63-.55-.46-.24-.4-.43-.58-.49-.86-.24-7.46-.13-2-.43-1.2-.73h-.52l-.8.31-.92-.86-1.78-2.27-1.15-.79-1.49-.8-1.66-.37-1.44.62-5.05-2.52-.11-1v-.61l-9.18.92-6.31-.92-.35-.3-.4-.49-.35-.43-.05-.25-.58.06-.46.25-.34.3-.4.19h-6l-1.49-.74-.75.06-.34,1-.35-.06-2.23.43-1.55-.67-2.36-2.94-1.32-.67-7.17.24-3.5-.55L405.52,702l-.69.55-.52.24h-.51l-.58-.18-1.43,1.22-5.91-.24-2.36,1.1-1.2-1.16-4.94.24-1.95-.43-.4-.61.17-.92-.34-.55-.63-.37-1.15-.12-.52-.24-.68-.68-.52-.79-.63-.68-1.09-.61.63-.67-.35-.06h-.17l-.11-.19v-.43l1.26-.67.52-.12H382l.11-.31v-.18l.06-.12h.4l-.51-.74-.4-.8-.12-.85.46-1.17-.63-1.77.92-2.33,1.32-2.26.69-1.6-.18-.67-.4-.61-.4-.43h-.17l.11-.67.81-2.58.57-1,.06-.73-1-.67v-.62l.41-.55.17-.18-.17-.25-.41-.49,1.27-2.57.28-1.22-.34-1.17,1.66-2.75.41-1,.22,2.08.06,4.17.52,1.71.46,1.1.28.25.69.06.63.18.12.43-.12.43.23.37.69.36.81.25,2,.12,1.61-.31,1.32-1,.8-1.71.18-2.45-.46-2-.75-1.84-.29-1.53.92-1-.8-1.77-.23-1.47.4-1.29.92-1.35,1.26-1.22h.69l.8.73,1.61.8v.79l-.92,1v1.28l.92,3.25-.11,2.57.11.79,1.72,3.19,1.49,1,7.06.73,2.3.68,1.32-.43,4.7.49,2.07-.06.86-.25.75-.43.57-.73.17-1,.35-.8.92-.3,2.18.18-1-3.67,2.76-1.17,3.78.43,1.9,1.16,1.72,4.47-.23.74-.4.31-.69,1.4-.4.49-.75.37-.86.19-1.78.06-3.27-.74-1.83-.06-1.21.8.4.85,1.44.92,1.6.74,2.47.73,2.76,2,1.37.43,1.49-.31,1.5-.67,1.37-.92,1.15-.92,1,4.72.11,1.9-.17,3.61.17.92.63.49,1.72.12.81.43,3.1,1.1,7.34-2.14,3,.73,1.78-1,6.83-1.22,2.24-.74,5.22-2.69,1.78-.55,1.84-.37,1.83-.06,8.32,1.47,1.73.92.8-.62,1.43-.67,2.36-.8,5.22,2.09.52-.62.28-.24.23-.37.12-.86,4,1,.91,1.17,1.5-.25.51.19.12.67-.23.55-.29.55-.11.61.68,2.58,1.78,1.1,2.53.18,3.9-.24,2.35-.55,1.32.12.29.24.4.43.58.49.74.19H525l4.6-.74,2.12.61,1.2.13,1.27-.74.57.74.63-.74,1.55,1.47,1.15,1.59,1.43,1.35,2.41.55,2.36-.31,13.14-4.95,1.78-.31,1,.18,1.78,1,1.26.19h4.94l-.63,1.4-1,1.17-1.89,1.65.63.67-.52.92-.11.8.34.61.86.49-.11-1.77.4-.8.69.12.69,1-.46.68v.36l.46.43L567,702l-.4-.37-.29-.06-.4.24-.63.8.23.92-.69,1.16-.63,1.47.46,2.08-1,.86.12.86.57,1,.35,1.1.28,2.08.87.24,1.2-.24,1.44.67,1.09.86,1,.31,1.83-.13,1.1-.61,1.43-2.88,1-.61.68-.06.52-.12.8-.61,1-1.78.11-.31,1-.24,2.75-.18,3.1-.62.57-.24,2.64-1.72.81-.73.57-.43.8-.18.58.12.46-.06.46-.61h.57l1.21,1,3.21.85-1,1,1.78,1,2.13-.18,2.06-1,1.55-1.16-.46-.19v-.12l-.11-.43,2.29-2.14,1.61-2.21,1.84-1.59,2.87-.31-.64-1.34h1.21l-.17-.37-.23-.73-.17-.37Zm74.66-20.88,1.78,1.71.34,1.1-.4,2.15-2.12-.55-2.18.85-1.61,1.9-.4,2.63.17-.3.17-.31.29-.18.57.12-.46.8-.63.79-.86.68-1,.49.57-1.66-.69-.61-1.15-.12-1-.37-.75-1-.57-1.1.06-1,1.26-.43v-.61h-.57v-.74l1.37-.36.12-1.05-.92-2.81.06-1.41.23-.92.11-.73-.4-1.11L680,670l-2.18-1.34-.57-.86.11-1.35L678,665l.75-1,.52-.43,2-1.22.69-2.57.4-2.64,2.18-2.51.63-2.94.06-3.06-.46-1.77v-.68l1.2-.79h.52v.79H687l.46-.61,1.26-1.53.75-.61.63-.12.46.24.46.49-.29,1.35-1.14,1.9-.29,1.28V651l.11.92.46,1v.92l-.46.73-1,.92-1,1.23L687,658.3l-.34.92-.8,1-.81,1.22-.34,1.78-.06,1.53.17.67,2.18,1.65,2.07,3.68.52.61.45.31-.34.67-.63.73-.35.25-.05.73h-.06l.17.07ZM359.5,636.32l1.54,1.22,1.67.61,1.2,1.53.23,3.62h-.57l-.46-.92L361,640.23l-.69-1.16-.52-1.22-.8-2.21.4-.06.06.18V636Zm-22.33-42,5.51,3.86,1.44,1.65.8,1.78-.52.43-1.26.06-1.38.61-.63,1-.34,1.35-.23,6-.4.18-1.27-.12-1.49-.43-1,.18-1,1-.29-1.47-.86-.67L332,609l-.12-.31.12-.43v-.37l-.29-.18-1.2.06-.23-.06-.46-.67-.81-1.66-.46-.55.69-5.75-.05-2.33-.64-2.39-.45-1.1-.29-.92.17-1,2.58-4.41,1-.86,1,.62,3.33,6.12Zm228.4-7.71,1.14-.43.81-.86.74-.55,2.93,1.22,2.7,2.39,1.66.31-.69,1.35-.74-.19-.81-.73-.92-.43-1.32.24-1,.43-1.09.31-2.18-.43h-.4l-.23-.06-.58-.8-.34-.67-.17-.74Zm209.91-5-1.15,1.53.86,4.59-1.72,1-.4.61-.52,3.55-.63,1.1-1.83,2.21-.4,1.28-.18,2.88-.46,1.23-.74.49-.52.67-1,3.18-.46,1-.23-.06-1.49-.06-.52.12-.23.43-.17.74-.29.67-.8.25-2,5,.75.55.69.36.63.25.86.18-.23.86-.35.67-.51.68-.63.67.34.43.8,1.65-4.36-1.41h-1.78l-1.95.68L751,621.93l-1.32,1.34-3.39,5.45-2.41,3.19-3,2.75-3.9,2.45-3.45-2.39-.57-.18-.17-.67-1.55-3.19,1.09-1.47,2.41-7.1.51-2.57-.23-2.27-.86-1.22-1.14-.86L731,612.93l-.11-.56.51-.79-.11-.43-.75-.61-.57.06h-.46l-.58-.86,1.38-.55,3.27-2.27,2-.67.75-.55-.4-.86.68-.55.18-.61,0-.67.18-.92.57-1.29.57-.92.75-1.59.4-.43,2.47-.67.4-.43.63-.86,2.76-2.88.63-1.16.8-.73,5-1.72,9.36-5,1.26-1,2.75-1.34,5.46.36,2.52-3.18.75-.06.69.61.74,1.16ZM535.9,576.86l3,.92,2.87,2.08,2.24,2.63,1,2.76-.17,2-.81,2-1.26,1.59-1.55.61-1.66-.18-3.9-1.1-1.55-.8,1-.49h2l1-.18.81-.68.8-1.59.69-.55-.58-2.69-.4-1-.74-.55V581l.46-1.28-1.21-.68-3.27-.91v-.68l.4-.18.4-.31ZM704.78,581l-.74,1.84,1,1.1,1.78.12,1.49-1,.29.3.12.37.11.73-.46,1-.92.92-1,.55-1-.36-.4.49-.74-.49-1,.18-1.09-1.16-.63-1.72.46-1.53-1.15-.61-.91.24-.81.8-.57,1H698l-.46-.92-1.09-.73-.17-.86.06-2,.17-1,.29-.86.8,1.59,1.26-.42,1.38-1.17,1.21-.61,1,.73,1.09,2.88Zm-86.71-20.39,2.59.13,3.15,1.83,2.41,2.27.58,1.41-.52.49-.46.12-.4-.37-.46-.92-1.21,1.11-1.2.36-2.41-.12-1.15.37-.86.92-1.2,2.32-.06,1.35.11,1.22-.63.68-2,.18-1.37-.61-1.61-2.69-1.38-.86.23-.74.12-.24.28-.43-.74-1.16-.23-1.47.4-.86,1.15.67,1.2-.73,1.44.86,1.43,1.28,1.09.67.75-.36.86-1.41.46-.31.92.13.74.18.63.06.86-.37-1.14-.61-.46-1,.34-.86.06-.3-.92-.31-.75-.55-.63-.61Zm126.42,5,.06,1.17.12.91.4.74-.81.49-.34.18.4.19.35.3.23.43.17.55-1.9,1-1,.31H741v-.67l.46-.25.75-.73.57-.43-3.67-1.23-1.15-.73,1.32-.92h-4l.58-.92.92-1.1.74-1,.12-1.1.34-.07.29-.12.51-.61v.8l1.38-1.78,2-1.1,1.61-.19.17.92-2.35.68-1.09.73-.58,1.41.75-.31H741l.63,1.11,2.87-2.27.18.43.05.06.06.06.29.25-.46.36-.29.37-.23.43-.17.31.57-.43.23.12v.61ZM492.8,557.82l6.72,4.16,1.32,2.27v.61l-2.19-.12-1.26-.49L495.1,562l-1.32-.86-1.32-.55-1.15-.92-.8-1.83,1.77-.06Zm23.36-5.64,3.27.06-.23.31V553l.06.55-4.54,4.72-3,2.45-2.18-.13,3.16-6.3,1-.37,1.67-1.47Zm-283.54-3.49,1.32.68.11,1.1-.29,1.65v2.21l-.51-.68-.29-.24-.23-.37-.11-.86-1.15.8.46-2.94.28-1.16Zm227.18.68,3.22-1.72,1.72-.43,1.09,1.47-.23,1.11.23,5.57-.75.79-1.6.8-2.81.86-10.05.18-3.15,1.29-.35-1.47.69-2.27-.34-1.22.34-.31.4-.61.4-.43-.8-.61-.34-.19.8-.79.69-1.84.8-.86.4.55.52.56.63.55.75.42,1.15-.24,1,2.94,1.61.86h2.87l.92-.55-.23-1.11-.81-1.16-.74-.74-1.15.62-.8-.62-.69-1.16-.86-.92V548l1-1.1,1.09.61,1.44,1.22Zm14.06-4.23,1.21.55.8.86.17,1.1-.74,1.41-1.21.31-1.26-1-1.78-2.45,1.15-1.41,1.38.06.46.18Zm52.91,7L527,552l.11-.06.12-.12.17-.31-.75.06-1.61-.06.46-1,.41-1.41.22-1.28-.17-.56,3.68-2.81,1.09,1.34,1.37,2.52,1,1,1.55.79,1.49.49,1.26.74.86,1.59-1,.18-.57.68-.06,1,.46.91v.68L535.15,559l-2.92-1.47ZM226.88,550.1l.11-3.67.29-1.53.75-1.11.4.25.34.31.35.18.57-.06v.67l-.34.19-.41.3-.34.25V547l-.52.92-.69,1Zm244.17-9.8V541l-.69.73-2.29,4.1-1.38.19-1.38-.43-.63-.8-.23-1.16-.46-.73-.28-.68.46-1.22.63-.74,1.14-.61,1.21-.37,1,.31.52.43.46.24.57-.12.69-.55.12.31v.18l0,.12Zm68.29.31.63-1.16,1.38-1.41,2-1.35H544l-.63.8.46.06.17.24-.06,2.58-1.66,1-1.95.24Zm155.74-7.71.92,1.65,4.13,1,1.27,2L698.64,539l-9.12,2.57-2,1.16-5,5.33-1.78.24-2.18-.3-2-.68-1-.73-4.65,2.2L669.49,550l.86,2.14-1.2.37-.46,1.1,0,1.41.52,1.35-1.49-.31-1.49-1.1-1.15-1.41-.46-1,.17-3.55.52-1.53,1,.55.41-.61.91-1,.41-.55.46.36,1.83,1,1.15-1.1.69-1,1.09-2.14,2.87-2.45.51-.67,8.67-5.33,8.49-1.35Zm-140.19,2.44.52-1,.86-.49,1-.43,1-.91.8.43,2.12,1.71-.86,1.16-1.66.06-1.9-.36Zm33.29-5.63,1.14,1.41,1.38,1.22,1.55,1,1.66.55.06.49-.11.13h-.23l-.29.12-1.43-.61-1.5.3-1.37.49-.86-.18L587,535.83l-3.56,2.58-1.2.49-1.09.85-2.36,3.86-1.14.86-6.77,2.26-3.62.31-1.38-2.57,1.15.67.63-1.1,1.15-.8L570,543l1,.79h.57l.58-.55.74-.18h1.9l.34-.37,1.15-2.39-1,.49-.51-.61-.12-.86.12-.42.92-.19,9.69-4.84v-.61l-.51-.24-.29-.25-.34-.18-.64-.12v-.68l2.3-.67,1-.61.69-.8Zm-77.53-1.41-1.21-.3-1.6-1.41-1.38-2-.4-2,.8-1.47,1.49-1.29,1.61-.79h1.26l-1.49,5.45-.8,1.65.51.49.46.49Zm-31.56-8.51,1,1.53,3,3.55,1.09,3,.11.74L484,529l-1.14.61-.29.37-2.93,3.24-1.2-2L477,528.43l-.8-2.82.57-1.53v-.74l-.86-.73-1-1.72-1-.36.06-.49.12-.31.46-.67-.35-.06H474l-.06-.13-.06-.49H475l2,1.66.8.36.69-.61ZM664.15,529l.69-1.35.4-.43.58-.37-.52-1.53.35-1.28.74-1.11.58-1,.17-.18.28-.55.23-.67-.17-.74-.69-.55-.68.06-.58.37-.29.12-.63-.67-.4-.55-.74-1.6-.64-.67-.63-.18-.23-.49.35-1.47,1,1.28,7.06,2.94v.68h-1.09l.8,1.4,1.09.62.87.67.11,1.59.69-.85.75-.37h.68l.75.49.23,1.16-.57,1.84.34,1.22-.4.68-.12.3-.11.49H675v-.73h.52l-.58,1.47h-1.43L671,528.3l-.4.61-.17.92-.23.8-.63.37-.81-.19-.68-.3-.58-.06L667,531l-.64-.92-.68-.8-.69-.43Zm-92.62-16.23-.11.43-.06.12h-.06l-.34.25-1.66-2.88,1.43.06,1-.37,2.07-1.1-.23.73-.29.68.75,1,.4.37-.46.79-.63.49-.8.06Zm-44.18,5.63-.92.31-.52.61-.34.86-.58,1-.57.73-1.09.92-2.3,1.72-1.37.36-3-.18-.8-.3-1.78-1.54-.86-.3-.69-.55v-1.17l.81-3.92,1-1.22,2.58-1.59-.57-.37-.58-.18-.57.12,1.2-1.71,2.41-2,2.59-1.47,2.46-.8-1.26,1.78.69.73,2.3.37,1.14-1.41-.23-.43-.34-1,1.15-.12,1.09.12-.12.8-.28.73-.35.74-.34.61-1.44,3.49v1.47l1.44.67V517H526.2v.8h1.15ZM548,503.2l.63-.43,1.37.67,2,1.59,1,1.84.52,1.84.22,4.41-.17,2-.8,4.22-.23,2.27-2.35,5-.41.37-.63.12-1.14.49-2.93,2.81-1,.37-1.55.43-1,.61-.17-.67-.35-.12-.57-.62-.35-.73-.51-2.08-.29-.74-.52-.67-2.35-1.41.4-.55.06-.61-.23-.61-.52-.68-.4-.79,0-.86.11-.67.06-.19-1.26-2.51-1-1.22-1.15-.55v-.62l.52-.49.4-.18.34.18.41.49.86-.67,3.15-3.55,5.45-3.92.52-.61,1.21-2.21.63-.24,1.66-.19ZM457.22,505l-.63-.73,2.7-1.71,1.49-.43,1,.67h.58l.4-.55.4-.06.52.18.46.43.46,1.47.22,1.84v2l-.17,1.83-.51-1.47h-.64v1.29l-.28.92-.63.73-.81.62-.17-.31-.06-.12-.11-.12-.23-.25-.06-.43.17-.12h.23l.23-.06-.69-.43-.74-.18-.75.12-.69.49-.17-1-.23-.43-.28.18-.46.55-.69-.42h-.63l-.58.42-.46.68-.28-1.23.23-.24.74-.68-.57-.55-.06-.49.4-.49.69-.55-.29-.79.18-.31ZM347,493.71l.45.36,1.44.8.63.61.34.68.18,1.1-.23,1-.86.43-1.73-.37-1-.92-.8-1.16-1.26-1.1.57-.68.69-.43.74-.24Zm38.44-8.51-1.32,1.28-2,.86-2,.37-1.55-.37.34,2.08-1,1-1.72.31-1.9.06-4.82,1.35-1.83.06v-.74l7.51-4.9,2-.67h3.73l1.72-.73ZM450.91,481l.57-2.75,1.73-1.9,2-1.53,1.38-1.6h.63v1.47l-.17.8-.57,1.47-.35.49,3.27,2,1.09,1.53-.4,2.2-1.2-.36-.86,1.16-.58,1.84-.23,1.59-1.15,1.16L454.58,490l-1.95,1-1.72.43.69-3.61.74-1.71,1.44-1v-.68l-.4-.18L453,484l-.4-.18v-.68l.69-1.1-.17-1-.86-.49ZM537,480.3l-1-.13-6.37.8.22-.8,0-.3-.06-.19-.11-.42.22-.8.41-.24h.4l.17-.07.46-2.45-.34-.85-1.32-.19.51-1.59,1-.67,1.09-.49.86-.86,2.47,4.16.4-.24.28-2.08.87-.43,2.58.73.34.25.46.49.63.49,1.61.55.23.67-.17.92-.52.86L541,478H539.4l-1.32.43-.46,1.9Zm-37.88-1.78.23.25.52.36.57.49.41.68.22,1.1-.22.61-.58.49-5.11,2.63-1.2.8v-1l.06-.73.17-.56.34-.55v-.73l-.51.06-1.78-.06.23-.92.34-.8.52-.61.63-.49-.35-.12-.8-.55,1.61-.37.92-1.35.4-1.77-.06-1.47-.52-2.27,0-.85.8-.07,2.07.31.8.86.75,1.47.57,1.53.23,1.1-.23.74-.8,1ZM376.25,466.09l.35-.06.11.12v.31l.12.37.63,1,.74.67.92.37,1.15.12v.67l-1.61.92-2.12.31-2.12-.31-1.61-.92V469l2.35-.61.92-.74Zm135.26-2.75-.86-.43-2.81-3.19-3.22-1.47-.92-.61-.57-.86-.57-1.22-.23-1.29.28-.92,1.09-.3,4.65.3.35.19.8.49v.73h-.57v.74l.8.06.63.31.52.42.34.62,1.38-.92,1.55.18,1.43.92.81,1.22,1.32-1.53,2.29.49,2.58,1.17,1.9.61-.58.67.69.25.46.67.35.86.23,1-2.07,2.82-.63,2.63-.92.49-3.9-.61-2.3-1.47-1.43-.31-.81-.43-1-1.9Zm-60-10.72,2.3,3.12-.57,3.25-2.13,3.06-2.47,2.63-2.35,3.25-1.61,1.28-1.54-.61v-1.47l.4-5.14-.12-.92-.05-1.9,1-2.32,1.38-1.6,1.26.25.57-.68L448,454l-.86.06L447,454v-.68l.8-.48.75-.25.69.12.57.61h.58v-.61l.28-.12.35.06Zm166.59,0-1.49,2.76L614.46,458l-7.4,6.49-1.44.61-7.17,1-1.67.74-.86.61L594.26,469l-.92.61-.8.25-.58-.06-.69-.13-1.09-.06-3.27.86-1.2-.31-.35-2,.64-1.34,2.75-2.7.63-1.16.52-1.53,1.32-1.66,1.55-1.4,1.14-.74,2.07-.12,4.82.61,1.78-.49,1.66.55,2.53-.73,2.24-1.29,2.23-2.45,2.76-.79ZM382,443.5l1.43.61-.51,1.1-1,1.29.11,1.22-1.15.86-.23,1.1.06,1.23-.4,1-.69.43-1.89.55-.86.42-.69-.61-.4-.3-1.21-.49v-.68l1-.61-.06-1-.75-.92-1-.36-1-.68-.63-1.47-.23-1.47.11-.67Zm293.53,4.9,1-.68.52.49.11,1.1-.46,1.17-2-.62-3,.62-7.63,3-.74.49-.92.79-.52.74-.17.55-.23.43-.8.43-.75.12-5.28-.12-.86-.25-.34-.67-.18-.8-.34-.79-1.38-2.15-.8-.73-2-.49-.86-1-.69-.19-.75.13-1.32.42-2.23.31-1.38.61-1,.86-.46,1.22h-.63v-.73h-.52l-.92.92-.74-1-.52-1.72-.17-1.34-.06-2.45.29-1.23.91-.92,1.44-.42,1.49-.25,1.21-.49.46-1.29.68-.79,9.53-2.21,2.93-.06,3,.55,1.15.68,2.18,1.77,2.93.8,3.21,2.14.92,1,.34-1.16-.51-.86-.81-1L667,442l1.37.43h1l.86-.43.8-.8.06,1.29,2.24.67,4,.31-2.41,1-.46.3-.12.86.35.74.46.79Zm-515.27-6.8,1.44,2.82,5.74,3.67.8,3.18-1.09-1.34-2.41-1.23-2.81-.79-2.3-.19-1.2.55-.81.92-.51.92-.58.37-1.09.55v1.22l.46,1.17.35.61-.18,1.35-.34.67-.92.18H153l-.57-.49-2.58-3.12-4.14-3.37-1.95-2-.23-1.71-1.77-1.59-3.22-4.23-1.89-1.22.57-1.23-.4-1.71.52-.68-.69-.67,3.38-4.78,2.13-2,1.95.49.06.31.05.24.35.49-.06.19,1.72,3.24.69,2,.86.8,2.07,1.16,2.64-.61,3.5,1.35,3,2.32Zm342.94,2.51.23,1.47-.75,1.9-1.2,1.77-1.15,1.23.17.43.35,1.71h-.52l-.63-1-1.95-1.41-.92-1-1.55-4.35-.46-.67-1.26-.12-1-.43-.86-.8-.92-1.16L489.47,439l-1-.68-1.38.86-.52-2.94-1.55-1.9-1.83-1.47L482,431.31h-.58l-.57,1-.75.31-.29-.55.46-1.47-.74-.86-1.15-1.84-1-.85,1-.31.11-.49-.34-.67-.23-1,.29-1,.74-.74,4.59-2.45,1.84-.36,1.26.61-.11,1.1.17.67.52.31.8.06.86.31.81.79.34.74-.29.3-.05.56.63,2.26.23.67.68.43,2.19.92H500l.81,1-.41,2.08-1.32,3.43,3.5,2.88-.57.43-.23.12-.34.12,0,1.35-.51.86-.63.67-.06.74.57.55,1.32-.49ZM370.46,430.64l-.52-.8v-.61l.57-1,1.15-1.1,1.38-.74,2.47.8,1.09-1,.86-1.53.46-1.1-1,.06-.75.55-.63.61-.74.24-.75-.12-1.55-.61h-.92l2.93-1.41-1.09-.61-1.21-.86.92-.12.92.06.86.25.75.55.17-.74.17-.18v-.06l-.34-.43.63-.49L377,420l.74-.06,1.9.31,1,.43.57.67-.45.8,0,.55.23.73.46.61.57.37-.17.12.06.49h2.3l-2.87,1.41.34,1.11-1.84,1.53-.28,1.59h-.52l-.86-.8-.8.61-.86,1.11-1.21.55-1.26-.12-2.58-.8Zm-224.27-17-1.26-.37-1.09-1-2-2.33-2.35-1.35-3.27-.91-2.81.42-1.32,2.64-1.55-1.23-3.1-.92-1.15-1.4-.23-.92-.17-1.9-.17-.8-1.38-2.32-.34-1.17,1.09.31,1.37,1.35,1,.49v-.74l-1.32-1.28-.8-1.6L123,393l-1-1.53-.86-.31-.57,1.78v1.71l.69,3.43-.12,2-.8,1.84-1.09.74-1.15.55-1,1.16h-.52l-.51-1.78-2.41-1.4-.52-1.84.34-.86.64-1,.51-1-.11-1-.35-.86.17-.73.52-.61.52-.31,1.15-1.23,1-2.75.51-3.37.18-3.24.46,1.47.11.61h.57l1.15-2,.63.73.63,1.9,1,1.53.69-.86.34.62.29,1.1.69.55.86-.31,1.49-1.53,2-1,.75-1.71,0-2.15-.74-1.83,1.72.73-1-3.49-.12-.79.17-1.35.29-1.17.06-.91-.52-.92v-.61h2.87l4.53,12.67.18.86-.18,1.59-.45.86-.81.73-1,1.1.68.92,2,3.74,1,.43,1.15-.92,1.14-1.35.92-.67-.17.36-.23.68-.17.43,1.61.3.51,1.11.17,1.4.58,1.41,3.56,3.19.91,2.69,3,4.1.63,1.59.23,1.66-.29,1.77-.8,1.72-.46.12-2.18-.49L148,413l-.92.49Zm-1.49-34.23,1,.3.92.49,1.55,1.35-.4-.06-1.26.06.51,2.82.52,1,1.15.49v.73l-2.3.31-1.37.49L143.9,387l-1.55-1.9.63-.73-1.2-1.29-1.15-1.59L139,378l-.17-.8-.23-2.39-.23-1.1-.63-.61-1-.61-.57-.92.46-1.47,1.32.86.74-.55.86-2.45,1.44.49.17,1.28-.46,1.47-.63,1,1.44-.12.91.43.75.61.92.55-.52,2.15-.63,1.83-1.72,3.19.63.43.86.24,1,.12,1-.12v-.67l-1.15-.74h1.73Zm18.88-22.11-1.78,2.64-.86,1.65-.17,1.47h-1.15v-.8l3.22-4.84Zm437.85,6.43L600.34,365l-.11,2.08-.41,1.84-1.89.55.63.92.4.24.69.25-.51.61,1.49.06.06.67-1,1.47-.23,1.59,0,1.29.91,7.84,1.15,4.28-2.24.31-2,1.59-1,2.33.86,2.51V397l-2,1-4.07,1.29-.64,1.1-.51,2.33-.52.79-.86.31-1.72-.8-1.21-.18-.86-.61-1.83-2.39-.35-.18-.34.12-.81-.8-.8-1.22-.4-1.29-.4.25-.92.24-.4.19.06-.68-.12-1.47.06-.67-1.38.86-.63-.62.11-1.47.75-1.65.8-.67,1.09-.37,1.55-.37.46-.3,1-1.11,2.06.13.46-.13.52-1.22.06-1.29.34-1.1,1.38-.67-.4-1.17.17-2.51-.35-1.34-.11.43v.12h-.12l-.34.18-.4-.79-.52-.62-.63-.43-.75-.3.46-.92,0-1.41-.41-1.53L583,373l-1-1-.92-.31-1.09-.24-1.49-.55-1.21-1.05-2.69-3.3-.75-1.35-.12-1.59.41-1.16.63-1.17.28-1.47,12.28-2.51,1.73.25,4,1.22.23.74,3.5,4.22.23-.49.12-.43.23-.36.57-.19.06-.43-.12-.18h-.17l-.29-.06,1.27-.43,1.09.31.92.85Zm-48.2-7.22.57.85,2.24,2.09.06.49L556,360h-.23l-.34.12-.63,3.67-.17.62-1.15-.19-.92-.36-.75-.07-.91.62-.29-.92.17-.74.23-.55-.11-.67-.35-.49-.92-.92-.46-.73-1-.86-.46-.55.29-.74.57-.24.52.18.4.49.23.31.46-.74.63-.55.69-.06.51.61h.52v-.79Zm-419.43-.62-.8,1-.87,1.47-1.2,2.51h-.57l0-2.63,1.44-10,1.6-3.43.35-2.14,1.43-3.86.81-.43.69-1,1.09-2.2,1-1.17,1.55-1.34,1.89-1,.23.36.12.55,1,.49,1.32,1.47.35,1.6.11,1.47.52,1.22-.46,1.22.06,1,.23.86.17.8.06.92-.12.55-.28.61-2,2.82-.35.79.12.74.63.24.4-.79.4-1.11.58-.85.11,1.53-.29,5.63-.34,1.16-.57.19-.64-1.35H143l.17.49.4,1.65-.28-.24-.92-.49-.06.8-.11.42-.18.31-.17.61-1.37-.67-1.32.24-.69.8.57,1.1v.68l-.92-.13-.51-.36-.12-.68.35-1-1.67-.3-1-2Zm342.93-20,.18.31.23.24.17.43.05.8-.05.92-.29.06-.34-.06-.46.24-.52.67-.52.62-.63.12-.69-.8h-.57l-.8.68-1-.37-.8-1-.29-1-.52.12-1.09.43-1,1-.29,1.65-2.87-3.55,3.5-1.41-.86-3-.57-.73-.92.91h-.46l-.29-1.22-.74-.31-1,.19-1,.55v-1.1l-1.9-.8-.4-1.59-.29.18-.28.49-.63-.92-.75-.49-.75.06-.8.68-.11-1.1.34-.92.57-.68.69-.24.69-.55.06-1.17-.46-1.83.06-1.53.28-1.35.81-1,1.72-.43,5.8,3.86,1.14,1.16.12,1-.29,2.58.17,1.34.35,1,.46.49,1.43.68,3.5,2.38,1.72,1.54Zm-7.4,67.72-.75,5.21.06,2.57,1.26,2.27-.74,1.47-.86,4.59-.75,1.71-1.2,1-1.72.92-1.9.73-1.78.25L460,424l-.34-.61-.17-1.28L457.57,419l-.35-.06-1.15-1-2.23,1-1.38,1.59,1.32.92v.74l-1.32,1-1.26-.12-1.21-.92-1.55-1.66-.4-.67-.57-1.29-.58-.79-.51-.61v-.62l1.09-.79-1-2.33-.74-.67-1.15.18-.52-1.71-1.37-1-1.78-.13-1.44.68-1.14-.68-.41.13-.74.55v-.49l.05-.19.18-.06.34-.06v-2.75l-.69-.55-1.37.24-.29-.8.4-.73,1.55-1.53.4-.92-.17-1.35-1.21-1.41-.74-2.63-1.09-.92-1.32-.3-1.21.24.52,1.47-1.84-.49.4-1.9,1.44-2.14,1.2-1.16-.8-1.41-.63.06-.63.73-.8.62-.18.3.06.49-.11.43-.64.19-.74-.19-.06-.49.29-.49.23-.24v-.8h-1.15l1.72-3.55-1.72-.92-1.84-.73-2.06-.37-2.47-.12,2.07-.68.8-.49.63-1-.69-1-.11-.92.05-.67.12-.24-.86-1.72-.58-.73-.28.61-4.88-.37-5.74.74L411,379.2l-2.87-1L407,378l-1.6.18-2.59.55-1.26-.06-5.79-1.41-1.21.13-2.7.73-1.14-.12-.92-1-2-4.72-.29.43-.29.31-.45.12L386,373l.86-1.59,1.55-1.72,1.09-1.65-.63-1.47v-.8h.63v-.61l-1.84-3.06-1.15-1.41-1.37-.55-3.68-.55-1.78-.67-1.14-.92-.29-.8-.06-1.84-.28-.85L376,353l-.28-.37-.29-.37-.57-.12-.63-.43-.23-1.22-.35-.74-.8-.67-2.53-1.59-2.06-.92-2.41-2.51-.81-.37-.45-.43-.87-2-.4-.43-1.89-1-8.21-6-2.87-1.53-2.06-.68-1.09-.06-1.38.06-2.58.56L342,332l-1.09-.79-1.66-2.08-.63-.31-1.15-.06-1.38-.31-1.26-.55-1.15-.31-1.09.37v.8h1.15l1.15.43.63.92-.06,1.46-.75.62-1.37.43-9.18.79-2,1.1-.05-1.16.11-1.22.35-.92.51-.43.63-.31,2-1.41.86-.3,1.89-.49,3.79-2,2.52-.61,2.41-1.23,2-.73.35-.31.34-1.41.17-.43,1-.3,1.72-.06.74-.43.58-.86.29-1,0-.92-.28-.73,1.26-.43,1.49-1.47.92-.31H353l1.78-.61,4.36-2.51,2.18-.37.86.43,1.27,1.41.46.31,1.09.12,1.26.43,1.15.67.86.92-.63,2,.86,1.59,1.66,1,1.78.37v1l1.38,4.84L374,328l.05,1.1,1,2,1.49,1.9,3.73,1.53,3.62,3.06L386,338v.8l-.23.8.23.36h.51l.63-.55,1,1,2.41.49,1.15.62.86-.56.91.56,1.61-1.05,1.67.37,1.32,1.29.51,1.9.75,1.22,1.72,1.16,3.27,1.54,3.73,1.16,4.07.3,1.78.43,1.73.62,1.54-.07,1.5-1.65,1.78.8,1.95.06,1.95-.25,1.78.06,5.28,1.84,1.6,1-.86.25-.86.67-.69.86-.4,1.1-.06,1.77.46,1,7.52,6.13,1.26,1.77-2.06,1.66-1.55,3.43-.35,3.55,1.67,2.2v.61l-1.61.55.29.92,1.89,2.15.17,1.28v1.59l.18,1.47,1.95,2.39.17,1,.46.55.4.31.17.25-.06,1.83.06,1,.46.68-.86,1.34-.23.49.63,1.41,1.09,1.16,2.24,1.72,2.93,1.47.28.61.23.92.35.86.57.36,2.87-.55,1.21.06,2.35,1.72,3.33.37,1.43.55,1.61-.8ZM372.81,300.7l-.92-.3-.92-.12-.86.12-.74.3.28-1.83,1-.74,1.09-.18.51-.43.35-1.1.92-1.23,1.14-1,1-.55,1.32.8,1.43,1.22.75,1.66-.63,2-1.32-1L376,299.48l-1.2,2.69-.63-.18-.69-.86Zm19.57,2.88-.92-.49-2.64-2.51-.52-.92-.34-1.41-2.53-4,1.21-.67.06.55.23.12.34-.06.46.06,1.95,2.09,2.35,1.83,2.58,1.53,2.82,1-.29,1.53,1.61.25,2.23-.06,1.67.55v.61l-2.7,2.88-1.6,1.1-2.07.31-.8-.25-1.21-1-2.24-.36-.63-.55v-.68l1-.73ZM96.5,290.66l1.26,1.41,1.49,1.16,1.38,1.53,1,2.39-1.72-.06-1.09-.24-.86-.68-1.66-2.08-.86-1.47-.23-1.35Zm318.2,2.15-1.21,3.24-2.18,3-2.64,1.84-2.58-.19,1.15-1.53,1.15-.92,1-1.16,1.32-3.86,4.25-6.55,1.43-1-.11.43-.06.37-.06.36-.34.37,1.83.31-.4,2.2L415.85,292Zm224.32,18v1l-.17,1.77-1,1.17-2.52-1-1.38.73-1-.49-.86-.92-.87-.86.64-.61-.75-.55-.11-.55.17-.49.05-.55.12-.37.46-1.16.06-.61-1-.8-.17-.37-.58-1.53-1.37-.49-2.93.25-1.49.85,1.38,1.78L629,309.4l3,4.35,1.55,1.28v.8l-.23.43h-.06l.12.12.17.86-2.18.92-2.64.67-5.45.55-1.44-.25-2.7-1-3-.37-1.21-.55-2.06-1.41-2-1-5-1-4.31-.19-.86-.24-.74-.8L597.41,309l-1-.8-1.38-.3v-.61l.52-.19.69-.61.57-.18.4.06.29.12h.4l3.21-.73.35-.31,1.38-2.14.91-.68.92-.12.92-.06,1-.25,2.23-2.14,2.53-1.84.11-.3.87-.43-.29-1-.86-1-.86-.49-2.7-.61-1-.07-1.78.19-1.38.37-1.2.73-1.1,1.23-1.26,2.87h-.23l-3.78,5.27-1.21,1.1-1.61.43-1.72-.25-7.11-2.57L583,303l-1.2-.92-.81-.43-1.09-.18-1.49-.61L575.49,298l-1.66-.8v-.73l1-.37.35-1,.11-1.16.29-1.1-.34-.13-.23-.12-.18-.24-.34-.19.63-.49.35-.43.11-.61v-1l.29-.73.69-.43.8-.25.57-.37,2.3-2.14.57-.73h.58l1,2.08,2.7-.19,3.15-.79,2.24.37.35-.62.34-.43.29-.42.17-.68.52,1,.05.43h.58l1.09-1.41,1.72-.79,3.56-.55,2.23-.8.81-1.23-.12-1.89-.63-2.7,15-.43,1.6.43-.63,2.39,1.55,1,2.3.61,1.43,1.1-.51,1-2.7,4.05.23.61,3.56,3.3,2.81,1.17.69.49.4.43L630,296.6l1.09,1,1.84,1-1.09.68.34.91.57.8.81.8,0,1,.23.67.52.25.92-.19-.12,2.15,1.09,2.38,1.55,1.9ZM504.91,256.86l2.93,2-.58,2.57L503.19,267h-.58l-1-5,.29-2.39,1.77-1.35-.28-.8.17-.42.57-.13ZM92.42,270.58l.41,1.1.74,3.18,1,1.54v.73l-1,.67-.74-.67-2.07-.55-2-1.41-1.38-.55-1.49-.37-1.26-.12-.75-.43-2.18-1.84-.8-.55-1.44-.18-1.2.06-1-.31-.4-.49.63.13.57-.43.52-1-2.93-.92-1.09-.49,0,.25-.06.36.06.19-1.15-1.66-.86-2.08-.63-2.2-.58-4.47-1-2.15-1.61-1.71-2.18-1.59-1.95-.92-1-.74-2.24-4.89-.23-.74-1.49.06-1-.12-.69-.61-.57-1.47.23-2.39-.46-.8-1.55,1,.06-1.65-.29-1.22-.75-.62-1.26-.06.81-.86,2.18-2.93.45-1,.81-.13,7.75-.3,2.46-.49,2.18-.92,2.24-1.41,1.15.37.8.61.69.67.8.55,2.19.74.86.49.46,1h.57V233h.57l-.17,3.25-1,2-1.78,1.1-5.11,2.08-.86.68L71,243.33l.29,1.35.69,1,.92.37v.79H71.71v.67L76.64,250l2,.43-.34,2.27-.52.49-1.43-.55,1,2.14,1.72,11,.35.61,1,.62,1.09.43,2.36.49,1.14.42,1.73,1.35.74.25,1.49-.13,1.27-.43.74-.49.63.19Zm449.16-63.44-.75,1-.34.37v.67l.4-.06.12.19v.3l.22,1,.12,1,.23.49-2,1.11-2.07,1.53-1.38,2,.29,2.63-1.15-.06-.91.3-.75.49-.63.62,1.15.73.57.06-1.26.68-1,.91-.11,1,1.26.91-1,1.11.46,1.16,1,1.1.63.92.11.8-.05.06-.4.06-.75.61-.12.74-.11,1-.29.61-.91-.67-.52-.25-2.41-.8-.69-.42-.12-1v-1l-.28-.49-1.44-.49-1.37-2.15-1.5-.24,1.9-1.29,1.09-1,.46-1-.4-1.53-.92-1-1.15-.55-1-.06-3.5,2.82h.75l.63.06.52.3.46.37-1.5.25-1.09,1-.8,1.41-.63,1.59.69-.31.17-.12.29-.31.92,1.17,1,1.71.57,1.53-.57.67-1.78-.06-1.49-.3-2.7-1,1.89-2.94.35-.37-.4-1.1-.92.3-1,1-.57.92h-.57v-.85l-.18-.43-.17-.37-.23-.55-4.82,1.47-.92.73h-.51l.28-.67.29-.55.4-.49.69-.49-.46-.18-.57-.43-.63-.13.11-.91-.11-.49.51-.43.58-.31v-.73h-.58v-.68l.35-.12.23-.18.57-.49h-.57l.69-1.47-.41-.92-.74-.8-.63-1.1-.12-1.53.17-1.41-.23-1-1-.43v-.73l2.93-.19L515,210l.86.18.52.49.4.49.23.25,1.32-.19,4.48-1.22,1.83.67,1.15,1.23,1,1.53,1.2,1.59-.11.8,1.78-.68,2.29-1.28,1.15-1V212l1.83-2.51,1-.92.34.06,2.24-.06.75-.18Zm20.2-43.53.4,1.59-1.09,1-7.8,2.63-1.84-.18-2.93-1.59L543,162.75l-1.21-1.35-.69-1.41,1.49.06,4.94-2.75,2.24-.86,2.41.06,6.77,2,1.32.92,1.38,1.29.74,1.47ZM486,133.17l-1.78.07-.51,1.16.63,1.28,1.66.37v2.08l-1.43.49-.29,1.47.57,3.19.58,1.22.23.86-.17.86-.58.06-1.49-.92-.29.49-.63.73-1.49.55-2.75.49-1,.43-2,1.84-1.32.73-.4-1-.57-.8-1.26-1.23-.29-.06-.69.19-.23-.13-.06-.24.12-.92-.06-.24-1.2-1-.52-.37-2.35-.55-1.78-.06-1.21-.86-.4-2.94.52-2.76,1.26-2.69,2.81-4,6.31-5.14,2.76,1.34,3.38.37,1.38.49.35.67.23,1,.45.92,1,.37.86.24.8.49.58.74ZM410.34,539.51l.29.49.11.43-.4.24-.63-.43v-.79Zm-35.58-8,.34.43.29,1.1-.29.24-.51-.24-.23-.68-.06-.24-.17-.12.06-.49-.29-.8.52.12ZM719,600.86l4.24.25.23.49v1l-.4.85-.34.31h-.63l-1.67.43-1.2-.25-1.5-.12-1.6.43-1-.49-.11-1.47.75-.92.57-.18,1.26-.25Zm-31.85-38,.74.86,1,2.08-.69,1.9-1.95.79H685.1l-1.84-.24-.86-.68-.28-1.1.91-2L685.5,563Zm-26.28-53.27.45.49.81,1.28v1.1l-.63.25h-.35l-.05.37-.41.18-.69.06-1-.06-1.09-.67v-.74l1-.61.29-.67-.8-.06-1.09.61-1-.06-.57-1,.29-.92.23-.86-.86-.55-1-.37-.52-.67-1-.8-.29-1.34.92-.92,1.21.12.23-.24-.06-.68.69-.12.74.55.46.18.35-.12.34.19.29.18.57.18.69.19.29.55-.58,1.1-.17,1,.86.37.81.49.51,1.28Zm-22.9-22.84.4.61.17,1-.4.18-.46-.42-.57-.31-.35-.06-.28-.12-.75-.07-.75.56-.28.73-.12.49-.34.31-.46.06.4.67,1,1.16.17,3.5-.86.36-.92-.61.11-.67-.22-.49-1-.37-.34-.92.46-2.51.28-.67.12-.68-.23-.92-.17-1.4.17-1.23.75-.06,1,.12,1-.24,1,.43.8.61.58.55ZM482,460.09l-.11.61.29,1.29-2,.18-3.84-.67-1-.67,1.49-.25,1.38-.61.8-1,1-.68,1.44-.12.69.68ZM163.93,352.26l.57.37.11,1-1,1.22-1,.8-1.21.74-.75.3-.63.37-1,1-.69,1.22-.69.19-.23-1,.23-1.23,1.49-2.63,1.32-1.41,1.49-.61Zm-12.06-1.35h.35v.37l-.29.55-.46.55-.63.68-2.18.61-.29,1.22,1.15.92.69.68.17.24.63.43.75,1-1.09-.43L147.74,355l-1.26-2.7.8-1.22,1.32-.25,1.78-.92.4.43.41.19.4-.13.17.13-.06.3Zm275-71.82.74.31.4.36-.11,1.66-1,2.63-1.6.8-.75-.86.06-.74.4-.18-.29-.49-.86-.49-.34-.74.28-1.16.46-1.1.69-1,.69-.18.17,1,.06.79.34-.3Z" style="fill:#efc441"/></svg>