<?xml version="1.0" encoding="UTF-8"?><svg id="Guam" xmlns="http://www.w3.org/2000/svg" viewBox="0 0 720 540"><path d="M288.23,491.91l-1.56,.03-.45,.43,1.28,1.4h.84l.39-.46-.03-.88-.46-.52Zm-4.86,0h-.84l-.39,.46,.04,.97,.45,.49h.78l.43-.52-.05-.91-.43-.49Zm8.15,.03l-.81-.06-.37,.52v.97s.4,.43,.4,.43h.85l.39-.46-.03-.97-.43-.43Zm-32.48,4.62l-.32,1.43,.41,.43,3.22,.03,1.2-1.42-.43-.44-4.08-.03Zm-43.13-113.48l-.4,.46,.43,.43h.77l.4-.46-.43-.43h-.77Zm66.26-152.6l.4-.43-.03-.97-.44-.52-1.65,.03-.38,.52,1.34,1.4,.76-.03Zm-33.94,260.51l-1.65,.03-1.12,1.33,.03,.97,.43,.52,1.6-.03,1.19-1.43-.02-.87-.46-.52ZM399.68,99.24l1.62,.03,1.21-1.4-.44-.52-2.45,.03-.38,.52,.03,.91,.41,.43ZM242.67,493.8l-.75,2.76-1.6,.03-2.34,2.77-4.11,.93-1.92,2.37,.07,1.82,1.25,.53,.76-1,4.87-.87,4.71-4.69h1.68l.34-2.32-2.18-2.32h-.77Zm60.17-5.56l-1.24,1.34,.43,.46h.81l1.21-1.36-.41-.47-.8,.03Zm-61.51-169.41l.37-.43-.04-.97-.42-.46-.78,.03-.4,.43v.97s.46,.46,.46,.46l.82-.03Zm-12.22,22.36l.34-.43-.06-.97-.36-.52-1.66,.03-.37,.52,.03,.91,.42,.43,1.66,.03Zm113.7-124.68l1.16-1.4-.43-.46-1.59-.03-.38,.43,.04,.96,.43,.53,.77-.03Zm-119.8,160.08l.36-.53-.03-.96-.43-.44h-.8l-.38,.47,.03,.96,.42,.43,.83,.07Zm71.78,115.31h-.87l-.37,.46,.03,.97,.43,.43h.87l.36-.46-.03-.91-.42-.49Zm-74.6-124.65l1.19-1.43-.04-1.83-.47-.46-.8,.03-1.19,1.34,.08,1.86,.48,.52,.74-.03Zm90.88,124.68h-.81l-.37,.46,.04,.97,.43,.43h.77l.4-.46-.03-.97-.44-.43Zm5.56-5.59l-.4,.47,.43,.43h.81l.39-.46-.42-.44h-.81ZM517.91,110.84l4.53-9.28-.07-2.73-2.21-3.26-6.47-.06-.77,.97-13.14-.91-.82-.96-9.72,.93-.86-.96-2.47,.03-.83-.97-4.93-.9-1.69-1.92-1.6,.03-.92-.91-3.25-.93-2.16-2.35,.82-.91-.1-2.82-1.69-1.83-.09-2.76-1.79-2.79-.03-.97-5.09-6.51-.02-.97-3.84-4.19h-.82l-3.8-4.19-.04-.96-4.32-5.53-1.78-3.69-5.48-6.11h-1.66l-5.88-5.59-4.15-1.79-5.76-.1-1.58,1-5.86,6.02-2.95,8.43-2.27,5.53-1.15,1.42-2.43,.94-4.24,6.94-1.46,3.75,.2,4.65-.85,.94,.61,15.82,.86,.93,.27,7.45,.84,.96,.07,1.8-1.49,3.72-1.46,4.68-3.89,5.56,1.04,4.68-3.64,2.33-4.24,5.11-.02,.9-1.57,.97,.1,3.72-2.32,2.79-.62,3.72-2.02,1.37-4.3,5.11,.14,4.65-.76,.94,.03,1.92-1.45,3.66-3.1,3.74,.06,1.87-3.17,4.62,.1,1.86,.86,.96,.16,3.72,.85,.96-.77,.91,.1,1.86,.78,.87-.77,1,.09,1.82,3.33,2.8,.13,2.82-1.5,2.8-2.41,2.76-.7,2.76-1.93,2.32-5.6,2.83h-1.66l-.75,.93-3.29,.03-4.27-5.61-1.68,.03-3.15,1.83-.8,.96-2.39-.03-1.63,.96-4.22,6.98,.1,3.72,5.91,4.68,.19,4.59-1.55,3.75-1.93,2.32-3.17,1.89-4,2.73-8.13,.91-1.73-1.77-1.2,.4-.28,2.37-1.73-.94-3.25-.03-.76-.9h-4.95l-.85-.97-8.13,.03-1.69-1.86-.83,.03-.7,2.77-3.29-.04-7.96,5.59-3.25,.03-3.34-2.79-3.29-.9-.21,6.01-1.96,2.33-3.25-.04-6.4,3.72-4.08,.03-1.72-2.79-2.41-.03-4.81,2.79-4.83,2.83-4.08-.03-.81-.97-3.33-.93-2.49-1.83h-4.87l-2.4,1.89h-1.65l-.83-.94-17.1-.03-3.98,3.75-.82-.03-7.45,8.85,2.07,.49,3.11-3.75h.87l2.34-2.79,2.35-.91,1.56-1.89,1.58-.9h18.02l.77,.87,2.45,.03,3.37,1.83,5.7,.06,.84,.91,1.24,.49-.4,.46-3.21-.03-2.82,2.32,.1,1.86,2.12,3.26,.87,.03,1.48-2.83,4.93,.97,1.59-1.86,3.26-.03,2.88,1.43-1.48,3.68,.04,1.92,.92,.88,.11,5.58-2.71,3.23h-.83l-.45-3.26-3.03-3.22-4.05,.03-.37,1.37,.86,.96-1.18,.43-1.96,2.32,.1,4.69,2.17,2.29,3.21-.94,2.16,3.26,.92,2.79-.74,.97,.83,1.86-3.13,3.75,.09,1.8-1.56,1.85,.07,1.86,.84,.97-.35,1.4-1.63,.03-2.96-3.29-2.63-4.65,.69-3.75-1.74-1.83-.08-1.92,.83-.91-.19-3.71,1.59-1.8-.06-2.83-3.84-4.19-1.58,.91-2.48,.03-.77-.97h-4.93l-1.63-.87-2.48,1.8-3.96,.96-.85,.97-1.65-.06-.8-.88-3.25-.03-3.39-2.79-2.46-.94-1.72-1.89h-1.64l-.82-.87-4.08-.03-3.2,1.83-.29,2.29,1.61,1.92,.95,2.79,2.94,3.26,2.52,.93,1.69,1.83,2.48,.03,.85,.91,2.45,.03,3.44,4.65,1.24,.49,.07,1.8,.84,.97,.23,6.51,3.79,4.19,2.52,.94,1.27,1.33-.71,1.95,1.27,1.34,2.29-1.83h4.94l6.43,7.88,.13,3.71,1.67,1.92,.99,5.56-2.31,3.69-.59,5.65-2.77,2.26-2.46,.03-1.15,1.43,.92,3.69-1.12,2.32-2.5-.94-1.16,1.43,.16,4.59,1.74,2.83,.2,5.55-1.56,2.8,.08,1.92-1.59,1.79-1.44,3.72,.11,3.72-3.12,4.65,.13,2.83-2.22,5.52-1.96,2.32-2.53,.03-.33,1.43,6.27,4.16,2.47,.03,.43,.47-.8,.9,3.63,.46,2.21,3.32,.08,2.76,3.38,2.77-2.27,5.61,.54,3.26,2.55,1.83,4.53,1.43-.35,2.32-2.5-.94-1.15,1.34,.09,1.92,.77,.9,.21,4.69,1.24,1.39,2.9,.46-1.58,1.9,1.06,5.55,1.26,1.4h1.63l.75-1,1.26,.53v.96s-3.91,3.69-3.91,3.69l-.76,1.86,.16,3.72,.87,1.82,3.37,3.75,.21,5.59,1.74,1.83,.1,3.72-1.52,2.82,.9,3.72,2.99,3.23,2.47-.03,2.52,2.88,2.45,.88,1.34,1.39,1,5.62,2.17,2.35,4.86-.06,1.63,.97,1.59-1.89h.83l1.34,3.25,2.08,2.35h4.08l6.64,3.72,9-.03,.83-.9,3.24,.93,3.18-2.79,2.4-.94,3.41,4.66,1.62-.91,.86,.88,1.66,.06,2.01-1.43-.88-1.86,1.15-1.43,3.16-1.83,1.99-2.32-.08-2.82,3.1-3.75,.3-2.29,3.23-.87,1.21-1.43,.7-2.83-1.69-.87,2.02-1.46h1.57l5.97-6.02-2.49-1.89,1.08-2.32,2.55,2.8,1.66,.06,4.31-5.18-.13-2.76,2.05-.46,2.74-4.19-.19-4.63,2.76-3.28,1.21-.47-.06-.9,2.34-2.86-.16-3.71,1.53-2.77-.13-4.68-.86-.93-.13-2.77,.75-.9v-1.92l-.86-.91-.23-5.64,.82-.91-.42-11.13-.86-.91-.11-3.78-1.27-1.39-2.53-1.83-3.24,.93-2.08-2.35,5.29-.43,.76,.9,1.69,.03,1.93-3.28-.1-3.72-.97-1.83,.84-.93-.3-8.38-1.79-3.68,.76-1.89-.23-5.62-1.69-1.86-.04-2.76,1.5-2.83,.75-1.8-.14-4.68,1.41-3.72,.47-12.13-3.43-2.79,1.21-1.43,3.25-.84,5.07-6.08,.7-1.89-.1-3.69,.75-.93-.1-3.75,1.96-1.37,1.66-.03,1.91-3.22-.1-1.86-2.84-1.43-2.18-2.29-.02-.97,.76-1.8-.9-.96,1.2-1.43,3.28-.93,.7-.91,2.52-.03,1.58-.9,1.53-2.79h.81l1.68,1.85,1.59-.03,.86,.97,3.35-.03,3.52-3.26,1.46-4.62,.72-1.86,5.86-6.97h.88l1.53-1.89,3.26,.03,.86,.9,1.6,.03,1.2-1.39-.1-1.86,2.03-1.37,4.29-5.12-.13-2.82,1.27-.46,4.68-5.62h.8l1.52-2.79,1.68,.96,2.34-2.79,3.25-.03,1.57-.91,2.75-3.22-.02-.97,4.34-5.11h.77l.3-2.4,3.98-3.68-.03-.91,5.43-6.51-.04-.96,8.35-6.05,4.13,.03,.74-.97,1.62,.03,5.85-7.94-.27-7.44,1.14-1.34,1.67-.03,1.54-1.86h.87l3.84-4.65,3.2-1.83,.9,.87,2.4,.06,.35-1.42,2.02-1.43,4.08,.03,.8-.9,2.4-.04,2.38-1.89,3.27-.93,1.94-2.32,1.49-3.72-.11-2.76,2.22-5.59,.82-.9,.59-4.69,.84-.93-.13-2.83,3.11-4.62-.07-1.86,1.57-1.89-.07-1.86,1.51-1.86-.05-2.82-.86-.87,.76-.94v-1.86s-.93-.93-.93-.93l-.2-5.59,1.54-3.72,1.94-2.32,.82-.03,1.94-2.32-.03-.91,2.38-1.85,3-7.48-.2-4.62,.81-.97-.11-2.82Z" style="fill:#efc441;"/></svg>