<svg xmlns="http://www.w3.org/2000/svg" viewBox="0 0 800 800"><polygon points="482.1 637.22 481.99 637.22 477.41 633.61 477.3 634.08 476.43 635.36 476.21 631.98 474.58 632.68 470.98 636.64 468.47 637.22 466.73 636.52 464.87 635.47 462.37 635.12 460.62 635.94 459.53 636.4 455.61 641.41 453.43 643.15 452.99 639.89 451.25 638.03 448.85 637.8 446.67 639.54 445.57 642.34 446.23 644.32 447.43 646.06 447.87 648.04 446.88 649.78 445.25 650.95 444.38 652.34 445.36 654.9 448.63 655.37 449.72 655.83 450.7 656.76 451.14 657.46 452.12 659.32 452.23 660.14 452.55 662.7 452.88 663.86 453.54 664.56 455.61 665.61 456.04 666.42 456.15 669.1 455.06 670.14 437.94 674.45 433.8 676.54 429.77 679.8 426.6 683.52 419.74 696.2 419.3 697.6 419.52 699 420.5 701.44 420.61 701.79 420.61 702.72 418.21 704 415.92 703.07 411.77 699.58 408.83 698.88 406.54 699 399.45 701.9 397.82 703.07 394.33 706.56 379.07 717.96 376.67 720.17 375.36 722.61 374.27 725.17 372.85 727.62 370.89 729.24 366.53 731.69 364.56 733.78 363.37 736.22 362.49 739.02 362.06 741.81 362.17 744.48 364.67 755.77 341.23 745.53 316.48 733.78 300.67 727.5 287.92 724.24 278.76 722.73 267.74 721.57 255.42 722.85 253.57 723.43 235.36 724.59 214.1 724.24 194.69 721.91 170.71 716.91 133.2 699.34 119.57 691.2 99.62 678.05 76.39 660.02 53.93 638.5 22.64 614.53 25.8 613.95 28.64 610.34 32.13 600.11 35.61 593.36 36.16 590.68 36.05 587.42 33.22 578.93 33.11 577.65 33.33 575.09 33.22 573.7 31.8 569.51 31.36 568 31.25 564.39 32.02 562.29 35.4 558.22 37.14 552.99 36.7 542.17 37.25 536.47 39.1 534.49 41.17 533.79 43.14 533.56 45.32 532.63 46.95 530.65 50.01 522.97 29.4 494.47 28.2 491.68 28.2 488.42 29.18 485.39 32.13 480.04 39.87 465.85 44.88 456.77 50.88 445.84 63.42 422.92 76.06 399.88 87.08 379.87 94.82 365.68 97.76 360.21 101.36 353.7 103.21 351.14 105.83 349.74 113.03 349.74 135.05 349.63 156.97 349.63 178.88 349.63 200.91 349.51 221.95 349.51 222.82 349.51 244.85 349.51 266.76 349.51 288.68 349.39 302.96 349.39 306.12 349.04 308.96 347.88 309.07 347.88 309.61 346.95 310.7 344.51 311.14 342.99 310.27 343.46 309.83 343.57 309.61 343.69 308.96 344.39 307.76 344.39 307.21 341.36 311.03 337.99 308.96 335.9 308.96 334.85 312.45 333.22 311.47 331.48 306.78 328.8 306.23 325.43 307.32 323.1 309.29 321.47 311.14 320.54 309.07 319.61 307.43 318.33 307.21 316.58 308.96 314.49 309.72 315.19 310.16 315.42 312.23 315.77 311.68 314.84 310.7 312.86 310.05 311.93 310.81 312.05 311.03 311.81 311.03 311.35 311.14 310.88 312.12 311.58 313.43 311.93 314.41 311.58 314.41 309.72 313.43 310.07 311.14 309.14 309.5 307.98 310.59 307.28 313.54 306.35 315.94 303.9 316.81 301.11 315.5 298.9 314.41 298.9 314.41 300.18 313.32 300.18 313.76 297.74 315.28 296.81 317.46 296.92 319.86 297.62 318.01 294.36 317.79 293.43 317.79 291.11 317.46 288.66 316.59 288.43 315.17 289.01 313.32 289.36 312.45 288.89 311.25 288.08 309.61 287.27 304.6 286.57 304.16 285.64 304.38 284.13 303.51 282.15 302.63 281.22 301.11 280.05 299.36 279.59 295.55 281.45 294.46 279.94 293.8 276.21 292.28 276.21 288.13 277.49 287.26 277.96 286.28 277.38 284.1 276.91 281.48 276.8 279.52 277.38 280.39 275.75 281.81 274.47 282.9 273.19 282.79 271.33 280.94 270.16 278.54 270.05 277.12 269.35 278.43 266.67 277.88 263.88 278.87 260.86 279.41 258.41 277.23 257.02 276.79 258.18 276.25 258.76 275.49 259.11 274.07 259.34 274.07 258.18 276.25 254.11 274.07 247.83 263.27 231.42 260.98 229.44 255.21 226.42 252.92 224.44 253.46 222.35 253.46 221.19 251.28 219.91 249.75 221.19 247.9 221.19 236.89 217.58 233.94 215.72 229.37 210.83 226.09 209.09 228.6 206.18 228.27 204.9 226.09 204.43 223.26 204.43 223.04 205.13 223.59 206.76 223.8 208.39 222.17 209.09 221.41 208.62 219.33 206.29 218.46 205.48 212.36 203.27 210.39 201.41 209.74 197.8 208.87 195.94 203.2 188.84 202.65 187.33 201.78 183.96 200.91 182.79 199.27 182.56 195.46 182.91 193.82 182.21 188.15 175.7 186.73 173.25 185.97 171.51 185.21 168.48 184.55 167.2 183.03 166.27 179.75 165.46 179.21 164.29 178.88 161.62 177.9 158.36 176.59 155.69 174.85 154.06 170.49 153.82 166.24 154.52 162.96 153.94 161.66 149.75 159.26 148.36 154.35 147.31 150.64 145.56 151.3 142.77 152.5 142.54 222.39 143.12 222.5 94.95 222.5 46.67 223.8 45.16 227.07 44.23 233.94 44.23 269.05 44.35 304.05 44.35 339.05 44.35 374.05 44.46 409.05 44.46 444.05 44.46 479.05 44.46 514.05 44.58 514.81 82.39 515.68 131.02 515.9 180.81 513.17 226.07 510.34 275.28 508.92 293.2 506.42 329.26 502.38 369.52 502.05 378.01 501.94 380.22 503.25 382.43 503.69 381.97 505.22 381.15 507.07 380.45 508.49 380.34 511.43 379.06 523.53 379.76 528.11 378.83 533.24 378.83 547.3 382.67 553.41 380.22 555.59 381.27 560.93 386.04 566.49 384.64 573.58 386.27 578.92 389.65 579.58 393.25 583.17 393.95 599.2 404.65 597.24 412.45 597.57 413.61 601.93 413.61 603.67 412.91 604.11 411.4 604 410.12 603.56 409.89 603.56 409.19 603.02 408.61 602.47 407.8 602.47 406.51 603.35 406.17 604.76 406.4 606.18 406.17 606.83 404.65 607.49 401.75 608.91 399.88 610.32 398.37 611.3 396.86 611.52 394.18 610.21 390.11 610.11 387.32 611.3 387.32 611.2 389.18 611.3 389.76 612.29 389.76 614.14 388.37 618.83 389.41 621.12 388.48 617.41 384.76 615.34 383.13 612.39 381.74 611.2 379.99 610.11 378.01 609.01 376.5 602.15 372.43 600.18 369.87 602.47 366.96 604.98 368.47 609.45 370.57 611.3 371.73 615.88 376.96 619.26 378.94 627.55 386.39 644.01 394.53 649.36 399.65 651.1 400.46 658.08 406.98 663.64 409.42 663.75 409.54 661.89 410.24 661.35 411.87 661.57 413.73 660.48 416.06 659.5 414.77 656.77 415.94 654.37 417.33 651.86 418.38 648.48 418.38 647.61 419.66 642.82 428.5 635.4 436.18 624.5 445.14 619.26 449.56 605.42 460.96 591.57 472.25 577.72 483.65 563.98 494.82 543.92 511.34 538.36 514.13 522.12 519.83 517.32 522.51 516.23 523.32 514.05 525.3 512.09 528.44 509.58 536.47 512.74 539.49 512.74 544.03 510.78 549.03 509.47 550.89 507.94 553.1 504.02 556.71 502.82 558.8 502.6 562.06 503.36 564.5 504.78 566.72 507.94 570.79 509.47 573.46 512.52 581.14 514.27 583.47 515.68 584.87 516.34 585.91 516.66 586.38 516.88 589.4 516.55 590.68 514.81 592.66 514.27 593.71 514.92 602.55 514.81 605.57 514.16 608.48 512.19 610.34 510.45 610.46 506.42 609.06 504.45 608.72 501.73 609.06 500.53 609.88 499.76 611.27 498.35 613.14 493.33 617.67 491.15 620.23 489.51 623.26 488.21 624.77 484.61 625.7 483.08 626.86 481.99 629.07 481.67 631.87 482.1 637.22" style="fill:#efc441"/><path d="M657.75,343.23l.44-.24.11.58h-.11Zm-10.57-9.08h.1v.35h-.21l-.22-.35.33-.12Z" style="fill:#efc441"/><path d="M508.92,293.2l1.75-2.79,2.72-3.49.44-.82.33-.58.11-.93.65-1.16.65-.93.66-.47,5.67-2.44,2.07-.12.65-.12,1.09-.46.66-.12,2.07-.23,1-.46,1.31-.94,2.18-2.21,1.53-1.62.54-.82.44-.23.65.23,1.09.93,1.09,1.17.55.34h.65l1.75-.46,5.34-2.33.65-.46-.11-1.52v-.58l.66-1,1.63-1.4,1.75-.82,1-.23.76.12,1-.23,5.67-4.43,1.09-.58,1-.11,1.09-.58,2.5-2.1,1.64-1.74,1.63-1.75.44-1.86-.11-.93-.65-2.91.11-.7.43-1,1.64-2.1,1.42-1.4,1.2-.69,2.72-.12-.54-2.33v-.69l.32-.82.55-2.56,1.74-3.37.55-2,4.8-7.79.76-.82.76-.58,3-1.05,3.6-.7.44-.46.11-.58-.66-.7-2.07-1.63-.11-.58.22-.58,1-.93,1.42-.7.54-.47.77-1.39.11-.82-2.18-3.14-2.4-4-1.75-3.26V197.8l1.75-3.84,4.14-5.23,1.2-4.54v-4.54l.55-5.93.65-3.84,2.94-3.26,2.4-4.54,3.49-3.25.66-4v-6.51l2.39-5.82,2.29-4.65,3.06-2.56,3.49-1.28,1.2-4v-3.26l2.39-1.28,3-.7h4.14l1.2-1.86,2.4-4.65,2.29-3.26,3.6-1.28,2.94-.58,3.6-.7,3.49-2H650l3,2,4.47.58-4.14,14.66-1.63,17.69-.11,3.72L651.1,156l1.09,3.73.66,3.25v.35L653,165l.88,4,.65,2.21,1.42.93,3.49,1.16,1.85,2.68,1.31,3.37.76,3.84.44,5.47,1,4.3-.44,2-1,.47H661.9l-1.53.58-1.75,1.74-2.18,2.68-1.85,3-.76,2.8.65,3.14,3.16,5.23.66,3h.22l.54.46.44.82-.11.93-.66.23-2.07-.35-.65.12-2.07,1.74-.77,1.05-.32,1.63-.33.81-.87.82-.77,1.16-.32,1.86.1,2.1.77,2.79.22,1.63-1.53,12.45-1,1.86-1.31,1.51-1.64,2.21-1.85,7.21-.87,2.1-.55,3.14,1.09,4.3-.65,1.63-1.09,1.63-1.09.12-.55-2.79,5-19.78,2.73-3,1-1.74-4.15,2.21-4.36,11.52-3.49,4.18,1.09.24,2.18,1.16-1.09.47-.76.34-1-.23-1.53-.58.33,1.51.44.7.87.23,1.63-.11v1l-1.63,1.28-1.2,1.75-.33,2.09.44.93.54,1.28-2.94,2.33-3.27,6.86-3,1.52-.22.93-.33,4.19.11.81-1,.58h-.87l-.44-.23v-.35l-1.09.7-.33.35-.11.46-.65.93-2.07,5.12-.66.93-1.2.7L615,307.86l-.43.93-.66,2.33-.43.81-.11.47.21,1.51-.1.46-.44.12-1.31-.23-.44.11-.76.47-1.85.46-.77.47-.32.58-.77,2.79v-7.21h-1.09l-1.09,3.84-2.18.46-2.29-1.39-1-2.21-.54-1.05-1.42-.12-1.31.24-.54.23-.22.58.11,3.14-.55,1.17-1.09.35-5.34.81-1,.7-.77.81-1.09.7-2.18.35-2.18,1-.65,2.79.33,6.75-.66,3.6-1.42,2.68L576.41,339l-2.83.46-.76.47-1,1.16-.76,1.28-.65,3-1,.93L568,347l-1.53.93-1.74,1.63-.77.81-.76,1.17-.33,1.86.11,2-.43,1.51-4.15,1.28-2.83,1.74L553,362.19l-1.74,2.33-.66,4.3,3.38,7.33-.54,4.07-6.11,2.45-14.06-3.84h-5.13l-4.58.93-12.1-.7-2.94,1.28-1.42.11-1.85.7-1.53.82-.44.46-1.3-2.21.1-2.21.33-8.49,4-40.25Zm79.27,34.09-.33.23,1.09.93-.87.82-.22.58-.65.81-.66-.58-.43-.7.76-.46.11-.82,1.09-1.51Zm80.47-3.49-.22-.7.22.46Zm23.44-37.93.32-.7.22.58Zm-38.82-14.78,1.31.12.44.82-1.64.23-.54.35-.33-.24Zm18.21-27,.55-.46.1,2.33-.43-.47-.11-.81ZM731,235.15l.76-1.28,1.53-.93-.87,1.74Zm-49.5-17.34.55-1.05.54,2.45h-.33l-.21-.58Zm2.73-8.61v-.11l1-.47-.77,1.63Zm-.11-.23-.22-.12-.33-.58-.22-2.33Zm.54-1.75-.11-2.09,1.09-1.4v2.33l-.76,2.09Zm4.91-16.05,1-.93,1.31.23-2.07.93Zm3.82-5.35.43-.82.44,1.86-.44-.11Zm.76-13.73-.44,1.4-.65-.12-1.75.12-1.09.81,1-2.68,2.73-.35Zm82.21-16.17.22-.7.76.58L777,156Zm-10.69.46,1.09-3.14,1.2.82-.11,1-1.74,2.1-.65,2Zm-81.77-2.44.65-1.51,1.09.7-.54,1.16-.87.7v.35l-.33.11Zm1.64-18.73.54-.23.76,1.86-.32,3-1,1.63-.22.23-.33-1.39.11-3.38Z" style="fill:#efc441"/><polygon points="647.18 334.04 646.85 334.15 647.07 334.5 647.28 334.5 647.28 334.15 647.18 334.15 647.18 334.04" style="fill:#efc441"/><polygon points="657.75 343.23 658.19 343.57 658.3 343.57 658.19 342.99 657.75 343.23" style="fill:#efc441"/><polygon points="616.56 131.1 612.43 135.23 615.67 134.05 616.56 131.1" style="fill:#fff"/><polygon points="626.37 124.83 627.55 122.99 629.95 118.34 631.43 116.23 622.81 124.86 626.34 124.86 626.37 124.83" style="fill:#fff"/><polygon points="627.55 122.99 626.37 124.83 637.78 113.42 635.84 113.8 632.77 114.89 631.43 116.23 629.95 118.34 627.55 122.99" style="fill:#fff"/><polygon points="622.81 124.86 616.56 131.1 615.67 134.05 612.43 135.23 608.49 139.17 606.83 142.54 605.55 145.64 626.34 124.86 622.81 124.86" style="fill:#fff"/><polygon points="650.01 110.55 647.12 110.55 604.43 153.23 604.43 154.87 604.06 157.14 650.4 110.8 650.01 110.55" style="fill:#fff"/><polygon points="657.53 113.1 654.9 112.76 594.37 173.29 594.29 173.72 593.97 177.22 657.31 113.88 657.53 113.1" style="fill:#fff"/><polygon points="653.39 127.76 654.77 122.89 593.75 183.91 593.75 184.19 592.58 188.62 653.39 127.81 653.39 127.76" style="fill:#fff"/><polygon points="652.73 134.93 586.66 201 586.66 201.06 587.88 203.32 652.37 138.83 652.73 134.93" style="fill:#fff"/><polygon points="516.23 282.03 515.57 282.5 514.92 283.43 514.27 284.59 514.16 285.52 513.83 286.1 513.39 286.92 510.67 290.41 510.46 290.73 521.39 279.81 516.23 282.03" style="fill:#fff"/><polygon points="591.67 209.52 651.61 149.58 651.65 149.17 651.74 145.92 590.27 207.39 590.81 208.27 591.67 209.52" style="fill:#fff"/><polygon points="587.64 220.95 590.87 220.33 591.74 219.46 591.79 219.21 591.13 218.51 590.02 217.64 586.22 221.44 587.64 220.95" style="fill:#fff"/><polygon points="530.73 277.14 532.91 274.93 534.44 273.31 534.6 273.06 529.99 277.67 530.73 277.14" style="fill:#fff"/><polygon points="586.22 221.44 581.14 226.52 578.27 231.19 577.72 233.17 577.39 233.8 590.87 220.33 587.64 220.95 586.22 221.44" style="fill:#fff"/><polygon points="591.13 218.51 591.79 219.21 591.74 219.46 652.02 159.18 651.22 156.44 590.02 217.64 591.13 218.51" style="fill:#fff"/><polygon points="537.16 273.42 536.07 272.49 535.42 272.26 535.39 272.27 534.6 273.06 534.44 273.31 532.91 274.93 530.73 277.14 529.99 277.67 508.51 299.15 508.25 302.95 537.46 273.74 537.16 273.42" style="fill:#fff"/><polygon points="546.54 272.14 547.19 271.68 547.11 270.55 544.73 272.93 546.54 272.14" style="fill:#fff"/><polygon points="575.65 242.94 575.47 242.19 574.68 242.98 575.65 242.94" style="fill:#fff"/><polygon points="575.65 242.94 574.68 242.98 568.23 249.43 568.78 251.9 568.84 252.36 653.54 167.66 652.96 164.99 652.94 164.72 575.47 242.19 575.65 242.94" style="fill:#fff"/><polygon points="559.51 261.56 553.84 265.98 552.86 266.21 552.1 266.09 551.4 266.26 547.11 270.55 547.19 271.68 546.54 272.14 544.73 272.93 507.76 309.9 507.5 313.7 559.79 261.41 559.51 261.56" style="fill:#fff"/><polygon points="685.55 135.21 685.41 135.78 686.13 135.06 686.1 134.98 685.55 135.21" style="fill:#fff"/><polygon points="655.9 172.09 655.7 171.96 507.01 320.65 506.75 324.45 658.3 172.89 655.9 172.09" style="fill:#fff"/><polygon points="661.38 176.28 506.19 331.47 505.8 335.39 662.37 178.83 661.38 176.28" style="fill:#fff"/><polygon points="683.92 155.45 684.25 155.34 684.25 154.99 685.12 154.29 685.66 153.13 684.98 152.69 684.07 153.59 683.92 153.94 683.92 155.45" style="fill:#fff"/><polygon points="663.4 184.26 505.08 342.58 504.69 346.51 663.66 187.53 663.4 184.26" style="fill:#fff"/><polygon points="663.31 195.36 664.29 194.89 664.73 192.94 662.3 195.36 663.31 195.36" style="fill:#fff"/><polygon points="653.83 206.18 654.59 203.38 655.09 202.57 503.97 353.69 503.57 357.62 654.03 207.16 653.83 206.18" style="fill:#fff"/><polygon points="655.93 211.73 502.85 364.81 502.46 368.74 657.27 213.93 655.93 211.73" style="fill:#fff"/><path d="M693.84,185l.44,1.86-.44-.11-.43-.93Z" style="fill:#fff"/><polygon points="650.56 228.86 650.88 227 651.31 226.35 502.15 375.51 502.05 378.01 502 379.2 650.64 230.55 650.56 228.86" style="fill:#fff"/><polygon points="694.28 186.86 693.84 185 693.41 185.82 693.84 186.75 694.28 186.86" style="fill:#fff"/><polygon points="689.59 191.17 689.8 191.4 690.9 190.3 690.57 190.24 689.59 191.17" style="fill:#fff"/><polygon points="658.73 220.02 659.39 219.79 659.5 218.86 659.25 218.41 657.8 219.86 658.73 220.02" style="fill:#fff"/><polygon points="684.57 205.13 684.65 206.55 685.66 205.53 685.66 203.73 684.57 205.13" style="fill:#fff"/><polygon points="683.54 207.66 683.75 207.44 683.38 205.94 683.54 207.66" style="fill:#fff"/><polygon points="651.56 236.1 507.22 380.44 508.49 380.34 511.43 379.06 512.1 379.1 651.06 240.13 651.56 236.1" style="fill:#fff"/><polygon points="645.29 252.37 642.75 254.91 640.85 259.93 638.76 262.43 644.09 257.1 645.29 252.37" style="fill:#fff"/><polygon points="644.09 257.1 645.64 255.55 646.2 253.41 647.83 251.2 649.14 249.69 650.12 247.83 650.16 247.5 645.29 252.37 644.09 257.1" style="fill:#fff"/><polygon points="640.85 259.93 642.75 254.91 518.21 379.45 521.55 379.64 638.76 262.43 640.85 259.93" style="fill:#fff"/><polygon points="681.52 217.81 682.07 218.63 682.2 218.99 682.5 218.7 682.07 216.76 681.52 217.81" style="fill:#fff"/><polygon points="595.28 315.65 595.04 316.15 598.99 312.21 598.66 311.58 597.24 311.46 595.97 311.69 595.18 312.48 595.17 312.51 595.28 315.65" style="fill:#fff"/><polygon points="639.54 268.12 639.54 268.88 637.91 270.16 636.71 271.91 636.38 274 636.64 274.56 640.7 270.5 641.9 265.76 639.54 268.12" style="fill:#fff"/><polygon points="594.21 316.98 595.04 316.15 595.28 315.65 595.17 312.51 595.18 312.48 589.93 317.73 593.64 317.17 594.21 316.98" style="fill:#fff"/><polygon points="640.7 270.5 643.41 267.79 642.92 265.86 643.16 264.5 641.9 265.76 640.7 270.5" style="fill:#fff"/><polygon points="636.71 271.91 637.91 270.16 639.54 268.88 639.54 268.12 595.97 311.69 597.24 311.46 598.66 311.58 598.99 312.21 636.64 274.56 636.38 274 636.71 271.91" style="fill:#fff"/><polygon points="580.58 327.08 528.84 378.83 532.37 378.83 580.74 330.45 580.58 327.08" style="fill:#fff"/><polygon points="550.57 368.82 550.88 366.78 537.63 380.03 540.41 380.78 551.14 370.05 550.57 368.82" style="fill:#fff"/><polygon points="563 355.32 562.97 354.69 560.04 357.62 562.57 356.84 563 355.32" style="fill:#fff"/><polygon points="587.21 330.66 587.86 329.85 587.89 329.77 587.1 330.56 587.21 330.66" style="fill:#fff"/><polygon points="766.16 155.03 767.48 153.72 766.78 153.24 766.16 155.03" style="fill:#fff"/><polygon points="672.12 245.54 671.93 245.73 672.14 245.97 672.12 245.54" style="fill:#fff"/><polygon points="602.47 316.24 604.65 315.77 605.74 311.93 606.83 311.93 606.83 314.36 621.34 299.85 623.19 295.29 623.84 294.36 623.95 293.9 624.28 293.55 625.37 292.85 625.37 293.2 625.81 293.43 626.68 293.43 627.66 292.85 627.55 292.04 627.71 289.95 601.82 315.84 602.47 316.24" style="fill:#fff"/><polygon points="613.49 314.37 613.54 314.12 613.22 314.44 613.49 314.37" style="fill:#fff"/><polygon points="553.95 376.15 553.18 374.48 545.49 382.17 547.3 382.67 549.35 381.85 553.78 377.41 553.95 376.15" style="fill:#fff"/></svg>