<?xml version="1.0" encoding="UTF-8"?><svg id="Guernsey" xmlns="http://www.w3.org/2000/svg" viewBox="0 0 720 540"><path d="M153.38,414.18l.4-.66-.4-.61h-.85l-.43,.66,.43,.61h.85Zm-17.57,15.96l-.03,3.69h1.6l1.17-1.85-1.97-6.73-3.2,1.23-1.6-1.27-1.28,3.04,2.85,1.89h2.45Zm162.35-56.67l-1.28,1.85-.03,1.27,.43,.61h1.6l.43-.57,.03-2.54-.43-.62h-.75Zm-147.21,53.01l.35-.69-.35-.57h-.83l-.35,.57,.43,.69h.75Zm56.81-36.92l.43-.66-.43-.61h-.85l-.32,.61,.32,.66h.85ZM405.32,46.41l.35-.58-.32-.62h-1.63l-.43,.58,.43,.7,1.6-.09ZM222.9,374.7l.43-.57-.43-.61h-.75l-.43,.69,.4,.5h.77Zm111.19,30.78l.43-.61,.03-1.19-1.25-1.85h-.75l-.43,.57-.03,2.46,.43,.57,1.57,.04Zm-4,20.96l.43-.57v-1.27l-.43-.61h-.83l-.35,.57v1.27l.4,.61h.77Zm-172.72-4.92l.43-.57-.43-.69h-.85l-.4,.69,.4,.57h.85Zm135.53-59.71l-2-3.08-2.37,2.46-5.62,.04-4-5.01-2.8,3.12-.37,3.08-3.23,3.61-2.43,.08-.75-1.27-2.45,.08-1.6-1.27-.4-3.04,1.28-.7,.35-1.84-1.95-.61-1.68,1.27-1.57-2.46h-1.6l-.77,1.27-3.97-.04-2.45,2.42-2.35,.08-1.28,1.76,1.25,1.89h3.2l2.77,3.04-1.6,11.17,.83,2.42-4.45,.58-1.6-2.46-3.17-1.19-.83-6.16-2.35-.05-3.23,4.97h-3.95l-2.43-2.46-.85,1.15-1.6-1.2-3.2,.08-1.2,1.76,1.2,.61,.4,1.93-1.2,1.76-2-1.76-.32-1.89-3.65,4.31,2.03,.58,1.17,1.89-1.2,1.85-2.35-.05-.03,3.74-5.62-1.23-1.55,1.27-.83-1.27h-3.2v1.23l2.77,1.89,.83,2.46-.77,2.42-.03,2.46-2.8,6.73-2.35,.08-.85,1.19-5.65,.04-.75,1.15-3.2-1.19-.85,3.74-2.03-1.89,.43-1.85-3.2,2.42-3.09-1.19-.03,2.46h1.52l4.45,3.04-.8,6.15-2.88,1.93-.75,1.19-6.4,1.23-.77,1.19-4.88,.04-2.32-4.88-2.45-.04-.75-1.27-2.8,4.3,.75,4.96-2.8,3.04-4.8,.08-3.17-2.46-4.8,1.15-3.23,3.77h-3.95l-.85-1.27-1.57-.04-1.97,3.11,.35,1.89h1.68l2.35,2.38h2.43l2.75,5.58v3.69l.83,1.27-2.4,8.61-3.2,1.23,1.6,2.38-4.4,5.53h-4.05l-3.17-2.38-7.97-1.32-1.23,10.45,2.83,5.58,3.2,1.19,.75,1.27h2.43l.83,2.45h3.97l.83-1.23h1.6l.85,1.19h1.49l.85-1.19,3.2,.04,1.6-2.46,1.6,1.19,.85-1.27,.75,1.27,6.37,1.23,.83,1.27,5.65-.08,3.09,2.46,3.28,.04,.75,1.19h4.03l.75,1.27,2.45,.04,.83,1.14h1.52l.83-1.14,.85,2.34,3.17,.04,.77-1.19,8.82-.05,.83,1.27,5.54-.04,1.6,2.54,1.25-1.92-.48-3.03h4.03l.77-1.27,3.28-1.23,.35-3.03,2.03-1.84,10.42,1.23,.75,1.19h1.68l-.45,4.31,1.17,1.89h1.6l1.65,3.73,3.15-4.96h3.28l-.48-3.11,1.25-1.85,.75,1.27h1.68l1.55-2.5h2.43l2.37-3.69h2.37l.83,1.27,5.62-.04-2.05,4.38,1.6,2.42-1.55,2.46,1.17,1.84,1.6,.04,4.8-3.76,.77-2.46,1.68,1.27,1.12-3.11-4.8-12.3v-2.38l-2.43-1.27,1.71-3.73,.77-1.23-.83-1.19,.8-9.88,2.77-.57,1.2-3.11-2.75-3.04-2-1.85-.8-6.19,3.17-11.03v-1.23l-3.17-3.65-.05-3.73,2.8-5.54,3.23-3.7,1.6-1.27,2.45,.04,.75-1.27,4.8,.04,1.63-2.46,3.97-2.51,1.2-3.03-2.03-1.85-3.17-.04-.43-1.77,4.48-.65,.75,1.19,2.43,.04,1.2-1.84,.8-7.43,2.77-.57,2-6.73,.8-7.43-1.57-2.46-.83-6.16Zm-35.62,129.82l-.35,.57,.32,.7h.85l.43-.66-.43-.61h-.83Zm14.45-54.11l-.43,.57-.03,2.55,.43,.57,.75,.04,.43-.7,.03-2.42-.43-.61h-.75Zm-175.14,22.14l-1.2,1.85,.43,.66h1.52l.4-.66,.03-1.27-.43-.57h-.75Zm201.91-90.45l.03-1.19-.43-.7-1.6,.08-.43,.58,.08,1.19,.4,.61h1.52l.43-.57Zm-181.99,88l-.32,.57-.03,1.27,.43,.66,.75,.04,.43-.7v-1.27l-.4-.57h-.85Zm38.47,25.78l-.43,.7,.43,.57h.75l.43-.57-.43-.7h-.75Zm-38.79-48.54l-.43-.61h-.83l-.35,.57v1.27l.32,.61h.85l.43-.61v-1.23ZM410.09,41.55l.43-.7-.4-.58h-.85l-.35,.58,.35,.66,.83,.04Zm.35,431.02l1.25,1.81h.75l.43-.57,.03-1.27-1.25-1.81h-.75l-.43,.57-.03,1.27ZM565.3,37.8l.43-.58-.43-.7h-.85l-.35,.7,.35,.58h.85Zm-3.17,3.71l.35-.66-.43-.62h-.75l-.45,.58,.43,.7h.85Zm-25.64-22.31l.43-.58-.43-.62h-.77l-.43,.58,.43,.62h.77Zm-89.65,435.5l.43-.61-.43-.57h-1.52l-.4,.57,.4,.66,1.52-.05ZM602.08,27.94l.43-.66-.4-.62h-2.45l-.35,.58,.4,.66,2.37,.04Zm17.59-.04l.35-.62-.43-.66-.75,.09-.35,.58,.32,.57,.85,.05ZM324.47,401.87l-.35,.57-.03,2.42,.43,.61h1.6l.32-.57,.03-1.27-1.17-1.77h-.83ZM617.23,26.66l.45-.58-.43-.7h-.77l-.43,.66,.43,.62h.75Zm-170.34,431.73l.43-.57-.43-.61h-1.6l-.43,.57,.43,.62h1.6ZM622.05,26.62l.35-.58-.32-.58-.77-.04-.43,.62,.43,.58h.75Zm-203.93,17.36l.43-.62-.43-.66h-.85l-.43,.66,.43,.62h.85Zm-2.37-.05l.35-1.85-.32-.58-2.45,.04-.35,1.77,.32,.62h2.45Zm4.83,.05l.35-.58-.43-.7h-.77l-.43,.7,.43,.58h.85Zm19.94,1.19l.43-.58-.43-.62h-.83l-.35,.58,.32,.62h.85Zm-25.62,.04l-.35,.66,.43,.62h.75l.35-.66-.32-.62h-.85Zm23.25,1.19l.43-.58-.43-.66-.85,.04-.43,.62,.43,.58h.85Zm-14.42,398.44l.4-.57-.4-.66-1.6,.04-.43,.61,.43,.57h1.6Zm6.37,.08l.43-.7-.08-1.14-.4-.7h-.77l-.32,.65-.03,1.19,.35,.7h.83Zm-3.17-401l.35-1.77-.35-.66-1.6-.05-.43,.7v1.19l.4,.58h1.63Zm125.59,11.22l.37-1.98-.35-.57-1.68,.08-.35,1.77,.4,.66,1.6,.04Zm-45.58-33.45h-.83l-1.2,1.86-.03,1.16,.43,.7h.85l.35-1.86,.77-1.28-.35-.58Zm27.96,3.76l-3.15,2.44-4.05-1.24-.45,3.05,3.71,1.9,3.92-2.51,2.05-3.09-2.03-.54Zm14.45,43.21l-.43,.66,.43,.62h.75l.35-.58-.32-.7h-.77Zm-4.8-1.15l-.43,.57,.4,.62,2.37-.08,.43-.58-.4-.62-2.37,.08Zm-12.02-33.44l-.43,.58,.43,.7h.75l.43-.66-.4-.62h-.77Zm4-2.51l-.43,.62,.43,.66h.75l.43-.66-.4-.62h-.77Zm-12.05-2.4l-.37,1.78,.43,.58,1.6,.04,.35-.62-1.17-1.78h-.83Zm-11.94-8.7l-.43,.62,.43,.58h.75l.43-.58-.4-.58-.77-.04Zm-4.85,3.71l-.43,.58,.43,.66,.83,.04,.45-.7-.43-.58h-.85Zm9.68-3.75l-.43,.62,.43,.66h.75l.35-.66-.32-.58-.77-.04Zm33.96,52.57v1.28l.32,.62,.45-.62v-1.28l-.43-.58-.35,.58Zm4.43,14.22l-.43,.66v1.19l.4,.66,.77,.05,1.2-1.94-.43-.62h-1.52Zm59.1-40.72l-.35,.58-.03,1.19,.43,.66h.75l.45-.66v-1.19l-.4-.58h-.85Zm12.08-13.61l-1.63-.04-.43,.62v1.16l.4,.7h1.63l.43-.66v-1.19l-.4-.58Zm-16.02,18.56l-.43,.58,.4,.62h.77l.43-.58-.43-.62h-.75Zm6.4-21.03l-.83-1.28-1.55,1.24-2.45-.05-.77,1.28-3.28-1.23-1.57-3.76-1.52,.09-1.65,3.62-4.8,.05-4.37,5.52,.37,4.33-1.63,1.28h-7.2l-1.57-1.19-.83-2.56-1.55,1.24-.8-2.47-1.97,1.85-.45,3.14-4.05-1.24-3.15,2.43-6.34,.04-2.85,4.37-1.2,3.01-4,2.51-2.4,3.71-2.83,1.86-1.6,7.42,2.83,5.56,7.2,.04,.83,1.19h8.02l.77-1.23h3.12l.85-1.24h1.63l.77-1.28,2.37,.05,3.23-2.51,5.57,.08,.85-1.28,2.37-.04,1.63-2.43,3.17-2.51,3.97-1.23,3.17-3.71,.85-1.15,3.23-.08,1.97-3.09,.43-6.81h6.32l5.65-6.14,2-3.09,.03-2.48-2.03-1.85-3.97,.04Zm-57.61,43.21l-.43,.66,.43,.58,1.6,.04,.43-.58-.43-.7h-1.6Zm33.56-9.81l-.43,.58,.08,1.19,.43,.66h.75l.43-.66,.03-1.19-.43-.58h-.85Zm-19.14,13.52l-.43,.66-.03,1.28,.43,.58,1.6,.04,.45-1.86-.43-.7h-1.6Zm16.77-11.13l-.37,1.89,.43,.58h1.52l.43-.58-1.17-1.85-.83-.04Zm-183.19,436.44l-.43,.66,.08,1.27,.35,.61h.83l.35-.69v-1.19l-.4-.66h-.77Zm2.05-32.62l-2.03-1.76h-8.05l-1.95,1.84-.8,3.61,3.63,.74,.72,2.42,3.28,1.23,.77-3.73,4.37-.62,.05-3.73Zm-1.6,30.86v-1.27l-.4-.61h-.85l-.43,.61v1.23l.4,.61h.85l.43-.57Zm1.95,9.18l-1.2,1.76,.4,.7h1.6l.43-.66,.03-1.27-.43-.62-.83,.08Zm-56.78-93.51l-.43,.7v1.15l.4,.61h.85l.43-.57v-1.27l-.4-.61h-.85Zm-17.99,12.96l-1.17-1.89h-2.35l-1.71,1.23-1.2,1.84,.08,3.73,1.15,1.85,1.6-.04,2.37-2.46,1.23-4.27Zm3.23-17.27l-.43-.62-.83,.08-.35,.61v1.15l.4,.61h.77l.43-.57v-1.27Zm-4.45,24l-.35,.57,.32,.7h1.68l.35-.65-.32-.61h-1.68Zm15.59-28.92l-1.17-.57-.35-9.27-1.25-1.8-3.97,1.23-3.23,3.7-3.63,.57,4.83,8.65,.83,2.42-.03,2.54-1.6,1.19,.77,9.85,1.25,1.89,1.6-1.27,3.2-2.5,2.37,.04,2.83-6.77v-2.5l-2.4-3.65-.05-3.74Zm-10.8,14.19l-.43,.57,.43,.62h.83l.43-.57-.4-.62h-.85ZM495.64,42.7l-.43,.7,.43,.58h.85l.43-.58-.43-.7h-.85Zm-46.78,419.98l-.43-.57h-.75l-1.2,1.85,.43,.57,1.6,.04,.43-.7-.08-1.19Zm-2.72,3.12l-3.25-1.31-1.6-2.46h-1.57l-.85,1.27-.43-.61-1.17-9.18-1.6-1.19-4.8-.04-1.55-3.65-5.62-2.51-1.17,10.46-2.48,4.88,.08,1.27-2.05,3.07h-1.6l-2.83,5.53,.83,3.73-1.2,.57-.43,1.85,2.83,3.07,2.43,2.46,2.37-1.27,1.2,6.76-2.77,.65-.85-1.19-.77,2.37-3.95,1.19-1.63,2.54h-1.68l-1.12,4.26,.75,1.27,1.23,3.03,2.03,.61-.03,2.46,2,1.85,1.6,.04,3.2-2.5,2.83-4.26,.77-3.73,2.4-3.69v-2.42l1.2-1.85,3.2-1.27,3.25-4.92,.72,3.69,3.2-1.23,2.48-3.69,1.15,.62-.35,3.11h2.35l1.2-1.92,.03-2.42,3.23-6.15-.03-3.69-1.15-5.49Zm4.72,7.37l-.75,1.23h-.85l-.35,1.76,.43,.7,1.57-.08,1.2-1.84-.4-1.77h-.85Zm-4.8,12.26l-.35,.57,.35,.61h.83l.43-.57-.43-.61h-.83Zm-23.94,29.54l-.43,.57-.03,2.46,.43,.65,1.57,.04,1.2-1.92-1.15-1.8h-1.6Zm-9.62-4.96l-.43,.57v1.27l.4,.66,.85,.04,.32-.7,.03-1.27-.35-.57h-.83Zm10-.62l-.4-.57h-.85l-.35,.57,.35,.66,.83,.04,.43-.7Zm1.55-4.87l-.32-.66h-.85l-1.17,1.93,.32,.57h.85l1.17-1.85Zm-12.34,1.76l-1.6,.08-.43,.57,.4,.57,1.6,.04,.43-.57-.4-.7Z" style="fill:#efc441;"/></svg>