<svg xmlns="http://www.w3.org/2000/svg" viewBox="0 0 800 800"><polygon points="205.95 497.21 204.78 496.48 203.88 495.6 203.47 494.35 203.81 492.73 204.09 492.66 205.6 492.73 205.95 492.58 205.95 492.14 205.81 491.7 205.95 491.33 208.7 488.32 210.56 484.94 211.8 483.32 213.52 482.3 215.24 482.22 218.48 482.96 220.34 482.3 220.34 481.63 214.21 481.86 211.32 481.56 210.15 480.46 210.28 480.02 211.18 479.14 211.46 478.62 211.46 477.23 212.28 475.02 212.83 472.74 210.56 475.24 209.59 477.89 209.04 480.68 208.01 483.84 205.53 482.74 204.5 482 203.81 480.83 204.71 480.31 204.84 479.28 204.57 476.49 204.71 476.49 204.91 475.98 205.12 475.24 205.26 474.65 205.05 474.21 204.09 473.63 203.81 473.48 203.53 471.27 203.47 468.04 204.16 466.06 205.95 467.53 205.67 465.18 205.67 464.15 205.95 463.12 205.26 463.12 204.64 463.85 203.81 464.37 202.71 464.51 201.4 464.59 200.71 465.03 200.23 466.2 199.2 471.2 198.58 472.23 196.24 470.98 195.2 470.69 194.79 469.95 195.55 468.33 194.58 467.38 193.55 465.69 192.86 463.63 192.79 461.57 193.48 459.52 195.62 456.43 196.31 454.15 195.55 454.15 193.14 456.21 189.42 456.43 185.98 455.33 184.53 453.05 183.84 449.82 183.84 448.13 184.87 446.37 185.84 445.26 186.59 443.79 187.08 442.1 187.28 440.12 186.59 440.12 184.32 444.97 183.01 446.95 181.16 447.54 179.71 446.58 178.33 444.68 177.3 442.25 177.02 440.12 173.93 441.51 171.51 442.99 168 445.12 165.25 446 165.11 446.29 164.35 446.73 163.53 446.95 163.18 446.37 163.39 445.48 163.87 445.19 164.56 445.04 165.25 444.53 168.49 439.61 170.55 437.03 171.79 434.17 173.24 431.67 173.51 429.98 173.37 423.73 173.51 423 173.99 422.48 175.37 421.9 175.65 421.16 176.34 419.99 177.78 419.18 179.23 418.22 179.78 416.39 177.71 417.56 176.4 417.86 175.44 417.27 171.03 411.68 170.69 410.43 170.28 410.58 170 410.73 169.31 411.1 170.48 414.55 170.76 417.56 169.72 419.99 166.63 421.53 162.91 421.16 161.05 418.59 160.77 415.14 161.81 411.9 165.94 406.32 167.59 402.79 167.25 399.19 166.42 398.46 166.07 399.85 165.87 401.91 165.59 403.01 164.49 403.67 162.56 406.76 161.12 407.42 161.25 407.86 160.77 408.23 157.26 409.63 156.85 409.7 154.78 409.48 152.92 409.11 151.41 408.52 150.79 407.79 150.17 406.54 148.79 404.7 147.07 402.94 145.62 402.2 142.87 400.37 142.32 399.56 141.15 396.99 140.25 396.55 138.53 396.47 137.7 396.18 136.95 395.52 134.95 393.31 133.43 392.65 132.4 392.43 131.3 391.99 129.78 390.67 129.37 387.95 130.95 384.79 133.57 383.17 136.26 385.16 135.5 383.83 134.12 382.07 132.81 380.75 132.19 381.04 131.44 382.44 129.92 381.85 128.75 380.6 129.03 379.94 131.23 378.99 132.88 376.71 135.64 371.78 134.19 372.52 133.09 373.47 131.09 375.83 130.06 376.56 127.31 377.96 126.62 378.4 126.48 379.72 126.62 384.79 126.34 385.97 125.51 387.07 124.21 387.88 122.48 388.1 120.21 387.36 118.49 385.75 117.53 383.61 117.66 381.48 119.25 379.72 121.73 377.74 123.17 375.83 121.73 373.99 121.38 375.61 120.21 376.49 118.63 376.85 117.04 376.93 117.25 379.35 115.46 381.19 113.26 381.92 112.16 381.04 111.81 380.31 111.12 379.43 110.43 378.18 110.09 376.56 110.43 375.83 111.05 375.09 111.47 374.43 111.05 373.62 110.57 373.47 110.02 373.62 109.54 373.92 109.4 374.36 108.44 376.12 106.23 374.8 100.17 368.92 99.14 368.33 97.69 367.96 96.18 368.11 94.8 368.55 93.49 368.7 92.19 367.96 90.12 370.17 89.09 368.99 88.74 366.35 88.74 363.92 89.5 360.39 89.5 359.07 89.02 357.6 88.47 356.94 87.78 356.5 81.58 349.67 80.48 347.24 80.2 344.96 80.2 342.25 80.75 339.75 81.72 338.35 81.79 338.28 80.13 338.43 79.03 339.23 78.14 340.34 76.97 341.29 75.59 341.81 73.87 342.1 72.35 341.73 71.53 340.56 70.84 340.56 70.08 341.88 69.46 341.44 68.98 339.82 68.77 337.91 68.84 336 69.12 334.53 70.15 331.59 71.32 331.96 72.63 330.78 74.14 329.09 75.59 327.92 73.18 327.84 72.35 326.45 72.49 324.46 73.73 318.44 74.56 316.9 75.59 317.56 76.21 317.56 76.42 315.94 77.17 315.06 78.07 314.62 78.41 314.1 79.72 309.25 82.2 304.11 83.58 303.45 84.33 302.05 84.47 300.29 83.92 298.82 84.33 298.31 85.3 296.76 83.3 297.35 83.03 298.23 83.37 299.41 83.16 301.1 79.79 303.6 79.38 304.11 77.93 305.29 76.21 308 74.83 310.94 73.66 314.47 72.28 316.82 69.46 320.42 66.57 323.14 65.19 323.66 64.64 322.33 64.85 320.64 65.4 319.47 66.29 318.66 67.39 318.22 66.64 318.07 66.02 318.07 65.4 318.37 64.64 318.95 63.26 317.56 64.5 313.22 65.26 311.38 66.36 309.69 66.98 309.03 68.43 308 69.12 307.42 69.6 306.54 69.87 305.8 70.08 305.58 69.6 305.36 68.77 304.85 67.39 306.68 62.85 310.43 61.68 312.27 60.51 316.31 59.13 317.56 58.17 315.43 56.86 314.1 55.89 312.63 55.62 310.06 57 310.14 58.17 309.11 59.06 307.64 59.75 306.31 60.23 304.85 60.58 303.23 60.65 301.83 60.51 301.1 60.78 300.51 60.92 300 61.13 298.82 59.27 300.29 58.65 301.17 58.37 302.2 57.89 302.64 55 304.11 54.24 304.11 54.17 302.86 54.24 301.69 54.52 300.58 55 299.63 54.38 298.67 54.31 297.64 54.72 296.76 55.62 295.95 53.76 295.73 53.14 294.49 53.48 292.8 54.24 291.47 55.55 290.59 57.27 289.93 59.2 289.42 60.78 289.27 62.02 288.53 62.71 286.99 63.13 285.52 63.54 284.79 65.26 284.35 67.12 281.92 68.77 281.04 68.01 280.38 67.46 279.72 66.71 278.03 66.5 278.98 66.22 280.01 65.67 280.75 64.98 281.04 64.43 281.19 62.85 281.85 62.51 282.14 62.09 284.27 60.99 286.11 59.48 286.99 57.69 286.18 57.2 286.7 56.72 286.99 56.03 287.06 55 286.99 55.62 284.93 55 283.61 54.03 283.32 53.55 284.42 50.73 288.46 47.63 287.8 45.63 281.63 43.22 281.77 44.95 283.61 45.22 285.67 44.67 287.58 43.98 289.27 41.85 287.58 40.68 287.06 39.09 286.99 42.4 289.71 43.64 291.18 43.98 292.94 42.95 294.93 41.09 296.98 39.23 298.38 38.4 298.45 38.2 298.16 37.72 298.09 37.23 298.16 37.03 298.45 37.16 299.19 37.65 300.22 37.72 300.73 37.72 304.48 38.13 305.07 39.09 305.58 40.06 306.24 40.47 307.42 40.26 308 39.09 310.06 37.3 309.11 33.65 308.52 31.86 307.42 29.73 305.07 28 302.57 27.04 300.29 26.83 298.16 27.52 296.1 29.11 294.04 29.8 293.68 31.79 293.02 32.21 292.57 32.34 291.77 32.62 291.03 33.1 290.37 33.51 289.93 33.51 289.27 33.1 289.27 32.96 289.12 32.96 288.83 32.89 288.46 35.79 285.3 39.16 281.04 48.8 261.13 50.8 252.6 52.31 248.56 62.3 232.98 64.09 230.85 66.5 229.38 70.7 228.94 79.03 229.97 83.23 229.16 92.12 223.95 101.48 218.51 102.79 217.48 103.48 216.38 104.58 213.73 105.41 212.85 106.51 212.19 106.99 212.26 107.61 212.63 116.01 213.22 118.35 212.85 119.32 213.07 120.21 213.73 121.11 214.54 122.07 215.13 123.72 215.57 125.1 215.5 128.13 214.91 129.72 214.91 134.12 215.64 135.98 214.91 140.32 212.12 141.08 211.46 143.28 212.63 145.35 212.56 147.07 211.46 148.38 209.4 148.65 208.37 148.86 205.87 148.38 204.62 148.72 204.03 150.24 204.11 151.06 204.77 151.41 206.97 152.23 207.49 153.75 207.93 153.75 208.66 153.54 209.47 154.16 210.28 156.16 210.57 158.78 210.06 161.19 209.03 162.77 207.78 163.32 206.31 163.8 201.61 163.87 199.7 162.29 186.84 162.63 182.36 163.53 177.95 163.39 175.89 162.29 174.06 161.32 173.54 157.81 172.95 156.16 172.22 154.99 171.34 152.78 168.76 152.16 167.74 151.96 166.85 151.47 166.19 148.72 165.24 147.69 164.43 145.76 162.44 143.83 161.2 141.77 160.46 139.15 160.09 138.39 159.65 138.81 158.48 138.81 156.13 139.08 155.02 141.28 152.38 147.34 149.37 149.82 147.24 151.68 145.99 154.44 145.25 156.16 145.84 154.85 148.26 161.67 148.19 164.63 147.01 166.28 144.3 166.69 141.43 167.52 139.3 167.59 138.05 167.31 134.89 167.38 133.5 167.59 132.54 169.38 128.06 169.72 126.22 169.45 124.31 168.35 122.11 163.25 115.35 162.29 112.41 162.15 109.98 162.98 102.78 195.48 104.1 200.02 105.35 200.37 105.5 200.78 105.65 201.68 106.31 202.16 106.53 202.71 106.45 202.99 106.23 203.26 105.94 203.74 105.72 206.77 105.06 207.67 104.98 208.49 105.21 209.73 106.09 210.63 106.23 211.46 106.09 213.18 105.57 213.93 105.5 214.49 105.79 215.45 106.9 215.93 107.19 216.34 107.12 217.58 106.67 218.48 106.67 219.17 106.6 219.86 106.67 220.68 107.19 221.58 106.01 223.44 106.97 225.23 106.97 227.02 106.6 228.53 106.9 229.84 108.36 230.25 110.42 230.12 112.63 229.77 114.46 228.26 118.21 227.91 119.97 228.33 122.11 229.5 123.87 231.01 124.75 232.73 124.9 234.66 124.68 236.45 125.41 238.1 125.27 239.28 124.24 239.62 122.11 241.27 117.77 244.99 117.77 248.92 119.9 251.4 122.25 251.33 122.69 251.19 123.43 251.4 124.31 252.43 125.34 253.39 125.78 256.42 126 258.01 126.81 258.42 127.91 259.04 128.79 261.1 129.09 267.58 128.65 269.64 128.94 271.64 129.82 273.29 131.22 276.12 134.6 276.67 135.63 276.74 136.36 277.08 136.8 278.53 136.8 278.66 136.8 279.42 136.58 282.38 134.82 284.31 134.01 286.03 133.64 287.75 133.72 289.89 134.3 294.23 135.99 296.02 137.32 298.91 142.02 300.49 142.9 317.5 138.2 321.22 135.99 324.53 132.76 326.39 131.81 328.87 131.73 334.93 133.86 337.06 134.08 338.37 133.79 342.22 131.58 343.33 130.78 343.74 130.56 344.5 130.56 344.63 130.7 344.77 130.85 350.9 133.57 352.97 134.08 361.16 134.45 365.02 133.72 372.73 130.7 376.93 129.82 385.54 129.16 388.98 129.53 395.59 132.03 398.35 132.17 398.35 134.3 396.42 134.6 394.01 134.45 392.43 135.41 392.01 137.83 392.63 142.16 392.7 144.66 390.84 148.93 387.95 152.09 386.37 155.32 388.16 159.73 390.08 161.49 396.21 164.43 398 165.97 402.07 171.78 403.72 173.32 405.72 174.72 407.78 175.82 409.78 176.55 411.71 176.55 414.94 175.16 416.6 175.08 418.18 174.57 419.69 172.95 420.73 170.9 421.42 167.74 422.04 167.37 422.93 167.29 423.69 166.93 425.13 164.5 425.62 163.91 425.69 163.77 428.92 161.27 430.09 159.87 431.4 155.24 432.16 154.14 433.54 153.85 435.88 153.92 440.22 152.38 442.21 152.31 444.69 152.97 446.48 154.36 450.55 161.12 452.89 162.96 455.23 164.13 457.02 165.75 457.71 168.76 457.43 169.72 456.4 171.63 456.26 172.51 456.74 173.69 459.43 176.55 463.56 184.86 466.45 188.09 470.65 187.94 472.1 187.13 473.13 186.18 474.23 184.27 475.13 182.28 475.47 180.74 476.3 179.71 478.09 178.39 480.16 177.21 481.74 176.7 481.05 174.28 482.15 172.95 484.15 171.92 486.22 170.38 486.22 169.65 485.94 168.47 486.01 167.44 486.9 166.93 487.25 166.56 486.42 164.36 486.56 163.33 488.35 162.59 493.17 163.03 494.13 161.42 494.89 160.53 498.34 157.45 499.64 156.57 500.33 157.16 500.95 157.52 502.47 158.04 502.4 156.49 502.95 156.05 503.91 155.98 504.81 155.47 505.29 154.44 505.5 154.14 506.19 154.73 506.46 155.32 506.74 155.39 507.36 154.07 511.14 152.45 511.97 152.89 512.45 153.63 513.07 154.29 516.38 154.95 519.96 156.79 521.89 157.16 524.37 157.08 525.05 157.16 526.09 157.67 527.46 158.92 528.22 159.43 528.91 159.65 529.25 159.8 530.91 159.87 531.94 160.09 533.18 160.75 535.25 162.52 536.49 163.11 538.35 163.77 541.86 165.75 543.92 166.05 545.71 166.63 549.23 169.57 551.01 170.53 551.98 170.53 554.04 170.16 554.73 170.16 555.84 170.6 557.42 172 558.45 172.66 560.31 173.25 565.89 173.39 568.3 170.6 569.61 168.76 570.02 167.37 569.82 165.09 569.95 163.25 570.71 161.56 572.23 159.87 575.39 157.67 586.75 153.63 588.75 151.72 590.34 150.47 594.47 148.41 596.19 148.19 602.39 149.29 604.73 146.79 605.21 145.4 604.93 142.75 606.24 142.39 607.14 140.62 607.55 138.56 607.48 137.17 606.93 136.65 605.28 136.29 604.52 135.77 604.04 134.74 603.97 133.79 603.7 132.98 600.94 131.36 599.08 129.53 597.63 127.69 597.08 126.59 598.53 124.6 603.35 123.36 605 122.11 605.69 121.96 606.24 122.11 607.62 122.91 609.07 123.5 609.82 122.99 610.58 122.33 611.89 122.25 619.53 123.94 623.8 125.49 635.85 132.1 639.23 133.94 641.02 135.99 642.19 138.49 642.33 140.84 641.43 143.27 640.12 145.47 639.02 147.75 638.88 150.62 639.16 151.72 640.19 153.41 640.54 154.51 641.23 155.76 642.47 155.69 644.46 154.88 645.98 155.76 647.28 157.67 648.04 160.09 647.97 162.52 646.46 166.78 646.04 169.21 646.46 171.26 648.32 172.88 650.52 173.03 652.79 172.73 654.93 173.1 656.72 174.79 657.2 176.63 657.06 178.68 657.27 181.03 657.75 182.21 658.44 183.24 658.92 184.34 659.06 185.59 653.97 213.37 655.89 213.29 657.54 214.1 659.2 215.13 661.06 215.79 663.12 215.5 664.71 214.69 666.15 214.32 667.53 215.35 669.73 223.14 670.08 225.12 670.9 227.33 672.01 229.38 673.18 230.93 678.62 233.57 681.37 233.79 683.92 231.66 684.47 232.98 684.95 235.34 685.37 237.32 686.12 238.94 687.36 239.38 690.12 239.45 696.18 241.43 699.21 242.98 701.48 244.96 699.62 245.47 697.55 246.5 696.38 247.9 697.14 249.52 699 249.88 700.86 249.59 701.89 250.1 701.34 252.9 700.17 254.37 698.31 255.03 696.25 255.1 694.52 254.88 690.6 253.93 689.63 254.73 688.6 257.16 688.67 257.6 689.02 258.11 689.22 258.77 689.02 259.51 688.67 259.8 687.71 259.88 687.36 260.02 686.47 260.61 684.4 261.57 683.71 262.01 682.47 263.92 681.92 267.74 681.03 269.5 680.13 269.94 678.13 270.02 677.31 270.38 676.41 271.63 676.35 272.74 676.62 273.76 676.55 275.01 675.45 277.14 670.84 282.14 669.94 283.54 669.11 285.37 668.7 287.29 669.18 288.98 670.7 290.08 672.28 289.56 674 288.61 676 288.39 677.72 288.68 679.51 288.75 681.3 288.53 682.96 288.02 684.75 286.7 685.71 285.01 688.33 279.2 690.05 279.2 692.05 279.86 694.11 279.79 695.14 279.5 696.04 279.64 697.9 280.38 698.93 280.23 700.86 279.06 702.03 279.06 704.3 280.23 706.37 282.29 707.88 284.86 708.5 287.29 708.64 298.53 708.43 300.51 707.82 301.47 707.13 302.35 705.06 308.37 704.78 310.65 707.47 311.75 707.88 313.66 709.47 335.12 710.64 337.98 713.67 342.47 716.22 347.54 718.01 348.49 720.21 348.56 722.55 348.05 724.07 347.39 724.89 346.8 725.58 347.1 726.61 348.79 726.96 350.11 727.03 352.97 727.58 354.37 729.58 355.84 732.19 356.35 737.63 356.65 739.56 357.82 741.08 360.1 742.11 362.89 742.8 365.32 743 368.11 742.45 370.68 740.25 375.83 739.22 377.07 738.46 378.4 737.98 379.87 737.63 381.48 735.7 384.13 733.36 385.52 728.27 387.51 726.41 389.42 724.34 392.36 723.24 395.08 724.27 396.25 725.51 396.77 725.1 397.8 723.86 398.82 721.73 399.71 721.66 400.66 721.93 401.76 722.35 402.64 722.69 402.87 723.24 402.94 723.79 403.09 724.2 403.67 724.41 405.58 724.55 406.17 724.41 406.39 723.93 406.54 723.59 406.91 724 407.94 724.41 408.08 726.34 407.94 726.82 410.21 723.1 438.43 722.97 439.38 723.03 441.81 723.38 444.23 723.86 446.14 724.62 447.91 730.47 456.73 732.12 458.71 733.78 459.59 735.98 460.11 738.25 460.18 740.04 460.03 742.11 459.15 745.97 456.87 748.1 456.43 752.23 456.43 752.78 457.31 750.1 465.98 749.75 468.48 746.17 477.89 746.31 481.78 751.4 483.99 752.64 483.76 753.68 483.32 754.5 483.47 755.88 486.26 756.98 487.44 759.25 489.28 763.46 491.77 764.7 493.46 764.56 493.54 762.9 494.86 760.56 495.23 758.57 495.23 756.64 495.45 747.62 500.37 746.1 502.06 745.07 504.71 744.59 507.28 744.17 512.57 742.32 521.97 743.35 525.28 747.96 526.75 750.16 527.04 756.23 529.03 756.64 528.95 757.74 528.37 758.29 528.37 758.98 528.88 759.74 530.2 760.22 530.79 762.15 532.63 762.84 533.51 765.25 538.14 766.21 539.32 769.03 541.37 769.72 542.25 770.27 544.31 770 548.43 770.2 550.78 771.51 555.26 771.51 557.1 770.75 559.82 770.41 562.39 771.1 564.74 773.17 569.29 767.31 570.03 764.56 569.59 762.28 568.04 759.12 561.28 756.91 558.2 754.71 558.57 754.37 560.18 754.64 562.02 754.43 563.49 752.71 564.37 751.06 564.3 749.41 563.78 747.96 562.9 746.86 561.87 746.1 560.4 745.55 558.86 744.86 557.46 743.62 556.36 742.18 556.14 740.66 556.36 737.63 557.17 736.74 557.02 734.95 557.17 734.12 557.1 733.43 556.8 732.4 555.77 731.5 555.41 729.44 555.63 726.13 557.02 724.07 557.24 720.49 556.43 719.04 556.65 714.15 560.84 713.6 561.58 713.67 562.9 714.15 564 714.84 565.25 715.39 566.58 715.53 568.78 714.29 574.95 714.29 577.01 714.56 578.99 714.22 580.24 712.57 582.08 712.43 583.25 720.83 589.13 730.61 592.29 731.57 592.14 737.63 589.94 738.87 589.94 738.94 590.97 738.39 592.51 737.63 593.84 737.01 597.07 737.08 598.76 737.63 600.23 739.49 601.48 741.21 603.46 742.38 605.81 742.66 606.91 743 608.16 741.21 608.02 739.97 607.21 739.01 606.33 737.98 605.96 733.78 606.69 732.26 606.62 732.47 607.58 732.26 610.22 731.23 614.41 726.27 622.49 726 626.83 726.75 627.93 729.02 630.06 729.51 631.24 729.3 632.26 728.75 632.93 728.13 633.29 727.65 633.88 727.23 635.64 726.89 639.25 726.41 640.79 723.17 644.76 723.1 645.2 723.38 646.3 723.31 646.74 722.9 647.18 721.79 647.84 721.31 648.28 719.32 651 718.83 652.25 718.76 653.06 719.11 654.82 719.04 655.56 716.22 659.01 712.5 657.32 708.71 654.16 705.34 653.28 701.75 654.38 699.9 654.53 697.49 651.59 694.94 652.99 690.39 657.54 687.36 655.48 684.13 652.91 682.2 650.49 681.58 647.55 682.13 643.51 670.15 642.85 669.32 644.98 666.7 648.43 666.02 650.63 665.81 654.38 665.6 654.97 665.05 656.07 664.85 656.73 664.98 657.39 665.4 657.61 665.81 657.69 666.08 658.2 666.22 660.7 665.81 662.83 664.85 664.82 663.12 666.8 660.3 668.56 659.68 669.08 659.34 670.11 659.2 672.31 658.78 673.26 657.96 674.07 656.31 674.59 655.41 675.25 653.55 677.67 652.66 679.14 652.17 680.32 652.38 682.16 653.14 684.14 653.55 686.12 652.93 688.33 651.83 688.99 647.42 690.75 646.11 690.9 644.19 687.67 642.95 686.86 642.4 689.36 641.29 688.84 640.88 689.06 640.54 690.75 640.05 690.75 637.85 691.49 637.02 692 635.3 691.86 633.93 692.66 632.69 693.84 631.24 694.94 629.93 695.38 628.49 695.68 627.93 695.82 627.18 696.12 626.01 697.22 626.97 693.54 626.56 692.08 624.63 691.05 623.87 690.31 623.8 688.48 623.25 688.03 620.98 688.11 620.36 688.03 617.88 685.54 616.5 678.78 615.06 676.64 613.47 676.42 610.1 677.38 608.51 677.09 607.9 676.35 607.21 674.22 606.52 673.34 605.62 672.75 604.93 672.46 603.49 672.24 601.84 672.31 600.87 672.53 600.46 672.9 600.25 674.07 599.77 674.44 599.15 674.59 597.63 676.94 596.47 675.91 594.54 672.24 593.43 674.07 590.47 677.09 589.65 677.53 589.65 677.45 589.23 677.16 590.34 676.2 590.96 675.1 591.23 673.78 591.3 672.31 591.71 670.99 592.68 669.96 594.74 668.27 597.01 664.67 597.91 662.32 597.5 660.85 599.29 658.57 600.04 657.39 600.53 654.53 601.08 652.84 601.97 651.44 603.08 650.56 600.94 647.91 600.73 644.32 601.77 640.49 602.87 637.7 600.32 634.17 599.43 632.34 596.81 628.81 594.47 624.25 593.5 619.77 593.78 615.22 595.02 610.51 595.16 610.22 595.91 609.19 596.12 608.09 595.98 606.99 595.43 605.81 594.26 604.34 593.16 604.2 592.13 605.15 590.89 606.69 591.02 605.45 592.13 603.53 592.33 602.36 590.54 594.57 590.54 593.32 590.2 592 589.16 591.48 586.75 590.9 585.31 589.79 585.1 586.86 585.79 583.77 586.75 582.08 587.24 581.64 587.38 581.12 587.24 580.61 586.75 580.17 586.2 579.07 585.79 577.89 585.31 576.79 584.35 575.83 585.45 574.66 586.07 574.07 586.75 573.7 587.17 573.48 588.41 572.67 587.86 572.38 587.17 571.57 585.38 570.25 580.35 567.97 579.04 566.06 578.22 565.4 577.53 566.28 577.04 567.02 576.29 567.38 575.46 567.53 574.63 567.38 572.91 567.46 571.4 567.82 570.5 567.53 570.64 565.55 571.54 564.15 572.91 563.2 573.74 561.87 573.19 559.6 571.88 558.2 569.88 557.17 567.89 557.17 566.65 558.64 566.37 560.92 566.37 562.46 565.96 562.75 564.58 561.14 563.55 559.23 563.07 557.32 562.45 552.25 561.83 550.41 560.79 548.94 559.07 548.72 559.14 550.04 558.66 551 557.9 551.73 557.21 552.69 557.28 553.57 557.56 554.38 557.42 555.11 554.94 555.92 553.15 556.88 552.25 557.17 551.77 556.51 551.29 555.99 550.81 555.77 549.36 556.14 548.88 556.22 546.95 556.29 545.23 556.51 543.65 557.02 541.92 557.98 538 561.28 533.94 563.86 531.8 564.22 530.49 563.71 530.01 562.31 531.04 557.24 530.36 555.63 528.84 554.67 523.13 553.13 521.4 553.13 519.75 553.64 516.31 557.24 514.66 558.27 513.83 556.43 511.76 557.32 510.73 557.54 509.63 557.46 508.46 557.61 507.63 557.32 506.81 556.8 504.05 555.92 503.36 555.92 500.33 556.36 498.82 556.95 497.51 557.83 496.34 559.01 495.37 560.48 492.96 565.77 491.73 567.46 485.8 573.63 482.22 576.13 480.43 576.93 479.33 576.64 476.44 574.66 474.99 574 471.62 573.78 468.79 574.8 466.8 577.08 466.04 580.68 464.04 578.77 465.07 575.25 467.42 571.64 469.21 569.29 470.72 566.72 472.17 557.39 473.27 557.24 473.55 556.36 473.55 555.04 473.75 553.64 474.44 552.32 476.02 550.78 477.61 547.62 479.19 545.34 481.12 543.58 483.19 543.13 485.53 542.99 487.39 541.59 488.76 539.46 489.52 537.11 485.25 530.94 484.7 529.91 483.19 528.73 479.05 522.93 478.78 522.63 478.02 522.12 477.68 521.68 477.61 521.31 477.75 520.14 477.75 519.7 476.78 516.61 476.64 515.51 476.44 507.65 476.92 503.9 478.5 497.51 478.43 497.21 478.37 496.55 478.23 495.89 477.06 494.79 474.72 494.13 470.72 493.69 466.52 493.83 462.94 492.66 462.25 488.69 463.29 484.06 465.07 480.68 466.11 479.94 467.21 479.36 468.31 478.69 469.07 477.45 469.21 476.42 468.79 474.58 468.79 473.63 469.28 472.3 469.83 471.13 470.24 469.88 470.1 468.56 465.83 464.59 464.73 464 463.42 463.04 462.25 461.94 461.01 460.03 460.05 459.81 459.01 459.81 458.05 459.66 457.36 459.81 455.57 459.74 454.33 459.3 455.3 458.34 456.4 457.53 456.19 456.95 454.61 455.84 453.09 454.08 451.99 452.46 451.58 450.48 452.13 447.83 452.27 446.29 451.51 445.56 450.41 445.04 449.72 444.09 449.24 441.07 448.82 440.19 447.86 439.09 445.31 437.18 444.55 436.15 443.87 433.29 443.45 432.48 442.76 431.89 441.18 431.23 440.56 430.86 439.94 429.83 438.77 426.16 436.43 421.31 432.92 416.46 428.78 412.27 421.28 407.2 420.52 405.95 419.21 398.82 418.45 396.4 417.35 395.37 415.98 395.22 412.53 394.12 409.99 393.83 388.64 393.98 345.87 394.19 345.39 400.81 344.7 401.84 325.77 406.25 322.6 406.98 320.88 406.91 319.22 406.54 317.37 405.73 314.95 404.19 313.1 402.43 311.31 401.18 308.96 401.1 293.88 404.48 289.27 406.32 285.69 408.52 285.07 409.55 285 410.21 285.14 410.95 285.14 412.05 283.76 420.13 283.83 420.43 284.24 421.68 284.24 422.19 283.97 422.48 283.42 422.34 282.93 422.41 282.73 422.93 282.73 424.25 282.59 424.62 282.31 424.69 279.15 426.75 278.25 427.7 276.6 430.79 276.32 431.15 276.19 435.71 275.77 436.67 274.95 436.74 273.98 436.59 273.09 436.96 272.61 437.92 271.71 441.44 271.43 441.96 271.23 442.25 270.88 442.4 270.33 442.62 269.57 442.99 269.51 443.43 269.71 443.94 269.64 444.45 266.27 456.21 265.79 456.95 265.1 457.53 264.75 457.97 264.48 458.56 264.07 459.3 263.58 459.15 263.1 458.78 262.62 458.71 260.97 459.74 260.42 460.25 259.59 461.43 259.59 462.31 260 463.26 259.93 464.07 258.56 464.51 256.83 465.47 254.43 469.73 252.7 471.2 250.64 471.57 248.71 471.42 246.71 471.57 244.51 472.82 242.58 470.61 240.45 472.23 238.86 475.54 238.38 478.69 238.86 479.8 240.24 481.56 240.31 482.44 239.96 482.59 238.38 482.74 237.83 483.1 236.87 484.57 236.04 486.12 234.66 489.5 233.28 491.33 231.49 492.58 227.64 494.57 224.54 496.99 223.02 497.21 220.75 496.4 216.9 493.83 215.31 493.39 212.69 493.9 208.29 495.38 205.95 497.21" style="fill:#efc441"/></svg>