<svg xmlns="http://www.w3.org/2000/svg" viewBox="0 0 800 800"><path d="M768.84,163.31l-2.06,18,.34,6.06,2.41,7.35,12.74,16.9,2.76,5.51.69,4.78-.87,4.59-4.47,11.21-.52,2.38-.17,3.49.69,7.9-.17,3.13-2.07,5.32-1,7.17L773,273.89l-7.41,2.94-17,.19L751.8,271l-4.3-1.47-6.89,1.84L736,274.44l-6.2,5.33-15.14,7.53-5.51,6.62-.69,2.75v5.88l-1,2.94,1.9,1.1,6.54.92,5.16,1.84,4.83,3.12,4.82,5,2.58,2,6.88,2.39,1.21,1.65.52,2.21,1.55,2.57,5.5,6.43,2.93,2.2,4.13,1.84,8.78,1.47,2.41,1.28,2.76,4.6.34,5.14-2.24,11-.86,11.21,4,32.14-.17,4.78-1.2,11.76-1.38,3.67-4,3.12-6,2.57-6.54,1.29-5-.74-1.55-2,.52-2v-1.83L742,425.07l-2.07-1.28-.86-5.51L737,416.62l-3.79-.18-.86,1.47,1.2,3.12-.51,6.25-.69,2.57L729.08,435l-4.31,2.76-5.16.18L714.1,435l-1.89,1.66-10.85,7-4.65,1.83-11-1.83h-4l-7.57,1.47-3.44.18-4.14-1.1-2.41-1.47-2.23-2L659.7,439l-2.41-.56-5.86.92-21-1.47-1.55-.92-1.2-.18-2.76,1.65-2.06,2.21-2.76,6.61-1.72,2.76-3.27,2.57L591.7,466.22l-22.21,13-10.5,2-20.83-2.58-10.51,1.11-6,3.67-4.48,5.33-25,38.94-3.79,10.1-5,21.31L459.31,609l-8.44,10.66-7.23,7.9-9.81,7.34-6.37,3.49-2.76-.55.69-3.49,1.72-1.83,2.24-1.29,2.07-1.65,3.79-6.25,1.55-1.47V620h-1.9l-1,2.57-1.21,2.2-1.89,1.65L428,627.51h-2.93l-2.76-.55-2.06-1.66-.69-2.39,4.48-20,1.55-3.3,2.58-1.47,1.55-3.49,1.2-4,1.55-3.12,1.38-.73,3.27.18,1.2-.37.18-1.1-.35-3.67.17-.92,10.51-.92-.52-2.2-1.21-1.84-1.72-1.47-1.72-.92,3.44-3.86,1.9-5-.17-5-3.62-2.94L443,564l-3.78,5.14-5,3.12L428,573.5l1.54,4.41-1.2,2.57-2.41.55-2.76-2-.68,1.47-.69,1.1-.52,1.29v1.84l-1-.74-2.58-1.1-.18,5.14-1.37,2.39-2.59,1.84L410.07,595l-2.93,4-3.78,7.54L397,616.12l-2.76,2.75-3.1,1.11-3.27-1.47-4-3.49-2.75-4L380.8,608l2.76-2.21,7.57-4,2.59-2.2,1.2-3.13L397,584.71l-2.76-23,2.76-6.61-5.68.92-1.38,4,.69,5.14L392,570l.35,4-.35,6.61-1.72,4.78-6.54-2.75-9,.18L372.2,582l-1.9-1.1-1.37-1.1-1-.74-6,.92-2.93-.55-1.38-2.94-.69-2.94-1.89-2-2.41-1.1-2.93-.37L346,567.07l-1-6.43.34-13,.69-2.94-.17-1.84-1.38-.92h-1.55l-.86-.18-.34-.92v-1.65l.34-2.94,1.2-3.49.35-2.94,1.2-2.57,6.37-9,2.76-2.39,1.55.37,5.16,2.57,2.93.55,2.41-.73,3.61-3.68L372,514l2.59-1.47,3.1-3.67,2.58-4.23,1.2-3.67-13.77,11.94-5,2.94-4-2.39-.86-3.3,1.38-8.27,1.37-2.57,2.93-3.31,2.06-3.12-1.2-1.29-4.3,1.1-3.28,3.49-2.23,4.6-.69,4.77-1.55,3.13-3.62,2-4.13,1.47L341.73,514l-2.42,4.23-1.2,3.67-2.24,2.39-5.16.92-3.27,1.28-2.76,1.47-2.06-.73-1.21-5.88.86-2.75,3.62-9.92,1.37-2,.69-2,7.06-11-4.47-.18L329,491.57l.17-3.3.69-4,2.06,1.29,2.24.18,2.24-1.1,2.24-2.39.17,1.84,1.38,4,1.2-3.67,1.72-3.12,2.07-.56,1.89,3.49H349l-.35-2.57-.52-2.57-1.2-2.2-1.55-2,1.21-.19.17-.37v-.36l.34-.92,2.24,1.1,2.75.55,3.62.19,4.13,1.1,1.38-.92-1.89-3.86.86-2.2.86-3.49h1.72l1.89,3.12,3.62-.55h2.92v5l4.82-1.84v-3.67l-2.92-4.23-3.62-3.3-1.2.73-.86.37-2.93.73V460l5.34-2,2.58-1.47,2.41-2.21,1.89,3.31,3.1,4,4.13,2,4.65-1.84-3.1-.36-.17-1.84.52-2.57-.69-2.76-1.9-1.1H381l-1.72-.73-1-3.68,2.93,1.1,5.51,1.29,1.89,1.29,3.44-1.84-.51,1.65-.69,3.86L390.1,458l6.2,4.77,1.89-.37,2.41-4.4-1.37-2.39-3.1-4.59-.69-1.29.69-1.84,1.72-2.2,2.24-1.65,2.06-.92.52.55,1.89,1.28,2.76,1.29,2.75.55,1.55.92.86,2.39.35,3.12v2.94l4.82-1.84-.52-.92-.52-2-.51-.73,3.78.18,2.59,1.47,1.89,2.57,2.07,3.13-10,2h-3.61l1,1.47.69,1.1.86.55,2.24.55-1,4.41,1.38,2.39,2.07-.19,2.41-7.34,3.1-.19,2.92.55,1.21-.55,8.09-.37,2.24-.55,2.92-1.47,2.07-1.83,1.2-2.39.86-3.67-3.09,1.1-2.24,1.28-2.58,1.11-8.44.91-1.89-.73-.86-2.76.51-1.28,1.38-.92,1.72-.55h1.72l-.86-2.57-.17-1.47,1-3.49-2.75-.74-2.24,1.47-1.55,2.94-.34,3.86-3.62-4.23-2.07-1.28h-3.09v-2l1.72-1.11,3.78-4.4v-1.84l-1.89-3.68h-1.72l-3.44,9.19L413,442l-3.79-2.2-3.44-.37,2.58-4.22,3.61-1.84,2.93-2,1.21-5.14-2.24,2.38-2.24,1.29h-2.41L407.32,428h-1.55l-.35,2.94-.69,1.66-1.55.91-2.58.37.69,3.86-1.72,1.1L397,437.38l-1.55-3.49-3.79,5.7-2.07-1.47,1.21-4.6L397,430l-2.24-1.65-.86-2.2.17-2.58,1.38-2.75H397l1,.73,1,.37,3.1.55-1-3.67-2.41-2.57-5-2.94H392l-.68,4.59-1.73,3.49-1.37,3.67.34,5L386,431.32l-2.24,3.31-2.24,1.1-1.55-.92.69-2.57,2.58-4.23-2.92-1.28-.52-3.31,1.72-8.27-2.41,1.66-1.55,2.39-.86,2.75-.34,3.49-1,.19-5.17-.19-2.24.74,3.27,1.83v2l2.93,2.21,2.93,2,1.2,2.39-1,3.67-2.24.74L372.71,440l-1.55-2.38-1.2,2.2-.86,2.2-.69,2.39-.52,2.39-2.06-10.47-1.55-3.67-1.21.55-2.06.73,1.72,3.68h-3.44l.86,7.16,1.2,2.94,3.1,2.94-1.72,3.67-3.79-2.94-3.44-3.85-5-8.09-.87,4.78,1.9,4.59,2.41,4.41,1.72,4.78-1.21-.56-3.95-1.28-1.21,3.67h-2.07L345.51,457l-.17-4.59h-1.72l-1,2.38-.69,2.76-.35,3.12.18,2.94-2.24-1.1-.86-.74v5.51L336,465.49l-1-2.39-.69-2.94L332.43,457l-1.38-2.94,1-2.21,2.93-2.2,1.21-4,2.58-4.23,2.41-5,.52-6.43-8.1,8.45-4.47,2.39-4.48-3.3,1.21-2.39v-5.7l.34-3.3L323,426l-2.07,1.11-1.37,1.65L317.8,430V431l-1.9,2.39-2.24,1.47-1-1.84-.86-4.59L310.39,424l-.17-4.59,4.65-7.35,2.06-6.06,1.73-2.76,9.46-10.28,2.76-2,1.55-.55.69-.92.17-3.13.69-2.75,1.38-2.39,3.27-3.31h1.55l.68,1.84.87.74.86.55,1,.92,1-2.58,1.21-1.1,1.37.37,1.73-.74,5.68.19,10.15,3.12,5.51.74h31l1.38-1.11,4.3-4,1.21-.92,6.71-1.65,4.13-3.86,3.27-4.22,4.14-3.12h5.68l1,4.22-1.72,5.51L428.84,377l-1.73,5.14.18,6.8,1.55,6.61,2.58,4.78,5,2.2,6.37,1.29,5.51,1.83,2.41,5,2.75,3.13,5.86,1.46,5.85-1.1,2.58-4.59-6.54,2.39-4.65-4.23-3.44-6.06-3.27-3.12-7.58-1.1L440,396.6l-2.76-1.84-1.55-1.83-1.2-2.21-2.07-2.57-1.2-3.49,2.23-3.31,3.28-3.12,1.54-3.12L443,361.7l.18-1.65,1.2-.74,3.62-.18,2.58-.74v-1.65l-1.55-2-1.9-1.1v-.92l-2.58-.92-2.75-.18-2.58,1.1-1.9.55-5.68-2.57-2.75-.55-3.45,1.1-7.74,5-4.14,1.1-2.06,1.84-7.23,8.45-3.62,2.75-5.68,1.11-4.82-1.11-10.16-3.49L370.3,365,367,363.54l-3.44-3.49-4.82-3.31-5.68-1.29-5.86.19-5.5,1.65-1.9,1.29-4.13,3.67-1.55.74-5.34-.19-2.92.19-2.07.91-7.92,8.45-1.38.92-3.61,1.66-1.72.91-7.41,11.39-2.06,1.84-5,1.47-11.19,7.16-4.82,2.21-.69.37-16.19,3.12-2.58,1.47-2.41,2.39L245,413.87l-4.82,1.28,5.17-22,4.65-9.18,6-.37,1.38,1.1,1.89.55,2.41.37,2.58-.18v-1.84l-4.64-.37-5.86-5.33h-4.82l-4.13,3.31-1,4.59-.52,5.15L235.16,408l-2.58,1.47-5-1.29-1-3.49,1.72-10.1-4.3,2.21-.86,4.4-.17,5.33-1.72,5-1.55.92-5.51,2.2-2.41,1.66-2.59,2.2-1.37.55-1-1.28-1-2.58-.69-5.32,1.55-5.51,4.31-9.74,3.61-15.06,1.55-3.68,1-1.1,1.55-1.1,1.9-.92,1.72-.37.86-.91,1.72-6.62,6.54-10.47,2.07-2.39,3.44-2.38,5.34-2.21,5.68-1.47,4.3.19,1.38,1.46,1,2.58,1.38,2.38,2.41,1.11,5,.36,2.24.56,2.07,1.1.86-3.86,1.89-3.86.86-3.49-1.89-2-1.38,1.1-2.41,2.58-3.44,2h-4.82L256,347l-1.72-3.12-2.07-1.47-2.06-.55h-1l-1.21.37-9.47.73-3.27-.92-1.72-3.3h-1.72l-1.9,4.41-4.64,2.94-5.69,1.46-5.16.56.69,1.83.34.92.69,1.1-.86.19h-.52l-.34.36v1.11l-2.07-1.11-1.37-1.28.17,1.28.69,3.68-.35,3.31L209.16,363l-3.61,3.67-3.44,1.47-18.6.37-2.41.91-5.16,2.39-1.89.55-1.38.92-1.55,2-2.07,1.84-2.92.73-2.41-.91-2.24-1.84-4-4.78-6.2,1.47-7.92-1.65L136.34,367l-2.92-3.13L128.25,352l-2.41-1.47-6.71-1.1-2.93-1.28L114,345.53l-1.55-3.3-.86-4-.86-8.27-2.58-7-.52-3.67,6.89-15.8,2.58-3.49,2.93-2.57,3.1-1.84,3.27-1.65.17,3.3,1.21,2.39,1.89.55,2.06-2.39.35-2.38-2.24-4.05.17-2.93,2.76-4.23,4.3-2.94,4.65-2,18.42-11.57,4.13-3.68,1.9-2.38,2.92-4.78,2.24-2,2.24-1.1,5.51-1.47,2.58-1.11-6.71-.18-4.48,2L167,256.63l-3.45,4.77-5.16,3.68L145.47,268l-5.34,1.84-8.61,5.88-2.41,2.39-8.61,10.29-4.64-2,.34-5.14,1.89-6.06-.17-5.33-1.37,4-3.1,5.33-1.55,9.92-2.59,4-3.78,1.29-4.82-2.39L99,293.92l-.69-1.11-2.93-2.57-.52,3.68L93,295.39l-3.1.55-4-.19-.52,1.11-1.54,2L82.29,300l-.69-1.29-.35-1.1-1-.92-1.38-.55-5-.92-2.24-2-1.55-2.57-.34-3.12L68.17,286l-6-7.17L62,277l-1.72-.92-5.34-4.78-2.41-1.47-1.2.19-3.79,1.65-1.89-.18-1.55-1.29L41.83,266l-1.38-2-9.29-7.71-2.93-1.47H24.61l-2.92,1.28-2.59,1.66-2.92.92-1.9-2.39L20,252l9.29-2.38L63.35,252l4.65-.18,13.08-3.49H93.82l7.58-3.31,20.14-11.57,17.39-10.1,2.58-.55,2.75.55,5.34,2.2,2.06.55,1.21-.55,1-.92,1.72-.73,19.11-3.68,9,.92,15.66,5.51,4.82,1.11,20-1.66,2.58.19,43.22,2.75,8.78-1.84,63.52-31.59.69-.55,13.26-10.47,15.32-7.53,14.63-11,6.54-3.12,7.23-1.28,12.23.18,69,.18,20.14.19,89.18.36,23.76.19,65.42.18Zm-557.95,401,5,3.85,3.79,5.33,2.58,6.43L224,591.87l1.72,2.57,1.72,1.84.86,2.39-1.37,3.49L224,603.81l-3.44.37-2.59-.74-1.89,1.29-2.75-.19-6.55-1.1-.68.55-1.55,1.11-1.55.55-.86-1.29v-2.2l.17-1.47L203,600l1.89-.36,2.58-.74,7.23-3.49,1.38-1.29L215,591l-2.93-.92-2.58,1.47-.35,4.41-1.72-1.84-1.72-2,2.24-4,1.2-3.12.35-3.31-.35-4.22-1.37-6.06.51-3.49Zm-6.89,11,.52,8.08-.69,3.67-2.41,4-5.34,7L193.15,600l-1.2-3.12-.86-4.41-1.55-3.31-.17-3.49,2.58-4.77-5.85.18-2.76-2.75-.17-4,2.07-4.23,3.61-3.12,13.26-4.6,1,2.39.69,3.68Zm-18.76,11.2h-3.62v2l2.41,5.15-1,5-1.21,4,1.72,2.57-5.16,3.49-4.48.18-4.47-.18-5.17,2-.86-2.39-.34-2.2.34-2.21.86-2.57h-1.55l-3.27,5.7,1.55,3.67-3.1-1.1L157,609l-1.2-1.83-5.68.73-6.2-4.22-5.51-7-3.27-6.43,3.27-3.68,4.13-3.12,4.13-1.65,3.79,1.1L147,584.34l-1.55.37.34,1.1.17.92.52.73.69,1.1,2.24-2.38,2.92-1.47,2.41-2,2.07-9.19,2.07-1.65,2.23-.92,1.55-2.94,1.21,1.47,4,2.2.69-6.61,3.78-2.94,5,.55,4.3,3.68,1.55,2-.69,1.47-1.55,1.83-.86,2.76.34,4,1.21,2.57Zm48.2-50.15H240l1.21,2.76-2.59,10.1-.34,11.21L236,564.13l-6.2.19-6.19-5-.18-8.27,4-8.63Zm49.92,0-.86,5,1.38,9-.52,4.78-1.2,1.1-1.55-3.12-2.41-3.49-3.62-.37v2h1.9v1.84l-1.9,3.67-1.37,1.84-1.9,1.84-1.37-2.21-.69-.73-3.1,1.1,1.38,2.94.34,3.86-.69,4.41-1,3.67-.52-1.1-.86-1.29-.52-1.1-1.54.18-.52.19h-.35l-1-.37h-1.55L256.85,573l-2.41-1.29L252.72,568l-.52-3.67,1.9-1.84,2.75-2,1-2-4-1.66v-1.65l5.33-5.88.35-1.28-.52-3.13.17-1.1,1.21-.37,1.72.37h1.55l.51-.92L267,537.5l6-2,6.37.36ZM153.9,558.62l-16.35,1.47-3.27-.55-6.72-3.49h-1.2l.34-3.31.86-2.75,1.72-1.84,2.41-.55-.34-4.59L135,538.6l4.82-2.57,3.78.36,1.9-2,2.24,3.13,2.92.36,3.27-.55,3.62.74,1,2,.86,3.49.17,3.67-.17,2-2.92,1.29-2.59,1.65-1,2.57Zm127.74-74.4.52.74.52.73.86.37h1.55l-.18,1.1-.34.92-1.21,1.84,1.38,2-1.2,2.2L278,498.92l-1.21-2.57-.34-.92h-1.9l-2.92,2.94h-4l-3.62-2-1.37-2.76,1.2-2.57,2.07-.18,2.23.55,1.21.18,1.89-2,1.55-2.2,1-2.39.68-2.76,1.9,2,1.38-1.1,3.78-2.75,1.21,1.1.17.73ZM133.42,497.08l-5.34.19-3.1-.55-3.44-1.29,2.92-2.2,4.65-2.58,4.13-3.12,1.9-4.22,2.75-2.76,6.54-2,7.06-.73,4.31.73,1.2,2.76-.86,2.57-7.4,8.45-1.55,1.28-.86,1.1-.52,1.66-.86,1.47-1.38,1.1-2.06.18Zm-5.34-13-1.55.55H124l-2.41,1.47-1.21.37-.86,1.1-.86.55-1.55-1.1-3.27-4-1-.74-.52.19L99,482.2l-2.24,2.21-2.07,1.28-2.75.37.86-2,1-1.84-1.55-3.3.35-.74,1.2-1.47-2.41-1.47-1.2-.36,9.29-5,10.5-.37,9.47-1.29,6.89-8.26,1.2.36.18.19v.37l.51.91h1.9l1.72-.18,1.72-.73,1.55-.92.86.73.52.92.34,2-.86,5-1.9,4L130,478.53l-1,2.39-.34,1.65ZM192,479.45l.69-4.41,1.89-5.88,2.58-5.14,2.59-2.21,4.13-1.65,5.68-6.43,3.1.55.34,4.23,1.9,2.94,2.06.18,1-3.67,3.1,3.49-.68,7.34,2.75,2.39-3.1,5.51-.86,6.62,1.21,6.61,2.75,5.51-5,1.84-6.54,4-5.51,1.47-2.07-5.7h-1.89l-.18,1.29-.86,1.28-.51,1.29-.69-.92-1.9-1.83-.86-1.11L195.74,500l-2.24,2.21-2.58,1.47-2.24.91-2.41-3.67-8.78-6.43-1-2.94,8.78-5.51,5.68-6.61Zm137.9-32.7-.18,3.86-2.75,3.12-.69,3.31,1.55,2.94,2.24,2.75.34,2-4.82.74-3.27-.37-2.06-1.84-2.41.37-.35.74-4.82,5-1.38.18-5.51-.18v1.83l5.34,2-1,4.23L306.61,480l-2.41-3.31-2.93.92-3.44-.55-2.76-.73-1.2-.56-1.21.92-2.24-1.83-.69-2.39,3.1-1.29,3.45-2,2.23-4,3.1-3.49,5.86.18.51-4,2.58-3.12,3.1-2.57,2.24-3.31,4.31,1.29,3.78-1.29,3.27-1.65Zm-174-64.84,4.47-1.66,4.82.19,9,1.47,3.27-.56,3.78-1.46,7.58-4.05-1-1.1v-.18l.51-.37,3.62-.18,3.27-.19,3.61.37,1.9,2.39.51.92-.86,7-2.06,3.3-2.41,3.13-2.07,3.67-2.06,10.66-1.55,4.4-3.1,3.68-2.41-1.84-3.1.37-2.76,1.28-2.23.19-3.28-2L167,401.19l-2.93-1.47H161l-2.41-.55-1-3.49-.17-7.53-.35-3.67Z" style="fill:#efc441"/></svg>