<svg xmlns="http://www.w3.org/2000/svg" viewBox="0 0 800 800"><path d="M743.84,243l1.94,6.68.74,4.3-.15,3.82-.45,6.37,1.05,5.41,6.12,15.13,2.53,18.94-.15,10.83-2.38,5.41-1.2,1.43-2.83,7.33L747,330.35l-5.82,3.5-1.49,1.59,1.19,4.78,3.88,5.73.9,1,7.16,7.8L767,361.87l2.69,1.43-1,14.33-1,4.14-2.84,4.3-7.31,5.57-3.28,3-6.56,9.55-9.4,11-2.84,1.91-11.19,3.19-3.88,2.7.75,4.14,3.88-.63,5.37-1.91,5.07.16,2.09,1.59,3.13,6.84,1.94,2.55,4.93,4.78,1.64,2.23,1.19,4.45.3,9.71,1.79,9.4-.45,4.61-1,4.46-1.49,4-2.54,4.46-3.13,2.71-5.82,3.82-1.49.95-.6.32-3,3.5-4.47,8.12-2.84,3.19-8.35,3-16.41-3.18L692.66,508l-3.88,3,1.94,3.82,19.84,21.34,1.35,2.23.59,3.66-1.19,1.27-1.64,1-.9,2.7,1.35,4.46,3.28,1.91,8.5,2.23,1.79,1.59,3.44,5.26,1.64,2.07,8.2,5.73,11.79,4.61,3.13,2.23,1.94,1.91.45.64-2.54,4.62-.15.32L741.9,602l-1.65,4.62-.59,4.77.3,2.23,2.38,6.85.45,2.7-.15,4,.45,7-.75,4.14-2.53,7.32L736.23,643,721,622.17l-6.72-6.37-7.61-4.94-17.15-6.2-7.17-4-7-2.86h-8.5L649.39,601l-22.53-.32-31.78.48-17.16,3.19L573.6,602l-2.69-1-1.19,1,1.49,9.23-2.09,2.23-2.54.16-6-2.39-3.29-.63-25.66,2.38-5.22-.31.45,1.11.59,2.71.45,1.11-3.28-.32-1.34-.32-1.5-1.11-6,4-12.09-1.12L498,620.89l-5.82-3.34-7.61-3.18L476.17,612l-23-2.71-5.67.32-1.79-.32-6.42-4.14-1.93-.79-28.95-4.78-13,1.27-1.94-.47,1-3.19,3-1.11h7.76v-1.43l-14.48-1.76-17.6.16-5.22,1.6-7,4.29-2.68.64-1.64-.95-1.94-4.46-1.64-1.44-2.84,1.92-1.64,4.61L347,602.9l-2.84-1.75h-1.49l-2.53,1.75L338,601.63,337,598.45l1.2-3.82-3.14,1-2.68,6.21-3.14,2.55.15-3.19.75-2.86,2.09-5.58-1.79,1.6L328,597.65l-1.79,1.91-.15-.64-1.34-.47-2.39-.64-.75.48.15,1,.3,1.12-.3.79-9.55,8-15.51,7.64-4,4.14-3.73,6.53,9.1,10.19,1.34,3.82,1.2,4.62L300,648l-2.83.79-14.48-.16-2.09-.31-2.08-1.12-1.65-1.59-.74-3.5-14-21.18-.59-.47-1.79-.8-.75-.48-.75-.79-.15-.8-.14-.8-.6-1-4-4-21-16.4-3.88-1.91-6.56-1.11-2.84-1.28-2.38-1.75L215.51,587l-.45-2.54-1.19-.8h-1.94l-2.24-.64-5.52-2.38-1.94-1.12-1.49,1.75-4-1.43-4.32,1.91-4.63,2.87L183,586.19l-4-.8-5.08-2.23-4.17-2.39-1.79-2.06L166.13,576l-8.21-4.3L156,567.24l-.45-4.61L154,559.28l-5.67-7.48L156,540.18l-.6-1-1-2.39,4-3,2.53-11.14,3.29-2.39.59-1.28-.3-2.86-.89-3-.9-1.75-.59-2.7,1.79-2.23L171.2,502l9.7-4.14,4.17-.8,4.93,1.28h2.24l1-1.91,1.05-1.75,2.38-.64,2.54-.16,12.23.64,8.66,1.91,28.64,13.37,12.54.64.44.32,1.35,1.75.3.47.59,1.91,1.2-.15,1.49-.8,1.34-.16,6.27,3.34,2.83,1.12,9.85.32,2.39.47,2.53,1.28,4.63,4.14,1.34,1,2.24.16,1.19-.64.75-.95,1-.48,2.24.48,2.69,1.43H310l1.34-.63,2.83-2.23.9-.48.15-.64,2.83-3.5,1.5-.8,1.64-.16,1.79.16h1.79l9.84-3,2.84-.32,7.76,1.91.15,4.14L340.84,523l-5.67-1v1.43l-4.77-1.59-4.18-.64-4.18.48-4.77,1.75,1.49,1.12,3.58,2.07,3.58.79.3,1.43-.15,1.92.9,1.91,3.87,1.75,7-1.12,3.43,1.91,7.61-4.93,9.4-1.28,34.46,2.87,4.33,1,8.65,4.78,4.93,1,17.45-.64,8.51.8,7.76,3,4,2.39,3.28,1.43,3.58.16,5.52-1,15.37-2.86,18.8,4.78-1.05,3.82,4.18-.8,5.82-2.07,3.88-.16,3.13,1.43,15.52,2.87,8.35-2.07,6-5.25L545.1,537l3.58-8.43,5.37-6.85,6.86-1.59,36.41,3.34,1.34-.48.6-1.11.3-1.11.74-.48,1.35.32.59.47.45.64.75.32,4.47,5.41,2.09,1.12,3.88-1,1.79-4.14.45-5.57-.3-14.65.3-2.7,1.49-3.35,1.79-1.91.75-1.75-1.2-2.86L617,489.23l-10-5.09-2.69-.48-5.22-.32-2.54-.79-4.47-4-3.88-4.94-4.33-3.5-5.22.64L571.21,466l-1.79-2.07-1.94-4.62L556.29,441l-3-3.18L548.83,434l-4.48-3-3.73-1.27-4.17-2.23-22.83-25.79-1-6.21,9.25-4,8.36-.47,4.62-1.76,2.09-3.5-1.34-4.46-3.13-2.38-4-1.6-3.58-2.23-2.24-3-5.37-9.71-1.34-3.82,1.49-1.12.15-.47-.15-.48.15-1.28,2.09-2.07,2.38-5.57,1.49-2.23,2.39-1.27,3.43-.8,3.58-.15,2.54.47L532.27,337,530,335.76l-4.48-.32L523,333.37l-.9-4.77.45-4.94.89-3,1.35,1.43,1.79,1.27,2.09.8,2.23-.48,2.39-1.75.15-1.75-.74-2.07-.45-5.57-.6-1,.6.16,3.13.64,1.05.64,1.49,1.43,2.09,1.11h2.83l-4.33-8.75-2.08-1.28-11.34-.79-2.84-2.07-1.94-3.35-2.83-3.66-4-3-14-6.69L488,278.45l-4.17-1.12-3.58-1.75-7.61-6.84-1.5-.32-2.23.95-13.43-5.25-2.24-.16-4.33-1.11-2.23-.32h-.15l-1.2.64-1,1.11-1.34,1.11-2.39.64-3.28-.8L432.45,263l-4.62-2.71-3-2.71-4.47,4.46-9.25,1.27-20.89-.95-4-1.27-2.39-.16-1.64-1.12-3.73-4.46-2.24-1.11-3-2.07L372,247.4l-.44-5.09-.6-2.87,7.76-13.05,1.19-2.71,2.09-.16L393.51,218V216.2H381.42l3.59-2.87,4-.31,4.48.31L398,213l26.4-12.74,7.91-5.89,4.33-6.37,2.54,3.34,2.53.8,6.12-.8,3.28.64,5.67,2.07,3.13.48h2.54l1.49-.32,4.33-1.11,3.28-.48,3.28.32,3,1.11,2.39,2.39,1.49-3.82,4.18-2.39,4.92-.48,4.18,1.59,5.82-2.38,7-1.91,7.31-1,6.71.32L544.05,192l5.52,3.5,4.48,2.23,13,4.3.75,1,4.62,5.89,5.82,4.14,6,2.23,3.43-2.23,3.88,2.23,6.71,2.7,6.12,1.59,2.69-.79,1.49,3.82L619,232.92v1.43l-1-.48-3.43-1,2.83,7,.9,1,3.88,1,.74-.32-.74-2.07,2.83-3.5h-.74l-1.35.16-.74-.16v-.16l.44-1.11.6-.8.3.48v-1.43l-.45-.8-.89-2.55h1.34l3.28,1.91,4.48.32,3.88-1.27,1.79-3.66,2.24-2.39h4.17l3,2.55-1.79,5.89,3.58,2.23,3.58.47,8.65-1.59H661l1.19.32,1.49,1.11,3.14,3.35,2.24.63h7.46l1.79.48.89,1.12.75,1.27,2.09.95,2.83,2.23,2.09.64,1.64-.95,1-1.76,1.49-1.75,2.53-.79,4-3.19H704l10.59,3.19,5.82,1,1.64,1.12-1.34,3.18-1.94,1.27-2.54.32h-6.11l2.38,4.46,3.73.48,4-1.28,3.28-.47,3.88,3.34,2.54,1.59,1-.63,1.2-3.35-.45-1.75-4.92-1.27-1.5-1.59-.74-2.07.3-2.39,1.64-1.59,2.53.15,5.67,1.44ZM335.92,632.36l3.73.16,4.32,1,3.14,1.91v3.5l-2.84,1.75-4.32.48-8.51-.48-3.88-.79-3.28-2.23-5.52-5.25.75-2.39.89-1.12,1.34.48,1.35,1.43,2.53-1.75,1.2.64.89,1.59,1.49,1.12ZM299.36,503.88l5.23-2.71,7.16.64,5.37,3.18.15,5.42-5.08,3.18-6.86-.16-5.52-3.18Zm206.2-352.47,6.27-.16,4.32.47,3.73,1.75,4.93,3.19,20.59,8.44,8.8,5.73-2.54,5.73L548.23,175l-18.5-2.71-8.5-3.5-10.6-2.55-3.73-1.59-2.38.48-2.69,1-2.39.48-4.47-1-5.37-1.91-4.78-2.54-3.13-3h.89l.6-.32,1.34-1.11,10-3.66ZM416.64,443.7l-4-3-1.2-1.12-1.64-2.07-1.34-2.55-.75-2.54.75-2.71,2.69-3.18L415,423.8l4.48-1.75,4.63-.8,5.22.64,30.14,13.37,15.07,5.1,16.56,8.91L506.6,456l6.27,8.28,1.64,5.25.75,6.21-.6,6.05-2.53,4.78-2.24,1-1.64-1.43-1.94-4.3L504.52,480l-1.65-.48L498,479.2l-19.54-4.61-6.57-.48-7-1.75-19.1-13.06-19.55-5.57-5.22-3.5Z" style="fill:#efc441"/><polygon points="31.84 554.66 32.44 554.98 34.83 554.98 34.83 555.14 35.57 555.14 36.32 556.26 36.47 556.42 36.47 557.21 36.47 557.69 36.47 557.85 36.47 559.44 35.87 559.76 35.57 559.76 35.28 560.08 34.83 560.08 34.53 559.76 33.78 559.76 33.63 559.6 33.19 559.6 33.04 559.44 33.04 559.12 32.59 558.64 32.59 558.17 31.84 557.21 31.4 556.89 30.35 555.62 30.5 554.66 31.84 554.66" style="fill:#efc441"/><polygon points="32.44 554.98 31.84 554.66 31.78 554.66 30.57 555.88 31.2 556.66 32.88 554.98 32.44 554.98" style="fill:#fff"/><polygon points="35.57 555.14 34.83 555.14 34.83 554.98 34.46 554.98 32.01 557.43 32.59 558.17 32.59 558.27 35.63 555.23 35.57 555.14" style="fill:#fff"/><polygon points="36.47 557.21 36.47 556.42 36.32 556.26 36.27 556.18 33.04 559.41 33.04 559.44 33.19 559.6 33.63 559.6 33.78 559.76 34.1 559.76 36.47 557.39 36.47 557.21" style="fill:#fff"/></svg>