<?xml version="1.0" encoding="UTF-8"?><svg id="Layer_1" xmlns="http://www.w3.org/2000/svg" viewBox="0 0 1600 1600"><path d="M1265.26,834.28h30.19c7.79,75.22,37.56,68.58,84.82,100.64,15.33,15.33,30.67,30.67,46,46,8.68,7.02,20.49,5.51,27.32,14.38,9.91,12.88,15.03,29.11,31.63,38.82,24.22,14.17,56.86,15.25,89.13,21.56v1.44h-2.88c-50.76,24.72-110.68,18.36-135.14,70.44-4.77-6.07-4.79-9.62-14.38-11.5-8.63,5.75-17.25,11.5-25.88,17.25l2.88,4.31c-34.48-.35-68.27,39.08-94.88,53.19-10.92-9.15-77.07-56.77-90.57-53.19l-8.63,18.69,5.75,2.88c-7.81-.69-11.91-.93-17.25,1.44l-8.63,17.25c10.06,6.71,20.13,13.42,30.19,20.13,.3,19.27,1.57,26.46,4.31,46l10.06,1.44c-28.51,1.95-33.76,11.5-43.13,33.07-48.22,9.21-64.42,61.14-96.32,87.7-26.35,10.06-52.72,20.13-79.07,30.19-31.83,9.19-79.74-29.93-115.01-25.88-24.41,2.81-79.93-37.96-100.64-50.32-58.46-34.02-116.93-68.05-175.39-102.07-38.02-22.84-78.86-39.02-102.07-76.2-15.49-24.81-10.01-47.54-15.81-80.51-7.95-45.16-5.7-84.36-23-119.33v-48.88c-1.17-3.09-13.46-15-14.38-12.94-8.43-22.55-10.18-29.45-25.88-43.13-14.22,1.39-30.3,7.43-43.13,1.44l-5.75-7.19,4.31,1.44-5.75-5.75c9.15-7.22,22.88-5.64,33.07-12.94,38.84-27.82,25.63-120.91-5.75-145.2-6.53,4.39-14.09,7.64-15.81,8.63l-5.75-5.75c2.59-8.37,3.67-9.25,8.63-14.38-2.74-7.58-.75-10.7,2.88-18.69-5.62-7.09-16.37-9.34-25.88-11.5v-5.75c14.78-9.05,34.71-21.65,23-44.57l-25.88-8.63c-22.52-.48-45.05-.96-67.57-1.44-15.07-3.91-32.94-18.66-53.19-15.81-9.2,1.29-66.13,30.19-66.13,30.19l-12.94-17.25c-20.54-16.04-53.49-37.53-84.82-34.5,.41-7.19-21.6-38.86-21.56-61.82,13.46-52.26-19.13-83.66,43.13-99.2l1.44-10.06c4.36,3.92,5.29,7.27,11.5,5.75,4.31-1.92,8.63-3.83,12.94-5.75-1.84-4.63-2.32-5.15-1.44-10.06,34.72-.23,84.86-26.66,70.44-58.94l2.88-4.31c8.71,5.79,9.1,5,14.38,5.75-.32,19.43-4.24,26.59-4.31,47.44l12.94,12.94c19.27-3.25,20.96-6.19,34.5,4.31-1.78,6.32-1.68,3.44,0,10.06,12.54,3.93,21.4,7.38,30.19,14.38,2.98,51.93,37.79,88.98,67.57,116.45,14.69,13.56,17.91,44.62,30.19,66.13,2.76,4.83,36.49,24.62,41.69,27.32l1.44,12.94,11.5,1.44c11.2-4.97,19.81-10.01,24.44-21.56,2.14-9.13-.62-18.15-7.19-23-4.35,1.81-1.72-.03-4.31,2.88-6.18-2.27-4.47-1.95-7.19-7.19l1.44-2.88c-.31-4.79-1.34-3.31,1.44-7.19l1.44,4.31c5.42-34.21,23.7-68.77,58.94-77.63v1.44c-4.54,1.74,16.37,21.56,21.56,31.63-4.99,11.43-2.67,19.57-1.44,33.07-56.13,40.37,9.72,67.46,57.51,76.2,32.56,5.95,72.9-11.09,92.01-12.94,6.23,11.98,12.46,23.96,18.69,35.94,15.18,12.75,35.89,8.17,50.32-1.44-.18-11.21-4.31-58.94-4.31-58.94,6.27-7,11.23-13.87,17.25-21.56-5.01-7.85-5.46-17.4,2.88-25.88,2.95-3.01,2.54-2.35,8.63-2.88,8.15,8.15,16.29,16.29,24.44,24.44,29.06,19.26,69.14-8.93,87.7-15.81l-5.75-2.88c18.61,2.32,11.75,11.04,21.56,20.13,12.94,4.79,25.88,9.58,38.82,14.38,20.94,4.97,36.12-7.31,47.44-4.31,36.53,17.19,92.98,93.74,136.58,81.95-1.99,2.41-3.29,2.52-5.75,4.31,89.8,10.16,89.42,58.5,125.08,127.95,4.29,8.35,15.4,13.35,17.25,24.44-1.92,11.02-3.83,22.05-5.75,33.07Z" style="fill:#efc441; fill-rule:evenodd;"/></svg>