<?xml version="1.0" encoding="UTF-8"?><svg id="Vatican_City" xmlns="http://www.w3.org/2000/svg" viewBox="0 0 720 540"><polygon points="613.19 320.4 594.76 303.69 592.17 158.34 510.57 130.92 500.72 68.09 429.79 96.68 399.91 108.21 380.19 107.85 356.29 116.95 328.41 117.97 290.42 117.97 285.84 152.12 242.3 196.29 226.92 200.7 228.48 220.94 213.58 281.95 196.94 282.77 175.94 307.23 133.26 358.37 98.5 378.07 127.18 389.18 181.38 439.67 218.36 435.61 306.14 447.79 336.55 465.94 390.82 465.6 462.02 471.91 536.55 457.23 531.88 396.51 552.12 415.7 581.44 422.52 607.74 408.72 619.23 386.73 621.5 353.25 613.19 320.4" style="fill:#efc441; fill-rule:evenodd;"/></svg>