<svg xmlns="http://www.w3.org/2000/svg" viewBox="0 0 800 800"><path d="M40.47,457.85l-.18-2.25.13-1.18.46-.93.65-.49,1.51-.39.55-.64.69-1.27.92-1.08,2.11-1.91.6-.78.32-.59.5-.34,1.15-.15.83.15,1.7.59.73,0,.83-.79.27-1.22,0-1.28L54,439.53l.23-.44.74-.83.13-.54L55,436.45l-.14-.2-.27-.44-.6-.59-.73-1L52,431l-.64-1.13L50,428.17l-.6-.93-.32-1,.09-1.37.51-.89,1.65-1.51.64-.94.55-.78.83-2.11V416.7L52,415.43l1.05-3.38.83-1.32.92-.83.46-.35,2-1.12,6.84-2.4,2.34-1.18,8.45-7,5.78-4.7,5.83-4.8,5.83-4.75,5.83-4.8,2.21-1.86L105,373.2l3.12-3.23,2-3.72.37-.54H112l1-.44,1-.59,1.15-.49.42.54.45-1-.09-.78.23-.69L117,362l.42.14,3,2.31,1.65.54,1.74-.84,3.91-4.36,1.65-1.12-.37-1.18.69-.2,2.62.4,3.9-2.55.5-1,.14-.74-.37-.29-.78-.24-.59-.54-.28-.49.23-.25,2.85-.05,1.14-.39,1.11-.83,2-.69,5.74-.44,1.24-.34.37-1,.55-.2.41-.14,1.19.19,1.11.4,3,1.91,1.15.09v-.44l-.69-.68.69-.88,2.34-1.47-1.29,1.86-.46,1.12.6.49.37.54,6.24,6,2,.88,2.16-.44.37-.39.68-1.18.33-.39.64-.05,1.74.1.37-.3.41-1.27,1-.64,1.38-.14,6.88,1.71,6.06,2.21,6.2.73L202,359.2l2.39.24,2.57-.29,4.08-1.28,1.2-.19.18-.25,1.15-.93.23-.1.41-.34.83.29.78.49.32.25,2.85.29,13.13-1.22,2.2,0,2.07.88.13.1,1.56,1.07,1.06.3,1.61.1,1.33-.25,1.1-.54,6.38-4.16,1.65-2,.78-.64,2.3-1,2.34-.58,9.6-.35.82-.29.69-.34,2.62-2,1.42-1.67.6-1.76-1.06-1.52-4.27-.64-2-.54.32-.83,1.75-.14,5.19,1.07,3.58.74,2.52.29,3.17,1,3.17.83,1.05.25.74.39.18.83v1l.18.84h.51l-.05-.49.14-.25.19-.15.18-.14,1.1.05.6.93,1.19,1,1.42,1.07,2.94,1.33,5.1,1.42,3.49-.3,5-.54,7.21-.19,3.9-1.72,4.87-3.77,3.21-2,5.05-.14,3.31,1.17,6.47,3.09,8.13,2.54,3.81,1.38,1,.78-.41.93-.83,1.32v1.18l-.05,1.81,1.43,1.47,1.33.2,1.65-.59.23-1.47.18-.69.65.05.46.93,1.19.89,1.65-.3,1.61.2,3.3.44.6-.74,1.06-.49-1.43-.63-1.69-.39-5.28-.94-2-.93-1.7-.88L357,351.9l2.66.58,9.23,1.87,6,.63,4,.25,1.37.49,3.63,3.18,4.91,4.26,7.3,6.57,7.07,6.37,3.95,3.52,5.14,3.28,1.24.79,1.19.59,2.39.39.6.34.46.74,0,.53-.46.4-1,.14-1.14-.49-2.58-2.1-1.88-.74-1.28-.93-.6-.29-2.07,0-.87-.2-.78-.78.32-.15.28-.19.32-.15-.6-.88-2.2-2.65h-.46l-.73.39-.88-.58-1-.84-.87-.44-1.38.2-.6.44-.5.64-.92.68-.46-.29-1.84-.69.83-.83.37-.44.18-.49-.32-.15-.73-.15h-.78l-.51.1-.18.79.41,1.27.78,1.32.87,1.08-.18.15-.09.05-.05.09-.14.25h-.46l-2-4.12-.73-.88-.78-.14-.87.19-1.15.39-.78,0-1.15-.29-.82-.1.55,1.67.41.54,1.24.49v.58l-.23.84-.14.88H388l.23-1.13,1.33-.68.6-2,.64-.25.64.44.88,2.4,1.1,1.91.41,1.67-1.47.69-.69.83.51,1.86,1.15,2,1.14,1.32,1.7.93,1.47.39.6-.68-.6-2.16.87.74.83,1,.28,1.12-.56,1.18.92,1.18,1.33.24,3.26-.44v.49H404l-.46.1-.73.39v.49l.55,1.22.82,1.13,1.11.83,1.42.35,1.19-.15,1.56-.44,1.52-.64,1-.78-.83-.88-2.84-1.62-.51-.49-.23-.49-.23-.34-.64-.15-.73-.1-5.1-1.91-.87-.54-1.52-2.4-.78-.63.6-.54.64-.4,1.47-.53,6,2.79,1,1.47.37.78.91.69,1.15.54,1.93.44.78.58.69.84.6.88-.46.34-.55.49-.37.2v.44l1.1.24.92-.68.73-.1.46,2.16-.14,2.69.14.73.51.54.5,0,.37-.53-.05-.94h.51l.59,1.42.56-.34,1.14-2.15,1.06-.64,1.38-.44,2.38-.29.33-.35-.14-1.66.09-.59.41-.34.46,0,.51.2,4.31.88,1.15-.24v.44l-.37.44.05.29.18.35.14.54v2.2l-.32,1.08-.78.49-.78-.35-.37-1.22-.23-.39-.6-.25-.68-.14-.56-.05L427,398l-.37.69-.41,1.07-.32.4-.28.24-.23.34-.09.79.14.68.41.1.42-.19.41-.35-.37-.63,0-.45.13-.44.28-.49h.5l.14,1.82.46,1.27.83.49,1.28-.59.37-.39.64-1.08.37-.49.55-.34,3-1.13v-.29l-.33-.74-.27-.49-.37-.34-.41-.39-.28-.73-.23-1.08-.46-1.37-.87-.84-1.24.69-2-1.27-1-.25-1.15.54-.41-.49.14-.29.27-.69-1.1-.2L422.2,390l-.6-.44-.69-.84-1.42-.49-1-.63.37-1.33,1.1-.58,1.05.58,1,1,.78.49.73.25,7.21,4,9,3.62,3.49,2.69.78,1.38,1.06,4.7,1.19,2.94,1.79,2.79,2,1.71,8.31,3.48-.92.15-2.25-.1-.91.15-1.79.88-3-.05-.27.05-.78-.34-.51-.35.05-.39.78-.44-2.94-.34-1.15.1-1,.73-.37-1-.68-.49-.88-.34-.82-.74-.65,1.28-1,1.22-1.33.88-1.61.2-.6-.34-.82-1.37-.37-.35-.87-.14-.69.09-.18.35.41.73-.32.44-.14.49,0,1.08-.64-.64-.37.3-.09.88.19,1-.37-.2-1-.29.14.19.19.54.13.25-1,.29-1.7,1.42-1.65.64-.32.83-.14,1-.28.88h-.5l-.55-.78-1.24-.39-1.52,0-1.33.2-1.24.58-.27.84.64,2.1h-.51l-.23-.63-.5-.35-.69-.1-.83.05.1,1.18-1.38.54-3.72.24.46.88.32.35.55.39h-1.24l-1.33.44-1.19.73-.83.79-.37-.54-.27-.2-.23,0-.51-.24.33.69.09.34-.87-.25L405.9,430l-.83-.49-.32,1.66v.69l.32.59-6.61.39-1.15-.15-.13-.58-.37-.2-1.1.05-.74-.1-.23-.29-.18-.3L393,430.18l-.5,0-.73.64.78,1.76.45.64.6.64v.54l-.46.29-.27-.05-.32-.15-.56-.09-.64.14-.32.3-.27.34-.42.25-1.6.49-1,.09-.83-.34-1.56-1.81-.51-.49-.64-.34-.92-.35-.82,0-.37.88.32,3.43-.32,1.62-1.38.78-.73-.1-1.66-.39-1-.1-.5-.39-.51-1.86-.64-.73-.87,1.37-.92,1.86-1.24,1.62-2.52.93-1.75,1-.73.24-1-.34-.74-.64-.69-.39-1,.29.19-1.42.27-.49-4.91-.14-1.51-.35-2.57-1.22-1.29-.15-1.24.78-1-2.49-.73-1.23-1.34-1,.05-1-.18-.88-1.33-.15,0-.14.51-.74.23-.19-1-1.72-1.47-1.17-1.75-.54-1.74.05-4,.78-1.1.69-3.08,3.13-1.19.93L333,434l-.14.09-.87.93-.6,1.13-.36,2.7-.23.44-.32.19-1.06.3.37.68,1.88,1.42-1.47,1.52-.41.54h1.74l-.09.24-.41,1-2.39,2.55-1.42.74-1.15-.93L325,446.29l-1.24-.34-.5,1-.28,2-.13,3.68-.28.49L321,454.91l-.09.49.14,1.08L321,457l-1.83,1.47,1.05.78,1.2,1.13.87,1.47.09,1.67-.78,1.22-1.38.88-1.69.59-1.66.29h-2.52l-.74.15-1.56.88-.64.15-.37.39-.27.49-.46.64-.19.54-.23.19-.27.1-.69-.15-.32,0-.64.69-.78,1.08-.65,1.12-.46,1.86-.55,1.42-.73,1.38-.78,1-1.75,1.47-1.14.69-2.44.69-.36,1-.14,1.17-.64,1-1.24.44-1.11.25-.59.09-1.47.49-.64,1-.65.74-2.34.73.23.79-.23.05h-.18l-.09.09,0,.35h-.41l-.6-.2L287,490.57l-.87.4-1.2-.05-.68-.2-.33.39-.09,1.62-.64,2.2-.32,1.38.27.63,1,.35.37.83-.14,1.17-.55,1.18-.46.44-.13.15-.05-.05L283,501l-.87-1.08-1.38-.1-1.56.05-1.51-.54-1.06-1.37L276,496.4l-.78-1.27-1.47-.69-.92.1-.64.25-.6.14-.92-.34-.46-.44-1.46-2.06L264,488.47l-.19-2,.74-1.57v-.78l-5.14.78-.92.54-.74.73-.36.59-.28.74-.46.93-.78.88-.83.44-.78.29-.68.49-2.35,3.87-4.4,5-1.06,1.76-.5,2.16-.42,1.13-.78.93-1,.49-1.24.34-3.49.24-.46-.09-.64-.2-.37-.29-1.06-1.18-1,.15-.87.49-1,.34-1.2-.34-2.24-1.32-2.62.19-5.51,1.08-2.89-.34-1.43.09-1.51.84-.78.54-.32.29-.09.44-.19,1,0,1.27-.19,3.87.14.69.23.34.28.25.59.49.28.44,0,1.17-.46,2.35.05,1.23,2.16,8.72-.09,1.12-.88,2.06-.09,1,.28.74.36.19.46.15.46.39.46.93.19.44.36,2.06-.13,1.13-.51,1-.92.88-.5.34-.46.39-.64.15-.65-.2-3.85-2-1.15-.14L209,540l-.92.64-3.21,2.94-.55.73-.46,1-.5,2.06-.1.19.1.4.5,1.17.14.2-.6,3.82.19.44.36.2.28.24-.19.74-.32.39-1,.49-.36.34-1.56,2.6-.79.88-1.69,1.12-1.43.74-.36,1.17-.78,0-1.52-1-1-.15-15.38,1.08v0l.69-.49.18-.93.51-.69.69-.54.91-.34v-.44l-1.83-.1-1.33-.24-1-.64-.87-1.08-.46-.68-.1-.4.14-1.17.42-.15,2.06-.34.69-.25-3.9-1.07-2.21-.25-1.24.39h-.41l-.18-2.79-.92-2.89-1.29-2.55L167,542.89l-.41-1.18-.09,0-.14-.3-.41,0-.42.1-.36-.1-.46-.68-.23-.59.14-.59.55-.69.59-.39,1.1-.54.6-.54,1.33-2,.51-.44.92.19,1-.24,2.16-.88-.09-.64v-.44l.09-.49-1-1-.46-.34-.6-.1-1.33.24-.55-.1-.64-.73-1.15.93-.32.34-.37.74-.09,1,.23.54.05.39-.69.59-.42,0-2.29,0-1.06.24-.59.05-.65-.29v-.49h1V534l-1.29-.3-1.33-.54-1.15-.1-.87.94h-.46l.14-.74.73-1.81-.91-.39-.23-.79.27-2.06-.37-1.12-.82.19-.92.84-.69.83.64,2.06-1,2-1.79,1.42-1.92.54-1.2-.25-1.56-1-1.28-.44-.1-.49v-.54l-.23-.19-.68-.05-.42-.1-1-.39,5.28-2.55,1.15-1.42.18-.93-.14-.93-.37-.88-.5-.64-1-.39-1.43.49-.69-.3-.69-1.66.37-2,1.61-4.11.18-1.33-.09-2.69.28-1.27.55-.94.69-.63.32-.79-.42-1.22.33-1.18,1.37-3.33.6-1-1.19-.54-1.89-1.71-1.05-1-.42-.24-1-.35-.32-.24-.55-.88-.64-1.91-.65-.54-1,.05-.69.58-.55.79-.64.49-.64.05-1.33-.3-.65,0-.55.2-.82.69-.33.14-.45-.14-1-.64-.37-.1-.14-.05-1,.3-3.08,1.61-.55-1.81-1.1-1.37-1.24-1.18-1-1.27-1-2.7-.78-.68-1.74-.1-3.54.44h-1l-1.61-.39-.18-.05-1-.1-.64.25,0,.24.09,1.47.14.25.6.58.09.2-.32,1-.42.1-.59-.1-.78.39-.46.49-.28.54-.23.39-.5.54-.74.3-.82,0-.74.3-.46.88-.41-.2-.55-.14-.51-.1H108l-.23.29,0,.44v.45l-.05.19-.5-.05-1.06-.44-.64-.05-2.71.64-1.24.54-1.24.83-1.79.1.6-1,0-1.18-.73-1.91-.19-.68.14-1.08.23-.93,0-.83-.32-.79-.1-.19.28.05.09-.05v-.05l0-.15,0-.24-.59-.64-.65-.29-3-.2-5-1.71-1.7-.15-1.74.29-.42.15,0-.1V487l-.14-.64-.32-.49-.5-.44-.33-.1-1.42-.19-1.06-.74,0-1,.41-1.22,0-1.23-.51-.83-.55.1-.68.44-.83.34-2.94-.24-1.19.19-.42-2.05-1-2.21-1.42-1.86L71,473.63l-1.06-.05L69,474l-.78.49-.68.14-.56-.44-.23-.78-.09-.59v-.34l-.27-.93-.6-1.08-.64-.78-1.7-1.38-.28-.63-.27-2.26-.41-.88L61.4,464l-2.25-.29-.78-.68.28-.69,0-.78-.13-.69-.37-.69-.37-.53-.32-.35-.41-.1-.6.2L56,460l-1,2-.64.63-3.12-1-1.7-1.27-3.4-.78-2.06-1-2.62-.44Zm117.11,82,.23.54-.14,1.13-.69,1.08-1.51.24-.78-.15-.32-.09-.28-.25V542h.46l-.23-.39-.41-.83-.28-.35,1.1-.39.88-.15Zm-.46-5.73.64.2,1.8-.39h1v.44l-1.2.53.83,2.9-1,1-3.12-1.07-1.43-.93.19-1.23.87-1.37.6-.44ZM207,332.5l.41.49-.6,1.17.19.84-1.29-.05-1.05.29-1.79.79-1.56,1-1.06-.88-1.24-.44.6-.83,3-1.57,1.75-.39,1-.15.92-.29Zm18.22-11.56.51-1.81,1.93-1.67,2.66-1.76,2.07-.93,4-2,4.36-1.57,2.89-.88,2-.25,2.67.15,2.11.15,3.3.05-1.37.44-1.47.73-1.29-.39-2,.49-1.38-.34-1.19.24-.46.2-.92.68-.46.2h-.59l-1,.24-1.19.93-2.48,1.28-2.39.93L233,318l-2.29.78-1.52.15L228.1,320,227,321.08l-1.33,1Zm46.65-13,1-2,.78-1,2.21-1.08,1.28.54,1,.88-.36.88-1.47.2-.33,1.08-.91,1.22-1.33.1-.88,1.08-3.44,2.45-.28-.69.69-1.32,1-1.81ZM404,237.52l.51,0,.5.1.51.2.41.19-.64.15h-.55l-.46-.24Z" style="fill:#efc441"/><polygon points="759.71 351.99 759.49 351.85 759.71 351.6 759.71 351.99" style="fill:#efc441"/><path d="M114.43,334.07l.18-.1,0,.24h0ZM110,330.24h0v.15h-.09l-.09-.15.13,0Z" style="fill:#efc441"/></svg>