<svg xmlns="http://www.w3.org/2000/svg" viewBox="0 0 800 800"><path d="M624.22,43.36l-2.35,1.91-9,2.93-4,2.17-4.61.85-1.58,1-1.24,1.55,1.24.36.62.44.24.7.24.19L605,57l.21.4.37.48-.24,1.06-.62,1.51-.41.66-4.82,3.34-.86.3-3.1.14-1.31.85-.93,2,1.55.89.76.25,3,.15.62.66.28,1.69-.52.29-.93.67-.58.33,1,.58,5.68.11,3.27,1.11,2.28-.11,4.13-2.76,2.58-.22,1.1.44,1,.85.72,1.32.28,2,.31,1,.72.37.69.11.31.33.14,1,.48,2,.07,1-.14.37-.65.48-.24.37v.4l.06,1-.06.4-1.14,2.17-.21.59-.55.4L616,90.86l-3.72,2L611.17,94l.1,1.54-1,1.25-2.51,2,1.48-.08,1.34-.77,2.34-2.24-.75,1.84-1.45,2-.59,1.58,1.76.66,1.82-.4,3.93-1.65,10.81-2.13L632.34,96l2.07-.36L636,96.88l-2.17,3.71-1.24.92.14.77.34.74.21.29.24.22,1.14.67,3.2,1.54.93.84-2.72.63-1.48.84-1.24,2.28-2.58,2.24-1,1.88-3.83,3.34-.75,1.1-.59,1.32-.28,1.47.66-.66,1.07-2,.55-.4.55-.22,1.69-1.25.51-.59.93-1.43,6.23-6.8,1.11-.58,1.34.25,4,2.17-.79-.84-1.45-1.14-.55-1,11.06,4.82,1.41.18,5.51-1,1,.11.59.41.37,1.06,0,.92-.28.59-.65.18V115l1.58,0,.69.14.48.55.07.63-.14.77-.24,1.07.35.62.41.52.93.58,2.34-2.53,1.28-.7,1.51.29.28.37.07.55v.55l0,.26.31.07.76-.14.27.07,1.79,1.47.31.4.07,1.95-.69,1.21-.93.85-.55.81.14.51.59,1.65v.78l-.31.33-1.76.92.52.55v.66l-.18.81v1l-1.68.88-4.58-.48-2,.77,1.24.81,3.93,1,.13,1.44L665,138l-1.59.55h-2.51l-1.07.26-2.13.95-4.2.59-1.28.62.79.81,8-2.16,2.44.14,4.86-.92,1.51.33,2.52,1.22,1.27,1,.48.91.24.48-1.2.7-2,2.39-1.1.51-6.37,1.18h-6.75l-2.9.55h-3.09l1.55.92,5.85-.92,7.75.66,3.44-.66h1.89l.52.29-.24.66-.79,1-.14.55.07.4v.33l-.28.41-1.89.62-1.69.15-1.58.48v.62l3.89-.59.89.59v.55l-.48.11-.45.22-.38.41-.41.51H670l.48.19.41.4.28.37.2.18.52-.26.79-1.21.41-.25.11-.34,1.48-2.13,2.06-1.76.14,1.29,0,1.83-.18,1.8-.27,1v.66l.93.48.27.85-.34,1.06-.86,1.18-1,.69-2.14.45-1,.66.9,1.17.45.81-.11.4-.79.26-1.58,1.29-.76.29-3.62-.66-3.13.4-1-.4-.48-.81-.42-1.21-.51-1.07-.8-.47-.82-.22-1.65-.85-2.66-.66-2.78-2-1.55-.48.31,1,.51.7.62.48.59.26-1.83,1.5-10.22.3v.62l15.83,1.14.52.37.72.66.62.84.25.85.44.48,2.34,1.58,5.17,1.76,1,1.25-2.07,1.21-2.48-.26-4.4-1.58-5,.63-3.1-1-.86.33,3,1.58,7.23,1.22,3.24,2,.41.47.45.81.17.74-.55.33-.79.29-1.27,1.21-.66.3-5.26-1.54-1.49,1,5.44,1.65.93.66,0,.92-1.45.33-5.75-.18-1.58-.48-.31.4-.41.33-1,.45v.66l1.55,1.43.83,1,.76,1.17-.83.22-2.31,1.54L639,191.74l-1.79-.44-1-.47-.65-.59-1.45-3.38-1.27-1-1.38-2-.72-.44-4-.66.48.51.55.15H629l.69.41-.07.88-.35,1-.1.62.76.74,2.55,1,.82.07v.59l-.07,1.1.69,1.36,1,1.18.65.51,2.55.62.93.78-.55,1,.34.59-8.44-2.09-2.58,1.5.83.74,2,.8,1,.85.49,1-.07.81-.55.7-.93.48H623.8l-.62.55.62,1.18,1,.95h.52l.51.88,1.11.59,1,0,.21-.63,2.06-.44,3.1-3.45,1.59-.85.31.41-.76,1L629.79,205l-.65,1-.17.81-.17,1.8-.21.66L627,211.4l-.24.81.07.51,0,.3.14.62-.07.33-.24.26-.27.15-.25.25-.1.55-.1.37-.55,1.32-.21.3-5.23.44-3.62.95L615,219l2.17-1.28,4.51-1L624,216l-1.28-.63-5.61-.66-.38.15-.07.37.1,1.14-.2.25-.35.19-1.1.81-.58.18-.24.22-1,1.47-.58.44-2.76,1.36-1.17.88-1,1-.65,1.07.27-1,.18-.4.24-.37v-.59h-.35l-.34.85-.79.77-.83.51-.62.23-.17.25.14.66.38.63.51.26,1.1-.08.49-.18.48-.37.24,1.21.45,1.14h-1.14l-1.48,1.44-1,.36-2.34-.18-1-.33-1-.66L598.91,227l-1-.62-1-.29-.45.25-.93,1.14-.48.33-.62-.11-.58-.33-.59-.11-.65.55.65.63-.55.44-.58.14-1.24,0,1-2.35v-.55l-1.62.33-.8,0-.34-.59-.21-1.36-.58-.88-.66-.29-.62.44v.59l.42.4.31.44.2.59.14.92-.69-.37-1.41-.4-.65-.41v-.55l.48-1.18-.76-1.83-1.24-1.66-1.1-.73-1-.85-2-.58-1.27-.26.86.51,1.72.55,1,.37.55,1,.93,2.13.45.7-.45.47-.41.15-.45-.18-.41-.44v.66l1,.7.17,1.32-.41,1.5-.76,1.22-1.24.47-2.79-.55-1.17.63.72.44.76.18h1.65l-1.27.81-3.24.85-2.89.22-3,.84-1.31.81-.24-.4-.31-.41-.14-.4-1.41,1.47-4.44,2.68L566.1,235l1,.55-1.68,1-13,3-1.82,1.21h2.34v.55l-3.17,2.06-1.1.25-.48.26-1.72,1.51-1.21.66-.48.44-.38.73-.52-.84-.51-.15-.52.33-.55.66v.59H543v.52l-3,1.58-1.1.22.34-1.22-2.72,1.55-1.31,1.17-.79,1.44.83,0,.65-.48.52-.47-1.31,2-.69.74-3.61,2.35-2.41,2.86-1.55.63.62-.26.62-.4.51-.67.28-1-7.58,4.74-6.75,1.46-1-.22-.87-.73.38.55.42.33.44.22.52.08-1,.44-.8.14.18.92,0,1.18-.27,1-.55.4-.25-.25-.1-.59v-1.18l-.14-.25-.89-.63-1.9-1.95-.51-.4-.79-.18-.42.22-.13.77,0,1.25.17,1.58,0,1.1-.31.51-.66-.29-.1-.74.24-2.16-.14-.77-.37-1-.38-.55L505,264l0,2.28-.07,1.07-.27,1,.68.77-.24.59-.79.37-1,.11.58-1.91,0-.85-.28-.73.21-.74.14-.33.17-.15.45-.22,0-.51-.17-.41-.14,0,.28-2.28,0-1.25-.14-.55-.17-.33-.55-.66-.59-.37-.24.44-.13,2.24.06.88.42.78-.79.55-1,0-.82.11-.52,1.07.62.88.24,1,.34.92.87.66-.93.95-1.86.33-3.62-.07-.76-.18-1.82-1-.66.37-.68.58-.52,0-.17-1.44-6.23,2.91-6.89,1.76-4.68.85.55-.63.31-.77,0-.88-.27-.88-.38,1.21-.59.84-.72.26-.76-.59.14.48v.18l0,.19.21.29v.66l-6.54,3.49.48-1.87,1.31-1.07,1.62-.47,1.41-.08V273l-3.31-1.28-1.2-1-.28,1.14.07.47.21.7-1.31.7-1.2-.18-1.28-.45-1.38-.07,1,.66v.52l-1.28,0-.55.18-.55.48-.82-.33-.9.48-.76,1-.27,1-.28,1.51-.69,1-.89.3-.93-.81-.66.73-.24.74.28.62.79.26.65-.18,1-.81.76-.18,4,.33,1.35-.33-2.17,3.15-1.31.89-1.31-.55.14-.19H457l0,0,.11-.34h-2.07l.07.81-1.41-.11-.79.48.65-.07.45.25.17.59-.17,1,3.75-.15.69-.48-1.24,2.87-1.83,2.64-2.3,1.91L448,294.5l-3.31,1.88-3.13.55-1.65-1.73.62-.62,1.44-.37.52-.48.69-.92.62-.4,1.61-.11v-.59H444l-2.69.63-1.37,0-3.45-1.62-1-.18.31.66-.34.11-.18.15-.17.29.52.52,1.06,1.47.35.29.48.55.24,1.18.14,1.21.17.55,2.1.11h1.21l.82.11L431.37,299l-6.24,2.28-10.57,2.16-2.58-.07L402.34,301l-4.06.85-1.45-.3.55-.07.21-.11.28-.37-1.83-.29-.89-.37-.73-.55-1,1.1-6.75-1.1-.65-.22-2.62-1.51-4.13-.62-5.86-3-8.09-1.66-1.58-1.1.65-.07.42-.33-.07-.44-.62-.37-.62,0-.86.55-.62.15-4.82-.66.14.44,5.06.77-13.29-.66-.86-1.07-.21.08-.14.15-.14.14-.17.15-.24-.37-.17-.07-.31-.08.34,1.18-3.85,0-1.9-.33L333.79,286l-.76-.7.72.48.8.22.82-.15.79-.55-.65-.07-1.14-.41-.65-.11.24-1.32.1-.37-.93,1-.82.41-.9-.15-1.13-.73V283l1.72.56-.66-1.33-.93-.73-1-.63-.86-.8-.83-1.44-.45-1-.58-.51-1.24.07v.52l1.75,1.87,1,1.43.72,1.4-3.37-2.31L324,278.56l-1-2,.21-.15.48-.48-.38-.4-.69-1.36,1.41-1.22,1.59-.73,3.37-.37,1.62.55,2.79,2.24,1.65.15-.82-.81-1.24-1.58-.69-.55-3.82-1.72,1.51-2.14.21-.8L330.1,266l-.55-.29-.44.29.13.67v.55l-.58.8-2.17,2.14-1.41,1.24-1,.74-1.24.33-.37.33-.07.81.07.95-.14.85-.38.84-.24.19-2.27-1L317.26,274l-1.72-.59-3.51-2.1h3.27l.58.23,1.24.88.76.07L318,272l.69-.15,1.65.07v-.59h-1.41v-.58l.21,0,.34,0h.17v-.55l-3.58.69-1.24-.14v-.55l1.69-1.69.52-2.58-.69-2.2-1.9-.51v.51l1.42.48-.18,1.17-.93,1.36-1.89,1.91-1.2.7-1.35.26-1.37-.63.55,1.4.17.37-2-1.66L303,266.77l-6.4-1.8-2.21-1.22-1.2-.44-1.21-.66-1-1.32.28-.7-.07-.84-.52-2,3.93.19,2.13-.37,1.48-1h-3.79l-2.37-1-.9-.15-2.58.55-.52.33-.48.55L286,258.13l-.58.3V259l2.58.84,1.27.81L290,262l-1.07-.44-2.27-.26-2.31.23-1.41.44-.83.88.66,1.47-.24,0-.14.15-.14.22-.17.19-14.74,1.5-1.79-.92-1.69-1.36-1.58-.84-1.65-.18-8.37,2.31-2.06.07-.69,0-2.59.62-13.63-2.35-1.07.59-.89,1.06-.93.7-1.1-.59.72-.58h-1.17l-1.9.91-1.61.41-1,.73-.55.3-.55.07-4.89-.4-1.1.33-.24.22-.28.36-.31.37-.38.15-.62-.26-.75-1.14-.55-.25.31-.89.37-.55.31-.55.07-1-.2-.92-.42-.4L214,262l-.58-.66.79-.88,1-3.13.48-.69h2.2l.35-.3-.21-.88h-.52l-1.17.59-1-.19-1.07-.62-.86-1.07-.34-1.61.79-1.66.21-.69,0-1-.07-1.8,0-.81-.07-.7.27-.69.55-.63.62-.33.73.22,1.55,1.29,1.75.92,1.34,1.54,1.24,2.09.69,2.21h-.72l.83.92,1.2.29,4.92.18,1.21-.22.79-.58-.55-.63.28-.7.68-.62.62-.41.73-.25,2.41-.33,1.82-1.07.55-.15.62.19,1.31.84.69.19,1.31-.37,2.44-1.62,4.2-.59,1.38-.69,1.17-1.47.41.51.35.07.27-.18.31-.4v-.52l-.86-.7-1.2-.62-1.21-.29-.82.36.51-1.36,1.24-.69,1.38-.08,1,.41-.37.07-1,.55.93.37,1,.11,1-.15.86-.33V242h-1l.72-.48.31-.11-3.13-2.17-1.69-.7-1.72-.07,1.51-.88,7.54,1,.38.33.24.4.31.3,1.55.66.79-.08.76-.58-.55.07-.55,0-.52-.22-.44-.4.58-.66.38-.3.41-.22-1-.59,1.31-.36,1.79.4h1.69l1.06-1.73-1.75.74-.93.07-.42-.55.35-1,.82-.51,1.59-.59-1-.48-1.55-.14-1.55.18-1.1.44.31-1.47-.55-.66-1-.18-1.41,0-.48.15-.45.22-.35.44-1.89-.29,1.48-1,.48-.73-.24-1.25,3.07-1.62,1.51-1.28,1.1-1.47.86-1.8.49-.48.86-.41,1.1-.18,2.24.22h.93l-1-.33-.42-.29h-.41l2-1.29,1.1-.4,1.21-.15,6.92,1.4,1.17-.23.86-1,.55-.67-2.27,1-1.2-.44V219h.48l.41-.14.79-.44,0-.41-.07-.11h-.14l-.14-.07h.31l-9.12-.44-4.31.73-3.82,2.57-.17.37-.17.48-.24.51-.45.48-.41.26-1,.26h-.48l-.79.22-2.27,1.25-.73.69-1.89,1.25-2.38-.25-4.51-1.29v-.62l2.1-1,2-1.4,1.69-1.76,1.06-.51,1.11.51.93-.73,2.2-.56,1-.47-4.51-.37-1.38.37-1,.47-.8.23-.75-.48-.93-1.47.65-.81.1-1,0-1.21.38-1.36.34-.07.42.25h.34l.24-1.47.28-.69.65-1.22.07-.92,1.27-.88,5.65-2.16,3-.23-.25-.77-.48-.44-.62-.11-.72.11v-.55l.93-.66,1.93-1.95,1.68-.55.83-.73.48-.3.69-.11,2.1.11-.2,1.55,1,.25,1.31,0,.62.88.66.63,4.2.18-.83-.48-1.76.15-.89-.18-.72-.59-1.11-1.36-.89-.41,2-.66v-.55h-5.16v-.62l2.89-1.33.93-.73.82-.15,4,.48v-.66l-3.89-.63-1.24,0-3.23,2.24-1.28.15V197l1.31-.91.48-.63.31-.84-2,1.61-.55.26-.48.44-.35,2-.58.44-.52.22-2.1,1.55-2.61.73-.76.52.31,1.17-1.52-.4-1.41.29-2.93,1.87-1.17,1.07-.79.37-.82-.26-.52-.84.07-.85.79-1.91-1,.26-.48,1-.18,1.32v1.32l-.17.45-1.2,1.65-.21.77v.59l-.1.51-.38.52h-1.83l-.27.29-.18.33-.44.26-.48.18-.42.08-.82-.3-.9-.77-.79-1.14-.45-1.32-.41.51-.42.33-.37.19-.52.14.72-1.1.62-1.36.21-1.28-.52-1,.21-.11.48-.47-.38-.33-.41-.22-.45-.11-.48,0,.24-.29.48-.92v-.51l-2.3,1.28-1.42.52-1.1-.08-.93-1.06-.34-1.44.17-1.36.72-.88v-.55l-.89-.11-.62-.66-.45-.7-.27-.37-.62-.22-.73-.62-.72-.81-.52-.73,1.28.4,1.31,1,1.3.59,1.31-.77H232l.31-1,.49-.66.58-.44.69-.29-.48-.48-.21-.11v-.59l5.82-2.17,1.45-1.39v-.59l-3.14,2-1.65.67-1.62.25-1.37.66L231.39,193l-1.45.77-1-.81.65-.37,1.41-1.47,1-.77.59-.66.48-.88-.38-.59.45-.15.28-.25.65-.77L233,186l-1.51-.33-3.24.11.73-1.17h-1l.35-.88.93-1.69.44-1-.51.11-.45.33-.41.59-.35.73-.31-.81-.41-.33-.48.11-.52.44v.59l-2.75-.59-.8.3-1.48,1.25-.82.22v.66l.38.07,1,.51-4.65.67-1.21-.67,1.21.15.58-.07.45-.37-.17-.48-.52-.69-.62-.67-.45-.29H211l.76.62,2.65,1.22v.58l-1.34,0-2.38-1.54-1.41-.19h.34l-6.33-.44h-6l-6.92-.37-2.93-2.27-2.79-.19-4.85.85,0,.25-.89,1.18-.35.33-.51.37-.55.29-.62.11L171,182.19l.55-.37.59-.22.62-.07-.83-.26-1.93.78-1.51,1.43-.24,1.72-.93,2.06-1.38.85-3.72.07-1.06.22-2.21.92-1,.11-3.65-1.58-.76-.84-.72-.23-.52-.4-.2-1.47-.31-.77-2.14-2.54-.93-1.35-.76-1.47-1.41-3.72.35-.66,1,.81.93-.33,1.86-1.65,1-.44,5.44-1.14,1.07.07,4.06,2,5.55.69.48-.22.89-1.1.49-.4,2.1.11.48-.41,1.86-2.13,2.06-.51,4.55.59v-.67l-.28-.25-.17-.26-.1-.29-.18-.37,2.14-.11.69.48-.38,1.47.65.36.45-.47.38-.59.59,0,.17.85v1.21l.27.63.93-.89.76.56.93-.34.76-.84.31-.85-.21-.88L188,168l-.27-1.24.17-1.22,1.38-1.39,2.1-.3,4.09.48-.38,1-.62.7-1.44.77.14.33.24.85-.59.11-.41.33-.38.55-.38.73,2.79,3-.31-1.33,0-1.06.24-1,.48-.84.31-.22,1-.11.42-.22.31-.48.34-1.14.21-.51,1.41-1.36,1.41-.11,1.38.88,1.13,1.54.8-.92,1.06-.55,3.1-.59,3-1.54-.83-.37-3.65.37v-.62l2.1-.37,3.79-2.87,2-.36-.31.36-.38.26.89.18.86.41-.07.66,0,.11,0,0,.07.33-.69.77-1.51.62-.59.48.69.15.83,0,.86-.26.72-.47.35,1.69.41.69,1.69.59,2.24,1.51.86.26v-.52l-.62-.29-.59-.55-1.24-1.62L220,163l.72-.44h1l.1-1.18.93-.33,4.2.15,4.13-.74,6.78,1,4.51,1.69.52-.22.76-.77.48-.26h3.79l1,.37,1.1.62,1,.3.1-.08.86-.58,1.35.66,5.58-.66,1.3-.85.07-1.1-.89-.85-1.52-.18.48-1.17L259,158l.73-.22.89-.63.66-1,2.1-4.44.17-3-1.62-1.21-2.17.14-1.55,1.18v.59h.38V150L251,154.79l-2.51.77-14.33-2.06-3.61-2.17-.55-.18-.24,0-.73.41-4.57.51-1.35-.4-1-.88.76-.37,1.48-.33,1.13-.77.38.48.38.18h.93v-.66l-1.1-.59-1.28-.11-2.41.7.52-1.29.9-1.25,1.68-1.65,2.34-.81.9-.73-.14-1.44.76-.22,1.79.22.45-.33,1.51-2.13,1.34-.73,5.62-1.18,4.71-2.68,1.83-1.69,3.24-1.21,1.13-.92-.1-.11-.14,0-.07-.08v-.4l.76.07,1.24,1,.76.08-.45-1.36-.24-.44,3.13-1.33,6.51-1.5,1.93-.85,1.2-.51-4.82,1.14-1.75,0-3.62-.58-3,.66-1-.08,1-1.36,1.07-1-1.83-1.33-.69-1-.24-1.32-.65.36-.69.22-.72.08-.69-.08.27,1.25-.44.41-.73-.15-.51-.29-.49-.78-.93-2.13-.65-.69.24,1.46-.1,1.25-.45,1.11-.72,1-.9.81-.51.29-.45.15-.17.36-.31.81-.42.85-.48.37-1.89.14-.86-.26-1.35-1.54-3-2L231,123.3l-.28-.77,1-1.43,1.1-.59,5.55-.88,2.34-1.22,1.2-.25.55-.41.14-.88,0-1.07.11-.77.45-.62.55-.48,1.1-.66-1.52.29-3.68,3.93-1.72,1-1.62.59-3.55.19v-.63l2.14-1.1.65-.63v-.66l-1.07.08-.75.51-1.28,1.29-1.06.29-.62-.37-.59-.47-.89-.12v.67l.62.66-.28.81-.72.66-2.76.81-.76-.3-.55-1.5,0-1.44.21-1.1,0-1.1-.65-1.47-1-3.12-.62-1.07-.62.81,0,.48,0,.95.07,1,.79,1.87,0,.7-.31.7-1,1.54-.56.59-.62.07-.75-.84-.93-1.69-.45-.15-.31,2.31-.38.7-.55.33-.65,0-.38-.37-.42-.74-1.13-2.75-.21-1.44.35-1.46,1.13-1.66-.45-.51-.24.14-.27.3-.45.07-1.34-.66h-.83l-.31.15-.21.51v.48l.49,1.91.48,1.1,1.38,6.73-.73.55-.86-.15-.93-.33-.89-.07v-.56l.27-.73-.24-.59-.58-.4-.66-.15-1.69.4-.55-.11,0-.8-.41.07-1.28-.07v-.67l1.21-.88,2.27-2.24,1.34-.51-.51-1-.86-.66-1.76-.84-.28,2-1,1.69-1.27.85-1-.56-.31-1-.24-1.06-.31-.89-.51-.36-.14.62-.24,2.76-.17.84-1.07,1-3,.56-1.41.58-2.79-1-1.48-1.1.14-1.29v-.55l-1.41.59-.83,1.76-.07,1.91.93,1.14v.66L190,121l-1.14,1.4-.65.48-.83.18-3.34-.29-1.38-.45-.79-.11-.79-.29-.58-.62-.59-.81-.28,0-.34,0-.24.15-.52.37.24.11.14.11.35.36-1.45.44-2.62,1.62-6.81,1-1.55-.62,0,1-.2.36-.35.08-.41.33L164,128.3l-9.22,1.87-2.34-.18-2-1v-.66l.28-.7-.21-.63-.51-.58-.59-.48.9,0,.41.19.41.37.14-1.62-.93-.81-1.14.11-.51,1.18L147.41,124l-7.71-2.35-14.36,1.14-1.82-.26-1.1-1.46,2.2-1,1.14-.81.48-.92.62-.58,3-1.36.89-.78.18-1.35v-1.62l.31-1.32,1.54-.74.87-.84.72-.22,1.27.18,4.89,2.13,1.41.15.86.4,2.76,2.57,2,.92,3.51.7.82.81.73,1,.89.85,1.52.55,1.44-.08,2.86-1.1-2.27.07-1.21-.22-1-.36-.83-.81-.69-1-.79-.92-1-.37-2.47-2-1.38-1.76-1.59-1.55-.89-1.28,7.61,1.14,4.92,2.13,1.55.33-1-1.36L157,109.56l-1.44-.81-2.17-.59-2.62-1.25-2.3-.62-1.14-.81-1.79-1.84-2.07-3.08-.13-1.1,0-1.07,0-1.06-.52-1,2.1-1.4,2.17.11,21.21,8.63.48.45.9,1.32,1.37.77.35.4.51,1.58-.24,1-.51.91-.42,1.33.9.4,1.17-.7,2.06-2.09.18.44.82.77.55-.84,2.72.51,1.21-.29V109l-.45-.19-.21-.18-.37-.84.89,0,2.24-1.18.83-.07.79.11.75-.07.73-.55-6,.36-2.72-.62-2-1-.72-.58-.89-1-.49-1,.52-.44,3.13-1.06.69.22.76.48L182,101l1.31-.84,1-.22,2.2.62,1.1.07,1-.69-.66-.44-.31-.15h-.41v-.55l2.38-1.21.68-.67-2.75.3-1.58.51-2.17,1.44-13.54-.23-2.68-.8-1.72-1.22-2.65.74-.62-.41-.69-.91L159,94l-1.62-2.43-1.06-2.87.17-2.68,2.13-1.76,1,0,2.86,1.25,3.75.59.93.44,1.59,1.43.93.55,1,.08,3.17-.66,6.19,1.8h2.07l3.58,1.91,2,.58,1.73-.62-4.14-1-1.34-1.21-4.17-.26-1.27-.59L176,86.93l-5.19-.88-1.17-.63-2.72-2.72-1.38-.55-.69-.84L163.8,81l-2.31-1.58-2.06-2.06L159,76.6V73.85l.28-1.43.75-1.07,2.07-.55,2.62.44,9.12,4,2.65.52,1.79-.77.24,1.39.62,1.22.9.8,1,.3v-.55l-.86-1-1.52-2.75-1-.59-1.17-.18-2.31-.85-1.2-.18-.55-.3-1.55-1.54-2.93-1.91-1.69-1.73,1.62-1,4.37-.33,3.34.4L180,68.93l-1.17-.78-2-2.35-1.14-.51-4.82.07-1.2-.62v-.66l.51-.67.72-.8.83-.7.48-.15.38-.11,2.1-.07.76-.52.1-1.17,1.14-.44,7.88,1.65,5.13,2.72,1.52.26,1,.58L193.48,66l.86,1.58-.2,1.33.34,1.94L197,68l1-.33.51.26.49.51.72,1.11.89,1,.11.48,0,1.32.24,1.44.11.84-.35.66-.86,1.14-.17.18-2.27,3.09-.49.88h.31l1.07-1.25,2.76-2.46,1-1.17.31-.74.21-.81.31-.66.55-.26.62.3.38.66.72,2.09-.24.41-.1.25.72-.51.79-.84.83-.48.76.59-.86,2-1.17,2.06-1.45,1.69-1.69.85,2-.11.92-.34.83-.77,1-2.27.72-1.36.55-.3.72,2.43-.34,2.46-.45,2.09.28,1.25,1.72-4.3-.11-2,.21-2.28.41-2.13.55-1.51.38-.66.28-.14,3.41.22.34.29.14,1.21.31.74.45.44L219,76.79l1.79,2.5.31.33,0,.36-.21,2-.24,1-.31.88-.38.44.14.33.21.22L217.76,90l-.56,1.61.38.78.66-.15,1.17-3.42,3.34-6.46.34-1.77v-.66l1.07-.15.69.85.58,1.25.76,1.14.38.07.28-.22h.31l.41.73,0,.74-.24.7-.07.59.69.4.11-.44.24-.88.31-.7.38.22v.59l-.35,3-.41,1L227,90.53l-.48,1v.55l1.92-.81,2-4.92,1.61-.92v-.66l-1-.84-.58-1.69-.35-2-.45-1.58-.72-1.25-1-1.21-1.07-.88L225.81,75l.52-1.14.24-1.1.28-1,.72-.88,1-.36,1,0,.9-.33.58-1.21-1,0-2.48.92-1,.66-.93.26-4.2-1.51-2.83-2.13-12-3.71-3.51-2.72-2.1-4,2.34-1.07,7.47-1.47,1.55.07,5.38,1.22h1.37l.55.14.24.37.18.4.24.34,1.34,1,.72.11.69-.51-.34-.29-.24-.41-.45-1.17h2.48l1.27-.26L228,54l2.51-.22,1.17-.66-6.85.77-2.07-.77-1-.77.21-.11.83-.08.79-.62.55-.66.72-.52.83-.33.83,0v-.66l-1.11-.48-.68.18-2,1.51-2.58,1-3,.18-2.34-.33-.45-.22-.07-.95.45-.67,1-.88.21-.62.24-1.8.21-.55.68-.55,2.41-.74-2.16.33-1.66.85-4,3.08-.93.37-2.1.26-.62-.52.34-1.17.8-1.25.68-.66v-.66l-1.72.51-.86.51-.86.78-2,2.6-.41.19-1.2,1-8-1.51-2.1-.84-1.34-1.29-.83-.59-.34-.59.65-.8,1.93-.11,2.45.66,2.16-.22,1.11-2.8-1.45-.14-1.58-.88-1.48-1.25-1.07-1.36,1.55-.92,1.58.51,1.59,1,1.51.59-.38-1-.24-.4-.41-.48,5.51-.66.34.11.31.37.41,1.1.31.36,1.11.23.44-.7-.2-.88-.8-.48-.82-.22L202.36,36h5l.9.29,1.79,1.25,2.27.63,1.82,1.61,1,.52,1.31-.18,2-1.66,1.17-.62-.1-.33-.21-.88,2-.52,1.65.92,1.58,1.36L228,39.57l.75-.11.25-1.1-.38-.88-1.31-.66-.38-.85,1.62.22,1.55,1.1,1.17,1.77.48,2.13.86,1.32,4.1,1.62,1.27,1.69-.72.88.65.55,2.14.33v.62l-.93-.22-.38.37-.07.77v1l.24.48.45.58.1.7-.79.63v.66l.66.59.68-.52.8-.48.86-.25h.75l.45.4.41.59.49.29.41-.62.72-1.14.83-.18.45.62-.28,1.29,3.58-.26.9.26.45-.56.44,0,.42.29.37.3.28.33,1.82,2.13-.48.62-3,1.8.69.33.62-.25.69-.48.76-.26.75.15,2.35,1.39.61.7.42.26H258l1-.48.52-.07,3.17,1.21-.14.33-.24.81.86.4.52,1.07v1.1l-.69.48.2.55.42.88.07.44,0,0,.07,1.47.24,1.72.34.59.69.44.73-.07.86-.41.86-.14.65.62.11,1.25-.45,1.1-.62,1-.38,1,.62-.15.83-.41.65-.51.31-.48V72.67l0-.69-1-1.77.62-.51,1.79-.66,2.24-.11.38.33.27.66.21.66.21.29.93.33-.62.66-1.07.67-.48.11-.31.84.2.66,1,1.18,1.27.77,5.48-1.1,1.44.29,1.17.48.93,1.06.59,1.88-7.06.48-1.34.8-5.34,1.14H270l.89,1.25,1.41-.14,2.86-1.11,4.72-.62,1.48.62-.62.74L278.56,83v.58l5.41-1.1,1.34.81.72,1.8.17,1.51-.61,1.17-1.52.66,2.41,1.22v.66L284,94.53l-.93,1.14-1.48,1L276.5,98.1v.66l1.1.07,1.86-.26.86.19L283,100l.79.55-4.1,3.64-1.48.8-6.85-.22-.48-.4-.83-1.14-.2-.26-1-.51-.9-1.18L267.3,100l-.07-.73L266,98l-1.55-.58h-1.61l-1.48.66,1,.11,2.35,1.14.82.55.1.25,1.07,1.44.21.14.14,1.07-.18.7-.41.59-.62.69.79.63.45.44.17.44.24,1.18.59.66.58.36.28.26.9.59,8.36-.18,1.45.55.69,1.17-.52,1-2.62,3-1,.8v.59l2.44-1,3.06-2,2.66-.44,1.1,3.78-1.07,3.24-2.51,3.08-3,2.24-2.41.74v.59l5.06-1.44,2-1.28,1.1-.3,1.14.19.72.47,1.41,1.77,1.93,1.32.52.85-.38,1.47.69.33.13.66-.13.92,0,1.1.31,1.95v1.32l-.24,1.76,0,.88,2,4.6.69.91-.21.15-.07.07v.08l-.1.22,1,.81,1,1.43.55,1.73-.48,1.54v.55l.83.51.34-.18.49-.33.41-1.21-.72-2.13-.14-1.4-.17-.66-.42-.88-.89-1.32-.42-.78.76-1,.28-.26-.18-.77.31-.55.52-.48.38-.55.28-1.36,0-1.21-1-6.65-.21-2.75.66-1.25,1.54.62,1.07,1.58,1.55,3.75,1.48,2.13.21.59.34.66,1.72.4.69.44.38-.66-1.34-2-1.17-2.68-.9-2.87-.41-2.6-.17-2.06,0-1.43.21-1.33.21-.47.62-.85.24-.4.51-2.58.18-.55,1.51-2.16,5.68-3.27,3.1-3,.93-.36,1-.19.73-.37.17-.88.65-.07.49.26.93,1,.24,0,.62-.11.17.08.17.77-.17.22-.24.07-.14.18-.34,3.57,0,1.76.38,1.29-.59,1.5,0,1.55.55.92,1.1-.34-.51-1.61.1-1.43.65-.67,1.17.7.45.55,0,.37v.52l.17,1-.21.67-.1.58v.48h.17l.93.4.31.23.34.73.21.59.24.51.55.55.55.33.62.22.62.08.66-.08.14-.07,1-.48.45-1,.24-1.36.58-1.88-.55-.36L327.9,116l-.55-.26-1.76.11-.82-.18-.69-.59,1.69-.47,1.58-.08.65-.18,1.38-.85.72-.18.66.84-.21,3.9.73,1.29-.18-1.44.45-1,.35-1-.62-1.32.58-1.17,1.62-1.73.79-1,.17-.66.07-1.43.24-.66.48-.33h.93l1-.23-1.14-.14-.69-1.1-.07-1.22.69-.58.62-.37.52-.88.31-1.29.1-1.43L337.13,98l-1-2.1-1.23-1.61-1.21-1v-.66l1.34-.88-.51-2.57-1.31-2.91-1.9-3.12-.34-.81-.34-3.05-.31-1.47-.56-1.17-.72-.92-.86-.77.76-.85.72-1.36.21-1.43-.66-1.14,1-.66,1.2-.15,2.1.19.48-.15.93-.77.49-.3.65-.14,1.79.14,1-.4,1.8-1.65.79-.37,2.48.66.55,0,.58,0,1.07-.73.28,1.91.65,1.1,1,.66,1.21.59-.35.66.52.37.38.66.48,1.32.66,1.33,2.1,2.94.31.77.17.7.27.58.59.37-.17.26-.31.66-.18.29,1,1.18,1.28,1,.93,1.14L356.82,86l.9.62,2.72.33,2,1,.59,0,.55.07.65.74.28.26.65-.08.24.15.35.62.13.63.07.62.14.59,1.14,1.76.27.67.24,1.1.28,2.39.31,1,1.1,1.1,2.55.55,1,1.1.31-1.91.34-.66,1.55.15.21.14.69.78.34.22.59.14,1.41-.07-.45.18-.34.33-.17.41.2.7.42,0,.93-.44.51-.55.48-1.21.56-2.54.34-2.57,0-2.2-.34-2.1-.72-2.16-1.42-3.09-.13-.55-3-2.43,0-.62.21-.85.45-.69.62-.3.93-.18,1-.44.93-.74.76-1-.55-.51-.48-.7-.42-.88-.48-1.91v-.29l.21-.22.52-.74.89-.81,2.86-1.1,6.71-.84,2.38,1.32,1.24.15L393,68.93l.38-.33.42-.23.44-.07.49.07-.14.37-.21.85,1,.29,1.72,1.29,1,.18-.66-.44-.45-.48-.34-.66-.24-.84h.34v-.56l-.27-.14-.49-.37-.27-.15v-.55l.45-.62.55-2.06.34-1,.48-.56,1.76-1.1,4.48-1.21,1.61.55-.37,2.87,1-.3.65-.77,1.17-1.91-.24-.88-.13-.33.89-.55,1.38.18,2.51.92-.38,1.32-.86,1.91L410.91,65l.56,0,3.61-2.75,1.48.26,1.21,1.06,1,1.18.93.55.48.62-.58,1.44-1.42,2.24.62,0,.73-.11.69-.33.51-.51.59-.33.65.37.66.58.55.3.79.66.48,1.58.41,1.8.52,1.36-.93,2.68-.38,1.54.11.7,3.61.66,2.31,1.07,3.75.4.48.3.55.69.86,1.44,1.14.66.41.92.24,1,.45,1.18.11.4.17.26.41.15.9-.11.48.07.34.33.48,1.1.14.7-.1,2.46.21,1,.92,1.58.28.66v3.71l.14.59.45.26,1.48,1.54,2.34,1.8-.24,1.18.24,1.58.58,1.25.83.22.65-1.1-.07-1.62-.41-1.58-.52-1.07-.37-.33-1.07-.58-.28-.33-.24-1,.17-.55.25-.41.17-.51v-.81l-.14-.63,0-.62.17-1,.27-.33.86-.58.24-.3.31-1.61L448,92.62l-1.51-4.19,0-.25,0-1.25-.11-.33H446l-.37.11-.25-.08-1-1.58-.38-.29-.07-.11-.07-.18-.14-.19-.27-.07-.24.18-.42.85-.17.18-.69-.33-1.55-1.43-.51-.66.48-1.25-.21-1.21-.62-.89L438.08,79l-1-1.84-.65-.85v-.58h.38V75l-1.35-2.46-.65-4.16.28-4.15,1.34-2.57.69-.22,4.51.22.69.3,1.2.77.69.14,2.17-.14.76.14-.11.33v.11l0,.08-.24.15,1.89.8,5-.95,2.17.7.41.69.52,1.73.45.66.55.22,2-.22.86.41,1.62,1.65.93.37.69.44,2,2.24.65,1,.79,2.58.59,1.17,1.62.88.86.89,1.27,1.83,1.72,3.68.73,1.17.2-1.69-.41-1.32-.65-1.21-.55-1.29,1,0,1.14-.22,1.14-.44.89-.59-4.61.18-1.24-.73,8-.11.59.44.34,1,.72,1.65h.28l.27-.62.07-.66-.17-.63-.45-.51v-.55l.62-.41.59-.66.31-.92L482,75l.82-.63.31-.44.24-.7,0-.47-.11-1.4.07-1.14L484,69l1.27-1.18,1.48-.91,1.24-.34.55-.47.31-1.07,0-1-.21-.47-.55-.26.24-.66,1-1.25,1.38-1,3.07-.85.51-1.54,1.34.88,5.07.41,1.3.62,0,.07,1,1.55L505,65.29l0,.48V66l0,.18v.44h-.66v.59l.59.41.62.18.62-.07.58-.52-.31-.07-.76-.52,1.79-1,6.34-1.28,1.89.44-.82,0-.79.22-.76.41-.73.62.62.33.93,1.29.35-.11,1-1.8.59-.7.62-.22,1.41,1,1,1.58,1.1,1.36,1.66.26v-.56l-1.62-.84-.79-.62-.56-.67-.37-1.14,0-.88-.17-.69-1-.67,2.31-1.21,3.44-.81,2.07-1h1.17L522,61.76l-1.38,1.1L525,61.61l1.06,0,1.21.81,2,2.13,1.31.15v-.66l-1.76-1.33-.89-1-.42-1,.21-1.36.52-1.18.75-.88.9-.58,0-.41-.06-.11.17-.44.45-.7.34-.84.1-.85-.1-1.36-.34-.73-.49-.63-.82-1.36-.24-.29-.28-.18-.31-.08-.27-.33-.07-.73-.07-.81-.07-.52-1.41-.8-.35-.7.38-1.58-.17,0-.52,0,.17-.3.31-.69.21-.3-.38-.25-.24-.37-.45-1.14h1.07v-.63l-.89-.88-1-2.83-1.41-1.21.45-1.25,1-1.06,1.1-.15.28.51,0,.7.14.55.59.11.13-.4.21-.85.34-.84.69-.4,1.41-.45.8,0,0,.74-.27,1,.17.85.45.62.51.29-.1-.47,0-.41-.06-.36-.18-.52.79-.22,1.49-.92.48-.14.76.47.55.7.58.55.9.11-.73.55-.31.11.86.55.93-.11,1-.33.31-.11v-.66l.55-.62.52-.88.59-.55.06.22.38,1,.59.15.51-.51.42-1.69.45-.41,1.1-.4h1.41l2.86.88.58-.22,2.31-.73,4.27,3,2.37.7-.68.81-.8.37-.65.59L555,36.6l.52,0,.17,0v.55l-1,.66.27.25.52.7.24.3-.59.77.69.15,1.79-.34,2,.34.9-.34-.1.41-.14,1-.07.44H565l.93.26.8.59.48.8-.11.85v.55l1,2.43L566,49.78,564.82,51l-1.55.88.69,1.29.62-.48.62.26.69.51,1.65.55.17.63-.2.95-.42,1.22.8.51,3.68.11,1.76-.59.62.11.24.41.48.62h.24l.28-.18.48-.37.14,1,.31.81.51.52,1.41.48,1.52,1.21,1.62.92,1,1.25,1,.77,1.2-.77-.41-.15-.17-.19-.14-.33.86-.47.69-1,.38-1.43.17-1.73-.2-1.8-.25-1.25.35-.88,1.44-.62h6.2l3.55-.89.27-.69,0-.81.31-.7L601,48.94l.56-1.07.34-1.36.86-1.06,2-1.47,1.35-.7,4.3-.59,1.17.26,2,1.18,1.17.4ZM463.9,276.1l.38.55v.7l-.27.95-.79.85-.31.11.34-.33.24-.48-.07-.48-.41-.26-.55.08-2.21.55.14-.7,1.55-1.14.86-.4.38-.11Zm-13-248.84,1.28,1.22.38.22-.21.8-1,.52-.86-1-.1-1.47ZM337.61,299.32l.21.33.27,1-.41.92-.45.81-.51.55-.35-.29-.27-.78-.31-.66-.38-1,.13-1,1-.37,1.17-.07.1.14ZM432.26,76.53l.45.52.72,1.17v1l-.65.33-.62-.15-.41-.36-.31-.52-.11-.7L431,76.79l-.48-1.29.28-.33,1,.81Z" style="fill:#efc441"/><polygon points="668.15 772.74 668.12 772.7 668.12 772.66 668.15 772.63 668.25 772.63 668.29 772.66 668.29 772.7 668.25 772.74 668.15 772.74" style="fill:#efc441"/></svg>