<svg xmlns="http://www.w3.org/2000/svg" viewBox="0 0 800 800"><polygon points="482.94 47.2 481.91 49.9 481.91 50.78 482.53 52.43 483 53.04 483.51 53.31 484.08 53.48 484.6 53.86 484.91 54.47 485.27 55.9 485.63 56.34 486.35 56.51 487.85 56.01 488.57 56.01 489.09 56.29 489.92 57.22 491.57 58.05 492.09 58.88 491.98 59.87 491.16 60.92 490.69 63.4 491.16 65.05 491.83 66.54 492.19 68.63 491.78 70.84 490.74 72.49 488.06 75.74 487.28 78 487.85 79.6 489.35 80.59 491.31 81.03 493.69 80.92 494.77 81.09 495.7 81.91 496.37 82.74 497.15 83.29 498.08 83.57 499.06 83.57 500.3 84.28 501.43 85.77 503.24 89.08 504.07 91.06 503.91 92.77 502.47 96.13 501.64 99.27 501.59 101.2 501.38 101.42 500.4 101.75 500.09 101.97 499.94 103.46 501.02 104.84 501.28 105.06 502.52 106.11 503.45 107.1 503.55 108.42 504.02 109.19 504.69 109.8 505.26 110.68 505.62 111.89 505.77 112.77 506.03 113.66 506.91 114.59 508.92 115.53 511.14 115.36 515.38 113.71 517.29 113.88 518.63 115.53 519.41 117.84 519.77 119.94 519.98 123.91 520.49 125.5 521.94 127.32 520.08 128.48 520.54 129.58 521.94 130.68 523.02 131.73 523.38 133.5 523.18 137.74 523.59 139.67 525.91 142.7 526.85 144.57 526.53 146.39 525.61 147.88 524.67 149.75 524.26 151.63 524.73 153.11 524.73 153.17 524.78 153.17 526.07 154.49 527.72 154.71 529.38 154.16 530.87 153.17 530.92 153.17 530.92 153.11 532.27 152.73 534.8 151.51 536.76 151.51 538.41 152.12 541.31 153.17 544.1 155.7 545.08 156.31 547.14 156.69 549.41 158.73 552.88 163.64 554.84 168.38 555.77 169.59 557.11 169.92 559.95 169.09 560.78 169.26 562.02 170.09 563.57 169.98 565.01 169.26 566.87 167.72 567.65 167.77 568.42 167.99 569.2 168.1 571.62 167.28 576.43 167.5 577.92 167 579.37 166.17 580.61 165.68 581.85 165.73 584.17 166.62 584.69 166.67 585.1 167 585.46 168.87 585.77 169.54 586.24 170.03 586.86 170.53 588.36 171.19 590.01 171.13 593.21 170.42 594.61 169.92 595.9 169.04 597.29 168.38 598.89 168.54 600.13 169.43 600.7 170.64 600.54 172.07 599.67 173.56 598.48 174.66 596.21 176.09 595.17 177.58 593.99 178.68 592.38 178.9 589.44 178.74 585.67 180.72 584.12 181.05 578.85 180.89 577.3 181.44 576.32 182.49 575.7 183.92 575.44 185.52 575.44 187.06 576.17 190.59 575.96 191.85 573.69 191.14 573.33 191.14 572.97 191.25 573.64 193.07 574.46 194.83 574.77 195.22 574.88 195.6 574.77 195.99 574.46 196.32 573.89 196.81 573.48 197.37 573.27 198.14 573.33 198.96 574.31 201.61 579.11 209.27 583.29 212.96 585.1 215.06 585.67 217.76 585.46 218.09 585.1 219.02 584.17 220.13 583.5 221.28 583.71 222.72 584.74 223.49 587.68 223.43 588.82 224.37 588.51 226.79 586.91 229.55 585.88 232.14 587.43 233.96 586.81 235.06 586.03 235.5 585.1 235.67 583.19 236.27 581.8 235.94 581.07 236 579.06 237.21 577.92 238.26 576.74 238.59 574.46 237.59 573.48 237.65 572.71 237.37 571.11 236.33 570.02 235.94 569.5 236.16 568.42 237.87 568.37 238.31 568.58 239.41 568.42 239.85 567.96 240.07 566.92 240.19 566.41 240.35 565.63 241.12 565.27 242.17 565.22 243.38 565.42 244.65 566.15 247.02 565.94 248.73 565.32 250.38 564.75 252.64 563.57 254.13 561.55 253.41 560.67 252.97 559.33 252.25 557.57 252.31 557.06 254.07 557.21 256.39 556.8 258.59 554.73 260.08 552.57 260.3 551.63 260.69 550.91 261.73 550.65 262.78 550.81 264.65 550.6 265.7 548.49 268.07 547.92 269.56 549.05 270.82 549.67 271.16 550.34 271.71 550.91 272.37 551.17 273.08 551.38 274.08 551.79 274.63 552.15 275.07 552.46 275.68 552.72 277.44 552.72 279.15 552.98 280.69 553.8 281.85 554.06 282.45 554.01 283.39 553.8 284.38 553.49 284.99 553.08 285.04 551.43 284.49 546.21 284.05 543.89 283.5 541.31 282.18 538.36 281.3 538.05 283.78 538.67 287.47 538.57 290.17 538.21 290.88 537.79 291.55 537.28 292.1 536.76 292.59 532.78 293.48 532.06 294.69 534.38 302.13 535.37 304.11 536.76 305.16 538.26 303.95 539.91 303.95 541.51 304.94 542.65 306.7 543.06 308.74 542.91 311 541.92 315.35 541.51 316.18 540.48 317.89 540.32 318.71 540.69 319.76 541.25 320.53 541.67 321.31 541.67 322.35 540.89 323.34 537.85 325.82 536.76 327.04 534.9 328.63 534.08 330.67 533.4 332.93 532.27 335.47 531.65 336.13 530.87 336.63 529.27 337.34 530.82 339.55 532.58 340.48 534.54 340.65 536.76 340.26 536.92 340.32 537.07 340.37 537.23 340.54 543.94 352.72 544.97 353.82 546.11 354.81 547.14 355.86 547.66 357.4 547.97 359.22 548.49 360.82 549.26 362.25 550.29 363.74 551.43 364.9 554.99 367.43 555.25 368.15 555.51 368.81 555.51 372 556.02 372.67 557.32 372.33 558.56 371.51 560.78 369.36 562.12 368.81 565.79 368.75 567.44 368.31 567.13 371.12 568.47 372.45 570.07 373.55 570.59 375.53 569.66 376.91 566.1 379.11 564.91 380.66 566.2 381.76 568.42 382.25 570.74 381.98 572.14 380.66 572.5 380.44 572.86 380.38 573.27 380.44 573.38 380.49 573.64 380.66 573.89 380.77 574.1 380.99 576.63 384.13 577.51 385.67 578.13 387.38 578.34 389.25 578.39 390.74 578.75 392.06 581.28 394.49 584.28 398.73 586.7 400.66 587.74 401.76 588.41 403.25 588.46 404.19 587.99 405.9 587.94 406.67 588.25 407.5 589.13 408.05 589.18 408.87 588.67 410.03 587.63 411.3 585.57 413.34 583.97 414.49 582.78 414.77 581.49 414.66 579.83 414.82 578.34 415.65 578.23 416.75 579.32 417.63 582.62 418.02 584.02 418.63 585.1 419.62 585.57 420.83 585.05 422.37 583.91 423.53 582.67 424.58 581.75 425.68 583.35 429.26 587.79 429.81 596.67 428.82 604.68 431.3 612.22 434.88 614.33 437.03 621.36 441.11 621.62 441.28 625.13 444.09 630.03 447.06 633.18 450.64 655.91 470.54 658.34 472.3 660.61 473.51 662.99 474.01 665.67 473.74 666.96 473.24 670.42 471.31 671.51 471.42 675.79 472.85 677.39 473.74 678.38 474.84 679.2 476.21 680.44 477.87 682.46 479.41 682.92 480.07 683.02 481.06 682.77 481.67 682.3 482.17 681.68 483.82 681.37 484.15 681.37 484.59 681.84 485.8 682.2 486.36 684.47 488.5 684.78 489 685.09 489.5 686.43 491.31 686.9 491.87 687.62 492.2 688.03 493.35 689.53 494.46 689.89 495.61 689.79 496.88 689.38 497.76 688.91 498.53 688.65 499.53 688.5 500.74 688.55 501.45 689.07 501.84 690.25 502.23 691.24 502.83 691.86 503.71 692.48 504.49 693.66 504.65 695.11 505.26 695.26 505.48 696.4 507.13 698.11 510.99 699.24 512.31 701.88 513.63 702.65 515.23 703.01 516.77 705.7 521.68 706.21 522.4 707.56 523.28 708.13 523.83 708.59 524.6 708.95 526.2 709.21 526.86 710.45 528.24 713.39 530.5 714.43 532.04 714.63 533.97 714.22 535.95 702.7 567.48 702.55 582.74 702.24 604.18 727.03 604.18 727.85 604.67 728.11 605.83 727.85 648.49 727.96 651.18 735.96 652.34 736.79 652.62 737.56 653.11 738.86 654.49 739.78 656.25 740.46 658.13 741.08 662.04 741.44 662.87 742 663.53 742.88 663.91 743.76 664.08 744.69 664.02 747.43 663.53 748.36 663.59 749.29 663.91 750.01 664.52 751.51 667.11 753.94 669.92 756.88 672.62 757.4 673.39 757.76 674.28 757.91 675.21 757.71 676.15 757.19 676.92 756.47 677.58 755.85 678.3 755.69 679.29 755.85 679.9 756.78 681.94 758.27 683.7 758.74 684.58 758.95 684.75 760.29 689.1 760.44 690.26 761.12 691.97 761.48 692.57 761.94 693.07 763.03 693.89 764.11 694.61 766.49 695.27 767 695.55 767 695.99 768.81 695.93 769.12 696.82 768.19 697.86 766.23 698.36 758.02 697.53 752.23 695.49 749.55 693.45 746.91 692.63 742.73 689.98 739.42 688.82 735.91 688.16 732.71 688.11 729.82 688.88 724.6 691.75 724.08 689.43 723.83 686.78 723.31 684.3 722.02 682.65 722.95 685.52 723.05 686.62 722.84 687.78 722.53 688.82 722.48 689.76 723.05 690.53 723 692.63 706.68 684.3 702.34 683.48 682.87 683.48 678.53 683.98 666.34 689.1 662.42 691.8 659.84 695.55 653.38 712.19 650.64 717.43 650.23 718.69 649.97 721.34 649.76 722.22 648.32 725.53 642.69 735 640.42 740.96 639.28 742.72 634.48 748.07 629.73 756.17 618.41 769.06 616.19 771.6 612.89 772.31 609.58 773.03 608.29 773.31 606.28 773.75 603.02 774.46 595.07 773.69 589.29 773.2 583.55 772.64 577.82 772.09 572.09 771.6 564.34 770.88 556.59 770.16 548.85 769.45 541.15 768.73 533.4 768.01 525.66 767.3 517.96 766.58 510.21 765.92 504.17 765.37 498.18 764.76 492.19 764.21 486.15 763.66 479.28 763.06 478.76 762.84 478.3 762.67 477.83 762.45 477.31 762.28 471.53 757.54 464.35 751.65 457.17 745.7 449.94 739.8 442.76 733.9 434.14 726.79 425.46 719.68 416.84 712.58 411.88 708.5 408.21 705.47 399.54 698.36 390.91 691.25 382.29 684.14 373.61 677.03 366.95 671.52 360.33 666.01 353.67 660.55 347.01 655.04 339.06 648.49 339.06 648.43 339 648.43 333.32 643.47 331.88 642.2 324.7 635.92 317.57 629.64 310.44 623.3 304.04 617.73 297.69 612.17 291.28 606.6 284.93 601.04 279.92 596.63 273.21 592.61 266.6 588.64 259.93 584.67 253.32 580.7 246.71 576.73 240.1 572.77 233.49 568.8 226.88 564.77 220.27 560.81 213.61 556.84 207 552.87 200.38 548.9 193.77 544.88 187.16 540.91 180.55 536.95 173.89 532.98 167.28 528.95 159.53 524.27 155.35 521.85 151.27 520.25 125.55 515.23 125.5 515.23 119.45 514.18 104.53 511.6 89.65 509.06 74.73 506.47 59.8 503.88 59.6 503.99 59.39 504.05 59.13 504.1 58.92 504.21 58.92 503.49 68.01 495.72 69.92 492.91 68.32 486.85 67.24 484.1 65.69 483.21 51.38 487.18 50.61 486.74 50.04 485.36 46.37 472.52 46.27 472.36 46.22 472.25 46.27 472.19 46.37 472.19 52.21 470.32 47.15 451.58 43.59 438.41 40.13 425.68 37.54 416.09 34.39 404.57 30.88 391.73 39.2 386.72 47.56 381.7 55.93 376.74 64.24 371.73 72.61 366.71 80.93 361.7 89.29 356.74 97.61 351.73 105.97 346.71 114.29 341.69 122.66 336.68 130.97 331.67 136.4 328.41 139.34 326.65 147.65 321.64 156.02 316.62 164.39 311.61 175.44 304.94 193.98 299.98 196.15 298.55 197.91 296.12 200.59 290.17 200.59 290.11 213.56 265.2 214.18 262.94 214.38 260.57 213.71 244.65 213.3 229.6 213.25 227.51 213.97 221.94 217.12 210.65 217.79 201.72 218.46 198.96 218.51 198.96 222.08 193.67 224.61 189.87 225.79 187.12 226.21 184.25 225.9 171.63 225.54 168.6 224.71 165.68 218.88 153.11 216.96 148.65 216.65 147.05 216.65 145.51 219.08 122.42 219.7 119.94 226.36 107.15 226.36 107.1 227.86 105.06 230.08 104.07 234.99 103.24 258.38 98.33 260.45 97.34 262.46 95.69 272.64 85 287.72 69.13 295.47 60.92 295.52 60.92 300.32 56.4 302.65 54.63 302.7 54.58 302.65 53.26 302.23 52.21 301.66 51.27 301.2 50.17 304.56 49.78 308.89 48.41 315.35 47.3 316.59 46.81 316.85 46.26 317.78 43.78 327.23 30.22 327.54 29.45 327.59 28.84 327.75 28.18 328.21 27.41 328.73 27.08 332.45 25.59 333.12 25.54 334.05 25.65 334.67 26.14 335.03 27.74 335.65 28.24 341.9 30.22 344.94 30.66 348.15 29.61 350.06 28.18 352.95 26.97 356 26.14 358.37 25.98 359.66 26.31 369.58 31.54 370.1 31.76 370.72 31.82 371.39 31.71 372.06 30.99 372.73 30.72 374.13 30.5 375.06 30.66 377.02 32.2 378.05 32.98 381.15 34.47 384.66 37.33 385.85 37.83 386.83 37.66 388.69 37 389.62 36.83 390.6 37 391.22 37.33 392.62 38.32 394.52 39.09 396.33 39.31 404.08 38.82 406.04 38.98 407.85 39.42 408.57 39.92 410.23 41.52 410.74 41.85 411.72 41.63 413.07 40.25 417.1 39.53 419.42 36.89 421.64 33.69 424.43 31.38 427.84 30.88 430.37 31.27 431.76 31.54 439.05 34.47 440.75 35.57 441.99 36.83 442.87 38.43 443.49 40.53 443.9 42.56 443.95 43.72 443.85 44.66 443.23 45.71 442.5 46.09 441.63 46.2 440.7 46.81 439.41 48.41 438.79 50.28 438.74 52.27 439.3 54.19 442.3 60.92 442.81 61.85 443.49 62.41 446.64 63.23 447.57 63.18 448.29 62.46 448.96 60.92 449.01 60.92 450.15 58.93 450.41 57.5 451.03 56.45 457.43 54.36 459.44 53.31 461.31 51.82 463.11 49.56 465.85 47.03 468.74 44.94 471.17 43.83 472.56 43.78 480.52 44.88 482.01 45.6 482.94 47.2" style="fill:#efc441"/></svg>