<svg xmlns="http://www.w3.org/2000/svg" viewBox="0 0 800 800"><path d="M532.63,79.19l-2.57.89-1.2,1.27-1.1,1.37-1,1-8.63,1.18L516.56,86l-1.38,1.28-3.76,5.09.55,1.77-.37.29-.73.2-.55,1.47.82,5.09-.18,1.57-.92,1.37-.27.29-2.57.88-1.2,1.28-.46,2.35.55,5V116l-1.37,4.21-2.11,3.53-9.74,10.39-.82,2.64-.28,5,.46,1.47.73.68v.39l-1.83.69-1.38-.1-2.48-1.17-4,1.07-4.59-1.17-2.39,1.27-4.68,3.92L467,151.1l-4.59.3-4.41-2-3.85-2.94-1.84-.1-4.59,4-6.61,2.84,2.2,1.57.83.39-1.1,3,1.1,2,2.29,1.27,2.3.59,1.1.59,1.38,2.54,1,1h1.19l2-1.37,1-.2,1.84.89,4.31,3.33,2.11.68,2.3-1,2-1.27,1.47.29.37,3.92v.1l-5.6,1.57-13.32,11-5.14,1.67-5.23-.1-10.19-2.06-2.85,2.65-2.76,3.52-1.65,2.84-.64.89-1.56,1.17-3.31,1.67-7.07,1.86L409,199.4l-.73.3,1.74,1.37.37,1.57.28,1.57,1.28,1.66,3.22,3,5.69,7L424,218.7l3.4,1.47,3.95.1,2.84,6.17,1.75,2.85,2.29,2.15,1.2.39,1,.39,5.23.69,2,1.27.92,3.14.46,8.72,1.83,3,2.57,1.37,7.35.88,8-.39,2.38.29,9.74,6.27.91,1.27.19,1.77.46,1.66,1.56,1,14.32,2.94,2.94-.59,5.51-3.72,3.3.2-1.47,1.76.46.3,1.38-.2,1.1.29.92,1.67.28.88.64.1,1.93-.39,6.52,2,1.47-.2h.82l-3.12-5.58v-1.28l1-1.08,4-2.05.46.49-.37,1.47-.18,1.76v2.25l-.19,1.77.56.78,1.83-.88,1.2-1.18,1-1.66.36-2.06-.64-2,2.66-1.08-.18-1.07-1.29-.89-.64-.78.83-2,.82-1.37,1.11-.88,1.56-1.08,7.34-1.67,2.85-1.66-.83-3.23,1.84-2.26-4.78-3.43.83-2.74-4.5-2-.37-2.06.65-.19,1,.29.73-.78H540l1-1.77v-.19l-.36-.3-.55-1-.28-1.17.18-1,.37-.2.55-.19,2.3.39,1.1-.1,4.41-2.84,6.52-8.92,3.94-3.23,4.23-.39,4.5,2.06,8.35,6,.92,1.28,1.19,3.33,1.11.59,1.56.09.91.79,1.29,3.13,1.56,3.63.18,2.94-1,2-2.38,1.07,4.77,2.16,1.2,1.17.64,1.57.46,2,.73,2,2.21,3.14,2.66,2.64,2.84,2.16,2.94,1.56,1.56.1,1.11-1,1-1.27,1.46-.78,1.57.19,1.46.78,2.76,2.06,1.93,2,1.1,1.08.82,3.53-1.28,3.62-3,3.33,1.47,2.26-.19,2.25-2.11,4.6,2.11,1.47,3.59,3.82,1.83.89.74-.4.82-1.07.65-.89.64-.68,1.1-.1,2,.69,1.1.09,11.48-3.62,3.67-.2.09.4.55.78.83.88.83.59.92-.1,3.48-1.08,3.13-.39.91-.68.56-1.67-.1-1.67-.27-1.47.18-1.27,1.75-2.55,1.1.1,1.1,1.37,1.56,1,1.75-.29,1.92-.88,2-.2,1.93,1.37,8.45,7.16,2.11.88,1,.68,1.93,2.75.73.58,2.94.3,1.1.39,1,.59L685.5,288l-.46,2.45-4.4,4.51-2.3.78-3.3-1.08-3.22-1.76L670,291.6l-1.93.29-9.37-3.53-7.07-.88v1.57l1.66.88-.83,1.86-1.65,2.65-.92,3.23-.74,5.78-.09,3.53.83,3.43,2.94,3.52,4.5,2.06,9.91,1.18v1.47l-1.38,3.42-.18,3.43,1.38,3,2.94,2.06-2.76,2.74-.64,5.19.37,5.1.55,8.62.64,2.94.92,2.74L670,360l1.37,1.08,2,1.17,1.38.88,2.39,4.8,3.67,2.16,3.95,1.67,2.75,1.76,1,1.76,1,2.55.28,2.94-.83,2.74-2.29,3.14-.65,1.27-.27,1.57-1,1.66-1.56,3.53-1.2,1.47-1-2-2.38-.39-2.67.88-2.2,1.47,8.63,3.53.64,2.15.46,2.35,1.29,1.38-.46.58-.92,1.47-.46.59,2.21,1,5.51.29,2.38,1.38-1.47,3.52-1.65.1-1.84-1.37-1.92-.88-.55-.49-1.66-1.86-.55-.4-1.28.2-2.3,1-1,.2-7.8,5.38-.37,2.06.92,1.67,3.12,2.84,2.66,3.43,1.75,1.37,3.76.78,1.38,1,1,.3,1.65.68v1.57l-.64,1.57-.46.78-.18,4.31.27,2.65.74,2.84L688,446.1v.09l1.56,1.67.83,2.15-.92,3.43,1.75,2.35,4.59,8.43-.19.69-.09.19-.09-.1-.46.4.55,3.23-.18,4.7-.74,4.61-1.1,2.84-.55,3.13,1.84,3,5.6,5.58.37,1.47-1.75.69-.73.78L697,499.1l-.73.88-1.47,1.27-4.5,9.31,1,1.37-5.79,4.8-1.56,1.86-1.47,2.75-3.21,9.21.83,4.31-.46.88-2.3,4.8-6.33,9.8-.65,3.62.1,2.84,1.37,5.49.37,2.94-.37,8.23-1.74,3.43-8.17,11.75-2.39,2.65-2.2,1.08-2.12,2.54-3.12,4.9-1.19,3-.09,3.53.18,3.33-.18,2.54-.92-1.47-1.1-.88-1.2-.39-7.8.59-2.76-.79.74-3.52-1.19.39-1.11.59-1.1.78-1.1.88v1.18l2,.68,1.93,1.47,1.47,2.16,1,2.55-.83,2,4.22.88,1.2,1.57.73,2,1.66-1.66,3.21-4.7v1.17l-2.3,4,2.76,4.41,6.88,6.07-3.85,8.43-1.75,2-1.37,1.18-.92.39L648,644l-1.74-1.18.27-1,1-1,1.2-2.35-.19-.78-1.56-.2-.82.39-1.11,1.47-1.65,1.28-.27.29-.37.2-5.88.09v-1.17h2.76l-1.84-1.47-1.38.1-2.29,1.37-6.34,1.17-5.69,2.94-2.39-.29-3.49-3.23-2.38-1.18-10-2.65-9.46,1.28-2.57-.59v-1.47l2-.78,1.93-1.67,1.38-2.35.27-3-1.65,2.06-2.3,2-2.57,1-2.66-1.08-.92,1.28.19,1.47.18.68v.59l-.37,1.37,1.47-.88.46-.59h.83l-.46,2.84-.37,1.08-1,1.27.92.1.92-.1v1.37l-.46.1-.92-.1h-.46l1,1.38-9.73,5.19-1.38,1.27-1.47,2.35-1.84,1.67-2.29-1.27,1.28-2.36,1.57-1.17,1.74-1,1.47-1.47.09-1.86-2.39-7.84-.73-1.27-1.38-1.86-1.56-1.57-1.38-.69-1.47-1.27-2-6-1.65-2.06.37,2.26.37,2.06.18,1,.09,2,.37.89,1.84,3.23.45,1.86-1.65,4.8.28,1.86,3.3-.1V644l-2.11,1.47-3.86,4.8-2.29,1.56-3,.59-6.06.2-2.85.59.83-2.16,3.76-4.51-2.93-1.07-1.66-.3-1.92.2v1.17l.82.59.37.59.27.69.46.78-1.37-.2-1.75-.88-1.1-.19-1.65.49-.92,1.07-.55,1.37-.92,1-2.66,1.08h-2.48l-5-1.08-25.71,2.45-9.27,4.41-5,1-.64.49-.56,1-.64.88-1.38.3-.91-.79-.55-1.37-.46-1.27-.37-.49-2.39.59-2.48,1.66-1.65,2.55.46,3.13,1.38-1.47,2-.29,2.48.59,3.94,1.66,1,.2.19.78-.74,2.35-4.22,2.75-.55,5.78-.46,1.37-1.1.39-1.38.2-1.1.78-2.48,1.37-7.16-.68-2.76,1.27-1.1,2.65v2l-.83,1-14.23-1.77-.36-.78-.28-1.77L453.3,683l-1.56-.88-.18.58-.19.4-.18,4.5-.37,1.67-1.74,2.55-1.93,2-2.3,1.27-2.75.2,3.95,3.23,1.56.49-1.38,2-3.12,1.17-5.51,1.08-7.07,2.74-2,2.36,2.57,2.54-2.2,1.18-10.1,1.86-5.15,1.76-8.44.79-3.68-.3-1.56.1-1.37-.19-.55-.69.36-1.27.92-1,1.1-.69,1.29-.29-.28-.79-.64-1.76,1.93-.29,1.83-.69,1.84-1.18,1.75-1.76-.83-.39-.74-.49-.82-.3-1.29-.09,1-2.45.65-.79,1.1-.68-.65-1.67-.91-.39-1,.59-1.2,1.47-1.74-1.08-2.76-.49-5.5.1v-1.18l-1.11-1-2.29.49-2.48,1.08L385,699l-5.51-.3-2.66.4-2.76,1.37,4.41,1.47,5.69.68,3.31,2.26-2.48,6,5.05-.39,1.56.39v1.28h-.92v1.37l1.19.88.56.29-1.93.4-.83.49-.92.58h4.69l-2.3,3.14-.46.68.18,1.08.56,1,.36,1.08-.64,1.47-4.41,4.41-1.47,2-3.58,1.76-5.05,1.08L375,734.91l-1.74,2.16-.83-2.16-1.93-1.66-2.11-.69-1.65.49,2,1.37.64,2.16-.64,2.06-2,1.07-.92-3.82-2.94-1.37-6.15-.1v1.18l1.38.78,2.75.2,1.38.49,1.28-1.27.74-.2.64,1.47-.28,1.08-.91.88-1.11.49-.82.19-2.11,4.61-.37,1.17.18,2.06.65,2.94.18,2.16-1.65-1.38-1.93-3.82-1.93-1.27-2.2-.2-6.52,1.57L330,746.18l1.93,1.86,2.29.69h4.87v1.47l-.92.49-.82.78,2.75,1.18-1.47,1.17-.83,1.37-.18,1.77.64,2.15-5.05-.59-1.19.79-1-.69-.92-1.27-1.1-.78h-5l-1.38-.3-1-.59-.91-.09-.83,1-2.75-1.08-1.93,2.15L313.83,761l-1.29,2.16-4.77,1.47L307,765l-.56,2.06-1.19-.49-1.19-1.37-.28-.89-.92-.39-2.66-1.76-1.56-.39-1.56.1-2,1.07-7.35,1.37-1.74-.49-3-1.66-1.65-.39v1.37l.55.29,1.19.88-1.1,2.26-1.65,1.57-2,1.07-2.11.3-3.4-.79-1.1.3.36,2v1.17l-1.92.1-.92,1.18-.65,1.56-1.1,1.18-1.47.1-1.19-.49-1.29-.39-1.56.78-.09-1.27-.27-1-.28-.79-.27-1-3.68,2.06-.36,1.67-.74.29-1-.1-1.19.78-1.56,1.28-1.84.59h-4.32l1.57-.89,1.19-1,1-1.37.92-2-1.93,1.28-1.65.59-.46-.59,1.19-2.65,1.38-1.66,3.4-2,1.65-1.47-.46-.39-.09-.2-.19-.2-.27-.58-1.1,1L248.18,769l-.55,1.08-1.29,1.27-2.75,2.15-1.65-1.86.18-1.86.92-2.06.55-2.74-.92-1.18-2.2-1.07-2.39-.3-1.83.69,1.19,2.25-3.86,1.67L224,768.91l-.46.78-.18,1.86-.55.59-2.3-.1-.91.1-2.57,2.16-1.57.59H213.2l-.18-2-1.66-2.06-1.83-1-.92,1.66-7.35,5.88.92.88.37.3.55.1L194,782.63l.37-2.06-1.2.39-3.85,3.13-.92-1.46-.92,1.46.18-2.44.28-.89.46-.88v-1.17l-1.19-.3-.56-.49-1-1.76,2.94-.78,2.39-1.57,4.87-4.31,2.38-1.47,4.69-1.08,2.93-1.27,2.39-1.77,5.88-6,2.57-1.67,4.77-2,2.85-1.66-6.24-.59-25.9,11.66-8.35.58,5.69-3.23,1.19-.49,1.29-.78,1-1.86,1.19-1.77,5.24-1.66L216,746.67l1.84-2.55,4.32-.49,5-2.35,4.86-1,3.95-1.57.28-3.13.64-.88.64-1.18.55-.49v-1.27l-1.93-.79L234,732.07l-2.2.79-3.12-2.16-1.2.1-.55-.3-.09-.68.28-2.45-.19-.78-.82-.79L225,725l-1.37-.69-1.29-.49.55,2.55-.18,1.76.09,1.57,1.47,2.06-2.76.68-1.83,1.18-3.67,3.43-2.67,1.47-2.84.78-8.73.79-4.68,1.76L180.24,744l-5.51,2.16-2,1.37-.19.49-.09.79-.09.68-.46.69-.73.39L162.7,753l-3.21,2.35-1.56-.2-2.58-1-1.37-.29-6.15.69-3,1.27-2.39,2.06-.92-1.37,1-.69.28-1.08.09-1.17.46-1,.82-.49,9.18-2.26,2-1.17v-.79l-.18-.19h-.27l-.46-.2.55-2.35-1.1-1.37-1.93-.59-2.11.2,1.74-2.35,2.85-.59,5.51.39,2.93-1.08,6.25-5.39v-1.37h-5.51l2.29-3.52,4.23-2.85,4.68-2,3.49-.79-.37.88-.73,2-.74,1.08,2.39-.39,2.2-1,1.56-2,.28-3.13,1.74,1.07,2.39.3,5.14-.1V721.3l-1.1-.2-2.66-1.18v-1.07l1.84-1.08,3.39-3.53,2.66-1.37,1.57-2.55.73-.78,1-.2,3.49.2,4.41-1.18,7.8-3.92,4.32-1.27V701.7l-9.74,1.18-14,4.7L193.27,709l-1.1,1.27-.82,1.18h-4.5l-2,.69.82,1.37-4,2.25-1.46.39.27-1,.37-2.15.27-.88h-1.92l-1.11.78-.73,1-.83.78-1.56.49-3.3.49-1.56.49-5.79,4.12-3.12,1.17-3-1.47-2.76,2.65-3.3,2.45-3.58,1.86-3.31.88.83-2.45-12.76-5.39,5.14-1.37,1.28-4.6-2.29-4.9-5.42-2.25-1.56,1.07-3.4,4.51-1.56,1.08-1.56.78-4.22,3.43-2,1.18-.74-2.45,1.56-5.59-.82-2.54-1.93-.4-2.75.2-1.75-.29.92-2.16v-.88l-.37-.3h-.37l-.18-.09.28-.69.27-.49.28-.49.09-1h-.46l-.92.1-.46-.1v-1.27l4.41-.49,11.2-3.53h2.3l1.1-.59.46-1.37-.09-1.27-.46-.59-1.93-1-1.19-2.16-1.29-2-2.57-.3V686l1.56-.89,3.31-1,1.65-.78-1.1-2.84,2.84-1.27,3.77-.69,3.39-2.16,8.54-3.52,12.77-2.45,5.41-2.84,2.94-6.47h.92v3.43l1.28,1.47,1.84.39,1.93-.1-.46-1.76,2.85-11.36,4.13,2.25,4.22.2,10-1.18-1-.78-1.1-1.28-.74-.59,4.69-2.64-26.72,1.37,1.74,3.92-.82,2.15-.65.89-.73-3.14-1.29-1.27-1.83-.79-1.93-.49-4-.29-18,4-3.21,1.76-1.47-1.08-1.29-1.86-1.46-1.17-1.38.49-.83,1.17-1,.49-3.49-3-1.47-.09-3.76,1v1.27h1.28l1.2.29,2.2,1v1.18l-3.4-.49-6.42-2H114l.09,1.27.46.59,1.37.59-2.93.1-5.24,2.25-2.94.39-3.21-1.08-.92-2.35-.18-3.23-1.2-3.82,1.11-.59,2.57-2.06v-1.17l-1.47-1.57,1.56-1.66,2.94-1.47,2.48-.59-.92,2.54,2.94,2.26,1.65.49,1.38-.69.36-1.57-.46-1.27-.09-1.37,1.56-1.76-1.37-.89-.55-.29,1.28-2.94,1.56-.78,2,.1,2.57-.49,1.56-1.47,2.94-4.12,1.47-.88,14-3.63,2.11,1.57-1.56,7.35.18,1.18,8.82-1.28,3.94-2,3.58-3.43,1.2-4.11-3.22-3.72,4.69-.1,1.47.78-.55,2,.55,2.84.18,2.94.46,2.45,1.93,1,2.2.29,4.13,1.77,4.5.78,5.6.1,1.93-1,2.76-3.14,1.56-.78,1.65.59-.92.59-.83.78,2.21,1.18,9.73-1.18-2.2-2-1.84-.49-4.22-.1-4.41-2.15-2-.49-2,1.37-1-1-.73-1.18-.56-1.47-.27-1.76,1.65,1.37,1.2.79h1.46l2-.89-1.74-.88-.83-.29-1.19-.1v-1.37l1.38-.1,3.39-1.17-1.56-3.14.46-9.4-2.2-2-7.07-1.18-3.77-1.66-2.47-2.36,2-1.76,2.57-.78,9.09-.59L197,590.7l1.84-1.37,1.92-2.65,2.3-1.17,3.58.1,3.49.78,2.2,1.08-.55-2.65-1.56-1.27-2.11-.39-2.3.19.83-1,.28-1-.28-1-.83-1v-1.37L207,577l.27-1.17-.37-2.35.55-1.28,3.13-3.43.73.59.83-.49,1.1-.88,1.38-.49,5.51,1.27h10.65l1.1.49L233,570l1.38.39,1.38-.88.91-1.28.92-.58,1.1-.2,10.2.3h.45l1.11.29,2-.78,8.54.19,4.77-.88,2.11-.78,1.84-1.67,1.93-1.18,16.34-4.6,2.48-1.47,1.1,2.16,2.39.49,2.75-.49,1.93-.79.83-1.08.82-1.86,1-1.66,1.56-.69,23.42-2.64,4.59-1.38h-2.48l-8.72-3.13-4.41-.78-8.82,1.17-2.2-.29-1.56-1-.09-1.18,1.65-1.37v-1.27l-.55-1.67.18-2.35-.27-2-2.11-.78,1.19-1.57,1.47-2.45,1-1.08-3.49.79-4.22,2.05-3.12,2.55-.37,2.45-4.32,7.25-11.84,14.11-2.57,1.17-11.94,1.18-.73.59L260.48,564l-1.28.89-1.65.19-1.75-.19-1.56-.49-1.38-.89L255,561.8l2.93-1.67,2.21-2v-2.55l-4.32,2.25-9.73,2.75-6.89.19-2.84-.49-2.57-1-1.2-1.66-.92-1.08-4.59-.59-1.74-1.66.64-2.94-1.47-1.08-4.86.1v1.27l1.19.39,1.1.79.83,1.17.64,1.57-10.19,4.11-6,1.18L204.38,562l-1.28,2.16-.46,2.74-1,.3-1.19-.69-1-.39-3.49,2.35-24.06,2.94v-1.18l2.48-1,5.69-3.62,6.89-1.67,27.18-22.82-.37-.69-.55-2,1.47-.59,1.93-1.37,1.28-.68,1.75-.49,4.22.49,1.47-.2,2.48-1,1.47-.29,1.37-.79.56-1.76.36-2.25,1-1.77-.64-.78-.09-.1.37-.29.36-1.37-1-1.38,1.47-.78,1.47-1.18,1.38-1.56,1.19-1.77.83-1.76.37-1.47.55-1.27,1.1-.79v-1.37l.27-2.55,8.27-7.05,1.56-3.72-2.57-.69-10.47.49-3.58-1.08,3.86-3.33,1.56-1.86,3.94-5.78,1.29-1.47,1.47-.78-1-1.37,7.16-12,2.94-2.74,2.2-3.23,1.84-4.12,2.29-3.43,2.85-1,3.21,1.57,6.25,5.19,2.94,1.18,2.57-.88,2.75-1.57,3-.69,3.21,1.67.37-3.13L286.19,458l-5.87-1.67v-1.47l7.8-1.37,2.11.79,4.14,2.94,2.57.29v-1.18l-5.6-2.84v-1.37l3.12,1.18,1.74.29,1.56-1.57,1.56-.58,1,.19-.73,1.86,1.38,1.67,1.37,1.17,1.75.79,1.93.39-1.2-3.92-.64-1.47-.92-1.27,1.75-2.94,2.11-2.06,4.5-2.94h-1.47l-2.48,1-1.2.2-13.22-.39-1.92-.79,2.38-1.27,6.06-1.37,2.66-.1v-1.37h-3.76v-1.18l1.29-1,3.48-.88,1.75-.78v-1.37l-10.65-1.28-2.76.39-4.59,1.77-43.52,3.13-4.22,1.86-2,1.28-3,.68H228.9l-2.85-1.17-1.56-1.77-1.19-1.86-1.75-1.66,2.58-3.43-1-2.26-2.3.1-1.19,3.53-.65,4.21-1.56,2.55-2,.29-2.2-2.35V436.1l2.57-4-1.1-8.82,2.66-1.67.46.2,1.38.88.92.1.55-.39.91-1.77.37-.49.37-.68-5.42-4.61,1.47-1.47,5-2.54-4.87-.2-2.38.39-2,1.18,1.74,2.35.28,3.33-1.2,2.84-2.57.88L210,419.45l.64-3.63,1.28-3.43-.09-1.56-.73-.4-.55-.68-.55-.3-.83.69-1.84,2.06-1.65.68-1.1,1.47-1.47,3-3.21,5-2,2.25-6.43,2.55h-2.11l-2.3-2.26-2.57-2-5.88,1.18-2.11-1.37.55-.69.74-2.54.27-2.16.46-1.47.92-.69,1.19-.29,1.84-.1,2.2-.59,5.51-3.23,2-1.57v-1.27h-4.68v-1.47l2.85-1.17v-1.38h-2l-1.47.59-3,2,.09,1.47-1.74,1-2.12-.2-.73-2.25.73-1.66,2.67-1.67,1.1-2-1.75.29-1,1-.91,1-1.29.49-1.29-.39-1.1-.68-1.19-.1-1.56,1.17-.37,2,.37,2.16.09,1.86-1.47.69-1.56.29-2.2.88-5.33.1-1.74-.39-1.56-.88-1.38-1.57-.83-1.77-1-1.37-1.83-.58-5.42.78-3.22-.2-1.92-2-1.11,1-1.1.4h-2.48l1.2-3.14,1.47-2.16,1.92-1.17,2.85-.29,5.14.88,2-.2,2-1.86v-1.47l-1.56-.2-1.28-.78-1-1.27-.74-1.77,2.94.49,3.31,1.28,2.66.39,1.19-2.16-2.66.3-5.05-.88-5-2-2.85-2.75-.09-1.27-.83-2.35-1.1-2.16L142.87,380l-3.86,1-1.56.2L136.07,380l3.13-2.25h3.12l3.21.88,3.4.2-.28-.88-.46-2.26-.27-.88,6,.1,6.06,1.37.73.79,2,2.93,1.29-.48,1.83-2.45,1.47-.79-8.17-4.7-2-2.35,5.14-1.08,10.38.88,3.85-.88,4.59-2.55,1.84-.09,1.38.49,2.84,1.76,6.43,1,10.47.68v-1.27l-2.3-1.08-9.36.79-5.79-2L175.65,360l-1.93-8.72.82-4.21,1.47-3.14.83-3-1.19-3.52,1.28-.79,5-.88,3.67-1.17,3.22-.3,1.38-.49,1.37-1.17.83-.1,2.66,1.47,1.56.59,24.88-3.92v-1.37l-2-.4-5.41-2.35.73-.39.55-.39.65-.39.82-.1v-1.37l-.55-1.67,1.38-1.76,4.68-3.23-1.1-.1-2.48-1.28,1-.78.83-1.27.55-1.47.36-1.86-.91.19-.55.2-.56.29-.73.69-3.86-1.28-19.09-.09-13.23,6.46-7.25,1.47-4.5-4,1.65-1.07.92-5.49,2.21-1.47-.37-1.76-.09-.88.46-1.38V301.1h-1v-1.37l6.42-1.47,1.2.49,2.94,1.86,1.83.49,1.56,1,.55,4.6,1.56,1.08,1.2-.59-.09-1.66-.19-2.16.55-2.25-1.28-1.18-1.1-1.47-1.29-1.17-1.84-.3v1.28l.83,1.47-1.56-.49-.92-1.37-1.56-4.9.09-1v-.79l-.64-1-.83-.19-2.29.29-.46-.68-.46-1.28-.92-1.08-1-1.56-.46-2.94.65-2.94,1.46-.88,1.75-.49,1.56-1.77-1.84-.78-.09-1.08,1.2-1.17,1.74-.89-1-1.37,3.76-2.74-1.28-1-1.56-.1-3.49,1.08.37,1.57-.19.68-.73.3-1.38.19v1.37h.92L174.45,277l-3.76.68-3.4-2.45-2.75-5.09h2.66l6.06-1.47,2.39-1.27-4-2.65L170,262.89l-.82-2.35.92.49,1.83.59.83.39-1.65-2.26-4.69-4.6,1.84,1.18h1.56l1.29-.79.82-1.66-6.88-5.1-3.13-1.08L160,249.86l1.92,2.06-.82,1.66-2.21.79-2.57-.49,1.2,2,.64.68v1.37l-1.93-.29-1.65.39-2.85,1.37v1.18l1.75.59.64,1.17.37,3.72-1.2.1-2.57,1.28,1.75,1.07,1.65,1.87.37,1.66-2.3.78-2.57-.19-1.93-.78-1.28-2-.19-3.83.83-2.25,3-5.58.64-2.35.46-3.53,1.1-1.57,1.56-1.27,1.56-2.45-4.22-.1-1.65-.78-1.56-1.67h2.57l1.19-1.86.74-2.55,1.1-2.35,1.47-1.17,6-2.94.45-.89.37-1,.55-.79,1.29-.1.82.69.28,1.17.18,1.28.55.88,1.66,1.27,2.38,1.08,2.39.2,1.84-1.18,1,1.57,1.1.88H177l1.29-1,.27.59-.09.39.19.1.64.19-2.94,4.9L173.17,246l-3.4-.3-3.4-2.74-.82,3.82,2.11,1.18,3.12.19,2.48,1,2.2,1.28,1.84-1.37,1.74-2.26,2-1.08-1.83-2.35.92-3.13,2.11-2.84,2-1.18,2.94.79L191.9,240l3,.49-.83-1.76-1-1.08-2.75-1.37v-1.37l1.28-.39,1.29-.1,2.94.49-2.58-1.27-7-1.38-1.47-1.95-.83-2.85.28-1.47,7.89-1.86,2.85.69,5,2.74,2.57.69,23.05,1.47,1.47-.3,2.57-1,1.47-.19,1.19.29,1.84,1.77,1,.58,10.65,1.37,1.37-.29,1.56-.78,1.56-1.08,1-1.18,1.29-.88,1.65.3,6,2.45,1.19.09,1,.89,1.11,3.62.64.88,2.39-.39,1.37-.39.28-.59.92,1.57.18,1.57-.37,1.46-.73,1v1.28l2.94,1.27v1.47L268.66,246l.64,1.76,6.52,5.1,1.65,2.25,1.1,3V262h.83l.09-3.53.55-3,.19-2.74-.83-2.84,3-1.18,2.94-2.54,2.38-4,.92-5.09,1.93-3.34,4.59-.49,8.08,1.67.92-.2.73-.68.74-.39,1.56,1.17,2.29,1.28,2.21.58,2.94,1.87,2.11.48h6.61l2.85-.78,2.75-2,3.76,2.45,8.18-1.37,3.76,1.66.74,1.77.45,2.35.83,1.86,3.76,1.37,1.57,1.28,2.75,3.72,1.84-1.27,2.11-.4,4.31.2v-1.37l-1.92-.88-2.39-.59-2.11-1.18-.92-2.15-.83-1.47-2-1.18-2.48-.59h-2V239l.92-1,1.56-2.36,1.2-.78,2.93,1.27,1.84.4.73-1,1.57-.79,9.45,1.47-2.11-2.35-2.39-1.67-2.66-1-2.48-.4-2.75.2-.92-.49-.46-1.67.73-2,1.75.49,3,2.26,2.66-1.47-.92-1.86-2.93-1.57-2.85-.69-13.31.1-.74-.68-.18-2.06.55-1.47L344,218.7l1.56-1,3.94-1,15.61-9.51,2.21-.59L368,206l.46-1.57.09-3.92.46-3.33,1,.59,1,2.15.37,1.18.55.2.18.09.1,1.18,3.85-2.35,4-1.77h.28l11-1.86,1.65-.29,6.06-3.63,4.31-.88v-1.47l-4.4-.09-2-.89-1.75-1.86,7.35-5.19-.37-3.92,6.24-4.8-.36-5,1.37.79,1,.88,1,.78,1.66.3,1.56-6.37.64-1.76-.37-.4h-.09l-.09-.19-.37-.59L412,164l-2.66,1.17-9.18,1.37L395.27,170l-2.84,1.28V170l1.37-1.66.19-1.86-.92-1.38-1.93-.58-2,.88-3.4,3.82-3.39,1.47-6.34,6L374.25,178,372.32,179l-1.93.39v-1.28l3.3-3.33,2-1.47,2.48-.58,1.84-1.47-.37-2.84L378,166.78l-2,1.76h-.92l.37-4.31h-1.75l-2.2,2.75-1.1,3.72-.64,1.17-1.47-1.07L367,169.23l-.55-1.37.09-.88-.09-.79-1.1-.29-.92.19-1.38.79-.82.39-3.22.1-1.65.59L356,170.6l-1.74-.39-2.66-1.67H341.38l-2.3-1.27,1.1-2-1.28-1.08-11.11-3.72-2.39.1.46-.79.27-.68.46-.69.65-.68v-1.28l-1.75-.88-.83-1.47.28-1.27,1.84-.49,2-.2,1.56-.68,1-1.47.36-2.45,1.57-1.47,9.54-6,3.4-1.08,13.5.3,7,2,3.67.1v-1.28l-9.37-2L358.45,136l2.11-.88,6.06-.3,1.47.59,1.75,2.35L372,140l2.48,1.18,2.48-1.08-7.16-6.07-5.05-1.57-4.87-3-3.12-.19.55-2,1-.49h1.28l1.66-.3,1.28-.88,1.84-2,1.47-1.18,2.66,2.35,2.94.2,6.33-1,7.44,2.54h2.76v-1.37l-2.3-.29-3-1.08-2.11-2.15.09-3.24,1.84-1.76,5.32.88,1.93-.49-1.74-1.27-1.47-3.53-1.84-.78-2.48-.1-.64.1-.55.88-.28,1.47v1.27l-.09.59-3.86-.2-3.12-2.84-2.48-4.11-1.65-3.73,1.75-1.07,1.28.58,1.29,1.18,1.74.59,1.84-.2,1.74-.59,3.4-2-4-1.38-3-2.54-5.05-5.49V92.42l1.1-.88,1.47-.49,1.47.29L376,92.42l1.38-2,.36-.68h-.82l.64-2.85,1.1-.49,1.29.1,1.56-.78,2.57-4.8.92-.69,1.28,1.08.46,4.7,1.2,1,.82-.88.83-3.62,1.1-1.08-1.47-5.88-.55-3.43.55-1.57,1.56-1.27L393,63.13l1.28-2.06,2.11-.1,7.53,2.84,2.48-.49,4.13-1.86,2.21-.39-.92,1.76L411,64.11l-.73,1.27L410,67.24l.64,1,1.66-1.08,3.95-4.89,8.17-4.51L427,57l1.83-1.56,1.29-3.24,1.65-2.93,3-.4,3.58,2.35-1.19,2.16L431.08,57v1.38l5.69-2.55.83.49.83,1,2-.2,2.2-.78,1.28-.78,1.84,2.84V59.6l-.55,2.25,1.1-.39,2-1.27,2-.59-.64,2-1,1.27-1.38.69-1.56.29v1.28h2.39l1.56.39,1.19-.1,1.29-1.57,1.56-3.62L453.39,58l-3-3.82-.73-4,2.11-2.44,3.49-2.26L458.62,42l.37,1,.09.09.55.39-3.12,9.41-.18,1.37.27.39.46.79.65,1,.91.58h1.2l1.28-1.27,1.29-.19,1.84.68L467,57.84l2.57,2,1.1,1.87.19.68L472,65.09l.46,1.37-.09,1.47-.65,3.52-.18,1.87,1-1.77,2.11-5.29,1-1.17.46-1.38-.92-3.13-1.19-3.14-.64-1.17-.28-2-.64-2.65-1.1-2.15-1.66-.69-1.1,1.47.28,2.84.92,3,.82,2.16-1.93-.3-1.28-1.17-1.1-1.37-1.2-1.28-3.94-1L459.54,52l.46-2.45,3.67-6.37V42l4.87.68,2.11-.68,4.78-3.53,1.65-.59,2.3.78,1.46,2,1,2,1.2.88.73,1.47L483.51,48l-.55,3-.37,1.07.73,1.87,1.75,1.27L488.92,57l.1,2.36,1.1,2.74,1.56,2.15,1.47.89L495,66.65l.28,3.24-.83,3.33-1.28,1.47-2,.49-1.56,1.17-2.48,2.55-7.35,4v1.37L487.82,83l2.57,1.17-1.47,4.21-1.56,1.47-6.7,4-4.41,5.49-1.92,1.37v1.37l2.75-.69,2.39-1.47,12.76-10.58,1.38-.29,1.19-2.16,2.66-1.07,3-.69,2.39-.88,1.65-2.45.83-3.23-.55-2.75-2.48-1.17-.64-.88.55-1.77,1.47-2.84V64.5l-1-.39L497.37,57l-3.21-2.25-1-1.17-.55-1.28-.55-2.15v-2l3-2.26,1.47-3.52.36-4-1.47-3.13,2.3.19,1.93.79,1.93.19,2.11-1.17-.37-.69-.09-.49-.09-.59-.28-1,2.66,2,2.85,1.47,2.94-.1,5.14-4.7,2.66-.69,2.66,1.08,2.12,3.73-2.85.09-.92-.09,2.57,1.56L525.65,38l3,.1,2.66-1.67-8.63-5.78-4-4.41-.36-4.7-3.58-1.76-1.56-1.28-1.2-1.27,2.11-1.27,2.48.49,4.5,2.25,9.28,2.84,2.2.29,5.14,2.45,1.75,1.28,6.88,9,2,1.57,6.7,2.54,5,.79,6.06,2.25L569,43.43l3-1.07,1.83,3-.45,4.12-3.95,2.06-3.77.58-4.5,1.67L557,56.17l-4.59,3.92-4.32,2-3.67,1-1.83,1.37-5.88,7-2,3.24-1.75,3.72Zm-324,353.09,3.3,4.7-2.75,3.63-4.5,1.17-2.48-2.35-.37-2.84-.73-1.37L200.9,434l1.28-1.76,1.56-1.08,1.93-.29,1.74.29Zm-40.4-132.55,1.65-.79,1.47-.39,1.38.2,1,1v1.37l-1.1,1.47-.83,3.13-.37,3.43.46,2.65L169,314.13l-2.58-1.28-2.57-2.74L161,307.76l-1.84-.2-1.75.4-1.46-.4-.56-1.86.28-2.94.37-2.15-.09-1.86L154.44,297l-2.76-.68-10.19,2-3.67-.39-6.61-2.26h-3.49v-1.37l3.4-.1,2.93-.68,2.3-2.06,1.56-3.92,1.1,1.18,1.1.39,1.1-.39,1.2-1.18,2.94,3.14,3.39-.89,3.4-2.25,2.76-1.27,11.66.29,2.57,1,2.75,5.29h-2.75l.36,1.57-.09,1.57-.36,1.37-.83,1Zm193-208.68,2.11.88,1.74,1,1.11,1.76.55,3.24-5.79,1.56L358,99.28l-2.29-1.37V96.63l.37-.88h.09l-.09-.29-.37-1.57,2-1.18.73-.29-.27-.49-.37-.49-.28-.39,1.2-1.08.92-.29.82.49ZM188,747.26l1.29-.2,1,.59-1,1.37-.83.39-10.56,3.14-1.47-.59-2-1,.37-1.86,1.93-1.37,2.57-.88,3.12-.2,4.59.59Zm-66.48-54.67,1.47.1.46,1.27-.92,1.47-2.38,1.37L114.86,699l-4.68.49-1.28,1.08-2.67.29-.46-1.37,2.3-2.75,6.89-4.21,1.28-1,2.48.1.92.2,1,.88ZM210.54,466l.46-.19.55.29-.19,1.47-2.48.59-15.79-6.37L188.68,459l1.38-1.67,3.12-.1,3.4,2.26h1.65l3.31-.59,2.48.29,3.49,1.18,1,1.47-1.2,1.37.09,1.27Z" style="fill:#efc441"/></svg>