<svg xmlns="http://www.w3.org/2000/svg" viewBox="0 0 800 800"><polygon points="266.64 449.29 269.28 446.72 277.88 440.35 283.85 433.98 284.31 430.56 282.93 423.82 282.93 420.39 286.61 413.53 305.54 395.16 308.07 393.45 313.58 388.31 318.17 384.39 312.2 380.71 305.66 375.81 307.04 372.38 311.17 367.12 325.97 341.28 327.12 339.69 336.65 318.26 341.24 307.85 344.34 302.82 349.62 285.31 349.73 284.46 349.5 282.25 349.62 281.27 351.91 280.05 365.45 237.55 371.42 207.79 376.59 181.83 377.5 179.87 378.54 171.05 379.34 168.36 379.11 165.42 382.9 149.13 383.82 131.25 385.19 127.33 387.72 125.86 389.79 126.36 393.23 128.68 395.75 129.17 397.25 128.8 403.1 122.44 403.9 120.84 405.28 115.58 405.97 113.01 405.62 110.56 403.56 109.58 404.59 106.64 405.74 94.39 408.03 88.02 408.72 84.11 408.03 80.68 408.84 79.94 409.76 78.72 410.44 78.1 409.3 76.76 410.1 76.51 410.33 76.39 423.64 77.49 424.45 77.13 426.28 75.66 427.31 75.29 428.35 75.29 430.76 75.9 431.91 76.02 438.1 73.94 440.17 73.94 441.09 74.43 442.01 74.8 443.84 76.39 445.56 78.35 446.71 80.8 448.32 82.76 450.5 83.13 459.91 80.68 467.94 77.25 473.11 76.76 473.91 73.7 477.13 68.06 478.5 64.76 479.42 59.61 479.77 49.81 481.14 45.41 482.63 42.71 483.67 39.9 484.82 38.06 486.77 37.81 487.69 39.04 490.67 43.81 492.85 45.41 493.88 46.26 493.88 46.14 494 45.41 496.29 42.96 496.64 40.39 498.47 39.28 501.92 38.92 503.41 36.34 509.72 29.73 512.71 28.87 514.88 28.63 517.3 28.02 519.59 26.91 521.66 25.69 524.41 22.63 527.74 15.89 530.26 12.83 530.49 13.93 529.58 15.16 529.35 18.46 528.77 19.57 528.43 22.26 525.67 24.22 524.41 25.69 520.74 27.4 527.17 31.69 521.54 39.65 522.69 41.24 527.39 44.55 528.08 53.86 531.87 56.18 532.33 62.06 530.49 65.98 528.66 68.92 528.66 71.86 534.97 74.55 534.4 77.13 536.69 96.23 537.61 98.68 541.51 105.17 539.22 109.7 537.95 110.07 535.09 114.97 533.13 120.97 533.82 123.42 532.45 128.56 524.07 138.48 519.71 145.21 519.59 145.21 516.72 145.95 507.54 151.83 501.92 156.85 499.96 157.83 499.28 158.2 495.26 157.71 495.14 157.71 495.26 157.71 492.16 160.03 489.64 163.34 488.14 164.69 487 165.18 486.65 165.91 486.54 167.5 487.23 168.97 488.6 169.83 488.6 171.05 487.45 171.05 487.45 172.52 488.37 174.24 488.95 179.38 489.87 181.83 489.18 182.93 488.95 183.06 488.83 182.57 488.6 181.83 488.26 182.57 487.45 184.77 486.42 183.42 487 187.59 487.45 188.81 485.16 188.81 485.16 190.16 486.08 190.04 486.77 190.04 487.91 191.87 488.26 192.73 489.87 194.32 489.87 195.55 488.37 196.04 487.34 197.14 486.77 198.49 486.42 199.83 487 200.2 487.45 200.57 487.91 200.94 488.6 201.06 488.6 202.53 487.57 203.26 486.42 203.75 487.45 205.1 485.16 206.57 485.5 206.94 485.85 206.94 486.19 207.06 486.42 207.92 485.16 207.92 485.16 209.14 486.19 210.24 486.42 210.98 485.62 211.59 484.01 211.96 484.82 214.04 485.16 214.77 485.96 215.63 486.65 216.86 473.11 213.3 469.21 212.32 465.19 212.2 460.83 210.85 459.91 205.83 460.02 199.71 458.53 195.06 453.48 191.87 448.55 191.26 437.99 191.87 434.89 190.77 430.19 186.73 427.89 185.63 427.66 185.38 424.56 185.63 422.27 187.46 418.02 192.36 412.85 195.67 407.8 198 403.44 201.3 400.12 207.06 398.16 217.35 397.48 220.78 396.21 224.82 395.64 225.31 393.34 226.16 392.77 226.53 392.08 229.1 391.51 235.35 390.93 237.92 393 238.65 394.15 240.12 394.49 242.21 393.92 244.78 392.65 247.23 386.11 253.23 385.65 256.29 386.34 258.86 388.75 263.51 390.47 268.66 390.01 275.52 393.8 289.11 392.08 291.07 392.43 294.5 392.31 297.44 390.36 299.76 392.88 303.31 393.92 304.17 393.23 305.27 393.57 306.38 395.41 307.85 397.59 308.21 399.2 311.4 398.39 320.83 397.7 321.56 393.69 321.81 392.43 322.3 390.93 323.89 389.1 325.48 388.87 326.34 389.33 326.71 392.88 327.32 394.83 327.07 397.25 326.46 400.23 323.4 402.07 322.3 403.44 322.05 405.39 322.17 407.35 323.4 408.95 326.71 411.48 328.18 412.97 328.05 415.61 330.13 421.81 331.48 423.87 331.24 423.76 330.13 423.18 328.91 423.41 327.93 424.45 327.69 425.59 327.69 428.35 329.15 428.81 328.91 428.92 328.18 428.92 325.11 428.35 322.3 427.77 320.34 426.97 318.87 427.09 317.64 428.23 316.79 429.84 317.28 430.64 319.6 430.41 321.56 430.76 322.91 431.79 324.5 433.63 324.01 434.55 324.13 435.12 324.75 435.81 325.24 434.78 326.71 435.12 327.07 436.27 327.19 437.07 327.69 436.38 329.15 435.58 330.5 436.04 332.83 436.27 334.42 436.73 334.91 435.92 336.13 435 338.95 435.12 340.3 436.15 341.4 436.73 343.12 435.92 344.34 435 345.2 434.43 348.01 433.63 348.87 433.28 350.59 432.48 350.83 431.45 350.22 430.87 349.24 430.19 348.87 429.38 349.73 427.09 348.14 422.73 348.75 420.54 346.42 418.48 346.06 417.56 345.32 413.66 346.18 411.82 349.24 408.26 352.3 402.52 357.32 388.18 366.51 385.08 370.18 384.74 370.92 382.1 376.06 381.41 381.45 381.29 386.96 380.37 393.45 372.8 406.18 370.39 412.8 372.34 419.41 376.01 422.23 380.49 422.96 385.08 422.23 389.33 420.76 399.31 419.29 420.31 419.53 430.07 415.86 448.32 400.43 458.07 394.8 469.44 393.94 469.55 393.94 469.32 405.45 469.21 407.41 468.52 411.94 465.53 419.78 462.44 425.53 463.7 427 463.47 431.17 461.06 435.33 458.99 440.11 459.91 445.62 461.52 450.64 463.24 454.56 465.76 459.58 466.91 464.97 466.11 470.6 458.3 486.28 457.16 492.03 457.27 498.28 455.32 501.83 450.84 506.24 448.78 508.2 446.6 512.73 446.25 517.14 446.25 521.54 445.68 525.83 444.76 527.79 441.89 530.36 440.63 531.83 439.48 534.28 438.91 536.49 438.22 541.51 436.84 546.16 427.09 566.37 419.86 590.37 419.05 595.15 416.07 603.11 416.07 607.76 416.99 609.84 419.4 613.76 419.86 616.58 419.4 619.27 418.48 621.48 417.44 623.43 416.41 625.88 414.81 636.17 413.66 639.48 413.54 645.11 416.99 657.11 416.99 663.24 414.23 669.85 407.12 680.75 405.17 688.46 405.05 690.91 404.48 692.63 403.56 694.1 402.98 695.81 401.72 702.42 401.49 714.3 400.8 718.34 393 739.65 391.85 744.55 390.93 755.57 389.33 760.35 387.15 764.15 385.88 768.43 385.19 773.7 384.51 776.27 383.36 777.98 380.49 781.66 379.23 783.74 378.54 785.21 378.19 786.43 377.62 787.17 376.36 787.17 374.87 787.05 373.6 787.17 372.23 784.35 368.32 776.27 367.18 771.62 367.52 758.14 363.16 737.94 356.62 719.57 349.27 699.12 348.24 688.46 348.24 687.36 348.24 686.14 347.89 685.03 347.44 683.93 340.89 664.95 331.02 636.05 325.51 619.88 323.56 617.07 314.5 608.98 313.35 607.15 312.89 604.82 313.23 601.39 314.84 595.51 314.84 592.82 313.23 590.49 310.48 586.7 309.56 583.39 309.22 575.31 305.54 559.63 295.21 532.08 286.61 509.18 280.18 492.03 274.9 475.5 268.36 454.68 266.64 449.29" style="fill:#efc441"/><polygon points="390.36 299.76 392.31 297.44 392.43 294.5 392.08 291.07 393.8 289.11 390.01 275.52 390.47 268.66 388.75 263.51 386.34 258.86 385.65 256.29 386.11 253.23 392.65 247.23 393.92 244.78 394.49 242.21 394.15 240.12 393 238.65 390.93 237.92 391.51 235.35 392.08 229.1 392.77 226.53 393.34 226.16 395.64 225.31 396.21 224.82 397.48 220.78 398.16 217.35 400.12 207.06 403.44 201.3 407.8 198 412.85 195.67 418.02 192.36 422.27 187.46 424.56 185.63 427.66 185.38 427.89 185.63 430.19 186.73 434.89 190.77 437.99 191.87 448.55 191.26 453.48 191.87 458.53 195.06 460.02 199.71 459.91 205.83 460.83 210.85 465.19 212.2 469.21 212.32 473.11 213.3 486.65 216.86 487.23 218.32 487.45 220.16 486.42 220.16 486.42 218.81 485.16 218.81 485.16 220.16 486.08 222.12 485.96 228.12 487.45 231.06 486.77 233.39 486.65 237.19 487.34 240.98 488.6 243.31 487.8 243.68 487.11 244.29 486.65 245.02 486.42 246.12 488.6 246.12 486.42 255.43 485.73 258.62 486.42 261.06 486.42 262.54 485.05 263.15 484.24 264.13 484.24 265.11 485.16 266.45 482.4 271.23 482.29 273.56 484.01 276.01 481.26 278.33 480.34 281.76 480.57 290.95 482.4 295.6 482.75 297.68 482.86 300.38 483.21 302.09 484.13 304.3 484.01 305.89 483.32 306.74 482.06 307.11 481.03 307.72 480.57 309.32 484.7 325.11 482.86 327.56 482.86 329.03 486.42 339.81 481.03 345.81 476.9 355.61 473.11 364.42 470.47 378.75 469.55 393.45 469.55 393.69 469.67 393.94 469.55 393.94 469.44 393.94 458.07 394.8 448.32 400.43 430.07 415.86 420.31 419.53 399.31 419.29 389.33 420.76 385.08 422.23 380.49 422.96 376.01 422.23 372.34 419.41 370.39 412.8 372.8 406.18 380.37 393.45 381.29 386.96 381.41 381.45 382.1 376.06 384.74 370.92 385.08 370.18 388.18 366.51 402.52 357.32 408.26 352.3 411.82 349.24 413.66 346.18 417.56 345.32 418.48 346.06 420.54 346.42 422.73 348.75 427.09 348.14 429.38 349.73 430.19 348.87 430.87 349.24 431.45 350.22 432.48 350.83 433.28 350.59 433.63 348.87 434.43 348.01 435 345.2 435.92 344.34 436.73 343.12 436.15 341.4 435.12 340.3 435 338.95 435.92 336.13 436.73 334.91 436.27 334.42 436.04 332.83 435.58 330.5 436.38 329.15 437.07 327.69 436.27 327.19 435.12 327.07 434.78 326.71 435.81 325.24 435.12 324.75 434.55 324.13 433.63 324.01 431.79 324.5 430.76 322.91 430.41 321.56 430.64 319.6 429.84 317.28 428.23 316.79 427.09 317.64 426.97 318.87 427.77 320.34 428.35 322.3 428.92 325.11 428.92 328.18 428.81 328.91 428.35 329.15 425.59 327.69 424.45 327.69 423.41 327.93 423.18 328.91 423.76 330.13 423.87 331.24 421.81 331.48 415.61 330.13 412.97 328.05 411.48 328.18 408.95 326.71 407.35 323.4 405.39 322.17 403.44 322.05 402.07 322.3 400.23 323.4 397.25 326.46 394.83 327.07 392.88 327.32 389.33 326.71 388.87 326.34 389.1 325.48 390.93 323.89 392.43 322.3 393.69 321.81 397.7 321.56 398.39 320.83 399.2 311.4 397.59 308.21 395.41 307.85 393.57 306.38 393.23 305.27 393.92 304.17 392.88 303.31 390.36 299.76" style="fill:#efc441"/><polygon points="305.66 375.81 312.2 380.71 318.17 384.39 313.58 388.31 308.07 393.45 305.54 395.16 286.61 413.53 282.93 420.39 282.93 423.82 284.31 430.56 283.85 433.98 277.88 440.35 269.28 446.72 266.64 449.29 263.54 439.86 262.62 436.56 258.49 428.96 262.27 426.51 264.69 423.45 272.14 416.72 275.47 410.59 283.39 404.59 286.72 398.59 299.35 385.49 305.2 376.79 305.66 375.81" style="fill:#efc441"/><polygon points="505.78 39.28 507.17 37.88 509.26 35.73 512.02 32.91 513.05 30.83 512.8 29.43 500.96 41.27 502.38 41.85 505.78 39.28" style="fill:#fff"/><polygon points="530.49 13.93 530.26 12.83 527.74 15.89 526.35 18.71 529.55 15.51 529.58 15.16 530.49 13.93" style="fill:#fff"/><polygon points="502.38 41.85 500.96 41.27 497.11 45.12 497.79 44.79 499.05 44.55 500.31 44.55 500.45 44.6 505.78 39.28 502.38 41.85" style="fill:#fff"/><polygon points="512.02 32.91 509.26 35.73 507.17 37.88 516.95 28.1 514.88 28.63 513.44 28.79 512.8 29.43 513.05 30.83 512.02 32.91" style="fill:#fff"/><polygon points="523.19 29.04 503.38 48.84 503.52 51.54 524.89 30.17 523.19 29.04" style="fill:#fff"/><polygon points="522.69 41.24 521.98 40.25 504.3 57.93 504.33 58.14 504.7 60.36 523.35 41.71 522.69 41.24" style="fill:#fff"/><polygon points="527.41 44.81 502.43 69.79 501 74.06 527.61 47.45 527.41 44.81" style="fill:#fff"/><polygon points="498.99 83.24 498.25 83.97 498.93 83.86 498.99 83.24" style="fill:#fff"/><polygon points="528.26 53.97 498.99 83.24 498.93 83.86 498.25 83.97 491.35 90.88 492.6 92.46 530.01 55.04 528.26 53.97" style="fill:#fff"/><polygon points="532.33 62.06 532.17 60.05 495.75 96.48 496.52 97.45 496.45 98.61 531.75 63.31 532.33 62.06" style="fill:#fff"/><polygon points="403.44 201.3 403.02 202.04 404.73 200.33 403.44 201.3" style="fill:#fff"/><polygon points="531.84 73.22 529.86 72.37 495.95 106.27 495.76 109.3 531.84 73.22" style="fill:#fff"/><polygon points="427.89 185.63 427.66 185.38 426.78 185.45 398.93 213.3 398.27 216.79 428.93 186.13 427.89 185.63" style="fill:#fff"/><polygon points="497.86 117.2 534.78 80.28 534.47 77.76 496.4 115.83 497.86 117.2" style="fill:#fff"/><polygon points="433.04 189.19 391.98 230.25 391.69 233.37 434.56 190.49 433.04 189.19" style="fill:#fff"/><polygon points="499.96 124.15 499.76 125.29 535.85 89.21 535.54 86.68 500.13 122.1 499.96 124.15" style="fill:#fff"/><polygon points="440.5 191.73 393.25 238.98 394.15 240.12 394.26 240.8 443.5 191.55 440.5 191.73" style="fill:#fff"/><polygon points="499.16 135.42 499.18 135.87 537.27 97.78 536.69 96.23 536.62 95.61 499.72 132.51 499.16 135.42" style="fill:#fff"/><polygon points="450.7 191.53 385.71 256.51 386.31 258.75 453.22 191.84 450.7 191.53" style="fill:#fff"/><polygon points="499.05 143.62 493.19 150.6 492.39 152.56 492.44 152.62 540.9 104.15 539.84 102.39 499.05 143.18 499.05 143.62" style="fill:#fff"/><polygon points="458.53 195.06 457.7 194.53 388.74 263.49 388.75 263.51 389.45 265.61 458.89 196.17 458.53 195.06" style="fill:#fff"/><polygon points="495.14 157.71 495.26 157.71 497.12 157.93 533.34 121.71 533.13 120.97 534.04 118.19 495.01 157.22 495.14 157.71" style="fill:#fff"/><polygon points="459.98 202.25 390.25 271.98 390.05 275.01 459.92 205.13 459.98 202.25" style="fill:#fff"/><polygon points="516.72 145.95 519.59 145.21 519.71 145.21 524.07 138.48 525.79 136.44 515.49 146.74 516.72 145.95" style="fill:#fff"/><polygon points="461.25 210.98 391.47 280.75 392.09 282.97 463.41 211.65 461.25 210.98" style="fill:#fff"/><polygon points="392.08 291.07 392.25 292.8 472.02 213.03 469.76 212.46 393.65 288.57 393.8 289.11 392.08 291.07" style="fill:#fff"/><polygon points="306.09 376.14 304.71 377.51 299.35 385.49 293.48 391.58 307.71 377.35 306.09 376.14" style="fill:#fff"/><polygon points="392.41 302.65 479.96 215.1 477.72 214.51 391.23 300.99 392.41 302.65" style="fill:#fff"/><polygon points="312.2 380.71 311.81 380.42 260.17 432.06 261.17 433.89 313.53 381.53 312.2 380.71" style="fill:#fff"/><polygon points="485.16 219.9 486.24 218.81 485.16 218.81 485.16 219.9" style="fill:#fff"/><polygon points="395.41 307.85 396.95 308.11 485.16 219.9 485.16 218.81 486.24 218.81 487.09 217.97 486.65 216.86 485.64 216.59 394.84 307.39 395.41 307.85" style="fill:#fff"/><polygon points="317.97 384.26 315.94 386.29 318.17 384.39 317.97 384.26" style="fill:#fff"/><polygon points="282.93 420.39 284.2 418.03 263.28 438.94 263.54 439.86 263.95 441.11 282.93 422.12 282.93 420.39" style="fill:#fff"/><polygon points="398.78 316.28 486.29 228.77 485.96 228.12 486 226.23 399.04 313.18 398.78 316.28" style="fill:#fff"/><polygon points="392.43 322.3 390.93 323.89 389.1 325.48 388.92 326.13 392.97 322.08 392.43 322.3" style="fill:#fff"/><polygon points="283.86 428.37 265.72 446.51 266.42 448.64 284.28 430.77 284.31 430.56 283.86 428.37" style="fill:#fff"/><polygon points="486.65 237.19 486.7 235.53 395.26 326.96 397.25 326.46 400.23 323.4 402.07 322.3 402.91 322.15 486.84 238.22 486.65 237.19" style="fill:#fff"/><polygon points="488.6 246.12 486.42 246.12 486.51 245.72 407.83 324.4 408.76 326.3 488.5 246.56 488.6 246.12" style="fill:#fff"/><polygon points="428.23 316.79 427.09 317.64 427.05 318 428.26 316.8 428.23 316.79" style="fill:#fff"/><polygon points="427.09 317.64 428.23 316.79 428.26 316.8 485.89 259.17 485.73 258.62 486.32 255.91 413.64 328.58 415.23 329.83 427.05 318 427.09 317.64" style="fill:#fff"/><polygon points="388.18 366.51 386.18 368.88 389.21 365.84 388.18 366.51" style="fill:#fff"/><polygon points="423.81 331.24 423.87 331.19 423.76 330.13 423.23 329 420.94 331.29 421.81 331.48 423.81 331.24" style="fill:#fff"/><polygon points="426.75 328.3 428.92 326.13 428.92 325.11 428.62 323.61 424.54 327.69 425.59 327.69 426.75 328.3" style="fill:#fff"/><polygon points="430.76 322.91 431.31 323.75 482.33 272.73 482.4 271.23 484.32 267.91 430.47 321.76 430.76 322.91" style="fill:#fff"/><polygon points="418.48 346.06 417.56 345.32 416.73 345.5 381.5 380.73 381.41 381.45 381.36 383.7 418.92 346.13 418.48 346.06" style="fill:#fff"/><polygon points="436.27 327.19 437.07 327.69 436.81 328.25 480.41 284.64 480.34 281.89 435.15 327.08 436.27 327.19" style="fill:#fff"/><polygon points="435 338.95 435.09 339.96 481.57 293.49 480.77 291.46 435.84 336.39 435 338.95" style="fill:#fff"/><polygon points="423.6 348.63 380.64 391.59 380.37 393.45 378.56 396.49 426.89 348.16 423.6 348.63" style="fill:#fff"/><polygon points="482.87 300.38 482.82 299.41 434.49 347.74 434.43 348.01 433.63 348.87 433.28 350.59 432.48 350.83 431.8 350.43 370.94 411.29 370.39 412.8 370.81 414.24 483.17 301.89 482.87 300.38" style="fill:#fff"/><polygon points="481.06 311.17 372.61 419.62 374.21 420.85 481.64 313.42 481.06 311.17" style="fill:#fff"/><polygon points="483.13 319.1 379.44 422.79 380.49 422.96 382.4 422.66 483.71 321.34 483.13 319.1" style="fill:#fff"/><polygon points="482.95 329.28 391.84 420.39 395.16 419.9 483.65 331.41 482.95 329.28" style="fill:#fff"/><polygon points="485.43 336.8 402.9 419.33 405.69 419.36 486.13 338.93 485.43 336.8" style="fill:#fff"/><polygon points="476.9 355.61 477.1 355.13 412.78 419.44 415.58 419.48 474.97 360.08 476.9 355.61" style="fill:#fff"/><polygon points="472.05 370.18 424.13 418.09 428.67 416.39 471.41 373.65 472.05 370.18" style="fill:#fff"/><polygon points="470.27 381.96 456.56 395.67 458.07 394.8 460.44 394.62 470.08 384.98 470.27 381.96" style="fill:#fff"/><polygon points="469.55 393.94 469.67 393.94 469.55 393.69 469.55 393.45 469.6 392.63 468.2 394.03 469.44 393.94 469.55 393.94" style="fill:#fff"/></svg>