<svg xmlns="http://www.w3.org/2000/svg" viewBox="0 0 800 800"><path d="M121.42,106.23l2.27,2.36,1.17.66,1.55.29,1.62,0,1.55-.25,3.1-1.18,1.41-.81.65-.22,3.79.37,1.62-.51,3-2,1.48-.62,1.07-.11.55-.66.48-.77.86-.41,5.13,1.18.79.44.73.66,1,1.25.07.18.62.19.41-.08.38-.18.52,0,2.41.81h1.37l.9.26h.31l.62-.33.1-.22,0-.33.17-.7,0-.11,1,0,.14-1.28.55-1,.72-.55,3.58-.73.48-.15.35-.3.65-.73,0-.15.49-1,.1-.11.24-1.91v-.77l.14-.77.34-.66.52-.37,1-.11.55-.18,2.21-1.77,1.06-2.16-.13-2.46-1.48-2.65-1.17-1-.18-.25.21-.59L175,83l1-.92,1.1-.44,2.17-.48,1-.66,2.48-3,1.45-.66.55-.44.52-.56.31-.58,0-.7-.34-.22-.17-.3.41-.84,1.07-1.07,1.37-.69L190,71l.65-.15,1.45.23.69,1,.2,1.51,0,2-.17,1.94L192.07,81l-.17,1.73.2,1.65.56,1.07.92.7,1.31.51,1.38.63,1.45,1.36L200.88,93l.49.22,1,.33,2.35,1.25.86,0,.38-.19.79-.62.31-.15.24.07.17.08.34.62.42.26L209,95l1.55,0,.76.25,1.27,1.58-.76,1.58L210.42,100l-.89,1.87-.21.33-.07.19.86,0,.76.26,2.89,1.43.35.26.31.44.51,1.07.86,1.43.42.88.31.88.06,1.14-.2.85-.31.77-.17,1,2-.55,1.66.69,1.48.26,1.61-1.84,1.28-2.27.17-1.14-.55-1.1-.48-.3-1.1-.18-.49-.26-.48-.62-.41-1.25-.52-.48-.14-.18,0-.19,0-.14.14-.19,1.66-1.39-.9-2.36.21-.77,1.27-.92,1.1-.33.48-.25.42-.63.17-.81-.1-1.5.17-.88.93-1.29,3.65-2.32,0,0,.38-.63.24-.8.28-.67.55-.36.58-.26.59-.51.45-.67.75-2.42,1.48-2.83.31-1.51-.06-.84L234,75.74v-.95l.13-.85-.1-.7-.65-.44-.48-.88.37-1.65.86-1.62,1-.84,2.44-.26,1,.22.07.84,1.27,1.14.38.15.55-.22.25-.41.17-.47.34-.41.79-.55.42-.11.17.44.27,6.47-.06,1,.1.36.38.34,1.1.58.45.33,1,2.43.65.81,1.07.66,1.17.4,5.75.08,1-.37.76-1v-.52l-.07-.77.1-.77.55-.55h.56l1.2.7.66.11,1-.3L264,76.59l2.17-.33,1,.07,1,.22,1.24.77.35,1.1,0,1.33.31,1.47.72.91,2,1.66.52,1.14,0,1.5,1.65,0,2.14-.74,1.41-.84.66-1.25-.66-1.21-2.06-2-.45-.77-.21-.55,0-.63.24-.92.38-.66,1.06-.84.35-.48.38-1.47-.35-.73-.86-.33-2.27-.41-1.48-.51-.79-.92.89-1.4-.45-.29-.24-.37-.1-.48-.07-.62.21-.74,0-1.47.07-.47.41-.59,1.1-1,.42-.51.62-2.21.2-.48.49-.25,4.75-1.25,1.31,0,.79.63.1.77-.27,1.36.24.73,2.06.66.38.33.28.33.31.33.58.23.62.11,1.76-.15,3.61.88.9-.18.41-.59.31-.48.38-1.69.07-1.73-.41-1.28-1-.85-2.13-.18-.93-1L289.79,56l.24-.66.55-.48.48-.77.1-1,0-.78.21-.62.82-.51.62-.85-.14-.92-.34-1-.1-1,1.1-1.21.31-.4.17-.63.28-2.17,1.61,1.22,2.1.22,5.1-1.33.89-.07.8.18,3.82,2.13.52.7-.28.44-1.1.85-.24.33.31.59.55,0,1-.33.59.19,1.44.77h.52l.93-.26.51,0,.49.22.82.66.52.18.52,0,1.68-.52.86-.11,1.76.15.83.29.72-.11.72-.66,1.1-1.8.21-.18.59-.22.2-.22.07-.33,0-.74,0-.26.93-2.05.55-2.39.42-.85,3.23-3,.93-.48,3.48-1.07,3.51-.55,1.79.37,1.59.7,1.51.07,1.72-1.5.38-.56.45-.29.51-.11.9.18.31.19.31.26.24.33.45.22.45.07.48-.07.45-.22h0l1.45-.41,1.2-.11,2.58.48h0l.07,0,.38,0,.37-.07,1,.11,1.62,1.1.93.33.58-.11,1-.77.55-.33,2.27-.33,1.76-1.25L366.77,32l2.21-.69,3.58-.19,5.09-2.42.86-.19,2.38-.4,1.21.37,0,.84v1L381,31.58l-3.06,1.58-.52,1.18.35.66.2.77.31,1.58.31.73.38.66,0,.59-.72.7.51.18,1.21.22.55.26.58.52.28.44.31.33.69.22,2.1.07.79.52.48,1.47v.84l-.14.48-.2.48-.11.77,0,.88.14.44.27.29.48.3,1.07.37,1,.14.83.48.45,1.51,1,2.16,1.72,1.4,2.07.77,1.21.22L397,56l1.55,1,.83.37.75.07,2.93-.36,2.48.25.07,0,.41.15.9.62.48.22.48,0,.79-.3.38,0,.45.14,1.27.37,2.86,1.73,11.78.77,4.09.88,3.21,1.84,1.06.4,2,.07,5.13-1,2.21.33,3.06-.18.35.11.72.77.38.22,2.13.08,6.1,1.83.75.08.76-.15,0,.55-.11.48-.2.4-.28.37-.07,1.73-.14.22-.41.8-.93.48-1.24,0-1.72.22-1.24,1.06L450,74l-1.2,1.17-2.34,1.18-1.21.81-.62.25-.65.08-.55.62-.69,1.44-.72,1.1-.21.36-1.31.78.38.66.31.81.28,1.65,0,0,.65.84.18.92.44.59,1.35-.19-.73-1.21.8.26,1.51.11.69.37,1.41.25.93.63,1.52,1.39,1.27.19,1.48-.15.69.11.51.11.18.59.2.66-1.44,2.46-4.72,3.34-.89.59-1.14,1.44.41.4.11.44-.14.44-.38.48-.28.18-.75.63.65.73.24.19,0,0,0,.08,0,.07,0,.07,1.38,1.44,1.48-.11,1.65-.7,1.45-.33.27,0,.83,1.25-.38,1.39-.35,1.29-.44,1-1.52,3.19-.17,2.28.41.77.38.66,1.38.7,1.75.18.83.26,2,1.43.48.37,3.48,1.47,4,6.28.55.52.76.4.45,0,0,.07,0,.11-.38.88-1,1.11-1,1.17-2.38.22-2-1-2.48.22.35-.51.58-.85,1.35,0,1.51.18,1.07-.22-.62-.19-.48-.47-.45-.74-1.93-.92.93-.4-.21-1.14-.72-1.28-.65-.81-4-3.9-.93-.73L451,115.31l-1.13-.18-.86.69-.52,1.47.21,1.33,1.34.22-1.83.8-.27.3-.28.4-1.37.26-.56.26-.89.88-1.17.84-1.34.37-1.24-.51.72-.19.89-.36.8-.48.34-.55-.45-1.14-2.06-.41-.62-1-.9.3-4.85-1-.45-.22-1.21-1.14L433,116l-.52.08-1.79.58-.58,1-.41.22-.49-.22-.44-1-.59-.18-.45.26-.14.66.21.62.55.26v.52l-1.13.07-1,.55-.55,1,.27,1.1.83.51,1-.14,1.9-.81-.59,1-1.76,1.36-.37,1.1-.52.7-1.24.37-4,.11-1.93.4-8.19,5-8.51,3.82-5,1.69-.86.7-.41.22-1.82.44-1.38.81-.69.14.41-1,.55-.88.31-.74-.24-.58.48.07.35-.11.17-.29,0-.63h.34l.24.55.21.3.24,0,.34-.3-.69-.91.55,0,.56,0,.51-.15.11.15,0-.11.17.22.14.22,0,.07-.17,0-.51,0v.51l1.1-.14.27-.81,0-1,.45-.44.89-.07.72-.33.55-.55.42-.85-.59.22-1.27.85-.38.07-.93-.95-.41-.59-.18-1-1.1.56-1.34,1.1-.83,1.21.49.81v.4l-.83,0-.86-.74-.38.37h-.34l-.35-1.4-.62,1.07.31.59,1.69.66v.4l-.62.33-.93.11L391,135l.1-.62-1.62,0-2.06,1.07-1.86,1.69-1,1.83v.41h.31l-.45.62-.2.63.13.58.52.48-.48.66-.11.48,0,.48-.14.66-.38.22h-.48l-.21.26.42.88-.59.88-.2.73-.38.48-1.07.19-.69-.3-.55-.37-.45.19-.27,1.43.55.59.45,1.39.62.26.55-.29.37-.81.14-.88-.24-.77,1,.4.21.7,0,.95.21,1.18-.55.18-.14.37.21.4.48.41-.17,1,.44.81.86.48,1,0-.14-.26-.07,0-.17-.14.72-.52,1.14-1.06.58-.26-.48,1,.31,1,.55,1,.31,1,0,2.21.31,2.53-.48-.18-.56-.29,0-.45,0-.62v-.29l-.51,1.47,0,1.17.52.66,1.07-.07-.14-.26-.1-.22-.11-.44,1,.81.62.95.51,1,.66.88v.44l-.38.07-.24.11-.14.15-.31.18.69.88.76-1,.13-.81-.27-.81-.62-1,.76.62.89.44.62.48-.17.7.79.81.41.29.52.29,1,1.25,1.1,1,.66-.48h-.18l-.34,0-.14,0v-.47l.83,0,.72.26.52.51.31.66,0,.63-.48.7.17.44-.41.66-.17.33-.11.4h-.31l-.37.08-.21.73-.1,2.13-.31,1.07-.66,1.06-1.48,1.69-.07-.29-.2-.66-.35-.74-.41-.59.76-1.5.2-.85-.24-.69-.58-.26-.55.33-.45.55-.17.44-.59,1.1v.63l1.24.51,0,.48-.38.48-.59.18v.48l.38.07.62.26.38.07-.38,1.14-.93.63-1.14.11-.89-.81-.55-.74L388,178.94l-.93-.62h-.51l-1.31,1.1v.4h.69l-1.35,4.6-.34,2.6.31,2.87.65,2.13.45,1,.45.44.1.73-.27,4.67.17,2.94,1.55,6.61.17,1.73.17.48.21.4.69.88.14.33.1,1.4.31,1.32.93,2.46,1.07,1.84,1.37,1.8,2.07,1.91,1,1.76,1.62,1.66,1.83,1.39,1.34.52,2.89,3.64,1.48,1.43,1.55,1.14.93.51,2.2.7.11,0,2.41.33,1,.55,2,1.5,3.38,1.29.48.74.41.47,15.39,12.75,5.89,3.45,1,.37.48.59,2.38.77,1.34.77.48-.29.38-.48.28-.26.14,0,.13-.15.14-.15.31-.07.28.15.17.29.1.29.14.15,1,.48.73,1.06.58,1.11.48.47,1,.22.89.59.45.85-.38,1.06,7.2,17.45.79,1.33.21.47.34,2.32.21.55.58.92,1.62,3.31.69,2.31.86,5.51,2,6.87,2,6.72,1.79,4.41,1,2.06,3.13,4.78.28,1,.31.7,7.33,8.34,3.17,2.68,3.65,2.28L491.9,340l2.1,3.3,6.61,6.21,1.79,1.11,2.89,1.13,2,.37.76.63.41,1,.28,2.68.34,1.25.55,1,.86.36.28,0,.86.18,1,.59,1.79,1.43,1.79.78,4.06.69,2.1.66.69.63,1.38,1.73.52.33.89.33,2.1,1.43.93.48,1,.22,1.11.22,5.85,0,6,1.32,2.3,0,8.3-1.36,8.23.44,12.7-1.47,4.2,1,.07.11,1.42.41,1,1.76.93,0-.17,1,.37,1.21.45,2.39,0,.85v1.1l-.45.73-.86,1-1.07,1-.89.4-1,.33-.89.74-1.35,1.58-1.79,1.39-5.13,2.54L568,388.83l-.45,2.43.28,2.57.76,2.17,1.1,1.5,1.37,1.29,3.07,2,3.17.95.79.59.69.7,9.4,4.15,8,4.19,3,.81.89.66.8.77,2,1.32,11.88,3.86,1.07.88h.34v-.48h.31l1,1,8.64,2.72,7.37,3.86,3.68,2.61,1.69,1.61,1.89,2.76.69.33.83.29,1.79,1.33,3.13,3.27.83.36,1,.26,1.82,1.18,4.34,1.06.55.33,5.16,2.06,4.82,3.42,3.93.7,1.69.8,0,1.51h.59l1.27-.4.76.14.21.41,0,.58.21.63,1.17,1.1.2.37-.27,2.86,4.13,3.35,4.61,2.53,1,.22.35.22,1,1.73.59.59,1.65,1.36,1.31,2.09.72,1,.89.4.45.44,3.38,4.48,3.13,7.32.21.4.27.29.35.15-.28.73.14.45.2.4-.06.62-.42.63-.82.62-.42,1.88-.65.73-1.83,1.32-1.13,2.8-.17.62-.21,1.36-.45,1.36-.14.62.38,1.62v.74L693,502.8l.14.51-.24.18-.52.92-.27.19-1.1-.08-.42-.14-.37-.22-2.45-1.88L687,502h-2.06l-.69-.11-1.24-.8-1.24-.56-1.55-1.43-1.82-1.21-.69-.26-.48-.33-3.21-4.7-.62-.59v-.44l.8-.07.44-.41.11-.73-.31-.92-.55-.55-1.35-.44-.55-.37,1.79-1.07.42-1.35-.69-1.55L672,482.48l-1.34-1.07-.72-.84-.35-.92v-1.21l-.1-1.07-.31-.84-.59-.55h.66v-.41l-2.48-1.94-.79-.26-16.87-.88-.9-.22-2.72-1.51-.48,0-1.07.11-.52-.07-.34-.26-.9-.84-.31-.19-.86-.22-2.75-1.58-2.82-1L634,466l-.66-.88,1.18-.51,1-.85.24-1-1-1.1,1-.37,2.45.44,1-.55.34-1-1-.07-2.14.66.11-.15.24-.29-1.07-.44-.89.37-.93.62-1.07.33-.38-.22-.28-.48-.24-.59-.27-.44-.52-.22H630l-.44-.18-3.79-.22-3.68,1.69-3.21,3L616.43,467l-4,5.65-1.11,2-1.17,3.71-.34.67-.76.44-1.82,3-2,1.73-.79.69-1,1.51L603,488.8l.14.77.72,2.39.9,1.91-.52.81-.79.66-.83,1.47L600.29,499l-1.73,3-.82,2-.07,1.91.62,1.76,1.31,1.62v.44l-.66,1.58,1.55,1.8,2.28,1.54,1.68.73,6.27.33,1.65.52.79.51.9.78.76.95.31,1,.44.48,3,1.47,2.35,1.91.89.26,1.24.14.83.41.58.7.62.91,1.07,1.22,1.58,1.17,1.79.88,1.76.15-1.83,4.3-.37,3.49,0,.85.17.84.35.7.89,1.39.17.74-.27,2-.9,3.64.11,1.87,1.17,2.32.2.51.31.33,1.73.59.68.11-1,.66-.52.44-.2.4,0,2.47,0,.36-1.69,1.47-.21.26-.34.26-.45.58-.76,1.29-.44-1.29-1.24-.22-1.41.41-1,.66-1.27-1.47-.76-.48-1.2-.18-1.14.07-4.85,1.29-5.58,2.46-2,1.43-.41.55-.45.41-3,1.5-1.24,1.18-.59.81-.51,1.76-.66,1-.62,1.11-.2,1.47.62.44.1.18,0,1.14.51,4.74.93,4.22v1.62l-.38,4.56-.41.84-2,1.8-.73,1-.51.15-1.55,1.29-1.58.51-4.79,2.46L588.44,600l-6.88,8.34-.9,2-1.34,6.61-.73,1.95-.48.81-.55.7-.65.59-.73.44-2.37.51-.72.33-3-.88-9.09.51-1.34-.36-1.34-.63-1.21-.77-.93-.84-1-1.33-.51-1.28.17-1.18,1-.92-1.31-2-.42-1.1.18-1,.72-1.14.31-1.06-.07-1.22-.45-1.46-.24-2.14.9-1.32,1.68-.73,5.13-1.55.49-.47.13-.33.73-.63.17-.33.65-2.79,3.79-7.68.66-2.68-.11-2.1-.79-1.76-1.48-1.62-.34-.25-.69-.3-.31-.29-.42-.66-.1-.33.07-.33.07-.63.41-.7.93-.51,2.1-.7,3.17-2.06,1.75-.8,2.31-.15,3.65.4.76-.18.83-.44,1.34-1.07,1.1-1.76.69-2.35.34-2.68-.07-2.65-.27-1.25-.52-1-.76-.59-1-.22-.72-.52L580,556.4,577.18,550l-2.06-14.8-.38-2.17-2-5.88-1.86-2.46-1.28-2.28-1.41-1.39-1.45-1-.41-.77-.41-1.58-.48-1.61-.69-2.39-1-1.69-.48-1-.89-6.39v.4l-.24-1.25-.24-.62-.38-.3-.07-.33L562,500l-.34-1.4L560,496.18l-.38-.88-.31-1.28-.76-1.07-1.72-1.76L555.49,489l-1.07-.88-.27-.48,0-.81-.68.3-3.79-.3-1.1.67-.9,1.32-1.79,1.1-1.51,1.84-1,.4-2.45-.33-.89-.33-1.48-1.87-.59-.15-.45.22-.51.18-.55.08-.55,0v-.44l.89-.74-.79-1.65-1.48-1.65-1.24-.77-1-.44-3.16-3.2-.73-.33-.86.11-1.51.4-.93-.14-.62-.41-.59-1.28-1-.92-1.38-.59-.48-.33-.45-.44-1,.22-.82-.63-.55-.25-.21-1.07,1.27-1.69.35-1.39-.35-1.07v-.62l.52-.26.59-.11.51-.33.45-.44,1.07-.41.31-.66-.11-1.84-1.13-2.16-4.38-9-1.37-2.17-1.31-1.62-1.31-1.28-1.38-1.07-1.51-.44-1.62.62-1.48,1.14-.62.15-2.65-.15-.62.19-2.1,1.8-1.38.25-1.38-.4-1.51-.81-.76.52-2.48.58-1,.85-2.31,1.17-.65.85-.66-.88-.1-1.36.52-1.18,1.1-.55,1-.07.38-.19.55-.44.34-.77,2-1.91,1.62-.59.18-1-.28-1.18-.69-.92-.89-.7-1.07.26-.79-.37-.55-.29-.62-.7-.8-.48-.89-1.06-1.83-2-.93-.66-.93-.08-1.37.15-1.24.4-.55.66-.45,1.25-1.07,0-.86-.95-1.51-.19-1.21-.7-.76-.25-.68.14-.31.59,0,.74.21.84.07.88-.38-.18-1.38-.22-.35-.44.59-2.61-.41-2.35-1.14-3-2.82-4.78-1.79-1.14-.59-.59-.17-.62-.1-1.36-.11-.63-1.34-2.57L465,418.77l-3.1-3.74-3.44-3-.69-.26-1.48.37h-.76l-.34-.59L452,412l-1.55,1,.58,1.91-1.58.07-.48-.07-.45-.48-.31-.62-.24-.3-.38.52h-.38l-1-1.1-7.85-3.57-1.93-.07-4.07.77-.89.37-1.83,1.14-1.82.58-1.21,1.58-1.13.3-1.17-.37-.42-.81-.17-1.06-.48-1.07-.59-.84-1-1.84-.65-1-2.83-3.13-1.51-1.24-1.59-.92-1-.33-4-.19-.72-.14L406,398.86l-1.24-.48-.59.48-.34.7-.83-.77-3.68-5.44-4.93-5.58-5.3-4.6-.76-.55-1.34-.4-.79-.63-.41-.14-1.52-.3-.38-.14-.79-.92-.41-1.14-.18-1.25,0-1.29-.24-1.25-.59-1.28-1.24-2.1-1.13-1.54-4.89-3.64-.59-.33-.44-.47-.18-.85-.31-.48-1.41-.18-.48-.26-.69-.73-.82-.7-.9-.59-.9-.44-3.89.11-.58.15-.28-.81-.65-1.25-.79-1.17-.69-.52-.41-.88-1.07-1.4-.24-.58-.14-1-.35-1.06-2.72-5.4-1.2-1.77-6-4.48-2.51-.66-3.45-1.76-1.24-.44v-.48L341,338l-.51-.19-.55-.07-.55,0,.38.44h-1.49l-3.71-1.32-.66-.08H333l-.82.22-.35.52-.17,1-.72,1.06-.14.81-.45-.18h-.52l-.34.11-.1.07L329,340l-.69-.81-1.41-.47-.59-.74-.41-1,0-.74.62-.84.69-.26,1.45.52,1.13-.08.76-1.06L331,333l0-1.58-.1-1.06-1.07-1.62-.38-1.17-.48.07-.58.26L328,328l-.65-.92-.45-1.21-.48-1-.83-.4-.17-1.25-1.2-1-2.41-1.36-.28-.77-.24-1.06-.28-.92-.44-.41-.45-.22-1.45-1.5L316,314.62,308,312l1.2-1,.49-1.06.07-1.21,0-1.51.17-.44.28-.26.17-.44-.24-.88-.48-.66-.62-.44-3.51-1.55L303,302l-2.48-.07-2.24.69.25.67.13.25-1.41.63-.93-1-1.13-3.24,1.27-1,.72-1.21,1.1-3.6-.17-.77V292l.21-1.4.34-.84-.41-1.1-.17-1.4-.11-2.64-.24-1.36-.55-1.29-4-7.94-3.2-4.22-.72-.81-1.62-.73-.48-1-1.14-5-1.55-15.76-.62-2.42-2.06-4.85-1.48-2.28-2.24-1.54-1.55-2.5-.76-.59-.93-.26L273,230.78l-1-.26-.79-.4-.52-.11-.2.29-.18.37-.41.26-.52.07-.44-.26-.8-.77-1.68-1.28-.83-.89-.55.37-1.62-1.39-.93.11.35.47-.24.11-.21.22-.24.11.24.56.31.4.38.26.48.14v.41l-.31.18-.14.22-.27.55.65.37-.17.33-.52-.07-.31-.85-.31-.55-2.44-1-2.55-2.24-.55-.29-1.38-1.25-.52-.26-1.44-.11-.62-.15-.52-.25-1.75-1.91-.31-.08-.35-.84-.82-.55-2.28-1-.62-.44-.48-.62-.24-.85-.62.26-.93.15-.86-.11-.38-.52-.34-.62-2.41-1-.35-1.47-5.27-2.79-1.61-1.14-.49.66-.37.7-.21.8.07,1-2.31-.84-.93-.7.1-.73-.92-1.55-1.42-.7-5.06-.88-2.44-.81-1.48-.8-.45.18-2.31,0-1.17-.25-.38-.26-.55-.74L209,205.5l-1.28.22-.62.3-1.44,1.14-.56.58-.34.22h-.38l-.41-.07-.38.07-3.1,2.1-.83.15-.61.22-1.24,1.14-3.72,2.35-1.1,1.36.27,1.28-.52.74-.13.36-.07.44-.14.19-.76.48-.27.22-.28.8.1.7,0,.7-.69.74-1.24.58-2.82.89-1.45.77-.75.66-.66.66-1.17,1.62-.17.47.07,1.07-.07.51-.31,1-.38.8-2.38,2.54L178.3,235l.75,1.36v.41l-1.17.22-1.48,1.65-1.3.51-.38.3-.31.36-.11.34-.27.51-.62.33-1.21.29-3.61,2.28-8.75,2-2.48,1.55-2.1.47-6.16,0-1.41.47H147l-.37-.33-.56-.18h-.51l-1-3.16-.24-1.65.79-1.36,2.17-2.28,1-1.51,2.58-2.09,1.14-1.18.38-.73.41-1.47.35-.81.55-.59.72-.51.55-.74.11-1.13-.21-.41-.59-1.17-1.1-1.07-.62-1.21.69-2.13-1.55-.3-2.06,1.29-1.45.11-8.75,2.39-2,0-.48-.11-.48-.44-.28-.55-.34-.48-.66-.26-1.3-.18-1-.4-5.34-3.09-2-.7-3-1.47L122,218l-.69,0-.58.23-.59.07-.69-.26-.48-.51-.2-.55-.18-.63-.31-.66-.48-.51-1-.67-.44-.44-.28-.51-.59-1.32-.41-.66-1.1-1.22-.21-.29-.17-.63v-.33l.14-.4.41-2.06.35-.55,1.68-.88-1.3-1-1.52-1.51-1.14-1.87-.17-2.06.55-.88,2.55-1.84,1.72-2.79.73-.51-.59-1.4.38-1.36.93-1.06,1.13-.59h.93l1.83.51.89,0-.31-.85-1.51-2.72-.21-.55L120.8,183l-.55-1.43,0-.08.24-1.06.11,0v-.33l0-.15,0-.22-.13-.4-.21-.33-.9-.92-2.51-1-.89-.07-2.48.44-.93-.22-3.48-1.87L107.51,174l-.86-1.36.1-3.71-.34-1.91-1.31-.92-1.76-.15-.55-.4-.59-1-.13-.59.07-.55L102,163l-.82-.7-.86-1.25.58-.74.76-.58.17-.15,1.72-.92.45-.07.93,0,.38-.07.45-.26.89-.62.38-.18,1.76.25,1.85,1,1.79.59,1.66-.74.1-.4-.31-.33-.21-.37.25-.55.41-.15,1.17,0,.45-.11.75-.62.87-1.4.65-.58,1.79-.78,1.79-.47.38.18.65.7.24.11.35-.33,1-1.62,1.38-1.1v-1l-.55-1.32-.28-2,.28-.4,1.62-1.8,1-1.73.45-1,.07-.84-.38-.26-2.17-.88-.66-.48-.41-.74-.34-.84-.35-.48-.17-.26-2.17-1.54-2.31-1.17-.37-1-.28-2.75-.21-.48-.55-.81-.1-.51.14-.55.58-1.18.14-.4-.31-1-.62-.41-1.65-.37-.66-.47L114.43,123l-.69-.22-1.31-.26-1.34-1-1-1.44-.55-2.75-.13-1.18,0-1.21.28-1.1.62-1,.79-.41,1.34-.4.45.18.34.19.28.44.31-.11.07-.3,0-.47,0-.34.34,0h1.27l1.07-.3,1.14-.55,1-.81.68-1.06.31-.88.42-.81.51-.63Zm272,134.8,1.55-.22.9-1.43,0-.19,0-.22.07-.18.13-.11,0-.11.38-.66.1-1.1-.17-1.11-.35-.62-1.44.22-1.62.77-.52.51-.75.74-.52,1.58.69,1.4Zm1.21,129.25h0v0l-.07,0v.08ZM371.8,689.36l1.93,1.8.69,1,.1,1.4-1.17,1.61-1.72-.22-1.76-1.25-1.2-1.43-.21-.44-.41-1-.14-1,.62-.44.21-.08.38-.29.24-.07.34.14.48.55.21.15.45.11.34.19.28-.08ZM385.57,621l.69,0,.52-.15.41-.26.45-.07.34.37.8.44.89.4.69.11-.55.7-.79,0-.8-.33-.58-.41-.76.37-.58-.15-.45-.47Zm163.76-22.63,1.51.15,2.86,1.25,1.79.29-.17.55-.28.26-.41.11-.52-.07-2,1.36-.72.8-.31.81-.17.88h.82l-2.48,3.93L547.88,612l-5.4,6.79-4.55,7-1,1.95-.86,1.28-1.24,1-1.45,2.13-.31.85.07.66.55,1.17.07.7-.21.63-.69.69-.17.63-.1,1.25-.62,1.83-.31,1.33-.72,2.27-2.41,2.83-1,1.73-.24,1-.11,1.14.14,6.1.21,1.06.34.85.38.51,3.48,1.91,1.89.37,1,.62.75,1.07.49,1.47L535,664l-.48.25-.31.74-.45.62.07-1.06-.28-.44H533l-.62.25.31.78-.79,1.25.59,1.94,1.06,1.29.86-.59.73.37v.44l-.93.11.14.92.72,1,.93.51,1.2.11.73.44.24.88-.28,1.51-.72-.4-.31.51.1.77.41.37,1-.11.45.22.41.77.18,1-.38.22-.55-.25-.24-.34-.31.12-1.76.95.34.44-.44.26L536,680l.21.4v.44l-1.21.07-.89.44-.76.52-.76.26-1.1.51-.79,1.21-2.55,6.43-.07.7-.62.59.25,1.21.89,2,.9,3.68,0,.77-1,1-1,.29-1-.26-.93-.77-.72-1-.41-.37-.59-.33-.69-.22-.48,0-.21.36-.55.44-1.27-.55-2-1.36-1.83-.66-1.79.26-3.31,1.69-.24-.51-.13-.15-.62.22-.83-.81-3-.4-.62-1.11-.65-.62-3-1.1-.9-.59-.83.18-4-.91-.58-.7-4.06-8.67L491,680.87l-4.58-4.37-3.55-2.28-4.13-2-1.9-.33-5.64.48-.45.11-1,.59-.52.18-2.2-.29-3.1-2.43-1.93-.73-2.14-.44-1.82-.77-1.62-1.11-4.27-4.18-1.48-1-1.75-.55-2.31-.37-1.79-.66-1.59-1-2.47-1.95-2.14-1.24-.93-.92-.45-.3-.65-.22-.55-.25-1.28-2.39-.27-.26-1.1-.62-.59-.74-.41-.37-.55-.14-.28-.22-.51-.85-.25-.22-6.16-.84-.76.36-.51.11-.48-.29-.31-.55-.31-1.25-.25-.55-1.27-1.36-1.58-.66-4.07-.52-4.09.15-4.17.7-1.93-.15-1.17-1-2.1-3.45-.82-.88-.73-.37-2,0-.9-.44-.86-1.06-.72-1.25-.49-1.07-.24-.92-.07-.8-.13-.74-.42-.73-.58-.74-.48-.84,0-.78.86-.4.07.26.72-.48.24-.22-.1-.18.38-1.73.1,0,.24-1.14.07-.55-.1-.29-.45-.7-.14-.55,0-.4v-.08l.14-.14,1.17-2.36.31-1.65.31-1,.07-.88-.55-.62,1.51-.63,1.34-1.47,1.35-1,1.58.55,1.55-1.06.65-.74.24-1,.28-.55.69,0,.79.22.65.07,1-.92-.07-1.54-.21-1.54.62-1.11.28.74.58,0,.59,0,.27,1.14L411.6,610l1.38,2.43.52.51,1.41.7.62.44,0,.55,1.59.92,2.17-.33,4.16-1.84,1.72-1.28.42-.48.1-.29-.1-.37-.07-.77-.11-.55L425,609l-.1-.55,1.76-1.51-.28-.55.28-.55.58-.4.59-.19.48.11,1.75.74,1.11.18,1.41,0,1.17-.55.45-1.4.75.3.59-.19.55-.33,1-.22.69-.33.38-.07.27.18.07.37.07.44.1.29,1.9,1.29.31.4.06,2,.18.59.72,1.73,6.16-.44,1.38,1-.1,1.06.1.59.31.7.52.44,1.48.62,1.79,1.47,1.44.88,2.34.48.69.37-.2.15v.07l-.14.22,1.1,0,3.24.48,1.1-.26,2.24-1.17,2.06-.48.69-.51.62-.59.69-.44,3.48-.59.65-.7,2.14,1.21,1,.41,1.17.15.72-.08,1.52-.4,6.13.88,2.92-.18,2.69-.74,2.37-1.25,1.62.77,2.41-.44,6.17-2.31,1.68-1.1,1.42-1.36,1.89-2.28.55-.22,1.65.11,1-.07,3.82-1,.72-.4.45-.22.48-.11,1.45.11.48.25.89,1.14.35.26.62.07,1.27.41,1.59-.11.51.11.21.22.51.77.28.29,1,.19.87-.33.86-.48,2.75-1,1.31-1.69,1.89-3.6-.17-.48-.07-.14,0-.15.2-.51-.17-.19h.28l.17.66-.28,1.51.24.81.59.44.86.15.89,0,1.45-.22,4-1.36L544,602l.58-.51,2-.92,2-1.88ZM521,590.27v.88l.82.37.55.59.42.73.27.85-.45.44-.58.44-1.17-1.1-.76-.92-.17-1,.69-1.29Zm-3-2.57-.41-.48.07-1.06.45-1.07.76-.44,1.68,0,.42.36-.38.89.34.29.41.44.28.18v.37h-1.34l.27.74.17.29.25.26V589l-.9.14-.69-.47-.65-.63Zm-2.23-4.7-.07.62-1.9-.81-1.51-1.21,1.07-.77,1.82-.07.79.22.49.73-.25.3-.13.29ZM193.55,550.15l.1.33.28.19.34,0,.31-.26,0,0,.1-.11.24.14-1,.85-.24.4.21.48-.48.88-.38,2.13-.48,1.69-.21.3-.55.14-.59-.07-.2-.33,0-.44-.2-.44L189,552.91l-.79-2.06.24-1.32v-.48H188v-.44l.72-1.29,1.28.85,1.58-.11,1.38.26ZM186,542.62l0,2.06.28,2.53-.31,1-.79.36-1-.11-.76-.44.14-.7V547l-1.24-1.25-.42-.81.28-1,.76-.52,2.27-.47Zm283.64-95.41-.51-.26-.76.08-.83.29-.65.37-.41-.37-1.14-.51-.52-.48.35-1.25.27-.59.45-.29-.17-.26-.21-.62h1l3.16,1.1,1,.66-.14.37,0,.36.17.52-.35.22ZM184.43,424.5l-1.17.89v1.76l-.25,1.43-1.85-.14.41-.59.2-.59.07-.62V426l.28-.51.65-.66,1-.78.76-.33.1-.77-.1-.88.1-.66.31-.07.89.11.21-.26.1-.3.28-.29.65-.48,0,.48.1.37.24.44.48.51.14.74-.17.77-.45.62Zm76.33,31.89,1.45,1.33.27.44,0,.62-.59,1.1-.17.63-.17,1.36-.42,1-1.1,1.8-.82,2.32-.62.84-1.11.33-.75.37-.59.84-.89,1.84-.66.74-1.24,1-.55.89-.41,1.21-.07,1,.21,2.68.1.59,1.17,3.27.52.81.75.37.42.33,1.1,1.54,1.13.77-.1,1-1.86,4.78-.31,2,.48,1.73.28-.22.38-.19h.27l.14.41-.17.58-.31.15h-.34l-.25.18-.37.81-.25.77,0,.74.31.7h-.34v.4l.24.11.2.22.24.11v.41l-.62.77-.44,1.32-.28,1.58-.07,1.54.07.81.24,1.54.07.89-.1.66-.48,1-.11.91-.1.41-.24.48-.24.66-.11.84.35,2.79-.14,1.77-1.24,4.11.83,1.11-.31,2-1.24,3.34-.62,2.76-.07.92.17.91.38.63,1.17.84v.41l-1.38.48L250.19,538l-.72,1.76.27,1.55-.38.55.18.36.34.33.21.45-.11.47-.48,1.25-.1.63L249,546l-.92.33-.83.59-.24,1.29-.38-.22-.17-.23v-.29l.24-.51-.79-.59-.8-.11-.75.22-.76.48h-.38l-.24-.59-.45-.33-1-.44-1.28-1.47-.27-.22-.52-.26-1.13-1.21-.42-.3-.55-.11-.69-.33-.62-.4-.37-.44-.35.48-.72-.45-.93-.29-1.83-.15-1,.41-.83.88-.55.88-.2.41-1.45-.48-1.17-1.07-2-2.35-.48.37-.42-.3-.41-.51-.41-.4-.73-.15-.55,0-.07.22.69.29v.44l-.24.52.28.29.41.22.14.33.07,0,.55.15,1.24-.29.27.33v.51l-.07.26-2,2.09-.62.88-.38,1.22-.13,1.39.13,1.25.31,1.1.38,1,.28.41.31.33.07.44-.8,1.32-.55,2.17h.38l-.55.37-.14-.08-.38-.29-.41.81-5.13,5-.34.15-.52.07-.24.18-.59.89-.38.25-.61-.18-.66-.51-1.14-1.07V562l-.72-1.22-1.24-1-1.38-.62-1.13-.15-1.1.48-1.31.92-.86,1.17.17,1.29-.72.44-.31-.44.41-1.18-.48-.33-.9,0-.79-.18v-.44l.79-1.07v-1.54L201,557l-1.17.29-.38-3.34-.62-2.72h-.37l-.42.37-1.17-.63-.82-.11.24-.33.44-1-.68-.48-1.11.66,0-.22-.21-.4-.2-1.07-.42-.77-.55-.33-.62.4-.2-.62,0-1.54-.17-.81-.35-.48-.48-.26-.31.11.14.63-.31-.22-.21-.33-.14-.44-.06-.56-.11-.66-.31-.18-.38,0-.27-.18-.35-.92-.06-.55.24-.44,2.51-2.87.28-1.17-.83-1.36.1-1-1.79-1.32-.41-1.21.24-.55.86-1,.28-.52.2-1-.07-.52-.72-1.69-.17-.18,0-.29.38-.7,1.38-1.73.69-1.06.82-2.06.59-1.18-.38-.47.41-.85-.1-1.21-.62-2.65-.14-2.86-.24-.66v-.44l.21-.59-.1-1.66.1-.33.69.11.44.37,1.55,2.43.86.91,1.07.37,1.41-.33-2.58-.77-.51-.51.13-1.07.66-1.07.75-.95.52-.77h-.34l-.18.44-.24.33-.27.29-.35.22.59-.62.55-1.07.41-1.14.18-.84.13-2-.07-.74-.41-.91-1.1-1.29-1.48-.84-1.55-.12-1.41,1,.34.4.17-.33.21-.07.31,0,.38,0-.59.4-.34.59-.48,1.58-.35-.44.45-.73-.31-.52-.65-.44-.73-.7-.17,0-.1-.11-.21-.44,0-.52.13-.4.18-.41.07-.44-.38-2.31,0-.74.62-1.36,0-.77-.66-.88-.72.37-.14-.22.38-.52.83-.51.17,0,1.51-.11.9-.33.38-.07.44-.29.52-.78.41-.95.14-1-.24-.84-.89-1.69-.21-1.18-.17-3.34.82-2.94v-1.91l-.69-1.4-1.06-1.1-1.31-.88-.38.48-1.1-.88-.14-1.25.55-3.31-.2-1.17-.52-1.69-.72-1.47-.8-.67-.89-.55-.41-1.25-.21-1.58-.38-1.43-1-1.1-1.21.07-2.58,1.51-1-.48.48-1.25.55-.92-1.14-.33-.86.66-.51,1.29-.24,1.47-.42-.92-.31-.95-.31-1.66v-.4l.83-.44.82-.59.59-.95.14-1.55.14,0,.24-.33.07-.37-.25-.18-.65,0-.28-.15-.31-.29-.72-1.18-.38-.4-.58-.18,3.79-8.67.31-1,0-1.18-.34-.95-.87-.37-.68-.48.17-1.1.55-1.18.45-.73h.38l.17.73.34.08h.48l.35.47,0,.56-.2.77-.11.81.21.73,2.24,2.87,1.62.91,5.61.78,2.82.8,1.17.11,1-.18,3.92-1.65,1-.85.83-.95.31-1,3.44-1.54,1.24,0,.89.11.66.37,2.93-2.17.86-.88,1.79-3,.62-.51-.11-.26v-.07l0,0-.21-.11,1.62-.59.48-.25.35-.44.51-1.11.31-.22.66-.36.86-.81.72-.92.76-1.58,1-.44,3.45-.4.72-.3,1.41-1.32.31.48.79-1,.31-1,0-2.64.41-1.14.93-.52,1.14-.29.93-.44.1.59.28.29.44.07.55-.14.52.84,0,2.24.55.44-.21-.29,0-.37.06-.47.18-.59h.34l.21.84-.07.19-.14.29v.4l.72-.11.28-.07.34-.22.21.29.83.59.13-1.54.83.26,1.83,1.72v-.44l.41.22.38.15.41.07h.52V417l-.28.22-.14.18-.1.26-.17.26.58.26.31.44.31.55.52.51-.31.48v.62l.31,1.51.55-1.29.35-.55.48-.33-.17-.29-.11-.26-.14-.18-.27-.19.62-.36.62,0,.65.19.69.14.31-.22.21-.33.27-.07.42.62-.35.48.48.3.31.33.28.14.31-.33h.34l.11.26,0,0h0l.17.11,0,.81-.17.62-.27.59-.56.66-.1-.33-.14-.3-.1-.29-.89,3.86-.45,1h1l-.35-.92.9-.4.58.14.17.59-.27,1H249l0-.07v-.18l0-.15.31.33.18.07h.2l.76-.69,1.38.07,1.44.51.93.56-.58.73-.76-.07-.83-.41-.75-.25-.86.44-.25,1-.17,1.14-.65.85.24.88-.69.22-2.27-.18,0,.33.07.07-.41.07.38.74.41,0,.45-.3.48-.07.52.22.93.55.27.11,1-.22.76-.48.72-.4,1,.22-.24.59-.28.4-.41.26-.48.07V435l1.82.88.28.22.1.77.28.37.41,0,.59-.4.34.58.48.37.59.22.65.11-1.65.55-.52.41.45.84v.37l-.79-.18-.62.33-.21.55.55.62,0-.7.31.81,1.41,1.88.34.88.18,1.14,1.54,3,.18.85.24,4,.17.62.24.51.35.19.68.14.21.41,0,.55Zm55.54-117.3.86.73.69,1.4.13.84.52.63-.83.77-.72-.41-1.89-1.87-.48-.81.72-.51,0-.81.38-.33Zm-22.76-29.76-.38.48-.24.66,0,.77.31.77-.34,1.1-.48.7-.69.48-.9.37,1,.4.86,1.06.27,1.22-.75.88-.24-.59-.38-.07-.52,0-.58-.29-.21-.33-.52-1.18-.14-.25-.65-.37-.69-.59h-.62L287,316l-.45-1.07-2,1-1-.84-.27,1-.24.41-.28,0-4.13-.14-1.14-.37-.89-.92-.28-1.73.52-1.14,1.07-.66,1.27-.37,1.07-.11.51.15,1.14.59.62.22.9.07,1.17-.07,0-.33,0-.07h-.07l-.21-.08.66-.48v-.55l.86.11,1.89,0-.24.95.55.37h.72l.38-.15.17-.59.38-.36.45-.26.35-.37.55-1.65.38-.7.61-.29.49.14.44.45.38.58ZM263.17,295l.1.14.11.15.17.15.38.92-.66,1.28-1,1.07-1.07,0-.86-1.36,1.14-2.46.93-.51ZM389.53,141l1-1.28.86-.59.93.22,1.17,1-.62-.33-.69-.11-1.44,0-2.76,5-.07-.4.42-1.18Zm25.55,607.59.35,0,.34.36.14.67-.21.22h-.79l-.28-.22-.27-.45.07-.33.31-.18Zm74.75-164.66-.17-.77.72-.26.17.77Zm11.57-2.61.17.66.28.33,0,.22-.62,0-1.1-.29-.38-.81-.07-.77.17-.08.9.22Zm-70.76-8.78.83,0,.52.37.07.22-1,1-.58.11-.59-.22,0-.48.24-.48Zm103.54-5.84.34.15.24.25-.1.52-.24.4-.14.41-.27.36-.35.26-.58-.15-1-.88v-.22l.38-.33.48-.22.24-.26.18-.29.34-.11Zm-91-125.43.27-.29.42-.08-.28.67-.62.33ZM403.1,770.66l0,.11.14.4-.14.56-.51.18-.38-.11-.24-.18h-.24l-1.93-.85-1-.26-.51-.25.38-.3h1.1l.58.15,2.31.22.41.11.14.11ZM375.45,619.22l.28.52.06.58-.72,0-.86-.59-.52-.81-.34-.66.28-.44.89-.07.55.36ZM244.82,413.08l.17.48,0,.29v.44l-.42,1.76.17.34,0,.33-.24.47-.31,0-.38-.52-.41-.33-.35.15-.24-.18.55-1.22-.21-.4.14-.59.38-.84.31-.56.41.08Zm-2.24.73.17.26.07.22-2,.44-.9-.18-.2-.55v-.52l.24-.25.34-.19.35-.25.24-.45.07-.55.2-.07.31,0,.31-.29.38.11.28.44.17.48V413l-.07.55Zm43.59-72,.45-.44.48.7-.14,1.1-.93-.26Zm-10.33-16.24.21.33.1.18v.26l-.14.44-.48.3h-.69l-.69-.22-.41-.37.14-.48.48-.18.52-.55.34-.89.24,0,.17.7ZM388.4,137.43h.89l.83.58-.07.78-.52.29-.75.44-.83-.18-.21-.89Z" style="fill:#efc441"/></svg>