<?xml version="1.0" encoding="UTF-8"?><svg id="Layer_1" xmlns="http://www.w3.org/2000/svg" viewBox="0 0 800 800"><path d="M718.85,116.57c-5.36-3.98-11.55-15.94-11.84-22.29-15.78-5.06-11.79,1.68-24.38,1.39-14.15-.33-38.7-6.75-51.55,2.79-1.4,5.49-.62,9.41,0,15.33-11.68,7.3-34.63,1.8-45.98,6.27,.95,.26-.7,.7-.7,.7-3.02,2.79-6.04,5.57-9.06,8.36-7.04,3.79-14,4.47-20.2,8.36-.93,.7-1.86,1.39-2.79,2.09-2.77,.39-2.26,1.47-5.57,4.88l-.7-.7c-9.63,3.69-21.21,7.06-30.65,12.54-9.81,5.69-17.15,19.87-23.69,29.26-8.94,12.84-26.65,21.97-34.83,35.53-.7,3.72-1.39,7.43-2.09,11.15-4.86,8.92-14.46,14.08-18.11,24.38-3.49,9.86-.07,17.98-3.48,25.78-4.1,9.38-14.11,14.79-17.42,25.78-2.36,7.84-.4,16.96,.7,21.6,3.74,15.81-11.47,29.76-20.9,33.44-2.21,3.9-1.58,8.18-4.18,13.93-5.22,8.62-16.26,7.25-25.08,12.54-3.95,3.02-7.9,6.04-11.84,9.06-23.47,9.4-58.12,5.36-75.24,18.11,1.02,2.37,.66,1.32,.7,4.88,1.86,.23,3.72,.46,5.57,.7,.7,1.16,1.39,2.32,2.09,3.48-.89,17.4-17.6,17.57-29.26,24.38-5.5,3.21-13.52,7.69-16.72,13.24-1.57,2.72-.35,5.89-2.79,7.66-4.73,3.44-52.23,13.13-57.12,12.54-1.77,2.49-5.64,10.18-7.66,12.54-3.72,2.79-7.43,5.57-11.15,8.36-1.78,3.19,1.17,4.95-2.09,6.97-4.88,1.63-9.75,3.25-14.63,4.88-2.4,1.94-2.97,5.7-5.57,7.66-.23,4.19-.35,6.04,2.09,7.66-3.05,6.5-18.51,15.17-21.6,15.33-2.47,4.16-.21,8.55-2.09,11.84-4.1,7.19-7.8,15-9.75,25.08-10.43,4.4-21.99,7.45-29.96-.7-8.25,7.6-13.86,15.57-16.72,27.87,8.47,17.6,24.46,24.76,20.9,47.37-.67,4.25,3.66,6.17-.7,9.06,7.98,9.65,21.69,4.19,27.17,10.45,5.72,.62,26.01-14.77,32.05-16.02,3.34-8.59,5.84-26.46,20.2-23.69-.64-3.8-.65-4.13,2.79-5.57-.7-.7-1.39-1.39-2.09-2.09,2.67-12.64,38.45-29.6,50.85-27.87v4.18c.7,.46,1.39,.93,2.09,1.39h3.48c-4.45-13.58,5.21-43.8,20.9-47.37-.7-.93-1.39-1.86-2.09-2.79,1.08-2.12,.75-2.24,2.79-3.48,1.19-3.19,1.16-.97-.7-3.48,7.5-6.58,8.52-15.22,19.51-13.24,.07-6.89,1.81-10.6,6.97-13.93-.7-2.79-1.39-5.57-2.09-8.36,1.16,.46,2.32,.93,3.48,1.39,2.1-2.1,7.89-8.19,9.06-10.45,1.59-3.08-1.64-6.8,1.39-9.75,4.15-4.04,8.41-7.97,12.78-11.8-1.47,1.15-2.95,2.29-4.42,3.44,1.59-3.23,1.98-3.05,4.88-4.88h1.2c.32-.27,.63-.55,.95-.82,.21-.42,.42-.85,.63-1.27h.7l-.93,.93c28.16-24,61.07-43.45,99.85-56.66,14.06-4.79,37.92-12.59,55.73-9.06,1.41,3.12,3.23,7.04,4.88,11.84,.46,.23,.93,.46,1.39,.7h2.09c-.23-1.63-.46-3.25-.7-4.88,.46-.46,.93-.93,1.39-1.39,2.09,.7,4.18,1.39,6.27,2.09,1.4-1.79,1.57-3.05,.7-5.57,8.34-8.73,21.1-5.01,28.56-6.97,3.95-1.63,7.9-3.25,11.84-4.88-.23,.7-.46,1.39-.7,2.09,6.45-1.92,8.7-6.77,16.02-9.75,18.99-7.74,44.34-15.01,62.7-20.9,7.54-2.42,13.84-6.38,20.2-7.66,2.06-.41,6.27,2.09,6.27,2.09,4.59-1.19,10.42-6.91,16.02-8.36,4.94-1.28,20.53,0,22.29-.7,5.3-2.09,32.17-21.85,34.83-26.47,12.62-21.95-4.15-62.03-5.57-83.6-.5-7.52,1.13-19.71,.7-25.78-1.59-22.16,2.81-45.51,21.6-50.16,4.66-6.81,1.81-11.68,1.39-21.6,10.57-13.65,8.63-25.32,16.72-40.4ZM276.49,496.24c2.62-3.82,4.97-5.23,9.06-7.66-3.02,2.55-6.04,5.11-9.06,7.66Zm140.02-172.07h-.7c.23-1.16,.46-2.32,.7-3.48,.23,.23,.46,.46,.7,.7-.23,.93-.46,1.86-.7,2.79Zm-4.18,29.26h2.79c.1,5.02,2.52,10.24,.7,15.33-2,4.55-5.66,6.03-11.15,6.97-1.39-.7-2.79-1.39-4.18-2.09-.23-1.16-.46-2.32-.7-3.48,4.18-5.57,8.36-11.15,12.54-16.72Zm-16.72,59.91c-21.93,9.82-40.22,22.54-62,32.74-6.06,2.84-10.88,10.46-17.42,13.24l-1.39,1.39h-.7c.93-2.79,1.86-5.57,2.79-8.36,11.25-2.86,16.42-5.08,14.63-18.81,8.92-4.28,18.45-4.63,28.56-10.45,8.71-5.01,11.86-15.79,24.38-14.63,2.75-1.85,1.66-.53,2.09-3.48,11.56-1.48,23.04,1.88,32.74-6.27,2.94,2.98,6.77,4.7,11.15,6.27-3.81,6.38-25.78,4.31-34.83,8.36Z" style="fill:#efc441; fill-rule:evenodd;"/></svg>