<svg xmlns="http://www.w3.org/2000/svg" viewBox="0 0 800 800"><path d="M181.72,505.12l.21.46.19.62,0,.54-.33.24-.26.23-.86,1.58-.31,1-.26.2-.58.46-.47-.24-.45-.37-.1-.53.52-.2.36-1,.65-.9.38-.2.55-.19.36-.48.23-.58ZM228.93,485l-.09.59.45.46.38.6-.66.46-.25.15-.3.05-.2.11-.09.28-.21.79-.05.68-.07.15-.13.07-.21.18-.26.61-.31,1.47-.45,1.08-.31,1.44-.5,1.85-.86,2.81-.94,3.2-.3.84.07.55,0,.34.21.75.31.51.7.26-.08.28-.36.49-.09.24-.62,3.29.12.9-.79.68-.31.35-.1.49-.09.06-.33.57-.1.29,0,.35.06.18.09.13,0,.13v.63l-.12.16-.31.33-.07.2-.24,1.42-.14.27-.32.46-.11.26v.22l-.07.18-.17.15-.09-.11-.07,0-.17-.07.1-.18,0-.08,0-.12-1,.18-.48,0-.39-.2-.12-.22v-.5l-.07-.29-.1-.19-.5-.53-.15-.24-.12,0-.19-.05-.55.15-.43-.34-.28-.22-.5.06-.53.15-1,.44-.38.29-.29.37-.43.75-.36,1.16.29.26.86.27.6.19.52.29.09.35-.07.22-.55.37-.23.44.47.18.81-.37.19.26-1.81,1.62-.69-.08-.62.19,0,.64-.24.39-.43.9-.29.42-.31.31-.4.29-.41.26-.41.17-.93.33-.64.18-.65.07-.67.28-.47.37-.15.27-1.07.28-.78.83-.41.4-.52.05.14-1.94.66-.63,1-.62.34-.3.55-1.92-.26-.52.66-1.14.24-1,.17-1.49,0-.55-.31-.85-.35-.88-.55-1-1.1-.72-.28-.77.33-1.28-.26-.5-1.46-.29-.45-.26-.26-.07-.27-.21-.19-.36.58-.78.61-.31.62.13.63,0,.6.15.26.5-.07.79.09.22.33.13.32,0,.25-.11.44-.48.57-1,.29-1.15-.13-1.09-.73-.68-1,.06-1.31-.52-1,.33-.79,1-.09.29-.09.78-.1.23-.69.81-.19.31-.22,1-.41.73-.33.84-.28,1.22-.05.57.12.62.74,1.69.31,1.21.28.59.39.24.35.13.51.79.93.11,0,.38-.29,1-.09.5-.17.61-.42.23-.5.19-.43.49-.32-.35-.28,0L201,524h-.36l-.38-.18-.12-.2,0-.43-.24-.68-.29-.42-1.1-.66-3.86-.13-.57,0-.65.26-.67-.06-.26-.44-.09-.53-.14-.44-.25-.63-.35-.38.29,0,.4.06,0-.35-.29-.51-.65-.68-.74-.61-.55-.33.65-.33.21-.07h.22l.35.13.2,0,.29.13.5.6.33.3.41-.7,1.23-1.18.27-.95.31-.48.29-1.06.16-1-.26-.73.33-.63,0-.53-.25-.48-.71-.82-1-1.51-.33-.26-1.17-.71-.4-.15-.05-.29-.26-.65.24-1.1.23-.24.82.31.31.15-.69-.71-.27-.45.45-.8.13-1.31-.15-.6-.22-.65-.28-.27-.1-.15-.4-.39,0-.55.32-.27.45-.64V497l-.6-.61.67-.82,1.05-.39.76,1,.5-.16.53-.37.31-.29.09-.2.24-.79v0l.08-.11.23-.09,0-.1,0-.44,0-.09,1.83-2,.25-.76.07-.16.33-.2.12-.15,0-.29-.08-.26,0-.28.19-.58.19-.06.65.64.25-.33,0-.35-.1-.84.12-.22.65-.9.53-.33.25-.74-.11-.77-.43-.42.23-.29.27-.12h.72l-.2-.38-.57-.48-.09-.37.14-.23,1.79-1.58.38-.5.29-.74h-.67l-4.1.79-.41.21-.34-.19.22-.4.45-.35,1.74-.9.53-.5.28-.14.39,0,.42-.14.2-.06h.24V478l-.34-.15-.28-.29-.17-.35-.07-.33.05-.2.11-.22.27-.39.11-.16-.06-.13-.08-.13-.05-.2-.31-.57-2-1.58L199,472l-.73-.42-.2-.54-.17-2,.05-1.31-.17-.57v-.38l0-.15-.14-.13-.14,0h-.13l-.11-.06-.53-.39-.17-.22-.12-.35v-.25l-.08-.15-.69-.09-.57-.17-.36,0h-.26l-.81-.87-.41-.29-.55.86-1,.74-.68.7-.59-.28.1.57.33.51.4.92,1.08,1.88.47.49-.09.61-.36.13,0,.64-.38.42-.63.17-.37.38-.36.22-.48.28-.26.13.43.2.26.39.53.4h.62l.42-.07,1.22-.9,1.6,0,.81.59.29.68.54,1.21.06.4,0,1,0,.27-.46.65-.11.4.24.48-.48.62-.89.46-.95,0-.22.2v.33l-.15.24-.43.06L193,481l-.21.11-.62.09-.43.33h-.38l.18-.33-.09-.46-.36-.21-.21-.23-.45-.22v-.61l0-.66.36.05.28-.13.34-.34.26-.23.33-.27.27-.29.23-.28-.07-.57-.3-.15-.22-.14-.1-.21.08-.16.11-.28-.3-.27-.75-.08-.26.21h-.29l-.83-.19-.74.3-.36.38-.43.39-.61.13-.44.24-.52.07-.19-.26,0-.26-.08-.09-.24.21.13.38-.31.5-.63.9-.35.51-.2.55-.52.41-.48.27-.36,0-.09.24-.14.46-.6.55-.57.44-.07.28-.15-.1-.35-.09-.34.2-.22.13-.16-.36.38-.32.31-.13.34-.14.19-.2.28-.76.27-.46.25-.44.08-.44-.1-.18-.26.16-.17-.18v-.24l.3,0,.15-.24.28-.08.2.32.3-.22.32-.7-.87.09v-.42l-.52-1.09-.26-.24-.21-.14-.15-.19-.07-.36-.12-.32-.41-.14-.26.25-.29.13-.3-.64-.58-.37-.28-.46-.22-.46-.09-.31,0-.35-.09-.38-.22-.28-.22-.26-.35-.11-.19-.9,0-.66.34-.31.19-.44-.1-.39.07-.49.2-.19.07-.88.47-.75,1,.46.38.55,0,.07,0,.28,0,.07h.07l.17-.15.14-.16.13,0,.11.22-.16.18-.38.68-.06.46.15.38.26-.14.36-.66.77.24.38.45.28.46-.19.26-.05.28.07.71,0,.46-.19.24-.16-.27-.12-.72h-.22l.07,1.06.36.3.08.49-.32.32.51.35.19.14.23.24.25.18.09.19.14-.09.1-.19.35-.16.15-.24.22-.44,1.31.46,1.31.57.4-.11-.45-.54-1.36-2,0-.87.23-.44.22-.68-.05-.62-.84-.62-.78-.79-.72.25L183,468h-.25l0-.58-.64-.45-.27.21-.29.36-.35,0-.36-.24-.1-.33-.24-.75.15,0,.26.07-.09-.53,0-.26.35-.15,0-.27-.27,0-.49.51-.13-.31-.06-.38,0-.39-.33-.13.07.64-.1.67-.11.22-.19-.08-.39,0-.19.33-.17.08-.11-.76.54-.12.08-.35-.1-.3-.22-.24-.28-.16-.26-.13.09-.26v-.18l-.09-.17-.19-.22-.19.15-.24,0-.27-.09-.43-.41-.26-.09h-.66l-.29-.44.28-.9.05-.5.22-.13.17,0,.26-.24-.05-.2-.12-.33-.33-.59.12-.82.11-.68.31-.32.7.66.61-.09.72-1.08.15.26-.07.82.61.28,1.08-.33,1.6.48.18.51.13.79.19.33.26.26.34.14-.08-.38-.17-.68.13-1,.31-.59.31-.31-.24-.35.18-.24-1.31-.85-.5-.57-.24-.29.25-.39.18-.44.36-.07.43.55.14.35.19.37.34.16.22-.18-.1-.42-.58-.74-.18-.95.45-.59,0-.59.39.39.42.11.62-.35.8.47.49.57-.12.3-.28.37-.12.33.31.18.24-.28.1.32v.27l.21.28.35.14.7.1.29-.15.3-.31.1-.74.28-.29.77-.33.45-.17.29.09.26-.22.1-.07.33-.06.34-.14.3-.26.15-.38h-.31l-.81.2-.24-.09-.07-.41-.2-.09-.31-.06-.13-.14,0-.22.14-.24.28-.24.25-.06h.24l.26-.09.43-.37-.07-.36.14-.33.29,0h.28l.22,0,.18-.09.17-.19.08-.77.31.17.3.2.12.26-.24.29.1.48.36.22.16.11.5-.11.1.24-.26.46.19.16.31.18.12.08.14-.15.15,0,.09-.14.26-.39.38,0,.68,0,.38-.16.45-.06.22-.33.07-.46.12-.59-.1-.22-.1-.33-.5.3-.45.38-.31.17-.33-.21-.27-.16-.17-.17-.28.1-.31-.26-.14-.53.12-.23.28.06.14.44.34.24.53.07,1-.46.38-.36.34-.41.33-.31.41-.15.19-.29.38-.46.07-.59-.09-.53-.27-.06-.19-.22,0-.38.12-.15.19-.11.26-.2.14-.22.27-.92.21.22.27,0,.57-.38.23-.24.07-.19.15-.14.41-.09,1.19.11.54-.08.53-.42.76-1.14.2-.09.31,0,.31,0,.36.18.62-.36.86,0,.95.15-.17.58.36-.16h.66l.24.36.24.54.41.2.41-.06.31-.23.38-.56.21-.64.69-.57.77-.25.28.29-.09.62-.22.37-.07.18,0,.19-.28.4.22.31,0,.41H212l.09.29.05.22-.15.24-.12.19-.4.29,0,.39v.12l.1.1.5.12.53-.12-.08,1,.07.24.08.77.26.6.78,1.35.34.86.43.55.54.31.43-.05.65.13,1.08.18.78.26.93.07.69.68,1,0,1.12.18,1.25-.2.14-.22.91-.83.42-.46.2-.64.37-.42.56-.28.78-.13.55,0,.41-.05.43.16.52.3.5-.06.5.08.55.77.6,1.08.41.75.19.61.07.63-.27.8.2.85-.24.62-.46.94-.07.7-.22.09-.57-.29-.42-.21-.46.19-.12.42.08.48-.1.38-.62.15-.22.13-.12.46-.5.09h-.5l-.22-.18-.37-.41-.69.09-.18.67.31,2,.44.36.49.19,1.61.07,1.07-.57,1.15.53.28-.49,1.27.51L233,462l.72-.24.85-.48.46.06-.52.88-.27.64,0,.46-.19.2-.4.17-.45.55-.1.51-.43.74.83.44.65-.48H235l.29.13-.68.46-.4.46-.14.35.43.22.26-.13.38.05.26.26.34,0,.09-.33,0-.39H236l.21.48.18.28.23.16.22,0,.23-.09.15-.17.12-.68.45.83-.1.38-.64.17-1-.06-.4,0-.17.55-.4.5-.1.86.29.21.52.51h.36l.24.44.28-.11.24-.07.15.09.14.18.17.08.31-.15v.15l.1.14.21-.09.32-.42.66.13.51.11.07.29-.5-.07-.51.26-.47.11-.77.6-.31.44.1.19.24.12.1.21-.25.49-.23.2-.2.11-.23.17-.2.35.32,0,.74-.11.14.16-.17.41-.4.34-.46.19-.36,0-.47.46-1.19-.15-.24.63v.91l0,.15-.12.11-.11.08-.06.09-.07.49,0,.44-.19.13-.36-.49-.29-.13-.14.4-.4.26-.3.53-.33.28-.12.14-.07.13V480l0,.09,0,.22-.11.33-.44.81-.14.18-.35.11-.51-.05-.11.13-.15.51-.41.88.07.37.25.33h.43l.16.07.45.52-.49.57-.55.13-.41-.17Zm76.19-40.52.81-.19.47-.18.27.16-.46.28-.78.37-.92.46-.33.35-.88.12-.22.5-.73.06-.22.82-.6.13-.21.46-2,1.4-1.34.49-.71.57.31.35-.62.7-.09.35-.19.22-.32.13-.35-.1-.34.24.09.52-.06.37-.43.34-.58.72-.73,1.42-.75,2.53-.17,1.12-.23.86-.07.41-.12.77,0,.68-.34.37-.48-1-.4-.66-.36.07-.53-.15,0-.62-.69-.72-1-1.36-.36-.94-.73-.27-.7-.33-.67-.7-.44-1.05-1.75-.2-2.31-.59-.6-.53-1.69.26-1.62.4-.46.41-1.07.47-2.05,1-.38.72.13.47-.4.41-.62.25-.59.1h-.41l-.26.06-.2.13-.26.22-.47.66-.12.07.07-.53-.17-.07-.17-.13-.5.33-.59.53-.36.63.09.58-.16.35.07.26.16.2.08.22,0,.15.1.09,0,.15,0,.22-.1.11-.12.07-.05.11-.12.7-.31.41-.36.33-.3.22.07.64.19.2-.4.24-.13-.35-.35,0-.63.79-.83,1.44-.62.84-.26.39,0,.46,0,.27-.21.13-.38-.28-.55-.33-.88.46-.41,1.12-.17,1.14.36,1.36-.17,1-.31.2-.72-.05-.16.35.07.51-.05.63.36.22.17.34.21.26.48.44.33.43.26.55v.57l-.65.25-.45-.24-.19-.14-.14-.21-.24-.58-.12-.22-.45-.35-.6-.24-.57.11-.29.66-.22-.5h-.35l-.38.25-.34.37-.45.26-.51,0-.49-.17-.36-.18-.72-.64-.45-.46-1.17.31-.93.81-.19-.63.09-.8.57-.78.43-.93.74-.83.31-.38.1-.37-1.74,0-.33.07-.22,0-1.07-.73-.43-.15.35.4-.49-.05-.41-.19-.31,0-.17.63.15.07.21.24.16.09-.43.2-.43-.07-.35-.28-.45-1,.55-.46-.29-.64.35-.46.13-.22-.51-.92-.24-.51-.78-.1-.53-.23-.59,1-.34-.09.45-.72-.09-.42.28-.35,1.1.5.5-.07.29-.37h-.52l.16-.44v-.41l-.16-.27-.34-.11v-.19l.57,0,.1,0,.1-.09.19-.22.07-.22-.27-.09-.73,0-.24-.18-.14-.41.07-.36.52-.17-.24-.33-.28-.2-.36-.24-.21.31-.43.06-.08-.5.64-.18.63.14.35,0,.05.37.41.31.19.37.5-.37-.07-.53.28-.44.56-.13.31-.28L251,462l-.31-.24.43-.36-.43,0-.41.16-.14-.27-.27-.11-.18-.19v-.42l.5-.38.45-.13.09-.2-1-.06-1.66.37-.49-.17-.27-.2-.3-.09.14-.35.19-.11.42,0,.18-.16.06-.19.08-.84-.46.38-.3-.36v-.68l.44-.57v-.2h-.35l.1-.24.14-.19.21-.13.22-.09-1-.64-.46-.06-.47,0-.25.15-.3.15-.36-.21-.74.52-.64.2-1,.53-.86.48-.76.53-.25.46-.23.32-.41,0-.33-.19.23-.49-.93.57-1.21.68-.38-.11.48-.5.56-.33,1.08-1,1-.33.45.12.33-.14-.24-.26,0-.24.4-.26.72-.29.55,0,.48-.32h.61l.72-.62,3-1.51.41-.36.17-.5.16-.27.72-.89.23-.18.53-.5,2.55-1.06.41-.42.69-.46.77-.79.52-1.23,0-.9-.14-.83.22-1.1.19-.79.16-.83,1.06-.18.07-.74.36-.64,0-1.21.73-.52,1.22-.81.38-.47,1.43-.39.08-.5.19-.27-.1-.53-.5,0H260l.05-.29.45.07.35,0,.34-.65.29.48.18.13.13.2.26.17,1.38,1.69.72,1.85.23.52.2.44.23.31.53.24.48.24.5.05L267,441l.9-.2.88-.26.12-.55.75-.28.54.08.57-.3.46,0,.48.22,1.38-.09.58.13,1.21.44.62.05.53-.16.42-.31.32-.37.28-.39.38-.44.84-.75.33-.46.19-.55.17-1.38-.05-1.29-.14-.53-.19-.4-.33-.41-.41-.35-.41-.25-.38-.31-.35-.54.52.32.76.31.7.16.43-.16.45.47.74-.23.76-.61.57-.57.69-.55,1.55-.74.77-.47.22-.32.19-.4.23-.37.31-.16.22,0,.41-.15.25,0,.24.07.36.27.46.12.3.27.27.09h.24l.4-.16.22,0,.88.22.19-.22.31-.64.4.47.15-.18.05-.44.07-.26.4-.07.24.18.14.33.08.39v.82l.12.32.4.11.2-.13.56-.66.1-.24.53.42.57.2.28.35-.35.87,1,.57.33.07.31.13.55.55.35.13.67-.11.31,0,.13.2.09.24.26.31.6.48.72,0,.68-.51,1.65.09.53-.26.31-.07.33-.57.08.35-.25.35-.16.42.4,0,.45-.52.48-.18-.16.4-.34.48,0,.26v.24l.05.16-.48.11.27.07.24.11.35,0-.21.4-.26.46-.08.31.05.19-.43.71,0,.77.09.54-.16.11-.17.53,0,.2v.3l.14.6.12.26.17.13.33,0,.05-.33.26-.07.36.75.29.51.83.52-.14.27.31.17v.49l0,.45-.31.31-.1.29-.33.13-.29.18-.4.68.36.21,1.41-.06v.2l-.22,0-.24.13-.23,0ZM265.68,375.1l.37.61-.31.82-.61.77-.51.52v-.9l.07-.92.29-.7Zm-.77-.26.07-.16.51.29-.51.13Zm-.41-.31.34,0,0,.25,0,.24-.36.1-.36.14-.17.53.07.34.07.22,0,.18-.27.2-.23,0-.22-.08-.17-.12-.07-.15,0-.29,0-.15-.14-.06h-.24l-.24.14.06.33.28.55-.24.32-.33-.06-.41-.27-.4-.41.5-.6L263,375l.6-.6.47.18Zm8.76,51.27-.26.62-1.79,2.3-.4.35-.75.37-.35.09-.29,0-.14-.29.14-.22.31-.11.34-.08.24-.11.25-.51-.26-.35-.54-.17-.63,0v-.22l.46-.37-.26-.57-.48-.18-.45,1.53-.41.4-.45.28-.32.36.5.41.17.62-.16.57-.43.26-.19-.08-.31-.29-.12-.05-.14.07-.29.27-.46.21-.57.57-.24.14-.43-.22-.14-.53,0-1.21.12,0,.28-.3.4-.57.25-.2.11.29,0,.48-.1.37.5-.11.36-1,.53-.11v-.22l-.39-.35-.47-.26-.27-.05h-.26l-.24,0-.26-.15-.36.22.17,1-.67.55-1,.27-2.68.26-.73.31-.75.52-.42-.72-.46.24-.48.59-.52.33-.41.07.05.22.22.3.14.33-.17.22-.38.09h-.76l-.58.2-1.18.79-.74,0-.12-.11-.1-.2-.07-.21-.05-.09-.22.06-.12.13-.09.14-.09.09-.67.37h-.29l-.24-.37.38-.42-.24-.38-.43-.43-.31-.75-.35-.39-.08-.14,0-.39.1-.24,0-.24-.13-.36.17-.06.31-.13.2,0-.12-.33-.22-.22-.52-.27-.39.24-.5.14h-.5l-.91-.54-.55.06-.95.51-.85.66L243.08,432l.22.42.18.62.05.45.08.67-.12.74-.29.33-.34.24-.3.46-.07,1.32.3,1.2.05,1.08-.79.95-.61.28-.37.07-.18.24,0,.75.14.56.53,1.13,0,.48-.3.35-1.1.63-.75.66-.5.31-.38,0,.08-.52.54-.4.08-.15.18-.46.06-.24.21.3.29,0,.26-.21.11-.42-.09-.55-.26-.28-.31-.2-.29-.24-.45-.25-1.58-.56-.55-.11-.16-.12-.62-.9-.27-.17-.69-.29-.26-.15-.57-.51-.46-.3-.47.11-.53.7h.34v.18l-.88,0-.29-.17-.05-.49.74-.61.43-.42,0-.2-.23-.06-.36-.27-1.46-.55-.95.35-.38-.1-.31.22-.79.33-.29.08h-.67l-.12-.09-.09-.19-.12,0-.21.31.23.35.08.38-.12.33-.34.17-.19,0-.11,0,0-.09v-.2l-.08-.26-.14,0-.14.09v.09l-.79-.27-.22-.13-.45-.46-.24-.13-.36.17.12.24v.14l-.13.24-.07,0-.24.22,0,.19-.09.11v.11l-.05.11-.2.11-.18-.06-.15-.16-.12-.22-.09-.19-.12.3-.14.2-.18,0-.23-.13.23-.41,0-.55-.11-.46-.25-.2-.18.2-.69,1.31-.58.83-.28.27-1.24.79-.36.06-.2-.39-.19.09-.23.06-.19-.06-.08-.2-.05-.28h-.12l-.16.1-.19.09,0,.05-.16.15-.19.15-.22.07-.12-.11-.07-.24-.26-.33,0-.35.13-.24v-.14l-.23,0-.84-.64-.52-.92-.77-.2-.93-.33-.55,1-1.14,1.3-.91.79-.16.68-.25.26-.42-.32-.14-.23-.36-.17,0-.39.48,0,.26-.71-.05-.33.15-.45.09-.34-.1-.33-.19-.24.17-.72-.21-.37-.65-.07-.12-.31-.11-.41-.15-.29,0-.33.29-.5.32-.31.33-.2.29-.26.26-.5.05-.38-.06-.28-.12-.2-.14-.77-.35-.61-.07-.33,0-.11-.39-.31-.12-.28.1-.23.17-.21.1-.2.09-.93.09-.37.17-.35.27.13.42.05.36-.05.15-.24.18-.09,1-.24.4-.19.55-.18-.4-.35-.36,0-1-.22-.25-.11-.16.26,0,.07-.31-.09.12-.37.22-.33.28-.26.45-.35.32.11.33.28,0,.33.2.15.33,0,.38,0,.34-.13.24-.17.35-.12.62.35.41.11.47-.06.17,1,.33.28.46.05.16-.33.32-.46-.44-.49-.09-.2,0-.39.55.15.36-.13.69-.13.45-.13.31.29.41.61-.38-.05-.38-.3-.26-.05-.29.11-.19.27-.14.35-.12.41-.07.42.19-.08.31-.23.19-.08,1.22-.05,1-.28.29-.7.76,0,1.24-.26,0-.9.33-.34.76-.76.13-.27-.19-.59.19-.15.52-.11,1-.73.4-.43.36-.47.1-.33.06-.68.19-.15.51,0,.28,0-.05-.25v-.5l.06-.53.47-.17.36.17.67.18.36-.27.07-.26.17-.11.8.09.86-.11,1.12-.33.81-.37.44-.22.45-.27.12-.7.09-.26.19-.4.55-.11.14-.22.56-.54.83-.75,1-.74.6-.88.33-.33.49.15.16-.42.07-.66,1.2-1.09.54-.46.65-.53,1.46-1.14.5-.64.88-.17.57-.25.59-.43.24-.9.77-.58.57-.43.24-.29-.07-.33.4-.44.14-.44,1.49-1.18.71-.59.86-.36.05-.39.47-.15.63-.33,1.14-.35.45-.31.32-.55.3-.51.2-.78.07-.51v-.4l-.08-.45-.43-.22-.57-.38-.19-.35.29-.29.52-.08.65-.18h.5l.83,0,.34-.1.17-.14-.25-.22-.49-.22.28-.06.41-.13.57-.13.74-.42.83-.35.67-.14,1.44-.06.61-.16.6,0,.09-.75.44-.07.59.11.48-.17.22-.48.23-.36.32-.21.44.15.24-.37v-.42l.36.13.36.37.53.46.38.23.85-.29.43,0,.44-.31.14.15-.17.29.12.11.27,0,.19-.11.5-.22.52-.06.55,0,.43.27-.33.2-.36.09-.29.15-.43.13-.31.4-.07.08,0,.37.16.36.1.43.76.47.88.46.79.15.5.13.48.05.45-.05.58-1.07,1.31-.59.83-.36,1.36-.33,1.32.36,2.48.57,4.53-.36,2.45-.68.67.53,3.47-.52,1.62-.31.62-.2.48-.35.31-.64,1.23-.24.24,0,.24-.05.38-.46.93-.32,1.32-.49.79-.5,1-.57,1.34.41,1.44-.15,1.11,0,1.89-.09.79,0,.38.11.52.14.2.37.54-.39.45,0,.1.35.31-.09.45.15.29.09.52-.42.15-.1.26-.09-.11-.38.71-.5.57,0,.46,0,.4-.28,1-.73,0-.41,1.27-.38,1.24-.26.68-.09.41-.28.6.44.28.56.38.25.39.61.29.7.06.51-.18.42-.51-.33-.5.37-.31.64L319,390l-.24.25-.7.81-.43.7v.59l.19.16.26,0,.05-.55.33-.26.35-.51.32-.23.14.63.29.13.14.13-.22.16h-.24l-.31,0,0,.5,1.59.88.36-.16.22-.19.28.5-.16.4-.12.28-.24.59,0,.23.13.37.28-.24.24-.49.33-.5.44,0,.61.29.19-.18v-.76l-.71.17-.6-.28-.31-.82.58-.5.33-.11.72,0,.33-.11.26-.24.24-.31.1-.33.59-.38-.12.49-.16.46.45.18.33.21-.11.47,0,.3,0,.2v.15l.25.05.18-.09.18-.24.24-.49v.55l-.09.55,0,.42.47.17h.95l.24-.11.5-.28.22-.37.48-.46.62-.33.52.26-.12.15-.59.24-.17.86-.33.22.59.18,1.29-.35.7,0,.35-.24.26-.46v-.6l-.69.35-.31-.57-.43-.17.36-.5.81-.25.24.2.21.46.53,0,.43.55.41.15.59-.24-.26-.11-.19-.24-.38-.66.07-.22.29-.07.26.23.36-.11.37-.18-.07-.22-.19-.17-.17-.22-.09-.44-.1-.11-.35-.42-.12-.39.29,0,.45.33.33.27.34.22.86-.2.21.3.24.2.5-.31.29-.33.5.09.24-.13,0-.41-.47-.36.24-.63,0-.46-.1-.36-.35.07,0-.85.64-.34,1-.79.35.58-.05.26.19.48.2.57-.12.37h-.26l-.12.33.42.33.1.35.53-.1.14-.53.17-.16.07-.19,0-.42.24-.33,0-.3v-.56l.17-.5v-.5l-.29-.58-.3-.52-.15-.38-.54-.45-.92-1-.47-.44.05-.86,0-.7-.59-.74-.34-.4.15-.81.61-.37.32-.38.45-1,.33-.72.31-.92,1.24-1.56.38-.71.31-.46.36-.76-.38-.68.12-.2.52,0,.44.08.86-.39,2.07-1.78.48-.75,1.22-.57.9-.77,1.2-1.29,5.27-7.07,1.26-2.1,1.79-4.31.12-.57v-.76l-.19-.16L357,350l0-.3.22-.53.17-.88-.19-.59-.45-.4-.27-1.07-.28-.22-.05-.66.21-1.56-.14-.48-.31-.24-.26.08,0,.34-.5,0-.15-.39.1-.79.19-.73.21-.5.37-.4-.18-.35L356,340l.33-.57.19-.48-.22-.38-.07-.87.69-1,.86-.49,1.48-.79,1-.28.57.31.79,0,2.77-1.51.68-.15.49-.62.57-.46,3.57-1.14,1-.22,1.14.44.26.35-.19.61.05.35.35.27-.07.41-.14.23-.66.21-.43,0-.51-.11-.48.2-.37.24-.18.48-.23,1,.29.7.47.07,0,.46-.07.44-.17.34-.45.42-.19.29-.53,0-1.11-.23L366,339l-.39.68-.55.73V341l-.42.28-.55.16-.13.41-.33.2-.86-.35-.5-.35-.36-.29.27-.35.09-.2H362l-.25.3-.27.09-.1.26-.26.47-.61.78-.31.9.4.16-.07.64-.14.24-.48,0V345l-.19.38.35.22.46-.11.54-.29.48.09.76.86.41.15.6-.26.52-1.23.36-.24.21.13.17.59-.12,1.76.13,1.73-.68.86-.06.77-.94,1.33.45,1.08,1.2.75.69.65,1.19.42.74.5,1,.07,1.1-.22,1.45.26.86-.19.43-.6.85-.54.27-.84.35-.55.12-.52.15-.47-.14-.61.33-.77.52-.35,1.3-.7,2.19-.42,2.45-.57,3.11-1.32,2.24-.83,2.58-1.65,1.36-.59.59-.61.53-.66,1.67.29,1.09-.22.94-.46,2-1.46,2.82-2.82,2.86-1.72.69-.77.46-1,.66-1.31.93-1.45,1.48-1.25.7-1,.48-1.18,1.11-3.91.43-1.14.77-.93,1.83-1.47,3.27-2.21.2-.29.59,0,1-.13,2.1-1,.57-.4,1.65-1.21,2.6-2.79.43-.61.19-.57.74-6.41.28-1.18.5-1.3.93-1.67,1.27-3.09.47-1.3.7-1,2.24-2,.79-1,.67-1.21,1-3.88,1.06-2.87.24-.93.18-1.14.17-.52.27-.56.11-.61.05-1.29.14-1,.32-1.17.38-.79.81-.37.79-.88.64-2.54.71-3.05.27-6.1v-.93l-.52-1.33v-.75l-.29-1-.57-.83-1-.92-1.14-.58-1.1.18-.33.33-.24.37-.27.27-.47.11h-1.63l-.23-.25-.34-.81-.19-.33-.55-.68-.1-.66.38-.22-.47-.28-.09-.88.09-.55,1.07.73,1.43.65.55,0,1.13-.73.93-1.05,1.86-3.42.38-1.39-.12-.68.36-1,.21-.43.22-3.1.11-.68-.31-.42-.33-.3-.88-.84-.45-.48-.08-.5.08-1.37-.07-1.38v-.74l-.3-.31-.05-.53-.34-.48-1,.09-.48-.22.08-.59.5-.53.5-.55.65-.13.31-.73.54-.26.26-.5.43-.77.27-.77,1.21-.83.58.08.66.51.31.17.38,0,.44-.15.36-.38,1.09-.79.53.25.54-.16.44-.39.33-.53.64-2,.32-2,.18-.59,0-.77.11-.68.06-.88h.09l.4.72.22.22.31.16.19.22.33-.07-.18-.77-.15-.3.19-.2.21,0,.27.07.29,0-.08-.28-.14-.17-.5.06-.27,0-.45,0-.16-.16-.08-.19-.18.15-.17.13-.08-.13,0-.81,0-.38-.55-.92-.44-.24-.43-.07-.43-.08-.06-.33.26-.16.64,0,.57.11.41-.42.22-.7.09-.63-.1-.31,0-.35.07-.8.21-.3-.07-.4.1-.22.43.38.5.31.31.13.45.5.67.84.65.46.55,0,.69-.46.35-.71.58-.21,1.16.21,1,.82.26.74-.14.84-.07.94-.08.31v.41l.14.68.1,1,.33,1,.47,3.6.75,1.36,1.24.57,1.19-.13.79-.88.54-.54.46-1-.12-.22-.07-.37.09-.23.1-.11-.2-.08-.23.08-.15-.1-.18-.16.23-.11.29,0,0-.26,0-.22.24-.18-.05-.2.09-.15.25-.61.16-.09.36.06.29.42.61.06.25.11.23.4.22.28.38.31v.18l-.05.08-.07.18-.05.26.12.07.29,0,.5.14.6.37.31.11.28,0,.24.18.15.33.25.44.22.15.48.29H467l.54-.2.41-.39.53-.64,1-2.42.24-.9.14-2.15.16-.5,0-.27.14-.39.29-.24.23-.33.14-.59-.19-.95-.37-.85-.51-.84-.74-.87-.57-.38-.57-.06-.21.48-.17.26-.22.29,0,.13.15,0,.14-.22.17-.19.07-.07v.11l-.05.17-.26.38-.84.7-.47.13-.55.44-.36.42-.6-.07-.73-.33-.34.09-.36-.11-.36.22-.43.51h-1l-.43.32-.38-.1-.32.08-.87.59-.34.55h-.41l-.81-.52,0-1.26v-.37l.33-.35.15-.9-.1-.53.33-.87.15-.77.09-.59v-.27l.31-.26.2-.86.11-.74.24-1,.41-.39.76-1.19.36-.28.07-.16.15-.63,0-.4-.16-.35.11-.13.08-.33.18-.27.32.44.61.36.34.41.34.37.38.22.26.11.45.11,1.1.09,1.07.55.89,1,.42.54.51.36.11.26.27.33,1,.63,1,.45h1.05l.78-.22.84-.4.71-.57.53-.5.43-.4.31-.37.07.13.09.22-.18.19.09.31,0,.11-.21.13,0,.13.12.12-.06.35-.31.35-.14.5-.19.66-.21.57-.38,1.78-.12.85v.31l-.32,1.91.08.73.1.32-.1.36v.44l.05.35-.25,2,.05,1.69,0,1.39.07.39L474,228l.44,2.91.37,1.76.82,2.44.31.63.23.36.7.78.33.22.4,0,.27-.24.41-.09.16.29.19.35.86.66,1.45,1.6.24.28.7.93.19.61.43.31.26.46.12.33.36.79.07.2.07.39.19.27.45.54.67,1.23.29.81-.19.36-.26.09-.22.26-.14.33.09.3.31.24.69.27.31.24.29.64-.28.39-.46.38-.26.65.14.77.31.48L487,253.7l.27.14.28.09.2.15.14.68.12.35,0,.33-.11.31-.31.39-.07.22.28.57.15.26.18.22.15.27.09,1,.08.4L489,261l.07.14,0,.17.09.22,0,.26-.1.24-.28.31-.07.14-.19.74-.06,1.41-.07.46-.35.7-.1.44.15.42,1.16-1.17.6-.11-.14.29-.05.22.05.17.14.18-.22.53.08.34.71.68.12.09.1.11.05.18v.31l-.12.13-.14.11-.07.22-.16.11-.87,1.07-.4.24-.83.31-.34.33.45.55.63-.07.57-.44.26-.59.19-.18.36.22.19.33-.31.18-.15.18,0,.46,0,.52-.15.2-.53.05-.25.08-.22,0-.27.07-.25.17-.53.5-.29.2.64.29-.26.42-.67.5-.56.5.5.18.55-.18.52-.33.35-.32.06.76-.49.46-1.24.55.2.14.16.21.08.27-.2,0-.43,0-.21,0,0,.41,0,.42.83,0,.37-.07v0l.07.66-.5.5-.68.23-.61-.09.09.46.29.19h.83l-.26.53-.52.33-.65.16-.65.06.44.44,1.21.9.1.37-.57.25-1.39-.45-.45.42,1.07.55.29.33-.27.11-.31.07-.31,0-.31,0v.24l.25.15.37.29.18.3-.2.13-1-.24-1,.14-.52,0-.44-.33v.46l.14.36.19.33.17.37-.29,0-.24.06-.35.4.38.15.14.29-.09.3-.34.13-.33-.11-.32-.3-.28-.35-.17-.31.33-.16.18-.3-1.06,0-.33.34.07.65.12,1.32.59,1.58.12.64-.56-.38-.06-.15-.09-.42L480,289l-.13-.09-.14.06-.16.07-.19.06h-.48l-.24.09-.1.29,0,.59.05.61.09.27-.05.22-.37.39-1.06.81-.23.4.26.15.17.22.26.49.45.37.14.31-.16.48-.15.13-.14-.09-.14-.15h-.15l-.12.09-.33.44-.24.19-.62.2-.26.16-.45.35v.19l.28.31.29.15,1.17.07.09.2-.19.44-.26.44-.15.2-1.12.87.41.38.4.5.39.2.36-.44.33.5.14.46,0,.51-.1.64-.28-.07-.19-.18-.14-.26-.1-.31-.36,1.17-.14.3.14.09.07.11,0,.11.09.13L476,303l-.27.17,0,.18.17.35v.53l.26.3.3-.24.48-.08.48.13.29.41-.38-.15-.34,0-.29.17-.19.42.6.37.1.62,0,.68.33.48-.14.24-.31.84-.17-.07-.69-.7-.16-.09-.37,0-.16-.09-.09-.22.09-.2.1-.17v-.16l-.23-.24-.81-.41.12-.2.23-.66-.29-.28-.21,0-.23.1h-.32l-.29-.1-.26-.14-.55-.52-.52-.22-.72,0-1.9.44-.67.26-.55.46-.22.73.07.72-.13.05h-.44l-.11-.21-.41-1.3-.21.15-.22.07-.21-.06-.2-.16-.47.33-.38.44-.25.55-.14.61.24-.13.29,0,.23.11.12.28-.07.24-.21.16-.26.15-.24.2-.89,1.05-.74,1.17-.54,1.14-1,3.77-.17,1.32,0,1.31.31,2.27,0,.1.65,1.21.86,1.56.3,1.1.08.44.23.31.12.41v.62l-.07.26-.26.42,0,.19.11.2.34.46.07.29.35,8.4-.14,1-.55,2.26v1l-.18.42v2.87l-.06.33-.43,1-.35,2.72-.34,1.1-.88.84-.21.08-.63.13-.83.55-.6.18-.38.42-.19.11-.21.17-.07.35,0,.53-.12.33-.1.28-1.05,1.61-.24.52-1.21,4.63-1.39,2.4-.38,1-.35,2.22,0,.48.33,1.2,0,.49-.21.79-.94,1-.38.66.05,1.14.31,2.61.79,2,.92,2.5,3.59,6.26,1.05,1.47.28.57.26.15.19.05.13.06.23.15.14.25-.28.74-.21.26-.34-.22-.17-.28-.3-.29-.63.14-.81.37-1.26.44-.12-.5-1.38.32-1.63,1.12-2.84,2.62-1.52,2.3-.93,3.34.49,1.58.18.85-.22,1.28-.12,1.14-.12.78-.41.6-.73-.11-.46.68.07.48-.31.37-.45-.1-.22-.4-.4.44-.64-.07-.39.66-1-.08-1.12-.09-.52-.14-.72.77-.14.66-.63.49-.5,0-.86.63-.76.53-.26.4-.15.54-.28.42,0,.51-.05.56-.26.4-.23.28-.43.34-.63.13-.45.06-.31-.11-.38.07-.31.07-.12-.14-.41-.22.07-.3,0-.4-.31-.26-.81-.33-.55-.05-.12-.26,0-.35.31,0,.46.08h.28l.34-.07.31-.17.16-.25.34,0,.45.13.17-.11.12-.28-.05-.42-.29-.22-.52-.2,0-.31.29-.28.09-.35-.06-.33-.24-.59-.05-.33,0-1.08-.43-.7.07-.39-.07-.44.14-.42.68-.48.33-.29,0-.66-.47-.79,0-.66-1-.37-.65-.26,0-.11.54,0,.55-.35,0-.57.34-.36.16-.52,1.2.37.38-.44V397l-.19-.93.33-.35.69-.24.46-.42.59-.08.6-.44.34-.55.55-.68.76-.9.47.08.19-.44.1-.37-.4,0-.08-.59-.09-.55-.4-.35-.39-.48-.38-.31-.6-.57-.33.09-.31-.37-.83-.11-.75.32.48.77-.69.38-.38.31L436,390l-.3-.06-.22-.2-.16,0-.36-.16-.17.26-.15.44-.33-.26-.09-.46h-.34l-.17.59-.28.48-.36-.45,0-.71-.26-.39-.17.68.25.94.42.62v.37l.34.86-.29.39,0,.44,0,0-.2.29-.85.55-.77.59-.66.11-.53-.2-.38.09-.24.33.52.22.44.26.18.18-.14.41.14.55h-.31l-.62-.3-.37.28.16.4.38.35-.07,1.14-.12.39,0,.49-.06.39.25.35.17-.39.31.22.43.7,1,.11.28.5-.48.47.08.13,0,.09,0,.12-.1.45-1,0-.55.46-.16.48.26.57.24.31.12.27-.25.11-.26.06-.59-.15-.39.24-.24-.05-.12-.26.12-.31,0-.67-.33-.84.57-.29-.1-.24-.4-.15-.17-.44-.71-.92-.08-.22-.14-.33-.31,0-.1-.62-.45.18-.5,0-.5.11-.5-.41-1.31-.16-2.13.44-1.21.25-1.22.33-1.25.67-.95.86-.09,1.56.4,1.43-.93-.4-.83,1.21-.29,1.07,0,.66.76.13-.1.57-.12.57-.26.44.34.68.76.29.29.7.16,1.12-.19,1.05-.55.11-.5.33-.28.42-.1.42-.24.59-.4.5-.17.46-.22.31-.42.09-.19.31-.2.22-.31.41.1.35-.14.2-.2.42-.09.55.05.55.16.46-.3.17-.24,0-.19-.2-.6-.28-1.14,1-.87.47-.66.54L409,421l-.34-.33-.29-.38-.59-.65.17-.47-.1-.24-.19-.17-.19,0-.17-.11-.14-.3,0-.53-.05-.61.31-.25.14-.33.31-.09-.38-.94-.27-.94.24-.49.12-.52-.05-.07v-.63l-.18-.29.24-.44.35-.33.33-.06-.3-.48-.1-.29-.26-.73,0-.72.38-.72.24-.69,1,.07.72.15.5,0h.46l.35-.31-1.36-1.45-.38-.65-.88-.68-1.5-.4-1.2-.13-.81.37-.67.33-1.28.05-.81.55-.67,1.38-.74.55-.08,1,.31.29v-.62l.34-.24.28.07-.43,1.12-1.18.64-1,.45-.74.36-.83.46-.36.41-.15.47-.26.44-.21.57,0,.3.27.57-.38.57-.27.29-.54,1-1.1.81-.84.81-.36,1.58-.21.57.19.6.6.15.38.42-.17.24-1.08-.2-3.6-1.62-2-.36-1.88,0-2.53.84-2.73-.95-2.22-.19H377l-3,.28-2.21.62-5,1.77-1.13-.13-1.28.39-.34,0-.38,0,.19-.37.15-.22.31-.59.26-.88.52-.53.71.77.08.2.16.21.2-.24,0-.13.42-.24.39-.17.37-.16.75-.53,1.1-.68.47-.24.57-.81.39.09,0,.64-.11.48.21.06.16-.54,0-.57.58.17.21-.2-.71-.3.21-.57.09-.34-.07-.21-.59-.71-.46-.33-.33.14-.53-.2-.57-.2-.38.42-.34-.14-.09.56,0,.56-.45.2,0-.63-.36.09-.42-.2-.48,0-.5.11-.36.28-.36-.28-.57.23-.55-.08-.26-.09-.39-.59-.18-.16-.48-.54-.46-.2.1-.79.52-1.21-.11-.79-.22.39-.33.8-.46.72-.17.44-.14.55-.26,1.6.28.37.27.53.64.33.22.66v.52l-.65-.06-.81-.38-.9-.54-.55-.35-.29-.38,0-.5.25-.55.09-.53.21-.52,0-.44-.21-.6-.31-.46-.39,0-.12-.72,0-.71,0-.59,0-.5.25-.51.26-.53.33-.57.22-.54.36-.55.07-.82.07-.56-.34-.12-.36.95-.21.68-.12-.64,0-.44-.33-.11.24,1.41-.67.15-.11-.64h-.24l0,.75-.48.11-.67-.18-.18.09-.5-.13-1.1.81-.57.51-.22.46,0,.18-.12.3,0,.14.05.19.43,0-.39.33.05.56-.23.68-.56,1.08L352.3,415l-.76,1-.19,1.34-.14.59-.07.64.07.15.26.48.1.11.26.15,0,.35-.12.42,0,.31.27.42.43.17,1.12,0,.52.14.4.35.34.41.38.36,1.88,1.23,1.29.56.27.27.28-.09h.34l.35.11.24.18.17.37.05.31.07.3.24.29.33.13.26,0,.24,0,.2.29,0,.35-.23,1.11-.31-.15-.29,0-.24.11-.21.28.12.2.19.18.25.1.32,0-.39.37-.14.2-.14.24.21.31.15.51.07.55-.12.48-.24.2-.9.34-.37.09-.43,0-.61-.17-.48-.27-.05-.33.38-.13.53.11.5.22.31.2-.05-.2,0-.27-.06-.15.32.22.19-.64-.24-.41-.48-.15-.5.15.07.2,0,.1,0,.09,0,.22-.86-.61-.41.35-.78.15-.58-.11.13-.5.38-.6-.41-.1-.78.24-.65.37.47.15,0,.35-.31.36-.81.33-.36.32-.4.05-.46-.53-.14.18-.12.08-.05.11,0,.25-.69-.36-.26,0-.12.35-.14.27-.17.19.24.49-.31,0L350,432l-1.11.75-.28.29h-.81l-1.2.61-.95.9-.05.86.29.24.21.11.07.17-.16.42-.12.15-.21.13-.22.09-.19,0-.28-.13-.31-.59-.18-.11-.18.16-.39.65-.3.2v.24H344l.27.09.16.24.07.38.44.48.23.31-.07.15L345,439v.81l-.05.26-.38.17-.27-.17-.23-.33-.15-.33-.35.37-.34.29v.18l.57.11.17.41-.15.29-.43-.18-.13.53-.18.18-.87.15-.1.07-.21.23-.24.38-.13.09-.3,0-.53-.05-.88,1.34-1.32,3.41-.59,1.44-.07.11-.26.88-.48.31-.1.52-.5.23,0,.41.54.33-.35.46-.84.92-.47.16-.24.39-1.43.46-.46.25-.29.32-.38.66.19.59,0,.36-.45-.11-.29.35-.15-.55.43-.5-.14-.4-2.45-.27-.77-.13-3.69-1.4-1.17-.29-.89-.7-.29-.26-.26-.33v-.42l.14-.33-.3-.55-.15-.19-.14-.05-.26-.28-.43-.09-.36-.42.4-.68.91-.13.57-.09-.26-.37-1.29-1-.49-.23-.22-.37-.46.05-.74-.53-.81,0-.07-.49-.83-.5-.58-.72-.52-1.12-.86-.51-.47.09-.87.13-.16.17.05-.3.14-.2-.24-.15.17-.14h.38l0-.37-.22-.37.38-.35.41-.37-.15-.12-.43,0-.06-.55.42-.44.53,0,.36-.17.64-.33.22-.46,0-.44-.24-.27-.5-.3-.55-.22-.41-.05.5-1,.06-.06.21-.09.09-.07,0-.13v-.28l-.19-.44.66,0,1,.05.07-.4-.26-.5-.34-.62-.43,0-.35-1.26-.39-.44-.68-.54-.79-.24.26-.55.84-1,2.62-.74,1.19-1,.64-.63,1-.93.84-1.18.49-.51,0-.72,0-.33.45-.15.21-.27.22-.24.16-.54v-.66l0-.9-.21-.73-.1-.75.24-1-.39.18-.42.15-.45-.24-.55-.59-.6.05-.76,0v.77l-.84.09,0-.71-.87.29.56,1.21-.79-.12-.17-.67-.46.08-.06.71-1.82.34-.79.36-.86.09-.73-.51-.94,0-.47-.1-.58-.71-.74-.31-.5-.43-1.38-.9-.83-.29-1-.79-.45-.29-1.2-.3-3.26.3-.17-.06-.14-.09-.13-.06-.18.11-.12.1-.15.11-.16.07-.15,0-.33,0-.26-.11-.13-.26v-.44l-.15.06-.17.11-.13.14-.05.22,0,.24-.07,0-.12,0-.14.08-.64.88-.22.14h-.34l-.28-.17-.21-.18-.2-.08-.33.13-.27.26-.14.33.05.35-.69,0-1.27-.33-.71-.09-.69-.32-.29,0,.19.5.26.11,1.31.29-.19.06-.5.09-.18.05-.49.74-.13.11-.18.07-.42.28-.45.11-.18.07-.38.28.17.14.19,0,.24,0,.24-.14-.29.68-.74.53-.88.35-.74.13-.36-.13L289,421l-.47-.13h-.86l-.4.07-.63.41-.43.16-.3.3.13.49.32.19.36-.28.68-.75.43-.17.46-.07.41.11.26.37,0,.53-.29.35-.41.26-.31.29.07.11,0,.06.08.25-.72-.25-.41.67-.33,1-.43.68-1.95-.35-.94,0,.12.73-.81-.16-.35-.61-.29-.75-.64-.56-.17.11-.15-.12-.12-.3-.06-.33-.17.22-.43-.18-.36.18-.4.28-.72.27-1.12.59-.26.2-.07.22-.17.17-.19.09-.46.09-.17.11-.14.15-.16.11-1.55.62,1-1.13.32-.65-.53-.27-.28.07-.55.39-.29.14h-.65l-.3.14-.1.5ZM536.67,119.87l.4.19,1.14,0,.46.11-.89.31-1.11-.22-2.08-.76.1-.22h.47l.59.11.55.18Zm47.05,25.26.33,0,.83.24.31.16-.17.3-.21.13h-.57l-.26.14-.43.63-.32.14-1,.21-.24.14-.36.39-.27.07-.74-.15-.38.1-.19.2-.14.29-.24.33-.67.63-.19.26-.16.36-.2.79-.16.39-.15.26-.71.88.35.2-.31.07-.5-.05-.52-.13-.65-.39-.43.06-.78.24-2.56,0-.56.28-.55.51-.68.28-2,.27-.38.15-.33.26-.15.46.09.59.3.12h.44l.39.16-.22.3-.26.12-.95.1-.08.14,0,.2-.19.28-.58.35-.62,0-1.21-.37.48.79.14.35-.1.42-.24.22-.35.11-1.67.26-.86,0-.77-.29-.67-.61-.05-.31.06-.4-.06-.35-.47-.15-.29,0-.16,0-.14,0-.18.07-.18.15-.27.42-.17.09-.23.19-.26.4-.2.48-.09.38.16.46.34.37.4.29.31.33-1,.35-3.58-.81-2,.17-.65.35-.78-.13-1.88-.62-.2-.17-.24-.26-.11-.29-.08-.37-.17-.31-.33-.15-.57,0-3.51.86-3.55,1.62-3.91,2.66L534,165.63l-3.81,3.13-1.6,1.87-3.2,4.79-2.5,4.39-.43,1.36-.17,1.55.29,1.81,0,.74,0,.66-.13.74-.68,2.62-.28.66-.69.59-.31,1.45-.29.44-.38-.13-.58-.44-.52-.51-.22-.33-.26-.59-.57-.64-.64-.57-3.91-2.5L508.05,185l-5.32-3-2.17-.67-4.51-3.08-1.48-1.47-1.36-1.54-2.66-.35-2-1.29-1.38-1.56-.43-.22-.54-.15-1.77-1-2.29-.57-2.25.05-2.19.48-3.06,1.18L470.43,175l-.69.31-.5.46-.29.09-.31,0-.29.09-.28.13-1.93,1.36-.46.46-1.43,2-.4.37-.27.11-.31.06-.33,0-.31-.13-.15-.18-.23-.31-.14-.3.11-.11,1,.18.22-.07.07-.35-.31-.22-.71-.22-.5-.38-.22-.24-.16-.26-.25-1.3-4.22-4.63-1.19-.5-.6,0-1.64.28-1.8-.3-.64,0-1.09.5-1,.84-.91,1.07-1.4,2.33-.53,1.29-.38,1.39-.19,1.47.26,1.45.75.83,2.57,1.34.83.62,1.86,2,.46.2.59-.07.94-.32,1.62-.14.48-.13.5-.24,1.52,1,.39.88,1.21,1.66.41.38,1,.64.41.41,1.65,2.09.45.39.5.26.55.16.65.06.59.14.6.35,1.91,1.71.43.61-.26.27-1.15.17-.57.22-.43.27L464.92,199l-.93.37-1.17-.32-2.15-1.15-1.26-.41h-1.24l-1.13.66-.56.15-.22-.46.19-.46.4-.29.27-.33-.15-.57-.45-.42-.62-.19-.6.09-.49.39-.25.57-.4,1.38-.28.59-1.49.75-.26.24-.28.22-1.34.37-.43.2-.5,1.15.24,2.61-.26,1-.81.57-3.16,1-.38.31-.47.5-.38.61-.15.66-.28.53-.6-.09-1.19-.55-.27,0-.43.18-.23,0-.31-.11-.63-.46-.28-.11-.34-.26-.26-.61L439,206.1l-.76-1.86-.1-.67.12-.68.48-1,.41-2,1.29-2,.3-1.3.12-.15.55.06.2,0,.23-.31.07-.3.05-.71,0-.21-.15-.27,0-.18.1-.17.17-.13.26-.15.05-.38,0-.52.11-.2-.18-.51-.13-.61,0-.6.17-.5-.84-.92-1.27-2.2-.85-.83-2.51-1.08-.45-.57,0-.13-.14-.17-.48-.93-.24-.17-.78-.27-1.14-.89-.27-.35-.24-.79-.26-1.28.12-.64.31-.65,1.05-1.65.26-.72.33-1.47v-1.45l-.42-2.42.26-1.23.84-1.18,1-.46,2.43-.13.6-.14.41-.26,1-1.29.25-.18.26-.09.3,0,.22-.13.21-.31.63-1.27.35-.46.43-.14.57.42.56.92.38.4.52.11.55-.4.17-.76,0-.75.19-.33.46-.26.36-.6.64-1.32.4-.48,1.72-1.64,1-.7.44-.53.16-.62-.26-.46-.38-.52-.19-.75-.17-.46-1.2-1.67-.85-.85-1-.75-.74-.88-.23-1.32.78-2.43,1.24,0,.62-.13.48-.33.12-.29.09-.35.08-.31.21-.19.36,0,.31.24.26.27.21.11.43.19,2.15,1.52.45.41.75.91.52.41,1.81.81.26.25.37.48.25.17.34.11,2.58-.39,1.91-.75.57-.06.28.17-.24.44-.21.57.45.59.25.07.95.13,1,.4.62.13.52.3.33.07.45,0,.34-.07.67-.35,1.93-1.4,1.69-1.74.67-.94.63-1.25.44-1.43,0-1.51-.31-.86-1.41-2-.28-.88.05-.64.31-.56.43-.6-.48-1.29-.21-.31.07-.61-.58-1.43-.16-.75.16-.61.36-.79.67-1.17.43-.41.57-.35.58-.25,1.09-.17.48-.17.45-.29,1.43-1.12.77-.9.64-1.14.45-1.51.2-1.35.09-1.36-.38-6.93.26-1.17,2.05-3.68,1.13-5.71.11-1.47-.33-4.1-.74-4L482,93.55l-3.39-6.94-.29-1.42.22-1.47.14-.24.51-.58.19-.32.12-.35.06-.31.08-.31.54-.88,0-.53-.29-1.07,0-.51.05-.56.21-.53.45-.44.29.2.17.28.06.35v.44l.14.33h.31l.59-.22,1.17-.13,1.24-.33.86-.59.25-.09.19-.17,0-.4V76.3l0-.33.4-.55.64-.51.63-.15.4.33.43,1,.26.4.34.17.42.26,1,1.8,1,1,2.17,1.54,1,.89,8,9.35,1.88,3.8.41.66.88.57,1.22,2,4.86,5.26.82.4,1,1.6,1.54,1,1.91,1.92,2.15,1.63.52.17.39.2,1,1,.44.39,1.09.25.29.19.43,1,0,.18.69.76.22.18,3.7,2.15,5.63,2.08v.22l-2-.24-.36.24.11.22.6.58.15.22.35,1.25.24-.14.1-.11.38.36.31.21.34.11,3.69,0,.2.07.71-.77.43-.33.4-.13,3,.17.84.38.47.37v.11l-.33.08-.45.23-.34.43-.54,1.6.83.36.36,0,.34-.18.28-.32.28-.49.22-.55.09-.52.36-.95.69-.26.51.39-.19.93.31,1,.26.42.4.17.2.25.42,1.07.22.25.22.12,1.09.79.39.18.88.26,3.53.58,4.27.33,1.21-.22,1.08-.68,2.93-3,2.25-2.51.28-.39,1.79-1.07,1.19-1.17.44-.17.43-.35,1.23-2.16,1-.89.49-.58.21-.66.12-.17.23-.15.24,0,.2.64.45.76.14.37,0,1.41-.57,1.23L571.74,120l-.29.68-.24,1.6-.22.53-2.29,2.76-.64,1.07-.55,1.17-.42,1.19.26.59-.15.68-.29.63-.23.73-.36.48-.09.37,0,.44.07.24,1,2.2.35.5,1.63,1.67.33.44.28.57.18.64.07.72.09.26.36.31.14.53.31.81.65,2.75.54,1.25.84,1.12,1.21.89-.8.12L572,146.64l-.72-.17-.24.24-.06.39.16.33.39.14.45.1.43.22.14.22-.41.14.43.5.74.35.82.22,2.14.18.58.28.64.51.12-.4-.22-.24-.29-.27-.13-.45.16-.22.95-.79,1.05-1.12.31-.22.65-.16.33-.19.17-.2.09-.24.13-.22.31-.2.37-.07,1.18.07.21-.07.33-.32.15-.07.16,0,.12.09.07.08ZM31.62,720.39l.5-.11,1,.17,1,.29.6.35,0,.74-.5,1-1.09,1.37-.53,0-2.65-.7-1.58-.11-.38-.33.39-.75.11.07.06.06.19.07.23-.35.26.13.29.24.34-.11.14-.29.12-1,.31-1,0-.24.08-.26.17,0,.21.09.16.19ZM11.2,718l.35.13,0,.29-.19.33-.31.24-.28-.11-1,.11-.23-.13v-.31l.16-.31.27-.2.31,0Zm33.37-3.1.07.35-.14.27-.19.24-.26.51-.88,1.35-.34,1.21-.16,1.23-.31,1.08-.74.77-.88.11-.92-.25-.47-.54.53-.68-.25-.2-.11-.33-.15-.31-.43-.13-.43-.09-.26-.18v-.21l.43-.11.17-.2.26-.48.1-.11.33,0,.09.14,0,.21.14.11.2.18.23.15.27,0,.59,0,.27,0,.26-.15.26-.38.19-.52.26-.46.41-.18L43,717l.81-1.69.35-.49.17-.1Zm428.25-5.88.21.33-.21.13-.38,0-.29.1-.26.29-.45.7-.32.2v-1l.07-.38.17-.33.31-.19.46-.05.45,0Zm-401.66.2.45.11.55.28.47.35.19.33-.23.22-.51.14-1,.15-2.1,0-1-.22-.06-.52.12-.35.31-1.6,0-1-.08-.33-.28-.5,0,0,.31,0,.26.13.14.11.1.13.19.33.31.79.19.37.12.18.79.81.19.07ZM218.75,678l.55.46-.17.15-.15.2-.12.26-.05.29-.12.24h-.28l-.28-.07-.46-.22,0-.35.2-.41.38-.47.12-.11.16,0ZM107,664.31v.26l-.07.29-.14.26-.16.18,0,.13,0,.11v.09l-.16.08-.15,0-.19-.11-.12-.17-.07-.18-.19-.4-.47-.21-.55-.16-.39-.24-.16-.39.23-.29.43-.2.44-.09.26,0,.45.07.45.24.34.35Zm386.88-8.47-.29.06-.16.14v.26l.14.33-.52-.38-.52-.89-.7-1.69H492l.12,0,.22.17.11.24.19.13.25,0,.31,0v.21l-.29.22,0,.22.25.13h.37v.22l-.13.1v.11l-.05.16.22-.11.12,0,.07.11Zm-348.46-4.35-.12.11-.07.16,0,.21.13.22.08.24-.12.22-.15.18L145,653l-.34.71,0,.1,0,.38,0,.11-.1,0-.11,0-.08,0-.81,1.42-.53.55-.66.22-1.14.05-.32.15-.19.19-.23.29-.18.35-.09.24.09.11.13,0,.12.1v.25l-.08.22-.09.08-.14,0-.62.23-.46.08-.47,0-.39-.18-.48.66-1.33,1.41-.29.19-.31,0-.23.12-.1.44-.17.11h-1.76l-.26.06-.2.13-.33.46.1.22.3.13.26.18.12.39.08.82.14.37.26.37.53.46.24.38-.45.13-.49-.16-.52-.24-.52-.13-.31.22-1.29,2.37-.15.49-.07.54.17.36h.41l.47-.11.34.07-.24.61-.43.75-.53.51-.54-.11-.32.28-.42.75-.38.15h-1.46l.12-1.07-.51-2,.05-.68.5.07.5-.51.36-.75.19-.57.46.07.33-.44.19-.57.07-.33-.07-.61-.36-1.26-.11-.61.05-.66.23-.29.41-.06.84,0,.31,0,.3-.15.12-.29h.08l.38-.73.05-.15.85-.5,1-.31.88-.46.57-.92.07-.51-.18-.37-.37-.22-1.17-.18-.23-.33,0-.44,0-.52-.21-1,0-.22.17-.06.86.06,1.14-.08.57.11.34.37,0,.24-.18.26-.1.29.17.4.23.13.26,0,1.06-.27,1.36-.85-.2-.49.2-.35,1-.81.12-.17.12-.56.19-.13.17,0,.08-.09.21-.42.95-.59.22-.39.1-.53.4-.92,0-.62,1.93,2.09ZM493.84,643l.33-.14.36,0,.31.11.21.29-.17,1-.4.27-.5-.31-.46-.77.86.4-.09-.26-.14-.23-.15-.19ZM154.51,632.49l.05.1h0v0l.09,0-.22.39-.71.42-.36.31-.38.73-.24.26-.31-.11-.14.44-.2.08-.25-.06-.19.06-.32.25-.38.08-.36-.1-.33-.23-.14-.3,0-.37,0-.34.06-.28.12-.26.13-.07h.2l.38-.07,1,.14h.47l.41-.24.4-.33Zm7.24-10.32.28.24.34.22.28.26.14.38-.14.48-.6.85-.28.56-.33.35-.39.3-.35.13-.44-.17-.19-.4-.07-.43-.07-.2-.55-.16-.09-.41.21-.79-.52-1.61.14-.35.1-.46.16-1.12.14-.13.37-.13.81-.4.47.58.29,1.68Zm7.75-8.95.72-.12.55.49.07.59-.65.22-.45-.44-.07-.06-.07-.12-.13,0-.12.11v.19l-.14.22-.16.13-.07-.15-.07,0-.24-.38v-.08l-.3,0-.53.1-.22-.08-.09-.2-.05-.72-.05-.27-.67-1-.18-.44L167,611h.81l-.15.55.27.17.93-.13-.14.22-.2.24-.14.24,0,.2.31.27.61.28Zm18.44-7.38,0,.5-.23.73-.36.72-.29.46-.45.2-.53,0-1.09-.35,1.57-1.34,1.07-.62Zm-8.11-2.59.1.2.14.15.12.18,0,.28-.13.16h-.19l-.19,0-.17,0-.31.22-1.07.46-.35.09-.15.06-.07.11,0,.2-.11.2-.22.08-.52.27-.69,1.23-.51.28-.09.13-.79.79-.29.15-.66-.28-.34,0,.19.38-.19.33-.19.2-.24.15-.26.11.29.28.64.44.27.27-1.32.89-.23,0-.12.61-.32,0-.45-.13-.48.2.32.18.25.41.13.42-.08.18-.26-.11-.72-.71-1.28-.88-.15-.37v-.81l-.28-.31-.33.42-.36,0-.86-.44-.86-.2-.36-.13-.34-.28v-.16l.22-.13.21-.08.22,0,.22.17.71-.24.83.22.74,0,.5-.84h-.93l-.37-.18-.29-.41.35-.24.27-.25.29-.21.61-.12.19-.1.51-.4.36-.4,0-.06L171,606l.58,0,.48-.13.35-.64.48.2.46-.16.38-.37.24-.48.18.3.25.18.3.15.31.18.43-1.06.69-.61,1.63-.92-.31,1,.07.28.4.11.29-.15.26-.37.48-.88,0-.15-.1-.22,0-.22.16-.2.36,0,.26.42Zm.19-34.81.77-.2.19.46-.24.68-.57.47-.2-.68,0-.38Zm4.49-6.47.09.81.76.63-.14.07,0,.11-1.43-.15-.29-.42-.29-.31L183,562l.45-.41.62.24.1,0h.12l.12,0Zm19.65-14.69-.14,1-.55,1.45-1.11,1.12-.65.48-.77.12-.73.13-.81,0-1.2-.39-.28-.47-.41-1.07-.62-1.41-.17-.78-.07-.84.26-.11.93,0,.44-.7.5-.55.16-.48.53,0,.26-.33.62.55,1.12.41.79.68,1,.29Zm9.48-13.74h.24l0,.47.29.74.36.5-.43.38v1l.19,1.12-.62,1.1.11.57,0,.92-.16.42-.34.24v.49l-.05.45-.45.18h-.36l-.24.55-.28.39-.05.66-.34.51v.44l-.07.24.21.2.12.35-.15.33,0,.32.2.45-.38.41v.4l-.47-.05-.5.14-.45.11-.37.32-.14.33h-.38l-.09-.3-.26-.36.09-.39.14-.51-.09-.79-.22-.5-.1-.61,0-.25.26.13.2,0,.16-.5.63-.67.73-1.11.31-.84.2-.76,0-.44-.07-.91-.14-.39.06-.29-.16-.24.34-.39.35-.46.46-.84v-.35l.38-.13.21-.64,0-.65.53-.88.29-.35.16-.16ZM191,493.11h.57l.29.22.17.58-.09.35-.43,1.2-.15.31-.47.11-.36-.22-.17-.42.14-.52-.26-.29-.21-.48-.1-.53L190,493l.19-.15.27,0Zm6.45-9.19.76-.37.43-.05.29.42-.86.55-1.05,2.87-.77.66-.09-.15,0-.35,0-.64-.12-.33-.27.07-.47.35-1,.08-.5.11-.57.23-.51-.77-.23-.44,0-.42.14-.17.15-.05.35-.07.22-.13.5-.59.57-.4.38-.19.91-.31.55-.37h.19l.16.11.07.24.08.17h.23Zm-6.26-1.05.72.74.24,1.25.07,2.51.05.24.07.21.05.23-.07.79-.07.22-.1.19-.21.27-.24.17-.58.24-.12.2-.5,1.14-.14.11-.57.27-.2.23-.56.71-.36.28-.6.35-.62.27h-.41l0-.27.38-1.57-.31.24h-.27l-.26-.05-.45.26V492l.09-.3.1-.18.77-.72.5-.31.35-.07.31,0,.27-.06.28-.31h-.26l-.19,0-.41-.16-.54.24-.43-.26-.29-.55-.12-.66,0-.33.1-.28.15-.22.23-.16-.17-.48.13-.59.31-.59.33-.49.26-.67-.12-.58-.57-.94.33,0,.22.16.21.17.26.09.34-.07.52-.3.63-.16.45-.19.48-.14ZM159,479.07l.38.48.19.33v0l-.05.11H159l-.56,0-1,.28,0-.37-.57-.17-.12.11-.22.06-.09.13-.09.31.07.15.12.07.38.44-.07.35-.05.35-.43.44-.45-.26-.48-.69-.6,0-1.24.09-.26.31-.86-.55-.45-.15.09-.49.15-.35.09-.24.12-.28.14-.22.19-.09,0,.15.09.64.05.26,0-.18.33-.79,0-.32,0-.33,0-.31-.07-.29-.07-.13-.07-.13-.07-.13v-.16l0-.17.17-.33-.23-.52.23-.4.26-.22.44,0,.18.37.36.81.14-.11.41-.2.53-.13.92-.54.12-.35.62-.34.08.51,0,.22v.28l.43.12.36.08.19.49-.19,1.16.33.44Zm274.45-13.81.55.35.66.2.58.29.38.59-.2.35-.61.86-.24.22h-.38l-.44-.23-.38-.33-.3-.64-.82-1.16-.09-.44.28-.35.43-.14Zm-268.94,4.41.31.14,1.5-.68.33.65-.18.51-.48.26-.48.6-.5.08-.43.51-.21.37,0,.44.19.5,0,.2,0,.35-.26,0-.45-.11-.17.38.19.28,0,.39-.09.25-.48-.13,0-.58-.18-.65,0-1,.15-.42-.36-.7-.22-.13-.9-.18-.24-.11.05-.39.42-.18.57-.42.36.4.5-.37-.3-.62.14-1.18.43-.13,0,.74.26,0,.16-.09V468l-.07-.4.12-.59.39-.2.12-.55-.2-.39,0-.33.29-1.23.24.22,0,.55-.11.28-.08.27.19.26.18.13-.13.62-.16.55-.24.48-.09.55-.05.54ZM176,457l.17,1.32-.17.41-.35.51-.36.37.28.24-.31.37-.3.16v.3l-.34.23,0,.46-.22.59-1.17,1.42-.86.6-.91.26L171,464l-.38-.09.06-.32.12-.69.27.44.6.46.4-.06.15-.26-.08-.11-.17-.14-.3-.06-.17-.31.1-.42.31-.32.57.08-.2-.52-.06-.62.78-.66.09-.87,0-.67,1.32-.32.33-.7.19.12.17.29.41-.33-.39-.33.05-.44Zm67.6-11.52.23.24.53.41,0,.11-.39.07-.54-.07-.79-.43-.41.08.17-.41.35-.2h.43Zm-62.06.61.59.26v.4l-.41.39-.58,0-.64,0-.31.61,0,.57-.27-.09-.48-.46-.35-.41.09-.44-.26-.18-.34.22-.19-.41-.07-.49.75.37.26,0v-.2l-.67-.53,0-.61,0-.35.53,0-.12-.53.14-.5.2-.33,0-.35.31.3,1.67.51v.24l-.13.4v.33l.09.32.36.29.4.17-.14.05-.22.11-.16,0Zm61.87-2.88-.12.14-.12.11-.26.15-.2-.59-.38-.68-.17-.71.39-.7.61-.24.68.07.66.26.48.33.69,1,.36,0,.33-.2.51-.41H247l.38.07.15-.06.16-.18.05-.33.15-.11.31-.05.66.05h.39l-.29.31-.53.72-.21,0-.24-.1-.62.19-.24.16-.1.22,0,.76-.05.29-.09.31-.27-.11H246l-.21-.09-.08-.26,0-.27,0-.28-.26-.25-.17.23-.35-.25-.15.16-.07.31-.1.21-.31,0-.45-.16-.28.13Zm182.37-5.79.17-1,.74-.59.83,0,.46.72-.34,1-.67.63-.73.05Zm-174.34-.31-.59-.33-1.36.05-.57-.24.47-.51.58-.37.33-.44-.33-.75.24-.33.33-.21.33-.09.27,0,.21.18-.07.15,0,.13-.07.11-.17,0,.2.36.07.35,0,.35.05.39.65-.3.07.57-.27.72ZM262.62,433l-.9.49-.22-.18.21-.61.15-.15.42-.11.13-.16,0-.29-.12-.21-.19-.11h-.24l.46-.62.54-.55.51-.13.37.68.27.92-.1.6-.42.46ZM169.9,430.8l.1-.44.65,0,.11.19-.11.25-.43.22-.19.39.07.53.11.35-.4.31h-.29v.17l.11.13-.07.35,0,.47,0,.35-.05.11-.17,0-.11.24v.35l-.18.51-.29.15-.05.29-.29.21-.07.23-.31,0-.11.18-.29.18-.1-.29-.14,0-.31-.35-.21-.11-.31.19-.15.05,0-1.19.22-.7-.09-.77.12-1,.23-.21,0-.45L167,431l.07-1.31.22-.4.45.06.09.2-.1.25v.57h.15l.21-.16.24,0,.34-.22H169l-.1-.24-.06-.2.3,0,.22.15.33.31,0,.59Zm250.43-3.51.23-.22.31-.35.24-.11,0,.55-.15,1-.33.94-.4.42-.34-.57,0-.35.27-1.06ZM313,420.84l.66.53.05.37-.31.39-.38.44-.19.64-.29.75-.69.63-.6,1-.74,1-.16,1.12,0,.28.08.35,0,.36.41.33.07.54.19.36.6.63.21.51-.52.24-.72.17-.62.38-.72.26-.55.27-.86.79-1.21.26-.58,0,0-.57-.55-.24-.09-.11.3-.57.26-.37-.9.26-.55-.66-.22-.68.31-.42.34-.79.55.14.4-.18,2-3.55.64-.42L309,425l.19-.17.16-.22.2-.53.17-.28.31-.58,1-.52.39-.14.64-.9.45-.67Zm-139.56-.33.25.31.38.37-.07.26-.07.27-.2.77-.47,1.2-1.1,1-.57.88.12.86-.56.57-.07.44.41-.11.45-.49,0,.22-.15.42-.11.19.09.51.29.35.21.11-.17.4-.38.21-.17.2-.28.51-.6.22-.5-.13-.47-.6.38-.28.61.2,0-.86-.31-.15-.47.55-.27,0,0-.57,0-.31.1-.35-.29.22-.26.33.15.51-.17.15-.36-.37-.6.13-.48-.11.15-.39.62,0,.31-.19,0-1.12-.12-.62.21-.26.24,0,.12.07.16-.2.32-.41,0-.18-.4.4-.32.08-.11-.35.33-.76.4-1,.53-.46,0-.22-.43-.53-.44.13,0-.42.35-.52.12-.49.39-1.36.33,0,.62,0,.43.09.31-.3.48-.62.4-.07-.19-.24.14-.3.37.06.31-.22h.35l.15.24.26.27.17.22-.12.43-.13.16-.21.13.22.07.24.13,0,.31-.19.48-.22.11-.26-.16Zm250.62-4.89.5.26.31.46.15.61.06.66,0,.77-.1.33-.28.07-.53,0-1.57-.77-.21-.53,0-1.43.12-.9,1.1.25ZM263,378l.29-.33.53.17.54.42.31.39-.35,0-.94,0-.16-.06-.14-.17-.07-.2Zm8.91-7.95.38.51-.07,1.51-.15.33-.33.18-.19-.36-.22,0-.24.16-.21.22.29.22.09.3-.09.27-.29.24-.19,0-1-.2h-.55l-.16-.09-1.19-1.05-.26-.11-.12-.31.23-1.89.32-.59L270,368l0,.37.19.15.26,0,.24.07.07.11.09.27.07.15.15.11.33.11.14.09.13.19.11.29Zm128.07-55.5.9.1,1.15-.32.88.08v1.23l-.24.57-1.05,1.65-.28.59-.33,1.17-.34.46-2.93,2-2.63.94-.57.07-.26,0-.26-.14-.18-.24-.07-.3.08-.35.21-.11,1.22-.25.28-.19.12-.4v-1.4l.26-.51.8-.9.31-.48-.7-.95-1.69.6-.38-.92v-.73l.07-.64.17-.61.28-.59,1.05-1.43.38-1,.48-.43.48-.35.21-.33,1.14-1.17.67-.46,1-1.78.22-.2.28-.1h.62l.15.14v.35l-.31,2.06-.52,1.87-1.07,2.46-.15.59,0,.61.16.37.2,0Zm27.39-132.27.4.36-.26.66-.83,1.2-.17.84,0,.79-.09.74-.38.71-1,.87-.24-.09-.26-.26-.15-.35.08-.37-.14-.29,0-.28v-.66l-.05-.27-.26-.41-.05-.31.09-.61.24-.6.34-.52.38-.25.29,0,.54-.15.31,0,.29-.11.74-.49Zm144.94-43.89.83.57.41.37,0,.33-.31.16-1,.24-.19.26-.17.38-.35.17-.27-.15.1-.51.27-.31.78-.33.33-.26-3.26-1.58,2.14.42ZM550.55,127h0ZM472.06,86.35l.21.48-.17.33-.31.33-.16.44-.13.15-.92.64-.43,0-.39-.11-1.36-.8-.79-.68-.49-.76.37-.66-.11-.2-.14-.35-.1-.13.9-1,.31-.15.58-.14.81.25.84.52.62.64Zm-6.9-9.26.41.26.11.59-.36,3.43-.25,1-.34.93-.17-.46,0-.16.14-.28-.64-1.19-.29-.74-.12-.69.17-1.6-.1-.39-.76-1.1.19-.15.17,0,.14,0,.1.13.07.17.33.6.34,0,.38-.22Zm-4.6,562.24-.05-.46.16-.11.1.16ZM132.11,653.27l0,.81-.65.13-.67-.3-.11-.46.37-.14.67.07ZM136.77,643h.14l-.21.72-.43.79-.58.62-.67.24.26-.44,1.29-1.54Zm55.95-98.57.57.24.48.5v.35h-.53l-.22.33-.49.09-.49-.55,0-.37-.1-.28-.43.21-.26-.43-.28-.27-.26-.33.59,0,.65.4.3-.16ZM297,422.49l-.11.26.07.28.12.31.09.38-.12.89-.55,1.61-.12-.25-.24-.17-.33-.06-.35.06v-.2l.47-.08.12-.25-.22-.2-.54.12-.36.39-.28.51-.29.44-.45.1.11-1.09-.14-.31-.5-.26-.46,0-.49.17-.39,0-.23-.43.28-.2,0-.31,0-.39.09-.33.72.24.62-.18,1.09-.68.29-.09.91-.1.86-.23ZM475.23,725.21l.17-.13h.25v.21l-.07.16-.12,0-.17-.11Zm314.88-1.92.2-.16.11.13-.06.24h-.12l-.17-.06Zm-319-32.18-.33-.27-.1-.39.1-.29.34-.06.24.22,0,.3-.09.29Zm-251.46-15.3.31-.06.49.17.17.31-.14.28-.14.11-.19,0-.19-.11-.27-.35ZM117.32,657.2l.28-.05.24.11,0,.29-.17.22-.26,0-.31.06-.14-.13.14-.31Zm31-12.93,0,.53-.16.24-.43,0-.52-.25-.12-.13-.12-.06-.14-.11v-.24l.14,0,.17,0,.19-.26.33-.18.4.11.17.24Zm345.43-2.83-.12-.39,0-.44.15-.33.24.06.09.27-.05.32-.16.31Zm.15-13.13-.39-.39.08-.2.25.09Zm-2.89-3.4,0-.31.08-.08.07.11Zm-348.17-4.36,0,.17.13.11-.06.35-.22-.22-.07-.46Zm34.09-46.12-.12-.24.1-.29.18-.13.06,0,.07.06h.12l0,.11.13.29-.07.35h-.33Zm-1.62-13.26,0-.21.17,0,.21.06.17.11.1.2-.07.11-.29.11-.17-.11Zm10.47-1.86,0,.11.07.07v0l-.17.17-.43-.15-.26-.09-.26-.3-.07,0V559l0-.15.05-.11.23-.22-.09-.22.12,0,.21-.13.14.33.17.33Zm260.64-15.47h.24l.23.19-.19.27-.29.06-.12-.21,0-.16Zm-273.6-10.47.06,0,.07.11-.1.09Zm13,0,.29.24,0,.24-.22.27-.27.19h-.3l-.39-.21,0,0,0-.11-.14-.26.1-.13.19-.09.24-.24.18,0,.19.07ZM439.77,515.7l0-.05,0,.05Zm0,0v-.07l0,0,0,0Zm-7.17-30,0-.53.42.88Zm-11.5-35.89-.06,0,.06,0Zm8.15-7.09.17.4,0,.19-.15.27-.31.11-.42-.05-.32-.22,0-.55.33-.46.43,0,.22.18Zm-6.29-237.22.14.09.09.18-.19.3-.72.36-.13-.14-.1-.45v-.22l.09-.18h.2l.19.06Zm367,517.28-.32.46-.31-.55.32-.11ZM66.53,707.44l.21.26.16.59-.3.33-.94.11-.43-.09-.26-.35v-.35l.21-.09.21-.06,0-.29.1-.3.33-.05.45.18ZM121,668.26l0,.13v.18l-.07.37-.11.39-.07.38-.18.28-.21-.11-.07-.35v-.44l.09-.59.2-.37.24-.07Zm370.58-43.65.1-.09.07.11-.12.28ZM185.51,503.1l-.12.11,0,.13,0,.18,0,.2,0,.19.07.13v.09l-.05.18-.17.22H185l-.24.06-.34.2-.35,0-.18-.2-.14-.07-.11-.1,0-.13-.09-.2-.17-.25,0-.22.18-.13-.07-.06-.28.11-.2.3-.19,0-.09-.09v-.18l.07-.33.21-.32.34-.22.48.15.95.83.21.07.06-.18-.12-.3.14-.18.38-.06Zm7.82-12.91.39.18.16.26-.09.16-.22.3-.28.23-.26.13-.24.06-.2.13-.11-.08v-.31l.05-.33.11-.29.15-.17.14,0,.07-.07,0-.09Zm5.09-8.82.14.18,0,.31-.06.52-.14.31-.35.09-.19.09.09.28-.15-.11-.31-.24-.07-.35.12-.38-.09-.24-.21-.15v-.2l.36-.61.08,0V481l.09-.05.21-.19.2-.09.25.13.17.17-.07.23Zm53.2-4.34.17.22.07.28,0,.24-.19.22-.34.16-.16-.11-.07-.4v-.37l.08-.35.12-.14.18.09.07.07Zm-92.1-2.28.06.12.16.38,0,.22-.31.37-.32.49-.17.06-.23,0-.46-.31L158,476l-.12-.3v-.93l0-.26.07-.2.22,0,.26.15.17.33.07.35.09.18.1.07,0-.09,0-.09,0-.09-.05-.26-.12-.28-.08-.29.13-.07.61.42Zm1.34-1.67,0,.33.07.65-.09.31-.19.09-.07.13.09.11,0,.2-.1.26h-.12l-.05-.26-.16-.11-.22,0-.07-.07.09-.13v-.14l-.09-.17-.12-.11-.14-.11-.36-.4-.15-.06-.16.06-.07-.19.26-.25.45.12.39.46.13,0-.07-.37.07-.07.2.13.12-.15,0-.33.07-.11.12.11Zm1.87-.77,0,.24,0,.09-.06,1-.08.22h-.17v-.25l-.11-.06-.17-.18-.24-.06-.36.13-.12-.05-.11-.15-.1-.07,0-.08-.11-.46,0-.27h.21l.46.26.11,0,0-.15-.14-.15-.12-.18,0-.18-.05-.11,0-.11.09-.1.05-.09v-.09h.19l.43.15.29.22.09.25Zm2.71-12,.2.46.18.23,0,.22-.4.32-.17.35H165l-.39-.07-.28-.18-.15-.15-.16,0-.12,0,0-.26.32-.44.37-.16.24-.08.38-.31ZM176,454.49l.45-.07.06.24-.2.29-.35.15-.38-.06-.31-.14-.18.05-.07.15-.12,0-.23,0,.11-.29.44-.43.43-.29h.24l.09.22Zm77.61-15.67.06.08v.31l0,.33-.05.18-.1.15,0,.13,0,.31-.36.33-.5.11-.27-.2-.07-.39.24-.34.26-.24.19-.15.1-.05.16-.12.31-.27ZM265,434h.15l.05.12-.17.32-1.24,1.26-.44.22-.26-.22,0-.53.09-.4.13-.15.16,0,.14,0-.09-.24-.19-.46.17-.39.57-.12.4.16.13.22.16.17Zm-8.92-.68.41.24.16.37-.12.29-.23.15-.19.08-.06-.06v-.2l-.14-.09h-.21l-.64-.31-.24-.25.16-.32.36-.09.5.13Zm4.6-2.42.17-.2.1.27-.1.7-.22.57-.07.33-.28.28-.57.13h-.5l-.32-.21-.18-.4.07-.35.21-.15H259l.72-.35h.29l.28-.18ZM246,430l.15.28,0,.27,0,.13-.48.54-.76.64-.41.15-.29-.19,0-.27.5-.78.31-.4.38-.24.36-.18Zm34.64-2.77.22.35,0,.4-.14.22-.19.15-.16.15-.08.07-.19-.09-.17-.33.08-.39.33-.4.08-.17Zm37.46-1,.91-.73.4.57-.83.58-.34-.16ZM289,424.9l-.24-.11-.07-.07.05-.08.19-.14.23,0,.43-.3.29-.07.09.09.2.17.16,0,.07,0,0,.3-.48.62-.19,0-.21-.18v0Zm71.51-.66.18-.24.24.05-.05.26-.11.24-.29.2-.19.13-.15-.24-.12-.24Zm0-1.05.16-.22.34-.05-.19.23,0,.23-.36.07-.38.27-.45.1-.17-.15.41-.18Zm-2.32-10.47h.33l.31.44.06.39-.27.09v.18l-.19,0Zm6.3-69.71-.09.22v.26l0,.27-.17.24-.41.18-.47,0-.45.17-.34.2h-.22l-.42.15-.08,0-.23-.33-.48-.61-.26-.48.16-.23.2.11.11.23.12.06.13-.11.19-.09H362l.22-.09.19-.13.17-.06.19.08.19.18.26.18.24,0,.19-.13.28-.33.36-.15ZM26.39,681.91h-.05l-.11,0,.07-.17Zm-1.54-.66h-.41l-.45.11.07-.32.43-.12h.16Zm3.21-4.78,0,0,0-.08Z" style="fill:#efc441"/><path d="M26.39,681.91h-.05l-.11,0,.07-.17Zm-.31-.41,0,.24-.1-.2Zm-.86-.11-.06.08-.05-.09Zm-.37-.14h-.41l-.45.11.07-.32.43-.12h.16Zm1.88-.37v0l-.05,0Zm-.62-.77v.13H26Zm24.48-2.72,0,.05-.05,0,0-.08Zm-22.53-.92,0,0,0-.08Zm.07.29-.07-.23.15-.13.14.18,0,.06-.06.07Z" style="fill:#efc441"/><path d="M594,140.21l.74,0,.41.08.22.18-.08.33-.3.29-.24.35.11.59-1.45.68-.45,0-.12-.18-.07-.57-.08-.11-.24-.11-.33-.26-.53-.55,1.32-.75.64-.19Zm17.76-10.53.36.28.37.2.37.07.43-.12-.17.53-.22.51-.31.39-.4.15-.51.05-.33.13-.62.48h-.17l-.18-.11-.18,0-.25.24-.19.24-.22.25-.24.2-.22.08-.43.09-.38.17-.38.11-.45-.11.17.44-.57.44-.3.16-.33.06-.45-.09-.65-.46-.38-.11-.19-.21,0-.47.24-.9-.08-.37-.16-.37,0-.26,1.08-.2.66-.24,2.37-1.28.67-.2.61.22.32-.39.35-.2.36,0,.36.33ZM601.39,111l2.08-.75.5.06-.43,1.37-.17.33-.11.17-.13.33-.11.17-.13.14-.25.17-.13.15-.28.05-.77-.48-.33-.14-.28.07L600,113l-.19.13-.12.05-.72,1.18-.24.27-1,.87-.55.33-.76.27-.75.11-.5-.26-.55.28-1.57.13-.59.37-.12.18-.18.2-.19.13-.18.07-.1.1-.15.47-.09.21-.28.38-.2.24-.26.18-.38.21-2.51,2-.21.23-.74,1.13-.17.34v1l-.1.4-.26.29-.48-.22-.57.15-.46.44-.19.64-.1.65-.25.62-.34.52-.36.36-.45.28-.48.22-1.62.28-.38.25-.69.76-.79.64-.19.46-.22,3.4-.36,2.35,0,.18-.12-.18-.1-.3-.09-.25v-.41l.12-.51-.12-.22.19-.22-.94-.63-1,.33-.79,0-.39-1.52,0-.87,0-.27-.12-.22-.19-.26-.14-.28,0-.24.24-.25.54-.22.24-.21.57-1,.2-.29,1.5-.79.24-.22.24-.41,2.53-1.74.47-1,.14-.16.55-.17.53-.44.43-.57.28-.59.17-1.25.12-.25.46-.52.11-.35.26-.29,1.11-.66.35-.29.09-.28.05-.7.12-.27.69-.9.43-.37,1-.39.38-.25.14-.24.1-.28.07-.27,0-.22.1-.26.45-.42.12-.22,0-.76.19-.55.27-.42.36-.44,1.16-2.28.72-.92,1-.18.55,0,.28.14,1.34,1.31.17.11.62.22L598,111l.74.22ZM660,78.25l.19.37,1,1.12,0,.64-.67.61-.86.45-.6.23-.74,0-2.12-.29-1.52.14-.72.3-2.19,1.58-.77.36-2.38.32-1.65.55-1.56.88-2.23,2.15-1.49,1.71-1.11,1.36-.84,1.1-.67.22-1.27,1.19-1.21,0-.83,0-.58,0-.31.11-.47.47-.24.1-.75-.83-.33-.79-.62-.51-1.19.42-.69.84-.14.63.16.64.55.33-.09.44-.44.24-.26.31-.78.79-.2.35-.35.77-.22.33-1.77,1.51-2.45,1.38-1.44,1.6-1,.91-.44.63-1.15,2-1.82.72-1-.37-1.48,1.1-.91,1.14-.62.74-.4.75-.19.66-.31.53-.5,0-.65-.33-.92,0-.36-.37-.08-.55.13-.44.25-.48.48-.47.38-.59.77-.46.29-.42-.32-.65-.14-.58,0-.7.19-.59.36.09.22.66,0,.61.55.39.42.2.53-.52.4-.57-.26-.71-.43-.46-.29-.94.82-.2.91.75.61.3.94-.33.59-.89,1.1-1.32.12-.57.07-.81-1.08-.49-1-.19-.63-.66.32-1,1.07-.24,1,.85.64.33L621,98l-.22-1,.59-.55,2.42-1.1L625,94.17l1.13-.73.33-.28.45-.6.26-.66.15-.74.07-.86,0-.44,0-.24,0-.17.24-.29.38-.22.38,0,.38.22.31.33.6.4.67,0,.67-.34.57-.59,1.64-2.39.58-.68.6-.39,2.65-.69.21-.19v-.44l-.26-.35-.27-.31-.16-.37.17-1.37-.05-.37-.26-.72,0-.4.28-.87.53-.55.64-.44.55-.53.27-.18.19.27.11.44.06.88.11.32.7,1.32.11.29.08.43v.47l0,.3,0,.29.26.42.62.46.76.11,6.09-.81,1.22-.8,1-1.33.6-.64.58-.29.07-.17.47-.83.22-.27.72-.46.68-.55.46-.72.24-.2.23-.09.55-.06.24-.09.15-.2.26-.57.09-.15.2-.09.45-.05,2-.76.94-.09.88.33L661.3,76l.12.59-.74.7-.64.28-.12.18Zm-68.07,64.9.17,0,.14.26,0,.2-.17,0-.11.11-.17.3-.12.12-.41-.07-.18.06-.31.44-.1,0-.27-.17-.09-.11,0-.15.12-.11.36-.42.25.11.13-.2.18.2.34-.09.1-.17-.05-.18,0-.11Zm-4,.27.12.17.19.18v.15l-.33.05h-.26l-.15-.08-.19,0-.25.2-.1,0,0-.07,0-.15-.14,0-.07,0,0-.11.05-.09,0-.22,0-.24-.65-.22v-.15l.32-.13.21,0,.12.22.16.13.19,0,.55-.22H588l.08.13-.17.11-.05.11Zm10.5-6.5.11.53-.3.1-1.84-.23,0-.07.14,0h.29l.33-.19.33-.44.12,0,.51.35.23,0Z" style="fill:#efc441"/><polygon points="233.99 340.18 234.02 340.2 234.01 340.25 233.97 340.22 233.99 340.18" style="fill:#e67063;stroke:#5e5760;stroke-linecap:round;stroke-linejoin:round;stroke-width:1.875px"/><polygon points="594.47 108.39 594.19 108.25 594.01 108.24 590.78 111.47 590.71 111.61 590.35 112.05 590.08 112.47 589.89 113.02 589.86 113.46 594.7 108.62 594.47 108.39" style="fill:#fff"/><polygon points="578.54 127.11 578.3 127.52 578.06 127.74 576.91 128.34 576.24 129.01 575.79 129.78 575.55 129.98 575.09 130.17 574.77 130.49 574.74 130.69 574.88 130.97 575.07 131.23 575.07 131.24 580.68 125.64 578.54 127.11" style="fill:#fff"/><polygon points="581.68 124.23 581.54 124.39 581.19 125.13 582.38 123.93 582.23 124.06 581.68 124.23" style="fill:#fff"/><polygon points="583.19 123.05 582.96 123.35 596.37 109.94 595.98 109.81 595.81 109.7 595.68 109.57 583.58 121.68 583.47 122.46 583.19 123.05" style="fill:#fff"/><polygon points="579.23 130.07 579.22 130.1 579.32 130 579.23 130.07" style="fill:#fff"/><polygon points="592.5 116.7 592.38 116.88 592.2 117.08 592.01 117.21 591.83 117.28 591.73 117.38 591.63 117.69 592.82 116.5 592.5 116.7" style="fill:#fff"/><polygon points="579.23 130.07 579.32 130 586.99 122.33 587.65 121.33 587.86 121.09 589.76 119.55 591.63 117.69 591.73 117.38 591.83 117.28 592.01 117.21 592.2 117.08 592.38 116.88 592.5 116.7 592.82 116.5 598.27 111.05 597.98 110.96 597.57 110.69 575.29 132.97 575.5 133.81 579.22 130.1 579.23 130.07" style="fill:#fff"/><polygon points="583.64 127.64 584 127.28 584.04 127.21 583.57 127.69 583.64 127.64" style="fill:#fff"/><polygon points="578.92 132.33 577.45 133.81 578.09 134.23 578.85 133.47 578.92 132.33" style="fill:#fff"/><polygon points="595.71 116.18 596.21 116.11 601.35 110.97 600.19 111.06 595.29 115.97 595.71 116.18" style="fill:#fff"/><polygon points="617.49 97.79 617.47 97.85 617.53 97.78 617.49 97.79" style="fill:#fff"/><polygon points="578.42 136.46 578.46 136.28 578.54 135.71 578.22 136.04 578.3 136.28 578.42 136.46" style="fill:#fff"/><polygon points="603.96 110.29 601.53 112.72 602.19 113.13 603.4 111.92 603.54 111.64 603.96 110.29" style="fill:#fff"/><polygon points="613.51 104.57 613.15 104.48 612.96 105.07 612.98 105.34 613.57 104.75 613.51 104.57" style="fill:#fff"/><polygon points="621.38 96.45 620.79 97 620.89 97.43 622.27 96.05 621.38 96.45" style="fill:#fff"/><polygon points="636.69 81.62 639 79.31 638.93 78.43 638.91 78.34 636.45 80.81 636.66 81.41 636.69 81.62" style="fill:#fff"/><polygon points="614.7 103.23 614.79 103.53 615.21 103.11 614.7 103.23" style="fill:#fff"/><polygon points="618.67 99.65 619.79 98.53 619.53 98.4 619.17 98.09 617.78 99.47 617.79 99.48 618.67 99.65" style="fill:#fff"/><polygon points="627.35 90.97 628.92 89.4 628.73 89.2 628.35 88.98 628.28 88.97 627.38 89.87 627.4 90.3 627.35 90.97" style="fill:#fff"/><polygon points="619.79 100.97 619.84 100.42 616.46 103.8 617.04 104.08 617.35 103.97 619.15 102.17 619.67 101.54 619.79 100.97" style="fill:#fff"/><polygon points="614.33 106.22 614.75 106.43 615.28 105.91 615.68 105.34 615.47 104.78 614.15 106.1 614.33 106.22" style="fill:#fff"/><polygon points="630.98 89.55 631.55 88.96 632.1 88.16 630.41 89.84 630.98 89.55" style="fill:#fff"/><polygon points="617.04 104.08 616.46 103.8 615.47 104.78 615.68 105.34 615.28 105.91 614.75 106.43 614.33 106.22 614.15 106.1 613.4 106.85 613.47 107 613.18 107.42 612.41 107.88 612.03 108.47 611.54 108.94 611.3 109.42 611.17 109.86 611.21 110.11 617.35 103.97 617.04 104.08" style="fill:#fff"/><polygon points="636.97 83.83 637.19 84.13 639.94 81.37 639.92 81.24 639.81 80.95 639.64 80.62 636.72 83.54 636.97 83.83" style="fill:#fff"/><polygon points="632.1 88.16 631.55 88.96 630.98 89.55 630.41 89.84 619.84 100.42 619.79 100.97 619.67 101.54 619.15 102.17 636.33 84.99 634.89 85.37 632.1 88.16" style="fill:#fff"/><polygon points="632.36 91.81 631.17 92.23 630.48 93.07 630.35 93.7 630.4 93.92 632.44 91.87 632.36 91.81" style="fill:#fff"/><polygon points="616.11 107.38 615.2 108.52 614.58 109.26 614.18 110.01 614.13 110.19 617.92 106.4 617.59 106.28 616.11 107.38" style="fill:#fff"/><polygon points="630.35 93.7 630.48 93.07 631.17 92.23 632.36 91.81 632.44 91.87 640.78 83.54 640.26 83.15 640.2 83.05 612.44 110.81 612.53 110.82 613.17 111.14 614.13 110.19 614.18 110.01 614.58 109.26 615.2 108.52 616.11 107.38 617.59 106.28 617.92 106.4 630.4 93.92 630.35 93.7" style="fill:#fff"/><polygon points="620.53 105.72 620.27 105.99 620.41 105.93 620.53 105.72" style="fill:#fff"/><polygon points="626.94 99.41 628.71 97.9 628.93 97.57 629.14 97.12 626.73 99.53 626.94 99.41" style="fill:#fff"/><polygon points="642.67 83.59 633.26 93 633.31 93.11 633.74 93.58 643.89 83.42 642.67 83.59" style="fill:#fff"/><polygon points="587 143.11 586.84 142.98 586.72 142.76 586.51 142.74 586.51 142.75 586.22 143.03 586.84 143.24 586.88 143.43 587.19 143.13 587.18 143.13 587 143.11" style="fill:#fff"/><polygon points="646.13 83.13 636.02 93.23 636.49 93.26 637.04 93.27 647.35 82.97 646.13 83.13" style="fill:#fff"/><polygon points="592.9 140.12 591.58 140.87 592 141.31 593.32 140 592.9 140.12" style="fill:#fff"/><polygon points="649.29 84.03 658.79 74.53 658.15 74.59 657.37 74.89 647.93 84.33 648.52 84.13 649.29 84.03" style="fill:#fff"/><polygon points="591.7 143.56 591.54 143.72 591.61 143.7 591.7 143.56" style="fill:#fff"/><polygon points="604.8 131.35 604.77 131.54 605 131.32 604.8 131.35" style="fill:#fff"/><polygon points="653.86 81.87 654.58 81.57 654.76 81.56 660.76 75.55 660.21 75.05 652.15 83.1 653.86 81.87" style="fill:#fff"/><polygon points="591.2 144.12 591.61 144.19 591.73 144.07 591.9 143.77 592.01 143.66 592.18 143.64 592.21 143.44 592.07 143.19 592.07 143.18 591.7 143.56 591.61 143.7 591.54 143.72 591.1 144.15 591.2 144.12" style="fill:#fff"/><polygon points="590.9 144.36 590.62 144.63 590.71 144.62 590.9 144.36" style="fill:#fff"/><polygon points="598.25 137.54 598.55 137.45 598.44 136.92 598.37 136.88 597.77 137.49 598.25 137.54" style="fill:#fff"/><polygon points="594.98 141.05 595.28 140.76 595.36 140.43 595.14 140.25 595.03 140.23 592.83 142.43 592.83 142.47 592.95 142.65 593.4 142.67 593.86 142.45 594.77 141.55 594.74 141.4 594.98 141.05" style="fill:#fff"/><polygon points="657.67 81.64 660.41 78.91 660.16 78.62 659.98 78.27 656.74 81.52 657.67 81.64" style="fill:#fff"/><polygon points="609.58 129.43 608.91 129.63 608.29 129.96 604.74 133.51 604.73 133.72 604.92 133.93 605.28 134.03 609.81 129.51 609.58 129.43" style="fill:#fff"/><polygon points="660.42 80.98 661.09 80.38 661.1 80.16 660.1 81.16 660.42 80.98" style="fill:#fff"/><polygon points="612.11 129.96 611.75 129.68 611.68 129.57 607.7 133.55 607.88 133.6 608.26 133.49 608.64 133.32 609.07 133.23 609.1 133.22 612.27 130.05 612.11 129.96" style="fill:#fff"/><polygon points="607.03 134.37 607.6 133.93 607.53 133.73 606.72 134.53 606.73 134.53 607.03 134.37" style="fill:#fff"/></svg>