<?xml version="1.0" encoding="UTF-8"?><svg id="Jersey" xmlns="http://www.w3.org/2000/svg" viewBox="0 0 720 540"><path d="M254.18,445.65l-.37,.53,.37,.5,1.37,.04,.37-.6-.35-.5-1.39,.03Zm-.05,10.65l-.3,.5-.02,2.12,.37,.5,1.37,.03,.37-.53-.33-2.69-1.46,.07Zm-1.32,60.41l-1.12,1.59,1.07,1.63h.74l.37-.57-.07-1.02-1-1.63Zm7.3-88.59l-.35-.53h-1.37l-.37,.5,.35,.6,1.39-.07,.35-.5Zm-4.18,4.25l.02-1.1-.35-.53h-.74l-.28,.5-.02,1.09,.28,.6h.72l.37-.56Zm-4.58,.53l-.3,1.59,.35,.49,1.39,.04,.37-.53-.35-1.59h-1.46Zm4.93-37.18l-1.05,1.6v1.09l.35,.46h1.39l1.02-1.6-.35-1.59-1.37,.03Zm28.21,39.8l.05-2.09-.37-.53h-.65l-.37,.56-.02,2.06,.35,.56,.67,.03,.35-.6Zm-34.44,10.09l.33-1.59-.37-.53-2.09,.07-.4,1.52,.37,.5,2.16,.03Zm-1.09-31.33l-.37-.5-1.37-.04-.37,.53,.07,1.09,.28,.5,1.46,.04,.3-1.63Zm-5.23,104.59l-.37,1.59,.42,.53h2.02l.39-1.66-.35-.5-2.11,.04Zm4.88-8.52l-1.02,1.59,1.07,1.59,.65,.03,.35-.53-.33-2.69h-.72Zm4.16-74.33h-.65l-.37,.6v1.06l.35,.53h.72l.37-.5-.05-1.1-.37-.6Zm-2.12,1.09l-.3,.57-.02,2.12,.37,.5h.72l.3-.5-1.07-2.69Zm-.65,25.52l-1.02,1.59,1.07,1.63,.95-1.66-.26-1.55h-.74Zm1.74-13.31l.37,.6,1.37-.07,.37-.5-.35-1.59-1.44-.03-.33,1.59Zm19.92-279.4l1.72-3.7-.37-.54h-1.37l-1.72,2.67,1,1.64,.74-.07Zm-.77,287.44l-.3,1.52,1.07,1.59,.95-1.59-1-1.52h-.72Zm4.88-13.84l-1.05,1.56,1.07,1.63,2.77,.03,.37-.57-1.07-2.65h-2.09Zm-2.79-23.4l-1.37,.03-.37,.5,.05,2.12,.35,.53h.67l1.09-1.52-.05-1.09-.37-.57Zm5.58-4.25l-.65,.07-.37,.5-.02,1.03,1.07,1.59,.74,.03,.3-1.59-1.07-1.63Zm5.28,26.06l-1.07-1.63h-.65l-.37,.56-.02,2.12,.37,.53h1.37l.37-.56v-1.03Zm-2.11-5.35l-1.07-1.52-.65-.03-.37,.53-.02,2.09,1.07,1.63,1.05-1.59v-1.1Zm-12.94-3.71l.37-.5v-1.03l-.35-.6h-.65l-.37,.6v.99l.35,.53h.65Zm-6.23,18.05l-1.37,.07-.37,.5-.02,1.03,1.07,1.59,.37-.5-.05-1.1,.72-1.06-.35-.53Zm1.02-7.93l-.35-.5-1.37-.03-.37,.53-.02,.99,1.07,1.7,.74-.07,.35-.5-.05-2.12Zm-5.16-4.78l-.37,.5,1,1.63,1.12-1.59-.37-.53h-1.37Zm-.37-6.94v1.1l.28,.53h.72l.37-.57,.02-1.03-.37-.53h-.72l-.3,.5Zm5.55,15.96v1.06l.35,.53h1.39l.35-.57,.02-1.03-1.07-1.59-1.05,1.59Zm6.95-10.62l-.35-.53-2.11-.03-.3,1.59,1.07,1.63h.65l1.12-1.59-.07-1.06Zm-5.16-17.56l-.37,.53-.02,1.06,.37,.6,1.37-.07,.37-.5v-1.1l-.35-.5-1.37-.03Zm-11.22,22.3l-.3,.57-.02,2.12,.37,.53h1.37l.37-.5,.02-2.2-.42-.5-1.39-.03Zm-43.18,12.78l-.35,.5-.02,1.1,.35,.53h1.39l.37-.57v-1.03l-.35-.53h-1.39Zm2.77-35.05l-1.44-.03-.3,1.59,.35,.53h1.37l.37-.5,.02-1.1-.37-.5Zm-7.65,3.18l-.74,.99h-.72l-.3,1.66,.35,.54h1.37l1.12-1.59-.42-1.6h-.65Zm8.69-26.06l-1-1.52-1.09,1.52-.02,1.06,.35,.54h.74l1.02-1.6Zm8.04,30.31l-.37,.5-.02,1.1,.37,.53h1.37l.37-.56v-1.03l-.35-.5-1.37-.03Zm-8.39-3.22l-.33,1.59,1,1.63h.74l.28-.5,.02-2.19-.28-.54h-1.44Zm-9.02,22.34l-.37,.5-.02,1.1,.37,.5,1.37,.03,.37-.5v-1.1l-.35-.53h-1.37Zm.33-24.96v-1.1l-.42-.53h-1.37l-.33,1.59,.37,.57,1.37,.03,.37-.56Zm180.57-46.8l.28,.54h1.44l.3-.5-.26-1.6-.74-.03-1.02,1.59ZM414.54,18.41l.37-.57-.05-2.1-.3-.53-1.44-.03-.3,.53-.05,2.17,.37,.53h1.39ZM223.5,418.03l-.33,1.6,3.11,.53,1.05-1.66-.37-.5-3.46,.03Zm-53.03-20.22l-.3,1.66,.35,.53,2.11-.07,.37-.49-1.07-1.63h-1.46Zm20.29,19.12l-1.12,1.59v1.1l.42,.53h1.39l1.02-1.59-1.07-1.59-.65-.03Zm4.16,11.72l-.37,.57v1.03l.35,.5,1.39,.03,.37-1.59-.37-.53h-1.37Zm-2.11,22.23l-.3,1.7,.28,.5h1.46l.3-1.59-.3-.57-1.44-.03Zm34.16-44.54l-.33,1.6,1.02,.53,.72,1.1,.72-.07,.3-.54v-.99l-1.07-1.63h-1.37Zm6.25,31.87l-.95,1.52-.02,1.1,.28,.56,1.46,.04,1.02-1.67-1.07-1.52-.72-.03Zm-7.25-21.77l-.35-.57-.72-.03-.37,.6,.35,.5h.74l.35-.5Zm6.6,29.21l-.37,.5,.05,1.1,1,1.59,1.12-1.67-.42-1.52h-1.37Zm6.95-39.34l-1.02,1.6,1.07,1.63,1.02-1.6-1.07-1.63Zm1.39,98.77l-.3,.53-.02,1.02,.37,.57h.65l.37-.57v-1.02l-.35-.57-.72,.04Zm-.65-343.62l.37-.61v-1.06l-.35-.54-.74,.07-.35,.5,.05,1.03,.37,.61h.65Zm-8.34,350.02l-.37,1.52,1,1.59,1.44,.04,.3-.53-1-2.62h-1.37Zm2.09-91.4l-.4,1.7,1.07,1.52h.65l.67-.99,1.46-.07,.3-1.52-.28-.57-3.49-.07Zm-1.09-.43v-1.09l-1.07-1.63-1.02,1.59-.02,1.1,.37,.53h1.37l.37-.5Zm9.41,2.66l-.67,.99h-.72l-.37,1.59,.35,.53h1.37l1.12-1.59-1.07-1.52Zm-15.38-8.57l-.3,1.63,1.07,1.6,1.05-1.6-.35-1.59-1.46-.04Zm8.71,.53l.07,1.03,.35,.6h.65l.37-.57,.02-1.03-.37-.53h-.72l-.37,.5Zm-4.14,.03l1.07,1.56h2.11l.28-.5-.32-1.59-2.77-.04-.37,.57Zm5.23-14.34l-2.09-.04-.39,1.6,.37,.6,2.09-.07,.39-1.59-.37-.5Zm-4.9,63.72h1.46l.3-1.59-.35-.53h-1.39l-.37,.5,.07,1.1,.28,.53Zm95.56,34.99l-.37,.6v1.03l1.07,1.59h.72l.3-.56,.02-2.12-.37-.5-1.37-.03Zm115.66-263.7l.37-.5-1-1.56-.37,.53-.02,1.1,.37,.5,.65-.07Zm-.63,12.85l-.37,.5,.37,.6,.65-.07,.37-.5-.37-.53h-.65Zm-.37-229.96l-.35-.53h-1.39l-.37,.5,.05,1.11,1.02,1.6,.72,.04,.37-.61-.05-2.1Zm17.1,211.81l-.37,.57,.35,.5,1.37,.04,.37-.57-.35-.53h-1.37Zm-1.42,17.04l-.3,.53,.28,.57,1.46,.03,.3-.6-.37-.5-1.37-.03Zm-21.64-4.26l-.37,.54,.42,.57,.67,.03,.37-.6-.37-.5-.72-.04Zm7.67-12.71l.74-.07,.3-.5v-1.03l-.35-.6h-.65l-.37,.57,.05,1.1,.28,.54Zm.74,20.13l-1.05,1.67,.35,.53h.67l.37-.5-.07-1.1-.28-.6Zm-12.97-4.75l.42,.57,.67,.03,.37-.6v-1.1l-.35-.5-1.12,1.6Zm-19.8,10.15l-1.37-.03-.37,.53,.35,.57,1.39,.03,.37-.57-.37-.53Zm4.46-228.86l.05-2.1-.37-.61h-1.37l-.3,.57-.05,2.1,.37,.53,1.37,.03,.3-.53Zm-3.83,230.99l-.3,.5,.37,.53h.72l.3-.5-.37-.53h-.72Zm9.13-50.11l-.37,.57v1.1l.35,.5,.72,.03,.3-.6,.02-1.03-.35-.57h-.67Zm.7-2.13l.3-.5-.3-.54h-.72l-.37,.5,.35,.6,.74-.07Zm-6.97,51.1l-.37,.57,1.07,1.63h.65l.37-.49-1.07-1.71h-.65Zm128.93,8.56l.37-.5v-1.1l-.35-.5-.72-.03-.3,.53-.02,1.07,.35,.6,.67-.07Zm5.65-17.08l-.37,.6,.35,.5,.65,.03,.37-.53-.35-.57-.65-.04ZM406.87,22.66l-.3,1.6,.28,.6,1.46-.07,.3-1.6-.35-.53h-1.39Zm136.63,244.32l-.3,.57,.28,.5,.74,.04,.37-.5-.37-.6h-.72Zm5.65-15.98l-.37,.57,.35,.49,.65,.04,.37-.57-.35-.53h-.65Zm6.23,6.43h-.65l-.37,.5-.02,1.1,.35,.53h.72l.3-.57,.02-1.03-.35-.53Zm-271.21,199.87l-.35,.5,.05,1.1,1,1.63h.72l.3-.5,.02-2.2-.35-.53h-1.39Zm270.88-206.79l-.37-.53h-.72l-.37,.5,.42,.6,.67-.07,.37-.5Zm-92.4,.57l-.37,.5,.37,.49,.72,.04,.37-.6-.35-.5-.74,.07Zm69,1.03l-.37,.5,.07,1.1,.35,.54h.65l.37-.57,.02-1.03-.37-.53h-.72Zm-.35-19.71l-.35-.53h-.65l-.37,.5,.05,1.1,.28,.5,.74,.03,.37-.53-.07-1.07Zm12.94,25l.28-.5,.02-1.1-.28-.5h-.72l-.37,.5-.02,1.1,.35,.5h.74Zm-7.02,5.32l-.3,.57v1.1l.28,.5,.72,.03,.37-.6,.02-1.03-.35-.57h-.74Zm1.74-9.05l-.35-.5h-.65l-.37,.5-.02,1.1,.35,.5h.74l.37-.5-.07-1.1Zm1.81,1.63l-.37,.53-.02,.99,.35,.6h.74l.28-.57,.02-1.1-.35-.43-.65-.03Zm-1.39,5.32l-.37,.5,.35,.54h.65l.37-.5-.35-.54h-.65Zm11.81-10.68l-.3,.57,.28,.53h.74l.3-.57-.37-.53h-.65Zm-246.06,196.78l-1.12,1.56v1.03l.42,.6,2.04,.03,.4-2.69-.37-.53h-1.37Zm-4.9-21.28l-.37,.6-.02,2.02,.37,.6h.72l1.02-1.59,.02-1.09-.35-.5-1.39-.04Zm16.04,18.06l-.35,.57-.02,1.03,.35,.6h.74l.28-.6,.02-1.06-.35-.53h-.67Zm2.09,2.12l-.37,.56-.02,1.03,.37,.53h.72l.3-.5v-1.1l-.28-.53h-.72Zm2.77-7.4h-1.44l-1.72,3.68,.35,.6,2.12-.07,1.77-2.66-1.07-1.56Zm-23.68,3.15l-.4,1.66,1.07,1.56h.72l1.05-1.59-1.07-1.63h-1.37ZM404.08,13l-.37,.6,.05,2.1,.35,.53h1.39l.3-.5,.02-2.14-.35-.57-1.39-.03Zm-115.06,395.44l-.37,.57v1.03l.42,.56,.65,.04,.37-.6,.02-1.1-.35-.5h-.74Zm4.86,19.12h-.65l-.37,.57,.05,2.12,.3,.5,.72,.03,.37-.6-.05-2.02-.37-.6Zm24.12,4.82l1,1.59,1.37-.03,1.79-2.62-.35-2.69-2.11,1.06-1.7,2.69Zm-32.42,10.09h-.72l-.37,.5,.05,1.1,.37,.5h.65l.37-.5-.07-1.1-.28-.5Zm9.69-4.25l-.28,.5-.02,1.1,.37,.5,.72,.03,.3-.53v-1.06l-.35-.53h-.74Zm.07,86.99l-.37,.6-.02,.99,.37,.53h1.44l.3-1.59-.35-.5-1.37-.03Zm1.39-98.7l1.02-1.59,.02-1.03-.37-.5-2.81-.03-.33,1.59,.37,.54h1.37l.72,1.03Zm-.35,4.81l-.02,1.03,.37,.57h.72l.3-.57,.02-2.12-.37-.5-1.02,1.59Zm19.89-5.88l-.37,.57-.02,1.1,.35,.5,1.05-1.56-.35-.6h-.65Zm70.37-48.84l-.37,.53,.35,.5,1.39,.03,.37-.5-.37-.53-1.37-.03Zm6.95-171.41l-.37,.57,.05,1.1,.37,.5h.65l.37-.57,.02-1.03-.37-.57h-.72Zm-6.25-17.06l.37-.5v-1.03l-.35-.61h-.72l-.37,.57-.02,1.03,.42,.53h.67Zm12.87,49.56l1.07,1.63,2.77-.03,1.12-1.6-.42-.53-4.53,.53Zm2.44,7.99l-.37,.57,.07,1.03,.35,.54h.65l.37-.5,.02-1.1-.37-.53h-.72Zm-18.8,131.98l-.35,.53-.02,1.07,.35,.53,1.39-.07,.37-.5-1.07-1.52-.67-.04Zm19.85-134.68l.37,.6h.65l.37-.57,.02-1.03-.37-.57-1.05,1.56Zm-79.11,171.84l.33-1.6-1-2.62-1.44-1.03-1.37-.03-.3,1.52,2.42,3.75h1.37Zm2.77,17.03l-.28,.5,.98,1.59,1.39,.03,.37-.5-.35-1.63h-2.11Zm-4.14-6.41l-.35,.53-.02,1.06,.35,.6,.67-1.1,.72,.03,.37-.6-.35-.5-1.39-.04Zm-2.16,22.34l-.28,.5-.02,2.12,.35,.57,1.37,.03,.37-.6-.33-2.62h-1.46Zm60.68-205.3l.37-.5-1-1.63-.37,.57-.02,1.03,.35,.53h.67Zm.02,139.4l-1.02,1.66,1.07,1.52,.95-1.6-.26-1.59h-.74Zm-22.24-248.21l-2.44-3.7,.35-3.73-1.09-.54-.7-3.2-2.79-3.2-.65-2.14v-4.3l2.37-3.7,4.18-2.13,.4-1.6-3.51-5.34-1.02-4.84h-1.39l-.67,1.07-4.21-1.07-1.44-3.17h-5.53l-2.39-1.64,.3-5.84-1.39-.03-2.07,2.17h-1.39l-.77-3.17-2.77-.03-2.74,3.2h-5.62l-2.07,2.17-2.11-.03-.67,1.1-4.88-.07-.72-1.03-2.11-.03-3.07-5.8,.02-2.14-2.16-2.14,.77-2.14-3.21-1.64-2.44-2.67-1.72-3.74-1.37,.04-.72-1.11h-4.9l-2.09,4.31-1.32,1-3.51,.03-2.09-2.14-1.42,2.1-4.88,.03-2.07-4.27-3.51,.04-.67,.99-1.44,.07-.65-1.11-2.11-.03-.74,1.11h-4.16l-2.81-3.17h-1.32l-1.44-2.18-2.09-1.03-.63-2.21-2.14,.07-.7-1.14-3.51,.04-.67,1.03-2.77-1-.7,3.17h-4.95l-2.07,2.1-2.09,4.31-3.18,2.67-.3,1.6-4.14-1.07-2.16,3.2-2.04,.04-2.09-2.14-2.07,2.1-2.09-2.14-2.09,3.17-1.07-.5-.35-1.64h-1.39l-2.16,3.2-2.02-1.07-2.79-5.27-1.39-.03-2.81-3.17-2.11-.04-.65-1.11-2.11,.07-.72-1.11-1.32-.03-2.81-3.17h-1.44l-1.02-1.56,.39-1.68h-1.39l-1.79,3.78-1.77,1.6h-4.83l-.7-1.11h-2.14l-2.09-2.06-6.25,5.27-1.72,4.81v6.44l2.74,3.17-.35,4.84,2.07-2.17,1.44,3.24,2.84,1.04,1.72,2.67v1.1l6.25,8.54,2.11,7.47,4.14,9.57,.72,7.47,.72,1.1-.02,8.54-1.44,5.33-3.46,10.63-1.02,1.6-2.05,.07-1.12,1.6,.72,2.13-1.77,.46-.67,1.1-2.77-.03-2.79,2.17h-2.12l-1.39,1.07-.02,2.13h1.39l.74-1.1,2.77,.03,2.07,3.16,1.42-3.13,1.39-.03,.7,2.1,1.37,1.14,1.46-.07,2.02,3.24,2.11-.03,.72,1.1,4.14-.03,.74-1.03,2.77-.03,.67-1.03h5.62l.67-3.2h2.11l.72,1.03,.33-2.63,1.74-.57,2.09-4.19,4.88-.04,4.21,3.2,3.07,4.76-2.07,4.31-.02,2.13,1.44,1.1-1.07,3.73,4.16-.04,2.14-3.2,3.14,.53,1.07,2.67,2.77,1.04,1.35,3.23,2.84-.03,2.39-5.83,.7-4.3-1.72-2.63-1.74-.53-.7-2.13,.7-4.3-2.09-7.5,1.42-3.13,1.72-3.7,2.79-2.17,5.62-1.03,3.44-2.17h6.27l.72,1.03h4.88l.65,1.1,3.51,.04,.72,1.03,2.11-.03,.63,1.1,3.49,1.07,.72,2.13h1.44l1.37,2.13,1.39,.03,7.32,8.99-1.46,6.4,1.81,1.64,3.42-.03,.74-1.07,3.51,.03,.65-1.1,4.23,.07,1.37,2.13,4.18,4.19,1.42,3.24,5.53,6.36,2.79,3.27,3.51-.03,2.09-4.3,2.77,.03,.74-1.06,3.51-.03,.65-1.1,5.62-1.03,.67-1.07,2.77,.03,.72,1.04,2.77,.03,.72,1.1,4.14,1,3.56,2.17,4.16-.04,2.44-2.67-.05-3.12-2.72-9.64-.7-7.47-.72-1.1,.72-10.66,2.04-5.3v-1.1l1.77-1.6h5.55l2.42-1.56,.77-2.17-.7-2.07-1.74-.6Zm16.64,72.59l-.3,.57v1.1l.28,.53,.72-.07,.37-.5,.02-1.03-.37-.6h-.72Z" style="fill:#efc441;"/></svg>