<svg xmlns="http://www.w3.org/2000/svg" viewBox="0 0 800 800"><path d="M776.66,380.55l-2.26-.6-.72-.35-.85-.18-2.58.95-.55-.06-1.08-.31-.52,0-.39.29-.4.9-.32.42-.72.56-.3.31-.31.45-.25.51-.07.4,0,.43.13.62.43.86.59.52.29.48-.45.81L766,388l-.14.23,0,.29.22,1.08v.35l-.14.3L764.59,392l-.88.78-.29.33-.22.4-.34.88-.19.31-.34.25-2.13.8-1.8-.12-.47.18-.4.34-.73.82-1,.49-3.43-.3-4.09.55-.67.45-.53.79-2.45,5.47-.46,2.79-.26.94-.34.66-.2.56,0,.62,1.48,7.4v.84l-.3,1.67.09.77h0l.29.74,1.29,2,.15.51-.09.49-.12.45.06.42.17.46v.39l-.21.82-.07.51-.09.38-.23.22-.83.08-.46.13-.37.26-.18.42,0,.47-.1.37-.17.34-.24.35-.16.45,0,.45-.14.3-1.22,0-2.38.34-1.06-.12-.36.07-.39.2-.26.25-.44.76-.39.36-1.27.86-.53.57-.24.15-.82.17-.28.15-.31.27-.41.74-.38.26-1.4.28-1.35.53-.51.08-.36-.16-.08-.34.16-.38.27-.39.2-.4,0-.89-.37-.74-.6-.56-.66-.33-.87-.07-1.76.42-.83-.14-1-.44-.29,0-.3,0h0l-2.27-.18-2,.16v0h0l-1.17.63-.45.08-1.3-.25h-1.73l-7-2.32-3.15-1.94-.72-.32-1.71-.34-.36-.21-.95-.78-.44-.15-.51-.06-.5,0-.47.1-.47.21-.14.29,0,1-.05.3-.2.53-.07.28,0,.24.13.49,0,.27-.27.94-.09.48.05.49.09.43,0,.42-.11.4-2.7,5.21-1.7,5.92-.73,1.45-.11.43-.23,1.34-.28.78-1.22,1.87-.73,1.44-.48,1.61-.48,3.4-.51,2.24-.24.7-.52,1.17-1.38,2.24-.67,2.42-.58,1.28-.14.7-.1.53.65,1h0l.65.3,2.78.37,1.89.74.29.49.09.9-.05,1-.36,2.22-.54,1.74-.83,1.3-1.19.19-.89-.52-1.58-1.65-.87-.57-.91-.09-1,.23-3.52,1.69-.93.21-.74-.33-.35-.38-.29-.18-1.25-.18-.25-.18-.1-.32,0-.57-.1-.83-.3-1-.48-.73-.63-.06-.74-.18-.78.32L670,475l-7.33,2.15-1.52.8-.74.26h-.85l-2.25.83-.49,0-1.5-.46-.9,0-3,1-1.29-.12-.4.06-.38.29-.34.86-.31.26-.45.07L647,481l-1.32.49-1.32-.21-.82.06-.77.32-.69.62-1.83,1.5-.86.41-.37.27-.27.73.46.59,2.28,1.35.88.08,3.3-.67.49.05.34.16.95.7,3,1.09.29.19.11.31-.11.33-.29.18-1.19.27-.65.29-.38.44,0,.27.09.22.32.41.13.31-.08.27-.27.53-.5,1.83-.13,1,0,.86.73,3.56v.94l-.49,1.74-.14.9.11.44.28.34.59.58.22.39.11.42.05.43v.5l.19.51.32.55.66.93,2.19,5.43,2.17,5.42,0,.78-.3.75-.95,1.63.29.38.7.17.73.35.24.33.13.42.06.47V525l.1.45.43.77.09.44-.1.51-.27.37-.36.21-.41.07-.38-.09-.94-.66-.76,0-.78.35-1.44,1-1.62.66-.78.47-.24.68.34.6.63.49,1.26.58.85.12.38.2.21.43-.1.49-.4.24-.94.11-1.4.5-.34.27-.88.33-.32,0-.64-.17-.32,0-.3.18-.38.61-.41,1.41-.31.7-.67,1-.16.38-.06.51.1.38.15.38.15.93.21.36.5.67.19.42,0,.28-.1.31-.21.48,0,.27.42,1.88.12.38.18.35.27.35.34,1.7-.14.51-.22.27-.7.36-.81-.44-.56-.72-.49-.82-.61-.77-1.19-1-.71-1-.25-.28-.79-.5-4.08-.84-.8,0-1.49.27-1.77-.11-.93-.37-.51-.66-.83-1.9-.58-.59-1.47-.66-.65-.63-.27-.43-.19-.45-.1-.48,0-.55.12-.92-.14-.24-.47-.12-.73.12-1.44.7-.69,0-.71-.27-1.22-.07-1.48-.58-2.24-.21-.31-.15-.63-.51-.76-.42-1.82-.61-1.22-.12-.81.06-.39.13-.67.42-.32.11-.39,0-.76-.27-.35,0-.85.11-.84,0-2,.17-.82-.13L603.4,533l-.41-.15-.43,0-.41,0-.17.07-.31.19-.47.21-.21-.15-.13-.13-.08-.16-.11-.14-1.25-.29-1.21,0-.38.06-1,.45h-.32l-.35-.2-.32-.25-.36-.18h-.73l-.51-.17-.29,0-.28.06-.78.37-.61.16-1.81-.3h-.64l-.3-.08-.28-.2-.53-.71-.2-.17-.63-.22-2.1-.34-.35-.15-.37.07-.73.27h-.81l-.37.05-.36.25-.39.44-.14.08h-.1l-.34-.06-.14,0,0,.08,0,.1-.08.1-.7.36-.36.08-.82,0-.71.29-.39.1-.48-.08-1-.39-.48-.06-.34.14-.55.51-.33.09-.18-.08-.21-.39-.19-.11-.22,0-.36.16-.2,0-1.58-.48h-1.68l-1.35-.31-.48,0-1.21.39-.41,0-1.45-.4-.72-.11-1,.08h-.19l-.28.07-.2.18-.6,1.53-.19.31-.45.43-.53.35-.53.23-.48,0-1.18-.48-.37,0-.73.07-4.15-.51h-1.23l-.48-.11-1.12-.64-.43-.33-.52-.29-1.12-.33L549,532l-.52-.44-1.58-.73-2.11-.34-.64-.24-1.89-1.39-.27-.29-.45-.76-.27-.31-.34-.19-.76-.18-.65-.44-.79-.06-.36-.19-1-.76-.53-.25-.62-.12-.52-.22-.94-.81-.53-.28.5.66.19.4,0,.36-.3.16-2.91.33-.34-.1-.65-.61-.38-.14-.56.42-.62,1.65-.68.35-.77,0-.31.07-3.17,1.24-.87.48-.29.24-.21.35-.7,1.94-.38.64-.15.35-.07.4,0,.41.23.79.05.43-.06.36-.49,1-1,2.1-.2.84-.05.9.14.79.29.74L521.8,544h0l0,.43-.51.09-1.1-.43-1.68-.27-.23-.31V543l.06-.73L518,542l-.41-.16-1.33-.08-.33-.09-.3-.16-.37-.27-.69-.29-.82,0-2.36.37h-.63l-.62-.17-.63-.27-.47-.42-.63-1.12-.45-.47-.56-.31-2.63-.59h-1.32l-.65-.12-2.18-1.4-1.23-.47-2.36-.1-.28.08-.53.25-.29,0-.58-.16-2.14-1.13-1.14-.27-.3-.12-.29-.19-.28-.12-.3.07-.65.21-1.29.07-.6.19-2,1.24-.32,0-.24-.08-.72-.59-.19-.1-.19,0-.31.13-.89-.3-.45,0-.32.27-.2.36-.24.34-.29.27-.33.14-.39-.09-.44-.18-.4-.13-.32.15-.4.7-.23.3-.29.19-.7.23-.16.23-.05.49,0,1-.1.35L478,540l-1.6.24-.69.41.18.89.19.23.63.53v0l.15.25,0,.29-.17.24-.26.13-.29,0-.88-.56-.28.26-.26.4-.22.46-.11.46,0,.26.1.16,0,.17-.13.27-.59.7-.22.19-.44.41-.23.36.1.36.74.7.39.19.53.12-.62.49-.63.5-.34.16-.36.17-.35.06-.34,0-.43-.11-.43-.12h-.21l-.23,0-.13.16-.14.17-.07.22-.08.23-.1.15-.09.16-.26.29-.25.3-.22.39-.21.38-.17.43-.17.43-.21.35-.19.35-.29.14-.29.12-.21,0-.22,0-.2-.06-.19-.09-.14-.13-.14-.13-.07-.23-.06-.22-.07-.16-.07-.15-.14-.16-.15-.16L466,552l-.17-.12-.13,0h-.14l-.9.36-.9.38-.4.32-.39.33-.22.48-.23.49-.08.2-.06.21-.11.12-.13.13-.15.08-.15.08-.17,0-.16.05-.17.1-.15.08-.14.13-.12.14-.63,1-.62,1-.24.27-.23.26-.77.53-.77.54-.52.19-.5.18-.15.12-.14.11-.13.17-.13.19-.27.31-.28.32-.39.16-.38.15-1,0-1,0-1.24.33-1.25.33-.15.13-.16.1-.27.3-.26.3-.94.71-.93.7-.53.16-.52.16-.25.18-.24.16-.11.31-.13.31,0,.12,0,.14.15.27.17.26v.25l-.1.05-.11.07-.55-.1-.55-.1-.14,0-.14,0-.35.21-.36.22-.14,0h-.12l-.28-.1-.28-.09-.14,0-.15,0-.5.29-.51.31-.22.22-.23.21-.09.25-.09.24-.18-.07-.16-.07-.18.06-.17.05-.43.2-.42.21-.07.05-.09.07,0,.08,0,.08,0,.09,0,.1.08.11.09.1.05,0,0,0,0,0,0,0,0,.14,0,.13,0,.2v.19l-.15,1.12-.14,1.12-.08.13-.07.14-.15.15-.17.14-.31.21-.32.21-.33.15-.34.16-.39.06-.39,0-.19.06-.19.06-.13.16-.11.15-.23.37-.24.38-.63.27-.63.27-.25.28L434,576l-.34,1-.35.92-.17.22-.19.23-.57.24-.16.07-.41.16-.25.18-.27.16-.1.28-.1.27,0,0,0,0-.09,0-.09,0h0l0,0v.25l0,.27,0,.26v.23l-.05.13-.07.14-.06,0-.06,0-.05.05,0,.07,0,.18,0,.17.09,1,.1,1,0,.21.07.22.07.09.08.1.09,0,.08,0,.24.05.23.06v.3l0,.14,0,.15.07.15.06.13.07.14.08.13v.07l0,.08-.21.37-.23.35.18.09.17.08,0,.16-.06.15-.2.11-.19.12-.24,0-.25,0-.37-.19-.37-.17h-.11l-.1,0-.09.06-.09,0,0,.11-.05.09-.06.08-.08.08h-.28L429,587l-.11.12,0,0,0,.06-2.17-1.09-1.42-.73-.75-.38-.62-.47-.62-.47-.84-.8-.85-.81-.28-.14-.27-.16-.37-.07-.37-.08-.06,0-.06,0,0-.1,0-.09.09-.07.08-.07.32-.15.33-.13.15-.12.16-.12.13-.15.13-.15.11-.15.09-.15.15-.31.14-.31.14-.37.14-.38.09-.4.09-.39v-.66l-.08-.15-.07-.14,0,0-.05-.05-.08,0-.07,0,.08,0,.08,0,.21-.16.22-.15,0,0,0,0-.09,0-.09,0,0-.11,0-.1v-.06l0-.25,0-.25-.19,0-.2,0-.12.25-.13.27-.1-.13-.1-.13h-.23l-.11,0-.13.06-.1.08-.11.09-.13-.2-.11-.19-.08-.46-.07-.44-.09-.22-.1-.2-.41-.51-.4-.51-.07-.14-.07-.13v0h0l-.11-.34-.12-.33-.22.14-.24.15-.53.34-.53.34-.18,0-.18,0-.2-.07-.2-.06-.39-.19-.39-.21-.22-.05-.2,0-2.36.13-2.4.14-1.49.08-2.36.13-2,.12-2.69.15-1.79.11-2.15.12-.76-.19-.3-.07-.45-.12-.42-.48-.42-.49-.78-3.45-.79-3.46-.59-2.91-.59-2.91-.31-3-.33-3,0,0-.05,0h-.13l-.06,0h-.08l-.06,0H390l-2,0H383.7l-.07,0-.08-.07,0-.12,0-.14.08-4.6.05-3.9v-.71l.05-.16.06-.18.22-.08.21-.08.09-.2.1-.2,0-.62,0-.64.39-5.9.4-5.91-2.66,1.36-2.66,1.37-.15,0-.17,0-1.19-2.31-1.37-2.7-1-1.95-1.57-3.06-.36-.31-.36-.31-1.9-1.12L370,520.3l-.92-.91-.92-.92-2-2.45-2-2.44-.32-.26-.3-.26-.31,0-.29,0-.32.13-.35.1-1.79.95-1.83,1-1.78.93L355,517l-.33.08-.32.09-1-.09-2.55-.22-2.55-.21-2.56-.22-2.56-.23-2.81-.24-2.81-.23-2.81-.26-2.81-.23-1.68.26-1.69.26-1.68.25-1.68.26-1.69.27-1.68.25-1.68.26-1.69.26-1,.18-1,.18-1,.19-1.05.17-.64.11-.66.12-.64.11-.65.12-1.52.26h0l-.38-.15-.37-.16L308,517l-1-1.12-1-1.13-1-1.14-1-1.11-1.06-1.16-1.06-1.15L300.64,509l-1.06-1.14-1.29-1.42-1-1-1-1-2.11-2.16-1.08-1.64-.18-.57-.12-1.24-.12-.59-.34-.65-.47-.49-1.15-.72-1.62-1-2.2-1.37-2.69-1.67-3.08-1.93-3.38-2.11L274.14,486l-3.7-2.3-3.69-2.33-3.63-2.27L259.68,477l-3.17-2-1.22-.76-1.6-1-2.35-1.48-1.79-1.13-1.15-.71-.4-.26-1.43-.9-.49-.2-.44,0-1.49.4-1.11.3-1.11.29-1.12.31-1.11.3-1.07.3-1.06.29-1.06.3-1.07.29-2.3.66-2.31.66-2.31.67-2.3.66-1.73.51-1.73.52-1.73.51-1.73.53-1.73.51-1.73.53-1.73.51-1.73.52-.38.11-1.35.41-1.73.52-1.73.51-1.73.53-1.72.51-1.73.53-1.73.51-1.72.52h0v0h0v0h0v60.63l0,5.45V570l-1.26-.12-.62.06-1.64.76-1.72.25-1.09.4-2.33.12-.57-.17-.52-.29-.38-.28-.31-.4-.52-1.19-.21-.4-.29-.31-1.17-.77-.64-.54-.57-.67-1.17-2-1.2-2.05-.83-1.08-1.92-2.49-.19-.42-.1-.48,0-.5.08-.42v-.4l-.19-.46-.43-.54-3.12-2.75-2.18-1.39-1.86-1.18-3.1-2-2.87-1.83-1.34-.46-1.4-.19-4.42.77-2.81.48-3.26.57-1.21.25-4.07,1.54-1,.59-2.9,1-3.93,3.14h0l-2.45,2.34L134,559.19l-.76.74,0-.45.15-.54.71-1.73.17-.89-.12-.94-.2-.48-.24-.39-.16-.18-.19-.15-.15-.19-.06-.31.12-.8v-.23l-.12-.23-.53-.6.21-.33L133,551l.13-.47,0-.44.11-.38.26-.19.33-.12.3-.2.9-1.67,1-1.3.12-.2.09-.23,0-.27,0-.51,0-.25.06-.19.56-.53.15-.23.05-.19,0-.4,0-.2.31-.94.19-.88v-.85l-.24-.91-.47-1-.37-.56-.78-.47-.21-.54,0-.5.21-.18.12.25.14.5.22.48.34.23.16.06.66.43.09.17,0,.18,0,.13h.1l.25.87.19.43.18.17.2-.19.2-.48.17-.57.06-.47-.16-1-.43-.7-.67-.37-.87-.08-.08-.6-.93-.56-1.91-.66-1.83-.15-.27,0-.22.05-.23.09-.23.15-.1.15-.2.4-.09.13-.49-.19L129,533.46l-.68-.49-.44,0-1.6.24-1.23.44-.68.46-.4.13-.38-.17-1.09-1.23-.25-.37-.4-.76-.29-.42-.18-.36-.19-.89-.19-.47-.88-.94-.24-.49-.24-.08-.26,0-.16-.09-.09-.31,0-.2.12-.19.06-.29-.08-.44-.21-.49-.3-.27L118,526l-.9,0-.44.11-.14.13-.12.16-.12.14-.19.05-.24-.05-.42-.23-.24-.06-1.7.34h-1.69l-.24-.24.06-.55.67-1.94.19-1,.12-3.14-.08-.49-.58-1.09-.09-.23,0-.23,0-.54,0-.21-.29-.33-.74-.51-.14-.4-.06-.34-.15,0-.2.08-.22.06-.22-.06-.14,0-.27-.22-.49-.64-1.69-3.37-.15-.42-.07-.42-.06-.23-.11-.21-.14-.18-.07-.13v-.23l0-.53,0-.22-.15-.27-.54-.48-.13-.2-.15-.44-.27-.42-.23-.47-.18-.2-.19-.11-.41-.12-.14-.12-.16-.33,0-.2.09-.21.05-.31-.08-2-.08-.5-.1-.38-.48-.62-.74-.51-1.57-.68-6.49-1.14-.83-.36-.39-.25-.42-.35-.32-.44-.14-.53.12-1.07,0-.53-.14-.46.14-.19-.19-.43-.09-.79,0-.8.24-.46.3.71.26-.31.19-.68.07-.38.2-.12,0-.29v-.34l.06-.26.23-.16.16.06.15.16.22.13,2.9.53.89,0,.85-.31h.46l.2.39.28.07h1.61l.28.27.22.11.2-.13.14-.25.06-.19.1-.1.22,0,1,0,.45.09.4.2.66.57.56.66.17.11.46-.07.19.05.11.19,0,.16-.14.11-.18,0,.31.41.48.31,1.49.66.53.09h.54l.56-.14.41-.21,1-.95,0-.05,0-.09,0-.1.13-.08.13,0,.44,0,.29,0,.5-.16h.28l-.14.78.53.15,1.26-.25,1.24.55.41-.06.25-.29-.09-.34L117,493l-.28-.23-1.11-.56-.75-.65-.43-.05-.88.26-.9.11-.5-.43-.62-1.8-.44-.73-.62-.54-1.48-.9-.19-.18-.12-.16-.14-.12-.66-.08-.2-.07-.08-.16-.2-.19-1.17-.71-.16-.41-.05-.55.11-.5.29-.2.16-.09.08-.19v-.23l-.06-.18-.21-.12-.25,0-.22-.06-.09-.29.18-.36.43-.26.48-.14.37-.06.46.06.22,0,.26-.19.13-.16.21-.34.17-.16.79-.53.46-.2.4-.09.32.2.33.42.36.35.41,0,.15-.33-.13-.47-.25-.47-.24-.34-.09-.27.09-.28.11-.28.08-.24,0-.17-.15-.37-.07-.12.12-.34.22-.42.57-.81.1-.37.19-.4,1.61-1.84.17-.39.06-.54.11-.47.27.23.49.82.68.31h.92l.91-.25.65-.39.56-.59.17-.11.41,0,.18-.08.28-.43.21-.49.24-.43.36-.25.21.24.2.32.16.36.06.34,1.58.26.29.1.5.48.34.09.33-.09.59-.48.36-.1.41,0,.75.23.4.05,5.71-.68.78.21,1.35-.2.89.2,3.1,1.3,1.85.27.92.44.45.13,1.71-.17.48.09,1,.35.46.06.38-.12.77-.43.43-.1.12,0,.22-.23.1-.07.46.12.05,0,.12-.08.17-.13.11-.21,0-.24-.34-.21-1.94-.35-.15-.14-.1-.16-.12-.13-.19-.11-.56-.07-.84-.24L142,470.8l-.45-.1-.18-.09-.34-.43-.13-.14-.17-.06-.67-.1-.91-.39-.32-.22.1-.31-.1-.2-.11-.17,0-.22.15-.25v-.19l0-.18,0-.23,0-.58.1-.44.22-.3.34-.09.3-.19.22-.43.3-.9.71-1.16.31-.35.19-.12.45-.16.18-.14.63-.85.24-.43.36-.93.29-.5.53-.52.16-.22.09-.21.16-.54.13-.27.39-.66.09-.38-.09-.46v.15l-.09-.36.1-.33.42-.56.16-.35.09-.41.17-1.69.54-2.19v-1.72L146,448l-.83-1-.94-.89.38.05.56.46.35.16v-.18l-.33-.23-.16-.38,0-.46.13-.44-.34.16-.42.38-.41.29-.37-.15,0-.49.24-.68.55-1,0,.46.23.25h.31l.3-.22.14-.36.09-.92.15-.4.17.5.15-.12.15-.41.16-.31.18-.05.42.07.17,0,.22-.11.09-.09.06-.31.06-1-.36-.57-.57-.26-.58-.07-.37-.14-.11-.35,0-.79-.34-1.74-.35-.65-.08-.32-.16-.15-.79.1-.31,0-.33-.32-.72-1-.28-.22-.83,0-1.71.31-1-.15h-2.07l-.45-.11-.34-.18-.65-.68-.33-.12-1.16-.17-.35.05-.18.22-.07.28v.62l-.08.24-.83,1-.31.24-1.75.58-.51,0-.6-.41-.24,0-.15.2,0,.33.12.09.49.17.15.08.13.16.11.25.1.27,0,.28-.1.08-2.34-.15-.45-.2-.18-.12-.11-.11-.06-.19,0-.34-.1,0-.23-.16-.59-.59-.19-.11-.13-.14,0-.31.1-.17.2-.19.15-.21-.08-.27-.36-.1-.33.43-.38.93-.35.15-.58,0-.61-.14-.43-.21.58-.72.19-.17-.39-.1-.45.17-.81.47h-.39l-.39-.16-.36-.27-.3-.33-.71-.53-.25-.43.38-1.05,0-.51-.26-.38-.46-.08-.35.28-.18.49-.1.53-.19.46-.34,0-.38-.43-.47-.87-.35-.33-.45-.2-1.2-.2-1-.35-2.37-.49-.76-.44-.46.09-.84.56-.72.35-2.43.51-.34.2-.55.67-.31.15-.28-.08-.42-.36-.19-.08-.2.08-.11.19,0,.17.09.08-.11.23L102.27,435l-.32.23-.19-.43.07-.28.35-.5.09-.32-.1-.16-.24.13-.66.66-.46.24-.5.11-.38-.13-.27,0-.1.49-.07,1.18-.16.39-.24.37-.3.21-.32-.14.33-.44.2-.38,0-.27-.43-.09-.62.19-.13.06-.22.2-.16-.05-.14-.15-.61-.5-.19-.08-.15,0h-.09l-.09.11-.17.26-.6,1.6-.29.27.09-.31,0-.88-.25.21-.14.28-.12.29-.12.25-.14.05-.34,0-.15.07-.14.12-.08.09-.79,1.38-.38.4-.33-.05v-.23l.13-.31.06-.27-.19-.12-.23.07-.58.35-1.65,1.61-.53.85-.3.35-.37.15-.7-.07-.26.07-.18.14-.29.39-.15.17-.66.26-.2.36h-.25l-.53-.13-.27.23,0,.46-.12.31-.46-.17-.23-.36-.15-.13-.19.09v.54l-.06.24-.19-.11-.38-.45-.24-.17-.2,0,0,.19.06.63,0,.19-1.2-1.44-.28-.13-.07.47.14,1.1-.35-.19-.19.15-.14.28-.2.27-.15-.58-.24-.31L79,444l-.33-.2-.2-.33v.27l0,.41.25.29.21.64.12.25-.2,0-.32-.14-.19,0-.16-.08v-.18l.09-.23v-.17l-.06-.09-.37-.34-.17-.1-.11.1,0,.18v.08l-.6-.09-.65-.25-.57-.35-.33-.48.14.62,1.21,1.29.29.78-.36-.13-.69,0-.07,0-.27-.32-.17-.36-.22-.29-.36,0v.15l.31.28,0,.52.11.51.47.23.7.67.07.22,0,.27,0,.27-.08.25-.76-.52-.35-.34-.28-.34-.25-.4-.22-.26-.29-.12-.5,0,.21.15.15.15.11.24,0,.38.09.23.67.68-.07,0-.18.15-.26-.17-1.46-.45-.2,0-.1.09,0,.26.15.16.19.08h.19l.31.22.12.47,0,.46,0,.21v.15l-3.57-1.9-1.37-1-.77-.72-.37-.19h-.53l-.46.09-.44,0L65.39,445l-.46-.51-.52-.41-.73-.17-1.7,0-.63-.23.44-.58-.3-.2-.09-.34,0-.36-.16-.25-.68-.38-.36-.15-.35,0,.44-.55.49-1.23.94-.71,1.13-.22,1.09.31.38.31.28.41.5.95.44.19,2.83-.5.57-.42L70,438.67l-5.69-8.23-2.79-6.7-.19-.59-.2-.42-.27-.19-.69-.06-.66-.22-.48-.42-.93-1.17h0l-3.44-5.5-1.13-.89-1.26-.52-7.29.09L41,412.12l-.43,0-.33.23-.1.36v1.51L40,415.35l-.16.5-.27,0-3.42-2.18-.62-.55-.32-.39-.07-.29.1-.31.24-.44.13-.15.12-.09.09-.1,0-.21-.06-.15-.62-.94-1.3-1.5-.13-.28.27-.22,1.45-.82.75-.62.26-.5-.34-.31-1-.1-.29-.33V405l.14-.43.09-.45-.14-.51-.12-.15-.4-.4-.1-.23.11-.16.2-.15.12-.12.25-.49h0v-.23l-.24-.35-.38-.26-1.83-.47L28,399.1l-4.61-1.45h0v0h0L26,391.09l2.48-6.2.44-.55.64-.44,1.39-.69.42-.31.35-.28.91-1.11.77-1.25.35-1.36-.21-1.31-.91-1.09-2.74-1.89-1-.36L30,368l1.15-6.24.41-1.05.67-.59,4-1.62,1.26-1.16L38.65,356l.37-.72v-.93l-1-1.27-.14-.71.2-.35.67-.58.18-.39-.1-.41-.26-.27-.15-.31.2-.5.32-.24,1.27-.48.27-.29.52-1.09.07-.17.58-.74.77-.65.84-.4H44l.47.31,1.2,1.4.83.41.26.26.21.34.12.25.18.19.35.14.23.12.86.9.35.49.73.57.74,1,.73.59.14.31.09.37.12.35.23.28.92.67.4.69.18.72.13.74.22.74.13.23.19.52.13.22.21.23.73.54.36.6.14.57.22.37.65,0,.53-.09.16.08.87.77,1.08.57.22.05.24-.14.43-.53.24-.19L64,359.86l1.85-1,1.43-1.52.3-.45.14-.25v-.27l-.21-1-.16-.42-.25-.28-1.27-.37,0-.67.15-.92-.34-1-.77-1.39-.5-1.79-.51-3.72.09-1.8-.1-.81-.46-.57-.94-.16-.46-.23-.09-.51.29-.34.47,0,2.41,1.31.86.18.81-.14,3.37-2.26,1.65-1.94.77-.61,2.57-.58,1.59-.59.72-.55.27-.88-.34-.82-.62-.67-.44-.65.22-.74.44-.69.18-.39.15-.85.17-.48.23-.43.25-.27.43-.1,1.48.39,4.41,0,.31-.2.86-1.07,2.66-2.06.77-.35,3.3-.59,2.17-1,.32-.24.12-.25,0-.33-.14-.46,0-.51.16-.23.29-.16.27-.25-.07-.11-.16-.15-.09-.18.15-.13.23-.07,1.1,0,.33-.11L97,320l.15-.46.43-.06.29-.1.17-.27.07-.59L97.93,317l0-.39.33-.31.35-.08.25-.22,0-.64.08-.58h.32l.74.49.85,0,.16.11-.36.45-.3.47.23.23.46.05.45-.05.82-.3.48-.48L103,315l-.87-2.17L102,312l.41-.45,1,.18.34.19.34.27.29.35.21.43.3.47.45.2,4.51.27.38-.12.4-.2.39-.1.34.18.45.71.22.23.37.15.82,0,.35.16.19.52v.6l-.15.4-.27.27-.36.16-1.79.3-.11.21.22.38.29.43.18.31h0l.56.54,1.39.12,1.53-.21,1-.46.32-.4.24-.42.28-.27h.44l.48.18.19.25,0,.37,0,.61.43.78.85-.08.93-.5.71-.51v-1l-.29-.86,0-.8,1-1,.57-.76.34-.29.51-.18.52,0,.5.19.48.28.48.14.57.06.57,0,.48-.14.35-.31.4-.83.28-.37.48-.24,1,.08.51-.05.39-.28.24-.8.28-.24.51.28.31.89.23,1,.24.79,1.24,2.09.51,1.71.12.27.21.32.29.35.36.3.38.22.15,0,.39-.25,1.63.1.09.21.21-.09.23-.24.16-.23.15-.14.23-.08.44-.05.13-.08.09-.2.14-.19.27-.08.18.09.39.36.19.1,1-.08.37.13-.25.47.38.06.48.25.27.07.29-.08.24-.2.24-.24.24-.19.71-.26,2.21.07-.15-.46.07-.2.24-.06H147l.18.06.09.12.06.13.11.15.17.06.12,0,.1-.08.12,0,1.39.17.26,0,.46-.2.38.26,0,0,.71.26.21.24.38.62.26.24,1.88.69.77.49.24.22.14.42-.16.22-.64.28.34.36v.44l-.09.45.1.42.64.55.26.33.13.47.45.46,3.4.91.93-.15.51.13.72.49.35.35.43.89.42.23,1,.14.35.24.16.38.18,1,.16.36.13.23.06.26-.06.44.57.65.33.25.73.39.25.31.24.35.28.35.45.25,1.49.24.2.12.33.31.19.11.82.17.27.12.12.22,0,.24-.05.27-.11.24-1.05,1.23-.14.53,0,1.14-.1.5-.4,1.17-.1.53.07.49.29.56.67.8.37.31.43.25.38.06.84-.17.1,0,.75-.28,1-.8.53-.76-.05-.82-.63-1.88v-.55l.23-1,0-.54-.08-.16-.28-.28-.06-.22.06-.23.29-.44.11-.22-.25-1-1-.52-1.06-.28-.43-.31.24-.23.35-.16.21-.26-.38-1,.15-.31.35-.19,1.58-.44.44,0,.43.13.39.18.73.61,1.2.53.37.35.56.66.6.55,2.83.73.29.57,0,1,.42.67,4.08,3.41.44.26.34.09.34,0,.92-.23h.49l.47.13.43.28.27.4.15.42.19.35.85.32.3.26.55.73.8.51.64-.22,1.3-1.25,3.08-1.53,2.7-2,.39-.59.7-3.14.19-.61.2-.35.3-.08,1.53.64.57.1.49-.09.38-.31.15-.4.11-1,.27-.26.95-.12.29-.35v-.35l-.22-.75,0-.39.16-.31.3-.29.59-.43.54.18,1.64,2.14.37.15,1.32.24.35,0,0-.28-.12-.43-.38-.85,0-.5.26-.37.4-.22.36-.14.46-.07.29.11.69.5.46.15.49,0,.48-.12.45-.2.47-.11,1.55.15.87-.19,1.22-.67.3-.11.25.16.24.53.16,1,.14.46.29.19h.45l.34.08.31.23.29.42.17.43.22.91.17.42.28.42.34.3,1.21.6.45.12H226l.44-.22.32-.37L227,334l.24-.35.42-.23.74.08,1.72.48.6-.31.28-.77v-.84l-.17-1.73.11-.95.34-.61.29-.58.51-.09.84.45.29.06h1l.24.11.17.14.29.38.19,0,.52-.26.24-.05,1.4-.21.12,0,.09.14v.31l0,.09.42.28.49.23.5,0,.42-.27.23-.47.16-.56.23-.47.39-.19.43-.11.74-.4.27.21.55.51.24.35,0,.35,0,.35.13.3.37.17,2.25.05.8.33.58.68.14,1.09-.11.48-.21.39-.26.31-.3.27-.16.35.08.49.18.47.21.29.36.07.92-.07.19.27-.13,1,.05.35.33.3.47,0,.54-.14.52,0,.39.33.3.84.16.33.33.31,1.38.94.73.28,5,.41.4.11.31.35.21.39.22.24.26.11h.33l1.76-.38.94,0,.75.44.38.38,1,.35.22.16-.05.67-.46.19-1.06-.15-.48.39,0,.38.29.39,1.05.85.59-.26.6-.56.64-.46.93-.15,1,.06.91-.16.74-.76.81-1.53.24-.36.58-.63.21-.35.08-.44-.1-.91v-.51l.1-.44.77-1.73.14-.2.17-.17.79-.27,1.14-.07,1,.32.29,1,.05,1,.41.74.6.58.66.45,1,.45,7.7.83,1.85-.27,5.11-1.54L298,337l.59-.52.42-.79.28-1.09.28-2.33.16-.73.87-4.34L301,326l.61-.73.81-.4,1-.23-.32-.14-1-.37-.56-.46-.44-.73-.74-2-.38-.54-.08-.12-.67-.16-.81-.46-.69-.25-.27,0-.43.14h-.25l-.25,0-.63-.33-.44-.09-1.28.09-.41,0-.74-.23-.36-.05-.62,0-.19,0-.15-.07-.12-.08-.08-.08-.07-.08-.09-.11-.12-.12-.61-.39-.21-.24-.27-.52-.14-.32-.05-.24,0-.85.07-.34h-.3l-7.49-.17-.16,0L282,315l0-.25-.06-.24-.19-.13-2-.31-.39-.22,0-.56.28-.33.87-.37.36-.24.06-.2v-.47l.1-.15.36-.24.18-.19.09-.22-.52-.55-3.27-.71-1.89-1.26-.63-.23-.2.26-.17.42-.47.23-.59-.11-.38-.32-.83-1.72-.17-.41,0-.45.29-.62h3.69l2.67-2.56,1.44-1.05,1.49-.58,1,0,1,.2,1,0,.93-.66.73-1.08.34-.27,1.77-.67.37-.23.93-.93.34-.25.79-.41.58-.52-1.15-1.4-.31-.38-.1-.47-.07-1.09-.13-.47-.15-.26-.23-.14-1.71-.51-.31-.23-.09-.44.08-1.25v-.53l-.09-.42-.1-.17-.19,0-1,.1-.31,0-.24-.16-.1-.22,0-.17-.08-.15-.24-.14-.17-.14-.09-.23v-.29l0-.29.42-1.09.78-.42.9-.19.77-.36.25-.34.44-.74.33-.35,3.21-2.59-1.53-1.28,0,0h1.44l.67-.16.62-.39h0l.61-.46.64-.08.64.18.63.36.51.2.58.07.57-.07.51-.2.87-.66.44-.11.56.24.67.53,1.11,1,.56.2.57-.31.37-.29.35-.07.79.1,1.88-.22.68.22,1.21.84.68.08,1.39-.47.71-.44.39-.62.36-1.31,0-.6-.15-.65-.45-.66-.61-.3-4-.71-1.32-.49-1.08-.9-.76-.95-.39-.13-1.77.87-.6.06L300,273l-1.81-1.24-.66-.23h-1.75l-.86-.17-.74-.61-.37-.64-.16-.68.06-.66.34-.63.83-1.07.17-.36.09-.32.06-.82.31-.29.48-.09.5.09.35.29.39.59.47.55.52.36.56,0,.46-.28.95-.89.49-.35.74-.35-.5-1.77-.2-.38-.27-.09h-2.07l-.54.16-.84,1-.64.08-2.59-.55-.35-.19-.13-.17-.2-.43-.14-.18-.91-.26-2.57-.13-.49-.51.44-.66,1.9.58.65-.5,0-.34,0-.34,0-.32.13-.32.29-.15.72-.09.17-.31.21-.64.44-.48.51-.42.37-.43.06-.61-.47-.36-.63-.24-.5-.29-.37-.47-.19-.15-.37-.08-1.21,0-.4-.08-.12-.29,0-.31,0-.31.12-.29.34-.39.39-.21.86-.17.59,0,.91.16.11.14.08.19.14.27.24.32.3.26.33,0,.32-.49.05-.45-.1-.48-.37-.87-.06-.15-.16-.54,1-.07.46-.21.34-.47.34-.37.48-.09,1.48.19.27.23.53,1,.32.23,1.36.28.07.85.13.24.35.11.34-.07.19-.24.1-.4.06-.5h1.77l.24.2.25.09.24,0,.4-.44.27,0,.28.08.25.14.14.52,0,.35.11.25.38.23.64.17,2.07.12v-2.3l7.56-.26.39.06.23.27,0,.6-.82.49-.24.35.06.54.34.44.9.42.38.38.18.25.21.22.24.14.25,0,.29-.12.08-.21-.17-.83-.08-.2v-.22l.22-.33.79-.73-.32-.49-.11-.12-.23-.93.56-.73.89-.47.76-.17,1.6-.1,1-.37.36.06.8.35.51,0,1.53-.39,1.83.2.5-.21.29-.46-.05-.39-.16-.41-.12-.48.26-.45.6-.16,1.1,0,2.07.42h.73l.53-.21,1-.69.51-.21,1.24-.07,3-1.19.64,0,.55.25,1.52,1,.51.12.25.1.2-.37.6-.21.67-.1.58-.25L347,245l-.58-.67-.26-.45,0-.19.14-.12.14-.2.16-.12.35.33.22.1.23,0,.21,0,.17-.11.29-.35.18-.1.26,0,.81.21.45-.09.9-.39.57-.1.38-.15.11-.11.21-.13.27,0,.47.18,1.82-.18.22-.09.18-.18.14-.19.1-.1.21,0,.39.14.21,0,.46-.09.77-.46.24.19,1.14.85.58.29.66.07,1.18-.52,1.17-.84,1.17-.51,1.24.44,1.46,1.7.27.24.25.18.26.08.33,0,.13-.07.21-.2.14,0,.56.2.19,0,.53-.87-.58-2.88.39-.64-.07-.42,0-.12v-.64l.29-.33,2.35-.91.53,0,1.06.27.39-.11.14-.58-.21-1,.09-.36.51-.15,1.8.2,2.55.77.56-.1.48-.45.52-.84.53-.67.61-.35,1.35-.46.35.24.17,1.79.3.45,2.22-.7,6.43-2,1.17-.16,2.36.09,1.15-.16.4-.22.71-.64.39-.2,3.61-.15L402,231l1.09-.54.58-.12H405l.73-.14.48-.44.38-.66.44-.44.5-.19,1.23.3,1.2-.22,3.32.1,1.39-.39,1.1-.81.73-1.08.36-.42.55-.32.65-.18.57,0,1.78.72,2.88-.37.33-.29.14-.7.4-.16.17-.26.07-.35.17-.49.34-.2.51,0,.42-.15.08-.55-1.48-.78-.69-.66.3-.78-.41-.36-.15-.1,1.19-.57.39-.06.27.08.24.15.29.1h.37l.94-.36h.45l1.4.32,1.24-.37.42,0,.49.12.22-.07.19-.27.05-.27-.11-.52,0-.23.3-.32.86-.51.14-.42-.07-.58,0-.49.12-.44.21-.47.4.21.22,0,1.63.23.44.19.38.29.67,1,.36.4.42.17.47-.23.19-.35,0-.47-.11-1.06-.45-.24-.37-.13-.26-.29-.22-.94-.08-.2v-.19l.17-.21.29-.18.3,0,3.31,1,.47.54.3.85.4.59.74-.21,1.55-1.32.44-.1,2.64,1,3.62.41,2.38,1.16.51.42,1.49,1.79.53.31,1.48.14.71.23,2.55,1.46.31,0,.32-.25L462,220l.37-.27,1.63-.48.18-.15.05-.21v-.23l0-.22.23-.43.76-1,.35-.13.15.06,1.3.44h.4l.43-.1.42-.21.34-.32.75-.46,1-.11,1,.17.8.36L472,217l-.29.44-.13.47.2.42,1.28,1.44,1.8,2.06.32.76v.87l-.08.76-.07.36-.1.35-.12.51.32.73-.15.32-.2.33-.14.47,0,.5.14.39.68.67.13.38-.05.75.21.9.76.69.92.43.73.16h.81l.38.1.33.27.63.86.21.57v.6l-.22.38-.41.22-1,.24-.58.47-.11.75.13,1.93,0,.18,0,.14,0,.12.37.37.07.32-.09.92.06.17.13.1.32.09.09.12v.22l-.05.46v.37l-.09,1.16-1,.18h-.34l-.35-.11-.68-.34-.38-.11-.67,0-.43.23-.16.54.11.94,1.14.07.24.12.1.43v.65l-.09.63-.14.38.7.32.28.25.28.4.57,1,.33.33H479l.65-.4.51-.53.93-1.44.46-.32.53.09.59.24.58.11h.56l.17.11.18.25.12.37.15,1.32.41-.06.92-.42.45-.06.2.09.38.32.19.13.31.06.28,0,.62-.28.52-.36.15-.38-.09-1.2.06-.54.18-.5.29-.36.39-.15,3.61.32.47.13.35.16.31.28,1.07,1.81.42.44.54.16.48-.07.41-.2.23-.43-.05-.74-.31-.47-.52-.18-.57-.08-.48-.19-.34-.25,0-.15v-.35l0-.28.09-.31.1-.3.38-.73.09-.29-.15-.26-.45-.34-.6-.35-.2-.24-.05-.43.34-.19,2,.27.61.31.68.63.58.81.27.81.2.3.85.25.24.46-.08.34-.64,1.24,1.65.55,1.76.61,0,.08-.05.1-.09.13-.19.37-.23.08-.26,0h-.3l-.08.08-.14.34-.07.09h-.18l-.56-.18-.17.09,0,.31.05.35.07.24.34.45.43.33.25.4-.2.64-.46,1-.19.54V254l.36.3.58.14.59,0,.39-.22.76-.81.48-.74.24-.17.28,0,1.86.7.5-.2-.1-.94-.36-.78-.35-.57-.46-.31h-.63l-1.63.29-.11-.18.11-.49.19-.52.16-.33.83-.78.95-.16,2.46.24,2.36.23,1-.12.28.12.22.36.1.48,0,1.05.87.36.21.36.17.77.34.35,2.36.47,3.12.64.25-.07.1-.22,0-.31.06-.27.15-.09.58,0,.17,0,.24.19.41.44.24.06.45-.12.22-.16.07-.36,0-.63.15-.5,1.08-.23.32-.41-.06-.34-.16-.28-.07-.23.24-.14,1-.2.3.07v.09l.06.57.19.08,1-.26-.8,4.25-.26.72-.4.35-.5.1-2.75-.47-.55,0-.44.21-.39.41-.35.59.86.54-1.67.56-.3.33-.46,2.41-.79.12-.34.18-.28.33-.18.51.09.37.62.63-.52.9,3,1.4-.82,1.63,1.17.8.25-.07.5-.43,1.33-1.18.43-.38.16-.22.15-.28.17-.48.07-.27.11-.15.33-.11h.14l.44.06.16-.06.05-.19,0-.23.12-.43,0-.2,0-.18.13-.07,1.41.06.32.06.63.33.29-.1,1.27-.9.58-.19h.61l.73.12,1.24.13.26.15.09.43,0,.52,0,.43.26.19.56,0,.21-.13.34-.66.2-.1,1.21,0,.18.07.22.34.12.38.16.29.37.1-.14.62.13.4.66.61,1,.71.54.09.39-.4.87-2.48,0-.2-.2-.23-.33-.28-.1-.18.16-1.36.16-.52.27-.31,3,.1.19-.17.31-1.28.19-.36.16-.18.22-.05.93-.07.18-.16.15-.38.2-.78.14-.38.19-.23.63-.19,1.52,0,.66.15,1.41.66.5,0,2.39-1.53,2.21-1.43,2.89-1.85-1.35-2,1.26-.82.65-.28.65-.06,1.91.22.68-.12,1-.38,1.11-.47,2.09-.86,3.26-1.34,2.61-1.07-.21-.64,0-.44.13-.42.31-.51.4-.46.35-.13,3.66.83.81-.17,1.17-.77.41-.14h.27l.57.05.28,0,.33-.3.07-.47,0-.54.11-.5.39-.39.52-.09,1,.08.46-.07,1.3-.58.37-.11.44,0,.26.26-.12.59-.33.27-1.5.34-.33.2-.41.33-.21.38.24.33.92.24.33.27.17.63-.1.69-.31.52-.38.46-.33.5-.23.79-.13.29-.22.23-.45.37-.19.26-.95,1-1.12,0-2.35-.79-1.18,0-.35.11-.32.2,0,.18,1.88,2.85.11.33.23,1,.57.84,1.56,1.09,2.27,1.59,3.43,2.38,3.42,2.37,3.41,2.39,3.42,2.37,2.54,1.75L599.8,269l.93.9,1.52,1.49,2,2.77,1.25,1.91,2,3.06,2,3.06,2,3,2,3.05,2.6,4.28,2.61,4.26,2.61,4.26,2.62,4.25,2,3.29,2,3.29.88,1.47,1.09,1.8,2,3.27,1.64,3.14,1.65,3.13,1.66,3.12,1.64,3.13.85,1.61,1,1.86.52,1.38.2.4.44.57.57.55.63.36.57,0-1-1.47-.29-.79.62-.34.32.15.65.65.31.17.45-.05.21-.27.25-.85.24-.41.27-.17.72-.28.16-.14.27-.33.17-.11.23,0,.75.08.73-.14.79-.37.67-.64.37-.9.07-.39,0-.47v-.46l-.06-.4-.18-.38-.5-.49-.26-.32-.06-.32v-.49l.1-.85.17-.49.22-.36.33-.18.44,0,1.57.2.71-.18.24-.66,0-.4.14-.39.2-.35.24-.3.36-.28.34-.06,2.46,1.08.48.08.23-.17.17-.3.33-.24.43,0,.16.35,0,.9.14.51.23.27.73.38.85.35.43.11.46,0,.52-.5.27-.13.36,0,.36.21.12.31-.05.45-.16.55-1.23,2.73-.49,1.59,0,.38.13.22.36.17.49.1,1-.05,2.19-.63,2.28.1v.94l.28.86.43.78.49.68-.39.52-.34.65-.14.67.23.57.53.27,4-.15.43-.24.51-.77.35-.26.35,0,.69.41.41.07,1.34-.23.92.14.83.24.4.25,1.13.89.41.19,1,.18.49,0,.46-.15.33-.27.36-.39.37-.28.31.05.28.15.24-.1.23-.17.28-.11.22,0,.19.12.22.1.83-.16.42.18.83.7,2.38-1.42,1.26-.54.46-.55,0-1.81.48-.51.71-.16,1.46.39,2.44.25.83-.25.67-.66.53-.92.39-1.05.18,0,.19,0,.19,0,.47.16.3,0,.3,0,.31-.11,2-.26,2,.26.51.74.28.28.39.21,2.06.35.42.18,1.07.87.4.24.37.07h.85l.4.09.38.21.33.29.57.91.25.24.72.29.53.53,0,1.63.48.81,2.09,1.35.24.14.58.73.17.5,0,.39.12.35.63.63.19.43,0,.48-.4,1.4.28.81.49.78.4.85,0,.57,0,.6V350l.19.47.21.16.56.15.22.12.15.17.23.43.13.17.69,0,.67-.49.66-.36.64.46.53.58.57.35.62.13.68,0,.67.05.45.39.42.49.57.38.33,0,.64-.08.33.15.2.23.46,1,.22.14.32-.09.33-.2.26-.11.42,0,1.2.51.2.22.62.86.15.32-.05.43-.3.17-.82.12-.06,0-.12,0-.08,1.47.07.68.39.32,1,.24.44.3.26.59.1.93.1.35.31.46,1.2,1.24.4.74.19,2,.52.77.73.37.73-.23.33-.23.39-.23.42-.15.36,0,.43.15.81.54.46.14.68-.06.34-.1.33-.16.58-.46.3-.14.33.05.25.27.25.74.26.32.31.12.32-.06.65-.26h.41l.31.15.27.28.28.37.27.13.35-.12.6-.42.37-.15h.35l.76.11,0,.21-.19,1.05v.45l.28.28.3.08.32-.11.29-.25h0l.58-.58.8-.28.74.16.47.69.74.76.7-.85.59-1.37.47-.85,1.06-.69,1.15-.37,1.22-1,.32-.13.11-.17,0-.23-.07-.28-.12-.28.87-.47.09-.08.24-.25.15-.09h.11l.12,0,.12,0,.37-.44.19-.53.28-.38.59,0,.78.41h.28l.57-.12h.33l.18.1,0,.29-.13.29-.16.3-.12.24,0,.31.21.28.45.44-.38.35-.35.24-.37.13-.89.06-.38.28-.67.85-.28.47-.08.38.14.35.36.39.44.27h.4l.84-.18.43.1,1.28.72.41.34,0,.42-.16.5v.59l.28.43.46.3.94.43.51.36-.05.24-.27.29-.19.46.14.33.37.37,1.24.9.23.2.07.2v.37l.14.25.23.15.25.09.47.06,1.57-.12.54.1.52.21,1,.62.3.54.38,1.79ZM335.13,468.29l1.1-.05,1.08-.15,1-.24,1-.35.93-.42.88-.51L342,466l.77-.65.69-.73.62-.76.53-.84.45-.89.37-.93.27-1,.16-1,.05-1-.05-1-.16-1-.27-1-.37-.94-.45-.88-.53-.85-.62-.78-.69-.71-.77-.66-.84-.58-.88-.51-.93-.43-1-.34-1-.26-1.08-.16-1.1-.05-1.09.05-1.08.16-1,.26-1,.34-.95.43-.89.51-.83.58-.76.66-.69.71-.62.78-.54.85-.46.88-.36.94-.27,1-.16,1-.05,1,.05,1,.16,1,.27,1,.36.93.46.89.54.84.62.76.69.73.76.65.83.58.89.51.95.42,1,.35,1,.24,1.08.15Zm-242,13.57.14-.58.08-.56.1-.36.21-.17.22,0h.54l.15-.07.1-.08.09,0,.1.28-.18.51-.12.23-.14.1-.06.13.12.94-.16.52-.37.33-.43.1-.31-.21-.14-.53Zm-1.65,4.36-.51.31-.58-.07-.59-.32-.29-.26-.08-.21,0-.27-.12-.42-.19-.32-.69-.68-.33-.59v-.51l1-2.18.19-.2.29-.14.85-.2,0,.42-1.08.58-.28.58-.06.33-.25.62-.07.38.07.39.16.32.23.15.29-.11v.61l.07.59.21.43.42.18.21.08.16.13.19.14h.26l.61-.43.28-.08ZM102,484.87l.27.38,0,.14-.39-.08-.24.05-.25.15-.28.05-.08-.16.15-.24V485l-.17-.07-.07-.15.09-.24-.12-.31-.85-.52-.26-.44,0-.37.15,0,.14.35.29.34.34.08.28-.12.16-.17.12-.17.11,0,.05.17.08.12.14,0,.11.27,0,.54v.28Zm36-14,.11.45.07.39v.49l-.47.21-.91-.33-.73-.55-.49-.58-.18-.54.26-.36.31-.22.2-.16.08-.2-.06-.16.09-.1.66,0,.37.11.32.43.27.7ZM85,449.92l.29.7.06.56L85,452.3l-.3.18-.43-.34-.28-.59-.85-2.23v-.45l.56,0,.77.45.36.31Z" style="fill:#efc441"/><polygon points="335.13 468.29 334.04 468.24 332.96 468.09 331.94 467.85 330.95 467.5 330.01 467.08 329.12 466.57 328.29 465.99 327.53 465.34 326.84 464.61 326.22 463.85 325.68 463.01 325.22 462.12 324.86 461.19 324.59 460.22 324.43 459.21 324.38 458.19 324.43 457.15 324.59 456.14 324.86 455.17 325.22 454.23 325.68 453.35 326.22 452.5 326.84 451.72 327.53 451.01 328.29 450.35 329.12 449.77 330.01 449.26 330.95 448.83 331.94 448.49 332.96 448.23 334.04 448.07 335.13 448.02 336.23 448.07 337.31 448.23 338.34 448.49 339.32 448.83 340.26 449.26 341.14 449.77 341.98 450.35 342.75 451.01 343.44 451.72 344.06 452.5 344.59 453.35 345.04 454.23 345.41 455.17 345.68 456.14 345.84 457.15 345.89 458.19 345.84 459.21 345.68 460.22 345.41 461.19 345.04 462.12 344.59 463.01 344.06 463.85 343.44 464.61 342.75 465.34 341.98 465.99 341.14 466.57 340.26 467.08 339.32 467.5 338.34 467.85 337.31 468.09 336.23 468.24 335.13 468.29" style="fill:#efc441"/><polygon points="334.04 448.07 332.96 448.23 331.94 448.49 331.42 448.67 324.83 455.25 324.59 456.14 324.43 457.15 324.38 458.19 324.39 458.52 334.88 448.03 334.04 448.07" style="fill:#fff"/><polygon points="339.32 448.83 338.34 448.49 337.74 448.34 324.87 461.22 325.22 462.12 325.68 463.01 325.77 463.15 339.85 449.07 339.32 448.83" style="fill:#fff"/><polygon points="342.75 451.01 341.98 450.35 341.84 450.25 327.15 464.94 327.53 465.34 328.29 465.99 328.67 466.25 343.32 451.6 342.75 451.01" style="fill:#fff"/><polygon points="345.41 455.17 345.04 454.23 344.64 453.45 330.7 467.38 330.95 467.5 331.94 467.85 332.85 468.06 345.48 455.43 345.41 455.17" style="fill:#fff"/><polygon points="345.41 461.19 345.68 460.22 345.84 459.21 345.89 458.2 335.83 468.26 336.23 468.24 337.31 468.09 338.34 467.85 339.32 467.5 339.49 467.42 345.21 461.71 345.41 461.19" style="fill:#fff"/></svg>