<svg xmlns="http://www.w3.org/2000/svg" viewBox="0 0 800 800"><path d="M239,50.05v0l.41-3.29,2.07-1.56,2.88.27.2,4.58,5.55,0h4.75L255,51.4l1,1.88.1,1.51-.25,1.56V57.7l.51,1.13,1.31.87,2.83,2.69,1.61,1.08,1.67.43h.3l10.76-.11,2.52-.38h.81l.71.22,1.36.7,1,.16,13.69-.32L306.45,64l.61.11,1.11.7.45.11.15,0L323,64.81l4.4,1.3,5.25,2.8,3,.75.76.6,1.16,2,.5.44,1.52-.17.5.22.51.7.3.75.35,1.78.26.38.4.11h.4l.46.11,4,2.74,7.17,5,7.22,5L369.57,95l6,4.1,6.77,4.63,7.63,5.23,7,4.85,7.33,5.06,2.27,1.57,1.41,1.45,1.87,3.18,1.11,1.46,1,.53,2.22.76,1.67,1.56.91.16L419,129l2.33-.22,7.82,1,7.88.92,4.14-.38,3.74-1.72.1-.49,0-.7.15-.64.71-.33.4.22,1.37,1.24.6.7.15.65.31.48,1,.27,1,.11.4-.06,1.06-.43.15.27.05.38.41.27,4.29.38v-.54l.1-1.13,0-.54,2,2.85,1.11,1.24,1.36.76,7.28,2.1,5.5,1.61,1.92,0,3.13-.65,1.21.22,1.11.43h1.16l4.25-1,.7.16.91.49,6.67,3.23,2.88.7,2.82-.11L503.9,139l.51-.32,1,.05.35.81L505,141l9.19.33,2.28.8.65.87.41,1.07.55,1.08,1.16.81,2.38-.11,1.21-2.1,1.62-5.23,1.91-2.42,4.85-4.74,5.81-5.66,1.41-2,1.22-2.43,2.07-5.82,1.41-4.09,1.51-1.94,6.32-3.29,6.36-3.29,7.12-3.66,3.33-1.78.36-.48,0-.49,0-.32.7.11.26.1.2.11.2,0L577,93.59l5.81-2.16.41-.43.45-1.24.4-.43,9.55-3.93,7.78-3.18,6.16-2.53,4.64-3.29,1.62,2.32L618.23,82l1.82,2.21,1.21,2.42.81.81,1.31.7,3.54,1.3,1.16.75,2,1.94,4.7,7.06,3.28,2.69,3.58,1.57,3.89.48,7.53-.43,8.28-.54,3.68-1.08,2-.16,5.91-1.51,1.16.06,1.92.86,1.06.21,1.06-.27,3.13-1.88,3.54,1.24,3.23,1.83,3.28.65,3.64-2.16-6.16,9.43-6.21,9.48-6.16,9.49-6.21,9.43-3.84,5.82-3.79,5.87L658.68,156l-3.79,5.82-6.06,6.41-6.06,6.41-6.11,6.42-6.06,6.41-2.52,2.64L627,192.36l.05,4.2.1,10.13.1,10.62V414.14l.1,6.47,0,5.28.05,5.34.1,8.56.11,8.52.1,8.51.1,8.57.1,5.55,0,5.55.05,6,1.92,2.59,1.87,2.58,1.87,2.59,1.86,2.64,3.64,5,3.79,5.23,4.09,5.6,3.33,4.63,3.64,5,3.83,5.22,3.69,5.12,3.74,5.12,2.83,3.93.9,1.73.26,1.51-.2,4.9-.06,1.56-.05.06-5.6,6.14L660.75,558l-.35,1.4-1.57,1-4.24,4.09L652,567.93l-1.52,1-1.11-1.51-1.41.65-1.27-.16-.86-.92,0-1.67-1.46,1.62-.3,1.88-.71,1.83-2.12-.21-2.88-.76-.66,0-.85.65-1.47,1.67-2,.91-.76,1.08-.8.86-1.17,0-1-.54-.7-.54-.51-.75-.3-1.13,0-1.14.76-2.21,0-1-.21-1.07.31-1,1.11-1.73-2.63,2.1-.3,9.27-1.57,2.1-1.36-1.07-1.36-4.85-1.37-1.14-.75-.43-.66-.86-.71-.27-.86,1.08.46,1.19.2,1.07-.15,1,1.16-.54,1,.27.66.87.2,1.29-.15.54-.66.43-.2.43.25.75.56.17.55.16.2.48.16,5.77.4,3.07,1,2,.66.16.8-.1.91,0,.91.7.76,1.13.1.87-.86,2-1.82,2.37-1.61.38-.25-.92,2.42-1.29-1.26-.48-1-.7L622,590.67l-.25-.59.1-.44-.05-.26-.81-.33.1.16-.51.17-1.06.21-1.86,1.08-1.62,2.1-1.57,1.51-1.51-.92.05.7.2.7.36.6.6.21.35.22-.1.54-.5.8.45,1.19,2.12,1.45.51,1.14-.86,1.83-2.07,2.1-2.27,1.78-3.44,1.51-4.49,5.71-2.58,1.08-2.27-.54-2.17-1.08-2.37-.54L592,613l-7.42,2.48-3.08,2.37-1.87.59-2.17,1.46-3.69,3.18-.86,1-.65,1.07-1.37,3.35-2.17,3-.35,1.29.15.65,1.11,1.56.1.49-.3,1.24-.05.64L568,642.4l-.16,2.58,1.57,1.24-.4,2,.9.92,1.52-.17,1.51-1.18.05.86-.55,1-2.58,2.59-1.56,2.21-.41,1-.3,4-.45,1.35-2.53,3.83-.05,1.07.81,2.86V670l-.46,1.24-.65,1.13-.86,1-1.06.75-3.59,1.73-1,.7-1.76,2.2-1,.87-1.32.21.61-1.34.81-3,.1-1.08-1.31.32-.56.81-.15,1v1.07l-.05.76-.46,1.94.16.43.3.43.1.48L552,683.89l-1.52,4.2-2,3.34-.75,4.58-.86,1.83-1,.87-.61.16-1.61-.76-.36-.21-1-1.19-.35-.11-2-.16.3-.7,0-.27-.75-.7-.56,1.46.2,1.24.86.7,1.52-.06-.91,1.13.3.92,1.06.38,2.58-1.13.8.64.46,1.19.2,1.18L546,704.9l-6,17.51-1.87,1.94-2.12.38-1.52-1.18.06-2.7-1.67,1-.46.59.26.81.5.81.25.7.36.76.76.7,1.61-.11.81.43-.2,1.35-1.57,1.83-.2.54-.2.7-.56,1-.65.86-.66.38-.71-.38-.45-1.83-.61-.43-.5-.92.15-1.83-.1-1.08-1.27,1.13-1.91-1.07-.86-.17-.81.7.76.76.86.38,2,.48-.55,1.4-.71.7-2.32.54-.76.06-.81-.11-.65.11-.31.53.06,1.67.15.76.3.81,1.06-1.51,2.47-.22,2.58.81,1.46,1.46-.3,1.88-3.68,6.79L525.11,751l-2.42,9.7-.81,2.21-.66-1-.6,0-.66.7-.55.92-.16.43.1,1-.25.43-1.06,1-.2.33-2.53,8.13-.5-1.45.25-2.32-.25-1.13-1,.81-.56,1.08-.4,1.24-.61,1.18-.35,0-.55-.27-.46.05-.2,1.13.15.65,1.16,1.72-.76,1.08-2.47.38-2.83-.7-1.77-2.37-.05.48-.45,1.13-2.17-.7L500,778.45l-1.36,2.21-1.41,1.13-.36.11-.25.06-.25.1-.2.33-6.27-4.85-6.31-4.8-6.31-4.85L471,763l-6.32-4.85-6.31-4.85L452,748.49l-6.26-4.84-6.31-4.85-.51-.38L433.15,734l-6.26-4.85-6.31-4.85-6.26-4.85L408,714.55l-6.31-4.85-6.31-4.8-4-3.12-1-1.4-.76-1.62-1.26-4.85-.56-1.19-1.06-1-1.36-.75-1.56-.43-1.57-.11-3.54.21-.25-1.07.61-1.57.3-1.29L379,686l-1.21-.16-.56-.54-.1-.86.2-.92.3-.86.41-.7,1.06-1.29,1.67-1.4,1.76-1,1.37-.11-.1-1.45.25-1.08.76-.7,1.31-.06-1.47-9.64-.15-1-1.31-8.56-1.11-1.94L376,650.16l-10.2-6.09-5.66-3.4-15.81-9.43-15.85-9.43-15.86-9.43L296.81,603,281,593.52,265.14,584l-15.85-9.43-15.86-9.43-15.81-9.43-12.47-7.43-3.38-2L186,536.84l-15.86-9.43-3.89-2.32-12-7.11-15.81-9.43-15.86-9.43-5.5-3.29-2.78-.21-1-.7-.15-2.05-1.16-.05-.3.05h-5.61l-.4-16.06-.31-10.72,1.22-11.26,1.76-16.28,1.37-12.5-.1-3L107.38,415l-2.27-8.13.2-1.57,4.29-6.09.66-.86,5.91-8.46,2.68-2.21.6-1,.2-1.62-.8-2.85-.1-1.46.35-.7,1.26-1.61.51-.81.25-.7,1.77-7.76,0-.27,1.26-2.43,2.22-1.61,3-1.13,2.37-1.3,1.77-2.05,1.21-3.34.31-1.83.15-1,.6-.7,4.75-2.53,1.26-1.24,1.06-3.18,2.12-2.91,1.92-5.06.41-1.62,0-3.56.4-1.67.61-1.56.71-1.46,1.51-1.56,1.21.33,1.21.7,1.47-.27h.1l.4-.81.36-.65.15-1.78.5-1.45,3.59-.86,2.47-2.59,1.57-1,6.06-.7,2.37-1.13.91-3.18-.76-3.13-1.31-3.23-.15-1.45-.1-1.35,4.39-3.83,1.57-6.36,1.66-2.69.76-.38,1.52-.37.75-.33.76-.75.51-.92,2.37-5.28.45-1.72,0-15.31.31-.91,1.41-1.89.25-.86-.35-.86-1.72-1.73-.65-.8-.56-1.41-.3-1.56-.1-1.61.15-1.57.66-3.5v-1.51l-3.34-8.57-1.31-3.44L177,229.11l-.45-3.13.65-1.94,1.32-1.08,1.51-.91,1.06-1.4.2-1.78-.65-1.35-2-2.21-.46-1.51-.4-3.88-.76-1.07-.66.1-.5.65-.56.59-1-.1-.7-.7-3.13-6.9-1.11-6.85-1.52-5-.3-.64-.51-.7-.35-.11-2.12-1.08-.1-.21-.15-.11-.16-.27-.15-.27-.25-.16-.2.11-.31.64-.2.11-.3.16-.81.76-.45.16-1-.33-.71-.7-1.11-1.88-2.32-2.8-.76-1.35-2.12-11.91V170l-.86-1.62L151,167.25l-3.48-1L146,165.15l-.8-1.78-.76-9.7-.91-3.13-.56-.86-.7-.81-.56-.8-.2-1,.2-.87.76-1.94.1-.75-.3-.86-.91-1.73-.05-.81.4-.7.66-.32.76-.21.7-.38,1.42-2.32.65-3.12.21-6.36-.51-1.67-1.06-.7-1.41-.49-1.37-.75-2.37-2.75-1.36-.54-2,.59-.81.76-.3.81-.36.32-.86-.54-1.11-3.18L131,116.33,131,116l-.81,0-1.47.44-1.41.1-1.26.38-.66,0-.91-.37.46-.65,1.46-1-.91-1.24-1.16-.43-.15-.43,3.53-1.94.81-1.08-.2-1.08-1.62-.91h-1.41L122.33,109l-1.16.22-1.72-.65.1-1.4.91-1.78.81-2-.2-1.24-.86-.91-1.06-.81-.86-.86-.61-1.24.06-.81.3-.76.3-1.07.2-1.84v-.91l-.25-.92-.61-.91-.8-.81-.66-.86-.1-1.08.1-2.43-.91-1.83-1.67-1.4-2.17-1.08L119,73.65l7.47-7.87,7.42-7.92L141.32,50l5.76-3.18L152.23,44l5.1-2.69,5-2.7,7.17-2.8,6-2.42,5.6-2.27,6.06-2.42,6.77-2.7,6-2.42,5.15-2.1,1.31,2.64L211.56,21l5.76-3.4,1.62,2.1-2.78,6.09h7.37l5.56,1.78-3.59,9.75,3,5.77L232,49.94l0,.06.11,0,6.51,2.37ZM633.58,575.26l.86-1,2,.17,2.17.75,1.52.92,1.46,2.47-.55,1.67-1.37.27-1-1.72.11.86-.16.86-.25.7-.5.27-.21.11-.15.16-.2.22-.45.11-.51-.22-.4-.32-.26-.38-.05-.16-1,.11-1.31.48-2.73,1.56-.7-.53-.61.1-.5.7-.21,1.08.41.59.76.49.6.59-.3.76h-.91l-.61-.43-.3-.81-.15-.92-1.62.32v-1.77l.86-2.48,1-1.78,1.37-.81,1.71-.54,1.52-.81Z" style="fill:#efc441"/></svg>