<?xml version="1.0" encoding="UTF-8"?><svg id="Kiribati" xmlns="http://www.w3.org/2000/svg" viewBox="0 0 720 540"><path d="M673.9,441.32c-.71,0-1.43-.22-2.05-.66l-1.93-1.39c-.12-.07-.23-.14-.35-.22l-.73-.54c-.56-.41-.98-.98-1.22-1.64l-.02-.07c-.18-.29-.31-.61-.4-.94l-.11-.21c-.31-.59-.44-1.25-.39-1.91l.12-1.47c.04-.44,.16-.88,.35-1.27l.08-.15,.13-.29,2.44-5.23c.55-1.17,1.7-1.95,2.99-2.02,.06,0,.12,0,.18,0,1.23,0,2.37,.64,3,1.7l2.48,4.14c.29,.31,.51,.66,.68,1.05l.02,.05,.15,.2c.32,.42,.54,.91,.64,1.43,.03,.11,.05,.22,.06,.33,.07,.34,.1,.68,.07,1.02l-.11,1.18-.1,1.02c-.07,.72-.37,1.4-.84,1.95l-.68,.78-1.88,2.05c-.69,.75-1.63,1.13-2.58,1.13Zm-9.42-26.84c-.72,0-1.45-.22-2.06-.68l-2.11-1.55c-.94-.69-1.47-1.8-1.42-2.97l.07-1.66,.07-1.18c.05-.81,.38-1.58,.94-2.18l.78-.83,1.83-1.88c.68-.7,1.59-1.06,2.51-1.06,.66,0,1.32,.18,1.9,.56l2.16,1.4s1.5,1.06,1.5,1.06c.98,.69,1.54,1.84,1.48,3.04l-.09,1.72-.08,1.13c-.06,.73-.34,1.42-.8,1.97,0,0-.78,.93-.82,.97l-.89,.97c-.65,.71-1.57,1.12-2.53,1.13l-1.34,.02h-.88c-.07,0-.14,0-.22,0Zm37.47-.82c-.1,0-.2,0-.3-.01-.15-.01-.29-.03-.43-.07-.81-.16-1.56-.59-2.08-1.25l-.16-.21c-.05-.03-.1-.05-.15-.08l-.55-.1c-.98-.19-1.8-.77-2.31-1.57-.24-.21-.44-.45-.62-.72-.89-.53-1.5-1.43-1.66-2.46-.1-.66-.02-1.33,.24-1.93-.17-.6-.18-1.25-.01-1.88,.3-1.09,1.11-1.98,2.17-2.37l.49-.18c.22-.35,.51-.66,.85-.92l.49-1.36c.43-1.19,1.46-2.05,2.71-2.26,.19-.03,.39-.05,.58-.05,.43,0,.86,.08,1.26,.23,.13-.02,.27-.02,.4-.02,.11,0,.23,0,.34,.02,1.04,.1,1.98,.67,2.57,1.54l.71,1.05,.94,1.09,.38,.45c.17,.2,.31,.42,.43,.66l.09,.11c.23,.29,.42,.6,.55,.94l.28,.37,.1,.12c.93,1.13,1.05,2.68,.38,3.9-.1,.75-.43,1.47-1,2.02l-.33,.32c-.31,.7-.85,1.29-1.53,1.66l-1.66,1.75c-.61,.64-1.42,1.01-2.25,1.08-.3,.08-.6,.12-.92,.12Zm-91.48-84.87c-.36,0-.72-.06-1.06-.17-.23-.06-.45-.15-.67-.26-.05,0-.11-.02-.16-.03-1.1-.04-2.12-.6-2.75-1.51l-.98-1.42-1.58-2.35c-1.02-1.52-.7-3.56,.74-4.7l2.12-1.68,.35-.37c.5-.54,1.15-.9,1.86-1.04,.04-.01,.08-.02,.12-.04,.5-.26,1.05-.4,1.62-.4,.17,0,.33,.01,.5,.04l.86,.12h.88l.43-.03c.08,0,.17,0,.25,0,.95,0,1.87,.39,2.53,1.08,.05,.05,.12,.13,.17,.18l.96,1.15,.7,.71c.66,.67,1.03,1.58,1.01,2.53l-.04,2.09v.56c0,1.05-.47,2.05-1.29,2.71l-1.14,.93-.59,.47-.09,.1c-.65,.76-1.6,1.2-2.6,1.22l-1.42,.02c-.24,.05-.49,.08-.73,.08Zm-315.63-16.94c-1.04-.07-1.99-.6-2.6-1.44l-1.31-1.81s-.1-.1-.13-.14l-.37-.42-.39-.47-.02-.02c-.42-.37-.74-.82-.95-1.33l-.13-.13c-1.24-1.31-1.29-3.34-.11-4.7,.12-.52,.36-1.01,.71-1.43l.76-.92c.04-.05,.09-.1,.13-.15l.89-.96c.15-.17,.32-.32,.51-.45l.86-1.11c.66-.85,1.68-1.34,2.76-1.34h.04c.39,0,.76,.07,1.12,.2,.93,.2,1.75,.77,2.26,1.59l.69,1.12c.24,.22,.44,.47,.61,.75l.12,.2c.06,.06,.11,.12,.16,.18l.85,1c.24,.28,.43,.6,.57,.94l.03,.07,.26,.29c1.02,1.16,1.14,2.82,.37,4.1,0,.02-.01,.03-.02,.04-.07,.71-.35,1.39-.82,1.94,0,0-.81,.95-.84,.98l-.21,.23-.61,.71c-.54,.63-1.29,1.04-2.1,1.16-.09,.09-.18,.17-.28,.25-.06,.05-.11,.1-.17,.15-.65,.6-1.5,.94-2.39,.94-.08,0-.15,0-.23,0Zm39.66-4.34c-.57,0-1.2-.14-1.7-.4l-.41-.22c-.22-.08-.43-.18-.63-.3l-.15-.07c-.23-.11-.45-.25-.66-.4-.32-.2-.61-.45-.85-.75l-.68-.83c-.19-.23-.34-.48-.47-.75l-.15-.33s-.54-.62-.54-.62c-1.09-1.26-1.13-3.1-.15-4.4,.12-.21,.27-.41,.44-.6,.13-.26,.3-.51,.49-.74l.15-.17c.09-.14,.19-.28,.31-.41,0,0,.37-.42,.39-.45l.34-.37c.18-.2,.38-.37,.6-.52l.22-.24c.29-.32,.63-.58,1.01-.77,.16-.09,.33-.17,.51-.24,.25-.15,.52-.26,.81-.34,.1-.03,.21-.06,.31-.08,.28-.07,.56-.11,.85-.11,.03,0,.91,.02,.91,.02,0,0,1.22,0,1.27,0,.13-.01,.26-.02,.39-.02,.91,0,1.78,.36,2.42,.98,.11,.06,.22,.12,.32,.2l.51,.16c1.39,.44,2.35,1.69,2.43,3.12h0c1.05,1.28,1.08,3.11,.06,4.4l-.41,.53c-.1,.24-.22,.47-.38,.69l-.39,.56c-.23,.51-.57,.95-1.01,1.29-.16,.15-.34,.29-.53,.41,0,0-.64,.41-.65,.41l-.11,.13c-.66,.74-1.61,1.17-2.61,1.17h-.04c-.21,.04-.43,.06-.64,.06h-1.62Zm15.76-1.31c-.72,0-1.43-.22-2.02-.64l-.8-.57-.33-.22c-.29-.19-.54-.42-.76-.68l-.61-.73c-.2-.24-.37-.51-.5-.8,0,0-.28-.62-.3-.66l-.23-.57c-.17-.42-.25-.86-.25-1.31v-.68l.02-1.02c.01-.66,.22-1.31,.58-1.86l.57-.86c.04-.05,.07-.11,.11-.16l.5-.67c.35-.47,.81-.84,1.34-1.08l.18-.08,.94-.53c.49-.28,1.04-.43,1.6-.45,0,0,.92-.03,.97-.03h1.33c.91,0,1.78,.35,2.44,.99l1.33,1.29c.3,.29,.54,.63,.72,1l.14,.29c.06,.1,.12,.21,.16,.31l.46,1.01c.21,.46,.31,.95,.31,1.45,0,0,0,.81,0,.85l-.04,1.12c-.03,.79-.32,1.55-.84,2.15,0,0-.81,.95-.84,.98l-.32,.35c-.1,.11-.2,.21-.31,.3l-.3,.34c-.65,.73-1.58,1.16-2.56,1.17,0,0-1.4,.02-1.42,.02h-1.25Zm277.18-8.05c-.69,0-1.38-.21-1.96-.59l-1.73-1.16c-.63-.42-1.11-1.04-1.36-1.76,0,0-.43-.79-.45-.83l-.35-.7c-.26-.51-.38-1.08-.37-1.66v-.47s-.1-.68-.1-.68c-.17-1.02,.12-2.07,.8-2.86,0,0,1.03-1.2,1.06-1.23l.89-.97c.62-.68,1.48-1.08,2.4-1.13l1.38-.07c.06,0,.12,0,.18,0h.39s.67-.02,.71-.02h.81c.15,0,.31,0,.46,.03h.19c.99,0,1.94,.42,2.6,1.16,0,0,1.02,1.13,1.04,1.16l.85,1.01c.62,.74,.91,1.69,.8,2.65l-.15,1.33-.09,.67c-.04,.27-.11,.54-.2,.8-.07,.76-.39,1.48-.9,2.04-.13,.23-.28,.44-.45,.63l-.35,.39-.65,.71c-.24,.25-.51,.47-.81,.65-.63,.55-1.43,.85-2.27,.86-.09,0-.18,.02-.27,.02,0,0-1.07,.03-1.11,.03h-.99Zm-265.6-5.87c-.29,0-.58-.04-.87-.11l-1.91-.49c-.16-.04-.31-.09-.46-.15l-.49-.14c-.66-.19-1.25-.57-1.7-1.09l-.91-1.06c-.22-.25-.4-.54-.54-.84,0,0-.27-.61-.29-.66l-.23-.58c-.16-.41-.25-.85-.25-1.29v-.69l.03-1.18c.02-.8,.32-1.57,.84-2.18l.72-.84,.21-.24-.99,.05c-.06,0-.12,0-.18,0h-.76c-.07,0-.14,0-.21,0-.11,0-.21,0-.32-.01,.16,.41,.25,.85,.25,1.29v.69l-.02,1.08c-.01,.74-.26,1.46-.71,2.05l-.63,.83-.96,1.2c-.65,.81-1.62,1.29-2.66,1.31,0,0-1.51,.03-1.53,.03h-1.4c-1.09,0-2.11-.51-2.76-1.35l-1.11-1.28c-.23-.26-.41-.55-.55-.86,0,0-.27-.61-.29-.66l-.23-.58c-.16-.41-.25-.85-.25-1.29v-.69l.03-1.28c.02-.86,.36-1.69,.95-2.31,0,0,.89-.94,.91-.96l.88-.88c.64-.64,1.51-1.01,2.42-1.02l1.27-.02h1.07c-.06-.21-.1-.43-.12-.65-.26,.07-.53,.11-.8,.12,0,0-1.46,.04-1.49,.04h-1.14c-.51,0-1-.11-1.43-.31-.64-.15-1.23-.47-1.7-.94-.1-.06-.2-.13-.29-.2,0,0-.97-.73-1.01-.75l-.52-.42c-.37-.29-.67-.66-.89-1.08l-.15-.27-.19-.23c-.26-.31-.47-.67-.61-1.04-.81-.99-1.02-2.34-.55-3.52,0-.46,.09-.91,.26-1.32,.09-.71,.39-1.38,.88-1.92l1.1-1.22c.23-.25,.5-.47,.79-.65l.53-.32c.06-.03,.11-.06,.17-.09l.64-.34c.4-.21,.83-.34,1.28-.39l.11-.06c.53-.3,1.12-.44,1.7-.44,.68,0,1.36,.2,1.93,.58,.7,.15,1.34,.52,1.83,1.05,.26,.15,.49,.33,.71,.54,.4,.25,.75,.59,1.02,.99,0,0,.71,1.05,.74,1.09l.3,.48c.1,.16,.19,.33,.26,.51,.17,.27,.3,.56,.39,.86,.2,.37,.33,.78,.39,1.2,.47-.24,.98-.37,1.5-.38l.78-.02h.88c.54,0,1.08,.13,1.56,.37l.76,.38c.05,.03,.1,.05,.15,.08l.64,.36c.47,.26,.87,.63,1.17,1.08l.43,.63,.55,.84c.33,.5,.52,1.07,.56,1.66,0,.06,.01,.12,.01,.19,.06,.27,.08,.54,.07,.81,0,.11,.01,.23,.01,.33l-.05,1.96c-.02,.92-.41,1.8-1.07,2.44l-.7,.67,1.08-.02h.82c.57,0,1.13,.14,1.63,.4l.72,.38,.53,.29c.34,.19,.64,.43,.9,.71l.38,.42,.59,.69c.36,.42,.62,.92,.74,1.46l.21,.88c.02,.07,.03,.14,.04,.21l.25,1.42c.18,1.01-.1,2.04-.75,2.83,0,0-1,1.21-1.02,1.23l-1.25,1.42c-.67,.77-1.64,1.19-2.63,1.19Zm-60.05-2.78c-.89-.02-1.7-.36-2.31-.92l-1.78-1.44c-.82-.66-1.3-1.67-1.3-2.72v-.04c-.01-.12-.02-.24-.02-.37v-1.12l.03-1.49c.02-1,.47-1.94,1.22-2.59,0,0,1.18-1.01,1.21-1.04l.82-.65c.58-.46,1.3-.73,2.04-.75,0,0,1.19-.04,1.23-.04h1.61c1.15,0,2.22,.56,2.88,1.5l.93,1.34,.42,.63c.25,.38,.42,.79,.51,1.23l.15,.74c.01,.07,.02,.13,.03,.2l.2,1.38c.14,.97-.13,1.95-.75,2.71,0,0-.97,1.2-1,1.23l-.92,1.04c-.65,.74-1.59,1.17-2.57,1.18,0,0-1.45,.02-1.47,.02-.02,0-1.15-.02-1.15-.02Zm-152.3-16.6c-.14,0-.27,0-.41-.02-.94-.11-1.79-.6-2.37-1.35l-.37-.49c-1.03-.37-1.85-1.21-2.17-2.3l-.2-.68-.36-.6-1.11-1.86c-.24-.4-.39-.84-.46-1.28-.1,.23-.23,.46-.39,.67l-.81,1.09s-.07,.09-.1,.13l-.91,1.11c-.67,.81-1.66,1.28-2.71,1.28h-2.1c-.08,0-.16,0-.23,0-.51,0-1.03-.11-1.5-.34-.77-.15-1.47-.55-1.99-1.16l-.24-.28-.78-.87-.2-.24-1.88-1.95c-.68-.71-1.04-1.67-.98-2.65,.06-.98,.53-1.89,1.29-2.51l1.59-1.29c-.07,0-.14,0-.22,0h-3.16c-1.37,0-2.64-.8-3.21-2.04l-1.14-2.48c-.15-.33-.25-.67-.29-1.03l-.36-.44c-.25-.31-.45-.65-.58-1.02-.02-.03-.04-.06-.06-.1-.33-.03-.66-.1-.97-.22l-.4-.15h-.71c-.82,0-1.61-.29-2.24-.81l-1.11-.17c-1.07-.17-2-.82-2.52-1.77,0,0,0-.02-.01-.03-.17-.14-.32-.3-.46-.48l-2.89-.38c-1.42-.19-2.59-1.22-2.94-2.61-.35-1.39,.18-2.85,1.34-3.69h.02s-.62-.74-.62-.74c-.53-.63-.83-1.43-.83-2.26v-.43l-.04-.73c0-.07,0-.14,0-.21v-.7c-.09-.06-.18-.13-.27-.21l-3.43-.51c-1.34-.2-2.44-1.15-2.84-2.45-.09-.3-.14-.6-.15-.9h-.14c-1.39,0-2.65-.82-3.21-2.1s-.3-2.76,.64-3.78l.68-.73c-.61-.9-.78-2.04-.43-3.08,.39-1.18,1.38-2.06,2.6-2.32l2.3-.48,.6-.63c.66-.7,1.58-1.1,2.54-1.1h0c.45,0,.89,.09,1.3,.25,.38-.14,.79-.21,1.2-.21h0c1.04,0,2.02,.46,2.68,1.25l.55,.66,3.26,.29c1.32,.12,2.47,.98,2.95,2.22,.48,1.24,.22,2.65-.68,3.63l-.31,.34s0,.02,0,.04c.01,.12,.02,.23,.02,.35,0,0,0,.02,0,.03,.45,.73,.62,1.59,.47,2.43,0,.24-.02,.49-.07,.74l-.17,.85v.05c.14,.03,.29,.06,.42,.11,1.3,.22,2.38,1.16,2.77,2.44l.09-.13c.66-.97,1.75-1.52,2.89-1.52,.32,0,.64,.04,.96,.13,1.45,.41,2.47,1.7,2.54,3.21l.25,5.55c.35,.54,.55,1.17,.56,1.83,.02,.05,.04,.1,.06,.15l.69,.11h.67c-.36-.88-.35-1.87,.03-2.74,.03-.09,.07-.18,.11-.27v-.58c0-.43,.08-.85,.23-1.24,.14-.48,.38-.92,.7-1.3,0,0,.81-.95,.84-.98l.33-.36c.22-.24,.48-.45,.76-.63,0,0,.52-.32,.56-.34l.69-.39c.5-.28,1.07-.44,1.65-.45l.93-.02h1.44c.2,0,.39,.02,.58,.05,.2,.03,.41,.07,.6,.13,.15,.02,.29,.05,.43,.08,0,0,.91-.01,.92-.01,.56,0,1.11,.13,1.59,.38,.32-.11,.66-.17,1-.18,0,0,.96-.03,1-.03h.79c.15,0,.31,.01,.46,.03h.26c.24,0,.47,.02,.7,.07,.49,.06,.96,.23,1.38,.49,.41,.2,.77,.48,1.08,.82l.65,.74,.4,.38c.24,.24,.45,.5,.62,.8l.05,.06c.34,.4,.58,.87,.71,1.37,0,0,.04,.04,.04,.04,.53,.63,.83,1.43,.83,2.26v2.06c0,.63-.17,1.24-.49,1.78,0,0-.53,.89-.55,.92l-.89,1.38c-.62,.96-1.67,1.56-2.82,1.6,0,0-1.82,.06-1.86,.06h-1.41c-.13,0-.25,0-.38-.02h-.07c-1.03,0-2-.45-2.65-1.22l-.33,.17-.71,.34-.26,.3c-.66,.76-1.62,1.19-2.63,1.19,0,0-.16,0-.23,0,.04,.16,.06,.32,.08,.48l.09,.21c.41,.94,.39,2.01-.05,2.93l-.14,.29c-.06,.51-.23,.99-.49,1.42-.18,.35-.42,.66-.71,.93l-.07,.06s-.24,.29-.27,.32l-.32,.36s1.25-.05,1.3-.05h.96c.5,0,.99,.11,1.45,.31,.87,.14,1.67,.6,2.22,1.31l1.53,1.98c.38,.49,.62,1.08,.69,1.7l.25,2.01c.12-.26,.27-.51,.45-.74,0,0,1.39-1.76,1.41-1.79l.9-1.07c.65-.78,1.61-1.23,2.63-1.25l1.42-.02h1.43c.55,0,1.08,.13,1.55,.36,.18,.08,.36,.17,.53,.28,.35,.19,.67,.44,.93,.74l.32,.36c.47,.33,.85,.76,1.11,1.27,.04,.06,.08,.12,.12,.18,.1,.13,.19,.27,.28,.41l.24,.28c.44,.53,.71,1.17,.79,1.84,.07,.29,.11,.58,.11,.88v.47l.12,1.57c.09,1.14-.39,2.26-1.28,2.98l-3.67,2.99c-.63,.51-1.41,.79-2.21,.79ZM26.08,238.61c-.95,0-1.88-.38-2.57-1.12l-.14-.15c-.8-.27-1.48-.83-1.91-1.58l-.07-.13-1.44-.86c-.9-.54-1.52-1.46-1.67-2.5s.17-2.1,.89-2.87l.6-.65c.13-.54,.38-1.04,.74-1.46l1.17-1.38c.12-.13,.24-.26,.37-.37l.25-.29c.65-.74,1.59-1.17,2.58-1.18l1.4-.02h1.43c.68,0,1.33,.2,1.88,.55,.33,.18,.63,.41,.87,.68l1.23,1.36c.12,.13,.22,.27,.32,.41l.19,.2c.6,.65,.93,1.49,.93,2.37v2.49c0,.82-.29,1.61-.8,2.23-.17,.4-.42,.77-.73,1.08-.41,.62-1.01,1.1-1.72,1.36l-.17,.06-1.64,1.14c-.61,.42-1.3,.63-2,.63Zm70.69-20.38c-.21,0-.43-.02-.64-.06l-1.27-.24c-.15,0-.3-.02-.45-.04h-1.1c-1.06,0-2.04-.48-2.69-1.26,0,0-.01,0-.02,0h-.48c-1.22,0-2.35-.63-2.98-1.67l-.62-1.01-.28-.29c-.4-.42-.68-.93-.83-1.48-.47-.59-.74-1.32-.76-2.07,0,0-.04-1.36-.04-1.4v-.74c0-.31,.04-.62,.12-.92-.43,.18-.9,.28-1.37,.28-.33,0-.66-.05-.98-.14-1.29-.38-2.25-1.45-2.47-2.77l-.19-1.09-1.2-.2c-1.27-.21-2.32-1.1-2.73-2.31-.26-.76-.25-1.57,0-2.3-.08-1.08,.35-2.15,1.18-2.87l1.09-.96c-.02-.41,.03-.82,.14-1.21,0-.54,.14-1.08,.39-1.57-.51-.39-.91-.91-1.15-1.51-1.14-.34-2.04-1.25-2.36-2.42-.37-1.32,.08-2.74,1.13-3.62l1.22-1.02c0-.14,0-.28,.02-.42l-.14-.09c-.75-.46-1.3-1.18-1.54-2.01-.09-.1-.16-.21-.24-.33l-.81-.88c-.63-.68-.96-1.59-.92-2.52,.04-.93,.45-1.8,1.13-2.43l.48-.44c.1-.15,.2-.3,.32-.44l.07-.08c.29-.73,.83-1.34,1.51-1.73l.13-.14c.13-.15,.27-.28,.42-.4,.03-.02,.05-.05,.08-.07l.03-.06c.27-.52,.65-.95,1.11-1.27h0c.35-.44,.79-.77,1.28-.99,.66-.67,1.56-1.06,2.5-1.06h0c.38,0,.75,.06,1.1,.18,.1,0,.2,.02,.3,.04,.35,.06,.68,.18,.99,.34,.34-.17,.71-.29,1.1-.34,.22-.15,.46-.28,.71-.38l.23-.26c.66-.74,1.61-1.16,2.6-1.16,.02,0,.04,0,.07,0,1.01,.02,1.97,.48,2.62,1.25l.41,.49c.08,.06,.17,.12,.25,.18l5.1,.63c1.44,.18,2.62,1.23,2.97,2.63,.35,1.41-.21,2.88-1.4,3.71l-3.3,2.29s-.43,1.04-.43,1.04c-.12,.29-.28,.57-.48,.82,0,0-.39,.5-.42,.53l-.36,.42c-.09,.11-.19,.21-.29,.3l-.29,.35c-.42,.52-.97,.9-1.59,1.11,0,0,0,0,.01,.01l2.08,.33c1.44,.23,2.58,1.32,2.88,2.74,.3,1.42-.31,2.88-1.54,3.67l-2.06,1.32c-.1,.2-.22,.38-.36,.56l-.74,.94s-.25,.29-.25,.29l-.14,.38c.03,.06,.05,.12,.07,.18,1.19,.35,2.11,1.31,2.4,2.53,.32,1.31-.14,2.68-1.19,3.53l-2.72,2.23c-.16,.44-.41,.84-.74,1.18h.73s1.35-.01,1.35-.01l.97-.95c.06-.08,.13-.16,.2-.24l.19-.21s.11-.15,.14-.2l.72-.94c.19-.25,.41-.46,.65-.65,.47-.5,1.07-.85,1.73-1,.28-.08,.58-.12,.87-.13l1.46-.02h1.47c.79,0,1.55,.27,2.16,.75,.83,.11,1.58,.5,2.14,1.11,.38,.34,.68,.77,.87,1.26,.25,.22,.46,.47,.64,.75l.64,.35c.38,.2,.71,.47,.98,.79l2.15,1.33c1.2,.74,1.83,2.13,1.61,3.52-.22,1.39-1.25,2.51-2.62,2.85l-2.5,.61c-.08,.11-.16,.21-.25,.3l-.45,.49-1.01,1.17c-.3,.35-.67,.63-1.08,.83l-.07,.08c-.68,.79-1.66,1.21-2.64,1.21-.1,0-.21,0-.31-.01-.19,.27-.42,.5-.68,.71l-1.17,1.29c-.67,.74-1.61,1.15-2.59,1.15Zm495.56-30.58c-.18,0-.35-.01-.53-.04h-.06s-1.27,0-1.27,0c-.27,0-.54-.03-.8-.09-.64-.03-1.26-.23-1.79-.59l-.1-.06s-.82-.46-.83-.47c-.24,.05-.49,.08-.75,.08-.1,0-.21,0-.32-.01-.78-.07-1.5-.4-2.06-.92-.44-.3-.82-.69-1.09-1.16-.38-.17-.73-.42-1.03-.72l-.8-.81-.84-.78c-.43-.39-.75-.89-.94-1.43-.35-.53-.55-1.15-.58-1.79l-.05-1.2c0-.2,0-.4,.03-.6,0,0,.06-.48,.07-.53l.08-.47c-.11-.33-.18-.68-.19-1.03-.03-1.02,.39-2,1.15-2.68l.32-.29,.09-.35c.21-.77,.66-1.44,1.3-1.91l.27-.2c.46-.6,1.09-1.03,1.81-1.24l.29-.09c.08-.04,.15-.08,.23-.12,.57-.41,1.25-.64,1.94-.66,.43-.17,.88-.26,1.33-.26,.79,0,1.58,.27,2.22,.8,.6,.18,1.14,.53,1.57,1l.11,.13c.2,.08,.39,.18,.58,.3l.27,.09c.53,.18,1.01,.49,1.39,.9,0,0,.65,.68,.67,.7l.31,.25c.55,.44,.95,1.04,1.15,1.71,.18,.4,.29,.82,.31,1.27l.02,.31c.61,.38,1.1,.94,1.38,1.61,0,0,.24,.56,.24,.57l.1,.19,.02,.02c.46,.59,.71,1.31,.73,2.06,.04,.22,.06,.44,.06,.66l-.02,1.22v.31c0,.34-.05,.67-.14,.99l-.23,.78c-.08,.27-.19,.52-.33,.77,0,0-.29,.51-.32,.54l-.38,.6c-.26,.41-.6,.76-1,1.03l-.65,.44s-.1,.06-.15,.1l-.99,.6c-.55,.33-1.18,.51-1.81,.51Zm-507.73-19.89c-1.34,0-2.58-.77-3.17-2.01l-1.81-3.85h-.18c-.99,0-1.94-.42-2.6-1.16l-1.64-1.82c-.44-.49-.74-1.1-.85-1.75-.07-.16-.13-.32-.17-.49l-.33-.35c-.33-.36-.58-.76-.73-1.2-.45-.51-.75-1.13-.85-1.8l-1.4-.67c-1.43-.68-2.23-2.24-1.94-3.8,.29-1.56,1.6-2.73,3.18-2.85l2.26-.17c.2-.13,.41-.23,.64-.32l1.72-.65c.21-.1,.44-.19,.67-.25,.59-.46,1.32-.72,2.07-.73,.02,0,.18,0,.24,0,.16-.02,.32-.03,.48-.03,.05,0,.1,0,.15,0,.26-.27,.56-.49,.89-.66,.3-.2,.63-.36,.98-.46,.37-.25,.78-.44,1.21-.54,.29-.08,.59-.12,.9-.12,.01,0,.03,0,.04,0,.78,0,1.53,.28,2.14,.76l2.61,.24c1.1,.1,2.08,.72,2.66,1.66,.58,.94,.67,2.1,.27,3.12l-.36,.91c.11,.55,.08,1.13-.09,1.67,.08,.29,.13,.59,.14,.89,.25,1,.05,2.1-.62,2.96-.13,.28-.31,.54-.52,.79l-.37,.43c-.11,.24-.25,.46-.42,.67-.14,.41-.35,.8-.63,1.14l-1.11,7.43c-.23,1.52-1.43,2.72-2.95,2.94-.17,.02-.34,.04-.51,.04Zm468.28-20.69c-.8,0-1.58-.28-2.2-.78l-.3-.06c-1.21-.25-2.2-1.13-2.6-2.31l-.09-.27c-.11-.17-.2-.35-.28-.54v-.03c-.32-.36-.56-.79-.7-1.25-.16-.27-.29-.55-.37-.85-.12-.3-.2-.62-.24-.95l-.02-.2c-.05-.24-.08-.47-.08-.7l-.04-.77c-.03-.42,.02-.84,.15-1.24,.05-.39,.17-.77,.35-1.11v-.07c.16-.78,.57-1.48,1.16-2,.47-1.11,1.5-1.93,2.74-2.1,.45-.23,.96-.36,1.48-.37l1.49-.04h.76c.34,0,.68,.05,1.01,.15,.78,.06,1.53,.37,2.11,.91l.19,.17s.07,.06,.11,.08c.41,.18,.78,.43,1.1,.75,.47,.26,.88,.62,1.19,1.07l.23,.34c.14,.14,.27,.29,.39,.46,.52,.46,.89,1.06,1.06,1.73,.17,.4,.28,.83,.29,1.27l.02,.5c.16,.57,.18,1.17,.04,1.75-.02,.58-.18,1.15-.47,1.65l-.04,.19c-.17,.84-.64,1.59-1.32,2.1l-.1,.07c-.3,.38-.67,.7-1.09,.93-.06,.06-.12,.11-.18,.16-.62,.74-1.52,1.19-2.49,1.24-.03,0-.06,0-.08,.01-.18,.03-.36,.04-.55,.04h-.72l-.64,.03s-1.25,.03-1.29,.03Zm-17.07-17.09c-.22,0-.44-.02-.65-.06-.09,0-.18,0-.27-.02h-.43c-.36,0-.72-.06-1.07-.17-.84-.06-1.64-.41-2.25-1.02l-.06-.06c-.37-.22-.71-.52-.97-.87l-.09-.12-.13-.11c-.49-.4-.86-.92-1.07-1.51l-.33-.9c-.02-.05-.08-.25-.08-.25l-.44-1.11c-.45-1.13-.28-2.42,.45-3.4l1.05-1.4,.33-.43c.19-.25,.42-.47,.67-.65,0,0,.51-.38,.56-.41l.22-.15,.35-.29c.62-.51,1.4-.78,2.2-.78,.06,0,.12,0,.18,0l1.19,.06s1.12,.07,1.17,.08h.48c1.06,0,2.06,.48,2.73,1.31l.4,.49c.12,.12,.23,.24,.33,.37l.51,.67c.08,.1,.14,.2,.21,.3l.52,.88c.28,.48,.45,1.02,.48,1.58l.02,.39,.14,1.15c.09,.78-.08,1.56-.49,2.23l-.71,1.15-.47,.95c-.58,1.16-1.75,1.9-3.04,1.93l-.69,.02c-.3,.08-.61,.12-.92,.12Z" style="fill:#efc441;"/><path d="M533.79,119.8l1.19,.06,.97,.06,.03,.02h.82l.61,.76,.06,.03,.51,.67,.11,.18,.39,.66,.03,.51,.02,.15,.13,1.09-.59,.97-.16,.24-.57,1.14-1.25,.03-.28,.11-.47-.09h.03s-.11,.03-.11,.03l-.14-.02h-.66l-.26-.16-.04-.02-.54,.02-.5-.5-.24-.09-.34-.44-.44-.36-.33-.9-.07-.22-.49-1.23,1.05-1.4,.29-.37,.43-.32,.34-.23,.47-.38m20.3,15.12l.41,.16,.35-.02,.36,.33,.04,.02,.45,.41,.1,.1h.08l.03,.03h.21l.47,.54,.14,.07h.2l.46,.66,.18,.16,.08,.21,.1,.14,.35,.24,.02,.3,.16,.22,.04,1.02,.11,.3-.09,.26v.43l-.26,.36-.18,.89-.57,.43-.19,.3-.35,.16-.2,.15-.2,.24-.1,.03-.33,.4h-.26l-.03,.03h-.14v.02h-.8l-.71,.03-1.14,.03-.36-.31h.03s-.55-.27-.55-.27l-.91-.19-.31-.92-.13-.09-.29-.72-.31-.28-.08-.36-.27-.42v-.15l-.12-.2-.05-.48-.03-.06v-.16l-.05-.82,.1-.22,.02-.32,.21-.33,.13-.69,.57-.37,.02-.03,.11-.06,.07-.04,.13-.16,.03-.62,.78-.05,.1-.1h.07l.14-.19,1.49-.04h.67m-469.76,10.68l.52,.62,3.94,.37-.96,2.41,.41,.46-.85,.99v.23l.84,.77-.31,.36,.41,.39-.44,.53,.06,.09-.86,.99-.03,.06v.17l-.3,.36-.33,.53,.05,.19-.61,.67-1.27,8.47-2.76-5.87h0s-2.39,.01-2.39,.01l-1.64-1.82-.02-.56-.22-.24-.03-.63-1.12-1.2,.51-.6-.11-.12-1.08-.42,.55-1.44-3.91-1.86,3.87-.29v-.41l1.97-.74,.05-.05h.1l.94-.33,.25-.29,.14,.15,.51-.18,.54,.61h.58l1.11-1.23,.05-.02,.36-.4h.17l.2-.22,.56,.04,.44-.52,.05,.05,.07-.08m5.56,24.28l.97,1.16h.19l.47,.51,.27,.1,6.11,.76-4.54,3.16v.69l-.42,1.01-.33,.42-.36,.42-.09,.05-.55,.68-1.62,.02-.17,.2-.18-.2h-.68l.02,.77v1.07l-.02,.04v.14l-.06,.08v.18l-.47,.56-.2,.41-.02,.02,.08,.07,.07-.02,.04,.13,.39,.36-.19,.24,.33,1,.16,.06,.13,.25,.24,.18h.6l.18,.56,.34,.24-.05,.1,.09,.07,3.67,.58-3.28,2.1v.56l-.74,.94-.42,.48-.09,.05-.58,1.52-.47-.27-.61,.86v.04l.47,.41,.17,.33,.43,.49v.06l.25,.27,.02,1.65,2.26,.48-3.79,3.1v.62l-.84,.35-.49,.56h-.04l-.26,.3-.17-.03-.7,.8-.04-.05-2.03,2.24-.6-3.54h.01s-3.67-.62-3.67-.62l1.01-1.1-.82-.31,2.52-2.22v-.08l.34-.24,.1-.11v-.39l-.69-.74,.39-.45-.24-.53,.52-.63,.7-.9,.34-.41,.4-.24h-.19l-.23-.26-.32,.3-.04-.55h-.3l-.92-.99-.5-.55-.47-.17,.16-.18-.98-1.09,.43-.5-1.85-.29,2.87-2.39-.04-.06,.04-.02,.02-.17v-.75l-.41-.37,.58-1.91-.15-.17-2.23-1.36,.26-.29-.24-.27-.67-.68v-.08l-1.19-1.29,1.09-1v-.18l.84-.98-.18-.07,.3-.06,.71-.8h.03l.1-.11h.04l.07-.08h.08l.41-.49,.29-.56h.18l.55-.68,.17,.21,.9-.96,.17,.18,.1-.1,.23,.26,.26-.18,.92,1.35h.05l.35,.42,.62,.23,.67-.14,.47-.51,.11-1.04h.01v-.28h.87l.65-.59h.26l.09-.11,.19,.06,1.01-1.12m497.33,.82l.58,.64h.61l.54,.6,.31,.24,.14,.13h.04l.08,.04h.1s.17,.01,.17,.01l.07,.06,.42,.22,.55,.19,.61,.64,.13,.16,.57,.46,.05,.32,.12,.13,.07,1.27v.77l-.05,.14h.03l.68,.37,.94,.54,.23,.54v.02l.25,.5,.06,.15,.27,.35v.44l.06,.08-.02,1.22v.37l-.23,.78-.25,.43-.38,.6-.65,.44-.99,.6-.26-.04h-.03s-1.04-.01-1.04-.01h-.53l-.12-.05h-.1l-.08-.04h-.35l-.21-.14-.91-.51-.38-.39-.09-.08-.06-.04h-.19l-.12-.11h-.33l-.22-.25h-.34l-.07-.05h-.18l-.06-.04-.46,.57-.26-.48-.17,.14-.51-1.01-.06-.06-.02-.02-.08-.09-.31-.17-.08-.11-.52,.02-.86-.87-.9-.83-.07-.34-.32-.45-.05-1.2,.05-.38,.14-.79,.2-.26-.03-.38,.29-.25-.65-.53,1.09-.99,.08-.33,.27-1.01,.69-.51,.28-.38,.9-.26,.18-.16h.26l.26-.31,.57,.3,.65-.56m-486.28,30.5l.49,.56,.07,.03,.02,.02h.1l.07,.08h.65v.03h.32l.06,.21h.15l.18,.61h.01v.05l.07,.24,.12,.06,.03,.1,.52,.25,.03,.52,1.9,1.03-.11,.12,3.06,1.9-4.31,1.06v.24h-.01v.31l-.07,.08v.09l-.09,.11v.05l-.49,.53-1.05,1.21h-.35l-.79,.91-1.02-.58-.94,.28-.52-.93v.68l-.08,.24v.6l-.21,.24v.27l-.03,.03v.07l-.3,.36-.05,.18-.19,.11-.24,.29-1.17,1.29-1.78-.33v.04l-.21-.05h-1.48l-.26-.93h-.08l-.03-.03h-.9l-.09-.31h-1.83l-.81-1.32-.53-.56v-.43l-.18-.17v-.14l-.46-.52-.04-1.29v-.74l.51-.97,.28-.35,.9-1.02h.09l.05-.06,1.32-.02h1.61l.78,1.07,.21,.22,.19,.22h.01l.22-.13,.13-.15h.13l.13-.08h.71l-.02-.45-1.29-.46,1.11-.98-.2-.23,1.32-1.29v-.05l.36-.39,.18-.26,.72-.94,.13-.04,.29-.34h.08l.02-.03,1.46-.02h1.42m4.64,18.86l.71,.76h.76l.3,.16,.74-.88,1.43,1.71h.09l.07,.07,4.59,.41-1.88,2.06,.06,.07,.05,.13,.21,.21h-.01l.35,.35v.27l.02,.02v.38l.02,.03v.48l.14,.13-.14,.02v.06l.11,.11v.19l.4,.44h-.35v.14l.02,.03v.16l.28,.31-.24,1.19v.64l-.18,.2-.06,.27-.53,.64-.44,.49-.48,.28-.15,.16h-.11l-.37,.21-.84,.02h-1.44l-.41-.47-.14-.15-4.66-.69,1.91-1.73-.68-.81h-.19l-.65-.84h-4.03l2.71-2.92v-.22l-1.71-1.95,3.37-.71,1.35-1.43m-77.86,7.48v.02s.07,.06,.07,.06h.09l1.23,1.36,.06,.13,.47,.51v2.49l-.38,.4-.14,.45-.24,.18-.19,.35-.6,.22-2.01,1.4-1-1.08h-.57l-.53-.93-2.23-1.33,1.26-1.37,.17-.38v-.47l.73-.86,.43-.5,.08-.04,.52-.59,1.4-.02h1.38m80.99,4.44h0s-.03,0-.03,0h.02m5.52,.32l.05,.03h.25l.24,.21,.07-.02,.2,.21h.06l.06,.06,1,.12,.03,.12h.46l.35,1.44h.05l.28,.37,1.74,.94-.34,.79,.1,.11,.24-.07,.06-.07,.04,.05,.33-.1,.04,.12,.71-.41,.3,1.21,2.43-3.55,.31,6.87,.18,.21,.32,.22-.09,.57,.35,.68-.44,.51v.15l-.04,.06,.19,1.64-.84,.55-.05,.12-.7,.4-.82,.89-1-.38h-.04s-1.31,0-1.31,0l-.51-.58-2.3-.36,.25-.58-1.06-.42,.78-.88-5.95-.78,2.52-1.82v-.39l-.11-.02v-1.06l-.2-.37-.21-.08-.04-.09h-.18l-.09-.1h-.05l-.91-1.07-.71-.84v-.53l-.05-.83v-1.25l.35-.38,.48-1.6,2.24-.02h.98m22.74,3.25v.02h.14l.1,.13h.5l.05,.12,1.74-.02-.6,2.11,.24,.26v.11l.36,.21,1.29-1.49,.3-.32,.41-.26,.71-.42,.88-.03h.79l.06,.03h.66l.02,.02h.08l.02,.02h.12l.16,.16h.13l.75,.85,.5,.48,.04,.14,.38,.45v.4l.26,.29,.08,.22,.08,.12,.33,.39v2.06l-.48,.81-.89,1.38-1.74,.06h-1.41v-.02h-.45l-.6-1.14h-.1l-.62-1.06-.05-.06v-.03l-.02-.03-.36-.4-1.13-1.28v.61l-.02,1.87-1.68,.86-1.27,.61-.73,.83-1.22-1.43-.03-.04-.57,.04-.6-1.37-1.64-1.79,.09-.1-.04-.04,.36-.39v-1.73l.09-.11v-.16l.76-.89,.33-.36,.46-.28,.69-.39,.93-.02h1.36m-10.38,9.11l1.16,.19h1.53l.35,.4,.3,.29,1.24,1v.39l.12,.14v.19l.85,.95v.12l.08,.09v.13l.07,.08v.14l.07,.07,.02,.55,.36,.82-.39,.81-.07,.59-.09,.11v.07l-.24,.22-.34,.41-.33,.37-.43,.32-.43,.48h-.28l-.26,.24h-3.19l-1.14-2.48,.02-.82-1.14-1.4v-.27l-.3-.36,.31-.31,.02-1.26,.73-.86,.9-1.02h.15l.35-.39m9.57,13.9l.41,.27h.49l1.03,1.33,.49,.64,.26,2.09-.81,1.09-.91,1.11h-2.32s-.49-.27-.49-.27h-.36l-.24-.28-.82-.92-.22-.26-1.96-2.03,2.57-2.08,.82-.65,1.1-.04h.96m14.38,2.45l.04,.05h.08v.02h.06l.1,.11h.1l.61,.7,.35,.24,.18,.36,.05,.06,.06,.04,.06,.11,.13,.16,.03,.13,.45,.52,.1,.12v.34l.09,.14v.6l.13,1.7-3.67,2.99-1.25-1.63,.03-.02h-.74l-.33-1.12-.6-.99-1.1-1.84,1.34-1.7,.9-1.07,1.42-.02h1.38m194.22,2.55l.42,.43h.29l.07,.07h.4l.25,.32h.02l.26,.27,.04,.02,.03,.03h.09v.02h.13l.34,.39,.25,.08,.66,.97,.3,.48,.07,.28,.2,.24,.03,.36,.24,.29-.02,1.3-.03,1.09-1.61,1.84-1.39,.04h-1.14v-.04l-.21-.18h-.45l-.39-.53h-.29l-.9-.67-.52-.42-.32-.6-.43-.51v-.34l-.58-.67,.35-.82-.1-.49,.22-.23v-.28h0v-.38l1.1-1.22,.53-.32,.64-.34,.61-.02,.83-.46m10.72,6.89l.76,.38,.64,.36,.43,.63,.51,.78v.1h0v.4l.07,.15-.02,.27,.03,.07-.05,1.96-1,.96-.85,.73-1.18,.06h-.96s-1.27-.74-1.27-.74l-.46-.64-.56-.81,.03-1.64,.02-.92,.94-1.32,.68-.41,.66-.35,.78-.02h.79m-6.91,9.12l.94,1.04,.33,.38,.22,.51,.23,.58v.69l-.02,1.01-.63,.83-.9,1.12-1.46,.03h-1.4v-.02s-1.24-1.41-1.24-1.41l-.23-.51-.23-.58v-.69l.03-1.19,.84-.89,.88-.88,1.27-.02h1.37m-44.03,.25l.93,1.34,.37,.56,.15,.74,.2,1.38-.91,1.12-.92,1.04-1.42,.02-1.09-.02h0s-1.96-1.59-1.96-1.59v-.39l-.02-.02v-1.12l.03-1.42,1.11-.95,.82-.65,1.1-.04h1.61m56.94,2.41l.72,.38,.47,.26,.38,.42,.53,.62,.21,.88,.25,1.42-.95,1.15-1.25,1.42-1.91-.49v-.02s-.87-.25-.87-.25l-.91-1.06-.23-.51-.23-.58v-.69l.03-1.08,.72-.84,.9-1.01,1.37-.02h.77m268.25,5.29l.06,.03h.59l.97,1.08,.85,1.01-.15,1.33-.08,.6-.22,.42v.52l-.33,.33-.14,.32-.35,.39-.62,.67-.21,.06-.32,.32h-.33l-.02,.02-1,.03h-1l-1.73-1.16-.1-.38-.08-.05-.45-.82-.35-.7,.02-.81-.17-1.01,.98-1.14,.89-.97,1.38-.07h.45l.65-.02h.81m-277.14,8.56l1.33,1.29,.23,.48,.04,.05,.46,1.01v.73l-.04,1.12-.76,.89-.32,.35-.09,.05-.56,.63-1.37,.02h-1.25l-.85-.6-.38-.25-.61-.73-.24-.53-.23-.57v-.68l.02-.95,.57-.86,.5-.67,.26-.12h.01l1.11-.63,.84-.03h1.33m-15.47,.82l.16,.31,.05,.06,.13,.07,.43,.12,.2,.22,1.23,.39-.02,1.03,.83,1-.9,1.15v.22l-.56,.8-.09,.13-.06,.19-.15,.09-.08,.11-.61,.39-.31,.17-.04,.04h-.03l-.5,.56h-.57l-.11,.06h-1.69s-.57-.3-.57-.3l-.23-.1h-.06l-.04-.05-.42-.2-.12-.12-.18-.09-.68-.83-.2-.43-.15-.34-.27-.31h0s-.59-.69-.59-.69l.25-.27-.04-.05,.57-.58v-.24l.41-.47,.06-.13,.32-.37,.34-.37,.3-.19,.53-.58h.08l.07-.08h.22l.08-.09h.02l.06-.07h.08l.09-.1h.05l.03-.03h.09l.03-.03,.83,.02h1.22l.08,.04,.44-.06m-41.68,1.63l.12,.16h.01l.12,.16,.18-.2,1.14,1.85h.15l.43,.71,.18,.12,.85,1,.25,.61,.64,.73-.27,.31,.06,.1-.26,.26-.03,.84-.76,.89-.21,.23-.67,.77h-1.02l-.88,.95-.03-.03-.16,.19-.02-.02-.19,.2-1.55-2.14h0l-.08-.04-.03-.03-.37-.42-.51-.61-.23-.2v-.1l-.03-.04v-.25l-.81-.85,.75-.84v-.44h.01v-.21l.76-.92,.89-.96h.17l1.39-1.78m314.63,19.81l1.11,.16h1.26l.56-.04,.02,.02,.37,.44,.68,.81,.8,.81-.04,2.09v.63l-1.14,.93-.81,.64-.31,.36-1.86,.03-.24,.07-.1-.06v.03s-.68-.37-.68-.37h-.51l-.03-.04h-.22s-.22,0-.22,0l-.98-1.42-1.55-2.31,2.33-1.84,.53-.57h.21l.04-.05h.06l.04-.05h.17v-.02h.23l.28-.24m91.14,81.41l.72,.89,.38-.49,.18,.2,.23-.24,.15-.15,.93,1.39h.03l.94,1.09,.34,.41,.1,.25,.4,.49v.23l.81,1.05,.14,.17-.4,.4,.07,.08-.2,.27,.06,.08-.03,.04,.08,.11-.04,.04,.06,.08h-.01l.05,.08-1.06,1.03-.03,.38-.48,.14-.12,.23-.31,.34-1.62,1.71-.34-.19-.29,.3-.02-.03-.04,.04-.66-.84h.02s-.6-.33-.6-.33h-.1l-.07-.08h-.06l-.06-.08-.17-.1-1.27-.24,.04-.64-.68-.11,.17-.43-1.31-.67,.75-.75,.37-.41-.97-1.18,2.01-.74,.17-.15,.05-.69,.82-.57,.87-2.41m-36.12,4.24l2.16,1.4,1.39,.98-.09,1.72-.08,1.04-.71,.85-.89,.97-1.34,.02h-1.04s-2.11-1.54-2.11-1.54l.07-1.66,.07-1.11,.78-.83,1.79-1.84m7.91,22.8l2.74,4.58,.18,.15,.19,.46,.42,.56v.07l.03,.04v.17l.05,.07-.11,1.18-.1,.99-.68,.78-1.82,1.98-2.22-1.6h-.02s-.73-.53-.73-.53l-.19-.53-.14-.18-.07-.33-.33-.63,.12-1.47,.11-.22,.16-.36,2.41-5.18M533.79,112.8c-1.6,0-3.15,.55-4.4,1.56l-.24,.19-.09,.06c-.09,.06-.17,.12-.26,.18l-.43,.32c-.5,.37-.95,.81-1.33,1.3l-.29,.37s-.06,.08-.09,.12l-1.05,1.4c-1.46,1.95-1.81,4.52-.9,6.79l.4,1c.03,.09,.06,.18,.09,.27l.33,.9c.41,1.1,1.08,2.09,1.97,2.86,.41,.49,.88,.92,1.4,1.28,1.07,.98,2.41,1.6,3.84,1.78,.56,.14,1.14,.22,1.73,.22h.27s.03,0,.04,0c.34,.05,.69,.08,1.03,.08,.46,0,.91-.04,1.36-.13h.33c2.59-.07,4.93-1.56,6.09-3.88l.38-.76s.05-.07,.07-.11l.59-.97c.81-1.34,1.16-2.91,.97-4.47l-.13-1.07-.02-.27c-.07-1.11-.4-2.19-.96-3.15l-.39-.66s-.03-.06-.05-.09l-.11-.18c-.12-.2-.26-.4-.4-.59l-.51-.67c-.16-.21-.34-.42-.52-.61l-.26-.32c-1.33-1.66-3.34-2.62-5.46-2.62h-.32s-.06,0-.1,0l-.97-.06s-.05,0-.08,0l-1.19-.06c-.12,0-.24,0-.35,0h0Zm20.3,15.12h-.67c-.06,0-.13,0-.19,0l-1.49,.04c-.84,.02-1.67,.2-2.43,.51-1.96,.44-3.61,1.69-4.57,3.39-.78,.85-1.34,1.89-1.63,3.03-.2,.47-.35,.97-.44,1.47-.19,.72-.26,1.47-.22,2.21l.04,.61c0,.42,.04,.83,.12,1.24,.06,.58,.2,1.15,.4,1.69,.12,.4,.29,.78,.48,1.16,.22,.58,.51,1.12,.87,1.62,.03,.07,.07,.14,.1,.2,.76,2.19,2.55,3.86,4.77,4.47,1.09,.66,2.35,1.02,3.63,1.02,.06,0,.12,0,.18,0l1.14-.03s.07,0,.11,0l.56-.02h.64c.34,0,.68-.02,1.01-.07,0,0,0,0,0,0,1.69-.14,3.28-.89,4.46-2.11,.5-.33,.96-.73,1.36-1.17,1.16-.95,1.98-2.26,2.34-3.71,.35-.75,.56-1.55,.62-2.38,.16-.89,.15-1.8-.04-2.69v-.16c-.04-.78-.2-1.55-.48-2.27-.34-1.11-.94-2.12-1.77-2.94-.09-.11-.18-.22-.27-.32l-.09-.13c-.53-.76-1.19-1.39-1.95-1.88-.38-.34-.8-.63-1.25-.87-1.06-.93-2.36-1.52-3.74-1.69-.54-.13-1.09-.2-1.65-.2h0Zm-469.76,10.68c-.6,0-1.19,.08-1.76,.22-.66,.16-1.3,.41-1.88,.76-.43,.17-.85,.38-1.24,.63-.12,.07-.24,.14-.35,.21-1.15,.07-2.25,.43-3.21,1.02-.23,.08-.46,.18-.68,.29l-1.43,.54c-.13,.05-.26,.1-.38,.16l-1.55,.12c-3.17,.24-5.78,2.57-6.36,5.7-.58,3.12,1.01,6.24,3.87,7.61l.07,.03c.18,.38,.4,.74,.65,1.09,.25,.53,.58,1.04,.97,1.51,.29,1.03,.81,2,1.54,2.8l1.64,1.82c.82,.91,1.85,1.58,2.99,1.96l.64,1.36c-.44,.29-.84,.64-1.2,1.03-.57,.46-1.08,1.02-1.49,1.65-.05,.05-.11,.1-.16,.16-.94,.66-1.7,1.53-2.22,2.55-.02,.03-.05,.06-.07,.09l-.18,.17c-1.37,1.26-2.18,3.01-2.26,4.87-.08,1.86,.59,3.67,1.85,5.04l.53,.58c.05,.11,.09,.22,.15,.32-1.26,1.71-1.7,3.92-1.12,6.03,.47,1.71,1.56,3.14,3.01,4.05l-.06,.05c-1.47,1.29-2.31,3.12-2.37,5.03-.31,1.27-.25,2.63,.19,3.91,.71,2.05,2.31,3.64,4.32,4.33,.74,1.97,2.33,3.52,4.36,4.19,.08,1.18,.46,2.32,1.09,3.31,.33,.84,.81,1.62,1.45,2.29l.03,.03,.43,.7c1.11,1.81,2.98,3.01,5.05,3.28,1.16,.84,2.59,1.33,4.1,1.33h.61c-.08,.7-.06,1.41,.07,2.1-1.26,1.95-1.48,4.42-.54,6.6,.75,1.71,2.12,3.01,3.78,3.69,1.01,2.03,2.96,3.48,5.25,3.82l.8,.12c.08,.73,.28,1.43,.58,2.1-.66,1.43-.84,3.07-.43,4.66,.7,2.78,3.03,4.85,5.88,5.23l1.51,.2c1.08,1.3,2.6,2.17,4.3,2.44l.33,.05c1.02,.6,2.19,.94,3.4,.97,.09,.32,.21,.62,.35,.93l1.14,2.48c.72,1.56,1.96,2.77,3.47,3.45-.04,.23-.06,.46-.08,.7-.12,1.96,.59,3.88,1.95,5.29l1.8,1.86,.07,.08s.08,.09,.12,.14l.78,.87,.19,.23c.94,1.1,2.18,1.86,3.55,2.22,.84,.34,1.72,.51,2.61,.51,.12,0,.25,0,.37,0h1.95c1.48,0,2.91-.47,4.09-1.32,.63,1.31,1.63,2.37,2.86,3.07,1.15,1.4,2.8,2.3,4.6,2.51,.27,.03,.54,.05,.81,.05,1.6,0,3.17-.55,4.42-1.57l3.67-2.99c1.78-1.45,2.73-3.67,2.56-5.96l-.11-1.43v-.33c0-.52-.06-1.03-.17-1.53-.19-1.26-.72-2.45-1.55-3.43l-.09-.11c-.07-.11-.15-.23-.23-.34-.02-.02-.03-.05-.05-.07-.43-.74-.99-1.4-1.66-1.94l-.08-.09c-.57-.66-1.25-1.19-2.01-1.59-.33-.19-.67-.35-1.02-.48-.82-.33-1.72-.51-2.63-.51h-1.38s-.07,0-.1,0l-1.42,.02c-1.56,.02-3.06,.57-4.26,1.52l-.78-1.01c-.82-1.06-1.92-1.85-3.16-2.3,.17-.56,.27-1.14,.3-1.71,.1-.06,.19-.12,.28-.19,.78,.31,1.61,.47,2.48,.49,.18,.01,.36,.02,.54,.02h1.41c.08,0,.16,0,.24,0l1.74-.06c2.29-.08,4.4-1.28,5.64-3.2l.89-1.38c.05-.07,.09-.15,.14-.23l.48-.81c.64-1.08,.98-2.31,.98-3.57v-2.06c0-1.42-.43-2.8-1.23-3.96-.25-.65-.6-1.26-1.04-1.81-.3-.47-.65-.9-1.06-1.29l-.29-.28-.56-.63c-.58-.65-1.26-1.18-2.01-1.58-.78-.46-1.65-.76-2.55-.88-.4-.07-.8-.11-1.21-.11h-.07c-.21-.02-.43-.03-.65-.03h-.79c-.08,0-.16,0-.24,0l-.88,.03c-.2,0-.41,.02-.61,.05-.6-.17-1.22-.25-1.86-.25-.03,0-.05,0-.08,0h-.49s-.02,0-.04,0c-.27-.07-.55-.13-.84-.17-.35-.05-.71-.08-1.08-.08h-1.36c-.05,0-.1,0-.15,0l-.93,.02c-1.16,.02-2.29,.34-3.29,.9l-.69,.39c-.07,.04-.13,.08-.2,.11l-.46,.28c-.23,.14-.45,.29-.66,.45-.86-1.71-2.41-3.04-4.34-3.59-.64-.18-1.28-.27-1.92-.27-.81,0-1.6,.14-2.36,.41,0,0-.02-.01-.02-.02,0-.54-.06-1.08-.18-1.61,.97-1.79,1.14-3.94,.38-5.89-.96-2.48-3.25-4.2-5.9-4.43l-1.85-.17c-.63-.64-1.38-1.14-2.19-1.49,2.49-.81,4.33-2.95,4.75-5.56,.44-2.78-.83-5.56-3.22-7.04l-1.77-1.1c-.45-.44-.96-.81-1.52-1.12-.02-.03-.05-.06-.07-.08-.35-.63-.78-1.2-1.29-1.68-.88-.92-2-1.58-3.24-1.92-1.06-.62-2.28-.96-3.54-.96h-1.42s-.06,0-.1,0h-.94c-.19-.73-.49-1.43-.89-2.06l.47-.3c2.45-1.57,3.67-4.48,3.08-7.33-.31-1.48-1.07-2.77-2.14-3.74,.15-.26,.29-.53,.4-.81l.04-.09,2.46-1.71c2.38-1.66,3.49-4.61,2.8-7.42-.7-2.82-3.05-4.91-5.93-5.27l-3.87-.48c-.85-.86-1.9-1.49-3.05-1.82l.67-4.5c.15-.25,.28-.52,.4-.78,.07-.11,.14-.22,.21-.34l.11-.13c.34-.39,.63-.81,.87-1.25,1.08-1.58,1.44-3.48,1.11-5.26-.01-.14-.03-.27-.04-.41,.06-.39,.08-.78,.07-1.17l.05-.14c.82-2.05,.62-4.36-.53-6.24s-3.12-3.11-5.32-3.32l-1.76-.17c-1-.54-2.12-.84-3.28-.85-.02,0-.05,0-.07,0h0Zm502.89,25.1c-.7,0-1.4,.1-2.07,.31-1,.12-1.97,.46-2.83,1-1.2,.37-2.27,1.06-3.11,1.99-1.06,.8-1.87,1.89-2.33,3.14-1.25,1.34-1.93,3.12-1.88,4.96,0,.36,.05,.72,.11,1.07,0,.01,0,.02,0,.04l-.05,.38c-.05,.4-.07,.8-.05,1.2l.05,1.2c.05,1.13,.37,2.22,.92,3.2,.39,.93,.97,1.76,1.71,2.45l.78,.72,.75,.75c.34,.34,.71,.65,1.11,.91,.39,.48,.83,.9,1.33,1.26,1.09,.93,2.45,1.52,3.92,1.65,.2,.02,.39,.03,.59,.03,.92,.57,1.96,.91,3.04,1.01,.42,.08,.85,.12,1.28,.12h1.02c.28,.03,.56,.05,.84,.05,1.27,0,2.53-.35,3.63-1.01l.99-.6c.1-.06,.2-.12,.3-.19l.65-.44c.8-.54,1.47-1.24,1.99-2.05l.38-.6c.05-.07,.09-.15,.14-.23l.25-.43c.28-.48,.5-1,.66-1.54l.23-.78c.19-.64,.29-1.31,.29-1.98v-.31l.02-1.17c0-.4-.02-.79-.08-1.18-.09-1.22-.51-2.39-1.2-3.4l-.15-.36c-.32-.75-.77-1.43-1.31-2.02-.09-.35-.2-.69-.34-1.02-.42-1.25-1.19-2.36-2.23-3.2l-.12-.09-.52-.55c-.75-.78-1.67-1.38-2.68-1.75-.61-.58-1.32-1.04-2.09-1.36-1.17-.79-2.54-1.19-3.9-1.19h0ZM27.72,220.54h-1.38s-.07,0-.1,0l-1.4,.02c-1.97,.03-3.85,.89-5.15,2.37l-.12,.14c-.19,.17-.37,.36-.53,.56l-.43,.5-.76,.89c-.49,.58-.88,1.22-1.16,1.91l-.09,.1c-1.43,1.55-2.08,3.66-1.77,5.75,.3,2.09,1.53,3.92,3.34,5l.74,.44c.66,.88,1.5,1.58,2.46,2.06,1.32,1.2,3.01,1.83,4.72,1.83,1.39,0,2.79-.41,4-1.26l1.29-.9c1.19-.49,2.21-1.3,2.97-2.33,.39-.44,.73-.93,1-1.45,.84-1.18,1.3-2.6,1.3-4.07v-2.49c0-1.76-.66-3.45-1.85-4.74l-.03-.03c-.14-.19-.29-.38-.45-.56l-1.23-1.36c-.65-.72-1.44-1.29-2.31-1.69-.93-.45-1.97-.7-3.04-.7h0Zm317.04,36.02c-.99,0-1.98,.21-2.92,.64-.63,.14-1.23,.36-1.8,.66l-.64,.34c-.11,.06-.23,.12-.33,.19l-.53,.32c-.59,.35-1.12,.79-1.58,1.3l-1.1,1.22c-.86,.96-1.44,2.13-1.68,3.38-.16,.5-.27,1.02-.32,1.54-.59,2.02-.24,4.21,.96,5.94,.25,.53,.56,1.03,.94,1.49,.44,.81,1.03,1.52,1.75,2.1l.52,.42c.07,.06,.14,.11,.22,.17l.68,.5c-1.06,1.22-1.66,2.78-1.7,4.4l-.03,1.19c0,.06,0,.12,0,.18v.69c0,.88,.17,1.76,.49,2.58l.23,.58c.04,.1,.08,.2,.13,.3l.23,.51c.28,.63,.65,1.21,1.11,1.72l1.16,1.33c.46,.54,.99,1.01,1.58,1.39-.21-.09-.43-.17-.65-.24-1.22-.96-2.74-1.5-4.33-1.5-.18,0-.35,0-.53,.02h-1.12l-.75-.02c-.06,0-.11,0-.17,0-.6,0-1.19,.08-1.76,.22-.54,.13-1.06,.32-1.55,.58-.02,0-.04,.02-.05,.03-.26,.1-.51,.22-.75,.36-.72,.37-1.38,.87-1.94,1.49-.29,.23-.57,.49-.82,.76l-.34,.37c-.05,.05-.09,.1-.14,.16l-.32,.37c-.16,.18-.31,.37-.44,.57h0c-.28,.33-.53,.67-.74,1.03-.19,.23-.36,.47-.51,.72-1.8,2.59-1.66,6.13,.46,8.58l.21,.25c.24,.49,.53,.95,.88,1.37l.68,.83c.45,.54,.97,1.02,1.55,1.4,.33,.24,.68,.46,1.05,.64,.33,.2,.68,.37,1.05,.51l.12,.07c1,.53,2.12,.8,3.25,.81h.07s1.63,0,1.63,0c.32,0,.64-.02,.95-.07,1.78-.07,3.46-.81,4.71-2.08l.27-.18c.33-.21,.64-.45,.94-.72,.41-.34,.78-.73,1.1-1.15,.33,.33,.69,.62,1.08,.88l.28,.19,.76,.53c1.18,.83,2.59,1.28,4.04,1.28h1.25s.07,0,.1,0l1.37-.02c1.96-.03,3.82-.88,5.13-2.35l.17-.19c.15-.13,.28-.27,.42-.42l.32-.35c.05-.06,.11-.12,.16-.18l.76-.89c1.03-1.2,1.62-2.72,1.67-4.3l.04-1.12c0-.08,0-.17,0-.25v-.73c0-1-.21-1.99-.63-2.9l-.13-.29c.32,.04,.64,.07,.95,.07,1.98,0,3.91-.84,5.25-2.38l1.25-1.42c.05-.05,.1-.11,.14-.17l.95-1.15c1.31-1.58,1.85-3.65,1.5-5.67l-.25-1.42c-.02-.14-.05-.28-.09-.41l-.21-.88c-.26-1.08-.77-2.08-1.49-2.92l-.53-.62s-.09-.1-.13-.15l-.38-.42c-.52-.57-1.13-1.06-1.8-1.43l-.47-.26s-.08-.04-.12-.07l-.63-.33c0-.12,.02-.24,.02-.36l.05-1.96c0-.18,0-.37,0-.55,0-.38-.03-.76-.1-1.13,0-.02,0-.04,0-.06-.1-1.16-.48-2.27-1.12-3.25l-.51-.78s-.05-.08-.08-.12l-.43-.63c-.61-.89-1.41-1.63-2.35-2.16l-.64-.36c-.1-.06-.2-.11-.3-.16l-.76-.38c-.97-.49-2.04-.74-3.13-.74h-.79s-.1,0-.15,0c-.09-.18-.19-.35-.3-.52l-.3-.48c-.05-.08-.1-.15-.15-.23l-.66-.97c-.47-.69-1.06-1.29-1.73-1.76-.22-.19-.45-.37-.68-.54-.76-.71-1.67-1.24-2.65-1.56-1.02-.55-2.17-.83-3.31-.83h0Zm-1.2,35.94c-.15-.11-.3-.22-.45-.32,.18,.08,.36,.15,.54,.21-.03,.04-.06,.07-.09,.11h0Zm-39.02-19.68h-1.61c-.08,0-.17,0-.25,0l-1.1,.04c-1.49,.05-2.92,.58-4.09,1.51l-.82,.65c-.07,.05-.14,.11-.2,.17l-1.11,.95c-1.51,1.3-2.4,3.18-2.45,5.17l-.03,1.42s0,.1,0,.15v1.12c0,.18,0,.37,.02,.55,.04,2.07,.99,4.01,2.61,5.31l1.76,1.42c.42,.37,.89,.69,1.39,.94-.36-.16-.73-.28-1.12-.38-.65-.2-1.33-.31-2.03-.32-.02,0-.05,0-.07,0-2.15,0-4.19,.99-5.52,2.69l-.62,.79c-.2,.17-.38,.35-.56,.54l-.89,.96c-.09,.1-.18,.2-.26,.3l-.76,.92c-.51,.61-.9,1.31-1.17,2.04-1.73,2.57-1.57,6.03,.47,8.43,.35,.67,.82,1.28,1.37,1.8l.18,.21s.08,.09,.12,.14l.37,.42s.04,.04,.05,.06l1.18,1.63c1.22,1.69,3.13,2.74,5.2,2.88,.16,.01,.31,.02,.47,.02,1.65,0,3.25-.59,4.51-1.65,1.17-.39,2.24-1.09,3.07-2.05l.62-.71,.15-.17c.05-.06,.1-.11,.15-.17l.76-.89c.77-.9,1.29-1.97,1.53-3.11,1.12-2.42,.79-5.34-1-7.46-.25-.49-.55-.94-.9-1.36l-.85-1s0-.01-.01-.02c-.23-.37-.49-.71-.78-1.02l-.48-.78c-.68-1.1-1.63-1.97-2.75-2.55,.81,.35,1.7,.55,2.64,.57l1.09,.02s.09,0,.13,0c.03,0,.07,0,.1,0l1.42-.02c1.97-.03,3.84-.88,5.14-2.36l.92-1.04c.06-.07,.13-.15,.19-.22l.91-1.12c1.23-1.52,1.78-3.48,1.49-5.42l-.2-1.38c-.02-.13-.04-.26-.07-.39l-.15-.74c-.18-.88-.52-1.72-1.02-2.47l-.37-.56s-.06-.09-.09-.13l-.93-1.34c-1.31-1.88-3.46-3.01-5.75-3.01h0Zm325.19,7.7h-.81c-.07,0-.14,0-.21,0l-.54,.02h-.34c-.12,0-.24,0-.36,0l-1.38,.07c-1.84,.09-3.56,.9-4.8,2.26l-.89,.97c-.05,.06-.1,.11-.15,.17l-.98,1.14c-1.36,1.58-1.94,3.67-1.59,5.73l.06,.35v.14c-.03,1.14,.22,2.28,.73,3.3l.35,.7c.04,.08,.08,.16,.12,.24l.27,.5c.52,1.29,1.42,2.41,2.59,3.2l1.73,1.16c1.15,.77,2.51,1.19,3.9,1.19h1c.07,0,.14,0,.21,0l1-.03c.12,0,.24-.01,.37-.02,1.5-.05,2.94-.58,4.11-1.5,.49-.31,.93-.69,1.33-1.12l.62-.67s.05-.05,.07-.08l.35-.39c.25-.28,.48-.59,.69-.9,.78-.95,1.29-2.09,1.48-3.3,.11-.37,.2-.75,.25-1.14l.08-.6s.01-.09,.02-.14l.15-1.33c.22-1.91-.36-3.82-1.6-5.29l-.85-1.01c-.05-.06-.1-.11-.15-.17l-.97-1.08c-1.33-1.48-3.22-2.32-5.21-2.32h0c-.21-.02-.43-.03-.65-.03h0Zm-19.66,30.82c-.97,0-1.93,.2-2.82,.59-1.27,.34-2.43,1.02-3.34,2l-.16,.18-1.91,1.51c-2.87,2.27-3.51,6.36-1.47,9.39l1.55,2.31s.03,.05,.05,.08l.98,1.42c1.14,1.65,2.91,2.72,4.87,2.97,.25,.1,.5,.18,.75,.24,.62,.17,1.26,.26,1.9,.26,.36,0,.72-.03,1.07-.08l1.14-.02c1.93-.03,3.75-.86,5.05-2.27l.3-.23s.06-.05,.09-.07l1.14-.93c1.63-1.33,2.58-3.32,2.58-5.42v-.56l.04-2.02c.04-1.89-.69-3.71-2.02-5.05l-.6-.61-.5-.59-.37-.44c-.13-.15-.27-.3-.41-.44-1.32-1.32-3.12-2.07-4.98-2.07-.16,0-.33,0-.49,.02l-.31,.02h-.51l-.61-.09c-.33-.05-.67-.07-1-.07h0Zm91.14,81.41c-.39,0-.78,.03-1.16,.1-2.49,.42-4.56,2.15-5.42,4.53l-.2,.55c-1.91,.85-3.34,2.52-3.89,4.55-.23,.85-.3,1.71-.21,2.56-.21,.87-.25,1.79-.1,2.7,.28,1.79,1.24,3.38,2.66,4.47,.13,.16,.27,.31,.41,.45,.91,1.24,2.23,2.17,3.79,2.6,1.19,1.12,2.74,1.81,4.39,1.9,.14,0,.28,.01,.42,.01,.52,0,1.04-.06,1.54-.17,1.57-.19,3.08-.92,4.23-2.13l1.34-1.42c.88-.59,1.61-1.37,2.14-2.28,.99-.99,1.63-2.21,1.9-3.5,.94-2.32,.59-5.04-1.08-7.08l-.07-.08h0c-.21-.42-.46-.82-.74-1.2-.19-.33-.41-.64-.65-.93l-.34-.41s-.06-.07-.09-.1l-.79-.92-.59-.88c-1.16-1.74-3.05-2.87-5.13-3.07-.21-.02-.43-.03-.64-.03-.55-.14-1.12-.21-1.7-.21h0Zm-36.12,4.24c-1.84,0-3.66,.72-5.02,2.12l-1.79,1.84s-.06,.06-.08,.09l-.78,.83c-1.12,1.19-1.78,2.73-1.89,4.35l-.07,1.11s0,.1,0,.15l-.07,1.66c-.1,2.33,.97,4.56,2.85,5.94l2.11,1.55c1.24,.91,2.7,1.36,4.14,1.36,.13,0,.25,0,.38-.01h.67s.07,0,.1,0l1.34-.02c1.92-.03,3.75-.85,5.05-2.27l.89-.97c.07-.08,.14-.16,.21-.24l.71-.85c.93-1.12,1.5-2.5,1.61-3.95l.08-1.04c0-.06,0-.11,.01-.17l.09-1.72c.13-2.4-.99-4.7-2.96-6.09l-1.39-.98c-.07-.05-.15-.1-.23-.15l-2.16-1.4c-1.17-.76-2.49-1.13-3.8-1.13h0Zm7.91,22.8c-.12,0-.24,0-.36,0-2.59,.13-4.89,1.69-5.98,4.04l-2.41,5.18s-.03,.07-.05,.11l-.1,.22-.04,.08c-.4,.8-.64,1.67-.72,2.56l-.12,1.47c-.11,1.29,.15,2.58,.73,3.73,.13,.38,.28,.75,.47,1.1,.48,1.21,1.29,2.26,2.34,3.04l.73,.54c.17,.12,.34,.24,.51,.34l1.8,1.3c1.23,.89,2.67,1.32,4.09,1.32,1.9,0,3.79-.77,5.16-2.26l1.82-1.98s.08-.09,.12-.14l.68-.78c.95-1.09,1.54-2.45,1.69-3.9l.1-.99s0-.04,0-.05l.11-1.18c.07-.74,.02-1.48-.14-2.2-.04-.2-.08-.4-.14-.59-.22-.82-.58-1.6-1.09-2.3-.24-.49-.54-.95-.88-1.37l-2.32-3.88c-1.27-2.12-3.55-3.41-6.01-3.41h0Z" style="fill:#cae3e8;"/></svg>