<svg xmlns="http://www.w3.org/2000/svg" viewBox="0 0 800 800"><polygon points="64.36 405 69.32 397.94 69.87 391.18 68.77 384.13 68.77 375.61 70.15 371.49 74.83 362.97 80.06 349.74 79.51 347.98 76.21 342.69 53.35 321.52 52.8 321.23 48.39 313.3 48.94 303.01 52.24 298.6 60.78 292.13 64.64 289.49 69.05 287.43 83.37 290.96 98.52 299.48 112.29 303.3 122.21 292.43 122.76 287.43 122.21 282.73 122.48 277.73 125.79 272.15 129.37 270.09 144.8 264.51 177.3 259.22 210.63 252.46 229.91 244.52 239 233.06 237.35 228.06 235.14 221.89 226.05 216.6 219.72 210.13 223.3 195.44 230.19 186.91 236.8 185.15 243.96 185.15 251.95 182.5 254.98 179.57 257.18 176.04 261.04 168.1 264.62 164.58 268.75 164.58 273.43 166.05 278.39 165.75 286.65 158.11 297.39 142.24 305.93 125.19 307.59 112.26 304.56 109.03 300.7 109.03 296.29 109.61 292.71 108.44 290.23 105.21 288.03 100.21 284.72 88.75 279.77 79.05 278.94 73.17 281.42 66.41 284.72 64.06 297.95 63.76 306.76 60.24 338.16 37.9 348.08 33.49 357.99 32.31 364.05 34.37 368.19 35.55 375.62 41.43 379.75 45.54 382.51 49.07 386.37 56.42 384.99 56.12 380.86 54.95 376.45 59.06 376.73 61.71 375.9 69.35 374.8 76.11 373.14 76.4 375.9 80.81 405.65 97.27 438.15 115.2 442.83 117.84 451.1 120.78 478.09 122.25 484.43 126.95 490.76 139.3 496.82 166.63 500.4 173.39 507.29 177.21 513.07 174.57 518.58 170.75 525.19 171.63 531.53 183.39 532.08 199.55 534.28 216.01 545.58 228.65 549.98 229.82 559.35 229.53 564.03 230.71 568.44 233.06 576.15 239.52 580.28 241.88 593.23 244.81 601.22 245.11 605.07 249.22 605.07 251.87 605.07 262.74 603.42 271.56 597.91 288.9 596.53 296.84 595.16 299.48 593.23 300.95 593.23 302.42 597.08 305.07 603.97 307.12 608.93 306.83 618.57 306.54 659.06 312.12 668.15 315.06 674.49 320.06 687.43 335.63 694.04 339.75 699.83 339.75 717.46 332.11 726 332.11 738.12 334.75 740.32 336.22 748.31 341.22 751.61 352.68 749.41 357.09 745.28 359.73 740.32 361.79 736.46 364.73 736.74 366.2 734.53 376.78 733.98 378.25 733.16 379.13 730.68 380.31 729.85 382.07 730.4 384.13 733.16 388.83 733.71 390.6 729.58 402.64 709.47 434.09 693.49 449.67 689.91 455.26 689.08 463.19 691.01 479.65 689.08 487.88 680.82 495.23 656.86 502.28 648.32 510.81 648.04 523.44 663.74 546.08 667.88 560.48 666.77 559.89 649.97 564 641.71 564.3 634.54 559.6 630.69 564 629.04 566.06 624.63 565.18 621.05 561.36 616.37 559.89 609.75 563.41 610.31 568.12 613.34 572.53 613.61 576.05 609.48 576.35 595.43 571.35 588.27 571.94 585.79 574 583.04 576.05 559.35 610.74 559.07 615.14 559.9 617.79 561 620.73 561.55 625.14 562.1 635.42 561.83 636.6 561.28 640.42 556.87 641.3 539.51 637.77 536.49 637.19 532.9 633.95 531.53 632.49 527.67 624.84 521.06 614.56 507.01 601.33 491.59 589.87 486.08 587.22 483.6 586.34 480.29 586.34 470.65 592.22 457.16 604.86 452.47 609.27 442.28 614.26 430.71 618.08 402.07 627.19 364.61 639.54 354.14 645.12 346.43 654.23 342.29 665.4 337.33 690.68 336.78 702.44 340.64 718.31 342.02 723.01 340.64 733.59 340.37 735.35 336.23 745.05 329.35 756.22 325.77 760.04 321.36 765.04 312.55 767.68 308.69 765.04 300.98 754.75 297.39 752.4 294.64 754.16 290.23 762.1 287.2 764.45 280.87 764.75 275.91 762.39 266.55 752.7 266.82 748.87 264.89 742.7 264.62 738.88 266.55 732.71 269.02 729.77 272.05 727.71 275.36 723.6 279.49 714.19 279.49 707.73 277.56 700.97 275.63 690.68 262.96 658.94 260.49 649.53 260.49 632.78 259.38 623.67 254.98 610.15 239.83 578.4 232.11 568.41 229.08 565.18 222.2 558.13 172.62 523.44 166.28 522.27 138.74 522.86 134.05 522.27 130.75 518.74 127.17 510.22 126.62 506.69 127.44 499.64 126.34 495.52 124.14 492.58 117.8 487.29 115.87 484.06 116.42 480.83 120.56 474.65 120.83 470.54 118.63 466.42 113.39 461.43 111.19 458.49 99.9 432.62 99.9 432.33 99.62 432.33 93.01 424.1 72.9 413.52 64.36 405" style="fill:#efc441"/></svg>