<svg xmlns="http://www.w3.org/2000/svg" viewBox="0 0 800 800"><path d="M556.09,135.6l2.52,6.61,3.45,5.88,3.21,7.84,1.61,8.08-.23,14.7,1.14,9.06,4.37,13,8.72,18.86,10.33,14.21,8.72-.25L605.67,251l7.8,17.64,14.24,20.57,6.42,15.43-1.37,7.84-7.35,1.22-13.77-6.12-7.12-4.41-2.06-3.67-6.66-1-8.26-1.72-6-1L562.06,299l-9.87,8.81-8.5,8.58L523,328.11,508.8,341.58l-7.34,11.76-7.12,9.55-15.15,7.35-1.38,6.12L474.6,382l7.35.73,12.62-2.2,9.18-2,7.35-2.94,8-2.94,4.59,2.94-9.64,6.61v4.66L512,392.28l8.26,5.64H526l6.2-2.21,7.57-2.45,2.07-9.55,5-2.2,6.42,2.2,6.66-5.14,3.44-5.63,5.28-2.7,2.53,2.45,5,7.35.92,1,4.82,4.41,3.44,1.22,9.41,3.43,12.4-2.69-2.53,17.39-.23,7.1,1.15,11.51,3.44,17.15,3,8.08,4.59,7.35,1.83,8.08,8.27,52.9,5.74,13.23,16.75,25.47,5.05,4.9L667.19,565l1.14,5.88L667,578.43l-.46,7.84,2.75,7.59,9.18,13.23,1.84,4.65,3.44,5.39,8,3.43,13.77,2.94-3.21,6.12-1.38,6.86.23,7.1,2.06,6.61-5.05-3.67-1.83-1.72-.46,3.19.46,2,1.38,1.47,3.21,1.71-2.53,3.19-1.6,1-1.15-.49L694,655.34h-2.29l-.23,8.32,3.21,2,4.59-2.45,3.9-4.89.92,4.16,1.38,18.61,1.15,4.66,2.75,5.39,5.28,7.1,3.9,4.16-59.45.74-59.68.49-59.68.73-59.45.74H462.21l-2.76-10.29-6.2-6.61-7.8-5.64-7.12-6.61-5.05-8.82-4.59-11.51-3.21-11.75-1.15-21.07-1.61-9.8L404.13,561l-16.3-27.92L383.7,526v-.25h-.23l-18.59-2.45-33.51-4.41-33.29-4.65-33.51-4.41-33.28-4.41-37.42-4.9-37.41-4.65-37.65-4.65L81.4,486.58l9.87-11.26L141.54,418l21.11-36L184,358.24l5.05-7.84L199.15,324l25-42.13,6.43-14.69.92-3.92,1.14-11.76,1.84-5.63,12.17-23.27,28.69-74,11.48-16.65,17.44-12,54.17-22.78,19.28-2.21h86.54l19.28,3.68ZM686.93,343.3l5.28,2.2,2.75,2.21,3.67,3.43,2.76,3.43,2.52,3.67,3.68,10.53-.69,3.92-5-1.71-3.22-.74-3.21-2.2L686.24,360l-6.43-2.69L670.86,356l-6.89.24L664.2,346l3.67-5.87,5.74-.74Zm4.82-96.5-6.2,12L675.22,272l-12.4,11.51-12.39,6.37-2.3-.25L636,288.19l-8.26-10L616,249.74l-13.77-25.48-2.07-2.44-1.84-2.21-6.65-4.16-2.76-3.92,6.43-4.66,3.9-2.2,7.35-5.14,3.67-1,1.38-2.21,1.83-13.47-5.28-2.2-2.75-.49-3.21.24,3.21-5.88,4.82.49,8,5.39,3.91.49,4.59-.24,2.52-2.7-1.83-6.12,6.19-2.69,4.82-3.19,1.38-3.43-5.51-3.92-3.9-.49-4.36,2.21-3.22-1.72-1.37-2.45-.92-4.16-.23-4.16.23-2.7h-6l-.69-.73-1.15-1,1.38-2.94,4.13-3.18,4.82-2,4.82-.25,4.6,1.47,4.36,3.18L689,215.2l5,14.21ZM599.93,131.68l-2.07,2.21-3.21,4.41L593,139.76l-8.95,4.9-2.52.49L579,143.68,577.21,141l-.46-2.45,4.59-3.43,6.88-9.31,3.68-2,13.08-2,5.28.49-1.15,3.91Z" style="fill:#efc441"/></svg>