<svg xmlns="http://www.w3.org/2000/svg" viewBox="0 0 800 800"><path d="M766.76,319l.41,1.32.19,2.79.32,1.42.73,1.23.83,1.08.6,1.22.09,1.62-1.79,2.74-3.31,1.08-16.85-.2-3.44.88-2.43,1L741,336l-.92,1.22-.6,1.52-.78,3.18-.6,1.52-2.43,2.21-3,.39-3.17,0-3,.68-3.77,2.6-4.36,1.57-5.28,3.48-1.38.49-1.56,0L706,353.51l-1.47.35-1.19.78-3.17,2.84-1.42,1-1.47.59-3.13.68-2.61,1L684,366l-4.09.74-1.19.59-6.06,4.11-9.09,3.43-.92.49-.87.78-.51.89-.55,2.15L660,380l-2.34,1-4.95,1-6.2,4.66-2.71,1.17-1.19.79L641.52,390l-.27,1.52,1.19,3.28.19,1.57-.69,1.42-1.2,1L638,400.29l-1,1-1.7,2.4L634,406.07l-1.79,3.34-.91,1.37-1,1-6.79,5.63-1.2.44-1.37-.15-2.62-1.17-8.77-1.18-2.39.05-2.25.74-8.86,4.55-1,.34-1.24.1-3.44-.15-5.19,1.43-1.92-.1-2-1-3.76-1.52-3.77-.78-2.11.09-3.9,1.18-8.36-.49-2-.69-3.58-1.76-1.83-.34-7.21,1.56-2.62,1.08-1.79,1.67-.92,1.32-2.48,1.76-1.14,1.08-.65,1.62.23,1.61.51,1.67.18,1.71-.55,1.72-1,1-2.67,1.47-2.2,1.86-1.79,2.59-1.15,3-.41,8.62-.23,1.37-.78,1.23-3.54,2.64-1.7,2.6-2.15,6-1.52,2.4-1.83,1.76-5.84,3.67-2.15,2.06-1.1.39-1-1.07-1.05-5.2-.69-1.42-2-.58-1.93,2-2,2.75-2.24,1.37-1.29-.3-2.48-1.32-1.28-.39-1.66.15-6,2.79-.87,1.17L480.2,478l-1.1,1.47-1.33.89-1.42.29-1.47-.1-4.36-1.08-1.43-.09-1.47.14-3.07,1.28-1.52.14-1.15-1.17-.55-1.47-1.1-3.77-.14-1.57.55-1.62.88-1.17.69-1.13L462,467.5l-.64-.93-1.88-1.71-.74-1.08-.5-1.57-.32-4.8-1.24-3.62L454.86,452l-2.43,0-2.8,1.62L434.94,465l-.65.35-.78.19-.82.3-.37.68-.28.79-.5.73-1.24.3-1.24-.59-1.24-.88-1.24-.49-1.7.29L421.62,468l-1.7.25-2.47-.54-2.44-1-5.83-3.87-1.51-.69-1.43.15-.18.29-.83,1.18-.27.88,0,.29-.55,1.57-.83,1.77L403,470l.5,1.27,3.17,2.84.78,1.13L408,478l-2.06.54-5.65-1.37-1.47-.1-1.28.54-3.45,3.33-1.1.84-2.61,1.32-2.25,1.62-6,6.31L375,496.65l-2.39,1-2.11.29-2-.34-2.3-.83-2.34-.49-2.39.29-2.34.93L357,498.9l-2.11.93-4.41.59-1.84,1.47-.68.88-.55,1-.42,1.13-.14,1.22-.41,2-1.1,1.42L344,510.81l-1,1.66-.5,3.53-.32,1-.55.68-1.93,1.57-.78,1.23-.64,1.51-.28,1.62.09,1.67.64,1.66.92.54,1.1.25,1.34.78.91,1.47.42,1.76.32,3.63,1.51,4.5-.32.93-1.51.89-1.1.88-.83,1.17-.78,1.91-.74,2.89-.64,1.18-1.19.64L325.58,552l-1.88-.93-6.2-.68-2.34.24-7.34,1.76-1.66,1.08-.5,1.32-.14,1.18-.46.88-3.81.69-6.84,2.25-2.11.2-2.34-.64-1.2-.59-.82-.24-.87.14-3.26,1.72-1,0-1.2-.35-4.18-.88-1.37-.1-2.89.59-1.06,0-12.35-3.13-1.15-.1-1.15.34-.68.59L255.48,559l-.78.49-1.06,0L252,558.37l-1.06-.24-.73.29-2.07,2.15-1.1.2-1.15,0-2.2-.59-1.15,0L240,561.46l-1.47.14-1.19.44-.78,1.28-1.56,4.5-2.75,5.88-.74,0-.05,0-.64-.93-.64-1.37-.18-.83v-.64l-.23-.49-1.38-.73-1.06-.79-.55-.34-2.89-.44-1.38-.59-.59-1.27-.14-1.77-.42-2.1-.73-1.86-1.15-.89-1.24.2-2.34,1.27-2.48.49-1.14.54-6.62,4.56-2.47,1-2.44.24-1.28-.39-1.24-.88-1-1.32-.5-1.72.14-1.71.68-1,.92-.88.74-1.28.27-1.66-.18-2.21-.6-1.91-1.05-.93-1.34,0-6.84,1.37-3.25-.15-2.76-1.22L182,548.18l.59-1.27,1.7-2.45.37-1.23-.41-1.37-1-1.27-.09-.05-1.1-1-2.25-1.32-1.24.14-2.3,1-1.92.35-.65.24-.46.29-.91,1-.51.4-2.34,1.17-.92.74-2.16,2.35-.68.54h-.88l-3.81-.74-2.84.15-2.8.73L153.24,548l-1.37,2.36-1,2.74-1.24,2.3-2.16,1.08-1.83-.49L144,555l-1.47-.69-1.24.59-.83.93-.55.2-.6-.1-1,.05-.82.2-2,1.12-1.84.3-2.07-.35-1.74-1-1.06-1.76,0-1,.32-1.12.14-1.13-.37-1.18-.64-.58-1.56-.64-.74-.59,0,0-1.29-4-1-1.77-1.61-1.22-1.19-.15-2.44.44-1.19-.1-.83-.49-1.51-1.32-.92-.34-1.19.14-2.16.79-1.1.24-.64.2-.42.44-.32.49-.41.24h-.69l-1.38-.44-.69,0-.87.29-6,4.26-1.19.29-1.19-.44-.1-1.17.74-3,0-1.42-.27-1.57-.65-.78-1,.73-1.88,3.92-.55.79-1.11.39-1.1-.39-2.25-1.28-1.37-.29-1.47,0-1.38.44-1.15,1-1,1.47-.6.44-2-.93-2.7-.29-5.19,1L68,543.87l-2.8-1.57-2.66-.88-2.71-.29-5.88.34L52.8,542l-2.25,1.86-1.15.69-1.24.44-1.24.14H45.45l-2.89.49-1.43-.49-1.6-1.61-.37-.25-.64.25-.23.59-.19.63-.41.59L35,546.37l-.92-2.06.32-10-.23-1.62-.5-1.37-1-1.13-1.19-1-1-1.12-.46-1.52.23-3.33L31,520l3.07-9,1.29-2.79.32-.83v-.54l.23-.15,1,.15,2,2.15,3.21,5.34,6.43-2.2L48.48,511l-1.56-2.74,0-.59,0-.54-.14-.54-.27-.49L46,503.41l.45-2.16,1.06-1.91,1.38-2,.23-.54.27-1.47.28-.34.55.15.73,1.27.42.39,1.05.15,1.1-.15,26.45-9.16,2.34.25L91.82,494l1.47.44,3.35-.19,1.51.1,1.47.73,1,1,.87,1.18,1.05,1.12,1.2.64,2.39.29,2.52,1.08,5.37.73,1.65.54,1.56,1,.69,1.52-1,1.86-1.1.74-1.1.54-1,.73-.88,1.18-.64,1.56-.18,1.47.5,1.13,1.47.49.55-.73.55-1.87.46-.78.78-.34,2.85-.1,1.47-.54,1.33-.78,1.15-1.18.92-1.52.59-2.94-.09-2.59.32-2.16,1.75-1.61,4.31-1.43.92-.53,2.62-2.16.41-.54.23-.19.37-.05.32.14.23.2,0,.15,1.24-.64.46-.39.87-.3,3.58.79,2.07-.69,2.25-1.61,1.1-2.06-1.38-2.06,2.44-2.4,3.9-.64,7.8,1.08,2.12-.19,1-1.43.6-1.86,1-1.56,1-.3.69.54.6.88.69.79.91.39,1.11.1,2.11-.2,1.37.1,2.12,1.91,3,.88.64,1,.55,1.22,1.2,1.13,1.42.88,1.56.59,3.17.59,1.65-.15.55-1,.19-1.47.41-1.62,1.19-1,1.2,1,1,1.91.46,1.71v3.48l.41,1.27,1.33.59.92-.29,3.54-2,1.1-1,.73-1.18,1.24-2.64,2.07-2.06,2.48-.1,2.62.59,2.66.24.78-.24.37-.05.55.1.78.29,1,.2,1-.25.41-.93-.37-.63-.41-.3-.51-.29-1.92-.88-1.29-.89-.46-1.27.37-1.17L219,476l1.79-1.67,1-2.4.41-1.57.6-.88,4.5-2.35,1.1-.29,3.07-.15.51-.05,1.24.15.6.49-.28.88-1,.29-1.15.1-.74.2-.32.78,0,.05.87.24,3-.14,1,.39,3.95,2.2L241,473l1.56-.34,1.38-1.82.69-2.1.09-2-.41-1-.32-.69L241.07,463l-.6-.74v-1l.46-1.37v-1.52L239.46,456l.23-1.42,2-.83,2.2,1.86,2.25,2.5,1.93.93,2.57.34,4.73,3.13,2.66-.14,1-.79.69-1.07.28-1.18.09-1.27.55-1.42h1.19l2.48,1.12,2-.88.78-5.68,1.56-2.35,2.38-1,4.82-1.18,5.74-3.48,6.29-2.25,3.22-1.71,2-2.65-.33-1.71h0l-.55-.1-1.52-.34-3.95.24-1.33-.93-.92-1.22-1.1-.74-5,2.25-3.12,2.06-.82.15.18-1.42-.32-2.5-2.57-.69-8.63.74-2.89-.3L257.64,431l-2.07-2.21-2.89-4.31-1.29-.44-1.65-.15-1.24-.58.05-2,.09-.49,0-.44-.18-.35-.32-.29-3.58-.29-1.88-.54-1.43-.88-1.92-2.89-.88-.59-1.24,1-.36.59-.74,2.25-.5.39-2.48.34-3.86,1.13-2.06.59.91-2,.46-1.52v-1.71l-.59-4.41-.14-2.45-.32-2.3-.74-1.67-1.74-1-1.61.25-1.56,1-1.47,1.27-2,1.17-1.2-.63-1-1.37-1.6-1.33-5.33.89-1.74-.79-.37-3.62.18-3.63-.41-2.79-1.06-2.55-6.29-9-.55-.49-.55-.2-.46.35,0,1.81-.51.44-.64-.25-.37-1.37-.73-.29-.28.44-.32.93-.37.74-.64-.25,0-1,1.23-4.8v-1.81l-.36-1.67-.87-1.12-1.47-.2-1.47.54-.83,1L189,378.69l.69,1.42,1.88,2.35.28,1.57-.33,1.72-1,2.84-2.2,4.65-1.89,1.86-2.24.44-2.9-1.22L178,391.43l-.91-.25-.42,1.08.6,14.74-.37,2.94-1.51,1.28-4.55-3.82-1.7,2.1-.73,1.62-.87.05-.88-.88-.64-1.18-.82-3.23-.74-1-1.61-.1-1.37.69-.19,1.22.32,1.52.14,1.76-.64,1.67-1.06-.69-1.7-2.74-1.1-.83L154.8,407l-1.24-.63-1.37-1.08-1.52-.64-3.17-.58-2.89.44-1.33-.15L142,403.23l-.92-1.22-1.1-1.08-1.19-.83-1.29-.54-1.51.15-1.29.63-1.1.15-.83-1.18-.13-1.47,1-5.24-.14-1.81-.64-1.76-3.77-6.22-1.1-1.47-1.29-.74-2.29.34-8.22,4.51-2.25.83h-.46l-1.15,0-1-.94-1.61-2.93-1-1.23-1.1-1-2.52-1.47-9.46-1-2.48-1.22-1.24-2.79,1.42-2.21,10.84-6.07,4-3,2.2-1,2-1.32,1.61-2.25,1.93-4,2.94-3.33,6.65-5.44,2-1.18,6.71-.73,2.34-.83.73-1.42.19-4.95,1.19-3.14,2.75-.73,3.31.15,2.75-.64,9.46-6.76,5.56-1.52,2.48-1.66,1-3.24-.23-.05-2.12-.68-9.41-6.47-2.15-.83-2.12.29-3,2.06-1.47,1.32-1.93-.44-1.42-.68-2.66-2.55-.37-1.32.83-1.33,1.6-1.47.78-.68,2.16-2.55.46-1-.14-.64-.37-.58-.13-.93.41-1.67.78-1.67,1-1.46,1-.94,3.22,2,1.05.1.92-.49.64-.88.14-1-.55-.93,0-.05-2.3-2-.69-.83-.64-3.23,2.52-1.47,5.79-.89,1.05-1,.37-1.28-.14-3.43.19-1.81.59-.83,2.53-.83,1.06-.69.82-1.08,1.47-2.55,1.15-.53,1.47.44,1.6.68,1.43.3,1.19-.49,1.06-1,.87-1.23.73-1.32,1.15-1,1.65-.1,3.22,1.08,1.15-.49.68-.05.69.34,2.62,2.16.87.29,1.15-.19,7.39-4.51,2.2-.69,4.69-.24,2.34-.78,1.1-.25,1,.44,1.06.69,1.1.44,4.13,1L221,270l2.12.59,1-.1,1.93-.88,1-.29,8.58.34,4.46,1.71,7.94,5.1,2.34.44,4.82,0L264.8,279l2.07,1.12,1.6,1.72,2.3,4.06,1.7,1.52,2.29,1,2.25.64,2.3.05,8.58-1.37,3,.09,2.52,1,1.33,1,1.1.59,1.2.34,4.82.3,1.51.58,1.06,1.13-.23,2.65.05,1.86.82,1.12,6.11,1,4,1.57,1.88-.34,0-1.57,0-.05-4.82-8.91-1.05-2.7-.51-2.89.19-3.28.73-3,3.58-7.64,1.79-3.72.23-1.32-.18-1.57-.83-2.89-.18-1.47.23-1.47.55-1.27,1.38-2.31,2.57-7,.73-1.27,1.06-.89,3.16-1.76L337.2,239l1.15-.24,2.8.1,2.47-1.28,2.25-6,2-1.52,1.38.49,2.39,2.2,1.24.39L363.46,232l1.1-.59.18-1.27-.69-1.47-1.83-2.4,1.93,1,3.44,2.94,1.88.78,2.25.44,1.93.93,3.44,2.75,1.33.68,2.85.25,2.39,1.56,2.75.69,1.24.68,1,1.13,1.66,2.74,1,1.08,6.89,5,2.34.88,7.67,1.22,5.73,2.65,1.89,1.62,1.92.88,4.09,1.17,1.88,1.08,1.56,1.18,4.09,2.35,1.74.39,4.46,0,15.1,1.86,2.66-.24,1.33.14,4.32,1.72,1.74-.05,1.93-.83,1.93-1.28,1.61-1.56.69-1.13,2.2-5.59.73-.63,1-.25.69,0,3.49-.29,2.62.39,5.28,1.47,1.47.1,4.4-1.42,1.75-.05,4.91,1.13h6.11l5.74,1.71.73-.1,1.33-.58.78-.05.69.39.78,1.42.64.29,1.2-.34,2-1.86,1.24-.49,1.74.19,3.49,1.43,1.75.29,1.42-.34,2.57-1.08,3,.1,1.29-.3,2.57-1.32.27-.34.1-.39.13-.3.51-.15,1.24.25H537l.5-.29,1.42-1.62,1.29-.88,1.38-.2,2.94,0,2.66-1,1.33-.24,1.28.54,7.63,1.22,2.29.83.74.59,1.92,2.6,1,.73,1.11.3h2.29l6.61,1.07,2.21-.58,2.84-1.33,1-.24,1.06.1,1.83.58h2.67l1.33.69,1.15.88,1.28.74H590l3.53-1.62,1.38-.24,4.41.14,4.54,1.08.42.49.27.59.46.49.78.54,1.7-.79,1.15-.68.59-.25,1.52-.19,1.56.14,1.47.54,3.81,2.16,3,.49,7.21-.64,3.08.15,3.07-.39,1.29.19,2.75,1,1.43.05,1.14-.39L643,260l1.42-.49,2.94-.2,4.45.44,6.61,2.21,2.76,1.52,2.29,1.86,1.15.54,8.13.78,5.37,2.11,4.45.24,2.57,1,2.53.1,5.23-2.55,2.66-.44,1.7.44.51.89-.42,3.33.09,2,.37,1.77.69,1.61,1,1.57,2.39,2.3,5.33,2.4,2.11,2.16,3,6.91,1.83,2.4,3.4,1.32,6.43.39,5.42-1,2.93.1,14.83,3,2.85,1.81.92,1,2.57,3.62,4.36,3.78,2.2,2.79,1.79,3,2,2.59Zm-565,187.47-1.65.49-2.48,1.76-1.15.59-1.7,0-1.05,1.27.64,1.22,1.42,1,1.34.64,1.69.49,1.06-.2.64-1,1.52-5.39ZM160.91,502l-.51-.1-.27-.15-.23-.19-3.76-1.52-1.8-1.13-1.14-1.42-1-2.3-1.1-2.06-1.51-.93-2.12,1.13L146.36,496l-.42,1.47,0,1.42.36,1.32,1.66,3.53.73,1.08.92.44,1.74.39.79.59.32,2.45-2.85,4.36.09,2.15.83.4,1-.54.92-.88.74-.54,1.28.05.32.73.19.93.78.69,1,.09,3.21-.83,2.25,0L163,515l.69-1,.14-2.6-2.94-3.08-.14-2.21,1.06-1,3.12-2,.46-1.33-.51-.78-.87-.19-1.7.48-.36.2-.74.54Zm-45.5,13.47h-1l0,1.32.5,1.37.88,1.23L118,521l.64.79L120.6,525l.37.3,3.44-2.7,1.93-1,2.2-.39.69-.64.09-1.47-.45-1.56-.83-.2-2.16.93-2.34-.1Z" style="fill:#efc441"/></svg>