<svg xmlns="http://www.w3.org/2000/svg" viewBox="0 0 800 800"><polygon points="267.04 51.22 267.55 52.38 268.02 53.26 268.74 55.9 268.95 56.23 269.62 56.73 269.88 57.11 269.88 57.55 269.62 58.55 269.72 59.1 270.81 60.37 272.15 61.3 273.23 62.41 273.7 64.11 275.14 65.55 279.69 67.92 285.11 73.43 287.49 74.91 288.16 75.63 288.68 76.51 289.4 78.61 289.92 79.6 291.46 80.81 293.38 81.97 294.51 83.02 293.84 84.06 293.63 84.34 293.48 84.61 293.32 84.89 293.27 85.22 294.15 88.42 296.99 89.96 300.35 91.12 302.67 93.16 305.25 99.27 305.98 102.74 305.62 107.7 305.77 109.63 306.13 111.51 306.6 112.83 307.17 113.71 307.37 113.82 307.68 113.66 311.66 113.6 312.48 113.38 314.81 111.78 316.51 109.47 317.44 106.77 317.6 99.99 318.94 98.67 320.44 99.93 321.06 103.79 320.85 107.15 321.11 108.75 321.99 109.8 323.33 109.69 328.75 107.21 329.22 106.88 329.58 107.04 330.2 108.14 330.51 109.03 330.66 110.02 330.56 115.81 330.82 117.84 331.59 119.72 331.64 119.94 331.64 120.16 331.64 120.43 331.59 120.65 330.04 122.2 327.25 125.89 325.6 127.43 322.19 133.27 323.33 132.72 324.83 131.73 326.33 131.01 327.36 131.24 327.25 132.17 324.78 136.41 324.47 138.12 324.36 141.98 324.11 143.41 323.18 144.41 320.64 145.07 319.4 146.06 318.53 147.66 319.15 148.04 320.54 147.88 322.25 147.93 323.33 148.37 324.31 149.09 325.09 150.03 325.45 151.02 325.35 151.79 324.73 153.44 324.73 154.27 325.14 155.1 325.65 155.26 326.33 155.32 327.05 155.76 327.93 157.19 327.93 157.25 328.65 160.5 329.17 161.99 329.53 162.7 329.89 163.31 330.46 163.58 331.59 163.42 333.45 164.3 334.64 165.68 336.35 169.48 338.67 174.88 340.06 177.36 342.23 180.17 343.32 181.33 343.83 181.66 344.61 182.04 346 182.27 346.73 182.43 347.4 182.82 348.38 183.59 349.15 183.86 350.03 183.86 350.55 183.7 351.48 183.42 352.15 183.31 353.39 183.7 357.68 186.12 359.74 186.84 360.57 186.95 360.98 186.95 362.89 186.4 363.05 186.34 364.54 185.46 365.11 184.91 365.32 184.41 365.73 184.19 366.76 184.58 367.69 185.57 369.04 188.38 369.86 189.43 370.43 189.93 371.05 190.26 371.72 190.48 372.45 190.48 372.45 190.53 377.15 191.58 378.59 192.46 381.54 195.77 383.19 197.25 383.4 197.64 383.76 197.81 384.58 197.97 385.25 197.86 386.18 197.53 386.96 197.09 387.42 196.7 387.37 195.99 386.6 194.39 386.55 193.56 386.91 192.46 387.37 192.13 387.99 192.07 388.92 191.75 390.47 190.7 390.78 190.15 390.52 189.32 390.37 187.61 390.63 186.23 391.25 184.53 392.02 182.98 392.8 182.04 393.62 181.77 395.17 181.99 395.89 181.94 396.56 181.55 397.7 180.45 398.32 180.06 403.85 178.19 405.4 177.47 406.12 177.31 407 177.31 409.79 176.81 413.25 172.57 415.93 172.35 416.45 172.68 417.59 173.56 418.21 173.89 418.93 174 420.63 174.06 421.46 174.16 423.63 174.99 424.14 175.38 424.61 176.04 425.38 177.75 425.64 178.19 426.16 178.13 427.86 177.64 428.59 177.58 429.26 177.86 430.03 178.24 430.7 178.68 431.27 179.24 432.15 180.5 433.39 183.09 434.37 184.31 434.99 184.75 436.18 185.24 436.75 185.63 437.16 186.29 437.78 187.72 438.35 188.33 439.85 188.82 441.6 188.77 443.15 188.99 444.13 190.15 444.86 192.79 446.15 194.11 450.02 196.1 454.31 197.64 455.39 198.8 455.29 199.13 454.77 201.11 449.92 208.11 448.26 209.49 446.4 210.1 444.39 209.76 442.53 208.22 440.93 211.47 436.64 214.62 436.13 216.16 438.5 217.76 441.6 218.58 452.4 218.31 453.43 218.91 455.19 221.45 456.37 222.38 459.26 223.54 460.35 224.42 460.66 225.14 460.87 226.08 460.97 227.07 460.92 227.79 460.4 228.94 459.83 229.11 459.21 229.11 458.59 229.6 458.28 230.71 458.18 232.41 458.23 234.12 458.54 235.22 461.12 236.55 464.33 235.89 467.74 234.67 470.78 234.51 477.5 238.31 477.55 238.97 477.13 239.85 477.24 241.73 478.27 243.33 481.16 245.31 481.73 246.63 481.52 246.96 480.44 247.18 480.18 247.4 480.18 247.9 480.39 248.67 480.54 250.22 480.75 251.21 480.9 252.25 480.6 253.41 480.34 253.69 479.56 254.35 478.58 254.51 476.36 254.24 474.91 254.46 474.55 254.9 474.4 255.62 473.73 256.77 472.02 258.15 467.89 260.74 466.44 262.61 465.98 264.16 466.39 264.65 468.61 264.76 470.06 265.26 470.57 265.75 470.63 266.53 470.47 267.9 469.7 270.55 468.2 271.71 466.39 272.59 464.58 274.3 463.14 274.79 462.11 274.9 461.18 275.18 459.99 276.06 459.01 277.22 458.39 278.32 456.01 284.99 455.34 285.87 454.62 285.98 453.32 285.15 452.71 284.99 451.98 285.21 450.85 286.04 450.18 286.37 448.42 286.53 447.13 286.26 442.84 283.56 440.93 282.67 440.31 282.23 439.28 281.13 438.55 280.08 437.68 279.37 436.13 279.2 434.78 279.53 431.27 281.9 429.88 279.48 427.24 278.54 426.26 277.66 424.09 278.26 420.89 279.15 419.24 279.2 418.88 279.59 418.36 280.14 417.84 281.41 417.22 281.9 415.68 282.18 414.23 281.63 410.61 279.7 409.74 279.42 409.06 279.75 408.6 281.08 408.81 282.12 410.3 286.48 411.18 287.69 413.51 289.18 414.38 289.89 414.85 291.27 414.95 292.7 415.21 294.08 416.09 295.24 415.78 296.23 415.11 296.62 414.28 296.78 413.56 297.28 413.04 298.16 412.73 300.09 412.47 300.92 411.9 302.07 411.85 302.13 411.65 301.85 410.51 301.96 408.75 302.62 407 303.56 405.4 304 404.52 304.77 403.02 307.14 401.88 308.08 399.15 309.35 398.17 310.12 397.55 311.61 398.32 311.94 399.66 311.94 400.9 312.1 401.88 314.09 402.25 314.64 402.81 315.08 404.67 316.13 406.95 317.83 407 317.83 408.6 317.12 410.2 317.01 411.75 317.39 420.12 321.36 423.16 323.56 423.94 324.34 424.2 325.99 424.2 327.48 424.87 328.19 427.04 327.53 428.59 327.92 429.67 328.8 430.65 329.9 431.84 330.89 433.29 331.56 434.58 332 435.76 332.6 437.06 333.81 439.23 337.23 440.15 338 441.5 338.33 443.82 338.06 445.27 338.5 446.51 339.27 447.44 340.26 450.07 344.39 450.95 345.22 453.48 346.71 454.56 347.59 456.58 349.74 457.71 350.57 458.49 350.84 459.94 350.95 460.71 351.23 461.12 351.67 462 353.1 462.57 353.6 463.45 353.98 466.55 354.43 469.44 355.36 470.52 355.47 474.86 355.14 476.82 355.75 477.6 357.84 478.37 358.67 479.72 359.05 481.16 359 482.45 358.61 483.69 358.89 487.46 361.2 489.32 361.92 490.25 361.81 491.13 361.59 492.01 361.48 492.94 361.75 495.06 365.56 496.71 366.71 497.23 367.43 497.23 368.42 497.23 368.7 496.66 370.13 495.88 370.24 495 369.91 494.07 370.08 492.99 371.56 492.01 374.04 490.87 378.62 490.46 382.09 491.29 384.4 493.04 386.17 495.42 387.99 496.71 389.42 496.66 390.47 496.19 391.57 496.24 393.28 496.97 394.38 500.63 396.8 501.05 397.36 501.72 398.68 502.24 399.12 503.01 399.39 503.84 399.28 505.8 399.06 506.16 398.79 506.52 398.84 506.99 399.78 507.14 400.66 506.63 402.7 506.68 403.64 507.5 404.85 508.69 405.73 510.08 406.34 511.27 406.67 511.84 407 512 407.33 512.2 407.44 512.93 406.94 513.24 406.34 513.55 404.52 514.01 403.75 515.35 403.09 516.95 403.2 518.5 403.86 519.64 404.85 520.11 405.57 520.72 407.82 520.72 408.38 520.57 408.76 520.41 409.09 520.36 409.31 520.67 409.59 521.55 409.81 521.86 410.08 523.1 413.01 523.72 413.56 525.01 414.33 525.68 414.99 526.04 415.93 526.35 417.8 526.61 418.63 527.13 419.18 528.94 420.23 529.97 422.43 530.18 422.87 529.25 429.21 530.07 432.02 533.02 434.83 534.98 438.74 536.63 441.17 537.36 442.49 538.28 445.69 539.01 447.01 539.88 447.78 543.86 449.6 546.29 451.31 548.25 453.29 553.16 460.01 554.76 461.78 561.32 470.15 573.87 481.51 575.52 482.44 576.61 482.55 577.48 482 578.57 480.79 578.93 480.13 579.09 479.41 579.5 478.92 580.43 478.86 581.36 479.25 581.51 479.96 581.41 480.79 581.62 481.84 581.98 482.39 583.06 483.55 583.32 484.04 583.27 484.81 582.65 486.13 582.6 486.96 583.01 488.23 585.28 492.2 588.9 495.78 589.67 497.21 589.62 497.71 589.16 498.59 589.11 498.98 590.34 501.62 590.71 502.39 590.91 503.22 591.58 503.77 592.88 504.49 594.32 505.04 595.61 505.26 597.37 505.86 599.43 503.77 600.11 505.15 600.16 506.97 600.26 529.06 600.67 531.05 601.35 532.87 603.05 534.85 604.5 535.79 606.04 536.39 607.03 536.5 608.16 537.05 608.47 537.99 608.16 542.46 608.27 543.39 609.3 546.64 610.49 548.85 612.14 550.23 614.41 549.84 614.41 550.72 614.62 551.11 615.13 551.05 615.91 550.72 616.58 550.17 616.63 550.12 616.79 549.46 616.79 548.85 617.15 548.19 619.22 546.81 620.04 545.93 620.35 544.55 621.95 541.68 623.76 541.74 625.05 543.89 625.26 547.25 624.95 549.95 624.84 550.23 624.64 550.45 624.43 550.83 624.43 551.27 624.74 551.55 625.26 551.33 625.72 551.05 625.98 551 626.91 553.26 627.63 554.3 628.92 555.41 630.78 556.51 631.25 556.95 631.61 557.78 631.87 559.65 632.08 560.2 632.85 560.75 633.83 560.92 636.41 560.81 639.36 561.14 640.44 561.52 640.65 561.58 642.04 562.35 643.49 563.45 644.16 564.5 644.93 568.96 645.4 570.01 645.61 570.29 646.02 570.95 647 571.83 648.14 572.6 649.17 572.88 650.2 573.1 651.39 573.43 653.35 574.8 656.14 578.61 657.9 580.26 659.96 580.92 662.18 580.65 666.37 579.49 667.87 579.49 668.18 579.88 668.02 580.81 668.02 580.98 667.92 582.41 668.28 583.35 668.8 584.01 668.9 584.72 667.97 585.88 666.88 586.93 664.82 590.84 663.68 592.22 662.55 592.77 659.71 593.32 658.36 593.87 653.1 597.45 652.48 597.67 651.8 597.51 651.08 597.18 650.31 596.96 649.38 597.18 648.55 598.06 646.64 602.52 646.54 604.23 647.41 605.45 651.6 608.03 652.37 608.92 652.68 610.13 653.04 613.55 653.35 614.81 654.08 615.97 655.37 617.02 658.21 618.56 659.19 619.5 663.22 627.1 664.15 627.76 664.66 627.43 665.13 626.66 665.9 626.11 666.42 626.06 667.92 626.5 668.38 626.33 668.74 626.06 669.11 626.11 669.52 627.1 669.78 627.76 670.09 628.1 670.55 628.1 671.07 627.76 672.1 628.32 672.31 629.97 672.26 631.9 672.62 633.38 674.01 634.27 677.27 633.72 678.56 634.1 678.82 634.76 678.92 635.09 679.07 638.24 679.59 639.72 680.47 640.77 683.83 643.47 684.96 644.74 685.43 645.89 685.48 647.16 684.91 651.02 684.65 651.57 684.19 651.68 683.83 651.29 683.36 651.08 682.64 651.79 682.38 652.56 682.22 655.26 681.81 656.81 680.99 658.07 680.52 658.51 679.49 659.4 679.13 660 679.13 660.83 679.85 662.32 679.8 663.2 678.92 664.08 677.78 664.19 675.72 663.8 674.48 663.97 673.24 664.36 671.07 665.02 669.67 665.18 668.95 665.9 668.9 667 669.36 668.32 669.26 669.54 669.57 670.64 670.19 671.52 671.07 672.24 672.26 672.9 676.8 676.59 677.42 677.31 677.21 678.19 676.13 679.79 672.98 682.98 672.36 684.09 672.62 685.35 673.39 686.62 673.75 687.83 672.93 688.88 673.39 689.65 674.17 690.31 674.74 691.14 674.58 692.3 673.6 693.18 671.07 697.09 669.88 697.7 669.42 698.25 668.8 700.12 668.54 700.56 668.02 701.33 667.82 702 667.76 702.66 667.87 703.37 667.87 704.03 667.61 704.7 666.63 705.52 665.75 705.52 663.99 704.64 662.6 704.37 661.88 704.03 660.43 702.66 658.41 701.11 657.02 701 655.88 702.11 654.54 704.09 654.13 704.48 653.25 705.03 652.99 705.41 652.84 705.96 652.68 707.62 651.91 709.27 651.29 709.65 650.1 709.43 648.96 709.43 648.34 710.37 647.93 711.8 647.31 713.07 645.25 715.06 642.92 716.71 641.27 717.26 640.44 716.82 639.82 715.83 638.58 714.78 637.6 714.34 637.39 714.39 637.34 714.84 635.12 717.7 633.68 720.18 633.37 720.35 632.38 720.57 631.56 722.66 631.56 723.16 631.25 723.6 630.32 723.87 629.54 723.71 628.15 722.77 627.48 722.55 626.65 722.61 626.24 722.83 625.88 723.21 622.93 724.98 621.8 724.92 620.76 724.48 619.73 723.65 617.72 721.56 615.08 717.59 614.51 716.38 614.15 715.83 613.59 715.22 613.22 714.89 607.75 713.13 606.82 712.58 605.53 711.86 604.08 709.43 603.31 708.94 601.55 708.55 600.88 708.11 600.62 707.34 600.26 704.75 599.95 703.7 598.97 702.11 598.56 701.66 596.9 703.26 596.39 703.54 595.87 703.59 595.51 703.81 595.41 704.64 595.41 705.41 595.56 706.02 595.92 706.4 596.44 706.62 596.44 707.12 595.3 707.07 594.32 706.79 593.5 706.74 592.82 707.12 592.67 707.51 592.51 708.06 592.62 708.61 593.44 709.16 593.13 709.71 592.57 710.21 592.31 710.26 591.53 711.86 589.57 712.69 585.54 713.29 585.02 713.35 584.04 713.68 583.01 713.57 582.29 713.4 577.69 710.37 577.23 709.88 576.55 711.31 575.78 715.55 575.26 717.32 574.13 719.08 572.94 719.79 571.49 719.96 568.86 719.85 567.05 719.47 565.86 719.58 565.04 719.52 564.68 719.52 564.47 719.91 564.26 721.17 564.06 721.56 562.76 721.61 559.46 720.4 557.91 720.13 557.55 721.01 557.45 722 557.55 722.88 557.91 723.76 559.36 725.03 560.23 726.35 560.49 727.95 560.18 729.99 560.8 731.64 561.84 732.69 564.47 734.4 565.61 735.83 567.57 740.74 568.55 741.95 569.79 743.05 570.77 744.21 571.13 745.75 570.62 747.29 569.43 748.34 568.09 749.33 567 750.49 566.07 751.7 566.23 755.56 565.09 756.99 563.59 757.1 559.67 756.06 557.91 755.95 556.05 756.77 554.19 756.99 552.33 756.5 552.02 756.33 550.32 755.34 543.81 749.33 542.52 747.29 541.69 745.03 540.56 743.05 538.44 741.84 537.61 741.78 536.01 742.06 534.93 741.95 533.74 741.4 532.97 740.85 532.19 740.79 531 741.73 530.43 740.24 529.3 738.97 527.9 738.37 526.77 738.81 526.35 738.2 525.84 737.6 525.27 737.1 524.65 736.66 522.53 738.26 521.45 738.92 520.16 739.3 518.4 740.57 516.28 741.29 514.06 741.67 511.89 741.62 510.65 741.45 509.93 741.12 509.31 740.52 507.35 737.65 506.83 737.26 505.69 736.93 505.18 736.66 503.84 735.17 499.34 727.95 498.62 726.3 498.31 724.37 498.31 721.78 499.39 721.83 503.32 720.84 504.71 720.24 505.23 719.63 506.16 717.87 506.68 717.37 507.4 717.48 508.74 718.42 509.72 718.47 510.14 718.14 511.58 716.65 512.15 716.1 513.03 715.83 515.04 715.44 515.82 715 516.13 714.45 516.8 712.52 517.16 711.75 517.68 711.14 519.43 709.43 521.81 706.07 522.74 703.81 522.89 701.39 521.81 695.93 521.96 693.45 522.53 689.65 522.27 688.88 521.45 687.39 521.34 685.57 521.71 683.7 522.27 682.21 522.63 681.94 523.67 681.66 523.98 681.38 523.98 680.94 523.41 679.79 523.36 678.52 523.51 678.02 523.82 677.97 525.01 678.02 525.42 677.86 525.99 676.04 524.75 673.39 525.48 671.85 528.47 669.81 529.2 668.76 527.18 668.32 527.13 668.32 526.2 667.55 523.98 664.19 523.88 663.86 523.88 662.92 523.72 662.54 523.41 662.43 522.43 662.65 522.02 662.54 520.16 660.5 518.5 660.17 517.88 658.79 517.94 656.97 518.19 655.21 518.71 653.55 519.38 652.4 522.43 648.98 524.55 647.16 526.72 645.67 526.97 645.56 527.02 643.3 526.82 641.54 526.51 641.21 525.06 641.49 523.62 641.54 522.07 641.27 520.88 640.44 520.47 638.95 521.14 637.13 522.63 636.09 526.15 634.87 528.83 633.05 529.09 632.78 530.02 631.79 530.49 630.3 530.59 626.83 530.95 625.06 532.76 619.94 533.53 615.7 532.81 611.78 530.69 608.53 527.34 606.22 524.08 605.06 522.43 604.84 519.33 605.11 518.25 604.95 517.32 604.4 516.33 603.41 515.51 602.08 512.56 595.3 511.63 592.22 511.79 589.3 513.6 587.15 515.15 586.49 515.97 585.99 516.44 585.38 516.39 585.11 516.28 584.72 515.72 584.28 514.99 584.01 506.21 581.64 503.11 581.47 502.34 581.36 492.52 577.62 490.41 576.84 488.81 575.52 487.62 573.87 486.9 571.88 486.59 569.74 486.69 566.04 486.43 564.28 485.61 562.68 484.99 562.13 483.54 561.25 482.87 560.86 482.3 560.42 480.8 558.77 480.23 558.22 478.17 557 477.5 556.34 476.98 555.63 476.67 554.75 475.95 552.15 475.33 550.72 474.55 549.34 473.52 548.02 472.28 546.92 468.05 544.5 466.7 543.28 465.93 541.85 465.51 540.14 465.46 538.27 465.77 534.74 466.6 531.27 467.63 528.18 467.74 527.3 467.68 526.36 466.08 519.53 466.03 518.59 466.19 517.88 466.19 517.6 466.7 515.73 466.86 514.79 466.81 513.8 466.55 512.86 465.77 511.15 465.57 510.22 465.31 507.52 464.84 502.67 465.2 500.79 470.11 488.62 470.42 486.8 470.73 482.94 470.57 477.98 470.83 473.96 470.78 472.91 470.57 471.97 468.77 467.73 468.51 467.29 467.94 466.79 466.65 466.02 466.08 465.58 465.57 464.86 464.38 462.49 462.88 460.12 462 459.13 458.39 456.76 456.99 456.21 445.27 449.76 443.1 447.61 440.83 444.8 440.52 444.2 440.05 442.54 439.85 441.99 439.54 441.5 438.45 440.06 436.75 436.48 435.61 434.88 430.65 431.8 430.24 431.41 429.98 431.14 429.36 430.37 428.9 429.48 428.23 426.95 424.87 419.18 424.3 418.35 423.94 417.75 419.24 413.28 418.21 411.96 417.33 410.36 414.13 401.98 410.41 394.99 408.96 393.39 407.1 392.39 405.29 392.18 403.64 392.62 402.19 393.66 400.95 395.15 400.65 395.65 400.39 396.03 400.03 396.25 399.46 396.31 398.27 396.09 397.6 395.26 397.08 394.16 396.31 393.22 395.17 392.39 393.98 391.73 392.74 391.29 391.4 391.07 387.01 390.8 386.03 390.52 381.69 388.43 381.07 387.99 380.4 387.38 379.31 386.55 374.93 385.34 373.01 385.12 371.1 384.63 370.43 384.57 369.35 384.79 368.99 384.79 367.59 384.51 363.46 383.19 362.69 383.14 356.69 384.46 354.83 385.34 353.18 386.61 351.94 388.26 351.17 390.3 351.17 390.85 351.27 391.18 351.48 391.46 351.63 391.95 352.3 392.23 355.45 394.49 355.92 395.21 355.82 395.98 355.14 396.58 354.16 396.91 351.38 397.41 349.72 398.07 347.5 398.46 346.88 398.68 346.21 399.12 345.38 400.17 344.92 401.49 344.45 404.24 343.99 406.01 343.11 407.27 341.82 408.1 340.27 408.65 340.32 408.54 340.37 408.49 340.53 408.16 340.48 408.16 340.17 408.38 339.55 408.65 338.93 409.42 338.51 410.53 338.41 412.07 339.03 416.92 338.67 417.75 337.95 418.3 337.27 419.45 336.4 420.67 335.05 421.22 333.81 420.83 331.49 419.23 330.15 418.9 328.91 419.12 322.4 422.21 321.32 422.87 320.85 423.81 316.46 426.29 313.72 428.99 312.59 429.7 309.9 430.42 308.87 431.08 308.46 432.35 308.87 433.84 309.59 435.05 309.59 435.65 307.94 435.44 304.07 433.45 302.98 433.12 303.03 432.35 304.27 426.95 303.34 423.59 300.92 422.32 294.46 422.26 291.67 421.71 289.19 420.39 287.13 418.57 285.73 416.64 283.46 416.81 281.24 415.6 277.42 412.07 275.66 409.59 275.09 409.2 274.83 408.93 272.51 407.22 271.84 405.84 271.53 404.41 271.06 403.25 269.67 402.43 266.16 402.2 263.99 402.09 263.47 402.54 262.28 403.91 250.87 416.81 249.32 417.3 246.38 415.54 243.43 414.71 242.76 413.78 242.25 413.78 241 414.99 240.38 416.53 239.71 420.06 237.91 425.51 237.65 427.17 230.62 428.6 229.38 429.48 228.76 431.08 227.94 431.96 226.18 430.86 226.18 432.13 226.03 433.18 225.67 434.11 225.2 434.83 223.81 435.38 222.93 435.71 224.58 437.14 223.13 438.25 220.55 439.4 219.06 441 218.75 441.66 218.38 442.27 218.13 442.93 217.97 443.1 217.25 441.55 217.14 441 217.04 440.62 216.84 440.56 216.58 440.73 216.22 441 215.23 441.99 214.1 442.1 212.96 441.99 211.93 442.38 211.46 443.1 211.93 443.31 212.7 443.37 213.12 443.54 213.06 444.03 212.91 444.25 211.57 446.07 211.1 446.24 210.53 446.18 209.6 446.57 201.29 453.79 199.89 455.71 198.34 458.8 197.88 459.46 197 459.85 195.97 460.07 195.19 460.51 195.04 461.78 193.75 463.71 193.34 464.15 192.61 464.59 192.35 464.64 192.04 464.42 189.88 463.49 187.6 462.05 186.36 461.78 185.33 460.34 184.09 459.19 182.7 458.25 181.25 457.48 177.94 456.82 175.21 456.27 174.02 455.27 174.02 453.45 175.05 451.69 177.58 448.61 179.13 444.8 179.29 444.2 179.65 442.71 179.49 441 179.34 440.17 179.49 439.46 179.96 438.96 180.68 438.52 180.78 438.36 180.78 438.19 180.78 438.02 180.68 437.86 180.22 437.25 180.01 436.7 180.16 436.21 180.68 435.71 182.23 435.05 182.64 433.95 182.44 431.14 182.7 429.48 183.26 428.6 185.64 427.17 187.6 425.35 188.79 423.37 189.77 421.16 191.11 418.96 192.1 418.13 194.52 416.53 195.09 415.43 194.83 414.27 193.59 411.19 193.34 409.59 193.59 408.1 194.73 404.96 194.94 403.64 194.63 402.92 194.16 402.48 193.59 402.15 193.18 401.71 192.56 400 192.3 399.45 192.3 396.53 192.46 395.65 192.87 395.1 194.11 393.55 194.37 393.06 193.59 391.9 188.84 389.58 188.22 388.98 186.47 387.21 185.43 385.73 184.92 384.29 185.33 382.64 187.5 380.27 188.07 378.67 188.22 377.79 188.53 377.4 193.34 374.6 194.37 373.55 194.63 372.67 194.57 370.79 194.78 369.97 195.3 369.42 196.59 368.92 197.26 368.53 199.38 366.44 200.36 365.12 200.72 363.85 200.36 362.53 198.55 360.65 198.14 359.11 198.4 357.79 199.53 355.09 199.89 353.65 199.48 348.64 199.59 347.04 200.2 345.55 202.06 343.35 202.79 342.08 203.51 339.38 204.08 338.17 207.28 334.92 206.61 332.44 204.59 330.01 201.29 326.93 200.41 325.93 199.89 324.61 199.74 322.68 200 317.78 198.45 310.78 198.4 310.28 198.55 309.84 198.55 309.35 198.29 308.69 197.88 308.35 196.59 308.08 196.07 307.69 195.66 305.21 196.02 301.8 197.16 298.82 198.86 297.66 200.62 297.17 201.6 295.35 202.01 292.98 201.86 290.94 201.55 289.84 201.19 289.01 200.62 288.35 199.59 287.74 198.34 287.36 197.52 287.58 196.85 288.13 195.97 288.63 194.16 289.12 192.04 289.4 189.88 289.23 187.76 288.4 184.45 286.26 182.8 285.6 180.68 285.37 174.02 285.48 173.56 285.37 173.19 285.43 172.47 285.93 172.16 286.26 171.23 287.96 168.18 291.82 164.72 295.24 164 296.34 163.43 296.12 162.86 295.29 162.19 294.47 161.11 293.81 154.96 291.33 153 291.44 151.4 292.7 150.52 294.14 149.95 295.24 148.61 295.29 146.44 294.63 144.27 293.64 142.98 292.76 142.05 291.77 141.79 290.55 141.79 289.18 141.53 287.8 140.97 286.7 139.42 284.66 138.8 283.61 138.33 282.18 138.18 279.48 137.92 278.15 137.4 277.16 136.63 276.12 136.16 275.45 135.8 274.3 136.11 272.81 137.92 270.27 138.9 268.9 139.73 266.58 140.24 265.81 140.86 265.43 142.31 264.76 142.98 264.32 143.7 263 144.01 261.68 144.37 258.76 146.28 253.41 148.2 247.46 148.71 244.1 148.56 239.8 148.4 238.97 148.09 239.08 147.68 240.19 147.11 240.46 145.87 240.02 144.63 239.19 144.06 238.53 143.81 238.04 142.57 237.49 141.95 237.04 141.69 236.55 141.28 235.39 140.91 234.78 139 232.08 134.66 222.11 133.17 220.35 130.33 219.52 127.59 220.18 125.32 221.78 123.82 223.76 122.94 226.79 122.84 226.96 122.42 227.01 120.72 227.68 120.51 227.84 119.79 228.5 119.84 231.75 118.71 232.97 117.36 232.97 115.97 232.25 114.94 230.93 114.52 229.27 114.68 226.41 114.52 224.97 114.52 223.82 114.73 222.66 115.56 221.61 116.33 220.46 116.64 218.97 116.8 217.15 117.47 214.5 118.45 207.06 119.27 204.14 120.2 201.94 120.2 200.84 120.77 199.51 122.42 197.03 122.84 195.93 123.15 194.56 123.92 193.51 125.94 191.63 127.9 189.1 129.09 188 132.03 187.12 132.96 185.96 133.68 184.64 134.72 183.53 136.11 183.26 142.72 184.36 145.92 185.35 147.68 185.3 150.11 184.41 152.38 183.09 153.05 182.54 154.44 181.44 156.41 179.46 156.41 178.96 154.19 178.46 147.47 179.73 146.08 178.63 146.23 176.97 146.96 173.56 147.11 171.74 147.42 171.35 148.82 170.36 149.23 169.76 149.13 169.09 148.2 166.78 149.59 166.17 152.95 165.4 154.39 164.58 155.27 163.25 159.2 155.7 161.57 145.51 161.68 144.46 161.68 143.52 161.93 142.86 162.91 142.64 163.59 142.64 164.26 142.81 164.88 143.08 165.45 143.52 166.94 144.08 168.65 143.85 171.44 142.64 172.26 141.87 174.79 139.17 175.83 138.78 182.9 134.93 193.44 125.89 194.47 125.34 194.78 124.07 194.63 122.58 195.81 122.64 196.69 124.02 196.8 126.5 195.35 133.38 195.56 135.15 196.12 135.59 198.34 136.8 199.74 137.9 200.05 137.79 200.2 137.79 200.36 138.51 199.43 140.88 198.29 142.59 198.45 143.14 199.12 143.85 199.28 144.19 199.17 145.34 198.4 148.43 199.28 149.42 200.36 151.74 201.08 152.89 202.22 154 203.41 154.44 204.7 154.27 206.3 153.55 209.97 150.96 211.41 150.41 219.99 148.65 221.69 148.71 223.29 148.98 225.87 149.92 226.39 149.97 226.7 150.25 227.01 151.13 226.91 151.9 226.44 152.73 226.18 153.55 226.54 154.33 227.63 154.49 230.62 153.17 232.07 153.17 233.21 154.22 234.55 156.86 235.79 157.74 236.77 157.8 238.27 157.52 239.66 157.08 240.49 156.42 240.59 155.59 240.75 154.77 240.23 153.55 239.97 152.62 241 151.68 242.71 152.01 243.38 151.9 244 151.46 244.47 150.91 244.62 150.52 244.72 150.25 244.78 149.37 244.52 148.32 243.9 147.38 243.07 146.61 242.14 146 238.22 144.52 237.13 143.52 236.56 142.09 236.62 140.66 237.39 137.52 237.7 129.2 238.78 127.38 239.09 125.78 238.06 122.42 238.16 121.04 239.3 120.32 240.95 120.05 242.5 119.55 243.43 118.06 243.28 116.41 242.19 115.69 240.8 115.31 239.66 114.48 239.4 113.6 239.66 111.84 239.56 111.01 239.15 110.29 237.91 109.19 237.6 108.7 237.54 107.37 237.85 105.89 239.35 101.2 239.3 100.37 237.44 98.56 237.03 97.95 236.1 95.86 234.39 93.38 234.19 92.66 234.14 92 233.98 91.34 233.47 90.62 230.78 89.79 229.13 88.75 228.4 87.59 227.94 84.17 227.32 82.46 225.25 78.94 224.53 77.17 224.53 75.36 225.05 73.81 225.41 72.21 225 69.95 224.06 68.47 221.74 65.55 221.53 64.11 222.72 62.57 223.44 61.91 224.22 61.47 225.15 61.41 226.08 61.74 227.01 61.91 227.99 61.41 228.35 60.75 229.38 57.22 229.59 55.9 229.69 55.52 230.99 54.14 231.19 54.03 231.35 52.32 231.24 50.67 231.3 48.96 232.02 47.08 233.1 45.76 234.6 44.33 236.46 43.28 238.58 42.9 239.25 42.9 239.61 42.95 241.83 44.88 244.31 50.5 246.22 52.43 248.13 52.82 248.8 51.71 249.16 50.01 249.89 48.52 251.23 47.97 254.54 47.91 256.14 47.2 257.69 46.97 259.19 47.14 263.83 48.3 264.56 48.57 265.28 49.07 265.64 49.73 265.69 50.5 266.16 51.22 267.04 51.22" style="fill:#efc441"/></svg>