<svg xmlns="http://www.w3.org/2000/svg" viewBox="0 0 800 800"><polygon points="677.62 300.55 695.25 300.4 694.7 306.06 695.04 309.73 693.94 312.89 693.6 315.61 696.07 317.89 706.61 322 711.98 327 713.36 328.25 723.55 333.54 725.41 334.94 726.65 337.14 727.27 340.74 726.79 349.34 726.03 354.11 725.07 357.42 722.03 359.77 712.67 363.59 710.74 365.87 712.19 368.74 714.8 369.84 717.15 371.38 717.63 375.35 717.15 376.96 715.56 380.35 714.87 382.04 714.67 383.58 714.39 386.59 714.05 388.35 707.37 400.33 705.37 405.69 706.95 406.06 708.68 406.43 717.01 402.54 721.28 401.58 725.68 402.61 727.89 404.15 731.81 407.9 734.02 409.37 734.57 411.57 732.71 415.03 730.3 418.7 729.2 421.2 730.92 423.84 740.84 429.72 741.87 432.37 741.94 439.2 742.49 442.43 743.87 444.93 745.59 446.55 753.64 449.86 755.43 450.96 756.05 452.79 755.37 454.12 752.75 456.25 752.13 458.01 752.47 459.48 753.23 460.88 758.46 466.46 759.29 467.71 759.63 469.33 759.29 474.54 759.57 478.07 760.25 481.16 764.32 491.52 764.59 493.13 764.39 495.34 763.84 496.59 763.01 497.54 762.18 499.16 761.29 502.76 760.74 506.29 759.77 509.67 757.71 512.61 753.92 510.4 749.58 511.8 747.86 512.9 745.1 514.52 740.84 516.28 736.63 517.01 735.39 517.6 733.81 519 732.85 520.61 731.95 522.52 730.71 524.51 723.89 528.92 720.73 531.71 720.31 535.31 717.01 540.23 707.02 545.82 704.2 552.5 703.51 559.71 702.62 562.94 701.79 565.22 698.97 565.58 686.3 564.55 682.99 563.75 679.82 562.13 677.34 559.71 675.28 561.76 670.53 565.58 668.6 566.32 665.84 565 659.58 560.51 657.37 559.48 653.31 558.9 640.23 560.29 640.09 560.44 637.88 561.54 632.1 567.57 626.32 576.53 624.32 578.51 616.26 582.04 613.99 582.19 608.62 580.35 605.93 580.13 603.45 581.23 601.32 584.39 595.6 584.03 589.96 582.7 575.98 576.97 569.64 572.93 564.34 564.85 562.07 560.22 559.52 556.91 549.53 549.57 543.34 543.61 537.62 540.45 528.6 535.38 520.96 528.11 518 525.32 512.21 521.86 511.04 520.84 510.14 519.29 508.29 514.15 507.53 512.83 506.29 512.38 500.3 512.83 498.58 512.53 493.55 510.47 486.66 511.5 476.06 509.96 451.96 506.43 448.31 504.23 445.35 499.6 443.56 494.75 442.59 493.28 439.22 490.12 438.25 488.58 437.15 485.79 434.54 476.53 431.92 470.13 430.13 467.56 427.92 466.98 426.55 468.08 426.2 469.69 426.06 471.38 425.44 472.71 424.62 472.85 422.42 472.12 421.38 472.19 412.29 475.57 408.64 476.97 404.65 479.54 396.45 488.87 394.59 490.56 388.74 493.43 385.3 494.68 381.99 493.94 375.66 489.97 372.35 488.87 369.25 489.39 357.13 494.75 354.45 495.12 354.31 495.12 351.28 494.68 347.91 493.06 338.47 486.81 327.38 483.8 326.08 483.43 322.77 483.36 315.82 484.76 312.65 484.32 312.51 483.8 312.65 482.85 312.51 481.74 311.68 480.64 310.86 480.42 308.1 480.79 301.08 480.5 297.84 481.3 291.78 484.32 288.2 484.1 277.8 480.42 270.99 477.92 268.78 477.56 257.08 479.91 255.22 480.86 256.11 482.48 251.09 487.04 245.99 488.06 241.44 485.05 237.86 477.56 235.38 473.15 232.15 471.68 228.57 472.19 225.61 473.96 221.96 476.09 207.7 481.01 206.19 481.23 204.47 480.64 199.99 476.67 197.3 475.5 197.1 475.35 190.62 474.1 160.74 474.98 158.81 474.25 155.02 471.9 153.16 471.09 148.62 470.87 137.46 475.28 135.67 475.94 107.37 487.18 98.49 487.48 94.77 489.09 80.72 498.2 79.14 498.64 74.59 498.79 71.49 500.19 67.77 502.83 64.19 506.14 61.64 509.45 59.92 514.29 59.16 518.48 57.72 521.35 53.66 522.3 47.73 522.38 43.88 523.19 43.88 523.11 43.81 522.45 42.84 516.79 41.47 511.87 36.92 502.32 35.89 499.01 35.41 495.78 35.61 494.82 36.58 491.81 36.78 490.12 36.78 488.43 36.65 487.11 35.61 481.08 35.41 478.07 35.55 475.13 36.44 472.85 37.82 470.8 38.37 469.55 38.85 468.22 39.06 466.53 39.13 463.52 39.61 461.98 38.85 459.41 38.58 456.62 39.2 455.22 40.99 456.69 41.6 458.23 42.16 462.2 43.05 464.04 41.6 466.09 42.29 466.68 43.05 467.05 43.05 469.25 43.05 470.28 41.6 472.27 43.88 474.98 44.77 475.43 45.6 475.13 46.29 474.25 46.56 473 45.46 469.84 45.26 467.12 45.39 464.55 45.81 462.93 45.32 461.83 44.91 459.19 44.43 457.72 43.88 456.62 43.4 455.88 41.6 454.56 40.5 454.12 39.61 454.04 38.85 453.68 38.16 452.5 37.75 450.81 38.02 450.15 38.58 449.49 39.61 443.24 43.19 434.43 44.43 429.5 45.12 416.42 44.7 413.34 44.02 410.62 43.88 408.05 45.12 405.4 53.38 400.77 54.28 399.38 60.96 396 62.81 394.38 66.47 389.6 67.5 388.65 68.74 388.06 71.56 385.86 74.8 383.43 77 380.42 78.93 376.08 80.17 370.57 80.24 364.33 79.96 362.71 78.86 358.6 79.07 356.9 80.03 354.77 80.24 353.45 80.03 343.38 80.24 340.15 80.93 337.43 82.17 334.71 83.75 332.58 85.47 331.78 86.85 330.53 90.64 322.22 97.8 314.29 108.88 296.29 111.91 293.42 116.18 291.51 134.71 290.48 139.05 289.31 158.74 280.49 187.8 267.33 192.07 266.16 194.34 266.01 195.51 265.72 196.75 265.06 198.06 264.62 199.51 264.91 200.54 265.43 200.54 265.57 199.99 265.94 199.51 267.12 198.54 272.92 198.2 279.31 198.61 282.47 199.58 284.75 205.15 291.58 227.53 307.75 234.76 315.24 242.89 321.12 248.12 323.62 251.57 324.28 252.81 324.8 253.15 325.97 253.15 327.51 253.63 329.06 255.84 332.8 256.32 333.61 257.28 336.11 258.11 339.12 258.87 344.56 259.76 347.35 261.21 348.6 262.1 350 264.93 364.25 265.96 366.6 267.4 367.56 269.2 368.15 273.95 372.85 282.28 375.64 290.89 377.04 292.13 377.92 297.02 383.94 297.98 384.61 298.6 385.05 303.35 386.3 309.69 386.81 326.83 383.36 332.96 380.86 335.58 379.76 339.44 377.04 341.3 374.83 342.53 372.78 343.91 371.23 347.84 370.35 351.69 368.22 361.54 362.86 362.37 360.65 364.36 358.89 366.64 357.64 368.36 357.13 368.36 355.44 369.39 354.33 371.8 352.86 378.48 346.47 380.62 342.14 381.44 335.96 381.17 328.84 378.76 309.58 378.55 303.85 378.07 300.4 377.03 298.93 376.42 297.02 376.83 292.98 378.07 287.32 376.83 278.21 376.35 276.15 371.87 269.98 370.49 267.12 370.49 264.32 369.39 256.98 369.12 253.3 369.39 251.32 370.15 249.48 371.11 247.79 375.52 249.26 378.41 249.19 380.75 248.08 381.86 246.47 383.51 242.79 384.75 241.62 388.74 239.85 394.04 235.81 396.04 235.45 403.13 236.03 409.26 235.45 410.78 234.42 412.64 230.16 414.15 228.54 417.25 229.2 419.87 230.6 422.48 230.89 423.58 230.08 425.65 228.54 428.13 227.22 435.84 226.26 438.39 224.87 444.45 219.72 445.83 218.55 448.03 217.37 450.44 216.78 455.12 216.71 457.74 218.18 459.12 221.34 460.01 225.16 461.25 228.54 462.77 229.57 464.35 229.57 467.52 228.17 469.52 226.04 468.83 223.54 466.07 219.35 466.14 216.63 467.45 215.61 469.31 215.83 471.1 217.08 471.79 218.18 472.96 220.97 473.58 221.85 474.48 222.37 475.16 222.22 475.78 221.93 476.82 221.85 480.81 223.69 486.94 229.79 490.86 231.84 494.44 232.51 495.41 233.09 496.3 234.27 496.44 235.08 496.51 235.22 496.58 236.33 497.13 237.5 499.2 239.85 501.47 240.96 503.81 241.25 506.36 241.1 511.73 239.56 512.9 239.19 514.41 239.27 515.93 241.4 516.83 244.56 518.13 247.64 520.68 249.7 541.82 251.24 542.99 251.76 543.75 252.49 544.1 253.96 543.75 254.92 543.13 255.8 542.86 257.27 543.13 260.43 544.03 262.34 555.11 270.05 558.49 273.29 567.99 286.15 571.43 289.53 575.63 291.95 576.87 292.46 584.86 295.26 584.86 295.33 586.58 296.65 589.96 300.62 591.82 302.38 593.33 302.16 594.71 301.13 596.09 300.47 597.05 300.69 598.91 301.8 599.87 302.09 600.91 301.72 601.39 300.77 601.73 299.59 602.35 298.64 605.38 296.43 608.62 294.82 611.99 293.93 619.84 294.23 621.57 293.79 623.63 292.32 624.87 290.11 625.9 287.84 627.49 285.85 629.35 285.19 630.59 285.93 631.69 287.03 633.27 287.32 634.99 286.95 636.78 287.03 640.23 287.98 642.64 289.53 646.29 294.23 648.35 296.21 650.69 297.17 658.82 297.61 674.31 302.31 677.62 300.55" style="fill:#efc441"/></svg>