<svg xmlns="http://www.w3.org/2000/svg" viewBox="0 0 800 800"><polygon points="56.95 317.34 62.23 314.64 63.49 313.91 63.15 309.25 63.84 306.31 68.43 303.5 70.03 300.56 71.07 297.13 71.53 294.44 70.84 290.76 71.41 289.66 75.08 289.17 76.35 288.68 77.27 287.7 77.61 286.11 77.03 283.9 74.63 279.74 74.17 277.9 74.74 277.17 77.72 274.23 83.58 264.43 86.45 263.82 100.22 257.08 101.71 255.74 112.61 240.8 115.6 236.63 140.5 215.57 147.28 211.53 153.7 209.94 155.88 208.96 157.83 207.37 159.56 205.04 181.94 175.89 188.25 170.14 196.17 165.6 197.43 165.12 201.33 164.5 200.87 121.03 201.1 118.82 201.79 117.23 203.28 115.88 207.53 113.31 209.37 111.6 213.27 103.88 215.68 100.58 219.58 98.5 223.02 97.88 236.45 97.88 239.9 97.39 243.22 96.29 246.44 94.21 250.57 89.92 251.03 86.62 249.76 83.06 248.5 77.92 248.85 73.88 251.83 67.02 257 44.98 257.11 35.67 258.95 35.79 260.67 35.43 264.11 33.96 265.49 37.02 268.24 35.3 273.98 29.3 276.74 28.45 279.61 28.45 289.13 31.02 291.66 32.61 292.8 35.3 291.08 43.75 291.89 46.08 294.07 46.94 297.63 46.33 304.4 42.04 310.94 36.53 313.81 34.94 316.45 34.08 319.32 33.71 322.53 33.59 323.33 33.47 325.74 32.85 326.55 33.22 327.35 34.08 328.15 35.18 329.65 34.69 332.63 33.1 336.76 31.75 336.99 30.53 336.53 29.18 336.42 27.71 337.56 26.12 338.83 24.89 339.63 23.3 339.52 21.1 342.38 21.46 344.11 23.91 345.14 26.98 346.17 35.43 346.98 38.61 348.7 41.79 350.99 44.49 351.68 44 351.68 41.43 352.14 37.63 354.21 35.18 357.54 35.18 360.86 36.9 363.04 39.22 363.96 43.02 362.58 45.22 360.29 46.81 358.8 49.14 358.57 52.45 360.06 52.94 362.58 52.33 365.45 52.2 366.83 52.45 368.21 52.2 369.47 51.59 370.27 50.37 371.42 48.9 372.8 50 374.98 53.18 383.36 56.98 386.34 59.18 387.49 60.53 388.41 61.02 386.34 62.37 385.65 62.73 384.51 63.35 383.47 64.33 381.64 66.29 383.24 67.88 384.05 69.72 384.74 71.67 385.65 73.51 386.46 74.25 386.69 75.1 386.46 75.96 385.65 76.7 384.05 79.51 382.9 84.66 383.24 89.56 385.65 91.39 389.67 92.37 391.39 93.23 391.97 95.43 391.97 97.52 394.95 110.5 394.61 112.45 392.77 115.64 392.54 117.72 394.61 115.15 396.33 113.56 398.16 113.8 400.12 116.25 401.03 118.21 401.26 120.05 400.92 121.89 399.66 123.6 399.43 124.09 397.36 131.93 396.9 139.52 398.51 146.99 402.41 154.58 406.77 160.46 408.26 163.52 412.51 169.4 410.67 174.06 408.95 180.42 409.3 186.42 412.85 190.83 411.02 192.3 409.53 194.63 408.61 197.44 407.8 202.22 406.54 204.18 403.56 207.98 404.25 210.43 402.75 214.34 398.97 220.35 395.52 223.16 393.92 224.88 393.23 227.08 393.11 229.53 392.65 231.74 391.62 233.57 389.79 235.16 390.47 235.65 390.47 235.78 391.85 235.04 396.79 230.02 398.62 226.96 401.84 233.08 403.79 234.8 406.31 230.88 407.35 230.63 408.15 230.02 408.49 228.06 409.18 227.45 410.79 227.08 413.54 226.96 415.95 227.33 417.1 227.82 418.59 228.8 419.74 230.26 420.89 233.82 421.92 235.04 424.56 235.53 430.19 233.94 432.82 234.31 435.24 237.86 437.53 249.13 441.66 253.29 442.69 253.41 446.48 253.29 447.4 254.02 447.51 257.08 448.78 258.31 451.99 260.02 452.68 262.47 451.07 268.6 453.02 266.76 454.29 266.27 455.2 266.02 457.62 265.54 459.8 264.8 462.21 262.96 464.27 261 466.57 259.66 469.44 259.9 470.81 259.04 474.49 257.82 475.29 257.82 475.86 255 476.55 254.64 478.39 255.49 479.31 251.33 481.37 252.68 484.59 258.06 486.77 257.82 494.11 254.88 495.95 253.78 496.98 250.1 496.29 246.8 495.03 243.49 494.69 240.43 495.49 238.47 496.98 236.02 500.08 231.98 501.57 230.88 504.33 230.02 505.7 228.67 506.39 227.08 506.62 223.41 507.2 221.69 508.23 220.84 512.93 217.9 515.8 214.59 517.41 211.28 518.1 207.73 517.87 203.57 517.41 202.71 516.72 202.59 516.03 202.22 515.8 201.12 516.15 200.02 517.07 198.18 517.41 197.2 517.75 190.96 518.9 187.28 523.26 181.53 524.64 177.97 544.61 179.08 543.69 185.81 544.73 190.71 547.94 194.75 553.33 199.04 558.38 202.47 565.38 206.26 568.37 212.51 571.81 225.24 573.88 242.76 574.8 246.19 575.83 248.39 578.7 252.68 579.85 255 581.11 260.64 581.91 261.98 583.98 264.68 584.55 266.15 584.67 267.37 584.32 269.58 584.44 270.8 585.01 271.9 587.53 274.6 588.57 276.43 589.03 278.03 589.26 282.44 592.13 299.58 591.67 303.99 590.4 305.58 586.96 308.52 586.16 309.99 585.93 313.17 586.16 316.11 585.93 318.93 583.86 323.95 584.67 325.3 586.04 326.28 586.85 327.26 586.96 329.71 586.62 332.28 585.24 337.67 583.17 342.81 580.76 346.73 565.73 364.73 562.4 368.65 550.35 378.94 548.05 381.88 547.6 381.88 544.84 383.47 544.61 383.59 544.84 383.83 544.04 386.41 543.69 387.14 543 387.63 540.94 388 540.13 388.37 536 394 538.87 394.12 540.48 394.49 544.5 394.37 546.45 394.98 548.28 396.82 553.33 403.92 556.43 405.02 558.5 403.18 559.76 399.88 560.56 396.45 561.37 394.98 562.4 395.71 564.35 398.41 569.63 401.47 571.81 404.16 571.58 405.14 570.32 406.25 569.52 409.31 569.75 410.9 571.35 414.21 571.7 415.68 570.89 417.27 569.29 418.13 568.71 419.23 570.66 421.43 572.5 419.59 574.57 418.74 576.63 418.74 578.35 419.59 580.53 417.63 582.26 418.37 583.98 420.33 585.7 422.04 586.5 421.92 587.08 421.19 587.76 420.57 589.03 421.31 589.83 422.78 590.06 424.25 590.06 425.47 590.29 426.21 591.78 426.82 604.75 429.88 606.82 430.74 608.65 431.84 609.69 432.7 611.18 433.31 613.93 433.19 616.23 432.57 619.9 430.37 621.85 429.51 629.66 428.41 634.25 428.29 637.12 429.02 639.87 430.98 650.66 433.68 651.58 433.8 652.27 433.56 653.07 433.31 654.1 433.68 654.45 434.29 654.79 436.37 655.48 437.23 662.83 443.6 665.47 447.03 665.92 449.48 663.63 456.33 662.94 460.13 662.48 464.17 662.94 467.85 664.78 470.29 664.78 469.44 666.38 468.58 668.56 467.97 670.05 468.09 671.66 469.68 672.35 471.27 672.92 475.44 673.38 476.05 674.3 476.3 675.22 476.79 675.56 478.01 675.22 478.87 673.61 479.85 673.27 480.58 673.15 485.73 673.38 487.07 675.56 490.01 682.11 493.69 684.17 495.77 687.16 500.3 689.57 498.95 691.52 495.4 693.35 493.07 694.39 494.05 696.22 496.26 698.75 498.34 701.73 498.83 701.96 499.56 705.4 501.52 705.86 501.64 709.54 503.36 710.34 504.46 708.96 506.42 710.23 507.52 712.52 510.46 713.67 511.2 715.62 510.22 717.68 508.38 718.95 507.77 718.37 510.83 721.01 511.32 722.16 513.65 722.97 516.22 724.57 517.2 725.83 515.85 726.64 512.91 727.21 507.65 732.61 510.1 733.29 516.34 732.26 523.93 732.03 530.55 735.13 544.63 737.31 549.28 740.87 556.88 743.05 559.82 739.49 559.2 738.34 561.41 739.15 564.84 741.44 567.9 738.12 568.14 736.97 568.02 738.69 569.86 739.03 570.1 738.12 571.57 736.16 573.29 734.9 575.86 735.02 582.59 734.33 584.55 731.92 583.21 732.03 586.02 732.61 589.21 733.75 592.39 735.36 594.72 737.88 596.31 739.61 595.94 740.87 596.19 741.79 599.49 742.25 603.04 742.13 605 741.1 606.84 739.03 609.9 738.69 611.13 738 614.07 737.2 615.17 735.59 615.9 735.13 615.29 735.13 613.94 734.67 612.72 734.44 611.86 735.36 610.88 735.59 610.27 733.64 609.9 733.29 610.39 728.93 612.84 727.67 614.56 726.98 616.15 725.14 622.03 726.52 630.48 726.41 633.54 725.49 636.72 720.9 645.42 718.6 644.44 715.73 644.32 712.98 645.78 710.91 648.97 710.46 652.03 711.83 662.44 711.6 666.36 712.75 668.81 714.36 671.13 715.27 674.56 715.27 677.38 714.59 677.26 713.21 676.15 711.03 675.91 705.86 680.32 705.86 682.03 707.01 687.54 706.78 689.5 705.86 693.3 705.86 694.65 705.86 694.89 706.67 696.97 707.93 698.2 709.19 699.3 710.23 700.53 710.68 702.24 711.49 711.55 710.68 749.88 710.91 751.47 711.37 753.18 711.72 755.02 711.37 759.55 712.52 763.11 712.75 764.82 712.29 766.66 710.57 769.96 710.34 771.8 711.26 773.88 716.77 777.92 707.93 778.9 705.4 778.53 701.5 776.82 699.32 776.33 687.96 776.33 686.58 775.84 685.78 774.49 685.21 773.27 684.52 772.66 681.76 772.53 675.22 769.72 673.15 768.37 671.2 766.53 670.17 764.57 669.25 762.13 667.76 760.16 662.71 758.45 658.69 755.14 656.86 754.29 654.1 753.92 652.38 753.06 651.12 751.84 649.51 750.74 646.53 749.39 639.18 747.31 633.44 746.45 622.88 742.04 602.57 739.35 596.6 737.26 589.37 728.69 586.73 727.35 583.52 726.61 566.19 720 547.6 705.91 537.84 700.16 514.54 690.97 509.26 688.03 497.56 677.38 493.19 674.44 488.03 671.87 486.31 671.5 482.75 669.91 477.7 669.05 473.57 667.71 469.67 665.75 466.68 663.42 467.26 663.05 467.37 662.93 467.37 662.68 467.71 662.07 460.37 659.99 454.52 656.19 444.88 647.38 442.24 645.54 436.38 642.6 431.22 638.44 428.12 637.33 425.36 635.74 423.18 632.56 425.36 632.56 423.07 629.37 419.74 627.29 416.07 625.82 412.74 623.99 393.11 604.39 391.97 601.7 390.13 595.21 388.64 592.02 386.92 590.19 384.16 588.23 381.29 586.63 378.77 585.9 378.31 585.65 373.6 584.67 372.57 584.67 372.34 582.96 374.29 580.27 374.75 578.55 372 574.27 355.24 563.86 330.91 538.87 307.84 518.67 301.87 511.56 300.61 510.46 297.74 508.63 296.71 507.28 296.25 505.44 296.94 503.24 296.71 501.03 295.1 498.34 292.46 496.01 289.48 494.3 286.95 493.69 285.12 492.58 273.29 482.66 266.41 474.58 257.45 468.7 254.47 467.23 248.04 465.88 245.17 464.05 243.34 461.72 243.8 459.27 245.4 460.25 246.67 460.38 247.7 459.64 248.5 458.05 245.17 457.19 242.76 455.23 240.58 452.78 238.06 450.7 232.66 447.15 229.91 445.8 226.58 445.68 226.58 447.03 235.3 451.8 239.09 455.11 240.35 459.27 237.83 455.97 233.24 452.9 227.84 450.58 193.87 441.64 172.29 429.88 168.97 426.7 170.23 423.63 171.03 425.11 171.95 426.08 173.1 426.82 174.94 427.31 172.18 422.29 171.61 418 173.21 413.96 177.12 409.92 174.71 409.92 172.98 410.41 171.61 411.27 170.23 412.49 166.21 403.8 160.7 397.55 154.16 392.9 127.76 377.59 97.69 366.08 77.49 356.52 73.94 351.87 73.71 344.77 74.74 340.73 74.97 339.14 74.97 336.69 72.67 332.15 72.1 331.3 69 330.32 65.67 328.11 62.8 325.54 61.2 323.83 56.95 317.34" style="fill:#efc441"/></svg>