<svg xmlns="http://www.w3.org/2000/svg" viewBox="0 0 800 800"><polygon points="131.65 31.95 132.61 32.19 134.22 32.81 134.93 33.25 135.51 34.69 136.25 35.28 137.76 36 143.44 36.92 145.18 37.57 144.22 36.51 141.16 35.52 140.36 34.49 142.64 35.76 147.69 37.44 158.68 44.43 160.6 46.49 162.4 47.04 165.43 49.03 169.15 50.84 171.21 51.43 189.14 53.35 193.58 53 205.31 49.54 207.23 48.68 208.74 47.45 209.55 46.97 210.64 46.76 213.89 46.63 218.32 47.45 218.87 47.69 219.35 48.13 228.64 53.11 230.79 53.62 238.76 53.28 240.78 53.59 244.8 54.79 248.37 56.37 257.01 57.87 257.46 58.05 258.3 58.83 258.59 59.01 259.39 59.35 261.09 61.06 263.66 62.74 267.75 66.27 269.87 68.57 270.8 68.95 278.41 70.25 279.15 70.66 279.89 71.28 281.95 72.45 282.88 72.75 291.53 73.13 301.1 74.85 303.22 75.64 304.25 75.81 304.93 76.15 306.66 78.52 308.37 79.55 309.01 80.16 309.43 82.19 309.84 83.32 310.84 85.37 312.83 88.12 313.09 88.97 313.02 90.14 312.61 92.13 312.48 94.39 312.38 95.69 312.67 99.74 313.09 101.73 318.75 116.41 319.87 118.43 324.95 125.7 328 128.99 331.47 131.73 344.74 137.97 359.49 140.65 376.85 140.82 386.87 143.05 397.12 146.62 405.13 148.4 406.76 148.4 407.21 148.6 407.54 148.84 409.27 149.74 410.59 151.04 411.1 151.35 411.52 151.52 418.43 153.61 422.09 155.39 426.05 156.76 429.45 157.38 430.06 157.93 431.35 159.92 432.22 160.71 433.12 161.15 437.33 162.11 444.78 165 446.32 165.92 447.61 167.16 451.75 172.09 463.23 180.73 465.8 183.72 467.21 184.99 470.33 186.7 472.29 187.11 473.19 187.56 480.03 192.08 481.99 192.94 486.17 193.59 490.35 193.66 494.75 193.15 497.19 192.43 499.38 191.78 503.17 189.89 508.41 186.39 509.37 185.95 511.46 185.57 512.43 185.05 518.66 180.12 526.41 170.65 528.5 166.98 529.62 165.41 531.32 164 532.16 163.18 535.12 156.76 537.33 150.66 537.59 148.33 537.33 141.2 536.47 139.76 535.28 136.12 534.31 134.58 532.25 132.42 531.48 131.25 528.33 122.27 528.04 119.94 528.01 117.5 527.82 116.61 527.02 114.52 526.73 113.49 526.57 111.19 526.66 108.66 527.37 104.03 528.01 101.94 527.88 101.39 527.69 100.77 527.63 100.15 527.85 99.64 528.43 98.78 532.71 89.69 533.8 88.01 542.73 78.93 543.47 77.76 545.72 75.02 546.68 74.47 548.55 73.65 549.38 72.93 549.99 72.28 556.87 66.79 567.83 62.02 574.29 57.6 579.78 54.82 581.94 54.31 590.84 54.89 592.96 54.68 596.85 53.62 598.74 52.56 605.97 45.98 606.65 45.63 608.93 45.46 611.02 44.84 612.3 45.94 614.36 46.8 616.64 47.31 618.57 47.48 628.86 46.39 629.08 46.22 629.59 45.39 629.82 45.22 630.85 45.02 631.36 44.98 631.91 45.22 632.29 45.53 632.36 45.84 632.36 46.22 632.55 46.76 634.03 48.34 635.96 48.75 640.26 48.68 642.13 49.34 646.75 52.87 647.65 53.42 648.46 53.76 649.33 53.96 651.51 54.14 662.47 57.46 665.04 59.18 665.88 59.42 666.39 59.52 667.96 60.14 668.58 60.24 670.18 60.14 671.27 60.48 673.24 61.51 675.36 61.82 676.25 62.19 676.87 62.78 676.96 63.57 676.71 64.15 675.87 65.18 675.71 65.69 676.16 69.09 676.61 69.94 677.32 70.63 678.28 71.21 677.89 72.31 677.32 75.81 676.38 75.43 676.54 74.92 676.45 74.44 676.13 73.99 675.71 73.54 675 78.1 675.07 79.24 675.77 79.82 678.63 80.95 679.69 81.16 680.43 81.6 681.37 82.67 682.1 83.9 682.72 85.55 683.36 85.92 684.1 86.16 684.67 86.5 685.06 87.12 685.48 88.32 685.93 88.77 685.86 87.84 685.32 85.37 686.22 85.72 688.27 85.75 688.69 85.92 690.01 87.02 690.3 87.23 696.21 87.74 702.74 87.64 710.74 89.52 718.16 92.61 717.07 93.71 716.84 94.12 717.23 94.36 718.45 94.87 721.41 97.2 722.5 97.51 731.43 97.41 743.87 98.3 748.11 97 749.14 96.24 749.69 96 751.58 96.42 751.97 96.28 752.32 96.07 752.67 95.97 753.06 96.21 753.25 96.38 753.83 96.72 754.47 96.89 755.41 97.38 756.92 97.65 758.84 98.4 764.31 99.6 766.01 100.63 766.75 102.45 766.33 104.68 766.2 105.88 766.56 106.87 768.16 108.69 770.67 112.36 770.89 113.32 771.6 114.86 772.5 116.51 772.34 116.68 772.25 116.89 769.32 119.25 768 121.14 766.3 125.87 758.65 132.18 758.07 133.93 758.07 135.95 758.52 140.58 758.59 145.14 759.68 151.04 760 152.14 761.64 155.56 762.25 158.38 764.31 162.8 764.95 165.03 764.63 166.95 763.92 168.84 763.34 171.03 762.86 174.05 761.45 177.85 761.29 178.95 760.84 180.8 759.94 182.69 757.17 186.91 755.76 188.38 754.47 190.03 754.06 190.78 753.25 192.67 751.33 196.23 750.55 198.15 750.55 200.28 750.97 201.48 752.29 203.88 756.34 214.17 756.53 215.4 756.5 216.5 755.7 219.34 756.02 221.61 758.43 225.76 759.1 227.99 759.1 229.32 758.68 233.3 758.78 235.39 759.26 237.31 763.15 246.88 763.95 249.83 764.31 252.95 764.31 259.7 764.31 268.82 764.31 290.53 764.31 311.96 764.31 316.18 764.31 335.24 764.31 337.33 764.31 345.56 764.31 363.77 764.31 368.57 764.31 378.76 764.31 389.28 764.31 404.95 764.31 420.63 764.31 436.26 764.31 451.86 764.31 467.43 764.31 483 764.31 498.53 764.31 514.07 764.31 529.56 764.31 545.03 764.31 560.46 764.31 575.89 764.31 591.32 764.31 606.68 764.31 622.04 764.31 637.4 764.31 643.96 764.27 650.5 764.27 657.02 764.27 663.57 764.27 670.08 764.27 676.63 764.27 683.15 764.27 689.66 764.27 696.18 764.27 702.69 764.27 709.21 764.27 715.72 764.27 720.7 764.27 725.63 764.27 730.61 764.27 735.58 764.27 741.37 764.27 741.72 764.21 741.78 764.18 741.89 764.12 741.96 764.08 742.02 763.99 742.06 763.89 742.06 763.76 742.06 763.66 742.09 758.94 742.09 752.1 742.09 746.34 742.09 740.5 742.06 734.23 742.06 728.93 742.06 724.91 742.06 717.36 742.06 717.36 748.57 717.36 755.05 717.36 761.57 717.36 768.05 711.54 764.86 705.76 761.71 699.97 758.52 694.15 755.36 688.37 752.17 682.55 749.02 676.77 745.83 670.95 742.64 665.17 739.45 659.35 736.3 653.57 733.11 647.78 729.92 641.97 726.73 636.18 723.58 630.37 720.39 624.58 717.2 618.76 714.01 612.98 710.82 607.16 707.63 601.38 704.44 595.6 701.25 589.78 698.06 583.96 694.88 578.18 691.69 572.39 688.5 566.58 685.31 560.79 682.12 554.98 678.93 549.19 675.74 543.41 672.52 537.59 669.33 531.8 666.14 525.99 662.95 520.2 659.73 514.39 656.54 508.6 653.35 502.79 650.13 497 646.94 492.21 644.3 491.19 643.75 485.4 640.53 479.62 637.34 473.8 634.11 468.01 630.92 462.2 627.7 456.41 624.51 450.6 621.29 444.81 618.07 439 614.88 433.21 611.65 427.43 608.43 421.61 605.24 415.83 602.02 410.01 598.79 404.23 595.57 398.41 592.38 392.63 589.16 386.84 585.94 381.02 582.71 375.24 579.49 369.42 576.27 363.64 573.04 357.82 569.82 352.04 566.6 346.22 563.37 341.95 560.97 340.98 561.11 338.89 562.17 336.19 563.58 333.5 564.95 330.8 566.32 328.1 567.73 325.37 569.1 322.67 570.47 319.97 571.88 317.23 573.25 314.54 574.62 311.83 576.03 309.14 577.4 306.4 578.77 303.7 580.14 301.01 581.51 298.31 582.92 295.57 584.29 294.77 584.7 294.74 584.74 286.7 589.3 278.67 593.86 270.64 598.42 262.6 602.94 259.65 604.66 258.91 604.73 258.23 604.35 256.08 602.4 250.23 596.94 244.35 591.53 238.47 586.11 232.59 580.66 229.95 578.22 224.46 575 219.7 573.8 215.56 572.77 211.41 571.71 207.27 570.68 203.12 569.65 198.97 568.59 194.83 567.56 190.68 566.53 186.54 565.47 182.39 564.44 178.28 563.41 174.1 562.35 169.99 561.32 165.84 560.25 161.7 559.23 157.55 558.2 153.41 557.13 149.81 549.59 146.53 542.66 141.26 531.55 141.19 531.42 137.82 524.28 134.54 517.42 133.35 515.78 131.81 514.92 129.85 514.24 114.97 509.16 103.76 505.32 94.82 502.24 93.79 502.03 92.77 502.17 87.59 504.15 82.1 506.25 80.27 506.45 79.36 506.08 73.19 500.93 72.36 499.97 71.75 498.12 70.94 493.15 70.05 491.71 63.07 487.49 62.49 486.05 62.4 478.68 62.17 471.13 61.98 464.11 61.34 460.71 59.54 457.31 52.37 446.99 46.62 438.7 39.45 428.38 32.87 418.88 31.77 415.89 32.93 413.36 33.57 412.5 34.44 410.37 36.05 408.8 36.46 408.04 36.62 407.12 36.69 406.05 53.27 397.89 54.14 396.83 56.1 389.9 56 388.77 55.46 387.26 55.62 385.41 56.77 379.68 56.58 378.89 55.84 378.24 53.75 377.04 53.24 376.56 52.79 375.5 51.89 369.88 47.9 355.48 47.9 354.58 48.13 353.73 48.9 351.6 49.54 348.41 50.22 347.25 52.24 344.98 52.6 343.95 52.15 342.82 51.44 341.59 51.31 340.49 52.47 339.6 53.78 338.88 54.56 337.81 57.74 327.01 57.9 326.53 57.96 324.41 51.12 305.82 50.51 302.7 52.85 283.6 54.01 274.52 53.85 264.16 52.82 255.86 49.09 242.76 45.37 229.63 39.84 219.04 33.83 209.91 31.39 206.93 28.59 203.57 27.5 201.75 38.42 195.62 48.93 189.99 50.31 189.62 53.75 189.41 54.94 188.69 60.76 181.04 65.74 172.92 70.01 168.01 72.91 161.91 73.64 159.68 73.64 157.83 72.49 153.99 72.26 152 72.52 149.91 72.46 148.88 70.98 145.72 69.56 139.9 66.06 130.43 65.96 129.47 66.48 125.87 67.22 124.57 70.21 121.21 73.36 115.55 75.8 113.59 81.07 113.66 83.64 112.63 84.41 112.02 85.08 111.3 85.66 110.47 86.44 108.55 88.43 106.7 89.04 104.85 89.42 100.39 90.48 99.26 91.35 99.36 92.22 99.88 93.06 100.22 93.99 99.91 95.56 98.64 97.27 97.58 98.81 96.04 100.7 91.61 101.96 90.21 116.48 83.25 128.76 77.32 132.04 75.12 132.61 74.57 133.58 73.65 134.41 71.93 134.25 69.57 133.16 67.58 130.01 64.46 129.05 62.3 129.01 59.24 129.69 53.35 129.37 47.55 130.2 43.78 130.24 40.63 130.33 39.77 131.68 34.45 131.65 31.95" style="fill:#efc441"/></svg>