<?xml version="1.0" encoding="UTF-8"?><svg id="Lichtenstein" xmlns="http://www.w3.org/2000/svg" viewBox="0 0 720 540"><polygon points="357.99 135.68 362.99 139.37 365.7 135.68 372.37 139.67 374.25 143.36 380.08 144.89 381.54 145.81 385.09 150.41 390.72 158.09 394.88 168.21 403.43 175.58 403.01 177.11 402.18 179.26 401.35 179.57 397.8 190 397.38 195.52 395.09 197.05 386.34 205.95 387.17 211.16 387.8 230.48 388.63 231.4 387.17 237.54 378.21 243.06 375.5 248.27 378.63 249.19 389.26 250.11 396.13 246.73 413.23 260.53 420.73 263.9 426.15 271.57 425.73 276.78 429.28 282.3 429.49 286.89 430.94 289.35 433.03 292.1 437.82 295.48 441.58 295.78 445.12 295.78 450.12 291.8 454.08 287.2 456.17 288.12 458.04 296.39 461.79 298.85 457 308.65 460.54 314.78 459.5 321.52 460.13 326.73 474.72 336.23 470.13 344.2 460.13 355.84 459.71 357.67 460.13 360.74 460.13 362.57 458.25 368.09 454.91 372.07 456.37 376.97 460.33 378.5 465.75 378.81 465.13 382.79 468.05 384.62 473.47 391.97 475.55 404.22 474.93 414.02 472.22 422.9 472.42 428.72 458.25 430.86 451.37 440.04 441.58 437.28 439.91 446.47 444.08 454.12 444.08 458.1 441.16 463.6 441.85 468.01 435.13 476.01 433.92 475.54 429.31 473.62 424.78 479.43 422.33 479.15 419.7 479.43 417.06 482.74 413.48 483.3 407.82 487.72 398.4 492.43 394.63 489.94 386.34 492.98 382.01 492.7 375.41 496.3 368.44 501 364.48 500.17 360.72 497.13 359.02 483.85 356.95 479.98 354.68 477.77 351.48 474.72 348.47 473.06 347.52 471.4 345.83 468.92 339.99 466.98 326.04 471.68 308.33 475.83 303.62 482.19 300.04 483.3 289.67 484.68 284.21 482.47 282.33 487.72 280.06 488.55 272.9 483.57 264.8 495.19 264.24 498.79 261.79 499.06 258.96 492.15 258.77 484.68 250.29 488.28 249.92 494.64 244.45 475 244.45 471.68 245.2 468.92 248.41 465.04 256.13 458.96 269.7 451.76 304.37 422.15 305.69 419.11 311.35 400.29 312.66 393.37 312.1 387.55 307.58 360.98 301.92 330.51 296.84 311.12 293.25 302.81 283.64 288.4 272.34 266.23 268.57 250.16 264.42 232.97 263.67 228.26 263.48 225.49 266.31 206.91 269.7 190.55 282.14 165.31 282.7 163.64 284.02 153.1 285.91 143.95 287.98 138.67 296.65 123.97 312.1 96.22 324.54 59.29 325.38 56.45 325.94 53.13 325.92 42.23 326.16 39 335.25 47.85 339.86 51.25 339.86 59.23 348.19 65.99 352.36 67.52 362.99 77.35 364.45 79.81 368.2 81.04 369.45 83.49 378.21 98.23 378.63 102.53 375.08 107.44 365.08 121.56 357.99 135.68" style="fill:#efc441; fill-rule:evenodd;"/></svg>