<svg xmlns="http://www.w3.org/2000/svg" viewBox="0 0 800 800"><path d="M743.49,307.83l1.21,4.5.52,5.05-.35,5-1.2,4.14-2.41,3.3-3.1,3-2.5,3.4-.52,4.5,2.33,4-.35,2.21-4.47,3.85-1.12,2-1.64,7-.86,1.84-3,4.69-1.2,3.49.51,1.92,2,1.2,7.49,2.39,2.15.09,7.58-1.75,20.91,3.13,2.84,1.93,1.21,3.12-1.46,3-3,1.93-3.18.73-4.91,1.1-1.89,1-3.62,3L749.35,395l-.86,1.93-.78,5.24-1.46,5.42-1.89,2.75-2.76.37-13.34-5.05-1.72.18-1.12.92-.69,1.1-.78.74-1.29.37h-1l-13.94-3.13-5.69.83-4,5.33-.35,2.11.17,4.68-.26,2.21-.6,1.65-4.65,8.54-2.15,2.94-2.15,2.76-1.89,1.74-4.48,2.21-15.32,2.75-2.33-.09-4.56-.92h-2.32l-4.74,1.65L651,445.33l-.43,1.37-.26,1.75-.77,1.93L646.83,453l-2.93,1.93-2.49,2.3-1.3,3.49.18,1.65,1.12,3.67.08,1.56-.6,1.57-.6.36h-.86l-1.21.55-2.75,2.12-1.38,1.65-.35,2.48.44,9.46-.26,1.93-.43,2-.69,1.65-.52,1.84-.17,2.39.86,3.67,3.1,6.61.69,3.59-.6,3.67L634.35,516l-2.41,2.11L624.28,522l-1.9,2.2L621,528l-.61,4.87.09,3.86-.43,3.58-2.24,4-5.77,6-2.41,4-.17,4.68,1.72,2.39,2.76.92,5.42-.37,7.57-3.4,1.9-.36,1.72.82.69,1.47.43,1.84,1.29,3.31.52.64.51.09,1.38-.37.6.09,1.21,1.2,1.12,1.38.94,1.65.86,2,.52.55.69.28.6.36.35,1.11-.35.82-1.46,1.75-.35.82-.17,8.45-.94,2.94-2.93,1.84-1.46.18-4.74-.55-1.38.55-2,2.39-1.29.65-2.75.09-11.19-1.56-3.36-1.47-2.84-2.3-1-3.31.86-1.37,3.62-1,.95-1.38-.69-1.56-3.1-1.47.34-1.84L608.7,576l2.92.18,1-.73-8.87-10.38-.6-1-.78-.74-1.63-.37-3.19,1.38-5,6.34-3.1,1.74-10.33.46-8-2.38-2.24.27-1.55,2.39-2.58,8.72-2.07,3.86-5.16,5-5.51,3-5.6.83-10-3.31-5.77-.73-5.77.55-.69.37-3.7,1.93-.51,1.1V596l.17,1.19-.09.74-2.32,1.28-1.12,1.2-.78.09-.25.55.6,2.85,1.46,3.95,1.72,3.21,1.12,3.49-.26,5v.09l-1.63,3.12-2.24,1-8.09,1.19-2.32-.18-1.9-1.57-1.63-3.58-.43-.27-.43-.1-.52.1-3,2-8,1.28-6.37,3.22-14.37,11.11-4.57,2H460.3l-4.05-1.1L452,638l-2.41-.36-1.37-1.75-2.16-5.33-3.52-3.67-4-1.19-4.14.64-7.74,3.58-3.79.92-8,.09-2.06-.46-3.7-2-2-.73-1.9.36-9.64,4.78-.94.09-1-.27-2.32-1.11-.86-.18-1.9.64-2.23,1.38-7.84,1-6.19,2.3-2,.09-2.16-.64-11.27-5.88-4.31-1,.52-1.1.09-1-.43-.92-.69-.83-1.38-.92-1-1.28-.52-1.75.09-1.93.6-.82.69-.74,1.55-1.1,1.89-2.85-.08-4.13-1.81-8.54-1-4-1.38-4.14-1.8-3.67L345.9,587l-1.12-.65-2.75-.64-1.29-.73-1.12-1.38-2.33-3.77-1.2-1.65-2.33-1.75-2.49-1.83-10.16-3.31-4.82-2.48-7.75-5.6-2.32-1-2.5.46-3,1.1-2.93.09-2.24-2.76v-1.92l.78-2.12.43-1.74-.78-1-4.3-.46-1.46-.83-.78-1.19-.51-1.47-.78-1.47-1.29-1.1-1.29-.28-2.84.46-1.38-.09-7.57-3.4-2.67-.28-3.1,1.29-.17.28-3.19,5-2.41,1.65-7.57-11.57-3.36-6.34-.69-7.26.86-14.42,2.76-8.81.6-3.4-.17-2-.78-4.23v-1.83l.52-1.38,2.75-3.49.09-.74-.34-.82-.26-.83.26-.92.43-.37,1.11-.18,1.3-1,2.23-1,1-1,1.72-2.48,3.87-2.48,1.9-1.74,1.63-3.22.35-3.31-.52-3.49-1.89-7.53-1-2.29-1.55-1.57-7.49-3-1-1.47,1.38-2.48-1.64-.55L257.5,444l-.95-1.29-.77-.73-1.21-.37-7.06.09-2.06-.92L244,438.44l-1.72-4.13-2.06-8.45-1.38-3.77-1.21-1.19-.77-.74-3-1.47-13.17,3.4-20.92-2.2-2.41-.28-13.6,3-1.64,1.47-1.46,1.65-2.32,1.47-2.84.28-3.45-.92-2.75-2-1.12-3.12v-3l-.43-2.12-1.55-.92-3.27.28-3.27,2.2-1,.37-1.29-.37-3-1.74-4.48-1-2.41-1.38-4.3-3.12L134.41,409l-2.16-1.57-2.15-2.48L121.24,399l-5.17-2.12-12.65-.36-4.56-3.13L91,382l-3.87-3.3-3.1.45-10.41,7.26.25-.92-.6-4.31v-1.38l.78-.74.94.28.86-.09.78-1.84-.26-1.56-.86-2.21-1-1.93-.86-.82-1-.83-.43-2,.08-4.22-1.29-.19-7.31,6-.69-1.47v-.36l.34-.19,4.82-9.37,1.12-1.47,1.89-2v-4.59l-1.46-7.53L68.21,337,68,335.48l-.52-.65-1.2-1.1-1.21-1.56-.6-1.74.17-2.3.18-1.47.08-1.47-.43-1.93-4.65-10.65-.94-3.31-.35-3.49-.86-1.93-5.16-7.71-1.3-1.2-1.11-.55-.78-1.19-.6-4.69-1.12-3.67-2-16v-8.27l.26-2.11,1.2-2.57.26-1.75V237.93l-.69-6.61,4.82-1,7.41-.09L64,229l1.81-3.59,1-5.23,2.15-6.06L72.09,210l4.47-4.13,4.65-3.31,3.87-1.74,5.68-.19,2-.55L110.3,188.7l4.65-2,11.11-.36,35.37-14.06,2.24-.82,14-5.51,5.68.27,2.32,1,4.74,2.94,2.41.92,37.35-1.1,8.1,1.56.25.18,3.36,1.47,5.6,5,2.15.74,1.89-.28,17.82-6.15,4.56-2.67,3.7-2.2,4.48-.64,4.05,1.83,3.09,5.51,4.48,9.37,5.68,3.77,6.37-1.29,6.29-5.69-1.12-2,2.32-1.2,14.63-2.94,2.76.46,8.52,3.13,13,4.59,4.47.27,7.58-3.76,4-1,8.78.37,3.45-.46,1,.27,1,1.38.18,1.38-.18,1.19.18.64,3.95.56,8.7-1.75,4.13.09,1.64.46,13.85,3.77,11.8,7.8,4.22,2,3.78.56h.17l3.36-.46,15.15-6.71,3.87-.64,4.14,1.38,7.92,5,4.13.91,4.3-1.56,7.32-3.58,2.32-2.11,10.25-11.67,5-3.21,4.56-1.75,11.36-4.22,1.29-.09,2.76.92,1-.19.78-1.65.17-2.11.43-2,1.72-1.38,2.75.73,2.24,3.22,3.27,8,3.27,11.57,1.38,3.49,1.21,1.93,4.21,3.95,1.21,1.84,2.24,6.06,3.7,5.78,4.56,2.76,30.13,4.41,13.25,1.93,8.61-1.29,6.29,2.57,2.15.37,7.49-.55,1.55.55.94,1.65,2.33,6.43,1.12,1.93,1.46,1.29,7.23,4.32,3.7,3.49,9.56,9.09,11.27,6.34,7.15,4,7.74,7.44,12.49,9.18,3.18,4.13,2.84,5.79,6.63,10.1,7.92,5.05,17.47,7.17,7.06,1.65ZM38.69,381.77,30.51,380h.09l9.38-14,5.25-11,5.16-15.34,1.3-15.8.86-3.21-.69-.83.69-1.83-1.12-3.77.34-11.76-1-5.14,4,4.32L56.59,310l.26,16.44-.34,2.29L55.39,332l-.26,2.2v7.07l-1.46,3-2,3.13L51,350.36l2.41,2.57V354l-1.81,2-2.32,3.49-2,4.23-.87,3.85-1.63,3.77-6.2,7Z" style="fill:#efc441"/></svg>