<svg xmlns="http://www.w3.org/2000/svg" viewBox="0 0 800 800"><polygon points="406.46 73.21 401.29 88.08 397.68 102.41 393.03 132.17 394.06 132.72 398.71 132.72 400.26 132.72 397.68 136.03 390.44 148.71 398.71 152.56 403.87 161.38 408.52 183.42 405.94 195 409.56 203.81 422.47 221.45 433.83 250.66 440.03 260.02 448.29 245.7 461.2 264.43 485.99 318.44 497.35 328.91 523.18 339.38 534.02 345.44 537.64 351.5 540.74 358.67 545.39 369.69 545.9 373 552.1 373.55 563.46 367.49 570.18 367.49 583.09 374.65 604.78 393.39 617.17 400.55 630.6 403.86 666.76 403.86 690 409.92 693.1 409.92 697.23 414.33 696.71 413.78 695.16 415.43 695.16 424.25 694.13 424.8 690.51 447.94 690.51 455.11 692.06 459.52 692.06 463.93 684.83 469.44 684.32 478.81 685.87 487.62 689.48 495.34 694.64 501.4 688.45 499.2 684.83 500.85 682.25 505.81 687.41 511.32 688.96 513.52 633.18 546.04 621.82 560.92 622.86 564.22 628.02 566.98 632.15 571.39 633.18 578 631.12 582.96 625.44 590.13 617.69 604.45 598.07 626.5 586.7 642.48 582.57 654.05 582.57 687.12 581.02 697.03 575.86 730.65 578.44 762.62 578.44 770.33 563.46 768.68 543.32 758.76 507.17 734.51 506.13 733.96 485.48 726.24 463.78 724.04 420.4 728.45 425.56 738.37 403.87 740.02 398.71 741.67 394.58 748.29 394.58 754.9 393.03 760.41 383.73 763.72 376.5 773.64 365.65 777.49 301.1 780.8 288.19 784.66 277.86 754.9 263.39 742.23 215.88 731.75 196.77 723.49 183.34 712.47 160.1 684.36 177.66 676.64 195.22 659.56 202.45 643.58 189.54 636.97 197.8 629.8 204 619.33 213.81 595.09 219.49 589.02 227.24 582.41 231.37 573.59 227.24 558.71 221.56 554.3 206.58 552.65 201.42 549.34 198.84 541.63 199.87 537.77 201.93 534.47 202.45 527.85 203.48 521.79 207.1 518.48 210.2 514.08 209.68 508.56 209.16 505.81 204.52 499.75 199.87 499.2 195.22 500.85 190.57 500.3 186.44 498.09 175.59 494.79 170.95 491.48 171.46 489.28 169.4 474.4 168.36 469.44 150.8 438.02 145.64 431.41 135.83 425.9 128.08 424.8 120.33 421.49 112.58 409.37 107.94 396.14 106.9 383.47 110 373.55 118.78 368.04 111.55 361.98 113.1 358.12 114.65 355.91 115.68 352.61 115.68 346.55 135.31 348.75 128.08 338.83 111.55 327.81 102.77 323.95 105.87 313.48 131.69 273.25 134.79 266.09 136.86 261.13 139.44 255.62 145.64 248.45 150.8 245.15 161.65 242.94 168.36 237.43 176.63 223.1 173.53 217.59 167.85 211.53 168.88 197.2 173.53 191.69 189.02 185.63 194.19 180.12 196.25 171.85 196.25 161.93 195.22 149.81 199.87 143.19 210.71 134.93 215.36 128.87 217.43 121.7 218.98 104.62 221.56 98 233.96 87.53 261.85 75.41 273.21 64.94 279.4 49.51 282.5 35.18 288.7 25.26 304.71 24.16 316.59 15.34 321.24 20.3 323.82 30.22 328.47 37.94 335.18 41.24 338.28 42.34 347.06 43.45 364.11 41.24 370.82 37.38 375.47 32.98 381.15 31.87 390.96 40.69 394.58 50.06 393.54 59.98 395.09 68.25 406.46 73.21" style="fill:#efc441"/></svg>