<svg xmlns="http://www.w3.org/2000/svg" viewBox="0 0 800 800"><path d="M335.46,709.94c.06,2.14.27,6.27-.34,7.11a26.64,26.64,0,0,1-2.28,2.9c-.16.18-.3.88-.48,1.07-.35.35-1.57.75-1.93,1.07a8.91,8.91,0,0,0-2.3,2.52c0,.8,3.05,1,3.53,2.33s1.85,6.19,1.77,8.27-.21,2.4.22,3.31a7.58,7.58,0,0,0,3.58,2.8c1.13.27,2.84-.11,3.75.4s3.78,5.63,5.15,6.11,4.5,1,6.58,2.17,2.9,2.49,4.83,3.54c.87.47,7-.81,7.79.48s6.48,1.42,7.07.8c1.42-1.48,1.53-5.3,3.46-6.91s5.83-1.79,7.91-3,1.94-6.61,3.5-7.69,6.21-4.77,8.68-5.2,5,.21,5.46.7.32,4,1.13,5.25,4.9,5.94,5.78,5.94,1.45-1.68,1.45-1.68l3.94-1.61,3.13-1.05h1.93l1.28,1,4.34.16,2.9-1.77h4v1.77h6.59l1.77-1.77h5.95a7.76,7.76,0,0,0,5.94,3c3.75-.06,10.64-1,10.64-1l1.95-1.74,4.31-2.07s3.72-.65,4.4-1.85l1.44-2.57a8.08,8.08,0,0,0,2.82-1.93c.72-1,1.93-1.92,2.57-3s-1-1.85-1-1.85,0-5.22.05-7-2.22-5.78-5.51-5.56l-17-.2C455.41,701,458.3,664,487.39,651c0,0,.65,1,1.05,1.69s2.09,1.2,2.09,1.2l.76,2.24c.36,1.06,2,2.1,2,2.1l6.11,1.29s3.29,2.49,3.93,3.05,4.83-.16,7.16,0,4.58,1.69,6.42,1.93c1.2.16,7.12-5.25,12.75-8.68,3.06-1.86,6.65-1.93,7.67-2.73s1.12-4.39,1.12-4.39a9.82,9.82,0,0,0,1.52-1.41c.39-.54-.29-1.91-.29-1.91a16.49,16.49,0,0,1,2.09-2.15c1-.75,2.77-1,3.86-2s5.78-6.13,6.24-6.46a3.52,3.52,0,0,1,2.6-.13c1.12.51,1,1.74,2.06,2,.37.07.95.51,1.47.29l1.74-1.55s-.1,1.34,2.31,1.66c1.47.19,2.22-2.49,2.22-2.49l1.15.1s-.47,2.27,0,2.79,1.82.64,1.82.64l-.09.86s9.32.2,10.55.19,4-4.66,4.13-5.31a5.51,5.51,0,0,0-.27-2,11.52,11.52,0,0,0,4.45-2.14L588.7,627a3,3,0,0,0,1,.57c.94.11,2.59.25,2.77-.09s.36-4.4.22-7.5a13.9,13.9,0,0,0-.68-2.84,2.79,2.79,0,0,1,.61-2.09,3.3,3.3,0,0,0-.17-1.88,2.32,2.32,0,0,0-1.48-.69l-2.09-.19-7.66-16.53,1.93-6-.38-4.46-3.14-1.94.5-1.18-3-1.42-9.08,16-4.27-2,2.22-5-7.14-4.22-1.61.16-2.25-1.23-3.79,6.36-8.9-4.48L541.07,588l-5.66-.8-.55-3.78-1.1-1.07-.12-4.52-1.78-1.4L530.22,583l.38.91-.89.35-2.14,1.82-.76,1.17-3.38-.2-1.56-1.33-3.54-1.37.83-5.16.66-1.51.68-6.81-3.17-7.09,12.89-12.61,8.92-15.45c-1.52-2.27-7.1-.12-9.66,1.56l-24.41,16,3.22,6.42-9.65,5.58a15.25,15.25,0,0,0-3.53-4.29c-2-1.54-4.71-2-4.5-2.79.43-1.6,4,.84,5.68.43s1.23-2.19,2.35-3.43c2.15-2.35,3.86-10.28,2.57-17.46-.32-2.25,2.09-4.25,1.83-4.93-1.18-3-3.47-1.57-4.18-3.75-.58-1.76,1.82-4.39,1.71-6,3.86,1.18,7.29-1.5,9.43.11s-.54,4,2.46,4.71a6.92,6.92,0,0,0,5.47-1.18s5,.57,6.43,0,6.91-3.1,9-3.64.32,2,1.07,3.22c.29.45,1.83.23,2.78.85,1.52,1,.92,2.41,2.58,2.79,1,.22,2.1-.56,3.21-.64.75-.06,1.53.62,2.14.53,1.51-.21,3.7-5.41,5.57-5.46s4,7.72,5.36,8.57c.77.49,2.21,0,3.54.53,1,.41,1.77,2.06,2.68,1.83,2.13-.55,0-3,0-3s-8-9-6.75-12.43,7.28,1.18,8.57-3.86S563,502.72,563,502.72l-67.57-44.36L481,465.64l-1.71-2.35,14.68-7,13.28-29.25-.64-34.5L495,379.29l-27.43-6.86-18-12.86L420.7,349l-.5,19.88,11.8,4.81-3,13.5s-23.84-.42-27.64-1.07-13-4.09-15.75-4.76-6.32-1.21-8.07-1.67a3.79,3.79,0,0,1-1.62-.68c-.53-.74-.3-2.29-1.59-2.21s0,2.17-1.29,2.17c-3.85-.24-6.1,3.62-6.1,3.62l-3.06,1.44-8.17-.61-2.43-2-13.74.45L335,384.5l-21,5.34s-23.54,2.73-26.19,3.21-6.75,5-6.75,5a7.78,7.78,0,0,1-5.63-2.9c-2.57-3-4.75-10.65-4.75-10.65-.64-1.93-3.12-3.81-4.89-3.33a4.38,4.38,0,0,0-3.22,5.46L266.73,405s3.22,13.82,3.86,20.41,4.87,25.71,7.34,28.93S307.55,477,307.55,477l15.59,18.8,3.14-2.49-9.47-11.71,2.64-2,12.65.81,0,19.09-2.89-.13-1.34-1.95-1.43,1.09.51,2.12,14.66,21.48v94s-1.37,5.51-1.71,6.6a18.17,18.17,0,0,0-1.09,4.83c0,.85.79,1.34.81,1.6,0,.85-1,1.32-1,1.47,0,.58,0,2.47,0,3s1.17,1.33,1.17,1.33V669.4l2.08,1.61s.85,4.58-.07,6.35-5.67,3.15-7.44,4.6-3.77,3.87-4.06,5a11.82,11.82,0,0,0-.56,3.46c0,.72-.25,1.78-.26,2.44a12.26,12.26,0,0,0,.38,2.34c0,.41.82.8,1.89,1.36a13.92,13.92,0,0,1,1.69,1.05,4.18,4.18,0,0,0,.61,1l.88.85a4.27,4.27,0,0,0,.16,1,4,4,0,0,0,.84,1.08s0,.89,0,1.61.38.46.28,1.45C336.09,706.12,335.43,708.62,335.46,709.94Z" style="fill:#efc441"/><path d="M274.61,83.68l4.18,18-27.65,8.6-.58,2.56,1.55,4.91,8.51-2.09,2.25.64,4.76-1,1.51,5.29-15.85,2.79-4.72,35.14-4.71,11.79V183l-4.93,10.07L223.5,212.14v3.65l-14.79,20.57v5.46L201.32,253c-1.45,2.73-2.19,10.27-.42,17.5s5.56,13.44,15.28,18.5c2.66,1.21,4.7,5.26,5.71,5.15l17.36-2.07,3.94-.59a5.07,5.07,0,0,0,2.57.48c1-.25,10.68-2.42,10.68-2.42s14.14.51,15.65.13,21.71-5.56,23.16-6,1.4-.71,1.29-2.07l-1-12.23s-14.95-.7-23.95-6-10.44-17.47-11-18.24-1.51-.77-2.35-1.13-.94-4,0-6.83c.37-1.53,3.27-10,3.27-10s3-.88,3.29-1.62-1.2-2.24-1.2-2.24l.72-2.51,20.5,10.6s-2.87,4.93-1.34,7a9.51,9.51,0,0,0,6.48,3.26c.82,0,1.69-2.36,2.76-3.34.53-.49,2.33,2.09,3.45,2s-.35-7,3-7.66a90.52,90.52,0,0,1,5.84,13c3,8.26,5.39,17.28,5.39,17.28l-7.24,1.76,2.55,14.93c.27,1.14.88,1.86,1.9,1.54l19-6c9.13-3.87,13.39-29.26,13.39-29.26l3.54-2,1,1.45,19.18-8.93,5.43,8.35a4.65,4.65,0,0,0-.36,2.54,4.41,4.41,0,0,0,1.36,2c1,.55,3.9,1.16,4.42.86l2.65-1.54a3.75,3.75,0,0,0,2.57-.94c1-.68-.08-5-.08-5l1.91-3.06s2.78.87,3,.18-1.42-1.5-2.22-2.35c-.2-.2-.37-1.11-.73-1.6-1.08-1.51-3-3.86-3-3.86l-1.27-5.31.41-2.22H381l1.93-4.44-3.22-2.2-5.54-12-1.1-6.48,1.23-1.29-2.51-2.84v-7.66l3.21-3.85-5.81-4.07,4.26-8-12.54-7.39-.72-24.91,14-8.76s1.87,4.17,3.47,3.36c0,0,5.06-2.69,5.93-3.36,1.45-1.13,1.38-3.14,3.19-4.25l14.81-9V93.16c0-6.59-8.31-18.83-14.79-22.06l-17.35-8.64L337,49.29,336.32,39l-12.21,4.82-23.47-2.89-11.25,5.14-10,19-4.82,2.57L259.5,64.39l-17.36-1L229,68.89l-1.28,7.72,8.68,27.32L268.5,92.68l-1.93-6.75Z" style="fill:#efc441"/><path d="M406.29,89.46c0-7.28,6.53-7.47,11.57-5.25s12.09,5,16.8,7.36,9.23,10.7,12.34,17.07,7.8,36.11,7.93,47.68c0,0,.12,12.69.28,21.21s3.58,34.61,3.58,39.54-5.9,6.75-10,6.75-17.84-5.14-20.57-7.07-4.19-1.37-4.34-5.71l-1.45-55.36-10.28-24.11-5-17.68Z" style="fill:#efc441"/><path d="M464.52,61.49l-9.19,16.64c-1.85,3.22-1.17,7.3,1.61,10.39,0,0,6.95,7,6.95,9.85,0,0,.36,11.18.2,17.45s-1.36,11.05-1,18.43.72,10.72.75,16.39l.11,17.09c0,3.06,1.2,6,5,6H506.2c3.91,0,13-7.45,14.14-8.36s1.18-5.14,1.18-5.14.11-25.15.19-31.82.64-13.18,4-18.08,16.4-28.45,17.76-31.82,3.86-11.66,3.86-11.66a7.44,7.44,0,0,0-3.65-2.41c-2.2-.54-16.46-4.61-19.82-5.14s-13.26-2.89-18.16-2.89h-32.3C469.31,56.36,466,58.14,464.52,61.49Z" style="fill:#efc441"/><path d="M605.31,589.25c1.23,3.25,4,5.26,6.58,4.32l13-4.71a5.44,5.44,0,0,0,3-7s-65-193.72-64.91-193.39c-.67-2-2.92-4.33-5.55-3.56l-9,2.84c-2.14,1-2.7,3.54-1.64,6.72L581.17,496l-7.25,7.57L577,513l4.07.8Z" style="fill:#efc441"/></svg>