<svg xmlns="http://www.w3.org/2000/svg" viewBox="0 0 800 800"><path d="M240.51,495.28l-.17-1.8.48-2.05,3.69-7.68,1.07-1.77,3-3.08,1.21-1.55.93-1.76.82-2.09.24-1.73,0-2.39-.38-1.84-.93-.14-.45-1.55-.24-.4-.34-.22-.73,0-.34-.11-.65-.62-.69-.88-.52-1-.21-.95.21-.77,1-1.92.38-.58.42-.81.17-.92-.07-1.91-.1-.55-.18-.52-.13-.55.07-.62.24-.26.89-.59.28-.33.27-1.06.11-.85.41-.59,1.1-.22.65-.95-.17-2.21-1-3.67-.76-1.76-1-1.66L246.71,436l-.38-.66-.38-1.84-1-1.8-4.61-6.36-.9-1.83-.34-1.88.34-3.27.69-1.72v-3.42l0-.11-.25-.4,0-.22.07-.41.45-.44.13-.29.31-1.4,0-.51-.21-1.77-1.2-3.85L237,396.9l-3.58-5.26-3.27-5-.38-1.65V374l-2-10.77-.07-3.67,1.48-6.87.28-2.46-.28-.81-1.2-1.18-.69-2.53-3.2-4.74-.28-1.36,0-1.69.42-3.42.55-1.61,2.55-4.45.89-2.28.31-.14.62.29.31-.4.45-1.62,3.85-6.28.83-.88.35-.81.17-.77.14-2.65,1.41,0,1.24-2.1,1.68-4.74.38-.58,1.35-1.51.27-.44.41-1.25.38-.59.79-1,.62-1,1-2.28,1.31-2.05,1.75-2,1.48-2.2.45-2.46-.27-1.07-.9-2.35-.24-1.14.27-1.32.59-.62.52.25,0,1.36.79-1.43.42-1.51,0-1.54-.48-1.54-1.89-3-.76-1.65-.14-1.8.24-.7.38-.77.48-.77.48-.55.35-.59.1-.73.17-3.09.14-.77.42-.48.82-.26H253l1.72-.33,11,1.14,1.35-.33.62,0,1.24,1.06.86.52.93.29.68-.25.49-.67.31-.51.38-.48.68-.4.69-.22,1.45-.26.69-.29-.42-.37,2.93-1.47,1.45-1,1-1.33,1.72-3,1.13-1.51,1.11-1.14,1.37-.84,3.1-1.4,2-1.43.35.33.1.81.07,1.72.9,3.09,0,.26,0,.51,0,.37-.28,1.14-.06.91.1.74.38.48.79.14.76-.25.51-.59.42-.74.55-.51,1.68-.7.73-.51.34-.85-.14-.48-1-.4-.59-.66-.41-.92,0-.7.49-.44,8.19-1,.38-.11.34-.19.66-.44L307,251l.37.59.21.14.07.19v.77l-.52,1.61v.56l.9-.48.34,1.1.38-.15.48-1-.51-2.83.14-.59.82-.88.38-.59,0-.15,0-1.39.1-.48.18-.4.13-.44,0-.56-.38-.69-.55-.48-.31-.52.38-.73,1.62-1.84,1.65-1.14.52,0,.86.36.75.19h.76l.72.11,1.83,1.21,1.14-.18,3.06-1.88.62-.25.69-.11.79-.08,1.07.19.38.47-.07,1.8,0,.89.17.44.42.22.72.14.45.08.86-.08h.45l1.34.81,1.17,0v-.33l-.48-.7-.35-.92.21-.59.48-.47.38-.63v-1l-1.2.66-1.18,1-.68.33.31-1.21.72-1.25,1-1.14,1.17-1,1.17-.77,1.14-.48,1.2-.26h2.52l1.24.19.58.22.24.36,0,.63.07.59.17.51.41.51-.58,1-.24.84-.35.81-.93.73,1.1.92.83.89.62,1,1.76,3.85.82,1,1.1,1,0-.56,0-.69.07-.67.28-.36.41.14.55,1,.42.33,1-.22.42-1,0-1.21-.34-1,1.31-.11,1,1,.9,1.28,1,.85.51-.44-.51-1.44L350.66,246l-1-.47-2.1-2.06-1.24-.48-1.62.11-.44-.11-.93-.59.1-.36.58-.37.62-.55L346,239l.2-1.1-.55-.84-.55-.08-.69.11h-.58l-.24-.4.17-.88.72-1.51.55-2,1-1.06,2.24-1.88,3.16-3.78,1.17-.92.11.29.1.22.1.26v.37l.59-.33,1.34-1.4,2.14-1.62.62-.62,1.17-.84,1.34-.15,1.31,0,1.13-.37-.65-.48-1.55-.44-.17-.55.52-.59,2.89-.73,5.2-4,3.78-3.67,2.14-.66,1.38-.81.79-.15.34.15.14.44.07.51v1.44l.07.29.62,1.4.38.55.55.44.79.48,1.72.77.83.58,0,.7-.52.7-.75,1.4-.62.55-.79.55-.52.59-2.24,4.77-.58,1.84.13,1.32.55.11.38-.77.45-1.8.59-.59.93-.29,1.79-.29,1.68-.67,1.62-.91,1.55-.48,1.62.59,1.82-.74.8-.55.17-1-.21-.33-.31-.08-.41,0-.45-.11-.41-.3-.21-.25-.83-1.66-.68-3.49v-.33l-.18-.18-.62,0-.44.11-1.45.7-.14-.7.07-.62.45-1.36-.65.11h-.56l-.37-.26-.31-1.14-.87-.51-.34-.48-.1-1.25.44-1.18,1.38-2,1.65-1.58,2.17-1.5,1.9-1.77,1.06-3.27.73-.95,2.55-2.54,1-.66,1.14-.4,1.2-.15.65-.59.14-1.28-.34-1.14-.79-.18-.56.51-.3.88-.56.3-.79.07-.48-.33-.76-1.21h.31l1.52-2.58,6.26-7,.73-.55.31.22.2.59.31.66,1,1.28.07.56-.21,3.38.17.8.21.22.34.11.31.26.17.59-.13.15-.55,1.36-2.9,3.56-.75,1.29-.52,1.65-.52,6.69.17.66.69.44.62-.15,1.62-.95.52-.41.89-1.5.49-1.51.65-1.47,1.45-1.21.55.47.17-.51,0-1.43.28-.92,3.58-7.28.28-1.58.24-.69,1.61-1.77.14-.47v-1l.21-.4.38-.33.86-.44.27-.19,1.14-1.39.45-.81.2-.77L417,176l.76-.48.69-.55.24-1.14,2.13,3.16,1,.92.69.29,1.55.45.55.44.28.62-.07,1.29.1.69.76-.88,0-1.21-.42-1.1-.69-.59,1.42-1.18,1.3.15,1,1.14.42,1.76-.07,3.75.27,1,.83-1.36.27-1.62v-2.27l-.48-2-1-.88-.69-.22-.61-.59-1.11-1.25-1-.55-.76.11-1.58,1-.66.3-.62.15-.72-.19-.76-.66-.38-.77-.31-.77-.34-.3-1.45,2.1-.62.62-.51.3-.31-.44-1-2-.25-.62.11-.22.51-.52.11-.37-.11-.51-.2-.33-.21-.26-.86-1.91,0-.33.21-.18.07-.15-.55-.48-.1-.14.06-2.36.35-1.87.62-1.73,1-1.39,1.21-.77.38-.44.13-.89.07-1.61.21-.59.45-.59,1.17-.4,2.34,1.8,1.65-.08.66-.18,1,.15.42-.15.44-.62.31-.89.21-.95.07-.74-.17-1.24-.52-1.51-.76-1.32-1-.63.65-.73,1.1.33,2.07,1.58.41.22.41.18.42.22.31.44.07.7-.31.55-.42.52-.2.69-.18,1.4-.72,2.83-.17,1.4v.51l.07.85.31.66.69,0,.31-.44,0-.62L429,159l.07-.51.38-.37.65-.4.52-.48v-.48l-.41-.48-.38-.62-.31-.7-.07-.62.34-1.21,1.38-1.95.31-1.18v-1.28l-.14-1.25-.45-1-2-.73-1.14-.85-1.82-1.83,3.82-2.14v-.69l-2.41-1.66-2-.88-.55-.48-1.35-2.6-.75-3.57L423,128l2.21-1-.52-.85-.62-.33-.48-.48-.1-1.36.17-1.17.38-1.62.69-1.14,1,.37.72.07.42-1.36.24-2.46.41-.4.55-.33h.52l.41.55-.21.37-.51.44-.31.62.34.81.28-.15.48-.11.31-.11-.28.66.11.63.41.29.59-.29.17-.44,0-.48.21-.44.79-.33-.93-1.07-.07-.4h1.86l.76.62.38,1.4.17,1.51.24,1,1.41-.66.76.44.38,1.14.24,1.32.86,2.5.14.92v.37l0,.36.17.3.8.29-.14.44L438,129l.55,1.11,1.31,1,1.52.77,1.1.29,1.44-.4,1.42-1,.72-1.32-.86-1.43.38-.85v-2.86l.27-.88.93-1.77.17-.77L445.9,119l-.24-1,1-.44.59.29,1.48,2.32.27-1,.41-1,.52-.81.52-.55.65-.25.93-.19.93,0,.62.07,0-.26,0-.55v-.29l1.14,1.1.62.33.48-.15-.14-.47-.86-1.91-.41-1.51-.86-1.25-.35-.62-.17-.74,0-.73.2-1.51.79.18.45.52.35.62.51.55v.88l.93.67,2.65,1.13.48.12.52-.12.59-.29.62-.15.65.11.59.19.55.07,1.82-.55,1.83-1.14,1.65-1.5,1.24-1.69-.86-1.11.72-1.54,1.86-2.42-.17-.67-.72-1.25L470,99.6l0-1.8.14-.88,1.1-4.3.69-1.54,1.37-2,.42-.85.27-.88.14-.66.24-.63.59-.81.68-.69.56-.3L476,82.92l.83-3.52.1-1.47-.31-.7-1-1.29-.42-.66-.34-.73-.17-.63-.28-2.46-.17-.59-.76-1.17-.31-.22-.27.07-.25,0-.24-.55,0-.55.24-.33.27-.26.18-.4,0-.44-.27-.66,0-.37.55-1.36.14-.15-.38-.66-.58,0-.69.29-.76.4,0-1.58-.45-.91L469,60.37l-.76-2.25-.44-.73-.14,1.07-2-1.07.58-.51.9-1.51.55,0,.62.3.55.14,1.24.08,1.72.36,1.07,1,1.51,3.12.55.33.79-.26.76-.55.48-.59.21-.84.14-2.9.1-.33.59-1.14v-.3l-.11-.77.11-.44.44-.7.62-.51.73-.22.62.33.34-1,.52-.44.62-.41.58-.81.76,1,.65-.77.66-1.32.69-.77.82.73.76-.29.59-.88.27-1-.07-.4-.17-.41-.14-.44,0-.62.27-.59.38-.33.41-.26.31-.33.52-.11.1-.29L489,41l-.45-.55-.34-.08-.38,0-.55-.18-.24-.22-.18-.34-.24-.33-.38-.25-.55-.11-1.86.11.69-1,2-.69.76-.92.76.59,1.65,2.42.34-.4.35.4.07-1.06-.38-1.18-.76-.92-1-.22.17-.55.35-.37.31-.29.2-.26.52-.26.17-.14-.07-.15-.17-.33-.1-.4.17-.41,1.48-1.76.9-.52.89.22.52.37,1.41,1.69.31.77,0,1.58.31.63,1,1.39.14,1.33-.14,1.43.21,1.62.89,2,.11.8h-.31l-1.9-2.24-.44-.11-.38.48-.35.63-.38.33-.68-.19-.56-.55-.37-.77-.11-.74-.55.26-.41.44-.24.52-.18.62.62.33-.13.66-.83,1.62h.76l1,.15.93.33.38.48-.17.36-.73.66-.13.3.1.48.17.47.24.19.35-.41.55-1,.41-.22.41.4.52.81-.07.3-.2.36,0,.33.48.11,1,0,.52-.07.38-.3.27-.91-.69-1.55.24-.73.9-.55.59.4,1.44,2.43.14.62,0,.62.18.78.48.84.51.59.35.73.07,1.22.31-.74.44-.44.56-.26.72-.07.76.15.31.29.2.41.86.91.28.66,0,.63-.38.26-.68-.15-.62-.29-.55-.08-.56.52,1.24,1.1.66.84.58.08,1-1.25L508.7,60,509,61.1l.1,1.43-.1.74-.52-.11-.38-.63-.17-.66,0-1.5-.31,1.47.75,3.12-.27,1.17-.41.59-.21.59,0,.59.14.66.48.92.35-.08.38-.36.55-.08.76.52,1,1,.9,1.1.41,1,.11.7.48,1.17.14.59-.14.7-.66,1.21-.24.7.45-.26.45-.11.41.08.38.29.31-.63.34-.44.28-.51.24-1.51.38-.47.55-.08.69.3-.24.51-.14.22.69.18.69.37.58.44,1.28,1.25.2.37-.2,1.36.07.51.61,1.44.49.58.62.22.69,0,.72,0,.48.45,0,1.1-.37.29-.55.15-.18.4.73,1,.65.4.69.26.52.48.2,1.1.28.77,1.17,1.47.24.55.1,2.9-.45,4.41.07.85.24,1.1,0,.88.21.66,1.37,2.13.14,1-.17,2.35.21.81.68.4.62-.18.55-.3.52.08.45.77-.07.95-.38,1.84.1,1.47.73,3.2.58,1.5.21.3.62.48.21.29.06.44-.1,1,0,.44.2,1.14.14.37.14.22.14.11.2.07.21,0,.31.07,0,.22v.3l.17.33.11.59-.41,1.87.3.88.38.63,1.17,2.57.45,1.8.52,10.91,1,4,.13,1.58,0,2-.48,1.54-.14,1-.07,1.91.14,1.14.34.63,1.24,1.25.86,1.65,0,1.54-.62,4.23-.48,1.69-.14.84.1,1,.62,2.61.38,6.09,1.38,3,.14,2-.45,1.77L540,184l.48.66,1.35.73.58.48.42.7.3.95.59,3.53,3.62,8.45.93,1.47,2.41,3.16.51.92.42,1.83.55.59.65.41.62.51.69,1.32.41,1.8.28,3.49,0,.37-.31.85L554,217v.41l.1.36.07.55-.07.41-.48,1.32-.1.55.1.52.14.47,0,.37-.2.4-.62.7-.21.37-.34,1.91-.9,2.76-.1,1-.31,1.47-4.48,9-.38,1.58.49.29-.31.74-3.65,5-1.14,3.09-.59.7-.79.22-.82-.11-.76,0-.72.63-1-2.72-.86-.88-1.2.18L532.39,246l-.93-1.21-.38-1.61-.24-2.83-.1-.41-.59-.25-.72-.59-.66-.74-.44-.58-.35-.74-.24-.88-.14-.92v-.88l.28-.92.34-.73.07-.7-.52-.85-.31-.33-.27-.15-.35-.07-.44,0-.21-.14-1.45-2-.13-.73.27-1.69,0-1-.38-2.79.07-.33.17-.33.07-.37-.31-.47-.28-.08-.93-.11-1.31.74-1.82.22h-3.27l-1.62.58-1.14,1.07-2.85,4.3,0,1.43,1.1,3.12,0,.78,0,.77-.55,1.5h-.1l.31.7.58.59.55.73.42,1.84.72,1.8.34,2.79.52,1.69.72,1.47.14.66-.17.92-.34.92L514,252.11l-.45,1.58,0,1.83.35,1.84.65,1.54,1.31,1.36,3.27,1.25,1.45,1,1.17,1.8.21,1.58L520.89,271l-.11,2.13.28,1.91.9.85.51.36.14.81-.21,2.13-.2.81,0,.41v1.91l-.24.69-2.65,4.89-1.45,1.8-2.23,1.91.06,2.54.38,1.14.76,1.21,1,1,1.11.62,1.2.18,1.34-.14-1.55.92-1.58.62-2.93.48-1.27.73-2.51.22-1,.26-.79.59-.65.84L505.81,310,503.47,317l-2.59,6.43-.48,4,.21.81,1.55,2.61,2.37,13.59.31,3.6-.62,3.82-1.75,6.58L500,366.73l-.07,1,.07,1,.21.73.21.41.58.7.24.4.11.66-.31.3-.52.22-.48.36-1.55,3.05-1.24,11-.35.69-1,1.29-.38.66-1.2,3.78-3,6.51-2.61,10.32-3.89,9.44-1.86,2.94-4.58,17.45-6.34,17.05-1.72,8.78-.1,1.29,0,2.09-1.65,5-.31-.69-.62-.89-.65-.51-.45.59.21.62,1.2,1.8.28.85-.14.7-4.13,9.11-2.9,8.12-1.3,4.15-2.69,8.81-5,19.88-.55.92-.65.88-.41.85.2.8.66-.73.37.22.11.73-.07.92-.35.85-.89,1.65-.17,1-.17,1.94-.49,1.88-1.82,4.48-.17.77-.11,1.73-.82,4.81-.73,2-.69,1.4L439,574.93l-6.4,15.54L426.24,606l-.69,3.72-1.65,3.78-2.11,15-1,3.42-.31,5.36-1.69,6.28-1.89,5.55-1.2,8.23-6,19-.58-.81-.28-.63-.27-.14-.55.77-.55,1.25.34.33.83.07.89.48.21,1.47-2.58,12-2.72,7.64-.9,1.69-.34.33-.8.55-.27.22h-.1l-.52.22h-.07l-.31.3.07.18.24.15v.48l-.34,1.43-.86,1.91-.14.37-2.89,8.26-.38.37-.62-.18-1.07-.56-.24.37.69,3.09-1.35,9.22-4.2,11.06-1.27,2.09-.14.85,0,1.76-.35.88-2.58,2.06-.69,1.76.41,3.68-.55,1.43-.51-.66-.35-.74-.17-.84v-.92l-.45.81-.07.84.14.89,0,1-.24,1.1-.35.48-1.48.59-.86.55-1.41,1.36-2.41,3-.52.29-.17-.22-.52-1.29-.58-.11-.14.08,0,.14-2.93,2.21-1.1,1.1-.55.37-1.48.58-.56.41-.72,1-.52.44-.41,0-.48-.22-.52,0-.51.59-.49.36-3.44,1-.76,0-1.68-.52-5.17-.69-5.82.14-7.47,1.91-10,4.56-6.3,3.42-7,4-5.06,5-1,.69-1,.45-1.13.11-2.55,2.49-3.44.78-14.33.66-.75.18-.76.33-.76.26-.86-.19-.48-.66-.45-2.16-.45-1-1.51-1.21-5.37-2.1-1.52-1.13-.65-.78-.62-1.72-.86-.81-3.72-2.87-3.38-1.69-2-.62-5.34-.77-5.27-.33-7.44-1.58-.89-.52-.76-2.2L243,766.53l-.35-1.25,1,.4.86.81,1.55,1.87,1,.78h.83l.45-.63-.24-1.25-.8.15-.69-.4-1.27-1.36-.83-.56-.79-.36-.79-.15-1-.07-1.79-.74-3-3.45-1.79-1-1.59,0-.58-.15-4-2.83-.58-1.21-.31-4.52-.52-1.87-3.65-5.18-.52-1.87.49-5.11-.49-1.91-.48-1-2.17-2.46-.24-.18-.24-.26-.27-.44-.14-.51-.17-1.18-.21-.44L218,726.78l-3.48-2.47-1.54-1.69-1.69-4-.83-8.52.66-9.77-.9-5.51.1-.56.45-1,.14-.59-.07-.63-.62-1.69-.41-2.24-.31-1-.66-1,.73-1.18-.11-4,.24-1.81,1.11-1.1,3.4-1.54.87-1.25-.11-.92-.65-1.47.07-1.06.75-.77.25-.37.31-1,0-.47-.17-.56-.55-.8-1.35-1.14-1-1.4-2.13-2.13-.35-.18-.31-.08-.34-.07-.38-.4L209,662l-.21-1.28-.51-2-.21-5.07-.65-4.22-.69-2.35-1.38-1.58-3.44-2.65-.55-.81-.83-1.76-.72-.74-.9-.69-1.72-2-1.07-1.72-.58-1.22-.21-.77-.27-2.31-.62-1.55-.28-3-.59-1.58-.31-2-.24-.48-.68-1-.28-.51-.34-1.29,0-1.32.21-2.61-.52-5.21-.72-2.72-1.17-2.54,0-.59.07-.55,0-.55-.35-1.39-.55-1.29.14-1.21,1.07-.85,1.37-.14,1.07,1,.35-.89-.11-1-.2-1,0-1-1.72,0-.69-2.28,0-5.07.14-.62.48-1.14.1-.59v-1.32l.1-.59.18-.26.24-.18.17-.3.1,0,.21-.08.24-.14.14-.19-.38-1.5.07-.78.24-.66.34-.66.42-.59.58.81.07,1-.31,2.05,1-1.54.21-2.61-.1-2.86.24-2.17.55-1.07,3.37-4.22.86-.7,1-.15,1.1.7V553l.38-1.43,1.07-2.57.31-1.4.41,1,.38,0,1-1,1.38-.73.65-1,.21-.18,2.82.07,1.86-.55,1,.25.86.41.93.22,1.24-.51,1.48-1.22,1.2-1.5.52-1.4.24-1.65,1.82-5.26,1.9-10.83,3.17-6.47,1.06-1.1,1.62-.41.93-.84,2.72-5.33.62-2.24.45-2.65.69-2.49,1.31-1.8,0,.47.07.37.24.66,1.24-3.05.69-.95,2.2-1.8ZM527.26,295.53l.2-.77.07-.88.18-.85.44-.73.62-.51,1.93-1.18-.21,1.36-1.82,4-1.31,4.26-2.48,5.69-1.79,2.54-1.41,3.27-.93,1.21-.45-1.51.28-1.43,1.2-2.75.21-.74.1-.73.07-1.55.14-.92.45-.73,1.13-1.4ZM445.59,107.87l.38.44.68.48.59.59.07.69-.35.41-.48.22-.55.11-.52,0-.24-.12-.17-.25-.1-.3v-.11l-.31.08-.69.33-1.83-.3-.65-.33-.65-.51h-.35v.73h-.24L440,110l-.1-.14-.17-.08-.48-.66-.35-1.14-.24-2.35.21-1.06.27-.92,0-.7-.76-.29.52-.7.72.22.79.37.69-.3.35.33.48.26.48,0,.41-.22.07-.41-.27-.44-.31-.4-.14-.44,0-1.14.24-.63.55-.26,1,0,.86.26.41.69,0,.92-.55.92.44.29.52,1.11.38,1.21,0,.59.62.36-.27.92-.59,1Z" style="fill:#efc441"/><polygon points="756.57 246.49 756.88 246.26 756.91 246.74 756.57 246.49" style="fill:#efc441"/><polygon points="164.9 311.92 163.53 311.22 164.22 310.89 165.25 311.07 164.9 311.92" style="fill:#efc441"/><polygon points="393.08 10.07 393.67 9.26 394.01 10.29 393.08 10.07" style="fill:#efc441"/><polygon points="45.6 604.65 45.56 604.14 45.88 604.29 45.91 605.54 45.05 606.82 44.05 607.01 43.57 606.68 43.19 606.01 43.09 605.06 43.43 604.43 44.02 604.25 44.53 604.21 44.81 604.36 44.98 604.99 44.77 605.28 44.53 605.46 44.36 605.83 44.67 606.16 45.32 606.09 45.7 605.5 45.6 604.65" style="fill:#efc441"/></svg>