<svg xmlns="http://www.w3.org/2000/svg" viewBox="0 0 800 800"><path d="M400.33,400.2h.08l0,0,.05,0,0,.09v.15l0,0v0h-.22l-.05-.14,0-.15Zm-.17-.23,0,0,0,.06v.06l-.08,0,0,0,0-.14-.07,0,0-.05h-.18l-.11-.05-.14-.09-.1-.12,0-.12h0l0,0h0v0l.34.21.08.09.06.16,0,.06Z" style="fill:#efc441"/><polygon points="400.24 399.75 400 399.75 399.93 399.53 399.86 399.75 399.63 399.75 399.81 399.91 399.74 400.15 399.93 400 400.12 400.15 400.05 399.91 400.24 399.75" style="fill:red"/><path d="M463.32,229.91l-28.91-.4-3.16.87-.88,1.28v1.75l.63,4.38-.19,4-.69,3.91-3.73,9.83-7.07,11.25-9.91,16-2,5-.44,4.51.13.54,2.33,8.62,5.37,20.34,5.11,19.2,1.2,11.25,1.52,14,1.32,12,1,10-.56,8.49.25,8.22,3,7.27.06.14.32.33,1.57,1.69,1.08,1.55,1.89,3.57.44,1.07.07.61.31.4,1,.54,1.51.34,11.81-.2,3.15.47L454,424l.06.07,2.84,1.82,9.41,9.16,8.08,7.81,8,10.17,9.91,12.6,8.4,10.64,7.95,10,6.19,12.59,7.95,10.71,9.66,13,3.35,4.44,3.34,4.52,4.48,4.78,1.08,1.48.56,1.75,1,21,.63.87,1.14.21,2-.07-3.47,8.69L544,576.59l-4.48,11.11-.63,2.56.06,2.36.38,1.62,2.15,9.42L544.12,615l-.32,4.11v.07l-.5,8-.82,12.6-.57,8.89L541,663.21,540,667l-.64,2.56.07,1.61.5,3-.06,1.61L539,678l-1.39,1.68-6.69,4.92-1,.54-.83.06-1.76-.33-1,.07-8.77,2.76-2.21.27-.51.6-.25,1.55L514,691l-1.14-.06-1.2-.61-.82-.81-.63-1.68-1.58-1.08-1.89-.54-1.77-.13-2.08.6-1.77,1.22-6.44,6.19-.5.68-2,2.56-1.71,3.77-.63,4.65.19,1.07,1.14,2.83-.38,1-2.21,2.83-.13.47-.31,1.35v4l-.51,1.82-1.26,1.41-6.44,4.52-1.14.87,1.52,4.52,1.45,2.49.38,1,.51.87,1.07.34.82.13,2,.88.63.34.38.47.5,1,.32.6.32.14.75.4.26.21L492,744l.25.53.25,6.67.38,2,1.9,3.91.44,2.56-2.34,2.09-.19,2.09.19,3.83-.25.48-.57.47-.44.54v.6l.44.47,3,1.89.57.88-.45,1.28-1,1.88-.12,1.62.82,3.84.12,2-.25,1.68-.5,1.42-.7,1.14-5.24.61-9.34-.34-4.8-.81-1.45-1.48.32-2.56-3-4.92.76-3.16,2-1.75,2.34-1.22,2-1.48,1.13-2.83.26-3.23-.07-3.64-.82-3.16-2.08-1.62-3-.13-2.78.33L467,756l-2.71-2.29-1.71-2.42-.76-.88-1.26-1-.63-.2-1.39-.27-.63-.4-.44-.75-.32-1.95-.38-.87-.63-.48-.82-.67-1.64-.74-1.39-.88-.94-1.55-.64-2.15-.75-1.41-4.3-3.84-.94-1.35-1.64-3.37-1.2-1.41-5.81-3.3-.69-.27-.57-.41-1.14-3-.5-.94-.63-.67-3-2.43-1.14-1.21-1-1.55-2.59-7-2.08-2.22-4-.67-3.22-.14-1.77-1.95-3.78-8.82.38-3.44,1.76-6.53-.38-2.83-1.57-2.29-7.7-8.56-1.33-.87-3-1.55-1.2-1.08-1-2.76-.19-3.64.45-3.5,1-2.49,2.58-3,1.65-1.35,1.57-.81,1.9-.6,1-.61.06-.07,5.68-8.42,1.07-3.16.32-4-.82-6.07v-3.43l1.14-1.68,1.7-.88,1.77-3.1,1.89-1.21.57-1.21.5-2.56.38-1.28,1.08-1.48,1.13-.81,1.2-.68,1.26-1,1.71-2.62.31-2.63-.88-7.14-1-7.68.19-1.75.88-1.08-.25-1.14-.57-1.28-.19-1.42.51-1.41,1.89-2.76.7-1.48.12-1.69-.63-1.55-1-1.48-.82-1.62-.57-2-.19-1.68-.06-7.41-.5-3.16-1-3-1.52-3.23-.88-3.44,1.26-6-.13-3.37-1.51-3.16-4.8-5.06-2.15-2.83-3-6.53-1.2-1.88-.82-1.15-2.52-1.48-.82.13-.7.47-.69.61-.69.47-.76.14-1.45-.14-.7.07-9.15,3.5-6.69.2-3,1.28-.69,1.08-1,2.49-.76.54-9.72-1.41h-2.65l-2.53.67-5.36,3.5-2.65,1-2.59-.26-5-4-2,.61-1.39,2.29-.75,2.9V531l-.32,1.75-.88.67-1.64-.47-1.08-1.08-.82-1.34-.57-1.62-1.26-3.77-.82-1.28-1-.88-2.52-1.21-1-.94-.82-1.28-.45-1.21-.63-1.22-1.2-1.14-3.91-1.89-1.2-1-1.64-2.35-4.67-10-1.64-2.43-1.27-2.62-.25-.54-.69-.61-.82-.33L312,493.2l-.76-.94-2.33-4-.38-1.75.5-5L308,478.59l-2-1.69-5.11-3-1.58-1.95-2.84-5.79L295.09,465l-.94.54-.89,2.56-.82.87-3.22,1-1.26.74-1.26,1.48-2.84,5-1.71.41-2.14-3-.51-1.48.32-5.12.19-.54-.07-.54-.5-.87-.76-.41-1.64.14-.76-.67-.56-1.62-.19-1.48-.38-1.48-4.61-6-1.33-1.28-2.84-1.08-3.41-.74-2.65-1.28-.5-2.69.95-1.15,3.4-1.68.76-1.08-.5-1.21-3.48-5.25L258.48,436h-3.34l-3-.74L251.1,432l.38-2.08.94-.81,1.33.13,1.7.68,1.14-.21,2.52-2.29,1.2-.8,3.41-.54,1.2-.88.38-2.29v-1.82l.19-1.61.76-1.08,1.7-.27,2.59-1.48,1.64-3.84,1.26-5.32,1.33-5.66,1.64-3.91,2.34-3.1,2.71-.87.5-1.42-.25-1.14-1.51-2.29-.7-1.68-.38-1.69L279,384l1.45-11,2.52-6.13.45-2.76-.82-2.42-2.21-2.22-2.53-1.69-.57-1.08-.56-7.34.31-1.75,1.26-2.76,3.29-5.25,2.84-6,1-1.35L286.7,331l.76-.33.63.13.5.54.38.81.7.67.75-.4.89-.74.69-.48,1.45-.4.7-.07.88.2.7.75,1.07,2.15.38.54.94-.07.45-.47.31-.67.57-.61.44-.34.44-.33.51-.41,1-.27,1.32-.94,1.52-3.43,1.07-1.28.69-.34,2.47-.47,1.19.13.89.47.76.48.75.27,2-.48,2.09-1.41,1.89-2,1.45-2.29,1.08-1.08,2.77-1.14.82-1.22.07-2.49.44-.74,1.39-.27.69-1.62,2.4-1.54.38-.27.82-1.62-.13-2-1.07-.41h-1.51l-3.6-1.28-6.82,2.16-3.22-1.21-1.83-3-1.64-6.93L309.8,292l-1.07-1.35L306.14,288l-.69-1.61-.13-3.37.32-3.3,3.66-9.16.88-5,.51-1.62.31-1.55-.38-1.41-1-2.23-.06-1.55,1.26-3.77.32-3.64-1.08-16.23-.5-1.61-1.26-1.49-1.52-.27-1.64.21h-1.51l-1.58-.61-.25-.81,1.32-3.1.63-1.88.07-1.21-.45-8.49.89-1.42,2.33,2.09.82-1.35v-1.27l-.19-1.28.19-1.42.38-.54,1.45-.67.51-.47.13-.61-.32-1.08.13-.67,6.43-10.64,1.27-2.76.82-3-3-5.52-2-2.22-1.7-2.5-1.33-2.76-.95-3-.25-3-.25-3-.7-3.16-1.38-1.22-1.27.21h-1.13l-.76-.54.13-1.42.82-1.75.82-.34,1,.27h1.07l1.39-.87,1.7-2.76,1.14-1.08,1.26-.4,2.34-.54,1.26-.54,1.26-.2,3.1.6,1.38.14,1.2-.61,1.71-1.82,1.39-.27,1.89-1.21,1-1.75,1.52-4,4.48-5.38,1.2-.88,1.2-.54,3.59-2.76,1.46-1.41,1.51-2.43-.06-.4v-.34l-.07-1-.69-1.82V124.5l-2.52-.34-1.39-1.75-1.83-4.51-.7-.81-2.59-2.49-.75-1.14-2.4-6.13L331,105l.57-5.59-.19-3.1L330,94.66l-1.83-1.41-1.7-2.36-2.4-.94-1.64-1.42-1.52-1.81L319,85l-7.52-3.57-1.26-1.81.06-2.56.51-2.5,1.7-4.71,2.78-4.51.63-2.09-.57-2.76-1.45-3.91-.63-.81-3.41-1.28-1.13-.67-1.08-1-.82-1.21-1.32-2.7-1-1.21-2.28-1.48-.88-1.42L301,43.27l.31-.94.45-.81.25-1L301.91,39l-.38-1.28-1.39-2.56-1.83-1.35-5-.26-2.09-1.08L290.68,35l-.32,2.89-.76,1.82L287.52,39l-.44-.94-.25-1.21-.38-1.08-1-.47-1.2.27-1.08.8-1,.48-1.2-.48-1.13-2.69,1.64-7.14-.06-2.69-.82-.41-1.33-1.35-.63-.4-1.07.07-.57.47-.57.2-.88-.81-.45-1.34-.25-5.8,1.45-1.61,1.77-.95,1.77-.06,1.64,1,4.61,4.91,5.68,4.65.82.41,2.46.53,2.72,1.15.37.2.82-.27,1.27-1.14.63-.27,1.26-.07,1.89.61,1.14.13.76-.27,1.51-1,.82-.13,1.65.6L315,26.77l1.71,1.68,1.57,3.71L319.46,34l1.39,1.08,1.77.54,3.85.34,2.84-.74,2.21-1.42,2.21-.94,3.15.34,2.78.94,2.46.47h.06l2.34-.34,2.4-1.48,3-.87,2.52,1.68,2.34,2.56,2.4,1.62,2.2.94,2.59,1.68,2.21,2,1,2,1.08.8,1.51-1.75V42.8l1.39-.94.76-1,.31-1.28.06-1.82.64-3L371.1,33l-1.71-4.44,1.39-2.49,2.15-2,1.13-1.34,1.45-1.42,3.22,1.21,2.91,2,.06.07.88,1.15,1.33.74,3.09,4,.7.47,1.58,1.82L392,34.18l9,10.1,2.72,1.08.63,1.35.19,1.75.44,1.88.57.81,2,2.22.44.27,1.64,1.69.13.4,9.21,12.19,1.08,2,2.71,4.18,1.14,3.44.12,1.07-.25,1.15-.82,2-.19.94.76,3.44,3,7.27.88,5.32.76,2.16.19,1.21v1.08L426.46,114l.44,2.16,1.76,3.17.38,1.81-.19,1-.88,2.29-.19,1.21.06.54.13.81.44,1.34.57,1.35.76,1.15.76.33h.82l.31.07.32.13.25,1.15-.06,1.89.25.6,2,2.49.88,2,.06,2.16-1.2,2.09.57.94.19.4.38.61.57.47.57.68.25,1.28-1.14.94-.57.81.38,2.62-1.2,6.2v4.45l-.19,1-1.7,4-.88,1.14-1.83,2.56-.45,2.49.38,2,1.26,4.11.26,2.43.69,1.75,4.42,4,.51.94.25.88.44.67,1.64.41.76.54.57.8.25.88.25,2.29.82,2,1.2,1.42,1.45.94V201l-.5.33-.82.61-.51.34,2,4,.57.81.63-.14,1.2-1.08.63-.27.76.14,4,1.41,2.27,1.28,1.7,1.62.7,2.09.38.74,1.76,1.55.76,2.69.89,1,.88.81.38.74.19.61.44.87.44,1.15.25,1.48V229Zm-24.93,42.57,1.95.07,2.09.81,1.51,1.07.76,2-.32,2.5-1,2.49-1.45,1.88-2,1.15-2.08.4-1.83-.67-1.14-2.09-.06-2.09.63-2.35,1.71-4.31Zm-12.25-2.22.13-.07,3.28-.74,2.71,1.68,1.27,3.1-.89,3.44-1.89,2-1.39-.07-1.2-1.35L427,276.52l-2.46-3-.25-1.69Z" style="fill:#efc441"/></svg>