<svg xmlns="http://www.w3.org/2000/svg" viewBox="0 0 800 800"><polygon points="40.36 537.93 41.11 538.32 42.06 538.47 43.02 538.35 44.87 537.65 45.82 537.46 46.48 537.84 48.33 539.59 48.81 539.84 49.14 539.3 49.38 538.54 49.7 538.28 50.51 538.51 51.38 538.51 52.24 538.25 53.02 537.68 54.03 536.18 54.66 535.61 56.42 535.23 57.19 534.75 57.85 534.18 58.21 533.54 58.36 533.09 58.6 532.77 58.84 532.52 58.98 532.3 59.13 532.23 59.46 532.14 59.7 531.98 59.7 531.69 59.4 531.25 59.28 531.02 59.22 530.74 59.46 529.02 59.7 528.16 60 527.43 60.09 526.53 60 525.87 59.67 525.32 59.16 524.91 58.87 524.91 58.66 525.13 58.36 525.23 57.94 524.91 58 524.66 58.12 523.22 58.63 521.31 58.66 520.8 58.54 520.17 58.48 519.72 58.6 518.7 59.43 516.15 59.67 513.89 59.85 513.13 61.31 509.82 62 506.41 62.56 504.92 63.67 503.61 63.76 503.1 63.76 501.48 64.86 501.63 65.04 501.67 66.2 502.08 67.37 502.18 68.65 501.48 70.2 499.73 70.95 499.28 72.08 498.9 72.59 498.64 72.98 498.2 73.1 497.94 73.13 497.72 73.1 497.46 72.98 497.24 72.8 497.11 72.65 496.99 72.56 496.83 72.47 496.64 72.59 496.6 72.98 496.54 75.49 497.11 76.5 497.56 77.6 498.58 81.63 504.79 82.47 505.77 93.48 514.37 94.91 515.84 96.11 518.32 97.72 520.01 99.15 522.33 99.54 521.53 100.22 518.83 100.58 518.07 101.78 516.89 102.25 516.06 102.67 514.31 103 513.54 103.69 512.81 104.16 512.62 104.61 512.62 104.97 512.56 105.45 511.79 106.16 511.35 106.49 511 106.85 510.01 106.79 508.04 106.97 507.11 107.44 506.63 108.13 506.57 110.76 507.02 112.58 507.02 113.44 506.89 113.56 506.86 115.02 506.32 115.74 506.22 116.58 506.41 117.23 506.28 121.68 506.35 122.9 506.6 124.99 506.44 125.59 506.51 129.32 508.1 129.71 508.1 130.51 507.94 130.84 507.97 131.74 508.42 133.32 509.5 134.33 509.82 136.09 509.88 141.16 509.09 146.21 509.56 147.88 509.12 150.35 507.59 151.22 507.21 153.34 506.73 164.17 506.25 163.63 503.61 162.95 500.62 162.95 499.21 163.6 497.97 166.26 494.57 167.1 493.99 168.17 494.5 168.29 496.03 167.69 499.28 167.42 503.64 174.97 503.64 176.5 503.64 181.84 503.64 182.49 503.64 186.52 503.64 189.48 503.64 192.7 503.64 196.19 503.64 199.92 503.64 205.74 503.64 211.98 503.64 218.57 503.67 225.46 503.67 232.59 503.67 239.88 503.67 247.28 503.67 254.77 503.67 262.23 503.67 269.63 503.67 276.94 503.67 284.04 503.67 290.93 503.67 297.53 503.7 299.47 503.7 303.76 503.7 309.58 503.7 312.96 503.7 316.12 503.7 319.07 503.7 321.82 503.7 327.67 503.7 334.53 503.7 334.56 503.7 334.56 503.74 334.59 503.74 334.62 503.74 334.65 503.74 334.68 503.74 334.71 503.74 334.74 503.74 334.74 503.7 334.74 503.67 334.74 503.64 334.8 503.39 334.83 503.16 334.83 503.1 334.86 502.91 334.92 502.69 335.72 498.07 336.56 493.45 337.37 488.8 338.2 484.19 338.98 479.67 339.78 475.14 340.59 470.65 341.36 466.13 341.63 464.7 341.57 464.41 341.54 464.1 341.33 463.84 341.13 463.62 339.36 462.34 337.57 461.04 335.87 459.76 333.93 458.36 332.32 457.19 330.62 455.91 330.23 455.18 329.85 454.42 329.67 452.47 329.22 448.18 328.8 443.84 328.35 439.55 327.94 435.22 327.49 430.88 327.07 426.59 326.62 422.26 326.2 417.93 325.76 413.63 325.34 409.3 324.89 404.97 324.47 400.64 324.06 396.31 323.61 391.98 323.16 387.65 322.74 383.32 322.3 378.86 321.85 374.4 321.4 369.94 320.98 365.49 320.54 361.03 320.09 356.57 319.64 352.11 319.19 347.65 318.75 343.17 318.3 338.71 317.85 334.25 317.43 329.76 317.13 326.96 316.87 324.12 316.6 321.32 316.3 318.52 315.64 311.87 315.01 305.82 314.39 299.77 313.76 293.75 313.13 287.7 312.51 281.65 311.88 275.6 311.25 269.55 310.63 263.47 310.09 258.25 309.79 255.41 309.14 249.14 308.48 242.9 308.18 240.03 307.55 234.17 306.93 228.32 306.33 222.46 305.7 216.57 305.11 210.71 304.48 204.82 303.85 198.93 303.26 193.04 302.63 187.15 302 181.26 301.41 175.37 300.78 169.47 300.15 163.58 299.56 157.66 298.93 151.77 298.33 145.85 297.71 139.93 297.23 135.31 297.08 134 296.48 128.08 295.86 122.16 295.26 116.24 294.63 110.31 294.01 104.36 293.41 98.44 293.08 95.38 292.4 88.69 291.71 81.98 291.38 78.92 291.35 78.63 290.93 74.65 290.52 70.7 290.1 66.79 289.68 62.84 289.26 58.92 288.85 54.98 288.43 51.03 288.01 47.11 287.56 43.16 297.23 43.16 306.87 43.16 316.54 43.13 326.18 43.13 335.84 43.13 345.48 43.13 355.15 43.13 364.79 43.13 364.82 43.13 368.13 45.49 371.47 47.84 374.79 50.2 378.13 52.56 382.96 56.15 386.42 58.73 389.91 61.31 393.38 63.89 396.87 66.47 400.33 69.02 403.82 71.6 407.28 74.18 410.74 76.75 414.23 79.33 417.69 81.88 421.19 84.46 424.65 87.04 428.14 89.59 431.6 92.17 435.06 94.71 438.55 97.29 442.31 100.09 446.1 102.86 449.89 105.67 453.65 108.44 457.44 111.24 461.2 114.01 464.99 116.81 468.78 119.58 472.54 122.35 476.33 125.15 480.09 127.92 483.88 130.69 487.64 133.5 491.43 136.26 495.22 139.03 498.98 141.81 502.77 144.61 506.53 147.38 510.32 150.15 514.11 152.92 517.87 155.69 521.66 158.46 525.42 161.23 529.21 164 532.97 166.8 536.76 169.54 540.52 172.31 544.31 175.08 548.1 177.85 551.86 180.62 555.65 183.39 559.41 186.16 563.2 188.93 566.99 191.7 570.75 194.44 574.54 197.21 575.13 197.65 578.3 199.98 582.09 202.75 585.88 205.49 589.64 208.26 593.42 211.03 597.18 213.76 600.98 216.53 604.74 219.31 608.52 222.04 612.31 224.81 616.07 227.55 619.86 230.32 624.97 234.05 625.53 235.03 626.34 238.16 626.43 239.21 625.89 244.52 624.91 248.92 624.88 249.84 625 251.05 625.33 251.69 625.92 251.94 626.91 252.07 627.83 252.07 629.56 251.66 630.49 251.66 631.5 251.94 632.13 252.45 633.02 254.14 633.71 255.06 634.46 255.6 636.34 256.21 638.1 256.53 638.87 256.78 639.65 257.32 641.26 257.58 642.99 258.53 645.76 260.76 646.66 262.16 646.93 263.88 646.87 267.51 647.32 268.21 652.51 272.73 653.4 273.21 654.36 273.27 655.13 273.15 655.85 273.21 656.54 273.75 656.96 274.74 657.11 275.66 657.43 276.27 658.39 276.3 658.87 276.05 659.61 275.31 660.21 275.12 660.75 275.22 661.1 275.44 661.43 275.76 661.88 276.05 664.63 277.06 665.28 277.16 666.41 276.62 668.21 274.87 669.19 274.17 670.12 274.01 670.92 274.23 671.7 274.68 674.35 276.94 675.96 278.75 677.34 280.82 679.13 284.23 679.63 284.74 680.29 284.99 681.34 285.25 682.2 285.6 683.75 286.49 684.62 286.71 685.1 286.74 689.06 287.57 691.45 287.67 703.42 290.31 708.94 292.86 711.44 294.96 712.16 295.31 713.74 295.82 714.43 296.17 715.02 296.77 715.2 297.44 714.4 307.19 714.46 309.06 715.02 310.81 715.23 311.1 715.47 311.26 715.71 311.45 715.89 311.87 715.86 312.18 715.62 313.14 715.62 313.58 716.01 314.48 716.55 315.21 717.02 315.97 717.14 317.02 716.7 318.14 715.92 318.81 715 319.32 714.16 320.05 713.77 320.94 713.56 322.82 713.35 323.65 712.43 324.67 711.83 325.08 711.62 325.49 711.29 326.45 710.64 327.5 710.25 328.36 710.31 329.25 711.03 330.33 711.8 331.13 712.67 331.83 713.59 332.4 715.62 333.29 718.19 335.97 719.2 336.67 719.65 336.86 720.28 336.96 721.41 336.89 724.93 335.97 729.5 335.05 736.96 333.52 740.21 332.85 744.42 331.99 751.88 330.46 759.34 328.9 759.34 334.89 759.37 340.84 759.37 346.79 759.4 352.75 759.4 352.84 759.43 358.7 759.43 364.66 759.46 370.58 759.46 376.53 759.49 382.46 759.49 385.07 759.49 388.41 759.52 394.33 759.52 400.29 759.55 406.21 759.58 412.13 759.58 418.05 759.61 423.98 759.61 427 759.64 432.03 759.04 432.48 758.59 432.48 758.23 432.64 758 433.5 757.93 434.36 758.17 439.04 757.97 439.55 757.4 440.5 757.28 440.92 757.31 443.94 757.34 450.34 757.37 454.45 757.37 459.73 757.04 460.85 756.41 461.45 754.5 462.5 753.49 463.33 752.65 464.29 752 465.37 748.09 475.49 747.91 476.8 748.09 478.14 748.63 479.54 748.65 479.6 748.68 479.67 748.68 479.73 748.68 479.79 748.68 480.08 748.65 480.24 748.63 480.37 746.09 483.04 745.43 484.15 745.16 485.01 744.75 489.66 744.42 491.51 743.85 492.91 743.73 493.2 742.66 494.6 741.02 495.55 737.55 496.25 735.94 497.18 732.54 501.16 728.72 503.61 728.27 504.92 727.86 510.39 727.08 510.2 726.84 510.14 722.34 509.31 714.16 507.84 708.94 506.89 707.24 506.92 706.52 507.11 706.22 507.37 706.1 507.84 706.01 508.7 706.01 510.45 705.77 511.09 703.63 511.15 699.42 511.31 695.18 511.47 690.97 511.63 686.77 511.79 682.56 511.92 678.35 512.08 674.14 512.24 669.94 512.4 665.73 512.56 661.49 512.68 657.28 512.84 653.08 513 648.87 513.16 644.66 513.32 640.45 513.45 636.25 513.61 633.02 513.73 631.56 514.12 630.4 514.85 627.44 517.78 623.95 521.22 621.09 524.05 617.45 527.65 616.37 528.19 615.18 528.48 608.52 528.7 607.24 529.21 605.99 529.72 604.79 530.04 604.2 530.1 597.42 527.52 596.05 527.62 593.25 528.67 591.84 528.99 590.38 528.95 584.62 527.43 584.26 527.93 584.26 529.08 584.5 531.47 573.55 527.43 573.52 527.43 567.7 524.88 564.66 524.11 561.94 524.62 559.23 526.38 557.65 527.14 556.42 527.11 556.01 526.5 554.99 523.64 554.57 523.41 553.17 523.45 543.62 523.51 542.16 523.92 541.35 524.53 540.85 524.91 538.52 527.43 529.51 535.86 529.51 535.89 527.96 536.91 526.31 537.68 517.99 539.84 516.11 540.77 501.01 551.18 497.97 551.78 494.89 551.94 491.31 551.66 489.22 551.75 487.94 552.39 487.58 553.63 486.78 565.28 486.6 565.79 486.24 566.11 484.09 567.13 483.25 567.54 482.57 567.64 481.17 567.32 470.99 562.16 467.68 561.4 465.29 562 461.77 564.17 460.79 565.06 458.31 567.99 457.59 568.88 451.15 572.67 449.98 574.68 450.25 574.64 450.37 574.71 450.43 574.8 450.52 574.9 448.82 581.04 448.04 582.38 447.33 584.2 447.54 586.75 448.76 591.23 447.24 591.84 445.75 592.44 445.42 592.51 445.12 592.35 444.79 592.16 444.43 592 443.36 591.9 443.03 592 442.52 592.25 441.78 593.14 441.27 593.34 440.97 592.63 440.82 591.93 440.61 591.49 439.84 590.69 438.76 590.02 437.84 590.02 436.88 590.25 435.66 590.12 433.72 588.56 432.56 588.11 431.69 589.04 432.59 589.77 432.88 590.92 432.7 593.56 432.47 594.67 431.84 596.39 433.36 608.21 432.76 608.62 425.6 609.1 424.65 609.48 424.5 610.82 425.01 612.47 425.04 613.33 424.62 614.1 424.08 614.22 423.54 614.13 421.69 613.84 420.74 613.87 420.44 613.81 420.05 613.55 419.37 612.76 419.07 612.63 418.5 612.73 418.17 612.63 414.62 609.67 412.62 608.4 409.4 605.66 408.59 605.28 406.8 604.77 405.28 604.13 404.6 604 403.73 604.07 402.87 604.03 401.85 603.78 401.31 603.3 401.85 602.76 402.24 602.51 403.1 601.61 403.46 601.49 403.85 601.42 404.15 601.23 404.18 600.72 403.94 600.6 402.89 600.37 402.54 600.21 402.39 599.93 402.15 598.97 402.12 598.91 401.91 598.59 401.73 598.46 401.58 598.4 401.43 598.46 401.28 598.59 400.69 599.32 400.95 599.54 401.52 599.58 401.85 599.83 401.61 600.28 401.04 600.82 400.39 601.26 399.91 601.46 399.37 601.65 398.72 602.44 398.33 602.73 397.17 603.05 396.81 603.24 396.06 603.97 395.61 604.83 394.87 606.74 394.21 607.89 393.38 608.91 392.9 609.19 392.48 609.16 392.06 609.07 391.64 609.16 390.99 609.64 390.21 610.4 389.56 611.23 389.35 611.93 389.68 612.38 390.57 612.92 390.69 613.33 390.39 613.75 389.88 613.9 387.08 613.78 386.36 614.1 385.8 615.66 385.53 616.04 385.32 616.48 385.32 617.06 385.56 617.47 386.81 618.71 387.97 621.42 388.54 622.25 389.8 623.39 390.63 624.48 390.96 625.78 390.81 628.49 391.38 630.62 391.32 631.19 390.39 634.25 389.97 634.82 389.91 634.89 389.38 635.27 388.57 635.56 387.65 635.68 387.05 635.49 385.83 634.7 384.54 634.41 383.08 634.51 381.65 634.92 380.37 635.43 379.92 635.49 379.62 635.43 379.47 635.56 379.2 638.01 379.59 638.8 381.47 640.33 382.19 641.1 383.11 643.33 383.5 643.93 383.74 644.09 383.74 644.28 383.47 644.92 382.84 645.81 382.01 646.67 381.26 647.62 380.93 648.74 382.51 652.78 382.9 654.79 381.62 655.08 381.23 654.69 380.87 654.18 380.45 653.8 379.8 653.87 379.32 654.15 379.23 654.5 379.23 654.88 379.08 655.62 379.14 656.13 379.11 656.41 378.93 656.63 375.08 659.98 376.19 662.24 375.74 662.75 374.46 662.81 372.88 663.77 372.43 664.69 372.34 665.42 372.16 665.93 372.13 666.03 371.23 666.47 370.82 666.5 369.92 666.41 369.47 666.5 369 666.95 368.7 667.56 368.4 668.1 368.04 668.58 367.41 668.99 366.19 669.21 365.44 669.47 364.58 668.7 363.68 668.67 361.8 669.4 360.91 669.4 359.98 669.15 359.03 669.05 358.1 669.47 357.69 669.85 357.27 670.1 356.82 670.2 356.31 670.17 355.54 670.26 353.81 670.23 353.12 670.26 352.49 670.58 351.06 671.5 349.69 671.95 349.03 672.55 347.9 673.96 346.2 675.42 345.33 676.69 345.03 676.98 344.71 677.01 344.47 676.88 344.23 676.69 343.93 676.53 343.66 676.57 343.45 676.69 343.3 676.88 343.12 676.98 341.6 677.24 341.45 677.33 341.13 677.71 340.89 677.78 340.65 677.68 340.11 677.27 339.93 677.2 339.33 677.3 339.04 677.39 339.04 677.62 339.33 678.16 339.57 678.25 340.71 678.96 340.86 679.15 341.63 678.99 341.99 679.02 342.44 679.18 343.3 679.56 343.99 680.01 344.5 680.67 344.82 681.6 344.88 682.43 344.8 683.48 344.41 685.32 344.17 685.8 343.84 686.28 343.6 686.79 343.6 687.33 343.93 687.87 344.35 687.97 344.8 687.9 345.27 687.97 346.82 689.3 347.21 690.96 347.24 694.84 347.45 695.93 347.51 696.53 347.15 696.95 346.2 697.42 345.54 698.06 345.33 698.92 345.63 703.82 345.57 704.59 345.03 705.57 343.66 707.04 343.24 708.12 342.98 710.03 342.53 710.7 341.48 711.4 340.77 711.72 340.02 711.97 335.66 712.55 335.04 712.99 334.89 713.76 334.98 714.17 335.43 716.59 335.16 717.83 336.14 717.58 336.71 718.88 337.54 722.16 338.05 723.15 338.2 723.72 337.6 726.46 337.63 726.84 337.54 727.32 337.28 727.54 336.92 727.7 336.62 728.05 336.41 728.75 335.99 731.27 335.99 731.72 336.23 732.48 336.26 732.86 336.95 733.15 336.5 733.56 336.2 734.33 336.17 735.03 336.47 735.38 336.62 735.82 336.02 738.27 335.01 739.99 334.83 740.38 334.47 742.76 334.23 743.43 333.07 742.95 332.08 742.29 331.55 742.1 331.13 742.1 329.9 742.45 327.49 742.7 321.88 744 318.75 745.76 318.09 746.3 317.58 747.06 317.4 747.92 317.58 750.5 317.07 750.91 315.04 750.15 314.54 750.6 314.36 751.77 314.06 752.76 313.55 753.65 312.72 754.51 308.84 754.54 305.56 753.3 304.96 752.92 304.09 751.81 303.62 751.46 302.96 751.62 302.81 749.86 302.93 749.23 303.47 748.59 303.59 748.65 303.8 748.85 304.09 748.97 304.45 748.85 304.54 748.59 304.48 748.27 304.36 748.02 304.33 747.86 305.41 746.58 304.75 746.01 304.9 745.15 305.56 743.69 304.84 742.79 304.69 742.35 304.78 741.94 305.26 741.11 305.32 740.82 305.14 740.38 304.87 740.18 304.51 740.22 304.03 740.28 303.74 740.18 303.47 739.93 303.26 739.58 303.02 739.36 302.63 739.29 302.27 739.39 302.03 739.29 302.06 738.56 302.24 738.18 303.05 737.51 303.35 737.1 303.41 736.55 303.29 735.98 303.02 735.35 303.38 734.93 303.85 734.68 304.27 734.42 304.51 733.85 304.36 733.47 303.97 733.12 303.5 732.86 302.66 732.54 302.54 732.16 302.78 730.22 302.72 729.55 302.27 729.29 301.23 729.45 300.18 729.93 299.38 730.5 298.54 730.95 297.41 730.89 296.51 730.76 295.56 730.79 294.81 731.21 294.51 732.03 294.43 733.88 294.66 734.55 295.17 734.87 295.71 735.15 296.04 735.6 295.86 736.68 295.05 737.29 293.98 737.48 293.08 737.41 290.69 736.94 289.98 736.68 288.22 735.66 287.32 735.03 286.67 734.36 285.8 732.73 285.2 732.35 284.25 732.7 284.31 732.86 283.71 733.94 283.59 734.01 283.38 734.87 283.29 735.73 283.38 736.14 283.53 736.46 283.65 736.84 283.44 738.97 283.03 740.5 283.08 741.3 283.65 742.22 283.98 742.38 284.46 742.54 284.91 742.76 285.17 743.11 285.17 743.62 284.96 744.04 284.67 744.39 284.49 744.74 284.31 746.27 284.28 746.49 283.89 747.03 282.91 747.38 281.92 747.28 280.28 746.23 279.32 745.92 278.37 746.01 275.8 747.28 274.97 747.41 272.49 747.06 271.51 747.22 271 747.83 269.96 751.55 270.05 752.19 270.52 752.6 271.09 753.02 271.51 753.52 271.6 754.74 271.06 755.72 270.16 756.42 269.15 756.84 268.08 756.87 267.3 756.11 266.64 755.05 265.93 754.16 265.21 753.72 260.91 752.41 257.45 751.87 254.71 751.81 253.99 751.58 253.63 751.01 253.57 749.9 253.87 747.95 253.6 747.25 252.62 747.19 251.43 747.63 251.04 747.76 250.47 747.73 250.41 747.44 250.5 747 250.44 746.49 249.72 745.18 249.54 744.71 249.51 744.29 249.54 743.81 249.51 743.27 249.28 742.7 248.89 742.29 248.47 742 247.96 741.9 247.34 741.94 246.32 743.34 245.96 743.69 245.58 743.85 244.8 743.81 244.35 743.88 243.34 743.75 241.79 742.73 240.86 742.89 240.62 743.3 240.44 743.88 240.24 744.36 239.85 744.51 239.34 744.42 238.95 744.51 238.35 745.06 238.35 745.37 238.15 745.44 237.76 745.66 238.26 746.36 237.79 747.13 236.8 747.73 235.94 747.95 236.5 748.75 236 749.67 235.91 750.37 235.67 750.72 235.34 750.95 235.04 751.2 234.89 751.71 234.74 752.09 233.7 753.49 233.28 753.88 232.89 754.13 232.48 754.32 231.34 754.48 230.92 754.77 230.12 755.47 229.34 755.88 228.42 756.14 227.52 756.17 226.69 755.82 227.64 753.59 227.88 752.48 227.79 751.26 227.49 750.21 227.04 749 226.39 748.02 225.55 747.51 223.2 747.38 222.06 747.16 221.2 746.52 220.96 745.92 220.93 744.67 220.78 744.1 220.33 743.37 220.03 743.24 219.68 743.5 219.02 743.78 218 744 217.05 743.97 216.27 743.56 215.17 741.36 213.86 739.42 213.35 738.18 212.66 728.88 212.48 728.05 211.32 727.58 211.44 726.59 212.33 723.98 212.63 723.6 212.9 723.18 212.99 722.32 212.93 717.45 212.66 716.4 212.01 715.28 211.11 714.39 210.13 713.88 209.62 713.88 208.78 714.39 208.34 714.46 207.53 714.14 207.14 714.08 206.69 714.2 205.8 714.23 204.93 713.95 204.19 713.95 203.05 716.46 202.64 717.2 201.86 717.77 201.14 717.99 200.37 718.09 199.59 718.05 198.85 717.93 197.98 718.02 197.24 718.44 196.55 718.66 195.89 718.18 195.68 717.45 195.86 716.62 196.22 715.83 196.61 715.22 198.61 713.06 199.09 712.13 199.12 711.59 199 711.15 199.03 710.67 199.41 710.13 199.77 709.97 200.64 709.94 201.02 709.75 201.41 708.98 201.65 707.33 202.19 706.5 202.49 706.31 203.38 705.89 203.77 705.64 203.92 705.57 204.34 705.54 204.49 705.41 204.57 705.1 204.49 704.81 204.34 704.59 204.31 704.4 204.75 703.35 205.17 703 206.87 703.41 207.62 703.5 208.51 703.47 209.32 703.19 209.83 702.55 210.07 701.34 209.62 701.12 208.81 701.24 208.01 701.08 207.68 700.38 208.19 699.78 209.08 699.33 209.89 699.11 208.9 698.25 207.59 697.58 204.96 696.72 203.77 696.69 203.23 696.5 202.9 695.8 202.72 694.94 202.52 693.92 202.28 693.35 201.17 694.27 199.98 694.17 197.62 693.03 197.12 692.36 196.64 691.47 196.28 690.51 196.13 689.65 195.18 686.28 194.58 685.83 193.95 685.99 193.27 686.34 192.37 686.47 191.56 686.18 190.85 685.74 190.13 685.39 189.3 685.42 191.5 673.38 191.45 672.84 191.24 672.36 190.94 671.92 190.73 671.41 190.64 670.39 190.7 669.5 190.49 668.7 189.72 667.97 188.79 667.81 187.81 667.94 186.85 667.87 186.04 667.17 185.87 666.28 186.04 665.23 186.7 663.38 186.73 662.33 186.4 661.28 185.84 660.46 185.18 660.07 184.31 660.42 183.78 660.46 183.48 659.91 183.33 659.44 182.88 658.7 182.76 658.23 182.82 656.99 183.3 656 183.87 655.04 184.25 653.99 184.19 652.97 183.69 651.89 182.91 651 181.45 650.2 176.23 647.34 174.38 646.67 171.06 645.94 170.5 645.97 170.17 646.25 169.84 646.48 169.21 646.22 168.62 645.87 168.38 645.81 168.08 645.87 167.36 646.41 165.28 646.96 164.65 647.82 164.89 648.29 165.51 649.09 166.32 649.88 167.51 650.59 167.63 650.93 167.66 651.35 167.87 651.79 168.2 652.02 168.92 652.18 169.16 652.4 169.19 653 169.01 653.9 168.62 654.66 168.05 654.82 168.17 655.97 167.96 656.57 166.95 657.65 164.26 657.18 163.51 657.27 161.72 658.16 161.04 658.7 160.17 659.53 155.25 661.28 153.88 662.24 153.22 662.97 152.89 663.7 152.83 664.5 152.92 665.49 152.74 666.09 152.18 666.89 151.13 668.1 148.71 668.03 147.91 667.78 147.46 667.49 146.77 666.89 146.3 666.7 146 666.7 145.1 666.86 144.69 666.86 143.91 666.44 142.39 665.17 141.61 664.91 140.72 664.79 139.19 663.93 138.39 663.64 137.85 663.38 136.96 662.62 136.42 662.33 135.97 662.24 135.26 662.21 135.11 662.14 134.81 662.05 134.48 661.83 133.88 661.28 133.44 661.06 133.14 661.03 132.06 661.06 131.23 660.9 129.68 660.11 128.24 659.82 127.97 659.53 127.77 659.21 127.41 659.02 125.77 659.72 125.5 660.3 125.38 660.26 125.26 660.01 124.96 659.75 124.87 659.88 124.66 660.33 124.28 660.55 123.86 660.58 123.62 660.77 123.65 661.44 122.99 661.22 122.72 661.06 122.42 660.81 121.86 661.19 120.37 662.52 120.04 662.91 119.62 663.61 117.53 663.42 116.75 663.74 116.69 664.18 117.05 665.14 116.9 665.29 116.52 665.52 116.49 665.96 116.61 666.47 116.61 666.79 115.71 667.46 114.84 667.91 114.37 668.48 114.67 669.53 113.98 669.75 113.08 670.26 112.31 670.84 111.95 671.28 111.8 671.95 111.41 672.81 110.94 673.64 110.49 674.05 109.86 674.4 108.04 674.47 106.79 673.06 105 669.47 103.83 668.23 103.63 667.72 103.69 667.33 104.13 666.5 104.25 666.09 103.95 664.79 103.18 664.09 102.16 663.58 101.15 662.78 99.39 659.85 98.61 659.25 97.54 658.96 96.67 658.99 94.79 659.66 93.78 659.63 93.18 659.75 92.85 660.23 92.29 662.24 91.78 662.84 90.38 663.93 90.35 663.99 90.14 664.25 89.51 665.29 89.18 665.46 88.8 665.49 88.53 665.65 88.23 667.01 87.78 667.91 87.12 668.61 86.44 668.83 85.72 668.86 84.32 669.47 83.48 669.47 82.62 669.15 81.72 668.67 80.86 668.07 80.14 667.4 78.38 664.88 77.6 664.21 74.95 662.94 74.11 662.17 73.34 660.26 74.02 658.86 75.28 657.49 76.08 655.65 76.05 654.57 75.78 652.69 75.96 651.64 76.65 651.22 77.69 651.29 78.53 651.16 78.53 650.24 78.62 648.99 78.92 647.72 78.98 646.64 78.44 645.81 78.35 646.1 77.99 646.67 77.93 646.25 77.63 645.46 77.55 645.08 77.28 644.31 76.95 644.44 76.71 644.95 76.71 645.3 76.38 644.98 75.87 644.03 75.55 643.84 75.07 643.64 75.37 643.36 76.29 642.91 76.38 642.37 76.35 642.02 76.23 641.7 76.2 641.19 76.44 639.7 76.41 639.22 76.2 638.71 75.87 638.45 75.55 638.33 75.37 638.2 75.34 637.53 75.61 637.18 75.93 636.92 76.38 635.68 76.98 635.46 77.58 635.37 77.93 634.76 77.84 634.32 77.4 633.42 77.4 633.2 77.69 632.88 77.78 632.37 77.75 631.8 77.66 631.32 77.52 630.91 77.34 630.59 77.16 630.37 77.1 630.3 77.01 630.27 76.8 630.24 76.62 630.14 76.62 629.86 76.71 629.57 76.86 629.38 76.92 629.19 76.77 628.42 76.95 627.91 77.19 627.44 77.37 626.96 77.28 626.71 77.01 626.45 76.8 626.2 76.83 625.91 77.13 625.75 77.42 625.88 77.69 626.04 77.9 626.04 78.26 625.69 78.56 625.53 78.71 625.24 78.62 624 78.5 623.46 78.32 622.98 77.93 622.57 77.84 623.39 77.52 623.93 77.01 624.16 76.32 624 76.44 623.55 76.56 622.63 76.56 622.22 76.71 622.02 76.95 621.83 77.01 621.61 76.65 621.42 76.47 621.26 76.29 620.97 76.05 620.4 75.46 619.48 75.55 619.22 75.78 618.84 75.84 618.52 75.37 618.33 74.65 618.14 74.11 617.76 73.61 617.34 72.98 616.96 72.23 616.77 71.99 616.01 71.99 614.35 71.58 613.75 71.07 613.24 70.65 612.63 70.5 611.8 70.68 611.29 71.22 610.43 71.31 609.92 71.1 609.45 70.11 608.52 69.04 606.93 68.74 606.04 68.74 604.99 68.41 605.15 67.88 605.31 67.4 605.24 67.28 604.77 67.34 604.1 67.13 603.91 66.03 603.94 65.19 604.13 64.77 604.07 64.33 603.72 64.09 603.24 63.76 602.86 63.16 602.76 62.48 603.14 62.03 603.94 61.79 604.89 61.67 605.82 59.85 607.28 59.61 607.57 59.37 607.54 58.84 607.06 58.66 606.74 58.39 605.82 58.21 605.47 57.88 605.21 56.72 604.61 56.33 604.51 56.24 603.97 56.87 601.46 56.95 600.6 56.66 600.05 56.3 599.89 55.88 599.83 55.43 599.61 55.19 599.29 54.81 598.59 54.54 598.27 52 596.33 51.2 595.34 50.24 593.75 49.7 592.03 48.81 590.18 48.21 589.26 47.62 588.72 51.34 586.52 52.78 584.9 53.49 582.8 53.73 580.89 53.76 579.9 53.49 579.01 52.72 578.05 51.91 577.38 51.2 576.65 50.75 575.41 50.78 573.43 51.73 569.81 52.06 567.89 51.97 566.84 50.36 562.83 49.94 562.13 49.32 561.72 47.62 561.05 47.08 560.57 46.66 559.97 46.3 559.33 46.93 559.08 47.14 558.5 46.84 557.87 42.75 556.27 42.21 556.15 42.27 554.08 42.18 553.12 41.65 551.05 41.56 550.06 41.83 549.24 42.66 548.7 42.96 548.41 43.08 547.9 43.14 547.33 43.23 546.82 43.53 546.34 44.39 545.45 44.63 545.03 44.66 544.24 44.33 543.95 43.88 543.86 43.59 543.57 43.5 543.06 43.59 542.74 43.77 542.39 44 541.82 43.53 541.79 42.81 541.66 42.15 541.34 41.83 540.8 41.56 540.13 40.69 539.3 40.36 537.93" style="fill:#efc441"/></svg>