<?xml version="1.0" encoding="UTF-8"?><svg id="Mayotte" xmlns="http://www.w3.org/2000/svg" viewBox="0 0 598.65 644"><path d="M389.31,596.53c-5.13,0-9.11,.44-11.59,5.5-3.01,6.15-8.66-.33-12.15-1.43-6.73-2.1-11.71,1.22-14.44,7.46-1.1,2.53-.47,4.77-1.2,7.3-.99,3.44-4.55,2.69-4.71-.54-.56-11.47,.72-23.52-12.57-26.82-13.87-3.45-19.52,3.07-16.77,16.2,.47,2.25,.91,4.6,.62,6.91-1.86-.03-3.83,.36-5.01,1.94-1.99,2.68-1.3,6.49-3.53,9.08-2.26,2.64-8.96,6.02-12.44,6.24-6.37,.41-6.04-10.1-8.7-13.92-2.59-3.71-9.32-6.08-13.33-3.01-2.36,1.8-1.45,6.99-5.74,5.37-2.17-4.51-1.66-11.27-3.21-16.29-1.58-5.14-9.05-7.25-14.02-7.25-5.42,0-9.25,14.29-15.72,17.86-1.67,1.11-3.44-10.05-.9-12.36,4.99-4.54,2.34-7.57,2.78-14.73,.44-7.25,7.59-28.47-8.05-24.18-4.32,1.19-5.08,5.85-9.28,7.16-4.65,1.45-11.03,3.23-15.77,1.27-3.98-1.65-2.53-6.58-8.77-5.71-6.85,.96-6.94-2.46-1.44-5.65,4.44-2.57,8.82-4.89,13.84-6.12,6.05-1.48,7.63-6.28,11.94-10.18,6.67-6.04,9.04-20.36,5.88-28.72-1.37-3.63-2.34-8.69-6.95-9.26-3.27-.41-14.88,11.82-14.88,1.28,0-6.85-1.49-6.08-6.42-9.69-4.55-3.33-5.97-9.46-7.6-14.55-1.39-4.32-.83-11.37-4.93-14.12-3.24-2.17-9.97-2.24-8.8-7.74,6.93-.88,14.67-2.12,21.65-1.98,2.79,.06,5.2,1.66,7.99,1.84,2.97,.2,5.26-1.07,8.05-1.64,2.76-.57,9.4,4.05,10.57,6.35,1.43,2.82,.35,6.21,.62,9.19,.39,4.39,1.45,8.51,1.67,12.95,.29,5.82,4.76,8.5,7.8,12.92,3.64,5.31,9.31,4.53,14.54,7.04,5.41,2.59,10.12,4.81,15.92,6.49,6.54,1.89,11.12,7.44,18.16,7.91,3.91,.26,10.66-1.09,13.58-4.04,2.73-2.76,9.26-9.06,9.19-12.13-.06-2.76,.23-5.63-.08-8.37,.93-2.07,3.04-.12,2.5-3.58-1.01-6.48-7.66-10.18-9.59-16.11-.64-1.96,.6-4.12-1.84-5.37-2.12-1.08-4.33-.8-4.85-3.84-1.15-6.66,.16-7.01-5.27-10.95-4.22-3.06-2.91-8.86-5.88-12.69-1.52-1.96-3.82-1.51-5.73-2.78-3.3-2.21-5.8-5.34-8.9-7.79-8.72-6.87-21.11-11.68-23.32-24.04-.83-4.65-1.08-9.4-7.28-9.42-5.9-.02-12.83-4-16.24-8.78-1.88-2.63-7.89-5-6.24-9.32,.79-2.08,4.1-1.72,5.67-2.72,2.35-1.5,2.32-3.16,3.22-5.51,3.56-9.33,26.17-5.32,26.97-10.53,.74-4.8-3.48-5.15-7.05-5.8-4.92-.9-8.6-4.11-14-4.65-5.92-.59-2.86-7.24-.76-10.33,3.91-5.74,3.92-12.99,3.92-19.64,0-10.02-14.72-16.24-8.4-28.47,2.84-5.5,9.43-1.03,12.5-5.1,6.3-8.35-9.53-4.97-12.27-5.23-5.17-.48-7.01-7.35-6.52-11.58,.57-4.95,4.91-6.89,7.26-10.95,1.57-2.7,5.37-11.5,4.22-14.47-2.21-5.67-4.58-8.58-9.94-4.32-10.44,8.27-16.96-10.46-26.56-5.33-4.94,2.64-9.95,1.62-12.57-3.89-1.36-2.86-3.51-2.36-5.71-4.07-2-1.56-3.9-4.35-5.7-6.22-3.28-3.4-6.7-6.6-11.62-7.05-4.1-.38-10.16,5.57-13.77,3.73-2.15-1.1-2.7-4.2-4.32-5.8-2.17-2.15-4.92-2.23-7.53-3.39-6.8-3.04,3.09-10.92,4.93-13.08,5.61-6.57,13.91-13.36,16.88-20.87,5.26-13.35-18.87-7.2-23.91-10.24-4.45-2.68,11.64-15.1,12.58-19.19,1.1-4.79-1.51-10.1,.85-14.67,2.86-5.53,5.22-2.68,9.9-1.64,4.82,1.07,11.79,1.48,14.33-3.49,1.38-2.71,5.25-9.64,7.74-11.38,3.01-2.11,7.56-7.75,3.73-11.58-5.92-5.92-2.94-4.84,4.59-5.85,3.37-.45,11.02,.31,11.55-4.3,.44-3.85,0-13.14,3.32-15.74,3.62-2.85,6.3-6.18,9.91-8.94,1.66-1.27,4.15-2.34,5.27-4.22,1.68-2.8-1.38-7.11,3.51-7.66,5.2-.58,5.51,1.68,9.48-3.4,1.48-1.89,10.52-11.25,10.18-3.8-.17,3.67-9.24,6.65-4.32,10.34,5.36,4.01-1.08,4.69-4.07,5.43-8.54,2.13-28.49,9.65-13.25,18.02,4.75,2.61,9.74,3.77,14.88,4.83,8.42,1.75-6.23,7.02,3.34,8.86,3.04,.58,3.95-.16,5.61,2.36,.82,1.23,2,4.05,3.27,4.83,4.85,2.98,2.95,7.14,5.39,11.66,2.18,4.05,8.42,7.09,12.29,9.36,2.97,1.74,6.16,3.37,9.7,3.37,3.01,0,7.34-1.04,9.09,2.34,1.76,3.4-15.4,8.97-9.93,17.56,2.85,4.47,8.52,6.74,10.65,11.96,1.78,4.35-1.18,13.49,5.29,12.66,2.42-.31,5.49-1.7,7.8-.07,1.86,1.31,2.13,2.52,4.79,2.63,6.25,.25,6.22-3.97,11.56,1.7,11.92,12.66,18.29-6.67,27.34-10.17,5.85-2.26,6.44-1.15,10.18,3.04,2.2,2.47,5.6,8.92,9.92,7.04,5.72-2.5,10.01,.86,15.12-.14,5.95-1.17,8.21-.4,13.25,2.83,3.71,2.37,10.32-.78,14.7,1.28,1.82,.85,4.86,.78,6.16,2.56,.85,1.17-.2,2.83,2.34,2.81,3.15-.02,3.86-4.37,5.55,.93,.59,1.86,1.92,2.26,.7,3.86-1.7,2.22,3.41,5.88,4.45,7.27,3.39,4.53,9.32,4.25,14.55,4.73,4.12,.37,8.16,6.31,10.02,9.56,1.56,2.74,3.86,2.61,5.62,4.75,2.44,2.97,6.21,7.11,7.5,10.76,3.35,9.44-17.23,19.2-9.33,30.78,2.87,4.22,6.46,5.89,6.97,11.75,.73,8.45-7.55,1.28-10.83,3.23-7.17,4.25-21.74,9.38-23.32,18.77-1.55,9.23-6.02,8.53-11.83,13.94-3.39,3.15-11.73,6.93-11.65,12.64,.09,6.87-.27,8.44-6.1,12.48-4.9,3.39-8.57,3.12-10.93,9.09-.89,2.25,.75,3.51,2.11,4.91,2.71,2.79-.06,3.05-.77,5.8-1.42,5.45-4.09,10.78-.42,16.16,1.63,2.39,1.96,4.22,2.88,6.89,.68,1.99-.92,3.94,.52,5.59,1.49,1.72,3.02,4.01,4.77,5.45,1.68,1.38,5.68,.84,6.68,2.87,2.99,6.02,.04,8.57,8.19,9.78,2.86,.43,13.29,4.69,5.71,5.68-1.76,5.71,2.34,13,8.51,13.01,1.87,0,3.92-.96,5.77-.29,2.8,1.01-2.62,4.4-2.91,5.21-2.15,6-.09,13.32-5.18,18-4.57,4.19-11.22,6.99-16.62,10.13-4.19,2.43-9.53,7.22-12.06,11.47-2.66,4.47,.42,16.97,.85,22.23,.2,2.49,9.73,13.47-1.38,8.91-9.44-3.87-13.93-.6-17.91,7.2-2.49,4.87-9.03,4.01-13.35,7.56-3.8,3.12-1.81,13.4,.13,17.2,3.62,7.09,1.38,8.2-6.38,7.77-7.5-.41-9.45,10.93-7.31,16.35,2.53,6.39,9.43,7.93,9.93,15.5,.46,6.82,7.14,9.57,12.75,12.13,3.65,1.66,7.13,2.73,10.39,5.2,2.12,1.61,3.89,4.37,6.67,4.75,3.23,.44,6.91-.98,9.74,1.16,4.72,3.57,1.26,5.04,1.97,9.59M118.98,43.62c-1.61,.46-2.46,2.41-3.36,3.67-.99,1.4-2.13,2.04-3.58,2.86-2.99,1.67-5.88,.7-6.13-2.86-.11-1.64-.15-3.28-.4-4.91-.1-.68-.35-1.15-.71-1.74-.14-.22-.5-.35-.62-.58-.31-.56-.37-1.81-.72-2.24-1.65-2.02-5.87-1.42-8.15-1.14-1.41,.17-3.21,.26-4.22-.73-1.08-1.06-1.22-3.15-1.11-4.6,.33-4.27,3.63-3.56,6.95-4.07,3.22-.5,2.67-4.68,4.89-6.55,2.24-1.89,5-2.47,6.64,.32,2.36,4.01,6.91,6.12,10.6,8.98,1.89,1.47,3.13,3.41,4.9,4.9,.7,.59,2.22,1.23,2.7,2.23,.43,.9,.14,2.97,.02,3.94-2.06,.26-8.09-.94-8.1,2.51m424.68,246.24c-.57,1.25-2.97,.86-4.09,1.21-3.11,.96-5.91,1.27-8.14,3.86-.93,1.08-1.2,2.24-1.64,3.5-.75,2.17-1.85,4.19-2.78,6.24-1.15,2.51-.21,6.07-2.64,7.96-1.15,.9-2.42,.86-3.89,1.01-2.25,.24-2.39,.5-3.86-1.22-1.2-1.4-1.82-1.85-1.95-3.77-.12-1.75,0-3.55,0-5.31,0-1.68,.2-2.63-1.12-3.78-1.24-1.08-2.75-1.83-4.08-2.86-1.21-.93-2.79-1.96-3.7-3.18-1.05-1.42-1.4-3.37-2.22-4.9-2.02-3.75-2.93-6.94-6.86-8.55-1.7-.7-2.86-2.04-4.47-2.87-2.19-1.13-4.23-1.79-6.15-3.38-3.32-2.73-6.7-5.6-6.03-10.43,3.42-1.65,4.7,1.32,7.37,2.68,2.54,1.29,4.95,2.61,7.26,4.19,2.91,1.99,5.66,2.49,6.14-1.62,.19-1.63-.27-2.97-.42-4.5-.07-.77,.21-1.74,.02-2.47-.19-.72-.84-1.1-1.15-1.7-.51-.99-1.05-2.9-.92-3.99,.22-1.84,2.39-1.94,3.7-2.96,1.26-.98,1.97-2.46,2.94-3.57,1.08-1.25,2.6-2.3,4-3.18,1.46-.9,3.12-1.02,4.46-2.12,1.46-1.21,2.41-2.14,3.79-3.72,.85-.97,2-1.71,2.86-2.73,1.27-1.5,1.89-3.27,2.87-4.89,.92-1.51,2.5-3.95,4.07-4.92,2.62-1.63,3.77,.79,4.9,2.67,.55,.92,1.32,1.74,1.85,2.62,1.18,1.99,1.39,2.82,3.78,2.78,2.96-.04,4.44,1.42,4.99,4.08,.53,2.62,.42,5.11,.72,7.77,.13,1.17,.7,2.13,1.33,3.18,.97,1.6,.89,2.36,1.1,4.18,.26,2.21,.73,4.77,1.96,6.59,.81,1.21,2.02,1.37,2.86,2.47,.78,1.02,.61,2.61,.45,3.92-4.41-.14-6.48,4.38-6.47,8.23,.02,4.57,1.86,8.61,1.15,13.4-.72,.35-1.53,.68-2.38,.48m-93.92,14.29c-1.92,0-5.09-.61-6.85,.09-1.85,.74-2.18,3.12-2.55,4.82-.44,2-1.14,3.97-1.21,6.11-.05,1.55,.02,5,1.33,6.02,2.03,1.59,6.15,.15,8.23-.63,2.75-1.03,3.65-2.17,3.92-4.99,.23-2.35-.64-4.13-1.63-6.11-.54-1.09-.56-1.7-.81-2.87-.16-.78-.28-2.19-1.24-2.44" style="fill:#efc441;"/></svg>