<svg xmlns="http://www.w3.org/2000/svg" viewBox="0 0 800 800"><path d="M526.64,343.06l-.66,3.67.24,1-.16.53,0,1.23-.22.52-.27.46-.29,1.08-.63,1.66-.85,2.27-1.37,2.93-3.27,5.62-2.25,8.85-2.27,8.83-1.32,11.47-.09.92-.12,1.08-.2,5.37-.18.46-.42.17-1.67-.17v.16h.64l.52.07.32.29.13.67-.16,2.43h.16l.16-.72.11-1.75.21-.79.26.95-.47,5.36-.39,2.54-.24,4.77.61,7.61-.25,3.24v-2l-.26.3-.71,2.74-.17.38-.79.85-.08.21v.36l-.11.17-.16,0-.63-.18.45.54.07.54-.81,1.92-.09.39.05.38.21.22h.28l.28-.15.19-.24,0-.28-.1-.8L510,431l.24-.35.13,0,.06.26.05.43V432l-.47,2.16.71,2.65-.05.78.1.36.2,1.32.09.29.14.27.59,1.72.07,3.2.26,1,3.51,6.84,2.41,2.95.42.27L519.7,457l.24.12.26.38,1.68,1.15.61,1.1-.06,1.08-.34,1.08-.21,1.15-.13.44-.65,1.17-.28.36-.25.46-.15.6-.16,1.2h-.18l-.3-1.82-.56-1.3-.2-.82-.17-.19,0-.19.39-.45.37-.3.48-.26.43-.1.24.2.24-.43.15-.39.08-.41v-.47l-.2-.44-.47-.43-.93-.65-1.13-1.06-.35-.64-1.27-1.37-1.09-1.7-.53-.44-.13-.26,0-.34-.38-1.77-.28-.6-.62-.45-1.92-3.66-.32-.84.1.6.39.94.2.31.18.49.56,1.44.18,1.07.1,2.19.48,1.75.35,2.25.36,1,1.88,3.56.37.4.38.22.35,0,.34-.16.37-.29.26.33,0,.48-.23,1.08.08.53,1.58,3.38,0,.3.37.14.17.34.18,1L522,473l1.64,3.33,1.67,3.08.24.88.21.44-.13.09-.11.12-.24.32,1.12,2.4,2.73,3.47.79.75,1,.55.46.41.34,1,.36.47.64.63,1.61,2,1.44,1.31.45.51.31.74.22.27.24.23.15.08.25.1.2.23.82,1.51,1.56,1.92,1.52,2.52,1.25,1.57.39.83.82,2.48.27,2.28.79,3.05.26.47.78,1,.12.5-.24.63,0,.36.34.86.16,1,.19.57.27.46.56.35,2,1.74.34.24.59-.27.23.34.08.62.16.48.21.38.33,1.3.28.5.37.46.46.33.58.13h.61l.32.08.16.31.34,1.82.34,1,.42.82.48.67.83.84.55.41.47.17.38,0,.52.16.49.22.29.26,0,.19,0,.7-.59-.33-1.09-.9-1.29-.4-.84-.87-.53-.16-.49.31.51.46.84.43.43.14.22.46.54.5,1,.72v.19l-.39,0-.64-.27-.35-.09-.26.17.09.38.28.38.22.17.39,0,.26-.07.54-.27.08-.1,0-.12.06-.11.26,0,.21,0,2.47.77.53.1.44.26.51.49.5.31.38-.36-.93-.63-1.54-.57-1.27-.72-.11-1.11,1.61,1.27,1.89.77,2.07.38,3.07.1,2.09-.17,1.58,0,.43.09.4.22.82.75,2,1.43.32.37.11.54.21.34.51.22,3.07.52.39.2,1.11.11.49.3.42.74.71,2,.5.82,1.52,1.58.58.74,1.11,2.47.13,0,.75.56.29.14.73.09.77.34.67-.07.66-.17.52,0,.8-.33,3.45-.55,1.69-.48.55-.32.64-.31,1.8-.41.37-.36.47-.26,2.6-.89-.16.27-.23.24-.17.28-.08.36.24.13,1.88-.27.4-.14.32-.22.19-.27,0-.24-.11-.18-.08-.17.09-.24.16-.13.28-.18.12-.12.33.09.33-.07.34-.17.29-.22.16.48.47.08,1.51-.31.27-.29.35-.84-.24-.6-.08-.12-.21,0-.32.1-.3.17-.13.16-.27.22-1.68.56-.14.12-.21.31-.14.11-1,.18-.81.6-.25.14-.26,0-.27.05-.26.26.19-.5.44-.22.45-.17.21-.26.25-.24,4.36-1.73,1-.24,2.54-.33,3.27.1,3.51-.13v.15l-.24.41-.16.19-.24.14.11.22,0,.58.15.24H620l.36-.14.35-.21.21-.17,0,.38-.26.5,0,.37h.16l.33-.54.17-.18-.18-.17.46-.08.15-.38-.18-.41-.51-.21-.5-.08,0-.24.37-.23.5-.13,3.78-.07,2-.53,1.16-.72,1.11-1.1.5-.72.17-.34.1-.26.22-.12.23,0,.1.17.3.81.19,2.52.31.69.16-.74-.19-.39v-.55l.18-1.08-.15-.53-.57-1.21-.07-.34.34-.19.58,0,1.07.07.52-.09,2.41-.6,1.89-.6,2.66-.14,2.47-.24,3-.41,1.9.09.74.19.64.75,1.27.88.14.17v.31l-.14.29-.24.22-.27.07.11-.19.06-.17-.27.12-.29.05-.64,0-.24-.12,0-.28.09-.29-.13-.2-.18,0-.14.05-.47.41-.11,0-.1-.07-.22-.05-.33.07-.06.15.14.12.34,0v.19l-.3.1h-.31l-.27-.09-.26-.2,0,.15,0,.11,0,.12.08.15-.19.17-.15.19-.1.24-.06.28.11-.11.39-.24.42.36.24.12.3.07.52-.17.32-.05.14.12.15.34.37.29.48.23.42.1-.63-.52-.64-.41-.5-.53-.15-.82.47.25.27.23.29.08.56-.22-.3.53.32.12.32.19.23.28.09.3-.33-.17,0,.09v.07l0,0-.11,0,.42.3.93.29.26.31-.07.36-.59.75-.15.39.2.35.43.44.47.36.27.09.24-.41-.09-.38-.23-.39-.16-.5.19.2.23.14.27,0,.27,0-.24-.34-.33-.33-.21-.34.16-.39.59.32,1.43.41.69.33.45-.16,1.06.3.6,0,1.14-.16.54-.15.41-.24,0,.38.16.25.21.09.22-.17.05-.29-.18-.79v-.35h-.16l0,.14-.08.19,0,.21h-.26l-.61.3-.11-.13.11-.26.53-.63.18-.18.54-.32,1.34-.52.67-.41.37.14.42-.09.38-.18.29-.21.21-.28.39-.8.13-.17.78.07.41,0,.17-.14.18-.27.91-.28.36-.27-.4-.17-.31.05-.58.32-1.12.31-.32.23.75-2,0-.8-.47-.79-.4-.39-.19-.09-.28,0-.24.06-.09.18-.07.17-.16.1-.48-.14-.66-.92-.46-.17.32-.62.48-.57.54-.43,1.1-.39.7-.55.65-.65.38-.53-.56.14-1.53,1.28-1.52.82-.61.55,0,.6-.23.12-.11-.12-.53.4-.29.08-.45,0-.47-.05-.05-.19.53-.67,1.21-1,1.51-.87,2-1.34,2.81-1.32,1.93-1.83.48-.26,1.06-.43,1.83-1.28,1.87-2.47.48-.38.77-.27.79-.69.62-.87.29-.86.37-5,.23-1.1.05-.53-.05-.58-.08-.42,0-.42.15-.62.45-1.1.45-.75,1.36-1,2.11-1.58.91-1.06.23-1.1.09-.35,0-.46-.12-.46-.7-1.41-.07-.31v-.24l.07-.53v-2l.23-1.3-.07-1.44,0-.58.29-1.46,0-1-.35-2.15,0-1.15.55-2.21.18-2.52.24-.7,1.31-1.61.33-.62.28-1.41.6-1.51.06-.87h-.17l-.32,1.44-.42,1-.07.21-.11.61-.3.76-.45.62-.58.24v-.18l.46-.66,1.47-4.72L686,474l.4-.41,2.63-1.73.5-.41,1.54-.6.81-.71.5-.25.28-.09.73-.08,1.24-.5,1.43-1.08.4-.17.41-.07,2.37-.91,2.54-.46h1.86l3.26-.6,4.47-.48,1.93-.59.93-.12.56.17.24,0,.24-.07.5-.24.16,0,2-.36,1.54-.48,1-.12.45-.12.83-.36,2.85-.7.83-.57,1.45-1.42.46-.21,1.47-.17.45-.15.86-.41.47-.14h1.83l.4.09.81.37.41.09.42-.05.76-.26,1.3-.14.42-.13.3-.24.35-.14,1.52,0-.47-.19-.56-.14-.57,0-.8.46-.95.23h-.19l.11-.2.48-.29.52-.19.64-.12.52-.24.22-.05.34.05,1,.29h2l.54.07,1.46.65,1,.29,2.08.31,1.41.41.08.09-.21.19-.24.08-.29,0-.29,0-.21-.16-.37-.17-1.63-.31-.5-.15.56.48.71.39.78.28.78.1h1.6l.76.17.38,0,.39-.19-1-.05-.48-.12-.37-.28.11-.13,1.58.22,1.32.5.53.05.69,0,.19,0,.08.12.1.19.16.15.3.05-.16.11-.14.06-.12,0-.08-.14h-.14l.22.31.44,0,1-.16.5.07,1.35.48,1.45-.07.38.16.37.2.45-.07,1.69-.77.24-.24.32-.51.16-.23.13-.24-.05-.24-.11-.22-.05-.2.05-.21,0-.15-.08-.12-.36-.14-.53,0-.56.17-.51.31-.39.34-.43.26h-.56l-.58-.15-.45-.19-.16.17-.13-.36,0-.17-.38.2-.61.52-.47.17,0,.12,0,0h0l.1,0-.24.1L755,461l-.09-.23,0-.34.72-.63.24-.28.16-.14.18,0,.56,0,.74.12.23.12.48.11.66-.19,2.58-1.34.53-.1,1.59.55.41.25.67.71,1.24,1.9.11.27.16.21.1.22.11.53.15.18.2.12.26.08.08-.32.23,0,.49.17.6,0,.26.12.35,1.34.06.32,0,.4-.23.65,0,.31v1.28l.19,1.7.56,1.2,1.16-.14-.06.24-.07.16-.09.12-.5,1.18-.11.19-.29.7v.17l.13.24,0,.14,0,.21-.08,0-.1,0-.12.07-.13.1-.37.12-.13.12-.11.2-.05.21,0,.58-.06.29-.4,1.41-.58,1.37v.26L766,480.68l-2.19,2.59-.48.86-.26.29-1.3.84-.35.4-1,.65-1.28,1.42-2.78,4.32-.28.86-.3.08-.15.18v.22l.13.24-.72.53-.48.65-.33.77-.51,2.08-.13,1.11.08,2.2.18.58.53,1.06.11.57,0,.27-.19.95-.12.12-.16,0-.16.15-.3,1.15-.13.35-.08-1.08,0-.3.08-.12.26,0,.16-.17.19-.07.11-.26.05-.32,0-1-.41-.4-.1-.24-.05-.42-.06-.19-.18-.09-.16.07-.08.21.05.2.19.22.08.19.1.84,0,.36-.08.24.13-.12.1-.1.24-.14L753,505l-.21.23-.11.1-.16.2-.2.16-.17,0-.21-.22-.18-.14-.18.07-.17.38-.37,0-.47.72-.43.91-.24.74-.42.8-.27.84-.21.29-.31-.05.26-.17.24-.34.11-.4-.14-.34-.24.05h-1.26l-.25-.05-.15.33-.08.51v.55l.07.41.24.38.67.44.05.24.18.11.22.07h.27l.28,0-.15.41-.06.75-.11.47.46-.05.29-.28.26-.39.29-.36.25-.16.68-.22.34-.17.66.2.49.31.13,0,.16-.09,0-.15,0-.17.08-.14h.23l.14.14.15.06.14-.2.1.07,0,.07.06,0,.1,0-.31.16v.19l.63-.17.34-.52,0-.5-.35-.06.14.27,0,.19-.25.08h-.72l-.64-.1-.31-.1-.32-.16h.47l1.44.2v-.19l0-.15.18-.65,0-.45.45.95.2.56-.09.26-.16.26-.23,1.71-.26.52-.33.44-.39.34-.4.12-.16.11-.64.7-.21.12-.84.14.42-.14.18-.26.06-.31.15-.36-.84.24-1.08.6-.88.83-.27,1h.16l.17-.53h.15l-.19.41-.34.41-.16.31.37.12-.48,1.08-.17.6.26.27.42.11.22.18h.25l.48-.45.61-.79.26-.46.09-.45.24-.36.58-.17,1.09-.08-.46,1.06.27-.26.24-.34.31-.27.46,0v.17l-.46.26-.37.39-.61.94-.26.64-.27,1.39-.28.48.2.6-.32.8-.5,1.27-.53.86-.47,3.39-.83,3.19-.44.72-.54.71-.47.78-.32.95-.11,1.13.11,1.15-.05.55-.31.53-.14.41-.1,1.82-.21.58-1.12,1.77-.13.37-.08.4-.32.8-.06.4v1.69h-.18l0-.68-.11-.57-.39.5-.27-.1-.1-.36.21-.19.18-.31.14-.65.07-.67V544l-.08.27-.12.26-.14.22-.13.18-.14-.31.08-.24.14-.29.07-.42,0,0-.36-.43v-.12l0-.22v-.24l-.1-.21-.64-.15-.06,0-.13-.1,0-.22.11-.19.07,0-.1-.41-.11-.27-.23-.16-.46,0-.63-.17-1.22-.72-.56-.17-.24-.19-.05-.4,0-.41,0-.15.79-1-.16-.58.24-.55.37-.5.19-.43.05-.24.23-.41.06-.31-.06,0-.12-.12-.11-.16-.05-.13,0-.18.06-.15.07-.1,0,0,.11-1.06v-.57l-.2-.43-.24-.37-.16-.45-.14-1-.55.46-.58.67-.46.74-.2.7,0,.38-.12.43-.18.38-.21.15-.16-.19.06-.46.13-.52-.06.19-.28.31-.41.12-.57,0-.19.12-1,.94-.15.19-.11.24-.07.27.45-.2.47-.4.4-.49.28-.52.14.47-.1.32-.17.34,0,.48.13-.2.19-.24.24-.19.24-.07.24.14-.16.19-.25.17-.13,0-.57,1.25-.54.76-.64,1.27-.12.41-.51.81-.19.48-.29.05-.1,0-.1.08V540h-1.59l-.17.05-.15.07-.13,0-.17-.12-.23-.23-.13-.05-.16.05-.26.14-.46.17-.21,0-.24-.09-.21-.12-.24,0-.72.6-.18.19-.13.29-.13.77-.21.63-.09.65-.08.3-.29.48-.73.89-.22.41-.1.44,0,.42,0,.08-.08.31-.22.38-.29.24-.67.34-.68.51.08.09.08.36-.06.29-.6,1-.06.26-.07.58-.08.28-.22.37-.27.24-.33.19-.35.31-.11.24-.34,1-.22.28-1.19.94-.12.19-.09.56-.15.21-.21.07-.94-.59-.31-.24-.32-.72-.23-.06-.25.06-.29,0-.39-.33-.35-.41-.39-.36-.49-.19-2,.76-.5.75-.18,1,0,2.27-5.16,0H693.3l-5.16,0h-16.5l-.49.13-.19.23v7.11l0,7.1-10.29-.09-.18,0-.1.41.55.26.72.15.36.21.19.61.48.09.63-.1.64,0,.26.24.19.4.14.48.05.39.08.17.48.12.23.14.1.19.11.44.11.26.21.36.84,1,.24.1.56,0,.24,0,.13.17.13.49.08.23.83,1,.13.28.1.53.29.27.9.33.13.12.3.34.11.07.24-.1,0-.24L671,581l0-.11h.42l.32.07.05.19-.37.43.48.26.68.72.43.27,1.62.53H675l.22-.19.32.19v.17l-.08.31.34.29.85.45.34.29,1.59,2.42.32.93-.32.6v.17l.21,0,.11,0,.08-.08.07-.18.32.21-.08.36-.15.45.08.41-.19.39.21.1.35,0,.28.17V591l-.16.19-.21.18-.13.24.29-.08.39,0,.32.06.15.09.12-.07.61-.19h.23l.1.55.16.22.56-.27.26.07.22.17.13.14.13.29,0,.22.06.14.74.1.24.12.18.12.13.07.27-.05.21-.09.13,0,0,.36V594l0,.14.27.48-.35-.11h-.33l-.22.13-.06.36h.16v-.18h.16l.19.32-.13.41-.35.36-.44.14-.16.1.24.17.34.14.15,0v.27l-.15.06-.19-.06-.15-.1v.14l0,0h-.12l.1.13.14.29.08.14-.3,0-.06,0-.12-.11-.25.31,0,.26.24.19.3.14-.27.13-.29.24-.16.35.08.49.69.4.15.25-.52.24v.16l.31.31-.56.49.08.45h.17l.1-.1,0,0,.07,0,.12-.07-.06.23-.16.36-.08.13h0l-.41.18-.47.05h-15l-3.25,0h-6.46l-3.24,0h-1.06l-.39.2-.27.38-.53,1-.43.81L651,606.7l-1.62,2.95L647.52,613l-1.85,3.38-.88,1.61-.74,1.34-1.14,2.09-.44.79-.14.45v.48l.17.41,3,4.2-.45,1.13-.24.29-.32.14-.29,0-.31.1-.27.3-.08.84.07,1.59-.26.77-.5.6-.11.31v.53l.07.23.21.61v.21l0,.38,0,.18.41,1.26,0,.48-.08.39-.51,1-.52,1.51-.42.53-.46.09-.11-.12-1.31-1.65-1.78-1.76-3-3.14-4.49-4.92-2.94-3.5-.37-.65V625l.38.24,1,.34.21.23.05.48.15.48.25.37.37.14-.26-.51-.19-1-.27-.45-.34-.22-.48-.22-.5-.1-.38.1-.07-.45-.24-.07-.14.19.3.33-.38-.07-1.4-1.18-1-.41-.45-.31-.35-.72L622,620.74l-2.15-2.57-.42-.74-.27-.34-.69-.28-5.68-5.1-.41-.21-3.94-3.34L606,606.44l-4.32-2.69.29-.14.56,0,.27-.07.17.27.25,0,.29-.17.28-.33-.47-.62-.27-.56-.31-.47-.58-.29-2.81-.65-.72-.39-.24-.21-.44-.39-.32-.38-.14-.34-.13-.74-.36-.15-.46.18-.5.28-.95.14-1-.31-1-.57-.81-.67-.53-.6-.32-.22-.51-.09-.42.17,0,.38.1.46,0,.4h-.16l-.21-.12-.1.09,0,.15.2.09.29,0v.13l-.21.14-.32,0,2.15,1.52,1.24.57.64-.17-1.79-.7v-.18l.62.06.94.37.45.09.6,0,.25.06.36.17.8.51v.19H596v.19l1.67.38.71.27.61.48.61.93.27.22.79.34.34.21.16.32-8.92-3.85-.34-.28-.78-.5-1.13-.24-2.18-.06H588l-1.26,0-.61-.09-.4-.22-.4.17-.48,0-1,0-.5-.1-.14-.26.1-.29.3-.24,2-.67.9-.67.14-1.13-.24-.29-.92-.28-.37-.22-.2-.17-.18,0-.18,0-.17.07-.07.41-.08.12-.11.07-.29.08-.08,0-.27.26-.15.18,0,.09-.66.34-.34.14-.38.65-.31.28-.27-.47-.1-.27,0-.33.26-.24.35-.22.21-.26-.26-.41-.33-.39-.1-.29,0-.28-.11-.38-.16-.2-.3-.29-.32-.28-.26-.1-.63.1-.54.31-.47.45-1,1.61-.24.17h-1.37l.14.46-.19.14-.29,0-.14.16-.28.42,0,.26.48.19,1,.26.81.08.8,0,.68-.05.28,0,.49-.12.22-.18.42-.49.18,0,.14.39-.72.36-1,.26-.69,0,.8.26,2.14-.07.68.26.35.58-.13.14-1.22-.38-1.8.05-1.24.26-1,.13-.6.16-1.11.17-.88,0-.46-.1h-.31l-.31,0-.16.14,0,.16.12.18-.28.12-.63-.1-.24.24h-.82l-.32.28,0,.34-.48.15-.29.24,0,.28-.1.1-.3.07-.18.2-.75.12-.37.24-.6.83.13.51-.27.16-.36.32-.61.24-.06.36-.15.26-1.36,0-.1.24-1.78.2-.21.31-.64.09-.13.32-1.13.45-1,.08-.63.14-.53.1-.37.23-.18.15v.29l-.51.07-.53.14-.58.17-.72.19L556,608l-1.69.41-.19.27-.82.22-.66.42-.5.12-.61.44-.28,0-.12.17-.25.12-.25-.12-.25.26.05.36-1.85.89-.76.51-1.19-.07-1.75,0L544,612l-.69-.12-.37.36-.55.25-.37.29-.45.07-.49,0-.55-.12-.16.16-1.35-.55-1.58-.76-2.87-.56-1,0-2-1.28-1.43-.45-.72-.17-.63-.57.1-.08-.41-.69-.32.07-.62-.33-1.37-.89-1.06-.41-1.41-.41-.45,0-1.42-.28-.54.29-2.12-.27-1.66-.58-.64.15-1.38-.34-1,0-.31.19-.21.19-.86-.17-1.27-.27-.45-.23-.45-.37-.58-.21-.24-.21-.21-.17-.15-.08-.38-.29-1.58-1.22-.86-.57-2.45-1.42-.85-.29-.75-.36-.44-.48,1.4.41.72.09.33-.33-.36,0-.32-.25-.32-.21-.31.26-.46-.22-.5-.14,0,0-.06-.12-.1-.12-.14,0v0l-.11.12-.16.12-.16,0-.45,0-2.35-.79-3-.59-1.48-.56-.54-.24-.32-.07-.18-.07,0-.08-.32-.16-.07-.07h.08l.07-.1,0-.26-.38-.51-.87-.79-1.85-1.82-.87-1.33-.69-.74-.08-.21-.21-.1-.33,0-.36-.09-.17.1-.18,0-.22.09-.36.07-.13.18-.09.21,0,.09-.77-.19h-.42l-.93-.39-4.63-1.56-3.84-1.08-1.57-.39-2.81-.45-1.48-.07-1.13.14-.72-.19-.64-.21-.61-.22-.68-.34-.54-.28-1.27-1-.61-.48-.15,0-.13.16-.26-.09-.09-.15-.23-.11.2-.1.24.14.08-.19-.11-.17-.15,0-.14.09-.2,0h-.19l-.18-.17.16-.07,0-.21.14-.22.11,0,.15-.07v-.17l-.17-.21-.2-.12-.33-.07-.39.16-.24.15,0,.21.23-.07.13.1-.2.22-.33,0-.15-.17-.11-.57-.18-.12-.56-.58-.08-.24-.76-.45L458,580l-1.17-.34-1.22-.48-1.59-.62-2-.82-5.75-2.13-2.08-.74-1.41-.46-1.56-.74-1.27-.46-1.56-.48-1.3-.51-1.24-.42-.8-.44-.39.15-.14-.31.27-.17,0-.51-.43-.46-.74-.76-1.58-1-.24-.58-1.89-1.13-2-.74-1.11-.55-1.45-.51,0-.29.32-.05.06-.47-.19-.34-.22-.33-.9-.8-.69-.1-.65.18-.09-.37h-.29l-.23-.28-.37,0-.09-.46-.37-.18-.69-.2-.08-1-.57-.91-.62-.43-1.11-.91-.26-.63-.34-.33,0-.48-.9-1.09-1.05-.5-.35-.16-1.43-.89-1.37-.63-1.09-.41-1.49.2-.23.45-.47.36-.37.44-.4.24-.32.21-.34,0-.91-.44-1.38-.74-3.1-.94-1.29-.52-.9-.06-2-.74-2.2-.21-1.21-.25-3.21-1.43-2.2-1.15-1.21-.51-.83,0-1.26-.12-.27-.36-.37.11-1.89-.83-.42.06-1.24-.47-.38-.24-.82-.31-.44.11-.42-.31-1-.64-1.75-.77-.58-1.11-1.22-3-.84-1-.19-.16-.22-.29L374,538l-.43-.31-.72-.47-.33-.06-.08-.26.57-.7-.33-.67-.8-.76-1.41-1.51-3.73-2.79-.63-.67-2.6-1.39-2.11-1.11-1.43-.52-.72-.27-.51-.21-.5-.17-.39-.15.07-.81.51-.08.18-.24-.11-.42-.58-.46-.28,0-.24.25-.12-.1,0-.44-.32-.14-.42.05-.17.19.08.38-.19.06-.18-.24-.24-.13-.26.36-.29.25-.29-.58-.82-.38-.4-.29-2.09-.51-1-.26-.87-.44-.27-.18-.1-.27-.08-.36-.19-.07-.26,0-.27-.06-.18-.17,0-.15-.05-.12-.24-.1H348l-.64.17-.52,0-.16-.12,0-.7.13-.7,0-.31-.34-.12-.24.05-.37.24-.17,0-.23,0-.18,0-.14,0-.19.24-1.82-1-.83-.64-.55-.67-.27-1.21-.26-.53-.72-.33v-.21l.11-.49-.07-.28-.12-.19-.16-.17-.13-.15,0-1.44-.69-.65-.3,0-.31.08-.21,0-.45-.46-.43-.33-1.43-1.34-1.12-1.37-1.26-2.23-.69-.77-.18-.48-.25-.32-.68-.64-.3-.44-.6-1.15-1.38-2.11-.14-.5,0-.29-.23-.48,0-.29V497l-.18-1.71-.15-.45-.17-.24-.4-.26-.23-.2-.37-.72-.45-.71-.64-.34-.47-1-.35-.84-.19-.58.37-.43,2.52-1.68,1-.14,1.66,0,.34-.1.4-.26,1.62-.17.74,0,.64-.46.34-.48.46-.19.28-.34.27-.34.16-.5.07-.87-.47-.52-.71-.38-.61-1.49-.74-.72-.46-.2-.2.2-.45.41-.51.14-.74-.39-.85-.07-.84-.5-.45.38-.27-.31.23-.27.27-.3.21,0,.24.08.42-.29.25-.63.21-.38.16-.55.12-.29.14-.15.21,0,.35-.46.5-1,.77-.67.29-.09.18-.34.4-.38.19-.46.16-.38.21-.36.26-.08.18.19h.27l.22,0,.49-.48.37-.46.08-.78-.05-.68-.16-.38.22-.63-.06-.72.38-.57-.22-2.07-.4-1.53.29-1.22.25-.49.39-.72.43-.23-.05-.25-.2-.52-.1-.53-.19-.34-.23-.29-.29-.21-.32,0-.14.32-.32,0-.42-.4-.9-.44L332.94,459l-.53-.31-.8-.79-.34-1.06-2-4.17-2-3.29-.38-1-.19-1.46.22-3.75-.18-1.73-.64-2.39-.56-2-.32-1.35-.31-.81.39-.27-.16-.38-.21-.34-.23-.12-.21.31h-.16l-.22-1.48-.77-1.27-1.9-1.95-1-1.41-.4-.41-1-.65-.16-.15-.05-.09-.1-.09-.1-.12-.06-.18.47-.71-.33.07-.28.14-.26.22-.26.28-4.42-5.85-.19-.17-.43-.16-.26-.12-.45-.39L310,417l-.4-.22-.29.07-.23.17-.22.1-.24-.14-.05-.22.05-1-.13-.36-.84-1.35-.37-.33-.06-.18.29-.21,0-.15-.06-.16-.1-.12,0,0-.85-1.79-.3-.29-.41-.13-.43-.31-.95-.89-.11-.14-.11-.17-.26-.64-.19-.31-.61-.32-.36-.45-.51-.82-.68-.79-.43-.33-1-.36-.25-.54-.21-1.24-.31-.48-.43-.48-.39-.51-.29-1.15-.67-1.27L294.35,396l-1.16-.9-.45-.18-.31-.2-1.23-1.25L287.84,391,286.31,390l-.26-.27L286,389l-.28-.29-.91-.43-.87-.66-1.46-1.41L277,382.77l-.4-.45-.18-.48.07-.27.16,0,.19.14.15.15.08.12v.45l.05,0,1.85,1.05.24.07,3.26,2.17.37.19.26.17.4.21-.26-.22-.7-.45-.34-.24.08-.26.45.21.77.6,0-.09.09-.15,0-.1-.08,0-.17,0h-.07l.24-.31.23-.21.16-.27,0-.5-.1-.38-.87-2.07-.26-.29-.38-.19-.4,0-.37.07-.32.21-.21.31.33.08.63-.26.18.18-.1.24-.62.65-.25.2-.7.24-.42-.32-.34-.5-.48-.32-.45.29-.19.07-.18,0-.16-.08-.48-.4-.13-.22-.07-.17v-.36l-.08-.19-.16-.14-.34-.14-.14-.08-1-1-.29-.1-.36.22-.45-.48-.51-.41-.55-.29-.58-.11.12.28.17.19.36.27.74.82.38.35,1,.6.29.41-.64-.16-1.75-1.15-2-1.86-.23-.36-.08-.42-.11-1-.13-.45-.22-.48-.26-.38-.26-.15-.09-.09-.12-.18,0-.19.08-.09.26,0,.22.08.42.26.18.17.38.29.37,0,.18-.57-.11-.48-.27-.48-.33-.37-.27-.23.29-.27,0-.43-.14-.94,0-.41.1-.36.35-.69-.27-.38-.94-.82-.28-.07,0,.5.3,1.42.07.14,0,.15v.35l-.14.85-.07.93-.06.29-.15.12-.16,0-.09-.05-.1-.08-.11-.14-.18-.1-.08.12-.05.18-.11.09-.85-.58-.74-1-1.85-3.88-.55-.75-.83-.72-.45-.24-.24-.19-.13-.31h.51l.53.12.41.26.17.44,1.45,1.75.26.75.06.14.14,0,.15-.07.11-.09.07,0,.45.33.12,0,.2-.07.08-.2,0-.55-.09-.38h-.22l-.27.09-.24-.18,0-.15.22-.46.08-.12.21-.21.08-.05.1.09.18.25.46.53.39.21,1,.12.79.34.19-.2.08-.31,0-.28-2.43-2.28-.29-.17-.4,0,.19.2v.18l-.2.1-.29.07-.29-.07-.25-.19-.42-.48-.52-.94-.12-.16-.33,0-.24.17-.25.14-.32-.16-.33.21-.59,0-.66-.1-.43-.24-.1-.82,0-.18.17.06.53.37.26.12-.06-.34,0-.79-.06-.34-.21-.28-.55-.25-.21-.21-.58,2.86-.3.45,0-.24.11-1.18,0-.41-.21-.54-.32-.41-.37-.31-.37-.22-2.42-1-1.42-.94-1-.29-1-.12-.83,0,.55-.43,1,.08,1.72.52-.56-.28-.92-.82-.71-.15-1.25.41-.58.05-.34-.46,1,0,.21-.19-.29-.45-.1-.22,0-.21,0-.15-.21-.07-.1.05-.27.24-.2.09.25-.84,0-.38,0-1.27-.05-.37-.14,0-.2.1-.24,0-.82-.34v-.07l0-.14-.05-.12-.15-.07-.13,0-.22.12-.13,0-.42-.07-.29-.1-.16.08v.45l.08.29.12.17.09.17,0,.3,0,.32-.08.19-.12.14-.16.17-.38.27-.32,0-.28-.19-.24-.4.11,0,.16-.07.07-.14-.16-.2-.18,0-1.17.12-.34.17-.06.29.29.39-.66.07-.76-.53-1.15-1.37.49-.24.15-.1.16-.26.09-.31.17-.27.3-.11.79.31.19,0,.24-.11.18.24.13.54.22.12h.07l0-.18.17-.34v-.12l0-.31,0-.12.09-.12.18-.05,1.25-1.28.24-.38,0-.16-.05-.08,0-.12.06-.17.07-.07.13-.07.11,0,.06-.17,0-.86.23-.53.93-.85.11-.55-.22-.41-.27.32-.53,1.08-.33.53-.35.86-.37.36-.56.27-1.14.36-.48.36-.76,1.2-.47.4-.62-.21-.6.36-.4,0-.32-.31-.27-.64-.2-.54-.16-.26-.22-.12-.29-.07L243,351l-.59-.46-.1.12.06.31.13.29.2.22,1.6,1.42.39.57-.08.53-.57-.53-.49-.74-.61-.65-.84-.29-2.6.07-.85-.24.54-.4.65-.2h.7l.68.24,0-.45,0-.46.06-.12.21-.21.05-.13,0-.16-.06-.08-.07,0,0-.08-.19-.31-.45-.35-.52-.27-.36-.1h-.44l-.27.16L239,349l0,1.56-.09.19-.24-.39.11-.48.05-.67-.07-.62-.19-.25-.48-.19-.13-.47.08-.54.27-1,.11-.24,0,0,0-.53,0-.38-.08-.26-.2-.41-.16-.58,0-.5,0-1.18.1-.45.87-1.47.87-1,.4-.54.3-1.1.95-1.84.45-.9.08-.43.1-.28.17.05.08.35-.25.56-.16.16-.15.19-.11.2-.08.19v0l-.1.37,0,.57-.05.27-.11.3,0,.29.11.25.24.07.18-.2.11-.31.14-.82.71-1.39.11-.5,0-1.44.21-.26h.47l.48.16.29.18.18.52,0,.51-.19.43-.27.23v.17l.48.2,1.11,1,.32,0,0-.28-.32-.65,0-.34.18-.17.26-.09.16-.14-.13-.36-.64,0-.55-1.15-.42-.88-.64-.37.09.08.09.12.08.14.08.19-.49-.16-.25,0-.24,0-.66.78-.23,0-.08-.4.32-1.88-.13-1.06-.25-1.05-.52-.63-.86-1.27-1-.77-.68-1.1-.7-.64-.7-.27-.67-.07-.18-.2.26-.07.48.13.53.21-.11-.48-.18-.12.13-.24-.14-.31-.42,0-.32,0-.18-.31-.06-.37-.28.15-.25.22-.15-.49-.38-.11-.29.35-.21.27-.07.31.18.14.29,0,.26.05.08.17-.08.18-.05.18.46.28.26.05,0,.21-.85-.42-1.74-.32-1,.08-.32.24-.07.28-.7-.1-.73-.36-1-.42-.38-.34-1.1-1.25-.59-.94-.18-.93-.17-1-.36-.57-.32-.84L227,317l-.18-.38-.8-1.21.1-.28.21.36.65,1.06.5.36-.59-1.5,0-.55-.17-1.15-.84-1.05-.32-.27-.39-.17-.38-.07-.42,0-.16.06-.19.1-.16.15-.13.16-.2.31-.24.24-.66-.57-1.38-.43-1-.26-.56-.17-.58-.1-.56-.14-.53-.13-.77-.45-.37-.19-.84-1-.74-1-1-.77-.4-.24-.84-.21-.51,0-.05-.27.74.07.62.05.66.08.31-.24-.47-.43-.61-.77-.19-.34.05-.12.09-.19v-.17l-.33-.12-.1-.1-.19-.23-.44.38-.27.16-.24,0-.24-.14-.1-.2,0-.69-.1-.65-.69-.41,0-1.68-.21-.86-.68-1.76V298l.24-.45.42-.18.48-.11.26-.34-.05-.45-.29-.06-.32.17-.18.34.21-.91.13-.2.3-.16.29,0,.24-.09.13-.27-.8-.05-.4-.21-.07-.41.31-.65-.34-.05-.23-.21-.06-.31.15-.34.12.27.16.05.13-.12.13-.53.15-.05.2,0,1.18-.19.3-.24-.11-.53-.48.18-1.37-.58-.58,0,.29.29-.11.13-.35-.06-.73-.52L209,291l-1.66-.43-.83-.07-.82.07-.87.21v-.21l.26-.07.71-.29-.2-.36-.08-.26-.05-.24V289l-.12-.29-.28-.19-.27,0-.13.26,0,.75-.09.46-.24.38-.47.57.35-.06.2.09.09.24,0,.36-.1.36-.22.43-.23.22-.11-.27-.1-.05-.54-.78-.11,0-.37-.05-.16-.08-.12-.12-.08-.16-.09-.15-.18-.12.29-.28.13-.07.21,0-.39-.43-.48-.43-.55-.32-.51.07-.47.15-.43.51-.66,0-.42,0,.07-.26.16-.19-.2-.27-.35-.23-.22,0-.34-.41-.68-.18-.27-.44-.35-.41-.53-.6-.71-.23-.29-.58-.43-.48-.44-1-.75-.84-.2-1.22-.2-.29h-.41l-.14,0-.06-.12,0-.15-.18-.36-.08-.6-.13-.28L191,279.9l-.29-.46-.16-.6.15-.31.22-.28.1-.49-.82.17-1-.34-1.64-.6-1.48-.78-.58-.22-.56-.14-.24-.06-.37-1.12-.42-1.05-.45-1.21-3.75-3.69-.46-.72-.21-.27.1-.19h.29l.25-.12.44-.33.21,0,.16.27.12.28.13.2.23.11.13-.11.09-.25,0-.31,0-.29-.25-.5-.36,0-.43.1-.55-.05-.66-.63-.32-.45-.88-.37-.61-.18-.11-.51-.33-.15.05-.28-.33-.34-.54-.41-.17-.4-.18-.34-.14-.17-.24-.12-.33-.07-.51,0-.37-.1-.1-.17.25-.21.19-.19-.07-.25,0-.26-.33-1.11,0-.64-.31-.12.05-.26.24-.39.21-.31,0-.29-.28-.55-.4-.46.08-.26-.42-.38-.41-.2.32-1.06.05-.69-.31-.75-.35-1-.57-.4-1.18,0-.23.11-.16.15-.05.14.07.22L170,253l-.2-.12-.35-.48-.88-.39-.41-.33-.2-.84.3-.79.51-1.05.18-.54v-.62l-.22-.34-.49-.12-.27-.21-.26-.27,0-.59-.07-.55-.82-.66-.91-.84-.6-1.63-.11-.33-.19-.27-.39.05-.46-.6-.17-.4-.2-1.06-.34-.56-.39-.48-.25-.45-.49-1.58-.25-.39-.4-.28-.17.12-.38-.17-.47.19-.4-.21-.11-.37.29-.47-.13-.48.19-.8.15-.7-.18-.4-.21-.38-.29-.48v-.46l.16-1.46,0-1.56-.26-.7-.35-.5-.39-.46-.3-.32-.47-.3h-.19l-.22-.06-.2.25-.14-.18.29-.53,0-.84,0-1.16-.19-1.08-.34-.78-1.06-1.26-1.67-1.58-1.27-2.09-.91-1.72-.81-3.05-.33-.86.41-.84.26-1.76.06-1.08-.06-.91-.72-2,0-.4.19-.05.16.28.1.3.19.57.34.89.15.1.16-.22.48-.92.05-1.32v-1.24l.12-.93-.5-.42-.52-.83-.59-.43-.68-.05.05.26.36.19.27.15-.1.23-.42-.16-.4-.26-1-.56-.27-.65-.31-.33-.26-.75h-.3l-.39.19-.32.05.27.43.29.19.32.12.21.19-.29.1-.86-.25-3.65-.71-1.13-.29-1.57-.26-.23-.54-.62-.21-.87-.07-.5-.44.15-.16.43.07.23-.22-.25-.81-.38-1.46,0-.85-.59-.88-1.27-1-1-.48-.4-.39-.69,0-1.05-.57-.64-.34-.21-.5-.66.3-.3.08-.33,0-.41-.43-.12-1.08-.35-.22-.06.36v1.51l0,.24.16.22.16.05.13,0,0,0,.23.33-.1.07-.19.07-.39.49-.08.35-.22.15-.31,0-.11.26-.11.16-.1.18-.22.35-1,0h-1.09l-1-.07L126,192.1l-.55-.51-.66-.23-.65-.37-.24-.26-.33-.4-.29-.18-.06-.33-.79-.38-1.22-.75-.45-.31-.38-.07-.31-.51-.77-.28-1.09-1.09-1-1.22-.45-.12-1.72,0-.23-.05-.22-.14-.43-.49-.07-.11-.22-.08-.47-.4-.29-.1-.8-.08-.24-.09-.32-.31-.6-.86-.29-.17-.48-.13-1.37-1-.53-.26-.29-.1-.3,0-.23-.05-.33-.28-.16-.07-.08-.13,0-.33-.09-.33-.2-.15-.12.14v.31l.09.36.34.63.11.12.23.17.17,0,.61.14.41.21.35.27.31.31.24.34.56.14.45.44.32.5.16.45.34.12.16.32.29,2,.19.58.35.53.29.65-.19.55-.84,1-.4.94-.27,1.12,0,3.79-.55,1.68.06,1.54-.25,2.5-.12.53.1,1.17.48.86.6.63.59.46,0,.21-.41.41v.58l.24.48.44.35,1.57.75.39.22.08.16,0,.2.09.28,0,.92,0,.3.08.42-.12.4.13.26.16.41-.09,1.25.13.36.19.46-.15.24-.29.67.23.67.1.45-.15.94.32.84.53.89.29.53,0,.31.06.26,0,.27.13.31.22.5v.39l-.17.48,0,.58.16.47-.11.77-.15.6.13.29-.21,1.41-.18.46,0,.22,0,.31.26.38-.12.38-.16.58-.08.41-.25.38.13.44.19.24.24.55.27.28v.34l.14.41.48.19.18.58.39.46,0,.59.55.91.32.72.25.65,1.22.56.2.77.32.24.74.09.26.45.19.27-.15.72.28.6.16.16h-.16l-.13.15,0,.17.26.16,0,.12v.25l.08.35.26.24.24.12.18-.06.24.11.18.25v.21l.14.19.4.08h.44l.16,0,.19-.15,0-.14,0-.09H124l-.05-.12,0-.14.18,0,0-.12.06-.06,0,.06h.11l.07-.06.13.07,0,.14.08,0,.07.14.08-.05.24,0,.18.12.19.24.16,0,0,.07.27,0,.13.14.06.32.1.16.14.05.07.15.09,0,0,.1.08.05.08.07.11.07.13.07.09.2.07,0,.13,0,0,0,.19.08,0,.21.19.17,0,.15.13,0,.19.21.15.19v.08l.34.14.16.15.19,0,.45.32.08.35.08.12.13.18.1.24.32.06.06,0,.05.17.11.09,0,.07.18.1.22,0H131l.3.25.18.29.19.3.18.17.15,0,.2.4.29.12.2.2.27.33.32.41.4.24.36.36.35.14.27,0,.15.17,0,.41.19.15.28,0,.21.1.17.22.23.06.38.18,2.11,2.51.75.6.29.32.12.5.16.16,0,.15-.37.33-.2.34-.21.27v.29l.23.16.17.08-.06.42.21.27.1-.05.08.15v.21h.24l.13,0v.26l.15.36.25.33.28.07.21.3.14.64.4.72.27.38-.09.32-.24,0-.15.27-.13.12,0,.27,0,.38.29.19.12.48-.05.45-.21.1-.05.19.26.41.14.34.16.38.18.15,0,.26.47.07L143,264l.12-.12-.05-.1.16-.36-.26-.19-.11-.22.18-.09-.07-.17.11-.19.13,0,.26,0,.27.12.24-.26.13-.22.2.29-.07.4.37.32.16-.12,0-.17.42-.17.11.1-.08.14-.1,0-.08.43.63.17,0,.14-.26,0,0,.19.19.21.1.22.21.1-.16.16,0,.27v.36l-.08.22.13.36.32.14-.07.5h.52l.53,0,.19-.19.26-.28.13-.19.4-.15.17-.22.63.12.32.29.15.2,0,.4.23.12.14.17-.08.34.2.19,0,.36-.1.41.29.77.15.07.14.6.32.93.55.43.13.37-.1.64.24.68.11.38.12.53-.07.48.26.64.48.31,0,.17.4.2.56.09.08.26.81.31.72,0,.95-.29.66-.23.4.31,0,.21.25.15,0,.14-.14.22,0,.07.29.07.13-.07.09-.17H158l0,.29.06.21-.16.15-.16.36.1.16.11.42-.11.38-.39,1-.08.64.11.22-.06.43.16.32.27.31.34.23,0,.24.78.89.11.19.19.05.13.15-.18.16-.05.17-.08.41-.11.17-.08.31-.1.82.25.94.06.12.18.09,0,.29-.18.26L159,287l-.05.37.14.4.33.39.4,0,.19.12,0,.36.1.44,0,.14-.2.67.09.5,0,.34,0,.17,0,.21-.13.07,0,.29-.12.44.36.48.37.23.09.22.31.19,0-.14.11,0v.19l.15.36-.07.16,0,.44.23.17-.09.28.13.34.24.33.34.37.19.3.18.08.13.17.21,0h.13l.14.17.1.26.22.19,0,.26.52.3,0,.33.74.36.53,0,.37.1.29.21.43.12.29.12.14.17.29.22.24.21.9.22.34.26.72.44.42.45.05.36.47.46.22.6.11,1,0,.41.27.59.24.46-.06.32.09.33.24.41.39.22.13.42.17.3.39.12.13.31.13.65.3.21.24.6.28.29-.18.53-.11.12-.08.21,0,.2.44.31.3.33.28.31.11.24.22.14.5.05.45.48.61.27.5-.05.08.14.23.12,1,.2.42.55.78,0,.23.07,0,.2.12.17.05.26-.3.14-.31-.1-.38.32-.39.55-.21.57-.06.44-.05.53.37.71.42.3.22.11,0,.24.34.46.13.51.24.14.61.24.13.52.93.82.16.62.06.41v.17l-.26.19-.1.27,0,.28-.29-.18-.35.76.13.53.32.1.53.48.24.43.11.36,0,.23.1.27.43.14.31.31.31.42.33,1.1.53.5.61.38.5-.33.89-.82-.09-.31L185,326l-.52-.72-.67-.62-.32-.17-.25-.44-.64-.38-.3-.69-.16,0-.05-.2.06-.24-.08-.21v-.74l-.13-.32v-.36l-.13-.45.11-.33-.18-.22-.12-.15v-.23l-.09-.18-.12-.19v-.29l-.16-.18,0-.17.4-.07.18-.2.19-.16.55.33.06.24.56.34.55.5.37.58.19.43,1,.76.31-.06.1.31.16.28.17.15,0,.17.51.19.07.17.35.19v.14l.55.24.3.12,0,.19.23.14-.1.65,0,.6.06.63-.14,1.32.11.5.37.26.56.2.5.21.5.12.18-.07,0-.12.29,0v.2l.13.14.32.19-.16.1-.13.22,0,.52-.29.53,0,.72-.05.55.16.51.55.38.24.1.09.14,0,.15-.24.11v.19l.23.27.38.15.29.4.15.43.06.37.08.62-.27,0-.1.7.23.26v.2l.29.6-.1.33.1.45.25.2.15.36,0,.5.19.48.21.43.47.32,0,.31.12.34,0,.28-.14.12-.05.29-.31.24-.09.27.17.43v.67l-.24.36-.3.28.13.51.13.51.24.47.08.24.08.39-.16.31.13.21.06.75.18.14.12,0,.05-.06.18.13.19.28.07.12.13.1-.12.14-.09,0-.12-.1,0-.16-.19-.07,0,.14.09.38,0,.31.05.27.11.21.31.19.26.37.37.12.16.12.19.28.08.2.18.11.11-.11H196l.29.6-.07.17.07.34.13.38.16.37v.4l.08.24.11.43.21.32.26.19.19.58.31.09.12.1,0,.21.16.39.21.12.13.24.22.14h.24l.1-.1.08.08.47,0,.16-.21.05.07-.15.22,0,.12.21.05.1-.12.11,0,.13.12h.18l0-.12h.1l.08.09.29.06.11.24-.17.21.17.39v.18l-.13.12,0,.29-.16.08,0,.31.12.17.16.45.23.19.06.65.1.26.34.63.06.45.18.19.38.18v.16l.21.19.09.2-.08.07v.19l.16.12.16.07-.07,0,0,.14.09.17-.09.12-.08,0-.12.33,0,.17.16.26,0,.29.2.51.21.14.17.48.16.15.07.12-.16.11,0,.48.14.44.26.31.32.14,0,.07.16.13,0,.11,0,.12.13.13,0,.17.08.16.06.38.32.13,0,.14.4.1.13.17-.07.28.11.19.18.2.29,0,.18,0v-.1l.08-.05.16.1.1.17.5.38,0,.15,0,.07v.17l.16.11.05.17v.34l0,.27.28.31.17.31.22.28,0,.17.2.1.13,0,.08.09.08.09-.05,0-.13,0-.06.09.11,0,0,.16.34.26,0,.12.16.12-.08.06v.14l.09.19,0,.07,0,.22.13.19.1.19v.34l.17.19,0,.17,0,.16.06,0h.07l0,.05-.1.19,0,.17,0,.1-.08.36,0,.29-.35.47-.18.44-.1.31.07.24-.13.27-.35.07-.36.43-.13.5-.08.63-.16.47,0,.53,0,.34.1.48.06.26-.14.17.09.26.15.6v.15l.16.31.82,1,0,.31,0,.27-.19.22v.31l.08.23-.11.2.18.26.11.2-.05.24.11.23-.08.32.63.84.05.16.35.22-.08.15.31.66.32.41.11.41.29.17.4.19.1.39.27.14.06.21.53.22.66.22.61.14.77.2,1.19.19,1.24,0,.45,0,.11.05,0,.16-.26.24-.33.15-.41.14-.22-.14-.59-.34-.66-.16,0,.16.2.2-.1.4.19.22.1.24-.13.19.13.33.58.05.51-.19.23.07.25-.11,0-.2,0-.26,0-.19.1-.1.45-.38.41-.51.13-1.06-.27,0,0-.27v-.24l-.21-.11-.14-.1.08-.08,0-.21,0-.24-.13-.07,0,.28-.16.05-.07-.52.1-.15-.08-.17.09-.24-.08-.14,0-.24-.08-.14h.34l.08-.12-.18-.07-.08-.14.21-.19.34-.05.18-.15.11-.23.48,0,.61.14.1-.12.32.19.08.2-.15.09,0,.32.13.19.26.07.21.27.25.09.2.17.19.29v.26l.18.24.08.21.62.18.24.23.23.25.21.06.4.22.3.05.09.09.16.1.08.19.25.08.08.21.31.12.34.24.32.2.25.28.12.56.13.24,0,.35.1.12.13,1.2v.51l.33.21.49,0,.52.22,1-.21.87-.36.42-.24.16-.08,0,.15,0,.28.1.24.24.15.19.26,0,.22-.11.1,0,.24-.32.31h-.13l-.06.1,0,.21-.1.43-.06.26,0,.36.18.51.14.22.19.12.16.09.1.14.16.15.1.09.17.17.31.12.76.92.45.43.22.5.32.24-.27.62,0,.7.16.65.24.93-.05.63.39.45.46.22.42.17.14.19.34.12.31,0,.56.29.18.21.24.1.61.16.4.08.16.16.06.3.37.18.52.1.21.14v.18l-.21.24,0,.36.22.57.58.77.42.43.06.51-.11.43v.35l.31.1,0,.38-.07.29-.29.17.05.27,0,.48.08.28,0,.6v.41l-.19.32-.1.09v.27l0,.55,0,.28-.11.25-.21.45-.06.29-.21.21-.27.44-.47.69-.24.19-.27.51-.23.09-.13.36-.82.36-.25.34-.71,0-.47.26-1.06.39-.51.41-.45.26-.08.38.11.24-.45.53-.64.08-1.05.74-.06.53-.44.43-.28.26-.34.27-.19.05-.62,0-.38.21,0,.2.17.19-.91,0-.47,0-.26-.17-.3-.09-.5-.34-.66-.57-.37-.41-.38-.5-.44-.78-.08-.26-.19-.55-.19-.17-.21-.81,0-.72-1-4-.2-1.73-.17-.78-.25-.24-.18-.25-.56-1-.15-.42-.32-.36-.11-.49-.75-1.37-.26-.28-.71-1.39-1.09-1.06-1.17-.74-2.82-1.32-1.25-.6-1.64-1.39-2.49-2.79-1.46-1.84-.85-.84-.42-.3-.26-.06-.06-.34-.26-.26-.88-1-.52-.42-.78-.7-.53-.38-.17-.36-.53-.51-1-.7-.59-.45-.73-.41-.83-.48-1.25-1-1.26-.69-3.84-2.16-.11-.13.29.06,1.81,1-.33-.41-.9-.51-.76-.38-.37-.1-.42-.31-.19-.52-.85-.8-.45-.29-.55-.11-.7-.6-.57-.82-.22-.94-.48-.9-.1-.27.18.12h.27l-.3-.39-.49-.36-.25-.28-.4,0v.42l.23.39-.31.57-.64-.11-.26-.19-.27.12-.4.09-.53-.09-.36-.12.48.5.5.34-.46.07-.24-.13-.23.12-.27.18-.16-.27,0-.48.05-.29.1-.65-.47-1.37-.33-.86-.41-.41-.46-.55-.47-.64-.54-.44-.29-.38.08-.1.51.39.1-.08,0-.19-.46-.33-.47-.49-.37-.54-.14-.39-.07-.45-.18-.56-.25-.5-.31-.22.21.77.1.69.19.61.48.48-.13.07-.37.29.13.12.24.31.13.12-.21.09-.17-.05-.16-.14-.12-.26-.38.5-.32-.43-.42-1.34.21-.17.11-.22,0-.26-.12-.27-.37.27-.08.34.12.84,0,.55.11.31-.48.05-.34-.29-.24-.29-.15-.36-.08-.5,0-.8,0-.29-.14-.18-.16,0-.15-.07-.17-.44.25-.14.42-.4.13-.2-.16-.58-.08-.11-.08-.13v-.23l.1-.1.32-.24.08-.17,0-.19-.22-.34-.06-.31,0-.23-.16-.2-.16.14-.23.37,0,.47-.24.3-.18.37.15.49.19.48-.26.52-.26.43-.25-.06-.11-.46.08-.38.08-.65-.2-.19,0-.1-.06-.31.13-.14.32-.05.13-.24-.18-.24.16-.29.27-.51.16-.77-.09-.21.16-.43,0-.29h-.24v-.19l-.24-.15.12-.38.06-.27-.11-.42.05-.49.17-.74.31-.72.42-.67.36-.51L176,362l0-.84,0-1.44v-.76l-.27-.14,0-.34.13-.46.21-.23,0-.46v-.2l-.29-.07.21-.35.61-.25.42-.19-.28-.12-.59.05-.27.14-.13-.28.22-.15.29-.21v-.49l-.08-1-.13-.56.17-.54,0-.9-.18-1.56-.11-.79-.13-.21-.19.16v.42l.05,2.83-.13,1.19-.09,1-.18.18,0-.31,0-.62.1-1.51,0-3.55-.16-1.51-.53-.85-.2-1.1-.48-.89-.45-1.73-.45-1.07-.51-.55-.44-.68-.59-.34-.68.12-.37-.55-.09-.86-.19-.79-.53-1.25-.84-1.13-.56-.53-.93-.57-.25-.05-.29.14-.17.27-.19.26-.41.08-1.38-1,0-.1,0-.39-.13-.28-.32.22-.39.14-.35-.27-.2-.5-.09-.09-.39,0-1,.05-.31-.1-.92-1.27-.62-.45-.74-.48-.45-.34-.58-.48-.77-.75-.95-.81-1.17-.67-.07-.29v-.05l0-.12,0-.12-.08-.09-.13,0-.45,0-.4-.17-.34-.39-.59-.57-.4-.38,0-.34,0-.44.1-.3,0-.29-.15-.17-.32-.5-.24-.39-.37-.51-.29-.23-.26-.34-.25-.45-.13-.29v-.34l.06-.31.34-.21.16-.12-.21-.12h-.19l-.32.1-.32.15-.08.33-.08.33-.36.06-.24.07.1.24,0,.21-.3.14-.23-.16-.19-.29-.14-.33,0-.37-.16-.16.16-.12.44,0,.19-.19.36-.26.19-.15.27-.33.23-.34.32-.19.21-.29.14-.5.16-.27,0-1.39-.11-.46-.34-.41-.41-.12-.37.2-.31.6-.1,1.65-.19.8-.66.65-.29-.2-.3.34-.15.34v.48l.05.23,0,.31,0,.37-.11.21-.37.08-.92-.73-.91-.5-.87-.21-.43-.08-.68,0h-.53l-.77.31-.34.64-.19.42-.37.31,0,.62-.29,0-.45.34-.54-.12-.93-.43-.68-1.18-1.4-.83-.2-.36-.07-.41-.4-.86-.87-1.59-.59-.79-.82-.5-.65-.42-.72-.24-1.17-.16-.35.12,0,.36-.26.12L131,316l-.28-.15-1-1.1-.33-.89-.49-.67-.7-.79-.77-.5-.82-.42-.65-.07-.64-.31-.87.12-.38.07-.1.56-.61-.53-.72-.55-1-.46-.63.45-.32-.28.16-.31,0-.27,0-.29-.34-.16-.45-.22-.29.14-.27-.55,0-1.19,0-1.14-.16-1-.35-1.19-.53-.54-.21-.19-.59-.41-.42-.06-.37-.7-.82-.32-1.16-.5-.82-.4-.43,0-.34-.7-.08-.16-.32-.44-.08-.14-.29-.75-.56-.5-.58-.28-.19.07-.15.35-.25-.17-.15-.25-.34-.34.1-.15.32.27.23,0,.09-.52-.06-.32-.15-.28-.19-.22-.26-.14h-.32l-.14.21-.11.26-.07.37-.29-.15L109,297l-.16-.67-.28-.41-.54-.23-.34-.06-.31.29-.22-.33-.27-.32-.26-.52,0-.53-.29-.45-.06-.36-.08-.36-.1-.08-.62-.7.64-.26.34.1.45.33.19.39,1.12.1,1-.27.91.15h.37l.48.16.2.34.48.09.78-.17.5.13.58.11h.39l.11.27.22.12.41.12h.53l.72.21.8.15.77-.21,1-.15.74.36L120,294l.73-.31.65-.47.25-.29.3-.22.39-.39.46-.33.24-.19.23-.12h.21l.29,0,.13.12,0,.21,0,.22.09.52-.11.42-.13.42-.16.34-.1.27.18.4.51.79.5.24.5.56.39.24.66.14.45.32.59.28.35.34.24.38.15.19,0,.27.2.14h.22l-.06.29.06.22.21-.15.27-.17.18-.24,0-.17.4-.35.21-.31.09-.39-.14-.15-.18.1-.06-.17-.08-.11,0-.08-.16.08H129l0-.16.13-.12.19,0,.28-.07.14.09.05.18.09.12.29-.08.21.08,0,.23.19.17.42.17.61.12.35,0,.08-.11.18-.27.16-.24.11-.26.31-.24.08-.36-.1-.24-.25-.2-.26-.06-.1-.15-.34-.17-.24,0-.11-.07,0-.19-.16-.14-.09,0L131,295l-.21,0-.29.06h-.15l-.09,0-.28-.5-.19-.43-.11-.22-.21-.24-.18-.07-.06.1.09.26.2.4,0,.29.19.13.16.24.1.31-.08.19h-.18l0,.16,0,.18-.1,0-.14-.1h-.24l-.18.15-.27.21-.31.1-.29-.05-.19-.12-.16-.26-.21-.19,0-.32-.06-.36-.18-.26-.19-.26-.26-.37v-.4l0-.34,0-.29.16-.21.11-.27.37-.52.27-.36.07-.32-.1-.11-.21-.05h-.11l-.05-.09.18-.12.16-.09,0-.15-.1-.09-.21-.1-.12-.14-.1-.17.1-.17v-.22l-.19-.12-.16-.05-.21.13,0,.21-.09.21-.2.06-.17.16-.26.14-.27-.06-.45.21-.2.29-.2.24-.26.14-.21-.38.06-.43.08-.34.21-.39.2-.23.46-.43.15-.34.37-.39.11-.12.5-.62.7-1.08.5-.58.34-.06.14.69-.08.46-.43.33-.26.26-.06.22,0,.24.27.45.19.44,0,.29.54.89.29-.78.07-.52-.1-.53-.26-.48-.25.07-.13-.14,0-.19.3-.2.32.17.41.41.22.36.29-.31.37-.55.05-.25-.21,0-.28-.1-.27-.34-.37-.06-.34.06,0-.45v-.76l-.08-.34-.18-.24.06-.12.12-.26.35-.58.27-.55.21-.46.29-.36-.1-.15-.08-.31-.11-.43-.19-.21h-.26l-.22.23-.28-.09-.17-.24-.18-.14.16-.36.18-.46.27-.57.42-1,.48-1.68.27-.76.16-.7-.19-.43-.32-.14-.18-.2.07-.46v-.38l-.2-.16-.13-.22-.08-.26-.24-.29-.33-.27-.41,0-.47.05-.29-.14.07-.44.06-.52-.06-.66-.2-.59-.22-.29-.21-.1H126l-.65.05-.25.17-.6-.14,0-.39.1-.05-.07-.26-.08-.32-.54-.21-.37-.6-.78-.12v-.91l-.32-.38,0-.48-.21-.48-.48.18-.37-.91.11-.55-.4-.5-.42,0-.06-.48-.45-.43-.4-.5-.6-.1-.33.08-.17.12h-.16l-.3-.24-.15-.47-.17-.51-.11-.28-.33,0L117,262l-.29-.87,0-.89-.14-.45-.23-.44-.13-.48-.17-.38-.68-.24-.69-.27-.37.46-.4-.58-.13-.66-.18-.27-.11-.65-.1-.33-.19-.15-.77,0-1-1-.52-.73-.66-.81-1.06-1.18-1.11-1.27-3.1-1.13L103,249.4,102,247.72l-1.25-1.1-2-.74-1.22-1.06-.66-.67L96.2,244l-.5.41-.48-.43-.41-.22-.28-.5-.57-.41-.5-.65-.67-.08L91,240.45l0-.58.18-.69,0-.79-.12-.56-.09-.48-.12-.79-.49-.64-.2-.39-.35-.33L89.5,235,88.44,235l-.08-.32.48-1.92.17-1.49-.17-.86,0-.17-.21-.36-.06-.24,0-.31.13-.91,0-1.22-.21-1.2L88,225l-.28-.79-.67-.62-.76-.48-.82-.38-1,0,.66-.6.24-.33.08-.39-.16-.38L85,220.6l-.42-.38-.38-.12.21.41.22.33.18.32,0,.46-.24.21-.26.07-.14-.24-.32-.24-.18.15-.11.26v.24l.2.09.22.32.13.6.27.81h-.58l-.19-.9-.38-1.36-.49-1,.44-4.07-.15-2.84-.42-1.48-.06-.51-.24-.29-.88-.16-1.1-1.08-.56-.07-.59-.85-.41-.6-.17-.36-.56-.84-.44-.19-.91.25-.66,0-.12-.91.34-1.06.18-1.71.21-1.63-.76-2-2.63-3.29-1-1.88-.24-.35-.15-.1-.37-.48-.21-.19-.32-.14-.46-.41-.31-.12-.24-.19-.1-.15,0-.21-.18-.29-.88-.73-.13-.28-.55-.39-.13-.4.1-.31-.1,0,.32-.09.55,0-.47-.6,0-.43.15-.43.17-.75-.16-.51-.3-.54-.16-.15-.36-.15-.59-.07-.61-.77-.21-.38,1,.22.71.48.4.1.42-.3.3-.52.26-.53.16-.81.06-.6,0-.56-.18-.4-.88-.18-.45-.14-.44-.58-.56-.31-.39-.07-.45-.17,0-.69-.05-.84-.29-.36-.78,0-.9-.21-.55-.74-.24-.6-.06-1-.2-1.75-.43-1.28-.42-1.15-.24-.39-.35-.38-.44-.26-1-.24-.35-.32-1.14-2.58-.36-1-.43-.91-.27-.46-.07-.5-.05-.51,0-.62,0-.33,0-.2,1.9-.16,1.72-.15,1.72-.16,1.73-.15,1.72-.15,1.74-.16,1.71-.15,1.74-.16,1.72-.15,1.73-.17,1.72-.16,1.72-.15,1.74-.16,1.72-.15,1.73-.15,1.72-.16,1.74-.15,1.72-.16,1.72-.15,1.73-.16,1.72-.15,1.74-.15,1.72-.16,1.73-.15,1.72-.16,1.72-.15,1.73-.16,1.72-.15,1.74-.15,1.72-.18,1.73-.15,1.72-.15,1-.09v.05l-.16.69-.19.49-.28.47-.19.2-.53.47-.13.2L112,162l.21.56,0,.62-.34,1.13-.29.31.07,0h.06l.85.31,9.61,3.53,9.61,3.52,9.61,3.53,9.61,3.52,9.59,3.49,9.61,3.52,9.61,3.51,9.61,3.5,1.2.46,1.21.45,1.22.46,1.2.46,1.21.47,1.2.44,1.21.47,1.22.46.64.24,1.42.17h65.52V184.75h10.93l.61,0h5.46l.61,0h11.55l.6,0h6.07l.61,0h3.41l.27.1.1.1.21.21.46.1,1-.08.89.34.77.79.64,1,.45.94.61,1.88.27.49,1,1.18.23.43.09.27,0,.17,0,.14.15.17.82.48.24.34.55.24,1,.28.8.5.43.17.6.07.38.15,1,.72.29.26.16.25.18.47.14.25.45.26.28.21v.1l.4.14.43.34,1.8,2.14.16.5.24.36,1.79,1.17.38.15.18.12.56.67.48.36.42.24.35.29.29.53.29,1,.24.38.58.31.81,1,1.91,1.49.91,1.18.29.26.69.19,1.35.66.15.14.11.17.16.14.24.12h.12l.09-.07.18-.22.08,0,.26.09.14,0,.16.09.24.41.23.08.24,0,.17.07.12.17.05.31.06,0,.11.07.31.36.16-.21,1.09,1.32.43.21.45.08.5.26.45.36.31.41.06.29,0,.31.07.29.14.24.24.07.74.12.16.09.15.31.71.84.27.48.05.27,0,.57.06.27.39.24.08.14v.17l-.13.31,0,.19.05.31.23.36,0,.27,0,.41,0,.17,0,.16.19.31.18.18.32.19.13.17.06.24,0,.31,0,.28.13.12.43.29.35.67.29.75.29.53.18.14.4.21.23.22.45,1,.33.43.07.61,0,1-.1.63-.34,1-.06.55.05.65.45,1.51v.24l-.05.43.05.27.08.15.3.38.08.12.1.28.43.56.32,1.27.1.24.43.5.42.32.32.42.21,1.14.4.81.16.39.05.38v.28l.1.27.34.38,1.1.79.34.32.07.17.08.26.11.24.14.1.18.07,1.91,1.24.24.37.42-.22.66,0,.59.17.39.48.56.43.19.09.17.14.41,1,.77.89.52.43.8.42,1.13,1.28.9.5,2.13.75,1.5.31,1.64.1.25.09.23.19.11.27-.21.62.18.14.27.08.23.11,1.09,1,.69.39,2.07.51.63,0,.19,0,.2.16.08.17.06.21.15.22,1.2,1.22,1,.58.29.08.2.16.66.63.34.14.27-.15.21-.28L381,260l.29.48.13-.09.35-.12,0,.16-.11.43.34.2,1.39,0,1.29.36.92.15.59-.31.32-.73.11-.95.21-.06.1.06.14-.48.12-.27.19-.15.93-.52.19-.17.2-.29.66-1.37.43-.43.51.29.13-.22,1.06-.81.64-.14.26-.12-.22-.29-.57-.39-.17-.26v-.32l.33-1.07V252l0-.3.15-.18.29-.24.11-.06.14,0,.18,0,.21-.12,0-.12-.17-.38,0-.17.21-.36v-.33l-.09-.31-.05-.31.05-.36.11-.25.16-.26.74-2,.21-.16.14-.22-.12-.36.22-.12.06-.1-.14-.35.29-.13.14-.17.23-.47v-.05l.38-.74.1,0,.11-.38.68-1.23.08-.31v-.24l.07-.21.18-.18.17,0,.87,0,.42-.09.83-.48.45-.17.08,0,.12.29.11.06.16,0,.08-.07,0-.07.26-.2.18-.33.19-.07,2.55.21.05-.11.56-.84.08-.27.05-.74.1-.26.18-.17.28-.07.26-.12.23-.49.22-.14.44.14.3.31.31.22.41-.1.12.49.32.17.85.09,1.09.58.27.24.86.38,2.21-.24.63.16.37-.36.35.12.34.29.31.15.22,0,.23-.05.19-.08L415,239l.19-.1.23,0,.46.16h.79l.27-.19h.16l.07.29.21.15,3.81.55,1.22-.15.35-.14.26-.27.09-.54.08-.12.18.07.16.19.08.26-.05.14-.21.48-.08.22.5.14.37-.23.37-.32.45-.16.21.07.16.36.23.14.25,0,.26,0,.24-.08.21-.11-.11.35.06.36.18.32.37.6.16.5.29.65.16.26.19.2.31.16h.62l.21.13,0,.43-.19.57,0,.41.27.1.4-.37.58-.35.6-.07.33.35,0,.72-.21.8.09.38.23.26h.27l.24.07.2.16.45.58.67.38,1.58.49.7.26.2.46.08.79.09.38.15.28.19.25.22.23.26.17,1.7.8.55.5.47.6.17.17,1.13.53.46.36.31.4.5.94-.19.58.17.38,1.24,1,.08.15.11.17.26.09.3,0,.21.09.2.38.19,1.57.46,1.08.09.57-.21.58.17.17.1.23,0,.29,0,.36.13.17.29.22.27.3.13.42.06.11.35.17.13.1.07.21-.15.34.08.19.16.08.34,0,.15.09.09.15.13.28.1.13.14.28.6,2.62.29.6.85,1.15,0,.48.27.2.54.26.25.19.09.26,0,.67,0,.29.32.56.46.33,1,.39-.67.38-.13.19,0,.31.16.22.2.16.09.15.11,1,.21,1,.68.91.35.6,0,.45-.15.5.21.51.4.46.42.29.64.12.16.07.09.23,0,.37.09.36.2.16.38.08,2.3,1.2.43.45.18.58,0,.38.06.19.32.36.34.31.16,0v.14l-.06.18,0,.18.14.46.17.34.22.34.34.43.35.12.5.12.29.21-.27.39.24.4.35.49.42.42.37.17,0,.13-.08.28-.21.41.08.31.17.15.23.12.17.24,0,.28-.07.58,0,.26.12,0,.32.28.27.3v.14l.58.12,0,0,.28.25.2.36.29.35.21.12.42.13.16.11.1.24.06.3.08.28.18.12.29.46.11.19.13.12.83,0,.15.16.24.46.08.1h.27l.49-.29.29-.07.24.12.27.52.14.12.41.14.46.22.48.44.18.4v1.1l-.06.61v.29l.13.12.37,0,.18.1.09.23.08.39v1.12l-.06.32-.21.62-.06.53-.13.36,0,.29-.08.24-.41.46-.16.3.68.25.14.11,0,.08.05.21.05.1.27.14.06,0,.34.43.26.43.16.48.05.53-.1.51-.34,1.17,0,.55,0,.12.12.15.09.19,0,.26-.06.22-.45.89.41.6.1.16.35.29.2.09h.21l.19.05.14.22.07.29V316l.09.31.23.22.93.77.26.36.75,1,.34.45.39.41.33.46.34,1.17.31,1.29.94,2.84.07.45L479,327l.14.62.57.26.61.15.29.36.25.76.07.34-.11.31-.21.34-.15.34.07.3.48.41.45.08.45,0,.45,0,.13.07.14.24.15.05.14,0,.4-.17.56,0,.21.15.21.42.37-.36.85.65.55-.12.22.15.23.07.19-.05.16-.17.26.15.18-.05.16-.1h.21l.12.1.36.45.82.53.24.32-.1.45.32,0,.31,0,.27.1.24.24-.3.38,0,.12.21,0,.19.06.48.48.26.17.3.07,1.38-.55.68.37.74.19.67.29.48.62.37-.5.65.23.75.44.65.19-.18.55v.26l.27.1h.61l.15.19.54.86.23.25,1.83,1,.88.28.82.05,1.1-.31.46.1.19.65.23.12.5-.17.74-.39.32,0,1.35.19,1.49-.17h1.79l.46.14.05.41.3.08,2.06.14.47.1.43.23.44.36.22.34.19.44.26.36.67.31,1.07,1.12.41.29.37.17.4.07.5,0,.16.2.13.41.24.4.5.08.11-.08v-.17l.05-.12h.18l.16.13.08.21.1.17.22.07.48-.22,0-.52-.18-.62-.06-.49.09-.14.53-.41.42.31.55-.17.43-.43.07-.43.3-.09,1.13.09Zm-414,200.24h1.2l.1.07,0,.17-.08.19-.06.12-.16.12h-.33l-.8.11-.4-.18v-.29Zm89.9-11.54.32.15.29.36.19.47v.46l-.31.44-.41,0-.45,0-.42.26-.37-.38-.32-.27-.34-.23-1-.46v-.19l.11-.44.21-.6.34-.5.9-.86.48.19.56.45.36.58Zm3.08-14.21.19.15.18.21.26.51-.6.46-.25.26-.12.27,0,.07-.08-.08-.06-.19V519l.08-.22.32-.57.11-.27Zm107.75-51.7,0,.54,0,.46-.22-.1-.24.13-.55-.29-.21-.36.45-.51.43,0,.23-.07.11.07Zm-4.24-4.06.43,0,.31,0,0,.26.21.2v.24l-.42.21-.09.41-.07.29-.35-.07-.63-.3-.34-.06-.37-.3-.45-.07-.33-.47.48-.39.3-.29.26.05.26-.07.29.21Zm-2.54-3-.08.23,0,.24.05.19-.18.1,0,.15-.13.16-.13.15v.24l-.1-.08-.13,0,0-.15.07-.16-.16-.17-.18-.05-.92-.36-.93-.62,0-.08.05-.14,0-.19-.16-.24-.13-.34-.24-.35-.1-.17.15-.1v-.27l0-.3-.23-.24.43-.08.5.15.48,0,.29.19.94.43.32.27-.05.26-.07.31.29.32.2.19.11.21.11.08.11.07Zm-3.55-4.73,0,.21.13.07,0,.32-.17.21.13.17-.5.34-.23-.51.11-.38.13-.36.16.07Zm-74.46-64.6.31.39.33.74,0,.28.21.42-.12.5-.27-.1-.39-.07-.73-.1-.26-.12.05-.23-.33-.44-.35-.6-.29-1-.25-.82.06-.24.1-.24-.49-1.08.08-.91,0-.4.14,0,.18.29,0,.36.27.36.15.24.17.26.23.58.27.58.31.36.35.76Zm-40.51-4.08.52.15.71.23,1,.72.1.19-1.64-.76-.66-.1-.85-.09-1,.26-.62.1-.19-.17.17-.29.2-.15.27.1.4,0,.67-.1.41,0Zm-4.49-1.83.69,1.35.41.45.28-.06,0,.21-.18.39.14.3-.17.44-.21.34,0,.48-.73-1-.46-.48-1.16-.87-.88-.76-.61-.56-.86-.5-.16-.19-.27-.08-.34-.41-.82-.38-.61-.24-.11-.21.42-.36.4.24.27,0,1.3,0,.55,0,.4-.09.32.29.31-.08,0,.34.18.38.22.13.07.35.47.1.54.05Zm33.53-1.82.22.29.25,0,.06.4.14.31.2.19-.12.3-.32.06-.14.25.11.38-.22.17-.13.22-.1.45-.5-.05v-.24l-.1-.17.1-.31-.15-.14-.19,0-.18.17-.05-.24-.06-.21.4-.15,0-.14-.16,0,0-.14-.21-.1-.16-.16-.11-.22-.07-.41.1-.21-.21-.15,0-.21.3-.14.16-.18-.2,0-.26-.16,0-.29-.26.05,0-.19.09-.2-.21-.1-.08-.19.37-.31.07-.26.25.1.15.33.14.22.24.26.08.27-.08.38.42.05Zm-9.06-15.43,0-.19,0-.09.12.05.16.26.24.74.38.36.61.08.66.21.5.19.06.22.17.1.2.18,0,.27.18.21.06.46-.11.67.26.53.14.26.12.37.33.57.23.27-.2.11-.48.1-.22,0-.21,0-.18.24-.09-.07.09-.17.13-.19v-.2l-.24-.14-.26-.21-.35-.17v-.12l-.24-.15-.28,0-.24,0,0-.18.13-.18-.18-.4-.26-.08-.12-.45v-.22l-.13-.24-.18-.21,0-.26,0-.37-.15-.24h-.35l-.18-.27-.21,0-.06-.28v-.38l.08-.22,0-.34Zm-32.69,12.72.17.27.43.6h.16v.29l.14.15.18.4-.06.34-.2,0-.54-.24-.26-.21.07-.12-.15-.53-.19-.41-.31-.33-.24-.2h-.21l-.3-.65-.31-.08-.09-.19.19-.21,0-.25.14,0,.19.05h.16l.17-.26,0-.46-.08-.45-.16-.46-.22-.29-.28-.33-.19-.21-.32-.29-.4-.22-.18-.07-.24-.08-.32,0-.19,0-.1,0-.16.11-.08.18,0,.19.08.48,0,0-.22-.22-.08-.39-.76-.52.07-.29,0-.12.05-.07.24-.07.35-.72.42-1.2,1.19-3.55.37-1.2.64-2.48.45-1.9,0-.74.1-.28h.3L175,363l-.16.5-.38,1-.29.58-.32,1.8-.23.75.19.42.08.27,0,.36.12.24.07.22,0,.38-.19.12-.21-.14-.18.36,0,.24,0,.83-.21.15.13.69.17.27.15.19-.13.17-.3,0H173l-.07.16,0,.15-.11.21.08.22,0,.41.07.17.26.16.17.14.13.17.1.1.17,0,0,.06-.12.05.05.07.24.32.08.43.55.58.18.26v.5l.09.08h.1l.18.46-.26.43-.13.17-.19.2-.08.26.08.16.08.29Zm76.79-21.57.31.15.46.73.29.22-.4.29-.77-.36-.83-.55-.65-.29-.17,0-.21-.12-.18,0-.21,0-1.44,0-.33-.15-.12-.4,2.63,0,.43.08ZM206.79,353l-.48-.28-.45-1.08,0-.8.27-.55.21-.4.22-.07.09.45.17.07-.11.46.18.76.14,1.33Zm-7.41-10.84.26.05v.29l.12.09v.29l0,.17-.12-.15-.16,0-.17-.24-.16-.1-.18-.31h-.27l-.17.12v.17l0,.26-.22.39-.26.24-.29.54-.45.53-.19.27.08.14-.13.43,0,.39-.18.28h-.22l-.15.3,0,.53,0,.41-.09.17-.2-.33-.16-.05-.24-.15,0-.21-.08-.31,0-.24.32-.53,0-.34.22-.88,0-.32.24-.36.1-.33.21-.41.3-.22.13-.24-.06-.41.09-.55-.17-.33,0-.22.34-.05.66-.19-.05-.29.19-.14.18.21.38.19.58-.18.11-.22.42-.08-.33.48-.26.66Zm24.35-29.23.17-.07.45.15.76.38.66.48.45.82H226l-.53-.75-.55-.41-.64-.33-.38-.08Zm-13.15-6.24-.06-1.1,0-.63.17-.64.1-.31-.13,1.07.11,1.23.44.5,1,.36-.08.43-1.27-.5ZM102.82,279l.25.72.24.15,0,.28.17.37.13.64-.22.74v.58l.32.55.08.6-.1.53.08.27-.16.31-.29.14,0,.2-.21.3.07.29-.13.22.14.46-.14.38.21.43-.08.15,0,.19-.18-.07-.13-.1-.27-.1-.29.15-.23.11-.14-.21-.31,0-.16-.17-.17-.81-.44-.48-.54-.19-.44.21-.35.07-.22.36L99,286l.15-.91.41-.24,1.42-1.75.8-1.2-.37-.82-.16-.94.11-.77.21-.88.32-.29.47-.22.55.48Zm54-9.14.77.15,1.32,1,.32.38.19.14.11.2.34.19.08.23.19.1-.24.26-.27.15-.16-.14-.07-.13-.13,0-.2-.64-.29-.22-.45-.2-.31-.4-.59-.08.06-.19-.16-.14-.13-.22-.16-.17Zm6.58-1.32.29-.05.18-.12.55.08.29-.12.22.14,0,.31.13.14-.11.27v.43l-.19.38-.42.1-.53-.12-.23.1.08-.2-.27-.77Zm7.94-1.15-.34.14-.48.46-.38-.44-.45-.07-.32.19-.18-.38-.35-.05-.42-.52-.31-.2-.3.1-.24-.14-.45,0-.28-.14V266l-.63-.1-.05-.27-.61-.33-.63-.34-.32-.31-.24,0-.24-.19.64-.45.69-.46.37-.53.15-.11.11-.22.08-.29.13-.24.11-.33-.09-.25-.24-.26-.08-1.13.08-1.19.19-1.14.27-1,.15-.37.22-.36.27-.33.34-.22.39.34h.48l.51-.43.41-.34.45-.09.64,0,.38-.07.29-.29.23-.26.32-.12-.08.24-.34.35.11.44.26.31.06.14-.09.22,0,.26-.13.27.13.35-.1.41.88,1.15.94,2-.42.94,0,.89-.33,1.38-.35.37.13.36-.39.53-.11.54-.29.37-.11.5.1.58.25.11.2.3-.25.16Zm-20.26-8.07.31.12.17.1.37.1-.35.72.06.34v.81l-.2,0-.3-.4-.26-.1-.29-.36-.74-.31-.19-.48-.4-.24-.31-.12-.33-.27-.18-.33-.16-.17-.11-.41-.31-.38-.4-.44-.18-.33-.29,0-.19-.24-.34-.16-.43-.27-.19-.45-.6-.27-.43-.4-.6-.84.08-.25-.16-.4-.37-.36-.33,0-.41,0-.33-.19-.16-.34,0-.52-.17-.26L142,252l-.18-.41-.18-.15-.09-.31-.36-.33,0-.22-.28-.31-.4-.33-.09-.65.11-.63.35-.6.21-.79-.1-.46-.06-.43.27-.12,0,.17.23.14.3-.14.29-.14v-.19l.29,0,0,.33.26.06.53.09.32.36.72.72.31.72.57.19,0,.22.21.24,0,.19.31.38.27.53-.05.24.33.26-.28.27-.27.34-.07.48.08.24.05.69.58.38.92.15.21.28h.29l.19-.24h.3l.2.09.41-.09h.41l.33.1.57-.12.33.38-.24.44,0,.6.14.31v.86l.16.15-.13.29-.07.59v.75l.1.26.28.55.08.17-.06.27.21.48ZM112.42,184l.73.14,1.06.94,1,1.2.38.86h-.3L115,187l-.22-.19-.15-.24-.51.42-1.11-.57-.83-1.13ZM756.88,538.7l.06-.22.1-.22.13-.23.2-.24-.43.91.14,1.12-.28.91-.92,1.33h-.14l.09-.19.4-.49.23-.35.13-.25.14-.65Zm1.44-5.35.32.38.18,1.25,0,.65-.31.59.1-.74Zm-101.66-.85,1.05-.52.4,0,.14.2.13.21.06.27V533l-.09-.09-.08-.1-.52.38-.29.12-.3,0,.11-.19.15-.13.17-.12.21-.09-.46,0-.81.36-.35,0-.92,1.35-.67.6-.81.17.49-.9-1.24.78-.72.35-.71.13h-.47l-.16-.06.12-.18.35-.39.26-.17,1-.46.66-.16,1.27-.72.93-.63Zm113.87-47.38.05-.1h.11l.12.1.05.18,0,.08-.29.38-.82,1.51-.3.85-.39.43-.7.62-.29.43-.58,1.17-.11.44-.1.14-.23.14-.22.18-.1.26-.09.17-.23.29-1.24,1.2-.36.18-.18-.24-.07-.52-.32-1.11-.09-.59.08-1.09.27-1,.93-1.82.74-1.06.18-.09.37-.34.19-.12h.19l.16.07.12.07.08.05.25.05.58.26.23.05.3-.09.52-.32.3.06.42-.15.37-.31Zm1.14-15.87-.45-.36-.46-.79-.24-.79.19-.38.08.55.26.62Zm-257-15.43.87.62.3.32-.21.31-.69-.14-.54-.87-.37-1.17-.15-1,.36.36.13.52.09.56Zm-3.84-24.54.39-1.11.24-.33.09.52-.27.84-.51.75-.6.28.15-.31.35-.4ZM31.07,258.66l.52.75.21,1.27-.2.51.18,1-.1,1.2-.61.82-.45,0-.27.18h-.16l0,.31-.23-.24.08-.32.26-.11-.21-.63L30,263l.08-.48-.15-.53-.37-.38.28-.45-.23-.75-.22-.4-.28-.29-.48-.44-.06-.45-.13-.39-.11-.45.08-.46.19-.5.48-.38.64-.22L30,256l.53-.11.44.24-.39.43-.27.36-.07.43.18.55.27.5Zm117.52,64,.37-.22.21,0,.23.08.19.14,0,.15.2.11.08-.11.11-.1.14,0,.15.07.27.43.37.54.19.31,0,.21h-.19l-.2-.16-.25-.17-.61-.27-.71-.22-.58-.16-.27-.08-.16-.12.16-.24Zm553.53,115.8-.49-.26-.17-.19.06-.3-.21-.48.08-.19.41-.12.48-.45.05-.67-.42-.55-.36-.39-.08-.55-.53-.32-.57-.23-.42.14-.13.39-.21-.1.08-.38.26-.34.24-.44.38-.16.87.43.81.69.78,1.13.36,1-.29,1.34-.29.82-.39.3ZM211,373.34l.27-.22.13-.09.1.07-.06.29.08.1.08.16,0,.14h-.16v-.19h-.13l-.14,0-.16-.2ZM89.72,370.06l0,0v0l0,0,0,0v0ZM208,360.7h.24l.19,0,.13-.15,0,.12-.1.13-.24.38-.08.46-.15.21-.14.12-.21,0,0-.15-.1-.31,0-.28Zm-32.67-4.76.08-.12.12.08,0,.36,0,.47,0,.63,0,.5-.13.55-.06.77.11.55,0,.44-.16.31-.14.34,0,.47-.13,0-.19-.17-.16-.24.09-.41.19-.4.2-.87.09-1.17.2-1,0-.51Zm24.59-5.8V350l.37,0v-.16l.14,0,.15.27.17.18.1.08.16.41-.08.26-.14.26-.15.2-.16,0-.21-.33-.08-.15,0-.22-.17-.4Zm-4.68-3,.08,0,0,.26.13.07,0,.12.08.14,0,.07-.08.08,0,.21.08.1v.14l-.07,0-.16-.2-.13-.21,0-.27v-.28l-.08-.22Zm-.66-8.4.26-.28H195l.11,0,0,.26,0,.18-.07.09.12.1,0,.17h-.41l-.12.06.07-.09.08-.1v-.12l-.16-.12Zm-19-29.54-.27-.33.43-.63.61.51.45.67-.18.62-.32.39-.5-.1-.11-.57Zm4.8-5.52-.27-.23.06-.3.52-.12.38.18.15.23-.06.22-.47.05Zm-77.73-12.54.16,0,.29.26.32.22.21.15.06.23-.11.24-.21.06-.13-.05-.08-.49-.27-.35-.37-.08-.26-.11.07-.2Zm89.56-2.05-.16-.29.19-.24.32.53.18.41-.37-.1Zm-98.71-9.45.13.21.21-.12h.28l.06.18h-.26l-.08.18-.3.08-.24-.19,0-.15.07-.16Zm48.71-21.17h.16l.16.07v.12l-.08.14,0,.12.11.08,0,.12v.23l.13.19,0,.15.1,0,0,.17.11.07,0,.1h-.22l-.13-.09.05-.12-.1-.12-.13-.14.07-.12.06-.08-.1-.07,0-.19V259l-.14-.09-.05-.19-.1-.17ZM121,234.12l.4,0,0,.46.13.24-.29,0-.35-.2.14-.28Zm-39.8-14,.11,0,.13.21v.15l-.24,0-.2-.09v-.19ZM54.5,166.86l.14.07,0,.11.08.29.07.2v.23h-.1l-.08-.31,0-.21-.07-.1Z" style="fill:#efc441"/></svg>