<svg xmlns="http://www.w3.org/2000/svg" viewBox="0 0 800 800"><polygon points="98.96 523.93 99.42 517.57 97.81 512.91 91.84 509.48 89.32 508.01 84.95 503.11 81.51 497.48 78.99 490.87 78.76 483.27 80.82 469.31 79.22 462.46 82.66 459.27 86.33 457.8 90.23 458.05 94.14 460.5 97.58 460.01 98.73 457.31 98.04 453.39 95.74 449.23 102.4 445.31 105.84 443.35 112.96 436.74 114.56 433.31 116.86 427.92 116.86 415.43 113.42 403.43 107.68 396.33 100.79 389.71 89.32 371.59 84.72 361.3 81.51 350.77 81.28 343.42 84.5 338.52 88.86 335.34 91.15 331.18 89.32 322.85 81.28 307.66 78.07 299.09 77.84 291.5 84.27 274.6 94.37 265.29 113.19 261.37 133.16 261.13 146.7 262.84 140.73 229.78 140.5 218.51 140.73 217.53 143.49 204.3 149 193.53 163.46 174.18 155.19 170.5 160.47 163.4 203.17 133.52 211.89 130.82 210.97 129.11 209.14 124.95 207.99 123.23 213.96 120.54 233.93 118.82 242.19 121.03 251.14 126.91 253.44 130.09 253.67 133.03 253.44 136.21 254.36 139.89 257.34 144.79 264.23 153.11 264.23 153.6 265.37 155.56 268.82 152.62 271.57 148.95 273.64 145.28 275.47 142.83 276.16 141.85 280.06 139.89 288.79 139.4 291.08 137.44 281.21 119.31 271.11 93.11 259.63 78.66 257.11 76.94 249.76 78.66 249.76 76.45 251.37 72.78 251.37 70.08 247.01 63.47 244.49 62 239.44 60.53 236.22 58.33 235.99 54.65 238.06 51.22 241.27 49.02 247.24 46.08 255.27 37.51 260.32 34.08 267.9 33.34 272.72 37.75 276.16 44.12 280.52 49.51 286.26 51.47 293.38 51.22 300.04 48.53 308.99 38.49 317.25 37.75 333.32 39.96 326.66 50 326.89 62.49 332.4 74 341.12 81.11 387.03 100.94 392.77 104.62 406.77 124.7 426.51 144.3 430.41 149.93 436.38 162.18 439.6 167.07 451.53 176.63 452.22 177.12 462.55 190.1 468.29 195.24 475.4 198.67 490.1 202.83 497.44 203.57 501.57 202.1 504.33 199.41 507.08 199.65 516.95 216.79 523.15 224.39 530.03 229.78 537.84 232.47 548.86 233.21 560.34 232.47 564.24 230.02 572.04 222.43 575.25 220.71 579.39 222.18 581.91 225.61 583.75 230.02 586.27 234.43 589.72 237.61 609.92 251.08 621.39 261.86 622.08 262.6 642.28 281.7 646.64 283.17 650.32 284.15 668.45 286.11 678.09 290.03 695.53 302.03 716.19 311.83 721.7 318.93 722.16 329.71 718.95 346.36 691.86 350.77 679.01 355.42 676.02 357.14 673.27 361.79 673.04 365.95 673.5 369.87 673.04 374.04 664.78 383.1 653.3 379.92 640.67 372.81 628.74 369.87 625.07 371.59 621.85 373.79 614.74 379.18 611.98 382.86 611.52 391.43 615.2 398.04 615.65 398.29 634.71 415.92 637.46 420.33 637.92 421.8 633.56 432.82 629.66 439.92 628.51 443.35 628.51 450.45 629.43 456.33 628.97 461.97 624.84 467.85 616.34 462.95 609 467.85 597.06 483.27 588.57 485.73 572.27 485.24 563.78 490.62 563.78 490.87 560.79 493.56 547.94 500.67 545.87 501.4 542.66 502.38 536.46 501.64 530.95 498.95 519.93 490.87 513.97 477.4 513.05 473.48 512.82 470.54 513.28 463.93 513.97 460.99 516.49 455.84 518.1 453.39 518.56 453.88 518.33 449.48 518.1 445.31 515.12 434.29 510.06 424.74 502.26 421.06 494.46 424.49 488.49 429.88 485.05 432.82 476.32 442.62 470.81 451.19 468.75 457.31 466.91 468.58 465.07 473.72 460.94 478.38 456.12 480.83 451.99 484.25 450.15 490.62 450.15 490.87 446.02 498.71 441.43 506.05 435.92 511.93 429.27 516.1 424.9 523.2 407.69 542.3 406.08 544.75 402.87 551.86 402.18 554.79 402.41 560.67 402.18 563.12 370.05 610.64 359.94 620.92 359.03 625.58 362.47 632.44 367.75 638.07 386.8 651.54 391.85 657.42 392.77 658.4 393.46 662.56 387.49 675.3 385.88 682.65 385.42 691.22 386.57 699.55 389.79 705.91 392.31 709.1 390.47 716.2 388.41 717.92 385.65 718.16 384.05 719.63 386.11 729.67 385.42 732.61 384.05 734.82 383.59 737.02 383.82 739.96 383.59 741.67 384.51 743.39 387.49 746.33 390.24 750.98 390.01 762 390.24 766.66 384.28 761.51 371.88 748.53 366.14 745.84 341.58 738 335.84 734.57 327.58 731.63 324.82 729.92 322.3 725.51 322.07 723.3 322.53 720.86 321.61 716.45 320 715.71 316.56 712.77 314.04 709.59 315.64 708.12 315.87 706.16 314.5 685.1 295.44 668.44 292.92 662.07 295.9 655.95 293.38 653.5 289.25 651.54 284.2 642.97 271.34 643.21 268.59 638.56 267.67 633.9 266.06 632.93 263.77 632.93 261.7 631.46 257.11 622.15 252.29 617.25 238.75 607.7 234.84 601.09 232.55 586.88 229.56 581 224.75 578.31 218.78 578.31 213.73 580.27 211.2 583.94 209.59 581.74 207.53 579.78 206.61 578.06 201.33 581 198.81 582.72 196.97 584.43 196.28 585.41 193.53 586.39 191.46 584.18 188.25 578.06 177.23 569.25 172.18 563.37 171.95 557.49 170.11 555.77 167.13 552.59 165.06 551.12 165.06 548.43 165.75 542.3 160.01 537.16 153.36 536.91 151.52 545.49 149.23 545.49 146.7 543.77 139.36 544.75 137.75 544.02 136.14 541.32 132.01 538.14 127.19 535.45 123.75 533.98 124.67 532.51 124.67 532.02 124.89 531.77 126.27 530.79 118.01 525.16 115.25 520.99 117.09 515.85 121.22 514.38 148.77 523.2 152.67 524.42 162.31 529.32 167.36 533.98 169.88 527.36 169.43 521.97 161.85 505.81 161.62 501.64 163 495.28 151.75 508.75 136.6 511.44 101.02 507.03 101.02 510.22 107.22 514.63 104.47 527.12 110.2 530.79 103.55 528.83 98.96 523.93" style="fill:#efc441"/></svg>