<svg xmlns="http://www.w3.org/2000/svg" viewBox="0 0 800 800"><polygon points="410.53 446.8 410.47 446.89 410.7 449.12 411.94 453.13 412.37 456.53 411.76 458.64 411.19 461.31 411.42 463.85 412.37 466.64 413.23 469.51 413.23 471.44 411.51 472.88 407.57 473.68 402.84 474.35 399.37 474.35 394.18 473.89 390.93 473.98 388.12 473.98 385.6 474.44 382.5 476.28 379.03 479.16 374.69 482.98 372.08 485.37 368.64 485.89 365.17 485.89 361.81 483.96 359.63 482.98 358.19 483.08 355.84 484.45 353.06 485.37 350.45 485.37 346.12 483.47 340.92 480.6 337.88 479.16 333.58 478.67 329.24 477.72 326.2 478.21 322.33 478.21 317.11 480.14 312.77 481.55 308.04 482.98 302.62 484.3 303.94 488.62 305.8 490.98 305.8 493.88 304.91 496.3 302.33 498.72 299.35 501.75 297.63 504.14 295.9 507.48 294.61 509.38 292.37 512.53 290.39 516.45 289.76 518.9 288.99 521.68 287.44 522.54 282.16 523.27 278.8 524.25 275.88 525.2 274.79 526.86 274.61 527.1 273.78 530.47 273.78 532.86 272.92 534.79 271.69 539.53 269.99 543.88 268.73 549.61 267.5 554.35 265.8 562 264.14 569.11 262.05 575.81 260.35 580.07 259.09 582.46 256.16 585.33 253.64 587.17 250.71 589.59 247.35 591.98 242.76 594.79 238.98 597.21 237.43 598.28 235.62 599.57 232.69 602.85 230.17 607.62 228.5 611.42 225.58 617.57 223.48 620.91 222.22 622.78 218.86 624.67 215.08 626.08 210.89 627.98 207.53 629.88 202.94 631.78 200.01 633.68 197.89 636.49 196.22 639.83 194.13 644.58 192.47 649.75 191.6 653.06 189.11 664.38 188.25 670.97 187.42 675.22 186.18 680.4 185.32 688.42 185.32 694.97 184.49 698.74 184.06 701.58 181.96 704.83 180.3 707.18 177.37 710.49 174.85 712.36 174.02 714.23 171.49 716.58 168.97 720.32 166.9 722.68 167.3 724.54 167.73 727.85 166.47 731.13 165.21 734.89 161.85 739.55 158.09 741.87 152.61 742.33 145.09 742.33 139.21 741.87 132.1 741.87 125.81 740.99 119.93 740 112.81 739.55 107.79 739.55 101.51 740.46 85.16 740.46 78.87 740.99 69.63 742.85 66.96 743.31 66.99 742.12 68.74 735.23 68.92 733.15 68.77 731.37 68.89 730.33 69.6 729.01 69.75 728.49 69.78 727.91 69.78 727.39 69.63 727.12 69.09 726.66 68.92 726.38 69.14 725.71 69.35 724.3 70.15 722.37 70.49 720.44 70.87 719.34 75.23 710 76.75 708.35 76.98 707.92 77.03 707.61 77.52 706.51 77.75 706.27 78.44 705.75 78.7 705.47 79.36 703.88 79.82 703.17 80.85 702.78 81.08 702.53 81.37 702.29 81.83 702.25 82.2 702.44 82.52 702.68 82.97 703.27 87.59 701.34 88.4 700.63 89.26 699.59 89.89 698.4 91.38 692.95 91.47 692.15 91.87 691.6 93.96 689.43 94.48 688.72 95.03 685.72 95.14 681.71 95.34 680.7 95.83 679.02 96.2 678.22 97.03 677 97.03 676.54 96.89 676.14 96.8 675.83 96.8 675.31 96.86 674.98 97.23 674.12 97.32 673.81 97.52 673.66 98.44 673.54 99.44 673.26 100.79 672.01 102.2 670.35 102.63 669.4 102.89 668.46 103.06 667.45 103.12 666.31 102.77 665.21 101.94 665.03 100.22 665.52 100.53 664.63 101.25 663.16 101.63 662.58 103.63 660.68 103.81 660.37 106.93 652.84 107.39 652.2 107.85 651.92 108.4 651.4 110.23 648.07 110.83 644.88 111.29 643.99 111.93 643.08 113.42 640.29 115.45 637.84 115.57 637.56 116.29 637.01 116.57 636.71 116.8 636.19 117 635.24 117.18 634.75 117.81 633.64 118.47 632.79 118.98 631.9 119.19 630.71 119.3 628.62 119.13 627.74 118.58 626.66 118.73 626.42 118.87 626.02 118.38 626.39 118.35 626.94 118.44 627.61 118.32 628.29 118.04 628.62 116.97 629.42 116.57 629.6 116.03 629.6 115.66 629.51 115.25 629.6 114.59 630.22 114.14 630.8 113.85 631.38 113.22 632.94 112.67 633.98 112.56 634.29 112.47 634.84 112.07 635.79 111.98 636.22 111.64 636.8 109.66 638.64 109.06 638.15 109.31 637.35 110.23 636.22 110.46 635.54 111.98 632.51 114.59 628.78 114.85 628.04 115.45 627.18 116.11 626.45 119.19 623.76 120.53 623.21 122.34 622.04 122.89 621.49 124.26 621.37 125.38 620.6 126.24 619.56 126.93 618.52 128.65 616.44 129.8 614.63 131.41 613.41 132.1 612.76 132.38 611.88 132.73 611.33 136.57 608.05 138.87 605.48 141.77 600.95 142.83 599.69 144.18 598.41 144.95 597.89 145.78 597.43 146.64 597.15 148.45 596.85 149.34 596.32 150.75 595.16 150.72 594.06 150.86 593.78 151.38 592.71 152.38 591.43 153.39 590.57 154.45 589.99 155.25 589.31 155.74 588.36 156.17 585.27 157.17 582.46 157.52 580.25 158.09 578.87 158.24 578.23 158.18 577.47 158.01 576.73 157.95 576.03 158.24 575.26 157.92 574.96 158.21 574.28 158.38 573.55 158.52 572.75 158.52 571.99 158.41 571.25 158.03 570.21 157.92 569.6 157.98 565.37 157.66 564.18 158.95 558.64 159.24 557.87 160.5 553.06 162.43 550.28 162.97 549.79 163.31 549.33 164.58 546.21 164.86 544.06 164.95 543.76 165.35 542.9 165.58 541.4 167.27 536.99 170.37 532.43 171.52 530.29 171.75 529.67 171.87 528.73 172.55 526.58 172.9 525.91 172.72 525.14 173.16 522.45 173.04 521.74 172.64 520.3 172.75 519.82 173.07 519.29 173.53 517.89 173.76 517.34 176.11 514.18 176.48 513.91 178.49 513.45 180.76 512.19 184.23 508.67 184.83 507.88 185.21 507.05 185.72 506.31 186.7 505.88 191.32 505.37 192.12 504.97 196.48 502.64 204.12 497.04 209.22 493.64 211.69 490.73 214.22 485.5 215.08 482.92 215.88 479.04 217.11 476.22 218.35 470.16 219.12 468.32 222.59 463.05 222.59 462.78 222.31 462.35 222.31 462.07 222.88 461.74 225.12 456.26 226.5 451.33 226.61 450.32 226.78 449.46 227.61 447.59 227.73 446.74 227.76 446.52 228.02 445.66 228.47 445.2 229.74 444.56 231.09 443.37 232.64 442.88 233.32 442.05 235.07 439.08 236.05 435.59 236.54 434.58 237.2 433.88 238 433.39 241.96 431.86 249.54 430.54 255.59 430.66 263.08 428.15 274.56 426.13 275.01 425.79 275.96 424.78 276.16 424.66 276.88 424.48 286.23 420.25 298.69 414.68 300.06 413.55 301.07 412.23 302.73 409.38 303.36 408.65 304.11 407.98 304.74 407.21 305 406.23 305.37 405.46 307.87 403.72 309.85 401.24 310.16 400.54 311.91 399.43 312.23 399.07 312.57 398.39 312.77 398.09 314.21 396.89 314.35 396.71 315.21 395.24 316.39 393.95 317.05 393.49 328.99 387.25 331.86 385.29 335.3 383.48 336.9 382.38 342.07 377.42 346.37 370.75 347.52 369.37 348.3 368.67 349.9 368.08 350.53 367.35 351.54 365.69 352.6 364.32 353.09 363.46 353.29 362.57 353.52 362.14 355.01 361.04 355.21 360.74 355.58 359.69 357.31 357.06 357.56 356.51 357.65 355.5 357.91 354.4 358.28 353.42 358.74 352.68 360.75 350.79 361.04 350.17 361.29 349.41 363.04 346.99 368.5 340.99 372.77 333.27 375.41 326.9 375.81 325.07 376.53 318.82 377.3 315.58 377.42 314.6 377.25 313.28 376.76 312.64 376.13 312.18 375.41 311.44 374.95 310.59 373.89 308.11 373.52 306.48 373.17 306.27 372.71 306.21 372.23 306.02 371.85 305.66 371.11 304.34 368.09 302.26 367.2 302.23 366.23 302.01 365.63 301.31 365.71 299.41 366.6 297.57 367.69 295.83 368.5 294.24 368.75 293.13 368.81 292.52 368.64 292.03 368.35 291.6 368.32 291.3 368.41 290.93 368.5 290.35 368.18 280.68 368.01 279.79 367.35 278.01 367.86 276.85 368.95 269.9 369.07 267.05 368.9 265.89 368.44 265.27 367.89 264.81 367.35 264.14 368.67 262.46 369.64 260.74 370.62 257.77 371.11 257.07 371.88 256.37 372.14 256 372.37 255.11 372.97 254.5 373.2 253.92 373.77 253.12 373.98 252.63 374.58 248.68 374.89 247.88 378.74 243.69 380.43 241.27 380.75 240.94 381.35 240.48 381.69 240.11 382.01 239.62 382.38 238.76 382.58 238.39 387.52 233.25 388.04 232.24 388.35 231.5 388.84 229.51 388.93 228.72 389.13 228.11 390.65 226.18 391.22 224.8 391.56 223.27 391.76 218.16 391.59 217.91 390.82 217.51 390.65 217.15 390.73 216.07 390.99 215.31 392.14 213.07 392.45 212.09 392.51 211.12 392.2 210.32 391.82 209.8 391.45 209.09 391.22 208.27 391.19 207.41 391.97 205.91 398.16 200.61 402.93 194.92 407 192.04 408.41 190.69 413.14 184.26 418.42 178.42 418.74 177.84 418.79 177.22 418.76 176.12 419.14 175.51 422.61 171.38 422.95 171.19 423.3 171.28 423.7 171.74 424.07 171.84 425.11 171.77 425.85 171.59 427.4 170.79 428.92 169.57 431.36 166.54 432.85 165.31 434.6 164.58 440.31 163.26 444.3 161.49 446.37 160.57 448.29 160.08 449.35 159.62 450.24 158.46 451.3 158 454.09 157.11 455.75 156.25 456.55 156.07 457.33 155.64 458.02 154.78 458.73 154.14 459.54 154.35 460.02 154.05 460.43 154.11 460.83 154.32 461.29 154.35 461.69 154.2 462.44 153.74 463.64 153.5 464.53 153.13 465.31 152.7 465.88 152.27 467.28 150.43 468.49 149.85 469.67 148.41 470.47 148.14 470.18 148.51 471.04 148.78 471.93 148.54 472.42 148.2 475.49 146.12 477.1 144.71 478.62 143.85 480.31 143.24 481.8 143 481.83 143 482.55 142.72 483.87 141.56 485.36 141 489.75 137.51 494.17 132.71 497.87 126.52 500.63 120.58 505.25 113.67 505.68 112.81 506.36 110.82 507.34 109.26 516.38 90.24 520.02 77.91 527.63 58.8 527.86 57.82 527.91 56.57 528.11 55.86 529 53.84 529.89 51.09 529.95 50.66 530.09 50.2 530.64 49.4 530.75 48.91 531.01 46.52 531.3 45.33 531.67 44.56 532.47 43.71 533.94 43.46 537.78 44.04 538.3 43.95 539.42 42.82 539.93 42.42 540.71 42.02 541.48 41.84 542 42.09 542.72 41.75 543.72 41.72 544.73 41.96 545.44 42.45 547.91 40.98 548.6 40.34 550.12 38.63 550.89 37.95 551.76 37.52 552.1 37.55 552.3 37.74 552.79 38.01 553.19 38.01 553.33 37.62 553.45 37.22 553.53 37.13 553.79 37.22 553.82 37.22 554.19 38.38 554.68 39.42 555.31 40.34 556.26 41.17 556.06 41.93 556.2 43.19 556.8 45.82 557.01 47.96 557.18 48.58 557.44 49.06 557.75 49.43 558.01 49.46 558.73 49.37 558.93 49.43 558.99 49.71 558.9 50.5 558.93 50.81 559.65 53.53 560.08 54.55 560.97 55.37 562.75 56.63 564.21 58.04 567.77 63.06 568.4 63.55 569.43 63.73 570.21 63.98 571.01 64.56 572.44 65.84 573.62 67.47 574.34 68.26 576.2 68.9 578.47 71.05 580.16 72 586.13 73.8 591.7 75.06 591.72 75.06 596.69 76.53 597.89 76.62 598.75 76.38 601.16 74.84 606.99 73.83 610.49 72.27 614.08 71.54 615.83 70.68 616.26 71.29 616.11 71.51 615.63 71.66 615.4 71.87 615.6 72.18 615.88 72.52 616.49 73.37 617.09 73.65 617.98 73.71 619.13 73.8 619.93 73.74 621.36 73.62 622.31 73.16 622.71 72.24 623.06 70.86 623.92 69.92 625.04 69.49 626.13 69.64 626.96 70.19 628.71 71.78 629.6 72.39 632.75 72.88 633.87 73.53 634.36 73.56 634.88 73.5 635.34 73.5 635.8 73.65 636.63 74.05 637.06 74.2 639.18 74.35 640.99 73.99 646.18 72.15 647.07 71.6 648.97 69.58 649.42 69.3 649.77 69.33 650.17 69.55 650.6 69.7 651.15 69.64 652.47 68.29 654.1 64.25 655.16 62.69 655.11 62.14 655.31 61.74 655.68 61.56 656.2 61.83 656.37 62.26 656.14 63.12 656.34 63.73 655.91 65.29 656.48 67.22 656.54 67.47 656.57 67.5 655.77 68.29 655.88 69.7 656.77 70.65 658.03 70.19 658.61 71.05 658.23 71.51 658.03 72.27 658 73.13 658.15 74.75 658.35 75.43 658.72 76.01 659.32 76.77 660.41 77.57 661.88 78.06 664.92 78.33 663.11 76.86 659.9 73.19 659.27 72.12 659.47 71.72 660.04 72.18 662.08 74.35 662.39 74.91 664.37 76.96 666.18 78 668.33 78.73 672.67 79.34 674.59 79.19 675.62 78.95 676.28 78.52 677.17 77.51 677.98 76.86 678.81 76.65 682.82 78.21 683.74 78.33 684.75 78.67 685.87 79.28 686.96 79.71 687.01 81.7 687.41 83.05 688.16 84.03 689.45 84.52 691 85.65 692.32 86.88 693.73 87.79 695.59 87.95 696.14 88.38 696.31 88.96 696.37 89.66 696.57 90.37 697.14 91.04 699.35 92.42 700.78 93.76 705.17 96.55 705.95 97.32 705.81 97.68 705.26 98.11 704.23 100.38 702.02 103.78 701.7 104.63 706.75 109.81 708.27 110.27 708.73 110.54 704.26 115.93 705.86 117.83 706.93 120.09 709.91 129.37 710.02 130.07 710.14 130.72 710.02 131.73 708.07 139.81 707.93 142.17 708.3 144.65 708.76 146.12 708.73 146.67 708.42 147.4 707.99 147.92 707.5 148.35 707.1 148.87 706.9 149.64 707.15 150.43 707.79 150.89 709.25 151.41 710 151.94 710.43 152.55 712.32 157.08 712.52 158.73 712 160.08 711.37 161.03 710.57 163.81 710 165.07 709.57 166.35 709.57 171.25 709.94 172.91 712.06 174.99 712.81 176.4 713.38 177.99 714.24 179.21 715.33 180.22 716.57 181.11 717.25 181.78 717.54 182.83 717.51 183.99 717.4 185.09 717.28 185.61 717.11 186.07 716.88 186.5 716.57 186.84 714.79 188.12 720.47 197.64 721.85 198.84 724.49 199.82 736.22 208.88 736.85 210.01 734.44 212.74 733.04 213.81 731.49 214.45 729.74 214.7 729.08 215.06 728.39 215.95 727.99 216.84 727.41 218.65 726.75 223.18 726.67 223.76 726.67 224.19 726.61 224.59 726.35 225.14 726.09 225.38 725.4 225.93 725.23 226.27 725.4 227.07 726.09 227.07 727.64 226.45 728.45 226.45 729.34 226.7 729.99 227.31 730.22 228.35 729.39 230.13 727.76 230.53 724.57 230.37 724.23 230.34 723.22 230.31 721.64 230.22 719.52 230.13 716.97 230 714.07 229.85 710.86 229.7 707.41 229.55 703.83 229.39 700.15 229.21 696.48 229.03 692.87 228.87 689.37 228.69 686.1 228.54 683.08 228.41 680.41 228.29 674.65 228.01 667.13 230.13 659.35 230.77 656.94 232.15 659.84 239.89 661.59 244.73 654.27 245.77 645.18 248.56 632.93 250.79 631.38 250.92 629.57 250.52 626.73 252.02 626.16 264.79 623.03 265 620.73 266.71 620.22 267.36 620.04 268.27 620.3 272.01 620.22 273.11 619.33 274.64 619.04 275.59 619.18 276.45 619.7 276.91 620.39 276.94 621.13 276.63 622.37 275.44 622.97 275.1 623.72 275.32 624.32 275.96 625.47 277.8 626.21 278.53 627.71 279.27 628.22 279.73 628.62 280.64 628.79 281.53 628.85 282.48 631.12 286.15 628.77 289.95 626.73 292.03 627.02 295.13 627.3 298.22 619.41 302.32 612.38 304.03 605.93 304.4 600.93 305.78 596.86 308.17 592.15 314.35 586.3 319.16 580.16 321.88 575.74 324.27 572.24 327.03 567.57 331.13 563.15 334.22 559.04 338.66 556.12 344.48 552.33 350.63 547.91 356.42 543.84 357.8 540.31 356.42 538.84 351.98 533.56 352.65 528.6 353.69 523.32 353.69 517.15 353.69 511.3 354.37 505.16 356.08 499.31 356.75 495.78 360.18 488.46 357.09 483.78 356.75 480.54 357.09 475.86 359.14 472.05 363.25 467.28 362.97 466.42 363.28 465.48 363.4 464.56 363.37 462.69 363.03 460.74 362.94 459.31 363.58 456.75 366.25 456.09 366.77 454.09 367.84 451.53 370.29 447.08 373.35 443.27 377.05 441.86 378.06 437.16 380.18 434.29 382.17 431.5 384.89 430.82 385.32 429.35 385.99 428.72 386.51 427.29 389.08 426.74 389.67 424.85 390.74 422.95 392.27 417.59 395.24 416.81 395.94 416.33 396.86 416.18 398.15 416.18 400.38 416.18 403.29 416.18 406.2 416.18 409.11 416.18 412.02 416.18 414.93 416.18 417.8 416.18 420.71 416.18 423.62 416.18 426.53 416.18 429.41 416.18 432.31 416.18 435.22 416.18 438.1 416.18 441.01 416.18 443.89 416.18 446.8 413.26 446.8 410.56 446.8 410.53 446.8" style="fill:#efc441"/><polygon points="410.53 446.8 410.56 446.8 413.26 446.8 416.18 446.8 416.18 451.33 416.18 455.86 416.18 460.39 416.18 464.92 416.18 465.6 416.18 467.46 416.18 470.4 416.21 474.17 416.21 478.64 416.21 483.63 416.21 488.95 416.21 494.44 416.21 499.95 416.24 505.24 416.24 510.23 416.24 514.67 416.24 518.44 416.24 521.32 416.24 523.18 416.24 523.86 416.24 526.03 415.95 526.64 415.15 526.89 411.59 526.89 407.37 526.89 403.16 526.89 398.91 526.89 394.69 526.89 390.47 526.89 386.26 526.89 382.04 526.89 377.82 526.89 373.57 526.89 369.36 526.89 365.14 526.89 360.92 526.89 356.7 526.89 352.49 526.89 348.27 526.89 344.05 526.89 339.8 526.89 335.58 526.89 331.37 526.89 327.15 526.89 322.93 526.89 318.71 526.89 314.5 526.89 310.25 526.89 306.03 526.89 301.81 526.89 297.6 526.89 293.38 526.89 289.13 526.89 284.91 526.89 280.7 526.89 276.48 526.89 276.48 530.5 276.48 534.11 276.48 537.73 276.48 541.34 276.48 544.95 276.48 548.56 276.48 552.18 276.48 555.79 276.48 559.37 276.48 562.98 276.48 566.6 276.48 570.18 276.48 573.79 276.48 577.37 276.48 580.99 276.48 584.57 276.48 588.18 276.48 591.76 276.48 595.35 276.48 598.93 276.48 602.54 276.48 606.12 276.48 609.7 276.48 613.29 276.48 616.87 276.48 620.45 276.48 624.03 276.48 627.61 276.48 631.2 276.48 634.75 276.48 638.33 276.48 641.91 276.48 645.74 276.31 647.33 275.76 648.1 271.49 649.32 262.3 653.88 260.78 654.34 253.72 655.41 251.17 656.33 248.53 658.2 244 661.48 238.78 665.21 234.56 668.24 233.75 669.31 230.17 674.58 228.82 677.58 228.27 680.73 228.71 683.76 230.74 689.79 231.29 692.86 231.98 704.61 232.66 716.34 233.87 735.72 234.1 739.79 234.56 747.35 228.42 747.35 226.7 747.35 221.79 747.35 214.19 747.35 204.32 747.35 192.64 747.35 180.9 747.35 179.61 747.35 165.67 747.35 151.29 747.35 136.89 747.38 122.94 747.38 109.92 747.38 98.24 747.38 88.37 747.38 80.77 747.38 75.86 747.38 74.14 747.38 69.26 747.38 68.86 747.78 68.14 751.82 67.34 756.32 65.56 761.65 65.27 763.15 64.3 767.41 64.15 768.78 65.16 773.84 64.67 772.64 63.35 770.53 63.15 769.37 63.29 768.72 63.66 767.62 63.75 766.95 63.75 764.71 63.92 763.92 64.7 761.5 66.42 747.57 66.82 745.88 66.91 745.18 66.96 743.31 69.63 742.85 78.87 740.99 85.16 740.46 101.51 740.46 107.79 739.55 112.81 739.55 119.93 740 125.81 740.99 132.1 741.87 139.21 741.87 145.09 742.33 152.61 742.33 158.09 741.87 161.85 739.55 165.21 734.89 166.47 731.13 167.73 727.85 167.3 724.54 166.9 722.68 168.97 720.32 171.49 716.58 174.02 714.23 174.85 712.36 177.37 710.49 180.3 707.18 181.96 704.83 184.06 701.58 184.49 698.74 185.32 694.97 185.32 688.42 186.18 680.4 187.42 675.22 188.25 670.97 189.11 664.38 191.6 653.06 192.47 649.75 194.13 644.58 196.22 639.83 197.89 636.49 200.01 633.68 202.94 631.78 207.53 629.88 210.89 627.98 215.08 626.08 218.86 624.67 222.22 622.78 223.48 620.91 225.58 617.57 228.5 611.42 230.17 607.62 232.69 602.85 235.62 599.57 237.43 598.28 238.98 597.21 242.76 594.79 247.35 591.98 250.71 589.59 253.64 587.17 256.16 585.33 259.09 582.46 260.35 580.07 262.05 575.81 264.14 569.11 265.8 562 267.5 554.35 268.73 549.61 269.99 543.88 271.69 539.53 272.92 534.79 273.78 532.86 273.78 530.47 274.61 527.1 274.79 526.86 275.88 525.2 278.8 524.25 282.16 523.27 287.44 522.54 288.99 521.68 289.76 518.9 290.39 516.45 292.37 512.53 294.61 509.38 295.9 507.48 297.63 504.14 299.35 501.75 302.33 498.72 304.91 496.3 305.8 493.88 305.8 490.98 303.94 488.62 302.62 484.3 308.04 482.98 312.77 481.55 317.11 480.14 322.33 478.21 326.2 478.21 329.24 477.72 333.58 478.67 337.88 479.16 340.92 480.6 346.12 483.47 350.45 485.37 353.06 485.37 355.84 484.45 358.19 483.08 359.63 482.98 361.81 483.96 365.17 485.89 368.64 485.89 372.08 485.37 374.69 482.98 379.03 479.16 382.5 476.28 385.6 474.44 388.12 473.98 390.93 473.98 394.18 473.89 399.37 474.35 402.84 474.35 407.57 473.68 411.51 472.88 413.23 471.44 413.23 469.51 412.37 466.64 411.42 463.85 411.19 461.31 411.76 458.64 412.37 456.53 411.94 453.13 410.7 449.12 410.47 446.89 410.53 446.8" style="fill:#efc441"/><polygon points="410.53 446.8 410.56 446.8 413.26 446.8 416.18 446.8 416.18 451.33 416.18 455.86 416.18 460.39 416.18 464.92 416.18 465.6 416.18 467.46 416.18 470.4 416.21 474.17 416.21 478.64 416.21 483.63 416.21 488.95 416.21 494.44 416.21 499.95 416.24 505.24 416.24 510.23 416.24 514.67 416.24 518.44 416.24 521.32 416.24 523.18 416.24 523.86 416.24 526.03 415.95 526.64 415.15 526.89 411.59 526.89 407.37 526.89 403.16 526.89 398.91 526.89 394.69 526.89 390.47 526.89 386.26 526.89 382.04 526.89 377.82 526.89 373.57 526.89 369.36 526.89 365.14 526.89 360.92 526.89 356.7 526.89 352.49 526.89 348.27 526.89 344.05 526.89 339.8 526.89 335.58 526.89 331.37 526.89 327.15 526.89 322.93 526.89 318.71 526.89 314.5 526.89 310.25 526.89 306.03 526.89 301.81 526.89 297.6 526.89 293.38 526.89 289.13 526.89 284.91 526.89 280.7 526.89 276.48 526.89 276.48 530.5 276.48 534.11 276.48 537.73 276.48 541.34 276.48 544.95 276.48 548.56 276.48 552.18 276.48 555.79 276.48 559.37 276.48 562.98 276.48 566.6 276.48 570.18 276.48 573.79 276.48 577.37 276.48 580.99 276.48 584.57 276.48 588.18 276.48 591.76 276.48 595.35 276.48 598.93 276.48 602.54 276.48 606.12 276.48 609.7 276.48 613.29 276.48 616.87 276.48 620.45 276.48 624.03 276.48 627.61 276.48 631.2 276.48 634.75 276.48 638.33 276.48 641.91 276.48 645.74 276.31 647.33 275.76 648.1 271.49 649.32 262.3 653.88 260.78 654.34 253.72 655.41 251.17 656.33 248.53 658.2 244 661.48 238.78 665.21 234.56 668.24 233.75 669.31 230.17 674.58 228.82 677.58 228.27 680.73 228.71 683.76 230.74 689.79 231.29 692.86 231.98 704.61 232.66 716.34 233.87 735.72 234.1 739.79 234.56 747.35 228.42 747.35 226.7 747.35 221.79 747.35 214.19 747.35 204.32 747.35 192.64 747.35 180.9 747.35 179.61 747.35 165.67 747.35 151.29 747.35 136.89 747.38 122.94 747.38 109.92 747.38 98.24 747.38 88.37 747.38 80.77 747.38 75.86 747.38 74.14 747.38 69.26 747.38 68.86 747.78 68.14 751.82 67.34 756.32 65.56 761.65 65.27 763.15 64.3 767.41 64.15 768.78 65.16 773.84 64.67 772.64 63.35 770.53 63.15 769.37 63.29 768.72 63.66 767.62 63.75 766.95 63.75 764.71 63.92 763.92 64.7 761.5 66.42 747.57 66.82 745.88 66.91 745.18 66.96 743.31 69.63 742.85 78.87 740.99 85.16 740.46 101.51 740.46 107.79 739.55 112.81 739.55 119.93 740 125.81 740.99 132.1 741.87 139.21 741.87 145.09 742.33 152.61 742.33 158.09 741.87 161.85 739.55 165.21 734.89 166.47 731.13 167.73 727.85 167.3 724.54 166.9 722.68 168.97 720.32 171.49 716.58 174.02 714.23 174.85 712.36 177.37 710.49 180.3 707.18 181.96 704.83 184.06 701.58 184.49 698.74 185.32 694.97 185.32 688.42 186.18 680.4 187.42 675.22 188.25 670.97 189.11 664.38 191.6 653.06 192.47 649.75 194.13 644.58 196.22 639.83 197.89 636.49 200.01 633.68 202.94 631.78 207.53 629.88 210.89 627.98 215.08 626.08 218.86 624.67 222.22 622.78 223.48 620.91 225.58 617.57 228.5 611.42 230.17 607.62 232.69 602.85 235.62 599.57 237.43 598.28 238.98 597.21 242.76 594.79 247.35 591.98 250.71 589.59 253.64 587.17 256.16 585.33 259.09 582.46 260.35 580.07 262.05 575.81 264.14 569.11 265.8 562 267.5 554.35 268.73 549.61 269.99 543.88 271.69 539.53 272.92 534.79 273.78 532.86 273.78 530.47 274.61 527.1 274.79 526.86 275.88 525.2 278.8 524.25 282.16 523.27 287.44 522.54 288.99 521.68 289.76 518.9 290.39 516.45 292.37 512.53 294.61 509.38 295.9 507.48 297.63 504.14 299.35 501.75 302.33 498.72 304.91 496.3 305.8 493.88 305.8 490.98 303.94 488.62 302.62 484.3 308.04 482.98 312.77 481.55 317.11 480.14 322.33 478.21 326.2 478.21 329.24 477.72 333.58 478.67 337.88 479.16 340.92 480.6 346.12 483.47 350.45 485.37 353.06 485.37 355.84 484.45 358.19 483.08 359.63 482.98 361.81 483.96 365.17 485.89 368.64 485.89 372.08 485.37 374.69 482.98 379.03 479.16 382.5 476.28 385.6 474.44 388.12 473.98 390.93 473.98 394.18 473.89 399.37 474.35 402.84 474.35 407.57 473.68 411.51 472.88 413.23 471.44 413.23 469.51 412.37 466.64 411.42 463.85 411.19 461.31 411.76 458.64 412.37 456.53 411.94 453.13 410.7 449.12 410.47 446.89 410.53 446.8" style="fill:#efc441"/><polygon points="599.87 75.46 599.93 75.49 600.02 75.49 599.99 75.52 599.9 75.52 599.85 75.49 599.82 75.49 599.85 75.46 599.87 75.46" style="fill:#efc441"/><path d="M616.51,73.31l0,0,0,0,0,0,0,0Zm.12-.12h0v0l0,0,0,0v0Z" style="fill:#efc441"/><polygon points="656.57 67.5 657.63 69.61 658 70.16 658.03 70.19 656.77 70.65 655.88 69.7 655.77 68.29 656.57 67.5" style="fill:#efc441"/><path d="M678.09,74.84l.2-.06.12.22-.21.15L678,75Zm-.29.22.09.09-.09.15-.23-.06.06-.12Zm.66.06.15-.18.14.18-.12.18Z" style="fill:#efc441"/><polygon points="552.99 37.68 553.1 37.8 553.02 37.92 552.93 37.89 552.9 37.74 552.99 37.68" style="fill:#efc441"/><polygon points="555.51 26.16 556.35 26.16 556.29 26.75 556.32 27.05 556.2 27.73 555.86 27.3 555.51 26.16" style="fill:#efc441"/><polygon points="556.26 41.17 555.31 40.34 554.68 39.42 554.19 38.38 553.82 37.22 554.39 37.16 555.2 37.22 556.12 37.74 556.8 38.26 557.58 38.44 558.67 37.89 558.3 38.96 556.46 40.4 556.26 41.17" style="fill:#efc441"/><polygon points="230.71 446.74 230 446.74 226.66 450.07 226.61 450.32 226.5 451.33 225.55 454.72 233.53 446.74 230.71 446.74" style="fill:#fff"/><polygon points="242.48 446.77 239.97 446.77 220.49 466.24 219.12 468.32 218.35 470.16 217.9 472.37 243.5 446.77 242.48 446.77" style="fill:#fff"/><polygon points="196.48 502.64 200.79 499.48 213.69 486.57 214.22 485.5 215.08 482.92 215.41 481.33 191.42 505.32 192.12 504.97 196.48 502.64" style="fill:#fff"/><polygon points="214.22 485.5 213.69 486.57 253.5 446.77 251.31 446.77 249.97 446.77 215.41 481.33 215.08 482.92 214.22 485.5" style="fill:#fff"/><polygon points="196.48 502.64 192.12 504.97 191.42 505.32 172.94 523.79 172.72 525.14 172.9 525.91 172.55 526.58 172.02 528.25 200.79 499.48 196.48 502.64" style="fill:#fff"/><polygon points="263.11 446.77 260.15 446.77 259.97 446.77 165.74 541 165.58 541.4 165.35 542.9 164.95 543.76 164.86 544.06 164.66 545.61 263.5 446.77 263.11 446.77" style="fill:#fff"/><polygon points="271.92 446.77 269.97 446.77 159.38 557.36 159.24 557.87 158.95 558.64 158.14 562.13 273.5 446.77 271.92 446.77" style="fill:#fff"/><polygon points="280.75 446.77 279.97 446.77 157.93 568.8 157.92 569.6 158.03 570.21 158.41 571.25 158.49 571.78 283.5 446.77 280.75 446.77" style="fill:#fff"/><polygon points="292.55 446.77 289.97 446.77 158.16 578.57 158.09 578.87 157.52 580.25 157.17 582.46 156.82 583.45 293.5 446.77 292.55 446.77" style="fill:#fff"/><polygon points="109.66 638.64 111.64 636.8 111.98 636.22 112.07 635.79 112.47 634.84 112.56 634.29 112.62 634.11 109.28 637.45 109.06 638.15 109.66 638.64" style="fill:#fff"/><polygon points="301.35 446.77 299.97 446.77 119.08 627.65 119.13 627.74 119.3 628.62 119.19 630.71 119.11 631.16 303.5 446.77 301.35 446.77" style="fill:#fff"/><polygon points="313.15 446.77 310.19 446.77 309.97 446.77 110.6 646.13 110.23 648.07 108.4 651.4 107.85 651.92 107.39 652.2 106.93 652.84 106.58 653.68 313.5 446.77 313.15 446.77" style="fill:#fff"/><polygon points="321.99 446.77 319.97 446.77 101.61 665.12 101.94 665.03 102.77 665.21 103.12 666.31 103.07 667.2 323.5 446.77 321.99 446.77" style="fill:#fff"/><polygon points="330.82 446.77 329.97 446.77 95.17 681.56 95.14 681.71 95.04 685.23 333.5 446.77 330.82 446.77" style="fill:#fff"/><polygon points="88.4 700.63 89.26 699.59 89.89 698.4 90.48 696.26 83.82 702.91 87.59 701.34 88.4 700.63" style="fill:#fff"/><polygon points="342.59 446.77 339.97 446.77 90.48 696.26 89.89 698.4 89.26 699.59 88.4 700.63 87.59 701.34 83.82 702.91 73.91 712.82 70.87 719.34 70.83 719.43 343.5 446.77 342.59 446.77" style="fill:#fff"/><polygon points="351.42 446.8 349.95 446.78 69.62 727.11 69.63 727.12 69.78 727.39 69.78 727.91 69.75 728.49 69.6 729.01 68.89 730.33 68.77 731.37 68.78 731.49 353.47 446.8 351.42 446.8" style="fill:#fff"/><polygon points="276.48 530.5 276.48 530.25 67.8 738.93 66.99 742.12 66.96 743.3 276.48 533.79 276.48 530.5" style="fill:#fff"/><polygon points="280.7 526.89 283.38 526.89 363.47 446.8 363.19 446.8 360.26 446.8 359.94 446.8 279.85 526.89 280.7 526.89" style="fill:#fff"/><polygon points="68.14 751.82 68.84 747.89 66.03 750.7 65.53 754.73 68.07 752.19 68.14 751.82" style="fill:#fff"/><polygon points="293.38 526.89 293.38 526.89 373.47 446.8 372.02 446.8 369.94 446.8 289.85 526.89 293.38 526.89" style="fill:#fff"/><polygon points="276.48 543.79 276.48 541.34 276.48 540.25 69.35 747.38 72.88 747.38 276.48 543.79" style="fill:#fff"/><polygon points="276.48 550.25 79.35 747.38 80.77 747.38 82.88 747.38 276.48 553.79 276.48 552.18 276.48 550.25" style="fill:#fff"/><polygon points="301.81 526.89 303.38 526.89 383.47 446.8 380.86 446.8 379.94 446.8 299.85 526.89 301.81 526.89" style="fill:#fff"/><polygon points="65.27 763.15 65.56 761.65 65.8 760.94 64.44 762.29 63.92 763.92 63.75 764.71 63.75 766.52 64.72 765.54 65.27 763.15" style="fill:#fff"/><polygon points="310.25 526.89 313.38 526.89 393.47 446.8 392.63 446.8 389.94 446.8 309.85 526.89 310.25 526.89" style="fill:#fff"/><polygon points="276.48 562.98 276.48 560.25 89.35 747.38 92.88 747.38 276.48 563.79 276.48 562.98" style="fill:#fff"/><polygon points="65.16 773.84 64.78 771.95 64.45 772.29 64.67 772.64 65.16 773.84" style="fill:#fff"/><polygon points="322.93 526.89 323.38 526.89 403.47 446.8 401.46 446.8 399.94 446.8 319.85 526.89 322.93 526.89" style="fill:#fff"/><polygon points="276.48 570.25 99.35 747.38 102.88 747.38 276.48 573.79 276.48 570.25" style="fill:#fff"/><polygon points="331.37 526.89 333.38 526.89 413.47 446.8 413.26 446.8 410.56 446.8 410.53 446.8 410.27 446.8 409.94 446.8 329.85 526.89 331.37 526.89" style="fill:#fff"/><polygon points="276.48 580.99 276.48 580.25 109.35 747.38 109.92 747.38 112.88 747.38 276.48 583.79 276.48 580.99" style="fill:#fff"/><polygon points="276.48 591.76 276.48 590.25 119.35 747.38 122.88 747.38 276.48 593.79 276.48 591.76" style="fill:#fff"/><polygon points="343.38 526.89 416.18 454.08 416.18 451.33 416.18 450.55 339.85 526.89 343.38 526.89" style="fill:#fff"/><polygon points="352.49 526.89 353.38 526.89 416.18 464.08 416.18 460.55 349.85 526.89 352.49 526.89" style="fill:#fff"/><polygon points="276.48 602.54 276.48 600.25 129.35 747.38 132.88 747.38 276.48 603.79 276.48 602.54" style="fill:#fff"/><polygon points="276.48 613.29 276.48 610.25 139.35 747.38 142.9 747.37 276.48 613.79 276.48 613.29" style="fill:#fff"/><polygon points="360.92 526.89 363.38 526.89 416.21 474.06 416.18 470.55 359.85 526.89 360.92 526.89" style="fill:#fff"/><polygon points="373.38 526.89 416.21 484.06 416.21 483.63 416.21 480.52 369.85 526.89 373.38 526.89" style="fill:#fff"/><polygon points="276.48 620.45 276.48 620.25 149.38 747.36 151.29 747.35 152.91 747.35 276.48 623.79 276.48 620.45" style="fill:#fff"/><polygon points="253.72 655.41 255.06 655.21 276.48 633.79 276.48 631.2 276.48 630.25 248.54 658.2 251.17 656.33 253.72 655.41" style="fill:#fff"/><polygon points="382.04 526.89 383.38 526.89 416.21 494.06 416.21 490.52 379.85 526.89 382.04 526.89" style="fill:#fff"/><polygon points="228.27 680.73 228.75 677.98 159.38 747.35 162.91 747.35 228.43 681.84 228.27 680.73" style="fill:#fff"/><polygon points="390.47 526.89 393.38 526.89 416.23 504.03 416.21 500.52 389.85 526.89 390.47 526.89" style="fill:#fff"/><polygon points="276.48 640.25 263.39 653.34 270.42 649.85 276.48 643.79 276.48 641.91 276.48 640.25" style="fill:#fff"/><polygon points="229.78 686.95 169.38 747.35 172.91 747.35 230.67 689.59 229.78 686.95" style="fill:#fff"/><polygon points="231.43 695.3 179.38 747.35 179.61 747.35 180.9 747.35 182.91 747.35 231.63 698.64 231.43 695.3" style="fill:#fff"/><polygon points="403.16 526.89 403.38 526.89 416.24 514.03 416.24 510.49 399.85 526.89 403.16 526.89" style="fill:#fff"/><polygon points="231.98 704.75 189.38 747.35 192.64 747.35 192.91 747.35 232.18 708.09 231.98 704.75" style="fill:#fff"/><polygon points="411.59 526.89 413.38 526.89 416.24 524.03 416.24 523.86 416.24 523.18 416.24 521.32 416.24 520.49 409.85 526.89 411.59 526.89" style="fill:#fff"/><polygon points="232.66 716.34 232.54 714.19 199.38 747.35 202.91 747.35 232.74 717.53 232.66 716.34" style="fill:#fff"/><polygon points="233.12 723.62 209.38 747.35 212.91 747.35 233.32 726.94 233.12 723.62" style="fill:#fff"/><polygon points="233.87 735.72 233.7 733.03 219.38 747.35 221.79 747.35 222.91 747.35 233.91 736.36 233.87 735.72" style="fill:#fff"/><polygon points="234.26 742.47 229.38 747.35 232.91 747.35 234.46 745.8 234.26 742.47" style="fill:#fff"/><polygon points="656.85 68.05 655.83 69.07 655.86 69.4 656.97 68.29 656.85 68.05" style="fill:#fff"/><polygon points="657.18 68.72 656.04 69.87 656.21 70.05 657.3 68.95 657.18 68.72" style="fill:#fff"/><polygon points="657.63 69.61 657.52 69.38 656.52 70.38 656.69 70.56 657.64 69.62 657.63 69.61" style="fill:#fff"/><polygon points="555.2 37.22 554.84 37.19 554.06 37.97 554.18 38.33 555.25 37.25 555.2 37.22" style="fill:#fff"/><polygon points="555.75 37.53 554.42 38.86 554.57 39.18 556.05 37.7 555.75 37.53" style="fill:#fff"/><polygon points="556.5 38.03 554.86 39.67 555.05 39.95 556.77 38.23 556.5 38.03" style="fill:#fff"/><polygon points="557.58 38.44 557.39 38.4 555.38 40.4 555.63 40.62 558.05 38.2 557.58 38.44" style="fill:#fff"/></svg>