<svg xmlns="http://www.w3.org/2000/svg" viewBox="0 0 800 800"><polygon points="292.63 738.67 291.64 739.41 291.09 740.39 290.39 741.02 288.99 740.78 288.37 740.39 285.1 737.61 283.45 735.65 282.64 734.39 276.87 728.48 275.92 728.05 275.48 727.65 272.25 723.19 268.83 719.07 261.71 713.74 260.27 712.29 257.52 708.65 253.7 705.51 252.97 704.65 251.28 701.91 249.55 700.03 249.26 699.6 249.22 698.89 249.55 697.6 249.62 697.01 248.93 695.09 247.49 693.01 242.13 687.52 241.47 686.43 241.21 684.94 241.21 681.73 241.1 681.25 240.77 680.47 235.63 672.01 234.78 670.01 234.12 669.03 233.24 668.64 232.76 668.09 231.19 664.84 229.02 661.9 228.69 661.27 227.95 656.37 227.66 655.78 227.29 655.31 226.96 654.84 226.85 654.06 227.22 651.55 226.49 647.55 226.85 646.65 225.79 644.38 225.46 643.2 225.35 641.79 225.38 639.25 225.09 638.03 224.25 636.93 223.88 636.82 222.89 636.74 222.41 636.54 222.3 636.27 221.93 635.6 221.53 635.05 221.34 635.05 221.2 633.68 220.83 632.54 219.1 628.82 218.81 627.8 219.07 626.12 218.51 624.9 217.74 623.69 217.27 622.63 217.16 621.22 217.3 619.96 217.74 619.1 218.55 618.79 219.1 618.63 219.65 618.44 220.06 618.44 220.21 619.02 220.21 621.38 220.57 621.38 220.79 620.16 221.86 616.95 221.89 616.32 221.53 615.5 220.46 611.74 219.73 608.05 218.51 605.78 216.72 603.86 214.7 602.45 211.5 601.08 211.02 600.53 210.62 595.75 210.84 591.08 209.74 589.4 209.55 589 209.77 588.26 210.1 588.26 210.51 588.42 211.02 588.14 211.76 586.22 211.72 583.56 211.13 580.93 210.29 578.93 207.87 574.78 207.57 572.78 208.45 570.51 208.05 570.51 205.29 567.14 204.41 565.49 204.26 564.79 204.26 564.28 204.41 563.41 204.41 558.6 204.63 557.34 206.21 554.17 206.4 553.15 206.36 551.78 206.14 550.52 204.96 549.31 204.63 547.78 204.41 545 203.05 541.27 202.76 538.41 202.25 536.14 202.17 534.92 203.82 530.38 203.68 529.63 204.78 525.28 204.96 522.82 204.41 520.47 203.68 518.9 202.58 516.55 201.88 514.16 201.73 509.26 201.07 506.91 197.99 500.83 196.7 498.99 194.06 496.29 193.32 494.48 191.49 492.25 191.15 490.72 191.34 490.09 192.11 489.19 192.29 488.84 192.29 486.33 192.03 485.16 190.82 482.92 189.65 479.83 186.75 473.99 185.65 469.79 184.58 467.76 184.21 464.97 183.81 464.07 184.07 462.86 184.07 460.82 183.84 458.74 183.44 457.41 183.81 456.59 184.18 454.94 184.54 454.12 184.87 453.96 185.39 453.85 185.83 453.65 186.01 453.06 186.75 451.61 186.34 450.87 186.38 447.46 185.43 444.56 185.28 443.5 186.01 434.76 185.75 432.61 185.13 430.92 183.15 425.47 182.49 422.73 182.52 422.14 182.96 421.59 184.25 419.16 184.91 418.46 184.91 419.75 185.17 420.3 185.5 419.99 185.65 418.65 185.57 416.3 184.58 409.29 183.99 407.13 183.07 405.56 182.3 403.88 181.75 401.92 181.38 399.84 181.2 395.88 181.24 395.3 181.5 394.71 182.19 393.57 182.34 393.02 182.34 390.52 182.52 390.4 182.82 390.4 183 390.63 182.67 391.14 182.93 391.54 183.22 392.12 183.44 392.36 183.11 393.57 183 394.79 183.41 395.45 184.54 394.87 184.47 395.53 183.81 397.37 184.62 396.59 185.83 394.12 186.56 393.61 187.19 393.02 187.59 391.61 187.85 388.87 187.48 378.33 186.45 370.41 185.2 368.26 184.62 365.59 182.67 361.44 181.64 357.87 179.92 354.07 179.59 353.6 176.1 349.49 174.96 347.53 174.92 346.08 174.81 345.53 166.55 334.24 162.51 330.32 162.1 329.34 157.66 324.99 156.63 324.48 156.59 323.86 156.85 323.23 156.96 322.96 157.29 321.43 157.33 321.04 157.18 320.29 156.93 319.74 152.63 313 151.82 309.12 150.13 304.85 144.66 297.29 141.32 291.41 139.22 288.74 137.86 286.98 133.05 278.01 130.85 274.83 130.15 272.64 129.38 271.78 127.95 270.56 126.85 268.52 126.3 266.52 125.74 261.59 124.28 256.26 119.61 246.77 118.36 241.52 118.07 238.97 116.97 234.12 115.06 229.1 113.81 227.02 111.68 226.36 109.33 224.63 107.53 221.38 105.8 214.01 101.65 205.63 101.14 203.9 98.86 200.69 94.93 193.13 94.45 191.75 93.9 190.89 92.51 187.91 92.07 187.25 89.68 182.78 88.94 180.9 88.69 179.76 88.36 177.06 87.73 175.76 86.01 173.41 84.9 171.3 82.3 164.48 81.19 162.64 79.58 160.64 77.63 159.07 77.12 158.25 76.49 153.98 76.02 152.76 67.28 140.5 61.25 136.34 58.61 133.21 58.28 132.89 57.36 131.48 56.77 131.17 56.26 130.81 53.58 129.09 52.73 126 52.55 124.9 51.85 123.06 51.78 122.35 51.78 121.76 51.74 121.17 51.85 120.59 50.6 118.71 48.51 112.91 48.18 112.51 43.77 107.66 42.96 104.99 42.56 101.5 41.6 98.68 40.98 96.6 40.28 90.88 39.03 86.57 38.22 80.54 37.6 77.48 37.2 75.56 36.72 72.39 36.94 67.76 38.74 55.89 39.33 55.06 40.02 55.22 40.98 55.73 41.57 55.85 42.34 55.77 42.63 55.49 42.74 55.14 43.04 54.63 44.03 53.93 46.23 52.83 48.77 50.83 50.97 49.73 53.43 48.95 55.89 48.6 56.29 48.52 56.59 48.4 56.99 48.4 57.54 48.79 59.38 49.38 60 49.23 60.26 48.99 60.55 48.79 61.03 48.99 61.36 49.3 61.51 49.7 61.58 50.17 61.8 50.64 62.1 50.95 62.61 51.34 63.23 51.69 63.79 51.85 64.3 52.09 64.56 52.63 64.7 53.18 64.89 53.42 68.74 53.03 72.23 53.18 73 52.83 73.74 52.2 74.29 52.16 75.58 52.99 76.57 53.34 79.72 53.61 81.64 54.08 82.3 54.01 83.62 53.3 86.01 51.11 87.33 50.64 88.69 50.4 89.68 49.85 91.55 48.17 93.94 46.95 95.78 46.36 96.14 45.85 96.58 44.99 97.06 44.56 97.46 44.37 98.42 44.05 98.9 43.7 99.12 43.19 99.19 42.52 99.48 41.94 100.73 41.58 101.8 41.03 103.45 40.6 106.28 38.88 112.05 37.82 113.29 37.39 114.43 37.31 115.46 38.1 116.16 37.66 116.56 38.02 116.89 38.57 117.48 38.88 118.69 39.08 119.32 39.11 119.87 38.88 119.87 39.31 121.26 38.64 122.07 38.45 122.44 38.68 122.77 38.72 124.09 38.33 125.05 38.1 126.04 38.45 127.91 39.82 128.87 40.13 130.15 40.29 131.25 40.8 132.06 41.58 132.76 43.94 133.53 44.72 134.01 45.7 133.49 47.38 138.05 50.05 142.75 54.12 147.93 57.18 152.96 60.12 153.66 60.75 156.12 64.23 156.89 64.9 158.14 65.17 158.8 65.02 159.64 64.43 160.12 64.31 160.74 64.39 161.74 64.7 162.88 64.86 163.76 65.17 164.38 65.17 164.97 64.98 165.81 64.43 166.18 64.31 168.57 64.7 169.74 64.51 170.26 63.37 170.29 63.06 170.92 63.06 174.59 63.06 188.36 63.06 202.13 63.06 215.91 63.06 229.68 63.1 242.83 63.1 243.42 63.1 257.19 63.1 270.96 63.1 284.73 63.1 298.47 63.1 312.24 63.1 326.01 63.1 335.12 63.1 339.79 63.1 353.56 63.1 367.3 63.14 373.83 63.14 381.07 63.14 394.84 63.14 397.7 63.14 398.11 63.18 398.22 63.53 398.4 64.08 398.73 64.31 399.1 64.63 399.98 66.82 400.06 67.45 400.24 67.56 401.52 67.96 403.36 71.76 403.51 72.39 404.24 72.82 407.03 75.25 407.22 75.68 407.47 76.73 407.77 77.28 408.28 77.79 409.27 78.34 409.79 78.69 412.87 82.1 413.94 83.63 414.67 84.3 416.77 84.81 421.54 87.32 428.56 88.69 433.07 88.45 434.91 87.67 436.08 87.43 436.67 87.43 438.29 87.79 440.68 87.63 441.52 88.18 450.04 90.88 459.26 90.77 462.31 90.02 463.52 89.9 464.62 90.18 465.13 91.27 465.61 91.67 466.71 92.22 467.96 92.65 468.81 92.72 469.06 92.41 469.69 91.31 470.06 91.04 478.5 91.04 480.52 92.25 482.4 92.96 482.95 93.04 486.07 92.72 487.54 92.72 488.24 92.61 489.01 92.25 489.37 92.72 490.18 91.98 491.47 91.63 492.9 91.7 494.15 92.25 496.02 90.61 496.61 91 497.34 90.96 499.14 90.61 499.77 90.84 501.86 92.72 503.22 92.33 504.58 92.96 505.79 94.1 506.82 95.31 507.37 95.78 509.21 96.72 510.75 97.94 511.45 98.33 512.81 97.94 514.9 97.82 516.85 98.02 517.69 98.52 518.09 98.99 518.98 99.42 519.86 99.58 520.26 99.35 520.66 98.8 521.58 99.07 523.2 99.94 524.34 101.03 525.73 100.91 527.31 100.29 529.08 99.94 529.85 98.37 534.03 97.15 534.8 96.96 539.73 95.55 540.61 95.94 541.53 95.7 542.44 95.27 543.4 95.08 544.17 95.23 546.37 95.08 547.22 95.31 549.68 96.72 552.73 97.9 554.31 98.72 555.19 99.94 555.52 100.05 556.51 99.74 560.37 98.95 573.85 96.21 587.29 93.51 600.77 90.77 614.25 88.06 625.19 85.75 636.13 83.48 647.08 81.2 658.06 78.93 662.54 77.99 664.71 77.56 666.58 77.13 667.61 77.13 669.19 76.77 671.5 76.27 673.82 75.76 676.09 75.28 678.41 74.78 680.68 74.27 683 73.8 685.27 73.29 687.59 72.78 689.87 72.27 692.18 71.8 694.46 71.29 696.77 70.78 699.05 70.31 701.36 69.8 703.64 69.29 705.95 68.78 707.53 68.47 708.52 68.39 709.51 68.55 712.34 68.62 712.97 69.02 713.37 68.78 715.61 68.11 716.57 67.96 717.56 68.15 719.8 69.02 721.41 69.33 722.44 69.88 723.8 70.11 724.24 70.47 724.57 70.86 725.05 71.21 725.89 71.56 726.37 71.64 726.88 71.6 727.44 71.33 728.24 70.54 728.83 70.19 729.13 69.8 729.49 69.41 730.01 69.21 732.43 69.21 737.02 70 737.28 70.11 737.57 70.39 737.94 70.66 738.49 70.78 740.22 70.7 743.89 71.48 745.32 72.19 746.02 73.25 747.12 72.7 747.75 73.21 747.82 73.25 748.44 74.19 749.29 74.85 749.8 74.89 750.79 74.54 751.35 74.46 751.53 74.66 751.16 75.64 751.16 76.07 751.49 76.5 751.79 76.73 752.19 76.81 752.81 76.85 752.96 77.05 753.92 77.99 754.1 78.07 754.58 79.83 754.65 80.11 755.16 80.22 755.53 80.54 755.79 80.93 755.94 81.36 756.41 80.65 756.78 80.65 757.59 81.52 757.77 81.87 757.7 82.61 757.77 82.97 757.99 83.2 758.62 83.55 758.91 83.75 759.61 84.73 760.01 84.93 760.89 84.97 761.63 85.16 762.36 85.63 762.95 86.3 763.28 87.04 759.79 86.34 757.63 86.3 755.86 88.18 754.06 88.96 752.41 89 751.9 87.79 750.43 88.77 749.73 88.88 749.29 88.18 748.48 88.57 748.04 88.33 747.67 87.83 747.12 87.43 747.45 86.57 746.87 86.69 746.61 86.96 746.42 87.36 746.02 87.79 745.65 87.98 741.72 89.35 740.66 89.43 739.74 89.71 738.49 90.8 737.39 91.04 737.06 91.23 736.73 92.1 736.29 92.25 735.77 92.33 735.3 92.57 734.93 92.8 734.63 93.04 733.17 95 731.33 96.21 730.52 97 727.84 100.41 727.62 100.52 727.47 100.88 726.7 101.82 726.52 102.17 726 102.33 723.51 102.6 722.85 102.76 721.01 100.95 720.9 100.05 720.68 99.7 720.31 99.54 719.91 99.11 718.99 97.27 718.33 96.6 717.15 96.37 715.32 96.29 714.51 96.6 713.63 97.5 712.12 100.33 711.61 100.76 711.13 100.64 710.21 100.13 709.62 99.94 708.49 99.78 707.42 99.94 705.55 100.91 702.94 104.25 701.18 105.62 699.19 106.01 698.75 106.24 697.21 107.81 696.81 108.16 695.26 108.87 694.6 109.34 694.35 109.65 694.16 110.05 693.94 109.89 693.68 109.69 693.39 109.61 693.06 109.69 691.19 111.1 691.04 113.14 690.2 114 688.62 115.14 687.96 115.77 686.96 117.26 686.34 117.92 685.49 118.24 680.46 124 679.65 124.51 678.55 124.7 677.27 126.31 676.94 126.62 676.68 126.74 674.77 127.44 673.82 127.48 673.12 126.86 672.71 124.39 671.87 121.84 671.39 121.06 672.13 119.8 671.65 118.55 669.89 116.55 670.36 115.61 670.03 115.06 669.48 114.59 669.19 113.92 668.97 113.22 668.42 112.98 667.68 112.83 666.95 112.51 666.65 112.04 665.88 111.06 665.11 110.32 664.52 110.91 664.08 110.87 663.57 110.67 663.27 110.52 663.24 110.2 663.31 109.22 663.27 108.87 662.98 108.24 661.33 106.24 660.74 104.75 660.12 103.89 659.97 103.58 659.9 103.15 659.97 101.74 659.79 101.54 659.38 101.5 659.01 101.39 658.83 100.95 658.83 100.17 658.76 99.78 658.46 99.5 657.77 99.11 655.75 99.03 652.04 99.39 647.41 99.78 641.05 100.37 636.35 101.35 631.84 102.25 627.32 103.19 622.8 104.09 618.25 105.03 613.73 105.97 609.21 106.87 604.7 107.81 600.14 108.75 595.62 109.65 591.11 110.59 586.59 111.53 582.04 112.44 577.52 113.38 573 114.32 568.48 115.22 563.93 116.16 563.01 116.36 562.09 116.51 561.21 116.71 560.26 116.9 559.26 116.94 558.24 116.98 555.7 117.1 553.21 117.22 550.67 117.33 548.17 117.45 545.13 117.57 542.11 117.69 539.07 117.84 536.05 117.96 534.4 118.04 533.41 118.08 533.41 119.76 533.41 122.19 533.41 124.58 533.41 127.01 533.41 129.44 533.41 131.83 533.41 134.26 533.41 136.69 533.41 139.08 533.41 141.51 533.41 143.94 533.41 146.37 533.41 148.76 533.41 151.19 533.41 153.62 533.41 156.05 533.41 158.44 533.45 165.89 533.45 168.63 533.45 173.29 533.48 180.7 533.48 188.15 533.52 195.59 533.56 203 533.56 210.45 533.59 217.89 533.59 225.34 533.63 232.78 533.63 238.78 533.63 240.23 533.67 247.71 533.7 255.16 533.7 262.61 533.74 270.09 533.74 277.54 533.74 277.58 533.78 281.02 533.78 284.47 533.78 287.92 533.78 291.37 533.81 294.82 533.81 298.27 533.81 301.72 533.85 305.16 533.85 308.61 533.85 312.06 533.89 315.55 533.89 319 533.89 322.45 533.92 325.89 533.92 329.34 533.92 332.83 533.92 335.3 533.26 337.5 530.18 337.5 517.62 337.5 505.06 337.5 492.5 337.5 479.94 337.5 479.94 342.67 479.94 351.72 479.97 360.77 479.97 369.82 479.97 378.88 479.97 389.26 480.01 399.61 480.01 409.99 480.01 416.26 480.01 420.38 480.05 430.8 480.05 441.19 480.05 449.93 480.05 451.61 480.05 462.04 480.08 472.46 480.08 482.92 480.08 493.35 480.08 503.81 480.12 504.59 480.12 508 480.12 511.41 480.12 514.82 480.12 518.23 480.12 521.68 480.12 525.09 480.12 528.5 480.12 531.91 480.12 535.32 480.12 538.77 480.12 542.17 480.12 545.59 480.12 549.03 480.12 552.44 480.12 555.89 480.12 556.67 480.12 559.3 480.12 562.71 480.12 566.16 480.12 569.57 480.16 573.02 480.16 576.47 480.16 579.88 480.16 583.32 480.16 586.73 480.16 590.18 480.16 593.63 480.16 597.08 480.16 600.49 480.16 603.94 480.16 607.38 480.16 610.83 480.16 614.28 480.16 617.69 480.16 621.14 480.16 624.59 480.16 628.04 480.16 631.49 480.16 634.93 480.16 638.38 480.16 641.87 480.16 645.32 480.16 648.77 480.16 652.22 480.16 655.66 480.19 659.11 480.19 662.6 480.19 666.05 480.19 669.5 480.19 672.95 480.19 676.43 480.19 679.88 480.19 683.37 480.19 686.82 480.19 690.31 480.19 693.76 480.19 697.24 480.19 700.69 480.19 704.18 480.19 707.63 480.19 711.12 480.19 714.6 480.19 718.05 480.19 721.54 480.19 725.03 480.19 727.46 480.12 729.3 478.43 729.73 477.88 729.81 476.15 729.57 475.56 729.65 474.13 730.48 471.75 732.67 470.17 733.14 467.6 733.34 466.35 733.77 465.32 734.63 464.36 735.14 459 735.53 458.52 735.69 457.97 736.08 457.61 736.51 457.31 737.02 456.83 737.61 456.54 738.12 456.06 739.25 455.73 739.49 455.22 739.68 454.89 740.23 453.35 745.21 452.8 746.11 451.88 746.89 450.77 747.4 446.4 748.54 445.63 748.89 445.05 748.78 443.8 747.72 442.99 747.8 442.33 748.38 441.7 749.21 440.79 751.01 440.6 752.3 440.93 753.67 442.95 757.2 442.92 757.95 442.29 758.34 440.53 758.5 440.2 758.73 439.61 759.71 439.17 760.18 436.12 761.83 433.88 762.57 431.82 762.69 430.9 761.47 430.65 761.24 430.06 761 428.19 760.77 427.82 760.65 427.23 759.98 425.91 757.79 424.99 756.93 413.79 755.28 403.51 756.81 401.56 757.91 400.42 758.26 400.17 758.14 399.5 757.51 399.28 757.4 398.99 757.44 398.51 757.75 398.22 757.87 397.15 758.02 396.57 758.22 396.16 758.5 395.13 758.93 393.81 758.69 391.54 757.87 390.36 757.75 385.62 758.46 383.71 759.16 382.72 759.12 378.2 757.51 376.15 756.42 372.88 753.64 371.08 752.46 369.13 751.64 360.17 749.6 358.44 749.76 357.86 750.03 356.79 750.77 356.28 751.01 355.62 751.05 353.85 750.54 352.71 750.03 352.46 748.78 352.49 747.25 352.24 745.92 351.43 745.33 350.51 745.52 349.48 746.03 348.38 746.31 346.18 746.58 343.79 747.17 341.81 746.82 341.7 744.98 342.36 742.39 342.69 739.92 342.1 738.59 340.15 737.84 339.75 736.78 339.42 735.37 337.99 733.41 337.55 732.32 337.73 731.42 338.43 730.59 339.38 729.97 340.26 729.73 341.15 729.1 341.59 727.62 341.7 725.93 341.59 724.6 341.33 723.89 340.48 722.72 340.08 722.09 339.9 721.34 339.82 720.72 339.68 720.05 339.2 719.31 338.98 718.72 338.9 717.93 338.69 717.23 338.1 716.96 336.7 717.03 333.29 717.86 331.56 717.5 330.42 716.05 330.16 713.15 330.31 711.74 330.35 710.37 329.83 709.27 328.51 708.84 327.45 708.37 326.75 707.24 326.12 705.98 325.39 705.04 324.77 704.81 324.25 704.81 323.19 705.04 322.56 705.39 320.8 706.73 319.37 706.38 318.74 706.53 317.97 707.39 317.31 707.63 316.8 707.51 316.25 706.85 315.84 706.73 315.51 707 314.59 708.1 314.41 708.26 314 713.15 313.6 713.78 313.38 713.74 313.09 713.55 312.2 713.55 311.99 713.39 311.76 713.27 311.43 713.55 311.32 713.94 311.47 714.25 312.43 715.47 312.43 715.94 311.62 716.13 310.48 716.13 310.19 716.37 309.96 716.96 310.11 717.39 310.52 718.01 310.85 718.76 310.74 719.5 310.22 719.89 309.67 719.74 309.16 719.31 308.68 719.11 307.72 719.58 307.5 720.68 307.72 721.93 308.09 722.91 309.23 724.67 309.6 725.81 309.05 726.32 308.24 726.87 307.98 728.12 307.91 729.53 307.76 730.55 307.17 731.61 306.22 732.94 305.15 733.88 304.24 733.81 304.01 733.22 303.87 732.43 303.65 731.73 303.17 731.42 302.58 731.65 298.54 735.77 296.49 736.43 295.02 737.22 293.58 738.2 292.63 738.67" style="fill:#efc441"/></svg>