<?xml version="1.0" encoding="UTF-8"?><svg id="Navassa" xmlns="http://www.w3.org/2000/svg" viewBox="0 0 800 800"><path id="path1933" d="M608.86,173.68c-27.94,2.16-58.55-2.88-84.15,5.54-26.88-20.27-62.23,2.15-86.19-11.31-7.94-4.43-17.55-4.91-26.13-7.67m0,0c-22.05,11.87-47.6-1.08-68.53-9.1-26.1-.85-54.11,1.26-77.92-6.52-31.75-13.24-69.11-10.18-102.46-23.33-28.26-1.02-57.9-1.99-81.74-10.67-31.02,10.85-32.35,46.5-24.28,73.24,17.11,23.9,26.98,48.5,47.21,70.29,21.4,19.63,30.67,46.58,53.97,60.65,13.02,30.69,39.85,53.58,52.86,84.65,13.29,31.44,33.56,59.53,54.66,85.35,13.97,22.14,34.64,38.56,41.44,63.62,23.8,4.31-5.92,33.17,22.87,38.64,20.81,20.25,46.75,31.09,69.74,46.74,30.22-4.06,45.61,37.93,77.02,33.53,19.13,15.23,47.22,13.71,70.56,21.53,32.18,4.37,55.35-20.16,84.32-26.1,15.83-.59,3.98-33.2,28.96-22.62,23.88-8.6,57.47-18.23,54.55-50.39-.3-32.36,6.65-65.02,1.51-97.13-15.29-30.66-8.7-63.56-.07-94.73,10.88-27.98,17.97-61.18-4.53-88.47-13.55-30.28-38.19-54.34-52.14-81.85-1.15-26.29-42.89-29.02-51.55-53.9" style="fill:#efc441; fill-rule:evenodd;"/></svg>