<svg xmlns="http://www.w3.org/2000/svg" viewBox="0 0 800 800"><polygon points="770.57 456.61 772.84 457.22 774.1 457.69 774.86 458.3 775.05 459.51 773.91 461.53 774.42 465.84 773.41 468.53 772.08 471.3 769.87 480.19 764.19 490.15 761.79 495.54 761.73 496.62 761.79 497.63 762.24 499.72 762.49 500.19 763.31 501.07 763.5 501.54 763.31 502.48 762.87 503.09 762.43 503.63 762.05 504.3 761.23 506.72 761.04 507.94 761.1 509.35 761.54 510.5 762.68 512.58 762.93 513.8 762.36 516.42 760.09 521.61 758.7 524.84 758.32 532.25 757 535.35 756.81 536.23 757 537.1 757.38 537.91 758.89 539.32 760.53 543.16 762.17 544.24 763.63 544.91 764.83 546.06 766.78 548.82 768.61 552.26 770 555.96 770.76 557.58 772.84 560.81 773.6 562.49 773.98 564.31 774.36 568.83 775.11 573.07 775.24 575.02 775.11 577.04 774.74 579.13 773.22 583.78 769.05 592.13 767.73 596.71 767.03 598.93 766.97 600.01 767.22 601.36 766.53 605.67 763.75 610.79 760.28 614.56 757.38 614.9 756.11 613.55 753.15 611.73 751.82 610.52 751.25 609.51 750.62 607.62 750.18 606.75 749.99 606.81 747.72 604.93 747.65 604.52 746.01 604.93 743.24 607.42 741.66 607.42 739.95 606.48 738.38 605.94 737.18 606.41 736.54 608.63 735.91 610.25 734.52 610.99 733.01 610.79 731.75 609.64 730.3 608.77 728.28 609.51 727.27 610.32 724.99 612.13 721.59 613.68 718.37 612.74 711.74 608.9 708.9 608.36 705.87 608.5 702.9 609.37 700.31 610.99 699.24 612.47 697.53 616.31 696.4 617.25 695.14 617.05 691.28 615.23 690.09 614.49 689.26 613.14 688.63 611.46 687.69 610.52 684.85 611.39 679.92 612 677.27 610.86 675.13 607.96 673.61 604.46 672.66 601.36 671.59 596.1 671.53 594.35 671.27 592.33 670.2 592.4 668.88 593.54 666.1 596.51 664.9 597.45 661.49 598.66 658.9 599.61 656 601.36 655.05 603.72 653.28 605.8 651.01 607.35 648.68 608.03 647.86 607.89 644.57 606.54 643.31 606.75 642.62 607.82 641.99 609.04 641.04 609.84 639.33 609.44 632.9 605.4 626.71 602.5 624.82 601.36 623.62 599.88 622.29 598.66 620.9 597.86 619.07 597.45 616.23 596.24 610.61 593.14 607.84 592.06 607.01 592.06 605.06 592.33 604.36 592.26 603.73 591.52 603.67 590.04 603.04 589.3 601.46 588.96 599.5 589.3 595.97 590.51 593.95 591.86 593.32 592.06 592.31 591.86 591.74 591.46 591.3 590.99 590.73 590.58 589.34 590.18 588.71 590.11 588.58 590.11 586.5 590.24 585.93 589.98 585.43 589.5 579.05 585.46 576.27 584.52 572.99 585.53 570.85 585.8 569.2 586.74 562.89 592.4 560.93 593.54 559.42 593.81 558.79 593.21 558.6 592.4 558.6 591.46 558.41 590.58 557.72 589.91 556.77 590.18 555.88 590.58 555.06 590.31 550.08 586.27 548.75 584.65 547.8 580.88 548.44 573.07 547.74 569.5 546.42 567.88 539.22 563.71 538.21 563.37 530.95 566.33 526.91 568.56 523.57 570.44 521.86 570.98 520.22 570.44 518.58 570.31 517.06 571.79 515.8 573.34 515.61 573.61 514.1 574.75 510.88 575.76 509.49 575.76 500.97 573.47 498.31 570.58 498.25 566.94 497.94 563.71 494.34 562.16 492.26 562.43 487.08 564.51 484.74 564.25 484.55 562.83 484.68 561.21 483.1 560.41 481.9 560.27 480.77 559.93 478.68 558.79 477.86 556.9 477.36 554.68 476.03 552.66 473.95 551.45 469.34 549.83 467.19 548.48 466.19 546.87 464.73 546.53 463.22 547.07 462.02 548.08 460.95 548.08 449.84 544.98 448.64 544.11 448.13 541.82 448.95 539.39 450.21 536.97 451.16 534.68 451.67 530.5 451.48 526.39 450.59 522.49 449.08 518.65 446.74 515.08 444.03 513.12 417.52 508.14 415.5 506.79 413.73 504.23 412.85 502.28 411.58 501.27 408.81 501.74 407.92 501.47 406.98 498.91 406.09 497.9 403.88 497.02 402.87 496.42 401.99 495.48 401.61 493.59 399.97 493.19 398.14 493.99 393.47 499.85 391.51 501.27 388.54 501.4 384.88 500.73 383.68 500.26 383.62 500.32 381.6 500.93 377.31 501.27 375.48 501.94 376.3 503.69 378.95 506.72 379.14 507.67 379.52 508.75 379.52 509.62 378.57 510.02 378.06 510.43 377.37 511.44 377.31 511.3 376.8 510.76 372.57 509.22 359.76 502.14 353 499.58 342.97 498.17 334.26 498.1 331.86 498.98 331.42 499.99 331.23 501.34 331.42 502.55 332.81 504.5 332.68 505.78 332.05 507.13 330.03 510.16 328.51 511.78 326.68 512.79 324.66 512.92 322.51 512.11 321.57 511.1 321 509.62 319.93 507.6 318.79 506.25 314.25 502.28 310.84 500.86 299.54 501 293.73 499.52 289.5 497.02 287.17 496.28 275.74 495.48 273.66 493.05 272.65 489.01 271.76 481.06 270.63 477.02 269.05 474.33 268.54 474.12 266.52 473.32 254.91 476.35 247.02 477.29 243.42 476.14 238.43 470.96 231.3 467.32 220.32 457.96 216.28 456.34 214.7 455.4 213 453.51 211.1 451.9 210.98 451.9 208.89 451.16 204.16 450.69 201.44 451.9 197.72 456.41 195.57 457.89 193.05 457.69 190.52 456.14 187.94 454.19 183.33 451.43 179.67 447.45 177.71 445.77 175.5 444.96 170.89 443.81 169.06 442.4 167.86 440.45 165.97 439.1 157.82 434.79 156.44 433.64 156 432.63 155.93 431.49 155.49 430.01 154.29 427.99 152.65 426.17 150.69 424.75 148.55 423.94 147.16 424.15 146.59 425.16 146.15 426.44 145.33 427.72 144 428.39 142.49 428.66 141.48 428.19 141.79 426.64 140.28 426.3 139.65 425.49 140.02 424.62 141.48 424.01 140.21 421.45 134.85 415.12 133.59 412.16 131.69 405.83 129.8 403.33 127.65 402.19 118.5 400.37 114.21 399.56 113.51 398.35 113.32 397.07 113.01 395.93 111.93 395.25 110.48 395.79 108.72 395.72 106.88 395.39 105.43 394.85 103.73 393.57 103.29 392.09 103.1 390.47 102.4 388.85 101.08 388.31 97.29 388.25 95.58 387.91 94.01 386.97 90.47 383.19 88.96 382.19 86.12 381.31 84.54 380.57 83.53 379.36 81.7 375.79 80.56 374.91 77.15 374.24 75.58 373.7 73.93 372.82 73.3 372.01 73.36 371 73.49 370.06 73.18 369.45 71.22 369.39 69.64 369.32 67.81 370.4 66.93 371.81 66.67 373.7 67.43 380.5 66.99 381.85 65.16 380.9 61.25 376.06 59.6 375.05 57.77 374.98 55.94 375.45 54.18 375.72 52.34 374.91 51.27 373.56 48.75 368.31 48.05 367.7 46.41 367.23 45.65 366.89 44.96 366.09 43.95 364.4 43.45 363.66 41.87 362.72 38.65 362.11 36.88 361.51 35.55 360.43 32.46 356.25 29.49 354.43 28.67 354.23 26.97 353.9 25.27 352.55 24.76 348.17 24.82 346.01 25.08 344.06 25.64 342.31 26.84 340.56 28.23 339.41 29.81 338.61 31.14 337.53 31.89 335.71 31.89 335.64 31.58 332.14 32.34 327.36 34.16 323.32 37.01 321.9 38.58 322.1 40.54 322.1 42.31 321.56 43.45 320.15 43.19 318.53 41.68 314.02 42.12 312.47 43.7 312.27 44.9 313.21 45.72 313.42 47.61 306.34 47.99 303.85 47.74 301.9 47.11 301.29 46.22 301.29 45.47 301.16 44.96 300.08 44.27 295.7 42.31 292.2 41.68 290.38 41.99 288.49 43 287.75 45.65 286.88 46.22 285.87 46.48 284.45 47.11 283.78 47.93 283.17 48.81 282.1 48.81 282.03 50.64 280.61 51.46 279.81 52.09 278.8 52.16 278.26 51.9 277.65 51.78 277.04 52.09 276.3 52.6 275.83 53.73 275.23 54.3 274.82 56.38 272.46 57.46 270.24 57.58 267.88 56.76 265.05 55.5 262.16 54.62 259.46 54.62 256.77 55.94 253.81 58.41 251.78 63.9 250.24 65.85 248.62 70.59 242.56 72.61 239.19 73.87 235.28 74.63 233.47 76.02 232.66 79.3 232.25 81.07 231.65 82.27 230.91 84.67 228.55 87.95 226.26 88.89 225.25 91.61 220.74 92.93 219.39 98.49 215.08 100.32 212.25 99.06 209.42 100.38 208.14 101.96 206.12 103.41 205.04 103.48 205.04 104.36 206.39 105.24 208.27 106.82 208.68 113.07 206.52 113.77 206.52 114.78 207.33 115.97 209.15 116.98 211.24 118.18 214.74 120.27 218.31 121.02 219.99 121.97 224.71 121.97 224.91 123.17 225.92 125.63 225.25 127.84 225.25 132.07 227.27 134.15 226.86 135.1 225.31 134.97 222.28 136.24 221.41 137.88 220.87 138.76 220.2 138.89 219.93 139.27 219.12 139.58 217.43 139.46 216.69 138.7 215.01 138.76 214.27 139.77 213.53 141.22 213.39 142.68 213.46 143.88 213.33 145.33 212.25 146.46 210.77 147.09 209.01 147.54 205.65 148.67 203.69 148.99 202.62 148.93 201.74 148.29 199.99 148.17 199.05 148.1 195.28 148.42 193.52 149.37 191.97 149.87 190.49 149.62 188.81 149.87 187.39 151.7 186.85 153.47 187.53 156.81 190.9 158.71 191.91 161.11 192.31 162.18 191.91 163.19 187.8 163.63 186.92 164.33 186.45 166.09 186.11 167.36 185.57 167.8 184.63 168.11 183.69 168.68 183.02 170.77 182.75 172.79 183.42 184.02 188.61 185.98 189.08 188.06 188.74 190.02 188 192.04 187.66 195.95 189.41 199.11 189.21 200.94 189.55 201.76 190.16 202.9 191.77 203.53 192.31 204.41 192.51 205.29 192.18 206.18 191.71 207.06 191.44 210.98 191.17 213.12 191.37 214.57 192.11 214.95 193.79 213.94 199.99 214.19 202.82 215.21 204.7 216.91 205.92 219.31 206.79 220.7 208.21 220.32 210.23 218.11 214.34 218.24 215.75 218.87 218.04 219.69 220.26 220.57 221.48 222.46 221.75 224.1 221.07 225.81 220.8 229.98 223.43 231.81 223.77 233.7 223.77 235.78 224.31 236.54 224.98 237.61 226.73 238.37 227.34 239.89 227.6 241.34 227.4 242.73 227.4 244.18 228.28 245.38 229.9 246.83 231.38 248.53 232.66 250.24 233.6 254.72 235.01 256.36 235.96 263.43 244.98 265.01 246.13 265.96 246.06 267.85 245.45 268.86 245.52 269.93 246.26 269.93 247.14 269.49 248.22 269.24 249.5 270.06 251.31 275.68 255.76 277.38 258.45 278.39 259.46 279.53 260.07 280.6 260.41 281.55 261.08 282.18 262.36 283.5 264.31 285.46 263.64 287.55 262.02 289.31 261.21 290.2 261.69 291.52 263.24 292.28 263.84 293.23 263.98 295.31 263.64 296.38 263.84 301.62 268.56 302.38 269.63 303.64 272.26 304.59 273 305.91 272.94 306.48 271.79 306.73 270.24 307.18 269.1 307.81 268.83 310.27 268.22 312.42 268.02 313.55 268.02 314.56 268.49 315.82 269.43 316.2 270.04 316.52 271.45 316.77 271.93 317.47 272.4 319.04 272.94 319.74 273.34 321.88 275.56 322.64 276.98 322.89 278.59 322.58 279.47 322.01 280.07 321.5 280.81 321.38 282.03 322.89 284.38 328.83 283.11 331.35 285.73 331.61 287.62 331.35 289.24 331.48 290.58 334.32 292.94 334.51 294.08 334.38 295.43 334.82 296.91 335.96 297.99 337.1 298.6 338.04 299.34 338.93 302.37 339.94 303.31 342.46 304.32 344.1 305.54 344.99 307.15 345.87 311.13 346.06 313.48 346.25 314.56 346.88 315.44 348.02 315.91 350.35 316.24 351.36 317.05 352.44 317.73 356.16 318.47 357.55 318.53 359 317.93 359.06 317.86 359.76 316.38 360.14 314.49 360.83 312.74 362.73 310.86 364.94 310.05 367.33 309.98 369.67 310.25 371.75 309.98 375.86 307.89 378.06 307.22 378.7 306.88 379.52 305.47 380.08 304.86 382.93 304.12 384.63 303.85 385.77 303.85 386.9 304.12 387.79 304.59 388.35 305.4 388.54 306.81 389.74 306.21 390.88 305.87 391.95 306.14 392.77 307.29 394.04 308.57 395.68 308.3 397.44 307.56 399.08 307.62 399.97 308.63 400.54 311.53 401.17 312.67 402.43 313.01 403.88 312.81 405.14 312.94 405.71 314.49 405.14 316.24 403.88 317.93 403 319.68 403.5 321.77 405.59 323.79 406.15 324.53 406.47 325.61 406.98 328.97 409.06 330.25 411.14 330.93 412.15 332.34 409.88 341.44 411.58 344.26 412.47 345.81 417.2 348.64 423.45 349.92 424.59 350.46 425.53 351.27 427.05 353.9 429 355.58 429.76 356.59 431.15 361.51 432.35 363.6 434.69 364.27 436.77 364.2 438.35 364.87 439.86 365.82 441.69 366.49 446.81 367.37 447.63 367.84 448.51 369.72 449.14 370.53 450.97 371.21 452.68 371.54 453.81 372.42 453.31 377.4 454.51 378.28 458.74 378.48 460.5 379.42 462.9 382.25 464.48 383.6 465.68 384.07 466.75 384.2 471.87 383.87 473 384.07 474.52 384.61 475.53 384.74 476.41 384.41 477.17 383.73 478.31 381.24 478.87 380.63 481.59 379.09 482.47 378.82 483.23 378.48 483.86 377.6 484.74 375.72 485.38 374.84 486.01 374.24 488.09 373.76 489.92 374.51 493.33 376.93 497.87 378.41 498.5 379.69 497.5 385.01 497.18 385.89 496.61 386.83 495.98 387.37 494.4 388.04 493.83 388.85 493.71 389.46 493.64 391.48 493.14 392.89 490.74 394.38 490.17 395.39 490.93 401.25 490.93 403.33 490.55 406.5 490.43 407.85 491.06 409.46 493.14 410.68 495.41 410.74 497.24 409.8 499.01 409.4 501.98 412.23 503.68 412.9 505.45 413.3 506.96 413.44 508.23 413.1 510.75 411.89 511.82 411.69 513.09 412.29 513.91 413.24 514.85 414.04 516.43 414.18 517.88 413.5 520.03 411.08 521.29 410.27 522.81 410.2 524.2 410.74 526.91 412.09 528.93 411.75 531.01 411.69 533.16 411.96 535.18 412.49 537.01 413.77 538.27 415.12 539.41 415.12 541.93 411.15 542.69 410.54 544.65 409.8 545.28 409.19 545.41 408.25 545.34 407.24 545.66 406.37 546.92 406.1 547.36 408.45 547.55 413.17 549 415.93 550.77 418.22 552.79 420.17 555.19 421.79 559.29 423.68 561.25 424.89 562.64 426.57 562.95 427.72 563.4 430.01 565.04 432.23 565.16 433.24 565.1 434.25 565.16 435.53 565.86 438.02 566.87 439.44 570.09 442.4 571.22 444.35 571.22 446.44 570.78 448.53 570.72 450.75 571.79 453.38 573.43 454.05 577.66 453.58 580 453.78 580.25 453.78 580.95 453.65 582.21 453.04 585.11 450.08 585.62 449.61 585.62 448.53 585.11 447.79 584.48 447.12 584.04 446.31 583.98 445.16 584.29 444.22 584.29 443.34 583.47 442.4 582.52 441.73 582.4 441.12 582.59 440.45 582.59 439.5 582.97 437.75 583.03 437.15 582.77 436.34 581.7 434.72 581.58 433.64 589.59 425.16 591.49 425.56 592.37 427.65 592.5 430.28 591.93 432.36 591.11 434.18 591.3 435.19 591.99 436 592.69 437.21 593.32 440.31 593.95 441.59 595.34 442.4 595.4 442.4 597.23 442.94 599.12 443.14 600.89 443.55 602.41 444.76 604.55 447.59 605.44 448.26 606.38 448.46 607.08 448.13 607.84 447.72 608.72 447.59 609.54 447.99 612.63 450.69 614.46 451.43 615.73 451.29 619.07 449.54 621.03 448.46 622.29 446.91 622.86 444.89 622.86 442.4 622.86 440.51 623.43 439.3 624.18 438.22 624.88 436.81 625.13 435.19 625.13 433.51 625.38 431.96 626.27 430.75 627.78 430.48 628.98 431.42 630.24 432.63 631.7 433.31 633.09 432.97 635.11 431.08 636.3 430.48 637.95 430.61 639.78 431.35 641.42 432.43 642.74 433.64 643.12 434.92 642.74 438.09 643.44 439.57 646.22 440.58 652.72 440.25 655.3 442.4 656.13 444.96 657.58 446.71 659.6 447.65 661.93 447.92 664.71 447.45 665.78 447.12 666.41 446.91 667.99 446.98 670.26 448.39 673.17 451.56 678.22 458.36 681.82 460.38 684.22 460.52 688.95 459.98 694.25 461.39 696.4 460.05 698.42 458.16 701.01 457.22 702.96 457.82 702.58 459.31 701.51 461.06 701.51 462.67 703.09 462.67 711.29 460.25 714.89 459.37 716.47 459.17 718.3 459.71 718.74 460.25 719.06 461.06 719.57 461.93 720.32 462.61 721.84 462.61 724.74 461.06 726.13 460.59 728.34 460.99 730.04 461.66 732.06 462.54 734.46 462.27 737.18 460.92 739.39 458.9 741.09 456.34 742.54 453.45 743.62 451.76 744.63 451.56 746.39 452.64 753.65 452.98 754.6 453.31 756.55 454.32 757.69 454.52 758.89 454.32 761.35 453.31 762.43 453.18 764.51 453.92 768.49 456.14 770.57 456.61" style="fill:#efc441"/></svg>