<svg xmlns="http://www.w3.org/2000/svg" viewBox="0 0 800 800"><path d="M754.19,113.2l.63,7.55.13,4.31-.51,4.17-1.26,4.58-2.65,5.93L750,141.9l.13,3.23.76,1.62.88,1.48.76,2.29,1.64,19.13-.25,9.56-1.77,8.49-3.92,8.89L733.1,217.33l-1.38,3.51-1.9,4.58-1.64,8.89L726.41,263l-1.26,9.43-3.41,5.66-6.56-1.89-2.78-.94-9.09,1.21-9.72-2.69-17.55.27-6.19,1.75-3.28,2-3.15,2,1.51,2.83-.38,2.42-.88,2.16.12,2.15,1.27,1.75,6.06,4.45-10.23,4.58-3,.27,2.27,4.18.63,4.71.26,4.58,1.13,4,3.66,3.64,4.8,2.15,14.65,1.76,9.47,3.23,5.17.67,4.93-.27,4.54-1.21,1.77-1.35,1.13-1.75,1.14-.54,11.24,16,2.65,6.87-1.64,9.57L722,364.3l-1.38,4-.13,4.85,1.64,5.66,1.14,1.75.5.68-.5,1.34-8.21,4.45-2,2-4.29,6.2-3.66,2.82-8,3.1-3.53,3.24-4.17,7.4-2.27,1.89-11,1.08-1,.13-2.91,1.35-3.15,3-1,1.49-1.52,3.36-1.39,1.62-2.27.94-1.89.14-1.64.67L658,430.31l.38,3.91,3,1.88,4,1.08,12,5.93,4.8,4.44.88,1.22.51,1.88-.13,3.1-1,.81-1.39.27-1.51,1.48L675.41,463l-4.29,4.45-5,2.42-16.29.54L631.48,476,622.39,482l-3,1.21h-3.79l-11.87-3.1,1.52,5.93-.76,2.69-7,1.76-.5-4.18-3-1.48-7.07-.95-.76-.94L584,479.75l-1.27-1.08-1.51-.27-5.81,1.21-6.18-2.29L563.3,473l-5.93-2.42-6.31,3,2.27,1.62,6.94,6.33,2.4,3.5-2.9-.67-4.42-.94-5.94-1.49L542,483.65,539.31,485l-3.91,2.43-3.53,1.34L524.29,490l-3,1.88-.63,2.43,4.17,2.83,2.52,5-.38,5.39-3,2.56-1,.94-.12,2.83,1.76.67,5.43-.13,2,.94,4.17,2.83,1.77,1.62-2.4,7.41,4.16,4.71,12.5,4.85-2.14,5.93-1,3.77.88,3.23,12.25,15,7.44,7.54,1.27,8.62.88,4.72-.63,5.11-1.39,5.66-.25,4.72,2.78,3-1.14,2.29-.51,5.79-1,3.24-1.76,2.29-4.8,2.83-1.89,1.75-9.47,15.49-3.92,4.17L546,644.63l-1.65,5.26-.5,5.79,1.26,4.85,4.29,2.15,9.22-5.65,4.29,1.34-1.51.68-4.17,3.1,3.79,3.23-2.65,3.23-10.61,5.12-17,11.86-2.4,2.55-3.53,6.61-2.28,2.15-3.41.4-2.52-2-2.15-2.56-2.52-1.21-5.18,2.43,1,6.06,2.91,7.41.12,6.6,2.53-.41,4.79-2.15,2.53-.67,2.52.27,4.8,1.48,6.69-.68.38,1.35-1.13,2.16-.76,2.15.25,3.77.51,2,1.38,1.49,4.42,2.42,5.94,1.75-.26,1.08-1,1.48-.37,1.62,1.64,5.39-.13,2-1.14,2.69-2,2.16-4.16-.27-2.53,1.34L534,749l.13,2.29.5,2.29-1,3.1L531,759l-2.78-.67.76,3.37,1.39,2.15,1.89,1.08,1.14,1.62-.38,3.36-3.79.68-13.38-.41-2-.67-2-.54-16,.4-1.89-1.21-3.79-3.77-1.77-.54-1.64,1.08-2,2.69-.88,1.22-2,.27-1.9-.27-3.41-1.76,1.9-5.92.38-3.1-2.91-.81-4-1.62-1-.67-3.15-1.89-2.91-4-.38-5.79L477.58,730l2.15-.81,2.14-.67.89-.68,2.39-3.09,3.16-6.07,2.15-3.23-1.9-.94H486.8l-4,.94L490,705.25l2.91-6.33-2.4-3.1.38-3.36.88-2.56,1.51-.81,2.15,1.61,1.39-1.75,1-1.75,1.39-3.64-.51-1.07-.25-.81-.5-1.89,2,.27,2-.27,1.89-.67,1.64-1.08-4.17-3.91.64-3,2.52-2.29-.38-1.35-1.64-3.23-3.16-.27-5.68,1.35-2.52-1.89-3.79-4.71-3-1.62-2.4-.27-7.7,1.48H471l-2-1.21-1.76-1.88-2.53-1.49L454.35,651l-3.16-2.42-1.13-.81-.51-5.93-1.39-5-3.41-4-4.29-2.43-4-.4-3.53,1.62-7.83,4.85-3.79,1.21-21.84-.81L393.62,638l-1.13.27-3.28-.67-.13-9.3-3.16-3.63-3.41-.27-7.19.54-3.16-1.62-.88-1.75-1.9-5.66-1-2.29-6.31-6.2-1.13-2.56.63-5.65,2-4.18.63-4.31-3.54-6.2-5.55-3.23-.51-.67-2.9.67-1.14,1.62-.63,2.42-1.26,3.23-2.9,4.18-4.17,5.12-4.67,4-4,.94-7.07-3-3.41-.81-12.88-.4-3.91-1.48,1-3.1,2.15-.27,7.95,3.37-1.26-4.58.75-3.91,1.14-3.77-.38-3.91-1.89-2.29-3-1.75-3.41-1.21-2.65-.14-6.06,2.7-14.27,15.49-1.89,1.34-2.53.81-2.9.14-5.81-1.35-5.3.94-2.52-.27-3.54-2.15.38-2.56,1.64-3.23.13-4.45L262,580.92l-2.4-.41-5.43.81-9.85,3.23-9.72,5,2.27,2.15-.37,1.89-1.14,2-.13,2.69,1.39,2.29,4.17,4.45,1.13,2.56-1,4.44-3.4,1.62-8.72-.4-3.53-1.08-6.69-3.23-1.64-.14h-3.66l-.76-.81-1.52-3.1-.5-3.23.13-2.69-.38-2-1.9-1.22-2.14,2.56-4,1.08-16.54-.4-3.79-1.22-3.79-2-10.1-7.81-3-1.08-7.7-.67-2.65,1.48-5.43,9.16-2,2.7-2.9,1.34-6.57.54-2.39,1.35-2,.4-2-.81-5-4.71L115,592.77l-7.2-6.2-2.9-.27-7.58,2.56-4.17.14-10.47-2.16-3.29-1.61-2.77-3.64-2.53-4.18L72,574.31l-6.19-4.71-1.89-2.83-.76-4.18L65,560.17,83.94,549.8l49.61-4.72,4,.54,2.78,1.35,2.91,2.56,2.65,3.1,1.76,3.9-1.89.68-3.16,1.88-1.26.95v1.61l17.68,1.62,9,3.23,7.57,5.93,2.4,4,3.66,9,2.78,3.36,4.42,1.08,9.6-1.21,3.53,1.75,3.66-1.08,6.06.27,2-.54,3.54-.81,2.52-6.06-1.51-5.52-3.79-4.31-5.18-2.7-1.76-.26L201,568.39l-7.57-3-2.91-.13-5.81.54-2.77-.41-4.42-2.29L162.84,551l9.85-4.18,4.8-1.21,16.54.81,4.79,1.21,4.42,3.24V551l-.75-5-2.4-1.89-.76-.14-7.2-.26-2-.68L188.35,542l-1.52-1.61-.88-2.29-.63-3v-3l.5-2.29,2.4-2.29,3.16-1.21,6.31-.41-1.9-1.75-4.67-3-12.87-3.5-2.66-3.51-1.13-8.62-3.16-5.52-4.42-3.5-5.3-3.24-3.41,2.29L153.5,497h-4.8l-3.53.81-.76,1.08-1.26.27h-1.77l-1.77-7.41,5.43-3.1,11.62-3.23,1.51-1.89,3.66-.13,6.06,1.21,5.18,2.42.76.14,1.39-.14,1.89-.81,2.27-1.61L178,482.17l-4.67-5.79-1.26-.81-1.14-1.08-.38-1.61.38-2.16.89-1.34.88-1.08.38-.81-.63-4-3.54-10.37-2-4.45,1-2,1.27-1.75,8.58,1.75,7.2-1.08,6.31-3.5,26.26-28.29,22.6-29.23,18.68-29.77,11.11-28.83,1.64-7.41v-2l3.66-6.74L283,258.29l3.16-13.21.5-4,1.9-8.22,7.7-17.78,1.76-8.75.26-4.85.75-6.33,1.39-5.53,2.15-2.29,11.24,1.48,1.89-1.48,1.39,1.89-2.78,8.22,4.29,4.85,7.58,1.88,7.19-.4,4.3-2,7.82-5.93,3.79-1.21,7.32-.95,7.33-2.69,37.11-29.1,2.65-2.83,3.41-2.42,8.59-1.75,3.66-2.16,3.79-6.6,5.05-18.18,3.78-8.22,6.44-6.6,4-3.1,6.82-2.56,3-3,2.9-3.64,3.41-3.1,3.66-1.08,8.84-1.34,6.44-4.85,29.54-10.38,6.69-4,4.17-.4,12.37-5.52,17.8-.68,20.08-.67,16.15-.41,2,.54,3.16,2.56,1.77.54,1.64-.4,4.67-3.24,27.52-7,43.43-5.79,18.31,2.69,3.79,1.48,3.15,2.83L700,84.64l1,.41,4.42,2.69.38.68.88.67.88,1.21,1.27,1.21,5.8,1.76L722,96.9l3.29-.94,1.64,1.48,2.14.54,2.28-.54L732.85,96h1.26v1.75l-1.51,1.21-.63.81v1.08l.88,2.29.38,4.31,5.56,2.83,13.38,3Zm-709.14,494,29.8-8.48,2.78-2,2.9-.27,11.61,6.73,17.93,4.45L116,612.3l3.91,1.48h7.45l7.07,1.76,4.42-.54,18-6.87,2.52-2.56.89-5.26,1.77-2.29,4,.14,4.29,1.48,2.65,1.48,1.26,1.62,2,4.17L178,608.4l2,.67,4.55.54,1.77,1.35,1.26.4,6.31.54,3.16-4.31,1.26-.94,3.53.4,4,2-.12,1.08-1.39,6.19-1,2.56-7.2,8.76L187,634.13l-22.85,10.1-8.34,5.93-4.16,1.21-21.84.13-2.28-.8-2.77-3-.26-2.69.26-3-.89-3.36-3.53-2-22.6-6.61L93,629.41l-4.55.14L81.16,631l-3,.13-2.65.68-2,1.88-.38,3,.51,3.23-.51,2.56-8.71,1.21L58.44,643l-4.3-1.75-1.26-.54-4.54-4.31-2.53-6.6.13-6.07.76-6.46ZM171.81,526l7.7,1.89L183,530l.38,4.31-1.89,2.56-3,1.88-3.28,1.08L161,542.39l-3.16-.14L150.85,540l-3.91-2.56-1.77-3.5-1.26-3.37-2.91-2L133.81,526l-1.27-1.07-1.13-1.35-1.52-1.21-2.52-.14L122.82,527l-1,.81-8.33.54-3.79-1.08-2.4-3.1.51-8.48,6.69-3.91,15.53-2,.76-.14,3,.14,2.4,1.21,17.67.41,4.17.8,2.9,2,6.94,7.55.89,1.34,1.13,1.49ZM329.74,149v1.61h3.66l-1.26,3.5-2.4,4.18-5.05,6.87L316,171.53l-4.16,7-6.19,1.61-6.57-2.29L295.53,171l1.14-7,3.66-7.82,4.67-6.46,8.71-6.6,4.29-8,4.67-6.6,5.81.27.63,1.48.51,1.48-.13,1.21-1,1.22L331,138l1.89,4.71v4.18Zm-2.52-29.37,7.7-8.76,12.12-9.7,12.5-6.33L368.88,96v1.75H364l-2.4,1.21-5.3,1.75-14.65,12.4-3.91,5.25L332.9,122Zm100.37-56L430.11,62l27.27-4.58-4.29,5.12-5.18,1.62-10.73.4.38.81.38,2,.38.94-2.4,1.08-7.7.54L420,73.19l-6.56,1.49-25.51,9.69-5.3-.13-2.27-4,2.14-4.58,9.85-3L395.64,70l4.17.14,24.75-4.45Zm46.2-10.1L518,51.91l7.57,3.5-18.3,3.64H488.31l-4.67,1.08-9,3.5L470,62.69l-3.15-4,1-3.9L471,52.45ZM573,42.61l18.18-1.48,5.18,1.48v1.76h-2.53l-31.68,8.89-3.67,4.17-1.13-1.75v-.81l1.13-1.34-1.89-3.64,4.55-3.5,6.94-2.7Zm42.3-12.93,2.52-.27,10.1,3.77h-.76l-.63.41-.63.67-.38,1-6.69-1.89-3.16-1.75Z" style="fill:#efc441"/></svg>