<svg xmlns="http://www.w3.org/2000/svg" viewBox="0 0 800 800"><path d="M187,601.33h0l-4.19-1.9-1.61-.24-1.2-.68-.64-1.65-.8-3.25L177,591.23l-8.95-10.72-.75-.55-.4-.18-1.26-1-.29-.37-2.93-.92-1.32-1.28-2.81-3.62-2.24-1.22-2.81-3.25-3.67-2.2-1.21-1.17-.34-.73-.8-2.69-2.59-1.23-3.09-3.24-7.75-3.62-1.32-1-1.09-1.4-1-2.88-10-8.15-1.61-2.14-2.23-5.39-.92-.79-.81-.49-2.23-2.39-1.32-2-1.38-2.88-.29-1.35-.4-1.22-1-1-2.06-1.72-2-2.63L101.05,510l-3-8.51-.81-1.41-2.12-1.89L78,487.07l-1-1.41-4.76-2.87-2.53-2.94-5.79-2.76L63.64,475l1,1.34,1.61,1.17,2,.86,1.84.36-2.13-2.45-1-.91L65.7,475,65,474.4l-1.9-3.86h-.51l.86,3.37L62,472.68l-2.18-2.94-1.61-1.65-1-.49-5.28-4.29-.69-.79-.34-.92L50.44,460l-.23.49-.69.85-.23.49-9.24-11.32L39,448.13l.4.43.35.24,1,.55v-.55l-.4-.18-.75-.49v-.55l-.17-.92-1.43-1.29-1.9-1-1.66-.49v.55l2.18,1.53,1.2,1.17v1L37,448,35.69,447l-1.84-1.89L24,438.82l-2.06-1.9-1.21-2.26V432l1.55-3.12,2.35-2.2,2.47-1.6,1.78-2,.4-3.49h.52l-.23,1.9-.29.55h.92l1.15.19,1,.3.41.43.4.25,2.12,2,.52.3,1.49,2.14.4.31,1,.74.29.24.11.55-.17,1.41.06.55,2.75,2.94,3.56.8,8.67-.56v-.67l-4.36.12-2.24-.3-.92-.8.86-1.47,4-2.14.57-.37,19.23-1.35,1.26.19L74.25,429l1,.06.46-1.47,1.78-.91,2.12-1.41,1-1.1,2-3.25.45-.43,1.27-.61.4-.49.23-.92-.35-.31-.46-.24-.22-.55.74-4.78-.17-.24-.63-1.47-.12-.49.12-.25.63-2.57.57-1.22.69-.92,4-3.68,1.15-.79,1.32-.43,1.43.18,4.82,2.51.8.25.81-.18.57-.49.63-.43,1.15-1.11L103,400l.17-1.41-.45-2.57-.23-.55-.58-1.16-.57-.49-.58-.19-.46-.24-.34-.92.12-1.29,1.09-2.57.11-1.41-2.7-10.9,0-1.53.57-2.94L99,370.36l-.34-.55L98,369.2l-.34-.31-.29-.42-.17-.86.23-4.84.06-1.59.23-1.29.11-.55.4-.37,1-.67,1.89-1,1.78-.12,3.62.43,6.88-1.35,3.27-.25,2.81,1.66,1.5.43,1.2-.43,1.09-.61,1.26-.19,1.32,1.47.46.37.81.24.57.13,4.36-.31,1.55-.43,1.21-.61,1-1.16.52-1.41.63-2.7,1.32-2.2,5.51-6.25,2.92-4.83.87-.62,1-.36,1-.56,1-1.1.57-1.16.35-.92.46-.73.92-.92,1.14-.68,6.43-1v1l-.92,2,.23,2.45,5.91,4.53,1.84,2.58.57.55,1.15.43.75-.19.8-.3,1.15-.13,1.83.86,1,1.59.8,1.9,1.32,1.71,1.9.68,2-.06,1.72.12,1.09,1.35.17.06.06.06.17-.18.57-.56.69-1.47.18-1.46-.46-1.05-1.27-.42-.34-.8.4-1.71.8-2.76.12-2,.4-.49.86.24,1.49.07,1.09-.49,1.67-1.6.74.25h.52l-.06-.43.12-.12h.23l.28-.06-.28-1,2.92-.92.81-.92.8-1.29,1.84-.61.74-.12L200,332l1.55-.55.8-1.22.18-1.47.45-1.23,3-.85,1.43-.86,2.18-1.84,1-1.28.92-1.72.68-1.77.58-2.33.8-1.41,1-1.35.8-.85.4-.07.86.19.35-.12.28-.25.23-.67.58-.8.34-.61.46-.49.8-.18,2-1.11.91-.18h3.16l2.07-.37,2.12-.73,1.72-1.1,1-1.54-.12-2.08-1.09-1.83L229.94,300l-1.32-1,2.29-1.84.06-.61-.17-1.35.11-.61,1.9-2.14.34-.62.17-4.59.35-2.57.63-1.29,1.55.43,1.32,1.53,1.43,1.17,1.78-.92,3-3.19.51-1.22.12-.31h-2.18l.51-.67,1.84-1.9-2.35-1.77-.46-.86,1.32-.37.4-.24.29-.56.46-3.36.74-1.41,1.09-1.16.17-.13,1.32-.92,1.5-1.16,3.84-3.92,1.38-.86,5.05-1,2.18-.07,2.18.68,1.84,1.47,1.26,2.14-.29.25-.63.91-.06.19,1.67.18.23,1.1-.06,1.23,1.66,1.22.92,1.53,1.26,3.13,1.55-1,1.61.18,3.21,1.53,1.9.43,6.14.18-.35.62-.23,1.77,1.27-.37.86.49.92.8,1.26.43.92-.31,2.18-1.28,3.15-1.17,1.55-2,1.15-2.32,1.09-1.72.8.92.63,2.33.64.49,1.26.12,2.06.49.92.12,1.72-1,.41-2-.41-4.29.46-1.1,1-.06,1.14.43.81.43.63.61,1.95,2.27,1,.42,1.26-.12,2-.61.52-.31.34-.42.41-.37.8-.19.69.13.4.18.34.06.58-.37v-.67l-.75-.8-.57-.79-1-2.21.92-.79.63-.06,1.9,1.34.22.37.29.37.92.12,1.38-.06.46.24.17.74,1.43.18,8.27-.49-.41-.73v-.86l.41-2.08,1,.61,1.32,1.53,1.09.31-.12-.43-.4-.86.63.31.29.06.35.25.45.67,1-1,1.49-.92,1.66-.55h1.55l-.69-.49-.4-.43-.57-1.1,4.65-.31,1.72-.67-.12-1.47,1-.06.86.12.63.43.29.8h.63L353.6,257l.35-1,1.55-.73,1.66-.25,1.9.06,1.54.49.69,1h.63l.35-1.1.17-1.22.4-1.05,2.07-.79,2.12-1.78,1.21-.36-.17-.31-.23-.67-.18-.25,1.21.37.46.24-.23-1.22.11-1.1.46-.37.81.8,0-1.35.17-.61.41-.56-.52-.91.23-.43.86-.12,1.09.18.46.43,1,1.71.75.43,2-.24,1.66-1.11,1.32-1.53.8-1.59,1,.92,1.09.43.86.61.46,1.22,1.26-.91,1.43-.13,3.68.43-1,.55-.06.49.64.43,1,.43.35-.06,3.73.06,2.23-1.1,1.15-.19,2.81.13,1.15-.19-.63,1-1.55.74-.75.86-1.26-1.54-1,1-.81,2-.63,1-1.09.55-1,1.28-.75,1.59-.28,1.23-.23.43-1,1.1-.46.67-.23.86-.11,2-.23.92-.69,1.16-1,.8L386,263.94l.23-.55.23-.43.69-.92v.68l.28-.49.18-.43.05-.43v-.61l-.63.43-.28.06-.75-.49v-.55l1-.49.92-.19.86.37.63.86-.05-1.72-.92-2.38-.23-1.84-.52-1.84-1.2-.3-1.32.55-1,.67-1.66,1.59-3.73,5.09-.86,2.14.8-.86.29-.43,1.14,1,.92,3.74.58.85,1.09.68L384,269l1.26.43,1.27-1.71-.58-.55-1.55-1-.69-.37.92-.55,1,.3.86.92.69,1.23-.06-2.08.63-.68.75.8,3.27,16,.17.49.8,1.72.69,4.34,4.08,12.56.46,3.55-.41,3.12-2.29,5.76-7,11.87-3,3.92-.4,1.47-.63,1.11-4,3-1.72,2.51-1.15,2.94-2,8.45-3.21,11.51-2,10.35.12,4.46-.35,2.21v1.71l-1.78,4.53-1.49,6-.92,11.75.17,2.21.58,1.22-.58.55.46,1.17,2.82,18,1.77,11.82L368.12,460v5.32l.29.86,1.2,2.63.87,2.88,2.29,3.49.57,2.27-.23,2.75-.86,1.47-1.72.62-2.69.12-2,.43-2.13.79-1.95.37-1.66-1,.63-.67,1.72-1.29.52-.61.06-1-.35-1.41-.52-1.29L360.32,475l.17-5.94-.4-2.27.29-.18h.11l.06-.06.17-.31h.52l3,1,2.07-2.81.68-4.11-1.09-2.75v-.68l.69-.85.29-1.23.11-5.08.18-.18.34-.31.4-.49.23-.61-.28-2.45-1.61-1.47-2.24-.55-2.12.18-1.72,1-.75,1.72v1.83l.69,1.6,1.83,1,.18.18v.31l.17,1.59.11.61.35.61.4.25.29.37.17.91-.06,1.6-.17.61-.4.67.28.43.92,1.41-2.64,1.65-4.47,4-2.7,1.23-3.62.43-1.54.49-.64,1.22v4.72l.12.12.34-.25.69.06,1,.25h.69l.58.18.63.8.57,4.1-.34,1.9-.58,1.84-.28,1.77.63,1.66,1.55.79,2.64-.61.46,1.41-.12.92-.4,1.77-.11,1,.17.55.4-.85,1.32-4.66.52-1.16.74-.49,1.67.31.34.67-3.9,8.33L356,505.56l.64,11.64.63,2-.58.36-.63.25.35-1.9-.58-1.53-2.12-2.76-.86-2.32.69-1,1.26-.86.63-2.08-.4-1.59L353.89,504l-1.43-1.47-1.61-.79-2.53.24.12,1.35,1.32.86,1.09-1.23h.63l1.44,1.53.57,1,.23,1.23-.29,1.53-1.26,2-.17,1.47-.46,1.71-1.49.06-3.45-1.16-.46.3,1,.68,2,.92.51.67.35,1,.17,1.16.06,1.17-.18.79-.74,1.72-.17.67.17.49.28.49.18.61-.12.55-.4.62-.46.24-.46.18-.34.25-1.55,2.14-.46.31-.75.3-.8.62-.69.85-.34.8,1.09.73,1.32,1.35,1.14,1.41.75,1.71.57.49.87.31.8.12,1.26-.18.06-.37-.35-.61-.11-.73.57-1.72.46-.92.75-.37,1.43-.06.81.74,3.84,16.53.23,3.19-.06,1.16-.11.73-.29.55-.69.68-.17-.25-1.2.25-1.15.43-.06.18-.69.31-.86,1.28-.74.31-1,.06-.86.12-.69.37-.69.67-.86,2.82-.8,4.22L347,568.45l-1.78-.31h-.58L342,571.76l-.74,1.4-.46,1.53v9.19l2.58,11.88,1.84,4.71,2.47,4.11.86,2.26,1.95,3.43.74.73,1.5,1,.63,1.72.63,2,1.49-.31-.29-1,.63.19.64,1.59.23.12.11.49-.23,1.23.86.49v1.95l.8,3.25-.22,2.45-3,1.59-5.51,1.41-.4.12-5.57,2.27-1.72,2.14-.34.18-2.24-.49-.57.19-1.21.86-.8.18-.75-.12-.57-.31-5.05-4.22-.4-1.54-.92-.67-1.15.18-1,1.05-1.43-.31-2.07,1.41-1-1.1h-.57l-1,.79-1-.37-1.55-1.65-1,.18-.74-.12-.64-.06-1.26-.06-1,.73-.41-.61-1.83-1.59-.23-.31-.35-.36-.11-.49.34-.74.35-.24,1.15-.62-.29-2.2-1.44-1.29-1.6-.85-.75-.92-.92-.61-3.9-1.6-.86-.91-.23-.62L301.38,613l-.34-.67-.17-1.1v-.92l-.18-.67-.8-.43-.69.43-4.53,3.12-.8.37L293,613l-.86-.36-.81-.43-.69-.68L288.7,609l-.34-.24-.4-.25-.46-.18-.46-.12-4.19-2-1.9-.61-1.83.06-1.44-.19L274.47,603l-1.49-.67-2.64.61-6.2,4.41-8.67,6.06-1.95.74-1.89-.19-13.54-5.32L226,603.84l-3-1.16-11.36-4.47-8.49-3.37-2.7-1.59L198.15,591l-2.41-1.35-2.82,1.29-2.35,3.37-1.49,3.55Zm170.73,13.16-.06.37-.4.43-.41.06v-.3l.23-.19v-.18l-.45-.25-.29.06-.4-.24.4-.06Zm-5.11-85.41-.63-2.51-.18-3.25.58-2.88,1.72-1.22h.17l.06.06.06.18-.06.31-.57.92-.58,1.47-.4,1.65-.17,1.47.51,3.31.06,1.22ZM409,505l-.17-2.08.8-1.59,1.21-.61.92.79-.29.61Zm24-206.65,1.37-.74h1.09l.75.8.29,1.47L436,302.4l-1.55.79-4.42-.43-.4-.06h.58l.11-.24-.06-.37,1.38-.8.52-1,.28-1Z" style="fill:#efc441"/><polygon points="779.29 165.91 779 165.73 779.29 165.42 779.29 165.91" style="fill:#efc441"/><path d="M678,172.65l-.34-.31.57-.37ZM665.9,172l.17-.12.11.19H666Zm.51-.24-.06-.18.12.12Zm17.39-5,.06-.37.34.18Zm2.47-.25.11-.3.12.12Z" style="fill:#efc441"/></svg>