<svg xmlns="http://www.w3.org/2000/svg" viewBox="0 0 800 800"><polygon points="190.38 705.66 190.06 705.38 189.61 704.56 189.22 704.36 189.06 703.95 188.96 703.5 188.77 703.12 188.55 702.33 188.39 701.92 188.16 701.72 187.9 701.54 187.58 701.24 186.01 698.87 185.62 698.46 185.11 698.08 183.41 697.43 181.28 696.06 180.77 695.85 180.25 695.54 179.71 695.44 179.03 695.85 178.42 696.16 177.78 695.99 177.2 695.58 176.78 695.17 176.11 694.34 175.05 692.42 174.7 691.5 174.47 690.37 174.34 689.27 174.21 689 173.57 688.48 173.44 688.21 165.34 680.39 163.45 677.4 163 676.44 162.81 676.17 162.42 676.03 160.88 675.86 160.3 675.66 159.78 675.35 159.4 674.94 159.11 673.8 158.76 673.15 158.28 672.6 157.31 672.05 155.06 669.93 154.51 670.68 153.39 670.75 152.91 670.86 151.98 670.82 151.53 670.89 150.98 671.27 150.24 672.23 149.82 672.6 149.31 672.71 148.83 672.36 148.31 672.57 148.06 672.88 147.93 673.25 147.83 673.63 147.67 674.04 147.03 675.14 146.61 675.42 144.94 674.94 144.62 675 144.04 675.45 143.78 675.59 143.52 675.55 143.14 675.31 142.95 675.28 141.28 675.76 141.05 675.9 140.63 676.34 140.38 676.51 140.02 676.55 139.86 676.31 139.8 676.03 139.67 675.93 139.12 675.9 138.67 675.83 138.35 675.96 138.13 676.62 137.87 677.13 137.61 677.06 137.35 676.75 137 676.65 136.78 676.86 136.36 677.44 136.26 677.54 135.65 677.61 134.59 677.58 133.95 677.64 132.79 678.23 132.41 679.09 132.44 680.25 132.89 683.1 134.46 687.86 134.72 688.34 135.07 688.75 135.56 689.2 136.04 689.44 136.49 689.54 136.81 689.78 136.9 690.4 136.87 691.29 136.52 691.36 136.04 691.15 135.56 691.22 135.23 691.6 134.88 692.32 134.56 692.7 134.14 692.84 133.72 692.77 133.31 692.87 133.05 693.52 133.11 694.07 133.66 694.96 133.75 695.48 131.31 693.28 127.58 687.73 124.28 682.82 120.77 677.61 118.75 674.63 117.85 672.84 117.98 671.37 118.68 670.75 121.38 670.13 121.61 669.96 121.93 669.45 122.25 669.28 122.38 669.35 122.89 669.59 123.12 669.65 125.91 669.38 126.59 669.21 126.94 668.66 126.85 667.53 126.85 667.29 127.01 666.74 127.01 666.53 126.81 666.16 126.2 665.47 125.95 665.06 125.56 664.27 125.33 663.62 124.98 660.57 124.82 659.92 124.5 659.23 124.08 658.68 123.21 658.1 122.73 657.69 122.22 657.14 122.06 656.87 121.77 655.87 120.55 654.33 118.68 653.81 114.09 653.4 113.67 653.64 112.87 654.6 112.35 654.95 112 654.88 111.64 654.71 111.26 654.81 111.07 655.05 110.75 655.73 109.94 656.97 109.46 657.96 108.88 658.85 108.11 659.4 107.28 659.5 101.33 658.96 96.51 658.51 94.97 658.07 93.65 657.31 90.4 654.4 87.83 652.1 84.01 648.67 82.79 647.57 79.32 644.45 76.52 641.95 73.82 639.55 72.41 638.79 69.07 638.49 67.72 637.7 67.3 636.91 67.17 635.91 67.17 634.99 67.14 631.73 67.11 626.96 67.11 622.61 67.72 620.59 68.71 620.76 72.47 622.37 74.98 623.02 76.04 623.5 76.36 623.4 76.81 621.65 77.03 621.07 77.29 620.79 78.13 621.07 78.9 621.79 79.83 622.27 81.08 621.72 80.19 620.65 79.48 620.11 78.71 619.9 76.71 619.63 75.88 619.35 70.74 616.85 69.19 615.61 68.33 614.07 68.07 611.77 66.17 609.61 63.63 608 61.48 607.32 59.71 607.49 58.88 607.45 57.95 606.97 57.4 606.39 57.37 606.08 57.5 605.84 57.56 605.67 57.5 605.36 57.53 604.95 57.37 604.57 56.92 604.47 50.68 604.71 49.43 604.23 48.79 602.96 48.98 602.21 49.46 601.11 49.72 600.15 49.4 599.67 48.5 599.33 47.98 598.74 47.5 598.06 45.93 596.96 45.19 596.24 45 595.97 44.64 595.42 44.23 594.46 43.87 594.01 42.88 593.36 42.59 592.98 42.59 592.43 42.97 591.51 42.97 591.06 42.46 590.48 41.65 590.03 40.88 589.45 40.5 588.56 40.4 587.67 39.92 587.19 39.31 586.88 38.86 586.37 38.86 585.92 39.24 585.1 39.31 584.75 39.12 584.34 38.86 584.07 38.57 583.83 38.25 583.49 37.67 582.52 37.48 581.94 37.67 581.33 38.79 579.47 39.02 578.89 39.24 577.28 39.44 576.83 39.89 576.22 39.92 575.8 39.79 575.5 37.8 572.65 31.05 566.1 30.41 565.48 28.99 563.01 28.7 560.41 31.85 550.98 31.53 549.43 30.18 546.45 30.25 544.98 30.82 544.19 31.5 543.64 31.92 542.95 31.79 541.79 31.53 539.22 31.53 537.98 31.92 537.43 38.12 539.08 39.69 539.11 41.2 538.77 44.23 537.64 45.7 537.54 53 540.31 53.64 540.25 54.93 539.9 56.27 539.35 57.66 538.8 64.82 538.57 66.11 538.26 67.27 537.67 71.19 533.8 74.27 530.75 78.03 527.04 81.21 523.89 82.47 523.1 84.04 522.69 87.51 522.55 92.04 522.38 96.57 522.24 101.11 522.07 105.64 521.9 110.17 521.73 114.7 521.56 119.26 521.42 123.79 521.25 128.32 521.08 132.85 520.91 137.39 520.73 141.92 520.6 146.45 520.43 150.98 520.25 155.54 520.08 160.07 519.91 162.39 519.84 162.65 519.16 162.65 517.27 162.74 516.35 162.87 515.83 163.19 515.56 163.96 515.35 165.79 515.32 171.42 516.35 180.22 517.92 185.08 518.81 185.33 518.88 186.17 519.09 186.62 513.19 187.1 511.79 191.21 509.14 194.88 504.86 196.61 503.86 200.34 503.11 202.11 502.08 203.26 500.57 203.39 500.26 204 498.75 204.36 496.77 204.81 491.76 205.1 490.83 205.8 489.63 208.53 486.75 208.57 486.62 208.6 486.44 208.6 486.14 208.6 486.07 208.6 486 208.57 485.93 208.53 485.86 207.96 484.35 207.76 482.91 207.96 481.51 212.17 470.6 212.87 469.44 213.77 468.41 214.87 467.52 216.92 466.38 217.6 465.73 217.95 464.53 217.95 458.84 217.92 454.42 217.89 447.53 217.85 444.27 217.98 443.82 218.59 442.79 218.82 442.25 218.56 437.2 218.63 436.28 218.88 435.35 219.27 435.18 219.75 435.18 220.39 434.7 220.36 429.28 220.36 426.03 220.33 419.65 220.33 413.27 220.3 406.89 220.26 400.51 220.26 394.1 220.23 387.72 220.23 384.12 220.23 381.31 220.2 374.93 220.2 368.52 220.17 362.14 220.17 355.73 220.14 349.42 220.14 349.32 220.1 342.91 220.1 336.5 220.07 330.08 220.07 323.64 228.91 321.79 237.78 319.9 246.62 318.01 255.49 316.13 260.14 315.13 270.43 312.97 280.71 310.78 285.4 309.78 291.44 308.51 293.57 307.66 295.59 306.18 299.29 302.65 302.24 299.84 305.2 296.99 308.19 294.18 311.14 291.37 314.1 288.52 317.06 285.71 320.01 282.9 322.97 280.05 325.93 277.24 328.88 274.4 331.84 271.58 334.8 268.74 337.79 265.93 340.74 263.08 343.7 260.27 346.65 257.42 349.35 254.85 351.12 253.17 354.75 249.88 358.13 246.83 361.47 243.81 364.81 240.76 368.19 237.71 372.81 233.49 378.98 229.44 382.17 227.35 385.38 225.22 388.56 223.13 391.77 221.04 394.95 218.95 398.14 216.82 401.35 214.73 404.53 212.64 407.71 210.55 410.93 208.42 414.11 206.33 417.32 204.24 420.5 202.11 423.68 200.02 426.9 197.93 430.08 195.8 433.29 193.71 436.47 191.59 439.69 189.5 442.87 187.4 446.08 185.28 449.26 183.19 452.45 181.06 455.66 178.97 458.84 176.84 462.05 174.75 465.24 172.62 468.42 170.53 471.63 168.41 474.81 166.31 478.03 164.19 481.21 162.1 484.39 159.97 487.6 157.88 490.78 155.75 494 153.63 497.18 151.54 500.36 149.41 503.57 147.32 506.75 145.19 509.97 143.07 513.15 140.97 516.33 138.85 519.54 136.72 522.73 134.63 525.94 132.5 529.12 130.38 532.3 128.29 535.52 126.16 538.7 124.04 541.91 121.91 545.09 119.82 548.31 117.69 551.49 115.57 554.67 113.44 557.88 111.31 561.07 109.19 564.28 107.1 567.46 104.97 570.67 102.84 573.86 100.72 577.04 98.59 580.25 96.47 583.43 94.34 587.58 95.4 591.72 96.43 595.87 97.46 600.01 98.52 604.13 99.55 608.3 100.62 612.42 101.64 616.56 102.67 620.71 103.74 624.85 104.77 629 105.79 633.14 106.86 637.29 107.89 641.44 108.91 645.58 109.98 649.73 111 654.48 112.21 659.98 115.43 662.61 117.86 668.5 123.32 674.38 128.73 680.26 134.15 686.11 139.6 688.26 141.56 688.93 141.94 689.67 141.87 692.63 140.15 700.66 135.63 708.7 131.06 716.73 126.5 724.76 121.94 724.8 121.91 725.34 125.24 725.92 128.53 726.47 131.85 727.05 135.15 727.62 138.44 728.17 141.76 728.75 145.06 729.3 148.35 729.87 151.64 730.42 154.93 731 158.26 731.54 161.55 732.12 164.84 732.7 168.13 733.09 170.36 733.44 172.59 733.83 174.72 733.83 175.75 733.86 178.49 733.92 182.36 733.99 186.79 734.08 191.24 734.12 195.08 734.18 197.83 734.18 198.86 734.21 200.23 734.4 201.09 735.14 201.84 737.36 203.07 738.26 203.72 739.87 205.78 740.99 207.6 741.76 208.9 742.57 210.17 743.34 211.44 744.14 212.74 744.91 214.01 745.72 215.31 746.49 216.58 747.26 217.89 748.06 219.16 748.83 220.42 749.64 221.73 750.41 223 751.21 224.3 751.98 225.57 752.79 226.84 753.56 228.14 754.33 229.37 752.43 230.54 751.28 232.56 750.89 234.96 751.28 237.33 751.86 238.63 752.5 239.8 753.33 240.79 757.16 243.98 758.48 245.49 761.21 248.65 763.94 251.83 766.67 255.02 769.4 258.21 770.53 259.48 771.2 260.61 771.3 261.5 770.94 262.39 769.98 264.21 768.12 267.81 766.22 271.41 764.36 275.01 762.46 278.61 761.75 279.95 760.27 284.07 760.11 286.23 759.92 288.59 759.73 290.99 759.53 293.36 759.34 295.73 759.18 298.09 758.99 300.46 758.8 302.86 758.6 305.22 758.41 307.59 758.22 309.95 758.02 312.32 757.83 314.72 757.64 317.09 757.48 319.45 757.29 321.82 757.09 324.19 756.9 326.55 756.71 328.92 756.51 331.28 756.32 333.65 756.13 336.01 755.94 338.38 755.77 340.75 755.58 343.11 755.39 345.48 755.2 347.85 755 350.21 754.81 352.58 754.62 354.94 754.43 357.31 754.23 359.68 754.04 362.04 753.88 364.41 753.69 366.77 753.49 369.14 753.3 371.5 753.11 373.84 752.91 376.2 752.72 378.57 752.53 380.94 752.4 382.86 752.34 383.3 752.18 385.67 751.98 388 751.79 390.37 751.6 392.73 751.4 395.1 751.21 397.43 751.02 399.79 750.83 402.16 750.63 404.53 750.47 406.86 750.28 409.22 750.09 411.59 749.89 413.92 749.7 416.29 749.51 418.65 749.32 420.99 749.12 423.35 748.93 425.72 748.74 428.05 748.58 430.42 748.38 432.75 748.19 435.11 748 437.44 747.9 438.78 747.74 439.37 747.58 439.91 746.97 440.84 745.36 442.69 742.76 445.67 740.13 448.69 737.49 451.68 734.86 454.69 732.22 457.68 729.59 460.69 726.95 463.71 724.31 466.69 721.68 469.68 719.04 472.69 716.41 475.68 713.77 478.69 711.14 481.68 708.5 484.7 705.87 487.68 703.23 490.66 701.43 492.75 698.67 495.87 696.1 498.79 694.78 500.78 693.37 502.87 691.95 504.96 690.57 507.05 689.16 509.14 687.78 511.24 686.36 513.33 684.98 515.42 683.57 517.51 682.15 519.57 680.77 521.66 679.36 523.75 677.98 525.84 676.56 527.93 675.15 530.03 673.76 532.12 672.35 534.21 671 536.2 669.78 538.98 668.24 542.47 667.53 544.05 667.31 545.05 667.24 546.14 667.43 547.17 668.08 549.37 668.14 550.39 667.72 551.6 667.02 552.01 666.12 552.08 665.18 552.32 664.7 552.69 663.19 554.48 662.29 555.16 662.1 555.44 662.2 555.71 662.68 556.19 662.84 556.46 663.13 558.42 663.1 559.38 662.71 560.3 661.14 561.71 660.4 561.88 659.27 562.09 657.38 562.26 655.67 563.01 654.48 563.63 652.94 565.93 652.94 568.95 653.84 572.48 654.48 575.08 654.97 577.45 655.29 579.06 655.64 580.67 655.99 582.32 656.32 583.93 656.64 585.58 656.99 587.19 657.31 588.83 657.66 590.45 657.99 592.09 658.34 593.7 658.66 595.32 659.01 596.96 659.34 598.57 659.69 600.22 660.01 601.83 660.36 603.48 648.73 602.93 648.7 602.96 647.32 603.2 646.9 603.54 646.93 604.44 646.23 604.95 644.33 606.84 644.01 607.28 643.75 607.8 643.75 608 643.98 608.38 644.04 608.65 643.91 609.07 643.62 609.13 643.3 609.13 643.08 609.2 642.66 609.92 642.75 610.16 643.4 610.23 642.56 611.43 641.4 611.88 640.15 612.12 638.9 612.73 639.06 612.32 639.15 611.81 639.06 611.4 638.61 611.29 638.35 611.5 638 612.36 637.64 612.73 637.64 612.15 637.64 611.98 636.87 612.25 635.97 612.32 635.46 612.12 635.72 611.6 635.72 611.29 634.43 611.4 633.21 611.88 629 614.14 627.71 614.38 626.4 614.07 626.2 614.89 625.75 614.96 625.18 614.65 624.44 614.41 624.44 614.79 624.82 614.93 625.14 615.13 625.47 615.44 625.75 615.85 625.14 616.4 623.83 617.95 623.79 618.08 623.86 618.5 623.83 618.63 623.7 618.67 623.28 618.6 623.15 618.63 622.96 618.77 622.32 618.98 622.19 619.18 622.38 619.76 622.67 620.14 622.7 620.35 622.03 620.41 621.93 620.21 621.67 619.87 621.38 619.66 621.25 619.87 621.19 619.87 620.87 620.72 619.68 622.3 618.91 622.92 617.85 623.19 617.3 623.47 616.98 624.63 616.56 624.91 615.86 624.74 615.37 624.39 614.96 623.95 614.47 623.53 614.41 624.36 614.31 624.67 614.02 625.01 613.67 625.28 613.35 625.39 613.19 625.08 612.96 625.28 611.23 627 611.1 627.82 610.49 628.75 610.17 629.5 610.91 629.81 610.62 630.94 610.36 631.46 609.98 631.94 609.62 632.04 608.56 632.25 608.37 632.42 607.95 635.16 607.76 635.74 607.08 636.09 606.31 635.91 605.41 635.57 604.35 635.4 603.07 635.37 601.39 635.3 600.62 635.06 600.17 635.33 599.85 635.09 599.5 634.64 599.02 634.37 598.57 634.44 598.28 634.68 598.09 634.92 597.89 635.06 597.54 634.99 597.44 634.78 597.44 634.51 597.25 634.16 596.7 633.86 594.36 632.97 593.55 633.14 592.59 633.86 591.91 633.96 590.37 634.13 587.61 633.41 586.68 632.93 584.52 631.11 578 626.86 572.79 624.6 558.59 620.79 535.74 620.93 527.23 619.87 522.69 620.24 521.41 620.52 498.59 625.73 496.63 626.62 487.73 631.9 486.89 632.76 486.7 633.31 486.51 634.54 486.29 635.06 485.93 635.47 485.74 635.5 485.48 635.47 485 635.67 484.1 636.29 482.52 637.87 474.46 647.98 474.14 648.39 473.59 648.88 473.08 649.25 472.75 649.39 471.76 649.46 461.8 648.22 460.96 648.29 458.45 649.05 456.69 649.05 443.03 647.33 441.36 647.13 429.02 643.25 427.28 642.19 426.48 641.16 425.13 638.76 424.2 637.7 422.14 636.05 421.05 635.5 419.76 635.19 419.22 635.19 418.06 635.33 417.51 635.54 416.97 635.81 416.77 635.95 416.61 635.95 416.13 635.74 415.78 635.5 411.09 630.98 409.93 629.47 409.32 628.88 408.68 628.58 408.64 628.58 407.26 628.16 406.56 627.82 404.98 626.48 403.7 625.63 402.57 624.53 402.06 624.08 400.74 623.57 388.85 621.75 387.24 621.92 385.63 622.68 368.57 633.62 367.09 634.13 365.42 634.13 360.5 633.17 359.48 633.38 356.62 636.94 354.4 639.03 353.4 639.55 353.11 639.62 352.28 639.75 348.78 639.75 347.2 639.58 345.79 639 344.24 637.8 342.54 636.12 339.78 632.73 338.62 630.46 334.8 622.99 327.12 614.07 320.53 607.42 317.41 605.5 316.54 605.33 314 604.74 313.11 604.92 310.4 606.56 309.89 606.7 309.6 606.56 309.28 606.25 308.86 606.01 295.59 600.42 282.29 594.84 280.78 594.46 273.83 595.76 272.52 596.45 272 597.2 271.2 599.09 270.56 599.91 269.11 601.01 268.56 601.25 266.96 601.55 260.24 601.25 255.49 602.17 252.75 601.97 251.69 601.49 250.63 600.39 249.54 599.88 248.06 600.05 238.71 602.48 233.12 603.96 230.58 605.02 228.36 606.66 221 614.17 219.69 614.86 218.27 615.13 215.22 615.24 215.12 627.44 214.96 628.61 213.48 639.55 206 652.06 202.94 655.15 192.69 663.35 192.5 663.89 192.95 676.55 191.7 683.23 191.66 685.43 192.85 689.17 193.04 690.88 192.27 692.6 191.47 693.45 190.96 694.17 190.73 695.03 190.99 697.91 191.15 698.39 191.41 698.94 191.57 699.11 191.79 699.25 192.88 700.48 193.46 701.41 193.69 702.44 193.37 703.53 192.79 704.15 190.38 705.66" style="fill:#efc441"/></svg>