<svg xmlns="http://www.w3.org/2000/svg" viewBox="0 0 800 800"><path d="M499.11,627.63l-6.19,3.11-3,2.3-.67,1.76.22,2.38.9,4.62-.45,4.78-1.42,4.22-2.08,3.74-2.54,3.5-5.82,5.89-6.94,4.38-7.46,2.62-7.46.56-11.41-.64-7.24,1.52-1.49-.4-1.34-1.35-1.35-1.91-.89-.64-21,1.83L405,671.81l-3.29.24-10.37-3L378,670.14l-3.44-.32-7,.72-7.31,2.86-6.94,4.3-6,4.78-.67.79-1.34,1.67-1.49,3.59-2.24,5.33-1.79,2L335.58,699l-1.86,1.91-9.33,13.93-4.32,3.35-2.84,1-2,.24-1.35,1-.52,3.18.75,11.62H314L312.83,737l-.45,2.07-1,.16L309,740.59l-3,1.83-1.87-.4L289,732.47l-.9-.8-2.68-4.46-.68-.63-2.08.31-2.24.72-8.58,4.46-2.17.79-2.46.24-4-.08-2.38.48-2.17,1.43-1,1-.22.4.22.55L258,739l.74,2.79.6,1.43-.07,1.83-.38,1.91-.3,1-5.22-1-1.49-5.41-1-2.55-1.65.16-1-.4-.45-3-.3-6.21-3.2,2.31-1.5-.08-.59-2.71-.67-1.51-1.65-1.75-1.71-1.35-1.2-.48-1.64,1.35.68,1.67,1.56,1.52.9.55.15,1.36,1,3.66.22,1.91-.89-.88-1.12-.79-1.27-.72-1-.4-1.42-.16-.67.08-.6-.08-1-.79L230,730.24,224.5,722l-.45-1.35-.67-1-2.61-.56-.67-.55-.3-1-.07-1.51.22-2.55-.45-.56-1.71-.16-1.12-.23-1.87-1.2-1.12-.4-4.47-.24-1.94-.39-4.4-2-2.69-.64h-2.76l-1.94,1-.15,2.14,2,2.23,2.76,1.83,2.09.72,3.73-.56,1.11.72-.74,2.63,1.12-.4,1.12-.32,1,.08,1.19.64-1.34,1.75-.89,2h2l.82-.32.9-.72.67,1-1.27,1.19-1.34,1-1.49.79-1.8.56-1.79-.08-1.26-.88-1.27-1.35-1.64-1.27-.38,3.1,1.05,3.19.52,2.94-2,2.63,1.64,1.59.67.32-.45,1.27-.75.48-2.16.08-.45.4.23.87.59,1.52.38,1.91v1.19l-.75.56-1.19-.08-1.05-.24-1-.48-1-1,.45-.32.08-.16.07-.16.22-.4-1.34-.72-1.19-.07-.82.71-.38,1.51-.74.16-1.42-.32-.89-1,.82-2.15-2.69,2.31-1.34,3.34-1.79,3.11-3.88,1.51-3.88.08-1.94.4-.9.79-.52,2.31-1.19,1.75-1.57.64-1.34-1.43,1.49-7,1.64-3,2.91.79,6-2.62-1.72-1-3.73.64-1.94-.72,1.35-1.91,2.31-1.75,2.61-1.35,2.31-.48,5.37,1.27,2.09-.63.38-3.43-1.87.8-1.49-.24-1.12-1-.82-1.44,3.21-3.5.15-1.43L185,725.7l-2.17-.8-.89-1.35-1-.8-2.31,1.12.3.48.3.87.22.48h-2.83l-1.27.24-1.19.64,2.08.87L179,729l2,1.91-.15,2.23-2-1.67-2.91-1.27-3.06-.48-2.46.64.52.95.67.8.82.63,1,.4L170,735.89,168,737.24l-2,.48.07-.24-.07-.64-.3-.63-.45-.32h-6.71l1.34-2,4.7-3,1.42-2.38-.82-2.31-4.78-2.63.38-2.47-2.17.4-1.26,2-1,2.47L155.05,728l-1.64,1.27-1.79.56h-2l-6.34-1-1.19-.39L139.16,726l-1.2-.32-2.38-.24-1.79-.79L133,723l.82-2.78-2.68,1.59-1.05.32.45-2.31.89-1.43,1.5-.72,2-.24,1.34-.48,2.76-2.07,1.5-.23,1.56.63L145,717l1.94.4,1.79-.08,1.49-.48,1.27-.79,1-1.43-.82-1-1.19.88-1.2.15-1.19-.47-2.31-2-.52-.16-.38-.4-.59-1.75-.3-2.63,1-.95,4.48-.08,4.77-1,1.27.56L156,707l.3,1.28.59.87,2.32.16.74-4.54,2.24-1.19-1-2.07-1.79-.79-4.4.07-1.94-.31-3.81-1.36-1.64-.32-1.71.4-5.37,2.55-5.23,1-1.49.87-8.28-4.78L122,695.21l-2.16-1-1,2.39-1.2,1-2.76.64-5,.55-12.75-2.3-1-1.44.67-1.51,2.62-1.11,5.14-.4,2.24-1,.9-2.7.67-.4,4.55-1,.82-1,1.79-3.34,1.12-1.2,2.53-.48,1.8,1.28,2.76,4.3,1.11-.48,6.79-4.62-2.83-1.11-5.67.87L120,679l-1.57-1.75-.23-1-.07-2.23,1.12-8.52.45-1.43,4.85-7.24.74-1.52,1.34-4.06,1.27-1.43.82-.32.6.16.3,1-.22,2,1.34-1.52,1.86-3,1.57-3.26.45-2.31-.67-1.36L132,639.57l-.38-1.35.15-1.59.3-1.12-.15-1L130.28,633l.3-1,1.57-.08,2.16,1.19,1.19-.79,1-.24.6,1.35,1.64,1.75,2.31-2.07,2.54-1.35,2.76,1.83.67-1.51v-2.55l.3-2-1.19-1.11-.82-1.67-.23-1.6.75-1.27,1.56.56,1.12,2.23,1,1.91,2.46-.4.45-1-.59-1.91.14-1.83,1.05.4.52,1.35,1.05.64,1.86-.48,1.64-.24,2.61-1.59.82-.08,1.2,1,2.53.87,1.12-1.11.9-.48,1.19-1.43,1.64-1.12,2.54-1,3.06.16,1,.08,2.54.71,1.27.24.3-.47.22-1,.52-1,1.27-.4,4.85,2.86.45,1.28.37,2.54.67.72,1.27-.24.6-1.27.29-1.44.45-.71,1.12.4,1,.87.83,1,.29.87,1.2,1.91,2.61,1.44,3.06.63,2.16-.55-1-1-1.27-2.15-.67-.64-1.2-.31-2.16-.16-1.19-.56-4.93-6-1.71-1.35-1.42-.24h-2.61l-1.27-.64-.67-.87-2.84-5.1.08-.64v-.15l-1,.23-.3.64-.45,1.12-.82.95-1.49.08,1,.72.89.79.68,1-1.65,1L174.74,615l-1.71-.39-1.12-1.91h-.75l-.6,1.83-1,.47-2.91-.47-.15-.4-.3-.8-.44-.63h-.53l-.59.87.22.8.6.79.52.4v.88l-1.57.55-1.79-.08-1.64-.55-1.34-1.28-.67-1.51.37-1.11,2.16-2.55-.82-.4-.67-.56.45-1.27-.52-1.59-1.27-1.35-1.72-.4.52,3.34-1.49,4.3-3.06.16-1.26-1.67-.53-1.67-1.64-.8-1.27-1-.89-3.58L148,601l.45-2.3.37-5.1.15-2.23,1.27-3.26,1-3.19,1.86-2.7,1.2-2.23-.23-1.51,1.5-2.07,2.31-3.9,2-2.63.9-2.31,1.12-1.91h2.23l2.69.08,2.09-.48-5.52-.87.3-1,.37-1v-1l-.45-.79.23-.88-.08-1.11.15-1,.45-.64.15-.47-.75-.72,1-1.27,1.12-.48,2.76-.08,1.27-.4-.37-.95-.9-1.28-.37-1.11,1.64-2.71,2.31-1,2.61.08,2.39.87-.67-2.07-1-1-.23-1.28,4.18-7.48,1.42-1.35-1.72-.24-1.41-1-.6-1.83.82-2.38-.52-.48-1-1.36,1.12.32.44.24.6.4,2.31-1.27.9-1,.6-1.43h-2.32l-6.71-1-2.16-.87.37-2,2.54-3.66-1.2-.08-1.19.16-1,.31-1,.56L170,514l1.57-2.07,2.09-1.59,1.94-2.07.59-1.67.45-1.91.75-1.52,3.06-1.19,1-1.43.15-1.83-.75-1.75-1.64,1.19L167.88,504l-2.46.8-.9.55-1,.24-1-.63-2.91-3.43-.44-.32-1-1.27-1.86-.48-1-1,1.64-2.47h-7.38l.37.8.75,2.15.37.79h-4.85l-1-.24-.3-.71-.08-1-.44-.87-.68-1.12-.22-.87-.45-.56-1.27-.16-1.71.32-1,.08-1.41-.4-.82-.64-2.39-2.07-.45-.63-.37-1-.75-.16h-1l-.89-.32-3.06-3.1-1.2-.16-1,2.31-1.27-1-1.42-.48-1.26-.79-1-4.06-1.2-1.67-1.71-1.36-1.87-1-1.64-.56-2.46-.32-.9-.31-.44-1.28-3.06-.32-1.12-.79-.45-3.11-1.12-1.67-.67,1.43-.07,1.44.37,1.19.75,1.12.52,1.51-.45,1.59v1.67l-.67,1.2.07,1.35,1.35.48-.45,2.15-1.34.08-1.2.87.52,1.43,1,1.44-1,.39-2-.79-2.38,1.35-2.17,2.07-2.83,1.35-.9,2.39-.37.56-1.49-1,.07-.55.08-.4.45-.88-.83-.23-.29-.16-.38-.48L89.92,491l1.94-2.23.37-2.47,1.42-.88.52-2-.3-1.91h-.74l-1,.56h-.82l-.45-.56-.67-1.67-.45-.64-1-.63-1-.24-.74-.32-.23-1.11.08-1.2.52-2.15.15-1.35-.52-.72-2-1-.52-1.12.45-2.78-.15-1-1-.4L80,465l-9.25-1.76-.52.24-.38.4-.44.32-.53-.08-.44-.4-.38-1.11-.3-.24-.44-.56-.45-2.55-.3-.71-.75-.32-2.9-.56-1.5-2.86-.82-1-.74-.71-.75-.56-.67-.4,1.12-1.75,1.49-.72,1.49-.4,1.12-.95.67-1.91.82-6.61,2.47-3.5,3,.48L74.11,438l3.73-1-2.24-1.12-5.08-.24-2.46-.47-2-1.68-.82-2.31-.37-2.38-1.2-2.15L65.38,425,81,410.72l.45-.24,1.12-.24.59-.48.23-.48.15-1.59.29-.71,1.79-1.52,4.41-2.7,1.71-1.91,1.72-1.12,5.44-1.19,2.17-1,1.12-2.23.89-3.18,1.12-2.86,1.72-1.2,2.46-.64,2.31-1.43,5.3-5.17,3.73-4.62.74-1.75.53-.8,1.11,1,1.05,1.43.3.64.89.48,1,.31,2.69.24,2.91-.48,2.16.16,2.16-.16,1.65-.55.52-1.36-.75-1.67L135.35,372,134,370.28v-1.91l1-1.75,2.76-1,2.54-.87,1.79-1,2.69-1.19,2-1.2,2.17-1.51,3.13-1.43,3.8-1.19,2.84-1.2,1.49-.48,1-1,.67-1.35.67-1.6,1.72-.63,1.64-.16,1.64.63,1.49.56,2.09-.71.82-.08,1,.39,1.34,1.2.68.4,2.46.08.37-1-.22-1.75v-.08l.44-1.91.83-.64,1.86.32,1-.64.3-.87.08-1.91.37-1.12,1-1.59,1.05-.79,1.41-.32,4.55-.08,1.42-.56.75-1.59.22-2.95.52-2.7,1.27-1,1.64.48,1.49,1.27.82,1.12.23.39,6.41-.07,1.5-1-1.05-2.07-3.06-3.66,4.18-5.18,2.24-1.59.3-.16,3.28-.63,1-.4.6-1,.37-.95.67-.56,1.12-.08.89.24,4.7,2.07,1-.16,4.48-3,1.34-.64,1.79-.24,1.19.72,1.27,1.35,1.27,1,1.49-.72,1.57-1.2,3.35-.39,1.42-.72L243,315l-.59-.72-1.42-.08-1.79.16,1.27-2.07,1.94-.56,2-.39,1.86-1.28,2.24-3.34.67-1.59-.29-1.28.67-1,.89-.72,1-.56,1.19-.39-.3-1.83,1.12-1.36,1.57-1.51,1.34-1.91L254.79,292l2.61-2.39,12.38-7,1.5-1.27,1-1.68,2.76-6.05,1.27-1.51,2.68-2.62,1.27-1.6,2.54-5.73,1.19-1.75,5.37-6.29,3.44-2.47,3.13.08-.37.56-.15.56-.3.4-.67.47v1l3.73-1V250l-1.5-4.38-.74-3.5.67-1.75,3.81-5.81,1.79-6.29,2-3.82.37-1.83-.37-1.83-1.19-1.91.07-1.67,3.81-3.9,1.71-3.35,1.79-.4,3.81.24,1.19-.63,3.51-3.11,1.71-1-1.49-1.2L317.6,203l-1.41-1.12-.82-1.67,1.86-.71H319l1.57.63,1.56,1,3.29,3.5,1.86,1.19.82-1.27,1.34-3.5,6.12-2.39L337,195l1-1.59,2.32-1.6,2.31-.63,1,.95.15,3.11.6.79,1.34-.08,2.46.48,2,1.51,3.65,2.87,1.05-.16.45,1.91,2.31,3.58.89,1.75-1.79-.16-1.19.56-.37,1.35.44,2.07,1,1.44,1.64,1,3.28,1.35-.3.48-.44,1.44,1.79.23,5.67,2.15,1.49,1.36-2.39.95-2.31,1.28-2,1.91-1.49,2.54.82.08,1,.24.82.48.67,1.27.9-.24,1.42-.87,1,.24.52.63.45.64.6.32.82-.64,1.42-2.86.74-.48,1.64.72,2.47,1.75,1.49.32,1-.24.82-.4.74-.08.82.72.08,1-.67.88-.9.63-.67.32,1.87.88,2,.55,4.25.48,1.05-.16,1.94-.79.82-.08,1,.39.82.64.6.64.37.32,2.46.16,1.72-.64,1.49-1,1.87-.55,1.86.47,1.87,1,1.94.48,1.86-1,.15,3.11,1.57,1.51,4.18,1.11,3.65,2.39.82.4,1-.4,1.19-1.91.53-.08,3,1.11,10.3.32,2.76-1,2,1.35,2.24.4,1.71-.88.75-2.23,1-1,2.47-.72,4.4-.63,3.28,2.86,1.12-.55.89-1,.9-1.35,1.27,1.51.07,2.47-.22,2.46.45,1.52.89.24L463,245l1.79-1-.37,3.11,1.86,1.43,2.61-.08,1.72-1.51,1.57.87-1.57,2,4.63.4,4.32-3.9,11.12-19.5,1.64-5.41-2.16-3-.15-2.47-1.42-2.86-1.94-2.31-2.91-1.27-4.18-3.27-2.91-2.63-.45-3.1L475,197.62l-5.15-9.47-.67-2.7-3.58-1.12-1.12-2-.82-2.15-2.16-11.94.15-2.07,1.42-1.91,2.16-.64,5-.07,17.6-4.78,11.12.95,2.53.8,2.24,1.67,5.08-.24,3.73,1.75L514,164l4.55-1.67,1,.16,1.2.88,1-.56,1.49-2.15,1-1,1.12-.4,8.13.63,3-.63,1.27-2.39,10.44.48,7.24,1.91,2.16.55,4-1.27,1.57-5.57,1-1.83,2.31-.64,2.61-.32,1.94-.95,2.91-3,1.12-1.83.15-2.47,2.61,1.52,1.79.16,1.57-1,3.13-3.42,3.21-2.79,2-2.15.9-.71.74-.8.3-.8-.52-1.27-2.46-.16-.67-1,.3-1.6,1-.71,1.19-.4.89-.64.38-1.19-.08-1.12.23-1,1.26-1-.74-.79-.9-.64-1-.32-1-.08v-1H593l1-.8.67-2.07-.22-.71-.67-.4-.6-.48-.08-1.27.38-1.2.52-1,.75-.56,5.89-1.19.75-.4.37-2.47.89-2.07,1.2-.63,1.27,1.75,1.56-.88-.89-1.19-.6-1.28.15-1,1.34-.32,1.2.4,1,1.75,1.56.64,1-.32,1.2-.8,1.34-.72h1.64l5.3,4.22.67,1.2,3.13,1.59.67,1,.38,1.52.89.47,1.12-.23,1-.8.6-1.43.07-1.36.3-1,2.68-1,.75-1.51.08-1.91-.38-1.67,4.55.32,4.11,1,3.5-.55,2.76-4.7.52-5.1L648,86.26l.52-4.77,2.91-2.95v-.87l-1.86-.48-.45-1.83,1-2,2.76-.64-.52-2,.82-1.27.9-.88L654,67.48l-1.27-1.2-1.12-.48-.74-1-.23-2.63.23-1.75.37-1.59,1.34-3,1.79-3.58.6-2,.45-4.22,3.8-10,.82-1.51.52-1.43.15-3.27.45-1.51,1.19-.95,3.29-.4,1.49-.64-1-.4-.82-.55-.67-.8-.45-1,1.19-.48,2-1.28,1.19-.23,1.49.23.82.64,3.29,4.22,1,1,1.57.64,1.34.24,4.25-.24,5.15-2.07,3-.71L691.8,27l-.3,1.91-.89,2.23-1.2,2L688,34.2l4.55,2,5.82-.16,4.92.88,1.94,4.93-1.57,11.94.08,5.5,2.16,4.85,5.89,5.81.9,2.39,7.39,6.21,1.19.32,1-.08h.82l.82.72.22,1.11-.37,2.71.52,1.51,2.32,1.67,1.71-.79.3-2.07-1.72-2.15,1.42-2.15L730,78l1.94-.08,1.64,1.6.3,1.51.59,5.49.67,2.63,1.27,2.78.23.64.15,1.51.44.72.53.4.37.63,1.86,5.26,1.27,1.91,2,1.59,2.46.8,1.94,2,1.12,2.46.44,3.35v3.5l.23,1.91,1.12,1.27,3,2.31-.52.8-3.06.87-3.88,1.2-1.64.32-1.42,1.27-.67.08.08-2.55-.08-1.59-.3-.88-1.41-1.35-1.35-1-3.13-.4-2.39-1.27-.89-1.2-3.29-.56-1.64.72.45,1.75L727,119.77l-1.79.4-.89-1.27L723,118h-1.34v1.2l-.15,1.27-1.27,1-1.11,1.27.29,1.83-.07,1,.6.87.82.16.74.32v1.59l-.52,1-.82-.24-1.64-1.91-1.12.32-.82,1.67,1,1.67-1.19.32-.75,1.91-1.79.24-.52,3.18-1.27,1-1.27.15.07-2,.83-2.94-.9-2.47-1.42-.08-4.7,4.46-2.38,3.18-1.57,1-1.34.16.22,2-.6,8.12-.59.08-.9-.4-1.27.72-1.49,1.91.37.23.38.88-.82.56-1-.16-1.79-1.51-1.42-.72h-3l-2.16,1.59-.6,2.71-.07,1-1.65.24-.22,1.12-.52.87-1,3.42L681,164l-.82.4-1.26-3-1.35.47-.15,2.87-2.09,1,.75.64.6.72.89,1.51-1,.4-.82.55-1.2,1.92.38-.24-.23,1.35-.52,1.67-.3.64-.37,2.55-1.12.95-.89-.4-1-1.27-2.62-1-1.86,1-.67,2.94-.75,3.59.15,4.61-1.64,4.54-1.57,1.35-.29,2.39-1.05.88-1.79-2.79-1.49.08-4.18,2.55-1.27,4L650,205.74l-1,1.68-2.84,1.27-2.61,3.5-.9,4.46-1.49,5.81L639,226.2l1.27,3.27-.3,2.3-.52,2.07.75,4.14,2.39,3,2.16,2,1.42,1.27,2.38-.24.82,2,1.57,2,1.19,1,.68.08,1.71-.32.6.24,1,1.35-.07.48-.6.56-.37,1.83-.23.47-.82,3-.07.8-1.72,1.27-1.27,3.1-4.25,17.52-.89,6.12,1.79,5.18-.67,1.83-.23,2.15.08,4.54.82,6.21.45,1.35,2,2.39,1.57.95-1,.8-.67,3,.37,1-2,2.62.3,2.71-1.27,3.26-1,1.84-1.12-.16-.82-1.36-1.57.56-2.31.4-2.09-.4-1.94.48-1.79-.4-1.27.32-2.83-.16L628.69,326l-.37,2.63-2.09.4-1.49,1.59-1.27.48-3.29-.24-5.37,1.75-4.1,2.78-4.1,2.15-1.27,1.52L604,341.31l-1.79,4.21-.9,1.91-.75-.31-1-1-1-2-.82-1.35-1.87-.16-2.16.48L592,344.33l-.53,1.43-.67,1.44v.71l.08,1-.6.95-.15.8-.3,1.75-.45.72-.29,1.43-.38.79-.89,1-.52.8-.08,1.43-.15,3.42-1.19.4-.67,1.27-.45,1.44-4,4.85-4,5.26-5.23-.16-5.89,1.91-8.28,8.51-4.25,3.67-3.28.55L548,391.37l-3.58,1-1.79.08-1.34,1.59-3.29-.56-3.73,1.12-1.94,2.78h-1.41l-.15-1.27-2.09,1-1.87,2.14-.29,3.59,1.34.71,3.06,1.28.44,1.27.75,1-.6,2,.23,3.34-1.49.56-1,.87-.75,1-.67.47h-.75l-1.49-.71-2.16-.16-1.2.87-3.73,1.91-.74,2.07-1,1.12-1.87,1.11-3.35.08-1.42,1.44-1.94,2-1.49.79-2.61,1-2.09-.4-3,.32-2.91,4.14L495,436.27l-2.76-.72-2.38-4.45L488,429.5l-2.91,1.28-1,1.59.75,3.74-1.05.24-2.38-.32-1.05.08-1.19.4-2,1.11-1,.24-.89-.24-.37-.63-.45-.64L460,433.88l-.45.64-.15,2-.37.79-.9.8-1,.56-1.05.24-.74.63-1.79,3.11-.75.95-1,.4-2.62-1.67-1.71,3.1.07,2.39-.82,5.73-1,1.28-10.07.95,1.56,1.35-.22,1.36-3.51,1.67-3.8-.48-3.43,1.2-1.79,4.37-1.72,1.36-1.64-2-2.69-1.36-1.79,2.87-1.56.56L413.09,468l-1.56,1.67-1.35,3.11-3.13,2-.67,1.11-.23,1-1,2.14-.22,1.12.08,1.19.44,2,.23,3.27.44,1.43.68.64,1-.16,2.69,1.27,1.94,2.55.44,3.18-4.1,5.81-1.79,5.73,1.64,9.08,3,13.61-.08,3.82-.82,1.36-1.27.55-1.27-.4-1-1.51-.15-1.83.67-2,1.72-3.74-3.81-5.17-.37-1.84-1-1.43-1.34-.48-1.42,1-3.21,3-.22.32-.82,1.12-.6.63L391.53,525v1l1.27.64,2.61.63,1.27.64,1.34-1,1.79-.47,1.5.55.59,2.23-.74,1-3.36.71-1.12.56-.6-.79-.59-.56-.67-.4-.75-.08-1.05.32.08.72.45.95.15.8-1.2,3.58-1,3.82-.67,3.9,1.19,2.55,1.12,2.78,1.65,1.12,1.26.56,2.32,2.46,1.19.72,2.16-.32.45-1.19-.3-1.44v-.79l1.94-.24,2.24,5.25,2.16,1.44,8.21-.8,2.69.8,1.26,1,1,1.19,1.05,1.12,1.56.4h7.46l1.65.16,1.11,1.11,2.47,4.3,3.43,4.7.74,1.35.68,2,1.64,2.31,3.65,3.66.38,1.75.44.56,1.05-.88.67-.48.6.48.44.8.38,2.15.52,1,.82.8,1,.32,2,1.11,3.65,5.81,2.09,2.31,8.36,2,13,15.76,1.56-.64,4.93-2.62,1.42-.48,3.28,5.17.82.8,1.86,1,1.05,1,1.34,2.39v.48l.15,2-.07,2.46.44,2.39ZM124.39,494.22l-.53.87-1.34.64,1.12,2.95,1.49,2.94L122.75,503l-3.14,1.75-2.31,2.7-2.09.4-2.61,1.27,2-3.42,1.35.56.82-1.51-1.57-1.44.22-.63,1.27-.16.08-.56.3-.72-.6-.39v-2.39l1.79-1-.15-2.07,1.34-1.11-.15-1.12,2.09-.23Zm-4.7,146.39,1.79,3.1.44,1.51L117.23,644,115,643l-2-1.59-2.46,1.91-1-1.19.52-2.23,4.1-2.63,1.27-.24.6,1.2,1.79.63,1.19.72Zm48.49,102.84,1-.24-2.69,3.66-1.86,1.83-2.91,1.84-.9.87-1.56,1-2.24.47-.6-1,3.21-3.74,1.57-.72,1.11.4.3-.88.23-1.19h.59l.3-.16.15-.4.37-.24.75-.08Zm-19.7-2.55-.59-1.11-.15-.8.59-.32,2.17-1.59,1.86-.63.52-.08.3.47.23.64-.3.24-.6.16-1.42,1.43-1.71,1.43Zm-12.83-6.84,1.12.24.45,1.35-.3,1h-.6l-1.19,1.27-1,.32h-1.19l-.82-.4.08-.56.52-.32.45-.55.52-.32.82.16.67.32.3-.08.15-.56.07-.32-.3-.64ZM98.35,504.81l.6-1.12,1.19-.24.37.88v1.51l-.29,1.51-.82.8L98,508.07l-.45-.64.37-1.11-.22-.72Zm-.07-2.39-1.27.87H95.44L93.65,502l-4.47,1.27-.38.24-.52-.16.22-.95.75-.64,1-.56,1.87-1.59.45.16,1.49-.16,2.68-.79,1.94.16.75.95-.3,1.19ZM88.35,518,88,516.83v-1l1-.4,1.19-1,.23,1.11v.24l.37.4.08,1.51-1.35.72-.52.08Zm-41.62-51.5.52-.48-.15-.56.3-.08.3-.24-.23-.23.23-.16.44-.16h.3l.23.24.22.24.15.55.45.16v.64l.37.08v.32l-.15.39-.45.16-.22.32h-.6l-.3.56-.14.4h-.3l-.23-.32-.52-.16h-.52v-.64l.07-.63Z" style="fill:#efc441"/><polygon points="501.27 634.24 502.31 633.92 499.11 627.63 499.03 627.55 498.58 625.16 498.66 622.7 498.51 620.71 496.94 620.95 490.23 624.37 486.87 626.91 485.45 628.03 484.04 631.61 483.29 633.52 483.74 638.06 483.81 638.46 484.56 642.2 484.34 644.75 483.44 647.29 481.8 650.16 479.86 652.87 474.94 657.96 469.04 661.62 462.63 663.85 456.14 664.33 444.43 663.69 438.38 664.96 437.71 664.01 437.04 662.97 435.17 661.78 433.68 660.83 410.56 662.82 404.14 664.73 402.2 664.88 391.91 661.78 378.03 662.97 374.97 662.66 374.52 662.58 366.32 663.45 358.04 666.79 350.35 671.49 343.56 676.9 341.18 679.85 340.51 680.65 339.01 684.39 336.93 689.4 336.33 690.12 332.6 692.98 332.23 693.22 330.06 695.37 329.61 695.85 320.51 709.46 317.6 711.69 316.11 712.25 314.69 712.41 313.43 712.49 310.96 714.24 308.8 715.83 307.53 723.15 309.02 740.59 311.34 739.23 312.38 739.07 312.83 737 314.02 735.25 314.1 735.25 315.74 734.14 316.78 733.98 317.6 734.93 316.48 737.08 315.96 739.79 316.11 741.38 318.2 738.99 319.84 734.7 319.24 725.94 321.71 725.06 322.45 724.75 328.2 720.29 337.75 706.04 338.87 704.92 342.82 701.98 343.27 701.66 345.43 699.11 346.25 698.24 349.98 689.16 350.88 688.05 352.59 686.7 356.1 683.91 362.29 680.09 368.63 677.62 374.52 676.98 377.51 677.3 377.95 677.3 390.94 676.27 401.31 679.29 405.48 678.89 405.93 678.89 412.35 676.98 430.47 675.39 430.7 675.79 432.49 677.54 433.61 678.66 436.44 679.37 437.49 679.61 445.17 678.02 456.29 678.66 464.64 678.02 473.22 674.99 481.28 669.98 487.84 663.21 490.68 659.31 490.98 658.91 493.21 654.86 493.59 654.22 495.23 649.36 495.53 648.49 496.12 642.68 496.27 641.32 495.45 637.18 495.53 637.18 501.27 634.24" style="fill:#efc441"/><polygon points="337.4 688.27 359.43 666.23 358.04 666.79 352.9 669.93 339.39 683.45 339.01 684.39 337.4 688.27" style="fill:#fff"/><polygon points="310.96 714.24 308.8 715.83 308.58 717.08 312.57 713.1 310.96 714.24" style="fill:#fff"/><polygon points="332.23 693.22 330.06 695.37 329.61 695.85 329.21 696.46 332.95 692.71 332.6 692.98 332.23 693.22" style="fill:#fff"/><polygon points="367.51 663.32 307.54 723.29 307.77 725.9 370.68 662.99 367.51 663.32" style="fill:#fff"/><polygon points="349.98 689.16 350.88 688.05 352.59 686.7 356.1 683.91 360.43 681.24 378.75 662.91 378.03 662.97 376.07 662.77 308.18 730.66 308.4 733.27 348.22 693.44 349.98 689.16" style="fill:#fff"/><polygon points="314.02 735.25 313.19 736.48 315.08 734.59 314.1 735.25 314.02 735.25" style="fill:#fff"/><polygon points="328.2 720.29 331.54 715.29 321.82 725.01 322.45 724.75 328.2 720.29" style="fill:#fff"/><polygon points="372.46 677.21 387.5 662.16 384.41 662.42 369.29 677.55 372.46 677.21" style="fill:#fff"/><polygon points="319.35 727.49 308.81 738.03 309.02 740.59 309.16 740.51 313.19 736.48 314.02 735.25 314.1 735.25 315.08 734.59 319.53 730.13 319.35 727.49" style="fill:#fff"/><polygon points="392.79 662.05 377.53 677.3 377.95 677.3 380.57 677.09 394.96 662.7 392.79 662.05" style="fill:#fff"/><polygon points="316.11 741.38 318.2 738.99 319.66 735.18 316.18 738.65 315.96 739.79 316.11 741.38" style="fill:#fff"/><polygon points="398.94 663.9 386.19 676.65 389.26 676.4 401.11 664.55 398.94 663.9" style="fill:#fff"/><polygon points="410.56 662.82 406.95 663.89 393.75 677.09 395.94 677.73 410.88 662.79 410.56 662.82" style="fill:#fff"/><polygon points="416.54 662.3 399.94 678.89 401.31 679.29 402.48 679.18 419.63 662.03 416.54 662.3" style="fill:#fff"/><polygon points="425.29 661.55 408.79 678.04 412.35 676.98 412.71 676.95 428.38 661.28 425.29 661.55" style="fill:#fff"/><polygon points="435.17 661.78 433.88 660.95 418.38 676.45 421.48 676.18 435.61 662.06 435.17 661.78" style="fill:#fff"/><polygon points="438.38 664.96 438.17 664.66 427.15 675.68 430.25 675.41 441.32 664.35 438.38 664.96" style="fill:#fff"/><polygon points="447 663.83 432.89 677.94 433.61 678.66 434.73 678.94 449.69 663.98 447 663.83" style="fill:#fff"/><polygon points="485.34 628.33 486.3 627.37 485.45 628.03 485.34 628.33" style="fill:#fff"/><polygon points="456.14 664.33 454.59 664.24 439.68 679.16 443.25 678.42 457.43 664.23 456.14 664.33" style="fill:#fff"/><polygon points="483.73 637.94 498.65 623.01 498.66 622.7 498.51 620.71 498.06 620.77 483.47 635.36 483.73 637.94" style="fill:#fff"/><polygon points="484.34 644.75 484.02 645.64 500.1 629.57 499.14 627.7 484.55 642.28 484.34 644.75" style="fill:#fff"/><polygon points="463.18 663.66 448.62 678.22 451.3 678.37 467.51 662.15 463.18 663.66" style="fill:#fff"/><polygon points="501.27 634.24 502.31 633.92 501.84 632.99 499.89 634.95 501.27 634.24" style="fill:#fff"/><polygon points="496.27 641.32 495.82 639.02 456.19 678.65 456.29 678.66 459.23 678.43 496.26 641.4 496.27 641.32" style="fill:#fff"/><polygon points="495.23 649.36 495.53 648.49 495.66 647.17 464.91 677.92 469.28 676.38 494.68 650.98 495.23 649.36" style="fill:#fff"/><polygon points="487.84 663.21 488.43 662.41 480.16 670.67 481.28 669.98 487.84 663.21" style="fill:#fff"/></svg>