<?xml version="1.0" encoding="UTF-8"?><svg id="Layer_1" xmlns="http://www.w3.org/2000/svg" viewBox="0 0 800 800"><path d="M382.34,759.89c-.41,0-.82-.07-1.22-.22l-1-.37c-.36-.13-.69-.32-.99-.56l-.44-.36-.43-.12-2.3,.28c-.14,.02-.28,.02-.42,.02h-1.58c-.96,0-1.88-.4-2.54-1.09l-.69-.73c-1.06-1.12-1.26-2.81-.49-4.15l1.1-1.91c.26-.45,.61-.83,1.04-1.13l2.62-1.82c.16-.11,.34-.21,.52-.3l3-1.4c.19-.09,.38-.16,.58-.21l1.66-.44,4.44-1.95c.33-.15,.68-.24,1.04-.28l2.75-.29c.12-.01,.25-.02,.37-.02,1.35,0,2.59,.78,3.17,2.02l1.1,2.35c.35,.75,.42,1.6,.21,2.4l-.34,1.25c-.08,.29-.2,.57-.35,.84l-.55,.95c-.25,.43-.59,.81-1,1.1l-.83,.59c-.43,.31-.93,.51-1.45,.6l-.72,.12-.44,.89c-.1,.2-.21,.39-.35,.56l-.76,1c-.31,.41-.71,.75-1.17,.99l-1.92,1c-.5,.26-1.06,.4-1.62,.4Zm41.86-88.17c-.7,0-1.4-.21-2-.63l-2-1.39c-.65-.45-1.13-1.11-1.36-1.87l-.42-1.4c-.05-.17-.09-.35-.12-.53l-.35-2.57-.31-.77-1-1.42c-.25-.36-.43-.75-.54-1.18l-.2-.81c-.08-.33-.12-.67-.1-1.01l.06-1.25c.02-.45,.13-.88,.32-1.29l1.18-2.57c.1-.22,.23-.43,.37-.63l2.13-2.86c.19-.26,.42-.49,.67-.69l2.2-1.69c.63-.48,1.38-.72,2.13-.72,.51,0,1.02,.11,1.49,.33-.04-.28-.05-.55-.03-.83l.14-1.62c.02-.24,.07-.48,.14-.71l1.14-3.77,.08-.94-.05-.98c-.01-.23,0-.45,.03-.68l.14-1c.08-.59,.31-1.14,.67-1.62l.75-1c.23-.31,.52-.58,.85-.8l.55-.37c.19-.13,.4-.24,.61-.33l.25-.11c.05-.27,.13-.53,.25-.78l.2-.44c.32-.7,.86-1.28,1.54-1.64l1.24-.66c.17-.09,.34-.16,.52-.22l1.97-.67,.81-.7c.32-.27,.68-.49,1.07-.63l1.37-.51c.39-.15,.81-.22,1.22-.22,.17,0,.33,.01,.5,.04l1.52,.22c.83,.12,1.6,.54,2.15,1.17l.76,.88c1.17,1.36,1.13,3.38-.1,4.69l-1.24,1.32c-.18,.19-.38,.36-.6,.51l-.52,.35-.2,.3-1.17,3.33,.22,.39c.54,.94,.61,2.07,.2,3.07l-.41,1c-.22,.53-.57,1.01-1.01,1.37l-.62,.51c-.51,.42-1.12,.68-1.77,.77,.03,.07,.06,.15,.09,.22l.55,1.47c.4,1.08,.25,2.28-.4,3.22-.65,.94-1.73,1.51-2.88,1.51h-1.4c-.43,0-.85-.08-1.25-.23l-1.38-.53-.89,.26c-.32,.09-.64,.14-.97,.14-.25,0-.5-.03-.75-.08,.12,.43,.17,.87,.12,1.32l-.14,1.4c-.01,.14-.04,.27-.06,.41l-.27,1.24-.02,.53,.97,1.19c.33,.41,.57,.89,.69,1.4l.28,1.17c.12,.52,.13,1.05,.01,1.57l-.62,2.8c-.07,.31-.18,.6-.32,.88l-1.59,3c-.23,.44-.56,.83-.96,1.13l-2,1.54c-.63,.48-1.38,.73-2.14,.73Zm4.34-156.52c-.13,0-.25,0-.38-.02l-1.3-.14c-.34-.04-.67-.12-.98-.25l-1.24-.52c-.35-.15-.67-.35-.96-.6l-1-.88c-.38-.34-.69-.75-.89-1.22l-.55-1.25c-.26-.59-.35-1.25-.26-1.89l.14-1c.12-.83,.53-1.59,1.15-2.14l.83-.73c.6-.52,1.35-.83,2.14-.87l1.65-.08c.06,0,.11,0,.17,0,.32,0,.64,.04,.95,.13l1.08,.31,2.87,.41c.43,.06,.84,.2,1.21,.41l1.13,.63c.61,.34,1.1,.85,1.42,1.48l.82,1.62c.61,1.21,.47,2.67-.37,3.74l-.69,.88c-.47,.59-1.11,1.02-1.84,1.22l-1.37,.37c-.18,.05-.37,.08-.56,.1l-2.83,.29c-.12,.01-.24,.02-.36,.02Zm12.06-37.08c-.96,0-1.89-.4-2.55-1.1l-2-2.13c-.81-.86-1.13-2.07-.85-3.22,.28-1.15,1.11-2.08,2.22-2.47l1.65-.59c.38-.14,.78-.2,1.18-.2,.46,0,.92,.09,1.35,.27l1.93,.81c1.02,.43,1.78,1.32,2.04,2.39,.26,1.08,0,2.21-.7,3.07l-1.58,1.91c-.64,.77-1.58,1.24-2.59,1.27-.04,0-.07,0-.11,0Zm6.62-67.38c-1.01,0-1.97-.44-2.64-1.2l-1.86-2.13c-.77-.88-1.04-2.08-.75-3.2,.3-1.13,1.14-2.03,2.24-2.41l1.51-.52c.37-.13,.76-.19,1.14-.19,.55,0,1.1,.13,1.59,.38l1.72,.88c.93,.47,1.59,1.34,1.82,2.35,.23,1.02-.01,2.08-.65,2.9l-1.37,1.77c-.64,.83-1.62,1.33-2.67,1.36-.03,0-.07,0-.1,0Zm-.07-31.08c-.55,0-1.11-.13-1.62-.4l-2.22-1.16c-.82-.43-1.44-1.17-1.72-2.06l-.55-1.76c-.28-.9-.19-1.88,.26-2.71l.76-1.4c.56-1.03,1.59-1.71,2.76-1.82l1.65-.15c.11,0,.21-.01,.32-.01,.8,0,1.57,.27,2.2,.78l1.24,1c.41,.33,.75,.76,.97,1.24l.62,1.32c.3,.64,.4,1.37,.28,2.07l-.21,1.25c-.16,.93-.68,1.75-1.45,2.29l-1.29,.9c-.6,.42-1.3,.63-2,.63Zm-13.72-54.07c-1.58-.04-2.93-1.14-3.3-2.68l-.62-2.57c-.37-1.54,.33-3.13,1.72-3.89l1.63-.89,.42-.99,.56-4.79c.09-.78,.44-1.5,.99-2.06l1.48-1.49c.66-.66,1.55-1.03,2.48-1.03,.04,0,4.2,.15,4.2,.15,.54,.02,1.06,.16,1.53,.42l1.37,.74c.35,.19,.66,.43,.93,.73l1,1.1c.39,.43,.67,.96,.81,1.52l.34,1.39c.12,.48,.13,.98,.04,1.47l-.34,1.84c-.12,.64-.41,1.23-.84,1.71l-.9,1c-.27,.3-.6,.56-.96,.75l-.95,.5-.78,.63-4.22,4.59c-.26,.28-.55,.51-.88,.69l-1.45,.8c-.52,.29-1.1,.44-1.69,.44-.03,0-2.58-.07-2.58-.07Zm-3.98-74.09c-.15,0-.29,0-.44-.03l-1.65-.21c-.76-.1-1.46-.44-2.01-.97l-2.62-2.57c-.6-.59-.97-1.38-1.04-2.22l-.35-4.41c-.07-.84,.17-1.68,.68-2.36l1.8-2.43c.66-.89,1.71-1.42,2.81-1.42,.04,0,3.99,.15,3.99,.15,1.03,.04,1.99,.53,2.62,1.35l1.38,1.77c.16,.21,.3,.43,.41,.66l.62,1.32c.17,.36,.28,.76,.32,1.16l.14,1.47c.01,.11,.02,.22,.02,.33v2c0,.42-.07,.83-.22,1.22l-.49,1.32c-.2,.52-.51,.99-.93,1.37l-1.1,1c-.33,.3-.71,.53-1.13,.69l-1.58,.59c-.39,.15-.81,.22-1.22,.22Zm-27.45-103.59c-.61,0-1.22-.16-1.77-.48l-1.38-.81c-.42-.25-.79-.58-1.08-.98l-1-1.4c-.42-.59-.65-1.3-.65-2.03v-1.2c0-1.5,.96-2.84,2.39-3.32l1.52-.51c.36-.12,.74-.18,1.11-.18,.4,0,.8,.07,1.18,.2l1.23,.44c.87,.31,1.58,.95,1.98,1.79l.56,1.17c.28,.58,.39,1.23,.32,1.88l-.14,1.33c-.07,.67-.33,1.31-.76,1.83l-.79,.98c-.69,.85-1.7,1.3-2.73,1.3Zm-15.56-39.83c-.38,0-.75-.06-1.12-.18l-1.1-.37c-.45-.15-.86-.39-1.21-.7l-.9-.8c-.4-.35-.71-.79-.91-1.29l-.41-1c-.24-.6-.32-1.25-.22-1.88l.2-1.25c.11-.67,.41-1.3,.87-1.8l1-1.1c.66-.73,1.6-1.15,2.59-1.15,.03,0,.05,0,.08,0,1.01,.02,1.97,.49,2.62,1.27l.28,.34s.08,0,.12,0c1.07,0,2.1,.49,2.77,1.36l.34,.44c.64,.83,.87,1.9,.64,2.91l-.2,.88c-.09,.41-.26,.81-.5,1.16l-.49,.74c-.21,.31-.46,.59-.75,.82l-.75,.59c-.32,.25-.68,.45-1.07,.57l-.79,.26c-.36,.12-.73,.18-1.1,.18Zm-33.71-56.72c-.9,0-1.8-.34-2.48-1.02l-1-1c-.47-.47-.8-1.07-.94-1.73l-.34-1.55c-.15-.67-.09-1.37,.15-2.01l.48-1.24c.37-.96,1.15-1.71,2.13-2.05l1.31-.45c.37-.13,.75-.19,1.14-.19,.58,0,1.15,.14,1.66,.42l1.24,.67c1.07,.58,1.77,1.68,1.83,2.89l.07,1.32c.03,.63-.1,1.26-.4,1.81l-.73,1.39c-.21,.41-.5,.77-.85,1.06l-1.03,.86c-.65,.54-1.45,.81-2.24,.81Z" style="fill:#efc441;"/><path d="M353.18,43.62l1.24,.67,.07,1.32-.73,1.39-1.03,.86-1-1-.34-1.55,.48-1.24,1.31-.45m32.05,56.44l.48,.58,.21,1.11,.07,.58,.62-.14,.89-.37,.83-.15,.34,.44-.2,.88-.49,.74-.75,.59-.79,.26-1.1-.37-.9-.8-.41-1,.2-1.25,1-1.1m15.91,40.43l1.23,.44,.56,1.17-.14,1.33-.79,.98-1.38-.81-1-1.4v-1.2l1.52-.51m25.49,97.89l3.85,.15,1.38,1.77,.62,1.32,.14,1.47v2l-.49,1.32-1.1,1-1.58,.59-1.65-.21-2.62-2.57-.35-4.41,1.8-2.43m12.17,70.32l4.07,.15,1.37,.74,1,1.1,.34,1.39-.34,1.84-.9,1-1.24,.66-1.24,1-4.4,4.78-1.45,.8-2.48-.07-.62-2.57,2.69-1.47,1.1-2.57,.62-5.29,1.48-1.49m7.99,62.99l1.24,1,.62,1.32-.21,1.25-1.29,.9-2.22-1.16-.55-1.76,.76-1.4,1.65-.15m.08,32.9l1.72,.88-1.37,1.77-1.86-2.13,1.51-.52m-6.62,67.31l1.93,.81-1.58,1.91-2-2.13,1.65-.59m-13.18,35.2l1.31,.37,3.1,.44,1.13,.63,.82,1.62-.69,.88-1.37,.37-2.83,.29-1.3-.14-1.24-.52-1-.88-.55-1.25,.14-1,.83-.73,1.65-.08m14.76,121.93l1.52,.22,.76,.88-1.24,1.32-1.1,.74-.83,1.25-1.65,4.7,.06,1,.76,1.33-.41,1-.62,.51-.76-.07-1-.66-1.17,1.24-.62,1.47,.07,1.47,.75,1.47,.55,1.47h-1.4l-1.72-.66-.49-.37-2.29,.66-.82-.22-.35-1.54,.14-1.62,1.24-4.11,.14-1.55-.07-1.24,.14-1,.75-1,.55-.37,1.93-.8,.35-.55,.07-1.32,.2-.44,1.24-.66,2.62-.89,1.33-1.15,1.37-.51m-16.95,20.91l1.46,1.06,.55,1.39-.14,1.4-.34,1.54-.07,1.69,.41,1,1.38,1.69,.28,1.17-.62,2.8-1.59,3-2,1.54-2-1.39-.42-1.4-.41-3-.62-1.55-1.24-1.76-.2-.81,.06-1.25,1.18-2.57,2.13-2.86,2.2-1.69m-35.52,96.4l1.1,2.35-.34,1.25-.55,.95-.83,.59-1.31,.22-1.1,.44-.69,1-.62,1.25-.76,1-1.92,1-1-.37-1-.81-1.79-.51-3,.36h-1.58l-.69-.73,1.1-1.91,2.62-1.82,3-1.4,1.92-.51,4.69-2.06,2.75-.29M353.18,36.62c-.77,0-1.53,.13-2.27,.38l-1.31,.45c-1.95,.67-3.51,2.17-4.25,4.09l-.48,1.24c-.5,1.28-.6,2.68-.31,4.03l.34,1.55c.29,1.31,.94,2.5,1.89,3.45l1,1c1.36,1.36,3.15,2.05,4.95,2.05,1.59,0,3.18-.54,4.48-1.63l1.03-.86c.7-.59,1.28-1.31,1.71-2.12l.73-1.39c.59-1.12,.86-2.37,.79-3.63l-.07-1.32c-.13-2.44-1.52-4.63-3.66-5.79l-1.24-.67c-1.03-.56-2.18-.84-3.33-.84h0Zm32.05,56.44c-1.97,0-3.85,.83-5.18,2.29l-1,1.1c-.92,1.01-1.52,2.26-1.73,3.6l-.2,1.25c-.2,1.27-.05,2.57,.44,3.76l.41,1c.4,.99,1.03,1.87,1.83,2.58l.9,.8c.7,.63,1.53,1.1,2.42,1.4l1.1,.37c.72,.24,1.48,.37,2.23,.37s1.48-.12,2.19-.35l.79-.26c.77-.25,1.5-.64,2.14-1.15l.75-.59c.59-.46,1.1-1.01,1.51-1.64l.49-.74c.47-.71,.8-1.49,.99-2.31l.2-.88c.46-2.04,0-4.18-1.29-5.83l-.34-.44c-1.01-1.3-2.42-2.18-3.96-2.54-1.23-1.11-2.83-1.75-4.51-1.79-.05,0-.11,0-.16,0h0Zm15.91,40.43c-.75,0-1.5,.12-2.23,.36l-1.52,.51c-2.85,.96-4.77,3.63-4.77,6.64v1.2c0,1.46,.46,2.88,1.3,4.07l1,1.4c.57,.8,1.3,1.47,2.15,1.97l1.38,.81c1.11,.65,2.33,.96,3.54,.96,2.06,0,4.08-.91,5.45-2.61l.79-.98c.85-1.05,1.37-2.32,1.51-3.66l.14-1.33c.14-1.29-.09-2.59-.65-3.75l-.56-1.17c-.8-1.66-2.22-2.95-3.96-3.57l-1.23-.44c-.76-.27-1.56-.41-2.36-.41h0Zm25.49,97.89c-2.21,0-4.3,1.05-5.62,2.83l-1.8,2.43c-1.01,1.36-1.49,3.04-1.35,4.72l.35,4.41c.13,1.68,.87,3.26,2.08,4.44l2.62,2.57c1.09,1.07,2.5,1.75,4.02,1.95l1.65,.21c.29,.04,.59,.06,.88,.06,.83,0,1.66-.15,2.45-.44l1.58-.59c.83-.31,1.6-.78,2.26-1.38l1.1-1c.83-.75,1.46-1.69,1.85-2.74l.49-1.32c.29-.78,.44-1.6,.44-2.44v-2c0-.22-.01-.44-.03-.66l-.14-1.47c-.08-.8-.29-1.58-.63-2.31l-.62-1.32c-.22-.47-.5-.92-.82-1.33l-1.38-1.77c-1.27-1.63-3.19-2.61-5.25-2.69l-3.85-.15c-.09,0-.18,0-.27,0h0Zm12.17,70.32c-1.86,0-3.65,.74-4.97,2.07l-1.48,1.49c-1.1,1.11-1.8,2.56-1.99,4.12l-.45,3.8-.37,.2c-2.78,1.52-4.19,4.71-3.45,7.78l.62,2.57c.74,3.07,3.45,5.27,6.61,5.36l2.48,.07c.07,0,.13,0,.2,0,1.18,0,2.35-.3,3.38-.87l1.45-.8c.66-.36,1.26-.83,1.77-1.39l4.05-4.4,.32-.26,.65-.35c.72-.38,1.37-.89,1.91-1.5l.9-1c.86-.96,1.45-2.14,1.68-3.41l.34-1.84c.18-.97,.15-1.97-.08-2.94l-.34-1.39c-.28-1.13-.83-2.18-1.62-3.05l-1-1.1c-.53-.58-1.16-1.07-1.85-1.45l-1.37-.74c-.95-.51-2-.8-3.07-.84l-4.07-.15c-.09,0-.17,0-.26,0h0Zm7.99,62.99c-.21,0-.42,0-.63,.03l-1.65,.15c-2.33,.21-4.4,1.57-5.52,3.63l-.76,1.4c-.9,1.66-1.09,3.62-.53,5.43l.55,1.76c.55,1.77,1.79,3.26,3.44,4.12l2.22,1.16c1.02,.53,2.13,.8,3.24,.8,1.41,0,2.81-.42,4.01-1.26l1.29-.9c1.54-1.08,2.59-2.73,2.9-4.58l.21-1.25c.24-1.4,.04-2.85-.57-4.14l-.62-1.32c-.45-.96-1.12-1.81-1.94-2.47l-1.24-1c-1.25-1.01-2.8-1.55-4.39-1.55h0Zm.08,32.9c-.77,0-1.54,.13-2.28,.38l-1.51,.52c-2.2,.76-3.88,2.56-4.48,4.81-.6,2.25-.04,4.65,1.49,6.41l1.86,2.13c1.33,1.52,3.25,2.4,5.27,2.4,.07,0,.14,0,.21,0,2.09-.06,4.05-1.06,5.33-2.71l1.37-1.77c1.27-1.65,1.75-3.78,1.3-5.81-.45-2.03-1.79-3.76-3.64-4.71l-1.72-.88c-1-.51-2.09-.77-3.19-.77h0Zm-6.62,67.31c-.8,0-1.59,.14-2.36,.41l-1.65,.59c-2.22,.79-3.89,2.66-4.45,4.95-.55,2.29,.09,4.71,1.7,6.43l2,2.13c1.33,1.41,3.17,2.21,5.1,2.21,.07,0,.15,0,.22,0,2.01-.06,3.89-.99,5.17-2.53l1.58-1.91c1.41-1.71,1.93-3.98,1.4-6.13-.53-2.15-2.05-3.93-4.09-4.78l-1.93-.81c-.87-.36-1.79-.55-2.71-.55h0Zm-13.18,35.2c-.11,0-.23,0-.34,0l-1.65,.08c-1.58,.08-3.09,.69-4.28,1.74l-.83,.73c-1.26,1.11-2.08,2.63-2.31,4.29l-.14,1c-.18,1.29,0,2.6,.53,3.79l.55,1.25c.41,.93,1.02,1.76,1.78,2.44l1,.88c.57,.5,1.22,.91,1.92,1.2l1.24,.52c.62,.26,1.28,.43,1.96,.5l1.3,.14c.25,.03,.5,.04,.75,.04s.48-.01,.71-.04l2.83-.29c.38-.04,.75-.11,1.11-.21l1.37-.37c1.46-.39,2.75-1.25,3.68-2.44l.69-.88c1.68-2.14,1.96-5.06,.74-7.48l-.82-1.62c-.63-1.24-1.62-2.27-2.84-2.95l-1.13-.63c-.75-.42-1.57-.7-2.42-.82l-2.63-.37-.86-.24c-.62-.17-1.26-.26-1.9-.26h0Zm14.76,121.93c-.83,0-1.66,.15-2.44,.44l-1.37,.51c-.78,.29-1.51,.72-2.14,1.27l-.3,.26-1.33,.45c-.36,.12-.7,.27-1.04,.45l-1.24,.66c-1.36,.72-2.45,1.88-3.08,3.28l-.09,.2-.54,.36c-.65,.44-1.22,.98-1.69,1.61l-.75,1c-.71,.95-1.17,2.06-1.33,3.23l-.14,1c-.06,.45-.08,.91-.06,1.37l.04,.73-.03,.33-1.03,3.43c-.06,.19-.1,.38-.15,.57-.89,.23-1.74,.64-2.51,1.23l-2.2,1.69c-.51,.39-.97,.85-1.35,1.37l-2.13,2.86c-.29,.39-.54,.82-.75,1.26l-1.18,2.57c-.37,.81-.59,1.69-.63,2.59l-.06,1.25c-.03,.68,.03,1.36,.2,2.01l.2,.81c.21,.84,.57,1.64,1.07,2.35l.76,1.08,.29,2.14c.05,.36,.13,.72,.23,1.06l.42,1.4c.45,1.52,1.41,2.83,2.71,3.74l2,1.39c1.2,.84,2.6,1.25,3.99,1.25,1.51,0,3.02-.49,4.27-1.45l2-1.54c.79-.61,1.45-1.38,1.91-2.27l1.59-3c.29-.56,.51-1.15,.65-1.76l.62-2.8c.23-1.04,.22-2.11-.03-3.14l-.28-1.17c-.24-1.01-.71-1.95-1.36-2.76v-.02c.02-.06,.03-.12,.04-.19,.61,.17,1.24,.26,1.88,.26h1.4c2.29,0,4.44-1.12,5.75-3.01,1.06-1.53,1.46-3.4,1.14-5.19l.35-.29c.89-.74,1.59-1.68,2.03-2.75l.41-1c.66-1.6,.69-3.38,.12-4.99l.39-1.11c.31-.24,.6-.5,.87-.79l1.24-1.32c2.45-2.61,2.54-6.66,.2-9.37l-.76-.88c-1.1-1.28-2.63-2.11-4.3-2.35l-1.52-.22c-.33-.05-.67-.07-1-.07h0Zm-52.47,117.31c-.24,0-.49,.01-.74,.04l-2.75,.29c-.72,.08-1.42,.26-2.08,.55l-4.19,1.84-1.4,.37c-.4,.11-.79,.25-1.16,.42l-3,1.4c-.36,.17-.71,.37-1.03,.59l-2.62,1.82c-.85,.59-1.56,1.36-2.07,2.26l-1.1,1.91c-1.54,2.68-1.15,6.05,.98,8.3l.69,.73c1.32,1.4,3.16,2.19,5.09,2.19h1.58c.28,0,.56-.02,.83-.05l1.12-.13c.44,.29,.91,.53,1.41,.71l1,.37c.79,.29,1.61,.44,2.43,.44,1.11,0,2.22-.27,3.23-.79l1.92-1c.92-.48,1.71-1.15,2.34-1.97l.76-1c.12-.16,.24-.33,.35-.5,.66-.22,1.29-.53,1.86-.94l.83-.59c.82-.58,1.5-1.33,2-2.2l.55-.95c.3-.52,.54-1.09,.7-1.67l.34-1.25c.44-1.6,.29-3.3-.41-4.8l-1.1-2.35c-1.16-2.48-3.64-4.03-6.34-4.03h0Z" style="fill:#cae3e8;"/></svg>