<svg xmlns="http://www.w3.org/2000/svg" viewBox="0 0 800 800"><polygon points="69.48 305.07 76.12 311.94 79.63 313.6 84.12 313.39 86.26 311.73 89.39 306.11 91.34 304.86 93.87 306.52 99.33 313.81 102.07 315.68 108.31 313.81 111.43 310.27 113.97 307.56 118.85 299.65 121.77 292.78 121.97 291.53 122.94 284.04 121.97 280.71 119.24 269.47 119.63 261.14 123.14 243.23 126.06 235.32 131.53 228.87 138.94 224.91 165.48 216.17 185.77 209.72 193.96 207.01 201.18 203.47 204.5 200.35 214.06 191.4 220.89 187.23 223.23 187.23 224.99 187.86 228.89 189.73 239.81 197.85 249.76 207.22 254.45 214.5 257.18 219.92 258.15 220.96 260.69 223.25 262.84 223.66 275.13 226.16 278.25 225.54 278.64 222.83 278.84 222 278.45 214.71 278.06 211.59 277.28 209.51 276.69 207.63 276.88 204.51 293.67 179.94 295.62 178.49 297.37 177.03 302.44 176.61 312.4 180.15 315.32 179.94 315.13 177.45 312.98 174.32 312.59 170.99 317.27 168.5 320.59 169.54 323.13 172.24 326.25 172.87 327.42 171.41 330.15 168.29 335.22 171.62 341.08 171.41 352.98 168.5 353.76 168.91 356.88 170.37 370.93 170.16 380.88 172.66 385.76 172.87 390.05 170.37 394.34 165.58 398.05 163.5 425.75 147.26 431.61 146.01 442.92 146.22 444.88 145.59 454.63 137.68 457.75 136.23 461.26 137.06 476.48 144.55 485.85 147.68 490.92 148.3 495.21 148.72 505.16 147.05 544.38 131.23 551.99 123.94 554.53 123.32 555.89 125.19 556.09 131.44 556.87 134.14 560.97 138.72 565.65 142.06 570.72 143.93 576.18 144.14 604.28 180.57 615.21 188.27 618.91 198.68 622.43 204.51 623.4 205.97 629.25 211.59 654.03 228.66 656.76 229.91 670.62 236.78 679.01 238.45 680.37 239.49 681.35 241.15 682.72 242.61 684.67 243.23 697.54 242.82 700.47 243.03 701.84 244.48 702.42 246.98 703.4 249.48 705.74 251.15 707.69 250.94 711.98 249.48 713.54 249.69 716.86 251.77 718.42 253.64 719 256.14 719 256.35 719.2 261.14 719.39 261.14 721.54 265.09 722.32 269.05 722.71 277.79 724.86 286.33 727.98 294.66 728.37 297.15 728.17 302.57 728.96 305.27 729.35 305.69 730.13 306.52 733.44 308.4 734.81 309.86 736.57 314.02 739.69 326.51 745.74 340.25 747.49 342.96 750.61 344.41 757.44 344.62 760.37 346.08 765.44 353.78 765.64 362.32 762.51 370.64 758.81 376.48 756.27 380.43 754.51 385.63 753.54 387.51 751.98 388.55 747.49 389.59 746.13 390.84 744.76 395.21 743.78 400.21 743.59 405.41 743.98 410.2 744.96 412.28 747.69 416.45 748.27 418.74 748.08 421.03 746.71 427.06 746.91 432.48 747.69 458.08 748.08 459.75 749.64 463.5 750.03 465.58 749.25 467.25 745.93 471.2 745.15 473.49 745.74 481.19 747.1 488.69 746.13 495.56 739.3 500.56 713.35 498.68 704.96 500.14 700.47 500.97 695.2 505.55 692.08 508.05 689.35 518.25 689.15 519.5 687.98 548.23 685.25 562.18 681.93 569.67 678.81 571.75 675.11 569.88 670.03 565.72 667.89 562.8 666.52 559.89 665.15 558.22 664.96 557.81 661.64 556.97 657.35 558.22 656.38 560.93 656.57 564.05 655.99 566.97 651.11 573 646.23 576.96 645.06 577.38 640.77 579.04 634.52 579.46 625.16 578 620.67 578 615.21 579.67 611.11 580.71 606.62 581.12 598.23 580.91 594.91 579.67 588.87 575.92 586.33 574.67 582.62 574.46 575.4 575.71 570.14 575.71 567.79 577.38 565.84 577.17 565.26 575.92 564.87 571.13 564.09 569.67 561.55 568.84 552.97 567.8 542.04 564.47 538.72 564.05 536.58 563.84 530.14 564.47 523.7 567.38 513.36 576.34 507.31 578.42 505.36 577.58 495.8 572.59 495.02 571.55 494.63 569.88 493.65 568.01 491.7 567.38 490.53 568.01 487.6 571.13 486.24 572.17 467.9 577.38 459.31 581.75 456.78 583.62 452.09 586.95 449.75 589.45 448.58 592.99 448.39 598.82 448.39 600.07 447.8 602.77 443.9 608.4 433.75 617.76 429.85 624.63 419.12 631.92 416.19 635.25 415.8 638.38 415.8 642.12 414.63 646.29 411.12 649.83 408.58 650.45 402.93 651.49 388.1 648.37 380.1 651.91 379.51 653.37 378.93 657.95 377.76 660.03 376.39 660.44 372.29 660.24 370.73 660.44 367.81 662.73 361.17 668.98 358.64 670.64 350.64 669.19 338.15 658.36 336.98 658.15 315.32 655.24 308.3 655.45 301.47 658.36 291.13 668.15 286.64 670.64 277.08 672.73 267.32 672.73 263.03 671.69 252.5 669.6 245.08 669.19 224.79 675.23 183.04 676.68 182.84 667.11 180.5 660.44 175.82 655.86 161.57 651.91 146.55 649.83 146.36 649.83 140.7 651.08 131.14 658.78 126.26 660.65 119.04 659.19 116.11 656.9 112.21 653.78 108.11 645.45 102.65 624.63 97.19 600.9 94.26 595.07 91.14 592.78 88.6 592.37 87.82 592.37 84.31 592.57 80.41 592.16 78.07 591.12 72.22 588.41 70.26 583.62 70.46 577.17 69.09 569.05 64.61 560.51 54.07 546.15 50.36 536.99 45.48 517.42 44.12 506.59 44.12 505.76 45.09 498.68 49.19 499.93 53.29 497.43 57 493.06 59.73 488.06 61.68 482.03 61.87 477.03 61.48 476.2 60.12 472.66 56.61 468.08 54.46 466.62 49.78 466 47.83 464.33 47.24 462.25 46.66 456.42 45.68 453.5 45.09 452.46 41.97 446.84 39.83 444.76 36.7 443.3 34.75 437.89 35.53 428.11 34.36 422.9 48.41 419.99 52.51 418.32 56.22 416.24 58.75 413.74 60.31 409.99 60.31 409.16 60.31 406.87 54.27 390.01 52.7 382.1 50.56 355.86 51.34 351.91 53.68 347.12 56.41 343.58 63.05 337.33 64.8 334.21 64.61 331.71 64.22 326.72 61.87 317.35 62.07 315.48 62.26 309.44 69.48 305.07" style="fill:#efc441"/></svg>