<svg xmlns="http://www.w3.org/2000/svg" viewBox="0 0 800 800"><path d="M423.41,115.39l2,.25,1.24,2,2.67.54-.33,2.1-1.88,1-1.56.54-.73.69-2,1.47-1.1.49-1.06-.3-.82-.44-.14-.73.18-1.87,1.79-.93.65-.83-.42-.59-.23-.78-.09-1.22Zm.14,6.23,1.38-.49.32-1.23-1-.73h-.6l-.37.39Zm-12.44-62v-.05l.32-.68.64-2.75,4.46-7.25,1.6-3.43.69-.73,1.06-.59.09.39-.09,1.08.78,1.22-.18.45-.28,1.07h.46l.64-.68,1.79-.1.32-.49.42-.25.87.35.83.88.18,1.32.46-.83.46,0,.59.34.78-.05,1.84-1.37.69-.2,2.06.59.46-.1.19-.63-.32-.69-.51-.54-.5-.19-1.29-.15-.83,0-.59.34-.37.49-.69.69-.78.39-.73-.25v-.88l.5-3.18V42l2,1.62L430,44l.37-1.12-.33-.59-.78-.78-.91-.69-.79-.25.28-.73.37-.1h.41l.41-.24.83-1.08.37-.93-.09-1.67.23-1.12h.41l.92,2.1,1-.68.36-.35.51.54-.32.59-.05.2.14.19.23.59.6-.59.41.2.32.54.46.39,1.56.44.83.1.87,0-.14-.34-.23-.89-.14-.34,1.43-.54.69,2-.14.74-1,.05-1.69-.05-1.11.39-2,1.81-1.1.79h.05v.44l-.55.78,1.47,1.62.78.63.87.3.64-.3.69-.58.73-.15.74,1-1.24,2.3-.6.24-.46-1.47-.69.1-.73-.1.28.74,0,.49-.09.39-.23.44.87.93,1,.64.87.78.46,1.38h-.78l-.73-.2-.64-.34-.6-.54-1,.49-.79-.35-.5-1L433.05,50l-.41.24-1,.49-.37.3,0-.83.14-.64.32-.39.5-.25-1.56-.29-1.65,1L428,51l.46,1-.32.83-.09.93.14,1,.27,1,.6-1.57.55-.83.74-.24.41.48,0,.89-.18,1-.27.73,1.28.59,6-.1-.55,1-1,.88L434,59.89l-1.93.79-.59.63.23,1.23,1.7-.93.91.88,0,1.42L432.78,65l.32.78.87,1.28.28.53.59.3,1.47.44-.5.34-.19.25-.27,1-1-.54-1.11-.35-1,.1-.64.79,1.05,1.81-.46,1.66L431.17,75l-.82,1.62-.1.58.1,1.82L429,80.37l-1.1,2.06-.78,1-1,.58V82.43L425.25,84l-1,2.45-.46,2.8.46,2.54.36.93-2.8.84-1.05.19-1.06-.29-.46-.59-.69-1.52-.59-.54-1.56-.29-.28-.15-.09,0-.42-.93L415.33,86l.05-1.27.73-.83.88-.69.46-1-.28-1-1.56-2.15-.32-1.28.32-1.17,1.33-1.86.41-1.08.28-6.86.46-2.3.14-1.42-.33-1.57-1-2.94-.78-.1-3.4.93Zm20.52,82.69,1.52,6.12,4.27,9.31.73.78.41,1.77.46,3.18,7.9,15.48,1.65,1.91,3.77,3.48,7.34,9.3,1.47,2.4.6,1.43.59,2.15,6.61,8.18,7.95,7.06,6.24,5.24,2.2,1.47,9.55,3.82,12.31,3.38,5.14,2.4,3.95,1.32L519,233l1.56.05,4.55-.25,1.24.25,1.88,2.64.73.54,1.61.49,1.93,1,1.7.25,8.72-.54,2.94.19,3,.69,4.13,1.81,1.15.25,1.15.54,2.48,2.59,1.24,1,2.29.78,3.12.45,3.26,0,2.76-.59,1.47-.59.59-.49.46-1.42h.6l1.28.39,2.85.05,1.52.3,1.37.73.6.93,1.33,3,.6.63.32.15.32.3.28.39.23.24.13-.05.37-.09h.51l.41.14,1,.84.51.63.32.59h.5l.42-1,.14.39.13.25.14.29.09.59h.46l0-.29.32-.74.37.34.23.1.82-.44,1.61,2.25.46,1.28-.23,1.12.55,1,.69,3.48.87,1.47,3.9,3.82,2.44,1.13,1,1.37,1.15,3.23.64,1.18,2,2.06,1,1.51.6,4.46,4.27,4.51.27.64.37,2.25.27.49.33.39,1.88,1.57,3.58,2.15,2.25,1.77,1.65,2.1,1.19,2.31,2.44,6.46.23,1.08.55,1.47,1.19,1,2.44,1.37,2.66,4.46.36,1.22.92,1.13,2.8,2.79,2.12,1.13,1.51,1.42,1.56.93.37.34.09.79-.41.19-.6-.14-.41-.25v1l.5.49.83.1,1-.1,5.19-1.86,1.79.78,2.66,2.11.42,0,1.05-.15.37.1.18.34.14.83.18.35v.24l-.09.34.05.45.46.53.37.2.41.2.46.09.41,0,.23-.39-.46-.83-1-1.13.27-1h.74l1.33-.24,1.79.49,1.47,2,1,2.54.37,2.26-1.33,12.29-.87,3.33-1.34,2.94-3.85,5.64-2,1.76-1.14,1.27-.51,1.33-.18,1.76-1.2,3.58-.32,3.62-.64,1.52-2.66,1.13-.83,1.32-1.1,2.74-5.33,7.5-2,6.76-1.28,3.08L630.92,406l-.46,2.4-.23.68-.55.54L620.22,414l-1.93,1.23-7.53,6.41-9,10L599,436.05l-.69.69-.92.68L596.3,439l-2.06,4-.23.69-.19,2.64-.18.78-.41.64-3.86,3.33.28,1.52-1.15,1.08-2.8,1.47.09.14-.55,1.38h0l-.46.49-.32.39-.13.39.13.69.42.73.59.59.69.34,1-.49,1.1-1.13.74-.44-.05,1.52-.69,1-1.24,1-1.19.34-.6-.78h-.41l-.41,1-.51,2.06-.5,1-.55.49-1.47.93-.74.68-.82,1.42-.78,1.91-.51,2.06-.18,2-1.7,3.58-.92,2.64.09,1.18-.36.58-.37,2.5-.19.54-.55.1-.91.34-.92.49-.6.59-.46,2-1.47.83-1.88-.1-1.74-.63-1.29-.69-.87-.29-2.21-.1-.87.15-1.56.68-1,.25.18-.69.41-.34-.36-.2-2.34-.73-1.34-.15-1.46-.64-.14-1.42.87-3.08,0,.93.28.83.5.73.69.64.23-1.52-.69-3.38L556,479l.87-1.47.69-2.15.19-2.2-.6-1.62-1.38-.49-1.93.19-2,.64-2.11,1.47-2.75.74-.83.63-.46.64-1.14,3.53-.05.83.46.78.18.69-.55.54-.83.39-1.65.39-1.24.64-1.19.83-1.61,1.57-.55.78-.46.84-.14,1,.19.74,1,1.13.23.68-.5,1.67-1.2.93-2.94,1.27-1.1.74-1.19,1-1,1.22-.42,1.32-.37.88-.73.94-.69,1.27,0,1.81,1.28,3,.41,1.81-1.1,2.74-1,4.07,0,1-.14,2.2L526,522.56l-1.15,4.21-.78,1.87-4.22,6.56-.65,2,.28,2.3.46.83.6.69.5.73.23,1,.05,2.26-.14,1.07-.32,1-.51,2-.14,1.47.51,1.42,3.26,5.64.5,1.22.42,2.06,0,2-.27,1.86-1.15,3.43-.28,1.52.19,1.71,1.33,3.77.64,1.18,1.7,2.1.41,1.18-.6,3.09,0,1.52,2.52,4.8v1.12l-1.6,1.72-1,.83-.23.1-3,.49-.32.34-.33.49-.73.59-.83.49-.64.24-14-.73-3.76.63-16,2.6-8.31,2.5-11.29,4.9-4.36,3.28-2.85,1.52-1.51,1.22-.69,1.62-.55.73-7.16,7.55-1.24,2.64-.28,3.53.42,2.4,0,.88-.18.93L448,633l-.36,1.18-.6,1.52-.18.78v3l-.6,3.13-3.49,8.53,1,1.47-.18,1.56-.92,1.43-1.33,1.12-2.94,1.32L437,659l-2.07,3.87-.41.34-1,.34-.46.3-3.12,3.62-.18.59.09,1.61-.78.2-10.47-1.42-1.37.2-2,1-1.47.29-5.7-.49-1.37.24-4.36,1.82-2.44.68-17.17.84-6.75,1.81-1.51.15-.51.14-.36.35-.28.34-.46.24-1.19.05-.09-.05-2.25.64-.55.34-.92,1.18-1,2.94-.64,1.22-1,1.18-.32.59-1,3-.28.54-.92,1.08-6.2,5.44-1.88,3.62-.46,1.47L354,701l.28,2,.68,1,2.25,1.28,1.33,1.47.51,1.56v3.34l-.46,1.42L355.88,717l-.18.64-.09,1,.09.93.41.39.51.25,0,.59-.32.93-.41.44-1.75.88-.59.44-.42.64-.27.58-.28,1.28-.64,1.17.23.35-.64.83-2.07.64-1,.58-.32.69-.37,1-.55.88-.82.44-2.76,3.28-3,2.31h-.42l-.69-1.13-.78.49-.82,1-.78.59-1.06.19-1,.34-.92.25-1-.29-1.06,1.17-1.24.44-2.75.39-2.25.89h-1.11l-.73-.89-.78.44-1.24-.19-.73.29-2.3-1.57-.51.54-.55-1.42-.27-1.27-.78-.93-2.76-.54-1.92-.69-.83-.14-.78,0-1.38.34-.78.1-2.39-.49h-.87l-.73.19-1.38.64-.41.15-3.17-.93-1.65-.15-1.38,1.08-.6-.35-.69-.14L282.8,738.2h-5.28l-1.2.29-2.94,1.57-.73.58-.23.69v.54l.14.54.09.59-.23.58-.92.93-.23.45-.73.78-1.7.34-3.08.2-4,.88-1.33.1-1.19.44-1.38.83-1.43.59-1.19-.39-1.24.88-1.7,1.47-1.51,1.62-.64,1.37-.56.83-1.24.78L246,756.81l-2.2.59-10.7.24-5.69.88L216.5,762.2l-5.69,3.13-4.22-9.94-4.18-10-4.22-9.95-4.18-10-2.57-6.17-.74-1-1.14-.44-2.53-.15-1-.69.09,0,.37,0,.09-.05-2.11-5.24-2.9-7.16-2.84-7.1-2.85-7.1L173,683.14,170.18,676l-2.89-7.15-2.85-7.1-2.89-7.15-2.89-7.16-2.85-7.15-2.89-7.1-2.84-7.15-2.85-7.15-2.89-7.16-2.85-7.15-2.89-7.15-1.88-4.75-.51-1.18,7.48-2.74,11.48-4.21,11.48-4.22,11.48-4.26,11.47-4.21,11.48-4.26,11.48-4.21L224,559.15l11.48-4.21L247,550.68l11.47-4.21,11.48-4.27L281.42,538l11.48-4.26,11.47-4.26,11.48-4.21L327.33,521l10.1-3.72,2.15-7.2.42-1.47,1.28-4.16,1.93-6.47,2.48-8.38,3-9.94L352,468.58l3.53-11.85,3.68-12.25,2.8-9.41.87-2.89,3.54-11.85,3.3-11.17,2.94-9.94,2.52-8.43,1.93-6.51,1.24-4.22.46-1.47.32-1.12,2.53-8.48-.05-1.71-.69-1.67-3.58-6.17-5.42-9.36-5.41-9.4-5.42-9.36-5.42-9.4-4.27-7.4.74-11-.42-11,.23-2.26L354,283l6.38-11.61,1.52-4.6,1.37-7.55.78-2.54,1.24-1.91v-.05l2.53-2.84.92-1.47,2.2-9.36.6-1.27,3.16-4.8.28-1-.23-5.73-.32-2.21-1.06-1.61-2.43-1.52-1.1-1.08-.6-1.37.28-1.08,2.84-.59,2.9-1.12,1.28-.74,2-1.13,1.84-.78,1.88-.34,2.25.05,2.16.39,1.06,0,1.1-.44,1.19-.2,1.75,1.42L393,216l7.85-3.33,4.22-1.08.73-1.17-2.47-4.66-.79-3.18-1-2.74-2-.89-3.77,1.57-1.14-.05-4.18-.93-.83-.44-.09-1.13.55-1.32,2.57-4.85.46-1.08.23-3.67-.14-.64-.5-.68-1.38-.93-.41-.54-.23-1.13.18-4.16-.87-3.19-.09-1.61.69-1,1-1.08.41-2.55,1.89-1.76-.23-1.47-1-2.35-.37-.78-.14-1.43.32-2.84v-1.42l-.59-5.83.73-2.35,2-2.69,1.93-1.77.27-.29L399,143l2.57-.73,2.71.44.18.05,1.79,1.17.78,2.26.55,3.33.28,1.66L406.29,150l-.87-.44-.92-.25-1.19.35-.23,1,.5,1.12,2.48,2.35,2,5.24,2.07,1.72,1,.1.1,0,1.42,0,1.28-.39.6-.79.41-1.32,1.43-1.81,1.1-2.84h.05l1-.45,2.52-.34,1.2-.59,2.2-2.25.41-.39,1.89-1.37.32-.79,0-.49.14-1.37.23-2.5.32-.39.32-.39ZM395,702.83l-.28-.69,0-.14.37-.59.78-.39,1-.25,1.33.88.55.15-1,.64h-2Zm14.69-5.1.18,1,.05.15.6.88.92.64,1,.34-2.16,1.42-1.1.44-1.06.2-3-.15-.92-.39-.6-1.62,1.75-1.12,2.57-.93ZM600.85,470.25l.14,1.61.41,1.28,2.07,3.91.59,1.13-.27.83-.6.59-2.57,2-2.71,1.57-1.24,1.17-1.61,2.55-.78,1.76-.78,3.58-.59,1.27v.88l.09.69v.49l-.28.54-2.25,2.35-1.24,1.76-.59.69-.6.24-.87.1-.74.2-.32.49-.23.78-.59.84-.74.58-.73.1-.37-.68-.28-.59-.36-2.3,0-2.36.14-1.22V497l-.19-.68.46-5.93.37-.93.74-1,.36-.39,1.2-.93.5-.2.14-.15.14-.14.27-1.38.19-.44,1.1-.44,1.15-.05,1.1-.14,1.19-.88.55-.79.28-.34.23-.93,0-.2.28-2.84.41-1.37.64-1.13,3.22-4.46,1.24-2.74.73-2.45.6-.88,1-.24.78,1.22,0,1.27-.46,1.38Z" style="fill:#efc441"/></svg>