<svg xmlns="http://www.w3.org/2000/svg" viewBox="0 0 800 800"><path d="M400.33,400.2h.13v.24h-.22l-.05-.14v-.15Zm-.17-.23h0v.12h-.08V400H400v-.05h-.18l-.11,0-.14-.09-.1-.12v-.12h0l.34.21.08.09.06.16V400Z" style="fill:#efc441"/><polygon points="400.24 399.75 400 399.75 399.93 399.53 399.86 399.75 399.63 399.75 399.81 399.91 399.74 400.15 399.93 400 400.12 400.15 400.05 399.91 400.24 399.75" style="fill:red"/><polygon points="408.98 287.85 410.93 285.53 411.04 282.59 410.7 279.16 412.42 277.2 408.63 263.61 409.09 256.75 407.37 251.6 404.96 246.95 404.27 244.38 404.73 241.32 411.27 235.32 412.54 232.87 413.11 230.29 412.77 228.21 411.62 226.74 409.55 226.01 410.13 223.44 410.7 217.19 411.39 214.62 411.96 214.25 414.26 213.4 414.83 212.91 416.09 208.86 416.78 205.44 418.73 195.15 422.06 189.39 426.42 186.09 431.47 183.76 436.64 180.45 440.88 175.55 443.18 173.72 446.28 173.47 446.51 173.72 448.8 174.82 453.51 178.86 456.61 179.96 467.17 179.35 472.1 179.96 477.15 183.15 478.64 187.8 478.53 193.92 479.45 198.94 483.81 200.29 487.83 200.41 491.73 201.39 505.27 204.94 505.85 206.41 506.07 208.25 505.04 208.25 505.04 206.9 503.78 206.9 503.78 208.25 504.7 210.21 504.58 216.21 506.07 219.15 505.39 221.48 505.27 225.27 505.96 229.07 507.22 231.4 506.42 231.76 505.73 232.38 505.27 233.11 505.04 234.21 507.22 234.21 505.04 243.52 504.35 246.71 505.04 249.15 505.04 250.62 503.66 251.24 502.86 252.22 502.86 253.2 503.78 254.54 501.02 259.32 500.91 261.65 502.63 264.1 499.88 266.42 498.96 269.85 499.19 279.04 501.02 283.69 501.37 285.77 501.48 288.46 501.83 290.18 502.75 292.38 502.63 293.98 501.94 294.83 500.68 295.2 499.65 295.81 499.19 297.4 503.32 313.2 501.48 315.65 501.48 317.12 505.04 327.9 499.65 333.9 495.52 343.7 491.73 352.51 489.09 366.84 488.17 381.54 488.17 381.78 488.29 382.03 488.17 382.03 488.06 382.03 476.69 382.88 466.94 388.52 448.69 403.95 438.93 407.62 417.93 407.38 407.95 408.85 403.7 410.32 399.11 411.05 394.63 410.32 390.96 407.5 389.01 400.89 391.42 394.27 398.99 381.54 399.91 375.05 400.03 369.54 400.71 364.15 403.36 359 403.7 358.27 406.8 354.6 421.14 345.41 426.88 340.39 430.44 337.33 432.28 334.27 436.18 333.41 437.1 334.14 439.16 334.51 441.34 336.84 445.7 336.23 448 337.82 448.8 336.96 449.49 337.33 450.07 338.31 451.1 338.92 451.9 338.68 452.25 336.96 453.05 336.1 453.62 333.29 454.54 332.43 455.35 331.2 454.77 329.49 453.74 328.39 453.62 327.04 454.54 324.22 455.35 323 454.89 322.51 454.66 320.92 454.2 318.59 455 317.24 455.69 315.77 454.89 315.29 453.74 315.16 453.39 314.8 454.43 313.32 453.74 312.83 453.17 312.22 452.25 312.1 450.41 312.59 449.38 311 449.03 309.65 449.26 307.69 448.46 305.37 446.85 304.88 445.7 305.73 445.59 306.96 446.39 308.43 446.97 310.39 447.54 313.2 447.54 316.26 447.43 317 446.97 317.24 444.21 315.77 443.06 315.77 442.03 316.02 441.8 317 442.38 318.22 442.49 319.33 440.43 319.57 434.23 318.22 431.59 316.14 430.1 316.26 427.57 314.8 425.96 311.49 424.01 310.26 422.06 310.14 420.69 310.39 418.85 311.49 415.87 314.55 413.45 315.16 411.5 315.41 407.95 314.8 407.49 314.43 407.72 313.57 409.55 311.98 411.04 310.39 412.31 309.9 416.32 309.65 417.01 308.92 417.82 299.49 416.21 296.3 414.03 295.94 412.19 294.47 411.85 293.36 412.54 292.26 411.5 291.4 408.98 287.85" style="fill:#efc441"/><polygon points="517.55 71.95 518.01 66.93 521.22 57.38 523.98 52.35 522.95 46.23 522.14 39.74 521.91 35.09 522.95 33.01 520.19 33.13 518.93 32.64 517.67 32.64 516.4 32.88 515.14 33.5 514.57 34.11 513.88 34.35 513.19 34.48 512.5 34.35 511.47 33.5 509.29 31.9 506.3 27.13 505.39 25.9 503.44 26.15 502.29 27.98 501.25 30.8 499.76 33.5 498.38 37.9 498.04 47.7 497.12 52.84 495.75 56.15 492.53 61.78 491.73 64.85 486.56 65.34 478.53 68.77 469.12 71.22 466.94 70.85 465.33 68.89 464.18 66.44 462.46 64.48 460.63 62.89 459.71 62.52 458.79 62.03 456.72 62.03 450.53 64.11 449.38 63.99 446.97 63.38 445.94 63.38 444.9 63.74 443.06 65.21 442.26 65.58 428.95 64.48 428.72 64.6 427.92 64.85 429.06 66.19 428.38 66.81 427.46 68.03 426.65 68.77 427.34 72.19 426.65 76.11 424.36 82.48 423.21 94.73 422.18 97.67 424.24 98.65 424.59 101.1 423.9 103.67 422.52 108.93 421.72 110.53 415.87 116.89 414.37 117.26 411.85 116.77 408.4 114.44 406.34 113.95 403.81 115.42 402.44 119.34 401.52 137.22 397.73 153.51 397.96 156.45 397.16 159.14 396.12 167.96 395.21 169.92 390.04 195.88 384.07 225.64 370.53 268.14 368.24 269.36 368.12 270.34 368.35 272.55 368.24 273.4 362.95 290.91 359.86 295.94 355.27 306.35 345.74 327.78 344.59 329.37 329.79 355.21 325.65 360.47 324.28 363.9 330.82 368.8 336.79 372.48 332.2 376.39 326.69 381.54 324.16 383.25 305.23 401.62 301.55 408.48 301.55 411.91 302.93 418.64 302.47 422.07 296.5 428.44 287.89 434.81 285.26 437.38 286.98 442.77 293.52 463.59 298.8 480.12 305.23 497.27 313.83 520.17 324.16 547.72 327.84 563.4 328.18 571.48 329.1 574.78 331.85 578.58 333.46 580.91 333.46 583.6 331.85 589.48 331.51 592.91 331.97 595.24 333.12 597.07 342.18 605.16 344.13 607.97 349.64 624.14 359.51 653.04 366.05 672.02 366.51 673.12 366.86 674.23 366.86 675.45 366.86 676.55 367.89 687.21 375.24 707.66 381.78 726.03 386.14 746.23 385.8 759.71 386.94 764.36 390.85 772.44 392.22 775.26 393.48 775.13 394.98 775.26 396.24 775.26 396.81 774.52 397.16 773.3 397.85 771.83 399.11 769.75 401.98 766.07 403.13 764.36 403.81 761.79 404.5 756.52 405.76 752.24 407.95 748.44 409.55 743.66 410.47 732.64 411.62 727.74 419.42 706.43 420.11 702.39 420.34 690.51 421.6 683.9 422.18 682.18 423.1 680.72 423.67 679 423.78 676.55 425.74 668.84 432.85 657.94 435.61 651.33 435.61 645.2 432.16 633.2 432.28 627.57 433.43 624.26 435.03 613.97 436.06 611.52 437.1 609.57 438.02 607.36 438.48 604.67 438.02 601.85 435.61 597.93 434.69 595.85 434.69 591.2 437.67 583.24 438.48 578.46 445.7 554.46 455.46 534.25 456.84 529.6 457.53 524.58 458.1 522.37 459.25 519.92 460.51 518.45 463.38 515.88 464.3 513.92 464.87 509.63 464.87 505.23 465.22 500.82 467.4 496.29 469.46 494.33 473.94 489.92 475.89 486.37 475.77 480.12 476.92 474.37 484.73 458.69 485.53 453.06 484.38 447.67 481.86 442.65 480.14 438.73 478.53 433.71 477.61 428.2 479.68 423.42 482.09 419.26 482.32 415.09 481.05 413.62 484.15 407.87 487.14 400.03 487.83 395.5 487.94 393.54 488.17 382.03 488.06 382.03 476.69 382.88 466.94 388.52 448.69 403.95 438.93 407.62 417.93 407.38 407.95 408.85 403.7 410.32 399.11 411.05 394.63 410.32 390.96 407.5 389.01 400.89 391.42 394.27 398.99 381.54 399.91 375.05 400.03 369.54 400.71 364.15 403.36 359 403.7 358.27 406.8 354.6 421.14 345.41 426.88 340.39 430.44 337.33 432.28 334.27 436.18 333.41 437.1 334.14 439.16 334.51 441.34 336.84 445.7 336.23 448 337.82 448.8 336.96 449.49 337.33 450.07 338.31 451.1 338.92 451.9 338.68 452.25 336.96 453.05 336.1 453.62 333.29 454.54 332.43 455.35 331.2 454.77 329.49 453.74 328.39 453.62 327.04 454.54 324.22 455.35 323 454.89 322.51 454.66 320.92 454.2 318.59 455 317.24 455.69 315.77 454.89 315.29 453.74 315.16 453.39 314.8 454.43 313.32 453.74 312.83 453.17 312.22 452.25 312.1 450.41 312.59 449.38 311 449.03 309.65 449.26 307.69 448.46 305.37 446.85 304.88 445.7 305.73 445.59 306.96 446.39 308.43 446.97 310.39 447.54 313.2 447.54 316.26 447.43 317 446.97 317.24 444.21 315.77 443.06 315.77 442.03 316.02 441.8 317 442.38 318.22 442.49 319.33 440.43 319.57 434.23 318.22 431.59 316.14 430.1 316.26 427.57 314.8 425.96 311.49 424.01 310.26 422.06 310.14 420.69 310.39 418.85 311.49 415.87 314.55 413.45 315.16 411.5 315.41 407.95 314.8 407.49 314.43 407.72 313.57 409.55 311.98 411.04 310.39 412.31 309.9 416.32 309.65 417.01 308.92 417.82 299.49 416.21 296.3 414.03 295.94 412.19 294.47 411.85 293.36 412.54 292.26 411.5 291.4 408.98 287.85 407.72 287.61 409.02 287.8 410.93 285.53 411.04 282.59 410.7 279.16 412.42 277.2 408.63 263.61 409.09 256.75 407.37 251.6 404.96 246.95 404.27 244.38 404.73 241.32 411.27 235.32 412.54 232.87 413.11 230.29 412.77 228.21 411.62 226.74 409.55 226.01 410.13 223.44 410.7 217.19 411.39 214.62 411.96 214.25 414.26 213.4 414.83 212.91 416.09 208.86 416.78 205.44 418.73 195.15 422.06 189.39 426.42 186.09 431.47 183.76 436.64 180.45 440.88 175.55 443.18 173.72 446.28 173.47 446.51 173.72 448.8 174.82 453.51 178.86 456.61 179.96 467.17 179.35 472.1 179.96 477.15 183.15 478.64 187.8 478.53 193.92 479.45 198.94 483.81 200.29 487.83 200.41 491.73 201.39 505.27 204.94 504.58 203.72 503.78 202.86 503.44 202.13 502.63 200.05 504.24 199.68 505.04 199.07 504.81 198.33 503.78 197.23 503.78 196 505.04 196 504.81 195.15 504.47 195.03 504.12 195.03 503.78 194.66 506.07 193.19 505.04 191.84 506.19 191.35 507.22 190.62 507.22 189.15 506.53 189.03 506.07 188.66 505.62 188.29 505.04 187.92 505.39 186.57 505.96 185.23 506.99 184.13 508.49 183.64 508.49 182.41 506.88 180.82 506.53 179.96 505.39 178.13 504.7 178.13 503.78 178.25 503.78 176.9 506.07 176.9 505.62 175.68 505.04 171.51 506.07 172.86 506.88 170.66 507.22 169.92 507.45 170.66 507.57 171.15 507.8 171.02 508.49 169.92 507.57 167.47 506.99 162.33 506.07 160.61 506.07 159.14 507.22 159.14 507.22 157.92 505.85 157.06 505.16 155.59 505.27 154 505.62 153.26 506.76 152.78 508.25 151.43 510.78 148.12 513.88 145.79 513.76 145.79 513.08 143.35 511.01 140.65 511.81 138.69 517.67 131.71 517.67 130.24 517.55 129.14 517.78 128.28 518.81 127.79 517.9 125.83 517.78 123.51 518.81 118.12 518.13 115.79 518.24 114.2 518.58 112.24 518.81 109.3 518.24 107.34 518.24 107.22 516.98 105.75 514.22 103.18 514.11 103.06 512.27 100.61 514.34 98.03 515.14 85.54 509.75 78.69 515.37 72.32 517.55 71.95" style="fill:#efc441"/><polygon points="324.28 363.9 330.82 368.8 336.79 372.48 332.2 376.39 326.69 381.54 324.16 383.25 305.23 401.62 301.55 408.48 301.55 411.91 302.93 418.64 302.47 422.07 296.5 428.44 287.89 434.81 285.26 437.38 282.16 427.95 281.24 424.64 277.11 417.05 280.89 414.6 283.31 411.54 290.76 404.81 294.09 398.68 302.01 392.68 305.34 386.68 317.96 373.58 323.82 364.88 324.28 363.9" style="fill:#efc441"/><path d="M517.55,72l.46-5,3.21-9.55,2.76-5-1-6.13-.81-6.49-.23-4.65L523,33l-2.76.12L519,32.63h-1.26l-1.27.24-1.26.62-.57.61-.69.24-.69.13-.69-.13-1-.85-2.18-1.6-3-4.77-.91-1.23-2,.25L502.29,28l-1,2.82-1.49,2.7-1.38,4.4L498,47.7l-.92,5.15-1.37,3.3-3.22,5.63-.8,3.07-5.17.49-8,3.43-9.41,2.44-2.18-.36-1.61-2-1.15-2.45-1.72-2-1.83-1.59-.92-.37-.92-.49h-2.07L450.52,64l-1.14,0L447,63.38h-1l-1,.36-1.83,1.47-.81.37L429,64.48l-.23.12-.8.25,1.14,1.34-.69.62-1,1.19-.81.74.69,3.42-.69,3.92-2.29,6.37L423.21,94.7l-1,2.94,2.06,1,.35,2.45-.69,2.57-1.38,5.26-.8,1.6-5.86,6.36-1.49.37-2.52-.49-3.45-2.33-2.06-.49-2.53,1.47-1.37,3.92-.92,17.88-3.79,16.29.23,2.94-.8,2.69-1,8.82-.91,2-5.17,26-6,29.76-13.54,42.5-2.3,1.22-.11,1,.23,2.2-.12.86L363,290.91l-3.1,5-4.59,10.4-9.53,21.44-1.15,1.59-14.8,25.84-4.13,5.26-1.38,3.43h0l-.46,1-5.85,8.7-12.63,13.1-3.33,6-7.92,6-3.33,6.13-7.46,6.73-2.41,3.06L277.15,417l4.13,7.59.92,3.31,3.1,9.43h0l1.72,5.39,6.54,20.82,5.28,16.53,6.43,17.15,8.6,22.9,10.33,27.55,3.68,15.68.34,8.08.92,3.3,2.75,3.8,1.61,2.33v2.69l-1.61,5.88-.34,3.43.46,2.33,1.14,1.83,9.07,8.09,1.95,2.81,5.51,16.17,9.87,28.9,6.54,19,.46,1.1.35,1.11v2.32l1,10.66,7.35,20.45L381.78,726l4.36,20.2-.35,13.47,1.15,4.66,3.9,8.08,1.38,2.82,1.26-.12,1.5.12h1.26l.57-.74.35-1.22.69-1.47,1.26-2.08L402,766l1.15-1.71.68-2.57.69-5.27,1.26-4.29,2.19-3.79,1.6-4.78.92-11,1.15-4.9,7.8-21.31.69-4,.23-11.88,1.26-6.61.58-1.71.92-1.47.57-1.72.11-2.45,2-7.71,7.11-10.9,2.76-6.62V645.2l-3.45-12,.12-5.63,1.14-3.31L435,614l1-2.45,1-2,.92-2.2.45-2.69-.45-2.82-2.41-3.92-.92-2.08V591.2l3-8,.8-4.77,7.24-24,9.75-20.21,1.38-4.65.69-5,.57-2.2,1.15-2.45,1.26-1.47,2.87-2.57.92-2,.57-4.29v-4.4l.35-4.41,2.18-4.53,2.06-2,4.48-4.41,1.95-3.55L475.7,480l1.14-5.76,7.81-15.67.8-5.63-1.15-5.39-2.52-5-1.72-3.92-1.61-5-.92-5.51,2.07-4.78,2.41-4.16.23-4.17L481,413.58l3.1-5.75,3-7.84.69-4.53.11-2L488.1,382H488l-11.37.85-9.75,5.64L448.69,404l-9.76,3.67-21-.24-10,1.47-4.25,1.47-4.59.73-4.48-.73L391,407.5l-2-6.61,2.41-6.62L399,381.54l.92-6.49.12-5.51.69-5.39,2.63-5.15.35-.73,3.1-3.67,14.34-9.19,5.74-5,3.56-3.06,1.84-3.06,3.9-.86.92.73,2.06.37,2.18,2.33,4.37-.61,2.29,1.59.8-.86.69.37.58,1,1,.61.8-.24.35-1.72.8-.86.57-2.81.92-.86.81-1.23-.58-1.71-1-1.1-.12-1.35.92-2.82.81-1.22-.46-.49-.23-1.59-.46-2.33.8-1.35.69-1.47-.8-.49-1.15-.12-.35-.37,1-1.46-.69-.49-.57-.62-.92-.12-1.84.49-1-1.59-.35-1.35.23-2-.8-2.33-1.61-.48-1.14.85-.12,1.23.8,1.47.58,2,.57,2.81v3.06l-.11.74-.46.24-2.76-1.47h-1.14l-1,.25-.23,1,.58,1.22.11,1.11-2.06.24-6.2-1.35-2.64-2.08-1.49.12-2.53-1.47-1.61-3.3-2-1.29-1.95-.12-1.37.25-1.84,1.1-3,3.06-2.41.61-1.95.25-3.55-.62-.46-.36.23-.86,1.83-1.59,1.49-1.59,1.27-.49,4-.25.69-.73.81-9.43-1.61-3.19-2.18-.36-1.84-1.47-.34-1.11.69-1.1-1-.86L409,287.85l-1.26-.24,1.3.19,1.91-2.27.11-2.94-.34-3.43,1.72-2-3.79-13.6.46-6.85-1.72-5.15L405,247l-.69-2.57.46-3.06,6.54-6,1.27-2.45.57-2.58-.34-2.08-1.15-1.47-2.07-.73.58-2.57.57-6.25.69-2.57.57-.37,2.3-.86.57-.49,1.26-4,.69-3.43,2-10.28,3.33-5.76,4.36-3.3,5.05-2.33,5.17-3.31,4.24-4.9,2.3-1.83,3.1-.25.23.25,2.29,1.1,4.71,4,3.1,1.1,10.56-.61,4.93.61,5,3.19,1.49,4.65-.11,6.12.92,5,4.36,1.35,4,.12,3.9,1L505.29,205l-.69-1.22-.8-.86-.35-.73-.8-2.08,1.61-.37.8-.61-.23-.74-1-1.1V196H505l-.23-.86-.34-.12h-.35l-.34-.37,2.29-1.47-1-1.35,1.15-.49,1-.73v-1.47l-.69-.13-.46-.36-.45-.37-.58-.37.35-1.34.57-1.35,1-1.1,1.49-.49V182.4l-1.6-1.59-.35-.86-1.14-1.83h-.69l-.92.12V176.9H506l-.45-1.22-.58-4.17,1,1.35.81-2.2.34-.74.23.74.12.48.23-.12.68-1.1-.91-2.45-.58-5.14-.92-1.72v-1.47h1.15v-1.22l-1.38-.86-.68-1.47.11-1.59.35-.73,1.14-.49,1.5-1.35,2.52-3.31,3.1-2.33h-.12l-.68-2.44-2.07-2.7.8-2,5.86-7v-1.47l-.12-1.1.23-.86,1-.49-.91-2-.12-2.32,1-5.39-.68-2.33.11-1.59.34-2,.23-2.94-.57-2V107L517,105.75l-2.76-2.57-.11-.12-1.84-2.45L514.34,98l.8-12.49-5.39-6.86,5.62-6.36Z" style="fill:#efc441"/><polygon points="433.42 64.85 427.13 71.14 427.34 72.19 427.01 74.09 436.04 65.07 433.42 64.85" style="fill:#fff"/><polygon points="446.97 63.38 445.94 63.38 444.9 63.74 443.06 65.21 443.05 65.22 424.21 84.06 423.92 87.18 447.57 63.53 446.97 63.38" style="fill:#fff"/><polygon points="423.03 98.07 458.97 62.13 458.79 62.03 456.72 62.03 456 62.27 423.03 95.24 422.18 97.67 423.03 98.07" style="fill:#fff"/><polygon points="406.34 113.95 403.81 115.42 402.8 118.3 406.99 114.11 406.34 113.95" style="fill:#fff"/><polygon points="411.64 116.63 411.85 116.77 413.93 117.17 422.65 108.45 423.65 104.62 411.64 116.63" style="fill:#fff"/><polygon points="422.65 108.45 464.34 66.77 464.18 66.44 463.08 65.19 423.65 104.62 422.65 108.45" style="fill:#fff"/><polygon points="502.29 27.98 501.81 29.29 505.17 25.93 503.44 26.15 502.29 27.98" style="fill:#fff"/><polygon points="411.85 116.77 411.64 116.63 402.08 126.19 401.93 129.17 413.93 117.17 411.85 116.77" style="fill:#fff"/><polygon points="469.12 71.22 467.36 70.92 401.54 136.73 401.52 137.22 400.8 140.3 470.16 70.94 469.12 71.22" style="fill:#fff"/><polygon points="498.21 42.89 509.25 31.85 508.17 30.11 498.31 39.96 498.21 42.89" style="fill:#fff"/><polygon points="480.24 68.04 398.63 149.64 397.77 153.33 485.17 65.93 480.24 68.04" style="fill:#fff"/><polygon points="497.12 52.84 496.31 54.79 518.46 32.64 517.67 32.64 516.4 32.88 515.14 33.5 514.57 34.11 513.94 34.33 497.49 50.78 497.12 52.84" style="fill:#fff"/><polygon points="521.97 36.3 396.9 161.38 396.52 164.58 522.11 38.99 521.97 36.3" style="fill:#fff"/><polygon points="522.95 46.23 522.85 45.43 394.43 173.85 393.72 177.38 523.22 47.88 522.95 46.23" style="fill:#fff"/><polygon points="521.22 57.38 521.62 56.65 391.94 186.33 391.24 189.86 519.96 61.14 521.22 57.38" style="fill:#fff"/><polygon points="509.75 78.69 510.95 77.32 389.45 198.82 388.74 202.36 510.92 80.18 509.75 78.69" style="fill:#fff"/><polygon points="517.55 71.95 517.67 70.6 516.07 72.2 517.55 71.95" style="fill:#fff"/><polygon points="515.14 85.54 514.08 84.19 386.94 211.33 386.23 214.87 515.11 85.99 515.14 85.54" style="fill:#fff"/><polygon points="514.62 93.65 384.44 223.84 384.07 225.64 383.43 227.68 514.42 96.67 514.62 93.65" style="fill:#fff"/><polygon points="417.71 200.57 380.07 238.2 378.75 242.35 417.04 204.06 417.71 200.57" style="fill:#fff"/><polygon points="446.28 173.47 446.51 173.72 447.1 174 516.14 104.96 514.67 103.6 444.67 173.6 446.28 173.47" style="fill:#fff"/><polygon points="410.66 217.61 375.39 252.88 374.07 257.03 410.38 220.72 410.66 217.61" style="fill:#fff"/><polygon points="452.83 178.27 518.53 112.58 518.58 112.24 518.8 109.47 451.31 176.97 452.83 178.27" style="fill:#fff"/><polygon points="370.71 267.56 369.69 268.59 370.53 268.14 370.71 267.56" style="fill:#fff"/><polygon points="412.77 228.21 411.62 226.74 411.55 226.72 370.71 267.56 370.53 268.14 369.69 268.59 368.14 270.13 368.12 270.34 368.35 272.55 368.32 272.78 412.78 228.32 412.77 228.21" style="fill:#fff"/><polygon points="461.42 179.68 517.83 123.28 518.5 119.78 458.42 179.86 461.42 179.68" style="fill:#fff"/><polygon points="404.27 244.38 404.34 243.93 365.37 282.9 364.15 286.95 404.79 246.31 404.27 244.38" style="fill:#fff"/><polygon points="471.25 179.86 511.4 139.7 511.81 138.69 517.67 131.71 517.67 130.61 468.73 179.54 471.25 179.86" style="fill:#fff"/><polygon points="477.15 183.15 477.35 183.75 505.27 155.83 505.16 155.59 505.27 154 505.62 153.26 506.76 152.78 508.25 151.43 510.78 148.12 513.88 145.79 513.76 145.79 513.48 144.79 475.91 182.36 477.15 183.15" style="fill:#fff"/><polygon points="407.37 251.6 407.13 251.14 357.9 300.37 355.67 305.43 407.9 253.2 407.37 251.6" style="fill:#fff"/><polygon points="478.56 192.54 507.17 163.93 506.99 162.33 506.63 161.65 478.61 189.66 478.56 192.54" style="fill:#fff"/><polygon points="408.92 259.35 349.94 318.34 347.67 323.43 408.72 262.38 408.92 259.35" style="fill:#fff"/><polygon points="503.78 177.32 504.2 176.9 503.78 176.9 503.78 177.32" style="fill:#fff"/><polygon points="506.45 171.82 505.79 172.49 506.07 172.86 506.45 171.82" style="fill:#fff"/><polygon points="507.57 171.15 507.8 171.02 508.49 169.92 508.45 169.82 507.48 170.79 507.57 171.15" style="fill:#fff"/><polygon points="479.43 198.84 479.45 198.94 481.52 199.58 503.78 177.32 503.78 176.9 504.2 176.9 505.59 175.51 505.25 173.02 479.43 198.84" style="fill:#fff"/><polygon points="409.95 268.32 338.81 339.47 335.01 346.09 410.56 270.54 409.95 268.32" style="fill:#fff"/><polygon points="490.11 200.99 508.49 182.62 508.49 182.41 507.17 181.11 487.85 200.42 490.11 200.99" style="fill:#fff"/><polygon points="498.05 203.05 503.82 197.28 503.78 197.23 503.78 196 505.04 196 504.81 195.15 504.47 195.03 504.12 195.03 503.78 194.66 506.07 193.19 505.64 192.63 495.81 202.46 498.05 203.05" style="fill:#fff"/><polygon points="505.27 204.94 504.58 203.72 504.57 203.71 503.73 204.54 505.27 204.94" style="fill:#fff"/><polygon points="420.69 310.39 418.85 311.49 415.87 314.55 413.45 315.16 413.06 315.21 286.62 441.65 286.98 442.77 287.3 443.8 420.72 310.38 420.69 310.39" style="fill:#fff"/><polygon points="426.23 312.04 289.02 449.26 289.69 451.41 427.16 313.94 426.23 312.04" style="fill:#fff"/><polygon points="431.89 316.38 291.41 456.87 292.08 459.02 433.47 317.63 431.89 316.38" style="fill:#fff"/><polygon points="442.38 318.22 442.42 318.68 444.94 316.16 444.21 315.77 443.06 315.77 442.32 315.95 441.96 316.31 441.8 317 442.38 318.22" style="fill:#fff"/><polygon points="440.43 319.57 439.01 319.26 293.8 464.47 294.49 466.62 441.68 319.42 440.43 319.57" style="fill:#fff"/><polygon points="447.54 313.56 449.66 311.44 449.38 311 449.03 309.65 449.09 309.18 447.12 311.15 447.54 313.2 447.54 313.56" style="fill:#fff"/><polygon points="400.03 369.54 400.21 368.06 296.22 472.05 296.91 474.19 399.99 371.11 400.03 369.54" style="fill:#fff"/><polygon points="436.18 333.41 437.02 334.08 455.46 315.64 454.89 315.29 453.74 315.16 453.44 314.84 434.49 333.78 436.18 333.41" style="fill:#fff"/><polygon points="444.74 336.36 453.66 327.44 453.62 327.04 454.54 324.22 455.35 323 455.31 322.96 441.45 336.82 444.74 336.36" style="fill:#fff"/><polygon points="398.99 381.54 399.37 378.91 298.64 479.63 298.8 480.12 299.39 481.71 398.16 382.94 398.99 381.54" style="fill:#fff"/><polygon points="389.01 400.89 389.94 398.33 301.35 486.92 302.12 488.98 389.28 401.82 389.01 400.89" style="fill:#fff"/><polygon points="450.07 338.31 451.1 338.92 451.9 338.68 452.25 336.96 453.05 336.1 453.28 335 450.03 338.24 450.07 338.31" style="fill:#fff"/><polygon points="390.96 407.5 390.92 407.36 304.07 494.2 304.85 496.25 392.45 408.65 390.96 407.5" style="fill:#fff"/><polygon points="399.11 411.05 397.49 410.79 306.81 501.47 307.58 503.52 400.23 410.87 399.11 411.05" style="fill:#fff"/><polygon points="409.68 408.59 309.54 508.74 310.31 510.79 413 408.1 409.68 408.59" style="fill:#fff"/><polygon points="420.86 407.41 312.27 516 313.04 518.06 423.66 407.44 420.86 407.41" style="fill:#fff"/><polygon points="430.75 407.53 315 523.27 315.77 525.33 433.54 407.56 430.75 407.53" style="fill:#fff"/><polygon points="441.69 406.58 317.73 530.55 318.5 532.6 446.22 404.88 441.69 406.58" style="fill:#fff"/><polygon points="476.69 382.88 473.6 384.67 320.45 537.82 321.22 539.88 478.34 382.76 476.69 382.88" style="fill:#fff"/><polygon points="488.17 382.03 488.06 382.03 486.1 382.18 323.18 545.09 323.95 547.15 488.15 382.95 488.17 382.03" style="fill:#fff"/><polygon points="488.01 390.27 325.38 552.9 325.91 555.19 487.95 393.15 488.01 390.27" style="fill:#fff"/><polygon points="486.46 401.81 327.27 561 327.81 563.29 484.72 406.38 486.46 401.81" style="fill:#fff"/><polygon points="482.27 416.01 328.12 570.15 328.18 571.48 328.49 572.61 482.1 419 482.27 416.01" style="fill:#fff"/><polygon points="477.96 430.31 330.94 577.33 331.85 578.58 332.13 578.98 478.37 432.73 477.96 430.31" style="fill:#fff"/><polygon points="480.14 438.73 479.99 438.28 333 585.27 331.94 589.16 480.82 440.28 480.14 438.73" style="fill:#fff"/><polygon points="483.12 445.15 332.38 595.89 333.12 597.07 333.6 597.5 484.06 447.04 483.12 445.15" style="fill:#fff"/><polygon points="485.53 453.06 485.48 452.8 337.39 600.88 338.88 602.22 485.11 455.99 485.53 453.06" style="fill:#fff"/><polygon points="479.91 468.36 342.56 605.71 343.72 607.38 477.11 473.99 479.91 468.36" style="fill:#fff"/><polygon points="475.82 482.45 345.7 612.57 346.42 614.68 475.87 485.23 475.82 482.45" style="fill:#fff"/><polygon points="464.87 505.23 465.03 503.25 348.24 620.03 348.96 622.14 464.87 506.23 464.87 505.23" style="fill:#fff"/><polygon points="458.1 522.37 459.25 519.92 460.51 518.45 463.38 515.88 464.25 514.02 350.79 627.49 351.51 629.6 457.88 523.22 458.1 522.37" style="fill:#fff"/><polygon points="455.46 534.25 456.06 532.21 353.33 634.94 354.05 637.05 454.16 536.94 455.46 534.25" style="fill:#fff"/><polygon points="445.7 554.46 447.47 550.8 355.88 642.39 356.6 644.5 445.3 555.8 445.7 554.46" style="fill:#fff"/><polygon points="442.21 566.06 358.42 649.85 359.14 651.96 440.99 570.11 442.21 566.06" style="fill:#fff"/><polygon points="437.67 583.24 438.2 580.07 360.98 657.29 361.7 659.4 437.55 583.55 437.67 583.24" style="fill:#fff"/><polygon points="434.69 595.85 434.69 593.59 363.54 664.73 364.27 666.83 434.86 596.24 434.69 595.85" style="fill:#fff"/><polygon points="438.02 601.85 437.41 600.86 366.11 672.16 366.51 673.12 366.86 674.23 366.86 674.24 438.19 602.91 438.02 601.85" style="fill:#fff"/><polygon points="435.03 613.97 435.57 612.71 367.29 680.99 367.54 683.56 434.64 616.46 435.03 613.97" style="fill:#fff"/><polygon points="432.28 627.57 433.11 625.16 368.73 689.54 369.48 691.62 432.25 628.85 432.28 627.57" style="fill:#fff"/><polygon points="432.81 635.46 371.37 696.9 372.12 698.98 433.44 637.66 432.81 635.46" style="fill:#fff"/><polygon points="435.61 645.2 435.04 643.23 374.01 704.26 374.76 706.34 435.61 645.5 435.61 645.2" style="fill:#fff"/><polygon points="432.85 657.94 434.65 653.63 376.65 711.62 377.39 713.71 432.26 658.84 432.85 657.94" style="fill:#fff"/><polygon points="423.78 676.55 424.48 673.79 379.27 719 380.02 721.08 423.75 677.35 423.78 676.55" style="fill:#fff"/><polygon points="420.34 690.51 420.95 687.32 381.86 726.41 382.36 728.74 420.34 690.76 420.34 690.51" style="fill:#fff"/><polygon points="420.19 698.08 383.64 734.64 384.14 736.96 420.14 700.96 420.19 698.08" style="fill:#fff"/><polygon points="418.03 710.25 385.41 742.86 385.91 745.19 416.39 714.71 418.03 710.25" style="fill:#fff"/><polygon points="411.62 727.74 412.25 726.03 385.98 752.29 385.91 755.19 411.09 730.01 411.62 727.74" style="fill:#fff"/><polygon points="410 738.27 386.34 761.93 386.9 764.2 409.74 741.36 410 738.27" style="fill:#fff"/><polygon points="404.5 756.52 405.65 752.62 389.21 769.06 390.13 770.97 404.49 756.61 404.5 756.52" style="fill:#fff"/><polygon points="397.16 773.3 397.85 771.83 399.11 769.75 401.19 767.09 393.72 774.55 394.38 775.21 394.98 775.26 395.84 775.26 396.9 774.2 397.16 773.3" style="fill:#fff"/><polygon points="326.69 381.53 324.16 383.25 305.23 401.62 303.58 404.69 327.45 380.82 326.69 381.53" style="fill:none"/><polygon points="410.81 280.29 410.7 279.16 412.42 277.2 412.13 276.14 324.34 363.94 325.95 365.15 410.81 280.29" style="fill:#fff"/><polygon points="331.74 369.36 410.75 290.35 409.58 288.69 330.05 368.22 330.82 368.8 331.74 369.36" style="fill:#fff"/><polygon points="278.56 419.72 279.55 421.55 279.55 421.55 278.56 419.72 278.56 419.72" style="fill:#fff"/><polygon points="332.2 376.39 327.45 380.82 303.58 404.69 301.55 408.47 301.55 409.55 415 296.1 414.03 295.94 413.09 295.18 336.18 372.09 336.79 372.47 332.2 376.39" style="fill:#fff"/><polygon points="282.4 428.7 282.4 428.7 282.27 428.31 282.4 428.7" style="fill:#fff"/><polygon points="417.73 300.55 302.37 415.91 302.85 418.26 417.46 303.64 417.73 300.55" style="fill:#fff"/></svg>