<svg xmlns="http://www.w3.org/2000/svg" viewBox="0 0 800 800"><path d="M26.08,189.83l.62,0,1,.44,1.79-1,1.93.25,2,.7,2.06.41h1.55l.65.25.42.3.31.29.34.22.59.15,1.27,0,.59.23.24.33.51,1.13.28.37.65-.29,1.45,1.65,1.14.48,1.06.15,9.78,4.33,11.3,5.7,1.58.29.17.4,0,.55.2.52,2.24,1.65,1,.19,1.9-.37,2.85-.26.52.26,2.76,2.61.24.51-.11.44-.24.63-.14.62.14.55.35.11,1.27.11.45.15,1.69-.62,1.1.55,1.1.77,1.14.4,1.13.11.76.26,1.38.73,6.3,1.95,5.4,2.79,5.72,1.88,9.88,3.19,1.14.15.58.15,1.65,1,.66.08.72,0,.69.11,1.45.92,4,1.1h1.13l1.69-.14.86-.08.83.22.34-.4.83.37,3.47.36.49.15.93.77.65.19.62,0,10.74,2,2.27.81.87.66L158,238.4l.51,1.51.21.37.31.29.79.33.42.3.41.22,1.51.51.18.22.44-.22.76-.59.28,0,.34.11.1.33-.37.66.44.7.52.44.69.29,1.79.15,1,.22.79.41,1.86,3.12.62.51,2.07,1,.76.19,1.17.59,2.44,3.82,1.31.51,1.65.11,3.31-.22.51.07.59-.11,1.24,0-.41.44-.49.26-.55.07-.58,0,.38.62.44.33.49.22.55.44.79.37,1.24-.73.72.36.38.77.28.37.38.19.55-.08.13-.15v-.22l.18-.29.48-.59.45-.73.24-.7-.14-.55,1.69-.48,2.27,0,2.27.33,1.69.56.65-.15,2.62.11.76.22.65.73.59.81.41.88.24,1.07v4.59l.31.59.76.62.45.26.48.3.72.29,6.27,1.07,2,.77,1.31,1.25.9.62,1.51.48,1.21.81.27.29,0,.15.1.11.14.14,0,.33-.1.37-.65.3-.25.29V273l.28.74.62.55,2.24.44.89.48,1.48,1.58,1.14.73.24.37v1.95l.17.29.73.44,1.85,2.87,1.35.77,5.2,1.84,2,0,2.13-.55,2.17-.26,1.93.85,2.07,2.75,3.09,2.72,1.83,2.24.41.85,1.07,1.54.48.33.42,0,.34-.11h.28l.79,1,1.06,2.5,5.51,6.57.76.74,1,.4.79.55.17.26,1.69.52.48.51.72,1,.52,1-.14.44-.59.48-.34,1.17-.31,2.43.07,1.25.52,2.2.1,1.1.14.34.44.73.11.44,0,.48L269,323l-.27.62.07.15-.14,1.91-.21,1.17-.06.59.06,2.28-.06,1-.35,1-1.79,2.72-.24,1.14,0,.44.24.81.07.62-.13.67-.9,1.72-.14,1.73.55,1.69,1.07,1.25,1.41.51,3.07-.58,1.2.33.73,1.72h.34l.07-.4.24-.66,0-.41.35.11.14.08.2.18.62-.77.73-.18.75,0,.69-.52.86,1,.86.33.93.26,1.14.7.38-.37.24,0,.17.15.21.26.55,0,1.72.84.86.3,1.24,0,.59.11.24.48.24.62.55.22,1.27.08,1,.47.51.19.93-.3.48.34.49.47.41.33h.55l1-.33.69-.07H296l.38.11.93.62.34.26.45.37.55.18.65,0H299l1.11,0,1-.22.93,0,.93.73.24.51.21.56.31.4,1.21.29.62.26,6.3,5.33,3.34.95,1.72,1.11,1.17.25.41.3.24,1,.24.95.76.26.9-.26.79-.29,1.13-.18.9.18.76.26.82.14.73.33.41.81.31,1,.45.84,2.61,1.84.38,0,.52.14.45.19.38.4.44-.22.69-.55.55,0,.31.11.59.66.65,1.14.48.52.24-.37.59-.26,4.65.63H341l.45-.15.62-.48.45-.62.51-.55.69-.22.45.11,1.27.62.35,0,.1-.08.07-.18.17-.26.35-.22.24.07.27.33,2.48,1,2.31.29.89.44.69.56.55.69.21.11.58.15.21.15.14.29.07.55.1.26.34.37,1.38.7,3.51,3.56,1.35,2.53.51.59.83.52.48,1.21.38,1.47.55.81,1.17,1.8,3.76,2,1.3,1.36.18.77-.07.48-.14.44,0,.58.31.7.49.55.37.59.31,1.51.45,1.28.1.7-.13.48-.31.37-.14.47.24.7-.52.7.07.81.28.92.17,1.1-.14.26-.72.47-.14.19.07.66.24.37.35,0,.34-.33-.31,4.37-4,1.44-8.81.51-.49.33L358,413l-.38.25-.55,0-.55-.22-.55-.19-.55.26-.93.26-3.38-1.18h-1.13l-2.07.59-1.1.15-7.82-.44-.62.07L338,412l-.37-.41-.49-.29-.58-.22-.79-.11-2.48.11-.69.22-1.24,1-.83.22-1.68-.07-.87.07-.72.37-.1,1.28-.76,2.28-.17,1.21,0,2.61.31,2.57.35,1.25,1.65,2.17,1.07,1.07.55.69.31.26.55.15.41-.11.66-.66.65-.33-.07.69-.27.59-.25.44-.13.44.1.66.45.89.17.69-.07.67-.38,1.28.07.66.21.08,2.61,2.13.56.7.48.77.17,1.14-.21,2.57.35.73.24.59-.17.22-.28.22-.1.48.27.51.38,1,.24,1.61.14.56.79,1.39.24.48.28.22.24.22.17.26-.07.29-.27.18-.28.12-.07.14.28.59h.24l.31-.07.52.25.24.41,0,.33.14.26.69.11.24-.15.83-1h.31l.31.26.24.29,0,.3-.24.26,3,.8,1.52.74.65,1.25.17.55.48.26.52.11h.41l.76.14.45.37.41.44.59.52-.42.47.31.15h.59l.52.15,1.24,1,.58.69.24.63,0,2.06.48.47,2.75.48.69.41.24.77,0,1.39.34,1.14.66.85.41.84-.38,1.1,2.41-.36v-.41l-.45-.25-.34-.37-.21-.52,0-.73,1.38,1.14,1.06,1.17.73,1.55.41,3.49.41.92.66.58.89.41.83.07,1.51-.37,1.1-.07.31.18.28.3.38.11.58-.41.49-.22.58.08.59.22,2.34,1.83,1.1.63,1.1.22.38.51.14.41.58,2,.49.77,1,.11,1.07-.26.86-.11.51.66.56-.33.55-.07h1.3l.25-.18.79-.33.58,0-.41.73,0,.88,1,4.93.76,1.25.24,1.54.93,2,.41,1.22.31,1.54,0,1.54-.44,1.25,1.41,3.34.27,1.22-.1.92-.52,1.94,0,1,.07,1.14.24,1.07.41.8.79.63,1.83.92.48.7,1.17-.41,1,.3.82.55.66.29.38.11.41.29.31.41.1.48.28.36,1.82.59.45.48.55,1.36.52.81.72.84.28.88-.11,3.75.59,3.6.27.52.45.07.41.18.28.3.1.33,0,.36-.28.52-.07.26.11.33.44.62.14.37.45,2.17.89,2,1.35,1.73,1.75,1.07,4.38.84,1.79-.07.75.29L418,540l2.14-.55.82,0,.66-.15.55-.22,1.07-.66.55-.48.48-.55.17-.62.38.14.93.11,1-.11.79-.33,1,.81,1.34-.07,3.24-.81.27-.11.24-.18.07-.19.14-.51.24-.22.34-.08.31-.14.8-1,.55-.51.69-.37.58,1.58,4.55-.37,1.1,1,.51-.3L444,535l.31.22.14.55h.34l.48-.29.41.29.35.62.1.63-.1.77-.28.62-.65,1,.27.14.21.15.21.11h.34l-.79.29-.41.08-.48,0,.68.77.9.15.65.26-.17,1.06-.55.85-.79.66-.93.29-.83-.29-.38.51-.86,1.62-.14.66-.13,1.18-.45,1.8-.1,1.1-.38.88-1.69,1.51-.38,1.32.21,1.21,1,2.1.24,1.17.8,1.95,1.82.88,3.58.66,1.34.77.31.26.52.63.24.22.24,0,.55-.11.24.08.66.62,0,.11,1.76.74-.48.73.79.18H453l4-.07,1,.22,3,1.29.79-.08.9-.62.48-.22.51.07.73.3.51-.08L466,567l.48-.11,1.14.18,2,.74,2.38.29,2.44,1,1.14.07,3.2-.48,1.31.15.58.44.69,1.66.41.33.38.07.35.22.24.84.1.81,0,.15-.38,0-.76.19L479,575l-1,.41-3.51.73-2,.63-1.17.14-1-.44-.66.66-2.34.74-.79.44-.52,1.18.25.91,1.3,1.69,3.69,3.16,1.58,2.06-.1,2.13,1.27.11.79.37,1.59,1.65.62.44.93.44,1,.3.89.11,2.89-.15,1.07.15,1,.33,1.76,1.14.34.07.72-.07.45-.15.93-.48.52-.11.44.22.38.48.52,1,1.62.51.34.26.79,1.1.93.85.69.4,2,.4,2.07.81,1.1.26,1-.33.31.11.58,0,.55-.08.24-.26,2.1.52,1.28.55.51-.07.8-.63.44-.11,2.14.26-.28.44-.65.73-.11.37.31.55,1.14.81.28.7.58.29,1.34-.22,3.24-.84,3.27-.15.79-.29,1.48-1.25,1-.37,1.31.22-.14.66-.93.7-2.06.55-6.2,3.57-1.79.69-1.89.33h-.86l-.28-.14-.24-.22-1,.07-2.27-1-1-.25-2.14-.15-1-.29-.73-.48h-1.34l-1.69,1.47-1,2.09.72,1.84.24,0,.07-.08.07-.36.72.44,2.28.11,1,.4.41.26.52.18,1.69.26.51.33.8.66,6.09,1.95,1.21,1,.31,1.87.61.88.18.55-.28.59-.79.52-6.09,2.38-.56-.29-.17-.15-1.34.33-.72,0-.42.11-.79.59-.07.22-.51.66-.52.51-.24-.07-.17.22-.31.26-.28.48,0,.73-.73-.33-.89,0-.83.11-.62.26-.65-1.25-.8-.4-1.06.25-2.31,1.29,0,.11-.35-.11-.45-.22-.31-.26,0-.18-.52.22-.51.37-1,.92-.35-.45-1.17-.88-.14-.36.18-.3.31-.37.17-.44-.55-.36-1.21.22-1.27.51-.76.55-.82-1.17-.25-.3-.48-.22-.2.11-.21.19-.48-.08-.66-.88-.38-.26-.34,0-.41.07-.49,0-.51-.36.93-.67-.11-.58-.48-.59-.34-.59-.14-.22-.34.51-.52,1-.41,0-.45-.18L478,620l.14-.22.17-.92-.55.52-.14.25h-.38l-.27-.47-.65-.44-1.45-.55.34.69L475,619h-.14l-.07.07,0,.26-.48-.3-.52-.22-.52-.14-.58-.08.58-.62.8-.3.62-.36.1-1-.28.15-.72.22.21-.41.31-.33.34-.22.48-.14.35.62.51,0,1.38-.3,2.24.63,2.31-.77.44-.22.11-.3.13-.92.11-.29.27-.15,1.14-.22-.65-.29-.69,0h-.69l-.76,0-.52-.26-1-.7-1.07-.22-.62-.29-.34,0-.21.11-.34.51-.21.15L477,613l-.13.81-.21.88-.41.51-.38-.33-.21-.37-.1-.44v-.51l-.11-.44-.2-.19-.21-.11-.17-.18-.45-1.36-.27-.51-.49-.55-1.34-.89-2.75-.91-1.07-.81-1.07-.52-1.65-.18-3.31.15-1.68.36-.93.11-1.28-.51-.51.4-.62.33-.86-.33-.35.41.69.33v.37h-1.55l-.41-.19-.14-1-.34-.29-.52.11-.45.44-.55.22-.86-.41.55-.4v-.33l-.38-.29-1.27-.26-.14-.41,0-.55-.28-.55-2.24-.92-.65.3-.93,1.1-.52.44-.58-.44-1-.33-1.1-.26-.93-.07-.66-.19-3.61-2-.76-.29-1.34-.19-.9-.29-.45,0-1,.15-.45,0-.31-.19-1.17.48-.58.18-.52.08-.65.18-.62.48-.52.51-.41.33-1,.11-1-.36-3.4-1.8-.62-.15-.76,0-2.62.41-.62,0-.93-.29-.69-.08-.48-.26.1-1.17-.44-.44.1-.19.14-.36.1-.19-.52,0-.17,0,.28-.62.38-.33.55-.15h.69l.27-.44-.45-.81-.68-.4-.35.73-.24.41-.55-.08-.59-.25-.34-.26-.24-.48-.48-1.76h-.31l-.35,2.2-.38,1-.86.44-.51.63-.14.22-.35-.11-.55-.3H408.3l-1.17-.36-.62-.08-.28.22-.27.44-.62.3-.73.14-4,0-1,.37-3.28-1.36-.48-.66-.44-1.14-1-.81-1-.18-.38.81-.72-.48-.62-.66-.73-.67L390,594h-.44l-.93.07-.35-.07-.31-.29-.31-.81-.44-.37-.59,1.91-2,1.21-2.41.37-1.9-.59-.75,1.29-.55.59-.76.4-.93-.62-.55-1-.45-1.14-.52-.92-.79-.51-.79.14-.93.3-1.24.07v-.37l.93-.33.45-.88-.11-.92-.62-.48-.41.12-.31.25-.2.44-.21,1.11-.28-.11-.62-.7-2.06-.48-1.21.29L365.53,594h-.34l-.86-4.52-.48-.07-.62-.22-.55-.3-.28-.29-.24-.37-.59-.11-.68,0-.49-.07-.65-.48L358,585.73l-.38-.84-.27-.85-.69-.66-.8-.62-.65-.63-.41-.77-.21-.84-.07-2.32-.17-1.14-.48-.95-4.51-6.28L348,568.39l-.48-.73-.45-.88-.55-.85-.93-.51-.34.37,0-1.22-.45-.88-.73-.62-.89-.63-.79-.37-.62,0-.17.44.55,1.1-1.14.07-1.58-.51-1.55-.81-1.07-.81-.31-.62-.24-1.84-.31-.7-.59-.47-.62-.19-.72.08-.83.22.28.44.79.29.31.37.11.59-.07.55-.18.33-.2,0h-.59l-.93-.44-.86-.73-.65-1.69-1.31-2.06-.48-1-.62-2.61-.45-1.21-.83-1.17-1-.33-2.06.47-.52-.73.59-.15.45-.29.17-.44-.21-.59-.48-.33-.45-1.32-.07-1.62.66-1.18-.28-.25-.24-.37-.28-.4-.2-.48.38-.15,1-.26,1.14-.84.24,0,.31-.55,1.41-1.14.34-.7,0-.55-.14-.59-.24-.47-.27-.22-.66.14-.31.52-.07.55.17.26-.06.36-1.55,1.73-.62.44-1.79.15-1.55-.7-1.48-1.07-1.73-.91-.58-.11-.93.14-.59,0-.34-.19-.72-.48-3.51-.8-.93-.37-1.28-.92-.79-1.21-.62-1.25-.76-1.07.21-.73-.14-.85-.27-.73-.31-.29.31-.52.1-1,.27-.74.87.37.75-.62.52-.66.24-.74-.14-1-.69.73-.86.33-.48-.18.31-.88-.24-.22-.24-.3L307,523l-.07-.44-.27-.66-.59-.15-.65.12H305l-.21-.45v-.55l.07-.55-.07-.51-.2-.66-.28-.52-2.41-2.9-.62-.92-.24-.73-.35-.59L298.32,512l-1.2-1.21-4.34-6.8-.62-1.65,0-2.17-.14-.44-.45-.63-.07-.22v-1.69l-.31-.92-.48-.95-.69-.77-1.65-.66-1.45-1.51-.44-.37-1.21-.18-.55-.52-.83-1.91.66-.58-.14-.89-.59-.88-.65-.58.52-.26.34-.3.1-.4-.24-.51-1,.22-1.48-.59-2.65-1.51-2.89-.73-1.66-.08-1.3.44-1-.77-3.2-1.1L268,480l-.1-.18-.24-.18-.21-.3-.14-.44.17-.15.66-.11.21-.29,0-.29-.24-.22-.28-.19-.13-.22.1-.37.59-1.28H268l-.58.84-.76,0-.83-.15-.93.44.72,1.1-.89.41-3.06,0-.66-.18-.93-1-.69-.29-.75,0-.76.22-.76.07-.83-.33v.37l-.93-.33-3.37.66-1.2-.08-.93-.22-.8-.44-2.89-3-1.44-.81-1.9-.22-.45.11-.48.18-.55.11-.55,0-.45-.3-1.06-1-.38-.62-.69-.55-.42-.66-.44.55-.38.81,0,.29-.93.07-1.27-.36-1.14-.74-.44-1-.18-.59-.38-.51-.34-.15-.17.48,0,1.17-.17.3-.45.25h-3.13l-.55-.36-1.52-1.88-.62.92-.55-.11-.62-.51-.79-.3-.34.08-.59.25h-.31l-.07-.11-.27-.51L222,468l-.41-.15-.52-.37-.41-.44,0-.33.83-1.06.38-1,.07-5.26-.17-1.21-.59-.88-.41,1-.21,2.61-.45,1.13.28.89-.59.44-1,.14-.9,0-.79-.26-.69-.66-1.1-1.36-1.82-1.47-.48-1.21-.56-.66-1.27-1.1-.28,1,.18,1,.31,1,.17,1-.48.81-1.1.36-1.28,0-1-.26-.48-.51-.56-.92-.44-1-.21-.77,0-.59,0-.48-.17-.4-.31-.37-.21-.51.14-1.33-.07-.58-.76-1-.31.66,0,3.82-.41,1.73,0,.7.28.44,1.13,1.06-.24.52-.48.4-.48.15-.21-.18-.28-.7-1.3-1.11-.49-.58-.13-.41-.18-1,0-.33-.14-.3L201,458l-.34-.18-.24-.18-.42-1-.58-1.73-.41-.69h-.31l.24.95.07,2.06.24.81.68,1.47.11.84.1,1.76.28,1.4.31.55.48.63.41.73.17.85.59.58,1,1.4.38,1.29-1.28.25-.14-.33-1-1.47-.24-.22-.25-.59-.58-.73-.72-.7-.55-.4-.52,1.25-.93.47-.86-.47-.38-1.44-.21-1.61-.55-1.47-1.69-2.65.25,1.4.55,1.54.34,1.29-.48.62-.83-.4-1.13-2.5-.8-.85-.31.63-.48.44-.62.26-.65.14v.41l1.31.07.34.88-.34,1.22-.62,1.1.51.26.66.58.48.74.07.66-.52.4-1.89.74-.69.37-.93-1-.48-.29L187,468l-.55.11-.58.26-.59.11-.51-.26-.86-.74L174.44,464l-3.68-2.28-1.17-1.06-.52-1-.24-1.07L167,455l-.34-.92-.21-.26-.48-.29-.48-.18-1.21-.15-.55,0-.79-.29-1.69-1.43-.48-.52-.1-.18-.21-.55-.38.73.52.85,1.62,1.83.48.33.48.11,1.1.52,1.17.22.07.29-.17.37-.07.33.86,2.24,4.1,7.39.31,1.06.17,1.18.07,1.25.21,1.28.55,1,1.31,1.69,2.41,3.93.79,2.28-.69,1-.07.11-.93-.3-.76-.88-.68-1-.76-.73-.86-.22-2.93-.15.31.22.38.62.34.26.45.15.86.11.42.11.89.55,1.89,2-.79,1.1-.86.55-1,.19-4.68-.08-1-.25-.41-.3-.83-.84-.44-.37-1.76-.55-.48-.37-1-.47-1.17,0-3.24.85-2.86-.22-.86-.26-.55-.66-.86-2-.62-1.1-.72-.56-.93-.14h-1.34l-.18-.15-.51-.26-.59-.11-.24.3.1.47.31.37.42.26.51.18,2,.22.55.48.2,1.32.38,1,.9.77,4.09,1.94.59.7.52,2.17,2.89,5.47.38,1.36-.28,1-.86.48-1,.15-12.81.33-.48.22L143,495l-4.27.33L127,498.63l-1.14.07-.93-.22L120,496.05,113.6,495l-.24,0-.48-.3L112,495l-2.48.62-1,.07-1.13.26-2.83,2-1.1.45-1,.07-2.2-.18-1.1-.3-.76-.73-.45-1L96.83,491l-1.06-1.44-2.21-.44-2.82.63-1.79.15-.38.11-.31.29-.34.48-.59.44-.55.18-.55.08-.55.22-.69.58-.28.48.21.44.76.37,1.13-1.14.69-.51.76-.22.38-.15.34-.33.28-.22.82.36.62-.07,2.14-.59,1.38-.22,1.24.26.51,1.14.14,1.21,1.52,5.18,1.13,1.47,1.62,1,2.13.22,1.79-.63,3.34-2.42,1.79-.63,4,.74.86-.33,2.07.7,1.72,1.61.51.26,1.07.33,3.24,2.28,1.93.81,6.3,1.39,2,.74,1.48,1,6.54,5.76,2.83,3.57,1.51,2.64,1.93,2.46.45.85.24.73v7l.31,1.76,0,1-.45.84-1.2,1.18-.59.4-.82.45-1.52.44h-2.82l-1.52.33.35.36-.48.15-1.07.07-.79.19-.52-.08-.24,0-.14.19-.14.36-.24.37-.34.18-.76.15-4.44,1.47-.86.44-1.24,1.1-1.17.77-.48.11-.59.3-.45.66-.44.73-.42.56-1,.58-2.34,1-1.79,1.47-5.37,2.24-.83.55-.34.63-2.79,1.65-2,.22-1.76-.55L105.17,551l-2.41-2.25L101,547.56l-1.82-.84-1.48.14-1.31-.69-.79-.3-1.17-.11-.76-.18-2.17-1.32-2.65-1-.62-.11-.55.15-1,.77-.58.19-1.69-.08-7.12.55-1,.26-3.07,1.18-1,.22-1.24.07-1-.18-2.1-.74-1.14-.18-4.27.81-1.27-.08-.42.37-.72.33-.79.29-.69.12-.76-.3-.65-.51-.69-.33-.79.4-.62-.11H54l-1-.18-.76-1.11-2.1-1.54-1.58-.84-1.86-.48h-2l-1.79.59L39,546.06l-1.62.8-2.37.26-1.89-.77-5.41-5.11-1.55-1V534l0-10.43V504l0-14.33V421l-.72.07-1-.55-.17-1.72-1.2.36-.38-.73-.07-1.14-.28-.85-1-.77-.41-.48-.18-.58.14-.26.45-.7.1-.37-.27-.62-1.07-1-.38-.59,0-.55.1-.48.27-.62.45-1.77,0-1-.76-.36.45-.81.76-.29.82-.19.73-.55-.07-.4-.35-.48L22,403.1l.41-.18.42,0,.27-.18.14-.26,0-1.36.11-.62.38-.37.75-.11.35-.48.14-1-.21-.81-.79,0v-.66l-.14-.48-.35-.29-.55,0,.45-.26.48-.14.52,0,.59.07-.14-.69.27-.41.38-.4.21-.55-.14-.33-.48-.45-.1-.29,0-.22.24-.11.28-1.07.44-.62.21-.07V318.16l0-11.53,0-9.55,0-22.71,0-9.22,0-10.88V242.55l-.07-17.81L26,211.4l0-10.47,0-9.44Zm643.17,485,.24.15.35.11.27.14.11.3-.14.55-.28.15-.27-.08-.28-.29-.41.29-.31.11-.31-.11-.41-.29-.52.48-.62.22H666l-.59-.3-.21.66L665,677l-.35-.22-.41-.15H662l-.28,0-.17-.33h-.28l-.27.15-.41.51-.14.08-.59.25-.51.3-.45,0-.35-.88.45.07.41-.07.28-.29-.07-.48-.27-.3H659l-.45.19-.48.11-.45-.15-.28-.37-.17-.36-.17-.15-.52.07L656,675l-.38,0-.55-.26.17-.22.21-.59-.45-.07-.24-.15-.07-.37,0-.55-.51.44-.42.52-.41.4-.52.19L651,673.21l-.79.48-.48-.37-.21-.81.07-.77.31-.4.48-.48.24-.48-.34-.51-.55-.26-.25.18-.13.33-.28.15-.34-.11-.24-.26-.25-.4-.75.29-.76.48-1.27,1.1-.25-1.1,2-1,0-.84-.45-.3-1.1,0-.52-.15-.48-.4-.59-1-.48-.59-.38-.07-.38.18-.34,0-.1-.51.27-1.18-.14-.37-.65-.14-.34-.15-.42-.41-.31-.44-.17-.33.07-.66.17-.59.48-1.17,2.62,2,1,.3.93-.34.45,0,.34.88.45.19.58.14.55.19,1.18.84.55.26,1.17.26.51.22,1.41,1.25,3.1,1.28,2.38,1.62.55.22,1.07.07,5.82,1.69.48.3.14.58.38.52.51.4,1.1.33.31.44Zm26.17-12.93.07.51.21.66.34.59.41.3-.34.66-.38.51-.41.4-.59.3-.41-.81-.93-.4-1.1-.11-1.07.18-1.76,1-.72-.07-.21-1.32h-.34l-.31,1.43-.72.59h-1.07l-1.34-.48-.76.07-.41-.25-.21-.78-.21-.33-.48-.29-.55-.22-.52-.07.24-.41.35-.33.38-.22.44-.18-.27-.22-.45-.89.35,0,.17.11.2.29.83.48,2.24.18,1.07.48.38-.4.61.29.31-.11v-.4l-.27-.52h-.35v.41h-.3l-.38-.22-.35-.26-.17-.3.17-.36-.45-.22-.34-.3-.21-.44,0-.51,1,.33h1.41l2.07-.33.59.29.44,0,.38-.14.48-.11.45.22.24.48.24.29.62-.26,1,.48.51.33ZM640.26,658l.48-.33.21-.07v-.37l-1.38-1.1-.38.33-.2-.11-.21-.3-.24-.29-1.76-1.14-.75-.92.17-.7.62-.22.65.33.62.55,2.48.56,2.24,1.69.89.22-.17.47-.34.67-.48.4-.56-.26-.1.26-.48.26-.69.18Zm-19-35,.41,0,1.72.7.62.41.45.66,0,.48-.42.4-.65.33-.55.15-2.24.22-.55.11-1,.48-.48.14-1.14-.07-1.41-.44-3-1.36-3.1-.74-2.07-1.5v-.37l.35,0,.13-.11.07-.15.11-.15,3.27,1,.72-.11.48,0,1.52,1,.58.25,1.55-.47,1.72-1,1.66-.62Zm-87.18-1.43-1.41,1.13-.11.52,1.18.18-.28.26-.52.59-.27.25,0,.52-.72.07-.83-.48-.41-1-.45-.45-2.17,0-.93-.18-.17.81,0,.73v.63l-.49.44-.48-1.55-.1-.77.21-1,.34-.58.52-.45.72-.33.83-.14h2.79l.44.18.48.44.42.19.38-.15.17-.33.14-.19.38.26,0,.18v.15l.07.08Zm-10-3.79.62.33.55.48.14.62-.62.81.34.37-.17.55v.77l-.17.55.31.55,0,.56-.2.44-.49.33-1-.52-1.27-.44-1.28-.15-1,.37-.55-1.1-.35-.48-.44-.25.34-.41.69.52.82.47.93.33,1,.15h.93l.27-.11-.24-.37L520,619l-.28-.51.11-.52.48-.29.45.11.41.33.24.44.69-.11h.69l.69-.14Zm15.15-31.52,1.41-1,2.1-.73,1.86.29.86,2.17-.2,1.14-1,2.31-.41,2.35-1.52,3.12-.34.34.21.58-.49,1.77.28,1-1-.74-1.83-1.65-1-.55-5.13-1.51-2.38-.36h-1.07l-.79-.08-.62-.29-.2-.81-.18-1.62.11-1.39.62-.3.41-.51.65-.74.35-.66-.52-.25-.34-.26-.52-.55-.76-1h-.31l.14,1.39-.89.89h-1.11l-.55-1-.07-.44-.24-.19-.24-.11-.14-.18-.06-.44.06-2.72-.17-.37-1.07-1.5-.13-.37-.14-.7-.38-.51-.48-.33-1-.3-.18-.33-.07-.4-.13-.26-.28-.07-.79-.11-.31-.15-.55-.52-.41-.55-.28-.73-.1-1,0-.91.17-1.07.35-.7,1.44.81,1,.81.79,1,.31,1.14.49,1.21,1.13.74,1.38.58,1.14.63,3.3,3.93.86.59,1.28.48,1.17.69.69,1.07-1.18-.37-.34.85.17,1.14.42.55.55.29,1.79,1.51,1,.44.93.33.38,0,.38-.29.31-.52.07-.62-.14-.52-.41-.18,0-.4.69-.89Zm-18.9-16.39.17.92-1-.11-2.17-.81-3.17.37h-1.1l-1.76-.51-1.76-.81-1.92-.63-2.21.11-2,.3-1.65,0-.17-.4.72-.81,1.69-1.36,1.2-.66.52-.59.07-.77,0-1.14-.38-.55-2.41-1.5-1.55-3.75-.13-1.62.41-1.25,1.07-.92,1.34-.51,1.27-.07,2.93,1.61,1.72.52.66.66.92,1.28,1.35,1,.89.4.69-.11,1-.51,1-.19.93-.29.73-1,2,1.43,1.55,1.55.27.36,0,.33-.1.81.06.3.49.51.72.48.76.36.62.15.13.33-.31,2.1-.24.4-.41.15-.31.22.24.51.59.41.58,0,.42.11.34,1.4.41.29.48.26.31.48,0,.73-.31.63-.52.51-.62.33-.51-.59-.86.63-1.69,1.84,0-.92.52-1.29.14-.62-.35-.44-.79-.15Zm-21.73-15.21h0l.44.55.11.26-.18.22-.24.19-.17.29-.27.84-.83,2-.48.66-.14.4.45.15h.89l0,.52-.07.36-.28.63-.89.95h-1.28l-1.41-.59-1.24-.73-.1.15,0,0-.06.08-.21.11.07-.85-.07-.84-.24-.66-.59-.26-.79-.11-1.93-.63-.48-.25-.31-.55-.27-.7-.31-.55-2-1.8-.28-.44,0-1.77.2-1.54.49-1.47,1-1.36,1.17-1.1,1.21-.81,1.24-.33,1.2.4,2.69,1.55,1.21,1,.93,1.25.92,2.35.21,1.29.45.77ZM630.72,542.2l.83.4-.79.66-.38.59.27.37-.2.29-.21.44-.51.19-.52-.33-.38-.44-.62-.37-.34.29-.49.63.14.4.93.77,1,.85.31.92-.42.55-.34,0-.24-.8-.69-.78-1,0-1.37,1.18-2,.22-1,.29-.38-.33-.79.07-.41-.8-.79-1-.69-.33-.76-.7-.38-.73-.34-.44-.31.66-.59.55.14.81,1.2.25-.06,1-.8,1-.79-1.55-1-.44-1.41-.55-.86-.51-.55-1.18.31-.77,1.1.92,1.17.07-.31-.8.28-.48.38-.26.31,0,.27-.14-.48-.55-.41-.26-.55-.3-1-.55L612.61,540l-1.1-.85-.79-.84-1.24.51-.45-.33-.62-.62-.82-.55-1.48-.63-1.76.33-.35-.44,1.8-.77v-.4l-.28-.81-1.1-1.33-1.07-.58-1.27,1-.07,1,.14,1,0,2.13,0,.62-.31.78-.49-2.72-1.17-2.28L601,533l2.38-1.4,1,.22,2.34,2.54,4.1-.41,2.2.26,1.24.37,1.86.29,1.58-.29.9,0h1.07l1,.15.72.37.45.7.62.25.9,1.69.93.55,1.61.52,1-.52,1.2.78.49.58-.14,1.36,1.24.44ZM536,522l.73.44.58,1,.31,1.14-.1.77-.55-.66L535.49,522l-2.86-1.95-.1-.29.24-.44,2.44-3.53,1.14-2.83.14-1-.14-.22-.86-.92-.66-.44-.41-.18-2.93-.3-.86-.4-.34-1.07.89-1.28.18-.55.1-.67.27-.55.8-1,.89-.73,1.07-.37,2.34-.19,0,.23-.06.07h-.14l-.17.07,0,2.61-.24,1.1-.38,1.07,1.52,1.8,0,2.31L535.66,520l-.1,1.43ZM158.53,515l1.07.37.76.88.41,1.18v1.25l-.51,1.06-.69.26-.59-.48-.24-1-.31-.77-.79-.51-5.85-3-1.14-.92-.59-.29-.75-.15-.62-.22-.28-.48-.31-.7L145,508.69l-2.86-.84-1.34-.63-.52-.51L139.08,505l-.59-.51-1.06-.77-.48-.56.75-.11.69-.18.59.07,1.86,2.25.75.66,4.45,1.06,4.2,1.62,1.1.15.48.22.34.47.52,1,4.82,4.26ZM147,503.51l-1.06-.62-1.42-1.1-.68-1.18,1.06-.81h.69l.42.22.27.33.41.19h.59l1.62-.37,3.37,0,4.51.55.55.41,0,1.36.17.77.79,1.43.35.81,0,.7-.48.44-1,.18-2.62-.07-1-.22-2.41-1.25-.83-1-1.1-.33Zm234.89-152.1,1.14,1.36.28,1.43-.49,4.78-1.1,2.65-.34,1.43-.52-.26-.21-.15,0,.37-.07.74,0,.36-.51-.11-.42.11-.37.3-.38.48-.24-.7-.14-1.8-.31-.85-.41-.44-.62-.29-1.42-.37-1.65-.18-.76-.37-.69-.92-.1-.4-.24-1.11-.27-.47-1.9-1.73-.62-.77-1-1.76-.79-1-.21-.44v-.45l.31-1.39-.2-2.57.2-.77.52-.63,1.27-.26.66-.62.1.26.14.11.21.11.24.29.14-.22.17-.07.17,0,.21,0,.58.55,1.1,1.4.69.62.76.37,2,.37,1.31.55,1.27.77ZM778.5,407.15l.28,1.21,1.24,2.09.2,1.36-.34,1.25-.69,1.25-.86,1.07-.9.84.52-2.46.1-1.36-.44-.59-.42.52-1.48,3.49-1.24-1.51-1.86.48-1.85,1.36-1.24,1.17-1.24,1.77-.62.58-1.07.19-.55-.11-.93-.52-.59-.11h-2.27l-2.13-.47-2.24-.81-3.86-2-2.13-1.88-.49-.29-.82-.26-.9-.59-1.55-1.39-.44-.63-.62-1.17-6.1-7.09-.72-1.44h.93l.38.11.41.26.9-1.84.48-2.49.17-2.65-.17-2.28-1-2.5-1.65-1.35-5-1.58-1.82-1.07-1.11-1-1.13-.44-.52-.33-.45-.51-.17-.37-.21-1.14-.75-2.21-.86-1-.14-.3-.38-.48-2.38-1.13L724.34,375l-1.27-.92-.69-.58-.59-.7-.2-.7-.45-.77-1.89-1.47-.42-1.07,0-.62-.24-1,0-.55.31-.52.21-.51.1-.62-.24-1.18-.55-.88-1.2-1.29-.42-.66-.2-.44-.07-.37.14-.47.86-2.25.62-4.59.37-1.1.11-1-.73-.92v-.33l.14-.15.07-.07,0,0,.1-.15.89.89.42.18.38-.33.13-.88-.27-.81-.38-.77-.21-.66-.58-1.25-2.17-2.28.07-1.1,1.65-.26,2.1,1.25,1.83,1.84,1,1.61.86-.18.93.51.83.89.48,1,.31-.52.38-.22.48.08.52-.45.58.26.72.11h3.38l.51.22-.34.52V349l.52.34.27-.3.21-.48.41-.29h.76l.21.22v.4l0,.52-.31.51-.07.37.21.18,1,.33.17,0,.27.66.25,1.25,1.3,1.58,1.07,2.5.79,1.18.24.22.38.14.21.22.38.66.17.23.1.51-.27,1.91.41.88.45,1.95.48.88.76-.26.82.3.83.44.9.26,2.48,2.9.13.22.21.26.41.29.21,0,.58-.08.25,0,.31.29.55,1,.72.88.41.73.55,2.79.18.63L754.3,380l2.55,2.79.27.15.65-.15.45-.36.45-.59.59.4.37.85.52.88,1.1.48,1.24-.15.28-.62.1-.81.79-.66v.4l-.14.22-.06.22.13.22.42.41-.21.62,1.24,1.29.52,1.21.37.33.52.18.48,0,.52.29.45.63.62,1.28.55.85.62.7.76.51,1,.15,1,.48.79,1.14,1.07,2.49,1.1,1.58,1.24,1.44,1,1.58.48,2.05,0,.59-.28,1,0,.59.14.62.48,1.21Zm-394-68.08,1.3.81,1,1.5.07,1.51-1.34.95-1.52-.47-.72-1.51.07-1.73Zm-24.83-4.81.9.11.41.51.27.66.45.55-.45.92-.48.48-1.44.84-1-1.5-.13,0-.49.07-.1,0-.07-.26,0-.22v-.22l-.14-.22v-.55l.62-.59.89-.4Zm-20-.92.1,1.28.34,1.25.56,1.07.72.66v.33l-.72.81-.14,1.06,0,1-.2.81L340,342l-.27-.11-.28-.18-.38,0-.55.22-1.17.88-1.76-.07-1.41-1.07-2.06-2.53-1.86-1.47-.55-.77-.24-.85,0-.92.28-1.91.41-1.25.45-.44,1.89-.55.76-.55.76-.7.89-.55,1.07,0,1.72,2,.72.58,1.17.59.14.3Zm378.15-3.16-.06,1.65-1.31,5-.11,3.49-.48,1.47-1.13.62.31-1.14-.76.26-.35.66-.31.77-.62.55-.89-3.74-2-5.33-.2-1.47-.38-1.29v-.77l.55-.33.34-.4.14-.92v-2.9l-.28-1.14-.72-.22-1.38,1.21.28-1.84,1.17-2,1.58-1.72,1.42-1.11,1.65.33,1.1,1.44.59,1.83.13,1.55-.31,1.65v.81l.31.84.49.52.51.29.45.48Zm-282-17.67.38-.3,2-.81.55.89-.13.8-1.07,1.62-.66-.33-.68-.48-.45-.62Zm-146.82-3.16.11-.81.37-.74.62-.44h.93l.73,1.18.27.62,0,.77-.35-.14-.31-.26-.07.22v.11l-.06,0-.25,0,.21.92-.76,0-1-.55Zm166.79-9.74.72.33.79.55.66.7.24.81,0,.88-.1.48-.21.26-.41.11-.21-.26-.1-.41-.14-.33-.38-.58-.2-.63-.31-.55-.62-.29-.76.18-.28.51.25.59.79.22-.35.44-.38.26-1,.4-1.21-1,.55-1.18,1.41-1ZM278.7,293.73l.69.66,1.89,2.1.24.81.14,1.32,0,1.87-.25.44-.17.59-.1,1.21-.28.59-.55.48-1.86,1.25-1.34.55-1.31.33-.72-.33L273.43,304l-.27-.4-.38-.81-.18-.85,0-.95.21-1.07.75-2.24.55-.92,2.48-2.79,1-.51Zm323-10.14-.17.81-2.48,6-.2,1.87.41,1.8,1.48,3.35.55,2.09.1,2.28-.93,3.49-.34,2.28-3.24,5.4-.51.33-.21.25-.79,1.8-.38.3-.9.59-1,1.25-.69.4-2.2.33-1.55.55h-1.07l-2.55-.62-.72-.08-1.07-.33-.58-.07-.55.48-.69-.26-1.07-.59-.93.66-.27,1.14.13,6.36.31,1.36.52.81,2.55,2.2.31.37.1.55.24.4.55.22,1,.33,2.06,2.76.24.95,1,2,.14,1.29-1.51,2.94-.28.15-.27.33-.25.44-.1.37-.17.4-.45.11h-.58l-.56.07-2.34,1.33-.38.33-2.1,2.38-.41.12-1.62.25-1.58.66-.65.08-.8.4-.82.85-1,.8-1.3.15-1.11-.59-1.44-1.94-.9-.78-1-.29-1.24-.11-1.24.15-.86.44L562,349.5l-.55.26-.62-.18-.14-.41,0-.55-.21-.51-.93-.52-3.37,0-1.76-.25-.72.25-.65.74-.31,1.14.27.92.48.77.25.66.24.18,1.2.08.45.14,1.38,1.44.13.95-.86.92-1.34.48-1.2-.3-.76.48-.93.74-.76.8-.34.7-.07,1.11-.24,1-.38.89-.48.69-1.55,1.58-.69.44-1.55.67-.76.18-.45-.07-.69.91-1.89,1.47-.86.92-.28.55-.06.41-.18.4-1.27,1.14-.38,0L539,370l-2.82,1.1-1.41.74-.62.91-.69,1.44-1.58.14-2.9-.62-3.61.88-.55.37-.45.51-1-.55-1.65-1.58h-.31l-.21.59-.34.62-.17.63.44,1.25-.2.66-.35.66-.44,1.32-.59.37-.89.18-1.76.74-1.83.33-.41.22-.55.48-.27,0-.18-.37-.34-.44-.76,0-1,.58-1,.81-.55.7-.13-.11h-.07l-.07,0-.07-.25-1.79,1.91-1.1.73-1.07.33-.45.3L504,386.9l-.55.48-2.2.66-1.31.15-.83-.26-.58-.26-.52.22-.48.41-.48.18-.17-.11-.07-.26-.14-.25-.31-.11-.14.07-.41.22-2,.48-1.34.11-.9-.33-.48-.85-.31-.29-1.07-.22-.31-.26-.38-.14-.75.07-.83.62-1.07,1-1.1.69-.93-.25-.14-.22,0-.3v-.59l-.1-.29-.24-.15-.31-.11-.73-.51-.34.29-.38,1-.1.07-.59.29.62.56-.07.55-.51.4-.76.3.17-.78-.21-.84-.48-.63-.65-.29-.69.15-.86.36-.93.59-.79.74-.62-.7-.52-.18-.45.11-.48,0-1.38-.07-.31.07-1.31-.22-4.78-.15-.35.19-.93.73-.58.19-1.21-.26-.79,0-.79.3-.31-.48-1.93-1.51-.51-.62-.31-.59-.73-1.21-.72-1.62-2.89-4.11-1.21-.92-4.82-1.43-1-.67-.59-.33-.86-.14-.82.18-1.24,1.07-.52.22-.45.11-1.2.51-.79.11-1.59-.07-.58-.19-.42-.47h-.31l.11.77-.24,1-.45.95-.48.59-.69.26-2,.07-.35.26-.79.36h-.62v-1l.45-.26.62.11.34-.11-.38-.84.35-.74-.35-1-.86-.88-1.17-.33.52-.88.58-.73.28-.78-.38-.95L432,374l-.45.11-.51-.22-.73.19-3.82-1.66-2.1-.62-1.31.4-.38-.33-.34-.36.28-.52.31-.4.37-.33.45-.26-.31-.52-.31-.07-.34,0-.45-.19-.17-.36,0-.33-.1-.3-.52-.11-1.65-.14-.58.18-.69.7-.35-.37.35-.81,0-.7-.2-.62-.11-.63-.38-.58-.82,0-.83.07-.38-.22-.31-.62-.72-.08-1.41.15-.83-.44-1.17-1.29-.76-.47-1.17,1.1-.72.51-.65.22-.93-.25-1.55-1.4-.8-.55-1.06-.22-2.34-.18-.9-.52-.48-.22-.66-.07-.55-.19-.24-.62-1.75-2L396,355.6l-.25-2,.9-6.1.86-1.91L398.9,344l1.79-.92.24-.07.07,0v-.07l.07-.19.79.33.62.3,1.17,1,.38.25.89.19.45.33.24.4.28,1,.2.44,1.35.85,1.48-.3,1.44-1.06,1.21-1.32.65-.48.69,0,1.55.62,1.76-.18.65.18.48.37.49.55.62.51.82.41,2.07.33.72.4.1-.7.31-.33,1-.44.79-.7.31-.07h.79l.69-.22,2.62-1.62,3.89,1.8.58.63.9.07,3.75,1.84.69.48h.41l.31.07.31.15.31.33.62,1-.07,0,.45.63.24.26,6.34-.74,1.24-.55.75.66.66-.26.62-.62.76-.52.31.56.55.51.55,0,.31-.7,1.37.95.35.11.48-.47.45-1.44.58-.29.93-.22,3.38-1.62.14.3.17.14.2.11.21.19.28-.44.41-.26h.52l.51.33.45-.51.21-.56-.07-.58-.24-.59.24,0,0,.08v.18l.07.18.45.08.27.8.07,1-.48,1.62.55.51.76.34.45.07.69-.3.48-.36.55-.33.86-.15.41-.22.45-.48.31-.73v-.77H470l1.73,1.06,2,0,1.93-.66,1.61-1.18.56-.7,1.3-2.28.25-.91-.18-.67-.41-.22-.59-.14-.55-.26-.44-.51-.8-1.44-.48-.62.35-.55.41-1.14.27-.55.28-.33.62-.59.34-.37.73-.62,1-.55.93-.78.58-1.21,0-.59-.07-.55-.31-1-.11,0-.58-.37v-.4l.24-.59.21-.92.48-1,.1-.59-.1-.33-.48-.44-.14-.3.07-.36.13-.19.11-.11.86-2.46,1.72-1.21,2.17-.22,2.2.66,1.14.59.55.4.38.48.24.77-.14.48-.27.33-.14.44-.45.92-1.07.55-2.27.59-.93.7-1.1,1.21-.69,1.17.86,1.11.21,1.28.07,1.4-.14.84-.34.33-1,.19-.42.22-.62.55-.1.26.9.84.24.52.17,1.17,1.27,2.21,1.45,3.16.17.69.07,1,.21,1.17.41,1.14.65.95.93.67,1.07.33,3.48.25,1,.33.93.15.86-.26.38-.55.41-.88.52-.81.58-.33.72-.29,1.52-1.29.52-.29.62-.85.27-.22.31-.14,2.55-.48h1l.93.18,3,1.25,1,.7.48.84.2,1,.59,1.14.83.74,1-.3.79-.47,1.72-.15.8-.3,1.37-1.21.62-.77.42-1-.31-.7.17-.51.38-.19.41.33,1.48-.84,1.41.51,1.14,1.14.79,1,1.52-.18.55-.19.37-.33.83-1.14,1-.29,1-.7.89-.84.66-.77.48-1.11.1-1.14-.2-2.38.1-1.14.55-2.43,1.31-3.12,1.2-2,1.31-1.66,1.34-1.28.35-.22.76-.3.31-.18.93-1.32.75-.56,1.41-2.2.69-.73.14,0,.41.07.14,0,0-.15-.07-.48,0-.11.45-.22,1.34-.4.45-.33.45-.41.58-.4.73-.33.65-.11.65-.3.25-.7.31-1.61h.34l.58.59,3.21.91,1.1.48,1,.11,1-.37,1.13-1,2,1.14,1.9,1.5,1-.26.79-.62.62-.85,1-1.8.31-.95.24-1.1.07-1.25,0-.15.1-.11.14-.18,0-.33-.1-.3-.24-.18-.24-.11-.11-.15-.13-.59-.66-1.17-.24-.63-.07-2.13.24-4.33-.48-2.06-1-1.51-.48-1-.25-1.28,0-2.36-.21-1-.48-1.22-.69-.88-1.55-1.32-.55-.77-.17-.52-.1-.47,0-1.07-.17-.62-.9-.89-.34-.51-.07-.55.14-.48.17-.37.1-.25-.06-.55-.59-1.47-.31-1.25.1-.89.55-.8,1-1.14.76.29,2.79.55,2-.07.69.15.9.4.51.18.62-.11.66-.18.44.11v.92l.86-.59,1-.07,2.1.25.62.19,1.83.88.48.44.31,1,.21,1.36.44,1.17,1,.52,1.1.18,2.1.7,1.07-.15.62-.51,1.62-2.28.27-1.06-.62-.92-.83-.81-.37-.74.44-1,.86.11,1,.55.89.36.45,0,.52-.11.44-.19.18-.18.27-.15,1.28.3.51,0,.66-.8.24-1.18.38-1,1.17-.33.75.92.93.77.73.88.65,2.43-.14.4-.72.19-.27,0L591,278l-.34-.18-.14-.4-.14-.66-.24-.48-.55,0-.28.52,0,.77.24,1.32v2l.41.63,1,.33.28-.15.31-.22.48-.18.65.14.38.34.34.51.45.44.69.22,3.1.37h.89l2.11-.7h.72Zm-369.13-16,.86.44.48.62.14.85-.14,1-.28.84-.48.45-.76.18-1.06,0-.83-.33-.45-.81-.24-1,0-1,.17-.66.38-.15.38.15.14.11.86-.73.37-.19Zm408-30.94,1.55-1.25.55-.18.9,1.21.41.81,0,.88-.37-.22-.11,0,0,.11-.14.07-.65-.55-1.48-.55Zm5.54-5.51h1.31l.76.55.28.88-.25,1.14-.62-.95-1-.07-1.11.25-1.1.08.24-.63.45-.51Zm67.42-5.73,1.21,2.57,2.54,4.48,1.07,2.61-.31,1-1.38-3.12-1.06-2.87-1.86-2.86-1.66-3-3-1.84,2.17.26,1.59.85Zm-100.16-7.9.24.3.59.11.2.33,0,.51-.11.48-.27.81-.69,1.76.14,1.07-.48.51-.52-.26L611,221.76l-.34-.44-2.59-3-.44-.7-.42-1.07.21-1.21,1-1,1.14-.92,1.89-.22,1.93.59-.1,2.94ZM529.94,209l.59.11.45-.07.38.11.3.55-.86.26-.86.47-.31-.8-.51-.19-1.28.26h-2.2l-2.48-.59-1.1,0-.69.92-.79-.3-.45.15-.41.33-.62.18-.35-.25.45-.59,1.14-1,.75.18,1.21-.84,2.13-1.88,3,1.1,1.14.7.93.88Zm54.3-2.2.31.66.07,1.51-.83.84-.58,1.21-1.28,0-1-1.54-.65-1.22.07-1.87-.18-.7-.58-.18-.55-.3-.45-.69h.34l-.06-.74.41-.73.55-.26.48.62.66,1.22.89,1.06,1.07.7Zm-2.93-5.92-.37.74-.93.59-1.11.36-1.89.74-.58-.41v-1.65l-.18-1.32-.2-1.91.2-2.57,1.17,0,2.14.81.38.22,1,.92.24.15-.07.47.14,1-.1,1.07-.83.37.07.14.28.63.48-.3Zm-1.54-7.71-1.14-.63,0-1.32.76-1.25,1.21-.48.79.44.65.89.42.84,0,.41-.17.18-.14.37L582,193l-.48.19Zm58.08,86.33-.48,3,0,1.36.52,1.4-1.27,1.5-2.93,2.57-.65,1.8.17,1.07.48.62.59.55.48.7.2.77.07.85-.07.84-.2.85-.35.48-1.24.81-.44.55.07,1.36-.07.47-.28.52-.72.59-.38.4-.35.7-.58,1.76-.41.85-.49.51-.48.37-.45.48-.31.84-1.13-.37-.45.77-.27,1.22-.59.95-.41-1.61-.8-1.58-1.23-1.36-1.73-1,.18-1.32-1.38-1.36-1.79-1.32-1.14-1.18-.24-.84-.07-3-.24-.37-1.07-.55-.41-.37-.14-.36-.38-2.68-.51-1.77,0-.7.93-2.57.11-.37.62-5.76-.59-1.29.28-.66V278l-.25-.66-.41-.55.45-1,0-1-.34-.95-1.31-1.8-2.48-5.29-.31-1.54-.38-.92-.82-1.55-1.07-1.1-.41-.7-.21-.91-.17-.26-.73-.55-.17-.3-.07-.62-.13-.59-.21-.48-.28-.33-.41-.18-.89-.07-.45-.15-.31-.44-.52-1.14-.89-.66-4.27-5.66-.18-.51.21-1.25,0-.44-.49-.41-.75-.55-1.24-1.32-.55-.74-.55-1.47-.76-.36-.9-.19-.79-.33-.17-.26-.38-.91-.17-.33-.45-.34-1-.47-1.35-1.07-.93-.18-1,0-7.44-1.54-1.92-.77-6.86-4.48-9.91-10.47-.79-.55-3.14-.78-3-1.28-.44-.33-.11-.3-.24-.25-.24-.37-.17-1.07-.24-.4-.76-.73-3.31-2-1-.81-.34-.18-2.28-1L544,209.05l-.52-.44-.89-.26-.9-.18-.72-.37-.28-.81-1.2-1.28h-1l-.41-.08,0-.18.06-.26-.13-.22-.73-.48-.68-.62-.07-.15-.14-.44-.1-.15-.66-.4-.21-.18-.41-.26-.55-.15-1.72-.26-.41-.25-.56-.74-.61-.59-.31-.25-.45-.26-.52-.15-1.24-.14-1.41-.78-1-.07-3.93.77h-2.1l-1.79-.55-1.07-1.28.07-.67.35-.8.65-.37.83.55.93.44,1.06-.44,2-1.29,1.06.85.8-.81.07-1.21-1.28-.33.79-.81-.13-.55-.56-.37-.58-.11-1-.07-.69-.19-1.62-.8,1-2.21-.1-.15-.07-.47.1-.37L522,188l.41.52.38.59.45.55,1.62,1,.27.07.28.66.58.44,1.17.59,1.28,1.69.51.52.38.11,2.14.36.45.26.34.26.28.11.2.22.45,1.18.28.44.55.22.62.07.58.18.62.3,3.1,1.39,1,1.18.38,2,.9,1.32,2,.44,3.75-.14.59.14.31.33.2.41.28.44.52.26.48-.11.48-.22.38-.11,1.13.22,1,.47.86.63.86.84,1.55,2,.31.11H557l.48.08,2.9,2.28.58-.08,3.89,2.61.93,1.1.52,1,.82,1.17,1.11.74,1.34-.3.27,1.36.62.92.8.52.68.14,1.86-.07.59.07,1,.63.62.11.76-.37.52.33.82.81.93.73h1.76l.48.15.69.55.27,0h.55l.42.07.07.11-.07.26.1.29.07.22-.1.63,0,.26.14.07.41.18.1.08.35.44,1.86,1.94,2.44,3.86,1.35,1.58,1.55,1.36L593.4,237l3.55,1.76.79.89,1,.55.21.29.31,2,.21.22.44.11.28.22.17.3.28.58.58.78.45,1.24.38.63,1,.66,1,0,.86-.55.55-.81.66.78.65,1,.52,1.07.24,1,.2.52.93,1.06.21.63-.07.66-.21.51-.13.55.24.63.45.48.44.51,0,.18.55.19.52.11,1.17.07,1.27.26.9.66.79.81,1,.84,1,.52.93.36,1,.22,1.1,0,1-.44.73-.77.58-.18.62,1.39.1.55.11,1.1.1.52.28.55.62,1,.13.51.42.84,1,.41,1.17.07.93,0,0-.08.68-.66.52.7.07.73-.07.74.1.81.56.77,1.61,1.39.62.74,1.35,3,.82,1.22.48.92-.06.44.93.4,1.2,1,1,1.29ZM503.43,186.16l.28.81-.28.73-.45.77-.24.85,0,.88.1.74.21.58.34.56-.34.58-.35.26-1.06.26-1.9.73-.51.11-.52.19h-.38l-.14-.52-.34-.59-.76.15-.79.52-.52.51-.27-.22-.52-.29-.24-.26-.79.26-3.79.18-.41.11h-.35l-.48-.15-.45-.37-1.62-1.87-1.1-.62-.45-.41-.82-2.64-2.1-2.68-.76-.63-1.14.44-1.51-.77-1.1-1.14,0-.77.35-.22.31.22.34.29.35.11.48-.22,3.65-2.68.79-.15h.69l.58-.07.52-.37,2-.77,0-.15.68-.11,1-.51.73-.11,1.13.48,2.76,1.76h1.1l.45.26,1.3.62.49.15.17.11.48.51.24.15,1.34.37,1.42.55,1.17.92.58,1.28-.38,1.66.52-.22Zm-132.7-15.83,1.11,1.47.75.73.86.4L372.32,175l-.93.88-1.17.37h-2.07l-.76-.11-.48-.22-1-.81.1-.37.11-.14.13-.19,1.31.41,1.21-.48.65-1.1-.38-1.4.45-.29.38-.41.24-.4,0-.4ZM350.9,156.7l.48.36.14.77-.1,1.66-.59,1.36-1.44.33-1.83-.11-1.65.11.24-.3.48-.84h-1l-.52.29-.27.59-.28,1h-.34l-.38-.85-.48.92-.38,1.4,0,.77-.58.44-1.59,2.2-.79.66-.52.15-.44,0-.45-.08-.62-.11-1.83-.95-.44-.15-1.1.26-2,1.06-1.24.15v-.26l.07-.18.28-.29-1.62.55-1.55.36-1.72.08-5.75-1-.24-.15-.38-.48-.28-.11-.31,0-.44.25-.25.08-.31-.19-.27-.36-.35-.41-.48-.14-.27-.15-.42-.74-.2-.25-.35-.26-.24-.07h-.93l-1.24-.41-.27,0-.28.48,0,.47.24.37.48.15.72.33.45.77-.1.74-.73.36-1.89.33-.9-.18-.48-.88-1,.4-.9.26-.65.4-.59,1.88-.75.18-.9-.4-.79-.88-.31-.78-.59-2.13,0-.58.79-1,.45-.3.86.37.52,0,1.61-.44.38-.07.24-.22.18-.7-.11-.55-.34-.7-1.17-1.62-.28-.51-.14-.55L308,158l.06-.7.21-.15.79.3.17.22.25.36.34.26.59-.11.17-.4.38-1.51.34-.33.14,0,.1-.14.14-.11.27-.08.31.15.45.51.31.11.52-.07.83-.29.55,0,.62.15,1.2.51.76.08.65-.15,1.93-1.29,1.34-.44,1.21-.07,1.13.26,1.14.58,1.28-.44,8.53.44.49.3.58.62.52.74.31.58h.34l.21-.84.62-.48.62,0,.31.44.27.58.73.11,1.41-.14,2.06.95.38,0,.31.22,2.07.69.82-.18H348l1.31.29.72.63h.35v-1.47l-.17-.48-.45-.81-.1-.36-.42-.52-.69-.48-.27-.4.72-.26.52.33.82.92Zm115.83-27.38.2.37.62,1.66.55,1,1.07,1.58.45,1.11-.83,0-1.17.66-.72,0-.45-.18-.17-.26-.07-.29-.34-.37L465,134l-.38-.26-.48-.18-.07,1.54-.83-.29-1.75-1.58-.48-.18-.49-.37-1-1.14-.24-.48-.17-.26-.28-.14-.65.07-.28-.11-.65-.84-.31-1-.07-2.09,1.65-3.57.42-.66.31.3.44.11h1.17l.45.18,1.1,1.29,3.07,1.8.72.73.1.66-.06.59,0,.59ZM690.91,290l1.41.67,1.1,1.17.59,1.51v1.5l-1.07,1.4-1.38-.44-1-1.4V293l.3.55.42,1.21.31.45.55.4.34-.07.66-.85.27-1.25-.79-1.32L691.46,291l-.89-.62-.07.07-.07.11-.07.08-.14.11,0-.37.17-.18Zm-2.07-1.39-.2-1.14-.45-1.18-.17-1,.51-.4.31.51.21,1,.14,2.21Zm-83.73-16.24.82.92.18,1-.25,1-.44,1.06h-.31l-.31-.14-1.14-.26-.27-.11v-.73l-.14-.56-.31-.44-.59-.33,1.28-.92.41-.51.38-.77.55.55Zm59.29-5.14-.38.33.65,2.35-.69,1.69-1.37.44-1.35-1.58-.13-.07-.21,0h-.21l-.1-.29v-.37l.1-.22.14-.22.31-.81.69-.84.14-.26.41-.59.93-.59h.86Zm2.72-2.24,1,.14.45.7-.07.85-.65.55-.69-.11-.55-.44-.59-.41-.89.19.37-.56,1.11-.51ZM585.41,610.5l.21-.63.55,0-.1.51Zm-11.33-3.13L574,607l.44-.19Zm-.86-4.63.49-.47.13.22-.41.55ZM208.42,238.15l.52.14.41.33.07.41-.31.18-.31-.11-.38,0-.2-.08-.17-.18,0-.44Zm-27.09-15.29.62-1,1.1-.48,1.27,1.43.69.77-1,1-1.72-.48ZM118.8,143.25v-1.14l.76-.81,1-.22.66.55-.31.11-.73.41-.79.55ZM531.6,569.13l.27.22.21.37-.17.58-.66.44-.27-.25-.07-.63-.28-.33-.14-.22-.31-.4-1.41-.81-.69-.7.25-.81.89-.51.93-.11.79.22.52.37.14.51.13.07,0,.3-.21.88-.24.11-.14,0,.07.44.11.18ZM169,507.26l.31.22,0,.55-.49,1.14-.86.4-.69-.58-.13-.78.62-.47.55-.19.34-.25Zm-7.13-5.66.11.48.24.7-.14.48-.55.36-1-.11-1.14-.73-1.83-2.21-2.44-1.17.48-.74,2.48-.22,1.93.44.93.77.58,1Zm-.58-15.21.86.63.52.84-.11.92-1.07.73-1.65-.14-1-1.4-.72-1.5.72-.85,1.34.22.69.29Zm.65-3,.52.7.58,1.32-.37.51-.73-.36-1.37-.48-2.07-.18-1.27-.7-.42-1-.48-1.14.69-.62,1.72.11,2.2,1.06ZM539.83,313l.86.55.89.92v.8l-.83.74-.55.26-1.24.22-.93-.15-.41-.37-.65-.44-.62-.7.1-.58.76-.7.38-.3.82-.44.76,0ZM157.4,231.64h-.86l-1.41-.62-.31-.07-.56-.26-.79-.74.07-.47.28-.37.07-.63.37-.33,1,.15,1.31.73,1.24,1,.35,1ZM480.26,140l.72,0,.24.15-.31.33-.86.25-1.27-.07-.76-.33-.17-.15-.41-.14-.42.14-.14.15-.06.26-.45.11-.48-.44-.28-.7V139l.41-.15,1.17.4.45-.44.21-.91.38-.15.58.66.28.77.41.59Z" style="fill:#efc441"/></svg>