<?xml version="1.0" encoding="UTF-8"?><svg id="Layer_1" xmlns="http://www.w3.org/2000/svg" viewBox="0 0 800 800"><path d="M39.44,712.11c-.3,0-.6-.04-.89-.12l-1.29-.34c-.85-.22-1.58-.76-2.05-1.5l-.64-1c-.62-.97-.73-2.19-.28-3.25l1.6-3.78c.16-.38,.39-.73,.68-1.04l1.61-1.71c.66-.7,1.58-1.1,2.55-1.1h3.86c1.63,0,3.04,1.12,3.41,2.7l.32,1.37c.1,.44,.12,.89,.05,1.33l-.32,2.06c-.11,.7-.43,1.35-.91,1.86l-1.58,1.68c-.29,.31-.64,.57-1.03,.75l-3.56,1.72c-.48,.23-1,.35-1.52,.35Zm266.08-137.5c-.17,0-.33-.01-.5-.04l-4.82-.69c-1.72-.25-3-1.72-3-3.46v-1.37c0-1.7,1.22-3.15,2.88-3.45l3.86-.69c.21-.04,.41-.05,.62-.05,.85,0,1.69,.31,2.33,.89l1.92,1.72c.7,.63,1.12,1.51,1.16,2.45s-.29,1.86-.94,2.54l-.96,1.03c-.67,.72-1.6,1.11-2.56,1.11Zm-119.87-205.06c-.96,0-1.88-.4-2.55-1.1l-.64-.68c-.78-.83-1.11-1.99-.88-3.11,.23-1.12,1-2.05,2.05-2.5l1.61-.69c.45-.19,.91-.28,1.38-.28,1.03,0,2.04,.46,2.72,1.3,.99,1.22,1.04,2.94,.13,4.22l-.97,1.37c-.61,.86-1.57,1.4-2.61,1.47-.08,0-.16,0-.24,0Zm95.56-2.75c-1.27-.08-2.39-.83-2.94-1.97-.42,.18-.88,.27-1.35,.27-.07,0-.14,0-.21,0-1.28-.08-2.42-.85-2.96-2.02l-.64-1.38c-.57-1.24-.38-2.69,.5-3.73,.67-.8,1.66-1.24,2.67-1.24,.31,0,.62,.04,.92,.12l1.28,.35c.76,.21,1.41,.66,1.88,1.27,.14-.02,.28-.03,.42-.03,.3,0,.6,.04,.9,.12l1.28,.34c1.07,.28,1.95,1.06,2.36,2.09s.31,2.2-.28,3.14l-.64,1.03c-.64,1.03-1.77,1.65-2.97,1.65-.07,0-.14,0-.21,0Zm14.71-4.79c-.12,0-.23,0-.35-.02-1.33-.13-2.47-1.01-2.93-2.26l-.64-1.72c-.51-1.37-.12-2.9,.98-3.86,.65-.57,1.47-.86,2.3-.86,.57,0,1.14,.14,1.66,.42l1.28,.69c.85,.46,1.47,1.25,1.72,2.18,.25,.93,.1,1.93-.41,2.75l-.64,1.03c-.64,1.03-1.77,1.65-2.97,1.65Zm-64.27-34.65c-.25,0-.5-.03-.74-.08l-1.61-.35c-.67-.15-1.28-.48-1.76-.97l-1.32-1.35c-.75-.77-1.11-1.84-.97-2.91l.32-2.4c.13-.99,.68-1.87,1.5-2.43l1-.68c.58-.39,1.27-.61,1.97-.61h1.29c.78,0,1.54,.26,2.15,.74l1.28,1c.51,.39,.89,.92,1.12,1.52l.65,1.72c.48,1.27,.18,2.7-.76,3.67l-.17,.18-1.15,1.54c-.67,.9-1.72,1.41-2.81,1.41Zm25.06-9.93c-.12,0-.24,0-.36-.02-1.32-.14-2.45-1.01-2.92-2.25l-.64-1.71c-.51-1.36-.13-2.89,.96-3.85,.65-.58,1.48-.87,2.31-.87,.56,0,1.12,.13,1.63,.4l1.29,.68c.86,.46,1.5,1.25,1.75,2.19,.25,.94,.1,1.95-.42,2.77l-.65,1.03c-.65,1.02-1.77,1.63-2.96,1.63Zm25.7,0c-1.24,0-2.39-.66-3.01-1.73l-1-1.71c-.76-1.3-.6-2.94,.39-4.08,.68-.77,1.64-1.19,2.63-1.19,.46,0,.92,.09,1.36,.28l1.61,.68c.93,.39,1.65,1.17,1.96,2.13,.32,.96,.2,2.01-.31,2.88l-.61,1.03c-.63,1.06-1.77,1.72-3.01,1.72h0Zm-19.52-13.72c-1.28-.08-2.42-.85-2.96-2.01l-.64-1.37c-.58-1.23-.39-2.68,.49-3.73,.62-.75,1.51-1.18,2.45-1.25-.18-1,.08-2.06,.75-2.86,.67-.81,1.67-1.26,2.69-1.26,.3,0,.6,.04,.89,.12l1.29,.34c1.07,.28,1.95,1.06,2.36,2.09,.41,1.03,.31,2.2-.28,3.14l-.64,1.03c-.48,.77-1.22,1.31-2.06,1.53-.05,.55-.22,1.08-.52,1.56l-.64,1.03c-.64,1.03-1.77,1.65-2.97,1.65-.07,0-.14,0-.21,0Zm14.67-1.71c-.96,0-1.89-.4-2.55-1.1l-.64-.68c-.86-.92-1.17-2.23-.79-3.44,.37-1.2,1.37-2.11,2.6-2.38l1.61-.35c.25-.05,.5-.08,.74-.08,1.24,0,2.42,.66,3.05,1.78,.75,1.33,.55,3.01-.5,4.12l-.97,1.03c-.66,.7-1.58,1.1-2.55,1.1h0Zm483.97-43.5c-.48,0-.96-.1-1.42-.3l-2.25-1c-.57-.25-1.05-.65-1.42-1.15l-2.28-3.16c-.59-.82-.8-1.86-.57-2.84l.32-1.37c.29-1.25,1.25-2.24,2.49-2.58l1.29-.35c.3-.08,.61-.12,.92-.12,.76,0,1.51,.25,2.12,.72l2.25,1.72c.41,.31,.75,.71,.98,1.17l1.6,3.09c.66,1.27,.47,2.82-.47,3.9l-.93,1.07c-.68,.78-1.65,1.2-2.64,1.2Zm-188.64-86.11c-.79,0-1.59-.27-2.24-.81l-2.89-2.4c-.63-.52-1.05-1.25-1.21-2.05l-.32-1.72c-.1-.56-.07-1.14,.1-1.68l.64-2.06c.36-1.15,1.28-2.04,2.45-2.35l1.29-.34c.3-.08,.59-.12,.89-.12,1.04,0,2.04,.46,2.71,1.29l2.24,2.74c.17,.21,.32,.44,.44,.69l1,2.06c.69,1.42,.34,3.12-.84,4.16l-1.96,1.72c-.66,.58-1.48,.87-2.31,.87Zm.96-50.8c-1.36,0-2.6-.79-3.17-2.02l-.64-1.37c-.22-.46-.33-.97-.33-1.48v-3.38c0-.4,.07-.79,.2-1.16l-.3,.08c-.29,.08-.59,.12-.89,.12-.9,0-1.78-.35-2.44-.99-.88-.86-1.25-2.11-.97-3.31l.26-1.11c-.43,.18-.89,.27-1.35,.27s-.95-.1-1.4-.29c-.92-.4-1.63-1.18-1.94-2.14l-.32-1c-.46-1.42,.04-2.98,1.24-3.87,.62-.46,1.36-.7,2.1-.7,.69,0,1.37,.2,1.97,.61l1,.68c1.04,.71,1.62,1.92,1.52,3.17,0,.13-.03,.26-.05,.39,.23-.05,.47-.07,.7-.07,.95,0,1.88,.39,2.55,1.1l.97,1.03c.85,.9,1.16,2.18,.82,3.36-.03,.11-.07,.23-.11,.34,.29,0,.57,.04,.85,.12l1.29,.34c.63,.17,1.21,.51,1.65,.98l.32,.34,.36,.39c.05,.05,.09,.11,.14,.16l1.61,2c.64,.8,.9,1.83,.71,2.84l-.32,1.72c-.31,1.66-1.75,2.86-3.44,2.86h-2.58Zm-64.91-25.01c-.89,0-1.77-.34-2.44-.99-1.15-1.12-1.4-2.88-.59-4.27l1-1.72c.57-.98,1.58-1.63,2.72-1.73,.1,0,.21-.01,.31-.01,1.02,0,2,.45,2.67,1.24l.61,.72c.66,.78,.94,1.8,.79,2.81s-.75,1.89-1.61,2.43l-1.61,1c-.57,.35-1.21,.53-1.85,.53Z" style="fill:#efc441;"/><path d="M509.94,91.36l.61,.72-1.61,1,1-1.72m53.95,11.38l1,.68-.68,.32-.32-1m5.14,4.77l.97,1.03-1.29,.34,.32-1.37m4.18,5.83l1.29,.34,.32,.34,.32,.35,1.61,2-.32,1.72h-2.58l-.64-1.37v-3.38m-1.6,49.03l2.24,2.74,1,2.06-1.96,1.72-2.89-2.4-.32-1.72,.64-2.06,1.29-.34m187,86.75l2.25,1.72,1.6,3.09-.93,1.07-2.25-1-2.28-3.16,.32-1.37,1.29-.35m-492.94,45.61l1.29,.34-.64,1.03-.65-1.37m12.86,2.74l-.97,1.03-.64-.68,1.61-.35m-16.07,1.38l1.28,.34-.64,1.03-.64-1.37m18.96,13.37l1.61,.68-.61,1.03-1-1.71m-25.35,0l1.29,.68-.65,1.03-.64-1.71m-24.74,6.86l1.28,1,.65,1.72-.33,.34-1.28,1.72-1.61-.35-1.32-1.35,.32-2.4,1-.68h1.29m63.95,37.71l1.28,.69-.64,1.03-.64-1.72m-19,3.43l1.28,.35-.64,1.03-.64-1.38m4.5,1.72l1.28,.34-.64,1.03-.64-1.37m-94.16,2.74l-.97,1.37-.64-.68,1.61-.69m117.94,203.68l1.92,1.72-.96,1.03-4.82-.69v-1.37l3.86-.69M44.58,701.78l.32,1.37-.32,2.06-1.58,1.68-3.56,1.72-1.29-.34-.64-1,1.6-3.78,1.61-1.71h3.86M509.94,84.36c-.2,0-.41,0-.62,.03-2.27,.2-4.29,1.49-5.44,3.45l-1,1.72c-1.62,2.78-1.13,6.3,1.17,8.54,1.34,1.3,3.1,1.98,4.88,1.98,1.27,0,2.55-.35,3.69-1.05l1.61-1c1.73-1.07,2.91-2.85,3.22-4.86,.32-2.01-.26-4.06-1.57-5.61l-.61-.72c-1.34-1.58-3.29-2.48-5.34-2.48h0Zm53.95,11.38c-1.48,0-2.95,.47-4.19,1.39-2.39,1.79-3.39,4.9-2.48,7.74l.32,1c.61,1.92,2.03,3.48,3.87,4.28,.15,.06,.3,.12,.45,.18,.28,1.34,.96,2.58,1.97,3.56,.69,.67,1.5,1.18,2.38,1.52v1.3c0,1.02,.22,2.04,.66,2.96l.64,1.37c1.15,2.46,3.62,4.04,6.34,4.04h2.58c3.37,0,6.27-2.4,6.88-5.72l.32-1.72c.37-2.01-.15-4.08-1.43-5.67l-1.61-2c-.09-.11-.19-.23-.29-.33l-.32-.35s-.05-.05-.07-.07l-.32-.34c-.76-.81-1.71-1.43-2.75-1.8-.26-1.23-.86-2.4-1.75-3.34l-.97-1.03c-.76-.81-1.69-1.41-2.69-1.77-.5-1.32-1.4-2.48-2.61-3.3l-1-.68c-1.19-.81-2.56-1.21-3.94-1.21h0Zm7.72,59.63c-.59,0-1.19,.08-1.78,.23l-1.29,.34c-2.33,.61-4.18,2.39-4.9,4.69l-.64,2.06c-.34,1.09-.41,2.24-.2,3.36l.32,1.72c.3,1.61,1.15,3.06,2.41,4.1l2.89,2.4c1.3,1.08,2.89,1.61,4.47,1.61s3.3-.58,4.62-1.74l1.96-1.72c2.37-2.08,3.06-5.48,1.68-8.32l-1-2.06c-.24-.49-.53-.95-.88-1.37l-2.24-2.74c-1.35-1.65-3.35-2.57-5.42-2.57h0Zm187,86.75c-.61,0-1.23,.08-1.83,.24l-1.29,.35c-2.48,.67-4.4,2.66-4.98,5.16l-.32,1.37c-.46,1.97-.04,4.05,1.14,5.69l2.28,3.16c.72,1,1.7,1.8,2.83,2.3l2.25,1c.92,.41,1.88,.6,2.84,.6,1.98,0,3.92-.84,5.29-2.41l.93-1.07c1.88-2.17,2.25-5.26,.93-7.81l-1.6-3.09c-.47-.92-1.15-1.72-1.96-2.34l-2.25-1.72c-1.23-.94-2.73-1.44-4.25-1.44h0Zm-492.94,45.61c-2.05,0-4.04,.9-5.39,2.53-.63,.76-1.08,1.63-1.34,2.54-.69,.4-1.32,.93-1.85,1.56-1.74,2.08-2.12,4.99-.97,7.45l.64,1.37c.49,1.06,1.23,1.95,2.13,2.63-.9-.4-1.86-.59-2.82-.59-1.67,0-3.32,.6-4.63,1.75-2.18,1.92-2.95,4.99-1.93,7.71l.64,1.71c.93,2.49,3.19,4.24,5.84,4.51,.24,.02,.48,.04,.72,.04,2.39,0,4.63-1.22,5.92-3.26l.65-1.03c1.04-1.65,1.35-3.66,.84-5.54-.48-1.78-1.63-3.29-3.21-4.22,.56,.19,1.16,.3,1.77,.34,.14,0,.28,.01,.42,.01,2.41,0,4.66-1.24,5.94-3.31l.64-1.03c.19-.3,.35-.62,.49-.94,.25-.17,.49-.35,.72-.55,.26,.44,.57,.85,.92,1.22l.64,.68c1.32,1.41,3.17,2.2,5.1,2.2,1.93,0,3.77-.8,5.1-2.2l.97-1.03c2.1-2.23,2.51-5.58,1-8.25-1.26-2.23-3.61-3.55-6.09-3.55-.49,0-.99,.05-1.49,.16l-1.61,.35c-.81,.18-1.56,.49-2.24,.91-.9-1.77-2.52-3.08-4.45-3.59l-1.29-.34c-.59-.16-1.19-.23-1.78-.23h0Zm12.86,16.74h0Zm2.89,.75c-1.97,0-3.9,.83-5.26,2.38-1.99,2.27-2.3,5.55-.78,8.15l1,1.71c1.25,2.14,3.54,3.46,6.02,3.47,0,0,.01,0,.02,0,2.47,0,4.76-1.3,6.02-3.43l.61-1.03c1.03-1.74,1.26-3.84,.63-5.76-.63-1.92-2.06-3.47-3.92-4.26l-1.61-.68c-.88-.37-1.81-.55-2.72-.55h0Zm-50.09,6.86h-1.29c-1.4,0-2.78,.42-3.94,1.21l-1,.68c-1.65,1.12-2.74,2.89-3,4.86l-.32,2.4c-.28,2.13,.43,4.28,1.93,5.82l1.32,1.35c.96,.98,2.18,1.66,3.52,1.95l1.61,.35c.5,.11,.99,.16,1.49,.16,2.18,0,4.28-1.02,5.62-2.82l1.01-1.35h.01c1.89-1.96,2.48-4.82,1.52-7.36l-.65-1.72c-.45-1.2-1.23-2.25-2.24-3.04l-1.28-1c-1.23-.96-2.75-1.48-4.31-1.48h0Zm63.95,37.71c-1.65,0-3.29,.59-4.6,1.72-2.2,1.91-2.98,4.99-1.96,7.72l.64,1.72c.93,2.5,3.21,4.26,5.86,4.52,.23,.02,.47,.04,.7,.04,2.4,0,4.66-1.24,5.94-3.31l.64-1.03c1.02-1.64,1.32-3.63,.82-5.5-.5-1.87-1.74-3.44-3.44-4.36l-1.28-.69c-1.04-.56-2.19-.84-3.32-.84h0Zm-19,3.43c-2.03,0-4,.88-5.35,2.48-1.76,2.08-2.15,4.99-1,7.46l.64,1.38c1.08,2.33,3.36,3.89,5.92,4.04,.11,0,.23,.01,.34,.01,1.15,.99,2.6,1.6,4.17,1.7,.14,0,.28,.01,.42,.01,2.41,0,4.66-1.24,5.94-3.31l.64-1.03c1.17-1.88,1.38-4.21,.56-6.28-.82-2.06-2.57-3.62-4.71-4.18l-1.28-.34c-.25-.07-.5-.12-.75-.16-.71-.55-1.53-.96-2.42-1.2l-1.28-.35c-.61-.17-1.23-.25-1.85-.25h0Zm-89.66,4.46c-.93,0-1.86,.18-2.76,.57l-1.61,.69c-2.1,.9-3.63,2.77-4.1,5.01-.47,2.24,.19,4.56,1.76,6.23l.64,.68c1.33,1.41,3.17,2.2,5.1,2.2,.16,0,.32,0,.49-.02,2.09-.15,4.01-1.22,5.23-2.94l.97-1.37c1.81-2.56,1.7-6.01-.27-8.45-1.36-1.68-3.38-2.6-5.45-2.6h0Zm0,14h0Zm117.94,189.68c-.41,0-.82,.04-1.23,.11l-3.86,.69c-3.34,.6-5.77,3.5-5.77,6.89v1.37c0,3.48,2.56,6.44,6.01,6.93l4.82,.69c.33,.05,.66,.07,.99,.07,1.93,0,3.79-.8,5.12-2.23l.96-1.03c1.28-1.38,1.96-3.21,1.87-5.09-.08-1.88-.92-3.64-2.32-4.9l-1.92-1.72c-1.29-1.16-2.96-1.79-4.67-1.79h0ZM44.58,694.78h-3.86c-1.93,0-3.77,.8-5.1,2.2l-1.61,1.71c-.57,.6-1.03,1.31-1.35,2.07l-1.6,3.78c-.9,2.13-.69,4.56,.55,6.5l.64,1c.95,1.48,2.41,2.55,4.11,3l1.29,.34c.59,.15,1.19,.23,1.78,.23,1.05,0,2.09-.23,3.05-.7l3.56-1.72c.77-.37,1.47-.88,2.05-1.51l1.58-1.68c.97-1.03,1.6-2.33,1.82-3.72l.32-2.06c.14-.89,.1-1.79-.1-2.67l-.32-1.37c-.74-3.17-3.56-5.41-6.82-5.41h0Z" style="fill:#cae3e8;"/></svg>