<svg xmlns="http://www.w3.org/2000/svg" viewBox="0 0 800 800"><polygon points="82.94 294.58 84.64 290.39 86.76 282.4 88.78 274.85 92.03 263.39 94.82 253.85 98.33 241.62 100.91 232.69 103.65 222.88 106.28 213.46 108.76 204.75 111.19 196.1 111.45 190.59 111.45 190.53 111.35 178.3 111.24 170.25 111.14 162.87 111.04 155.21 111.71 152.95 114.44 148.59 116.1 146.12 117.7 143.69 121.06 138.62 124.41 133.5 127.82 128.43 131.18 123.3 132.42 121.32 133.66 119.33 134.95 117.29 136.19 115.31 137.17 113.16 137.69 112.06 138.15 111.01 139.13 108.81 140.11 106.66 142.23 100.48 144.35 94.37 146.47 88.19 148.58 82.08 149.98 77.94 150.6 76.95 151.78 76.4 158.5 75.36 160.15 75.08 163.72 74.53 167.28 73.98 168.88 73.7 194.45 67.86 219.96 62.07 245.52 56.29 271.04 50.45 282.4 47.91 288.6 47.8 302.8 47.63 317 47.41 331.26 47.2 345.46 47.03 351.56 46.92 353.05 47.36 355.32 49.01 357.5 50.61 361.32 53.09 368.34 57.66 375.36 62.24 382.39 66.81 389.46 71.39 396.49 75.96 403.51 80.53 410.54 85.11 417.61 89.68 420.56 91.61 421.38 92.6 421.64 93.82 421.38 96.57 421.54 99.27 422.83 104.07 423.09 106.66 422.88 108.53 422.98 112.06 422.88 113.82 421.74 118.23 421.8 120.43 421.85 121.76 422.31 122.09 422.93 121.98 423.45 122.14 423.96 122.69 424.69 123.69 424.84 124.57 422.05 125.56 421.49 126.99 422 128.53 423.45 129.58 423.91 129.47 424.27 128.98 424.74 128.48 425.51 128.43 426.03 128.75 426.6 129.42 426.96 130.19 426.24 132.5 426.39 134.65 426.91 136.69 427.53 138.12 428.72 139.56 430.32 140.88 432.02 141.87 433.47 142.2 434.6 142.92 434.4 144.41 433.21 146.83 433 148.54 433.11 150.69 433.42 152.67 434.29 154.71 434.35 155.65 434.24 157.47 434.45 158.62 435.48 160.28 435.79 161.21 435.79 162.1 435.22 163.69 435.22 164.69 435.69 165.62 436.41 166.23 437.08 166.12 437.75 163.2 438.79 162.54 439.98 162.76 441.01 163.53 441.32 164.08 441.73 165.29 442.04 165.84 442.5 166.28 443.69 167.17 444.31 167.83 444.52 168.65 443.95 169.26 443.07 169.7 441.42 170.03 440.8 170.53 439.98 171.52 438.84 172.4 438.27 173.17 438.79 173.67 440.7 173.89 442.25 174.22 443.54 175.1 444.37 176.37 444.57 177.86 443.8 178.74 440.7 180.56 439.98 181.6 440.23 182.6 440.7 182.98 441.27 183.15 441.47 183.37 441.83 183.37 443.59 184.86 445.35 186.78 445.81 186.78 446.17 185.35 447.57 186.62 447.67 188.44 446.95 190.37 444.93 193.67 444.98 194.89 446.17 197.48 446.64 201.22 446.33 205.14 445.24 208.72 443.54 211.36 441.42 213.02 441.01 213.62 440.96 214.72 441.32 215.33 441.78 215.77 442.04 216.27 442.66 217.15 443.85 217.53 444.68 218.36 444.11 220.57 439.05 228.67 437.91 231.53 437.6 233.3 437.7 235.17 438.32 236.66 439.72 237.26 440.44 237.98 439.87 239.69 438.89 241.62 438.37 243.05 438.68 244.48 439.51 245.97 440.44 247.18 441.27 247.68 441.68 248.51 438.37 254.13 438.43 255.78 438.68 257.32 438.63 258.92 437.65 260.74 437.13 262.23 437.81 263.44 438.84 264.82 439.41 266.75 439.05 267.79 437.29 271.27 436.62 271.98 436.41 272.81 434.76 277.77 434.65 278.93 434.71 280.19 434.81 281.08 435.79 281.63 435.84 281.63 436.72 282.4 437.39 283.72 438.32 284.77 440.85 285.7 441.68 285.7 442.97 285.1 443.49 285.04 444.11 285.43 445.19 286.64 445.55 286.92 446.48 286.7 447.67 285.65 448.44 285.65 449.22 285.87 449.84 285.76 450.72 285.26 450.56 285.1 450.56 284.66 450.72 284.16 450.87 283.89 451.13 283.89 451.85 284.16 452.16 284.16 453.66 283.56 454.64 283.61 455.68 283.94 457.23 284 458.05 283.78 458.62 283.44 459.14 283.28 459.86 283.61 461.05 287.03 461.93 288.74 462.91 289.73 464.2 290.06 466 289.78 466.68 289.51 466.99 289.29 467.4 289.18 468.33 289.29 468.9 289.51 470.65 290.72 473.6 290 474.22 290.06 475.82 290.66 476.59 290.72 477.73 291.16 480.21 292.81 480.67 292.81 480.93 292.32 481.55 292.48 482.74 293.14 483.56 293.14 483.98 292.7 484.08 292.15 484.18 291.88 485.37 291.99 488.73 292.87 490.18 292.59 492.09 290.94 493.12 290.66 493.43 291 493.64 292.32 494.2 292.76 494.88 292.81 495.39 292.59 495.81 292.32 496.37 292.15 497.61 292.37 499.88 293.25 500.56 293.64 500.61 293.81 500.66 294.19 501.07 294.52 502.36 294.74 502.83 294.91 503.24 294.96 503.81 294.69 504.74 294.47 507.17 294.63 508.41 294.52 510.27 295.18 511.04 295.24 511.92 294.63 511.81 296.01 512.23 296.34 512.85 296.23 513.57 296.23 514.91 296.95 515.64 297 516.51 294.8 517.39 296.12 518.17 298.21 518.32 299.32 520.08 299.59 521.11 299.21 522.82 297.22 523.33 296.45 523.44 295.9 523.69 295.73 524.73 296.12 525.29 296.06 527.77 295.29 528.34 295.4 528.45 295.79 528.6 295.95 529.38 295.4 529.74 294.85 530.3 293.31 530.72 292.98 531.96 293.69 534.54 296.78 535.73 297.06 536.09 296.4 535.26 294.85 535.78 294.36 536.61 294.08 537.23 293.81 539.76 291.82 540.53 290.88 541.82 288.51 542.03 288.3 542.6 288.02 542.86 287.63 543.27 286.31 543.48 285.76 544.66 284 545.33 283.23 546.11 282.51 547.4 282.12 552.88 281.08 553.91 281.19 554.68 282.07 556.7 287.25 558.45 290.06 560.78 292.32 564.96 294.96 567.23 297.22 568.52 298.05 569.82 298.38 582.83 299.1 583.81 298.76 584.79 298.21 585.77 298.71 586.86 299.65 588.05 300.25 592.75 300.69 594.14 301.63 594.35 301.02 595.17 299.26 598.94 304.66 602.04 307.03 602.76 307.91 603.44 309.95 603.7 317.12 604.21 320.2 605.5 322.96 607.47 325.16 610 326.6 611.49 327.2 612.53 327.81 613.1 328.8 613.3 330.56 613.25 331.22 612.84 332.6 612.78 333.32 612.94 334.09 613.4 335.41 613.46 336.18 612.68 339 611.39 341.48 610.41 344.01 610.62 347.21 612.27 353.76 612.27 355.2 611.86 358.06 612.01 359.5 613.97 361.92 614.8 363.24 615.21 364.9 614.85 367.98 614.9 369.36 615.73 370.46 617.79 371.84 618.11 372.56 619.76 378.89 619.71 380.33 617.95 384.18 617.69 385.56 618.21 387.49 620.53 390.02 621.36 391.68 621.25 394.27 619.19 399.01 619.4 401.98 619.86 404.52 619.91 404.79 619.86 407.88 620.12 410.69 621.57 412.89 624.92 416.64 626.52 421.93 627.66 438.41 628.38 440.62 630.09 442.49 632.41 443.59 637.16 443.98 639.54 444.53 639.59 444.53 642.27 445.57 644.96 446.13 647.65 445.9 650.23 444.53 652.19 443.48 656.94 443.54 659.27 442.82 660.56 442.21 663.09 442.1 664.38 441.88 665.67 441.06 667.32 438.8 668.3 437.69 673.16 434.83 683.02 431.3 684.32 430.58 686.17 428.44 687.36 427.83 689.38 428.38 702.13 435.93 703.68 437.14 707.87 443.2 714.94 447.61 717.06 448.77 717.06 448.83 715.51 450.09 712.88 452.13 711.07 454.56 710.35 457.2 710.55 458.58 711.53 461.28 711.89 464.48 712.46 465.52 714.27 467.95 714.89 469.93 715.87 472.58 715.82 475.06 715.1 477.7 714.17 479.58 711.22 484.1 710.35 486.91 710.35 489.5 711.38 495.34 711.33 498.15 708.54 506.97 707.56 509.94 705.44 513.25 704.87 514.63 701.36 530.17 700.69 533.14 700.53 534.74 700.64 536.17 701.26 537.83 703.17 541.13 703.37 542.73 702.7 544.27 700.17 546.7 699.24 548.24 697.59 553.81 695.73 556.89 694.28 558.82 692.17 560.86 690.46 564.06 689.58 567.03 689.43 568.03 689.38 569.9 689.69 571.77 690.41 573.32 690.98 574.97 690.77 577.01 690.31 579.1 690.31 579.27 690.15 580.76 691.34 583.57 691.55 585.27 690.41 586.05 687.78 585.88 687.05 586.71 687.05 588.97 688.45 593.49 688.65 595.2 689.02 596.35 690.72 598.5 691.24 599.55 691.08 601.48 690.36 602.97 689.53 604.34 689.17 605.78 689.74 609.63 689.84 611.23 689.17 612.55 688.5 612.77 686.69 612.88 686.07 613.16 685.61 614.1 685.66 614.98 685.92 615.86 686.28 618.51 687.11 621.26 687.05 623.19 685.5 628.7 685.81 630.02 687.16 631.68 687.41 632.83 686.95 633.77 686.07 635.04 685.45 636.2 685.4 636.42 685.3 636.86 685.5 638.51 685.5 642.42 684.37 645.12 684.26 645.62 684.01 646.06 683.28 651.35 682.92 652.73 682.3 653.94 679.98 656.64 677.86 658.46 676.72 659.84 676 661.43 676.05 662.65 676.47 663.86 676.72 665.46 676.62 667.44 676.36 669.54 675.74 671.47 674.71 672.9 673.93 673.28 673.52 673.06 673.16 672.62 672.59 672.29 669.24 672.29 667.43 672.79 666.19 674 665.36 675.71 664.38 679.68 663.81 681.22 663.09 682.49 662 683.81 660.76 684.42 657.05 684.75 655.55 685.35 650.64 690.37 650.13 691.86 651.16 695.27 650.9 697.15 649.71 698.19 647.96 698.52 644.96 698.36 643.77 697.97 642.38 697.2 640.78 696.54 638.97 696.48 635.3 698.58 631.74 699.07 630.24 699.51 628.9 700.45 627.61 701.88 626.73 703.54 626.26 705.3 626.06 709.33 625.28 710.7 623.42 710.87 621.36 710.65 619.86 710.81 618.98 712.19 618.67 713.95 618.21 715.5 616.97 716.16 615.01 716.71 614.95 718.03 616.76 721.56 617.07 722.61 617.23 723.49 617.07 724.42 616.04 726.19 616.14 726.74 616.3 727.46 616.25 728.67 615.52 730.65 614.28 732.14 612.68 733.08 610.82 733.41 608.71 735.06 606.02 738.37 603.18 740.68 598.63 738.09 596.62 737.49 595.69 736.99 595.02 736.11 593.88 732.86 592.75 731.2 591.25 730.6 589.49 730.65 587.63 730.93 587.22 730.93 585.83 730.98 584.17 730.65 579.11 728.61 579.06 728.61 577.2 728.23 575.29 728.12 573.38 729.22 571.93 730.32 569.2 733.57 567.49 734.34 565.32 735 563.57 735.94 563.15 737.87 563.46 740.24 563.15 742.17 562.27 743.88 560.83 745.59 559.33 747.79 558.3 750.44 556.96 752.53 554.53 753.08 554.48 753.08 552.15 752.09 549.88 750.22 547.92 747.9 546.47 745.53 543.48 741.62 543.42 741.62 538.41 740.9 536.55 741.45 533.15 742.5 529.27 745.59 526.48 746.14 523.75 744.37 519.1 739.58 516.46 738.48 513.67 738.81 510.94 739.91 503.5 744.15 501.02 744.7 498.08 744.59 497.41 744.48 495.65 744.43 495.6 744.43 494.82 744.15 494.1 743.71 492.09 741.95 491.36 741.56 491.31 741.56 487.9 740.57 487.18 740.41 486.35 739.97 485.84 739.41 484.6 738.15 483.93 737.71 482.32 737.26 482.01 737.15 480.05 737.15 472.46 738.31 470.5 738.09 469.98 737.93 468.79 737.49 456.61 731.09 456.55 731.09 455.73 730.76 447.98 729.11 444.73 727.95 441.37 727.24 440.34 727.01 438.01 725.97 437.96 725.97 433.52 725.03 432.12 724.7 429.75 724.64 425.2 725.47 424.07 725.58 415.8 724.48 395.25 726.3 388.48 729.33 388.17 729.61 388.23 729.55 388.53 725.25 388.38 723.49 387.45 721.83 385.59 720.4 384.56 719.35 384.09 718.25 384.51 715.72 385.59 713.95 387.3 712.91 391.12 712.25 391.48 711.31 391.38 709.99 391.38 708.44 391.53 707.67 391.79 707.01 392.15 706.35 392.62 705.74 393.34 705.36 393.34 705.3 393.75 705.69 393.96 706.35 393.96 706.68 394.01 706.9 394.52 707.23 394.58 707.23 395.2 707.4 395.51 706.96 395.56 705.52 395.71 704.92 395.97 704.25 396.64 703.04 397.99 701.33 398.55 700.12 397.47 699.07 397.26 697.92 397.93 696.82 399.07 695.99 402.43 695.05 404.08 694.39 404.75 693.29 405.53 692.46 408.99 692.19 409.97 691.3 409.45 689.82 408.11 688.71 407.18 687.5 408.11 685.63 409.4 685.24 410.74 685.68 412.03 685.9 413.07 684.75 412.76 684.03 412.19 683.04 412.03 682.16 413.32 681.77 414.2 681.83 414.77 681.72 415.08 681.27 415.29 674.55 415.65 672.9 416.01 671.91 416.27 671.8 416.63 672.07 419.01 672.57 419.94 672.51 420.3 671.96 420.09 671.19 419.68 670.47 419.32 669.7 419.26 668.71 419.57 668.43 420.87 667.5 421.33 666.95 420.92 666.45 420.25 665.24 419.78 664.58 418.08 663.31 417.66 662.81 417.4 661.33 417.61 660 418.02 658.68 418.23 657.19 418.49 656.48 419.52 655.7 419.78 654.77 417.97 653 417.71 651.96 418.23 650.58 420.76 645.95 421.12 644.74 421.33 643.3 420.97 640.55 420.97 639.12 421.59 638.51 422.78 638.24 424.48 637.52 425.77 636.47 425.72 635.31 424.64 634.49 423.45 633.88 422.57 633 422.36 631.46 423.14 631.73 423.71 632.12 424.17 632.61 424.43 633.22 425.1 632.28 425.77 630.52 426.5 627.6 427.27 626.77 432.18 624.95 434.65 623.47 443.38 616.74 444.37 615.36 444.37 614.21 440.9 613.16 441.47 611.84 444.11 609.63 444.57 608.92 444.98 607.92 444.93 607.04 443.18 606.38 442.97 605.78 443.18 605.17 444.78 604.56 446.38 603.68 447.41 602.91 447.93 602.52 448.75 601.31 447.57 598.39 447.31 596.74 448.44 596.02 449.84 595.52 451.29 594.37 452.58 593.04 453.35 591.94 452.58 591.72 451.85 591.39 451.23 590.9 450.77 590.18 452.37 587.7 453.3 586.76 454.9 586.05 455.78 585.99 456.55 586.05 457.28 585.94 458 585.5 458.31 584.78 458.67 582.91 458.83 582.47 461.05 582.79 462.23 582.74 462.75 582.24 463.06 580.21 463.89 579.6 464.92 579.32 465.85 578.39 466.21 576.84 467.19 569.4 467.14 567.97 466.57 566.87 465.59 565.71 460.89 561.91 460.84 560.86 458.57 554.8 458.52 554.8 456.24 553.15 454.8 551.05 452.32 545.43 451.44 544.33 449.06 543.12 447.93 542.24 444.62 538.21 443.54 537.28 442.04 536.67 436.05 536.67 435.02 536.28 434.55 535.46 434.24 534.47 433.73 533.75 433.05 533.58 431.35 533.8 430.63 533.75 425.36 530.99 424.43 531.05 423.71 529.78 416.89 524.93 415.49 524.93 414.25 525.92 412.08 528.24 411.21 528.9 410.23 529.39 409.4 529.56 408.42 529.23 408 528.73 407.8 528.07 407.33 527.25 402.48 521.63 400.67 519.03 399.79 518.1 398.09 517.22 381.41 513.85 380.99 513.41 380.84 512.75 380.37 512.42 379.75 512.15 379.24 511.7 378.15 511.32 374.28 511.26 372.73 510.82 358.27 499.47 355.84 498.87 355.12 498.31 353.62 496.77 352.9 496.27 352.43 496.17 350.99 496.17 349.49 495.61 346.7 493.69 344.89 493.02 342.77 491.48 339.63 490.32 338.9 489.72 338.49 489.17 337.92 488.73 336.78 488.56 336.06 488.28 335.08 487.07 332.6 486.08 331.36 484.54 329.81 481.51 329.14 480.68 326.2 477.98 324.34 477.1 324.08 476.44 323.92 475.66 323.67 475.06 323.2 474.67 321.55 473.9 319.84 472.85 319.02 472.19 318.19 471.25 317.57 470.81 316.18 470.54 314.94 469.71 313.03 469.49 312.25 469.16 311.74 468.67 310.39 466.79 307.5 463.71 280.33 445.08 278.99 444.75 277.44 444.91 273.88 446.24 272.07 446.62 266.44 446.84 260.5 445.9 258.13 446.02 257.4 445.9 256.63 445.41 255.13 444.03 254.36 443.48 253.63 443.37 250.95 443.48 246.3 442.54 243.82 440.73 242.43 440.01 239.74 439.9 239.33 439.73 238.09 436.98 238.04 436.54 237.31 436.37 236.02 435.6 235.19 435.32 234.32 435.21 230.86 435.44 230.13 435.21 228.58 433.84 227.86 433.56 223.47 433.73 221.25 433.78 219.7 433.56 217.53 432.18 215 430.03 212.21 428.6 209.32 429.48 206.94 427.88 206.22 427.17 205.14 425.3 204.72 424.8 204.57 423.64 203.64 421.88 202.45 420.28 200.44 419.07 199.15 416.86 198.47 416.09 199.15 414.66 199.4 412.73 199.15 411.02 198.22 410.25 196.93 409.81 195.79 408.76 194.76 407.55 193.83 406.78 193.26 406.67 191.76 406.83 191.24 406.78 190.57 406.28 189.13 404.74 188.4 404.41 186.85 403.91 186.08 402.75 185.61 401.43 185.05 400.33 180.14 398.07 178.38 397.96 177.35 397.69 176.58 397.13 175.7 396.25 174.56 395.43 173.32 394.88 171.93 394.6 170.33 394.54 169.6 394.05 168.93 392.06 167.74 391.24 167.8 390.41 168.16 389.42 168.52 388.76 167.12 388.7 166.25 388.54 165.57 388.15 161.75 384.02 160.67 383.47 157.1 383.47 156.12 383.14 155.45 382.75 154.26 381.37 153.23 380.6 152.15 380.11 151.27 379.39 150.96 377.9 150.91 376.3 150.65 375.31 150.18 374.49 149.41 373.49 148.58 372.78 146.88 371.73 146 370.9 144.3 368.31 143.68 367.71 135.26 362.36 132.57 359.27 131.54 357.68 131.54 357.29 131.33 356.85 131.69 354.87 131.54 354.1 130.71 352.83 129.27 349.69 128.18 347.92 126.58 346.21 125.91 345.22 125.6 344.18 125.24 344.18 124.52 343.62 123.84 343.02 123.79 342.74 123.22 342.47 122.97 341.81 122.76 341.03 122.45 340.43 120.38 338.06 119.92 337.18 119.61 336.18 119.09 335.47 118.11 335.19 117.8 334.7 118.73 332.71 117.28 331.78 117.28 330.67 117.8 328.8 117.44 327.92 117.13 327.75 116.72 327.86 115.79 327.59 113.88 326.71 112.89 325.82 112.89 324.78 113.98 323.23 114.39 321.86 113.77 320.31 112.12 318.27 111.71 318.16 111.19 318.22 110.78 318.11 110.57 317.5 110.57 316.57 110.52 316.13 110.31 315.68 109.75 315.35 108.92 315.08 106.23 314.69 105.67 314.64 104.22 314.03 98.95 310.28 97.66 308.9 97.14 307.64 96.47 307.09 93.42 306.1 92.5 305.65 90.69 303.12 89.4 302.02 87.59 301.52 86.76 301.41 85.73 301.13 84.8 300.58 84.23 299.81 84.39 299.1 84.9 298.38 85.16 297.5 84.7 296.34 85.21 296.34 84.85 295.68 84.33 295.13 83.66 294.74 82.94 294.58" style="fill:#efc441"/></svg>