<svg xmlns="http://www.w3.org/2000/svg" viewBox="0 0 800 800"><path d="M602.89,730.54l-4.72,4.85-1.69,1.24-1.67.27-1.71-.25-1.57.08-1.16,1.32-.28,1.73.41,1.43.63,1.4.32,1.72.08,1,.2.7.81,1.48.3.75.1.78-.12.76-2.22,5.36-.81,1.27-.66.78-1.46,1.32-1.74,2.21-.66.56-.81.33-1.09,0-.88.33-2.6,1.53-.93.3-1.9.21-4-.4-1.9.13-.93.54-.93-.86-1.82-1.24-2.3-1.75-1.14-.75-1.31-.79-1.34-.75-1.81-1-1.85-1.89-.12-.16-.21-.46-.2-.24-.18-.11-.35,0-.23-.08-2.12-2.11-.65-.4-1.29-.4-.48-.46-.48-1.56-.38-.84-.5-.35-.61-.24-1.54-1.27-.76-.43-2.17-.73-.76-.1-1.89-2-.78-.51-.51-.49-1.13-1.37-.59-.46-1.79-.81-1.34-1-.78-.43-.78-.19-1.21.19-.18.1,0-.43.26-.48.53-.78.15-1-.1-.8-.2-.81L534,730l-.15-.75-.53-1.62-.15-1.37-.15-.16-.23-.09-.3-.18-1-1.38-1.29-1-.1-.13-.51-1.27-.63-.51-.58-.19-1.44-.27-.88-.3-.36-.24-.63-.62-.63-.43-.15-.08-6.13-1.64-1.42-.68-1.19-1-1.71-2.18L513,713l-2-1.27-.78-.35-.83-.24L507,711l-.3-.16-.2-.4.05-.84-.08-.43-.5-.54-1.49-.92-.3-.35-.38-.67-.89-.43-1.76-.43-.91-.59-.15-.73v-.78l-.33-.78-2.05-2.54-.86-.64-.4-.14h-.35l-.31,0-.32-.26-.38-.6-.26-.24-.37-.08-.23-.14-.81-.56-.35-.19-1.54-.27-2.15-1-3.86,0L482.23,695l-3.94-3L472,689.59l-1.24-1.4-1.64-.89-1.36-1-.63-.24-1.47,0-.68-.19-.56-.38-.53-.21-.6.29-.31-.56-.48-1.67-.3-.38-.38-.19-1.06-.27-2-1.08-2.28-.56-4.31-1.59-2.86-.49-.9.68,0-1-.68-.59-.33-.4-.28-.25-1.34-.48-2.62-1.27-1.09-.73-2.3-1.72-2.57-2-1.06-1v-.46l.18-.48-.28-.62-.41-.54-1.13-.57-3.11-1.8-.58-.19-1.59-.22-.61-.4-.48-.62-.12-.4-.46-.33-.9-.32-1.39.32-1.29-.35-1.29-.48L421,661.43l-.18-.21-.1-.81-.1-.41-.18-.32-.05-.54-.18-.56-1-.38-1.82-.59-5.27-2.46-2.58-1.5L406,652.11l-.78-1.16-4.07-2.23-1-.87-.5-.16-.56.08-.25.14-.25-.06-.58-.46-1.11-1.32-.43-.32-.71-.24-.73-.14-.58-.24-.23-.64-.18-.17-.65-.16,0-.29,0-.14.53-.3.73-.18.15-.54-.58-.89-1.06-.7-1.49-.68-1-1.07.7,0,.41-.24.15-.41,0-.48-.17-.35-.26-.38-1.79-1.78-.73-.37-1.92-.3-.56-.43-.32-.68-.33-.94-1.72-2.64-.25-.81-.3-.4-1.32-.94-.4-.44-.08-.26.08-1.27-.15-.3-1.62-1.34-3-1.57-1-.56-.76-.43-.88-.62-1.62-1.4-1.84-1-.13-.19-.3-.24-.38-.19-.3-.08-.4-.13-.28-.38-.23-.46-.25-.4-.25-.24-.28-.22-1.54-.84-.53-.56.12-.92-.12-.94-.08-.94-.5-.84-.63-1-.38-.24-.1-.46.15-.38.27-.62-.15-.35-.43-.91-.85-.46-1.24-.83-.43-.44-.73-1.07-.48-.57-.38-.16-.91-.11-.38-.13-.23-.3-.38-1.29,1-.11.28-.38.05-.4-.25-.51-.35-.76-.23-.43-.28-.86-.45-.73-.56-.3-.6-.24-.33-.54-.18-.64-.28-.49-.48-.29-1.28-.54-.05.89-.74,1.23-.7-1.34.3-1.05,0-1.51-.32-.92.4-.29v-.65l.48-.3-.23-.43.08-.35.1-.4-.35-.46-.21-.7.43-.16.08-1-.25-.7-.66-.43-.1-.49.05-.29.1-.3.05-.27-.2-.27-.38-.08-.25.19-.1.65-.26.32-.45-.19-.63.14-.71-.43-.76,0v-1l.1-.57.51-1.29.4-.54-.17-.51.32-.33.69.17.65-.57.66,0,.45.05.21.46-.38.56-.08.57.33.3.48.27.71.56.27-.4,0-.86.2-.84.56-1.8.33-1.19,0-.83.13-1.08.43-1.3.42-1.26.61-3.34-.23-3-.3-1.46-.93-2.83-2-2.83-1.21-1.21L349.82,556l-2.93-4.07-1.21-1.43-.28-1-.53-.86-.41-1.75.18-1.43-.18-1.64-.58-1-.38-.49L341,540l-.71-.94-1.56-3.29-.36-.51,0-1.08,0-.37-.3-.38-.56-.62-1.16-1.67L334.74,530l-.7-.56-.48-1,.78-1.06.3-1.5-.3-1.51-1.29-1.13-1-2-3.51-2.1-2.13-1H326l-.13-.22-.65-.64-.23-.38-.07-.56.1-.36.15-.29.05-.43-.56-1.59-1.31-1-.93-.3-.69-.24-1.54-.13.31-.76.43-.56.35-.65.18-.94-.21-2.7-.3-.89-.28-1.18-.17-.41-.56-.94-.2-.83.2-1-.53-1v-.35l.66.1.4-.56-.15-.81-.88-1.78-.16-.86-.42-.94-.53-.76-.54-.32-.47-.16-.43-.43-.64-.89-.12-.27.28-.38,0-.35-.13-.3-.63-.78-.5-1-.3-.46-.33-.19-.41-.11-.27-.29-.46-.71-.63-.43-1.59-.78-1.21-1.08-5.73-3.23-.94-.75-.48-.46.08-.49-.08-.91-.18-.78.26-.27-.1-.33.3-.35h.33l.45.11.33-.21.43-.17.15-.61,0-1.06-.51-.91-.38-.59.2-.46-.75-.92.17-.4-.38-.7.18-.33-.33-.78-.68-.91.15-.33.41-.37-.36-.81-.3-.65.05-.51-.28-.78-.4-.7-.56-.76-.55-.91.07-.62-.93-.81-.68-.65v-.59l.2-.35-.63-.92,0-.29-1.06-1.08-.58-.43-.2-.46-.21-.43-.3-.35-.78-.76L293,451.93l.1-.43-.48-1-.73-.59-1-.89.08-.62-.41-.89-.68-.94-.56-.76-.07-.38.28-.4-.05-.43-.41-.43-1.41-1-.05-.76,0-1.05-.71-.62-.3-.35-.1-.64-.28-.81.18-.49L286,438l-.18-.54-.71-.86L283.59,435l-.33-.81-.25-.4,0-.41.33-.05.23-.24-.05-.49-.36-.48.13-.25-.08-.46v-.35l-.6-.86-.15-.91-.21-.43-.32-.54-.11-.41-.37-.16-.13-.19-.2-.08-.08-.21.08-.19.2-.27,0-.41,0-.48,0-.49-.17-.62-.26-.37-.07-.68.18-.78.32-.56v-1.24l-1.44-1.4-1.18-1.46-.25-.92-.61-.7-.3-.72-.38-.38-.43-.84-.58-.67-.15-1.21.22-1.11-.7-.4-.15-.67.05-.54-.36-.57-.23-1,.31-.54.45-.48-.3-.65h-.48l-.76-.62-.17-1.08.1-.67.27-.3.26-.24-.41-.16-.33-.46-.32-.21-.21-.52-.45-.18-.53.05-.3.22-.84-1-.05-.38-.07-.46-.36-.21-.27-.35.32-.27.33-.3.43-.08.28-.81.05-.78-.33-.94-.68-.46-.73-.22-.56.22-.28.22-.12.32.15.32,0,.49.18.81,0,.45-.43-.13-.48-1.08-.74-.89-.5-.56,0-.43-.16-.22.18-.19.58.22.86.27.23-.3.17-.49v-.8l-.3-1-.4-.59-.48-.46-.51-.05-.68.11-.3-.27-.36-.62.05-.68.26-.64.17-.41-.3-.35-.91-.35,0-.4.3.08.18-.27,0-.86-.23-1-.3-.59-.4-.83-.31-.57-.53-.7-.75-1.13-1.75-2.45.08-.35v-.38l.28-.35.43-.3.07-1.13-.15-.91.08-.62-.28-1-.33-1.53-1.11-1.65L259.5,371,258,369.54l-.83-.67-1.16-.49-.53-.45-.46-.6.21-.51.38.05.2.11.45-.35.18-.81V365l-2.27-3.56-.08-.86-.91-1.32.15-.57-1.18-1.45-3.92-3.61v-1l-2.19-1.56-4.27-3.45-1.92-2.29-1.19-1.86-.43-1.64-1.81-2.19-.43-.43-.36-.4.18-.3.45-.16.43-.43.08-.76-.48-1L235,334l-2.62-3.88-1-1.27-.07-.94-.21-.75,0-.38.38-.46.15-.51-.4-1.16-.43-1.05,0-.73-.61-1.83-1.19-1.35-1.44-1.59-.5-.54.25-.83.05-1-.71-1-3.91-4.18-1.92-2-.4-.84-2-1.8-.5-1.24-.15-1.27-.58-1.29-.86-1.16-.61-.67-4.21-3.56-1.87-1.27L205,292.49l-6-3.24L189.13,284l-2.32-1.18-2.33-2.38-2.67-2-3.24-2-3.23-2.64-1.08-1.48L173.5,270l.07-1.56v-1.73l0-.38.79-.67.2-.78.18-.24.83-.06.4-.91,0-.62.35-.51.66.05.71,1.18,1.06.54,1.38.57,1.19.19,1.34-1.43,1.46-2.8.28-3.69-.93-3-1.85-4.34-1.13-1.35L177,244.91l-.63-.84-.81-.21-.48.16-.88-.67-.78-1.3-.94-1.13-.75-1.21.17-.38.26-.32.48-.22.27-.81-.12-.43-.31-.43.05-.51.51-.13-.15-.7-.15-.84.3-.57.58.08.66-.4.6.67,1.11-.1.56-.87.15-1.37-.78-1.89-1.24-1.34-1.14-.92-.88-1.4-.61-1.19-1.23-1.77-3-3.4-1.26-1.67.18-.54.45-.24.56-.59-.1-.76-.31-.91.31-2,0-.62-.23-.7-.32-.81-.26-.76.16-.59.4-.38.25-.18.23-.22.28-.46.53-1.32v-.91l-.53-2.21.17-.79.41-.91.5-.86.43-.54,3.21-2.35.83-.91.68-1.3.53-.61.69-.27.68-.17.4-.43.58-1.29,2-3.18,1.16-1.29,1.39-1.16,1.52-.92L184,187l.23-.81.1-.89.25-.84.66-1.37,1-1.35,1.32-1.16,5.85-3.71,1.07-1.08,1.56-2.45.2-.81.31-.14.37-.05.33-.21.58-.25,2.55.11.71-.19.76-.32.6-.51.26-.7.1-.46.48-.89.17-.41v-.4l.26.14.6.35,1.39.4.53.4-.07.7-.23.81.07.84.23.21.61.27.23.3.1.35v.38l-.08.75-.28,1v.33l.23.26.35.14.33.13.1.38v.43l.23.76,0,.43,0,.4-.22.76-.08.35v.4l.05.3.23.75,0,.38-.12.29-.15.27-.08.33.18.78.73,1.27.33.78.05.37v.73l.1.32.33.41.33.24.22.22v.05l0,.38-.58.7-2.88,1.4-.51.7-.55.92-.61.8-.78.41-.68-.16-1.57-.89-.75-.25-.76-.05-.73.05-.69.22-.55.43-.41.62-.43,1-.3,1,0,0-.05.73.17.49.61.89.2.51,0,.35-.16.75v.38l.79,1.72,1.29.17,1.59-.52,1.69-.21-.41.86-4.87,6.92-.13.68.31.83.5.46,1.67,1,.6.24h.66l.28,0,.38-.33,1.49-.86,2.85-2.34.58-.65.28-.65.38-1.37.3-.54.3-.27.38-.21.41-.14,1.51-.21.1,0,.23.43.63.19.73.16.63.24.69.6,1.18,1.4.76.56,1,.57,1,.13h1l1,.27.94.92.78,1.24.91,1,1.36.25,2.48-.81,1.29-.81,1.31-.19,1,.54,1.87,2,.28.13.53.41.23.13h.88l.76.46.2.38-.1.59-.83,1.62,0,.83,1.06,1.67.43,2.35,1,1.93v.06l.13.73.25.83.66.54.75.43.63.51.21.35.25.78.18.36.32.24.74.29.3.22.5.75.38.84.53.65.84.24,1.71-.06.91,0,.66.11,1.21.45.66.16.38,0,.58-.16.4.05.38.19.4.32.68.73,1.07-.94.95-1.08.28-.84.41-1.91.38-.65.75-.21h1l.86-.22.38-.78-.18-.94-.83-1.75,0-1.11.41-1.07.71-1,1.66-1.67,1.54-.92,3.39-1.45.4-.27,1-.73.33-.62L265,213l-.05-.81.1-.7.53-.92.58-.75.1-.65-.88-.57-.46-.75-.3-1.45,0-1.49.31-.83.68-.59.3-.79.36-1.72,2.24-5,.41-1.75-.05-2.35.17-.64.38-.43.43-.11.43,0,.48-.16.53-.3.15-.16,0-.27.37-2.93.26-.76.38-.75.22-.19.46-.22.3-.19.88-.94.23-.75-.45-2.56v-.7l.17-.06.48-.08.28-.24,0-.38-.15-.81,0-1.42.1-.76.25-.81.66-1.59.05-.16.48-1.59.3-1.72v-.43l-.22-.76,0-.27.4-.72.64-.22.75.11,1.62.48.45.41.28.59.51,2.53.35.7.51-.24.58-.51.65-.16.56-.25.35-.8-.07-1.08-.48-.57-.58-.46-.43-.7,0-.86.43-.56,1.34-1.08.45-.7,1.14-2.32.53-.62,1.77-1.56,3.73-5.34,2.73-2.53.68-.38,1.44-.53,1-.38,4.65-1.75,4.62-1.73,4.64-1.72,4.65-1.73,4.62-1.75,4.65-1.72,4.64-1.73,4.65-1.75,3.38-1.26.56-.35,1.64-1.05,2.09-1.73,2.2-1.78,2.2-1.8,2.19-1.81,2.2-1.8,2.22-1.78,2.2-1.8,2.2-1.81,2.19-1.81L362,116l1.84-2.26,1.84-2.32,1.85-2.29,1.84-2.29,1.84-2.29,1.85-2.29,1.84-2.29,1.46-1.83,2-2,.58-.73.28-.37.48-1.38.55-2.26,1.09-4.63,1.11-4.67,1.11-4.63,1.11-4.63.46-1.94.22-.35,1.06,1,.51.62.2.38.38.32.83,0,1.57-.19h1.74l.33,0v-.27l-.28-.4-.35-.32-.28-.44-.08-.37.08-.68,0-.35-1.64-6,0-.49.23-.7.07-.4,0-.4-.16-.73,0-.38.15-.48.4-.27.46-.25.33-.37.07-.35-.05-.3-.1-.3,0-.32.12-1.54-.15-.72-.4-.7-.18-.06-.35.19-.18,0-.15-.19-.18-.43-.15-.19-1.44-1.21-.15-.22-.23-.13-.45,0-.38-.08-.4-.27-.69-.7-1.06-1.54-.68-1.67-1.19-4.44-.42-.59-.59-.38-.78-.27-.45-.27-.79-.78-.45-.27-.35-.06-.79.06-.35-.08-.33-.41-.35-.78-.18-.86.2-.67.53-.19.66.19.68.27.58.13.66-.08h.5l.51.13,2.6,1.49,1,.1,1-.7.31,0,1.26.19.61,0,.48-.19.48-.24.83-.62.43-.62.55-.19.58-.49.46-.59.2-.51.13-.75.35-.41.56-.13.73.1,1.66.46.79.43.7.6,1.44,2.12.43.44.31.1.65,0,.36.11.22.19L401.58,42l.48.4.78.38,1.26.3.63.21.36,0,.43-.35.91-1.56.43-.11.78.73.53.78,1.26,2.72-1,.84-.28.54.65.21.38.06.74.21.9.08.23.11.15.19.26.19.2.19.1.21.23.14.5,0,.2-.1.23-.17.3-.21.41-.08.35.29,1,1.89,1.54,1.75,1,.81,2.22,1.43.46.4.48.6.33.53.17.11h.51l.17.19.1.38,0,.43v0l.08.35,1.76,4.06-.07.27-.48.43-.18.35,0,.76.27.56L424.58,65l.25.16.36.13h.63l.3.14-.3.64.22.46.38.41.21.51-.23.43h-.51l-.6-.11-.46.08-.25.46.23.38.91.64.38.52.53,1.8.8,1.13,1,.6,2.2.4,2.24.92,1,0,.58-1.13.41.4.88,2.75.18.32.3.27.45.22.21-.08.17-.19.41-.22.15-.16.13-.24.17-.11.31.27,0,.32-.36.7,0,.33.51.29,1.16-.29.61.24.22.38.56,1.56.65,1.1.36.41.53.35,1,.38.58.13.46,0,.6-.38.58-1,.56-.21.33.7.5.59.71.43.86.14.4.13.71.57.86.27.2.35.08.43.27.59.05.43.08.19.15,0,.48-.06.15,0,.1.3.08.32.05.86.08.27.15.3.22.27.59.29-.18.41-.58.75.33.6,1.36.67.43.7.76.62.3.4.05.41v.4l.05.51.4,1.65,0,.75-.88.57-.33.59-.43,1.32-.07,1.51.75,1,2.38,1.53.05.16.12.51.06.14.17,0,.41,0,.53,0,.4,0,.43.08.48.29.88.87.38,0,.28-.43.58-.62.58-.06,1.24.33.23-.14.15-1h.38l1,1.16.35.27.36.16.3.21.25.44-.28,1.48.21.54.86,1.07.22.68-.07.35-.38,1-.05.57.12.62.26.51.65,1,.26.75.2.89.28.84.5.48L469,118.07l-.35.86-1.34,1.29-.33.43-.12.24-.05.41.07.38.36.59.07.24.1.19.51.43.12.19.18,1.18.1.3.61.43,1.61.43.31.35.22.84.51-.46.43-.89.07-.43,2.56,1.51.12.21.53.49.63,1.83.36.65.27.27h.36l1.56-.35.51-.19.43-.46,1.06-.4.91-.49.63.24,1,.73.1-.48.18-.38.3-.27.45-.24.18.29.15.35.1.38.13,1.05.23.08.6-.21.48-.46,1-2.16.48-.64.66.11.65.37,1.67,1.46.71.24,3.78.62.33.32.18.46.5.49.64.37.7.16.81-.08,1.49-.4.86-.11.3-.11.1-.27,0-.8.2-.17.93-.21.38,0,2.38.6.55-.19,1.62-2,1-.94,1-.43,1.21,0,2.3.35L513,126l.46-.48.18-.89.25-.3,1.74-1.43,1.34-2.18.17-.4.38,0,2.15-1.46.81-.4.28.22-.05,1.4.3.67.73-.13,1.21-.68.89.16.73.46.68.57.76.45,2.12.46.43.33.17.75.05,1.64.26.6.58.32.28-.48.37-1.49.51-.54.38.14.63,1.21.88,1.19.13.4-.1.35-.51.49-.15.29.43.84,1.24-.3,2.65-1.37.28.54.68-.17.78-.43.56-.24.4.11.43.35.4.13.38-.08.71-.59,1-.57.7-1.85.84-.41,1-.21.48,0,.94.6.45.1.43,0,.35-.22-.35-1-.08-.89.38-.54,1.06,0,1.57.7.93.19.76-.36,1.11.73,1.92,2.16,1.29.89,1.34.54.7.16.94.13.2.19.07.32v1.14l.16.08,1.16,1,.22.43.06.41v.53l0,.49.27.21h1.52l.28-.16,0-.37,0-.46.1-.35.63-.43.48.32.45.57.58.29.63.08.69.25.65.32.46.43.22.43.13.4.2.33.43.24.38,0,.88-.41.41-.08.78,0,.78.11.48.38-.17.86-.18.11-.63.27-.18.19,0,.32.17.35.23.3.18.11.91-.25.73-.48.71-.24.8.4.48.73.51,1.69.43.7.68.27.61-.29.63-.19.73.59.1.41v.4l0,.35.35.19.31-.08.2-.33.18-.43.2-.35.76-.54.4.3.48,1.73.23.59.3.46.43.35.2.08v0l-.83,1.41-2.91,4.82-2.87,4.82-2.91,4.82-2.9,4.83-2.88,4.82-2.9,4.82-2.88,4.82L559,181.41l-1.23,2.07,1.61.19,5,2.8.38.27,2,.54h1l1-.43,1.44-1.43.81-.51,1-.11,1.41.54,1.39,1.08,1.21,1.34.89,1.35.45,1.38.2,1.42.38,1.3,1,1,3.73,2,1.11,1,.76.91.63,1,1,2.21.07,1.07-.33,1.06-.65.94-1.24.94-.53.08-.5-.13-.46-.35-.45-.49-.21-.29-.17-1-.41-.73-.73-.3-.81.11-.68.38-.48.72-.6,1.49-.71.64-.4-.54-.31-.62-.22-.37L576,204l-.33,0-.35-.13-1.82-1.54-.35-.51-.08-.73.36-1.48-.08-.81-.28-.56-.43-.51-.48-.17-.65,1.16-.46-.16-.93-.86-.61-.27-.55,0-.51.1-.58.3-1.51,1.29-.56.19-.38-.24-.12-.57-.18-.59-.56-.24-.6.32-.25.68-.16.72-.3.41-1.74-1.08,0-.59.13-.73-.05-.57-.58-.13-.61.24-.33.46-.4,1.18-.4.35-.69,0-2.29-.68-.38.06-1.74.91-.48.46-.13.54.33.94-.13.38-.55.19-.58.3-.28.59-.2.7-.36.65L550.65,205l-.45.62-.33.76-.78.83-.76-.75-.58-.73-.18.89-.71.62-1.91-.86-.91.4-.51.89-.33.22-.58-.11-.3-.3-.4-.89-.23-.27-.61.38-.53.92-.5.62-1-1.22-.86-.18-.89.21-.58.54-.1.49.08.37v.41l-.38.51-.13,0-.2-.11-.25,0-.23.13-.33.46-.12.14-.51.21-.3-.21-.23-.43-.35-.3-.51-.05-1.69.27h-1.13l-.56.08-.5.24-.26.32-.22.89-.21.22h-.27l-.94-.22-.5.06-1.7.78.16-.84-.38.11-.76.81-.45.16-.33,0-.31-.14-.37-.4-.59-.49-.37.14-.43.32-.71.11-.4-.14-.86-.43-.38,0-.3.16-.11.24-.05.27-.12.19-.25.08-3.06.35-.63.19-1,.72L511.79,215l-1.11.35-.58.57-.35.24-.31.08-.35-.14-.35-.18-.31,0-.27.32-.66,1.43-.43.59-.71.62-2,1.21-1.87,1.49-.66.4-.68.24-.48,0-1.36-.22-.46.14-.17.24-.1.3-.21.21-1.51.46-.4.46-.28,2.16-.38.61-.61.46-.78.46-.2,0-.51,0-.17.06-.13.24v.46l0,.13-.2.35-.1.35-.25.25h-.53l-.68.1-.66.33-.6.48-.89,1-1,.51-.48.51-.16.43,0,.38-.1.35-.35.35-.36.11h-2l-.78-.25-.68-.08-.48.38-.46.65-.65.29-1.49.33-.2,0-.46-.16-.2,0-.1.18,0,.57-.05.16-.5.3-.31.08-.48,0-.88.24-.15.56.25.7.36.6.2.59.17,2.42,0,.62-.32.57-.41.51-.28.59-.25,1.68-.15.61-1.09,2.46-.32,1.26.15,1.3.33,1.26v1.11l-.61,3.66-.38,1.16-.53,1.1-3.84,5.45L469,266.17l-2.09,5-.81,1.37-.58,1.48,0,1.83.36.95,1.77,2.15.22.7.38,3.16.2.91.81,1.78.25.92v.86l-.17.89-.58,1.61-.89,1.62-1,1.13-1.26.73-1.67.46-2.6,0-.8.3-1.32,1.24-1.44.94-2.5,2.32-3,1.83-1.84,1.56-1,.68-.48.43-.43,1-.38.51-1.54,1-.38.46-.23.67-.1,2.19-.88,3.58-.53,1.1-.23,1,.2.6.13.35,2.55,3.9.35,1.67.33.76.1.73-.43.78-.6.37-.71.14-1.47-.08-1,.08-.63.21-1.34.87-.83.35-.68-.06-1.49-.62h-.81l.13.7,1.06,1.94.23,1-.21.65-.27.62-.05.83-.46.89-.48.22-1.26.56.33.68,1.49.94,4.82,5.39,1,.72,1.16.54,1.39.46,1.11.94.35,1.57-.42,1.53-1.19.78-1.24-.45-.55,0-.05.73.4,1.91.23.54,1.11.89,1.59.67,1.39.81.6,1.27.26.88,1.21,1.76.4.91,0,.78-.23,1.48.13.73.45.92,1.06,1.51.33,1.05.2,1.61.25.76.53.54,2.93,1.72.38.38.61.81.38.37.35.17.78.1.33.11.51.59.27.73,0,.81-.35,1.75,0,.76.25.64,1.57,2.18.65.68.79.46,2.14.48.69.4.65.65.41.76.65,1.69,2.86,4.42.53.49,1.38,1,.48.54,1,1.64.23.65.38,3.34-.15,1.18-.3.76-.38.48L473.14,397l0,1.1-.2.46-.51.32-.6.17-.53.08-.43.29-.41.62-.6,1.3-.86,1.21-2,2.1-.78,1.32,14.82.08,4.47.94.18.11.33.3.23.08.15-.05.3-.25.15,0,.71.16,1.49.51,1.54.81.68.21L493,409l2.22-.16.78.16.71.41,1,1,.65.48.38,0,.43-.08.38,0,.23.33,0,.4,0,1.16.13.84.33.64,1,1.3.22.7-.12.75-.46,1.51.43,1.51,2.6,1.72.79,1.59.1.43.3.81.08.43-.08.49-.58.72-.2.44,0,.8.07.7-.05.7-.4.84H519l6.59,0h8l.65-.17.36-.32.15-.29.2-.22.56-.05.37.13.28.24.31.19.5,0,.71-.4,1.31-1.08,1.79-.64.48-.79.36-.91.45-.86.63-.52,2.48-1.15,2.27-.65.68-.54.28-.46.43-1,.33-.46.43-.38,1-.62.41-.37,1.06-1.67.61-.7,1.84-1.08.73-.62,1.39-1.51.76-.62,2.45-1.45.68-.73,1.29-1.7.78-.7.71-.38.73-.16,1.56-.19,0,.54,0,.11-.38.7-.1.65-.18.51-.68.32.08.11.1.32.07.14-.48.11-.3.4-.08.51.51.94-.35.09-.51-.09-.18-.08-1,0-.2.05.38.73.25,1.29.25.76.4.59,1.09.92.43.56.25.81-.05.76-.3.67-.43.67-.13.25-.1.48-.17.22-.21,0-.38-.27h-.2l-.38.25-.35.29-.3.35-.2.43-.36,1.59v4.13l0,3.31V436l0,5.07v5.07l0,5v5.07l0,5.06v8.3l3.16-2.69.78-.19,1,.91,1.64,2.11.93.89,1.7.88,1.84.35,1.92-.1,1.84-.38,1.49-.57,9-4.85,1.54.09.7.21.71,0,1.49-.1,1,.05.63.3,1.39.94,1.21.27,4.57-.51.71,0,.12.25.13.24.13.24.15.24.12.25.13.24.13.27.12.24,3.87,7.19,3.83,7.23,3.87,7.22,3.84,7.22,3.86,7.22,3.84,7.24,3.86,7.22,3.84,7.25.91,1.73.2.35-.38.16-.23.38-.2.8-.33.6-.4.59-.53.51-1.11.62-.51.46-.35.59,0,.65.33.38,1.19.35.38.43-.86,1.8-.28.35-3,.89-.76.54-.58.83-.45,1.11-.81-.11-.45.76-.41,1-1.16.94-.2.92,0,1.72.46,3.93,0,.57-.28,4.74.1,1.62.53,3.15-.43,7.81.13.92-.23,1-.33.94-.3.51-.78.92-.28.45-.1.54.08.51v.46l-.33.46-.43.08-1.11-.21-.51.05-.5.89.75,1.16,2,1.72.4.59v.46l-.17.49-.13.64,0,.54.48,1.54.63,1,.13,1.35v1.45l.22,1.3.51.75,2,1.38.38.56.23.62.22,1.4.91,2.67.15,1.43-.7.81-2.48.32-1.26.35-.91.7-.2.7-.08.78,0,1.54.28.73.51.8.17.78-.73.73-2.4,1.43-.73.57-1.44,1.77-.28.14-.63.19-.23.16-.1.7.1,1.86-.2.46-.81,0-.85-.19-.71.08-.48.78-.23,5.15-.53,1.16-.58.35-2,.62-.84.54-.33.53,0,.68.15,3.31-.07.3-.61,1.51-.15.75.23.7.78.78.63.62,2.12,3.43.61.67,2.2,1.72.58.62.93,1.38.86.91-.08.73-.58.48-.88,0-.71,0-.5,1.57-1.21.43-.74.7-.58.81-.2.64.43,1.22,0,.35-.25.19-1,.35-.38.21-.48.73-.2.78-.07.81-.21.81-2.39,3.82-.33,1.19.22,1.21.43,1.19,1.57,4.17,1.59,4.15,1.57,4.15,1.56,4.18.83,2.2,1.27,1.7.7.62.79.54.88.3h.93l.43-.19.71-.57.4-.16.41,0,1.21.4,1-.35.83.54,1.49,1.72,1.92.84.86.59.37,1.11-.83,1.37L622.89,686l-1.24.68-1,1.26-.32.7-.08.81,0,2.37-.08,1.27.18.67,1,1.46-.45.62-.61.83-.61.49-2.14,1.18-.68.16-1.34.14-.58.4-.36.57-.68,2.18-.5.86-3.77,4.21-.95,2.26-.46.54-1.56,1-.26.27-.1.38.13.24.25.14.18.24-.18.65-.78,1-1,.4-1.06.19-1,.43-1.13.81-2,1.94-.23.05-.63.11-.15,0-.43.89-.55,2.27-.63,1h.07l1.9.27.58.22,1.49,1.26.73.78.53.76.4,1.18.13,1.43-.08,2.91ZM356.31,599.68l.22.46.13.32.38.22-.15.29-.43-.1-.58-.46-.51-.27v-.46l.3-.16Zm-9.17-17.38.25.14v.43l-.17.38-.33.1-.41,0-.32-.08.1-.49.32-.32.08-.43.4,0ZM318,511.69l1.44,1.37.32.38.13.27-.38-.11-.45,0-.51-.37-.68-.49-.43-.62-.2-.56.35-.19ZM184.86,286.05l-.2.3-.25.64.2.57.3.35,0,.48,0,.65.08.7-.41.08-.48-.05-.12-.35.12-.41-.12-.62-.31-.32.28-.32.1-.57.43-1.4Z" style="fill:#efc441"/></svg>