<svg xmlns="http://www.w3.org/2000/svg" viewBox="0 0 800 800"><path d="M438.45,747.33l.54.1.74.67.63.92.21.86-.51,1-.78.12-1.28-.44-.3-.22-.47-.51-.39-.58-.18-.44.21-.48.48-.45.59-.35Zm45.42-21.43,1.16-.54.48,0,.12.57-.24.19-1.08.64-1.94.77-.47-.13-2.3-1.63-.87-1-.35-.82.74.12,2.27,1.5,1.1.45Zm169.52-42.73.09.42-.18.51-.24.54-.3,1.08-.41-.22-.6-.86-.36-.92-.33-2-.56-1.21-.15-.48-.18-1.72-.24-.19-.36,0-.87-.38-.26-.06-.15-.2-.12-.54.06-.51.18-.51.24-.41.29-.16.3-.51.27-2.35.18-.67.42-.19.33.12.23.32.18.42.72.73.78.57.62.67.27,1-.3,6,.12,1ZM530.48,662.83l-.9-.13-.3-.16.27.77.06.47-.06.35-.3.32-.29,0-.3-.06-.24,0-1.31,1-.51.26-.36.12-.57.07-.3.09-.17.23-.24.57-.15.16-.66.16-.45-.19-.35-.45-.33-.76-.27-1.18,0-1.75.42-1.59,1.07-.61.66.38.5.7.54.54.69-.06.3-.44.06-.61.15-.54.44-.29.81.32.89.67.78.83Zm-75-105.3.21.19v.13l-1,1.43-.48.51-.56.35.12-.41.44-1,.18-.22.51-.19.24-.48.24-.54.36-.42,0,.32-.06.13-.09.06ZM662,555l.51.42-.18,1-.74,1.79.2.57,0,.77-.26.66-.39.29-.69.16-.3,0,.27-.73-.3-.26-.47-.13-.45,0v-.32h.6v-.35l-.9-.67v.35l-.12-.42.06-.47.36-1,.21-.32.18-.13.12-.13.09-.44,0-.42-.09-.5.06-.32-.42-.74-.09-1.11.33-1,.77-.41.24.32.12.28,0,.39.42-.23.15-.12.09.76-.09,1.08.12,1Zm25.25,111.7.36.29,1.43.86h.33l-.24.89-1,1.43-.23.86-.12.35-.36.13-.39.09-.33.23-.21.41-.92,2.52-.27.47-1.4,1.4-.63,1.06-.36,1.3-.09,1.66-.65.92-1.47.16-1.7-.35-1.28-.61-1.1,1-.63,1.34-.27,1.43-.06,1.18.24.54,1.16,1.09.39.44.18.7.09,1-.09.86-.33.38-1.34-.54-.78-1.3-1-3-1.14-1.37-1.28-.7-.92.42,0,2h-.3l-.12-.29-.48-.66-.18,1,.48,1,.6.92.65,1.66.78.76.83.61.45.48.09,1-.57,1.91-.65,4.11-.09,6.88-.72,3.66-.18,4.27-.27.73-.62-.16-.15-.67-.21-2.35-.09-.51-1.49-1.12-.18-.44v-.54l.06-.58,0-.51-1.08-2.19-.56-.77-.21-.95-.57-5.86.09-1.09.51-2.89v-1l-.48-1.66-.12-1v-1.21l-.15-.54-.5-.25-1.11-.35-.86-.55-1.71-2.51-.26-.89.38-2.17,0-.95-.5-1-2.6-2.67-.57-.77-.18-.7-.32-1.91L656,668.91l0-1.91.15-1v-.92l-.33-.67-.66-.19-.21-.07-.8.23-2.63,2-2.57,1.56-.5.48-.36.35-.51.92-.12,1.05.24,3-.06,1-.15.44-.36.54-.09.42-.23.47-1.56,1.6L644,679l-1.46.38-1.37.7-1,1.69-.12,2.07-.18,1-.48.45-2,2.54-.93,1.75-.63,2-.38,2.17-.12,2.23.15.76.59,1.85.12.92.36.45.72.28.56-.25-.12-1.31,1.44,1,1.88,2.58,1.16,1.24L643,703l.89.35.69.83.3.82.05,1.82.15.7,1.26,2.87.47.66.18.39,0,.54-.06,1,.06.51.15.35.39.57,2.12,6.08.15.83,0,1-.18,1-.45.86-.18.48.3,1-.12.47-.18.39-.3,1.36-.77,2-3.19,4.11-4.15,6.36-2.75,5.07-.62.89-.81.83-.69.31-.71,0-2.12-.1-.63-.19-.24-.61-.12-3.69-.2-.92-.3-.7-.42-.48-.63-.29-.92-.09-.24-.16-.24-.38-.21-.48-.09-.45-.18-.47-.47-.29-.51-.16-.33-.16-.45-.89.18-.77.39-.7.21-.7.15-.73.3-.76.71-1.24,1.67-2.17.63-1.37.12-1.88-.18-.76-.6-1.69-.12-.6-.41-.39-.45-.06-.48-.06-1.67,0-.51-.54-.45-.26-.5.16-.09.42.09,1.17-.15.48-.39.67-1.43,4.52-1,3.19-.83,1.08-.84,0-2.09-.51-1.67.64-1.1-.26-4.42-2.26-1.13-.29-1.88-.92h-.51l-.57.07-.47,0-1.08-.41-2.8-1.82-.3.32-1.34-.63-.42-.32-.18-.32-.12-.41-.15-.39-.3-.16-.77-.19-6.09-3.72-2.24-1.05L586,718.77l-.75-.48-1.16-1.17-.54-.86L583,714.5l-.51-.76-2.93-3.28-1.13-1.72-.75-1.69-.53-2.38-.06-1-.27-1-.09-.54.21-.25.63-.07.14-.16,0-.28v-4.11l-.11-1-.81-2.93.15-1.24.12-1-.15-1-.84-.39-.12.1-.47.73-.27.19-.12-.06-.09-.19-.15-.1-.3-.13-.33-.35-.24-.41-.14-.38,0-.51.26-.89.06-.39.09-5,.6-2.33,1.79-4.68,1-1,.74-.23,1-.54,1.67-1.14,1.64-1.47.71-.83.48-1.27.81-.8.27-.44.09-.42-.09-1.49.09-1.18.2-.92.9-1.79-.63-.51-.56,0-1.38.26-.5-.26-.39-.76-.18-.35L582,660l-.48-.76-2-4.68-1.32-1.94-1.94-1.44-.33,0-2.35-1.85-2.09-1.17-.33.35-.78-.39-1-.19h-.06l-1.91-.06-1-.26-.72-.63-2.36-3.35-.86-.63-1-.29-1-.09-1.88-.77-.24-.09-1-.16-2.77.16-.78.19-1.1.41-1,.54-.5.48.15,1.62,1.19,1.28.95,1.4-.5,2.13-.39.48-.45.44-.51.39-.44.25-1.55.32-.42.19-.15.35-.06.54.06,1-.18.13-.9-.57-.41-.07-.39.8.59,1,.87.89.42.77.27,1.15.65.63.81.48.69.73.29,1,0,1-.26,1-.45.7-.45.19-.51-.16-1.37-1.08-1.4-.7-.6-.48-1.25-1.43-.39-.77-.66-.48-.15-.22v-1l-.06-.41-.2-.32-.69-.29-.9.1-.77.38-.33.57-.24.67-.6.35-.68,0-.57-.22-1.31-1.27-.57-.86L537,655l.24-1,.63-.35.77-.1.78-.35.45-.76,0-1-.51-.79-1-.35-.56-.51-.21-1.18-.09-1.27-.18-.9-.51-.38-.44.45-.48.79-.51.89-1.19,1.31-.3.57,0,.48.15.48,0,.57-.21.22-.57.42-.12.16,0,.32.15.19.12.22v.38l-.27.83-.65,1.05-.3.67-.06.67.06,1.43-.24.48-.48.22-.27-.13-.21-.28-.44-.13,0-.06-1-.26-.36-.64-.65-1.81-.45-.45-.51.2-.56.57-.48.67-.24.47,0,.67.12.42-.06.38-.63.48-.47.22-.63.1-.66,0-.62-.28.26-.58-.15-.38-.26-.19H523l-.09.13-.18.09-.21,0-.12-.07-.06-.28.09-.23.18-.16.09,0-.06-1.08.21-.6.51-.1.83.48.12-1.05-.36-.67-.45-.61-.2-.73-.33-2.86-.27-.8.33-.64.3-.92.2-1,.06-.82-.44-.74-1-.06-1.79.29-.39-.32-.68-1-.45-.32h-1.94l-.39.1-.86.45-.54.12-1,.58-3.73,3.08-1.1,1.34-1.82,2.74-.45.83v.57l.78.19.86-.25.63.06,0,1.15-.27.67-.51.79-.56.7-.48.38.36-1.62,0-.32-.48,0-.51.41-.38.61-.15.45-.45.47-2,1.28-.51,1,.27,1,.63,1,.45.86-.3.89-.36.51-.84,1.4-.5.38-.45,0-.48,0-.51.13-.86,1.24-.63,2.13-.62,4-.12,2.17-.24.89-1.79,2.64-1.53,4.2-.56,1.15-.9.64-.45.7-.2.12-1,0-.39-.09-2.12-.83-3.37-1.91-1-1-1.64-3.66-.06-3.89,1.55-3.59,3.13-2.93,1.46-.73.36-.26.18-.29.09-.44-.06-.38-.39-.16-.44-.54.09-1.21.53-2.07-.06-1.5.06-.48.21-.51.57-.83.12-.41.09-1.11.36-.67.53-.45.78-.48.51-.41.77-.76.36-.74-1.4-.66-.09-.83.48-1.72v-2l-.21-1.08-.57-.45-.36-.54.39-1.24,1-2.07,3.76-5,1.08-2.07.54-.66.47-.48,1.29-.93,1.34-.38,1.61-1,3.4-1.21,1.08-.22.68.41.18-.38.3-.22.36,0,.33.29.77-.39,3.37-.76,1.67-.73.48-.35.81-1.59.48-.67.23.47.33,1.05.84.55,1,.22,1.05,0,4.2-.77.57-.44.48-.1,1,0,.48-.1.48-.15.89-.55,2.51-2.22.48-1.09-.57-.86-1.58-1.11-.09-.29-.18-1v-.28l.24-.26.77-.51.18-.06.09-.22.18-.23.21-.32.09-.51-.06-.54-.24-.95,0-.57.3-.83,1-1.37.2-.86.18-.54.48-.74.6-.7.5-.44.66-.22,3.4-.55,1.53-.54.71,0,.18.15.45.61.27.22.44.07,2.57-.23.75-.44.56-.61.66-1.08L547,607l.6-2.17.35-.47.66-.19.24.06.24.16.24.13.32,0,.21-.16.54-.47.39-.26-.21-.54-1.4-1.72-.36-.54-.06-.48.3-.16.62-.16.6,0,.27.19.24.07,1.1.67.69.57.48.13.5,0,.54-.25.06,2.39.33,1.18.8-.07.27.19.12,0,.54.25.27.16.18.25.42,1,.41-.44.09-.45,0-.48.12-.54.24-.41.66-.86-.54-.57.6-.35.71.09-.18.83,3.55.83.54.25.36.42.36.76h.3l.35-.35.21.13.33.86H565l.54,1.49.15.26.27.67,1.82,2.38.71,1.6.57,2,.36,2.14.15,5.66.68,2.71-.09,1-.41.51-4.6,4.42-.95.48-1.91.13-.78.41-.3,1.24v0l-.06.45-.21.92,0,.54.06.07.18.19h0l.54-.22.51-.39.18-.15,1.58-1,5.76-4.9.56-.19.93-.2.63-.47,1-1.24,1-.83,1.35-.64,1.58-.41h5.19l1.88-.29,1.46-.76.45-.61.69-1.43.53-.7.18-.48-.18-.48-.29-.48-.15-.47.06-.61.18-.44.35-.74,0-.22-.06-.48,0-.22.15-.19.3-.22.12-.23.42-1,.12-.48.12-1.75.18-1,.68-1.91.9-1.59,1.25-1.56,1.52-1.25,1.67-.73,1.14,0,.24.48,0,.73.21.73.23,0,1,.23.09.06.3.06.35.2.66.41,1.34,1.59.48.35.75.19,2.5.1-.38.86-.33.92-.18,1v1h.3l.3-1.21.56-.83.87-.28,1.25.41.21-.32.69-.63.18-.07.56-.19.15-.06,0-.29L608,610l-.15-.22-.06-.16.18-1.46.12-.48.18-.32.54-.83.18-.47-.09-.9-.87-1.62-.24-.95.21-1,.54-.64.6-.54.47-.77-.35-.89.06-1,.29-2.07v-4l-.29-2.1,0-1,.41-.92.33-.45.45-.44.51-.23.47.16.51.35.45,0,.45-.13.56,0,.81.23.86.41.72.54.27.61.42.35,3.43,2,.36.32,1,1.4.66.45.89,1.53.57.47.42,0,.95-.6,1-.38.74-.42L627,593l.36-4-.18-.89-.15-.29-.21-.25-.15-.32-.09-.45.12-.54.39-1,.09-.58,0-.6.09-.35.24-.29.42-.38.41-.1.39.45.54,1.11,1.28,1.85.87.73,1,.29,2.84.13,1.88.44.92.07.93-.23,2.38-1.43.42-.48.36-1.08.27-1.66.06-4.9-.12-.83-.27-.51-.33-.44-.21-.58,0-.41.06-.86,0-.41-.15-.45-.38-.89-.24-1.21-.87-1.5-.27-1.37-.18-.35-.21-.28-.08-.19v-1.47l-.06-.25-.12-.67-.93-2.68-.12-.44-.12-1-1.61-6.33-.06-.86.15-.86.27-.77,2.15-3.69.15-.48.5.64.75.76.84.61,1.43.41,1.25.67.9.1-.21,1.11.36,1.34.5,1.37.24,1.21.45.82,1,.9,1.2.51,1-.16L649,559l0,.15-.06.16-.15.2.57,0,.33.23.3.44h.45l.92-.06.42.06.8,1,.39.29.42.15,2.54.39.83.47,1.43,1.41.42.12h.54l.48.1.21.41.08.42.36.54.15.48.48-.93.12-.35h.3v.77l-.06.44-.18.35-.33.35-.48.26-1.25.32-.36.41,0,.64.24.44.45.29.51.22.74.13.48-.13,1.19-.64-.09,1.88.21,1.56.66,1.44,2,2.26.33.19.44.12.6-.06.9-.51,1.46-.48,1.58-1.65.89-.54.87.12.21.71-.24.85-.84,1.5-.29,1.15-.33,2.07v1.59l-.3,2.1.21.54.48.19.53.07.45.19.24.38.48,1.15.29.51,3.17,3.4.39,1,.06.63.53,1.76-.15.7v.41l.57.35-.09.38-.21.35-.12.1-.3,1.08-.5,1.15-.75.92-.95.38L673,599.56l-.26.06v.7l.32.39.87.57v.29l-.18.09,0,0v.07l-.09.16-.57-.23-.44-.12h-1l-.51.19-1.07.89-1.52.73-.87,1.08-.35,1.12.86.95.78,2.14.44.63.39,0,1.43,0,.84.26.42,0,.5-.29-.86-.6-.27-.38.27-.32.48,0,.56.25.57.1.48-.38,1,.51L678,609l0-.1.12-.16.24-.09h.23v.12l.15.38.33.61.9.73.18.45-.33.63.18.13.21.29.21.19-1.17-.06-.45.12-.21.45-.11,1.08.11.22.6-.22.18.8-.33.92-1,1.5-.21.06-.51.32-.36.38.33.19.15.23.6,1.24.36.32.65.12.36.45-.48,1.18-1.37,1.68-.33.8.36.89.66.38.68-.19.69-.41,1.31-.51,1.58-1.37.15.48-.24,4-.14.7.05.67.48.92-1,.67-.51,1.66.12,1.88.84,1.21-.81.86-1.73,1.3-.51,1v.54l0,.67.36,1.27.66,1.18.83.83,1.28.83.21.29.18.47,1,1.63,1,.63,2.24.26.9.38-.3,1-.18,1-.12,2.29.21,1,.83,2.33.36,2.23.27,1,.06.93-.51,1-.51.35-.47.23-.36.31-.15.74.18.16,1,.79-.32,1.05-.06,2.23ZM631.76,541.61l.47,1.56-.06.22-.35.16-.24.32-.27.26-.48-.1-.3-.25-.09-.32-.06-.32-.15-.41-1-1.31-1.64-2.87-1.46-.95-.84-.7-.36-.77-.51-2,0-1,.56-.64h.51l.39.22.74.74,1.79.73.57.41.42.8.63,3.21.41.58.63.67.54.82Zm-39.9-33.88.24.54.12.61.09,1.21-.51.6-3.4,1.79-.72-.64.21-.61.54-.66.3-.83.06-.64.17-.73.27-.7.36-.54.57-.35.62,0,.6.38Zm3.73-1.05,1.67,1,.75,1.3-.54,1.12-2,.51-2.3-.83,0-1.66,1.17-1.4Zm59.14-1,.42.67-.21.54-.6.32-.65.13h-.81l-.45-.06-.35-.23-.48-.57-.45-.32-1.61-.76-.84-.58-.2-1.2.35-1.25,1-.6,1,.44.57,2.36.72.83.68.09,1.41-.09ZM384.89,489.9l.32.57.27.67.12.67,0,.67h-.3l-.23-.19-.27,0-.36.19-.36.29-.18-.76-.51-.48-.53-.29-.24-.22-.12-1.82.12-.63,1.79.79Zm-.84-6.11.69.48.15.38-.18.41-.81.77-.86.7-.27.12-.6-.25-.12-.61.12-.63.15-.38.09,0,.77-.38.21-.2.12-.22.15-.16Zm217.39-17.13.95.44.15,1-.39,1.63-.29.54-.75.22-2.6,0-1.1-.29-.93,0-.12.39-.14.25-.33,0-.24-.19-.15-.28-.09-.29-.12-.22-1.46-1.63-.51-.83-1.16-3.18-.27-1-.18-.45-.93-1.17-.26-.42.83,0,2.18-.7.54-.06,1.67.13,1.16-.1.42.06.78.32.8.54.63.7.48,1.66,1.07,2.39Zm9.4-3.25.27.51.29.38.45.29.78.13-.18.47-.09.51,0,1.12-.15.54-.33.41-.3.16-1-1.27.09-.16-.06-.48-.27-.25-.63.57-.62-1.62.33.12.29.19-.12-.76-.38-.73-.6-.54-.57-.23-.39-.22-.2-.51-.12-.6-.18-.42-.3-.48,0-.38.42-1h.29l.06.09.45.51,1.46,1,.21.16.15.22.09.29.06.31.12.26.66.32.12.44ZM501.05,141.25l.87,1.27.36,2-.21,2.1-.57,2-.8,1.6-1.14,1.52-.68.67-1.47,1.08L496,154.88l-.24.35-.21.6,0,.61.12.41.18.35.06.45v1.62l.27,1.56v.57l-1.88,8.95v.51l.12,1.08,0,.38-.27.61,0,.35.18.35.6.7.12.41,0,4.21.27,1.24,1.34,3.53.15,1.18.39.92.8,1.15.66,1.18,0,1.21.21.51.12.79.21.7.5.29.15-.06.24-.16.3-.13.39,0,.77.8.36.19.54,0,1.19-.51.54-.13.71.32.36,1.46.54.51-.21-1.08.75.48.89,1.27.36,1.28-.81-.67-.47-.19-.21.41.12.7.39,1.34.09.57-.09.7-.45,1.47-.06.63.33.77,1.07.86.42.67.15-.23.3-.22.15-.22.68.22.42-.45.48-.35.8.58.42.89v.89l-.33.89-.56.77-.21.44-.15.61-.18.51-.36.25-.18.22-.48,1.15-.56,3.73.21.79-.69,1.43-1.13,3.38-2.15,3.88-.39,1.34-.84,2-.3.54-.59.73-1.08,2.42-.59.89-1.47,1.28-.35.44-.27.32-.21.45-.09.41v1l-.12.22-.78.57-.29.7,0,.51.53,1.4.3-.63,0-.35h.3l-.3,1.65-1.43,3,.21,1.24.77-.73.75-.58-.15.67-1.07,2,0,.28.09.74-.06.28-.24.13-.69.06-.24.1-1.22,1.65-1.46,1.28-1.38,1.49-.15.1-.14.13-.15.25-.09.38,0,.39.06.31v.23l-.63,1-1.88,1.27-.81,1-.26-.35.86-1.31.45-.86.18-.92.33-.67,2.08-1.47.27-.76.24-1.11.39-1,1.34-.86.36-.89-.24-.8-1.19-.12-.9.38-.44.67-.15.82v.9l-.3.73-.72.44-1.67.58-2.51,1.4-.62.22-1.58.22-1.56.48-.53.42-.54.54-.6.47-1.31.32-.51.29-.47.19-.36-.13-.36-.19-.39.16-2.95,2.64-.24.51-1.58,1.95L470.38,259l-.69.6-.45.77-.32,1-.3,2,.09,1.14.68,1.69.18.93.45.41,1,.13,1,.28.48,1-.27.7-1.82,2.26.71.16.39.19.39.29-1.64,1-.78.64-.3.8-.2.92-.57.7-2.33,2.1-.33.57-.38,3.06-.27.89-.39.77-1.64,2.26-.75-.19-.51-.23-.32.23-.36,1.21-.12,2.1.54,2,1,1.66,1.28,1.05,1.11.64.56.63.27.93.9,4.77.3.54.53.51,1.41,2.42.29.8.18,1.27.48,1.28.69,1.18.77,1.05-.24.12-.44.39-.21.12,1.79,2.26.3.51.33.42,2.71,2.26.54.67.06.51-.81.19-1.61.06-.92.19-.9.35-.66.64-.23.73v2.1l.08.83,1.62,5.73.17,1.69.48,1.85.33.76.54.76,1.85,1.88.45.8.06.67-.21,1.62.18.35.83.83.18.45-.09.76-.21.7-.36.57-.53.42v.32l.56.51,1.55,2.41,3,2.27,3,3.28.84.66,6.62,2.74,6.27,1.47.06-1.25-.51-.92L496.1,352l.84-.28,4,1.17.2-.12.09-.61-.18-.83.15-.22.6-.13v-.28l-1-.32-1.7-2.13-.72-.51-1.16-.42-1-1.11-.69-1.37-.32-1.34.44.35.12.22.06.45h.27l0-1.11.51-.67,1.58-.86.54.28.15-.79v-1.12l.18-.67.5.16.15.93-.12,1.14-.21.74.33.44.09.54,0,.61.15.67L500,345l.06.19.3.28.21,0,.18-.23.12-.28.09-.19.2.51.09.57v1.21l.81-.38.72-.64.44-.86.12-1.05-.18-.32-.62-.95-.09-.35.15-.58.27-.35.29,0,.18.58h.3l.06-.48,0-.35-.12-.29-.21-.19h.81l.45-.28v-.55l-.51-.63,0-.39.65-1.52.33-.54.27.63.39-.19.39-.64.15-.76.65.32.6-.32.57-.54.56-.45.54,0,.51.22,1.07.8-.21-.22-.41-.77,1-.12,2.09.89,1.13.22-.12.64.27.47.39.1.36-.57.15.7.39.51.41.06.24-.6,1.26.12.53.16-.71-1.18-.12-1.11.36-.51.77.57.3-.35.33.77.42.67.59.09.78-.89.21.32.21.19.26.13.69.09.06.13-.06.19.12.26.69.82.29.13.66,0,1.25.26.87.63,1.31,1.72.06.23-.06.35,0,.25.18.13.57,0,.24.1.24.19,1,1.62.51.41,1.61,1.92.42.63.42-.28.47.19.42.44.21.61-.15.73-.33.6-.24.64.12,1,.9.95,1,.7.15,0,.12.67-.12,2.2.3,1.27,0,.38-.24.42-.3.12-.33.1-.29.32-.21.57-.33,1.85-.06.54.12,1.66.72.92,1,.7.84.92h.32l.93-.51,1-.06,2.36.25.45-.12,1.31-.58.51-.28,1.52-1.88.24-.57.09-.32.18-.29.06-.32-.3-.6-.51-1.72-.68-1.05,0-.7,1.46-1.12.18-.19.35-.29.24-.6.15-.76,0-.61-.45.51-.53,1.43-.39.32h-.6l-.41-.09-2-1.31-.51-.57-.21-.8.42-.38.74-.29.39-.32-.66-.44L543,350l.12-.55-.39-1.2.39-.23.89.29,1.41.73v-.29l-.18-.15-.42-.51,1.28,0,.24,0v-.35l-.36-.83.21-.16.57.29.36.66.39,1.69-.72.19-.15.58.18.54.27.12.77-.76.36-.25.51-.13-.21.32-.42,1,.45-.19.18-.09.27.28-.18.86.86,1.31-.35.76.29.42.21.47.09.55v.54h.3l.21-.61.36-.44.27-.61.06-.95.86.25.57.29.39.47.27.93,2-.19,3.23,1.3,3,.61,1.34-2.36,1,1.75,1.37,1.56,1.7,1.28,3.14,1.43.12.16.06.16.11.12.54.2h1l.53.16.27.31.63,1.34.71.73.18.51-.29.7-.75-.63-.27-.32-.21-.38h-.27l-.06.22-.24.44-.65-.35-.75-.19-1.46-.12-.39.41-.59.89-.78.89-.93.42-.77-.23-1.61-.86-2.39-.38h-.92l-.42.32-.39.38-.93-.32-1-.57-.69-.29-.77.29-.45.61-1.37,3.94-.09,1,.39.1.14.12-.08.29-.12.19,0,.26v.51l.15.54.26.16.39-.16.39-.38,1.43,2,.21.29.33.31,2.68,1.5.54.73,1.11,2,.18.19.59.38.12.26V380l0,.41.24,1.34.51,1.05.68.76.78.32.78.41.47,1,.69,2.07.18-.79.48.19.5.67.33.63-2.89-.19-1,.38-.33,1.25-.12.79-.2.64-.12.6.14.74.75,1.37-.09.57-.95.32v.35l.18.32,0,.22-.15.41.92.51.36.13.51,0,.44-.19.66-.61.24-.13,1.64-2.26.24-.44.18-.38.24-.32.53-.16.51.13.48.7.39.16.42,0,.32.09.21.26.06.41.27,0,1.52.45.6.32.69.54.56.64.24.6,1.94,1.78.45.32.42-.44.92-2,.18-.63.45-.23,1,.29,1,.44.5.29.15.86-.12.86-.35.51-.54-.29-.54.7-.27.55-.41,1.33-.78,1.72-.12.42.12.76.63,1.05.41,3v.79l-.59,5.7-.27.7-1.25.89-.27.67.15.83.18.48,0,.38-.6.45.21.31.39,1-.51.16-.75.57-.51.19-.53.07-1.41-.07-1.19-.44-1-1-1.23-2,.09-.51-.15-.06-.32.12-.36.1-.66-.8-.89-.44-.39-.7-.3-.93-.9-1.72,0-.92.18-1,.06-1-.3-1.18-.53-.51-.72-.32-.86-.6,1.13,0,.84-.35.62-.67.45-.89.48.25.68.77.33.25.42.19.24,0,.24-.1.44-.06.54-.13.12-.38,0-.48.21-.44.45-.22.44.09.42.19.3.1.72-.35.68-.67.51-.86.18-.86L576.4,401l-.89-.29-2,.32-.78-.12-1.34-.67-.75-.16-.51.38-.32.89-.24,1-.24.64-1.05,1.17-.71.54-1,.29-.41.22-.27.07-.24-.1-.39-.44-.27-.1-.21.16-.47.83-.36.25-.18.1-.24.19-.18,0-.24-.64-.36-.63.48-.19.36-.32.06-.32-.45-.16-1.13.06-.27.16.21.26.12.38,0,.48-.93-.93.42-1,.72-1.05-.21-.16-.33.16-.45,0-.51.13-.23.31-.09.42-.18.38L560,404l0,.19-.12,0h-.6l-.71-.19-.48-.16-.3-.16-1.19-1.5-.51-.44-.84-.51-.47-.16-.36-.1-.33-.12-.45-.38-.65-1-.87-.51-.77-1.56-.39-.35-1-.13-.74-.19-.72,0-1,.35-1.38.83-.89.31-.42-.35-.18-.76-.36-.86-.15-.83.39-.6-.62-1.69,1.13-3.73-.21-1.75-.69-.82-1.64-1.25-.65-.86-.18-.41-.24-.73-.18-.45-1.19-1.3.26-1.31-.41-1.62-.81-1.34-1-.57-1.26-.39-2.29-1.52-1.23-.35-.74-.13-1-.45-.69-.09-.41-.23-1.05-1.05-2.71-2.07-.57-.22-.6-.38-1.31-1.69-.63-.57L525.7,366l-2.12-2.52-1.07-.95-1.31-.74v.32l-.27-.32.27-.31.53,0-.21-.38-.59-.54-.6-.35-1.7-.38-.42-.29-.5.54-.57.07-.57-.32-.45-.61.09-.19.3-.25.21-.29-.15-.38-1.31-1.4-.54-.35-.6-.26-.53-.09-.18-.32-.12-.61-.24-.41-.51.32-.21-.45-.56-.7-.12-.28-.15-.13-.9,1.27-2.47-.16-1.05-.38-.83-.76-.12.63.33.77.56.6.6.26.15.38,2.12,3.25.44.82-.05.58-.24.7,0,1,.38,1.68-.95-.22-.24.92.27,2.11.27,1.17.68,1,1.62,1.69,3.1,2,.63.73-.15.76-1-.51-1.85-1.52.24.76,1.13,1.88,1.91,2.39.51.82.39.93.42,2,.18,1.75v1.95l.09.54.17.35.21.28.12.32.09,1,0,.57-.06.38-.24.16-.41.13-.36.19-.18.32-.45.51-1,.6-1.11.51-.74.16-.75-.51-2.86-2.58.12-.95.44-1.69.06-.73-.8-2.74-4.3-6.05-.09-.32-.09-.6-.15-.35-.83-.86-.27-.42-1.23-.54-.26-.63-.72-.83h-2.63l0-.64-.77-.29-1.49-.12-.57-.38-.18-.42-.18-.79-.24-.42-.36-.48-2.35-4-1.11-1.34-1.43-1.14-.27.92-.66-.22-.74-.64-.57-.35-.83,0-.18-.09-1.55-1.53-.57-.35-.54-.19-.48-.07-.47-.16-.9-.82-.48-.39-.5-.25-1.41-.41-.62-.71-.48-.86-.69-.73-.35,0-1.65-.6-.68-.35-.27.66-.78.48-.15.64-.32.25-2.06.58-.24.22-.66.76h-.39l-.74-.19-.21,0-.57.42-1.25.48-.84.6-.3.16-.32.1-.75,0-.18,0-.45.32-1.31,1.53-.92,1.08.32,3.31-.17,1.21H464l.27.1.51.19-1.28,1.49-.21.32-1.79-.48-.6,0-.84.48-2.5,2-.84.95-.68-.25-.63-.39-.18-.19-1.19-.51-.57-.12-.78,0-.38-.12-.36-.26-.48-.22-.69,0-1.43.32-.69.28-.59.38-.45-.15-1-.23-.39-.25-.21-.45.15-.25.24-.26.15-.51.12-1.18.14-.82,0-.77-.59-1.75-.15-.16-.87-.6-.53-.29-.57-.13-.45.16L440.3,366l-.36.26-.33-.29-.24-.54-.06-.54.18-.26.36-.25.24-.54.15-.54.18-.26L441,363l.29-.23.15-.41v-.64l-.71-.76-.15-.22,0-.54.24-1,.06-.54,0-.77-.12-.8-.27-.7-.48-.47-.8-.26-3.91-.54-1.79-.48-1,0-.83.32-.33.64.15.86.59.92.36,1-.83.19-1.79-.35-.42.63.15.9.38,1,.21.92-.26.58-.63-.45-.93-1.24-.35-1.72-.06-4-.75-1.78.69-.13.5-.45.27-.48-.15-.25-.5-.29-.12-.73.21-2.77-.12-1.3-.51-1-1.2-.38v-.35l.69-.35L427,344l-.36-.41-.68-.42h.41l.3-.06.51-.26v-.31l-.63-.58.39-.86.72-.89.39-.76.26-.8.69-.35,1.76-.32.63-.25.65-.45.54-.51.24-.57L433,336l1.07-.47.36-.26.93-1.56,3.85-4,.35-.16.51,0,.93.06.29-.12.78-.89,1.16-.9.45-.63.15-.89-.18-1.12-.92-1.62-.36-1-.33-1.94-.27-.67L440.45,318l-.18-.6-.36-.29-2.06-.89-.15-.25v-.29l-.15-.29-.44-.09-4.3-.16-2.69-.51-.26-.07-.36-.12-.6-.26-.42-.41-.18-.58,0-1.62-.06-.79-.26-.67-.06,1.52.06.42-.12.16-.48.48-.15-.32-.15,0-.3.35.51-3.16-.18-.76-.69-.1-.35.93-.18,2.1-.9-.51-.33.6v.48l0,1.88-.42,3.06.12.95,1.71,2.07.17.54-.23.54L426,322l.83,3.34.18,2.17-.42,1.81-1,1.24-1.67.29-.42-.1-.3-.19-.33-.09-.47,0-.12.22-.06.32-.24.32-.63.16-.18-.16L421,331l-.21-.35-2-.64-.35-.16-.9-1.18-.21-1.3.21-2.87-.15-1.59-.48-.89-1.79-1.28-.47.29-.45,0-.36-.19-.21-.41h-.3l-1.4-2.14-.48-1.49.84-.67.51-.16-.33-.35-.93-.57.15-.54.33-.42.42-.38.3-.45.27.07.23-.19.24-.39.15-.5-.71-.07-.33-.13-.15-.25-.06-.54-.15-.26-.33,0h-.51l-.44-.35-.45-.64-.48-.31-.57.63.24,1.12-.21,1.65-.41,1.6-.51.82-.6,0-.8-.19-.69-.28-.3-.35-.24-.54-1.1-.42-.45-.48.36-.16L405,313l.15-.28.15-.38-.18.09-.72.26-1-3.57-.3-1.82.3-4.29-.15-2-1.52-6.81-.42-.45-.27-.19,0-.47.15-.83v-1.09l-.18-.38-.9-1.43-.71-1.59-.48-.73-2.45-2.58-.38-.86.12-.42.62-.44.15-.26,0-.44,0-.35-.24-.67.84.54.86-.19.72-.77.3-1.08-.09-.32-.21-.38-.24-.29-.24-.12-.09-.23-.12-.54-.18-.57-.35-.35-.06.22-.24.48-.78-1.85-.12-.63.12-.51.57-1.24.21-.67-.12-1.37-.75-.7-.92-.61-.63-1.21,1-.25.2-.74-.26-2,.15-.83.2-.7.09-.73-.15-1-.68-1.94-.54-1-.57-.67-1.1-.32-.69.67-.56.74-.63-.1-.15.19-.48.45-.65-1.4.09-5.45.09-.79.65-2,.15-1-.15-.41-.62-.73-.12-.48-.09-1.5.09-.63.77-3.06.27-2,.39-.92.48-.76.47-.48.18,0,.51.06.18,0,.75-.54.17-.1.72-.22.93-.1,1.07.32.42.77v.95l-1.05,4.49.57.42,2,.5.45.23.27.41,1.25,1.43.45.29h.95l.57.06.48.39.8.86.36-.13.15.19.39,3,.24,1,.56.64.87.48,2,.6,1,0,.93-.22.77-.54.45-.16,1.49-.16.63.51-.33,1.31.54-.48.5-1,.48-.48.3.19.51.1.48-.13.17-.51-.26-.35-.57.16-.6.22-.36,0,.15-.64,1.55-1.4.39-.73.18-.48.84-.95.21-.54v-1.91l-.21-1.12-.51-1.11-1.4-1.88v.95l-.21-.38-.3-.28-.24-.32-1.07-7.84-.57-1.78.33-2.45-.36-1.15-.6-1.14-.35-.93.38-.41v.19l.15.1.3.06.48,0v-.32l-.21-.61,0-1,.24-1.09.8-1.68-.12-1-.32-1.05-.18-1.05.09-1.06.09-.44.15-.48.29-.57.33-.29.33-.22.42-.42,3.34-5.31.3-1,.09-1.24-.87-8.18-.09-.26-.44-.67-.09-.38,0-.73.41-2-.18-2.8.12-.26.81-.92.36-.54.18-.45.06-.44,0-.54-.39-1.63-1.46-3.56,0-1.06-1.94-.54-.75-.41-.3-.86.84-5.83.45-.44.95-.13.75-.32.44-.76.18-.89v-.64l-.36-.73-.47-.54-.27-.51.33-.7,1-1.31.24-.7.06-1.08-.18-2,.12-.67,1-1.56.93-2.07.21-.6,0-.83-.06-1.05-.18-1-.24-.63.12-.64,2.45-5.45-.12.07-.15-.16-.09-.29v-.28l.12-.1.21-.06.21-.1.06-.19.2-.61,1.29-2.51.57-1.59.32-1.88-.06-2-.5-1.81-.51-1.27,0-.83.39-.73.89-1,.9-.8.71-.15,1.85.44.9-.09,2-.71.8-.19.75-.41.21-1V131.6l.12-.83.6-.7.89-.38.93-.1.71.35.66.9,1.13,1.94.78.6.77.07.87-.29.75-.45.26-.44.36-.38,1.73-.89.63-.23.42,0,.92.1.42-.07.45-.28.5-.45.51-.29.51.19.36.23.47.16,1,.12.51.13.27.38.23.45.33.35,2.18,1.15,1.13,1.08,4.27,2.32.63.58.6.41,1.4.41,3.22,2.33.36.13.6.06.26.13.27.31.27.42.36.38,2,.7.92,1.24.72,1.31.87.86v-.29l-.66-.7,0-1,.45-.7.62.23.57.47,7.85,3.22,1.88.41.92,0,2.51-.35.54-.2,2.29-1.43,1.71-2.86.56-.45.87-.19.33-.48.15-1.65,1-3.38.3-.54,2-.22.92,0,.66.35.33.73.18,1.94.21.8.38.51,1.2,1.11ZM411.89,761.69l.06.7-.66,2.87-.23,1.85-.24,1-.45.67-.66-.22-.44-.29-.3-.48-.09-.76.27-1.4,0-.64-.3-.38-.3.1-.12.31-.06.39-.12.19-.24.06-.77-.06-.33-.19-.33-.42-.27-.54-.15-.48-.45.7-.12,1.5-.32.67-.63.29L404,767l-.59-.29-.51-.16-.87.13-.35.38-.18.54-.36.57-.33.1-.42,0-.33,0-.14.38-.3,1.43-.72.58-.45-.13-.41-.35-.51-.1-.36.26-.6.86-.38.19h-1.38l-.56.25-.39.26h-.36l-.48-.51-.09-.57.09-1.63-.27-.73.39-.38.33-.19,1.55-.54,1.34-.7.27-.26.27-.09,1.52-1,.6-1.15.36-.35,1.37-.25,1-.42.38-.09.33-.13.72-.83.45,0,.32.16.3.06.42-.19.09-.22L405,761l.18-.35,1.16-.73.42-.58.54-.28,1-.38.84-.61.47-.19.42.06.27.35.06.55v2.41l.18.36.33,0,.36-.16.35-.07Zm14.68-52,.3.22.21.38.15.48.06.38,0,.93-.93,3.18-.23.48-.33.35-.45.22-.63,0-1.7-.28-.51-.23-.26-.51.15-.35.44-.19.57,0,.3-.22L424,714l.26-.61.12-.44.15-.35.63-1,.24-1,.33-.48.39-.35Zm74.48-11.78,1.41.89.27.51-.6.67-.93.28-2,.07-.8.47-.45.61-.42.67-.29.7-.21.73-.24,2.13-.42.77-1,.32-1,.06-.95.19-2.81,1.15-.81.19h-1.91l-1.43.25-.21-.12-.06-1-.09-.41-.17-.35L482.88,704l0-2.46-.18-.89-.86-.38-1-.1-.8-.35-.33-1.24.18-1.21.48-.73.74-.38,4.42-.38.36-.16.41-.67,1.73-.8.66-.83.45-.31.74-.13,1.17-.06.36,0,.38.19.63.67.33.28.45.19,1.1.29.48,0,.15.19.24.45.32.45.51.19,1.94.28.45.23.27.28.21.26.24.22.47.22,1.11.35ZM337.17,680.47l-.74-.32v.48l.44,1.11-.53.38-.66,0-1.16-.35-1.38-.16-.42-.32-.32-.79,0-.54.18-.42.41-.35.66-.32.81.19.53-.12.45-.23.57-.12.62.16.36.41.51,1Zm-63.32-49.2-.18.93,0,.41.09.26.42.6-.21.32-.45.25-.24.29.06.73.45,1.69.12.92,0,.26-.24.41-.06.16,0,.89,0,.07.3.32.09.19-.21.09-.09.07-.33.35-.06.09-.18.51-.5.61-.66.51-.75.12.48.83-.36.29-.71-.1L270,643l.24-.73-.24-.73-.86-1.47-.9-2.35,0-.26.3-6.37.48.35.09.48.06.48.26.32H270l.24-.58.12-.7.36-.35,2-.35h.77Zm-2.39-.47-.42-.45-.23-.48-.27-.41-.57-.29,1.34-1.21.81-.32.54.58.47,1.43,0,.32-.35.22-.45.06-.42.13Zm6-5.13,1,.06.65.45,0,.54-.89.26-1-.32-.42-.64.12-.48Zm6.86-6.78,1.32.92v1.34l-.3,1.4.48,1.18-.36.57-.39.48-.45.16-.59-.26-1.26.7-.48-1.08-.14-1.69-.24-1.14.3-.64.11-1.4.21-.54.39.22h.36l.39-.19.36-.32v.19l.06.07h.11Zm-3.58.35.45-.32.33,0,.15.35,0,.61-.9.86-1.25.82-1,.13-.39-1.21.36-.54,2.32-2-.09.61-.06.12-.15.23Zm328.75-41.46.39.32.42.8.24.89-.33,1.33.06.77-.06.76-.57.61-.35.16-.42.09-.33-.06-.24-.64-.3-.09h-.42l-.35-.07-2.63-1.37-1.1-1.11-.45-1.56.45-1.72,1.13-1.11,1.55-.35,1.64.5.75,1.15.39.51Zm-47.35,1.63.18,0,.53.32.33.41-.3.16-.53.79-.21.23-.36.06-1.28-.06-.33,0-.24.16-.12.25-.06.35-.15.39h-.33l-.74-.23-.84,0-.77-.13-.75-.35-3.55-2.7-.39-.64.15-.54,1.1-1.08.78.47,1-.16,1.05-.6,1.31-1.18.33-.19.21-.32.09-.76.24-.51.53-.22.66,0,.6.19.39.67.62,1.4.36.28.72.29-.15.64-.45.64-.27.28,0,.54.15.35Zm107.57-31.18.36.58.27.73-.09.64-1,.41-.71.64-.39.22-.45.1-1.16-.1-1.7-.67h-.54l.3,1-.66-.55-.62-.73-1.11-1.59,0-.22.09-.19.06-.23-.12-.35-.27-.16-.32,0-.33-.1-.3-.41.6.06.56-.06.54-.23.42-.44-.51-.22L662,546l-.41-.5.14-.67,2.69-4.56.18-.41v-.45l-.15-.41v-.41l.3-.51.83-.64.42.16,2,4.68.48,2.55v.51l-.21.47-.66.67-.32.45.83.13.57.22.48.35ZM600,546.29l-.69.45.89,1,2.36,1.82-1.1,2.45-.12.57-.48.26-1.07,0-1.14-.19-.62-.2-.15-.38,0-.47-.15-.39-.63-.06-.3.25-1.34,1.5-.42.26-.54.19-.47.31-.18.58,0,.6-.12.51-.18.48-.3.48-1.25,1-1.88.86-1.94.54-1.49.16-1.7-.1-6.81.48-5.55-1.05-2-.67-.89-.61-.39-.79.15-1,.27-1,.06-.79-.48-.64-.81-.13-.89.07-.72-.19-.3-.83.09-1.12.27-1,.84-1.88.56-.67,1.53-1.4.29-.7.12-.61.33-.09.6.25.42-.16.24-.38.17-.41.24-.35,1.41-.55,2-.51,1.79-.82.77-1.53.06-1,.24-.76.48-.48,1.28-.32v-.32l-.09-.41.12-.41.33-.32.57-.38.26-.26.69-1,.36-.28.77-.35,1.65-.35h1.79l3-.45.81.51.26,1.91.48-.44.69-1.15.62-.38.15.63.33.9.48.6.51-.16,2,1.88.56.35,1.35-.06.44.16.78.54,1.28.7.48.48-.21,1.17v.86l-.12.42-.54-.74-.11.9v.73l-.06.41-.39.86.68.64.54.86,0,.76Zm50.31-1.91.09.8-.3.63-.66.32-.92-.16-.66-.54-.12-.7.06-.79-.18-.86-.42-.35-1.22-.42-.45-.54.45,0,.12,0-.36-.25-.15-.23,0-.22.21-.26v-.28l-1,0-.42-.8.09-1.14.48-1,.2.38.33.19.27-.13.09-.6-.09-.22-.6-.77-.2-.44h-.3l-.21.57-.3,0-.36-.19-.48-.13-.26.23-.33.47-.42.39-.63-.1-.33-.48v-.63l-.11-.58-.6-.22-.09-.25,0-1.21-.09-.48.66-.32.38-.83.09-1-.24-.76.33-.16.33,0,.27.16.3.32-.15-.73-.3-.64-.09-.64.54-.57-.24-.13-.09-.13-.09-.19-.21-.22.18-.73-.36-.83-.06-.7,1-.32.53-.06.21-.29v-1.08l-.12-.35-.15-.22,0-.23.3-.35.21-.12h.3l.27.09.27.54.33.13.38-.1.3-.19.21-.47.09-1.82.33-1.11.24-.51.33-.29.53-.06.33.25.63,1.08.56,1.56,0,1.69-.83,3.22-.15,1.18-.15.41-.15-.1-.36-.06-.32.19-.06.61.35.41.63.54.36.64-.45.7.3.32-.48.28.12.48.51.35.74-.16-.32,1.31-.06.79.24.64.71,1,.27.57.09.57-.15.61-.3.73-.33.64-.29.28.14.32.33,1.88-.5.76.41.77.72.73Zm-251.5-32.54,1.05.41,1.1.7.51.7-.9.45v.32l.09.41-.39.42-.68.16-.78-.35,0,.31-.12.23-.09.19-.09.22-1-1.56-.45-.35.15.92.24,1,.12.86-.24.79-.36.1-.51-.1-.41,0-.21.44-.15.29-.39.13-.78.06-.65.19-.6.35-.65.13-.78-.51-.36-.73-.12-1,0-2-.54.22-.38-.16-.21-.26.06-.15,1.82-1.44.42-.54,1-1.94.39-.54.24-.23.27-.09.41.06,1.38.86,1.28.58Zm120.35-6.15,1.16,1.92,0,2.54-.68,2.58-1.5,3.73-1,1.62-1.31,1.27-1.73.51.44-1.27-.44,0-.72.61-.33.35-.24.16-.77.63-.48.13-.27-.16-.18-.44-.3-1,0-.22.06-.55,0-.19-.21-.16-.56-.12-.12,0-.18-.12-.39-.45-.15-.51.54-.22.54,0,.41-.06.3-.23.12-.54.12-.38.75-.35.32-.38-.8-.19-.33-.8,0-1,.36-.76.51-.7.68-1.43.48-.61.69-.38.77-.19.66-.32.45-1.78.47-.67.6-.54.51-.67,1.28,1Zm37.63-4.52.06.23-.21,2.19-.42.89L555,506.33l-.72,1.88-1.34,6.21-.54,1.05-3.67,4.2-.45.73-.59,1.37-.9,2.11-.15,1-.06,3.12-.21.93L545,531.84l-.18,1.08,0,1.14-.15.93-.27.83-2,3.18-.38,1.15-.3.31-.33.29-.12.22-.6,2.11-1.25,1.46-.6.83-.24,1.08.6,8.06-.27,1.11,0,.48-.15.67-.3.06-.41-.13-.33.19,0,1.25,1.82,1.33-.3,1.28-.42-1-.74.48-.36,1,.77.55,1.2.19.42.47.06.8.26,1.08.6.67.93.61.8.73.69,2.16.77.86.9.8.69.92L546,573l-.47,2.14-.84,2-2.39,3.66-.21.77-.38.6-3,2-.56.16h-1.56l-.53.09-.87.41-1,.2-.69.44-.39.1-1.88-.64-1.43-1.5-1-1.91L527,576.79l-.24-3.15-.27-.83L526,572l-1.07-1.15-.72-.54-.75-.22L520.6,570l-.9-.19-1.91-1.12-.62-.16-.42-.16-.33-.41-.3-.41-.29-.32-.54-.16-.6,0-.45-.13-.12-.22-.26-.64-.9-1.15-.8-.73-1-2.19-.6-.51-.47-.2-.36-.41-1.32-2.93-.41-.67.33-.41-.15-.38-.78-.83-.24.19-.42.29-.23.19.08-.67.27-1.21,0-.7-.27.16-.68.32-.27.19.06-1.88.24-1.72,0-1.53-.66-1.34v-.28l.48-.48,1.67-3.22.78-2.07.56-.41.9-.13,1.85-.44,1,0,2.87.61.71.35.63-.41,2.21-.51.89-.51,2.36-2.61,1.11-.77.83.54.78-.44,1.22-1.56.27-.83-.12-1.18-.6-2-.3-2,.6-5.76-.42-2.07L523.94,518l-.33-2,.42-.83.81-.41.8-.22.36-.29.24-.45,1.55-1.68,1-2.39,0-.45,1.64-3,.18-1-.18-3-.15-.22-.63-.51-.15-.26.06-.95.09-.38.18-.42.36-.57,1.19-1.4.39-.29,2-.09.86-.2.87-.35,3.61-2.42,1.88-.89,2,.07.09.19.12.32.21.31.33.16.8-.06.21.06.51.32.77.77.51.22.54-.07,1.1-.5.48-.07.6.32-.12.38-.27.42.06.47.39.29.32-.19.36-.41.45-.32.63-.13.47.1.45.19,1.55.41.84.35.6.7.26,1.88.24.41.6.89.12.1h.18l.15,0Zm20.62-.16-.15,1.15-.75,1.88-.27,1,.15,1.88,1.17,3.79.17,1.75-.11,0-.33.16-.3.25-.18.19,0,.26.27.13,0,.28-.06,3.7-.18.79-1.13,3,0,.45.36.64-.15.41-1,.7-.09-.54-.21-.32-.27-.06-.3.28-.09.42.09,1.65-.5.16-2.39,1.37-.72.57-.92,1.6-.51.28-1.1.07-1,.19-.65.48-.87,1.27-2.36,2-.33.74-.08,1-.21.7-.39.55-.54.47-.36.23-.53.19-.27.25-.21.29-.18.35-.15.41-.06.38v3.7l-.54,2.48-.09.93-.18.38-.41.25-.42.13-.18.19-4,10-.27,1.82-.65,2.29-.36.83-.39.44-.78.51-.35.32-.39.54-.57,1-2.33,2.9-.47.48-.72.41L546,568l-.29-1-.3-2.64v-1l2.24-13,1.73-4.36.18-.92.05-1.15-.17-.25-.84-.45-.18-.25.15-1.47.15-.32.36-.19.24.16.18.26.11.06.21-.32.06-.38,0-1.05.21-1.21.57-.83,1.61-1.34,1.55-1.81.6-1.08.51-2.11,2.09-3,.68-3,.39-.7.75-.83,3.67-5.22.2-.74.09-.22.21-.25.18-.32.12-.51L563,515l.06-.57.42-1,1.1-1.4.48-1.91.54-1.08.66-1,1.7-2,.77-1.31,2.9-8.78.8-1.47-.18-1.08-.53-1.66L572,491l.47-.61.42-.7,0-1.11h.3l.15.35.18.22.56.38-.5-2.51-.24-.55-.15-.66.3-.9L574,484l2.12-3,1.2-.86,1.25.38-.09.32-.21,1.37-.54,1.34-.17.89-.18,1.75-.27.86-1.32,1.69-.5.79.42.19.14.35.06.32.15.16.87-.06.39-.13.38-.16-.11,1L578,494l-.09,1-.27,1.5.06.86.54,1.12.06.5-.15.48-.62,1.08Zm-10.75-16.23.48.63.27.51-.12.32-2.86.32-.15.09-.54-.7-1.1-3-.15-1.11.15-.55.32-.54.75-.92.57-.41.35.16.3.47,1.23,3.79Zm-180,29.48,1.85.92.47.67-.65,1.15-.36.16-1,.25-.44.22-.9,1.44-.36.25-2,1.85-.74,1.18-.57.32-.89.12h-1.82l-.51-.06-.72-.29h-.41l-.6.26-1.34.86-.9.19-.86.32-1,.7L369.79,528l-1.26,1.85-.86,2-.72,4.46-1.07,1.31-1.61.73-2,.57-.48.19-.87.58-.44.22-.51.06-1.08-.12-.47.06-.45.19-.87.54-.47.22-.48.13-.93.16-2.11.13-1.23.32-1.13.6-1.28.93-1-.29-.95.54-.75,1-.3,1.18.18,1.49.93,2,.38,1.21-.29,2.51-.57.26-.69-.2-.6-.47-.23-.67.18-.86-.18-.22-.75-.07-.51.29,0,.73.15.86-.15.7.48.26.3.38.06.44-.21.55,1.16-.2.66.61-.06.76-1.16.1.06.7-.27.89-.42.86-.42.61-.24.41-.06.35-.18.29-.89.16-.24.22-3.34,5.79L338,567.85l-.24.47-.21.86-.48.9-1.67,2.35-.24.23-1.64,1.14-.39.13-.65.41-2.18,2.49-.69,1.27-.51.48-.77.16h-1.76l-.48.12-1,.67-.51.19-2.66.13-.77.35-.36.26-1.14.57-.2.19-.24,1.43-.6,1.25-.06.22.06.51v.22l-.18.06h-.3l-.3.1-.12.35-.14.86-.39,1.11-1,2.07-1.94,3-.56.48-3.94,2.22-3.08,2.58-2.89,3.35-.81.6-1,.26-.93.09-.59.26-.51.32-.81.28-.89.07-2.54-.35-1,.44-.36,1.08,0,1.95-.36,1L293,608.73l-.27,1-.18.51-.42.29-.42.06-.2-.19-.21-.45-.51,0-4.09,1.27-1.46.7-1.16.93-.15.25-.33.8-.15.22-1.49.48-.27.8-.63.66-1.16.93-1.08,1.33-.32-.15-.09-1.31.09-.57.41-.93.21-1,.3-.42.3-.28.18-.23,0-.44-.06-1,0-.73,0-.51,0-.22.12-.26.38-.25.24-1.15L281,608l.93-1.59-.09-.07-.18-.92.71.25.3-.73.21-1,.42-.48.48-.26.65-.57L285,602l.48-.67h-.6l.9-1.53.71-.73,1.82-.57.78-.67.65-.83,3-5.09,1-1.21,3.46-3.13.75-1.36.33-1,.33-.7.59-.42,1-.12.54-.48.32-.1.15.45.18.28.42.1.51-.1.38-.15.54-.42.27-.38.54-1.59.09-.1.24-.22.15-.35-.09-.35-.24-.45.53-.54,1.76-1.18.57-.22.75-.51,1-2.2.63-.47,1.76.22.92-.06,1-.48-.06.54.06.48.24.35.36.25.59-.48.39-.51.84-1.3.41-.45,3.17-2.16.3-.26.05-.41-.17-1,.12-.54.62-.57,1-.54.92-.64,1.05-2.64,2.65-2,.9-1.65L328,560l.3-.35.09-.22.21-.26.21-.28.09-.51-.06-1.05.17-.45.48-.6.51.19.45-.16.83-.7.3-.16.3-.06.24-.16.18-.8.21-.13.29-.06L333,554l.36-.45,3.49-2.77.3-.51.48-1.27,2.06-2.1.47-.8.06-.51.21-.73.33-.76,1.61-2.26.45-.45-.48-1,.75-.73,2.12-1.12.27-.47,1.52-3.54.36-.48.21,1.5v.77l-.39.31L347,537l.71.61,1,.35.48-.48.12-.38.26-.32.33-.22.18-.23.21-.57.06-.19-.09-.13-.83-1.59-.24-.73v-1l.15-.76.29-.29.9.1L351,531l.86-.67.69-.13,1.19.22.69-.06.68-.48.39-.73.06-.79-.15-.8-.3-.61.3-.12.12-.1.15,0,.33.19.39-.47.62-.39.69-.25.69-.16-.15-.73.36-.64.18-.51-.69-.38-.45.16-.51.38-.5.1-.36-.64.15-.51.45-.7.5-.67.45-.38.69-.06.71.12.66.29.57.32.29-.64v-.51l.24-.35,1-.13-.3-.6-.39-.32-.27-.35.06-.64.24-.31.87-.36.39-.31-.06.51-.06.19-.18.28.24.58.35,2.8.36.32.78-.51,1.25-1.28.45-1.05.15-.25.33-.16.38-.13.36-.16.45-1.05,1.46-.41.63-.67-.42-.51-.57-.54-.35-.57.14-.61.81.35L370,514l.8-.8.45-.73,1.13-6.28-.15-.57-.53-.73-.18-.29-.15-.38-.24-.32-.33-.16-.3.13-.44.51h-.3l-.48-.45-.18-.6.06-1.34-.24-.64-.54-.51-.68-.38-.63-.25,1.28-1.72.21-.16-.35-.54-.57-.29-.33-.38.36-.76L367,496l.39-.44.69.06.14,1.11h.3l.06-.19.24-.44.18.38.21.19h.21l.3-.25h.3l-.18.57-.12.16-.3.22.6,1.31h-.9l.3.47.45.16.53-.09.54-.23-.33,1,.18.45.45.38.57.76h.29v-.35h.3l.21.93.72.44.8.38.36.71.15.47.3.29.33,0,.27-.38.32.32.3.51.3.54.06.38.18.22.51,0,.47-.25.06-.41-.15-.42-.26-.38-.6-1.46-.27-.32.18-.67.36-.7.21-.26-.3-.51-.66-.51-.74-.41-.57-.16h-.75l-.77-.16-.66-.48-.36-.95.09-.45.45-.92.06-.25-.39-.1-.6.1-.56,0-.24-.44,0-2.74.27-.67v-.35h.3l.09.54.23.35.36.16.51,0-.33-1-1.1-1.94-.06-1.21.39-.58.56.64.63,1,.66.54.44.1.42.16.39,0,.39-.29.15-.57v-1.31l.59-1.24-.27-.54-.38-.32-.09.06-.72-.95-.3-.57-.18-.7.57.06.54-.54.44-.8.24-.67,0-1.05-.32-2.23.2-.76.21-.22.15-.19.06-.23,0-.32.12-.19h.27l.24.13,0,.22.71-.76.36-.54.15-.48.12-1.31.18-.66.3-.51.48-.1.29.48.18.7.06.6v.83l0,.29.15.51.21.51.27.44.42.32.12-.19.27-.22.2-.23.63,1.69.09,1.88-.36,1.94-.65,1.95L380,486.69l-.18,1,.54,1.12,1.07,1,.36.6.48,2.07-.09.38-.48.29-.92-.54-.63-.22-.27.25-.47,1.34-.09.6,0,.58.2,1,.06.54-.06.45-.23.95v.55l.11.47.36.74.15,1,.21.45.33.38.48.16.53-.09.36-.23.21-.22.24-.13.51-.12L383,501l.17-.13.42.61-.06.64-.21.63-.15.58.3,1.43v1.75l-.15,1-.26.7,0,.47.65.32.93-.12.59-.36.54,0,.66,1.08-.39-.16-.39,0-.36,0-.35.16.23.38.12.29,0,.25-.09.35.63.61.33,1.94Zm8.5-45.34.39,1.69-.27,1.84-.72,1.69-.89,1.24-.48-.41-.06-.57.21-.64.33-.64h-.54l-.71-.25-.36-.07-.3.61-.3.41-.48.26-.06-.23-.26-.41-.36-.45-.36-.19-.48-.19-.27-.89-.59-.19.53-.83.57.42.6.86.68.47.42-.32.15-.82.06-1.4.33.47.45.77.41.38.21-.48.27-.09.21.16.18.41.33-.73.18-.7-.12-.58-.69-.28.51-.32.48-.22.44-.07ZM630.83,525l.09,1.08-.12,1.06-.57.79-1.34.32-3-1.27-.81.12-.3,1,.12,1.37.3,1.31.3.73-1.46-.58-1.26-1.46-.86-1.82-.3-1.49-.66-1-.09-.19-.15-.22,0-1.69-.5-.54-.87-.35-.83.1-.51.79.6,1.37.29,6.37,1.05,3,.3,2,.5,2.1,0,1-.44.42-.72-.29-2.3-1.94-.15-.26-.21-.63-.53-.26-.6-.09-.45-.16-.68-.74-.36-.63-.48-.42-1-.16-1.94,0-.87-.19-.65-.41-.63-1.59.27-1.85.59-1.88.36-1.75-.09-1.08-.33-1.28-.59-1-.93-.44-.47-.51-.12-1.18,0-1.27.32-2.17.09-.38.24-.38.57-.77.12-.29.06-2.13.15-.92,1.13-2.93.12-.89,0-2.17-.92-4.55-.24-.45-1.55-1.46-.24-.29-.18-.86-.45-.92-1.16-1.59-1.79-1.47-.3-.32-.27-.79-.66-.35-.86-.07-.87.1-.86.32-.57.51-.12.73.48.83.21.89-.39,1.08-.63,1-.51.47-.56.2-.33,0-1.58-1.3-.09-.16-.72.22-.24-.09-.21-1.34-.23-.19-.51.13-.54,0-.48.09-.26-.19.05-.92.21-.61.57-.86.15-.76-.12-.89-.33-.42-.42-.35-.35-.6-.09-.8.24-.67.29-.57.27-.73.39-.64.12-.32-.06-.38-.24-.54-.3-3V479l-.77.09-.78-.51-.63-.79-.23-.89.15-.42.62-.44.15-.45-.72-.22-.5-.26-.33-.31.6-.35-.15-.39-.45-.47-.24-.58-.15-.7-.63-1.05-.59-2.83.12-.73.21-.07.89-.48.15-.12.48.28,1.1,1.66,2.6,2.26.77,1,1.62,2.89.14-2,.27-.89.6.12,1.34,1,.48.61,1.07,2.93,1.08,1.27,1.55.73,2.09.07,1.55-.42,1.34-.79,2.18-2,1.67-2.48.57-.42.39.1.89.44.54.1.15-.1,0-.44.18-.1.27.1.15.22,0,.22v.1l1.1-.06.36.06.45.25,1,.86.27.2.36.51-.09,1.08-.3,1.11-.39.77-.06.57.06.54.12.26.12.09.09.48.09.22.24.19.12.1.15.06.24.16.5.19.39,0,.24.19.18,1.18.21,0,.18-.38.09-.54h.32l0,1.46,0,.45-.14.44-.39.74-.09.28.09.58.44.92.09.45-.09,1.49.63,4.36-.06,2-1.73,5.79-.3,2.23.33,2,.6.57,2.59,1.31,1.08.35.39.22.15.35.29,1.4,1.7,2.17.21.38.84.38.09,1-.48,2.38.09.58.42,1.05.09.64-.09,1.75.09.63.3.7.59.93.57.54.33-.51h.3l.53.7.33.7.21.86Zm-91.7-54.45.18.61-.24.67-.36.67-.18.76.18,1.34,0,.67-.47.89v.25l-.06.16-.81.16-.15.22-.06.29-.12.38.09.07L537,479l0,.06-.24.89-.09.74.09,1.72.15.41.3.22.3.32.15.64-.21.67-.87.66-.14.77-1-.51-1.07-.32-.87.29-.57,2.51-.56.86-.87.61-1,.41.24.61-.21.38-1,.64.09-.48-.06-.48-.18-.29-.39-.06-.2.22-.15,1-.24.38L528,492l-.3-.16-.3-.22-.47-.06-.21.12-1,.83v-.64l-1,.51-1.2.93-1,1.05-.39.89.21,1.5.42,1.17.15,1.18-.48,1.43-1.1,1.6-.75.73-.72.29-.38-.1-.75-.45-.36-.09-.33.09-.86.55-.48.09-.57.29-.53.32-.69.6-.21.26-.36.73.06.09.12.23,0,.28-.44.32-.21,1.05-2,.42-4.09.16-3.73.63-.36.13-.6.45-.21.12-1.52-.06-.44.06-.48.19-.6.54-.42.23h-.47l-.48-.16L498,510l-.51.39L495.68,512l-.5.32-.45.06h-.45l-.57.1-1.16,1-2.72,4.84-.26.26-.78.73-1.46.7-1.4-.13-.9-1.56.12-2,1.76-3.47.54-2V509.8l-.3-3-.27-.7-1.19-1.34-.33-1.05.12-.83.62-1.4.27-1.43.78-2.45,2.92-5.25.36-2.17v-8l-.12-1-.27-1.08-.12-1.09.36-.92.51-.89.21-1,.33-5.51.09-.25.2-.26.21-.31,1-7.71-.24-1.69-.75-1.43-1.07-.45-1.34,0-1.64-.32-1.47-.66-.74-.23-.93-.09-1.64.06-.74-.09-.48-.32v-.1l.09-.38.44-.64.51-.57.33-.22.15-.45.12-.92v-1l-.12-.51.12-.67.21-.41.39-.19.62-.07.3-.19.57-.89.3-.19.29-.06.24-.26.21,0,.39.16.21.29.15.31.18.19,1.52.48.45.32,1,1.4.84.83,1,.7,1,.51,4.83,1.11,1.61.67,1.52,1.12,1,.95.6.26,1.79.16.47.25,1.73,2.77.57.54.6.23.48.35,2.05,2.22,2.6,1.09.69.54.18.44.12.26.11.79.3.71.78.38.27-.07.56-.47.57-.26V468l-.15-.42-.06-.28.21-.8.27-.13.57.42.53.67.3.16h.51l-.45-.61.06-.29.33-.16.36-.25.86-1,.12-.44-.15-.13-.09-.16-.15-.19,1.35-.1,1.67.07,1.58.31,1.07.67.39.7.21.77.27.57.51.26.59.09,1.94.86-2.17,1.66-.81,1v.85l1.07.45,1.17-.64,1.22-.89,1.13-.48,1.17-.31,1.58-1.34,2-.67,1.22-.86,1.08-1.15.62-1.21h.3l0,2.84-.33.73-.32.16-.51,0-.45.13-.24.32.06.47.27.23.42.06.48-.09-.42.73.33.09ZM402,451.12l1.2,1.05.89.26.45.25-.3.1-1.13.19-.09.44.15.64-.57.67V455l.18.06.42.25V455l.42.19.35.22.24.29.18.28-.86,1-.33.26.62.95-.86,1.56-1.43,1.28-1.29.09-.77.73-.54-.73-.18-1.4.27-1.18.57.42.18.22.15.32h.32l-.09-.67-.06-.29-.17-.32.59-.63L401,457l.18-.64-.3-.63-.36.25-.21,0-.35-.28-.24,1-.54.45-.69-.07-.62-.41-.36-.6-.39-1.31-.45-.38.24-.16.39-.35.27-.13-.45-.76L396,451.82l-.51-.7-.27-.64-.63-2.26.36.1.21.13.24.12.36,0-.06.1.15.12.21.1.18,0,.14-.09,0-.23,0-.22-.14-.13.06-.38.5-.67.66-.22.42.95,1.52,1-.21.48.78.19h1.94l.41.1,0,.19-.27.22-1,.25.21.35.48.32Zm14.06-6.43.24.64-.18.41-.42.32-.57.25-.59.16-.27-.09-.21-.23-.42-.19-.74,0-.54.25-.48.32-.6.16-.59-.25-.48-.45-.48-.25-.56.25-.09-.73-.57-.22-.75-.07-.65-.25-.33.35.3.57,0,.51-.18.51-.09.64-.39-.23h-.18l-.15.2-.18.38h-.27l-.62-1.28-.48-.35-1.91.32-.74-.22-.9-.54-.75-.67-.59-1.37L398.4,442l-.27-1v-.7l-.08-.54-.21-.51-.45-.51-.3-.51-.06-.63-.18-.67-.51-.61-.5.42-.45.54-.36.63-.21.7-.53-.35.11-.38.39-.41.33-.51.12-.57,0-.48-.09-.73.24-.93.57-.38.77-.22.84-.58-1.08,0-.44.1-.3.28-.12-1.84.3-.7,1,0,.81.35.27.7.06.76.05.41.63.23,1.67.22.72.19.72.48,1.19,1,1,1.18.3.25.36.13.75,0,.38.16-.44.13-.3.25-.15.38,0,.54h1l2.33,1.95,1.13.63.09-.51.27-.25.39-.06.48.19v-4.43l.24,0,.62.83.3.73.09.74-.06,1.3.3.48.6-.13.62,0,.24.83.18-.1h0l0-.06.06-.19,1.31,1.3.57.8.24.64-.12.66-.3.23-.39.16-.41.41-.18.6.18.26.35-.1.27-.44h.21l0,.06v.13l0,.16Zm102-17.61-.06.64-.71,3.37-.48.58-.72.63-.74.51-.6.22-.21-.12-.68-1-.36-.25-.9-.26-.39-.32-1.07-1.94-.75-.89-1-.38-1-.13-.84-.38-.63-.64-.38-.83v-1.65l.95-1,1.58-.48,4.93,0,1.67.39.5.25.24.29.27,1,.24.61.36.64ZM650,486.21l.71,1.46,1.35,1.56.86,1.5-.83,1.4-.36-.35-1.05-.6-.38-.29-.39-1.59-.09-.13-.06-.13,0-.25,0-.86-.06-.23-.27-.06-.63-.32-.17-.22-.63-.57-.66-.35-.33.31-1.49,1-.45.19-.5-.19-.18-.45-.12-.51-.27-.44-.51-.22-.27.12-.32.26-.51.13-.09.35-.21,1.68-.15.58-1.19-1.15-.78-.6-.57,0-.8,1-.48.42-.68.35,0-.77-.33-.48h-.45l-.39.58-1-1-.45-.26-1.58-.28-.24-.23-.21-.31-.48.09-1.31.54-.24.35-.18.45-.51.8-.11.35-.24.09-.24-.09-.36-.16-.33-.35-.27-.61-.21-.64-.23-2.51-.45-2-1.14-1.75-1.73-.83-2-.12-2,.12-1.79-.35-.38-1.33.35-3.79v-.38l0-.32.09-.29.18-.32-.33-.19-.86-.8-.3-.12-.63-.07-.29-.09-.6-.45-.51-.51-.39-.63-.27-.7-.62,1.49-.42.23-.75-.1-.59-.26-.51-.41-.39-.54-.33-.73.69-.32.36-.45.33-.44.44-.38.72-.23.6-.06.15-.26-.57-.76h2.54l.53-.32.72-.73.66-.86.32-.67,0-.7-.2-.73-.15-.7.23-.61,1-1.08.69-1,.21.22.71.42-.06-1.15-.45-.89-.77-.64-1-.22-.74.25L616.51,458l-.75.25-1.55-.95-2.57-3.95-1.73-.6v-.32h.6l-.42-.23-.18-.06.6-1.34.21.16.21.1.24.13.23.25-.17-1-.63-.45-.66,0-.71.79-.75-.09-.42-.42.69-.47-.24-.42-.27-.19-.33,0-.39.29-.08-1.27-.12-.7-.24-.48-2.15-2.42L603.2,444l-1.73-.45-1.35.16-1.28-.7-2.06-1.5-2-2.61-.92-.92.09-.13.06,0,.09-.19-1-.64-.71-1.34-2.12-7.73-2.9-7-.09-.63.12-.54.3-.58.45-.44.51-.16.32.19,2,1.62.18.07h.45l1.1-.55.39-.09.27.09,1.08.55.71.25,2.75,0,.18.07.47.35.09.09.09.19.21-.06.24-.19.21-.1,1,.13,1,.19,3.61.35,8.23-.67.39-.16.45-.32.36-.66-.24-.45-.42-.41-.15-.54v-.35l.78.28.6.54.44.54.42.26.57-.29.74-.48.66-.15.27.73.42,0,.92.38.81.51.09.25.27.1.23.16.3.12.54,0,.36-.12.51-.32.44-.39.21-.28.15-1,.39-.22,1.25.41.42-.06.42-.19.42-.1.35.16,1,1.15,2.18,1.46,1,1,.09.79.48.54.92.58.39.54.51,1.21.3.41.71.64-.83.48-.78,1-.21,1.18.93.86-.3.19-.18.28-.12.54,0,.26,1.34-.8.48-.19-.09.45v.32l0,.25-.18.32.48.19.42-.19.86-.7-.27.89.45.22,1.64-.09.81.41,1.55,1.24.63-.06.24.51.95,1.27.45,1.31,0,.51-.72-.35-.36.25-1,.19-.45.19.39.16.33.19.24.26.27.35-1.2.32-.56.22-.33.45-.09.86.45.25,1.43-.13-.09.16-.12.32-.09.16.39.35.56.61.42.63,0,.51-1.49,1.31-.36.48-.54,1-.77,1.09-.27.79-.09.93.06,1,.09.28.54,1.37-.09,1.43.09.48.24.35,1.1,1.08.15.45-.15.45-.3.22-1.13-.45-.45.86.12.8.86-.38.51.06.42.92.42,1.72-.06,1.21-.42.23-.57.09-.44.77.56.25-.12.45-.36.57-.08.67.2.41.24.13.3,0,.3.22.15.32v1.15l.18.73.18.41,1,1.5.27.77,0,.73-.45.73.36,0,.24.07h.24l.39-.1.21,1.11.2.55.33.25.45.13.78.7.53.16.12.25.45.58.54.5.24.1,0,1.21-.15.76-.33.61-2.66,2.13-.48,1v1.69l.72.92,1.19.16,1.38-.51-.63-.89,0-.7.6-.13,2,1.56.8.51.6.7Zm-72.28-30.7.18.77.36.92.24,1-.18.76-.6.1-.56-.83-.93-1.88-.53-.64-1.5-1.33-1.22-.51-1-1.12-1.47-.54-.65-.64-.87-1.37-.57.36-.8-.2-1.61-.76-1,.51-.92-.54-.78-.86-.57-.45.18-.57.27-.41.42-.26h.63l-.6-1.3-.24.44-.06.19h-.27l-.39-.57-.53-.64-.57-.51-1.13-.54-.36-.67.09-.57.77-.06-1-.32-.87.06-.62-.16-.48-1.84-.57-.8-1.31-1.47-.63-1-.27-.29-1.28-.57-.33-.23-.77-.32-1.05.1-1,.35-.63.35-.54.61-1.31,2-.39,1.25-.35.6-.45.48-.42.22-.48.06-.24.2-.32.7-2.39,3-3.7,3.6-1,.63-.41-.6.09-1,.2-1.11.36-1,.39-.38.51-.13.21-.31,0-.45v-.54l.09-.64.26-.48.27-.44.27-.54-.06-1.79.27-.86.69.39.24-.67.29-.48.45-.35.69-.1.3-.25-.15-.54-.6-.86.6-.41.56-.26.33-.41,0-.86-1.49-.07-1,.07-.81.35,0-.32-.06-1.47.06-.09.09-.1,1.19-1.75.18-.64.12-1.4.66-2.38.15-1.09-.09-.76-.27-.35-.42-.32-.6-.51-.44-5.48.12-.57.32-.13.42.16.45.29.66.32,1.25.19.66.22.41.29.33.38.39.26.42.06-.06.09,0,.2-.78-.16.09.73.69,1.69-.24.38-.51.38-.54.54-.23.8.23.6.51-.32.78-1.11.12,0,.44,0,.18-.07.09-.22,0-.41.06-.2-.09,0,.24-.54.33-.54h.15l.33-.32.74-.09.84.12.63.29,1.37,1.5.68.57.75.38h1.49l.24.19.51.77.36.41.39.86.53.89.69.42v.31l-.51.07-.33.25-.12.45,0,.54,1.5-.8.65-.09.27.73.18.32.45.06.47,0,.39.07.45.32.39.38.33.41,2.74,5.07,1.14,1.24-.21-2.07.27-.73,1,.7,1.34,1.46.6-.09.48-.36.38-.12.33.57v-.32l.42,1,2.3,3.91.27.19.65.23.24.22.18.41.42,1.56.24.45,1.85,2.42.42.83.2.76-.71-.48-.9-1.46-.8-.6.15.5.18.35.59.74-.47.41.14.57.9,1.31,1.07,2.42.15.64v1.11l-.27,1.27Zm-77.37-38,.74,1.49.63,1.75-.06,1.69-1.31,1.24-.72-.86-.39-.86-.14-.89,0-.95-.06-.19-.09-.23-.12-.25v-.29l.12-.25.32-.13.15-.25.3-1,.21-.38.39-.29Zm-7.16-2.87,1.31.41.45.42v.76l-.21.19-.66-.09-.33.22V417l.3,2.61-.21,1.53-1,3.24-.33,3.47-.81,3.35-1.28,3.44-.36.51-.29.86.5.6.6.61-.06.73-.57-.7-.27.38-.8.76-.15.32v2.45h-.3l-.92-1.14-.21-.64.24-.8-1.17-.09-.27-.8.21-2.35.42,1.11.6.19.56-.48.24-1-.15-.58-.35-.25-.48-.1-.51-.22L485,432.08l-.39-.29.15-1.72.45-1.94.54-.89,1.37-.61.66-1.4.2-1.75v-1.59l-.29-2.77.2-1,1-.89,2.51-.73,1.25-.7ZM566,428.35l.27,1,.06.57-.18.26-.36-.16-.33-.38-.24-.45-.12-.48-.18-.44-1.31-1.31-6.51-10.28-.11-.45,0-.64h.29l.42.26.18-.64.12-.92.21-.64.39,0,.5.45.75,1,2.15,1.37.39.13-.06.32-.12.16-.42.19h.6l.5.16.39.32.3.48-.21.82.36,1,.51.89.23.73.15.73.63,1.53.48,2.49.09.22.24.22,0,.51Zm-22.11-23.11.29,2.35,3.23,3.73.65,2-1.52-1.15-2.92-4.39-1-1-.6-.42-1.61-.35-.68-.44-3.29-3.12-.35-.64-.18-.06-.78-.86-.09-.23-.36-.12-.14-.35-.12-.42-.12-.38-1.11-.73-2.68-.67-1-1.21-.3-2.64,0-.55.6-.41.75-.1.59-.31.15-1.18.51.16.57.32,1,.73.45.44.39.51.65,1.12.9,1.91,1,.92.15.22.15.55.63,1.17.12.58.12.12.65,1.47.75.73,1,.73,1.11.39.86-.39.69.42.27.44.18.51Zm-76.46,7.58.06.57.15.76.24.77.45.76,0,.32-.09,1.21-.12.13H468l-.27.16-1.7,2.64-.51.51-1.1.73-.33.13-.27-.1-.21,0-.05.45v.8l.11.28.18.35-.29.35-.3-.35-.15.32-.06.26,0,.28.18.45-.78.54,0,1.34.57,1.43.77.89v.32l-1.76-.51-.8,0-.12.83.24.32.06.38-.06.45-.24.44.39.23.17.25.06.35,0,.51-1.28-.86-.48-.8-.65.35-1,1-.56.16-.54.35-.81.79-1.1,2.33-.12.25h-.63l-1-1-.63-.28h-2.68l-.81-.45-.63-1.08-.23-1.37.32-1.27.27.76.39.42.54.09.62-.32-.35-.16-.27,0-.3.12-.27-.83,0-.12-.9-.7-.29.09v.93l-.72-.42-.89-.79-.78-.9-.54-1-1.1-1.15-.36-.1-.24-.31-1.85-3.38-.57-.35-.41-.51.09-1.11.47-2-.06-.92-.24-.92-.44-.83-1.14-1.44-.77-1.65-.6-.73-1-.42h-.87l-.63-.25-.23-1.08-.06-.55-.21-.89-.06-.54L435,408l-.75-1.21.06-.45.21-.31.21-.26.12-.29,0-.41-.12-2.29-.39-1.47-.42-2.61-.74-1.46-1.91-2.77-1.41-3-1-1.3-2.09-.77-.8-1.05-.72-.32-1.49.13-.48-.22.51-.89-1.14-1.15-.86-1.34-.54-1.49-.36-3.35-.33-.76-.53-.35-.33,0-.75.19-.3.1-.35.28-.18.26-.15.25-.21.23-.87.76-.53.13-.69-.29-.54-.48-.47-.7-.33-.76-.12-.8.18-1.08.48-1,.71-.82.81-.61,1-.38,1,0,3,.73,2.63.13.56-.1.45-.13.45,0,.86.5.45.16.84.13,1.7,0,1,.19.6.51.69-.38.56.22.81.8.74.09.66-.19,1.28-.54,3.88-1,1.2-.7.56.58.36-.13.36-.25.24-.83.6.19.2,0,.36-.16.06.19.24.16-.18.41-.27.32L443,375l-.38.06.24.42.44.54.51.48.45.19.39.41,1,1.82.69.41,2.86-.16.72.54-.15,1.56h.3l.06-.32.12-.73.12-.25.17-.29.06-.1.36-.25.42-.22.57-.19.5-.32.3-.61h.3l.9,1.75,5.07,4.43,1.85,3.09.69.44.95.16.72.38.44.71.12,1.05-.12.47-.2.51-.15.48.18.48.47.35.51,0,.48-.19.47-.13,1,.06,1,.19.78.51.36.89-.15,1-.6.64-1.49,1.08-.54.83-.27,1-.06,1.14.48,2.9,0,.77-.39,1.94.06.63h-.29l.23,1.31.12,3,.42,1.08,1.19,1.63Zm25.1-33.69.15.38.8.64.21.41-.35,1.4-2.54,2.77-1,1.37.42,1-.39.86-1.37,1.21-.68.16-.72-.54-.63-.7-.36-.39-.47-.22-1.5-1.37-.35-.13-.75-.06-.36-.13-.44-.38-.75-1.24-1.34-1.5-.15-.47.18-1.12,0-.35-.12-.67v-2.51l.12-.67.32-.45,1.14-2.23.15-.44.06-1.34.15-.32.62-.16.63.67.92,1.5.21-.26.51-.47.18-.29.69.73,1,.26.93-.32.38-1,.57.42.42.38.12.51-.18.67.66-.29.47.29.15.47-.39.45.18.19.48.35.24.1.66-.45.92.26.84.7.3.82-.18.23-.3.06-.42,0-.06.35Zm-80.24-14,.36.22.33.07.26.16.09.54-.71.57-.18.26-.3-.42-.3-.54-.33-.48-.41-.22-.63-.13-.27-.32-.12-.44-.3-.42-.47-.31-.45-.2-.45-.09-.6,0-.27-.16-.47-.67-1.44-.48-.71-.83-.42-1.11L404.4,359l.06-.51.21-.38.3-.19.48-.06.62.25,1.08.58.92.66.21.48.63-.19.83.19.87.45.68.51,1.47,2.48-.21.51-.42.38-.18.42Zm181.22-7.64v.35l-.66.41-.56.54.56.32.3.61.12.67.24.66-.87.36h-.35l.29.5.06.42-.11,1.37-.21.95,0,.48.74,1.34.06.76-1,.35-.9,0-.48.06-.2.35-.06.93-.69,2.83.06.73-.66-.51-.56-.95-.57-.76-.57.28-.54-.19-.71.16-.72.35-.56.45-.3.7-.33.92-.39.83-.51.35-.74-.32-2.36-2.29L579,370.44l-.75-.29-.92,0,.18-.67-.15-.63-.36-.61-.42-.51-.18-.6.42-.54L578,366l1.11-1,.89-1.37.63-1.66.33-1.81-.39-2.74.24-.7.42-.8-.06-.82-.6-1.85-.18-.8V352l.21-.25.36-.35.27-.45-.12-.41-.36-.67v-.73l.21-.74.33-.66.56.76.6-.16.92-.92.39-.23.3-.09.3,0,.36.22.86.9.75,1,.57,1.12.35,1.24.15,1.94.42.16.36.32.57.83-.33.35.21.32.06.12.06.23H589l.66-1.25,1.22.58ZM492.67,346.62l2,1.43,1,.89.48,1.12-.27,1.11H495l-1-.6-1.61-1.47-2.86-2-1.76-1.69-.51-.25-.72-.48-.83-1.08-.69-1.21-.3-.83.15-.61.33-.38.48-.13.53.13.3.16.18.22.33.54Zm5.7-33,.57.45.38,1,0,1-.62.45,0-.22-3.43-2.68-1.2-.22-.62-.22-.24-.39-.18-.54-.27-.54,0-.28.72.22.11-.16L494,311l.12.64.33.25.51,0,.53-.22H497l-.3.28-.18.39,0,.47.21.51.42.35.44.1Zm-10-10.12,1.05.06.83.48.42.76-.21,1-.95-1.21-.48-.29-.66.16-.45.48-.11.54.17.26.39-.26.33,1.15v.57l-.42.35-1.37,1-.15.12.06.23.09,1.72.09.47.18.61.8-.1.54.8.3,1.18.45,3-.09.67-.87,2.32-.83.8-1.05.57-.89.23-1.05-.42-.33-1.05.06-1.27.24-1.15.84-.19,0-1.85-.66-2.16-.86-1-.69-.22-.18-.58.12-1.68-.21-.51-.95-1.53-.33-.42-.72-.25-.41,0-.15-.29.35-3.12.3-1.11.48-.48,1.28.83.87.16.39-.83.32-.38.78-.1,1.79.23.69.44.39-.22.5.19.27.54ZM461.46,117.24l1.22-.25.57.12.59.48.3.35.33.19.39.13h.48l-1,.76-1,.48-1.11.26-3.82.35-1-.16-.69-.74-.18-.66.21-.23.87-.06,2.32-.83Zm25.39-3.95.54.48.33.67-.09.57-1.17.51-.86,1.37-.57.7-1.49,1.34-.63.86-.24.92-.41.41-.81-.09-.57-.48.3-.7v-.95l.9-.77.56-.79-.89-1.09.45-.54.32-.76.12-.7-.12-.32.33-.19.57-1,.45-.42.24,0,.29.19.27.13.09-.2.15-.09.66-.32.21-.1.41.16.21.39.15.44ZM453.7,104l.39.25.26.26.18.35.39,2,.6,1.78.3,1.72-.63,1.31-1.55-1.53-.54-.73-.3-1,.09-1.18.69-2Zm13.75-6.94.51.66.09.16,0,.16.12.22.09.26.06.35-.15.19-.36,0-.39-.06-.32,0-.27.26-.12.28-.15.29-.36.13L465,99.57l-.27-.29-1.67-1-.21-.06h-.33l-.36,0-.3-.26-.23-.38-.51-1.11-1.4-1.72.06-.29.71-.1L461,94l.71-.93,2.48.93.81.09.8-.19.66-.28.54-.07.41.54v2.3l-.06.16v.15ZM487.12,84.7l.24.09.36.23.29.28v.23l-.23.57-.24,1.69-.39.7-.75.35-.59-.26-1.05-1.08L484,87l-.33-.35-.09-.48,0-.47.15-.13.27,0,.89-.19.66.13h.36l.32-.19.54-.55Zm-5.91-37.19.78-.06.86.66.6,1,0,.8-1,1-.32.13h-.48l-.51-2.29-.06-.64,0-.32Zm7.31-6.91.42.1.36.25.24.38,0,.45-.24.41-1.55,1.12-1,.92-.24.35.12.6.21.39.12.32-.12.54-.57.63-.83.32-.75-.28L484.43,46l.3-.82,1.79-2.84.09-.44.63-.58.77-.54Zm-5.76-13.69-.42,1.27-.68,1.24-1,1-1.16.38-.75-.57.21-1.31.63-1.4.8-1.37.6-1.62.36-.54.45-.32h.42l.38.51.21.67.06.7,0,.73ZM378.38,781.08l.15.86.63,1.56.15.77,0,.86-.12.73-.18.7-1.29,3.12-.47.51v-2.9l.3-2.7-.27-3.12-.36-1.5-.57-1.31.51-.12.48.16.44.38.33.48.15.35.09.38.06.41ZM454,735.84l.53.22.21.26-.15.44-.27.1-1.22-.1-1.52.64-.69-.1-.47-.83v-.66l.29-.58.45-.44.45-.23.74.07.66.28.57.45Zm7.16-8.63.95.29.78.57.33.83-.42,1-.42.22H462l-.35.13-.15.63,0,.8-.15-.1-1.67.26-.3.13-.42.38-1.22,1.4-.45.28h-.51l-.45-.22-.38-.38-.36-.64-.09-.51.06-.47,0-.45-1.08-1.21-1.67.1L449.22,732l-.86.57-.3.13-.36,0-.27-.25-.54-.83-.2-.19-1.82-.35-.36.19L443,732.3l-.9.45-.42.06-.48-.16-.23-.22,0-.29v-.25l-.06-.22-.27-.16-.54-.13-.24-.16-.65-1.05-.21-.86.21-.83.53-1,.72-.77L442,726l1.22-.89,1-.13.39-.22,1-1.47.36-.28.42-.1,1.52.1.83-.07.81.07.48.19,1,.64.48.12.87.51,1,2.36.66.67.8-.23.72-.63.83-.42,2,.93,1,.09Zm10.77-30.44V700l-.24,1-.3.29-.27-.38-.11-1-.27-.67-.51-.67-.33-.54.36-.22.39-.45.33-.8.41-.44ZM448.62,498.12v1.05l-.59,1.49.3.86-1.11.26-1.19-.1-.75-.67.33-1.43.3-.29,1.52-1,.84-.86.33-.06Zm-35.27-48.75-.09.16-.44.06-.21.1-.21.35.09.28.21.29.06.22-.3,1.28,0,.51.12.47.45.93.06.35-.45.38-.54-1-.81-2.32-1.49-2.93.45-.06,2-.86.42,0,.36.15.23.32.12.42Zm48.88-6.24.27.73.18.8-.12.73L462,446l-.74.07-.57-.48-.33-.77-.15-.73.06-.35.24-.95-.12-.51-.27-.29-.12-.32.21-.48-.09-.35v-.12l.39.19ZM399.18,592.75l0,.16h-.09Zm.39,0,0-.16.15.06v.1Zm-.15-.32,0,.09-.06,0,0,0,0-.06.09-.06Zm.09-.19h0v.06l0,0,0,0-.06-.06.09,0Zm76.57-189.33-.15,0-.15.09.09.19.12.16-.18.19-.3,0-.18-.22-.15.06-.18-.06-.32-.45-.3-.25-.09-.19-.06-.55.3-.54.53-.16.6.16h.18l.33.35.24.51-.09.45Zm-27.69-29.16-.72-.26-1.25-1.21V372l.32,0,.3.13.39-.09.45-.23.39.07.24.41.11,1.18Zm37-361.17-.33.06.24-.44Zm.45-2.45.15-.32.14.19-.2.57ZM393.54,782.48l1,.58.15.48-.32.06h-.69l-.66-.32-.3-.6Zm.27-2-.69,0-1-.79-.36-1.25.12-.73.51-.25.47.22.27.38.9.45.35.79,0,.67-.33.35Zm-1.76-9.07-.18.09-.09.13-.18.32-.51.19-1,.28-.27-.38.12-.86.89-1.62.6-.64.69-.48.33.13,0,.64.08.54.15.51.09.57-.21.54-.29.16Zm245.08-17.17.18.26.09.6-.06,1.37-.21.45h-.3l-.54-.16-.8.06-.75.16-.54-.22-.36-.41-.38-.32,0-.23.35-.38.72-1,.81-.41,1.22,0Zm-198.71-13,.84.48.14.41-.38.1-.6.32-.93.35-.83.06-.51.13-.39-.13-.12-.54.48-.8,1.11-.5h.68Zm1.91-2.58.54.29.56.92-.21,1-.62.54-.84-.44.06-1.5ZM568.37,557l.84.57.36.45-.27.57-.81.93-1.73,1.33-.83.39-.87.09-.68-.19-.51-1.18-.51-.38,0-.19.54-.13.39-.22.26-.32.51-.38.69-.45,1.7-.76Zm33.4-23.4-.51.79v.71l.09.66-.39.39-.57-.19-.62.22-.51.79-.42.39-.45-.39-.21-.47v-.39l-.08-.54L598,535l.26-.26.33.13.3-.06.21-.29.21-.22.27,0,.42-.07.53-.41.27-.25.3-.16.6-.1ZM465.19,452.36l1.58.51.68.45-.38.41-1,.48h-1l-.75-.19-.45-.19-.24,0-.2-.12-.18-.19-.21,0-.36.22-.24-.13.15-.41.42-.57.74-.32h.45Zm119.09-10.12,1,.38.06.44-.86.13-.48.42-.86.6-.63.1-.63-.29-.15-.45.3-.57.54-.48.71-.22Zm-134.7-5.45.54,1,.12.51-.15.22-.39.07-.45-.19-.42-.32-.38-.23-.27-.44-.18-.67-.45-.64-.78-.47-.53-1.44.89-1.27,1.23.54.41,1,.33,1.59.21.39.18.19Zm133.06-9.49-.84-.79-.5-1.09-.18-1v-.55l.38.1.78.6.72,1.09.23,1.24Zm-.87-37.25-.53-.13h-1l-.69-.19-1.25-.51-.15-.35.84-.28,1.28-.51.42-.26.65-.06,1.74.54.83.48.51.79,0,.86-.54.22-1.49-.35Zm-2.71-3.53-.57.31-.24.13-.24.29-.27.44-.44.45-.27.06-.63.16-.36-.09-.83-.23-.93-.35-.8-.06-.84-.35-.74-.67-.36-.6,0-.39-.06-.25,0-.19.06,0h0l2.09.09,1.07.54.36-.12.3-.1.59,0H576l0,.07.33.41.3.16.27-.13v-.22l.06-.19.36,0,.35.12.57.16.66.26.06.22Zm-8.54-.64.27.73.3.57-.06.39-.78.41h-.47l-.42-.7-.27-.26-.51-.95-.06-.57.21-.8.06-.89-.15-.61-.47-.66.14-.2.39-.25.45,0,1.79.61.27.25.3.16.39.1v.47L570.73,385Zm-3.88-4.36-1.16-1.21-.15-.54.69.19.74.35.72.54.3.35H568l.41.06.12.19-.47.54-.51.2ZM506.07,317l.27.29.06.7-1,.92-1,.19-.93.1-1.49-.19-.15-.74,1.1-.63,1-.39.71-.38.72-.19ZM401.15,243.55l.24.67.06.64-.27.44-.57.1-.51-.45-.2-.38-.87-.7-.87-1.24-.47-.35-.15-.38.21-.45.68-.8.45-.12.36-.13.06-.19.09-.26.36-.31.47.09.33.26.15.28.09.32.39.92ZM574.94,525l.78.57.47-.22.78-.6.24.25-.78.83-.86.89-.78,1-.54.54-.83.09-.45.32-.6-.38.06-.89v-.73l.6-.83,1.4-.64Z" style="fill:#efc441"/><path d="M199,529.07l0-.07H199Zm-43.33,25.82.09-.1.15-.12H156l0,.09v0l0,.16-.21.29-.12,0-.12-.1v-.12Zm-15-15.22-.06-.16.06-.1.36-.19.12.1-.27.32ZM155.29,532l-.2-.06-.09-.13v-.19l.2-.19h.12l.15.16.09.16Zm4.3-9-.09-.22.12-.26.09,0,.12.1.06.19-.12.22Zm-4.36,0-.23-.22,0-.26.12,0,.23.19.09.16-.06.13Zm4-1-.21-.07,0-.22.09-.1.15,0,.15.06.06.16Zm60-16.28.06,0,.09.22-.06.06h-.09l-.24.07-.26.25-.18-.09-.09-.23.09-.32.15,0,.44,0Zm.45-4.17-.3,0-.15-.19,0-.19.06-.06.45,0,.15.06h0l.15.22-.09.16-.06,0ZM151.5,491.3l-.29-.16,0-.09.26-.19.18,0,.18.19-.15.25Zm32.26-3.15h-.21l-.21-.29.06-.12.09,0,.36-.13.06.16-.06.26ZM110.65,621.66l-.06-.13.12,0Zm90.45-3.76h-.18l0-.13Zm-6.33-1.21.06-.16.12.07-.06.12Zm-1.37,0-.09-.16.12,0,.09.16ZM126,588.61v-.1h.09Zm29.12-37.45-.05-.12.11,0Zm50.29-7.45-.06-.16.12.07Zm.77,0,0-.13.12,0Zm-1-.1-.06-.15.12.06Zm-55.21-11.65-.06-.13.12,0Z" style="fill:#efc441"/><polygon points="303 296.66 303.09 296.79 303 296.88 302.91 296.79 303 296.66" style="fill:#efc441"/></svg>