<svg xmlns="http://www.w3.org/2000/svg" viewBox="0 0 800 800"><polygon points="377.86 654.92 378.16 653.2 377.96 651.1 376.9 646.74 376.59 645.82 375.69 644.04 375.38 643.02 374.88 639.51 374.57 638.71 373.46 637.95 372.3 638.17 371.14 638.6 370.08 638.71 369.12 638.17 367.71 636.66 366.75 635.96 365.69 635.63 363.41 635.47 362.4 634.83 361.95 634.07 361.24 631.11 359.47 627.88 358.21 624.75 358.16 622 360.18 619.9 358.26 618.93 357.91 617.69 358.11 616.13 357.66 614.24 356.55 613.65 353.67 615.32 351.95 615.32 346.45 612.63 343.62 611.71 340.64 612.03 340.79 612.03 340.94 612.09 340.99 612.2 341.09 612.41 339.02 614.03 337.96 614.19 336.5 613.11 336.09 612.41 335.59 610.85 335.29 610.25 334.38 609.66 332.66 609.34 331.8 609.02 329.48 607.24 328.37 606.64 323.62 605.84 322.66 604.87 323.17 602.98 318.82 600.45 317.81 600.18 316.55 599.91 316.9 602.23 317.31 602.39 317.86 602.23 318.52 602.23 319.02 602.98 319.18 604 318.77 604.44 316.4 605.08 313.42 605.14 312.06 605.46 309.88 607.24 307.21 607.94 304.53 607.45 299.73 603.14 298.93 602.12 298.37 600.93 297.92 599.64 297.41 598.51 296.6 597.65 295.95 597 295.69 596.41 295.95 595.87 296.6 595.33 296.65 595.28 296.65 595.17 296.65 595.06 296.6 594.95 295.59 594.79 293.57 593.88 292.61 593.66 291.81 593.82 291.2 594.14 290.44 594.25 289.28 593.82 285.69 589.73 285.54 588.97 286.1 587.95 286.91 587.57 290.49 587.46 292.46 586.76 295.59 585.09 297.06 583.91 297.76 582.34 296.6 580.46 295.85 579.76 295.69 578.73 295.8 577.76 296.6 575.82 296.81 575.5 296.86 575.23 296.81 574.91 296.6 574.69 295.24 573.08 294.84 572.7 293.57 572.27 293.12 572.59 292.92 573.29 292.51 574.1 290.34 576.85 289.08 577.76 287.36 578.14 280.75 577.12 277.26 577.39 275.09 579.76 274.69 579.97 274.28 580.08 273.93 579.97 273.52 579.76 272.87 577.82 271.25 576.69 269.59 576.79 268.83 578.68 267.82 577.98 267.31 576.96 267.16 575.61 267.26 574.32 266.91 574.04 266.61 573.72 266.35 573.4 266.15 573.02 267.52 572.48 266 571.94 262.52 572 260.75 571.57 258.17 570.11 257.47 569.41 257.01 568.5 256.56 567.15 256.31 566.02 256.46 565.75 255.6 565.53 253.32 565.91 252.31 565.91 251.41 565.48 249.69 564.18 248.88 563.75 241.31 561.81 239.59 562.03 238.48 561.44 236.41 560.3 234.74 560.14 232.72 561.22 232.72 562.68 235.09 565.8 235.9 567.69 236.46 569.84 237.22 571.84 238.58 573.13 240.4 574.1 241.71 575.39 242.52 577.22 242.62 579.76 243.58 580.89 243.73 582.24 243.22 583.15 242.37 582.83 241.56 581.75 241.21 581.16 240.75 580.89 239.69 580.84 239.49 581.16 239.49 582.4 239.34 582.77 238.63 582.83 237.27 582.4 236.66 582.4 235.75 582.94 234.54 584.45 233.83 585.04 233.03 585.2 232.12 585.41 230.65 585.31 229.19 585.52 227.52 586.76 226.21 588.59 225.4 590 224.49 591.13 222.82 592.2 220.6 594.95 217.57 595.17 214.49 593.71 211.97 591.61 210.65 590.1 209.95 588.81 209.14 585.31 208.33 583.37 206.06 581.27 205.15 579.76 204.09 578.46 202.22 575.39 201.16 574.04 199.49 573.02 196.21 571.94 194.9 570.38 194.7 569.47 194.8 568.55 194.75 567.58 194.19 566.61 193.48 566.45 190.15 566.45 189.29 566.66 188.74 567.09 188.23 567.2 187.27 566.5 186.92 565.91 185.96 563.27 183.59 562.89 182.88 561.06 183.44 559.39 184.9 559.71 184.8 559.39 184.44 558.26 184.9 558.2 185.56 557.83 185.96 557.66 187.12 556.8 188.38 556.1 189.49 555.29 190.05 553.95 191.21 553.62 193.59 554.22 194.85 553.95 195.55 553.08 197.07 551.74 197.73 550.93 197.47 550.98 197.47 550.39 197.57 549.58 197.73 549.1 198.03 548.45 198.23 548.18 198.23 547.86 197.93 547.05 200.25 546.19 199.59 544.25 193.33 538.32 191.06 537.13 188.64 536.6 185.96 536.54 185 536.76 184.44 537.78 183.94 539.08 183.03 540.1 181.77 540.37 180.66 539.88 178.33 538.32 175.2 538 170.66 541.98 167.53 542.47 167.38 542.15 167.32 541.82 167.38 541.5 167.53 541.18 168.59 540.42 168.74 539.18 168.34 537.73 167.68 536.33 166.72 534.71 165.76 533.85 164.55 533.69 160.15 535.2 158.13 535.25 157.63 535.09 153.89 529.43 153.69 528.78 153.54 528.08 151.67 527.92 145.56 529.27 144.8 529 144.25 528.57 143.29 527.22 142.43 526.74 127.68 522.1 124.6 522.32 123.9 523.13 123.19 524.2 122.38 524.96 122.28 524.96 121.32 524.69 120.87 523.83 120.92 522.86 121.12 521.78 121.12 520.81 120.21 518.81 119.1 518.01 117.79 517.47 116.32 516.44 115.51 515.31 114.66 513.59 113.95 511.75 113.75 510.3 114.25 508.36 114.91 507.28 114.96 506.26 113.8 504.59 111.83 503.73 107.64 503.67 106.93 502.11 106.58 500.55 105.72 500.17 104.76 500.76 104.1 502.11 103.85 503.19 103.04 503.35 101.98 502.87 101.12 502.11 100.52 501.09 96.78 500.33 95.36 499.2 95.16 500.06 94.81 500.55 93.75 501.25 93.34 501.3 92.89 501.52 92.54 501.79 92.18 502.11 92.49 503.3 93.7 504.16 94.81 505.61 94.91 508.63 94.66 509.17 93.95 509.87 93.75 510.25 93.7 510.79 93.75 511.22 93.8 511.49 93.9 515.1 93.75 516.01 85.31 515.47 82.64 516.12 81.07 516.07 81.07 514.13 82.13 512.62 84.76 509.98 88.5 502.11 91.78 494.67 91.98 493.49 92.03 491.5 92.13 490.47 92.54 489.77 93.09 489.29 93.6 488.58 93.75 487.24 93.85 484.6 94.45 481.69 95.42 478.89 96.68 476.68 96.37 476.41 96.12 476.08 96.53 473.07 95.42 471.02 93.75 469.3 92.39 467.14 92.18 466.44 91.88 464.55 91.88 464.44 91.42 460.03 91.17 457.28 91.78 455.99 91.02 454.53 89.66 453.24 88.5 452.43 86.83 451.73 83.4 450.81 81.68 450 81.68 449.95 80.11 448.98 75.32 447.58 73.7 446.07 73.45 444.94 73.3 444.19 73.9 442.14 75.32 440.14 76.17 438.04 76.07 435.29 75.32 432.6 74.36 430.82 70.82 428.18 69.16 426.46 68.4 423.76 68.09 421.01 67.08 419.83 65.72 418.97 64.51 417.35 64.31 415.14 65.27 413.31 69.51 409.48 70.87 407.92 71.98 405.98 72.59 403.93 72.89 397.52 73.25 396.5 74.86 393.96 75.16 392.94 75.32 391.97 75.57 391.06 76.12 390.14 77.49 388.68 72.69 385.5 71.93 384 72.39 381.25 73.19 379.31 73.45 377.8 72.39 376.35 72.39 375.7 73.85 374.03 73.85 371.87 72.69 369.99 70.67 369.23 68.55 368.8 66.02 367.67 64.41 366 64.81 364.11 63.3 361.04 61.53 356.41 61.13 352.2 64.96 349.24 66.73 346.76 67.94 344.28 67.59 343.15 66.23 342.07 66.78 339.6 68.85 335.77 66.58 334.15 66.13 333.72 61.88 329.52 57.44 327.96 55.32 325.43 53.95 324.83 53.15 324.19 50.62 319.88 49.51 318.69 41.63 313.62 39.66 312.65 37.24 310.18 35.77 309.64 34.11 309.53 32.54 309.1 31.28 308.24 30.42 306.73 32.39 305.22 33.15 303.93 33.45 301.93 33.3 300.58 32.39 296.81 31.94 295.73 31.94 295.09 35.52 292.77 40.02 290.72 44.36 287.71 46.63 285.6 47.64 283.72 47.84 282.8 50.02 276.77 49.86 275.2 49.46 273.7 49.16 271.97 49.36 270.57 49.91 269.22 50.62 268.31 51.43 267.93 51.94 267.23 53.85 263.94 52.89 263.13 52.64 262.54 51.48 261.73 51.03 261.03 50.82 260.01 50.77 258.07 50.67 257.15 50.17 255.11 48.6 248.91 47.84 243.36 46.28 241.1 45.52 238.83 43.75 236.41 43.2 234.2 43.15 231.83 43.35 227.9 43.2 226.87 41.68 222.67 40.57 220.57 40.88 218.9 40.77 215.88 41.48 215.77 42.8 215.29 43.8 214.53 43.91 213.62 42.59 212.86 43.3 212.48 43.55 212.11 43.3 211.73 42.59 211.35 43 210.6 43.75 211.14 44.76 211.57 45.67 212.16 46.53 214.26 47.59 214.96 49.61 215.77 51.08 217.17 51.88 217.76 55.12 218.25 59.11 219.49 60.47 220.41 61.58 221.81 64 225.85 64.86 226.76 65.27 226.44 65.32 224.72 65.67 223.75 66.33 223.1 67.34 222.4 67.29 221.97 67.24 221.54 67.34 220.94 66.53 220.73 64.61 220.57 63.8 220.19 61.48 215.39 61.98 213.02 63.8 208.39 64.61 209.03 65.37 208.82 66.18 208.44 67.34 208.39 66.78 205.64 67.08 203.49 67.59 201.54 67.84 199.55 67.34 199.55 67.14 200.84 66.58 201.71 64.81 203.22 65.27 203.97 64.61 203.75 64.11 203.43 63.7 203.05 63.3 202.51 63.65 202.19 64.31 201.38 64.81 201.01 63.8 199.17 62.03 198.31 53.85 197.61 52.69 196.48 53.6 194.38 53.4 194.16 53.3 194.16 53.3 194.06 53.15 193.62 52.44 194.76 51.83 194.86 51.23 194.59 50.37 194.38 49.71 194.59 49.21 195.13 48.7 195.83 48.1 196.53 50.27 196.91 51.48 197.4 52.09 198.1 51.98 199.39 51.18 200.31 50.27 200.68 49.61 200.25 47.59 201.38 46.58 201.65 45.52 201.76 45.52 202.51 46.53 202.84 46.48 203.05 45.52 203.22 44.81 203.11 43.65 202.62 42.8 202.51 41.58 201.76 38 197.34 36.28 196.64 36.13 196.7 35.52 194.97 34.21 193.62 34.92 193.46 35.52 193.09 36.78 190.18 38 190.66 38.8 191.2 41.08 191.95 48.4 192.49 51.33 191.95 54.16 190.66 59.46 187.27 79 179.78 95.82 176 116.32 168.51 129.65 165.44 144.2 162.05 158.49 156.5 170.41 155.21 178.54 152.83 177.63 153.64 173.94 155.1 175.56 156.07 182.07 155.1 182.07 154.4 181.57 154.4 181.57 153.59 185.1 153.59 185.05 153.05 184.95 153 184.85 153 184.6 152.83 184.7 151.11 183.03 151.06 178.99 152.13 181.57 151.06 184.6 149.33 189.14 144.7 188.23 146.31 186.56 147.82 185.96 148.63 186.62 148.42 187.98 148.15 189.14 147.77 190.15 146.69 192.73 145.67 193.69 144.7 192.83 143.13 191.36 143.08 190.71 143.78 189.59 144.7 192.73 140.06 201.31 130.63 201.31 131.28 200.91 132.36 201.61 132.63 202.83 132.25 203.79 131.28 204.24 129.83 203.79 129.4 202.83 129.72 201.77 130.63 203.28 128.05 205.81 125.84 210.86 123.14 226.26 121.2 232.27 119.16 235.4 118.67 238.18 117.81 245.25 111.18 267.52 102.24 295.39 97.71 307.92 94.05 327.61 92.48 339.78 92.48 341.45 93.02 344.12 95.02 345.08 95.45 346.65 95.77 371.85 108.65 376.44 113.77 377.2 114.95 377.96 116.68 378.01 118.13 376.69 118.67 376.39 118.3 376.04 117.49 375.58 116.73 374.22 115.92 373.31 113.88 372.1 112.53 368.62 107.46 367.91 107.19 365.33 106.71 364.68 106.49 363.97 105.47 361.9 104.82 357.5 102.24 353.16 100.46 352.45 99.6 350.03 98.03 349.43 97.77 348.52 98.14 348.06 98.68 347 101.81 346.85 102.51 346.85 104.12 347.25 104.5 349.02 105.2 349.43 105.58 350.33 106.92 351.39 108.92 351.34 109.78 351.09 110.48 351.09 111.18 351.95 111.99 351.5 114.09 352.35 115.01 353.77 114.74 354.98 113.39 354.53 115.22 355.13 116.68 356.04 117.86 357.91 122.82 358.46 123.9 358.21 126.38 358.26 130.69 358.72 134.73 359.78 136.56 360.94 136.88 363.16 138.39 364.32 138.72 365.33 138.82 366.54 139.15 367.61 139.74 368.06 140.66 369.32 142.16 381.75 145.61 384.52 145.78 386.79 144.7 387.45 145.24 388.31 145.67 390.33 146.21 418 142.65 424.11 140.12 426.99 139.53 429.31 138.61 433.86 134.51 435.12 134.03 436.69 135.16 440.37 136.24 446.08 136.51 461.33 137.21 489.91 138.5 511.22 139.47 532.53 140.44 558.89 141.63 590.86 143.13 611.41 144.05 631.92 144.97 649.14 145.78 663.02 146.42 668.08 144.97 669.49 144 671.36 141.03 671.46 140.87 673.28 140.12 674.84 140.28 679.28 142.27 680.09 142.33 681.76 142.06 682.52 142.22 683.27 142.87 683.73 143.73 684.03 144.59 684.49 145.29 685.35 145.78 687.87 146.04 688.33 146.64 688.07 147.66 687.62 148.9 687.62 150.03 688.93 151.65 690.65 151.59 692.41 150.95 693.88 150.68 695.24 151.27 699.79 154.56 702.62 156.01 708.58 157.95 710.04 159.03 711.4 160.06 712.11 161.03 713.47 163.23 714.13 164.04 714.89 164.47 716.5 164.85 717.16 165.23 718.37 166.79 719.43 168.94 720.24 171.37 720.8 173.69 721.86 178.7 721.91 181.12 720.8 182.79 719.89 183.44 719.48 183.87 719.13 184.36 719.08 185.49 719.38 186.51 719.99 187.27 720.8 187.81 721.2 188.29 721.45 188.83 721.4 189.42 721.1 190.07 721.15 193.25 721.96 195.89 722.92 198.37 723.67 201.06 724.33 206.77 725.14 209.03 726.91 211.3 727.11 217.87 728.88 225.42 735.09 242.07 738.57 248.37 740.09 251.76 743.01 261.89 744.33 264.91 745.64 266.48 746.35 267.98 746.95 269.55 747.81 271.22 749.13 272.46 750.39 273.32 751.2 274.61 750.99 277.2 750.34 278.71 749.48 280 748.77 281.45 748.67 283.56 749.28 285.39 751.5 287.87 752.36 289.43 752.51 290.29 752.31 291.53 752.31 292.23 752.96 295.2 752.96 296.06 752.76 296.7 751.95 298.16 751.75 298.97 751.8 300.15 752.05 300.75 752.36 301.29 752.56 302.09 753.17 315.02 753.32 318.2 752.31 322.73 749.38 325.91 739.58 331.78 727.26 334.85 720.7 338.19 714.18 342.94 705.19 355.06 702.26 358.24 700.9 360.07 697.47 366.21 697.72 366.27 698.22 366.65 698.78 367.08 699.59 368.1 699.84 369.5 699.23 371.39 700.9 372.3 706.2 373.6 707.36 373.17 708.32 374.03 712.92 375.54 714.43 375.7 714.43 376.35 713.93 377.31 714.13 377.53 715.19 377.15 716.1 377.53 716.76 378.12 717.46 378.23 718.47 377.15 718.78 377.64 719.53 378.18 719.99 378.66 721.25 377.58 721.5 378.39 721.3 379.63 721 380.01 723.07 383.62 724.48 384.05 728.02 383.94 729.38 384.7 729.88 385.5 730.24 386.37 730.69 387.01 731.4 387.28 732.26 387.82 732.56 389.06 732.66 390.25 733.27 391.59 734.33 395.58 735.14 397.36 733.98 398.11 733.02 399.46 731.65 402.37 731.15 404.31 731.1 407.7 730.64 408.89 730.89 409 731.05 409 731.1 409.16 731.15 409.64 730.24 410.08 729.94 412.34 729.13 413.2 730.29 415.14 731.65 416.76 730.79 419.18 729.38 420.42 727.87 421.28 726.6 422.52 726.3 423.28 726 424.41 725.59 426.83 725.85 427.37 726.35 428.13 726.5 428.77 725.85 429.04 725.54 429.37 725.79 430.01 726.25 430.77 726.6 431.2 725.64 432.22 725.19 432.49 724.53 432.55 724.53 433.35 725.39 434.16 725.49 435.19 725.09 437.99 725.34 439.5 726 440.95 727.61 443.43 727.11 443.48 726.6 443.43 727.51 445.05 728.67 445.48 729.68 445.96 729.99 447.36 730.14 448.01 730.59 449.52 731.75 450.22 733.12 450.65 734.13 451.3 733.02 453.35 733.12 454.05 736.1 457.93 736.7 459.22 735.84 459.54 735.34 460.3 735.24 461.37 735.69 462.77 734.38 463.26 733.07 464.44 732.01 466.01 731.65 467.41 732.11 469.62 733.27 470.16 734.68 470.16 735.95 470.91 740.04 478.83 741.7 480.66 745.44 482.77 748.97 485.94 749.78 487.18 748.57 487.78 748.32 488.69 749.38 490.8 751.3 493.44 751.95 494.84 752.81 499.2 752.81 499.85 752.51 500.65 753.07 501.09 753.97 501.41 754.88 501.95 755.69 503.08 755.94 503.94 755.99 504.86 756.4 506.2 757.51 507.88 762.51 511.97 768.62 514.99 769.58 516.28 768.67 518.06 766.45 518.49 763.97 518.54 762.51 519.14 760.54 518.11 758.52 518.38 756.8 519.51 755.89 521.29 756.04 523.29 757.15 524.58 758.87 525.33 760.94 525.55 760.94 526.2 759.98 528.03 760.99 529.59 763.01 530.72 765.03 531.15 764.58 533.52 765.13 535.68 767 539.72 767.05 539.77 765.34 542.41 766.04 547.32 766.6 548.67 766.95 548.99 766.9 549.21 765.94 550.39 764.58 551.74 759.83 553.95 759.63 555.19 759.73 557.18 759.58 558.53 759.28 559.66 757.66 563.05 753.77 564.45 740.39 564.62 737.86 565.37 736.6 565.91 735.59 566.83 734.78 568.33 733.82 571.08 733.82 571.19 732.76 572.54 726.96 578.19 724.84 579.76 724.78 579.76 720.8 582.5 717.46 584.82 700.6 601.26 698.37 604.33 695.7 606.21 692.72 609.12 684.74 619.68 681.66 622.54 681.25 623.35 680.65 625.45 680.29 626.15 679.69 626.74 678.38 627.17 677.72 627.55 677.01 628.36 672.47 635.8 671.21 636.93 670.4 637.2 668.83 637.52 668.02 638.17 667.47 639.03 666.21 642.32 660.6 649.05 658.78 653.04 660.2 656.65 660.7 658.16 661.16 662.52 661.41 663.65 661.61 664.25 662.57 665.59 664.19 667.1 664.59 667.91 664.89 669.53 665.9 678.85 665.65 680.36 664.39 683.43 663.33 687.04 662.17 689.25 661.76 690.49 662.22 691.03 662.57 690.81 663.53 689.73 664.69 690.49 664.59 690.49 664.34 690.54 666.71 692.11 668.88 694.64 670.25 695.55 673.53 697.22 674.44 698.3 674.44 699.16 673.78 701.16 673.68 702.5 673.98 703.48 675.2 705.36 675.3 705.52 675.45 705.9 674.59 707.52 673.07 706.92 671.46 705.58 670.14 704.98 669.34 704.71 667.97 702.99 667.22 702.34 666.41 702.29 664.74 702.72 662.07 702.56 660.5 702.67 658.93 702.5 657.12 701.37 654.34 698.63 652.82 698.19 651.31 699.54 648.73 698.41 642.98 698.19 640.25 697.44 636.51 694.04 634.95 693.45 630.86 693.61 627.42 692.64 626.87 692.21 626.72 691.62 626.92 690.92 626.92 690.22 626.11 689.41 625.45 689.3 623.69 689.52 622.98 689.47 622.12 689.09 619.7 687.69 614.5 686.82 612.42 685.42 611.92 682.19 610.96 678.58 608.84 675.51 606.21 673.25 602.22 671.41 599.55 669.2 598.18 668.5 596.67 668.72 595.41 669.8 594.35 670.93 593.59 671.36 592.48 670.55 590 667.1 588.74 665.97 588.03 665.76 586.87 665.97 586.32 665.92 585.56 665.43 584.2 664.25 583.44 663.76 582.08 663.44 576.77 663.98 575.66 664.41 574.3 664.89 573.24 664.62 570.51 665.16 569.3 665.16 562.08 663.33 557.94 661.34 556.93 661.12 555.61 661.93 553.29 665.05 552.03 666.13 550.46 666.35 549.3 665.65 548.24 664.57 546.93 663.76 545.77 663.65 542.79 664.19 541.67 664.68 540.16 666.19 541.07 667.16 542.79 668.07 543.64 669.58 543.04 670.55 541.67 670.77 540.16 670.82 539 671.04 537.48 672.33 535.06 675.56 533.44 676.8 531.73 677.34 530.36 677.13 529.2 676.32 527.99 675.19 526.58 674.27 525.41 674.11 524.15 674.16 522.54 673.95 521.38 673.19 514.81 666.13 513.65 665.92 510.87 666.35 509.25 666.13 508.6 666.19 507.84 666.56 506.68 667.86 505.82 668.56 504.05 669.15 502.44 668.77 496.23 665.92 495.06 666.13 495.06 667.91 491.28 668.02 488.25 667 487.39 667.05 486.63 667.53 486.33 668.18 486.18 669.1 485.82 670.55 485.27 671.95 484.91 672.44 479.21 672.87 478.1 673.46 476.48 675.19 475.77 675.78 474.16 675.62 473.96 675.46 473.55 675.99 472.14 678.85 471.73 680.03 471.18 681.17 470.27 682.19 469.87 685.75 469.11 688.28 467.64 689.3 465.22 688.17 461.43 684.94 459.36 684.02 456.99 684.24 455.68 685.15 454.21 686.5 453.2 687.47 451.53 688.01 448.15 687.74 446.28 687.15 445.32 685.96 445.63 684.62 448.4 680.52 448.76 680.25 449.21 680.14 449.67 679.93 449.82 679.34 449.67 678.9 449.67 678.85 449.11 678.31 449.06 678.31 448.96 678.04 447.95 677.39 447.7 677.02 447.75 676.59 448.3 675.83 448.4 675.46 448 670.5 447.6 668.83 446.94 666.89 446.89 666.89 446.23 666.4 443.76 667.32 442.29 667.43 440.68 667.26 436.44 665.97 436.59 664.73 436.54 663.17 436.64 662.58 436.99 661.93 434.06 661.93 432.5 661.55 431.23 660.69 430.88 659.94 429.67 656.7 428.31 651.53 427.45 649.48 425.68 648.46 425.12 647.92 423.91 645.93 423.25 645.71 422.85 645.55 422.45 645.71 422.14 646.25 415.78 652.61 415.23 653.04 414.17 653.42 413.41 653.52 411.13 653.47 409.72 653.74 408.51 654.28 407.45 655.25 406.44 656.65 405.23 659.99 405.38 660.1 405.63 660.42 405.73 660.91 405.58 661.55 405.28 661.82 404.37 661.82 404.12 661.88 403.61 663.87 403.41 665.11 402.9 665.92 400.63 666.78 398.76 667.1 398 667.05 397.3 666.73 395.83 665.76 395.13 665.54 393.56 665.86 390.68 667.37 388.81 667.53 387.4 667.26 386.95 666.13 387.3 662.79 387.1 661.23 386.74 659.88 386.64 658.43 387.3 656.7 385.18 655.52 377.86 654.92" style="fill:#efc441"/></svg>