<svg xmlns="http://www.w3.org/2000/svg" viewBox="0 0 800 800"><polygon points="714.24 30.13 714.93 32.58 715.56 43.78 714.64 56.77 713.84 58.79 713.67 59.83 713.1 61.36 711.77 62.52 708.85 64.11 707.13 65.4 706.04 66.99 703.22 75.87 701.96 78.07 701.62 78.99 701.27 80.95 700.93 81.87 699.38 84.2 697.37 88.73 697.08 89.95 696.8 92.34 694.67 98.46 688.3 110.04 688.02 110.77 687.16 111.08 682.34 115.85 681.25 117.32 680.61 118.79 679.7 124.06 679.12 125.77 678.43 127.49 677.46 129.14 676.31 132.2 675.45 133.61 674.01 134.04 673.67 134.96 671.66 137.53 671.03 138.57 667.82 148 667.82 149.35 668.28 152.04 668.51 154.8 668.1 163.37 668.56 167.47 668.56 168.88 668.28 170.41 667.42 173.41 667.24 174.94 667.88 200.6 667.7 202.44 662.77 214.01 662.31 215.78 661.91 219.09 658.98 229.07 658.64 234.64 658.06 236.42 654.56 242.66 652.73 244.87 651.12 248.24 650.54 250.32 651.52 256.5 651.46 263.61 653.99 275 653.99 277.44 652.73 284.36 652.78 286.87 653.3 289.08 654.91 293.37 656.11 294.1 657.03 295.57 657.54 297.28 657.72 298.81 657.14 307.51 656.68 308.92 649.51 319.69 642.91 338.86 641.36 342.11 637.92 358.76 637.75 361.03 637.92 363.29 639.99 372.23 640.73 388.09 640.1 388.95 638.95 390.72 633.56 396.05 633.1 396.66 632.75 397.4 632.58 398.68 632.47 399.05 632.18 399.36 631.21 400.15 630.12 401.5 628.39 402.85 623.63 408.91 612.38 423.42 610.2 425.56 608.48 427.77 607.85 428.32 605.61 429.48 605.38 429.97 603.72 432.06 602.86 432.61 598.44 433.89 594.25 434.56 592.59 434.99 587.02 437.44 582.95 438.67 580.3 439.16 579.79 439.4 578.93 440.01 578.41 440.26 578.18 440.81 576.17 443.26 572.9 446.32 570.26 449.57 566.36 452.94 564.47 454.16 563.89 454.77 563.55 455.38 562.63 457.89 560.68 461.63 559.36 464.94 557.98 467.02 554.88 473.63 552.13 477.49 550.18 481.65 549.03 483.49 547.42 486.25 546.79 487.71 546.33 489.18 546.22 490.23 546.27 493.23 545.82 495.92 544.73 498.19 538.07 507.49 537.84 507.8 537.44 508.9 537.15 510.06 536.63 510.37 535.14 511.53 533.88 512.15 533.48 512.33 532.67 513.07 531.41 514.84 526.13 520.35 522.58 523.23 517.93 528 515.52 529.72 513.45 531.74 511.38 534.56 510.35 536.46 509.78 538.48 509.89 540.56 510.01 541.23 510.01 541.84 508.92 545.82 508.75 547.29 509.03 548.64 509.78 549.93 509.95 550.36 510.12 551.21 510.18 555.56 512.99 577.05 511.21 590.22 509.2 596.65 508.98 597.87 508.92 599.16 509.49 604.36 509.84 607.54 509.55 612.01 509.95 617.04 509.61 621.87 510.01 623.4 510.75 625.06 510.75 627.14 510.3 631 510.7 632.89 511.67 633.94 512.71 634.67 513.11 635.65 512.99 637.73 512.59 639.39 511.5 642.08 507.37 649.73 505.59 654.51 503.75 658.43 498.53 665.23 495.14 672.57 494.51 674.59 493.31 675.88 491.87 680.11 489.29 684.94 488.72 685.68 488.2 686.6 486.71 691.86 484.64 693.88 484.24 694.31 481.03 696.15 477.3 697.31 473.51 697.92 469.84 698.54 457.73 702.64 456.24 703.37 454.98 704.41 453.94 706.13 451.36 714.95 450.9 715.74 449.01 717.82 448.72 718.38 447.97 718.68 445.91 719.84 442.64 721.13 433.28 726.15 431.68 727.32 429.38 728.36 427.31 729.64 426.45 731.36 426 732.58 422.84 737.36 418.42 744.03 416.58 745.87 412.11 748.26 411.48 749.24 410.9 750.4 404.42 757.2 397.59 769.5 396.96 770.97 396.1 772.26 394.78 773.42 390.82 775.26 385.25 778.99 382.78 779.91 379.57 780.22 378.65 779.85 376.01 778.14 374.98 777.77 374.58 777.52 373.89 776.36 373.55 775.93 372.8 775.87 371.02 775.99 370.68 775.63 369.99 774.65 368.44 774.59 366.77 775.08 365.8 775.63 364.08 777.59 363.04 778.14 361.44 778.38 360 778.69 359.66 775.93 360.98 768.95 360.63 768.03 360.23 767.24 359.89 766.38 359.83 765.34 360.06 764.48 360.69 762.89 360.86 762.09 360.52 759.83 359.6 758.42 358.34 757.13 357.08 755.42 356.39 752.05 355.76 750.03 355.81 749.36 356.5 748.01 357.82 746.73 360.98 745.32 362.01 744.28 362.93 742.87 364.31 741.15 365.51 739.38 365.8 737.72 365.22 737.11 362.3 735.09 360.69 733.07 359.31 730.87 358.74 729.52 358.74 729.09 359.03 728.6 359.37 727.32 359.54 726.15 359.54 725.17 359.31 724.5 358.86 724.07 357.31 724.19 353.69 726.27 349.85 727.25 348.18 728.54 345.02 731.48 341.87 733.07 338.65 734.17 331.31 735.15 328.15 736.44 325.69 739.99 325.57 740.3 325.34 740.48 324.02 741.52 322.64 743.3 321.73 743.85 320.92 743.91 318.45 743.17 318.4 743.11 316.05 743.3 315.24 743.11 314.32 742.19 313.18 739.87 312.37 738.76 310.48 737.48 308.81 737.29 303.48 739.25 302.5 739.81 302.16 740.85 303.08 749.48 302.79 751.26 301.47 754.87 301.18 756.83 302.27 760.69 301.76 761.48 301.13 761.36 300.44 761.18 299.75 761.54 299.4 762.52 299.63 764.18 299.17 764.79 298.43 764.91 296.53 764.3 295.73 764.3 293.95 765.46 292.12 769.08 291.2 769.44 290.39 769.69 289.42 769.2 287.75 767.36 286.66 766.81 285.69 766.99 282.99 768.71 283.85 769.44 284.2 770.24 283.91 770.91 282.99 771.4 278.69 774.83 276.33 777.83 275.47 778.57 273.69 774.65 273.06 771.52 272.66 770.48 271.86 769.63 270.6 768.89 265.55 766.99 264 765.89 260.04 762.28 257.86 760.75 257 759.83 255.96 756.89 254.47 754.56 253.78 753.22 252 750.95 249.94 751.2 248.56 753.15 248.73 756.15 244.83 754.07 239.32 747.09 235.99 744.28 234.39 742.25 232.89 737.97 231.63 736.13 230.37 735.34 229.34 735.46 228.36 735.95 227.04 736.25 225.89 735.95 224.34 735.09 223.71 734.72 222.56 734.29 220.61 735.52 219.64 737.6 218.95 739.75 217.8 741.15 216.31 742.07 214.93 743.3 213.78 744.7 211.95 748.32 211.03 749.36 209.71 749.85 200.41 751.68 194.68 753.71 193.47 753.83 191.18 753.52 190.37 754.75 190.49 758.6 190.08 760.44 186.58 767.85 185.72 768.95 184.52 769.44 181.65 769.81 180.39 770.12 179.18 770.61 178.44 771.28 177.4 769.2 176.6 768.16 175.85 767.67 174.82 767.67 174.48 768.1 171.89 777.28 169.71 781.08 160.24 789.65 159.56 790.63 158.24 789.4 157.09 787.93 155.19 784.57 152.04 780.46 149.97 778.32 149.17 775.87 144.52 770.67 143.66 769.57 143.6 769.08 144 768.46 144.46 768.59 145.61 769.93 146.01 769.69 146.41 768.59 146.19 766.69 144 763.63 140.45 760.2 140.04 759.09 140.1 758.17 142.05 758.17 143.66 756.34 144 754.32 142.51 750.95 132.99 740.79 124.26 732.83 116.63 725.6 112.67 722.97 108.54 719.05 106.93 716.35 106.53 715.8 105.5 713.84 105.27 712.92 105.33 710.97 105.27 709.99 104.92 709.25 97.52 703.01 89.37 697.25 86.56 695.04 84.44 693.58 85.76 691 91.32 674.96 92.7 672.14 94.88 670.12 97.75 668.16 100.28 665.96 102.97 664.18 106.42 663.45 109.57 662.29 111.47 659.72 113.02 656.96 115.37 655.31 119.56 655.92 122.66 658.49 129.31 670 130.75 671.59 132.53 672.27 137.12 671.59 138.78 671.84 143.6 673.31 145.15 673.37 145.38 673.25 146.87 672.63 148.65 671.23 150.14 669.33 150.83 667.31 150.2 665.41 148.59 664.49 146.64 663.82 144.87 662.72 144.06 660.82 144.29 658.74 149.05 646.67 150.2 644.53 153.82 641.65 154.97 639.69 154.05 636.81 150.83 635.22 146.87 634.06 143.77 632.47 140.39 629.53 138.67 628.42 133.9 626.28 133.27 625.73 132.53 625 132.35 624.63 132.53 624.14 132.58 617.96 132.99 616.36 134.13 614.16 134.99 613.61 136.14 613.67 138.09 613.49 140.16 612.14 140.16 610.18 138.9 608.1 132.53 600.87 129.66 596.4 128.28 594.75 126.62 594.2 124.21 594.93 120.82 597.5 119.39 597.75 118.98 595.67 119.79 592.24 119.96 591.56 126.04 580.91 126.85 578.64 127.25 576.81 127.25 574.97 126.79 572.64 125.98 570.62 123.86 567.01 123.23 565.17 123.17 563.58 123.8 558.62 123.52 556.66 121.68 551.46 122.37 549.68 122.54 549.62 125.64 549.74 129.89 551.09 131.03 551.7 131.55 552.44 131.9 553.17 132.53 553.97 135.34 556.36 136.89 557.21 138.26 557.34 139.7 556.48 142.51 553.66 144.35 552.87 147.39 552.19 150.95 551.03 153.59 549.62 154.45 550.17 155.94 551.33 158.81 555.13 161.33 557.03 163.97 557.34 197.26 549.68 196.28 547.72 196.86 544.84 198 541.72 198.58 539.21 198 535.48 198.18 534.13 198.75 532.78 200.24 530.27 200.64 528.74 197.37 527.15 195.59 524.27 194.91 520.66 194.22 510.98 194.5 509.82 195.48 510 196.45 511.17 198.06 512.94 199.5 513.43 200.59 512.82 200.99 511.9 201.04 510.92 201.16 510.19 201.68 509.02 202.08 508.47 202.59 507.92 206.73 504.98 207.64 504.62 211.72 504.55 215.33 506.08 220.84 510.37 221.25 510.68 224.75 511.9 226.18 512.94 227.16 515.09 228.99 521.64 229.74 523.47 230.25 524.15 231.52 525.56 231.92 526.05 232.26 528.13 232.09 528.13 232.09 528.56 232.03 529.11 232.21 529.54 233.75 530.03 233.7 530.52 233.41 531.13 233.24 531.56 232.89 532.23 232.72 532.78 232.95 533.33 234.04 534.5 234.33 535.11 234.39 536.09 234.79 537.68 235.99 537.62 238 536.52 238.75 537.25 240.3 540.01 241.1 541.05 241.5 543.43 241.73 544.17 242.36 544.84 242.82 544.84 243.22 544.9 243.45 545.95 242.76 546.74 242.31 547.48 242.13 548.33 242.07 549.13 241.79 549.93 241.5 550.66 241.1 551.27 240.12 552.13 239.72 552.99 239.95 553.48 241.1 553.42 242.07 552.38 243.57 550.78 244.66 550.42 246.72 550.85 252.12 553.48 253.9 553.91 254.81 553.72 256.42 552.68 257.4 552.56 258.2 552.74 272.83 558.56 274.33 558.74 275.93 558.32 277.77 558.62 278.17 558.62 279.38 558.25 279.89 558.38 280.58 559.48 281.04 559.66 281.9 559.11 282.3 558.38 282.53 557.58 282.99 556.66 283.8 555.8 286.55 553.85 287.24 553.05 288.5 551.46 289.3 550.66 290.28 550.11 292.29 549.44 293.15 548.82 293.49 548.03 293.78 546.13 294.3 545.21 300.72 538.6 301.36 537.62 301.7 536.64 301.81 534.92 302.04 533.88 302.9 532.11 304.68 529.35 304.86 528.86 305.14 528.99 306 529.66 307.15 530.82 308.18 532.54 308.93 534.43 309.68 538.11 311.57 542.27 312.6 543.92 314.15 545.58 314.73 546.44 314.95 548.95 315.64 549.62 316.5 550.05 317.37 550.72 318.51 552.38 318.17 552.93 317.19 553.6 315.99 556.29 314.27 557.27 313.63 558.01 313.58 561.5 313.46 561.93 314.84 563.21 316.73 563.89 318.8 564.01 320.58 563.58 322.01 562.66 322.82 562.29 323.62 562.29 324.42 562.91 324.65 564.5 325.17 565.05 325.86 565.05 329.7 563.76 330.22 563.7 331.08 563.76 332.34 564.56 333.2 564.93 333.95 564.8 334.47 564.13 334.81 562.97 335.33 561.38 336.07 560.58 336.88 559.91 337.45 559.11 337.39 556.78 337.79 555.87 338.48 555.07 340.09 553.66 340.84 553.11 341.7 552.68 345.66 551.7 346.06 551.95 345.43 549.07 339.06 543.37 338.83 540.31 339.92 539.33 342.79 538.23 343.94 536.95 343.94 536.27 343.42 534.68 343.53 533.76 343.99 533.33 345.43 532.84 346 532.23 346.4 530.94 346.86 526.23 347.38 524.45 347.49 523.53 347.09 522.8 346.4 522.25 345.94 521.82 345.94 521.27 346.35 520.41 346.29 519.37 346.52 518.58 346.92 517.9 347.55 517.29 357.31 513.19 357.48 513.13 359.71 511.84 360.29 510.62 359.66 506.7 359.71 505.96 360.23 503.63 360.46 496.53 361.04 494.57 362.01 493.35 364.02 492.12 363.39 491.51 361.61 491.2 360.18 490.71 359.14 487.1 357.54 486.12 356.96 485.45 357.71 484.71 359.43 484.1 360.23 483.67 361.04 483.06 361.61 482.14 361.95 481.1 362.47 480.37 365.22 479.82 365.17 478.41 364.25 476.81 363.16 475.65 364.19 473.08 364.36 470.94 364.65 470.08 365.63 469.1 366.66 468.37 367.29 467.32 366.83 465.49 363.85 463.41 362.64 462 362.13 460.28 362.36 459.3 362.93 458.69 363.62 458.08 364.25 457.34 364.71 456.43 365 455.57 365.34 453.55 365.45 450.79 365.28 450 364.65 448.83 363.22 447.3 362.87 446.93 362.3 445.83 362.3 445.1 362.76 443.57 362.81 442.77 362.53 441.73 361.61 439.83 359.26 432.79 359.26 431.5 360.12 429.61 360.58 425.75 360.98 423.67 362.3 421.46 363.79 419.75 364.71 417.85 364.36 415.09 363.79 412.83 363.79 410.62 364.25 408.42 367.63 400.58 368.21 397.7 367.46 395.01 365.51 390.66 364.48 389.5 361.15 387.05 359.26 384.42 356.44 382.52 353.29 380.99 350.94 380.25 349.5 380.5 348.18 381.17 346.92 381.66 345.54 381.29 343.99 380.62 342.56 380.62 341.18 381.17 339.8 381.97 339.63 378.6 339 374.93 337.97 371.31 336.59 368.25 334.41 365.99 331.31 364.39 327.98 363.84 324.94 364.7 324.31 363.84 323.62 363.23 322.82 362.86 319.83 362.5 319.14 362.74 318.86 363.35 318.63 364.03 318.28 364.39 317.14 364.82 316.62 364.94 316.1 364.52 312.26 359.62 312.31 357.11 313.23 354.84 317.02 349.45 318.05 347.98 318.91 347.13 319.77 345.96 319.72 345.04 319.26 344.06 319.09 342.72 319.43 341.86 320.64 340.21 320.75 339.29 320.12 338.19 319.09 338 318.11 337.94 317.6 337.33 317.25 330.9 316.85 328.7 315.99 325.94 315.59 323.68 315.99 321.53 318.86 317 321.78 309.9 323.56 307.88 329.76 304.2 331.37 302.31 331.65 300.47 331.14 298.63 330.22 296.73 332.74 293 336.93 292.38 341.64 292.94 345.83 292.69 346.98 292.26 347.44 291.89 347.72 291.4 353.98 285.65 354.49 283.75 354.78 279.16 357.19 275.42 361.04 271.93 363.9 268.2 363.39 264.04 363.1 262.93 363.73 262.26 364.71 261.59 365.45 260.79 365.63 259.56 365 258.83 362.99 257.73 361.38 256.2 360 254.42 358.8 252.46 357.88 250.38 356.56 245.79 355.41 244.01 351.39 241.99 350.13 240.15 349.44 237.89 349.5 231.09 349.27 228.76 348.01 223.19 347.55 222.21 346.63 221.42 345.66 220.99 344.97 220.5 344.85 220.01 344.68 219.52 343.7 219.34 343.07 218.85 342.56 218.23 341.81 217.74 338.48 216.76 336.82 216.58 335.33 217.01 332.34 218.23 330.56 218.11 329.24 217.13 327.98 215.78 326.49 214.87 325 214.5 309.16 212.91 308.01 213.21 307.95 213.64 307.15 215.97 306.12 218.11 305.83 218.29 304.91 218.66 304.68 218.54 303.71 218.05 303.31 217.99 302.73 218.23 301.7 219.03 301.18 219.34 299.63 219.64 298.83 219.7 298.08 219.64 296.42 219.82 295.21 220.62 294.12 221.6 291.14 222.83 289.19 225.58 288.1 226.44 285.29 226.99 282.76 226.99 280.18 226.44 277.25 225.34 275.99 225.21 274.15 225.46 272.55 225.95 271.86 226.62 271.29 228.15 269.91 228.58 268.36 228.83 266.81 230.85 265.26 231.58 263.54 231.95 260.67 231.7 258.95 232.01 258.09 231.89 257.8 230.6 257 230.05 256.02 229.62 255.16 228.83 256.77 228.64 257.4 227.54 257.68 226.32 258.37 225.7 259.52 225.52 260.95 225.03 262.16 224.17 262.91 222.34 263.42 222.03 263.65 221.6 262.91 220.5 262.62 219.89 262.62 219.21 262.68 218.48 262.56 214.25 262.62 213.52 261.3 212.6 259.81 208.25 258.09 207.33 258.55 206.05 258.49 204.82 257.86 203.78 256.94 202.99 256.36 203.66 254.81 201.4 253.44 198.76 254.87 196.99 255.16 194.84 254.64 190.8 254.93 188.9 255.5 187.25 255.79 185.66 255.16 184.13 256.19 183.45 257.05 182.29 257.68 180.94 258.55 177.64 258.72 176.23 258.37 175.13 257.91 174.45 257.23 172.86 256.13 171.27 256.48 170.9 257.51 170.59 258.09 169.19 258.66 168.15 259.18 167.41 259.75 166.86 260.21 166.25 260.38 165.33 259.87 163.62 259.92 162.88 260.67 162.57 261.13 162.27 262.62 160.43 263.14 160.06 266.12 158.29 266.98 156.14 267.27 153.27 267.27 147.88 281.67 148.06 294.58 148.18 298.08 148.18 311.63 148.31 326.6 148.49 339.98 148.61 348.75 148.67 349.56 148.55 353.23 147.02 358.57 147.82 359.89 148.61 361.49 150.21 362.7 150.51 363.16 150.33 364.88 149.22 371.48 147.69 372.28 147.39 372.51 146.65 372.34 145.8 372.34 145 373.09 144.2 373.55 143.65 375.67 144.26 378.42 147.57 380.43 148.49 379.74 149.96 380.55 150.39 382.73 150.27 383.88 151.06 385.54 152.9 386.8 153.39 386.23 151.25 386.8 150.88 389.1 152.16 387.89 153.21 387.38 153.39 388.18 153.69 389.04 153.63 389.79 153.39 390.24 153.39 390.3 154.06 390.24 156.02 390.53 156.45 395.64 155.84 396.9 155.53 397.48 154.68 397.65 153.57 397.65 152.47 398.22 151.92 399.43 153.21 400.57 154.98 400.8 155.84 402.47 157.06 401.55 159.57 401.2 161.72 404.53 162.02 406.37 161.78 407.12 161.41 407.8 159.21 408.61 159.33 412.57 162.76 413.89 163.13 415.49 162.57 416.53 164.17 417.9 163.74 419.22 162.27 420.08 160.8 420.6 160.8 421.86 161.29 422.95 158.66 425.59 159.7 426.74 159.21 428.06 158.78 429.84 159.51 430.24 160.06 430.7 161.41 431.05 162.02 431.5 162.27 434.32 163.43 435 163.98 435.46 164.66 435.64 165.33 435.52 166.49 435.41 166.98 435.52 167.35 436.15 168.15 436.55 168.21 438.56 169.13 438.51 169.37 439.48 169.19 441.09 168.33 442.75 167.72 447.06 165.02 450.73 164.47 454.4 165.21 461.52 167.47 469.49 168.39 469.84 168.82 470.7 169.31 471.79 169.8 473.74 170.1 474.31 170.47 477.53 174.82 478.56 175.43 480.8 176.29 482.81 177.64 483.61 178.06 484.18 178.74 484.41 180.09 484.82 180.82 485.85 180.76 486.94 180.33 487.86 179.78 488.09 181.19 489.35 181.86 490.96 182.23 492.45 182.84 493.31 182.35 494.28 182.35 495.2 182.78 495.89 183.45 496.29 184.5 496.12 185.35 495.89 186.21 495.89 187.13 496.64 188.66 499.91 193.25 503.69 187.43 504.44 187.25 506.22 187.86 507.14 187.43 507.37 186.03 505.36 176.17 502.55 168.33 501.06 165.63 500.37 164.96 499.79 164.66 499.51 164.23 499.39 160.92 499.62 160.06 500.88 158.1 500.88 157.31 500.6 156.63 500.48 155.84 500.42 155.78 500.37 155.53 500.37 155.16 500.48 154.61 500.71 154.25 501.11 154.12 501.46 154.12 501.63 154 501.8 152.78 501.57 151.92 501.23 151.12 501.06 149.96 501.23 148.98 502.26 146.96 502.83 145 504.15 144.14 505.88 144.45 507.43 146.04 510.75 143.35 511.5 142.37 511.04 141.57 510.52 141.14 514.83 131.41 518.67 122.77 521.37 116.65 525.16 108.02 528.72 99.93 529.92 97.3 531.81 92.89 534.22 87.44 534.63 85.3 533.88 83.71 532.67 82.24 531.64 80.58 531.41 76.6 534.63 69.93 535.2 66.75 534.57 64.72 533.71 62.89 533.02 60.99 533.08 58.79 534.05 56.77 536.92 52.48 537.44 50.52 537.5 48.31 539.56 42.68 540.31 35.21 541.63 31.23 544.21 27.86 547.65 25.48 551.61 24.25 553.51 24.13 555.23 24.25 562.11 26.09 563.89 25.97 565.56 25.11 565.73 24.31 565.44 23.39 565.56 22.66 566.82 22.54 567.62 22.72 569.12 23.33 569.92 23.52 572.21 23.21 573.07 23.27 573.99 23.82 574.57 24.62 575.25 25.05 576.4 24.62 577.03 24.5 578.18 24.68 578.64 24.62 579.39 24.31 580.3 23.39 580.88 23.03 582.31 22.29 583.06 22.11 585.3 22.29 586.45 22.05 588.68 21.13 589.89 20.82 593.22 20.88 594.42 20.7 595.86 20.03 596.6 19.23 597.29 18.25 598.44 17.21 599.64 16.78 600.73 16.9 602.86 17.64 605.9 17.39 607.74 15.62 609.4 13.41 612.61 11.64 613.7 11.03 615.02 9.98 616.34 9.37 618.29 9.68 618.64 10.11 618.98 11.27 619.38 11.64 620.53 11.76 620.93 12.01 624.03 14.76 627.07 16.17 630.46 16.72 637.35 16.72 637.8 16.6 638.78 16.23 639.35 16.17 639.93 16.48 640.73 17.45 641.25 17.76 642.05 17.82 643.66 17.45 644.4 17.52 645.67 18.31 646.76 19.6 647.5 21.25 647.9 23.03 648.48 24.43 649.68 24.68 651.29 24.19 654.5 22.54 654.96 22.17 655.42 22.35 658.35 24.37 659.15 24.68 660.18 24.56 662.83 23.21 665.69 22.35 668.62 22.35 671.49 23.39 672.98 24.93 674.01 28.48 675.11 29.82 676.94 30.07 678.72 29.15 680.15 27.68 681.13 26.15 681.48 25.29 682.05 22.54 682.57 21.31 683.2 21.13 683.94 21.31 684.86 21.37 691.52 20.76 692.03 20.88 693.01 21.37 693.58 21.37 693.87 21.07 694.22 19.84 694.62 19.48 695.59 19.29 696.97 19.41 697.77 19.05 699.26 17.45 700.18 16.29 701.27 16.23 703.4 18.07 704.77 19.78 708.22 25.66 709.54 28.97 710.57 30.07 714.24 30.13" style="fill:#efc441"/></svg>