<svg xmlns="http://www.w3.org/2000/svg" viewBox="0 0 800 800"><polygon points="242.04 201.25 243.59 200.81 244.93 199.98 245.6 198.61 244.93 196.51 245.55 195.3 246.74 195.19 248.08 195.79 249.22 196.51 250.41 197.17 251.65 197.56 252.83 197.34 256.03 195.02 257.07 193.26 258.77 188.47 260.27 186.37 261.77 185.71 263.47 185.93 268.74 187.58 270.03 188.47 273.18 191.88 276.75 194.69 278.45 196.51 279.02 196.68 279.58 196.79 280.15 196.73 280.72 196.51 280.82 196.46 280.93 196.46 281.08 196.46 281.19 196.51 286.04 198.72 287.64 198.66 287.9 198.44 288.16 198.28 288.57 197.78 288.99 197.23 289.3 196.51 290.12 195.91 290.95 195.69 293.79 195.19 295.18 195.63 300.04 196.13 303.14 197.12 304.89 197.34 310.16 197.06 311.4 197.67 315.32 200.97 315.84 202.57 317.44 202.52 325.04 199.65 327.41 199.76 328.65 200.59 332.42 201.53 333.92 202.19 336.65 204.56 337.95 204.83 338.1 204.72 342.54 206.32 344.2 206.38 349.2 204.01 352.92 203.9 355.87 201.58 357.62 200.7 359.07 200.65 363.36 201.64 367.64 201.58 369.14 201.91 369.76 202.24 372.65 203.79 374.56 205.22 375.75 206.54 376.22 208.19 376.32 209.52 376.63 210.78 377.97 212.22 380.5 213.65 386.65 215.85 387.73 216.74 388.66 217.95 391.19 222.14 392.95 224.62 394.4 225.55 396.82 225.11 397.86 224.95 403.49 224.07 408.24 222.19 408.24 222.14 411.39 219.38 418.72 208.25 421.92 206.21 458.95 202.52 463.91 200.65 467.89 200.2 470.21 199.27 471.45 199.05 475.07 199.38 479.87 198.05 485.4 198.05 487.15 198 490.72 196.51 491.44 195.46 493.09 191.94 494.02 190.84 495.99 189.35 496.92 188.35 498.05 186.15 499.29 182.96 500.07 179.7 500.01 177.39 500.53 173.97 501.15 174.25 502.55 174.36 503.84 173.97 506.37 172.81 507.61 172.54 511.17 172.37 512.46 172.1 521.96 170.17 524.29 169.18 527.85 167.58 529.61 167.52 531.31 168.9 532.14 169.07 532.97 167.97 533.79 169.51 535.29 169.78 538.39 169.23 539.68 169.84 541.38 171.82 542.21 171.33 545.36 174.3 545.83 175.07 546.13 176.84 546.91 176.45 547.74 175.35 548.41 174.74 549.39 175.46 549.75 176.67 550.32 177.77 552.9 178.66 552.9 179.54 552.07 180.31 550.58 180.42 550.58 181.08 552.64 182.18 554.04 182.62 554.97 181.91 555.64 182.18 556.31 182.73 556.72 183.23 556.72 183.34 556.67 183.84 555.9 184.77 555.69 185.32 556.26 187.86 557.55 189.84 559.36 191.33 561.32 192.38 561.32 193.09 559.82 193.76 559.87 194.2 559.98 194.58 560.13 194.91 560.34 195.24 562.25 194.42 563.23 195.74 563.95 197.17 564.93 196.62 565.81 197.56 565.91 198.5 565.4 199.38 564.47 200.15 566.07 201.31 566.53 201.53 566.53 201.75 566.53 202.19 565.24 203.84 566.02 204.78 567.72 205.66 569.12 207.15 569.07 207.59 569.17 210.78 569.12 211.39 569.89 211.94 570.82 212.22 571.65 212.55 572.22 213.43 569.63 214.92 570.51 215.58 571.54 217.07 572.42 218.61 572.78 219.49 573.04 219.93 574.38 220.87 574.8 221.2 574.85 221.37 575.06 222.19 574.95 223.29 575.37 224.07 575.37 224.73 573.61 225 574.28 227.26 576.04 229.96 580.95 235.97 583.06 237.9 585.44 238.72 585.49 239.06 585.64 239.61 585.95 240.87 586.21 241.53 586.32 241.92 586.32 242.8 586.47 243.3 586.73 243.46 587.55 243.57 587.76 243.63 588.33 246.38 588.79 247.87 589.57 248.53 590.24 248.59 590.65 248.81 590.91 249.09 591.38 249.25 593.29 249.31 593.44 249.25 594.48 249.64 595.56 250.24 596.54 251.07 597.06 252.06 596.44 252.5 596.08 253.27 595.77 254.32 595.56 255.53 596.9 256.63 596.28 259.78 597.32 260.44 597.52 260.55 598.35 261.21 600.16 265.23 601.14 266.77 601.76 267 603.77 267.44 604.6 267.93 605.17 268.37 605.74 268.7 607.65 269.14 608.42 269.92 609.97 272.4 609.87 273.66 610.64 274.93 612.55 277.19 613.48 279.95 613.64 280 613.79 280.83 614.05 281.43 613.89 281.88 613.07 282.1 613.95 283.25 617.2 284.91 617.2 285.57 616.74 286.34 617.1 286.61 617.82 286.83 618.49 287.33 620.82 289.7 622.93 290.97 623.91 291.74 623.91 293.23 625.77 293.56 627.53 294.61 629.18 295.27 630.68 294.61 631.35 296.31 631.4 296.37 633.78 299.12 634.76 300.83 636.26 304.58 636.47 306.07 636.52 306.34 635.85 307.83 637.14 308.66 637.19 309.81 637.09 311.03 637.91 312.02 637.91 312.79 637.81 314 637.7 314.77 638.94 317.64 641.99 322.44 641.99 324.36 646.23 332.19 646.95 334.94 647.05 335.33 647.21 336.43 647.21 337.81 646.69 338.91 645.92 340.12 645.55 341.61 646.23 343.27 645.5 343.71 645.25 344.48 645.09 348.28 645.25 349.05 646.23 350.87 646.48 351.09 646.85 350.98 647.1 351.09 647.21 351.97 647.21 355.06 647.1 355.94 646.69 356.71 645.61 357.21 646.12 358.53 645.81 359.14 645.66 359.19 645.09 359.41 644.63 359.85 644.16 362.94 643.8 363.38 642.92 363.66 642.71 364.43 643.02 366.47 643.08 367.68 642.97 368.06 641.94 370.16 641.06 370.99 640.34 371.32 639.46 371.54 638.74 371.92 638.43 372.64 638.69 374.35 638.53 374.9 637.65 375.12 636.77 375.45 636.93 376.33 638.32 378.43 638.79 379.03 639.2 379.69 639.46 380.57 638.58 382.94 638.17 385.42 636.88 388.84 636.67 389.39 636.15 390.77 635.53 391.15 635.33 391.65 635.38 392.2 635.85 392.48 635.85 393.03 634.92 396.56 634.76 397.55 635.02 398.98 636.88 404 637.03 405.15 637.19 405.76 637.65 406.42 637.96 407.25 637.81 408.02 637.5 408.79 637.39 409.56 637.6 410.28 638.27 411.6 638.43 411.99 638.22 412.48 637.24 413.14 636.88 413.69 637.09 416.56 638.27 419.65 639.62 422.02 640.24 422.95 640.91 432.98 640.75 434.64 641.22 435.9 640.13 436.4 637.65 436.4 636.67 436.73 635.43 437.56 634.19 438.66 633.21 439.82 637.45 441.91 639.2 443.18 640.44 445.27 640.75 445.88 640.91 446.1 641.01 446.37 641.06 449.74 641.58 450.73 643.59 452.99 644.63 454.14 644.78 454.14 646.48 453.98 648.71 455.14 650.15 457.01 649.74 458.99 652.01 464.39 653.46 466.87 655.21 467.92 656.45 468.25 659.14 469.63 665.85 471.28 672.1 474.31 682.12 476.46 684.91 476.08 687.28 476.02 688.27 475.64 689.09 474.75 686.98 473.82 686.46 473.38 686.1 472.66 685.84 471.72 685.99 470.95 688.16 469.96 688.06 468.47 688.11 467.04 690.13 466.54 691.31 466.93 693.28 468.25 694.98 468.53 695.96 469.19 697.2 470.4 698.7 471.23 700.46 470.62 700.76 469.96 701.02 468.03 701.49 467.15 702 466.82 702.68 466.6 704.33 466.54 705.36 466.1 709.24 463.07 712.33 462.25 713.63 461.69 714.71 460.65 715.33 460.37 717.14 460.26 717.55 459.99 717.81 459.27 718.43 458.55 719.57 457.62 721.22 456.79 722.46 456.73 723.7 456.95 725.25 456.95 725.92 456.73 726.59 456.29 727.16 455.74 727.57 455.25 728.29 454.81 729.12 454.97 729.95 455.36 730.67 455.58 736.5 456.13 746.99 459.65 750.5 462.63 751.38 463.07 753.03 464.56 754.32 467.98 754.74 471.83 753.75 474.75 754.17 475.36 754.27 476.08 754.12 476.85 753.7 477.56 753.03 477.4 751.07 477.51 751.07 478.12 752.21 479.55 753.03 481.37 754.32 482.69 756.75 482.97 755.05 484.67 754.12 487.43 753.5 496.19 753.08 497.85 752.1 500.66 751.9 502.09 751.79 503.69 751.59 505.18 751.07 506.11 751.53 508.26 749.67 511.02 750.6 512.84 750.09 514.05 749.52 514.43 748.8 514.54 748.02 514.93 746.94 516.47 746.37 516.91 744.87 516.2 744.04 516.36 743.27 516.69 742.55 516.91 727.83 519.06 718.48 519.67 715.79 520.5 708.2 525.4 705.98 527.44 704.07 529.97 703.55 529.2 703.61 527.77 702.57 525.95 702.11 524.41 703.81 523.75 705.62 523.42 708.41 522.09 711.4 521.38 713.11 520.27 714.45 518.57 714.92 516.31 714.45 515.04 713.52 513.72 711.25 511.46 711.66 513.05 711.82 513.83 711.82 514.93 710.63 514.71 709.54 515.42 708.56 515.76 707.63 514.27 707.32 512.45 707.17 506.44 707.94 504.57 711.46 503.36 712.33 502.03 711.66 501.04 708.41 498.95 707.38 498.56 705.1 498.56 702.73 497.85 701.95 497.96 701.7 498.45 701.44 499.39 700.97 500.27 700.15 500.66 698.49 500.77 697.72 501.1 694.93 503.58 694.15 504.68 693.69 506.77 693.79 507.38 694.52 507.88 694.67 508.54 694.52 509.09 694.21 509.36 693.85 509.53 693.69 509.86 693.9 510.74 694.46 511.51 695.03 512.01 696.74 512.73 700.4 516.31 699.42 517.24 699.01 517.52 698.34 517.63 699.06 518.18 699.37 518.35 699.37 519.06 698.44 519.67 698.39 520.55 698.96 521.6 699.94 522.42 699.22 522.92 698.24 523.14 694.88 523.25 694.1 523.53 689.56 526.23 688.78 526.89 688.06 528.26 687.96 529.53 688.42 530.08 689.56 529.2 689.2 530.41 687.8 530.91 687.49 532.29 687.7 533.89 688.32 534.33 692.35 533.67 694.15 532.67 695.81 531.13 697.36 529.2 696.27 527.22 701.54 528.76 702.73 529.59 703.04 531.3 702.42 533.28 701.13 534.88 699.37 535.37 700.71 533.72 701.95 531.85 702.11 530.19 700.4 529.2 700.4 529.97 700.97 530.63 700.82 530.97 699.37 531.35 698.29 530.63 697.82 530.58 697.51 530.86 697.15 531.35 696.79 532.01 695.34 533 692.97 535.37 691.62 536.09 688.01 537.85 686.98 538.68 688.27 536.42 688.52 535.37 687.39 535.21 686.41 535.43 685.74 536.15 685.43 537.41 686.41 537.41 685.94 538.4 686.2 539.18 686.98 539.78 688.01 540.11 684.96 541 683.83 541.99 683.83 543.53 684.19 543.03 684.65 542.54 684.91 542.15 685.94 542.7 686.98 543.53 686.3 544.85 685.38 547.33 684.81 550.09 685.17 551.96 685.79 552.13 686.36 551.41 686.77 550.31 687.28 547.94 688.01 547.17 689.56 546.23 691.78 543.37 693.12 541.99 694.46 541.44 695.86 541.05 696.94 540 697.56 538.63 698.34 536.75 697.82 538.68 697.2 540.33 692.24 549.32 688.68 551.85 681.86 560.45 681.09 562.71 680.83 563.92 679.85 563.2 678.66 563.7 677.68 564.53 676.9 565.63 676.44 566.84 676.23 568.22 676.13 572.02 676.49 573.23 677.68 575.33 678.71 578.41 678.97 579.9 678.71 580.78 679.23 581.45 678.2 580.89 677.27 581.11 676.54 581.89 676.13 582.82 676.65 584.7 677.89 592.69 679.18 597.76 679.23 598.31 679.02 599.13 678.35 600.07 677.94 601.89 676.9 604.76 676.65 606.08 674.84 609.5 674.53 610.43 673.34 615.83 672.88 616.77 672.62 617.65 672.98 618.59 672.67 619.47 672.51 620.46 672.46 621.51 672.51 622.56 672.21 623.55 661.31 624.1 645.25 621.51 629.65 614.79 627.12 612.91 623.71 601.56 621.9 598.75 617.72 599.19 612.5 601.95 607.54 603.1 604.6 599.36 604.08 598.69 602.59 595.72 600.88 595.17 596.44 596.49 582.03 596.6 581.2 596.05 579.76 593.62 578.88 592.85 574.64 590.92 573.04 589.22 573.4 587.01 572.16 586.07 572.06 586.02 570.2 586.18 568.6 585.36 560.65 583.82 555.17 580.62 553.21 581.78 544.33 582.66 537.2 586.63 534.51 587.4 531.11 587.4 530.23 587.62 528.73 588.5 528.01 588.72 526.51 588.88 523.98 589.71 509 591.81 502.7 592.69 501.05 592.91 495.11 595.39 489.01 596.88 486.43 598.2 483.64 601.12 482.3 603.05 481.73 604.54 472.64 610.82 471.97 611.98 471.35 613.41 467.79 617.65 465.51 618.92 463.04 621.34 462.88 621.67 461.12 624.43 457.97 625.75 457.51 625.75 452.86 625.86 451.52 626.8 450.33 627.85 448.73 628.78 447.02 629.5 445.58 629.83 444.18 630.49 442.48 630.66 439.07 630.49 438.61 630.55 437.47 630.77 434.32 632.09 432.62 632.48 429.31 632.09 426.57 630.55 423.99 628.67 423.73 628.51 421.25 627.13 418.15 626.41 408.34 625.75 399.46 622.72 383.55 623.77 379.99 623.27 376.68 622.12 364.49 617.82 361.91 617.54 359.28 618.31 355.09 621.29 353.75 621.67 352.15 621.78 338.77 622.39 338.05 622.23 311.66 615.94 307.32 613.57 305.67 613.24 299.31 614.62 298.13 614.4 296.01 614.07 287.85 609.83 275.81 609.22 269 610.16 266.16 611.59 263.52 612.14 261.25 613.02 255.26 613.57 245.24 614.4 242.92 613.85 241 612.31 240.08 610.43 240.02 608.23 241.83 600.84 242.66 598.64 244.21 597.7 245.76 597.48 248.75 596.54 250.41 596.32 253.04 594.95 254.33 591.92 253.61 588.88 251.9 588.17 250.41 587.51 246.94 587.07 244.26 585.96 228.04 575.55 227.94 575.49 227.58 574.06 227.89 569.27 227.27 567.94 225.82 567.34 222.72 566.9 219.83 565.68 217.3 563.64 215.28 561.05 213.94 558.19 213.89 557.42 214.05 555.88 213.99 555.1 213.63 554.44 212.08 553.06 211.82 552.24 211.88 550.97 212.03 549.65 212.39 548.71 212.91 548.27 213.58 548.05 216.27 547.94 217.25 547.55 217.87 546.56 218.07 544.85 218.54 543.2 219.62 542.21 221.12 541.77 222.72 541.82 224.27 542.43 227.06 544.19 228.66 544.52 230.11 544.3 231.81 543.53 233.16 542.26 233.57 540.5 229.75 536.48 228.66 535.76 222.72 535.1 220.19 533.89 217.61 531.9 212.34 526.5 211.21 525.9 209.86 525.62 208 525.51 207.18 526.12 204.54 528.82 203.1 529.64 199.95 530.3 198.86 531.13 198.4 532.67 189.82 547.17 188.84 548.16 187.03 548.6 185.38 548.43 183.73 547.72 182.39 546.51 181.61 543.64 180.89 543.03 180.06 542.54 179.24 541.82 178.87 541.05 178.56 539.84 178.41 539.18 178.25 538.46 176.19 533.67 175.41 533 172.99 532.62 166.17 529.26 164.93 529.04 163.64 529.37 160.9 530.47 157.49 531.13 153.62 531.13 149.9 530.08 147.16 527.49 146.44 525.67 145.97 523.91 145.35 522.31 144.01 521.16 142.51 520.77 137.92 521.1 131.51 520.44 130.27 519.89 128.98 517.3 127.59 516.31 127.54 516.31 126.25 515.76 126.56 514.43 127.23 513.33 128.21 512.5 130.22 511.84 134.61 512.01 136.73 511.73 139.78 510.91 140.86 510.08 141.07 508.15 140.45 506.55 139.36 505.62 136.73 504.68 134.82 503.8 131.2 503.19 129.45 502.09 129.4 501.54 129.6 500.88 129.34 500.38 128.1 500.32 127.07 500.05 126.92 499.22 127.28 498.23 127.8 497.4 128.57 497.07 130.48 496.91 131.26 496.69 132.24 495.92 132.44 495.48 132.5 494.76 132.81 493.38 133.01 492.94 133.68 492.22 133.89 491.78 133.94 491.29 133.94 490.57 133.89 489.96 133.79 489.8 134.35 489.03 134.97 488.37 135.8 487.98 136.73 487.93 137.66 487.15 137.97 485.94 137.61 484.62 136.94 483.85 135.08 481.7 133.12 480.27 131 479.16 122.99 476.85 119.79 476.74 118.45 476.19 115.97 474.53 114.73 473.21 112.15 469.63 110.91 468.8 110.13 468.97 108.94 470.24 108.17 470.57 107.29 470.35 106.62 469.8 106 469.08 105.23 468.53 101.66 467.04 98.98 465.88 97.84 465 94.95 461.42 90.04 457.29 87.61 453.92 86.53 452.88 85.29 452.33 83.9 451.94 82.81 451.22 82.35 449.85 84.05 448.58 85.14 447.53 85.34 446.1 84.36 443.78 82.14 440.26 81.88 438.6 82.45 436.12 83.28 434.25 83.59 433.42 83.79 431.99 83.74 426.75 83.9 425.76 84.21 424.83 84.21 423.89 83.59 422.9 82.66 422.46 81.83 422.79 81.16 423.61 80.75 424.83 79.76 425.54 78.78 425.82 77.75 425.6 76.87 424.83 76.15 423.45 74.39 421.41 73.67 420.25 73.52 419.59 73.41 419.32 73.26 417.22 73 416.39 72.43 415.79 71.14 414.96 70.62 414.47 68.09 410.33 66.95 409.23 65.56 408.74 62.67 408.4 61.27 407.8 57.3 404.38 55.9 403.5 52.96 402.29 51.67 401.4 50.48 399.75 48.93 395.18 48 393.63 43.25 388.18 46.3 384.54 58.43 384.27 60.29 381.51 63.39 382.17 66.39 383.33 68.56 385.2 69.33 385.64 70.21 385.98 70.78 386.03 75.06 385.15 76.51 384.49 77.65 383.27 78.06 382.28 78.11 382.06 78.16 380.85 78.52 380.13 79.09 379.91 79.82 380.13 80.54 380.24 81.16 379.69 81.16 378.87 80.44 376.66 80.38 375.67 80.75 375.12 83.69 372.86 84.36 372.53 85.19 372.09 86.79 371.7 88.29 371.76 89.01 372.09 90.35 373.13 90.97 373.41 91.75 373.36 92.83 372.8 93.35 372.64 94.69 372.91 97.53 374.02 98.98 373.96 99.7 373.69 100.32 373.69 100.94 373.96 101.46 374.57 102.9 375.73 104.3 375.28 107.86 371.21 108.38 370.99 110.55 370.99 111.32 370.49 112.15 368.95 112.82 366.96 113.13 362.5 113.9 360.29 115.14 358.92 116.64 358.42 119.84 358.31 121.6 357.1 121.08 354.84 118.91 350.98 119.07 348.89 120.15 347.29 121.44 345.75 122.37 343.93 122.68 340.01 123.1 338.14 124.23 336.82 125.88 336.43 128.62 336.65 130.27 335.83 131.82 333.95 132.34 332.63 132.5 332.24 133.32 331.03 135.39 330.7 136.88 329.93 138.23 328.06 138.49 326.02 136.47 324.75 136.27 324.58 136.06 324.31 135.9 324.03 135.96 323.43 136.11 322.82 136.37 322.27 136.73 321.83 138.33 317.75 139.31 316.1 140.86 314.72 143.65 314 144.43 313.4 145.04 312.13 145.04 311.03 144.79 309.93 144.68 308.71 144.79 307.5 144.89 307.23 145.25 307.11 148.71 304.47 149.33 303.75 150.78 298.74 151.04 298.63 150.99 298.52 150.31 297.36 149.8 296.97 149.07 296.81 148.45 296.53 148.25 295.98 148.14 295.65 151.09 292.4 152.79 290.91 156.51 288.65 158.01 287.27 158.53 286.39 158.89 284.57 159.25 283.64 159.97 282.7 161.62 281.21 162.24 280.39 162.71 279.12 162.71 278.18 162.5 277.3 162.55 276.09 162.86 274.99 163.74 273.44 164.1 272.51 164.98 268.87 165.45 267.71 168.34 263.8 169.73 262.37 171.07 261.6 174.43 260.71 175.98 257.85 175.88 254.43 175.21 250.9 175 247.76 176.45 245.23 178.67 243.02 183.37 239.77 187.03 238.89 187.5 238.61 188.07 238.23 188.48 237.46 188.48 237.35 188.58 236.63 188.63 235.91 188.89 235.2 190.75 232.77 191.01 231.89 191.27 230.02 191.53 229.25 192.1 228.64 193.39 227.76 193.96 227.21 195.61 224.95 196.43 224.12 197.83 223.4 199.17 222.96 200.15 222.91 203.61 223.35 204.7 223.29 205.73 222.91 206.56 222.14 207.8 218.11 210.12 217.62 215.7 220.32 218.33 220.7 221.22 220.32 223.96 219.22 226.18 217.45 228.04 215.25 228.97 214.53 230.47 213.93 232.12 213.76 232.59 213.49 233.21 212.33 233.05 211.56 232.69 210.9 232.64 210.01 233.47 208.63 234.65 207.86 237.7 206.87 238.94 205.82 240.8 202.57 242.04 201.25" style="fill:#efc441"/></svg>