<svg xmlns="http://www.w3.org/2000/svg" viewBox="0 0 800 800"><polygon points="83.88 706.06 78.32 699.6 70.75 695.55 59.64 694.21 54.84 692.05 40.95 682.62 38.17 679.39 40.7 649.21 38.17 640.05 34.39 636.01 30.09 633.86 26.81 631.43 25.55 626.58 26.81 621.19 33.38 615.27 31.86 610.42 28.33 603.41 26.81 595.6 26.05 586.98 28.83 576.74 34.13 571.89 43.98 568.39 51.81 565.96 58.12 561.92 63.42 556.26 67.46 548.99 70.24 543.06 71.5 539.02 72.01 535.52 75.8 531.75 79.08 530.67 89.68 530.94 106.09 526.36 118.72 515.58 127.81 500.22 133.62 481.63 135.89 465.2 135.13 450.92 125.28 389.22 124.53 374.68 126.3 360.67 133.37 343.42 147 319.98 156.59 303.82 164.17 287.92 168.71 280.92 186.64 265.29 190.18 260.17 200.28 237.81 204.57 232.15 210.38 229.46 238.66 228.11 239.41 227.84 240.42 227.3 241.18 226.49 242.44 224.34 249.51 212.48 262.14 198.47 276.78 187.16 291.43 181.5 306.07 182.31 313.9 181.77 320.72 179.88 328.29 175.3 334.1 170.99 340.16 167.49 349.25 165.87 353.54 166.68 361.37 171.8 364.15 172.88 367.18 170.99 369.2 163.18 372.73 158.87 376.01 156.71 379.3 155.64 382.58 156.18 386.62 158.33 396.97 174.5 398.49 182.85 399.5 199.01 403.03 207.37 409.34 213.56 416.67 215.72 424.24 214.91 432.57 211.68 457.57 196.86 461.36 196.05 464.64 187.43 469.44 182.04 471.46 180.96 482.31 174.76 497.46 168.57 501.25 164.53 503.27 158.6 505.54 143.24 508.07 137.85 511.1 135.97 513.88 135.7 516.9 135.43 519.68 134.35 525.24 130.85 541.65 114.14 546.45 107.68 550.49 100.41 551.25 97.98 552 92.32 553.01 89.9 554.27 88.82 555.79 87.47 561.85 84.51 564.12 82.62 566.14 76.7 568.41 60.26 571.44 54.87 577.25 52.72 583.31 53.53 589.62 55.41 595.68 56.49 601.49 54.87 606.54 52.45 611.34 51.91 617.15 53.8 621.19 54.87 618.16 58.38 615.38 62.69 614.12 67 615.38 71.31 620.68 75.08 621.94 80.47 621.19 82.89 619.92 85.05 618.91 87.47 619.42 89.9 622.7 92.05 625.48 91.78 628 90.17 629.52 89.9 634.06 93.4 635.58 95.83 637.09 106.06 639.37 111.72 645.93 123.58 648.2 131.66 651.74 136.24 652.5 139.47 651.99 140.82 651.23 142.44 650.22 144.86 649.97 147.82 651.99 154.02 656.79 157.79 667.64 162.64 671.43 165.6 676.99 171.26 680.27 173.42 704.76 183.12 711.83 184.19 719.15 188.78 721.17 199.01 720.42 209.25 719.41 214.1 717.39 216.26 719.66 221.38 725.72 230 730.26 235.38 732.03 238.35 735.57 252.36 739.1 261.25 744.91 266.1 753.49 262.6 756.27 270.95 756.02 281.19 751.22 312.17 751.22 316.21 751.98 318.37 755.26 323.75 756.02 327.26 751.98 338.3 753.24 342.34 756.02 358.24 754 364.71 750.46 370.63 748.19 376.83 751.22 383.83 745.16 388.68 742.89 391.38 741.12 394.61 751.98 396.5 753.24 406.74 748.44 429.64 755.26 428.29 761.83 431.79 767.63 437.72 771.42 443.38 774.45 454.96 761.83 498.61 758.54 516.12 760.31 543.06 758.54 550.88 754.76 558.42 749.96 562.19 743.9 564.88 738.09 568.39 733.04 569.74 730.26 571.35 726.98 572.43 723.95 571.62 704.76 561.65 700.72 560.3 695.92 560.84 691.63 564.35 686.58 575.12 682.29 578.63 674.72 579.16 666.63 576.74 658.81 575.66 651.74 580.24 639.62 579.7 627.25 573.51 607.3 555.99 605.03 552.76 603.26 547.37 601.49 545.22 600.23 545.76 588.61 542.79 586.59 541.72 580.79 543.6 577.25 547.1 575.74 549.26 573.97 551.68 569.17 556.26 563.87 559.23 557.05 561.65 549.98 563.27 543.92 563.54 539.38 562.46 527.76 556.53 523.47 555.99 522.21 558.69 522.21 562.19 521.45 565.15 504.79 587.25 498.47 592.1 490.14 592.37 481.56 588.86 473.98 583.48 467.92 577.82 456.56 563.27 452.01 559.5 447.72 557.88 444.19 557.88 441.16 558.15 438.38 557.61 431.81 551.68 431.06 551.14 428.53 548.72 425.75 547.1 421.97 547.1 420.7 549.26 420.96 553.03 418.43 573.24 420.96 603.41 413.13 633.32 411.62 673.46 411.36 678.04 409.34 686.66 405.81 695.28 401.51 703.37 396.46 710.64 388.89 718.72 382.07 723.03 374.5 724.65 365.41 724.38 357.08 721.69 352.78 721.69 350.26 725.46 349 733.54 347.23 737.31 343.69 739.47 335.61 740.55 328.54 739.47 313.14 734.08 309.35 732.73 306.58 732.46 295.72 736.77 292.94 738.66 289.91 739.74 286.13 739.74 278.05 740.82 271.23 745.4 264.16 748.09 255.57 742.7 242.19 740.28 235.12 738.66 228.56 739.47 212.65 747.01 203.56 747.82 200.28 740.28 199.77 735.43 196.49 727.35 195.48 722.76 196.74 718.45 201.79 711.99 202.8 707.41 200.53 702.56 192.45 694.48 192.45 694.21 191.19 688.82 191.44 684.24 191.19 682.35 186.89 678.85 180.08 674.54 172.25 672.65 156.59 670.5 148.51 667.8 126.04 657.57 119.98 656.49 98.52 658.1 90.19 666.73 83.88 706.06" style="fill:#efc441"/></svg>