<?xml version="1.0" encoding="UTF-8"?><svg id="Saint_Kitts_and_Nevis" xmlns="http://www.w3.org/2000/svg" viewBox="0 0 720 540"><path d="M454.53,308.57l1.14,3.59h6.81l.49-4.14-3.39-4.73,2.82-4.18h1.13l5.13-5.36-.08-5.83-2.18-4.73-6.29-7.69h-3.32l-7.94-4.73-1.69,1.77-1.14,4.73-3.91,1.78-1.7-1.78,1.17-3.59-2.37-2.28v-1.22l-5.57-4.79v-1.09l-3.95-4.18h-5.65l-1.7-2.95v-2.37l-1.69-3-5.69-3.51-3.47-4.73-2.26-1.22h-3.42l-1.14-1.14-4.44-2.41-5.08-5.28-.64-5.4h-6.74l-.52-1.7-1.17-1.22,.04-10.61,1.14-1.22-1.7-2.92-1.69-.67v-2.29l1.13-2.37-1.69-1.77-5.65-2.37-2.83-4.18v-8.32l-11.33-12.97-2.26-8.28-2.26-3.51v-2.37l-2.26-2.36v-2.37l-2.26-2.37v-1.22l-9.6-10.06h-1.05l-6.25-6.43-.57-1.89-1.69-.55-2.33-4.65v-2.44l-2.19-1.15v-1.22l-1.13-1.14-.07-2.37-2.18-1.22v-2.36l-3.99-4.18h-1.14l-3.95-4.07-1.7-3.04h-3.38l-3.88-4.06v-2.37l-1.73-1.81-5.66-2.37-2.26-2.37h-3.42l-4.52-3.51-4.52-2.37h-2.22l-2.34-2.37-3.31-1.14-5.12-4.18-1.7-3-3.38-1.14-7.38-7.77-3.88-6.43-5.65-2.37h-4.56l-6.77-4.73h-2.22l-2.26-2.37h-5.68l-4.52,2.33-2.19-1.14-7.94-11.8-10.2-.04-1.13-1.23-6.74,1.23-9.08,5.88h-5.69l-1.06,1.22-1.13-1.14-5.64-.04-5.69,3.51h-3.31l-.68,1.81-2.74,1.78-5.13,4.14-2.26,4.73-3.99,4.06-3.39,1.22-2.75,2.96v1.22l-3.43,4.69v2.36l-1.13,1.23v10.69l-1.12,1.14v3.51l1.12,1.22v3.51l-2.25,3.55v2.36l2.9,3.04,9,4.65,3.95,4.14,2.19,4.73,5.76,8.32-.05,5.88,2.79,4.14h2.26l5.08,4.18v2.37l3.99,4.14h2.27l5.57,5.88h1.2l1.13,2.36,6.75,3.59h2.25l2.26,2.37,5.69,1.14,7.83,4.73h2.29l2.26,2.37,3.39,1.15,2.26,2.44,4.56,1.14,7.34,6.55,1.05,5.95,4.56,4.65,1.2,3.59,1.7,1.78h2.18l1.12,1.14h3.4l6.81,3.59,5.65,5.87,5.61,1.15,3.38,2.48,6.82-1.22,2.26,2.36,15.77-.08,1.13,1.22h5.68l2.19,2.37,2.33,.04,1.06,1.23,1.13-1.23h4.63l1.05,1.23h3.39l3.42-4.81h2.26l1.13-1.22,22.59,.04,1.7,1.82v2.36l2.19,3.59,3.39,3.47v1.26l2.38,1.14,.48,1.77h2.26l1.13,1.14h9.08l1.13,1.22,6.78,.04,2.74,2.92,1.7,2.96h1.13l2.29,2.37,5.65,1.14,3.39,2.36h2.29l6.78,3.51,9.64,8.91v1.22l3.39,3.51v2.44l1.12,1.14,.04,7.1,1.16,1.14-.03,2.36,1.05,1.22-3.32,4.69v3.59l2.26,2.28v5.95l-1.13,1.22-.04,2.36-5.08,5.28-2.86,.55,1.05,5.95,3.01,1.81,2.82,1.77v3.51l1.02,1.14v4.81l-2.19,2.36,3.95,5.28,8.44-.55,1.13-2.36-1.13-2.44,.03-10.57,3.95-2.91h3.31l4.07,4.06,.57,1.81h3.31l.57-5.36,1.7-1.74h2.26l3.43-2.4,1.13-1.14,2.26,1.14Zm123.68,114.09v-4.73l-1.13-1.14-.03-13-1.13-1.14v-2.44l-1.13-1.14v-4.73l-1.13-1.22,.04-10.6-1.13-1.22v-4.73l-1.21-2.37-1.69-.55-.49-1.81-1.69-.55-3.95-4.18v-2.37l-4.52-4.73v-2.36l-1.7-1.7-3.38-.04-1.13-1.22h-6.81l-6.71-3.51-2.9-2.95-1.13-3.59-3.95-4.14-6.75-1.18-1.2-1.22-2.18,1.22h-5.65l-1.13-1.14-7.94-.04-4.45,2.36h-2.3l-1.13,1.22-14.72-.04-2.83,2.92,1.21,4.81-3.43,2.36v2.36l-5.68,5.83v1.22l-1.13,1.22,1.13,2.36-1.13,1.14v3.59l-9.04,10.64v2.28l-3.39,7.17,.07,3.51-1.24,1.22v2.37l-1.05,1.14-.04,15.37,1.13,1.22,.08,10.68-1.2,1.14v2.37l-1.13,1.22-.05,10.56-4.47,5.94,1.17,1.23-.04,3.5,4.56,3.58,2.22,4.65v3.59l4.52,4.72v2.36l2.26,3.51v4.73l3.38,2.36,.57,1.77h1.13l10.73,11.27,.56,1.69,4.56,1.22,3.39,2.4h2.26l1.13,1.22,6.78-.08,2.22-2.36h4.6l1.05-1.18h2.26l6.81-5.87,7.94-1.18,2.19-2.37h7.9l5.69-3.54,10.13-2.36,1.2,1.14,4.44,.04,2.26-1.14,9.67-8.94-.11-2.36,1.24-1.14v-3.58l3.35-8.27v-2.29l2.26-2.44,1.05-4.73,1.16-1.14v-7.05l-1.12-2.44,1.12-1.14v-3.51l2.3-4.81-2.26-4.73Z" style="fill:#efc441;"/></svg>