<?xml version="1.0" encoding="UTF-8"?><svg id="St._Helena" xmlns="http://www.w3.org/2000/svg" viewBox="0 0 720 540"><path d="M199.94,485.8l-4.29,4.26,7.24,7.44,5.62,.1,1.24-1.69,.09-5.65-4.19-4.56-5.72,.1Zm430.3-168.36v-2.87l-4.19-1.49-1.71,1.68v2.88l3.05,2.87-.1,3.07,4.29,4.36,1.43-1.39v-5.95l-2.76-3.17Zm-28.5-59.28l8.39-8.92-2.86-11.89,5.81-8.92-3.05-5.95,14.39-11.9-4.29-10.51-15.63-1.39-2.95-6.05,.09-11.79-7.15-10.6-11.63,.3-2.57-3.07-8.77-2.97-10.01-13.48,.1-5.95,5.62-5.85,.09-9.02-4.29-4.36-10.1-1.49,.1-5.95,11.44-8.92-2.95-5.95,2.86-14.87-7.24-7.43-11.34-3.07-5.81-8.82-5.43-.1-17.44-8.82-6.96,4.36-1.43,4.56-8.77,.1-5.62,11.79h-11.44l-8.67-6.04-5.53,2.97-8.58-8.82h-14.49l-5.53,6.05h-3.05l-11.25-9.02-8.77-2.97-4.19-4.56,.09-8.72-7.24-7.53-14.2-.2-2.86,3.07-8.58,.1-10.1,10.5-2.76,11.79-4.29,4.46-5.72-.1-7.24,7.53,5.81,5.75-.09,6.14-6.96,7.33-11.53-2.87-10.1,7.43,.09,5.95-4.29,7.33-11.44,3.17-10.1,10.31-1.33,4.46-2.95-2.87-8.58-.2-7.24,7.53-2.76,8.92-12.87,10.31-4.38,1.59-1.24,7.53-5.72-.1-5.81,5.85-5.62-2.88-14.49,2.88-14.2,14.97-11.44,3.07-8.48,11.79-8.58,2.97-1.52,4.46-5.72,5.85,.1,9.02-2.95,5.85-11.53,8.82-2.76,12.09,2.95,2.87-.1,9.02-8.58,2.97v14.67l-4.29,4.66-8.58-.1-2.76-2.87-7.15,1.49,1.33,4.36,4.29,1.49-5.72,12-5.72,5.85,.09,5.95-11.53,9.02-2.86,17.84-5.81,5.85,.19,3.07-7.24,7.43-10.01,4.36-2.76,9.02,4.19,4.36,8.58,.1,5.81,8.82,8.48-.1,4.38,4.56,2.67,9.02,7.24,7.44,14.39-9.03h11.34l7.34,4.56-.09,2.88,7.05,7.43,5.72,.1,10.01,10.42,.09,8.72,14.3,12.1,2.67,8.82,3.05,3.17-.09,8.73,4.19,4.56,5.81,2.97,17.15-3.07,4.19,4.56,.19,5.95-2.95,3.07,1.43,4.26,11.44-5.94,11.44-2.98,31.55-29.65,2.86,.1,5.62,2.87,11.63-14.97,4.19,1.49,1.43,4.56,5.62-.2,4.38-4.26-.1-6.05,10.01-7.24,19.92,2.87,10.1-13.38-1.34-4.56-5.72,3.07-4.29-1.48,4.19-7.34,11.44-6.05,5.72-.1,5.81,6.05,8.58-2.98,8.48-9.12,2.86,.1,1.43,10.42,10.1,10.41,14.11,5.85,5.91,.1,4.38-4.47,2.76-23.79,4.19-10.21,11.53,5.95,14.3-.1,2.86-2.97,5.62,2.87,8.58-.1,5.81-5.85,4.19,1.49,1.43,4.56h2.86l4.29-4.46-2.86-12.1,5.72-5.85-2.95-8.83,4.38-4.46,11.53,2.77,8.48-8.62h3.05l5.62,5.85h5.62l7.24-7.44-.19-3.07,7.24-7.24h2.86l7.24-7.73,.1-8.72-2.95-6.05,6.96-7.43,11.44-5.75,35.84,1.39v-14.87l-17.16-14.77,.19-9.02Z" style="fill:#efc441; fill-rule:evenodd;"/></svg>