<?xml version="1.0" encoding="UTF-8"?><svg id="San_Marino" xmlns="http://www.w3.org/2000/svg" viewBox="0 0 720 540"><polygon points="544.53 238.58 526.09 210.63 522.18 198.98 529.44 178.02 524.97 169.48 523.3 153.17 522.18 139.2 533.91 137.64 539.5 129.1 537.27 117.45 533.91 90.27 536.15 84.83 539.5 82.5 542.86 76.28 552.36 73.18 546.21 44.44 542.3 43.66 531.12 43.66 530.56 39 526.65 40.55 528.33 44.44 520.5 42.11 518.26 46.77 514.35 45.99 511.56 52.99 509.88 52.99 511 55.31 505.41 63.86 503.18 63.08 492 66.97 485.29 67.74 481.38 74.73 479.7 75.51 474.11 81.72 467.41 79.39 451.2 89.49 442.26 92.6 433.87 91.05 426.05 92.6 404.25 103.47 381.34 117.45 338.31 146.96 325.45 162.49 315.95 164.82 303.65 183.46 293.59 195.88 287.45 200.54 284.65 205.97 276.83 207.52 229.32 202.09 222.06 212.18 214.79 221.5 209.76 222.28 207.53 227.71 200.26 227.71 194.67 221.5 184.05 219.17 176.23 214.51 172.88 223.83 171.76 232.37 175.11 247.12 175.67 263.42 179.02 273.51 185.17 281.27 195.79 286.7 200.82 293.69 209.2 313.87 211.44 327.06 209.76 339.47 191.32 358.1 187.96 374.39 189.08 379.83 201.94 429.48 200.26 435.69 194.11 442.66 188.52 459.73 195.23 462.84 198.58 467.49 208.08 469.81 214.23 474.47 214.23 472.14 233.23 466.71 240.5 463.61 247.21 457.41 258.38 455.85 263.41 462.06 269 461.28 279.62 456.63 284.09 458.95 285.21 456.63 287.45 458.18 288 452.75 294.15 447.32 304.21 445.77 312.04 454.3 321.54 462.06 323.21 471.37 322.1 476.02 326.57 479.12 327.69 485.32 333.27 493.86 344.45 500.84 352.83 503.16 363.45 499.29 371.28 501.61 373.51 496.18 383.01 493.86 387.49 489.98 391.4 490.75 397.55 489.21 402.58 491.53 418.22 489.21 425.49 488.43 435.55 488.43 454.55 489.98 459.58 476.79 463.49 462.06 471.88 448.87 475.23 438.79 477.46 434.91 482.5 430.25 481.94 427.93 475.23 424.83 476.35 406.2 478.02 400.77 474.11 400 473.55 389.14 475.23 386.81 480.26 375.95 489.76 367.41 499.82 365.08 509.88 357.32 511.56 346.46 518.82 326.29 523.85 321.62 525.53 315.42 532.79 309.21 536.71 299.12 541.18 296.02 548.44 294.46 552.91 273.51 544.53 238.58" style="fill:#efc441; fill-rule:evenodd;"/></svg>