<?xml version="1.0" encoding="UTF-8"?><svg id="Saint_Barthélemy" xmlns="http://www.w3.org/2000/svg" viewBox="0 0 720 540"><path d="M427.76,238.53l6.73-3.23,11.45-12.29v-13.89l-18.06-1.62-6.73,3.59-8.05,8.55v13.9l4.97,4.98h9.69Zm-76.03-107.48l1.66-5.2-1.66-1.73h-9.92l-3.3-3.6-1.77,1.75v6.94l1.66,1.85h13.33Zm16.64-.23l1.42-1.63v-3.35l-4.94-5.34-4.73,5.34,4.73,4.98h3.52Zm128.91,66.14l13.12-3.48,1.66-8.69-14.78-1.62-13.33,6.83-4.94,12.28,8.26,5.22,10.01-10.54Zm151.95,69.6l1.66-1.97v-3.35l-1.66-1.63h-3.3l-1.66,1.63-.11,3.35,1.76,1.97h3.3ZM50.8,141.47l-3.09-3.58-1.87,1.85,.21,10.3,1.66,1.96,3.09-3.59h3.4l1.67-1.96v-3.36l-1.67-1.63h-3.4Zm512.38,52.01l1.88-8.57-3.32-3.59v-13.9h-6.61l-3.3,10.54,6.61,13.78,4.74,1.73Zm82.63,93.92l1.99-1.96v-6.73l-8.36-5.2h-3.34l-4.94,5.2-.12,6.95,1.77,1.73h12.99Zm-54.32,182.26l-5.07-5.1-4.95,5.1v7.18l11.69,12.16,1.64-8.81-3.31-3.35v-7.18Zm57.73,12.28l-5.06,5.2,1.97,1.63h3.09l4.97-5.22-1.66-1.62h-3.31Zm23.25-166.74l-6.73-3.36-6.61,6.61-9.8,3.59-4.97-5.22-1.64-8.67h-6.63l-6.7,6.95-4.95-1.63-1.67-12.28h-9.8l-13.33,6.95-1.66-4.98,6.71-3.6-3.28-10.53-5.07-5.1-13.33,6.95-6.4-13.9-11.69,1.73-9.9,27.69-14.76,19.11h-13.33l-3.3-10.32-16.42,6.95-8.4,8.57-1.22,9.15-.41,3.13h-16.43l-2.9-3.13-2.07-2.2v-17.25l-5.06-5.22-11.35-1.97-3.52-6.71v-14.01l-13.33-6.71v-10.54l-4.74-5.32h-19.72l-3.43,7.18h-16.62l-3.31-3.59h-10.04l-3.09,3.59-1.87-1.97-3.09-13.89-6.61-3.36v-13.78l-4.97-5.32-10.02-3.59-11.67,8.81v6.71l10.01,7.18v6.95l-8.14,5.1-13.35,.23-4.95,8.57,1.66,1.63h10.02l3.3,3.35h6.4l4.95,8.93-3.07,3.35,1.44,1.85,10.02,3.36,8.25,12.28,5.08,1.63,1.64,5.32,11.35,8.55h13.33l16.64,17.27,5.06,1.96-.11,10.3,5.06,1.87,1.44,5.08-1.44,1.85-3.63-3.59h-6.38l-1.88,1.97,.21,10.2,4.97,5.32h3.09l14.99,15.51,3.3,10.54,14.76,15.64h3.52l8.38,12.16v10.3l8.04,8.57h6.61l3.32,3.59,8.36-8.57,3.1-13.89,5.07-5.22,8.26,1.62v6.95l8.37,8.91,4.74-1.96,4.95-12.16,3.31,3.59,5.08-1.63,3.28-14.13,4.97-5.08,13.33,.11,6.5,3.26,4.95,5.32v6.94l8.26,5.22h6.73l11.36-15.76v-17.24l3.4-7.07,18.27-5.1,3.34-3.59h6.38l10.02-10.18h13.33l10.01,10.3,8.05-12.26v-31.04l3.43-3.59-1.67-26.06Zm-64.57,137.21v3.6l1.88,1.62,3.09,.11,1.64-1.96-4.94-5.32-1.67,1.96Zm-279.1-81.86l-2,1.96v6.95l2,1.63h3.07l1.66-1.63v-6.95l-1.66-1.96h-3.07ZM216.21,103.25l-3.32,3.6h-10.02l-8.16,4.98-3.3,17.49,5.07,1.62,13.32-6.83h9.71l1.64,8.57-3.3,3.59v6.95l4.95,5.2h6.74l1.66-8.79,13.08-10.3v-10.54l-14.74-5.23-13.33-10.3Zm31.4,18.88v3.59l1.66,1.97h3.3l1.66-1.97v-6.94l-1.66-1.63-4.95,4.98ZM117.04,51l-1.66,1.99v3.24l1.66,1.73h3.28l1.67-1.73v-3.24l-1.67-1.99h-3.28Z" style="fill:#efc441;"/></svg>