<svg xmlns="http://www.w3.org/2000/svg" viewBox="0 0 800 800"><polygon points="667.25 365.54 668.14 369.23 670.47 371.45 671.19 373.25 672.08 374.71 673.84 375.57 675.77 375.91 677.06 376 676.41 377.54 675.93 378.48 675.69 379.34 675.93 380.71 676.73 381.48 677.94 381.74 678.82 382.51 678.74 384.65 678.1 385.77 675.77 388.17 674.97 389.46 674.73 390.83 674.57 392.37 674.24 393.74 673.44 394.51 671.19 395.97 670.47 398.2 670.71 400.86 672.15 406.43 672.4 409 672.24 414.57 673.68 414.92 684.69 419.2 685.49 420.92 684.93 422.46 683.24 423.15 684.21 424.86 685.33 426.49 686.78 427.77 691.36 429.57 693.04 430.69 694.17 432.57 698.51 443.38 698.75 446.21 697.86 451.35 695.29 461.12 695.21 466.44 696.42 469.78 698.35 471.75 700.51 473.55 702.6 476.12 703.33 478.52 703.25 481.18 702.6 486.32 700.68 491.98 696.82 496.35 686.78 502.27 688.38 503.73 689.99 506.21 692.4 511.19 693.85 515.81 696.42 520.1 698.59 522.76 705.42 527.99 706.14 528.84 707.18 530.73 707.83 531.59 709.03 532.19 710.16 532.36 711.12 532.79 711.92 534.25 711.68 536.56 710 543.33 710.24 544.79 711.28 545.05 714.41 546.67 715.3 547.36 715.78 548.3 716.5 550.79 716.99 551.65 718.43 552.93 719.07 553.02 719.72 552.25 724.62 548.3 724.94 545.82 725.58 543.25 726.79 541.1 728.63 540.07 730.24 540.33 731.12 541.36 731.77 542.65 732.97 543.59 734.1 543.76 736.35 543.25 739.32 543.16 739.88 543.67 739.72 545.48 740.04 546.76 741.33 546.93 742.77 546.5 743.66 546.08 743.66 548.9 744.46 551.3 747.35 555.59 750 558.08 750.57 559.36 750.33 560.73 748.88 563.05 748.4 564.42 748.8 566.65 749.92 568.28 751.29 569.65 752.41 571.28 752.41 575.74 753.06 577.79 755.07 578.31 756.75 579.34 758.12 580.45 759.56 581.48 761.49 581.99 762.78 582.51 762.62 583.37 761.98 584.39 761.73 585.08 763.34 587.57 763.98 589.11 764.47 589.88 764.95 590.31 765.91 590.82 765.75 591.42 765.11 591.94 764.71 592.45 764.71 593.57 764.38 596.05 764.06 597.25 765.91 597.68 767.28 597.08 768.16 595.62 768.4 593.39 769.45 594.51 769.93 595.79 770.25 597.25 770.49 600.6 770.09 601.37 769.29 601.8 768.32 602.74 767.76 602.74 767.04 602.31 766.23 601.97 765.43 602.4 765.35 603.17 765.91 603.85 766.63 604.54 766.88 605.23 766.39 606.51 765.75 607.8 765.27 609.17 765.67 611.23 765.51 611.74 765.11 612.25 764.87 613.02 764.87 613.8 765.35 614.05 765.91 614.14 766.15 614.23 766.31 614.4 766.79 615 767.28 615.85 767.68 616.97 767.92 618.25 768 619.8 767.76 621.17 766.96 622.03 766.96 622.63 768.16 625.03 768.4 626.23 767.44 627.86 765.83 628.11 764.22 628.71 763.02 632.06 762.13 632.74 761.41 633.68 761.49 635.49 761.98 635.83 762.86 636.17 763.74 636.86 764.3 638.23 764.38 639.51 763.74 643.54 763.82 644.91 764.14 645.77 764.22 646.72 763.98 648.17 761.49 649.37 760.69 650.14 761.98 650.66 762.86 651.17 764.22 653.75 765.11 654.6 765.11 653.66 765.75 652.29 766.63 651.94 767.36 654 767.6 655.03 768.4 657.17 768.56 658.29 769.53 656.75 769.77 655.97 771.21 658.2 771.05 661.12 770.25 664.55 770.01 667.89 766.79 667.72 759.08 664.8 755.07 664.37 745.02 665.15 740.12 666.17 731.12 669.69 726.63 670.55 717.07 670.12 714.65 669.52 707.5 666.35 707.34 666.17 707.18 666 706.3 666 705.82 666.26 704.53 667.2 700.03 669.77 698.51 670.12 696.02 669.86 688.95 667.38 686.05 667.46 683.88 668.58 680.03 672.35 675.69 674.92 655.85 680.4 654 679.38 650.62 673.89 648.53 672.35 643.47 670.38 640.98 669.69 638.98 669.6 636.97 670.03 634.72 670.98 631.26 673.03 630.38 673.29 630.22 673.29 628.53 673.29 628.13 672.77 628.05 671.92 627.41 670.72 624.11 666.77 622.18 665.15 619.85 664.12 617.44 663.77 609.89 664.29 607.48 663.95 606.76 662.92 606.28 661.63 604.43 660.69 600.89 660.43 599.77 659.92 598.56 658.72 598.32 657.69 598.48 656.83 598.56 656.32 595.67 653.57 591.09 651.09 586.75 651.09 584.83 656.14 584.42 658.63 583.06 659.83 581.13 660 579.04 659.14 576.79 659.4 574.78 659.23 573.02 658.2 571.65 656.14 571.17 653.66 571.57 651.6 573.34 647.23 573.74 645.09 573.9 642.51 573.42 640.11 571.89 638.4 570.12 638.06 568.03 638.49 565.95 638.49 563.78 637.37 562.73 638.74 561.77 638.14 560.97 638.06 560.16 638.14 559.12 638.14 557.67 638.66 557.19 638.74 556.63 638.4 555.5 637.11 554.86 636.77 553.98 636.86 551.97 637.46 551 637.63 549.96 637.46 548.51 636.43 547.55 636.17 546.5 636.26 542.97 637.03 542.41 637.28 542.09 637.63 541.76 637.89 541.12 637.97 540.56 637.71 539.51 636.94 539.03 636.77 538.63 636.6 533.33 635.14 495.41 633.6 453.79 633.43 423.26 633.34 412.18 633.26 370.56 633.09 361.16 633 328.94 632.91 323.24 632.83 319.87 633.43 316.81 634.88 309.99 640.03 302.83 643.54 296.65 648.43 296.33 648.69 266.68 663.43 262.58 664.29 242.42 663 241.21 662.92 231.9 663.69 229.65 663.17 222.33 660.6 218.16 660.17 209.24 661.89 208.44 662.23 207.95 662.66 207.39 662.92 206.43 662.66 203.94 661.63 202.65 661.37 201.45 661.63 193.33 666.35 183.93 671.75 180.4 673.29 174.45 673.29 168.35 674.92 166.18 675 150.27 673.89 145.93 675 143.28 676.98 142.48 675.35 141.91 673.72 141.43 671.06 140.71 670.2 138.94 668.92 136.21 666.09 135 664.46 134.52 662.83 134.52 657.52 134.76 656.4 135.97 655.29 136.21 654.09 137.09 652.72 142.88 649.03 145.45 648.94 149.06 649.29 153 646.72 154.29 645.6 154.93 644.57 155.41 643.46 156.22 642.26 160.71 638.74 162.88 641.49 164.57 646.29 166.18 647.4 166.26 645.43 167.46 643.8 169.55 643.2 171.8 643.72 175.74 646.12 179.27 647.14 183.21 649.12 185.22 649.29 187.55 648.09 190.36 644.4 192.45 643.2 195.18 643.29 197.51 644.23 199.84 644.49 202.49 642.77 203.86 642.17 204.74 643.29 205.46 644.91 206.11 645.77 215.26 642.17 217.35 641.66 220.16 641.49 222.01 640.89 223.54 639.69 225.23 638.74 227.8 638.83 229.89 640.03 233.02 642.69 234.87 644.23 235.83 645.43 237.2 645.69 244.75 645.77 245.47 646.37 247 648.09 247.56 648.43 248.6 648.26 251.58 647.49 252.94 646.54 254.23 644.91 255.92 643.89 258.33 645 258.97 644.4 259.77 644.06 260.5 644.06 262.1 645.26 262.75 645.17 263.39 644.83 264.03 645 264.91 646.12 265.72 648.34 266.36 649.29 267.16 650.06 267.97 650.57 269.01 650.92 270.46 650.92 271.82 650.66 277.13 648.26 279.3 645.94 282.91 640.97 284.28 639.94 285.4 639.26 286.28 638.4 286.61 636.68 285.96 635.91 284.68 635.31 283.95 634.63 284.92 633.6 283.79 630.68 282.75 626.83 282.35 622.88 283.31 619.71 284.68 618.77 286.37 618.77 288.13 618.94 289.74 618.68 291.35 618 292.47 617.05 293.19 615.85 293.76 614.4 296.17 616.88 298.42 617.57 299.86 616.2 300.18 612.68 298.33 614.65 296.65 614.57 294.88 613.8 292.95 613.54 291.19 614.31 288.29 616.63 286.2 617.05 285 617.05 283.23 617.31 281.63 618.25 280.9 620.14 280.9 627.51 282.27 632.23 282.51 633.6 282.51 635.66 282.43 636.68 282.11 637.54 279.3 640.11 278.33 641.4 272.47 647.06 270.86 648.09 269.49 648.17 268.29 647.57 267.24 646.72 267.89 642.86 264.35 641.14 256 639.69 250.37 643.54 248.28 644.06 247.88 643.63 247.4 642.77 246.52 641.83 245.15 641.49 243.71 641.74 241.7 642.94 240.33 643.2 238.97 642.77 237.2 641.83 234.22 639.69 234.14 639.09 234.22 638.23 234.31 637.37 233.9 637.03 232.3 636.86 231.49 636.6 230.93 636.26 230.21 635.23 228.6 631.8 228.2 631.37 227.64 631.2 227.24 630.68 226.75 628.03 226.19 626.57 225.47 626.57 225.47 627.51 225.23 628.03 224.02 630.6 223.46 631.46 223.06 635.74 219.76 637.97 214.94 638.83 213.74 639.43 211.25 641.14 210.6 641.49 209.32 641.32 206.51 640.54 202.01 640.54 200.72 640.89 198.47 641.91 197.27 642.26 195.82 642.26 192.05 641.49 190.76 641.74 189.15 642.94 188.03 643.2 187.63 643.8 187.06 645.17 186.26 646.63 185.22 647.49 180.4 645.77 176.54 643.46 174.69 641.83 173.89 640.11 173.49 639.86 172.36 639.51 171.32 638.91 170.76 637.97 170.92 636.77 171.64 635.57 172.76 634.8 173.89 634.54 173.89 633.6 172.12 633.51 171 632.57 170.35 631.03 169.95 629.23 169.15 639.69 168.27 639.69 166.66 637.54 162.4 633.51 161.84 631.03 160.47 632.23 159.59 633.6 158.46 634.8 156.62 635.31 155.25 634.97 154.29 634.11 153.81 632.74 153.88 631.03 155.57 627.68 157.9 625.2 159.43 622.37 158.71 617.83 158.14 621.34 157.9 622.28 157.26 623.4 156.7 623.91 156.13 624.34 153.81 626.57 152.84 627.94 152.36 629.57 152.2 632.23 153.08 636.77 152.76 638.83 149.31 640.46 144.16 645 140.23 646.46 138.06 645.09 137.09 641.83 136.93 637.54 137.58 633 139.42 628.54 142.48 626.06 146.57 627.51 146.74 625.63 145.05 624.25 142.64 623.74 140.55 624.43 138.14 627.6 136.77 628.63 135.33 628.28 135.97 627.26 136.21 626.14 135.97 625.11 135.33 624 137.9 620.23 138.38 618.34 137.82 616.11 136.93 616.11 136.37 617.57 135.57 618.17 134.84 617.65 134.52 615.68 134.84 614.23 135.49 612.6 139.66 606 140.15 604.37 139.99 602.74 139.42 599.74 139.34 598.28 139.59 595.62 140.71 590.31 141.03 586.97 140.79 584.82 140.31 583.79 140.47 580.88 140.95 579.42 141.67 578.39 143.52 576.42 143.84 575.22 145.61 572.13 149.71 571.11 154.85 571.19 174.13 571.36 191.97 571.53 217.92 571.79 233.26 571.96 240.81 572.05 243.95 572.05 248.28 572.05 249.09 571.45 249.33 562.36 249.41 560.39 249.57 551.39 250.05 549.59 251.42 548.73 259.61 547.96 264.83 546.16 266.36 546.08 274.23 546.93 276.16 546.76 279.7 545.48 282.43 543.93 285.16 542.82 288.77 542.99 301.63 545.9 305.97 545.9 309.74 545.13 313.6 543.59 316.97 541.19 319.38 537.85 320.11 534.33 320.51 526.44 322.2 523.62 324.85 520.7 327.26 518.04 329.99 516.84 333.2 519.07 338.5 524.39 344.29 528.84 344.37 528.84 344.37 528.93 352 533.04 356.02 534.16 360.52 534.59 362.29 535.1 366.14 537.67 368.31 538.36 370.72 538.87 372.01 539.73 374.34 543.25 377.63 546.33 381.57 548.05 385.82 548.65 390.16 548.05 394.02 547.1 395.31 547.62 398.68 550.88 399.8 551.99 401.33 552.93 403.02 553.45 406.71 553.62 408.32 554.05 409.61 555.5 410.49 556.79 411.61 557.82 412.82 558.76 417.16 561.08 420.21 562.02 423.34 562.28 430.09 561.68 436.44 562.96 439.81 562.79 442.38 561.5 448.01 556.96 449.77 556.1 451.78 556.1 456.85 554.22 461.58 554.13 466.32 552.76 475.16 551.99 480.95 549.25 484.32 543.85 484.8 537.33 481.99 531.33 480.79 530.3 478.13 528.59 477.25 527.9 477.01 527.64 476.45 526.53 475.64 524.13 475.08 523.01 473.07 521.3 470.26 519.84 467.29 518.73 464.88 518.21 463.27 518.56 460.86 520.01 459.5 520.7 458.29 520.87 456.2 520.7 455 520.7 452.59 521.39 447.12 524.3 440.38 525.93 438.13 526.96 431.7 531.24 424.79 533.9 422.7 534.42 420.61 534.07 417.8 532.7 409.28 526.19 408.32 525.5 407.12 524.13 406.31 522.41 404.79 516.84 403.66 514.44 402.05 512.3 399.8 510.41 394.74 507.93 389.92 507.5 385.18 508.87 377.95 513.16 376.51 513.59 374.9 512.99 370.08 509.9 369.27 508.96 366.94 500.64 365.9 498.33 364.45 496.1 362.53 494.47 360.28 492.58 356.02 491.04 344.13 490.52 337.14 487.7 334.65 487.52 326.13 490.87 317.3 496.87 314.73 497.47 313.76 496.7 311.51 493.52 310.39 492.41 305.32 491.55 299.86 493.7 294.88 497.56 291.27 501.75 289.98 503.98 288.77 506.64 287.81 509.47 287.65 510.33 287.41 512.04 287.17 517.1 285.32 517.78 279.54 517.7 272.31 517.7 265 517.7 257.68 517.61 250.37 517.61 243.14 517.61 235.83 517.53 228.52 517.53 221.21 517.53 218.72 517.53 213.98 517.44 206.67 517.44 199.36 517.44 192.13 517.36 184.82 517.36 177.5 517.36 170.19 517.27 162.88 517.27 161.68 515.38 161.12 514.01 161.2 510.41 163.2 508.44 166.18 506.81 169.15 504.41 168.51 503.98 167.3 503.04 166.66 502.7 168.1 501.24 169.23 499.27 169.07 497.73 166.66 497.38 166.98 499.44 166.42 501.93 165.13 503.64 163.44 503.47 162.56 506.21 160.79 508.01 158.46 508.7 156.22 507.93 154.13 505.61 153.64 503.3 154.61 498.24 154.85 495.15 155.17 493.87 156.22 492.15 160.39 486.93 161.12 485.12 161.76 485.64 163.61 486.5 164.33 486.93 164.01 486.41 163.44 484.27 167.54 483.5 167.7 485.98 168.59 488.38 169.87 489.84 171.56 489.5 170.68 486.58 170.51 483.32 170.03 480.84 168.27 479.89 168.83 478.18 171.4 466.26 171.56 464.21 169.07 468.24 167.94 470.72 167.06 475.95 165.86 479.12 164.25 481.27 162.72 480.75 161.84 480.75 160.63 482.47 158.63 483.15 156.13 483.5 153.88 484.27 152.6 485.38 152.2 486.41 152.04 487.52 151.39 488.73 150.75 489.32 149.47 490.18 148.66 490.87 147.46 493.18 146.57 494.04 145.37 493.44 145.05 492.24 145.05 490.61 144.81 489.24 143.76 488.73 142.24 487.61 141.59 485.04 141.75 482.38 142.64 480.75 141.91 479.04 141.35 477.07 141.03 472.95 141.11 470.81 141.51 469.52 142.24 468.67 144.97 466.44 146.33 465.84 147.78 465.75 151.23 466.18 152.92 466.69 154.05 467.72 153.88 469.44 155.49 467.89 156.86 466.01 158.46 464.98 161.12 466.01 161.03 463.18 162 461.89 163.44 461.12 165.13 459.75 163.61 460.35 162.08 460.69 160.55 460.35 159.43 458.98 164.73 455.46 166.66 453.66 169.71 449.72 171.32 448.18 175.09 447.06 176.94 444.58 178.39 443.98 179.35 444.49 180.32 445.43 181.28 446.03 182.41 445.35 183.13 444.75 185.06 443.81 185.94 443.12 178.55 442.86 175.42 441.58 175.58 438.75 173.73 439.78 173.09 441.66 173.41 443.55 174.69 444.92 173.25 445.78 172.04 445.61 170.92 445.18 169.55 444.92 168.51 445.26 168.1 446.21 167.86 447.41 167.54 448.43 164.49 454.09 163.44 455.46 162.24 455.98 159.67 456.66 158.3 457.61 157.26 459.06 155.81 461.98 154.61 463.26 151.96 464.21 149.47 463.69 146.98 462.75 144.16 462.49 146.9 457.26 146.98 456.32 148.98 455.72 152.2 451.86 150.67 452.38 149.15 454.86 147.78 455.46 145.21 455.55 144.16 455.72 143.36 456.32 144.73 458.04 144.57 459.15 142.64 461.64 142.24 462.58 142 464.38 141.35 465.49 139.02 468.32 138.54 469.44 137.98 473.04 138.54 485.12 137.82 485.12 137.09 460.61 136.53 456.92 134.6 450.75 132.43 446.21 131.39 444.92 129.86 444.15 126.81 443.38 125.61 442.26 125.04 440.46 124 433.52 123.28 431.38 122.31 429.75 120.06 427.35 119.1 426.75 118.3 426.57 117.81 426.06 117.65 424.43 117.73 423.06 118.38 420.57 118.45 419.12 117.89 416.97 116.53 414.75 112.83 410.8 104.4 406.6 103.11 405.14 102.47 403.43 98.29 396.83 95.24 388 90.5 381.14 87.12 377.8 85.11 376.34 82.78 375.23 80.21 374.71 78.37 374.2 73.39 371.37 72.58 370.43 68.72 370.51 65.35 370.08 62.38 370.25 59.81 372.31 60.77 373.51 62.22 373.94 61.33 375.83 59.81 376.6 60.21 377.03 60.93 377.88 61.33 378.31 60.61 380.11 60.21 380.28 59.81 381.06 58.2 379.94 50.33 369.57 48.48 367.77 67.84 362.28 73.63 357.31 91.06 349.42 95.16 345.99 113.8 322.42 117.49 316.5 125.69 306.82 142 276.21 150.19 264.73 165.53 237.47 166.02 236.18 165.86 234.81 165.13 233.01 167.78 228.21 168.91 221.09 169.23 207.12 169.87 205.66 171.48 200 173.57 194.86 174.05 186.12 174.93 183.55 176.62 182 180.96 180.89 182.81 179.6 183.53 178.32 184.01 176.77 188.83 155 189.47 149.94 190.36 147.54 191.97 145.06 194.13 142.83 196.63 141.28 199.28 140.68 203.21 141.46 204.5 141.54 205.87 141.28 206.99 140.68 210.44 138.11 211.81 137.43 213.26 137.17 214.7 137.51 215.83 138.2 216.63 139.14 218.08 141.37 220.09 143.6 222.41 144.8 225.07 145.14 227.88 144.71 228.76 144.11 229.56 143.6 230.45 143.51 231.41 143.68 232.94 144.37 233.66 144.46 234.55 144.28 239.21 142.06 240.89 141.88 244.99 142.91 245.95 142.91 248.85 142.31 250.69 142.48 256 144.28 259.85 144.54 260.82 144.8 263.63 146.25 265.4 146.77 267.24 146.6 268.93 146 270.62 144.88 273.19 142.4 274.56 141.46 276.32 141.2 281.38 142.31 283.15 142.14 284.52 141.37 285.64 140.25 288.53 135.88 289.98 134.6 291.67 133.74 293.44 133.91 294.56 134.85 295.2 136.23 296.01 137.43 297.45 138.03 299.22 138.03 300.83 137.6 305.81 135.37 307.65 134.94 311.43 134.85 316.97 135.8 318.82 135.71 331.44 133.57 333.93 132.63 334.65 132.11 335.21 131.34 335.21 130.4 334.81 129.54 332.96 127.57 332.24 125.85 332.48 124.22 333.52 122.94 335.21 122.42 336.9 123.02 337.94 124.22 338.83 125.77 340.11 126.97 340.92 127.22 341.8 127.14 342.6 126.8 343.33 126.2 343.89 125.42 344.21 124.57 344.53 122.77 345.33 121.57 346.54 120.71 349.11 119.59 350.48 120.28 352 122.08 352.08 122.25 353.05 124.14 354.25 125.77 356.42 126.11 359.96 125.25 380.04 126.8 381.41 126.63 385.34 125.51 386.47 125.42 387.51 125.77 390.81 127.4 392.09 127.65 393.46 127.57 398.36 126.11 399.56 126.11 404.38 127.14 405.59 127.14 406.87 127.05 408.08 126.71 409.28 126.11 412.34 124.14 413.46 123.71 415.79 123.54 423.18 126.63 424.15 127.31 424.63 128.25 424.55 129.71 423.91 132.11 424.15 133.14 425.27 133.65 429.77 133.22 430.9 133.74 431.3 134.77 431.46 137.08 432.02 138.03 433.23 138.71 436.04 138.88 437.4 139.14 438.37 139.74 440.38 142.48 441.18 143.34 443.99 145.4 447.93 150.28 454.92 156.97 458.85 159.37 459.58 160.14 461.67 162.8 462.71 163.49 465.04 164.43 466.08 165.03 466.81 165.97 466.89 166.83 466.17 168.8 465.92 169.91 466.17 170.77 467.29 172.32 467.85 173.52 467.85 174.54 467.29 176.86 467.69 178.92 469.7 180.12 474.28 181.49 475.24 182.09 477.09 183.63 477.89 184.49 478.46 185.52 479.5 188.95 480.06 190.23 480.79 191.35 481.67 192.29 482.8 192.97 483.76 193.23 484.72 193.15 485.61 192.8 487.54 191.6 489.46 190.06 490.27 189.2 492.36 185.95 493.24 185.09 494.2 184.49 495.25 184.15 496.37 184.06 497.5 184.23 497.26 185.86 496.53 188 496.05 189.72 496.37 191.09 496.94 191.43 498.14 191.95 498.7 192.38 498.86 192.55 499.02 193.06 499.18 193.23 499.43 193.4 500.15 193.66 500.47 193.83 501.27 194.6 501.51 194.78 502.32 194.95 503.12 194.69 506.33 192.89 506.98 192.72 509.23 192.72 509.63 192.63 510.51 192.38 514.05 190.75 520.23 189.38 521.84 188.69 522.48 188.43 523.21 188.43 523.93 188.6 524.17 190.4 522.16 194.26 522 196.23 523.21 197.09 527.46 195.38 529.23 195.38 529.79 196.06 530.76 197.86 531.32 198.55 534.53 200.86 535.26 201.81 535.58 202.75 535.66 205.06 535.82 206 537.43 210.38 538.23 211.66 539.11 212.95 540.16 214.06 543.13 216.46 543.77 217.41 544.01 218.52 543.93 219.55 543.53 221.78 543.53 222.81 543.77 223.66 544.25 224.44 546.42 227.09 547.47 229.06 548.03 231.21 548.03 233.69 547.79 234.81 547.39 235.92 547.15 236.95 547.31 238.07 547.87 238.92 548.67 239.61 550.52 240.72 551.4 241.5 552.21 242.44 553.57 244.5 554.06 245.52 554.22 246.47 553.98 247.41 552.21 250.41 551.81 251.44 551.65 252.55 551.81 253.67 552.93 256.84 554.7 256.75 558.23 256.07 559.92 256.24 560.8 256.58 562.97 258.21 563.78 258.64 566.51 259.41 567.96 260.27 569.24 261.47 570.12 263.01 570.37 264.81 569.72 269.61 569.72 270.73 569.96 271.84 570.37 273.04 571.01 273.56 574.62 274.58 576.31 274.33 578.08 273.13 579.6 271.84 581.37 270.81 583.22 270.56 585.07 271.5 585.79 272.44 586.11 273.56 586.59 277.07 587 277.93 588.2 279.64 588.68 280.59 588.92 281.53 588.92 285.81 589.4 287.96 590.37 289.93 591.82 291.56 598.8 296.62 600.25 298.25 601.05 300.39 600.41 302.1 598.48 302.44 594.47 302.02 593.26 302.96 593.99 304.59 596.64 307.42 597.68 308.27 598.73 308.7 599.85 308.7 602.34 308.1 603.54 308.1 604.75 308.53 605.79 309.3 606.44 310.16 606.76 311.19 606.76 312.22 606.12 315.48 606.2 316.5 606.6 317.62 606.68 317.96 609.65 318.99 610.62 319.93 614.07 323.45 617.2 324.9 617.28 324.9 618.49 324.73 622.18 323.53 624.03 323.19 625.08 323.62 626.04 324.56 627.57 326.62 633.99 330.65 636.08 332.28 637.29 333.13 640.1 333.74 641.3 334.51 642.35 335.71 642.91 336.99 645.64 347.19 645.72 348.56 647.33 349.59 651.27 354.57 653.36 356.45 660.75 360.14 667.25 365.54" style="fill:#efc441"/></svg>