<svg xmlns="http://www.w3.org/2000/svg" viewBox="0 0 800 800"><polygon points="309.84 32.51 318.28 42.21 319.94 44.95 322.69 53.09 324.8 56.02 327.1 57.59 332.33 59.75 334.81 61.31 341.88 67.39 344.36 68.47 349.5 69.05 351.98 69.94 354 71.9 358.5 79.24 359.42 80.13 361.71 81.59 362.72 82.67 363.18 84.14 363.46 87.86 363.64 88.36 363.92 89.53 365.2 91.59 368.32 95.21 369.61 97.66 371.17 99.03 373.01 99.42 374.75 98.94 376.5 97.66 377.23 95.51 378.42 94.04 379.89 93.45 381.55 94.23 382.65 96 382.65 97.66 382.1 99.33 381.82 101.09 381.91 110.4 381.55 112.94 380.99 114.42 379.52 117.75 378.51 122.16 378.97 125.09 382.92 131.36 384.67 135.48 384.3 138.03 382.37 139.89 379.34 142.14 380.17 144.59 382.1 145.86 384.57 146.55 386.78 147.53 388.71 149.39 393.02 155.37 401.75 162.72 406.89 169.08 408.91 170.65 413.68 172.71 420.02 175.35 421.39 176.33 422.5 177.61 423.69 178.59 425.25 178.98 426.63 178.39 428.74 176.14 430.12 175.84 432.32 177.31 436.91 183.68 439.11 186.03 443.52 188.97 445.91 189.95 451.6 190.15 465.83 194.26 469.6 196.22 473.09 198.77 476.39 202.59 477.58 203.96 478.23 206.31 477.68 208.47 476.02 209.84 474.37 209.94 472.9 210.62 471.8 211.8 470.79 213.17 470.97 213.46 471.07 214.54 471.07 215.81 470.97 216.7 470.61 217.48 469.41 218.75 469.05 219.54 468.5 221.99 468.4 223.26 468.04 224.04 466.29 225.42 464.91 225.81 461.52 226.1 460.14 226.69 459.22 228.16 458.58 229.92 458.85 231.39 460.69 231.88 462.89 231.98 463.35 232.86 462.99 234.04 463.08 235.02 466.2 236.98 472.63 238.05 476.02 239.62 480.71 241.29 482.63 242.95 483.74 245.79 483.37 249.22 481.44 250.69 476.02 252.16 472.26 252.65 464.45 252.36 460.87 253.53 459.13 255 457.94 256.96 457.38 259.31 459.68 260.29 459.77 260.29 462.25 262.06 464.55 266.66 466.75 267.64 478.14 268.82 486.31 268.23 488.97 268.92 491.36 270.97 492.46 273.81 493.29 276.95 494.57 280.18 499.44 284.79 506.05 286.65 512.93 286.65 518.99 285.47 523.86 283.51 526.16 282.93 528.36 283.32 540.48 289.29 544.79 289.98 546.17 291.15 549.85 299.68 550.12 300.95 550.4 302.13 550.95 304.28 551.59 305.65 553.06 306.93 554.53 307.81 555.81 308.89 557.19 313.98 559.58 316.14 562.51 317.41 565.45 317.7 568.67 316.92 570.41 315.16 585.65 289.39 586.48 286.65 588.41 285.18 594.01 284 596.58 282.53 601.26 277.73 602.73 276.65 606.04 276.85 608.42 277.34 610.44 278.42 619.81 288.02 624.4 291.55 628.9 293.7 639.46 294.88 641.39 296.15 648.18 303.3 647.45 306.44 645.06 308.69 642.03 310.06 639.46 310.45 636.61 309.87 631.65 306.73 628.9 305.65 626.05 305.56 623.39 306.34 621.46 308.1 620.63 311.04 620.27 314.08 619.17 315.84 617.42 316.53 612.65 316.73 611.45 317.12 610.53 317.9 609.89 319.57 609.62 321.92 609.52 324.17 609.98 325.64 612.74 328.09 613.38 329.26 613.47 330.64 613.2 333.38 613.29 334.75 615.68 339.85 619.26 344.45 623.76 348.07 628.9 350.23 634.41 351.01 636.98 352.09 638.08 354.44 637.53 362.97 638.17 365.51 638.36 365.61 632.57 368.16 631.38 369.33 629.36 372.47 627.15 374.82 626.88 375.02 626.7 376.1 626.88 377.07 627.06 377.56 627.34 377.66 625.96 382.86 625.68 384.81 625.78 386.48 626.7 390.2 626.7 391.77 625.13 394.42 622.75 394.91 619.99 394.71 617.24 395.69 615.68 397.85 614.67 400.39 613.11 402.15 610.17 402.25 608.06 402.55 603.83 403.23 600.8 404.41 599.15 406.86 598.88 409.01 598.78 414.11 598.51 416.85 598.14 417.54 596.76 419.89 596.4 420.77 596.12 426.06 594.84 431.45 593.18 435.46 592.45 439.29 594.19 443.99 597.68 447.91 597.77 449.28 597.31 452.22 597.31 453.69 597.96 455.94 598.78 458.19 599.88 460.35 601.08 462.21 602.73 463.68 606.68 465.74 608.06 467.01 608.98 469.26 609.16 473.28 610.17 475.44 610.17 475.54 610.17 475.63 610.17 475.73 610.17 475.83 609.71 476.51 609.52 477.1 609.71 477.79 610.17 478.38 610.35 478.77 610.35 479.16 610.35 479.65 610.17 480.14 609.8 480.92 609.62 481.81 609.71 482.69 611.36 485.92 613.84 494.15 615.13 497.48 616.96 499.15 621.46 501.11 622.38 502.09 624.31 504.44 625.5 505.32 626.97 505.71 629.91 505.51 631.1 505.81 632.11 506.89 633.58 509.92 633.95 510.22 634.68 511 635.97 511.49 638.54 511.3 639.83 511.49 642.03 512.37 642.76 512.86 643.87 513.65 653.51 522.76 655.16 525.11 655.62 526.58 656.08 529.71 656.44 531.09 657.27 532.26 660.58 535.3 664.06 539.9 665.99 541.67 668.38 543.13 674.99 544.51 677.19 545.39 677.38 547.45 677.65 549.6 676.18 555.48 673.71 561.16 671.04 565.08 669.94 565.87 667.64 566.84 666.54 567.82 665.81 569.1 664.89 572.23 664.16 573.6 658.55 578.7 656.72 581.05 654.98 581.74 651.3 582.62 649.74 583.5 648.73 584.97 647.9 587.12 645.52 595.55 644.78 597.51 644.69 597.71 643.04 599.57 639 601.23 634.96 602.11 624.86 599.57 621.19 600.06 619.35 601.23 618.62 602.21 617.7 602.8 615.31 602.41 613.47 602.51 612.19 603.49 610.17 606.52 608.7 607.7 605.3 609.36 604.11 610.44 603.28 611.62 602.91 612.3 602.64 612.89 603.19 613.58 606.31 620.92 608.15 623.57 610.17 625.04 610.26 625.53 610.35 626.12 610.26 626.61 610.17 627.1 608.33 628.76 604.84 635.13 605.85 637.48 605.21 641.69 604.75 643.56 603.1 650.41 602.64 653.94 603.19 654.14 610.17 660.31 614.3 663.15 615.95 665.11 616.96 667.56 616.96 667.66 617.51 670.2 617.05 673.83 615.22 680.1 613.84 682.84 612.28 683.92 610.63 684.21 608.61 685.19 606.5 687.74 604.38 694.11 602.46 696.56 599.98 697.24 594.38 697.34 591.8 698.62 589.23 698.52 586.85 697.64 584.64 696.07 582.72 693.91 582.35 692.64 582.26 689.7 581.61 688.82 580.42 689.11 576.84 692.54 558.38 699.99 553.7 700.77 551.68 700.58 549.29 700.28 544.89 698.81 537.73 695.28 536.07 694.89 534.6 695.58 530.01 699.3 529.09 699.6 523.77 699.5 521.01 700.09 507.98 707.73 506.23 708.71 504.21 710.96 502.19 712.13 499.9 712.04 495.21 710.86 488.6 710.96 487.13 710.27 485.76 705.47 480.52 697.93 480.62 693.72 483.46 690.88 491.45 688.52 494.2 686.08 494.85 683.33 494.2 677.85 494.48 675.2 495.67 673.34 501 668.15 507.7 657.66 509.08 653.65 508.89 653.06 507.98 651.49 507.79 650.8 508.07 650.22 508.89 649.83 509.17 649.53 509.35 649.04 510.09 645.51 510 645.02 511.28 644.04 512.93 643.36 514.31 642.48 515.05 641.01 513.94 637.19 511.28 635.52 510.55 635.03 506.51 634.15 503.66 634.15 497.79 636.7 495.86 636.7 493.65 635.33 489.34 630.13 487.23 628.47 484.2 627.49 470.7 625.63 467.49 625.73 465.83 625.82 463.54 625.14 462.25 624.25 462.25 623.76 462.89 623.28 463.35 622.39 463.81 619.75 465.65 613.97 466.2 611.03 466.2 607.4 466.2 606.52 464.91 605.15 462.25 605.05 457.94 604.07 456.56 603.29 453.99 601.13 452.52 600.35 450.96 599.96 447.84 600.06 446.37 599.66 442.6 595.45 441.87 589.97 441.69 584.58 439.57 580.66 437.37 580.36 435.53 581.64 433.61 582.52 431.31 581.25 430.12 578.99 428.1 569.88 425.98 565.77 423.87 564.2 414.87 563.71 412.12 562.73 410.56 561.85 399.73 555.87 389.81 550.38 388.89 548.92 389.44 548.82 389.81 546.56 390.08 544.02 389.99 543.13 391.46 541.76 392.84 542.16 393.3 542.25 392.01 539.8 391.09 538.63 389.72 537.26 387.24 535.3 385.86 534.91 383.84 534.22 380.54 534.61 377.23 536.08 366.76 543.53 363.82 544.7 359.42 544.8 358.31 545.59 357.49 547.84 357.76 549.8 359.42 553.03 360.52 556.85 361.25 558.52 362.08 559.6 363.27 559.99 364.74 559.79 366.03 559.79 367.04 560.87 366.49 565.18 363.64 570.86 360.06 576.15 357.31 578.7 355.65 578.8 354.09 578.31 352.71 578.31 351.52 579.48 350.24 582.13 349.5 583.3 348.49 584.28 345.83 585.16 343.44 585.16 341.24 585.75 338.94 588.59 337.75 593.49 339.86 595.65 342.89 597.41 343.63 599.47 344.18 601.13 341.15 604.96 334.72 607.6 323.61 609.85 324.89 603.19 324.71 598.88 322.51 596.04 314.24 592.12 307.26 587.32 303.41 585.75 296.15 584.97 294.69 584.58 292.94 583.99 284.86 576.35 284.59 576.05 280 571.74 271.92 566.36 270.54 565.08 269.53 563.32 268.79 561.55 267.78 560.18 266.13 559.6 264.85 560.28 261.72 563.32 260.16 564.3 255.57 564.59 251.16 564.3 248.04 563.22 245.29 561.06 242.81 558.03 238.86 551.17 237.76 551.07 236.66 552.15 235.01 552.74 232.07 552.44 226.19 550.78 223.34 549.41 221.05 547.35 216.92 542.16 216.64 541.96 211.87 538.14 210.58 536.18 208.19 531.28 206.63 529.03 198.74 521.19 193.14 513.16 190.84 511.69 172.48 503.75 168.99 500.91 166.79 496.31 166.69 491.31 169.36 487.29 172.29 487.29 173.95 484.35 175.23 480.43 177.07 477.59 178.54 477.2 181.94 477.69 183.5 477.59 185.06 476.81 188.18 474.46 189.65 474.07 191.94 475.34 194.24 478.08 196.07 481.41 197.18 484.35 198.28 485.92 199.38 484.45 201.13 480.63 202.69 480.53 207.74 482.39 208.84 481.81 209.11 481.02 208.75 480.24 207.74 479.36 207.09 477.59 207 475.14 207.19 472.6 207.74 470.54 211.22 467.31 211.04 462.7 207.74 453 205.07 447.22 191.39 433.31 184.23 422.34 180.1 417.34 175.51 414.01 173.95 413.03 175.42 411.66 175.78 410.38 175.14 408.23 175.05 406.96 175.78 405.29 176.98 404.31 179.73 403.53 181.66 403.33 183.5 404.02 186.89 406.27 190.38 409.31 192.03 410.29 194.06 410.19 195.98 409.7 203.15 409.21 210.77 409.89 214.07 409.6 217.19 408.52 222.79 404.7 225 402.25 226.19 399.41 225.18 396.08 223.53 394.71 222.34 395.1 221.51 396.18 220.96 396.67 219.76 395.69 217.56 393.14 213.15 390.79 212.42 389.71 209.94 386.38 207.92 384.52 207.09 383.35 206.73 380.21 205.62 378.84 204.8 378.94 203.33 380.31 202.5 380.6 201.58 380.01 200.12 378.74 194.33 374.63 191.76 372.18 190.93 369.92 190.66 366.3 189.01 362.57 186.71 359.34 184.41 357.58 182.85 357.29 178.54 358.26 176.61 358.17 175.42 357.87 172.66 356.5 166.97 355.32 164.22 354.15 161.83 351.41 158.8 345.33 157.79 341.81 157.51 338.47 158.71 334.85 160.54 332.6 162.1 330.05 162.38 325.25 160.27 317.41 160.63 314.67 165.32 313.2 166.42 312.32 167.25 311.14 167.98 309.77 168.25 308.5 168.16 305.65 168.44 304.48 169.08 303.69 170.55 302.91 171.19 302.32 177.44 292.23 179.37 286.94 180.38 285.28 181.84 283.81 184.51 281.75 185.79 279.89 187.17 276.65 191.94 255.3 192.5 254.51 193.23 254.32 193.69 253.83 193.6 252.06 193.14 250.59 192.59 249.62 191.85 248.93 191.03 248.05 190.57 247.46 190.47 247.66 190.11 247.85 188.82 247.95 187.44 247.56 184.78 245.11 183.59 245.11 182.49 245.7 181.2 245.79 175.32 244.62 173.95 244.91 171.56 245.79 170.28 245.79 169.54 245.01 169.08 243.54 168.25 242.46 166.51 242.85 154.48 250.99 152.37 251.77 149.52 252.16 145.3 253.34 142.36 248.24 142 244.72 145.67 242.76 147.41 243.34 150.17 246.09 152.09 246.28 153.75 245.4 154.94 243.93 157.05 240.6 158.34 239.82 159.9 239.23 160.82 237.96 160.27 235.21 159.07 233.94 156.32 234.92 154.85 233.65 154.57 231.88 155.03 229.73 155.68 227.57 155.95 225.91 155.77 224.04 154.67 218.85 154.21 214.64 153.75 212.88 152.74 210.72 151.73 209.54 150.44 208.27 149.34 206.9 149.16 205.33 151.18 203.67 158.71 204.35 161.64 203.76 162.19 200.92 160.45 197.59 159.53 194.95 162.47 194.26 164.03 195.14 166.6 198.47 167.98 199.84 170.64 200.82 173.49 200.92 179.09 200.24 179.73 199.84 180.19 199.06 180.65 198.28 181.66 197.89 182.21 198.18 183.31 199.75 183.96 200.14 195.52 199.65 195.98 199.26 197.54 197.79 197.91 193.67 196.44 190.05 193.87 188.97 182.03 187.79 177.99 186.62 169.63 182.7 164.4 180.74 157.15 176.72 156.41 172.9 156.04 171.34 154.3 169.47 152.19 168.79 150.26 168.4 147.23 168.5 145.03 167.03 144.2 165.95 142.73 165.46 142.55 165.46 140.16 163.79 139.88 160.26 142.82 158.8 146.22 158.31 147.32 155.86 145.39 152.72 143.47 150.96 142.82 148.9 142.64 145.57 144.47 141.16 145.58 141.36 153.56 142.44 157.42 138.91 155.95 136.36 154.21 135.38 152.28 134.99 149.98 134.01 148.7 132.93 148.06 132.15 147.6 131.27 146.77 129.8 145.58 128.91 144.38 129.31 143.28 130.09 140.89 131.17 139.52 132.74 137.86 134.01 135.38 134.01 134.01 132.83 131.34 128.82 130.24 127.94 130.7 126.47 130.89 123.04 131.44 119.7 133 118.24 134.47 117.26 138.23 112.45 138.97 110.89 138.14 108.34 136.21 106.77 133.92 105.5 132.08 104.23 130.98 101.88 130.43 96.49 129.78 93.74 125.84 89.33 124.92 87.77 122.9 85.81 122.35 84.73 122.62 83.95 123.08 83.16 123.36 82.18 123.72 77.28 128.04 76.89 129.69 76.6 130.7 75.42 130.24 74.05 128.87 72.58 126.11 70.52 127.31 69.25 128.41 68.27 130.7 66.9 129.97 64.06 138.14 64.65 140.71 65.82 141.44 65.43 141.63 64.84 141.35 64.06 140.34 62.59 140.16 61.9 140.34 61.22 140.71 60.63 143.92 58.47 147.32 58.96 149.71 58.38 149.8 53.09 151.91 49.66 155.03 48.48 158.06 49.46 159.99 52.99 159.99 53.09 163.02 54.65 174.77 55.83 178.54 55.14 180.01 53.28 180.65 51.13 181.66 48.97 183.22 47.89 184.32 47.01 186.8 46.52 191.76 46.52 193.96 45.84 195.34 44.37 196.35 42.6 197.45 41.03 199.1 40.35 200.57 40.05 201.77 39.66 204.06 37.9 204.98 36.72 205.62 35.35 206.63 34.18 210.12 32.41 209.76 30.94 208.75 29.28 208.56 27.81 210.49 25.75 213.61 23.79 216.92 22.42 219.4 22.03 222.24 22.13 230.05 20.66 232.99 20.85 235.74 21.73 238.68 23.4 246.85 28.3 249.15 28.69 260.35 24.48 262.37 23.69 267.78 22.52 276.42 23.3 282.02 26.24 285.78 25.85 289.18 24.28 290.46 24.09 292.67 24.58 293.4 25.16 294.78 26.93 295.79 27.42 296.8 27.32 300.19 25.75 302.58 26.73 309.84 32.51" style="fill:#efc441"/><polygon points="285.96 658.45 287.62 656.1 287.8 653.84 287.43 651.49 287.43 648.65 287.89 647.28 289.45 644.44 291.2 640.03 291.01 639.44 289.91 637.68 282.29 630.62 282.11 630.52 280.64 627.88 280.82 624.45 281.92 622.98 284.77 620.83 286.06 619.95 287.52 619.26 292.3 620.43 297.35 623.28 301.94 624.55 305.25 620.92 305.43 619.26 305.25 617.69 305.34 616.03 306.44 614.16 307.63 613.48 312.77 611.62 323.61 609.85 334.72 607.6 341.15 604.96 344.18 601.13 343.63 599.47 342.89 597.41 339.86 595.65 337.75 593.49 338.94 588.59 341.24 585.75 343.44 585.16 345.83 585.16 348.49 584.28 349.5 583.3 350.24 582.13 351.52 579.48 352.71 578.31 354.09 578.31 355.65 578.8 357.31 578.7 360.06 576.15 363.64 570.86 366.49 565.18 367.04 560.87 366.03 559.79 364.74 559.79 363.27 559.99 362.08 559.6 361.25 558.52 360.52 556.85 359.42 553.03 357.76 549.8 357.49 547.84 358.31 545.59 359.42 544.8 363.82 544.7 366.76 543.53 377.23 536.08 380.54 534.61 383.84 534.22 385.86 534.91 387.24 535.3 389.72 537.26 391.09 538.63 392.01 539.8 393.3 542.25 392.84 542.16 391.46 541.76 389.99 543.13 390.08 544.02 389.81 546.56 389.44 548.82 388.89 548.92 389.81 550.38 399.73 555.87 410.56 561.85 412.12 562.73 414.87 563.71 423.87 564.2 425.98 565.77 428.1 569.88 430.12 578.99 431.31 581.25 433.61 582.52 435.53 581.64 437.37 580.36 439.57 580.66 441.69 584.58 441.87 589.97 442.6 595.45 446.37 599.66 447.84 600.06 450.96 599.96 452.52 600.35 453.99 601.13 456.56 603.29 457.94 604.07 462.25 605.05 464.91 605.15 466.2 606.52 466.2 607.4 466.2 611.03 465.65 613.97 463.81 619.75 463.35 622.39 462.89 623.28 462.25 623.76 462.25 624.25 463.54 625.14 465.83 625.82 467.49 625.73 470.7 625.63 484.2 627.49 487.23 628.47 489.34 630.13 493.65 635.33 495.86 636.7 497.79 636.7 503.66 634.15 506.51 634.15 510.55 635.03 511.28 635.52 513.94 637.19 515.05 641.01 514.31 642.48 512.93 643.36 511.28 644.04 510 645.02 510.09 645.51 509.35 649.04 509.17 649.53 508.89 649.83 508.07 650.22 507.79 650.8 507.98 651.49 508.89 653.06 509.08 653.65 507.7 657.66 501 668.15 495.67 673.34 494.48 675.2 494.2 677.85 494.85 683.33 494.2 686.08 491.45 688.52 483.46 690.88 480.62 693.72 480.52 697.93 485.76 705.47 487.13 710.27 486.77 710.08 481.17 711.45 478.41 711.55 476.02 709.98 474.74 711.45 474.19 712.13 472.72 711.84 471.52 710.57 469.96 710.08 467.76 711.25 467.94 712.82 468.95 714.29 469.05 715.47 467.67 715.56 462.99 713.9 460.6 714.1 459.77 714.78 458.85 715.47 450.96 727.03 450.87 728.5 451.14 729.38 451.51 730.36 451.69 731.83 451.88 735.26 451.79 735.65 451.6 736.92 450.13 737.22 444.35 736.04 443.34 735.84 442.14 734.77 441.69 734.28 440.4 731.73 438.2 728.3 433.51 723.89 428.37 720.07 426.54 719.19 425.71 718.89 424.61 718.89 421.39 720.86 416.89 725.07 415.33 726.54 411.94 728.2 408.08 729.48 398.53 732.51 386.04 736.63 382.56 738.49 379.98 741.53 378.61 745.25 376.95 753.67 376.77 757.59 378.06 762.88 378.51 764.45 378.06 767.98 377.96 768.57 376.59 771.8 374.29 775.52 373.1 776.8 371.63 778.46 368.69 779.34 367.4 778.46 364.83 775.03 363.64 774.25 362.72 774.84 361.25 777.48 360.24 778.27 358.13 778.36 356.48 777.58 353.36 774.35 353.45 773.07 352.81 771.02 352.71 769.74 353.36 767.68 354.18 766.71 355.19 766.02 356.3 764.65 357.67 761.51 357.67 759.36 357.03 757.1 356.39 753.67 352.16 743.09 351.34 739.96 351.34 734.38 350.97 731.34 349.5 726.83 344.45 716.25 341.88 712.92 340.87 711.84 338.57 709.49 322.05 697.93 319.94 697.54 310.75 697.73 309.19 697.54 308.09 696.36 306.9 693.52 306.71 692.35 306.99 689.99 306.62 688.62 305.89 687.64 303.78 685.88 303.13 684.8 303.32 683.72 304.69 681.67 304.79 680.29 304.05 678.92 302.31 677.26 301.57 676.28 297.81 667.66 297.81 667.56 297.72 667.56 295.51 664.82 288.81 661.29 285.96 658.45" style="fill:#efc441"/><polygon points="358.17 550.6 364.23 544.54 363.82 544.7 361.18 544.76 357.56 548.38 357.76 549.8 358.17 550.6" style="fill:#fff"/><polygon points="287.52 619.26 286.06 619.95 285.87 620.07 280.78 625.16 280.64 627.88 280.73 628.04 289.12 619.65 287.52 619.26" style="fill:#fff"/><polygon points="293.07 620.87 282.82 631.12 284.29 632.48 294.88 621.89 293.07 620.87" style="fill:#fff"/><polygon points="360.38 556.39 382.38 534.39 380.54 534.61 378.37 535.58 359.75 554.19 360.38 556.39" style="fill:#fff"/><polygon points="305.25 617.69 305.3 616.64 298.38 623.56 300.6 624.18 305.42 619.35 305.43 619.26 305.25 617.69" style="fill:#fff"/><polygon points="298.38 623.56 286.98 634.96 288.45 636.32 300.6 624.18 298.38 623.56" style="fill:#fff"/><polygon points="308.94 613.01 305.3 616.64 305.25 617.69 305.43 619.26 305.42 619.35 313.23 611.54 312.77 611.62 308.94 613.01" style="fill:#fff"/><polygon points="363.27 559.99 364.74 559.79 364.98 559.79 388.49 536.28 387.24 535.3 386.78 535.17 362.28 559.66 363.27 559.99" style="fill:#fff"/><polygon points="366.49 565.18 365.38 567.39 392.34 540.43 392.01 539.8 391.19 538.75 366.74 563.2 366.49 565.18" style="fill:#fff"/><polygon points="319.4 610.54 290.82 639.13 291.01 639.44 291.2 640.03 290.19 642.59 322.78 609.99 319.4 610.54" style="fill:#fff"/><polygon points="352.71 578.31 351.52 579.48 350.24 582.13 349.56 583.21 354.38 578.4 354.09 578.31 352.71 578.31" style="fill:#fff"/><polygon points="344.78 585.16 338.17 591.78 337.75 593.49 338.51 594.26 348.49 584.28 345.83 585.16 344.78 585.16" style="fill:#fff"/><polygon points="388.94 549 341.4 596.54 342.89 597.41 343.01 597.76 390.18 550.59 389.81 550.38 388.94 549" style="fill:#fff"/><polygon points="389.44 548.82 389.5 548.44 389.06 548.89 389.44 548.82" style="fill:#fff"/><polygon points="329.23 608.71 287.43 650.51 287.43 651.49 287.68 653.09 332.78 607.99 329.23 608.71" style="fill:#fff"/><polygon points="341.15 604.96 341.75 604.19 340.88 605.07 341.15 604.96" style="fill:#fff"/><polygon points="393.51 552.43 341.75 604.19 341.15 604.96 340.88 605.07 286.73 659.21 288.15 660.63 395.33 553.44 393.51 552.43" style="fill:#fff"/><polygon points="399.73 555.87 398.66 555.28 291.33 662.61 293.18 663.59 400.48 556.29 399.73 555.87" style="fill:#fff"/><polygon points="403.81 558.13 296.23 665.71 297.49 667.28 405.64 559.13 403.81 558.13" style="fill:#fff"/><polygon points="410.56 561.85 408.97 560.97 299.17 670.77 300.03 672.74 410.79 561.98 410.56 561.85" style="fill:#fff"/><polygon points="414.87 563.71 414.4 563.54 301.61 676.33 302.31 677.26 302.92 677.85 416.95 563.82 414.87 563.71" style="fill:#fff"/><polygon points="423.87 564.2 421.85 564.09 304.72 681.22 304.69 681.67 303.32 683.72 303.13 684.8 303.45 685.33 424.27 564.5 423.87 564.2" style="fill:#fff"/><polygon points="426.73 567.22 306.06 687.88 306.62 688.62 306.94 689.83 427.69 569.08 426.73 567.22" style="fill:#fff"/><polygon points="428.81 573.13 307.35 694.59 308.09 696.36 308.25 696.53 429.33 575.44 428.81 573.13" style="fill:#fff"/><polygon points="431.31 581.25 430.4 579.54 312.24 697.7 315.13 697.64 431.45 581.32 431.31 581.25" style="fill:#fff"/><polygon points="439.57 580.66 437.55 580.39 320.33 697.61 322.05 697.93 322.51 698.26 439.76 581.01 439.57 580.66" style="fill:#fff"/><polygon points="441.69 584.58 441.57 584.37 325.56 700.38 327.22 701.55 441.77 587 441.69 584.58" style="fill:#fff"/><polygon points="442.12 591.83 330.26 703.68 331.93 704.84 442.45 594.32 442.12 591.83" style="fill:#fff"/><polygon points="444.44 597.5 334.97 706.97 336.64 708.13 445.77 599 444.44 597.5" style="fill:#fff"/><polygon points="450.96 599.96 449.95 599.99 339.5 710.44 340.87 711.84 340.9 711.87 452.44 600.33 450.96 599.96" style="fill:#fff"/><polygon points="456.56 603.29 455.52 602.42 343.25 714.69 344.45 716.25 344.47 716.3 457.15 603.62 456.56 603.29" style="fill:#fff"/><polygon points="462.25 605.05 461.14 604.8 346.14 719.8 347.06 721.71 463.67 605.11 462.25 605.05" style="fill:#fff"/><polygon points="466.2 607.74 348.73 725.21 349.5 726.83 349.61 727.16 466.2 610.57 466.2 607.74" style="fill:#fff"/><polygon points="463.81 619.75 464.57 617.38 350.88 731.06 350.97 731.34 351.24 733.53 463.56 621.21 463.81 619.75" style="fill:#fff"/><polygon points="465.83 625.82 464.51 625.43 351.34 738.61 351.34 739.96 351.64 741.13 467.02 625.75 465.83 625.82" style="fill:#fff"/><polygon points="472.12 625.82 352.93 745.01 353.74 747.03 474.61 626.17 472.12 625.82" style="fill:#fff"/><polygon points="479.15 626.79 355.21 750.73 356.02 752.75 481.64 627.13 479.15 626.79" style="fill:#fff"/><polygon points="487.23 628.47 485.9 628.04 357 756.94 357.03 757.1 357.62 759.16 487.83 628.94 487.23 628.47" style="fill:#fff"/><polygon points="378.61 745.25 379.73 742.21 352.95 769 352.71 769.74 352.81 771.02 353.03 771.74 378.38 746.39 378.61 745.25" style="fill:#fff"/><polygon points="386.04 736.63 389.18 735.6 491.74 633.03 490.46 631.48 384.48 737.46 386.04 736.63" style="fill:#fff"/><polygon points="376.95 753.67 377.12 752.82 354.46 775.49 355.85 776.92 376.85 755.92 376.95 753.67" style="fill:#fff"/><polygon points="398.53 732.51 401.06 731.71 496.07 636.7 495.86 636.7 494.25 635.7 396.89 733.05 398.53 732.51" style="fill:#fff"/><polygon points="411.94 728.2 413.18 727.59 506.6 634.17 506.51 634.15 503.79 634.15 408.66 729.28 411.94 728.2" style="fill:#fff"/><polygon points="377.47 760.47 363.67 774.27 364.83 775.03 365.22 775.55 378.02 762.75 377.47 760.47" style="fill:#fff"/><polygon points="361.25 777.48 362.24 775.7 359.65 778.29 360.24 778.27 361.25 777.48" style="fill:#fff"/><polygon points="377.96 768.57 378.06 767.98 378.07 767.87 367.45 778.49 368.69 779.34 369.74 779.03 375.97 772.8 376.59 771.8 377.96 768.57" style="fill:#fff"/><polygon points="511.28 635.52 510.76 635.18 426.68 719.26 428.37 720.07 428.56 720.21 512.49 636.28 511.28 635.52" style="fill:#fff"/><polygon points="511.28 644.04 510 645.02 510.09 645.51 509.78 646.99 514.26 642.51 512.93 643.36 511.28 644.04" style="fill:#fff"/><polygon points="510.09 645.51 510 645.02 511.28 644.04 512.93 643.36 514.26 642.51 514.33 642.44 515.05 641.01 514.57 639.37 431.53 722.42 433.15 723.62 509.78 646.99 510.09 645.51" style="fill:#fff"/><polygon points="509.08 653.65 508.89 653.06 508.89 653.05 435.85 726.09 437.31 727.46 508.01 656.76 509.08 653.65" style="fill:#fff"/><polygon points="494.2 677.85 494.45 675.49 439.54 730.4 440.4 731.73 440.62 732.16 494.28 678.49 494.2 677.85" style="fill:#fff"/><polygon points="491.45 688.52 494.2 686.08 494.85 683.33 494.82 683.12 488.57 689.37 491.45 688.52" style="fill:#fff"/><polygon points="480.53 697.41 463.77 714.18 465.85 714.92 467.95 712.82 467.94 712.82 467.76 711.25 469.96 710.08 470.52 710.25 481.47 699.3 480.52 697.93 480.53 697.41" style="fill:#fff"/><polygon points="451.14 729.38 450.87 728.5 450.96 727.03 451.05 726.89 442.69 735.26 443.34 735.84 444.35 736.04 444.67 736.11 451.21 729.56 451.14 729.38" style="fill:#fff"/><polygon points="451.6 736.92 451.79 735.65 451.88 735.26 451.82 734.13 448.96 736.98 450.13 737.22 451.6 736.92" style="fill:#fff"/><polygon points="483.59 702.35 473.87 712.07 474.19 712.13 474.74 711.45 476.02 709.98 477.69 711.08 484.75 704.02 483.59 702.35" style="fill:#fff"/><polygon points="486.99 709.78 486.36 707.58 482.92 711.02 486.67 710.1 486.99 709.78" style="fill:#fff"/></svg>