<?xml version="1.0" encoding="UTF-8"?><svg id="Seychelles" xmlns="http://www.w3.org/2000/svg" viewBox="0 0 720 540"><path d="M355.88,489.31c-.65,0-1.31-.11-1.96-.35-1.87-.68-3.18-2.25-3.61-4.06-.18-.25-.34-.51-.48-.78-.78-1.52-.84-3.32-.16-4.89l.24-.55c.71-1.63,2.12-2.83,3.84-3.27,.46-.12,.94-.18,1.41-.18,.55,0,1.1,.08,1.63,.24,1.39,.29,2.64,1.09,3.48,2.25,1.8,1.58,2.43,4.13,1.55,6.38l-.61,1.56c-.88,2.25-3.04,3.64-5.33,3.64Zm-316.31-25.18c-.72,0-1.44-.13-2.13-.41l-.74-.3c-2.01-.8-3.39-2.67-3.57-4.83l-.06-.7c-.12-1.43,.3-2.86,1.18-4l.56-.72c.46-.59,1.03-1.08,1.68-1.46l.83-.47c.39-.22,.8-.4,1.22-.52l.71-.21c.53-.16,1.08-.23,1.62-.23,1.39,0,2.76,.51,3.82,1.46,1.48,1.32,2.16,3.32,1.81,5.27l-.15,.82c-.09,.52-.26,1.02-.49,1.49l-.47,.98c-.33,.67-.78,1.27-1.34,1.77l-.68,.61c-1.07,.95-2.43,1.45-3.81,1.45Zm68.49-2.87c-.53,0-1.07-.08-1.61-.23-2.44-.71-4.12-2.95-4.12-5.49v-.99c0-1.84,.89-3.57,2.38-4.65l.37-.27c.98-.71,2.15-1.08,3.34-1.08,.5,0,1,.07,1.49,.2,1.66,.45,3.03,1.62,3.73,3.2l.18,.4c.78,1.76,.63,3.79-.41,5.41l-.55,.86c-1.07,1.67-2.91,2.64-4.82,2.64Zm-85.73-17.7c-2.33,0-4.43-1.41-5.31-3.58l-1.82-4.52c-1.06-2.62-.04-5.62,2.39-7.06,.76-.45,1.59-.71,2.42-.78,.75-1.49,2.13-2.63,3.86-3.02,0,0,.24-.05,.29-.06l1.67-.6c.62-.22,1.27-.33,1.93-.33,.13,0,.26,0,.38,.01l2.6,.17c.18,.01,.36,.03,.54,.06l2.34,.38,2.01,.11c.12,0,.25,.02,.37,.03,.23-.03,.46-.04,.7-.04,.77,0,1.54,.15,2.26,.47l3.2,1.38c.32,.14,.63,.31,.92,.5l1.39,.93c.35,.23,.68,.51,.97,.81l.62,.65c1.09,1.15,1.66,2.7,1.56,4.29-.1,1.58-.84,3.05-2.07,4.07l-.36,.29c-.45,.37-.95,.67-1.49,.89l-.16,.06-1.68,1.29c-.23,.18-.48,.34-.74,.48l-1.24,.68c-.84,.46-1.79,.7-2.74,.7-.05,0-4.19-.11-4.19-.11l-4.55,1.4c-.47,.14-.96,.23-1.45,.25l-4.4,.18c-.08,0-.16,0-.23,0Zm674.35-152.79c-.74,0-1.5-.15-2.22-.45-2.54-1.07-3.96-3.8-3.37-6.5l.77-3.52c.11-.52,.3-1.02,.55-1.49l.74-1.38c.52-.96,1.29-1.75,2.24-2.28l1.21-.68c.87-.49,1.84-.73,2.8-.73,1.2,0,2.4,.38,3.41,1.13,1.81,1.34,2.66,3.62,2.18,5.83l-.33,1.49c-.09,.4-.22,.8-.39,1.17l-.68,1.47c-.12,.26-.26,.5-.41,.74l-1.72,2.62c-1.09,1.65-2.91,2.58-4.79,2.58Zm-235.71-12.67c-.33,0-.67-.03-1-.09l-.25-.04c-1.92-.34-3.54-1.64-4.29-3.44l-.07-.18c-.25-.6-.39-1.24-.43-1.88-.37-2.7,1.22-5.3,3.81-6.19,.61-.21,1.24-.31,1.85-.31,2.06,0,4.02,1.11,5.04,3.01l.37,.69c1.04,1.93,.88,4.29-.4,6.06-1.09,1.5-2.82,2.37-4.64,2.37Zm177.31-76.47c-.42,0-.83-.04-1.25-.14-2.61-.59-4.47-2.91-4.47-5.58v-.29c0-.53,.07-1.05,.22-1.56l.21-.73c.71-2.5,2.99-4.16,5.5-4.16,.37,0,.74,.04,1.12,.11,2.92,.58,4.92,3.31,4.57,6.27l-.09,.77c-.07,.62-.24,1.22-.51,1.79l-.12,.25c-.96,2.04-3,3.28-5.17,3.28Zm-137.07-28.77c-1.49,0-2.95-.58-4.05-1.67l-.3-.3c-.53-.53-.95-1.15-1.24-1.84,0,0-.21-.51-.24-.59l-.28-.77c-.98-2.67,.15-5.65,2.65-7.01,.86-.47,1.8-.69,2.72-.69,1.76,0,3.48,.81,4.59,2.31l.52,.7c.11,.14,.21,.29,.3,.44l.18,.29c.48,.78,.76,1.66,.82,2.58l.03,.43c.17,2.38-1.16,4.62-3.33,5.61-.76,.35-1.57,.52-2.37,.52Zm148.41-43.9c-.33,0-.66-.03-.99-.09l-1.42-.25c-.92-.16-1.78-.54-2.51-1.11l-1.89-1.47c-.46-.36-.87-.79-1.21-1.27l-1.16-1.67c-.71-1.03-1.05-2.24-1.01-3.42l-.5-.17c-.24-.08-.48-.18-.71-.3l-.59-.3c-.55-.28-1.06-.64-1.5-1.08l-2.1-2.1c-1.71-1.71-2.16-4.31-1.13-6.49,.05-.11,.11-.22,.17-.33-.5,.29-1.06,.5-1.64,.63l-1.24,.27c-.4,.09-.8,.13-1.2,.13-1.67,0-3.28-.73-4.38-2.04l-.95-1.12c-.52-.62-.91-1.35-1.13-2.13l-.45-1.58c-.26-.94-.28-1.93-.06-2.87l.3-1.24c.38-1.58,1.4-2.92,2.82-3.7,.85-.46,1.79-.7,2.74-.7,.64,0,1.28,.11,1.89,.32l1.1,.38c.46,.16,.89,.38,1.3,.65l1.21,.81c.77,.52,1.41,1.22,1.85,2.04l.62,1.15c.84,1.56,.91,3.42,.19,5.04l-.59,1.33c-.06,.14-.13,.28-.21,.42,.28-.3,.59-.58,.93-.81l.36-.25c.39-.28,.82-.5,1.26-.67,.13-.18,.27-.36,.42-.52l.74-.81c.65-.71,1.46-1.25,2.37-1.56l.86-.3c.62-.21,1.24-.31,1.87-.31,2.07,0,4.04,1.13,5.06,3.05l.56,1.07c.36,.68,.58,1.44,.65,2.21l.08,1,.06,.02c.78,.34,1.47,.85,2.03,1.5l.74,.86c.85,.98,1.34,2.21,1.39,3.51l.27,6.36c.76,1.8,.54,3.89-.6,5.52-1.08,1.53-2.83,2.42-4.67,2.42Zm13.88-29.47c-.74,0-1.47-.14-2.16-.42l-.95-.39c-.79-.32-1.49-.81-2.07-1.44l-.43-.47-.38-.18c-.7-.33-1.33-.8-1.85-1.38l-.68-.77c-.41-.46-.74-.99-.99-1.56l-.44-1.04c-.62-1.46-.61-3.12,.04-4.57,.64-1.45,1.86-2.57,3.37-3.09l.86-.3c.27-.09,.54-.16,.82-.22l.47-.09c.35-.06,.7-.1,1.05-.1h.5c1.42,0,2.79,.53,3.84,1.48l.19,.18,3.64,1.47c2.51,1.01,3.97,3.65,3.49,6.32-.26,1.44-1.04,2.67-2.13,3.51-.32,.47-.7,.9-1.15,1.26l-.62,.5c-1.02,.82-2.29,1.27-3.6,1.27h-.83Zm-6.45-35.99c-1.95,0-3.77-1-4.82-2.64l-.44-.69c-1.27-2-1.19-4.57,.22-6.48l.5-.68c1.09-1.48,2.81-2.32,4.6-2.32,.33,0,.65,.03,.98,.08,2.13,.37,3.88,1.91,4.5,3.99l.42,1.38c.52,1.73,.2,3.61-.88,5.07-1.08,1.45-2.78,2.31-4.59,2.31h-.47Z" style="fill:#efc441;"/><path d="M657.09,56.39l.42,1.38h-.48l-.44-.69,.5-.68m3.55,32.82l.95,.86,4.59,1.85-1.07,.03-.18,.56v.74l-.62,.5h-.83l-.95-.39-.62-.68,.09-.77-1.16-.09-.92-.43-.68-.77-.44-1.04,.86-.3,.48-.09h.5m-32.77,11.04l1.1,.38,1.21,.82,.62,1.15-.59,1.33-1.24,.27-.95-1.13-.45-1.58,.3-1.24m16.16,6.91l.56,1.07,.27,3.23,.59,1.15,1.51,.9,1.18,.52,.74,.86,.32,7.65,.39,.68-1.42-.25-1.89-1.47-1.16-1.67,.74-.77-.12-.52,.03-.34,.06-.31,.03-.47-.15-.5-.33-.13-.32-.04-.39-.65-.5-.47-1.04-.73-2.4-.81-.59-.3-2.1-2.1,.74,.07,.41-.12,.18-.43,.06-.65,.36-.25,1.57,.04,.38-.27,.18-.81,.5-.99,.74-.81,.86-.3m-143.57,58.54l.52,.7,.18,.29,.03,.43-.3-.3-.15-.35-.28-.77m138.01,29.18h0m0,0l-.09,.77-.12,.25v-.29l.21-.73m-177.89,76.8l.37,.69-.25-.04-.07-.18v-.2l-.04-.27m238.82,7.79h0m0,0l-.33,1.49-.68,1.47-1.72,2.62,.77-3.52,.74-1.38,1.21-.68M27.75,429.32l2.61,.18,2.63,.43,2.31,.13-1.12,1.07-2.1,.27-2.1-.31-1.16-.59-.86,.47-1.52-.22-.79,.27-.12-.22,.03-.16-.06-.09-.36-.04-.03-.31,.13-.03h.19l2.31-.83m8.94,.74l3.2,1.38,1.39,.93,.62,.65-.36,.29-.87,.36-2.3,1.76-1.24,.68-4.97-.13-5.45,1.67-4.4,.18-1.82-4.52,1.55,1.89,2.93,.86,3.12-.18,2.1-1.2,1.15,.04,1.84-.56,1.72-.77,.89-.59,.42,.5,.47-.5,.65,.34,.76,.16v-.5l-.67-.45-.42-.63-.21-.77-.12-.9m71.73,24.22l.18,.4-.55,.86v-.99l.37-.27m-67.56,1.73h0m0,0l-.15,.82-.47,.98-.68,.61-.74-.3-.06-.7,.56-.72,.83-.48,.71-.21m314.28,24.96l.32,.25-.35,.34-.21-.04,.24-.55m.47,.12l.38,.56-.53-.43,.15-.13m.38,.56l.48,.39-.61,1.56,.21-.61,.1-1.08-.18-.25M657.09,44.94c-3.59,0-7.03,1.69-9.21,4.65l-.5,.68c-2.81,3.81-2.99,8.96-.44,12.96l.44,.69c2.1,3.3,5.74,5.29,9.65,5.29h.48c3.62,0,7.03-1.71,9.19-4.62,2.16-2.91,2.81-6.67,1.77-10.13l-.42-1.38c-1.25-4.15-4.74-7.23-9-7.97-.65-.11-1.31-.17-1.95-.17h0Zm3.55,32.82h-.5c-.7,0-1.4,.06-2.1,.19l-.48,.09c-.55,.1-1.1,.25-1.63,.43l-.86,.3c-3,1.03-5.44,3.27-6.73,6.17-1.29,2.9-1.32,6.21-.07,9.13l.44,1.04c.35,.82,.79,1.59,1.31,2.3-1.79-1.1-3.87-1.7-6-1.7-1.21,0-2.43,.19-3.62,.59l-.16-.29c-.88-1.64-2.15-3.04-3.7-4.07l-1.21-.82c-.81-.54-1.68-.98-2.59-1.3l-1.1-.38c-1.23-.43-2.51-.64-3.78-.64-1.9,0-3.79,.47-5.49,1.4-2.84,1.55-4.9,4.24-5.65,7.39l-.3,1.24c-.45,1.9-.41,3.88,.12,5.75l.45,1.58c.44,1.57,1.21,3.02,2.26,4.27l.95,1.13c1.83,2.17,4.35,3.55,7.07,3.95,.56,1.57,1.46,3.02,2.69,4.25l2.1,2.1c.68,.68,1.44,1.27,2.27,1.76,.33,.94,.79,1.85,1.38,2.7l1.16,1.67c.67,.97,1.48,1.83,2.41,2.55l1.89,1.47c1.47,1.14,3.19,1.9,5.02,2.22l1.42,.25c.66,.12,1.33,.17,1.99,.17,3.68,0,7.18-1.77,9.35-4.84,2.06-2.91,2.61-6.58,1.61-9.9l-.23-5.51c-.11-2.59-1.09-5.06-2.79-7.01l-.74-.86c-.34-.4-.71-.77-1.1-1.11-.22-.89-.55-1.74-.98-2.55l-.56-1.07c-.15-.29-.31-.56-.49-.83,.24,.16,.49,.31,.74,.45,1.09,1.1,2.38,1.96,3.82,2.55l.95,.39c1.37,.56,2.84,.85,4.32,.85h.83c2.62,0,5.16-.9,7.2-2.55l.62-.5c.66-.53,1.25-1.13,1.77-1.78,1.81-1.65,3.09-3.88,3.55-6.43,.96-5.34-1.96-10.61-6.99-12.64l-2.78-1.12c-2-1.56-4.48-2.42-7.03-2.42h0Zm-160.19,76.5c-1.85,0-3.72,.45-5.44,1.38-5,2.71-7.26,8.67-5.3,14.01l.28,.77c.06,.15,.12,.31,.18,.46l.15,.35c.58,1.38,1.42,2.64,2.48,3.7l.3,.3c2.19,2.19,5.12,3.34,8.08,3.34,1.61,0,3.22-.34,4.75-1.03,4.34-1.98,7-6.44,6.67-11.2l-.03-.43c-.13-1.83-.69-3.61-1.65-5.17l-.18-.29c-.18-.3-.38-.59-.59-.88l-.52-.7c-2.23-2.99-5.67-4.61-9.19-4.61h0Zm138.01,29.17c-.74,0-1.46,.07-2.17,.21-1.84,.36-3.53,1.15-4.94,2.28-1.14,.9-2.11,2.02-2.84,3.32-.48,.85-.86,1.78-1.12,2.75l-.14,.48c-.29,1.02-.44,2.07-.44,3.13v.29c0,5.36,3.72,10,8.94,11.17,.84,.19,1.68,.28,2.5,.28,4.35,0,8.43-2.49,10.35-6.57l.12-.25c.53-1.12,.87-2.33,1.02-3.56l.06-.48c.07-.53,.11-1.07,.11-1.61,0-6.04-4.67-10.98-10.6-11.41-.29-.02-.58-.03-.86-.03h0Zm0,22.89h0Zm-177.89,53.9c-1.23,0-2.48,.2-3.7,.62-5.12,1.75-8.29,6.83-7.67,12.15,.09,1.22,.38,2.42,.85,3.55l.07,.18c1.5,3.6,4.73,6.19,8.57,6.87l.25,.04c.67,.12,1.33,.18,1.99,.18,3.63,0,7.1-1.73,9.27-4.73,2.57-3.55,2.89-8.26,.81-12.12l-.37-.69c-2.04-3.8-5.97-6.03-10.09-6.03h0Zm238.82,7.79c-.1,0-.2,0-.29,0-1.99,.05-3.86,.61-5.48,1.56l-1.03,.58c-1.9,1.06-3.45,2.64-4.49,4.56l-.74,1.38c-.51,.94-.88,1.94-1.1,2.98l-.77,3.52c-1.18,5.39,1.66,10.85,6.75,12.99,1.44,.61,2.95,.9,4.43,.9,3.76,0,7.4-1.86,9.57-5.17l1.72-2.62c.31-.47,.58-.97,.82-1.48l.68-1.47c.35-.75,.61-1.54,.79-2.34l.26-1.16c.22-.89,.34-1.83,.34-2.79,0-6.3-5.09-11.42-11.39-11.45-.02,0-.04,0-.06,0h0Zm0,22.89h0ZM27.75,417.87c-1.31,0-2.62,.23-3.86,.67l-1.32,.47c-2.4,.55-4.47,1.82-6,3.54-.65,.24-1.29,.54-1.91,.91-4.86,2.88-6.89,8.88-4.78,14.13l1.82,4.52c1.75,4.34,5.96,7.16,10.61,7.16,.16,0,.31,0,.47,0l4.4-.18c.98-.04,1.96-.21,2.9-.5l1.73-.53c-.55,.48-1.06,1.02-1.51,1.6l-.56,.72c-1.77,2.27-2.62,5.13-2.37,8l.06,.7c.37,4.31,3.13,8.04,7.14,9.65l.74,.3c1.38,.55,2.82,.82,4.26,.82,2.76,0,5.48-1,7.62-2.9l.68-.61c1.12-1,2.03-2.2,2.68-3.55l.47-.98c.46-.94,.78-1.94,.97-2.97l.09-.5c.16-.76,.24-1.55,.24-2.35,0-5.07-3.29-9.37-7.86-10.87,.31-.19,.61-.4,.89-.62l1.13-.87c.85-.4,1.64-.91,2.36-1.51l.36-.29c2.44-2.02,3.94-4.97,4.13-8.13s-.94-6.27-3.13-8.57l-.62-.65c-.58-.61-1.23-1.16-1.93-1.63l-1.39-.93c-.58-.39-1.2-.72-1.84-1l-3.2-1.38c-1.45-.63-2.99-.93-4.52-.93-.23,0-.47,0-.7,.02-.01,0-.03,0-.04,0l-1.71-.1-2.04-.33c-.36-.06-.72-.1-1.08-.12l-2.61-.18c-.26-.02-.51-.03-.77-.03h0Zm13.11,49.57h0Zm67.56-24.62c-2.37,0-4.71,.74-6.68,2.15l-.37,.27c-2.99,2.15-4.76,5.61-4.76,9.29v.99c0,5.08,3.35,9.56,8.23,10.98,1.06,.31,2.15,.46,3.21,.46,3.83,0,7.5-1.93,9.64-5.28l.55-.86c2.07-3.24,2.38-7.3,.82-10.82l-.18-.4c-1.4-3.15-4.14-5.5-7.47-6.4-.99-.27-1.99-.4-2.99-.4h0Zm246.72,26.69c-.94,0-1.89,.12-2.82,.35-3.43,.87-6.27,3.29-7.68,6.54l-.24,.55c-1.36,3.14-1.25,6.73,.32,9.78,.1,.2,.21,.4,.33,.6,1.09,3.14,3.53,5.78,6.89,7,1.29,.47,2.62,.7,3.93,.7,4.58,0,8.89-2.77,10.66-7.28l.61-1.56c1.68-4.3,.61-9.15-2.64-12.34-1.61-1.98-3.84-3.37-6.32-3.94-.99-.27-2.01-.41-3.03-.41h0Z" style="fill:#cae3e8;"/></svg>