<svg xmlns="http://www.w3.org/2000/svg" viewBox="0 0 800 800"><path d="M734.39,394.19l-.15,12.1-6.71,28.65-3.88,8.92-.45,5.25,1.64,6.69,1.64,4.62-.59,4.3-5.38,5.57-4.17,2.7L712,474.43l-4.48.63H690.08l-4.48.8-5.07,2.71-3.14,4.29-5.07,10-2.39,2.23-5.52,3.35-1.94,1.75-.89,2.07-.3,2.86.6,56.52-5.08.8-1.64.63L644.87,569l-8.21,7.49-29.09,37.89-2.24,3-2.54,2.07L600,620.73l-8.36,2.07-8.8,5.26-32.38,27.38-3.88,5.41-14.17,19.43L530.43,682l-17.9,8.75-3.73.8-7.61,12.74-3.88,3.82-.75,1,.6,2.39,3.13,5.41.75,2.87-.45,2.07-1.19,1.27-1.64.64-4.78.64-.75,1.43.9,4.77-.6,3.51-1.34,4.45-2.09,3.83-6,3.66-.89,3.82.45,6-1.65,1-6.86,3.51-3.73-3.19-8.95-2.23-4.33-2.39-4.18-3-3.28-3.18,2.09-.32.9-.48.74-.8.75-1.59-6.12-.16-2.54.48-1.79,1.27H442.4l-2.09-5.25-3-3.34-11.64-10.35L395,706.7l-51-19.74-52.52-22.44-41.93-14.17,6.72-5.89,7.91-.32,8.2,2.7,7.16,3.51-.44-2.07-1-1.44-1.64-1-2.09-.32-1.64-.48-1.79-2.86L269,640.79,265,639l-2.39-.16-3.88,2.23L256.94,640l-1.79-1.59-1.79-1-.74-2.07,1.94-4.3,2.83-4.45,4-3.83,2.24-3.5,3-2.55,3.88,1.44,2.39-1.28,2.53-.47,5.52.16,1.05-.32,2.68-1,1.5-.32,1.49.64,2.68,2.07,1.05.48,4.18-1.28,3.73-2.54,4.17-2.07,5.82-.32-.44-.8-.45-1.75-.45-.79,4-1.28,4-.48,3-1.75.9-4.61h-1.64l-1.35.47h-1.49l-1.49.32-1.49.8L311.1,600l-.29-1-2.09.48h-2.54l-2.09.48-.89,1.27-.45,2.07-1.49,1-3.88,1.11-2.54,1.43h-4.18l-2.09.64-4.47,2.23-4.78,1-4.62,2.07-2.69.64-1.34-.16-4.48-1-2.38-.32-4.93-1.91-1.64-4.46-1-4.94-3.73-3.34V595.9l1.19-1.12.6-1.27.15-1.75-.3-2.39L252.47,591,251,592.08l-1.5.16-1.34-1.44h-1.49v3.35l-5.22-5.42,2.68-8,8.36-12.25,3.58,1.91,1.19,1.27,1.34-1.59-1.19-3-.3-3.34,1.35-2.39,3-.79-4.33-3.19-4,3.66-6.41,10.67-10.74,7.16-7.17,2.71-3.13-2.71L224,579l-14-2.86h-1.49l-1.34-.16-2.24-1-8.65-6.52-3.14-1.6-2.68-2.22-1.94-4.14-.75-4.3.6-2.87,2.24-2.07,3.73-2.07-3.88.8-11,4.77-10.3-7.16-3-6-1.94-2.55L160.86,538l-2.39-1.12-3-2.54-4.63-5.89,4.33-1,7.46-4.46,4-1,3.43.48,3.58,1.11L181,527l-4.48-4.77L171,518.05l-4.62-4.62L162.65,502l-.45-.8-.9-.79.3-1.75,1.35-3,.59-3.34,1.35-3.19,1.94-3,2.23-2.55-7-.95-3-3-1.64-4.46L154,469.17l-2.38-1.91-3-1.27-2.53-1.91-.9-3.82v-3.35l.45-3,1-2.87,1.35-2.86-1.94.48-1.2.95-1.19,1-1.64.79-1.49.48-.9-.16-1-.16-1.79-.16-9.55,1.59L122.21,455l-6,3.67-5.38,4.61-3.28,4.3h-1.34l.45-3.82-.45-9.87-.9-4.94-.14-2.86,1-2.71-2.54-2.23L96.1,428.26l-.29-.16-.6-.8-1-.16-.89-.47-.45-1.75-1.19-2.55-5.52-7.8-1.64-1-.9-2.39-1.34-2.07-2.69-.95,3-4,.89-1.91.45-3-.6-2.23-2.83-4.29-.9-2.23,4.63.79,1.34.8,1.34-1,.6.48.9,2.07L92.08,392l4,.16,3.88,1.27,3.29,2.07,2.83,3.35,4.48,7.8,7.46,4.3,5.22,5.25,5.52,4.14,4-.64,1.94-.16v-1.59l-2.69-.64L129.67,416,128,414.25l-.74-2.87h3v-1.59l-6.41-1.59-6-2.07-3.29-3.66,2.09-5.57,2.54-2.07,6.56-2.71,2.84-1.59,1.64-2.39,1.34-2.55,1.64-1.27,3,1.43-.15-2.71.6-2.54,1.19-2.39,1.34-2.07,2.09.64,14.33,1.11,4.17,1.27,2.39.32,1.79-.79,4.33-3.19,2.09-1.11-4-.8-4.63.48-4-.32-.59-2.7-.15.15,4.18-5.57,7.9-18.31-5.52,7-3.43,6.37-4.33,4.93L148,367.92l-3.88-.16-3.14-.64h-3l-5.67,3.67-3.88.31-3.58-1.43-2.24-3.18,4.93-1,2.53-2.86,2.24-3.35,3.88-2.54v-1.6l-1.94-.31-1.19-.48-.9-.8-.6-1.59h-1.34l-2.09,7.16L126.54,362l-2.39,1.11L120.57,362l-3-2.87-4-5.57-2.24,1.28-1.64-.32-1.19-1.44-.9-2.54-1,4,1.79,2.54,3.28,1.6L115.2,360l-3,1.59,6,4.78.44,5.25-3.28,5.1-4.62,4.14.89,1.91v2.07l-1,1.75-2.24.63-1.79-.79-1.34-1.75-5.67-10.35-1.65-3.66-1.34-6.85-1.79-4.3-2.24-4-2.09-2.7-1-2.55-.15-3.82.45-7.33h1l-1-24.83L95.81,307l2.38-.64,1,.8.59,1.43,1.79,1.59,16.86-.16,3.44-.64,4.47-2.07,6.27-.63,12.53.32-9.1-3-1.34.64L133.11,306h-3.73L125.2,305l-2.54-1.28-2.39,1.12-3.58.79-3.13-.48L112.22,303l-.75-1.76-1.49-.47h-1.49l-.9-.32-.15-1.75.6-.8.75-.32,2.08-4.61,4.33-2.23,5.52-1,4.93-.32v-1.75l-3.88-1.27-4.93.95-9.25,3.51-5.07.63L97,290.23l-4.18-3.34-1.49-5.58-.9,1-.44.16-.3.32v1.91l-3.28-3.35-1.2.16-.45,1-.44.79-.45,1.44-4.78-4.14.75-11.15-3.43-4.29v-1.44l5.07-4L91,256.48l5.67-1.12,3.43,1,8.36,5.57,4.92,1.75,3.28-.47,6.72-5.26,8.35-4.3,3.88-2.7,3-4,3-7.33,1.79-3.34,2.09-3.18,1.19-.8,3.43-.32.75-.32-.15-1.91-3-3.82-1-2.39,1-6.84,3.43-7.17,4.62-3.5,4.18,4.78,4.78-2.71,4.32-.32,4.18.32,4.48-.79,3.73-3.19,5.22-9.23,3.73-2.07,3-1,.15-1.75-.89-2.07v-1.91l1.79-2.55,1.19-1.11,3.58-2.23,1.05.16,1,.8,1.05.31.89-1.59.6-1.27.74-1,1.5-1.27,1-1.59,7.31-25.47.15-1.12-.45-1.11.15-1,1.64-.79,1.2-.48.74-.32.45-.64.6-1.11,1.94-7.64,1-2.07,1.94-.8,2.09.32,1.79-.16.9-2.07.29-9.87.6-.8,3.58-6.68L235,111l6.86-4.46.6-.16.3-.8v-2.86l.45-1.12,1-.15,1.19.31.6-.63V100l-.89-2.7-.15-.64,3-17.51V76.74l-.3-1.59.15-1.44,1.34-2.22,7.76-4.78,10-4,32.68-7.32,5.07.15,3.88,2.71,4,3.82,5.22,3.35,4,1.75,3.58.79,3.73.16L336,66.55l41-9.55,1.49-2.23,1-14.33L472.24,40l46.25-.32,5.52.64,7.46,2.39,3,.32,2.39,2.23,1.64,5.25,2.83,15.44L543,68.62l16.27,11,8.95,9.08,7.61,10.51,5.07,10.5,2.54,8,1.34,2.23,1.34.8,3.43,1.43,1.5,1.28.89,1.75,1.49,6.21,1.64,2.22,5.53,4.14,2.08,2.39.9,1.91,1,6.53,1.5,2.07,2.38,1.11,1.64,1.6-.29,3.34-1.2,5.73.9,4.3,2.38,3.5,3.29,3.82,3.43,2.39.45,1.27-2.39,1.75-2.09,2.07,2.69,1,3.88.16,1.49-.32,2.09.32H627l2.09.48,2.69,4.14,2.54,2.38,2.83,2.07L639.5,193l9.25,8.59.3,2.87-.9,2.71L647,209.67l-1.05,2.87v2.07l.9,4-.3,2.23-1.64,2.7L642.48,225l-2.39,1.27-2.23,1.59L634,235.15l-2.24,10,1.49,8.59,7.76,2.55,9.1-.32,8.65,1,5.08,1.43,2.53,2.39.3,1.43.15,1.43.15.64-3.43,13.85-1,8.12.45,17,.3,2.39,2.09,6.69v.95l-.3,2.55.15.8.75.95,1.64,1.12.59.63,9,12.58,3.28,2.55,1.19,2.23,9.25,13.37-1.64,5.09-3,4.62-4,3-5.07.31-4.48,1-4.18,3.82L665,372.86l-3.43,6.84L658.15,383l-1.49,2.87-.45,3v2.86l-.6,1.91-2.39.32-3.13,20.22-3.28,5.57-3.88,5.1-5.07,7.8-2.24,7.64,4.32,4.14,1.65-7.8,4.32-4.94,6.12-2.23,7.31.48,3.13,1.43,6.27,4.3,2.39.64,3.88-1.75,7.76-5.42,12.83-13.37,2.68-3.66,5.22-11.46,2.09-3.19,2.54-2.54,2.83-1.92,3.29-1.27,6.56-.95h1.49l6,1.91,1.79,1.11,1.79.64ZM252.47,608.64l-2.39,1.75-.3,2.54,1.34,7-.59,4.14L249,626.47l-1.94,2.38-1.94,3.82-.15,3.67,1.79,7.8-.15,2.86L244,649.71l-3.88.64-3.43-1.28-1.94-3.5h4.48l-3-5.89L232.33,634l-4.33-4.3-4.48-1.75-3.13-.32-20-5.57-7-4-18.5-3-22.38-6.36v-1.76l8.21-2.07.89-3.18,2.69-2.87,3.13-1.43,8.36-1.43h23.87l3.58-.48,8.21-2.39,13.13-1.11,4.47.32,4.33,1.91-3.28,4.14,2.09,1.11,8.5-.32,3.88,1.28,3.13,2.07,2.54,2.86Z" style="fill:#efc441"/></svg>