<svg xmlns="http://www.w3.org/2000/svg" viewBox="0 0 800 800"><polygon points="781.96 327.8 780.95 330.83 779.94 335.05 779.29 339.36 779.39 342.49 777.27 344.06 772.13 344.74 769.75 346.41 766.9 354.15 765.15 357.48 765.06 358.36 765.06 360.71 764.79 361.89 763.5 363.56 760.29 366 759.28 367.28 759 367.67 758.18 369.92 758.09 371.3 758.27 372.86 758.64 379.13 758.27 380.31 757.35 382.46 756.16 383.93 754.96 384.91 753.95 386.09 753.49 388.54 753.68 392.46 752.76 396.38 751.2 399.8 749 402.45 747.43 403.43 743.85 404.41 742.2 405.49 741.19 406.76 739.72 409.7 738.89 411.07 730.17 417.44 728.15 420.48 727.88 424.2 729.44 431.64 728.98 434.49 727.51 437.52 727.33 450.75 724.85 453.69 722.46 455.35 719.98 456.04 711.99 455.35 709.51 455.45 707.03 456.24 700.06 456.53 698.13 457.31 694 459.37 688.21 460.15 681.33 463.39 677.19 463.78 673.06 462.41 669.48 460.06 666.27 456.63 658.74 446.14 657.73 444.19 655.99 436.64 654.79 434.49 652.5 434.09 647.54 434.09 645.43 433.21 644.51 431.94 643.31 428.41 642.4 426.84 641.2 425.86 638.82 424.98 634.32 422.53 632.39 421.94 625.41 424 620.82 424.1 618.62 424.49 615.95 425.96 614.85 427.63 614.12 429.59 612.46 431.64 610.53 432.62 608.98 432.04 607.32 430.76 604.93 429.78 600.44 430.76 590.06 435.27 586.66 434.49 584 432.13 580.24 430.57 576.29 429.88 572.89 430.18 568.12 429.78 560.86 425.67 556.64 425.28 554.71 424.79 550.67 421.55 548.65 420.57 546.45 420.57 518.08 426.55 509.72 427.04 505.87 428.41 505.77 429.88 505.68 431.35 505.96 434.58 506.05 435.17 506.05 435.86 505.96 436.54 505.87 437.13 504.12 439.58 503.75 439.87 499.71 443.79 497.69 446.24 496.13 449.08 490.9 463.68 488.14 468.97 484.75 473.58 480.89 477.2 477.86 478.67 476.21 477.99 474.65 476.51 471.98 475.24 470.51 475.83 466.48 479.26 464.18 480.14 461.88 479.94 460.51 479.45 459.31 479.75 457.66 481.51 457.11 482.79 456.38 486.12 455.37 487.78 454.26 488.57 451.79 489.45 446.46 492.39 446 492.68 440.86 494.15 437.74 495.91 431.68 501.01 428.56 502.09 425.8 501.11 420.66 496.89 417.35 495.91 412.49 497.68 411.2 497.48 410.01 495.72 410.28 494.25 411.11 492.58 411.02 490.82 408.63 488.17 405.51 487.68 399.26 488.86 397.98 488.17 395.04 484.84 393.48 483.67 392.2 483.37 390.73 483.27 378.42 486.31 376.13 487.49 374.66 490.23 373.37 497.29 371.72 500.13 371.72 500.22 371.72 500.32 371.72 500.42 371.72 500.62 372 501.6 372 502.58 372 503.56 371.72 504.44 364.56 509.14 346.47 508.75 338.48 513.45 337.01 513.74 320.39 511.88 312.31 512.96 309.65 512.86 306.71 512.76 304.69 513.55 298.27 514.92 285.5 517.47 283.12 519.23 279.54 526.09 278.25 527.07 275.68 527.46 274.49 528.15 272.74 530.11 272.83 530.79 273.84 531.48 274.21 533.63 272.93 541.18 272.56 545 273.48 548.43 277.33 551.95 282.57 555.38 282.29 555.48 278.99 556.46 275.96 557.24 273.66 558.81 269.25 563.51 265.95 565.28 262 565.67 258.05 564.98 253.19 563.02 247.13 562.63 219.67 565.57 209.66 569.29 204.61 569.69 188.09 568.12 157.42 569.98 149.62 570.37 138.41 567.63 135.38 566.06 129.69 563.32 128.22 561.85 127.21 559.99 124.73 557.83 121.89 555.97 119.96 555.09 118.4 555.28 117.11 555.87 115.64 555.87 114.08 554.4 109.49 548.13 108.3 547.45 104.9 546.76 103.52 546.17 102.24 545.1 88.47 528.24 84.24 525.01 75.43 523.84 74.05 523.44 68.54 522.07 63.68 521.09 58.81 523.84 55.69 521.29 51.28 519.82 48.25 518.25 48.98 515.31 47.33 514.04 46.78 513.74 47.61 510.41 48.25 508.55 49.63 506.98 47.88 505.32 47.24 504.24 45.22 500.91 43.84 500.03 41.73 499.73 39.8 498.75 36.5 495.33 35.49 492.49 35.49 488.47 34.84 485.24 32.73 478.67 32.73 477.79 32.92 475.63 32.73 474.85 32.27 474.26 31.45 473.97 29.98 472.69 28.69 472.2 27.68 471.62 27.23 470.54 27.13 469.75 26.67 468.68 26.21 467.7 25.85 467.31 25.3 467.01 25.48 466.03 26.03 464.95 26.31 464.17 25.76 462.7 24.38 461.33 22.91 460.25 22.18 459.86 19.51 459.57 18.41 458.98 18.04 457.9 18.14 455.94 18.32 455.06 18.69 454.47 19.05 453.39 20.25 443.6 20.8 440.95 22.08 438.5 25.66 433.9 26.31 431.45 27.32 429.69 29.52 428.02 31.72 425.96 32.09 424.98 32.73 422.73 31.54 414.11 31.82 410.58 33.93 408.23 35.49 405.68 42.28 387.95 45.59 382.86 50.18 379.23 52.11 376.98 52.93 373.55 54.13 371.78 61.38 367.08 67.35 365.91 73.78 367.38 89.11 374.43 91.41 374.04 94.07 372.47 96.45 371 99.67 370.22 101.69 371 105.73 375.02 110.69 375.7 136.4 366.49 138.78 364.63 143.46 357.48 145.58 355.81 148.88 355.32 151.73 355.72 154.3 355.62 156.78 353.46 157.88 350.92 158.89 345.23 159.72 342.49 161.46 339.26 164.31 337.59 167.52 337.1 174.77 337.59 179.18 335.73 183.13 332.4 185.98 328.19 186.8 324.07 186.62 315.84 186.62 314.76 187.08 309.77 188.82 303.69 191.3 298.11 194.51 293.31 198.46 289.98 216.55 283.61 221.51 280.08 224.72 277.83 225 269.01 228.95 269.8 231.88 268.03 237.67 261.76 242.07 259.61 243.18 258.53 243.82 256.96 244.19 253.44 244.83 251.97 247.58 250.4 253.55 251.18 257.41 249.32 258.33 249.13 259.25 249.32 263.65 251.38 267.51 252.46 271.27 252.26 276.78 247.66 279.26 246.77 284.77 246.68 298.08 247.75 301.94 249.91 300.75 253.04 300.93 255.69 301.57 258.14 301.94 260.98 301.3 267.05 302.12 269.11 304.69 269.6 308.09 269.31 313.32 266.56 316.17 265.98 317.46 266.37 320.12 268.13 321.4 268.72 322.78 268.82 326.18 268.23 330.31 266.66 331.23 265.19 331.6 262.94 332.51 259.31 332.97 259.22 334.63 259.22 335.18 258.73 335.45 257.55 335.27 256.67 334.81 256.08 334.54 255.88 336.74 249.81 338.57 247.26 340.5 245.5 342.71 244.52 345.28 244.03 349.41 244.13 350.79 243.93 352.71 243.25 353.72 242.46 365.29 230.9 365.84 229.92 366.58 229.63 367.31 229.92 368.51 230.31 370.71 233.94 371.72 234.92 374.93 236.78 376.5 240.5 378.97 249.91 381.18 255.79 381.82 257.16 384.12 258.73 386.96 259.41 392.29 259.41 391.64 260.59 391.46 261.67 391.55 264.51 391.28 266.76 398.99 269.11 401.93 269.4 404.59 269.21 409.09 267.54 410.28 268.43 410.38 268.43 411.57 271.95 412.3 274.99 413.04 284 412.85 284.69 411.84 286.06 411.75 286.84 412.21 287.53 414.05 288.7 414.23 289.19 414.32 289.19 415.33 290.18 415.33 290.27 415.61 291.06 415.33 292.13 414.51 292.53 413.68 292.72 413.04 293.21 407.99 300.66 407.44 303.11 409.18 305.26 412.58 306.34 418.73 306.83 421.76 305.85 423.6 304.09 426.26 301.64 428.65 299.97 432.96 299.58 436.73 301.25 443.61 307.12 448.02 309.18 450.68 307.32 452.06 302.71 452.8 296.25 454.45 294.39 455.46 292.33 456.19 290.18 458.76 284.98 459.5 284 459.86 284.3 462.8 284.59 464.09 283.51 467.03 280.38 469.05 279.3 479.42 278.52 480.06 277.63 481.07 275.09 481.72 272.44 481.99 270.78 482.54 269.6 483.92 268.72 485.48 268.62 490.99 270.48 497.88 270.29 497.88 267.05 499.99 266.66 511.28 271.85 514.22 272.54 517.43 271.46 518.99 270.19 521.11 267.84 522.48 267.15 523.68 267.05 526.62 267.44 531.66 266.66 533.78 267.05 545.71 279.89 547.83 281.26 550.76 281.65 553.06 281.55 555.17 281.85 557.74 283.51 559.94 285.57 562.06 287.04 564.53 287.43 567.66 286.45 570.6 284.2 575 278.32 577.76 275.97 579.87 275.58 582.62 275.48 585.1 275.09 586.2 273.32 584.64 270.58 581.52 268.92 579.87 267.15 582.62 264.41 584.64 263.53 590.06 262.55 592.17 262.74 594.56 264.21 596.49 266.17 598.6 267.44 601.45 267.05 603.74 265.09 607.97 259.41 610.35 257.94 612.19 258.33 619.72 261.96 632.85 265.29 635.05 265.29 640.01 264.31 641.94 264.8 644.42 263.92 646.44 263.13 656.08 262.15 658.55 262.74 659.93 263.63 662.41 265.78 663.79 266.66 664.8 266.76 666.91 266.37 668.2 266.76 670.49 268.82 674.99 275.09 677.01 276.56 678.39 275.77 680.32 273.72 682.61 271.76 685.37 271.36 687.85 272.64 692.71 276.65 699.97 279.99 704.74 284.1 708.6 289.69 710.34 296.25 711.26 302.13 715.02 304.67 724.48 306.24 728.89 308.79 730.45 309.48 731.73 309.57 734.95 309.18 736.14 309.38 737.61 310.85 737.61 312.12 737.24 313.39 737.52 314.47 738.53 315.25 744.77 317.02 752.21 316.73 755.05 317.8 761.85 323.98 766.81 325.35 777.27 325.74 781.96 327.8" style="fill:#efc441"/></svg>