<svg xmlns="http://www.w3.org/2000/svg" viewBox="0 0 800 800"><polygon points="422.98 326.32 424.01 325.22 425.04 324.15 427.31 321.84 429.55 319.52 430.59 318.46 433.03 315.92 435.48 313.39 437.92 310.85 440.37 308.35 442.81 305.82 445.25 303.28 447.7 300.75 450.14 298.25 452.59 295.72 455.03 293.18 457.48 290.65 459.92 288.11 462.37 285.61 464.81 283.08 467.26 280.54 469.7 278.01 472.14 275.47 474.59 272.94 476.55 270.88 477.03 270.4 479.48 267.9 481.92 265.37 484.37 262.83 486.81 260.3 489.26 257.76 491.67 255.23 494.15 252.69 496.59 250.16 499.04 247.66 502.03 242.74 505.06 237.81 508.06 232.89 511.09 228.01 514.12 223.08 517.15 218.16 520.18 213.24 523.17 208.35 526.2 203.43 529.2 198.5 532.23 193.58 535.26 188.66 538.25 183.74 541.28 178.85 544.28 173.93 547.31 169 547.31 162.94 547.31 162.9 547.31 156.81 547.31 150.71 547.31 144.65 547.31 138.55 547.31 132.45 547.31 126.39 547.31 120.29 547.31 114.19 547.31 108.09 547.31 101.99 547.31 95.89 547.31 89.79 547.31 83.69 547.31 77.6 547.31 71.46 549.2 71.35 555.81 69.99 562.42 68.7 564.35 67.79 565.14 66.65 565.63 66.24 566.28 66.5 566.76 66.8 567.24 66.83 570.51 66.5 571.45 66.28 572.27 65.95 574.96 64.26 575.89 64.08 576.61 63.6 577.75 61.28 578.47 60.37 579.4 60 580.53 59.92 582.81 60 583.08 59.89 583.87 59.41 584.36 59.26 584.91 59.23 586.42 59.59 590.86 60.11 593.21 59.74 594.69 58.49 595.06 58.53 595.96 57.9 596.54 57.72 596.75 57.61 597.37 57.13 597.75 56.99 598.13 57.02 598.47 57.17 598.71 57.28 598.78 57.35 603.4 57.21 604.33 57.35 607.29 55.66 608.29 54.67 608.8 54.38 610.63 54.41 611.08 54.19 611.45 53.9 612 53.61 614.17 52.98 615.21 52.28 619.41 48.65 621.71 48.17 622.64 47.47 624.33 45.45 625.88 43.98 626.47 43.1 626.71 41.92 626.78 40.67 626.98 39.46 627.29 38.28 627.77 37.26 628.91 35.64 629.63 34.94 630.36 34.65 630.94 34.54 632.25 33.88 632.46 33.55 632.7 33.25 632.94 33.1 633.21 33.14 633.66 33.44 633.94 33.47 635.04 33.18 637.14 32.22 638.96 31.78 639.51 31.41 640.82 31.23 644.3 33.73 649.47 34.32 652.46 36.89 653.42 37.26 657.38 37.26 658.38 37.51 660.07 38.51 661.03 38.73 662.17 38.76 663.41 38.95 664.41 39.39 665.68 39.72 664.92 41.48 664.37 43.72 663.51 45.38 663.82 47.95 663.45 49.56 662.51 50.45 661.65 51.95 660.11 53.53 658.42 55.88 657.25 57.21 657.04 57.54 657.11 58.16 657.35 58.97 657.38 59.41 657.25 60.66 656.94 61.84 655.32 65.62 655.08 66.46 654.98 70.03 654.63 72.31 655.28 74.8 657.56 76.27 659.76 76.38 660.52 77.49 659.24 78.66 658.14 81.31 657.59 82.15 657.21 82.89 656.94 84.1 656.76 85.39 657.25 92.92 657.94 102.54 659.07 106.8 658.73 107.39 657.59 107.58 656.39 107.98 656.11 108.97 656.35 111.32 656.11 112.42 655.63 113.12 654.84 113.45 653.77 113.56 652.77 113.89 651.91 114.74 651.5 115.73 651.91 116.5 652.87 116.69 660.55 115.07 661.07 115.14 661.62 115.29 662.07 115.29 662.24 114.85 662.03 114.26 661.55 113.93 661.07 113.71 660.86 113.38 660.83 112.13 660.69 110.99 660.38 109.89 659.83 108.75 660.62 109.49 661.41 110.07 662.07 110.81 662.93 111.32 663.38 111.65 663.96 111.95 665.1 112.83 665.68 113.23 666.61 113.45 667.37 113.64 667.85 113.53 668.37 113.2 668.95 113.01 669.99 113.12 670.85 113.27 671.26 114.48 671.95 115 671.64 115.95 670.99 117.79 670.33 118.05 670.09 118.27 669.71 118.6 669.88 119.33 669.47 119.33 668.54 118.93 667.89 118.96 667.06 118.74 666.1 119.08 664.68 118.78 664.34 117.75 664.2 117.09 663.89 116.47 663.1 116.17 655.49 117.16 651.84 118.56 647.33 121.5 646.44 123.23 646.02 126.53 646.57 129.66 645.13 133.77 645.37 136.23 645.95 137.96 646.02 138.62 645.92 139.21 645.47 140.02 644.82 143.76 644.99 144.39 644.4 145.53 644.09 146.52 643.65 149.24 642.96 151.19 642.58 151.77 642.86 153.31 642.79 153.83 642.51 154.86 642.13 158.16 641.24 159.6 641.2 161.25 641.58 164.12 642.75 167.61 642.96 168.71 642.79 169.74 642.44 170.69 639.31 176.13 638.31 176.97 636.21 177.93 635.35 178.52 634.73 179.4 633.21 181.97 632.94 182.78 633.32 186.23 633.28 187.45 632.56 189.43 631.08 191.34 625.57 196.01 624.02 197.7 622.78 199.46 621.89 201.15 621.2 203.35 620.27 207.84 619.51 209.71 617.1 212.83 616.76 213.94 616.89 217.21 616.76 218.2 615.93 220.18 615.27 221.17 614.52 221.58 613.55 221.94 613.04 222.79 612.69 223.89 612.25 224.88 609.01 229.44 608.53 230.14 607.77 231.9 606.36 236.68 605.26 238.77 603.6 240.42 597.13 244.65 592.72 249.46 591.83 251.04 591.24 252.99 590.76 256.81 591.04 257.43 591.79 257.99 592 259.2 591.86 260.56 591.59 261.51 590.14 263.68 588.66 265.41 588.21 266.32 588.01 268.71 587.8 269.63 582.6 279.37 579.88 284.44 576.54 288.51 568.83 300.05 565.11 307.84 562.8 311.62 560.32 319.01 554.13 332.93 553.99 334.14 554.09 335.36 554.57 337.6 554.68 338.77 553.95 343.48 552.2 347.56 547.93 355.38 542.83 364.79 535.09 377.53 532.61 383.3 531.26 385.25 527.65 388.96 522.62 397.92 516.63 404.87 510.26 414.05 502.89 429.96 497.49 438.34 492.05 444.58 478.86 459.72 474.38 466.33 466.67 474.82 460.16 482.02 451.76 491.46 450.42 492.97 441.43 504.17 434.68 510.57 430.96 515.38 424.01 521.55 420.33 525.63 417.16 528.02 417.06 528.46 416.81 529.01 416.54 529.45 416.3 529.63 415.44 530 414.95 530.85 414.54 531.95 414.02 532.98 413.34 533.53 411.37 534.52 406.62 539.81 406.07 540.62 405.25 542.27 404.76 542.97 402.63 544.37 401.87 545.95 400.84 546.83 390.75 553.77 385 557.26 379.63 560.53 362.55 571.04 360.86 572.1 359.76 572.36 359.21 572.54 349.26 577.54 340.69 583.82 340.31 584.3 339.72 584.56 332.9 589.81 326.54 594.04 315.62 603.11 310.01 609.25 308.87 609.8 306.81 611.12 306.19 611.75 306.01 612.19 305.91 612.7 305.81 613.77 305.6 613.99 304.67 614.28 304.46 614.46 304.09 615.01 300.54 618.84 299.51 619.53 298.4 619.83 297.82 620.38 295.48 623.54 289.8 626.77 287.9 628.28 285.49 631.84 284.67 632.36 283.94 632.61 281.71 634.52 272.1 644.41 262.94 655.47 257.88 660.76 253.13 665.75 243.11 677.54 237.01 684.67 234.09 687.21 230.85 690 227.48 693.71 226.24 695.55 226.13 696.1 226.13 696.58 226 696.91 224.76 697.2 224.41 697.53 222.41 700.36 222.14 701.28 222.76 701.83 222.24 702.75 222.07 702.93 222.07 702.6 222.04 702.34 221.93 702.09 221.73 701.83 219.04 704.07 218.63 704.62 218.28 705.5 217.53 706.46 215.87 708.08 210.88 714.54 210.67 714.98 210.67 715.39 210.6 715.68 210.16 715.83 209.99 716.01 207.95 719.39 206.65 720.82 205.89 721.41 205.1 721.82 204.13 722.07 202.62 722.04 201.86 722.22 201.41 722.77 202.38 722.99 202.34 724.06 201.89 725.2 201.58 725.75 200.86 726.15 200.14 727.11 199.55 728.25 199.31 729.24 199.1 729.68 197.42 731.07 196.87 731.37 196.66 731 196.45 728.76 196.49 726.67 196.21 725.75 195.9 725.75 196.04 726.55 195.87 727.14 195.63 727.69 195.53 728.36 195.59 728.98 195.83 729.75 195.9 730.34 196.04 731.04 196.38 731.33 196.73 731.55 196.94 731.99 196.87 732.65 196.35 733.76 196.21 734.38 195.94 735.08 194.77 736.22 194.49 736.62 194.39 737.32 194.18 737.91 193.84 738.42 191.94 740.85 191.7 741.4 191.88 741.88 192.29 741.88 192.74 741.58 193.11 741.21 192.53 742.65 191.36 742.79 190.32 741.99 189.98 740.48 189.67 740.48 189.74 741.54 190.32 743.46 190.36 744.48 190.05 745.48 184.82 754.55 183.61 756.09 182.68 757.67 180.79 761.75 179.82 762.56 178.69 763.26 176.9 766.42 175.9 767.34 176.21 767.34 174.9 768.77 174.94 767.7 175.07 764.36 174.9 763.33 174.28 762.15 172.35 759.47 169.8 755.98 167.29 752.49 164.67 748.93 162.19 745.51 159.92 742.35 157.13 738.53 154.55 734.97 152.07 731.55 150.8 729.75 149.52 727.99 148.25 726.23 146.94 724.46 146.91 720.38 146.87 716.6 146.8 712.82 146.74 706.97 146.67 701.17 146.6 695.36 146.53 689.52 146.5 685.88 146.46 682.28 146.39 677.88 146.39 671.15 146.39 664.47 146.39 657.74 146.39 651.02 146.39 644.33 146.39 637.61 146.39 630.92 146.39 624.2 146.39 617.48 146.39 611.71 146.39 610.79 146.39 604.07 146.39 597.38 146.39 590.66 146.39 583.93 146.39 577.25 146.39 570.52 146.39 564.79 146.39 559.1 146.39 553.37 146.39 547.67 146.39 543.67 146.32 536.43 146.25 529.52 146.22 526.66 146.94 525.15 148.66 523.35 152.79 518.98 156.96 514.61 161.09 510.24 165.22 505.86 167.81 501.9 170.42 497.93 173.01 493.92 175.62 489.96 179.86 483.53 184.06 477.06 188.29 470.59 192.5 464.17 193.18 463.1 193.87 462.51 194.11 461.81 194.08 460.2 194.42 459.13 195.32 458.29 198.86 455.97 201.72 453.55 203.44 452.63 205.1 452.19 209.44 452.11 213.22 452.08 219.14 451.01 226.86 449.62 234.43 448.22 238.01 447.56 240.11 446.68 241.97 445.35 242.04 445.28 243.52 443.52 244.28 441.79 245.17 438.01 245.86 436.21 246.17 435.65 246.59 435.1 250.37 431.8 254.57 428.09 260.29 425.22 266.04 422.28 271.69 419.45 275.16 417.69 280.81 416.29 284.6 415.34 289.59 414.13 291.07 413.76 295.48 412.11 297.3 411.63 300.33 411.81 302.95 412 305.57 412.14 308.15 412.29 310.77 412.47 313.38 412.62 316 412.8 318.58 412.95 321.2 413.1 323.81 413.28 326.4 413.43 328.91 413.57 329.01 413.57 331.63 413.76 334.21 413.91 336.83 414.05 339.45 414.24 342.06 414.38 344.78 414.57 346.23 413.91 350.22 409.31 353.08 405.97 358.49 399.65 363.89 393.37 369.26 387.05 374.67 380.73 375.25 380.07 380.08 374.45 385.45 368.13 390.85 361.81 396.26 355.49 399.32 352.15 402.39 348.77 405.45 345.39 408.52 342.04 411.58 338.66 414.68 335.28 417.74 331.94 420.81 328.56 422.98 326.32" style="fill:#efc441"/><polygon points="547.31 71.46 547.31 77.6 547.31 83.69 547.31 89.79 547.31 95.89 547.31 101.99 547.31 108.09 547.31 114.19 547.31 120.29 547.31 126.39 547.31 132.45 547.31 138.55 547.31 144.65 547.31 150.71 547.31 156.81 547.31 162.9 547.31 162.94 547.31 169 544.28 173.93 541.28 178.85 538.25 183.74 535.26 188.66 532.23 193.58 529.2 198.5 526.2 203.43 523.17 208.35 520.18 213.24 517.15 218.16 514.12 223.08 511.09 228.01 508.06 232.89 505.06 237.81 502.03 242.74 499.04 247.66 491.87 247.66 482.68 247.66 476.11 247.66 468.19 247.66 460.37 247.66 453.21 247.66 448.73 247.66 445.77 246.08 442.6 244.94 438.4 243.4 434.17 241.89 429.93 240.39 425.73 238.84 421.5 237.34 417.26 235.83 413.06 234.29 408.83 232.78 404.59 231.28 400.39 229.73 396.15 228.23 391.95 226.72 387.72 225.18 383.49 223.67 379.28 222.16 375.05 220.62 370.61 219.08 366.17 217.5 361.76 215.96 357.32 214.38 352.88 212.8 348.43 211.25 344.03 209.67 339.58 208.13 335.14 206.55 330.7 205.01 326.26 203.43 321.85 201.88 317.41 200.31 312.97 198.72 308.53 197.18 304.12 195.6 300.09 194.21 298.1 192.96 294.58 189.54 288.18 183.29 283.7 178.96 279.85 175.18 279.12 174.77 278.3 174.81 277.09 175.32 276.16 175.21 272.27 172.75 269.65 171.06 269 170.22 268.79 169.19 268.66 167.39 268.35 166.4 267.21 163.97 266.76 163.46 265.73 162.76 265.25 162.28 264.94 161.69 264.46 160.52 263.97 159.97 263.56 159.78 262.18 159.38 261.08 158.09 260.39 155.96 258.95 147.33 257.98 145.6 256.12 144.68 253.82 144.24 251.99 143.47 250.58 141.96 249.62 139.47 249.2 137.66 248.58 135.9 247.65 134.28 246.48 133 241.66 129.66 240.35 127.97 238.94 124.66 237.98 121.2 237.32 116.25 236.81 114.74 236.02 113.67 233.26 110.81 231.92 108.57 230.88 106.11 230.82 104.97 231.47 104.45 232.5 104.12 233.47 103.53 234.09 102.65 234.43 101.59 234.91 99.38 235.4 98.06 235.98 97.18 237.81 95.64 238.56 94.75 238.91 93.91 239.11 93.03 239.49 91.92 240.28 91.08 242.38 90.12 243.21 89.35 243.59 88.43 244.11 86.23 244.73 85.05 258.09 62.86 260.67 58.49 261.29 59.3 262.01 59.89 263.08 60 262.8 57.9 263.53 58.79 264.66 60.77 265.66 61.84 266.31 62.2 267.49 63.75 268.42 64.08 269.38 64.3 270.89 65.47 271.69 65.95 272.03 65.03 272.62 64.37 273.2 64.3 273.44 65.18 272.69 70.25 273.13 72.01 274.06 73.67 275.2 74.88 275.51 75.02 276.33 75.25 276.71 75.43 276.89 75.76 277.16 76.57 277.92 77.67 278.33 79.18 279.64 81.16 281.71 85.64 286.6 90.75 290.31 95.71 294.96 99.97 300.3 103.9 303.78 107.32 306.39 108.94 312.66 114.48 314.14 115.4 316.34 116.8 318.44 117.72 322.27 117.5 326.12 117.97 328.36 118.45 330.43 118.08 332.18 117.46 335.14 116.5 336.62 116.06 338.62 116.28 341.86 116.8 344.13 116.94 347.26 116.72 348.88 115.25 348.57 114.3 349.26 114.3 354.77 110.77 355.56 110.4 357.08 109.93 361.86 106.69 365.31 103.35 366.13 102.87 367.03 102.98 367.96 103.35 368.92 103.57 369.75 103.5 371.57 103.06 373.67 102.14 375.15 101.18 376.5 100.12 378.01 98.13 378.66 97.73 382.49 96.37 383.04 96.08 383.62 95.38 384.1 94.64 384.69 94.09 385.62 93.83 386.31 93.5 387.06 91.96 387.86 91.63 388.79 91.63 389.54 91.78 390.27 92.11 390.99 92.73 391.44 93.43 391.75 94.13 392.23 94.57 393.06 94.61 392.85 93.61 393.68 93.61 398.36 95.93 400.12 96.15 401.87 96.66 402.7 97.03 404.63 97.47 406.38 97.14 409.89 96.08 411.41 96.26 412.72 97.14 414.92 99.6 416.33 100.78 418.09 101.48 420.02 101.73 422.01 101.66 423.74 101.22 424.63 100.85 426.01 99.86 427.69 99.57 429.07 98.94 431.14 98.83 432 98.68 432.65 98.35 434.37 96.85 438.82 94.68 440.81 93.03 443.05 91.96 443.33 91.63 443.81 90.82 444.05 90.53 444.43 90.34 445.12 90.27 445.43 90.12 450.18 88.32 453.93 85.28 456.44 83.07 458.2 81.09 458.85 80.65 461.2 79.91 461.78 79.51 463.02 78.44 468.22 75.61 469.22 75.21 470.18 74.99 471.77 75.25 474.38 74.55 476.07 74.84 483.85 79.14 485.5 79.51 488.36 77.93 494.7 77.82 497.49 78.22 506.64 77.6 508.16 77.08 508.81 76.46 509.92 74.84 510.91 74.36 511.02 73.96 511.12 73.56 511.6 73.37 512.46 73.37 512.91 73.33 513.84 73.04 514.87 72.93 515.39 72.64 515.7 72.27 515.84 71.86 515.91 71.46 516.08 71.13 516.73 70.39 517.32 70.03 518.83 69.66 522.41 69.29 524.14 68.89 525.58 67.97 526.34 67.68 529.54 67.79 532.12 67.13 533.02 67.05 536.5 67.9 538.42 68.67 540.35 69.84 544.79 71.39 545.55 71.53 546.41 71.53 547.31 71.46" style="fill:#efc441"/><polygon points="263.08 60 262.84 58.21 261.54 59.51 262.01 59.89 263.08 60" style="fill:#fff"/><polygon points="267.14 56.03 266.9 56.29 266.82 57.06 267.1 56.77 267.25 56.32 267.14 56.03" style="fill:#fff"/><polygon points="263.53 58.79 262.96 58.09 262.84 58.21 263.08 60 262.01 59.89 261.54 59.51 257.93 63.12 253.66 70.22 264.1 59.78 263.53 58.79" style="fill:#fff"/><polygon points="266.31 62.2 266.02 62.03 247.34 80.71 244.73 85.05 244.11 86.23 243.94 86.94 267.33 63.55 266.31 62.2" style="fill:#fff"/><polygon points="273.2 64.3 272.62 64.37 272.03 65.03 271.69 65.95 270.89 65.47 270.15 64.9 234.7 100.35 234.43 101.59 234.09 102.65 233.47 103.53 232.5 104.12 231.47 104.45 230.82 104.97 230.88 106.11 231.15 106.73 273.28 64.59 273.2 64.3" style="fill:#fff"/><polygon points="272.69 70.25 272.84 69.21 232.5 109.55 233.26 110.81 233.66 111.22 273.08 71.8 272.69 70.25" style="fill:#fff"/><polygon points="276.33 75.25 275.51 75.02 275.2 74.88 274.7 74.35 235.7 113.35 236.02 113.67 236.81 114.74 236.89 114.99 276.54 75.34 276.33 75.25" style="fill:#fff"/><polygon points="278.33 79.18 278.02 78.03 237.61 118.44 237.94 120.94 278.88 80 278.33 79.18" style="fill:#fff"/><polygon points="280.35 82.7 238.82 124.23 238.94 124.66 239.62 126.25 281.24 84.64 280.35 82.7" style="fill:#fff"/><polygon points="283.03 87.02 241.11 128.94 241.66 129.66 242.58 130.29 284.41 88.47 283.03 87.02" style="fill:#fff"/><polygon points="286.6 90.75 286.45 90.6 245.05 132 246.48 133 246.67 133.21 287.68 92.2 286.6 90.75" style="fill:#fff"/><polygon points="290.31 95.71 289.47 94.58 248.43 135.63 248.58 135.9 249.2 137.66 249.21 137.67 290.76 96.12 290.31 95.71" style="fill:#fff"/><polygon points="292.94 98.11 250.16 140.89 250.58 141.96 251.23 142.65 294.41 99.47 292.94 98.11" style="fill:#fff"/><polygon points="296.76 101.29 253.81 144.24 253.82 144.24 256.12 144.68 256.17 144.71 298.39 102.49 296.76 101.29" style="fill:#fff"/><polygon points="300.73 104.32 258.51 146.54 258.95 147.33 259.18 148.7 302.15 105.72 300.73 104.32" style="fill:#fff"/><polygon points="304.37 107.68 259.78 152.28 260.18 154.7 306.12 108.76 304.37 107.68" style="fill:#fff"/><polygon points="308.37 110.68 261.05 158 261.08 158.09 262.18 159.38 262.43 159.45 309.87 112.01 308.37 110.68" style="fill:#fff"/><polygon points="312.66 114.48 312.08 113.97 264.77 161.28 264.94 161.69 265.25 162.28 265.73 162.76 265.96 162.91 313.73 115.15 312.66 114.48" style="fill:#fff"/><polygon points="316.34 116.8 316.29 116.76 267.81 165.24 268.35 166.4 268.62 167.26 318.25 117.63 316.34 116.8" style="fill:#fff"/><polygon points="322.52 117.53 269.37 170.69 269.65 171.06 270.97 171.91 325.04 117.84 322.52 117.53" style="fill:#fff"/><polygon points="332.18 117.46 330.43 118.08 328.65 118.4 273.51 173.54 275.25 174.63 332.53 117.34 332.18 117.46" style="fill:#fff"/><polygon points="338.62 116.28 337.85 116.2 279.22 174.83 279.85 175.18 280.78 176.09 340.32 116.55 338.62 116.28" style="fill:#fff"/><polygon points="344.13 116.94 344.11 116.94 282.89 178.16 283.7 178.96 284.32 179.56 347.15 116.73 344.13 116.94" style="fill:#fff"/><polygon points="348.57 114.3 348.82 115.06 350.15 113.73 349.26 114.3 348.57 114.3" style="fill:#fff"/><polygon points="367.03 102.98 366.13 102.87 365.31 103.35 361.86 106.69 360.31 107.75 286.44 181.61 287.88 183 367.65 103.23 367.03 102.98" style="fill:#fff"/><polygon points="378.66 97.73 378.01 98.13 376.5 100.12 375.15 101.18 373.67 102.14 372.32 102.73 289.99 185.06 291.42 186.46 380.97 96.91 378.66 97.73" style="fill:#fff"/><polygon points="391.44 93.43 390.99 92.73 390.27 92.11 390.04 92.01 293.53 188.52 294.58 189.54 294.97 189.91 391.44 93.44 391.44 93.43" style="fill:#fff"/><polygon points="394.85 94.2 297.08 191.97 298.1 192.96 298.6 193.28 396.75 95.13 394.85 94.2" style="fill:#fff"/><polygon points="401.87 96.66 400.12 96.15 399.93 96.13 301.39 194.66 303.49 195.38 402.11 96.77 401.87 96.66" style="fill:#fff"/><polygon points="406.38 97.14 405.8 97.25 306.57 196.48 308.53 197.18 308.65 197.22 409.76 96.11 406.38 97.14" style="fill:#fff"/><polygon points="412.81 97.24 311.75 198.3 312.97 198.72 313.84 199.04 414.14 98.73 412.81 97.24" style="fill:#fff"/><polygon points="418.09 101.48 416.33 100.78 416.3 100.75 316.92 200.13 317.41 200.31 319.01 200.87 418.37 101.51 418.09 101.48" style="fill:#fff"/><polygon points="426.01 99.86 424.63 100.85 423.74 101.22 422.52 101.53 322.08 201.97 324.18 202.7 427.23 99.65 426.01 99.86" style="fill:#fff"/><polygon points="440.81 93.03 438.82 94.68 434.37 96.85 433.01 98.05 327.26 203.78 329.35 204.53 440.89 92.99 440.81 93.03" style="fill:#fff"/><polygon points="458.85 80.65 458.2 81.09 456.44 83.07 453.93 85.28 450.18 88.32 449.45 88.6 332.44 205.61 334.54 206.34 460.86 80.02 458.85 80.65" style="fill:#fff"/><polygon points="471.77 75.25 470.18 74.99 470.03 75.02 337.62 207.43 339.58 208.13 339.71 208.17 472.95 74.93 471.77 75.25" style="fill:#fff"/><polygon points="476.8 75.25 342.8 209.25 344.03 209.67 344.89 209.98 478.63 76.25 476.8 75.25" style="fill:#fff"/><polygon points="481.31 77.74 347.96 211.09 348.43 211.25 350.06 211.82 483.13 78.74 481.31 77.74" style="fill:#fff"/><polygon points="488.36 77.93 487.83 78.22 353.15 212.9 355.24 213.64 491 77.88 488.36 77.93" style="fill:#fff"/><polygon points="497.49 78.22 495.17 77.88 358.32 214.73 360.4 215.47 497.67 78.21 497.49 78.22" style="fill:#fff"/><polygon points="502.15 77.9 363.49 216.56 365.58 217.29 505.18 77.7 502.15 77.9" style="fill:#fff"/><polygon points="518.83 69.66 517.32 70.03 516.73 70.39 516.08 71.13 515.91 71.46 515.84 71.86 515.7 72.27 515.39 72.64 514.87 72.93 514.03 73.02 368.66 218.39 370.61 219.08 370.75 219.13 520.38 69.5 518.83 69.66" style="fill:#fff"/><polygon points="526.37 67.68 373.85 220.2 375.05 220.62 375.93 220.94 529.11 67.77 526.37 67.68" style="fill:#fff"/><polygon points="533.81 67.24 378.99 222.06 379.28 222.16 381.07 222.81 536.08 67.8 533.81 67.24" style="fill:#fff"/><polygon points="540.35 69.84 539.02 69.03 384.14 223.91 386.23 224.65 540.86 70.02 540.35 69.84" style="fill:#fff"/><polygon points="545.55 71.53 544.79 71.39 543.96 71.09 389.3 225.75 391.37 226.51 546.34 71.53 545.55 71.53" style="fill:#fff"/><polygon points="547.31 74.74 394.44 227.61 396.15 228.23 396.52 228.36 547.31 77.57 547.31 74.74" style="fill:#fff"/><polygon points="547.31 83.69 547.31 81.74 399.6 229.45 400.39 229.73 401.67 230.2 547.31 84.57 547.31 83.69" style="fill:#fff"/><polygon points="547.31 89.79 547.31 88.74 404.73 231.32 406.81 232.07 547.31 91.57 547.31 89.79" style="fill:#fff"/><polygon points="547.31 95.89 547.31 95.74 409.89 233.16 411.98 233.9 547.31 98.57 547.31 95.89" style="fill:#fff"/><polygon points="547.31 102.74 415.04 235.01 417.11 235.77 547.31 105.57 547.31 102.74" style="fill:#fff"/><polygon points="547.31 109.74 420.18 236.87 421.5 237.34 422.27 237.61 547.31 112.57 547.31 109.74" style="fill:#fff"/><polygon points="547.31 116.74 425.34 238.71 425.73 238.84 427.42 239.46 547.31 119.57 547.31 116.74" style="fill:#fff"/><polygon points="547.31 126.39 547.31 123.74 430.47 240.58 432.56 241.32 547.31 126.57 547.31 126.39" style="fill:#fff"/><polygon points="547.31 132.45 547.31 130.74 435.63 242.41 437.72 243.16 547.31 133.57 547.31 132.45" style="fill:#fff"/><polygon points="547.31 138.55 547.31 137.74 440.78 244.27 442.6 244.94 442.85 245.03 547.31 140.57 547.31 138.55" style="fill:#fff"/><polygon points="547.31 144.74 445.9 246.15 447.74 247.13 547.31 147.57 547.31 144.74" style="fill:#fff"/><polygon points="547.31 151.74 451.39 247.66 453.21 247.66 454.22 247.66 547.31 154.57 547.31 151.74" style="fill:#fff"/><polygon points="547.31 158.74 458.39 247.66 460.37 247.66 461.22 247.66 547.31 161.57 547.31 158.74" style="fill:#fff"/><polygon points="547.31 165.74 465.39 247.66 468.19 247.66 468.22 247.66 547.31 168.57 547.31 165.74" style="fill:#fff"/><polygon points="538.25 183.74 541.28 178.85 541.41 178.64 472.39 247.66 475.22 247.66 536.87 186.01 538.25 183.74" style="fill:#fff"/><polygon points="526.2 203.43 529.2 198.5 530.24 196.81 479.39 247.66 482.22 247.66 525.8 204.07 526.2 203.43" style="fill:#fff"/><polygon points="517.15 218.16 519.16 214.89 486.39 247.66 489.22 247.66 514.63 222.25 517.15 218.16" style="fill:#fff"/><polygon points="505.06 237.81 507.9 233.15 493.39 247.66 496.22 247.66 503.46 240.42 505.06 237.81" style="fill:#fff"/></svg>