<?xml version="1.0" encoding="UTF-8"?><svg id="Layer_1" xmlns="http://www.w3.org/2000/svg" viewBox="0 0 800 800"><g><path d="M349.49,364.72c-1.97,0-3.76-.99-4.82-2.56-.21-.18-.41-.38-.6-.6l-.14-.16c-.92-1.06-1.42-2.41-1.42-3.81v-.17c0-3.22,2.61-5.82,5.82-5.82,1.09,0,2.21,.31,3.13,.88l.48,.3c.29,.18,.57,.39,.83,.62,.23,.17,.46,.35,.66,.55,.02,.02,.05,.04,.07,.06,1.29,1.11,2.11,2.79,2.11,4.49v.33c0,3.22-2.61,5.89-5.82,5.89h-.31Z" style="fill:#efc441;"/><path d="M348.39,357.42l.48,.3,.12,.14,.04,.1h-.19l-.16-.06-.2-.14-.14-.16v-.17h.05m.66,.53l.06,.06,.1,.06v.06s-.08,.03-.08,.03l-.05-.1-.05-.12h.03m.32,.16l.06,.08v.08h-.17l-.04-.15,.08-.02h.06m.36,.33l.07,.06v.39h-.31l-.06-.19v-.21l.12-.05h.18m-1.33-12.66h-.05c-6.43,0-11.65,5.22-11.65,11.65v.17c0,2.8,1.01,5.51,2.85,7.63l.14,.16c.2,.23,.41,.45,.62,.66,2.16,2.78,5.53,4.5,9.2,4.5h.31c6.43,0,11.65-5.22,11.65-11.65v-.39c0-3.4-1.48-6.63-4.06-8.84-.34-.32-.7-.62-1.07-.9-.41-.34-.84-.65-1.3-.94l-.48-.3c-1.85-1.15-3.98-1.76-6.15-1.76h0Z" style="fill:#cae3e8;"/></g><g><path d="M348.7,364.19c-1.14,0-2.28-.33-3.27-1-1.26-.85-2.1-2.14-2.42-3.55-.41-1.22-.41-2.57,.05-3.83,.44-1.21,1.25-2.2,2.27-2.87,1.01-.8,2.27-1.27,3.63-1.27h0c1.33,0,2.58,.45,3.57,1.23,1.05,.67,1.88,1.68,2.33,2.91,.46,1.27,.46,2.62,.05,3.84-.31,1.4-1.14,2.67-2.38,3.52-1,.69-2.15,1.03-3.31,1.03-.09,0-.18,0-.27,0-.09,0-.18,0-.27,0Z" style="fill:#efc441;"/><path d="M348.97,357.48l.1,.31h.34l-.26,.22,.11,.35-.28-.21-.26,.21,.11-.35-.26-.22h.33l.1-.31m.43,.31h0m-.44-11.96h0c-2.61,0-5.07,.87-7.05,2.37-1.94,1.34-3.47,3.27-4.32,5.59-.89,2.43-.92,5.02-.2,7.39,.68,2.72,2.33,5.17,4.77,6.82,1.98,1.34,4.26,2,6.53,2,.09,0,.18,0,.27,0,.09,0,.18,0,.27,0,2.31,0,4.63-.69,6.62-2.07,2.36-1.63,3.96-4.01,4.65-6.65,.35-1.11,.54-2.28,.54-3.5,0-4.05-2.07-7.62-5.21-9.71-1.95-1.43-4.34-2.25-6.88-2.25h0Z" style="fill:#cae3e8;"/></g><g><path d="M725.11,621.56c-.25,0-.5-.02-.75-.05l-.49-.06c-.54-.07-1.07-.22-1.57-.43l-.49-.21c-.43-.19-.83-.42-1.21-.71l-.82-.4c-.25-.12-.49-.26-.71-.41l-1.33-.9c-.93-.63-1.67-1.52-2.11-2.56l-.38-.9c-1.25-2.95,.11-6.35,3.05-7.62l1.42-.61c.73-.32,1.52-.48,2.31-.48,.08,0,.17,0,.25,0l2.2,.1c1.2,.05,2.31,.47,3.21,1.13,.38-.08,.77-.13,1.16-.13,0,0,4.52-.06,4.55-.06,1.53,0,3,.6,4.09,1.68,1.11,1.09,1.74,2.59,1.74,4.15v.52c0,.94-.23,1.87-.66,2.7-.06,.26-.13,.51-.23,.76l-.22,.59c-.83,2.22-2.93,3.71-5.3,3.77,0,0-3.01,.08-3.06,.08-.57,0-1.14-.08-1.69-.25l-.39-.12c-.42,.16-.87,.27-1.33,.33l-.52,.06c-.24,.03-.47,.04-.71,.04Zm33.98-30.2c-.41,0-.82-.04-1.23-.13l-1.62-.35c-1.21-.26-2.31-.91-3.13-1.84l-1.13-1.28c-.81-.92-1.31-2.07-1.43-3.29l-.16-1.62c-.16-1.63,.37-3.25,1.47-4.47l1.24-1.38c.86-.95,2.01-1.6,3.27-1.83l1.65-.31c.35-.07,.71-.1,1.06-.1,.56,0,1.12,.08,1.67,.24l1.52,.46c.49,.15,.96,.36,1.4,.63l3.02,1.86c1.51,.94,2.52,2.51,2.72,4.28,.21,1.77-.41,3.53-1.67,4.79l-1.06,1.06c-.19,.2-.4,.38-.62,.54l-1.06,.79c-.35,.26-.72,.48-1.12,.66l-1.17,.52c-.4,.18-.82,.31-1.25,.4l-1.24,.24c-.37,.07-.75,.11-1.12,.11Zm16.51-42.25c-1.36,0-2.67-.47-3.71-1.33l-1.18-.65-5.49-1.65c-1.25-.38-2.33-1.16-3.08-2.23l-1.33-1.9c-1.18-1.67-1.39-3.84-.56-5.71l.17-.38c.08-.19,.18-.37,.28-.55l.06-.1c.13-.88,.46-1.72,.97-2.45l.36-.52c.75-1.09,1.85-1.88,3.11-2.26l.77-.23c.54-.16,1.11-.25,1.68-.25h4.83c.42,0,.83,.04,1.24,.13l1.69,.37c.86,.19,1.67,.57,2.36,1.12l1.45,1.14c1.83,1.44,2.62,3.83,2.02,6.08l-.11,.43c.12,.28,.23,.58,.3,.88l.13,.49c.23,.88,.25,1.8,.06,2.69l-.2,.92v.14c0,2.64-1.77,4.95-4.32,5.63-.5,.13-1,.2-1.5,.2Zm-8.79-50.36l-1.32-.07c-.89-.05-1.75-.3-2.52-.73l-1.23-.69c-.51-.29-.97-.65-1.37-1.07l-1.01-1.06c-.36-.38-.66-.8-.91-1.26l-.61-1.14c-1.11-2.07-.87-4.61,.61-6.43l1.65-2.03c.51-.63,1.16-1.15,1.88-1.52l.9-.46c.83-.42,1.73-.63,2.63-.63,.84,0,1.69,.18,2.47,.55l.97,.46c1.16,.54,2.1,1.45,2.69,2.58l.03,.06c1.81,.41,3.34,1.67,4.08,3.43,.91,2.17,.42,4.67-1.23,6.34l-.75,.76c-.34,.34-.72,.64-1.13,.89l-.8,.49c-.25,.15-.5,.28-.77,.39l-1.69,.71c-.71,.3-1.48,.45-2.25,.45-.11,0-.22,0-.33,0Zm-11.01-52.68c-.96,0-1.89-.24-2.71-.67-.31-.1-.61-.23-.91-.38l-.78-.41c-.34-.18-.65-.39-.95-.62l-1.56-1.26c-1.34-1.08-2.13-2.7-2.16-4.42-.03-1.72,.7-3.37,2-4.5l.91-.79c1.07-.93,2.43-1.43,3.83-1.43,.25,0,.5,.02,.75,.05l1.06,.14c1.08,.14,2.1,.58,2.94,1.27l1.06,.87c.44,.36,.82,.78,1.13,1.24l.84,1.24c1.21,1.79,1.33,4.09,.32,5.99-.36,.68-.85,1.27-1.42,1.75-1.09,1.22-2.66,1.94-4.33,1.95h-.01Zm-72.08-26.05c-.14,0-.27,0-.41-.01l-1.06-.07c-2.51-.18-4.62-1.94-5.24-4.38l-.2-.79c-.57-2.25,.25-4.61,2.08-6.03l.94-.73c1.02-.79,2.28-1.22,3.57-1.22,.14,0,.27,0,.41,.01l1.06,.07c2.7,.19,4.92,2.22,5.34,4.89l.13,.79c.32,2.02-.44,4.06-2,5.38l-.87,.73c-1.05,.89-2.38,1.37-3.75,1.37Zm48.38-.11c-.45,0-.89-.05-1.33-.15l-1.49-.35c-.87-.21-1.69-.61-2.38-1.18l-.55-.46c-1.04-.86-1.74-2.04-2-3.36l-.19-.96c-.24-1.2-.09-2.45,.42-3.57l.32-.69c.45-.98,1.17-1.82,2.07-2.42l.85-.56c.39-.26,.81-.47,1.25-.63l.94-.34c.31-.11,.64-.2,.96-.26l.78-.14c.33-.06,.67-.09,1.01-.09,.51,0,1.01,.07,1.5,.2l.75,.2c.37,.1,.72,.23,1.06,.4l1.06,.52c.42,.21,.82,.47,1.18,.77l.87,.73c1.19,1,1.93,2.43,2.05,3.97l.06,.76c.16,1.86-.59,3.68-2.01,4.9l-.68,.58c-.68,.58-1.48,1-2.34,1.22l-2.72,.7c-.47,.12-.96,.18-1.45,.18Zm-19.14-28.93c-1.28,0-2.57-.42-3.64-1.28l-.65-.52c-.38-.3-.71-.65-1-1.04l-.69-.92-.11-.11c-1.98-2.03-2.2-5.2-.53-7.49l.77-1.06c.73-1.01,1.77-1.75,2.96-2.12l.97-.31c.57-.18,1.16-.27,1.75-.27,.36,0,.73,.03,1.09,.1l1.06,.2c.7,.13,1.37,.39,1.98,.77l1.06,.66c1.71,1.06,2.76,2.93,2.76,4.95v.51c0,1.88-.9,3.62-2.39,4.7-.11,.16-.23,.32-.36,.47l-.58,.69c-1.15,1.36-2.79,2.06-4.45,2.06Z" style="fill:#efc441;"/><path d="M712.79,381.69l1.06,.2,1.06,.66v.51l-.71,.35-.66,1.06-.58,.69-.65-.52-.91-1.21-.36-.37,.77-1.06,.97-.31m19.96,28.9l.75,.2,1.06,.52,.87,.73,.06,.76-.68,.58-2.72,.7-1.49-.35-.55-.46-.19-.96,.32-.69,.85-.56,.94-.34,.78-.14m-49.36,2l1.06,.07,.13,.79-.87,.73-1.06-.07-.2-.79,.94-.73m70.07,24.8l1.06,.14,1.06,.87,.84,1.24h-.22l-.13,.14-.1,.17-.18,.3-.32-.52-.58,.14-.78-.41-1.56-1.26,.91-.79m12.05,50.09l.97,.46,.23,.44,.41,1.45,.36,.59,.65,.41,.72,.14h1.52l-.75,.76-.8,.49-1.69,.71-1.32-.07-1.23-.69-1.01-1.06-.61-1.14,1.65-2.03,.9-.46m6.96,47.24l1.69,.37,1.45,1.14-.67,2.49,.22,.58,.62,1.21,.13,.49-.33,1.52v.76l-.16-.28-.16-.11h-.17l-2.12-1.18-6.09-1.83-1.33-1.9,.17-.38,.32-.55,.33-.73,.13-.87,.36-.52,.77-.23h4.83m-13.41,45.88l1.52,.46,3.02,1.86-1.06,1.06-1.06,.79-1.16,.52-1.24,.24-1.62-.35-1.13-1.28-.16-1.62,1.24-1.38,1.65-.31m-37.04,31.44l2.2,.1v.52l.1,.42,.26,.75,.1,.8,.23,.66,.71,.38-.52,.06-.49-.06-.49-.21-.46-.35-1.36-.66-1.33-.9-.38-.9,1.42-.61m11.37,1.04v.52l-.41,.66-.11,.75-.22,.59-2.91,.07-.94-.29-.88-.72,.13-.87,.33-.44,.55-.21,4.47-.06m-20.61-243.03c-1.18,0-2.36,.18-3.5,.54l-.97,.31c-2.37,.75-4.44,2.23-5.91,4.24l-.77,1.06c-3.3,4.52-2.91,10.74,.9,14.82l.48,.64c.58,.77,1.25,1.46,2,2.07l.65,.52c2.15,1.73,4.73,2.57,7.29,2.57,3.31,0,6.6-1.41,8.9-4.12l.58-.69s.08-.1,.12-.15c2.51-2.18,4-5.37,4-8.79v-.51c0-4.03-2.08-7.78-5.51-9.9l-1.06-.66c-1.22-.75-2.56-1.28-3.96-1.54l-1.06-.2c-.72-.14-1.45-.2-2.17-.2h0Zm19.96,28.9c-.67,0-1.35,.06-2.02,.18l-.78,.14c-.66,.12-1.3,.29-1.93,.51l-.94,.34c-.88,.32-1.71,.74-2.49,1.25l-.85,.56c-1.8,1.19-3.24,2.87-4.14,4.83l-.32,.69c-1.03,2.23-1.33,4.73-.85,7.14l.19,.96c.52,2.63,1.94,5.01,4,6.72l.55,.46c1.39,1.15,3.02,1.96,4.77,2.37l1.49,.35c.87,.2,1.76,.31,2.65,.31,.97,0,1.95-.12,2.9-.37l2.72-.7c1.73-.44,3.34-1.28,4.69-2.45l.68-.58c2.83-2.43,4.33-6.08,4.02-9.8l-.06-.76c-.26-3.09-1.74-5.95-4.11-7.95l-.87-.73c-.73-.61-1.52-1.13-2.37-1.55l-1.06-.52c-.68-.33-1.39-.6-2.11-.79l-.75-.2c-.98-.26-2-.4-3.01-.4h0Zm-49.36,2c-2.58,0-5.09,.85-7.14,2.44l-.94,.73c-3.66,2.84-5.29,7.58-4.15,12.07l.2,.79c1.24,4.88,5.46,8.41,10.48,8.76l1.06,.07c.27,.02,.54,.03,.81,.03,2.74,0,5.39-.96,7.5-2.74l.87-.73c3.13-2.63,4.65-6.71,4-10.75l-.13-.79c-.86-5.35-5.29-9.4-10.69-9.78l-1.06-.07c-.27-.02-.54-.03-.81-.03h0Zm70.07,24.8c-2.8,0-5.52,1.01-7.66,2.87l-.91,.79c-2.59,2.26-4.05,5.55-3.99,8.99,.06,3.44,1.64,6.68,4.32,8.84l1.56,1.26c.59,.48,1.23,.9,1.9,1.25l.78,.41c.44,.23,.88,.43,1.34,.6,1.54,.73,3.23,1.12,4.99,1.12,0,0,.01,0,.02,0,3.2,0,6.21-1.32,8.38-3.58,1-.9,1.86-1.98,2.51-3.21,2.02-3.8,1.78-8.41-.63-11.98l-.84-1.24c-.63-.94-1.4-1.77-2.27-2.49l-1.06-.87c-1.68-1.38-3.72-2.26-5.88-2.54l-1.06-.14c-.5-.07-1-.1-1.5-.1h0Zm12.05,50.09c-1.8,0-3.61,.42-5.26,1.25l-.9,.46c-1.46,.74-2.75,1.78-3.78,3.05l-1.65,2.03c-2.96,3.65-3.44,8.72-1.22,12.86l.61,1.14c.49,.91,1.1,1.76,1.82,2.51l1.01,1.06c.8,.85,1.73,1.57,2.75,2.14l1.23,.69c1.55,.87,3.27,1.37,5.04,1.47l1.32,.07c.22,.01,.43,.02,.65,.02,1.54,0,3.07-.31,4.5-.9l1.69-.71c.53-.22,1.04-.48,1.53-.78l.8-.49c.82-.5,1.58-1.1,2.26-1.79l.75-.76c3.3-3.34,4.27-8.34,2.45-12.67-1.12-2.68-3.18-4.79-5.69-6-1.09-1.31-2.46-2.37-4.02-3.1l-.97-.46c-1.56-.73-3.25-1.1-4.93-1.1h0Zm6.96,47.24h-4.83c-1.14,0-2.27,.17-3.36,.5l-.77,.23c-2.52,.76-4.71,2.35-6.21,4.51l-.36,.52c-.8,1.15-1.38,2.44-1.73,3.79-.04,.09-.08,.18-.12,.27l-.17,.38c-1.66,3.74-1.24,8.09,1.12,11.44l1.33,1.9c1.5,2.13,3.67,3.7,6.17,4.45l4.89,1.47,.24,.13c1.99,1.47,4.42,2.28,6.92,2.28,1,0,2.01-.13,3.01-.4,4.92-1.32,8.39-5.67,8.62-10.72l.08-.37c.38-1.78,.34-3.63-.12-5.39l-.05-.18c.58-4.07-1.03-8.2-4.32-10.79l-1.45-1.14c-1.38-1.09-3-1.85-4.72-2.23l-1.69-.37c-.82-.18-1.65-.27-2.49-.27h0Zm-13.41,45.88c-.71,0-1.42,.07-2.13,.2l-1.65,.31c-2.52,.47-4.81,1.75-6.53,3.66l-1.24,1.38c-2.19,2.43-3.25,5.67-2.93,8.93l.16,1.62c.24,2.44,1.24,4.74,2.87,6.58l1.13,1.28c1.65,1.86,3.84,3.15,6.27,3.67l1.62,.35c.81,.17,1.63,.26,2.46,.26,.75,0,1.5-.07,2.25-.22l1.24-.24c.86-.17,1.69-.43,2.49-.79l1.16-.52c.8-.35,1.55-.8,2.25-1.32l1.06-.79c.44-.33,.86-.69,1.25-1.08l1.06-1.06c2.52-2.52,3.75-6.05,3.33-9.59-.41-3.54-2.42-6.69-5.45-8.56l-3.02-1.86c-.87-.54-1.81-.96-2.79-1.25l-1.52-.46c-1.09-.32-2.21-.49-3.33-.49h0Zm-37.04,31.44c-1.59,0-3.16,.33-4.63,.96l-1.42,.61c-5.87,2.54-8.59,9.34-6.1,15.23l.38,.9c.88,2.08,2.34,3.85,4.21,5.11l1.33,.9c.46,.31,.94,.59,1.44,.83l.39,.19c.59,.39,1.21,.74,1.86,1.02l.49,.21c1,.44,2.06,.73,3.14,.87l.49,.06c.5,.07,1,.1,1.5,.1,.47,0,.94-.03,1.41-.09l.52-.06c.22-.03,.43-.06,.65-.1,.68,.12,1.37,.18,2.06,.18,.1,0,.2,0,.3,0l2.91-.07c4.75-.12,8.94-3.11,10.61-7.55l.22-.59c.1-.26,.18-.51,.26-.78,.66-1.48,1-3.09,1-4.72v-.52c0-3.12-1.25-6.11-3.47-8.29-2.18-2.15-5.12-3.35-8.18-3.35-.06,0-.11,0-.17,0l-4.27,.06c-1.3-.58-2.73-.93-4.23-.99l-2.2-.1c-.17,0-.34-.01-.5-.01h0Z" style="fill:#cae3e8;"/></g><g><path d="M381.02,302.82c-1.52,0-2.97-.59-4.06-1.65l-.03-.03c-.57-.07-1.13-.23-1.67-.47l-.85-.38c-1.43-.64-2.53-1.83-3.07-3.3-.19-.09-.37-.19-.55-.3l-.72-.44c-1.31-.81-2.25-2.11-2.6-3.61l-.19-.8c-.63-2.64,.65-5.36,3.08-6.56l1.05-.52c.81-.4,1.69-.6,2.58-.6,.44,0,.87,.05,1.31,.15l1.06,.24c1.39,.32,2.61,1.14,3.43,2.29l.57,.18c1.67,.52,3,1.75,3.66,3.34,1.27,.56,2.32,1.56,2.92,2.84l.36,.76c.9,1.91,.7,4.15-.52,5.87l-.39,.55c-1.09,1.53-2.86,2.45-4.74,2.45h-.61Zm-72.09-13.42c-.56,0-1.12-.08-1.66-.24l-.68-.2c-.81-.24-1.56-.66-2.2-1.22l-.55-.49c-.66-.58-1.18-1.31-1.52-2.13l-.32-.76c-.06-.14-.11-.28-.16-.42l-.67-.76c-.33-.16-.64-.35-.94-.57l-1.06-.79c-.21-.15-.4-.32-.59-.5l-1.73-1.69c-.41-.4-.76-.86-1.03-1.36-.11-.14-.21-.28-.31-.42l-.71-1.06c-.76-1.13-1.09-2.48-.96-3.83,0-.02-.21-.7-.21-.7l-.96-1.5-2.42-2.88h-.04c-.48-.15-.95-.34-1.38-.6l-.65-.38c-1.09-.65-1.95-1.63-2.43-2.8,0,0-.27-.66-.29-.7-.26,.04-.53,.05-.8,.05-.21,0-.42-.01-.63-.03l-.68-.07c-.73-.08-1.44-.3-2.08-.64l-.58-.31c-.54-.28-1.03-.65-1.45-1.09l-.82-.84c-.21-.21-.4-.44-.57-.68l-2.25-.92h-.2c-1.53,0-2.98-.6-4.05-1.64-.17,2.16-1.53,4-3.42,4.85-.65,.46-1.39,.78-2.17,.94l-1.18,.24c-.39,.08-.78,.12-1.18,.12h-.52c-.65,0-1.29-.11-1.9-.32l-.58-.2c-1.49-.51-2.67-1.59-3.33-2.95-.93-.99-1.51-2.28-1.59-3.68l-.05-.96c-.09-1.59,.48-3.15,1.57-4.31l.33-.35c.62-.66,1.38-1.16,2.22-1.47,.06-.03,.12-.07,.18-.1l-.26-.2c-.18-.13-.34-.27-.5-.42l-.46-.42c-.27-.25-.52-.53-.74-.83l-.2-.28c-.27-.38-.5-.78-.68-1.2-.07-.02-.15-.03-.22-.05l-.52-.14c-.16-.04-.31-.09-.46-.14-.5,.2-1.03,.32-1.57,.37l-1.95,.19c-.97,.65-2.09,.98-3.24,.98-.41,0-.83-.04-1.24-.13-.43-.09-.84-.23-1.23-.42-.27-.04-.54-.1-.81-.18-1.52-.45-2.78-1.49-3.51-2.9l-.55-1.06c-.51-.98-.72-2.07-.64-3.14l-3.36,.6c-.34,.06-.68,.09-1.02,.09-.18,0-.36,0-.55-.03l-1.32-.12-.58,.04c-.14,0-.27,.01-.41,.01-2.1,0-4.06-1.14-5.09-2.99-.25-.46-.44-.94-.56-1.44l-.03-.03c-1.35-1.3-1.99-3.17-1.73-5.02,0-.01,0-.02,0-.04-.03,0-.06-.02-.08-.03l-.4,.14c-.4,.14-.81,.23-1.23,.28l-1.49,.17c-.22,.02-.44,.04-.66,.04-.47,0-.93-.06-1.38-.17-.81,.41-1.7,.62-2.62,.62-.15,0-.3,0-.45-.02l-.96-.07c-1.66-.13-3.18-.96-4.18-2.28-.42-.55-.74-1.17-.94-1.82-.81-.5-1.5-1.19-1.99-2.03-1-1.72-1.06-3.82-.15-5.59l.42-.83c.66-1.29,1.79-2.29,3.15-2.8l.74-.28c.65-.24,1.34-.36,2.03-.36,.13,0,.26,0,.4,.01l1.7,.12c.8,.05,1.56,.27,2.25,.62l.7-.26c.44-.16,.9-.27,1.37-.32l.97-.11c.21-.02,.42-.03,.63-.03,.38,0,.77,.04,1.14,.11l1.06,.21c.33,.07,.66,.16,.98,.29,.96-.97,2.26-1.6,3.72-1.7l1.06-.07c.13,0,.27-.01,.4-.01,.47,0,.93,.06,1.39,.17l1.29,.32c.29,.07,.58,.17,.86,.28l.91,.38c.55,.23,1.05,.54,1.49,.91l3.73-.1,2.65-.78c.29-.09,.59-.15,.9-.19l1.87-.24c.25-.03,.5-.05,.75-.05,1.41,0,2.77,.51,3.84,1.45,.93,.82,1.57,1.91,1.84,3.1,.28,.07,.55,.16,.82,.27,.58-.44,1.25-.77,1.98-.97l.74-.2c.5-.14,1.01-.2,1.53-.2h.5l.18-.03c.32-.05,.63-.08,.94-.08,1.56,0,3.04,.62,4.13,1.72,.45-.11,.91-.16,1.36-.16,.26,0,.52,.02,.78,.05l1.26,.17c.87,.12,1.68,.42,2.39,.88,.13,0,.27,.01,.4,.03l1.06,.11c.29,.03,.59,.08,.87,.15l2.43,.62c.44,.11,.87,.28,1.27,.49l.8,.42c.2-.02,.4-.03,.59-.03,.35,0,.69,.03,1.04,.09l4.63,.84c.84,.15,1.63,.49,2.31,.96,.39,.16,.76,.36,1.11,.6l.44,.31c.8,.55,1.43,1.28,1.87,2.12,.69,.17,1.34,.46,1.93,.86,.04,0,.08,.02,.12,.03,1.72,.4,3.17,1.56,3.93,3.16l.23,.49c.15,.31,.27,.64,.37,.98,.3,.05,.59,.12,.88,.21l3.07,1c.31,.1,.61,.23,.9,.38l1.46,.76c.47,.24,.9,.55,1.28,.9l.39,.19c1.51,.74,2.63,2.09,3.07,3.71l.17,.62c.09,.34,.15,.69,.18,1.04l.02,.23s.04,.05,.06,.08c1.14,.27,2.18,.88,2.98,1.77,1.02,1.13,1.55,2.61,1.49,4.12,.01,0,.29,.17,.29,.17,.55,.08,1.08,.24,1.59,.48l.46,.21c1.47,.68,2.58,1.94,3.08,3.47l.04,.11c.48,.54,.86,1.17,1.11,1.85,.04,0,.08,0,.12,0,.64,0,1.29,.11,1.91,.32l.52,.18c2.83,.98,4.45,3.95,3.75,6.86l-.19,.79c-.06,.24-.13,.48-.22,.71l-.8,2.12c-.08,.21-.17,.41-.27,.6l.12,.34c.21,.58,.33,1.18,.35,1.79l.02,.6,.11,.05,1.19,.25c2.7,.56,4.63,2.94,4.63,5.7v.54c0,2.27-1.32,4.29-3.3,5.25-.54,.68-1.24,1.23-2.04,1.61l-.42,.2c-.31,.15-.62,.26-.95,.35-.42,1.8-1.69,3.3-3.38,4.02-.84,.76-1.88,1.26-3,1.43-.93,.61-2.03,.94-3.17,.94,0,0-.73,0-.79,0-.77,.36-1.62,.55-2.48,.55h-1.38ZM42.31,199.57c-.64,0-1.28-.1-1.91-.32l-1.01-.35c-1.71-.6-3.05-1.95-3.62-3.68l-.35-1.06c-.41-1.25-.39-2.61,.07-3.85l.35-.94c.85-2.28,3.02-3.8,5.46-3.8h.85c2.13,0,4.09,1.16,5.11,3.03l.68,1.24c.89,1.63,.95,3.58,.17,5.26l-.52,1.11c-.98,2.1-3.07,3.36-5.28,3.36Zm-17.18-6.82c-1.3,0-2.57-.44-3.6-1.24l-.74-.58c-.97-.76-1.68-1.82-2.01-3.01l-.3-1.06c-.33-1.17-.28-2.4,.13-3.54l.33-.91c.73-2.03,2.52-3.49,4.66-3.79l.74-.11c.28-.04,.55-.06,.83-.06,1.95,0,3.79,.98,4.88,2.64l.82,1.25c.62,.95,.95,2.05,.95,3.18v1.34c0,3.05-2.35,5.58-5.39,5.81l-.85,.06c-.15,.01-.29,.02-.44,.02Z" style="fill:#efc441;"/><path d="M25.17,184.27l.82,1.25v1.34l-.85,.06-.74-.58-.3-1.06,.33-.91,.74-.11m16.99,7.13l.68,1.24-.52,1.11-1.01-.35-.35-1.06,.35-.94h.85m190.39,28.39l1.29,.32,.91,.38-.46,.17-.23,.21-.13,.41-.13,.69,9.33-.24,3.38-1,1.87-.24v.56l-2.91,1.42,.32,.52-.32,.9h-.97l1.06,.87,.77,.44,.82,.14h1.13l.42-.06,.8-.35,.39-.06h2.75l2.82,1.62,.46,.07,.3-1.14,.71-.24h.85l.71-.34-.1-.7,.74-.2h.97l.65-.11-.87,1.06,.32,.32h.75l.44,.06v.76l-.48,.52-1.11,.62,.2,.66-.06,.59-.2,.58-.29,.59,1.26-.11,.97-.93,.91-1.22,1.06-1.06,1.06-.52,1.52-.38,1.26,.17,.39,1.21-2.1,1.7-.85,.96,.61,.66,1.06-.21,3.82-2.17-.25-.21-.49-.55-.22-.18,1.01-.28,1.06,.11,2.42,.62,1.3,.69,.32,.28,.1,.73-.58,.87,.13,.75-.22,.62,.22,.41,.49,.14,.55-.2,.17-.52,.19-1.73,.26-.62,1.2-.35,4.63,.84-.35,.52h.94l.55,.11,.44,.31v.53l-.38,.59-.1,.31-.17,.59-.77-.46-.85-.06-.84,.28-.75,.66,1.33,.31,.52,.24-.23,.46-.55,.17h-1.16l-.55,.28,1.2,.69,1.52-.14,2.82-.96,2.76-.49,.38,.38,.42,.69,.55,.41,.74-.58,.23,.49,.06,.24-.06,.28-.23,.48-.71-.52h-.77l-1.43,.55-.68,.46-3.99,2.59-.32,.11-.26,.17-.29,.41,.1,.31,.22,.42,.1,.55-.41,.66,1.2,.14,.94-.11,.84-.34,3.18-2.46,1.24-.38,.71,.76,.58-.59,.68,.32,.39,.83-.22,1.06-.36,.24h-.49l-.42,.14-.16,.59,.13,.38,.3,.2,.16,.32-.26,.76,.46,.66,.1,.75-.19,.73-.36,.73,1.85-1.94,1.06-.55,.8,.31,1.27,2,.8,.9,1.01,.21,.85-.55-.11-.94-.44-1.27-.3-1.34-.16-.52-1.06-1.14-.33-.55-.19-.46-.1-.55v-.83l3.07,1,1.46,.76,.33,1.06,.55-.1h.52l.41,.2,.17,.62,.06,.76,.13,.55-.1,.41-.46,.46,1.43,.93v.31l-.66,.49-.38,1.34,.61,.38,3.89-.14-.13,.9v.93l-.26,.73-.87,.35,.25,.61,.36,.46,.46,.24,.55,.1v.62l.42,.38,.61,.28,.58,.14h.29l.69-.44,.35,.2,.78,.76,1.16-.11,.46,.21,.19,.58,.13,.79,.39,.52,.52,.29-.85,.66-1.06,.72-2.06,2.12,.55,.49,.87,1.06,.52,.35,.75,.14,4.41-.21,.68-.35,1.23-.93,.55-.24,.52,.18-.19,.79-.8,2.12-1.11,1.73-.19,.18,1.13,3.1,.05,1.5-1.3,.1,1.01,1.84,2.04,1.51,2.33,1.06,1.82,.38v.54l-.62,.14-.65,.35-.55,.52-.19,.59-.42,.2-.91-.06-1.56-.35-.93,1.39-1.43,.38-1.56-.29-1.26-.55-2.37-1.56-1.36-.62-1.46-.14,.46,.73,.61,.55,.65,.38,.68,.14,.59,.24,.96,1.21,.58,.52,.49,.24,.52,.14h1.24l.46,.2,.93,.97,.55,.31v.44l-.52,.07h-.52l-.44-.18-.46-.31,.1,.35,.16,.75,.06,.35h-1.36l-.52-.28-.36-.76-.19,.9v.38l.16,.62h-.61l-1.01-.35-.52-.06-.29,.2-.36,.42-.49,.34h-1.38l-.68-.2-.55-.49-.32-.76h.44l.3-.14,.58-.35-1.95-.93-2.12-2.42-.9-.34-1.06-.79-1.73-1.69-.06-1.01-.52,.14-.71-1.06,.16-1.06-.38-1.22-.42-1.45-1.62-2.52-3.57-4.24-.65-.52-.61-.06-.75-.21-.65-.38-.24-.59,.16-.76,.65-.87,.16-.55-.55-.93-1.16-.93-1.23-.69-.77-.29h-1.33l-.52,.21-.94,.96-.68,.18-.68-.07-.58-.31-.82-.84-.52-.79-.71-.68-4.8-1.97h-.36l-.42,.07h-.38l-.17-.28,.07-.32,.22-.79,.06-.11v-.34l.26-.52,.06-.32-.06-.52h-.14l-.22,.07-.26-.21-.71-.76-.87-.44-1.06-.21-.97-.06,.35-.46-.96-.44,.29-.7,.46-.34h.55l.65,.1-1.11-1.25h-1.84l-3.7,.7-.61-.18-1.82-.83-.93-.69-.46-.42-.2-.28v-.48l.23-.62v-.59l-.46-.24-.61-.17-.75-.41-.74-.55-.52-.52-.39-.18-.87,.32-.52-.14-.82-.46-1.06-.28-.84,.07-1.37,.72-2.88,.28-.91,.28-.85,.59-.29-.49-.39-.28h-.46l-.49,.28-.55-1.06,.2-.48,3.56-1.32h.72l-.91-1.06-2.66-.87-.68-1.34h1.97l2.18-.58,3.98-1.8-1.16-.49h-4.34l-1.62,.46-.61-.21-1.11-.66-.58-.14h-4.37l-1.16,.28-.39,.66,.33,.66,1.06,.35-.88,.31-3.7,.66-1.8-.17-1.06,.07,.22-.31,.23-.38,.19-.21-.65-.35-1.65-1.59,1.72-.9,.88-.66,.68-.83-.77-.21-1.62,.14-.88-.38,2.98-1.34,1.43-.96,.82-1.49h-5.68l-2.79,.46-.72-.21-1-.62-.55-.14-2.63,.9-1.49,.17-1.23-.79-.91-.41-1.85,1.66-.96-.07,.13-.66,.22-.61,.36-.46,.58-.17-.22-.56-.23-.31-.32-.14h-.52l.8-.41h2.44l2.46-.9,.97-.11,1.06,.21,1.56,1.01,.8,.2,1.01-.14,1.06-.38,.97-.58,.85-.79v-.62l1.06-.07m-16.39,1.14l1.7,.12-1.84,.9-.52,.11-.51-.02,.42-.83,.74-.28m44.6,2.89h0m45.43,23.86h0m-42.99,6.37l.91,.69,1.45,1.56v.46h-.35l-.2,.17-.19,.21-.22,.17-1.18,.24h-.52l-.58-.2v-.52h.94l-1.95-.93-.05-.96,.33-.35,.52-.17,.38-.25,.71-.11m110.77,35.93l1.06,.24,.33,.59-.11,.52-.58,.41h-.84l-.72-.44-.19-.8,1.05-.52m3.85,2.35l.78,.24,.29,1.06-.49,1.18-.77,.56-.85-.38-.35-1.06,.55-1.01,.84-.59m3.11,3.19l.71,.17,.36,.76-.39,.55h-.61l-.39-.38-.03-.69,.36-.41M25.17,172.62c-.55,0-1.1,.04-1.65,.12l-.74,.11c-4.27,.61-7.85,3.53-9.31,7.58l-.33,.91c-.82,2.28-.91,4.76-.26,7.09l.3,1.06c.67,2.38,2.08,4.49,4.02,6.02l.74,.58c2.06,1.62,4.59,2.49,7.2,2.49,.29,0,.58-.01,.87-.03l.85-.06c1.27-.1,2.48-.39,3.6-.86,1.23,3.17,3.8,5.65,7.03,6.78l1.01,.35c1.26,.44,2.55,.65,3.82,.65,4.41,0,8.6-2.52,10.56-6.72l.52-1.11c1.57-3.36,1.44-7.26-.34-10.52l-.68-1.24c-2.04-3.74-5.96-6.06-10.22-6.06h-.85c-1.65,0-3.25,.35-4.7,.99-.25-.55-.54-1.08-.87-1.58l-.82-1.25c-2.17-3.32-5.86-5.28-9.75-5.28h0Zm207.38,35.52c-.27,0-.54,0-.81,.03l-1.06,.07c-1.61,.11-3.13,.55-4.49,1.25-.66-.12-1.33-.17-2-.17-.42,0-.84,.02-1.26,.07l-.97,.11c-.46,.05-.92,.13-1.37,.23-.62-.15-1.27-.25-1.93-.29l-1.7-.12c-.26-.02-.53-.03-.79-.03-1.38,0-2.76,.25-4.05,.73l-.74,.28c-2.73,1.01-4.98,3.01-6.31,5.6l-.42,.83c-1.81,3.53-1.7,7.75,.3,11.18,.61,1.05,1.38,1.99,2.26,2.79,.3,.58,.66,1.14,1.06,1.66,2.01,2.64,5.06,4.3,8.37,4.55l.96,.07c.3,.02,.6,.03,.89,.03,1.12,0,2.23-.16,3.3-.48,.03,0,.05,0,.08,0,.32,.59,.69,1.15,1.1,1.68,.18,.43,.38,.86,.61,1.27,2.06,3.72,5.97,5.99,10.18,5.99,.27,0,.54,0,.82-.03h.11s.85,.07,.85,.07c.36,.03,.73,.05,1.09,.05,.07,0,.14,0,.21,0l.2,.38c1.46,2.8,3.99,4.89,7.02,5.79,.26,.08,.52,.14,.78,.2,.54,.21,1.1,.37,1.67,.5,.82,.18,1.65,.27,2.48,.27,.3,0,.59-.01,.89-.03-.19,.95-.26,1.92-.2,2.9l.05,.96c.14,2.5,1.07,4.83,2.59,6.7,1.37,2.34,3.56,4.19,6.24,5.12l.58,.2c1.22,.42,2.51,.64,3.8,.64h.52c.79,0,1.59-.08,2.36-.24l1.18-.24c1.38-.29,2.69-.82,3.87-1.57,1.26-.64,2.38-1.5,3.32-2.53,.06,0,.13,.01,.19,.02h.03s.7,.74,.7,.74c.85,.87,1.83,1.61,2.91,2.17l.58,.31c1.06,.56,2.2,.95,3.37,1.16,.9,1.16,2.01,2.14,3.29,2.9l.65,.38c.29,.17,.58,.33,.88,.47l1.23,1.46,.03,.05c.13,2.04,.79,4.03,1.95,5.75l.71,1.06c.1,.15,.2,.29,.3,.43,.5,.82,1.1,1.58,1.8,2.26l1.73,1.69c.37,.36,.76,.7,1.17,1.01l1.06,.79c.07,.05,.15,.11,.22,.16,.68,1.6,1.71,3.04,3.01,4.19l.55,.49c1.27,1.12,2.77,1.96,4.4,2.44l.68,.2c1.08,.32,2.19,.48,3.32,.48h1.38c1.21,0,2.41-.19,3.55-.55,1.76-.04,3.47-.48,5-1.26,1.47-.39,2.84-1.07,4.05-1.99,1.98-1.05,3.6-2.64,4.7-4.56,.96-.53,1.84-1.19,2.61-1.95,3.32-2.08,5.45-5.77,5.45-9.87v-.54c0-4.14-2.18-7.85-5.55-9.92,.09-.29,.18-.58,.25-.88l.19-.79c1.4-5.82-1.85-11.76-7.51-13.72l-.52-.18s-.1-.03-.15-.05c-1.11-2.3-2.96-4.18-5.26-5.33-.87-2.36-2.49-4.36-4.57-5.71-.95-2.89-2.99-5.29-5.7-6.7-.56-.44-1.16-.82-1.79-1.15l-1.46-.76c-.58-.3-1.18-.55-1.8-.75l-1.54-.5c-1.45-2.49-3.78-4.35-6.53-5.22-.16-.09-.32-.17-.48-.25-.67-.8-1.45-1.51-2.32-2.12l-.44-.31c-.51-.35-1.05-.67-1.61-.93-1.23-.76-2.61-1.3-4.08-1.57l-4.63-.84c-.42-.08-.83-.13-1.25-.16-.65-.31-1.33-.55-2.03-.73l-2.42-.62c-.57-.15-1.16-.25-1.75-.31l-.35-.03c-1.03-.47-2.14-.8-3.31-.96l-1.26-.17c-.4-.05-.81-.09-1.21-.1-1.52-.88-3.26-1.43-5.12-1.54-.24-.01-.47-.02-.71-.02s-.46,0-.69,.02c-.3,.02-.6,.05-.89,.09h-.04c-.76,0-1.52,.07-2.27,.22-.25-.27-.52-.52-.79-.77-2.14-1.88-4.88-2.9-7.69-2.9-.5,0-1,.03-1.5,.1l-1.87,.24c-.61,.08-1.21,.21-1.79,.38l-1.91,.56-1.18,.03c-.28-.15-.58-.28-.88-.41l-.91-.38c-.56-.23-1.13-.42-1.72-.57l-1.29-.32c-.91-.22-1.85-.34-2.78-.34h0Zm141.44,70.2c-1.78,0-3.55,.41-5.17,1.21l-1.05,.52c-4.86,2.41-7.42,7.85-6.17,13.12l.19,.8c.7,2.97,2.55,5.55,5.13,7.18,1.21,1.94,2.98,3.49,5.1,4.45l.85,.38c.48,.21,.96,.39,1.45,.54,1.95,1.37,4.28,2.12,6.69,2.12h.61c3.77,0,7.31-1.82,9.49-4.9l.39-.55c2.44-3.43,2.84-7.92,1.04-11.73l-.36-.76c-.88-1.86-2.22-3.43-3.86-4.58-1.26-1.9-3.07-3.41-5.21-4.31-1.5-1.45-3.39-2.48-5.46-2.96l-1.06-.24c-.86-.2-1.74-.3-2.61-.3h0Z" style="fill:#cae3e8;"/></g></svg>