<svg xmlns="http://www.w3.org/2000/svg" viewBox="0 0 800 800"><path d="M412.81,70.93l3,5.8,4.68,9,1,4,2.41,6,8.88,17.12,6.89,17.93,1.17,2,3.58,4.34,1.37,3.67,16.81,23.44,6.47,9.26,7.78,8.45,1.1.88,5.24,6,.27,2.58v3l.62,2.64,3.58,1.91,1,2.06,3,9.41,1.31,2.13,1.58,1,1.31,1.32,4.54,8.82,2.76,3.38,1,1.84.35,2,.68,1.91,4.89,5.22,1.52,4.34,1.38,9.33,1.92,5.14,5.17,7.05.34,1.47-.55,1.47-1,1.33-.55,1.32-.07,1.25.76,3.82.89,11,.9,5.14,3.37,10.36.28,5.07-1.11,4.71L521,315,519.2,320v.22l.55,4.85,1.38,5,.48,5.14L521,345.66l-.55,2.28-3.17,3.75-1.17,2.06-.55,2.42L515.14,371l.34,2,.62,1.1.69.51.48.59.62,4.19.76,3.16.76.59.55.66-.35,1.91-.82,1.1-1,.52-1,.29-1.65,1.4-.07,1.61,2.07,2,1.58,1.69,1.58,1.91,2.07.36,2.55-2,6.4-6.91,1.24-2.05,1.65,1.32.35,2.06.76,2.2.48,2.42-1.59,2.43-3.58,7.13-.27,3.23-1.1,8.38-2.62,7.27.14,4.56-2.62,7.86-2,3.82-.82,1.91.82,2.2.9,1.11.69,1.17-.42,2.65-.2,3.16-.69,4.77-1,2-1.65,2.2-1.58.81-.62-2.13-.62-2.79-1.31-2.14-1.38-.36-.82,2.42,1.37.3.83,1,.34,1.47.14,1.77-.48,1.61-1,.37-1.1.15-.83.81.14.81.13,2.27.42,2.35-1,1.55-.82,1.47.82,1.17.69.66-.14,1.69-2.06.67-1.93,1.17-2.82,2.72-2.34-.07-.56,1.69-.13,2.27-.62,1.18-.69.95.55,1.69.07.67L501.23,490l-1.59,3.38-1.79,2.13-1,2.06-.69,1.32h-1.51l-1.17-.07-1.45.22-1-.07-1.11.51-1.17.15-.07,1.69.76,1.18.14,1.39-.48,1.62-2.27,1.1L485.05,505l-1.18-.88-.75-1-2.69,2.8-1.17,2.27-.41,2.35-.83.59-.48-1.17-1.17-1.33.07,1.18.27,2.42H476l-.35-.8-.41-.15-1,.66-1,.59-.62-.81-.82-2.72.34-2.5.76-3.16.14-1.69-.49-.44-.89,1.33-3.1,5.36-1.38.07-.07-2.42.07-2.35-.69-.08-.82,1.91-.76,2.94-2.48-.29-6.61.07-.41-2.2-.69-1.18-.9,3.31-1,.51-2.34-1-1.1-2-1.24-.15-1.52,1.18v-5.29l-.41-.45-.9.37-.69,1.1-.06,1.84-1.59-1.17-1.31-1.84-1.31-1.1-2.06.8.48-1.69-.89-2.42.41-1-1-3.16-.62-.36-1.17,1-1.24,2v1.32l1.24,2.65.76,3.16.41,1.17.83,1.47,1.65,2.21.28,1.17-.48,1.62.82.07,1.24.52.69.22-.89.59-.9.22h-2l-1.1-.22-.27-.67-.07-.8-.35-.81-1-1-.69-.52L429,505.18l-1.51-.07-3.31.59-.89.44.06.88,1.18,1.62-1.93.36-3.45,1.77-3.92,1-.55,1.54-.14,1.69-1.1,1.1v.81l10.05-5.29,1.72-.07.35,2.13.55,1.54.21,1.4-.76,1.61-1.31.74-2,.29-1.93-.07-1.3-.52-.69,1.18.48.59.89.51.69,1,.07.66.07.88-.14,2.5-.75,5,.89.88.9-.29.68-1,.35-1.17,1.38,1.54-1.45,2.5-2.55,3.3-2.2.66-3-.22.07-1.83,1.93-.08.82-.14.48-.81-6.26-.66-1.31-.52-1.45-2-.2-1,1-.59,2.34-.95-2.27-4.56-1.65,1.62-1.66,3.16-2.34.22L402,526.27l-1.1-.73-2.28-.22-1,.58-.55,1.47-.21,1.91.07,1.77-2.13-.37-4.69.22-1.86-1-.2-.66v-1.76l-.14-.44-.41-.15-1.17.22-1.45-.37-2.34-.14-.83-.52-.48-.95.07-1,.21-.88.2-.81-.2-9,.2-1.47.28-.66.55-.88.41-1.17.14-1.47-1.58,1.83-1.31,2.21-1.59,1.61-2.41.22L378,518l-1.31.81L374,518.7l-2.62,1.62-1-2.87-.69-1.24-1.1-.81-.28,3.89-1.1,3.09-2.13,1.91-2.69.22-1-.44-1-.22-.82.07-.55.59-1.52-1.25-1-.29-.69-.15h-4.06l-1.38-.22-.55-.59-.21-1-.62-1.18L347.8,519l-.27,1,.2,1.4.21.66-.76,2.28-.34.73-1,1-3.78,3.09L340,530l-1.51-1.25-1.86-3.89-1.59-.59-1.1,1.54-.55,2.43.14,2,.89,2.13,1.59,2.8,1.79,2.42,1.58,1,1.1,1.4,1.11.51,1.24-.73,3.09-2.94,2.14-.3,1.86.37,1.72.15,1.93-1-.14,2.42-.34,1.69-1,3.38-1.17,6.1-.83,1.4-3.51,1.17-2.82-1.39-2.27-.44-1.79,4-.62-.36h-.14l-.14.22-.48.14.76,1.62.62,1.69.69,5.44-.42,1-1.1-.59-1.58-1.76-2.41-.3-1.79-.95-1.17-1.77-.49-2.72.62-2.57,1.31-2.57.9-2.35-.42-2.06-.82-1.17L331.41,542l-.41-.3h-.62l-.55-.07-.48-.52-.07-.66.2-.73.28-.44-1.51-3.16-.28-1.25.07-.66.48-1.18.07-.66-.21-.66-.48-.51-.48-.23-.21.52-.34.29-1.72,4.34-.69.88-.35.29-.48.08-3.44,1.17-2,.22-4.34-.07-1.65.44,1.38,1.1,2.55,1.11,2.13.66v.73l-4.27,1.4-2.13,1.17-.42,1.69.9.66,1.86-.73,1,.44.69,1.1-.21.44-.55.15-.27.29,1.44,4.85,2.89,2.58,3.17,2.05,2.14,3-1-.15H321.7l-.75.15,4.33,1.69.56,1.32.27,2.57-.89.88-1,.88-2-.07-1.24.29-4.55-2.86-1.51-.44-1.31.22-1.59.73-1.37,1-.55.88.2.37,1.17,2.57,1.45.3.83.51,3.85-1,2.07,1.76-4.75,4.33-1.73,2.43-1.79-.88-3,2.2.35,2.13,1.31,1.4h-2.83l-4.13-5.37-1.38-2.93L298,572.78l-1.17.22-4,2.14.41,1.24.28.45-1.58-.59-1.59-.3-1.38-.66-1-1.76-.07-1.76.62-1,2.21-1.33.75-.66,2-2.64,1.31-2.65.69-.88,1.44-.73-.07,2-.48,2-1.51,3.52,3-.22,2.48-.88,1.44-2v-3.6l-.62-1.4-.75-.81-.62-1-.07-1.84.55-1,2.89-3.16,1,.51.69.74.21.95-.55,1.18.62,1.54.82,1.1,1.17.44,1.59-.59.62-.88,1.38-2.94.75-1.25-1.37-2-.56-2.13-.68-1-1.93,1.47-2.21,1-1.79-1.54-2.48-4L299,548.39l-2,5.14-1.44,1.69-1.45.59-1.24-.07-2.48-.52-1.17.44-1.1,1L286.24,559l-.83.66-3.65,2.14-2,1.54-1.31.73-1.17.3-.76.44-.21.95.07,1.33-.2,1.47-.69.95-.9,1.1-.48,1.33.76,1.54L269.3,579l.21,5-1,.81-2.68-1.32-.83,1.1-.41,1.18V587l.55,1.46-1.24-.44-2.83-2-3.85-1.1-.9-.59-.82-2.28.41-6.17-.34-2.35.55-1.54-.14-1.84-.69-1.62-1.1-.88-1.1.29L252,569l-.82,1.33-.35,1.17.42,1.69.62,1.47.07,1-3.1,1,.34,1.47,2.27,2.79-3.85,2.28-1.45,1.32,1.52.59.34.22.07.59-.07.66-.34.22-.62-.15-1-.51-.48-.15-1.31.22-.27.51v1l-.55,1.18-.76.51-3,.73-1.17,1-.35.81L235.76,600l-.2,1.18v1.4l-2.48-.52-4.62,1.47-1.17-.22-.13-1.4,1-2.93-.21-1.4-.89-.74-1.31-.29-2.62.15V596l.55-.73.21-.44.14-1.91.34-.08.48.15.42-.29,1.44-2.58.28-1.24-.41-1.25-.49-.37-.75-.22-1.45-.22-1.1-.3-.14-.66.28-.58.2-.15.07-1.54.35-1.55-.14-.81-1.65.59.48-2.94,2-1.47,2.69-.51,2.48-.07-.48-1-.62-.66-.76-.52-1-.36,1.58-1.11,1-1.24V570.8l-1.24-.66-.41.22-1,1.1-.62.44h-.83l-1.31-.81-.69-.07-.62.59-.41.81-.34,1.1-.9.22-.83-.07-1-.15-2.2.07-1.17.15-1.45.59-.21-1.91-.89-1.11-2.34-1.17v-.37l-.49-.95-.62-.59-.27.73-.28.44-.75.44-.83.15-.62-.22-2.07-2-.27-.15-.35-1.18.21-.36.35-.15.41-.66.41.51h1l.69-.51-.41-1.25-2.69-1.32-2.06-1.55-.21-3.45.9-3.89,1-2.72.14-1-.07-1.1.14-.95.82-.37.76.07.76.22.62.37.62,1.47,3.1,4.55-1,1.25-.27,1.25.13,1.25.35,1.32,2.06,5.81,1.24.73,5,.81,2.14,1.47,1.1-.07.82-2.13-1.1.14-.62-.29-2.06-.44-1-1.54-1.31-1.25.42-2.79-1.38.22-.62,1.76-1,.07-.62-2.28-.35-3,.76-1.69-.55-2.13,2.75-.29,4.2.88.56,1L220.2,556v1l.21.73,1.1.66.55.81,1.31.88,1.86.74,1,1,1.45,1,1,.67.48-.52-2.13-2.79,1.24-.29,1.86,1.1,2.41,1.32,2.89.88,2.13-.51-2.13-.37-1.72-1.1-3-2.65.75-.88-2.2-1.54L226,552l-1.79-.88-2.54-.52-3,.22-2.07-1.32-2.48.66-2.34-.73-.35-1.18,1.45-1.76,1.45-.59,3,.44,3.85-1.69,4.62,3.38,1.51-.29.42.22.2.29.28.22.48.15-.41-2.35.2-2.13,1.17-1.55,2.48-.58,4.62,1.32,2.34.22-.69-1.54,1.51-.81.83-.15,1.1.07-1.51-1.76L238,539l-5.24.44.42-1.17-.14-.81-.28-.81v-1.25l.35-.8.55-.59.41-.74.07-1.32-.83-1.76-1.37-.44-1.52.73-1.1,1.47-.14,1,.69,2.06.14,1.1-.14.15-1.24,2.42-1.1,4.11-1,1.4-2.07.22v-.29l-.62-.52.41-.58.55-1.33.42-.59-1.38-.73-.9.44-.89.74-1.31.44-2.68-.59-.83.37L217,543h-1.37l-2.14.73-1.1-.59-.35-1.25.76-1.25,2.07-2,.76-1.1.41-.88.14-.89.07-1-.28-1.76.34-.89,1.31-1.17-1.31-1-1-2.05-.62-2.36.21-2,1.38-1.32,1.92-1.25.55-1.1-2.47-.59-1.18.22-.68.59-.56.58-.75.3-1,.44.14,1.25.48,1.39.07,1.11-1.44,1.25-1.79.14-1.8-.58-1.23-.81,1-.66.41-.15-.89-.66-.76-.74-.62-.88-.48-1.1,1.17-.59h1.1l2.55.59-.35-2.65,2.83-2.72-.76-2.57-2.82-4-1.79-1.62-1.93-.59.82,2.72-.68,1.54-1.45.08-1.45-1.84,1-1.32-2.62-3.38-.34-2.06,1.44-1.69,2.07-.22,1.79.88.83,1.91,1.3-.81.69-1.39.83-2.72.69,1.32.14,1.18-.28,2.27-.41,1.11-.14.73.21.74h.34l.48-.22.35.22.41,1.61.07.66.34.44,1.24.74,1,.29,1.72.08.76.44-.62,1.39.2,1.33.69,1.25,1.1,1.1,2.48-5.73.28-1.91v-2.21l-.55-.73L218,504.3l-.83-.44-.62-.66-1-2.72-3.31-3.82-.76-1.76.21-.59.48-.52.49-.66.2-1.1-1.1-.73-.48-1,.2-1.69-1.3.52-1.31.22H206l1.1-1.4,1.86-.37,2.06-.14,1.86-.45-.62-.22-.27-.29-.42-.22-.75-.15.48-1.1.55-.66.69-.51.62-.67.34-.95-.14-.81-.34-.73-.14-.89.35-1.83.89-1.91,2.21-3.31.55.59,1.51,1.91,1.72.51.9-.07-.21-.88-3.3-3.75-.49-1.32.69-2.87,1.72-3.53,2.76-6.31,2.27-3.31,3.31-1.1,3.71-.81,3.24-.15,1.45-1.17,1.44-2,2-.51,1.79,2,1.86,2.21,1.31.44-1.31-4.56-.89-2.06-1.52-.88-14.32,2.35-5-3.08.34-3.31.07-1.25,2.34-1.17,2.07-2.06,1.86-2.13,3-1.77,3.72-2,2.82-3.89.41-3.6,1.59-1,1.1-.66.62-.59,3.58-.29,3.58.36,2.2,1.77,1.59.37,1.1,1.83.41-1,.35-1.32.13-1.47-1.3-1-1-.66-1.93-.95-2.13-1.47-1.79-1.33-1-.51.28-1,.83-1.1.82-.74,1-.14,5.58.29,1.23-.07.9-.44.62-1.11.28-1,.48-.59,1.37-.22.42-.44-.48-.88-1.11-.88-1.17-.44-.34.22-7.37,2.94-2.48.14-4.89-.29-4.82-.37-.07-2.13-.27-2.94-.9-.73-3-1-4.4.66-.49-3.67,9.16-1,5-.66,5-.29,1.58-1,1.72.51,2.14-1.1,3.72-2.72,4.68-1.83,2-1.47.2-1.77L256.56,390l-2.07.59L252.43,392l-1.65,1.62-1.93.88-2.21.37-2.13,1L243,395l-.48-.88-.2-1.1-.49-1.55-.89-1.32-1.65-2.2-.9-1.47,1.38-1.18-.69-.73-1.38-.59-1.24-.37-2.27-4-1.79-.73-1.31.73h-.69v-1.32l-2.27-1.4-2,.3-.62,2.28-.34.8-.69-.66.41-3.52,3.45-1.77,3-.88,4.2,1.18L234,372.26l-.82-.95-1.11-.81-.69-.15-.82.44-.55-.29-.76-.81-.62-.88,2.14-5.73,1.17-2.5,1.51-1-1.1-1.32L228.12,357l-1.58-.81,1.51-1.4,4.48-1,1-1.33-.69-1.61-1.58-.37-3.31-.07-.69-.45-1.17-1.46-.82-.67V347h1.31l-1.52-2.8,1.86-.95,2.07-.66,1.92-2.8,4.14-1.1,2-1h-5.92l-1.38.81-2.2,3.16-1.58.3-1-1.18-1-2.28-.55-2.35.07-1.4,2.06-2.35,1-1.54-.28-.66-1.93.66-.89-.81-.76-.51-.48-.08-.48-1.1.41-1-.07-1.17-.48-2.06-.62-.95-.07-.52,1.38-.07,2.06-.88,2.07.07.14-1.54.62-1.33-.83-1-1.17-.29L223.51,316l1-1.47,1.44-1.1-1-1.69-2.41-.44-.48-2.06.76-1.55,2.34-.36-1.31-1.47-.48-.81-.35-1.1-.82.73-1.45,1.55-1.58.66-.28.88v.88l.76,1,.14,2.13-.76,2.35.41,3.23-1,2.8-1,1.1-1.85-1.4-1.93-.14-1.93-1.25.48-6.62.62-2.42-1.17-.52.34-3.16-1.1-1.24-1.58.29-.9,1.62-.27,1.91-.76,1.47-2.27.07,1,1.84,1.79,2.94.69,2-1.1.95.14,1,1.72,2.21-1.59.29-1.23.74-1.11,1.1-.89,1.25v-.88l-.07-1-.28-.81-.34-.73,1.38-3-3-4.77.89-2.35-.76-3.38-1.86,1-2.61,3.3-2,.74-1.17.22-1,.37-1,.07-1.17-.66-.34-.59-.41-1.18-.14-1.1.48-.51,4.13.07,1.1-.73-.07-1.84-1-2-1.58-.74-1.59-.44-1.3-1-.55,1.47-.28,3-.55,1.47-1.17,1-.42-1,.14-3.09-.2-3,.27-.88,2.55-3.16.55-1.18.41-1.54.28,1.17.48,1.11.48.95.76,1,.48-.52.69.08.76.29.82.15-1-1.47-1.1-1.91,2.89.88,1.17-.29.76-1.47-2.55-.22-1.58-.66-.21-1.55,1.65-2.64L194,288.57l.14-1.69,1.79-1.4,2.41-.88-.62,3,.28.8,1.37.3h2.48l.69-.52.62-1.1.21-2.72-.28-3.75.48-3.08,2.35-.66-.28,1.69.07,2.64.41,2.72,1.24,3.23-.62,1.18-1,1-.62,1,.07,1.17.62,1.77.07.51-.56.59-1.79,1.17-.41.3.14,1.1.27,1.1.56.66.75-.36,1.66-1.55h1.3l2.9,2-2.07-4.48-.76-2.72,1-1.25,1.65,2,1,.59.48-1.32.42-.37,1-.44,2.07-.51v-.74l-.83-.14-1.93-.81V288l2.41-.59,1.45-2.27.34-2.72-.75-2.06-.9-.29-2.62-.08-1.31-.51-1-1.18-.34-1.1.48-.44,1.44,1,.69-1.91-.75-1.1-1.52-.52-1.86.15.76-1,1-.66,1.1-.14,1,.51,1,.73.9.15.34-.37-.41-.95v-.88l3.72-.08,1.72.59.76,1.69-.49,1-1,1.1-.62,1.4.69,2,.83-.88L221,278h1l.41,1,.14.88.48.81.07.81-.14.36-1,1-.27.74v5.51l.34,1.61.76,1.11.75.44.28-.59.41-3,1.86-6,.42-2.87.55-.66,1.24.81,1.72,1.83.69,1.4.55,1.18.75.8,1.45.08v-.74l-.76-1-.82-2.5-.83-1.25L225,273.51l-.48-.37.34-1.32.9.14,1,1,1.59,2,.89.74,1,.44h1.24l.9-.52.14-.88-.69-.73-1.45-.37-1.93-.95-2.06-1.91-1-2.8-.2-1.91,1.86-.07,1.58.73,1.45,1.25,2,1.4,1.93,1.32.83.81,1.51,1,1.45.81,1,1.69-.48,1.61-1,1.18.2.88,1,1.84.13,1.17-.34,2,1.1-.74.41-.88.28-1-.41-3,.41-1,.69-1,.89-1.76,1.66-.74H245l1.72.22,1.93.67,2.48.66,1.72,1.1,2.14,2.13.13,2.65-1.58,5.36,1.24-.81,1.86-2.35,1-.22.69,1,.48,1.83.21,3.46-.14.81-.48,1.69-.07.95.21,1,.89,1.47.83,3.82L260,300l-1.65.52.28,1,.41.66.62.51.82.37.56-2.79,1-1.62.48-1.76-.83-3.09,2,.59,2.14.22-3.45-3.75-1-2.06,2.07-.88,1.86-.29,4.4-1.76,3.17-2.43,1.51-.66,1.11-1.25.69-2.94-.21-.59-.9-.95-.2-.22.55-.52.55-.07h.48l1.45-.74.82-.14.69-.44.28-1.4-6,1.62-1,1.25.35,3.82-.76.88-2.34.73-3.31-.44-3.92-2.27-3.58-3.38-1.38-3.31,6.06-.66V271l-.48-.15-.9-.73,1.1-.15,1.11.07,1,.3.89.66-.48-2.35-1.37-2.06-1-2.42.76-3.24-1.17-.51-.9,1.1-.55,2-.14,2-.48,2.2-1,.44-1-.88-1.92.37-1.93.51-4.62-1.39v-1.4l-.41-1.25.35-1.61-.14-2.14,1.1-2.13,1.45-1.83,1.58-.81,1.72-.59,2.55-.07,2.68-.74.56-.81.2-2.27-.62-.44-1.44.73-2.07,1.76-1.31-.22-1-.58-.48-1v-1.54l-2.41,1.25-1.93,1.32-3.58,3.82-1,.73-1.1.37h-1.1l-.69-.66.07-1.1.62-1.1,1.44-2.06-2.89.66-1-.29-.28-1.69.49-1.25,1.23-.74,1.45-.44,1-.59,1.24-1.61-.34-.44-2.69.36-.89-.51-.69-1.32-.69-1.69-.76-1.55.42-.07.27-.22.69-.59.69.52h1.1l2-.52,1.58.44,1.31.81,1.38.37,1.51-.74-.13,1.4.13,1.32.49,1,1,.52,1-.45.55-1.17.49-2.65,1.65-2.49,1.44.22,1.52.95,2.27-.37-.48-.95-.62-.81-.76-.44-1-.29-1.38.07-.69-1-1.51-.29-1.17.37-1.24-.08-1.86-.36-3.17-1-4.41-3.23-.2-1.47,1.92-2.79,1.38-1.25-.34-.88-5.24-.67-2.47,3.09-2.55-1.91,1-2.28,1.38-1.91-.9-1.39-1.79-1-1.65-.88.27-2.28-.34-1.76,1-1.69,2.9-.81.89-.44.21-1-1.38-.37-.34,1.1-2.07.22-.55-1.24-.21-2.28.49-3-.49-1.11-.82-1.83-.9-1.4-1-1.76-1.1-1.11-.07-1.69-.41-2.49-1.11-3.9-1.44-10.21.41-1.69,1.38-.22,5.51,1.91,1.79-.37,1.44-.66,1.31-.22,1.38.88.48,1.47.21,2.28L242,185l-.55,1.62-.07,2.86,3.1,2.57,3.92,1.62,2.41.15L248.92,192l-5.79-4.12,1.72-4.41.48-2.64-.41-1.84-1-2-.07-1-.14-1.47.48-2.5,1-2-.76-.89-1,.15-1.51,1-.69-10.73.48-2.94,1.24-.88,1.86-.22,2.62-.95,4-3.09,8.61-12.86,1.72-1.76,3.86-2.94,1.65-1.84,2.07-4.92,1.37-3.31,1.24-1.54.62-.74,5.51-4.4,6.41-4,6.75-2.65,6.47-.66,3.17.3,12.39-1,9.57,2.79,3-.22,5.93-1.77,19.41-1.69.83.59,1.24,1.77,1.24,1.25,1.38.36,6.68-1.39,10.53.58,6.89-.51,6.89-2.42,6.4-4L398.76,99l2.34-3.24L403,92.31l1.31-3.89.41-4.41-.82-4.26-.21-2.21.62-1.62,2.75-2.13ZM215.66,339.42l.75,2.28,1.38,2.05.55,1.91-1-.44-4.48.3-1.45-.22-.27-1.84.48-.66.76-.74.41-1.1-2.41,1.54-1.1-.51.34-1.84,1.79-2.5-.68-.73-1.38,1.54-.48-1.1-1,.59.55-2.94-.41-4.56-.41-2.72-1-3.38.82-1.17,1.79-1.62,1.93-.66,1.31,2.13.21.74-.42,1-.76.59.07.81,1.66,3.82.27,1.17-.41,1,.48.88,1.17.67.9,1.54h-2.14V336l.69.15,1.45.81-.14.73-.07.59ZM204.57,173.36h2l1.85.29.9,1-.69,2.2-1.72,1.47-2.27.15-4.13-.88-1,.37-1.1.58h-1l-.42-1.32.21-.44,1.17-3.38,1.24-1.18,1.38-.36,1.65.36Zm65.49,528.45.75,1.54-.48.52-1,.29-.69.81v.74l.69,1.1v.66l-.35.66-.89,1.1-.14.37-1.86,2.06-3.37,2.72-1.1,2.27-1.52,2.65-.07,1.1-.62,1.54-2.48.3-1,.51-2.69-.22-3.85,3-10.13,1.92-3.44,2.86-4.13.88-4.48-.44-5.09,1-4.2-1.25-9.58.14-3,1.4-1.72,3.16-1.65.29-1.58-.73L198.1,731l-3-1-3-3.08-1-3.75,1.79-4.92,1.72-3,1-1.1,3.51-2.05,3-5.15,2.75-.73,1.24-2.72,4.75-1.62,10.27-2.94,2.54-2.2,9.85-1,6.61-2.94,1.65.44,8.13-1.25,4.68-.44,3.17.52,1.17,1.83,1.45,1.1,4.89,2,1.44,1.47,1,3.6,1,1.39.48-.51.62-.59Zm22.79-121.38,3.17-.37,1.65.15,1.38.66,1.1,1.91-.34,2.27-1.31,1.84-1.86.74-4.2.8-1.59-.22-1.17-.58L287.27,586v-.88l.55-.66.07-.59-.34-.52-1-.66,1.38-1,1.65-.66Zm-79.74-1.77.14,1.62-.28,1.91-.55,1.76-1.93,4.26-.83,1.25-1,.66-.14-.36-1.72-1.62-.82-.51v.8l-.35,1.92L196,595.56l-1.1.37-4.27.37-1.17-.3-.21-1,.55-.88.76-.81.28-.58-.55-.74-2.9-1.84v2.58l-2.06-2.5,1.24-4,2.82-3.24,2.82-.22.9-2.64.62-.88.89-1,1.11-.59,1-.22.76-.51.27-1.69,1.17,1.39,1.59.15,1.44-.88.62-1.84-.82-1.54-2.55-2,.69-1,1.58-.14,1.65.88,1.45,1.17,1.1.59.21.3.34.8.48.81.62.52.49-.15,2.27-1.4.07,1Zm141-22.56,1,.22,1,1.47.69,1.77.83,3,.14,1.84-.35,1.69-.69,1.69-1,1-1.1.07-1.17-.59-3.51-3.6-.42-1.39.55-2.28.49-.59,1.86-1.4.34-.73.76-3.09L352,553.61l.21-1,1-.51,1.31-.15,1,.51.28,1.11-.48,1.32Zm-180.35-3.52,1.17,1.1.34.51.14.89-.28.95-.41.88L173.24,559l-.69.51-.69.08-1-.08v-.36l-1.45-.88-1.58-.67-.49.15-.89-2,.69-1,3-1.17,1.86-2.5.62-.3.34.22Zm1.79-8.16.07,2.57-.49-.22-1.17-.36-.48-.3-.89,1.18h-1.38L170,547l-.55.37-.21,1.62-.55,1.39-.89,1.11-1.17.51-1.18-.15-.89-.81-.48-1.24-.21-1.62.35-1.54.75-1,1.1-.74,1.24-.44,1.38.52,1.79-.37,3.31-1.25.69-.15.48.08.34.36Zm4.89-16.16.48-1.62,1-.22,1.1.73.83,1.4.21,1.76-.28,1.69-.76,1.47-1.17,1-1.44.44-.9-.29-.62-.59-.82-.3-3.31.74h-1.24v-.74l1-.88,1.85-2.86,1.38-1.25.62.07,1,.29.82-.07Zm202.59,12,.55,1.4-.34,1.25-.55,1.25-.28,1.61.28,2.5-.07,1.4-.62.66-.76.44.83,2.43-.42,1.24-1.51.3-1.52-.88-1.58-.66-1.86.8-1.65.22-1-2.35L371.42,547l-1.65-1-1.31,1-.89,2.06-.35,2.5-.62,1.1h-1.38l-1.51-.51-.9-.59-.62-1.1-.2-.89v-1l-.21-1.55L359,538l-.42-2.21.28-2.13,1.17-2.2.76-.52.75-.14.62-.44.49-2.65.62-.81,1.58-1.25,1.31-.58,1.58.44,1.31,1.17.76,1.55-.14,1.54-.89,1.54-2.21,2.35.35.89.48,2,.55,1.1.89.67,2.14.66,1.24,2.2,1.93-.37,2.48-.95,2.34-.52,3.37.59Zm68.31-6.54-.14,1.47-.41,1.47-.89.88-1.38-.58.55,1.61,1.31,2.8.27,1.83-.75.3-1.8-.59-1.85-1-1.18-.81-.27,1.69-.34.89-1.73,2-.55,1.55,1.17.88,1.66.73.82.89-1.58,1.39-7.3,2.28-2.14.15,3.45-2.5-1.45-.66-.55-1.11.07-1.47.55-1.76-3.17,1.62-.89-.66-.48-1.4.06-1.4.62-.66,2.55-.44.69-1.39.07-1.84.55-2.21-1.38-.8-1,1.25-3.65,1.61-1.58,1.32-1.17-1.76-1.38-1.62L425.55,536l-.35-2.35.62-1.39,1.38-1.25,1.52-1,1.3-.51,3.79-.81h1l1.66.73,1.31.81,1.3.66,1.86.15v-.74l-1.86-1.25-1-1.76-.48-2.13-.14-1.91,1.38.15,7-4-1.17-2.21.55-2.2,1.52-1.25,1.79.66.41,1,.07,1.18-.69,4.48.07.73.48,1.47.62,1.11.42,1.17v1.62l-.42,1.47-1.58,4.11,2.06-.73,1-.66.34.22ZM186,511.58l-.56.14-2.61-.73-1,.15-.41-.3-.21-.22-.27-.22-.48-.07.82-3.9.55-1.1.69-.37,1.17-.44,1.1-.51.49-.81.75-1.62,1.86-1.17,2.07-.52,1.51.44-3,1.77-.75,1-.07,1.17.48,1.25,1.31,2.21-1.1.44-1.1,1.1-.83,1.25Zm45.58-302.44.35.37.41.66.55.44.41.88.21.59-.48.29-.9.59-.34.44-1.72.44-.83-.14-1,.51-2.34,1-1.31,1.17-.69,1.18-4.41,3.23-1-.22-.9.15-.41-.15-.41-1.47-.83-.51-.34.36-.35.15-.14-.29.21-.44-.27-.59-.62-.08-.35.52-.69.51-.69-.36-1.1-.23.62-.66-.2-.66-1.11-1-.27-.66.41-.88.55-.22.83.44,4.61-3.09,3.24-.36,2.2.07,2.07-1.1.69-2.79,1.44-.52,1.17,1.18.55.22.56.29.62.22.55.08.62.07Zm436.59-3.89,1.72,1.25-.14,3.15-1.1,3.53-1.17,2.28-1.93.95L663,216l-2.48-1.47-1.66-2-.55-2.5.9-1.91,1.79-1.17,3.58-.59,2.41-.88ZM210.77,186.73l1.24,1,1,1.11.21,1.17-1.11,1.33-2,.14-6.82-5.21.83-.81.48-1,.55-2.35.27-.59.56-.66.55-.44.55-.15.41.22.21.37.13.52.35,2.27.14.44.48.81.62.66ZM226,198.93l-.82.07-.55-.29-1.1-1.11-.76-.44-.55.15-.42.44-.34.22-5.3.3-2-.89-2.07-2.71,3.1-.81.76-.44.83-1.33-.07-.58-.55-.37-.55-.74L212,183.72l-.21-1,.34-1.39-.07-5.88.42-1.33,1-.36,2.34-2.65,1.86-.51,1.59,1.17,1.51,1.77,1.52,1.32,3.23,1.62,1.31,1.25.55,2-.14,1-.55,1.69-.07.73.21.81.9,1.69.27,1,.28,4.4-.28,1.11.55.66.55,1.32.28.52-1.24.73L227,198.05ZM47.36,151.24l1.1,1.32-.14,1.84-1.38,1-2-1.18-2.55.22-.55.22.07,1.33,1,.51,1.17.22.55.44-2.06,1.62-4.07-.59-3.1-2.57,1.11-4.41,2.54.88,5.58-1.91ZM306.55,636.49l.62.51.69.22.28.37-.14.59-1.45-.66-1.37-.3-.21-.36-.34-.88-.21-1-.41-.29-.28-.37-.28-.81.14-.51v-.59l.07-.52.28-.07.41.15.41-.15.28-.37h.14l.27.52-.34,1.1.2,1.25Zm22.45-52,.42,1.17v.74l-.76.81-1.86,1.17-1.58.44-.56-.29-.06-1-.69-.74-1-.29-.48-.66.28-.44-1.11-.74-.68-.44.34-.95-.07-.66-.14-.52.49-.29.68.29.76.44,1.45.37v.29l.48-.14.9-.88h1Zm25.21-6.84.69.37.41.66-.21.74-1.24.44-.82.07-.21-.22-.35-.51-.89-.52-1.52-.51-1-.74-.41-1-.48-.73-.83-.44-.76-.88.55-1,1.72-.81,1.79-.22,1.31,1,1.59,2.94-.21.89.07.44ZM184.94,566.76l.21.22.21.59-.07,1.25-.35,1.32-.07,1.17-.55.67-.82.58-.83.81-2,1.1-1.1.22-1.17-.36-.34-.59.55-.22h.62l.55-.52.55-.44-.07-.44-2.27-.51.55-.66,1.38-.15,1.51-.07,1.1-.89.48-1.17-.48-1.25-1-1.54-.69-2.06.76-.59,1.24,1,.75.74,1.24.66Zm-6.26,3.31-1,.44-.76-.74-.41-4.19.35-2.35.82-1L179,565l1.1,1.54.83,1.69-.28,1.39-.89.37Zm-59.57-14.48,1.17-.29.21.51-.9.88-.48.52-.28.73-1.58,1.84-.27.81-.69,1.1-.49.73-.41.44-1-.44-.62-1.69.14-1.61.55-1.47.62-1.33.75-1.17.83-.59.83-.15.48.37.34.88Zm73.27-5.36.34,1,.07,1.33-.62,1.17-1.24.15-1.24-1.18-.89-1.39h-1.1l-.55.51-.35.15-.76.07-.68-.51-.21-1-.9-1.69-2-2.06-.42-1,1,.3h.82l.76-.37,1-.15,1.31.22,1,.37.55.66.89.44,1.17.08,1,.22.62.66.41.66-.07.59Zm-.55-7.2-.28.29-.34.81.21,1.61-.62.67-1.24.29-1.17-.66-1.31-1.1-1.66-.67-1.23-.66,1-.88,2.55-.37,1.44-.66.76-.59,1,.37.76,1Zm-9-3.68-.9-1.17-.69-1.25.35-1,1.44-.73,1.24-.15,1,.51h.89l.28-.73-.21-1.47,1-.88h1.3l.69-.08.48.3.49.66.07.81-1.31.81.48,1.91-.28,1.17-.69.44-1-.07-.69.73.07,1.33-.34,1.17-1.11.59-.89-.07-.21-.74.07-.44Zm200.52-2.79.42.37.55.8-1.1.3-4.55-1.18-2.48.74-1.44-.15-1.52-.88-.89-1.76.68-1.84,1.38-1.76.9-1.69.89-1.18,1.59-.44.55,1.39-.69,1.92-.35,1.39.07,1.1.55.37.55-1.32,1.18-1.84,1-.22.34.88.49.44.55.3.2,1.47.55,2.05ZM199.68,528l-.9.37h-1.24l-.48-1.1.21-1.18.76-.44h1.72l.62.22v.59l-.35,1.25Zm-6.89-16.09.28.59.07.59v1.17l-.42.37-.55.29-.48-.14-.89-1-.42-.3-.55.3-.48-.08-.14-.51-.41-.22-.48.07-.14-.29.69-.59-.28-.15-.41.08-.48-.08.2-.58.76-.52.69-.07.83.37,1.3-.08.9.22Zm268.08,3.23-.48,2.5-.62,1-.55.14-.2-.51-.56-2.13-.75-.81-.28-.59.14-.88-.35-1-.55-.95.35-.88,1-.59,1.17-.15,1,.29.68,1.55Zm-260-66.86-.48-.44-.28-.81.14-.74,1.1-.58-.14-.22-.55-.3.28-.29.55-.3.41-.51.55-.15.42-.14-.21-.67h.41l1.17.23.76-.59.35-.44.48.36.2.74-.41.88-1.86,1.62-1.24,1.32-.75.59-.35.29ZM184.94,244.63l-.75.37-.42-.15v-.44l.35-2.06.55-1.61.75-1,.76.59.76,1.17.69.52,2.48,1.32.75.81-.41.73-1.24,1.32-1,.37-1.17.15-1-.44-.69-1.11-.27-.66Zm38.63-6.32,1,.66.41,1.47-.48.52-1,.36-.49.81-.07.81-.82,1-1.17.29-.76-.59-.83.15-.68-.44-.21-1.55.21-1.61.82-1.1,1.72-1Zm13.09,2.94.2.59.28,1-.55,1.17-5.17,4-2.27.29v-.66l1.1-1.39.14-.88-.48-.74,1.31-1.4.07-1.54-.55-1.76-.76-1.32-.69-.81.21-.22,1.65.73,1.38-1.17.34.07-.27,1.1.41,1,1.17.66,1.93.81Zm-93.17-52.54,1.1.15.76.66-.35,1.4-1,.88-.55.29-.35-.66-.55-1.54.14-1.1ZM45.77,167.85l.76.44.14.73-.42,1.18-.34,1.25-.41,1-.76.45-.76-.08-.69.22-.48.52-.27.14v-.51l-.35-.59-.76-1,.28-1,1.72-1.24,1.1-1.11.48-.44ZM87.09,633l-.48-.3-1.93-1.83-1.17-.67-.21-1,.48-1.25.76-.74,1.1.37.9,1.1L88,631.71l.07,1-.27.52-.42-.08Zm148-14.48.83.37.89,1-.27.51-.41-.37-.35-.07-.2.51-.35-.14-1-.52h-.9l-.55.52-.34.66-1.17.73-1,1-1.51.88-1.93-.07-1.1-1.4-.07-1.84.89-1.83,1.79-1.25H230l2,1.32.62.07.82-.29h1.1Zm7.3,1.84.42.22.34.59-.28.36-.48.08-.13.73v1.18l-.49,1-1,.3-.48-.3-.21-.59-.48-.36-.48-.15-.28-1.62.69-2.79.21-1.54-.69-.59-.21-.59.9-.81v-.36h.89l1.72.88.21,1.17-1,.81-.14,1Zm23.9-5.37,1,.89.62.66-.27,1.54-.21.59-.69,1.17-1.17.59-1.51.15L263,620l-.89-.81-.62.08-.35.66-.41-.22-.41-1.91.62-1.25.2-1.11.35-1,.76-.66,1.37-.74,1.73.44Zm-29.89-2.49.41.58.07,1.11-.68.58-.35,1.33-1.45.07-.82.22.48.81-.48.44-1.59-.37-.75-.73-.21-.52-.41-.14-.48-.08-.14-.44.55-1.47.27-.51.07-.37-.2-.29.07-.3.41-.14.2-.3-.06-.29-.49-.88.28-.3.83.3.75.36,2.14.37,1,.59Zm-52.68-10.81-.07,1.33.14.88-.48.66-1,.15-.55.44-.41-.22-.48-.66-.28.07-.2.59-.62.07-2.07-.88-.76-1-.07-.66.49-.59v-.58l.75-.52,3.45.74,1.51-.22Zm77-.07-.41.37-.9.22-.48-.66-.21-1-.55-.73-.82-.37-1,.15-1.17.44h-1l-.41-.22-.35-.22-2.27-1-.14-.44,1-.15,1-.29.41-.22.41-.22.76.15,1,.44,1.11-.44,1.37-1.11,1-.29.62.44.75.22.42-.07.41-.08,1.1.15,1.45.37.89.51-.2.88-.62.67-.14.44-.07.81-.62.66-.89-.15-1,.15Zm23.9-4.41.34.3.21.51-.62.15-.83-.44-1-.22-.69.29.27.37.62.29-.75.74-1.79,1.39-1,.44-.07-1,.49-.73.62-.44-.35-.52-2.2-.44.27-.44-.2-.66-.69-.37-1.65-.14-.69-.22-.28-.22.28-.22.69-.15.62-.44.89-1.1,1-.81-.07-.3.28.08.76.73.62,1,.41,1.1.76.29,1.38-.44,1-.07.41.37.35.58Zm-32.92,4.26.21.81.55,1.32-.35.3-.48-.07-.55-.08-.9-.44-.75-.51-.42.14-.07.66-.48.3-.89-.37-1.52-.37-1.93-.66v-.81l.9-.73-.21-.88-.89-.22-1,.29-1.3-.37-1.17-.73-.69-1-.35-1.25-.07-1.54.07-1.54.42-1.47.82-1.18,1-.51.62-.15,1.72-.14,1.17.36,1.1.74,1.17,1.39,1,2.28.28,2,.27.88.56.73.34,1Zm-.14-8.89h-.55l-.41-.51.34-.66.48-.74.69-1.54,1.45-1.84,2-1.1,2.06-.51,1.24.22.48.73.07.81L259,588l.07.3.89.59.83.88.62,1,.14.74-.76.07-2.07-.59-.89.22-.48.74-2.62,1.25-1,1.25-.28,1.25-.55.36-.69-.73.07-1.25-.21-1Zm154.12-31.08.2.3-.14.58-1,1.25-.41.22-.62.15-1-.22-.82.07-1,.59-.55.44-.55.15-.14-.44.35-.81-.07-.59-.48-.44-.35-.07-.41-.37v-.59l.28-.59.06-.66.35-.36.69-.15,3.23,1.69v.73l.42.08Zm9.15-21.89,1-.45,1.58-.36,1.72-.08,1,1,.27,1.54-.55,1,.42.58-.49.74-1-.37-.41.22v.3l.82.14.83.66-.41.74-1,1.32h-1.72l-.69-.95-.41-1H415l.21-.81-.28-.8-1.31-.15-.48-.37,1-.81.2-.88-1-.81-1.86-.59-1.1.37-.69-.07-.21-.74.76-.88,1.17-.29,1.58.59,1.18.88Zm-14.66-2,1.51,1.69.55,1-.41.66h-1.1l-.48.22.06.88-.27.37-1-.3-.61-.22-1.11-.81-.62-1,.14-.66.69-1.1,1.31-1Zm-191.1-3.38,1.93.66.21,2.57-2,1.84-1-.44.62-.66.34-.74-.27-.44-2.83-1.54-.41-.22-3,.44-1.31.66-1.51.22-1.17-.36-.62-.81.55-.66,1.58-.08,2-.73.41-.44.28-.37.13-.52,1.24-.36.49-.81v-.88l-.76-1-.35-1.25,1.11-.51,1.72.36,1.79,1,1.31,1.25-.14.73-.9.08-1.51,1-.21.59.07.66.14.59.69.22ZM198.44,512l.21-.59-.69-.15-2.62-.44-.55-.51-.9-.08-.41-.07-.48-.44-.55-.29-.55-.67-1-2.49.56-1,1.3-.44,1.17.44,1,.66.83-.29,1-.52.62.3.21.51H198l.62-.14.27.73-.69.73-.89.08-.41.44v.66l1.1,1.1,1,.44,1,.08.56.81.34,1.1.48.66.21,1-.41,1.18-.42.29-.2-.36-1.18-.3-.55-.59-.34-.73ZM764.49,242.65l.14.07-.07.22-.14-.15Z" style="fill:#efc441"/><polygon points="412.81 70.93 415.77 76.73 414.81 77.03 409.5 79.75 409.43 79.75 410.19 83.57 410.05 84.81 409.5 90.18 409.23 90.99 407.71 95.47 407.37 96.06 405.3 99.81 405.03 100.17 402.41 103.77 396.35 110.02 388.91 114.65 380.99 117.44 373.28 118.03 363.02 117.44 355.93 118.91 354.96 118.69 352.35 118.03 351.31 117 349.66 115.38 349.45 115.02 332.72 116.48 326.8 118.25 326.39 118.25 322.53 118.61 312.96 115.82 300.98 116.78 300.56 116.78 297.81 116.48 292.37 117.07 286.51 119.35 280.8 122.88 277.56 125.45 275.98 126.7 275.15 127.73 271.71 136.1 270.95 136.91 268.95 139.26 268.54 139.56 264.89 142.28 263.86 143.3 255.04 156.46 249.74 160.57 249.05 160.87 246.78 161.67 247.33 169.76 245.82 173.72 243.89 175.93 243.75 174.46 244.23 171.96 245.27 169.98 244.51 169.09 243.54 169.24 242.03 170.27 241.34 159.54 241.82 156.6 243.06 155.72 244.92 155.5 247.54 154.55 251.53 151.46 260.14 138.6 261.86 136.84 265.72 133.9 267.37 132.06 269.44 127.14 270.81 123.83 272.05 122.29 272.67 121.56 278.18 117.15 284.59 113.18 291.33 110.53 297.81 109.87 300.98 110.17 313.37 109.14 322.94 111.93 325.97 111.71 331.89 109.94 351.31 108.25 352.14 108.84 353.38 110.61 354.62 111.86 356 112.22 362.68 110.83 373.21 111.42 380.1 110.9 386.99 108.47 393.39 104.43 398.76 99 401.1 95.76 403.03 92.31 404.34 88.42 404.75 84.01 403.93 79.75 403.72 77.54 404.34 75.92 407.09 73.79 412.81 70.93" style="fill:#efc441"/><polygon points="412.81 70.93 407.09 73.79 404.34 75.92 403.72 77.54 403.93 79.75 404.75 84.01 404.34 88.42 403.03 92.31 401.1 95.76 398.76 99 393.39 104.43 386.99 108.47 380.1 110.9 373.21 111.42 362.68 110.83 356 112.22 354.62 111.86 353.38 110.61 352.14 108.84 351.31 108.25 331.89 109.94 325.97 111.71 322.94 111.93 313.37 109.14 300.98 110.17 297.81 109.87 291.33 110.53 284.59 113.18 278.18 117.15 272.67 121.56 272.05 122.29 270.81 123.83 269.44 127.14 267.37 132.06 265.72 133.9 261.86 136.84 260.14 138.6 251.53 151.46 247.54 154.55 244.92 155.5 243.06 155.72 241.82 156.6 241.34 159.54 242.03 170.27 241.96 170.27 240.86 171.89 240.45 173.8 239.48 173.94 237.35 175.19 235.97 159.1 237.14 152.34 239.14 150.87 241.41 149.26 242.58 149.18 243.89 149.03 245.27 148.52 247.95 146.46 256.35 133.9 256.77 133.46 258.76 131.47 259.11 131.25 262.55 128.61 263.1 127.95 265.03 123.32 266.41 119.86 267.03 119.13 269.23 116.41 275.5 111.42 282.59 107.08 290.23 103.99 297.81 103.19 298.22 103.26 301.05 103.55 313.85 102.45 323.36 105.32 325.15 105.17 331.07 103.41 352.42 101.57 353.79 102.45 355.51 103.55 356.13 104.51 356.75 105.39 362.33 104.21 373.14 104.8 379.13 104.36 385.06 102.3 390.5 98.92 395.04 94.22 396.83 91.72 398.35 89.08 399.17 86.73 399.38 84.38 398.69 80.92 398.62 80.55 398.21 76.36 398.9 74.6 400.21 71.3 401.51 70.27 404.61 67.92 410.81 64.76 412.26 64.53 412.39 66.37 412.33 68.65 412.74 70.86 412.81 70.93" style="fill:#efc441"/><polygon points="764.49 242.65 764.63 242.72 764.56 242.94 764.42 242.79 764.49 242.65" style="fill:#efc441"/><polygon points="284.2 106.43 282.59 107.08 279.61 108.9 264.91 123.6 263.4 127.23 284.2 106.43" style="fill:#fff"/><polygon points="239.14 150.87 237.14 152.34 236.9 153.73 241.29 149.34 239.14 150.87" style="fill:#fff"/><polygon points="258.76 131.47 256.77 133.46 256.35 133.9 255.59 135.05 260.28 130.35 259.11 131.25 258.76 131.47" style="fill:#fff"/><polygon points="290.55 103.96 236.09 158.42 235.97 159.1 236.09 160.54 292.93 103.71 290.55 103.96" style="fill:#fff"/><polygon points="298.22 103.26 297.81 103.19 297.27 103.24 236.4 164.11 236.57 166.07 299.26 103.37 298.22 103.26" style="fill:#fff"/><polygon points="246.78 161.67 246.79 161.84 247.06 161.57 246.78 161.67" style="fill:#fff"/><polygon points="246.78 161.67 247.06 161.57 260.87 147.76 263.86 143.3 264.89 142.28 268.54 139.56 268.95 139.26 270.95 136.91 271.71 136.1 272.62 133.89 236.87 169.64 237.04 171.59 246.79 161.84 246.78 161.67" style="fill:#fff"/><polygon points="291.05 117.59 305.46 103.17 303.14 103.37 287.57 118.94 291.05 117.59" style="fill:#fff"/><polygon points="297.81 116.48 298.12 116.52 312.02 102.61 309.7 102.81 295.81 116.7 297.81 116.48" style="fill:#fff"/><polygon points="247.04 165.47 242.69 169.82 243.54 169.24 244.51 169.09 244.98 169.65 247.18 167.46 247.04 165.47" style="fill:#fff"/><polygon points="239.48 173.94 240.45 173.8 240.86 171.89 241.36 171.15 237.34 175.17 237.35 175.19 239.48 173.94" style="fill:#fff"/><polygon points="315.55 102.96 301.8 116.71 304.1 116.53 317.18 103.45 315.55 102.96" style="fill:#fff"/><polygon points="245.82 173.72 246.45 172.06 243.78 174.73 243.89 175.93 245.82 173.72" style="fill:#fff"/><polygon points="320.16 104.35 308.32 116.19 310.62 116.01 321.79 104.84 320.16 104.35" style="fill:#fff"/><polygon points="325.43 105.09 314.3 116.21 315.94 116.69 328.45 104.19 325.43 105.09" style="fill:#fff"/><polygon points="333.3 103.21 318.94 117.57 320.58 118.05 335.62 103.01 333.3 103.21" style="fill:#fff"/><polygon points="339.86 102.65 324.04 118.47 326.38 118.25 342.18 102.45 339.86 102.65" style="fill:#fff"/><polygon points="346.43 102.08 331.73 116.78 332.72 116.48 334.29 116.35 348.75 101.88 346.43 102.08" style="fill:#fff"/><polygon points="353.79 102.45 352.74 101.77 338.54 115.97 340.86 115.77 354.03 102.6 353.79 102.45" style="fill:#fff"/><polygon points="356.75 105.39 356.13 104.51 356.08 104.43 345.12 115.4 347.44 115.19 357.37 105.26 356.75 105.39" style="fill:#fff"/><polygon points="362.33 104.21 362.29 104.22 350.4 116.11 351.31 117 351.47 117.16 364.31 104.32 362.33 104.21" style="fill:#fff"/><polygon points="367.99 104.52 354.05 118.46 354.96 118.69 355.76 118.87 370 104.63 367.99 104.52" style="fill:#fff"/><polygon points="398.21 76.36 398.21 76.42 408.9 65.73 404.61 67.92 404.54 67.97 399.55 72.97 398.9 74.6 398.21 76.36" style="fill:#fff"/><polygon points="373.75 104.76 360.56 117.95 363.02 117.44 363.18 117.45 376.04 104.59 373.75 104.76" style="fill:#fff"/><polygon points="398.62 80.55 398.69 80.92 398.86 81.77 412.34 68.3 412.39 66.37 412.38 66.13 398.56 79.95 398.62 80.55" style="fill:#fff"/><polygon points="399.17 86.73 398.78 87.86 413.79 72.85 413.07 71.44 399.31 85.2 399.17 86.73" style="fill:#fff"/><polygon points="380.69 103.82 366.85 117.66 368.86 117.77 383.94 102.69 380.69 103.82" style="fill:#fff"/><polygon points="414.81 77.03 415.77 76.73 415.1 75.41 412.1 78.42 414.81 77.03" style="fill:#fff"/><polygon points="409.65 80.86 372.53 117.98 373.28 118.03 374.71 117.92 410 82.63 409.65 80.86" style="fill:#fff"/><polygon points="409.87 86.64 378.91 117.6 380.99 117.44 381.3 117.33 409.62 89.01 409.87 86.64" style="fill:#fff"/><polygon points="407.37 96.06 407.71 95.47 408.06 94.46 387.29 115.22 388.91 114.65 391.75 112.88 405.89 98.75 407.37 96.06" style="fill:#fff"/></svg>