<?xml version="1.0" encoding="UTF-8"?><svg id="Layer_1" xmlns="http://www.w3.org/2000/svg" viewBox="0 0 800 800"><path d="M184.76,198.82l.25,.87,.27,.36,.82,.64,.85,1.4,2.38,1.95,1.22,1.44,.49,.36,.44,.13h.95l.47,.13,3.51,2.2,5.91,5.06,.47,.67,1.44,3.2,1.26,2,.47,1.15v.76l-.4,.87,.44,.69,.84,.55,.89,.36v1.33l.09,.35,.27,.33,.82,.44,.31,.29,.11,.51-.16,.29-.22,.31v.4l.18,.36,.51,.67,.18,.4,.29,1.64,.31,.56,.75,.51,1.35,.64,.25,.45,.16,1.04h.67v.44l-.25,.64v.53l.44,.24,.44-.2,.38-.27h.44l.58,.55-1.36,.89-.29,.8v1.47l2.07,1.82,.33,1.36-.27,.55-1,.64-.22,.36,.13,.56,.47,.16,.53,.11,.36,.29v.62l-.36,1.15v.53l.36,.55,1.16,.6,.47,.4,.47,.93,.93,3.47-.45,1v.47l.62-.24,.44-.24h.29l.51,.6v.2l1.24,3.11,.38,4.51-.09,3.78,.15,.96,1.73,3.15-.15,.8-1.98,2.87-.84,2.04-1.07,1.82-2.64,3.4-1.36,2.6-.64,.87-1.35,1-.18,.67-.6,2.76-.15,1.55,.15,1.33,.29,.64,.75,1.11,.18,.73v1.2l-1,3.64v1.56l.24,1.95,.44,1.82,.67,1.44,.27,.4,.25,.25,.69,.51,.44,.56,.47,1.67,.24,.53,.13-.16,.98-.73,2.95-1.4,2.13-1.55,1.18-.64,2.56-.33,1.95,.84,1.82,1.16,6.04,1.4h1.44l3.98-1.2h.65l1.29,.16h.62l3.86-1.07h2.09l1.04,.2,2.26,1.04,3.91,.11,2.69,.76h.96l1.04-.4,2.6-1.82,.85-.87,.49-.91,.2-.96v-1l-.42-2.38v-.8l.56-.56,1.22-.44,1.44-.27h4.33l2.87-.71,2.69-1.82,2.29-2.38,1.82-2.76,1.47-4.15,.89-1.82,1.82-1.96,.47-1.04,.4-.31,2.11-.4,.71-.24,1.11-.6,2.36-2.36,1.56-2.38,1.05-.8,1.44-.27,2.09,.47,.78-.35,.85-1.36,.75-1.82,.49-.71,.91-.67,.45-.45,.11-.15,1.82-3v-.6l-.15-.53v-.47l.47-.4,1.31-.51,.44-.33,.4-.67,.22-.87,.16-1.24v-1.16l-.22-.67-.58-.93,.45-.87,.95-.8,.69-.8,.49-.87v-.33l-.27-.75-.35-.53h-.25l-.2-.18v-.73l.27-1.11,.6-1.05,2.07-2.51,.24-.51,.13-.53,.09-.75v-.56l-.18-.47v-.4l.64-.49,.4-.51-.22-.56-.44-.53-.25-.55v-.44l.13-.42,.35-.82,.89-3.2,.33-.49,1.15-.51,.51-.6,.73-2.04,.4-.64,.38-.44,.45-.33,.67-.31,.49-.33,.18-.4,.13-.44,.25-.47,1.82-1.82,1.11-.6,1.09,.16,.31,.4,.2,.55,.27,.27,.56-.35,.44-.36,3.42-1.67,2.18-.67,2.26-.16,2.51,.47,2.09,.84,.69,.16h.82l1.51-.56h.58l.65,.2,.42,.44,.69,1.09,.62,.64,.44,.36,1.35,.64,1.16,.75,4.82,3.91,.35,.53,.56,.6,2.56,.8,.44,.4,.47,1.11,.31,.45,.42,.27,.93,.31,.42,.25,1.71,2.38,2.07,1.53,.69,1.04,.87,.56,2.38-.6,.53,.11,.47,.29,.47,.4v.44l-.25,.44v.24l1-.13,4.73-1.35h2.42l2.04,1.2,3.16,3.87,1.91,1.47,2.31,.4,1.26-.33,.91-.4,.91-.13,2.04,.76,3.47,1.33,2.4,1.71,1.64,.4,3.31-.4,1.51,.36,1.29,.35,1.36-.18,2.73-.76,.91-.36,2.73-2.16,2.06-1.04,1.82-.27,1.82,.29,2.09,.67,1.91,.36,9.55-1.04,3.29-1.66,5.89-4.78,.96-3.15,2.04-5,.47-1.2,1.47-6.78,4-9.29,1-3.44,1.38-2.55,.09-1.82,1.31-3.16,.51-1.67v-2.11l-.51-3.77,.09-1.27,.25-.27h.35l1.51-.55,2.35,.11,.69-.36,1.49-1.15,6.95-2.27,5.18-1.67,2.15-.33h.85l.87,.2,.82,.11,1.04,.16h0l2.86-3.58,.31-.56,1.35-3.64,1.16-1.55,1.26-1.07,2.96-2,2.76-3,.4-.76,.96-.58,4.06-1.33,.96-.56,.71-.71,.47-.89,.89-4.55,.09-2.31,3.22-13.7,.16-1.4-.33-1.07,1.33-2.44v-.44l-.13-.51,.24-.96,.89-1.64,.8-2.11,.44-.36,.47,.2,.25,.64,.38,.53h.78l.69-.53v-.78l-.29-.89v-1l.31,.13,.31,.2,.13-.47,.29-.29,.82-.64h-.29l.35-.64,.44-.36h.53l.55,.36,.22-.6-.25-.33-.38-.33-.18-.64,.18-.44h.47l.53,.2,.35,.47,.22-.35,.35-.42,.09-.31,.35,.4,.35,.2h.44l.45-.2-.67-.96,.55-.64,1.69-.53,1.82-.91,.82-.64,.75-.73,1.07-1.82,.65-.58,.49,1.62,.47-.27,.44-.6,.13-.31,.56-.29,.65-.24h.38l-.35,.75,.65,.36,.44-.31,.38-.6,.44-.49,.6-.27h1.91l.96-.29,.95-.64,.65-.93,.27-1.15-.09-.36-.13-.4v-.47h.18l.16-.2,.09-.31v-.29l.22-.8,.84-.98,.42-1.44h.49l.65,.35,.64,.22,.53-.22,1.82-1.55,1.26,1.44,.62,.33,.65-.36,.25-.45,.69-2.02h0l.35-.29h.22l-.09-.2-.18-.24-.11-.15-.09-.25-.22-.35-.13-.4,.13-.4,.47,.11h1l.73-.29-.33-.95,1.82-.45,1.91-.84,1.56-1.15,.75-1.44-.36-2.2v-1.16l.53-.51,.87-.13,.98-.4,.87-.44,.62-.44,.69-.76,.56-1.04,.2-1.15-.38-1.09v-.56l.85-.4,1.02-.35,.69-.29,.2-.31,.24-.8,.2-.29,.36-.2,.47-.11,.47-.2,.4-.4,.35-.67v-.4l-.13-.4v-1.31l.22-.45,1.46-1.82,.44-.29,.56-.51,1.11-.13,.45-.27,1.67-2.04,.67-.6,1.67-1,1.82-.51,3.78-.25,2.89,.76,.71-.24,.98-.87,.6-.31,.89,.13h1.24l1.58-.56,3.33-1.96,1.96-.64,1.04-.16,.91-.27,.65-.55,.25-.96,.44-.69h1.07l1.96,.24,.82-.67,1.05-2.04,.44-.47,.24-.6-.38-3.64,1.09-1.47,.87-.95,.69-.44v-.22l.95-1.38,.4-.16,5.55-.33,.82-.35,.75-.65,.87-.64,1.2-.15,2.49,.58,1.33,.13,.84-.33,.31,.22h.98l.96-.56,1.69-.98,.95-.22,2.27,.6,1.13,.09,.51-.49,.4-.84,.85-.2,1.56,.13,1.69-.8,.93-.13,.82,.6,.56-.2,3.07-.18,.95,.27,2.66,1.82,1.56,.36,1.09,.6,1.66,.18,.67,.2,1.26,.8,.45,.2,.98,.24,.47,.22,.87,.98v.4l1.38,.16,.65,.29,1.33,1.02,1.09,.56h.78l2.04-.29,1.13,.09,.87,.27,.65,.44,.65,.6,1.44,1.07,1.56,.4h1.69l1.82-.33,.87-.31,1.73-.84,.87-.22h.87l2.95,.36h1.35l.42,.13,.67,.51,.33,.09,.69-.2,1.22-.93,.91-.31,5.09-.4,1.47-.62,1.35,.36,2.76,.29,4.97,1.24,1.56,.75,.78,.16,.45-.11,.35-.09,1.49-.76,.69-.11,.51,.33,.93,1.18,.31,.25,.33,.11,.71,.47,.38,.16h.38l.71-.33h.47l.44,.4,1.07,1.6-.16,1.15,2.02,6.55,2.36,7.66,2.33,7.62,1.82,6.11,3.16,10.19,.27,1.55-.96,11.75,.27,2.15,.85,1.82,4.42,4.91,.87,1.82,1.82,6.44,1.82,4.55,.65,1.07,.84,.87,2.95,2.24,.56,.67,.22,.82v.84l.31,8.18,.29,2.22,2.58,5.84,1.64,3.64,1.13,3.97,.25,4.02-.38,3.64v30.5l.09,11.3-.78,2.53-.2,1.31v1.82l.16,1.62,.49,1.05,.25,1.11,.44,3.27v1.15l-.18,.69-.33,.31-.44,.25-.58,.6-.35,.64-1.98,5.22-.25,1.47,.2,1.53,1.82,6.02-2.64,1.33-1.27,.35-1.35-.4-3.86-2.89-.71-.47-4.27-2.89-4.82-3.24-4.86-3.26-1.15-.4h-1.35l-1.6,.44-1.29,.67-4.6,4.24-4.07,3.64-.58,1.11-.69,2.73-2.47,6.09-3.07,5.89-3.31,4.31-4.24,5.46-1,3.95v12.84l.47,3.64,.31,1.2h.78l.76-.16,.78-.44,.71-.6,.51-.67,.25,.71,.78,2.4,.58,.93,1.33,1.44,.49,.76,.25,1.04v1.31l-.47,2.07,.22,1.31,1,1.82,4.69,4.33,2.2,3.42,.71,.69,.69,.51,4,1.4,1.64,.56,3.47,1.24,4.69,1.67,3.07,.64,5.07,.11h15.15v-.71l-.11-.6-.25-.56-.31-.58-.25-.76v-4.87l-.09-3.24,.78-4.86,.71-4.31,.78-4.6v-1.6h3.07l.73,.13,1.13,1.16,.75,.35,1.31,.29,2.35-.27h1.33l3.31,.58,2.6,.42,5.33-.13,5.91-.2,6.42-.2,7.08-.2-.56,2.15-.73,6.84-.84,3.35v1.13l-.25,1.11-1.64,2.35-.11,.45-.2,1.51v.44l-.4,.84-.22,1.36-4.8,13.93-3.16,15.44v1.16l-.09,.56-.44,1.24-.13,.56v.64l.25,1v.58l-2.47,13.3-.27,1-3.86,6.15-.25,.85-.18,1.22-.49,1.09-.78,.8-1.04,.35,.15,.49,.2,.15h.22l.36-.2,.38,1.82-.51,1.96-.75,1.95-.4,1.71-.6,.93-4.04,4.02-.6,.47-1.46,.73-.56,.44-.47,.56-.85,1.55-.58,.76-5.06,4.4-1.26-1.04-1.82,.27-1.05,1.15,1.04,1.46,.35-.45,.62-.55,.73-.44h.78l-.89,1.69-1.82,1.55-5.66,3.07-1.67,.36h-1.82l-2.04-.42v.76l.15,.2,.33,.16v.33l-1.42,.87-8.57,10.29-2.16,1.98-.71,.36-.29,.2-.13,.33-.15,.95-.2,.2-.58,.4-1.82,2.55-.65,.56-1.56,1-.62,.56-.22,.53-.25,1.11-.56,.36-.38,.35-.35,.4-.35,.96-6.04,8.42-6,12.22-.47,2.15,.49,2.07h-1.82l-.44,.44-.22,1.4,.67-.36,1.58-.55,.58-.6v.4l-.09,.4-.16,.38-.36,.65-1.2,1.44-4.64,4.42-1.35,1.66-2.29,3.91-2.56,6.04-6.53,11.97-.95,2.18-.16,.84-.36,.73-2.16,2.47-7.84,14.55-1.31,1.91-.73,.76-.65,.31-.62,.53-1.46,3.16-4.22,5.75-3.31,4.49-1.33,.93-1.47,3.24-2.4,2.87-6.68,6.42-.73,.55-2.82,.84-1.05,.49-.87,.75-.42,.93-2.78,3.47-1,.44-.44,.29-.29,1.04-.35,.44-.35,.31-.24,.13-1.04,.27-.82,.64-1.47,1.67-.71,.44-1.82,.65-1.16,.87h-.84l-.47,.15h-.22l-.51-.11h-.22l-.27,.36v.27l.16,.22v.24l-.91,2.04-1.35,.78-.25,.33-.18,1.31-.49,.73-1.51,1.11-1.47,1.64-.73,1.04-.31,.85-.09,.51-.82,1.51-.49,.25-.13,.15-.09,.2-.16,.65v.2l-3.04,1.42-.45,.65-.18,.87-.47,1-1.26,2-5.64,6.28-4.73,6.51-2.44,1.53-.38,.55-6.17,5.67-1.04,1.56-.36,.33-.78,.38-.42,.33-1.69,1.82-.78,1.15-.36,1-.29,.67-5.07,3.97-1.18,.64-1.47,1.27-.75,.4-.13,.87-1.07,.84-2.26,1.24-2.15,1.56-1.36,.73-2.53,.78-1.16,1.09-.87,1.51-.35,1.6-.44,1.16-1,1.15-4.66,3.95-1.42,.49-.4,.4-.6,.91-.62,.36v.76l-.2,.27-2.18,1.04-.87,1-.51,.24-.91,.16-2.26,.84-.78,.51-4.09,4.33-1.51,1.27-3.22,1.24-.55,.47h-.22l-1.05,1.6-.35,.2-.35,.09h-.38l-.49-.24-.33,1.36-1.09,1.2-2.49,2-1.11,.67h-.18l-.22-.13-.31-.13h0l-.16,.16-.18,.56-4.89,3.38-.44,.53-3.44,1.67-.73,.6-.35,.36-.15,.36-.09,.42-.25,.42-.38,.38-.4,.13-.95,.16-3.97,2.07-.87,.24h-1.09l-1,.35-2.56,2.24-.95,.25-2.18,.27-1.55,.91-4.38,1.82h-.56l-.35,.24-.31,1-.27,.27-1.02,.13-4.38,2.2-1.82,.51-1.82,.09-3.87-.56h-1.24l-.87,.4-.78,.16-1.09-.47-1.73-1.02-6.08-1.22-6.29-.33-4,.6-3.77,1.16-3.38,1.67-1.47,1.18-1.18,1.49-.87,1.82-.76,3.07-.11,1.29,.22,.6,.87,.44,.22,.47,.22,.36,1.31,.96,.85,1.38,.4,.49v.44l-.09,.16-.16,.16-1.44-.42-1,.29-.91,.6-1.2,.31-1.44-.16-2.4-.78-1.33-.24-2.27,.31h-1.13l-1.26-.73-1.64-.27-1.56-1.16-1.66-.67-4.02-.8-4.17-.11-4.09,.58-2.69,.8-1.09,.56-.73,.87,.65,2.24-.49,1.09-.78,.95-.51,.36-2.16,2-.31,.84,.18,.67,.42,.33,.44,.27,.18,.4-.15,.47-.78,.6-.29,.44h-.31l-.6-.84-.95-.31-3.13-.09-2.53-.67-1.04-.16-2.91,.56h-.87l-3.95-1.05-1.98-1.04-1.58-1.44-.89-.35-5.57-.67-.82-.45-.62-.44-2.98-1.27-8.17-.76-.98-.2-1.96-.75-4.89-.49-8.09-1.91h-2.16l-7.37,1.69-1,.47-.87,.56-.73,.78-.44,1.16,.31,1.11,.82,.76,1.04,.16v.36l-15.81-1.49-.25-.38-.25-1.56-.13-.36-1.38-.11-.56-.2-.4-.44,.18,.84,.33,.35,.45,.16,.45,.36,.45,.76v.4l-.31,.35-.25-.27-.65-.2-1.26-.09-.58,.13-.44,.2-.51,.13h-.69l-3.64-1.18-1.47-.89-.56-.18-.53-.36-.38-.8v-.89l.33-.2h.69l-.73-.6-1-.35-2.04-.2,.44,.8,.62,.84,.73,.64,.73,.33-.82,.31-1.13-.24-5.13-1.82-.95-.13h-1.18l-.91,.18-.76,.36-2.35,1.93-1.82,1-2.07,.47-4.26-.49h-1.95l-3.91,.98-.91,.42-.75,.58-1.35,1.46-.56,1.18,.18,.87,.65,.65,.82,.47-.64,.53-.89,.35-5.97,.85-1.69,.78-1.15,1.24-.13,.89,.22,1.82-.44,.62-.91,1.64-.25,.16-2.73,1.6-1.82,.71-1.98,.4-1.96,.09-4.82-.96-1.73-1.07-1-.24-1,.16-1.91,.8-1.6,.31-.35,.29-.18,.38-.25,.33-.27,.27-3.07,1.33-1.98,.27-1.96-.16-7.51-2.78-1.82-.4-4.46-.4-2.18,.24-1.82,.91h.31l-2.6,.73-.84,.44,1.22,.2,1.09,.84,.56,1.13-.36,1.18-.89,.33-8.08-1.47-6.38,.87-1.82,.91-1.6,1.26-2.49,3.38-.85,.84-.87,.33-.65,.15-.33,.36-.24,.49-.47,.51-.38,.2-1.49,.6-.73,.49-.84,.78-.69,.93-.25,.95-.51-.18-1.13,.31-1.82,.84-3.38,2.47-1.29,1.69,.6,1.51v.35l-.73,.2-1.22,.76-.71,.16-.73-.11-.73-.25-.65-.36-2.87-2.15-.69-.71-.78-.4-7.28,.2-.69,.18-.75,.76-.62,.2-.51-.11-.31-.36-.2-.36-.22-.31-2.31-1.4-3.47-3.51-2.35-1.33-.73-.56-.71-.87-.85-.67-1.09-.16-1.09,.33-.89,.71-.36-.31h-.82l-.4,.27,.18-.6,2.73-3.78,.22-.6-.22-1.49-.73-1.82-.95-1.64-.89-1.16-.64-.47-.6-.13-3.18,.64-2.78-.18-.64-.2-.62-.6-.85-1.56-.71-.47v-.4l1.18-.2,.53-.8,.33-1.16,.45-1.24-.78,.47-1.09,1.82-.47,.4-3.51-.24h-.58l-1.33,.49-4.44,.75-.96,.64-.16,.45-.47,.11-.49-.11-.44-.25-.42-.67v-.53l.38-.67-.33-1.82v-.44l.16-.6,.18-.27,.29-.2,.31-.47,.4-1.05v-.82l-.65-1.82v-1.15l.4-.49,.62-.44,.64-.98-1.95-2.89-.73-.44-2.71-.67-4.29-.4-4.2,.2-.69,.31-.36,.25-1.67,.67-.78,.6-.36,.36-.44,.56-.69,.71-.2,.4v.75l.13,.56,.22,.29,.31,.24,.29,.36,.25,2.46v1.04l-.4,3.64,.18,1.11,.78,.64-.84,.24-1.16-.6-1.09-.98-.69-.93-1.09-2.18-.16-.65v-.35l.22-.76v-.64h-.22l-.22-.11-.13-.13-.44-1.44-.38-.6-1.31-.44-.42-.53-.13-.71,.16-.8,.31-.4,.44-.16,.35-.31,.16-.8v-.76l.09-.56,.18-.55,.31-.6-.65,.11-.27,.09-.33,.2-.65-1v-.8l.38-.75,.65-.82,.65-1.02,.47-1.96,.44-1.16,1.49-1.2h1.82l1.47-.22,.62-2.02-.22-1.04-.87-1.44-.18-.69-.13-1.11-1.2-4.84-1.22-2.36-.25-1.07-.4-.24-2.13-2.58-.75-.49-.35-.31-.16-.49v-2.27l-.13-1.15-.31-.93-1.13-1.82-1.31-1.44-4.95-3.47,.45-.91-.27-1.05-1.16-2.18-.58-1.44-1.11-1.51-.13-.56-.44-.73-2.13-2.2-.78-.4-.95-.36-.65-.91-.49-1-.55-.75,1.16-.6,.69-.16,.47,.2,.36,.64,.25,.56,.31,.55,.55,.33-.22,.6,.35,.47,1.24,1,.85,1.16,.6,.64,.56,.24,.71-.44-.18-.6-.98-1-.24-.47v-.93l-.13-.36-.22-.15h-.51l-.22-.13-1-1-.38-.53-.15-.55,.13-2.36-.13-.8-.65-1.04-1.11-.55-1.31-.13-1.38,.24,.42,.87,.24,.25-.56,.15-.45,.24-.91,.73-.51-.6-.25-.56-.13-.51v-.36l-.16-.47-.31-.49-.18-.6,.33-.84-.22-.44-.56-1.58-.27-1.2v-.44l.16-.45,.47-.6,.24-.67-.24-.64-1.07-1.4-.25-.16-.15-.2v-.47h.82l.16-.2,.13-.16,.71-.64,.25-.15,.38-.09v-.47l.16-.36v-2.11l.11-.67,.67-.53,1.05-.44,1.09-.27h.69l-.35,.4,.55,.8,2.35,2.18,1.96,.8,1.73-.47,1.53-1.16,5.46-5.66,1.05-2.09,.67-1.95,1.05-4.44,.16-2.15-.2-3.8-.27-.84-.53-1.24,.24-.87,1.07-1.47,.22-2.16-1.82-7.09-.55-5.77-.8-2.38-.25-1.16v-3.51l-.49-1.11-.56-.76-.53-.91-.29-.73v-1.47l-.96-3.77-.78-1.82-1.09-1.82-2.13-2.73-.35-.76,.11-.44-2.07-3.11-2.18-2.31-.35-.84-.29-1-.73-.8-1.49-1.36-1.82-2.82-1.29-1.04-.47-1.33-.53-2.55-.6-.67-1.82-1.53-.42-.56-.24-.71-2.47-4.11-.22-.16-.47-1.33-.2-.35-.58-.93-.98-2.42-.47-.89-3.15-4.58-2.55-5.15-.25-.76-.36-1.96-.56-1.82-2.69-3.75-1.22-2.35,.15-2.04-1.13-1.29-2.53-4.82-.42-1.24-.84-1.04-2.95-5.15-.22-.55-.13-1.4-.4-1.71-.2-.42-.09-1.44-2.4-4.26-.64-1.82-.15-2.07-1.07-4.27-2.87-6.86-.29-1.82-.09-.25-.22-.27-.22-.4-.09-.55v-.56l-1.22-4.4h.27l-.22-.67v-2.15l-1.13-3.07v-.56l-.64-.51-.31-1.15-.18-2.04-1.35-3.77-.35-.6-1.69-5.27-.2-.35-.87-1-.18-.49-.13-.27-.84-1-.98-3.22-.25-.49-.49-.51-.18-.45v-1.22l-.15-.53-.44-.8-.38-1.2-.16-1.27,.22-.87-.69-1.2-2.93-2.6-.42-.67-.69-2.07-.36-.69-2.04-2.95-3.11-2.71-.49-1.16-.44-1.82-.29-1.82,.16-1.09-.18-.38-.42-.89v-.4l-.16-.27-.4-.11h-.42l-.31-.11-.96-2.27-.76-.6-1.15-1.27v-.25l.47-.38,.29-.76v-1.36l.82-.4,1.22-.84,1.26-.67,1.82-.56,3.46-3.51,.49-.2,.42,.27,.18,.6,.13,.67,.18,.49h.78l.91-.8,.82-1.15,.51-.89,.11-.87v-1.2l.22-1.07,.69-.47,.47-.44-.33-.96-.96-1.51-.31-.82-.18-1.07,.18-.95,.82-.4,.4,.16,.44,.38,.47,.13,.44-.33v-.64l-.27-.64-.35-.55-.13-.36,.18-.49,.25-.2h.96l.69-.18v-.4l-.82-1.04-.11-.25v-.35l.27-.22h.2l.18,.13h.75l.25,.18h.18l.35-.53,.35-4.18,.16-.13,.78-.93,.27-.24h.35l.47,.58,.44,.09,.56-.2,.65-.73,.55-.15,1.22,.31,1.49-1.15,.55-.29,.91-.2h.33l.53,.2,.62,.8,.55,1.07,.58,.96,.91,.4,1.13,.36,.44,.95v1.16l-.13,1.2,.22,2.47,.96,1.24,1.47,.29,2.91-.69h1.2l.49,.24,.18,.6v.67l.18,.49,.42,.64,.13,.58v.53l.16,.64,.35,.53,.71,1,.22,.6,.09,1.15-.09,1.44-.36,1.27-.76,.53-.75,.2-.82,.53-.6,.71-.15,.76,.36,.95,1.24,1.67,.27,1.2,.35,.89,1.66,.64,.51,1.15-.29,2.09-.56,2.22,.09,1.56,1.69,.29,2.04-.49,1.82-.24,.93-.24,.87-.44,.8-.16,.67,.51,.22,1.13v1.31l.22,1.07,.96,.42,1.51,.44h.56l.44-.22,.91-.62,.49-.24,1.47-.15,7.64,1.82,1.67,.69,1.53,1.02,2.78,2.36,1.82,.93,3.84,1.38h.85l1.62-.6,4.04-.62,1,.11,1.95,.71,1.13,.2,.87-.38,.35-.22,.51-.18,.91-.13,.25-.11,.4-.25h.44l.56,.55h.22l.96-.29,1.67-.95,8.77-1.29,9.55,1.4,.78,.73,1.13,1.82,.49,.56,.33,.11,1.58,.2,.51,.2,.22,.2,.78,1.04,1.82-.11,1.82-.62,2.6-1.42,.38-.4,.51-.84,.27-.2,1.51-.13,.53-.33v-.64l-1.73-3.02-.29-1.16,.16-1.09,.78-1.55,.53-.71,.56-.49h.69l1.07,.91,.49,.09,.65-.29,3.64-.96,.95-.44,.78-.67,.47-.76,1.31-4.26,.29-.45,.44-.18,.27-.2,.42-.96,.24-.44,.42-.49,.25-.44,.31-.36,.47-.35,.4-.13,4.57-.33,.82-.44,.87-.75,1.07-.36,2.18-.16,1.35-.4,2.04-1.82,1.22-.71h.51l1.47,.2h.47l1.44-.36V199.5l.29-.67Zm411.7,218.05l-2.53-2.6-1.82-3.31-.56-.75-.62-.56h0l-.69-.44-.71-.25h0l-1.44-.27-.38-.31-1.42-2.64-.69-.56h-2l-.51-.73-.31-2.18-.29-1.04-.44-.89-.58-.75-.89-.64h-.65l-2.62,1.82-.91,.24-6.37,.44-.93,.4-.89,.91-1.24,2.16-.89,.84-.91,.33-1.05,.16-1.07-.13-.91-.4h-.58l-2.47,.24-.42-.18-.47,.67-.58,.76-1.26,1.91-.16,.31-2.04,2.2-1.69,2.47-.2,.42v.75h-1.62l-.53-.25-.4-.55-.56-.53-.85-.11-.65,.4-.36,.71-.29,.84-.44,.8-1.22,.56-5.2-.36,.31,.87-.47,.44-.71,.22-.38,.44v1.18l-.09,.25-.13,.18v.56l-.09,.24h-.56l-.87,1.29-.56,.6-.56,.27-.76,.2,.22,.51,.56,.6,.42,.49h-.29l-.44,.24h-.22l-.31-.38-.31,.38,.18,1v.29l-1.04,1.98-2.6,3.27-.35,.16-.47,.2-.47,.27-.27,.45v.55l.29,1.24v.6l-.44,.4-.38,.13-1.82,.6-.75,.51-.13,.44-.09,1.24-.13,.45-.44,.6-.44,.27-.42,.13-.4,.35-.13,.36,.18,.29,.29,.35,.13,.44v.65l-.18,.31-.31,.24-1.82,2.13-.49,.84-.22,.95-.22,.24h-1.11l-.24,.16v.64l-.25,.53-.27,.51-.13,.09-.18,.24-1.51,.87-.96,.44-1.29,.27-.82,.45-.45,.16-1.35,.15-1.29,.53-.25,.16-1.47,1.62-.22,.13-.36-.16-.13-.35-.13-.25h-.44l-.25,.2-.35,.87-.31,.4-.44-.64h-.51l-.35,.51v.87l-.56,1.29,.38,.2,.65,.55,.6,.33,.58,.56,1.35,2.04,.38,.8,3.78,9.09,1.26,3.04,.89,1.04,2.18,1.82,.65,1.09,.64,2.55,.31,.73,.56,.91,.4,.16,.56-.13h1.04l.69,.2,.44,.33v.55l-.69,.69-1,2.55,.09,1.53,1.02,2.87v.84h.51l.91,.27h.78l.98-.4h.71l.35,.36,.35,1.29,.47,.84,.73,.6,1.69,.78,.15,.6,.16,.53,1.18,1.2,1.09,1.58,.16,.45v.98l.29,.42,2.78,2.18,2.47,2.84,1.38,.91,1.58,.49,1.91,.27,.47-.11,.89-.44h.4l.49,.2,.42,.29,.35,.38,.44,.36,.91,.44,.96,.33,5.46,.47,1.09,.49v-1.07l-.13-.82v-.87l.27-1.11,.29-.49,.36-.27,.42-.2,.35-.33,.36-.47,.16-.35,.78-2.49v-.44l-.15-.55-.55-.93-.09-.44,.35-.64,3.89-3.11,.62-.69,.31-1.18-.13-1.22-.53-.47-.65-.31-.49-.73,.09-1,.69-.8,.96-.6,.84-.35,1.35-.2,.45-.2,.31-.29,.56-.87,.4-.31,.73-.73,.78-1.51,.4-.73,.87-.8,1.13-.16,2.2,.29,1.13-.4,2-1.2,.73-.2,.78,.09,2.22,.87h1.53l4.11-1.56,3.04-.67,2.95-1.24,5.31-3.55,1.82-1.13,3.64-2.27,.56-.24,1.2-.36,.53-.27,.31-.45-.13-.55-.49-1-.09-.76v-.47l-.13-.36-.58-.47-.65-.96v-1.27l.29-1.4v-1.35l.85-1.6,.56-1.49,.75-1.35,1.35-1.07,3.51-1.09,.53-.67v-1.71l.75-.53-.65-.84-.31-1.27v-1.36l.33-1.11,.95-1,1.31-.56,1.35-.44,1.24-.53,.49-.4,.38-.47,.22-.6v-.76l.09-.84,.85-1.24,.15-.78-.13-.33-.62-.6-.18-.33v-1.51l-.44-1.16-1.27-1.82-.51-1.82-.35-.89-.62-.71-.73-.56-.53-.64-.22-3.04-1.38-.6h-1.82l-1.49-.45-3.77-4.06-1.6-.73-1.02-.31-.6-.4-.25-.65v-1.07l-.4-.51-1-.49-1.07-.31-1.15,.27Z" style="fill:#efc441;"/></svg>