<?xml version="1.0" encoding="UTF-8"?><svg id="Saint_Vincent_and_the_Grenadines" xmlns="http://www.w3.org/2000/svg" viewBox="0 0 720 540"><path d="M344.54,438.78l-.26,.25v.55l.26,.27,.78-.8-.25-.26h-.53Zm-9.31,4.01v-.55l-.27-.3-1.08,.04-.27,.25,.04,.55,.78,.78,.8-.76Zm12.24-16.54v.55l.25,.27,.27-.27v-.55l-.25-.25-.27,.25Zm-1.6,4.79l1.08-.5,.53-2.17-1.08-.52,.53-.51-1.08-1.1-.25-.78-1.56-.52-1.62,1.6-.83,.25-.5,1.62-.78,.76-2.17,.02-2.11-2.68-1.62,.02-1.07-1.58h-1.04l-.28,1.86-1.04,1.56,.02,3.19,.48,.55-.49,1.06,1.34,.78,1.81,2.43,.05,3.71,.51,1.06,1.05,.52v3.74l-2.93,2.4-2.64-.02-.55-1.06h-.53l-.27,1.31-1.31,1.35-1.08,.55-2.15-.02-2.62-2.15-2.17-.48-.51-1.06-1.31,.76-.02,1.61,1.35,.8,1.6-.02,1.87,1.88,.52,1.58,1.84,1.88,1.61,.02,3.74-2.7,2.13,.02,1.6,1.58,2.13,.02,.23-.8,2.14-1.61,.02-2.62,.51-1.1-.51-.51-.04-1.06,.57-.52,.52-3.23,.51-.5,.02-1.61-1.08-1.08,.8-.8,1.08,.02,.57-.55,5.82,.55,.78-.8-.52-4.81-1.6-1.6Zm-23.67,68.42l-.28,.82,.26,.25,2.13-.02,.27-.78-.27-.25-2.11-.02Zm-2.11-43.65l-.3,.27-.02,1.06,.3,.25,.8-.8v-.52l-.3-.25-.48-.02Zm2.36-2.4l-.27-.26h-.51l-.78,.8-.02,1.06,.26,.27h.51l.8-.8v-1.07Zm54.58,46.07l-.3,.3v.52l.82,.8,.27-.25,.02-1.1-.3-.27h-.5Zm11.96-218.56l-.8-1.33-2.66-.53-1.35,1.86,.02,1.06-1.05,1.06v.55l-1.88,1.85h-1.61l-3.19,1.63-1.05-.02-1.86,1.31-.02,.55,1.33,1.88,1.62-.04,1.08-.5,2.11-2.15,1.35,.78,.52,1.61,.78,.25,1.08-1.04,1.05,.51,1.61,.02,.26-1.86-.52-1.06,.53-1.06-.57-.52,.02-1.1,.78-.76,1.62-.04,1.31-.8-2.11-1.58,1.6-.55Zm-70.52,210.52l-.27,.3v1.06l.78,.82h.51l.27-.3v-1.06l-.78-.8-.51-.02Zm72.38-218.24l-2.66,.02-1.33,2.38v1.1l.82,.25,.53-.53h2.13l1.32-.8,.53-1.08-.78-.23-.55-1.1Zm.8-2.93v-.52l-.25-.27h-1.1l-.25,.25v.51l.82,.85,.78-.83Zm-32.74-7.19l-.26,.25v.55l.26,.3,.55-.04,.26-.25v-.55l-.25-.27h-.57Zm5.87,125.65l-.3,.27,.57,.51-.53,.55-.02,1.07,.82,.8,1.05,.02,1.33-1.87-1.33-1.33-1.58-.02Zm4.79-99.03l-.83,.28,.04,2.13,.25,.27h1.61l.27-.28-.04-1.06-1.3-1.33Zm-9.06-26.05l-.25,.25-.02,.51,.27,.25,.52,.02,.26-.27,.02-.51-.26-.25h-.53Zm-43.67,224.63h-.51l-1.32,1.35-.53,1.58,1.83,.27,.82-.8-.02-2.13-.26-.26Zm-32.98,23.42l-1.05-.02-.27,.3v1.03l.76,.8,.56,.02,.27-.27-.04-1.62-.25-.25Zm-18.37,10.89l-.53,1.08-.53,2.65,.82,.82,1.31-.8-.28-4.01-.78,.27Zm16.77-7.72l-.27,.28v1.03l.3,.3h.48l.3-.28v-1.03l-.28-.3h-.53Zm-4.26-4.79l-.53,.55-.51-.52-2.69-.02-.51-.55-1.05,.02-1.62,1.06-.51-.57-2.68,.03-2.38-2.39-.04-1.07,.57-1.06-1.33-1.88-2.13,.02-.8,1.88-.84,.76-3.16,.02-1.08-.57-.53,.55h-1.05l-.82,.8,.51,.55-.23,2.38,1.05-.53,2.38,.3,.02,4.22-3.44,2.39-3.23,.53-1.83,1.86-.02,1.06,1.35,1.37,3.73,1.05,.52,.52,3.21,.53,.52,.55h1.04l2.15-2.66,2.13-.53,1.08-2.13,2.15-.53,.5,2.13,1.61-.04,3.18-1.54,.52,.52,2.13-.04,.57-.5,2.39-.28-.02-2.13,.82-.8h1.05l1.31-.8,.02-2.13-1.86-2.4h-1.6ZM387.41,67.97l-.52-1.06-1.29-1.33-.83,.8,1.84,2.4,.8-.8Zm-132.82,447.99l.25-.28,.02-.52-.3-.26h-1.05l-.78,.8,.25,.27h1.62Zm-.57-6.94l.3-.25,.02-.55-.3-.27h-.53l-.26,.27v.55l.26,.25h.52Zm3.46,1.86l.02-.51-.26-.27h-.52l-.27,.27v.5l.25,.3h.53l.25-.28Zm57.79-15.68l-.8,.8v1.06l.25,.27h.53l.78-.8,.02-1.06-.27-.3-.52,.04Zm-8.55-19.15l-.25,.25,.02,.52-.55,.55-.02,.55,.27,.25,1.35-1.35,.02-.52-.27-.25h-.57Zm8,15.95l-.52,.52h-.53l-.3,.28v1.06l.82,.82h.51l1.88-1.9v-.51l-.25-.28-1.61,.02Zm-15.97-6.41l-2.38-2.39-.28-2.38-1.83,1.35-.02,.5,1.05,.57-.78,.76-1.08-1.06-1.86,.28v3.72l-.51,.52v.55l-2.15,1.6,.24,.78h1.08l.82,.82v1.06l-2.15,2.66v1.06l2.94,.23,1.05-.5,.8-1.37v-1.56l.53-1.06,1.88-1.35h1.05l.51-.53h2.13l.84-.8-.54-3.19-1.35-.27Zm-9.83-9.85v-1.06l-.82-.27-.53-.55-.51,.04-.26,.26v1.06l.78,.8,1.05,.02,.3-.3Zm5.02,44.98l-.5,.55h-1.08l-2.11-1.63-1.08,.04-1.31,1.35,.51,.52,.04,1.58,2.38,1.33,2.13-1.04h1.05l.81-.8-.83-1.88Zm.53,2.68l-.27,.26,.27,.25,.57,.02,.27-.27-.27-.25-.57-.02Zm112.91-135.71l-.3,.25-.02,1.06,.3,.27,.26-.27-.04-1.05-.21-.26Zm49.22-96.09l-.82-.82-2.38-.27-.02-2.64,1.05-1.1,.02-1.01,.55-.55-.28-.81-1.62,.03-.25-.82-.78-.27-.53,1.06-1.35,.25-1.06,2.66,.55,.53-.02,1.6,1.05,1.08,.04,1.06,1.06,1.62-.02,1.58-.52,.55,.25,1.83,1.08,.02,1.05-1.06,4.01-.26-.04-2.13-1.03-2.13Zm-25.84,23.69l-.53-.51-1.86,.74,.02,1.61,.26,.27,2.13-1.05,1.56,.52,.32-.8-.81-.78h-1.08Zm23.17-6.1l-.26-.3-.3,.28v.52l.3,.27,.26-.25v-.52Zm.78,.25l-.8,.78,.78,1.31,1.08,.02,.8-1.31-.78-.82-1.08,.02Zm-12.76,21.29l-.3,.25v1.06l.3,.27h.52l.27-.25v-1.06l-.28-.27h-.5Zm-6.12-15.19l-.04-1.61-.78-.76-1.08-.02-1.31,1.35,1.87,1.33,1.35-.28Zm-44.49-42.87l-.21,.25,.78,.82,.25-.28,.02-.52-.27-.27h-.57Zm46.88,53.27l-.26,.25-.02,1.07,.27,.3,.8-.83v-.51l-.27-.27h-.51Zm.02-149.11l-.26,.25-.02,.52,.26,.27h1.08l.26-.25v-.55l-.25-.27-1.08,.04Zm22.08,102.51l-.27-.25h-.55l-.26,.25v.55l.28,.25,.8-.8Zm4.5,1.37l-.27,.25v.52l.27,.28,.52,.02,.3-.3,.02-.55-.3-.25-.53,.04Zm5.11-202.64v-5.86l.53-.52v-4.81l-.53-.55-.53-6.94-.53-.51-.02-6.37-.51-.53-.51-6.37-.82-1.37-.82-.26-1.58-4.77-1.6-1.63-.55-1.58-1.05-1.06-.02-1.58-1.08-1.61-.5-2.64,.53-.55-2.15-2.66v-1.06l1.62-1.05-.02-2.17-.78-.76-1.08-.02-.53-.52-1.6,.5-.53-.52-1.6,.02-.8-.8,.02-.51,1.58-1.62-.78-1.35-1.6-.53-1.1,1.06-1.05,.02-.53,.52-2.67,.02-.79-1.88-1.05-.51-.3-.82-2.61-.02-.57-.52-1.56,.02-.57-.55h-5.84l-.53,.55-2.13-.02-1.61,1.08-2.15-.02-.51,.55-2.15-.02-3.96,3.46-.8,1.34-1.08,.52-3.74-.55-1.58,2.15-1.31,.8-.53,1.06v3.19l-1.62,1.08-1.06,2.13v1.05l-.53,.55,.02,2.65-.8,.8-1.86,.28v3.74l.53,.51-3.74,3.2-1.6,4.75-.53,.55-.02,1.61-.52,.55-.52,2.63-2.95,2.95-2.13,.55-1.33,1.3-.02,3.19,.56,.55-.02,2.13,.55,.52,.5,3.19-2.38,2.96-3.18,.53-1.59-1.63-.8,.8v1.61l-.8,.76-1.05,.03-1.62,1.05h-5.32l-1.37,1.86,.04,2.13,1.06,1.06v1.61l-2.68,3.18,.02,2.17,1.35,.78,1.33,1.88-1.35,.8-1.61-.02-.78,2.93-4.27,2.09-.53,1.61,1.63,3.19-.02,1.06-1.87,.28-1.04-.55-.32,1.35,1.08,1.07-1.05,.52-.02,2.68,1.07,2.13,.02,3.71-1.6,3.21-.02,2.13,1.08,1.06-.03,3.19-1.05,.5-1.03,4.29,.48,.52,.02,2.13,2.96,.26,1.29,1.33-.51,4.26,2.91,.82,.28,1.83-1.58,2.16,.48,.52,.02,1.61,1.61,.52-.02,1.06,1.87,1.33h3.19l.82,.8-.02,1.62,.82,.78,.53-.55,.25,.3v1.06l-.53,.5,.82,.82,.53-.51,2.13-.02,1.05,.53,1.33,1.86,.55,1.63-1.35,.78-.27,.78,1.6,1.06v.55l-1.58,1.06v1.06l.76,.76,3.23,.02,.52,.53,1.06-1.06,1.08,.02,.53-.55,3.17,.02,3.73,1.56,1.33,1.88-.02,1.62-1.05,1.06,.04,1.05-1.1,1.07-1.06,2.11v.55l1.33,1.33,2.13,.02,1.06-1.08h1.62l.52-.55,2.15,.02,.51-.55,2.13,.57,.81,.78,.26,1.31,1.05,.02,1.59,1.06,1.08,.02,3.16,2.66,2.13,.53,1.08,1.06h1.08l.81,1.33-.83,.25-1.32,1.35v.52l1.33,.82,1.05-.55,1.58,.02,1.08-1.08,.53,.55,1.05-1.06,2.7,.53,.53-.55,1.05,.02,.55,1.06,2.13-.02,.52,.55,2.15-.53,1.31-1.87,.55-3.19,.8-1.35,1.31-.28,.02-2.08,1.58-1.65,.53-1.56,2.94-2.93,.52,.53h2.13l2.42-2.95-.02-1.06,1.62-1.56-.04-1.1,.57-.51v-3.74l.51-.53,.02-2.13-.55-.52,.02-1.58,.51-.55,.55-6.92,.52-.55,.02-1.62,2.11-1.56,.02-2.17,.53-.5v-1.62l.53-.52,1.06-2.66,2.11-2.15,.51-3.71,2.16-3.21v-1.58l.53-.55-.02-3.18,1.07-2.17,.51-3.17,.57-.52-.04-.55,4.83-4.26-.02-3.69-.55-.57-.52-5.31-.53-.53v-3.73l1.08-1.06v-2.68l-.53-.52-.02-2.68-.51-.52-.02-2.13-.51-.55,.51-.5,1.08-2.68Zm-18.95,204.22h-.52l-.26,.25-.02,.55,.26,.26h.54l.3-.25-.03-.55-.27-.27Zm-.54-2.68l-.26,.28-.02,.51,.26,.27h.57l.26-.25v-.52l-.3-.3h-.52Zm7.99,6.96l-.26,.25,.02,1.06,.26,.25,1.05,.02,.27-.25v-1.06l-.25-.27h-1.08Zm5.05-7.19l-.26-.27-1.05,.52-1.08-.53-.27,.82-1.31,.74-1.06,1.61-.82,.28,.02,1.58,1.86,1.88,1.05-1.05,2.66-.53,.8-.82-.02-3.18-.51-1.06Zm-35.11,43.09v.55l.25,.25,.53,.02,.26-.26v-.55l-.26-.25h-.55l-.23,.25Zm-17.85,56.16l.26-.26-.26-.25h-.52l-.3,.28,.28,.27,.53-.04Zm-.53,.55l-.52-.02-.27,.27,.27,.28,.52,.02,.26-.3-.26-.25Zm.25,1.31l.02,3.19,1.32,.26,.3-.26,.53-1.05-.29-2.4-1.88,.25Zm3.51-154.18l-2.15,1.08-1.31,1.31,.02,2.68-.53,1.05-.8,.82-1.6,.02-.53-.55-1.6-.02-1.1,1.1-1.05-.02-3.19,3.18-2.1,.53-1.1,1.61-.8,.25v.55l-.78,.25-2.15,2.15-6.39,3.18-.78,.82,.02,2.66,1.3,1.84,5.34-.55,1.31,.82-2.57,4.79-.92,1.38h-.52l-2.68,2.64-2.66-.02-.51-.52-.57,.55h-5.31l-.51-.55-1.61,.02-3.71,2.15h-.53l-.55-1.06-1.58-.02-1.08,1.61-1.04,.5-2.67,.02-.56,.55-1.56-.02-.8,.8,.27,.78,4.22,.04,.57-.55,1.08-.55,7.44,.57,.52,.51,2.66-.02,2.68,1.63,1.6-.04,2.65,1.6,1.61,.02,.52,.55,1.61-.02,1.32-1.35,.26-.78,1.35-.8-.02-1.61,1.31-.78,2.43,.78-.53,1.61,.77,.8,1.61-.53,.8-.8-.02-2.68,1.88-1.31,1.08-.02,1.05-1.58,1.58-.53,1.9-2.98-1.03-2.11,2.63-1.08,.02-1.58-.53-.55,.02-1.06,1.06-2.11-1.35-.78-1.08-.02-.48-.55h-1.65l-.25-.78,.78-.8,1.91-.28,.23-1.86,2.66,.02,.53-1.06,1.86-.8,.02-1.04,.78-.82,1.05,.02,.57,.52,1.32-.28-.52-1.06v-1.58l-.55-.55v-1.58l1.06-1.06-.02-2.66,.57-1.06-1.88-2.94Zm-21.33,41.06l-.25,.25-.02,.52,.27,.26h.53l.25-.25,.02-.51-.27-.27h-.53Zm15.17,119.53v-.55l-.27-.27h-.52l-.27,.28v.51l.25,.3h.53l.27-.28Zm20.76-67.62v-.52l-.25-.25-.53-.02-.3,.27v.52l.3,.28,.51,.02,.26-.3Zm-20.49,64.68l-.25,.27-.02,.55,.27,.25,1.08,.02,.26-.27-.82-.8-.53-.02Zm25.04-41.51l-.78,.8-.02,.55,.27,.25,1.05-.02,.8-.76v-.55l-.26-.27h-1.05Zm-.02,2.13l-.27,.25,.82,.81,.23-.26v-.55l-.25-.25h-.53Zm-18.58-169.34h.53l.78-.83v-.52l-.25-.26h-.57l-.51-.55h-.53l-.27,.28,.54,.52-.02,1.06,.3,.3Zm23.12,152.57l-1.08-1.58-.02-1.61-.78-.26-.53,.55-1.05-.56-.26,.81-1.62,1.05-.26,.8-2.66-.02-.81-.76-.25-1.88-1.58,1.6-.81,.26-.55,3.21-2.11,2.66-.02,1.58,1.08,1.06,.55,1.08-.57,.53,.04,1.06-.57,1.06-.78,.25-1.85,1.87-.02,2.16,1.6,2.1,.29,2.43,3.72,.5,.25,1.86,.82,.82,1.31-.8v-1.06l-.51-.52,1.84-2.41,.8-.28-.52-1.06,1.05-1.56-.52-.55-.02-1.58-.53-.57,1.06-1.6,.55-3.19,2.93-1.85,2.13-.02,.78-.76,.55-2.16-1.08-1.03,.02-1.61Zm-17.83,30.61l-.55-.02-1.31,1.35-.02,1.06,1.87,1.84h.55l1.08,1.63h.48l.84-.84-.04-.51,1.08-.55,.02-2.68-1.86-.23-2.13-1.06Zm-.53-2.13l.25-.26,.02-.55-.26-.25-1.08-.02-.27,.3v.5l.3,.26,1.05,.02Zm13.04-10.91l-.02,.55,.27,.25,.26-.28v-.51l-.25-.27-.27,.27Z" style="fill:#efc441;"/></svg>