<svg xmlns="http://www.w3.org/2000/svg" viewBox="0 0 800 800"><path d="M92.08,631.06l1.64-6.37.29-.46.66-.76.11-.49,0-.92.12-.89.28-.83.69-1.59.2-.8L96,616.64l0-.58-1.06-3.37-.58-3.22-.6-.55-1,0-4,.46-.41-.21v-1.35l-.14-.43-1.06-1.07-3.39-1.22-1.43-.74-1.49-1.53-1.29-1.93-.84-2.14-.2-2.18,2.33-14,.74-2.29.15-.8-.06-.7-.2-.22-.37.65-.55-.37-1.64.3-2.72.92-.46.37-.26.15-.26.13,1.06-5,.06-.56-.06-.55-.08-.55L73.09,564l-1.38-2.33-.08-.55,1-1.5,2.07-5.2-.55-.59-4.27-1.71-5.25-3.74-1.21,1.93L62,551.61l-1.6.95-2,.64-1.64.25-1.78,0-1.72-.37-1.49-.77L51,551.4l-1.64-3.31-1.15-1.5-.17-.52.09-.31.69-1.41L49.85,541l3.44-7,1.21-1.78,1.43-1.47.75-.43,4.5-1.9.69-.52,3.87-4.34,1.47-2.09.37-1.89-.52-1-1.49-1.89L65,515.51l-.17-.85,0-2.64-.61-1.74-2.69-2.67-.75-1.77v-1l.09-.71-.15-.67-.66-.89-1-1,.06-.43,1-1.77,3.41-4.62.43-.55,1-1.08,1.2-.85,6.66-3.37.8-.58,1.55-1.56,1-.59,1.12-.21,1-.43.63-.76,0-1.35L78.69,482l-.41-.89-.74-.49-2.36-.43-.68-.4-.52-.67-.37-1-.12-.55,0-.37.37-.76.18-.19.57-.3.23-.22,0-.33-.15-.28-.2-.24-.14-.28-.6-4.9-.32-.61-1.29-1-1-1.69.81-1.62,1.69-1.38,1.78-.91L83.94,460l.43-.34.2-.64-.09-.4-.63-1.47-.23-.8-.34-2.51v-1.16l.34-.7,1.52-1.11.83-.82.26-.77,0-.86.23-1.1.49-.95,3.76-4.19.83-.74,1-.55,1.41-.58.34-.43,1.87-3.64.31-1,.55-5.33-.09-1.53L96.5,427l-.89-1.31-.89-1-.71-1.2-.32-1.31.32-1.41.8-1,3.3-2.18,2.67-3.46,1.09-.79,1-.16,2-.24,6.46,1.44,3.12-.31,5.51-2.14,2.76-.64h4.82l5.08.82,4.9,1.78,1.12.06.49-1.38v-24l0-10.66V345.78l0-10.72v-21.4l0-10.74V270.71l0-10.78V215.17h20.66l5.23,0H180.4l.09,0h.2l.08,0,0-.06.06-.06,0-.09.06-.06V133.43l0-5.85v-5.85H254.4l4.07,0H433.9l4.07,0h5.69l.54-.36,2.07-4.41.17-.31,1.86-4,1.09-1.22.81-.43.8-.16.8.13.78.39.92,1,.37,1-.06,1.2-1,3-1.35,4.16h73.19l5.14,4.32,5.68,4.81,5,4.22.09.06,12.83-1.9,5.56-.82,3.56-10.69h97.78l9.76,0h9.81l-.14.71-.12.24-.17.09-.66.09-.74.28,1,.77.4.64,0,5.66.95,6.43-.38,1.32.58.43.14.52,0,.58.26.52.46.49.31.46,2.24,5.63,5.45,8.79,3.56,3.55,4.48,6,.31.77-.08.91-.29.8-.55.4-.8-.37-.83.67-.78-.67-1.14-2.08-.29-.4-.32-.58-.11-.52.29-.25.54.19.32.36.17.46.26.43,1,.77.55.24.37-.21-.08-.37-1-1.25-.66-1.81-.46-.64-.66.21-1.17-.92-.35.49-.31-.09-.26-.46-.17-.61.08-.55.29-.55.09-.55-.46-.59-1.15-.24-.69.76-.29,1.26L689,161l.2.28.52,0,.11.3-.14.56-.15.39.18,1.2v.55l-.18.52-.43.43-.43.15-.28.25v.76l.2.43,1.23,1.5,1.12,2.72.52,2.94.4,6.16.6,2.88,1.87,5.57.08,3-.11.76-.23.74-.4.43-1.27-.19-.14.62.14,1.37-.31,3.31.31,1.9v.67l1,2.73.34,1.65.2,1.5.23,2.24-.63,1.77v.31l-.14.52-.52.67-.2.43,0,1.26.32,1.59,2.67,7.35.22,1.59v3l-.08.82-.2.53-.72,1-.11.73.28,2.79,0,.88,0,.37.17.46.66,1.19.87,2.67,1.66,9.86.34,4.77.15.55.34.34.4.25.26.3v.34l-.23.58,0,.34,1,1.5.51,2.29.86,3,.58,1.93.34,2.39.55.86.91,1.74,1,1.78,1.38,1.32.23.55.37.52.49.27.49-.18.48-.28.29.06,2.53-.39,1.37-.65.2.86.95.52.78.15.86-.06.25.52.09.77.69.64-.32,1.81.66-.4.49-.15.46.39.69.74,4.73,1.41,1.72,1.77,1.18,2.09,1.81,1.89,1.15.8,1.83.77.52.64-.52.79-1.09.62-.28,1.59,1.14,2.63,2,2,2.24.55,1.69-.3.23-1.72.86-.27,1.47-.92.25.49-.37.4-.57.33-.43.34-.06.37,0,.52-.12.55-.48.52-.64.18-.57,0-.46,0-.31.4h.54l1.46-.28.55.1.37.24.35.31.46.27.54.16,1.18.15.57.18.63.13.43-.22.06-.37-.52-.33.66-.62.84.89,1.34,2.27-.4.61.69.46,1.06.09.69-.52.43.74.15,1.83.28.58.83.13.41-.71-.09-1-.57-.92.69.46,1.75,1.9.28.74v.7l.09.46.46,1-.12.43-6,5.26-1.14,1.78-2.53,7.07-1.15,2-.86.71-2.09,1.07-.72.7-.2.92.06,1-.12.89-.71.76-1,.16-.75-.49-.63-.68-.69-.46-1.46.49-.26.06-.2.4.06.31.11.3,0,.49-.43.89-.69.61-.63,0-.23-1,.05-.91-.05-.77-.38-.46h-1l-1,.37-.06,0-2.81,2-1.32,1.78-.83.67-1,.24-.95-.3L719.08,332l-.84-.24-1.46.82L715,336.07l-1.73.95-1.69.25-5.54,1.8-.46.31-.08.52.46,2.11,0,.83-.21,1.93-.25,1-.92,1.71-.2,1-.35.92-2.35,3-3.93-1.16-1.21.12-2,1.29-1.29.09-.6-.09-2.29.39-.41-.09-1.63-1-.43-.18-1.06-.19-.78-.3-.63-.49-.66-.31-.86.12-.26.34v0l-.08.37.08.4.83,1.22.15.89-.2.89-1,1.56.15.49.43.46.37.55.08.58-.05,1.87.05.15.23.43.06.28-.08.18-.29.37-.09.21-.14,2.73-1,2.78-.46.61L681.26,369l-.63.61-.4.86-.06.82.09,1.47-.15.89-.51,1.84,0,.64.28,1.07.55.8.66.73.6.86,0,.12.29.8,0,.82-.14.83-.06,1,.2.95.77,1.87.12,1-.43,1.16L680.66,390l-.69,1.19-1.41,4.2-1.89,5.69-2,6-1.12,2-2.06,2.3-.52,1-2.27,8.76-.11,1.92.57,2-1.38,1-.83,1.41-2.09,6.65-.78,1.28-3.1,3.16-.31.79-.06,1,.46,4.35.86,7.65.29,2.54.49,4.41.63,5.76.63,5.63.95,8.42-3.79,12.4-.17,1,0,1.16.23,1.11.72,2.29.12,2.27-.78,2-1.72,4.56-.17.92-.15,2.57-.37,1.32-6.23,9.52-4,15,.06.89.31.7.15.4,0,.4-.4.67-.6.64-.49.8,0,1,1,1.84.2.67v1.1l-.83,5.05-.35.89-.66.28-1.15-.34-.37-.21-.26-.19-.26-.15-.51-.09h-.38l-12.62,2-1.09.36-.06,0-.57.27-.15.15v.25l-.28,1.16-.06.49-.14.46-.41.49-.37.15-.8.07-.37.15-.38.46-7.89,14-.43,1.29-.11,1.25-.15.55-.37.61-.43.4-.92.49-.4.4-.32.49-.74,2-.43,2.48-.37,1.1-.81,1-1.58,1-.37.4-.11.4V584l0,.83-.09.46-1.26,1.5L607.15,588l-.92.37-1.64,1.1-.63.89-.57,1-.46,1.1-.29,1.1,0,.92.32,1.72-.09,1.83.32,1,.86,1.84.11.86-.14.88L598.71,615l-.14,1,.43,1.23.72.89.54.91-.17,1.41L597.33,629l-.05.49.43.58,1.23,1,.23.67-.32,1.56-.71,1.08-2.27,1.83-.75.8-.17.52,0,.55-.23.8-.54.76-.46.06-.52-.15-.71.06-.52.49-.55,1.38-.34.37-.43-.19-.06-.64.17-1.38-.25-.67-.58-.52-1.23-.83-5-4.78-.52-.21-.71.28-5,3.73-.72.67-.69.95-1.61,3.34-3.61,5.45-.32,1.59.17,1.87,2,10,.06,2-.35,1.9-.14.28-.4.42-.12.25,0,.52.14,1.1-.06.49-1,1.5-2.46,2.45-5.2,15.65-1.29,6.7.15,3.46-7.12,0-.11-.06-.15-.16-.11-.21-.15-.28-.28-1.28-.18-2,.26-3.46.89-4.1,2.7-5.76.14-.49,0-.24v-.34l-.26-1-.31-.89-.15-1.35.46-3,.06-.91-.09-1.2-.2-.76-1.86-5-.63-.8-9.07-8-9.1-7.93-3.29-4.32-.38-.3-.46-.22-9.21-3.64-.43-.37.06-.52.29-.7,1.09-2.08.17-.56.14-.85-2.06-16.78-2.1-16.78,0-.67.17-.43.18-.28.54-.7.46-.73.54-1.32.15-.46.57-6,0-5.24,2.44-8.78.26-3.74-20-.27-.11.21,0,.21.06.28,0,.28v.58l-.18,1.1,0,.58v.58l.32,2.08.52,1.6.08.52,0,.58-.06,1.1-13.91.06-13.95.06,11,13.2.15.24.2.74.08.52.2,4.62-.6,7.35.14,4.71.63,3.07,3,6-.2,1.13-.69,1.44-9.87,8.94L472.78,643l-.55.83-2.75,7.47-2.61,4.31-1.18,1.26-4.59,6.06-9,9.55-9,9.52-2.95,1.26-9,.55h0l-4.74.12-.54.15-.81.31-.48.52-.58.37-.6-.22-.66-.52-11.11-10.65-9.87-6.74-9.89-6.76-1.9,1.22-11.16,5.82-2.32,1.5L375.22,670l-.08,6.49-1.95,3.28-3.53,3.61L360,685.65l-5,2-5.17,2.93-.83.71-3.16,2.63-2.72,2.85-.86,1.74-.06,1.9.17,1.63.52,1.1h-.06l-16.7-.16-16.7-.15-2-2.42-4.28-9.49-.43.19-.69.12-4.13.24-5.37-.85-.23,0-.88.24-.23,0-3.42-.46-6,0-1.92-.36-10.84.27-16.19,5.88-.43,0-2.44-.21-1-.49L247,694.28l-7.89-9.92-7.92-9.89L228,673.16h0l-.57-.68-.49-.67-2.52-4.38-.23-.37-.17-.12-.26-.24-.12-.07-1.14-.36-.64-.28-1.49-1-.34-.3-.26-.31-.12-.18-.08-.25-.26-7-.06-.25-.05-.21-.23-.37-1.81-2.42-.17-.12-.46,0-1.87.52-.89.46-.37.12-.32,0-1.69-.07-.23,0-.69.22-.94.15-1.35,0-.23,0-1.81.49-3.1,1.14-.14,0-.52.15-.49.09-1.66-.06-.52.06-.48.09-.61.22-.4.21-.43.12-.49.07H197l-.49.06-.23.06-.78.4-.23.06H195l-.46-.09-.23,0-.41.15-.22.06h-.26l-.23,0-.26-.09-.43-.22-.23-.06-.49-.09-.29,0-.28.06-.4.19-.26,0-.49-.06h-.26l-1,.42-.49.1-1.06-.13-.46.13-.6.24-.66.22-.26.12-.32.27-.4.55L182.47,665l-.12.46,0,.37.09.52.06.21.34.86.14.46,0,.24,0,.31,0,.25-.46,1.34-1.12,2.42-.23.8-.38.82-.34.49-.57.65-1.15,1.65-.55.67-1.43.92-1.46,1.29-.35.21-.37.19-.46.09-.4,0-.15,0-.14.18-.14.31-.17.92.08,12-.08.55-.32,1-2.55,3.09-1.24,1.2-.31.52-.29.79-.8,8.64-.06.24-.17.43-3.79,6.86-.26.67,0,.31v4.8l-.23.31-.43.25-2,.73-3.82.43-1,.21-4.56,3.07-1.26.64-2.44,2-.23.33-.11.65-.18.3-2.35.34-4.39-.76-1.18.18-.8-.12-1.66-.74-2.36.25-2.64-.65-1.43.06-1.32.65-.69.21-1.35-.4-1.35,0-.54-.21-.63-.49-.66-.31-.69-.06-.78.16-.6.33-1,.83-.63.15-.87-.43-.63-1-.34-1.19,0-1.1.54-1.17,1.72-2.08.72-1.25.52-2.54.06-1.6-.29-1-.75,0-1.55,1.66-1.14.09-1.12-.7-.55-.92-.11-1.11.91-5.72.21-.34.48-.76.63-.28,1.38.06.66-.12.49-.34.92-1,1.6-2.17.58-.46.37-.55-.06-.64-.43-1.38.06-.8,1-3.52,0-.3-.23-.37-.23-.09h-.32l-.32-.55-.11-.43.06-1.41-.09-.58-.4-1.14,0-.49.52-1.31,1.55-2.54.57-1.32.2-1.74-1.23-7.81-.86-2-7-12-7-12-7.63-7.89-4.36-3.25-6-9.28Zm603.78-456,.43.33.15.12.2.59-.49,3.12-.31.76h-.43L695,179l0-1.47.31-1.44Z" style="fill:#efc441"/><polygon points="524.68 121.73 533.52 121.73 543.28 121.73 553.03 121.73 562.18 121.73 562.53 121.73 558.97 132.42 553.4 133.24 547.15 134.13 540.49 135.08 535.5 130.86 529.82 126.05 524.68 121.73" style="fill:#efc441"/><path d="M679.88,121.7h-9.81l-9.76,0H562.53l2.64-9.21,7.29-1.63,7.57-1.68,7.55-1.68,4-9.49,2.12-5,1.4-3.46,3.45-8.35,11.25,3.36,5.59-5.45,5.91-5.72,5.62-5.48.61,1.35.8,1.74.55,4.32.31.73.86,1.63,1.75,2.26,1.09.64-.48-.73-1.18-2.14.8,0,.55.4.34.7.29.83.46,2.29.11.4.69.49.35.52.31.58.55.68.74,1,1.61,1.25,1.52.64.75.28.14.18.52.37.57.31.63.21,2.32.15,3.39.71,3.24,1.13,1.18.77,2,2,.66,1.13.25,2.17.72,1.44,1.24,1.14,1.32,1,.63.3.63.28-.15-.74h.23l.89,1-.23,1.35.72,1.93,2.84,1.35,1.38.82.95.65,2.52,2.2,3.79,3.8.8.43.63-.06.15-.28.08-.31.15-.15.34.09.72.49.34.31.23.34.58,1.4.37.55.63.62,1.61,1,1,.4.14,1.68,0,.58-.26.52-.35.46Zm-9.75-13,.26.4.17.09-.06.8-.09-.49-.45,0-.38,0-.28.06v-.18l0-.46.15-.19.08-.33.2-.1.29-.12.12.19-.09.06-.23.15ZM651.39,90v.25l.12.24-.18.16-.08.24-.32-.52-.23-.21-.11-.28-.29-.15-.34-.37,1-.06Zm-5.91-3.18.11.24,0,.22-.2-.09-.11-.19-.15-.42-.51.52.14.27-.2.25-.14-.77.51-.58.2-.52.43-.31-.05.31-.12.24.06.13.06.46Zm6.89-2.57.57.12.37,0-.2.12h-.34l-.58,0-.48,0-.23.13-.4-.31.31,0,.26-.12.31,0v-.34l0-.34-.15-.27.26.37.17.15v.09l-.14.15.06.22Z" style="fill:#efc441"/><polygon points="526.82 121.73 525.84 122.71 527.19 123.84 529.29 121.73 526.82 121.73" style="fill:#fff"/><polygon points="533.52 121.73 532.82 121.73 529.1 125.45 529.82 126.05 530.45 126.58 535.29 121.73 533.52 121.73" style="fill:#fff"/><polygon points="538.82 121.73 532.35 128.19 533.7 129.33 541.29 121.73 538.82 121.73" style="fill:#fff"/><polygon points="544.82 121.73 535.61 130.94 536.95 132.08 547.29 121.73 544.82 121.73" style="fill:#fff"/><polygon points="553.03 121.73 550.82 121.73 538.85 133.69 540.2 134.83 553.29 121.73 553.03 121.73" style="fill:#fff"/><polygon points="569.46 111.56 566.28 112.27 564.82 113.72 563.83 117.19 569.46 111.56" style="fill:#fff"/><polygon points="597.69 83.34 599.54 81.49 598.57 81.2 597.69 83.34" style="fill:#fff"/><polygon points="556.82 121.73 543.96 134.59 546.85 134.17 559.29 121.73 556.82 121.73" style="fill:#fff"/><polygon points="595.13 89.56 593.72 93.01 593.51 93.52 604.15 82.87 602.25 82.3 595.22 89.33 595.13 89.56" style="fill:#fff"/><polygon points="562.82 121.73 565.29 121.73 577.18 109.84 574 110.55 562.82 121.73" style="fill:#fff"/><polygon points="562.39 122.16 550.96 133.59 553.4 133.24 553.85 133.18 561.15 125.87 562.39 122.16" style="fill:#fff"/><polygon points="589.11 103.92 608.77 84.25 606.87 83.68 590.92 99.63 589.11 103.92" style="fill:#fff"/><polygon points="581.71 108.83 568.82 121.73 571.29 121.73 584.9 108.12 581.71 108.83" style="fill:#fff"/><polygon points="559.39 131.16 557.98 132.56 558.97 132.42 559.39 131.16" style="fill:#fff"/><polygon points="627.55 69.26 627.47 69.08 574.82 121.73 577.29 121.73 628.25 70.78 627.55 69.26" style="fill:#fff"/><polygon points="628.9 75.32 628.71 73.84 580.82 121.73 582.3 121.73 583.29 121.73 629.14 75.88 628.9 75.32" style="fill:#fff"/><polygon points="630.42 78.13 586.82 121.73 589.29 121.73 631.5 79.52 630.42 78.13" style="fill:#fff"/><polygon points="632.05 77.74 631.25 77.71 631.98 79.04 632.69 78.33 632.6 78.14 632.05 77.74" style="fill:#fff"/><polygon points="633.8 82.36 633.69 81.96 633.5 81.04 592.82 121.73 595.29 121.73 634.3 82.72 633.8 82.36" style="fill:#fff"/><polygon points="636.44 85.67 635.79 84.76 598.82 121.73 601.29 121.73 636.96 86.07 636.44 85.67" style="fill:#fff"/><polygon points="640.46 88.02 640.32 87.84 639.57 87.56 639.16 87.39 604.82 121.73 607.29 121.73 640.77 88.25 640.46 88.02" style="fill:#fff"/><polygon points="644.5 89.06 643.55 89 610.82 121.73 611.57 121.73 613.29 121.73 645.71 89.31 644.5 89.06" style="fill:#fff"/><polygon points="645.62 87.29 645.6 87.08 645.56 86.99 645.39 87.15 645.42 87.2 645.62 87.29" style="fill:#fff"/><polygon points="649.96 89.37 650.3 89.74 650.59 89.89 650.7 90.17 650.78 90.24 651.25 89.77 650.99 89.31 649.96 89.37" style="fill:#fff"/><polygon points="648.55 90 616.82 121.73 619.29 121.73 650.38 90.64 648.55 90" style="fill:#fff"/><polygon points="652.6 91.95 622.82 121.73 625.29 121.73 653.84 93.19 652.6 91.95" style="fill:#fff"/><polygon points="655.26 96.99 655.08 95.47 628.82 121.73 631.05 121.73 631.29 121.73 655.52 97.5 655.26 96.99" style="fill:#fff"/><polygon points="657.22 99.57 657.09 99.45 634.82 121.73 637.29 121.73 658.47 100.56 657.22 99.57" style="fill:#fff"/><polygon points="660.54 102.84 660.72 101.83 640.82 121.73 643.29 121.73 660.99 104.04 660.54 102.84" style="fill:#fff"/><polygon points="664.1 106.12 662.97 105.58 646.82 121.73 649.29 121.73 664.6 106.42 664.1 106.12" style="fill:#fff"/><polygon points="666.71 107.84 652.82 121.73 655.29 121.73 668.03 108.99 666.71 107.84" style="fill:#fff"/><polygon points="669.85 110.69 658.82 121.73 660.31 121.73 661.29 121.73 671.09 111.94 669.85 110.69" style="fill:#fff"/><polygon points="674.89 113.31 674.55 113.22 674.4 113.37 674.32 113.68 674.17 113.96 673.54 114.02 672.88 113.67 664.83 121.72 667.31 121.71 675.38 113.65 674.89 113.31" style="fill:#fff"/><polygon points="677.76 117.02 677.13 116.41 676.75 115.85 676.74 115.81 670.85 121.7 673.32 121.7 677.91 117.11 677.76 117.02" style="fill:#fff"/><polygon points="680.51 120.11 680.37 118.43 680.19 118.36 676.85 121.7 679.32 121.7 680.49 120.53 680.51 120.11" style="fill:#fff"/><polygon points="302.81 665.38 300.16 668.03 300.16 670.5 305.29 665.38 302.81 665.38" style="fill:#fff"/><polygon points="308.81 665.38 300.16 674.03 300.16 676.5 311.29 665.38 308.81 665.38" style="fill:#fff"/><polygon points="316.43 665.38 314.81 665.38 300.16 680.03 300.16 682.5 317.29 665.38 316.43 665.38" style="fill:#fff"/><polygon points="320.81 665.38 300.73 685.47 301.48 687.19 323.29 665.38 320.81 665.38" style="fill:#fff"/><polygon points="326.81 665.38 302.55 689.64 303.09 690.88 303.31 691.36 329.29 665.38 326.81 665.38" style="fill:#fff"/><polygon points="332.81 665.38 304.4 693.79 305.17 695.5 335.29 665.38 332.81 665.38" style="fill:#fff"/><polygon points="338.81 665.38 306.26 697.93 307.03 699.63 341.29 665.38 338.81 665.38" style="fill:#fff"/><polygon points="344.81 665.38 308.49 701.7 309.4 702.79 309.87 702.8 347.29 665.38 344.81 665.38" style="fill:#fff"/><polygon points="348.97 667.22 313.36 702.83 315.82 702.85 348.97 669.7 348.97 667.22" style="fill:#fff"/><polygon points="348.97 673.22 319.31 702.88 321.76 702.9 348.97 675.7 348.97 673.22" style="fill:#fff"/><polygon points="348.97 679.22 325.25 702.94 326.1 702.94 327.71 702.96 348.97 681.7 348.97 679.22" style="fill:#fff"/><polygon points="348.97 685.22 331.2 702.99 333.65 703.01 348.97 687.7 348.97 685.22" style="fill:#fff"/><polygon points="348.97 691.25 348.97 691.22 348.8 691.39 348.97 691.25" style="fill:#fff"/><polygon points="342.17 700.37 342.23 698.47 342.73 697.47 337.14 703.05 339.6 703.07 342.18 700.49 342.17 700.37" style="fill:#fff"/></svg>