<svg xmlns="http://www.w3.org/2000/svg" viewBox="0 0 800 800"><path d="M400.88,400.78H401l.06,0,0,0,0,.09v.19l0,0h-.22l0-.14,0-.15Zm-.18-.23.05,0,0,.06v.06l-.07,0-.05,0,0-.14-.07,0,0,0h-.18l-.11,0-.14-.09-.1-.12,0-.12h0l0,0h0v0l.33.21.09.09.05.16,0,.06Z" style="fill:#efc441"/><polygon points="400.78 400.33 400.54 400.33 400.47 400.11 400.4 400.33 400.17 400.33 400.36 400.49 400.28 400.73 400.47 400.58 400.67 400.73 400.59 400.49 400.78 400.33" style="fill:red"/><polygon points="720.11 469.88 715.05 473.74 711.12 480.24 705.65 487.4 703.48 491.04 700.38 499.2 703.89 498.53 705.54 500.96 705.85 504.6 705.54 508.01 705.13 508.34 704.51 508.78 703.79 509.34 703.48 510.22 703.79 510.33 705.23 511.43 705.54 511.76 706.47 515.73 706.68 517.93 706.06 518.92 704.3 520.03 705.13 522.34 706.78 524.33 707.61 524.54 707.71 526.75 706.58 531.71 706.16 532.7 703.99 535.9 703.48 537.77 703.37 539.42 703.68 540.53 704.61 541.63 706.58 543.39 704.72 544.38 703.79 545.71 701.41 553.2 700.17 555.74 689.22 571.61 683.95 583.07 678.07 598.94 675.59 602.91 668.36 610.63 666.5 611.4 664.23 611.73 660.92 611.73 659.37 612.72 657.82 613.6 653.79 624.62 652.04 626.06 649.04 626.39 643.98 624.73 641.81 625.06 639.43 628.26 636.54 629.25 633.65 629.8 630.76 629.91 627.76 629.47 626.01 628.48 625.59 627.16 625.8 625.62 625.59 623.96 624.25 620.21 625.08 617.24 625.49 617.02 626.32 617.02 627.04 616.8 627.25 615.8 627.14 614.92 626.42 613.16 626.21 612.28 626.11 608.97 625.49 608.31 623.42 606.99 620.12 605.66 617.64 605.78 615.26 607.1 612.68 608.64 605.24 610.96 599.46 608.75 584.59 593.32 583.97 591.78 584.48 589.57 587.38 586.49 588.3 584.28 587.48 582.74 584.9 583.07 578.7 585.72 575.7 587.7 569.82 592.99 564.34 595.75 563.1 596.3 561.96 596.08 560.73 594.86 561.24 591.78 560.52 590.24 555.46 590.68 543.37 600.6 539.86 600.38 538 598.06 535.63 597.07 532.94 597.29 530.36 598.39 527.88 601.04 527.05 604.12 526.64 606.99 525.4 609.52 521.06 611.51 515.59 611.4 509.8 610.63 504.22 610.51 495.65 611.29 492.76 610.96 489.56 610.96 483.98 613.71 472.1 616.91 469.1 616.25 467.45 614.81 465.8 611.29 464.66 609.96 463.22 609.08 452.47 606.33 449.99 604.89 441.73 597.73 438.43 595.75 434.81 595.41 433.05 595.97 432.12 596.96 430.88 599.71 429.33 606.55 429.23 613.71 428.41 616.58 424.07 623.63 422.83 624.95 421.07 625.84 419.42 625.62 418.08 624.84 416.63 624.07 414.77 624.62 412.81 627.16 410.54 631.79 408.78 636.53 408.26 639.5 410.02 640.83 416.63 641.15 419.42 641.93 422.31 644.68 423.65 651.08 425.72 654.49 429.75 657.47 431.09 658.68 436.46 666.17 441.63 670.91 442.76 672.68 443.28 674.77 442.97 676.2 442.45 677.64 441.94 679.73 442.14 686.89 442.97 693.29 442.25 699.13 437.39 704.42 427.48 707.62 417.97 705.52 408.57 701.44 398.76 698.8 391.53 699.24 389.15 698.91 386.26 697.7 380.89 693.95 378 692.63 375 692.3 370.67 693.4 367.77 693.73 365.6 693.29 357.75 690.2 357.24 688.33 356.31 686.78 354.96 685.68 351.87 684.58 350.52 683.7 349.49 682.6 348.66 681.27 342.98 678.08 328.21 677.86 324.08 675.98 309.51 654.05 308.38 649.31 307.24 645.78 305.8 638.62 303.83 635.53 302.49 634.76 299.08 634.1 297.64 633.33 297.02 631.9 297.12 626.06 295.36 622.53 289.99 617.46 288.86 614.48 289.79 612.17 290.1 610.51 289.37 608.97 286.89 606.55 286.17 605.11 285.65 602.91 285.96 601.26 286.69 599.49 286.89 597.73 285.65 596.3 282.56 598.72 280.49 599.49 279.46 597.95 280.28 592.55 279.97 591.34 276.15 586.6 275.43 585.16 275.32 582.41 276.05 580.32 276.46 578.44 275.43 576.35 272.33 578.22 271.09 577.34 270.16 570.95 268.71 567.97 264.79 563.67 264.07 561.47 264.58 559.92 265.62 557.83 266.03 556.18 264.58 555.41 259.42 556.18 258.9 556.62 257.87 553.53 260.45 547.69 259.42 546.7 257.66 547.03 254.67 548.57 253.22 548.9 251.36 548.13 250.74 546.7 250.22 545.16 248.99 544.5 248.47 542.84 246.4 534.47 247.85 532.92 250.22 530.83 251.77 528.62 251.05 526.2 246.09 525.65 244.13 524.43 245.37 522.34 246.2 520.91 246.09 519.59 245.68 518.26 245.37 516.28 245.89 515.73 247.95 515.84 248.47 515.18 248.37 513.97 247.64 511.87 247.44 510.66 245.99 507.13 243.41 504.49 242.06 501.62 244.34 496.88 243.82 496.55 243.72 496.44 243.72 496.33 243.41 495.89 242.37 496.88 241.03 497.76 239.59 498.31 238.04 498.09 236.38 496.77 236.69 495.67 237.62 494.46 238.04 492.47 236.49 488.73 236.07 486.96 236.28 484.98 237 481.67 237.21 479.8 236.69 477.81 235.76 476.49 235.45 475.17 236.69 473.18 236.9 472.19 237.21 466.57 236.8 464.26 232.97 456.1 228.22 460.07 224.19 460.73 220.17 459.41 215.41 457.2 215.62 460.18 214.49 461.61 210.25 462.71 209.94 463.26 208.8 464.37 207.67 465.03 207.15 464.37 206.84 463.49 205.91 463.04 204.78 462.82 203.53 462.71 202.61 462.05 200.75 460.84 198.78 460.4 197.34 463.6 195.89 463.82 194.24 463.26 189.59 460.51 187.01 458.97 182.77 458.08 181.53 457.53 180.71 456.76 180.19 455.99 179.57 454.12 179.26 452.35 179.37 451.03 180.09 448.17 180.19 447.06 179.88 445.08 179.88 443.98 182.15 439.24 182.36 436.37 179.88 433.4 176.78 431.52 176.16 431.19 175.85 430.75 174.2 430.42 173.48 430.09 172.86 429.32 172.65 428.77 172.44 428.22 171.31 425.79 170.59 423.04 169.97 421.82 164.28 417.86 156.85 414.66 154.37 412.89 152.61 409.92 151.78 406.5 151.37 399.23 150.75 396.14 147.55 388.76 139.8 376.85 137.43 373.77 127.51 365.39 123.79 360.43 122.35 354.81 120.38 341.03 118.42 334.09 118.73 330.78 120.8 327.37 133.92 313.04 135.67 310.28 136.6 307.09 136.91 303.01 136.5 300.36 135.67 297.94 135.16 295.4 135.78 292.43 137.32 289.89 138.98 287.91 140.42 285.7 141.56 280.41 144.35 273.25 146.93 268.62 149.31 260.46 151.99 256.28 153.23 253.52 153.44 250.44 152.09 247.57 148.07 242.06 146.1 235.45 143.63 233.68 141.04 232.25 139.91 230.04 140.94 224.64 143.42 220.9 146.1 217.81 148.17 215.06 151.27 209.66 152.41 208.44 154.26 208 155.71 208.44 157.16 209.21 159.12 209.54 162.74 208.99 164.49 207.56 166.76 202.93 170.79 198.85 175.85 196.1 181.53 195.77 187.53 198.52 194.14 195.99 197.54 195.33 201.47 195.11 202.3 195.66 204.57 197.97 205.6 198.52 207.56 198.41 210.04 197.53 222.03 196.21 225.85 195.11 227.4 194.44 228.53 193.78 229.88 193.23 231.94 192.9 233.28 193.23 234.52 193.78 235.76 193.89 237.21 192.9 231.74 187.61 231.01 185.85 231.22 183.64 231.74 181.88 233.9 176.37 234.94 171.74 235.97 169.54 237.62 168.54 240.31 168.65 242.27 169.31 243.51 170.97 244.34 174.16 246.71 173.17 249.09 171.74 250.95 169.87 251.67 167.55 250.53 164.36 245.47 157.85 244.44 155.1 244.34 154.77 243.72 153.78 242.17 153.33 240.51 153.33 239.17 154.22 238.97 155.76 239.69 157.3 241.24 159.18 240.82 160.28 239.9 161.05 238.55 161.16 237.21 160.83 236.49 159.95 236.18 158.62 235.97 147.38 235.45 146.94 234.52 146.94 232.97 146.5 230.81 147.49 229.46 147.49 228.95 145.95 229.46 144.19 230.6 142.53 238.04 134.6 239.59 132.06 240.1 128.2 240.31 124.79 240.82 122.25 242.17 118.84 244.23 116.63 245.58 115.2 250.43 113.22 252.5 111.45 253.84 109.47 254.87 107.26 258.49 89.74 259.21 74.42 260.24 69.13 260.55 65.05 262.41 58.44 264.17 54.03 268.09 46.97 268.71 45.21 269.64 43.78 270.88 42.79 274.29 42.13 275.32 41.46 276.15 40.69 276.87 40.36 277.6 39.92 279.56 37.61 280.39 36.83 281.83 36.28 283.38 35.95 285.03 34.19 286.07 33.75 290.3 34.96 299.6 37.38 305.18 38.05 312.61 38.05 324.39 38.49 330.9 38.93 333.48 40.03 338.23 43.12 340.92 44.44 343.81 45.21 350.94 45.87 367.36 49.95 376.86 52.7 384.61 53.04 391.74 55.02 396.8 56.56 401.55 57.89 411.67 60.2 417.97 62.41 421.59 63.51 424.69 64.06 430.57 66.26 440.08 67.25 442.87 70.45 445.04 71.77 445.86 73.98 445.86 87.86 445.97 87.86 447 87.86 447.82 85.33 448.03 82.8 447.93 77.39 447.51 74.53 444.83 68.47 443.28 64.5 445.55 61.19 444 59.76 442.14 59.87 440.39 59.98 438.32 58 437.81 54.8 438.53 52.38 440.9 48.96 441.94 47.3 444 45.1 445.45 43.45 447.62 41.68 450.41 40.58 453.92 39.59 457.64 39.37 471.38 38.71 478.92 38.05 485.22 37.94 521.78 39.92 530.67 41.68 534.9 44.77 537.28 45.87 540.48 46.97 541.51 47.52 543.16 48.96 544.71 50.28 546.26 51.27 546.68 51.38 547.92 51.82 549.26 51.82 550.81 52.04 552.98 52.27 554.63 51.6 556.59 50.72 559.07 50.5 561.65 52.48 564.65 54.91 565.79 57.22 564.03 61.96 561.76 64.61 561.96 64.5 566.1 63.07 567.54 59.43 567.65 55.79 568.47 54.58 571.78 54.58 576.74 58.33 579.83 58.99 581.8 58.55 583.04 57.66 584.17 57.45 587.58 59.65 588.82 59.87 590.16 59.54 591.61 58.99 592.85 58.22 593.68 57.11 594.61 56.23 596.36 55.79 597.81 56.12 599.36 56.89 602.04 58.99 601.32 57.66 600.29 56.45 599.15 55.35 597.91 54.58 595.95 54.14 594.5 54.36 593.16 55.57 591.4 56.67 587.99 57 585.62 55.46 583.55 55.02 581.18 56.45 578.9 56.34 576.53 54.36 574.26 53.04 565.48 50.39 562.38 48.85 559.79 46.97 558.66 45.21 558.14 43.56 557.21 42.45 558.25 40.69 559.59 39.81 563.72 38.05 568.47 37.16 574.57 36.72 579.21 36.72 615.47 38.05 618.26 38.71 624.77 39.48 630.65 40.69 661.02 45.21 679.62 49.62 694.08 52.7 706.68 57 717.52 60.31 721.04 60.75 722.9 61.41 726.72 61.08 727.54 62.41 729.2 63.07 730.02 64.72 729.82 66.37 733.43 73.87 734.36 76.73 732.91 78.61 729.3 85.88 727.54 89.08 726.72 95.47 724.65 108.03 723 114.32 721.14 118.06 718.45 121.59 715.77 124.02 714.43 125.67 713.81 127.21 712.88 130.3 706.47 140.88 703.48 144.52 691.6 153.66 685.3 160.72 683.85 162.81 682.2 165.46 680.44 171.96 679.41 173.06 677.14 174.72 676.41 175.82 676.1 177.58 675.59 178.57 667.32 188.49 664.53 193.23 663.61 195.77 663.19 198.52 664.53 205.03 664.23 207.34 663.5 208.22 659.47 211.2 658.85 212.85 659.06 214.5 659.99 216.71 659.99 236.66 660.51 238.86 661.75 239.74 663.29 240.19 664.74 241.07 666.5 244.04 666.6 246.8 666.08 249.88 666.19 253.85 668.05 259.14 668.36 261.02 668.36 267.63 667.63 270.38 664.64 276.34 664.23 280.41 666.81 297.83 671.46 307.97 672.8 315.02 672.9 319.1 671.97 321.86 670.32 324.83 670.94 327.59 672.7 329.79 674.55 331.11 679.62 332.55 681.16 333.87 681.78 337.29 681.27 339.71 679.31 345.22 678.69 347.76 678.89 351.73 680.34 354.48 685.4 359.44 686.43 360.98 687.98 366.6 689.02 368.04 691.08 369.8 692.11 371.01 695.83 378.4 698.73 380.05 699.35 381.48 699.86 381.37 701 383.25 702.44 386.44 703.99 388.32 704.82 388.98 706.58 389.75 711.74 391.4 713.29 392.5 716.49 397.46 718.04 399.23 721.04 410.69 724.65 416.42 724.65 417.41 726.3 417.08 727.96 416.53 729.61 416.31 730.95 416.86 733.02 419.18 733.95 421.16 733.74 423.7 732.5 427.33 731.26 434.06 731.78 446.29 729.3 452.79 723.83 458.86 723.1 460.95 722.79 463.82 721.76 467.01 720.11 469.77 720.11 469.88" style="fill:#efc441"/><polygon points="720.11 469.88 719.49 472.74 719.38 479.14 720.21 481.56 719.59 487.95 723.52 487.07 725.17 489.83 719.59 493.57 721.14 496.22 725.68 499.2 729.71 499.42 731.57 501.73 730.75 504.93 732.91 509.12 730.02 514.63 728.16 514.52 729.61 516.5 732.91 518.92 733.43 519.81 733.33 523.99 731.78 526.31 731.57 532.81 732.4 537 735.39 539.64 736.32 546.26 733.74 547.25 731.68 550.12 729.92 554.75 730.13 556.51 731.47 559.48 730.95 563.23 731.68 564.66 730.44 566.54 732.71 569.29 732.3 573.7 730.95 576.79 732.91 584.06 731.06 586.6 728.68 589.9 729.3 595.09 727.85 596.52 727.54 599.49 725.79 601.7 721.97 612.39 719.07 615.36 713.91 623.85 711.12 628.15 708.75 629.47 707.92 633.77 709.05 637.74 707.2 640.49 709.26 643.8 712.67 644.79 717.63 648.43 711.33 650.41 710.19 654.05 713.81 658.13 715.46 662.43 711.95 662.98 709.88 662.43 708.54 661.22 703.79 654.82 702.86 654.49 700.59 654.82 697.59 655.48 695.11 656.37 692.42 656.92 684.88 655.81 683.54 655.48 681.68 654.38 677.76 650.52 675.79 649.2 674.86 648.98 673.73 649.2 671.56 649.09 670.11 648.65 667.84 647.44 666.81 647.11 660.3 646.34 657.92 644.9 655.03 641.6 649.87 637.52 649.35 635.75 652.86 635.31 650.07 632.45 647.08 630.13 643.46 628.59 639.43 628.26 641.81 625.06 643.98 624.73 649.04 626.39 652.04 626.06 653.79 624.62 657.82 613.6 659.37 612.72 660.92 611.73 664.23 611.73 666.5 611.4 668.36 610.63 675.59 602.91 678.07 598.94 683.95 583.07 689.22 571.61 700.17 555.74 701.41 553.2 703.79 545.71 704.72 544.38 706.58 543.39 704.61 541.63 703.68 540.53 703.37 539.42 703.48 537.77 703.99 535.9 706.16 532.7 706.58 531.71 707.71 526.75 707.61 524.54 706.78 524.33 705.13 522.34 704.3 520.03 706.06 518.92 706.68 517.93 706.47 515.73 705.54 511.76 705.23 511.43 703.79 510.33 703.48 510.22 703.79 509.34 704.51 508.78 705.13 508.34 705.54 508.01 705.85 504.6 705.54 500.96 703.89 498.53 700.38 499.2 703.48 491.04 705.65 487.4 711.12 480.24 715.05 473.74 720.11 469.88" style="fill:#efc441"/><polygon points="357.75 690.2 350.73 693.07 346.08 695.82 343.7 696.04 341.43 694.83 339.26 692.96 336.89 691.3 334 690.97 331.41 692.08 329.45 693.73 327.28 694.94 324.18 694.83 321.19 694.28 319.12 694.83 312.61 700.34 310.86 701.22 308.79 701.22 298.05 699.24 296.09 698.47 293.61 696.37 292.57 694.83 291.33 693.95 288.03 693.95 283.07 694.61 280.59 694.5 277.91 693.95 273.88 691.75 271.09 689.21 269.33 685.9 268.4 681.27 263.76 677.31 256.52 680.5 243.61 689.1 240.51 688.55 235.04 684.91 231.32 684.47 228.02 685.79 225.85 688 223.88 690.53 221.51 692.85 218.41 694.61 216.24 695.38 214.79 696.82 210.97 707.62 209.42 710.48 199.4 724.04 194.86 727.68 187.84 729.55 183.19 729.77 170.48 727.24 165.01 727.01 160.25 728.34 148.07 734.07 142.9 737.38 140.42 738.37 137.84 738.26 133.3 736.27 130.92 735.94 129.99 737.15 130.2 739.69 131.13 744.54 130.61 747.4 129.58 750.27 127 755.56 124.52 758.65 118.22 759.86 111.09 759.64 106.23 758.32 105.2 756.88 104.06 753.47 102.93 751.81 100.45 750.49 98.8 750.71 97.45 751.7 95.49 752.37 92.7 752.25 89.29 751.59 86.09 750.6 83.51 749.28 82.47 747.96 80.93 745.42 80.31 745.09 78.55 746.3 77.52 748.4 76.69 750.82 75.66 752.8 74.31 753.69 70.8 755.34 69.77 756.33 69.56 757.99 70.39 761.4 70.39 762.95 66.26 765.81 64.3 766.25 64.19 761.18 63.68 756.44 63.99 751.48 65.84 749.39 70.49 746.19 74.73 741.78 76.38 740.57 79.17 736.82 82.06 735.39 86.3 734.62 90.22 731.64 92.08 729.99 94.25 727.79 94.56 721.06 95.28 715.99 96.32 715.22 101.28 716.65 105.3 713.79 109.02 711.03 110.47 711.03 114.29 713.02 119.45 714.12 124.21 716.99 125.65 717.1 129.68 715.88 133.92 715.99 141.35 713.79 143.11 706.96 144.66 700.34 143.42 693.51 143.83 687.23 142.8 681.38 138.25 680.28 137.22 677.09 140.22 676.53 142.59 673.45 140.63 667.94 140.22 660.55 142.39 659.67 142.39 657.8 139.39 655.81 141.35 650.08 138.67 645.45 139.91 641.93 140.22 638.62 144.35 638.07 145.28 637.08 142.7 634.76 144.25 629.69 148.79 623.85 151.47 621.87 150.55 618.56 148.07 620.21 143.52 622.97 139.6 620.43 141.35 616.47 149.82 612.39 150.86 608.09 157.26 608.42 160.15 610.85 161.6 608.64 159.95 605.45 161.5 600.26 162.84 597.4 161.08 594.09 160.15 589.57 161.5 586.27 163.46 585.27 168.52 585.83 169.86 585.61 172.13 580.76 178.44 580.76 182.98 579.32 184.53 577.45 183.19 574.91 181.95 569.74 182.57 569.07 186.49 570.4 190.31 573.15 194.24 569.07 195.89 566.54 198.37 564.88 205.6 565 207.25 564.66 208.29 564.22 210.56 561.69 215.72 556.07 215.83 552.87 215.52 551 213.25 545.05 214.07 540.64 212.01 538.21 205.19 538.43 204.78 537.33 205.09 536.56 207.05 533.8 207.56 530.83 208.6 529.62 208.8 526.42 208.39 525.65 206.01 523.66 205.29 521.13 201.99 517.6 196.82 513.52 193.62 509.78 190.73 507.13 190.52 506.14 190.62 503.16 189.9 500.63 188.15 498.42 185.98 491.81 186.08 489.61 185.15 483.32 185.67 482.22 187.84 479.58 189.07 476.71 188.97 475.17 188.87 472.19 189.8 467.12 188.87 463.82 189.59 460.62 189.59 460.51 194.24 463.26 195.89 463.82 197.34 463.6 198.78 460.4 200.75 460.84 202.61 462.05 203.53 462.71 204.78 462.82 205.91 463.04 206.84 463.49 207.15 464.37 207.67 465.03 208.8 464.37 209.94 463.26 210.25 462.71 214.49 461.61 215.62 460.18 215.41 457.2 220.17 459.41 224.19 460.73 228.22 460.07 232.97 456.1 236.8 464.26 237.21 466.57 236.9 472.19 236.69 473.18 235.45 475.17 235.76 476.49 236.69 477.81 237.21 479.8 237 481.67 236.28 484.98 236.07 486.96 236.49 488.73 238.04 492.47 237.62 494.46 236.69 495.67 236.38 496.77 238.04 498.09 239.59 498.31 241.03 497.76 242.37 496.88 243.41 495.89 243.72 496.33 243.72 496.44 243.82 496.55 244.34 496.88 242.06 501.62 243.41 504.49 245.99 507.13 247.44 510.66 247.64 511.87 248.37 513.97 248.47 515.18 247.95 515.84 245.89 515.73 245.37 516.28 245.68 518.26 246.09 519.59 246.2 520.91 245.37 522.34 244.13 524.43 246.09 525.65 251.05 526.2 251.77 528.62 250.22 530.83 247.85 532.92 246.4 534.47 248.47 542.84 248.99 544.5 250.22 545.16 250.74 546.7 251.36 548.13 253.22 548.9 254.67 548.57 257.66 547.03 259.42 546.7 260.45 547.69 257.87 553.53 258.9 556.62 259.42 556.18 264.58 555.41 266.03 556.18 265.62 557.83 264.58 559.92 264.07 561.47 264.79 563.67 268.71 567.97 270.16 570.95 271.09 577.34 272.33 578.22 275.43 576.35 276.46 578.44 276.05 580.32 275.32 582.41 275.43 585.16 276.15 586.6 279.97 591.34 280.28 592.55 279.46 597.95 280.49 599.49 282.56 598.72 285.65 596.3 286.89 597.73 286.69 599.49 285.96 601.26 285.65 602.91 286.17 605.11 286.89 606.55 289.37 608.97 290.1 610.51 289.79 612.17 288.86 614.48 289.99 617.46 295.36 622.53 297.12 626.06 297.02 631.9 297.64 633.33 299.08 634.1 302.49 634.76 303.83 635.53 305.8 638.62 307.24 645.78 308.38 649.31 309.51 654.05 324.08 675.98 328.21 677.86 342.98 678.08 348.66 681.27 349.49 682.6 350.52 683.7 351.87 684.58 354.96 685.68 356.31 686.78 357.24 688.33 357.75 690.2" style="fill:#efc441"/><polygon points="191.29 461.51 188.89 463.91 189.51 466.11 193.06 462.57 191.29 461.51" style="fill:#fff"/><polygon points="197.45 463.35 197.18 463.62 197.34 463.6 197.45 463.35" style="fill:#fff"/><polygon points="200.75 460.84 200.1 460.7 197.45 463.35 197.34 463.6 197.18 463.62 188.93 471.87 188.87 472.19 188.95 474.67 201.98 461.65 200.75 460.84" style="fill:#fff"/><polygon points="207.15 464.37 206.84 463.49 205.91 463.04 205.78 463.02 185.19 483.61 185.56 486.07 207.2 464.43 207.15 464.37" style="fill:#fff"/><polygon points="220.17 459.41 218.27 458.53 186.02 490.78 185.98 491.81 186.43 493.2 220.21 459.42 220.17 459.41" style="fill:#fff"/><polygon points="224.19 460.73 224.1 460.7 187.71 497.09 188.15 498.42 188.62 499.01 227.43 460.2 224.19 460.73" style="fill:#fff"/><polygon points="234.16 458.64 190.41 502.39 190.62 503.16 190.56 505.07 235.06 460.56 234.16 458.64" style="fill:#fff"/><polygon points="236.8 464.26 236.72 464.08 192.26 508.54 193.62 509.78 193.73 509.9 237.19 466.44 236.8 464.26" style="fill:#fff"/><polygon points="235.45 475.17 236.69 473.18 236.9 472.19 236.92 471.88 196.11 512.69 196.82 513.52 197.54 514.09 235.64 475.98 235.45 475.17" style="fill:#fff"/><polygon points="237 481.67 237.21 479.8 237.17 479.63 200.43 516.37 201.99 517.6 202.01 517.62 236.74 482.89 237 481.67" style="fill:#fff"/><polygon points="236.49 488.73 236.41 488.39 204.51 520.29 205.29 521.13 205.56 522.07 237.19 490.44 236.49 488.73" style="fill:#fff"/><polygon points="236.38 496.77 236.69 495.67 237.61 494.47 207.36 524.79 208.39 525.65 208.72 526.26 237.36 497.55 236.38 496.77" style="fill:#fff"/><polygon points="244.34 496.88 243.82 496.55 243.72 496.44 243.72 496.37 207.19 532.98 207.05 533.8 205.09 536.56 204.78 537.33 205.02 537.99 242.77 500.15 244.34 496.88" style="fill:#fff"/><polygon points="212.37 538.64 244.91 506.02 243.51 504.59 209.91 538.28 212.01 538.21 212.37 538.64" style="fill:#fff"/><polygon points="163.46 585.27 162.58 585.72 161.13 587.17 160.15 589.57 160.39 590.74 165.61 585.51 163.46 585.27" style="fill:#fff"/><polygon points="186.02 570.24 182.83 573.43 183.19 574.91 183.53 575.57 187.77 571.32 186.49 570.4 186.02 570.24" style="fill:#fff"/><polygon points="178.35 580.76 175.53 580.76 161.48 594.84 162.46 596.69 178.35 580.76" style="fill:#fff"/><polygon points="141.35 616.47 140.26 618.94 144 615.19 141.35 616.47" style="fill:#fff"/><polygon points="213.25 545.05 213.45 545.58 247.56 511.39 247.44 510.66 246.86 509.26 213.73 542.47 213.25 545.05" style="fill:#fff"/><polygon points="150.78 608.39 151.07 608.1 150.86 608.09 150.78 608.39" style="fill:#fff"/><polygon points="160.39 603.95 159.95 605.45 160.55 606.62 202.13 564.94 199.35 564.9 160.39 603.95" style="fill:#fff"/><polygon points="215.52 551 215.59 551.45 246.19 520.78 246.09 519.59 245.73 518.41 214.88 549.33 215.52 551" style="fill:#fff"/><polygon points="157.26 608.42 156 608.36 142.24 622.14 143.52 622.97 145.34 621.87 158.07 609.1 157.26 608.42" style="fill:#fff"/><polygon points="246.47 525.69 210.65 561.59 210.56 561.69 208.29 564.22 207.83 564.42 151.26 621.12 151.48 621.87 148.79 623.85 144.25 629.69 143.68 631.55 249.01 525.97 246.47 525.69" style="fill:#fff"/><polygon points="145.28 637.08 144.25 636.16 142.04 638.38 144.35 638.07 145.28 637.08" style="fill:#fff"/><polygon points="246.4 534.47 247.85 532.92 250.22 530.83 251.77 528.62 251.72 528.44 144.25 636.16 145.28 637.08 144.35 638.07 142.04 638.38 140.05 640.37 139.91 641.93 139.13 644.13 246.82 536.18 246.4 534.47" style="fill:#fff"/><polygon points="247.85 540.34 140.25 648.19 141.29 649.98 248.41 542.61 247.85 540.34" style="fill:#fff"/><polygon points="250.74 546.7 250.43 545.77 140.15 656.32 141.85 657.44 251.22 547.81 250.74 546.7" style="fill:#fff"/><polygon points="259.42 546.7 257.66 547.03 256.66 547.54 140.41 664.07 140.56 666.75 259.88 547.15 259.42 546.7" style="fill:#fff"/><polygon points="258.78 556.27 258.07 554.15 141.66 670.84 142.41 672.92 258.78 556.27" style="fill:#fff"/><polygon points="99.33 716.09 97.14 715.46 95.06 717.54 94.59 720.85 99.33 716.09" style="fill:#fff"/><polygon points="65.84 749.39 63.99 751.48 63.98 751.53 66.72 748.79 65.84 749.39" style="fill:#fff"/><polygon points="137.22 677.09 137.47 677.87 138.48 676.85 137.22 677.09" style="fill:#fff"/><polygon points="86.3 734.62 90.22 731.64 92.08 729.99 94.25 727.79 94.32 726.31 85.97 734.68 86.3 734.62" style="fill:#fff"/><polygon points="142.13 681.22 265.75 557.31 266.03 556.18 264.74 555.49 139.85 680.67 142.13 681.22" style="fill:#fff"/><polygon points="110.47 711.03 109.56 711.03 94.32 726.31 94.25 727.79 92.08 729.99 90.22 731.64 86.3 734.62 85.97 734.68 63.73 756.97 64.01 759.52 111.73 711.69 110.47 711.03" style="fill:#fff"/><polygon points="64.26 764.46 64.3 766.25 65.58 765.96 70.34 761.2 69.79 758.92 64.26 764.46" style="fill:#fff"/><polygon points="143.83 687.23 143.81 687.55 266.04 565.04 264.79 563.67 264.74 563.51 143.45 685.08 143.83 687.23" style="fill:#fff"/><polygon points="115.35 713.24 81.81 746.87 82.47 747.96 82.95 748.56 117.68 713.74 115.35 713.24" style="fill:#fff"/><polygon points="121.34 715.26 86.09 750.6 86.09 750.6 88.24 751.27 123.11 716.32 121.34 715.26" style="fill:#fff"/><polygon points="143.42 693.51 143.79 695.59 269.5 569.59 268.71 567.97 268.51 567.75 143.44 693.1 143.42 693.51" style="fill:#fff"/><polygon points="144.66 700.34 143.92 703.48 270.92 576.18 270.56 573.71 144.59 699.97 144.66 700.34" style="fill:#fff"/><polygon points="129.68 715.88 128.31 716.29 92.48 752.21 92.7 752.25 95.16 752.35 131.5 715.93 129.68 715.88" style="fill:#fff"/><polygon points="276.46 578.44 275.59 576.68 142.24 710.36 141.35 713.79 137.74 714.86 101.59 751.1 102.93 751.81 103.24 752.27 276.4 578.7 276.46 578.44" style="fill:#fff"/><polygon points="276.15 586.6 275.43 585.16 275.42 584.88 104.85 755.84 105.2 756.88 105.81 757.72 276.32 586.81 276.15 586.6" style="fill:#fff"/><polygon points="130.2 739.69 130.1 738.55 109.5 759.21 111.09 759.64 111.87 759.66 130.46 741.03 130.2 739.69" style="fill:#fff"/><polygon points="133.3 736.27 134.63 736.85 279.89 591.24 278.63 589.67 132.49 736.16 133.3 736.27" style="fill:#fff"/><polygon points="130.91 745.77 116.89 759.82 118.22 759.86 120.02 759.51 129.77 749.74 130.61 747.4 130.91 745.77" style="fill:#fff"/><polygon points="279.46 597.95 279.65 596.67 138.38 738.28 140.42 738.37 141.57 737.91 280.16 599 279.46 597.95" style="fill:#fff"/><polygon points="286.69 599.49 286.89 597.73 286.75 597.57 152.8 731.84 158.12 729.34 286.01 601.15 286.69 599.49" style="fill:#fff"/><polygon points="286.89 606.55 286.53 605.82 165.59 727.04 168.31 727.15 287.77 607.4 286.89 606.55" style="fill:#fff"/><polygon points="289.79 612.17 290.1 610.51 290.01 610.34 172.91 727.72 175.27 728.19 288.96 614.23 289.79 612.17" style="fill:#fff"/><polygon points="290.47 617.91 179.58 729.05 181.94 729.52 291.92 619.28 290.47 617.91" style="fill:#fff"/><polygon points="295.36 622.53 294.59 621.79 231.98 684.55 234.51 684.85 295.8 623.41 295.36 622.53" style="fill:#fff"/><polygon points="212.07 704.5 187.05 729.59 187.84 729.55 190.66 728.79 210 709.41 210.97 707.62 212.07 704.5" style="fill:#fff"/><polygon points="297.1 627.3 237.79 686.74 239.49 687.87 297.05 630.18 297.1 627.3" style="fill:#fff"/><polygon points="299.08 634.1 298.58 633.83 243.47 689.07 243.61 689.1 251.51 683.84 300.8 634.43 299.08 634.1" style="fill:#fff"/><polygon points="304.24 636.17 262.77 677.74 263.76 677.31 264.98 678.36 305.34 637.9 304.24 636.17" style="fill:#fff"/><polygon points="306.47 641.96 267.78 680.74 268.4 681.27 268.68 682.67 306.95 644.31 306.47 641.96" style="fill:#fff"/><polygon points="308.38 649.31 308.07 648.37 269.78 686.75 270.76 688.6 308.69 650.59 308.38 649.31" style="fill:#fff"/><polygon points="309.87 654.59 273.31 691.23 273.88 691.75 275.01 692.36 311 656.29 309.87 654.59" style="fill:#fff"/><polygon points="313.07 659.4 278.48 694.07 280.59 694.5 280.87 694.51 314.2 661.1 313.07 659.4" style="fill:#fff"/><polygon points="316.26 664.22 286.38 694.17 288.03 693.95 289.43 693.95 317.39 665.92 316.26 664.22" style="fill:#fff"/><polygon points="319.46 669.03 293.04 695.52 293.61 696.37 294.37 697.02 320.59 670.73 319.46 669.03" style="fill:#fff"/><polygon points="322.66 673.85 297.53 699.03 298.05 699.24 299.82 699.57 323.79 675.54 322.66 673.85" style="fill:#fff"/><polygon points="328.21 677.86 327.14 677.37 304.19 700.37 306.58 700.82 329.46 677.88 328.21 677.86" style="fill:#fff"/><polygon points="334.56 677.95 311.83 700.73 312.61 700.34 319.12 694.83 321.06 694.31 337.35 677.99 334.56 677.95" style="fill:#fff"/><polygon points="342.98 678.08 342.44 678.07 325.67 694.88 327.28 694.94 329.45 693.73 330.68 692.69 344.44 678.9 342.98 678.08" style="fill:#fff"/><polygon points="348.66 681.27 347.76 680.76 337.1 691.45 338.76 692.61 349.21 682.14 348.66 681.27" style="fill:#fff"/><polygon points="351.93 684.6 341.62 694.93 343.46 695.92 354.01 685.34 351.93 684.6" style="fill:#fff"/><polygon points="357.63 689.74 357.24 688.33 356.85 687.69 352 692.55 356.76 690.61 357.63 689.74" style="fill:#fff"/><polygon points="720.11 469.88 715.05 473.74 711.86 479.01 719.87 470.98 720.11 469.88" style="fill:#fff"/><polygon points="719.38 479.14 719.42 476.62 702.52 493.56 700.78 498.13 719.47 479.4 719.38 479.14" style="fill:#fff"/><polygon points="719.97 484.09 704.57 499.53 705.54 500.96 705.58 501.35 719.66 487.23 719.97 484.09" style="fill:#fff"/><polygon points="720.23 494.67 724.87 490.03 719.59 493.57 720.23 494.67" style="fill:#fff"/><polygon points="719.59 493.57 724.87 490.03 725.13 489.76 724.07 488 705.69 506.42 705.54 508.01 705.13 508.34 704.51 508.78 703.79 509.34 703.48 510.22 703.79 510.33 704.26 510.69 720.23 494.67 719.59 493.57" style="fill:#fff"/><polygon points="722.79 497.3 706.08 514.05 706.47 515.73 706.54 516.42 724.5 498.42 722.79 497.3" style="fill:#fff"/><polygon points="729.71 499.42 728.73 499.36 705.44 522.71 706.72 524.25 730.51 500.41 729.71 499.42" style="fill:#fff"/><polygon points="730.89 505.21 707.21 528.96 706.58 531.71 706.16 532.7 705.88 533.12 731.86 507.08 730.89 505.21" style="fill:#fff"/><polygon points="730.02 514.63 730.6 513.53 729.53 514.6 730.02 514.63" style="fill:#fff"/><polygon points="729.61 516.5 728.78 515.36 703.68 540.51 703.68 540.53 704.61 541.63 705.02 542 730.1 516.86 729.61 516.5" style="fill:#fff"/><polygon points="733.43 519.81 733.03 519.11 702.52 549.69 701.41 553.2 701 554.05 733.39 521.58 733.43 519.81" style="fill:#fff"/><polygon points="731.71 528.45 690.49 569.77 689.22 571.61 687.29 575.8 731.62 531.38 731.71 528.45" style="fill:#fff"/><polygon points="643.98 624.73 643.6 624.79 640.08 628.31 642.7 628.53 645.87 625.35 643.98 624.73" style="fill:#fff"/><polygon points="733.25 537.75 732.4 537 732.2 535.98 683.21 585.09 681.53 589.6 733.25 537.75" style="fill:#fff"/><polygon points="652.04 626.06 653.79 624.62 654.96 621.42 650.13 626.27 652.04 626.06" style="fill:#fff"/><polygon points="735.54 540.65 678.47 597.86 678.07 598.94 675.59 602.91 668.36 610.63 666.5 611.4 664.7 611.66 654.96 621.42 653.79 624.62 652.04 626.06 650.13 626.27 646.51 629.89 647.08 630.13 648.22 631.01 735.88 543.14 735.54 540.65" style="fill:#fff"/><polygon points="730.26 556.8 730.13 556.51 729.92 554.75 730.19 554.03 651 633.4 652.4 634.84 730.26 556.8" style="fill:#fff"/><polygon points="649.35 635.75 649.84 637.41 651.79 635.45 649.35 635.75" style="fill:#fff"/><polygon points="730.95 563.23 731.26 560.97 652.68 639.74 654.26 640.99 731.25 563.82 730.95 563.23" style="fill:#fff"/><polygon points="732.71 569.29 731.92 568.34 656.81 643.63 657.92 644.9 658.2 645.07 732.6 570.49 732.71 569.29" style="fill:#fff"/><polygon points="731.07 577.21 661.91 646.53 664.44 646.83 731.67 579.44 731.07 577.21" style="fill:#fff"/><polygon points="728.68 589.9 731.06 586.6 732.91 584.06 732.77 583.52 668.6 647.84 670.11 648.65 670.5 648.77 728.74 590.39 728.68 589.9" style="fill:#fff"/><polygon points="727.54 599.49 727.85 596.52 729.3 595.08 729.29 595.03 675.35 649.1 675.79 649.2 677.15 650.12 727.08 600.07 727.54 599.49" style="fill:#fff"/><polygon points="719.07 615.36 721.97 612.39 723.08 609.27 679.86 652.59 681.29 653.99 717.9 617.3 719.07 615.36" style="fill:#fff"/><polygon points="707.92 633.77 708.22 632.18 684.69 655.77 684.88 655.81 687.14 656.14 708.26 634.97 707.92 633.77" style="fill:#fff"/><polygon points="707.48 640.95 691.66 656.8 692.42 656.92 694.87 656.41 708.57 642.69 707.48 640.95" style="fill:#fff"/><polygon points="712.67 644.79 711.87 644.56 701.82 654.64 702.86 654.49 703.79 654.82 704.08 655.21 713.71 645.55 712.67 644.79" style="fill:#fff"/><polygon points="710.29 654.16 706.28 658.18 707.49 659.8 711.62 655.66 710.29 654.16" style="fill:#fff"/><polygon points="717.63 648.43 716.7 647.75 715.28 649.17 717.63 648.43" style="fill:#fff"/><polygon points="712.39 662.91 714.74 660.56 713.95 658.51 710.01 662.46 711.95 662.98 712.39 662.91" style="fill:#fff"/></svg>