<svg xmlns="http://www.w3.org/2000/svg" viewBox="0 0 800 800"><polygon points="40.7 573.8 41.12 573.7 42.48 573.8 43.23 573.62 43.58 573.62 43.95 573.8 44.38 574.43 44.37 575.12 44.04 575.69 43.52 575.92 43.14 576.2 43.24 576.87 43.5 577.64 43.59 578.26 43.18 578.7 36.23 581.1 35.81 581.01 34.98 580.65 34.53 580.63 32.39 581.26 31.71 581.71 31.01 581.94 28.14 584.51 27.86 584.69 27.23 584.88 26.94 585.09 26.78 585.31 26.49 585.83 26.34 586.04 25.93 586.3 25.34 586.42 24.73 586.42 24.29 586.23 24.36 586.01 24.45 585.69 24.53 585.56 23.76 584.57 23.63 584.1 24.17 583.9 24.66 583.89 24.87 583.84 25.12 583.69 25.76 583.06 26.31 582.88 26.51 582.68 26.66 582.47 26.81 582.28 27.16 582.12 28.63 581.96 29.37 581.68 30.18 581.1 30.29 580.96 30.35 580.82 30.4 580.69 30.42 580.63 31.1 580.29 33.21 579.92 33.33 579.8 33.4 579.64 33.47 579.49 33.63 579.43 34.01 579.42 34.19 579.31 34.36 579.11 34.91 578.03 35.05 577.82 35.35 577.53 35.5 577.32 36.29 575.91 36.69 575.44 37.56 574.74 39.99 574.52 40.21 574.4 40.58 573.9 40.7 573.8" style="fill:#efc441"/><polygon points="515.46 454.82 516.42 454.37 518.3 454.24 519.1 454.5 520.64 453.95 521.45 454.01 523.04 455.36 523.67 455.55 523.86 455.67 523.81 455.95 523.56 456.42 523.52 456.6 523.63 456.89 523.62 457.04 523.5 457.22 523.25 457.39 522.8 457.98 522.76 458.17 522.76 458.71 521.93 459.57 522.06 459.82 521.58 460.13 519.92 460.63 519.45 460.47 519.23 459.92 519.1 459.68 518.92 459.57 518.68 459.52 517.98 459.19 517.76 458.96 517.42 458.48 516.25 457.56 515.34 456.14 514.93 455.78 515.46 454.82" style="fill:#efc441"/><polygon points="559.9 312.15 566.1 310.67 572.26 310.9 578.41 311.12 580.1 310.46 580.85 309.89 588.45 308.82 590.12 309.69 591.39 309.82 594.82 311.12 596.45 312.41 597.33 312.82 597.33 313.1 596.02 313.59 595.63 313.94 595.65 314.67 595.21 314.99 591.54 315.31 590.9 315.67 590.3 316.56 590.02 317.74 590.33 318.95 591.16 319.83 595.54 321.02 596 321.32 597.33 322.56 599.01 323.4 599.83 324.37 600.11 324.51 605.63 325.24 606.58 324.94 607.29 324.11 607.94 323.54 610.84 323.4 611.22 323.22 611.63 322.93 612.02 322.82 612.35 323.25 612.55 323.67 612.79 324.02 613.37 324.51 613.81 324.71 614.13 326.29 612.57 327.4 611 329.03 610.67 330.69 609.34 332 608.31 333.37 608 333.75 607.77 334.15 607.45 334.56 607.12 334.87 606.57 335.17 606.35 335.59 606.01 336.64 605.22 338.41 604.77 339.05 601.99 341.17 598.56 342.42 595.92 344.18 595.28 344.31 593.77 346.31 594.14 347.74 593.18 348.82 587.68 349.11 583.84 349.86 582.19 349.43 579.8 348.87 579.35 348.94 579 348.81 578.85 348.62 578.73 348.33 578.51 348.01 578.32 347.21 578.94 346.61 580.33 345.94 580.11 344.81 580.09 344.45 579.97 344.1 579.38 343.6 578.93 343 578.73 342.81 578.68 342.57 578.87 342.14 579.16 341.83 581.41 340.72 582.05 339.94 583.33 339.65 584.34 338.66 584.85 337.94 585.14 337.2 583.2 337.33 582.16 337.81 581.63 338.86 581.19 338.65 581.29 338.19 581.68 337.71 582.11 337.47 581.4 336.7 580.38 336.31 579.31 336.27 576.58 337.2 576.41 337.38 575.73 338.59 574.81 339.23 567.54 339.9 560.28 340.57 559.41 341.07 555.47 341.83 554.5 341.61 552.46 341.7 551.96 341.56 551.47 341.15 551.43 340.72 551.7 340.31 552.6 339.33 552.41 339.04 551.88 338.77 551.37 338.28 551.73 338.01 551.54 337.81 551.32 337.74 550.88 337.76 551.11 337.55 551.35 337.47 551.84 337.47 551.7 336.85 551.61 336.64 557.17 335.32 557.64 335 558 334.46 558.01 334.05 557.89 333.62 557.87 333.06 557.94 332.88 558.18 332.67 558.24 332.5 558.24 332.2 558.21 332.07 558.14 331.99 558.12 331.84 558.16 331.37 558.23 330.78 558.33 330.25 558.42 330.04 559.63 329.06 560.22 328.33 561.1 327.95 561.49 327.54 561.54 326.51 562.27 325.86 563.66 325.06 563.81 324.43 563.63 324.12 563.39 323.86 563.3 323.4 563.63 323.01 565.48 322.56 565.3 322.13 565.06 321.74 564.8 321.5 564.54 321.52 564.09 321.69 560.31 320.68 559.4 319.94 558.12 319.57 551.72 315.79 551.67 315.25 552.08 314.73 553.7 313.62 559.9 312.15" style="fill:#efc441"/><polygon points="563.55 295.86 565.22 294.84 565.71 294.7 567.8 294.78 568.01 294.84 568.11 295.02 568.16 295.31 568.23 295.57 568.38 295.72 568.75 295.6 569.03 295.36 569.3 295.32 569.97 296.27 570.38 296.35 571.16 296 572.23 294.98 572.58 294.84 572.93 294.93 573.06 295.16 573.1 295.54 573.2 296 573.77 297.72 574.18 298.33 575.08 298.65 575.38 298.9 575.58 299.34 575.62 299.92 575.5 300.32 575.08 300.95 574.88 301.35 575.04 301.79 575.23 302.07 575.41 302.38 575.49 302.88 575.42 303.73 575.49 303.98 575.74 304.31 575.69 304.76 575.52 305.69 575.46 306.74 575.73 307.51 575.62 307.78 576.22 308.37 569.11 309.28 562.01 310.19 554.91 311.11 554.02 310.85 554.11 310.72 554.26 310.34 550.27 310.04 549.73 310.25 549.22 310.59 549.11 310.75 549.03 310.92 548.95 311.16 548.55 311.4 548.08 311.52 547.62 311.37 547.29 310.85 548.09 310.54 548.34 310.34 547.97 310.34 547.97 310.04 548.83 309.76 548.78 308.95 549.19 308.64 549.76 308.49 550.17 308.09 549.97 307.86 549.66 307.35 549.38 307.08 549 306.87 544.48 306.42 544.73 305.9 545.16 305.55 545.66 305.35 546.06 305.27 547.65 305.4 548.11 305.13 548.29 304.67 548.24 304.13 548.06 303.64 547.87 303.32 547.44 302.98 546.49 302.76 544.25 301.3 538.93 299.86 539.08 299.6 539.25 299.23 539.45 299.03 545.51 297.77 551.58 296.51 553.01 296.96 554.19 297 555.32 296.55 556.07 295.41 555.98 295.34 555.82 295.19 555.71 295.15 555.71 294.84 556.98 293.77 559.19 293.58 561.29 294.13 562.22 295.28 562.63 296.04 563.55 295.86" style="fill:#efc441"/><polygon points="692.38 281.83 687.98 282.54 683.57 283.24 678.89 285.53 678.61 285.56 674.29 284.66 674.62 284.39 677.61 283.4 678.29 282.83 678.93 282.52 679.46 281.73 679.73 281.55 683.47 281.43 684.16 281.08 684.62 280.47 684.44 279.53 690.96 279.64 694.57 280.99 695.28 281.83 695.81 282.14 702.41 282.11 704.96 281.46 706.39 281.46 707.12 282.39 700.47 283.83 700.54 284.22 700.57 284.38 698.84 284.26 693.39 282.49 692.72 281.93 692.38 281.83" style="fill:#efc441"/><polygon points="494.61 241.59 495.6 241.89 499.25 244.63 500 245.66 500.9 245.95 501.55 246.37 502.76 247.53 502.23 248.92 501.31 249.62 499.48 250.15 498.75 250.56 498.4 250.92 497.78 251.96 496.6 252.78 496.95 253.08 496.37 254.35 495.54 254.63 494.64 254.65 493.82 255.12 495.26 255.38 496.3 255.06 496.6 255.12 496.9 255.53 496.96 256.74 497.2 257.42 496.88 258.13 496.76 258.53 496.71 259.02 496.78 259.33 496.91 259.56 497.05 259.85 497.07 260.32 496.69 261 494.54 261.74 494.91 262.68 495.62 262.62 496.95 261.74 498.25 261.6 498.93 261.35 499.89 260.14 500.52 259.69 501.07 259.04 501.3 257.85 501.36 257.44 501.49 256.88 501.78 255.96 502.16 255.12 502.38 254.26 502.89 253.44 503.48 252.78 504.13 252.27 505.28 251.75 507.13 251.68 508.06 252.46 508.96 252.96 510.87 253.5 513.82 255.34 514.33 256.25 514.42 256.72 514.58 257.82 514.69 258.14 515.04 258.48 515.77 258.86 516.13 259.16 516.54 259.66 516.46 259.75 516.18 259.85 516.01 260.44 516.15 261.01 516.45 261.23 516.81 261.4 517.1 261.74 516.74 261.86 516.32 262.13 515.95 262.57 515.77 263.21 515.78 263.9 515.98 264.31 516.5 264.93 514.81 266.48 512.06 266.77 511.44 267.23 512.5 267.75 515.89 267.52 517.44 268.64 517.7 268.94 517.63 269.51 517.13 270.58 517.16 271.12 517.65 271.59 519.64 271.61 520.23 271.85 522.11 271.84 522.61 271.67 522.97 271.29 523.3 270.81 523.73 270.41 524.3 270.24 525.8 270.44 526.03 270.48 529.4 271.75 530.37 271.86 532.46 271.26 533.38 271.84 533.24 272.13 533.09 272.27 532.95 272.38 532.78 272.53 532.63 272.8 532.68 272.98 532.81 273.1 532.9 273.24 533.03 273.71 533.22 274.19 533.46 274.55 534.9 275.48 535.08 275.69 535.01 276.25 534.68 277.02 534.59 277.56 535.98 277.57 536.43 277.33 536.78 277.28 537.59 277.78 539.73 278.1 544.16 280.39 552.44 282.02 560.72 283.67 561.59 284.17 562 284.26 563.02 284.23 563.36 284.52 563.43 285.06 563.27 285.44 562.99 285.76 562.82 286.1 562.78 286.71 562.95 287 563.24 287.18 563.55 287.49 563.21 288.1 562.78 288.66 562.34 289.06 561.51 289.34 560.99 289.69 560.49 290.15 560.18 290.65 560.34 290.84 560.71 291.55 560.77 291.77 560.58 292.31 560.21 292.44 559.76 292.32 558.55 291.67 556.07 292.03 556.05 292.86 555.58 293.08 554.49 292.9 554.5 292.72 553.64 292.31 552.78 292.33 552.6 292.27 552.4 292.1 552.19 291.87 551.84 291.32 551.72 291.28 551.58 291.4 551.37 291.49 548.41 290.87 547.5 291.77 547.25 292.44 547.11 292.98 546.89 293.32 546.41 293.47 545.09 293.47 544.32 292.98 544.06 292.9 540.09 292.82 539.91 293.16 539.42 293.45 538.45 293.17 537.97 293.16 537.14 293.5 536.79 293.92 536.77 294.56 532.05 293.72 530.5 294.3 528.88 295.49 528.82 295.75 528.92 296.31 529.23 296.91 530.22 297.74 530.62 298.25 524.56 299.23 518.51 300.2 517.95 300.8 518.77 301.76 519.17 302.48 519.8 303.86 519.73 304.42 519.52 305.27 519.21 305.58 518.52 305.89 518.3 306.42 518.56 306.42 518.36 306.72 518.09 306.95 517.86 307.25 517.82 307.78 518.03 308.1 519.16 308.92 519.73 309.13 520 309.38 520.12 309.9 520 310.3 519.7 310.71 519.38 311.03 519.16 311.16 517.74 311.29 517.34 311.57 517.23 312 517.46 312.39 518.52 313.58 519.85 314.14 520.35 315.07 519.73 315.72 515.3 318.1 511.28 317.01 509.7 317.31 508.17 318.4 508.53 319.02 509.87 320.06 509.41 320.84 508.8 321.19 508.13 321.39 507.57 321.74 507.63 322.31 507.43 322.72 507.13 322.99 506.84 323.11 507.47 324.21 507.69 324.51 508.02 324.7 508.39 324.8 508.7 325.05 508.9 325.63 508.71 326.37 509 327.64 509.02 328.39 508.86 329.1 507.24 332.08 507.13 332.72 507.39 333.75 507.24 334.18 506 336.09 506.49 337.2 506.3 338.59 505.25 339.59 504.43 339.78 502.72 339.37 501.59 339.69 501.24 339.68 500.89 339.55 500.32 338.86 499.96 338.86 497.73 339.65 496.58 339.42 496.23 339.65 496.37 340.72 495.83 341.29 494.42 341.56 494.48 341.97 494.62 342.24 494.81 342.37 495.02 342.38 494.9 342.78 494.72 343.01 494.51 343.2 494.3 343.5 493.88 344.72 493.45 345.26 492.42 345.87 492.01 346.51 492.14 346.76 491.92 347.13 491.99 347.52 492.15 347.99 492.25 348.54 492.23 349.14 492.13 349.43 491.51 350.02 491.06 350.78 490.88 351.57 490.96 352.41 491.29 353.3 491 353.86 490.29 354.34 489.96 354.67 489.86 354.88 489.84 355.1 489.84 355.63 489.38 356.07 489.24 356.29 489.44 356.46 489.53 356.72 489.5 357.04 489.36 357.4 489.08 357.55 485.13 357.1 485.42 357.75 487.06 358.6 488.08 359.5 489.12 360.1 488.48 361.13 484.98 364.23 484.4 365.02 484.51 365.74 483.06 366.16 482.28 366.57 481.99 367.39 482.4 367.92 484.86 368.51 485.81 369.06 486.21 369.62 486.79 370.1 486.94 370.33 486.8 371.2 486.24 371.67 485.01 372.2 485.15 372.82 485.25 373.01 484.75 373.36 483.61 373.64 483.32 374.35 483.48 374.73 483.28 374.98 481.79 375.36 481.02 375.9 480.07 376.28 476.21 375.84 475.75 375.63 475.66 375.29 475.74 374.72 475.43 374.57 474.63 374.6 473.8 374.18 473.4 374.12 472.96 374.35 472.9 374.51 472.87 374.78 472.82 375.03 472.71 375.14 472.55 375.17 472.41 375.27 472.31 375.44 472.23 375.7 472.21 376.01 471.86 376.06 471.39 375.8 471.02 375.14 471.2 374.89 471.74 374.35 471.55 374.04 471.52 373.64 471.61 373.19 471.74 372.74 471.51 372.71 471.29 372.6 470.9 372.2 471.09 371.44 471.05 371 470.81 370.76 468.93 370.15 467.94 369.55 465.82 369.17 464.79 368.69 463.71 367.38 460.21 365.11 457.04 364.14 457.5 362.97 458.39 362.44 461 362.01 461.25 361.82 461.85 361.15 462.36 361.06 463.38 361.3 463.91 361.15 464.79 360.68 466.67 360.16 469.11 360.28 469.59 360.54 469.86 360.79 470 361.08 469.96 361.37 469.69 361.69 470.05 361.93 471.62 361.45 471.4 360.42 471.61 359.94 472.08 359.82 474.04 359.96 474.75 359.82 475.11 359.26 474.31 358.98 471.38 359.11 470.73 359.48 470.34 359.56 470.1 359.46 469.33 358.72 468.67 358.5 468.01 358.44 467.43 358.18 466.92 357.4 466.91 357.22 466.94 356.72 466.92 356.54 466.85 356.4 466.69 356.27 466.61 356.15 466.32 355.89 465.87 355.89 465.41 356.06 465.1 356.29 465.07 356.83 463.76 356.5 463.3 356.54 463.21 357.15 463.5 357.68 464.26 358.45 463.81 358.65 462.46 358.72 461.25 359.23 460.88 359.2 460.35 359.01 454.29 358.93 453.47 358.54 452.41 358.32 451.63 357.96 450.89 357.36 450.37 356.54 450.64 356.42 450.73 356.15 450.65 355.88 450.38 355.75 449.71 355.81 449.37 355.74 449.07 355.48 449.29 354.98 449.4 354.8 449.54 354.67 448.92 353.94 441.35 351.95 438.92 352.22 438.48 352.09 437.61 351.52 437.18 351.39 436.27 349.8 436.15 349.63 436.07 349.61 436.03 349.5 436.02 349.08 436.06 348.9 436.27 348.14 433.38 347.6 433.04 347.31 433.04 346.64 433.24 345.89 433.49 345.43 430.57 343.42 430.14 343 429.87 342.38 429.98 342.28 430.25 341.85 430.15 341.75 430.09 341.66 430.01 341.58 429.87 341.56 429.87 341.29 431.18 341.51 431.56 341.29 431.01 340.44 429.77 339.86 429.16 339.4 429.24 339.04 429.21 338.68 429.14 338.34 429.03 338.01 429.77 337.84 431.94 336.64 438.35 335.94 439.78 336.46 441.09 338.01 440.87 338.47 440.54 338.82 440.2 339.04 439.89 339.1 440.24 339.69 440.87 339.73 442.06 339.4 443.12 339.62 443.61 339.49 444 338.86 444 337.89 444.07 337.56 444.23 337.44 446.52 337.47 448.14 336.81 448.95 336.72 450.7 337.57 456.96 337.85 463.23 338.12 463.65 338.43 463.95 338.73 464.77 339.29 465.8 339.6 466.46 340.12 467.64 341.43 468 341.69 469.33 341.85 469.7 341.75 469.7 341.49 469.21 340.75 469.68 340.43 471.26 340.75 470.58 339.9 467.52 339.4 466.32 338.82 465.62 338.14 464.95 337.73 464.68 337.33 464.03 336.61 463.1 336.23 455.35 335.35 447.61 334.45 446.64 334.77 446.15 334.7 445.85 334.46 445.29 333.83 444.95 333.6 444.21 333.42 443.87 333.21 443.64 332.8 445.72 332.06 448.78 331.99 450.24 331.25 456.84 330.31 463.44 329.38 470.04 328.44 471.68 327.44 476.4 327.16 481.13 326.89 482.6 327.61 483.64 327.5 484.03 327.68 484.38 328 484.84 328.27 485.28 328.34 485.61 328.08 484.81 327.44 483.85 327.03 482.01 326.73 481.33 326.45 480.74 325.78 479.7 324.22 480.15 323.74 480.64 323.86 481.15 324.19 481.63 324.22 482.86 323.3 483.32 323.11 483.13 322.98 482.97 322.81 482.83 322.59 482.73 322.3 482.95 322.27 483.15 322.17 483.36 321.99 483.55 321.74 479.21 322.81 478.63 323.17 478.39 324.22 477.84 324.67 469.93 325.29 462.03 325.91 458.69 324.21 457.96 324.11 453.65 325.06 449.79 327.71 444.14 328.11 443.25 328.57 442.39 328.58 440.61 327.61 439.78 328.08 441.71 328.63 441.15 328.97 438.66 329.03 436.88 328.63 435.74 328.96 435.2 328.96 434.31 328.06 433.69 327.98 432.54 328.39 430.8 330 429.85 330.56 429.09 330.17 428.58 329.57 428.09 329.6 427.04 330.04 426.57 329.98 426.25 329.78 425.98 329.35 425.64 328.63 426.63 328.34 427.1 327.94 427.46 327.28 426.82 326.24 426.05 325.86 425.24 325.69 424.46 325.33 424.72 324.9 424.82 324.25 424.8 323.54 424.63 322.98 424.48 322.55 424.14 321.28 424.1 320.88 424.36 320.02 424.66 319.75 424.8 319.5 424.56 318.67 424.27 318.13 423.68 317.49 423.37 316.98 423.8 316.68 425.3 316.73 426.81 315.99 427.6 315.81 428.01 315.42 428.25 315.31 429.86 315.36 430.77 315.67 431.92 316.41 434.83 319.09 435.12 319.22 435.23 319.45 435.32 319.93 435.45 320.42 435.66 320.64 436.42 320.69 436.73 320.53 436.94 320.03 436.83 319.71 436.73 319.03 436.69 318.44 436.31 317.68 435.04 316.71 434.53 316.03 434.69 315.45 441.76 314.99 448.82 314.52 448.65 314.23 448.1 313.68 448.55 313.27 449.7 312.66 450.19 312.56 450.66 312.34 451.55 311.38 452.42 310.98 453.4 310.21 455.56 309.55 458.01 309.5 459.02 310.18 460.41 310.52 460.88 310.34 461.05 309.73 460.7 309.3 459.38 308.78 459.07 308.45 458.59 307.51 458.95 306.93 459.5 306.49 462.21 305.28 462.79 305.32 463.44 305.51 464.07 305.57 466.94 304.91 467.39 304.54 467.63 304.43 468.29 304.43 470.98 305.39 476.64 305.14 482.3 304.9 485.13 303.42 486 303.19 486.91 302.62 488.21 302.38 488.59 302.11 488.63 301.61 488 301.13 486.9 301.22 480.79 303.56 476.86 302.71 476.46 302.51 476.14 302.06 476.09 301.9 475.99 301.39 475.97 301.22 475.85 301.09 475.08 301.08 473.04 301.61 472.69 301.46 472 300.87 471.62 300.8 471.62 300.51 471.93 300.51 472.25 300.41 472.86 300.01 473.34 299.52 473.49 299.24 473.67 298.8 473.9 298 474.04 297.62 474.27 297.25 474.54 296.98 477.2 295.1 477.72 294.44 477.94 294.01 478.2 293.63 478.46 293.35 478.74 293.16 480.07 293.08 480.37 292.75 480.4 291.7 479.7 291.46 476.88 291.77 476.68 291.63 476.66 291.06 476.56 290.77 476.42 290.59 475.57 289.8 475.02 289.87 474.51 290.37 473.82 291.49 473.1 292.12 472.51 292.36 472.26 292.6 472.1 293.16 472.41 293.39 472.38 293.86 472.14 294.4 471.84 294.78 471.76 294.93 471.64 295.57 471.56 295.86 471.4 296.05 466.55 297.99 466.65 299.06 465.85 299.55 460.89 300.05 455.94 300.55 454.23 299.48 452.81 297.09 452.71 296.18 452.47 295.63 452.12 295.33 451.6 295.15 451.8 294.87 452 294.66 452.22 294.56 452.31 294.3 455.28 294.03 455.65 293.81 456.06 293.25 456.4 292.48 456.66 291.02 456.89 290.23 456.99 289.52 456.57 289.04 456.53 288.67 456.51 288.25 456.41 287.94 455.99 287.55 455.82 287.33 455.69 286.95 455.96 286.86 456.25 286.64 456.77 286.1 456.41 285.61 455.62 285.06 455.27 284.52 454.93 284.34 454.41 284.57 453.53 285.38 452.32 287.09 452.13 287.59 452.08 288.21 452 288.72 451.71 288.93 451.77 289.29 451.88 289.54 452.02 289.71 452.2 289.77 451.84 290.34 452.07 290.43 452.17 290.68 452.18 291.05 452.08 291.49 452.29 291.46 452.47 291.55 452.65 291.73 452.81 292.03 451.89 292.41 449.23 292.77 448.58 294.03 448.69 294.08 448.94 294.3 447.9 294.83 446.79 294.42 444.71 292.9 444.95 292.49 445.24 292.19 445.47 291.82 445.56 291.19 445.43 290.6 444.95 289.72 444.95 289.21 443.42 289.13 442.56 289.34 441.67 289.88 440.73 291.01 439.19 291.15 438.44 291.49 438.44 291.77 439.85 292.08 440.14 292.33 440.21 292.78 440.15 293.09 440.06 293.41 440.01 293.89 440.05 294.02 440.13 294.08 440.21 294.2 440.25 294.44 440.23 294.64 440.15 295.04 440.14 295.28 440.24 295.75 440.48 296.04 440.77 296.26 440.99 296.56 440.5 297.04 439.44 296.95 438.92 297.09 437.36 298.8 437.99 299.84 439.08 300.35 441.17 300.51 441.88 300.76 442.5 301.39 443.05 302.29 443.52 303.32 442.27 303.73 438.56 303.6 438.68 303.87 438.23 304.23 437.68 304.02 436.63 303.32 436.07 303.28 435.63 303.46 435.29 303.86 434.94 304.43 435.15 304.82 435.66 305.24 435.91 305.55 436 305.77 436.27 306.7 435.56 306.83 432.83 308.54 432.39 309.05 431.94 309.37 431.31 309.2 431.45 308.63 431.72 308.24 432.03 307.92 432.31 307.51 430.97 307.78 430.71 307.71 430.49 307.6 430.27 307.57 430 307.78 429.74 308.19 429.63 308.64 429.63 310.04 429.26 309.56 428.81 309.17 427.04 308.24 426.58 308.21 426.13 308.37 426.6 309.04 427.78 309.76 428.07 310.59 421.84 310.29 415.62 309.98 414.44 310.34 413.57 310.95 413.16 310.97 412.3 310.3 411.71 309.65 411.44 309.2 412.06 308.63 412.27 308.37 412.17 308.18 412 307.7 411.92 307.51 412.15 307.23 410.47 306.11 411.3 306.11 411 305.09 410.5 304.6 406.96 303.87 405.4 302.75 404.31 301.49 403.77 301.22 402.98 300.23 402.04 299.77 401.77 299.37 404.75 298.55 413.03 298.51 416.49 297.09 415.57 296.58 414.51 296.69 412.51 297.4 407.73 297.21 402.95 297.03 402.25 296.73 401.88 295.72 402.01 295.41 401.51 294.91 395.76 294.13 394.37 293.34 393.7 293.16 393.31 292.91 392.93 292.35 392.77 291.69 393.08 291.19 392.63 290.48 391.97 290.17 390.73 290.08 390.31 289.94 389.78 289.57 389.32 289.11 389.11 288.64 389.5 288.12 390.67 285.94 391.53 285.4 393.41 285.75 394.29 285.53 393.66 284.63 392.87 284.16 387.72 282.85 386.7 282.11 385.56 281.66 384.31 280.59 383.88 280.07 383.67 279.27 387.77 278.78 393.77 280.52 399.77 282.25 403.74 282.21 404.31 281.83 404.19 281.51 403.82 280.68 403.51 280.14 403.46 279.96 403.45 279.42 403.41 279.22 403.34 278.99 402.86 278.29 402.27 278.06 396.53 279.22 395.02 278.7 395.53 278.36 396.14 278.16 397.3 278.13 396.88 277.7 396.42 277.55 395.43 277.56 391.35 275.71 390.31 275.58 389.82 275.26 390.76 274.88 391.19 274.58 392.01 273.36 392.88 273.06 393.32 272.69 393.2 272.4 393.06 272.2 392.9 272.1 392.72 272.1 393.53 271.46 393.75 271.12 394.07 270.31 394.25 270.04 394.53 269.81 395.32 269.52 396.99 269.55 397.78 269.23 397.52 268.71 396.71 268.62 396.46 268.1 397.16 267.34 397.42 267.23 397.29 266.98 397.2 266.68 397.06 266.09 397.18 265.96 397.42 265.51 396.82 265.46 395.13 266.09 392.48 265.77 393.73 267.67 393.93 268.1 393.58 268.73 392.81 268.71 392 268.3 391.52 267.8 391.65 267.52 391.38 267.36 390.55 266.51 390.41 266.2 390.32 265.81 390.2 265.45 389.95 265.2 389.95 264.66 388.26 265.2 388.38 265.51 388.2 265.86 387.97 266.08 387.53 266.37 388.23 266.75 389.94 269.09 390.5 270.32 390.12 271.13 382.71 274 381.8 273.96 381.02 272.97 381.39 272.75 381.31 272.39 380.89 271.84 380.85 271.53 380.78 270.26 380.63 269.12 380.27 268.26 379.78 267.71 378.96 267.39 378.69 267.07 378.48 266.66 377.97 265.39 377.8 265.18 377.51 264.93 376.25 264.37 374.99 262.62 376.01 262.32 376.31 262.04 375.51 261.6 375.36 261.44 375.24 260.93 375.33 260.77 375.52 260.7 375.72 260.57 376.14 260.11 376.31 259.74 376.25 259.29 376.18 259.03 376.12 258.71 376.03 258.41 375.89 258.3 375.69 258.18 374.99 257.42 374.04 256.9 373.22 256.83 372.78 256.66 372.39 256.23 372.09 255.38 372.64 254.58 381.02 254.52 380.36 254.05 375.24 253.08 375.45 252.55 375.84 252.16 378.03 250.83 385.42 251.78 385.84 251.6 385.8 251.02 385.35 250.67 384 250.32 381.89 248.76 381.55 248.36 381.26 247.81 381.36 247.75 381.53 247.59 381.62 247.53 381.59 247.39 381.55 247.1 381.49 246.93 381.62 246.76 381.98 246.11 381.13 245.5 381.79 244.96 382.78 244.9 386.18 245.84 387.01 245.85 387.65 244.92 387.05 244.05 387.48 243.87 388.44 244.2 388.79 243.91 389.03 243.45 389.29 243.11 389.58 242.92 391.47 242.46 392.26 242.53 392.9 243.32 393.17 243.78 394.05 244.37 394.38 244.83 394.42 245.12 394.31 245.32 394.29 245.5 394.7 246.07 395.88 247.24 395.98 247.81 396.26 248.07 396.4 248.14 396.58 248.13 396.48 248.31 396.22 248.99 397.3 249.68 397.9 249.81 398.38 249.59 398.24 249.41 398.12 249.19 397.9 248.68 398.4 248.31 398.9 248.53 400.35 250.09 400.63 250.18 401.22 250.04 401.31 249.98 401.47 249.44 401.54 247.96 400.74 247.14 398.99 246.38 399.23 246.04 398.87 245.8 398.99 245.5 398.71 245.41 398.44 245.17 398.28 244.73 398.26 244.05 398.43 243.73 398.99 242.87 402.28 243 403.34 243.45 404 244.04 404.12 244.2 404.29 244.53 404.66 244.76 404.78 244.92 404.93 245.54 404.77 245.91 404.07 246.38 404.84 246.74 407.44 245.5 408.91 245.58 411.51 244.53 412.29 243.97 414.05 243.23 417.4 242.88 419.27 241.95 423.26 241.99 427.03 240.95 427.83 241.13 428.58 241.61 429.73 242.85 429.8 243.15 429.87 243.77 429.9 244.27 429.87 244.69 429.91 245.08 430.12 245.5 428.79 247.1 425.99 248.42 417.62 248.97 417.21 248.68 416.37 249 413.23 248.99 413.47 249.59 413.18 249.85 406.77 253.18 405.31 253.33 404.18 253.15 403.65 253.38 403.34 254.26 403.88 254.35 404.99 254.98 405.56 255.12 406.13 255.02 407.8 254.26 411.27 254.12 413.58 253.05 416.2 253.31 418.06 252.84 419.98 253.33 420.94 253.27 421.4 253.51 421.67 254.26 420.57 255.74 420.22 255.96 419.92 256.05 419.32 256.46 419.02 256.56 418.68 256.52 418.03 256.27 417.69 256.25 417.88 256.79 418.05 257.42 417.87 257.46 417.73 257.62 417.62 257.9 417.57 258.3 418.29 258.39 421.04 259.73 421.43 259.66 421.56 259.16 421.44 258.86 420.7 257.98 421.37 257.54 422.27 257.41 423.19 257.58 423.86 257.98 423.94 258.17 424 258.68 424.1 258.88 424.34 259.02 424.9 259.11 426.37 259.7 426.73 260.02 426.81 260.55 427.21 260.92 428.37 261.68 428.45 261.82 428.81 262.75 428.95 262.89 429.16 262.9 428.97 263.9 428.93 264.4 429.03 264.93 428.68 265.34 428.81 265.87 429.21 266.26 429.64 266.3 430.19 266.14 430.57 266.33 431.33 267.04 431.89 266.89 432.44 266.06 433.38 263.79 433.1 263.58 432.42 262.35 432.03 261.95 431.22 261.5 430.85 261.18 430.98 260.87 431.13 260.63 431.28 260.44 431.45 260.32 431.15 259.89 430.98 259.3 430.78 258.79 430.02 258.34 429.63 257.85 429.46 257.36 429.75 257.11 428.83 255.91 428.55 255.38 428.85 255.11 429.75 253.94 431.92 252.68 435.04 252.52 435.54 252.2 434.94 252.15 433.73 251.61 433.14 251.6 433.69 250.76 435.33 250.26 436.02 249.86 435.45 249.9 435.18 249.82 434.94 249.59 435.47 248.97 437.71 247.05 439.26 245.01 439.66 244.29 439.89 244.05 440.26 243.96 445.71 245.57 446.88 246.52 449.81 250.32 450.38 250.83 451.24 251.16 451.87 251.78 452.83 252.15 453.14 252.42 453.41 252.78 453.01 253.45 453.04 253.69 453.17 254.26 453.31 254.61 453.47 254.83 453.54 255.13 453.41 255.67 453.68 256.21 454.01 256.63 454.72 257.11 454.56 257.89 454.64 258.35 455.2 259.16 455.42 259.66 455.78 260.73 456.06 261.18 455.93 261.91 456.16 262.49 456.5 263.02 456.66 263.65 456.96 264.34 457.65 264.74 458.87 265.13 459.27 265.57 459.85 266.77 460.28 267.23 461.33 267.61 461.81 268.03 462.09 268.94 461.93 268.93 461.86 268.97 461.33 269.79 460.13 271.03 459.8 271.84 459.83 272.92 460.22 273.47 460.74 273.44 462.38 271.23 463.73 271.43 465.05 272.62 466.18 273.97 466.53 274.28 467.63 274.95 467.91 275.33 468.04 275.72 468.12 276.69 468.12 277.26 468.11 277.68 468.18 278.06 468.49 278.54 468.83 278.88 469.58 279.36 469.93 279.68 470.19 279.85 470.77 279.91 471.02 280.09 471.1 280.3 471.22 280.85 471.26 280.99 471.61 281.42 471.93 281.64 473.47 281.84 474.2 281.6 474.45 281.03 473.8 280.09 473.85 279.94 473.87 279.81 473.88 279.67 473.92 279.53 472.94 279.27 472.52 278.83 472.25 277.26 471.98 276.88 471.69 276.62 471.45 276.26 470.83 274.33 470.52 273.83 469.51 272.88 469.21 272.38 469.02 271.85 468.73 270.77 468.55 270.26 468.49 269.75 468.5 269.02 468.46 268.37 468.31 268.1 468 267.88 465.98 265.75 465.1 265.2 465.27 263.95 464.98 262.51 464.57 261 464.29 258.9 464.13 258.09 463.73 256.7 463.52 256.38 463.33 256.21 463.22 255.94 463.3 255.38 463.48 255.12 464.36 254.52 463.99 254.28 463.21 254.22 462.87 253.8 462.76 253.42 462.67 252.78 462.52 252.33 462.17 251.78 461.24 250.66 461 250.15 461.33 249.84 461.1 249.43 460.28 248.68 460.36 248.53 460.59 247.99 460.64 247.81 460.58 247.52 460.51 247.43 460.45 247.38 460.4 247.25 460.24 246.78 460.03 246.33 459.79 245.98 459.56 245.8 459.9 245.09 460.04 244.92 459.72 244.42 459.53 243.81 459.51 243.09 459.68 242.3 460.17 241.5 460.81 241.16 467.62 241.89 468.23 241.43 467.61 240.42 465.97 239.75 465.28 238.91 465.1 238.51 465.03 238.24 465.1 237.92 465.35 237.31 465.65 236.86 466.79 236.12 466.59 236.04 466.43 235.86 466.28 235.6 466.2 235.24 466.53 235.15 467.21 234.75 468.29 234.52 470.29 233.25 471 233.02 471.62 233.13 472.29 233.48 475.34 233.87 475.6 234.07 475.7 234.35 475.81 235.09 475.91 235.38 476.25 236 476.67 236.54 477.52 237.31 478.07 237.59 478.34 237.85 478.5 238.2 478.44 238.51 478.09 238.89 478.02 239.22 478.25 239.68 480.25 241.21 480.85 241.47 481.42 241.31 481.89 240.5 481.69 240.35 481.15 239.68 481.03 239.36 481.13 238.75 481.4 238.42 482.79 237.5 488.17 238.24 490.47 239.57 493.32 240.27 493.87 241 494.61 241.59" style="fill:#efc441"/><polygon points="537.04 217.02 537.61 217.23 537.54 217.65 537.49 217.82 537.84 218.09 537.97 218.11 537.78 218.65 537.66 219.13 537.73 219.46 538.09 219.59 538.49 219.52 538.72 219.27 539.06 218.44 539.6 217.74 540.36 217.47 543.09 217.64 543.68 218.09 543.77 219.03 544.76 219.9 545.82 220.48 545.67 221.11 545.58 221.42 545.44 221.69 546.06 222.42 546.65 222.87 547.27 223.03 550.27 222.29 551.01 222.58 550.68 222.86 549.85 223.37 549.56 223.76 549.42 224.35 549.53 224.69 550.03 225.24 550.55 226.15 550.77 226.41 551.25 226.7 551.77 226.82 557.24 225.85 558.78 224.79 559.58 224.65 559.41 224.81 559.29 225.03 559.18 225.28 559.1 225.52 559.29 225.65 559.42 225.83 559.7 226.41 559.45 226.41 559.45 226.73 559.92 226.69 560.34 226.54 560.74 226.24 561.13 225.79 561.19 225.57 561.18 225.29 561.23 225.06 561.45 224.97 561.64 224.93 561.84 224.83 562.04 224.69 562.22 224.49 563.19 224.13 565.24 225.69 566.21 225.52 565.58 225.02 565.35 224.97 565.76 224.08 566.57 223.84 568.74 224.2 569.09 224.67 569.64 226.27 569.64 226.73 569.32 227.03 568.63 227.29 567.48 228.08 566.46 228.44 564.39 230.52 564.78 230.96 565.28 230.91 567.28 229.6 568.4 229.38 568.88 229.56 569.77 230.34 572.59 231.14 572.47 231.46 572.85 231.83 573.57 232.32 574.18 233.27 574.88 233.71 575.26 234.07 575.09 234.41 574.52 234.97 575.38 235.54 575.02 236.23 574.88 236.41 575.58 236.68 576.43 236.63 577.26 236.26 577.91 235.54 577.5 234.84 577.06 234.37 577.88 233.97 579.15 235.44 579.85 235.24 579.14 234.25 578.9 233.99 578.11 233.75 577.74 233.49 577.55 232.9 579.34 233.09 579.6 232.9 579.34 232.4 578.02 231.14 578.32 230.52 578.63 229.67 578.64 229.43 578.5 229 578.51 228.76 578.62 228.57 579.11 227.87 579.49 227.09 579.64 226.37 579.6 225.6 579.35 224.65 579.86 224.03 581.13 223.66 581.58 223.04 581.38 222.53 578.15 221.37 578 221.24 577.45 220.58 577.3 220.21 577.39 219.36 577.73 218.58 578.15 218 578.27 217.5 579.5 216.89 583.45 217.5 583.45 217.82 583.21 218.49 582.6 219.89 582.23 220.48 582.63 221.2 583.31 221.56 584.66 221.69 584.38 221.39 584.11 221.19 583.87 220.93 583.7 220.48 584.04 220.4 585.05 219.67 585.39 219.57 585.55 219.45 585.62 219.17 585.67 218.78 585.78 218.47 585.93 218.25 586.1 218.11 586.01 217.99 585.74 217.5 586.03 217.18 585.71 216.74 585.37 216.09 585.62 215.12 585.39 215.04 585.07 214.84 584.78 214.53 584.66 214.12 584.81 213.72 585.2 213.57 585.98 213.66 588.63 215.45 593.75 216.33 595.39 217.23 595.1 217.5 594.75 217.69 594.07 217.82 594.36 218.05 594.5 218.1 594.67 218.11 594.24 218.44 592.38 218.53 591.57 218.94 591.18 219.03 591.55 219.48 592 219.63 592.86 219.59 592.8 219.97 592.71 220.24 592.56 220.42 592.38 220.48 592.73 220.47 593.83 220.8 594.6 220.75 594.96 220.9 595.27 221.37 594.24 221.79 594.23 222.02 594.3 222.32 594.31 222.58 594.3 222.81 594.43 223.21 594.43 223.44 594.26 223.81 593.97 223.98 593.68 224.06 593.03 224.53 590.52 224.92 590.02 225.22 589.49 227.62 589.14 228.67 589.16 228.94 589.37 229.38 590.13 230.25 591.2 230.86 592.3 231.01 593.1 230.52 592.43 230.21 592.08 229.91 591.56 229.2 590.88 228.91 590.57 228.49 593.35 228.76 593.12 228.38 593.02 228.27 592.86 228.17 593.02 227.69 593.28 227.54 593.89 227.62 594.26 227.55 594.45 227.59 594.61 227.75 594.65 227.94 594.65 228.36 594.67 228.49 595.1 229.25 595.56 229.76 596.07 229.78 596.61 229.08 595.97 228.05 595.88 227.75 596.07 227.13 596.5 226.83 597.33 226.73 597.09 227 597.27 226.95 597.5 227.01 597.71 227.21 597.8 227.62 597.74 228.01 597.59 228.23 597.21 228.49 597.35 228.61 597.7 229.08 597.89 229.17 598.54 229.08 598.5 229.28 598.44 229.76 598.41 229.97 599.03 230.18 599.62 229.78 600.71 228.49 603.22 227.98 603.72 227.29 602.64 227 602.41 226.87 602.25 226.55 602.11 226.15 601.9 225.79 602.19 225.61 602.73 225.47 603 225.24 601.99 224.92 601.66 224.65 601.83 224.35 602 224.13 602.19 224.02 602.38 224.03 602.24 223.54 602.17 223.35 602.02 223.19 602.52 222.6 603.13 222.83 604.32 223.76 605.91 223.76 606.25 223.89 606.58 224.15 606.9 224.26 607.23 224.03 605.38 223.06 604.8 222.58 608.01 222.87 610 224.06 610.6 223.76 610.35 223.31 610.24 223.19 612.55 223.58 613.25 223.19 612.99 222.91 612.69 222.68 612.36 222.55 612.05 222.58 612.05 222.25 613.36 222.28 613.74 221.98 613.26 221.59 610.36 221.47 609.26 220.8 609.94 219.89 611.23 219.71 615.12 220.6 615.64 220.88 617.23 222.25 616.7 222.23 616.05 222.4 615.42 222.74 614.94 223.19 615.04 223.31 615.22 223.63 615.3 223.76 615.18 223.89 614.94 224.22 614.82 224.35 615.24 224.66 615.83 224.9 616.41 224.92 616.81 224.49 617.24 223.86 619.42 223.26 619.64 223.06 619.83 222.73 619.88 222.45 619.9 222.1 619.94 221.8 620.46 221.39 620.86 220.84 621.27 220.57 622 221.5 622.29 221.98 622.1 222.34 621.91 222.62 621.69 222.81 621.45 222.87 621.59 223.59 621.29 224.24 620.39 225.24 621.03 224.93 622.36 224.66 625.06 225.02 626.28 224.35 630.51 223.76 629.97 224.38 628.22 224.97 629 225.87 629.86 226.18 632.22 225.98 633.31 225.48 633.88 225.52 634.23 225.71 634.6 226.05 634.91 226.56 635.08 227.29 636.56 226.32 637.36 226.2 637.99 226.73 637.7 227.32 636.66 228.49 639.17 228.49 640.8 227.94 648.43 228.17 656.07 228.41 657.77 229.38 659.53 230.96 660.18 231.14 662.84 231.19 663.67 231.73 662.48 232.75 662.34 233.04 662.07 233.79 661.87 234.07 662.01 234.32 662.16 234.5 662.31 234.61 662.48 234.66 662.25 235.44 661.58 236.39 661.26 236.99 661.83 237.81 663.42 239.11 663.67 239.95 663.12 241.31 662.1 242.11 658.05 242.63 656.95 243.11 655.77 244.64 655.2 244.83 653.3 245 652.96 245.26 653.06 245.8 652.65 246.16 652.18 246.34 651.25 246.38 651.15 247.21 650.58 247.72 647.09 248.83 645.78 250 638.8 251.84 638.52 252.06 638.5 252.54 638.75 252.87 639.26 253.21 639.46 253.47 639.99 253.75 640.22 254.09 640.36 254.43 641.25 256.07 641.31 256.52 641.09 256.9 640.61 257.35 639.27 258.12 638.74 258.66 639.08 259.16 638.85 259.62 638.46 259.85 638.04 260 635.62 261.49 631.49 262.49 630.72 263.08 627.49 264.08 623.81 264.15 623.62 264.05 623.54 263.85 623.46 263.42 623.38 263.21 623.32 263.02 623.33 262.82 623.29 262.63 623.11 262.43 622.86 262.31 620.23 262.62 616.55 264.58 611.72 265.19 611.21 266.09 611.23 266.44 611.43 267.12 611.45 267.52 611.23 268.08 610.86 268.49 607.59 270.27 600.97 269.79 594.36 269.32 587.74 268.84 584.41 266.98 583.45 266.09 582.92 265.32 582.79 265.2 582.74 264.86 582.97 262.9 587.2 260.57 580.48 261.67 578.77 260.99 572.57 261.78 566.36 262.58 562.65 261.51 556.63 261.91 550.61 262.32 550.17 261.74 550.44 261.68 550.97 261.28 551.25 261.18 549.67 259.98 549.43 259.29 549.08 258.93 544.38 258.71 539.69 258.49 537.59 257.58 536.52 256.66 530.69 254.9 530.29 254.3 529.99 253.45 529.78 252.46 533.01 251.43 539.9 251.02 540.23 251.15 541.12 252.2 543.49 253.29 550.02 253.77 556.55 254.26 556.08 253.46 547.66 251.82 544.95 249.84 544.6 249.28 552.67 248.99 560.74 248.69 568.81 248.41 569.09 248.24 569.05 247.88 568.86 247.48 568.63 247.25 569.57 246.48 576.4 245.55 577.55 244.92 576.5 244.2 575.23 244.17 567.89 245.8 567.89 245.5 568.05 245.48 568.48 245.18 566.8 245.18 567.38 244.26 568.86 244.14 569.46 243.45 561.92 243.86 554.36 244.26 546.82 244.67 539.26 245.08 536.17 246.62 532.91 246.6 531.52 247.6 527.17 247.93 525.88 247.07 525.56 246.97 524.09 247.01 522.91 247.51 517.8 247.16 514.82 247.72 514.09 247.53 514.18 247.39 514.45 246.93 514.07 246.88 513.69 246.7 513.5 246.37 513.73 245.8 513.04 244.98 512.22 244.69 509.47 245.04 509.13 244.92 508.94 244.64 508.41 243.45 508 243.14 506.7 242.65 506.45 242.38 505.76 241.27 505.11 240.58 504.44 240.18 502.99 239.95 503.6 239.47 506.22 238.25 508.29 238.2 510.18 237.47 511.31 237.85 512 237.75 512.64 237.39 513 236.73 510.83 236.73 511.19 236.63 511.87 236 512.8 235.46 513.11 235.5 513 236.12 513.48 236.26 514.48 236.99 514.93 236.99 515.22 236.64 515.28 236.21 515.13 235.79 514.81 235.54 515.51 235.06 516.2 234.86 516.85 234.47 517.46 233.48 515.75 234.56 507.63 234.23 506.45 233.38 505.16 233.8 504.78 233.62 504.08 232.8 503.7 232.61 503.7 232.31 504.55 232.81 505.59 233.07 506.62 232.94 507.43 232.31 503.64 231.73 503 231.26 502.19 230.39 501.43 229.97 500.94 230.84 500.76 230.72 500.31 230.44 499.84 230.3 497.53 230.38 497.2 229.97 497.82 229.87 499 228.98 500.15 228.56 501.15 227.72 501.69 227.62 502.1 228.07 502.28 228.17 502.58 228.18 503.46 227.87 507.02 228.17 507.98 228.52 508.27 228.41 508.81 228.05 511.06 227.96 512.4 228.76 513.01 228.95 513.53 228.81 514.57 227.87 513.35 227 516.06 227.41 517 227.81 517.92 228.91 521.84 230.77 522.91 232.01 523.4 232.25 523.93 232.22 524.46 232 525.52 231.02 525.74 230.64 525.65 230.26 525.65 229.97 527.31 229.92 528.92 229.38 528.21 228.52 527.17 228.28 525.25 228.49 523.51 228 522.57 227.41 522.02 226.2 521.27 225.65 521.03 225.38 520.89 225.13 520.63 224.96 520.47 224.8 520.37 224.56 520.37 224.31 520.39 224.04 520.35 223.76 520.24 223.27 520.18 222.92 520.06 222.6 519.76 222.25 518.62 221.62 518.3 221.1 518.54 221.01 518.98 220.58 519.22 220.48 523.59 221.29 524.56 221.8 529.41 226.11 530.45 226.55 533.62 226.41 533.1 225.89 531.63 225.78 531.22 225.24 531.49 224.83 533.38 223.44 533.21 223.32 532.79 222.87 532.98 222.9 533.12 222.85 533.38 222.58 533.09 222.33 532.19 221.98 532.58 221.82 533.05 221.77 533.48 221.61 533.74 221.1 532.57 221.03 532.19 220.8 532.85 220.7 534.09 219.8 534.72 219.59 534.72 219.3 527.93 219.17 527.2 218.96 526.88 218.28 526.79 217.09 526.78 216.34 526.87 215.88 527.44 215.53 528.19 215.52 529.52 216.04 530.25 216.93 530.5 216.93 530.75 216.56 530.64 216.29 530.14 215.88 529.81 215.14 529.86 214.5 530.19 214.1 532.75 214.63 533.38 215.12 533.27 215.45 536.48 215.53 536.87 215.72 536.63 216.44 536.51 216.66 537.04 217.02" style="fill:#efc441"/><polygon points="765.02 226.5 765.47 226.38 766.4 226.43 766.83 226.11 770.35 225.24 776.37 226.41 775.59 227.17 774.66 227.51 770.16 228.04 765.66 228.56 762.12 230.18 754.96 231.05 747.8 231.91 740.64 232.79 738.61 231.73 738.28 231.44 738.34 231.15 738.62 230.93 747.09 229.63 755.56 228.34 764.03 227.04 765.02 226.5" style="fill:#efc441"/><polygon points="623.89 381.37 623.5 381.28 623.25 381.02 623.33 380.44 623.69 379.74 624.13 379.14 624.82 378.69 625.92 377.16 630.5 373.54 631.7 371.69 631.58 371.4 631.85 371.29 632.39 370.79 632.68 370.59 633.14 370.51 634.48 370.59 634.48 371.13 634.13 371.22 631.15 374.19 629.35 375.22 628.51 375.99 628.09 376.24 628.12 376.37 628.14 376.48 628.16 376.6 628.22 376.74 627.45 377.57 625.09 378.96 624.59 380.11 624.66 380.53 624.8 380.78 624.82 380.97 624.57 381.24 624.29 381.34 623.89 381.37" style="fill:#efc441"/><polygon points="654.84 293.63 654.53 293.47 654.03 292.9 654.08 292.82 654.13 292.55 654.17 292.23 654.15 292.03 653.95 291.86 653.06 291.77 650.07 290.21 649.94 289.26 649.62 288.59 648.84 287.49 649.63 286.16 650.61 285.81 652.7 286.1 653.02 286.77 653.31 287.19 654.99 288.64 655.48 289.49 656.54 290.13 659.83 290.65 658.9 291.05 658.54 291.5 658.61 292.33 657.88 292.66 655.5 293.05 654.99 293.31 654.84 293.63" style="fill:#efc441"/><polygon points="715.53 279.54 714.67 279.45 713.9 278.9 713.5 277.82 717.72 277.82 717.86 277.91 717.99 278.05 718.22 278.38 717.76 278.76 717.12 278.95 715.91 278.99 716.16 279.27 715.53 279.54" style="fill:#efc441"/></svg>