<svg xmlns="http://www.w3.org/2000/svg" viewBox="0 0 800 800"><path d="M500.17,18.61l1.75,1.13,4,.44,2.29,1.57,1.59.34.78.86,0,1.12-.55,1-1,.37-.09,1.27.71.76,5.58,1.57,2.71,1.73,2.13,1.55,2,2.54.43.4.19.12.23.56.16.2.3.12h2.38l.69.32.3.64.21.68,1,1.94.41.61,1.08.71,2.57.49,3,2.11,1.86.9.67,1.94,6.1,1.22,1.52,1.32.18.4,1,.93.46.58.41.37.14,0,.25.2.05.39,0,.44,0,.29,1.15.69,7.73.07,2.27.47.14.15,0,.61.14.12,2.64.15,2.15.85,1.47.13,1.43.68h.62l.57-.14h.64l.94.66,1,1.1,1,.83,2-.59.85.64,1.4,2.08,1,.91,5,2.37.51.49.23.52.09.49.16.54.46.59,1.51,1.32.51,1L584.9,71l.29.47,0,.49-.18,1.54-.16.54v.34l.06.56.1.13.13.05.23.31h.74L589,74l1.15-.05.44.47.39.63,1.35,3.65.12.54.27.51,2.48,1.67.92.51,3,2.62,2.35.62.64.78-.05,1.1-.82,1.18-1.11.64-2.38.61-1.13.68L596,91.26l-.14,1.44.09,1.5.16,1.27v3.6l.14.76.37,1,.36,2.43.28,1,.8,1.62.25,1,.12,1.44-.62.61-1.19.66-.88.69.37.73-.62,1.25-.76,1.08-.41,1.18.41,1.49,1.13,1,1.24,0,1.33-.44,1.38-.1,2.27,1.06,2.29.29.74.24.41.44-.07,1.38-.39,1.71v1.4l1.15.54-.76,1.88-.92,1-3.81,1.27-.64.51-.27,1-.12,1.15.18.45.62.24-.27.76-.32.66-.37.59-.41.46.23,1.2.59.79.74.66.92,1.25.34.27.28.37.11.66,0,.78.07.52.14.44.23.53,1.24,2,.78,1,.6.42,1,.31.82.81,1.91,3.06,1.31,1.28.71.88.92,1.62,1.35,3,.09.42-.16.54-.5.2-.78,0-.74.15-.48,1.08-1.08,1.32,0,.44.37,2.2,0,1.25-.14,1.18-.25,1.12-.32,1,.23,1,.13,1.08,0,1-.32.93-.72.54-1.79.91,0,.66-.69.58-1,.4-.81.51v1l-.82.24-1,.54-.83.91-.32,1.34.14.74.64,1.1.14.61,0,.81.18,1.08,0,.81-.12.63-.27.76-.07.59.11.66.51,1.35.27,1.54,1.17,3,.88,1,1.19.79,3.47.93.75.73,1.82,4,.3.52.34.39.83.63.34.4.34.83.85,2.94,0,.9-.07,1.3.71,1.18.9,1.15.73,2.35,1.31,1.67,0,1-.76,1.08-1.17.14-2.43-.46.2.37.07.19.09.1.33.15-.83.36-1.63-.29L612,216l-.19.37-.25,1-.25.31-.32.05-.28-.17-.27-.22-.53-.17-.3-.22-.27-.32-.1-.39-.09-.54h-.2l-.37.34-1.65,0-.81-.2-.34-.78-.32-1-.76-.41L603,213.6l-.53.29-.85,1.32-.46.4h-.41l-.25-.27-.14-.35-.14-.19h-2.66l-1.47-.34.21-.84-.23-.27-.46.08-.44.17,0,.1-.28.76-.23.17-.25.09-.23.15-.23.37.37.27.16.32v.44l0,.59-.11.49-.16.07-.32-.1-.58-.1-.55-.36-.37-.91-.13-1,.13-.86-.71.07-.5.49-.42.61-.45.4-.76,0-.69-.44L587.6,214l-.57-.25h-.57l-.42.44,0,1,.27.73.51.52,1.05.73-.52.3-2.12.81-.34.26-.67.69.05,1.1-.9.61-.82-.14.27-1.2-1-1.62-.41-.37-1.89-.17-1.53-.66-.26-.19-.71-1-.46-.15-.78.22-.59-.07-.78-.69-1-2.4-.71-.93-3.74-2.45-.69-.15-.62.17.44.62.85.78.32.64.11.49.12,1.52.14.76.13.58.09.59-.11.88-.25.81-.39.64-.46.41-.53.15.16-1.35-.83-.73-1.95-.34-.46.24-1.12.93-.37.08-.2-.52.2-.64.37-.58.32-.32-.46-.76-.5-.49-1.13-.71.09-.22.16-.59-2.41-.42-1.19.13-.09,1.1-1.38.37,1.38,1.59-.09.71-.46.07-1.06-.34.37.56.5,1.28.51.58-1.15,1.52-1.38-.46-1.35-1-1.19-.08.71.93.64.57.8.32,2.21.36.76.47.5.95.37,1.62-.42,0-.43,0-.39.17-.39.29-.32-1.42-.74-.68-.87,0-.8.49.25.29.09.4-.09.46-.25.49.25.34.23.49.43,1.16-.78.34-2.43.1,2.46.71,1.28,0,.62-1.17-.18-.62-.83-.8-.14-.57.28-.49.5.25.53.56.3.49-.23.37,1.82.66.13.37-1.49.88-.23.49.35.51.75.39,1.31.35.21.24.25.57.34,1.2-.8.41-.6-.49-.57-.73-.66-.39-1-.15-.74-.3-.78-.63-.39-.13-.41.4.18.83-.94-.2-3.42-1.86-2.53-.78-1-1-.53-.42-1.4-.29-1.15-1-2.09-.54-.5-.32-.3-.34-.71-1.13-.44-.44-1.05-.51-.46-.49.78,2.4,2,1.52,4.11,1.74,2.75,2,2.23.83.46.32.5.52.76.95.43.27.67,0-.87.53-1.88,0-.95.22-.29.22-.07.15,0,.22-.18.44-.32.22-.32-.27-.3-.37h-.32l-.9.44-4.59-1.12-.71.07,1.58,2,.92.68.76-.32-.69-.63-.27-.12.85-.08,1.92,1.89.9.59-.23.8-.18.71-.26.54-.46.35-.55-.05-.5-.39-.81-1.16-.34.69.14.61.23.57,0,.56-.48.44-.71.1-.62-.3-.25-.63-1,.63-1,.4-1,0-2.82-.83-.6.12.48.84-1.56.05-.85-.18-.69-1.07-.78,0-1.42.37v.37l1.38.46.45,0v.36l-2.41-.29-1.28.2-.64.93.2.07.3.22.16.1-1.38.81.72.14.73.37.67.57.52.73.53.44.76.15.62-.3.05-.9.64.17.59.42,1.06,1,1.1.71.51.64-.09.83-1,1.11-1.54.68-1.53.17-1.08-.54-.35-.61-.62-1.49-.41-.74-.46-.56-.53-.49-.59-.37-.69-.12-.9-.64-1-1.27-1.1-1.05-1.1.12.18.07.32.25.19.07-.46.74-1.4.09-.44.79,4.25.85,1,.76,2,2.8,1.86,1.76,2.41,3.62.32,1.2-.64.52-1.86.1.41.36.21.52,0,.61-.61,1.69.18.32.53.1.69.39-.76.44-2.8-.05-.42.39.35.88.57.81.3.3-1,.68-.32.13-.35-.1-.64-.35-.39,0v.12l-.07.25-.09.27-.09.17-.58.36-.48.47-.11.54.48.61-.55.39-4.07.2-.43.19-.07.45.21.34.16.42-.19.61-.25.44-.39.44L520,268l-.44.09.35,1.55-.67.63-.67.45.28,1-.53.35-1.15.36-.59.05-.53-.29-.21-.61-.07-.69-.13-.44-.55-.17-.51.24-.39.57-.16.81.16.75.41.3,1,.32-.14.61-.07.22.6.54.59.22,1.31,0,2.14-.46,2.13.73.83.49.23.84-.44.26-1.72-.09-.64.17.57,1,.71.76,1.52,1.08v.39l-.55,0-.26.3.1.44.45.41v.37l-.87-.29-1.6-1.35-.85-.29-.72-.45-.66-.85-.69-.66-.8.19-.37.76.07,1,.39,1,.6.63.91.25,1.13.07,1,.32.62,1-.62.07,0,.57.44.63.62.3.71,0,.34.09.32.22.19.27.27.76.12.15.27.2.46.8.32.18.3-.15.09-.32,0-.27h-.12l.23-.71,0-.54.18-.22.67.29.69.76.75,1.08.62.49.39-1.44h.3l.32.24.14.25v1.34l.39.66.46.42.57.17.67-.05-.44.4-.45.29-.49.12-.48-.22-.87-1.17-.25-.2-1.63,1.1-.94.44-.42-.56-.09-.39-.23-.2h-.27l-.21.2-.09.37.18.14.48.08.62,1,.46.3.42-.34.36-.2,1.36-.15.43.12.12.25.27,1,.07.41-.41.88.07.62.41.36.62.13.32-.18.37-.8.23-.2.69.15.69.24-.21-.81h.44l.41.27.25.57,0,.76-.2.56-.39.07h-.44l-.46.37-.37.37-.84.39-.39.42-1.89,2.47-1.37,1-.65.76-.8.54-.73-.54-.6-.9-.51-.49.14.51,0,.49,0,.49-.14.51.21.18.09.19.07.2.12.24-.56.17-1,.57-.57.05-.49-.2-.2-.22-.21.1-4.27,4.92-.11.1-1-.34-.11-.08-.3.3-.85,1.73-2.62,2.41-.61,1.1.41,1-.21,1.05L510,316.57l-.09.22,0,.31-.14.71.09-.12.07.22.07.32v.2l-.05.19-.14,0-.13.07-.12.29,0,1.16-.1.58-.23.25-.39.12-.25.27-.16.27-.09.12-.74.35-.55.85-.66,1.91-.62,1.86-.32.52-1.61,1.13-1.49.07-.35.32-.16.78.28.37.5.1L503,330l-.71,1.33-.44.53-.34-.09-.71-1.33-.44-.36-.57-.08-1.61,1.35-.11.76-.28.46-.37.1-.39-.34.35-.59-.07-.51-.32-.47-.74-.71-.14-.05-1.6,2.84-.62.64-.78-.37.18.47,0,.29-.12.3,0,.49.23,1.25,0,.34-.21.64-.32.63-.36.49-.4.2-.59-.17-.35-.47,0-.71.3-.83,0-.54-.32-.74-.43-.66-.46-.22-.3.81,0,3.45-.34,1.4-.41.12-.53-.39-.39-.64,0-.61.27-.66.23-.78.14-.81-.07-.69-.64.76-.65,1.23-.34,1.39.23,1.28-.78-.13-2.2.13-.35.14-.39.25-.39.1-.37-.3-.23-.56-.13-.22-.21-.17-.62-.1-.67.15-.64.39-.48.51-.3.76.07.64.57,1.15-2.61-.93-.49-.05-.5.44-1.22.52-.23.22-.5,1.47-1.22,1-1.42.83-1.1.93-.09.59.55,1.49.18,1.3-.11.22-.81.2-.32.24-.44.47-.75.64-.42.12-1.6-.76-.1-.81.12-.61-.12-.47-.8-.44.09-.22.07-.39.05-.2-.44-.22-.92-.95-1.74-.54-.46-.39-.69-.88-.73-.49-.81.05-.87.68.37.34.39.22.87.25-.48,1.44.41.47.9.2,1,.63-.91.52-.49.17-.55,0-.11.22.32.49,1.35,1.54.14.39,0,.64-.28.17-.67-.29-1.12-.81-2.76-2.72-.89-.37,0,.47.91,1.86-.71.27-.69-.47-.66-.68-.6-.34-.41.39-.16.95,0,2,0,.53-.17.94,0,.49v1.71l-.32.76-.48.39-.4-.19-.13-1-.74.93-1.72.39-.78.61.21.15.48.66-.39.37-.62,1.32-.39.62h.71l-.55.93-.64-.08-1.33-1.27-.6,1.22.55.69,1,.32.83.07-.25.66-.39.08-.42-.05-.41.29-.23.56-.09.47-.18.29-.56.05-.13-.22-.94-1-.19-.15-.25-.34-.69-.57-.3-.41.16-.74-.39-.39-.59-.27-.46-.34-.58-.59-.69-.32-.43.2.2.91-.43.17-1.86-.59-1.4-.1-.6.15-.53.37.69.58,5.28,1.72-.64.81-1.06.31-2.2.05.14.54.09.22-.55.57-.48-.05-.42-.49-.16-.79-.09-.9.71-.25,1.66,0v-.42l-3.17-.68-1,.34.46.37.21.46.07.54.18.56.76,1.42.18.49-4.84-1.2-1.58.05v.39l.71,0,.78.29.69.49.46.54.29.64.19.66-.09.56-.51.25L433,370l-.66-.41-.69-.17-.71.44-.26.54-.13.63-.26.61-.5.52h1.15l-1.5,1-.45.12-.21.32-.21,1.32-.3.32-.34-.2-1.13-1.34-.5-.3-.51-.14-.55.07-.52.37,1.1.68.57.49.41.71-2.2-.34-.09-.12-.3-.59-.18-.25-.28-.12-.07.2,0,.29-.09.2,0,.1-.5.63-.8.42-2,.39.83.54,8.65-.1.9.34.64.71.21.84-.28.27-.48-.27-.34-.84h-.23l-.3,1.08-.78.27-.92-.22-2-.91-.51.25-.37,1.1,1.59,1,.5.19,1.22-.36.67-.08.41.44-.35,1.15-1.35.13-2.43-.52.5.79,1.63.53.37.59-.12.52-.27.36-.39.22-.81.18-.32.22-.25.27-.34.22-.76.27-.37,0-.64-.2-.55,0-.23-.07-.09-.17-.07-.27-.07-.37-1.1-1.13-.53-.41h-.67l.1.22.13.56h-1.63v.34l.37.22.09.39-.16.49-.3.47.76.32,1.1-1,.69.37-.8,1.74-.51.63-.64.27-.32.25-.32.44-.35.27-.39-.35,0-.36.18-.44.26-.37.16-.2-.48-.22-.33.44-.25.69-.34.64-.62.46-.67.07-1.44-.17.16-.54.09-.19-.55-.39-.67-.1-1.33.07.85-.95,2.91.32.83-.94-1.4-.49-.67-.34-.43-.66.07-.12,0,0,0-.07.07-.15-.76.17-1.17.66-1.06.86-.46.81-.23.19-.55-.17-.55-.34-.3-.3-.07-.49.07-2,0-.17-.32-.49-.1-.29.07-.3.32-.46.07-.2-.16-.86h-.41l-.51.3-.5,0-.23-.41-.6-2.06-.3-.47-.34-.39-.39-.27-.46-.22.23-.27.48-.88-.76.07-1,.86-.51.22-.62-.24-.55-.49-.55-.35-.57.27,4.15,2.87,1,1.2.62,1.08.81,1.78.39,1.72-.53.95v.42l1.44.81.39.34.42.47.14.19-.07,1.08.25.61,1.1,1.37.25,1.06-.09.61-.3,1,0,.34.18.54-.14.29-.3.1-.32.05-.23-.12-.78-.52-.36-.12h-2.07l.64.71,5.1,1.76,0,.61.14.49.2.35.35.27-.74.19-2.5,1.77-.18-.18-.07-.68-.25-1.67,0-.34-.11-.17-.44-.05-.21.2-.18.41-.34,1.77-.07.46,0,.42-.11.44-.28.22-.73.24.46.76-1,1.5L407,405l-.67.22-.37-.22-.57-.74-.32-.17h-1.72l-1.4.47-.72.44-.41.64,0,.93.55.34.67.27.37.73L398,407.7l-.48-.19-.41-.25-.62-.81-.16-.12-1.52-2.28-1.44-1.71-.39-.25-.69.32-.35,1.35-.57.29-.67.1-.57.34-.37.57v.88l1.49,1.93.07.2.07.44,0,.49-.05.34-.25.25-.39.15-.42,0-.32,0,.39.31.39.47.19.59-.16.71-.05.59.27.71.42.56.41.24,1-.19.49.1.52.49.28.49.23.58.27.54.37.32v.34l-.3,0-.23.1-.41.32,2.89,1.34.69-.27,1.1.22,1.08.52.69.46-2.78,1.52-.85.17-.09-.27.94-1.42-.55-.29-.62.12-.53.39-.34.54-.16.81.05.91.09.78,0,.54-.23.71-.11.17-.55,1-.26.76-.07,1.1,0,.66-.19.46-.69.45.74.34-.32.73L393,430.63l.42.29.48.49.27.52-.34.22-1.61.19-.34.17-.19.59.07.61-.09.49-.71.2-.34.17-.21.42-.14.61v.69l.14.68.46,1,.09.42-.11.37-.49.29-.09.27,0-.1-.05.42v.44h.07l.09,0,.16.15.07.29-.2.49-.19.25-.11.27-.05.29.12.32.43.22,1.75-.39-.19.51-.25.35-.32.19-.39.07v.42l.55.25.09.63-.14.81,0,.88.16,1,.28.32,1.65-.35.57-.29.6,0,.62.49.41.66.21.61v.62l-.27.61-.21.73-.12.93-.2.81-.51.34-.66,0-.51-.18-.46-.34-.43-.59L391.53,449l-.71-.9-1.06-.49.05.71.18.56.46,1-1.28-.27-.44-.44.11-.83-1.24-.91-1.4-.29-2.89.07.42.64.5.19,1.15-.05,2.29,1.13-.29.93-1,.59-1.24.32-.85.05v.36l.26.05.64.37-.94.32-1.54-.52-.73.54,4.31.76.74.74-.74.32-.57-.08-1.22-.61-.73-.12-2.25.12v.37l1.19-.05.53.19.36.62-1.44.53-1.56.18.87.58,3.49.57v.36l-3.21-.09-.35.32.3.26.76.23.62.46.85.2.36.12v.42h-1.4v.34l1.31.49.3.29.16.66-.18.35-.35.31-.32.54.19.47.13.46.26.37.34.22h.44l.2-.27.19-.34.32-.15.23.17,0,.37-.14.39-.34.17-.37.05-.37.15-.34.25-.28.34-.25-.42-.39-.51-.37-.2-.29,1-.65.49-.14.54.17.32,1,1.32,1,.76,1.1.42.07.58,2.48,1.28-1,.19-1.08-.17-2.07-.81.48,1.08.9.52,1,.27.83.36-1.43,0L385,471l-1.77-1.37-.55-.2-.71-.07v.39l.8.32,1,.78,1,.95.67.91.43,1.32-.52.49-.88.35-.64.85,1.15.71-.16,1.38-.23.46-.53.44.67.74.13.68-.39.47h-.85l.37.17h.92l.3.17.16.32.07.37-.07.29-.28.12-.27.25-.25.59-.19.73-.07.71.12.22.25.27.3.25-.69.58-.23.13,1.77-.22.82.09.4.54-2,.42-.69.66-.3,1.52,0,.66,0,.2.71.61.6.05.27.12-.09.69.09.36.28.66.11.18.53-.3.3.12.16.25,1.19,3.08-.27.08-.3.15-.23.22-.09.29.14.64.22,0,.3-.1.23.22.09.71-.09.54,0,.47.45.46.65.17.5,0,.16.19-.39.79-.41.39-1.08.49-.92.85-1.24.76-.8.25-.16.24,0,.27.21.1.41-.05.74-.29.36-.05.67.17.66.78,1.08.37,1.84,1.3-1.38.73V507l.53.32.69.07.55-.12.12-.05.52-.41.62-.3,4.46-.61.94.07.64.47.48.46,1.24.64.46.56-.41.47-1.2.61-.25.22.12.79.48,1.22.11.59.44,1.1,1.1.61,2.36.32v-.39l-.48-1.57,1.17-1.54,1.82-1.18,3.44-.81,1,.05.87.62.69,1.88-.07.64-.18.56-.3.39-.39.25v.37l.87.05.85.46,1.54,1.32,1.15.71.13.32.21.88.09.3,1.06,1.27,1.19.79,2.8.88-.57.29-.85.71-.44.47v.39l.49.46.23.3.22.34.53-.37.9-.81.64-.31.57-.1.44.07,1.06.42,2.34-.05.66.39,0,.17,0,.44v.49l.07.4.14.17.76.56v.37l-.41.1-.42-.08-.39,0-.39.31,4.66,1.45,1.31,1.13-1.38.58-5.46-1.73-1.06-1-1.74-2.26.46,1.89,1.31,1.47,1.51,1.25,1.1,1.3-.57,0-.46-.27-.83-.88.26,1.3.66.76,1.63.93.83.83.43.27h.58l.39-.17.32-.3.11-.41,0-.1v1.62l.07.78.13.42.65,1.78.13.76h.21l.21-.8,0-1-.11-1-.33-.79.72-.34.89-.12.85.12,1.17.93,1.17.27.48.59.17.88-.07,1.84.23.78,1.46,1.72.28.68-.5-1.39-.65-1.35-.32-1.4.44-1.54,1.26-.56.44.19.11.22-.09.86.07.88.16.69,1.47,4,1.17,2.5.64.68,1.47.4.76.39.57.41.14.13v.12l0,.44,0,.15.48.61.28.17.36,0,0-.27-.12-.59L447,546l.6.1.57.25-.11.76,0,2.13,0,.44-1.12-.08-.44-.26L444,546.11,443,545l-1-.47.35.69,1.15,1.69.16.91-.37.88-2.09,2.62-.62.39-.76.15-1.47-.05-.75.15-.53.44-.16.73h.6l1.28-.54,8.45-.32,1.44.69-.34,1.2-.57.71-.74.42-2,.49h-.62l-.53-.25-.32-.39-.37-.81-.25-.29-.39.9-.73.71-.81.45-2.5.61-.78.56-.07.78-1.19,0-.21.13,0,.46L436,559l-.23.27-.28.17h1.63l-.23.42-.39.49-.43.41-.35.17-.34-.17-.28-.29-.29-.27-.44,0,.67,1,.22.56-.32.27-.43.17-.81.74-1.44.51-1.88,1.5-1.91.61-.87.66-1.52,1.64-1.12.78-1.15.18-2.55-.22v.34l1.15.73-.48.35-.9-.1-.46.12.62.27.53.44-.2.74.55.46.82.22.67.08-1,.61-2-.05-2-.52-1-.78.39-.2.41-.09.41,0,.39.24-.09-.44-.16-1.08-.18-.32-.42-.07-.75.61-.46.15-.25-.1-.39-.49-.26-.1-.18.13-.39.46-.21.1-.37.27v.59l.21.63.28.4-1.13.58-.37.1-.39-.1-.73-.46-.39-.12,4.59,3.6-1.19.24-.51-.15v.64H418l.8-.39.34.07.26.69h.2l1.15-2.28,2.14-.71,2.38.34,2,.84-.18.17-.34.39-.19.15,1,.26L428,576l.39-.57-.92-1.78-.23-.74h1.61l-1.33-.76-.62-.49-.37-.93,1.95.12.88.32.87.66,0,.17.14.71.05.2,2.29,1.08-.36.66h-.58l-.69-.22-.66-.07.78.36,1.15.3,1.05.46.46.88-.25.81-.64.37-1.75.07-.53.13-.55.22-.55.09-.55-.24-.41-.27-1-.22-.46-.05-2.8.34-.89-.34.07-.24.11-.62.05-.24-.67,0-.57.22-.55.4-.51.51.44.27.37.37.32.41.25.42v.34h-1.15l-.32.25.21.66,1.95.91.78.19.92.56.8.81.48,1-3.05-2.06-.74.1v.64l.53.39.71.19.49,0,.25.35.18.63.3.44.64-.34-.11.22-.07.17-.09.15-.19.19v.35l.9-.32.37,0,.13.49-.09.62-.25.51-.32.22-.37-.29L425,586l-1.27.32-1.21.54-.58.57.37-.08.35.08.25.22.16.44L420,589.39l-1,.17.46-.32.91-.44.46-.32-.46-.36.23-.18.23-.14v-.34l-.55-.05-.5.12-.48.27-.42.51-.41.27-1.1.1-.46.2-.28.36-.71,1.25-.43.25-1.77-.08.07.27.11.62.07.24-.85-.37-.39,0-.37.34.53.83-.5.88-.88,1-.55,1.23.07.61.19.39.06.44-.32.69-.43.42-.58.24-.62,0-.43-.31-.19.66,0,.71v1.49l-.44-.32-.34-.51-.14-.61.23-.71-.25-.66-.12-.23-.32-.29H407l-.23.1h-.23l-.55-.29-.32-.3-.64-1-.42-.39.07.71.39,1.15.55.91-.39.9-.18.37-.25.12-.16-.24,0-.56.12-.59.14-.39-1.13-.42-.09-1,.16-1.18-.35-1v-.4l.49-.78.16-1.62v-1.59l-.07-.71-.07-.22.41-1.27v-.61l-.34-.27-.46.17-.41.44-.16.51L403,590l-.16.76-.37.32-.3-.22L401,589.56l.09-.76.67-1.2.16-.71-.12-.59-.3-.56-.39-.46-.34-.37.46,1.81-.39.81-.46.59-.55.46-.67.3.3,1.12-.14,1.13,0,1,.57.74-.34.83-.25,1.13-.23.78-.33-.24-.36.29h0l-.16.2-.13.24.25.29.27.23.3.14.32,0v.37l-.34.44.44.2.43.34-.3.81-.64.41-.69-.07-.73-.25-.69-.09.32.66.46.49,1.06.68v.32h-.72l.23.25.26.14-.95,0-2.52-1.67-1.13-.49v.37l.6.34.14.59-.3,1.62-.3.86,0,.39.25.17.23.1.8.59-.94.44L390,604l1.15,1.44.16.79-.62.68-1.77-.07-1,.19v1l-3.81-.07-1-.3-.39-.34-.67-.91-.46-.17-.39.1-1,.49-.59.12.46.22,1.05.13.35.36v.47l-.21.44-.28.34-.23.2.69.37,1.43-.15.68.17v.32l-.78.68-.48.71-.5.47-.78,0-2-1.05-1.21-.17-.69.83,1.58.07.62.42.53,1h-.76l-3,.83-11.57-1.15L353,611.19v.39l.41.17.37.37.14.44-.23.47-.48.09-1.43-.27-.62.18v.31l.42-.19.41-.1.34.15.21.54.67-.4,1.51.64.69-.44.51-.61.43-.15.41.17.72.74.13,0,0,.19,0,.69.16.46.37.17.44,0,.3-.22.23-.66.18-.83.23-.76.39-.47.46.12,1.7.79.46.34,3.94-.12.72.24.64.61.46.27,1.35.18.6.49-.07-.27-.09-.59-.07-.27,1.19.34.42,0-.33,1,.21.83.62.54.87.14-.3.32-.16.08v.29h.92V618l-.32.49.41.27,1.29.32,1.86,1.42-.8.39-1.7,0-.74.29.3.76-.76.56-1.12.37L371,623l-.23.13-.39.46-.18.12-.23,0-.46-.27-.23-.1-4.11-.61-1.95-1-3.3-.93-1,.44,1.19.15,7.1,3.13,1.1.1.44.27.29.66,0,.49-.14.42-.05.44.16.46.3,0,.53-.22.44-.27.07-.2.41.27.16.3.11,1.22-4.79-.76.55.57,1.21.8.53.44-.14.57.1.37.39.14.39-.07.16-.2V630l-.21-.49,2-.31.67.09-.34.93-.19.08-.55-.1-.21,0,0,.18,0,.31-.05.35-.13.24-.37.2-1.22.15V632l.76.15,2.45,1.25-.32.29-.13.1.45.32.37.54.25.71.1.73-.07.69-.16.12-.3-.12-.41-.12-.26.14.09.32.3.37.32.2-1.1,1.64-1.86-1-2-1.84-1.5-.93.49.91,1.35,1.08.48.88h-.23l-.46,0-.2,0,.73,1,1.15,1.25.67,1-.72.27.1.66L369,643l-.39.13-.48-.08.69.44.6.22.5.32.49.76-.26.44-.3.13-.29-.18-.28-.39-1,.54-.16.32.46.56-.71-.39-.71-1.57-.44-.17-.46.57.21.68.76,1.27.39-.07.5.07,0,0,.34,1,.3.44.37-.22.34-.39.25.12.16.49.05.83.21.3.89.88.28.44h-.58l-1.26-.71.3.78,1,.76.12.57-.35.56H370l-.6-.32-.43-.42-.65-1.29-.27-.13-.12,1.06-.3.36-.68,0-1.34-.2.12-.46v-.44l-.12-.44-.22-.42.39,0,.34.07.34.15.3.22-4.34-4-.32,0-.25.27-.14.46.09.35.26.36.91,1,2,.76-.19.17-.32.42-.18.17.23.52,0,.49-.16.41-.32.3-.62-.57-.67-.39-1.47-.44.46.66-.23.39-.23-.19-.66-.2v.39l7.21,6.74,1.05.71-.23.37-.57-.2-1.61-.93-.48-.44-2.64-3.36-4.11-2.89.28.93.36.59,1.17,1,1.89,1.12,1.47,1.55.25.44.18.41.28.3.41.12.37.22,1.17,1,.41.49-.44.39.69,0,.6.22.48.46.32.71h-.71v.37h.46v.37l-2.27-.2-1-.32-1.08-.56.23.46.62.59.27.35.33.83-.1.41-.41.08-.73-.27.29.54.37.12.42.07.32.35.18.63-.14.22-.32.13-.32.27-.32.34-.92.76-.25.14-.19-.19-.06-.49v-.59l0-.49-.28.25-.3.07-.29-.07-.33-.25.35.59.16.22.23.22-.51.61-.23.12v.35l.74.36v.35h-.92v.32l2.62.07,1.21.42,1,2.13.76,1.32.29.93-1-.24.41.85-.18.22-.49,0-.45.3-.19.61.21.51.46.42.66.17-.57.32-.62.17-.39.37.21.93-2-.34-.85.24-.43,1.15,1.17.71-.3.47-.37.22-.07.22.51.49-2.6,1.27-.55,1,.85,1.67-.94.76-.27,1.24.23,1.35.52,1.18,1,1.39.36.37.37.17.21-.07.21,0,.29.4.58,1.2-.51.29.21.59.46.68.3.57-.44.05-1.19-.4-.05-.14.07-.22,0-.22-.23-.1-.21.05-.11.09-.07.13-.05.07-.14.12-.07.27,0,.27-.09.2-.14.1-.12-.08-.13-.14-.55-.1-.81-.27-.41,0,.25.37.25.32.3.22.32.15v.36l-.68,0-.44.49-.18.83.18,1.08.32.61.39.42.23.37-.16.56-.9,1.39,0,.32.14,1.37v.57l-.14.51-.89,2.48-.05.46.28.56.41.27.41-.22.39-.36.37-.18.3.18.07.41L361,709l-.17.32-.39.15-.91-.37L359,709l-.53.15-.69.47-.5.09-.16.27.21.62.5,1,.09,1.65,0,.93-.26.73-.43.34-.58.15-.55,0-.8-.57-.44.1-.41.22-.37.15-.32.17-.3.42-.75,1.42-.1.29v.25l0,.53-.16,1.11-.07,1.17-.21.52-1,.07-.21.49-.2,1-1.63,2.67-.76,1.81-1,4.24-.94,4.09-.23.27-.37.17-.21.42-.14.51-.18.44-.57.59-1.29,1-.57.63-1.93,3.65-.78.84-.55-.1-.62-.49-.94-.44,1-1.69.27-1-.69-.44-1.65.56-.87,0-.58-.89-.39.25-.18-.17-.16-.27-.32-.15-.41-.1-.49-.46-.25-.1-.55.47-.67.83-.66.44-.53-.74.23-.29.3-.59.14-.58-.32-.25-.46.12-1.27.91-1.42.61-.21.25,0,.8-.19.18-.66-.47-.25-.24-.28-.35-.37-.29-.5-.15-.48.1-.35.22-.55.71-.23.49v.34l-.16.2-1.49.07-.46-.12-.39-.27.64-.32h.25l-.18-.49-.71-1.27-.73.88-1.31.69-1.43.22-1-.59-.25-.2-.27.08-.26.19-.27.1h-1.26l-.26-.17-.11-.88-.21-.32-.23,0-.82.3-.33,0,.12.32.23.78.14.32-2.05-.78-1.17-.2-.85.42-.73.17-1.1-.17-.85,0,.07.86-.67.22-.57-.37-.58-.56-.71-.34-1.67,0-.78.32-.53.71-.09.42-.07.59,0,.51.23.22.48.17.23.39.14.47.19.39,1,1.2.32.64.32.88-.39.17-.41.29-.39.37-.3.39-.25.22-.19-.22-.16-.54h-.66l-.23.4-.19.19-.29-.05-.23-.14-.26,0-.94,0-.34,0-.07-.22.48-.46-.3-.3-.25-.34-.16-.44,0-.61-.71.71-.37-.35-.16-.24.1-.12-.42.12-.78.49-.32.1-.89.17-.62.44L293,748.25l-1.26,1.3-.74.54-.64.22-.69.44-.43.93-.33,1-.41.42-1.35.66-1.22,1.59-.87,2.09-.35,2.08-.13,1.91,0,.81.35.85.55.59,1.31.83.41.64.07.54,0,.54,0,.56.28.61.34.4.74.63,1.4,1.94.29.9-.13,1.11-.49.66L288,774.73l-.6.36-.41.37-1.54,2.38-.64.73-.62.39-.76.2-2.15,0-1-.18-1-.29-2.66-1.49-.87-.3-1.11-.12-.5.1-.85.44-.48.15h-.48l-1.61-.3-4.45.3-.6.14-.37.37-.32.46-.44.42-.5.22-1.45-.22-1.14.25-3.1,1.81-1,.32-2.32.17-1.08-.15-5.53-1.74-1.81,0-.67-.22-.37-.05-.18-.07-.55-.44-.3-.17-.69-.15-.69.15-.39.19-.48.42-.39.07-.34,0-.46-.23-.35-.07-.66.22-.64.34-.51,0-.14-.88,1-1.74h.23l.18,0,.21.18.29.34.6.32.85,0,.78-.3.44-.51-.21-.64.12-.32h.32l.43.32-.34-1.37-1.59-2.25-.36-1.35.39-1.59,1-1,2.3-1.44.37-.42.39-.61.27-.69.12-.68-.21-1-.48-.57-.48-.36-.51-.79-.62.13-.62,0-.27-1-.83.05-.64-.22-.37-.71.41-.08.28-.22.16-.39.07-.66-.44-2.18-1.15-1-1.37-.61-1-1.06-.34-.78-.1-.42,0-.71L238,752l-.21-.27-.27-.25-.23-.09-.42-.35-.2-.83-.16-.93-.25-.69-.6-.46-.51-.32-.36-.44-.14-1-.23-.56-3-3.29-.25-.31-1.27-2.45-.36-.52-.3-1.59-.12-.47-.82-1.51-.39-1.18-1.34-.81-.45-.66,6.54,2.4.23.17.43.74.26.14.25.13.5.46.28.12.3-.07.46-.22.27-.05,1.42.12.65-.07.57-.42.44-.68.2-.81-.13-.64-1.54-.76-.69-1.1-1-2.25-3-1.84-.74-1.17,1.17-1.84,1.91-.61,4,1.25,1.91-.64.48-.59.53-.93.44-1.08.18-1-.14-1-1-2.36-.6-2.22-.48-.64-1-.22-.8.07-1.36.42-.52,0-.51,0-.5-.15L233.81,714l-.32-.64-.21-1.15-.5-.54-.6-.46-.53-.81-.71-1.94.21-1.1-.07-.59-2.18-1.27-.14-.17,0-.2v-.19l-.07-.15-.21-.1-.55-.14-.16-.1-.64-1-.34-.29-1.11-.2-.85-.49-1.24-.31-.62-.62-.36-.88-.12-1.13.07-.24.3-.44.07-.17,0-.3-.14-.49-.05-.27-.07-.29-.18-.39-.28-.37-1-.42-1-.68-.81-.93-.06-.93-.26-.12-.64-.59.64-.79-.13-.68-1-1.35-.12-.39-.09-1,0-.47-.21,0-1,0L216,688l1.06-.81.36-.42-.34-.19-.78,0-.64-.14L215,686l-.62-.57h.91l.46-.09.46-.22-.46-.25-.5-.12-1.1,0v-.34l.36-.29.23-.35.26-.29.75-.24L216,683v-.35l-.16-.31.05-.62-.23-.49-.39-.36-.35-.27-.09-.15-.11-.27-.14-.22-.23-.1-.27.08-.53.26h-.23l-.6-.58.48-.64.88-.73.62-.86H213l.73-.39.32-.47-.06-.61-1-1.84-.18-.19-.35,0-.22.25-.21.27-.25.15-.55.75-.46,3.51-.46,1-.23-.9-.76.17h-.53l.37-1.37-.37,0-.37,0-.34-.13-.32-.24.41-.47,0-.66-.23-.83-.14-.83.14-.86.3-.56.45-.4.51-.29-.57-.42-.6-.29.23,0,.48-.34-.71-.54-.23-.12.48-.81L208,667l.19-1.32-.14-.1-.37-.19-.16,0-.16.74-.41.34-.41-.07-.21-.49-.12-.81-.27-.54-.3-.47-.21-.51.35-1.08,2.16-.2.48-.83-.71.34-1,.15h-1l-.8-.12-1.72-.86-.76-.07.14.93-.46.12h-.62l-.48-.27,0-.56.09-.64,3.19-2.69.3-.39-.09-.35L204,657l-.76.07-.5.19-.83-.93-.64-1-.71-.73-1-.1.76-.74.41-.27.44-.09-.34-1.06.45-.54,1.75-.56v-.32h-.46v-.34l.32-.12.14-.08.23-.51-1-.52.23-.88,1.47-2.18.44-1.27.09-.74-.21-.66-.3-.51-.16-.54.09-.49.51-.39-.12-.2,0-.17-.09-.34.82-.17.35-.93.3-3.43.13-.35.35-.12.46,0,.34-.13.28-.31.18-.62-.53.08-.43-.15-.3-.44-.23-1.4-.35-.41-.36-.39-.32-.49-.19-1.25.58-.74,1.9-.86-.41-.63-.69.12-1.42.86-1.86-.17-.85.12,0,.76-.48.27h-1.08l-1.7,1.37-.32.15-.2.22-.74.93-.32.29-.48.07-.51,0-.48-.17-.39-.22.16.27.3.81-1.12-.32-.33-.78.23-1.15.53-1.33.76-1.44.87-1.13,1.81-1.71-.45-.37.45-.59.51-.39,1.1-.44-.57-.81-.81.32-.78.83-.55.76-.34-.68-.64-1.79L196,622h-.21l.21,1.54-.05,1.81-.34,1.79L195,628.6l-.92,1.25-1,1-2.34,1.52.32-.76.37-.57.41-.46.48-.35v-.36l-.5,0-1,.46-.34-.15-.18-.66.2-.56.39-.39.39-.15,1.2-.12-.25-.37-.62-.78,0-1.25-.57,0-.3.44-.23.67-.3.63-.39.34-.5.2-.33-.12.19-.56,1.15-2.16.73-1,.28-.54.27-.74-.3.57L190,625.27l-.55.39-.25.25-.12.22-.25.61-.12.22-.91.39-1-.31-.84,0-.74,1.37-.37-.34,0-.34.11-.4.07-.54-.09-.46-.6-1.13.16-.93L185,624l1.19.15-.25-1,.32-.52.59-.36.51-.57-1.22-.63-.18-.27-.07-.32-.32-.47-.07-.29.07-.25.16-.19.16-.12.07,0,0-1.57.09-.39.33-.37.27-.17.25-.22.19-.51h-.69l.14-.64-.16-.25-.28-.14-.16-.39,0-.47.21-.51V613l-.3-.76-1.33-1.6.11-1,.14-.49-.18-.13-.85,0-.32-.44,0-1,.37-.86.69-.22-.12-.71.19-.46.34-.42.3-.63.07-.45-.07-1.86-.18-.29-.39-.12-.39-.18-.19-.48v-1.25l-.07-.57-.18-.51.12-.2.06-.17.07-.39-1.7-.44-.89-.52-.39-.66.3-.81.73-.51,1.49-.69-1.4.1-.64-.22-.25-.76.14-.66.34-.54,2.16-2.57.87-.54,3.4-.49,1.12.42.48,1.49.23,1.13.6,1.17.69,1,.5.49h.28l0,0,.51,1.62-.05,3.38,1,.48,2.15.13,2.16-.47,1.77-1.39,1-2.82.22-1.35.28-1.2.85-2.3.37-1.4.11-2.54.92-3.29.3-.83.59-.86.3-.75v-1.18l-.16-1.2-.75-3.55-3.59-10.51-.2-1.15.14-1.4.62-.81,4.52-2,.8-.71,1.31-1.74.18-.44v-1l.23-2,0-.81-.42-.88-.2-.19-1-1-.41-.74.23-1.81.82-.68.53-.42,1.75-.49,5.39.44,1.38-.25,4.91-3.23L226,538l1.24-1.62.92-2,.46-2.35-.09-1.93-.87-3.46-.3-1.81.16-.88.44-.71,1.81-1.86.64-.86.53-1,.39-1.3.25-1.93-.14-1.69-.48-1.52-3.76-7.69-3.54-5.24-.89-2.11-.51-1.93-.73-4-.62-1.81-1.29-2.5-.09-1.1.92-.74,7.74-1.84,2-.07,3.78.54.72-.32.22-.59.1-.22.64-3.7.21-.71.25-.49,2.45-2.91.67-1.2.51-1.54,1.12-5.17,0-.64-.32-.51L231.59,457l-1-.76-1.11-.32-2.29-.12-1.26-.25-.95-.49-2.64-2.77-1.56-1L216.89,448l-.45-.73,2.61-14,2.6-14.05-.07-2.11,0-.78-.94-2.75-.23-.49-6.31-13.47,0-1.1.43-1.54,1.2-2.72.52-1.57.07-1.3-2-8.55-.12-1.17.37-.88,4-4.39L213,364.91l-2.25-4.72,7.11-9.38.51-1.11,0-1.27-1.65-5.73,4.13-3.36,6.34-8.67,6.7-8.35,2.46-2,7.62-3.84,8.42-1.84L264.23,317l11.82,2.32h.82l.62-.58,5.54-8.55.43-1,0-1.05L282,294.52l-.62-1.37-1.22-.66-2.62-.44-1.42-.42-10-5.34L275,274.54l8.88-11.83,4.64-5.39.71-1.74.05-.05.18-.47.92-5.41.48-1.44.67-.89,2.75-1.93,1.08-1.71.14-2.72-.26-3.07,0-2.79,1.68-13.88.32-.94,2.25-3.79.39-1.25-.14-2.38-3.49-16.73,8.61-.83,8.58-.81,14.37-7.22.35-.79-.07-1.22-.28-1.93-.18-.84L326,176l-.12-1.67,8.15-6.47,12.4-17.29,2.91-2.81,6.2-4.56,2-.86,1-.71.53-1,.94-7.86-.18-1.06-10.42-13.49,1.79-4.48.64-.74,5.6-.81,2.07-.76,1.84-1.44,3.48-4.14.72-1.32,5.14-14.06.71-1.23.83-.83,13.81-8,2.69-3.55.73-.44,9.62,4.16,9.62,4.17.85-.2,1-1.13,1-1.52,6.2-8.76.73-2.5-1.76-12.18,0-1.88.65-5.73.18-.71.34-.37.58-.15,8.28-2.2,1.54.73L433.81,52l1.88.34L447,51.73l14.87,5.07L477,61.35l1.35-.05,1.31-.78,7.89-7-9.52-4,6.36-4.09,2.84-3.26,3.45-6.61.43-1.27.14-1.18L491,27.58l-.26-1.06-8-7,8.73-.44ZM382.85,681.24l-.91.1-.74.63-1.12,1.74.75,1.5.07.78-.53,1.32v.44l0,.2-.12.1-.46.17-.13.1-.16.46-.14.79-.14.46-1.4,2.23-.21.76-.23,1.35-.57.58-.76.27-.73.44.2.44.28.3.32.19.37.1-.67.54-.48.56-.94,1.38.23.66.21,1.08-.05,1-.5.44-.33.53-.55,2.7-.39.93-.09,0-1.54.76-.23.27-.2.44-.14.47-.09.51,0,.52-.16,1-1.92,5.22-.3,1-.12,1.18-.11.44-.3.51-.34.42-.28.17-.41.17-.21.47-.18,1.1v.29l.2.15,0,.25-.1.27-.29.53-.07.25-.07.86-.12.58-.18.47-.48.93-.46,1-.35,1.08-.2.93,0,.42,0,1.15-.09.51-.49.71-.11.52-.25.81-1.7,3.35-.6.64-.76.44-.73,0-.53-.56-.07-.46.07-1.15v-.49l-.46-1.4.28-1.1,0-1.25-.09-2.16L359,728l-.21-.91-.37-1-.18-1,.25-4.36.12-.49.57-1.59.78-1.18.12-.42.23-1,5.62-12,.57-.54.71-.2,1,0,.89-.22.48-.63.58-1.94,1.51-3.16,1.75-2.81,1.44-3,.6-3.77.12-.54L376,687l.71-.29.46-.47.16-.44.11-2.91.14-.88.74-.66,1-1.4.55-.42.64-.29.35,0,.27.76.3.1.3-.17.21-.42h.22v.22l.07.15.1.12.06.17.16.22.14.25.09.29ZM447.08,653l.34.29,1,1.42.2.47-2.34.19-1,.74-.16,1.91-.39-.47-.42-.24-.29.1,0,.61-.32.42-.18.53v.59l.29.59-1.35.29-1.19,0-.42-.12-.71-.47-.37-.12-.46.15,0,.31.11.47.05.49-.46,1.76-.6,1.25-.18.54L438,665l-.16.39-.07.52.21.12,1.4.39-.32.78-.21.71-.14.71,0,.84-.27.68-.46.74-.23.66.5.54-.25.81.14.49.43.19.6-.05-.18.25-.28.81L440,675l1.33.22.14-.17.07-.32.16-.22.43.2.55.32.17.17.2.39.21.51.11.71-.11.62-.55.27h-1l-.11,0-.39-.27-.18,0-.19.12-.39.47-.23.12-1.1.24-1,.59-1,.86-.78,1-1.26.93-.46.71.23,1,.25.12.71-.12.28.17.11,1.62-1.17.49,0,.17-3,.59-.91.46v.39h.45v.32l-.75.17-4.16,2-.82.57-.72.8h2.32l-.78.54-2.38,1.06-.53.68-.23,2.65.37.66.52.34,1.2.39h-1.86v.35l.46.39-.88.63-.36.42-.32,1.08-.44.32-3.17,1.34-1.15.18-1-.52,2.2-3.28.07-.44-.05-.49-.13-.69.43-.44,1.24-.39.51-.39.27-.64.28-1.37.27-.61-.8.44-.73.73-.72.49-.75-.24v-.39l.46-.44.36-.69.07-.64-.43-.34.13-.27.19-.49.14-.24-1.43-.59-.87-4.34-2-1.52.07-1,.48-1,1.24-.86.44-.93.18-1.05-.18-.76.46-.64-.1-.32-.32-.19-.27-.27-.09-.22-.35-.47-.05-.29,0-.64-.09-.32-.37-.68-.35-1-.25-1.17-.07-1.2.55-1.91,1.13-1.55,5.48-4.87,4.62-6.76,1.22-1.2,1.72-.66.46.07.5.22.53.12.46-.26.2-.37.19-.76.18-.49.51-1,.57-.8.67-.64.75-.37.78-.1.62.27.51.61.41.94,0,.26-.1.2-.11.2-.05.22.07.29.16.17.14.1.09.15.07.51.21.39.64.74.23-1.32.57-.67.55-.49.26-.93-.16-.31-.26-.42-.07-.34.49-.15,2.06-.32v.32l-.5.91.64.49.8,0v-.69l.51-.29.66-.2.67,0,.46.19-.25.32.16.49.23.59.36.49Zm7.8-5.63H456l.52.19.58.47-.21.24-.21.12-.25,0-.27,0-.49.67-1.6-.45-.74.32-.69.57-1.47.49-.73.9.44.32.25.32.09.37-.09.44-1,1.47,0,.27-.55-.08-.51-.22-.46-.34-.44-.44L447,651l.12-.61.23-.39.71-.78.23-.49.16-.52.23-.49.39-.41.55-.18,1.15,0,.48-.42h.3l.53.15.59.05.58-.35.14.86.43.15Zm-252.63-4.27,0,.89.07.31.18.22-.34,1.45-.12.29-.41.3-.32,0-.12-.34.16-.62-.55-.19-.53.46-.39.81-.27,1.42-.3.42-.37.19-.69-.14-.27.29-.23.42-.3.24H197l-.3-.22-.2-.29-.21-.2-.9-.05-.18-.19-.07-.64-.11-.44-.21-.47-.14-.44.12-.44.39-.22.92.15.43-.08-.69-.31h-.75l-.65-.15-.25-.78.28-1,.62-.22,1.44.27h3.08l.73-.25.6-.46.6-.29Zm2.3-8.94.2,1,.07,1.15,0,2.33-.33,1-.73.26-.87.1L201.22,641l-1.79-.52-.88.42-.55-1-.89-.24-1,.27-.75.56-.35.54-.14.37-.11.19-.34,0-.35-.2-1.08-.88v1.81h-.2l-.21-1.29-.14-.32-1.05-1-.3-.44.07-.76.66-.78,3.33-2.7,1.17-.36.85-.69.46-.22.55,0,1,.17.5-.15-.14-.56.05-.54.23-.42.34-.27-.16-.51-.09-.2.55-.32h.58l1.19.32.37,1.15.62.49.71.37ZM456.86,627l-1.36.91-1.37.39-1.2-.61-.89-2.11h1.17l.87.47,1.91.36Zm-30.21-46.78-.12-.12-.32-.69-.16-.27-.52-.39-1.77-.68,3.92,0,2.09.52,3,1.59-1.72.05-.73-.12-.76-.62,0,1.21.53.36,1.51-.14-.87,1-1-.15-1.75-1.23Zm4-57,.13.15.23.07.21.1.09.22-.11.54h-.3l-1.47-.74-1.86-1.76-1.9-.86-.44-1.15-.14-1.44.14-2.67,0-.62-.44-1.15.12-.41.39-.13.52.25.16.27.39.51.14.32v.2l-.07.27,0,.29.09.34.42.49.91.71.28.64-.55-.07-.78-.54-.51-.1.35.76,1.49,2.55.34.85.32.54.46,0L430,521l.09.78.14.49Zm76.76-190.14.84-1.66,1.34.17.52,1.13-1.56,1.12.23-.36-.25-.59-.32-.15-.39.1ZM428.49,588.68l.09.12.07.32-.1.22-.11.12-.94,1.35-.67.39-.11.35-.12.26v.35l-.07.32-.09.19-.16.25-.2.29-.28.15-.32-.1h-.16l-.16.2h-.32l-.35-.13-.37-.34-.36-.51-.12-.42.16-.2.26,0,.27-.12-.11-.35-.28-.39.05-.19.2,0,.3-.09.35-.32.07-.37-.23-.15.09-.27,1.37-.76.62-.58.56-.42.52-.27.44,0,.21.58Zm7.73-5.88.92.12.23.08-.41.39-2.35,1.25-.27-.15.18-.59.39-.58.46-.52.46-.15Zm2.71-4.53.21.05.25.24-.09.32-.3.25-.25.27-.44.71,0,.14v.18l-.09.09-.16.08-.21-.05-.35-.25-.36-.14h-.19l-.18,0-.3-.2.05-.56.48-.66.64-.49.6-.17.48.07Zm-4.06-2.42-.39-.35-.37-.41-.16-.25-.35-.44.3-.22,1.38,0,.09-.12h.25l.26.12.3.25.55.69.23.12.11,0,.09.29.09.71-.18.61-.5.44-1.47.62-.16,0-.16-.22.13-.37.21-.14.09-.15-.07-.32-.07-.46Zm-19.08-2.36.53-.22,3.86.86.39.32-.55.12-.3-.07h-.67l.19.19.43.57-.34.54-.74.17-.82-.12-.88-.45-.57-.41-.18-.42-.16-.39-.23-.29Zm25.07-.93.37.15.13.32-.13.22-.33.2-.27-.2,0-.34Zm3,.47.14.27,0,.51-.34.3-.58-.32-.41-.49-.16-.12-.11-.15,0-.37.3-.29h.44l.48.39Zm-.57-2.13-.56.86-.5.56-.73-.07-.4-.86.44-.81.85-.32.44-.07.16,0,.25.27Zm-9-3.87-.34.12-.3.27-.14.51-.32.08-.5-.27-.19,0,0,.27-.14.1-.18,0,.36,1.08-.11.56-.37.2-.27-.17-.14-.44.07,1.76-.26-.07-.36.19-.19.32-.2,0-.16-.3-.14-.46-.19-.49-.29-.44-.28-.49-.05-.54-.11-.25-.11-.24.11-.42.37-.22.43,0,.37.14.28.59,0-.05-.07-.24.12-.22.18-.08.23,0,.2-.1,0,0-.23,0-.21,0-.11-.13-.16-.07-.23,0-.09-.17.18-.41.3-.42.69-.64.39-.46.59-.37.76-.22.74,0,.66.24.32.32,0,.24.13.08h.16l1.54-.37-.07.29-1.88.74ZM445,560.27l.14.07.16.22-.07.22h-.14l-.16.08-.25.19-.44.08-.62,0-.3-.2-.5,1.62-.25.46-.32.12-.33.13-.75-.27-.16-.64.32-.51,2.34-2.33.48-.2.41.3ZM440.86,562l-.78.51-.12.15v.17l-.13.1-.26,0-.25.08-.85.41-.43.12-.44,0,0-.15.59-.27.74-.47.64-.66.32-.39,1.33-1.25,2-1.3v.47l-.64.78L441,561.91Zm4.75-11.1.09.05.12.17v.3l-.14.29-.35.27-.52.15h-.53l-.44-.17-.25-.15-.11.15-.21.17-.3,0-.87.12-.19-.44.39-.86,1.47-2,.35-.71.25-.12.32.09.32.2.32.39.26.59,0,.71-.11.69,0,.31.09,0Zm-9.14-20.69h.16V530l-.55-.64.23-.22.65.1.5.29.28.32.16.39.23.22.32.1.18.32v.32l-.14.12,0,0,.18-.07.18-.1.16.1.21.44,0,.39-.84.39-.69.17-.83-.14-.41-.13-.14-.31-.21-.67,0-.49.05-.26.11-.35Zm-101.2,212.3.41,0,.3-.07,0,.27-.39.29-.46.08-.07.24.16.57v.44l-.05.19-.18.12h-.3l-.16,0-1.08-.74-.27-.73.41-.76.48-.22.21.19.27.12h.33ZM374.2,630.24l.37.27.11.32-.07.66-.36.42-.42.05-.27-.2-.37-.78-.14-.71.42-.32Zm.85-1.51.62-.23.3.1-.14.08h-.07l-.16.29-.12.15-.32.29-.46.2-.55,0-.64-.17-.62-.39-.41-.61-.19-.49-.18-.25-.14-.27,0-.34-.16-.34-.39-.45.16-.46.6-.27.29-.07.44-.22.23,0,.14.07.43-.15.21.1.16.12-.09.3-.35.46-.39.15-.36,0,.62.49-.07.17h-.39l-.21.27.09.39.53.57.8.61ZM423,595.44l1-.54.23.12-.11.52-.51.49-.73.34-.25.2-.28.12-.25-.05-.14.27.32.37.53.17.05.22-.94.17-.53.24-1.17.25-.71.47h-.35l-.27-.15-.14-.17.07-.44.5-.79.53-.51L421,596l.51-.09h.45l.3-.08.21-.14Zm-4.13-2.13-.12.61-.14.22-.25-.27-.28-.12-.22.22-.28,0-.39-.4-.07.05.12.52,0,.44.05.49-.19.39-.45.24-.44-.14-.64-.61-.14,0-.25.15-.51.52-.5.31-.21-.07v-.32l.07-.19.18-.76.23-.32.37-.1.18-.2-.07-.31.12-.35.32-.44.37-.27.73.1.81-.24.75-.1,1.5.15,0,.24-1.24.44.07.12.16-.12.21,0Zm-16.46.86-.16.46-.07.42.11.59,0,.53-.14.52-.12.54-.09.34-.23.22-.23.15.07.39.3.66-.23,0-.9-1.15,0,.27-.3-.08-.3-.63.05-.88-.23-.44-.27,0-.05-.39.09-.91L400,594l.32-.62.07-.44-.07-.29,0-.56-.09-1.45.27-.54.37,0,.07.39.11.29.14.08.16.05.3.34.25.59.23.73.18.88Zm14-200.26-1.54.44-1.74-.26-.69-1.16.32-.95.3-.69.11-.58.44-.52.78-.2.6.2.34.34.37.18.82-.37.72.12.34.15.05.44-.12.76-.3.56,0,.32-.14.19-.41-.07-.37.05-.09.27.25.17.18.3Zm92.09-55.28-.21.59-.29.47-.44.39-.57,0,.07-.54,1.23-1.34.14.07Zm.92-4.8.3-.12.41-.44.62-.51.35-.1-.05.12-.16.2-.05.19.12.27-.05.25-.23.27-.11.36.09.47,0,.56-.13.69-.32.68-.49.44-.48.32-.23-.05h-.25l-.51.44-.09-.58.62-2.8.28-.41ZM560,235.64l.35.32-.25.51-.76.45-.42.17-2.7.14-.33-.19.05-.64.28-.61.39-.15.34.17.16.32.37.22.66-.37.62-.58h.67Zm-8.51,1.47-.19-.24-.18-.67,0-.51.09-.22,0-.61.3-.32h.6l1.19.49.18.34-.27.22,0,.35.35.49.34.31.16.3,0,.44,0,.34-.39-.1-.32-.19-.3-.15Zm14.78-5.75.53.26.23.37-.09.35-.33.07-.55-.1-.71-.27-.48-.78.21-.49.62.32.29.24Zm-12.6,1.27-.85-1.13-.23-.68.39-.25.44-.19.5.07,2.59,1.22h.26l.25,0,.27.2.33.44.73.54v.51l-.48.27-.39-.07-.39-.49-.44-.39-.48-.27-.48-.12-.28.22.12.49-.12.07v.2l.07.32.35.49.06.22-.16,0-.48-.19Zm12.05-4.46,1.61-.64.5.27-.11.54-.55.22-.26.27,0,.44-.21.37-.3.22-.34-.07-.39-.17-.12,0,.14.2-.23-.05-1-.49-.18-.25-.16-.51.23-.3.36,0,.46.07Zm-.28-.71-.39-.37-.13-.24.45-.44.92,0,.3.76-.5.37Zm13.18-7.15.46.39.27.56-.09.4-.37-.13h-.22l-.12.32.07.49.3.88-.48-.24-1-.78-1-1-.57-1.13.14-1,.62-.31.85,0,.87.51.11.44-.48,0,0,.17Zm28-2.21.12.25.06.34-.11.54-.23.37-.21.22-.11.22.07.17-.37.39-1.19.86-1.29-.64-.62-.83v-1.25l.28-.32.23.52.27.22.19-.25.11-.68.18.07.35.32.41.17.39.05.39-.17.35-.32.2.07.19.27.09-.19.09-.4Zm-35.42,2.38-.3-.32-.2-.29v-.37l.13-.49.07-.76.12-.88.37-.24,1.49,1.17.39.93.3,1.2-.21.54-1.52-.2Z" style="fill:#efc441"/></svg>