<svg xmlns="http://www.w3.org/2000/svg" viewBox="0 0 800 800"><polygon points="776.1 389.16 775.18 396.39 774.61 398.47 773.58 399.82 769.91 403.86 770.25 407.29 771.4 410.59 771.86 413.65 769.79 416.47 767.04 418.19 766.35 420.27 766.46 422.84 766.12 426.02 764.51 428.6 762.67 430.19 761.87 432.39 763.25 436.68 766.35 439.98 773.46 440.6 776.91 443.41 778.28 447.7 778.05 453.45 776.79 459.09 775.76 460.68 774.38 462.64 771.4 463.25 759.35 460.31 753.49 460.8 751.43 460.44 749.48 459.7 748.44 458.6 747.53 457.5 746.26 456.39 739.38 454.19 738.57 451.74 739.49 447.21 739.15 444.64 736.51 442.56 732.15 442.68 716.31 446.84 714.7 447.7 714.01 449.29 711.95 456.64 710.57 458.35 706.9 461.78 705.52 463.74 705.29 465.33 705.17 470.23 704.49 472.68 704.72 474.76 705.06 476.36 705.86 477.58 707.36 478.56 704.37 483.21 707.01 486.28 711.95 487.99 719.52 489.34 722.39 490.44 723.54 492.89 722.28 497.79 721.13 499.38 717.57 502.2 716.31 504.4 715.5 507.46 715.39 509.54 716.08 511.38 717.57 513.95 724.46 520.44 726.64 524.48 724.46 528.65 719.75 531.47 712.63 533.91 707.13 533.79 707.01 528.77 705.29 524.97 698.63 519.46 696.22 516.4 695.19 511.5 695.08 507.09 693.93 503.42 689.8 500.85 686.35 500.11 683.02 499.87 675.79 500.97 664.55 506.36 661.1 507.34 658.92 506.97 654.91 504.64 653.07 504.64 651.23 506.48 650.89 509.05 651.12 511.63 651.12 513.34 648.59 516.65 645.38 517.87 626.21 517.63 622.31 516.28 618.75 514.08 616.57 511.38 613.24 503.3 611.75 502.2 608.08 500.24 606.82 499.13 606.47 497.91 606.7 494.48 605.78 472.93 605.21 471.46 603.83 471.82 601.19 473.66 600.04 475.01 599.47 476.6 598.67 477.95 596.83 478.68 595.57 478.19 591.32 474.4 591.09 471.58 587.76 470.85 579.62 471.7 576.4 474.52 573.53 479.91 572.27 485.42 573.88 488.36 576.06 489.83 576.4 492.15 575.94 494.97 575.94 498.15 578.24 506.12 578.47 508.93 577.44 513.95 572.5 523.38 569.98 531.47 568.48 533.67 566.53 535.38 564.58 536.24 562.75 537.47 561.83 539.67 561.02 542.36 559.76 544.45 559.65 544.57 547.48 552.28 544.38 556.57 543.81 559.51 544.15 564.53 543.58 567.22 542.2 569.31 540.59 570.16 536.92 571.26 532.67 574.33 531.99 576.9 534.97 584.74 529.46 589.39 529 590 528.89 590.49 529 591.1 529.46 591.72 531.18 593.31 532.56 597.47 534.17 599.55 535.77 600.41 539.45 601.02 541.05 602 542.89 605.68 542.32 609.47 538.07 617.07 532.67 623.19 527.74 622.33 522.23 620.01 515.57 621.84 516.15 618.41 517.18 615.84 517.87 613.02 517.64 609.23 516.61 606.29 515.23 603.35 512.36 598.58 510.64 595.02 509.61 593.55 508.46 592.7 498.82 587.92 496.29 587.06 493.42 586.94 493.65 586.33 494.34 585.23 497.33 578.98 502.03 573.59 504.56 568.33 500.31 563.06 497.79 562.2 492.62 562.33 489.98 562.08 488.6 561.22 487.45 559.14 486.88 558.9 486.08 558.65 485.05 559.14 482.4 561.22 481.14 561.84 478.27 561.71 470.47 557.55 467.14 556.45 465.53 555.71 454.98 541.14 450.15 536.61 445.56 534.53 441.2 532.81 438.1 530.49 436.27 526.93 435.58 521.42 436.15 515.67 438.91 504.03 439.48 497.54 439.37 490.81 438.68 485.79 436.38 482.6 431.56 481.87 429.38 482.36 422.27 483.7 417.68 486.03 414.12 489.58 412.74 492.4 413.31 493.38 414.46 494.11 414.58 496.44 413.54 498.4 411.82 500.24 409.99 501.71 405.17 503.91 396.9 513.95 393.46 516.16 386.23 517.75 382.56 519.22 379.34 522.28 377.62 524.48 376.93 526.44 377.5 527.3 381.41 530.49 386.34 539.3 386.8 547.51 383.24 554.73 375.9 560.61 374.06 561.22 370.62 561.59 368.9 562.82 367.75 565.02 367.29 567.59 367.29 570.16 366.49 576.53 366.14 576.9 364.54 580.33 364.42 580.82 362.24 583.27 361.09 584.25 359.49 584.74 347.55 587.19 345.14 589.02 343.3 592.21 342.84 596.49 339.4 596.62 339.29 596.98 338.71 599.31 338.83 600.41 338.48 601.15 336.42 602.25 335.38 602.25 332.4 601.39 327.81 601.39 319.77 598.7 318.05 598.82 316.79 599.43 315.41 599.68 313.35 599.07 313.12 598.45 309.9 594.29 307.5 592.08 304.86 590.62 287.75 586.7 284.88 588.04 283.28 590.62 281.44 592.82 277.88 593.19 272.95 595.27 263.08 602 257.68 603.72 245.06 602.49 242.88 603.23 238.17 605.92 227.84 609.84 222.68 610.7 217.28 610.82 212.12 609.84 208.22 607.64 200.64 599.8 199.5 598.09 198.58 595.76 197.43 591.72 195.48 587.06 194.91 584.74 194.1 584.12 182.74 572.25 178.95 570.77 177.57 571.26 176.31 572.37 175.05 573.35 173.44 573.1 171.95 572 171.95 571.39 172.29 570.41 172.18 568.69 172.41 568.45 172.41 566.12 172.06 563.92 171.61 564.16 172.41 562.94 173.67 561.47 174.94 559.75 175.05 558.04 172.52 555.71 159.21 553.02 157.72 549.22 159.21 541.63 162.19 533.55 168.05 522.89 164.26 516.77 158.29 510.89 155.08 505.75 156 503.18 160.47 498.4 161.62 494.6 161.51 492.52 161.28 490.44 159.67 488.24 157.15 487.01 132.24 481.01 120.99 480.76 110.32 482.72 95.97 491.79 90.58 493.01 85.07 493.26 79.9 494.85 74.39 499.13 69.69 505.01 66.13 509.54 65.21 512.48 65.9 514.81 67.51 518.61 67.51 519.46 69.12 523.26 69.92 524.12 71.64 524.97 74.39 523.75 75.66 524.24 76.46 529.38 72.1 533.67 61.43 540.28 52.82 549.59 47.42 552.16 41.69 549.83 34.11 550.08 26.42 551.79 22.4 554 24.7 549.1 25.96 546.89 26.42 544.94 23.55 541.51 21.72 538.45 22.4 535.75 26.42 533.3 36.52 528.77 36.75 528.65 37.09 528.65 37.33 528.65 38.7 529.14 39.73 529.14 40.65 529.14 44.33 528.04 45.13 526.57 44.9 524.48 45.01 522.03 46.16 515.67 46.74 513.95 49.26 508.93 52.24 502.69 52.02 500.24 49.95 496.81 47.42 494.36 39.28 489.7 38.47 489.21 40.31 487.5 40.65 486.03 40.31 484.56 40.31 482.85 40.19 482.11 39.73 481.25 39.39 480.15 39.39 479.05 40.08 477.58 42.03 475.74 47.88 466.44 53.74 459.58 49.72 455.29 49.15 452.35 51.44 449.66 73.94 430.56 85.99 424.55 87.59 423.21 92.07 418.55 97.58 415.86 99.42 414.63 101.25 412.43 101.94 410.59 101.83 406.8 100.56 405.57 99.76 404.47 99.3 403.12 99.53 402.02 102.17 394.8 103.32 392.84 103.66 392.1 104.24 390.63 104.47 387.57 104.01 385 101.71 381.08 101.02 379 103.55 371.16 111.7 366.75 129.72 361.61 140.85 353.77 144.75 348.63 142.68 344.46 144.98 340.79 146.59 339.44 150.72 337.97 151.41 336.63 151.98 336.13 154.39 335.03 154.16 331.24 159.21 329.52 169.88 320.58 170.23 320.21 173.44 315.44 178.26 310.79 189.63 303.07 188.94 297.44 190.08 292.78 193.18 289.84 194.79 289.72 195.59 289.35 198.12 286.29 199.84 285.31 201.56 284.94 203.17 283.97 204.43 281.52 202.71 279.19 200.18 277.11 197.66 275.27 194.56 276.62 174.59 278.45 175.51 275.52 177.57 271.96 179.99 269.02 184.35 266.7 184.57 262.41 189.05 261.43 191.69 260.08 194.22 258.13 195.48 256.17 194.68 253.47 192.95 250.29 192.5 247.84 195.59 246.98 197.09 245.88 198.58 245.51 200.18 245.88 201.68 246.98 206.04 247.47 214.42 246.12 218.32 246.98 220.5 248.08 220.84 248.08 222.79 248.45 227.27 247.96 224.29 254.45 225.2 258.13 228.88 260.08 233.81 261.56 234.5 262.05 234.96 262.9 235.65 263.76 236.91 264.25 238.06 264 244.37 261.43 248.85 260.57 253.44 260.82 260.44 261.06 262.05 260.45 265.14 259.35 267.56 256.53 268.47 255.31 268.93 253.23 268.7 252 267.9 250.9 267.32 250.41 266.52 248.94 266.41 247.59 268.36 246.98 271 247.84 271.8 248.33 273.18 249.19 275.36 249.43 277.88 247.35 278.23 246.98 278.46 246.25 278.46 245.63 278.34 245.15 277.08 243.55 276.74 242.7 276.97 241.96 277.88 241.47 279.61 241.84 280.98 241.35 281.79 240.12 281.67 237.8 281.1 237.8 278.34 235.84 277.88 235.72 284.31 230.94 285.23 230.2 289.25 228.12 295.21 226.16 303.82 223.71 307.61 223.35 305.43 229.1 303.59 230.69 299.69 230.57 299.23 230.57 305.43 233.63 307.84 234.86 311.63 235.22 318.97 233.88 325.51 232.65 328.73 230.94 331.37 228 334.47 223.71 336.76 224.82 347.55 225.43 348.58 226.41 349.16 228.49 349.5 230.57 349.96 231.55 371.77 231.55 379.34 230.08 380.95 228.98 381.64 228 382.32 226.9 383.7 225.43 385.08 224.45 388.75 222.61 391.85 221.75 393 220.65 393.8 219.55 394.72 219.06 403.67 217.59 406.77 217.59 411.13 218.81 413.08 219.06 413.89 220.04 414.81 222.24 416.07 224.33 417.68 225.43 423.99 226.9 434.78 227.02 435.24 226.9 439.94 226.16 440.17 225.06 442.12 221.26 447.17 218.08 452.22 217.59 454.86 219.79 456.81 222.98 457.16 223.35 458.65 225.06 460.94 224.33 461.29 223.71 461.98 222.61 462.21 220.9 462.09 219.31 462.32 217.71 462.21 216.98 461.86 216 461.63 215.02 461.98 213.79 462.55 213.3 463.47 212.94 464.16 212.94 464.39 213.3 464.39 214.65 465.53 215.14 466.45 209.75 464.96 209.63 464.16 209.38 462.32 208.65 459.91 208.28 451.76 209.63 449.24 210.73 446.94 212.2 444.53 213.43 441.55 213.55 437.99 211.71 433.74 208.77 432.94 208.65 430.3 207.67 431.33 205.22 430.87 203.38 430.19 201.67 430.41 199.96 432.02 198.24 436.27 196.16 438.1 194.57 439.37 190.04 440.17 188.44 442.35 185.38 443.73 184.65 445.56 184.65 454.63 183.06 457.16 181.83 455.55 178.28 458.3 176.81 462.44 177.06 465.53 178.28 465.76 179.99 465.99 182.93 466.57 185.75 468.17 186.85 470.24 185.63 471.16 180.61 472.65 179.14 474.83 179.87 476.44 182.08 477.7 184.65 478.96 186.49 480.68 186.85 482.63 186.49 484.24 186.85 485.39 189.06 484.93 189.91 482.63 192.97 482.06 194.57 482.75 196.4 484.13 197.87 484.59 199.59 484.93 201.06 493.77 200.94 492.39 199.59 493.88 195.18 498.36 195.3 503.87 198.24 508.23 202.04 505.13 202.65 505.13 204.24 507.54 206.45 507.65 206.57 512.48 209.88 516.61 210.85 523.15 210.24 529.23 208.53 531.99 205.83 535.09 204.73 553.79 206.57 563.09 206.57 565.38 209.88 571.58 209.88 578.12 211.22 624.15 237.43 625.07 241.47 625.41 242.82 630.35 249.68 636.54 252.37 641.36 256.17 641.25 265.84 639.64 269.27 633.1 276.74 632.3 278.82 631.49 282.86 630.8 284.33 625.07 290.7 619.67 299.15 616.92 303.44 614.05 311.03 613.59 318.62 614.97 322.42 616.69 325.73 618.18 329.28 618.18 334.18 616.69 337.12 614.05 339.56 612.1 342.01 612.33 344.1 616.11 345.07 626.33 346.67 629.77 345.69 632.87 346.42 641.71 345.44 644.46 345.81 676.14 355 675.91 357.57 676.6 358.18 677.63 358.06 678.32 358.79 678.32 360.14 677.63 362.34 677.17 367.61 676.6 370.06 676.94 372.14 679.01 374.96 683.25 377.89 701.16 383.16 707.59 388.92 711.37 390.88 718.6 393.08 721.01 393.08 722.16 393.2 726.41 391.98 733.75 388.55 735.48 386.22 735.93 384.51 736.05 382.67 736.85 379.86 739.38 375.81 742.13 375.32 745.35 376.18 749.59 375.94 749.71 371.77 752.58 366.63 756.82 362.1 761.64 359.53 762.56 359.4 763.48 359.53 764.4 360.14 766.12 361.85 769.68 367 775.41 371.16 776.91 372.87 777.71 376.67 775.64 384.26 776.1 389.16" style="fill:#efc441"/></svg>