<svg xmlns="http://www.w3.org/2000/svg" viewBox="0 0 800 800"><path d="M330.83,129.38l2.75,1.18,2.34,2,1.45,2.2,1.24,3.09.21,2.2-2-.51L335.1,138l-2.9-3.82-1.72-1.62-.07-.15-1.17-2.64Zm39.52,99.27,2.07,3.09-1.65,3.08-3.38,2.43-3.1,1-5.37-1.17-1.3.44-.69.59-1.86,1-.07-.22-.35-.29-.48-.22-.55.07-.34.3-.62.8-3.93,3.24-1.38.8-6.47,2.14-2.62,2.42-.48,3.23.14,3.9-.89,4.41-1.38,2.27-1.72,1.77-2,1.17-2.2.81-4.27.15-1.17.51-.69,1.18-.83,2.79-.83,1.1-2.2-.73L319,269l.28-2.21,1-2.35,1.31-1.76,1.52-1.1,1.65-.81,1.65-1.1,1.45-2.8-1-2.27L324.42,253l-2.48-.8-8.05-1.11-3.79-1.61-3.58-.44-1.79-1-1.59-1.69-1.3-1.76-1.45-1.55-2.2-1.1-2.28-.15-5,.3-2.21-.66-14.32-9.11-3.51-.37-39.67,13.74-1.65.22-1.58-.22-.62-.59-1.1-1.91-.83-.22-.41.51-.42,2.21-.34.81-2.07,2.94-1.58,2.86-.69,3.24.83,4,.41.73.21.81.07.81-.07.88,2.34,4.11.07,1.69L214.11,272l-4.82-8-3-3.23-1.44-.22-.35.22v.81l-.48,1.25L202.12,267l-4.61,13.52-1.1,4.85-.35,5,.69,2.28,1.52,1.69,1.79,1.47,1.44,1.69.76,2.06.35,2.42-.49,15,1.38,3.09,4-1.62.61-.88.28-1,.34-.88,1-.37.55.37,2.41,2.43,2.13.73,4.34-.73h2.21l1.86-.23,1.85-.66,1.73-1,3.37-2.79,1.72-.73,8.82-.52,4.06.44,4,1.33,4.2,2.35,3.93,1.1,7.78-1.54,4.06.44,3,1.39.9-.66,1.51-2.2,1.73-1.47,2.06-.66,2.2.07,2.07.44,3.38,1.91,1.65.59,1.65-.59.83-1.17,2.82-5.88,1.58-1.1,1,1.17.41,2.35.07,2.13-1.1,4.56.14,1.76,1.79.66,1.79-.44,8.95-6.39,1.31-.44,1,.07,2.07.67h1l.62-.37.48-.74.62-.66,1-.29,1.66-.37,3.23-1.18,1.79-.22,1.38.52,2.27,2,1.24.74,1.79.14,3.65-.66,1.79.22,2.41,1.84,1.45,2.65,1.93,6,.07.07,1.1.89,2.34.95,1,.88.56,1.77-.21,1.69-.48,1.69-.07,1.54,1.58,2.64,2.62,1.55,3.1.51,2.75-.44,3-1.69,1.24-.29,1.52-.08.89.15.83-.29,1.24-1.4,1.86-.88,2.2,1,2.48,1.54,2.75.74,3.24-1.62,1.86-3.45,1.45-4.12,2.06-3.53,3.31-2.13,4.2-1.1,4.27-.22,5.71,1.1h1.31l1-.81,3.24-3.52,1.38-1.1,3.51-1.77.76-.59,1.37-1.47.69-.44,1-.36,2.89-.52,3.44-1.54,1.86-.22,3.38,2,1.65,1.47.14.08,1.44,1.91.62,2.05-.55,1.84-2.55,3.67-.89,1.91,2.13,4.41,4.14,1.84,4.88.22,10.26-2.06,2-.07,1.59,1.4.89,2.86.28,3.31-.42,2.5-1.1,1.91-1.38,1.32-1,1.54-.21,2.57.76,2.58,1.45,2,1.86,1.32L452,351l3.65-.37,3.71-1.54,9.92-6.83,1.72-.81,3.72-.74,3.51-1.91,1.86-.29,1.72,1.32,1.1,2.79.62,3.16.21,2.65.9,1.91,2.06.88,4.34.66.83.52,1.58,1.17,2.07,1.1.34.74v1l.28,1.25,1,2.06,1,1.4.07.07,1.11-.07,4.13-8.82,2.34-6.76,1.17-1.91,1.79-.66,2.2-.22,3.79-1.91,1.72-.08,3.31.88,1.72.08,1.65-.3,3.1-3.23,1.1-.44,1.59.37,2.54,1.61,1.59.08,1.17-.74,1.93-2.35,1-.88,1.72-.51,1.72.14,18.53,4.71,1.58-.08,4.34-.88,2.06.15,6.27,1.32,1.79.51,1.52-.07,4.89-2.57,1.3-.22,1.24.37,1.79.88,3.52,1,3.16-.29,10.26-3.38,5.72-1,.69-1.32.21-1.77.75-2,2.48-1.62,11-2.64,3.51-.37,9.3,1,2.82,1.4-.07,2.49,1.1,7.13.14,2.57-.27,2.06-3.17,8.74-.76,3.75.55,3.6,2.41,4,4.2,4.12,1,1.69.89,4.33.62,2,1.1,1.69,6,4.41,3.31,3.6,1.45.95,1,2.13.27,2.06-.48,1.91-1.44,1.54-2.21.74h-4.82l-2.27,1-1.45,1.47-1.37,2-.83,2.28.28,2.28,1.24,1.83,2.89,3.24,1.1,1.76.34,2.42-.62,5.52.35,1.91,3.58,5.87.69,1.84,1,5.22.9,2,1.93,2,1.72,1.1,3.65,1.39,1.72,1,3,2.72,1.58,1,9.64.3,1.72-.37,1.31-2.06-.82-2-1.24-2.06L680,435.2l.83-.67,3.92-1.32.76-.73.14-1.1-.07-1.11.27-1,1.38-2.05,1.45-.88,1.72.07,6.19,2.06,2,.36,2.21-.07,7-2.35,2.07.22,14.32,6.91,17.08,6.39,1.79,1.47,1.58,1.76,1.65,1.4,2.34.29,2.28-.22,1.86.44,1.58,1.1,1.58,2.14,1,1.39.69.66,1.79,1,.69.73.27,1.1.14,1.18.76,3.53-.07,2.42-.55,2.28-1.17,2.06-4.27,4.7-1,2-.41,2.28.07,11.83,1.93,14.33,1.92,3.53,7.1,3.89,1.24,3.45-.42,7.87.28,3.3-.07.81.34.74,1.11.66.89.73-.2.88-1.73,2.65-.75.44-.42.59.35,1.69.48.95.69.66,5.16,2.8,1.24,1.17.35,2.28-.35,1.1-.76,1.33-1.58,2.13-.69,1.1-.27,1.17-.21,1.11-.34,1L768,549.6l-1.38,1.54-1.1,1.77-.42,2.35,1,4.41,2.34,3.52,3,2.72,9.09,5.22,1.79,1.62,5.1,6.54,2.82,2.79,3.24,2.2-5,1.55L786.15,587l-1.24,2.13-.21,4.63-.9,1.47-9.36,3.45-2.41.37-1.86,1.1-1,2.14-1.11,2-2,1-3-1.61-4.62-7.72-2.82-3-12.88-7.79-3,1.62-10.19.66h-.9l-.82-.22-3.65-1.1-2.2-.89-1.86.15-1.79.37-2.9-.52-1.17-.07-1-.29-1.45-2.43-1-.59-1.1.08-1.17.73-.55-1.54-1.17,3.31-2.48.29-2.9-.73h-2.68l-1.65,1.69-.14,4.26L695.18,592l-2.41,1-11.23,2.2L674,598l-2.14.44L666.19,601l-4.34.44-2,.58L656,605.59l-1.45.3-1.52-.37-2.27-.22-1,.37-1.65,1.24L647,607l-.68-.52-1.45-1.91-.76-.73-2.06-.15L637.82,605l-1.59-1-.41-2.57,1.24-2.43,2.13-1.83,2.14-.74,3.85-.37,1.45-.73,1.72-1.4,1.72-2,.69-1.84v-5.22l.07-1,.69-3.16-3.58-.44-4.41.15-6.95-1.84-12.05-4.41-4.48.15-6.27,3.38-1.65-.44-1.72-1-2.41-.3-2.48.22-2.07.74-1.58,1.17L597,583.33l-1.1.51-2.14-.81-.89.3L589,586.27l-1.58,1.91-1.72,3.6-1.17,1.69-2,1.39-7.23.74-7.23,4.26-2.2,2.57-2.48.88-4.69.89-4.06,2.42-3,4L547,620.21l-4.2,6.47-.62,2.42-.9,1.18-15,2.13-3.37,1.69-7-1.25-4.48,1-10.19,4-4,2.64-1,1.18-1.51,2.13-.9,1-3.37,1.91-2.69,2.86-29.12,21.38-3.93,1.62-5,.88h-4.89l-4.75-1-4.2-2.2-3.37-3.45-1.38-2.14-1.1-2.35-.76-2.49-.69-5.74-1-2.42L422,642.48l-.89-2.28-.35-2.65v-5.07l-.34-1.46-1.72-2.65-.62-1.32-.21-1.55.21-7.42.82-5.07.55-1.91.69-1.1-.34-2.94,3.72-6.24.07-3.46.62-1.54.27-2.65-.21-5.21-.75-4.71.34-1.83,1.1-2.72,1-5-1.38-10,.41-5.44.35-.66,1.24-1.69.48-1,.27-1.25.49-3.82,1.17-3.89.13-1.18-.2-1.39-1-2.65-.13-1.17.82-2.21,3.72-2.35,1.58-2.2.35-2.28.14-2.94-.21-2.72-.28-1.47.76-.88-3.1-3.68-3-2-3.58-.22-12.32,4.18-1.79,1.33-2,1.1-2.14-1-3.85-3-1-.15-.82.23-.48-.23-.42-1.61.14-1.32,1-2.8.69-3.16,3-5.58,1.38-5.07,1.86-3.53.62-3.67,1.86-5.37.55-2.79-.62-5.58-2.41-3.68-3.44-2.2-8.34-3.38L390.19,463l-3.86-2.79-2.82-1.4-1.24-.29H381l-.76.37-.76.07-1-.88-.62-1-.89-2.28-.56-.95-1-1.11-1-.88-1.17-.66-1.31-.37-2.34.08-.69.88.34,2.86-1.1,1.25-2.41-.51-4.13-2-1.17.22-.62.51-.34.59-.69.29h-.9l-1.65-.59-.9-.14h-3.16l-1.66.36-.69.89-1.23,2-5.86.66-1.86,1.11v.88l2,1.47-.83,1.47-3.58,2.57-.89.51-2.28-.14-1,.51-.41,1.18V469l.07,1.32v1l-1.38,4.26-1,.51-1.38.3-1.24.73-1,3.09-3,5.66-2.54,6.83-1.24,2.13-1,1-3.44,1.47-1.1.73-4.41,4.49-4.54,5.87-.83.59-1.93,1-.48.29-.55.67-.48,1.1-1.11.44-1.17.22-.75.37-.35,1.17v1l.35,1,.82,1-2.41.88-2.34.37-2.27-.44-2-1.69-1.17,3.16.48,3.89,1.38,3.6,1.72,2.57,1.17.52,3.31,1,.69,1,.27,1.77.62,1.61.9,1.33,1,.88-.55,1.47.28,1.69,1,3.67.14,1.77-.28,1.1-.34,1-.21,1.54L300.32,552l-.48.29-.41.44v1l.13,1.1-.13.88-.55.89-.21.29-.48.51-.35-.14-1.93.07-.2.07-1.45,3.6-.27,1-.69.44-3.51,4.27-2.9,1.17-3-.51-3-1.11-2.82-.44.69.89-3.17-.52-.9-.37-.34-.29-.62-.59-.34-.81-.55-.58-1.31-.3-2.14-.73-1.1-1.77-.89-2-1.66-1.4-2.41-.14-4.2,2-2.06.59-1,.44-1,.88-1,.59-1.11-.59-.68-.51-2.28-.66-.75-.15-2.55.37-4.2,1.76-2.28.44-13.7-1.25-2,.89-1.72,5.21-2.2,2.06-4.48,3.23-.34.59-.62,1.47-.41.66-.76.66-1.45,1-.55.66-.62,2-.21,2.28.07,4.7.21.44,1,.29.28.52v.66l-.28.22-.27.07-.14.37.07,1.18.14,1.1.34,1.1.48.81.83,1.91.69,4.26.83,1.1-.83,2.72,1.72.74,1.86.36-.28,1.62-3.51,5.73-1.65,1.54L208.6,616,207,617.86l-1.1,1-1.17.44-.41.08-2.28.44-2,.95-2,.15-9.57-6.32-.48-.22-2.28-1.47-.89-1L183,607.5,181.19,606l-2.27-1.47-2-1.76-1.51-4.49-1.52-2.2-2.07-1.84-2-1.1-6.89-.81-.34-.14-.55-.15-.28.44.48,1.47.69.81,1.58,1.17.49.52.34,1.83-.48,1.11-1.17.29-1.45-.66-1.31-1.76-.89-2-1.17-1.62-2.07-.51-2.2.74-.41,1.39,1.24,3.75.2,2.64-.41,1.18-1.17-.07-3.79-2.36-1.17-.58-1.31-.15-2.06.22-3.93-.51-1.79.07-1.17,1.32.55.44.28.59.55,1.47-2.28.37-1.24,1.76-.55,2-.34.95-1.86.29-3.79,1.18-2,.22-.49.59-1.37,2.35-.9.51-1,.08-4.82,1.1-6.2.44,1.38,2.87-.62,1.83-2,1-2.62.3-2-.52-1.93-.73-1.93-.15-1.93,1.4-.76,2,.07,2.5.69,5.21-1,1.77H98.21l-4.13-1.4-2.62.37-1.86,1.54L88,634.69l-1.86.81-1.24.73-6.68,5.66-1,.66-1.17.52-.83-.08h-.48l-.9-.66-.48-1-.41-1.11-.62-1-3.44-4.18-.9-.81-2.41-1.18-1-1-1.66-2.57-1-2.14-1.38-1.54-4.54-1.1-2.55-1.25-2.27-1.62-1.24-1.69-.07-1.83.83-7.94.48-1.76L53,604.93l1.17-4.19.55-4.41-.34-5.21-2-9.78.34-5.21,2.83-7.64,4.33-7.28L65,554.75l5.44-5.07,7.3-10,3-5.73L85,521.24l1.79-1.76,3.17-1,4.68-.66,1.51-.45.49-.36,1.1-.74.76-1.61.48-1.91.76-2.06v-.08l1.23-2.35,3.93-5.87,2.48-6.91,1.65-7.28-.48-4.77-2.41-3.82-8-6.91-5.23-2.87L91.19,468l-3.72-6.61-3.93-3.75-1-1.76-.35-1.77-.2-4-.55-1.91L79,444.6,78.24,443,78,440.19l.35-7.12-.21-2.58-1.31-4.7-.27-2.28.76-1.83,2.54-1.77.56-.81.06-1.39L80,416.53l-.55-1.1-.34-1.25.34-2.72,1.17-.66,1.72.07,2.41-.51,1.66-.95L88,408.08l1.24-1.69.89-2.13.07-2.72-1-2.57-1-1.47-1.93-2.72-3.38-7.27-1.51-1.84h-.07l-.76-.22-.82-.07-.83.07-.83.22-1.65,1.18-1.65.59-1.65-.3-1.59-1.47-.76-.44L69,384.64H67.57l-1.38.37-1.38.66-7.64,2.5-2.76.07-12.8-2.05-1.79-1.69-.07-.08-.49-3.08,1.11-9.78-.21-1.69-.9-1.54-.62-.22-1.72.37-.69-.08-.55-.58-.75-1.47-.49-.44-3.92-1.55-8.2-.29-12.18-4.26-2.83-2.5v-.07l-.76-4.93.21-1.83.21-.89.48-.51,1-.88,1-.3.89.22.69-.22.76-4.18,1.31-4.19.07-4.63.68-5.07L15.09,325l1-1.18,1.51-.14,2.55.29.55-.07.41-.22.42-.37.34-.52-.69-5.58,2-1.84,8.06-1.25,9.36-6.46,3.72-1.18,4.75.08,34.36,8.67,15.09.44,8.19,2.86,5,.3,5-.44,6.19-1.55,2-.95h-.07l-.69-1.62-.34-.73,1.38-1.91,4.27-2.65,2.41-2.5,1.37-2.5.55-3,1-20.35,1.1-2.72,1.1.07,1.38.52,3.44-2.94,1.66,1.25L146,281l1.31.73.69-.88.2-1.25v-.81l.69-1.91.35-.15,1.1-.22.34-.22,1.24-2.42v-1.77l-2.2-4.7-1-2.72-.42-2.35.69-.95,2.14,1.39,2.06,4.34,1.52,5.44L157,276l4.27-1.69-.28-2.87-8.88-11.83-.48-1.25-.21-1.17.28-2.57-.35-1-1.79-1.39-.2-1.18,1.23-2.35L152.2,250l2.34,4,1.31-.37,3.51-3,2.07-.67,7.3,1.11,2.27-.37.82-1.54.21-1.84-.34-1.91-.69-1.77-4.68-3.3-23.56,4.48-1,.15-3.51-1.33-4.55-2.71-2.54-2.8,2.06-1.39,4.13-1.1,5.58-1.4,2.2-.22,5.86,1,2.34-.3,3.51-2,2-.81,16.39-2.42,2.27.36,3.17,1.55,3.44,1.69,9.09,2.64,5,.15,3.79-1.69v-3l-7.3-6.32-.42-3.75,2.62-.37,3.93,1.47,3.23-.58.69-6.18-.62-2.86-1.1-2.35-2.62-4.56-1-2.28-2.14-7.2-4.06-6.54.07-2.64,3.58-2.43,6.13-.44,1.45-.88.41-1.69-.69-6.76v-4.7l.76-3.82,1.51-3.31,2.55-3.23,1.45-1.11,1.58-.88,3.31-1,1.79.22,1.37,1,1.24,1.25,1.59,1,3.23.29,2.28,2.06,3.92,5.88,1.17,1,2.55,1.61,1.1,1.25,1.79,3,1.1,1.4,1.24,1.1,3.1,1.1,2.69-.8,2.41-2.06,4.2-5.14,2-1.62,2.21-1.1,18.59-5.59,9.5-7.05,10.4-4,7.3-4.26,5.58-6.25,2.82-13.44,3.79-1,4.48,1.83,1.24,1.33,1.92,2,.21.44.35.37,3.16,2.72,18.39,19.91.83,1.1-.21,2.35-2-.66L339.16,155l-2,.22-1,1.62.27,2.13,1.59,2,9.16,2.05,3.85,2.13-.82,4.34-.28,1v.07l-1.51,1-.42.51-.13.59-.35.51-1.65.37-.83.37-1.44,1.1-1.52,1.32L336,181.18l-3.51,4.26-1.31,1-1.51.66-1.45.44-1.45.59-1.37,1.33-2.41,4-1,1.25-1,.44-6.89,1.55-3,1.83-1.58,2.5.21,2.65.13.58.21.37,1.31,1.84h-.07l.21.15.89,1,.28.52-1.38,4.41,5,2.2,2.06.59,2.21-.22,1.93-.52,1.92-.22,2.21.89,2.68,4.26,1.31,5.8,1.79,5.44,4.06,2.79,4.27.3,4.34-.37,14.33-4.26,8.88-.81Zm-46.27,45.11,12.19,4,3.51.15,3.24-1.4,1.24.3.68,2.35-.13,2.2-1,1-3.3.59-2.89,1.47-5.17,4-.55-.44L329,283.17,328,282l-3.44-2.35-1.31-1.83-.75-2.06.06-2Z" style="fill:#efc441"/></svg>