<svg xmlns="http://www.w3.org/2000/svg" viewBox="0 0 800 800"><path d="M466.3,474.36l-.36-1,.13-2.61-.1-1.2-.61-1.44-3.21-4.49-2-1.75-.29-.51V458l-.48-2.27-.8-1.44-5.53-5.69-.1-.45,1.09.11-.54-.83L451.8,446l0-.54v-.35l-.74.45-.74.17-.58.34-.19.93.67,4.73.58,1.2.1.34-.2.59h-.38l-.49-.24-.45-.14-.19-.24.07-1.1,0-.41-.86-1.17-1.32-1-1.42-.79-5-1.88-.77-.48-.64-.11-.55.89h-.29l-1.06-.51-.26-.21-.19-.41,0-.41.1-.31.06-.24-.32-1-.87-1.54-.09-.89L437,442l1.19-.41,1-.83.73-.82.36-1.2-.36-1-.7-.44-.58.54.35.18.29.24.19.3.13.35-.67.85-1,.59-.86-.11-.39-1.16.13-2.26.29-1.07.55-1.06h-.29l-.33.41-.67,1.37h-.32l-.19-.61-.1-.66,0-.61.26-.55-.55.44-.74.28-.67-.07-.29-.65-.77.24-.23.1.45.31.2.41-.07.48-.22.55h.29l1-.75.32.58.23.48,0,.51-.26.55,1,.79.48,1.54-.42,1-1.7-.89-2.89-3.15-1.39-.83-.61-.44.1-.48-.77-1.07-1.06-1.2-.71-1.2.29-1.06.16.41.19.14.26,0,.35.11-.64-.45.32-.41.65-.52.32-.75h-.36l-.25.51-.32.21-.36-.07-.32-.27.45-.45.26-.14.25-.1-2.37.07-.23-.41,1-1-2,.1-.62.21v.38l.62.48.45.68.54.55h1l-.23.65-.09.69,0,1.44L424.46,430l-.62-.76-.8-.31-.87-.07-.61.21v-2.19l-.09-.55-.2-.52-.22-.24-.1.24-.06.31-.42.31-.13.27.61,2.2v.55l-1.57-1.27-.68-.76-.32-.72,1,.31-.2-.82-.32-.21-.38.07-.39-.07-.39-.37-.19-.38-.16-.45-.22-.54-.78-1.14-.86-.92-1-.76-1.22-.68-.77-.24-2.9-.1-.86.3-.49.69-.35.79-.38.65-.84.45-.93.06-1.93-.13-.35.13-.1.35,0,.34-.06.21-.23.06-.51-.06-.77,0-1.42-.38-2.05.35-1,.37-.45.48-.23,1-.48.07-1.19-.82-3.28-1.54-3.5-.93-7.55-1-1,.21-1.6,1-2.06.38-.48.48,0,0-.16.86V426L373,424.91v-.34l.67-.55-.29-.82-.8-.52-.84.52-.51-.31-.42,0-.42.17-.61.11L370,423l.19-.21.16-.31.07-.38h-1l.16-.3L370,421l.16-.31h-.38l-.9-.34.83-2.27.61-1,.84.45h.29l.32-.55.42-.48.38-.55.2-.89-.07-.79-.25-.72-.33-.65-1.76-2.68-.2-.68.16-.48.36-.31.38-.27.39-.42.13-.37.09-.93.13-.41.42.24.48-.27.45-.52.26-.51,0-1.2-.48-.83-.55-.72-.26-.89-.19-.31-.45-.17-.42-.2-.22-.55,1-1.37.77-1.51,1-1.48.39-.85,0-1-.51-1.82-.23-.48-.64-1.09-.13-.35.1-.55.22-.3.23-.28.39-1.13L374,388l.87-.24.74-.51.19-.72.1-1.17-.1-1.1-.68-1,.36-1.13.83-1.55v-.34l-.57.41-.45.48-.52.38-.58.14h-2.92l-1.16-.14-2.34-.75-2-.28-1-.44-3.27-.45L360,379l-1.86-1.37-.84-.38-.12-.38.09-.48.26-.58.1-.69-.07-.82-.51,1-.16.82,0,2.16-.39.72-.93.45-5.91,1.09-2.28-.1-1.16.1-.93.38-2.22-1.16-.68-.62-.48,1-.54.59-.77.44-4,1.68-1.77.41-1.13.52-.93.44-.77.24-.64.52-.36,1.06-.48.79-.93-.27.68.3-.1.9-.35.78-.58.55-.77.24-.71.38-.1.89,0,0,.29,1.64,1.48,2.09,2.7,2.44.16.24.32.27.36.38.13.51.06.48.45,1.89.77,2-.1.89-.41.82-1.55,2.23-.35.72-.45,1.65-.64,3.67-.26.72-1.7,2.88-.64,2-.42,2.09-.23,2.13,0,1.61v.55l.81,3.29.13,1.06-.2,3.23.2,1.13,1.41,3.63.06.72-.41.76-1,3.77.06.48.42.55.45.48.35.44.23.55.16,1,.13.41v.48l-.19.65-.26.24-.74.66-.32.48-.29,1.81-.19.45-1,1.82L322.71,458l-1.12,2.2-.35,2.36.64,1.78-.16.28-.68.07-.32.2-.13.41v.55l.36,1.92-.1.31-.16.38,0,.48.29.58-1.74.21-1.35,1.37-3.79,6.72-.26.55-.19.82-.9,1.41-.23.89-.06,1.2-.19,1.06-.29,1-1.22,2.85-.1.48-.22.55-.9,1-.2.52-.16,2.91.16,1.07.77,2.09v1l-.77.82-.35-1h-.74l-.84.58-.61.72-.35.55-.32.68-.23.79-.09.93.16,1.1.67,1.81.16.93-.12,1-.45,1.14-.2.58-.22.92.09,1.17.71,2.13.19,1.06-.19.75h-.38l-.36-.37-.06-.21-.9,0-.64.06-.45.11-.42.24-.16.48v2.09l-.2.93-2.82,4.52-.2.48.13.52.13.34-.1.24-.64,0-.8.24-.77.62-.68.82-.48.83-.29,1-.39,2.43-.48.82-.51.24-.58.07-.48.28-.19.65.09.37.32.24.42.11.48,0-.35.69-.42.55-.38.58-.16.79.28.65,1.48,1,.52.58.06.65,0,.93-.23.86-.32.34H295l-.36.07-1,.62-.16-.66-.36-.44-.48-.34-.61-.31-.71.34-.61.07-.51.1-.45.55v.55l.32,2.23.51.75,1.74,1.68.87,1.13.54.14.87-.27-.61,1-1.9.21-.41.72-.26,1.2-1.25,2.23-.42,1.27.09,1.4.45.9.52.75.22.89-.13.62-.67.51-.16.62.32,2.23v4l.1.14.13.14.12.24,0,.34-.16.31-.58.48-.22.27-.16.52-.07.48-.06.92,0,.17.16,1,.67,2.06.23,1.95.25,1.17.42,1.13,1.45,2.3.25.79.1,1.16.16.83,2,3.87,2.74,3.77-.39.07h-.22l-.23,0-.32,0-.39.07,0,.17,0,.24-.09.24-1.19.65-.42.38-.9,1-.26.82.2,2.09,1,2.34,2.19.48,2.28.17,1.28,1.34,1.55-.18,1.54,0,1.48-.28,1.25-1,.35-.79.23-.89.35-.82.68-.62.58-.07,2.12.42.77-.14.64-.34.48-.35.36-.17,1.44-.38.81-.58v-.1l1.76.1.33.07.25-.41.65,0,.86.38.48.21.23-.21.51-.31.29-.2.55.58,1.8.82,0,.48-.06.58.32.83.83,1.57.39-.34,0,3.81.23,1,.38.65.42.55.39.62.12.79v2.43l.1.52.48.82.07.55-.1.07-.19.24-.23.37-.13.38v1.2l.55,3.88-.22.79.61,1.57.93,9.84.38,1.62.81,1.3,2.63,1.71.42.76.19.85,1.06,2.2.74,1.2.32,1,.26.45.35.24,1.06.48.2.14.29.61.61.14.74-.17.61-.41-.42-1.44-.1-2-.48-1.79-1.61-.65.94-.45,1.41,1.1,1.29,1.61.57,1.07,2.38,6.61,1.48,10,1.86,9.05,1.19,5.73,3.41,17.55,2.83,7.2,2.54,4.26.57,1,.36,1,0,.72-1.19-.1-.61-.66L353,696.93l-.94-.58-.35-.27-1.32.06-.87-.48.62-1.33-.45-1.65-.33-2.19-.67-.45.1-4-.2-3.46-.77-2-1.44-.62-1.58.21-1.06,1.68-.32.89-.29.24-.51-.27-.29-.35-.13-.34,0-.41v-.58l.28-1,1.61-1,.64-1,.2-2-.32-2.64-.65-2.54-.83-1.51-.9-.38-.9.18-.93.37-.94.21-.48.41-2.09,2-.54.72-.07,1,.55,4.25.83,2.4.33,1.85.28.86.52.37.13.18,1,.89.23.31.13.27,1.51,4,.87,1.61,1.12,1,1,.17H346l1,.34.39,1.07v.1l0,1.1.1.61.16.45.41.41h.68l.45.24.42.41-.74.41-.42.21-.32.24-.13.31.16.55.32.41.39.24.64,1.37.58.55.64.24.74-.07.55.55.38.31.42.17,1.16,0,.54-.07,1.16-.37,1.16-1.17.38-.58-.16-1.41v-.86l1.22,1.62L365.45,710l.9.83,1.26.48.74.27,1.09-.51.77.75,1.38,1.37,2.44,2,2.32,1.2h1.38l1.93-.07,5.78-.2,1.9-.93L388,714l1.54.31.68.58.86.21.33.24.09-.1,1.51.1-.35-1-.74-1.1-3.09-1.33,1.39-.52,1.35.28,1.22,1,1.8,1.2,1.6.51.84.24.71.07.9.24.8.27.32.31,1.32.58,1.61,1,.41.48,4.79,8.7,2.6,4.26,2.25,3.7,1.74,1.82,4.69,3.15,5.24,5.35,2.47,1.89v0l-.29,2.64.23,4-.55,1.57L425,756l-3.47,2.85-1.16,1.5-.71,2.1v2.16l-.32,1.92-1.51,1.4-.51.38-.26.41-.16.45-.29.44-1.35.89-.25.31-.39,1.07-.55.65-.77.07-1-.59-.42-.51-.29-.62-.35-.51-.65-.21-.54.21-.81.79-.06,0-.45.24-1-.21-.73-.85-.94-2.3,0-.45.12-.51v-.41l-.45-.21-.54-.07-.36-.24-.25-.41-.23-.58-.74-1-1-.27-1.1.27-1.63.69-5.05,2.09-1.64,1.13-1.8.93-1.86.34-1.45.82-.58,2.26-.13,1.14-.41,1-.58.89-.74.76-2.19,1.4-1.31.45-.77-.41-.55-1.24-.71-1.27-.9-1.09-1.06-.76-.45-.1-.9,0-.45-.17-.32-.41-.55-1.17-.38-.61-.23-.41-.09-.55.13-.59.29-.58,1.92-4.18L378,764l1-.2.87-.35.35-.92.07-1,.32-1.65.09-2.84.23-2-.32-1-.87-.72-.77-.76.06-1.16.61-.83.65-.3.41-.45.1-1.2-.13-1-.32-.65-.61-.21-2.15.48-.77-.27-1.51-1.3-.9.17-1.23,1.44-.9.24-1.92-.55-.65-.07-.57.21-.26.34h-.19l-.42-.72-.1-.45,0-1.44.1-.44v0l.16-.44.09-.45-.09-.44-.55-1-.23-.55-.09-.58-.13-2.4-.45-1-1.09-.69-.52-.06h-.48l-.45-.07-.38-.31-.13-.41v-1.13l-.07-.31H363L360,737l-.84.1-.83-.2-1.61-.76-2.86-.89-.87-.45-1.51-1.13-.67-.2-1.22.17-.81-.07-1-.34-.45-.24-1.39-.69-.9-.89-.54-.93-1.74-5.65-.32-.38-.48-.17-.55-.07-.45,0-.7.48v.11h-.71l-.39-.24-.22-.28-.13-.17-.42-.27-.67.24-.29.41-.16.58,0,1.13-.32,2,0,.86.38,1.17.1.72-.29.44-.39.38-.32.52-.06.44.16.89,0,.45-.19,1.23-.42,1.1-.39.79-.35-1.06-.55-.83-.86-.27.57-1.61.07-.83-.48-.34-.58.17-.39.41-.45,1.1-1.54-1.4-1.35-1.65-.16-.45-.13-.58-.19-.48-.32-.24-.61.34-.36.11-.13-.24.1-.38.42-.62.1-.24-.13-.51-.39-.83-.1-.54-.22-.18H327l-.45-.06-.19-.45-.23-.93-.51-.65-1.22-1-1.13-1.89-.74-.68-.83.31-.42,0L321,720l-.36-1.26-.35-.48-.23-.21-4.08-1.61-1.15-1.2v-2l.22-.93.23-.1.7,0,.16-.21-.06-.48-.26-.45-.51-.24-.71-.41,0-1,.2-1-.33-.68.78-1.65.48-.79.51-.34.16-.34,1.32-1.89-.35-.55-.81.28-.86.51-.58.28-.71-.38-.26-.58v-1.79l-1.64,1-.77.68-.32,0-.16-.72h-.32l-.93-.28-1.22-2-.84-2.37.26-1.13,1-.58.87-1.44.61-1.82.26-1.68h-.29l-1.35,2.71-.9,1-1.19-.48-.19-.79.26-2.16-.2-.69-.64-.07-.48.72-.32,1-.13.78.19,1.79-.19.72-.8.27-.52-.13-.71-.35-.61-.41-.29-.34-.22-.14L301,693.4l-.68-.45-.57-.75-1.35-2.4.41-.82.1-1.17-.16-2.3-.13-.34-.45-.82-.09-.58-.23-.07h-1l-.35-.11.61-1.06L297,681.4l-.35-1.24-.32-2.29-.32-.07-.42.24-.42,0-.41-.2-.45-.35-.17-.34.55-.14.19-.3-.29-.72-.57-.72-.61-.31-.78-.11-.38-.3-.64-1-.94-.76-.9-.55-.73-.68-.33-1.13h-.29l-.12,1.71-.45,1.37-1,.69-1.67-.35-1.09-1.2-.26-3.32-.61-1.34,2-1.61.29-.62.1-.92.29-1.51,0-.86-.93,1-.45.21-.58-.11-.22-.31-.74-1.26-.35-.38-.74-.24-.77-.45-.36-1,.07-.51.06-.31,0-.27-.16-.41-.32-.45-.77-.45-.35-.34-.29-.51-.07-.38-.19-.14-.58.14-.32.31-.32.89-.16.21-.74.2-.71.41-.67.28-.65-.17-.22-.42-.32-1.09-.26-.45-.58-.38-.25.21-.13.41-.16.27-.61.59h-.26l-.1-.76-.13-.44-.61-.65-.22-.42-.1-1,.1-2.46-.16-.69.16-1.61v-.86l-.16-.79-.81-2-.67,1.41h-.29l-.16-3.64-.32-.51-.9.27-1.35.93-.52-.17h-.29v.34h-.32l-.09-.58.19-2.68.26-.44.77-.58.35-.69-.64-.31-1-.2-.8-.38-.23,1.13-.64.31-.83.07-.71.37-.48.55-.74.65-.74.28-.48-.62h-.32l-.07.58-.26.35-.32,0-.32-.51h-.32v.65l-1-.14-.81.41-.29.55,1.45.62.16.82v1l.29.75v1.37l-.77,2.06-1,1.34-.64-.79h-.26l-.06.45-.13.3-.48.66-.77-.72-.84-1.72-1.22-.51-.16-.38-.19-.38-.52-.13-.51-.07-.39-.11-.32-.2-.26-.31-.16-.72v-2.16l-.29-.76-.45-.72-.93-4.73-2-6.44-.07-1.1.26-.93.29-.37.16.44.13,1,.35.65,1.13,1.3.29-1-.42-.62-.68-.48-.48-.65v-.31l.13-.24.13-.24.06-.2V628l.55-1.55.1-.51-.07-1.1-.74-2-.16-.72.23-.44.32-.28.38-.27.36-.38.16-.31.09-.34.2-3.12.22-1.13,1-1.72.45-2,.9-1.37.61-1.2.39-.24.16.11.7.2h.58l-.16-.48-.13-.65.45-.69,1.13-1.3-1.42.62-.9.24-.45-.38-.13-1.3.58-.55,1.13-.07.74-.41-.52-1.58-1.38-2-.61-1.13-.26-1.24,0-1,.23.28.57.2.39-.13.39-.38.7-.83-.86-.48,0-.78.45-.86.13-.69.55-.82.35-.93.64-3.15.39-.89,1-1.82.84-4.46.64-1.4,1.38,1,1.58-1.31.51-.61-.13-.48-.35-.11-.9.14-.38,0-.2-.24-.16-.66-.13-.13-.93-.41.39-.86.86-.69h.49l.09-.17.45-.62.1-.2-.13-.38-.83-1.2.77,0,.16-.45-.32-.51-.61-.42.32-.3.7.48.74.3.61-.13.23-.86.19,0,.39-.45.22-.48-.32-.24h-1l-.42-.1-.42-.28-.19.35-.07.17-.06.2h-.29l.06-.41,0-1.13,0-.17.39-.41.38-.11.39,0,.41-.14.68-.51.48-.58.42-.76.39-.92-.39.37-.77,1-.45.31-.42-.1-.26-.35-.19-.37-.83-.59.38-.89.74-.92.58-.55.22.34.29.21.36,0,.41-.2-.29-.35.71-.54.23-.52-.16-.2-.36-.11-.35-.2.1-.28.48-.48.38-.62.36-.27h1.06l.41-.24.1-.51-.45-.21-.51.07-.1.27-.51-.68v-.35l.19-.65,2.09-3.84.67-.79,1.29-3.91,1.09-2.19.35-1.13.23-1.2.06-1,.2-1,.7-1.89.07-1.1.9-3,.48-2.61.64-1.92,0-1-.64-3.16-.32-.55-.9-.85-.16-.62.42-2.2.45-1.13,2.09-2.95.9-.85.45-.14,1-.07.32-.1.36-.45.16-.48.22-.58.39-.45.64-.31.42.11.42.2.51,0,1.67-.79.23,0,.35-.44.19-.38.16-1v-.75l-.38-1-.1-.62,0-.51.13-.55.16-.55.29-.41.42-.52.19,0,.23.1.61.11.54.17.49.27.45,0,.41-.62.42-1.54.19-.45.78-.82,1.86-1.07.39-.3.51-.42.29-.48.45-1.06.35-.48.45-.27,1-.35.32-.41,1.41-4.56.61-1.13L296.1,494l.58-1.13.71-2.06.51-.79,1.77-2,.29-.86.07-.89.28-1.23.42-.83,1.38-1.47.55-.82.45-1,.16-.83-.06-2.05.06-1.2.42-.83.77-.51,1.09-.24,1.93-.14.58-.48,3-4.32.39-1.2.67-3.36-.1-.51-.77-.24-.93-.62-.83-.76-.58-.78-.36-1.14.16-1,.74-2.06.07-1-.36-.86-.64-.61-.87-.31-.77-.76.16-1.4.74-2.4.1-.59.19-.51.1-.48-.19-.45-.42-.17h-.48l-2.64.93-.64-.17-.16-.9.22-.51.48-.38.36-.48.09-.68-.16-.52-.51-1-.19-.55,0-.51.13-.93-.13-.55-.32-.58-.74-.93-.25-.62-.13-1-.16-2.84-.29-1.1-1.06-2-.23-1.06.13-.52.52-1.1.16-.54.16-1.1v-1.1l-.13-.79-.07-.44-.45-.72L298.74,425l-.51-.44-.45-.48-.33-.55-.35-.38-1.09-.34-.45-.27-.16-.42-.1-1-.19-.45-.52-.34-1.06-.21-.41-.2-.49-.9-.06-.89.06-1-.16-1-.35-.58-.93-1-.39-.55-.16-.52-.16-1.57-.61-1.55-.1-.44,0-.69.19-.48.22-.41.2-.58-.1-1-.64-1-.87-.83-.84-.51-1-.89-.23-1,.26-1.13.42-1.23.12-1.27-.16-1.13v-1l.58-.85.9-.38,1.83-.21.65-.61.06,0,.13-.89-.19-1-.61-1.92,0-.68.2-.48.29-.42.19-.54v-.48l-.16-1,.26-2.54-.07-1-1.67-7.92-.13-4.28.16-1.17v-1.3l-.29-.48-.25-.41-1.51-1.58-.36-.82-.54-2.44v-.86l.09-.61,0-.41-.12-.31-.23-.45-.22-.17-.65-.17-.25-.14-.2-.31-.22-.75-.19-.31-1.48-1.17-.45-.61-.45-1.14-.58-1-1.51-1.92-.26-.92L280,351l-.48-.82-.8-.55-1.13-.38-1-.44L271,344.3,270,343.1l-1.13-2.37-.45-.07-.54.21-.74,0-.33-.24-.57-.85-.32-.31-.33-.17-.74-.18-.32-.17-.61-.41-.38-.41-2.16-2.88-3.24-7.1-.61-.34-.58-.24-.35-.72-.26-1.24-.42-1.09-.61-1-5.66-5.83-2.53-4.28-.39-1,.16-.75v-.24l-.13-.34-.51-.45-.13-.27-.1-1.07.07-1.85-.32-1.1-.94-1.78-.19-.55v-.24l0-.41.2-.48.25-.45.16-.51-.25-1.13-1.45-1.61-.38-1.2.22-1,1-1.78.26-1-.29-.72-.32-.79,0-.62,1.44.07.36,0,.8-.42.71-.72,1.67-2.53.55-.11,1.06.18.86.34,1.61,1,.71.31.32-.11.13-.34V289l-.13-.27-.29-.24-.29-.17-.1-.14.07-.28.1-.24.12-.2,0,0,.41-.27.26-.27.06-.45-.19-.89,0-.41.29-.21,1.71-.41.74-.31.9-.48,1,.45,1,.58.71.79.16,1.13,1.22-1.51.42-2.4-.06-2.61-1.13-7.61.1-2.95-.07-.85-.19-1.89.13-1.2,1.48-5.14.13-1-.36-2.13,0-1.23.55-2,.16-.92-.32-1-1.26-1.92-.16-.68.42-.42.55.07.57.28.49.13h.61l.41,0,.36-.21.51-.48.65-1,.28-1,.39-.86,1-.51.83,0,2.86.37.55.28.29.37.32.21.74-.1.38-.31,1.13-1.27.22-.48,0-1.17.07-1.09.32-1,.58-.93,1.31-1.64.23-.83.22-2.29.48-2.27,0-.92-.83-1.27-1.06-.76-.9-.89-.16-1.75-1,.86-.39.82-.38,2.13-.64,1.23-2.83,2.37-1.42,2.23-.74.58-.9-.68-.28-.76-.68-3.7-.61-1.51-.06-.55.45-1.06.09-.55-.38-.93-2.9-4-.28-.55v-.55l.16-.55,0-.44-.1-.48-.22-.52-.68-1-1.64-1.2-.64-1-.32-1.4-.23-.59-1.41-1.16-.1-.9.39-1,.55-.86.7-.2.74-.52.58-.65.16-.55-.35-.41-.48-.2-.42-.28-.2-.62.13-.72.36-.27.54.17.58.45-.38-1.48-.33-.68-.41-.35-.74-.34-.2-.75v-.86l-.28-.69-.52-.68-.77-1.68-.51-.79-.84-.89-.87-.59-.93-.27-2.31-.07-.81-.27-.64-.65-.64-1.17.19-.17.26-.48-.07-.38-1.22,0-.09-.45.22-.58.39-.45-1.1-.79L246,190.3l-.9-.79-.74-.44-4-4-.39-.48-.09-.69.19-1.06v-.65l-.26-.72-.58-.38-.67-.24-.64-.34-.61-.72-.32-.69-.49-1.51-1.06-1.71-.19-.75-.42-.52-.48-.31-1.12-.55-.71-.51L231.32,172l-6.52-6.44-.45-.62-.33-.72-.06-.65V163l-.1-.55-.38-.55-1.16-1-.26-.58-.22-.72-.45-.62-.61-.51-.35-.69,1.06-.17-.61-2.43.28-.79,1.32-2.47,1.29-.89.16-.14.16-.27L224,150l-.19-.62-.16-.27-.2-.28-.67-1.74-.16-.62-.1-.21-.64-.34-.19-.1-.2,0-.19,0-.06-.45.06-.27.19-.48,0-.31-.1-.55-.42-1-.13-.62v-.44l0-.31-.19-.31-2.41-3.53-.52-1.1.13-.48.71-.34.35-.79,0-1-.28-.76-.62-.37-2.41-1-.51.14-.1.1-.86,2.5-.2.38-.45.38-1-.59-1-.79-.93-1-.67-1.17-.26-1.27,0-1.16-.16-1.17-1.19-1.95-1.06-2.37L207,123l-.54-1-1-1-.29-.58,1,.13.35,0,.39.27,1,1.61.13.42.23.37.51.35.48.06,1.16-.24,2.22.07,1.8-.92,3.27-2.27.9-.34,2.51.1,2.22-.68.22.07.16-.07.26-.62.39-2.09-.33-2.09-.54-2.06-.23-1.95,0-1.14-.13-.92-.58-1.92-.06-.45.19-1.34-.19-.65-.51-.55-1.13-.89-1.06-1.13-.19-.62.48-.48,1-.75.67-.75.32-.83.32-2,.49-1,2.92-2.36.67-.83.33-.72.19-4.08-.13-.92-.32-1-.42-.48-1.25-1.06-.29-.48.19-.55.45-.07.52,0,.45-.17.38-1-.42-.89-.67-1-.29-1.23-.07-.52-.35-1,0-.34,1.54-2.26,1.58-1.44.38-.58.32-.76,0-.27-.16-.28-.16-.65-.1-1,0-1,.41-.62,1-.17.77-.1,2.92-1.54.39-.38.67-.86.42-.37.52-.18h.45L236,64l.26-.65V62.4l-.39-1.89,0-1,.61-3.39.32-.72,1-.24.71.72.57.86.61.24,1.19-.21,1,.55,1.86,1.82,1.61.51.35.21.19.51,0,1.06.1.55.87.62,1.19-.27,2.08-1,1.9,0,2.19.21,2.12-.07,1.64-.89.16,0,.51,0,.42.31.35.48.48.41.81.38.19-.07.06-.34.49-.45.93-.38,1.06-.24.35-.24.81-1.09.38-.38.84-.41,4.17-.62.9-.34,2.74-2.23L275,56l.67.48.58.59.9,1.44.74-.18,1.67-1.3,1.83-.75.65-.59.61-1.13.38-1.3-.06-1-.23-1L282.54,50l.1-.52.23-.37.22-.28.13-.24,0-.48-.29-1,0-.51.51-3.57.9-1.78L286,39.91l2.09-.86,1.9-.31.93.1,1.93.59.8.41,1.83,1.57,1,.52,1.19-.21,5.65-1.81,1.55-1.41.61-.69.54-.27.45-.31.1-.07.45-.89.26-1.3-.33-.86-1.54-1.71-.51-3.06-.42-1-1.7-1.88-.45-.89.93-.35.64.24,2.32,1.68,3.59,1.27h.45l.87-.1.48,0,.42.18.71.51.45.1.93-.17,1.74-.75,1-.21,1.9,0,.83-.31.81-.79.41-.82.61-1.89.55-.82.84-.59,1-.37,2.57-.38.23-.14.22.07.49.38.32.48.09.51.17.48.45.38.54.72.52.21h.54l.68.13.64.41.29.42.22.51.39.58,2.06,1.37-.1,1.79.26,1,.64.82.87.44h.83l.71-.75,0-2,.45-.41.13-.11L339,29l.25,0,.07-.11.54-1.88.94-1.24,1.41-1,1.7-.41,1.77.51.93,1.1,2.7,6.21,1.19,1.68.23.37.25.72.16.31.39.28.77.34.16.31.35.41.78.51.77.28.35-.17.26-.69.19-.07.1.52.09,2.67L355,41.72l-1.19,3.71-1.19,3.32-.22,1.82-.19.82-.45.83-.42.27-.9.41-.39.24-.32.48-.51,1.44-.61.86-1.13,1.58-.19.92.22.72.29.41.49.66.32.61.16.83.09,1.68.29.89.39.65,1,1.27.36.68.16.86v.86l.16.75.58.62.8.55,1.35.62,1.35.41.83,0,.36-.68.54-.9,1-.78,1.22-.07,3.83,1.54.67.41.42.52.35.51.36.14.45-.69,2.15-2.12,1.89-2.4.58-1.07.2-.2.45-.31.22,0,.29.07,4.15-.07,1.31.14,1,.41,2.06,1.34,1.32.51,1.35.11,1.31-.17,1.13-.31.54-.31.42-.34.52-.14.77.24.64.38.35.41.23.51.19.69.1,1.27-.26,1.47-.61,1.13-1.09.31-1.06.72-.71,1.85-.23,2.13.26,1.54.32.24.81.17.25.21.16.41v.31l-.09.27,0,.31,1,4.36-.16,3,.1,1.2.32.82.55.62,2.05,1.92,1.26,1.51.42,1.54-2,2-.35.76L389,100.6l-.45.79-1.16,1.37-.38.92-.07,1,.26,3.12-.22.89-.71,1.68-.16.82.25,1,1.13,1.17.22.82-.22.79-.61.82-1.32,1.31-.42.24-.8.31L384,118l-.13.51,0,1.17-.16.55-.64.65-3,1.75-.19.24-.1.55-.35,1-1.35,1.48-.26,1,.32.9.64.92,1.1,1.1.38.38,3,1.44.48.72-.16.31-.77,1-.26.34-.09.55v1.81l.16.35.38,1.06.26.27.35.21.29.27.19.45-.12.82-.71,2-.16.92.16,1,.77,1.92.16.72-.35.68-1.51,1-.61.51-.84,1.37-.61,1.38-.74,1.23-1.22,1.13-1.48.89-.35.55-.16,1,.13,1.75-.26.69-1,.41-.33.31-.09.3.13.35.29.37.06.11v.2l-.06.11-.45.27-.29.31-.1.44.1.52.09,1.06-.22.93-.1.37-1,2.37-1.58,1.92-.64,1.1V171l.74.62,1.7.34,2.06.41.9.48.87.58.77.72.64.9.77.17,1.42.89,1.35.58.19.14.16,0,.45-.27.26-.27.8-1.2.1-.79.48-.28.64-.13.55-.24.29-.42,1-1.92.87-1.2,5.17-4.49.58-.24.35,0,.29-.11.84-1.13.09-.14,0-.3-.26-.11-.48,0-.29-.14.29-.44.64-.24.71.06.7-.06.61-.62.23-.17.16-.11.13,0,.06.24.07.34.45,1,.09-.1.16-.41.23-.38.19-.41.93-1,1.61-.72.9-.68-1-.89.55-.21.87-.34.29-.45.22-.58.1-.65v-.79l1.09.69.51-.55.39-1,.77-.55,4.37-.89.16-1,1.13-3.39.41-2.2.39-1,.77-.75h.32l.42.58,1.83.52L418,147.4l1-.3,7.1-8,.74-.86.32-.27,1.35.07,2.19.14.86.51.29.72.2.89.41.86,1.45,1.06.16.17.35.24,1.1,1.55,2.37,2.19,1.39.76,1.41-.11.87,1.2,1.28,1.13,1.55.83,1.73.34,4,0,1.51.79.58,2.09-.77,3.37,0,.48.68.2,2.41,1.24,1,.13v-.37l-.45-.76-.26-.92L455,156l.64-.41,1.67-.45.71-.45,1.7-1.68,2.73-1.54.29-.58.68-.41,4.05-1.92.77-.14.83.2,1.45,1,.77.24.83-.34.55-.76.42-.72.45-.34.22-.52-.38-3,.06-1,.26-.69.39-.48.38-.17.19-.14h0l-.1.21,0,0,0,.07,1-.34.8-.52.55-.79.29-1.09.29-1.72.29-.82.51-.65.42-.28.38-.13,1.39-.24,1-.41,1.74-.31.61-.21.42-.38.06-.48-.29-.44-2-1.41-.42-.17-.09-.31-.13-.17-.06-.2v-.35l.48-1.27.77-1,1-.78,1.15-.55,3.73-.83.48,0,2.57.82.87.17h.23l.67-.13.42,0,1.19.31,1.19.14,2.73.75.67.51.42.38.39.28,2.7,1.3.61.17,2.73.17.84.14.77.27.74.42.7.51.48.58.33.69.41.51.74.14.36,0,.22-.14.16-.24.19-.31.78-.93.9-.65,1-.27,1.13.14,1.16.61.9,1,2.31,4.35,2,5.21.55,1,.64.82,2.93,2.78.22.38.35.51,2.09,4.83.42,1.58.29.55.38.48.17.17.25.24,3.09,1.92.7,1,1.07,2.23.67.89.19.31.13.34.29,1,.19.37,1.42,1.75,1.35,1.34,7.29,4,.87.35,2.25,1.47.55.62.93,1.47.74,1.48.32.44.35.28.8.48.36.3.16.28,1.12,2.64.13.58,0,.65-.16,2.51.1,3.08-.19,2.4-.2,1.14-3.05,7.57-.22,1.17.29,3,.16,1.68.13.58.48,1.06.16.59,0,.61-.1.59-.32,1.16V210l-.09.45,0,.58,1,4.25,0,.59-.07.55-.64,1.92-.51,2.16-.2,2.19,0,1.17.26,1.06.48.89.84.76,2.63,1.5.78.69.64.82.48.86.39.89.45,1.61.19.55.32.45.42.41,1.28.75.36.35.93,1,.35.28.42.24.9.55.39.34.51,1,.16,1.09-.06,2.3.19,1.34.45,1.23.74,1,1,.82,1.32.48,6.11,2.33.48.07,1.93.11,5.46,1.47.45.17.35.28.07.24,0,.17-.29.38-.51.3-1,.42-1.12,1.33-.1,1.82.58,1.92,1.83,4.22.52.82.61.62.58.34.67.1,1.93-.17,1,.14,2,.72,2.09,1.44,1.32,2,.45,2.44-.48,2.64-1.13,3.19-.22,1.09-.07,2.16-.29.93-.58.62-.16.17-1.67,1.13-2.18.75-.94.66-.41,1.13.25.92.74.52,1,.17.9,0,.9-.18.19.21.13,1.1,0,1.4-.16.07-1.35.93-1.32,1.13-1.9,2.12-.42.72-.32,1-.16,1.1,0,1.13.39.86,1,.21,1.16,1.26.26.07.61-.13.19.06.1.24v.59l.06.2,1.38,2.09.58.48h0l1.26.28-.45.65-1.87,1.27-.45,1,.78,1.64-.36,1.14-.26.1-.73,0-.2,0-.09.31,0,.79.35.72v.27l-.19.17-.64.17-.23.18-.35.92-.23,1.17.07,1.13.51.92.16.48-.35,2.37-.1,1.54.68,3.4-.1,1.51-.58,1.4L586,329.17l-1.09,1.07-.32.37-.22.48-.42,1.2-.2.35-.48.27-1.25.24-.55.17-.35.35-.9.92-.26.21-.61,0-.83-.58-.45-.07-.32.31-.58,1.1-.32.38-.87.37-2.44.62-.68,0-1.35.78-1.09,2.54L569,342.75l-2.54.83-1-.52-.81-1-1.51-2.95-.06-.41.22-2.33,0-.69-.23-.62-.86-.27-1.87-.38-.83-.14-.36-.2-.73-.55-.39-.14-.42,0-.9.13h-.32l-.77-.44-.61-.52-.64-.41-.78-.07-.64.35-1.41,1.16-.71.17-.32-.27-.26-.93-.35-.2-.39.2-.48.79-.29.28-.8,0-1.16-.55-.77,0-.74.44-.51.72-.45.79-.52.62-1,.41-.74-.17-.74-.34-.87-.17-.51.13-.35.28-.33.31-.25.13h-.42l-.32-.07-.32-.13-5.34-.86-2.54-1.1-1.12-.1-.71.41-.61.55-.87.24-.54-.24-.29-.45,0-.44.16-.21h-.42l-.1.14-.09.27-1.16,1.34-.35.21-.58,0-.32-.24-.26-.31-.29-.17-1.7.52-1.32.68h0l-.42.24-1.64.38-1.29-1.13-2.53.14-.42.41-.13.41-.26.31-.8.1-.71-.14-.51-.34-.48-.38-.52-.31-.67-.24h-.39l-.38.11-.62.07-.89-.14L504,335l-1.61-.14-.35-.14-.13-.44.1-1.24-.13-.51-.26-.34-.38-.24-.48-.14-.49,0-.45.28-.12.37-.1.42-.26.37-1,.55-.68-.17-.64-.45-.84-.3-.77.17-1.83,1-1.77,1.3-.35.14-.48,0-.36-.24-.25-.27-.16-.1-.68.2-1.32,1-.8.37-1,.14H483.2l-1.41.48-2.09.69-2.86.44-.94.31-1.54.89-3.21,2.92-.55.51-.8.52-1.74.51-.8.41-.71.79-.22.82v.21l0,.69-.1,1-.35.82-1,1.51-.32.79-.16,1.17v.75l-.16.65-.68.86-2.69,2.26-1.16,1.2-.87,1.65-.8,2.78-.39.89-.83,1.09-.23.45-.13.51-.06,1.07-.19.48-1.1,1-4.72,2.47-1.51,1.24-.07,1.06,1,1.06,1.67,1.13-.87.28-2.18,1.33-.93.35-2.86.27-3.8-.34-1.83.2-.9,1.2.07.55.51.86.19.48,0,.41,0,.58V381l.2,3.88-.32,3.08.06,3.6.06.11,2.48,6.92.93,1.72,2.12,2.67.74,1.61.48.65.81.52v0l0,.28-.12.27-.26.21-.36.2-.25.18-.07.2.1.21.39.41.06.17-.06.21-.52.61-.06.52.13.58.28.55.26,1.16.19,2,.29,1.06.29.52.23.34.16.34.13.62-.07.48-.48,1.61-.58.55-.22.82-.07,1.07.13,1.09.32.79.45.38.29.2,2.67,1,1.38,1.1,3.6,3.84,1.16.72.32.35.19.41.07.85.12.42.65.72,1.51.85.54.65.07.55.06.48-.38.72-1.22,1.1-.49,1-.25,1-1.06,8.3.35,2,2.41,3.94.64.86.29.34.77,1.78.45,2.51,2.16,4.42,2,3,1.35,2.13.51,2,.16,2.88ZM229.62,589.13l-1.51-1.24-.23-.41.13-.34.29-.31.32-.17h.32l.52.41.28.75.07.76Zm85.77-8.23.22,1.06-1,.44-.64-.34Zm-.68-3.91-.19.37-.1.11-.06-.21-.07-.51.13,0,.1.07.06.1ZM294.21,730.5l.58.48-.13.24-.48.17-1.42,1-1,.21-1-.31-.74-.79.87.24.45-.48.45-.58.83-.21h-.35l1.57-.1Zm19.92,3v.45l-.09.31-.2.24-.35.2-.55-.86-.61-2.12-1.57-1.58.13-.68.51-.62.45-.69.1-.51-.1-.89v-.35l.26-.31.35-.17.26-.2.13-.48.06-.93.19-.92.33-.31,1.09,2.53V728l.74,1.86.38,1.47-.06.69-.16.54-.32.28-.42.07-.39.1ZM301.6,695.7l.64.51,1.26.28.38.61-.61-.06-.58.06-.51.18-.42.3-.67,1.2-.52.59-.26-.41v-2.54l.36-1.17Zm-17.39-19,1.45,1.47.48.31v1.82l.48,1.85.71,1.65.77,1.23-.83.58-1.06-.65-1-1.2-1.19-2.91-.16-.48,0-1.75-.07-.83-.32-.72.13-.1.06,0,0-.07.13-.17Zm4.21-.65.13.65v1l-.16.92-.29.55-.41.1-.42-.13-.32-.24-.13-.21-.13-.31-.26-.2-.32-.17-.26-.18-1.19-2,1.07-.59,1.76.28ZM261,653.45v0l2.19,1.34.7.78.39,1.44.06,5.49L264,663.6l-.74-.07-.51-.72-.29-1-.16-1.23-.23-.72,0-.42.23-.37.29,0,.29-.1.13-.51,0-.45-.13-.48-.25-.34-.39-.18-.51-.1-.2-.27-.06-.38-.61-1.06-.26-.89-.13-.93v-.82l.23.2.16.21Zm-5.72,10.15.13-.24.29-.24.19-.2.36.79,0,.75-.39.58-1.51.55-.19.69.13,1.78-1.7-.86-.84,0-.39,1.1-.16,1.27-.45.75-.64.17-.83-.48-.23-.72-.26-3.26-.16-.37-.22-.35-.2-.44-.06-.55.19-.17.39-.17.26-.35-.2-.68-.25-.17-.84-.28-.19-.1.22-.52.42-.41.32-.34-.13-.45-.25-.58.19-.51.35-.48.16-.48,0-.55-.22-1-.07-1.78,0-.34.13-.38.36-.79.12-.51.1-1.07-.06-1.09-.36-2h.23l.13.1.32.24.35-.17.39.14.45.31.41.44.29.72.36,2.37h.29l.48-.48.64.37.74.79.77.65L255,654l.45-.24.45.14.36.68,0,.86-.32.79-.61,1.13-.06.41.13.93-.07.41-.22.21-.29.17-.26.2-.19.45,0,.89.19,1,.35.89Zm10.25-13.47-.74,3.46,0,.62-1.54-.59-.39-.24-.45-.61.23-.31,1-.28-.23-.82.45-.75.68-.76.38-.75.36.1.19.21.06.31Zm-16-49.17.58.61.45.83.25,1v1.09l-1,1.07.35.3-.71.38-.93.28-.93,0-.67-.62v-.68l.38-4.08v-.34l.13-.21.45-.21.58-.06.42.13Zm83.29-22.29.29.07.45.54.23.69-.48.55L332.9,582l-.16,1.61-.35,1.3-1.35.69-.13.34,0,.38-.13.34-.32.17-.36,0-.38-.07-2.22.24-.45.17-.29-1-.19-1.89-.48-1,.7-.92-.06-.93-.42-.92-.22-.89.48-.59,1.09-.13,1.19.06,2.76.76.87-.17Zm-77.86-9.19.29,1.06,0,.72-.87,1.37-.64-1.1.22-.75.61-.65.42-1Zm76.26-1.37,1.48,1,.57,1.68.49,3.91-.52-.45-1.16-.68-2.57-1.13L329,572l.25-.62-.16-.55-.9-1.1v-.34l.61-1.06.2-.48.48.2.45.07.87-.07ZM449.91,471.2l1.19-.1.77,1.3.09,1.85-.77,1.51v.35h.65l-.39.65-.13.51.19,1.27h-.32l-.32-.27-.35-.83-.26-.31-.45-.2-1.51-.48.35-.55.23-.24.09-.27,0-.66-.13-.48-.48-1.13,0-.48.93-3.67.26-.37.42.2.19.59.1.58,0,.58Zm-7.75-17,.32.34.52.92.7.9.52.85-.1.83-.64.3-.77-.51-1.48-1.58-.16.59.1.58-.1.44-.64.18-.61-.07-1.8-.62v.31l.13.17.22.51-.29-.24-.29-.17-.32-.13-.42-.14v-.31l.16-.69v-3.15l-.45-.52-1.31-3.32h.64l-.19-.34-.2-.28-.25-.24-.33-.2.81,0,1.25.34.84,0,1.47,1.16.62.62.51.69.55,1.3.38.69.61.48ZM229.52,586.83l-1-.86.19-1,.87-.62,1.09.31.19.31,0,.41-.09.41-.16.31-.36,0-.45-.21-.35.07Zm19.63,21.26.52.34.55,1-.17,1-.61,1.2-1.12,2.88-.42-.07-.38-1-.1-1.06.22-1.06V610l-.16-1.55.39-.82.87.21Z" style="fill:#efc441"/></svg>