<svg xmlns="http://www.w3.org/2000/svg" viewBox="0 0 800 800"><polygon points="269.3 25.34 276.19 26.81 283.16 28.38 299.6 32.01 330.17 38.57 341.93 41.22 356.89 44.45 357.17 44.64 357.35 44.94 357.44 45.43 357.26 46.11 357.17 46.7 356.98 47.29 356.52 47.88 358.64 48.46 356.98 54.54 373.79 48.27 382.23 46.6 395.09 46.31 412.53 45.92 409.14 54.83 408.68 57.77 409.04 59.34 410.15 62.28 410.33 63.85 408.22 68.06 407.94 69.63 407.76 72.96 407.39 74.43 405.65 77.07 398.3 84.52 396.37 89.32 397.48 102.35 397.38 108.03 395.45 116.06 393.53 130.96 393.62 134.29 394.72 136.54 404.91 143.69 417.68 152.8 425.39 158.29 436.77 166.42 455.96 180.04 470.1 190.13 471.85 195.03 471.85 196.11 472.03 206.78 472.31 222.56 472.49 233.73 473.5 240.49 473.32 242.25 472.95 243.72 473.04 246.66 472.86 248.13 472.03 249.89 469.64 253.81 469.09 255.67 469.55 258.61 470.84 262.14 472.86 264.29 475.15 263.12 476.71 267.23 477.63 281.83 479.56 287.61 482.13 291.82 482.77 292.9 493.51 304.95 501.87 314.26 504.63 319.45 505.63 322.88 506.37 326.8 506.64 344.92 506.83 360.6 506.92 374.02 507.2 393.32 507.29 397.63 507.47 399.3 508.11 400.96 511.6 405.57 512.15 407.04 511.69 409.58 507.29 417.32 507.01 418.6 507.01 421.05 506.37 424.57 506.74 425.16 507.56 425.46 508.21 426.83 509.68 439.17 509.4 455.63 509.12 478.65 509.22 501.38 509.31 529.89 509.31 532.44 509.31 544.88 509.4 558.99 509.49 580.45 509.58 601.41 509.68 622.48 507.2 623.26 497.1 623.16 499.67 633.45 501.23 635.8 501.41 636 503.43 637.56 504.63 639.13 504.9 641.09 503.89 647.16 503.98 649.61 504.53 652.06 505.54 655 506.37 658.53 505.82 660.68 504.81 662.25 502.79 665.09 501.69 668.33 502.51 669.89 504.26 671.46 505.73 674.3 505.73 675.38 505.54 676.65 505.45 677.93 505.91 679.4 506.64 680.57 507.75 681.75 508.85 682.73 509.95 683.41 511.14 683.51 512.52 683.41 513.44 683.71 513.62 685.37 513.99 686.35 516.19 688.41 517.02 689.59 517.2 691.06 516.93 694.09 517.2 695.37 518.03 696.15 520.97 697.72 522.07 698.7 525.56 704.58 528.13 715.35 530.7 725.93 527.86 726.13 510.69 730.44 507.93 732.01 508.85 735.04 483.32 739.65 462.11 746.51 452.47 751.01 451.46 751.11 450.64 751.31 451 746.21 449.35 743.96 438.24 742.59 436.4 741.61 435.03 739.85 433.19 736.91 432.18 735.63 431.17 735.04 430.16 734.65 429.15 733.77 427.04 730.64 423.55 719.08 413.27 719.08 410.61 718.29 408.86 716.92 404.45 711.24 401.06 708.98 394.44 705.46 391.6 702.42 389.49 698.89 387.93 695.56 387.1 692.03 387.28 689 387.28 688.12 388.2 686.35 389.12 684.98 389.21 683.61 387.47 681.85 386.27 681.55 382.51 681.75 381.22 681.55 380.03 679.3 378.19 677.83 376.45 676.07 375.71 673.13 376.82 665.78 376.72 663.53 375.53 661.17 373.6 659.22 371.22 657.84 368.92 657.26 368.09 656.08 364.15 648.34 362.58 646.97 361.3 646.18 360.84 644.81 361.76 641.78 364.61 636.68 364.88 634.33 363.32 631.29 359.46 628.06 357.99 625.9 359.92 625.22 361.85 625.12 367.54 623.55 369.29 622.48 371.86 617.58 371.95 611.31 371.31 604.84 371.77 599.16 374.98 590.54 376.26 583.88 378.01 578.59 378.19 575.45 376.08 566.04 375.16 564.77 370.21 566.73 367.54 567.22 365.16 566.93 360.93 562.91 358.73 556.54 358.09 549.49 358.64 541.16 359.1 539.4 359.92 537.83 361.3 536.36 363.04 535.58 365.16 534.89 366.99 533.91 367.73 532.05 367.73 528.13 368.19 523.62 369.84 520.68 373.79 521.37 373.33 518.63 373.69 511.08 372.41 502.85 372.59 494.23 372.41 493.55 371.12 483.94 371.22 478.65 371.22 475.81 369.93 470.52 369.47 463.67 368.74 460.14 369.38 459.16 370.48 458.28 371.22 456.42 370.94 454.46 370.02 453.18 369.01 452.11 368.46 450.63 368.55 448.77 369.29 448.19 370.3 448.09 371.4 447.5 375.9 443.19 378.1 441.62 384.07 438.78 386.18 437.41 387.19 435.16 386.73 431.63 386.18 431.14 384.62 430.85 384.07 430.36 383.98 429.67 384.07 428.3 383.79 426.14 383.79 424.48 383.52 423.01 378.38 418.4 376.63 413.01 374.25 407.72 365.52 403.31 362.03 400.57 358.73 397.44 356.43 394.6 351.11 390.68 345.78 382.74 341.83 373.63 341.01 368.34 340.73 366.58 341.56 365.2 343.3 364.81 344.86 365.5 346.33 368.73 347.71 367.07 348.63 364.62 347.89 364.13 349.27 363.54 350.56 363.74 351.93 364.23 353.68 364.52 355.15 363.74 355.61 361.87 355.79 359.62 356.43 357.76 356.52 357.76 359.46 353.25 357.72 346.2 351.29 334.44 349.45 330.03 350.83 325.62 353.13 321.12 353.86 316.42 353.77 314.16 354.69 312.79 357.72 309.95 359.28 307.01 359.28 304.66 357.63 299.47 357.72 296.63 358.82 295.25 360.38 294.37 361.67 292.8 362.22 291.04 362.49 286.83 363.69 279.48 362.86 276.05 360.47 273.8 356.43 272.43 356.34 272.23 356.34 272.13 356.34 271.94 357.26 270.37 357.54 268.8 357.35 267.43 356.43 266.16 349.36 263.41 346.79 262.92 341.47 263.22 338.44 263.8 336.42 264.78 335.68 265.96 335.31 268.8 334.76 270.07 333.75 270.96 327.6 273.31 325.12 273.8 322.64 273.5 322 271.54 323.1 269.98 322.19 267.63 322.19 265.57 327.79 264.39 329.9 263.51 331.64 262.24 332.1 260.77 330.91 259.2 329.07 259.1 325.58 259.79 324.2 259.1 322.92 258.12 321.91 257.24 321.54 256.75 321.54 255.87 322.19 251.75 322.46 250.87 329.25 251.66 332.47 251.46 334.86 249.79 336.69 251.07 339.17 251.56 341.38 250.87 342.29 248.91 341.1 245.88 338.44 245.39 333.02 246.86 328.89 246.37 326.68 243.33 326.59 239.12 328.52 235 332.1 239.02 334.4 240.39 336.78 240 338.16 238.23 338.53 235.69 338.25 233.14 337.61 230.98 336.69 229.51 335.77 228.44 335.04 226.87 334.86 224.13 337.7 212.96 337.79 211.29 337.15 205.51 337.43 203.45 338.53 201.3 340.27 199.34 341.19 198.46 341.28 197.28 340.37 194.34 338.71 191.01 338.53 190.03 338.8 188.66 339.26 187.78 339.36 186.8 338.53 185.43 340.92 184.94 342.94 185.33 344.4 184.84 344.5 184.45 345.05 182.1 344.59 179.16 343.58 178.18 342.02 177.79 340.37 176.61 339.08 172.89 339.72 162.6 339.54 157.8 340.46 155.84 340.92 153.49 341.56 151.24 344.77 148.59 342.11 146.24 340.82 145.55 334.95 146.63 333.02 146.63 334.21 143.69 332.84 141.44 330.54 139.19 328.98 136.54 329.16 135.37 329.62 133.8 329.62 132.23 328.25 130.76 326.87 130.47 325.67 130.86 324.39 131.54 322.92 131.94 321.63 131.74 318.05 130.27 317.69 130.66 317.32 131.64 316.77 132.52 315.76 132.62 315.39 132.13 308.5 118.51 306.39 116.06 299.32 111.36 298.22 109.89 296.66 106.66 295.56 105.39 294.37 104.5 290.14 103.03 288.95 102.15 288.12 101.27 287.11 100.68 284.08 100.19 282.43 99.8 280.96 99.02 279.77 97.94 278.39 95 278.48 91.96 279.31 88.34 279.77 86.28 280.5 80.21 281.51 77.66 283.44 75.11 286.19 73.15 287.3 71.98 287.57 70.41 286.84 67.57 286.74 66.2 289.68 51.6 290.32 50.23 291.43 49.05 292.62 48.27 293.54 47.29 293.81 45.43 294.18 40.33 293.81 35.83 291.79 32.49 287.3 30.63 284.72 30.63 280.23 32.01 277.75 32.2 275.27 31.52 272.51 29.95 270.31 27.79 269.3 25.34" style="fill:#efc441"/></svg>