<?xml version="1.0" encoding="UTF-8"?><svg id="Tonga" xmlns="http://www.w3.org/2000/svg" viewBox="0 0 720 540"><path d="M250.11,533.02c-.37,0-.73-.07-1.06-.19-.69-.15-1.32-.54-1.75-1.12-.2-.16-.38-.35-.53-.56l-.07-.1c-.44-.61-.64-1.35-.56-2.1l.04-.32c.04-.35,.14-.69,.29-1,.13-.39,.34-.75,.61-1.05l.09-.1c.57-.64,1.38-1,2.23-1,.01,0,.32,0,.32,0,.32,0,.63,.06,.92,.16,.78,.11,1.49,.53,1.97,1.17l.05,.07c.14,.13,.27,.28,.38,.43l.12,.16c.44,.61,.63,1.35,.55,2.09v.12c-.07,.51-.26,1-.56,1.42l-.16,.23c-.09,.12-.18,.23-.28,.34-.1,.15-.22,.29-.35,.42l-.1,.09c-.56,.54-1.31,.84-2.08,.84h-.05Zm90.11-66.83c-.98,0-1.89-.47-2.45-1.27l-.07-.09c-.41-.58-.6-1.29-.54-2v-.13c.07-.67,.36-1.3,.83-1.79,0,0,.18-.19,.2-.21-.03-.06-.06-.11-.08-.17l-.03-.05c-.32-.26-.59-.59-.78-.97l-.11-.22c-.26-.52-.37-1.11-.3-1.69l.07-.62c-.01-.17-.01-.35,0-.52l.1-.9c.02-.22,.07-.44,.15-.65,.04-.17,.09-.34,.16-.51l.08-.19c.07-.16,.15-.31,.24-.46,.01-.03,.03-.06,.04-.09,.05-.14,.1-.28,.17-.42l.06-.13c.07-.13,.14-.26,.23-.38,.06-.21,.14-.4,.24-.59,.07-.19,.17-.37,.28-.53,.14-.27,.31-.51,.51-.72l.16-.16c.16-.16,.34-.3,.53-.42,0,0,0,0,0,0,.09-.18,.19-.36,.31-.52,.04-.1,.08-.19,.12-.28,.07-.21,.16-.41,.27-.6,.14-.35,.34-.68,.6-.96,.08-.14,.17-.27,.27-.39l.2-.23c.2-.31,.46-.58,.75-.8,.56-.57,1.33-.9,2.14-.9,0,0,.28,0,.28,0,.93,0,1.8,.43,2.37,1.17l.07,.09c.47,.61,.68,1.36,.61,2.12,.1,.59,0,1.2-.24,1.74,0,0,.09,.27,.09,.27,.06,.2,.1,.41,.12,.62,.05,.27,.06,.54,.03,.8l-.02,.19c.1,.37,.14,.76,.09,1.15l-.02,.18s0,.03,0,.04c.04,.25,.04,.49,.02,.73l-.04,.38c-.02,.21-.07,.42-.14,.62-.03,.14-.06,.27-.11,.4-.03,.13-.06,.25-.11,.37,0,0,0,.02,0,.03,.03,.17,.05,.33,.05,.5v.07c.07,.37,.06,.76-.02,1.12l-.11,.51c-.02,.09-.05,.19-.07,.28-.02,.16-.06,.32-.1,.48v.02c0,.13,0,.27,0,.4,.05,.27,.05,.55,.02,.83l-.09,.77c-.04,.38-.16,.74-.33,1.07-.11,.36-.28,.7-.51,1l-.22,.29c-.57,.73-1.44,1.16-2.37,1.16-.01,0-.2,0-.2,0-.28,0-.56-.05-.83-.13-.07,.09-.15,.18-.23,.26l-.09,.09c-.57,.59-1.35,.92-2.16,.92h-.11Zm-9.83-15.14c-.45,0-.89-.1-1.28-.29-.07-.02-.33-.13-.39-.15-.14-.05-.28-.12-.41-.19-.14-.05-.27-.11-.4-.18-.19-.05-.37-.12-.54-.21-.12-.04-.23-.08-.34-.12-.28-.1-.54-.25-.78-.43-.11-.08-.21-.16-.31-.25-.38-.2-.7-.48-.96-.82l-.07-.1c-.26-.34-.44-.72-.53-1.12-.1-.19-.19-.38-.25-.59l-.02-.08c-.08-.15-.15-.31-.21-.48-.13-.09-.25-.19-.36-.29-.32-.07-.63-.19-.91-.35-.14,.02-.28,.03-.43,.03,0,0-.51,0-.51,0-.74,0-1.45-.28-2-.77-.26-.18-.49-.41-.68-.67-.06-.06-.12-.12-.18-.18-.02-.01-.27-.16-.27-.16-.12-.08-.24-.16-.36-.26-.25-.17-.48-.38-.67-.62-.11-.11-.22-.22-.31-.35-.56-.13-1.08-.42-1.49-.84l-.22-.23c-.46-.47-.75-1.08-.83-1.73-.04-.15-.07-.31-.08-.47v-.14c-.06-.19-.09-.38-.1-.58-.08-.27-.13-.54-.14-.82-.06-.28-.07-.58-.04-.87v-.13c.02-.13,.05-.26,.08-.39,0-.03,0-.07,0-.1,0-.08-.01-.16-.01-.25-.02-.15-.03-.31-.02-.46-.01-.11-.01-.22-.01-.33v-.19c-.04-.25-.04-.5-.02-.74l.03-.25c.04-.4,.16-.78,.36-1.13l.14-.26c.13-.24,.29-.45,.48-.65l.34-.35c.12-.12,.25-.24,.39-.34,.07-.07,.15-.14,.23-.21,.07-.09,.14-.17,.21-.24l.4-.41,.13-.19c.09-.13,.2-.25,.31-.37l.34-.35c.56-.58,1.34-.9,2.14-.9h.17c.41,0,.8,.08,1.17,.24,.17-.03,.35-.05,.53-.05h.11c.11,0,.22,0,.32,.02,.24-.26,.53-.48,.85-.65l.12-.06c.41-.21,.85-.32,1.31-.33,0,0,.2,0,.22,0,.93,0,1.81,.43,2.38,1.18l.07,.1c.34,.45,.55,.98,.6,1.54l.02,.26c.06,.6-.07,1.21-.35,1.73,.04,.07,.08,.14,.11,.21,.12-.18,.26-.36,.42-.52,.56-.56,1.36-.91,2.15-.91,.01,0,.2,0,.2,0,.16,0,.32,.02,.47,.04,.25-.15,.53-.25,.82-.32l.14-.03c.22-.05,.45-.08,.68-.08,.37,0,.73,.07,1.07,.2,.21-.05,.42-.07,.63-.07h.28c.61,0,1.2,.19,1.7,.53,.23-.05,.46-.08,.69-.08,.11,0,.21,0,.32,.02,.07,0,.15-.01,.22-.01,0,0,.32,0,.34,0,.1-.08,.22-.16,.33-.22,.09-.4,.26-.78,.49-1.11-.1-.37-.13-.75-.09-1.14v-.13c.09-.65,.38-1.27,.83-1.74l.09-.1c.57-.59,1.35-.92,2.16-.92,.06,0,.12,0,.18,0,.88,.05,1.69,.49,2.22,1.19l.07,.1c.47,.62,.68,1.41,.58,2.18l-.02,.19c-.06,.45-.21,.87-.45,1.23,.12,.38,.16,.79,.11,1.2-.02,.23-.08,.46-.15,.68,.35,.2,.66,.47,.91,.8l.12,.16c.46,.61,.67,1.37,.58,2.13l-.08,.76c-.06,.56-.28,1.09-.63,1.54l-.23,.29c-.57,.72-1.44,1.14-2.35,1.14h-.11c-.33,0-.65-.05-.96-.16-.08,.28-.2,.55-.36,.79-.15,.34-.36,.64-.63,.9l-.22,.22s-.09,.08-.13,.12l-.03,.04c-.2,.24-.43,.44-.68,.61-.28,.21-.59,.37-.92,.47l-.06,.03c-.11,.06-.23,.12-.35,.16-.21,.11-.43,.19-.66,.24-.07,.03-.14,.05-.21,.07-.09,.14-.19,.28-.29,.41,0,0-.46,.53-.48,.56-.04,.06-.08,.12-.12,.18,.07,.31,.08,.62,.05,.94l-.02,.19c-.02,.15-.04,.3-.08,.45l-.02,.36c-.02,.44-.14,.87-.35,1.25-.1,.25-.23,.49-.39,.71-.17,.33-.39,.63-.67,.88-.24,.29-.53,.52-.86,.7l-.31,.26c-.14,.11-.28,.21-.44,.3-.31,.22-.65,.39-1.02,.48-.35,.14-.71,.22-1.08,.22,0,0-.45,0-.46,0Zm-12.11-54.94c-.11,0-.22,0-.33-.02-.93-.1-1.76-.64-2.24-1.44l-.21-.35c-.34-.57-.48-1.24-.41-1.9l.03-.26c.04-.37,.16-.74,.34-1.07l.21-.39c.14-.26,.31-.49,.52-.7l.16-.16c.36-.36,.79-.62,1.27-.76,.39-.32,.86-.53,1.37-.62l.2-.03c.17-.03,.34-.04,.51-.04,.41,0,.8,.08,1.17,.24,.56,.1,1.08,.36,1.5,.74l.18,.16c.39,.35,.67,.8,.83,1.3l.08,.26c.35,1.09,.05,2.29-.78,3.08l-.1,.09c-.55,.52-1.27,.82-2.03,.83l-.09,.1c-.57,.6-1.35,.93-2.17,.93Zm45.08-3.9c-1.16,0-2.26-.66-2.76-1.71l-.05-.11c-.1,.01-.21,.02-.31,.02,0,0-.15,0-.16,0-1.03,0-2-.53-2.55-1.41l-.02-.03c-.74-1.18-.56-2.72,.42-3.71l.09-.09c.28-.28,.61-.5,.97-.65,.13-.38,.34-.72,.62-1.02l.09-.1c.57-.62,1.37-.97,2.21-.97,.02,0,.29,0,.29,0,.92,.02,1.77,.46,2.32,1.19l.12,.16c.49,.64,.7,1.45,.58,2.25,0,0-.04,.26-.04,.29,.19,.15,.36,.33,.51,.53l.22,.29c.45,.61,.65,1.37,.57,2.13l-.02,.19c-.08,.66-.37,1.28-.84,1.76l-.1,.1c-.54,.55-1.27,.87-2.03,.9-.04,0-.07,0-.11,0Zm13.93-7.83c-.78,0-1.53-.3-2.09-.85-.65-.63-.98-1.53-.9-2.44v-.12c.08-.71,.4-1.37,.91-1.87l.1-.1c.1-.1,.2-.18,.31-.27,0,0,.04-.04,.04-.04-.35-.85-.3-1.82,.16-2.63l.15-.26c.03-.06,.07-.11,.1-.16-.02-.03-.09-.12-.09-.12-.47-.62-.67-1.38-.59-2.11-.02,.04-.17,.26-.17,.26-.18,.27-.39,.5-.64,.69-.09,.21-.21,.41-.35,.59,.2,.32,.35,.67,.42,1.04,.18,.96-.07,1.97-.75,2.67l-.09,.1c-.57,.58-1.34,.91-2.15,.91-.04,0-.07,0-.11,0-.85-.03-1.64-.42-2.19-1.07l-.03-.03c-.09-.11-.18-.23-.26-.35-.04,.05-.23,.23-.23,.23-.55,.53-1.29,.83-2.05,.84,0,0-.23,0-.24,0-.82,0-1.59-.33-2.15-.9-.46-.31-.84-.76-1.07-1.29l-.15-.35c-.3-.69-.32-1.44-.1-2.12-.55,.75-1.44,1.23-2.42,1.23-.05,0-.27,0-.27,0-.67-.04-1.31-.3-1.82-.74l-.18-.16c-.58-.51-.94-1.23-1.01-1.98-.24-.7-.22-1.47,.09-2.17-.24-.79-.14-1.65,.29-2.38l.09-.15c.14-.43,.37-.83,.69-1.16l.1-.1c.58-.61,1.37-.93,2.17-.93,.04,0,.08,0,.12,0,.51-.37,1.13-.58,1.77-.58,.04,0,.29,0,.29,0,1.09,.05,2.07,.68,2.56,1.66l.11,.22c.25,.51,.36,1.08,.3,1.64l-.04,.38c-.03,.29-.1,.57-.21,.83,0,.12-.02,.25-.04,.37-.08,.46-.26,.91-.53,1.3-.09,.29-.22,.56-.38,.8,.2-.1,.4-.17,.61-.22,.05-.58,.26-1.15,.64-1.62-.11-.94,.23-1.89,.92-2.55l.1-.09c.56-.53,1.3-.81,2.05-.81,.17,0,.34,.01,.51,.04,.52,.09,1,.31,1.39,.64,.17-.03,.35-.05,.52-.05,.61,0,1.22,.19,1.73,.55,.12,.08,.22,.17,.33,.27,.64,.18,1.21,.57,1.62,1.11l.07,.1c.45,.61,.64,1.35,.57,2.07,.11-.18,.25-.36,.4-.52l.1-.1c.58-.6,1.36-.92,2.16-.92,.39,0,.78,.07,1.15,.23,.63,.26,1.14,.72,1.47,1.27,.15,.13,.28,.29,.4,.45l.12,.16c.33,.46,.52,1,.56,1.56l.02,.32c0,.15,0,.29,0,.44,.16,.6,.14,1.23-.08,1.81,0,.02-.02,.04-.03,.06,0,.04-.04,.42-.04,.42-.03,.29-.1,.58-.21,.85l-.08,.19c-.14,.35-.35,.67-.62,.94l-.08,.08c.06,.16,.11,.33,.14,.5,.12,.61,.05,1.28-.19,1.86-.1,.35-.26,.68-.47,.97l-.17,.23c-.38,.51-.9,.89-1.51,1.08l-.08,.02c-.3,.15-.61,.25-.92,.29l-.2,.02c-.12,.01-.25,.02-.37,.02Zm-57.48-6.09c-1.08,0-2.07-.58-2.6-1.51l-.17-.29c-.34-.59-.46-1.28-.36-1.95,.1-.63,.41-1.28,.86-1.73l.09-.09c.55-.55,1.29-.86,2.06-.87,0,0,.15,0,.16,0,1.08,0,2.09,.59,2.62,1.54l.16,.29c.3,.54,.43,1.17,.36,1.79-.07,.64-.35,1.3-.79,1.77l-.09,.1c-.57,.61-1.37,.96-2.2,.96h-.11Zm48.41-15.66c-.93,0-1.81-.43-2.38-1.17l-.03-.03c-.08-.11-.16-.22-.22-.33-.35,.51-.86,.92-1.46,1.13-.34,.12-.7,.18-1.06,.18-.95,0-1.89-.42-2.46-1.2l-.07-.1c-.87-1.18-.76-2.81,.26-3.87l.09-.1c.58-.6,1.36-.91,2.15-.91,.46,0,.92,.1,1.34,.32,.57,.29,1.04,.75,1.35,1.3,.12-.17,.25-.32,.41-.47l.1-.09c.39-.36,.86-.61,1.36-.72-.62-.22-1.16-.63-1.53-1.2-.06-.09-.12-.19-.17-.29-.25,.06-.51,.1-.77,.1-.57,0-1.14-.15-1.62-.45-.4-.22-.74-.53-1-.91l-.07-.1c-.16-.23-.28-.48-.37-.74-.11-.19-.19-.4-.26-.62-.03-.1-.05-.2-.07-.3-.02-.02-.09-.1-.09-.1-.56-.65-.82-1.5-.71-2.35l.02-.13c.04-.29,.12-.57,.23-.83-.02-.02-.13-.17-.13-.17-.48-.63-.68-1.42-.58-2.21l.02-.13c.05-.36,.16-.71,.33-1.03l.21-.38c.13-.24,.29-.46,.48-.65l.15-.16c.53-.55,1.25-.88,2.01-.91,.03,0,.07,0,.1,0,.15-.83,.63-1.6,1.34-2.05l.15-.1c.48-.31,1.04-.47,1.62-.47,.01,0,.2,0,.2,0,.94,.01,1.81,.46,2.37,1.21l.07,.1c.2,.27,.35,.57,.45,.89,.11-.01,.21-.02,.32-.02,.96,0,1.93,.46,2.49,1.25l.12,.16c.21,.29,.35,.6,.45,.92,.31,.53,.46,1.15,.42,1.76-.05,.72-.37,1.46-.88,1.97-.1,.1-.21,.19-.32,.28-.1,.14-.21,.27-.33,.39l-.1,.09c-.22,.21-.46,.38-.72,.52,1.03,.19,1.9,.91,2.27,1.92l.1,.29c.07,.2,.13,.41,.16,.62,.22-.09,.45-.16,.69-.19l.2-.03c.15-.02,.3-.03,.46-.03,.24,0,.48,.03,.71,.09,.28,.04,.56,.11,.82,.23,.95,.35,1.68,1.18,1.89,2.22l.02,.1c.25,1.23-.3,2.48-1.36,3.14l-.14,.09c-.46,.29-1,.44-1.54,.45,0,0-.19,0-.2,0-.51,0-1.01-.13-1.45-.37-.21-.09-.41-.2-.59-.34-.42,.24-.89,.37-1.38,.39-.03,0-.07,0-.1,0-.31,0-.62-.05-.92-.14,0,.02,.01,.04,.02,.05,.31,.77,.33,1.64-.01,2.39l-.04,.09c-.48,1.05-1.52,1.73-2.67,1.75,0,0-.14,0-.16,0Zm17.66-7.48c-.73-.05-1.42-.36-1.93-.87-.68-.68-1.01-1.66-.87-2.6l.02-.13c.02-.15,.06-.3,.11-.45-.3-.06-.6-.16-.87-.3l-.18-.1c-1-.53-1.61-1.59-1.58-2.72s.69-2.16,1.72-2.64l.2-.1c.26-.12,.53-.21,.81-.25,.13-.05,.27-.1,.4-.14,.27-.13,.56-.21,.86-.25-.68-.23-1.27-.7-1.64-1.34-.3-.53-.46-1.16-.41-1.77-.81-.07-1.55-.47-2.06-1.1-.76-.19-1.43-.67-1.84-1.36l-.21-.35c-.32-.53-.47-1.15-.42-1.77,.03-.41,.15-.83,.33-1.21-.09,.04-.18,.07-.27,.1-.36,.16-.75,.26-1.14,.27,0,0-.15,0-.16,0-.93,0-1.81-.43-2.38-1.17l-.07-.1c-.47-.61-.68-1.38-.6-2.14l.02-.19c.07-.68,.38-1.32,.86-1.8l.16-.16c.58-.58,1.35-.88,2.12-.88,.43,0,.86,.09,1.26,.28,.11,.04,.22,.08,.33,.13,.56-.77,1.46-1.24,2.43-1.24,.01,0,.2,0,.2,0,.87,.01,1.69,.4,2.25,1.06l.08,.09c.18,.22,.33,.46,.45,.71,.58,.18,1.11,.54,1.49,1.04,.47,.62,.71,1.43,.62,2.21-.08,.66-.38,1.33-.83,1.81-.11,.11-.23,.22-.36,.32,.13,.1,.26,.22,.37,.34,.54,.6,.83,1.41,.79,2.21,.04,0,.08,0,.11,.01,.25-.1,.51-.16,.77-.19,0,0,0-.01,0-.02,.22-.61,.62-1.13,1.13-1.48,.12-.18,.25-.34,.4-.49l.09-.09c.49-.49,1.13-.79,1.82-.85l.06-.02s.12-.07,.12-.08c.06-.07,.12-.14,.18-.21l.16-.16c.33-.33,.72-.58,1.16-.73,.01,0,.02-.02,.03-.03,.06-.06,.12-.12,.19-.18h0c-.22-.94,.02-1.94,.67-2.68,.09-.15,.19-.29,.3-.42l.36-.41c.14-.16,.29-.3,.45-.43,.12-.19,.25-.36,.41-.52l.15-.16c.26-.26,.56-.47,.89-.63,0,0,.26-.27,.31-.32,.12-.13,.26-.24,.4-.35l.18-.13c.27-.19,.56-.34,.87-.43,.04-.04,.23-.21,.23-.21-.2-.36-.32-.76-.35-1.17-.03-.04-.05-.08-.07-.12-.28-.4-.46-.87-.52-1.36-.05-.28-.07-.57-.04-.85l.04-.32c.02-.21,.07-.41,.13-.6,.02-.28,.09-.56,.19-.83l.04-.1c.46-1.13,1.56-1.88,2.78-1.88,0,0,.56,0,.56,0,.91,0,1.77,.42,2.34,1.13l.08,.1c.42,.52,.64,1.16,.65,1.81l.14,.33c.07,.15,.12,.31,.16,.47,.34,.3,.61,.67,.78,1.09l.07,.16c.13,.33,.21,.67,.22,1.02,.29,1.13-.1,2.32-1,3.06l-.03,.03c-.04,.16-.09,.31-.15,.46,.01,.17,0,.34-.01,.5l-.04,.32c-.05,.43-.19,.83-.41,1.2,0,.03-.02,.05-.03,.08-.02,.1-.05,.2-.08,.29-.17,.79-.66,1.48-1.35,1.91-.13,.11-.27,.21-.42,.3l-.42,.25c-.32,.2-.68,.33-1.05,.39-.22,.08-.45,.13-.67,.16-.08,.26-.19,.52-.34,.75,.21,.47,.29,.99,.24,1.51v.13c-.09,.76-.46,1.47-1.04,1.97l-.34,.29c-.22,.19-.46,.35-.73,.46-.48,.3-1.03,.46-1.59,.46h-.49c-.27,0-.54-.04-.79-.11,.31,.55,.45,1.18,.37,1.82l-.06,.58c-.08,.67-.37,1.29-.84,1.77l-.28,.28s-.07,.09-.1,.14c-.09,.15-.18,.29-.29,.42l-.05,.06c-.13,.25-.29,.47-.49,.67l-.16,.16c-.52,.54-1.21,.86-1.95,.91-.19,.07-.39,.13-.59,.16-.12,.56-.39,1.11-.78,1.51l-.09,.1c-.12,.13-.25,.24-.39,.34,.16,.13,.31,.28,.44,.44l.07,.09c.49,.62,.72,1.41,.63,2.2-.07,.63-.35,1.29-.78,1.75l-.09,.1c-.57,.62-1.37,.97-2.21,.97-.06,0-.3-.01-.3-.01Zm-15.8-15.77c-.44,0-.87-.1-1.27-.28-.69-.17-1.3-.59-1.72-1.18l-.07-.1c-.42-.6-.61-1.33-.53-2.05l.04-.32c.05-.47,.21-.92,.47-1.31-.29-.68-.32-1.44-.08-2.14l.09-.26c.15-.44,.4-.83,.73-1.16l.16-.16c.56-.56,1.32-.87,2.11-.87,.93,0,1.87,.43,2.44,1.17l.07,.09c.46,.6,.68,1.35,.61,2.1v.13c-.05,.38-.15,.75-.32,1.08,.36,.46,.58,1.02,.62,1.61l.02,.32c.07,.86-.24,1.7-.84,2.32l-.09,.1c-.56,.58-1.34,.91-2.15,.91h-.28Zm-22.75-1.92c-.18,0-.36-.02-.54-.05l-.33-.07c-.35-.07-.68-.2-.99-.39l-.52-.32c-.33-.2-.61-.47-.84-.78-.19-.15-.36-.33-.51-.52l-.07-.1c-.1-.13-.18-.26-.26-.39-.09-.09-.17-.18-.24-.28l-.17-.22c-.12-.15-.22-.32-.31-.49-.27-.31-.48-.67-.6-1.06l-.04-.12c-.15-.48-.19-1-.09-1.5l.13-.64c.03-.16,.08-.32,.13-.47,.06-.22,.15-.43,.26-.64,.04-.1,.09-.2,.14-.3l.14-.26c.05-.09,.1-.18,.16-.27l.05-.12c.09-.22,.2-.42,.33-.61l.1-.14c.12-.23,.27-.45,.45-.64,.13-.24,.29-.47,.49-.67l.28-.29c.33-.34,.72-.59,1.15-.74,.33-.14,.69-.22,1.04-.23,0,0,.16,0,.19,0,.24,0,.48,.03,.72,.09,0,0,.02-.13,.03-.19,0-.07,0-.13,.01-.19l.03-.26c.05-.42,.18-.82,.39-1.18,.08-.28,.2-.55,.36-.8,.13-.23,.28-.44,.46-.62l.16-.16c.18-.18,.37-.33,.59-.46,.16-.13,.33-.24,.51-.34l.12-.06c.43-.23,.91-.35,1.4-.35h.27c.28,0,.55,.04,.82,.11,.36,.07,.71,.2,1.03,.39l.21,.13c.43,.26,.78,.63,1.03,1.07l.17,.29c.24,.42,.37,.88,.39,1.35,.13,.4,.17,.82,.12,1.25l-.05,.39c-.03,.23-.08,.46-.16,.67-.04,.16-.1,.32-.17,.48-.18,.63-.55,1.19-1.08,1.59l-.05,.04s-.18,.19-.18,.19c-.25,.26-.53,.46-.85,.62-.14,.08-.29,.16-.44,.22,0,0,0,0,0,0,.19,.35,.3,.74,.33,1.14,.02,.07,.03,.13,.04,.2,.23,.49,.32,1.04,.26,1.59v.13c-.07,.52-.26,1.02-.57,1.44h0c-.07,.21-.16,.41-.27,.6-.14,.36-.35,.69-.61,.97-.14,.21-.31,.4-.51,.56l-.64,.54c-.12,.1-.25,.2-.39,.28l-.12,.07c-.31,.19-.66,.32-1.02,.38-.24,.06-.48,.09-.72,.09-.09,0-.17,.01-.26,.01h-.31c-.19,.04-.39,.06-.58,.06Zm45.58-8.88c-.94,0-1.83-.44-2.4-1.2l-.07-.09c-.44-.58-.65-1.31-.59-2.04,.02-.28,.08-.56,.18-.83-.05,.06-.11,.13-.17,.19l-.09,.09c-.1,.1-.21,.2-.33,.29l-.16,.16c-.56,.57-1.33,.89-2.13,.89,0,0-.36,0-.36,0-1.11,0-2.13-.63-2.64-1.62l-.11-.22c-.27-.52-.38-1.11-.32-1.69l.03-.32c.07-.68,.37-1.31,.84-1.79l.16-.16c.21-.21,.45-.39,.71-.54l.59-.32c.16-.09,.33-.16,.5-.21,.01-.06,.03-.12,.05-.18,.08-.93,.58-1.77,1.38-2.28l.15-.1c.49-.31,1.05-.47,1.61-.47,.46,0,.93,.11,1.36,.33,.58,.3,1.04,.77,1.32,1.33,.47,.65,.66,1.47,.52,2.27,0,.06,0,.12-.01,.17l-.03,.25c-.07,.68-.37,1.32-.85,1.81l-.09,.09c-.06,.06-.12,.11-.17,.16,.33-.13,.67-.21,1.03-.22,.03,0,.07,0,.1,0,.96,0,1.92,.46,2.49,1.24l.07,.1c.41,.56,.61,1.25,.57,1.94-.04,.74-.36,1.5-.89,2.02l-.09,.09c-.56,.56-1.32,.87-2.11,.87h-.06Zm-2.25-5.42c-.02,.1-.05,.21-.09,.3,.03-.04,.19-.21,.19-.21,.07-.07,.14-.14,.22-.21-.1,.04-.21,.08-.32,.11Zm33.78-45.38c-1.07,0-2.07-.58-2.6-1.51l-.02-.03c-.31-.54-.44-1.16-.38-1.78,.06-.68,.36-1.38,.84-1.87l.09-.1c.57-.58,1.34-.91,2.15-.91,.02,0,.16,0,.16,0,.89,.02,1.73,.43,2.29,1.13,.47,.59,.73,1.37,.67,2.13-.05,.72-.37,1.46-.88,1.96l-.09,.09c-.55,.55-1.29,.87-2.07,.88,0,0-.15,0-.17,0Zm2.31-11.82c-.59,0-1.15-.17-1.63-.48-.93-.14-1.76-.72-2.21-1.59l-.12-.23c-.11-.2-.19-.42-.24-.64-.14,0-.28-.01-.42-.03-.15,.02-.3,.03-.45,.03h-.16c-.75,0-1.48-.28-2.02-.79-.11,.01-.22,.02-.34,.02-.67,0-1.33-.23-1.85-.64-.38,.17-.79,.26-1.22,.26h-.05c-.95,0-1.84-.45-2.41-1.21-.45-.61-.68-1.4-.6-2.16v-.12c.09-.68,.39-1.31,.87-1.79,.53-.53,1.26-.87,2-.91,0-.08,0-.17,.02-.25v-.13c.03-.16,.06-.31,.1-.46-.05-.04-.1-.09-.15-.13l-.17-.16c-.29-.28-.52-.61-.68-.97-.41-.6-.59-1.32-.51-2.04v-.13c.08-.55,.29-1.06,.62-1.49,.03-.09,.06-.18,.09-.26l.04-.09c.22-.54,.6-1.01,1.08-1.34,.05-.06,.1-.12,.15-.18,.12-.17,.25-.32,.41-.47,.15-.3,.34-.58,.58-.82l.09-.09c.51-.51,1.17-.81,1.88-.87,.07-.02,.14-.03,.21-.04,.31-.15,.63-.24,.97-.27,.02-.82,.37-1.6,.99-2.16,.02-.02,.04-.04,.05-.06,.27-.39,.63-.71,1.05-.93,.26-.17,.54-.3,.83-.39,.04-.02,.09-.04,.13-.05,.46-.26,.97-.39,1.47-.39,.06,0,.12,0,.18,0-.05-.46,.02-.94,.19-1.38l.04-.1c.45-1.16,1.56-1.91,2.8-1.91,.02,0,.28,0,.33,.01,.51-.4,1.13-.63,1.78-.64,0,0,.17,0,.19,0,.54,0,1.07,.15,1.53,.42,.23-.06,.48-.1,.72-.1,0,0,.2,0,.21,0,.73,0,1.44,.27,1.99,.75l.33,.29c.21,.18,.38,.39,.53,.61,.05,.06,.22,.28,.22,.28,.35,.47,.56,1.03,.59,1.61,.01,.09,.02,.18,.03,.26,.02,.05,.13,.3,.13,.3,.07,.16,.12,.33,.16,.5,.25,.33,.43,.7,.52,1.09,.04,.09,.07,.17,.09,.26,.17,.44,.24,.91,.19,1.38,.04,.53-.06,1.06-.29,1.54-.1,.49-.33,.95-.65,1.34-.13,.36-.32,.7-.58,.99,.01,.17,0,.34-.01,.51l-.03,.26c-.04,.35-.13,.69-.29,1-.07,.2-.15,.39-.26,.57-.05,.19-.13,.38-.22,.55-.13,.54-.41,1.03-.82,1.43l-.1,.09c-.51,.5-1.17,.78-1.85,.84,.03,.04,.07,.08,.1,.12,.82,1.03,.88,2.47,.2,3.54-.12,.21-.25,.4-.41,.56-.36,.37-.81,.66-1.31,.82,.02,.24,.01,.48-.02,.71-.06,.39-.2,.78-.4,1.13-.27,.52-.67,.94-1.16,1.22,.03,.22,.03,.45,0,.68-.05,.46-.21,.98-.46,1.37l-.1,.16c-.53,.84-1.44,1.36-2.44,1.39-.03,0-.06,0-.1,0Zm-43.04-2.17c-.09,0-.18,0-.27-.01-.08,0-.15,.01-.23,.01h-.22c-.58,0-1.15-.17-1.64-.49l-.1-.07c-.18-.12-.35-.26-.5-.42l-.28-.29c-.23-.24-.42-.51-.56-.81l-.2-.24c-.47-.55-.72-1.25-.71-1.97-.12-.38-.15-.79-.11-1.19l.03-.26c.03-.3,.11-.59,.23-.86,.06-.27,.16-.52,.29-.77l.06-.1c.24-.56,.64-1.01,1.13-1.33,.12-.09,.24-.16,.36-.23,.3-.25,.66-.44,1.03-.56,.38-.16,.78-.26,1.18-.26h.96c1.14,0,2.17,.65,2.68,1.67l.11,.21c.55,.39,.95,.94,1.15,1.58,.09,.24,.16,.49,.18,.74l.03,.25c.05,.52-.03,1.03-.23,1.5-.1,.29-.25,.57-.44,.82l-.24,.32-.09,.17c-.09,.17-.19,.32-.31,.47-.17,.44-.43,.83-.78,1.15-.56,.6-1.34,.95-2.19,.95h-.28Zm36.45-51.26c-.22,0-.43-.02-.64-.07l-.13-.03c-.81-.19-1.5-.72-1.92-1.44-.41-.73-.5-1.59-.25-2.38l.08-.25c.14-.44,.38-.85,.71-1.18l.16-.16c.42-.43,.95-.72,1.53-.84,.28-.08,.56-.12,.85-.12,.22,0,.45,.03,.66,.08l.14,.03c.81,.2,1.5,.73,1.9,1.45s.49,1.59,.23,2.38l-.08,.26c-.15,.45-.4,.86-.74,1.2l-.16,.16c-.42,.42-.95,.7-1.52,.81-.27,.08-.55,.12-.83,.12Zm-8.08-10.09c-.43,0-.87-.09-1.26-.28-.39-.13-.75-.34-1.06-.62l-.18-.16c-.36-.32-.63-.72-.8-1.17l-.22-.58c-.16-.43-.22-.89-.18-1.34l.02-.26c.04-.4,.16-.78,.34-1.14l.14-.26c.15-.28,.35-.54,.58-.76l.1-.09c.34-.32,.74-.55,1.17-.69,.45-.28,.98-.44,1.52-.45,0,0,.27,0,.29,0,.95,0,1.84,.45,2.41,1.21l.12,.16c.18,.25,.33,.52,.43,.8,.24,.5,.34,1.06,.29,1.62l-.03,.25c-.04,.41-.17,.8-.37,1.16l-.07,.13c-.05,.1-.11,.19-.18,.28h0c-.26,.81-.85,1.46-1.62,1.81l-.21,.09c-.39,.18-.81,.26-1.23,.26Zm54.61-157.03c-.54,0-1.08-.15-1.54-.42-.38-.16-.73-.4-1.02-.71l-.27-.29s-.09-.1-.13-.15c-.53-.48-.88-1.14-.97-1.87l-.03-.22c-.03-.06-.06-.12-.08-.18l-.14-.32c-.19-.45-.27-.94-.23-1.43l.02-.19c.06-.69,.35-1.33,.83-1.83l.09-.1c.47-.49,1.08-.79,1.72-.88,.02,0,.03-.01,.05-.02,.06-.09,.12-.17,.19-.25,.57-.64,1.41-1.04,2.27-1.04,.09,0,.19,0,.28,.01,.08-.04,.16-.08,.24-.11-.15-.13-.29-.27-.41-.43l-.17-.22c-.28-.36-.47-.78-.56-1.22-.11-.33-.16-.68-.15-1.03-.02-.22-.02-.45,.01-.67,0-.06,0-.11,.01-.17l.05-.52c.07-.7,.38-1.35,.88-1.85l.16-.16c.55-.55,1.3-.86,2.08-.87,0,0,.19,0,.2,0,.77,0,1.51,.3,2.07,.83l.4,.38c.15,.14,.29,.3,.41,.48l.37,.54c.15,.22,.27,.46,.36,.71l.04,.12c.14,.41,.2,.85,.15,1.29l-.05,.45c-.05,.52-.24,1.02-.55,1.45l-.16,.22c-.26,.36-.6,.66-.98,.87l-.24,.13c-.2,.11-.4,.19-.62,.26,.13,.12,.25,.25,.36,.39l.17,.22c.29,.37,.48,.8,.58,1.26,.16,.43,.22,.9,.17,1.35l-.03,.25c-.04,.32-.12,.64-.26,.93-.08,.27-.2,.53-.36,.77l-.33,.51c-.11,.17-.23,.32-.37,.46l-.22,.23c-.11,.12-.23,.22-.36,.32l-.18,.19c-.11,.19-.25,.37-.4,.53l-.03,.03c-.12,.21-.28,.41-.45,.58l-.28,.29c-.16,.16-.33,.3-.51,.42l-.29,.19c-.47,.3-1.02,.47-1.59,.48,0,0-.19,0-.2,0Zm-124.25-26.65c-.42,0-.84-.1-1.22-.28-.31-.08-.61-.2-.88-.38l-.11-.07c-.25-.16-.47-.35-.67-.57l-.51-.59c-.16-.14-.3-.29-.43-.46l-.17-.22c-.1-.13-.18-.26-.25-.4-.15-.19-.27-.39-.37-.61l-.23-.51c-.19-.42-.29-.89-.27-1.35-.02-.19-.02-.38,0-.56l.02-.26c.03-.3,.1-.6,.22-.88,.05-.15,.11-.29,.19-.43,.04-.09,.08-.19,.12-.28,.06-.21,.14-.42,.24-.61l.13-.26c.18-.35,.44-.67,.75-.92l.58-.48c.11-.09,.23-.18,.35-.25,.29-.24,.62-.42,.98-.54,.12-.06,.25-.12,.38-.17,.13-.06,.26-.12,.4-.16,.17-.09,.35-.16,.53-.21,.31-.13,.64-.22,.98-.24,.2-.05,.41-.07,.61-.07h.43c.46,.02,.9,.14,1.3,.35,.1,.04,.19,.08,.28,.13,.15,.06,.3,.14,.45,.23l.21,.13c.21,.13,.41,.29,.58,.47,.09,.08,.18,.17,.27,.26l.43,.48c.24,.27,.43,.57,.56,.9,.19,.32,.31,.68,.37,1.05,.09,.34,.13,.7,.1,1.04l-.06,.7c-.02,.19-.05,.38-.11,.57v.07c-.04,.31-.11,.61-.23,.89-.02,.08-.05,.17-.07,.25-.09,.38-.25,.75-.48,1.08-.14,.3-.33,.57-.56,.81-.18,.24-.39,.46-.62,.64-.03,.02-.05,.05-.08,.07-.24,.28-.53,.52-.86,.69l-.24,.13c-.26,.14-.55,.24-.84,.3-.35,.22-.75,.36-1.16,.42-.23,.06-.47,.09-.71,.09,0,0-.3,0-.3,0Z" style="fill:#efc441;"/><path d="M344.01,10h.11s.05,.07,.05,.07l.22,.06,.16,.13h.11l.21,.13,.15,.19h.06l.43,.48,.04,.19,.15,.19,.03,.26,.05,.06-.07,.7-.06,.07-.05,.57-.13,.19-.02,.26-.13,.19,.04,.13-.25,.32v.13s-.26,.25-.26,.25v.07s-.15,.09-.15,.09l-.19,.19h-.05l-.19,.25-.24,.13h-.22s-.06,.06-.06,.06l-.46,.13-.24,.19h-.23s-.06,.06-.06,.06h-.28s-.38-.19-.38-.19h-.17s-.11-.06-.11-.06l-.53-.61-.07-.16-.22-.13-.17-.22-.04-.19-.26-.26-.23-.51,.03-.32-.05-.06,.02-.26,.06-.06v-.13s.14-.19,.14-.19l.02-.12,.19-.26,.03-.32,.13-.26,.58-.48,.17-.06,.18-.19,.29-.07,.18-.13h.11s.18-.12,.18-.12l.28-.06,.18-.13h.17s.06-.06,.06-.06l.12-.06h.33s.06-.06,.06-.06h.11l.05,.06,.06-.06m126.05,21.29l.4,.38,.37,.54,.04,.12-.05,.45-.16,.22-.24,.13h-.11s-.06,.06-.06,.06h-.22l-.1-.06-.17-.22v-.13s-.09-.19-.09-.19l.03-.26-.05-.07,.08-.26-.05-.06,.05-.52,.16-.16h.17m-.95,6.9l.16,.06,.17,.22v.13s.13,.32,.13,.32l-.03,.26-.14,.26v.13s-.34,.51-.34,.51l-.22,.23-.17,.06-.15,.16v.06s-.57,.58-.57,.58l-.07,.19-.15,.16h-.06l-.15,.16-.08,.26-.28,.29-.3,.19h-.17s-.2-.19-.2-.19h-.17s-.27-.29-.27-.29l-.12-.23-.18-.09-.03-.25,.06-.07v-.13s-.13-.26-.13-.26l.04-.1,.19-.03,.08-.25-.09-.19,.13-.26,.19-.19,.1-.16,.68-.13,.13-.13,.23-.06,.06-.06h.44s.05,.06,.05,.06h.33l.12-.06,.1-.16,.38-.38,.2-.32-.04-.13,.15-.16m-1.59,.32l.02,.03v.07s-.04,.03-.04,.03h-.05l-.02-.03v-.07s.03-.03,.03-.03h.06m-1.51,1.15l.07,.1-.18,.12,.04,.13-.2,.32-.02,.19-.09,.1h-.06s-.07-.16-.07-.16l-.1-.06-.14-.32,.02-.19,.09-.1,.11,.07h.17s.24-.19,.24-.19h.12m-53.47,157.98l.12,.16,.04,.19,.1,.13-.03,.25-.07,.13-.25,.32-.17,.51-.21,.09-.15-.13h-.17s-.18-.16-.18-.16l-.22-.58,.02-.26,.14-.26,.1-.09h.17s.1,.06,.1,.06l.43-.38h.22m7.95,11.37l.14,.03-.08,.26-.16,.16h-.11s-.07,.06-.07,.06l-.13-.03,.08-.26,.16-.16h.11s.06-.06,.06-.06m10.19,31.44l.19,.25h.17v.22s.17,.22,.17,.22h.11s.04,.06,.04,.06h.17l.1-.1,.07-.13-.1-.13,.03-.03h.05l.15,.19h.06s.13,.26,.13,.26h.11s.09-.1,.09-.1l.02-.13,.15-.09,.19,.32h.11s.1-.1,.1-.1l.09-.32,.1-.09h.17s.33,.29,.33,.29v.13s.1,.23,.1,.23h.16l.07,.09-.02,.19,.05,.06,.02,.38-.21,.32-.02,.19,.12,.16h.22l.05,.07h.11s.07,.16,.07,.16l-.02,.19-.15,.1-.22,.29-.02,.13,.12,.23,.21,.06,.05,.06h.22s.05,.07,.05,.07l.12-.06h.11s.07,.1,.07,.1l-.08,.19,.2,.19v.12s.09,.13,.09,.13l-.04,.38,.04,.13-.18,.19,.04,.13-.07,.13-.03,.26-.16,.16h-.17s-.05-.07-.05-.07h-.11s-.06,.06-.06,.06l-.05-.06h-.22l-.05-.06h-.11s-.07-.1-.07-.1l.13-.13v-.13s-.06-.1-.06-.1l-.17,.07-.07-.1,.13-.19-.16-.28-.08-.04-.03-.25-.07-.1-.16-.06-.12-.16,.02-.19-.07-.09-.15-.13h-.11s-.09,.1-.09,.1l.04,.12-.18,.13v.07s.13,.09,.13,.09l.11,.22-.02,.13,.05,.06-.02,.19-.07,.13-.14,.25v.13s-.17,.16-.17,.16h-.39s-.1-.06-.1-.06l-.22-.29-.12-.39-.12-.16h-.11s-.17,.22-.17,.22l.28,.51-.06,.58,.12,.22,.18,.1-.02,.13-.13,.19,.07,.16,.19,.03v.13s-.24,.29-.24,.29l-.3-.03v-.07s.19-.13,.19-.13l.03-.25-.07-.1-.17,.06-.09-.19-.18,.13h-.16l-.1,.1v.13s.14,.13,.14,.13l-.09,.32,.1,.13-.04,.32-.07,.13-.08,.03-.07,.13-.18,.13h-.22l-.07-.09,.02-.13,.19-.19,.16-.45,.07-.06v-.13s-.07-.09-.07-.09l-.27-.06-.1-.13h-.22l-.09,.1-.02,.19,.19,.26v.13s-.08,.06-.08,.06l-.03,.26,.05,.06-.11,.45,.09,.19-.16,.16h-.11s-.21,.16-.21,.16v.06s-.16,.1-.16,.1h-.11s-.21-.13-.21-.13l-.07,.41-.16,.16h-.22s-.1-.06-.1-.06l-.09,.09-.03,.26,.04,.12,.08,.04,.19-.2h.06s0,.23,0,.23l.05,.06-.03,.25,.07,.1,.16,.07,.17,.22-.06,.06-.04,.38-.22,.29v-.35s-.1-.06-.1-.06v-.1s-.23-.06-.23-.06l-.05-.06h-.33s-.34,0-.34,0l-.06,.06h-.17s-.3,.19-.3,.19l-.13-.03,.12-.35,.4-.06,.19-.19,.24-.13h.06l.05,.06,.09-.1v-.13s-.05-.16-.05-.16l-.16-.07-.1-.13h-.11s-.1-.13-.1-.13h-.11s-.17-.23-.17-.23v-.06s-.14-.19-.14-.19v-.16s-.11-.06-.11-.06h-.33s-.08-.09-.08-.09l.02-.19,.09-.03v.16s.08,.09,.08,.09l.2-.03-.05-.06-.02-.32,.22-.45,.21-.16,.1-.1v-.12s.15-.03,.15-.03l.2-.26h.16s.06-.06,.06-.06l.29-.07,.1-.22,.09-.03v.16s.11,.13,.11,.13l-.03,.25,.18,.38v.19s-.24,.29-.24,.29l-.34,.06-.09,.1-.03,.19,.09,.03h.11s.06-.06,.06-.06h.11s.36-.19,.36-.19h.11s.22-.23,.22-.23l.04-.32,.06-.07,.02-.19-.05-.07,.07-.13,.04-.32-.08-.25-.04-.2-.13-.09h-.28s-.06,.06-.06,.06h-.11s-.1-.13-.1-.13h-.06l-.07,.13-.13,.13h-.11s-.07,.07-.07,.07h-.22s-.18-.16-.18-.16l-.04-.13,.03-.25,.15-.1h.39s.04,.06,.04,.06h.17s.11,0,.11,0l.19-.26h.11s.06-.06,.06-.06h.22s.05,.06,.05,.06h.17s.16-.22,.16-.22l.02-.13,.14-.25,.15-.16,.17-.06,.1-.1,.14-.26v-.51s.13-.13,.13-.13v-.52s-.27-.29-.27-.29l-.21-.13h-.5l-.1,.16,.21,.13-.05,.16-.1-.07-.04,.1,.17,.22,.53,.26v.22s-.06,.07-.06,.07l-.02,.13,.04,.13-.35,.42h-.06s-.07,.12-.07,.12h-.06l-.19,.26-.29,.13-.07,.13-.23,.06-.06,.07h-.11s-.14-.03-.14-.03v-.07s.13-.13,.13-.13v-.07s.04-.03,.04-.03l.09-.1v-.07s-.06-.09-.06-.09l-.26,.32h-.12s-.19,.2-.19,.2l-.18,.13-.08-.03-.02-.1-.12,.07v-.1s.08-.1,.08-.1h.11s.1-.1,.1-.1l-.08-.09-.21-.06-.05-.07h-.11s-.31,.32-.31,.32l-.32,.1,.04,.12-.08,.2,.08,.03,.06,.17-.07,.12,.07,.1,.36-.26,.02,.1-.19,.19-.02,.13,.1,.13-.15,.09h-.17s-.38,.45-.38,.45h-.06l-.25,.32-.24,.13-.25,.32h-.06l-.06,.06h-.28l-.06,.06h-.5s-.35,.19-.35,.19h-.06s-.06-.16-.06-.16v-.13s-.08-.13-.08-.13l.02-.19-.13-.32,.03-.26,.12-.06-.03-.19,.06-.06,.04-.39-.08-.03-.18,.13h-.34l-.07-.09,.13-.13v-.06s.31-.26,.31-.26l-.15-.35-.14-.03,.04-.32-.08-.25,.15-.1,.13-.2h.06s.09-.09,.09-.09l.07-.19,.09-.03,.18-.13h.17s.18-.13,.18-.13h.11s.3-.19,.3-.19l.09,.13h.11s.05,.06,.05,.06l.51-.07,.07,.1v.07s.13,.09,.13,.09h.22l.25-.19h.17l.15-.16,.16-.45,.29-.35h.06s.13-.13,.13-.13l.23-.07,.15-.16,.28-.45,.03-.32,.2-.39,.06-.51-.04-.06,.02-.19-.14-.26,.04-.1h.11s.15,.13,.15,.13l.33,.07,.45-.07,.41-.19,.19-.2,.29-.13,.25-.25h.11m2.07,3.89l.07,.1v.13s-.04,.03-.04,.03h-.06l-.07-.09v-.13s.04-.03,.04-.03h.06m-1.07,1.66l.1,.13h.22s.12,.16,.12,.16l-.03,.26-.15,.1v-.23l-.08-.03-.12,.06-.12-.16v-.13s-.09-.06-.09-.06l.15-.09m1.82,.13l.15,.13h.11s.04,.13,.04,.13h.11s.04,.13,.04,.13h.11s.12,.16,.12,.16l-.03,.32-.1,.1h-.11s-.07-.1-.07-.1v-.29s-.11,0-.11,0l-.06,.06-.13-.1-.02-.09h-.17s-.05-.07-.05-.07h-.11s-.21,.16-.21,.16l-.08,.19,.05,.07-.02,.19-.16,.16-.25-.26-.16-.06-.02-.09-.1-.07v-.12s-.03-.07-.03-.07v-.06s.16-.16,.16-.16h.11s.23-.13,.23-.13h.23s.06-.07,.06-.07l.45-.07m-5.91,.19l.02,.03-.09,.1-.02-.03v-.07s.04-.03,.04-.03h.06m-.24,.19l.07,.1-.03,.03h-.05s-.03-.03-.03-.03v-.06s.04-.03,.04-.03m-.28,0l.02,.03v.07s-.04,.03-.04,.03h-.05s-.02-.03-.02-.03v-.06s.04-.03,.04-.03h.06m5.04,.64l.03,.04-.02,.12-.03,.03h-.06s-.02-.03-.02-.03v-.13s.05-.03,.05-.03h.05m-8.58,.2l.24,.1v.12s-.16,.1-.16,.1h-.11s-.07-.1-.07-.1v-.13s.1-.09,.1-.09m3.91,.32l.02,.03v.06s-.04,.03-.04,.03h-.06s-.02-.03-.02-.03l.09-.09m5.77,.06l.08,.03,.07,.39-.13,.13,.03,.19-.09,.1-.13-.03-.05-.13,.03-.26-.05-.06,.24-.35m-1.53,.26l.02,.03v.13s-.05,.03-.05,.03h-.11s-.03-.03-.03-.03v-.06s.1-.1,.1-.1h.06m-.51,.13l.08,.03-.03,.19-.06,.07-.03,.25,.04,.13-.1,.16h-.11s-.06,.06-.06,.06h-.33s-.13-.1-.13-.1l.02-.19,.15-.16h.11s.19-.19,.19-.19h.06s.03-.1,.03-.1l.16-.16m-8.07,.13l.03,.03v.07s-.11,.1-.11,.1h-.05l-.02-.03v-.06s.04-.03,.04-.03h.06l.06-.06m-1.13,.13l.21,.13h.23l.06-.06,.06,.16-.27,.22h-.22s-.07,.07-.07,.07h-.61s-.06,.06-.06,.06l-.23,.07-.06,.07h-.11s-.37,.32-.37,.32h-.06l-.16,.23-.1,.38-.07,.13-.18,.13-.14,.25-.17,.51-.26,.32-.05,.16-.1-.06-.17,.06-.1-.13h-.34s-.24,.13-.24,.13l-.09-.2-.22-.06-.04-.42-.05-.06,.04-.09,.12-.06h.16s.07-.13,.07-.13h.11s.1-.1,.1-.1l.02-.19,.07-.13,.24-.19,.02-.13,.54-.38,.14-.26-.05-.07,.02-.19,.09-.09h.33s.07-.07,.07-.07h.11s.1,.13,.1,.13h.22s.07-.06,.07-.06h.05l.32-.32,.21,.13h.17s.05,.06,.05,.06h.22s.12-.13,.12-.13l.24-.13m4.78,.06l.13,.1-.38,.1-.03,.03,.1,.13-.15,.03-.1,.16v.16s.14,.09,.14,.09v.07s.11,.16,.11,.16h.06v.35s-.11,.09-.11,.09h-.17s-.09-.19-.09-.19l-.13-.1,.02-.19-.2-.19v-.13s.2-.19,.2-.19l.07-.19,.23-.29h.28m6.55,.58l.12,.16-.03,.26-.13,.19-.02,.19-.1,.16-.12,.06h-.06s-.12-.16-.12-.16v-.13s.15-.2,.15-.2l-.02-.32,.16-.22h.17m-12.48,.32l.05,.06h.06l.12,.16-.1,.09h-.05l-.17-.22,.03-.1h.06m10.27,.06l.12,.16-.02,.19-.09,.1h-.17s-.1-.13-.1-.13l-.34-.16v-.07s.16-.09,.16-.09h.44m-6.17,0l.57,.39,.32,.35v.22s.22,.07,.22,.07l.16,.13,.21,.29v.13s.04,.07,.04,.07l-.05,.38-.06,.07-.13,.7-.13,.13-.03,.26,.04,.13-.22,.23h-.11s-.06-.16-.06-.16l-.08-.03-.24-.32h-.06s-.27-.29-.27-.29l.12-.13,.02-.13-.15-.12,.25-.26-.03-.25,.09-.03,.1-.16-.04-.13,.09-.1h.11s.05,.06,.05,.06l.09-.09-.2-.26v-.07s-.04-.06-.04-.06v-.12s-.16-.23-.16-.23l-.21-.07-.05-.06h-.11s-.04-.06-.04-.06h-.11s-.06-.16-.06-.16l-.05-.06,.05-.22h.17m-1.44,.45v.1s-.23,.19-.23,.19l-.09,.32-.12,.13-.04,.32,.13,.09h.11l.12,.16v.12s-.19,.13-.19,.13l-.08,.19,.18,.16,.22,.06,.12,.16,.02,.25-.09,.03-.14-.19-.43-.13-.07-.1,.06-.06-.1-.13,.03-.26,.06-.06-.02-.1h-.11l-.2-.13-.02-.1,.07-.13-.13-.09h-.44s-.02,.19-.02,.19h-.23l-.25,.32-.11-.06-.19,.2h-.11s-.31,.25-.31,.25h-.11s-.07-.09-.07-.09v-.13s.15-.19,.15-.19l.03-.26,.15-.16,.15,.12h.17s.24-.13,.24-.13l.25-.26,.09-.03,.04-.1h.33s.18-.19,.18-.19h.06l.06-.06h.11s.12-.13,.12-.13h.28s.19-.26,.19-.26h.17m1.36,.25l.02,.04v.06s-.1,.1-.1,.1h-.11s-.02-.03-.02-.03v-.13s.04-.03,.04-.03h.17m1.56,0l.07,.1v.13s-.05,.03-.05,.03h-.16s-.12-.16-.12-.16l.04-.1h.22m4.32,.06l.19,.1-.02,.13-.31,.25-.04,.32,.1,.13-.02,.12-.07,.06,.02,.32-.22,.23h-.11s-.21-.35-.21-.35v-.13s-.09-.06-.09-.06l.05-.45,.07-.07,.09-.32,.09-.1h.17l.12-.06,.18-.13m2.16,.06l.07,.1-.02,.19-.27,.45,.03,.2-.1,.09-.08-.03,.05-.45-.04-.06,.03-.32,.16-.16h.17m-8.92,.26h.11s.13,.16,.13,.16v.45s-.09,.1-.09,.1h-.11s-.27-.29-.27-.29l.09-.32,.15-.09m1.01,.45l.07,.1v.13s-.17,.16-.17,.16h-.11l-.06,.06h-.22l-.07-.1v-.07s.22-.22,.22-.22l.12-.06h.22m-2.65,.32l.08,.09-.04,.03h-.05l-.03-.03v-.07s.04-.03,.04-.03m-.24,.19l.02,.03v.13s-.11,.1-.11,.1h-.06s-.02-.03-.02-.03l.02-.13,.09-.09h.06m5.82,.13h.05s.07,.1,.07,.1l-.02,.13-.03,.03h-.11s-.04-.06-.04-.06v-.05s.02-.07,.02-.07l.05-.07m-10.3,.13l.03,.03-.07,.06v.07s-.04,.04-.04,.04l-.02-.03v-.13s.05-.03,.05-.03h.05m11,.06l.02,.04v.06s-.11,.09-.11,.09l-.02-.03v-.06s.11-.1,.11-.1m-3.94,0h.16s.02,.03,.02,.03l-.09,.09-.05-.06-.06,.06-.08-.03,.1-.1m-5.89,0l-.03,.54-.16,.16h-.11s-.06-.22-.06-.22l.16-.22,.09-.03,.02-.19,.09-.03m3.33,.06l.07,.1,.04,.19-.22,.22-.21-.12-.12-.16,.15-.1,.07-.12h.22m-3.9,.06l.08,.03-.06,.06,.02,.1,.13-.13,.02,.03-.02,.19-.12,.06v.07s.1,.06,.1,.06l-.09,.09-.12,.06-.1-.06-.07,.07-.17-.16v-.06s.13-.12,.13-.12v-.16s.28-.13,.28-.13m2.98,.19l.02,.03v.06s-.04,.04-.04,.04h-.06s-.02-.03-.02-.03v-.07s.04-.03,.04-.03h.06m-.45,0l.19,.03v.07s-.19,.19-.19,.19l-.02,.19,.12,.16h.17s.29-.19,.29-.19h.06l.12,.16,.09,.19-.1,.16h-.28l-.04-.06h-.56l-.31,.26h-.06s-.12-.16-.12-.16l.42-.77,.22-.22m7.72,0l.11,.28-.07,.13v.13s.03,.06,.03,.06l-.03,.1h-.06s-.04-.13-.04-.13h-.11s-.06,.06-.06,.06l-.05-.06h-.17s-.12-.09-.12-.09l.02-.26,.07-.13,.2-.09,.15,.13,.12-.13m-4.59,.25l.03,.03-.03,.03h-.11s-.03-.04-.03-.04l.03-.03h.11m-2.08,.25l.05,.07h.11s.12,.16,.12,.16l-.03,.26h-.06v-.1s-.13,.06-.13,.06l-.12-.16,.03-.26,.03-.03m2.41,.32l.02,.1-.06,.06-.02,.19-.09,.1h-.17l-.02-.04,.07-.12-.05-.13,.16-.16h.16m-1.23,.06l.03,.03-.02,.13-.03,.03h-.11s-.03-.04-.03-.04v-.06s.1-.09,.1-.09h.05m5.1,.06l.05,.06h.05s.07,.09,.07,.09v.06s-.04,.04-.04,.04h-.17l-.07-.1,.02-.13,.08-.03m-1.68,.64l.24,.32h.11s.13,.1,.13,.1l-.06,.06-.02,.13,.05,.06-.15,.03-.09,.09-.04,.39-.09,.09-.12-.16,.07-.13,.03-.32-.07-.1h-.11s-.12-.16-.12-.16l.03-.26,.07-.13,.14-.03m-5.57,.13l.09,.19h.22s.18-.13,.18-.13l.13,.03-.07,.13-.02,.19,.1,.13-.03,.03h-.11s-.12,.13-.12,.13l-.04-.13h-.22l-.06,.06-.05-.06h-.11l-.06,.06-.05-.06-.39-.06-.37,.32-.08-.03-.02-.09h-.11s-.07-.1-.07-.1l.02-.19,.09-.1h.11s.05,.07,.05,.07l.25-.26,.21,.07,.18-.13,.34-.06m3.83,.06l.03,.03v.07s-.1,.09-.1,.09h-.06s-.02-.03-.02-.03v-.13s.04-.03,.04-.03h.11m2.76,.12h.11s.02,.03,.02,.03v.07s-.04,.03-.04,.03h-.06l-.06,.06-.02-.04v-.12s.04-.04,.04-.04m-5.14,.26l.08,.09-.02,.19-.16,.16-.24-.03,.13-.13,.05-.23,.17-.06m.82,.57l.02,.03-.09,.1h-.16l-.03-.04,.04-.09h.22m1.81,.25l.23,.16-.04,.38-.09,.1h-.16s-.23-.23-.23-.23l-.04-.13v-.07s.23-.22,.23-.22h.11m1.56,0h.11s.03,.03,.03,.03l-.02,.19-.03,.03-.04-.06h-.06l-.02-.03v-.13s.04-.03,.04-.03m.88,.06h.06s.02,.03,.02,.03v.06s-.04,.03-.04,.03l-.08-.09,.03-.03m-8.32,.38h.11s.07,.1,.07,.1l-.02,.13-.09,.1h-.11s-.07-.1-.07-.1l.02-.13,.09-.1m7.07,.39l.08,.1v.06s-.1,.1-.1,.1h-.23l-.07-.1v-.07s.1-.09,.1-.09h.22m4.52,.32l.02,.03-.07,.06v.07s-.04,.03-.04,.03h-.06s-.02-.03-.02-.03v-.06s.1-.1,.1-.1h.06m-46.97,.7h.5s.21,.42,.21,.42l.03,.19,.08,.03,.02,.1,.08,.03,.24,.32,.42,.25v.1s.07,.07,.07,.07l.02,.25-.06,.07-.02,.13-.39,.51-.2,.38-.25,.26v.13s-.21,.25-.21,.25l-.02,.19-.12,.06-.04,.1h-.28l-.05-.07h-.39s-.06,.06-.06,.06h-.22l-.1-.07-.28-.28-.08-.25-.54-.64,.04-.39-.17-.51,.03-.26,.06-.06,.1-.45,.14-.26,.04-.09h.06l.12-.13,.23-.06,.25-.26,.23-.06,.06-.06h.22l.05,.07h.11s.06-.07,.06-.07m42.91,.83l.31,.03-.02,.13-.22,.22-.36-.03,.02-.19,.09-.09h.11s.06-.07,.06-.07m-2.29,.64l.02,.03v.07s-.04,.04-.04,.04h-.06s-.03-.03-.03-.03v-.07s.04-.03,.04-.03h.06m-5.08,.19l.21,.13v.1s.17,.13,.17,.13v.07s-.17,.16-.17,.16l-.23,.07-.27-.35,.19-.19v-.07s.09-.03,.09-.03m-3,.06l.02,.04v.07s-.1,.09-.1,.09h-.06l-.02-.03v-.12s.05-.04,.05-.04h.11m12.24,.83l.02,.04v.06s-.07,.06-.07,.06l-.04,.1h-.12s-.02-.03-.02-.03v-.06s.16-.16,.16-.16h.06m-5.7,.32l.07,.1v.07s-.21,.03-.21,.03l-.12-.16,.03-.04h.22m-1,0l.07,.1-.09,.09h-.16l-.08-.1,.04-.1h.22m3.92,2.24l.11,.29v.13s-.16,.03-.16,.03l-.12-.23v-.12s.11-.1,.11-.1h.06m1.15,.58l.07,.09v.07s-.11,.16-.11,.16l-.07-.1,.02-.19,.09-.03m-2.27,11.95h.11s.02,.03,.02,.03v.07s-.1,.09-.1,.09h-.11s-.02-.03-.02-.03v-.06s.1-.1,.1-.1m-34.77,44.54v.16s.25,.26,.25,.26l-.09,.32,.05,.07-.03,.25-.09,.09h-.17s-.22-.22-.22-.22l.02-.19,.13-.19v-.45s.15-.1,.15-.1m-2.26,2.87l.28,.23-.03,.25-.09,.09h-.17s-.1,.1-.1,.1l-.08,.19-.16,.16h-.33s-.11-.23-.11-.23l.03-.32,.16-.16,.59-.32m12.08,1.15h.55s.08,.1,.08,.1l-.09,.25,.1,.13v.38s.16,.2,.16,.2l.22,.51-.02,.13,.12,.38,.13,.32,.41,.54,.21,.13h.06s.07,.16,.07,.16l-.02,.19,.11,.45-.27,.22h-.39l-.17-.16,.02-.13-.21-.58-.23-.23h-.11s-.1-.13-.1-.13h-.11s-.08-.09-.08-.09l.03-.19,.24-.19v-.06s-.33-.45-.33-.45l-.02-.1h-.05l-.24-.32h-.06l-.09-.2-.08-.03v-.13s-.03-.06-.03-.06l.04-.32,.13-.19,.04-.38-.05-.07,.04-.1m-47.66,.45l.05,.06h.22s.21,.13,.21,.13l.17,.29-.03,.25,.08,.26-.02,.13,.1,.13-.05,.39-.06,.06-.02,.19-.07,.06-.1,.38-.21,.16h-.05s-.16,.16-.16,.16v.07s-.16,.16-.16,.16h-.11l-.13,.13-.28,.06-.06,.07h-.06s-.19,.19-.19,.19h-.17s-.21-.13-.21-.13l-.11-.22,.02-.13-.1-.13,.02-.19,.06-.07,.06-.5,.06-.07,.03-.26-.05-.06,.03-.26,.12-.12v-.13s.16-.25,.16-.25l.02-.19,.07-.07v-.06s.16-.16,.16-.16l.17-.06,.19-.19,.12-.06h.27m41.09,1.72l.07,.1v.07s-.1,.09-.1,.09h-.06l-.07-.09v-.06s.1-.1,.1-.1h.06m-46.14,2.81l.31,.26,.33,.07,.05,.06h.39s.07-.06,.07-.06h.11l.1,.13,.17-.06,.05,.06,.31,.19,.06-.06h.11s.12,.15,.12,.15v.1s.09,.03,.09,.03l.07,.32v.13s.16,.22,.16,.22l.26,.13,.07,.1,.06,.44,.28,.45,.02,.32,.05,.06-.02,.19,.08,.32,.19,.32v.13s-.14,.13-.14,.13l-.13,.19-.17,.51-.2,.32-.02,.12-.25,.26v.06s-.65,.54-.65,.54l-.12,.07h-.11s-.06,.06-.06,.06l-.22-.06-.06,.07h-.33l-.05-.07-.39,.06-.06,.07-.33-.07-.51-.32-.06-.16-.15-.13v-.07s-.07-.03-.07-.03l-.09-.13-.16-.06-.07-.1,.02-.13-.08-.03v-.1s-.1-.03-.1-.03l-.29-.38h-.05s-.17-.23-.17-.23l-.03-.19-.4-.45-.04-.12,.13-.64,.06-.06,.02-.19,.13-.19,.02-.13,.14-.26,.13-.13,.23-.57,.26-.38v-.07s.31-.26,.31-.26l.15-.38,.28-.29h.05l.06-.06h.11m53.77,.38l.02,.1-.13,.13v.07s-.04,.03-.04,.03h-.11s-.03-.03-.03-.03v-.07s.23-.22,.23-.22h.06m-.44,.51v.1s-.12,.19-.12,.19l-.02,.13,.08,.03,.06-.06,.12,.16,.04,.13-.02,.19,.05,.07-.04,.32-.19,.19-.11,.45-.06,.06-.03,.25-.06,.06-.03,.26-.2,.1-.19,.19-.42,.25-.39,.06-.07,.07h-.72s-.06,.06-.06,.06h-.17s-.06,.06-.06,.06h-.33s-.05-.06-.05-.06h-.17s-.11-.07-.11-.07l-.06,.07h-.17s-.12,.06-.12,.06l-.07-.1,.02-.13-.16-.13,.1-.32,.15-.16,.23-.07,.24-.19h.11s.18-.13,.18-.13l.05-.16,.28-.29,.09-.03,.04-.1,.18-.13,.55,.06,.18-.13h.17s.19-.19,.19-.19l.09-.03v-.07s.14-.13,.14-.13l-.08-.26,.4-.35,.17-.06,.25-.26h.11m-19.34,2.75h.16s.08,.09,.08,.09v.07s-.04,.04-.04,.04h-.17s-.07-.1-.07-.1l.04-.1m-.13,.7l.07,.1-.03,.03h-.11s-.02-.03-.02-.03v-.07s.04-.03,.04-.03h.06m15.03,0l.2,.13,.26,.41-.22,.39-.02,.19,.05,.07-.04,.32,.05,.07-.04,.32-.19,.19-.14,.26-.02,.26-.07,.06-.02,.19-.06,.06-.06,.58,.04,.06v.13s-.07,.06-.07,.06l-.03,.26,.09,.19,.03,.26,.3,.25v.13s-.35,.29-.35,.29l-.17,.06-.18,.13h-.49l-.05-.06h-.17s-.2-.13-.2-.13l-.38-.06-.21-.13-.84-.16,.16-.16,.34-.06,.06-.07h.17s.12-.13,.12-.13l.17-.06,.16-.16,.08-.19,.09-.03,.04-.1,.4-.35,.15-.09,.36-.77v-.12s.22-.39,.22-.39l.02-.19,.06-.06,.03-.26-.08-.32-.23-.39,.25-.26,.07-.19,.36-.41m-25.69,.06l.07,.09v.13s-.23,.22-.23,.22l-.14-.03,.09-.26,.16-.16h.06m6.76,.06l.2,.13h.11s.07,.1,.07,.1l-.09,.09-.23,.06-.06,.07h-.11s-.07-.09-.07-.09l.02-.19,.16-.16m6.11,.89l.03,.03v.07s-.04,.03-.04,.03h-.11s-.02-.03-.02-.03v-.07s.04-.03,.04-.03h.11m-13.16,2.11h.22s.14,.26,.14,.26h.17s.12,.1,.12,.1l.02,.32-.09,.1h-.28l-.37-.19h-.17s-.07-.1-.07-.1l.04-.32,.09-.1h.11s.06-.06,.06-.06m11.84,1.22l.14,.19h.06s.07,.09,.07,.09l-.04,.32,.05,.06v.13s-.1,.03-.1,.03l-.09-.13h-.06s-.2-.19-.2-.19l-.13,.13h-.17s-.21-.35-.21-.35v-.07s.04-.03,.04-.03h.06l.12-.13h.11s.06-.06,.06-.06h.28m10.36,1.09l.08,.03v.07s-.71,.77-.71,.77l-.1,.16-.17,.06-.6,.45-.29,.13h-.33l-.22-.22,.31-.03,.27-.23,.21-.38,.02-.19,.09-.09h.11s.15,.13,.15,.13l.36-.26,.41-.13,.41-.25m-9.09,.45l.03,.03v.07s-.04,.03-.04,.03h-.11s-.02-.03-.02-.03l.09-.09h.05m6.74,2.23h.11s.21,.13,.21,.13l.02,.1,.2,.19-.09,.1-.15-.2-.2-.13-.19-.03,.1-.16m.7,.7l.07,.16,.41,.54,.11,.06h.22s.07,.1,.07,.1l-.06,.58-.57,.58v.07s-.19,.19-.19,.19l-.08,.19-.32,.38-.07,.19-.16,.16h-.17s-.2-.19-.2-.19h-.17s-.12-.16-.12-.16l.08-.25,.16-.16h.06l.34-.35v-.06s.21-.32,.21-.32l.08-.71,.06-.06,.04-.39,.07-.06,.04-.38,.09-.1m-3.22,.06h.05s.03,.03,.03,.03v.07s-.04,.03-.04,.03h-.06l-.03-.03v-.06s.04-.03,.04-.03m-1.41,.19l.08,.09-.15,.1h-.11s-.02-.03-.02-.03v-.07s.1-.09,.1-.09h.11m-18.78,1.85h.17s.07,.1,.07,.1l-.04,.1h-.11s-.06,.06-.06,.06h-.11s-.08-.09-.08-.09v-.06s.16-.1,.16-.1m22.01,1.02l.08,.1v.07s-.11,.09-.11,.09l-.07-.09v-.07s.1-.1,.1-.1m-18.54,1.15l.12,.16-.03,.03h-.05s-.12-.16-.12-.16l.03-.03h.06m-.55,.38l.13,.16-.03,.26,.04,.13-.31,.32-.11,.29-.27-.06-.11-.22,.02-.26,.28-.29,.09-.03,.11-.23,.17-.06m-5.94,.06l.12,.16v.07s-.13,.12-.13,.12l-.15,.32-.09,.1h-.11l-.07-.1,.02-.13,.21-.38,.15-.16h.06m6.89,.38l.02,.03v.07s-.04,.03-.04,.03h-.06s-.02-.03-.02-.03v-.06s.03-.04,.03-.04h.06m15.58,.58h.06s.02,.03,.02,.03v.06s-.1,.1-.1,.1h-.06s-.02-.03-.02-.03v-.06s.1-.1,.1-.1m-16.2,.06l.02,.03v.07s-.1,.09-.1,.09h-.11s-.03-.03-.03-.03l.16-.16h.06m-2.73,.13l.13,.03-.09,.32-.09,.1h-.28s-.13-.16-.13-.16l.1-.16h.23s.13-.13,.13-.13m18.57,.06l.14,.03-.04,.09-.35,.19-.07-.1,.09-.1h.11s.13-.13,.13-.13m-.76,.32l.03,.03-.16,.16-.4,.13-.06,.06-.36-.03,.16-.16,.28-.06,.24-.13h.28m-16.63,0l.07,.09-.02,.19-.07,.13-.09,.09-.19-.03,.03-.26,.07-.13,.09-.09h.11m15.15,.38l.25,.03-.04,.1-.12,.06h-.11s-.18-.1-.18-.1l.2-.1m-16.04,.64v.16s-.15,.23-.15,.23l-.03-.03,.03-.26,.1-.09h.05m-3.64,1.28l.03,.03-.02,.13-.03,.03h-.11s-.03-.03-.03-.03l.02-.13,.03-.03h.11m1.15,1.14h.16s.14,.25,.14,.25l.22,.06,.07,.1-.05,.45-.09,.09h-.11s-.04-.06-.04-.06h-.12s-.04-.06-.04-.06h-.22l-.21-.13-.1-.13-.14-.03,.53-.54m2.89,.9v.16s-.06,.13-.06,.13l-.1,.09h-.05s-.07-.09-.07-.09l.07-.19,.1-.09h.11m-3.05,0l.13,.16-.02,.13-.08,.04-.04-.07h-.06l-.07-.1,.04-.16h.11m21.12,0l.07,.09v.06s-.1,.1-.1,.1h-.11s-.03-.03-.03-.03l.02-.13,.09-.09h.05m-15.63,.95h.33s.11,.29,.11,.29l-.02,.25-.1,.1h-.17s-.07-.16-.07-.16l-.13-.1h-.11s-.07-.09-.07-.09v-.12s.23-.16,.23-.16m-1.8,.77l.02,.03-.04,.1h-.17s-.02-.04-.02-.04l.1-.09h.11m3.25,1.66l.07,.09-.09,.1h-.06s-.07-.1-.07-.1l.04-.09h.11m3.3,.19l.05,.07h.28s.05,.06,.05,.06h.1s.02,.1,.02,.1l-.14,.09h-.17s-.04-.06-.04-.06l-.22-.06-.13-.16,.2-.03m-12.28,3.77l.08,.04v.12s-.1,.03-.1,.03l-.07-.1,.09-.1m5.24,.26l.08,.03-.04,.09h-.11s-.03-.03-.03-.03l.1-.09m-5.61,9h.16s.11,.23,.11,.23l-.04,.38-.07,.07-.08,.32-.2,.32-.02,.13,.15,.2v.06s-.22,.1-.22,.1l-.16,.15v.13s.04,.07,.04,.07l-.1,.38-.16,.15h-.33s-.05-.06-.05-.06h-.16s-.19-.32-.19-.32l-.16-.06-.11-.13-.4-.31h-.17s-.21-.36-.21-.36l.17-.29,.08-.03v-.12s.08-.07,.08-.07l.03-.25,.1-.1,.21,.13h.11s.07-.06,.07-.06l.28-.07,.06-.07h.34s.1,.07,.1,.07l.09-.1,.1-.16,.21,.06,.33-.39m6.38,1.92l.02,.03-.04,.09-.08-.03,.1-.09m2.42,.64v.1s-.07,.04-.07,.04l-.07-.1,.15-.03m.75,.7h.17s.05,.07,.05,.07l.06-.06h.23s.07,.09,.07,.09l-.1,.16h-.16s-.11-.06-.11-.06l-.07,.07h-.11s-.12-.16-.12-.16l.09-.1m-11.81,.07l.27,.29v.12s.04,.07,.04,.07l-.1,.55h-.11s-.18-.16-.18-.16l.02-.19-.05-.07,.09-.26-.2-.19,.11-.16h.11m8,.83l.03,.03v.07s-.04,.03-.04,.03h-.05l-.03-.03,.09-.09m3.41,.48l-.09,.09-.03-.03v-.06h.12m6.63,.47l.08,.03-.04,.1h-.11s-.02-.03-.02-.03l.1-.1m.59,.71l.11,.16,.02,.32-.09,.1-.13-.1-.13-.32,.1-.16h.11m-59.19,.51l.16,.29v.06s-.1,.1-.1,.1h-.11l-.16-.29v-.07s.1-.09,.1-.09h.11m46.21,.57l.38,.06,.19,.38h.11l.07,.1,.03,.25-.1,.1h-.21s-.21-.41-.21-.41l-.08-.03-.06,.07h-.12s-.15-.36-.15-.36l.15-.16m13.15,.32l.09,.03-.04,.09h-.11s-.03-.03-.03-.03l.09-.09m-7.57,.82l.08,.03-.09,.1-.03-.03,.04-.1m7.35,.13l.08,.03-.03,.32-.08,.19-.28,.29-.12,.07-.14-.03,.15-.26,.15-.09,.18-.42,.09-.09m-.75,3.77l.02,.1-.07,.07-.09,.32-.17,.23-.4,.13-.06,.07-.2,.02v-.12s.11-.1,.11-.1l.28-.12,.11-.23,.28-.29,.17-.06m-16.35,4.98h.22s.12,.16,.12,.16l-.03,.19-.09,.09h-.22s-.12-.16-.12-.16l.03-.19,.09-.1m-.17,1.54v.09s-.09,0-.09,0v-.07s.09-.02,.09-.02m-1.59,.32l.08,.03-.04,.09h-.11s-.02-.03-.02-.03l.09-.09m1.48,.12l.02,.1h-.11v-.07s.09-.04,.09-.04m1.64,1.22l.21,.29-.02,.19-.1,.1h-.05s-.2-.42-.2-.42l.1-.16h.06m-43.58,2.75l.05,.07h.11s.05,.06,.05,.06l.43,.06,.17,.16,.08,.26-.1,.09h-.33l-.36-.19-.31-.48,.2-.03m-1.17,.57l.07,.16,.09,.19-.02,.12-.27,.45v.13s-.11,.1-.11,.1l-.21-.35,.03-.26,.21-.39,.16-.16h.05m22.87,37.12l.07,.1-.02,.19-.09,.03-.07-.09v-.13s.11-.1,.11-.1m-16.79,1.59l.07,.1,.02,.26-.31,.32-.17,.28-.08-.03,.07-.13,.02-.19-.09-.19v-.13s.17-.22,.17-.22l.12-.06h.16m-4.63,.83l.11,.22-.02,.19-.21,.38v.07s-.88,.89-.88,.89v.07s-.21,.38-.21,.38l-.13,.64-.06,.06-.06,.52,.05,.06-.03,.26,.05,.07,.16,.51,.22,.29,.31,.19h.28s.05,.07,.05,.07l.55,.06,.05,.07h.22s.27,.13,.27,.13h.16s.05,.07,.05,.07h.78l.06-.07h.23s.06-.06,.06-.06h.28s.06-.06,.06-.06h.27l.05,.06h.11s.38-.38,.38-.38l.42-.26h.22s.03-.03,.03-.03l-.05-.07v-.13s.23-.22,.23-.22l.12-.07h.44s.31,.19,.31,.19l.4,.61v.06s.17,.16,.17,.16l.21,.13h.17s.15,.13,.15,.13l.53,.25h.11l.04,.06h.11l.05,.06,.38,.07,.1,.13,.16,.06,.19,.26,.22,.06,.24,.32,.22,.07,.05,.06h.61s.06-.06,.06-.06h.16s.06-.06,.06-.06h.22s.26,.19,.26,.19h.11l.18-.13,.17-.07,.57-.57h.11s.07,.09,.07,.09l-.09,.77-.23,.29-.35,.19-.51,.07v-.16s-.14-.03-.14-.03l-.32,.38-.12,.06h-.17s-.05-.07-.05-.07h-.16s-.05-.06-.05-.06h-.44s-.18,.13-.18,.13l-.23,.06-.14-.19-.2-.13h-.28l-.05-.07h-.22s-.05-.06-.05-.06h-.39l-.21-.12-.07-.16-.18-.16h-.16s-.13,.13-.13,.13h-.06l-.12,.13h-.17s-.06,.06-.06,.06h-.11l-.18,.13h-.17s-.29,.12-.29,.12l-.31,.32h-.05l-.29,.35-.27,.45-.09,.03-.1,.16-.02,.19,.07,.1,.27,.06,.2,.19,.44,.06,.2,.19,.37,.19h.11s.24-.13,.24-.13l.15-.16,.02-.13-.25-.26,.09-.1h.06s.33-.29,.33-.29l.15-.39,.16-.22h.22s.07,.09,.07,.09l.03,.26,.27,.29,.1,.06h.16s.05,.06,.05,.06h.17s.07-.06,.07-.06h.22s.12-.06,.12-.06l.28-.29v-.06s.22-.16,.22-.16h.06l.09,.19h.11s.3-.19,.3-.19h.16s.14,.26,.14,.26l.42,.13,.05,.07h.23s.04,.06,.04,.06h.11s.42,.26,.42,.26l.27,.06,.06,.16-.15,.09h-.11s-.19,.19-.19,.19l-.3,.19h-.22s-.06,.07-.06,.07h-.11s-.06,.06-.06,.06h-.17s-.1-.13-.1-.13h-.11s-.23,.13-.23,.13h-.17s-.06,.06-.06,.06l-.15,.09-.15,.38,.21,.42,.21,.13h.17s.3-.2,.3-.2l.25,.2,.23-.13,.1-.1-.05-.07,.07-.13-.14-.19v-.06s.09-.03,.09-.03l.05,.06,.16,.06,.07-.06h.11l.29,.32,.22-.07,.16-.16,.03-.26-.15-.19,.09-.1h.11s.16,.13,.16,.13h.16s.39-.28,.39-.28v-.13s.11-.09,.11-.09h.11s.29-.35,.29-.35l.02-.19,.06-.06,.03-.26-.04-.07-.03-.25-.12-.16-.34,.07-.08-.1,.02-.13,.19-.19,.14-.25,.1-.38,.06-.07,.03-.26,.06-.06,.03-.26,.06-.07,.03-.26,.07-.06,.02-.19,.1-.16h.17s.23-.13,.23-.13h.11s.06-.06,.06-.06h.33l.06-.06h.22s.18-.13,.18-.13l.46-.13,.18-.12h.28s.57,.32,.57,.32h.22s.06-.07,.06-.07h.22s.63,.32,.63,.32h.11s.1,.13,.1,.13h.11l.05,.06h.17s.15,.13,.15,.13h.17s.04,.13,.04,.13l.27,.06,.13,.26,.16,.06,.07,.09,.32,.64v.13s-.15,.19-.15,.19l-.08,.19-.22,.22h-.05s-.32,.39-.32,.39h-.06l-.12,.13h-.11s-.47,.25-.47,.25h-.11s-.18,.13-.18,.13h-.17s-.24,.13-.24,.13h-.17s-.06,.06-.06,.06l-.39,.06-.07,.06h-.22s-.12,.07-.12,.07l-.22,.22-.2,.32-.22,.51-.41,.48h-.06s-.16,.16-.16,.16v.07s-.13,.12-.13,.12l-.02,.13-.15,.16h-.12s-.22,.23-.22,.23v.13s-.08,.06-.08,.06l-.11,.52-.13,.19-.04,.26,.1,.13,.08,.32,.1,.13,.08,.25-.02,.19-.07,.06-.05,.9-.07,.06-.08,.26-.12,.06-.02,.13-.12,.13-.02,.13-.08,.03-.2,.26-.24,.13-.55,.45-.17,.06-.13,.13-.28,.07-.06,.06h-.44s-.05-.06-.05-.06l-.27-.06-.05-.07h-.11s-.04-.06-.04-.06h-.11s-.04-.06-.04-.06l-.38-.13-.15-.13h-.11s-.21-.13-.21-.13h-.16s-.21-.13-.21-.13l-.27-.06-.05-.07h-.11s-.05-.06-.05-.06h-.05s-.14-.2-.14-.2l-.47-.25-.07-.1,.03-.26-.05-.06-.03-.19-.25-.26-.04-.13,.03-.26-.15-.13v-.07s-.1-.06-.1-.06l-.08-.7-.23-.23h-.11l-.1-.13-.15-.06-.04-.13-.42-.25-.1-.13-.51-.39-.1-.13h-.17s-.05-.06-.05-.06h-.22s-.04-.06-.04-.06h-.28s-.2-.19-.2-.19l-.86-.26-.04-.06-.78,.06-.06,.07h-.5s-.19-.19-.19-.19h-.06l-.18-.32-.21-.12-.17-.23v-.06s-.15-.13-.15-.13v-.1s-.12-.06-.12-.06h-.28s-.21-.13-.21-.13l-.1-.13-.16-.06-.11-.22-.18-.1-.48-.64-.1-.07h-.17s-.2-.19-.2-.19h-.11s-.05-.06-.05-.06l-.27-.06-.05-.07h-.28s-.22-.22-.22-.22v-.13s-.07-.25-.07-.25l-.05-.51-.05-.07,.02-.19-.04-.06,.02-.19-.13-.32,.08-.32-.14-.2v-.13s.08-.06,.08-.06l.06-.51-.04-.06,.04-.32-.05-.07,.03-.26-.05-.06,.04-.32-.05-.07,.02-.64-.05-.06,.03-.25,.14-.26,.34-.35h.06s.31-.32,.31-.32h.05l.4-.42v-.06s.57-.58,.57-.58l.27-.38,.34-.35h.17m1.81,.19l.02,.03v.07s-.1,.1-.1,.1h-.06l-.07-.1,.09-.1h.11m19.25,.06l.07,.1v.06s-.1,.1-.1,.1h-.11s-.07-.09-.07-.09v-.07s.1-.09,.1-.09h.11m-16.91,.77l.02,.03-.15,.16-.03-.03v-.07s.1-.09,.1-.09h.06m15.35,1.28l.03,.03-.16,.16h-.05l-.03-.03,.16-.16h.05m-7.15,.06l.18,.16-.14,.03-.17-.16,.14-.03m-7.64,.06l.08,.03-.02,.13-.09,.1h-.06l-.04-.07h-.05s-.02-.03-.02-.03l.21-.16m9.62,.06l.07,.1v.13s-.11,.1-.11,.1l-.3,.19-.13-.03,.36-.26-.13-.09-.07-.1,.03-.03h.28m-4.29,.26h.17s.02,.03,.02,.03v.06s-.03,.03-.03,.03h-.11l-.07-.1,.03-.03m7.51,.19l.05,.07,.13,.03h-.5s.09-.1,.09-.1h.22m-.83,0l.13,.1-.21,.1-.13-.1,.21-.1m1.93,0l.19,.03v.06s-.1,.1-.1,.1l-.24-.09,.15-.1m-3.31,0v.1s-.19,.03-.19,.03l-.04-.07-.13-.03,.37-.03m-3.68,.7h.11s.02,.03,.02,.03v.06s-.1,.1-.1,.1l-.04-.06-.08-.03,.09-.1m10.81,.32l.12,.16-.08,.76-.23,.29h-.11l-.1-.06-.31-.48,.02-.19,.22-.22,.47-.26m-12.04,.25l.07,.1v.06s-.03,.03-.03,.03h-.12l-.03-.03,.02-.13,.03-.03h.05m-.45,1.02l.07,.1-.09,.1h-.11s-.03-.03-.03-.03v-.13s.04-.03,.04-.03h.11m.82,.06l.02,.04-.03,.03h-.11s-.03-.03-.03-.03l.03-.03h.11m.09,.19l.03,.03v.07s-.04,.03-.04,.03h-.05s-.02-.03-.02-.03v-.06s.04-.03,.04-.03h.06m-1.41,2.23l.07,.1v.07s-.04,.03-.04,.03h-.11l-.07-.1v-.06s.03-.03,.03-.03h.11m-4.35,.25h.06s.07,.1,.07,.1l-.06,.51-.08,.03-.07-.1v-.13s-.03-.06-.03-.06l.03-.26,.09-.1m6.31,.96l.04,.06h.06l.02,.04-.03,.03h-.17s-.02-.03-.02-.03l.09-.1m-2.69,1.28l.07,.1v.06s-.04,.03-.04,.03h-.05l-.07-.1,.09-.09m15.88,6.9h.27s.07,.1,.07,.1l-.06,.51,.08,.26-.19,.19-.14,.25-.03,.26,.08,.25-.12,.58,.26,.64,.08,.26v.13s.03,.06,.03,.06l-.05,.45-.06,.07-.04,.32,.04,.13,.18,.38-.07,.64,.04,.07-.02,.19,.05,.07-.04,.38-.06,.06-.04,.32-.06,.06-.03,.26-.14,.26v.13s-.08,.07-.08,.07l-.02,.19,.05,.07-.03,.25,.04,.07-.04,.38,.09,.19v.45s.05,.06,.05,.06l-.11,.51-.07,.06-.05,.45-.06,.06-.11,.96,.04,.06-.05,.45,.08,.25-.09,.77-.13,.19-.1,.38-.22,.29h-.17s-.15-.13-.15-.13h-.17s-.05-.06-.05-.06h-.17s-.1-.07-.1-.07l-.11-.29-.29-.39v-.06s-.21-.29-.21-.29l-.16-.06-.12-.16v-.13s-.2-.28-.2-.28l-.27-.07-.52-.32h-.05s-.12-.16-.12-.16v-.07s-.13-.19-.13-.19v-.06s-.32-.51-.32-.51l-.16-.35-.41-.25-.11-.22,.12-1.09-.05-.06,.1-.9,.06-.06,.03-.25,.08-.19,.2-.26v-.13s.15-.19,.15-.19l.02-.19,.06-.13,.25-.25v-.13s.15-.25,.15-.25l.03-.26,.13-.13,.02-.19,.13-.2v-.06s.17-.16,.17-.16l.4-.13,.16-.23,.02-.12,.22-.23h.06s.1-.09,.1-.09l.16-.45,.39-.45,.04-.32,.14-.25v-.13s.22-.32,.22-.32v-.12s.25-.2,.25-.2l.15-.32,.32-.38,.1-.16,.17-.06,.2-.26m-4.22,14.18l.07,.1-.02,.19-.09,.09h-.11l-.07-.09v-.13s.17-.16,.17-.16h.05m-90.97,65.68h.28s.14,.26,.14,.26l.23-.13h.17s.12,.16,.12,.16l.11,.29h.17l.12,.16v.12s-.18,.23-.18,.23h-.22s-.2-.13-.2-.13l-.17,.29-.1,.16h-.16l-.12-.16,.03-.19-.11-.29-.18,.13h-.11l-.07-.1,.04-.32,.14-.26v-.12s.11-.1,.11-.1m.84,1.35l.03,.03v.07s-.11,.09-.11,.09h-.05l-.07-.09,.09-.1h.11M344.01,4c-.05,0-.11,0-.16,0h-.07c-.39,0-.77,.04-1.15,.11-.5,.06-1,.19-1.47,.38-.23,.07-.45,.16-.67,.26-.14,.05-.28,.11-.42,.17-.13,.05-.26,.11-.38,.16-.56,.21-1.08,.5-1.55,.86-.18,.12-.35,.25-.52,.39l-.58,.48c-.61,.51-1.12,1.13-1.49,1.84l-.13,.26c-.16,.3-.29,.61-.39,.93-.02,.04-.03,.08-.05,.12-.1,.2-.18,.4-.26,.61-.21,.52-.34,1.08-.39,1.65l-.02,.26c-.03,.34-.03,.69,0,1.03,.01,.83,.2,1.65,.55,2.41l.23,.51c.16,.35,.36,.69,.59,1.01,.11,.19,.24,.38,.38,.56l.17,.22c.2,.27,.43,.52,.67,.75l.4,.46c.38,.44,.83,.83,1.33,1.14l.11,.07c.47,.3,.97,.52,1.5,.68,.69,.28,1.44,.43,2.19,.44h.28s.04,0,.06,0c.5,0,.99-.06,1.46-.18,.52-.1,1.03-.28,1.5-.51,.4-.12,.79-.28,1.16-.48l.24-.13c.57-.31,1.09-.71,1.53-1.18,.38-.31,.72-.67,1.01-1.06,.29-.34,.54-.71,.75-1.1,.36-.56,.62-1.16,.78-1.79,.01-.04,.02-.08,.04-.12,.16-.44,.28-.89,.34-1.36,.07-.27,.11-.55,.14-.84l.07-.7c.07-.74,0-1.47-.2-2.17-.12-.53-.3-1.03-.55-1.51-.26-.59-.61-1.13-1.04-1.61l-.43-.48c-.15-.16-.3-.31-.46-.45-.31-.3-.65-.57-1.02-.8l-.21-.13c-.24-.15-.49-.28-.75-.4-.1-.05-.2-.1-.3-.14-.76-.38-1.6-.59-2.46-.62h-.11c-.06,0-.13,0-.19,0h0Zm126.05,21.29s-.05,0-.07,0h-.17c-1.56,.02-3.04,.64-4.15,1.74l-.16,.16c-1,.99-1.62,2.3-1.75,3.7l-.05,.52s0,.06,0,.09c-.06,.46-.07,.92-.02,1.37,.01,.3,.05,.6,.11,.89-.15,.12-.3,.25-.45,.38-.84,.3-1.62,.79-2.27,1.47l-.09,.1c-.96,.99-1.56,2.29-1.67,3.67l-.02,.19c-.08,.98,.07,1.96,.46,2.86l.06,.14c.21,1.29,.83,2.46,1.74,3.35,.04,.04,.07,.08,.11,.12l.27,.29c.53,.57,1.17,1.02,1.86,1.34,.88,.48,1.87,.74,2.89,.74,.02,0,.05,0,.07,0h.17c1.12-.02,2.22-.34,3.17-.95l.3-.19c.37-.24,.72-.52,1.03-.83l.28-.29c.26-.26,.5-.55,.7-.86,.12-.14,.24-.28,.34-.43,.14-.12,.27-.24,.39-.37l.22-.23c.28-.28,.52-.59,.74-.92l.33-.51c.27-.42,.49-.87,.65-1.35,.22-.53,.36-1.09,.43-1.66l.03-.26c.09-.84,0-1.69-.26-2.49-.01-.06-.03-.11-.04-.17,.11-.13,.21-.26,.31-.4l.16-.22c.61-.85,.99-1.85,1.1-2.9l.05-.45c.09-.86-.01-1.72-.29-2.54l-.04-.12c-.18-.52-.42-1.01-.73-1.46l-.37-.54c-.24-.35-.51-.67-.81-.95l-.4-.39c-1.12-1.06-2.6-1.65-4.13-1.65h0Zm-57.52,166.36s-.09,0-.13,0h-.22c-.95,.03-1.87,.27-2.7,.71-.74,.28-1.42,.71-2,1.26l-.1,.09c-.46,.44-.85,.94-1.15,1.5l-.14,.26c-.38,.7-.61,1.47-.69,2.26l-.02,.26c-.09,.92,.03,1.84,.36,2.7l.22,.58c.34,.9,.89,1.7,1.6,2.34l.18,.16c.58,.52,1.24,.92,1.96,1.18,.75,.32,1.56,.49,2.37,.49s1.67-.17,2.46-.53l.21-.09c1.4-.63,2.51-1.78,3.09-3.19,.04-.06,.07-.12,.1-.18l.07-.13c.4-.71,.65-1.5,.73-2.31l.03-.25c.11-1.06-.07-2.13-.5-3.09-.19-.51-.46-.98-.78-1.42l-.12-.16c-1.13-1.53-2.92-2.43-4.82-2.43h0Zm7.95,11.38c-.74,0-1.47,.14-2.15,.4-.86,.3-1.66,.8-2.31,1.47l-.16,.16c-.66,.67-1.15,1.49-1.43,2.38l-.08,.26c-.5,1.59-.32,3.31,.5,4.77,.82,1.45,2.21,2.49,3.83,2.88l.13,.03c.46,.11,.93,.17,1.4,.17,.74,0,1.46-.14,2.15-.4,.85-.29,1.62-.78,2.27-1.42l.16-.16c.67-.67,1.17-1.48,1.46-2.38l.08-.26c.52-1.59,.35-3.31-.45-4.77-.81-1.46-2.19-2.52-3.81-2.92l-.14-.03c-.48-.12-.96-.18-1.44-.18h0Zm10.19,31.44s-.1,0-.15,0h-.11c-.91,.03-1.79,.25-2.59,.66-2.25,.21-4.21,1.67-5.04,3.81l-.02,.06c-.1,.04-.19,.09-.28,.13-.45,.15-.88,.36-1.28,.61-.7,.39-1.31,.92-1.8,1.55-.49,.49-.89,1.05-1.18,1.67-1.04,.26-2,.8-2.77,1.57l-.09,.09c-.35,.35-.65,.74-.9,1.16-.08,.09-.15,.17-.22,.26-.77,.63-1.37,1.44-1.75,2.38l-.04,.09s-.01,.04-.02,.05c-.47,.76-.78,1.62-.88,2.5v.13c-.13,1.05,.03,2.1,.44,3.06-.06,.06-.12,.11-.18,.17-.97,.97-1.61,2.28-1.76,3.64v.12c-.17,1.47,.22,2.94,1.09,4.14,1.13,1.56,2.96,2.53,4.89,2.53h.06c.28,0,.55-.02,.82-.06,.52,.21,1.06,.35,1.62,.41,.66,.38,1.38,.63,2.14,.74,.82,1.17,2.02,1.99,3.37,2.35,.21,.11,.42,.2,.64,.28h-.04s-.08,0-.12,0c-1.62,0-3.17,.66-4.3,1.82l-.09,.1c-.95,.97-1.53,2.24-1.67,3.59v.06c-.13,1.27,.15,2.54,.8,3.64,1.08,1.83,3.07,2.98,5.19,2.98,.04,0,.07,0,.11,0h.11c1.56-.03,3.05-.67,4.15-1.77l.09-.09c.99-1,1.6-2.32,1.72-3.73v-.07c.13-1.55-.34-3.08-1.32-4.28-.69-.85-1.61-1.5-2.63-1.88,.02,0,.05,0,.07,0,.07,0,.15,0,.22,0,1.98-.07,3.8-1.12,4.86-2.79l.1-.16c.42-.67,.71-1.42,.84-2.2,.29-.32,.55-.67,.77-1.05,.3-.49,.53-1.02,.69-1.58,.21-.17,.42-.35,.61-.54,.32-.33,.61-.7,.85-1.09,.74-1.14,1.06-2.49,.94-3.8,.06-.06,.13-.12,.19-.18l.1-.09c.72-.71,1.25-1.58,1.54-2.52,.06-.14,.12-.29,.17-.44,.1-.2,.19-.41,.27-.62,.25-.57,.42-1.18,.49-1.8v-.09c.1-.16,.18-.32,.26-.49,.4-.57,.7-1.2,.88-1.88,.32-.78,.48-1.63,.45-2.48,.04-.81-.08-1.62-.36-2.38-.02-.07-.05-.14-.07-.21-.14-.51-.36-1-.64-1.47-.03-.09-.07-.19-.1-.28-.12-1.05-.52-2.05-1.16-2.9l-.07-.09c-.05-.07-.1-.14-.16-.2-.27-.38-.58-.73-.94-1.05l-.33-.29c-1.1-.97-2.51-1.5-3.97-1.5-.02,0-.05,0-.07,0h-.17c-.09,0-.18,0-.26,.01-.62-.22-1.29-.33-1.96-.33h0Zm-47.05,16.49c-.06,0-.11,0-.17,0-.02,0-.04,0-.05,0h-.22c-.87,0-1.72,.19-2.5,.55-.5,.2-.97,.46-1.4,.78-.13,.08-.26,.16-.38,.25-.9,.6-1.64,1.44-2.11,2.46-.22,.4-.39,.82-.52,1.26-.18,.47-.3,.97-.36,1.48l-.03,.26c-.07,.65-.03,1.3,.1,1.93,.08,1.27,.57,2.49,1.4,3.48,.25,.44,.56,.85,.91,1.21l.28,.28c.31,.31,.65,.59,1.01,.83l.1,.07c.98,.64,2.12,.98,3.28,.98h.22c.08,0,.15,0,.23,0,.09,0,.18,0,.28,0h.28c1.66,0,3.21-.68,4.31-1.83,.53-.51,.96-1.1,1.27-1.76,.11-.17,.22-.34,.32-.52l.1-.13c.36-.47,.65-1,.86-1.55,.37-.9,.52-1.88,.42-2.87l-.02-.25c-.06-.61-.21-1.19-.44-1.75-.33-.84-.84-1.6-1.5-2.21-1.07-1.82-3.02-2.95-5.15-2.96h-.5s-.02,0-.02,0h0Zm6.12,62.18c-1.13,0-2.25,.32-3.23,.94l-.15,.1c-1.1,.7-1.92,1.72-2.37,2.9-.51,.28-.98,.64-1.39,1.05l-.16,.16c-.95,.97-1.55,2.23-1.69,3.59l-.03,.32c-.12,1.16,.1,2.33,.63,3.36l.11,.22s.01,.02,.02,.03c-.14-.01-.27-.02-.41-.02h-.16s-.05,0-.08,0c-1.14,0-2.22,.32-3.15,.89-.29-.04-.58-.06-.87-.06-1.17,0-2.34,.34-3.34,1.01-.99-.69-2.19-1.07-3.43-1.07h-.06c-1.59,0-3.12,.63-4.24,1.76l-.16,.16c-.65,.65-1.14,1.44-1.44,2.3l-.09,.26c-.31,.92-.4,1.89-.26,2.82-.14,.41-.23,.83-.28,1.26l-.04,.32c-.11,.96,.02,1.92,.36,2.81-.07,.04-.14,.09-.21,.13l-.15,.1c-.8,.52-1.45,1.21-1.92,2.01-.77,.31-1.47,.79-2.06,1.4l-.15,.16c-.37,.39-.69,.83-.95,1.3l-.21,.38c-.34,.63-.57,1.32-.67,2.04l-.02,.13c-.15,1.12,.01,2.25,.47,3.27v.1c-.21,1.49,.17,2.99,1.02,4.21,.09,.26,.19,.51,.31,.75,.03,.08,.06,.16,.1,.24-.24,.18-.47,.39-.69,.61l-.09,.1c-2.05,2.11-2.27,5.39-.52,7.75l.07,.1c.13,.17,.26,.34,.4,.49-.8,.31-1.54,.8-2.16,1.45l-.1,.1c-.54,.57-.96,1.23-1.24,1.95-.63,1.11-.87,2.38-.74,3.61-.23,.99-.21,2.02,.06,2.99,.21,1.38,.9,2.67,1.98,3.61l.18,.16c1.01,.88,2.28,1.4,3.61,1.48h.11c.11,.01,.23,.02,.34,.02,.06,0,.12,0,.19,0,.12,.22,.25,.42,.4,.62-1.42,.16-2.74,.82-3.73,1.88l-.09,.1c-.26,.28-.5,.59-.7,.92-.29,.2-.56,.43-.82,.68l-.09,.09c-1.98,1.98-2.33,5.07-.83,7.45,.89,1.41,2.33,2.39,3.94,2.71,1.12,1.2,2.7,1.91,4.39,1.91,.08,0,.15,0,.23,0h.05c1.52-.06,2.97-.7,4.04-1.78l.1-.1c.95-.96,1.54-2.21,1.69-3.55l.02-.19c.17-1.5-.24-3-1.13-4.22l-.08-.1c-.06-1.06-.4-2.09-.99-2.98,.53-.04,1.04-.16,1.53-.33,.81,.44,1.72,.69,2.66,.72,.25,1.14,.83,2.19,1.68,3.02,1.13,1.09,2.63,1.69,4.17,1.69,.25,0,.5-.02,.75-.05l.2-.02c.62-.08,1.22-.25,1.78-.51,1.11-.41,2.08-1.13,2.78-2.09l.17-.23c.33-.46,.6-.96,.79-1.49,.4-.91,.58-1.9,.5-2.91,.1-.19,.19-.38,.28-.58l.08-.19c.22-.53,.36-1.1,.42-1.67v-.07c.31-.97,.36-1.99,.17-2.98,0-.06,0-.13-.01-.19l-.02-.32c-.08-1.11-.46-2.18-1.11-3.09l-.11-.16c-.11-.15-.23-.3-.35-.45-.63-.97-1.55-1.77-2.69-2.25l-.08-.03c-.75-.32-1.55-.47-2.33-.47-.43,0-.85,.05-1.26,.13-.6-.67-1.34-1.19-2.16-1.53-.03-.02-.06-.05-.1-.07-.95-.67-2.07-1.04-3.21-1.09-.15-.08-.31-.15-.47-.21,1.08-.61,1.97-1.55,2.51-2.72l.04-.09c.07-.15,.13-.3,.19-.45,.49,.13,1,.2,1.52,.2,.02,0,.05,0,.07,0h.17c1.1-.02,2.17-.33,3.1-.91l.14-.09c1.59-.99,2.59-2.64,2.79-4.44,0,0,0,0,0,0,1.03,1.03,2.43,1.68,3.89,1.77h.11c.13,.02,.26,.02,.38,.02,1.68,0,3.29-.71,4.43-1.96l.09-.1c.85-.93,1.39-2.12,1.53-3.37v-.06c.11-.88,0-1.77-.27-2.6,.79-.31,1.51-.79,2.11-1.41l.16-.16c.31-.32,.58-.68,.81-1.06,.1-.13,.2-.27,.29-.41l.09-.09c.93-.95,1.53-2.18,1.68-3.5,.35-.12,.68-.28,1-.46,.46-.23,.89-.51,1.28-.85l.34-.29c1.16-1,1.89-2.4,2.04-3.93v-.13c.03-.12,.03-.24,.04-.35,.13-.07,.25-.13,.37-.21l.42-.25c.22-.13,.44-.28,.64-.45,1.22-.83,2.1-2.08,2.46-3.51,0-.01,0-.03,.01-.04,.31-.62,.52-1.29,.6-1.98l.03-.21c1.11-1.37,1.56-3.18,1.21-4.94-.05-.58-.19-1.16-.41-1.7l-.07-.16c-.23-.58-.55-1.11-.93-1.57-.15-1.04-.57-2.05-1.25-2.9l-.08-.1c-1.13-1.42-2.85-2.25-4.66-2.26h-.55s-.02,0-.03,0c-1.36,0-2.64,.46-3.67,1.25-.15-.77-.45-1.51-.89-2.18-.57-1.03-1.44-1.89-2.53-2.45-.86-.44-1.79-.65-2.72-.65h0Zm-2.6,15.9c.27,0,.54-.02,.81-.05,.03,.04,.06,.09,.1,.13l.07,.09c.44,.58,.98,1.07,1.58,1.45-.28,.56-.47,1.15-.56,1.76-.09,.07-.17,.14-.26,.22-.15-.98-.54-1.91-1.14-2.71-.25-.33-.52-.63-.83-.89h.19s.03,0,.04,0h0Zm-12.93,11.94c.16-.13,.31-.27,.45-.42l.09-.1c.26-.27,.5-.57,.7-.88,.1,.22,.21,.43,.33,.64l.21,.35c.66,1.1,1.64,1.94,2.78,2.43,.24,.21,.5,.4,.77,.58-1.22,1.08-1.96,2.64-2.01,4.32-.02,.72,.09,1.43,.32,2.1-.41-.16-.84-.28-1.29-.35-.2-.04-.4-.08-.6-.1,.44-.77,.72-1.63,.8-2.51v-.07c.1-1.14-.14-2.28-.66-3.29-.18-.49-.43-.96-.75-1.41l-.12-.16c-.3-.42-.65-.79-1.04-1.11h0Zm-22.31-23.37h-.27c-.98,0-1.94,.24-2.8,.7l-.12,.06c-.29,.16-.57,.34-.84,.54-.35,.23-.68,.5-.98,.8l-.16,.16c-.43,.43-.78,.92-1.06,1.45-.16,.29-.3,.59-.41,.91-.02,.04-.04,.09-.06,.13-.45,.12-.89,.29-1.3,.51-.58,.3-1.12,.69-1.59,1.17l-.28,.29c-.29,.3-.55,.63-.77,.98-.24,.29-.46,.61-.64,.94-.21,.31-.39,.65-.54,1-.04,.07-.08,.14-.12,.22l-.14,.26c-.08,.15-.15,.3-.22,.45-.16,.31-.29,.64-.39,.98-.09,.26-.17,.53-.22,.81l-.13,.64c-.19,.99-.14,2.02,.17,2.98l.04,.12c.21,.67,.54,1.29,.96,1.84,.13,.22,.27,.43,.43,.63l.17,.22c.07,.09,.14,.18,.21,.26,.09,.14,.19,.28,.29,.42l.07,.1c.21,.28,.45,.53,.71,.77,.41,.48,.89,.9,1.43,1.24l.51,.32c.61,.38,1.28,.64,1.98,.78l.33,.07c.39,.08,.79,.12,1.19,.12,.29,0,.59-.02,.88-.06,.05,0,.09,0,.14,0,.03,0,.07,0,.1,0,.69,0,1.38-.12,2.03-.35,.42-.14,.83-.32,1.21-.55l.12-.07c.28-.17,.55-.36,.8-.57l.64-.54c.36-.31,.69-.65,.97-1.03,.38-.45,.69-.95,.92-1.48,.09-.18,.18-.35,.26-.54,.46-.75,.76-1.6,.85-2.49v-.13c.09-.69,.04-1.38-.12-2.05,.91-.74,1.59-1.73,1.95-2.85,.08-.19,.15-.39,.21-.6,.13-.39,.23-.8,.27-1.22l.05-.39c.08-.72,.04-1.44-.13-2.13-.09-.81-.35-1.6-.76-2.32l-.17-.29c-.5-.87-1.21-1.6-2.06-2.13l-.21-.13c-.59-.36-1.24-.62-1.91-.76-.49-.13-.99-.19-1.5-.19h0Zm-32.06,51.24s-.08,0-.11,0h-.11c-1.55,.03-3.03,.66-4.13,1.76l-.09,.09c-.89,.89-1.48,2.05-1.68,3.3v.07c-.23,1.35,.03,2.73,.71,3.92l.16,.29c1.07,1.87,3.06,3.02,5.21,3.02h.11c1.67,0,3.26-.69,4.39-1.91l.09-.1c.88-.94,1.43-2.14,1.57-3.42v-.06c.15-1.25-.11-2.5-.72-3.6l-.16-.29c-1.06-1.9-3.07-3.07-5.24-3.07h0Zm-.17,16.55c-.34,0-.68,.03-1.02,.09l-.2,.03c-.83,.14-1.6,.45-2.28,.9-.74,.3-1.42,.75-2,1.33l-.16,.16c-.4,.41-.75,.87-1.02,1.38l-.21,.39c-.36,.66-.58,1.38-.67,2.12l-.03,.26c-.16,1.33,.12,2.67,.81,3.82l.21,.35c.96,1.6,2.62,2.66,4.48,2.87,.22,.02,.45,.04,.67,.04,1.29,0,2.54-.42,3.58-1.18,1.04-.24,2-.76,2.79-1.51l.1-.09c1.66-1.59,2.27-3.99,1.56-6.17l-.08-.26c-.32-.99-.89-1.89-1.67-2.59l-.17-.16c-.75-.69-1.67-1.17-2.66-1.41-.65-.23-1.33-.35-2.03-.35h0Zm21.7,37.7c-1.62,0-3.18,.66-4.32,1.83l-.09,.1c-.82,.85-1.37,1.93-1.58,3.09-.36-.07-.72-.1-1.09-.1h-.28c-.14,0-.27,0-.41,.01-.42-.09-.86-.14-1.29-.14s-.89,.05-1.33,.15l-.14,.03c-.24,.05-.47,.12-.7,.2h-.03c-.18-.4-.41-.77-.68-1.12l-.07-.1c-1.14-1.49-2.9-2.36-4.77-2.36-.03,0-.07,0-.1,0h-.16c-.91,.02-1.81,.24-2.63,.66l-.12,.06c-.14,.07-.28,.15-.41,.23-.39-.08-.79-.12-1.2-.12h-.17c-1.61,0-3.16,.65-4.28,1.8l-.34,.35c-.23,.23-.43,.48-.62,.74l-.23,.23c-.08,.08-.15,.16-.22,.24,0,0-.02,.01-.02,.02-.21,.16-.4,.34-.59,.53l-.34,.35c-.38,.39-.7,.83-.96,1.3l-.14,.26c-.38,.7-.62,1.46-.71,2.25l-.03,.25c-.05,.43-.04,.85,0,1.27,0,.13,0,.25,0,.38,0,.19,0,.37,.02,.56-.01,.09-.02,.18-.03,.27v.13c-.06,.5-.05,1.01,.03,1.5,.02,.33,.07,.65,.15,.97,.02,.23,.06,.47,.11,.69,.02,.19,.05,.37,.1,.55,.19,1.22,.75,2.37,1.63,3.27l.22,.23c.56,.57,1.21,1.02,1.93,1.33,.27,.29,.57,.55,.89,.78,.15,.12,.31,.23,.47,.34,.33,.39,.7,.72,1.11,1.01,1.03,.82,2.31,1.28,3.64,1.29,.21,.61,.51,1.18,.91,1.7l.07,.1c.43,.57,.97,1.06,1.57,1.44,.2,.17,.42,.32,.64,.46,.35,.23,.72,.42,1.11,.57,.11,.05,.23,.09,.35,.13,.17,.08,.35,.15,.53,.21,.09,.04,.19,.08,.28,.12,.18,.09,.36,.17,.54,.24,.07,.03,.14,.06,.21,.08,.06,.02,.12,.05,.18,.07,.75,.33,1.57,.51,2.41,.51,0,0,.02,0,.03,0h.44c.77,0,1.52-.16,2.22-.44,.53-.18,1.02-.42,1.48-.74,.09-.05,.18-.11,.27-.17-.05,.11-.1,.21-.15,.32l-.08,.19c-.12,.28-.21,.57-.29,.86-.12,.37-.2,.75-.24,1.14l-.1,.9c-.03,.26-.04,.52-.03,.78l-.04,.36c-.13,1.16,.08,2.34,.61,3.39l.08,.15c-.2,.52-.34,1.07-.39,1.64v.13c-.14,1.42,.24,2.84,1.06,4l.07,.09c1.12,1.6,2.95,2.55,4.91,2.55h.11c1.28,0,2.51-.41,3.53-1.15,1.84,0,3.58-.86,4.72-2.32l.22-.29c.4-.51,.71-1.09,.92-1.7,.28-.59,.46-1.22,.53-1.87l.09-.77c.05-.42,.05-.85,0-1.27,0-.04,.02-.08,.02-.12,.03-.1,.05-.21,.08-.31l.11-.51c.15-.7,.18-1.4,.08-2.09,.03-.09,.05-.18,.07-.28,.1-.34,.18-.7,.22-1.06l.04-.38c.04-.38,.05-.75,.02-1.13,.04-.49,.02-.99-.06-1.48,.03-.5,0-1.01-.1-1.5,0-.04-.01-.09-.02-.13,.14-.62,.19-1.27,.13-1.91,.05-1.39-.39-2.76-1.25-3.87l-.07-.09c-1.13-1.46-2.87-2.32-4.72-2.33h-.27s-.02,0-.03,0c-.67,0-1.32,.11-1.94,.32,.08-.1,.16-.2,.24-.3,1.59-.17,3.05-.98,4.05-2.24l.23-.29c.7-.88,1.13-1.94,1.26-3.06l.08-.76c.17-1.52-.25-3.05-1.17-4.27l-.12-.16c-.04-.06-.09-.11-.13-.17,0-.1,0-.19-.01-.29,.15-.41,.25-.84,.31-1.28l.02-.19c.2-1.55-.22-3.12-1.16-4.37l-.07-.1c-1.06-1.4-2.67-2.27-4.43-2.37-.12,0-.24-.01-.36-.01h0Zm-2.33,22.51c.1-.04,.19-.09,.29-.13-.02,.02-.03,.05-.05,.07l-.09,.11c-.06,.07-.12,.15-.18,.22,0-.03,0-.07,.01-.1l.02-.17h0Zm-89.65,76.89c-1.7,0-3.32,.72-4.46,1.99l-.09,.1c-.51,.57-.9,1.22-1.16,1.92-.26,.57-.43,1.18-.5,1.81l-.04,.32c-.17,1.49,.23,2.99,1.12,4.21l.07,.1c.23,.32,.5,.61,.78,.88,.81,.94,1.88,1.6,3.07,1.9,.61,.2,1.25,.31,1.91,.31h.05c1.55,0,3.03-.6,4.15-1.67l.1-.09c.23-.22,.45-.46,.64-.72,.13-.14,.24-.29,.36-.45l.16-.23c.61-.84,.99-1.81,1.1-2.84v-.12c.18-1.48-.21-2.98-1.08-4.19l-.12-.16c-.17-.24-.36-.46-.56-.66-.9-1.14-2.17-1.9-3.58-2.17-.51-.15-1.03-.23-1.57-.23h-.28s-.06,0-.09,0h0Z" style="fill:#cae3e8;"/></svg>