<svg xmlns="http://www.w3.org/2000/svg" viewBox="0 0 800 800"><path d="M566.27,465.27l.06,4.47-2.41,9.49-.17,1.53-.06,5.64-1.49,6.73.57,10.35L561.57,514l.06,5.45,1.72,3.86,5.62,5.57,1.95,3.55.29,4.23-1.49,3.06L568,541.38l-1,1-5.85,3.92-21.92,10.6-25.94,12.43L511,571.82l-3.38,7.9-2.76,2.75-3,1.9L499,586.63l-1.67.56-1.49-.62-1.55-.92-1.55-.18-1.89,2-.69,8-1.09,3.31-3.56,3.3-1.37,3.43-1,1.47-1.2,1.29-1.38,1.1L476,611.19l-9.41-.12-4.36,3.49-5.63,10.1-5.33,6L449.9,633l-.92,6.43.17,1.71,6.26,16.9,2.52,10.41,2.64,5.63.12,1.84-.46,3.74.4,3.55,2.06,6.86v3.3l-1.32,4-5.16,10.9L448.58,717l-8.9,14.51L429.3,745.16l-2.13,1.29-6.14.37-2.47.67-18.76,10-2.35-10.77L395,736l-2.36-10.84-2.35-10.84-2.41-10.77-2.35-10.84-2.41-10.84L380.8,671l-2.41-10.9L376,649.27l-2.41-10.89-2.35-10.84-2.35-10.9-2.41-10.9-2.36-10.9-2.41-10.9-.23-1L360,575.8l-1-1.9-1.15-1.41L343.79,562.2l-17.56-12.73-13.37-9.74-10.27-6.61-2.3-2.51-.11-.13-1-3.3-.8-10.29-1.15-14-1.15-3.18-8.49-13.29L279.69,474l-1.89-1.17-1.72.37-1.78-.12-1.72-.49L271,471.7l-9.3-6.73-3-1-4-.37-3.09-.92-2.19-2.39-1.26-4.71L248,442.31v-.43L246.7,438l-6.43-11.2-5.34-9.31-.69-2.57-.86-5.21L231,405l-.63-1.71-1.09-5.52-.46-3.91,1.78-10.11.23-7.41,1.15-2.69,1.83-1.9,3.39-3.49,2.06-2.75,2.3-2.33,3.21-1.65,5.34-.86,1.61-.86,1-1.22.75-1.66L256.62,345l1.67-3.55,3.27-2.39,7.29-3.12,3.5-2.51,7.92-3.67.74-.62,3.44-3.06,2-1.16.68-.74.35-.67.63-1.78.52-.79,3-1.9.69-1.1-2.18-3.43.23-1.53,1-1.53,2.7-2.82.12-.18.63-.92.28-1.35-1.6-10.22-.12-3.74.81-3.92,2-5.45,1.5-7.47,1.09-3.55,4-4.35,5.1-7.71.81-2-2.87-2.21-3.5-1.1L299,252.86l-1.95-3.61-.52-4.17.18-3.73.91-3.55,3-7.17v-3l-.81-8.51-.28-3.12-1.44-3.37L294,206l-1-3.56-.35-4.28.46-8.15,1.78-6.36.34-1.23.29-5.63,1.78-7.53.92-1.66.74-2-.17-1.83-.63-1.9-.4-2,.4-4.23,4-11,.06-.55.23-1.41.17-4.22-.17-2-.75-1.9-1.26-.79-1.61-.43-1.61-.8-7.28-.92-3.45-1.41v-.06l.18-3.49,2-2.39,2.41-1.47,5.4-2,10.16-6.06,1.89-2.08,1.89-3.61.75-3.61-1.72-2.09-2.93-1.53.57-1.59L309.65,99l3.21-.36,3.16.18,2.87-.55,5.79-2.33,1.55-1,.06-1.28-2.87-4.29-.29-1.1.06-1.23-.29-2.69,1.55-.67,6-2.45,2.07-.37h7.17l1.84-.61,3.5-2.94,2.52-1.17.63-.24,1.9-1.78,2.58-3.12,2.58-4.9,1.09-.73.86-.43,2.35-2.45.87-.55,2.52-1,6.66-2.7,1-.61,1.78-2.81,1.55-.8,11-.18,3.21-1.23,2.07-2.2,1.14-.74,1.15.49.86.49.92-.18.92-.43,2.41-.61,2-.86,1.78-1.16,1.14-1.23,1.73,1,1.54-.31,3.1-2.08,1.72-.85,1.44-.37,3.73-.12,1.84-.74,1-.18.86.55.69.67.86.31,7.17.18v.31l.17,1,.06,4.65-2.58,2.08-3.21,1.35-1.78,2.51.28.8,1.32,2.81.41.62.51.36.52,1.41.69.37,3.67.49,1.66-.31,1.9-1.53,1-1.41.92-1.89-.06-1.66L428.43,54l-.8.06-1.72.55h-1V54L427,52.57l.8-.24.52-.43.34-.55.29-.25,1.26-.18,8.15,1.77,1.55-.12,4.48-2,.69.19,1.37,2,5.86.85,2.75,2.45,6.26,2.21,1.55,1.34-2.64.68L459,60.9l-1.2.79L457.3,60l-2.3-.31-2.69.68-1.5,1.28.64,1.72,2.18.79,2.52.13,1.61-.43.63.86.75,1.16.23,1-.46,1.28-.58-1.46-3.67,3.49.69,5.08,3.15,5.14,3.85,3.92,3.16,1.47.86.61,1.95,2.76.86,1.16-.46,1.23-1.89,1.83L466,95.56l-.92.79-1.14.19-1.09-.92.63-1.6-.75-.42-1.49.24-2.7.86-.8.61-1.44,2-.46,1.53,1.21.49,2.64.06,1.09.62.57-.56.23-.24L462.87,97l1.83,3.92,2.18,3,3,1.78,4,.49,1.15-.31,1.67.06,4.24-2.14,2.64-.61,1.61-1.66.69-2.87.51-2.39,1.21-4.1,1.49-1.35,1.78-.37,3.9.31,3.56-.68,3.21-1.28,4.19-2.94,2.58-2.69.75-.37.35-.92.22-.55,4.83-3.86.74-.86.17-1.1-.28-.73-.18-.68.81-1,1.78-.86,4.24-.42L525,69.35l1.72-.31,1.49.74.8,1.83-.11.86L528,73.7l-.23,1.1.17,1.16.86,1.47.17.92.29.73,1.44,2.09.57,1,.17,1,.17,2.2.23,1,.4.8.52.92.63.79.46.31.46.55,1,1.53L534.83,93l-1.15,1.6-3.33,1.41-4.59,3.73-2.47,4.59-3.56,5.15-5.91,10.77-4.53,11.15-2.18,2.88-6.94,1.77-8.1,4.53-2.92-.79L486.28,142l-2.7,4-1.2,3.92-1.15,4.22-1,4.23-.23,5.2-.17,5.45.4,3.37,1.09,3.49.63,1.84.41.67.4,1,.46,2.27.28.92,1.84,2.75,1.38,1.53,1.15.68,1,1,2.24,6.73,1.15,1.35L498,202l.18.18,1.66.86,2.52,1,5.05-1.72.86.19.75.42,1.55,1.41-.92,1.41-.51,2,.45,2,1,1.47,3.39,1.59,7.57,2.94,3.33-.36,2.47,2.08,1.14,2.32-3.15,1.29-.46,2.33.17,1.65.06.8.8,2.14,1.26,1.59,3.85,1.17-2.3,2.08-.57,2.69-.46,2.57.35,4.41-1,2.08.4,3.68,2,3.18,3,3.68,1.72,1.34,2.12,1,1.15.61-.17,2-2.3.07-1.66,1.28-1.61,3.19-2.47,2.08L528,268.9l-1.15,2.45-1.61,1.47.52,2.88-.34,3.06-2.82,3.49-3.21,1.65L517,286.54l.63,2.32-.69,2.15,0,4-3.39,2.51-.75.79-.51.43-.35.61.92,2,.35,1.34-3.1,1.41-2,1.47-2.7,3-1.32,2.63-1.61,1.47-.8,1.84-1.44,1.59-1.37.92-5.63,1.84-.74.43-.29.73-.17,1-.4,1.23-.64,1-.11,2-.57,1.1-.18,1.78-1.32,1.22-1.83.92-7.81,1.16-2.87,1.59-4.47,7.41-4,1-.86-.06-.75-.36-1-.06-1,.36-.51.49-.35.61L461.6,345l-.8.74-1.09.24-4,1.78L454,349.06l-3.33,1.28-2.07,2.21-1,3.12-3,6-1.78,2.88-1.21.43-.69.73-.45.25.8,1.77.34,2-.05,4.23.28,1.83,1.27,3.92.22,1.84.81,3.3,1.89,3.74,7.69,11.08.8.8,1.21.61,12,11.94,3.16,1.9,6.54,2.88,1.21.3,2.46.55,5.8-.85,6.31-1.84,5.34-2.88,1.61-.43,1.95,3.56-.29,6.85-2.47,2.15-1.32.55-1,1.34-.4,1.72.46,1.59,2,3.37,1.09,1.28,1.78.56,3.55-.8,6.37-3.86,3-.92,1.43-.61,1.32-1.59.69-1.9-.57-1.71-1.44-1.66-.23-.85,2.53-2,1,.73,1,.18.91-.42L522,419h.57l1.38.92,3.5,1.65,1.49.92,1.09,1.41,2.93,4.47.29,1,.4,5L531.44,438l1.78,6.13-.75,2.87,2.41-.73,1.67,1.78,1.66,2.2,1.95,1,2,.49,4.31,2.21,2.06.73-.57.49-.23.12-.35.06-8.26-2.63-4-.49-1,3.12.8,1.23,1.32,1.1,1.32,1.47.58,2.14.8,1h1.83l3.68-.67,3.56.8,7.05,2.63h3.79l1.32-1-.46-1.35-1.38-1.22-1.54-.49-.92-.68-1.21-1.47-1.26-1.34L561,463l4.65,2.14.58.18Zm-43.09-66.19,1.66,1,1.67.8,1.49.92,1,1.4-5.56,5.15-1.38.61-.57.49-.35.8-.86,3.3h-.52l.29-2.69.23-.8-1.26.43-1.09,3.18-1.49,2.27L515,417.51l-.46,1.78-1.43-1.41V416.1l.51-1.65-1.49-2.26-1.43-.68-1.32-1.22-1.44-.43-1.6,1.59-.69,1.47-1.55.37-1.95-1.53-.52-1.53-.52-2.76.06-2.69,1.61-2.82-1-4.1,0-3.13,3.1-1.16L511.7,395l3.62.25,2.69-1.72,2.53,3.06ZM520.88,317l.81-.67,1.14-.86,9.59.06.8,1.16L532,318l-3.39,2.63-1.6-.37-1.67-.79L522.55,318Zm25.31-11.82.75.31.51.73,2,2.08-.63,1.41-8.21,3.43-4.19,2.57-1.55.62-.74-1.78,1.2-1.35,1.38-1.28,1.49-2.21.23-1.41-.11-.61,0-1,.69-.36.18,1,1.26.85,2-.37.17-2.32-.58-1.17.69-1.34,1-.92.69-1.1.74-1.11,1.38.86,2.41.37.4.86-2.18.79-.28.61-.52.62Z" style="fill:#efc441"/></svg>