<svg xmlns="http://www.w3.org/2000/svg" viewBox="0 0 800 800"><path d="M492.73,625.1l-1.32-2-.73-1.45-.15-1.76.22-.36.74-.74.14-.43,0-1.18,0-.35.37-1.53v-.66l-.37-.47.37-1.45,0-1.06-.18-1-.26-2.35-.33-1.18-.48-1.1-.55-.9-.88-1-.92-.86-1.1-.59-1.32-.19-.73-.32.62-.78,1.1-.9.66-.67,0-.62-.18-1.3.14-.78.33-.32.52-.19.44-.35.22-.71v-.59l.11-.62.15-.59.29-.47.55-.71.11-.43-.11-.31-.11-2-.81-4-.77-1.29-.18-.63,0-1.53-.07-.66-.22-.71-.22-.39-.33-.39-.44-.31-.52-.24.15-.47.07-.16.19-.27-.78-1.88.3-3.22,1.17-5.25-.33-1-.07-.78.22-.67.33-.51.29-.62.22-.75.08-.82-.11-.82-.19-.59-.44-1-.44-2.23-2.2-.28-2.65-.47-5.5.08-6.36.12L459,558.2l-7.49.12-8.52.16-1.8-1-1.1-1.92-1.54-4-1.14-1.76L431.7,543l-2.47-3.72-2-4.24-1.57-2.07-2-.87-4.41-.78-2-1.14-3.52-2.93L406,524.74l-.55,0-.52.27-.62,1-.37.39-.51.12-.74-.55-.37-1.1-.25-1.25-.37-1-.92-1-.81-.12-1.69.67-.44,0-.44-.19-.44-.36-.37-.35-.88-.23-.14-.48.18-.54,0-.43.07-.2.22-.24.07-.31-.33-.43-1-1.1-3.34-2.74-.62-.9L389.75,509l-.11-1.41.19-.74.33-.63.22-.59-.15-.55-.33-.74.15-1.45-.22-.86-1.07-1.41-1.06-1-1.25-.32-3,1.34-1.14-.08-7.16-5.06-1.77-1.8-.58-.31-1.55-.24-.73-.23-.74-.51-2.13-1-4.15-.9-3.23-1.77-.29.43-.11,1-.74.86-.55.2-.55,0-1.14-.24h-.62l-.37.32-.37.39-.44.27-1.21.12-1.21-.16-2.31-.94-2.72-2.35-.88-.43-1,.08-.85.59-.62.94-.52,1.1-.69,1.09-1,.43-4.85.47-.73-.19-1.43-1-.66-.32-4.19-.62-.92-.32-.92-.74-.25-.78v-.91l-.15-1.21-.18-.47-.85-1.57,0-.51.11-.47v-.47l-.44-.43-.88-.43-.88-.2-1.8-.15-3.52-.83-8.42-3.95-1.87-.47-.88,0-.88.19-.88.08-.81-.31-.33-.44-.48-1-.37-.4-.44-.08-.88.2-.18,0h-.3l-.66-.43-.69-.59-.7-.43h-.81l-.81.2-2.61,0-2.75-.75-.88-.12-.92.12-.84.28-.85.11-7.71-3-1.36-1.77,1.06-3.48.11-1.14-.25-1.14-1.14-1.6-.63-2-1.76-1.84-.62-.95-1-2.27-1.25-2.08-.22-.58,0-.47-.15-.43-.59-.4-1.14-.39L273,450l-.59.08-1,.47-.44.47-.18.2-1.07,1.84-.66.67-1.72,1.13-.74.63-1,.55-1.1-.2-2.13-.86-8-1.45-.85-.27-1.84-1-2.09-1.69-.51-.08-2.57.4-4.3,1.88-.88.11-.74-.31-.66-.51-.73-.47-.92-.19-4.92.15-1.95.71-1.83,1.25-3.38,3.06-.33.9,1.46,1.65.26,1.13-.18,1.26-.55,1.05-.85.59-4.59.75-.88-.12-1.65-.67-.26-.08-2.17-.27-7.67,1.33-.85,0-.73-.23-1.47-.75-.92-.27-2.72,0-.77-.24-2.09-1.21-3.34-.71h-1.58l-10.62,2.2-3.41.12-1.32.55-4,3-1.1.59-1.14.86-.59.08-2.46.82-1.14.63-.51,1.06-.66.23-3.09.59-1,.36-.47.5-.59,1.22-.37.51-.59.2-.77.11-.62.36-.3.9-.4.7-2.53,2.75-8.05,5.4L147,486.06l-.7,1.09-.29,1.06-.22,1.3-.89,2.07,0,1.41.18.36.63.55.26.43.07.47-.07,1.56-.15,1-.74,1.65-.18,1-.26.47-1.36,1.1-2.53,1.64-.66.63-1.07.43-1.32,1.37L137,506h-1.17l-3.27-.7-1.21.19-9.11,5.18-1.91.62h-1.18l-1.24-.15-1.14,0-1,.66-1,.94-1,.4-1.06,0L98,512l-.73-8.27-.55-2.62-1-2.63-.3-1.29-.25-2.94-1.91-8.82-1-19,.15-1.1.73-2.2.55-3.25,1.33-5L94.91,453l.59-2.07.11-2.87-.29-4.89-.08-.51-.48-.94-.22-.63-.14-.63-.11-1.37L93.48,435l-.07-1.45.47-5.37.63-2.67.81-2.23,2.53-3.88.92-2.39-.55-2,.81-.67.4-1.17.33-1.37.48-1.1.58-.94.67-1.33.25-.95-.51.16-.07-1.37-.74-.71-1.87-.66v-.12l-.22-.59-.11-.15-.26-.16-.66-.2-.18-.11-.26-.4-.22-.54-.19-.63-.07-.75L95.76,400l-.59-.47-2.09-.08-1.33-.35-.47,0-.59.24-.22.39-.3.11-.55-.54-.47-1-1.07-3.14-.33-.66-.51.47.14,1.05.48,1.1.44.63V398l-.84-.43-.81-1-.37-1.25.59-1.81-.44-1.21,0-.67.34-.43,1.5-.94-1.58-.16,0-1.41,1.21-3-1.1.58-1.47,1.14-.89,1.06.74.47.51,7.37-.62-1-1.32-1.69-.59-1-.26-1.17L82.83,390l-.37-1-1.14-.12.26-.86.18-1.06-.07-.94-.55-.39-.29.47L80,388.24l-.47.67-.22-1.57.25-2,1.07-3.8-1.47,1.37.88-2.27.22-.94-.37.2-1.1.27.59-1.45-.15-.55-.66.35-.88,1.18-.4-.51-.59.35-2.35.16-1,.82-.52,0,0-1.29h-.37l-.4.71-.59.62-.73.47-.85,0,.29-.43.48-1.41h-.4l-.74.08-.36-.08-.08.12-.44.31-.22.08-.18-.16-.37-.62-.18-.12L67,379l-1.36.67h-.84v-.51l.33-.47-.15-.27-.44-.08-.66,0-.62-.12-.81-.63-.59-.15-1.06,0-2.61.74-1.07.59L59,380l.63.2-1,1.49-.36.86-.15,1.1.11,1.14.66,2.78-.15,1.64-.51.79-.59-.16-1.28-9.48L56,379.5l-2.24-3.33L53.59,375l.52-1.3.51-.62,1.55-1.45.22-.63.18-.82.26-.79,1.06-.86.7-1.25L60.54,362,62,359.17l1.84-1.92,2,.39-1.14.59-.81.74-1.54,2.08-.22.58-.51,1.92-.15.24-1.14,1.14.33,1.72,2,.24,5.87-1.14,3.38.16,1.07.35.66.86.47,1.06.56.9.77.55.88.27,2.24.12.92.47H80l.22-.7,0-.67-.18-.47-.33-.31-.55-.12.7-1.73.66.24.7,1.06.88.86h1l1.58-1.49,1.06-.35.52.19,1.25.71.44,0,.62-.63-.15-.67-.58-.62-.59-.43L86,364.93l-2.27-.51-1-.87.85-.27.51-.47,0-.74-.48-1-.73-.67-.7-.16-2.57.28-.19-.43,0-1.34-.19-.66-.4-.82-.59-.71-.66-.35.33,2.27v1h-.33l-2-3-1.39-1.33-1.47-.35.22.39.51,1.49-.33-.24L72.4,356l-.3-.23v1.29l1,1.29.08,1.1-1.84-1.21-.18-2.4.91-5.17-.62.35-.7.08-.66-.11-.59-.32v-.47l1.77-.86,2.82-3.8,1.69-1.8-.29-.36-.29-.7-.19-.32.48-.23L76,342l1.06-.08.77-.23v-.51l-.33-.47-.25-.12.58-.82.85-.79.77-.9.4-1.25-.29.16-.15.07-.11,0-.18.2-.92-.9-.81-.16-2,.16-.92-.32L73.28,335l-.81-.47-.92-.28-1,0-.92.28-.84.51-2.28,2.47-.88.35-.26.16-.84.62-.37.12-.44-.12-1-.62-.44-.16-.59-.28-3.52-2.66-.92.31-.77.79-.81.43-3.85.43.29-.59.33-.47.37-.39.51-.39-3.71,1.17-2,.24L46,335.89l-.84-2-.77-.71-.92.87,0,.7.41.9.91,1.37.19.83.36,3.8.3.59,1.54,2,.55.43,2,3.68,1.65,1.53.56.35v.47l-2.58-1.37.74.51,1.47,1.8-.37.43-1.73-1.64-.69-.94-1.55-3.53-.73-.94-1.87-.78-.66-1.1-.37-1.41-.3-2.63-.47-.7-5.14-4-1.88-1.88L35,331l.44-2.94.41-1.65.44-1,.33-1.21L36,323l-1.43-1.92.66-.58-.26-.67-1.14-1.1-1-2.58.15-2.63,1.87-11.64.74-2.27,1.17-2.23L40,293.05l1.66-3,.25-2.43-.48-.39-1.39-.36-.29-.43.11-.63.4-1.25v-.23l-.26-.2.66-.43.88-.32.37,0,.11-.62-.07-.75-.18-.62-.19-.36L42.87,276l2.06-5.17.4-2.36-.77-4.7V261l.55.39,1.32.71.52.54.22.79-.11.78-.26.79,0,.7.55,1.29,2.35,2.86.45,1.18.62,2.59.44.94,1.73,1.13L53,276h1.36l.62-.12.59-.35-.85.94-1.32.47-.92.51.33,1.1.37.39.88.66.44.55.11.63v.78l.19.63.58.27,2.39.2,1-.08,1.17-.51,2.43-2.51.88-.27-.88,1.8-.26,1.06.63.39,4-.47.48-.35.07-.75v-.86l.18-.62.78-1.1.58-.35.66.27,0,.39L69.2,280l0,.62.44,1.34.81,1.05,1.06.71,1.18.23.36.16.74.67.55.11.62-.15.48-.24.73-.55,2-.86.74-.82.29-1.37L79,277.93l.22-1.1,1.32-2.62.3-.12h.66l.51.12.52.31.44.39.18.35.15.28.73.27.22.2,0,.43-.15.39-.22.35,0,.2.3,1.45.25.51.56.35-.45,1-.29.47-.37.43.59,1.18.85,2.74.77,1.22.55.31.55.12.44.23.26.67-.15.51L87,290l-.19.59.88,1.64h2.06l2.42-.47,3.13.47.88-.82.84-1,2.32-1.25.51-.16.55.12,1.47.78,1.36.2,1.06-.36,1-.47,1.68-.43.41-.43.29-.51.11-.55-.33-.08-1.39-.62-.48-.47,3.08.11,1.58-.23,1.58-.86,3.31.08.15.19-.26.43-.52,1.65-.18.31.22.24,1.69.7,8.08.2-1.07-.63-1.13-.35.69-.86,2.13-.55.81-.86-5.32.11-.7-.11-.4-.63-.12-1.45-.25-1.22-1-1.84-.37-1.8-.52-1.1-.11-.59.08-.43.22-.35.15-.31-.08-.51-.33-.16-.55.08-.48-.12-.11-.74.22-.32.41-.07.44,0,.4-.15,1.36-1.53.74-.55,1-.2,1.55.67,3.26,2.55h.89l1.5.94.15,1-.66,1.06-1,1.29,2,.47,6.21-1.14,1.83-.66.81-.16,1-1.57,2.24-1.17.51-.39,2-3.26.51-1.09.22-1.1-.22-1.14-.51-1-1.32-1.64-1.69-2.67-.66-.35V262l1.21.15,1.28.63,2.32,1.53-.37-.59-1.06-.86-.44-.43-.48-.71-.22-.39-.08-.31.08-.47.25-.43.26-.2.19.2-.89-1.14-1.47-.43-1.57-.24-1.25-.54-.08-2-1.83-2-10.76-8-4.74-2-.92-.63-2-2-2.5-1.33-1.1-.79-.26-.35-.59-1.17-1.17-1.69-.44-.39-2-.39-1-.63-.81-.9-.69-1-1.07-2.16-.59-2.39-.25-2.7v-5.92l-.33-2.51-.59-2.27-.88-2.19-2.54-4.24-.44-1.21-.22-.55-.59-.23-.62-.12-.37-.28-.22-.82.15-.63.26-.62.18-.75,0-.43-.29-1.37,0-.78.63-1.61.11-.79,0-1.13L98,195.44l-.36-1.34L97.12,193l-1.66-1.61L93,189.87l-2.76-.82-2.31.7-2.28-1.25-16.45,2.67L66,192.77l-1.07.24-4.11-.2-3-1.53-2.24.94-2,1.77-1.29,1.41-5.36,4.07-1.25,2-6.21,13.09-1,1.37-.77.59-.41.74-.44,1.65-.25,1.76.18,1,.66-.15,1.65-2.12.81-.51,2.68.24,1.25.54.7,1.1-.07.9-.85,1.41-.18.75,0,.66.26,1.38.08.74-.23,1.57L40,237l-.25,1.37-.67,2-.11.62.11.71.67,1.68.51,2.87.37,4.27.36,1.13,2.83,5.69.33,1.21-.29,1.41-1.14,2,0,1.49h-.36l-.3-.63-.88-.74-.29-.47-.08-.75.41-2.11v-1.57L41,255.71l-.36-1.33-.55-1.26-.26-.35L39.2,252l-.19-.28-.11-.82L39,249.6v-.67l-1.17-4-.11-.66-.66-.59-.88-2.59-.85-.59-.7-.15-.47-.43-.22-.63-.08-.94-.11-.63-.29-.39-.88-.82-.59-.4-1.43-.23-.52-.31-1.87-2.36-1-.7-1-.39-.69-.75-.11-1.68.18-.16,1.1-1.92.18-.59.08-.78-.08-1.49.08-.47.33-.75,0-.43-.18-.39-.26-.23-.25-.2-.11-.12-.44-1.37-.3-.55-.36-.39-.41-.12-.84.12-.41-.23-.51-.75-.3-.35-.84-.35-.81-1-.48-.2-1.32-.35-.66-1,2.2-2.16,8.19-7.84,7.13-6.81h0l11.46-9.13,8.41-2.87,3-1.72,11.83-4.47,3.53-.74,9.47-1.65,8.19-1.41,12.86-2.23,4.07.55,3.9,1.33,8.33,5.33,9,5.76,5.4,3.45,6.35,4,9.07,8,1.25,1.57.55,1.33,0,1.17-.22,1.22-.07,1.45.29,1.41.55,1.21,5.59,7.25,2.42,3.14,3.49,6,3.42,5.76,1.65,2,1.87,1.56,3.38,2.24.84.9.63,1.17,1.5,3.45.92,1.18,1.1.82,1.51.82,1.65.51,6.8-.35,3.16-1.17,5-.71,4.78-2.23,1.8-.16,3.67.35,8.7.43,10,.55,11.09.59,1.95.08,12,.63,5.07,1,6.57,1.34,1-.59,1.66-2.9,1.06-1.18,2.5-1.17,1.14-.79.62-.7.11-.47-.4-.28-2.72-.62-.81-.39-.77-.55-1.17-1.26-1-1.68-.7-1.92-.26-1.88,0-2.43-.18-2-.63-1.81-1.21-1.88-1-2.43.08-2.15.4-2.24.15-2.54L261,210.25v-2.63l1.51-2,5.18-2.32,2.2-1.6,2-2.86,3-5.29,4.3-4,5.06-2.35,5.15-.2,7.56,1.26,2.5-.47,3-1.41,1-.24,3.67.16,1-.2,1.18-.82-.15-.67-.7-.74-.36-1.06.44-.9,2-.63.77-.82,2.2-4.78L314,174l-.11-1.1-1.14-2.35-.33-1.8.92-.75,1.47-.62,1.36-1.49.47-.82.59-.67,1-.47,1.21-.2,1.21,0,1,.35.77.71,1.21,1.76.88.47.85-.07,1.94-.79,1-.16,1.17.2,5.33,2.39,1.8,1.29,1.39,1.77.55,2.43-.18,1.25-.29,1.18v1.09l.62.91.88.23,3.45-.51.66-.39.19-.55-.26-.59-.59-.55-2.16-2.43-4-6.19-1.43-3.21L333.71,162l-1.87-1.37-6.73-3-1-.86-.33-1.33.52-1,.95-.71,2-.82,2.87-1.69,1-.27,1.32,0,5.8,2.23,2.72.59,2.75.16,2.25-.59,1.13-2,.74-5.88,1-1.56,1.29.7,11.56,13,3.6,3.18,3.75,1.6,2.39.4,1.58-.08,1.54-.39,1.58-.71,1.36-.16,1.28.79,3.42,3.37.77,1.17.51,1.33.63,5.26.7,1.21,1.54.82,2.75.28,1.25.43,2.13,2.19,1.36.47,2.75.08,11.35-1.64,4.67.39,2.38-.28,2.43.28,1.72,1.76,1.47,2.24,1.88,1.6,2.38.9,1.25.71.66.9-.18,1.14-.88.62-1.1.44-.88.58-.52,3.22,1.07,3.37.18,2.7-3.2,1.22h0v0l-1,.27-.62.67-.07.94.58.94.77.35,2.8-.12,5.61,2,1.58,1.33,1.25,1.77.63.9.77.82,2.57,1.41.73.63.66.78.52.94.11,1-.63.9-.84.12-1.07-.47-1.83-1.1-2-.62-1.69.15-1.47,1-1.36,1.88.48,2.39,1.65,3.06,3.56,4.82.48,1.3-.73.86-2.21,1.06-.92.78-.69.94-.44,1.18-.66,5.48.36,1.61,1.51,1.45,5.87,2.9,5.18,2.55,3.24,2.27,2.9,2.82,1.54,1.06,1.87.51,3.23-.08,6.47-2.08,10.83-.62,3.75.86,2.53,2.54.37-.27.37-.39.69-1.14.34-.55.18.16.18.63.3.62,3.15-.54,1,0,5.55,3.77,2.16.86,2.06-.08,1.84-.9,1.5-1.57,1-2.15,1.32-.71.52-2.43.73-1.41,1.18-.59,2,.24,5.21,1.29,4.71,2,12,8.5,1.06,1.1,3.93,6.35.44,1.14.19,1.37.14,4.82.26,1-.4.51.62,1.37,1.65,5.68.63,3.14.44,1.45.59.9,1.76,1.84.62.94,1.11,4.19.69,1.41,2,2.59.3.63.44,1.53.11.15.26.47,1.13.83,2.57.74,4.41,2.47.55.59.15,2.86.33,1.25,1.4,2.71.44,1.21.18,1.33,0,1.81.22,1.37,1.65,3.45.22,1.45-.29,1.21-.48,1.25-.22,1.45.15,1.53,1,3.8.59,1.81,3.85,4.7.59.31,3.09,3,6.28,4.35,7.31,5.06,8.7,6,17.7,12.23,7.46,5.13,3.41,3.14,5.77,7.83,3.27,3.26,5.91,4.15,7.49,5.21,8.63,6,1.62.82,1.58.28,1.4-.28,4.15-2L656,403l1.29.78,1.61,2,3.05,3.84L673.28,419l6.87,3.88,7.9,2.7,3.63,2.2,7.13,6.34,5.07,4.51,7.23,4.78,5.33,3.53,8.85,5.84,3.6,1.17,3.67-.31,1.4-.74,2.6-2,1.51-.63,1.83.16,5.4,2.54,3.57.59,1.5.75,3.31,2.62,3.49,1,1.76.79,1.54,1.45,2.5,3.09,5.47,2.51,1.65.47,4.12,0,2,.55,1.91.9,1.84,1.25v0l.66,1.8.48,1.38-1.95,3.76-3,3.76-1.88,3.29-.22,2.59.44,5.21-.22,2.63-1.17,4.46-.18,2.36.73,1.88,1.07.86.84.9.22,1.06-.88,1.37-1,1-.81,1.13-.11,1.22,1.32,1-.88.59-1,.78-.84.9-.44.36-.55.11-.66-.35-.81-1.18-.55-.23-1.29.16-3.71,1.17-1.39-.12-1.07-.82-.88-.86-.4-.2-.48-.23-.48-.16-.77-.63-.59-.11-1.76.07-.62-.07-1.07-.55-1-.9-1.47-2-1-.83-12-4.42-1-.75-.37-.43-.4-.63-.92-2-.4-.27-1.07-.23-.84-.36-.11.94-.33,1.73-.74.59h-2.2l-.92.19-.66.39-.55.67-.55,1.06v0l-.66,1.29-.55,1.41-.26,1.49.44,2.82,0,1.45-.3,1.33-.69.94-1.51,1.53-2.5,3.37-1.87,1H719l-22.8.59-4,1.29-9.73,5.14L681,526.85l-1,1.65-.25,2.59,1,5,.22,2.55-.74,2.23-2,3.57-5.76,10.38-.88,2.12-.7,2.59-.18,1.33,0,1.33.26,1.33.73,2.51.15,1.37L671.7,570l-.58,2.39-1,2.27-4.22,6.43-1.1,1.29-1.77,1.41-1.83.67-3.93.94-1,.39-.81.55-.63.78-.84,2.63-.55.43-.66-.16-.89-.35-2.24-.35-2,.35-1.91.94-3.52,2.67-.7.86-.44,1v1.17l.51,3.1,0,.82-5.1-2L635,598l-.84.16-.88.11-1.62.51-5,2.9-2.13.55-6.65.43-1.06.24-1,.55-.74.74-1.24,1.73-.81.7-4.34,2-4.7,1-11.68-.28-1.13.28-.81.86-.22,1.1.36.86.52.82.26,1.14.33.86,2.75,2.43.74,1,.36.31,1.36.51.3.32-.08.47-.29.59L595.2,622l-4.11,1.34-1.43,1.37-.08,1,.11,3.33.19.78.88.75.22.66-.55,2-.26,2.47-.29,1.21-.74.75-1.06.27-2.24.2-1.07.23-3.6,1.73-4.88,3.84-.22.12-3.38,1.6-1.4,1.41-.66.94-.7.67-.8.51-3.9,1.68-.88.2-.48-.08-1.58-.66-.58,0-.55.15-.52,0-.59-.31L556.53,647l-1.47.08-1.73,1.61-5.21,7-.85.47-.58-.7-1-2.35-.33-1,.11-2.63-.11-1.13-.36-1.14-.55-1-.81-.82-2.94-1.3-1.47-1-5.51-5.36-1.43-1-1.58-.79-3.12,0-6.47,2.24-3.19.23-7.24-1.1-3.52-1.41-2.5-2.74L501.18,630l-.44-.2-.37-.16-.58-.07-.44-.24-.34-.39-.36-.51v-.28l.18-.7v-.28l-.84-.74-.11,0h-.11l-.66-.55.47-.74,0-.2-.51-.43-.41-.2h-.44l-2.83.55ZM50.62,397.77l.55-1.34,1-.9,1.28-.23.26.43.07.23v.32l-1.54,1.09-.29,2.71.73,5.33L53.3,411l1.21,5.49-.22.82v.35l.22.59h-.4L54,416.66l-1.54-5.77-.88-1.8-.37-1-.07-.7.07-1.77-.11-1.8-.51-3.06-.11-1.56Zm23.54-35.16.63-.58.62-.32.37.47.25.36.3,0,.22-.4.22,1.49.11.36,1.1,1.64-.29.78-.66.79-.85.51h-.77l-.29-.51-.59-2.16-.37-.82-.29-.9Z" style="fill:#efc441"/></svg>