<svg xmlns="http://www.w3.org/2000/svg" viewBox="0 0 800 800"><path d="M730.17,293.34l-.17,1.17.33,1.62.64,1.47.77.71,1.73.23,1.74.82,1.57,1.3,1.27,1.5.46,1,.17,1,.08,1,.22,1.18.42,1,1.68,2.59.38,1,.14.82.19,3.53-.11.41-.82,1.44-.25.32.3,1.15-1.71,1.94-.52,1.05,0,1.21-.25-.18-.17-.08-.19,0-.25-.09.14.2.06.15.11.38-.94.12-.88.56L735,325.38l.17.67.85.91,1.62,1.35v.36l0,.11-.61,1.94-.33.56-.27.83.41.79,1.07,1,1.79,2.23.58,1.33.06.08-.75.53.44.91,1.24,1.5.28.56-.41.65-1.82.38-.55.53.52,1.44,1.85,1,3.69,1,4.38,2.35,4.84.79.64-.2L756,348l.86-.24.41.12.5.47.35.12.42-.06.82-.24,1.16-.14,2.42-.65h1.35l1.46.44,2.23,1.26,3.37,1.91,2.31,2,1,1.12.44.74.19.76.16.44.33.32.61.44.14.5v.56l.16.3.53-.33,1.46,1.65.74.44h.19l.47-.06.19.06.2.15.22.41,2.48,3.14.6,1,.39.65.47,1.91.47.62-3.28-2.3-.8-.61-2.4-1.09-.55-.62-1.07-1.58-.64-.45-1,.3-4.27,3.41-.19.56.22,1.64-.08.62,0,.2-.22.65-1.35,2.59-.19.67-.06.83.06.73.13.65v.59l-.41.58-.19,1.15.14.94,0,.91-.69,1-.77.56-2.07.91-.88.21-1.05-.09-2.78-1.32-.93-.12-2.21.56-.91.11-.91-.11-.63,0-.6.2-.8.5-.47.59.25.62,1.07,1.2v0l.17.47.24,1.09.47,1V386l-.11.35,0,.44.14.44.46,1,.06.47-.28.92,0,.41,1.05.79,1.79.91,1.54,1.06.33,1.23-.8,1.53-.19.8.36,2-.39.58-.63.53-.58.94.22.36.14.32.16.79.22.35.39.27.3.32,0,.44,0,.44.14.39.17.38.38,1.12.55.76.66.59,2.13,1,.19,1.47L762.86,413l-.16,1,.08.62.19.61.2.89-.17.38-.36.35-.11.3.5.26.72.21.3.2.3.32.3.83,0,1.06-.2,2,.39,2.53-.06.88-.49,2V428l.11,1.26,0,.47-.14.83.14.44.36.23.61.27,2,.38,1.32-.76.49-.12.64.26.58.47.49.68.3.76v.8l-.88,1.29-1.46,1.09-1.13,1.26.17,2.38-.14,1-.25,1-.27.74-.28.38-.71.29-.33.3-.09.41.33.94-.22.32-.77.35-.52.42-.39.64-.33,1-.36.76-1,1.09-.36.71,0,0-.34.61-.24.62-.06.65.19.67,0,.65-.36.53-.41.5,0,.18-.11.38.68,1.09,1.41.23,2.62-.29.49.11,1.43.71.44.29.22.47.17.56.22.62.44.56.33.12.28-.12.25-.06.3.23,0,.27-.14.79,0,.3.28.55.57.06.64-.23.52-.27,1.1-.11,1.1.5,1,.85,1.49,1.76.08.47-.41.65-1.4,1.09-.33.44-.17,1.5.8.91.91.67.16.86-.35,1-.28,1.23-.08,1.23.22,1v0l.16.83-.55,1.47.25.82.55.29,1.49.15.63.47.58,1.41.36.41,1.46-.2.38.44.22.7.36.65,2.32,1.47.9,1.06-.13,1.58-.47.62-.55.32-.5.42-.3.88.14,1,.38.85.25.82-.25.94-.49-.85-.8-.38-4.24-.59-.75,0-1.29.59-1.54,1.11L773,493.85l-1,1.2-1,.79-1.07.56-3.42,1.12-.33.56-.14.76-.6,1.06h0l-.36.82-.39.39-.49,0-1.68-.45-.36-.29-.28-.5-1.59-3.58-.31-1,0-1.06.33-1,.69-.85.5-.33L762,492l.39-.2.33-.56.06-.5,0-.62-.22-1.08-.33-1.12-.47-.85-.66-.68-.91-.59-3.88-1.55-.75-.15-1.35-.21-1.82.27-1.48,1.23-1.19,1.71-1.24,1.41-2.15.38-.71.73-.53.12-.27-.17-.88-.86-.39-.26-1-.24-1-.08-4.13.26-1-.12-1-.41-.75-.53-.33-.17-.52-.09-.5.09-1,.35-.52.09-.64-.27-1.87-1.53-1.65-.79-.55-.41-1-.82-.49-.09-.75.11-.36.15-.35.38-.36.06-.33,0-.28-.11-5.29-2.8-.69-.17-1.26.09-1.63.44-1.54.64-1,.77-1.71.56-1.62-.24L705,482.47l-.33-.26-.19-.85-.33-.27-.5-.06-.35,0-2,.79L701,482l-.25.41-.08.36,0,.32-.17.41-5,7.23-.49,1.32-.14.3-.66.26-3.44.59-2.32.73-1.79.21,0-1.38-.08-.71-.33-.29-.44-.65.72-2.76-.28-.62-.27-.14-1.35-1.09-.2-.27-.19-.47-.17-.26-.27-.09-.25.21-.25.29L683,486l-1.22-.59-.55-.09-.05-.2.08-.5-.05-.56-.47-.56-.72.59-.58.35-2,2.62-3,2.79-1.76,1.06L668.05,492l-16.77,3.88-11.21.53-.86-.23-1.81-.74-9.59-1.88-7.55,1.09-2,.76-5.4,2.94-1.84.53-.91,0-.88.18-.86.32-.82.5-5.32,3.53-2.87,1.88-1.51.7-1.52.27-1.43.5-4,2.35-8.65,3.2-13,2.44-8.16,1.53-2.14.09-6.2-2-2.1.15-.88.23-6.55.33-2.81-.36L538,513.45l-1.19-1.2-4.24-4.44-2-1.09-7.66-2.26-2.64-.33-1.38.15-2.7,1-3.91,2.44-.72.47-1.13.29L504,511.42l-6.67,1.41-2.45,1.06L489,517.65l-1.68,0-6.53-1.17-.91.06-2.54.64-.77-.08-.66-.21-.66,0-.74.32-.64.62-.3.47-.38.12-.8-.44-.75-.68-.16-.56.36-1.58-.06-1-.3-.62-1.24-1.12-.61-.58-.77-.45L468,511l-.77-.18-2.53-.17-7.41-2.53h0l-.39-.06-.38,0,.14,1.21-.44.94-.67.88-.49,1-.17,1.09-.05.94-.14,1-.47,1.14-.55,2.09,0,2.2-.17,2.12-1.21,1.88-.16.76.08.8.77,2.67.22.39.28.23.63.29.19.12.2.35.11.33.05.38v.41l-.27.74-.23.47H454l.39.38,1.32.15.66.26.47.53.41.76.28.8.13.7,0,1.12-.22.38-2.84.56-.77,0-3.06-.47-.74.12-.44.17-.17.3-.05.35-.19.29-.33.15h-.22l-.25-.06-1.1-.17-.55-.18-.5-.35-.5-.59-.46.47.57.65,0,.44-.33.32-.25.38,0,.71-.14,7.08.11,1.41-.86.27-1.59-.62-.8.32v0l-.33,1.71L441,551l-1-.29-1.29.47-.88,1.41-.25,3.47-.44,1.44-.09,0-.68.12L434,556l-1.18-.56-1.27,0-.63-.14-.47-.42-.08-.58.14-.65,0-.62-.5-.56-.8.12-.79.3-.8.14-.39-.12v0l.47-.65,1.73-3.06.44-.35,0-.85-1.1-3.41-2.81-4.62-.55-.73-.5-.82-.47-1.5-.55-.65-.66-.59-.49-.62-.44-1.08,0-.8,1.1-1.61.33-.38.39-.27.44-.12.47-.06.22-.17.47-1.18.33-.35.71-.38.36-.3.19-.44.22-1,.5-.32.19-.23.25-.24,1.6-.56.33-.17,1.9-2.36.3-.52.44,0,4.33-2.71.63-.15.41-.38.5-.88.39-1,.19-.76v-.62l-.17-.47-.22-.44-.16-.5V511l-.14-.73-.39-.86L436,506.07l-1.38-1.38-1.49-1.06-1.54-.38-1.4.53L428.8,505l-2.29,2.76-.55.44-.69.18-.38.32-1.33,1.53-.63.5-1.54.35-3.33.15-1.46.53-.47.47-.47.91-.44.29.16-.32,0-.27-.14-.17-.33-.24-.38.77-.61.58-.36.59.25.77.61-.8.91.27.11-.8.24.06.14.15.11.18.08.26.2-.35.05-.36,0-.35-.23-.29.58-.33.22.3.14.47.3.26.45-.14.38-.27.44-.17.52.2-2.36,1.09-1.13.85-.64,1.12.09.53.55-.36,1.79-2,.52-.36.63-.14L417,515.63l-.22.41-.36.88-.25.38-.16.5,0,.65-.06.53-.3.23-.38.09-.61.44-.39.12L413,520l-.52-.09-1.24-1.18-.39-.17-.55.14-.36.33-.11.41.39.09.36.11,1.37.59-1.7-.47-1.74-.21-.36.12-1,.5-.19.24-.14.35-.39.21-.85.29-1.05.85-.08.18L404,522l-.64-.94-.44-.2-.58-.18-10.16-6-1.13-.39-1.27-.85-.8-.29-.63-.06h-.55l-.14,0-.63.12-.55.23.08-.23.22-.77-.58-.29-1.65-1.74-3.28-1.7-.25.35-1.15-.65-1.74.42L375.5,510l-1.21.18-.44.17-1.24.68-.22.21-.42.94-.19.2-1.24.68L367,516.24l-4.33,2.68L361.4,520,358,524.33l-.36.73-.13.5-.39.32-.85.38-1.44,1.45-1.37.79-.11,1.29.22,1.56-.08,1.32-.83.62-1.21.26-1.1.39-.45,1,.22-.05.14-.15-.08.32-.77,1-.33.62-.14.7,0,.59-.22.33-.71,0V538l.38-.88-.19-1.35-.61-1.24-.82-.56-.61-.17-.5-.35-.46-.12-.64.5-.71,1.2-.42.41-.66.21.31.09.13.09.11.2-.44.41-.6,1-.47.21-.41.06-1.38.58-.28.21-1.24,1.32-.19.53-.25,1.32-.25.36-.11-.3-1-1.55-.16-.68-.36-.21-.55.12-.55.24-1,.82-.88,1.18-.88.85-.88-.18.55-.29v-.36l-.94-.11-1.7-.47-.83-.09-.85.18-1.44.7-.58.15-1.57-.53-.85-.12-.74.88-.86.12-1.81-.06-1.19.35-.44,0-.5-.11-.88-.45-.41-.11-.91.26-.52.62-.36.76-.55.71-.44.29-.17,0-.14-.17-.35-.15-.53-.09-1.26.09-2.68-.68-.77,0-2.59,1.38-.46.18-.34.53-2.14,1.65-1.74-.12-3.61-.82-1.54-.77-2.45-1.56-.14-.11-1.49-.12-.71-.21L287.41,542l-.41-.44-.31-.56-.71-.32-.83-.21-.63-.38-1.88-2.5-.35,0-.17-.26-.74-.5-.17-.3-.16-1.38-.11-.44-1-1.35-2.42-2.12-.5-1.41-.05-.38-.17-.35-.47-.62-.44-.76-.13-.18-.55-.21-.12,0-.71-1.52-.5-.8-.6-.35-2.45-2.47-.28-.15-.36-.06-.47,0-.44-.09-.3-.24-.25-.2-.22-.15-1.62.09-.8-.12-.36-.5-.44-.41-1.05-.38-1.1-.18-.74.15-.36-.38-1.54-.65-.8-1.09-.53-.5-.49.06-.83-.12-3.06-1.35-.68-.53-.58-.67L246,511.28l-1.18-.21-.08-1.21-1.44-.82-16.14-2.38-6.58.38-1.13-.32-.85-.5L217,505l-2.31,1.55-1.11,1.06-.55,1.53-.52.85-.19.41v1.53l-.22,1.59,0,.88.44.74v.32l-.33.41-.25.38-.16.5-.08.74.05.88.25.5.3.41.22.59.28-.36-.11,1.06-.55,1.74.11.58L210.89,524l-.61.77-.46,1.73-.89,1.35,0,.41-.52.83.05.85.44.67.58.36-.3.67,1,.39-.58.7-1.08.94-.49,1h.27l.2-.2h0l.09.11.27.09-.41.41-.55.41-.5.47-.44,1.09-.52.65-1.16,1,.06-2.06-.17-.88-.47-.41-1,.26-4.27-1.94-.83,0-3,.5-.38.44-.14.71,0,1h-.25l0-.3-.25-.67-.25.94v.41l-.58-.38,0,.35,0,.35-1.51-.32-.3-.15-.31-.29-.38-.15-.55.21h.85v.38l-2.7,1.41-.6-.09-.5.3-.47,0-.47-.18-.49-.09-.39,0-.19.09-.52.56-.69.38-1.52.32-.55.3.14.06h.11l0,.08,0,.24h-.39l-1,.29v.33h.83l-.56.55-.57.42-.64.29-.71.12v-.36l.22-.17.13-.15.09-.17.11-.18-.53.06-.11.09-.19.2-.44-.5-.5-.15-.49.06-.5.24-.11.18,0,.2-.14.21-.44.08v.15l-.66.88-.17-1-1.38-.64-.41-1,.55.26.22-.26,0-.44-.33-.24-2,.3v-.3l.36-.2.39-.15.44-.06.44,0-.88-.38-3.25.06-1.08-.24-2.5-1.44-.47.47-.22-.44-.14-1.38-.25.35-.13-.06-.17-.23-.25-.06-.41.18-.17.11-.08.15-.22.21-.19.29-.17.35-.16.27-.31.14-.35-.2-.25-.53-.19-.29-.31.35-2.45-2.29-.19-.18-.33-.73-.55-.62-2.4-.77-.66-.82-.55.35-.17-.61.06-.15.11-.24v-.35h-1.13l.3-.32-.47-.3-.24,0H153l.22-.47.31-.3.38-.18.47,0,0-.24,0-.06-.06,0-.14-.09.25-.88-.25-.85-.52-.65-.61-.32v-.29l.55-.45.22-.14.36-.09v-.38l-.16-1.71-.22-.85-.44.24H153l-.47-.59-1.92.73-.88-.14.71-.18.17-.47-.22-.68-.44-.7.24-.36.36-.91.28-.47.55.5.49-.47.53-.73.6-.27v.33l-.22.53.33.14.47-.11.25-.39-.08-.44-.22-.44-.28-.38-.25-.27-2.5-1.76L147.34,513l-.41-.44-.3-.74-.64.5-.77.91-.52.53v.3H145v.35l-.74.06-.33.09-.3.17-.14.41.11.45V516l-.52.14.22.42.11.14.22.15-.28.32.42.47.13.21h.25l.25-.5.22-.38.08-.47-.25-.68.72.65-.25.85-.69.76-.6.45.25.5-.45.26-.68.06-.53-.12-.38-.47v-.44l.33-.32.6-.15v-.35l-.66-.36-.41-.35-.41-.17-.69.23-.22-1.32-1.46-1-1.79-.35-1.21.61h-.28l-.19-.91-.44-.35-.53.18-.52.76-.28-.35-.52-1.36.36-.67.19-1-.11-.91-.44-.47v-.24l.06-.06h.11l.11,0-.09-.14-.08-.12V509l.17-.29h-.28l-.16.44-.09.23,0,.36-.23-.21v-.06l-.11-.38-.49-.56-1.21-.2-.86.5.14,1.23-.41-.35-.39-.09-.41-.06-.44-.15L129,509v-.35h-.91l-.58-.15-.3-.47-.14-1h.28l.19,0,.08-.17-.05-.3-.11-.11-.09-.09-.05-.18-.08-.5-.2-.32-.19,0-.08.47-.36.44-.8.26-1.18.12-.42.12,0,.32.25.33.27.29h.25l.33-.09.39,0,.41.38-.41.71-.33.73-.42.5L124,510,121.92,509l-.39-.29h-.24l.16.76.08.27-1.07.06-.41-.12-.17-.44.17-.44.44-.21,1-.2V508l-.49-.32-.58-.5-.61-.29-.66.26-.55.82-.27.83.13.7.56.5-.2,1.06,1.6,1.2.28,1.12-.5-.32-.63-.21L119,513l-.25.76-.28-.14-.24-.24,0,.24-.06.17-.08.12-.16.15.19.09h0l.09.26-2.1.7-.77.59-.74,1.09-.53,1.06-.77,1.23-1,.74-1-.36-.16.33-.11.17-.17.09-.36.09.09.15.08.35.08.18-.49.2-.42.06-.3-.17-.17-.45-.41.71-.52.09L108,521l-.46-.5.08-.14.11-.36.08-.14-.22-.18-.11-.15-.22-.32h3l.77-.35.47-.5.41-.56.58-.65-.55-.67-.8.73-.33.27v-.33l.39-.41.13-.59-.13-.58-.39-.44-.41-.27-.11.15,0,.62-.19.23-.44,0-.47-.2-.28-.18-.35.15h-.45l-.41-.21-.16-.44.22-.18,1.43-.32-.28-.35.86.06.25-.06.19-.15.25-.24.16-.2,0-.09,1.52-.12.41-.2-.16.79.6,0,.64-.44v-.74l-.36-.26-.8-.09-.22-.32.08-.32.3-.27.47-.41.25-.35.14.32.16.21.53.5-.2-.86-.08-1-.19-.41-.5-.11-.47.05-.33.24-.68,1.09-.89.56-.33-.06-.19-.5-.61.58-1.57.45-.57.32h-.28l-.19-.59-.39.15-.49.47-.61.32-.19-.67-.31.05-.3.36-.3.26-.28-.17-.24-.36-.28-.09-.28.62h-.27l-.52-.44-.69-.41-.8-.15-.75.33v-.33l-.49.24-.44,0-.53-.15-.63-.06-.66.21-.85,1.09-.58.38v.32l.11.44-.55,1.56-.09,1.06-1.32-.65-.74-.26-.66-.12-.72.09-.6.14-.45,0-.19-.52-2.75,1-.17.33-.16.23-.22.15-.2-.12-.46-.47-.31-.12-.91-.17-.41,0-.47.2-.08-.61-.33-.33-.44,0-.5.3v-.21l0-.09h-.11l-.14,0,.22-.3v-.29l-.17-.27-.33-.17v-.3l.5.21.66.15.66,0,.52-.24.36-.53.17-.76.44-.59.44-.32.39-.09,1,.09L91,511.3l1.44.12.77-.23.22-.53,0-.68.22-.59.91-.23,1.81,1.09L97,510l.64.35.57-.06.53-.08.47.14,1-1,.56-.26,3.52-.12.41-.17.28.32.63.29.83.21.77,0,1.41-.18.66.21.69.64.13-.5.22-.29.77-.56-.27-.59-.39-.29-.55-.12h-.74l.27-.32.39.12.06-.3-.25-.47-.47-.41.19,0,.11-.06.11-.11.17-.09.27.14.33-.11.33-.24.44-.18v-.29l-.82-.82-.3-.44-.25-.47.52.38.3-.38-.24-.15-.11-.15-.09-.17-.13-.24.33,0,.68-.06.36,0V503h-.8v-.33l.94,0,.39.09.3.27.25-.24.19-.06.19.09.22.21h.25l.41-.27.89.44L115,503h.22l.08.38.25.62.11-.24,0-.12-.06-.08-.08-.27.14-.2,0-.15-.14-.15-.3-.12v-.35l.39-.06.33.06.25.12.16.23.8-1.35.3-.35v-.35h-.55l.33-.47.22-.53.64.5.66.11.33-.26-.25-.71,2.15-.85,1.18-.26v-.33l-.27-.35-.31-.23-.41-.09-5.26.76-1.93,0-.77.18.11.53v.35l-.69-.35-4.27-.68-.44.15-.49.41-.47.12-.44,0-1.19-.29-1,.08L101,499.37l-.42-.15h-.25l0,.21-.25.5-.3-.12-.41-.06h-.47l-.47.18-.8-.59H96.28l-1.27.44-.77.8-.75-.44-1.13-.44-.93.08-.2,1.15-.93-.68-.42-.2-.57-.12-1.24.15-.44-.15-.39-.38-.72-1.06-.27-.26-.61,0-.6.53-.22-.35.05-.2h-.3l-.08.47-.44,1.23-.17-.26,0-.09.09-.09.11-.27-.06-.05h-.08l-.08-.06-.06-.21.17-.17,0-.06,0-.09-.14-.35-.36.26-1.07.21-.5.2v.32l.17.53-.25.56-.5.41-.55.21.2.5.11.18-.36-.09h-.22l-.28.09-.25-.36-.71.18-.42-.76-.22-1.06,0-.88-.19-.83-.36-.61-.14-.74.41-1,.36,0,.66-.29.72-.44.49-.59-.27-.26-.36-.12-.36.09-.38.29L79,494l-.08-.14-.09-.36.31.3.47-.56,1.24.47.77-.21,0-.35.08-.38.06-.47-.11-.53.44.12.27.29.14.44,0,.56h.28l.19-.53.3-.38.31-.09.3.29.11-.11.06-.06,0-.06.09-.12,0,.85.14.21.3,0,.41,0,.33.24.25.2.28.09.52-.21-.08.12-.06.06,0,0-.11.09.6,1,.55.38.64-.15,1-.76.86-.36.33-.29.44-.26.93,0,.45-.24v-.35l-.56.09-.11,0-.19.21-.3-1.56-.3-.82-.47-.35v-.36l1.87-.41.52.12-.46,1,.44-.15.33-.23.6-.68-.63-.2-.22-.36,0-1,.08-.2.49-.36.25-.26.11-.35.06-.65.08-.35-.5-.33,0-.05-.36-.06-.08.11,0,.21-.08.12-1,0-.46.12-.2.41-.22.73-.49.68-.64.32-.6-.2.71-.62.09-.65-.44-.44h-.91l-.11.21-.39.38-.41.21-.19-.3.11-.47.24-.47.75-.91-.06-.38.22-.53.06-.68-.47-.79h-.3L87.46,484l-.91.5-1.1-.21-.88-.67-.3-1.09.3-1,.74-.79.94-.47-.47-.74-.77-.35-.17,0-.68,0-.64.32-.38.65-.2.65-.38.41h-1v.35l.57.41-.24.18-2.37.17-.55.18-.47.41-.28-.38-.3-.21h-.28l-.24.24-.06-.35,0-.18-.17-.15-.3.21-.11,0-.11-.09-.33-.15.41-.47L77,481l.08-.53-.19-.56.63-.29.22-.06v-.32l-.36-1,.22-2.26-.71.2-.22-.29h-.28l-.3.23-.31.38.17-.85.25-.73.11-.71-.25-.76.17-.33L76,473l-.17-.29.17-.56.63.41.39-.8.11-1.08-.17-.56-.57-.21-2.32-1.5-3.52-.94-1.49-.76.36-1,.71-.21,2.7.21.88-.12,3.45-1.23.55-.38.91-1.15L79,462l.14-1.12,0-1.06,0-.62-.31-.47-.38-.44-.25-.56.08-.94.14-.2.52-.44.2-.36.14-.47,0-.38,0-.41-.16-.47.58-.5-.33-1.12-1.11-1.79-1,.32H75.75l-1.46-.23-1-.41-.22-.27-.14-.35-.22-.29-.41-.15H72l-.3-.09-.25-.15-.08-.23-.14-.79-.36-.24-1.16-.2-2.06-.77-1-.12-1.27.24-.71.29-.28,0-.19.18-.11.35-.17.35-.35.18-.33-.26-.91-1.8.22-.61-.06-.74-.19-.73L62,443.5l-.41-.71-.88-.85-.39-.5-.69.35-.19-.61.08-1.47-.52-.47-.63.06-.72.26-.74.15-2.54,0-.38.14-.53,3.24-.19-.15,0,0-.08-.15h-.25l.11.74v.62l-.19.5-.5.2-.24-.2-.47-1.24-.39-.62,0,1.06-.41.09-.52-.41-.8-.85-.25-.42-.08-.5.14-.67-1.11.26-1-.82-1-1.06-1-.44.16.8.11.23h-.27l-.22-.32-.88-.86.05-.52.11-.45,0-.44-.19-.5H43.8l-.33,1.36-.85.32-1-.32-1.32-1.09-.36-.24-2.1-.61-.08-.33.25-.76,1.07.44.45-.68.38-.91.85-.23v-.36L40,433l-.11-.92.33-.52.52.58.09-.47.08-.17.17-.12.22-.24.16.62,0,.53-.14.47-.33.44.19.15.22.09.25.06.33,0,.3.06.09.21.05.23.25.18.58,0,.58-.12.27-.32-.33-.59v-.35l.64.41h.24l.5-.06.47-.2,1-.71.3-.15.55-.44.06-1-.36-1-.69-.55v-.39l1,.47.46.53.36-.06.61-1.26-.55-.35-1-.88-.83-.3-.52-.47-.39-.06-.39.21-.3.68-.27.14-.8-.06,0-.2.35-.5.28-.94-.17-.62-1.21-1.79.25.35-.11-.62-.5-1.5,0-.29,0-.35L42.4,419l0-.71.09-.73.19-.59.41-.24.61-.09.88-.44.44-.11,1.08.08,1,.27.88.41.74.59,1.35,1.44.66.91.2.76.93,1.47,1,1.27.36.35.28.21.22.26.22.56.08.56,0,.47,0,.47.22.5-.28.23-.13.06-.17.06-.3-.29-.44-.09-.47.12L52,427l.69.35v.44l-.36.59-.33.74,1,.11.42.53.24.77.44.79.72,2.26.63,1.09.89-.29.19-.62-.25-.44-.63-.47-.28-2.06.19-.85.47-.88.61-.53.66.2v-.32h.27l.45.5.46.91.75,2,.19-.12.47-.14.16-.12.31.64.6-.08.72-.36.72-.2,3.19-.33,2-.91.66-.14.19-.09.52-.44.22-.15.42,0,.38.15.39.08.47-.26,0,.21.22-.21,1.1.53.94-.59,1-1,1.16-.64v-.33l-.41-.29-.17,0-.27.26L74.1,427l-.77.35L72,427.25l-.33.17-1-.5-1.08,0L67,428l-.86.38-.14,0,.42-.58-.72-.47-1.21-1.92-.55-.35-1-.29-.39-.27-.91-.67-.49-.83.57.56.72.53,1.1.68.64,0v-.35l-.5-.56-.5-.47-.57-.36-.64-.32.17-.59.22-1.23.16-.59-.58-.56-.38.18-.44.35-.83,0,.19-.53.11-.2-.88-.3-.49-.06-.55.06.08-.23.11-.56.05-.24H58.4L58,418l-.74-.5.3-.32.31-.24.33-.12.44,0-.8-1.14-.31-.68L57.3,414l.74-.47,2.07-.44,1.18-.8.22.09.17.18,0,.09.06.06.47.06h.38l.91.41.58.17.61,0-.25-.67.38-.27.33-.32.31-.12.36.35.11-.38,0-.38,0-.41-.08-.53-.28.38-.83-1.41-.27-.35,1.62-.68.25,1.09.66.12.44-.65-.52-1.26.69-.21.6-.32.53-.41.38-.41L70,407l.85-.52.31-.8-.86-.23.66-1.36v-.55l-.66-.5-.69.58-.44.3-.46.12-.78,0-.19-.18-.41-.71-.19-.14-.5.14-.33.27-.3,0-.39-.44-.47.41-1.38.76-.52.15-.41-.21-.64-.91-.6-.2-.75-.53-.38-1.15.08-1.26.64-.83v-.35l-.2,0-.66,0,.52-.62.91-.67,1-.53.77-.24.41-.44-.3-1-1-1.52-1.13-1.39-.55-.44-1.24-.61-.33-.15-.77-.59-.55-.65,0-.5-.3-1-.2-1-.3-.77-.69-.32-2,.12-1-.09-.8-.32.42-.42.22-1,.3-.52.52-.21.36.24,0,.32-.71.17v.33l.44,0,.36.15.33.26.27.32-.25-.76.22-.41.44-.24.42-.26.69-1.06L61.16,380l-.36-.3-.2-.06v-.29l.06-.35,0-.3-.09-.41,1.46-.12.56-.2.49-.38-.44-.74.63-.5,2.35-.7.13-.09v-.21l.09-.5.55-1.91-.06-1.09-.25-.7-.63-.35-1.16-.12-.93.38-.72.68-.77.32-1-.71-5.65,1-8.48,1.5-.91.38-.39.45-.41,0-1.79,1-.3.23h-.5l-2.12-.38-.41.06-.52.26-.45.06-.35.41-.09.12-.11.26-.27-.11-.44-.36-3.17.8h-1.6l-1.57-.8-.16-1.08,1-2.65.63-2.47,1.49-1.44.35-1.17.28-2.77-.17-.53L34,362.64l-.16-.64,0-.47.17-.15.19-.12.14-.32v-1.21l.19-1.32-.14-.44-.6-.12.22-.58.6-2.53,0-.3-.22-1,0-.47.11-.44.36-.67.08-.44.17-.44.82-1.44.39-.36,2.15.71.63-.41,1.35-.59.41-.24L42.59,347l.36-.56.11-.44,0-.65.14-.29,0-.21,0-.23v-.18l.11-.09.47,0,.19-.06.17-.14.27-.65.14-.91v-1l-.27-.77.24-.73.22-.32.28-.06.52,0,.55-.12,1-.47,1.32-.35.77-.62,1.77-2.29.35-.21.36-.15.55-.26.5-.41,4.32-5.09.83-.64,1.68-.12,3.47.29,1.38-.32.44.12,1,.59,2.28.2.88-.2,1.13-.89,1-1.2,1.24-1,1.88-.06,1.35.24,1.54,0,.91-.2,1.35-.8.63,0,.66.49.42.74.6,1.53-.55.38H81l-.2-.21v0l0,.09-.31.15,1.74,1.82,2.23,1.44,2.4,1,2.83.65h1.13l.44-.06,1.41-.91.63-.15,1.13.27,1,.44.93.17,1-.53.82.36,1.22.08,1.1-.26.93-1.35,2.18-1.09.66-.88-.74,0-2-.68-.61.36h-.36l-.14-.5-.08-.5-.25-.15-.24-.06-.25-.18-.28-.41-.16-.2-.11-.3,0-.64-.11-.36-.3,0h-.36l-.33-.12L96.5,325l-.36-.5v-.32l.49-.2.39-.3.66-.73.44-.21.36.21.33.08.39-.61.77.94,0,.15.36,0,.11-.14.11-.18.39-.09,6.66,1,1.76.59.83.85-.72,1.21L106,328.49l-1,.85.19,1.3,1.46.44,3.34-.33,3.38-1.2,9.51-.41,2.12.32,3.47-.12-.44.09-.33.21-.25.29-.11.44,1.62-.59h1.85l1.93.47,1.79.86.25-.3.13.06.17.18.27.06.36-.15.42-.41.33-.18,2.25-.35.64-.5.58-.32.8.11,1.37.42,1.21,0,1.13.27.55.23,1,.59.69.24.71.09,3.12-.06.71-.15.55-.41.33-.68.36-1.35.31-.59.52.21.63,0,.72-.21.6-.32-.71-.85-.91-.77-.94-.59-.91-.23h-2.17l-.36.18-.88.7-.44.18-2.12-.5-3.56-2.15-2.17-.47.74-1.56,1.38-.88,2.83-1.08,1.22-.74,1.7-1.7.67-.27,11.87-1.06,1.68-.56,1.62-.88.83-.64.3-.06.31.26.3.5.38.33.5-.24.36-.23.49-.18.47-.27.17-.35.16-.38.39-.27.44-.17.44-.09.39.09.66.29.6.62.25.94h.44l7.8-1.7,4.57-.24,1.49.65h.82l.61-.94-.41-1.18-1.57-.29-3.26.41-.27.09-.3.14-.33.12h-.47l-.47-.2-.8-.71-.25-.18-.63-.08-1.43-.5-.8-.09-9.56.38-.74.23-.64.48-.69.29-.82-.32-.33-.42-.2-.5-.16-.35-.44-.15.16-.11.11-.09.11-.12.2-.06-.14-.5-.28-.38-.3-.26-.41-.21-.17.32-.38-.32-.33.29-.47.15-1.1.24v-.3l.38-.06.28-.2.13-.35,0-.5.39.23.16.15,0-.24,0-.09.11-.05H161l-.44-.65-.8-.94-.41-.3-.5-.35-.82.15-.78-.74-2.28-1-.83-.65-.82-1-.83-.65-2.2-1.14.13-.09.06,0v-.06l0-.2-.44-.21-.22-.53-.13-.7-.28-.65.74-.41.8-.88.66-1.06.55-1.94.47-.74.11-.61-.88-.62,1-1.41,1.48-1.62,1.6-1.09,1.24.21h.25l.38-.53.64-.06,7.54,1.35,8,1.83,10.68,1.52,10.14.27,1.16-.15.58-.26,1-.65.52-.15.39-.29.3-.59.28-.41.3.26.44-.44.5-.76.44-.24.52.42,1.65.35,1.35,1,13.25,3.08,1.33,1.12.63.38,3.44.62,10.36-.26,1-.56.39-.12.46,0,.89.24.44.05,1.65-.32.25.06.38.21.2.05.3-.08.08-.21.08-.24.25-.17,1.65-.62,1.35-.82,2.21-2.09.58-.7.33-.71.16-.82,0-1.09.08-.44.39-1,.08-.62-.16-.29-.78-.47-.13-.44.44-.65.85-.32,1.85-.09.22-.23.66-.95.22-.23.41-.09,6.06-2.26,8.57-5.47,4.87-2.32,1.46-1.09.42-.23,3.8-1.24,1.13-.64.66-1.27,2.61-2.88.2-.26.6-1.15,1.35-.35,2.21-.12.08-.32.33-.12.41-.24.09-.35.11-.23.22-.12.19.12.36.5.13.08.72-.32.88-1,.61-.5,2.75-1.38.47-.32.55-.27.58-.06.61.3.46-.83.94-.64,1.1-.21.94.44.63-.06,2.48-.88.61-.29.58.06,1.15-.09,1.16-.26.69-.42.44.24,2.84-.71,1.43-.61,1.87-1.21,6.34-2.06,6.39-3.17,1.46-.09,3,.5h4.27l.91.15,2,.73,8.6.83.74-.27,1.13.44,5.23-.44,13.2,1.79,4.6-1.26,1.48-.15.64.18,1.15.59,1.41.44,5.32.32,2.09-.23,2.12-.62.66-.35,1.52-1.15,1.46-.85,1.18-1.41.94-1.77.24-1.5.56.18,1.15.21.53.32.08-.32.19-.09.22,0h.33l.28.62.44.44.27.35-.16.38v.29l1.49,1.18.91.38,1.18-.09.41-.26.66-.68.44-.11.61.05.39.24.82.76v.36l-2.17-.27-1,.12-.85.65-.36.79L394.5,249l-.22,1.17,0,1,.27.8,1.08,1.94,1.21,1.49,2.18,1.8v.35h-.55l.24.65.39.85.52.68,1.16.58,1.18,1.36.61.47,2.4.94,1.76.26.63.41,1.3,1.18,1.49.79,1.76.56,1.87.23,1.74-.14.85-.33,1.52-.91,2.5-.41,4.24-1.73,1-.15,1-.32,1.63-1.27.91-.2v.35l-.2.32-.22.3-.33.26-.38.18.05.76-.74,1.62.14.82h.3l.08-1.23.39-1.12.55-.91.58-.62.41-.35.19,0,2.43,2.15v-.71h.27l3.06,3.79.55,1.47v2.09l-.14.53-.36.82-.05.27,0,1.67.14.76.44.89,1.79,2.17,1,.68,1.29,2.44.66.53,2,1,1.13.27.22.23.11.42,0,.52.14.59.33.27.44.14.47.21.22.24.41.61.19.21.39.14.77.09.33.27.77.32,1-.23,1.68-.92,2.14-1.82.33-.47.14-.5.55-.94.14-.32.08-.09.28-1.09-.08-.09.52-.44.55.06.66.24.88.14h3.47l3.17.8,5.95,2.88,1.24,1,.66,1.61.08,2.27.25.88.66.35.86.21,1.54.91.77.32,5.15-.06,1.46.39.94.82.44.23.83.27,1,.09.69.2,1,1.09.69.5,1.65.5.17.29.94,1,.79.3,1.6-.15.66.18.22-.3.58-.2.3-.21.28-.41.52-1.35.5-.86.58-.82.69-.67.71-.47.36.82.66.47.77,0,.69-.59.28.32,1-.14.06,3.2.69.85,2.06,1,.55.41.44.5.69,1.21,1.57-.68,1.9.27,4.85,1.55,2.37.39,1.63.55h.91l1.76-.47.77.18,1.76,1.5h.83l1.51-.47,1.52.41,1,.12.47-.38,3-.15.63-.41,1.49-1.41.52-.3,1.29-.38.5,0,.25.21.63.85.28.29.38-.2h.77l.45-.12.27-.21.33-.35.41-.32.5-.15.8-.94.16-.29.17-.12.91-.32,2.81-.56.66-.41.63-.56.77-.24,4.6-.06,3.25-.7.36-.21,1-.82.47-.12,1.32.12.77.23,1.24,1,.88.12.69-.21,1.1-.67.8-.15.47-.17,2.18-1.24.25-.21.13-.2.22-.18.5-.14,2.51.58.57.56,1,1.32,2.4,2,1.54.86,1.6.29.8-.24.83-.38.79-.12,1.08.77.47,0,.88-.06.36.12,2.39,1.85.72.32.77.15.63-.44,2.57-.85,1-.09,2.31,2.08,1.16.77,1.63.29.68-.12,1.19-.47.93-.23,1.44-.53.93-.59,1.88-.5,6.58-4.2,1.4.59,1.19.14,1.13-.32,1.27-.76,1.51-1.27.55-.14,1.24-.15.61-.21.49-.32,2.4-3.09,2.81-2,.47-.18.6.09,1.71.61,1-.17,1.51-1,.67-.24.85-.11.94-.3.88-.47.77-.53,1.57-1.58.83-.59,1-.24,1-.05.75-.24,3.77-3,1-.35.88-.47.41-.15,1.41-.17.52-.18.74-.56.64-.88.41-1.09.14-1.15.41-.26,2.37-2,.55-1,4.27,1.74.52.08,1.22-.08,1-.44h.3l.06.2,0,.38,0,.41.19.33.47.17,1.16.15.55.18,1.6,1.44.49.17.39-.2,1.6-1.32,1.26-1.74.55-.41,1.63-.62,2.89,1.06,1.41-.44.58-.26.57-.06.55.08.58.24,1.27-.35.61,0,.57.32.67.62,1,.06,2-.09,7.08,2.64.53,0,.46,0,.86-.52,1.21-1.77.85-.88.42-.82.38-2.09.42-.85.79-.62h.06l.16-.06.8-.26,2-.15,5.62.47.77.35-.33.47-.11.53-.08.5-.17.44-.33.39-.8.64-.33.5,1,.59.77.82.75.24,1-1.09.55-.32.28.32.24.65.33.56.31.17,1.18.38.25.24.16.23.2.21.36.12.3.35,1.21,2.17.58.62,3,1.94,2,1.62,1.24.59,1.19.14,0,.27-.55.73-.58.5-2.2,1.06,1.1.32.88-.08.8.08.83.89,1,2.29.58.41,3.69-1,1.18-.09,1.27.32,1.1.62,1.08,1,.58,1.21ZM109.52,248.87l.56,2.47,0,.56.2.14.24.33.2.38-.09.35-.35.24-.42-.09-.74-.29-.66,0-.53.27-.35.7-.11,1.3.24,1.35.58.94.75.79.66.94.74,2.33.47.67.74.65.33.38.2.56.11.09.11.14,0,.3-.11.2-.22,0-.19,0,0,.33.28.82.57.94.64.77,1.16.64.57.77.86,1.32,2.23,2,6.09,3.67,8.7,3.59,12.4,5.67,4,.85.19.09.11.12.11.11.25,0,.3-.08.25-.5.28-.09,1,.12,1,.38.61.59L153.1,288l-.52.94-.69.88-.69.38-.47.15.11.35.33.39.22.44.28.35.05.09.22.11-.08.3-.16.26h-.11l-.14,1-.28.91-.38.8-.42.61-.33.27-.71.23-.33.24-.33.44-.06.26,0,.21,0,.23.13.18,0,.3-.22.26-.2.06-.85-.06-.36-.29-.22-.06-.25.14-.33.47-.14.09-.44.12-.74.47-1.6.32-.38.15-.22.18-.17.2-.25.21-.47.12-1-.06-.46-.15-.2-.32-.44-.39-1-.05-4.82.61-1.21-.5.33-1.61-.47-.47-.27-.15-.39-.09.3-1.17-.41-1-.83-.71-1-.23.19.73.88.88.31.86,0,.52-.11.74-.28.7-.5.45-1.15-.15-2.07-2.06-1-.53-1.35-.2-2.78-1-1.4-.21h-1.38l-.33-.12-.44-.5-.33-.11-1.49.32-.72.06-.27-.18-.39-.2-1.93.7-.3.18h-.39l-2.23.88-.57.15-.69.35-.64.44-.44.44-.88,1.38-.27.68,0,.41-.72.21-3.25-.39-.6-.38-.55-.47-.66-.38-1.57-.41-1.55-.09-8.59,1.2-1.27.71-.85,1.71-1,4.08-.88,1.56L81.92,311l-1.73,2.91-3.61,2.59-.22.24-.41.61-.2.18-.41.15-1,.11-1.1.71-1.88,0-.85.12-.69.53-1.15,1.58-.47.36-1.08.11-.52.09-1.54.44-2.34,1.41-.61.56-.72.47-2.48.35-.74.45L56.89,326l-.55.24-.47.29-.36,1.5-.41.62-1.33.7-.24.39-.09.85-.24.82-.61.68-2.2,2-.31.17-1.15.3-.56.41-.85.85V336l-.19.2-1.08,1.21-.71.59-.91.55-1,.41-.82.15-.55.44.11.91.52,1,.58.47-1.93,1.77L41,344l-1.6.91L38.16,346l-.5.29-2.15.74-.41,0-.39-.27.11-.62.31-.58.24-.3.66-.47.45-1.09.33-1,.22-.5,1.79-2.44.49-1.82-.19-1.39-.77-1.08-1.21-.91.44-.33.11-.35-.17-.27-.49-.08-.2-.24.36-.5.52-.41.28-.09.44-.41,2.07-.76.8,0,.6-1,2-1.24,1.91-1.52,2.36-.86L49.94,325l1.13-.7,1.27-.56,1.1-.26,1.88.23.57-.23.56-.56.82-1.27.58-.61,1,.44,1.27-.41,1.16-.92.49-1.08-1.24-2.5-.3-.47-.41.06-2.67.41-.94.44-.52.15H52.89l-1.1.35-3.06,1.73-1.15-.73-.64-.24-.69-.06-.52.21-.63.35-.64.21-1.07-.53-.69.06-2.15.62-7.46-.06L32,318.88l-.58-.32-.33-.77-.25-.94-.35-.76.3-.8-.11-1.08-.41-1.12-.61-.79.33-.09.11-.09,1.51.15,1.24-.59.89-1,.35-1.35.61-.94,2.18-1.79-.31-.56.06-.36.11-.17.38-.18-.13,0-.11,0-.06-.09,0-.23.38-.09.17-.12,0-.26v-.53l.22.47,0,.21H38l.3-.3.22-.44.33-1h.25l.14.3.22.23.28.15.35.06.53-.15,0-.32-.25-.36-.11-.23.5-.47,1.13-.53.57-.41.39-.53-.11-.18-.39-.17-.41-.53-.11-.44.11-.33.33-.2.61-.06.36-.29.27-.59,0-.59-1.07-.5-.36-.56L41.46,295l-.11-.74.69-1.32-.3-.24-.61-.17v-.42L41.9,291l-.49-.91-.11-.89.16-1,.44-1.12-.63-.91.44-.38,2.56-.27.69-.32,1-.94,1.13-.68.22-.26.11-.21.16-.18.44-.05,2-2.09.41.5.77.41.86.24.77-.09.5-.5.38-.85.19-1.09v-1.09l-.19-1-.63-2.5L53,272.88l-.2-.88-.41-.73.25-.53-.17-1.33.2-.61-.17-.3-.08-.32-.06-.38,0-.38-.77,1.08-.41-.41-1.82-.88-2.29-1.68.36-.64.14-.74-.66-.14-.69-.3-1.54-.38-1.11-1-.71-.23-1.05.11-.41-.56-.28-1,.14-1.12.58-1.24,1.65-1.41,4.16.18,1.9-.56.55-.7.33-.94.17-.94.05-.39,0-.29,0-.27.16-.47.06-.29-.14-.18-.47-.29-.08-.18.17-.35.24-.23.31-.21,1.15-1.2.66-.45.72-.08,3.77.61.78-.08.41-.3.88-.82.47-.15.38.18.75.62.44.11.33-.14.41-.36.5-.38.41-.26h.44l.39.11.38,0,.42-.44.41-.14.77.11.33-.08.47-.53.33-.62.36-.53.55-.24.77-.5.91-1.61,1-.47h.06l.69,0,.74.2.69.39.61.5.46-.06.89.06,1,.23.16-.06,0-.2.11-.21.88-1.15.52-.38.89-.12,1.4.33,1.3.73,1.07,1L83.69,247l.91,1,1,.79,3,1.59.6.5,1,1.29.52.35.66-.26-.55-.24.08-.11.25-.12.14-.12-.11-.06-.14-.06-.11-.08,0-.12.88-.3.41-.26.3-.41.31.23h.22l.14-.26.11-.5,3.11-.79,1.49,0,2.12,1.09.55.18h.52l.5-.21.11-.29-.64-.38.11-.5v-.71l.11-.53.17-.06h.33l.16.06.75-.11.38,0,1,.24,1,.5.55.18,2-.24.6.21Zm-78.72,109,.69-.35.22.47-.06,1.76-.27.77-.63-.06-1.3-.88L28.27,359l-.55-.41L27.5,358l.3-.41.74-.15H30l.25.06h.22l.17.06Zm-1.93-16.66v1l-.88.47-.91.32-2.72.41-1.77.74-3.63.56-.83-.06-1-.33-.5-.26-.19-.3-1.66-.52v-.33l.91-1.44,1.33-1.35,1.62-1,2.73-.5,3.47-1.26.52-.09.5.06.25.23.22.38.3.33.58.12v.35l-.11.41-.09.65v.64l.2.38-.36.8.39.2.74-.2.58-.47Zm66.19-24.72.64-.18,1.18.18,1,.53.19.88-.74.53-1.52.23-.77.24L93.74,320l-.8.32-.88-.38-.44,0-.8-.33-.63-.55L90.3,318l-.28-.35-.22-.44.17-.56.33-.36.27-.17.22.14.14.56,1-.5,1-.35h1Zm-.49,9.82.33,0,.16.14,0,.42-.44.08-.58-.29-.66-.15-.75-.06L92,326l-.08-.59.44-.35.33-.64.33-.45,1.32.56.09.36-.22.44-.06.58Z" style="fill:#efc441"/></svg>