<?xml version="1.0" encoding="UTF-8"?><svg id="Tuvalu" xmlns="http://www.w3.org/2000/svg" viewBox="0 0 720 540"><path d="M475.47,524.19c-.52,0-1.03-.13-1.49-.38l-.14-.08c-.15-.08-.29-.17-.43-.28-.25-.17-.48-.37-.67-.61l-.23-.29c-1-1.23-.94-3.01,.13-4.17,0,0,.24-.26,.26-.28,.28-.32,.61-.59,1-.78l.15-.07c.44-.22,.92-.33,1.41-.33,0,0,.79,0,.8,0,.75,0,1.47,.26,2.05,.74l.24,.2c.78,.65,1.2,1.64,1.14,2.65l-.02,.33c-.05,.74-.35,1.43-.85,1.97l-.19,.2c-.24,.25-.51,.47-.82,.63l-.3,.16c-.46,.25-.98,.38-1.51,.38,0,0-.52,0-.52,0Zm40.34-130.72c-.47,0-.92-.1-1.34-.3-.66-.22-1.22-.65-1.61-1.22-.29-.15-.55-.35-.78-.59l-.04-.04c-.89-.91-1.12-2.22-.71-3.34-.73-.12-1.42-.49-1.93-1.1l-.24-.29c-.52-.62-.78-1.41-.74-2.22l.04-.73c.03-.56,.21-1.11,.52-1.58,.02-.53,.17-1.06,.45-1.53,.14-.27,.31-.52,.52-.73,.03-.04,.21-.23,.21-.23,.4-.43,.92-.74,1.48-.9,.45-.23,.95-.36,1.44-.36,.04,0,.3,0,.31,0h.64c.53,.01,1.06,.15,1.52,.41l.29,.16c.75,.34,1.33,.95,1.64,1.71l.13,.32c.2,.48,.27,1,.22,1.51,.18,.14,.34,.29,.48,.47,.02,.02,.04,.05,.06,.08,.1,.11,.2,.23,.29,.36,.07,.08,.14,.15,.2,.24,0,.01,.33,.4,.33,.4,.18,.21,.33,.44,.44,.69l.19,.4c.16,.34,.26,.71,.29,1.09,.13,.29,.21,.61,.24,.92,.17,.59,.17,1.22,0,1.8-.02,.15-.06,.3-.1,.45-.02,.13-.06,.25-.1,.37-.03,.12-.06,.25-.1,.36-.04,.19-.1,.37-.18,.55-.19,.78-.67,1.46-1.36,1.91l-.18,.12c-.11,.07-.23,.14-.35,.19-.42,.3-.91,.5-1.44,.57l-.32,.04c-.14,.02-.29,.03-.43,.03Zm-65-76.73c-.34,0-.69-.05-1.02-.16h-.05c-.97,0-1.88-.44-2.49-1.2l-.1-.13c-.49-.61-.74-1.38-.7-2.15,.03-.6,.23-1.22,.57-1.72,.04-.12,.08-.23,.13-.34-.02-.04-.04-.08-.06-.12-.27-.48-.41-1.03-.4-1.6-.15-.21-.28-.43-.38-.66-.25-.16-.47-.36-.67-.59l-.1-.12c-.52-.61-.8-1.4-.76-2.2v-.24c.04-.75,.33-1.47,.84-2.02-.31-.24-.58-.55-.79-.9l-.17-.28c-.59-.99-.59-2.23-.01-3.23l.12-.2c.57-.98,1.62-1.59,2.76-1.59h.14c.09,0,.19,0,.28,.01,.05-.14,.11-.27,.18-.4-.05-.25-.08-.5-.07-.76v-.16c.02-.8,.34-1.57,.9-2.14l.12-.12c.51-.53,1.19-.86,1.91-.95,0,0,0-.02,0-.03,.04-.76,.34-1.56,.86-2.11l.12-.12c.61-.65,1.46-1.01,2.33-1.01,.12,0,.23,0,.35,.02,.26-.07,.52-.1,.79-.1,.39,0,.79,.07,1.17,.22l.21,.08c.21,.08,.41,.19,.6,.32,.46-.25,.98-.38,1.51-.38,.04,0,.27,0,.27,0,.84,.04,1.63,.4,2.2,1.01,.23,.25,.42,.53,.57,.84l.11,.13c.28,.34,.49,.73,.62,1.15,.08,.12,.14,.25,.2,.39l.36,.84c.15,.22,.27,.45,.36,.69l.39,1.05c.05,.15,.1,.29,.13,.45,.1,.33,.14,.68,.12,1.03v.24c.03,.22,.04,.44,.03,.66l-.03,.68c.01,.06,.02,.12,.03,.18,.01,.05,.02,.11,.03,.17,.05,.1,.09,.21,.13,.32,.08,.21,.14,.42,.18,.64,.06,.17,.1,.35,.13,.53,.08,.25,.13,.51,.15,.77,.13,.68,.05,1.38-.26,2.01l-.16,.32c-.06,.13-.13,.26-.21,.38l-.19,.29c-.15,.22-.32,.42-.51,.59-.24,.32-.54,.58-.88,.78-.22,.19-.46,.35-.72,.47-.08,.05-.17,.1-.25,.14-.19,.12-.38,.22-.59,.29-.27,.16-.55,.27-.85,.35-.29,.22-.62,.39-.96,.51-.05,.02-.1,.04-.15,.05-.21,.21-.45,.38-.7,.52l-.14,.08c-.13,.07-.26,.13-.39,.18-.29,.25-.62,.45-.99,.59-.1,.05-.19,.09-.29,.13-.01,.02-.23,.35-.23,.35-.22,.33-.5,.62-.83,.84,0,.1-.02,.2-.03,.3,.01,.19,0,.37-.01,.56l-.02,.23c.08,.29,.12,.58,.12,.88,0,.27-.03,.55-.1,.82-.04,.74-.33,1.47-.88,2.04l-.19,.2c-.22,.23-.47,.42-.74,.58l-.29,.16c-.22,.12-.45,.22-.69,.29-.4,.18-.83,.28-1.27,.28-.18,.04-.37,.07-.56,.08-.04,0-.09,0-.14,0Zm.48-12.12c.09,.06,.17,.13,.26,.2,.34-.34,.74-.6,1.17-.75,.29-.43,.68-.79,1.14-1.04l.15-.08c.07-.04,.14-.07,.22-.11,.21-.21,.46-.39,.73-.54l.15-.08c.15-.08,.3-.15,.46-.2,.21-.21,.45-.38,.71-.53l.15-.08c.17-.09,.34-.17,.52-.22-.41-.19-.78-.46-1.08-.81-.53-.61-.84-1.43-.81-2.24v-.17c.03-.61,.22-1.19,.56-1.69-.01,0-.39,0-.39,0-.12,0-.24-.01-.36-.03,0,.01,0,.03,0,.04-.03,.53-.18,1.08-.45,1.54,.05,.24,.07,.48,.07,.73v.17c-.02,.82-.35,1.59-.93,2.17l-.12,.12c-.58,.59-1.37,.93-2.2,.94,0,0-.19,0-.21,0-.07,0-.14,0-.21,0-.14,.37-.35,.72-.62,1.02l-.04,.04c.19,.15,.36,.31,.51,.5l.1,.12c.23,.29,.41,.62,.53,.97Zm-60.18-43.34c-.94,0-1.83-.41-2.44-1.13l-.17-.2c-.43-.52-.69-1.15-.74-1.82,0-.02,0-.03-.01-.05-.17,.03-.34,.04-.51,.04-.14,0-.28,0-.43-.03l-.32-.04c-.51-.07-.99-.26-1.41-.55-.47-.09-.93-.29-1.33-.6l-.59-.45c-1.29-.99-1.64-2.79-.79-4.19l.27-.45c.42-.7,1.09-1.2,1.85-1.41,.09-.04,.18-.08,.28-.11,.08-.03,.17-.05,.25-.07-.02-.15-.03-.29-.02-.44,.02-.87,.4-1.78,1.05-2.36,.59-.53,1.39-.86,2.18-.86,.14,0,.29,0,.43,.03,.09,0,.18-.01,.27-.01,.05,0,.11,0,.16,0,.22,.01,.43,.04,.64,.09-.06-.06-.12-.12-.18-.19l-.17-.2c-.67-.76-.93-1.8-.71-2.78l.05-.21c.32-1.46,1.62-2.5,3.11-2.5,.03,0,.29,0,.29,0,.89,.02,1.73,.42,2.32,1.09l.24,.28c.22,.25,.4,.53,.53,.84,.11-.01,.21-.02,.32-.02,.04,0,.09,0,.13,0,.94,.04,1.82,.49,2.39,1.24,.09,.12,.17,.24,.25,.38,.06,.07,.12,.14,.18,.22,.02,.02,.04,.05,.05,.07,.03,.03,.25,.29,.25,.29,.15,.18,.29,.37,.4,.58,.24,.34,.41,.73,.5,1.14,.04,.13,.07,.26,.09,.39l.06,.32c.15,.85-.05,1.73-.56,2.43l-.27,.37c-.17,.23-.36,.43-.58,.6-.09,.16-.19,.31-.31,.46l-.89,1.1c-.14,.29-.32,.55-.54,.79l-.37,.39c-.05,.08-.1,.16-.16,.23l-.14,.29c-.05,.1-.1,.19-.16,.29-.11,.32-.27,.62-.47,.89-.07,.11-.14,.22-.22,.32l-.02,.03c-.02,.45-.14,.89-.34,1.29,0,.04-.02,.54-.02,.54-.02,.45-.13,.89-.32,1.29-.14,.44-.38,.84-.69,1.18l-.19,.2c-.6,.65-1.45,1.02-2.34,1.02h-.14Zm.08-13.81c.07,.06,.13,.13,.19,.2l.17,.2c.19,.23,.35,.48,.47,.74,0-.01,.62-.77,.62-.77-.06-.11-.11-.21-.15-.32l-.13,.02c-.13,.02-.27,.03-.4,.03-.26,0-.51-.03-.76-.09Zm29.69-42.94c-.36,0-.71-.06-1.05-.18-1.13-.28-2.05-1.17-2.34-2.34,0,0-.03-.12-.03-.13l-.03-.07c-.07-.17-.13-.34-.17-.52-.15-.23-.27-.47-.36-.73-.11-.18-.19-.37-.26-.56l-.15-.44-.18-.3c-.3-.51-.45-1.09-.44-1.69v-.24c.02-.56,.17-1.1,.46-1.57,.12-.24,.26-.46,.44-.65l.11-.12c.25-.29,.55-.52,.88-.69,.49-.3,1.06-.46,1.64-.46,.03,0,.29,0,.29,0,.87,.02,1.7,.4,2.28,1.04,0,0,.18,.2,.21,.24,.16,.17,.29,.36,.41,.56,.16,.14,.31,.29,.44,.46,.16,.16,.3,.34,.42,.54,.05,.05,.11,.1,.16,.15,.16,.12,.3,.26,.43,.41l.24,.28c.31,.36,.53,.79,.65,1.25,.11,.22,.19,.45,.25,.69l.03,.13c.26,1.12-.1,2.28-.93,3.06-.03,.04-.06,.07-.09,.1-.11,.17-.23,.34-.36,.48l-.26,.28c-.59,.62-1.4,.99-2.26,1,0,0-.38,0-.42,0Zm-130.62-18.84c-.57,0-1.15-.16-1.65-.46l-.14-.08c-.38-.23-.71-.54-.96-.9l-.31-.44c-.4-.57-.6-1.25-.57-1.94v-.16c.03-.54,.18-1.07,.46-1.53,.07-.15,.16-.29,.25-.42-.24-.41-.38-.87-.42-1.34-.05-.25-.08-.51-.07-.78v-.24c.04-.77,.34-1.5,.87-2.06l.11-.12c.6-.65,1.45-1.01,2.33-1.01,.03,0,.06,0,.09,0,.92,.03,1.78,.45,2.36,1.15l.24,.28c.18,.22,.33,.45,.45,.71l.33,.73c.16,.36,.26,.74,.28,1.13,.05,.15,.1,.3,.13,.45,.2,.49,.27,1.03,.22,1.55,0,.03,0,.13,0,.16,0,.07,0,.14,0,.2,.08,.31,.12,.63,.11,.95v.32c-.03,.43-.13,.86-.31,1.24-.14,.45-.38,.87-.71,1.22l-.11,.12c-.34,.37-.76,.65-1.23,.82l-.65,.24c-.36,.13-.74,.2-1.11,.2Zm-67.39-95.97c-1.08,0-2.08-.54-2.67-1.45l-.24-.37c-.05-.08-.1-.16-.15-.25-.21-.31-.37-.64-.46-1-.17-.42-.26-.87-.24-1.34v-.33c.02-.36,.1-.72,.23-1.05,.06-.22,.15-.43,.26-.62,.14-.34,.34-.65,.59-.92l.26-.29c.6-.66,1.46-1.04,2.36-1.04h.28c.56,0,1.11,.15,1.59,.42l.28,.16c.26,.15,.5,.34,.71,.56,.29,.23,.53,.51,.72,.83l.17,.28c.38,.65,.52,1.42,.39,2.16l-.08,.49c-.08,.44-.25,.86-.5,1.23-.19,.47-.49,.88-.87,1.21l-.05,.06c-.6,.78-1.54,1.24-2.52,1.24h-.07Zm83-19c-.57,0-1.14-.15-1.63-.45l-.14-.08c-.3-.18-.57-.41-.8-.68l-.45-.53c-.22-.26-.4-.56-.53-.88l-.06-.16c-.16-.41-.24-.85-.23-1.29v-.24c.04-.92,.47-1.79,1.18-2.37l.26-.21c.57-.47,1.28-.72,2.01-.72,.1,0,.21,0,.31,.01l.86,.08c.14,.01,.28,.04,.41,.07,.74,.03,1.45,.33,2,.83l.31,.28c.69,.63,1.07,1.53,1.03,2.46l-.02,.49c-.03,.76-.32,1.48-.83,2.04l-.18,.2c-.43,.47-.98,.79-1.58,.94-.34,.12-.7,.18-1.06,.18h-.86ZM209.36,29.95c-.93,0-1.81-.4-2.41-1.1l-.1-.12c-.19-.21-.34-.45-.46-.7l-.12-.16c-.07-.1-.13-.2-.19-.3l-.06-.07c-.13-.15-.24-.31-.34-.48-.13-.16-.24-.33-.34-.52,0-.01-.02-.02-.02-.04-.24-.24-.44-.51-.59-.81,0,0-.2-.28-.23-.34-.05,0-.1,0-.14,0-.27,0-.53-.03-.79-.1-.48-.04-.95-.2-1.36-.45-.22-.07-.44-.16-.64-.28l-.15-.08c-.41-.24-.76-.56-1.02-.94l-.31-.44c-.39-.56-.59-1.23-.57-1.91,.02-.81,.35-1.66,.92-2.23l.11-.12c.59-.6,1.39-.94,2.23-.95,0,0,.45,0,.46,0,.34,0,.67,.05,.98,.15,.4,.09,.77,.25,1.11,.48,.3,.12,.58,.28,.83,.48l.25,.2c.11,.09,.22,.19,.32,.3,.2-.04,.41-.06,.62-.06h.29c.6,0,1.19,.17,1.69,.49l.32,.2c.33,.21,.61,.47,.84,.77,.05,.05,.09,.1,.13,.15l.24,.28c.22,.26,.4,.55,.53,.87,0,0,.43,1.07,.45,1.12,.09,.19,.17,.4,.22,.6,.12,.31,.2,.64,.22,.97l.13,.25c.29,.58,.4,1.24,.3,1.88l-.04,.28c-.23,1.57-1.57,2.73-3.16,2.73h-.14Z" style="fill:#efc441;"/><path d="M203.23,21l.07,.08h.22s.28,.24,.28,.24l.35,.08,.25,.2,.06,.16v.24s-.12,.12-.12,.12l-.15-.08h-.35s-.49-.32-.49-.32h-.21l-.15-.08-.31-.44v-.08s.12-.12,.12-.12h.42m4.39,1.54l.32,.2,.07,.32-.11,.04-.07-.08h-.14l-.46-.37,.11-.12h.29m.56,.48l.24,.28,.4,.98v.16s.14,.16,.14,.16l.06,.32,.07,.08v.41s.06,.08,.06,.08v.17s.4,.81,.4,.81l-.04,.28h-.14l-.1-.12v-.08s-.41-.57-.41-.57l-.06-.25-.17-.2h-.07l-.11-.12-.07-.24-.21-.16-.06-.25-.11-.04-.03-.12-.31-.37h-.07l-.03-.12-.35-.49,.05-.2h.07l.14,.16h.21l.03,.29,.28,.24v.08s.27,.32,.27,.32v.08s.1,.12,.1,.12h.07l.11-.12v-.24s-.2-.41-.2-.41l-.14-.08-.07-.16-.05-.65,.11-.04m97.3,43.28l.86,.08,.07,.08h.5l.31,.28-.02,.49-.18,.2h-.22s-.07,.09-.07,.09h-.86l-.14-.08-.45-.53-.07-.16v-.24s.26-.21,.26-.21m-82.4,17.95l.28,.16,.21,.24h.07l.17,.28-.09,.49-.22,.25-.08,.32-.11,.04-.38,.49h-.07l-.24-.37v-.08s-.2-.25-.2-.25l-.06-.32-.08-.08v-.32s.09-.08,.09-.08v-.17s.15-.15,.15-.15v-.16s.27-.29,.27-.29h.28m67.07,93.13l.24,.28,.33,.73-.05,.45h-.08l-.24-.28-.06-.24-.21-.17v-.32s-.06-.08-.06-.08v-.24s.12-.12,.12-.12m.65,1.78l.1,.12v.08s-.04,.04-.04,.04h-.07l-.11-.12v-.08s.04-.04,.04-.04h.08m.13,.32l.03,.05v.08s-.04,.04-.04,.04h-.07l-.04-.04v-.08s.04-.05,.04-.05h.07m.13,.32l.04,.04-.11,.12-.03-.04v-.08s.04-.04,.04-.04h.07m-.01,.41l.04,.04-.04,.04h-.07l-.03-.04,.04-.04h.07m-.01,.32l.04,.04v.16s-.05,.05-.05,.05h-.07l-.03-.05v-.16s.04-.04,.04-.04h.07m.06,.4l.02,.37,.07,.08v.32s-.09,.08-.09,.08l-.08,.32-.11,.12-.65,.24-.14-.08-.31-.44v-.16s.09-.08,.09-.08v-.08s.19-.2,.19-.2h.22l.27,.33h.14l.26-.29,.02-.49,.1-.04m128.3,16.08h.21s.11,.12,.11,.12l-.07,.08,.18,.04,.03,.12,.58,.69h.07l.14,.25,.11,.04-.16,.33v.16s.11,.04,.11,.04l.06,.16,.15-.08,.05,.25h.15s.22-.17,.22-.17l.2,.24h.08s.24,.29,.24,.29l.12,.56,.11,.04,.03,.13-.3,.24v.08l-.3,.33v.08s-.27,.28-.27,.28h-.15s-.06-.08-.06-.08l-.15,.08-.07-.08h-.22l-.03-.12,.08-.16-.2-.25-.07-.16v-.25s-.06-.08-.06-.08l-.27-.57-.14-.16-.13-.41-.14-.16-.26-.73-.33-.57v-.24s.08-.08,.08-.08v-.08s.11-.12,.11-.12h.08l.07-.08m-27.58,46.93h.21s.24,.28,.24,.28v.08s-.32,.04-.32,.04l-.17-.2,.05-.21m3.7,2.19l.03,.04v.08s-.04,.04-.04,.04h-.08l-.03-.04,.11-.12m.12,.33l.04,.04-.04,.05h-.07l-.04-.04,.04-.04h.07m.28,.24l.04,.05v.08s-.12,.12-.12,.12l-.04-.04v-.16s.05-.04,.05-.04h.07m.27,.33l.17,.2v.08s-.04,.04-.04,.04h-.21l-.03-.04v-.16s.12-.12,.12-.12m.27,.41l.1,.12v.16s.07,.08,.07,.08l.06,.32-.27,.37-.25-.04,.08-.16v-.32s-.06-.08-.06-.08l.02-.33-.07-.08,.32-.04m-.4,1.14l.04,.04v.16s-.12,.12-.12,.12l-.04-.04v-.17s.12-.12,.12-.12m-.23,.32l.03,.04v.08s-.12,.12-.12,.12h-.07l-.04-.04,.19-.21m-.23,.41l.03,.12-1.05,1.3-.15,.16-.08,.25-.42,.44-.29,.16-.03-.12,.9-.97v-.08s1.02-1.26,1.02-1.26h.07m-6.67,.41l.17,.2-.04,.04h-.13l-.04-.04v-.16s.05-.04,.05-.04m-.65,0l.04,.04v.08s-.04,.04-.04,.04h-.07l-.04-.04v-.08s.04-.04,.04-.04h.07m5.29,2.1l.02,.21-.11,.12-.22,.08-.07,.08-.04-.04v-.08s.34-.37,.34-.37h.07m-.31,.66l.04,.04-.16,.32-.15,.16-.16,.33v.16s-.16,.16-.16,.16v.08s-.53,.65-.53,.65l-.08,.16v.25s-.09,.08-.09,.08l-.03,.73-.38,.57-.04,.81,.07,.08v.4s-.09,.08-.09,.08l-.09,.32-.19,.2h-.14l-.17-.2,.02-.49-.13-.16,.11-.2h.08l.34-.37,.09-.65,.08-.08,.38-.64-.06-.33-.07-.08v-.16s.09-.08,.09-.08l.08-.24,.37-.49,.24-.49,.3-.41v-.08s.41-.44,.41-.44m-7.47,.81l.31,.2,.13,.32-.04,.12h-.07l-.14-.08-.06-.17-.08,.08h-.14l-.07-.08-.12,.29,.03,.04,.15-.08,.1,.12v.16s-.11,.13-.11,.13l-.59-.45,.27-.45h.29s.07,.08,.07,.08l.08-.24m.6,.81l.24,.28-.04,.05h-.22s-.1-.13-.1-.13v-.16s.04-.05,.04-.05h.07m-.28,0l.03,.05v.16s-.12,.12-.12,.12l-.03-.04v-.16s.12-.12,.12-.12m.78,.24l.04,.04-.04,.04h-.07l-.03-.04,.04-.04h.07m.13,.16l.28,.16,.08-.08,.17,.04-.33,.29-.32-.04,.12-.37m68.4,38.08l.21,.08,.1,.12v.16s-.19,.12-.19,.12h-.29s-.17-.13-.17-.13v-.16s.12-.12,.12-.12h.14s.07-.08,.07-.08m-1.14,.08l.38,.12v.08s-.11,.12-.11,.12h-.29s-.1-.12-.1-.12v-.08s.12-.12,.12-.12m4.64,.16h.14s.04,.05,.04,.05v.16s-.12,.12-.12,.12h-.07l-.03-.04v-.08s-.06-.08-.06-.08l.11-.13m-.31,.49h.29s.1,.12,.1,.12v.08s-.12,.12-.12,.12h-.14l-.17-.21,.04-.12m.85,.16l.17,.21,.06,.32-.18,.04-.24-.37,.05-.2h.14m.5,.94l.52,1.21,.14,.17,.39,1.05v.16s.06,.08,.06,.08l-.04,.81,.07,.08-.06,1.3,.07,.08v.25s.06,.08,.06,.08l-.02,.33,.14,.24v.16s.14,.08,.14,.08v.08s.06,.08,.06,.08l.06,.41,.07,.08,.05,.41,.07,.08v.24s.05,.16,.05,.16l-.16,.32-.19,.29h-.07l-.3,.41h-.07l-.37,.32h-.14l-.15,.16h-.14s-.16,.17-.16,.17h-.14l-.07,.08h-.07l-.22,.17-.18-.04,.04-.12,.36-.16,.22-.24,.22-.08,.19-.36,.15-.08v-.08s.3-.33,.3-.33l.32-.73,.03-.57-.07-.08v-.24s-.05-.08-.05-.08v-.33s-.06-.08-.06-.08l-.04-.81-.07-.08,.05-.98-.07-.08,.02-.57-.06-.08v-.24s-.06-.08-.06-.08v-.24s-.06-.08-.06-.08l-.05-.48-.2-.25-.19-.48v-.16s-.13-.33-.13-.33l-.13-.16-.19-.57v-.25h.15m-8.6,1.5h.21s.1,.2,.1,.2v.08s-.12,.12-.12,.12h-.21l-.1-.12v-.16s.12-.12,.12-.12m6.98,2.11l.11,.12v.08s-.04,.04-.04,.04h-.15l-.03-.04v-.17s.05-.04,.05-.04h.07m-7.3,.25l.24,.2v.17s-.12,.12-.12,.12h-.14s-.1-.2-.1-.2v-.16s.12-.12,.12-.12m-3.38,2.19l.1,.12,.06,.25-.11,.12h-.14l-.17-.28,.12-.2h.14m10.71,3.66l.17,.12v.08s-.19,.2-.19,.2h-.15s-.07,.08-.07,.08h-.22l-.17-.2,.04-.12,.15-.08h.22l.07-.08h.14m-1.4,.89l.11,.12-.12,.2-.14,.08h-.36s-.1-.12-.1-.12l.12-.2,.15-.08h.35m-8.81,.48l.1,.12v.24s-.19,.12-.19,.12l-.1-.12v-.24s.12-.12,.12-.12h.07m7.63,.24l.1,.12-.04,.12-.29,.08-.07,.08h-.15l-.1-.12,.12-.21,.15-.08h.28m-1.98,1.3l.17,.12v.25s-.2,.28-.2,.28l-.29,.09-.1-.12,.16-.32,.26-.28m-4.51,.16h.15s.1,.12,.1,.12v.17s-.05,.04-.05,.04h-.14s-.11-.12-.11-.12v-.16s.04-.05,.04-.05m.78,1.95l.1,.12v.17s-.12,.12-.12,.12h-.07l-.03-.12-.07-.08v-.16s.05-.04,.05-.04h.14m2.27,.4l.09,.2v.33s-.19,.12-.19,.12l-.1-.12,.02-.41,.18-.12m-.12,1.14l.17,.12-.12,1.06,.07,.08,.06,.25,.07,.08v.08l-.12,.12h-.14s-.16-.36-.16-.36l.06-1.3,.11-.12m-1.93,1.54l.1,.12v.08s-.12,.12-.12,.12h-.14s-.1-.12-.1-.12v-.08s.12-.12,.12-.12h.14m1.91,.48l.17,.21-.19,.2-.29,.16-.36,.08-.07,.08h-.43s-.04-.04-.04-.04l.12-.12,.36-.08,.29-.16,.3-.33h.14m-2.3,.24l.1,.12v.08s-.19,.2-.19,.2h-.07l-.1-.13v-.08s.2-.2,.2-.2h.07m.91,.41l.04,.04v.08s-.05,.04-.05,.04h-.07s-.03-.04-.03-.04v-.08s.04-.04,.04-.04h.07m62.55,68.12h.64s.42,.24,.42,.24l.1,.04,.13,.32-.08,.16-.03,.49,.07,.08v.16s.43,1.14,.43,1.14l-.04,.12h-.07s-.17-.28-.17-.28v-.16s-.13-.17-.13-.17v-.16s-.18-.41-.18-.41v-.16s-.06-.08-.06-.08l.04-.81-.13-.24-.25-.04-.07-.08h-.21s-.07-.08-.07-.08l-.38-.03,.03-.05m-.21,0l.03,.04-.04,.04h-.07l-.04-.04,.04-.04h.07m-.22,.08l.1,.12v.08s-.04,.04-.04,.04h-.07l-.03-.04v-.16s.04-.04,.04-.04m-.37,.16l.1,.13v.08s-.04,.04-.04,.04h-.14s-.1-.12-.1-.12l.11-.12h.07m-.22,.25l.03,.04v.16s-.05,.04-.05,.04h-.14l-.04-.04,.08-.08v-.08s.04-.04,.04-.04h.07m-.44,1.7l.17,.13-.09,.32,.07,.08-.02,.48-.19,.12-.24-.29,.04-.73,.11-.12h.15m3.94,1.22l.03,.04v.08s-.04,.05-.04,.05h-.07l-.03-.04v-.08s.04-.04,.04-.04h.07m.21,.24l.1,.2,.2,.17,.03,.12h.08s.31,.37,.31,.37l.19,.4v.41s.24,.57,.24,.57l-.02,.32,.13,.24-.07,.08-.02,.33-.07,.08v.25s-.09,.08-.09,.08v.24s-.09,.08-.09,.08v.25s-.17,.33-.17,.33v.16s-.19,.12-.19,.12l-.1-.12,.15-.08v-.25s.16-.24,.16-.24l.1-.49,.07-.08,.02-.32,.08-.08,.02-.49-.07-.08v-.32s-.24-.57-.24-.57v-.32s-.05-.17-.05-.17l-.2-.24v-.08s-.3-.36-.3-.36l-.11-.04v-.08s-.2-.16-.2-.16v-.16s.12-.04,.12-.04m-1.61,3.81h.21s.04,.04,.04,.04l-.19,.12h-.14s-.04-.04-.04-.04l.12-.12m.41,.17l.04,.04-.04,.04h-.07l-.03-.04,.04-.04h.07m.14,.16l.1,.12-.03,.04h-.08l-.1-.12,.04-.04h.07m.98,.4h.07s.03,.04,.03,.04l-.12,.12-.03-.05v-.08s.04-.04,.04-.04m.35,.08l.1,.12-.04,.04h-.15s-.03-.04-.03-.04v-.08s.04-.04,.04-.04h.07m-.3,.24l.1,.21-.32,.04-.07-.08-.24-.04,.11-.12h.43m-39.78,130.07l.24,.2-.02,.33-.19,.2-.3,.16h-.5s-.14-.08-.14-.08l-.06-.08h-.07l-.23-.29,.19-.2,.11-.04,.04-.13,.15-.07h.78M203.23,14.62s-.05,0-.08,0h-.42c-1.68,.03-3.29,.71-4.47,1.91l-.11,.12c-1.13,1.14-1.78,2.67-1.83,4.27v.08c-.05,1.37,.35,2.71,1.13,3.84l.31,.44c.54,.77,1.24,1.42,2.05,1.89l.15,.08c.29,.17,.6,.31,.91,.43,.57,.3,1.18,.51,1.8,.63,.04,.05,.08,.09,.12,.14,.08,.13,.17,.25,.26,.37,.13,.21,.28,.41,.44,.61,.06,.09,.12,.18,.18,.27,.22,.4,.48,.77,.78,1.12l.1,.12c1.21,1.4,2.97,2.2,4.82,2.2h.14c3.17,0,5.86-2.33,6.31-5.46l.04-.28c.17-1.2,0-2.42-.49-3.52-.06-.35-.16-.69-.28-1.03-.08-.29-.19-.57-.31-.85-.01-.04-.03-.08-.05-.11l-.4-.98c-.26-.63-.61-1.22-1.05-1.74l-.24-.28c-.04-.05-.09-.1-.13-.15-.44-.54-.97-1.02-1.58-1.4l-.32-.2c-.97-.61-2.08-.94-3.23-.97-.31-.21-.64-.4-.98-.56-.55-.33-1.14-.58-1.76-.73-.58-.17-1.19-.26-1.81-.26h0Zm102.26,45.31c-1.46,0-2.89,.5-4.03,1.43l-.26,.21c-1.43,1.16-2.29,2.89-2.35,4.74v.24c-.04,.88,.12,1.76,.44,2.58l.07,.16c.26,.64,.61,1.24,1.06,1.76l.45,.53c.46,.54,1,.99,1.6,1.35l.14,.08c.99,.59,2.11,.89,3.26,.89h.86c.68,0,1.35-.11,1.99-.32,1.15-.32,2.19-.95,3.01-1.85l.18-.2c1.02-1.12,1.61-2.57,1.66-4.08l.02-.49c.06-1.86-.69-3.66-2.07-4.92l-.31-.28c-1.03-.94-2.34-1.52-3.72-1.65-.18-.03-.36-.06-.54-.08l-.86-.08c-.21-.02-.41-.03-.62-.03h0Zm-82.39,17.95h-.28c-1.79,0-3.51,.76-4.71,2.08l-.26,.29c-.46,.5-.83,1.07-1.1,1.69-.16,.31-.29,.63-.4,.96-.23,.63-.37,1.3-.39,1.99v.32c-.04,.85,.1,1.68,.39,2.46,.17,.58,.43,1.13,.76,1.64,.06,.11,.13,.22,.2,.33l.24,.37c1.18,1.81,3.19,2.9,5.34,2.9h.07c1.9,0,3.7-.85,4.91-2.31,.56-.54,1.02-1.17,1.35-1.88,.4-.67,.68-1.41,.82-2.19l.09-.49c.26-1.49-.02-3.03-.79-4.34l-.17-.28c-.38-.65-.87-1.21-1.43-1.68-.35-.33-.74-.62-1.16-.86l-.28-.16c-.97-.56-2.06-.85-3.18-.85h0Zm67.07,93.13c-1.75,0-3.44,.72-4.64,2.01l-.11,.12c-1.06,1.12-1.67,2.6-1.73,4.14v.24c-.03,.46,0,.91,.09,1.35,.02,.22,.06,.43,.11,.65-.25,.65-.4,1.35-.42,2.06v.16c-.06,1.39,.34,2.76,1.14,3.89l.31,.44c.51,.73,1.17,1.35,1.93,1.81l.14,.08c1.01,.61,2.15,.92,3.3,.92,.75,0,1.5-.13,2.22-.4l.65-.24c.94-.35,1.79-.92,2.47-1.66l.11-.12c.6-.65,1.05-1.41,1.34-2.23,.31-.72,.48-1.49,.51-2.28v-.32c.03-.45,0-.91-.08-1.35,.06-.93-.08-1.87-.42-2.75-.08-.61-.26-1.22-.52-1.79l-.33-.73c-.23-.51-.53-.99-.89-1.42l-.24-.28c-1.17-1.41-2.88-2.24-4.71-2.3-.07,0-.13,0-.2,0h0Zm129.24,19.65c-1.15,0-2.26,.31-3.23,.88-.62,.34-1.19,.79-1.67,1.33l-.11,.12c-.41,.46-.75,.97-1.01,1.52-.43,.85-.67,1.79-.69,2.75v.24c-.03,1.19,.27,2.36,.88,3.38l.02,.04,.05,.15c.1,.29,.23,.57,.37,.84,.09,.23,.2,.45,.32,.67,.03,.1,.07,.2,.11,.3,.59,2.25,2.34,3.95,4.51,4.53,.63,.2,1.29,.3,1.95,.3,.04,0,.08,0,.12,0,.03,0,.06,0,.09,0,.04,0,.08,0,.11,0h.15c1.72-.03,3.35-.76,4.53-2.01l.26-.28c.21-.22,.4-.46,.57-.7,1.46-1.54,2.08-3.72,1.59-5.82l-.03-.13c-.09-.38-.21-.75-.36-1.11-.26-.8-.67-1.55-1.22-2.19l-.24-.28c-.19-.23-.4-.44-.62-.63-.12-.16-.24-.31-.37-.45-.14-.17-.29-.34-.44-.5-.14-.19-.28-.38-.44-.55-.05-.06-.11-.12-.16-.18l-.11-.12c-1.17-1.29-2.82-2.04-4.56-2.09h-.21c-.05,0-.11,0-.16,0h0Zm-27.58,46.93c-2.99,0-5.59,2.08-6.23,5.01l-.05,.21c-.09,.4-.14,.81-.15,1.21-.51,.25-.99,.57-1.42,.96l-.04,.04c-.9,.81-1.55,1.85-1.88,2.99-.86,.52-1.61,1.26-2.15,2.15l-.27,.45c-1.69,2.79-1,6.4,1.59,8.37l.59,.45c.62,.47,1.3,.82,2.01,1.03,.5,.27,1.03,.48,1.59,.62,.19,.33,.41,.64,.65,.93l.17,.2c1.21,1.43,2.99,2.26,4.87,2.26h.14c1.78,0,3.47-.74,4.68-2.05l.19-.2c.58-.62,1.02-1.35,1.31-2.14,.33-.73,.51-1.53,.55-2.34,.09-.25,.16-.5,.22-.76,.22-.34,.41-.69,.56-1.07,.04-.08,.09-.16,.13-.25l.13-.14c.34-.37,.64-.77,.89-1.2l.7-.87c.1-.13,.2-.26,.29-.39,.25-.24,.48-.51,.69-.8l.27-.37c1.03-1.4,1.43-3.17,1.13-4.88l-.06-.32c-.04-.21-.09-.42-.15-.63-.17-.71-.47-1.39-.87-2.01-.2-.35-.43-.68-.7-.99l-.17-.2s-.01-.01-.02-.02c-.03-.04-.07-.09-.1-.13-.1-.16-.21-.31-.33-.47l-.03-.04c-.9-1.15-2.16-1.95-3.56-2.28l-.15-.17c-1.18-1.35-2.86-2.14-4.65-2.19h-.21c-.05,0-.11,0-.16,0h0Zm63.62,48.64c-.34,0-.69,.03-1.02,.08-.04,0-.08,0-.12,0-1.74,0-3.43,.71-4.66,2.02l-.12,.12c-.52,.56-.94,1.2-1.23,1.9-.55,.3-1.06,.69-1.5,1.15l-.12,.12c-.81,.84-1.37,1.87-1.64,2.99-1.25,.53-2.31,1.45-3.02,2.66l-.12,.2c-1.15,1.97-1.16,4.39-.04,6.37-.15,.5-.23,1.02-.26,1.55v.24c-.07,1.61,.47,3.18,1.52,4.4l.1,.12c.13,.15,.26,.29,.39,.42,.02,.11,.05,.22,.07,.33-.24,.64-.39,1.31-.42,2v.08c-.07,1.55,.43,3.08,1.4,4.29l.1,.13c1.1,1.36,2.71,2.21,4.44,2.35,.49,.12,1,.18,1.52,.18,.11,0,.22,0,.32,0h.07c.26-.02,.53-.05,.79-.09,.68-.05,1.34-.2,1.96-.46,.4-.13,.79-.3,1.16-.51l.29-.16c.55-.31,1.04-.7,1.48-1.15l.19-.2c.98-1.03,1.55-2.3,1.71-3.62,.09-.44,.14-.89,.14-1.35v-.08c0-.21-.01-.43-.03-.64,.27-.14,.54-.31,.78-.49,.09-.04,.18-.09,.26-.14l.14-.08c.29-.16,.57-.34,.83-.54,.3-.13,.59-.28,.86-.45,.28-.1,.56-.23,.83-.37,.26-.11,.52-.24,.77-.39,.07-.04,.14-.08,.22-.12,.38-.19,.74-.42,1.07-.69,.5-.33,.95-.73,1.35-1.2,.3-.3,.57-.63,.81-.99l.19-.29c.16-.24,.3-.49,.43-.75l.16-.32c.58-1.19,.76-2.53,.55-3.82-.04-.38-.11-.75-.21-1.11-.04-.19-.09-.38-.14-.57-.06-.3-.15-.59-.26-.88v-.18c.02-.32,.01-.63-.02-.94,.02-.65-.05-1.29-.22-1.9-.06-.26-.14-.51-.23-.76l-.39-1.05c-.14-.38-.31-.74-.52-1.08l-.26-.61c-.06-.15-.13-.29-.2-.43-.23-.61-.55-1.19-.95-1.71-.26-.47-.59-.91-.96-1.31l-.04-.04c-1.14-1.19-2.68-1.89-4.32-1.96h-.14c-.1-.01-.19-.01-.29-.01-.45,0-.89,.05-1.33,.14-.71-.26-1.44-.38-2.17-.38h0Zm57.93,88.91c-.06,0-.12,0-.19,0,0,0-.02,0-.03,0h-.07c-.95,0-1.88,.21-2.72,.61-.96,.34-1.83,.91-2.53,1.67l-.11,.12s-.07,.08-.11,.12c-.44,.46-.8,.99-1.08,1.55-.33,.61-.54,1.27-.66,1.93-.34,.73-.54,1.53-.58,2.34l-.04,.73c-.08,1.61,.44,3.19,1.47,4.42l.24,.29c.31,.38,.66,.71,1.04,.99,.17,1.3,.74,2.57,1.71,3.59l.04,.04c.29,.3,.61,.58,.95,.82,.69,.79,1.58,1.4,2.58,1.77,.79,.34,1.65,.52,2.53,.52,.29,0,.57-.02,.86-.06l.32-.04c.96-.13,1.86-.48,2.65-.99,.14-.08,.28-.16,.41-.25l.18-.12c1.31-.84,2.25-2.12,2.68-3.58,.09-.22,.16-.45,.22-.69,.04-.13,.08-.27,.11-.41,.04-.14,.08-.28,.11-.43,.05-.17,.09-.34,.12-.52,.26-1.02,.28-2.09,.02-3.13-.05-.37-.14-.73-.26-1.08-.1-.58-.27-1.14-.53-1.68l-.19-.4c-.23-.49-.53-.96-.88-1.38l-.31-.37s0,0-.01-.01c-.06-.07-.12-.14-.18-.21-.06-.08-.12-.16-.19-.24-.08-.46-.2-.91-.38-1.35l-.13-.32c-.6-1.48-1.72-2.68-3.15-3.36l-.17-.1c-.94-.53-1.99-.81-3.07-.81h-.64s-.04,0-.05,0h0Zm-37.12,138.6s-.01,0-.02,0h-.78c-.97,0-1.93,.23-2.8,.66l-.15,.07c-.74,.37-1.39,.87-1.93,1.47-.03,.03-.06,.07-.1,.1l-.19,.2c-2.14,2.34-2.25,5.89-.24,8.34l.23,.29c.45,.56,.99,1.02,1.59,1.39,.15,.1,.31,.19,.47,.28l.14,.08c.92,.49,1.94,.75,2.98,.76h.5s.02,0,.03,0c1.05,0,2.09-.26,3.02-.76l.3-.16c.62-.33,1.17-.76,1.65-1.27l.19-.2c1-1.08,1.6-2.47,1.7-3.94l.02-.33c.13-2.02-.71-3.99-2.27-5.29l-.24-.2c-1.15-.96-2.6-1.49-4.1-1.49h0Z" style="fill:#cae3e8;"/></svg>