<svg xmlns="http://www.w3.org/2000/svg" viewBox="0 0 800 800"><polygon points="188.1 705.57 186.82 705.22 184.97 704.62 183.44 704.79 181.84 705.57 179.99 706.08 178.06 705.74 176.05 705.14 174.13 704.88 172.28 705.57 171.31 707.28 170.59 712.51 169.95 714.39 169.22 715 167.3 715.94 166.81 716.37 166.41 716.71 166.09 717.48 165.85 719.28 165.61 720.05 164.32 722.37 162.8 724.42 157.58 729.74 155.81 730.85 154.92 731.2 153.96 731.28 153.08 731.37 152.11 731.97 151.31 733.68 150.59 738.57 149.94 740.46 148.74 741.74 143.92 743.71 140.46 745.68 139.82 746.03 138.29 747.74 137.25 750.49 136.04 750.74 128.09 755.46 125.44 756.49 123.03 756.74 120.7 756.06 118.69 754.09 117.57 751.43 117.25 746.28 116.76 743.63 113.47 738.48 112.18 737.8 111.14 737.63 110.09 737.97 109.05 738.65 107.93 740.03 107.28 742.51 106.32 743.11 105.44 742.77 102.94 741.14 101.58 740.88 98.69 741.4 96.76 742.51 94.91 743.88 92.5 745.34 90.33 745.94 87.84 746.11 83.18 745.86 84.31 738.57 84.23 736.17 83.74 734.71 82.38 732.23 82.38 730.85 83.42 727.68 83.58 726.65 82.86 723.91 81.66 722.02 80.69 719.97 80.69 716.97 82.14 709.25 82.22 707.02 81.73 704.54 80.05 699.74 79.73 697.59 80.05 696.05 80.69 694.93 81.09 693.74 80.93 691.85 80.53 689.53 80.45 688.25 80.61 687.13 81.9 684.99 85.35 683.71 86.72 681.99 87.04 680.19 87.36 672.65 87.04 669.99 85.99 665.1 86.07 662.53 87.6 652.67 88 651.99 88.64 651.47 89.21 650.87 89.37 649.93 89.05 649.16 88.16 647.79 88 647.1 88.4 645.73 89.53 645.39 90.81 645.3 91.7 644.62 92.02 642.82 91.62 635.18 91.05 633.21 89.85 630.47 89.53 629.78 89.21 627.38 91.78 611.61 92.1 609.47 94.03 597.12 94.75 592.67 96.76 579.89 98.53 575.26 99.17 572.95 99.09 570.55 97.64 565.06 97.88 562.92 98.85 559.49 104.07 551.86 104.71 550.4 106.08 551 106.96 551.77 107.77 552.12 108.89 551.35 109.29 550.4 113.07 529.83 113.87 527.09 115.24 524.77 121.42 517.14 123.67 514.4 123.99 513.54 125.68 509.6 125.44 504.71 123.27 494.6 123.35 492.02 124.72 481.39 124.07 474.97 124.31 473.68 126.48 468.71 128.01 467.76 130.58 465.71 132.27 464.34 137.17 461.94 149.7 458.85 150.91 458.16 152.11 456.62 154.28 452.42 154.6 451.91 155.16 449.94 157.82 446.93 158.62 444.62 157.98 439.56 157.98 437.08 159.42 435.62 159.91 434.5 160.15 433.22 160.39 430.56 160.71 429.7 164.32 425.85 165.29 425.25 166.33 424.9 167.38 425.16 168.66 426.27 170.67 427.22 172.12 425.59 173.56 423.1 175.57 421.47 176.94 421.3 179.59 421.64 181.12 421.47 183.37 420.87 184.97 420.1 186.5 418.99 188.83 416.85 197.66 404.76 202.81 397.73 212.69 384.1 228.6 370.38 244.74 356.5 253.1 349.29 261.37 338.24 264.02 334.63 271.58 324.52 278.57 315.09 281.94 308.57 282.9 302.49 282.99 302.32 282.75 301.97 281.46 299.83 274.79 295.8 272.38 293.74 271.5 291.6 271.1 288.94 270.94 283.54 265.23 285.86 263.3 286.12 261.7 286.12 256.55 285.17 254.87 284.14 254.22 283.03 254.63 282.51 255.27 282.17 255.43 281.49 255.19 280.54 254.95 280.03 248.28 272.06 246.35 270.69 241.93 270.69 240 274.11 238.4 278.14 235.02 279.86 233.01 278.91 230.84 276.86 228.92 274.37 227.71 272.31 227.39 270.51 227.47 268.63 227.15 267.08 226.03 266.4 217.75 266.31 216.06 265.71 215.74 263.57 216.79 261 218.31 258.43 219.2 256.37 219.28 254.14 218.88 249.51 219.03 247.2 219.52 245.91 221.77 242.05 222.01 241.11 222.17 240.59 222.41 238.97 226.35 227.74 226.51 227.05 226.51 225.85 226.75 225.16 227.31 224.82 228.68 224.48 229.16 224.22 229.96 223.02 232.85 214.53 233.01 209.56 231.73 204.59 229.08 199.53 226.99 197.56 221.53 193.53 220.16 191.65 220 189.25 220.48 186.59 222.33 180.76 227.07 165.33 229.16 160.96 229.64 160.61 231.01 160.27 231.57 160.01 231.97 159.33 232.13 158.04 232.29 157.44 234.62 153.16 238 149.21 238.88 147.76 239.52 146.9 240.25 144.16 240 142.7 238.88 140.13 238.64 138.67 239.44 135.15 239.44 133.95 237.91 131.04 235.99 131.72 233.82 133.7 231.25 134.72 231.73 132.75 234.3 127.35 242.09 115.35 242.57 113.81 242.98 112.35 243.54 111.07 244.82 109.78 246.11 109.35 248.36 109.44 249.56 109.27 251.17 108.49 254.79 105.41 255.91 104.89 258.16 104.47 259.2 104.04 262.34 101.38 266.68 97.78 269.73 96.83 275.27 96.83 280.09 97.52 284.67 99.15 294.39 104.72 309.42 113.47 311.51 113.89 312.79 112.78 312.95 112.61 314.32 110.81 316.33 109.69 328.54 107.81 330.71 106.78 331.75 105.75 341.07 94.52 341.39 93.83 341.71 93.92 344.12 95.03 344.77 95.46 347.58 97.95 355.93 107.89 357.62 110.89 358.02 113.29 358.42 119.04 359.23 121.18 360.83 122.04 370.07 122.64 370.96 122.72 372.32 123.5 373.77 126.07 374.57 127.35 376.34 129.32 378.35 130.44 385.74 132.07 387.19 131.98 387.91 130.87 388.07 130.1 388.47 128.3 388.47 126.41 387.99 121.87 388.07 120.24 389.44 118.61 411.05 104.55 416.19 103.27 437.8 101.38 456.2 99.75 466.08 96.58 475.32 91.61 482.39 85.95 484.48 85.18 486.81 86.2 501.67 99.15 504.08 100.52 507.69 101.29 518.46 101.81 537.34 102.84 542.4 102.15 546.74 99.49 547.3 99.15 555.98 89.89 567.15 77.8 580.32 63.75 589.96 53.46 599.44 43.26 602.9 44.97 605.55 47.2 607 50.12 606.83 53.97 607 55.69 608.04 57.06 609.33 58.34 610.29 59.8 610.69 61.26 610.69 62.72 610.37 65.63 609.89 67.35 609.4 68.55 609.33 69.83 610.29 71.8 611.65 73.17 613.34 74.46 614.71 75.92 615.03 77.89 613.74 81.15 612.3 83.98 612.14 86.2 614.87 87.23 616.72 86.89 621.38 85.09 623.63 85.09 626.2 86.55 626.52 88.26 625.23 89.98 619.61 93.06 619.85 93.75 621.7 94.44 623.14 96.41 620.81 97.95 620.09 98.98 621.54 99.58 622.58 99.49 624.59 98.89 626.84 98.72 629.17 98.03 630.45 97.95 630.53 98.55 633.11 102.15 634.87 107.21 636.24 108.06 636.8 107.55 637.28 106.27 638.57 105.06 641.7 104.12 643.87 104.98 647.65 109.35 649.82 110.55 652.07 111.32 653.75 112.44 654.56 115.09 654.23 125.21 653.19 130.18 650.94 133.87 649.82 134.47 648.61 134.81 647.57 135.33 646.92 136.44 647 137.73 648.45 140.47 648.93 141.84 648.77 143.04 647.57 146.13 647.25 147.5 647.57 149.04 648.45 150.33 649.58 151.61 650.46 152.99 651.9 157.96 653.11 173.39 654.39 176.22 656.8 177.93 662.35 179.56 664.84 181.36 666.21 183.93 666.21 184.02 669.58 202.96 670.78 205.1 674.48 209.56 676.25 212.56 677.37 213.68 678.98 214.19 679.7 213.94 680.99 212.74 681.47 212.48 681.79 212.31 682.27 211.28 682.59 211.11 683 211.36 683.24 211.79 683.48 212.22 683.72 212.39 683.88 212.74 687.25 214.45 687.82 214.62 688.62 215.74 689.1 216.76 691.51 224.74 693.28 235.62 698.26 246.6 699.38 247.71 700.99 247.88 701.88 246.94 702.68 245.91 703.72 245.74 704.93 247.45 705.57 253.63 706.29 256.03 709.51 259.54 710.55 261.68 710.23 264.51 708.54 266.74 706.13 268.2 704.04 269.91 703 273 703.72 277.97 708.3 289.63 710.39 295.12 715.69 308.75 715.69 311.15 714.65 316.72 714.41 319.2 714.57 321.78 715.05 324.26 715.93 326.49 716.98 327.78 719.71 330.52 720.27 331.89 719.87 333.26 717.62 336.26 717.14 337.72 717.06 362.07 716.34 364.81 712.56 373.21 711.76 374.67 710.55 375.87 709.35 376.38 706.94 376.98 705.73 377.58 703.08 381.87 700.59 391.99 693.6 398.07 693.76 400.21 694 402.53 696.09 407.67 697.3 412.64 695.85 417.7 692.07 419.5 682.43 420.62 679.94 422.16 676.01 426.27 670.3 427.65 669.5 429.96 669.26 432.79 668.7 433.82 668.05 435.1 667.89 435.1 665.56 435.53 663.63 434.42 661.71 433.9 659.3 436.39 658.17 438.7 657.21 441.19 656.56 443.85 656.48 449.51 655.84 452.08 652.79 460.14 649.41 464.76 647.73 469.82 645.72 471.79 638.17 475.82 637.2 476.94 636.96 478.48 636.48 481.39 634.55 486.71 631.74 489.97 627.96 492.02 623.22 493.82 619.69 496.4 617.68 500.25 617.6 500.68 614.79 513.03 614.39 514.14 613.58 515.43 611.57 518 611.01 519.11 611.17 521.43 612.46 525.97 612.14 528.54 611.17 530.17 606.91 533.69 597.51 547.15 596.47 548.52 589.64 558.21 589.32 560.69 592.93 573.63 596.55 586.49 596.71 591.29 594.54 611.18 591.73 637.07 589.8 654.99 590.28 672.05 590.93 697.59 581.29 697.59 559.84 697.59 558.95 697.59 538.3 697.59 534.85 697.59 516.85 697.59 495.32 697.59 473.87 697.59 466.88 697.59 452.42 697.59 452.18 697.59 430.89 697.59 409.44 697.59 387.91 697.59 366.46 697.59 365.82 697.59 344.93 697.59 323.48 697.59 301.95 697.59 282.99 697.59 280.5 697.59 258.96 697.59 237.51 697.59 229.96 697.59 228.03 696.56 223.94 695.45 219.52 697.94 215.02 699.39 213.33 700.34 209.15 705.14 207.63 706.42 204.81 705.48 202.24 705.22 196.38 705.74 194.13 706.34 192.76 706.42 192.12 706.08 191.48 705.39 190.59 704.79 189.15 704.62 188.19 705.48 188.1 705.57" style="fill:#efc441"/></svg>