<svg xmlns="http://www.w3.org/2000/svg" viewBox="0 0 800 800"><path d="M424.89,195.47l2.48-.21,1.32.24.93.79.22.94v1.06l.17.88.74.41.69-.12,2.15-1,1.46-.11,2.42.55h.75l5.54-2.32,1.79-1.23,1.15-2.24.5-3.46.38-1,.39-.38.5-.24.44-.35.22-.65-.14-.5-.77-1.2-.2-.62.58-2,1.63-.29,3.47,1.11,1.93-.53,7.93,3.71h1.21l2.37-.56h1.19l.68.29,1.19.86.74.08.72-.35,4.16-3.26.71-.32h.39l.52.27.36-.09.33-.29.47-.8.39-.2.77-.27.52-.44,1-1.14.66-.42.55-.08,3.94.67H489l.72.15,1,.62.14.09.63.26.72-.06.58-.32.55-.44.6-.3.77,1-.27,2.18.69.91.88-.09,2.75-2.41,3.53-1.44,1.84-.29H506l1,.32.44.56.33.79.64,1,.79.68,1.68.94.75.94,1,1.94.52.64,2.59,1.53.69.68.66.91.39.68.24.55.09.56v.65l-.69,1.29v.3l.14,1,.09,1.88.24,1.11.47,1,.86,1.21.11,1-.31.82V204h2l.82.53,1.49,1.73.25.21.52.32.25.21.08.26.17.8v.14l.47.18.77-.35H526l.71.44,1.35,1.32.77.5,1,.85.58.53,1.1,2.29v2.35L530,218l-.8.18-2.34-.06L520,219.54l-1.57.79-.39,1.35.44.56,1.44.35.58.36.16.41.17,1.17.16.53.3.44,1.71,1.74.53.79.33,1,.08,1.24-.08.58-.36,1-.11.56V233l.16.5.11.5-.11.59-.33.32-.88.18-.19.35.13.47.42.47.8.67.6.36.66.23.69.12h.63l.8-.38.36,1.91-1,1.91-1.6,1.53-2.31,1.44,2.89,1.08,1,.18.69-.29,1.51-1.09,1.41-.32,1.48.2,2.9.91,1.32.41,2.61-.38,1.22.15.55.53.25.76.19.88.38.86.58.5.72.23,3,.18,2.78-.56,3.3-1.26,1.88-1,.63-.06.74.32.77.44.78-.14.79-.33.86-.12.77.27.5.56.33.82,1,5.23L561,255l1.15,1,1.35.09,2.73-.56,1.4.09.8.24.72.35.33.64-.33,1-.55.47-2.2.42.16.64v1.53l.11.56.36.38.94.21.49.29.5.74v.67l-.11.71.06.85.27.73.83,1,.36.71,0,.79-.08.68.08.59.55.5,1,.53.44.38.36.56.36,1.58-.14,1.41,0,1.27,1,1.06-3.11,1.26-.64.68.09.7,1.9,6.85.85,1.38,1.35.53.88.15.83.26.74.53.55.94.31,1.32v1l.28.85.88.92.77.47.8.38.82.23h.86l.77-.2.19-.06.53-.59.44-.73.66-.74.36-.12.77-.06.36-.11.44-.44.79-1,.58-.42.72-.23,3.8-.38,7,.5,1.1.56.3,1,1.16.53,4,5.76.91.42,1-.06,1-.36.88-.58.77-.68.28-.15h.49l.41.12.83.41.88.21,1.1.7,1.3.24.36.15.6.35.11.15-.11.23-.08,1.26-.11.53.14.5.58.44.88.3.93.14.91-.11.77-.41.33-.47.64-1.21.38-.53.53-.41,6.66-3.56,2.65-.88,2.64-.15,2.89.39,5.84-1.53,1.22-.82,2.34-2.15,1.18-.44,4-.5.8.38.61,1.47.55,1.82.66,1.5,3.55,1.53,1.24,1.24.08,2.35-.38,1.32-.14.62.08.58.28.39,1.4,1.29,3.86,5.35,1.43.91,3.2,1.32,1.57.88,1.35,1.12,1.24,1.41L675,318v.12l.63,1V320l.19.32.91-.5,1.76-1,.5-.14.44.08.74.44.42.06,1.9-1.17.22-2.44L682.4,313l.39-1.64.66-.15,2.56.21,1.11-.21.77.12.55.61,1.21,3.24.49.61.8.33,1.77.17.71.27.94.59,1.46.47,2.92-.47,2,.32.39-.15.36-.2,1-.3.08-.14v.14l.33,1.09.11.91.22.47.25.27,2.45,1.58,4.19,1.09,1.37,1.15,1,1.38,1.07,1,3.8-.24.69-.17.77-.59,1.27-1.71.69-.7,1.57-.53,1,.79v.06l2.23,5.23.91,1.15,1.19.71,1.51.32,1.6-.32,1.54-.71,1.52-.29,1.46.91.77.29,2.37.24.52.58.44,1.27.63,2.38,1,1.94,1.24.76,1.41.36,1.65.7,2.07,1.79.82.36,1.1.06,1.24-.24,1.22-.44,1-.53,2.37-2.2,1-.33h.8l3.94.94.11.12.49.5-.19,1.15-.61.76-1.57.82-.69.62-.79,1.82.24,1.77.86,1.64,1.57,2.24,1.87,2,.47.89-.08,1-.58,1.88-.06,2-.3.52-1,.5-.78.56-1.32,1.94-.8.77-2.37,1.5-1.1.94-.85,1.35-.19.76-.11,1.59-.2.56-.44.29-.66.06-1.16-.21H749.5L746.17,369l-2-.11-.69.44-.27,2.79.55.67.8.5.74.65.53,1,.33.76.46.53.94.41,3.2.65,1.4-.18.47.09.41.33.77.88.53.2.88-.41.69-.85.77-.68,1,.12.8.91-.06,1.06-.55,1.12-.77.91L755.29,382l-1.63.18-4.46-1.59h-.91l-.88.41-.8.82-.33.59-.27.65-.33.47-1,.38-.35.44-2.46,7.47-.41,1.35,1.54-.06.8-.29,4.8.53,1.07.58.77.94.33,1.44v.42l.11.29.08.24.06.17-.17.47-.38.12h-.55l.08.85.38.44.44.33,1.27,2.52.41,1.41.31.74.38.47-.91.82-.68.83-2.76,2.11,2.78,1.59.83-.09,2.09-.7.86.17.57.94-.08,1.06-.55,1-.69.73-1.9,1.33-.77.82L750,419l-.5,1-.11,1.27L750,423l-.06.5-.11.09-.27-.06-2.21.38-.44.27-.33.5.08.29.34.3.41.61.58,1.18,0,.56-.08.85-.14.44-.41.82-.14.5v.39l.19.76v.32l-.3,1.56-.67,1.38-1,.94-1.33.24-4-1-1.24-.09-2.45.44-1.18-.18-.91-.29-1.74.44h-.91l-.71-.29-1.35-.86-.83-.11-5.87.47-1.62.41-.8.06-.83-.18-2.17-1.38h-.11l-6.39-.24-1.88.74-1.37,1.53-1,2.14-.72,2.5-.33,2.29-.44.89-.85.05-1.41-.5-.63.09-.77.53-1.49,1.56-.74.59-1,.44L690,447l-1.38.85-1,1.56-.77,1.91-.55,1.91.14,3.88-.25,1.53-1,1.67L684,461.84l-.52,1-.08.85.49.56.77.12,1.52-.24.71.06.67.27.35.58-.11,1.09-.55.82-.82.5-.91.44-.77.47L684,469.6l-.27,1.62.19,1.73.61,1.47h0l-.83.73-2.18,2.8-1.37.61.91-1.73V476l-1-.39-1.32-1-.2.08-.22.18-1,.56-.36.14L675.3,475l-1-.21-.47.27-3.61-.56-4.32,1.41-1.74.06-5.2-.89-1.38.47-2.56,2.5-4.22,5.53-1.07,1.91-.66.85-.88.38.16-1.35-.88-1.06-1.4-.67-1.35-.24-.75.18-1.84,1.32-4.66,1.71-.71.11-.47.24L635,488l-.44.2-1.4.5L631,490.61l-1.3.18.36,1.29-.55,1.21-.77,1.23-.41,1.3-.31,1.47-.74,1.44-1,.88-1-.27V499h.3l.83.32.74-1.5.5-1.94v-.94l-.33-.23-1.46-1.62-.61-.32-1.32-.44-.58-.38-.66.38H622l-1.1-.35-.69.17-.44.41-.33.39-.3.17h-2.67l-1.66.94-2,.36-1.3.58-1.16.86-2.72,2.64-.77,1.24-.25,1.55h-.3v-.79l-.13-.18-.42.21-.38.15-.06.32v.12l-.22-.5.11-.21.06-.35v-.27l-.47-.29-.08-.09-.36-.61-.22-.27-.28-.21L603,498h-.69l-1.52.32-2.92-.41-5.48,1h-1l-3,1.59-2.26,1.21-1.16.88L581.7,506l-1.32,1.12-4.74,2.24-.77.5-.63.64L573,512.1l-.63.56-1.4.91-.61.53-3.84,5.9-.19.23-.63.68-2.18,3.91-1,1.29-.94.94-1.62.53-1,.76-1.38.3-1,.67L555,530l-.71-.24.11-.53,1.29-1.35,1.41-.82-.14-.21-.17-.53,4.19-1.2,2.09-1,1.1-2.09,1-1,.41-.91,1.16-1.94,1.49-1.38.57-.91.14-1.35-.69.7-.69.56-.79.06-1-.79-.38-1.21.24-1.41.8-2-.27-.17-.66-.06-.42-.09-.3-.18-.52-.47-.64-.38-.52-.73-.41-1-.11-1-.88,1,.3,1.05.71,1,.42.77.11.7.25.41.11.44-.17.83-.33.62-1.35,1.29-2.4,3.41-.13.14-1.22,1.3-1.76,1-3.83.88h-.38l-.5-.18-.25-.32v-.41l-.09-.21-.47.21-.27.5-.06.58-.11.53-1.76.77-.14.23-.71.91-.2.5v.56l.08.44.22.88.22,3.44.2.77.38.85,1.43,6.52.39.71.47.62.38.67,2.15,5.32,1.76,3.24-1.07.61-.94-.26-1.4-1.35L549.91,546l-2.46-.62-.85-1-.16-1.38v-3.74l-.86-1.76-1.13-1.12-1.87-1.14-1.87-.35L539,535l-1.21.12-1.6-.23-.39.61-.63,1-1.6-.26-1.24-.86-.93-.88-.75-1.11-.58-1.15-.63-1.38-1.13-.74H527l-1.13-.76-1.49-.74-1.43-.14-1.6.5-2.23-.24-1.51-.5-1.68-.61-1.41-.77-1.9-1.26-2.07-1.24-1.87-1-1.79-.38-1.87.5-1.57-.12-1.85-1.2-.33.41.39,2-.44,1.32-1.3,1.27-.6-1.09-.69-.56-1,.32-.89.71-.68.79-.06.8,1.07.64v.41l-1.07.06-1,.3-.41.67.82,1.15H495l-.86-.35h-2.47l-.33-.27-1.27-1.59-1.05-.88-1.07-.17-.83,1.08-.19-.29-.19-.06h-.2l-.25-.06.67-.62.44-.73-.09-.59-.88-.26-3.17.41.28-.71.14-.67.38-3.76-.91.94-.68,1.5-.8,1.35-1.3.61-.3.06-.5.27h-.41l-.39-.15-.85-.59-2.37-1.08.36,1.55-.55.71-4.24.67h-.55l-.31-.08-.35-.21-.28-.06-.91.06-.36-.06-2.2-.67-.94-.09-.6.14-1.52.71-5.07.82-.41.18-.41.26-.66.65-.31.21-1.59.23-8.1-2.17-.88-.59-.53.06-.19-.09-.08-.21-.14-.7-.06-.24-.16-.38-.17-.76-.22-.33.75-.61.24-.36.12-.53-1.22.5-1,.12-1-.17-1.82-.62-.55-.09-.52-.26-1.52-1.89-1.13-.88-1.26.47-2-1-3.34-2.38-.05.62.13.73.09.59-.31.27-2.53-.09-.72-.24-.63-.38-.52-.56-.22-.82.52-.73.8-.56.66-.33.85-.08,2.21.47,3.06-.56.35-.21,2.1-1.82.49-.12h.55l.28-.18-.36-.64-1.82-2.32-.66-.24-1.49.12-1.76-.27-5.59-2.14-.94-.24h-.91l-.6.3-.61.62-.22.29-.16.41-.06.5.06,1.71-.91-2.27-.33-.35-.58-.21-4.71-4.41-.63-1.26,1.29.94,1.05,1.06.6.26,7-.47,1.37.39,2.32,1.29.16.06.39.14h3.44l3.47.71,2.32-.35h.82l4.44.91,2.2,1.32,1.65.35,1.77-.14,1.54-.62,1.1-1.09-.74-1,1.1-1.41,2.81-2.2.77-.47,1.84-.21.72-.41.61-.62.63-.41.58-.53.47-.88-.94.41-1.1.74-1.1.53-1-.18-5.4,2.85-2.94.35-2.67-1.35-.64-.94-.22-.15-.47.18-.66.73-.38.18-.44.06-.8.23-.42.06-.93,1.12-.58-.56-.58-2-.66-.41-2.48-.47-.69-.32-.55-.56-.63-1-.53-1.06-.22-.91-.16-1-.36-.82-.47-.77-.38-.91-.17-2.23.74-1.71,1.08-1.55.85-1.88.2-1.09v-.82l-.44-.53-2-.36-.42-.44.14-.7,1.21-1.68.31-.56-.22-.38-1.2.07-1.76.3-.77-.09-.63-.62,1.13-2.26.13-1.32-.58-1.41-.55-.47-.52-.12-.39-.24-.33-.82-.11-1.06v-.56l-.14-.44-.58-.56-2.37-1-.36-.68.2-1.09-.06-.38L424,466l-.17.18-.55,1-.14.32.25.62.64.62.77.47,1.79.41.41.65v3.17l.17.29,1,.21.28.26.22.27.19.12.49.41-.3.91-.58.88-.3.38-.28,2.44,1.27.53,1.82-.23,1.32.23-1.18,1.24-.55.85-.2.88.33.94.72.21.91-.3.83-.47.16,1.18-.36,1.61-.74,1.42-.88.58-1,.3-.86.79-.49,1.18V492l1.51,1.88.17.38-.31,2.38.11.91.22.44.06.35-.39.71-.27.32-.91.56-.47.21-1.76.35-1.74-.26-3.91-1.39-2.4.21-.68.35-.36.74-.39.64-.88.15-.33-.17-.58-.5-.36-.12-.85.06H414l-.3-.18-.17-.76.39-.94,2.23-3.47.58-1.15v-.53l.5-.41,1.84-2.53-.47-.7-.33.32-.27.77-.3.67-.28.24-.77.29-.33.21-.25.29-.77,1.12-.06.2-.13.15-.44.12-.53-.3-.55-.44-.61-1.35-.41-.65-.63-.26.44,1.35.08.35.08.8.25.32.36.18,1.27.94.13.41-.3.68-.74,1.11-.06.18-.63.47-1.38,2-.49.44-.77.17-1.8.92-.57.44-.58-.27-1.13-.15-.5-.32-.3.38-.77-.47-2.81-.7h-1.1l-2.07.59-2.15.26-1.68.53-.85.12-.36.2-.94.74h-.35l-.47-.21-.53.21L388.78,504l-.5.11-1.71-.35h-.38l-.5.38-1.18,1.56-.25.44.14.74.68,1.32.28,1.12h.14l.33.26.16.32-.19.15-.11.12-.14.26-.14.3-.35,1.64-.09.21-1.65,2.06-.69.55-2.15-.14-.35.32.16.29.94.59.27.44v.59l-.19.53L380.18,520l-2.81,3.7-.88,1.56-.58.73-.6.32-.36.45-.8,2.11-.39.74L368.83,534l-4.43,5.5-2.26,2.12-2.67,1.94.08-.71-.22-3-.3-.11-.39.38-.3.5-.19.62-.14,1.41-.08.35-.14.35v.3l-.06.17-.33.09-.08-.12-.25-.2-.24-.09-.11.23-.34.18-1.87-1.41-1-.38-.91.44-.3,1.06-.11,1.29-.2,1.23-.41-.61-.41-.5v-.39l.24-.58-.13-.3-.36.12-.3.76-.06.92.19.7.31.56.38.41-.27,1.44-.22-.5-.31-.35-.85-.59-.11-.2.05-.27v-.18l-.36-.08-.22.11-.14.24-.08.26-.11.12h-.94l-1.07.21L346,548l-.27,1.08.3.71.52.35,1.08.35.6.59.28.41-.19.18-.72.26-.63.53-.69.3-.83-.36-.11.33-.08.14V553l.19.44-.6.3-1.13.38-.5.44.06-1.38-.44-1.44L342,550.6l-.91-.47.11-.38-.25-2.53.25-.88.28-.41,0-.3-.33-.61-.19-.3-.14-.11-.14-.06-.82-.68-.25-.23-.16-.48-.2.06-.19.27-.08.41.13.35.56.71.13.26-.16.41-.75.94-.22.65-.05.82.11.42.22.35.27.62-1.37,1-.25,2.09.08,2.56-.38,2.44,1,.47.57.17.78.06.74-.14.58-.36,1-1-.5.59-1.32,1.94-.52.41-.42.24-.27.5-.2.5-.22.23-.63.18v.47l.63,1.29.33.38.47.27.44-.06.14-.47v-.65L340,562l.66-.17v1.26l.11.21h.25l.19-.18v-.2l.36.11.3-.06.28.21.16.88.28-.82.19-.88.31-.41.6.64.3.88.06,1-.33.71-.8-.06.55.59.33,1,.17,1.14.08,2.3-.06.44-.13.47-.33.73-.09.44-.44,1.27-.08.55v.53l-.08.06-.77.71-.66.35-.72.18-.63-.12.22-.38.08-.41v-.39l-.22-.32.52-1.56-.22-2.05-.69-1.83-.88-.79-.47-.24-1.87-1.58L331,564.36l-3.12-.3-.38-.12-.44-.2-.44-.09-.39.24-.22.26-.3.29-.36.24-.36.12h-.83l-.66-.12h-.66l-.88.44-.6.5L321,566l-.13.38-.22.15-1,.06-.33.15-.58.55-.68.3-1.66.44-2.06,1.62-.55.23h-.89l-.35.12-.28.17-.25.47-.14,1-.16.36-.94.32L310,572l-.66-.65-.52-.35-.91-.15-1.05-.7-.63-.21-1.07.27V571l0,.79-1.15.53-.09.41.14.5.19.39.28.23,1.13.5-.44.47-.52.21h-1.27l-1.49.2-5.34-1.14-3.34-1.62-3.58-.88-1.43-.74-.66-.17-.94-.56-.77-1.33-1.21-2.88.22-1-.77-1-1.18-.62-.91.09H282l-.55-.62.09-.38.27-.65.36-.64,2.15-1.5,2.86.2,3,.74,2.56.09.86-.36.16-.64-.25-1.8-.08-.11v-.12l.25-.38v-.06l.22-.21,1.07-.47-.55-.7-.19-.77-.06-.73-.22-.74-.52-.5-.63-.35-.36-.38.27-.62.94-1.29.44-.44.72-.44,1.15-.36.25-.41-.16-.59-.11-.41.63-1,2.7-.26,1.05-.56.13-.53-.05-.56-.08-.47V544l.3-.27,1.18-.23.77-.41.5-.47.28-.68,0-1.09-.16-.91-.56-1.85v-.88l.44-.8.69-.41,7-1.73,1-.44.11-1-.72-2.35-.11-1.32.3-.86,1.41-1.44.91-1.44.47-1.26L314,523l-1-1-1.32-1.17h0L311,520v-.73l.31-.76.22-1v-.86l-.72-2.55-.3-2,.25-1.5.8-1.21,3-1.85L316,507l.77-.26,3.53-1.85h.88l.63.73.28,1.18v4.55L322,512l-.24.5-.36.5-.31.53v.56l.69.52.88-.5,1.46-1.49.5-.18.27.09.2-.09.27-.68v-.5l-.19-1.08.13-.65.72-1.09.55.18.94,1.85.74,1h.5l1.73-2.5.77-.76.8-.41h0l.94.14.22.36.08.35-.08.35-.22.38-.22.44-.09.42.09.41.22.38.6.23,1.27.21.55.21.58.47.55,1.17.55.68.63.35.69.09.66-.24.56-.53.27-.85-.19-1.32.25-.35h1.15l.8-.3.44-.79v-1.53l.5.82,2.12,1.89.85,1.23.19.44.06.5v1l.08.38.8.82.8-.11,1.49-1.24.77-.3.67-.12,4.76.27,1.76-.3,1.05-.94,1-1.67-.55-.33-.66-.11-.61.11-.38.33-.69-.77-1.85-1.35.31-.47-.5-.94-.25-.32-.33-.24h-.22l-.49.3-.28.08-.14-.11-.19-.53-.08-.15-1.76-.68-.58-.64-.11-1.21.69-.06.88-.17.47-1.15-.09-.53-.52-1.09-.14-.55v-.74l.14-.5.19-.47.16-.65L352,495l-.06-1-.19-.42-.44-.79-.14-.38-.06-.5v-1.15l-.11-.38-.41-.21-.39.15-.38.24h-.36l-.19-.3-.3-1-.2-.38-1.15-.88-1.16-.15-1.19.12L344,487.7l-.75-.5-.93-1.44-.66-.58-.61-.24-1.32-.09-.64-.2-.35-.3-.64-.67-.36-.18-1,.09-.22-.06-.36-.59v-.7l.06-.15.16-.71.31-2,.44-.59.47-.5.3-.74v-.85l-.27-.73-.47-.56-.55-.35-.75.08-.46.59-.36.71-.44.32-.33-.32L333,474.3l-.09-.18v-.35l.09-.14,1.13-.09.85-.24.58-.64.25-1.36-.42-2.82.14-1.2,1-.47.47-.94V464.6l-.38-1.26-.53-.94-.68-.53-.75-.27-.8-.05-.82.08-.42.86-.19.82-.27.76-.69.62-.66.18-.64-.06-.6-.27-.55-.44-.42-.61-.11-.21-.14-.79v-.77l-.2-.88-.52-.71-.63-.26-.64-.12-.55-.29-.33-.59-.16-.65-.28-.55-1.24-.77-.74-1.14-.58-.3-.66.27-.36.58-.44.33-.72-.5-.33-.59-.63-1.65-.11-.2-.28-.47h0l-.52-2.18.52-1.44,1.05-1.26,1-1.68.44-2.05v-1.91l.22-1.71,1.21-1.41.47-.7-.17-.59-.5-.44-1.4-.44-.39-.36v-.61l.36-.94.5-.62.74-.74.64-.79.11-.74-.39-.26-1.6-.44-.55-.41-.33-.8-.36-1.88-.3-.85-.47-.7-.49-.42-.58-.2h-.69l-1.27.56-1.76,2.11-1.46.27-1.24-.47-.58-.38-.85-.62-1.3-1.29-.82-1.3-.25-.41-.66-.56-.28-.35-.08-.35-.11-1.41-.66-1.44-.08-.36v-.38l-.11-.41-.28-.44-1.13-.68-1.46-.23h-2.78L296.5,417l-1.29-.06-.91.38-.72,2-.06.21-.22.94v.91l-.17.53h-.41l-.8-.53-.5-.44-1.13-2.18.67-.68.05-.85-.38-.73-.64-.41-.93.11-.53.68-.41.82-.63.65-.83.15-.47-.47-.05-.77.24-.76.64-.65.58-.35.44-.5.27-1.15-.08-1-.41-.44-.69-.09-1.85.21-.69.38-.63.5-.85.47-.94.21-.69-.21-.44-.62-.14-1-.3-.91-.66.08-1.24,1-.64.15h-.88l-.58-.41.78-2.15-.22-1-.67-.7-.82-.35-2.12-.27-1.46-.14-1.63-.59-.88-1.27-.3-.26-.47-.62-.83-1.11-.6-.59-2.59-1.77-1.35-.58-5,.05-.83-.38-.08-1.44-.89-.09-1,.62-.5.12h-1.65l-.94,1.15-2.42,1.91-.69.29-.55-.18-1.13-1-.77-.17-1.46.67-2.18,2.5-.22.27-1.54.7-1.3-.06L236,404.26l-.83-.5-.44-.11-.44.14v.41l.11.48v.55l.14.33.06.26-.22.15-.47-.09h-.44l-.28-.15-.3-.06-.39.39-1.51.23-1.41-.76-1.29-1-1.35-.56-.44.15-.14.35-.11.38-.36.35h-.27l-.66-.23h-.23l-.41.53v.5l.22.64.22,1.06v1.06l-.17.71-.47.38-.79.06-.75-.33-.49-.58-.45-.68-.52-.56-.8-.29-.22.47-.22.7-1.32.77-.44.67-.25.86v.47l-1.24.52-5.06,1-.69.15-1.9.09-.66.15-1.35.61-.69.21-.75-.06-.33-.15-.27,1.82V417l-.42,1.73-.66,1.71-.61,1.17-.49.53-1.05.8-.49.58-.88,1.89-.39.55-1.9.8h-3.88l-2.57.7-1.92-.17-.67.11-1.24.5-2.12.24-2.64,1-19.75,2-1.71,1.08-3.91,5.94-1.68,1.47h0l-2.53,1-3,.47-.55.09-1.29.23-.77-.5-.94-1.32-1.35-2.23-.5-.65-.57-.47-3.3-1.24-1.35-.76-.72-.76-.16-.68-.06-.71-.25-.88-.63-.7-1-.77-1.54-.82-.33-.18-.8-.17H132l-2.28-.53h-.77l-.94.47-1.57,1.23-2,.06-2.68,1.26h-.88l-2.37-.86-.08.06-.69-.15-1.46-1.26-.8-.35-2-.5-.66-.44-1.26-.06-4,1.53h-.86l-.27-.86-2.1-1.76-.66-.32-2.81.14-.93-.11-1.66-.53-2.59-.27-.74-.23-1.51.26-.45.12-.44.32-.16.39-.22.29-.22.26-.14.09-.14.12h-.85l-2.59-1.18h-.22l-.3.12h-.3L87,426l-.3-.09-.91-1-1.9-1.5L82.2,421.6l-.69-.47-2.81-.88-.91-.12-.8.36-.79,1.11-.91,2.56-.55.94L73,426.33l-.64.12-.66-.2-.63-.36-.61-.38-.71-.32-.64.06-.33.64.36,1.12-.36.74-.71.44-.83.23-1.46-1.09-.36-.67.69-.77.08-.85.28-.53.14-.56-.28-1-.41-.77-.55-.62-1.19-1-1.43-.74-.14-.26-.66-.39-.69.18-.69.41-.74.21H57l-.52.26h-.11l-.23-.23-.68-1.3L54.88,417l-.53-1.15-3-3.58-.17-.06h-.33l-.8.35-.6.06-.63-.12-.8-.29h-.33l-.17.06-.33.23-.3.09-.28-.09-.27-.23-2-2.76-.41-1.12-.06-.77L44,407v-.53l-.31-.47h-.27l-1.13.06v-.88l.58-1.68-1.43-.65-1.38-.14-1.29.47-.41.38h-.08l-1-.15.06-4,.44-.91.14-.85-.47-2.23.08-1.12.61-.91,2.61-1.91L41,391l.44-.88.3-.39.5-.32,1.07-.29.47-.3.66-.79.47-1,.28-1.18-.06-1.17.14-.74.3-.35.36-.29.36-.44.27-.65.11-.35L46.56,380v-.89l.24-.67.09-.12.3-.38,1-.74.39-.5.08-.35v-1l.52-1L50,372l.71-.5,1.55-.21.63-.47v-.94l.19-1.29.31-1.26.3-.91.83-.74.82.24,1.52,1.5,1,.61.85.09.86-.06,1.46.09.91-.24h.44l.41.36.74.94.45.14.71.33.88.73.83.33.47-.89-.09-.2v-.09l-.66-1L66,368l.06-.73.36-1.09v-.47l-.5-.59L64,364.23l-.74-.5-1.19-1.38-1.29-.85H61l-.63-.41-.53.58-.19.12-.25-.29.22-.68.64-1.2.57-2,.69-1.68.14-.82L61.1,350l-.16-.88-.23-.44-.88-.82-.52-.74-.11-.32-.14-.62-.25-2.38-.27-.82-.77-2,1-2.17,3.06-3.68.69-1.79.3-.47.44-.35.85-.18.44-.15.69-.61,2.48-4.06.39-.44.35-.21.72-.23.33-.33.19-.38.34-1.14.22-.44,1.68-1.56L76.29,317l1.62-1.59,1.46-1,1.21-1.67,9.2-9,1.82-1.26,2.18-1.5h0l1.15-.85,3.17-3.09.58-.73v-.06l.52-1.5.44-.82.55-.5.69-.3,1.38-.41,7.3-.09,2.12-.76.88-1.85.17-.62.08-.74-.06-1.08.11-.68,2.59-1.2.75-.74.52-.65v-.11l-.19-.18-.31-.73-.38-2.68.93-1.44h0l-1-2.2-.31-1.18.25-1.29-1.1-.24-1.1-.61-.55-.86.52-1v-.35l-1.13-.12-.93-.41-.61-.7-.08-1.09.49-1,.94-.62,1.1-.14,1.07.55.8-.32h1.35l1.22-.23.49-1-.52-.71L114.33,264l-2.72-2.23L111,261l-.22-.73v-.5l-.13-.47-.44-.62-.5-.3-.5-.17-.3-.24.17-.44v-.35l-.47-2.38-.36-.77-1-1.44-.58-1.14.14-.5.66-.33L107,250l-2-1.79L103,247l-.91-1-2.23-4.32-.69-.41H98.4l-.64-.3-.25-1.2.2-.77.58-.85.71-.64.72-.27-.25-.76.06-.59.27-.41.47-.18-.33-.7-1.63-2.12v-.38l.6-1.12-.55-.35-.74-.24L97,230l-.25-.82-.08-.36.35.27.36-.18.19-.85-.11-.56-1.1-2.76-.22-.44.06-.47.47-.74.41-.38.49-.26,3.92-.88h.93l2.87.76,1,.09,1.6.56,1.13,1.23,1.13.94,1.62-.23,6-4.8,4.57-2.76,1.13-1.41,1-3.73.61-1.12,1.46-1.94.88-.79.85-.27,10-.7,2.45.53h.85l11.3-1.62,3.61-1.67,1.84-.53h1.82l6.78,1.61,7.87.12,5.46.09,3.41-.62,8.57,1.44,2.81-.09,1.21.24,2.59,2.06,1.21.47,9.37.35.47.2v.42l-.11.53.08.55.49.62.58.27,8.84.23,7.63,3L230,216l4.05-1.26,3.55.11,1.65.33,1.11.56.24.88-.11,1.23v1.53l.33,1.12.57.5.8.09,1-.12,1.18.26-.11,1-.61,1.24-.22,1,.53.44.88-.09,1.6-.44,2.39.35.83-.06.88-.38,1.13-1.09.74-.35h1.41l4.35,1.56,2.29.06.63.32.5,1.17-.34,1.45-1.32,2.88.09.14.16.33.55.52.63.45.58.23.64-.09.44-.35,1.87-2.26.22-.36.17-.76v-.62l-.11-.61v-.74l.25-1.15.52-1,.74-.61.94-.15.85.41L270.9,226l.77.36.72.17h3.93l.78-.23,1-.8,1.32-2.2.77-1.06.88-.7.89-.39.82.06.61.59.14.56v.5l.05.53.33.64.5.42,1.16.64.49.5.25.59.44,1.59.22.44.52.17.53-.23,1-.88,2-1.21,1-.32h1.11l3.61.68,1,.38.36.79.08,1.15.64,3.2.27.79.39.62.66.27.58-.24.52-.29.52.06.28.7.3,1.06.41.59.75-.74.19-.82-.11-2.18.14-1,.77-1.58,1.13-1.21,1.29-.91,1.27-.59,1.19-.23h2.47l1.08-.35.74-.74,1-1.79.8-.71.79-.26h.83l1.6.35,1,.56.5.71.82,2,1.32,1.8.47.94.17,1.5-.39,1.47.28.64.68.44.8.85.47,1.12.33,1.24.5,1,.93.48.83-.27.52-.38,1-.82.94-.27,1.76.65h.8l.58-.91.58-1.38.41-.68.55-.26,1-.09.93-.36.58-.64.58-.74.83-.67.79-.3.94-.11.88.08.69.44.66,1,.36.86.5.64,3.66.53.72-.18.41-.38.69-1.11.49-.3h.42l.66.38h.49l2.46-1.14.9-.24,5.65-.14L361,231l1.13.73,1.51,1.86.58.53,2,.88.53.41.24.38.12.38.05.47v1l-.33,1.18-.11.06.27.61,1.24,1.41.55.44.61.21h1.18l.61.12.58.5.91,1.2.63.18.55-.06.55.12.5.29.47.44.3.56.44-.12.16-.32h0l.06-1.38.11-.12.71-1.12.11-.82,1.22-.79,1.13-1-.25-1.62.52-.2v-.3l-.27-.32-.22-.32-.39-1.59-.19-.38-.47-.33h-.44l-.3-.15-.14-.68.05-.7.33-.41.45-.15.52.12v-.44l-.41-.15-.42-.27-.33-.41-.19-.7.22-.47-.17-.42-.44-.38-.46-.32.33-.26.19-.27.33-.65-.69-.29-1.32-.32-.47-.56V226l.19-.12.14-.12.17-.09.33-.09v-.35l-.36-.2-.77-.59V224l1.15-.94.53-.21-.17-.56L376,222l.22-.15.33-.44.28-.24-.25-.79.47-1.21-.22-.76.49-.15h1.24l.44-.17.25-.56.06-.71.11-.67.44-.41v-.44h-.3l-.83-.36.49-.5.91-.53.72-.64v-.88l-.3-.56v-.21l.19-.17L381,211l.88-1,.11-.2.22-.18.2-.38.25-.38.82-.38.11-.5v-.53l.16-.35.34-.12,1.18.12.36-.15.36-.35.55-.68v-.38l-.22-.27-.11-.35v-.21l1.13-.38.58-.32.5-.35.44-.42.41-.49v-.48l.06-.35.33-.38.33-.21.22-.11.22.11.27.33,1.05-.06.36-.77-.39-.76-1.15-.15.13-.26.09-.29.11-.27.19-.29-.22-1,.6-.62,1-.29,5.51-.27,1.55.18,1,.47,1.84,1.41,1,.32.93-.38.66-.94.64-1.15.8-.94,3.16-1.14h3.7l7.05,1.2Zm-74.26,355,6.3-5.43,2-1-8.76,7.73-4,2.79-3.09,1.23,2-1,.8-.62.33-.5.22-.5L347,553l.61-.09.55-.14.63-.5,1.19-1.18Zm123.53-18.84.42.42,1.84-.15.5.67-.69.71-16.94-2.59.3-.29h.17l.33.32,5.78.74,2.79-.53,1.18.06,1.29.88,1.66-.68,1-.08ZM432,522.91l5.26,1.21,3.3,1.41.53.35-.91-.17L438.5,525l-14.68-2.91-6.31-2.26-1.27-1.06-1.07-1.65-.33-.88-.36-1.38v-1l.72.27.66,2.32.63,1.59,1,1.08,1.6.89Z" style="fill:#efc441"/><polygon points="499.89 527.21 501.19 525.94 501.63 524.62 501.24 522.62 501.57 522.21 503.42 523.41 504.99 523.53 506.86 523.03 508.65 523.41 510.52 524.41 512.59 525.65 514.49 526.91 515.89 527.68 517.58 528.29 519.09 528.79 521.32 529.03 522.92 528.53 524.35 528.67 525.84 529.41 526.97 530.17 528.29 530.17 529.42 530.91 530.05 532.29 530.63 533.44 531.38 534.55 532.31 535.43 533.55 536.29 535.15 536.55 535.78 535.55 536.17 534.93 537.77 535.17 538.98 535.05 540.69 534.93 542.56 535.29 544.43 536.43 545.56 537.55 546.41 539.32 546.41 540.93 546.41 543.05 546.58 544.43 547.43 545.43 549.89 546.04 551.76 547.43 553.16 548.78 554.1 549.04 555.17 548.43 556.88 551.57 568.45 567.5 574.43 571.41 575.92 571.56 583.05 569.68 583.9 569.15 585.01 568.06 585.17 567.53 585.2 567.06 585.39 566.71 585.97 566.56 586.19 566.38 586.82 565.59 586.93 565.33 587.07 564.36 587.43 563.36 587.98 562.56 588.61 562.21 589.61 562.27 589.69 562.8 589.38 563.62 589.16 564.59 589.44 565.24 590.13 565.77 593.19 567.47 594.76 567.97 596.22 567.68 597.4 566.24 597.95 564.62 598.09 564.38 599.19 563.74 600.07 562.95 600.84 562.68 605.47 562.71 606.11 562.39 606.77 561.89 607.4 562.06 607.7 562.74 607.35 563.68 607.87 563.65 608.25 563.39 608.58 563.09 609.02 562.92 609.8 563.06 611.06 563.86 611.89 564.06 614.26 563.53 615.06 563.68 616.08 564.91 616.76 565.5 617.4 565.33 618.12 564.65 618.8 564.53 619.41 564.86 620.01 565.5 620.73 567.32 621.01 568.59 620.7 569.15 619.41 569.47 618.91 569.5 618.45 569.38 617.26 568.79 616.32 568.65 615.55 568.82 615 569.38 614.81 570.44 614.98 570.82 615.22 571.03 615.33 571.26 615.06 571.73 614.73 571.91 613.82 571.97 613.46 572.09 612.91 572.79 612.47 573.88 612.14 575.02 611.81 578.17 611.78 579.32 612.03 580.43 613.13 581.61 613.65 582.4 613.57 583.2 613.05 583.67 610.13 584.66 606.52 584.81 606.11 584.93 605.69 585.19 605.55 585.49 605.31 586.4 605.17 586.66 604.37 586.84 600.79 586.11 598.5 584.78 598.5 585.19 597.26 584.66 596.35 585.52 595.67 586.72 595.06 587.37 591.98 587.16 589.22 587.66 588.39 587.28 588.04 586.11 587.79 585.58 586.6 584.2 586.11 583.75 583.52 582.23 580.6 581.17 578.86 580.87 577.1 580.9 575.45 581.23 573.99 581.9 571.87 583.49 571.51 583.93 571.4 584.55 571.21 584.99 571.07 585.4 571.21 585.96 571.45 586.19 572.61 586.66 572.61 586.99 572.06 587.22 570.76 587.16 570.13 587.37 569.66 587.96 569.61 588.66 569.86 590.25 567.93 588.84 567.76 589.04 567.35 589.34 567.07 589.57 566.08 589.01 565.39 589.46 564.46 591.19 563.74 591.81 562.01 592.19 561.29 592.51 560.3 594.22 559.44 596.54 558.34 598.18 556.61 597.92 556.17 597.36 555.81 596.63 555.31 595.98 554.51 595.72 553.16 595.66 552.75 595.72 552.28 595.95 551.98 596.22 551.7 596.51 551.37 596.77 550.66 596.89 549.34 596.6 548.76 596.98 548.1 597.22 545.31 596.77 543.85 597.27 541.02 599.07 539.5 599.71 536.31 600.36 534.96 600.89 533.97 601.89 533.94 601.74 533.94 601.62 533.88 601.54 533.72 601.57 532.12 603.71 531.9 604.06 531.51 604.53 530.14 606.8 528.57 610.62 528.18 611.32 527.82 611.41 526.94 611.32 526.36 611.32 525.92 611.26 525.76 611.32 525.56 611.5 525.54 611.68 525.56 611.82 525.45 612.03 524.63 613.32 524.1 613.73 522.18 614.12 521.68 614.7 521.32 615.5 520.77 616.38 520.33 616.79 518.98 617.67 518.4 617.85 517.49 617.97 513.14 619.9 512.34 619.99 511.43 619.85 508.9 618.91 508.4 618.94 507.55 619.2 507.11 619.29 504.44 619.23 503.61 619.02 500.58 617.67 500.03 617.2 499.81 616.2 499.56 615.7 498.35 614.23 497.88 613.88 497.17 613.91 496.31 614.17 495.43 614.23 494.71 613.67 494.22 613.17 489.89 610.32 489.59 609.68 489.56 609.09 489.54 609.06 489.7 609.21 490.91 608.94 491.27 608.8 492.15 608.15 492.51 608.06 493.36 608.12 493.8 608.09 494.13 607.88 494.71 607.71 496.78 607.68 497.61 607.36 497.06 607.15 495.73 606.91 495.37 606.62 495.32 605.86 495.68 605.18 496.17 604.62 496.5 604.06 496.67 603.21 496.61 602.65 496.2 601.57 495.95 600.13 495.73 599.33 495.37 598.66 495.7 598.39 495.84 598.22 495.95 597.92 496.23 596.86 496.59 595.89 497.11 595.22 498.68 594.72 499.12 594.04 499.4 593.13 499.56 592.1 499.53 590.9 499.09 588.81 498.98 587.93 498.87 587.6 498.16 586.28 498.02 585.78 497.88 584.43 497.25 582.25 496.23 581.02 493.47 579.35 491.24 577.46 490.55 577.17 488.9 577.38 487.39 577.93 485.98 578.73 485.05 578.96 484.63 578.46 484.27 577.7 483.39 577.29 481.6 576.82 480.97 576.26 479.56 574.61 478.57 574.05 478.24 573.61 477.77 572.82 477.39 572.56 476.7 572.29 476.34 572.09 473.67 569.94 472.21 569.03 470.56 568.41 464.55 567.94 463.67 568.06 463.04 568.47 461.63 569.91 461.05 570.23 458.16 570.23 457.31 569.97 455.9 569.29 454.99 569.15 453.92 566.24 453.75 565.5 454.28 564.09 455.49 562.89 460.25 559.51 461.05 559.27 461.99 559.21 462.73 558.98 463.37 558.65 463.92 558.21 464.3 557.83 464.52 557.48 464.86 557.18 465.46 557.1 465.87 557.15 466.64 557.42 467.11 557.51 467.69 557.33 467.75 556.89 467.61 556.42 467.55 556.01 467.64 555.54 467.8 555.25 468.08 554.89 469.29 553.72 472.07 551.98 481.19 548.01 481.69 547.66 481.88 547.01 481.71 546.81 481.33 546.63 481.02 546.31 481.08 545.75 481.41 545.46 481.8 545.66 482.46 546.49 483.86 547.25 485.29 547.1 488.21 545.4 489.67 544.81 489.89 544.46 491.11 543.19 491.71 542.96 493.39 541.93 494 541.7 494.3 541.81 495.04 542.31 495.51 542.43 495.93 542.37 496.92 542.11 497.88 540.96 498.71 540.49 499.15 540.28 499.56 540.23 499.97 540.34 500.42 540.55 500.77 540.84 500.94 541.17 501.13 541.43 501.57 541.49 502.43 541.37 502.51 540.73 502.43 539.46 502.51 538.49 503.12 538.76 503.8 538.4 505.15 538.08 505.87 537.67 505.13 537.08 504.35 536.7 502.07 536.14 501.05 536.23 500.61 536.4 500.33 536.73 500.03 536.88 499.56 536.55 500.31 535.61 500.64 534.99 500.5 534.7 500.03 534.52 500 534.08 500.22 533.55 500.5 533.11 500.44 532.73 499.95 530.88 499.86 530.26 500.31 529.7 500.69 529.09 500.5 528.29 499.89 527.21" style="fill:#efc441"/><polygon points="499.89 527.21 501.19 525.94 501.63 524.62 501.24 522.62 501.57 522.21 503.42 523.41 504.99 523.53 506.86 523.03 508.65 523.41 510.52 524.41 512.59 525.65 514.49 526.91 515.89 527.68 517.58 528.29 519.09 528.79 521.32 529.03 522.92 528.53 524.35 528.67 525.84 529.41 526.97 530.17 528.29 530.17 529.42 530.91 530.05 532.29 530.63 533.44 531.38 534.55 532.31 535.43 533.55 536.29 535.15 536.55 535.78 535.55 536.17 534.93 537.77 535.17 538.98 535.05 540.69 534.93 542.56 535.29 544.43 536.43 545.56 537.55 546.41 539.32 546.41 540.93 546.41 543.05 546.58 544.43 547.43 545.43 549.89 546.04 551.76 547.43 553.16 548.78 554.1 549.04 555.17 548.43 556.88 551.57 568.45 567.5 574.43 571.41 575.92 571.56 583.05 569.68 583.9 569.15 585.01 568.06 585.17 567.53 585.2 567.06 585.39 566.71 585.97 566.56 586.19 566.38 586.82 565.59 586.93 565.33 587.07 564.36 587.43 563.36 587.98 562.56 588.61 562.21 589.61 562.27 589.69 562.8 589.38 563.62 589.16 564.59 589.44 565.24 590.13 565.77 593.19 567.47 594.76 567.97 596.22 567.68 597.4 566.24 597.95 564.62 598.09 564.38 599.19 563.74 600.07 562.95 600.84 562.68 605.47 562.71 606.11 562.39 606.77 561.89 607.4 562.06 607.7 562.74 607.35 563.68 607.87 563.65 608.25 563.39 608.58 563.09 609.02 562.92 609.8 563.06 611.06 563.86 611.89 564.06 614.26 563.53 615.06 563.68 616.08 564.91 616.76 565.5 617.4 565.33 618.12 564.65 618.8 564.53 619.41 564.86 620.01 565.5 620.73 567.32 621.01 568.59 620.7 569.15 619.41 569.47 618.91 569.5 618.45 569.38 617.26 568.79 616.32 568.65 615.55 568.82 615 569.38 614.81 570.44 614.98 570.82 615.22 571.03 615.33 571.26 615.06 571.73 614.73 571.91 613.82 571.97 613.46 572.09 612.91 572.79 612.47 573.88 612.14 575.02 611.81 578.17 611.78 579.32 612.03 580.43 613.13 581.61 613.65 582.4 613.57 583.2 613.05 583.67 610.13 584.66 606.52 584.81 606.11 584.93 605.69 585.19 605.55 585.49 605.31 586.4 605.17 586.66 604.37 586.84 600.79 586.11 598.5 584.78 598.5 585.19 597.26 584.66 596.35 585.52 595.67 586.72 595.06 587.37 591.98 587.16 589.22 587.66 588.39 587.28 588.04 586.11 587.79 585.58 586.6 584.2 586.11 583.75 583.52 582.23 580.6 581.17 578.86 580.87 577.1 580.9 575.45 581.23 573.99 581.9 571.87 583.49 571.51 583.93 571.4 584.55 571.21 584.99 571.07 585.4 571.21 585.96 571.45 586.19 572.61 586.66 572.61 586.99 572.06 587.22 570.76 587.16 570.13 587.37 569.66 587.96 569.61 588.66 569.86 590.25 567.93 588.84 567.76 589.04 567.35 589.34 567.07 589.57 566.08 589.01 565.39 589.46 564.46 591.19 563.74 591.81 562.01 592.19 561.29 592.51 560.3 594.22 559.44 596.54 558.34 598.18 556.61 597.92 556.17 597.36 555.81 596.63 555.31 595.98 554.51 595.72 553.16 595.66 552.75 595.72 552.28 595.95 551.98 596.22 551.7 596.51 551.37 596.77 550.66 596.89 549.34 596.6 548.76 596.98 548.1 597.22 545.31 596.77 543.85 597.27 541.02 599.07 539.5 599.71 536.31 600.36 534.96 600.89 533.97 601.89 533.94 601.74 533.94 601.62 533.88 601.54 533.72 601.57 532.12 603.71 531.9 604.06 531.51 604.53 530.14 606.8 528.57 610.62 528.18 611.32 527.82 611.41 526.94 611.32 526.36 611.32 525.92 611.26 525.76 611.32 525.56 611.5 525.54 611.68 525.56 611.82 525.45 612.03 524.63 613.32 524.1 613.73 522.18 614.12 521.68 614.7 521.32 615.5 520.77 616.38 520.33 616.79 518.98 617.67 518.4 617.85 517.49 617.97 513.14 619.9 512.34 619.99 511.43 619.85 508.9 618.91 508.4 618.94 507.55 619.2 507.11 619.29 504.44 619.23 503.61 619.02 500.58 617.67 500.03 617.2 499.81 616.2 499.56 615.7 498.35 614.23 497.88 613.88 497.17 613.91 496.31 614.17 495.43 614.23 494.71 613.67 494.22 613.17 489.89 610.32 489.59 609.68 489.56 609.09 489.54 609.06 489.7 609.21 490.91 608.94 491.27 608.8 492.15 608.15 492.51 608.06 493.36 608.12 493.8 608.09 494.13 607.88 494.71 607.71 496.78 607.68 497.61 607.36 497.06 607.15 495.73 606.91 495.37 606.62 495.32 605.86 495.68 605.18 496.17 604.62 496.5 604.06 496.67 603.21 496.61 602.65 496.2 601.57 495.95 600.13 495.73 599.33 495.37 598.66 495.7 598.39 495.84 598.22 495.95 597.92 496.23 596.86 496.59 595.89 497.11 595.22 498.68 594.72 499.12 594.04 499.4 593.13 499.56 592.1 499.53 590.9 499.09 588.81 498.98 587.93 498.87 587.6 498.16 586.28 498.02 585.78 497.88 584.43 497.25 582.25 496.23 581.02 493.47 579.35 491.24 577.46 490.55 577.17 488.9 577.38 487.39 577.93 485.98 578.73 485.05 578.96 484.63 578.46 484.27 577.7 483.39 577.29 481.6 576.82 480.97 576.26 479.56 574.61 478.57 574.05 478.24 573.61 477.77 572.82 477.39 572.56 476.7 572.29 476.34 572.09 473.67 569.94 472.21 569.03 470.56 568.41 464.55 567.94 463.67 568.06 463.04 568.47 461.63 569.91 461.05 570.23 458.16 570.23 457.31 569.97 455.9 569.29 454.99 569.15 453.92 566.24 453.75 565.5 454.28 564.09 455.49 562.89 460.25 559.51 461.05 559.27 461.99 559.21 462.73 558.98 463.37 558.65 463.92 558.21 464.3 557.83 464.52 557.48 464.86 557.18 465.46 557.1 465.87 557.15 466.64 557.42 467.11 557.51 467.69 557.33 467.75 556.89 467.61 556.42 467.55 556.01 467.64 555.54 467.8 555.25 468.08 554.89 469.29 553.72 472.07 551.98 481.19 548.01 481.69 547.66 481.88 547.01 481.71 546.81 481.33 546.63 481.02 546.31 481.08 545.75 481.41 545.46 481.8 545.66 482.46 546.49 483.86 547.25 485.29 547.1 488.21 545.4 489.67 544.81 489.89 544.46 491.11 543.19 491.71 542.96 493.39 541.93 494 541.7 494.3 541.81 495.04 542.31 495.51 542.43 495.93 542.37 496.92 542.11 497.88 540.96 498.71 540.49 499.15 540.28 499.56 540.23 499.97 540.34 500.42 540.55 500.77 540.84 500.94 541.17 501.13 541.43 501.57 541.49 502.43 541.37 502.51 540.73 502.43 539.46 502.51 538.49 503.12 538.76 503.8 538.4 505.15 538.08 505.87 537.67 505.13 537.08 504.35 536.7 502.07 536.14 501.05 536.23 500.61 536.4 500.33 536.73 500.03 536.88 499.56 536.55 500.31 535.61 500.64 534.99 500.5 534.7 500.03 534.52 500 534.08 500.22 533.55 500.5 533.11 500.44 532.73 499.95 530.88 499.86 530.26 500.31 529.7 500.69 529.09 500.5 528.29 499.89 527.21" style="fill:#efc441"/><polygon points="465.87 557.15 465.46 557.1 464.86 557.18 464.52 557.48 464.3 557.83 463.92 558.21 463.37 558.65 462.73 558.98 461.99 559.21 461.33 559.25 454.04 566.55 454.8 568.62 466.16 557.25 465.87 557.15" style="fill:#fff"/><polygon points="468.08 554.89 467.8 555.25 467.64 555.54 467.59 555.83 470.37 553.04 469.29 553.72 468.08 554.89" style="fill:#fff"/><polygon points="481.69 547.66 481.88 547.01 481.74 546.85 480.1 548.49 481.19 548.01 481.69 547.66" style="fill:#fff"/><polygon points="483.86 547.25 482.46 546.49 482.3 546.29 481.74 546.85 481.88 547.01 481.69 547.66 481.19 548.01 480.1 548.49 458.35 570.23 461.05 570.23 461.34 570.07 484.2 547.22 483.86 547.25" style="fill:#fff"/><polygon points="500.69 529.09 500.31 529.7 499.86 530.26 499.95 530.88 500.07 531.34 508.12 523.3 506.86 523.03 505.08 523.51 500.43 528.16 500.5 528.29 500.69 529.09" style="fill:#fff"/><polygon points="500.03 536.88 500.33 536.73 500.61 536.4 501.05 536.23 502.07 536.14 503.04 536.38 513.3 526.12 512.59 525.65 511.56 525.03 499.84 536.75 500.03 536.88" style="fill:#fff"/><polygon points="498.71 540.49 497.88 540.96 496.92 542.11 495.93 542.37 495.51 542.43 495.04 542.31 494.58 542 468.35 568.24 470.56 568.41 470.88 568.53 499.11 540.3 498.71 540.49" style="fill:#fff"/><polygon points="517.58 528.29 516.64 527.95 474.21 570.38 475.78 571.63 518.74 528.68 517.58 528.29" style="fill:#fff"/><polygon points="525.84 529.41 524.35 528.67 523.95 528.63 478.55 574.03 478.57 574.05 479.56 574.61 480.13 575.28 525.94 529.48 525.84 529.41" style="fill:#fff"/><polygon points="530.05 532.29 529.5 531.09 483.32 577.27 483.39 577.29 484.27 577.7 484.63 578.46 484.78 578.64 530.41 533 530.05 532.29" style="fill:#fff"/><polygon points="535.78 535.55 535.65 535.77 536.44 534.98 536.17 534.93 535.78 535.55" style="fill:#fff"/><polygon points="533.55 536.29 532.81 535.78 491.16 577.43 491.24 577.46 492.71 578.7 534.9 536.51 533.55 536.29" style="fill:#fff"/><polygon points="542.56 535.29 541.5 535.09 495.82 580.77 496.23 581.02 497.21 582.21 543.53 535.88 542.56 535.29" style="fill:#fff"/><polygon points="546.41 540.93 546.41 539.32 546.04 538.54 498.21 586.38 498.87 587.6 498.98 587.93 499.04 588.38 546.41 541 546.41 540.93" style="fill:#fff"/><polygon points="499.12 594.04 499.37 593.22 497.49 595.1 498.68 594.72 499.12 594.04" style="fill:#fff"/><polygon points="547.43 545.43 547.31 545.28 499.37 593.22 499.12 594.04 498.68 594.72 497.49 595.1 496.52 596.06 496.23 596.86 495.95 597.92 495.84 598.22 495.7 598.39 495.38 598.66 495.73 599.33 495.81 599.61 549.47 545.94 547.43 545.43" style="fill:#fff"/><polygon points="493.8 608.09 494.13 607.88 494.71 607.71 495.72 607.69 496.38 607.03 495.73 606.91 495.38 606.62 495.32 605.86 495.68 605.18 496.17 604.62 496.48 604.11 492.52 608.06 493.36 608.12 493.8 608.09" style="fill:#fff"/><polygon points="494.71 607.71 494.13 607.88 493.8 608.09 493.36 608.12 492.52 608.06 490.12 610.47 491.82 611.59 495.72 607.69 494.71 607.71" style="fill:#fff"/><polygon points="495.68 605.18 495.32 605.86 495.38 606.62 495.73 606.91 496.38 607.03 554.74 548.68 554.1 549.04 553.16 548.78 552.47 548.11 496.48 604.11 496.17 604.62 495.68 605.18" style="fill:#fff"/><polygon points="556.94 551.65 494.82 613.76 495.43 614.23 496.31 614.17 497.17 613.91 497.52 613.89 558.13 553.29 556.94 551.65" style="fill:#fff"/><polygon points="560.3 556.28 499.91 616.67 500.03 617.2 500.58 617.67 501.38 618.03 561.49 557.92 560.3 556.28" style="fill:#fff"/><polygon points="563.67 560.92 505.34 619.25 507.11 619.29 507.55 619.2 508.4 618.93 508.48 618.93 564.86 562.55 563.67 560.92" style="fill:#fff"/><polygon points="533.33 602.08 533.88 601.54 533.72 601.57 533.33 602.08" style="fill:#fff"/><polygon points="567.03 565.55 512.62 619.96 513.14 619.9 517.41 618 533.33 602.08 533.72 601.57 533.88 601.54 568.23 567.19 567.03 565.55" style="fill:#fff"/><polygon points="571.25 569.33 542.38 598.2 543.85 597.27 545.31 596.77 546.46 596.96 572.96 570.45 571.25 569.33" style="fill:#fff"/><polygon points="587.98 562.56 587.43 563.36 587.08 564.34 589.17 562.24 588.61 562.21 587.98 562.56" style="fill:#fff"/><polygon points="577.43 571.16 552.89 595.7 553.16 595.66 554.51 595.72 555.31 595.98 555.37 596.05 581.27 570.15 577.43 571.16" style="fill:#fff"/><polygon points="570.76 587.16 570.13 587.37 569.66 587.96 569.61 588.66 569.76 589.65 572.29 587.12 572.06 587.22 570.76 587.16" style="fill:#fff"/><polygon points="571.45 586.19 571.21 585.96 571.09 585.5 567.03 589.55 567.07 589.57 567.35 589.34 567.76 589.04 567.93 588.84 569.46 589.96 569.76 589.65 569.61 588.66 569.66 587.96 570.13 587.37 570.76 587.16 572.06 587.22 572.29 587.12 572.61 586.8 572.61 586.66 571.45 586.19" style="fill:#fff"/><polygon points="590.57 566.01 575.28 581.3 575.45 581.23 577.1 580.9 578.53 580.88 592.39 567.03 590.57 566.01" style="fill:#fff"/><polygon points="601.9 562.69 582.67 581.92 583.52 582.23 584.57 582.85 604.71 562.71 601.9 562.69" style="fill:#fff"/><polygon points="611.06 563.86 609.8 563.06 609.57 563.02 587.43 585.16 587.79 585.58 588.04 586.11 588.33 587.08 611.46 563.96 611.06 563.86" style="fill:#fff"/><polygon points="598.5 584.91 598.58 584.83 598.5 584.78 598.5 584.91" style="fill:#fff"/><polygon points="618.8 564.53 618.12 564.65 617.4 565.33 616.76 565.5 616.08 564.91 615.89 564.69 593.33 587.25 595.06 587.37 595.67 586.72 596.35 585.52 597.26 584.66 598.3 585.11 598.5 584.91 598.5 584.78 598.58 584.83 618.85 564.56 618.8 564.53" style="fill:#fff"/><polygon points="606.11 584.93 605.69 585.19 605.55 585.49 605.42 586 606.61 584.81 606.52 584.81 606.11 584.93" style="fill:#fff"/><polygon points="611.78 579.32 611.81 578.17 611.97 576.62 602.19 586.39 604.37 586.84 604.63 586.78 605.42 586 605.55 585.49 605.69 585.19 606.11 584.93 606.52 584.81 606.61 584.81 611.84 579.58 611.78 579.32" style="fill:#fff"/><polygon points="619.41 569.47 620.7 569.15 621.01 568.59 620.83 567.76 619.1 569.49 619.41 569.47" style="fill:#fff"/><polygon points="613.57 583.2 613.59 583 612.85 583.73 613.05 583.67 613.57 583.2" style="fill:#fff"/><polygon points="674.13 404.45 671.88 407.6 671.26 408.51 676.17 403.6 674.13 404.45" style="fill:#fff"/><polygon points="687.47 390.05 686.06 392.46 686.43 393.34 692.32 387.45 688.9 388.49 687.47 390.05" style="fill:#fff"/><polygon points="665.04 420.62 665.28 419.66 661.17 423.77 664.08 422.26 665.04 420.62" style="fill:#fff"/><polygon points="688.07 398.78 688.18 398.31 688.29 398.04 688.32 398.01 688.38 397.84 688.46 397.43 688.43 397.16 688.4 396.9 688.26 396.72 688.23 396.71 683.22 401.72 683.36 401.69 687 400.78 687.93 399.84 687.93 399.45 688.07 398.78" style="fill:#fff"/><polygon points="683.36 401.69 683.22 401.72 665.28 419.66 665.04 420.62 664.08 422.26 661.17 423.77 655.98 428.96 655.68 429.61 655.38 432.39 687 400.78 683.36 401.69" style="fill:#fff"/><polygon points="688.26 396.72 688.4 396.9 688.43 397.16 688.46 397.43 688.38 397.84 688.32 398.01 688.29 398.04 688.18 398.31 688.07 398.78 687.93 399.45 687.93 399.84 699.3 388.48 699.17 388.49 697.04 387.9 688.23 396.71 688.26 396.72" style="fill:#fff"/><polygon points="706.94 386.67 705.98 386.97 655.87 437.08 656.01 438.49 656.25 439.52 708.57 387.2 706.94 386.67" style="fill:#fff"/><polygon points="711.94 389 657.56 443.38 658.52 445.25 713.49 390.29 711.94 389" style="fill:#fff"/><polygon points="722.48 388.02 721.62 388.2 721.37 388.43 720.71 389.43 720.38 389.75 718.84 390.11 660.26 448.68 661.21 450.56 724.03 387.74 722.48 388.02" style="fill:#fff"/><polygon points="728.2 388.74 663.11 453.83 664.31 455.46 729.68 390.09 728.2 388.74" style="fill:#fff"/><polygon points="732.88 392.06 666.25 458.69 667.08 460.32 667.1 460.67 734.33 393.44 732.88 392.06" style="fill:#fff"/><polygon points="741.43 393.22 740.79 393.25 739.89 393.05 665.95 467 666.08 469.69 742.59 393.18 741.43 393.22" style="fill:#fff"/><polygon points="709.2 433.81 707.82 435.34 707.27 436.5 710.45 433.32 709.2 433.81" style="fill:#fff"/><polygon points="697.77 446 707.27 436.5 707.82 435.34 709.2 433.81 710.45 433.32 749.7 394.07 749.63 393.99 748.56 393.4 747.64 393.3 694.54 446.41 697.77 446" style="fill:#fff"/><polygon points="686.39 457.09 686.3 454.64 666.21 474.74 665.84 475.9 668.85 474.92 686.34 457.44 686.39 457.09" style="fill:#fff"/><polygon points="717.46 433.31 717.57 433.31 718.11 433.66 751.24 400.53 750.82 399.69 750.38 399.37 750 398.94 715.7 433.25 717.46 433.31" style="fill:#fff"/><polygon points="686.86 464.14 686.14 464.09 684.63 464.32 684.62 464.32 674.05 474.89 674.24 474.78 675.26 474.99 676.38 475.39 687.41 464.36 686.86 464.14" style="fill:#fff"/><polygon points="748.84 408.6 751.59 406.48 752.28 405.66 753.19 404.83 752.8 404.36 752.74 404.21 722.39 434.56 723 434.4 725.58 434.19 750.33 409.44 748.84 408.6" style="fill:#fff"/><polygon points="680.11 478.55 681.49 477.93 683.66 475.14 684.49 474.4 684.49 474.37 683.93 473.01 680.99 475.95 681.02 476.81 680.11 478.55" style="fill:#fff"/><polygon points="751.98 415.47 751.52 416.25 753.98 413.79 752.75 414.65 751.98 415.47" style="fill:#fff"/><polygon points="751.98 415.47 752.75 414.65 753.98 413.79 755.52 412.25 755.89 411.56 755.97 410.51 755.39 409.56 755.38 409.56 730.43 434.51 731.04 434.9 731.76 435.19 732.6 435.17 751.52 416.25 751.98 415.47" style="fill:#fff"/><polygon points="748.04 427.61 747.98 427.05 747.4 425.88 747.27 425.68 738.02 434.92 738.95 434.75 740.19 434.84 740.78 434.99 748.02 427.75 748.04 427.61" style="fill:#fff"/><polygon points="749.55 423.53 749.83 423.58 749.94 423.5 749.99 423 749.98 422.96 749.39 423.55 749.55 423.53" style="fill:#fff"/><polygon points="746.55 434.64 746.77 434.17 745.33 435.61 745.53 435.58 746.55 434.64" style="fill:#fff"/></svg>