<svg xmlns="http://www.w3.org/2000/svg" viewBox="0 0 800 800"><polygon points="570.69 123.05 570.91 124.8 571.67 126.89 570.36 127.94 569.05 128.05 568.18 128.64 566.66 127.12 565.89 127.82 566 126.66 565.46 125.5 564.91 123.75 567.2 122.47 569.93 121.77 570.69 123.05" style="fill:#efc441"/><path d="M766.73,169.94l3.38,2,3.6,1.52,2.72.7,1.31,2,3.49,12.22-1,16.87.11,1.74.54,4.89-.21,1.4-1.2,2.21.11,1.62,1.63,2.91.76,1.86.66,1.17.54,1.39.11,1.05.11,1.4-.22,2.09-.65,3.49-.55,5.47-1.41,7.79-.66,25.6v2l3.38,14.31-8.61.93-.76.93-.77.93-.54,5.93-.33,3.26-.11,1.16-.76,1.86L767,305.82l-1,.93-5.24,5.35-2.83,1.4-6,.82-2.29,1h-.11l-2.61,6.75-3.38,4.3-1,3.15-1.41,1.86-3.06.93-3.38.11-.21-.11-2.29-.23L727.26,328l-4.69-12.44L716.68,310l-1.2-2.68L716,305l2.83-.82,2.19.59,2.07,1,3.81,2.91-.65-4L725,296.86l-1.85-5.35-4.26-2.79-.43-.12-6.43-1-6.11,1.74-5.56,3.61-.66.7-4.57,4.18-4.8,6.4-1.75,5.59L690,323.62V327l-.76,6.74.32,3.38.88,1.86,2.4,5.58.54,3.49-4.47,4.19-1,6.05-2.29,2.56L684,363.29l.22,3.84,2.07,7.57-.43,9.88.54,2.68,1,1.28,3.28,2.21,1.19,1.63.33,1.51-.54,8.73-1.09,2.56-6.11,11.51-1.31,3.15.22,2.67,2,1.05,9.92,2.21,2.73.12,8.94-3.73,4.8,2.1,2.51,6.51,1.85,7.56,5.89,11.06-1.75,2.79-10,2.56-18.64,7.91-3-.35-4.14-3.37-2.83.46L679,460.44l-2.51.12-5.12-.94-5.35-.11-4.47.81-4.36,1.86-4.69,2.68-3.05,1.74-6.87,2.68-6.76,1.4-.65,2.56,1.42,3.25,2.61,2.56,5.78,3.61,2.51,3.84.76,5.23.55,13.62-.66,2.44-7.52,11.4-1.42,3-5.23,22.22-2.18,3.49-6,6.74v.12l-2.94,4.54-1.86,6-3.27,17.91-3.6,10.94L598.93,621.8,594,639l-.54,5.35,1,26.18-1.75,26.06-10.57,14.31-2.4.47-21.81-3-22.13-3-22.13-3-22.14-3.14-22.13-3-22.13-3L425.13,690,403,687l-22.24-3-22.14-3.14-22.13-3-22.13-3-22.14-3.14-22.13-3-22.24-3-22.14-3-22.13-3.14L178,655.89l-3.82-1.4-3.27-2.9-8.51-11.29-8.28-11.17L145.79,618l-8.39-11.05-8.29-11.17-8.29-11-8.28-11.17-8.29-11.17L96,551.3l-8.39-11.17L79.28,529,71,517.91l-8.29-11.17-8.29-11.17L46,484.4l-8.29-11.16-8.29-11.17-9-12.22L18,445.66,17.13,441l.33-11.52.11-4.65-1-7L20,412.74l.11-7.91-2.84-6.52,3.16-3.6,1.42,3,3.38,5.12.66,3.61v10.35L27,423.09l2.18,1.52,2.29-2.56,1.52-8.15L34,416.11l1.64,5.59,1.09,1.86.65.46,1.53.12,1.31-.35.87-.81.22-.82-.66-.46L43.74,414l2.94-2.33,3.38,5.12.44,4-1.64,11.51.22,4.08,2,8.95.11,2-.11,6,.33,1.86,1.42,3.73.32,1.74,1.64,3.26,3.82.93,7.74.23,1.85.58,1.42.93,2.72,2.68,1.53,1.05H75l.44-.82-1-1.39-.32-2,3.49-.47,9,.47,1.09-.23,1.2.23,2,2,4.9,2.44h1.31l6.76-1.28,2.84.7,1.52-.93,1.64.93,2.51-1.16,2.72-.24,2.84.24,2.83-.12,2.73-1.05,6-3.95,2.72-.35h5.13l2.07-.7,1.85-1.63,2-2.09,2.08-1.75,2.29-.81,2.61-.47,3.05-1.39,2.62-1.75,1-2,1-2,4.8-2.21,2.4-2,2.07-2.21,2.84-2.1,2.72-1.74,2.18-.58,1.75-1.4.54-3v-3.25l.44-2.21,3.16-1.87,2.84,1,2.5,2.56,5.78,8.15,1.75.69.65-.46.55-.93,1.41-.7,3.6.12,6.43,2,3.49.47,2.07-.35,3.38-1.63,1.75-.58h1.85l1.31.46,1.09.59,1.2.35L236,439.15l1.53-.23,5.67-2.33.76-.7.22-.93.22-.81h1l.87.58.55.7.43.81.33.35,4.69,4.07,2.94,1.4,6.32-2.91,3.28,1.28,3.05,1.74,2.62-.69-2.19-1.28-.54-1.75-.11-2-.44-2.32,3.6-.82,4.15,2,3.92,3.26,2.51,2.91,2.18,3.72,1.31,1.05,8.83.46,20.39-4.3h1.42l1.41,1L319,445.9l1.64,1.28,2.29.46,2.29-.11,1.85-.94,2.95,2.21,1.63,1.05,1.53.35.65.7,2.07,3.26,1.09,1.16,1.31.23h1.86l1.74-.35,2.73-1.51,1.63.47,1.53.81,1.2.35,4.9-2.44,1.09-.82,1.31-.7,1.53.24,1.63.7,1.53.46,19.41.12,4-.58,1.64-1.52,9.81-5.47,10-1.74,3.16-1.63,3.38-.7,4.26-2.09,4.79-.7,1.75-.46,2-1.4,2.94-2.33,2.62-2.91,1.09-2.67,1.64-1.4L444,424.14l8.4-6.4,1.53-.23,1.2-2.21,3.05.12,6.43,2.79,1.2-2.1,6-4.77,2.94-4.3,6.33-13-.88-4.54.44-2.09,2.62-1.28-1.53-1.05-.65-.23v-1.4l2.5.23,3.82,2,2.4.47-1.09-2.33-2.62-3-.54-2.21,2.29,1.16,2.61.81,2.29,1.05,1.42,1.86h1.09l-.55-4.65-2.94-1.51L487.5,377l-4.25-.93-9.38-6.51-3.71-.93v-1l2-.58,2-1.4,1.63-2,.22,1.17.55,1.51,1.3,1.28-.43-1.86.54-1.63,2.08-2.79h1.09l1.19,5,3.17,4.77,3.92,3.14,3.71-.58-.87-.58-2.4-2h1.85l3.38,1.16,1.31.12.55-.58,1.41-2.56.77-.58,6-12.45L502.44,355l-1.2-1.51.54-1.51,2.73-.58,1.63-1.05.55-2.56.87-2.56L510.5,344v-1.16l-1.41-1.05-.66-1.86-.43-2.33-.77-2.32.88-1.28-1.09-.7-1.31-1.4.43-2.91,1.53-1.62,6.21-4.43.77-1.16.76-1.74.87-.93,4.91,2.32.33.23,2.29-.58,2.29-1.63.87-2.32-2.18-2.91,17.33-10.47,7.74-5.82,4.8-4.65,3.27-2.21,3.93-1.28.33-.12.65-.23.65-.23.44-.12.76-.58.55-.23.22-.24.43-.23.66-.35,4.36-2.68L570,281l5.34-1.16.76.7L588,266l16.24-21.4.77-2.91-.11-2.44,3.05-2.91,2.51.46,2.4,3.49.76,2.45-.66,2.44-2.07,3.37,4.47-1.51.88-3.14L615,240l-3.16-6.16-.44-1.4.87-1.63,4.8-5.35,1.42-.58,2.39.12-.76-2.33.11-2.21,1-1.75,1.86-1.16,1.63,1.4,3.16-2.8,5.13-7.33h1l.65,2.21,1,.24.88-1.4.76-2.21,1.09,1.16,2.07-6.63,1.53-3,1.74-1.51-2-1.17,1-2.21,2.07-2.79,1.09-3.14.77-3,1.74-3.6,2.4-2.91,2.73-1.05-1.31,2.91-1.75,2.44-1.09,2.21,1,2.45,2.51,1,3.16-.58,3.38-1.16,3.38-.58,1-1.4,2.51-7.1,1.42-2.67,4.25-4.66,2.51-2.09,5.45-2.09,4.14-6,1.75-1.28,1.42-.24,2.07-.69,1.74-.93.77-1.28.76-.47,4.69-1.28,5.67-4.77,8.72-11.28,4.25-3.84-.87,1.63-1.09,3.72-1.64,3.14.66,1,1.2.35.65-.59.33-2.67,1.42-5.12.43-3.49,1-1.51,6.65-6.63,1.42-1.87,1.2-2.09,1-2.56.66-3.37H727.7l-.55,1.74-1,1.4-1.2,1-1.53.7,4.15-7.21,3.49-7.68,2.83-11.63.66-1.52,3.7-.34,8.07-2.22,1.85.24,2.51,7,.77,3.72-.33,3.37-1.09,5.47-.66,16.29-1,2.56-3.16,4.42-.76,2.79.76,3L749,142.6l.65,2.32-1.09,2.33-2.07,1.63-1.74,2-.11,3,.76,8.15,1,2.21.22.11.65.35,3.71.7,1.42,1.28,1.63,3.61,1.09,1.39,2.51.7,2.51-.47Zm-2.94,53.75-4.26,3.37.22,2.91.55,1.86,1,1.4-1.53,2-4.25,2.21-.44,4.43.33,1.74,2,1,2.51.7,2.62-1.17,4.69-3.49,1.74-1.63,3.71-1.28,4.47-2.44.76-5L771.53,229l-2.95-4.77Zm.32,14.77-.54-4.88.87-.94h1.42l2.29,1.75-.77,2.91ZM349,435.43l-2.73-.35-1.85-.7V433.1l2.4-2.68,1.85-1,.22-.24,3.92-1.51,1.64-.81,3-2.8.87-.69,1.2-.7.66-.23,1.85-.7,1.53.11,2.29,1.05h.32l.88.23,1.09-.46,3.81-3.26,4.36-1.86,1.75-1.16,1.42-1.87.76,2.21-.11.59-.65.93,1.63,2.67.66.82,4.14,2.67.54.35,5.46,1.17,1.2.58,3.27,1.39,1.63,5-2.18,4.18L391,438.8l-5.66-.23-4.69-2L381,435l-1.3-2.33-1.86-.58-1.63,3.38,1.2,1.16L373,439.5l-5.23,1-5.23-.58-4.8-2L355,436.36l-1.63-.59Zm85-12.34-1.52-3.25-3.49-1.52-4-1.16-3.38-2.09-1.74-4.66,2.18-3.72,3.49-1.51.76.7,1.31,1.16,4,4.65,2.08,2.33,1.63,4.42ZM176.65,402l2-3,3.82-2.21,3.81,1.16,1.75,2.91.87,4.66-.44,2.67L185,413l-2.94,2.68-2.62,2.67L177.41,416l-1.74-3-2-4.3.33-3.49Zm119.17,14.65-2.29-2.9-2.18-.12L288.41,412l-1.64,2.68-6-.93-2.29-.35-3.38.7-.54.23-.44-.12-.32-.93v-1.05l.54-1.28.55-1,.43-.47,6,1.28,1.63-.35,4-2,.87-.69.87-.7,5.24-2.21,2.94-1.4h1.42l1.52,2.91,1.53.93,1.42-.81.43-2-.21-1.86-1-1.75,6-9.19,2.73-2.09.22,1,.65,1.87.22.93,3.7,2.09h.11l-1.09,7-2.07,2.33-6.21,3-3,1.86-3.81.59L297.24,412v2ZM464.6,384.82l-7.52-2.45v-2.9l6.43-6.17,2.18-3.49h1.09l-1.09,3.84,1.2,3.26,2.84,2.32,5.88,3.14,2.95,3,.11,2-2.18.81-4.26-.81ZM446.18,411l-1.53,1.17-1.53.81-1.31.35h-1.74l-1-.58-2.73-3.26-2-1.51-1.53-.7-.54-1.16.76-2.79,1.2-1.63,1.85-1.4,2.29-.81,2.29.11,1.42,3,1.53,2.56,3.6,4.3Zm9.37-14.19,1.53,1.63.11,2.44-1.64,5.24-2.61,1.39-4.37-7.91-.43-1.28,1.09-.11,1.85.46,1.53.93.65.47.22-.93-.44-.93-2.29-1.75-.54-1.74,2.07-.24Zm-321.1-30,3.71,2.56,1,4.31-2.07,3.72-1.85.93-2.4-1.28-.77-1.16-.76-.47-1.09-.93-.11-2.44,1.42-2,1.2-2.09Z" style="fill:#efc441"/><polygon points="567.82 122.31 565.26 124.87 565.46 125.5 565.51 125.61 569.15 121.97 567.82 122.31" style="fill:#fff"/><polygon points="570.69 123.05 570.46 122.67 565.95 127.18 565.89 127.82 566.66 127.12 566.83 127.29 570.73 123.39 570.69 123.05" style="fill:#fff"/><polygon points="571.02 125.11 567.84 128.29 568.18 128.64 569.05 128.05 569.07 128.05 571.29 125.83 571.02 125.11" style="fill:#fff"/></svg>