<?xml version="1.0" encoding="UTF-8"?><svg id="Layer_1" xmlns="http://www.w3.org/2000/svg" viewBox="0 0 800 800"><g><path d="M32.33,301.5c-.31,0-.61-.04-.92-.12l-8.26-2.24c-1.19-.32-2.12-1.24-2.45-2.42-.34-1.2-.71-3.48,.64-5.15,.82-1.01,2.04-1.56,3.46-1.56,.52,0,.99,.07,1.37,.15-1.39-2.75-.5-4.54,.33-5.48,.77-.86,1.84-1.34,3.01-1.34,.76,0,2.79,0,6.74,4.21,.39,.41,.67,.91,.82,1.45l1.37,4.89c.32,1.13,.04,2.35-.73,3.24l-2.75,3.17c-.67,.78-1.64,1.21-2.64,1.21Z" style="fill:#efc441;"/><path d="M29.52,286.84c1.28,0,4.19,3.1,4.19,3.1l1.37,4.89-2.75,3.17-8.26-2.24s-.42-1.48,0-2c.16-.2,.45-.26,.74-.26,.45,0,.91,.15,.91,.15l4.54,.36,.92-2.94s-2.95-3.07-2.06-4.07c.1-.11,.24-.16,.4-.16m0-7c-2.16,0-4.21,.91-5.63,2.51-.61,.69-1.79,2.3-1.93,4.64-1.31,.48-2.46,1.29-3.34,2.37-2.35,2.91-1.82,6.45-1.29,8.31,.67,2.36,2.53,4.2,4.9,4.84l8.26,2.24c.61,.16,1.22,.24,1.83,.24,2,0,3.94-.86,5.29-2.41l2.75-3.17c1.54-1.78,2.09-4.21,1.45-6.48l-1.37-4.89c-.3-1.09-.87-2.08-1.64-2.9-2.32-2.47-5.48-5.31-9.29-5.31h0Z" style="fill:#cae3e8;"/></g><g><path d="M561.3,361.31c-2.17,0-4.52-.39-6.45-1.08-4.31-1.53-5.46-5.76-4.4-9.3,.2-1.22,.95-3.59,3.76-5.94,1.36-1.14,3.08-1.75,4.95-1.75,2.34,0,4.32,.94,5.05,1.34,1.1,.49,4.38,2.21,5.35,5.61,.94,3.32-.72,6.42-1.53,7.91-.08,.15-.15,.28-.21,.4-.95,1.89-3.08,2.81-6.53,2.81h0Z" style="fill:#efc441;"/><path d="M559.16,346.75c1.85,0,3.5,.98,3.5,.98,0,0,2.9,1.18,3.54,3.43s-.96,4.7-1.5,5.78c-.28,.56-1.65,.87-3.4,.87-1.63,0-3.58-.27-5.28-.87-3.53-1.25-2.14-5.25-2.14-5.25,0,0,0-1.86,2.57-4,.84-.7,1.8-.94,2.71-.94m0-7c-2.71,0-5.2,.89-7.21,2.58-3.52,2.93-4.61,6.04-4.94,7.92-.24,.94-.5,2.45-.36,4.16,.35,4.28,2.98,7.69,7.03,9.13,2.32,.82,5.03,1.28,7.62,1.28,4.84,0,8.09-1.6,9.66-4.74,.04-.09,.1-.19,.16-.3,.94-1.75,3.15-5.84,1.81-10.52-1.33-4.67-5.51-7.03-7.15-7.79-1.14-.61-3.62-1.71-6.63-1.71h0Z" style="fill:#cae3e8;"/></g><g><path d="M387.48,86.35c-3.06,0-7.33-2.9-9.69-5.71-3.24-3.86-1.38-8.08,.82-10.21,.78-.99,2.59-2.63,6.24-3.26,.43-.07,.86-.11,1.29-.11,4.36,0,6.95,3.67,7.6,4.72,.7,.96,2.7,4.11,1.83,7.55-.84,3.34-3.84,5.2-5.28,6.09-.14,.09-.27,.16-.37,.23-.69,.46-1.54,.7-2.44,.7h0Z" style="fill:#efc441;"/><path d="M386.14,70.56c2.9,0,4.69,3.17,4.69,3.17,0,0,1.92,2.48,1.35,4.74-.57,2.26-3.19,3.6-4.19,4.26-.12,.08-.3,.12-.51,.12-1.49,0-4.89-1.94-7.01-4.46-2.42-2.88,.77-5.62,.77-5.62,0,0,.91-1.58,4.21-2.15,.24-.04,.47-.06,.69-.06m0-7c-.63,0-1.26,.05-1.88,.16-4.42,.76-6.91,2.81-8.16,4.27-3.69,3.62-5.24,9.84-.99,14.9,2.91,3.46,8.09,6.96,12.37,6.96,1.59,0,3.1-.44,4.36-1.28,.08-.05,.18-.11,.28-.18,1.69-1.05,5.65-3.49,6.84-8.21,1.18-4.69-1.25-8.82-2.28-10.3-1.85-3-5.61-6.32-10.54-6.32h0Z" style="fill:#cae3e8;"/></g><g><path d="M727.55,608.62c-3.06,0-7.33-2.9-9.69-5.71-3.24-3.86-1.38-8.08,.83-10.21,.78-.98,2.58-2.62,6.24-3.25,.43-.07,.86-.11,1.29-.11,4.36,0,6.95,3.66,7.59,4.71,.7,.96,2.7,4.11,1.83,7.55-.84,3.34-3.84,5.2-5.28,6.09-.14,.09-.27,.17-.37,.23-.69,.46-1.54,.7-2.44,.7h0Z" style="fill:#efc441;"/><path d="M726.21,592.84c2.89,0,4.69,3.16,4.69,3.16,0,0,1.92,2.48,1.35,4.74s-3.19,3.6-4.19,4.26c-.12,.08-.3,.12-.51,.12-1.49,0-4.89-1.94-7.01-4.46-2.42-2.88,.77-5.62,.77-5.62,0,0,.91-1.57,4.21-2.14,.24-.04,.47-.06,.69-.06m0-7c-.63,0-1.26,.05-1.89,.16-4.41,.76-6.9,2.8-8.15,4.25-3.69,3.62-5.25,9.85-1,14.91,2.91,3.46,8.09,6.96,12.37,6.96,1.59,0,3.1-.44,4.36-1.28,.08-.05,.18-.11,.28-.18,1.69-1.05,5.65-3.49,6.84-8.21,1.18-4.69-1.25-8.82-2.28-10.3-1.85-3-5.61-6.31-10.54-6.31h0Z" style="fill:#cae3e8;"/></g><g><path d="M719.4,596.34c-3.07,0-7.33-2.91-9.68-5.71-3.24-3.86-1.37-8.08,.83-10.21,.78-.99,2.58-2.63,6.23-3.26,.41-.08,.87-.12,1.33-.12,4.35,0,6.92,3.68,7.57,4.73,.69,.96,2.67,4.08,1.82,7.52-.83,3.37-3.84,5.23-5.29,6.12-.14,.09-.27,.16-.37,.23-.69,.46-1.54,.7-2.44,.7h0Z" style="fill:#efc441;"/><path d="M718.1,580.54c2.88,0,4.66,3.18,4.66,3.18,0,0,1.9,2.46,1.34,4.73-.56,2.27-3.19,3.61-4.19,4.27-.12,.08-.3,.12-.51,.12-1.49,0-4.88-1.93-7-4.46-2.42-2.89,.77-5.62,.77-5.62,0,0,.91-1.58,4.2-2.15,.25-.05,.49-.07,.73-.07m0-7c-.65,0-1.31,.06-1.96,.18-4.46,.78-6.94,2.88-8.17,4.34-.68,.69-1.67,1.87-2.41,3.43-1.82,3.85-1.27,8.1,1.48,11.39,2.9,3.46,8.08,6.97,12.37,6.97,1.59,0,3.1-.44,4.36-1.28,.08-.05,.18-.11,.28-.18,1.7-1.05,5.67-3.51,6.85-8.26,1.15-4.67-1.24-8.76-2.27-10.24-1.85-3.01-5.6-6.34-10.53-6.34h0Z" style="fill:#cae3e8;"/></g><g><path d="M771.31,729.85c-3.06,0-7.33-2.9-9.68-5.71-3.24-3.86-1.38-8.07,.83-10.2,.78-.99,2.59-2.63,6.24-3.26,.42-.07,.86-.11,1.29-.11,4.35,0,6.94,3.66,7.6,4.71,.7,.96,2.71,4.1,1.84,7.54-.84,3.34-3.85,5.2-5.29,6.09-.14,.09-.27,.17-.37,.24-.7,.46-1.54,.7-2.44,.7h0Z" style="fill:#efc441;"/><path d="M769.98,714.07c2.89,0,4.69,3.17,4.69,3.17,0,0,1.92,2.47,1.35,4.73-.57,2.26-3.2,3.6-4.2,4.26-.12,.08-.3,.12-.51,.12-1.48,0-4.88-1.94-7-4.46-2.42-2.88,.77-5.61,.77-5.61,0,0,.91-1.58,4.21-2.15,.24-.04,.47-.06,.69-.06m0-7c-.63,0-1.26,.05-1.89,.16-4.49,.78-6.98,2.88-8.22,4.34-.68,.69-1.67,1.87-2.41,3.43-1.83,3.85-1.27,8.11,1.49,11.39,2.91,3.46,8.08,6.96,12.36,6.96,1.59,0,3.1-.44,4.36-1.28,.08-.05,.18-.11,.29-.18,1.69-1.05,5.66-3.49,6.85-8.21,1.18-4.7-1.25-8.82-2.29-10.3-1.86-3-5.62-6.31-10.54-6.31h0Z" style="fill:#cae3e8;"/></g><g><path d="M404.52,732.94c-.49,0-.98-.02-1.46-.06-5.02-.44-6.68-4.74-6.63-7.81-.14-1.25-.03-3.68,2.11-6.71,1.51-2.15,4-3.34,7.01-3.34,1.15,0,2.1,.18,2.55,.28,1.16,.18,4.88,.99,6.68,4.08,1.7,2.94,.89,6.36,.5,8.01-.04,.17-.08,.32-.1,.45-1.03,5.04-10.56,5.1-10.66,5.1Z" style="fill:#efc441;"/><path d="M405.55,718.52c1.07,0,1.89,.22,1.89,.22,0,0,3.15,.4,4.31,2.4s.24,4.82,0,6c-.22,1.06-3.78,2.3-7.23,2.3-.39,0-.77-.02-1.15-.05-3.75-.33-3.43-4.52-3.43-4.52,0,0-.47-1.76,1.46-4.49,1.07-1.52,2.81-1.86,4.15-1.86m0-7c-4.17,0-7.68,1.71-9.87,4.83-2.58,3.66-2.89,6.86-2.75,8.77-.05,5.16,3.25,10.66,9.83,11.24,.57,.05,1.17,.08,1.77,.08,1.28,0,12.52-.22,14.09-7.9,.02-.1,.05-.21,.08-.34,.45-1.92,1.52-6.42-.88-10.57-2.49-4.29-7.31-5.47-9.04-5.77-.66-.14-1.83-.34-3.22-.34h0Z" style="fill:#cae3e8;"/></g><g><path d="M402.91,720.07c-2.71,0-6.48-1.32-9.18-3.21-4.13-2.9-3.41-7.47-1.83-10.1,.5-1.13,1.82-3.17,5.16-4.73,1.01-.47,2.08-.7,3.18-.7,3.3,0,5.86,2.14,6.61,2.84,.91,.74,3.63,3.23,3.73,6.77,.09,3.48-2.35,6.05-3.52,7.29-.12,.12-.22,.23-.31,.33-.89,1-2.18,1.51-3.84,1.51h0Z" style="fill:#efc441;"/><path d="M400.24,704.83c2.36,0,4.3,1.99,4.3,1.99,0,0,2.47,1.88,2.53,4.22,.06,2.34-2.14,4.3-2.94,5.2-.2,.23-.64,.33-1.22,.33-1.75,0-4.86-.96-7.17-2.57-3.08-2.16-.71-5.63-.71-5.63,0,0,.51-1.76,3.51-3.16,.58-.27,1.15-.38,1.7-.38m0-7c-1.61,0-3.18,.34-4.64,1.02-4.04,1.89-5.91,4.5-6.74,6.19-2.64,4.45-2.55,10.89,2.87,14.69,3.28,2.3,7.77,3.84,11.19,3.84s5.37-1.46,6.46-2.68c.06-.07,.14-.15,.23-.25,1.38-1.45,4.6-4.86,4.47-9.78-.12-4.84-3.56-8.18-4.9-9.3-1.2-1.1-4.5-3.72-8.93-3.72h0Z" style="fill:#cae3e8;"/></g><g><path d="M404.52,732.94c-.49,0-.98-.02-1.46-.06-5.02-.44-6.68-4.74-6.63-7.81-.13-1.15-.04-3.3,1.63-5.98-1.53-.56-3.05-1.33-4.33-2.22-4.13-2.9-3.41-7.47-1.83-10.1,.5-1.13,1.82-3.17,5.16-4.73,1.01-.47,2.08-.7,3.18-.7,3.3,0,5.86,2.14,6.61,2.84,.91,.74,3.63,3.23,3.73,6.77,.04,1.79-.58,3.33-1.35,4.59,1.62,.42,4.16,1.45,5.56,3.85,1.7,2.94,.89,6.36,.5,8.01-.04,.17-.08,.32-.1,.45-1.03,5.04-10.56,5.1-10.66,5.1Zm366.79-3.09c-3.06,0-7.33-2.9-9.68-5.71-3.24-3.86-1.38-8.07,.83-10.2,.78-.99,2.59-2.63,6.24-3.26,.42-.07,.86-.11,1.29-.11,4.35,0,6.94,3.66,7.6,4.71,.7,.96,2.71,4.1,1.84,7.54-.84,3.34-3.85,5.2-5.29,6.09-.14,.09-.27,.17-.37,.24-.7,.46-1.54,.7-2.44,.7Zm-43.76-121.23c-3.06,0-7.33-2.9-9.69-5.71-2.06-2.46-2.06-5.06-1.21-7.17-2.53-1-5.23-3.08-6.93-5.11-3.24-3.86-1.37-8.08,.83-10.21,.78-.99,2.58-2.63,6.23-3.26,.41-.08,.87-.12,1.33-.12,4.35,0,6.92,3.68,7.57,4.73,.69,.96,2.67,4.08,1.82,7.52-.01,.05-.03,.1-.04,.15,3.61,.6,5.77,3.66,6.35,4.6,.7,.96,2.7,4.11,1.83,7.55-.84,3.34-3.84,5.2-5.28,6.09-.14,.09-.27,.17-.37,.23-.69,.46-1.54,.7-2.44,.7h0Zm-166.25-247.31c-2.17,0-4.52-.39-6.45-1.08-4.31-1.53-5.46-5.76-4.4-9.3,.2-1.22,.95-3.59,3.76-5.93,1.36-1.14,3.08-1.75,4.95-1.75,2.34,0,4.32,.94,5.05,1.34,1.1,.49,4.38,2.21,5.35,5.61,.94,3.32-.72,6.42-1.53,7.91-.08,.15-.15,.28-.21,.4-.95,1.89-3.08,2.81-6.53,2.81h0ZM32.33,301.5c-.31,0-.61-.04-.92-.12l-8.26-2.24c-1.19-.32-2.12-1.24-2.45-2.42-.34-1.2-.71-3.47,.64-5.15,.82-1.01,2.04-1.56,3.46-1.56,.52,0,.99,.07,1.37,.15-1.39-2.75-.5-4.54,.33-5.48,.77-.86,1.84-1.34,3.01-1.34,.76,0,2.79,0,6.74,4.21,.39,.41,.67,.91,.82,1.45l1.37,4.89c.32,1.13,.04,2.35-.73,3.24l-2.75,3.17c-.67,.78-1.64,1.21-2.64,1.21ZM387.48,86.35c-3.06,0-7.33-2.9-9.69-5.71-3.24-3.86-1.38-8.08,.82-10.21,.78-.99,2.59-2.63,6.24-3.26,.43-.07,.86-.11,1.29-.11,4.36,0,6.95,3.67,7.6,4.72,.7,.96,2.7,4.11,1.83,7.55-.84,3.34-3.84,5.2-5.28,6.09-.14,.09-.27,.16-.37,.23-.69,.46-1.54,.7-2.44,.7h0Z" style="fill:#efc441;"/><path d="M386.14,70.56c2.9,0,4.69,3.17,4.69,3.17,0,0,1.92,2.48,1.35,4.74-.57,2.26-3.19,3.6-4.19,4.26-.12,.08-.3,.12-.51,.12-1.49,0-4.89-1.94-7.01-4.46-2.42-2.88,.77-5.62,.77-5.62,0,0,.91-1.58,4.21-2.15,.24-.04,.47-.06,.69-.06M29.52,286.84c1.28,0,4.19,3.1,4.19,3.1l1.37,4.89-2.75,3.17-8.26-2.24s-.42-1.48,0-2c.16-.2,.45-.26,.74-.26,.45,0,.91,.15,.91,.15l4.54,.36,.92-2.94s-2.95-3.07-2.06-4.07c.1-.11,.24-.16,.4-.16m529.64,59.91c1.85,0,3.5,.98,3.5,.98,0,0,2.9,1.18,3.54,3.43,.64,2.25-.96,4.7-1.5,5.78-.28,.56-1.65,.87-3.4,.87-1.63,0-3.58-.27-5.28-.87-3.53-1.25-2.14-5.25-2.14-5.25,0,0,0-1.86,2.57-4,.84-.7,1.8-.94,2.71-.94m158.94,233.79c2.88,0,4.66,3.18,4.66,3.18,0,0,1.9,2.46,1.34,4.73s-3.19,3.61-4.19,4.27c-.12,.08-.3,.12-.51,.12-1.49,0-4.88-1.93-7-4.46-2.42-2.89,.77-5.62,.77-5.62,0,0,.91-1.58,4.2-2.15,.25-.05,.49-.07,.73-.07m8.12,12.3c2.89,0,4.69,3.16,4.69,3.16,0,0,1.92,2.48,1.35,4.74-.57,2.26-3.19,3.6-4.19,4.26-.12,.08-.3,.12-.51,.12-1.49,0-4.89-1.94-7.01-4.46-2.42-2.88,.77-5.62,.77-5.62,0,0,.91-1.57,4.21-2.14,.24-.04,.47-.06,.69-.06m-325.98,112c2.36,0,4.3,1.99,4.3,1.99,0,0,2.47,1.88,2.53,4.22,.06,2.34-2.14,4.3-2.94,5.2-.2,.23-.64,.33-1.22,.33-1.75,0-4.86-.96-7.17-2.57-3.08-2.16-.71-5.63-.71-5.63,0,0,.51-1.76,3.51-3.16,.58-.27,1.15-.38,1.7-.38m369.74,9.24c2.89,0,4.69,3.17,4.69,3.17,0,0,1.92,2.47,1.35,4.73-.57,2.26-3.2,3.6-4.2,4.26-.12,.08-.3,.12-.51,.12-1.48,0-4.88-1.94-7-4.46-2.42-2.88,.77-5.61,.77-5.61,0,0,.91-1.58,4.21-2.15,.24-.04,.47-.06,.69-.06m-364.43,4.45c1.07,0,1.89,.22,1.89,.22,0,0,3.15,.4,4.31,2.4s.24,4.82,0,6c-.22,1.06-3.78,2.3-7.23,2.3-.39,0-.77-.02-1.15-.05-3.75-.33-3.43-4.52-3.43-4.52,0,0-.47-1.76,1.46-4.49,1.07-1.52,2.81-1.86,4.15-1.86M386.14,63.56c-.63,0-1.26,.05-1.88,.16-4.42,.76-6.91,2.81-8.16,4.27-3.69,3.62-5.24,9.84-.99,14.9,2.91,3.46,8.09,6.96,12.37,6.96,1.59,0,3.1-.44,4.37-1.28,.08-.05,.17-.11,.28-.18,1.69-1.05,5.65-3.49,6.84-8.21,1.18-4.69-1.25-8.82-2.28-10.3-1.85-3-5.61-6.32-10.54-6.32h0ZM29.52,279.84c-2.16,0-4.21,.91-5.63,2.51-.61,.69-1.79,2.3-1.93,4.65-1.31,.48-2.46,1.29-3.34,2.37-2.35,2.91-1.82,6.45-1.29,8.31,.67,2.36,2.53,4.2,4.9,4.85l8.26,2.24c.61,.16,1.22,.24,1.83,.24,2,0,3.94-.86,5.29-2.41l2.75-3.17c1.54-1.78,2.09-4.21,1.45-6.48l-1.37-4.89c-.3-1.09-.87-2.08-1.64-2.9-4.99-5.31-8.12-5.31-9.29-5.31h0Zm529.64,59.91c-2.71,0-5.2,.89-7.21,2.58-3.46,2.88-4.57,5.93-4.92,7.83-1.37,5.01,.42,11.17,6.65,13.38,2.32,.82,5.03,1.28,7.62,1.28,4.84,0,8.09-1.6,9.66-4.74,.04-.09,.1-.19,.16-.3,.94-1.75,3.15-5.84,1.81-10.52-1.33-4.67-5.51-7.03-7.15-7.79-1.14-.61-3.62-1.71-6.63-1.71h0Zm158.94,233.79c-.65,0-1.31,.06-1.96,.18-4.39,.77-6.86,2.81-8.11,4.26-3.69,3.61-5.24,9.83-1,14.89,1.44,1.72,3.44,3.45,5.62,4.76-.19,2.51,.52,5.15,2.53,7.53,2.91,3.46,8.09,6.96,12.37,6.96,1.59,0,3.1-.44,4.37-1.28,.08-.05,.17-.11,.28-.18,1.69-1.05,5.65-3.49,6.84-8.21,1.18-4.69-1.25-8.82-2.28-10.3-1.16-1.88-3.08-3.89-5.57-5.12-.17-3.31-1.77-6-2.56-7.14-1.85-3.01-5.6-6.34-10.53-6.34h0Zm-317.86,124.29c-1.62,0-3.18,.34-4.64,1.03-4.04,1.89-5.91,4.5-6.74,6.19-2.64,4.45-2.55,10.89,2.87,14.69,.54,.38,1.12,.74,1.72,1.08-.53,1.75-.6,3.24-.52,4.31-.05,5.16,3.25,10.66,9.83,11.24,.57,.05,1.17,.08,1.77,.08,1.28,0,12.52-.22,14.09-7.9,.02-.1,.05-.21,.08-.34,.45-1.92,1.52-6.42-.88-10.57-1.06-1.83-2.54-3.09-4.03-3.96,.21-.87,.32-1.81,.29-2.81-.12-4.84-3.56-8.18-4.9-9.3-1.2-1.1-4.5-3.72-8.93-3.72h0Zm369.74,9.24c-.63,0-1.26,.05-1.89,.16-4.41,.76-6.9,2.81-8.15,4.27-3.69,3.62-5.24,9.83-.99,14.89,2.91,3.46,8.08,6.96,12.36,6.96,1.59,0,3.1-.44,4.36-1.28,.08-.05,.18-.11,.28-.18,1.69-1.05,5.66-3.49,6.85-8.21,1.18-4.7-1.25-8.82-2.29-10.3-1.86-3-5.62-6.31-10.54-6.31h0Z" style="fill:#cae3e8;"/></g></svg>