<svg xmlns="http://www.w3.org/2000/svg" viewBox="0 0 800 800"><polygon points="170.13 49.6 172.19 51.62 174.6 59.24 178.56 61.91 181.75 62.28 187.17 61.27 190.27 61.17 191.91 62.09 193.8 65.03 195.78 65.58 196.99 64.94 199.83 62.37 201.46 61.54 203.96 61.73 205.51 62.73 206.88 64.02 208.69 64.76 209.64 64.39 211.19 62.46 211.96 62.09 213 62.55 214.54 64.3 215.15 64.76 219.19 63.84 222.89 60.9 225.39 56.77 226.08 52.17 227.03 48.41 229.69 43.63 233.14 39.41 236.24 37.2 237.53 37.29 239.85 38.4 241.23 38.49 243.64 37.11 244.59 36.83 249.15 35.92 251.65 35.82 257.76 37.57 262.4 36.74 267.14 36.56 271.7 39.77 274.02 43.81 275.23 45.28 283.06 50.8 287.02 52.63 289.09 54.1 290.98 55.94 292.19 57.96 292.62 60.99 292.19 62.46 292.36 63.47 294.34 64.76 295.63 65.03 296.83 65.03 298.04 65.22 299.42 66.04 300.11 66.87 301.23 68.7 305.87 74.12 307.42 75.41 309.49 77.34 316.2 81.75 318.36 83.86 321.37 89.1 323.18 91.58 324.9 93.05 330.66 96.35 337.98 102.69 342.11 104.8 344.69 107.19 348.65 112.06 349.34 113.62 349.69 115.18 350.2 116.65 351.67 117.84 354.08 119.41 355.11 120.51 355.97 121.7 360.19 129.97 362.08 132.36 370.26 139.15 372.33 143.19 373.1 147.6 373.1 147.69 372.5 152.01 370.26 156.05 369.74 159.27 369.66 168.91 368.88 175.71 368.88 178.83 369.57 179.93 370.26 181.13 370.43 181.03 373.62 180.58 381.88 181.13 385.75 180.3 388.77 180.3 389.97 179.93 391 179.2 391.52 178.37 392.04 177.54 392.81 176.63 394.79 175.25 399.61 171.94 401.42 170.2 402.45 167.9 403.83 162.85 405.47 160.83 407.88 160.55 410.89 161.2 413.73 161.47 415.37 159.91 415.62 157.16 415.11 151 415.8 148.43 417.69 146.41 420.36 145.77 423.03 146.5 426.56 150.72 431.12 153.39 433.18 155.04 435.94 158.53 441.79 163.86 451.09 174.42 452.98 177.27 453.67 179.66 454.1 184.99 454.96 187.56 456.34 188.93 460.56 191.69 461.93 193.99 463.65 200.05 464.77 202.8 466.75 205.1 468.82 206.48 473.81 208.41 476.14 209.88 482.07 215.29 484.57 216.95 486.46 217.31 488.1 216.4 489.74 214.01 492.15 209.23 493.78 208.68 496.02 211.53 498.09 215.11 501.27 219.34 504.89 223.01 509.96 225.49 511.6 227.14 513.06 229.07 514.61 230.72 516.33 231.83 520.12 233.39 540.95 236.42 545.26 236.42 547.15 236.97 548.79 238.72 551.02 243.31 552.49 245.33 559.12 250.75 560.92 252.68 562.47 255.43 562.99 258 563.16 264.06 564.45 267.37 564.88 268.47 568.33 271.78 572.46 274.81 576.25 278.39 580.12 282.89 588.73 290.98 595.7 295.94 601.9 301.72 604.82 303.83 606.2 303.65 607.4 302.18 609.73 299.98 612.05 299.15 614.55 299.33 616.96 300.44 619.11 302.09 619.89 303.1 621 305.31 622.12 306.31 623.33 306.77 627.46 307.23 629.61 307.88 631.51 308.7 635.04 311.18 636.5 312.75 637.1 314.31 637.36 315.78 638.13 317.43 639.43 318.9 641.06 320.37 644.5 322.66 651.91 324.23 653.72 325.42 654.49 327.44 654.66 332.68 658.28 341.4 664.65 350.95 666.11 355.09 666.97 360.14 667.4 367.67 668 370.24 669.12 372.17 672.31 375.02 673.68 376.85 675.75 380.71 678.42 384.2 681.35 387.32 689.26 393.02 696.67 401.29 703.81 403.77 709.24 407.07 711.39 407.71 715.43 407.81 719.57 410.38 723.61 412.22 725.59 413.69 733.94 422.78 735.06 424.98 734.63 427.74 732.99 429.85 728.43 433.43 725.93 436.56 723.35 439.95 714.92 446.11 711.39 449.87 710.35 452.63 710.01 458.23 709.15 460.89 707.77 462.55 692.45 472.83 688.15 476.6 684.62 481.38 683.5 485.24 681.43 492.12 681.52 503.24 684.36 525.74 681.43 550.54 681.09 564.04 684.62 570.19 687.2 570.19 689.44 569.74 691.5 569.74 693.57 571.2 694.77 573.68 695.72 576.35 697.27 578 701.32 577.73 699.08 579.29 696.84 581.31 692.28 586.91 689.44 591.87 687.89 597.11 685.39 609.69 682.98 617.22 682.29 624.11 681.09 626.31 676.7 629.34 674.63 631.27 668.52 639.17 661.72 644.32 659.57 646.89 655.09 655.7 653.89 657.26 653.63 658.92 650.87 667.64 652.94 673.15 652.77 675.82 647.6 677.47 635.98 683.9 626.69 690.51 607.58 709.16 606.03 711.18 605.51 713.75 605.51 716.14 604.82 717.79 593.46 720.37 590.53 720.55 591.05 719.26 591.83 718.34 593.98 716.41 593.12 715.59 592.34 714.67 591.74 713.57 591.39 712.19 591.65 710.35 592.86 706.68 593.2 706.04 591.39 704.2 587.95 702.73 584.34 701.81 581.93 701.81 583.3 702.82 587.95 704.84 587 706.77 584.94 708.88 582.62 710.54 580.63 711.18 579.86 712.19 579.86 714.3 580.81 715.86 582.79 715.5 582.62 714.3 584.51 714.76 586.83 716.69 587.95 720 587 721.93 584.68 723.86 556.45 738.92 555.07 739.65 547.24 741.86 543.19 745.26 540.61 746.45 535.27 748.1 513.49 758.57 510.82 759.03 508.33 759.95 505.06 763.72 502.65 764.18 503.25 762.71 503.51 761.7 503.51 761.14 502.22 759.13 500.5 757.38 498.26 756.28 493.27 755.63 493.01 754.99 493.09 754.07 492.32 752.7 491.03 751.78 489.91 751.23 487.15 750.67 481.13 750.95 469.59 753.61 464.77 752.7 461.42 749.48 454.96 740.75 450.05 738.09 446.96 737.91 438.61 737.17 433.36 737.72 426.9 736.07 421.82 733.68 416.14 735.06 410.29 732.58 402.37 735.24 397.89 733.96 389.45 736.81 385.67 738.46 377.4 743.88 371.21 748.38 362.94 753.25 358.47 752.79 354.68 754.99 352.87 756.18 352.1 759.31 349.43 755.54 347.28 755.08 344.95 754.26 345.99 752.88 346.16 751.13 344.69 749.94 342.71 749.66 341.94 751.96 339.44 753.98 338.32 753.98 335.49 753.61 332.56 753.98 328.6 750.67 321.02 746.17 319.13 744.43 318.79 742.13 320.94 740.3 323.09 738.18 326.27 737.36 324.38 735.24 321.97 734.23 315.34 731.57 310.69 730.84 306.3 731.02 303.55 732.86 301.57 732.58 299.59 731.66 294.86 728.72 292.7 727.62 290.47 726.15 281.94 723.76 271.7 722.48 261.8 718.16 259.74 716.69 258.01 712.92 256.03 711.09 251.9 708.06 248.89 704.66 246.31 702.09 243.98 700.34 240.63 698.23 238.73 696.48 238.91 694.46 238.13 693.36 236.24 692.17 235.46 691.43 233.14 688.77 230.9 686.84 226.85 685 220.4 683.63 209.21 683.35 202.32 683.9 200 681.88 194.23 682.06 191.05 683.99 189.5 682.06 186.31 681.79 182.78 683.44 178.31 685.37 174.35 681.33 171.16 681.15 167.46 681.88 162.38 684.18 155.41 686.84 153.09 686.57 149.9 688.49 146.2 688.22 142.5 688.68 138.37 688.03 139.66 686.84 138.54 684.54 135.01 683.44 132.77 679.77 133.12 673.71 129.93 670.31 127.43 666.08 118.05 655.06 113.92 653.13 112.46 650.74 110.56 645.88 108.33 643.67 105.23 642.39 101.87 641.74 98.94 641.56 95.5 640.92 93.95 639.17 92.49 633.48 91.02 630.26 80.44 614.83 78.11 612.81 73.38 609.96 71.31 608.13 69.59 605.19 68.64 602.07 65.54 584.43 64.94 571.39 66.66 558.53 66.23 555.41 65.54 552.47 65.11 549.25 65.72 545.76 67.44 542.82 71.74 537.13 72.6 533.82 71.83 530.88 68.3 527.94 67.52 525 68.3 522.25 70.28 519.86 74.75 515.36 76.13 512.33 76.3 508.93 74.15 495.89 74.07 489.55 76.05 484.77 81.21 482.85 92.92 483.58 98.25 483.03 102.9 480.73 107.64 476.32 109.7 473.66 110.56 471.09 110.73 467.6 111.34 464.94 113.23 459.33 114.09 453.27 113.06 448.86 110.48 445.28 105.05 439.5 103.76 437.01 103.07 434.26 102.9 431.14 103.16 424.34 102.9 420.94 101.95 418.37 102.9 417.27 101.78 413.41 100.41 402.94 98.94 400.83 97.91 398.44 95.41 387.23 95.07 383.83 95.07 383.47 96.36 381.91 99.46 375.29 107.46 363.63 108.07 359.04 106.78 354.72 98.17 343.15 96.79 340.02 97.48 336.99 100.23 332.31 101.52 326.61 101.95 319.91 101.44 313.57 100.23 308.89 96.27 304.3 94.72 301.36 95.58 298.32 99.03 294.38 101.01 292.81 103.76 291.62 109.7 290.43 112.8 289.23 114.09 287.03 121.67 264.16 122.79 257.64 121.84 251.02 118.57 246.8 115.3 244.23 113.83 243.12 110.73 239.27 112.37 234.67 114.69 232.65 119.43 229.81 121.41 228.06 122.7 225.21 123.3 218.51 124.42 215.48 125.28 214.47 127.35 212.81 128.29 211.9 130.96 206.29 132.17 204.55 132.17 200.78 131.31 194.17 132.94 187.65 136.13 182.69 138.45 177.64 137.42 170.75 132.08 162.85 131.31 161.2 132.25 158.53 134.66 156.97 140 155.5 142.93 155.87 144.48 155.32 145.17 153.02 145.85 149.53 146.03 147.97 145.85 141.82 145.42 138.14 145.17 135.48 144.31 131.62 143.1 126.39 142.07 123.08 139.23 116.92 137.42 114.08 134.58 108.38 134.06 102.6 135.7 97.36 139.14 92.95 163.84 69.99 166.6 65.31 167.55 59.52 165.74 53.18 165.14 49.97 170.13 49.6" style="fill:#efc441"/><polygon points="165.14 49.97 166.25 48.59 169.01 48.5 170.13 49.6 165.14 49.97" style="fill:#efc441"/><polygon points="166.26 48.59 166.23 48.62 165.14 49.97 165.63 49.93 166.99 48.57 166.26 48.59" style="fill:#fff"/><polygon points="167.81 48.54 166.48 49.87 167.25 49.81 168.54 48.51 167.81 48.54" style="fill:#fff"/><polygon points="169.18 48.67 168.1 49.75 168.87 49.69 169.54 49.02 169.18 48.67" style="fill:#fff"/></svg>