<svg xmlns="http://www.w3.org/2000/svg" viewBox="0 0 800 800"><path d="M714.89,480.72l.18.57-1,3.5-.41.67-.69.13-1.1-.32-.87-.41-.92-.64-.42-.8.68-.83,1.11,0,.75-.38,1.61-1.15Zm-36-13.66L678,467l-3.85.35-6.21,1.85-1.88.16-1.85-.13L662.4,468l-.77-2.36-.57-2.51-1.17-1.85-.95-.38-.84.09-.83.23-1,.09-.89-.25-2.18-1,.6-1.91-.12-.22-.39-.45-.09-.06h0l-.57-.8-.09-.15-.06-.26-.09-1.15.69-1.08,1.31-.79,3-.67.45-.19.41-.55,1.05-1.71.59-.58.63-.25.63-.19.65-.29.57-.45,1.52-1.84,2.66-2.1.66-.58.62-.48.36-.15L669,443l.15-.23.06-.25.17-.22.66-.42v0l.12-.45.36-1.87-1.67-.93-4-.89-.69-.86L664,436l.42-.7.87-.1,1.52,1.28.86.28.09-1-.36-.47-8-8.63-1.38-1.18-.14-.16-.09-.19-.84-.86-.54-.57-1.94-.8-1.64.45-1.22,5.82-2.42,2.71-3.16,1.85-4.51,1.71-4.12,3.06-8.05,2.42-1,.48-.86.7-1.82,2.23-1,.89-1.16.35-1.34-.48-.54-.48-.48-.6-.77-1.31-.48-.54-1.11-.7-.5-.44-1.7-2.55-1-.89-1.4-.13-.69-.41-.53-.54-.6-.45-.78-.1-1.43.45-.69.38-.62.48-1.11,1.4-.65,1.43-.33,1.66v2l.3,2.93-.18.73-.63.38-2.65.19L602.12,449l0,1.15,1.76,2.83.93,3.12.42,1,1.13,2,.48,1,.27,1.24-.3,2.68-1.4.25-1.7-.63-1.14.16.18,1.62,3.16,2.74v1.3l-1.64.74-2.15-.07L598.16,469l-1.5-.74-1.37-.66-1-.16-7.11,1-.86.35-1.52.86-1,.12-2.53-.44-1,.09-2.42.61-1.79.48-.89.6,1.1,1.21,2,1.18,1.52.57.42-.06,10.21-1.94,2,1.43.29.76.15.83-.09.8-.35.67-1,.16-3.16-.48-.9.28-1.52,1.31-.57.16-1-1.72-.69-.54-.53,1,.09.51.77.6.15.42-.12,1.11.09.51.21.54,3.85,5.13.12,1.24-1.85.73-1-1.5-.65-2.35-.9-1.88-.92-.6-.3.41.18,1,.41,1.18,1,2v.77l-.54,1.05-.15.09-.47.1-.15.06-.3.83v.35l-.09.54-.3.39-.57-.32-1.16-1.82-.72-.54-1.49,1.27-.6-.22-.47,0-.48,1.18-.42,8.82-.24,1.3-.59,1.09-1.05,1.08L572.55,503l-.59.83.14.32.3.7h0l-.86.41-2.69.67-2.15.19-2.15-.12L561,504.76l-6.53-.2-14.89-3.75-2.06,0-1.61.5-4.06,2.81-3.49.54-.87.79.3,2.42-.15.23-.18.16-.18.09-.23,0-1.11-.12-.66.06-.41.51-.54,2.1-.3,2.2,0,2-.57,1.82-.32,1.81-.3.1-.39-.1-.45.13-.42.38-.2.23-.09.38-.09.79.32,2.14v0l1.23,1.08,5.28,1.85,3.55.13,1.7.66.21.2.33.63.24.26.3,0,.74-.16.27.1.39.66.09.74-.48,4.23.21,1.34,0,0,.78.73,5.55.89,1.19,0,3.31-1.08.6-.29.6-.16h.62l.75.26.33.19.68.64.72.12.71-.25.72-.51.36-.1.36,0,.36,0,.32.1h0l.66.8,1.46,3.15.84,1.18.45.63.41,1.12,0,1.18-.38.92-.54.73-.69.57-.71.42L554,546l-.74,0-.51.29-.15,1.17.15.54.24.48.21.51,0,.61-.24.35-1.11.76-.33.8.12,1,.57,2,.09,1.12-.15,3.09.12,1.21.33.7,1.07,1.59.24.83.09,1.71.15.77.42.76,1.7,1.63,1.61,2.86.75.77,2.26,1.24,3.47,3,1,1.66.21,2.07-.72,3.15-1.07,3-1.7,2.55-.54,1v0l-.33.89L561,591l-.32.7-.48.32-.21.16-.66.19-2,.29-1.37.44-.78.77-1.85,5.5-1.28,2.49-3.16,4.33-2.36,2.19-2.24,2.81-1.88,3.15-1.22,3.31-.15,2.26.87,4.24.15,2.26-.24,1.91-.51,1.81-.81,1.63-.21.76-.17-1-.54-.7-.75-.48-.92-.22-1.55.07-.54-.07-.51-.22-.92-.7-.51-.16-.51.06-.83.23-.45.06-.27.25-.27.55-.33.5-.47.16-.72-.6-.84-2.23-1-.48-.9.26-.8.57-1.43,1.43-.87.64-.89.45-.93.25-1.07.1-1.11.25-1.67,1-1,.19-1-.38-.51-.83-.32-1-.42-.93-.9-.79-1.94-.74-.86-.54-.42-.83-.72-2.32-.53-.48-.9-.28-1.76-1.21-.77-.39-2.12,0-4,.93-5.7.25-.48.16-.83.73-.48.16-1.2,0-.53-.1-2.87-1.21-1-.12-1.14.09-.83.26-1.08-.8.09-1,.66-.92.81-.83.71-1.11-.18-.86-.68-.73-.87-.7-.6-1.53.15-1.91,1-3.63.18-2.14-.36-4.23.18-2.1,1.52-2.68,2.42-3.05,1.58-3.06-.39-1.12-.54-1.46v0l-1.49-1-1.55-.73-1.67-.45-3.34,0-1.35-.38-4.44-2-2-2.52-1.25-1.17-1.44-.64-2.83-.8-2.69-2.13-1.22-.61-2.9-.47-4.38-2.07-1.49-.13-1.23.51-2.12,1.66-1.13.6-3,.26-2.93-1-7.19-4.74-4.33-2.87L428,564.62,423.92,561l-5.79-5.15-3-1.79-6.41-2.19-5.58-3.16L394,541.12,391.51,538l-1.31-1.66-1.05-.64-1.31.16-3.37,1.66-1.14.22-1.28-.22-1.31-.67-7-4.87-6.09-4.24-4.81-3.37-2.65-2.64-4.69-6.37-2.77-2.55-6.06-4.17-14.38-9.93-7.07-4.91-5.94-4.11-5.11-3.53-2.5-2.45-.48-.26-3.13-3.82-.48-1.46-.78-3.09-.12-1.24.18-1.18.39-1,.24-1-.18-1.17L306,466.67l-.18-1.11,0-1.47L305.6,463l-.36-1-1.13-2.2-.27-1-.12-2.32-.45-.48-3.58-2-2.09-.6-.92-.67-.21-.38-.09-.13L296,451l-.24-.51-1.64-2.1-.57-1.15-.89-3.41-.51-.76-1.43-1.5-.48-.73-.36-1.18-.5-2.55-1.35-4.61-.5-1.12.32-.41-.2-.8-.12-3.91-.15-1.12-.36-.92L283.85,419l-.87-.89-9.73-6.91-3.82-1.59-4.23-1-1.62-.19-.95.47L262,410l-.41,2-1.08.58-.83,1.75-1.23,1.27-1.49.73-1.67.07-1.76-.7-4.51-3.06-.77,0-2.57.44-.24-.5-.15-.51-.15-.13-.27.44-.56.93-.3.32-.3.22-2.06-2.07-3-.7-8.8.51-5.26,1.69-2.62.06-1.52-.41-1.26-.86-2.36-2.3-2.62-1.84L210,405.83l-4.77-2.36L204,402.29l-.29-1.3.53-4.46.36-1,.57-.76.74-.64,1.79-.86.6-.7-.39-1.05L205,387.65l-1.34-2.49-.39-1.94,1.1-1.53,1.19-.79,1.38-.13,1.64.51,1.49.89.87.38.68-.09.51-.74-.09-.79-.42-.77-.53-.63-.6-.51-2.09-1.15-.63-.67-.5-.73-1-1.43L205,374l-4.57-1.65-2.27.09-.62-.28-.48-.77.06-.76.51-.54.77-.22v0h0l2.6-1-.15-2.2-.87-2.74.42-2.61.72-.47.89-.35.72-.51.15-.93-.54-.73-1-.57L199.4,357l-1.52-1.31-1.2-1.82-1.4-1.43-2-.22-1.94.22-3.79-.32-9.22,1.34-2.24-.06L175,353l-1.73-1.79-1-.35-2.23-.22-1.26-.67-.57-1-.5-4.26-.42-1.09-.63-.95L163.89,340l-1-.64-1.1.13-1.28.57-1.26.32-1.28.07-1.94-.32-3-1.31L150,336.22l-9.4-10.54-1-.57-.81,1.27-.59,4.78-.93,1.66-1.82.47-2.24-.12-2.21-.48-4.71-1.82-1.08,0-.8.23-2.33,1.36-1.64.67-.78.58-.41.82.27,1.09.8.7,5.46,2.45,1.52,1.11,1.35,2,1.16,2.61,3.25,5,1.76,2,.48.45.21.48-.15.44-.54.32-2.8.41-.72-.19-.5-.73v-.89l.23-1,.15-1-.44-2-1.14-1.43-1.46-1.05-4.33-1.94-1-.16-.81.12-1.58.64-.69.06-.71-.38-1-1.43-.62-.57-.84-.29-1,0-1,.16-.77.38-.48.54-.39.67-1.1,1.21-1.2.51-.74.6.27,1.47.92,1.91.09.89-.39,1.31L109,354.85l-.63.67-1.64.51-.35.73.29.86.57.61.12.54-1,.67-.84.15-3-.12-.84.19-2.42,1.14-2,.39-6.14-1-4.18.16-4.12,1.91-3.49,3.28L77,369.82l-1.61,2.32-1.79,1.3-4.21,1.88L68.16,377v2.13l1,4.43L69,385.58l-.33,1.81-.06,1.75.77,2,1,1.52.51,1.47L71,395.7l0,2,.21,1.52.57,1.56.84,1.37,1,1,.63.45.65.32,2.21.51.33.22-.09.38-.51.57-.92.64-2,1-.87.95-1.34,2.36-.83.47-5.35-1.08-4.11-.83-9.73-.5L50,408.5,41,408l-8.12-.44-7.07-.35,0-12.77v-38.4l0-12.86V291.52l0-13V239.33l0-13.12V199.79h0v0h0v0h.06l4.05-1.24L34,197.27,38.05,196l4.09-1.21,4.09-1.24,4.09-1.21,4.08-1.24,3.2-1,.89-.25,4.09-1.25,4.09-1.21,4.09-1.24L74.84,185l4.09-1.24L83,182.56l4.09-1.24,4.09-1.21,5.43-1.56,5.46-1.56,5.46-1.56,5.43-1.56,2.54-.7,2.5-.7,2.51-.7,2.54-.7,2.62-.7,2.63-.74,2.62-.7,2.63-.7,3.52-.95,1,.09,1.16.48,3.37,2.13,1,.61,2.71,1.69,4.24,2.67,5.55,3.5,3.79,2.39,2.86,1.78,7.49,4.72,8.15,5.12,8.56,5.35,8.75,5.51,8.74,5.45,8.45,5.28,8,5,7.28,4.55,6.36,4,5.19,3.25,3.85,2.39,2.72,1.68,1.1,1.18.81,1.53.27,1.4.29,2.93.42,1.34,2.57,3.88,5,5.1,2.39,2.42,2.42,2.42,3,3.34,2.51,2.71,2.5,2.74,2.51,2.7,2.51,2.74,2.44,2.64,2.45,2.68,2.45,2.67,2.44,2.65,3.29,3.53.86.38.9.35.09,0,3.61-.6,1.52-.29,1.52-.26,1.55-.28,1.52-.26,2.48-.41,2.45-.45,2.47-.41,2.45-.45,4-.6,4-.61,4-.6,4-.64,4-.6,4-.61,4-.6,4-.61,6.66.54,6.62.61,6.65.54,6.63.57,6.06.54,6.05.51,6,.51,6,.51,2.42.22.74-.22.78-.19,4.36-2.29,4.2-2.2,4.33-2.29,4.24-2.23.8-.25.78-.29.68.09.72.1.72.64.74.6,4.69,5.76,4.68,5.8,2.18,2.16,2.18,2.17,4.48,2.67,4.5,2.65.84.73.86.73,3.7,7.23,2.39,4.62,3.25,6.36,2.81,5.48.39,0,.35.07,6.3-3.25,6.3-3.22-1,14-.92,13.95-.12,1.49-.09,1.47-.24.48-.21.47-.51.19-.5.2-.15.41-.12.38,0,1.69-.12,9.2L463,368.7l.06.32.06.29.18.15.18.13,5.25,0h4.77l4.78,0,5.25,0,.18,0,.15,0H484l.14,0,.15,0,.15,0,.12.06.09,0,.78,7.06.74,7,1.41,6.88,1.37,6.88,1.88,8.18,1.85,8.15,1,1.15,1,1.14,1.07.29.72.16,1.79.44,5.07-.28,4.24-.26,6.36-.35,4.65-.28,5.58-.32,3.52-.19,5.67-.32,5.58-.32.48.13.51.12.92.48.93.45.47.16.48.16.42-.07.42-.06,1.25-.8,1.25-.79.57-.35.54-.35.27.79.27.8.05,0,0,0,.18.32.15.32,1,1.21,1,1.21.24.48.21.51.18,1.05.18,1.08.27.44.3.48.26-.22.24-.19.3-.13.27-.13.27,0,.27,0,.24.28.23.32.3-.63.3-.61.48-.06.45,0,.09.58.09.6v.13l-.06.26-.06.25.2.06.21.07.09.06.06,0-.5.35-.51.39-.18.06-.21.09.18.1.18.1.12.12.09.13.18.32.18.35V427l-.21.92-.21,1-.33.89-.33.89-.33.73-.36.74-.2.35-.27.35-.3.35-.33.35-.36.28-.36.29-.77.32-.78.35-.18.16-.21.16-.05.22-.09.22.14.1.15.09.87.19.86.16.66.39.66.35,2,1.91,2,1.87,1.46,1.12,1.46,1.11,1.76.9,3.37,1.71L570,448l.09-.12,0-.13.27-.29.27-.25.33,0h.33l.18-.19.15-.19.12-.23.12-.25.2-.13.21-.12.24,0,.27,0,.87.41.86.45.6.06.57.1.44-.29.48-.25.15-.35.12-.39-.42-.19-.42-.22.54-.83.51-.86.06-.19,0-.16-.18-.32-.18-.31-.15-.32-.15-.35-.09-.35-.06-.35v-.35l0-.35-.54-.13-.56-.13-.21-.09-.21-.13-.18-.22-.18-.23-.15-.51-.12-.51-.24-2.32-.2-2.33,0-.41.09-.41.12-.16.12-.13.15-.1.15-.09.15-.32.12-.32,0-.25,0-.29-.06-.6-.06-.64v-.29l0-.32.09.07.09,0,.21.1.21.06.09.06.09.07.23-.64.24-.67.63-.38.6-.41,1-.39.39-.16,1.34-.57.45-.54.42-.51.8-2.2.81-2.23.6-.63.59-.67,1.49-.64,1.5-.63.56-.9.54-.89.27-.35.3-.38.45-.13.44-.16.93-.09.92-.13.81-.38.77-.35.75-.51.75-.48.38-.35.36-.35.18-.32.18-.32.33-2.64.36-2.64,0-.45,0-.48-.06-.31-.06-.32-.06-.1-.06-.13-.09-.06-.12-.06-.21-.26-.18-.25-.06-.22-.06-.23.09-.19.09-.19.21-.16.18-.13,1-.47,1-.48.42-.13.41-.13.39.16.42.16.21-.57.21-.57.54-.51.53-.51,1.2-.74,1.19-.7.36-.09.33-.06.65.22.66.22.3,0,.33-.06.83-.51.84-.51.32-.1.33-.09,1.32.25,1.28.22.27-.16.24-.12v-.29l0-.29-.39-.63-.36-.64-.06-.32-.09-.29.3-.73.27-.73.57-.38.59-.42,1.23-.38,1.25-.38,2.21-1.66,2.21-1.68.62-.7.63-.7.39-.26.35-.29,3-.79,2.92-.77,2.42-.09,2.45-.1.89-.35.93-.38.65-.76.66-.74.3-.44.3-.42.33-.25.35-.29,1.2-.41,1.22-.45,1.82-1.27,1.82-1.27.54-.61.57-.64,1.46-2.45,1.49-2.42.3-.32.33-.31.35-.19.39-.23.39-.13.39-.12.36-.19.35-.19.3-.29.27-.29.15-.51.18-.47.54-1.15.53-1.15.93-.76.92-.77,2.15-.89,2.12-.86.33,0,.3.07.42.29.38.25.36.38.33.38.18.35.15.39.15.51.18.54.32.32.33.31.45.19.48.16.5.07.51.06.69-.29.68-.31.45-.83.48-.83.42-1,.39-1,.5-.89.51-.92.6-.7.62-.7.21-.38.24-.36.18-.54.18-.51.33-.41.3-.38.53,0,.51,0,1,.29,1,.26.81-.1.83-.13.84-.41.8-.38,1.49-1.18,1.47-1.15,1-.86,1.94-1.33,1.37-.2,1.41.55,6.11,4.2,1.38.44.14,0-.65,2.1-1.61,1.08-3.61,1L679.65,367l-1.79.42-2.15-.1-1.79.48-.78,2L673,373l-.47.92-1.52.55-4.36.47-1.31.77L661,379.27l-1.91,2.17-1.25,2.61-1,1.46-1.31.86-1.43.67-2.6,2-7,3.94-.93,1.44.81,1.81,1.61.8,6.15.67,1.64.95.71.64.66.79,1,1.91.69.61.75,0h.3l1.46-.54,5.34-2.93,1.49-.22.84.48.71,1,2.45,4,.42,1.15.09,1.18-.66,3.41.09.95.54.76.71-.09.84-.41,1-.1.84.35.78.54.71.7.6.8.8.73.87.1,1.88-.29,2.06.38,1,.42.9.7.8.41,1.62.22.71.54,1.11,1.79.68.44.42-1.08-.09-1.15-.21-1,.12-.8.9-.45,1,.07.48.67.53,2.1.42.76.57.58.57,0,.47-1.05,1.11-1.37,2.95,2.49,1-.83.24-1.91-.39-9.58.27-.71.59.16,2.12,1.88,1.88.8,1.46-.29,1.23-1.21,1.43-3,.63-1.85.21-1.11-.18-1L707,398.6l-.44-.92.86-2.14.54-.63,1-.35,1,.12.56.73.24,1.09v1.18l-.8,3.12,0,.66.41.16.24-.47.21-.61.18-.29.48.2.24.89.42.16.32-.29,0-1.18.3-.22.36.13.36.31,4.09,5.86.68,1.66.27,1.81-.12,2.36.24,2.36,1.13.51,3.47-.58,1,.86.66.89.77.42,1.29-.77,1-.82,1-.64,1-.16,1.13.64.48,1.08.21,1.5.09,1.59.39,2.86v1.12l-.3,1-.6,1.31,1.35-.38,2.5-.73,1.61-.23.33-.25.48-1.47.24-.38.8-.64.57.39,1.25,1.88.93.57,1.22.35,2.33.19.21.19.12.22,0,.29-.06.32,0,1.27.8.38,1.08.1.83.29,1.88,2.8,1.35,1.43,1.7.73,1.88.19,5.61-.47,1.67.44.21,1.63-.12.92.53-.1,2-1.33,3.23-1.47.71.48.6.8.87.6,2.56-.16,1,.22.35.07h0l.21,1.11L773,437.06l-2.09,1.12-4.09,1.46-3.73,2.26-3.13.77-1.55.63-1,1.53-.5,3.69-1.29.58-1.61-.73h-.77l-.36.92-.06.83-.18.76-.45.7-.66.51-1.73.1-3.07-2-1.67-.22-1.25-.61-1.47-1.62-1.43-1.21-1.31.54-.15.92,1,1.53v1l-.29.89V452l.38.47,1.88,1.34.21.45.27.63-.06,1.31-.45,1.37-.89,1.18-1,.22-1.19-.45-2.57-1.43-.65-.25-2,.09-.57-.16,0,0,.21-.51.48-.13.74-.06.63-.19.18-.57-.39-.32-.8-.1-.33,0-2,.1-.72.19-2.92,1.53-.39.57-.27,1-.63,1.56-1.16,1.08-3.76,1.88-.24.77.3.82.84.58,1.25.57.33.19.27.19.23.42-.26.6-.63.16-.69-.13-.5-.19-.36-.06-.24,0-.51.16-1.73-.16-1.7-.38-1.61.06-1.34,1.34-.81,1.72-.48.76-.71.64-2.3,1.3-.6.2L710,472l-.27-.82v-2.27l-.3-1.11-.63-1.24-.77-.64-.78.67-.27,1.05-.12,1-.35.63-1.08.1-2.06-.38-1-.39-.93-.57-.77-.73-.36-.8-.42-.67-1.94-.57L696.57,464l-.9-.06-1.37.12-.72-.06-.59-.26-.45-.5-.39-.58-.45-.35-.62.19-.66,1-.39,1.21-.62.93-1.38.12-5.07-.7-2.53.42Zm-17.12-43-.69.16.51,1.15,0,.06.74.7,1.26,1.65.74.67.87.23-.09-1-.54-1.34-.63-.95-1-.86Zm26.64,53.81.21-.1.48-.35.24-.12,1.1-.32.57.13.33.51-.3.86-2,1.33-.69.67.09,1.43,1.91,2-.09,1.69-.44.67-.6.19-1.46,0-2.09.54L685,487l-.51-.45-.12-.6-.2-.48-.84,0-.48.35-.59.57-.63.35-.54-.25L681,485l1.85-2.83-.21-1.59-.5-.38L681,480l-.59-.28-.48-.71-1.08-2.29-.24-.86,0-.92.27-1,.75-1.72,1.37-.73,1,.61.71,1.33.63,1.5.75.92,1.16.74,2.45,1,.15.13.17.1Z" style="fill:#efc441"/></svg>