<svg xmlns="http://www.w3.org/2000/svg" viewBox="0 0 800 800"><path d="M669.91,383l2.86,4.53,4.88,5.86,1.9,3.23-.06,1.06-.58,1.1-.9.89-1,.31-1,.07-2.35.58-.8.41-.48.62-1.23,1-.35.79,0,.72.1.58-.07.59-.54.75-.39,2-.48.9-.8.48-1,.06-1.86-.2-1,.34-1,.79-.77.82-.81.72L660,413l-.58.68-.48.83-.67.65-.2.17L655.83,417l-1,1-.38,1.16-1.13.93-2,.2-4-.07-1.06.38-.64.65-.93,1.89-1.06,1.34-.23.48,0,.41.16,1,0,.55-.71,1.37.13.75-.19.65-.45.35-.68-.14-.29.24-.48.69-.64,1.3-.74,1-2.12.72-.68,1.34,0,.75.29.72,1.09,2.16.58.24.64.14.64.48.23.37v.31l0,.31,0,.41.2.48.38.28.42.17.32.27.35.66.52,1.4.42.69.09.41v.41l-.09.34-.23.38-1.16,1.1-.57,1.33,0,1.51.67,1.51.52.55,3.27,2.74h.61l1-2,.77-.78,1-.38h1.22l.58.24.48.34.52.28.67,0,.77-.14.61.07.55.31.58.65,0,0,1.61,1,.61.58.35.79,0,.86L657,458l-.35.82-.49.69-.64.62-.8.55-.71.61-.38.86-.45,2.5-.81-.51-1.25.31-6,4-3.37.89-.9.41-.77.65-1.32,2-.77.86-1,.38-.71-.24-1.7-1.2-1-.28-.55.07-1.09.28-.42,0-.58-.17-.42-.34-.32-.35-.32-.24-1.06-.31-.58,0-.29.21.1.54.48.69.1.48,0,.41-.07.21-1.28,1.44-.26.2-1,.17-2.16-.3-.87.72-1-.35-1-.13-.42.89-.9-.28-1-.1-.87.17-.45.58-1.48,1.82L615,480l-.71,1.88-.32,1.72.1,1,.45.52.67.38.71.72.35.75.45,1.47.52.76.13.41.06.41,0,.41-.1.45-.42.58-.22.72-.29,2.4.06.59.36,1.4.26.45.83.55.23.34.12.34.16.14.17.14.09.51-.26,1.89v.68l-.16.83-.51.13-.71-.07-.64.11-.61.58-.48,1.27-.48.68-.55.35-.77.27-1.58.31-.61.34-.41.72-.62,1.61-2.18,3.74-.71.58-1.57.93-.48.55.8,2,1.51,1.79,3.57,4.21,3.53,4.19L618.3,531l3.57,4.19,3.53,4.18,3.57,4.22,3.56,4.18,3.64,4.19,1.35.17,1.22.51,1,.89,3.09,8.71.32,2.37-1,2.47L639,571.23l-1.8,1.68L635,574.38l-4.53,2.16-.42,0-.9,0-.35.1-.35.45-1.32,3.15-.42,2.16-.35,1L625,585.42l-1.63.86-3.92.51-2.61.79-.83.11-.81-.21-1.6-.82-.84-.28L610,586l-.87.13-.32.62,1.25,2,.13,1.06-.71.72-1.16.48-1.25.24-1,.07-2.69-.17-.94.1-2,.86-.68,1.37-.29,3.87-.19.62-.32.59-.39.51-.48.41-.71.34-.45-.06-.41-.18-.65-.06-.51.13-.84.41-.57.07-.42-.07-1.48-.44-1.8-.1-.87.13-.87.28-1.09.68-2.44,2.78-.74.55-.93.48-1,.34-.93.17h-1.09l-.9-.27-.87-.41-1-.31-2.12.31L571.77,607l-2,.72-1.83-.2-9-3.94-2.05-.52-1.64.45-.16.27-.16.89-.26.38-.39.24-1.47.31-1,.38-.45.58-.1.79v1l-.58,2-1.28.34-3.86-.65-2.67.27-.8.24-1,.65-.19.76.16.92,0,1.13-.32,1.24-.45,1-.29,1.07.19,1.33.23.55.26.34.19.35.16,1.3.84,1.92.41,2.09,0,2.09-.45,2-1,1.85-.71,1-.48.35-.52,0-.7-.1-.42.2-.93.9-1,.58-.83.24h-.84l-1.12-.14-.93-.34-1.13-.65-1-.79-.64-.79-.68-1.17-4.94-6.24L521,622l-2.7-4-1.64-1.71-3.08-1.89-1.87-.65-1.6.17L509,615.32l-.35,2L508,619l-2,.61-2.06-1-3.21-3-2.28-.55-.9.1-2.6.69-1.19.1-.9-.24-1.9-.82H489l-2,1-1.86,1.37-1.87,1.06-1.92-.1-1.23-1.44-.73-2.09-.78-3.57-.57-1.71-.81-1.51-1-1.1L475,606.1l-3.21-.93-5.82-.51L455.4,606.3l-.87-.37-.57-1-.78-2.2-.51-.85-.61-1L450.23,599l-2.15-1.2-2.16.17-.61.65-.38.92-.13,1.1.13,1,.54,1.1.84.58,1,.41,1,.58.7.83.36.89.54,2,2.09,4.32h0l.93,1.2,2.18,1.85,1,1.1,2,3,4.57,3.74,1.89,1.13,2.19.89,1.09.72,2.76,3.6,2,1.82.9,1.06.35,1.24v1.89l-.09.89-.36.89-1.25,1.82-.48.89-.16,1.2,1.22,6.34.16,2.06-.42,4.32.1,2.09.83,1.75,1.48,1.85,1.7,3.26,1.48,2,3.6,7.47.8,2.71.55,1,.13.52v.44l-.32,1.34-.13,2.81-.23,1-1.79,3.46-.36,1.24.07,1.1.41.85.71.41,1-.27,2.76.34,5.66,1.65,3,0,3-.41,6.1.17,3,.48,5.91.21.94.38.16.65-.49,1.75-.06.82.1,3.4-.1.72-.64,1.54-.68,1.58-.13.78.07.93-.45,1-1.48.62-3.15.65h-.48l-1.32-.21-.61.11-2.6,1.26-6.82,5.8-1,.51-.9.14-5.56-.1-1.77.2-1.73.62-2,1.54-.77,1.68-.32,4.32-.74,3.12.16,3.06-.13,1-.26.89-.58,1.23L478,732.7l-1,1-2.22,1.37-2.57,2.71-3.28,2.5-.93,1.14-.9,2-.58.89-.8.38-.9-.55-.26-1.13.16-1.27.29-1,1-2,0-1-1-.68-1.06.13-1.13.69-2,1.54-2.47,1.37-1.1.83-.9,1.2-1,2.26-.61,1-6,4.18-1,.21-.93-.17-2.35-1.17-.84,0-.77.61-1,1.2-.94.76-.8.24-.87.1-1.09.31-.48.31-1.55,1.44-.19.14-.45.17-.22.14-.1.27,0,.69-.1.17-1.73.41-1.93-.21-1.7.48-1.1,2.33-.38,4.19-.52,2-1.12,1.58-.93.48-1,.07-1.89-.31-1.22,0-.81.41-2.89,3.74-.51,1-.45,1.23-.07.41.07,1.44-.23.65-.87,1.07L415,778.2l-1,.86-1.16.72-1,.37-1.09.07-.84-.31-.64-.72-.51-1.06-.1-2.4,1.13-2,1.41-1.92.77-2.34-.1-1.16-.29-1.1-.51-1-1.12-1.47-.52-.52-.58-.44-.61-.31-.54-.07-1,.14-3.37-.11-.94.11-1.15.41-1.87,1.23-4.08,2-.93.68-1.06,1-1.8,2.33-1,1.07-.93.61-.93.24-2.06.14-1,.48L384,775.59l-1.1.55-1-.1-.81-.52-.74-.58-.93-.41-.9,0-2.67.83-2.89-.65-2.86-2.16-2-1.92-.84-.83L365,767.67l-3.18-3-3.66-3.53-3.7-3.5-3.18-3.08L349,752.34l-.84-.82-1-2.16-.23-1.16.87-1.86-.06-1.2-.36-1.23-.48-1-.48-.55-.55-.45-.45-.51-.16-.72.32-2.06-.19-1.1-.45-1.06-1-1.78-.45-1.1-.19-1V730.4l-.13-1.1-4-11.42-.86-1.71-.1-.55-.22-.38-.87-.65-.36-.65-.35-.41L336,713l-.1-.61.74-1,.23-.38.16-.89-.16-2.71-.33-.79-.7-.41-.84-.27-.71-.45-.41-.65-.77-2.13-.33-1.54-.74-1.92,0-.93.55-.65.9-.92.61-1-.29-1-.26-.44,0-1-.16-.52-.39-.37-1.57-1-1.64-.55-.45-.28-.87-1-.51-.41-.51-.13-.42-.28-.29-.62-.19-.65-.23-.51-.45-.41-1-.62-.45-.34-.32-.52-.22-.58-.36-.45-.58-.17-.19-.2-.74-1-.16-.41-.19-.35-1-.51-.45-.35-.19-.37-.29-.93-.19-.44-.71-.66-.87-.3-2.09,0-.57-.44-.26-1.1-.26-2.26-.35-.93-.68-1.13-.83-.72-.9.24-.93.34-1.16-.24-2-1-.52-.62-.38-.17-.9.48-.51,0-1,0-1,.24-.45.62-.38.68-.68.58,0-3.42.78-1.41,1.18-1.13,2-2,2-2,2-2,2-2,2-2,2-2,2-2,2-2,.9-.86.55-.31,1-.2.48-.18.58-.48,2.83-3.77,1.22-2.09.22-2.13-1.54-1.71-1.77-.72-.71-.51-.64-1-3.15-8.81-1.35-1.89-1.76-.89-1,.07-.87.17h-.86l-.9-.48-.84-1.06-.32-1.17-.26-2.5-.45-1.24-1.86-3.46-.23-1.06-.16-3.12-.41-1.2-.29-.17v0l.12-.82-.32-.93-.51-.58-.39-1.61-.9-1-.86-.78-.39-1-.22-1.58-.42-1.54-.26-1.68.26-1.89.83-1.65.13-.58-.16-.65-.67-1.1-.13-.65.06-.41.26-.72v-.38l-.19-.31-.58-.24-.2-.17-.38-1.78-.35-.65-.87-.65v.34l-.42-.31-.42-.41-.29-.48-.16-.55.07-.69.29-.34.32-.24.25-.41.07-.48-.07-1.61.29-1.34.16-2.78.23-1.09.48-.79.35-.83.13-2.19.32-1-.25-.48.06-.28.16-.34,0-.62-.12-.34-.42-.89-.1-.31,0-1.16.33-2,.61-1.95.06-1-.06-2.23.09-.24.23-.28.19-.34.13-.51-.19-.35-.84-1.06-.29-.48-.16-.48-.1-.51-.06-.52,0-.58.13-.58.42-1.2.09-.45-.06-1.17-.19-.89-.29-.75-.42-.83-.45-1.92.42-2.09,1.16-2,1.76-1.54.2-.07.54.11.19,0,.26-.24.48-.58.23-.21,1.38-.58.42-.27.87-1,.48-.38.58-.17.25-.24.52-1.82.29-.38.32-.34.29-.41.13-.58-.16-.28-.71-.72-.16-.24-.07-1-.54-3v-2.3l.38-2.16.74-2,1.13-1.82,2.79-2.81.42-.79,2.22-2.6.67-.41,1.71-.79.57-.52.2-.85-.13-1.17-.36-1L321,509l-1.74-2.88,0-1.95.22-.69.52-.58.93-.76.29-.24h-.07l-1.83-.17-1.31-1.06-1.26-1.27-1.35-.93-7.39-1.81-3.28-.31-.83-.28-.39,0-.58.27-.86,1-.49.45-.51.1-.64,0-.55.17-.22.61-.1.52-.23.51-.38.38-.45.17-.45.1-1.64.59-1.9.31-6-.62-2.05.31L281,503H279.3l-3.09-.9-1-.13-1,.1-3.44,1.1-2.92.17-.52.27-1.22,1.13-.64.31-1.13-.13-2-1-1-.24-1.06-.11-3-1-1-.17-3,.17-1-.21-1.09-.44-1.06-.24-.84.24-1.77-.83-1-.24-1.16,0-.9.41-1.32,1.37-1,.62-2.8,2.88-2.67,1.61-1.06-.86-2-2.43-1-.52-1.26.24-2.25,1.14-1.15.34h-.61l-1.35-1.82-3.57-4.8L219,494.25l-3.53-4.81-3.57-4.8-3.57-4.8-3.56-4.8-3.57-4.8-3.53-4.8-.84-1.1-1.51-1.4-1.35-.38-1.74.1-1.7.48-2.67,1.58-1.47-.07-4.86-2.5-.7-.24-.16-.14-.26-.48-.23-.13-.45,0-1.09.17-.48,0-.77-.21-.45-.27-2.38-3.22-.35-.35-.74.17-1.32.45-.77,0-1.61-.41-.45-.17-.64-.58-.32-.17-1.38,0-2.83.72-2.06.14-1.77.65-1,0-.36.28-.22.48-.52.72-2,1.51-2.34.92-2.54.31-3.31-.38-.45.31-.39.45-.58.44-.83.28-.45-.14L145,463l-.54-.31-2.29,0-.64-.31-.22-.51,0-.62-.12-.58-.42-.35-.71-.1-2,.41-.77-.07-1.51-.44L135,460l-.74.17-1.22.58-.58.18-.93-.83-1-.27-.87.24,0,.07v.07l-.93-.07,0,0-.07-.13-.13-.28-.22-.2-.42.1-.64.38-.32.1-.32,0-.55-.41-.29-.41-.38-.27-1.58-.07-.61.1-.29.38.16.82-1.32-.38-1.12.07-1.09.21-1.35,0,.13.89-.33.18-.48-.11-.51,0-.61.41-.45.41-.52.31-.7.14-1.55-.14-3.92-1-1.38-.34v0l-.55-.31-1.09-1-.64-.38-1.29-.62-.54-.37-.81-1-2.57-5.32-.51-1.44L99.47,449l-.13-1.51,0-.44.45-2-.1-.28-.25-.17-1.61-2.23-1.58-.48-3.85.07-2.32-.48L89,441l-.9-.31-1.71-1.34L85,437.15l-.13-1.2.29-1,.38-1,.2-1.13-.16-1-.65-2-.13-1,.42-5.28.93-3.08.13-.89-.13-2.16-.19-.9-.32-.54-1-1.24-.22-.44.16-.59.42-.31.54-.2.52-.28.67-.61.55-.69.42-.79.19-1,.48-.92.9-.11,1,.18h.8l.77-1.17-.1-1.92-1-3.46-1.58-3.12-.25-1.14.06-.82.42-1.64.09-.83-.12-.82-.33-.86-.45-.75-.57-.62-.45-.27-.45-.11-.49-.2-.54-.48L85,389.52l-.93-1.06-.93-1.06-.9-1.06-.93-1.07-.93-1.06-.9-1.06-.93-1.07L77.61,381l-.86-1-.94-1.72-.48-2-.54-2.2-.55-2.19-.55-2.23-.54-2.19-.52-2.2-.54-2.23-.55-2.19-.55-2.2-.22-1-.8-1,.67-1.17-.26-.58-.77-.48-.9-.89-.35.38H68l-.39-.14-.55,0-.58.21-.38.21-1.61,1.13-.93.37-.9-.24-.84-1.23-.25-1.1.13-2.12-.2-1.24-.12-.2-.45-.48-.17-.24,0-.21.16-.44,0-.18-.58-1.85-.29-.38-1.09,0-2,2.06-1.06.61-1.22.38-.8.58-1.61,1.62-1.7.89-2,.27-5.14.14-.68,0-.61-.41v-1.1l.55-1,1.73-1.27.84-.86.58-1,1.64-4.33,3.76-5.89.86-2.23.71-.69,1.87-1.27.77-.82.48-.93,1.19-3.42,2.57-4.29,1.48-3.22.38-1.31-.19-.92-.42-.93-.32-1.3.06-1,.39-2v-2l2.44-8.88.93-11.07,0-1,.07-.72v-.24l.35-1,.74-1.07.77-.82.64-1,.87-2.64,2.89-3.6L72.12,276l2.25-6.9,1.09-2.26,1.22-1.51,2.06-1.51.87-.89.86-1.23,1.61-4.26.39-.58.86-1,.36-.55.16-.48,0-1,.19-.44.84-.58,1-.18,2-.1,2.6-1,.94-.2.93.1,1.73.48.84-.21.48-.65,1.42-2.78,1.38-2.81,1.41-2.77,1.38-2.78,1.42-2.78,1.38-2.78,1.41-2.77,1.42-2.78.45-.93.83-1.23.9-.69,1.22-.31,2.73-.79,2.77-.75,2.76-.75,2.73-.76,2.77-.75,2.73-.79,2.76-.76,2.77-.75,1.25-.34,1.86-.86,1.61-1.47.84-.48,1.41,0-.61,1.23-.16.93.38.93-1.28.13-.39.17-.19.38v.48l-.13.41-.45.14-1,.21-2.7,1.5-1.86.62-7.87,1.27L114,227.68l-1.83.37-1.16.42L110,229l-.61.55-.48,1.85,0,2.2,1.45,6.65,3.89,8.3,2.86,4.32,1.22,1.27,5.49,3.32.71.62.55.72.06.69-.35.13-2.22.52.19-.79-.32-.65-.7-.45-1.26-.27-.51-.17-.45-.07-.16.17-.13.24-.29.24-.55.38.42.58,1.67,1.68.39.65v.62l-.16.62-.07.72.49,2.05.77,2.1.93,1.78,1.12,1.58,1.48,1.4,2,1.13-.48,1.14-.38,2-.74,1.1.22.38.1.55-.1.55-.22.54.22.83-.35,1-.55,1.13-.29,1,.07,2.77.06.31-.06.17-.39.42-.32.2-1.28.45-1,1.2-.13.2-.77.24-.77.48-1.16,1-1.16,1.48-2.73,5.41L112.61,302l-.29,1.17-.71.51-1.89.59-.74.58-.64.89-.42,1.06-.42,2.13-1.09,2-.93,2.81-3.09,3.74-.71,1.51.16.69.87,2,.58.89,3.21,3.5,1.06,1.58,2.45,5.72-.84-.51-.38-.93-.26-1.1-.42-1-.35.35.13.2.09.14.13.38-.45.07-.19.13-.1.21-.22.27.67.35.74.65.58.89.22,1-.32,1-.74,0-.86-.52-.61-.68-.2.92.39,1,.74,1.23.7-.55,1.06-1,1-.51.45,1h.35v-1l.49.34,1.28,1.55.48.34.45.14.42.2.39.52-1.42-.31-1.22.55-.61,1.13.39,1.4.51-1.75.13-.34h2.73l1.19.79,1.09,1.44,1.13.86,1.25-1-.19.83-.13.24.51.41.1.37-.29.21-.64,0v.35l.58.58.06.86-.26.92-.38.72-.48-.41-.94.72-1.8,1.82.45.38.52-.41.51-.35.45.72.36-.2.25-.17.2-.28.19-.38.45.45-.16.55-.07.55.71.51-.9.07.07.69.83,1.3-1.12,1.34-.16.41.12.51.36.24.35.14.13.31.29,0,.58.31.41.34-.16.17-.06.21.48.45,1,.75,1.9.62,2,.38,2.09,0,2-.38L137,356l4.6-2.12,1.54-1,.93-1.2.68-2.68.9-.72,1.19-1.61.48-.51.42-.14,1.22-.17.32-.17.32-.24.35-.17.42-.11.64-.27.52-.65.26-.89,0-1-.81-2.82-.29-4.21-.16-1-.25-.66-.13-.48,0-.58.23-.41.9-1.3v-.65l.83-3.57v-2.37l.29-.34.23-.34.09-.38v-.17l-.29-.86-.61-.79-.8-.82-.68-1-.19-1.27.48-.07.32-.17.16-.44-.12-.38-.84-1-.87-1.4-2.54-3.33-1-.72-1.09.24-1-4.52-.8-2.27-1.06-1.88-1.77-2-1.06-.82-1.67-.65-.45-.83-.52-2-.42-.69-1-1.23-.39-1.51-.45-.83-1-1.26-.52-.55-.22-.35-.23-.51,0-.48.29-.79.29-2.61-.19-.68-.68-.65-2.12-1.51-.71-1,0-1.3.23-.38,1.6-1.47.13-.07-.22-.1L129.45,276l-.1-.52.07-.68.25-1.31v-.75l-.16-.62-.29-.38-.83-.78-.52-.83-.29-.37-.48-.18v-.3l3.44-.18,1.48.14,1.51.69.51-1.17-.22-1-.45-.89-.19-.79.35-.76,1.12-.82.45-.82-1.18,0-.45-.1-.58-.28-.45-.41-.9-1-.58-.31,2-.76,1.87-.27,3.88,0,2-.31.58-.24,5-2.16,2.09-1.31.42-.41,2.83-1.13,9-5.38,7.36-2.06,1.28-.55,1,.48,1.64,0,5.43-.72.83-.52.74-1.3-.45.21-.38.3-.29.42-.16.48-.13-1.27,1.12-.45,2.48.38,1.54-.45,3.6-1.85,1.7-1.2.9,0,1.77.24,2.41-1.27,1-1.27.64-1.41.06-.92-.09-.35-.33-.34-.54-.1.48-.35.61.07.68.31.38.65.45.55.45.45.55-.21.22-.51.2-.69.45,0,.51.3.45.18.35.34h.23l.09-.48v-.52l-.06-.3-.19-.24-.42-.14.06-.24.07-.14.22-.34-.67-.28.09-.65-2-.72-1.09-.1-.13-.14.19-.31.35,0,.71,0-.38-.37L196,232l-.64-.21-.55-.34-1-.72,1.83.48,1.28.75,1.29.72.83.45.39.1.84.24.77-.07.83.24.68.41.9-.41.48-.44,1,.34.23.79.38.2.65-.13.29.89.77.48.93.51.58,1.17,1.41.51.9-.55.29-.72,1.35-.89.61-.61.16-1.17-1-1.75.19-1-.39-.58-.77-2.4-.29-1.51-1.15-2.47h-.29l-.13,1-.36-.1-.45-.52-.35-.34-.61.17-.39.38-.25.34-.16.17-2.25.76-1,.07.22-.83-1.89.89-.55.14-1.41,0-.68.17L199,227l-1,.52-3.05.3L192.66,229l-1.19-.31-.83-1-.17-1.27.2-.34.54-.65.2-.38,0-.38-.1-.24-.13-.2-.09-.28v-1.33l-.1-.11-.42-.61-.13-.35.29.21.71.34.29.17v-1.4l-.1-.62-.25-.45-.52-.27-.22.38-.2.58-.35.38-.22-.86-1-1.92-.23-.31-.19-.14-.16-.24-.1-1.06-.13-.31-.32-.1-.51.07.26-.69.35-1.88.06-.76.2-.82.86-1.61.2-1,.32-.76,1.44-1.78.49-.75.16-.86-.07-1.47.26-.48,2.06-.07.83-.24.81-.55,2.92-2.68,1.09-.65,1.13-.24.64.28.64.44,2.16.52.9.75,4.21,7.34.61,2.06.25,2.16.07,4.35.32,2.2,2.89,8.67,2.19,4.7,1.64,2.12,2,1.55,1.63.24,1.19-.79,1.26-1,1.73-.51,4,.68,1.84.07,1.92-.75,1.32-.9.77-.34,1-.14.48.18,1,.68.49.17,1.6-.07.48.07,3,1.31.54-.07.26.51.64.62.74.48.58.31,2,.37,7.36-.34.9.28.71.58,1.57,1.78.9.76,1,.58,1.6.65.74.17.68.07.26-.24.25.17,1.1.52.25.37.48.93,1.19,1,3.51,2,1.06.79.83.86.32.75.45.55,3.09,1.41.22-.52.1-.2v-.34h.35l.13.3.48.76v.31l-.35,1,.45,1.3,1.8,2.85,2.89,6,.48,1.41-.41.65-.36-.24-.48-.48-.64-.48-.77-.17-.61.14-.55.27-.48.31-.32.31,1.57.44,3.79.38,1.1.93-.52,1-.77.37-2.12,0-.71.41-.25,1,0,1.13.61,3.12,1.48,4.42.61,1.2,1.06,2,.42.86,1.54,2.06,1.8,1.71,2,.82,5.78-.07.84.21,1.09.55,1.13.38.8-.17.67-.35.81-.2.58,0,.32.17.16.38,0,.41,0,.21.16.24L302,287l.32-.51.13-.24,1.44-.69,1.87-.44,6.23-.48,4-1.13,3.86-.31,4.05-.45,3.09-.34,3.88.17,3.44-.48,2.67-1.51,1.83-.41,1.87-.72,1-.17,5.95.1,5.14-.48,11-.72,5.34.1.54.14.55.38,2.54.48h.77l.58-.45.58-.72.67-.61.9-.28,1.13.17,2.89,1.58,3.08.79,1,.89,2.15.27.55.11-.36.72-1,.68-1.26.41-.9-.1.07.58-.07,1.24.16.44,1.45,1.62,3.57,2.91.35.52,1.57,1,.84,1.41,3.31,2.12h-.68l-.64-.14-.54-.24-.39-.34-.35.34-.29.38,1,1.37,1.22-.31,1.19.79,2.06,1.92,1.19.45,1.29.24,2.69.07-1.41-1L396.37,296l-1-1.41,13.53,6.28,5.69,1.81,1.57.31,5.44,1,6.58,1.3,1.93,1.07,1.74.48.54.2v.35l-3.56-1.2-.94-.21.42.72.84.55,1,.38,2.06.17.51-.07.45-.17.78-.41,1.41-.35,1.7-1.09.81-.42.93-.13,2.6.51,3.47.24,1.77-.27,1.35-.83.51-.72.39-.75.54-1.85,0-.79-.26-1.3.22-.69.39.41.45.28.55.1.54-.07-.35.48-.19.1-.42.11.55.68.83-.07.45-.48-.51-.51.54-.41,1.19-1.68.71-.11,1.32-.51.77-.07-.13.34-.1.18-.13.17.26-.07.42-.07.29-.17.32.62.29-.07.29-.35.19-.1.19-.1.52.14,1,.48.38.06,1.06-.37,1.32-1.41,1.48-.41.87-.48.25-.1.39-.24v-.48l-.29-.35-1.29.62-1.06-.07-1.06-.37-.7-.52.32-.48.48.07.58.27.54.14.58-.17,1-.65.71-.21-.13-.65v-.24l.13-.48h-1V291l1-.41.49.21.12.62,0,.82.12.79h.36l.42-.55.41-.76v-1.33l1.9-.79,2.44-.69,1.71-1,.41-.82.2-.66.41-.44,1.1-.17,1,0,.74.14.61.2,2.09,1,.87.24,1.09.11,1.13-.11,2.89-.61.93,0,1.83.55,1,.14,2-.07L498,285.9l1.35-.72-1.09-.14-1.19.07-1.22-.1-1.16-.72-.84-.69-2.41-1.2-1.09-.34-2.5-.07-1.13-.17-1.06-.65-.93-.41-1.29,0-2.44.55.26-.27.38-.76-.67,0-.48.3-.39.42-.35.27-.65.14-3.24-.28-.64.14-1.45.89-.32.17-.42.28-.42,1.16-.45.28-.7-.28-.33-.65-.09-.75v-.55l-.42-1-.84-1.06-.61-1,.23-.89.51-.31.32-.34.2-.48v-.65h.29l.48.92.64.45,2.09.41.58.21,1.25.68.58.14.64-.1,2.77-1.44.45-.17.64,0,.29.1.16.21.16.24.19.17,4.44-.07,1.06.41.67-.37,1.83-.41.71-.28.45-.51.42-.76.26-.89.12-1h.36l.58,1.13.9.79,1.12.52,4.85,1.23,4.7.62,1-.11,2-1.33,1.13-.52.8.48h.32l.13-.68.45,0,.58.17.58.18.26-.24.29-1.07.28-.41.29.34.33.21.32,0,.32-.21.32.34-.32.31,1,.38.39-.62.67,0,.74.37.77.21,0-.17.22-.38.39-.21.51.24.45.14.48-.24,3.25-2.37.48-.13.13.24.13.48.29.48.57.2h.55l.45-.07.42-.2.35-.45.81.28,3.21-.28,1.06.17,1.86.73,1.13.2,1.12-.14,1.9-.79,1.67-.27,5.08-1.89.67-.1,1.06.62.55.1.58.07,1,.21,4.53.1,6.82,1.27,3.66.55,2.09.31,3.37.1,1.48.51h.77l.58-.27,1.25-.89.61-.21,3.12,0,1.35-.28,1.16-.75.54.58,1.26-.45.41.55.78-.51,1.25-.48,1.28-.21.9.21-.77.38-.7.51-.36.79.2,1.06-.29.31-.52-.51-.42.34-.57.58-.9.35-.2.06-.58.45-.38.17h-.55l-.45-.07-.41,0-.52.41-3,.31-1,.37-4-.58-3.09.24-.61.28-.54.65-2.32,3.63-1,.89-1-.1-1.09-.65-.9,0-.93.31-1.13.14-.51-.1-.9-.45-.51-.14h-.45l-.81.24-.54.07-1-.1-3-.89-2.6-.24-11,1.51-1.29.34-.58.62-.45.82-1.12,1-1.19.79-.77.38v.34l1.45-.62,2.57-2.33,1.44-.89,1.77-.11.74,1,.13,1.47,0,1.31.28,1.57.07,1-.19.45-.39,0-.74.28-.32,0-.39-.2-.7-.69-.39-.17-3.12-.14-1.44.35-.42,1.2.32-.28,1-.41.26,1.23.22.48.45.35-.55.34-.77,1-.61.34.87.65-.1.52-.58.58-.51.69,2.73-.14.68-.38.19-.89-1-2,.25-1.1-.54-.37-.16-.62.19-.65.51-.45h.84l.77.41,1.32,1.34.48-.38.45-.13.48,0,.52-.13,1.44-.93.32-.14.81.17.93.35.8.44.52.41.16.38,0,.89.16.48.29.41,1.12.79.65.69.48.68.26.83.06,1.13-.32,1.51v.58l.54,1.13.07.41.16.18.35.17.32.24.26.85.45.9.1.27-.2.86-.51.89-.71.72-.67.31-.55.07-.93.2-.45.07-.61-.1-.35-.21-.23-.24-.26-.17-.77-.17-.83,0-.68.31-.29.72-.09.45-.29.37-.36.28-.41.1-.26-.2-.23-1-.12-.38-.74-.38-1.29.72-.74-.17-.09-.38.09-.51v-.48l-.32-.34h-.48l-.42.24-.38.37-.33.38-.12-.51-.29-.38-.39-.28-.48-.17-.74.62-.51.07-1.32-.34.22.3.13.21.68.72.64.51.29-.2.19-.48.45-.28.42,0,.22.45.2,2.53.38,1.07.71,0-.55-.75.1-.62.22-.58-.25-.66,0-.27.19-.51.25-.42.36,0,.22.34-.22.79.16.45.74.41.67-.17.65-.31.67-.1.61.34.45.51.58.41,1,.11L539,310l.38.37.74-.31.39-.82-.48-1.64.12-1,1-.31.32.2.84.89.51.28.58,0,2.47-.61,1.16-.69,1-.89.55-.93,0-1.16-.74-2.16-.22-1,.35-1.44.8-.31,1,.31,1,.58,1.9,1.48,1.09,1.61,1.19,4.18.38.89.52.76.38.78v1l.58,1,.16.65-.22.69-.52,1.1h.87l.68.44.58.62.9,1.37,2.5,5,.26.85-.07.86-.22.76-.1.75.07.14.32.65,1.32-1.37.93-1.68,1.32-3.88.09-1.61-.8-3.19,0-1.85.84.69.8,1.13,1.74,3.6.32,1.06.13,7.17-.55,2.12-1.32,1.24,1.58-.55.9-1.68.38-2.23-.29-6.27-.29-1.17-1-1.92-.36-1.06,2.77.34.8.21.32.58.19.68.45.66.49.2,1.51.38.93.1.38,0,.07-.17-.48-.48-.42-.21-1.42-.45-.57-.06-.07-.28-1.38-1.47-.77-.41L570,313l-2.8-.07-.61-.27-.71-.79.65-1,.29-.85.48-.55.48-.28,4,1.14,2.31,1,1.7,1,4.7,3.94.83.79,1.45,2,1.35,1,.77.58,0,.69.13.38.61.68.23.48-.1.52-.48,1.47-.9,1.85-.2,1.07h.33l1.28-2.78.68-2.78.8.11.67,1,.58,1.27.48.72-.25,1,.25,4.25.42-1,.2-1.14,0-2.19-.07-.58-.19-.48-.26-.35-.29-.34-.32-.55-.22-1.13-.23-.55-.32-.2-.93-.24-.35-.24-.07-.31-.77-1.1-.32-.55-.1-.38-.19-.34.42-.1,1.35-.07,1.8.38,3.63,1.23.54.07,3.31.79.87-.65-.19-.72-.61-.69-.52-.72-.35-.14-.32-.24-.8-.51-.07-.41-.09-.38-.68-.17-.64-.58-.29-.59.26-.17,1.35.07.48.21.7.37,1.35.76,1.9,1.27L600,319l1.61,1.23.67.9,1.84,2.4-.23-1.38-1.16-1.54-.32-.92-1.38-.55-.71-.83.17-.1.67.58.67.18.87.06.61.35.49.58,1.25,1.47.77.83.74.72.71.82.8,1,.61.52.9.78,2.22,1.89,1,.86.48,1.57.93,1.2.67-.3-.77-1,1.13,0,2.54,1.61.86-.54.29.17,1.77-.17.71.1,1.7.92L625,333l.78.55.25.86-.32,0-.13-.17-.19-.48-.1,1.68.1.41.35.31.33,0,.35-.17.45-.11.77.17,1,.45,1,.65.8.62.39.51.74,1.07.71.75.12.21.1.24,0,.34.1.1.61.17.22.24.42,1,.23,1.3-.07,1.24-.58,1-.06-.41-.13-.24-.42-.41-.22.72-.1.82-.19.65-.64.24-.71.17-1.09.72-.45.17-.55,0-.58.17-.51.21-.42.27-.29.55-.22.31-.29.13-.07.07-1.09.31L622.8,353l-1.1.37-.89.65-.87,1.51-1.26,3.09.68-.27.61-.62.45-.76.19-.61.23-.45,3.85-3.63,1.16-.79.19.89-.22.51-.71.76-.35.48-.13.41-.16,1.1-.19.37-.29.41-.13.38,0,1-.2.48-.48.31-.55.17-.41.21-1.64,1.92h-.29l-.19.44-.81,1.44-.29.76-.58,2.09-.06.82.32,1,0,.52-.7,2.12-2.51,4-.64,2.19-.23,2.4-.51,1.82-1.09,1h-2.06l-2.76-.93-.61-.14-8.2.69-2.06-.52-1.8-1.2-.93,0-.93.17-.64.51-.1,1,.42.55,2.51,1.54,1.76.38.42.14.29.34.22.34.2.21h.48l.84-.28.45-.07.06.14.55.65.73.72.29.14.61.07.23.14.42.72.16.2.93.1,1.8-.44.8,0,.45.38.32.65.23.79.29.62.48.51,1.22.79.55.76,1.44-1.07.61-.68.23-.83.32-.61.71-.69.87-.62.64-.34,1-.24,3,.24,2.18-.41,1,0,.13.72-.77.69-1.77.34-.35.89-.07,1.1,0,.55.19.41.45.21.13-.45-.07-1.3.2-.89L621,388l.51-.31.49-.1.51,0,.45-.06.16-.38.1-.45.25-.51.26-.41.55-.45.09-.58,0-1.2.09-.52v-.34l.13-.31.42-.27.9.38.9-.18,1-.34,4.63-.58,5.91-.72.87.61.29.52.64.55.74.51.58.31.93.21,2.89.17,3.09.79.8-.11.16-.24.52-1.16,1-1.07,1.09-2,1.48-.66,8.17.59,1.89.51,1.8.86,1.67,1.17.9.41Zm-46.76-2.64.26.11.16.1.19.1.36.07.16,1.3-.61,1.17-1,.55-1.1-.62,0,.65.39.69.09.51-4,.59-5-.45-1.77.07.51-1.13.65-1,.86-.72,1.22-.24,1,.34,1.51,1.3,1,.48-.55-.82-.09-.07.09-.41.23-.27.22-.21.1-.17,1.32-1.51.54-.21,3.06-.2Zm4.53-21.12,1.06-.24,1,.28,1,.61.8.76-1,.31-.29,0,.68,1.17-.64,1.5L629,365l-2,1.54-6.27,2.82-1.12.3,2.63-2.05.87-.89,1.61-2.51.51-1.68.48-.48.58-.41.55-.48.16-.51,0-.45.06-.44Zm-7.74,7-.55-.48.19-1,.42-1.17.26-1,.42-.83,1-.41,1.19-.31.94-.37.86-.93,1.74-2.37.77-.48,1.12-.1,2.58-.92v.48l-.07.41-.09.44-.17.38v-.38l-.38.89-.42.42-.64.1h-1l-.77.24-.74.55-4,3.91-.26.44-.29,1-.25.41-1.55,1Zm10-11.38-.77.89-2.35.82-1,.65.84-1.75.06-1.64.26-1.41,1.38-1.06,1.64-.48.9,0,.39.62-.13,1-.29,1-.42.93-.48.79Zm2.6-4.53.68-.58,1.06-.58,1.06-.07.74.85.16.24.26.48.22.31-.51.24-.61,0-.81-.07-1.32.86-.35.75-.32,1-.55.79-1,.31.38-1.31.36-2.29ZM484.2,269.24l.93.44,1.35.48,1.15.69.42,1.13-.67,1-1.26.07-1-.51,0-.93-1.25-.1-.65-.21-.38-.37,0-.66.29-.54.51-.38Zm-58.75-7.34.39,0,.38,0,.16.2-.41.52.7,1.1-.13.68-.77.52-1.09.48.16-.52.13-.17-1,.34-.87.11-1.87-.07-.93-.24-.87-.48-.8-.31-.74.27-1.12-1,.48-1.2,1.19-.89,1-.07,1.15-.51,1.13,0,2.41,1,.45.1Zm64.85-9.19.13,1,.71,1.88.13.89,1.54,3,.26,1.37-1.52-.34,0,.34,0,.68v.35l-.67-.55-.42-.17-.16.2-.16.35-1,1-1.22,2.68-2.7-.48-1,.17-3.09,1.13-.8.55.13-1.48-.84-.2h-1l-.93-1.92-1-.76-1.09-.62-.68-.58-1.28,1.17-1,.24-3.44-.41-.22-.11-.19-.13-.26-.07-1.22,0-.42,0-2-.62-.93-.07,1.15-2.67.17-.62.09-1.06.36-.48.7-.07,1.06,0,.52-.1.35-.21.58-.54.48-.18,1,.35,1.28-.59,1.13-.17,1,.21.45.72,0,.62.07.75.29.62,1.6.55,1.74,1.16,1,.28,1.9.2.8-.24.68-1,.09-.52-.09-1.54.29-.48.67-.58.29-.35.19-.54v-.38l.07-.38.42-.44.38-.14,1.09-.07.45-.14.68-.65L488,251l.7-.55.17.89.54.52.61.34ZM360.63,219.82l.74,0,.23,0-.87.83-1.67.27-1.74-.24-1.19-.86,1.42.38,1.09-.24.9-.79.77-1.44.42.35.26.54,0,.62ZM383,217.73l1.12-.07.26.31.07,1-.58,1-1.38-.11L381,219.1l-.93-1,.7-.28.81-.1Zm71.6-3.8.58.34,1.51,1.23.25.55.23.89,0,.83-.45.34-2-.07-1.09-.2-.93-.42.13-.41.06-.1,0-.14-.16-.41.61-.51.8-1.41ZM354,220.1l.68-.28.35,0,0,.1-2.22,1-.22.21-1.35.38-.42.13-.48.14-1.09-.07-.16-.2,1,.1.71-.07.23-.07.16,0Zm.8-4.7.81,0,.19.13-1.19.14-.16,0-.61.2-.8-.2h-.45l-.32-.11-1.45-.13.16-.11Zm-43.41-5.83.42.07.54.17-.41.07-.94-.17-.35-.17-.06-.21.16-.17.22.07.19.2Zm-1.06-2,0,0,.09-.13Zm.13-.14,0-.14,0,.14v0Zm0-1.16.13.1-.07.2-.06-.1Zm-.19-.69v.1l-.16-.07Zm-.29-.07-.07-.17.07.07ZM500,20.12l-.2-.24.2-.1.25.1,0,.24-.1.1ZM605.6,381.91l1,.45,1.19-.07,1.41.07.45.92,0,.86.07,1.06.58.66.67.27.74.51,0,.72-.19.83-.58.27-.8-.31-1.13-1-.38-1-.61-.75h-1.29l-1.64.07-1.54-.31-1-.82-.68-.52-1-.51-.9-.11-1.48-.61.22-.52,1,.14,1.83.27,1.73-.06,1.1-.69Zm30.31-7,.83-.1.62-.65.8-.52.64-.65.35-.27.2.17-.26.55-.48.92v1l.42.86.57.34,1.45,0,1.13.17.32.62-.16.85-.45.9-.68.17-.87,0-1.09-.41-1,0-.9.24-1.06.07-1-.07-.67.34h-.87l-.84-.07-.09-.48.57-.72.52-.92.64-1.1.61-1.06Zm-9.67-5.45,2.15-.31,1-.34.51-.86.52-.65h1.41l2.51,0,1-.65,1.13-.48.22.69-.45.62.29.41.64.27.2.89.13.55.61.65.54,1.14-.61.54-1.15.79-1.16.11-1,1-.64,1.33-.74,1.07-.35,1.06-1,1.1-.87.68-1.8.1-1.7-.2-1.25.24-1,.27-1.61-.51-2.41,0-1.86.24-.84.52-.86.72-.55.37-.51.31-.81,0-.32-.45.13-1,.13-.68.06-1.27.13-1.82.58-1.16L618,373l1.45-1.16,1.67-1,1.31-.52,1.64-.62,1.1-.17Zm-64.79-55.21.39.52.29,1.23-.17,1.2-.25.89-.61-.06-.52-1.34-.06-1.27.09-.82.26-.55.39,0ZM558,309.87l.29.14.29.51-.22.79-.61.27-.55-.51-.32-.89-.39-1.68,0-.65.45-.14.52.72Zm7.65-2.3.23.38.25.82-.22.72-.48.52-.58.48-.77.2-.68.11-.45.2,0-.65.58-1.41.9-1,.83-.34Zm-19.92-15.91.32.31.42.75-.07,1-.41.79h-.29v-.59l-.2-.48-.74-.75-.35-.45-.8-.89-1.45-1.13-1.35-.86-.83-.92-.26-.93.06-.92.07-.31.19-.65.22-.38h.23l1.38,1.65,1.16,1.64ZM475.2,268.28l.42.13.16.69-.9.62-1.26.13-.9-.48.13-.75.71-.31.61,0,.83.06Z" style="fill:#efc441"/><polygon points="636.17 551.96 632.53 547.77 628.97 543.59 625.4 539.37 621.87 535.19 618.3 531 614.73 526.79 611.2 522.6 607.63 518.39 606.12 516.6 605.32 514.58 605.8 514.03 607.37 513.11 608.08 512.52 610.26 508.78 610.88 507.17 611.29 506.45 611.9 506.11 613.48 505.8 614.25 505.53 614.8 505.18 615.28 504.5 615.76 503.23 616.37 502.65 617.01 502.54 617.72 502.61 618.23 502.48 618.39 501.65 618.39 500.97 618.65 499.08 618.56 498.57 618.39 498.43 618.23 498.29 618.11 497.95 617.88 497.61 617.04 497.06 616.79 496.61 616.43 495.21 616.37 494.62 616.66 492.22 616.88 491.5 617.3 490.92 617.4 490.47 617.43 490.06 617.37 489.65 617.24 489.24 616.72 488.49 616.27 487.01 615.92 486.26 615.21 485.54 614.54 485.16 614.09 484.64 613.99 483.62 614.31 481.9 615.02 480.01 615.92 478.23 617.4 476.42 617.85 475.83 618.72 475.66 619.75 475.76 620.64 476.04 621.06 475.15 622.06 475.28 623.05 475.63 623.92 474.91 626.08 475.21 627.04 475.04 627.3 474.84 628.58 473.4 628.65 473.19 628.68 472.78 628.58 472.3 628.1 471.61 628 471.07 628.29 470.86 628.87 470.89 629.93 471.2 630.25 471.44 630.57 471.79 630.99 472.13 631.57 472.3 631.99 472.27 633.08 471.99 633.63 471.92 634.59 472.2 636.29 473.4 637 473.64 638 473.26 638.77 472.4 640.09 470.38 640.86 469.73 641.76 469.32 645.13 468.43 651.11 464.45 652.36 464.14 653.17 464.65 653.62 462.15 654 461.29 654.71 460.68 655.51 460.13 656.15 459.51 656.64 458.82 656.99 458 657.18 457.11 657.15 456.25 656.8 455.46 656.19 454.88 654.58 453.89 654.55 453.85 653.97 453.2 653.42 452.89 652.81 452.82 652.04 452.96 651.37 452.93 650.85 452.65 650.37 452.31 649.79 452.07 648.57 452.07 647.57 452.45 646.8 453.24 645.77 455.22 645.16 455.22 641.89 452.48 641.37 451.93 640.7 450.42 640.66 448.91 641.24 447.58 642.4 446.48 642.63 446.1 642.72 445.76 642.72 445.35 642.63 444.94 642.21 444.25 641.69 442.85 641.34 442.19 641.02 441.92 640.6 441.75 640.22 441.47 640.02 440.99 640.05 440.58 640.09 440.27 640.09 439.96 639.86 439.59 639.22 439.11 638.58 438.97 638 438.73 636.9 436.57 636.62 435.85 636.58 435.1 637.26 433.76 639.38 433.04 640.12 432.08 640.76 430.77 641.24 430.09 641.53 429.85 642.21 429.99 642.66 429.64 642.85 428.99 642.72 428.24 643.43 426.87 643.46 426.32 643.3 425.36 643.33 424.95 643.56 424.47 644.62 423.13 645.55 421.24 646.19 420.59 647.25 420.21 651.24 420.28 653.29 420.08 654.42 419.15 654.8 417.99 655.83 416.99 658.12 415.31 658.31 415.14 658.98 414.49 659.46 413.66 660.04 412.98 662.29 412.05 663.1 411.33 663.87 410.51 664.83 409.72 665.83 409.38 667.69 409.58 668.69 409.51 669.49 409.04 669.97 408.14 670.36 406.12 670.9 405.37 670.97 404.78 670.87 404.2 670.84 403.48 671.19 402.69 672.41 401.7 672.9 401.08 673.7 400.67 676.05 400.09 677.01 400.02 678.01 399.71 678.91 398.82 679.49 397.72 679.55 396.66 677.65 393.43 672.77 387.57 669.91 383.04 670.84 383.49 672.38 384.59 674.05 386.37 676.75 390.76 678.49 392.54 679.84 393.3 682.12 393.95 683.31 394.6 685.88 396.59 687.23 397.38 688.61 397.69 689.06 398.47 689.13 398.58 689.19 398.99 689.38 399.06 689.67 399.02 692.31 399.61 692.66 399.95 693.27 400.77 697.48 404.61 696.39 402.76 694.75 401.05 692.79 399.64 689.25 398.1 684.95 394.91 682.09 393.26 681.7 392.71 681.12 391.31 681.22 390.66 682.35 390.45 683.12 390.83 684.79 392.23 686.68 392.85 687.62 393.54 689.13 394.91 692.21 396.86 696.52 398.95 701.5 402.76 710.08 408.21 712.91 410.48 713.61 411.16 714.29 412.16 716.83 414.66 723.25 422.34 725.66 424.36 727.01 426.49 728.24 428.2 729.39 430.74 730.16 431.91 730.32 431.6 729.84 430.36 729.94 429.81 730.58 429.85 731.74 430.3 732.73 431.15 733.63 432.08 734.4 433.11 735.18 434.34 736.17 436.06 737.36 437.6 738.1 438.73 741.8 442.61 742.63 444.15 742.99 445.83 742.5 447.44 742.83 447.06 742.6 449.26 742.83 455.7 742.02 461.02 741.41 461.81 740.38 462.67 739.64 463.28 738.94 464.21 738.42 465.2 738.1 466.23 737.81 468.19 736.72 471.2 736.62 472.27 736.72 475.56 736.62 476.07 736.17 476.69 736.08 477.27 736.08 486.22 735.82 487.32 735.66 487.87 732.54 492.63 732.73 492.74 732.86 492.94 734.31 491.54 734.79 491.23 734.95 491.02 735.05 490.71 735.24 490.58 735.88 490.85 736.3 490.92 736.49 490.92 736.62 491.47 736.62 493.7 736.72 494.69 737.84 497.09 738 497.95 737.97 498.43 737.91 498.88 737.75 499.32 737.52 499.66 737.39 500.04 737.59 500.45 737.88 500.9 738 501.38 737.33 508.1 737.36 509.13 737.88 510.36 738 510.88 738 514.99 737.88 516.19 737.23 517.12 736.08 519.79 735.88 520.92 736.08 524.11 735.75 527.3 735.79 530.76 735.53 532.89 734.98 534.95 734.12 537 733.05 539.23 732.25 540.13 731.1 540.47 727.05 541.15 725.12 541.26 724.44 541.57 724.09 542.59 723.67 543.42 723.51 543.9 723.48 544.45 723.48 544.93 723.45 545.34 723.22 545.68 725.41 549.25 725.95 549.79 726.24 550.58 726.18 554.22 725.05 561.45 725.15 563.51 726.31 566.7 727.5 573.83 728.11 574.69 730.26 574.04 730.93 574.83 731.61 576.95 733.22 579.32 734.34 580.55 735.27 581.1 735.75 581.58 737.23 583.98 738 584.87 739.67 585.46 739.97 585.73 741.22 586.76 741.38 586.93 741.96 587.41 742.38 588.47 742.83 590.74 743.15 595.02 742.92 595.54 741.83 596.77 741.57 597.6 741.7 598.83 742.63 600.82 742.83 601.88 742.79 602.94 742.63 603.84 742.25 604.76 741.57 605.83 738.49 608.74 738 609.08 737.43 609.32 737.14 609.66 737.36 610.32 737.78 610.66 738.33 610.73 738.84 610.59 739.29 610.32 740.25 610.69 741.38 610.97 742.44 610.9 743.15 610.32 744.14 610.69 744.05 610.83 744.01 610.87 743.95 610.9 743.79 611 744.21 611.76 744.78 614.09 745.36 615.49 745.43 616.01 745.62 616.45 746.49 617.24 746.68 617.72 746.91 618.62 747.81 620.36 748 621.32 747.84 622.08 747.13 624.03 746.84 624.41 745.81 625.06 746.78 626.5 749.28 628.9 749.35 629.73 749.15 631.75 749.41 632.47 749.73 632.67 750.6 633.09 750.89 633.33 751.05 633.74 752.24 641.45 752.82 643 753.17 643.41 753.49 643.61 753.69 643.89 753.75 644.54 753.3 646.39 753.4 646.8 753.01 648.82 752.82 649.51 752.05 651.12 751.89 651.94 751.86 653.11 751.4 654.31 750.67 655 750.41 655.61 751.53 656.71 754.59 659.11 755.68 659.25 756.23 659.59 756.64 660.14 757.29 660.83 757.51 661.58 757.77 662.3 757.7 663.05 757.29 663.95 756.96 664.25 756.61 664.36 756.29 664.49 756.03 664.94 755.94 665.56 756.1 665.87 756.42 666.14 756.67 666.69 756.8 667.41 756.84 668.16 756.71 668.85 756.35 669.43 756.07 669.53 755.33 669.64 755.07 669.81 754.97 670.08 754.72 671.15 754.72 671.49 755.26 671.66 755.74 671.7 756.19 671.87 756.67 672.48 756.9 673.07 757 673.75 756.9 674.3 756.51 674.54 755.94 675.19 755.13 676.46 754.23 677.49 753.43 677.32 752.69 677.97 752.3 679.03 752.08 682.26 751.53 685.24 751.44 687.23 751.31 688.02 750.89 688.63 750.12 689.05 748.48 689.12 747.64 689.32 748.48 690.62 748.8 691.34 748.96 692.1 748.87 692.82 748.32 694.12 748.29 694.84 748.74 695.77 749.45 696.04 750.05 695.53 750.22 694.15 751.18 694.74 751.66 695.39 751.66 696.08 751.21 696.9 750.25 697.79 749.93 698.3 749.35 699.81 748.96 700.33 748.9 700.12 748.61 699.68 748.45 701.84 748.29 702.42 747.93 702.83 747.58 702.87 747.36 702.52 747.36 701.73 746.68 702.21 746.17 703 745.85 703.89 745.72 704.65 746.04 706.33 746.1 707.32 745.72 708.25 745.72 707.9 741.41 712.95 740.58 714.42 740.41 714.52 740.22 714.46 740.06 714.46 739.97 714.8 739.97 715.04 740.22 715.17 740.29 715.45 740.03 719.43 739.29 723.68 739.32 723.99 739.45 724.23 739.45 724.47 739.13 724.91 738.87 725.12 738.16 725.57 738.04 725.7 737.91 725.87 737.68 726.22 737.14 727.35 736.14 728.62 735.98 729.47 736.08 730.4 736.08 731.57 734.98 733.93 734.79 734.51 734.53 734.69 733.31 734.65 732.86 734.69 732.45 734.99 732.16 735.41 731.61 736.43 730.9 735.99 730.49 736.06 730.23 736.5 729.97 737.09 730 737.33 730.13 737.67 730.23 738.05 729.97 738.49 729.65 738.7 729.36 738.77 729.04 738.73 727.72 739.01 727.34 739.28 727.05 739.83 727.01 740.51 727.72 743.29 728.3 744.49 728.43 745.76 727.69 747 727.56 747.2 726.95 749.36 726.56 751.32 726.47 753.27 725.63 753.34 724.76 753.2 723.83 752.79 722.61 751.76 722.23 750.7 721.97 749.64 721.23 748.44 720.36 747.68 719.4 747.13 719.14 747.03 717.31 746.24 709.47 744.77 706.45 743.74 705.64 743.26 705.03 742.4 704.04 740 703.65 739.49 702.78 738.94 702.59 738.08 702.49 737.15 701.95 736.37 701.5 736.3 700.57 736.61 699.99 736.43 699.79 736.23 699.47 735.44 699.31 735.13 699.06 734.99 698.48 734.96 698.25 734.86 697.84 734.31 696.9 732.56 696.49 732.04 695.01 730.81 694.24 729.71 692.92 727.45 691.95 726.56 690.96 726.22 690.09 726.35 689.29 726.59 688.36 726.66 687.81 726.49 687.33 726.25 686.91 725.87 685.88 724.71 685.78 724.3 686.55 723.23 687.52 721.21 687.49 720.59 687.36 720.52 687.07 720.59 686.46 720.46 684.69 719.7 684.14 719.67 683.21 720.04 682.63 720.01 682.22 719.46 681.99 718.43 681.89 717.34 681.93 716.55 682.12 715.96 682.7 715 682.92 714.49 682.96 714.01 682.83 712.71 682.92 712.26 683.18 711.44 683.21 711.03 683.08 710.48 682.54 709.45 682.47 708.76 682.63 708.25 683.15 707.36 683.31 706.88 683.28 706.36 682.86 704.85 682.83 703 683.08 701.05 683.02 699.33 681.99 698.13 681.57 698 680.64 698 680.22 697.89 679.65 697.55 678.2 696.25 676.34 695.22 675.44 694.53 674.95 693.57 675.02 693.13 675.5 692.3 675.5 691.72 675.4 691.21 675.34 690.11 675.27 689.56 673.89 686.3 673.73 685.34 673.73 684.73 673.67 684.35 673.28 683.49 673.09 683.28 672.48 683.04 672.25 682.87 672.29 682.7 672.51 682.09 672.51 681.81 671.07 678.73 670.87 677.76 671.19 669.6 672.16 665.49 672.29 664.43 672.09 661.55 672.32 660.31 672.8 659.11 674.05 656.92 674.28 656.71 674.6 656.57 674.89 656.44 675.02 656.09 674.99 655.75 674.63 655.2 674.57 654.93 674.73 654.79 675.31 654.69 675.44 654.48 675.31 654.14 674.92 653.69 674.79 653.35 674.79 652.7 675.05 652.32 675.37 652.01 675.69 651.53 676.34 649.27 676.53 648.75 677.75 646.63 678.23 644.95 678.39 644.88 678.68 644.88 679 644.78 679.26 644.57 679.29 644.2 679 643.54 678.94 643.2 679.13 640.8 678.33 641.11 678.46 640.22 679.26 638.16 678.87 636.89 678.04 635.83 677.3 634.73 677.33 633.26 678.52 631.88 682.35 630.45 684.14 628.66 685.21 628.18 685.62 627.84 685.91 627.26 685.91 626.81 685.88 626.36 685.91 625.78 686.3 624.51 686.88 623.86 688.8 622.97 689.74 622.18 689.87 621.5 689.67 620.67 689.54 619.54 689.83 618.51 690.51 617.35 691.41 616.39 692.27 616.01 692.73 615.94 692.98 615.7 693.05 615.32 692.98 614.81 692.63 614.4 692.08 614.19 690.57 613.92 690.12 613.95 689.83 613.75 689.87 612.48 689.67 612.17 689.38 611.93 688.74 610.63 687.13 609.05 686.68 608.29 686.84 607.09 687.36 606.27 687.49 605.55 686.49 604.73 684.5 604.04 683.73 603.42 683.15 602.12 683.08 601.57 683.05 601.13 683.18 600.24 683.31 599.96 683.73 599.34 683.82 599.03 683.73 598.69 683.25 598.14 683.15 597.9 683.66 596.98 685.27 595.2 685.56 594 685.56 593.65 685.59 593.17 685.43 593 684.88 592.93 684.34 592.76 683.92 592.31 683.57 591.83 683.18 591.42 680.45 589.78 679.81 588.92 679.45 589.37 679.03 589.47 678.04 589.19 677.81 589.16 677.3 589.16 677.11 589.09 676.91 588.78 677.04 588.16 676.85 587.96 676.24 587.96 675.34 588.44 674.89 588.47 674.63 588.23 673.96 587.27 673.54 587 673.09 586.9 672.54 586.86 672.09 587 671.87 587.41 671.61 587.75 671.03 587.65 669.91 587.24 669.01 587.41 668.27 587.62 667.79 587.48 667.53 586.55 667.27 586.18 666.76 585.9 666.25 585.9 666.02 586.28 665.89 586.86 665.63 587.07 665.22 587.07 664.64 586.97 663.9 586.55 663.38 585.8 663.16 584.87 663.29 583.91 664.54 582.51 664.96 582.44 665.89 582.4 666.34 582.23 666.76 581.79 666.92 581.31 666.98 580.83 667.11 580.24 667.34 579.66 668.69 577.57 669.07 576.75 669.36 575.89 669.46 574.93 669.27 572.74 669.91 570.51 670.04 567.49 670.36 566.01 670.71 565.12 670.87 564.2 670.9 562.24 671.74 559.19 671.68 557.78 670.36 557.06 668.3 555.8 667.34 555.01 666.73 554.29 666.6 554.15 665.12 550.45 664.7 549.86 662.58 550.69 661.91 550.03 661.49 548.87 660.88 548.66 658.92 549.21 658.02 549.66 656.15 551.72 655.25 552.37 654.23 552.4 652.17 551.61 651.17 551.68 650.82 552.02 650.27 552.98 649.79 553.33 649.47 553.33 649.15 553.05 648.83 552.71 648.47 552.43 647.54 552.26 644.88 552.64 644.2 552.57 643.69 552.3 643.2 551.99 642.63 551.72 642.08 551.61 639.28 551.41 638.25 551.44 636.17 551.96" style="fill:#efc441"/><polygon points="500.01 20.12 499.81 19.88 500.01 19.78 500.26 19.88 500.3 20.12 500.2 20.22 500.01 20.12" style="fill:#efc441"/><polygon points="672.38 384.59 671.43 383.91 670.83 384.51 672.2 386.67 673.3 385.57 672.38 384.59" style="fill:#fff"/><polygon points="646.19 420.59 645.55 421.24 645.47 421.41 646.34 420.54 646.19 420.59" style="fill:#fff"/><polygon points="676.51 390.36 675.16 388.18 674.13 389.21 675.74 391.14 676.51 390.36" style="fill:#fff"/><polygon points="640.12 432.08 640.76 430.77 641.23 430.11 637.75 433.59 639.38 433.04 640.12 432.08" style="fill:#fff"/><polygon points="642.21 429.99 642.66 429.64 642.85 428.99 642.78 428.56 641.28 430.06 641.53 429.85 642.21 429.99" style="fill:#fff"/><polygon points="682.35 390.45 681.22 390.66 681.12 391.31 681.7 392.71 681.89 392.98 683.62 391.25 683.12 390.83 682.35 390.45" style="fill:#fff"/><polygon points="672.9 401.08 672.41 401.7 671.19 402.69 670.84 403.48 670.86 404.01 674.37 400.5 673.7 400.67 672.9 401.08" style="fill:#fff"/><polygon points="679.06 395.82 681.19 393.68 679.84 393.3 678.69 392.65 677.75 393.59 679.06 395.82" style="fill:#fff"/><polygon points="664.83 409.72 663.87 410.51 663.1 411.33 662.29 412.05 660.04 412.98 659.46 413.66 658.98 414.49 658.31 415.14 658.12 415.31 655.83 416.99 654.8 417.99 654.42 419.15 653.29 420.08 651.24 420.28 651.06 420.28 642.78 428.56 642.85 428.99 642.66 429.64 642.21 429.99 641.53 429.85 641.28 430.06 641.23 430.11 640.76 430.77 640.12 432.08 639.38 433.04 637.75 433.59 636.93 434.41 636.58 435.1 636.62 435.85 636.9 436.57 637.38 437.5 665.32 409.55 664.83 409.72" style="fill:#fff"/><polygon points="685.88 396.59 684.12 395.22 639.8 439.54 639.86 439.59 640.09 439.96 640.09 440.27 640.05 440.58 640.02 440.99 640.22 441.47 640.6 441.75 640.97 441.9 686.14 396.74 685.88 396.59" style="fill:#fff"/><polygon points="684.95 394.91 686.68 396.19 688.52 394.36 687.62 393.54 686.68 392.85 686.54 392.8 684.62 394.72 684.95 394.91" style="fill:#fff"/><polygon points="689.25 398.1 691.71 399.17 693.42 397.45 692.21 396.86 691.15 396.19 689.25 398.09 689.25 398.1" style="fill:#fff"/><polygon points="689.67 399.02 689.38 399.06 689.19 398.99 689.13 398.58 689.06 398.47 688.99 398.35 642.54 444.8 642.63 444.94 642.72 445.35 642.72 445.76 642.63 446.1 642.4 446.48 641.24 447.58 640.66 448.91 640.69 450.18 691.46 399.42 689.67 399.02" style="fill:#fff"/><polygon points="694.75 401.05 696.25 402.62 698.45 400.43 696.52 398.95 696.43 398.91 694.48 400.86 694.75 401.05" style="fill:#fff"/><polygon points="695.8 403.08 693.95 401.39 642.42 452.92 644.34 454.53 695.8 403.08" style="fill:#fff"/><polygon points="623.92 474.91 623.05 475.63 622.06 475.28 621.06 475.15 620.64 476.04 619.75 475.76 619.59 475.75 614.84 480.5 614.31 481.9 613.99 483.62 614.09 484.64 614.15 484.72 623.96 474.91 623.92 474.91" style="fill:#fff"/><polygon points="650.85 452.65 651.37 452.93 652.04 452.96 652.81 452.82 653.42 452.89 653.78 453.09 703.1 403.78 701.5 402.76 700.98 402.36 650.76 452.58 650.85 452.65" style="fill:#fff"/><polygon points="634.59 472.2 633.63 471.92 633.08 471.99 631.99 472.27 631.57 472.3 631.16 472.18 616.29 487.05 616.72 488.49 617.24 489.24 617.33 489.54 634.64 472.23 634.59 472.2" style="fill:#fff"/><polygon points="645.13 468.43 642.12 469.22 616.4 494.94 616.43 495.21 616.79 496.61 617.04 497.06 617.51 497.36 649.07 465.8 645.13 468.43" style="fill:#fff"/><polygon points="656.8 455.46 657.15 456.25 657.18 457.11 657.02 457.85 707.99 406.88 705.83 405.51 656.33 455.01 656.8 455.46" style="fill:#fff"/><polygon points="617.72 502.61 618.23 502.48 618.39 501.65 618.39 500.97 618.4 500.94 616.75 502.58 617.01 502.54 617.72 502.61" style="fill:#fff"/><polygon points="614.8 505.18 615.28 504.5 615.54 503.8 613.57 505.77 614.25 505.53 614.8 505.18" style="fill:#fff"/><polygon points="710.66 408.68 618.4 500.94 618.39 500.97 618.39 501.65 618.23 502.48 617.72 502.61 617.01 502.54 616.75 502.58 615.54 503.8 615.28 504.5 614.8 505.18 614.25 505.53 613.57 505.77 609.86 509.49 608.08 512.52 607.37 513.11 605.8 514.03 605.32 514.58 606.12 516.6 606.19 516.69 712.63 410.25 710.66 408.68" style="fill:#fff"/><polygon points="714.74 412.6 608.24 519.1 609.86 521.02 716.52 414.36 714.74 412.6" style="fill:#fff"/><polygon points="718.58 416.76 611.9 523.44 613.52 525.35 720.19 418.68 718.58 416.76" style="fill:#fff"/><polygon points="723.25 422.34 722.23 421.11 615.57 527.77 617.19 529.69 723.95 422.92 723.25 422.34" style="fill:#fff"/><polygon points="727.01 426.49 726.17 425.17 619.24 532.1 620.86 534.01 727.59 427.29 727.01 426.49" style="fill:#fff"/><polygon points="731.74 430.3 730.58 429.85 729.94 429.81 729.84 430.36 730.32 431.6 730.16 431.91 729.39 430.74 729.14 430.2 622.91 536.43 624.53 538.34 732.19 430.69 731.74 430.3" style="fill:#fff"/><polygon points="735.18 434.34 734.4 433.11 734.33 433.01 626.58 540.76 628.2 542.68 735.67 435.2 735.18 434.34" style="fill:#fff"/><polygon points="738.1 438.73 737.51 437.83 630.25 545.09 631.88 547 739.1 439.78 738.1 438.73" style="fill:#fff"/><polygon points="742.63 444.15 741.8 442.61 741.28 442.06 633.94 549.4 635.59 551.29 742.65 444.23 742.63 444.15" style="fill:#fff"/><polygon points="742.6 449.26 742.66 448.68 639.89 551.45 642.08 551.61 642.63 551.72 642.99 551.89 742.7 452.17 742.6 449.26" style="fill:#fff"/><polygon points="650.82 552.02 650.78 552.1 651.2 551.68 651.17 551.68 650.82 552.02" style="fill:#fff"/><polygon points="742.68 456.66 647 552.34 647.54 552.26 648.47 552.43 648.83 552.71 649.15 553.05 649.47 553.33 649.55 553.33 650.78 552.1 650.82 552.02 651.17 551.68 651.2 551.68 742.05 460.82 742.68 456.66" style="fill:#fff"/><polygon points="736.62 472.27 736.72 471.2 737.05 470.29 654.96 552.38 655.25 552.37 656.15 551.72 658.02 549.66 658.92 549.21 660.88 548.66 661.49 548.87 661.63 549.25 736.68 474.2 736.62 472.27" style="fill:#fff"/><polygon points="736.08 479.26 665.03 550.31 665.12 550.45 666.06 552.81 736.08 482.8 736.08 479.26" style="fill:#fff"/><polygon points="735.88 490.85 735.24 490.58 735.05 490.71 734.95 491.02 734.79 491.23 734.31 491.54 732.86 492.94 732.73 492.74 732.54 492.63 735.66 487.87 735.74 487.6 667.88 555.46 668.3 555.8 670.02 556.86 736 490.87 735.88 490.85" style="fill:#fff"/><polygon points="736.72 494.69 736.71 494.63 671.59 559.75 670.9 562.24 670.88 564 737.82 497.05 736.72 494.69" style="fill:#fff"/><polygon points="738 501.38 738 501.34 669.96 569.38 669.91 570.51 669.27 572.74 669.34 573.54 737.62 505.26 738 501.38" style="fill:#fff"/><polygon points="665.89 582.4 666.34 582.23 666.76 581.79 666.92 581.31 666.98 580.83 667.11 580.24 667.12 580.22 664.89 582.45 664.96 582.44 665.89 582.4" style="fill:#fff"/><polygon points="738 510.88 737.88 510.36 737.61 509.73 667.12 580.22 667.11 580.24 666.98 580.83 666.92 581.31 666.76 581.79 666.34 582.23 665.89 582.4 664.96 582.44 664.89 582.45 663.27 584.07 663.16 584.87 663.38 585.8 663.9 586.55 664.17 586.71 738 512.87 738 510.88" style="fill:#fff"/><polygon points="735.88 520.92 736.08 519.79 736.48 518.86 667.84 587.5 668.27 587.62 669.01 587.41 669.91 587.24 671.03 587.65 671.2 587.68 736 522.87 735.88 520.92" style="fill:#fff"/><polygon points="725.12 541.26 724.44 541.57 724.09 542.59 723.89 542.98 725.65 541.23 725.12 541.26" style="fill:#fff"/><polygon points="724.09 542.59 724.44 541.57 725.12 541.26 725.65 541.23 735.74 531.13 735.79 530.76 735.76 527.58 674.88 588.46 674.89 588.47 675.34 588.44 676.24 587.96 676.85 587.96 677.04 588.16 676.91 588.78 677.11 589.09 677.3 589.16 677.72 589.16 723.89 542.98 724.09 542.59" style="fill:#fff"/><polygon points="731.1 540.47 732.25 540.13 733.05 539.23 733.92 537.42 730.83 540.51 731.1 540.47" style="fill:#fff"/><polygon points="725.41 549.25 724.15 547.19 681.14 590.2 683.18 591.42 683.31 591.56 725.52 549.36 725.41 549.25" style="fill:#fff"/><polygon points="726.18 554.22 726.2 553.14 685.56 593.78 685.56 594 685.27 595.2 683.66 596.98 683.15 597.9 683.25 598.14 683.73 598.69 683.82 599.03 683.82 599.06 725.72 557.15 726.18 554.22" style="fill:#fff"/><polygon points="725.15 563.51 725.09 562.25 683.83 603.51 684.5 604.04 686.24 604.64 725.74 565.14 725.15 563.51" style="fill:#fff"/><polygon points="726.64 568.7 686.82 608.52 687.13 609.05 688.49 610.38 727.14 571.73 726.64 568.7" style="fill:#fff"/><polygon points="730.93 574.83 730.26 574.04 728.89 574.45 689.84 613.5 689.83 613.75 690.12 613.95 690.57 613.92 692.08 614.19 692.52 614.36 731.2 575.67 730.93 574.83" style="fill:#fff"/><polygon points="684.14 628.66 685.21 628.18 685.62 627.84 685.91 627.26 685.91 626.81 685.88 626.36 685.91 625.78 686.07 625.27 680.02 631.32 682.35 630.45 684.14 628.66" style="fill:#fff"/><polygon points="689.74 622.18 689.87 621.5 689.86 621.48 688 623.34 688.8 622.97 689.74 622.18" style="fill:#fff"/><polygon points="733.22 579.32 732.73 578.61 689.86 621.48 689.87 621.5 689.74 622.18 688.8 622.97 688 623.34 686.07 625.27 685.91 625.78 685.88 626.36 685.91 626.81 685.91 627.26 685.62 627.84 685.21 628.18 684.14 628.66 682.35 630.45 680.02 631.32 677.32 634.02 677.3 634.73 678.04 635.83 678.48 636.39 734.33 580.54 733.22 579.32" style="fill:#fff"/><polygon points="737.23 583.98 736.52 582.82 678.34 641 678.33 641.11 679.13 640.8 678.94 643.2 679 643.54 679.1 643.77 738 584.87 737.23 583.98" style="fill:#fff"/><polygon points="742.38 588.47 741.96 587.41 741.38 586.93 741.22 586.76 740.87 586.47 675.46 651.88 675.37 652.01 675.05 652.32 674.79 652.7 674.79 653.35 674.92 653.69 675.31 654.14 675.44 654.48 675.31 654.69 674.73 654.79 674.57 654.93 674.63 655.2 674.99 655.75 675 655.88 742.38 588.5 742.38 588.47" style="fill:#fff"/><polygon points="741.83 596.77 742.92 595.54 743.15 595.02 742.95 592.39 672.2 663.14 672.29 664.43 672.16 665.49 671.78 667.09 741.7 597.17 741.83 596.77" style="fill:#fff"/><polygon points="737.14 609.66 737.16 609.72 737.64 609.23 737.43 609.32 737.14 609.66" style="fill:#fff"/><polygon points="737.14 609.66 737.43 609.32 737.64 609.23 742.34 604.53 742.63 603.84 742.79 602.94 742.83 601.88 742.63 600.82 742.6 600.74 671.09 672.25 670.95 675.93 737.16 609.72 737.14 609.66" style="fill:#fff"/><polygon points="743.79 611 743.82 611.06 744 610.87 743.95 610.9 743.79 611" style="fill:#fff"/><polygon points="743.79 611 743.95 610.9 744 610.87 744.05 610.83 744.14 610.69 743.15 610.32 742.44 610.9 741.38 610.97 740.57 610.77 671.56 679.78 672.51 681.81 672.51 682.09 672.35 682.52 743.82 611.06 743.79 611" style="fill:#fff"/><polygon points="745.62 616.45 745.43 616.01 745.36 615.49 744.92 614.42 673.77 685.57 673.89 686.3 674.69 688.18 746.04 616.84 745.62 616.45" style="fill:#fff"/><polygon points="745.81 625.06 745.82 625.06 745.81 625.06 745.81 625.06" style="fill:#fff"/><polygon points="745.81 625.06 745.82 625.06 747.29 623.58 747.84 622.08 748 621.32 747.81 620.36 747.52 619.82 675.5 691.84 675.5 692.3 675.02 693.13 674.95 693.57 675.44 694.53 675.95 694.92 745.81 625.06 745.81 625.06" style="fill:#fff"/><polygon points="749.28 628.9 747.83 627.51 678.67 696.67 679.65 697.55 680.22 697.89 680.64 698 680.88 698 749.33 629.54 749.28 628.9" style="fill:#fff"/><polygon points="751.05 633.74 750.89 633.33 750.6 633.09 750.37 632.97 683.06 700.28 683.08 701.05 682.83 703 682.85 704.03 751.33 635.54 751.05 633.74" style="fill:#fff"/><polygon points="752.24 641.45 751.93 639.41 682.48 708.86 682.54 709.45 683.08 710.48 683.21 711.03 683.18 711.44 683.06 711.81 752.56 642.31 752.24 641.45" style="fill:#fff"/><polygon points="752.82 649.51 753.01 648.82 753.4 646.8 753.3 646.39 753.41 645.93 681.9 717.44 681.99 718.43 682.22 719.46 682.63 720.01 682.85 720.02 752.32 650.56 752.82 649.51" style="fill:#fff"/><polygon points="751.53 656.71 751.08 656.26 686.81 720.53 687.07 720.59 687.36 720.52 687.49 720.59 687.52 721.21 686.55 723.23 685.78 724.3 685.88 724.71 686.01 724.86 753.01 657.87 751.53 656.71" style="fill:#fff"/><polygon points="757.29 660.83 756.64 660.14 756.23 659.59 755.93 659.41 688.7 726.64 689.29 726.59 690.09 726.35 690.96 726.22 691.95 726.56 692.14 726.73 757.46 661.41 757.29 660.83" style="fill:#fff"/><polygon points="754.72 671.49 754.72 671.15 754.97 670.08 755.07 669.81 755.33 669.64 756.07 669.53 756.35 669.43 756.71 668.85 756.84 668.16 756.8 667.41 756.67 666.69 756.67 666.67 694.01 729.33 694.24 729.71 695.01 730.81 695.58 731.29 755.23 671.65 754.72 671.49" style="fill:#fff"/><polygon points="754.23 677.49 755.13 676.46 755.57 675.77 753.92 677.42 754.23 677.49" style="fill:#fff"/><polygon points="752.08 682.26 752.3 679.03 697.55 733.78 697.84 734.31 698.25 734.86 698.48 734.96 699.06 734.99 699.31 735.13 699.46 735.41 751.96 682.92 752.08 682.26" style="fill:#fff"/><polygon points="748.32 694.12 748.87 692.82 748.96 692.1 748.8 691.34 748.55 690.79 702.37 736.97 702.49 737.15 702.59 738.08 702.78 738.94 703.49 739.38 748.3 694.58 748.32 694.12" style="fill:#fff"/><polygon points="750.89 688.63 751.28 688.06 750.49 688.85 750.89 688.63" style="fill:#fff"/><polygon points="745.72 704.65 745.85 703.89 746.17 703 746.68 702.21 747.36 701.73 747.36 702.52 747.58 702.87 747.93 702.83 748.29 702.42 748.45 701.84 748.61 699.68 748.9 700.12 748.96 700.33 749.35 699.81 749.93 698.3 750.25 697.79 751.21 696.9 751.66 696.08 751.66 695.68 705 742.33 705.03 742.4 705.64 743.26 706.45 743.74 706.96 743.91 745.8 705.08 745.72 704.65" style="fill:#fff"/><polygon points="740.29 715.45 740.22 715.17 740.18 715.15 710.4 744.94 713.37 745.5 740.07 718.81 740.29 715.45" style="fill:#fff"/><polygon points="730.23 736.5 730.11 736.76 730.88 735.99 730.49 736.06 730.23 736.5" style="fill:#fff"/><polygon points="727.34 739.28 727.05 739.83 727.91 738.97 727.72 739.01 727.34 739.28" style="fill:#fff"/><polygon points="727.34 739.28 727.72 739.01 727.91 738.97 730.11 736.76 730.23 736.5 730.49 736.06 730.88 735.99 736.08 730.8 736.08 730.4 735.98 729.47 736.14 728.62 737.14 727.35 737.68 726.22 737.91 725.87 738.04 725.7 738.16 725.57 738.87 725.12 739.13 724.91 739.45 724.47 739.45 724.23 739.33 724.01 717.13 746.21 717.31 746.24 719.14 747.03 719.4 747.13 719.62 747.26 727.05 739.83 727.34 739.28" style="fill:#fff"/><polygon points="727.56 747.2 727.69 747 728.43 745.76 728.3 744.49 727.83 743.51 721.87 749.47 721.97 749.64 722.23 750.7 722.61 751.76 722.88 751.99 727.52 747.36 727.56 747.2" style="fill:#fff"/><polygon points="726.49 752.85 726.03 753.31 726.47 753.27 726.49 752.85" style="fill:#fff"/></svg>