<svg xmlns="http://www.w3.org/2000/svg" viewBox="0 0 800 800"><path d="M336.2,457.14l.09-.67L336,456l-.45-.38-.26-.45.47-.6-.21-.7-.44-.73-.15-.74.36-.63,1.82-1.85.62-.92.12-.51-.36-.42-2.62-2.13-.69-.38-.51-.42-.35-.51-.18-.63.06-.7-.27-.77,0-.63.42-.42.8-.09,1.26-.39.71-.22.72-.09,1.19.22.66-.06.51-.51,0-.51-.41-.86v-.48l.21-.35.59-.51.27-.26.48-.73.24-.89.09-1.56.15-.44.41-.42.27.13.21.22.27-.06.15-.32.33-2.23,0-.73-.27-.67-.66-.73-1.94-1.56-.5-.61-.3-.86-.09-1.81-.06-.19-.15-.39-.75-.22-1.88.32-.8-.51-.21-.86,0-1.11-.12-1-.6-.32-.3.19h-.26l-.18-.19-.15-.38-.24-.57-.21,0-.21.15-.27.1-.86-.25-.3,0-.45.32-.27.44-.3.19-.53-.38-2.33-4.39-.57-.54-1.64-.9-.75-.6-.41-.67-.18-.73-.21-2-.18-.7-.45-.51L320.51,407l-.51-.7.06-1,1.1-2.58.48-.51.54-.13.44.13.42.19.39.1.36-.13,3-2.07.78-.32,1.64-.32.65-.31.66-.8,1.2-2.26.62-.61.54-.66-.06-.42-.3-.38-.21-.54.06-.83v-.1l.09-.54-.18-.22h-.86l-2.42.67-1.28.16-1.2-.38-1-1-1.61-2.2-1.14-.79-.68-.19-.6-.13-.6-.16-.65-.45-.57-.51-.24-.38-.12-.16-.27-.6-.44-2.58-.39-.61-.84-.63-.8-.45-.12,0-.63-.22-1.7-.19-1.49.06-.57-.1-.45-.31-.12-.32-.15-1.08-.2-.48-.27-.26-1.08-.63-.74-.64-.42-.61-.54-1.3-.15,0-.27.16-.29.13-.18-.16v-.26l.12-.22.11-.13.06-.16.18-1.56-.12-1.94-.74-1.24-1,0-.92,1.65-.18.8-.48.51-1.19.79-.21.39v.35l-.09.38,0,0-.39.32-.45.19-.29,0-.12-.22v-.51l-1.32.22-.95-.79-.69-1.28-.59-1.88-.06-.54L298,368l-.18-.54-.66-.32-.57-.06-.89-.35-.84-.54-1-1.15-.39-1-.24-1.14-.06-12.77,0-1.05-.39-.8-1.19,1.21-1-.35-.75-.13-.84-.31-.74-.42-.39-.32-.12-.47-.21-.45-.71-1.53,0-.22.26-.51,0-.29-.44-.83-2.09-2.07-1.32-2.29-.23-.73,0-.48.35-.76,0-.45-.15-.28-.62-.67-.21-.32-.12-.61.06-.47-.09-.42-.54-.22-.53,0-.24.29-.09.41-.21.38-.63.7-.51.32-.62-.06-1-.54-7.25-6.56L267,324l-.92-1-2.84-3.88-1.13-1.15-1.4-1-2.3-1.05-.51-.44-.42-.77-.53-1.85-.42-.76-1-1.4-1.13-2.26-1.7-1.63-.48-1.62.54-3.66-.12-.26-.6-1.27-1-.6-.3-.32-.15-.48-.18-1.08-.21-.54-.39-.39-.74-.44-.36-.32-.72-1.69-.18-.16-.5-.12-.18-.16,0-.13.09-.19.09-.22v-.32l-.36-1.31-.27-.41-.66-.58-.89-.38-.93-.06-.77.38-.27.45-.18,1.05-.18.35-.42.28-.12-.06-.09-.19-.32-.19-.69-.19-.81-.35-.68-.51-.48-.7,0-.54.3-1.18-.09-.51-.27-.54-.21,0-.21.15-1.13.13-.48.07-.45-.16-.29-.26-.39-.76-.24-.32-2.12-1.4-.42-.64,0-1,.27-.63,0-.61-.75-.83-1.37-1.05-1-1-.48-1.33.24-2,.66-2.64.56-1.43.63-.86.54-.1.5.19.45-.06.33-.83v-.73l-.3-.42-1-.66-1.23-2.2-.53-.16-.51.06-.51.13-.54.06-1.07-.41-2.18-1.34-.71-.16-.75.23-.84,0-.77-.22-.45-.48-.45-1.21-1.13-.35-2.51.19-.62-.07-1.68-.54-1.79-.25-.5-.22-.33-.29-.51-.83-.24-.25-.45-.16-.83-.07-.45-.16-.66-.47L209.08,258l-.63-.51-1.46-.86-.5-.48L205,253.74l-.53-.57-.72-.45-.84-.25-1.34.16-.77-.19-.54-.45L199,250l-.75-.71-.69-.35-.74-.25-.84-.38-.68-.58-.57-.63-.63-.51-.89-.22-1.26.38-.38-.42v-.86l-.15-1-.45-.45-1.76-1.27-4.84-2.29-.89-.23-.93.07-.92.41h0l-1.31-1-1.08-.6-.33-.26-.21-.31-.56-1.15-.72-.1h-.77l-.45-.19.36-.86.56-.44,1.58-.73.66-.55.87-1.36.5-.45.93-.26,1-.54,1-.38.65-.06.12.16,0,0,.33-.67.15-.48.18-1.12.3-.51.42-.28.47-.1.39-.22.18-.57-.51-.67-.15-.8-.06-.83-.26-.79-.51-.42-1.34-.86-.51-.7-.87-2.51-.12-.61.27-.76.39-.19.51.16,2.09,1.11.83.32.9-.16.35-.29.3-.73.3-.32.21-.22,1,0,1.85-.51,1.25-.35.57.51,1.52.54.8,1.4,2-1.37.78-.19.89.1.51.41.42.61.6.63.35.26,1.11.51,2.47,1.56.75.16,1-.1.39-.19.66-.48.42-.13.36.1.74.48.42-.07.39-.51,1.37-3.85.36-.64.56-.66.69-.51.54-.16.59-.07.84-.28,1-1,1.05-.51.86-.67.45-1.53.09-.79,0-.45-.3-.28-.83-.29-1.29-.06-.23-.29.26-.89.84-1.09,2.39-1.49,1-.8.39-.67.09-.41.21-.26.83-.12,1.29.16.56-.1.45-.38.15-.16.18-.67-.09-.6-.12-.58-.09-.89-.12-.44v-.29L224,200l.63-.13.12-.19-.33-.76-1.67-1.15-.6-.92-.06-1.08.24-.51,0-.38-3.88-2.2-1.76.09-2,.7-1.85.39-1.49-.77-.18-.63,0-1,.06-1,.18-.64.36-.28h.35l.33-.1.3-.67,0-.41-.06-.57-.12-.54-.18-.42-.62-.51-1.67-.67-.69-.54-1-1.46-.59-.35-6.24.16L199.8,183l-1.37-.92.3-.9,2.47-1.81.93-1.88,1.07.89,1.17.19,1.07-.35,1-.79,2.8-4,.3-1.14.06-.19-.63-.67-2.47-.89-2.24-1.15-.75-.76-.42-1.53-.56-.67-.9-.13-1,0-.87-.28-.33-.35-.35-.83-.24-.38-.33-.23-.69-.28-.36-.26-.56-.7-.72-1.5-.51-.73-.33-.32-.38-.25-.45-.22-.39-.16-.42,0-1,.29-.3,0-.15-.26-.45-1-.26-.39-.3-.22-1.26-.48-.47-.06-1,0-.42-.07-.35-.19-.66-.51-.3-.19-1.55.13-2,2.45-1.61.29h-.51l-.42.09-.89.42-3.19,1.08-.36.22-.66.64-.39.22-.42,0-.89-.12-.48.16-.45.54-.44.89-.36,1-.15.79.09,1,.15.48-.18.32-.9.6-.53.19-.36,0-.27.19-.21.64,0,.48.45.92,0,.42L170,171l-.45.25-.53.19-.39.07-.48-.1-.21-.09-.12-.23-1-.86-1.7-1.91-.84-.51-2.72-.6v0h-.41l-.39-.13-.36-.19-.33-.29-.47-.6-.78-1.63-.54-.57-.59-.22-.24.13-.12.28-.33.32-.87.51-.09,0-1.1.32h-.24l-.48-.06-1.19-.42-2.48-1.4-.71-.22-.39.06-.54.16-.3.1h-.5l-.45-.16-.57-.45-.39-.22-.41-.1-.81-.12-.45-.23-.29-.19-.63-.67-1.25-1.62-.81-1.43-1.34-3.12-1-2.2-.68-.8-1.08-.51-.66.1-.32-.16-.21-.35-.21-.41-.3-.86-.42-1.88v0l-.5-.83-.42-.26-.39,0-.3-.09-.24-.48v-.48l.36-1,.06-.45-.21-.57-.45-.54-.56-.42-.63-.25-1,0-.81.09-.36-.22.51-.93.72-.57,1.46-.38.53-.57.15-.83.06-2.23.18-1,1.43-2.45.06-.54-.59-.13-.87.42-.86.57-.66.32,2-3.38,1-.89,1.62-2.13.89-.89,0-.13v-.29l0-.13-.45-1.08-.15-1.18.06-3.34-.09-.57-.17-.51-.36-.64-.21-.09-.27.19-3.13,1.43-.78.06L132,120l-.15-.92.12-2-.35-2.23-.87-.73-.78.77-.09,3.91-.53,1.56-1,1.34-1.34.92-.48.13-2.29,0-.18.1-.12-.07-.33-.51-.27-.76-.21-1.08-.09-1.12.21-2.86-.42-2L121.32,111,120,109.79l-1.94-.67-1.64-.89-.51-1.85,0-.19L116,106l.09-.16.12-.16.39-.6-.66-.61-1.1-.66-.9-.71-.3-.57-.42-1.21-.29-.51-.39-.41-1.38-.86L108,96.38,105.42,95l-.84-.83-.27-1-.63-.64-.77-.54-.63-.73-.06-.32.15-.57v-.26l-.15-.22-.39-.29-.11-.19-.42-1.53-.27-.5-.3-.67.45-.64.77-.51.78-.22,1,.22.75.41.63.1.59-.76.21-.83.27-1.66.45-.89,5.4-5.89.33-.64-.09-.09-.15-.42-.27-.31-.42-.29-.29-.35,0-.54.29-.38.48,0,.51,0,.45-.16.53-.64.33-.8.45-1.72.75-1,1.1-.16,1.16.41.93.73.48.93.09.89.29.6,1,0,.33-.23.21-.38.23-.32.48-.09.18.16.66.76.27.25.86.32,1.76.35.9.39,2.56,2.19.84.38,1.85.45.8.45.57.7.36.82.27.86,1.49,3.09.39.51.74.38,1.62.48,1.43,1.08.86.35h.87l.68-.5.18-.8-.18-.8,0-.67.63-.41.69-.13.74-.35,2.21-1.59.15-.38,0-.51-.54-.67-.11-.41.53-1.44,1.17-1,2.59-1.43.72-.61.33-.51.77-2.16,1.73-3.19.51-.12,1,.38.56.32.51.44.45.51.38.57.6.35.12.7-.09.83.09.89.3.67,1.58,2.77,1.13,1.31.54.38.78.13.48-.29L163,75.31l.21-.48,0-.38-.24-2.07.12-.48.92-1.18.36-.76.27-.74.3-.6.62-.41,1.88-1.12.48.29,3,3.76,2.95,2.8.48.57.18.45.89,1.43.27.32.36.16,1,1.17.24.1.72.1.24.09.35.54.63,1.24.36.23.69.19.44.38.36.48.63-.42.51-.57.09-.64-.09-.7V78.3l.2-.73.57-1.47.18-.73.3-3,.42-1.37.92-1.28.39-.41.54-1,.3-.44.59-.42.54-.16,1.28-.12,3.7-1.37,1.23,0-.36,1-.18,1.06,0,1,.3,1,.56.67L196,71.71l.9.6.65.29.69-.1.27-.19,3.79-2.58.86-1L206,66.33l.8-.89.09-.16.39.09v.22l-.06.26.15.22.27.19.18.19.21.16.38.1.27-.1.42-.54.24-.16.84.13,1.49.48.86-.07.78-.28.63-.45.56-.6L216,62.89l.48-.54L218.66,61l.18-.51,0-1-1.28-6.43.59-.51,1.08-.19,1.1-1,.18-.7.06-.76.12-.7.48-.42.59.07,1.17.73.59.06.45-.25,1.58-1.5,1.5-.82,1.34-1,.62-.26,3.56-1.05.14-.16.09-.19.12-.19.24-.09.12,0,.3.25.15.07.33.09.27.16.29.1.51-.07.72-.57.27-.8.18-.92.35-.95.42-.51,1.49-1.41.6-.38.81,0,.35.58.18.86.36.92.51.67L242,43l.69.47.6.32h.42l.32-.13.36,0,.48.26.24.25.57,1.12.89,1.94.39.54L248.89,49l.18.25.3.35.29,1v2.07l.21.92.51.76.63.29,3.1.13,1.22.38,1.11,0,.45.32.83.89.51.25.51.16.5.26.48.51.6,1,2.44,2.87.81.63.36-.16.18-.35.15-.41.26-.25.48-.07.72.22.42,0,1.4-.16.68-.23.57-.38.69-1.49.42-.23,3.4-.28,2.38.28,1.68.45,1.4.92.89,1.72.18,1.78.3.58.93.47.92.16h.87l.83-.12,6.21-1.72.69-.42.17-1.08.45-.29.57.16.69.32,2.17.57.66.42.45.7.3.8.5.57,1,.16.33-.19.35-.64.39-.16.45.13.3.28.48.64,1.31,1.08L301.8,67l0,.12.65,0,1-.1.92.1.39.63-.33.58-1.43.89-.51.48-.3.86L302,72.15l-.38.9-1,1.52-.33.77-.74,2.51-.54.51h-.95l-.69-.54-.48-.86-.51-.6-.86.09-.48.61-.36,1-1,5-.21.41-.48.73-.15.54v.51l.27,1.18.06.29.09,1.81.24.77.57.63,1,.35,1.73.1.72.64.27.63,1,3.57-.12.51-.39.38-.5.7.12.73.26.54.33.48.21.57v.35l-.12.8v.38l.12.29.39.48.09.19,0,1.3-.21,1.12-.87,2.32v.42l.06.44.15.45.27.28.69,0,.65-.54,1.41-1.66.3-.06.59.22.24.19.36.51.21.22.89.48.75.13,1.82-.07,1,.29.54.51.39.7.57.76.95.51.75-.16.68-.41.78-.35.89,0,.78.38.48.7,0,1-.42.83-.63.7-.44.8.09,1,.59.67.93.32,1.82.42,1.28.79L321,120l1.73.48,1.38-.48,1.25-.16,1.34,1.47,1.17,3.53.14.16.66.64,1.49-.93,1.2-1.3.68-.32.87.26.51.73.15,1.72.56.28.78.32.42.13.38,0,.36-.26.36-.79.3-.26.77-.09,1.82.25h.9l2.54-.6.8-.32,1.73-1.34.66-.29.66,0,.77.13,1.49.38.9.42.33.47.21.61.47.83.54.54,1.22,1,1.53,1.72.56.16,2.06,2.2-.92.48-.93,1-.83.61-.6-.76,0-.48.21-.32.24-.22.12-.16,0-.38-.12-.26-.12-.22-.06-.13-.15-.7-.39-.45-.57-.25-.65-.13.09.35-.06.23-.33.44h-.27l-.27-.83-.3.45-.33,1.37-.53.22-.3-.32-.12-.67,0-.86h-.27l-.33.29v.35l.18.19.06.16.09.64H349l-.27-.67-.29.35-.18-1-.54-.25-.75.19-.62.35v.32H347l.54.19.36.41.18.7-.6-.28.09.32.12.7.12.32h-.48l-.36.12-.24.26-.14.28.29.29-.71,1.34-.81,0-.39.06-.17.16-.27.41-.57,0-.63-.25-.33-.38h-.32l-.12.22-.15.16v.29l.3.6-.27.35-.57.07-.66-.32.09.25v.13l0,.06.18.19v.35l-.36.23-.11.19.11.25.36.32-.27.06-.62.29.18.1.06,0v0l.09.22-.21-.1-.72-.22-.18,1.21-.21.57-.36.23-.74,0-.51-.16-.36-.32-.29-.51-.18-.57-.12-.51-.21-.39-.57-.16v.2l.15.47.15.58-.18.38v.38l.54.26-.48.15-1,0-.89-.16h-.09l-.42-.13-.48-.25-.2-.45-.24-.1-1.55-.41-.27.67.3.32,1.16.7v.32l-.84.38-1.4,0-1,.35v.31l.24.39-.09.25-.27.29-.18.41-.09,1.75-.18.58.33.28.39.19.38,0,.36-.2-.24,2.2-.3,1.15-.65.67.24.41.06.29-.18.16-.39.12.15.7.09.74.18.6.45.32v.29l-.72.6-.45.26-.6.19-1,0-.81,0-.56.26-.57-.23-.92,0-.93.26-.54.29.21.09.15.1.18.09h.33v.35l-.72.19-.95,1.09.18.73-.66.06-.48.16-.44,0-.51-.25v.35l-.69-.7-2.12-.32-.8-.35v-.29l1.25-1.75,2.36-1.59v-.35l-.57.06-.57.1-.53.22-.42.26-.21.31-.06.36-.12.28-.39.1-.15-.16,0-.35.18-.35.09-.19-.18-.13,0,0-.09-.13-.32.8-.42.38-.24-.22.09-1h-.3l0,.51,0,.45-.12.38-.18.32,0-.7-.09-.55-.3-.35-.53-.06v.29l.18.16.23.31.18.23h-.59l.59.67-.59,0-.42-.19-.78-.79-.12.67,1.11,1,.21.67-.39.73-.69.32-.8.07-.81-.07-.74-.16-.66-.25-.54-.32-.45-.32-1.07-1L308,155l-.27.51-.15-.25-.14-.07-.3,0,1.28,1.52.54.48.92.48.24.16.18.32.09.41.18.38.48.23v.31h-1.14l-.68-.19-.45-.51-.42-.95H308l.06.44.12.35.18.32.24.23-.87,1.33-.35-.32-.33-1-.84-.7.15-.26,0-.06-.12-.35h-.3l-.86.29-1-.51-.44-.74.68-.35.81-.06.45-.16.14-.32-.06-.51-.26-.22-.48-.19-.15-.35.6-.54-.3-.32-.33-.26-.39-.12h-.45l.09.16.09.38.12.16-1-.1-.72-.44-.65-.26-.9.45v.35h.33v.35l-1.64-.7-1-.23-.71.23.38.12h.09l1.32.58v.32l-.3-.13-.9-.19v.32l.42.44.18.51.06.51.24.51.45.29,1.1.06,1,.45h.54l.39.19.18.86-.09.63-.42.64-.12.57h-.27l-.89-1-.78,1,.33.58.84.47.77.61.36,1.11-.15,1.05-.57.45-.8-.64.3.86.59,1,.75.92.75.58.26-.35.42.76.75,2.58-.9-.73-.39-.42-.14-.32-.24-.28-.51.22-.48.35-.15.19-.39.07-.29.12-.36.13h-.57l-1.25-.35-.57,0v.32l1.08.48.68.48v.57l-.86.8-.6.35-.66.25-.74.13-.72-.07-.36-.28-.62-1-.51-.38.27.73,0,.07.27.41.62.76.24.19.21,0,.12.13.06.51,0,.29-.12.25-.15.22-.72.29-1,.92-2.78,1.18.75.45.66,0,1.25-.7v.28l-.54.77.33.7.42.7-.21.86-.27.06-1.22.48-.12.09-.24.16-.33.39-.3.44-.18.38h.27l.57-.44,1-.42,1-.12.42.44-.15,2.1-.3,1.12-.48.67-.21-.48-.06-.22V185l0,.09-.12.07-.14,0,.77.83.09.42.18.6.06.77.15.92.18,1.34-.48.54-1-1.09-.42-.6-.57-.48-.69-.22-.74.25h-.27l.21.39.09.16.33.12.35-.19.18-.48,1,.83.21.22.12.45.44.8.27.7-.12.7-.65.35-.6-.07-.51.19-1,.26-1.4.1-.57.15-2.84.35v-.35h.3v-.31l-.3,0-.21.06-.41.22v.35l.33.35-.3.26-.93.38-.3.35-.56,1.31-1.53,2-.92.67-1.07,1.63-1,.63-1,1.31-.66.41.42-1.08.18-.26-.33-.35-.33.67-.51,1.47-.36.54-.65.38-1.61.45-.72.47-.27-.73.15-.76.27-.83.15-1h-.3l-.15.8-.65,2.1-.24.41-.63-.15-.72-.42-.59-.54-.3-.54H271l-.24.64-.51.6-1.91,1.85-.38.47-.27.74v.47l.33.74v.47l-.93,1.34-.15.7v1.37l-.15.57-.12-.19-.47-.47-.27.51-.63.44-1.19.7.3.35.56-.28,1.26-.13.56-.29-.24.64-.77,1.11-.18.77-.27.32-.63,0-.59.07-.3.63-.18.77-1,1.62-.32.77-.09.76v1.34l-.21.54-.06-1.08-.6-.13-.57.44,0,.77L261,223l.3-.41.12-.29.21.45.12.47,0,.51,0,.23.21,0v1.81l-.48,3.66.21,1.82-.63-.38-.59,1.33-.6-.31v.31l.48.42.21.57.2,1.34.81,1.62.12.7-.93-.67.09.48.21.54.33-.12.21.12-.09.93-.12.28,0,.1-.36.25-.38,0-.33.09-.39,1.37-.54,0-.6-.09-.11.28-.54,3-.06,1.76.33,1.24-1.11.54-.41.32-.3.44-1.17-.41-1.07,1.18-.84,1.78-.44,1.43-.06.64.23.45.12.38,0,.67.33,1.52.24.61.57.83.95.86,1.08.67.95.31v.29l-.59.7-.18-.44-.27-.32-.33-.16-.45-.07.48,1.12.12.22.3.1.74-.07.33.13.93,1.05.47.73.24.7-.65,2,.2.32.39.41.06.89-.12,1-.18.64.84-.42v-1.14l-.15-2.9-.09-.19.84.57.26,1.37.06,1.4.18.64.3.54,1.05,3.44,2.32,4,1.56,1.85,1.49.09.12.89.3,1,.38.86.42.6,1,.8.32.35,1.65,2.2,2.29,2,.51.7.09.61-.81.19.42.35.75-.16.92-.32,1-.19.68.29,2.27,1.88.33.16.92.38.39.25L283,291.6l1.46,1.18.59.6.33.86h-.3l-.44-.28-.54.12-.51.38-.27.45.57.32.18-.16.15-.06.57-.1-.24.57.09.48.44.92v-.6l.12-.54.21-.48.24-.35.48-.25.27.12.3.16.47,0,.39-.25.81-1.09.53.23-.06.51-.47.92.24,1,.47,1,3.49,4.59.27.35v.29l-.89.6-.87.73-.44.61-.36.6-.48.42h-.84v.35l.48.13.18.28-.06.45-.3.48.39.89.39,1.37.42,2.45.2.54.9.92.12.35-.39.38-.48,0-1.28-.6-.6-1.12-.41-.25-.66-.13-1.58-.86-3-.32-.62-.32-.3.29.63.48,1,.41,1,.32,1.47.19,2.12.58V313h-.3l-.87-.35-.83.57-.15,1,1.25.76-.24-.57-.12-.23-.24-.19,1-.44,1.4.19,1.43.57,1,.67.45.6,1.07,2,1.16,1.44,2.12,3.78.51,1.53.36.8.18.06.86.73,0,.2.21.12.54.83,3.82,4.52,8,6.24,2.65,2.07,4.54,3.54.68,1.37-.27,2,.51.41,2.33,3.6.63.38.14.35-.14.23-.3.16-.33.22-.12.41-.27.19-1.55.93V354h1.1l.51-.1.51-.22.06-.22-.09-.36v-.28l.77-.61.39-.12.3.31.27.42.24.22.62.38,5.64,5.1,1.44,1.11,3.76,2.93,4.65,4.46,1.34.38v.38l-1.7-.54-5.34-3-1.31.25,3.31,2,1.08.25.47.2.39.66.45.13.51-.06.35-.29.33.51.42.35,1,.48v.38l-.47-.25-.12-.13h-.3l-.09.16-.09.16-.09.38.63,0,.59-.09,1.17-.26-.27.29-.21.32-.12.38,0,.44.15,0,.33.45.24.54-.09.19h.42l.2-.19.18-.29.21-.35.45-.25.27.28.18.45.18.35,1.67,1.21.42.45,1,1.68.81.58.92,1.33.87.39-.12.12-.21.13-.3,0-.27-.13-.3-.22-.3-.22-.44-.1-.09.42.53,2.67.24.48.51.38,1,.64h.3l.39-.29.39.07.27.35.15.51.38-.29.24.29,1.59-1.31.2-.32-.29-1.5,0-.44.65-.19,2,1.53.93.28L358,380l.21-.45.24-.41.54-.16,0,.28.42,1.66.36.83,1.43,2.48-1.26-1-.59-.22-.27.7.36.54.77.35.81.1.48-.16h.29l.78.38,1.1.25,1.2.1,1.1-.1-.18.26-.47.64-1.5,1.3-.53,1.08,0,1.37.71.77,1,.57.65.92.69-.7.36-.22.3.06.38,1.66.06.16-.21.7-.44.7-.57.54-.57.35.84-.25.8-.48.66-.19.39.6L368,392.5l-.33-.67,0-.7.3-.86,0-.7-1-.19V389l.36-.25.23-.32.18-.35.12-.38.33.15.06.1h0l.18-.25h.3l.39.41.5.41.63.35.75.13,0-.22.26-.45.3-.32.15.19.09.2.51.6-.51.45-.48.32-.35.35-.15.54-.42-.35-1.11.25-.59-.25-.3,1.75.27,1.88.62,1.68.12.29.51,1,.54.7,2.3,1.91.68.31.6.48.36.83-.48.1-.36.22-.09.25.33.1.24-.16.3-.32.33-.25.32.06.21.67.39,2.93,1.37,2.8,7.14,10.38,1.19.73,1.61-.19-.39,1.34-.3.32-.47-.67-.54.19-.66.32-.36.54.36.92,1,.8.68-.45,1-2h.27l.24.95.06,1.18.23.38,1.05.93.24.31.21.2.77.5.21.13.3.35.06.54,0,.58v.57l.27.54-.15.26-.06.16-.09.28h.3l.06-.28.27-.71.29.07h.36l.84-.07v-.31l-1.11-.19-.32-.83.29-1,.84-.61v-.31l-.27-.13-.12-.16-.24-.38.33.16.3.09.27-.06.3-.19.21.7.29,1.88.27.38.33.19,1.07.89.24.35-.09,1.78.24.61,1.11,1.08.53.35.36.1.57.06.27.13-.36.63-.45.45-.57.26-.71,0v.35l.42-.06.27.06.14.23.06.41-.62-.35-.18.54-.15,1.4-.21.7-.69-.32-.59,0-.24.35.33.57h.27l.32-.16.36.13.24.38v.64h.27V437l.06-.28.21-.58.42,4.21,1,3.72,2.74,6.69-.86.13.18.28,1,.42.18.41.9,1.4.27.29,1.64,2.29.24.67.38,2.26-.38-.19-.27-.29L404,458l.06.64.18,3.12.24.51.06.31-.09.2-.42,0-.24.51-.3.23-.15.31.27.61.27-.92.06-.39,1.46,4.27.75,1.11.21.64-.06,2.58.09.67.23.8.57,1.33,1.4,1.59.39.64.18.67.3,1.94-.45.77.63,1.62,1.46,2.52-.84-.1-.32-.45-.21-.6-.45-.51-1-.19-.09.73.5,1,1.35.79.44.74,1.2,3.4.59,5.29.39.67,1.14,1,.26.45-.29,3.72L414,502l-.36.16h-1.14l-.12-.51.27-2.77-.59-2.32-.36-.8-.54.51-.12.48-.18,1.78-.45.89-.06.35.51-.22.33,1.08.27.38.57.13-.48.54-.54.45-.42.6-.06,1,.54,1.05v.07l.09.35v1.3l.09.93.27,1,.42.8.56.35,0,.19.51.45.6.35.21,0,.15.44,0,.32-.24.16-.48.06v.32l.18.19.06.13.09.64-.39-.42-1-1.78-.47-1.18L410.56,508l-.32-.7h-.33l0,.76.24.32.35.19.36.35.21.51.18,1,.18.47.57.55.38.25,0,.29-.17.22-.15,0,.29.51.93,1.18h.33l.15-.29.18-.13.53-.25-.15.47-.38.55-.06.41.12.6.38.39.48.09.51-.28.21.51-.36.6.15.54-.45.89-.27.39-.48.35-.35-.51-1-.19-.18-.45.21-.32.45-.22.42-.29.12-.6-.27-.32-1.4-1-.42,0-.33.16-.3.41-.27.74.24.38-.12.35v.41l.45.45-.33.35-.15.48-.09.79.75.42.74,1.08.6.41.48-.47.36-.1.35.57.06.54-.15.35-.32.2-.48-.07v.32l.21.19.12.29,0,.35,0,.44-.24-.16-.48-.28-.21-.16-.21.41-.09,0-.32.16.59,1.63.39.67.57.63-.09-1.46.18-.57.47-.23v-.32l-.2-.35,0-.25.2,0,.27.28.15.42.09.44.06,1-.09.38-.51,1.08v.45l.3,1-.12.76-.21.73-.11.77.14.82.36.64.42.61.27.6-.15.45.57.38.35.38.9,1.72,1.16,1.37.87,1.46,1.82,2.27.3.5.09.74,0,.89-.15.79-.21.48-.21.1-.75.25-.23,0-.09-.32.21-.22.32-.19.15-.19.09-.19.15-.19,0-.2-.48-.06-.92.64-.12.25-.27.73-.21.29-.36.13-.38,0-.06,0-.3.07-.39.38.27.38.06.57,0,.67v.67l1.94,4,.68.8.66,0,.81.64.12.16-.12.38-.24.13-.3.09-.27.22-.09.7.15,2-.06.6-.48.29-.44-.54-.57-1.4-.15-.23-.21-.12-.15-.26-.09-.51.15-.06.75-.77v-.28l-.9-1.66-.09.45-.24.25-.35.07-.51-.1.18.41.06.39-.06.41-.18.41-.24-.47-.3-.32-.42-.19h-.53l.8-1.18.09-.26.21-.12.39-.19.42-.26.18-.41-.15-.77-.75-1.08-.3-.57v-1.44l-.15-.22-.47.13-.15.29-.06.38-.21.35L414,549.7l-.42.41-1.08,1.4-.62.64-.57.25-.39.32-1.25,1.91v.45l.15,1.85-.33.31,0,.74.15.76v.45l.12,0h.12l.06.06,0,.23h.33l.14-.48.06-.54.21-.45.48-.16v-.29h-.3v-.35l.75.29-.09.64-.42.76-.24.73.21.83.54.61,2.15,1.49.21.42-.45,1,.06.48.18.38.24.16.62.26.81.57.39.64-.48.51.3.31-.3.32-.54-.63-.3.41-.3.8-.5.41-.66-.22-.45-.54-.56-1.18-1.88-2.26-1.35-.89-1.25.22.24.25.21.54.15.2-.45-.2-.15-.12h-.3l.24.63.69.77.26.54.87-.16.42.73.18,1.12,0,1,.15.38.29.51.36.41.54.38,0,.42-.27.25-.51-.25h-.26l-.18.32-.42,1.27-1-.44-.24-.2.24.42.42.35.84.54-.27.73.18.54.39.48.29.51-1.13-.32-.45.1-.18.54.3-.29,0,0,.6.35.24.35.06.64.09.32,0,.16.09.19.32.41.21.54-.18.45-.5.51-.06.38.18,2,.29.83,1.26,2.52.39.47,1.25.93V587l-.15.83V588l-.75.67,0,.76.21.7.45.55.6.25v.35l-.72.29-.71,0-.63-.35-.36-.6-.15.13-.33.09-.15.13-.35-1.43.26-3.44-.5-1.63h.33l-1-2.77-.42-2-.42-.54-.59.82.57,1.12.2.16.06.19-.24,1.3.24.48,1,1,.24.73-.12,1.37-.42,1.37-.75,1.24-1.1,1-.84.16-.47,1.53.24,1.59,1.37.26L408,593l.65-.92.66-.8.3.07-.18.67-.3.6,0,.64.51.83,0,1,0,.2,1.73,2.29-.48,1-.33-.35-.29.35-.39,1-.78,1-.09.42,0,.44-.18.7-.24.32-.8.73-.18.39-.09.54-.27.51-.54.73h-.29l-.51-.48-.63,0-.74.06-.81-.19-.51-.6-.33-1.63-.2-.35-1,.29.09.57.48.61.33.28-.09.64-.18.64,0,.7.3.79-.93,0-.3,0,.66,1.18,0,2-.39,3.22.15,1.81-.21.54-.54.58-1.07.95-.66.41-.62.23-.81,0-1.88-.93-.71-.16h-.75l-.81.16-.71.32-1.46,1.08-.57.58-.39.6-.36.83-.53,2.39-.33.83-.39.38-.51.12h-.74l-.42-.12-1-.45-.53-.06-.45.09-.9.42-.44.12h-1.68L382,624l-.54.67-1.22.41-.75.71-.6.82-.39.77-.41,1.91-.42.51-1.1.19-.36.13-1.55.82-.45.1-.72,0-.33.16-.27.61-.56,2.16-.21.48-.87.09-.41.35-.69,1.5h-.27l-.36-1.46-1.16-.39L363,635.7l-1.26.45-.5.76-.24.45-1,1.14-.23.64-.15.57-.6,1.34-.33,1.94L357,646.43h-.3l-.45-.32-1.94-.6-.74-.1-.93.06-.68.13-2.54,1.15-1.82,1.62-.63.38-1.61.58-2.83,1.59-.93.16-1,.38-1.52.89-.27.16-.45.38-1.13,1.21-.21.51-.39.58-.84.54L333,657.06l-.81.23-1.94.25-1.73.61-.48-.16-.35.51-1.29,1.27-1.07,1.75-.75,0-1.67-1-1.13-.19.21-.42.36-.12.35-.13.27-.29,0-.41-.21-.41-.3-.35-.2-.13-.21-.16-.87-1-.21,0h-.44l-.51-.07-.33-.13v.67h-.27l-.57-.63-.86-.48-.93-.07-.65.51h-.3l.15-.41v-.25l-.15-.64-.39.92-.33.42-.47.28-.27-.89,0-.41-.63.35-.33.25-.24.38h-.27l.12-.76.42-.38.45-.16.06,0,.42-.29.32-.51.06-.48-.08-3.34-.15-.32-.57-.64-.18-.47.12.09.48.23v-.2l-.06-1-.48-.8-1.25-1.24-.21.7.47.51.6.45.33.41-.39,1.18v.63l.54.26.45.35-.12.76-.48,1.18.12.32.3.25.24.29-.06.42-.27.06-.42-.22-.51-.48.3-.32-.57-.67v-.32l.21-.38.06-.57v-1.31h-.27l-.29,1.31,0,1.43.32,1.24.87.86-.36.19-.39.23-1,1.81-.36.38-.3-.25.09-.42.15-.47.06-.51-.18-.48-.21-.22-.27-.19-.23-.42-.24-.92,0-.83.21-1.59-2.3-2.07-.39-.35-.6.32-.83.44-.87.26-.42-.51-.2-.51-.57-.7-.36-.32-.33-.32-.56-.29-.21.1h0l-.87.51-.27.19-.18.54.3.32.42.22.24.26.09.44.51,1.31-.15.54-.24.26-.27.19-.24.28-.27.77-.09.38-.12.57-.33.83-.56.35-1.4.54-.72,0-.42-.83h-.3l.15.7.15.29.27.32-.48.09-.48.26-.38.35-.33,1L297,658l-.57.25-.56.39,0-.8-.12-.57-.21-.48-.33-.41.09,1.62.21.67.48.25.77-.16.66-.44.48-.61.32-.7h.3l.21.64.12.76.3.55.86,0,.36-.35.69-1.27.45-.29.74.29.45.67.36.79.42.67.56.7.24.67.33,4.08-.21,1-.66.44-.83-.09-2.27-.54-4.62,0-3.2-.67h-1.64l-.83-.22-.69-.42-.66-.28-.65.25,2.53,1.69,10.48,3.82.24.16.71.63.24.16.24.1.21.22.3.22.44.1.45,0,.33.13.18.22.06.45-.06,1-.27.73-2.36,2.64-.71.42-.72-.19.21-.35.06-.45-.09-.45-.18-.38h-.33l-.21.8-.09.19-.56.64-.24.38-.12.41.18.13.3.38.18.45-.18.19-.69.06-.15.23,0,.31-.33.48-.09.35-.12.13-.17.06-1.65-.06-.68-.29-.63-.47-.6-.64-.68-.51-2.15-1-1.28-1.11-1.11-1.43-3.64-6.15-1.25-1.37-1.7-.57.24.29.21.12.23.07,1.32,1.11.5.61.36,1.81.45,1,4.09,5.66,1,1,3.34,1.69,2.3,1.87,2.48,1.41.69.19.41.41-.12,1-.47,1-.6.58v-.35l.27-.35.06-.42-.09-.44-.24-.35h-.27l-.21,1.65-.86,1.05-1.17.42-1.07-.26-1-.89-2.56-3-1.08-.86-3.7-2.39-10.89-11.94-.39-.29-.38-.22-.27-.06-.12.12-.21.19.18.23.42.22.32.22,1,1.15.36.67.3,1.59.38.67.51.6.93.93,1.37,1.08,1.61,1.27.39.39.27.41.35.8.27.41,2.21,2.23.27.16.84,1.14,3.78,3.31,1.11,1.31.77,1.53.39,1.85.45.5,1.1.2.51.38.21.89,0,.95-.21,2.42-.54,1.6-.86,1.37-1.08,1.05-.92.6-.57.13-.47-.22-.42-.13-.45.19-.63.45-1.79,0-.56-.28-2.09-1.72-3.79-2.2-8.09-8.12L268.64,683,267,681.39l-1.25-1-1.52-.41-1.35-.92-.83-.13.83,1.34,2.78,2.93,7.46,7.92.3.8.15.86.41.92,4.54,7.14.3.66.18.74.12,1.94-.21.6-1.61,1.82.41.48.42.16.27.28.12.67-.15.7-.42.35-1.25.26-6,1.94-6.53,2.83-4.75,2.07-9.64,3.82-1.07,1-1.91,2.19-1.16,1-.45.64-.21.79-.09.13-.57.16-.21.19-.06.22.09.54,0,.23-3.25,6.56-.8,1.3-1,1.15-1.52,1.27-1.82.29-1.43.64L233.07,740l-1.22,2.16-1.1,1.21-2.9.83-7.79,2.39-1-.19-.27-.16-.21-.19-.3-.19-2.74-.45-1-.41-.27-.16-.09-.51.33-.13.54.19.83-.16,2.12-1.49.48-.29.39-.13.3-.19.18-.48-.21-.47-.45-.26-.18-.22.57-.35.56,0,2.87.61.63-.16.71-.39.63-.5.27-.58-1,.54-1.4.39-1.37,0-1-.64-.21-.51.18-.25.51-.13.72-.1h1l.33-.06.72-.57v-.29l-.42-.8-.12-.92.24-.89-2.78,1.3-1.82.48-1.07-.6-.75-1.59L217,733l.48-1.65.65-2.14L218,727.4l-.09-3.31.18-4.08.36-2.83.27-6.91,0-2.83.3-5.35.12-2,.92-8.53.69-2.58.89-2.74,2,.07,1.32-.19.29-.83.72-.8,2.69-2.1.95-.48.45.35.12.77,1,2.93v-.64l-.27-1.78v-2.07l-.29-1-.57-1.08-1.94-2.74L226.48,675l-.87-.54-.86-.13-1.7.45-1,0-1.4-.9-1-1.46-.87-1.56-.9-1.24-1.43-.93-1.46-.22-1.34.42-1.14,1.08-.15.44v.42l-.12.28-.47.13-.27.19-.18.93-.15.19-1.52-.1-.12.1-.24-.42.09-.32.18-.35,0-.54-.18-.32-.6-.7-.12-.44v-1.27l-.15-1.12-.41-.64-1.23-1-.18.28-.06.13,0,.22h-.35l-.06-1.27-.42-.92-1-1.34-.2-.61.14-.12h.3l.36-.26.33-.54.24-.44v-.45l-.24-.51h-.33l-.33.73-.47.58-.57.41-.72.22-.68-.06,0-.51.12-.77-.18-.6.77.19.63-.13.45-.44,1.82-2.84.39-.73.41-.7.54-.44.69-.16,1.88-.1,3.28.45,1,.12,2.15.29,2-.1,1.55-.66,1.05-1.15,1.79-2.93.5-.6.57-.51,4.27-2.3,1.07-1.11,0-1.53-1.55-3.06-.68-1.75-.15-1.65.26-.73.51-.67.42-.42.18-.16.57-.44.95-.54.27.22.09.6.51.7.59.23,4.27.86,1.91.38.69.44,1.49,1.41.65.25.42-.45,1.29-2.8,1.76-2.19.56-.42.21.13,1.23.35,1,.54.33,0,2.18-.47,4.08-.93.66-.16,1-.48.83-.57,1-.63,1.25-.39,1.16.13.75.89.78,1.43,1.46,2.17.33.73.47,1.63.33.66.6.77.77.54.9,0,.42-.45.5-.95.42-1,.06-.77,1.46,1.25.39.51.81,1,1.1.86,1.23.67,1.16.41,2.45.26,1.16.32.95.83-1.1-4.53-1.07-2.16-.24-.76.06-.1.06-1.21-.09-.13.24-.48.15-.15.77-.1.93,0,.44,0,.33-.28-.51-1-.71-2.67-.51-.83-.77-.64-.75-.12-.69.44-.47,1-.45-1-.6-.76-1.52-1.4-.66-.77-1-1.78-.66-.64-2.33-.6-.89-.73-.45-1.28v0l-.12-1-.59-.35-.72-.19-.54-.48-.06-.67.75-3.53.48-1.62.12-.7-.09-.7-.66-2.49.09-1.24-.06-.64-.18-.51-.48-.38-1.16-.22-.54-.32-.45-.8-.12-.19.12-1,.51-.83.57-.67.15-.09.86-.8.75-.16,2.06.83,1.25.06.51-.67.42-1,1.19-1.37.27-.58.09-.63.06-.64,1-1.15,2,.35,2.24.74,1.82.06,3,1,.84.51.33.38.62,1.05.42.32.57.13,2.45-.7.47,0,.42.07.6.22,1,.73.54.32.57,0,.41-.7,0-.07-.35-1.05-1.2-2.13-.06-.76.24-.64.36-.64.3-.67.06-.41,0-.89.06-.32.62-1.11.12-.1-.24-1.18-1.28-2.58-.36-1.08-.06-.19,1-.26.51-.06.56.1.39.28.18.42.24.35.57,0,1.34-1,2.09,0,3.76.54-.36-.7,2.18.54.92-.28.87-1.21.5-1.53.72-1.11,1-.64.8-.07.54-.06,3.34.29,1.61-.19,1.61-.67,1.05-.77,3-3.18,1.37-1.82,1.17-.86.54-.5.29-.67,1.29-1.47,2.59-1.34.69-.25,2.09-.7,1.94-.16,1,.67,1.32,2.13.83.8,1-.07,1.49-2.1,1-.79,1.14-.48.62-.86.36-1.08.21-1.15,1.28-3.85v-1.12l-.3-.6.09-.51.27-.51.24-.6.15-1.44-.06-1.53-1.1-5.22-.09-1.4,0-1.27-.12-1.24-.6-1.31-1.22-1.5-.3-.54-.18-.73-.15-1.43-.51-1.18-.09-.54.06-.51.27-.45.24-.19.09-.25v-.32l-.12-.35-.69-.54-.08-.67L338,525.53l.6-1.5,1.4-3.59.15-1.47-.27-4.65-.33-1.72-3.61-7.45-.74-1.17-1-1.15-.09-.22-.42-.7-.8-1.09-.24-.7,0-.48.27-1,.06-.45-.48-1.43.21-.8.24-.54.12-.54-.09-.57-.06-.26-.6-1.37-.06-.44.06-.45,0-.48-.27-.44-.65-.29-1.64.19-.75-.29-.51-.89,0-.95.15-1-.09-.92-.51-.83-.38-.45-.21-.54.21-1.14,1.49-4.49.21-1.69v-.45l-.12-.47-.39-.93-.09-.41.09-1,.3-.89.89-1.65.12-.45.09-.41.12-.42.36-.32.57-.19.24.19.18.32.26.16.84-.22.57-.48.38-.73.51-1.24.18-.64,0-.35.21-.64.63-.95.2-.54.06-.77-.17-1.4.06-.73,1-2.42.24-1.18Zm-57.08,240,.53.6,2.45.61.57.41-.06,1.18-.27.83-.63.44-1.13,0v-.28l.21-.9-.66-1-.95-.86-.66-.51-.33.32.66.86.74.6.21.35-.83.1-.48-.42L277,696.93l-1.08-1.4-.5-.83-.21-.8-.15-1-.39-.74-.95-1.33.29-.29.09.25.15.13.36.26,2.09,3.21,2.09,2.2Zm22.38-30.41,1,.26.39.25.15.64-.3.38-.6.32-.62.12-.27-.19-.39-.6-.84-.38-5.66-1.12-2.09-1,.65-.07,1.47.67,1.19.29,5,.06Zm19.51-9.2,1.35,1.24.38.57-.27-.09-.11-.07-.09,0-.15-.16h-.3l-.12.61-.3.22-.33.22-.33.93-.38.28-.93.32-.6.58-.92,1.46-.6.54-.56-2.29.23-.89,1.76-.48,1.32-.7.27-.29,0-.47.12-.61.2-.57Zm-10.26,1.18.92.63.51.45.36.51-2.12.57-.9.42-.56.63h-.33V661l-.21-.63-.24-.55-.15-.54.12-.86.69-1,.12-.74h-.33v.67l-.36-1.11.39-.7.8-.45.9-.32.89.67-.2,1.44-.93,2.38h.33Zm-1.2-4.37-.26.48-.57-.16-.63-.44-.36-.39-.06-.12-.41-.77-.12,0,.12-.44.38-.35.09-.35.18-1-.15-.45-.62-.35v-.28l.47-.13.57-.1.45.07.09.31,1,.74.21.38.18.13.21.09.12.07,0,.35-.12.19-.15.12-.09.16.12.51.18.51,0,.45-.33.28-.24-.15-.24-.45-.38-1H309l.12.61.38.86ZM415,574.72l.36.16.27.23.18.25.08.32-.17.19-.48.35-.24.1-.21-.29-.3-.19h-.33l-.35.16.12.09H414l0,0,.09.19-.86-.07-.81-.47-.62-.58-.42-.48v-.31l.3.09.62.1.3.12,0-.15,0-.51.81.31Zm-116.2,163.7-1,.12v.51l.44.67.27.64-.53-.26-.48,0-.42.12-.51.1-.38.19-.09.45,0,.54,0,.41.06.22.06.2-.15.15-.72.07-.21-.22-.69-.93-.11-.28.47-1.15,1.2-1.24,1.4-1,1.22-.57.18.06.15.09.09.16,0,.29-.12,0-.45,0,.21.29.06.12Zm-7.16-54,1.43,1.56.57.92-.36.41-.66-.38-1-1.78-1.22-.7-2-2v-.32l.21.16.68.16,1.88,1.4ZM186.31,661.87l.15.8v5l-1.7,4.58-.57,2.58L185,676l-.3,1v.57l.18.51.12.83-.72-.41-.15-.23-.89-.44-.6-2.07-.59-3.95-1.14-3.54-.86-1.49-1.26-1.08-1.67-.9-.56-.6-.36-1.88-.15-.51.24-.13,2.74.42.87,0,.36-.42.09-.22.47-.7.18-.16.39-.19.15-.48.06-.51.15-.48.3-.41.41-.38.51,0,.54.54-.3-.32ZM308,657.67l-.68-.19-.6-.26-.54-.12-.57.28.27.13H306l.06-.06.21-.07.69.67.48,1,0,.89-.84.35-1-.45-1.08-1-.92-1.27L303,656.4l-.18-.77v-.57l.18-1.28-.06,0-.12-.32-.12-.76.15-.13.72-.12.29-.23.3-1.14-.3-1.09L302.72,648l1,0,.41.16.39.38.39.7.27.29,1.16.35.57.57.24.73v.67l-.3.32-.21.32-.09.54.12.19.48.77.18.16.44.31.18.64-.33.57-1.07.07v.35l.72,0,.32.32.45,1Zm9-493.11.21.15.15.13.24.32-.51-.1-.29-.31-.39-.86-.18.41,0,.35.15.29.3.22v.35l-.57.22h-.42l-.39-.19-.41-.38.2,1.05,1.32.8.27.86h-.3v-.35h-.3l-.21.86-.39.82v-1l-.3.13-.15.1-.14.16v-.39l-.3.39-.18-.26-.12-.13v-.28h.89v-.35l-.15-.1-.06-.06v0l-.08-.16h-.3v.35h-.3l-.15-.23-.27-.25-.18-.19h-.3l.18.51.12.16v.35l-.86-.64-1-1.46-.54-.61-1.25-.83-.51-.67.15-.89,1-.38.3-.19.15-.32v-.38l.05-.35.42-.32-.33.38.6.64,1.34.19.45.48h.3l0-.8.45-.19.59.26.42.41v.32l-.12.51.51.38.72.16.38-.07h.3l.18.35.18.26.24.25.3.2-.9-.26-.3-.13Zm-10.47-3.89.24.7,1.58,2.13.21,1.25-.57.31-.74-.15-.39-.23-.21-.79-.87-1.91-.15-1.15-.2.41-.09.45.09.41.2.42h-.29l-.57-.35-.69-.16-.56-.29-.21-.89.33-1.37.53-1.24,1.7.76.48.61Zm29.9-1.46,1-2.23.15-.8.15.16.06.16.06.35-.24,1.11-.38.83L335.22,162l-.27.54-.3,1-.33.35-.57,0,.72-1.72.06-.77-.48-.57v-.29l.9-.06.62-.16.45-.41Zm9.58-5.35.54.19,1.52,1.18v.28l-.45-.16-.15-.12h-.27l.24,1-.33.73-.62.58-.78.38.81-1.63.09-.54-.24-.31-.45-.26-.24-.45Zm-9.28,0,.6-.7.26-.16.27.16-.18.63-.65,1.72-.45,1.72-.3.7-.45.61-.62.38-.72.19-1,.1-2,.54-.75.09v-.32L332,159l1.17-.7,1-.83.75-.86-.12-.54.15-.76.53-1.4.21.16.45.19.12-.45.45-.89Zm3.88-4.65.3-.19.15.06v.32l-1.56,3.53-.29,1.53-.42,1.21-.9-.16.48-.16.06-.32-.12-.41-.09-.57.15-.51.6-.61.15-.57.09-1.08,0-.42.15-.35.15-.22Zm-1.79-4.65,1-.38.15.09-.21.61-.51.57-1.43,1.05-.44.73H337l-.66-.16-.87,1-1.46,2.14-.5.25-1.05.45-.54.31-1.49,1.34-.68-.6.29-1.09.63-1.21.36-1,.09-.57.39-1.37.21-1.47h.29l.33.38.12,0,0-.41.21-.26.42-.09-.21-.35,0-.73.06-1.25.12-.6.12-.29.15-.22.18-.06h.14l.18,0,.21.09.45.38,1,1.34.3.22.3.07.21.13.12.41v.38l0,.32.12.22.15.19h.3l.27-.15ZM349,137.33l.09.1.12.19.06.19-.09.09-.36.07-4.26,1.94.15-.13.47-.67,2.54-1.59.72-.28Zm2.42-1.46,5.64-.64v.29l-1.67,1.14-.69.29-.33-.41h-.26l-.36.19-3,1.08-.56.09.09-.5.2-.55.24.48.06.22.18-.41.27-.29.33-.19-.9-.06-1.1.25v-.31l1.46-.48Zm46.82,517.5.72.67.29.92-.23.7-.9-.06-.42-.48-.18-.73.15-.7Zm19.63-96.63.36.92.15.54-.21.64-.68-.26-1.61-1.18-.24-.38-.27-.35-.54-.13-.48-.38.36-.63,1.14-.16,1,.16.6.19.33.47Zm-88.2-393.43.5.32.15.32-.06.64-.15.09-.2-.32-.27-.16-.36.07-.45-.22-.36-.86-.06-.7h.18l.54.66Zm.53-3,.45.16.12.28-.09.23-.12.12v.2l-.09.12-.59.29-.3,0-.27-.06-.33-.23-.45-.63-.12.09-.24-.06-.12-.32.06-.22.24-.13.3.13.21.09.18-.06.48-.06Zm19.34-6.66.72-.51.62.1-.15.67-.35.38-.75,1.12-.42,0-.06-.86Z" style="fill:#efc441"/><path d="M678.26,668.15l0-.07h.09ZM634.93,694l.09-.1.15-.13h.12l0,.1v0l0,.16-.21.29-.12,0-.12-.1v-.12Zm-15-15.22-.06-.16.06-.1.36-.19.12.1-.27.32Zm14.66-7.68-.21-.06-.09-.13v-.19l.21-.19h.11l.15.16.09.16Zm4.29-9-.09-.22.12-.26.09,0,.12.1.06.19-.12.22Zm-4.35,0-.24-.22,0-.26.12,0,.23.19.09.16-.06.13Zm4-1-.2-.06,0-.22.09-.1.14,0,.15.06.06.16Zm60-16.27.06,0,.09.22-.06.06h-.09l-.24.07-.26.25-.18-.09-.09-.23.09-.32.15,0,.44,0Zm.45-4.17-.3,0-.15-.19,0-.19.06-.06.45,0,.15.06h0l.15.22-.09.16-.06,0Zm-68.09-10.22-.3-.16,0-.09.27-.19.17,0,.18.2-.15.25Zm32.25-3.15h-.21l-.2-.29.05-.12.09,0,.36-.13.06.16-.06.25ZM590,760.74l-.06-.13.12,0ZM680.41,757h-.18l0-.13Zm-6.33-1.21.06-.16.12.06-.06.13Zm-1.37,0-.09-.16.12,0,.09.16ZM605.3,727.69v-.1h.09Zm29.13-37.45-.06-.12.12,0Zm50.28-7.45-.06-.16.12.07Zm.77,0,0-.13.12,0Zm-1-.1-.06-.15.12.06ZM629.23,671l-.06-.13.12,0Z" style="fill:#efc441"/><path d="M496.47,406.16l-.12,0-.06-.1.15-.35.15-.16H497l0,.13,0,.19-.15.16Zm24.71-12.77-.45-.06v-.13l.36-.06.18.16Zm-7.13-23.11,0-.23.09-.06h.12l.12.1.06.16,0,0-.12.16-.15,0ZM563.53,364l-.21-.1-.21-.29,0-.12.12,0,.21.16.14.29ZM546,356l-.27-.22,0-.16.06-.19.12,0,.21.25.09.19Zm0-5.15.12,0,0,0,0,0,.15.19,0,.16h-.24l-.06-.13Zm-36,23.46-.06-.06.15-.06Zm8.89-.25-.06-.13.12,0Zm-.41-.16-.06-.13.12,0Zm1.76-.29-.06-.16.12.07Zm-3.64-4.14-.06-.16.12.07Zm2.38,0-.09-.16.15.07Zm-1.79-1.27-.06-.13.12,0Zm1.35-.16-.06-.06.15,0Zm-1.05-.22-.06-.13.12,0Zm28.2-17.42-.12,0,0-.13Zm-.54-.45,0-.09.09.06Zm-5-1.08-.15.1.09-.16Z" style="fill:#efc441"/></svg>