<?xml version="1.0" encoding="UTF-8"?><svg id="Wallis_and_Futuna" xmlns="http://www.w3.org/2000/svg" viewBox="0 0 720 540"><path d="M8.02,443.25l-.02,.32,.13,.16h.26l.15-.18,.06-.59-.13-.17-.45,.47Zm67.81,37.74l-.99-.93-.85,.32-.07-.8,.31-.29-.4-.48-.28,.32h-.56s-.49-.63-.49-.63h-.53l-.89,.62h-.81s-.29,.31-.29,.31h-.54l-.26-.3-.27,.02h-.56s-2.59-1.57-2.59-1.57l-1.47-1.87-1.56-.92h-1.36s-.3,.31-.3,.31h-.54l-.29,.32h-.56s-1.13,.63-1.13,.63l-2.2,.31-.58,.29-1.48,1.56h-.81s-.59,.31-.59,.31l-1.03,1.09-.03,.32-1.01,.77-2.23,.63-.76,.77-.42,1.86-1.2,1.56-.13,1.54,.6,1.09,.52,.33,.81-.02,1.76,1.58,1.87,.31,.27,.3h.81l.25,.3,1.6,.31,.63,.8,.18,.92,.38,.47h1.37s.76,.61,.76,.61h1.09s.3-.31,.3-.31h.27l1.33-1.39,.37-1.23,2.51-2.35,1.15-.61,1.45-1.25,1.99-.93,2.29-1.25,1.63-.31,.31-.32h1.35s2.54-1.24,2.54-1.24l.75-.77-.1-.48-1.31-.62Zm-28.56-9.91h2.7s1.05,.62,1.05,.62h1.36l2.31-1.55h1.09s.71-.46,.71-.46l.05-.62-1.11-1.42-1.39,.31-.3,.32h-2.44s-1.04-.63-1.04-.63l-.75-.94-1.1,.32-1.28-1.25h-.81l-.96-1.56h-.81l-.6,.65h-.55s-.24-.33-.24-.33l-1.31-.62-2.73-3.11-.53-.3h-.81l-1.02-.93h-1.36l-1.79-1.25-1.87-2.32,.02-.3-.74-.95-.86-2.79-.69-1.56,.07-.92,1-2.18-.39-.15-1.18,.93h-1.08l-.96-1.56h-1.36l-.52-.31-.72-1.24h-1.9s-1.29-.93-1.29-.93l-.84-1.4,.11-1.24-.24-.62-.64-.46-3.26-.02-.24-.3h-.84l-.24-.32-.78-.31-1.01-.92h-.82s-1.32,1.08-1.32,1.08l-.33,.94-.61,.61-.36,1.24-.89,.94-.18,2.16,.25,.33-.02,.31,.24,.31-.08,.91,.45,1.27,1.71,2.47-.06,.62,1.02,.93-.05,.64,.45,1.22,.99,1.24,.22,.62-.09,1.24,.22,.32-.41,1.87,1.32,2.02,.52,.3h.83s.3-.29,.3-.29l.68,.13-.06,.64-.3,.3,.23,.62-.37,1.23,.74,.93,.16,1.24,.5,.63-.03,.32,.63,.78,.5,.32,.56-.02,.24,.32,.81,.31,1.01,.92h2.44s1.42-.6,1.42-.6h2.15s.26,.29,.26,.29l2.46,.02,.23,.3h.82l.24,.3h1.36s.31-.29,.31-.29l2.99-.03,.24,.33h1.1l.25,.3,3.54,.02,.3-.32h.53l.25,.31,4.33,.32,.3-.32Zm-3.76-7.48l.16-.14,.02-.3-.12-.14h-.83s-.13,.14-.13,.14l.37,.47,.53-.02ZM689.91,47l.07-.92-.11-.14-.43,.14-.09,1.24,.13,.16,.44-.48Zm6.79,7.47l1.16,1.09,.41-.15,.04-.65-.86-1.07-1.24,.15,.41,.15,.07,.47Zm3.22,6.36l.13-.14,.05-.62-.36-.46h-.55l-.15,.14v.32s.6,.78,.6,.78h.28Zm-23.09,53.14l-.14,.14-.02,.3,.12,.17h.56l.15-.16-.38-.46h-.28Zm13.38-65.58l.31-.32h.55l1.45,2.17,.52,.32,.7-.15,.06-.94-.49-.61,.03-.32-1.39-1.39-1.65,.3-.75,.78,.66,.16Zm15.3,34.02l-.95-.14-.45,.46-.07,.94,.37,.47h.84l.42-.48,.05-.62-.24-.32,.02-.3Zm-26.01,41.03l-.05,.62,.13,.15h.29l.14-.15,.07-.92-.11-.14-.46,.45Zm31.07-43.2l-.13-.15-.74,.78-.02,.32,.11,.15,.3-.3h.29l.13-.14,.06-.64Zm-5.56-.48h-1.09s-.73,.78-.73,.78l1.73,.49,1.01-.77,.02-.32-.63-.47-.31,.3Zm6.89,6.23h-1.36s-.14,.16-.14,.16l.38,.47h1.09l.13-.15-.1-.48Zm-11.98-8.86l-.77-.94,.12-1.53-.52-2.02-.52-.31h-1.36l-.49-.32-.4-.47,.06-.92-.63-.47-.35-.77,.15-2.18-.25-.32,.04-.62-.6-1.09-.64-.45-.33-2.81-.36-.46h-1.1l-1.75-1.88-.54-.3h-1.62s-.31,.31-.31,.31l-1.1,.3-1.16,.94h-.83s-.44,.45-.44,.45l-.09,.94-.45,.78h-.28l-1.63,1.7-.31,.64-.12,1.53-.28,.33-.09,.91-.61,.95-.11,1.53-.9,1.25-.32,.62,.21,.61-.07,.92-.61,.94-.05,.62,1.03,.94,.14,1.54-.58,.62-.07,.94,.26,.3-.07,.94-.61,.62-.16,.46-.85,.3-.43,.48-.51,1.1-2.49,.6-.85,.62h-.81s-1.46,1.25-1.46,1.25h-.54l-.45,.46-.07,.94,.24,.32-.04,.59,.25,.32-.02,.32,.27,.3-.1,.92-.28,.32-.45,2.18,.73,1.24,.15,1.56,.63,.77h.81s.55-.31,.55-.31l.51,.62h.55l.58-.32,.28-.3,.39,.14-.1,1.56,.36,.47,1.9,.32,.59-.66h.27l.36,.5-.58,.92-.09,.94,.23,.6,.67,.16,.89,.77-.09,1.24,.73,1.26-.05,.59-.95,1.57-.07,.94,.27,.29-.07,.92,.37,.5h.52s.14-1.56,.14-1.56l.7,1.55,.55-.32,1.56,1.23,.54,.02,.73-.8-.26-.29,1.19-1.25,.79-1.39h.55l1.01,.93h.81l1.77,1.86h.82l.9-1.24,.58-.31h.53l.46-.45,.35-1.24-1.4-1.41-.54,.3-.54-.3-.29,.3h-.53l-.65-.77,.1-1.24,.45-.47,.69-.15-.36-.47h-.81l-.6,.62-.37-.47,1.15-.92-.52-.32,.02-.32,1.19-1.22-.09-.48-.53-.32-.39-.14,.06-.94,.32-.62,1.06-1.4,.68-.14,.04-.32-.97-1.24,.05-.62,.43-.47,1.05,.63,.7-.47,.19-2.48-.77-.62,.06-.94,1.88-3.11,.44-.46,.53,.3,1.29-1.08,.04-.62,2.22-4.03,.6-.64,.34-.92-.25-.32,.05-.62Zm-18.49,35.43l-.38-.47-.15,.16-.02,.3,.13,.15,.28,.02,.14-.17Zm-.92,4.97l-.36-.45h-.55l-.63-.8,.07-.91-.37-.48-.69,.16,.18,1.24-.34,.62,.42,.14,.62,.79-.36,1.24-.6,.62,.08,.78,1.14-.62h.82s1.06,.61,1.06,.61l.18-.78,.33-.62-1.02-.91,.04-.64Zm7.11-5.74l-.74,.77,.11,.15h.27l.75-.78-.12-.14h-.28Zm7.17,4.18l-.37-.47h-.52l-.45,.48-.05,.62,.41,1.55-.07,.92-.62,.92,1.05,.64-.43,1.87-.58,.62,.64,.77,.42-.44,.66-1.58,.17-2.15-.44-1.26,.18-2.48Z" style="fill:#efc441;"/></svg>