<svg xmlns="http://www.w3.org/2000/svg" viewBox="0 0 800 800"><path d="M601.59,179.17l.44,1,1.65,4.16,2.53,6.26,2.49,6.26,2.53,6.25,2.49,6.26,2.49,6.26,2.53,6.21,2.49,6.26,2.54,6.26,2.53,6.26,2.49,6.21,2.53,6.26,2.49,6.22,2.53,6.25,2.49,6.22,2.49,6.21,2.53,6.26,1.85,4.59-.08,0-.32,0-.08.05.84.6,2.21.13,1,.38.65.86,2.25,5.4,3.65,8.74,3.7,8.7,3.65,8.75,3.7,8.7h0l-1.21.64-2.81.82-2.17-.56-.64.64-.68.13-.69,0-.6.35-1.12,1.24-.65.51-1.44.48-2,1.24-2.45.51-1.21.56L647,339.22l-.88.39L638,341.88l-3.82,1.88-6.59,4.89-6,5.19L620,355.59l-.76,1.25-1,2.27-1.93,2.36-.44.73-.24.81v.64l.12.77.2.65.08.17-.44,1.16L614.29,368l-.61,2.62-1.44,1.76-.24,1.15.44,1.25.84,1.41.52,1.5-.64,2.66,1,.94,1.89,1.07.08.95-.48,4.54.24,2.83.56,2.7.45.38.24.35.12.34,0,.43-.32.56,0,.34-.08.51-.16.48-.33.38-.44.13-1.28.17-8.88,2.66-.52.43-.4.47-.37.3-.52.17-.88.09-.56.12-4.62,1.93-2.29,1.5,0,1.42,0,.3-.16.08h-.13l-.08.05,0,.73-.2.08-.32-.21-.36-.13-.44-.26-.44-.43-.57-.17-.72.6-.44.26-3,.64-4.62,2.7-.73.77-.32.9.32,1.25.53.68v.43l-1.25.51-6.18.6-1.13.39-1,.56-.89.64-1.4,1.76-1.21.08-.44.22-.16.38-.64,0-3,1.37-.84.56-1.49-.52-1.64.69-1.53,1.07-1.12.51-11.69,3.35-12.82,2.57-11.16,3.26-6.31.64L512.46,436l-1.57,1-4.38,3.94-.88.56-2.41.47-3.42,1.93L496,446.68l-.85,0-1.08-.47-1.49.34-2.45,1.2-1.12.34-.49.09-.6,0-.36-1.33-.36-.72-.48.08-.89.3-3.77.34-8.4,3-12.93,3.52-6.91,4.07-2.53,1.07-2.65.47-1.21.6-2.29,1.76-4.94,2.4L438,465.54l-.48,2-.6-.08L436,467l-1.16-.43-1.37.17-1.2.69-.89.86-2.93,4.45-1,2.23-.61,2.66.49.34,0,.73-.17.77-.16.39-.68.51-2.41,1-.52.43-.36,1.5-.85.56-1,.21-1,.52-.29.47-.12.56V487l-.2.34-.4.35-.4.42-.6,1.76-1.05.69-2.21,1-3.45,4.63-1.13.68L410,497l-.72.56-.32.17-.4.08-.45-.08-6.86-.13-1,.34-2.61,2.4-.56.26h-.52l-.45.13-.52.51-1.08-1.41-2.05-.39-4.54,0,.2.25.24.6-2.41.05-6.79,2.1.28-1.55-.92-1-1.33-.68-.88-.64-.4.47-1.61-.86-5.22-1.33-.88.52-3.14,1-1,.22-.85.55-3,3.82-2.65,1.5-9,3.26-1.24.9L342.58,514,335,521.09l-2.21,1.5L319.24,527l-14.94,3.34-5.15,3.6-7.27,3-1,.17-1.17-.17-2.08-.68h-1.37l-1.25.38-2.53,1.16-1.2.26-12.13,0-2.57-.47-1.29-.73-.76-.25-.32.34-.29.13-1.56.51-5.06.9-10,.47-1,.26-1.93.82-.84.17L241,540l-1.09.09-.72.51-8.07,1.89-2,1.11-5.67,6.13-1.6,1.24-.85.9-.72,2.36L217.57,558l-1.85,1.8-2.21,1.07-10.08,2.62-2.29,1.29L199,566.73l-.8,1.08-.28.55-.33.65,0,.08-.4,1.12-.16,1.11-.08.21-1.4,3.78-.12.64.32,2.57-.2.94-1.13.35-1.28-.22-1.33-.6-.92-.81.12-1,1-.38,1.17.13,1-.13.44-1.12h-.24l-.88-1.28-.08-.26-.12-.21.08-.3v-.26l-.36-.09-.37.13,0,.3,0,.3,0,.13-.44.77-.16.13-.32-.09-.52-.3-.36,0-1.33,0-.6.22-.28.38-.41,1-1,.81-1.08.22-.81-.94-.76.47-.24.55.24,1.59.44-.43.36-.08,1.81.21.28.21-.12.78-.36.68-.84.73-1,.43-.76-.13-1.69-.73-.52-.34-.32-.52v-.3l-.16-.21-.73-.3-1.44-.17-1.21.43-2.17,1.5-.08-.26-.2-.39-.12-.25.28-.65-.4-.85-.72-.86-.76-.64-2.41-.9-2.46-.13-2.24.51-1.73.9L162.13,580l-3.33,3.81-.12.35-.44.77-.44.38-.24-.9-.29,0-1.36.56-1.73.43-3.77,1.93-1.33.17-1.17-.17-1.08,0-2.21,1.24-1.28,0-1.17-.42-.68-.9.8.08,1.45.3.8,0,.52-.42,0-.82-.4-.56-.68.52-1.53-.22-1.89.82-3.45,2-1.69.47-1,0-1.49-.56-1.81.81-.88.09-1.12-.77-1.05-2.23-.84-.47-1.21-.17-1-.47-1.65-1.12-1-.51-1.09-.43-1.24-.26-1.29-.13-.8-.3-2.25-1.41-1.21-.47-2,0-.57-.26-.88-.68-.6-.3-.53-.13-.76.34-3.33,3.51-.28.35-.85.47-1.2.17-1.33-.21-.36-.6,1.12-5.1,0-2.49-.52-2.19-1.2-2-1.77-1.76-.24-.68-.16-.78-.44-.51-.41-.43-.16-.47L98,566.18l-.2-1.2-.4-1.12-.52-1-2.09-2.53-.32-.72-.08-.52-.72-1.5-.57-1.63-.24-.51-3.53-4.67L88,546.25l.8-2,.53-2.14.32-11.32,1.2-2,.24-.6.08-.47.25-.39L92,527l-.76-2,.2-4.42-.28-2.27-1.93-3.94-.24-.69-.65-5.23-.32-.56-3.85-4.37-1.33-3.43-1.25-2.87-1.32-2-.64-4.8-.49-2.28-.6-1.92L77.5,483l-1.65-6-.48-1.28-.28-2-.77-1.85-.2-2.05-.16-.56-.32-.34-1.08-.86-.24-.34.12-.78.28-.3.44.13.6.52.6,1.24.73,2.91.88.82,0-1.84-.12-.86-.36-.77.88-2.66-.68-2.1-1.13-1.93-.64-2.1.12-.43.57-.68.12-.35,0-.43-.17-.17-.16-.13-.24-.77-.4-.3-.4-.21-.16-.22L73,456l-.28-.3-.28-.43L72,453.11l-.08-.73-.64-2.23-2.77-3.77-.64-2.32-.12-1.33.08-.68.48.08.28.52-.12.43-.2.51,0,.69.4,1.2.72,1.33,1,1.15,1.08.73.08-.9.36-2.14,0-1.29-.6-2.31L71,440l-.28-.82-.52-.68L68.74,437l-.64-.86-.4-1-.16-1.54.28-3.43L67.54,429l-.81-1.07-2-1L62.8,425.2l-1.17-.81-1.33-.69-1.24-.47-1.29-.3H56.61l-.84.52-.33,1.32-.64.18-1.32-.52-1.17-1.07L52.23,422l-.4-.9.68-.09,1.93.47,1-.13.65-.47.36-.64.2-.9-.08-.64-.6-1-.12-.77,1.52-3,.48-.73.29.86L58,415l-.44,1-.48.64,1.13.56.88.6L61.47,420l.28.43.12.86-.16,1.2.2.39.76.38.08-.51-.08-.35-.2-.21-.2-.21.89-1,.36-1.42-.12-4.93-.56-2.27-1-1.8-.24-.9,0-.68.12-.69.08-.77,0-.77-.12-.73-.24-.77-.84-1.63-2.37-3.43.12-.56.68-.9-.56-.6L58,397.3l-.36-.9-.16-1.07.61-2.27-.17-.95-1.24-.47.4-1,.6-.56.69-.43.72-.64.48-.69.24-.56.08-.68,0-1,.28-1.8.81-1.24,1-.9,1.09-.69,1.08-.94.6-1.11L65,378l.53-8.79-.2-3-1.61-9-.2-4.8-.08-.43-.36-1.32,0,0,0-.17v-.35l-.08-.34-.16-.34-.49-.69-.08-.13,2.82-1,2-.95,1.53-1.11.52-1-.08-1-.16-1,.24-.85.6-.26,2.29-.47.85-.3,2.57-1.63,1.28-1,.73-1.11,1.52-4.2.24-1.2.09-1.37.28-.9.76-.35,1.45.3,2.37.78,1-.22.36-1.2,0-.08-.36-1.5-.52-1-.12-.9.84-1.33.52-.38.57-.26.44-.34.24-.69-.08-.82-.4-.72-.61-.48L84,319.46l-.68-.6-.72-2.36L81.31,314l-.2-1.12.36-1.58,1-2.49.24-1.24v-1.42l-.32-1.41-.44-1.07-.25-1,.33-1.33,1.24-2.57.32-1.29,0-1.5.36-1.28,1.21-1,1.57-.69,1.32-.3,1.33-.68.2-1.33-.6-1.37-1.17-.9-3.33-1.2.16-.3,2.81-3.65,5.14-4.63,5.14-3.42,1.29-.52,1.28-.17,1.09.26,2,.08,1,.26,4.34,2,2.49,1.54,4.1,4.85,2.41,2,1.16.47h1.09l2.21-.25,2.29.21,1,0,1.37-.43.36.17v.69l-.16,1.28.24.52.2.3.32.21.72.17,1.37-.25.92-.95.77-1.24.88-1.12,1.24-.72,1,.12,2.25,1.2,1.52.26,1.13-.56.88-1.15.89-1.59.84-.64,1.21.13,2.49.77,1.08-.09,4.54-1.11,5.66-.6,3.58.13,4,.9,1.68-.13,3.66-1.46,1.28-.3,11.89.09,7.23,0h1.49l9.84.09,3.34.72,9.56,5.83,2.65.95,12.45,1.37L244.36,291l11.09,1.24,14.26,1.55,9.68-1.42,13.06-1.93,2.16,1.33,3.78,5.57,4.34,6.39,5,7.25.72.51.85,0,7.71.35,1.93-.3,1.72-.73,7.2-4.46,6.7-4.12,0-.08,1.73-2.4,3.94-11.4,2.77-8.06,1-2,5.71-7.55,8.75-11.53,9.28-12.21,5.31-7,4.58-6,1.32-1,7.51-4,10.09-5.44,11.24-6,10.05-5.41,8.43-4.54,2.61-1.41,5.47-2.1,7.59-1.16,9.4-1.37,9.4-1.42,9.4-1.37,9.4-1.41,9.4-1.42,9.4-1.37,9.4-1.41,9.4-1.37,9.39-1.42L536,189l9.4-1.38,9.4-1.41,9.4-1.41,9.4-1.38L583,182l9.4-1.37Zm74.52,441,1.16-.47,1.13.09.64.34.6.21.12.48-1.93-.18-.84,0Zm-11.45-3.38h.88l.89.64.24,1,0,.9-.85.26-.92.12-1.73-.72-1.2-1.08-1.25-.38.2-.6.89-.3.76.08.64-.25.64,0Zm-44.83-1.67,1.77.81,3.25-.81.88.21.29.64-.77.3-.6.73.44.34.56,1.08-1.64-.3-.73.17-1,.3-2.69-.52-2.61-.17-.32-.51-.65-.95-.36,0h-.36l-1.25.39-.64.13-.2-.26-.68-1-.12-.3-.32.09-1.21-.52-.76.13-.64.21-.41-.3-.24-.21-1.93-.94-.28-.86.89-.3.88-.13,1.45,0,1.72.43,1.81,1.33,1.29.47.92-.08,1.73.34Zm-520-30,.81.38.08.22.32.73-.12.9-.69.38-.4-.12-.68-.78-.32-.38-.69.17-.4-.21-.16-.82.44-.3.53-.13Zm648,8.27,1.53-.21,1.12-.73.64.08.81.43-.73.82-1.76.51-1.25.43-1.12.21-.65.52-.12,1.67-2.49,1.12-2,.47-2.37,1-2.65-.22-2.17.86-.52.51-1.08,1.67-.52.35-1.53.73L729.33,605l-.84.56-1.77-.17-2.73.21-1-.13-1,.26-1.36,1.2-1.29-.47-.92-.3-1.81.47-2.53.43-7,1.45-2.65.3-3.42-.38-3.21-1.07-2.73-.73-1.17-1.29-.92-1.2-1-1.28-.84-1.42-1.53-.55-2.45-1.72-6.06-4.07-1.45-1.37-.16-.39.52-.43,1.57.47,1.21-.12,1.24-.82.28-.21.12-.56.48-1.11.25-.69-.45-3.73.89-.34,1-.22,2.45-.38.56-1,.65-1,.56-.64,1.12-.18,3.22.69,1.89.26,1.4-.17,1.45-.13,2.29,2.23,4,3.17,2.66.73,2.25.6,1.16-1.55.56-1.54,1.61-.38,1.12.17,1.05.51,2-.3,2,.09,2.16-1.33.81-.26,1.36-1,.65-.81,1.56-.13.77.82.8.68,1.28.82.89-.22.72-.47.28.17.61.73.48.56,1.08,0,1.33.3.56.94.92.39,2,1,2.41.51,2.37,1.41,1.25.43ZM58.26,517l2.49-1.88,1.2-.48.72.65-.16,1.2-1.8,2-.41,1.37-.6.6L56.45,522l-.12-.82,0-.12.44-1.33Zm2.41-20.53.4-.43,1.64,2.19.37.9v.68l-.81,2.36-.08,2,.12,1.07-.4.43-1.61-.05.77-1.75-1.21-.52-1.48-.81-.53-.52-.68-.68-.12-.26-.4-1.37.52-.95,1.17-1.11,1.36-.9ZM53.36,408.1l-1.49,1-.2.43.24.08,0,.3-.24.39-.52.47-.85.43-.2.34.68.13.77-.26.72-.42.6.08,0,.77-.68,2.49-.16.86.12.51-.12.51-.28.3,0,.09.36-.09-.08.35-1.17,1.88-.72.69-.8,0-.64-.56-.69-1.07v-1.46l.61-1.54.16-3.3.72-1.12.76-.81.56-.52.25-.55.24-.43,1.28-.73.44.21Z" style="fill:#efc441"/></svg>