<svg xmlns="http://www.w3.org/2000/svg" viewBox="0 0 800 800"><path d="M400.33,400.2h.08l0,0,.05,0,0,.09v.15l0,0v0h-.22l-.05-.14,0-.15Zm-.17-.23,0,0,0,.06v.06l-.08,0,0,0,0-.14-.07,0,0-.05h-.18l-.11-.05-.14-.09-.1-.12,0-.12h0l0,0h0v0l.34.21.08.09.06.16,0,.06Z" style="fill:#efc441"/><polygon points="400.24 399.75 400 399.75 399.93 399.53 399.86 399.75 399.63 399.75 399.81 399.91 399.74 400.15 399.93 400 400.12 400.15 400.05 399.91 400.24 399.75" style="fill:red"/><polygon points="42.46 273.94 43.15 274.61 44.86 275.42 47.64 277.78 49.47 278.72 50.35 278.85 53.25 278.72 56.28 279.86 57.29 280.07 64.24 280.07 64.74 280.2 65.56 280.74 66.13 280.81 66.7 280.61 67.52 279.66 68.03 279.46 74.21 278.18 79.14 275.89 81.34 275.69 82.54 276.5 83.68 277.51 87.15 278.52 89.17 279.6 91 280.81 91.82 281.88 92.71 283.43 96.87 285.32 98.2 287.07 96.68 287.68 96.56 289.09 97.25 290.78 98.2 291.92 103.82 294.68 107.73 294.88 108.8 294.68 113.85 291.92 114.48 292.66 115.05 291.38 116.5 291.05 118.21 290.98 119.53 290.57 119.6 290.24 119.41 288.89 119.53 288.55 120.1 288.28 121.68 287.88 123.26 286.94 125.41 286.53 126.22 286.06 129.44 283.37 130.26 282.89 131.15 283.3 131.78 284.11 132.35 285.05 132.79 285.72 133.67 285.99 137.9 286.53 138.79 287 139.54 287.54 140.11 288.15 140.74 288.28 144.22 287.75 148.44 288.62 155.51 292.73 159.37 294.01 161.83 294.48 163.34 295.09 164.54 296.16 165.99 297.85 167.26 298.99 168.77 299.8 174.01 301.62 175.27 301.82 176.41 301.49 179.06 298.93 180.26 298.19 181.71 297.78 183.98 297.51 192.69 293.27 194.84 294.01 198.25 291.65 199.2 291.25 203.55 291.05 204.94 290.57 207.47 289.16 210.18 286.4 213.59 282.83 216.68 278.79 216.49 276.43 216.37 273.94 216.49 272.86 217.44 271.38 241.87 244.57 251.34 235.48 256.2 230.22 258.72 225.1 260.62 217.02 262.07 213.52 274.63 193.51 278.29 189.34 283.09 186.31 297.29 179.78 305.69 175.94 314.78 167.99 321.03 163.74 354.48 149.8 358.9 148.93 361.49 148.93 362.75 148.72 363.57 147.98 365.4 146.1 366.1 144.35 369.76 141.45 371.02 139.9 371.65 136.2 372.03 135.39 374.24 131.55 374.24 129.26 372.66 125.02 372.35 123.26 372.66 121.11 374.87 115.65 373.29 112.82 373.8 108.78 375 104.61 375.5 101.17 375.25 100.63 374.87 100.09 374.43 99.35 374.24 98.41 374.49 97.33 375.82 95.24 376.07 94.57 378.09 91.88 381.18 88.71 382.51 88.04 382.89 87.83 384.91 87.43 389.07 87.36 391.28 86.89 392.48 85.75 394.44 81.77 395.32 80.7 396.84 79.35 398.61 78.14 400.5 77.67 401.32 77.06 404.6 73.49 424.93 63.52 426.32 63.18 434.27 62.44 435.91 61.37 439.38 58.27 441.53 57.59 443.55 57.86 445.32 58.4 447.21 58.74 449.42 58.4 454.72 56.52 458.7 55.84 462.49 53.96 464.63 53.48 468.74 53.89 476.63 56.18 480.6 56.65 484.26 56.04 487.93 54.97 491.59 54.36 495.31 55.24 497.65 56.92 498.72 57.39 500.17 56.99 500.93 56.52 502.32 55.24 503.14 54.9 505.47 55.24 506.93 55.91 509.89 57.26 512.48 57.19 516.14 55.64 516.27 63.79 516.46 73.35 516.65 85.48 516.71 92.48 527.06 92.35 533.69 92.35 548.78 92.21 558.69 92.15 562.79 93.09 566.51 95.85 567.97 97.47 569.36 98.61 570.87 98.81 572.95 97.87 574.03 96.93 575.73 94.84 577.06 94.1 577.88 94.3 578.57 94.91 579.27 94.97 580.02 93.56 582.36 92.01 586.46 92.35 595.8 94.71 597.57 95.38 599.09 96.52 600.41 98.28 602.12 101.71 603.25 103.13 605.08 104.14 605.97 104.81 606.41 105.75 606.66 106.69 607.23 107.37 607.61 107.44 608.3 107.23 608.68 107.23 609.12 107.44 609.12 107.91 609 108.45 609.12 108.72 610.95 108.98 612.91 108.98 614.8 109.25 616.13 110.33 619.73 112.15 635.13 113.23 637.4 114.31 639.93 116.53 645.48 123 647.25 124.61 651.16 126.77 652.24 127.71 653.06 129.53 653.5 133.37 654.32 134.92 655.77 135.66 665.37 137.27 683.55 136.8 690.8 137.95 700.34 141.99 714.98 148.25 726.03 152.9 727.04 153.91 727.48 155.39 727.54 157.75 728.49 161.72 730.95 163.68 731.46 163.95 732.28 163.41 733.54 162.87 734.99 162.6 737.9 162.8 743.51 164.08 746.42 164.28 747.93 163.88 750.71 161.99 752.23 161.32 753.36 161.19 752.73 164.08 750.14 174.79 748.56 178.02 747.11 180.04 740.48 186.85 740.61 187.52 745.85 197.29 749.7 204.49 752.04 210.35 753.3 216.62 753.42 220.39 753.42 221.4 753.8 223.56 754.75 225.58 755.57 226.32 757.59 227.53 758.28 228.41 758.35 230.02 757.78 231.64 757.34 232.31 756.01 234.47 752.41 241.88 751.78 242.68 751.03 243.22 750.39 243.9 750.46 245.04 751.4 248.48 751.78 249.28 753.42 250.63 756.9 252.25 758.16 254.07 758.54 256.15 758.16 258.11 756.64 261.88 756.26 265.79 756.58 270.23 756.2 273.94 753.8 275.55 752.29 276.36 751.28 278.05 750.71 280.13 750.46 282.15 750.58 284.11 751.66 286.94 751.85 288.75 751.47 290.1 750.77 290.78 750.02 291.25 749.57 292.06 749.7 293 750.84 294.41 750.77 295.29 750.27 297.31 750.46 299.6 753.74 310.11 753.99 313.48 753.93 314.21 753.11 316.37 752.41 317.72 751.85 318.53 751.72 319.33 752.1 320.88 753.49 323.04 757.84 326.68 759.48 328.63 760.18 330.58 759.8 331.73 757.09 333.82 755.19 336.85 754.94 336.78 755.07 337.72 756.2 339.2 756.52 340.28 755.95 342.3 754.31 343.65 752.29 344.66 750.46 345.74 748.82 346.68 747.05 347.22 745.47 347.89 744.34 349.31 744.14 350.99 744.46 353.08 745.6 356.78 748.37 362.58 749.13 365.34 748.88 368.71 748.25 371.4 747.3 373.62 745.66 374.97 743.26 375.17 739.47 374.9 736.7 375.31 727.8 379.69 727.67 380.63 728.3 386.08 728.87 387.63 730.07 388.44 729.06 389.18 727.86 389.92 726.98 390.73 726.85 392.01 727.54 394.3 727.73 395.38 727.54 396.66 727.8 398.07 728.49 398.88 729.56 399.22 730.83 399.29 736.51 398.41 738.15 398.61 739.16 399.01 739.66 399.49 739.92 400.16 740.17 401.37 740.61 402.65 741.37 403.39 742.19 404.13 743.01 405.14 743.58 408.65 740.86 421.31 740.8 423.8 740.48 425.62 739.73 427.3 738.4 429.6 734.93 433.7 734.74 434.71 734.93 437.68 734.36 441.85 734.42 443.94 735.43 445.15 737.2 445.22 738.84 445.02 740.17 445.49 740.8 447.71 740.8 449.6 740.17 457.01 740.17 457.95 740.42 458.96 740.55 460.24 740.17 461.25 739.6 462.13 739.35 463.14 739.66 465.43 740.67 466.57 742.38 466.98 744.46 467.04 746.54 466.44 749.32 463.47 751.03 462.87 752.67 463.88 752.79 465.9 752.04 469.87 752.79 471.69 754.31 473.31 756.33 474.65 758.35 475.53 759.29 476.68 758.98 478.63 758.35 481.05 758.22 485.23 756.45 491.29 756.14 498.83 756.64 501.26 756.96 502 751.97 501.87 750.71 503.01 750.21 506.11 749.51 507.59 748.06 508.06 746.54 508.4 745.66 509.27 745.03 514.26 744.52 515.88 743.26 518.3 743.07 519.31 743.2 519.99 743.83 521.4 743.89 522.21 743.2 525.31 742.69 526.79 742 528.13 737.9 533.46 731.9 541.2 729 547.06 726.03 553.26 723.69 555.95 719.72 556.63 715.36 556.09 711.38 556.63 708.48 560.53 707.47 564.91 707.28 569.15 708.61 580.2 709.93 590.84 709.3 594.82 707.15 599.26 702.48 605.53 695.41 615.09 695.92 616.03 697.24 616.91 698.07 618.05 698.51 618.12 698.88 618.12 699.14 618.32 699.14 619.06 698.82 619.67 698.44 620.21 698.32 620.61 705.07 632.67 705.13 633.07 705.26 633.61 701.73 631.19 698.44 635.03 693.96 640.21 689.16 645.8 684.3 651.39 679.51 657.05 674.65 662.64 669.78 668.23 664.99 673.82 660.13 679.41 655.33 685.07 650.47 690.66 645.61 696.25 640.81 701.91 635.95 707.5 631.15 713.16 626.29 718.75 621.5 724.34 616.63 730 611.84 735.52 605.84 739.97 598.46 745.36 596.31 742.12 595.42 741.31 594.48 741.25 593.03 741.92 592.27 742.05 591.51 741.72 590.06 740.77 589.43 740.57 588.8 740.03 586.9 737.68 585.89 737 584.5 737.21 581.48 738.75 580.78 738.96 579.9 739.16 578.32 738.82 575.16 737.34 565.13 734.85 559.57 734.24 556.86 733.5 553.89 734.78 543.6 735.59 541.77 736.19 539.31 738.08 537.92 738.48 537.29 738.28 535.9 737.27 535.08 737 532.36 737.07 526.43 736.33 524.66 736.4 522.9 736.87 519.42 738.55 517.66 739.16 513.93 739.83 510.52 739.97 507.37 739.16 504.46 737 503.14 735.79 501.81 734.91 500.05 734.38 497.77 734.17 493.67 734.78 492.09 734.64 489.88 733.5 487.23 731.48 485.9 730.87 483.13 730.54 482.94 730.2 482.81 729.73 481.05 727.77 480.1 727.3 478.14 726.83 477.19 726.43 474.67 724.81 473.34 724.41 470 724.07 467.79 722.86 464.63 722.12 459.27 718.41 457.37 717.87 451.19 718.21 450.05 718.62 448.41 717.4 446.52 717.67 443.11 719.29 439.95 719.02 438.25 719.42 437.43 721.11 436.42 722.12 434.14 721.91 429.54 720.7 427.64 721.17 424.23 723.13 422.28 724.27 420.89 724.21 420.32 724.07 419.69 723.6 412.62 717.27 412.05 716.26 411.36 714.24 410.85 713.29 409.97 712.15 409.46 711.81 400.75 712.08 397.34 711.48 393.93 709.59 391.16 706.49 389.39 702.58 388.69 698.21 389.07 693.83 390.08 691.61 391.6 689.11 392.73 686.69 392.48 684.74 390.97 683.46 387.31 682.24 385.67 681.1 382.95 680.42 377.33 680.09 374.56 679.28 361.05 672.75 356.82 671.33 353.28 668.37 351.96 667.9 349.24 667.63 346.27 666.82 345.26 667.02 344.32 667.49 341.04 668.37 339.58 668.97 338.01 669.31 336.05 668.84 328.54 664.73 324.88 663.45 321.47 662.78 310.48 662.58 303.54 661.16 298.24 660.82 296.72 660.28 295.4 659.41 294.32 658.13 293.76 657.19 292.94 655.1 292.49 654.22 291.86 653.82 291.29 653.95 290.85 653.82 290.54 652.88 290.98 651.53 290.6 650.92 289.97 650.72 289.65 650.52 289.84 649.51 290.54 648.3 290.85 647.49 290.6 646.41 287.89 640.55 286.37 638.87 285.74 637.86 285.61 637.12 285.68 635.5 285.42 634.69 284.6 633.21 281.26 629.03 278.92 625.13 276.14 621.62 269.77 616.71 268.38 615.16 265.22 610.58 264.47 608.62 264.47 606.87 265.6 601.42 265.73 599.26 264.97 593.47 264.97 592.46 265.22 590.17 265.22 588.96 265.29 587.61 265.86 586.67 266.49 585.79 266.99 584.65 268.38 576.36 268.19 572.25 265.92 564.1 266.61 560.4 267.75 556.76 268.06 552.72 267.37 550.9 266.05 549.55 264.4 548.88 260.68 548.81 257.46 547.26 252.22 548.27 244.84 547.26 234.42 547.2 231.2 547.67 227.73 549.55 229.18 534.74 227.48 522.75 222.81 510.08 221.61 508.26 219.9 507.19 218.01 506.58 216.05 506.25 214.91 506.25 214.03 506.31 213.08 506.25 211.95 505.84 210.94 504.96 209.36 502.61 208.54 501.6 205.45 499.78 202.42 499.44 199.39 499.51 196.04 498.83 185.63 493.25 182.15 492.57 180.01 492.57 178.18 492.17 176.6 491.29 175.15 489.81 173.88 487.99 173.19 487.18 172.87 486.85 171.55 486.04 167.38 484.76 165.68 483.95 164.41 482.6 163.78 480.31 162.96 478.36 161.38 476.68 157.66 474.12 155.89 473.38 152.3 472.5 150.59 471.83 148.82 470.07 146.3 465.9 144.22 464.75 141.38 464.21 140.68 463.88 139.54 463.07 139.54 462.94 140.18 462.6 140.87 461.32 141.5 459.16 141.25 458.36 140.37 457.01 139.61 456.2 138.72 455.53 137.71 455.06 132.79 454.92 128.69 453.77 125.09 451.42 122.75 447.71 113.92 421.44 111.83 417 108.99 413.09 106.72 409.05 106.03 407.1 105.65 404.67 105.96 402.58 107.48 398.81 107.79 396.66 107.73 396.59 105.27 388.57 93.72 377.66 90.43 369.99 89.87 362.51 88.79 358.94 86.52 356.72 82.92 354.83 80.27 352.41 75.92 345.81 74.65 344.39 71.5 342.17 65.44 335.37 64.24 333.34 63.8 332 62.91 327.69 62.16 325.67 59.19 320.55 56.22 312.73 54.26 308.96 51.49 306.6 48.39 304.65 45.87 301.75 42.08 294.95 39.37 287.88 38.74 285.45 38.74 282.63 42.46 273.94" style="fill:#efc441"/></svg>