<svg xmlns="http://www.w3.org/2000/svg" viewBox="0 0 314.73 317.73"><title>Afghanistan</title><path d="M71.32,300.45l5,.39a406.81,406.81,0,0,0,72-.86c21.16-2.25,42.1-6.5,61.73-13.38,35-12.26,61.4-33,79-58A141.86,141.86,0,0,0,306.61,99.66c-10.15-28.94-29.87-55.94-59.54-76.76a13.75,13.75,0,0,0-2.44-1.48c-.78-.29-1.29-.07-1.55.56a1.25,1.25,0,0,0,.24,1.27,13.69,13.69,0,0,0,2.06,2A137.2,137.2,0,0,1,288.2,85.74a143.53,143.53,0,0,1,6.46,70.91,138.1,138.1,0,0,1-29,65.31c-15,18.48-35.52,33.56-61.36,42.8-17.39,6.22-38.52,10.17-60,12.08-23.47,2.09-47.32,1.74-67.09-.76q-4.1-.52-8.15-1.15-2.2-.34-4.39-.72a15.33,15.33,0,0,0-3.65-1,14.85,14.85,0,0,0-9.91,2,15.1,15.1,0,0,0-18.85-2.74,15.08,15.08,0,0,0-19.43-2.37,12.73,12.73,0,0,0-5.53,8.69,12.33,12.33,0,0,0-.05,3.15c-1.69,10.59-3.73,20.34.78,26.64,7.44,10.38,50,11.53,57.22,5.47,4.56-3.82,5.19-8.29,6-13.6h.06Zm-14.06-1a14.94,14.94,0,0,0,8.87-1.4l-.34,2.35c-2,13.78-23.77,11.11-34.08,9.67C19.62,308.34,8,303.72,10.08,291l.29-2.12a15.09,15.09,0,0,0,19.1,3,14.86,14.86,0,0,0,8.94,4.72h0a14.85,14.85,0,0,0,9.91-2,14.86,14.86,0,0,0,8.94,4.72Z" style="fill:#373435"/><path d="M72.57,296.05l13.93-6.73-12.76-8.67-.22,2.86,7.82,5.31.2.13-8.75,4.23-.22,2.87Zm-44.72-6.32A12.36,12.36,0,0,1,12.3,287a9.84,9.84,0,0,1,2.13-14.61,12.36,12.36,0,0,1,15.7,1.77,12.47,12.47,0,0,0-2.27,15.62Zm-6.69-17.1a8.08,8.08,0,0,0-2.32,16,10.56,10.56,0,0,1,2.32-16ZM38.8,294a12.06,12.06,0,0,1-7.65-4.26,9.84,9.84,0,0,1,2.13-14.61A12.36,12.36,0,0,1,49,276.85a12.47,12.47,0,0,0-2.27,15.62A12.15,12.15,0,0,1,38.8,294ZM40,275.37a8.08,8.08,0,0,0-2.32,16,10.56,10.56,0,0,1,2.32-16Zm26.18,19.44A12.34,12.34,0,0,1,50,292.44a9.84,9.84,0,0,1,2.13-14.61,12.38,12.38,0,0,1,15.26,1.32Zm-7.33-16.69a8.08,8.08,0,0,0-2.32,16,10.56,10.56,0,0,1,2.32-16ZM76.06,278l.93.12q4.69.59,9.68,1a182.68,182.68,0,0,0,18.09,7.44,260.39,260.39,0,0,0,45,11.16l-1.7.19a404.77,404.77,0,0,1-71.6.86l-1.3-.1,18.33-8.86-.78-.53-11.32-7.69L76.06,278Zm89.26-1.64A220.67,220.67,0,0,0,205,266.7c26.21-9.37,47-24.67,62.26-43.44A140.16,140.16,0,0,0,296.69,157a145.58,145.58,0,0,0-6.55-71.92A139.22,139.22,0,0,0,258,33.86c22.64,19,38.13,42,46.69,66.47a139.8,139.8,0,0,1-17.4,127.06c-14.15,20.16-34.14,37.48-59.76,49.75a335.78,335.78,0,0,1-57.12-.29q-2.54-.23-5.08-.49Zm-94.56.95h0A1.38,1.38,0,0,1,72,278.77l-1.4,18.4a1.4,1.4,0,0,1-1.49,1.28h0A1.38,1.38,0,0,1,67.87,297l1.4-18.4a1.4,1.4,0,0,1,1.49-1.28Z" style="fill:#fefefe"/><path d="M243.41,300.45l-5,.39a406.81,406.81,0,0,1-72-.86c-21.16-2.25-42.1-6.5-61.73-13.38-35-12.26-61.4-33-79-58A141.86,141.86,0,0,1,8.12,99.66C18.27,70.72,38,43.72,67.66,22.89a13.75,13.75,0,0,1,2.44-1.48c.78-.29,1.29-.07,1.55.56a1.25,1.25,0,0,1-.24,1.27,13.69,13.69,0,0,1-2.06,2A137.2,137.2,0,0,0,26.53,85.74a143.53,143.53,0,0,0-6.46,70.91,138.1,138.1,0,0,0,29,65.31c15,18.48,35.52,33.56,61.36,42.8,17.39,6.22,38.52,10.17,60,12.08,23.47,2.09,47.32,1.74,67.09-.76q4.1-.52,8.15-1.15,2.2-.34,4.39-.72a15.33,15.33,0,0,1,3.65-1,14.85,14.85,0,0,1,9.91,2,15.1,15.1,0,0,1,18.85-2.74,15.08,15.08,0,0,1,19.43-2.37,12.73,12.73,0,0,1,5.53,8.69,12.33,12.33,0,0,1,.05,3.15c1.69,10.59,3.73,20.34-.78,26.64-7.44,10.38-50,11.53-57.22,5.47-4.56-3.82-5.19-8.29-6-13.6h-.06Zm14.06-1a14.94,14.94,0,0,1-8.87-1.4l.34,2.35c2,13.78,23.77,11.11,34.08,9.67,12.09-1.68,23.74-6.31,21.63-19l-.29-2.12a15.09,15.09,0,0,1-19.1,3,14.86,14.86,0,0,1-8.94,4.72h0a14.85,14.85,0,0,1-9.91-2,14.86,14.86,0,0,1-8.94,4.72Z" style="fill:#373435"/><path d="M242.16,296.05l-13.93-6.73L241,280.65l.22,2.86-7.82,5.31-.2.13,8.75,4.23.22,2.87Zm44.72-6.32A12.36,12.36,0,0,0,302.43,287a9.84,9.84,0,0,0-2.13-14.61,12.36,12.36,0,0,0-15.7,1.77,12.47,12.47,0,0,1,2.27,15.62Zm6.69-17.1a8.08,8.08,0,0,1,2.32,16,10.56,10.56,0,0,0-2.32-16ZM275.93,294a12.06,12.06,0,0,0,7.65-4.26,9.84,9.84,0,0,0-2.13-14.61,12.36,12.36,0,0,0-15.7,1.77A12.47,12.47,0,0,1,268,292.47a12.15,12.15,0,0,0,7.9,1.48Zm-1.21-18.58a8.08,8.08,0,0,1,2.32,16,10.56,10.56,0,0,0-2.32-16Zm-26.18,19.44a12.34,12.34,0,0,0,16.19-2.37,9.84,9.84,0,0,0-2.13-14.61,12.38,12.38,0,0,0-15.26,1.32Zm7.33-16.69a8.08,8.08,0,0,1,2.32,16,10.56,10.56,0,0,0-2.32-16ZM238.67,278l-.93.12c-19.9,2.52-43.91,2.87-67.53.77C148.58,277,127.27,273,109.73,266.7c-26.21-9.37-47-24.67-62.26-43.44A140.16,140.16,0,0,1,18,157a145.58,145.58,0,0,1,6.55-71.92A139.22,139.22,0,0,1,56.75,33.86c-22.64,19-38.13,42-46.69,66.47a139.8,139.8,0,0,0,17.4,127.06c17.34,24.71,43.46,45.15,78,57.26,19.47,6.83,40.25,11,61.27,13.28a404.77,404.77,0,0,0,71.6.86l1.3-.1-18.33-8.86.78-.53,11.32-7.69,5.3-3.61Zm5.3-.7h0a1.38,1.38,0,0,0-1.27,1.47l1.4,18.4a1.4,1.4,0,0,0,1.49,1.28h0a1.38,1.38,0,0,0,1.27-1.47l-1.4-18.4A1.4,1.4,0,0,0,244,277.3Z" style="fill:#fefefe"/><polygon points="140.67 37.7 140.67 37.7 140.67 37.7 140.67 37.7" style="fill:#373435"/><path d="M204.24,62.69a.64.64,0,0,0,.22-.48.65.65,0,0,0,0-.1.93.93,0,0,0-.12-.31L189.58,34.52c-.27-.5-.44-.84-1.07-.58l-1.21.5a7,7,0,0,0-4.82-1.07c-1.53.31-2.43,1.19-3.68,2a21.53,21.53,0,0,1-4.74,2.3,16.94,16.94,0,0,0-1.54-4.34l21-12.18-.82-1.42-21,12.18-.4-.59a17.06,17.06,0,0,0-1.28-1.6l8.91-9-1.16-1.16-8.9,8.95a17,17,0,0,0-2.23-1.72l12-21-1.43-.82-12,21A16.89,16.89,0,0,0,162.64,25l3.23-12.21-1.59-.42-3.23,12.2-.74-.14a17.09,17.09,0,0,0-2-.23L158.21,0h-1.69l-.07,24.17a17.27,17.27,0,0,0-2,.23l-.74.14-3.23-12.2-1.59.42L152.09,25a16.81,16.81,0,0,0-2.58,1.07l-12-21L136,5.87l12,21a16.93,16.93,0,0,0-2.23,1.72L137,19.64,135.8,20.8l8.91,9a17,17,0,0,0-1.28,1.6l-.4.59-21-12.18-.82,1.42,21,12.18a16.94,16.94,0,0,0-1.54,4.34h0a21.55,21.55,0,0,1-4.74-2.3c-1.25-.84-2.15-1.73-3.68-2a7,7,0,0,0-4.82,1.07l-1.21-.5c-.63-.26-.8.07-1.07.58L110.41,61.79a.93.93,0,0,0-.12.31.65.65,0,0,0,0,.1.64.64,0,0,0,.22.48.78.78,0,0,0,.22.13l46.65,19.27L204,62.82A.78.78,0,0,0,204.24,62.69Z" style="fill:#373435"/><path d="M294.36,128.81c-.13-.71-.33-1.52-1.26-1.47s-1,1.07-1.3,1.79l-.08.19c0-.47,0-.91,0-1.32a1.34,1.34,0,0,0-.72-1.19,1.3,1.3,0,0,0-.8-.13q.12-.53.2-1.07a38.91,38.91,0,0,0,.31-6.22,63.16,63.16,0,0,0-.5-6.71,2.47,2.47,0,0,0-.34-1.21,1.3,1.3,0,0,0-1.41-.49c0-.36.06-.73.07-1.09a38.83,38.83,0,0,0-.42-6.21,62.88,62.88,0,0,0-1.34-6.81,2,2,0,0,0-.42-1,1.31,1.31,0,0,0-1.46-.32q0-.54-.06-1.09h0a18.53,18.53,0,0,0,.38-1.86c.76-5-.34-10.94-4-18.25a16.23,16.23,0,0,0-1.67-2.89,1,1,0,0,0-.87-.16,1.09,1.09,0,0,0-.81,1.16,9.22,9.22,0,0,1-.09,2l-.29-.74a62,62,0,0,0-3.08-6.62,1.42,1.42,0,0,0-.46-.51,1.31,1.31,0,0,0-1.49,0q-.13-.52-.31-1a38.85,38.85,0,0,0-2.57-5.68,62.77,62.77,0,0,0-3.68-6,1.89,1.89,0,0,0-.57-.62,1.36,1.36,0,0,0-.85-.19,1.29,1.29,0,0,0-.74.35c-.13-.34-.28-.68-.44-1A38.81,38.81,0,0,0,260,47.15a63.08,63.08,0,0,0-4.21-5.33,2.25,2.25,0,0,0-.91-.76,1.29,1.29,0,0,0-1.44.39q-.26-.48-.55-.95a38.79,38.79,0,0,0-3.83-4.91,63.12,63.12,0,0,0-4.8-4.78,3.13,3.13,0,0,0-.88-.63q-3.34-2.79-6.86-5.36t-7.21-4.92a11.43,11.43,0,0,0-3.77-1.78c-.31,0-.51,0-.61.16s-.07.35.09.61a10.72,10.72,0,0,0,3,2.5q3.56,2.25,7,4.73t6.61,5.12c0,.17-.06.35-.08.53a60.74,60.74,0,0,0-.48,6.93,9.52,9.52,0,0,0-3.46-4.61,13.47,13.47,0,0,0-2.4-1.44,38.79,38.79,0,0,0-5.86-2.1,63.21,63.21,0,0,0-6.54-1.46,3.79,3.79,0,0,0-1-.08l-1.49-.91-1.54-.91c-1.55-.9-3.14-1.76-4.74-2.58s-3.22-1.63-4.84-2.42a16.43,16.43,0,0,0-4.74-1.71c-.37,0-.6,0-.68.2s0,.38.26.65A17.46,17.46,0,0,0,208.48,24q2.31,1.08,4.59,2.27t4.49,2.46q1.59.91,3.14,1.88a1.44,1.44,0,0,0,.1.29,62.06,62.06,0,0,0,3.43,6.45,40.86,40.86,0,0,0,3.22,4.61c-1.92.45-3.72,1-5.14,1.45q-2.65-1.91-5.41-3.67t-5.67-3.38a18.7,18.7,0,0,0-4.93-2.07c-.37-.06-.63,0-.75.08s-.1.36.17.66A19.92,19.92,0,0,0,210,37.88q2.8,1.55,5.49,3.25t5.22,3.51v0c-.13.82.4,1.2,1,1.62a63.21,63.21,0,0,0,5.61,3.77c1.29.77,2.63,1.5,3.93,2.11a1.3,1.3,0,0,0-.42.65,1.34,1.34,0,0,0,.37,1.35c1.11,1.1,2.68,2.52,4.42,3.93a1.87,1.87,0,0,0-.32.79l-.07.31q-1.12-1-2.27-2.06-1.8-1.58-3.68-3.09t-3.81-2.93A19.06,19.06,0,0,0,223.89,50a4.84,4.84,0,0,0-1.13-.53.84.84,0,0,0-.36,0,.39.39,0,0,0-.27.17.42.42,0,0,0-.05.3,1,1,0,0,0,.14.33h0a5.19,5.19,0,0,0,.87,1,17.7,17.7,0,0,0,1.49,1.21q1.9,1.4,3.73,2.87t3.6,3q.85.75,1.67,1.5L234.82,61a60.55,60.55,0,0,0-.92,6,9.36,9.36,0,0,0-3-5.5,13.71,13.71,0,0,0-1.58-1.28q.11-.51.22-1c.25-1.07.93-2.3-.31-3-.52-.29-1.25,0-2.05.67a12.73,12.73,0,0,0-1.36,1.3c-1-.46-1.93-.87-2.84-1.24a63.88,63.88,0,0,0-6.53-2.24,3.29,3.29,0,0,0-1-.18q-1.93-1.42-3.92-2.75t-4.09-2.58a12.1,12.1,0,0,0-3.85-1.72c-.31,0-.52,0-.6.18s0,.36.14.62A12.11,12.11,0,0,0,206.46,51q2,1.2,4,2.5t3.81,2.67a4.13,4.13,0,0,0,.18.65,63.79,63.79,0,0,0,2.6,6.51,42.72,42.72,0,0,0,2.47,4.6c-1.92.26-3.71.58-5.12.89a5.63,5.63,0,0,0-.6.16l-1.36-1.17L211,66.58a10.31,10.31,0,0,0-3.44-2,.69.69,0,0,0-.63.07c-.13.13-.14.33,0,.61A11.23,11.23,0,0,0,209.76,68l1.59,1.25q.76.62,1.51,1.25a2.36,2.36,0,0,0,.73,1c1.19,1.13,2.8,2.53,4.58,3.91a23.64,23.64,0,0,0,1.58,9.16c2,5.27,5.78,10.31,11,14.88a3.54,3.54,0,0,0,3.31,1,2,2,0,0,0,1.16-.87l.58.68a1.32,1.32,0,0,0-1,1.1,1.93,1.93,0,0,0,.2,1c.51,1.37,1.22,3.08,2.07,4.86-3.81,6.3-4.29,14.44,1.69,25.82.35.66.68,1.42,1.59,1.16s.74-1,.75-1.71a8,8,0,0,1,.07-1c.1.79.22,1.59.36,2.4.24,1.38.53,2.77.88,4.09a1.32,1.32,0,0,0-1.37.55,1.84,1.84,0,0,0-.26,1c-.12,1.25-.23,2.81-.27,4.5-4.08,2.59-6.6,7.18-8.21,11.64a45.74,45.74,0,0,0-1.86,8.91c-.18,1.4-.9,5.63.85,5.74.8.05,1.63-1.15,2.34-2.17-.29.86-.58,1.75-.85,2.67a40.63,40.63,0,0,0-1.31,5.84,169.2,169.2,0,0,0-40.21-13.53V125.73a19.74,19.74,0,0,0-.89-6.44,14.29,14.29,0,0,0-3.6-5.62L158,84.89l53.61,28.2a2,2,0,0,0,.9.34,1,1,0,0,0,1-1.05q0-3.34,0-6.67a1.74,1.74,0,0,0-.28-.94,3.31,3.31,0,0,0-1.51-1,50.36,50.36,0,0,1-5.18-2.82A34.3,34.3,0,0,1,200.53,96a13.87,13.87,0,0,1-4-1.39,22.61,22.61,0,0,1-4-2.75A38.72,38.72,0,0,1,189,88.52a13.69,13.69,0,0,1,2.29.26,15.14,15.14,0,0,1,4.06,1.44,19.68,19.68,0,0,1,1.95,1.17A11.27,11.27,0,0,1,199.35,93c3.47-.32,9.32,2.81,12.35,4.39a1.41,1.41,0,0,0,1.18.25,1,1,0,0,0,.68-1V91.47a1.71,1.71,0,0,0-.4-1.11,2.54,2.54,0,0,0-.9-.62l-32.31-17-22.58,9.33h0l-22.58-9.33-32.31,17a2.54,2.54,0,0,0-.9.62,1.71,1.71,0,0,0-.4,1.11v5.17a1,1,0,0,0,.68,1,1.41,1.41,0,0,0,1.18-.25c3-1.58,8.87-4.71,12.35-4.39a11.28,11.28,0,0,1,2.05-1.61,19.64,19.64,0,0,1,1.95-1.17,15.17,15.17,0,0,1,4.06-1.44,13.73,13.73,0,0,1,2.29-.26,38.84,38.84,0,0,1-3.53,3.34,22.62,22.62,0,0,1-4,2.75,13.87,13.87,0,0,1-4,1.39,34.32,34.32,0,0,1-6.07,4.94,50.43,50.43,0,0,1-5.18,2.82,3.32,3.32,0,0,0-1.51,1,1.74,1.74,0,0,0-.28.94q0,3.34,0,6.67a1,1,0,0,0,1,1.05,2,2,0,0,0,.9-.34l53.61-28.2-28.78,28.78a14.28,14.28,0,0,0-3.6,5.62,19.73,19.73,0,0,0-.89,6.44v37.36a169.17,169.17,0,0,0-40.21,13.53,40.56,40.56,0,0,0-1.31-5.84c-.27-.91-.56-1.81-.85-2.67.72,1,1.54,2.22,2.34,2.17,1.74-.11,1-4.34.85-5.74a45.8,45.8,0,0,0-1.86-8.91c-1.61-4.46-4.12-9.05-8.21-11.64,0-1.69-.14-3.25-.27-4.5a1.84,1.84,0,0,0-.26-1,1.32,1.32,0,0,0-1.37-.55c.35-1.32.64-2.71.88-4.09.14-.81.26-1.62.36-2.4a7.94,7.94,0,0,1,.07,1c0,.7-.11,1.47.75,1.71s1.24-.5,1.59-1.16c6-11.38,5.5-19.52,1.69-25.82.84-1.78,1.56-3.5,2.07-4.86a1.93,1.93,0,0,0,.2-1,1.32,1.32,0,0,0-1-1.1l.58-.68a2,2,0,0,0,1.16.87,3.54,3.54,0,0,0,3.31-1c5.23-4.56,9-9.61,11-14.88a23.64,23.64,0,0,0,1.58-9.16c1.77-1.38,3.38-2.78,4.58-3.91a2.36,2.36,0,0,0,.73-1q.74-.64,1.51-1.25L105,68a11.23,11.23,0,0,0,2.86-2.78c.14-.28.14-.48,0-.61a.69.69,0,0,0-.63-.07,10.33,10.33,0,0,0-3.44,2l-1.44,1.18L101,68.93a5.55,5.55,0,0,0-.6-.16c-1.41-.31-3.2-.64-5.12-.89a42.68,42.68,0,0,0,2.47-4.6,63.78,63.78,0,0,0,2.6-6.51,4.14,4.14,0,0,0,.18-.65q3.76-2.77,7.78-5.17a12.11,12.11,0,0,0,3.36-2.59c.18-.26.23-.47.14-.62s-.29-.21-.6-.18a12.12,12.12,0,0,0-3.85,1.72q-2.08,1.24-4.09,2.58T99.3,54.62a3.29,3.29,0,0,0-1,.18A64,64,0,0,0,91.79,57c-.91.37-1.88.78-2.84,1.24A12.7,12.7,0,0,0,87.59,57c-.8-.64-1.53-1-2.05-.67-1.23.67-.56,1.9-.31,3,.08.32.15.66.22,1a13.71,13.71,0,0,0-1.58,1.28,9.36,9.36,0,0,0-3,5.5,60.68,60.68,0,0,0-.92-6l1.24-1.16q.82-.75,1.67-1.5,1.77-1.56,3.6-3t3.73-2.87a17.61,17.61,0,0,0,1.49-1.21,5.17,5.17,0,0,0,.87-1h0a1,1,0,0,0,.14-.33.42.42,0,0,0-.05-.3.39.39,0,0,0-.27-.17.85.85,0,0,0-.36,0,4.86,4.86,0,0,0-1.13.53,19,19,0,0,0-1.59,1.06Q87.32,52.52,85.45,54t-3.68,3.09l-1.42,1.27-.85.78-.07-.31a1.87,1.87,0,0,0-.32-.79c1.74-1.41,3.31-2.83,4.42-3.93a1.34,1.34,0,0,0,.37-1.35,1.31,1.31,0,0,0-.42-.65c1.3-.61,2.64-1.34,3.93-2.11A63.19,63.19,0,0,0,93,46.28c.55-.42,1.09-.8,1-1.62v0q2.56-1.83,5.22-3.51t5.49-3.25A19.93,19.93,0,0,0,109,35c.27-.3.31-.52.17-.66s-.38-.15-.75-.08a18.7,18.7,0,0,0-4.93,2.07q-2.89,1.61-5.67,3.38t-5.41,3.67c-1.42-.47-3.23-1-5.14-1.45a40.8,40.8,0,0,0,3.22-4.61,62,62,0,0,0,3.43-6.45,1.44,1.44,0,0,0,.1-.29l1.54-.93,1.6-.94q4.44-2.55,9.08-4.73a17.46,17.46,0,0,0,4.47-2.65c.26-.27.34-.49.26-.65s-.31-.23-.68-.2a16.42,16.42,0,0,0-4.74,1.71c-1.63.79-3.24,1.59-4.84,2.42S97.54,26.29,96,27.19l-1.54.91L93,29a3.76,3.76,0,0,0-1,.08,63.21,63.21,0,0,0-6.54,1.46,38.77,38.77,0,0,0-5.86,2.1,13.44,13.44,0,0,0-2.4,1.44,9.52,9.52,0,0,0-3.46,4.61,60.72,60.72,0,0,0-.48-6.93c0-.18,0-.36-.08-.53q3.22-2.66,6.61-5.12t7-4.73a10.72,10.72,0,0,0,3-2.5c.16-.26.19-.47.09-.61s-.3-.2-.61-.16a11.43,11.43,0,0,0-3.77,1.78q-3.68,2.34-7.21,4.92t-6.86,5.36a3.13,3.13,0,0,0-.88.63,63,63,0,0,0-4.8,4.78,38.83,38.83,0,0,0-3.83,4.91q-.3.46-.55.95a1.29,1.29,0,0,0-1.44-.39,2.24,2.24,0,0,0-.91.76,63.09,63.09,0,0,0-4.21,5.33,38.86,38.86,0,0,0-3.22,5.33c-.16.33-.3.67-.44,1a1.29,1.29,0,0,0-.74-.35,1.36,1.36,0,0,0-.85.19,1.89,1.89,0,0,0-.57.62,62.77,62.77,0,0,0-3.68,6,38.87,38.87,0,0,0-2.57,5.68q-.18.52-.31,1a1.31,1.31,0,0,0-1.49,0,1.41,1.41,0,0,0-.46.51,62.08,62.08,0,0,0-3.08,6.62l-.29.74a9.22,9.22,0,0,1-.09-2,1.09,1.09,0,0,0-.81-1.16,1,1,0,0,0-.87.16,16.21,16.21,0,0,0-1.67,2.89c-3.71,7.31-4.81,13.29-4,18.25a18.53,18.53,0,0,0,.38,1.86h0q-.05.55-.06,1.09a1.31,1.31,0,0,0-1.46.32,2,2,0,0,0-.42,1,62.88,62.88,0,0,0-1.34,6.81,38.83,38.83,0,0,0-.42,6.21c0,.37,0,.73.07,1.09a1.3,1.3,0,0,0-1.41.49,2.47,2.47,0,0,0-.34,1.21,63.29,63.29,0,0,0-.5,6.71,38.91,38.91,0,0,0,.31,6.22q.08.54.2,1.07a1.3,1.3,0,0,0-.8.13A1.34,1.34,0,0,0,23,128c0,.4,0,.84,0,1.32l-.08-.19c-.27-.72-.3-1.74-1.3-1.79s-1.13.76-1.26,1.47a41.66,41.66,0,0,0,0,10.72,28.19,28.19,0,0,0,2.88,10.14,17.79,17.79,0,0,0,1.33,2.14,37.32,37.32,0,0,0,1.62,5.34q.2.51.45,1a1.29,1.29,0,0,0-1.16,1,2.38,2.38,0,0,0,.1,1.21,63.18,63.18,0,0,0,1.88,6.49A38.91,38.91,0,0,0,30,172.53q.26.48.56.94a1.31,1.31,0,0,0-1,1.08,2.18,2.18,0,0,0,.22,1.13A63.18,63.18,0,0,0,32.41,182a38.86,38.86,0,0,0,3.12,5.39q.32.45.67.86a1.31,1.31,0,0,0-.66.48,1.36,1.36,0,0,0-.1,1.39c.61,1.27,1.49,2.91,2.52,4.63l-.86-.3c-1.34-.43-1.85.59-1.4,1.73a86.2,86.2,0,0,0,9.48,15.76,16,16,0,0,0,5.56,4.9c4.36,2.37,9.65,3,15,2.59q1.56,1.66,3.18,3.27l-6.09,7.39a145,145,0,0,0,17.79,14.66l6.08-7.39a125.51,125.51,0,0,0,17.54,10l-3.24,9a143.32,143.32,0,0,0,21.7,7.78l3.23-9a125.4,125.4,0,0,0,19.88,3.45v9.57c3.89.3,7.72.46,11.54.46s7.64-.15,11.54-.46v-9.57a125.35,125.35,0,0,0,19.88-3.45l3.23,9a143.32,143.32,0,0,0,21.7-7.78l-3.24-9a125.49,125.49,0,0,0,17.54-10l6.08,7.39a145,145,0,0,0,17.79-14.66l-6.09-7.39q1.63-1.61,3.18-3.27c5.35.41,10.64-.22,15-2.59a16,16,0,0,0,5.56-4.9A86.18,86.18,0,0,0,279,196.15c.45-1.13-.07-2.16-1.4-1.73l-.86.3c1-1.72,1.91-3.36,2.52-4.63a1.36,1.36,0,0,0-.1-1.39,1.31,1.31,0,0,0-.66-.48q.35-.42.67-.86a38.85,38.85,0,0,0,3.12-5.39,63.17,63.17,0,0,0,2.66-6.29,2.17,2.17,0,0,0,.22-1.13,1.31,1.31,0,0,0-1-1.08q.3-.46.56-.94a38.91,38.91,0,0,0,2.46-5.72,63.29,63.29,0,0,0,1.88-6.49,2.38,2.38,0,0,0,.1-1.21,1.29,1.29,0,0,0-1.16-1q.24-.49.45-1a37.29,37.29,0,0,0,1.62-5.34,17.71,17.71,0,0,0,1.33-2.14,28.21,28.21,0,0,0,2.88-10.14A41.66,41.66,0,0,0,294.36,128.81Zm-137,86.92a82.07,82.07,0,0,1-54.16-20.32,141.38,141.38,0,0,1,108.32,0A82.07,82.07,0,0,1,157.37,215.74Z" style="fill:#373435"/><path d="M87.15,59.11A47.92,47.92,0,0,1,88,78a24.82,24.82,0,0,0-4.91-3.77,14.36,14.36,0,0,0-7.29-2.09c2.44,4,5.25,9,6.47,14s.67,6.57-.87,11.1c-.63,1.84.21,1.74,1.3.79,6-5.23,11.35-12.3,11.9-20.51.51-7.53-2.82-12.81-7.47-18.38Zm39,66.62v36.83l2.12-.38V127.58c0-4.21.81-7.42,3.84-10.49L157.37,91.4l25.22,25.69c3,3.08,3.84,6.29,3.84,10.49v34.59l2.12.38V125.73c0-4.13-.68-7.12-3.68-10.12L157.37,88.12l-27.49,27.49c-3,3-3.68,6-3.68,10.12Zm4.45,1.85v34.21q4.78-.75,9.59-1.24V150.4h11.4v-9.22H163V132h21.06v-4.37c0-3.6-.57-6.22-3.16-8.87l-23.56-24-23.56,24C131.21,121.36,130.64,124,130.64,127.58Zm53.44,34.21v-9.21H142.43v7.76q7.45-.65,14.94-.65A171.56,171.56,0,0,1,184.09,161.79Zm0-11.4v-7H153.82v7Zm0-9.22v-7H165.22v7Zm43.49-82.07a47.92,47.92,0,0,0-.86,18.9,24.82,24.82,0,0,1,4.91-3.77,14.36,14.36,0,0,1,7.29-2.09c-2.44,4-5.25,9-6.47,14s-.67,6.57.87,11.1c.63,1.84-.21,1.74-1.3.79-6-5.23-11.35-12.3-11.9-20.51-.51-7.53,2.82-12.81,7.47-18.38ZM157.36,25.8A15.46,15.46,0,0,1,160,26a15.35,15.35,0,0,1,12.45,12.21c-1,.31-1.92.59-2.88.88a37.37,37.37,0,0,0-8.07,3c-1.49.87-3.63,2.54-4.17,4.27-.54-1.73-2.68-3.4-4.17-4.27a37.37,37.37,0,0,0-8.07-3c-1-.28-1.93-.57-2.88-.88A15.36,15.36,0,0,1,157.36,25.8Zm119.3,171a123.9,123.9,0,0,1-6.46,10.92,29.54,29.54,0,0,1-3.41,4.61,14.16,14.16,0,0,1-2.3,2C260,217.35,254,218,248,217.39a54.19,54.19,0,0,1-15.37-4.16c-4-1.73-7.14-3.66-8.67-5.2-.24-.24-.88-.93-.85-1.23s1.45-.54,3-.76a22.84,22.84,0,0,0,3.11-.57,2.92,2.92,0,0,0,2-1.39c1.41-1.81,8.25-10.59,10.41-13.34,3.48,2.07,17.48,9.82,31.9,6.84a24.33,24.33,0,0,0,3.06-.82Zm-119.3-35.15a168,168,0,0,1,81.79,21.14c.72.4,1.59.84,2.28,1.27a2.11,2.11,0,0,1,1,1.19c.24.83-.26,1.5-.77,2.18L230.1,202.61a142.95,142.95,0,0,0-145.48,0L73.06,187.39c-.51-.68-1-1.34-.77-2.18a2.1,2.1,0,0,1,1-1.19c.69-.43,1.56-.87,2.28-1.27a168,168,0,0,1,81.79-21.14Zm0,56a84,84,0,0,0,56.1-21.41q5.62,2.44,11,5.37c-.55.78-2.28,2.93-2.93,4-.83,1.36-.11,2.57.89,3.61,1.67,1.74,5.09,3.88,9.41,5.75a56.91,56.91,0,0,0,14.72,4.16c-1.1,1.15-2.23,2.27-3.37,3.38l6.07,7.38a134,134,0,0,1-14.84,12.23l-6.07-7.38a131.36,131.36,0,0,1-20.29,11.55l3.23,9a132,132,0,0,1-18.1,6.49l-3.23-9a131.21,131.21,0,0,1-23,4v9.56a135.33,135.33,0,0,1-19.24,0v-9.56a131.21,131.21,0,0,1-23-4l-3.23,9a131.92,131.92,0,0,1-18.1-6.49l3.23-9a131.35,131.35,0,0,1-20.29-11.55l-6.07,7.38a134,134,0,0,1-14.84-12.23l6.07-7.38c-1.14-1.11-2.27-2.24-3.37-3.38A56.93,56.93,0,0,0,82.87,215c4.32-1.87,7.74-4,9.41-5.75,1-1,1.72-2.25.89-3.61-.65-1.07-2.38-3.23-2.93-4q5.39-2.93,11-5.37a84,84,0,0,0,56.1,21.41ZM220.54,65.94c-.63-1.09-1.23-2.28-1.79-3.47-.94-2-1.74-4-2.31-5.67,1.66.49,3.72,1.18,5.78,2,.76.31,1.53.64,2.27,1a44.24,44.24,0,0,0-2.62,3.7q-.74,1.21-1.33,2.45Zm8.34-3.59q.35.28.67.58c1.45,1.38,2.82,3.48,2.4,5.58a12.86,12.86,0,0,0-3.73-1c.15-1.75.38-3.51.67-5.17Zm10.46-21a11.93,11.93,0,0,0-1.67-.4,13.45,13.45,0,0,0-2.79-.16,36.66,36.66,0,0,0-5.3.69l-.29-.33a37,37,0,0,1-3.43-4.82c-1.13-1.86-2.13-3.74-2.87-5.27,1.68.29,3.76.74,5.86,1.33a37,37,0,0,1,5.57,2,11.54,11.54,0,0,1,2.05,1.24,8,8,0,0,1,2.61,3.17A4.09,4.09,0,0,1,239.34,41.34Zm2,9.26a59,59,0,0,0-6.93.77q-.43-.13-.86-.3a47.38,47.38,0,0,1-10.28-6c3.8-1.22,10.21-2.88,14.05-2.25a7.77,7.77,0,0,1,4,1.81,13.27,13.27,0,0,0,1.16,3.87,3.82,3.82,0,0,1-1.19,2.08Zm8,.57c-3.56.54-5.58-3.71-6-6.66a47.34,47.34,0,0,1,.07-11.9,55.41,55.41,0,0,1,6.25,6.64,15.45,15.45,0,0,1,2.94,5.12c-.41,1.9-.74,3.83-1,5.76a4.46,4.46,0,0,1-2.27,1Zm2.68,8a3.81,3.81,0,0,1-1.43,1.93,58.71,58.71,0,0,0-7-.06q-.42-.18-.82-.4a37,37,0,0,1-4.92-3.27c-1.73-1.33-3.33-2.73-4.57-3.9,1.68-.33,3.79-.65,5.94-.85,2.53-.24,5.8-.43,8.27.28a7.77,7.77,0,0,1,3.81,2.28,13.18,13.18,0,0,0,.69,4Zm6.43,3.44a4,4,0,0,1-3-1.3,8,8,0,0,1-1.87-3.66,11.51,11.51,0,0,1-.32-2.37,37,37,0,0,1,.38-5.9c.29-2.16.71-4.25,1.1-5.9,1.11,1.28,2.45,2.95,3.7,4.73a37,37,0,0,1,3.06,5.06,11.26,11.26,0,0,1,1,3c-.63,1.84-1.18,3.71-1.64,5.6a4.49,4.49,0,0,1-2.38.77Zm1.7,8.31a3.82,3.82,0,0,1-1.64,1.74,58.1,58.1,0,0,0-6.93-.88c-.26-.15-.51-.32-.76-.49a37,37,0,0,1-4.5-3.83c-1.56-1.52-3-3.11-4.08-4.41,1.7-.13,3.83-.2,6-.14a37,37,0,0,1,5.89.57c2.14.42,4.59,1.53,5.8,3.41a13.19,13.19,0,0,0,.21,4Zm6,4.17c-2.73-.24-4-3.1-4.25-5.5-.31-2.57.4-5.74,1-8.21.54-2.1,1.2-4.13,1.8-5.73,1,1.4,2.08,3.21,3.11,5.13a37,37,0,0,1,2.44,5.38,11.28,11.28,0,0,1,.6,3.08c-.84,1.75-1.62,3.54-2.29,5.36a4.49,4.49,0,0,1-2.45.48Zm.71,8.45A3.83,3.83,0,0,1,265,85.13a58.25,58.25,0,0,0-6.77-1.7q-.36-.27-.7-.58a37,37,0,0,1-4-4.34c-1.37-1.7-2.6-3.44-3.53-4.87,1.69.08,3.81.26,6,.57,2.54.37,5.72.93,8,2.22a7.77,7.77,0,0,1,3.16,3.11,13.27,13.27,0,0,0-.27,4ZM269,84.88a9.44,9.44,0,0,1-.31-2.39c0-2.59,1.08-5.65,2-8,.79-2,1.69-4,2.46-5.48.78,1.5,1.68,3.43,2.48,5.47.39,1,.76,2,1.08,3-1.45,2.78-4.25,5.17-7.73,7.43Zm-9.64,5.45v0c-1.16-1.85-2.17-3.73-2.92-5.25,1.67.28,3.76.71,5.87,1.28.9.24,1.88.52,2.87.85-1.85,1-3.81,2.08-5.8,3.14h0Zm16.13,20.44a3.81,3.81,0,0,1-2.15,1.06c-1.07-.65-2.17-1.26-3.29-1.84a52.23,52.23,0,0,0,6.37-4q.11.27.19.54c0,.11.06.22.09.33a13.31,13.31,0,0,0-1.21,3.86Zm4.14,6a3.94,3.94,0,0,1-2.08-2.53,8,8,0,0,1,0-4.11c.6-2.5,2.39-5.25,3.84-7.33,1.24-1.78,2.57-3.45,3.68-4.74.4,1.65.83,3.74,1.13,5.9a37.09,37.09,0,0,1,.41,5.9,11.29,11.29,0,0,1-.51,3.09c-1.4,1.34-2.75,2.76-4,4.23a4.44,4.44,0,0,1-2.47-.41Zm-2.29,8.17a3.84,3.84,0,0,1-2.26.8,58.83,58.83,0,0,0-5.75-4,30.2,30.2,0,0,1-2.7-6.25c-.37-1.12-.7-2.24-1-3.3l2.32-1.15c.8.39,1.64.82,2.47,1.28,2.23,1.22,5,2.88,6.7,4.86a7.77,7.77,0,0,1,1.88,4,13.22,13.22,0,0,0-1.66,3.69Zm3.4,6.44a3.94,3.94,0,0,1-1.76-2.76,8,8,0,0,1,.5-4.08c.9-2.43,3-4.91,4.68-6.82,1.45-1.62,3-3.13,4.22-4.28.2,1.69.38,3.82.42,6a36.9,36.9,0,0,1-.3,5.91,11.3,11.3,0,0,1-.87,3c-1.55,1.17-3.05,2.41-4.49,3.72a4.51,4.51,0,0,1-2.41-.69ZM273,137.69c-1-.93-2.09-1.8-3.06-2.56A30,30,0,0,1,268,128.6c-.43-2.13-.73-4.24-.9-5.94,1.48.85,3.29,2,5.05,3.24,2.08,1.48,4.66,3.45,6.07,5.63a7.77,7.77,0,0,1,1.39,4.21q-.39.47-.73,1C277,137.09,275,137.41,273,137.69Zm8.91-1.69a41.88,41.88,0,0,1,3.23-3.14c1.63-1.44,3.31-2.75,4.7-3.74,0,.91,0,2-.08,3.05a18.45,18.45,0,0,1-7.85,3.83Zm-14.31,2.36c0-.94,0-1.83,0-2.62.86.64,1.85,1.42,2.87,2.28Zm10.16,22.12a3.7,3.7,0,0,1-.82-1.29,34.55,34.55,0,0,0,8.57-3.24,13.79,13.79,0,0,0,1.84-1.23c-.19.6-.4,1.17-.62,1.72a11.28,11.28,0,0,1-1.55,2.72c-1.78.77-3.54,1.62-5.24,2.56a4.48,4.48,0,0,1-2.17-1.24Zm-5,6.86a3.81,3.81,0,0,1-2.4,0,58.15,58.15,0,0,0-4-5.71q-.07-.33-.12-.66a84.16,84.16,0,0,0,8.85-1.31l.16.42a7.78,7.78,0,0,1,.36,4.43,13.22,13.22,0,0,0-2.84,2.88Zm.93,7.22a3.94,3.94,0,0,1-.69-3.2,8,8,0,0,1,1.89-3.65,11.57,11.57,0,0,1,1.75-1.64,36.9,36.9,0,0,1,5-3.12c1.93-1,3.87-1.9,5.44-2.53-.4,1.66-1,3.71-1.7,5.76a36.92,36.92,0,0,1-2.34,5.43,11.25,11.25,0,0,1-1.87,2.52c-1.41.42-3,1-4.61,1.57l-.89.35A4.51,4.51,0,0,1,273.68,174.56Zm-5.77,6.22a3.84,3.84,0,0,1-2.38-.32,58.38,58.38,0,0,0-3.3-6.15c0-.3,0-.6,0-.9a37,37,0,0,1,.5-5.9c.33-2.14.79-4.23,1.23-5.88,1.08,1.3,2.38,3,3.6,4.81a37.08,37.08,0,0,1,3,5.12,11.54,11.54,0,0,1,.77,2.27,7.79,7.79,0,0,1-.17,4.44,13.24,13.24,0,0,0-3.16,2.52Zm.07,7.29a3.94,3.94,0,0,1-.31-3.26,9.32,9.32,0,0,1,4.24-4.82,37,37,0,0,1,5.36-2.5c2-.78,4.06-1.42,5.71-1.87-.59,1.6-1.41,3.57-2.37,5.52a36.91,36.91,0,0,1-3,5.12,11.24,11.24,0,0,1-2.14,2.27c-1.92.33-3.83.74-5.7,1.25a4.47,4.47,0,0,1-1.82-1.71Zm-6.47,5.48a3.82,3.82,0,0,1-2.32-.61,59,59,0,0,0-2.55-6.49c0-.3,0-.6.06-.91a37,37,0,0,1,1.2-5.79c.59-2.09,1.29-4.11,1.91-5.69.92,1.43,2,3.26,3,5.2,1.17,2.28,2.56,5.2,2.82,7.78a7.78,7.78,0,0,1-.69,4.38,13.19,13.19,0,0,0-3.44,2.13Zm.26,2.45a9.46,9.46,0,0,1,1.73-1.58c2.11-1.51,5.21-2.4,7.7-3,2.11-.53,4.21-.93,5.89-1.18-.78,1.51-1.82,3.37-3,5.2l-.09.14A33.45,33.45,0,0,1,261.77,196ZM218.35,73.11c-1.12-.91-2.15-1.81-3-2.6,1.08-.22,2.35-.45,3.69-.65a22.87,22.87,0,0,0-.68,3.25Zm9.72-3.68a11.48,11.48,0,0,1,1.72.34,8.56,8.56,0,0,1,3.27,1.65,23.13,23.13,0,0,0-5,2.85,39.37,39.37,0,0,1,0-4.84ZM241,79.51a4,4,0,0,1-3.08-1.28l-.17-.18c.84-1.59,1.75-3.16,2.67-4.65.42-.69,1.16-1.51.71-2.37a1.3,1.3,0,0,0-1.1-.72,12.69,12.69,0,0,0-4.42.29,43.09,43.09,0,0,1,.34-4.47c.27-2.21.67-4.35,1.05-6,1.15,1.29,2.53,3,3.83,4.77A37.49,37.49,0,0,1,244,70a11.38,11.38,0,0,1,1,3.14c-.71,1.88-1.33,3.81-1.86,5.75a4.64,4.64,0,0,1-2.18.66Zm1.22,8.85a3.86,3.86,0,0,1-2,1.86,58.82,58.82,0,0,0-6.4-1.21,25.74,25.74,0,0,1,1.77-6.45q.38-.93.8-1.86a11.7,11.7,0,0,1,2.15.72,7.89,7.89,0,0,1,3.51,2.84,13.34,13.34,0,0,0,.13,4.11Zm5.95,4.37c-2.77-.3-4-3.25-4.21-5.68-.26-2.62.53-5.82,1.24-8.31.6-2.15,1.32-4.2,2-5.8.94,1.45,2.06,3.33,3.07,5.3a37.5,37.5,0,0,1,2.36,5.52A11.44,11.44,0,0,1,253.1,87c-1,1.75-1.89,3.56-2.7,5.41a4.66,4.66,0,0,1-2.26.32Zm-6.5,8.94c-.87-.29-1.73-.55-2.53-.77A31.06,31.06,0,0,1,234.9,96a13.38,13.38,0,0,1-1.06-3.32,13.11,13.11,0,0,1-.11-1.72c1.2.16,2.49.38,3.79.64,2.54.51,5.75,1.27,8,2.69a8.62,8.62,0,0,1,2.59,2.49,46.76,46.76,0,0,0-6.41,4.93Zm9.92-7.08c.27-.66.55-1.33.85-2,.92-2,1.94-3.95,2.8-5.44.56,1.25,1.19,2.78,1.78,4.41C255.18,92.55,253.35,93.55,251.57,94.59Zm-13.24,10.75c-.49-1.08-.92-2.11-1.27-3,.92.24,2,.53,3.07.87a26.22,26.22,0,0,0-1.8,2.15Zm17.82,16.31a4,4,0,0,1-2.2-2.5,6.11,6.11,0,0,1-.24-1c2.84-1.64,5.94-3.11,9-4.59l.26-.13a13.43,13.43,0,0,1-.43,4.19c-1.46,1.38-2.87,2.84-4.19,4.35a4.67,4.67,0,0,1-2.25-.37Zm-2.79,8.49a3.89,3.89,0,0,1-2.57.81,58.81,58.81,0,0,0-5.69-4.2c-.27-.44-.52-.91-.76-1.4a33,33,0,0,1,6.34-5.28l.71.54a11.72,11.72,0,0,1,1.75,1.69A7.89,7.89,0,0,1,255,126.4a13.43,13.43,0,0,0-1.69,3.75Zm3.43,6.54c-2.36-1.49-2.14-4.66-1.29-7a11.71,11.71,0,0,1,1.08-2.18,37.6,37.6,0,0,1,3.67-4.74c1.49-1.66,3-3.2,4.3-4.36.21,1.72.39,3.89.43,6.11.06,2.94,0,6.46-1.23,9.16-1.65,1.14-3.26,2.37-4.79,3.67a4.69,4.69,0,0,1-2.17-.7Zm-10.09,4.86q-.79-.76-1.61-1.49a31.68,31.68,0,0,1-1.67-6.48c-.37-2.2-.61-4.36-.73-6.07h0a48.4,48.4,0,0,1,9.54,7.44,10.27,10.27,0,0,1,2.66,5,78.26,78.26,0,0,0-8.21,1.63Zm13-2.28,1-.83c1.72-1.42,3.48-2.71,4.91-3.66,0,1.13-.11,2.44-.24,3.84-1.7.19-3.62.4-5.64.65ZM242.46,143c0-.91.09-1.77.16-2.54.61.51,1.27,1.1,2,1.74-.75.25-1.46.51-2.12.79Zm8.83,23.21a4.27,4.27,0,0,1-.71-4c2.22-.2,4.55-.36,6.93-.53l3.76-.26a14.09,14.09,0,0,1-2.45,4.07c-1.92.6-3.82,1.29-5.67,2.08a4.7,4.7,0,0,1-1.86-1.31Zm-6.23,6.41a3.86,3.86,0,0,1-2.67-.4,59.59,59.59,0,0,0-3.27-6.27c0-.52-.07-1.07-.07-1.63a37.81,37.81,0,0,1,8.1-1.77,14,14,0,0,1,1.14,2.94,7.9,7.9,0,0,1-.08,4.51,13.4,13.4,0,0,0-3.16,2.63Zm.21,7.38a4,4,0,0,1-.38-3.32,8.13,8.13,0,0,1,2.27-3.5,11.77,11.77,0,0,1,1.93-1.49,37.53,37.53,0,0,1,5.38-2.65c2-.84,4.11-1.54,5.78-2-.56,1.63-1.36,3.66-2.29,5.68a37.51,37.51,0,0,1-2.9,5.25,11.72,11.72,0,0,1-1.57,1.86q-.32.3-.66.58c-2,.31-4,.7-5.92,1.2a4.69,4.69,0,0,1-1.64-1.58Zm-12-2.45a32.58,32.58,0,0,1,1.31-6.21c.63-2.14,1.36-4.18,2-5.78.93,1.47,2,3.35,3,5.33,1.16,2.31,2.54,5.32,2.78,7.93a8.83,8.83,0,0,1-.32,3.42l-1-.55q-3.85-2.18-7.8-4.15Zm10.85,6.83c1.22-.42,2.53-.78,3.83-1.09,2.16-.52,4.3-.9,6-1.13-.81,1.53-1.9,3.42-3.12,5.27a39.61,39.61,0,0,1-3.26,4.32c-2.15-1-3.79-1.92-4.76-2.49a12.22,12.22,0,0,0,1.4-2.53,3.7,3.7,0,0,0-.1-2.34Zm6.83,8.79q.33-.9.7-1.79c.83-2,1.77-3.93,2.57-5.42.75,1.53,1.62,3.49,2.37,5.52.47,1.27.9,2.58,1.24,3.84a51,51,0,0,1-6.89-2.14ZM158.39,75.48a11.07,11.07,0,0,1,5.93-6,65.55,65.55,0,0,1,11.54-4.11s10-2.69,16.7-7.77l-10.22-23a3.65,3.65,0,0,1,3.39.48l13.79,25.46L159.95,77l-1.55-1.55Zm-.18-3.18a18.54,18.54,0,0,1,9-6L177,63.21s9.81-3,13.35-6.19l-9.7-21.65c-6.38,5.69-18.37,4.63-22.49,11.4Zm19.92,1.21,33.78,17.76a.23.23,0,0,1,.14.21V93.4c0,.25-.21.25-.37.17-4.43-2.32-7.72-4.08-12-4.33a23.52,23.52,0,0,0-3.95-2.64,15.1,15.1,0,0,0-7.78-1.77,10.52,10.52,0,0,0-1-.56,7.32,7.32,0,0,0-5.87-.59s2.68,3.83,5.94,5.52a8.94,8.94,0,0,0,.95.42,30.57,30.57,0,0,0,7.84,6.32,16.08,16.08,0,0,0,3.93,1.44,40.11,40.11,0,0,0,12.13,8.11.23.23,0,0,1,.14.21v1.84c0,.19,0,.37,0,.56a.22.22,0,0,1-.21.23.27.27,0,0,1-.14,0L159.88,81Zm114.58,58.06c0,1.09,0,2.27,0,3.41-.15,4.65-.76,9.65-3,13.8a13.21,13.21,0,0,1-5.2,5.51c-7.26,4.05-17.58,4.76-27.18,5.41-8.5.58-16.45,1.12-21.52,3.94a11,11,0,0,0-3.73,3.22,46.19,46.19,0,0,1,2-10.58,27.32,27.32,0,0,1,3.58-7,13.59,13.59,0,0,1,5.33-4.48c3.87-1.72,8.41-2.4,13-3.08,3.27-.49,6.55-.87,9.84-1.24,11.89-1.35,22.92-2.61,26.9-8.93ZM279.5,75.39c3.46,6.86,4.49,12.41,3.79,17-.75,4.9-3.53,8.68-7.44,11.7s-9,5.44-13.93,7.81a109.67,109.67,0,0,0-10.77,5.62,37.33,37.33,0,0,0-8.46,6.83,14.14,14.14,0,0,0-3.21,5.83c-10.23-21.71,6.15-30.39,20.77-38.14,9.22-4.88,17.77-9.41,19.25-16.62ZM38.07,196.77a123.9,123.9,0,0,0,6.46,10.92,29.54,29.54,0,0,0,3.41,4.61,14.16,14.16,0,0,0,2.3,2c4.51,3.1,10.49,3.77,16.5,3.14a54.19,54.19,0,0,0,15.37-4.16c4-1.73,7.14-3.66,8.67-5.2.24-.24.88-.93.85-1.23s-1.45-.54-3-.76a22.84,22.84,0,0,1-3.11-.57,2.92,2.92,0,0,1-2-1.39C82,202.27,75.19,193.49,73,190.74c-3.48,2.07-17.48,9.82-31.9,6.84a24.33,24.33,0,0,1-3.06-.82ZM94.19,65.94c.63-1.09,1.23-2.28,1.79-3.47.94-2,1.74-4,2.31-5.67-1.66.49-3.72,1.18-5.78,2-.76.31-1.53.64-2.27,1a44.24,44.24,0,0,1,2.62,3.7q.74,1.21,1.33,2.45Zm-8.34-3.59q-.35.28-.67.58c-1.45,1.38-2.82,3.48-2.4,5.58a12.86,12.86,0,0,1,3.73-1C86.37,65.77,86.14,64,85.85,62.35Zm-10.46-21a11.93,11.93,0,0,1,1.67-.4,13.45,13.45,0,0,1,2.79-.16,36.66,36.66,0,0,1,5.3.69l.29-.33a37,37,0,0,0,3.43-4.82C90,34.47,91,32.59,91.74,31.06c-1.68.29-3.76.74-5.86,1.33a37,37,0,0,0-5.57,2,11.54,11.54,0,0,0-2.05,1.24,8,8,0,0,0-2.61,3.17,4.09,4.09,0,0,0-.25,2.56Zm-2,9.26a59,59,0,0,1,6.93.77q.43-.13.86-.3a47.38,47.38,0,0,0,10.28-6c-3.8-1.22-10.21-2.88-14.05-2.25a7.77,7.77,0,0,0-4,1.81,13.27,13.27,0,0,1-1.16,3.87,3.82,3.82,0,0,0,1.19,2.08Zm-8,.57c3.56.54,5.58-3.71,6-6.66a47.35,47.35,0,0,0-.07-11.9,55.41,55.41,0,0,0-6.25,6.64,15.45,15.45,0,0,0-2.94,5.12c.41,1.9.74,3.83,1,5.76A4.46,4.46,0,0,0,65.38,51.17Zm-2.68,8a3.81,3.81,0,0,0,1.43,1.93,58.71,58.71,0,0,1,7-.06q.41-.18.82-.4a37,37,0,0,0,4.92-3.27c1.73-1.33,3.33-2.73,4.57-3.9-1.68-.33-3.79-.65-5.94-.85-2.53-.24-5.8-.43-8.27.28a7.77,7.77,0,0,0-3.81,2.28,13.18,13.18,0,0,1-.69,4Zm-6.43,3.44a4,4,0,0,0,3-1.3,8,8,0,0,0,1.87-3.66,11.51,11.51,0,0,0,.32-2.37,37,37,0,0,0-.38-5.9c-.29-2.16-.71-4.25-1.1-5.9-1.11,1.28-2.45,2.95-3.7,4.73a37,37,0,0,0-3.06,5.06,11.26,11.26,0,0,0-1,3c.63,1.84,1.18,3.71,1.64,5.6a4.49,4.49,0,0,0,2.38.77ZM54.58,71a3.82,3.82,0,0,0,1.64,1.74,58.1,58.1,0,0,1,6.93-.88c.26-.15.51-.32.76-.49a37,37,0,0,0,4.5-3.83c1.56-1.52,3-3.11,4.08-4.41-1.7-.13-3.83-.2-6-.14a37,37,0,0,0-5.89.57c-2.14.42-4.59,1.53-5.8,3.41A13.19,13.19,0,0,1,54.58,71Zm-6,4.17c2.73-.24,4-3.1,4.25-5.5.31-2.57-.4-5.74-1-8.21-.54-2.1-1.2-4.13-1.8-5.73-1,1.4-2.08,3.21-3.11,5.13a37,37,0,0,0-2.44,5.38,11.28,11.28,0,0,0-.6,3.08c.84,1.75,1.62,3.54,2.29,5.36a4.49,4.49,0,0,0,2.45.48Zm-.71,8.45a3.83,3.83,0,0,0,1.84,1.54,58.25,58.25,0,0,1,6.77-1.7q.36-.27.7-.58a37,37,0,0,0,4-4.34c1.37-1.7,2.6-3.44,3.53-4.87-1.69.08-3.81.26-6,.57-2.54.37-5.72.93-8,2.22a7.77,7.77,0,0,0-3.16,3.11,13.27,13.27,0,0,1,.27,4Zm-2.16,1.29A9.44,9.44,0,0,0,46,82.48c0-2.59-1.08-5.65-2-8-.79-2-1.69-4-2.46-5.48-.78,1.5-1.68,3.43-2.48,5.47-.39,1-.76,2-1.08,3,1.45,2.78,4.25,5.17,7.73,7.43Zm9.64,5.45v0c1.16-1.85,2.17-3.73,2.92-5.25-1.67.28-3.76.71-5.87,1.28-.9.24-1.88.52-2.87.85,1.85,1,3.81,2.08,5.8,3.14h0ZM39.25,110.77a3.81,3.81,0,0,0,2.15,1.06c1.07-.65,2.17-1.26,3.29-1.84a52.23,52.23,0,0,1-6.37-4q-.11.27-.19.54c0,.11-.06.22-.09.33a13.31,13.31,0,0,1,1.21,3.86Zm-4.14,6a3.94,3.94,0,0,0,2.08-2.53,8,8,0,0,0,0-4.11c-.6-2.5-2.39-5.25-3.84-7.33C32.09,101,30.77,99.34,29.65,98c-.4,1.65-.83,3.74-1.13,5.9a37.09,37.09,0,0,0-.41,5.9,11.29,11.29,0,0,0,.51,3.09c1.4,1.34,2.75,2.76,4,4.23a4.44,4.44,0,0,0,2.47-.41Zm2.29,8.17a3.84,3.84,0,0,0,2.26.8,58.83,58.83,0,0,1,5.75-4,30.2,30.2,0,0,0,2.7-6.25c.37-1.12.7-2.24,1-3.3l-2.32-1.15c-.8.39-1.64.82-2.47,1.28-2.23,1.22-5,2.88-6.7,4.86a7.77,7.77,0,0,0-1.88,4A13.22,13.22,0,0,1,37.4,124.93ZM34,131.37a3.94,3.94,0,0,0,1.76-2.76,8,8,0,0,0-.5-4.08c-.9-2.43-3-4.91-4.68-6.82-1.45-1.62-3-3.13-4.22-4.28-.2,1.69-.38,3.82-.42,6a36.9,36.9,0,0,0,.3,5.91,11.3,11.3,0,0,0,.87,3c1.55,1.17,3.05,2.41,4.49,3.72a4.51,4.51,0,0,0,2.41-.69Zm7.75,6.32c1-.93,2.09-1.8,3.06-2.56a30,30,0,0,0,1.94-6.53c.43-2.13.73-4.24.9-5.94-1.48.85-3.29,2-5.05,3.24-2.08,1.48-4.66,3.45-6.07,5.63a7.77,7.77,0,0,0-1.39,4.21q.39.47.73,1C37.73,137.09,39.7,137.41,41.75,137.69ZM32.84,136a41.89,41.89,0,0,0-3.23-3.14c-1.63-1.44-3.31-2.75-4.7-3.74,0,.91,0,2,.08,3.05A18.45,18.45,0,0,0,32.84,136Zm14.31,2.36c0-.94,0-1.83,0-2.62-.86.64-1.85,1.42-2.87,2.28ZM37,160.48a3.7,3.7,0,0,0,.82-1.29A34.55,34.55,0,0,1,29.25,156a13.79,13.79,0,0,1-1.84-1.23c.19.6.4,1.17.62,1.72a11.28,11.28,0,0,0,1.55,2.72c1.78.77,3.54,1.62,5.24,2.56A4.48,4.48,0,0,0,37,160.48Zm5,6.86a3.81,3.81,0,0,0,2.4,0,58.15,58.15,0,0,1,4-5.71q.07-.33.12-.66a84.16,84.16,0,0,1-8.85-1.31l-.16.42a7.78,7.78,0,0,0-.36,4.43A13.22,13.22,0,0,1,42,167.33Zm-2.36,8.45a4.55,4.55,0,0,0,.77-.54h0a4.52,4.52,0,0,0,.65-.68,3.94,3.94,0,0,0,.69-3.2,8,8,0,0,0-1.89-3.65,11.57,11.57,0,0,0-1.75-1.64,36.9,36.9,0,0,0-5-3.12c-1.93-1-3.87-1.9-5.44-2.53.4,1.66,1,3.71,1.7,5.76a36.92,36.92,0,0,0,2.34,5.43,11.54,11.54,0,0,0,1.36,2q.25.29.51.55c1.41.42,3,1,4.61,1.57L39,176a3.8,3.8,0,0,0,.59-.26Zm7.2,5a3.84,3.84,0,0,0,2.38-.32,58.38,58.38,0,0,1,3.3-6.15c0-.3,0-.6,0-.9a37,37,0,0,0-.5-5.9c-.33-2.14-.79-4.23-1.23-5.88-1.08,1.3-2.38,3-3.6,4.81a37.08,37.08,0,0,0-3,5.12,11.54,11.54,0,0,0-.77,2.27,7.79,7.79,0,0,0,.17,4.44,13.24,13.24,0,0,1,3.16,2.52Zm-.07,7.29a3.94,3.94,0,0,0,.31-3.26A9.32,9.32,0,0,0,42.82,180a37,37,0,0,0-5.36-2.5c-2-.78-4.06-1.42-5.71-1.87.59,1.6,1.41,3.57,2.37,5.52a36.91,36.91,0,0,0,3,5.12,11.24,11.24,0,0,0,2.14,2.27c1.92.33,3.83.74,5.7,1.25a4.47,4.47,0,0,0,1.82-1.71Zm6.47,5.48a3.82,3.82,0,0,0,2.32-.61,59,59,0,0,1,2.55-6.49c0-.3,0-.6-.06-.91a37,37,0,0,0-1.2-5.79c-.59-2.09-1.29-4.11-1.91-5.69-.92,1.43-2,3.26-3,5.2-1.17,2.28-2.56,5.2-2.82,7.78a7.78,7.78,0,0,0,.69,4.38,13.19,13.19,0,0,1,3.44,2.13ZM53,196a9.46,9.46,0,0,0-1.73-1.58c-2.11-1.51-5.21-2.4-7.7-3-2.11-.53-4.21-.93-5.89-1.18.78,1.51,1.82,3.37,3,5.2l.09.14A33.45,33.45,0,0,0,53,196ZM96.38,73.11c1.12-.91,2.15-1.81,3-2.6-1.08-.22-2.35-.45-3.69-.65A22.87,22.87,0,0,1,96.38,73.11Zm-9.72-3.68a11.48,11.48,0,0,0-1.72.34,8.56,8.56,0,0,0-3.27,1.65,23.13,23.13,0,0,1,5,2.85,39.38,39.38,0,0,0,0-4.84ZM73.75,79.51a4,4,0,0,0,3.08-1.28L77,78c-.84-1.59-1.75-3.16-2.67-4.65-.42-.69-1.16-1.51-.71-2.37a1.3,1.3,0,0,1,1.1-.72,12.69,12.69,0,0,1,4.42.29,43.09,43.09,0,0,0-.34-4.47c-.27-2.21-.67-4.35-1.05-6-1.15,1.29-2.53,3-3.83,4.77A37.49,37.49,0,0,0,70.75,70a11.38,11.38,0,0,0-1,3.14c.71,1.88,1.33,3.81,1.86,5.75A4.64,4.64,0,0,0,73.75,79.51Zm-1.22,8.85a3.86,3.86,0,0,0,2,1.86A58.82,58.82,0,0,1,80.88,89a25.74,25.74,0,0,0-1.77-6.45q-.38-.93-.8-1.86a11.7,11.7,0,0,0-2.15.72,7.89,7.89,0,0,0-3.51,2.84,13.34,13.34,0,0,1-.13,4.11Zm-5.95,4.37c2.77-.3,4-3.25,4.21-5.68.26-2.62-.53-5.82-1.24-8.31-.6-2.15-1.32-4.2-2-5.8-.94,1.45-2.06,3.33-3.07,5.3a37.5,37.5,0,0,0-2.36,5.52A11.44,11.44,0,0,0,61.63,87c1,1.75,1.89,3.56,2.7,5.41A4.66,4.66,0,0,0,66.58,92.73Zm6.5,8.94c.87-.29,1.73-.55,2.53-.77A31.06,31.06,0,0,0,79.83,96a13.38,13.38,0,0,0,1.06-3.32A13.11,13.11,0,0,0,81,90.93c-1.2.16-2.49.38-3.79.64-2.54.51-5.75,1.27-8,2.69a8.62,8.62,0,0,0-2.59,2.49,46.76,46.76,0,0,1,6.41,4.93Zm-9.92-7.08c-.27-.66-.55-1.33-.85-2-.92-2-1.94-3.95-2.8-5.44-.56,1.25-1.19,2.78-1.78,4.41C59.55,92.55,61.38,93.55,63.17,94.59ZM76.4,105.34c.49-1.08.92-2.11,1.27-3-.92.24-2,.53-3.07.87a26.22,26.22,0,0,1,1.8,2.15ZM58.58,121.65a4,4,0,0,0,2.2-2.5,6.1,6.1,0,0,0,.24-1c-2.84-1.64-5.94-3.11-9-4.59l-.26-.13a13.43,13.43,0,0,0,.43,4.19C53.61,119,55,120.5,56.34,122a4.67,4.67,0,0,0,2.25-.37Zm2.79,8.49a3.89,3.89,0,0,0,2.57.81,58.81,58.81,0,0,1,5.69-4.2c.27-.44.52-.91.76-1.4a33,33,0,0,0-6.34-5.28l-.71.54a11.72,11.72,0,0,0-1.75,1.69,7.89,7.89,0,0,0-1.91,4.09,13.43,13.43,0,0,1,1.69,3.75Zm-3.43,6.54c2.35-1.49,2.14-4.66,1.29-7a11.71,11.71,0,0,0-1.08-2.18,37.6,37.6,0,0,0-3.67-4.74c-1.49-1.66-3-3.2-4.3-4.36-.21,1.72-.39,3.89-.43,6.11-.06,2.94,0,6.46,1.23,9.16,1.65,1.14,3.26,2.37,4.79,3.67a4.69,4.69,0,0,0,2.17-.7ZM68,141.55q.79-.76,1.61-1.49a31.68,31.68,0,0,0,1.67-6.48c.37-2.2.61-4.36.73-6.07h0a48.4,48.4,0,0,0-9.54,7.44,10.27,10.27,0,0,0-2.66,5A78.26,78.26,0,0,1,68,141.55Zm-13-2.28-1-.83c-1.72-1.42-3.48-2.71-4.91-3.66,0,1.13.11,2.44.24,3.84,1.7.19,3.62.4,5.64.65ZM72.27,143c0-.91-.09-1.77-.16-2.54-.61.51-1.27,1.1-2,1.74.75.25,1.46.51,2.12.79Zm-8.83,23.21a4,4,0,0,0,.88-3.22,6,6,0,0,0-.17-.82c-2.22-.2-4.55-.36-6.93-.53l-3.76-.26a14.09,14.09,0,0,0,2.45,4.07c1.92.6,3.82,1.29,5.67,2.08a4.7,4.7,0,0,0,1.86-1.31Zm6.23,6.41a3.86,3.86,0,0,0,2.67-.4,59.59,59.59,0,0,1,3.27-6.27c0-.52.07-1.07.07-1.63a37.81,37.81,0,0,0-8.1-1.77,14,14,0,0,0-1.14,2.94,7.9,7.9,0,0,0,.08,4.51,13.4,13.4,0,0,1,3.16,2.63Zm-1.53,8.77A4.82,4.82,0,0,0,69.46,180a4,4,0,0,0,.38-3.32,8.13,8.13,0,0,0-2.27-3.5,11.77,11.77,0,0,0-1.93-1.49A37.53,37.53,0,0,0,60.26,169c-2-.84-4.11-1.54-5.78-2,.56,1.63,1.36,3.66,2.29,5.68a37.51,37.51,0,0,0,2.9,5.25,11.72,11.72,0,0,0,1.57,1.86q.32.31.66.58c2,.31,4,.7,5.92,1.2l.32-.2Zm13.28-3.84a32.58,32.58,0,0,0-1.31-6.21c-.63-2.14-1.36-4.18-2-5.78-.93,1.47-2,3.35-3,5.33-1.16,2.31-2.54,5.32-2.78,7.93a8.83,8.83,0,0,0,.32,3.42l1-.55q3.85-2.18,7.8-4.15Zm-10.85,6.83c-1.22-.42-2.53-.78-3.83-1.09-2.16-.52-4.3-.9-6-1.13.81,1.53,1.9,3.42,3.12,5.27a39.61,39.61,0,0,0,3.26,4.32c2.15-1,3.79-1.92,4.76-2.49a12.22,12.22,0,0,1-1.4-2.53,3.7,3.7,0,0,1,.1-2.34Zm-6.83,8.79q-.33-.9-.7-1.79c-.83-2-1.77-3.93-2.57-5.42-.75,1.53-1.62,3.49-2.37,5.52-.47,1.27-.9,2.58-1.24,3.84a51,51,0,0,0,6.89-2.14Zm92.6-117.66a11.07,11.07,0,0,0-5.93-6,65.55,65.55,0,0,0-11.54-4.11s-10-2.69-16.7-7.77l10.22-23a3.65,3.65,0,0,0-3.39.48L115.21,60.61,154.79,77l1.55-1.55Zm.18-3.18a18.54,18.54,0,0,0-9-6l-9.81-3.12s-9.81-3-13.35-6.19L134,35.36c6.38,5.69,18.37,4.63,22.49,11.4Zm-19.92,1.21L102.82,91.26a.23.23,0,0,0-.14.21V93.4c0,.25.21.25.37.17,4.43-2.32,7.72-4.08,12-4.33A23.52,23.52,0,0,1,119,86.6a15.1,15.1,0,0,1,7.78-1.77,10.53,10.53,0,0,1,1-.56,7.32,7.32,0,0,1,5.87-.59s-2.68,3.83-5.94,5.52a8.94,8.94,0,0,1-.95.42,30.57,30.57,0,0,1-7.84,6.32,16.08,16.08,0,0,1-3.93,1.44,40.11,40.11,0,0,1-12.13,8.11.23.23,0,0,0-.14.21v1.84c0,.19,0,.37,0,.56a.22.22,0,0,0,.21.23.27.27,0,0,0,.14,0L154.85,81ZM22,131.56c0,1.09,0,2.27,0,3.41.15,4.65.76,9.65,3,13.8a13.21,13.21,0,0,0,5.2,5.51c7.26,4.05,17.58,4.76,27.18,5.41,8.5.58,16.45,1.12,21.52,3.94a11,11,0,0,1,3.73,3.22,46.19,46.19,0,0,0-2-10.58,27.32,27.32,0,0,0-3.58-7,13.59,13.59,0,0,0-5.33-4.48c-3.87-1.72-8.41-2.4-13-3.08l-.32,0c-3.17-.47-6.38-.84-9.53-1.2C37,139.14,26,137.88,22,131.56ZM35.23,75.39c-3.46,6.86-4.49,12.41-3.79,17,.75,4.9,3.53,8.68,7.44,11.7s9,5.44,13.93,7.81a109.67,109.67,0,0,1,10.77,5.62A37.33,37.33,0,0,1,72,124.32a14.14,14.14,0,0,1,3.21,5.83C85.48,108.44,69.1,99.76,54.48,92c-9.22-4.88-17.77-9.41-19.25-16.62Z" style="fill:#fefefe"/><path d="M104.48,203.74l-1.94.78-.46-2.53,2-.73Zm2.61,1.89-2,.77-.46-2.53,2-.74Z" style="fill:#373435"/><path d="M110.6,212.6a11.51,11.51,0,0,1-3.52,2.06,30,30,0,0,1-8.82-5.1c-1.24-1-2.81-2.57-3-4.38a5.37,5.37,0,0,1,1.85-4.2,13.49,13.49,0,0,1,2.75-1.82l.21.41a4.15,4.15,0,0,0-1.9,2.55c-.32,2,1.91,4.2,3.19,5.26A28,28,0,0,0,108.8,212a9,9,0,0,0,.55-3.49l2.85-1.31a12.63,12.63,0,0,1-1.6,5.45Zm56.48,23.95-1,2-1.84-1.6,1.1-1.94Zm3.13-.39-1.07,2-1.84-1.6,1.09-1.94Z" style="fill:#373435"/><path d="M159.48,246.37c-.83-1.68-.86-12.88-1.81-16.78l2.23-3.2a120.61,120.61,0,0,1,.59,13.86c0,6,4.85,6.11,6.58.85l.43,0c1.66,5.25,6.58,3.19,7-.47l.48-.08a3.48,3.48,0,0,0,1,1.79,1.6,1.6,0,0,0,2.61-.44,4.21,4.21,0,0,0,.31-2l.46-.08a4,4,0,0,0,1,1.78,1.7,1.7,0,0,0,1.5.46,1.52,1.52,0,0,0,1.08-.89,4.24,4.24,0,0,0,.32-2l.46-.08a3.43,3.43,0,0,0,.57,1.16,2.9,2.9,0,0,0,.84.76c1.28.75,4.35-.63,5.51-1.56a7.42,7.42,0,0,0-2.21-2.7l1-3.19a10.13,10.13,0,0,1,2.84,4.7,10.78,10.78,0,0,1-.77,4.31,7.28,7.28,0,0,1-1.22,1,11.22,11.22,0,0,1-3.15,1.27,2.26,2.26,0,0,1-2.81-1.17l-.31.05c-.2,1.1-.65,2-1.74,2.2a2.28,2.28,0,0,1-2.4-1.53l-.29,0c-.24,1.21-.72,2-1.89,2.21a2.11,2.11,0,0,1-2.28-1.51l-.28,0c-1.22,3.38-6.29,3.68-7.45.35h-.22c-1.19,3.31-6.39,3.9-7.92.81Zm10-26.21-1.16,2.22-2.07-1.72,1.16-2.22Z" style="fill:#373435"/><path d="M175.45,223.58a15.16,15.16,0,0,1-.87,5.79c-2,2.91-8.63,5-11.12,2.09-2.05-2.39-1.54-7.23-.25-10l.4.09q-.19,1.09-.26,2c-.21,2.41.21,4.63,2.66,5.27,2.08.57,6.6-.64,8-2.66a7.87,7.87,0,0,0-2.32-4.44l1.42-3a9,9,0,0,1,2.3,4.93ZM186.17,231l-.81,2.39-2.3-1.35.81-2.39Zm-35,15.9a2.13,2.13,0,0,1-2.59,0,3.33,3.33,0,0,1-1.24-1.58l-.24,0a2.42,2.42,0,0,1-2.46,1.5c-1.07-.14-1.6-1.11-1.91-2.14l-.26,0a3.16,3.16,0,0,1-2,1.27c-1.6.37-4.07,0-5.21-1.46-.82-1.07-.62-2.84-.4-4.15.16-1,.41-2.08.6-2.87-1.39,2.21-4,6.18-6.42,7a3.71,3.71,0,0,1-2.19,0,26.5,26.5,0,0,1-4.39-1.86l.1-.45a21,21,0,0,0,7-2.11,12.3,12.3,0,0,0,2.09-1.37,21.66,21.66,0,0,0-3-8.6l-.52,1c-.79-.88-2.22-2.34-2.36-3.63a3.7,3.7,0,0,1,.36-1.94c.19-.42.86-1.76,1.33-1.79a30.35,30.35,0,0,1,2.73,3.8,16.16,16.16,0,0,1,2.6,7.63c0,.9,0,1.76,0,2.58,1.3-1.32,3-2.88,3.47-4.76a27.58,27.58,0,0,0,.86-6l2.91-2.47c0,.21-.11.6-.22,1.17-.47,2.32-1.31,5.64-1.79,8-.38,1.83-.86,3.79-1.13,5.61-.6,3.2,2.2,3.69,4.22,2.95a3.3,3.3,0,0,0,1.91-2l.48.06c0,.33.1.64.17.95.29,1.42,1.6,2.4,2.74,1.23a3.7,3.7,0,0,0,.83-1.84l.52.07a4.21,4.21,0,0,0,.9,2,2.4,2.4,0,0,0,1.51.89c.38.05,1.11.09,1.4-.23a7.68,7.68,0,0,0-1.44-2.68l2-2.43a8.37,8.37,0,0,1,1,4.9,6,6,0,0,1-2,4Z" style="fill:#373435"/><path d="M113.88,235.4c-.87-.65-2-.87-2.63.51-.19.41,2.79,2,3.23,2.72a1.06,1.06,0,0,1,.14,1.05,9.29,9.29,0,0,1-2.47,2.74c-3.14,2.32-13.21-1.25-12.31-6.3a7.23,7.23,0,0,1,1.33-3.1,15.25,15.25,0,0,1,2.48-2.39l.32.32a12.46,12.46,0,0,0-1.36,1.81c-1.46,2.47.7,5.24,2.77,6.39,1.59.88,4.81,1.18,6.63,1.13-.75-.71-1.89-1.88-2.58-2.66s-.24-2.14.42-2.92c3.22-3.61,4.34-1.53,7.64-1.34a.82.82,0,0,0,.57-.2c1-.81,1.93-1.8,3-2.61,1.36-1,3.65-.74,4,1.12a11.79,11.79,0,0,1-.15,3.74,6.65,6.65,0,0,1-1.26,3.47,1.47,1.47,0,0,1-1.83.46,9.75,9.75,0,0,1-2.79-2.65,7.83,7.83,0,0,1-.66-1c-.3.23-.5.47-.75.67-1.24,1-2.6-.09-3.74-.94Zm6.68-2.44a7.24,7.24,0,0,0,2.25,2.72,6.82,6.82,0,0,0-.22-3c-.44-1.2-1.46-.25-2,.29Zm35.23-5.75c.27,4.23.77,10.05.73,14.71a23.85,23.85,0,0,1-.75,5.31,2.86,2.86,0,0,1-.2.6.17.17,0,0,1-.14.06h-.36c0-.09,0-.35,0-.78,0-4.57-.37-12.16-1.45-16.54Z" style="fill:#373435"/><path d="M153.29,251.23a1.54,1.54,0,0,0-.93.71l-1.41,2.13c-.15.22-.28.36.09.22l5.66-2.18a1.54,1.54,0,0,0,.93-.71l1.41-2.13c.15-.22.28-.36-.09-.22Z" style="fill:#373435"/><path d="M91,222.93a3,3,0,0,1-.1-1.28c.25-2.16,2.48-4.86,3.57-6.67a32.66,32.66,0,0,0,3.13-6.36l3.51-1.15c-.26.44-.59,1-1,1.73-1.9,3.21-4.36,6.55-6.07,9.73a2.22,2.22,0,0,0-.31,1.75c.28,1,2.05,2.26,2.93,1.81,1.43-.72,2.85-1.91,4.35-2.34,2.43-.7,3.05,1.62,2.65,3.65-.3,1.46-1.18,4.31-2.16,5.18-.48.44-1.4.94-2,.53a10.32,10.32,0,0,1-3-4.48,6.42,6.42,0,0,1-1.13.62,3.36,3.36,0,0,1-2.49-.55A4.31,4.31,0,0,1,91,222.93Zm8.14-.12a7.54,7.54,0,0,0,1.74,3.14c.29-.78.65-3.15,0-3.59s-1.27.15-1.74.45ZM87,223.6a8.38,8.38,0,0,1-4.44,2c-1.28.08-1.78-.64-2.61-1.57s-1.67-2-2.5-3l.25-.35q.89.4,1.77.7a14.63,14.63,0,0,0,5.23.92,3.22,3.22,0,0,0,2.47-1c.51-.7.46-3.93.39-4.83l3.06-1.32a15.85,15.85,0,0,1-.67,4.43A8.44,8.44,0,0,1,87,223.6Z" style="fill:#373435"/><path d="M102.15,216.25a1.19,1.19,0,0,0-.91.19l-1.72,1.06c-.18.11-.32.16,0,.19l4.87.41a1.19,1.19,0,0,0,.91-.19l1.72-1.06c.18-.11.32-.16,0-.19Z" style="fill:#373435"/><path d="M228.75,217.62a11.37,11.37,0,0,1,1,5.38c-1,1.42-3.69,4.26-5.19,4.48a1.25,1.25,0,0,1-.73-.14c-.65-.35-1.77-2.62-2.12-3.49l.35-.26a1,1,0,0,0,.92.47c1.47-.32,4.16-2.62,5.17-3.78-1-1-4.93-1.13-6.14-.71l-.72-4c1.63,0,6.5.41,7.48,2Zm-17.16-7c4.14,6.11,8.27,12.38,9.59,18.64a2.93,2.93,0,0,1,.1.63.2.2,0,0,1-.09.12l-.32.19c-.05-.07-.17-.3-.37-.66-2.09-3.94-6.37-11.64-9.29-14.81l.37-4.11Zm-2,6.84-.3,2.52-2.52-.74.3-2.52Zm-7.77,6.31-.52,2.48-2.45-1,.51-2.48Z" style="fill:#373435"/><path d="M197.8,241.12a2.61,2.61,0,0,1-1.22-.08,4.23,4.23,0,0,1-2.13-2.57c-2.09-5.23-2.59-9.05-5.62-14.3l1.26-3.78A163.54,163.54,0,0,1,195.48,236a2,2,0,0,0,1.09,1.3,3.21,3.21,0,0,0,2.31-.3,20.61,20.61,0,0,0,2.29-1.18,4.7,4.7,0,0,0-2.47-.6l.2-4.42c1.54-1.69,5.14-3.73,7.32-2.72,1.37.62,1.45,3.75.83,5a11.26,11.26,0,0,0,4-1.57c1-.57,3.81-2.31,4.4-3.36a4.17,4.17,0,0,0-.3-.57c-1.06.89-2.59,2.17-4,1.94s-1.86-1.87-2.1-3.17c-.35-2-.15-5.29,2.32-5.25,2.07.06,4,2.8,4.86,4.59a11.56,11.56,0,0,1,1,4.87c-1.86,3.46-8.08,6.42-11.58,6.53a5.86,5.86,0,0,1-1-.09,6.77,6.77,0,0,1-.87,1,11.84,11.84,0,0,1-6,3.14ZM213,225.58l.37-.28a1.9,1.9,0,0,0-.52-.41,1.65,1.65,0,0,0-2.54.69,1.35,1.35,0,0,0-.12.74c.14.31.68.27.94.22a5.5,5.5,0,0,0,1.87-.95Zm-8.89,7.67a6.1,6.1,0,0,0,.5-.56,4.72,4.72,0,0,0,.68-1.05c.15-.35,0-.48-.31-.54a5,5,0,0,0-2.52.4,5.8,5.8,0,0,0-1.72,1.09,3.17,3.17,0,0,1,1,0,14,14,0,0,1,1.67.51,2,2,0,0,0,.72.12Z" style="fill:#373435"/><path d="M195,218.68a1.42,1.42,0,0,0-.44.89l-.32,2.13c0,.22-.08.37.13.12l3.35-3.84a1.42,1.42,0,0,0,.44-.89l.32-2.13c0-.22.08-.37-.13-.12L195,218.68Zm7.85-8.15a4.47,4.47,0,0,1,2.53-1.48c.67-.05,1.25.12,1.44.87a5,5,0,0,1-.28,2.68,2.45,2.45,0,0,1-1,1.37l-1.3,1c-.5.4-.8.3-.4-.35s.78-1.3,1.1-1.95c.56-1.15.87-2.32-.34-2.11-.5.09-1,.21-1.53.33s-.57,0-.18-.41Z" style="fill:#373435"/><path d="M116.74,215.61c-2,3.76-4.54,9-7,13a23.84,23.84,0,0,1-3.39,4.15,2.86,2.86,0,0,1-.48.41.17.17,0,0,1-.15,0l-.3-.2c0-.08.17-.31.39-.67,2.35-3.92,6-10.6,7.32-14.9l3.6-1.73Z" style="fill:#373435"/><path d="M147.74,229.2a4.23,4.23,0,0,1,2.77.15,1.13,1.13,0,0,1,.68,1.44,4.73,4.73,0,0,1-1.62,2,2.32,2.32,0,0,1-1.53.54l-1.57.15c-.6.06-.79-.18-.14-.49s1.3-.62,1.88-1c1-.62,1.9-1.37.83-1.84-.44-.19-.91-.37-1.38-.54s-.45-.3.07-.42Z" style="fill:#373435"/><path d="M139.78,198.93a2.25,2.25,0,0,1-.31,1.07c-.26.5-.79,1.34-1.37,1.45a4.13,4.13,0,0,1-2.18-.37,7.64,7.64,0,0,1-1,.85c-1.12.69-3.43.11-4.59-.24-.2-.06-.2-.12,0-.19.56-.21,1.14-.42,1.68-.66s1.31-.59,1.92-.94a1.57,1.57,0,0,1-.56-1.41,4.79,4.79,0,0,1,.94-1.89l-.21-.17a6.07,6.07,0,0,1,.21-1c.14-.48.45-1.21,1-1.21a8.88,8.88,0,0,1,2.25,1.63c.71.65,2.23,2.15,2.23,3.14Zm-3.4,0a2.26,2.26,0,0,0,.54-.56c-.21-.47-1.18-1.73-1.71-1.63-.3.06-.73.86-.67,1.2s1.47.9,1.84,1Zm1.33-.61a4.2,4.2,0,0,1-.69.85,4.1,4.1,0,0,0,1.64.73A5.24,5.24,0,0,0,137.71,198.33Zm-12.38-5.76-.86,1.31-1.49-1.3,1-1.48,1.45,1.29Z" style="fill:#373435"/><path d="M127.27,192.45l-.87,1.3-1.49-1.3,1-1.48,1.47,1.29Zm-8,11.68c-2.37-1.44-1.43-5.33.24-7a.14.14,0,0,1,.22.13c-.22,1.26-.78,2.75-.13,3.93,1.17,2.13,4.94,1.8,6.41-1h-1c-1.56,0-2.34-.82-2-2.39a5.63,5.63,0,0,1,.92-2.15,1.73,1.73,0,0,1,1.92-.85c1.16.34,1.61,2,1.78,3.12C128.39,203.52,123,206.42,119.23,204.13Zm6.74-6.07a2.62,2.62,0,0,0-.46-.79.89.89,0,0,0-1-.31c-.3.12-.71.46-.38.78s1.39.32,1.89.32Zm26.39,5.64a1.39,1.39,0,0,1-.68.17,7.11,7.11,0,0,1-2-.47,2.44,2.44,0,0,1-1.54-1.15,2.59,2.59,0,0,1,.62-2.19c.28-.4.6-.79.92-1.16l-.64-.33a1.76,1.76,0,0,1-1.15-1.64,4,4,0,0,1,1.3-2.22,16.51,16.51,0,0,1,2.95-2.17l-.49,2.65a9.41,9.41,0,0,0-1.54.87,6.72,6.72,0,0,0,1.37.68,1.49,1.49,0,0,1,.88.7c.12.33,0,.56-.23.82-.57.78-1.38,1.53-2,2.33l-.05.08a9,9,0,0,0,2.83.74c.59.1,1.18.19,1.79.27a12,12,0,0,1-2.3,2Zm-7.45.87c-.83-3.63-.34-6.69-3.07-9.85.33-1,.72-1.93,1.1-2.89,2.72,4,3.74,8.12,2,12.74Zm12.92,0c-.83-3.63-.34-6.69-3.07-9.85.33-1,.72-1.93,1.1-2.89,2.72,4,3.74,8.12,2,12.74Zm19.38,0c-.83-3.63-.34-6.69-3.07-9.85.33-1,.72-1.93,1.1-2.89,2.72,4,3.74,8.12,2,12.74Zm3.86.49a3.53,3.53,0,0,0,.63-1.27c.37-1.38,0-2.71.67-3.09,1.53-.84,2.65,1.81.48,3.68-1,.86-2.17,1.2-1.77.69Zm-14.48-3.17a4.53,4.53,0,0,1-2.84,1,3,3,0,0,1-2.48-1c-1.14-1.48-.1-3.94.72-5.43.65-1.18,1.76-3.23,3.37-2.75a3.78,3.78,0,0,1,1.83,1.31,5.11,5.11,0,0,1,1,3,5.61,5.61,0,0,1-1.57,3.92Zm.29-2.41a3.7,3.7,0,0,0-.73-1.6,4.09,4.09,0,0,0-1.94-1.56c-.3-.1-.49-.14-.73.08a5,5,0,0,0-1.31,2.52c0,.69.76,1,1.32,1.07a6.24,6.24,0,0,0,3.14-.27C166.79,199.64,166.87,199.56,166.87,199.47Zm22,5.1c-.83-3.63-.34-6.69-3.07-9.85.33-1,.72-1.93,1.1-2.89,2.72,4,3.74,8.12,2,12.74Zm8.76-2.69a4.53,4.53,0,0,1-2.84,1,3,3,0,0,1-2.48-1c-1.14-1.48-.1-3.94.72-5.43.65-1.18,1.76-3.23,3.37-2.75a3.78,3.78,0,0,1,1.83,1.31,5.11,5.11,0,0,1,1,3,5.61,5.61,0,0,1-1.57,3.92Zm.29-2.41a3.7,3.7,0,0,0-.73-1.6,4.09,4.09,0,0,0-1.94-1.56c-.3-.1-.49-.14-.73.08a5,5,0,0,0-1.31,2.52c0,.69.76,1,1.32,1.07a6.24,6.24,0,0,0,3.14-.27c.16-.07.25-.15.25-.24Zm-28.47,5.59a3.53,3.53,0,0,0,.63-1.27c.37-1.38,0-2.71.67-3.09,1.53-.84,2.65,1.81.48,3.68-1,.86-2.17,1.2-1.77.69Z" style="fill:#373435"/><path d="M89.65,179.29s-.59,2,.31,1.33c.44-.31,2.61-2.42,3.13-2.92a1.87,1.87,0,0,0,.75-1.34c0-.12-.11-.62-.2-.64s-.63.43-.75.53C91.84,177.12,90.5,178.46,89.65,179.29Zm3,.53c-.16.06-.2.15-.18.31,0,.32.13.51,0,.81-.47,1-.93-.06-1.24-.44-.14,0-.13.1-.12.3a3,3,0,0,0,.53,1.56c.9,1.1,1.44-.78,1.54-.91s.42.06.78-.32a1.85,1.85,0,0,0,.06-1.23c-.06-.24-.51-1.21-.74-.78,0,.07,0,.12,0,.22.18.64-.05,1.06-.65.48Zm-6.16,12.79a21.41,21.41,0,0,1-.38-2.73c-.08-.32-.25-.41-.49-.14-.51.59-.3,1.86-.19,2.58.24,1.58,1.4,5,3.67,3.81a2.26,2.26,0,0,0,.92-1c.85-1.7.35-5.05,1.29-5.67.32.49.61,1.44,1,2.21,1.39,2.83,4.1,2.84,5.05-.44a4.48,4.48,0,0,0,.79.34c2.24.57,2.4-2.14,2.2-3.67a13.77,13.77,0,0,0-1.43-4.38,5.82,5.82,0,0,0-2-2.19,3.16,3.16,0,0,0-.34,2.43A12.11,12.11,0,0,0,98,185.8c.41.57,1.22,2.12.5,2.7-.42.34-1.11.19-1.56-.68-.57-1.11-1.2-2.29-1.9-3.36-.2-.31-1-1.55-1.35-1.37s-.62,2-.52,2.29c.38,1,1.84,2.21,2.19,3.22.32.74.35,2.21-.74,2.21-1.32,0-1.94-1.92-2.32-2.88s-.74-1.62-1.35-1.6c-.77,0-1.38.88-1.7,1.63a7.57,7.57,0,0,0-.44,2,15.09,15.09,0,0,1-.45,3c-.16.5-.39.92-.71.93-.62,0-1.05-.8-1.2-1.26Zm17.78-10.27a11.69,11.69,0,0,1,.91,4,4.65,4.65,0,0,1-1.61,3.84c-.25.2-1.53.87-1.7.54s.63-1.08.76-1.27c2.36-3.24.17-5.66-1.48-9.11a3.07,3.07,0,0,0,0,1.24c.1.76.06,1.58-.49.82a4.41,4.41,0,0,1-.76-2.17,9,9,0,0,1,.86-3.66c.09-.25.25-.54.51,0,.34.65.7,1.29,1.06,1.93a32.94,32.94,0,0,1,2,3.87Zm6.33-2.94a6.18,6.18,0,0,0-1.53,5.84,3.52,3.52,0,0,0,5.32,2c5.31-3.4,1.56-13-.25-17.59-.17-.44-.32-.18-.4,0a8.87,8.87,0,0,0-.91,3.19,3.91,3.91,0,0,0,.47,1.9c.39.66.47-.05.44-.72a3,3,0,0,1,.09-1.08,49.34,49.34,0,0,1,1.78,5.22c.48,2,.73,3.65-.36,5.18-.84,1.18-2.44,2.34-3.78,1.67a3.12,3.12,0,0,1-1.2-3.72c.25-.72.49-1.39.62-1.82.21-.72,0-.39-.31-.08Zm16-4.95c0-.23,0-1.29-.5-1.05a1,1,0,0,0-.37.45c-.34.68-.18.84-.78,1.57a10.32,10.32,0,0,1-.77.84,2.47,2.47,0,0,1-1.27.77c-.49-.44-.68-1.29-1.43-1.39a1.23,1.23,0,0,0-1.58,1.26,3.48,3.48,0,0,0,.23,2.4c.64.84,1,.57,2.25.43a3.2,3.2,0,0,1-.84,1.87,13,13,0,0,1-2.16,2.09c-.12.09-2.82,2-1.41,1.75a13.5,13.5,0,0,0,2.49-.74c2.52-1,3.32-3,3.12-5.53a9.91,9.91,0,0,0,1.27-.78,4.52,4.52,0,0,0,1-1.14A.51.51,0,0,1,126,177c.5-.12,1,.81,2.32-1.29.18-.27.11-.29.45-.29s.58.06.83-.08.73-.79,1-1.88a6.74,6.74,0,0,0,0-3.11c-.1-.43-.26-.85-.62-.23-.15.26-.29.67-.43,1a.73.73,0,0,0,0,.62.93.93,0,0,1-.13,1.22c-.16.15-.46.35-.66.18s0-.7-.43-.88-.55.17-.61.89a2.85,2.85,0,0,1-.5,1.41c-.22.25-.61.24-.67-.11Zm8.35,3A12.64,12.64,0,0,1,135,176c.28.11.51.77.76.73s.12-.77.07-1a4.12,4.12,0,0,0-.81-1.8c-1.37-1.37-1.29,1.56-1.32,2.13-.16,2.87-1.18,4.09-3.6,6.08-.68.56-.22.68.45.51a6.79,6.79,0,0,0,2.88-1.31,3.88,3.88,0,0,0,.79-1,6.44,6.44,0,0,0,.69-2.9Zm-25.73-4.59a3.59,3.59,0,0,1-1,1.11,9.67,9.67,0,0,0-1.06.82c-.22.24-.25.5,0,.48a4.1,4.1,0,0,0,3.29-2.81.3.3,0,0,1,.13-.24.52.52,0,0,0,.74-.43c.12-.48-.13-.56-.46-.68s-.19-.36-.6-.84c-.67-.78-1.75-.12-1.94.77s.31,1.39.79,1.5c.19,0,.17.12.08.33Zm.26-1.82c.22-.08.44,0,.49.09s-.09.3-.31.38-.44,0-.49-.09S109.21,171.12,109.43,171Zm24-1.22s-.67,1.53.12,1.1c.38-.21,2.34-1.7,2.8-2.05a1.52,1.52,0,0,0,.73-1c0-.1,0-.51-.1-.53a2.75,2.75,0,0,0-.65.36c-.93.59-2.14,1.55-2.9,2.14Zm-6.84-1a3.58,3.58,0,0,1-1.25.82,9.69,9.69,0,0,0-1.23.54c-.28.17-.36.42-.08.47a4.1,4.1,0,0,0,3.88-1.91c.05-.11.09-.17.19-.2a.52.52,0,0,0,.82-.24c.24-.44,0-.58-.28-.77s-.1-.4-.37-1c-.46-.92-1.66-.55-2.07.26s0,1.43.39,1.65C126.8,168.62,126.76,168.69,126.62,168.87Zm.7-1.7c.23,0,.44.07.45.2s-.16.27-.4.29-.44-.07-.45-.2S127.09,167.2,127.32,167.18Z" style="fill:#373435"/><path d="M149.56,178.32c-1,.65-2.68,1.66-4.33-.75-.34-.5-.49-1.57-.89-1.63s-1.71,3.06-2.37,3.81a13.1,13.1,0,0,1-3,2.24c-.16.1-.3.22-.31.35s0,.13.15.15a.79.79,0,0,0,.32,0c2.7-.68,4.14-.4,5.13-3.22.46,1.89,2.31,3.26,4.94,1.27,1.28-1.2,2,0,2.73-.56.37-.29,1-1.48.68-2s-1.78-.69-2-.94c.09-.45,1-1.06,1.91-1.6a6.11,6.11,0,0,0,2.21-1.89c.27-.44,1-2.44.59-3-.55-.78-2.23,0-3,0,0-.39.17-.36.4-.56a4.3,4.3,0,0,1,.46-.4,8.45,8.45,0,0,1,2.45-1.14c1-.12,1.52.43,2.11-.42a3.56,3.56,0,0,0,.41-.92.93.93,0,0,0-.63-1.2c-.51-.22-1-.17-1.31-.81-.19-.45-.4-.7-.72-.06a3.15,3.15,0,0,0-.35,1.59c-.24.18-.84.47-1.42.83a5.7,5.7,0,0,0-2.91,4.05c-.15,1,0,1.11.88,1a14.08,14.08,0,0,1,2.62-.43c-.16,1.32-4.86,1.75-4.74,6.22Zm-6.26-4.64c-.91.27-.36-1.45-1.8-1a4.69,4.69,0,0,0-1.52.95c-.24.28,0,.58.38.38a4.3,4.3,0,0,1,1.23-.58.31.31,0,0,1,.24,0c.36.23.32.81.79,1a1.47,1.47,0,0,0,1.08-.15,3.07,3.07,0,0,0,.73-.79c.05-.09.09-.13.17-.15a.42.42,0,0,0,.69-.12c.23-.34.06-.47-.16-.65s0-.33-.22-.81c-.3-.78-1.3-.59-1.7,0s-.15,1.15.18,1.37,0,.35-.08.45Zm.76-1.49c.19,0,.35.09.35.2s-.16.2-.35.2-.35-.09-.35-.2S143.86,172.2,144.06,172.2Z" style="fill:#373435"/><path d="M148.11,172.69c-.15,0-.22,0-.27.17s-.1.46-.34.64c-.79.59-.71-.43-.8-.86-.13,0-.14,0-.22.18a2.71,2.71,0,0,0-.22,1.45c.25,1.24,1.46,0,1.59-.08s.31.22.74.07c.23-.08.49-.66.56-.95s.1-1.17-.26-.92c-.05,0-.05.09-.07.18-.12.58-.48.81-.71.11Zm-1.28-1.81s-.87.89-.21.8c.32,0,2.09-.56,2.5-.69a1.14,1.14,0,0,0,.78-.51c0-.07.12-.37.07-.4a2.06,2.06,0,0,0-.55.08c-.81.17-1.91.51-2.6.72Zm5.71-6.64a2.93,2.93,0,0,1-1.2.21,7.89,7.89,0,0,0-1.09,0c-.26,0-.41.2-.21.33a3.35,3.35,0,0,0,3.52-.17.25.25,0,0,1,.2-.09.42.42,0,0,0,.69.09c.32-.25.19-.43,0-.67s.06-.33,0-.84c0-.84-1.06-1-1.63-.47s-.49,1.05-.24,1.36c.1.12,0,.16-.11.26Zm1.07-1c.18.06.3.19.27.3s-.21.15-.39.09-.3-.19-.27-.3.21-.15.39-.09Zm-5.48,4.21s-.75,1-.1.82c.31-.09,2-.83,2.39-1s.63-.34.71-.61c0-.07.07-.38,0-.4a2.06,2.06,0,0,0-.54.15c-.78.27-1.83.75-2.48,1Z" style="fill:#373435"/><path d="M160.86,175.28a21.44,21.44,0,0,1,1-2.55c.09-.32,0-.48-.35-.36-.74.25-1.2,1.46-1.46,2.13-.58,1.49-1.31,5,1.26,5.14a2.26,2.26,0,0,0,1.31-.43c1.59-1,2.84-4.19,4-4.25,0,.59-.19,1.55-.25,2.4-.22,3.14,2.12,4.52,4.59,2.16a4.45,4.45,0,0,0,.52.69c1.65,1.62,3.15-.64,3.74-2.07a13.78,13.78,0,0,0,1-4.51,5.82,5.82,0,0,0-.62-2.9,3.16,3.16,0,0,0-1.51,1.93,12.1,12.1,0,0,0,.21,2.53c.07.7,0,2.45-.92,2.59-.54.08-1.06-.39-1-1.37.06-1.25.11-2.58.05-3.86,0-.37,0-1.82-.48-1.86s-1.56,1.45-1.6,1.72c-.16,1,.48,2.83.27,3.88-.1.8-.81,2.08-1.75,1.54-1.14-.66-.71-2.63-.56-3.66s.17-1.78-.36-2.06-1.64.07-2.29.56a7.56,7.56,0,0,0-1.37,1.48,15.11,15.11,0,0,1-1.9,2.37c-.39.35-.8.6-1.09.45-.55-.29-.51-1.22-.41-1.69Zm3.58-7a3.34,3.34,0,0,1-1.37.24,9.06,9.06,0,0,0-1.25,0c-.3,0-.46.23-.24.37a3.83,3.83,0,0,0,4-.2.28.28,0,0,1,.23-.1.48.48,0,0,0,.79.1c.37-.29.22-.49,0-.77s.07-.38,0-1c-.05-1-1.22-1.09-1.87-.54s-.56,1.21-.27,1.55c.12.14.05.19-.13.29Zm1.23-1.19c.21.07.35.22.31.34s-.24.17-.45.1-.35-.22-.31-.34.24-.17.45-.1Zm5.94-.79c-.17,0-.25,0-.31.2-.12.3-.12.52-.39.73-.9.68-.81-.49-.91-1-.15,0-.16,0-.25.21a3.1,3.1,0,0,0-.25,1.65c.29,1.41,1.67,0,1.82-.09s.35.25.85.08c.27-.09.56-.75.64-1.08s.11-1.34-.3-1.05c-.06,0-.06.1-.08.21-.14.67-.55.93-.81.12Zm-1.46-2.07s-1,1-.24.91c.37-.05,2.38-.64,2.86-.79a1.3,1.3,0,0,0,.89-.58c0-.08.13-.42.08-.45a2.34,2.34,0,0,0-.63.09c-.92.19-2.18.58-3,.82Zm11.76,10.15a11.69,11.69,0,0,1-1,4,4.65,4.65,0,0,1-3.18,2.7c-.32.07-1.76.09-1.76-.28s1-.68,1.26-.79c3.57-1.82,2.71-5,2.79-8.8a3.06,3.06,0,0,0-.57,1.1c-.26.73-.66,1.44-.81.51a4.41,4.41,0,0,1,.3-2.28,9,9,0,0,1,2.42-2.88c.19-.18.47-.37.47.19,0,.73,0,1.47.08,2.2a32.94,32.94,0,0,1,0,4.34Z" style="fill:#373435"/><path d="M190.23,171.8c0-.46.07-.78.07-1s-.31-.2-.67,0a7.48,7.48,0,0,0-1.15.95,1.4,1.4,0,0,0-.3.81,10.24,10.24,0,0,0,.11,1.65,12.47,12.47,0,0,1-.17,3.9c-.33,1.35-.62,2.48.9.32,1.31-1.87,1.14-4.54,1.22-6.7Z" style="fill:#373435"/><path d="M185.3,178.53c.07-.4.56-1.94.92-.89,1.43,4.25,4.79,4,5.83,0a13.72,13.72,0,0,0,.36-2.18c.07-.85.11-1.75.23-2.7a2.82,2.82,0,0,0-.67,1c-.32.64-.79,1.26-.86.4a3.78,3.78,0,0,1,.5-2.06,8.63,8.63,0,0,1,2.66-2.43c.21-.15.5-.3.45.22-.06.67-.09,1.35-.12,2s-.06,1.3-.12,1.94a13.44,13.44,0,0,1-1.11,4.39c-3.14,7.2-8.84,4.59-8.09.33Zm13.45-1.23a11.69,11.69,0,0,1-1.35,3.89,4.65,4.65,0,0,1-3.4,2.41c-.32,0-1.76-.07-1.73-.44s1.11-.59,1.32-.68c3.71-1.5,3.14-4.72,3.56-8.52a3.07,3.07,0,0,0-.67,1c-.32.7-.79,1.37-.86.44a4.41,4.41,0,0,1,.5-2.24,9,9,0,0,1,2.66-2.65c.21-.16.5-.33.45.24-.06.73-.09,1.47-.12,2.2a33,33,0,0,1-.38,4.32Zm.15,7.44c.2.35-.82.67-1,.69-.53,0-1.16-.27-1.81-.16-1,.17-1-.09-.63-.31.2-.11.44-.13.6-.23a.29.29,0,0,0,.13-.35.76.76,0,0,1,0-.71,1.66,1.66,0,0,1,.79-.53,1.23,1.23,0,0,1,1.34.51c.15.18.2.39-.14.53,0,0-.68-.59-1.1-.1,0,0-.38.28.37.46a2.26,2.26,0,0,0,.94,0c.25,0,.52,0,.6.15ZM195.35,186s-1.09.61-.42.71c.32,0,2.16,0,2.6,0a1.14,1.14,0,0,0,.89-.27c0-.06.21-.32.18-.36A2.05,2.05,0,0,0,198,186c-.82-.06-2,0-2.69,0Zm-2.75-17.63c-.12,0-.18,0-.22.14s-.08.37-.28.51c-.63.48-.57-.35-.64-.69-.1,0-.12,0-.17.15a2.18,2.18,0,0,0-.18,1.16c.2,1,1.17,0,1.28-.06s.25.18.6.06c.19-.06.4-.53.45-.76s.08-.94-.21-.74c0,0,0,.07-.06.15-.1.47-.39.65-.57.09Zm-1.41-1.13s-.7.72-.17.64c.26,0,1.68-.45,2-.55a.92.92,0,0,0,.63-.41c0-.06.09-.3.06-.32a1.64,1.64,0,0,0-.44.06c-.65.14-1.53.41-2.09.58Z" style="fill:#373435"/><path d="M204.89,179.5c.09.28-.46,1-.63,1.16a1.75,1.75,0,0,0-.41,1.92c.09.41.26.75.49.83s.86-.51,1.33-1.07a3.42,3.42,0,0,1,1.84-1.42c.42-.1,1.93-.12,2.11.34a.69.69,0,0,1-.09.41c-.47,1.06-.81,2.21.13,3.16a2.2,2.2,0,0,0,3.08-.2,7.48,7.48,0,0,0,1.61-3.26c.19-.7.36-1.46.6-2.24a2.42,2.42,0,0,0-.71.7c-.37.49-.85.94-.78.21a3.24,3.24,0,0,1,.73-1.66,7.39,7.39,0,0,1,2.61-1.65c.2-.09.46-.18.35.25s-.28,1.12-.4,1.69-.25,1.08-.39,1.62c-.59,2.19-2.17,5.09-4.17,6.31-1.24.76-3.21,1.19-4.2-.17a4.15,4.15,0,0,1-.35-3.52,2.36,2.36,0,0,0-1.15.47c-.8.57-1.06,1.4-1.93,1.89-1.27.71-2-.2-2.12-1.49a4.41,4.41,0,0,1,.92-3.41c.65-.8,1.42-1.19,1.52-.88Zm3.06-3.27s-.87.89-.21.8c.32,0,2.09-.56,2.5-.69a1.14,1.14,0,0,0,.78-.51c0-.07.12-.37.07-.4a2.06,2.06,0,0,0-.55.07c-.81.17-1.91.51-2.6.72Zm5.52-1.61s-.87.89-.21.8c.32,0,2.09-.56,2.5-.69a1.14,1.14,0,0,0,.78-.51c0-.07.12-.37.07-.4a2.06,2.06,0,0,0-.55.07c-.81.17-1.91.51-2.6.72Zm3.26,16.3c.2.35-.82.67-1,.69-.53,0-1.16-.27-1.81-.16-1,.17-1-.09-.63-.31.2-.11.44-.13.6-.23a.29.29,0,0,0,.13-.35.76.76,0,0,1,0-.71,1.66,1.66,0,0,1,.79-.53,1.23,1.23,0,0,1,1.34.51c.15.18.2.39-.14.53,0,0-.68-.59-1.1-.1,0,0-.38.28.37.46a2.26,2.26,0,0,0,.94,0c.25,0,.52,0,.6.15Zm-3.52,1.43s-1.09.61-.42.71c.32,0,2.16,0,2.6,0a1.14,1.14,0,0,0,.89-.27c0-.06.21-.32.18-.36a2.05,2.05,0,0,0-.55-.08c-.82-.06-2,0-2.69,0Zm7.38-8.65a11.69,11.69,0,0,1-2.29,3.42,4.65,4.65,0,0,1-3.9,1.46c-.32,0-1.68-.51-1.56-.86s1.22-.29,1.45-.32c4-.5,4.24-3.76,5.62-7.33a3.07,3.07,0,0,0-.91.84c-.49.6-1.11,1.13-.94.21a4.41,4.41,0,0,1,1.06-2,9,9,0,0,1,3.25-1.88c.24-.1.56-.19.37.34-.25.69-.46,1.4-.68,2.1a33,33,0,0,1-1.47,4.08Z" style="fill:#373435"/><path d="M228.93,186.09c.19-.42.35-.7.43-.88s-.22-.3-.64-.21a7.45,7.45,0,0,0-1.42.46,1.39,1.39,0,0,0-.58.64,10.23,10.23,0,0,0-.51,1.58,12.49,12.49,0,0,1-1.6,3.56c-.81,1.14-1.49,2.07.72.63,1.91-1.25,2.74-3.79,3.61-5.78Zm2.85-3.55s-1,.7-.37.74c.33,0,2.16-.13,2.59-.17a1.14,1.14,0,0,0,.87-.34c0-.06.19-.34.15-.38a2.05,2.05,0,0,0-.56,0c-.82,0-2,.11-2.69.18Z" style="fill:#373435"/><path d="M221.79,190.57c.24-.36,1.39-1.69,1.25-.53-.56,4.71,2.68,5.76,5.44,2.19a16,16,0,0,0,1.31-2c.45-.8.89-1.68,1.42-2.57a3.23,3.23,0,0,0-1.05.69c-.59.51-1.29.94-1,.07a4.44,4.44,0,0,1,1.39-1.84,9.53,9.53,0,0,1,3.57-1.39c.26-.07.6-.11.32.38s-.68,1.29-1,1.94-.63,1.25-1,1.86a15.81,15.81,0,0,1-3,3.9C223.35,199.17,219.19,194.47,221.79,190.57Z" style="fill:#373435"/><path d="M135.66,57.58c-.18,0-.49.24-.63.28s-.11,0-.15-.08l-.15-.31c-.12-.22-.28-.43-.56-.28s-1,.49-.95.68a1.58,1.58,0,0,0,.38.61c.33.24.7-.29.91,0s.22.84,1.15.29c.25-.15.44-.22.4-.57,0-.17-.15-.55-.4-.58Z" style="fill:#020201"/><path d="M133.39,55.47a2.28,2.28,0,0,0-1.3,0,2.15,2.15,0,0,0-.93.64,7.09,7.09,0,0,0-1,1.63c-.18.35-.35.84-.72,1s-.37-.16-.32-.39a6.75,6.75,0,0,1,.73-1.51c.37-.63.76-1.23.84-1.33a4.17,4.17,0,0,1,2.71-1.42c.12-.06.31-.18.53-.32.82-.52,2.08-1.32,2.63-.82a6.42,6.42,0,0,0,2.07,1.23,9,9,0,0,0,2.66.55,17.57,17.57,0,0,0,3.84-.41c-.26-.23-.35-.43-.72-.53a1,1,0,0,0-.42,0c-.15,0-.29.06-.3,0s.42-.53.61-.61c.59-.23,1,.11,1.31.43a1.39,1.39,0,0,0,.77.45c.19,0,.44.06.52.27s-.07.35-.35.48a5.71,5.71,0,0,1-.74.26c-.57.16-1.18.32-1.81.46s-1.17.25-1.72.33a10.31,10.31,0,0,1-2,.13,7.8,7.8,0,0,1-1.79-.27,11.93,11.93,0,0,1-1.56-.57,5.74,5.74,0,0,1-1.14-.64,1.37,1.37,0,0,1-.46-.59,1,1,0,0,0-.54.08,2.46,2.46,0,0,1,.34.4.46.46,0,0,1-.1.65h0l0,0a1.39,1.39,0,0,1-1.05.51,6,6,0,0,1-.59-.11Zm13.24,1.59c-.17.18-.53.3-.58-.07,0-.14,0-.31,0-.41-.19-.07-.55.52-.4.84s.75.06,1,.05c.09,0,.11.24.42.24s.49-.33.56-.45c.18-.28,0-.64-.16-.38s-.23.36-.33.35c-.42,0-.06-.68-.53-.18Zm4-1.28c.42,0,.32.4.19.65a18.54,18.54,0,0,0-.78,1.71,6.44,6.44,0,0,1-1.55,2.79,2.55,2.55,0,0,1-.73.4,4,4,0,0,1-.87.2,1.86,1.86,0,0,0-1.18.61,3.9,3.9,0,0,1-.6.48,3,3,0,0,1-1.35.21,3.21,3.21,0,0,1-1.49-.27c-.22-.21,0-.44.18-.56a4,4,0,0,1,1.39-.29,2.28,2.28,0,0,0,1.69-.63,3.79,3.79,0,0,1,.37-.37,2,2,0,0,1,.48-.32,3.06,3.06,0,0,1,.93-.2c.31,0,.69,0,.81-.36a11.33,11.33,0,0,0,.46-1.25A5.29,5.29,0,0,1,150.1,56a.72.72,0,0,1,.52-.26Zm1.81,4.12c.17-.53.33-1.06.5-1.6a11.22,11.22,0,0,1,.4-1.08c0-.06.23-.53,0-.5s-.51.44-.66.58a6,6,0,0,0-.48.49,1.73,1.73,0,0,0-.33.48,18.13,18.13,0,0,0-.7,1.91,7.38,7.38,0,0,1-.89,2.1c-.08.12-.53.76.06.49a3.45,3.45,0,0,0,.94-.84,4.61,4.61,0,0,0,.66-.81,5.3,5.3,0,0,0,.54-1.22Z" style="fill:#020201"/><path d="M141.14,46.06a7.24,7.24,0,0,1-1.06,1.45,7.69,7.69,0,0,1-1.38,1.19,4.82,4.82,0,0,1-1.92.76,4.48,4.48,0,0,1-2.33-.29,2.32,2.32,0,0,1-1.19-.93,1.72,1.72,0,0,1-.15-1.38,4.81,4.81,0,0,1,.85-1.59A5,5,0,0,1,135.3,44a.49.49,0,0,1,.32-.08.25.25,0,0,1,.21.16.35.35,0,0,1,0,.19.81.81,0,0,1-.19.38c-.9.92-1.16,1.65-1,2.17a1.3,1.3,0,0,0,.92.86,3.89,3.89,0,0,0,4.87-2.85c.08-.61.59-.6,1.07-.48a1.77,1.77,0,0,0,1.71-.45,5.28,5.28,0,0,1,2.74-.84c-.26-.08-.8-.29-.89-.32-.65-.21-1.25.31-1.4.21s0-.27.09-.34a.83.83,0,0,1,.19-.2,2.1,2.1,0,0,1,1.74-.4,6.79,6.79,0,0,1,1.82.67h0c.19.1.29.19.32.31s0,.26-.21.38a2,2,0,0,1-.57.32,2.51,2.51,0,0,1-.74.1c-.26,0-.67,0-1,.06-.09,0-.9.27-.89.28.09.3.77.44.18,1.11-.38.43-.68.43-1.17.16-.15-.08-.34-.26-.52-.26a5.6,5.6,0,0,0-.7.38,6.41,6.41,0,0,1-.79.17l-.19.33Z" style="fill:#020201"/><path d="M139.36,42.58a3.06,3.06,0,0,0-.61-.61c-.18-.07-.74.37-1,.59s-.3.21-.18.36a6,6,0,0,0,.7.74c.32.15.78-.21,1-.35.34-.26.3-.39.11-.74Zm12,1.57a.58.58,0,0,1,.31-.09c.24,0,.31.13.3.33a1,1,0,0,1-.1.32c-.24.5-.51,1-.71,1.49l-.08.21a6.44,6.44,0,0,1-1.55,2.79,2.56,2.56,0,0,1-.73.4,3.94,3.94,0,0,1-.87.2,1.86,1.86,0,0,0-1.18.61,3.89,3.89,0,0,1-.6.48,3,3,0,0,1-1.35.21c-.31,0-1.42,0-1.57-.37s.08-.37.25-.46a1.94,1.94,0,0,1,.42-.15,8,8,0,0,1,1-.13,2.28,2.28,0,0,0,1.69-.63,3.79,3.79,0,0,1,.37-.37,2,2,0,0,1,.48-.32,3.06,3.06,0,0,1,.93-.2c.39,0,.73-.08.8-.33.17-.44.33-.82.47-1.28a5.29,5.29,0,0,1,1.53-2.55,1.05,1.05,0,0,1,.21-.17Zm-3.69,1.2c-.17.18-.53.3-.58-.07,0-.14,0-.31,0-.41-.2-.07-.55.52-.4.84s.75.06,1,.05c.09,0,.11.24.43.24s.49-.33.56-.45c.18-.28,0-.64-.16-.38s-.23.36-.33.35c-.42,0-.06-.68-.53-.18Zm5.67,3.3c.17-.53.33-1.06.5-1.6a11.22,11.22,0,0,1,.4-1.08c0-.06.23-.53,0-.5s-.51.44-.66.58a5.91,5.91,0,0,0-.48.49,1.72,1.72,0,0,0-.33.48,18.13,18.13,0,0,0-.7,1.91,7.39,7.39,0,0,1-.89,2.1c-.08.12-.53.76.06.49a3.45,3.45,0,0,0,.94-.84,4.61,4.61,0,0,0,.66-.81,5.3,5.3,0,0,0,.54-1.22Z" style="fill:#020201"/><path d="M177.38,52.76c-.05-.32-.2.07-.34.53-.64,2.14.23,2.62.11,3.6a2.15,2.15,0,0,1-1.56,1.49,1.77,1.77,0,0,1-1.51-.34,1,1,0,0,1-.35-.65c-.24-.74-.41.12-.44.43a3.05,3.05,0,0,1-.39,1.27c-.56,1.25-3.41,2.16-3.89.43a5.74,5.74,0,0,0-.11-.6,51.23,51.23,0,0,0-4.2,6.27c1-.39,2.16-2.39,3-3,.19-.14.3-.23.49-.07a3,3,0,0,0,2.57.7,3.3,3.3,0,0,0,2.1-1.29c.15-.18.49-.82.69-.85a.65.65,0,0,1,.34.08,2.61,2.61,0,0,0,3-.73c2-2.29.84-4.81.45-7.26Zm-4.86.9c-.18,0-.24.1-.28.21s0,.37-.27.57c-.78.68-.91-.09-1.09-.37-.15,0-.16.06-.21.2a1.4,1.4,0,0,0,0,1.13c.54.82,1.67-.48,1.81-.56s.4.07.87-.18a1.3,1.3,0,0,0,.45-.87c0-.17-.12-.88-.48-.59-.05,0,0,.08,0,.16,0,.46-.39.74-.8.3Zm-1-2.87c-.05-.07-.32-.45-.39-.46-.33,0-.37.51-.38.66,0,.45.26.5.54.85s.27.61.42,1.07a.6.6,0,0,0,.16.26c.23-.11.26-.17.26-.38a3.42,3.42,0,0,0-.58-2l0,0Zm10.09,1.75c-.18-.8-.37-1.6-.54-2.41-.12-.58-.22-1.09-.29-1.67,0-.1-.1-.85-.4-.61s-.29,1-.36,1.24a9.47,9.47,0,0,0-.21,1,2.78,2.78,0,0,0,0,.86,29,29,0,0,0,.53,3,11.86,11.86,0,0,1,.44,3.35c0,.21-.08,1.37.41.57a5.47,5.47,0,0,0,.5-1.79,7.41,7.41,0,0,0,.2-1.53,8.58,8.58,0,0,0-.23-2Z" style="fill:#020201"/><path d="M178.71,45a3.06,3.06,0,0,0-.82-.25c-.2,0-.48.67-.59,1s-.17.32,0,.41a5.94,5.94,0,0,0,1,.32c.35,0,.59-.55.68-.75.18-.39.08-.48-.25-.7Zm-13.9,5.28a2.9,2.9,0,0,0-1.37.73,2.16,2.16,0,0,0-.55,1.12,7.48,7.48,0,0,0,0,2.4,2.4,2.4,0,0,1,0,.63c0,.19-.19.65-.52.48s-.29-.53-.32-.71a11,11,0,0,1-.11-1.34c0-.78,0-1.55,0-1.69A4.39,4.39,0,0,1,163.9,49c.09-.12.2-.34.34-.59.52-.95,1.3-2.39,2.21-2.25a9.08,9.08,0,0,0,3-.07,12.11,12.11,0,0,0,2.56-.76,12.69,12.69,0,0,0,1.59-.89,17.22,17.22,0,0,0,3.18-2.72,2.8,2.8,0,0,0,.75-1.11,2.71,2.71,0,0,1,.42-1.34c.21-.37.45-.81.69-1.17.1-.15.31-.23.24.06s-.18.82-.25,1.24a6.42,6.42,0,0,1-.33,1.2,9.3,9.3,0,0,1-1.73,2.64,13.87,13.87,0,0,1-6.24,4.28c-1.08.29-3.55.79-4.48.19a1.24,1.24,0,0,0-.5.38c.43.09,1,.19,1,.59a2.2,2.2,0,0,1-.2.71,1.12,1.12,0,0,1-.59.61c-.24.1-.47.17-.68.24Z" style="fill:#020201"/></svg>