<svg xmlns="http://www.w3.org/2000/svg" viewBox="0 0 250.5 383.07"><title>Albania</title><path d="M125.25,382.82a352.09,352.09,0,0,0,62.13-26.71A221.44,221.44,0,0,0,211,341.51c18.69-14.82,33.71-31.08,37.68-55.31,1.82-11.1,1.5-22.77,1.5-34V.25H.27V252.2c0,11.22-.32,22.9,1.5,34,4,24.23,19,40.49,37.69,55.31a221.12,221.12,0,0,0,23.67,14.61A352.13,352.13,0,0,0,125.25,382.82Z" style="fill:gold"/><path d="M246.83,251.22V3.65H3.67V251.22c0,32-1.58,55.54,38.6,87.37,0,0,32.37,23.84,83,39.72,50.6-15.88,83-39.72,83-39.72C248.41,306.77,246.83,283.19,246.83,251.22Z" style="fill:red"/><path d="M163.57,109.87c3.07,0,5,1,5,2.24s-1.94,2.46-5,2.46-5-1.06-5-2.36,1.91-2.34,5-2.34Zm-76.65,0c3.08,0,5,1.06,5,2.34s-1.91,2.36-5,2.36-5-1.15-5-2.46,1.95-2.24,5-2.24Zm-.56-6.79c-3.79-.06-10.08,1.21-9.94,4.11-10.55-1.81-11.65,2.55-11,6.43a5.33,5.33,0,0,1,3.17-2.53,6.43,6.43,0,0,1,4.38,1.14,17.52,17.52,0,0,1,3.89,3.34c-3.72.89-6.6.32-9.52-.19a13.37,13.37,0,0,1-4.65-1.9c-1.2-.84-1.57-1.63-3.46-3.56-2.22-2.27-4.58-1.63-3.85,1.9,1.7,3.28,4.55,4.74,8.13,5.33a40.7,40.7,0,0,0,7.21.9c2.91,0,6.18-.42,8,0A11.54,11.54,0,0,1,74,120.29c-2.44.47-6.14-1.45-8.4-2,.29,1.9,2.68,3.68,7.4,4.6,7.75,1.69,14.2,3,18.46,5.29a30.26,30.26,0,0,1,8.86,7.48,17.58,17.58,0,0,1,4.26,8.74c.79,7.21-1.73,11.27-6.4,12.52-2.34.62-6.49-.55-8-2.34s-3-4.86-2.58-9.67c.41-1.89,2.57-6.8.73-7.82A221.73,221.73,0,0,0,62.14,124.9c-2-.77-3.71,2-4.36,3.07-12.63-1.54-24-10.09-29.15-19.19-3.49-6.2-9.25,0-8.28,5.87,1.56,6.54,6.54,11.26,12.51,14.61,6.13,3.38,13.8,6.7,21.55,6.53,4.18.79,4.14,6.19-.88,7.21-9.8.06-17.62-.18-25-7.3-5.6-5.11-8.75,1-7.14,4.43,2.74,10.64,17.93,13.62,33.28,10.18,5.95-1,2.39,5.39.71,5.46-6.42,4.6-17.91,9.1-28,0-4.63-3.55-7.76-.57-6,4.55,4.49,13.35,21.66,10.54,33.46,4,3-1.69,5.79,2.24,2.09,5.24-14.66,10.25-22,10.36-28.61,6.43-8.28-3.26-9,5.92-4.09,8.94,5.47,3.35,19.38.84,29.58-5.58,4.38-3.25,4.57,1.83,1.8,3.85-12.11,10.47-16.89,13.22-29.51,11.52-6.26-.49-6.17,7.23-1.24,10.25,6.72,4.12,19.85-2.72,30-11.18,4.29-2.29,5,1.47,2.87,5.92-6.23,7.86-12.07,12.49-17.7,14.63a22.15,22.15,0,0,1-14.88.49c-4.67-1.6-5.26,3.25-2.68,7.67,1.56,2.66,8,3.52,15,1s14.44-8.26,19.58-15c4.47-3.91,3.91,1.34,1.88,5-10.28,16.25-19.68,22.28-32.07,21.26-5.49-.93-6.74,3.34-3.24,7.28,6.15,5.1,13.83,4.94,20.55-.1,6-5.76,17.41-18.17,23.4-24.81,4.22-3.37,5.57,0,4.33,6.79-1.13,3.92-3.95,8-11.64,11.05-5.25,3-1.31,7.13,2.63,7.21,2.17,0,6.57-2.49,9.94-6.28,4.43-5,4.69-8.34,7.13-16.09,2.31-3.78,6.43-2,6.43,1.95-2,7.77-3.67,9.16-7.67,12.34-3.82,3.59,2.66,4.79,4.85,3.31,6.32-4.26,8.63-9.77,10.74-14.78,1.52-3.62,5.95-1.86,3.9,4-4.9,14.11-12.95,19.67-27,22.52-1.43.25-2.3,1.1-1.8,2.75,1.89,2,3.78,3.74,5.67,5.7-8.71,2.54-15.78,4-24.5,6.5-4.28-2.8-7.73-5.18-12-8-1.13-2.63-1.65-6.66-8-3.82-4.28-2-6.25-1.25-8.62.73,3.42.13,4.92,1,6.26,2.61,1.75,4.62,5.8,5.06,9.93,3.75,2.69,2.27,4.13,4,6.82,6.28-5-.17-8.53-.26-13.54-.41-4.79-5.14-8.6-4.86-12-.83-2.61.4-3.72.46-5.5,3.63,2.81-1.15,4.58-1.5,5.79-.24,5.09,2.95,8.41,2.29,10.93,0,4.91.3,9.33.55,14.24.88-1.81,1.54-4.28,2.35-6.09,3.9-7.37-2.11-11.22.73-12.52,6.74a13.73,13.73,0,0,0-1,7.52,9.4,9.4,0,0,1,4-5.7c6.57,1.67,9-1,9.4-4.94,3.17-2.58,7.94-3.15,11.1-5.77,3.7,1.18,5.48,1.92,9.2,3.09,1.32,4,4.32,5.61,9.18,4.58,5.79.18,4.77,2.56,5.24,4.46,1.54-2.73,1.5-5.38-2.07-7.79-1.3-3.52-4.17-5.13-7.94-3.09-3.55-1-4.48-2.45-8-3.46,8.94-2.85,15.27-3.49,24.2-6.33,2.24,2.11,4,3.62,6.26,5.5,1.19.71,2.32.89,3,0,5.6-8.1,8.09-15.23,13.29-20.57,2-2.21,4.5-5.19,7.28-5.92a4.23,4.23,0,0,1,4.19,1c1.09,1.19,1.95,3.38,1.58,6.65-.52,4.69-1.65,6.17-3,9a33.78,33.78,0,0,1-4.58,6.7c-3.31,4.31-7.67,6.82-10.25,8.5-5.17,3.37-7.35,1.89-11.35,1.68-5.17.58-6.54,3.1-2.31,6.58a15.9,15.9,0,0,0,10.4,1.78c2.48-.46,5.38-3.66,7.45-5.38,2.33-2.69,6.19.5,3.56,3.63-4.78,5.68-9.56,9.43-15.46,9.35-6.2.83-5,4.32-.93,6,7.4,3.05,14.09-2.67,17.48-6.43,2.62-2.86,4.48-3,4,1.46-2.6,8-6.15,11.14-12,11.54-4.71-.44-4.75,3.19-1.31,5.65,7.84,5.42,13.51-3.81,16.17-9.4,1.89-5,4.79-2.64,5.09,1.51,0,5.55-2.47,10.08-9.18,15.75,5.14,8.18,11.12,16.51,16.26,24.71,5.14-8.21,11.13-16.53,16.27-24.71-6.71-5.68-9.22-10.21-9.18-15.76.3-4.15,3.2-6.55,5.09-1.51,2.65,5.59,8.33,14.82,16.17,9.4,3.44-2.45,3.39-6.09-1.32-5.65-5.8-.4-9.36-3.51-12-11.54-.46-4.44,1.4-4.33,4-1.46,3.4,3.76,10.08,9.48,17.48,6.43,4.11-1.7,5.27-5.18-.93-6-5.9.08-10.68-3.67-15.46-9.35-2.63-3.13,1.23-6.32,3.55-3.63,2.07,1.72,5,4.92,7.45,5.38a15.91,15.91,0,0,0,10.4-1.78c4.23-3.48,2.85-6-2.31-6.58-4,.21-6.18,1.69-11.35-1.68-2.58-1.68-6.94-4.19-10.25-8.5a33.82,33.82,0,0,1-4.58-6.7c-1.32-2.81-2.45-4.29-3-9-.36-3.27.49-5.46,1.58-6.65a4.23,4.23,0,0,1,4.19-1c2.79.73,5.29,3.71,7.28,5.92,5.2,5.34,7.7,12.48,13.29,20.57.7.89,1.83.71,3,0,2.25-1.88,4-3.39,6.26-5.5,8.93,2.84,15.27,3.48,24.2,6.33-3.53,1-4.47,2.45-8,3.46-3.77-2-6.64-.43-7.94,3.09-3.57,2.41-3.61,5.06-2.07,7.79.47-1.9-.55-4.27,5.24-4.46,4.86,1,7.85-.56,9.18-4.58,3.72-1.18,5.51-1.91,9.2-3.09,3.16,2.62,7.94,3.19,11.1,5.77.36,3.93,2.83,6.61,9.4,4.94a9.42,9.42,0,0,1,4,5.7,13.76,13.76,0,0,0-1-7.52c-1.3-6-5.15-8.85-12.52-6.74-1.8-1.55-4.28-2.36-6.09-3.9,4.91-.32,9.34-.58,14.24-.88,2.52,2.29,5.85,2.95,10.93,0,1.22-1.25,3-.91,5.8.24-1.79-3.17-2.89-3.23-5.5-3.63-3.43-4-7.24-4.31-12,.83-5,.15-8.51.24-13.54.42,2.69-2.27,4.13-4,6.82-6.28,4.14,1.31,8.18.87,9.93-3.75,1.34-1.56,2.83-2.48,6.26-2.61-2.37-2-4.35-2.71-8.62-.73-6.31-2.84-6.84,1.19-8,3.82-4.27,2.81-7.73,5.18-12,8-8.71-2.54-15.79-4-24.49-6.5,1.89-2,3.78-3.74,5.67-5.7.5-1.65-.37-2.5-1.8-2.75-14.08-2.85-22.13-8.41-27-22.52-2-5.9,2.37-7.66,3.9-4,2.11,5,4.42,10.52,10.74,14.78,2.18,1.47,8.67.28,4.85-3.31-4-3.18-5.69-4.57-7.67-12.35,0-4,4.12-5.73,6.43-1.95,2.44,7.76,2.71,11.11,7.13,16.1,3.37,3.79,7.77,6.32,9.93,6.28,3.94-.08,7.88-4.21,2.63-7.21-7.69-3-10.51-7.14-11.64-11.05-1.24-6.84.11-10.16,4.34-6.79,6,6.65,17.43,19.05,23.4,24.81,6.72,5,14.4,5.19,20.55.1,3.5-3.94,2.25-8.21-3.24-7.28-12.39,1-21.79-5-32.07-21.26-2-3.7-2.59-9,1.88-5,5.13,6.79,12.61,12.58,19.58,15s13.42,1.62,15-1c2.59-4.42,2-9.28-2.68-7.67a22.18,22.18,0,0,1-14.88-.49c-5.63-2.15-11.47-6.78-17.7-14.63-2.12-4.45-1.42-8.21,2.87-5.92,10.19,8.45,23.32,15.3,30,11.18,4.93-3,5-10.74-1.24-10.25-12.63,1.71-17.4-1.05-29.51-11.52-2.77-2-2.57-7.1,1.8-3.85,10.21,6.42,24.12,8.93,29.58,5.58,4.92-3,4.19-12.2-4.09-8.94-6.61,3.93-13.94,3.82-28.61-6.43-3.69-3-.94-6.93,2.1-5.24,11.79,6.57,29,9.38,33.46-4,1.72-5.12-1.41-8.1-6-4.55-10.12,9.15-21.61,4.65-28,0-1.68-.07-5.24-6.44.71-5.45,15.36,3.44,30.54.46,33.29-10.18,1.62-3.45-1.54-9.54-7.14-4.43-7.38,7.12-15.2,7.37-25,7.3-5-1-5.05-6.42-.87-7.21,7.75.17,15.41-3.15,21.55-6.52,6-3.35,11-8.07,12.52-14.61,1-5.86-4.79-12.07-8.28-5.87-5.13,9.1-16.52,17.65-29.15,19.19-.65-1.08-2.32-3.84-4.36-3.07a221.43,221.43,0,0,0-26.18,12.22c-1.84,1,.32,5.93.73,7.82.42,4.81-1.06,7.88-2.58,9.67s-5.68,3-8,2.34c-4.67-1.25-7.19-5.3-6.4-12.52a17.6,17.6,0,0,1,4.26-8.74,30.23,30.23,0,0,1,8.86-7.48c4.26-2.31,10.7-3.6,18.46-5.28,4.72-.93,7.12-2.7,7.4-4.6-2.26.52-6,2.44-8.4,2a11.55,11.55,0,0,1-4.67-2.29c1.78-.37,5,.05,8,0a40.87,40.87,0,0,0,7.21-.9c3.58-.59,6.43-2.05,8.13-5.33.74-3.53-1.63-4.17-3.85-1.9-1.88,1.93-2.26,2.72-3.46,3.55a13.38,13.38,0,0,1-4.65,1.9c-2.92.51-5.8,1.08-9.52.19a17.55,17.55,0,0,1,3.9-3.33,6.44,6.44,0,0,1,4.38-1.15,5.35,5.35,0,0,1,3.17,2.53c.62-3.88-.48-8.24-11-6.43.14-2.91-6.15-4.18-9.94-4.11-2.15,0-6.55,1.29-9.71,2.78a70,70,0,0,1-15.83,3,80.2,80.2,0,0,0,7.43,5.4,24.6,24.6,0,0,0-10.91,8.28c4.49.21,6-.16,7.5.49-6.26,1.81-9.09,2.87-12.39,6.19a29.89,29.89,0,0,1,3.65.8c.77.29.45.68-.07,1.24-1.43.9-6.92,7.36-8.55,8.86-1.62-1.5-7.11-8-8.55-8.86-.52-.56-.84-1-.07-1.24a29.68,29.68,0,0,1,3.65-.8c-3.31-3.31-6.14-4.37-12.39-6.18,1.53-.65,3-.27,7.5-.49a24.56,24.56,0,0,0-10.91-8.28,80,80,0,0,0,7.43-5.4,70,70,0,0,1-15.83-3c-3.17-1.48-7.57-2.74-9.72-2.78Zm0,0Z"/><path d="M112.45,68.16a1.48,1.48,0,0,0,0-3,1.48,1.48,0,0,0,0,3Z" style="fill:gold"/><path d="M138.14,70.77l-.12-.33-.16-.3-.08-.13,0-.3-.07-.4-.1-.39-.17-.4-.24-.37-.33-.34-.36-.27-.41-.17-.41-.09-.38,0-.38,0-.34.06-.34.08-.09,0-.15-.05-.41-.09-.41,0h-.41l-.41.08-.4.14-.38.19-.35.25-.3.31-.26.34-.17.39-.15.4-.11.4,0,.43,0,0-.1.23-.09.24-.1.28-.09.33,0,.37v.42l.07.44L130,73l.23.4.32.36.34.29.38.24.42.21.1,0,.22.2.29.24.31.2.33.15.38.11.36.09.38,0,.38,0,.4-.09.36-.11.33-.15.35-.2.3-.24.29-.26.09-.07.07,0,.33-.23.31-.21.29-.26.24-.3L138,73l.17-.35.11-.38,0-.4V71.5l-.06-.38Zm-2.26,2.42c-1.09,1.18-2.27,1.09-3.06.1-2.05-.76-1.4-1.78-.94-2.65-.06-1.54,1-2.24,2.41-1.54,1.5-.57,2.3-.32,2.25,1.43A1.57,1.57,0,0,1,135.88,73.19Z" style="fill:gold"/><path d="M108.54,68.53l.24.4.3.35.35.3.38.24.41.23.11,0,.22.21.28.23.32.2.34.15.35.12.36.07.4,0,.38,0,.36-.07.38-.12.34-.15.35-.19.31-.23L115,70l.09-.1.08,0,.32-.18.31-.23.28-.27.24-.29.21-.34.15-.37.12-.39,0-.4,0-.38,0-.37-.09-.34-.11-.33-.16-.3-.08-.13v-.29l-.08-.4-.11-.41-.15-.39-.27-.36-.31-.34-.38-.26-.41-.17-.4-.08-.39,0-.37,0-.34,0-.33.08-.11,0-.15,0-.39-.1-.41,0h-.4l-.43.06-.39.15-.36.19-.37.27-.28.31-.27.34-.19.39-.13.39-.11.4,0,.41,0,0-.12.21-.1.26-.09.29-.09.32-.06.37v.41l.09.44Zm1.66-2.59c0-1.55,1.06-2.26,2.42-1.52,1.5-.58,2.3-.33,2.25,1.41.77,1.05.71,2-.67,2.67-1.07,1.19-2.25,1.08-3,.08C109.09,67.82,109.76,66.82,110.2,65.94Z" style="fill:gold"/><path d="M134.14,72.86a1.49,1.49,0,0,1,0-3,1.49,1.49,0,0,1,0,3Z" style="fill:gold"/><path d="M179.62,20.7c-12.93-.27-24.18,2.59-34.15,9.56-1.91-.21-3.09.32-3.51,1.61-1.64.83-3.28,1.63-4.89,2.47-1.67.25-3.33.49-5,.75a5.84,5.84,0,0,0-3.15,2.38c-1,1.17-1.91,2.33-2.86,3.52a67.44,67.44,0,0,1-10.61,6.54A10.08,10.08,0,0,0,111.1,53c0,.7.35,1.49.35,2.19-1,1.1-2,2.11-3,3.22-2.74.64-2.68.32-3.36,1.89-1.09.35-1.26,1.4-1.3,2.58-3.1,1.55-2.24,4-1.65,5.22-.79,1.28-.93,2.77.52,3.38.08,2,.15,4.68-.71,6.58-.08.45-.19.88-.28,1.32.12.34.26.7.38,1q-.56.33-1.11.68c.09,1.73.46,3.52.56,5.27,15.37,0,30.46,0,45.81,0-.06-1.6-.14-3.18-.18-4.75l-2.32-.76c0-.31.06-.63.1-1,.77.09,1.07-.29.93-1.13.2-.56.47-1,1.2-1.06a3.13,3.13,0,0,1,1.65-2.55c1-.51,1.33-1.2.93-2.09-.39-.28-.79-.57-1.2-.84a2.81,2.81,0,0,0-.27-2c.79-1.91.32-2.53-1-3.11-.45-.91-1.15-2.14-1.64-3,1.67-.88,2.23-2.09,1.69-3.62a19.3,19.3,0,0,1-3.79-6.92c.2-2.15.55-4.27,2.31-5.87a10,10,0,0,0,1.57-5.8c2.89-1.35,5.78-2.73,8.69-4.08a8.45,8.45,0,0,0,1.08-2.12c.63-1.13.4-2.11-.53-2.44-.3-.09-1-.34-1.27-.43A27.63,27.63,0,0,1,163.34,30a39,39,0,0,1,4.77-.63,51.5,51.5,0,0,1,5.21-.12h.26c.09,0,.32.06.26,0-2.76-2.11-7.3-2.32-15.3-.82,0-.22,0-.45,0-.65a52.52,52.52,0,0,1,10.48-4c3.56-1,7-1.79,9.94-2.62C179.41,21,180.06,20.7,179.62,20.7ZM106.83,67.13l.08-.57.13-.49.15-.4.12-.31,0-.06,0-.24.13-.58.2-.56.3-.56.38-.53.45-.49.54-.39.59-.3.61-.2.61-.13h.61l.6.06.31.08.15,0,.47-.07.53,0,.59.05.64.12.65.28.63.44.53.54.38.61.26.61.16.57.09.55v0l.13.26.17.47.14.52.08.55,0,.6-.09.62-.17.61-.24.56-.35.5-.35.46-.42.38-.4.31-.37.22-.33.3-.44.32-.46.27-.5.21-.52.19-.54.1-.56,0-.58,0-.54-.13-.53-.17-.48-.23-.46-.29-.4-.32-.09-.1-.43-.21-.52-.34-.5-.41-.45-.54-.4-.63-.27-.7-.12-.72Zm13-.67.57-2.09c.14-.48.53-.81.87-.74l.23.07c.35.09.5.53.38,1l-2.56,9.16c-.14.5-.51.82-.85.75l-.24-.05c-.34-.08-.51-.54-.37-1l.88-3.15.42-.7.35-.76.22-.83.11-.84v-.82Zm19.51,3.37.18.48.14.51.08.55V72l-.08.61-.16.62-.26.55-.34.52-.36.45-.41.38-.4.32-.36.23-.33.29-.44.3-.46.28-.5.23-.52.17-.55.11L134,77l-.56,0-.56-.12-.51-.18-.5-.22-.44-.29-.42-.32-.09-.09-.41-.21-.52-.34-.5-.42-.47-.53-.38-.65-.27-.7-.13-.71,0-.66.1-.56.11-.48.15-.4.12-.33,0-.06,0-.22.14-.59.2-.57.29-.56.37-.53.46-.48.54-.4.59-.31.6-.2.63-.13h.6l.6.07.33.07.14,0,.49-.07.53,0,.57,0,.64.14.66.28.63.43.53.53.38.62.26.59.16.58.09.56v0Zm2.23,8.5c-.13.48-.5.81-.85.71l-.24,0c-.34-.08-.5-.56-.35-1l2.54-9.18c.14-.48.52-.82.85-.73l.24.06c.33.07.5.53.35,1Zm2.69-.45-.4,1.23c-.13.38-.5.67-.82.59l-.23-.06a.59.59,0,0,1-.35-.83l.66-2.07A1.8,1.8,0,0,0,144.27,77.87Zm-2-9.16-1.11,4,.08-.69,0-.8-.11-.73-.18-.68-.23-.59,0-.13,0-.13.2-.62c.12-.48.51-.81.85-.73l.22.06C142.23,67.78,142.38,68.22,142.26,68.71Zm-1.44,5.15-1.12,4c-.13.5-.52.82-.85.76l-.22-.07c-.35-.08-.52-.52-.37-1l.21-.84.09-.06.55-.4.51-.49.51-.59.42-.68Zm-12.33,2,.35.32,0,.16c-.15.5-.53.81-.84.73l-.25-.05c-.34-.09-.5-.54-.36-1l.32-1.12.18.3Zm-1.59-2.28.38,1,.1.17-.22.81c-.14.48-.51.81-.86.73l-.23-.06c-.33-.08-.5-.53-.36-1l1.09-3.94-.06.46v.91Zm.88-7.84L125.23,75c-.12.49-.5.82-.85.73l-.24-.05c-.31-.08-.5-.54-.36-1l2.55-9.18c.15-.5.52-.81.87-.75l.23.08C127.76,64.83,127.93,65.27,127.78,65.77Zm-2-.34-2.56,9.18c-.12.48-.52.8-.83.73l-.27-.05a.8.8,0,0,1-.35-1l2.53-9.16c.14-.5.52-.83.87-.75l.24.05C125.78,64.46,126,64.93,125.83,65.43Zm-2-.34-2.53,9.16c-.15.48-.53.81-.86.73l-.24-.06c-.31-.08-.5-.53-.35-1l2.54-9.16c.14-.5.52-.81.87-.74l.23.05C123.83,64.13,124,64.59,123.84,65.09Zm-7.63,9.62c-.21-.4-1.66-.29-2.59-.34-.2-.33-.62-.7.11-.86.84.15,1.81-.43,2.7-.27C117.06,73.5,116.43,75.1,116.21,74.71Zm-10.79-11c.75-.55.88,0,.92.73a21.56,21.56,0,0,1-.78,3.39c0,1-.45,1.16-1.31.52A6.61,6.61,0,0,1,105.41,63.73Zm.33,7.89a3.57,3.57,0,0,0-1.32-1.08c.2-.32.39-.65.59-.95a1.71,1.71,0,0,1,1.18,1.27C106.82,71.79,106.36,71.78,105.74,71.62Zm-1.8,1.57c11.79,3.7,24.22,5.35,38.29,6.92.2.73-.08,1.14-.9,1.27-11.76,1.3-23.54,1.13-31,0-4.12-.7-5.5-2.18-6.48-3.77C104,76.28,103.22,73,103.94,73.19ZM146,82.05a12.26,12.26,0,0,1-.08,3.24H102.56a20.12,20.12,0,0,0-.56-4.15c-.06-.33,4.28.52,10.28,1.57,6.75,1.19,15.81.63,22.8.52h.15C141.34,82.51,145.94,82.43,146,82.05Zm1.79-10.43c-1.15-.61-2.25,5-1.51,5.58-.78.86-1.56.31-2.36-.47q1.13-3.1,2.23-6.19C147.26,69.74,148.94,72.23,147.79,71.62Zm-1.85-1.91-.72,2.78a1.3,1.3,0,0,0-1-.54,1.12,1.12,0,0,0-.4.07l.71-2.65c.13-.48.5-.82.82-.73l.23,0C145.92,68.78,146.07,69.24,145.94,69.71Zm-.06-3.33a1.21,1.21,0,0,1-.38.66l-35.66-7.29c-.33-.25-.61-.59-.46-1a16.14,16.14,0,0,1,2.18-2.43c3.24-2.66,14.26-3.65,31.54,6.39C144.84,64,146.3,65.35,145.88,66.38Zm-2.29-28.83c-1.34,1.11-2.73,2.22-4.09,3.33,5-2.83,10.1-6.62,14.83-7.18,1.39.25,1.55,1.14,1.53,2.09l-1.44,1.51q-7,3.12-13.89,6.28l3.91-.86c.43-.14.86.22,1.28,1-.35.66-.68,1.33-1,2-2.46,2.9-2.43,5.56-2.31,8.22.52,1.18,1,2.35,1.55,3.5,1.19,1.76,2.17,3.48,2,5a1.05,1.05,0,0,1-1.7.34C135.11,51,126.48,51.93,119.61,52.59c-.21,0-.42-.35-.63-.33,3.35-2.71,9.58-2.67,12.61-3.86-7.46,0-9.14.81-14.41,3l-2.55-.18c-.68.13-.82.52-.33,1.16.51.15,1.78,0,1.52.51-.42.82-1.65.82-2.47,1.23-.83-.44-1.09-1-.76-1.67l2.73-3.06c3.39-1.94,6.81-3.86,10.22-5.79.43-.77,1.24-.93,2.37-.51a12.38,12.38,0,0,0,7.86,1.4c-1-.91-1.85-1.81-1.45-2.73l-1.79.27a3.33,3.33,0,0,1-3.26-.08c-.28-.29-.64-.59-.17-.88,1.11-1,2.63-.86,4.2-.63.89-2.53,2.31-4.83,7.41-5.68.62-.49,1.26-1,1.88-1.49.6-1.8,1.92-1.57,3-1.86a5.66,5.66,0,0,1,3.61-2.07c6.74-4.54,13.72-6,20.72-7.26C159.81,25.8,147.68,32.22,143.59,37.55Z" style="fill:gold"/></svg>