<svg xmlns="http://www.w3.org/2000/svg" viewBox="0 0 694.65 694.65"><title>Algeria</title><path d="M693,347.33C693,538.21,538.21,693,347.33,693S1.7,538.21,1.7,347.33,156.44,1.7,347.33,1.7,693,156.44,693,347.33Z" style="fill:#fff;stroke:#000;stroke-width:2px"/><path d="M314.27,66.94c-5.4,10.76-4.17,20.69-.51,30.52s4.66,19.71-.08,29.63c-5.26-10.8-12.58-17.27-21.26-20.82C282,102,275.65,95,270.9,84.86c-.86,11.87,4.13,20.48,11.38,28.08s12,16.26,11.46,27.11c-9.11-7.88-18.47-11-28-11-11.33,0-20-4-28.42-11.46,3.82,11.17,11.83,17.16,21.55,21.38s17.55,10.34,21.24,20.48c-11.58-3.78-21.53-3.16-30.38.44-10.56,4.3-20.23,3.94-31,.25,7.91,8.78,17.72,11.22,28.43,11.41s20.39,2.86,27.78,10.73c-12.27.91-21.31,5.23-28.16,11.86C238.65,202,229.46,205.35,218,206c10.8,5,20.92,3.59,31-.27s20.15-5.09,30.11-.67c-11.11,5.46-17.87,12.82-21.7,21.46-4.57,10.31-11.85,16.79-22.3,21.73,12,.54,20.92-4.59,28.83-11.91s16.83-12.25,27.84-12c-8.24,9.17-11.69,18.46-11.9,27.8-.25,11.15-4.53,19.82-12.36,28.27,11.45-4,17.74-12.09,22.27-21.76s11-17.54,21.35-21.43c-4.13,11.49-3.75,21.28-.32,29.9,4.1,10.29,3.49,19.82-.53,30.5,9.12-8,11.85-17.73,12.32-28.28s3.42-20.17,11.62-27.64c.61,12.07,4.76,20.89,11.32,27.47,7.83,7.86,11,16.81,11.36,28.09,5.4-10.76,4.18-20.67.51-30.5s-4.65-19.73.1-29.65c5.26,10.79,12.57,17.29,21.25,20.84,10.37,4.24,16.76,11.23,21.51,21.39.86-11.87-4.13-20.46-11.37-28.06s-12-16.29-11.45-27.15c9.11,7.89,18.45,11.06,27.94,11,11.33,0,20,4,28.42,11.46C430,235.49,422,229.5,412.26,225.28S394.73,214.92,391,204.78c11.57,3.77,21.52,3.18,30.36-.42,10.56-4.3,20.23-3.94,31-.25-7.91-8.78-17.72-11.22-28.43-11.41s-20.37-2.88-27.76-10.75c12.26-.91,21.32-5.22,28.17-11.84,8.19-7.91,17.36-11.21,28.83-11.89-10.8-5-20.9-3.59-31,.27s-20.17,5.07-30.13.65c11.1-5.45,17.89-12.81,21.72-21.45,4.57-10.31,11.83-16.78,22.28-21.72-12-.54-20.9,4.58-28.81,11.91s-16.86,12.24-27.88,12c8.24-9.17,11.71-18.45,11.92-27.78.25-11.15,4.53-19.82,12.36-28.27-11.45,4-17.74,12.09-22.27,21.76S370.42,123.06,360,127c4.13-11.49,3.77-21.27.34-29.88-4.1-10.29-3.49-19.82.53-30.5-9.12,8-11.85,17.73-12.32,28.28S345.14,115,337,122.45c-.62-12-4.78-20.83-11.33-27.41C317.8,87.18,314.67,78.21,314.27,66.94Z" style="fill:#fcd43c"/><path d="M144,220.3c6.86-10.3,7.15-13.3,15.45-13.73,5.43,4.15,8.15,13.87,22.88,9.72,10.73-8.15,17.88-20.16,30.89-24s7.29,10.15,16,10.87c7-6.72,14.44-10.58,22.88-10.3,7.87-1.43,3.86,8,16,0s14-19.74,32.61-32c13.28-7.95,33.73,17.35,59.61,25.5,5.38,2.24,29,4.25,40.42.82s15-12.45,32.68-16c46.87,18.69,86.26,68.83,109.26,115,2.72,36.18,2,29.89-1.72,58.35s-1.54,23.59-12.26,48.33c-37.61,0-17.24-1.9-103.86-2-96.25-22.45-208.51-44.91-282-80.66-20.31-22.6-12.3-39.9-12-62.35s6.29-17.16,13.16-27.46Z" style="fill:#c16834;stroke:#000;stroke-width:2.471928834915161px"/><path d="M206.58,237c.16-3.12,27.19-31.88,21.77-34" style="fill:none;stroke:#000;stroke-width:2.4700000286102295px"/><path d="M260.7,195.78c3.08,11.89,51.54,11,51.54,11" style="fill:none;stroke:#000;stroke-width:2.4700000286102295px"/><path d="M209.15,250.4C225.9,235,246.93,245,251.89,257" style="fill:none;stroke:#000;stroke-width:2.4700000286102295px"/><path d="M153.64,277.71c6.79-11.47,9.15-11.25,16-14.84,4.21-9.59,2.92-15.07,5.83-32.15,4.74,17.12-1.4,22.7,3.74,32.76,9.14,7.32,13.53,4.32,14.19,20.75,11.26.48,14.24-.29,17.26,0-3.6-29.69,6.67-5.89,10.19-41.31,3.14,35.25,10.94,13.31,10,34.23,15,2.64,15-1.47,26.43-8.65,9.83-4.45,4.82-1.63,11.21-2.23,5.15,1.87,4.72,8.8,16.19,7.86,82.47,28,164.68-17.15,9.68,109.19-48.93,1-65,19-77.69,43.06-35.81,8.66-46.1,8.19-65.53-8.42s-10.53-30-12.17-58,.7-31.59,5.62-54.29,2.29-16.42,9.08-27.89Z" style="fill:#852a29;stroke:#000;stroke-width:2.471928834915161px"/><path d="M199.89,304.07l-20.31.37.74,37.66" style="fill:none;stroke:#000;stroke-width:2.4000000953674316px"/><path d="M209.49,298.16l21.78.37.37,24.74" style="fill:none;stroke:#000;stroke-width:2.4000000953674316px"/><path d="M179.65,304.73V280.58a13,13,0,0,0-4.25-12.07" style="fill:none;stroke:#000;stroke-width:2.4000000953674316px"/><path d="M367,180.14c-6.68-2.73-4.25,63.76-4.25,63.76" style="fill:none;stroke:#000;stroke-width:2.471928834915161px"/><path d="M336.49,175.29c-4.25-.3-1.52,72.57-1.52,72.57" style="fill:none;stroke:#000;stroke-width:2.471928834915161px"/><path d="M515.16,142c1.67-.7,11.34,17.09,11.29,19.28" style="fill:none;stroke:#000;stroke-width:1.5px"/><path d="M504.12,165.6c-1.5,1-8.42-3.06-8.82-5.21" style="fill:none;stroke:#000;stroke-width:1.5px"/><path d="M214.43,399.19l-2.32,3.09" style="fill:none;stroke:#000;stroke-width:2.471928834915161px"/><path d="M315.61,322c.71.35,8.33,3.19,8.33,3.19l9.74.53" style="fill:none;stroke:#000;stroke-linejoin:round;stroke-width:1.2359644174575806px"/><path d="M504.64,143.79c1.77-.39,6.65,6,6.21,8.14" style="fill:none;stroke:#000;stroke-width:1.5px"/><path d="M508.48,147.63c1.81,12.22-1.07,15.69,12.3,21.46C521.71,158,517.61,154.93,508.48,147.63Z" style="fill:#fcd43c;stroke:#000;stroke-width:1.5px"/><path d="M501.73,165.78c7.72-.59,14.89-4.85,23.5,8.8C512.6,176.84,512.74,175.29,501.73,165.78Z" style="fill:#fcd43c;stroke:#000;stroke-width:1.5px"/><path d="M512.68,177c8.4-2.27,13.31-6.66,20.5,5.65C523.55,182.8,522.36,185.31,512.68,177Z" style="fill:#fcd43c;stroke:#000;stroke-width:1.5px"/><path d="M517.85,183.87c7.65-.66,14.77-5,23.15,8.47C528.49,194.7,528.64,193.17,517.85,183.87Z" style="fill:#fcd43c;stroke:#000;stroke-width:1.5px"/><path d="M525.18,194c8.14-1.43,16.07-6.69,23.66,6.87C535,203.56,536.7,198,525.18,194Z" style="fill:#fcd43c;stroke:#000;stroke-width:1.5px"/><path d="M533.82,202.81c7.76-1.26,15.94-6.54,23.36,6.49-11.17,1.63-12.77,1.71-23.36-6.49Z" style="fill:#fcd43c;stroke:#000;stroke-width:1.5px"/><path d="M521.69,151.55c.06,5.61-6.36,13.11,5.08,23.16C529,160.74,529.94,161.69,521.69,151.55Z" style="fill:#fcd43c;stroke:#000;stroke-width:1.5px"/><path d="M529.61,159c-.32,5.66-7.24,13.66,3.54,23C536.32,167.77,537.19,168.67,529.61,159Z" style="fill:#fcd43c;stroke:#000;stroke-width:1.5px"/><path d="M536.17,166.44c-.21,6-7.35,14.24,4.27,24.38C543.46,175.87,544.4,176.84,536.17,166.44Z" style="fill:#fcd43c;stroke:#000;stroke-width:1.5px"/><path d="M546,175.69c-1.7,5.07-11.73,11.79,2.89,24.09C553.09,190.31,548.2,187.14,546,175.69Z" style="fill:#fcd43c;stroke:#000;stroke-width:1.5px"/><path d="M551.53,187.45c-2.1,7.26-5,9.94,6,20.74C558.63,196,559.52,196.93,551.53,187.45Z" style="fill:#fcd43c;stroke:#000;stroke-width:1.5px"/><path d="M539.45,188.57c1.08,7.48-.43,11.11,14,16.42C549.46,193.46,550.64,193.91,539.45,188.57Z" style="fill:#fcd43c;stroke:#000;stroke-width:1.5px"/><path d="M525.33,171.79c1.08,7.48-.43,11.11,14,16.42C535.34,176.68,536.53,177.13,525.33,171.79Z" style="fill:#fcd43c;stroke:#000;stroke-width:1.5px"/><path d="M518.54,164.26c.57,4-.23,5.9,7.46,8.72C523.85,166.85,524.48,167.09,518.54,164.26Z" style="fill:#fcd43c;stroke:#000;stroke-width:1.5px"/><path d="M527.86,192.81c7.7.82,15.52-2.08,21.53,12.9C536.56,205.65,537,204.15,527.86,192.81Z" style="fill:#fcd43c;stroke:#000;stroke-width:1.5px"/><path d="M536.6,205.86c8.67-.71,14.29-4.15,19.14,9.26C546.25,213.48,544.63,215.74,536.6,205.86Z" style="fill:#fcd43c;stroke:#000;stroke-width:1.5px"/><path d="M540.45,213.51c7.64.73,15.43-2.21,21.24,12.51-12.74.07-12.31-1.41-21.24-12.51Z" style="fill:#fcd43c;stroke:#000;stroke-width:1.5px"/><path d="M545.82,224.84c8.26.07,17-3.68,22,11-14.1.1-11.41-5.07-22-11Z" style="fill:#fcd43c;stroke:#000;stroke-width:1.5px"/><path d="M552.74,235c7.86.16,16.86-3.56,21.8,10.6C563.26,245.21,561.67,245,552.74,235Z" style="fill:#fcd43c;stroke:#000;stroke-width:1.5px"/><path d="M550.06,182.41c-1,5.53-8.62,11.75.81,23.7C555.6,192.78,556.34,193.88,550.06,182.41Z" style="fill:#fcd43c;stroke:#000;stroke-width:1.5px"/><path d="M556.51,191.15c-1.33,5.51-9.59,12.12-.68,23.3C561.52,201,562.22,202,556.51,191.15Z" style="fill:#fcd43c;stroke:#000;stroke-width:1.5px"/><path d="M561.62,199.68c-1.28,5.83-9.8,12.68-.21,24.75C567.09,210.27,567.84,211.39,561.62,199.68Z" style="fill:#fcd43c;stroke:#000;stroke-width:1.5px"/><path d="M569.65,210.55c-2.59,4.68-13.67,9.48-1.5,24.21C573.95,226.21,569.71,222.21,569.65,210.55Z" style="fill:#fcd43c;stroke:#000;stroke-width:1.5px"/><path d="M572.93,223.12c-3.37,6.76-6.68,8.88,2.18,21.49C578.37,232.84,579.08,233.88,572.93,223.12Z" style="fill:#fcd43c;stroke:#000;stroke-width:1.5px"/><path d="M560.84,222c-.29,7.55-2.43,10.85,10.84,18.68C569.81,228.65,570.89,229.3,560.84,222Z" style="fill:#fcd43c;stroke:#000;stroke-width:1.5px"/><path d="M550,203c-.29,7.55-2.43,10.85,10.84,18.68C559,209.59,560,210.25,550,203Z" style="fill:#fcd43c;stroke:#000;stroke-width:1.5px"/><path d="M544.67,194.34c-.15,4-1.29,5.76,5.76,9.92C549.43,197.86,550,198.21,544.67,194.34Z" style="fill:#fcd43c;stroke:#000;stroke-width:1.5px"/><path d="M554.41,239c7.46,2.09,15.65.53,19.08,16.31C560.85,253.13,561.51,251.73,554.41,239Z" style="fill:#fcd43c;stroke:#000;stroke-width:1.5px"/><path d="M560.85,253.34c8.67.74,14.78-1.71,17.33,12.32C569.1,262.47,567.13,264.43,560.85,253.34Z" style="fill:#fcd43c;stroke:#000;stroke-width:0.6068136096000671px"/><path d="M563.38,261.53c7.41,2,15.58.39,18.86,15.88-12.57-2.06-11.9-3.44-18.86-15.88Z" style="fill:#fcd43c;stroke:#000;stroke-width:1.5px"/><path d="M566.79,273.6c8.14,1.44,17.39-.79,19.89,14.55-13.92-2.25-10.41-6.9-19.89-14.55Z" style="fill:#fcd43c;stroke:#000;stroke-width:1.5px"/><path d="M571.91,284.79c7.72,1.47,17.22-.7,19.73,14.08C580.59,296.59,579.06,296.11,571.91,284.79Z" style="fill:#fcd43c;stroke:#000;stroke-width:1.5px"/><path d="M578,232.47c-1.86,5.3-10.46,10.15-3.15,23.5C581.77,243.61,582.32,244.83,578,232.47Z" style="fill:#fcd43c;stroke:#000;stroke-width:1.5px"/><path d="M582.94,242.16c-2.23,5.21-11.47,10.36-4.55,22.86C586.24,252.72,586.75,253.86,582.94,242.16Z" style="fill:#fcd43c;stroke:#000;stroke-width:0.6068136096000671px"/><path d="M586.55,251.42c-2.23,5.54-11.77,10.87-4.33,24.37C590.18,262.77,590.74,264,586.55,251.42Z" style="fill:#fcd43c;stroke:#000;stroke-width:1.5px"/><path d="M592.66,263.48c-3.33,4.18-15.06,7.07-5.52,23.62C594.29,279.64,590.78,275,592.66,263.48Z" style="fill:#fcd43c;stroke:#000;stroke-width:1.5px"/><path d="M593.8,276.42c-4.45,6.1-8.07,7.64-1.43,21.55C597.54,286.91,598.07,288.06,593.8,276.42Z" style="fill:#fcd43c;stroke:#000;stroke-width:1.5px"/><path d="M582.07,273.33c-1.54,7.39-4.2,10.29,7.58,20.23C589.8,281.35,590.76,282.18,582.07,273.33Z" style="fill:#fcd43c;stroke:#000;stroke-width:1.5px"/><path d="M574.54,252.74c-1.54,7.39-4.2,10.29,7.58,20.23C582.28,260.76,583.23,261.59,574.54,252.74Z" style="fill:#fcd43c;stroke:#000;stroke-width:1.5px"/><path d="M570.73,243.34c-.82,3.93-2.23,5.47,4,10.74C574.84,247.6,575.34,248,570.73,243.34Z" style="fill:#fcd43c;stroke:#000;stroke-width:1.5px"/><path d="M477,180c.9-1.57-3.73-8.14-5.91-8.37" style="fill:none;stroke:#000;stroke-width:1.5px"/><path d="M479.08,187.38c.9-1.57-13.49-7.08-13.33-11.13" style="fill:none;stroke:#000;stroke-width:1.5px"/><path d="M474.91,175.22c2.3,12.14-.44,15.72,13.16,20.94C488.55,185.08,484.33,182.15,474.91,175.22Z" style="fill:#fcd43c;stroke:#000;stroke-width:1.5px"/><path d="M468.89,193.63c7.69-.9,14.68-5.45,23.84,7.85C480.2,204.23,480.28,202.69,468.89,193.63Z" style="fill:#fcd43c;stroke:#000;stroke-width:1.5px"/><path d="M480.29,204.43c8.3-2.6,13-7.19,20.71,4.82C491.38,209.75,490.3,212.3,480.29,204.43Z" style="fill:#fcd43c;stroke:#000;stroke-width:1.5px"/><path d="M485.73,211.05c7.61-1,14.56-5.55,23.47,7.53C496.8,221.45,496.89,219.91,485.73,211.05Z" style="fill:#fcd43c;stroke:#000;stroke-width:1.5px"/><path d="M493.47,220.92c8.07-1.75,15.79-7.33,23.92,5.91C503.65,230,505.13,224.41,493.47,220.92Z" style="fill:#fcd43c;stroke:#000;stroke-width:1.5px"/><path d="M502.45,229.33c7.7-1.57,15.67-7.18,23.6,5.54-11.1,2.08-12.69,2.22-23.6-5.54Z" style="fill:#fcd43c;stroke:#000;stroke-width:1.5px"/><path d="M488.26,178.6c.28,5.61-5.83,13.36,6,22.94C495.94,187.49,496.91,188.41,488.26,178.6Z" style="fill:#fcd43c;stroke:#000;stroke-width:1.5px"/><path d="M496.48,185.7c-.09,5.67-6.68,13.94,4.47,22.88C503.54,194.22,504.44,195.08,496.48,185.7Z" style="fill:#fcd43c;stroke:#000;stroke-width:1.5px"/><path d="M503.33,192.9c0,6-6.77,14.52,5.25,24.19C511,202,512,203,503.33,192.9Z" style="fill:#fcd43c;stroke:#000;stroke-width:1.5px"/><path d="M513.56,201.74c-1.5,5.13-11.25,12.25,3.86,23.95C521.2,216.07,516.19,213.1,513.56,201.74Z" style="fill:#fcd43c;stroke:#000;stroke-width:1.5px"/><path d="M519.52,213.28c-1.8,7.33-4.56,10.13,6.86,20.48C527,221.56,527.9,222.42,519.52,213.28Z" style="fill:#fcd43c;stroke:#000;stroke-width:1.5px"/><path d="M507.5,214.87c1.38,7.43,0,11.11,14.69,15.84C517.7,219.36,518.9,219.76,507.5,214.87Z" style="fill:#fcd43c;stroke:#000;stroke-width:1.5px"/><path d="M492.72,198.68c1.38,7.43,0,11.11,14.69,15.84C502.92,203.16,504.12,203.56,492.72,198.68Z" style="fill:#fcd43c;stroke:#000;stroke-width:1.5px"/><path d="M485.63,191.43c.73,3.94,0,5.9,7.8,8.41C491,193.81,491.68,194,485.63,191.43Z" style="fill:#fcd43c;stroke:#000;stroke-width:1.5px"/><path d="M505.94,232.37c7.73.48,15.41-2.76,22.07,11.95C515.19,244.81,515.54,243.3,505.94,232.37Z" style="fill:#fcd43c;stroke:#000;stroke-width:1.5px"/><path d="M527.67,221c-.71,5.57-8.1,12.11,1.85,23.64C533.65,231.13,534.44,232.2,527.67,221Z" style="fill:#fcd43c;stroke:#000;stroke-width:1.5px"/><path d="M511.13,240.1c7.6,1.52,15.64-.65,20.25,14.83C518.61,253.69,519.16,252.24,511.13,240.1Z" style="fill:#fcd43c;stroke:#000;stroke-width:1.5px"/><path d="M518.63,253.9c8.7.09,14.61-2.82,18.21,11C527.54,262.38,525.72,264.48,518.63,253.9Z" style="fill:#fcd43c;stroke:#000;stroke-width:1.5px"/><path d="M521.77,261.88c7.54,1.43,15.56-.78,20,14.41-12.69-1.11-12.13-2.54-20-14.41Z" style="fill:#fcd43c;stroke:#000;stroke-width:1.5px"/><path d="M526.07,273.66c8.22.83,17.28-2.1,20.92,13-14-1.2-10.9-6.1-20.92-13Z" style="fill:#fcd43c;stroke:#000;stroke-width:1.5px"/><path d="M532,284.43c7.81.89,17.12-2,20.74,12.56C541.56,295.54,540,295.18,532,284.43Z" style="fill:#fcd43c;stroke:#000;stroke-width:1.5px"/><path d="M534.2,231.79c-1.46,5.42-9.67,10.9-1.37,23.67C538.76,242.62,539.4,243.79,534.2,231.79Z" style="fill:#fcd43c;stroke:#000;stroke-width:1.5px"/><path d="M539.82,241.08c-1.83,5.37-10.66,11.19-2.82,23.14C543.9,251.36,544.49,252.46,539.82,241.08Z" style="fill:#fcd43c;stroke:#000;stroke-width:1.5px"/><path d="M544.11,250c-1.81,5.69-10.92,11.72-2.48,24.63C548.59,261.1,549.23,262.28,544.11,250Z" style="fill:#fcd43c;stroke:#000;stroke-width:1.5px"/><path d="M551.11,261.61c-3,4.42-14.48,8.18-3.73,24C554,277.6,550.1,273.23,551.11,261.61Z" style="fill:#fcd43c;stroke:#000;stroke-width:1.5px"/><path d="M553.22,274.43c-4,6.42-7.47,8.23.19,21.6C557.74,284.61,558.36,285.72,553.22,274.43Z" style="fill:#fcd43c;stroke:#000;stroke-width:1.5px"/><path d="M541.29,272.24c-1,7.49-3.42,10.58,9.08,19.6C549.6,279.65,550.62,280.4,541.29,272.24Z" style="fill:#fcd43c;stroke:#000;stroke-width:1.5px"/><path d="M532.24,252.27c-1,7.49-3.42,10.58,9.08,19.6C540.55,259.68,541.57,260.43,532.24,252.27Z" style="fill:#fcd43c;stroke:#000;stroke-width:1.5px"/><path d="M527.73,243.18c-.52,4-1.81,5.62,4.82,10.41C532.14,247.11,532.68,247.52,527.73,243.18Z" style="fill:#fcd43c;stroke:#000;stroke-width:1.5px"/><path d="M433.89,197.32c2.3,12.14-.44,15.72,13.16,20.94C447.53,207.17,443.31,204.24,433.89,197.32Z" style="fill:#fcd43c;stroke:#000;stroke-width:1.5px"/><path d="M427.88,215.72c7.69-.9,14.68-5.45,23.84,7.85C439.18,226.33,439.26,224.78,427.88,215.72Z" style="fill:#fcd43c;stroke:#000;stroke-width:1.5px"/><path d="M439.27,226.52c8.3-2.6,13-7.19,20.71,4.82C450.36,231.84,449.28,234.4,439.27,226.52Z" style="fill:#fcd43c;stroke:#000;stroke-width:1.5px"/><path d="M444.71,233.14c7.61-1,14.56-5.55,23.47,7.53C455.78,243.54,455.87,242,444.71,233.14Z" style="fill:#fcd43c;stroke:#000;stroke-width:1.5px"/><path d="M452.45,243c8.07-1.75,15.79-7.33,23.92,5.91C462.63,252.13,464.12,246.5,452.45,243Z" style="fill:#fcd43c;stroke:#000;stroke-width:1.5px"/><path d="M461.44,251.43c7.7-1.57,15.67-7.18,23.6,5.54-11.1,2.08-12.69,2.22-23.6-5.54Z" style="fill:#fcd43c;stroke:#000;stroke-width:1.5px"/><path d="M447.25,200.69c.28,5.61-5.83,13.36,6,22.94C454.92,209.58,455.89,210.5,447.25,200.69Z" style="fill:#fcd43c;stroke:#000;stroke-width:1.5px"/><path d="M455.46,207.79c-.09,5.67-6.68,13.94,4.47,22.88C462.52,216.31,463.42,217.17,455.46,207.79Z" style="fill:#fcd43c;stroke:#000;stroke-width:1.5px"/><path d="M462.32,215c0,6-6.77,14.52,5.25,24.19C470,224.12,471,225,462.32,215Z" style="fill:#fcd43c;stroke:#000;stroke-width:1.5px"/><path d="M472.54,223.83c-1.5,5.13-11.25,12.25,3.86,23.95C480.18,238.16,475.17,235.19,472.54,223.83Z" style="fill:#fcd43c;stroke:#000;stroke-width:1.5px"/><path d="M478.51,235.37c-1.8,7.33-4.56,10.13,6.86,20.48C486,243.65,486.88,244.52,478.51,235.37Z" style="fill:#fcd43c;stroke:#000;stroke-width:1.5px"/><path d="M466.48,237c1.38,7.43,0,11.11,14.69,15.84C476.68,241.45,477.88,241.85,466.48,237Z" style="fill:#fcd43c;stroke:#000;stroke-width:1.5px"/><path d="M451.7,220.77c1.38,7.43,0,11.11,14.69,15.84C461.9,225.25,463.1,225.66,451.7,220.77Z" style="fill:#fcd43c;stroke:#000;stroke-width:1.5px"/><path d="M444.61,213.52c.73,3.94,0,5.9,7.8,8.41C450,215.9,450.66,216.11,444.61,213.52Z" style="fill:#fcd43c;stroke:#000;stroke-width:1.5px"/><path d="M428.32,215.57c.82-1.2-4.56-7.48-5.91-5.91" style="fill:none;stroke:#000;stroke-width:1.5px"/><path d="M436.13,214.46s-7-11.64-9.85-9.85" style="fill:none;stroke:#000;stroke-width:1.5px"/><path d="M435.5,198.75c-1.27.45-5.66-8.43-7.38-7.38" style="fill:#fcd43c;stroke:#000;stroke-width:1.5px"/><path d="M447.65,200.26c.9-1.57-3.73-8.14-5.91-8.37" style="fill:none;stroke:#000;stroke-width:1.5px"/><path d="M488,178.47c.9-1.57-3.73-8.14-5.91-8.37" style="fill:none;stroke:#000;stroke-width:1.5px"/><path d="M469.61,193.84c1.43-1.11-9.77-11.69-8.09-15.36" style="fill:none;stroke:#000;stroke-width:1.5px"/><path d="M510.7,161.76c-1.5,1-12.24-6.24-12.64-8.39" style="fill:none;stroke:#000;stroke-width:1.5px"/><path d="M514.12,421.71l8.64,21.85,18,.25,10.42-22.11Z" style="fill:#fff;stroke:#000;stroke-width:2.4000000953674316px"/><path d="M509.29,397.57l31.26-8.89L548.43,422l-30.49-.25-8.64-24.14Z" style="fill:#fff;stroke:#000;stroke-width:2.4000000953674316px"/><path d="M510.06,398.08l19.57,7.12,10.93-16.26" style="fill:none;stroke:#000;stroke-width:2.4000000953674316px"/><path d="M529.37,404.68l4.32,17.53" style="fill:none;stroke:#000;stroke-width:2.4000000953674316px"/><path d="M207.2,333.31l.72,79.78,191.91.72V343.38l-175.38.72V333.31H207.2Z" style="fill:#fcd400;stroke:#000;stroke-width:2.471928834915161px"/><path d="M285.54,343.38v39.53" style="fill:none;stroke:#000;stroke-width:2.471928834915161px"/><path d="M256.79,344.81l.72,33.06,12.94,12.94" style="fill:none;stroke:#000;stroke-width:2.471928834915161px"/><path d="M294,358.76l8.71-.06.11,9.83H294l0-9.77Z" style="fill:none;stroke:#000;stroke-width:2.471928834915161px"/><path d="M309.3,359l8.71-.06.11,9.83h-8.84l0-9.77Z" style="fill:none;stroke:#000;stroke-width:2.471928834915161px"/><path d="M219.73,365.33l8.71-.06.11,9.83h-8.84l0-9.77Z" style="fill:none;stroke:#000;stroke-width:2.471928834915161px"/><path d="M239.16,365.57l8.71-.06.11,9.83h-8.84l0-9.77Z" style="fill:none;stroke:#000;stroke-width:2.471928834915161px"/><path d="M225.07,343.74v10.76" style="fill:none;stroke:#000;stroke-width:2.471928834915161px"/><path d="M242.38,344.68l.23,9.36" style="fill:none;stroke:#000;stroke-width:2.471928834915161px"/><path d="M239.57,254.58l.7,89.86,21.53.23V254.82Z" style="fill:#ce1126;stroke:#000;stroke-width:2.471928834915161px"/><path d="M248.7,259.73l12.87.23" style="fill:none;stroke:#000;stroke-width:2.471928834915161px"/><path d="M247.3,266l13.34.23" style="fill:none;stroke:#000;stroke-width:4.202279567718506px"/><path d="M249.17,274.94h8.89" style="fill:none;stroke:#000;stroke-width:2.471928834915161px"/><path d="M247.06,283.37h15" style="fill:none;stroke:#000;stroke-width:5.438243389129639px"/><path d="M247.3,291.79h14.28" style="fill:none;stroke:#000;stroke-width:2.471928834915161px"/><path d="M246.83,300.92H261.1" style="fill:none;stroke:#000;stroke-width:3.9550862312316895px"/><path d="M248.94,309.58l13.11-.47" style="fill:none;stroke:#000;stroke-width:2.471928834915161px"/><path d="M246.83,320.58l14.51.23" style="fill:none;stroke:#000;stroke-width:5.438243389129639px"/><path d="M246.13,327.83l15.68.23" style="fill:none;stroke:#000;stroke-width:5.438243389129639px"/><path d="M506.56,443.58l50.09,1.79v17.89" style="fill:none;stroke:#000;stroke-width:2.471928834915161px"/><path d="M283.41,276.94c6.18-19.65,21.37-32,31.8-27-.93-38.08-.88-53.94-.61-63.56.3-10.8,14.19-15.25,23.07-7.1,15.17-18.72,22.67-5.45,31,.82,2.43-7.43,15.83-13.18,21.24,4.48.09,17.66.35,42,.41,66.18,10.31-6.27,27.17,7.14,34.54,28.36-65.77,3.9-23.86,54.64-86.05,56.67-46.56,0-26.16-22.19-55.44-58.85Z" style="fill:#852a29;stroke:#000;stroke-width:2.471928834915161px"/><path d="M336.92,179.71c2.73,2.18,2.18,67.58,2.18,67.58" style="fill:#852a29;stroke:#000;stroke-width:2.471928834915161px"/><path d="M367.62,181.25c-3.82,7.64.13,67.8.13,67.8" style="fill:#852a29;stroke:#000;stroke-width:2.471928834915161px"/><path d="M474.25,595.95c-38.18,68.28-122.75,91.68-188.88,52.26s-88.79-126.74-50.61-195,122.75-91.68,188.88-52.26a140.61,140.61,0,0,1,50.61,52.26c-38.18-49.24-107.8-57.2-155.49-17.77s-55.4,111.3-17.21,160.54,107.8,57.2,155.49,17.77a112.49,112.49,0,0,0,17.21-17.77" style="fill:#ce1126"/><polygon points="479.58 524.56 413.82 502.5 403.14 536.45 479.58 524.56" style="fill:#ce1126"/><polygon points="479.58 524.56 413.82 546.62 403.14 512.67 479.58 524.56" style="fill:#ce1126"/><polygon points="431.8 592.45 431.8 521.07 397.24 521.07 431.8 592.45" style="fill:#ce1126"/><polygon points="431.8 592.45 391.17 534.7 419.13 513.72 431.8 592.45" style="fill:#ce1126"/><polygon points="431.8 456.67 391.17 514.42 419.13 535.4 431.8 456.67" style="fill:#ce1126"/><polygon points="431.8 456.67 431.8 528.05 397.24 528.05 431.8 456.67" style="fill:#ce1126"/><polygon points="354.51 566.52 420.26 544.46 409.58 510.52 354.51 566.52" style="fill:#ce1126"/><polygon points="354.51 566.52 395.14 508.77 423.11 529.75 354.51 566.52" style="fill:#ce1126"/><polygon points="354.51 482.6 395.14 540.35 423.11 519.38 354.51 482.6" style="fill:#ce1126"/><polygon points="354.51 482.6 420.26 504.66 409.58 538.61 354.51 482.6" style="fill:#ce1126"/><path d="M351,337.2c9.42,2.52,33-2.52,32.73-18.31C363.53,315.24,351.3,321.17,351,337.2Z" style="fill:#006735;stroke:#000;stroke-linecap:round;stroke-linejoin:round;stroke-width:1.730350136756897px"/><path d="M373.62,338.47c-1.76-9.5-7.83-12.92,8.9-25C387.09,328.84,386.5,325.19,373.62,338.47Z" style="fill:#006735;stroke:#000;stroke-linecap:round;stroke-linejoin:round;stroke-width:1.730350136756897px"/><path d="M384.63,329.93c-4-10.16-7.7-17,7.46-27.18C393.46,314.66,395.9,325.65,384.63,329.93Z" style="fill:#006735;stroke:#000;stroke-linecap:round;stroke-linejoin:round;stroke-width:1.730350136756897px"/><path d="M393.75,323.67c-1.84-9.39-6.52-19.83,9.94-31.63C408.39,307.28,404.52,309.33,393.75,323.67Z" style="fill:#006735;stroke:#000;stroke-linecap:round;stroke-linejoin:round;stroke-width:1.730350136756897px"/><path d="M401.48,320.23c-2.91-9.92-4.33-28,12.4-38.8C418.44,300.88,409.64,307.58,401.48,320.23Z" style="fill:#006735;stroke:#000;stroke-linecap:round;stroke-linejoin:round;stroke-width:1.730350136756897px"/><path d="M413.53,300.8c-2.64-9.47-3.93-19.8,12.14-30.36C429.24,284.09,422.88,286.83,413.53,300.8Z" style="fill:#006735;stroke:#000;stroke-linecap:round;stroke-linejoin:round;stroke-width:1.730350136756897px"/><path d="M355.15,324c7.33-.67,15.67,2.8,27.33-12.43C364,310.24,367.35,312.68,355.15,324Z" style="fill:#006735;stroke:#000;stroke-linecap:round;stroke-linejoin:round;stroke-width:1.730350136756897px"/><path d="M362.68,315.14c7.44-.21,17.66,2.06,28.53-12.28C372.19,300.44,374.89,309,362.68,315.14Z" style="fill:#006735;stroke:#000;stroke-linecap:round;stroke-linejoin:round;stroke-width:1.730350136756897px"/><path d="M376.81,306.06c7.82-.38,13.21,2.29,25-13.16C381.86,290.74,380.93,297.62,376.81,306.06Z" style="fill:#006735;stroke:#000;stroke-linecap:round;stroke-linejoin:round;stroke-width:1.730350136756897px"/><path d="M386.52,296.56c6.84,1.57,11.67,4.3,25.85-15.11-12.89-4.16-19.45,3.41-25.85,15.11Z" style="fill:#006735;stroke:#000;stroke-linecap:round;stroke-linejoin:round;stroke-width:1.730350136756897px"/><path d="M396.85,283.44c9.75,1.83,15.78,1.54,28.48-13.22C409.3,270.18,408.21,272.54,396.85,283.44Z" style="fill:#006735;stroke:#000;stroke-linecap:round;stroke-linejoin:round;stroke-width:1.730350136756897px"/><path d="M430.07,255.84c-4.4.43-7.88,7.6-8.56,11.62C422.37,280.67,434.17,264.9,430.07,255.84Z" style="fill:#006735;stroke:#000;stroke-linecap:round;stroke-linejoin:round;stroke-width:1.730350136756897px"/><path d="M350.28,343.37c-9.42,2.52-33-2.52-32.73-18.31C337.76,321.41,350,327.34,350.28,343.37Z" style="fill:#006735;stroke:#000;stroke-linecap:round;stroke-linejoin:round;stroke-width:1.730350136756897px"/><path d="M327.66,344.64c1.76-9.5,7.83-12.92-8.9-25C314.19,335,314.78,331.36,327.66,344.64Z" style="fill:#006735;stroke:#000;stroke-linecap:round;stroke-linejoin:round;stroke-width:1.730350136756897px"/><path d="M316.65,336.1c4-10.16,7.7-17-7.46-27.18C307.82,320.83,305.38,331.82,316.65,336.1Z" style="fill:#006735;stroke:#000;stroke-linecap:round;stroke-linejoin:round;stroke-width:1.730350136756897px"/><path d="M307.53,329.84c1.84-9.39,6.52-19.83-9.94-31.63C292.89,313.45,296.76,315.5,307.53,329.84Z" style="fill:#006735;stroke:#000;stroke-linecap:round;stroke-linejoin:round;stroke-width:1.730350136756897px"/><path d="M299.8,326.4c2.91-9.92,4.33-28-12.4-38.8C282.84,307,291.64,313.76,299.8,326.4Z" style="fill:#006735;stroke:#000;stroke-linecap:round;stroke-linejoin:round;stroke-width:1.730350136756897px"/><path d="M287.75,307c2.64-9.47,3.93-19.8-12.14-30.36C272,290.26,278.41,293,287.75,307Z" style="fill:#006735;stroke:#000;stroke-linecap:round;stroke-linejoin:round;stroke-width:1.730350136756897px"/><path d="M346.13,330.13c-7.33-.67-15.67,2.8-27.33-12.43C337.33,316.41,333.93,318.85,346.13,330.13Z" style="fill:#006735;stroke:#000;stroke-linecap:round;stroke-linejoin:round;stroke-width:1.730350136756897px"/><path d="M338.6,321.31c-7.44-.21-17.66,2.06-28.53-12.28C329.09,306.61,326.39,315.15,338.6,321.31Z" style="fill:#006735;stroke:#000;stroke-linecap:round;stroke-linejoin:round;stroke-width:1.730350136756897px"/><path d="M324.47,312.23c-7.82-.38-13.21,2.29-25-13.16C319.42,296.91,320.35,303.79,324.47,312.23Z" style="fill:#006735;stroke:#000;stroke-linecap:round;stroke-linejoin:round;stroke-width:1.730350136756897px"/><path d="M314.76,302.73c-6.84,1.57-11.67,4.3-25.85-15.11,12.89-4.16,19.45,3.41,25.85,15.11Z" style="fill:#006735;stroke:#000;stroke-linecap:round;stroke-linejoin:round;stroke-width:1.730350136756897px"/><path d="M304.43,289.61c-9.75,1.83-15.78,1.54-28.48-13.22C292,276.35,293.07,278.71,304.43,289.61Z" style="fill:#006735;stroke:#000;stroke-linecap:round;stroke-linejoin:round;stroke-width:1.730350136756897px"/><path d="M271.21,262c4.4.43,7.88,7.6,8.56,11.62C278.91,286.84,267.11,271.08,271.21,262Z" style="fill:#006735;stroke:#000;stroke-linecap:round;stroke-linejoin:round;stroke-width:1.730350136756897px"/><path d="M392.8,356.43c-4.52,6.78,53.12,29.39,53.12,29.39S405.24,337.76,392.8,356.43Z" style="fill:#006735;stroke:#000;stroke-linecap:round;stroke-linejoin:round;stroke-width:1.730350136756897px"/><path d="M450.72,388.07C452,379.66,473.61,368,473.61,368s5-9.28,3.39-16.11c-4.52,2-30.52,10.17-25.15,18.65,0,0-3.39,14.69-1.13,17.52Z" style="fill:#006735;stroke:#000;stroke-linecap:round;stroke-linejoin:round;stroke-width:1.730350136756897px"/><path d="M438,312.35c-2.54,3.11-5.37,15.82-4.52,29.39s5.09,12.43,6.78,20.34S436,369.42,438,375.64s7.06,14.41,10.17,11.3,5.09-4,2.26-23.73-7.63-46.06-12.43-50.86Z" style="fill:#006735;stroke:#000;stroke-linecap:round;stroke-linejoin:round;stroke-width:1.730350136756897px"/><path d="M568,414.07c7.91-9.61,11.58-27.41,23.45-47.47s17.24-18.65,22.32-32.78c1.41-14.69,2.83-11.3-.57-23.73-3.11,10.17-23.45,51.71-27.12,49.73.57-8.76,17.11-60.69,4.83-64.08-7.63,9.61-2.29,47.7-9.35,50.52s2-34.75-11.3-32.78c-5.93,2,16.11,42.95-2.26,100.59Z" style="fill:#006735;stroke:#000;stroke-linecap:round;stroke-linejoin:round;stroke-width:1.730350136756897px"/><path d="M488.07,398.15c13.12-7,9.71-20.67,20.83-38.65,18.43-37.39-2.36,37.43,12.46,25.69,6.58-14.08,5.85-54.22,1.76-53.48-2.68,8.43-18.31,22.8-21.76,21,14-17,14.34-51.48,9.57-54.52-8.21,8.61-6.51,39.83-13.12,42.37s0-27-12.42-25.26c-5.56,1.77,15.77,26.37,2.68,82.82Z" style="fill:#006735;stroke:#000;stroke-linecap:round;stroke-linejoin:round;stroke-width:1.730350136756897px"/><path d="M527,393.71c13.12-7,9.71-20.67,20.83-38.65,18.43-37.39-1.71,25.16,13.1,13.41,5.05-13.82.88-50.33-3.21-49.59-2.68,8.43-14,31.19-17.44,29.41,9-11.28,16.15-51.48,11.39-54.52-12.52,5.73-9.85,35.77-14.94,42.37-6.62,2.53,0-27-12.42-25.26C518.77,312.67,540.1,337.27,527,393.71Z" style="fill:#006735;stroke:#000;stroke-linecap:round;stroke-linejoin:round;stroke-width:1.730350136756897px"/><path d="M461.77,251.63c7.74.41,15.39-2.91,22.19,11.73C471.14,264,471.47,262.48,461.77,251.63Z" style="fill:#fcd43c;stroke:#000;stroke-width:1.5px"/><path d="M471.19,264.2c8.62-1.17,14-4.91,19.61,8.23C481.23,271.3,479.73,273.64,471.19,264.2Z" style="fill:#fcd43c;stroke:#000;stroke-width:1.5px"/><path d="M475.44,271.64c7.67.32,15.29-3,21.88,11.36-12.72.75-12.37-.75-21.88-11.36Z" style="fill:#fcd43c;stroke:#000;stroke-width:1.5px"/><path d="M481.41,282.67c8.25-.37,16.8-4.58,22.59,9.84-14.07.86-11.67-4.45-22.59-9.84Z" style="fill:#fcd43c;stroke:#000;stroke-width:1.5px"/><path d="M488.87,292.46c7.85-.26,16.65-4.45,22.34,9.42C499.91,302.07,498.32,301.94,488.87,292.46Z" style="fill:#fcd43c;stroke:#000;stroke-width:1.5px"/><path d="M483.38,240.07c-.66,5.58-8,12.19,2.08,23.62C489.46,250.12,490.26,251.19,483.38,240.07Z" style="fill:#fcd43c;stroke:#000;stroke-width:1.5px"/><path d="M490.29,248.45c-1,5.58-8.92,12.62.57,23.31C495.82,258,496.57,259,490.29,248.45Z" style="fill:#fcd43c;stroke:#000;stroke-width:1.5px"/><path d="M495.84,256.69c-1,5.89-9.11,13.18,1.12,24.73C501.87,267,502.68,268.06,495.84,256.69Z" style="fill:#fcd43c;stroke:#000;stroke-width:1.5px"/><path d="M504.44,267.12c-2.33,4.81-13.14,10.19-.21,24.26C509.57,282.53,505.13,278.76,504.44,267.12Z" style="fill:#fcd43c;stroke:#000;stroke-width:1.5px"/><path d="M508.39,279.49c-3,6.93-6.2,9.22,3.33,21.34C514.34,288.91,515.11,289.92,508.39,279.49Z" style="fill:#fcd43c;stroke:#000;stroke-width:1.5px"/><path d="M496.26,279.05c.12,7.55-1.85,11,11.83,18.08C505.57,285.18,506.68,285.78,496.26,279.05Z" style="fill:#fcd43c;stroke:#000;stroke-width:1.5px"/><path d="M484.41,260.61c.12,7.55-1.85,11,11.83,18.08C493.71,266.74,494.83,267.34,484.41,260.61Z" style="fill:#fcd43c;stroke:#000;stroke-width:1.5px"/><path d="M478.63,252.27c.06,4-1,5.82,6.28,9.6C483.57,255.53,484.16,255.84,478.63,252.27Z" style="fill:#fcd43c;stroke:#000;stroke-width:1.5px"/><path d="M184.21,380.84c15,4.22,21,6.81,16.83,23.54C186.83,397.25,188.5,395.72,184.21,380.84Z" style="fill:#006735;stroke:#000;stroke-linecap:round;stroke-linejoin:round;stroke-width:1.730350136756897px"/><path d="M178.21,391c12,5.13,26.52,9.48,22.76,28.13C179.86,411.92,182.88,407.68,178.21,391Z" style="fill:#006735;stroke:#000;stroke-linecap:round;stroke-linejoin:round;stroke-width:1.730350136756897px"/><path d="M179.25,405.88c13.6,4.8,28,8.86,22.95,27C178.8,425,191.38,418.16,179.25,405.88Z" style="fill:#006735;stroke:#000;stroke-linecap:round;stroke-linejoin:round;stroke-width:1.730350136756897px"/><path d="M222.18,422.54c-11.72,5.1-19.12,5.42-15.93,23.61C222.33,435.77,222.56,437.27,222.18,422.54Z" style="fill:#006735;stroke:#000;stroke-linecap:round;stroke-linejoin:round;stroke-width:1.730350136756897px"/><path d="M175,419c12.84,4.67,37.49,18.72,32.79,36.28C189.56,448.36,180.74,434.45,175,419Z" style="fill:#006735;stroke:#000;stroke-linecap:round;stroke-linejoin:round;stroke-width:1.730350136756897px"/><path d="M220.17,375.46c-7.21,5-22.93,11.55-18.37,28.29C223.42,393,219.69,390.07,220.17,375.46Z" style="fill:#006735;stroke:#000;stroke-linecap:round;stroke-linejoin:round;stroke-width:1.730350136756897px"/><path d="M223.8,388.24c-7.41,5.34-26.73,11-21.85,29.08C224.2,405.83,223.44,404,223.8,388.24Z" style="fill:#006735;stroke:#000;stroke-linecap:round;stroke-linejoin:round;stroke-width:1.730350136756897px"/><path d="M231.12,403.16c-7.54-2-34.15,6.46-27.44,28.76C228.42,423.4,232.42,409.44,231.12,403.16Z" style="fill:#006735;stroke:#000;stroke-linecap:round;stroke-linejoin:round;stroke-width:1.730350136756897px"/><path d="M203.19,414.5c-7.34,7.69-13.87,9.9.94,25.65C212,426.51,213.18,427.82,203.19,414.5Z" style="fill:#006735;stroke:#000;stroke-linecap:round;stroke-linejoin:round;stroke-width:1.730350136756897px"/><path d="M202.57,388.46c-7.34,7.69-13.87,9.9.94,25.65C211.37,400.48,212.56,401.78,202.57,388.46Z" style="fill:#006735;stroke:#000;stroke-linecap:round;stroke-linejoin:round;stroke-width:1.730350136756897px"/><path d="M204.56,369.55c-3.9,4.08-12.77,12.14-2.45,20.5C206.29,382.81,209.87,376.62,204.56,369.55Z" style="fill:#006735;stroke:#000;stroke-linecap:round;stroke-linejoin:round;stroke-width:1.730350136756897px"/><path d="M207.42,474c7.17-24.29,46-50.47,35.48-64.92-3.68,21.29-32.46,28.32-37.06,44.95-4.34-9.13-20.24-11.3-21.29-.26,6.19,3.06,22.12-2.85,9.25,22.6C198.28,478.15,199.37,479.17,207.42,474Z" style="fill:#006735;stroke:#000;stroke-linecap:round;stroke-linejoin:round;stroke-width:1.730350136756897px"/><path d="M129,227.37c-.33-3.89,1-13.63,2-25.19,6-7.42,9-13.23,15-12.75,6.15,16.48-8.65,31.47-10.47,49.71-5.71,1-6.21-4.66-6.54-11.77Z" style="fill:#007a3d;stroke:#000;stroke-linecap:round;stroke-linejoin:round;stroke-width:1.399999976158142px"/><path d="M134.41,255.25c-2.53-19.75,15.29-32.16,18.88-35,5.33,20.27-13.28,51.21-22.72,57.33-3.5-13.46-8.21-19.4-15-32.86,3.32-14.16,2.27-16.25,8.74-23.77,4.72,2.62,12.32,28.14,10.14,34.26Z" style="fill:#007a3d;stroke:#000;stroke-linecap:round;stroke-linejoin:round;stroke-width:1.399999976158142px"/><path d="M164.13,514.9c.18-10.6,3.63-12.05,6.76-13.5-5.48-31.25-8.34-51.37,5.15-84.91-11.23-1.19-19.83,12-19.94,36.66-3.35-32.63,22.74-50.87,13.51-71.4-6,5.1-14.91,7.57-21.87,43.74-1-26.95,26.5-52.59,18.65-74-11.51,7.95-27.92,20.47-27.66,40.52,3.17-32.15,25.64-29,17.37-59.18-11.43,2.89-15,18.87-22.51,28.3,19.8-38.7,27.52-53,27-59.18-9.84,1.55-19.3,15.27-28.95,28.3,14.77-17,29.86-36.68,29.59-54-22.94,7.4-29.76,11.53-34.09,26.37-5.37-13.56-16.3-22.3-24.44-33.45-1.85,7.68.66,18.13,5.07,27.78s10.65,18.4,16.35,22.87c-10.9-12.67-23.64-15.73-26.57-24.93,2,34.54,9.84,18.59,28.76,53.34-5.49-12.16-21.82-14.09-32.62-33.4-5.46,15.42,8.08,36.56,16.72,45l-17.37-7.72c-5.35,30.09,24.3,38.59,39.88,57.89-11.12-15.44-25.18-18.79-39.24-25.73C92.56,393.89,97.95,403.11,104,412c18.63,6.12,33,15.84,41.17,36-9.49-15-21.6-7.81-37.31-22.51,3.72,36.54,27.06,33.5,44.51,41.91,8.53,11.31,14.11,25.24,6.94,37.85l4.82,9.64Z" style="fill:#007a3d;stroke:#000;stroke-linecap:round;stroke-linejoin:round;stroke-width:2px"/><path d="M128.11,295.45c9.18-12.41,36.53-24.73,36.7-46.14-12.41,4.11-26.83,17.65-34.61,29-6-7.52-6.82-22.11-18.88-32.51-4.72,14.07,3.41,42.12,16.78,49.64Z" style="fill:#007a3d;stroke:#000;stroke-linecap:round;stroke-linejoin:round;stroke-width:1.399999976158142px"/><path d="M510.14,460.58c12.83,22.91,7.48,5,14.31,37.57,9.61-1.79,18.56-42.71,24.15-44.72,1.64,10.53,5.16,18.77-1.79,36.67C534.42,502,496.57,510.72,495,545.81c-14.86-33,5.59-32.19,17.85-43.2,5.14-5.81,3.57-6.69-2.92-8.48-13.45,10-21.56,6.61-21.4-.3s6.93-10.32,17.16-4.64c3.72.11-2.55-31.09,4.47-28.62Z" style="fill:#006735"/><path d="M175.37,535.38s13-21.28,26-23.85c-22.75-15.81-27.53-24.55-22.78-62.39-3.35,3.35-15.86,16.23-10.83,32-16.79-15.49-16.36-2.57-33.6-9.76-6.88,26.7,56.52,3.37,41.19,64Z" style="fill:#006531;stroke:#000;stroke-linecap:round;stroke-linejoin:round;stroke-width:2.471928834915161px"/><path d="M352.3,6.08,348.52,13l7.81,4.34,3.94-7ZM341.05,10.3l-3.75,7,7.81,4.25,3.84-7ZM282.8,15.14c-.44,1.58-.92,3.27-1.41,5.06s-.9,3.47-1.25,5q2,6,3.91,11.72,3.06,9.49,5.66,18.25t3.59,13.75c.08.41.21,1.21.38,2.44s.28,2.34.38,3.28l1,.28a48.54,48.54,0,0,0,1.88-6.69,20.76,20.76,0,0,0-.09-7.69c-.65-3.22-1.9-8-3.75-14.16-1.47-5-3.26-10.53-5.31-16.69s-3.69-11-4.94-14.56Zm-28.75,3.41a29.59,29.59,0,0,0-.12,6,32.63,32.63,0,0,0,1.19,6.25l2.78.47,17,38.19-17.53,5-.06-.19q-4.43-11-9.81-16.69a23.67,23.67,0,0,0-16-7.78l2.88,9.06A15.76,15.76,0,0,1,247,63.3q4.26,4,7.53,12.13L237,82.49a6,6,0,0,1-3.25.53,4.64,4.64,0,0,1-2.91-1.94l-1,.44a21.24,21.24,0,0,0,.56,3.34,26.58,26.58,0,0,0,1.09,3.19,4.61,4.61,0,0,0,3.47,2.69,8.33,8.33,0,0,0,5.25-.37l18.56-7.5,0,.06L282,76.27l-2.62-9.19L263.24,31.86l2.47.13a19.6,19.6,0,0,0-.25-4.25,37.63,37.63,0,0,0-1.06-5.12c-1.77-.17-3.54-.35-5.28-.53-2.29-.32-3.7-1.4-4.22-3.22l-.84-.31Zm102.34,6.16a21,21,0,0,0-2.5,3.38,7.86,7.86,0,0,0-1.19,3.69,16.25,16.25,0,0,0,.28,2c.19,1.11.31,1.8.38,2.06a52,52,0,0,0-13.84,8.66c-3.71,3.33-5.57,6.39-5.62,9.19,0,.78,1.21,1.45,3.69,2a48.27,48.27,0,0,0,9.34.94,8.31,8.31,0,0,0,4.75-1.44,11.5,11.5,0,0,0,3.78-4.16,49.47,49.47,0,0,0,3,11.63c1.72,4,3.72,6.08,6.06,6.13l5.28.09V69l27.56,3.78L399,61c.79-5.74.94-9.9.41-12.5A27.66,27.66,0,0,0,396,41l-4.87,7.38A26.19,26.19,0,0,1,394.86,55a22.1,22.1,0,0,1,.19,8.91l-23.34-3.22v-.22l-7-.12c-1.07,0-2.09-1.72-3-5.12a104.14,104.14,0,0,1-2-10.31l-1.31-8.41c-.42-2-.76-4-1.06-5.87S356.68,26.73,356.39,24.71Zm-2.31,16.75.84,5.34q-2.69,3-5.62,3a22.48,22.48,0,0,1-3.75-.31,11.22,11.22,0,0,1-2.41-.75,13.85,13.85,0,0,1,4.19-4.22A30.84,30.84,0,0,1,354.08,41.46ZM481.18,44.8a11.72,11.72,0,0,0-4.12,1c-2.32,1-3.65,1.89-4.06,2.81a2.68,2.68,0,0,0,.13,2.22,10.47,10.47,0,0,0,1.5,2.31c-3.44-.28-5.46.26-6.06,1.63l9.56.81a17.14,17.14,0,0,0,3.38,0,2.65,2.65,0,0,0,2.25-1.37,11.6,11.6,0,0,1-2-.19,11.44,11.44,0,0,1-1.44-.56,8.26,8.26,0,0,1-3-2.72c-1-1.39-1.45-2.3-1.25-2.75s.62-.55,1.38-.53a5.49,5.49,0,0,1,2.13.47,4.77,4.77,0,0,1,2.44,2.56,11.77,11.77,0,0,0,1.41-1.09,3.57,3.57,0,0,0,.81-1.16,2.27,2.27,0,0,0,.06-1.87,2.4,2.4,0,0,0-1.28-1.28A4.08,4.08,0,0,0,481.18,44.8Zm29.59,6.31c-1.36.92-2.82,1.89-4.34,2.94s-2.93,2.06-4.19,3q-2.29,5.87-4.59,11.47-3.8,9.22-7.5,17.56c-2.46,5.57-4.49,9.85-6.12,12.81-.2.37-.64,1.08-1.31,2.12s-1.27,1.94-1.81,2.72l.53.88a49,49,0,0,0,5.78-3.91,20.72,20.72,0,0,0,4.88-5.94q2.38-4.32,6.28-13.22,3.15-7.13,6.78-16.16T510.77,51.11Zm-64.09,4.81-4.75,6.59a35.13,35.13,0,0,1,3,8.16,17.35,17.35,0,0,1-.06,8.41c-.82,2.88-3.13,5.74-6.94,8.53a37.4,37.4,0,0,1-12.62,6,25.67,25.67,0,0,1-13.62.28,34.24,34.24,0,0,1-5.91-2.34c-2.12-1.06-4.14-2.1-6.09-3.09l-1.34,1.66,6,4.44a64.68,64.68,0,0,0,6.22,4.16,30.3,30.3,0,0,0,6.75,2.94q3.52,1,9.94-.84a37.44,37.44,0,0,0,11.94-5.69c3.72-2.67,6.12-5.61,7.22-8.78l24.19,10.72,4.81-10.91q3.52-7.94,3.84-11.91A27.82,27.82,0,0,0,478,66.14l-6.72,5.72A26.4,26.4,0,0,1,473,79.27q0,3.32-2.31,8.59l-21.94-9.75,1.09-3.84a20.22,20.22,0,0,0,.47-9.59A27.46,27.46,0,0,0,446.68,55.93ZM207.86,71l.47,8.78a26,26,0,0,1,6.91,3.16A22.07,22.07,0,0,1,220.64,90L199.77,101.3l-.16-.22c-1.34-1.88-3.79-3.83-7.41-5.81a85.91,85.91,0,0,0-9.75-4.37A20.81,20.81,0,0,0,178.74,98a31.36,31.36,0,0,0-1.66,10.34,18,18,0,0,1-1.09,6.84,14.16,14.16,0,0,1-5.12,6.41l-5.78,4.13L159.83,120a31.3,31.3,0,0,0-9.53-7.34q-6.2-2.92-9.87.47c-2.13,2-2.77,4.87-1.94,8.75a18.69,18.69,0,0,0,4.56,8.94c2.65,2.87,5.89,3.62,9.75,2.28q2.56-.9,9.56-5.69a26.14,26.14,0,0,1-2.75,3.84,50.53,50.53,0,0,1-3.62,3.66l-12.22,11.25-3.06-2.5a20.28,20.28,0,0,0-8.62-4.25,27.56,27.56,0,0,0-9.5-.09l4.19,7a35.12,35.12,0,0,1,8.66.47,17.43,17.43,0,0,1,7.72,3.38q3.49,2.83,5.09,9.72a37.5,37.5,0,0,1,.56,14,25.65,25.65,0,0,1-5.12,12.63,34.43,34.43,0,0,1-4.5,4.5c-1.81,1.53-3.54,3-5.22,4.41l1,1.88c2.14-1.24,4.28-2.52,6.44-3.78a65.1,65.1,0,0,0,6.28-4.06,30.11,30.11,0,0,0,5.34-5c1.54-1.89,2.56-5.06,3.13-9.47a37.66,37.66,0,0,0-.5-13.25c-1-4.5-2.74-7.86-5.25-10.12l20.84-19.19,4.66-4c3.07-2.19,5.17-4.22,6.25-6.09a16.68,16.68,0,0,0,1.91-7.28,27.94,27.94,0,0,0,9.53-1,22.14,22.14,0,0,0,6.84-3.09l2.88-2,.06.13L227.8,95.77,222.14,85.3Q218,77.66,215.05,75a27.89,27.89,0,0,0-7.19-4Zm180.56,6.22-4.59,6.41,7.28,5.22,4.72-6.44Zm-11.69,2.88-4.53,6.5,7.28,5.16,4.63-6.5Zm171.72,8.09-7.19,3.53,3.88,8,7.22-3.44ZM132.86,93.83,125.74,95l1.31,7.59,7.19-1.19Zm51.53,4.06a29,29,0,0,1,5.19,2.12,25.74,25.74,0,0,1,4.81,3.41l0,.75a19.82,19.82,0,0,1-6,2,15.84,15.84,0,0,1-6,.09,17.44,17.44,0,0,1,0-4.28,8.35,8.35,0,0,1,1.94-4.09Zm-57.78,5.66-6.87,1.09,1.44,7.56,7.13-1.16Zm105.63.91-9,.19.09,7.88,9-.06Zm309.53,4.84L535,113.77a35.28,35.28,0,0,1-.09,8.69,17.36,17.36,0,0,1-3,7.84q-2.68,3.61-9.5,5.5A37.38,37.38,0,0,1,508.39,137a25.68,25.68,0,0,1-12.84-4.56,34.57,34.57,0,0,1-4.69-4.31c-1.61-1.74-3.15-3.41-4.62-5l-1.84,1.06q2,3.12,4,6.28a64.42,64.42,0,0,0,4.38,6.09,30.11,30.11,0,0,0,5.25,5.13c2,1.46,5.17,2.35,9.59,2.72a37.5,37.5,0,0,0,13.19-1.06c4.75-1.26,8.18-3.34,10.31-6.22l.28-.37,36,40.91L581,197.55l7.94-5.37,28.41-26.28.69,2.38a19.46,19.46,0,0,0,3.94-1.56,37.56,37.56,0,0,0,4.53-2.62c-.39-1.74-.78-3.44-1.16-5.16-.41-2.28.19-4,1.75-5l0-.91a29.77,29.77,0,0,0-5.75,1.78,32.47,32.47,0,0,0-5.56,3.06l.44,2.78-31,28.09-10.62-15.66-1.31-2.78c-.72-1.23-1.08-4.48-1.09-9.78,0-6.82-.23-11.62-.53-14.37q-.94-8.31-4.28-12a11.69,11.69,0,0,0-8-4.09,15.9,15.9,0,0,0-6.78,1.16,37.64,37.64,0,0,1,3.63,3.5,24.36,24.36,0,0,1,4.38,6.84,38.52,38.52,0,0,1,2.31,8.38c.47,2.65.08,5,.41,9.22l-26.69-29.44,1.56-2.09a20.26,20.26,0,0,0,3.84-8.81A27.39,27.39,0,0,0,541.77,109.3Zm-317.28,4.38-9,.22.19,7.94,8.91-.16-.09-8Zm-76.22,5.78A9.69,9.69,0,0,1,151,120a31.09,31.09,0,0,1,5.53,2.81,38.75,38.75,0,0,1-5.34,3.72c-2.46,1.12-4.54.79-6.22-1a3.65,3.65,0,0,1-1-2.53,3.06,3.06,0,0,1,1-2.37,4.31,4.31,0,0,1,2.56-1.12,5.76,5.76,0,0,1,.78,0Zm394.06,38.81-7.84,2,2.31,8.63,7.66-2Zm-479.22,9.5c.86,1.4,1.77,2.9,2.75,4.47s1.93,3,2.81,4.31q5.77,2.54,11.25,5.09,9,4.2,17.25,8.25t12.53,6.69c.36.22,1,.69,2.06,1.41s1.87,1.36,2.63,1.94l.88-.5a49.44,49.44,0,0,0-3.62-5.94,20.82,20.82,0,0,0-5.72-5.16c-2.81-1.71-7.13-4-12.94-6.84Q86,178,77.14,174T63.11,167.77Zm576.22,11.44c-1.64.07-3.4.18-5.25.28s-3.56.2-5.12.34q-5,3.81-9.91,7.38-8.06,5.88-15.56,11.09T591.55,206c-.37.21-1.1.58-2.22,1.13s-2.13,1-3,1.38l0,1a48.48,48.48,0,0,0,6.94-.31,20.81,20.81,0,0,0,7.28-2.5c2.86-1.63,6.94-4.3,12.25-8q6.41-4.43,14.22-10.25c5.21-3.88,9.31-7,12.28-9.25ZM87.39,204a11.15,11.15,0,0,0-3.53.5c-3.21,1-5.65,3.54-7.34,7.59-1.33,3.18-1.87,7.46-1.62,12.78.08,1.76.54,5.88,1.38,12.41-1.79-1.21-3.13-2.09-4-2.62A48.75,48.75,0,0,0,65.43,231a58.51,58.51,0,0,0-9.78-2.87,109.15,109.15,0,0,0-11.91-1.94l.44-.5a15.37,15.37,0,0,0,1.13-1.5,23.77,23.77,0,0,0-2.75-2.16c-.78-.5-2.66-1.53-5.62-3.12a18.88,18.88,0,0,1-3.5,4.88,6.15,6.15,0,0,1-4.66,1.91,28.44,28.44,0,0,0,4.16,3.72,47.94,47.94,0,0,0,4.84,3.13l2.56-2.22c3.18.41,5.85.78,8,1.13q6.29,1,10.81,2.13a75.47,75.47,0,0,1,11,3.56,22.26,22.26,0,0,1,4.19,2.31,27.91,27.91,0,0,1,3.72,3.09,33.59,33.59,0,0,1,.44,8.31,21.21,21.21,0,0,1-1.59,6.06c-4.25,11.55-.08,7.61-17.12,5.25a27.74,27.74,0,0,0-7.75,2.66l6.84,5.56a26.1,26.1,0,0,1,6.94-3,22.12,22.12,0,0,1,8.88.72L69.18,291,69,291l-.84,6.94q-.19,1.6-5.41,2.5a102.8,102.8,0,0,1-10.44,1l-8.5.47c-2.06.21-4.05.35-6,.47s-3.9.23-5.94.31A21.24,21.24,0,0,0,35,305.46,7.74,7.74,0,0,0,38.52,307a15.74,15.74,0,0,0,2.09-.06c1.12-.08,1.8-.12,2.06-.16a51.87,51.87,0,0,0,7.25,14.63c2.95,4,5.78,6.2,8.56,6.53.78.09,1.58-1.09,2.38-3.5a48.27,48.27,0,0,0,1.84-9.19,8.31,8.31,0,0,0-.94-4.87A11.6,11.6,0,0,0,58,306.18a49.55,49.55,0,0,0,11.88-1.84q6.28-2,6.69-5.44l.63-5.25.09,0,6.53-27.06,21.84-56.31-11.41-4.75A18.51,18.51,0,0,0,87.39,204Zm2.28,8.44a3.84,3.84,0,0,1,1.69.31c2.31,1,2,5-1,12.06l-8.16,19.63c-.43-2.61-.76-5.12-1-7.5a55.75,55.75,0,0,1-.12-8.84,26,26,0,0,1,1.72-8.16,16.7,16.7,0,0,1,4-6.28A4.59,4.59,0,0,1,89.68,212.39ZM654.36,231.8l-1.62,8.75,7.88,1.47,1.56-8.84Zm-33.53,7.75a7.24,7.24,0,0,0-2.16.31c-.75.23-1,1.6-.75,4.13a48.61,48.61,0,0,0,2,9.19,8.3,8.3,0,0,0,2.84,4.06,11.51,11.51,0,0,0,5.13,2.31A49.35,49.35,0,0,0,617.83,266c-3.3,2.88-4.62,5.45-3.94,7.69l1.56,5.06-.09,0,4.94,27.38L632,304.08c5.7-1,9.72-2.19,12-3.5a27.8,27.8,0,0,0,6-5.56l-8.5-2.34a26.29,26.29,0,0,1-5.16,5.59q-2.74,1.88-8.41,2.91L623.86,278l.19-.06-2-6.69q-.47-1.54,3.94-4.47a103.59,103.59,0,0,1,9.16-5.09l7.59-3.87c1.8-1,3.55-2,5.25-2.84s3.48-1.78,5.31-2.69a21.23,21.23,0,0,0-4-1.34,7.84,7.84,0,0,0-3.87,0,17,17,0,0,0-1.84.91c-1,.53-1.61.86-1.84,1a52,52,0,0,0-12.53-10.47c-3.24-1.87-6-2.81-8.34-2.81ZM662,241.11l-1.69,8.78,7.81,1.56,1.63-8.91Zm-35.62,6a13.84,13.84,0,0,1,5.31,2.66,30.79,30.79,0,0,1,5,5.47l-4.81,2.47c-2.48-1.08-4-2.57-4.56-4.44a22.58,22.58,0,0,1-.87-3.66,11,11,0,0,1,0-2.5Zm-533.09,22L87.3,276l5.94,5.22,5.94-6.72Zm1.63,11.94L89,287.89l6,5.19,5.84-6.72Zm504.47,5.41L596.71,295l7.63,2.38L607,288.8Zm6.44,10.16-2.72,8.53,7.59,2.5L613.3,299ZM18,297.33l-5.06,7.5,6.5,4.47,5.09-7.37Zm35.72,9c1.83,2,2.61,3.94,2.38,5.88a22.75,22.75,0,0,1-.69,3.72,10.87,10.87,0,0,1-.94,2.28,13.88,13.88,0,0,1-3.81-4.56,31,31,0,0,1-2.34-7ZM21,309l-5,7.47,6.59,4.44,5-7.37Zm583,3.44c-.79,2.34-1.59,4.69-2.37,7.06a64.91,64.91,0,0,0-2,7.22A30.11,30.11,0,0,0,599,334c.09,2.44,1.36,5.5,3.84,9.19a37.67,37.67,0,0,0,9.13,9.63c4,2.91,7.7,4.29,11.28,4.16l11.88-.47a20.26,20.26,0,0,0,9.28-2.5,27.3,27.3,0,0,0,7.19-6.16l-7.78-2.5a35,35,0,0,1-6.81,5.34,17.39,17.39,0,0,1-8,2.53c-3,.11-6.39-1.18-10.22-3.94a37.51,37.51,0,0,1-9.66-10.16,25.66,25.66,0,0,1-4.47-12.87,34.29,34.29,0,0,1,.41-6.34c.35-2.34.69-4.59,1-6.75Zm1.44,47.19c-1,2-2,4-3.06,6a66.49,66.49,0,0,0-2.72,6.19,31.54,31.54,0,0,0-1.62,6.47q-1.19,8.61,6.69,16.41a28.1,28.1,0,0,0,12.22,7.5l-2.87,9.44-3.31-1.09a15.94,15.94,0,0,0-14,1.84,16.49,16.49,0,0,0-7,9.09,4.83,4.83,0,0,0,1.44,5.22,13.51,13.51,0,0,0,5.5,2.91,11.26,11.26,0,0,0,7.81-.53,15,15,0,0,0,5.5-3.87l-5.19,17.09.19.06-2.84,5.84a21.62,21.62,0,0,0-2.5,8.38,16.61,16.61,0,0,0,1.84,7.28,27.9,27.9,0,0,0-7.84,5.5,22.11,22.11,0,0,0-4.5,6l-2.22,4.59.78.38-32.28,43.34-16.94,17.59,6.88,6.63,31.53,22.44-2.19,1.16a19.61,19.61,0,0,0,2.34,3.53,38.19,38.19,0,0,0,3.5,3.94c1.62-.74,3.21-1.5,4.81-2.22,2.15-.87,3.89-.62,5.25.69l.91-.16a29.59,29.59,0,0,0-2.91-5.25,32.34,32.34,0,0,0-4.12-4.81l-2.66,1L548,543.55c4.44-4.59,9.16-9.52,13.5-14l2.13-1.5c1.06-1,4.19-2,9.38-3.12q10-2.17,13.94-3.47,7.93-2.64,10.84-6.69a11.64,11.64,0,0,0,2.34-8.66,15.93,15.93,0,0,0-2.53-6.41A37.67,37.67,0,0,1,595,504a24.42,24.42,0,0,1-5.81,5.69,38.54,38.54,0,0,1-7.72,4q-3.74,1.51-9.78,3.28L595,484.74l-.34-1.19c2.08,1,5.16,1.51,9.28,1.5a85.27,85.27,0,0,0,10.66-.84,20.89,20.89,0,0,0-.16-8,31.32,31.32,0,0,0-3.56-9.84,18.07,18.07,0,0,1-2.34-6.53,14.2,14.2,0,0,1,1.41-8.09l3.22-6.75-1.12-.53.94.28,6.25-20.56c.81,4.84,1.6,7.85,2.38,9a10.54,10.54,0,0,0,6,4.19,13.83,13.83,0,0,0,5.69.53c1.9-.22,3-.82,3.31-1.78.56-1.84,0-4.15-1.69-6.94a38.86,38.86,0,0,0-6.12-7.53,74.74,74.74,0,0,0-7-6.06l3.59-11.81-1.28-.41,1.22.19a31,31,0,0,0,10.81,0c3.43-.77,5.36-2.57,5.75-5.37s-1-5.27-4-7.53A19.12,19.12,0,0,0,629,387c-3.61-.5-6.39.36-8.31,2.59-1.69,2-2.8,5.12-3.41,9.47-3.06-3-5.27-5.31-6.59-6.91A35.54,35.54,0,0,1,605,383a22.5,22.5,0,0,1-1.47-11.59,23.76,23.76,0,0,1,1.44-5.25c.74-1.92,1.46-3.72,2.13-5.47Zm-542,5.78c-.64,0-1.29,0-1.94.09q-4.91.48-14.44,2.31c-5.1,1-10.82,2.14-17.16,3.56S18.63,374,15,374.83c1.53.6,3.17,1.24,4.91,1.91s3.35,1.24,4.84,1.75c4.09-1,8.09-1.87,12-2.72q9.75-2.09,18.72-3.78c6-1.13,10.69-1.86,14.06-2.19.42,0,1.23-.08,2.47-.12s2.33-.07,3.28-.06l.41-.91a49.56,49.56,0,0,0-6.47-2.56,20.94,20.94,0,0,0-5.75-.75Zm12.22,16.44-9.41,1.69L29.64,396l.38-2.44a19.48,19.48,0,0,0-4.25-.19,37.87,37.87,0,0,0-5.22.53c-.35,1.75-.71,3.47-1.06,5.19q-.83,3.37-3.62,3.88l-.37.84a29.35,29.35,0,0,0,5.94.69,32.62,32.62,0,0,0,6.34-.53l.75-2.72,39.72-13,3.34,18.75-3.91,1.31a29.63,29.63,0,0,0-8.06,3.81,23.42,23.42,0,0,0-4.09,4.25l6.06,1.31c1.27-1.86,2-2.93,2.25-3.25a10.56,10.56,0,0,1,4.84-3.72,2.8,2.8,0,0,1,2.22.13,2.85,2.85,0,0,1,1.44,1.75,5.72,5.72,0,0,1-.34,4.84c-.93,1.65-3,3.47-6.12,5.44l-4,2.41,3.41,1c1-.56,1.9-1.08,2.75-1.5a21.4,21.4,0,0,1,2.72-1.09,4.49,4.49,0,0,1,4.47.59A10.24,10.24,0,0,1,78,429l1,3.09a7.39,7.39,0,0,1-.41,5.78,17,17,0,0,1-4,4.94q-1.67,1.48-5.5,4.19l3.41,1a28.7,28.7,0,0,1,2.84-1.53,27.76,27.76,0,0,1,2.66-1,4.37,4.37,0,0,1,5.16,1.28c3,8.4,8.22,16,11.09,24.47a5.8,5.8,0,0,1-.25,3.56,35.92,35.92,0,0,0-6.34-2,7,7,0,0,0-4.69.5q-3.47,1.89-3,6.78a23.3,23.3,0,0,0,3,8.59c2,3.74,4,6.06,5.91,7,2.08,1,4.67.68,7.81-1l2.53-1.37-.5-.91a4.53,4.53,0,0,1-1.94-.66,3.68,3.68,0,0,1-1-1.22,4.53,4.53,0,0,1-.06-4L97,483.39a30.62,30.62,0,0,1,6.63,5.31,31.53,31.53,0,0,1,4.44,6.28l1.84,3.38L107.68,500c-4.71,3.37-7.85,6.14-9.38,8.31a27.91,27.91,0,0,0-3.06,7.63l8.69-1.56a26.19,26.19,0,0,1,2.25-7.25q1.66-2.87,6.34-6.22l13.38,18.69-2.5,2.16q-6.57,5.69-8.53,9.16a27.44,27.44,0,0,0-2.37,7.84l8.5-2.31a26.1,26.1,0,0,1,1.59-7.44c.93-2,2.82-4.27,5.72-6.78L143.74,540l-.16.19,5.19,4.69c.79.72.41,2.69-1.12,5.88a103.44,103.44,0,0,1-5.28,9.06L137.8,567c-1,1.8-2,3.5-3.06,5.13s-2.07,3.32-3.19,5a20.82,20.82,0,0,0,4.09-.91,7.92,7.92,0,0,0,3.34-2,19.15,19.15,0,0,0,1.13-1.75c.59-1,1-1.54,1.09-1.78a51.75,51.75,0,0,0,16.09,2.59c5-.06,8.43-1.12,10.31-3.19q.79-.87-1.47-3.94a48.22,48.22,0,0,0-6.41-6.84,8.36,8.36,0,0,0-4.53-2.06,11.54,11.54,0,0,0-5.59.63A49.58,49.58,0,0,0,155,547.21c1.37-4.17,1.17-7-.56-8.62L150.55,535l.06-.06-18.22-21-.06.06-15-20.94-.47.31-1.34-2.44a31.87,31.87,0,0,0-7.34-9.28,24,24,0,0,0-7.56-4.41,11.82,11.82,0,0,0,1.72-7.37,15.23,15.23,0,0,0-1.75-6.37l-7-14.25A21.73,21.73,0,0,0,91,443.43a16,16,0,0,0-3.66-3.34,26.92,26.92,0,0,0,.69-4.53,14,14,0,0,0-.66-5.12l-1-3a21.08,21.08,0,0,0-3-6.19,14.45,14.45,0,0,0-3.53-3.06,14.13,14.13,0,0,0,1-4.66,15,15,0,0,0-.87-5.34l-.81-2.44.81-.16ZM631,392a4.67,4.67,0,0,1,.56,0,3,3,0,0,1,2.13,1.31,3.41,3.41,0,0,1,.56,2.47,4,4,0,0,1-2,3c-1.33.83-3.62,1.41-6.81,1.69.45-3.22,1.2-5.48,2.22-6.78A4,4,0,0,1,631,392ZM608.8,413.8a17.43,17.43,0,0,1,4.88.81,25.34,25.34,0,0,1-6.22,7.66q-5.06,4.38-8.75,3.25a1.52,1.52,0,0,1-1.09-1.22,4.07,4.07,0,0,1,.13-2.09c1.2-4,3.43-6.51,6.72-7.69A12.35,12.35,0,0,1,608.8,413.8Zm13,5.22q4.15,4,5.84,6c2.36,2.76,3.31,4.82,2.91,6.16s-2,1.4-5,.5c-1.31-.4-2.31-1.94-3-4.59A29,29,0,0,1,621.77,419ZM38.08,422.64l-1.41,8.94,7.78,1.28,1.5-8.81Zm7.72,9.25-1.37,8.91L52.27,442l1.41-8.78Zm-12.94,2.59-1.47,8.88,7.88,1.19,1.53-8.72Zm574.28,36.22a17.35,17.35,0,0,1,2,3.78,8.27,8.27,0,0,1,.28,4.5,29,29,0,0,1-5.56.66,25.62,25.62,0,0,1-5.84-.66l-.41-.66a19.8,19.8,0,0,1,4.28-4.66A15.83,15.83,0,0,1,607.14,470.71ZM565.46,488l-8,4.06,3.56,7.09,8-3.87Zm-427.59,1.16-8,1,1.34,9,7.91-1.19ZM147.74,506l-7.81,1.75,2.16,8.78,7.66-1.78Zm10.66,5.5-7.78,1.84,2.13,8.75,7.72-1.91Zm370.44,37.19-1,.22a49.44,49.44,0,0,0,1.72,6.75,20.8,20.8,0,0,0,4,6.59q3.27,3.69,10.31,10.34,5.65,5.36,12.94,11.81c4.87,4.3,8.75,7.66,11.59,10.09-.41-1.59-.87-3.27-1.34-5.06s-.95-3.43-1.41-4.94q-4.76-4.13-9.25-8.19-7.41-6.68-14-13t-10-10.09c-.28-.32-.8-1-1.56-1.94S529.38,549.45,528.83,548.68ZM148.21,561.39c.31,0,.61,0,.91,0a6.43,6.43,0,0,1,4.28,1.56,22.67,22.67,0,0,1,2.63,2.72,11.06,11.06,0,0,1,1.31,2.13,13.91,13.91,0,0,1-5.94.44,30.94,30.94,0,0,1-7.06-2.19l2.91-4.56c.33,0,.66-.08,1-.09Zm-21.47,21.31-7.56,2.66,3.19,8.47,7.41-2.69ZM138,586.93l-7.5,2.72,3.16,8.44,7.44-2.81Z" style="fill:#ce1126"/></svg>