<svg xmlns="http://www.w3.org/2000/svg" viewBox="0 0 560 604"><title>Andorra</title><path d="M313.2,77.7c-1.3-.7-2.5-1.4-3.7-2.1-3.1-1.7-6.4-1.3-8,.6-1.8,2.2-2.4,5.9.1,8.2" style="fill:none;stroke:#231f20;stroke-linecap:round;stroke-miterlimit:3.8636999130249023;stroke-width:1.8422000408172607px"/><path d="M91.6,358a24.18,24.18,0,0,1-1.9,3.6c-.8,1.5-1.2,2.3-2.1,3.8s-1.3,2.2-2.2,3.6c-1.2,1.8-2,2.8-3.3,4.6" style="fill:none;stroke:#c7b37f;stroke-linecap:round;stroke-miterlimit:3.8636999130249023;stroke-width:1.8422000408172607px"/><path d="M222.8.5c22.5,0,31.7,19.3,54.2,19.3,13.9,0,22-4.5,34.1-11.4,8.4-4.8,13.8-7.3,23.5-7.3,9.9,0,16,3,21.1,11.5,2.9,4.8,5.3,14.2,4,19.6a116.44,116.44,0,0,1-8,24.2c-1.9,4.6-3.8,7.3-3.8,12.3,0,11.9,16.2,16,27.3,16.2,2.4,0,22.7.4,35.1-12.2-6.8-.3-14.3-5.5-14.3-12.3,0-7.7,5.4-12.8,12.7-15,1.4-.4,3.7.8,5,.2,1.8-.9.9-2.9,2.5-4.2,3.6-2.9,6-4.7,10.6-4.7a10.72,10.72,0,0,1,7.3,2.2c1.3.9,1.8,2.1,3.3,2.1,3.3,0,5-2.1,8.3-2.1a12.79,12.79,0,0,1,6.7,1.6c2,1,1.9,4.4,4.2,4.4,1.1,0,7.1-2.4,10.2-2.4,6.4,0,9.9,2.3,14,7.2,1.1,1.3,1.8,4,3,4a18.22,18.22,0,0,1,10.9,4.8,19.07,19.07,0,0,1,3.1,3.8c.8,1.2,1.9,4.2,3.3,4.7,1.6.6,2.9.5,5,1.8,4.7,3,8.3,8.7,8.2,14.2a34.58,34.58,0,0,1-1.4,6.2c-5.5,19.2-18.6,25.3-31.7,41.8-5.6,7-10,12.6-10,21.6,0,2.2,2.7,6.2,3.9,8-.7-4.2,1.2-9.4,5.7-9.7,6.1-.3,10.9,4.3,11.7,10.4a12.48,12.48,0,0,1-1,5.3,27.82,27.82,0,0,1,11.6-4.1,34.55,34.55,0,0,1,5.6-.2c9.8.2,20.6,5.8,27.2,11.3,20.1,17,22.5,42,21.4,48.9-2.4,15.4-.9,43.2-40.2,54.4,7.3,3.1,12.2,8.5,12.2,15.3,0,7.3-5.6,13.6-12.9,13.6-4.2,0-7.1-1-10-4-8.2,8.2-9.8,16.5-9.8,28.1,0,6.9,1.3,11,4.2,17.3,3.1,6.6,5.3,10.5,10.8,15.3,2.9-4.4,6-7.7,11.3-7.7,5.1,0,9.5,1.6,11.6,6.3.6,1.4.1,2.6.8,4,.9,1.8,2.5,2.2,3.4,4,1.5,2.7,0,5.1,1.3,7.9.8,1.8,2.6,2.1,3.4,4a16.49,16.49,0,0,1,1.6,7.9c0,8.8-8,15-16.8,15-2.6,0-4.1-1.1-6.7-.8,5,5,8.8,7.2,12.7,13.2,5.5,8.7,6.9,14.8,8.2,25.1a41.93,41.93,0,0,1,.3,5c0,13.1-2,21-7.9,32.7-5.6,11.2-10.4,17.5-20.6,24.8-15.9,11.4-27.5,14.7-46.7,18.5a214.31,214.31,0,0,1-31.9,4.2c-16,1-25.2,1.1-41.2,2.1-21,1.4-35.5,4.4-50.4,19.3,7,5.1,11.9,10.2,11.9,18.9,0,8.9-5.5,15.3-14,18.1-2,.7-3.4.1-5.3,1.1-2.2,1.2-2.1,3.7-4.2,5-3.7,2.4-6.6,2.9-11.1,2.9-7.9,0-13.2-1.8-18.7-7.4-6.4,5.3-8.6,10.2-15.8,14.3-2.4,1.3-3.6,3.2-6.3,3.2-4.3,0-6.3-2.7-9.8-5.3a66.1,66.1,0,0,1-12.9-11.9c-6.6,3.9-10.6,7.1-18.2,7.1-4.7,0-7.7-.7-11.6-3.2-2.1-1.3-2.4-3.2-4.5-4.5s-4-.9-6.3-1.8c-8.8-3.8-14.5-10.3-14.5-19.9,0-8.4,5.3-13.8,12.9-17.3-14.6-14.6-29-17.1-49.6-18.5-15.9-1-25-1.1-40.9-2.1-12.6-.9-19.7-2.1-32.2-4.2-9.5-1.6-15.1-2-23.7-6.1C39,502.1,20,483,16.1,450.4a58.61,58.61,0,0,1-.3-7.3c0-17,6.7-27.4,18.7-39.4-3.1-.7-5.2.3-8.2-.8-7.5-2.7-12.9-7.9-12.9-16,0-3,.1-4.9,1.6-7.5,1-1.8,3-2.2,3.4-4.2.6-2.7-.2-4.6,1.1-7.1.8-1.7,2.4-2,3.2-3.7,2.6-5.4,5.9-9.8,11.9-9.8,5.1,0,8.4,2.7,11.1,7.1,5-2.3,6.4-6.1,9.2-10.8,4.7-7.9,6.9-13.4,6.9-22.6a44.41,44.41,0,0,0-2.6-16.2c-1.4-4.4-2-7.3-5.3-10.6a12.77,12.77,0,0,1-10,4c-8.4,0-14.8-7.2-14.8-15.6a14.16,14.16,0,0,1,8.7-13.5c-4.5-3.9-8.4-4.2-13.5-7.4C16.7,264.2,14,259.1,9,251.6c-3.3-4.9-4.1-8.3-5.8-14-2-6.8-3.2-10.9-3.2-17.9a26.34,26.34,0,0,1,.3-4.8c1.9-14.3,4.5-23.3,13.5-34.6,5.3-6.7,9-10.8,16.9-14.3,6.7-2.9,10.8-5,18.1-5a36.31,36.31,0,0,1,5.7.3c3.4.4,5.5.7,8.4,2.4,1.1.6,3.2,2.5,3.2,1.2,0-1.5-.8-2.3-.8-3.8,0-6.1,4.4-11.6,10.4-11.6,4.4,0,6.2,3.9,8.3,7.7a11.26,11.26,0,0,0,2.1-6.6c0-10-5.4-15.1-11.6-23-13.6-17-30.6-24.9-30.6-46.7,0-6.5,3.1-10.9,8.7-14.3,1.6-1,3.8,0,5.4-1,1.4-.9,1.2-2.6,2.1-4a19.68,19.68,0,0,1,4.4-4.7c3.1-2.7,5.8-1.9,9.3-4.3,1.7-1.2,2.1-2.7,3.4-4.3,3.8-4.6,7.3-6.8,13.3-6.8,3,0,4.7,0,7.5,1.1,1,.4,2.7,1.8,3,1.5a13.18,13.18,0,0,1,4.2-3.4c2.5-1.2,3.6-1.7,6.4-1.7,3.2,0,5.4,1.8,8.6,1.8,1.2,0,1.5-1.2,2.4-1.8,2.9-1.9,4.5-3,8-3s5.2,1.1,8.1,2.9c2.7,1.7,3.1,3.9,5.8,5.5,1.5.9,2.8.5,4.5,1.1,7.5,2.5,13.2,7.5,13.2,15.4,0,4.3-1,7.4-4.2,10.2-2.5,2.2-4.9,1.8-8.2,2.9,10.5,8.4,19.6,10.5,33,10.5,12.3,0,27.3-5,27.3-17.3,0-5.7-3.2-8.8-5.4-14-4-9.3-6.2-14.8-6.2-25,0-8,.9-12.9,5.6-19.5S214.6.5,222.8.5Z" style="fill:#c7b37f"/><path d="M57.8,192.2c4.5,2.3,9-1.1,8.1-6.9a8.25,8.25,0,0,0-7.3-6.4" style="fill:none;stroke:#231f20;stroke-linecap:round;stroke-miterlimit:3.8636999130249023;stroke-width:1.8422000408172607px"/><path d="M474.9,439a7.2,7.2,0,0,1-1.9-3.6c-.9-3.2-.1-6.6,2.8-9.8s11-6.2,17.5-2.6a21,21,0,0,1,7.6,6.1,52.71,52.71,0,0,1,3.1,4.6,34.23,34.23,0,0,1,3.2,7.3c7.2,20.4-4.5,42.1-19.1,51.4-12.8,8.1-25.8,10.4-41.9,11.9-7.5.7-11.7.8-19.2,1.2-6,.3-11.2.2-16.1.1-4,0-7.9,0-11.8-.1-6.4-.1-13-.3-21,.3-8.5.6-14.9.8-22.1,2-4.7.8-10.2,1.5-15.9,2.8-1.7.4-3.5.7-5.2,1.2-1.2.4-2.4.7-3.5,1.1-10.4,3.2-20.5,7-28.5,12.2a48.69,48.69,0,0,0-7.2,5.1c-1.2,1.2-2.7,2.3-4,3.5-5.6,5.5-11.3,11.4-12.6,19.5a35.41,35.41,0,0,0-.2,4.7c0,5.2,4.3,12.3,15.7,14.7" style="fill:none;stroke:#c7b37f;stroke-linecap:round;stroke-miterlimit:3.8636999130249023;stroke-width:1.8422000408172607px"/><path d="M339.3,558.5a8.26,8.26,0,0,1,2.2,2.8,16.26,16.26,0,0,1,1,2.5c.8,4.4-2.2,7.2-5.8,7.6a9.78,9.78,0,0,1-10.2-5.9" style="fill:none;stroke:#703d29;stroke-miterlimit:3.8636999130249023;stroke-width:1.8422000408172607px"/><path d="M76.3,438c1,.9,1.2,2.1,2.5,2.3,2,.4,3.5,1.1,5.4-1.5,2.4-3.2,1.1-8.2-1.4-11.4-2.7-3.4-10.5-6.4-17-2.7a21.4,21.4,0,0,0-7.4,6.1,54,54,0,0,0-3.3,4.6,34.23,34.23,0,0,0-3.2,7.3c-6,17,1.1,34.8,12.1,45.7" style="fill:none;stroke:#703d29;stroke-miterlimit:3.8636999130249023;stroke-width:1.8422000408172607px"/><path d="M339,558.2a15.16,15.16,0,0,1,1.9,2.3,9,9,0,0,1,.8,2.5c.8,4.4-2.2,7.2-5.8,7.6a9.14,9.14,0,0,1-9.8-5.9" style="fill:none;stroke:#703d29;stroke-linecap:round;stroke-miterlimit:3.8636999130249023;stroke-width:1.8422000408172607px"/><path d="M241.1,79.4c2.4-1.3,4.7-2.6,6.8-3.8,3.1-1.7,6.8-1.3,8.4.6a6,6,0,0,1-.4,8.2" style="fill:none;stroke:#703d29;stroke-linecap:round;stroke-miterlimit:3.8636999130249023;stroke-width:1.8422000408172607px"/><path d="M141.1,65.8a10.5,10.5,0,0,0,7.1,7.1,11.14,11.14,0,0,0,11.2-4.1c2.8-3.6,2.6-8.2,1.6-11.8a14.33,14.33,0,0,0-5-6.5l-14.8,15Z" style="fill:#231f20"/><path d="M141.1,65.8a10.5,10.5,0,0,0,7.1,7.1,11.14,11.14,0,0,0,11.2-4.1c2.8-3.6,2.6-8.2,1.6-11.8a14.33,14.33,0,0,0-5-6.5l-14.8,15Z" style="fill:none;stroke:#703d29;stroke-linejoin:round;stroke-width:1.94350004196167px"/><polygon points="153.8 49.1 155.9 50.5 158 52.8 159.5 55.7 160.2 58.2 160.4 61.4 160.2 63.6 159.5 66 158 67.8 156.3 69.7 153.8 71 150.6 71.7 147.9 72.1 145 70.8 142.4 68.9 140.8 66.6 139.6 63.7 139.6 62.6 153.8 49.1" style="fill:#c7b37f"/><path d="M206.2,95.7c16-3.3,29.1-10.5,39-16" style="fill:none;stroke:#703d29;stroke-miterlimit:3.8636999130249023;stroke-width:1.8422000408172607px"/><path d="M205.4,94.9c16-3.3,29.1-10.5,39-16" style="fill:none;stroke:#703d29;stroke-miterlimit:3.8636999130249023;stroke-width:1.8422000408172607px"/><path d="M300.9,583.4c-3.8,5.8-12.8,14.5-22.2,18-9.4-3.5-18.4-12.2-22.2-18" style="fill:none;stroke:#703d29;stroke-miterlimit:3.8636999130249023;stroke-width:1.8422000408172607px"/><path d="M437.5,41.9c7.9-4.3,13.9-3.5,18.4,2.7,4.9,6.8,5.6,15.8,4.5,21.1-1.6,7.8-3.9,11.1-10.1,16.8" style="fill:none;stroke:#703d29;stroke-linecap:round;stroke-miterlimit:3.8636999130249023;stroke-width:1.8422000408172607px"/><path d="M456.6,45.4c9-5.9,18.7-3.4,24.1,4.5,3.9,5.8,4.9,10.7,4.6,17.8-.5,12.3-8.2,22.1-16.7,26.9" style="fill:none;stroke:#703d29;stroke-linecap:round;stroke-miterlimit:3.8636999130249023;stroke-width:1.8422000408172607px"/><path d="M482.5,53.4c9.8,1.2,18.3,10.5,18.3,20.5,0,12.9-4.4,17.7-11.2,27-7.3,9.9-31.1,28-31.1,48.6C458.5,162,462,170,471,174c5.8,2.6,12.6-.2,15.7-3,7.5-6.8,4.5-18.8-3.3-20.2-9.6-1.7-11.4,13.3-2,12.3" style="fill:none;stroke:#703d29;stroke-miterlimit:3.8636999130249023;stroke-width:1.8422000408172607px"/><path d="M498.9,66.2c7.4.6,13.4,7.3,13.4,15.1,0,11.2-3.1,16-12,27.1-7.7,9.6-30.8,26.4-30.2,42.5.2,6.1,5.4,11.8,9.8,12.1" style="fill:none;stroke:#703d29;stroke-miterlimit:3.8636999130249023;stroke-width:1.8422000408172607px"/><path d="M499.8,192.1c-4.2,3-9.6-1.9-7.3-7.1,1.6-3.6,6.4-8.1,13.6-3.2,8,5.4,5.8,22.6-9.6,22.9-13.7.3-23-19.2-9.9-33.8,12-13.3,34.2-10.7,48.1.4,5.9,4.7,17.9,17.7,20.4,34.7,3.1,20.6,2.7,45.9-18.6,61.5-8.5,6.3-20.4,9.1-30.8,8.7-13.6-.6-21.5-10.2-20-21.5,1.4-11,12-15.6,19.7-11.3,8.1,4.5,6.7,15.8-2,16.8-5.1.6-9.3-4.8-5.8-8.4" style="fill:none;stroke:#703d29;stroke-linecap:round;stroke-miterlimit:3.8636999130249023;stroke-width:1.8422000408172607px"/><path d="M492.5,185c2.3-10.2,11-11.1,18-11,19.2.3,32.5,23.1,32.7,45.1.3,27.9-11.8,44.3-32.2,45.1-5.3.2-14.3-2.3-14.5-8.7" style="fill:none;stroke:#703d29;stroke-miterlimit:3.8636999130249023;stroke-width:1.8422000408172607px"/><path d="M504.4,180.5c20.3,4.5,27.4,22.8,27.4,40.2,0,14.2-1.4,33.6-29.1,40.5" style="fill:none;stroke:#703d29;stroke-linecap:square;stroke-miterlimit:3.863600015640259;stroke-width:1.8422000408172607px"/><path d="M516.3,290.7c-3.5-8.4-12.5-4.6-13,0-1.3,10.7,8.1,13.9,14.8,12.2a11.72,11.72,0,0,0,7.3-5.7,14.08,14.08,0,0,0,1.1-10.9,13,13,0,0,0-2.5-4.8,13.24,13.24,0,0,0-3.7-3.5c-2.6-1.6-5.4-1.8-9.8-1.8-16.3,0-30.5,19.2-35.3,39.2-1.6,6.6-3.7,21.2-.7,35.1,3.2,14.8,9.6,25.1,17.1,32.8,4.1,4.2,9.6,8,16.8,12a72.78,72.78,0,0,0,12.1,5,23.75,23.75,0,0,0,11.5.3c9.6-2.1,14.1-11,9.3-20.2-4-7.5-15.7-11.6-21.2-2a9.37,9.37,0,0,0-1.2,4.5c0,2.6,1.1,5.6,2.9,6.8,4.2,2.7,10.9,1.9,10.6-5.5" style="fill:none;stroke:#703d29;stroke-linecap:round;stroke-miterlimit:3.863600015640259;stroke-width:1.9350999593734741px"/><path d="M529,390.7c-3,1.2-4.7,1-8.5-.7-1.6-.7-3.3-1.8-5.4-2.9-7.4-4.2-16.3-10.9-24.5-26.4a56.34,56.34,0,0,1-5-13.1,52.91,52.91,0,0,1-1.5-9.7,74.43,74.43,0,0,1,1.8-18.1c2.3-11.1,5.1-17.1,11.9-26.4,3.4-4.6,6.2-7.4,12.5-7.5" style="fill:none;stroke:#703d29;stroke-miterlimit:3.8636999130249023;stroke-width:1.8422000408172607px"/><path d="M537.8,375.9a14.92,14.92,0,0,0,.2-2.1,11.4,11.4,0,1,0-18.5,8.9" style="fill:none;stroke:#703d29;stroke-miterlimit:3.8636999130249023;stroke-width:1.8422000408172607px"/><path d="M533.4,364.6a10.66,10.66,0,0,0-21.2,1.9,10.65,10.65,0,0,0,3,7.6" style="fill:none;stroke:#703d29;stroke-miterlimit:3.8636999130249023;stroke-width:1.8422000408172607px"/><path d="M512.6,364a45.24,45.24,0,0,1-18.1-36c-.1-12.1,4.8-24.4,10.4-29.2" style="fill:none;stroke:#703d29;stroke-miterlimit:3.8636999130249023;stroke-width:1.8422000408172607px"/><path d="M497.1,358.6c3.8,5.7,8.4,12,18.2,17.2" style="fill:none;stroke:#703d29;stroke-linecap:round;stroke-miterlimit:3.8636999130249023;stroke-width:1.8422000408172607px"/><path d="M466.1,401.1c3.3-3.8,10.7-9.6,19.3-10.6s16.2,1.5,23.9,5.6c15,8.1,23.4,16.8,29,32.9a49.83,49.83,0,0,1,2.4,16.8c-.3,10.5-2.9,21.9-5.8,27.4-2.5,4.8-9,26.1-44.7,40.8-20.8,8.6-52.8,10.6-74.9,11.4-30.3,1.2-58.3,2.3-74.6,22.4" style="fill:none;stroke:#703d29;stroke-miterlimit:3.863600015640259;stroke-width:2.3821001052856445px"/><path d="M511.7,406.6c-9.6-6.3-27.7-14.5-44.1-6.4-6.1,3-10.2,6.7-12.5,12.8-4.1,10.9.5,22.9,5.2,27.9,2.5,2.6,7.8,7.6,14.5,7.7,11,.1,13.7-7.6,13.9-9.3,1.3-8-3.3-11.2-5.8-12-1.9-.7-8.1-.5-9.4,3.9a8.31,8.31,0,0,0,.6,5.9" style="fill:none;stroke:#703d29;stroke-linecap:round;stroke-miterlimit:3.8636999130249023;stroke-width:1.8422000408172607px"/><path d="M473.7,435.4c-.9-3.2-.1-6.3,2.5-9.7,3.4-4.6,10.6-6.2,17.1-2.6a21.4,21.4,0,0,1,7.4,6.1,54,54,0,0,1,3.3,4.6,34.23,34.23,0,0,1,3.2,7.3c7.2,20.4-4.2,42.5-19.1,51.4-11.6,6.9-25.4,10-41.9,11.9-7.4.9-11.7.8-19.2,1.2-6,.3-11.2.2-16.1.1-4,0-7.9,0-11.8-.1-6.4-.1-13-.3-21,.3-8.5.6-14.9.8-22.1,2-4.7.8-10.2,1.5-15.9,2.8-1.7.4-3.5.7-5.2,1.2-1.2.4-2.4.7-3.5,1.1-10.4,3.2-20.5,7-28.5,12.2a48.69,48.69,0,0,0-7.2,5.1c-1.2,1.2-2.7,2.3-4,3.5-5.6,5.5-11.3,11.4-12.6,19.5a35.41,35.41,0,0,0-.2,4.7c0,5.2,4.3,12.3,15.7,14.7" style="fill:none;stroke:#703d29;stroke-miterlimit:3.863600015640259;stroke-width:2.0931999683380127px"/><path d="M339.7,559.9c3,6.2-.4,9.4-4.6,9.9-6.2.7-9.6-4.2-10-8.7a12.82,12.82,0,0,1,12.8-13.8c6.6.1,12,4.4,14.5,10.2a22.36,22.36,0,0,1,1.5,6.9,17.38,17.38,0,0,1-4.2,12.1,21.74,21.74,0,0,1-15.7,7.2c-12.3.5-21.9-11-21.9-22.8,0-22.5,33.4-34.8,46.6-37.9,16.3-3.9,26.1-5.3,52.2-6.8,10.4-.6,18.1-.3,29.6-1.5,10.3-1.1,15.7-1.6,26.3-4,13.2-3.1,25.5-8.6,36.6-18.6,8.5-7.7,13.4-13.2,17.3-23.8,3.4-9.1,5-27.2-3.6-40.6-7.6-11.8-18.1-18-30.2-19.7-10.9-1.6-20.4,3.1-26.1,13.9-2.8,5.2-1.9,14,.3,18,1.9,3.5,7.3,8.6,13.9,8.7,11,.1,13.7-7.6,13.9-9.3,1.3-8-3.3-11.2-5.8-12-1.9-.7-8.1-.5-9.4,3.9a8.31,8.31,0,0,0,.6,5.9" style="fill:none;stroke:#703d29;stroke-linecap:round;stroke-miterlimit:3.8636999130249023;stroke-width:1.8422000408172607px"/><path d="M330.2,524.2c-14.1,6.3-24.5,11-33.3,24.8-2.8,4.4-3.5,10.6-3.5,14.2,0,7.8,3.2,16.7,9.7,22.2,6.1,5.1,12,6.7,19.4,5.9,5.6-.6,10.9-4.6,11.8-7.5" style="fill:none;stroke:#703d29;stroke-linecap:round;stroke-miterlimit:3.8636999130249023;stroke-width:1.8422000408172607px"/><path d="M466.3,171.1a20.76,20.76,0,0,0-7.7,16.7c0,9,7.6,23.8,26.1,29,7.1,2,13.9,1.8,18.2-.8" style="fill:none;stroke:#703d29;stroke-miterlimit:3.8636999130249023;stroke-width:1.8422000408172607px"/><path d="M469.9,255.7c-6.6,2.2-11.3,12.3-11.3,21.9,0,11,5.4,17.9,11.6,21.8" style="fill:none;stroke:#703d29;stroke-miterlimit:3.8636999130249023;stroke-width:1.8422000408172607px"/><path d="M477.2,291.6c-11.9,14.8-18.2,23.6-18.6,41.2-.3,16.5,4.9,27.9,14.8,39.8" style="fill:none;stroke:#703d29;stroke-linecap:round;stroke-miterlimit:3.8636999130249023;stroke-width:1.8422000408172607px"/><path d="M413.7,45.5a13,13,0,0,1,1-1.5c4.9-7.3,13.6-9.2,20-4.4,7.7,5.8,9.6,15.7,7.5,26.1-1.3,6.5-5.7,12-11.8,15.9" style="fill:none;stroke:#703d29;stroke-miterlimit:3.8636999130249023;stroke-width:1.8422000408172607px"/><path d="M149.4,60.4c-.9-4.8-6.5-5.8-8.7-3-3.4,4.4-.9,11.7,5.9,13.8a11.14,11.14,0,0,0,11.2-4.1c2.8-3.6,2.6-8.2,1.6-11.8-.7-2.3-2.5-4.3-5-6.2-7.9-6-20.8-4.6-25,5.5-5.4,13.1,6.4,22.9,17.3,30.3,13.7,9.3,29.3,11,41.1,10.9,26.7-.3,47-13.1,60.2-20.3,3.1-1.7,6.2-1.3,7.8.6a5.82,5.82,0,0,1-.7,8" style="fill:none;stroke:#703d29;stroke-linecap:round;stroke-miterlimit:3.863600015640259;stroke-width:1.94350004196167px"/><path d="M119.9,41.9c-7.5-3.5-13.8-2.8-18.4,2.7C96.1,51,95.9,60.4,97,65.7c1.6,7.8,3.9,11.1,10.1,16.8" style="fill:none;stroke:#703d29;stroke-linecap:round;stroke-miterlimit:3.8636999130249023;stroke-width:1.8422000408172607px"/><path d="M100.9,45.4c-9-5.9-18.7-3.4-24.1,4.5-3.9,5.8-4.9,10.7-4.6,17.8.5,12.3,8.2,22.1,16.7,26.9" style="fill:none;stroke:#703d29;stroke-miterlimit:3.8636999130249023;stroke-width:1.8422000408172607px"/><path d="M74.9,53.4A19.84,19.84,0,0,0,57.4,72.9c0,12.9,3.2,18.1,10.4,28s31.1,28,31.1,48.6c0,12.5-3.5,20.5-12.5,24.5-5.8,2.6-12.6-.2-15.7-3-7.6-6.8-4.5-18.8,3.3-20.2,9.6-1.7,11.4,13.3,2,12.3" style="fill:none;stroke:#703d29;stroke-miterlimit:3.8636999130249023;stroke-width:1.8422000408172607px"/><path d="M58.5,66.2c-7.4.6-14.7,6.9-14.7,14.8,0,11.2,4.5,16.4,13.4,27.5,7.7,9.6,29.4,26.1,28.8,42.2-.2,6.1-4.3,13.5-8.4,12.7" style="fill:none;stroke:#703d29;stroke-miterlimit:3.8636999130249023;stroke-width:1.8422000408172607px"/><path d="M57.6,192.1c4.2,3,9.6-2.1,7.5-7.6-1.4-3.7-6.6-7.7-13.9-2.7-8,5.4-5.8,22.6,9.6,22.9,13.7.3,22.1-19.7,9.9-33.7-11.7-13.5-33.1-10.3-47,.7-5.9,4.7-17.1,17.1-20.6,33.9a61.69,61.69,0,0,0-1.7,14.8,68,68,0,0,0,1.4,12.2c2.1,9.8,5.5,16.9,9,21.9a33.5,33.5,0,0,0,3.8,4.8c2.4,2.4,3.1,3.7,5.5,5.7,7.9,6.6,18,11.7,30.5,11.2,13.6-.6,21.5-10.2,20-21.5-1.4-11-12.5-16.4-19.7-11.3-4.9,3.5-6.7,14.3,2,16.8,4.9,1.4,9.3-4.8,5.8-8.4" style="fill:none;stroke:#703d29;stroke-linecap:round;stroke-miterlimit:3.8636999130249023;stroke-width:1.8422000408172607px"/><path d="M41.1,290.7c3.5-8.4,12.5-4.6,13,0,1.3,10.7-8.1,13.9-14.8,12.2a11.72,11.72,0,0,1-7.3-5.7,14.08,14.08,0,0,1-1.1-10.9,13,13,0,0,1,2.5-4.8,13.24,13.24,0,0,1,3.7-3.5c2.6-1.6,5.4-1.8,9.8-1.8,16.3,0,30.5,19.2,35.3,39.2,1.6,6.6,3.7,21.2.7,35.1-3.2,14.8-9.6,25.1-17.1,32.8-4.1,4.2-9.6,8-16.8,12a72.78,72.78,0,0,1-12.1,5,20.6,20.6,0,0,1-11.5.3c-8.3-2.5-13.6-10.2-9.3-20.2,3.3-7.8,15.7-11.6,21.2-2a9.37,9.37,0,0,1,1.2,4.5c0,2.6-1.1,5.6-2.9,6.8-4.2,2.7-10.9,1.9-10.6-5.5" style="fill:none;stroke:#703d29;stroke-linecap:round;stroke-miterlimit:3.8636999130249023;stroke-width:1.8422000408172607px"/><path d="M28.4,390.7c3,1.2,4.7,1,8.5-.7,1.6-.7,3.3-1.8,5.4-2.9,7.4-4.2,16.3-10.9,24.5-26.4a56.34,56.34,0,0,0,5-13.1,52.91,52.91,0,0,0,1.5-9.7,74.43,74.43,0,0,0-1.8-18.1c-2.3-11.1-5.1-17.1-11.9-26.4-3.4-4.6-6.2-7.4-12.5-7.5" style="fill:none;stroke:#703d29;stroke-miterlimit:3.8636999130249023;stroke-width:1.8422000408172607px"/><path d="M19.6,375.9a14.92,14.92,0,0,1-.2-2.1,11.4,11.4,0,1,1,18.5,8.9" style="fill:none;stroke:#703d29;stroke-miterlimit:3.8636999130249023;stroke-width:1.8422000408172607px"/><path d="M24,364.6a10.66,10.66,0,0,1,21.2,1.9,10.65,10.65,0,0,1-3,7.6" style="fill:none;stroke:#703d29;stroke-miterlimit:3.8636999130249023;stroke-width:1.8422000408172607px"/><path d="M44.8,364a45.24,45.24,0,0,0,18.1-36c.1-12.1-4.8-24.4-10.4-29.2" style="fill:none;stroke:#703d29;stroke-miterlimit:3.8636999130249023;stroke-width:1.8422000408172607px"/><path d="M60.3,358.6c-3.8,5.7-8.4,12-18.2,17.2" style="fill:none;stroke:#703d29;stroke-linecap:round;stroke-miterlimit:3.8636999130249023;stroke-width:1.8422000408172607px"/><path d="M89.3,400.3c-2.7-6.4-8.1-9.3-16.8-10.2s-16.2,1.5-23.9,5.6c-15,8.1-23.4,16.8-29,32.9a49.83,49.83,0,0,0-2.4,16.8c.3,10.5,2.9,21.9,5.8,27.4,2.5,4.8,9,26.1,44.7,40.8,20.8,8.6,52.8,10.6,74.9,11.4,30.3,1.2,58.3,2.3,74.6,22.3" style="fill:none;stroke:#703d29;stroke-miterlimit:3.8636999130249023;stroke-width:1.8422000408172607px"/><path d="M45.7,406.6c9.6-6.3,27.7-14.5,44.1-6.4,6.1,3,10.2,6.7,12.5,12.8,4.1,10.9-.5,22.9-5.2,27.9-2.5,2.6-7.8,7.6-14.5,7.7-11,.1-13.7-7.6-13.9-9.3-1.3-8,3.3-11.2,5.8-12,1.9-.7,8.1-.5,9.4,3.9a8.31,8.31,0,0,1-.6,5.9" style="fill:none;stroke:#703d29;stroke-linecap:round;stroke-miterlimit:3.8636999130249023;stroke-width:1.8422000408172607px"/><path d="M83.7,435.4a9.74,9.74,0,0,0-2.5-9.7c-2.9-3.2-10.6-6.2-17.1-2.6a21.4,21.4,0,0,0-7.4,6.1,54,54,0,0,0-3.3,4.6,34.23,34.23,0,0,0-3.2,7.3c-7.2,20.4,4.5,42.1,19.1,51.4,12.8,8.1,25.8,10.4,41.9,11.9,7.5.7,11.7.8,19.2,1.2,6,.3,11.2.2,16.1.1,4,0,7.8,0,11.8-.1,6.4-.1,13-.3,21,.3,8.5.6,14.9.8,22.1,2,4.7.8,10.2,1.5,15.9,2.8,1.7.4,3.5.7,5.2,1.2,1.2.4,2.4.7,3.5,1.1,10.4,3.2,20.5,7,28.5,12.2,2.5,1.6,5.3,3.1,7.2,5.1,1.5,1.5,2.8,2.3,4,3.5,5.6,5.5,11.3,11.4,12.6,19.5a35.41,35.41,0,0,1,.2,4.7c0,5.2-4.3,12.3-15.7,14.7" style="fill:none;stroke:#703d29;stroke-miterlimit:3.8636999130249023;stroke-width:1.8422000408172607px"/><path d="M217.7,559.9c-3.1,6.2.4,9.4,4.6,9.9,6.2.7,9.6-4.2,10-8.7a12.82,12.82,0,0,0-12.8-13.8c-6.6.1-12,4.4-14.5,10.2a22.36,22.36,0,0,0-1.5,6.9,17.3,17.3,0,0,0,4.1,12.1,21.74,21.74,0,0,0,15.7,7.2c12.3.5,21.9-11,21.9-22.8,0-22.5-33.4-34.8-46.6-37.9-16.3-3.9-26.1-5.3-52.2-6.8-10.5-.6-18.1-.3-29.6-1.5-10.3-1.1-15.7-1.6-26.3-4-13.2-3.1-25.5-8.6-36.6-18.6-8.5-7.7-13.4-13.2-17.3-23.8-3.4-9.1-5-27.2,3.6-40.6,7.6-11.8,18.1-18,30.2-19.7,10.9-1.6,20.4,3.1,26.1,13.9,2.8,5.2,1.9,14-.3,18-1.9,3.5-7.3,8.6-13.9,8.7-11,.1-13.7-7.6-13.9-9.3-1.3-8,3.3-11.2,5.8-12,1.9-.7,8.1-.5,9.4,3.9a8.31,8.31,0,0,1-.6,5.9" style="fill:none;stroke:#703d29;stroke-miterlimit:3.8636999130249023;stroke-width:1.8422000408172607px"/><path d="M227.2,524.2c14.1,6.3,24.5,11,33.3,24.8,2.8,4.4,3.5,10.6,3.5,14.2,0,7.8-3.2,16.7-9.7,22.2-6.1,5.1-12,6.7-19.4,5.9-5.6-.6-10.9-4.6-11.8-7.5" style="fill:none;stroke:#703d29;stroke-miterlimit:3.8636999130249023;stroke-width:1.8422000408172607px"/><path d="M91.1,171.1a20.76,20.76,0,0,1,7.7,16.7c0,9-7.6,23.8-26.1,29a24,24,0,0,1-18.4-2.2" style="fill:none;stroke:#703d29;stroke-miterlimit:3.8636999130249023;stroke-width:1.8422000408172607px"/><path d="M94.2,201.7c3.3,2.3,4.6,4.9,4.6,9.5,0,3.1-2,7.1-5.4,10.9a36.16,36.16,0,0,1-25.6,11.7,29.67,29.67,0,0,1-17.6-5.1A26.61,26.61,0,0,1,39,213" style="fill:none;stroke:#703d29;stroke-miterlimit:3.8636999130249023;stroke-width:1.8422000408172607px"/><path d="M93.9,221.2c3.8,3.5,4.9,7.8,4.9,13.3,0,8-3.3,14.2-10.7,20.7a41.56,41.56,0,0,1-5.7,4.1" style="fill:none;stroke:#703d29;stroke-miterlimit:3.8636999130249023;stroke-width:1.8422000408172607px"/><path d="M87.5,255.7c8,6.2,11.3,12.3,11.3,21.9,0,11-5.4,17.9-11.6,21.8" style="fill:none;stroke:#703d29;stroke-miterlimit:3.8636999130249023;stroke-width:1.8422000408172607px"/><path d="M80.3,291.6c11.9,14.8,18.2,23.6,18.6,41.2.3,16.5-4.9,27.9-14.8,39.8" style="fill:none;stroke:#703d29;stroke-linecap:round;stroke-miterlimit:3.8636999130249023;stroke-width:1.8422000408172607px"/><path d="M143.7,45.5a13,13,0,0,0-1-1.5c-4.9-7.3-13.6-9.2-20-4.4-7.7,5.8-9.6,15.7-7.5,26.1,1.3,6.5,5.7,12,11.8,15.9" style="fill:none;stroke:#703d29;stroke-linecap:round;stroke-miterlimit:3.8636999130249023;stroke-width:1.8422000408172607px"/><path d="M416.3,67.5c-11.8,12.8-23.5,16.8-41.1,17.4-5.5.2-16-1.7-22.1-6.1-3.9-2.8-8.3-7.6-5.5-15.8,1.8-5.5,10.7-21,11.2-31.8.7-16.4-5.6-25.4-15.5-28.9-18.2-6.4-37.8,11.6-49.6,15.5a38.49,38.49,0,0,1-14.9,2.3,41.49,41.49,0,0,1-15.1-2.3c-11.8-3.9-31.4-22-49.6-15.5-9.9,3.5-16.2,12.5-15.5,28.9.4,10.7,9.3,26.3,11.2,31.8,2.8,8.3-1.6,13-5.5,15.8-6.1,4.3-16.6,6.3-22.1,6.1-17.6-.6-29.3-4.6-41.1-17.4" style="fill:none;stroke:#703d29;stroke-miterlimit:3.8636999130249023;stroke-width:1.8422000408172607px"/><path d="M310.6,76.3c2.4,4.3,3.7,7,2.3,11.5-1.6,5.1-5.2,8.1-10.3,8.1-11.6,0-18.4-13.7-13.2-22.5,9.3-15.5,27.1-6.8,43.7.9-.8-4-2.2-5.3-2-10.2.4-12.3,9.4-17.8,13.1-29.1,2.2-6.7,3-12.6-1.9-17.4-4.3-4.2-9.3-4.1-14.9-1.9-11.2,4.4-24.7,17.1-48.5,17.4-23.8-.4-37.4-13-48.6-17.4-5.6-2.2-10.6-2.3-14.9,1.9-4.9,4.8-4.1,10.6-1.9,17.4,3.6,11.3,12.7,16.9,13.1,29.1.1,4.9-1.2,6.2-2,10.2,16.5-7.7,35.1-17.2,43.7-.9,4.8,9.1-1.6,22.5-13.2,22.5-5.1,0-8.7-3.3-10.3-8.1-1.4-4.3,0-8.1,2.3-11.5" style="fill:none;stroke:#703d29;stroke-miterlimit:3.863600015640259;stroke-width:2.0931999683380127px"/><path d="M323.6,46.2c.2-5.4-4-7.7-6.2-7.7-6.3,0-8,3.9-15.8,8.1-9.8,5.3-14.1,6.4-22.8,6.5-8.7-.1-13.1-1.3-22.9-6.5-7.8-4.2-9.5-8.1-15.8-8.1-2.2,0-6.4,2.6-6.2,8" style="fill:none;stroke:#c7b37f;stroke-miterlimit:3.863600015640259;stroke-width:1.8422000408172607px"/><path d="M226.7,73.2a18.72,18.72,0,0,0,1.3-7.5c-.4-12.3-9.4-17.8-13.1-29.1-2.2-6.7-3-12.6,1.9-17.4,4.3-4.2,9.3-4.1,14.9-1.9,11.2,4.4,24.8,17.1,48.6,17.4-23.8-.4-37.4-13-48.6-17.4-5.6-2.2-11.1-2.8-15.4,1.3-4.9,4.8-3.6,11.2-1.4,18,3.6,11.3,12.3,16.9,12.6,29.1.1,3.6-.8,5.3-1.6,7.5" style="fill:none;stroke:#703d29;stroke-miterlimit:3.8636999130249023;stroke-width:1.8422000408172607px"/><path d="M280.3,33.9c23.4-1.2,43.4-16.9,49.9-18.2,5.8-1.1,9-.6,13.2,3.2-4.2-3.8-9-3.7-14.5-1.6-11.2,4.4-24.7,17.1-48.5,17.4" style="fill:none;stroke:#703d29;stroke-miterlimit:3.8636999130249023;stroke-width:1.8422000408172607px"/><path d="M308.4,95.9a11.78,11.78,0,0,0,4.7-6.5c1.4-4.3,1.4-8-.9-11.4,2.9,3.7,3.1,6.9,2.3,11.5-.5,2.9-2.4,4.4-4.7,6.5" style="fill:none;stroke:#703d29;stroke-miterlimit:3.8636999130249023;stroke-width:1.8422000408172607px"/><path d="M246.3,81.5a5.6,5.6,0,1,1,5.6,5.6A5.59,5.59,0,0,1,246.3,81.5Z" style="fill:#c7b37f"/><path d="M459.9,347.2v47.1h.1a66.37,66.37,0,0,1-.4,7.3c-.2,1.8-.5,3.5-.8,5" style="fill:none;stroke:#703d29;stroke-miterlimit:3.8636999130249023;stroke-width:1.8422000408172607px"/><path d="M459.1,342.7v50.8h.1a60.53,60.53,0,0,1-1.8,15" style="fill:none;stroke:#703d29;stroke-miterlimit:3.8636999130249023;stroke-width:1.8422000408172607px"/><line x1="459.1" y1="283.2" x2="459.1" y2="325.6" style="fill:none;stroke:#703d29;stroke-miterlimit:3.8636999130249023;stroke-width:1.8422000408172607px"/><line x1="459.9" y1="286.6" x2="459.9" y2="321" style="fill:none;stroke:#703d29;stroke-miterlimit:3.8636999130249023;stroke-width:1.8422000408172607px"/><line x1="459.9" y1="242.7" x2="459.9" y2="268.6" style="fill:none;stroke:#703d29;stroke-miterlimit:3.8636999130249023;stroke-width:1.8422000408172607px"/><line x1="459.1" y1="239.7" x2="459.1" y2="271.5" style="fill:none;stroke:#703d29;stroke-miterlimit:3.8636999130249023;stroke-width:1.8422000408172607px"/><line x1="459.9" y1="216.3" x2="459.9" y2="226.3" style="fill:none;stroke:#703d29;stroke-miterlimit:3.8636999130249023;stroke-width:1.8422000408172607px"/><line x1="459.1" y1="214.3" x2="459.1" y2="228.8" style="fill:none;stroke:#703d29;stroke-miterlimit:3.8636999130249023;stroke-width:1.8422000408172607px"/><line x1="459.9" y1="194.9" x2="459.9" y2="205.2" style="fill:none;stroke:#703d29;stroke-miterlimit:3.8636999130249023;stroke-width:1.8422000408172607px"/><line x1="459.1" y1="192.4" x2="459.1" y2="206.9" style="fill:none;stroke:#703d29;stroke-miterlimit:3.8636999130249023;stroke-width:1.8422000408172607px"/><line x1="459.9" y1="161" x2="459.9" y2="180" style="fill:none;stroke:#703d29;stroke-miterlimit:3.8636999130249023;stroke-width:1.8422000408172607px"/><line x1="459.1" y1="156.8" x2="459.1" y2="182.7" style="fill:none;stroke:#703d29;stroke-miterlimit:3.8636999130249023;stroke-width:1.8422000408172607px"/><path d="M453.6,421.8c-3.6,7.2-6.5,10.9-12.2,16.5s-9.8,8.3-17,11.9c-7,3.5-11.5,4.7-19.2,6.4a104.22,104.22,0,0,1-20,2.5,142.91,142.91,0,0,1-18.5-.5c-7.7-.5-12-1.6-19.7-2.3a148.73,148.73,0,0,0-16.3-1.1,85.83,85.83,0,0,0-16.8,1.2,66.45,66.45,0,0,0-15.1,4.2c-7.8,3.2-16.7,8.7-18.6,11.2-1.9-2.5-10.7-8-18.6-11.2a66.45,66.45,0,0,0-15.1-4.2,85.83,85.83,0,0,0-16.8-1.2,147.07,147.07,0,0,0-16.3,1.1c-7.7.7-12,1.8-19.7,2.3a142.91,142.91,0,0,1-18.5.5c-7.9-.4-12.4-.7-20-2.5s-12.1-2.9-19.2-6.4-11.2-6.2-17-11.9l-1.8-1.8" style="fill:none;stroke:#703d29;stroke-miterlimit:3.8636999130249023;stroke-width:1.8422000408172607px"/><path d="M453.7,418.9a18.65,18.65,0,0,1-1,2c-3.6,7.2-6.5,10.9-12.2,16.5s-9.8,8.3-17,11.9c-7,3.5-11.5,4.7-19.2,6.4a104.22,104.22,0,0,1-20,2.5,142.91,142.91,0,0,1-18.5-.5c-7.7-.5-12-1.6-19.7-2.3a148.73,148.73,0,0,0-16.3-1.1,85.83,85.83,0,0,0-16.8,1.2,66.45,66.45,0,0,0-15.1,4.2c-7.8,3.2-16.7,8.7-18.6,11.2-1.9-2.5-10.7-8-18.6-11.2a66.45,66.45,0,0,0-15.1-4.2,85.83,85.83,0,0,0-16.8-1.2,147.07,147.07,0,0,0-16.3,1.1c-7.7.7-12,1.8-19.7,2.3a142.91,142.91,0,0,1-18.5.5c-7.9-.4-12.4-.7-20-2.5s-12.1-2.9-19.2-6.4-11.2-6.2-17-11.9a71.26,71.26,0,0,1-7.2-8.1" style="fill:none;stroke:#703d29;stroke-miterlimit:3.8636999130249023;stroke-width:1.8422000408172607px"/><circle cx="77.1" cy="435.1" r="7.3" style="fill:#c7b37f"/><circle cx="77.1" cy="435.1" r="7.3" style="fill:none;stroke:#c7b37f;stroke-miterlimit:3.8636999130249023;stroke-width:0.957099974155426px"/><polyline points="70.2 422.1 64.2 424.3 58.1 428.9 55.5 432.6 52.2 438.4 50.7 442.7 49.6 448.1 49 452.2" style="fill:none;stroke:#703d29;stroke-miterlimit:3.8636999130249023;stroke-width:1.9735000133514404px"/><path d="M105.3,420.1c1.2,9.2-2.6,18.3-6.6,22.5-2.5,2.6-7.8,7.6-14.5,7.7-11,.1-14.3-7.4-15-9.3" style="fill:none;stroke:#703d29;stroke-miterlimit:3.8636999130249023;stroke-width:1.8422000408172607px"/><polyline points="104.4 422.7 104 427.9 103.1 431.5 100.5 437.8 96.5 443.2 92.1 446.6 88.9 448.2 84.4 449.3" style="fill:none;stroke:#703d29;stroke-miterlimit:3.8636999130249023;stroke-width:1.9735000133514404px"/><path d="M92.2,415.3a30.07,30.07,0,0,1,5.4,7.4c2.8,5.2,1.9,14-.3,18a8,8,0,0,1-.9,1.4" style="fill:none;stroke:#703d29;stroke-miterlimit:3.8636999130249023;stroke-width:1.8422000408172607px"/><path d="M37.4,494.6c6.6,6.9,16.5,14.4,31.7,20.6,20.8,8.6,52.8,10.6,74.9,11.4,29.3,1.2,56.4,2.4,72.8,20.5" style="fill:none;stroke:#703d29;stroke-miterlimit:3.8636999130249023;stroke-width:1.8422000408172607px"/><path d="M267.5,535.4c4.9,4.8,9.8,9.9,11.9,16.4" style="fill:none;stroke:#703d29;stroke-miterlimit:3.8636999130249023;stroke-width:1.8422000408172607px"/><path d="M279.3,561.9c-1.1,4.8-5.6,10.4-15.5,12.4,0,0-1.2.2-1.9.4" style="fill:none;stroke:#703d29;stroke-miterlimit:3.863600015640259;stroke-width:2.2335000038146973px"/><path d="M263.7,572.2a28.2,28.2,0,0,1-6.5,12" style="fill:none;stroke:#703d29;stroke-linecap:round;stroke-miterlimit:3.8636999130249023;stroke-width:1.8422000408172607px"/><path d="M213.9,519c2.3.9.6-.6,15.3,6,14.1,6.3,24.2,11.8,33,25.6,2.8,4.4,3.5,10.6,3.5,14.2a30.2,30.2,0,0,1-.9,7.2" style="fill:none;stroke:#703d29;stroke-linecap:round;stroke-miterlimit:3.8636999130249023;stroke-width:1.8422000408172607px"/><path d="M257.9,585.2a18,18,0,0,1-2,1.9c-6.1,5.1-12,6.7-19.4,5.9-5.6-.6-11-4.8-12.5-7.5" style="fill:none;stroke:#703d29;stroke-miterlimit:3.8636999130249023;stroke-width:1.8422000408172607px"/><line x1="264.7" y1="566.1" x2="263.4" y2="572.5" style="fill:none;stroke:#703d29;stroke-miterlimit:3.8636999130249023;stroke-width:1.8422000408172607px"/><polyline points="256.5 584.7 253.8 587.4 248.8 590.2 243.2 591.9" style="fill:none;stroke:#703d29;stroke-miterlimit:3.8636999130249023;stroke-width:1.8422000408172607px"/><path d="M301.7,584.2c-3.8,5.8-12.8,14.5-22.2,18-9.4-3.5-18.4-12.2-22.2-18" style="fill:none;stroke:#703d29;stroke-miterlimit:3.8636999130249023;stroke-width:1.8422000408172607px"/><path d="M302.5,585.1c-3.8,5.8-12.8,14.5-22.2,18-9.4-3.5-18.4-12.2-22.2-18-.3-.5-.6-.9-.9-1.4" style="fill:none;stroke:#231f20;stroke-miterlimit:3.8636999130249023;stroke-width:1.8422000408172607px"/><line x1="240.4" y1="592.2" x2="245.7" y2="591.5" style="fill:none;stroke:#703d29;stroke-miterlimit:3.8636999130249023;stroke-width:1.8422000408172607px"/><path d="M208.4,577.1c.3.4.6.7.9,1.1a22.3,22.3,0,0,0,14.9,7.2" style="fill:none;stroke:#703d29;stroke-miterlimit:3.8636999130249023;stroke-width:1.8422000408172607px"/><path d="M214.8,582.1a23.4,23.4,0,0,0,9.5,2.4c12.3.5,21.9-11,21.9-22.8,0-8.1-4.4-15-10.6-20.5" style="fill:none;stroke:#703d29;stroke-miterlimit:3.8636999130249023;stroke-width:1.8422000408172607px"/><path d="M217.5,559.9c-3,6.6,1.3,10.2,5.5,10.7,6.2.7,9.8-4.2,10.2-8.7a12.86,12.86,0,0,0-6.1-12.1" style="fill:none;stroke:#703d29;stroke-linecap:round;stroke-miterlimit:3.8636999130249023;stroke-width:1.8422000408172607px"/><circle cx="223.6" cy="562.5" r="6.7" style="fill:#c7b37f"/><path d="M302.5,585.1c-3.8,5.8-12.8,14.5-22.2,18-9.4-3.5-18.4-12.2-22.2-18-.3-.5-.6-.9-.9-1.4" style="fill:none;stroke:#703d29;stroke-miterlimit:3.8636999130249023;stroke-width:1.8422000408172607px"/><path d="M339.3,520.6c-3.9,1-6.2,1.3-10,2.5a99.29,99.29,0,0,0-9.7,4" style="fill:none;stroke:#c7b37f;stroke-linecap:round;stroke-miterlimit:3.8636999130249023;stroke-width:1.8422000408172607px"/><path d="M306.8,541.7c1.1-1.5,1.5-2.4,2.7-3.8a20.94,20.94,0,0,1,5.2-4.1c2.5-1.5,4.3-2.7,7.1-4.2,2.3-1.2,3.7-1.8,6-2.9s3.6-1.6,5.9-2.5c2.5-1,3.9-1.5,6.4-2.5" style="fill:none;stroke:#c7b37f;stroke-linecap:round;stroke-miterlimit:3.8636999130249023;stroke-width:1.8422000408172607px"/><path d="M244.6,538.1a25,25,0,0,0-2.5-3.8c-1.7-1.9-3.1-2.3-5.4-3.6a75.59,75.59,0,0,0-7.2-3.7c-2.3-1.2-3.7-1.8-6-2.9s-3.6-1.6-5.9-2.5c-2.5-1-3.9-1.5-6.4-2.4" style="fill:none;stroke:#c7b37f;stroke-linecap:round;stroke-miterlimit:3.8636999130249023;stroke-width:1.8422000408172607px"/><path d="M302.6,585c.7.7,1.4,1.4,2.2,2.1,6.1,5.1,12,6.7,19.4,5.9a16.27,16.27,0,0,0,11.9-7.5,6.85,6.85,0,0,0,1.3-2.1" style="fill:none;stroke:#703d29;stroke-miterlimit:3.8636999130249023;stroke-width:1.8422000408172607px"/><polyline points="335.5 583.8 333.4 587.3 330.1 590.1 325.1 592.1 320.6 592.3" style="fill:none;stroke:#703d29;stroke-miterlimit:3.8636999130249023;stroke-width:1.8422000408172607px"/><path d="M347.3,550.7a21.72,21.72,0,0,1,6.7,8.5,22.36,22.36,0,0,1,1.5,6.9,17.78,17.78,0,0,1-4.1,12.1,21.74,21.74,0,0,1-15.7,7.2h-1.4" style="fill:none;stroke:#703d29;stroke-miterlimit:3.8636999130249023;stroke-width:1.8422000408172607px"/><path d="M334.7,584.5a20.07,20.07,0,0,1-15.1-6.3" style="fill:none;stroke:#703d29;stroke-miterlimit:3.8636999130249023;stroke-width:1.8422000408172607px"/><polyline points="333.9 584.7 339.2 584.2 344.2 582.2 347.8 580 352.5 574.4 353.5 572.3 354.3 567.4 354.5 565.1" style="fill:none;stroke:#703d29;stroke-miterlimit:3.8636999130249023;stroke-width:1.8422000408172607px"/><path d="M327.2,562.8a6.9,6.9,0,1,1,6.9,6.9A6.91,6.91,0,0,1,327.2,562.8Z" style="fill:#c7b37f"/><path d="M525.6,407.6c6.2,5.8,10.6,12.9,14,22.6A49.83,49.83,0,0,1,542,447c-.3,10.5-2.9,21.9-5.8,27.4-2.5,4.8-9,26.1-44.7,40.8-20.8,8.6-52.8,10.6-74.9,11.4-29.9,1.2-57.5,2.3-73.9,21.5" style="fill:none;stroke:#703d29;stroke-miterlimit:3.863600015640259;stroke-width:2.5313000679016113px"/><polyline points="341.7 547.4 347 542.6 350.6 539.8 357.4 535.6 363.8 532.6 368.3 531.4 377.3 529.4 387.7 527.8" style="fill:none;stroke:#703d29;stroke-miterlimit:3.8636999130249023;stroke-width:1.8422000408172607px"/><path d="M476.8,427c2.2-3,10.3-6.9,16.8-3.2a17.9,17.9,0,0,1,6.9,6.1" style="fill:none;stroke:#703d29;stroke-miterlimit:3.863600015640259;stroke-width:1.7345000505447388px"/><path d="M117.8,459.6c1.5-1.6,2.7-1,2.9-1.8.2-.6-.2-.6-.9-.8s-1.7-.5-2.5-.8-1.6-.8-2.5-1.1c-.4-.1-1.2-.5-1.4.1-.4,1.1,3,1,1.8,4.1a11.9,11.9,0,0,1-2.4,3.5l-7.7,8.4c-.2.2-.5.6-.6.5s-.2-.6-.2-.8l.1-11.9a14.23,14.23,0,0,1,.6-4.9c.5-1.4,2.1-.2,2.4-1.1.2-.6.1-.6-.9-.9-.5-.2-1.4-.4-3.2-1.1-1-.4-1.9-.9-2.9-1.2-.4-.2-1.3-.8-1.5,0-.1.2.2.6.3.6a2.7,2.7,0,0,1,1.4,2.7l.2,21.7c0,1.6.2,2,.5,2.1s.5,0,1.2-.7Z" style="fill:#703d29"/><path d="M126.8,462.9c1-3.2,2.9-1.3,3.2-2.4.1-.4,0-.5-.9-.8-1.7-.5-2.8-.7-3.9-1.1s-2.2-.8-3.3-1.2c-.3-.1-1-.4-1.2.1-.4,1.2,3.3,1.3,2.4,4.3l-5,15.9c-1,3.2-2.9,1.6-3.2,2.8-.1.2-.1.4.2.5.8.2,2.1.5,3.4.9,2.3.7,3.4,1.2,4.5,1.6.7.2,1,.2,1.1-.2.3-1.1-3.5-.6-2.2-4.7Z" style="fill:#703d29"/><path d="M129.4,480.5c-1.3,4.2-3.4,2.4-3.7,3.5-.2.7.5.8.8.9,1.5.4,3,.8,4.7,1.2,1.3.4,2,.7,2.5.9.7.2,1,.1,1.1-.2.4-1.2-3-.7-2-4.3l1.7-5.8c.3-1.2.2-1.5,1.8-1s2,.9,2.2,2.6l1,6c.4,2.2.7,4.6,3.1,5.3,1.2.4,3.4.2,3.7-.8a.42.42,0,0,0-.3-.6c-.3-.1-.7,0-1-.1s-.8-.2-.9-.9c-.9-4.8-2-10.4-2-10.6s1.1-.4,2.2-.9a5.59,5.59,0,0,0,3-3.7c.5-1.5,1.3-6.4-5.3-8.4-2-.6-4.1-1.1-6.1-1.7s-2.1-.8-3.5-1.2c-.4-.1-.7,0-.8.3-.4,1.2,3.3.9,2.2,4.7Zm8.2-14.4c.6-2,1.5-1.7,2.6-1.4,3,.9,4,3.9,3,7.1-.6,2-1.3,3.8-5.9,2.4-.9-.3-2-.6-1.8-1.4Z" style="fill:#703d29"/><path d="M153.9,487.7c-1,4-4,1.6-4.3,2.9-.2.7.3.8.9,1,1.2.3,2.3.4,4.3.9s3,.9,4.2,1.2c.9.2,1.5.5,1.7-.4s-3.9-.9-2.9-5.1l3.7-15.3c.4-1.6.7-1.7,2-1.4l2.6.6c3.5.7,1.7,4.2,2.9,4.5.8.2.8-1.2.8-1.6l.4-3.2c.1-.3.2-.8-.3-.9-2.8-.7-4.9-1-9.4-2.1s-6.5-1.7-9.3-2.4c-.5-.1-.6.4-.7.7l-1.6,4.4c-.2.4-.5,1.1.1,1.3,1.4.3,1.5-4.3,5-3.5l2.6.6c1.2.3,1.5.5,1.1,2.2Z" style="fill:#703d29"/><path d="M190.9,478.2c1.2-1.9,2.4-1.5,2.6-2.3.1-.6-.3-.6-1-.7a26,26,0,0,0-2.6-.3,24.37,24.37,0,0,0-2.6-.6c-.4-.1-1.2-.3-1.4.3-.2,1.2,3.1.5,2.5,3.7a12.59,12.59,0,0,1-1.7,3.9l-6.2,9.6c-.1.2-.3.7-.5.6s-.3-.5-.3-.8l-2-11.8a14.85,14.85,0,0,1-.3-4.9c.3-1.4,2-.6,2.2-1.5.1-.6-.1-.6-1-.8-.5-.1-1.4-.1-3.4-.5-1-.2-2.1-.5-3.1-.7-.5-.1-1.4-.5-1.5.3,0,.2.3.5.4.6a2.61,2.61,0,0,1,1.8,2.5l4,21.4c.3,1.5.5,1.9.8,2s.5-.1,1-.9Z" style="fill:#703d29"/><path d="M192.7,497.9c0,.9-.1,1.1.7,1.5,1.7.7,3.2,1.8,5,2.1,4,.7,7.4-1.9,8.2-6.4s-1.1-6.2-4.1-8.3c-3.8-2.7-5.4-3.5-5-5.8s2-3.4,4-3c5.3.9,4.7,7.4,5.4,7.5s.8-.3.9-1l.4-4.7c.1-.8.3-1.3-.2-1.4s-1.3.4-1.7.3c-.9-.2-2-1.7-4.5-2.1-3.6-.6-6.6,1.9-7.2,5.8-.6,3.6,1,5.3,3.4,7,4.6,3.3,6.4,4,6,7a4.24,4.24,0,0,1-5,3.7c-3.4-.6-4.8-4-5.3-7.5,0-.5-.1-.8-.6-.9-.8-.1-.6.9-.6,1.4Z" style="fill:#703d29"/><path d="M238.8,484.9c1-2,2.3-1.7,2.3-2.5,0-.6-.4-.5-1.1-.6-.9-.1-1.8,0-2.6-.1s-1.8-.3-2.7-.4c-.4,0-1.3-.2-1.3.5-.1,1.2,3.2.2,2.9,3.4a9.64,9.64,0,0,1-1.3,4l-5.1,10.2c-.1.2-.3.7-.5.7s-.3-.5-.4-.8l-3.2-11.5a15.58,15.58,0,0,1-.8-4.9c.1-1.5,1.9-.8,2-1.7,0-.6-.1-.6-1.1-.6-.5,0-1.4,0-3.4-.1-1.1-.1-2.1-.3-3.1-.4-.5,0-1.4-.4-1.5.4,0,.2.4.5.5.5,1.3.4,1.7.9,2.1,2.3l6.2,20.8c.4,1.5.7,1.9,1,1.9s.5-.2.9-1Z" style="fill:#703d29"/><path d="M243.8,501.7c0,3.6-3,2.9-3,4.3,0,.6.6.4,1,.4.8,0,1.7-.1,2.7-.1s2.2.2,3.7.2c.4,0,1.2,0,1.2-.4,0-1.6-4,.7-4-6l.1-11.8c0-.3.1-.6.3-.6s.3.2.6.5l14.9,18.2a.89.89,0,0,0,.8.5c.4,0,.4-.3.4-1l.2-19.5c0-3.7,2.7-2.8,2.7-3.8,0-.1,0-.5-.6-.5-.3,0-1.4.1-3.4.1-2.2,0-3.1-.2-3.6-.2s-.5.3-.5.6c0,1.1,3.8.6,3.8,3.7l-.1,11.6c0,.9-.1,1.3-.3,1.3s-.6-.4-1-.9l-12.5-15.5c-.6-.7-.2-.9-1.2-.9-1.7,0-2.5.1-3.3.1-.6,0-1.2-.2-1.8-.2-.4,0-.5.3-.5.6,0,1.7,3.5-.6,3.5,6.1Z" style="fill:#703d29"/><path d="M274.1,486.1c0-3.3,2.4-2,2.4-3.2,0-.4-.2-.5-1.1-.5-1.8,0-2.9.1-4,.1s-2.3-.2-3.5-.2c-.3,0-1.1-.1-1.1.5,0,1.2,3.4.3,3.3,3.4v16.7c0,3.3-2.3,2.4-2.3,3.6,0,.2.1.4.3.4.8,0,2.2-.1,3.5-.1,2.4,0,3.6.2,4.8.2.7,0,1-.1,1-.5,0-1.1-3.5.5-3.5-3.8Z" style="fill:#703d29"/><path d="M287.3,502.2c0,4.1-3.5,2.5-3.5,3.9,0,.8.5.7,1.1.7,1.3,0,2.3-.2,4.4-.2s3.1.1,4.4.1c.9,0,1.5.1,1.5-.7,0-1-4,.1-4-4.2L291,486c0-1.7.3-1.8,1.6-1.9h2.7c3.6-.2,2.6,3.7,3.9,3.7.8,0,.5-1.4.4-1.8l-.4-3.2c0-.3,0-.8-.5-.8-2.9,0-5,.2-9.6.2s-6.7-.1-9.6-.1c-.5,0-.5.5-.5.8l-.5,4.6c-.1.5-.2,1.2.4,1.2,1.4,0,.4-4.6,4-4.6h2.6c1.3,0,1.6.2,1.6,1.8Z" style="fill:#703d29"/><path d="M310.9,497.1c.8-.1,1,.3,2.2,2.9a5.49,5.49,0,0,1,.7,2.3c.2,2.1-2.1,1.9-2,2.9,0,.5.4.4,1,.3.9-.1,2.1-.3,3.4-.4,2.1-.2,2.9-.1,4-.2.8-.1,1.1,0,1.1-.6-.1-1.1-1.7.3-2.9-2l-10.1-20.6c-.5-1-.6-1.1-.8-1.1-.4,0-.5.7-.7,1.3L300,503.6c-.6,2-2.2,1.9-2.2,2.7,0,.5.5.3,1,.3.9-.1,1.8-.3,2.7-.4s1.9,0,2.9-.1c.7-.1,1.6.1,1.6-.6-.1-.9-3.4-.1-3.6-2.6a12.61,12.61,0,0,1,.4-2.8c.5-2.3,1.2-2.5,1.7-2.6Zm-5.4-1.5c-.6,0-1,.1-1-.2a5.07,5.07,0,0,1,.2-1.3l1.9-6.3c.1-.4.2-.4.3-.4s.1,0,.3.3l3.1,6.1a2.84,2.84,0,0,1,.4,1.3c0,.3-.4.3-1,.4Z" style="fill:#703d29"/><path d="M335.1,482.7c-.3-2.4-.2-2.4,3.6-2.9,6-.8,4.1,3.6,5.6,3.4.7-.1.4-1.2.3-1.7l-.6-3.4a.67.67,0,0,0-.7-.6c-2.7.4-4.9.8-7.1,1.1-4.8.6-7,.8-8.3.9a.73.73,0,0,0-.6.7c.2,1.4,3.6-.2,4,2.9l2.1,16.2c.6,4.2-2.1,2.7-1.8,4.2,0,.2.2.4.6.3,1.7-.2,3-.5,4-.7,1.4-.2,2.5-.2,3.7-.3.8-.1,1.4,0,1.4-.7-.1-.9-3.5.4-4-3.4l-.7-5.1c-.3-2-.4-2.4,1-2.6l2.3-.3c3.2-.4,2.8,3.4,3.8,3.2.7-.1.4-1.3.3-1.8l-1-6.1c-.2-.9-.5-.8-.7-.8-.6.1-.3,3.3-3,3.6l-2,.3c-1.3.2-1.4-.1-1.6-1.6Z" style="fill:#703d29"/><path d="M350,487.9c-.9-5-.3-10,4.9-11,4-.8,8.5,2.5,9.9,10,1.1,5.7.2,10.6-5.1,11.7C354.2,499.7,350.9,492.9,350,487.9Zm-3.4,2.7c1.3,7,6.3,10.8,12.5,9.7,9.8-1.8,10.2-10.6,9.3-15.4-1.3-7.3-6.8-10.8-12.8-9.6C348.2,476.7,345.2,483.1,346.6,490.6Z" style="fill:#703d29"/><path d="M374.3,492.4c1,4.3-1.7,3.7-1.5,4.8.2.7.8.4,1.1.3,1.5-.4,3-.9,4.7-1.3,1.3-.3,2.1-.4,2.7-.5s.9-.4.8-.7c-.3-1.2-3,.9-3.8-2.7l-1.4-5.9c-.3-1.2-.5-1.4,1.1-1.8s2.1-.2,3.2,1.1l3.8,4.7c1.4,1.7,2.9,3.6,5.3,3.1,1.2-.3,3.1-1.5,2.8-2.6a.55.55,0,0,0-.6-.4c-.3.1-.6.3-.9.4a1,1,0,0,1-1.2-.3c-3.2-3.7-7-8-7-8.2s.7-.9,1.4-1.8a5.61,5.61,0,0,0,.8-4.7c-.4-1.6-2.1-6.2-8.8-4.6-2,.5-4.1,1.1-6.1,1.6s-2.2.4-3.6.7a.66.66,0,0,0-.6.7c.3,1.2,3.3-.8,4.2,3Zm0-16.6c-.5-2,.5-2.3,1.6-2.5,3.1-.7,5.4,1.4,6.2,4.7.5,2,.8,3.9-3.9,5.1-.9.2-2,.5-2.2-.4Z" style="fill:#703d29"/><path d="M399.5,486.8c1,4-2.8,3.3-2.5,4.6.2.7.7.6,1.2.4,1.2-.3,2.2-.7,4.2-1.2s3.1-.6,4.3-1c.9-.2,1.5-.3,1.3-1.1s-3.9,1-4.9-3.1l-3.9-15.2c-.4-1.6-.2-1.9,1.1-2.2l2.6-.7c3.5-1,3.4,3,4.7,2.6.8-.2.1-1.4-.1-1.8l-1.1-3c-.1-.3-.2-.8-.7-.7-2.8.7-4.8,1.4-9.3,2.5s-6.5,1.5-9.3,2.3c-.5.1-.3.6-.3.9l.7,4.6c.1.5.1,1.2.7,1.1,1.4-.4-.7-4.5,2.7-5.4l2.6-.7c1.2-.3,1.6-.2,2,1.4Z" style="fill:#703d29"/><path d="M415.5,465.4c-.9-3.2,1.7-2.6,1.4-3.7-.1-.4-.3-.4-1.2-.2-1.7.5-2.8.9-3.9,1.2s-2.3.5-3.5.8c-.3.1-1.1.2-.9.8.3,1.2,3.5-.7,4.3,2.3l4.5,16.1c.9,3.2-1.5,2.9-1.2,4.1,0,.2.2.4.4.3.8-.2,2-.7,3.3-1.1,2.4-.7,3.5-.8,4.6-1.1.7-.2.9-.4.8-.8-.3-1.1-3.3,1.4-4.4-2.7Z" style="fill:#703d29"/><path d="M425.2,470.1c-1.6-4.8-1.6-9.8,3.3-11.6,3.8-1.3,8.7,1.3,11.2,8.6,1.8,5.5,1.7,10.5-3.4,12.3C431,481.2,426.8,474.9,425.2,470.1Zm-3,3.1c2.2,6.7,7.8,9.8,13.7,7.8,9.5-3.2,8.6-11.9,7-16.5-2.3-7-8.2-9.8-14-7.8C421.9,459.2,419.8,465.9,422.2,473.2Z" style="fill:#703d29"/><path d="M449.8,470.7c1.6,4.1-1.2,3.9-.8,5,.3.6.8.3,1.1.2,1.5-.6,2.9-1.3,4.4-1.9,1.2-.5,2.1-.7,2.6-.9.7-.3.8-.6.7-.8-.5-1.2-2.8,1.3-4.2-2.2l-2.2-5.6c-.4-1.1-.7-1.3.8-1.9s2.1-.5,3.3.7l4.5,4.2c1.6,1.5,3.4,3.2,5.7,2.3,1.2-.5,2.8-1.9,2.4-2.9a.45.45,0,0,0-.6-.3c-.3.1-.5.4-.8.5a1.24,1.24,0,0,1-1.3-.1c-3.7-3.3-8-7-8.1-7.2s.6-.9,1.2-2a5.7,5.7,0,0,0,.1-4.7c-.6-1.5-3-5.8-9.4-3.3-2,.8-3.9,1.7-5.8,2.4s-2.1.7-3.5,1.2c-.4.1-.6.4-.5.7.5,1.2,3.2-1.3,4.6,2.3Zm-2.3-16.4c-.8-1.9.1-2.3,1.2-2.7,2.9-1.2,5.5.6,6.8,3.8.8,1.9,1.3,3.8-3.1,5.5-.9.3-2,.8-2.3,0Z" style="fill:#703d29"/><path d="M505.3,380.3a70.94,70.94,0,0,1-14-18.8,56.34,56.34,0,0,1-5-13.1,52.91,52.91,0,0,1-1.5-9.7,74.43,74.43,0,0,1,1.8-18.1c2.3-11.1,6.4-19.6,11.9-26.4,1.9-2.3,4-5.2,6.1-6.5" style="fill:none;stroke:#703d29;stroke-miterlimit:3.8636999130249023;stroke-width:1.8422000408172607px"/><path d="M512.5,363.9a28,28,0,0,1-3.8-3.2,46.15,46.15,0,0,1-12.6-31.1c-.1-12.1,4.8-24.4,10.4-29.2" style="fill:none;stroke:#703d29;stroke-miterlimit:3.8636999130249023;stroke-width:1.8422000408172607px"/><polyline points="495.3 326.6 495.7 321.9 497.2 314.5 499.4 308.7 501.9 304 505.1 300.1" style="fill:none;stroke:#703d29;stroke-miterlimit:3.8636999130249023;stroke-width:1.6446000337600708px"/><path d="M518,400.5a29.49,29.49,0,0,0,4.2,1.4,20.6,20.6,0,0,0,11.5.3c8.3-2.5,13.6-10.2,9.3-20.2a15.92,15.92,0,0,0-5.1-6.2" style="fill:none;stroke:#703d29;stroke-miterlimit:3.863600015640259;stroke-width:2.5313000679016113px"/><path d="M539.4,377.5a14.92,14.92,0,0,0,.2-2.1,11.34,11.34,0,0,0-3.8-8.6,17.93,17.93,0,0,0-2.5-2.3" style="fill:none;stroke:#703d29;stroke-miterlimit:3.8636999130249023;stroke-width:1.8422000408172607px"/><path d="M534.7,365.9c-.1-5.4-4.6-9.3-10.1-10.3" style="fill:none;stroke:#703d29;stroke-miterlimit:3.8636999130249023;stroke-width:1.8422000408172607px"/><path d="M506.9,300.8c2.9,3.8,8.5,4.8,12.8,3.7a11.72,11.72,0,0,0,7.3-5.7,14.08,14.08,0,0,0,1.1-10.9,13,13,0,0,0-2.5-4.8,20.32,20.32,0,0,0-4-4.2,8.65,8.65,0,0,0-1-.7" style="fill:none;stroke:#703d29;stroke-miterlimit:3.8636999130249023;stroke-width:1.8422000408172607px"/><polyline points="527.8 290.2 527.4 294.8 526.1 297.9 524.1 300.9 521.8 302.6 518.2 303.9 515.1 304.1 512.8 303.8" style="fill:none;stroke:#703d29;stroke-miterlimit:3.8636999130249023;stroke-width:1.6446000337600708px"/><path d="M514.9,285.8a8.45,8.45,0,0,1,1.5,1.8,4.79,4.79,0,0,1,.7,2,4.5,4.5,0,0,1,0,2,8.87,8.87,0,0,1-.8,1.7" style="fill:none;stroke:#c7b37f;stroke-miterlimit:3.8636999130249023;stroke-width:1.6446000337600708px"/><path d="M521.3,390c.2.3,1.1.4,1.4.6,4.1,2.5,12.3-.6,9.9-7" style="fill:none;stroke:#703d29;stroke-linecap:round;stroke-miterlimit:3.8636999130249023;stroke-width:1.8422000408172607px"/><path d="M520.6,384.8a5.86,5.86,0,0,1,6.1-5.7,6,6,0,0,1,6.1,5.7,6.11,6.11,0,0,1-12.2,0Z" style="fill:#c7b37f"/><path d="M497.4,255a4.5,4.5,0,1,1,4.5,4.6A4.57,4.57,0,0,1,497.4,255Z" style="fill:#c7b37f"/><path d="M494.2,189.9c0-1.4,1.5-2.6,3.3-2.6s3.3,1.2,3.3,2.6-1.5,2.6-3.3,2.6S494.2,191.3,494.2,189.9Z" style="fill:#c7b37f"/><path d="M500.6,66.5c7.4.6,14.3,8.5,14.2,16.4-.1,11.3-3.9,16-12.9,27.1-7.7,9.6-30.8,26.4-30.2,42.5.1,2.9,1.6,5.8,3.4,8.2" style="fill:none;stroke:#703d29;stroke-miterlimit:3.8636999130249023;stroke-width:1.8422000408172607px"/><path d="M476.3,157.8c0-3,2.1-5.5,4.6-5.5s4.6,2.5,4.6,5.5-2.1,5.5-4.6,5.5S476.3,160.8,476.3,157.8Z" style="fill:#c7b37f"/><path d="M476.3,157.8c0-3,2.1-5.5,4.6-5.5s4.6,2.5,4.6,5.5-2.1,5.5-4.6,5.5S476.3,160.8,476.3,157.8Z" style="fill:none;stroke:#c7b37f;stroke-miterlimit:3.863600015640259;stroke-width:0.957099974155426px"/><polyline points="471 149.7 472 144.8 474.2 140.2 477 135.6 481.9 129.4 485.8 125.1 492 118.8 497.4 113.4 500.8 109.4 505.3 104 509.3 98 511.7 93 513 86.7 513.4 78.7 512.6 76.4" style="fill:none;stroke:#703d29;stroke-miterlimit:3.8636999130249023;stroke-width:1.6446000337600708px"/><path d="M491.4,166.4c2.3-7.7-.5-15.8-8-15.6" style="fill:none;stroke:#703d29;stroke-miterlimit:3.8636999130249023;stroke-width:1.8422000408172607px"/><path d="M465.9,170.8a18.54,18.54,0,0,0,6,4c4.2,1.9,9,.9,12.4-.8" style="fill:none;stroke:#703d29;stroke-miterlimit:3.8636999130249023;stroke-width:1.8422000408172607px"/><path d="M484.5,53.5c9.4,0,17.5,10.4,17.5,21.1,0,12.3-6.6,19.9-11.4,25.6-3.9,4.6-8.1,8.7-13,13.7" style="fill:none;stroke:#703d29;stroke-miterlimit:3.8636999130249023;stroke-width:1.8422000408172607px"/><path d="M473.4,43.6a20.41,20.41,0,0,1,8.1,7.1c3.9,5.8,4.9,10.7,4.6,17.9-.5,12.3-9.3,20.9-17.3,26.1" style="fill:none;stroke:#703d29;stroke-linecap:round;stroke-miterlimit:3.8636999130249023;stroke-width:1.8422000408172607px"/><path d="M465.4,95.1a43.31,43.31,0,0,0,3.7-2.7c1.2-1.1,2-1.6,3.2-2.8a29.79,29.79,0,0,0,2.9-3.3c1.1-1.4,1.5-2.3,2.5-3.7" style="fill:none;stroke:#c7b37f;stroke-linecap:round;stroke-miterlimit:3.8636999130249023;stroke-width:1.8422000408172607px"/><path d="M454.9,43.6c.6.6,1.3,1.2,1.9,1.9,5.4,6.4,5.8,15.8,4.5,21.1-1.9,7.9-4.5,11.3-10.9,16" style="fill:none;stroke:#703d29;stroke-linecap:round;stroke-miterlimit:3.8636999130249023;stroke-width:1.8422000408172607px"/><path d="M446.7,83.7a46.43,46.43,0,0,0,3.8-3.9,24.71,24.71,0,0,0,3-4.2c.9-1.4,1.2-2.3,2-3.8" style="fill:none;stroke:#c7b37f;stroke-linecap:round;stroke-miterlimit:3.8636999130249023;stroke-width:1.8422000408172607px"/><path d="M435.6,40.4c7.7,5.8,10,15.8,7.4,26.2-1.8,7.4-6.5,11.8-12.3,15.3" style="fill:none;stroke:#703d29;stroke-linecap:round;stroke-miterlimit:3.8636999130249023;stroke-width:1.8422000408172607px"/><path d="M428.5,82.2c1.5-1.1,2.3-1.6,3.7-2.7a17.94,17.94,0,0,0,2.5-2.3c.8-.9,1.2-1.4,1.9-2.3a20.67,20.67,0,0,0,1.5-2.5,25.18,25.18,0,0,0,1.4-3.3,19.53,19.53,0,0,0,.8-2.7" style="fill:none;stroke:#c7b37f;stroke-linecap:round;stroke-miterlimit:3.8636999130249023;stroke-width:1.8422000408172607px"/><path d="M422.6,48a17.9,17.9,0,0,1,6.4,7.6c5.4,13.1-6.4,22.9-17.3,30.3a63.26,63.26,0,0,1-24.2,9.6" style="fill:none;stroke:#703d29;stroke-miterlimit:3.8636999130249023;stroke-width:1.8422000408172607px"/><path d="M410.1,73.2c-2.6,0-5.8-.8-9.2-4.4a9.76,9.76,0,0,1-2.1-2.9" style="fill:none;stroke:#703d29;stroke-miterlimit:3.8636999130249023;stroke-width:1.8422000408172607px"/><path d="M355.5,80.2a13.87,13.87,0,0,1-3.9-2.8c-2.6-2.9-4.3-6.8-2.3-12.8,1.8-5.5,10.7-21,11.2-31.8.7-16.4-5.6-26.1-15.5-29.9" style="fill:none;stroke:#703d29;stroke-miterlimit:3.8636999130249023;stroke-width:1.8422000408172607px"/><polyline points="359.7 29.2 359.3 35.4 357.6 41.7 354.4 50.3 352 55.8 349.4 61.3 348.1 65.2 347.6 68 348 70.7" style="fill:none;stroke:#703d29;stroke-linecap:round;stroke-miterlimit:3.8636999130249023;stroke-width:1.8422000408172607px"/><path d="M463.2,201.7c.9,2.7,2.4,3.6,4.4,5.6a39.8,39.8,0,0,0,18,10.3A22.42,22.42,0,0,0,504,215" style="fill:none;stroke:#703d29;stroke-linecap:round;stroke-miterlimit:3.8636999130249023;stroke-width:1.8422000408172607px"/><path d="M483.8,208.2c1.4.8,2,1.6,3.6,2.2a20.21,20.21,0,0,0,3.4.6c1.2.1,1.8.2,3,.2a20.55,20.55,0,0,0,3.5-.2,14,14,0,0,0,2.8-.6,18.28,18.28,0,0,0,2.5-.8,19.65,19.65,0,0,0,2.5-1.3c1.1-.6,1.8-.9,2.9-1.5" style="fill:none;stroke:#c7b37f;stroke-miterlimit:3.863600015640259;stroke-width:1.4948999881744385px"/><path d="M503.4,228.9c1.4-.8,2.3-1.1,3.6-2a21.58,21.58,0,0,0,3.3-2.7,20,20,0,0,0,2.4-2.6,25.38,25.38,0,0,0,2.3-3.4,39,39,0,0,0,1.9-3.5c.9-1.9,1.2-3.1,2-5.1" style="fill:none;stroke:#c7b37f;stroke-miterlimit:3.863600015640259;stroke-width:2.3926000595092773px"/><path d="M469.4,258.6l1.2.7a15.11,15.11,0,0,0,1.8.9,24.73,24.73,0,0,0,3.6,1.1" style="fill:none;stroke:#c7b37f;stroke-miterlimit:3.863600015640259;stroke-width:1.4948999881744385px"/><path d="M470.2,297.3c1.4-1.6,2.2-2.6,3.7-4.2,1.7-1.8,2.8-2.6,4.5-4.3" style="fill:none;stroke:#c7b37f;stroke-linecap:round;stroke-miterlimit:3.8636999130249023;stroke-width:1.8422000408172607px"/><line x1="472" y1="301.3" x2="481.6" y2="288.2" style="fill:none;stroke:#c7b37f;stroke-linecap:round;stroke-miterlimit:3.8636999130249023;stroke-width:1.8422000408172607px"/><path d="M466,365.6a39.75,39.75,0,0,0,2.4,3.3,18.53,18.53,0,0,0,2.8,2.8,54.73,54.73,0,0,0,5.4,4.1" style="fill:none;stroke:#c7b37f;stroke-linecap:round;stroke-miterlimit:3.8636999130249023;stroke-width:1.8422000408172607px"/><path d="M473.4,438.4c-1-4,.9-7.8,4.3-8.7s6.9,1.7,7.8,5.6-.9,7.8-4.3,8.7S474.4,442.3,473.4,438.4Z" style="fill:#c7b37f"/><path d="M473.4,438.4c-1-4,.9-7.8,4.3-8.7s6.9,1.7,7.8,5.6-.9,7.8-4.3,8.7S474.4,442.3,473.4,438.4Z" style="fill:none;stroke:#c7b37f;stroke-miterlimit:3.863600015640259;stroke-width:1.1960999965667725px"/><path d="M495.8,357.8c.4,1.2,1.4,2.9,1.9,4.1s1.2,1.8,1.7,2.8a14.31,14.31,0,0,0,1.9,2.4,19.56,19.56,0,0,0,2.8,3" style="fill:none;stroke:#c7b37f;stroke-linecap:round;stroke-miterlimit:3.8636999130249023;stroke-width:1.8422000408172607px"/><path d="M496.4,397.4c1.6.6,2.6.9,4.1,1.6,1.2.5,1.8.9,3,1.5s1.7.9,2.8,1.6,1.9,1.2,3.1,2c1.5,1.1,2.2,1.8,3.6,2.9" style="fill:none;stroke:#c7b37f;stroke-linecap:round;stroke-miterlimit:3.8636999130249023;stroke-width:1.8422000408172607px"/><path d="M458.8,439a9.11,9.11,0,0,0,1.7,2.4c1.9,3.2,9.2,8.7,15.9,8.8,11,.1,13.7-7.6,13.9-9.3,1.4-8.4-1.5-10.7-5.8-13.1a9.86,9.86,0,0,0-5.6-.8" style="fill:none;stroke:#703d29;stroke-linecap:round;stroke-miterlimit:3.8636999130249023;stroke-width:1.8422000408172607px"/><polyline points="476.8 450.3 481.5 449.3 485.1 447.5 487.1 445.5 488.4 443.2 489.4 439.6 489.4 437.1" style="fill:none;stroke:#703d29;stroke-miterlimit:3.8636999130249023;stroke-width:1.6446000337600708px"/><path d="M37.8,402.2a20.84,20.84,0,0,1-10.8.1c-8.3-2.5-14.9-10.4-11.5-20.2" style="fill:none;stroke:#703d29;stroke-miterlimit:3.8636999130249023;stroke-width:1.8422000408172607px"/><polyline points="27.9 401.6 31.4 401.9 35.9 401.6 40.4 400" style="fill:none;stroke:#703d29;stroke-miterlimit:3.8636999130249023;stroke-width:1.6446000337600708px"/><path d="M28.5,372.7c3.6-.1,7.2,2.4,9.6,6.5a9.37,9.37,0,0,1,1.2,4.5c0,2.6-1.1,5.3-3,6.4-4.2,2.7-11.6,1.5-11.3-5.9" style="fill:none;stroke:#703d29;stroke-linecap:round;stroke-miterlimit:3.8636999130249023;stroke-width:1.8422000408172607px"/><path d="M25.1,383.6c0-3.6,2.3-6.5,5.2-6.5s5.2,2.9,5.2,6.5-2.3,6.5-5.2,6.5S25.1,387.2,25.1,383.6Z" style="fill:#c7b37f"/><path d="M25.1,383.6c0-3.6,2.3-6.5,5.2-6.5s5.2,2.9,5.2,6.5-2.3,6.5-5.2,6.5S25.1,387.2,25.1,383.6Z" style="fill:none;stroke:#c7b37f;stroke-miterlimit:3.8636999130249023;stroke-width:0.957099974155426px"/><path d="M51,276.6c14.4,2.7,28.2,20,32.7,38.9,1.6,6.6,3.7,21.2.7,35.1-3.2,14.8-9.6,25.1-17.1,32.8a47.63,47.63,0,0,1-6.2,5.3L58,390.8" style="fill:none;stroke:#703d29;stroke-miterlimit:3.8636999130249023;stroke-width:1.8422000408172607px"/><path d="M54.5,289.2a5.22,5.22,0,0,1,1.2,3.1c1.3,10.7-8,13.9-14.7,12.1-3.3-.9-7.3-3.9-8.8-6.6a14,14,0,0,1-1.8-6.7" style="fill:none;stroke:#703d29;stroke-miterlimit:3.8636999130249023;stroke-width:1.8422000408172607px"/><polyline points="55 293.4 54.4 297.4 53.4 299.3 52.1 301 50.2 302.5 48.1 303.4 45.3 303.8 43.4 304" style="fill:none;stroke:#703d29;stroke-miterlimit:3.8636999130249023;stroke-width:1.6446000337600708px"/><path d="M44.6,284.3a7.39,7.39,0,0,0-2.5,1.7,6.18,6.18,0,0,0-1.5,2.4,15.43,15.43,0,0,0-.7,3.5" style="fill:none;stroke:#c7b37f;stroke-linecap:round;stroke-miterlimit:3.8636999130249023;stroke-width:1.8422000408172607px"/><path d="M35,355.5c5.9,0,11.1,5.7,11.1,11.7a10.65,10.65,0,0,1-3,7.6" style="fill:none;stroke:#703d29;stroke-miterlimit:3.8636999130249023;stroke-width:1.8422000408172607px"/><path d="M31,362.4c6.2,0,12,5.9,12,12.2a11.44,11.44,0,0,1-4.3,8.9" style="fill:none;stroke:#703d29;stroke-miterlimit:3.8636999130249023;stroke-width:1.8422000408172607px"/><path d="M53.7,369.9l2.6-3.1a26.93,26.93,0,0,0,2-2.7c.6-1,.9-1.6,1.5-2.7.8-1.5,1.2-2.3,2-3.8" style="fill:none;stroke:#c7b37f;stroke-linecap:round;stroke-miterlimit:3.8636999130249023;stroke-width:1.8422000408172607px"/><path d="M58.1,398.2c-1.7.8-2.8,1.1-4.4,2a33.72,33.72,0,0,0-3.2,1.9c-1.4.9-2.3,1.4-3.6,2.4s-2.2,1.7-3.6,2.8" style="fill:none;stroke:#c7b37f;stroke-linecap:round;stroke-miterlimit:3.8636999130249023;stroke-width:1.8422000408172607px"/><path d="M86.9,296.9c-.9-1-1.4-1.5-2.4-2.5a30.7,30.7,0,0,0-2.6-2.5,29.2,29.2,0,0,0-2.8-2.1" style="fill:none;stroke:#c7b37f;stroke-linecap:round;stroke-miterlimit:3.8636999130249023;stroke-width:1.8422000408172607px"/><path d="M87.4,300.5c5.7,7.6,9.4,14.1,11.1,22.5" style="fill:none;stroke:#703d29;stroke-linecap:round;stroke-miterlimit:3.8636999130249023;stroke-width:1.8422000408172607px"/><path d="M98.4,347.8a51.68,51.68,0,0,1-4.2,11.8,50.76,50.76,0,0,1-10.4,13.5" style="fill:none;stroke:#703d29;stroke-linecap:round;stroke-miterlimit:3.8636999130249023;stroke-width:1.8422000408172607px"/><path d="M98.5,286.6A23.84,23.84,0,0,1,88,300.2" style="fill:none;stroke:#703d29;stroke-miterlimit:3.8636999130249023;stroke-width:1.8422000408172607px"/><path d="M88.3,256.3c5.4,4.3,8.7,8.7,10.3,13.9" style="fill:none;stroke:#703d29;stroke-miterlimit:3.8636999130249023;stroke-width:1.8422000408172607px"/><path d="M94.7,222a13.62,13.62,0,0,1,3.6,5.1" style="fill:none;stroke:#703d29;stroke-miterlimit:3.8636999130249023;stroke-width:1.8422000408172607px"/><path d="M88.3,255.5a20.82,20.82,0,0,1-6.1,3.8" style="fill:none;stroke:#703d29;stroke-linecap:round;stroke-miterlimit:3.8636999130249023;stroke-width:1.8422000408172607px"/><path d="M88.1,258.1a39.21,39.21,0,0,1-3.6,1.6,18.14,18.14,0,0,1-4.4.9" style="fill:none;stroke:#c7b37f;stroke-miterlimit:3.8636999130249023;stroke-width:1.8422000408172607px"/><path d="M98.7,242.1c-1.4,5-4.7,8.7-9.8,13.4" style="fill:none;stroke:#703d29;stroke-linecap:round;stroke-miterlimit:3.8636999130249023;stroke-width:1.8422000408172607px"/><path d="M95,202.3a11,11,0,0,1,3.4,3.8" style="fill:none;stroke:#703d29;stroke-miterlimit:3.8636999130249023;stroke-width:1.8422000408172607px"/><path d="M98.8,216a26.16,26.16,0,0,1-4.5,6.9,36.16,36.16,0,0,1-25.6,11.7,29.67,29.67,0,0,1-17.6-5.1c-6.4-4.3-10.5-10.3-11.9-16.3" style="fill:none;stroke:#703d29;stroke-linecap:round;stroke-miterlimit:3.8636999130249023;stroke-width:1.8422000408172607px"/><path d="M39.2,209.9c.5,1.7.6,2.7,1.2,4.3a24.16,24.16,0,0,0,2.7,5,27.62,27.62,0,0,0,3.7,4.6,21.49,21.49,0,0,0,4.1,3.2,35.5,35.5,0,0,0,4.3,2.3" style="fill:none;stroke:#c7b37f;stroke-linecap:round;stroke-miterlimit:3.8636999130249023;stroke-width:1.8422000408172607px"/><path d="M91.7,171.6a22.34,22.34,0,0,1,6.9,9.9" style="fill:none;stroke:#703d29;stroke-miterlimit:3.8636999130249023;stroke-width:1.8422000408172607px"/><path d="M98.7,194.8c-2.6,8.5-10.3,19.1-25.1,22.9-7.1,1.8-16.2-.5-19.4-3.1" style="fill:none;stroke:#703d29;stroke-linecap:round;stroke-miterlimit:3.8636999130249023;stroke-width:1.8422000408172607px"/><path d="M52.3,212.3a24.75,24.75,0,0,0,3.6,1.9,13.74,13.74,0,0,0,3.6,1.1,20.74,20.74,0,0,0,5,.6,26.92,26.92,0,0,0,5.4-.4" style="fill:none;stroke:#c7b37f;stroke-linecap:round;stroke-miterlimit:3.8636999130249023;stroke-width:1.8422000408172607px"/><path d="M46.8,192.8c.8,7.7,5.9,13.5,15.7,13.6,13.7.3,22.1-19.7,9.9-33.8" style="fill:none;stroke:#703d29;stroke-miterlimit:3.8636999130249023;stroke-width:1.8422000408172607px"/><polyline points="62.2 205.4 68.5 203.8 72.2 201 74.6 197.6 76.7 192.3 77.5 188" style="fill:none;stroke:#703d29;stroke-linecap:round;stroke-miterlimit:3.8636999130249023;stroke-width:1.8422000408172607px"/><path d="M54.3,186a5.1,5.1,0,1,1,3.5,6.3A5.18,5.18,0,0,1,54.3,186Z" style="fill:#c7b37f"/><path d="M54.3,186a5.1,5.1,0,1,1,3.5,6.3A5.18,5.18,0,0,1,54.3,186Z" style="fill:none;stroke:#c7b37f;stroke-miterlimit:3.8636999130249023;stroke-width:0.957099974155426px"/><polyline points="48 185 42.8 186.8 38.3 189.6 35.3 192.2 32 196.4 30.3 199.5 28.3 204.6 26.9 209.4 25.8 215.4 25.6 218.4" style="fill:none;stroke:#c7b37f;stroke-miterlimit:3.8636999130249023;stroke-width:1.6446000337600708px"/><path d="M59.9,179.1c-6-3.2-15.7-2.8-25.3,3.3a46.66,46.66,0,0,0-4.6,3.5,30.59,30.59,0,0,0-4.2,4.6,50.28,50.28,0,0,0-4.1,7.1,39.78,39.78,0,0,0-2.8,7.7A56.94,56.94,0,0,0,17,223.6c.3,2.8.6,5.4,1.1,7.8,1.6,8.2,3.9,13.9,6.4,18.1a39.18,39.18,0,0,0,4.9,6.6" style="fill:none;stroke:#c7b37f;stroke-miterlimit:3.8636999130249023;stroke-width:1.8422000408172607px"/><ellipse cx="55.5" cy="254.1" rx="5" ry="5.4" style="fill:#c7b37f"/><path d="M15.9,259.8a48.56,48.56,0,0,0,6.8,6.8A48,48,0,0,0,40,276.2" style="fill:none;stroke:#703d29;stroke-linecap:round;stroke-miterlimit:3.8636999130249023;stroke-width:1.8422000408172607px"/><path d="M55.4,277.6c12.3-1.5,19.2-10.6,17.8-21.3-1-8.1-8.5-14.4-13.6-14.8" style="fill:none;stroke:#703d29;stroke-linecap:round;stroke-miterlimit:3.8636999130249023;stroke-width:1.8422000408172607px"/><polyline points="72.3 258.4 71.3 264.7 70 267.5 67.5 271 64.1 273.6 60.6 275.3 53.9 277" style="fill:none;stroke:#703d29;stroke-miterlimit:3.8636999130249023;stroke-width:1.6446000337600708px"/><path d="M98.7,164A19.31,19.31,0,0,1,88,175.7c-5.4,2.4-11.6.2-15-2.4" style="fill:none;stroke:#703d29;stroke-miterlimit:3.8636999130249023;stroke-width:1.8422000408172607px"/><polyline points="98.5 161 97.2 164.8 95.6 167.6 93.4 170.6 90.4 173.4 86.7 175.1 83.7 175.8 81.8 175.7" style="fill:none;stroke:#703d29;stroke-miterlimit:3.8636999130249023;stroke-width:1.6446000337600708px"/><path d="M75.4,150.7c5.3-.2,8.3,4.6,8.3,8.7" style="fill:none;stroke:#703d29;stroke-miterlimit:3.8636999130249023;stroke-width:1.8422000408172607px"/><path d="M84.7,155.6c-1,3.7-3,8.4-8.9,7.9" style="fill:none;stroke:#703d29;stroke-linecap:round;stroke-miterlimit:3.8636999130249023;stroke-width:1.8422000408172607px"/><ellipse cx="75.9" cy="157.7" rx="5.5" ry="6" style="fill:#c7b37f"/><ellipse cx="75.9" cy="157.7" rx="5.5" ry="6" style="fill:none;stroke:#c7b37f;stroke-miterlimit:3.8636999130249023;stroke-width:0.957099974155426px"/><line x1="82.9" y1="157.6" x2="83" y2="160.5" style="fill:none;stroke:#703d29;stroke-miterlimit:3.8636999130249023;stroke-width:1.6446000337600708px"/><path d="M74.1,77.6a33.51,33.51,0,0,0,14.7,17" style="fill:none;stroke:#703d29;stroke-linecap:round;stroke-miterlimit:3.8636999130249023;stroke-width:1.8422000408172607px"/><path d="M90.9,97c-2.3-1.4-3.8-2-6-3.5a39.29,39.29,0,0,1-5.5-4.4A30.74,30.74,0,0,1,76,85.3c-1-1.4-1.4-2.3-2.4-3.8" style="fill:none;stroke:#c7b37f;stroke-linecap:round;stroke-miterlimit:3.8636999130249023;stroke-width:1.8422000408172607px"/><path d="M95.6,68.1a30.24,30.24,0,0,0,1.9,5,20.49,20.49,0,0,0,4.2,5.9c2.6,2.9,4.9,3.7,8,6.1" style="fill:none;stroke:#c7b37f;stroke-linecap:round;stroke-miterlimit:3.8636999130249023;stroke-width:1.8422000408172607px"/><path d="M113.8,67.9a25.29,25.29,0,0,0,1.9,4.5,22.55,22.55,0,0,0,2.4,3.6,20,20,0,0,0,3.9,3.8,50,50,0,0,0,5.5,3.3" style="fill:none;stroke:#c7b37f;stroke-linecap:round;stroke-miterlimit:3.8636999130249023;stroke-width:1.8422000408172607px"/><path d="M139.8,62.7c-.3-3,1.5-5.6,4-5.9s4.8,1.9,5.1,4.9-1.5,5.6-4,5.9S140.1,65.7,139.8,62.7Z" style="fill:#c7b37f"/><path d="M509.3,184.9c5,6.9,1.7,20.4-11.9,20.7a15.49,15.49,0,0,1-13-7.3" style="fill:none;stroke:#703d29;stroke-linecap:round;stroke-miterlimit:3.8636999130249023;stroke-width:1.8422000408172607px"/><path d="M63.2,181c-5.6-5.5-17.6-7-29.5.6a46.66,46.66,0,0,0-4.6,3.5,30.59,30.59,0,0,0-4.2,4.6,50.28,50.28,0,0,0-4.1,7.1,39.78,39.78,0,0,0-2.8,7.7,56.58,56.58,0,0,0-1.9,18.2c.3,2.8.6,5.4,1.1,7.8,1.6,8.2,4,13.9,6.5,18,2.6,4.4,9.2,14.4,22.5,15.7,5.2.5,14.2-1.9,14.5-8.7" style="fill:none;stroke:#703d29;stroke-miterlimit:3.8636999130249023;stroke-width:1.8422000408172607px"/><path d="M407.6,60.1c.9-4.8,6.7-5.8,8.9-2.9,3.4,4.4,1.1,11.9-5.7,14a11.14,11.14,0,0,1-11.2-4.1c-2.8-3.6-2.6-8.2-1.6-11.8.7-2.3,2.5-4.3,5-6.2,7.9-6,20.8-4.6,25,5.5,5.4,13.1-6.4,22.9-17.3,30.3-13.7,9.3-29.3,11-41.1,10.9-26.7-.3-47-13.1-60.2-20.3-3.1-1.7-6.2-1.3-7.8.6a5.82,5.82,0,0,0,.7,8" style="fill:none;stroke:#703d29;stroke-linecap:round;stroke-miterlimit:3.8636999130249023;stroke-width:1.8422000408172607px"/><path d="M413,55.6a4.88,4.88,0,0,1,4.5,2.4c3.4,4.4.9,11.9-5.9,14.1" style="fill:none;stroke:#703d29;stroke-linecap:round;stroke-miterlimit:3.8636999130249023;stroke-width:1.8422000408172607px"/><circle cx="306.1" cy="81" r="5.6" style="fill:#c7b37f"/><path d="M407.6,61.2c.5-2.8,2.8-4.7,5.2-4.3s3.9,3,3.4,5.8-2.8,4.7-5.2,4.3S407.1,64,407.6,61.2Z" style="fill:#c7b37f"/><path d="M264.1,68.3c4.5,3.4,7.7,7.7,7.1,14.5-.6,7.4-2.4,9.2-8.2,13.2" style="fill:none;stroke:#703d29;stroke-linecap:round;stroke-miterlimit:3.863600015640259;stroke-width:2.0931999683380127px"/><line x1="459.9" y1="95.3" x2="459.9" y2="141.3" style="fill:none;stroke:#703d29;stroke-miterlimit:3.8636999130249023;stroke-width:1.8422000408172607px"/><path d="M270.1,84.9c-.3,4.5-2.1,7.4-6.6,9.2" style="fill:none;stroke:#703d29;stroke-linecap:round;stroke-miterlimit:3.863600015640259;stroke-width:2.0931999683380127px"/><path d="M318.8,44.2c-.2-4.9-5-5.5-6.9-5.5-5.4,0-6.8,3.4-13.6,7-8.4,4.5-12,5.5-19.5,5.6-7.5-.1-11.2-1.1-19.6-5.6-6.7-3.6-7.9-6.9-13.2-6.9a6.86,6.86,0,0,0-6.6,7.2,8.72,8.72,0,0,0,.2,2.5c.1.4.6.3.7.6a6.71,6.71,0,0,1,1.5-4.9,6.61,6.61,0,0,1,4.7-2.5c5.4,0,7.4,3.5,14.1,7.1,8.4,4.5,12,5.5,19.5,5.6,7.5-.1,11.2-1.1,19.6-5.6,6.7-3.6,8.6-7.4,14-7.4a3.92,3.92,0,0,1,3.8,3.1,9.21,9.21,0,0,1,.3,2.4c.1.2.3.2.4.4A5.47,5.47,0,0,0,318.8,44.2Z" style="fill:#703d29"/><path d="M318.8,44.2c-.2-4.9-5-5.5-6.9-5.5-5.4,0-6.8,3.4-13.6,7-8.4,4.5-12,5.5-19.5,5.6-7.5-.1-11.2-1.1-19.6-5.6-6.7-3.6-7.9-6.9-13.2-6.9a6.86,6.86,0,0,0-6.6,7.2,8.72,8.72,0,0,0,.2,2.5c.1.4.6.3.7.6a6.71,6.71,0,0,1,1.5-4.9,6.61,6.61,0,0,1,4.7-2.5c5.4,0,7.4,3.5,14.1,7.1,8.4,4.5,12,5.5,19.5,5.6,7.5-.1,11.2-1.1,19.6-5.6,6.7-3.6,8.6-7.4,14-7.4a3.92,3.92,0,0,1,3.8,3.1,9.21,9.21,0,0,1,.3,2.4c.1.2.3.2.4.4A5.47,5.47,0,0,0,318.8,44.2Z" style="fill:none;stroke:#703d29;stroke-miterlimit:3.863600015640259;stroke-width:0.5163000226020813px"/><path d="M160.3,63c0,5-3.7,8.2-8.7,9.2" style="fill:none;stroke:#703d29;stroke-linecap:round;stroke-miterlimit:3.863600015640259;stroke-width:1.94350004196167px"/><path d="M47.8,185.9A27.76,27.76,0,0,0,33.7,196c-3.5,4.9-5.5,11.7-6.7,17.7a58.5,58.5,0,0,0,.5,19.4,44.49,44.49,0,0,0,6.7,16.4,22.84,22.84,0,0,0,3,3.6,37.46,37.46,0,0,0,3.3,2.6" style="fill:none;stroke:#703d29;stroke-miterlimit:3.8636999130249023;stroke-width:1.8422000408172607px"/><path d="M49.5,183.3c-4.6,1.2-12.2,3.6-17.4,11-3.5,4.9-5.5,11.7-6.7,17.7a58.5,58.5,0,0,0,.5,19.4,44.49,44.49,0,0,0,6.7,16.4,33.06,33.06,0,0,0,3,3.9c3.8,3.8,7.3,6.1,13.1,4.9" style="fill:none;stroke:#703d29;stroke-miterlimit:3.8636999130249023;stroke-width:1.8422000408172607px"/><path d="M47.5,184.6c-5.5,3.4-9.7,4.2-14,9.2-5,5.8-6.1,10.8-6.6,18.2" style="fill:none;stroke:#703d29;stroke-linecap:round;stroke-miterlimit:3.863600015640259;stroke-width:1.94350004196167px"/><path d="M463.6,222.4c-10.2,11.1-.8,30.1,6.8,34.4,2.6,2,3.8,1,5.9,2.2" style="fill:none;stroke:#703d29;stroke-linecap:round;stroke-miterlimit:3.8636999130249023;stroke-width:1.8422000408172607px"/><path d="M464.1,201.2c-3.3,2.3-4.5,4.9-4.6,9.5a15.52,15.52,0,0,0,4.1,11.7c5.5,5.8,16.4,10.8,26.9,10.9a29.67,29.67,0,0,0,17.6-5.1,26.61,26.61,0,0,0,11.2-15.7" style="fill:none;stroke:#703d29;stroke-miterlimit:3.8636999130249023;stroke-width:1.8422000408172607px"/><path d="M458.4,392.7a66.37,66.37,0,0,1-.4,7.3c-1.1,8.1-2.4,12.8-6.1,20.2-3.6,7.2-6.5,10.9-12.2,16.5s-9.8,8.3-17,11.9c-7,3.5-11.5,4.6-19.2,6.4a104.22,104.22,0,0,1-20,2.5A142.91,142.91,0,0,1,365,457c-7.7-.5-12-1.6-19.7-2.3a148.73,148.73,0,0,0-16.3-1.1,85.83,85.83,0,0,0-16.8,1.2,66.45,66.45,0,0,0-15.1,4.2c-7.8,3.2-16.7,8.7-18.6,11.2-1.9-2.5-10.7-8-18.6-11.2a66.45,66.45,0,0,0-15.1-4.2,85.83,85.83,0,0,0-16.8-1.2,147.07,147.07,0,0,0-16.3,1.1c-7.7.7-12,1.8-19.7,2.3a142.91,142.91,0,0,1-18.5.5c-7.9-.4-12.4-.7-20-2.5s-12.1-2.9-19.2-6.4-11.2-6.2-17-11.9a54.88,54.88,0,0,1-12.2-16.5c-3.7-7.3-5-12-6.1-20.2a65.34,65.34,0,0,1-.4-7.3V95.9H458V392.7h.4Z" style="fill:#c7b37f"/><path d="M458.4,392.7a66.37,66.37,0,0,1-.4,7.3c-1.1,8.1-2.4,12.8-6.1,20.2-3.6,7.2-6.5,10.9-12.2,16.5s-9.8,8.3-17,11.9c-7,3.5-11.5,4.6-19.2,6.4a104.22,104.22,0,0,1-20,2.5A142.91,142.91,0,0,1,365,457c-7.7-.5-12-1.6-19.7-2.3a148.73,148.73,0,0,0-16.3-1.1,85.83,85.83,0,0,0-16.8,1.2,66.45,66.45,0,0,0-15.1,4.2c-7.8,3.2-16.7,8.7-18.6,11.2-1.9-2.5-10.7-8-18.6-11.2a66.45,66.45,0,0,0-15.1-4.2,85.83,85.83,0,0,0-16.8-1.2,147.07,147.07,0,0,0-16.3,1.1c-7.7.7-12,1.8-19.7,2.3a142.91,142.91,0,0,1-18.5.5c-7.9-.4-12.4-.7-20-2.5s-12.1-2.9-19.2-6.4-11.2-6.2-17-11.9a54.88,54.88,0,0,1-12.2-16.5c-3.7-7.3-5-12-6.1-20.2a65.34,65.34,0,0,1-.4-7.3V95.9H458V392.7h.4Z" style="fill:none;stroke:#703d29;stroke-miterlimit:3.8636999130249023;stroke-width:1.8422000408172607px"/><rect x="117" y="113.9" width="153.4" height="153.1" style="fill:#e20025"/><rect x="117" y="113.9" width="153.4" height="153.1" style="fill:none;stroke:#703d29;stroke-miterlimit:3.863600015640259;stroke-width:1.4886000156402588px"/><path d="M210.1,231.8l-4.7-1.2-6.5-.6-.5,4.4a38.17,38.17,0,0,0,1.6,9.9c1.7,5.1,1.8,5.1,3.4,7.5a26.1,26.1,0,0,0,7.1,7.3c3.7,2.3,7.4,3.5,11.1,3.2,10.3-.9,15-12,17.3-21,2.5-9.6,9.5-14.8,13.9-11.3,2.6,2,2.8,5.4.6,8.7-2.3,3.5-7.7,5.2-7.7,5.2l5.5,7s11.8-1.5,14.1-13.8c.9-4.6-.4-14.2-9.1-15.9-10.2-2-15.5,3.6-18.6,9.5-4.2,8.2-6.7,23.4-18.3,21-6.3-1.3-9.3-10.4-9.3-14.7Z" style="fill:#fff"/><path d="M188.9,234.5a38.17,38.17,0,0,1-1.6,9.9c-1.7,5.1-1.8,5.1-3.4,7.5a26.1,26.1,0,0,1-7.1,7.3c-3.7,2.3-7.4,3.5-11.1,3.2-10.3-.9-15-12-17.3-21-2.5-9.6-9.5-14.8-13.9-11.3-2.6,2-2.8,5.4-.6,8.7,2.3,3.5,7.7,5.2,7.7,5.2l-5.5,7s-11.8-1.5-14.1-13.8c-.9-4.6,1.4-13.3,9.1-15.9,9.9-3.3,16.2,3.7,19.3,9.7,4.2,8.2,6,23.2,17.6,20.9,6.3-1.3,9.3-10.4,9.3-14.7l4.6-4.9,6.8,2.2Z" style="fill:#fff"/><path d="M207.4,169.4l20.1-21.7a8.78,8.78,0,0,0,3-6.4l-4.1.6-.9-2.1-.2-2.1,5.6-1.2a24.62,24.62,0,0,1,.2-2.6,19.48,19.48,0,0,1,.6-2.3l-6.1.4a19.8,19.8,0,0,1,.6-2.6,12,12,0,0,1,.9-2.1c1.1-.2,2.2-.4,3.6-.6s2.1-.1,3.5-.2c3.3-6.2,17.2-11.9,27-1.7,7.1,7.4,5.6,20.9-3.6,24.5a11.87,11.87,0,0,1-12.8-2.1l3.7-7.2c5.1,3,9.3-.7,9-4.7-.4-5-3.6-8-8.1-8.4-4.2-.4-7.2,2-9.1,5.8-1.2,2.3-.6,4-1,6.5-.4,2.8-.2,4.3-1,7.1a17.51,17.51,0,0,1-4.4,6.7l-20.6,22.3L133.1,262l-6-5.6Z" style="fill:#ffea0f"/><path d="M148.4,177s5,25,22.2,62.4c8.7-3.2,13.9-5.2,23.1-5.2s14.4,1.7,23.1,5.2C233.9,202,239,177,239,177l-45.2-58.2Z" style="fill:#fff"/><path d="M198.2,138.5l31.3,40.4s-4.2,19.6-16.9,49.2a83.24,83.24,0,0,0-14.4-2.4Z" style="fill:#ffea0f"/><path d="M189.3,138.5l-31.4,40.4s4.2,19.6,16.9,49.2a96.22,96.22,0,0,1,14.4-2.5Z" style="fill:#ffea0f"/><rect x="286.7" y="113.9" width="153.4" height="153.1" style="fill:#ffea0f"/><rect x="286.7" y="113.9" width="153.4" height="153.1" style="fill:none;stroke:#703d29;stroke-miterlimit:3.863600015640259;stroke-width:1.4886000156402588px"/><path d="M439.6,399.8a37.28,37.28,0,0,1-4,12.3c-2.8,4.4-1.7,4.2-8,11.2-3.1,3.4-7.9,6.4-11.6,8.4s-6.6,3-12.8,4.7c-12.2,3.2-20.7,3.4-30.9,3a170.93,170.93,0,0,1-19.1-2c-7.2-1-12.6-1.5-20.8-1.9a110.26,110.26,0,0,0-11.5,0,82.33,82.33,0,0,0-13.6,1.9,150.31,150.31,0,0,0-20.6,5.9l.1-159.9H440.2V392.7C440.1,392.7,439.8,398,439.6,399.8Z" style="fill:#ffea0f"/><path d="M439.6,399.8a37.28,37.28,0,0,1-4,12.3c-2.8,4.4-1.7,4.2-8,11.2-3.1,3.4-7.9,6.4-11.6,8.4s-6.6,3-12.8,4.7c-12.2,3.2-20.7,3.4-30.9,3a170.93,170.93,0,0,1-19.1-2c-7.2-1-12.6-1.5-20.8-1.9a110.26,110.26,0,0,0-11.5,0,82.33,82.33,0,0,0-13.6,1.9,150.31,150.31,0,0,0-20.6,5.9l.1-159.9H440.2V392.7C440.1,392.7,439.8,398,439.6,399.8Z" style="fill:none;stroke:#703d29;stroke-miterlimit:3.863600015640259;stroke-width:1.4886000156402588px"/><path d="M326.9,328.5a25.29,25.29,0,0,1-3.7-1.5c.6-.5,1.1-.5,1.6-1a7.07,7.07,0,0,0,1.1-2.5c.4-1,.3-1.8,1.3-2.5a2.52,2.52,0,0,1,2.1-.3,2.27,2.27,0,0,1,1.6,1.4c.3,1-.3,1.7-.5,2.7a8.84,8.84,0,0,0-.4,2.7,6.12,6.12,0,0,0,.7,1.7A37.27,37.27,0,0,1,326.9,328.5Z" style="fill:#0065bd"/><path d="M325.1,330.2a1.2,1.2,0,0,1,2.4,0,1.2,1.2,0,0,1-2.4,0Z" style="fill:#0065bd"/><path d="M321.8,299.4a1.44,1.44,0,0,1-.3-.2,3.89,3.89,0,0,1-1.1-2.1,8,8,0,0,1-.6-2.2,13.35,13.35,0,0,1,0-2,10.82,10.82,0,0,0,0-1.8,5.84,5.84,0,0,0-.4-1.8c-.2-.3-.7-.6-.6-.8s.5,0,.8,0a3.26,3.26,0,0,1,1.8.8,3.89,3.89,0,0,1,1.3,2c.3,1,.5,1.7.8,2.7a5.78,5.78,0,0,0,.5,1.4,10.59,10.59,0,0,0,1,1.2h0c-.6.6-.8,1-1.4,1.6a8,8,0,0,1-1.8,1.2Z" style="fill:#0065bd"/><path d="M406.9,319.3c0,1.3-.1,2.9,0,5.4.1,2.3-.4,3.6-.2,5.1a5.3,5.3,0,0,0,1.3,2.8c1.6,2.4,3.3,2.9,2,6.9a22.41,22.41,0,0,0-.8,3.1c-.4,1.4-.3,1.7-.8,3.5-.4,1.6-.8,4.9-1.2,8.4a6.24,6.24,0,0,0-.1,1.2c-.2.6-.7.5-1.5.6s-.5,1.9-.8,3.1l-.7.7-3-.8-2.1-.7.3-1.9c.4-.3.7-.4,1.1-.7a7,7,0,0,0,2.2-2.9,16.63,16.63,0,0,0,.9-3.7,15.93,15.93,0,0,0,.6-4.3c-.1-1.4-.8-2.1-1-3.5-.2-1.2.3-2-.1-3.1-.5-1.4.5-1.2-2.3-2.6,0,0,.2,1.1.4,1.8.1.5.4.8.4,1.3,0,.8-.6,1.1-1,1.7-1,1.3-2,1.5-3.1,2.7a23.37,23.37,0,0,0-5.6,7.3c-.5,1-.5,2.2-1.2,2.7-.5.5-1.2.3-1.9.4a1.84,1.84,0,0,0-1.4.8,1.69,1.69,0,0,0-.4,1.4l-.8.5-2.4-.4-2.7-1,.4-1.9c1.8-1.4,2.6-.5,3.9-1.6a6.68,6.68,0,0,0,1.7-2c.5-.6.6-1.1,1.1-1.7s.7-.7,1.1-1.2a25.14,25.14,0,0,0,2-2.9,15.7,15.7,0,0,0,1.4-2.5,12.09,12.09,0,0,0,.5-1.8,8.08,8.08,0,0,0,.1-1.5c-.4.2-1.5.5-1.9.7v1.5c-.1.6,0,1.2-.6,1.6a1.16,1.16,0,0,1-1,.2,1.22,1.22,0,0,1-.9-.8c-.2-.4,0-.7-.1-1.2v-.9a12.85,12.85,0,0,1-3.2,0,5.65,5.65,0,0,1,0,1.3c-.1.6,0,1-.5,1.4a1.52,1.52,0,0,1-1.3.3,1.79,1.79,0,0,1-.7-.5c-.3-.4-.2-.8-.2-1.4v-1.8a16.34,16.34,0,0,1-5.1-3,8.4,8.4,0,0,1-1.4.4,45.35,45.35,0,0,1-17.5.7,43,43,0,0,1-.7,4.6c-.4,1.6-1,2.5-1.3,4.1a14.28,14.28,0,0,0-.3,2.9,22.18,22.18,0,0,0,.3,5.1c.2,1.2.4,1.9.5,3.1.1.8.2.9-.1,1.4s-1-.1-1.7.2a1.79,1.79,0,0,0-.9,1,2.38,2.38,0,0,0-.3,1.2L353,360l-2.4-.6-2.1-.9.2-1.9c.7-.5,1.3-.6,1.8-1.3a3.55,3.55,0,0,0,.8-2c.2-1.3.3-2,.4-3.3s0-2.2,0-3.5a2.84,2.84,0,0,0-.4-1.2c-.2-.4-.3-.7-.5-1.1-.6-.9-.2-4.6-.3-6.6a5.07,5.07,0,0,0-.2-1.3l-.7.2a4.61,4.61,0,0,1-2.3-.1c-1.6-.5-2.1-.8-2.7-.7a3.46,3.46,0,0,1-1.8-.2c-1.6,1.6-2.1,1.8-3.7,3.4-.6.5-.8.8-.7,1.4.4,1.9,1.9,2.1,3,3.4.6.7,1.7,1.2,1.2,2-.4.6-1.2.5-1.3,1.2a1.47,1.47,0,0,0,.5,1.4l-.1,1.7-1.2,2.2-1.2,1.2-1.8-.7a17.28,17.28,0,0,0-2.1-7.4,44.87,44.87,0,0,0-2.9-4.5c-1.7-2.9-.8-2.9.6-5.1,1.1-1.8,2.3-2.4,3.7-4-.7-1.2-1-2.4-2.2-2.8-.6-.2-1.6-2.4-2.7-6a4.67,4.67,0,0,1,.1-1.6,4.87,4.87,0,0,0,.3-.7l-4-1.8c.4-.3.8-.5,1.2-.8-.5.1-.8-.1-1.4,0s-.7.2-1.2.3a4.13,4.13,0,0,1-1.9-.2,9,9,0,0,1-2.3-.8c-1.1-.5-1.6-1.1-2.7-1.6a23.39,23.39,0,0,0-3.8-.9,5.11,5.11,0,0,1-2.4-.2c-.5-.2-.6-.9-1-1.5-.2-.4-1.2-2.1-1.5-2.7-.2-.4-.2-.7-.4-1.1.5-.3.7-1.1,1.4-1.3.4-.1.7,0,1.1-.1s.4-.2.7-.3a8.9,8.9,0,0,0,2-1.9,18,18,0,0,0,2-1.9,6.57,6.57,0,0,0,1.2-1.7c.3-.7,0-1.3.5-1.9.3-.4.7-.5,1.1-.8a11.86,11.86,0,0,0,2.3-1.6,7.31,7.31,0,0,0,1.4-1.6c.4-.2,1.1-.5,1.1-.5a18.39,18.39,0,0,1,5.6,1.7,30.53,30.53,0,0,1,4.1,2.3,5.83,5.83,0,0,1,1.5-1.1,6,6,0,0,1,2.3-.6,5.44,5.44,0,0,1,1.8,0,4.37,4.37,0,0,1,1.7.8,22,22,0,0,0-1.4,1.8c-.6.7-.5,1.3-1,1.9a4.32,4.32,0,0,1-2.7,1.9l4,1.3s3.6-.1,7.2-.3c6.9-.6,6.9-1.6,11.5-2,2.5-.2,6.6.7,10.8.6,3.6-.1,5.6-.4,9.2-.8s5.8-1.2,9.5-1.4a53.42,53.42,0,0,1,8,.1c3,.2,4.9.1,7.7,1.1,1.8.6,3.6,1,5.1,2.7a4.92,4.92,0,0,1,1,1.5,7.59,7.59,0,0,1,.6,1.8,13.66,13.66,0,0,1,.2,1.9,5.31,5.31,0,0,1-.6,2.7c-1.4,3-2.2,3.4-4.4,4.6C407.4,319,407.2,319.2,406.9,319.3Z" style="fill:#e20025"/><path d="M408.4,319.8l-1.4.5c-1.6.8-2.9.8-4.9.9-4.9.4-8-2-13.1-1.6-2.6.2-3.8,2.2-6.5,2.9a16.45,16.45,0,0,1-3.2.5l1-1.9a24.88,24.88,0,0,1-3.9.5,26.35,26.35,0,0,1-2.8-.2l1.9-1.8a11,11,0,0,1-2.4-.6,8.18,8.18,0,0,1-2-1.2c1.2-.2,1.9-.4,3.2-.7,2.9-.7,3.8-2.1,7.3-2.5,2.1-.2,5.7-.1,14.3,1.3,5.7.9,8.2.5,10.3-.5a3.81,3.81,0,0,0,2.1-3.3c.2-1.4-.8-2.6-1.6-3.4a3.36,3.36,0,0,0-2.1-.7" style="fill:none;stroke:#ffea0f;stroke-linecap:round;stroke-miterlimit:3.8636999130249023;stroke-width:1.8422000408172607px"/><path d="M326.3,303.1a3.57,3.57,0,0,0-2.5.5c-.9.6-1,1.3-1.7,2.1.8.2,1.3.7,2.1.5a2.63,2.63,0,0,0,1.4-.9,3,3,0,0,0,.8-2.2Z" style="fill:#ffea0f"/><path d="M326.3,303.1a3.57,3.57,0,0,0-2.5.5c-.9.6-1,1.3-1.7,2.1.8.2,1.3.7,2.1.5a2.63,2.63,0,0,0,1.4-.9,3,3,0,0,0,.8-2.2Z" style="fill:none;stroke:#ffea0f;stroke-miterlimit:3.863600015640259;stroke-width:0.957099974155426px"/><path d="M347.3,327.8s.5.9.8,1.5a12.47,12.47,0,0,1,1,2.7,25.79,25.79,0,0,1,.4,3.9c0,.3.1.5.1.7l-.1,2.1" style="fill:none;stroke:#ffea0f;stroke-linecap:round;stroke-miterlimit:3.8636999130249023;stroke-width:1.8422000408172607px"/><path d="M362.2,325.7s-.4,1.5-.7,2.5c-.7,2.5-1.3,3.9-1.8,6.5-.1.4-.1.8-.2,1.2" style="fill:none;stroke:#ffea0f;stroke-linecap:round;stroke-miterlimit:3.8636999130249023;stroke-width:1.8422000408172607px"/><path d="M328.5,319.3l4.2,1.9a17.62,17.62,0,0,0,6.5-7.3,25.23,25.23,0,0,0,2.5-8.1l-3.3-1.1-.7.1c-1,3.2-1.3,5-3,7.8a23.5,23.5,0,0,1-4.9,5.7Z" style="fill:#0065bd"/><polygon points="328.6 319.3 328.6 318.4 329.7 318.4 330.6 319 328.6 319.3" style="fill:#e20025"/><path d="M337.7,353.1c.7-.9,1-1.5,1.7-2.4a24.05,24.05,0,0,1,2.4-2.1,2.77,2.77,0,0,1,.9.1c-.1,1-.1,1.8-.3,2.9a19.48,19.48,0,0,1-.6,2.3,9.62,9.62,0,0,1-.7,1.8,8.12,8.12,0,0,1-.9,1C339.2,355.3,337.7,354.2,337.7,353.1Z" style="fill:#0065bd"/><path d="M399.3,356.5a21.52,21.52,0,0,1,2.7,1,25.34,25.34,0,0,1,2.7,1.8,1.41,1.41,0,0,1,.1.9,21.76,21.76,0,0,1-2.9.5,17.65,17.65,0,0,1-2.3,0,6.8,6.8,0,0,1-2-.2c-.5-.2-.7-.4-1.2-.6C397.7,358.6,398.2,356.8,399.3,356.5Z" style="fill:#0065bd"/><path d="M381.1,352.7a21.52,21.52,0,0,1,2.7,1,25.34,25.34,0,0,1,2.7,1.8,1.41,1.41,0,0,1,.1.9,21.76,21.76,0,0,1-2.9.5,8.85,8.85,0,0,1-2.3,0,6.8,6.8,0,0,1-2-.2c-.5-.2-.7-.4-1.2-.6C379.5,354.8,380,353,381.1,352.7Z" style="fill:#0065bd"/><path d="M348.7,356.7a21.52,21.52,0,0,1,2.7,1,25.34,25.34,0,0,1,2.7,1.8c0,.3.2.6.1.9a21.76,21.76,0,0,1-2.9.5,8.85,8.85,0,0,1-2.3,0,6.8,6.8,0,0,1-2-.2c-.5-.2-.7-.4-1.2-.6C347.1,358.8,347.6,357,348.7,356.7Z" style="fill:#0065bd"/><path d="M332,301.1c-1.1-.5-2-1.9-1.2-3,.3-.4.8-.3,1.1-.7s.3-.9.3-1.6a11.63,11.63,0,0,0-.4-1.8,13.8,13.8,0,0,1-.3-2c0-1.2-.1-2,.6-2.9a3.09,3.09,0,0,1,1.5-1.1c.3.3-.1.9-.1,1.5a8.74,8.74,0,0,0,.5,2.2c.4,1,.9,1.5,1.3,2.5a8.09,8.09,0,0,1,.8,2.5,4.13,4.13,0,0,1-.4,2.2,4.57,4.57,0,0,1-1.1,1.6,4.35,4.35,0,0,1-1.5.8A2.15,2.15,0,0,1,332,301.1Z" style="fill:#0065bd"/><path d="M318.2,316.2c1.4-.1,2.1-.3,3.5-.4.9,0,1.4.1,2.2.1a14.77,14.77,0,0,0,2.1.1,5.84,5.84,0,0,0,2.2-.8,6.71,6.71,0,0,0,1.4-.9,19.2,19.2,0,0,0,1.5-1.4,20,20,0,0,1,1.6-1.4" style="fill:none;stroke:#e20025;stroke-miterlimit:3.863600015640259;stroke-width:0.957099974155426px"/><path d="M336.3,332.5a7,7,0,0,0,3,2.1" style="fill:none;stroke:#e20025;stroke-linecap:round;stroke-miterlimit:3.8636999130249023;stroke-width:1.8422000408172607px"/><path d="M339.3,328.5c1.5.3,1,6.3,3.3,7.6" style="fill:none;stroke:#ffea0f;stroke-linecap:round;stroke-miterlimit:3.8636999130249023;stroke-width:1.8422000408172607px"/><path d="M392.2,338.9l.7-.5a15.56,15.56,0,0,0,5-3.3" style="fill:none;stroke:#ffea0f;stroke-miterlimit:3.8636999130249023;stroke-width:1.8422000408172607px"/><path d="M377.8,335.6h0c6.6-1.7,11-4.9,14.2-5.4" style="fill:none;stroke:#ffea0f;stroke-linecap:round;stroke-miterlimit:3.8636999130249023;stroke-width:1.8422000408172607px"/><path d="M384.5,327.4c.6,0,1.1-.1,1.5-.1,2.7-.4,3.2,1.3,5.1,2.3,3.5,1.9,3.9,4.3,8,6.3l.6.3,1.6.8" style="fill:none;stroke:#ffea0f;stroke-linecap:round;stroke-miterlimit:3.8636999130249023;stroke-width:1.8422000408172607px"/><path d="M382.6,327.5l2.8,2.8,4.4-.5s-.9-.9-1.5-1.4c-.3-.2-.4-.4-.8-.5s-.4,0-.7-.1a4.87,4.87,0,0,1-1.2-.1c-.7,0-1-.1-1.7-.1a4.48,4.48,0,0,1-1.2-.1Z" style="fill:#e20025"/><path d="M405.7,309.4c-.2-.4-.5-.5-.9-.7a6,6,0,0,0-2-.5l-.5,3.3,3.6-.9A3,3,0,0,0,405.7,309.4Z" style="fill:#e20025"/><path d="M396.1,323.4l.8-1.8a11.63,11.63,0,0,1-1.8-.4,16,16,0,0,0-2.1-.5,18.46,18.46,0,0,0-2.3-.4,7.49,7.49,0,0,0-2.1-.2,4.42,4.42,0,0,0-1.6.6c-.7.4-1.1.7-1.8,1.1a9.06,9.06,0,0,1-2.2,1.1,16.56,16.56,0,0,1-2.1.6,25.34,25.34,0,0,1-3.8.7l4.2,1.6Z" style="fill:#e20025"/><path d="M377.5,324.4l1.8-2.9a28.54,28.54,0,0,1-3,.5,36.15,36.15,0,0,1-5.7,0l.5,3.2,3.6,1.6Z" style="fill:#e20025"/><path d="M372.9,317.8a29.69,29.69,0,0,0,2.9-.8c.9-.4,1.4-.7,2.4-1.1a10.41,10.41,0,0,1,1.6-.6,14.34,14.34,0,0,1,2.2-.4,7.94,7.94,0,0,1,2.2.1c1.3.1,2,.2,3.2.3s1.8.3,3,.4,1.8.3,2.9.5c1.9.4,3,.6,5,.9a28,28,0,0,0,4,.3,14.28,14.28,0,0,0,2.9-.3l-1.1,1.8-10.4-.9-10.9-.6-7.9.8h-1.4Z" style="fill:#e20025"/><path d="M313,310.5a5.7,5.7,0,0,0,1.3.1c.6-.1.9-.4,1.5-.5s.9-.1,1.3.2a1.33,1.33,0,0,1,.5.6,1,1,0,0,1,.2.9,1.08,1.08,0,0,1-1.1.8,1,1,0,0,1-1-.5c-.1-.3-.2-.5-.1-.7a1.71,1.71,0,0,1-1.4,0A2.15,2.15,0,0,1,313,310.5Z" style="fill:#ffea0f"/><path d="M313,310.5a5.7,5.7,0,0,0,1.3.1c.6-.1.9-.4,1.5-.5s.9-.1,1.3.2a1.33,1.33,0,0,1,.5.6,1,1,0,0,1,.2.9,1.08,1.08,0,0,1-1.1.8,1,1,0,0,1-1-.5c-.1-.3-.2-.5-.1-.7a1.71,1.71,0,0,1-1.4,0A2.15,2.15,0,0,1,313,310.5Z" style="fill:none;stroke:#ffea0f;stroke-miterlimit:3.863600015640259;stroke-width:0.957099974155426px"/><path d="M326.9,396.8a25.29,25.29,0,0,1-3.7-1.5c.6-.5,1.1-.5,1.6-1a7.07,7.07,0,0,0,1.1-2.5c.4-1,.3-1.8,1.3-2.5a2.55,2.55,0,0,1,3.7,1.1c.3,1-.3,1.7-.5,2.7a8.84,8.84,0,0,0-.4,2.7,6.12,6.12,0,0,0,.7,1.7A37.26,37.26,0,0,1,326.9,396.8Z" style="fill:#0065bd"/><path d="M325.1,398.5a1.22,1.22,0,0,1,1.2-1.2,1.2,1.2,0,1,1-1.2,1.2Z" style="fill:#0065bd"/><path d="M321.8,367.7a1.44,1.44,0,0,1-.3-.2,3.89,3.89,0,0,1-1.1-2.1,8,8,0,0,1-.6-2.2,13.35,13.35,0,0,1,0-2,10.82,10.82,0,0,0,0-1.8,5.84,5.84,0,0,0-.4-1.8c-.2-.3-.7-.6-.6-.8s.5,0,.8,0a3.26,3.26,0,0,1,1.8.8,3.89,3.89,0,0,1,1.3,2c.3,1,.5,1.7.8,2.7a5.78,5.78,0,0,0,.5,1.4,10.59,10.59,0,0,0,1,1.2h0c-.6.6-.8,1-1.4,1.6a8,8,0,0,1-1.8,1.2Z" style="fill:#0065bd"/><path d="M406.9,387.6c0,1.3-.1,2.9,0,5.4.1,2.3-.4,3.6-.2,5.1a5.3,5.3,0,0,0,1.3,2.8c1.6,2.4,3.3,2.9,2,6.9a22.41,22.41,0,0,0-.8,3.1c-.4,1.4-.3,1.7-.8,3.5-.4,1.6-.8,4.9-1.2,8.4a6.24,6.24,0,0,0-.1,1.2c-.2.6-.7.5-1.5.6s-.5,1.9-.8,3.1l-.7.7-3-.8-2.1-.7.3-1.9c.4-.3.7-.4,1.1-.7a7.73,7.73,0,0,0,2.2-2.9,16.63,16.63,0,0,0,.9-3.7,15.93,15.93,0,0,0,.6-4.3c-.1-1.4-.8-2.1-1-3.5-.2-1.2.3-2-.1-3.1-.5-1.4.5-1.2-2.3-2.6,0,0,.2,1.1.4,1.8.1.5.4.8.4,1.3,0,.8-.6,1.1-1,1.7-1,1.3-2,1.5-3.1,2.7a23.37,23.37,0,0,0-5.6,7.3c-.5,1-.5,2.1-1.2,2.7-.5.5-1.2.3-1.9.4a1.84,1.84,0,0,0-1.4.8,1.69,1.69,0,0,0-.4,1.4l-.8.5-2.4-.4-2.7-1,.4-1.9c1.8-1.4,2.6-.5,3.9-1.6a6.68,6.68,0,0,0,1.7-2c.5-.6.6-1.1,1.1-1.7s.7-.7,1.1-1.2a25.14,25.14,0,0,0,2-2.9,15.7,15.7,0,0,0,1.4-2.5,12.09,12.09,0,0,0,.5-1.8,8.08,8.08,0,0,0,.1-1.5c-.4.2-1.5.5-1.9.7v1.5c-.1.6,0,1.2-.6,1.6a1.16,1.16,0,0,1-1,.2,1.22,1.22,0,0,1-.9-.8c-.2-.4,0-.7-.1-1.2v-.9a12.85,12.85,0,0,1-3.2,0,5.65,5.65,0,0,1,0,1.3c-.1.6,0,1-.5,1.4a1.52,1.52,0,0,1-1.3.3,1.79,1.79,0,0,1-.7-.5c-.3-.4-.2-.8-.2-1.4v-1.8a16.34,16.34,0,0,1-5.1-3s-1.1.3-1.4.4a45.35,45.35,0,0,1-17.5.7,43,43,0,0,1-.7,4.6c-.4,1.6-1,2.5-1.3,4.1a14.28,14.28,0,0,0-.3,2.9,22.18,22.18,0,0,0,.3,5.1c.2,1.2.4,1.9.5,3.1.1.8.2.9-.1,1.4s-1-.1-1.7.2a1.79,1.79,0,0,0-.9,1,2.38,2.38,0,0,0-.3,1.2l-1.3.5-2.4-.6-2.1-.9.2-1.9c.7-.5,1.3-.6,1.8-1.3a3.55,3.55,0,0,0,.8-2c.2-1.3.3-2,.4-3.3s0-2.2,0-3.5a2.84,2.84,0,0,0-.4-1.2c-.2-.4-.3-.7-.5-1.1-.6-.9-.2-4.6-.3-6.6a5.07,5.07,0,0,0-.2-1.3l-.7.2a3.67,3.67,0,0,1-2.3-.1c-1.6-.5-2.1-.8-2.7-.7a3.46,3.46,0,0,1-1.8-.2c-1.6,1.6-2.1,1.8-3.7,3.4-.6.5-.8.8-.7,1.3.4,1.9,1.9,2.1,3,3.4.6.7,1.7,1.2,1.2,2-.4.6-1.2.5-1.3,1.2a1.47,1.47,0,0,0,.5,1.4l-.1,1.7-1.2,2.2-1.2,1.2-1.8-.7a17.28,17.28,0,0,0-2.1-7.4,44.87,44.87,0,0,0-2.9-4.5c-1.7-2.9-.8-2.9.6-5.1,1.1-1.8,2.3-2.4,3.7-4-.7-1.2-1-2.4-2.2-2.8-.6-.2-1.6-2.4-2.7-6a4.67,4.67,0,0,1,.1-1.6,4.87,4.87,0,0,0,.3-.7l-4-1.8c.4-.3.8-.5,1.2-.8-.5.1-.8-.1-1.4,0s-.7.2-1.2.3a4.13,4.13,0,0,1-1.9-.2,9,9,0,0,1-2.3-.8c-1.1-.5-1.6-1.1-2.7-1.6a23.39,23.39,0,0,0-3.8-.9,5.11,5.11,0,0,1-2.4-.2c-.5-.2-.6-.9-1-1.5-.2-.4-1.2-2.1-1.5-2.7-.2-.4-.2-.7-.4-1.1.5-.3.7-1.1,1.4-1.3.4-.1.7,0,1.1-.1s.4-.2.7-.3a8.9,8.9,0,0,0,2-1.9,18,18,0,0,0,2-1.9,6.57,6.57,0,0,0,1.2-1.7c.3-.7,0-1.3.5-1.9.3-.4.7-.5,1.1-.8a11.86,11.86,0,0,0,2.3-1.6,10.7,10.7,0,0,0,1.4-1.6c.4-.2,1.1-.5,1.1-.5a18.39,18.39,0,0,1,5.6,1.7,30.53,30.53,0,0,1,4.1,2.3,5.83,5.83,0,0,1,1.5-1.1,6,6,0,0,1,2.3-.6,5.44,5.44,0,0,1,1.8,0,4.37,4.37,0,0,1,1.7.8,22,22,0,0,0-1.4,1.8c-.6.7-.5,1.3-1,1.9a4.32,4.32,0,0,1-2.7,1.9l4,1.3s3.6-.1,7.2-.3c6.9-.6,6.9-1.6,11.5-2,2.5-.2,6.6.7,10.8.6,3.6-.1,5.6-.4,9.2-.8s5.8-1.2,9.5-1.4a53.42,53.42,0,0,1,8,.1c3,.2,4.9.1,7.7,1.1,1.8.6,3.6,1,5.1,2.7a4.92,4.92,0,0,1,1,1.5,7.59,7.59,0,0,1,.6,1.8,13.66,13.66,0,0,1,.2,1.9,5.31,5.31,0,0,1-.6,2.7c-1.4,3-2.2,3.4-4.4,4.6A.63.63,0,0,1,406.9,387.6Z" style="fill:#e20025"/><path d="M408.4,388.1l-1.4.5c-1.6.8-2.9.8-4.9.9-4.9.4-8-2-13.1-1.6-2.6.2-3.8,2.2-6.5,2.9a16.45,16.45,0,0,1-3.2.5l1-1.9a24.88,24.88,0,0,1-3.9.5,26.35,26.35,0,0,1-2.8-.2l1.9-1.8a11,11,0,0,1-2.4-.6,5.93,5.93,0,0,1-2-1.2c1.2-.2,1.9-.4,3.2-.7,2.9-.7,3.8-2.1,7.3-2.5,2.1-.2,5.7-.1,14.3,1.3,5.7.9,8.2.5,10.3-.5a3.81,3.81,0,0,0,2.1-3.3c.2-1.4-.8-2.6-1.6-3.4a3.36,3.36,0,0,0-2.1-.7" style="fill:none;stroke:#ffea0f;stroke-linecap:round;stroke-miterlimit:3.8636999130249023;stroke-width:1.8422000408172607px"/><path d="M326.3,371.4a3.57,3.57,0,0,0-2.5.5c-.9.6-1,1.3-1.7,2.1.8.2,1.3.7,2.1.5a2.63,2.63,0,0,0,1.4-.9,3,3,0,0,0,.8-2.2Z" style="fill:#ffea0f"/><path d="M326.3,371.4a3.57,3.57,0,0,0-2.5.5c-.9.6-1,1.3-1.7,2.1.8.2,1.3.7,2.1.5a2.63,2.63,0,0,0,1.4-.9,3,3,0,0,0,.8-2.2Z" style="fill:none;stroke:#ffea0f;stroke-miterlimit:3.863600015640259;stroke-width:0.957099974155426px"/><path d="M347.3,392.9s.5.9.8,1.5a12.47,12.47,0,0,1,1,2.7,25.79,25.79,0,0,1,.4,3.9c0,.3.1.5.1.7l-.1,2.1" style="fill:none;stroke:#ffea0f;stroke-linecap:round;stroke-miterlimit:3.8636999130249023;stroke-width:1.8422000408172607px"/><path d="M362.2,394s-.4,1.5-.7,2.5c-.7,2.5-1.3,3.9-1.8,6.5-.1.4-.1.8-.2,1.2" style="fill:none;stroke:#ffea0f;stroke-linecap:round;stroke-miterlimit:3.8636999130249023;stroke-width:1.8422000408172607px"/><path d="M328.5,387.6l4.2,1.9a17.62,17.62,0,0,0,6.5-7.3,25.47,25.47,0,0,0,2.5-8l-3.3-1.1-.7.1c-1,3.2-1.3,5.1-3,7.8a23.5,23.5,0,0,1-4.9,5.7Z" style="fill:#0065bd"/><polygon points="328.6 387.6 328.6 386.8 329.7 386.8 330.6 387.3 328.6 387.6" style="fill:#e20025"/><path d="M337.7,421.4c.7-.9,1-1.5,1.7-2.4a24.05,24.05,0,0,1,2.4-2.1,2.77,2.77,0,0,1,.9.1c-.1,1-.1,1.8-.3,2.9a19.48,19.48,0,0,1-.6,2.3,9.62,9.62,0,0,1-.7,1.8,8.12,8.12,0,0,1-.9,1C339.2,423.6,337.7,422.5,337.7,421.4Z" style="fill:#0065bd"/><path d="M399.3,424.8a21.52,21.52,0,0,1,2.7,1,25.34,25.34,0,0,1,2.7,1.8,1.41,1.41,0,0,1,.1.9,21.76,21.76,0,0,1-2.9.5,8.85,8.85,0,0,1-2.3,0,6.8,6.8,0,0,1-2-.2c-.5-.2-.7-.4-1.2-.6C397.7,426.9,398.2,425.1,399.3,424.8Z" style="fill:#0065bd"/><path d="M381.1,421a21.52,21.52,0,0,1,2.7,1,25.34,25.34,0,0,1,2.7,1.8,1.41,1.41,0,0,1,.1.9,21.76,21.76,0,0,1-2.9.5,8.85,8.85,0,0,1-2.3,0,6.8,6.8,0,0,1-2-.2c-.5-.2-.7-.4-1.2-.6C379.5,423.1,380,421.3,381.1,421Z" style="fill:#0065bd"/><path d="M348.7,425a21.52,21.52,0,0,1,2.7,1,25.34,25.34,0,0,1,2.7,1.8c0,.3.2.6.1.9a21.76,21.76,0,0,1-2.9.5,8.85,8.85,0,0,1-2.3,0,6.8,6.8,0,0,1-2-.2c-.5-.2-.7-.4-1.2-.6C347.1,427.1,347.6,425.3,348.7,425Z" style="fill:#0065bd"/><path d="M332,369.4c-1.1-.5-2-1.9-1.2-3,.3-.4.8-.3,1.1-.7s.3-.9.3-1.6a11.63,11.63,0,0,0-.4-1.8,13.8,13.8,0,0,1-.3-2c0-1.2-.1-2,.6-2.9a3.09,3.09,0,0,1,1.5-1.1c.3.3-.1.9-.1,1.5a8.74,8.74,0,0,0,.5,2.2c.4,1.1.9,1.5,1.3,2.5a8.09,8.09,0,0,1,.8,2.5,4.13,4.13,0,0,1-.4,2.2,4.57,4.57,0,0,1-1.1,1.6,4.35,4.35,0,0,1-1.5.8A2.15,2.15,0,0,1,332,369.4Z" style="fill:#0065bd"/><path d="M337.3,400.8a7,7,0,0,0,3,2.1" style="fill:none;stroke:#e20025;stroke-linecap:round;stroke-miterlimit:3.8636999130249023;stroke-width:1.8422000408172607px"/><path d="M339.3,396.8c1.5.3,1,6.3,3.3,7.6" style="fill:none;stroke:#ffea0f;stroke-linecap:round;stroke-miterlimit:3.8636999130249023;stroke-width:1.8422000408172607px"/><path d="M392.2,407.2l.7-.5a15.56,15.56,0,0,0,5-3.3" style="fill:none;stroke:#ffea0f;stroke-miterlimit:3.8636999130249023;stroke-width:1.8422000408172607px"/><path d="M377.8,403.9h0c6.6-1.7,11-4.9,14.2-5.4" style="fill:none;stroke:#ffea0f;stroke-linecap:round;stroke-miterlimit:3.8636999130249023;stroke-width:1.8422000408172607px"/><path d="M384.5,395.7c.6,0,1.1-.1,1.5-.1,2.7-.4,3.2,1.3,5.1,2.3,3.5,1.9,3.9,4.3,8,6.3l.6.3,1.6.8" style="fill:none;stroke:#ffea0f;stroke-linecap:round;stroke-miterlimit:3.8636999130249023;stroke-width:1.8422000408172607px"/><path d="M382.6,395.8l2.8,2.8,4.4-.5s-.9-.9-1.5-1.4c-.3-.2-.4-.4-.8-.5s-.4,0-.7-.1a4.87,4.87,0,0,1-1.2-.1c-.7,0-1-.1-1.7-.1a4.48,4.48,0,0,1-1.2-.1Z" style="fill:#e20025"/><path d="M405.7,377.7c-.2-.4-.5-.5-.9-.7a6,6,0,0,0-2-.5l-.5,3.3,3.6-.9A3.23,3.23,0,0,0,405.7,377.7Z" style="fill:#e20025"/><path d="M396.1,391.7l.8-1.8a11.63,11.63,0,0,1-1.8-.4,16,16,0,0,0-2.1-.5,18.46,18.46,0,0,0-2.3-.4,7.49,7.49,0,0,0-2.1-.2,4.42,4.42,0,0,0-1.6.6c-.7.4-1.1.7-1.8,1.1a9.06,9.06,0,0,1-2.2,1.1,16.56,16.56,0,0,1-2.1.6,25.34,25.34,0,0,1-3.8.7l4.2,1.6Z" style="fill:#e20025"/><path d="M377.5,392.7l1.8-2.9a28.54,28.54,0,0,1-3,.5,36.15,36.15,0,0,1-5.7,0l.5,3.2,3.6,1.6Z" style="fill:#e20025"/><path d="M313,378.8a5.7,5.7,0,0,0,1.3.1c.6-.1.9-.4,1.5-.5s.9-.1,1.3.2a1.33,1.33,0,0,1,.5.6,1,1,0,0,1,.2.9,1.08,1.08,0,0,1-1.1.8,1,1,0,0,1-1-.5c-.1-.3-.2-.5-.1-.7a1.71,1.71,0,0,1-1.4,0A2.15,2.15,0,0,1,313,378.8Z" style="fill:#ffea0f"/><path d="M313,378.8a5.7,5.7,0,0,0,1.3.1c.6-.1.9-.4,1.5-.5s.9-.1,1.3.2a1.33,1.33,0,0,1,.5.6,1,1,0,0,1,.2.9,1.08,1.08,0,0,1-1.1.8,1,1,0,0,1-1-.5c-.1-.3-.2-.5-.1-.7a1.71,1.71,0,0,1-1.4,0A2.15,2.15,0,0,1,313,378.8Z" style="fill:none;stroke:#ffea0f;stroke-miterlimit:3.863600015640259;stroke-width:0.957099974155426px"/><path d="M117.5,399.8a37.28,37.28,0,0,0,4,12.3c2.8,4.4,1.7,4.2,8,11.2,3.1,3.4,7.9,6.4,11.6,8.4s6.6,3,12.8,4.7c12.2,3.2,20.7,3.4,30.9,3a170.93,170.93,0,0,0,19.1-2c7.2-1,12.6-1.5,20.8-1.9a110.26,110.26,0,0,1,11.5,0,82.33,82.33,0,0,1,13.6,1.9,146.56,146.56,0,0,1,20.5,5.9V283.4H116.9V392.7S117.3,398.1,117.5,399.8Z" style="fill:#ffea0f"/><path d="M117.5,399.8a37.28,37.28,0,0,0,4,12.3c2.8,4.4,1.7,4.2,8,11.2,3.1,3.4,7.9,6.4,11.6,8.4s6.6,3,12.8,4.7c12.2,3.2,20.7,3.4,30.9,3a170.93,170.93,0,0,0,19.1-2c7.2-1,12.6-1.5,20.8-1.9a110.26,110.26,0,0,1,11.5,0,82.33,82.33,0,0,1,13.6,1.9,146.56,146.56,0,0,1,20.5,5.9V283.4H116.9V392.7S117.3,398.1,117.5,399.8Z" style="fill:none;stroke:#703d29;stroke-miterlimit:3.863600015640259;stroke-width:1.4886000156402588px"/><path d="M135.3,426.3a78.48,78.48,0,0,0,7.2,4.2c3.7,2,5.4,2.2,9.9,3.8v-150h-17v142Z" style="fill:#e20025"/><path d="M135.3,426.3a78.48,78.48,0,0,0,7.2,4.2c3.7,2,5.4,2.2,9.9,3.8v-150h-17v142Z" style="fill:none;stroke:#e20025;stroke-miterlimit:3.863600015640259;stroke-width:0.957099974155426px"/><path d="M220.6,434.8V284.4H203.5V436.2S215.2,435.2,220.6,434.8Z" style="fill:#e20025"/><path d="M220.6,434.8V284.4H203.5V436.2S215.2,435.2,220.6,434.8Z" style="fill:none;stroke:#e20025;stroke-miterlimit:3.863600015640259;stroke-width:0.957099974155426px"/><path d="M254.6,284.4h-17V434.2a106.64,106.64,0,0,1,17,3Z" style="fill:#e20025"/><path d="M254.6,284.4h-17V434.2a106.64,106.64,0,0,1,17,3Z" style="fill:none;stroke:#e20025;stroke-miterlimit:3.863600015640259;stroke-width:0.957099974155426px"/><path d="M504.9,162.1c13.8-.3,53.9,10.5,54.2,57.6.3,46.5-28.7,54.1-40.3,57.2" style="fill:none;stroke:#703d29;stroke-miterlimit:3.863600015640259;stroke-width:1.8604999780654907px"/><path d="M508.5,162.1c23.8-1,48.3,16.5,49.4,60.2.8,34.1-23.4,49.6-35,52.7" style="fill:none;stroke:#703d29;stroke-miterlimit:3.863600015640259;stroke-width:1.9350999593734741px"/><rect x="308.7" y="114.2" width="21.9" height="150.7" style="fill:#e20025"/><rect x="308.7" y="114.2" width="21.9" height="150.7" style="fill:none;stroke:#e20025;stroke-miterlimit:3.863600015640259;stroke-width:0.957099974155426px"/><rect x="352.5" y="114.2" width="21.9" height="150.7" style="fill:#e20025"/><rect x="352.5" y="114.2" width="21.9" height="150.7" style="fill:none;stroke:#e20025;stroke-miterlimit:3.863600015640259;stroke-width:0.957099974155426px"/><rect x="396.3" y="114.2" width="21.9" height="150.7" style="fill:#e20025"/><rect x="396.3" y="114.2" width="21.9" height="150.7" style="fill:none;stroke:#e20025;stroke-miterlimit:3.863600015640259;stroke-width:0.957099974155426px"/><path d="M186.5,284.4V438.2c-.2,0-11.4.3-17.1-.3V284.4Z" style="fill:#e20025"/><path d="M186.5,284.4V438.2c-.2,0-11.4.3-17.1-.3V284.4Z" style="fill:none;stroke:#e20025;stroke-miterlimit:3.863600015640259;stroke-width:0.957099974155426px"/></svg>