<svg xmlns="http://www.w3.org/2000/svg" xmlns:xlink="http://www.w3.org/1999/xlink" viewBox="0 0 433.84 502.06"><defs><linearGradient id="a" x1="180.35" y1="167.67" x2="257.66" y2="167.67" gradientTransform="matrix(1, 0, 0, -1, 0, 504)" gradientUnits="userSpaceOnUse"><stop offset="0" stop-color="#ffff8c"/><stop offset="0.03" stop-color="#ffff92"/><stop offset="0.19" stop-color="#fefdb0"/><stop offset="0.35" stop-color="#fefcc8"/><stop offset="0.53" stop-color="#fdfcd9"/><stop offset="0.72" stop-color="#fdfbe3"/><stop offset="0.97" stop-color="#fdfbe6"/></linearGradient><radialGradient id="b" cx="236.97" cy="425.83" r="16.68" gradientTransform="matrix(1.05, 0, 0, -1.05, 11.46, 519.87)" gradientUnits="userSpaceOnUse"><stop offset="0.01" stop-color="#71190b"/><stop offset="0.07" stop-color="#871509"/><stop offset="0.19" stop-color="#a90f06"/><stop offset="0.31" stop-color="#c50904"/><stop offset="0.45" stop-color="#db0502"/><stop offset="0.59" stop-color="#eb0201"/><stop offset="0.76" stop-color="#f40100"/><stop offset="1" stop-color="#f70000"/></radialGradient><radialGradient id="c" cx="155.4" cy="419.83" r="10.54" xlink:href="#b"/><radialGradient id="d" cx="231.02" cy="457.64" r="11.56" xlink:href="#b"/><radialGradient id="e" cx="163.8" cy="456.88" r="7.87" xlink:href="#b"/><linearGradient id="f" x1="191.56" y1="326.83" x2="263.85" y2="308.15" gradientTransform="matrix(1, 0, 0, -1, 0, 504)" gradientUnits="userSpaceOnUse"><stop offset="0" stop-color="#ffe000"/><stop offset="0.08" stop-color="#bddfd6"/><stop offset="0.26" stop-color="#c6f7ff"/><stop offset="0.97" stop-color="#fdfbe6"/></linearGradient><linearGradient id="g" x1="169.71" y1="359.13" x2="251.52" y2="359.13" gradientTransform="matrix(1, 0, 0, -1, 0, 504)" gradientUnits="userSpaceOnUse"><stop offset="0" stop-color="#bddfd6"/><stop offset="0.22" stop-color="#c6f7ff"/><stop offset="0.97" stop-color="#fdfbe6"/></linearGradient><linearGradient id="h" x1="171.04" y1="367.94" x2="190.89" y2="376.36" gradientTransform="matrix(1, 0, 0, -1, 0, 504)" gradientUnits="userSpaceOnUse"><stop offset="0" stop-color="#a52410"/><stop offset="1" stop-color="#420e06"/></linearGradient></defs><title>Antigua_and_Barbuda</title><path d="M128.8,196.77c9.15-3.59,15.27-11.65,24.68-6,7.29,4.37,5.82,12.09,7.93,19.64.62,2.22,3.59,7.51,1.73,9.51-2.82,3-5.36-1-6.68-2.87-4.23-6-6.81-9.88-14.43-11.4-3.35-.67-2.71-.79-6,.74a63.11,63.11,0,0,0-7.85,4.8c-10.3,6.8-20.27,13.3-32.36,16.83-7.84,2.29-9.4-3.95-7.75-10.25a22.09,22.09,0,0,1,4.27-8.82A9.64,9.64,0,0,1,95,206.41c.9-.44,4.49-.48,5.65-.69,3.11-.54,6.44-1.5,9.52-2.35A194.21,194.21,0,0,0,128.8,196.77Z" style="fill:#6b2808;stroke:#000;stroke-width:1.2021000385284424px"/><path d="M287,203.88c-2.29,4.37.55,11.12-1.67,14.82-2.35,3.92-8.79,1.68-11.42-.82-5.8-5.52.88-14.94,2.32-21.27,1.16-5.07,3.13-5.43,8.26-7.93,8.23-4,13.49-7,21.79-2.26S323,196.82,331.4,201c2.81,1.4,8.28,1.29,9.23,4.76.84,3.06-4.55,9.46-5.36,12.66-.7,2.75-.57,5.47-1.42,8.15-9.86,1.11-14.32-11.47-20.36-16.85-2.4-2.13-6-4.8-9.06-5.87C299,201.92,293,206,287,203.88Z" style="fill:#6b2808;stroke:#000;stroke-width:1.2021000385284424px"/><path d="M235.89,197.22c.19,6.08-1.33,9.75,5.41,12.61,9.34,4,19.82-9.21,23.33-16.81,4.34-9.4.5-19.28-8.89-23.87-6.38-3.12-16.2-2.43-22.75-.34-5.37,1.72-11.37,7.5-7.82,13.37C229.06,188.59,235.59,187.73,235.89,197.22Z" style="fill:#bd3010;stroke:#000;stroke-width:1.2021000385284424px"/><path d="M73.08,388.63c1.12-1.2.71-2.67.83-4.37,1.11.2,2.3.82,3.49,1.1-.12-1,2.33-5.36,3.26-5.6,1.75-.45,4,3.25,5.13,4-.1-.54.21-1.35.14-1.92a3.87,3.87,0,0,0,2-1.2c.85.2,2.22,0,3.05.29-.44-.95,0-1.77-.22-2.69,3.71-.13,4.07-.59,7.08.7,1.05-4.43,3.61-1.3,6.43-2.83,0-2.82,2-5.51,1.65-8.24.7,1.95,1.19,4.25,2.73,5.48,1.21-2.48,3.83,1.14,5-2.31,1.15-.11,2.38-.08,3.54-.15-.31-.53-.14-1-.31-1.46.49,1.46,11.17-2.91,11.94-3.68,1.14-1.14,1.13-2.73,2.85-3.2,1.14,1.61,1.36,2.94,3.22,3.15.13,0,5.21-2.48,6-2.74,4-1.3,9.08-3.09,13.17-3.54.05.24.11.48.16.73.63-2.17,1.51-1.8,2.81-2,.13,0,1.18,1.19,1.84,1.16.33,0,1.55-1.36,2.11-1.53,7.43-2.37,16,.64,23.68,1.12,10.87.69,21.88-.69,32.77-.73s21,1.07,31.73-.33c3.85-.5,8.16.34,12,.84s4.8.5,6.11,3.85c1.54-.76,2.46-2.31,3.61-3.47.18.57,1,1.26,1.27,1.86,1.67-.44,3.11-1.73,4.67-2.18a7,7,0,0,1,2.06-.57c.76,0,1.6,1.21,2,1.16,1-.14,2-1.88,2.38-1.89,1.53,0,2.8,1.86,3.73,3a12.67,12.67,0,0,1,4.16-3c-.38,1.68-.6,4,.22,5.42,1.61-1.46,5.11-1.68,6,.47,1,.21,2.87-.61,3.57-.37,1.67.58,2.06,2.92,3.6,3.8,3.13,1.79,8.43.46,11.74.33,4.53-.16,7.73,1.34,12,2,3.52.5,5.61-1.08,8.85-1.58,1.3-.21,3.88-.23,5.08.44s1,.91,1.65,1.51c.17.14,0,1,.36,1.3.68.71,1.7.64,2.44,1.18,1.51,1.11,2.75,2.76,4.35,3.48.35-1,.93-.87,1.59-1.51,1.81,3.71,11.25-.48,14.14-1.11-4,3.33,1.17,2.91,1.93,3.92.89,1.2-.75,2-.09,3.14.87,1.47,2.91,1.6,4.46,2a4.77,4.77,0,0,0-.72.8,60.65,60.65,0,0,1,8,3.68c1.59,1,5.65,1.76,6.77,3.11.91,1.11,1,2.55,1.66,4,1.11,2.42,2.23,2.37,1.52,5.16-2.94,11.75-22,12.6-30.85,13.17-24.84,1.62-49.9,0-73.75,8-6.13,2.05-12.17,4.36-18.71,4.83-11.18.8-22.72-1.33-33.84-2.34-8.43-.76-16.78-2.18-25.24-2.71-7.91-.49-15.52.77-23.37,1.42-9.83.82-20.12,2.91-30,1.58-9.57-1.29-19.2-3.83-28.83-4.8-15-1.51-29.95,2.42-44.95,1.75-10.36-.46-24.21-5-32.41-11.65-2.91-2.35-1.51-6.71-1.19-10.39A2.6,2.6,0,0,1,50.11,399a20.21,20.21,0,0,1,1.28-3.56c3.38,2.35,7-2.15,10.13-3.1C65.26,391.21,70.19,391.75,73.08,388.63Z" style="fill:#94d342;stroke:#000;stroke-width:1.2021000385284424px"/><path d="M86.29,406.62a4.81,4.81,0,0,0-1.89-4c1.45.26,2.88.93,4.24,1.2a4.23,4.23,0,0,1,.55-2.72c.18.19.84.54,1.11.8A6.35,6.35,0,0,0,92,398.63c.35.37,1.45.73,1.83,1.14.14-.54.73-1,.88-1.53.28.22.87.33,1.22.66a11.1,11.1,0,0,0,2.69-5.77,16.41,16.41,0,0,0,2,3,8.83,8.83,0,0,1,1.61-2.26c0,.65.46,1.2.54,1.85a14.13,14.13,0,0,0,4-3.76,3.54,3.54,0,0,0,1.09,3.05c.15-1,.91-1.39,1.19-1.94.56.83,1.18.74,1.64,1.13.23-1.17.38-2.35.52-3.54a4.71,4.71,0,0,1,1.94,2.38" style="fill:none;stroke:#000;stroke-width:0.6010000109672546px"/><path d="M141.23,381.8c.43-1.54,1-3,1.29-4.59,1.12,2.38,2.91,1,3.17-.9,1.74,1.33,3.39.74,3.52-1.28,2.82,2.24,4.6-.37,6.06-3.12.38,1.65,3,6.05,3.3,1.6a11.61,11.61,0,0,0,1.12,2.11,7.71,7.71,0,0,0,.76-4.92c1,1.7,2.17,3.45,2.08,5.47a36.11,36.11,0,0,1,3.56-.77" style="fill:none;stroke:#000;stroke-width:0.6010000109672546px"/><path d="M110.75,403c1.2-.24,2.39-.55,3.58-.76-.15.39-.12,1.17-.33,1.61a14.55,14.55,0,0,1,3.52.1c0,.45.14,1,.11,1.41,1.89-.16,1.62-2.32,3.18-3.2.9-.52,3.41,2.34,2.84-1.44.25.44.92.82,1.23,1.44,1.82-.23,2.43-2.64,4.27-3.41a7,7,0,0,1-.31,1,4.89,4.89,0,0,0,1.9.45c.4-1.81,1-3.62,1.26-5.44a33.12,33.12,0,0,1,1.72,4.66c.75-.82,1.58-.68,2.27-1.1-1,1.61-.12,2.39,1.59,1.57,0,.24-.19.65-.2.82,1.21-1.42,2.31-3.32,4.15-4.08.48,1.2,2,1.09,3.32.81" style="fill:none;stroke:#000;stroke-width:0.6010000109672546px"/><path d="M150.46,393a30.43,30.43,0,0,1,.8-4.3c.67,1,.85,2.41,1.61,3.49.14-.1,1.54-1.72,1.5-1.72-.37,0,1.88-.32,1.71-.28a26,26,0,0,1,4.35-.06c.11-1.64,1.23-1.82,2.48-1.16a16.25,16.25,0,0,0,1.27-5.06,13.11,13.11,0,0,1,1.41,3.77,21.32,21.32,0,0,1,1.66-2.18c0,.88.51,1.73.56,2.56.6-1.25,1.38-2.45,1.93-3.79a9.7,9.7,0,0,0,1.58,3.52" style="fill:none;stroke:#000;stroke-width:0.6010000109672546px"/><path d="M162.09,410.22c2,0,4,.09,6-.06-.56-1-.27-1.69,0-2.73,2.32,1,3,1.31,4.44.4,1.23-.79,2.36-3.33,2.9-4.84a16.53,16.53,0,0,1,2.23,3.91c.83-1.24,2.13-1.89,2.6-3.45,2.76,4,2.14.77,5-.38.2.68.85,1.06,1,1.91,1.17-.16,3.08-2,3.93-2s3.28,2.42,4.42,2.86" style="fill:none;stroke:#000;stroke-width:0.6010000109672546px"/><path d="M237.9,406.62a19.13,19.13,0,0,0,4.7,1.58c-.1-1.73-.82-3.61.5-5.2a49.56,49.56,0,0,0,3.93,3.61c.68-1.8.7-3.81,1.61-5.51a21.29,21.29,0,0,0,1,4.19c2.14-2.5,3.24,1,5.47-.35.07-.36.36-1,.37-1.11a10.35,10.35,0,0,0,.58,3.05c1.58-2,2.65-4.8,4.76-6.15,1,1.59-.23,4.24,0,6.23,1.22-.14,2.12-1,3.17-1.5.65,1.92,2.61,3.33,4.39,1.55" style="fill:none;stroke:#000;stroke-width:0.6010000109672546px"/><path d="M264.76,397c.23-1.23.56-2.39.88-3.6a20.4,20.4,0,0,1,1.93,2.51c1.11-3,4.86-.37,7.53-.82,4.89-.82,5-6.76,8-10.06.18.74.64.93.89,1.44.42-.45,1.21-.83,1.57-1.35a16.93,16.93,0,0,0,.11,9.42,8.88,8.88,0,0,1,3.46.1c.41,1.26.66,2.63,1.17,3.82,1.64-.73,2.06-2.64,3.65-3-.14,4.52,5,2.27,6-.3a4.48,4.48,0,0,1,.89,2.66" style="fill:none;stroke:#000;stroke-width:0.6010000109672546px"/><path d="M286.82,406.62c1.82,1,3-.79,3.18-2.39,2.34,1.73,3,1.18,5.17-.36.56,2.34,2.78,3.55,5.29,2.35" style="fill:none;stroke:#000;stroke-width:0.6010000109672546px"/><path d="M328.13,397.41c.63-1.1,1.37-2.13,2.09-3.17,2.8,2.6,2.24-.8,3.5-.79,1.7,0,3.12,2.33,4.45,3.41.5-2.08,1.77-3.77,2.48-5.84a13.32,13.32,0,0,0,3.92.38" style="fill:none;stroke:#000;stroke-width:0.6010000109672546px"/><path d="M342.57,399a1.92,1.92,0,0,1,2.75-.85,9.7,9.7,0,0,1,.41-3.53c.53.37,1.93.46,2.39.74-.17-.72.11-1.52-.18-2.32a18.26,18.26,0,0,1,2.3,1c.62-1.17,1.19-2.65,2.3-3.48.08,1.31.53,1.28,1,2.27a12.16,12.16,0,0,1,3.44-5c.22,2.27-.73,5.12.05,7,1.53-1,2.35-4.07,4-2.77" style="fill:none;stroke:#000;stroke-width:0.6010000109672546px"/><path d="M133.21,199H300.86s30.48,148.91-84.22,217C216.64,416,122.79,378.36,133.21,199Z"/><path d="M240.05,264.48c0,11.38-9.69,20.62-21.66,20.62s-21.65-9.23-21.65-20.62,9.69-20.62,21.65-20.62S240.05,253.09,240.05,264.48Z" style="fill:#fdda53"/><path d="M242.06,257.87a19.66,19.66,0,0,1,.37,5.45c9.21-2.19,15.89-10.07,25.58-11.85-8.17-4.68-17.92,7.07-26.35,6" style="fill:#fdda53"/><path d="M181.61,257.51a24.6,24.6,0,0,0,8.82,2.49c4.09.45,5.08.33,4.76-4a43.74,43.74,0,0,1-6.05-.74c-3.71-.6-6.53-3.37-9.77-4.94-3.65-1.77-7.76-.67-11.27-2C173.61,250.44,176.67,254.85,181.61,257.51Z" style="fill:#fdda53"/><path d="M196.6,253.92a23.27,23.27,0,0,1,3-4.32c-1.7-1.45-5.47-4.55-5.84-4.84a20.17,20.17,0,0,0-4.87-2.67c-2.59-1.09-5.21-2.13-7.69-3.46-1.21-.65-2.33-1.47-3.52-2.14a9.93,9.93,0,0,1-3.17-2.25,19.49,19.49,0,0,0,4,5.68,26,26,0,0,0,6.11,4.21c2.61,1.2,4.46,3,6.65,4.8C192.79,250.14,194.71,252.62,196.6,253.92Z" style="fill:#fdda53"/><path d="M187.11,226.24a17.83,17.83,0,0,0-.5-2c-.22-.4-.45-.8-.7-1.19Zm6.82,5.21c-2.4-2.74-6.16-4.91-7.65-8.29.13.35.23.71.33,1.07,2.36,4.15,3.24,9,6.5,12.74,1.83,2.06,6.23,7.87,9,10.17a24.28,24.28,0,0,1,4.28-2.89C202.48,241.94,196.36,234.24,193.93,231.45Z" style="fill:#fdda53"/><path d="M208.5,243.28a24.61,24.61,0,0,1,5-1.47c-1.5-2.9-2.4-7.48-4.41-9.88-2.69-3.19-5.77-6.06-7.23-10.1a14.88,14.88,0,0,1-.68-5.92c-.37,5.76-.91,11.73,2.79,16.73A30.78,30.78,0,0,1,208.5,243.28Z" style="fill:#fdda53"/><path d="M218.12,241.38c.75,0,1.49,0,2.24.11-.09-4.64-1.55-9.88-1.4-14.26.16-4.63.93-9-1.69-13.12.93,1.47.26,6.25.11,8.05-.28,3.36-1.81,6.45-2.18,9.78a46.58,46.58,0,0,0,.3,9.57A25.23,25.23,0,0,1,218.12,241.38Z" style="fill:#fdda53"/><path d="M228.47,243.63c.7-2.42,1.63-5.09,2-7.32.6-3.26.66-6.46,1.64-9.68.39-1.31,3.26-9.61,4.26-9.52-3-.25-8.45,7.87-9.1,10.73a9.24,9.24,0,0,0-.19,1.29,30.89,30.89,0,0,1-.32,4.31c-.5,2.26-2.42,6.2-2.84,8.64A24.49,24.49,0,0,1,228.47,243.63Z" style="fill:#fdda53"/><path d="M235.11,248c1-1.51,1.9-3.54,2.77-4.79,1.24-1.77,2.38-3.61,3.47-5.37,2.69-4.32,5.47-9.44,5.53-14.71-.07,6-7.52,10.55-11.15,14.53-1.59,1.74-4.13,4.46-5.3,6.93A24.21,24.21,0,0,1,235.11,248Z" style="fill:#fdda53"/><path d="M250.48,242.65c-1.14,1.21-2.13,3.24-3.72,3.93s-3.83.05-5.62.43a43.67,43.67,0,0,0-4.51,2.59,23,23,0,0,1,3.41,5.12c2.77-2.66,8.31-4.83,10.87-7.25,3.23-3,4.65-7.88,8.37-10.35C255.87,237.69,252.83,240.13,250.48,242.65Z" style="fill:#fdda53"/><path d="M301.23,263.49c-8.59,1.62-20.73-1.36-28.91-3.44-6.51-1.65-12.33-6.14-19.05-6.19-8.71-.05-16.77,4.68-24.92,7s-14.83.58-22.59-2c-14.62-4.95-23.26-10.42-39.13-5.21-10.49,3.45-21.39,3.86-32.21,5.9,0,.24,0,.49.06.74,11.45,126,82.68,154.51,82.68,154.51,64.08-38,82.85-101.26,86.94-149.68.07-.86.13-1.69.19-2.54A16.72,16.72,0,0,1,301.23,263.49Z" style="fill:#4166b5"/><path d="M240.23,302.55c-20.7,6.73-41.41-9-62.37-4.82-7.12,1.4-12.53,4.87-20.05,5-5.35.08-11,.78-16.36.91q2.45,10.22,5.43,19.27a35.78,35.78,0,0,0,3.73-.24c7.27-1,14.43-2.61,21.64-3.93,14-2.55,26.32-1.83,40.67,0,7.68,1,14.67,1.89,22.43.94,7.46-.92,14.61-4.16,22.2-4.18,6.79,0,13.05,2.92,19.17,5.64l2,.9c3.78,1.64,7.85,3,11.82,4.65,2.33-6.14,4.31-12.29,6-18.4-9.59-3.82-18.88-9.22-28.86-10.58C257.27,296.3,249.95,299.38,240.23,302.55Zm15.89,33.18-.43,0c-9.32-.6-18.79,3.34-27.95,4.62s-16.67-.26-25.82-2.58c-10-2.53-20.23-2-30.24.11-3.41.73-11.65,1.53-14.19,3.93-3.53,3.33-1.19,5.36,1.24,10.17a164.75,164.75,0,0,0,26.15,38.23c2.72,2.93,26.81,27.87,32.27,24.62a167.88,167.88,0,0,0,65.65-70.32C274.67,340.37,265.34,336.43,256.12,335.73Zm45.11-72.24c-8.59,1.62-20.73-1.36-28.91-3.44-6.51-1.65-12.33-6.15-19.05-6.19-8.71-.05-16.77,4.68-24.91,7s-14.84.58-22.6-2c-14.62-4.95-23.26-10.42-39.13-5.21-10.49,3.45-21.39,3.86-32.21,5.9,0,.24,0,.5.06.74q.86,9.46,2.16,18.18a49.82,49.82,0,0,0,8.87.11c8.89-1,17.32-4.42,25.8-7.09,12.85-4,24.9,4.57,36.68,8.39,14.91,4.84,24.88-.73,38.68-6.18,18.5-7.3,27.37,7.76,44.33,9,.87.07,5.62.2,11,.24,1-6.12,1.66-12.1,2.14-17.87.08-.85.14-1.69.2-2.53A17.33,17.33,0,0,1,301.23,263.49Z" style="fill:#fff"/><path d="M167.55,352.46a16.2,16.2,0,0,0,6.29-.83,17,17,0,0,1,1.79,2,24,24,0,0,0,1.64-2,19.38,19.38,0,0,0,1.5,1.43c9.17-3.91,23.22,1.29,31.9-4.51,4.2,8.94,5.88,4,12.1,2.92,5.65-.94,19.34,5.9,22.63-1.2,3.24,1.73,7.34-.9,8.81,3.54,1.25-.18,2.44.05,3.74-.56.07.46.15.91.23,1.37.85-.22,2.81-.25,3.81-.37.29.63,0,1.31.21,2,3.4,0,7.4,2.55,10.49,3.16.93,8.62-15.6,23.21-21.41,29a172.72,172.72,0,0,1-34.12,26.37c-2.87,1.71-18-11.34-19.85-12.86-14.86-12.27-30.67-29-37.2-47.26,1.91,1,5.14.89,7.2.75C167.22,354.55,167.64,353.34,167.55,352.46Z" style="fill:#94d342"/><path d="M187.57,298.3s30.08-12.61,63.47,0L257.66,380H180.35Z" style="stroke:#000;stroke-width:1.2021000385284424px;fill:url(#a)"/><path d="M186.46,310.86s30.22-10.85,65.6,0" style="fill:none;stroke:#000;stroke-width:1.2021000385284424px"/><path d="M185.27,324.35s29.39-9.08,67.89,0" style="fill:none;stroke:#000;stroke-width:1.2021000385284424px"/><path d="M184.15,337s34.85-10.58,70.13,1.17" style="fill:none;stroke:#000;stroke-width:1.2021000385284424px"/><path d="M199.61,380V349.64s3-17,20.75-17c0,0,17.76.77,19.26,17V380" style="fill:none;stroke:#000;stroke-width:1.2021000385284424px"/><path d="M182.85,351.7s12.84-2.06,16.75-2.06" style="fill:none;stroke:#000;stroke-width:1.2021000385284424px"/><path d="M181.42,367.94s11.57-2.68,18.19-2.68" style="fill:none;stroke:#000;stroke-width:1.2021000385284424px"/><path d="M239.61,364.05s10.74.29,17,2.39" style="fill:none;stroke:#000;stroke-width:1.2021000385284424px"/><line x1="197.39" y1="308.1" x2="197.39" y2="321.84" style="fill:none;stroke:#000;stroke-width:1.2021000385284424px"/><line x1="207.06" y1="293.54" x2="207.06" y2="306.11" style="fill:none;stroke:#000;stroke-width:1.2021000385284424px"/><line x1="219.76" y1="306.05" x2="219.76" y2="320.32" style="fill:none;stroke:#000;stroke-width:1.2021000385284424px"/><line x1="232.17" y1="293.54" x2="232.17" y2="306.7" style="fill:none;stroke:#000;stroke-width:1.2021000385284424px"/><line x1="243.85" y1="308.7" x2="243.85" y2="322.47" style="fill:none;stroke:#000;stroke-width:1.2021000385284424px"/><line x1="206.52" y1="320.8" x2="206.52" y2="333.15" style="fill:none;stroke:#000;stroke-width:1.2021000385284424px"/><line x1="232.68" y1="320.99" x2="232.68" y2="333.47" style="fill:none;stroke:#000;stroke-width:1.2021000385284424px"/><line x1="193.77" y1="334.84" x2="193.77" y2="350.15" style="fill:none;stroke:#000;stroke-width:1.2021000385284424px"/><line x1="246.5" y1="335.95" x2="246.5" y2="350.46" style="fill:none;stroke:#000;stroke-width:1.2021000385284424px"/><path d="M207.73,380v-30s.3-10.21,12.33-10.21,10.83,9.9,10.83,9.9V380H207.73Z" style="fill:#ffff84;stroke:#000;stroke-width:1.2021000385284424px"/><line x1="191.17" y1="366.07" x2="191.17" y2="379.96" style="fill:none;stroke:#000;stroke-width:1.2021000385284424px"/><line x1="248.36" y1="364.74" x2="248.36" y2="379.96" style="fill:none;stroke:#000;stroke-width:1.2021000385284424px"/><line x1="199.61" y1="367.65" x2="207.73" y2="367.65" style="fill:none;stroke:#000;stroke-width:1.2021000385284424px"/><line x1="230.89" y1="367.95" x2="239.61" y2="367.95" style="fill:none;stroke:#000;stroke-width:1.2021000385284424px"/><line x1="199.61" y1="357.15" x2="207.73" y2="357.15" style="fill:none;stroke:#000;stroke-width:1.2021000385284424px"/><line x1="230.89" y1="358.64" x2="239.61" y2="358.64" style="fill:none;stroke:#000;stroke-width:1.2021000385284424px"/><line x1="200.26" y1="347.26" x2="207.73" y2="349.94" style="fill:none;stroke:#000;stroke-width:1.2021000385284424px"/><line x1="205.86" y1="338.17" x2="210.77" y2="343.07" style="fill:none;stroke:#000;stroke-width:1.2021000385284424px"/><line x1="215.2" y1="333.21" x2="216.87" y2="340.01" style="fill:none;stroke:#000;stroke-width:1.2021000385284424px"/><line x1="225.5" y1="332.85" x2="223.38" y2="340.03" style="fill:none;stroke:#000;stroke-width:1.2021000385284424px"/><line x1="229.63" y1="344.04" x2="235.92" y2="340.1" style="fill:none;stroke:#000;stroke-width:1.2021000385284424px"/><path d="M230.89,349.64h8.72s10.2,1,15.78,2.32" style="fill:none;stroke:#000;stroke-width:1.2021000385284424px"/><path d="M207.73,380h8.73v-30s8-12.86,14.07-3.88a12,12,0,0,0-14.77-5.65c-10.72,4.11-8,15.23-8,24.31Q207.73,372.34,207.73,380Z"/><path d="M133.21,199H300.86s30.48,148.91-84.22,217C216.64,416,122.79,378.36,133.21,199Z" style="fill:none;stroke:#000;stroke-width:2.404099941253662px"/><polygon points="312.5 181.25 312.5 378.2 319.71 382.2 319.71 174.44 312.5 181.25" style="fill:#73b642;stroke:#000;stroke-width:1.2021000385284424px"/><path d="M316.11,320.15c0-5.32-2-17.18-8.77-18.37,1.27,5.87,1.69,11.81,2.71,17.64,1.15,6.56,2.85,12.83,2.86,19.55" style="fill:#73b642;stroke:#000;stroke-width:1.2021000385284424px"/><path d="M314.9,309.34c1.12-3.07,5.79-14.42,10.31-13.33-4.93-1.18-5.9,36.77-5.9,39.76" style="fill:#73b642;stroke:#000;stroke-width:1.2021000385284424px"/><path d="M313.3,269.72a165.39,165.39,0,0,0-1.71-24.81,56.44,56.44,0,0,0-1.34-8.29c-.43-1.43-1.39-5.75-2.5-6.52,5.54,3.83,7.26,10.27,8.75,16.4,1.05,4.31,3,10,2.82,14.41" style="fill:#73b642;stroke:#000;stroke-width:1.2021000385284424px"/><path d="M318.11,252.1c-.26-7.66,2.19-18.26,6-24.78-4.28,1-8.32,6.82-9.6,10.77" style="fill:#73b642;stroke:#000;stroke-width:1.2021000385284424px"/><path d="M319.71,224.48c0-6.11-.61-11.5.46-17.74.45-2.61-.23-8.11,2.19-9.85-4.94,3.55-7.5,12.7-7.46,18.39" style="fill:#73b642;stroke:#000;stroke-width:1.2021000385284424px"/><path d="M317.71,282.92c-1.5-3.55-3.3-7-4.91-10.48-.86-1.86-4.2-4.91-4.24-6.7.25,9.7,3.63,19.1,4.34,28.79" style="fill:#73b642;stroke:#000;stroke-width:1.2021000385284424px"/><path d="M319.32,296.94a123.7,123.7,0,0,1,1.16-16.36c.69-4.9,3.06-9.33,3.17-14.44,0,.86-4.22,4.76-4.89,5.88a36.44,36.44,0,0,0-3.46,7.67,69.32,69.32,0,0,0-3.21,23.25" style="fill:#73b642;stroke:#000;stroke-width:1.2021000385284424px"/><path d="M268.38,380.2s20.85-2.41,34.89,0l18.45,5.61s27.67-26,52.94-32.83c0,0-32.71,6.23-47.73,21.22,0,0-21.26-32-34.09-41.23,0,0,15.26,24,28.14,45.28,0,0-27.74-12.85-45.38-11.65,0,0,20.16,2.91,24.17,8.52L326.13,379s16.84-29.22,31.28-51.64c0,0-41.94,48.76-34.89,51.64C301.45,370.39,267.25,380.73,268.38,380.2Z" style="fill:#73b642;stroke:#000;stroke-width:1.2021000385284424px"/><path d="M309.67,148.82a12.41,12.41,0,0,0-.63,5.62c.2,1.67,1.35,3.15,1.49,4.78.07.91-1.24,2.38-1.24,3.61,0,3.21,2.33,5,5.49,4.8-2,.14-3.48-1-5.4-1.26-2.47-.37-3.1.35-5.28,1.28-5.14,2.2-3.8,4.13-2.71,8.79a9.64,9.64,0,0,0,.69,2.31c.21.5,1.37.92,1.62,1.67.61,1.84-3.56,12.79,1.07,11.69,1.3,1.86.9,5.15,4.53,3.87,1.11-.4,1.62-2,2.59-2.58.78-.5,2-.07,2.63-.62,1.58-1.33,1.49-3.12,2-5,1.24,2.31-1.79,4.6-.33,7.07,1.23,2.08,4.52,2.76,5.85.54-1,1.67,3.24,1.54,3.83,1.26,2.46-1.2,1.34-3.21,1.87-5,.35-1.16-.69-.77.41-1.88.64-.65,2.61-.35,3.45-.69,2.27-.93,2.69-1.46,3.36-3.87.2-.72-.33-1.77.06-2.43s1.87-.38,2.38-1.06a6.31,6.31,0,0,0,1.16-4.11,37.82,37.82,0,0,0-.71-4.41,5.12,5.12,0,0,0-1.7-3.6c-.72-.82-2.2-.57-2.69-1.51s.19-1.66-.11-2.49c-.72-2-1.08-2.58-3.21-4-1.48-1-3.68-1.82-4.72-3.29a32.14,32.14,0,0,1-3.39-5.9c-.71-1.92.94-4.87-1.46-6.12-1.05-.54-5,1.4-4.79,1.66C313.85,145.64,310.73,146,309.67,148.82Z" style="fill:#f7ff73;stroke:#000;stroke-width:1.2021000385284424px"/><path d="M300,174c.88-3,3.76-3.83,6.59-3.3,1.6.3,2.7,1.32,4.14,1.87.86.32,1.74-.4,2.6.25a4.4,4.4,0,0,1,1.54,4.57c-.32.91-4.22,3.59-4.31,1.94.16,2.9-.34,4.85-3.27,5.46-1.28.27-5.85-.18-6.82-1.17-3.41,2.5-7.92-2.06-3.76-5.14C293.86,176.09,297.08,172.74,300,174Z" style="fill:#f7ff73;stroke:#000;stroke-width:1.2021000385284424px"/><path d="M325.16,165.59c-3,4.16,6.5,9,6.65,2.6,1.91,1.06,3.89.27,3.63-2.11,3.2,1.73,3.21-6-.84-6.12,2.16-5.24-3.19-5.66-6.55-4.08-.29.14-2.73-2-4.48-1a3.15,3.15,0,0,0-1.19,4.76C315.32,160.09,322,170,325.16,165.59Z" style="fill:#f7ff73;stroke:#000;stroke-width:1.2021000385284424px"/><path d="M324.23,176c-2.27-3.33-4.48-.94-7-.15-.78.25-1.7-1.08-2.71-.49-.74.43-1.83,4-.58,4.2-3.71-.72-5,4.08-2.76,6.49,1.77,1.86,2.23.15,4.13.66,1.6.44,1.54,2.62,4,2.13,2.28-.46,1.67-2.59,2.87-3.94,1.53-1.73,3.4-1.3,3.15-4.47C325.31,180,324.33,176.18,324.23,176Z" style="fill:#f7ff73;stroke:#000;stroke-width:1.2021000385284424px"/><path d="M311.67,163.34c.07-3.64-.37-6.79-4.7-6.46-1.95.15-5.84,1.68-4.65,4.29-3.08-.34-6.43,5.73-2.4,6.05-.76.85-1.35,3.29.13,4,1.83.83,4.08-2.32,4.93-3.5,1.47,1.61,2.59,2.26,4.72,1.06A5.88,5.88,0,0,0,312,166C312.48,164.5,311.66,164.06,311.67,163.34Z" style="fill:#f7ff73;stroke:#000;stroke-width:1.2021000385284424px"/><path d="M314.9,175.24c-.9-2.3-2.1-5.07,1.06-6-2.24-3.32-.11-6.48,3.75-6" style="fill:none;stroke:#000;stroke-width:1.2021000385284424px"/><path d="M323.73,175.64c2.36-.13,4-3,3.61-4.8" style="fill:none;stroke:#000;stroke-width:1.2021000385284424px"/><path d="M337,181.65c-1.51,2.23-4.94.85-6.1-1.14-2.35,1.07-3.36-.9-5.47-.8.21,3.23-3.75,4.31-3.09,7,.54,2.21,4.83,3.24,6.64,2.51" style="fill:none;stroke:#000;stroke-width:1.2021000385284424px"/><path d="M310.49,158.43c2.58,1.41,3.8-2.52,6.35-2.64,1.71-.08,5.08,1.71,4.08,3.84" style="fill:none;stroke:#000;stroke-width:1.2021000385284424px"/><path d="M329.34,160.83a2.31,2.31,0,0,0-1.17.07,3.9,3.9,0,0,0,0,1.88,4.85,4.85,0,0,0,1.55.06" style="fill:none;stroke:#000;stroke-width:1.2021000385284424px"/><path d="M331.75,174.84a1.94,1.94,0,0,0-.58,1.69c.76.52,1.34.26,2.18-.09" style="fill:none;stroke:#000;stroke-width:1.2021000385284424px"/><path d="M328.14,184.45c-.53.08-.8.36-.83.83a2.11,2.11,0,0,0,1.63.38" style="fill:none;stroke:#000;stroke-width:1.2021000385284424px"/><path d="M321.72,191.25a4,4,0,0,0-1.58.78c.19.69.22.65.8,1.1a.53.53,0,0,0,.38-.68" style="fill:none;stroke:#000;stroke-width:1.2021000385284424px"/><path d="M308.49,188.45c-.12.44,0,.73.38.87,2.33-.64.92-4.51-.78-1.67" style="fill:none;stroke:#000;stroke-width:1.2021000385284424px"/><path d="M304.47,176a2.49,2.49,0,0,0-1.32,1.25,1.81,1.81,0,0,0,2.52.35" style="fill:none;stroke:#000;stroke-width:1.2021000385284424px"/><path d="M317.71,180c-.89.67-1.4,1.27-1.14,2.34.71.29,1-.07,1.54-.34" style="fill:none;stroke:#000;stroke-width:1.2021000385284424px"/><path d="M320.51,169.24c-1.12.68-1.68,1.23-.7,2.24.54-.05.44-.46.7-.64" style="fill:none;stroke:#000;stroke-width:1.2021000385284424px"/><path d="M306.48,161.63a2.75,2.75,0,0,0-1.45,1.72c1.1.73,1.22.07,1.85-.51" style="fill:none;stroke:#000;stroke-width:1.2021000385284424px"/><path d="M313.3,159.63a6.06,6.06,0,0,0,.06,2c1.18,0,1.26-.64,1.55-1.56" style="fill:none;stroke:#000;stroke-width:1.2021000385284424px"/><path d="M320.11,150.82c-.36-.05.19,1.09-.51.46a11.88,11.88,0,0,1-.69-1.14,1.69,1.69,0,0,0-.76,1.42c1.81.07,3.6.33,4.8,1.67-4,5.92-12-1.32-6.46-5.61" style="fill:none;stroke:#000;stroke-width:1.2021000385284424px"/><path d="M371.21,281.34c-.39-1.14-.82-2.28-1.26-3.4C368,273,363.21,264.36,356.79,265c-3.23.34-8.68,6.49-10.81,8.62-3.46,3.45-7.28,7.47-9.63,11.76-2.62,4.77-1.5,12.73-1.7,18s.71,12.09-1.91,16.85a60.39,60.39,0,0,1-12.12,15.14c-3.22,2.82-2.48,4.9-2.37,8.67s-.53,7.67-.74,11.45a10.16,10.16,0,0,1,0,2.41c-.38,1.11-1.23.74-1.62,1.54-2,4.1-.29,8,0,12.46.15,2.27-.28,2.78,1.47,4.4,1.27,1.18,6.3,3.4,8,3.15.78-6,1.61-12.71,6-17.47-5.7-8.78,1-21,8.15-26.1,2.69-1.93,7.14-3.9,8.94-6.79,1.06-1.71.27-4.37.36-6.11.2-3.68.62-8.17,2.33-11.52,1.56-3.07,4.43-4,7.43-5.43C369.51,300.82,375.45,293.78,371.21,281.34Z" style="fill:#6b2808;stroke:#000;stroke-width:1.2021000385284424px"/><path d="M367.72,282.22c-1-4.19-4.18-7.07-7.69-9.54-4.85-3.42-9.83-3.23-14.05,1-3.46,3.45-7.28,7.47-9.63,11.76-3,5.51-2.5,16-1.92,22.07,3-4.57,3.9-10.75,7.54-15.5,2.32-3,6.45-6.15,10.53-6.11,5.77.05,7.45,5.77,7.56,10.58,0,1.15-1.23,7-.39,7.57,1.93,1.32,6.76-5.8,7.27-7.31a31.64,31.64,0,0,0,1-13.23A11.28,11.28,0,0,0,367.72,282.22Z" style="fill:#391810"/><path d="M331.62,338a26.63,26.63,0,0,1,1.51-2.9c2.16-3.55,5.6-5.85,7.91-9.16-2.82-.13-4.68,3.35-7.46,3.51.2-1.48,1.09-2.94.89-4.23-3.33,2.26-4.48,6.73-5.42,10.26-1.45,5.43-2.47,11.05-5,16.11a16.28,16.28,0,0,1-4.81,5.75c-1.62,1.39-3.5,2.61-3.67,5s1.36,5.8,1.52,8.4-.44,5.09,1.19,7.13c1.5,1.88,1.62,1.58,2.91.54,2.18-1.74,2.69-5.67,3.59-8.13,1.33-3.6,3.57-6.89,3.58-10.88C328.38,352.35,328.68,344.66,331.62,338Z" style="fill:#391810"/><path d="M285,345.14S317.5,378.76,317.5,386c0,0,4.41,5.2,9.63,0,0,0,24.06-5.21,48.93-5.21,0,0-25.27-4.4-48.12-1.6,0,0,2-42.43,4.81-50.84,0,0-10,20.41-11.62,50.44C321.11,378.76,303.47,355.94,285,345.14Z" style="fill:#73b642;stroke:#000;stroke-width:1.2021000385284424px"/><path d="M91.8,277.88c-5.16-3.56-2.81-7.41-4.54-12s-2.64-2.67-5.2.24c-4,4.58-8.62,8.54-12.36,13.4-3.87,5-5.91,14.7-4.43,20.85,1.81,7.58,11.83,6.63,18.15,9.86,4.79,2.44,6.34,5.6,7.85,10.65,1.25,4.16-.25,11.25,2.36,14.57,2.41,3.08,8.81,4.67,12.08,6.43,4.21,2.26,7.86,5.43,12,7.67,3.58,1.94,5.78,2.08,8.5,5.07s4,6.5,8.5,7.09c9,1.18,5.59-13.43,2.42-17.55-2.63-3.42-7.71-3.67-11.59-5.12-6.93-2.59-13.45-5.38-18.49-11.11-7.14-8.14-2-25.9-3.29-35.74C102.92,286,96.68,281.24,91.8,277.88Z" style="fill:#6b2808;stroke:#000;stroke-width:1.2021000385284424px"/><path d="M143.57,354.57c3.47-.07,4.16-.88,6.65,2.36,1.27,1.65,3.28,5.71,2.4,7.85-2.13,5.25-10.11,3.46-14.14,2.13-2.44-.8-9.23-4.27-9.81-7C127.84,356.11,140.12,354.66,143.57,354.57Z" style="fill:#841c18;stroke:#000;stroke-width:1.2021000385284424px"/><path d="M80.53,288c1.52-1.79,4.44,1.24,4.78-3,3.59-.26,15.63-.81,16.68,4.67-1-5.26-5.65-7.05-9.54-9.7-5.65-3.87-4.76-8.5-8-13.57-3.26,3-6.82,8.09-9.34,11.78-3.69,5.41-4.51,7.19-3.75,12.86.82,6.13-3.17,17.22,7,15.4C76.05,306.83,79.47,289.25,80.53,288Z" style="fill:#391810"/><path d="M122.52,350.34a7.39,7.39,0,0,1-5.93-3.44c1.67-1.91,1.22-4.54.57-6.71,3.86,1.73,4.26-1.17,7.15-1.29,2.31-.09,4.81,1.82,6.73,2.89,5,2.78,7.17,6.79,9.1,11.48-2.31-4-4.72-8.35-9.22-10s-10.4,0-6.83,5.78a6.11,6.11,0,0,1-1.59.09" style="fill:#391810"/><path d="M128.1,194.82l.1,201.75s-.9,8.71-7.82,1.8l1.2-200" style="fill:#fff363;stroke:#000;stroke-width:1.2021000385284424px"/><path d="M127.6,381.26c-.82,1.92-5.36,1.52-6.92.6" style="fill:none;stroke:#000;stroke-width:1.2021000385284424px"/><path d="M120.08,358.45c1.71,1.65,6,1.91,7.52,0" style="fill:none;stroke:#000;stroke-width:1.2021000385284424px"/><path d="M120.38,326c1.72,1.34,6.05,1.15,7.22-.91" style="fill:none;stroke:#000;stroke-width:1.2021000385284424px"/><path d="M121.28,294.8c1.56.61,5.07.93,6.62.3" style="fill:none;stroke:#000;stroke-width:1.2021000385284424px"/><path d="M121.43,200.77a5.87,5.87,0,0,0-.25-2.52c-.39-.79-1.24-1.27-1.78-2a23.73,23.73,0,0,1-3.09-5.07,33.93,33.93,0,0,0-3.15-6,33.92,33.92,0,0,0-2.7-3.15,16,16,0,0,1-1.28-1.6,9.86,9.86,0,0,1-1.05-1.41c1.12,1.63-.95,3.47-1.46,4.89a33.51,33.51,0,0,0-1.49,4.86c-.48,2.4,0,5.5-1.07,7.6-1.37-7.4-4.34-15.37-.48-22.5,3,.35,7.58,1.29,10,.37-1.08-5.56-1.93-7.24-7.73-7.68-5.45-.41-9,.39-12.39,4.75,2-5,2.6-8.44,7.58-10.15,3.77-1.29,8.55-.22,12.54-.81.57-10.43-10.58-14.06-16.06-21.78a88.53,88.53,0,0,0,13.76,9.25c3.08,1.73,8.11,1.74,10.37,4.13,3-7.77,1.23-19.33-2-26.61,5.43,6.26,10.32,12.56,10.31,20.8s-1.71,17.07-1.24,25.05c.7-2.27,3.89-5.43,6.51-5.37,2.4.06,4.05,2.86,6,5.1,5.07,5.86,6.19,8.38,6.18,16.48-.49-6.47-7.8-15-13.4-9.59a15,15,0,0,0-4,6.63,20.52,20.52,0,0,0-.68,3.75,23.36,23.36,0,0,1-.72,3.92c-.19.71-.4,1.47-.55,2.18a15,15,0,0,0-.46,3.33" style="fill:#73b642;stroke:#000;stroke-width:1.2021000385284424px"/><path d="M113.76,157c1.07,6.09,7.16,13.06,7.25,19a206.15,206.15,0,0,1,1.77-27.44" style="fill:none;stroke:#000;stroke-width:1.2021000385284424px"/><path d="M113.16,172.6c2,6.07,3.63,17.32,10.23,20.42" style="fill:none;stroke:#000;stroke-width:1.2021000385284424px"/><path d="M127,184a28.94,28.94,0,0,0,1.16-7.15c.12-1.3,0-2.67.19-4a5.48,5.48,0,0,1,.93-2.83" style="fill:none;stroke:#000;stroke-width:1.2021000385284424px"/><path d="M103.53,176.21c2.67.39,4.53,3.12,6,4.8" style="fill:none;stroke:#000;stroke-width:1.2021000385284424px"/><path d="M132.69,179.61c.2-1,1.06-1.68,1.48-2.59a11,11,0,0,0,.61-2.72,37.59,37.59,0,0,1,.94-4.14c.1-.36,1.27-3.92,1.9-3" style="fill:none;stroke:#000;stroke-width:1.2021000385284424px"/><path d="M348.43,171.27c.61-.06,1.5.12,2.18.1-8,3.49-11.75,17.69-17.27,24-5.19,6-8,9.9-8.42,18s-7.22,8.35-13.13,11.22c-1.58.76-7.54,4-5.73,6.71,1.66,2.44,8.82-1.47,11.07-1.72,3.87-.43,7.56-2.15,11.4-2.4,3.2-.2,5.14.59,8.18-1.26-3.26,2-6.78,1.65-10.52,2,2.63-.24,4.56,10.07,5.12,11.38.85,2,5.83,16.94,7.38,17.22-.81-.15-2,.34-2.87.23,2.56,7.19,6.39,10.12,12.43,14.42,2.66,1.89,5.17,4.65,7.34,6.64,1.69,1.54,4.95,5.19,7.14,5.78.2-3.28.09-6.66.09-10,0,4.54,1.29,8.37,1.64,12.67.41,4.72-2.31,9.42-1.05,14.16,4.15,15.61,18.69,25.64,19.86,42.66.37,5.31-.26,10.56-.6,15.75-.25,3.73-2.36,16.35.6,18.55,4.71-3.73,6-17.61,7.07-23.46,2.08-11-.22-20.23-3.49-30.7-4.17-13.38-10.34-26.25-9.58-40.66.48-9.46.08-16.18-9-21.15-11.15-6.07-26.74-19.09-20.46-32.41,1.42-3,2.87-6.29,2.89-9.61,0-4.44-3.31-7.9-3.49-12-.2-5.06,5-9.57,7.84-13.23a98.7,98.7,0,0,0,10.38-16.83c1.64-3.27,3.09-4.49,5.21-6.65,2.33-2.36,5.56-5.6,4.27-9.52-1.79-5.45-10.35-4.93-14.35-2.42-3.69,2.31-1.78,3.54-3.74,6.87C355,168.61,351.26,169.65,348.43,171.27Z" style="fill:#fff;stroke:#000;stroke-width:1.2021000385284424px"/><path d="M405.07,290.89c.4,3.82,2.21,7,3,10.68s-.58,4.43-2.54,8c-2.26,4.07-2.25,4.86-5.58.11a28.76,28.76,0,0,1-4.5-10.36c-1.35-5.88-1.07-10.92-.75-16.81.22-4-1.51-7.81-2.19-11.7C398.81,270.43,404.54,285.86,405.07,290.89Z" style="fill:#6b2808;stroke:#000;stroke-width:1.2021000385284424px"/><path d="M374.25,112.74c3.44,4.17,8.16,10.09,10.07,15,1,2.66,2.39,9.35-.19,11.57-4.7,4-10.23-5.89-10.48-9.87a108.75,108.75,0,0,1,.08-17.29Z" style="fill:#391810;stroke:#000;stroke-width:1.2021000385284424px"/><path d="M387.49,139.58c4.73-4.4,2.48-8.09,3-13.36s4.74-10.76,8.44-14.25c1.2-1.13,10.63-6.62,10.73-7.94.36-4.5-6.81-.48-8.82-.58-.81-4.66,2.69-10,4.51-14.22-5.85-.19-15.64,13.25-16.77,18.46-1.58-1.38-2.46-3.69-4.06-5.16-1.41-1.3-2.26,6.42-2.27,6.62-.32,3.17-1.4,6.2-1.77,9.33-.2,1.67,0,3.57-.48,5.14-1.59-1.16-1.94-3.67-4-3.81.18,0,3.2,13.91,3.68,15.24,1.45,4,4.86,8.84,9.08,4.53" style="fill:#6b2808;stroke:#000;stroke-width:1.2021000385284424px"/><path d="M392.69,261.56c2.64,7.09,5.1,14.33,5.86,21.9.65,6.49.78,15.5-1.33,21.73-1.12,3.32-3.75,6-4.54,9.52-1,4.5.19,9.28,2.43,13.22,1.62,2.85,4.12,5,4.49,8.31.42,3.66-2.09,8.35-3.39,12-1.57,4.45-3.45,9-3.82,13.67a93.72,93.72,0,0,0,.34,17.31c.35,3-.84,8.09-5.15,5.27-1.8,3.52-3.89,5.22-8.42,3.52,4.8.1,5.72,4.88,2.76,8.33-2.49,2.89-7.91,2.66-11.43,2.43-1.91-.13-5.81,0-7.45-1.13-2-1.4-1.26-1.54-.32-3.71a13.7,13.7,0,0,1,9.9-7.67c-1.51-5.67,2.61-5.13,6-7.62,3-2.23,4.15-7.69,5.3-11.1,2.47-7.37,4.27-15.19,3.88-23s-3.77-13.85-7.49-20.66c-3.57-6.5-7.78-14-10.33-20.81-1.56-4.16-4.58-11.22-3.69-16,.81-4.41,5.85-8.81,4.31-13.65-2.06-6.52-7.91-1.26-12-2.72-2.64-1-5-3.79-7.19-5.53-2.77-2.18-6.67-4.27-8.8-6.85a5.06,5.06,0,0,1,2.73,1.4c-.47-5.89-2.11-13.09-5.25-18.28-1.94-3.21-6-7.07-6.07-11-.09-4.19,7.08-4.74,10.16-7.35,2.59-2.18,4.31-5.68,6.77-7.58a2.06,2.06,0,0,1-.45,1.07c-2.67,3-4.51,2.21-8.31,1.78-4.09-.46-5.9,1.64-9.21,3.42-7.45,4-15.91,2.24-22.48,8.09-1.73,1.53-2.28,2.13-4.39,2.81-1.85.6-3-.08-4.32,2-1.81,2.92,2.48,9.48,4.32,11.83.89,1.13,7.81,4.05,7.56,4.72-.42,1.11-.74,2.24-1.1,3.46,12.57-4.57,11.3,20,2.79,21.58-2.82.52-3.88-2.75-5.32-4.73-.85-1.16-2-2.19-2.41-3.52-.21-.61,0-2.41-.3-2.9-1.3-1.92-2.7-.36-4.52-1.57-2.42-1.61-3.18-5.57-4.52-8a45.4,45.4,0,0,0-6.71-8.84c-2.41-2.63-4.88-5.46-4.4-8.9.8-5.68,5-14.55,10.92-16,7.3-1.8,14.82-3.09,21.48-6.75,6.12-3.37,10.77-8.05,15.5-13.09,2.58-2.75,6.45-4.22,8.76-7.28,2-2.58,3.31-6,5.19-8.74,1.74-2.54,4-4.59,5.72-7.2,1.32-2,2.1-4.58,3.6-6.52,2-2.57,4.52-3.27,6.36-6,.46-.68-.45-1,.37-1.92.53-.56,1.05-.2,1.6-.56,1.44-1,3.27-1.26,4.73-2.17-4.64,1.46-10.12,3.41-14.75,1.08-4-2-6.05-6.86-10.83-7.94-2.46-.56-9.7,1.63-9.64-2.49.08-5,12.16-.78,14.33-1.51-5.41-2.23-10.15,0-15.45-1-.19-2.45-.66-5.42,1.12-7.14,1.49-1.45,5.65-2.71,7.65-3.52,4.67-1.88,9.18-.35,13.71-1.6,6.11-1.7,9.5-4.41,16.36-3.69,3.37.35,7.5,2.15,10.47.22s4.34-6.89,6.28-9.79c.7,1.69,0,3.63,2.17,4,3.88.65,9.6-8.24,11.45-10.85,2.76-3.9,5.23-7.71,7.72-11.71,1.49-2.41,3.7-7.17,6.34-8.27.9,5.56-5.13,11.17-4.28,16.73,4.7-.78,9-7.16,13-9-2.32,5.54-7.39,10.15-10.81,15.11-1.62,2.34-3.52,7.57-6,9.11-1,.65-3.83.75-5.22,1.29a40.93,40.93,0,0,0-4.64,2c-2.2,1.17-5.3,2.48-6.46,4.73,9.58-1.8,15.82.61,23.19,7.13-1.41-.39-3.12,1.48-4.29,2.55a30.93,30.93,0,0,1-7.24,4.8,27.72,27.72,0,0,1-7.78,2.92c-3.43.51-6.24-1.42-9.53-2,5.92,3.07-.38,15.47-2.11,19.77-2.72,6.79-6.29,13-9.24,19.62A53,53,0,0,0,373,208.53c-1.23,15.09,5.58,28,13.56,40.13A64.1,64.1,0,0,1,392.69,261.56Z" style="fill:#732400;stroke:#000;stroke-width:1.2021000385284424px"/><path d="M346.18,223a3.92,3.92,0,0,0,3.07-.36c-.94,2.14-2.33,8.91-.26,9.74,1.61,2.68,2.4,5.69,4.73,7.79,0-.65.42-1.24.48-1.85,1.26,2.65,1.35,4.44,3.29,6.65,3.09,3.5,7.59,4.67,10.67,7.63-3.08-1.87-16.54-16.12-13.93-20.68-.16.29-.74,1-.78,1a35.72,35.72,0,0,0-1.36-16.76c-1.82,1.61-2.88,4.44-4.72,6" style="fill:#391810"/><path d="M349.39,153a4.11,4.11,0,0,0,3.58,0,5.69,5.69,0,0,0-.31,1.35c1.77.33,9.87,6.29,10.5,2.06,2.88-.59,7.58-1.31,7.84-5,1.41.39,3,.12,4.43.23-.59,4.38.75,5.86,3.85,9-1.18,1.37-.48,4.82,0,6.38,1.17,3.55,1,3.74-.75,6.56-2,3.14-1.6,7.51-2.72,11,0-.36,0-.69,0-1-4,1.35-3.77,8.26-5.86,11.14-.34-3.22-4.26-3.3-5.35-5.59s.79-4.86,2-6.82c3.22-5.09,8.69-4.39,10.34-11.08,3.12,1.39,1.63-4.58,1.32-5.86-.76-3-2.13-4-5.19-4.73a13.24,13.24,0,0,0,2-3.82c-1.45.75-2.54,2.58-4.15,3.57a13.29,13.29,0,0,1-8,1.82,17.75,17.75,0,0,1-8.38-3.35c-2.27-1.64-3.48-4.1-6-5.34,0-.88.51-.93,1.17-1.23" style="fill:#391810"/><path d="M363.43,141a4,4,0,0,0-2,2.73c4.33,1.38,10.29.92,14.76,1.63-.22-2-2.45-2.5-3.68-3.87-1-1.12-.21-2-1.89-3-3.06-1.78-5.41,1.42-7.61,2.91" style="fill:#391810"/><path d="M392.3,138.57c-2.32,1.72-5.79,3.79-5.15,7.17,1.57-.75,3,.35,3.84,1.61,1.34-4,7.1-5.46,10.92-4.77,4,.71,6,3.32,1.76,6,3-.7,8-3,9.84-5.54-4.46-2-8.12-4-13.21-4.8a23,23,0,0,0-6-.51c-1.3.16-3.27,1.53-3.2,1.22" style="fill:#391810"/><path d="M374.65,229.45c.33,12.25,11.15,22,14.37,33.33,1.18,4.14-.51,7.08.18,11.1a181.86,181.86,0,0,1,2,20,2.12,2.12,0,0,1,3.64.79c2.93-2.16-.48-16.23-.91-20-.62-5.38-1.65-11.38-4.5-16.1-2.7-4.51-5.2-8.7-7.84-13.43-2.42-4.33-5.66-8.25-6.91-13.3" style="fill:#391810"/><path d="M389.89,322.32c0,4.39.33,8.64,2.79,12.42.68,1,1.75,1.55,2.36,2.78.52,1.05.34,2.46,1,3.59,1.85-2.36,1.7-3.43.72-5.84-2.25-5.55-6.24-9.06-6-15.35" style="fill:#391810"/><path d="M301.66,258.67c2.69,6,8,.34,10.67-2.06-1.52,4.57-4,6.7-2.2,11.56-1-2.71-1.26-4.89-3.65-5.9-2-.83-5.28.85-4.82-3.2" style="fill:#391810"/><path d="M76.46,165.4c-3.44,8.48,10.61,13.38,15,19.54a1.86,1.86,0,0,0-1.06-.23c1.74,3.15,3.92,5.49,5.48,8.89,1.87,4.1,3.38,8.3,5.73,12.15,2.47,4.05,6.25,8,8.15,12.34,1.63,3.73-.2,7.16.94,10.84-4.75.32-11-4-14.29-6.1,2,1.91,4.25,3.66,7.05,3.9.44,6.92.38,14.1-2.16,20.33-3.26,8-9.66,14.87-12,22.89A16.41,16.41,0,0,1,93.7,268c-1.87.51-2.39,4.78-3.47,6-1.48,1.7-3.9,2.68-5.82,4a61.37,61.37,0,0,0-11.91,11C81.55,308.34,60,327,53,343.52c.22-11.77-.53-23.83,3-35.22,2.17-7,7.69-13.16,6.12-19.73,2.94.14,4.53,3.32,7.56,3.44-10.12-4-4.53-11.94.76-17.33,12.33-12.57,16.57-26,14.42-43.2-.42-3.31-1.5-4.39-2.37-7.19-2-6.5-1.58-14.34-2.39-21.1-1.25-10.36-5.43-12.77-10.9-21.19-2.72-4.19-4.22-9.82-2.2-14.65,2.48-5.91,4.64-1,9.47-3.15" style="fill:#fff;stroke:#000;stroke-width:1.2021000385284424px"/><path d="M57.81,143.18c-1.17-7.46,1.81-16.3,1.8-24.11-1.65,5.26-7.27,11.29-8.42,18.1-.35,2-2.12,7.19-.47,8.94C53,148.58,57.21,145,57.21,142" style="fill:#391810;stroke:#000;stroke-width:1.2021000385284424px"/><path d="M44.68,140.67c-.9-9.57-1-13.44-9.13-19.08-5.63-3.9-10.89-7.37-10.14-15,4.55.25,5.68,5.58,10.65,5.83.35-3.24-.93-6.3-.4-9.44,4.33.86,7.75,12.07,11.21,15.53,2.34,2.35,1.46,3.64,4.34,1.68,1.78-1.2,1-6.8,4.08-2.27,2.29,3.35-.14,15.16.09,19.26.17,2.9,3,11.5-2.81,11.88C47.9,149.41,48.57,141.84,44.68,140.67Z" style="fill:#6b2808;stroke:#000;stroke-width:1.2021000385284424px"/><path d="M43.38,276.48a2.25,2.25,0,0,0-2.06-.24c-3.76,6.4-6,11.68-7,19.32-1.11,9.29.08,18.33-1.73,27.57,2.5-2.21,6.81-5.19,8.21-8.23s.53-6.91.72-10.31c.24-4.28,2.28-7.49,3.06-11.27,1.19-5.76-1.17-12.28-1.23-18.05" style="fill:#6b2808;stroke:#000;stroke-width:1.2021000385284424px"/><path d="M23.71,141.38C26.34,145.32,34.9,145.07,39,147c1.33.63,3.15,2.47,4.51,2.73,1.94.39,6.18-.51,7.25-2.4,1.48-2.64-2.39-4.44-3.63-7.12-1.32-2.83-.14-6.09-1.27-8.7a8.25,8.25,0,0,0-2.91,5.44c-2.89-.46-4.77-2.91-6.75-4.85-2.46-2.41-6-4.4-8.42-7.1-1.65-1.82-4.17-7-5.61-3.23-.52,1.39,1.5,5.1,0,6-1.16.68-2.45-1-2.49-1.91-2.72-.19-5.08.17-7.25-1.56S9.13,120,6.95,118.59c-1.8,9.22,11,12.54,16,17C26.27,138.54,22.1,139,23.71,141.38Z" style="fill:#6b2808;stroke:#000;stroke-width:1.2021000385284424px"/><path d="M63.83,138.26c5.19-1.38,5.94.56,10.82,1.92,6.42,1.78,15.48-1.57,21.56,1.31.37,2.61,2.83,7.06.58,9.38-1.57,1.63-8.44.72-9.63.72,4.1,0,13.06-1.44,8.58,5.4-2.69,4.11-8.05,2.62-11.93,4.34-8.11,3.59-12.95,11.75-23.08,6.74,3.76,2.18,8.74,2.89,12.64,1-2.37,7.78,3,7.1,7.31,10.85,4.61,4,4.63,11,8.27,15.36,3.29,4,9.64,5.11,14.11,7.19,5.9,2.74,10.6,7.35,16.11,10.19,6,3.08,10.14,7.07,16.87,8.64s9.58,2.88,10.81,10.14c.82,4.9,4.65,10.43,2.23,15s-8.66,7.48-12,12c-2.36,3.17-3.07,14.76-7.55,12.72a10.79,10.79,0,0,1-2.45,1.82c-.4,3.19.44,4.52-1.14,7.27-1.37,2.39-4.07,4-5.68,6.24-9.4-8.51-8.38-18.56,2-25.4-.31,3.1.45,7.32,2.29,9.78-2.49-2.11-1.82-5.74-1.64-8.7,4.29.62,2.64-2.5,3.52-4.9,1-2.73,1.55-3.07,3.59-5.37,3-3.36,8.83-9.78,5.58-14.45-2.43-3.5-8.35-.77-12.78-1.82-4.77-1.13-9.76-4.22-13.84-7.17-2.87-2.08-24.8-22.49-21.82-9,1.23,5.57,8.18,6.07,9.27,12.22,1.23,6.94-2.94,14.68-5.67,20.8-1.9,4.27-7.38,10.63-7.56,14.92.55.08,1.09.13,1.64.19-1,4.43-8.7,10.22-12.41,12.65-5.19,3.4-5.75,3.76-4.19,9.89,2.85,11.2-6.11,21.51-9.66,32-2.27,6.72-4.19,14.57-3.94,21.7a46.7,46.7,0,0,0,.4,6.89c.83,4.45,3.31,8.71,3.62,13.48.32,5-.7,13.14,2.3,17.35,1.11,1.56,2.39,1.55,3.71,2.47,1.73,1.21,13.08,10.33,11.74,12.36-2.69,4.07-10.39,5-15,4.39-6.86-.84-5.25-7.89-11.91-9.74-.89-4.42.72-9.45.38-14.2A72,72,0,0,0,46.55,361c-1.64-5.17-4.38-9.42-6.63-14.31-2.36-5.13-.86-6.75,2.84-10.79,2.72-3,6.64-7.73,6.53-12S44.7,314.46,43,310.48a31.32,31.32,0,0,1-2.67-16.59c.5-4,2.16-7.23,1.85-11.45-.28-3.8-2.34-7.54-.84-11.33s6.2-7.26,8.51-10.85A95.09,95.09,0,0,0,59,240.93c3.33-9.07-2.22-15.2-2.79-23.88a47.85,47.85,0,0,1,.4-6c.54-10-6.16-17.18-9.38-26.48a47.37,47.37,0,0,1-1.64-26.17c-5.29-2-9.68,2.4-15.23,0-2-.86-11.07-12.66-9.15-12.76,4.41-.23,7.94-3.55,12.34-3.71,5-.17,9.38,3.24,13.31,5.82C44.19,146,62.82,138.53,63.83,138.26Z" style="fill:#732400;stroke:#000;stroke-width:1.2021000385284424px"/><path d="M62,159.39a6.55,6.55,0,0,0-2.57-1.33c1,3.55-.55,4.46,3.8,6.3,2.3,1,6.59,2.24,5.95-1.77,2.92,4.53,4.26-1,5.41-2,2.94-2.49,6-3.2,10.09-3-8.06-3.58-15.62,6.58-22.08.57" style="fill:#391810"/><path d="M74.56,146.29c-3.55-.58-4.58-4.5-8.33-4.23-.09.14-.7,1.52-.52,1.6A21.71,21.71,0,0,1,67.52,145c-1.68,1.08-3.25,2.19-3.83,4.07A14.64,14.64,0,0,1,74,150.32,9.25,9.25,0,0,0,74.56,146.29Z" style="fill:#391810"/><path d="M75.86,247.66c-4.27,4.72-2.89,10.06-1.33,15.49.92-8.26,2.71-10.78,7.22-17.27,3.63-5.23,4-9.5,4.43-15.53,8.08,1.64.45-6.24-.72-8.93,0,2.11.08,4.26-.06,6.34-4.39-.4-4,16.35-9.54,19.31" style="fill:#391810"/><path d="M51.19,172a5.27,5.27,0,0,0-2.34,4.09c2.12.66,4,1.16,5.23,3a46.42,46.42,0,0,0,0-7,3.85,3.85,0,0,0-2.92,1.13" style="fill:#391810"/><path d="M54.8,185.21c-.68.74-.84,2.05-1.58,2.88,3.91,3.59,4.93,9.25,5.19,14.36,0-4.91-.55-10,1.15-14.62-2.68,1-4.81-1.76-4.75-4.42" style="fill:#391810"/><path d="M48.19,334.73c-1.61,3.44-3.54,2.75-4.23,6.62-.39,2.18,1.53,3.7-.49,5.83a25.58,25.58,0,0,0,3.41,3.12c.71-5-4.58-10.34,1.83-13.92.51-1-.31-.61-.52-1.06" style="fill:#391810"/><path d="M61.72,388.36a11.52,11.52,0,0,1-1.78,1.86c1.93.69,3.7-.37,5.71.12s5.43,2.24,6.65,4c-1.41-2.06-4.42-6.56-7-5.33,1-.44-3.14-4-3.78-4.14.78.18.56,2.72.36,3.2-.74,1.77-3.87,4.07-5.29,5.44-1.12-.93-2.81-1.76-3.84-2.9-.65-.73-.86-.37-1.15-1.28-.47-1.47,1-3,.06-4.73.67,3.47,7.53,7.74,10.11,4.14" style="fill:#391810"/><path d="M36.46,294.19c-.54,4.08-.84,6.09.38,10.12a17.8,17.8,0,0,1,.6,7.69c-.15,1.27-.72,2.83-.09,3.86,2-1.47,2.87-5.64,2.52-7.94A33.37,33.37,0,0,0,38,302c-.84-2.42-.46-4.87-1.19-7.23" style="fill:#391810"/><path d="M27.93,146.79c4,1.15,8.89,1.46,11.43,5.39,4.54-1.71,5.22,5.29,8,6.62.09-1.31,0-2.64.07-4,.11-1.77.87-3.37,1-5.09.2-2.16-1-1.71-3-2-4.1-.6-6.67-4-10.69-4.56-2.65-.33-4.11.74-6.25,2-1.68,1-3.17.68-4.94.67-.18,1.67,3.29.75,4.38,1.17" style="fill:#391810"/><path d="M250.84,80.57c-.21-1-.39-1.95-.55-2.93-4,.73-6.86,4.46-11.08,4.88-3,.3-7,.86-10,.5-6.29-.73-10.3-.89-16.56,1.13-7,2.26-12.26,3.54-19,.89-2.39-.94-5.22-.64-7.53-1.83-.55-.29-5.06-4.17-3.52-4.92-2,1-3.63,3.29-4.71,5.15C182,88,184,91.19,190.55,91.08a13.2,13.2,0,0,0-6.22-.76c.17,1.94-.81,3.77-1.09,5.55,3.84,1.65,7.63,3.61,11.48,5.46,3.21-3.08,5.34-7.47,9.48-9.78a37.7,37.7,0,0,1,12.15-4.08c7.9-.84,12.93,6.49,18,11.08-3.78-3.43,13.48-2.9,11.61-.38,1.47-2,1.28-4.85,3.25-6.43-2.17-2.35-5.76-1-8.37-2.28,2.45-1.62,5.34-2.43,8-3.69C252.06,84.22,251.69,84.59,250.84,80.57Z" style="fill:#73b642;stroke:#000;stroke-width:1.2021000385284424px"/><path d="M209.54,47c2.71-3.73-1.84-9.31-5.19-10.92-4.18-2-7.46-1.89-11.28.38C192.31,25.55,204,25,210.61,30.25c-2.73-1.45-5.67-3.24-8.29-4.92-3.27-2.1-4.23-5.22-8.38-4,4.08-9.94,19.57-6.37,20,3.55,1.39-4.07,3.86-6.71,8.45-7.1,4.87-.42,6.19,3.39,9.59,5.52a15.46,15.46,0,0,0-8.41,2.47c-3,2.23-3.82,5.7-8.29,5.25,3.94-1.19,6.73-5.51,11-4.83s5.81,4.22,6.85,7.87c-8.12-2.17-9.77,4.51-13.27,9.76-1.66,2.5-9.12,5.35-9.93.79" style="fill:#73b642;stroke:#000;stroke-width:1.2021000385284424px"/><path d="M241.32,41.45c1.19,1.58,5.09,5.21,5.55,7.19.7,3-3,4.59-5.55,5.92-1.42.74-6.07,3.47-7.72,3.19C225.93,56.43,241,43,241.32,41.45Z" style="fill:#73b642;stroke:#000;stroke-width:1.2021000385284424px"/><path d="M258.07,60.63c-.57-3-4.16-3.83-6.82-3.21-4.71,1.1-2.42,3.78-4,6.84-1.25,2.42-4.08,2.58-4.45,6.28s1.73,8,6,7.37c-2.44,4.25.65,9.09,5.61,7.7-.87,2.37.7,4.22,2.85,5,3.23,1.23,3.82-.93,6.42-1.55.41-.09,1.81.93,2.81.68,1.3-.32,2-1.45,2.79-2.35,1.69-2,1.93-3.85,2.49-6.33,5.25,1.3,9.08-10.74,2.88-10.92,2.64-3.42-1.72-7.48-5.3-7.21,2.32-5.52-9.13-10.58-11-3.18-.48-.08-.22-.36-.3-.77" style="stroke:#000;stroke-width:1.2021000385284424px;fill:url(#b)"/><path d="M172.24,63.44c4.27-4.48,8.6-.18,8.88,4.75,5.71-.35,8,5.19,6.05,9.67-.34.78-1.35.61-1.63,1.28s.1,2.82-.07,3.81c-.4,2.26-2.28,6.49-5.06,5.36,2.29,7.85-9.67,9.39-11,2-2.4.47-4.33,1.31-6.85,0A7.51,7.51,0,0,1,159.08,81c.69-1.67,1.43-.94,1.53-2.77.07-1.32-1.38-3-1.22-4.8.27-2.9,2-5.93,5.18-4.85-.79-2.38-.53-5.88,2.45-6.68,2.32-.63,5,2.41,6.82.32" style="stroke:#000;stroke-width:1.2021000385284424px;fill:url(#c)"/><path d="M256.06,24.21a6.66,6.66,0,0,0-4.95,1.07c-1,.6-2.05,2.5-2.82,2.81-1.2.49-3.53-.63-5.15,0a7.24,7.24,0,0,0-3.89,3.49c-.63,1.23-.25,9.33,2.6,7.48-3,1.93-.95,8,1.28,9.6,3.26,2.4,6.52-.47,10-.34-.11,3.15-1.11,10,4.08,9.06,4.85-.85,5.28-7.18,5.18-11,1,1.4,4.07,1.86,5.66,1.08,2.67-1.31,2.64-5.77,2.4-8.31-.44-4.77-3.93-15-10.36-9.76A4.89,4.89,0,0,0,256.06,24.21Z" style="stroke:#000;stroke-width:1.2021000385284424px;fill:url(#d)"/><path d="M193.56,28.15c-.29-4.09-1-5.93-5.36-5.89-.56,0-6.49.68-5.2,1.81-2.93-2.58-7.44,2.79-8.76,4.93-.39.62.12,1.67-.35,2.43s-2.21,1.21-2.87,2c-1.52,1.78-1,3.5-1.57,5.21-.53,1.49-1.73,2.31-2,4-.34,1.92.56,2.35.63,3.69.17,3.24-1.36,7.3,4.12,6.78-.42,3.65,1.11,5.39,4.86,5.16,2.34-.14,3-1.41,4.85-2,.62-.2.28-1.24,1.2-1.26.63,0,.59,1.17,1.19,1.26,4.35.71,6.23.46,9.14-4,1.6-2.46,5.08-8.85,2.14-11.13C200,39.45,200.58,27.71,193.56,28.15Z" style="stroke:#000;stroke-width:1.2021000385284424px;fill:url(#e)"/><path d="M254.46,85.45c2.41-2.08,3.46-5.28,4.81-7.61" style="fill:none;stroke:#000;stroke-width:1.2021000385284424px"/><path d="M262.88,89.06a11.36,11.36,0,0,0,0-6.8" style="fill:none;stroke:#000;stroke-width:1.2021000385284424px"/><path d="M248,77.85c1.91-1.48,4.38-1.9,6.42-3.2" style="fill:none;stroke:#000;stroke-width:1.2021000385284424px"/><path d="M246.84,64.64c2.94-.34,5.62,2.2,7.22,4.4" style="fill:none;stroke:#000;stroke-width:1.2021000385284424px"/><path d="M257.27,59a14.92,14.92,0,0,1,2,8.41" style="fill:none;stroke:#000;stroke-width:1.2021000385284424px"/><path d="M268.9,62.64c-1.11,2.46-3.37,4.13-5.21,6" style="fill:none;stroke:#000;stroke-width:1.2021000385284424px"/><path d="M273.71,70.24a16.75,16.75,0,0,0-6.82,2" style="fill:none;stroke:#000;stroke-width:1.2021000385284424px"/><path d="M272.1,81.45c-2.17-1.39-4.08-3.17-6.82-3.2" style="fill:none;stroke:#000;stroke-width:1.2021000385284424px"/><path d="M248.45,30.21c3.17,0,2.79,7,4,9.21" style="fill:none;stroke:#000;stroke-width:1.2021000385284424px"/><path d="M259.27,28.61c.91,2.35-1.76,6.6-3.21,8.41" style="fill:none;stroke:#000;stroke-width:1.2021000385284424px"/><path d="M242,41c3.15.06,6.41-.4,9.62-.4" style="fill:none;stroke:#000;stroke-width:1.2021000385284424px"/><path d="M252.45,48.63a26.55,26.55,0,0,0,.8-6.4" style="fill:none;stroke:#000;stroke-width:1.2021000385284424px"/><path d="M262.48,46.62c-.56-3.42-4.89-5.2-8-4.8" style="fill:none;stroke:#000;stroke-width:1.2021000385284424px"/><path d="M194.3,28.61c-3.75,2.32-7.13,5.05-7.22,10" style="fill:none;stroke:#000;stroke-width:1.2021000385284424px"/><path d="M183.47,23.4a14.27,14.27,0,0,0,1.2,12.81" style="fill:none;stroke:#000;stroke-width:1.2021000385284424px"/><path d="M173.44,30.61c2.07,2,5.61,3.94,6.42,6.81" style="fill:none;stroke:#000;stroke-width:1.2021000385284424px"/><path d="M169.43,38.22c2.31,0,5.05-.47,7.22.4" style="fill:none;stroke:#000;stroke-width:1.2021000385284424px"/><path d="M167.43,45c4-1.81,9-4.86,13.23-2.4" style="fill:none;stroke:#000;stroke-width:1.2021000385284424px"/><path d="M171.84,54.23c2.47-3.87,4.7-7.78,9.63-8.81" style="fill:none;stroke:#000;stroke-width:1.2021000385284424px"/><path d="M183.47,55c-1-3.54-1.35-8,.8-11.21" style="fill:none;stroke:#000;stroke-width:1.2021000385284424px"/><path d="M195.1,42.62c-2.33-1.4-7.6-.81-9.23,1.2" style="fill:none;stroke:#000;stroke-width:1.2021000385284424px"/><path d="M167.83,92.26c1.53-3.78,2.86-7,6.41-9.21" style="fill:none;stroke:#000;stroke-width:1.2021000385284424px"/><path d="M159.81,80.25c3.57-1.51,8.1-.34,11.63.8" style="fill:none;stroke:#000;stroke-width:1.2021000385284424px"/><path d="M164.62,68.64a23,23,0,0,0,7.62,8" style="fill:none;stroke:#000;stroke-width:1.2021000385284424px"/><path d="M173,63.44c0,4.38-.53,9.08,1.2,13.21" style="fill:none;stroke:#000;stroke-width:1.2021000385284424px"/><path d="M181.87,69.44c-1.17,3.25-4.53,5.45-6,8.81" style="fill:none;stroke:#000;stroke-width:1.2021000385284424px"/><path d="M179.06,85.05a8.84,8.84,0,0,1-2.8-3.6" style="fill:none;stroke:#000;stroke-width:1.2021000385284424px"/><path d="M218.46,31.93c.52,2.34,2,6.81.81,9.08-1.34,2.62-4.45,2.22-6.54.51C208,37.68,210.8,30.22,209.84,25c-.51-2.77-1.58-5.17-.82-8.09,1.07-4.11,5.17-10.95,10-11.29.06,1.92-1.78,3-2.51,4.66-.93,2.16-.81,5-.69,7.27C216.07,22.44,217.41,27.18,218.46,31.93Z" style="fill:#73b642;stroke:#000;stroke-width:1.2021000385284424px"/><path d="M195,49.82c-5.62,8-6.07,19.39-3.84,28.73,2.3,9.6,6.6,16.13,15.43,20.5,12.6,6.24,26.38,0,31.68-12.48,5.51-12.95,5.05-29.39-4.37-40.46C222.26,32.41,204.89,35.73,195,49.82Z" style="fill:#f7a639;stroke:#000;stroke-width:1.2021000385284424px"/><path d="M191,78.95c2.63.1,5.12,2.67,7.22,4C202,85.31,205.49,88.33,209,91c4.32,3.36,8.19,7.18,12.54,10.32" style="fill:none;stroke:#000;stroke-width:1.2021000385284424px"/><path d="M189.83,67.34c8.71,2.37,16.67,8.94,23.57,14.5C219,86.4,225.57,91.16,229.94,97" style="fill:none;stroke:#000;stroke-width:1.2021000385284424px"/><path d="M192.24,55.73c4.06,3,9.34,4.69,13.74,7.21a161.46,161.46,0,0,1,13.94,9.31c6.46,4.65,10.92,11.48,16.84,16.31" style="fill:none;stroke:#000;stroke-width:1.2021000385284424px"/><path d="M197.45,47.33c17.35,3.86,31.71,19.26,43.32,31.22" style="fill:none;stroke:#000;stroke-width:1.2021000385284424px"/><path d="M206.68,39.72c8.24,3.26,15,8.18,21.66,14,4,3.54,11,7.9,13.24,12.82" style="fill:none;stroke:#000;stroke-width:1.2021000385284424px"/><path d="M191,76.95c2.3-3.61,3.14-8.45,4.9-12.4a107.58,107.58,0,0,1,6.73-13.22c2.43-3.93,5.41-10.87,9.63-13.21" style="fill:none;stroke:#000;stroke-width:1.2021000385284424px"/><path d="M195.42,89.22c5.08-11.29,9-21,15-31.88,2.36-4.3,9.1-18.24,13.93-18.83" style="fill:none;stroke:#000;stroke-width:1.2021000385284424px"/><path d="M200.66,96.16c3-4.24,4.72-10.42,7.2-15.11,3.46-6.52,6.95-12.94,10.78-19.25,3.53-5.82,7.42-13.07,12.9-17.28" style="fill:none;stroke:#000;stroke-width:1.2021000385284424px"/><path d="M208.28,100.17c6.13-11.71,11.51-23.92,18.15-35.44,2.42-4.21,6.2-11.23,9.92-13.4" style="fill:none;stroke:#000;stroke-width:1.2021000385284424px"/><path d="M216.7,101.77c1.48-4.58,5.09-8.62,7.32-12.9,2.62-5,4.93-10.15,7.63-15.13,1.71-3.16,3.73-6.22,5.3-9.45,1.14-2.33,1.51-5.22,3-7.35" style="fill:none;stroke:#000;stroke-width:1.2021000385284424px"/><path d="M227.13,98.16c4.28-5.05,6.93-12,9.62-17.93,1.7-3.74,3.76-7.63,4.42-11.69" style="fill:none;stroke:#000;stroke-width:1.2021000385284424px"/><path d="M218.71,37.72c6.7,4.82,12.75,9.88,18.85,15.21" style="fill:none;stroke:#000;stroke-width:1.2021000385284424px"/><path d="M262.54,182.9c1.9,2.19,6.57,3.49,9.36,4,3.31.62,3.39-.24,3.59-4.1.14-2.6-.13-3.9-2-6,2.91,2.14,2.25,2.77,5.87,2.77,2.83,0,5.26.61,8-.47-.58-2.2-.41-4.91-1.12-7.13-.91-2.83-1.92-3-4.72-4.45,1.24.5,2.66.61,3.81,1.2.29-1.94.56-8.12-.3-10-1.31-2.84-4.32-3.32-6.61-4.8-2.9-1.86-4.91-4.94-6.36-8-1.08-2.27-2.2-5.91-4.2-7.6-2.92-2.47-8-1.72-11.22-4.36-1.64,3.1.2,6.66-.06,10-.36,4.67-.93,9.28-1.15,14-.21,4.43,1.95,8.09,3.1,12.22S259.69,179.62,262.54,182.9Z" style="fill:#fff;stroke:#000;stroke-width:1.2021000385284424px"/><path d="M167.37,126.27c-5.37.8-15.38-1.21-18.24-6.58-3.18-6,2.79-14.39,9.47-11.33.08-8.08-8.46-8-13-3.23,11.77-10.73,8.85-20.28,2.47-32.22,1.66,7.31-7.41,11.61-11.09,16.22-4.6,5.77-6.27,22.7,3.39,25.56-6-4-7.68-8.06-10.61-14.45-5.13-11.2-15.75-24.59-29.53-24.15C92,76.37,81.34,81.6,80,90.55c-1,6.95,4,10.39,10,11.68,4.76,1,11.08,2.2,15.44,4.16,4.6,2.07,8.6,8.36,11.52,12.28,8.35,11.22,22.64,16.08,36.32,13.7,2.6-.46,15.08-3.19,13.34-6.89" style="fill:#fff;stroke:#000;stroke-width:1.2021000385284424px"/><path d="M264.23,121.58c7.33,2.86,19.67-1,18.17-10.94-.76-5-8.81-6.23-11.09-1.66-.23-3.85-.29-7.85,3.24-10.24,3.33-2.26,8.83-1,10.8,2.59-1.77-2.68-5.63-2.63-7-5.07-1.06-1.93-.83-7.92-.32-10,1.72-7.17,14.9-9,14.47-16.67-2.79,8.56,2.33,13.73,4.11,21.9a38.86,38.86,0,0,1,1.12,11.9c-.44,4.39-2.67,7.26-4.29,10.89,5.74-8.07,8.17-17.74,15.17-24.89,7.83-8,21.06-22.63,33.21-13.83,4.37,3.16,7.5,10.21,5.74,15.55-1.51,4.56-6.2,6.15-10.13,7.88-8.7,3.8-13.76,12.68-20.46,18.92a89.32,89.32,0,0,1-10.43,8c-7.31,5-17.15,4.66-25.62,5.62-3,.34-6.14,1.49-9.1.49-3.8-1.29-5.55-5.91-9.35-6.94-2.16-.59-4,1.29-6-.48-1.72-1.51-1.9-4.53.31-5.55S262.26,120.81,264.23,121.58Z" style="fill:#6bc3ff;stroke:#000;stroke-width:1.1894999742507935px"/><path d="M167.71,122.73c-4.18-.83-7.69,1.77-12-.45-4.78-2.47-5.19-6.06-4.9-10.91-.09,1.52-2.7,3.89-3,5.93a11.78,11.78,0,0,0,1.61,7.35,12.64,12.64,0,0,0,13.94,5.83C165,130,170.35,123.25,167.71,122.73Z" style="fill:#6bc3ff;stroke:#000;stroke-width:1.1894999742507935px"/><path d="M349.85,97.13a76.49,76.49,0,0,0,.72-7.71c.28-10.63-8.29-18.16-18.52-16.81,4.19,1.42,8.2,1.72,10.41,6.13a9.19,9.19,0,0,1-2.2,11.19,12.19,12.19,0,0,1-7.73,3.2c-.8,0-8-2.77-6.83-3.62-3.12,2.34-1.83,6.54.89,8.77s5.87,2,8.38,1.45c-5,2.72-10.85,1-13.09,7.81-1.57,4.79-.38,11.67,0,16.69,4.31.27,8.05,0,11.86-2.25,4.7-2.77,5.73-5.5,8.17-10-3.06,4.73,2.38,8.45,2.44,12.94,0-1.07,2.13-3.66,2.6-4.79a29.6,29.6,0,0,0,1.55-5c1-4.33.46-8.37.79-12.68C349.4,100.67,349.62,98.9,349.85,97.13Z" style="fill:#fff;stroke:#000;stroke-width:1.2021000385284424px"/><path d="M105.5,90.69c4.43,4.75-.25,15.95-6.19,17.09,11.66-3.91,6.7,15.78,9.47,20.44-8.06.5-19.62,1.95-23.87-6.63,3.26,5.07,3.08,11.15-3.7,13-.44-5.25-3-8.32-5-13.16-1.44-3.48-2.29-10.58,2-12.38-.64-2.57-3.44-11,.08-12.5.29-4-.58-8,1.58-11.67C84,77.84,91,78.95,97.56,76c-3.54,4.65-8.69,7.4-4.35,13.7a9.18,9.18,0,0,0,5.88,4.06C99.94,93.85,106.64,91.91,105.5,90.69Z" style="fill:#6bc3ff;stroke:#000;stroke-width:1.1894999742507935px"/><path d="M184.44,178.51c-3.75,3.44-9.55,7.67-9,13.42-.87-3.6-2.57-6.63-1.2-10.35s5.19-5.72,7.11-9.12c-4,4.21-6.57,11.34-13.21,12.08-5.1.57-10.21-2.07-15.18-2.46,1.49-1.47,3.41-2.17,4.73-3.91,1.85-2.45,2.78-5.52,4.44-8.07a20.42,20.42,0,0,1,6.75-6.34c1.68-1,4.09-2.31,4.95-4.06-2.55,3.2-10.79,8.5-14.51,3.81.48.6,1.22-4.07,1.23-4.24a35.06,35.06,0,0,1,.91-5.57c.88-3.45,2.41-7.18,5.55-9.17s5.5-1.5,8.92-1.73c2.65-.18,3.39-.86,5.07,1.35,1.38,1.82,2.16,4.14,3.2,6.16,1.45,2.85,3.39,5.46,4.73,8.36C192,165.32,189.65,173.71,184.44,178.51Z" style="fill:#6bc3ff;stroke:#000;stroke-width:1.1894999742507935px"/><path d="M166.41,134.66c2.22-2.68,1.28-4.1,1.14-7a27.65,27.65,0,0,1-6.3.84,34.22,34.22,0,0,0-5.89,1.15c-3.36.71-6.92,1.7-9.71,3.82-3.79,2.86-4.81,9.09-8.93,11.13,5.31,2.24,8,.66,11.86-3.23-7.34,6.27-8.08,20.17.88,25.71-1.16-3.5,3.41-8.67,5.48-11a73.68,73.68,0,0,0,6.07-8.37c1.11,2.6-1.76,5.23-1.82,7.71-.05,2.09,1.63,3.93,1.5,6.2,3.34-3,6.49-5.57,7.55-10.33.89-4,0-11.13,3.19-14.2-2.62.65-5.28,1-7.7,2.42-4.21,2.49-7.82,7-10.59,11,2.88-7.45,10.29-9.67,16.18-13.39-4.87.71-11,1.85-15.17,4.71C158.17,139.82,163.46,138.23,166.41,134.66Z" style="fill:#6bc3ff;stroke:#000;stroke-width:1.1894999742507935px"/><path d="M204,163.8c5.54-.63,9.85-.68,14.92,1.32,4.58,1.81,7.76,2.68,12.87,1.85,9.39-1.53,19.48-7.64,28.5-1.46,3,2.07,8.08,7.41,8.08,11.51a59.76,59.76,0,0,1-1.07,13.57,26.65,26.65,0,0,1-1.37,5.31c-.37.74-3.67,2.7-3.55,2.09.92-4.29,1.76-9.29.85-13.64-1.19-5.66-5.39-7.15-10.9-7.34-5.11-.17-10.84,3.6-15.09,6.21A104,104,0,0,0,218.44,198c-6.92,6.9-31.28,8.4-31.28,8.4s-10.23-24,7.82-35.43Z" style="stroke:#000;stroke-width:1.2021000385284424px;fill:url(#f)"/><path d="M169.71,138.57S195,170,195,187.81h7.22s33.2-25,49.32-25v-38s-5.41-21.61-37.9-21.61C213.63,103.15,179.33,91.74,169.71,138.57Z" style="stroke:#000;stroke-width:1.2021000385284424px;fill:url(#g)"/><path d="M164.29,140.38s25.27,24.62,26.16,46l4.81,1.8s2.12-21.35-26.15-49.57Z" style="fill:#f9e255;stroke:#000;stroke-width:1.2021000385284424px"/><polygon points="252.13 161.99 252.13 124.76 259.65 132.27 259.65 164.4 252.13 161.99" style="fill:#f9e255;stroke:#000;stroke-width:1.2021000385284424px"/><path d="M167.43,128.42H176s7.82-14.47,12.34-19h-9S169.32,124.08,167.43,128.42Z" style="fill:#f9e255;stroke:#000;stroke-width:1.2021000385284424px"/><path d="M168,127.24h41.11s-16.85,17.34-46,11C163.09,138.28,160.8,133.82,168,127.24Z" style="stroke:#000;stroke-width:2.404099941253662px;fill:url(#h)"/><path d="M211.22,115.16s19.85-4.2,22.86-7.2l5.41,5.4-22.86,5.4s-.6,6-7.83,13.21l19.86-7.21,4.81,4.81s-37.9,16.81-74,10.21c0,0,.94-2.63,2.41-6.41,3.15-8.12,8.73-21.52,12.63-25.41h6s-11.73,14.11-16.24,28.22C164.29,136.18,204.3,144.28,211.22,115.16Z" style="fill:#f9e255;stroke:#000;stroke-width:1.2021000385284424px"/><line x1="176.34" y1="146.56" x2="205.2" y2="146.56" style="fill:none;stroke:#000;stroke-width:1.2021000385284424px"/><line x1="179.52" y1="150.67" x2="194.38" y2="150.67" style="fill:none;stroke:#000;stroke-width:1.2021000385284424px"/><line x1="183.27" y1="156.23" x2="193.47" y2="156.23" style="fill:none;stroke:#000;stroke-width:1.2021000385284424px"/><line x1="186.24" y1="161.42" x2="191.37" y2="161.42" style="fill:none;stroke:#000;stroke-width:1.2021000385284424px"/><line x1="189.65" y1="165.63" x2="199.22" y2="165.63" style="fill:none;stroke:#000;stroke-width:1.2021000385284424px"/><line x1="191.97" y1="169.5" x2="201.59" y2="169.5" style="fill:none;stroke:#000;stroke-width:1.2021000385284424px"/><line x1="193.97" y1="175.46" x2="198.48" y2="175.46" style="fill:none;stroke:#000;stroke-width:1.2021000385284424px"/><path d="M239.8,117.25c0,2.41-.3,5.22-2.34,6.93-3.32,2.79-6.44-2.45-4.62-5.37-4.18.23-7.49,7.15-6.58,10.77.95,3.8,6.3,6,9.52,3.27a16.24,16.24,0,0,1-4.41,1.22c-1.26.09-2.75-.61-3.85-.24-2.17.74-5.19,5.36-5.78,7.45-.91,3.26-.47,6.75.31,10a43.8,43.8,0,0,1,1.19,11.54c2.44-7.21,11.88-10.24,16.52-15.75a25.45,25.45,0,0,0,4.62-8.78c1-3.11,1.21-6.84,2.36-9.83-1.05,3.64-1.33,7.31-2.65,10.95a37.64,37.64,0,0,1-5.13,9.39c-3.05,4.06-3,11.25-.35,15.81-.47-3.82,3.5-6.68,6.24-8.56a16,16,0,0,0,6.16-7c2.56-5.78,2.71-12.56,2.35-18.77-1.25,2.41,1.06,5.26,2.69,6.82,6,5.71,8.14,11.18,8.12,19.52,0,3.43.94,4.15,3.1,6.55,1,1.15,2.88-5.1,3-5.62,1.37-4.47.41-13.45-2.82-17.06-.79,1.5.8,4.62,1.28,6.21a26.1,26.1,0,0,0,8.64,12c2.85,2.21,5.76,2.4,9.34,2.17,3-.2,5-1.1,7.78-2.1-1.16-1.56-2.8-2.38-3.57-4.51-.91-2.49-.87-5.18-1.51-7.74-1.37-5.43-5-7.45-8.9-10.91,1.4,1.22,3.24,2,4.69,3.34,1.07,1,2.36,3.29,3.61,3.86,2.54,1.16,6.87.23,9.47-.27-4-.21-6.7-5.6-9.17-8.09-2.29-2.29-5.47-2.81-8.53-3.27s-7.37-.48-10.37-1.61c-4.67-1.76-6.81-6.64-9.55-10.35-1.14-1.56-5.69-7.74-8.23-5.73,1.67,4.42,4.33,8.06,6.83,11.93-2.35-3.32-4.73-7.86-7.5-10.91A29.37,29.37,0,0,1,253.61,125c1.31-3.64-1.05-11.46-4.88-13.06-6.57-2.75-2.25,6.51-2.25,10,1.08-3.23-.49-10.47-3.14-13.07-.41-.4-5.61-2.17-5.32-1.15C239.07,111.33,239.79,113.39,239.8,117.25Z" style="fill:#6bc3ff;stroke:#000;stroke-width:1.1894999742507935px"/><path d="M184.14,113.47c-2.67,6-8.95-1.71-11.49-2.36.31,1.91,3.54,2.5,3.89,5.08-4.33,2-10.27-.73-11.08-5.52-1-6,6-9.74,11.13-8.78C180.38,102.6,186,109.19,184.14,113.47Z" style="fill:#fff;stroke:#000;stroke-width:1.2021000385284424px"/><path d="M215.87,106.25a6,6,0,0,0-.19-7.37c-2.4-2.74-8.39-4-11.81-4.23-3.09-.25-5.61.37-7.54,2.82-2.23,2.84-.39,3.4,1.43,5.55,2.81,3.33,4.12,6.71,9.24,5.48.71-1.86,1.38-5.74.1-7.41a25.67,25.67,0,0,0,.23,4.07c.82,2.19,1.7,3.51,4.27,3.46A5.34,5.34,0,0,0,215.87,106.25Z" style="fill:#fff;stroke:#000;stroke-width:1.2021000385284424px"/><path d="M200.38,104.16a6.47,6.47,0,0,0-.93-2.25c-1.42-2.13-4.52-3.48-7-3.89-.63-.11-7.17,0-7,.7.08.38.07.79.19,1.17-2.09-.66-6.83-1.44-7.09,1.71-.17,2.06,3.22,4.13,4.14,5.78,1,1.87,1,4.31,2.68,5.31,1.35.82,4.55.59,6-.08,0-1.87.14-7.46-1.87-7.89-.11,2.36,3.61,7.12,6,6.95C199.38,111.38,201.09,107.49,200.38,104.16Z" style="fill:#6bc3ff;stroke:#000;stroke-width:1.1894999742507935px"/><path d="M250.8,103.46c4,0,9,.07,11.35,4,2.24,3.71-.36,7.27-1.8,10.37-3.5.51-2.38-5.09-2.4-7.08-2.67.66,1.44,3.48.5,5.55-.82,1.78-4.92,1.73-6.46.51-2.14-1.7-.89-4.14-.71-6.5.16-2-1.18-6.39-.49-7.61" style="fill:#6bc3ff;stroke:#000;stroke-width:1.1894999742507935px"/><path d="M240.69,97.81c-.1-4.54,6.12,1.54,7,2.84a14.15,14.15,0,0,1,2.71,8.82c0,3.06-.87,6.76-4.83,4.49-4.28-2.45,1.33-6.62-1.58-10-.77,2.29,1.81,5.86-.4,7.77-1.62,1.4-5.21,0-6.82-1-3.05-1.86-2.14-3.09-2.79-6.11-.55-2.53-3.5-5.15-1.26-7.69C234.64,94.78,238.8,96.22,240.69,97.81Z" style="fill:#fff;stroke:#000;stroke-width:1.2021000385284424px"/><path d="M216.3,103.46c1.46,1.85,5,4.86,7.62,4.31a3.32,3.32,0,0,0,1.69-5.08c-.78,3.56,1.15,9.2,6.33,7.11s2.3-9.38-.29-12.06a8.28,8.28,0,0,0-6.13-2.69c-1.24,0-2.09.71-3.22.79-.85.06-1.53-.4-2.36-.42-2,0-3.83-.63-4.95,1.54s1,3.88,1.31,6.09" style="fill:#6bc3ff;stroke:#000;stroke-width:1.1894999742507935px"/><path d="M87.65,104.89c-3.25-3.2-6.76-6.78-7.61-11.44-.69-3.79,1.26-9.34,5.19-10.65-1.41,2.74,2,6.76,4.42,8.1-5-6,3.17-9.6,6-13.78C93,76.76,86.1,79.2,83.76,80.73c-3.93,2.56-5.7,8.18-4.83,12.59C80,98.92,84,101.31,87.65,104.89Z"/><path d="M78.71,109.71c-1.13-4.35-3.35-7.89-1.54-12.54-2.54,6.53,4.19,12.71,7.68,16.93-2.39-1.33-4.75-3.5-6.74-1-1.43,1.75-1.07,5.45.19,7.16-.74-.59-1.44-.43-2.19-.69a11.39,11.39,0,0,0,0,2.22C74.8,119.53,73.18,107.4,78.71,109.71Z"/><path d="M163,129.1c-1.72.33-2.43,4.74-3.54,6.37-1.81,2.68-5.26,4.36-6.78,7.06,1.92-1,4-.92,4.84,1.3a9.15,9.15,0,0,1,7.4-1.12c-.09,0-2.25-1.88-2.62-2.13-1.27-.86-2,.36-2.59-1.5C158.93,136.64,162.79,131.77,163,129.1Z"/><path d="M174.71,180.71c-1.19,1.18-1.84,2.58-3.16,3.6a27.07,27.07,0,0,0,3.11,5.48c-.88-3.08-1.82-6-.35-9.09"/><path d="M160.68,147.09c-.2,5.26-7.47,9.52-1.25,14.1-.82,1.39-2.77,1.39-3.1,3a17.1,17.1,0,0,1,4.33.4c-1.95-1.51,0-1.79-.05-3.22,0-1.76-.71-3-1-4.71-.48-2.73,1.07-6.65,1.09-8.81"/><path d="M276.58,121.37c4.77-2.23,4.85-5.17,6.33-9.07a11.69,11.69,0,0,1-.73,5.65c-.58,1.58-2.74,3.25-3.13,4.42-.45,1.34-1.63,1.2.33,1.89a5.52,5.52,0,0,0,2.81-.3c3.27-1.11,5.71-3.69,8.71-5.35-3,2.57-6.29,4.74-9.17,7.27,3.8,3.85,14.23-3.48,18-5.24-2.69,1.73-5.07,3.73-8,5.13-1.35.65-10.57,4.26-5.56,5.21a39.94,39.94,0,0,1-11.19-.54c-4.84-.88-10.67-4.16-12.3-9,.27.79,4.85,1.68,5.78,1.76A16.77,16.77,0,0,0,276.58,121.37Z"/><path d="M343.56,83c.31-6.44-5.27-10.69-11.14-10.32-6.65.42-13,6.25-17.7,10.56,4.23-3.85,13.64-5.37,19.13-6.22,4.55-.71,6.47.22,9.18,3.61-4.87-.75-8.58-2.15-13.38.39,3.71-.43,11.53-2.67,14,1.6-1.83,1.83-6.92,1.06-9.58,2.41,2.11.08,4.27-.21,6.35-.12s3.41,1.64,3.58-2.29"/><path d="M363.9,402.78c5.74,0,11.62.52,17.28-.74,6.92-1.54,7.63-4.07,8.68-10.15.11-.66,3.69,3.2,4,3.62a9.53,9.53,0,0,1,2,6.83c-.54,6.65-5.36,11.37-11.23,13.57-7.57,2.83-15.93,2.27-23.84,1.82a261.07,261.07,0,0,0-28.9.26,109.44,109.44,0,0,0-14,2,91.69,91.69,0,0,0-14.93,4.48c-3.31,1.23-6.69,2.62-10,3.92-4.09,1.61-7.5,3.66-11.83,4.68-2.8.66-5.69.38-8.54.53-8.37.46-16.32.84-24.62-.89-2.73-.57-5.29-1.63-8-2.3a71.23,71.23,0,0,0-27.17-1.11c-3.94.61-7.89,1.61-11.65,2.3-13.88,2.54-27,4-41.32,3.2-7.63-.41-14.14-1.18-21.08-4.2a116.45,116.45,0,0,0-24.3-7.66c-3.74-.68-7.41,0-11.21-.24-14.47-.8-29.11,1.14-43.54-.87-9.57-1.33-22.86-5.55-19.15-17.86.54-1.8,3-6,5.31-5.64,2.1.29,4.1,4.23,5.89,5.47a31.84,31.84,0,0,0,9.35,4.1c7.12,2,14.66,1.75,22,1.28,4.87-.31,9.76-.06,14.63-.18,4-.1,7.77-1.3,11.82-1.32,9-.05,17.32,2.42,25.77,4.81,3,.85,5.89,1.65,8.85,2.38,1.9.47,3.68,1.45,5.58,1.91a72.79,72.79,0,0,0,16.37,2,133.68,133.68,0,0,0,18.14-1.26,208.81,208.81,0,0,1,21.28-2.32c7.78-.26,15.56-.46,23.35-.47,6.26,0,12.89,1.49,19.13,2.48,13.5,2.12,28,2,40.83-2.3,16.82-5.66,32.44-13.15,50.69-12.11C347.59,403.24,355.66,402.78,363.9,402.78Z" style="fill:#9ce3f7;stroke:#000;stroke-width:1.7493000030517578px"/><path d="M45.23,401.29c2.11.28,4.1,4.22,5.89,5.46a31.79,31.79,0,0,0,9.36,4.1c7.12,2,14.66,1.74,22,1.28,4.86-.31,9.75-.06,14.63-.17,4-.1,7.78-1.3,11.82-1.33,9,0,17.32,2.42,25.77,4.82,3,.85,5.89,1.65,8.85,2.38,1.89.47,3.68,1.46,5.57,1.92a72.9,72.9,0,0,0,16.38,2,135.17,135.17,0,0,0,18.14-1.26,207.29,207.29,0,0,1,21.28-2.33c7.78-.26,15.56-.46,23.34-.48,6.27,0,12.9,1.5,19.13,2.48,13.5,2.13,28,2,40.83-2.3,16.82-5.65,32.44-13.15,50.69-12.12,8.17.46,16.24,0,24.47,0,5.74,0,11.63.54,17.28-.73" style="fill:none;stroke:#fff;stroke-width:2.404099941253662px"/><path d="M64.83,447s19.21-5.36,60.47,20.64c0,0,23.73,20.42,49.15,28.58,0,0,10.51,1.69,16.59-4.47l12.14-18s-7.86,2.23-14.43.08l-89.5-48.9S75.36,414.79,63,427.33C63,427.33,56,438.3,64.83,447Z" style="fill:#ff3810;stroke:#000;stroke-width:1.7493000030517578px"/><path d="M372.68,445.22s-19.27-5.14-60.23,21.34c0,0-23.5,20.69-48.81,29.15,0,0-10.49,1.81-16.64-4.28l-12.35-17.86s7.88,2.14,14.43-.08L338,423.55s23.77-10.42,36.31,2C374.31,425.53,381.37,436.42,372.68,445.22Z" style="fill:#ff3810;stroke:#000;stroke-width:1.7493000030517578px"/><path d="M178.75,482.64s17.73,1.44,6.74,12.54c0,0,11.25-.84,22.26-26,0,0,2.79-8.55-8.58-8.48Z" style="fill:#ffffa5;stroke:#000;stroke-width:1.7493000030517578px"/><path d="M259.42,482.17s-17.71,1.64-6.6,12.62c0,0-11.26-.71-22.56-25.79,0,0-2.89-8.51,8.48-8.58Z" style="fill:#ffffa5;stroke:#000;stroke-width:1.7493000030517578px"/><path d="M60.48,438.34s6.19,23.08,13.23,30,122.42-6,147.35-6.1S355.63,474.14,364.77,465c13.2-13.2,11.5-35,11.5-35S363.08,446.33,325,442.61s-104.1-5.7-104.1-5.7-88.79,4.57-110.17,7.2C69.66,449.16,60.48,438.34,60.48,438.34Z" style="fill:#ffffa5;stroke:#000;stroke-width:1.7493000030517578px"/><path d="M87.2,464.59l1.22-15.29,5.32.42-.21,2.58L89.65,452l-.27,3.39,3.6.29-.21,2.58-3.6-.29-.33,4.16,4,.32L92.65,465Z" style="fill:#ff3810"/><path d="M101.55,465.35l-1.58,0-.52-3.5-2.87-.09-.7,3.46-1.54,0,3.28-15.24,1.54,0Zm-2.48-6.15-.81-5.72-1.15,5.66Z" style="fill:#ff3810"/><path d="M108.13,459.67l1.42.94a9.4,9.4,0,0,1-1.06,3.77,2.22,2.22,0,0,1-1.87,1.21q-1.41,0-2.3-1.87a14.36,14.36,0,0,1-1.06-5.89,15.15,15.15,0,0,1,1-6.15q.86-1.94,2.34-1.95a2.35,2.35,0,0,1,2,1.42,8.73,8.73,0,0,1,.88,3l-1.43.75a4.66,4.66,0,0,0-.57-1.9,1.15,1.15,0,0,0-1-.65c-.53,0-1,.41-1.29,1.23a11.42,11.42,0,0,0-.46,4,12.21,12.21,0,0,0,.53,4.12q.5,1.22,1.29,1.21c.38,0,.71-.27,1-.79A7.23,7.23,0,0,0,108.13,459.67Z" style="fill:#ff3810"/><path d="M112.06,465.23l-.66-15.33,1.44-.06.26,6,2.84-.12-.26-6,1.45-.06L117.8,465l-1.45.06-.29-6.7-2.84.12.29,6.7Z" style="fill:#ff3810"/><path d="M136.51,463.53,135,448.27l5.31-.52.25,2.58-3.87.38.33,3.38,3.6-.35.25,2.57-3.6.35.41,4.15,4-.39.25,2.57Z" style="fill:#ff3810"/><path d="M144.39,462.74l-1.6-15.26,1.4-.15,4,9.89L147.12,447l1.34-.14,1.6,15.26-1.45.15-3.92-9.65,1,10Z" style="fill:#ff3810"/><path d="M151.23,446.59l2.63-.27a2.48,2.48,0,0,1,1.55.24,3.49,3.49,0,0,1,1.07,1.22,9.53,9.53,0,0,1,.92,2.34,23.26,23.26,0,0,1,.62,3.65,20.36,20.36,0,0,1,.1,3.47,9.79,9.79,0,0,1-.41,2.38,3.41,3.41,0,0,1-.82,1.39,2.27,2.27,0,0,1-1.38.58l-2.71.28Zm1.71,2.43,1,10.11,1.08-.11a1.73,1.73,0,0,0,1-.34,1.63,1.63,0,0,0,.44-.74,5.93,5.93,0,0,0,.18-1.5,21.29,21.29,0,0,0-.14-2.65,20.75,20.75,0,0,0-.41-2.66,5.07,5.07,0,0,0-.57-1.5,1.49,1.49,0,0,0-.76-.67,3.34,3.34,0,0,0-1.19,0Z" style="fill:#ff3810"/><path d="M161.27,461,160,445.7l5.32-.46.22,2.59-3.87.33.29,3.39,3.6-.31.22,2.58-3.6.31.36,4.16,4-.34.22,2.57Z" style="fill:#ff3810"/><path d="M175.59,459.92,174,460l-.85-3.44-2.86.18-.37,3.52-1.54.1,1.81-15.49,1.53-.1ZM172.53,454l-1.35-5.62-.61,5.74Z" style="fill:#ff3810"/><path d="M178.68,459.76l-3.4-15.18,1.57-.08,2.44,11.24,1.13-11.43,1.54-.09-1.73,15.46Z" style="fill:#ff3810"/><path d="M184,451.88a18.23,18.23,0,0,1,.21-4.54,6.6,6.6,0,0,1,1.06-2.71,2.31,2.31,0,0,1,1.76-1q1.54-.09,2.63,1.92a14.14,14.14,0,0,1,1.3,5.81,14.3,14.3,0,0,1-.69,6.07q-.79,2-2.34,2a2.75,2.75,0,0,1-2.57-1.76A14.06,14.06,0,0,1,184,451.88Zm1.49-.19a10.48,10.48,0,0,0,.8,3.93q.65,1.29,1.5,1.24t1.34-1.39a10.87,10.87,0,0,0,.34-4.06,10.59,10.59,0,0,0-.77-3.91q-.62-1.24-1.5-1.19c-.59,0-1,.49-1.37,1.36A10.69,10.69,0,0,0,185.53,451.69Z" style="fill:#ff3810"/><path d="M192.71,443.61l1.44-.1.59,8.29q.14,1.93.23,2.51a3.45,3.45,0,0,0,.57,1.53,1.09,1.09,0,0,0,1,.48,1,1,0,0,0,.79-.45,2.31,2.31,0,0,0,.35-1.12,23.13,23.13,0,0,0-.09-3l-.6-8.46,1.45-.1.57,8a36.67,36.67,0,0,1,.13,4.47,4.59,4.59,0,0,1-.69,2.28,2.1,2.1,0,0,1-1.68,1,2.23,2.23,0,0,1-1.8-.58,4.36,4.36,0,0,1-1.05-1.92,25.74,25.74,0,0,1-.62-4.69Z" style="fill:#ff3810"/><path d="M202.23,458.28,201.29,443l3-.19a2.63,2.63,0,0,1,1.7.31,3,3,0,0,1,.91,1.38,8.11,8.11,0,0,1,.47,2.42,7.15,7.15,0,0,1-.32,2.92,2.33,2.33,0,0,1-1.31,1.46,5.71,5.71,0,0,1,.85,1.23,23.87,23.87,0,0,1,1,2.44l1.05,2.93-1.72.11-1.25-3.27q-.68-1.77-.91-2.21a1.61,1.61,0,0,0-.47-.6,1.22,1.22,0,0,0-.74-.13l-.3,0,.39,6.39Zm.9-8.92,1.07-.06a3.18,3.18,0,0,0,1.24-.23,1.09,1.09,0,0,0,.4-.64,3.68,3.68,0,0,0,.09-1.23,3.41,3.41,0,0,0-.24-1.17,1.13,1.13,0,0,0-.49-.58,3.38,3.38,0,0,0-1.18,0l-1.13.07Z" style="fill:#ff3810"/><path d="M210.66,457.81,210,442.48l1.45-.06.63,15.33Z" style="fill:#ff3810"/><path d="M214.73,457.65l-.35-15.34,1.41,0L219,452.46l-.23-10.24,1.35,0,.35,15.34-1.46,0-3.12-9.94.23,10Z" style="fill:#ff3810"/><path d="M226.53,451.86v-2.58h3.13v6.11a4.89,4.89,0,0,1-1.34,1.67,2.75,2.75,0,0,1-1.74.7,2.45,2.45,0,0,1-1.87-.92,6.63,6.63,0,0,1-1.28-2.74,17.12,17.12,0,0,1-.47-4.3,16.86,16.86,0,0,1,.49-4.33,6.79,6.79,0,0,1,1.25-2.69,2.35,2.35,0,0,1,1.84-.89,2.38,2.38,0,0,1,2.06,1.15,7.38,7.38,0,0,1,1,3.37l-1.43.57a4.25,4.25,0,0,0-.59-1.81,1.24,1.24,0,0,0-1-.63c-.62,0-1.12.42-1.5,1.26a9.78,9.78,0,0,0-.58,3.84,11.1,11.1,0,0,0,.62,4.22q.53,1.25,1.44,1.25a1.46,1.46,0,0,0,.88-.35,3.26,3.26,0,0,0,.82-1v-1.95Z" style="fill:#ff3810"/><path d="M254.37,458.48l-1.57-.09-.43-3.52-2.86-.17-.8,3.44-1.54-.09,3.7-15.15,1.53.09Zm-2.31-6.21-.65-5.74-1.31,5.62Z" style="fill:#ff3810"/><path d="M256.39,458.63l1.14-15.17,1.44.11-.94,12.6,3.6.27-.19,2.58Z" style="fill:#ff3810"/><path d="M263.75,459.2,265.09,444l1.44.13-1.11,12.58,3.6.32-.23,2.57Z" style="fill:#ff3810"/><path d="M292.9,462.13l-1.57-.16-.27-3.53-2.85-.29-.94,3.41-1.53-.15,4.33-15,1.53.15Zm-2-6.31-.41-5.76-1.55,5.56Z" style="fill:#ff3810"/><path d="M300,457.11l1.31,1.07a9.45,9.45,0,0,1-1.42,3.65,2.22,2.22,0,0,1-2,1q-1.4-.13-2.1-2.09a14.34,14.34,0,0,1-.47-6,15.13,15.13,0,0,1,1.55-6q1-1.84,2.52-1.71a2.35,2.35,0,0,1,1.88,1.62,8.76,8.76,0,0,1,.57,3.11l-1.49.6a4.69,4.69,0,0,0-.38-2,1.16,1.16,0,0,0-.9-.75c-.52,0-1,.32-1.4,1.09a11.51,11.51,0,0,0-.86,3.95,12.25,12.25,0,0,0,.12,4.15q.38,1.26,1.16,1.33c.38,0,.73-.2,1.06-.69A7.2,7.2,0,0,0,300,457.11Z" style="fill:#ff3810"/><path d="M303.32,463.05l1.1-15.3,1.44.11-.43,6,2.84.21.43-6,1.45.1-1.1,15.3-1.45-.1.48-6.69-2.84-.2-.48,6.69Z" style="fill:#ff3810"/><path d="M311.73,463.62l.83-15.32,1.45.08-.83,15.32Z" style="fill:#ff3810"/><path d="M315.81,463.83l.53-15.33,5.33.19-.09,2.59-3.88-.14-.12,3.4,3.61.13-.09,2.58-3.61-.12-.14,4.17,4,.14-.09,2.58Z" style="fill:#ff3810"/><path d="M325.54,464l-2.89-15.28,1.57,0L326.28,460l1.52-11.39,1.55,0L327.09,464Z" style="fill:#ff3810"/><path d="M331.59,463.83l-.69-15.32,1.45-.07.69,15.32Z" style="fill:#ff3810"/><path d="M335.65,463.63l-.5-15.33,1.41,0,3.28,10.14-.34-10.24,1.35,0,.5,15.33-1.46,0-3.22-9.9.33,10Z" style="fill:#ff3810"/><path d="M347.11,457.63,347,455l3.12-.19.37,6.1a4.87,4.87,0,0,1-1.24,1.75,2.74,2.74,0,0,1-1.69.8,2.45,2.45,0,0,1-1.93-.8,6.63,6.63,0,0,1-1.45-2.66,19.68,19.68,0,0,1-.52-8.61,6.84,6.84,0,0,1,1.09-2.76,2.35,2.35,0,0,1,1.78-1,2.38,2.38,0,0,1,2.13,1,7.36,7.36,0,0,1,1.2,3.3l-1.4.66a4.3,4.3,0,0,0-.7-1.77,1.24,1.24,0,0,0-1.06-.56q-.93.05-1.42,1.35a9.73,9.73,0,0,0-.34,3.87,11.08,11.08,0,0,0,.87,4.17c.4.81.91,1.19,1.52,1.16a1.47,1.47,0,0,0,.86-.4,3.31,3.31,0,0,0,.76-1l-.12-1.94Z" style="fill:#ff3810"/></svg>