<svg xmlns="http://www.w3.org/2000/svg" viewBox="0 0 595.28 841.89"><title>Argentina</title><path d="M483.9,467.39c0,134.66-82.09,243.87-183.14,243.87S117.61,602,117.61,467.39c0-134.9,82.09-244.11,183.14-244.11S483.9,332.49,483.9,467.39Z" style="fill:#fff"/><path d="M117.61,470.27c0-134.66,81.85-243.87,183.14-243.87,101.05,0,182.9,109.21,182.9,243.87v1.44l-182.9-1.44Z" style="fill:#75aadb"/><path d="M308.2,155.59,302.68,9.17s0-2.88-1.92-2.88-1.92,2.88-1.92,2.88l-5.52,146.42Zm0,0Z" style="fill:#fcbf49"/><path d="M308.2,155.59,302.68,9.17s0-2.88-1.92-2.88-1.92,2.88-1.92,2.88l-5.52,146.42m14.88,0Z" style="fill:none;stroke:#843511;stroke-width:0.5px"/><path d="M314.2,108.07c8.16-18.24,1-33.36,9.12-49.21,8.4-15.84,3.12-29.52,3.6-37,.48-7.2,6.48-9.36,4.8-11-1.44-1.68-7.68,1.68-10.08,11.52s3.6,15.36-6.48,34.8c-9.84,19.2-1.68,28.8-11.76,46.33Zm0,0Z" style="fill:#fcbf49"/><path d="M314.2,108.07c8.16-18.24,1-33.36,9.12-49.21,8.4-15.84,3.12-29.52,3.6-37,.48-7.2,6.48-9.36,4.8-11-1.44-1.68-7.68,1.68-10.08,11.52s3.6,15.36-6.48,34.8c-9.84,19.2-1.68,28.8-11.76,46.33m10.8,4.56Z" style="fill:none;stroke:#843511;stroke-width:0.5px"/><path d="M300.76,147.91l-140.42,5.76s-2.88,0-2.88,1.92,2.88,1.92,2.88,1.92l140.42,5.76Zm0,0Z" style="fill:#fcbf49"/><path d="M300.76,147.91l-140.42,5.76s-2.88,0-2.88,1.92,2.88,1.92,2.88,1.92l140.42,5.76m0-15.36Z" style="fill:none;stroke:#843511;stroke-width:0.5px"/><path d="M255.15,141.43c-17.52-8.64-32.16-1-47.29-9.36-15.12-8.64-28.32-3.12-35.28-3.6s-9.12-7-10.8-5.28,1.68,8.16,11,10.56c9.36,2.64,14.88-3.6,33.36,6.72,18.72,10.32,27.84,1.92,44.41,12.24Zm0,0Z" style="fill:#fcbf49"/><path d="M255.15,141.43c-17.52-8.64-32.16-1-47.29-9.36-15.12-8.64-28.32-3.12-35.28-3.6s-9.12-7-10.8-5.28,1.68,8.16,11,10.56c9.36,2.64,14.88-3.6,33.36,6.72,18.72,10.32,27.84,1.92,44.41,12.24m4.56-11.28Z" style="fill:none;stroke:#843511;stroke-width:0.5px"/><path d="M300.76,163.27l140.42-5.76s2.88,0,2.88-1.92-2.88-1.92-2.88-1.92l-140.42-5.76Zm0,0Z" style="fill:#fcbf49"/><path d="M300.76,163.27l140.42-5.76s2.88,0,2.88-1.92-2.88-1.92-2.88-1.92l-140.42-5.76m0,15.36Z" style="fill:none;stroke:#843511;stroke-width:0.5px"/><path d="M346.36,169.51c17.52,8.64,31.92,1,47.29,9.6,15.12,8.64,28.32,3.12,35.28,3.6s8.88,6.72,10.8,5.28c1.68-1.68-1.68-8.16-11-10.8-9.36-2.4-14.88,3.84-33.36-6.48-18.72-10.32-27.84-1.92-44.65-12.48Zm0,0Z" style="fill:#fcbf49"/><path d="M346.36,169.51c17.52,8.64,31.92,1,47.29,9.6,15.12,8.64,28.32,3.12,35.28,3.6s8.88,6.72,10.8,5.28c1.68-1.68-1.68-8.16-11-10.8-9.36-2.4-14.88,3.84-33.36-6.48-18.72-10.32-27.84-1.92-44.65-12.48m-4.32,11.28Z" style="fill:none;stroke:#843511;stroke-width:0.5px"/><path d="M306,160.87,401.33,53.34s1.92-1.92.72-3.36c-1.44-1.2-3.36.72-3.36.72L295.48,150.07Zm0,0Z" style="fill:#fcbf49"/><path d="M306,160.87,401.33,53.34s1.92-1.92.72-3.36c-1.44-1.2-3.36.72-3.36.72L295.48,150.07M306,160.87Z" style="fill:none;stroke:#843511;stroke-width:0.5px"/><path d="M342.52,131.83c18.24-6.72,23.28-22.8,39.85-28.08,16.56-5,22.32-18.72,27.36-23.52,5.28-4.56,11-1.68,11.28-4.08,0-2.4-6.72-4.56-15.12.48-8.4,5.28-7.92,13.68-28.08,19.92-20.16,6.48-20.88,19.2-39.85,24Zm0,0Z" style="fill:#fcbf49"/><path d="M342.52,131.83c18.24-6.72,23.28-22.8,39.85-28.08,16.56-5,22.32-18.72,27.36-23.52,5.28-4.56,11-1.68,11.28-4.08,0-2.4-6.72-4.56-15.12.48-8.4,5.28-7.92,13.68-28.08,19.92-20.16,6.48-20.88,19.2-39.85,24m4.56,11.28Z" style="fill:none;stroke:#843511;stroke-width:0.5px"/><path d="M306,150.07,202.83,50.7s-2.16-1.92-3.36-.72c-1.2,1.44.72,3.36.72,3.36l95.29,107.53Zm0,0Z" style="fill:#fcbf49"/><path d="M306,150.07,202.83,50.7s-2.16-1.92-3.36-.72c-1.2,1.44.72,3.36.72,3.36l95.29,107.53M306,150.07Z" style="fill:none;stroke:#843511;stroke-width:0.5px"/><path d="M278.2,112.15c-6.72-19-22.08-24.48-27.12-41.77-4.8-17-18-23-22.56-28.56-4.56-5.28-1.68-11.28-4.08-11.52-2.16,0-4.32,7,.72,15.6,4.8,8.64,13,8.4,19,29.28,6.24,21.12,18.48,21.84,23,41.53Zm0,0Z" style="fill:#fcbf49"/><path d="M278.2,112.15c-6.72-19-22.08-24.48-27.12-41.77-4.8-17-18-23-22.56-28.56-4.56-5.28-1.68-11.28-4.08-11.52-2.16,0-4.32,7,.72,15.6,4.8,8.64,13,8.4,19,29.28,6.24,21.12,18.48,21.84,23,41.53m11-4.56Z" style="fill:none;stroke:#843511;stroke-width:0.5px"/><path d="M307.48,158.47l48.73-137.3s1-2.64-.72-3.36-2.64,1.92-2.64,1.92L294,152.71Zm0,0Z" style="fill:#fcbf49"/><path d="M307.48,158.47l48.73-137.3s1-2.64-.72-3.36-2.64,1.92-2.64,1.92L294,152.71m13.44,5.76Z" style="fill:none;stroke:#843511;stroke-width:0.5px"/><path d="M330.52,117.19c14.4-13.68,13.2-30.72,26.64-42S370.85,49,374,42.54s9.36-6,8.64-8.4c-.72-2.16-7.92-1.44-13.68,6.72-5.76,7.92-2.4,15.6-18.72,29.52C334.12,84.3,338,96.3,322.36,108.55Zm0,0Z" style="fill:#fcbf49"/><path d="M330.52,117.19c14.4-13.68,13.2-30.72,26.64-42S370.85,49,374,42.54s9.36-6,8.64-8.4c-.72-2.16-7.92-1.44-13.68,6.72-5.76,7.92-2.4,15.6-18.72,29.52C334.12,84.3,338,96.3,322.36,108.55m8.16,8.64Z" style="fill:none;stroke:#843511;stroke-width:0.5px"/><path d="M303.64,148.39l-132-50.65s-2.4-1-3.12.72,1.68,2.88,1.68,2.88l127.7,61.21Zm0,0Z" style="fill:#fcbf49"/><path d="M303.64,148.39l-132-50.65s-2.4-1-3.12.72,1.68,2.88,1.68,2.88l127.7,61.21m5.76-14.16Z" style="fill:none;stroke:#843511;stroke-width:0.5px"/><path d="M263.79,124.39c-13-14.88-29.28-13.68-40.09-27.6-11-13.92-25.2-14.16-31.44-17.52-6.24-3.12-5.76-9.84-7.92-8.88-2.16.72-1.44,8.16,6.24,14.16s15.12,2.4,28.32,19.44c13.44,16.8,25,12.72,36.72,29Zm0,0Z" style="fill:#fcbf49"/><path d="M263.79,124.39c-13-14.88-29.28-13.68-40.09-27.6-11-13.92-25.2-14.16-31.44-17.52-6.24-3.12-5.76-9.84-7.92-8.88-2.16.72-1.44,8.16,6.24,14.16s15.12,2.4,28.32,19.44c13.44,16.8,25,12.72,36.72,29m8.16-8.64Z" style="fill:none;stroke:#843511;stroke-width:0.5px"/><path d="M297.88,162.55l132,50.65s2.4,1.2,3.12-.48c.72-1.92-1.92-2.88-1.92-2.88L303.64,148.39Zm0,0Z" style="fill:#fcbf49"/><path d="M297.88,162.55l132,50.65s2.4,1.2,3.12-.48c.72-1.92-1.92-2.88-1.92-2.88L303.64,148.39m-5.76,14.16Z" style="fill:none;stroke:#843511;stroke-width:0.5px"/><path d="M297.88,148.39l-127.7,61.45s-2.4,1-1.68,2.88c.72,1.68,3.12.48,3.12.48l132-50.65Zm0,0Z" style="fill:#fcbf49"/><path d="M297.88,148.39l-127.7,61.45s-2.4,1-1.68,2.88c.72,1.68,3.12.48,3.12.48l132-50.65m-5.76-14.16Z" style="fill:none;stroke:#843511;stroke-width:0.5px"/><path d="M253.47,160.63c-19.2-1-30,12-47,10.08-17.28-1.92-27.6,8.4-34.08,10.8-6.72,2.4-10.8-2.64-11.76-.48s4.56,6.72,14.16,5.28c9.36-1.44,12.24-9.12,33.12-7.2,20.88,2.16,26.4-9.12,45.61-6.24Zm0,0Z" style="fill:#fcbf49"/><path d="M253.47,160.63c-19.2-1-30,12-47,10.08-17.28-1.92-27.6,8.4-34.08,10.8-6.72,2.4-10.8-2.64-11.76-.48s4.56,6.72,14.16,5.28c9.36-1.44,12.24-9.12,33.12-7.2,20.88,2.16,26.4-9.12,45.61-6.24m0-12.24Z" style="fill:none;stroke:#843511;stroke-width:0.5px"/><path d="M303.64,162.55l127.46-61.21s2.64-1.2,1.92-2.88-3.12-.72-3.12-.72l-132,50.65Zm0,0Z" style="fill:#fcbf49"/><path d="M303.64,162.55l127.46-61.21s2.64-1.2,1.92-2.88-3.12-.72-3.12-.72l-132,50.65m5.76,14.16Z" style="fill:none;stroke:#843511;stroke-width:0.5px"/><path d="M348,150.31c19.2,1,30-11.76,47-10.08,17.28,1.92,27.36-8.4,34.08-10.8,6.48-2.16,10.8,2.88,11.76.72s-4.56-7-14.16-5.52-12.24,9.36-33.12,7.2c-21.12-2.16-26.4,9.36-45.61,6.24Zm0,0Z" style="fill:#fcbf49"/><path d="M348,150.31c19.2,1,30-11.76,47-10.08,17.28,1.92,27.36-8.4,34.08-10.8,6.48-2.16,10.8,2.88,11.76.72s-4.56-7-14.16-5.52-12.24,9.36-33.12,7.2c-21.12-2.16-26.4,9.36-45.61,6.24m0,12.24Z" style="fill:none;stroke:#843511;stroke-width:0.5px"/><path d="M307.48,152.71l-58.81-133s-1-2.64-2.64-1.92-.72,3.36-.72,3.36L294,158.47Zm0,0Z" style="fill:#fcbf49"/><path d="M307.48,152.71l-58.81-133s-1-2.64-2.64-1.92-.72,3.36-.72,3.36L294,158.47m13.44-5.76Z" style="fill:none;stroke:#843511;stroke-width:0.5px"/><path d="M295.72,106.38c1-20.16-11.28-31.2-9.6-49.21,1.92-18-8.16-28.56-10.32-35.52-2.16-6.72,2.64-11,.48-12.24-2.16-1-6.48,4.8-5.28,14.88,1.44,9.84,9.12,12.72,7,34.56-1.92,21.84,8.88,27.36,6,47.53Zm0,0Z" style="fill:#fcbf49"/><path d="M295.72,106.38c1-20.16-11.28-31.2-9.6-49.21,1.92-18-8.16-28.56-10.32-35.52-2.16-6.72,2.64-11,.48-12.24-2.16-1-6.48,4.8-5.28,14.88,1.44,9.84,9.12,12.72,7,34.56-1.92,21.84,8.88,27.36,6,47.53m11.76,0Z" style="fill:none;stroke:#843511;stroke-width:0.5px"/><path d="M304.36,155.59,300.76,55l-3.6,100.57Zm0,0Z" style="fill:#843511"/><path d="M300.76,151.75l-96.49,3.84,96.49,3.84Zm0,0Z" style="fill:#843511"/><path d="M300.76,159.43l96.49-3.84-96.49-3.84Zm0,0Z" style="fill:#843511"/><path d="M303.4,158.23l65.53-73.69-70.81,68.17Zm0,0Z" style="fill:#843511"/><path d="M303.4,152.71,232.59,84.54l65.53,73.69Zm0,0Z" style="fill:#843511"/><path d="M304.12,157l33.6-94.33L297.4,154.15Zm0,0Z" style="fill:#843511"/><path d="M302.2,152l-90.49-34.8L299.32,159Zm0,0Z" style="fill:#843511"/><path d="M299.32,159l90.49,35L302.2,152Zm0,0Z" style="fill:#843511"/><path d="M299.32,152l-87.61,42,90.49-35Zm0,0Z" style="fill:#843511"/><path d="M302.2,159l87.61-41.77L299.32,152Zm0,0Z" style="fill:#843511"/><path d="M304.12,154.15,263.79,62.7,297.4,157Zm0,0Z" style="fill:#843511"/><path d="M311.8,103.26c6.48-18.24-.48-30.48,8.16-46.09-9.84,11.52-3.12,25.68-11.52,44.41Zm0,0Z" style="fill:#843511"/><path d="M250.59,143.83c-17.52-6.48-29.28.72-44.41-8.4,11.28,10.32,24.72,3.36,42.73,12Zm0,0Z" style="fill:#843511"/><path d="M350.92,167.11c17.52,6.72,29.28-.72,44.17,8.4-11-10.08-24.48-3.12-42.49-12Zm0,0Z" style="fill:#843511"/><path d="M344.2,126.79c16.8-8.16,20.16-21.84,37-26.64-14.88,1-19.68,15.84-38.4,22.8Zm0,0Z" style="fill:#843511"/><path d="M273.15,110.47C265.23,92.7,252,89.34,247.47,71.82c1,15.36,15.36,20.4,22.08,39.85Zm0,0Z" style="fill:#843511"/><path d="M330.28,111.67c12.48-14.16,10.56-28.32,24.24-39.36-13.2,6.72-12.24,22.56-26.88,36.48Zm0,0Z" style="fill:#843511"/><path d="M258.51,124.87c-13.68-13.2-27.12-11-37.68-25.44,6.48,13.68,21.6,12.72,35,28.08Zm0,0Z" style="fill:#843511"/><path d="M250.11,164.71c-18.48,1-26.64,12.24-43.93,10.08,13.92,4.8,24-7,43.69-6Zm0,0Z" style="fill:#843511"/><path d="M351.4,146.23c18.48-.72,26.64-12.24,43.93-9.84-13.92-5-24,6.72-43.69,6Zm0,0Z" style="fill:#843511"/><path d="M291.88,102.78c-1-19.44-11.76-27.84-9.6-45.85-4.8,14.64,6.48,25,5.76,45.61Zm0,0Z" style="fill:#843511"/><path d="M355.73,155.59c0-31.68-24.48-57.37-55-57.37s-55.21,25.68-55.21,57.37,26.88,55.69,57.37,55.69S355.73,187.28,355.73,155.59Z" style="fill:#fcbf49;stroke:#843511;stroke-width:0.5px"/><path d="M338.44,142.15c-10.56-9.6-24-11-31.2-3.84-1.44,2.4-3.12,5.28-3.6,7.92-.72,5.52,1.2,11.76,4.8,17.52a4.13,4.13,0,0,0-1.68,1c-3.6-7.2-5-14.88-3.84-21.84.24-1.68,1.2-3.6,1.44-5C314.44,128.71,328.36,127.75,338.44,142.15Z" style="fill:#843511"/><path d="M321.88,139.27c-6,0-7.44,1.44-10.08,3.84-2.88,2.4-4.08,1.92-4.56,2.4s0,1.92,1,1.44a30.47,30.47,0,0,0,5.28-3.84c2.88-2.4,5.52-2.4,8.4-2.4,8.16,0,12.72,7.2,13.68,6.72S331,139.27,321.88,139.27Z" style="fill:#843511"/><path d="M332.44,147.43c-6-6.72-17-7.2-21.6.48h1.92c4.56-7.68,15.6-4.32,16.32-1v1Zm0,0Z" style="fill:#843511"/><path d="M325,147a4.11,4.11,0,0,0-4.08-4.32,4.33,4.33,0,0,0,0,8.64A4.11,4.11,0,0,0,325,147Z" style="fill:#843511"/><path d="M310.84,147.91c4.56,4.32,14.64,4.8,21.6-.48l-3.36-.48c-4.56,5.28-11.76,4.8-16.32,1v-1Zm0,0Z" style="fill:#843511"/><path d="M332.92,149.83c-7.92,6.24-15.6,5.76-20.16,2.88s-4.56-3.84-3.84-3.84c1,0,1.92,1,5.52,2.88C318.28,153.67,323.8,153.67,332.92,149.83Z" style="fill:#843511"/><path d="M310.36,164.23a2.6,2.6,0,0,1,1.92,2.64,2.92,2.92,0,0,1-2.88,2.88,2.72,2.72,0,0,1-2.64-2.88,6.7,6.7,0,0,1-6,4.08h-1l.24,1.2h.72a10.9,10.9,0,0,0,5.52-1.2,4.2,4.2,0,0,0,3.36,1.68,4.26,4.26,0,0,0,4.08-4.32,4.13,4.13,0,0,0-3.36-4.08Zm0,0Z" style="fill:#843511"/><path d="M262.35,142.15c10.56-9.6,24-11,31.2-3.84a21.38,21.38,0,0,1,3.6,7.92c.72,5.52-1.2,11.76-4.8,17.52a3,3,0,0,1,1.68,1c3.6-7.2,5-14.88,3.84-21.84-.24-1.68-1.2-3.6-1.44-5C286.36,128.71,272.43,127.75,262.35,142.15Z" style="fill:#843511"/><path d="M278.92,139.27c6,0,7.44,1.44,10.08,3.84,2.88,2.4,4.08,1.92,4.56,2.4s0,1.92-.72,1.44a22.71,22.71,0,0,1-5.52-3.84c-2.88-2.4-5.52-2.4-8.4-2.4-8.16,0-12.72,7.2-13.68,6.72S269.79,139.27,278.92,139.27Z" style="fill:#843511"/><path d="M268.35,147.43c6-6.72,17-7.2,21.6.48H288c-4.56-7.68-15.6-4.32-16.32-1v1Zm0,0Z" style="fill:#843511"/><path d="M275.8,147a4.26,4.26,0,0,1,4.08-4.32,4.33,4.33,0,0,1,0,8.64A4.26,4.26,0,0,1,275.8,147Z" style="fill:#843511"/><path d="M290,147.91c-4.56,4.32-14.64,4.8-21.6-.48l3.36-.48c4.56,5.28,11.76,4.8,16.32,1v-1Zm0,0Z" style="fill:#843511"/><path d="M267.87,149.83c7.92,6.24,15.6,5.76,20.16,2.88,4.8-2.88,4.8-3.84,3.84-3.84s-1.92,1-5.52,2.88S277.24,153.67,267.87,149.83Z" style="fill:#843511"/><path d="M290.44,164.23a2.6,2.6,0,0,0-1.92,2.64,3.1,3.1,0,0,0,2.88,2.88,2.72,2.72,0,0,0,2.64-2.88,6.7,6.7,0,0,0,6,4.08h1l-1,1.2a10.9,10.9,0,0,1-5.52-1.2,4.2,4.2,0,0,1-3.36,1.68,4.26,4.26,0,0,1-4.08-4.32,4.13,4.13,0,0,1,3.36-4.08Zm0,0Z" style="fill:#843511"/><path d="M326.44,350.26c-17-2.64-34.8-3.84-54.73.48C192.5,384.58,420.05,379.78,326.44,350.26Z" style="fill:#d40000"/><path d="M293.56,349.3,294,681c0,4.8,3.6,8.64,7.68,8.64s7.44-3.84,7.44-8.64l-.48-331.72Zm0,0Z" style="fill:#c87137"/><path d="M293.56,349.3,294,681c0,4.8,3.6,8.64,7.68,8.64s7.44-3.84,7.44-8.64l-.48-331.72m-15.12,0Z" style="fill:none;stroke:#ce9548;stroke-linecap:round;stroke-linejoin:bevel;stroke-width:0.75px"/><line x1="304.6" y1="599.65" x2="304.6" y2="683.42" style="fill:none;stroke:#ffbf00;stroke-linejoin:bevel"/><line x1="304.36" y1="350.02" x2="304.36" y2="468.83" style="fill:none;stroke:#ffbf00;stroke-linejoin:bevel"/><path d="M295.72,349.06l.24,15.6s5.28-4.08,10.56,0l.72-15.36Zm0,0Z" style="fill:#8a5b29"/><path d="M263.31,286.41c.72,2.16-.48,4.56,3.36,6.24,6.72,1.44,8.16-.24,12-1.44-1.68,2.4-5.28,10.08-9.12,17.76-5.28,8.4-6,15.12-2.4,13.44,26.16,6.72,52.57,1.92,79,2.88C337,287.61,322.36,238.4,283,260.72,274.59,266.73,265.23,271.29,263.31,286.41Z" style="fill:#f82323"/><path d="M266.19,292.41a11.92,11.92,0,0,0,12.24-.72c8.4-10.08,17-14.16,24.48-15.12-6.72-1.2-14.16-4.8-24,9.36C274.83,286.65,270.51,288.81,266.19,292.41Z" style="fill:#d40000"/><path d="M279.16,308.49c-12,7.68,14.64-5.28,38.16-2.16C311.32,299.61,304.84,293.85,279.16,308.49Z" style="fill:#d40000"/><path d="M265,285.69l.24,6.24c-.72,11.52-10.32,17-16.56,11.76C243.15,293.37,257.55,286.65,265,285.69Z" style="fill:#f82323"/><path d="M254.67,364.42l-1-32.16c2.4-6.48,7.44-9.12,13-10.32,23.28-4.56,48.25-3.84,74.17.72,5.52,1.44,10.32,4.08,12,9.84-1.68,8.4,2.16,27.6-4.56,33.84a6.53,6.53,0,0,0,0-2.16C321.4,344.26,270,350.26,254.67,364.42Z" style="fill:#ff2a2a"/><line x1="304.36" y1="468.59" x2="304.6" y2="540.36" style="fill:none;stroke:#ffbf00;stroke-linejoin:bevel"/><path d="M250.59,595.57a29.94,29.94,0,0,0,6.48-7.44l11.76-.48a21.73,21.73,0,0,1-9.12,10.08C255.63,599.65,253,598.45,250.59,595.57Z" style="fill:#e68a5d"/><path d="M250.11,596l.24-1a33.42,33.42,0,0,0,6.24-7.2l.48-.48,11.76-.24.72.72a22.18,22.18,0,0,1-9.6,10.32C255.63,600.37,252.51,599.17,250.11,596Zm7.92,1.68,1.44-.48,2.88-1.92a21.83,21.83,0,0,0,4.32-5l1.2-1.92-10.32.24-2.64,3.6-3.36,3.36-.48-.48C253,597.49,255.15,598.69,258,597.73Z" style="fill:#7f4100"/><path d="M138.26,580.69l.24-.72a1175.86,1175.86,0,0,0,124.82-27.6,77.28,77.28,0,0,1,19.44-9.6c9.84.48,19,1.68,27.84,2.88l40.33,48.25-3.36,4.32,1.68,1.92-5.28,3.6-5.28-2.64c-1,5-4.56,5.76-9.12,4.8-3.6,3.36-7.2,4.8-11.28,2.16l-6.72,3.36-13.44-4.32a362.47,362.47,0,0,1-37.68-17.76L160.34,626.05,157,621A234.58,234.58,0,0,1,138.26,580.69Z" style="fill:#f1bd89"/><path d="M161.54,626.29c38.4-14.64,58.09-25,98.65-37.44h.48c9.12,4.8,18.24,9.36,27.84,13.68l9.84,4.08,13.2,4.08,6.48-3.12h.48c3.84,2.4,7.2,1.2,10.56-2.16l.48-.24c4.56,1,7.68.24,8.64-4.32l.72-.48,5,2.64,6.24-9.12-40.09-47.53-13.2-1.92a63.41,63.41,0,0,0-7-.48l-7.2-.72-5,1.92a64.83,64.83,0,0,0-13.92,7.68h-.24c-41,11.76-85.45,20.64-126,27.12l-.72-1.2c34.8-5.52,71.53-12.48,106.33-21.6l19.92-5.28,4.32-2.88a86.3,86.3,0,0,1,15.12-7h.24c10.08.72,19,1.68,27.84,3.12l.48.24,40.33,48v.72l-1.68,5.76-5.52,4.32h-.48l-4.56-2.4-.24,1.2c-1.2,2.88-3.6,3.84-6.24,3.84l-2.88-.48-2.64,2.16a8.73,8.73,0,0,1-7.68,1l-1.2-.72-6.48,3.12h-.24l-13.68-4.32a311.75,311.75,0,0,1-28.56-13L260.43,590l-17.28,5.52c-34.8,12.24-47.29,19.92-81.13,32.64Z" style="fill:#7f4100"/><path d="M152.9,614l98.17-28.32,8.88-.48,49.93,21.6a3.92,3.92,0,0,0,3.6-2.64c1.2,1.2,2.4,1.92,2.88,2.88l.72,1-5.52,2.64-13.2-4.08-9.84-4.08c-9.6-4.32-18.72-8.88-27.84-13.68h-.48c-16.32,5-32.4,10.8-48,17.28l-50.65,20.64Z" style="fill:#e68a5d"/><path d="M311.08,600.85c3.6-1,7.68-2.64,10.08-5.28a47.58,47.58,0,0,1,6.24,7.92l1.2,2.4a8.44,8.44,0,0,1-2.16,1.68C321.64,612.37,315.4,605.41,311.08,600.85Z" style="fill:#e68a5d"/><path d="M331.24,605.41h-.72l-.72.24c-3.12-2.4-6.72-8.64-8.88-11.28,3.12.48,6-1.44,9.12-5.28,2.4,2.4,5.28,7,7.44,10.32l.72,1.44h0C337.48,604.93,334.84,605.89,331.24,605.41Z" style="fill:#e68a5d"/><path d="M344,603l-4.08-1.92c-5-4.8-7.68-9.12-12.24-14.4,3.6-.48,6.72-3.12,9.36-6,3.84,6.48,11.76,10.32,11.28,19.2l-.48.48Z" style="fill:#e68a5d"/><polygon points="317.8 608.53 299.08 592.21 300.04 591.25 318.52 607.57 317.8 608.53" style="fill:#7f4100"/><path d="M303.64,580.21l.72-.72c6,7.44,17.76,12.72,25.68,25.92l-1.2.48C320.92,592.45,310.12,588.61,303.64,580.21Z" style="fill:#7f4100"/><path d="M315.88,576.12l1-.72c6,9.12,15.6,12.24,22.56,25.2l-1,.72C331.24,588.13,322.12,585.73,315.88,576.12Z" style="fill:#7f4100"/><path d="M348.76,598a93.44,93.44,0,0,0-16.8-23,47.53,47.53,0,0,1-13-11.28,48.06,48.06,0,0,1-9.6-5.76,20.88,20.88,0,0,1-7.92-2.16,80.44,80.44,0,0,1-14.16,7.44c-5.52-.72-9.36-1.92-7.92-5.76A50,50,0,0,0,289.24,544c1-1.44,2.88-2.16,6.24-3.12,2.4-.24,11-.24,18.48,0,6.72,2.64,25.44,13.2,37.2,22.8,35.52,7,64.33,17,101.29,25l5,1-4.56,10.56c-5,13.2-11.76,22.56-18.24,32.4C401.81,617.89,377.81,606.13,348.76,598Z" style="fill:#f1bd89"/><path d="M356.21,599.65l-7.2-2.16L345.88,592l-2.64-4.32,102,29-4.32,6.24c-.24,3.36-4.32,6-5,9.36l-2.16-1.2C406.85,619.09,380.45,607.09,356.21,599.65Z" style="fill:#e68a5d"/><path d="M338.68,581.41l-.24-.24a79.91,79.91,0,0,0-6-6.72h0a51.61,51.61,0,0,1-13-11l-.24-.24a39.71,39.71,0,0,1-9.36-5.76l-.48-.24a21.12,21.12,0,0,1-7.68-1.92h-.48c-2.4,1.44-4.8,2.88-7.2,4.08l-4.32,1.92-1-.72c3.84-3.12,9.84-6,8.88-10.8,3.6,1.68,11.76,4.8,15.84,3.6,2.16-.72,3.36,4.32,5.28,4.56,0,7.2,18,17,28.8,13.68Z" style="fill:#e68a5d"/><path d="M260,597.49l18.72-8.88c3.6,1,6,2.64,6,7.44A48.79,48.79,0,0,1,270,605.89C262.59,605.17,260.19,601.81,260,597.49Z" style="fill:#f1bd89"/><path d="M259.23,597.49l.48-.72,18.72-8.64h.48c3.6,1,6.48,2.88,6.24,7.92l-.24.48a48.79,48.79,0,0,1-14.64,9.84H270C262.11,605.89,259.71,602.29,259.23,597.49Zm10.8,7.68,4.08-1.92a30.48,30.48,0,0,0,7-5l2.88-2.4v-1.2a5.45,5.45,0,0,0-3.12-4.56l-2.16-.72-18,8.4v1.2c.48,2.88,2.4,5,7,6Z" style="fill:#7f4100"/><path d="M270,605.17l-2.4-.24c-4.56-1-6.48-3.12-7-6v-1.2l6.48-3.12.72,1.44c1.68,3.36,4.56,6.48,9.36,5v.24l-3.12,1.92Z" style="fill:#e68a5d"/><path d="M273.15,604.21l13.44-12c4.56-1.44,7.2,1.44,8.4,4.08l-10.32,14.64C278.68,611.17,275.55,608.77,273.15,604.21Z" style="fill:#f1bd89"/><path d="M272.67,604.45l.24-.72,13.2-12,.24-.24c5-1.44,7.92,1.92,9.12,4.56v.72l-10.32,14.64-.48.24C278.44,611.89,275.07,609.25,272.67,604.45Zm11.52,6,10.08-14.16-1-1.44a5.74,5.74,0,0,0-5-2.4l-1.44.24-12.72,11.76,1.44,2.4c1.68,2.16,3.84,3.12,7,3.36Z" style="fill:#7f4100"/><path d="M284.2,610.45l-1.68-.24c-3.12-.24-5.28-1.2-7-3.36l-1.44-2.4,3.6-3.6,1.2,1.68a10.3,10.3,0,0,0,6.24,4.08l1.92-.24Z" style="fill:#e68a5d"/><path d="M284.92,611.41,295,597a7.54,7.54,0,0,1,6,4.08c-1,4.56-3.84,9.12-8.4,13.92C288.28,614.29,285.16,613.33,284.92,611.41Z" style="fill:#f1bd89"/><path d="M284.44,611.65v-.48l10.08-14.4.48-.24a7.41,7.41,0,0,1,6.48,4.08l.24.48c-1,4.8-4.08,9.6-8.64,14.16l-.48.24C288.52,615,284.68,614,284.44,611.65Zm7.92,2.64,2.88-3.12a27.52,27.52,0,0,0,4.32-7l1-3.12-1.2-1.44a6,6,0,0,0-2.88-1.68l-1.2-.24-9.6,13.92.48.72a8.86,8.86,0,0,0,3.6,1.44Z" style="fill:#7f4100"/><path d="M292.36,614.29l-2.64-.48a8.86,8.86,0,0,1-3.6-1.44l-.48-.72,3.36-4.8.24.24a11.16,11.16,0,0,0,5,3.12H296l-.72,1Z" style="fill:#e68a5d"/><path d="M348,598.45a88.47,88.47,0,0,0-11.28-17.28l-5-5.76-4.08-2.64a55.7,55.7,0,0,1-6.72-5.76l-2.16-2.88-2.88-1.44a28.08,28.08,0,0,1-4.8-2.88l-1.92-1.44-2.4-.24c-.72-.24-1.44-.24-1.92-.48l-3.36-1.2-6.72,3.84c-2.4,1.2-4.8,2.4-7.2,3.36h-.24c-5-.48-10.32-1.92-8.4-6.48l.24-.24c3.36-3.12,6.48-7.68,9.6-13.2v-.24c1.2-1.44,3.36-2.4,6.72-3.12h0c2.4-.24,11-.24,18.48,0h.24c6,2.16,21.12,10.56,32.64,19.2l4.56,3.6L369.17,567c25.68,5.76,51.61,13.44,78.25,19.68l10.8,2.64-1,.72-5.28-1.2c-34.56-7.68-67.69-18-100.81-24.48l-.24-.24c-11-9.12-28.32-18.72-35.76-22.08l-1.44-.48-5.52-.24H296.68l-1,.24-2.16.48a12.84,12.84,0,0,0-3.12,1.44l-.72.72-2.16,4.08a54.39,54.39,0,0,1-5,6.72l-2.4,2.64-.24,1c-.24,1.92,1.68,2.88,5.52,3.6l1.92.24,6.72-3.12c2.4-1.2,4.8-2.64,7.2-4.08h.48a21.12,21.12,0,0,0,7.68,1.92l.48.24a39.71,39.71,0,0,0,9.36,5.76l.24.24a51.61,51.61,0,0,0,13,11h0A85.51,85.51,0,0,1,345.88,592l3.12,5.52,7.2,2.16c24.24,7.44,52.81,20.16,79.69,32.4l-.72,1C407.09,621,380.69,607.81,348,598.45Z" style="fill:#7f4100"/><path d="M284.92,551.88l6,1.44c-1.44,3.36-5.76,8.16-10.8,4.32C287.32,550,283.48,553.8,284.92,551.88Z" style="fill:#ffe6d5"/><path d="M274.35,592.21c3.6,4.8,4.08,4.8,4.08,4.8,1.2-1,2.64-1.68,2.88-3.12-.48-1.2-.24-2.16-3.12-3.36Z" style="fill:#fae4d4"/><path d="M284.92,596c3.36,3.36,4.56,3.12,5.28,3.6,1-1,1.2-1.68,1.68-2.16a2.6,2.6,0,0,0,0-2.64c-1-1-3.12-2.16-4.08-1.44C286.84,593.65,286.12,594.37,284.92,596Z" style="fill:#fae4d4"/><path d="M293.8,601.33c2.16,2.16,3.84,2.16,4.08,2.16a4.56,4.56,0,0,0,1.44-2.4,4.18,4.18,0,0,0-4.08-1.92Z" style="fill:#ffe6d5"/><path d="M341.32,600.13c.72-3.12,4.8-3.12,4.8-3.12a3.86,3.86,0,0,1,1,2.64,10.92,10.92,0,0,1-2.88,2.16C343.48,601.33,342.76,601.57,341.32,600.13Z" style="fill:#fca"/><path d="M483.66,468.59c0,134.66-81.85,243.87-182.9,243.87-101.29,0-183.14-109.21-183.14-243.87,0-134.9,81.85-244.11,183.14-244.11,101.05,0,182.9,109.21,182.9,244.11Z" style="fill:none;stroke:#f2ce67;stroke-width:4px"/><path d="M323.8,186.8c-6.48,13.44,7.44,2.64,4.08,9.36,2.64-4.08,20.4,2.64,20.64-1.44Z" style="fill:#66a72e;stroke:#0b572f;stroke-linecap:round;stroke-linejoin:round;stroke-width:2px"/><path d="M344.44,183c-41-17-58.33,3.6-106.33,11.28v3.36c2.88-.72,58.33-2.16,56.65,0l45.37,9.84c-.48-6.48-5.28-12.24-16.32-17.28C329.32,187.28,336.76,185.11,344.44,183Z" style="fill:#66a72e;stroke:#0b572f;stroke-linecap:round;stroke-linejoin:round;stroke-width:2px"/><path d="M239.07,196.4V195l7-1.2h.24c9.36.24,18.72,0,27.6-.24A230.47,230.47,0,0,1,337.24,183h3.6l-7.92,2.4a72.16,72.16,0,0,0-9.6,4.08c-.48,0-.72.48-.48.72v.24l-4.56,1a155.35,155.35,0,0,1-19.2,2.4c14.88.72,28.32,3.36,38.4,10.56l1.2,1h0l.24,1-43.45-9.36-.48-.48c-3.6-1.68-42.49-.72-54,0Z" style="fill:#007f01"/><path d="M392.21,225.92c-21.36-6.72-44.41-9.12-55.45-34.32,27.12-13.44,42.49,6,55.21,34.08Zm0,0Z" style="fill:#66a72e"/><path d="M392.21,225.92c-21.36-6.72-44.41-9.12-55.45-34.32,27.12-13.44,42.49,6,55.21,34.08m.24.24Z" style="fill:none;stroke:#0b572f;stroke-linecap:round;stroke-linejoin:round;stroke-width:2px"/><path d="M340.6,197.6,338,192.32l1-.24c13-.48,30.24,10.8,50.89,32.16l-13.68-4.08C362.21,216.32,349.24,211.28,340.6,197.6Z" style="fill:#007f01"/><path d="M519.67,528.84c-12-20.64-27.6-39.36-23.52-68.17,25.92,8.64,27.84,36,23.52,67.93Zm0,0Z" style="fill:#66a72e"/><path d="M519.67,528.84c-12-20.64-27.6-39.36-23.52-68.17,25.92,8.64,27.84,36,23.52,67.93m0,.24Z" style="fill:none;stroke:#0b572f;stroke-linecap:round;stroke-linejoin:round;stroke-width:2px"/><path d="M496.14,468.35l.48-6,.72.24,3.6,9.12c6,15.6,11.28,31.68,16.08,48l1.92,6.24-8.16-13.2C502.62,499.31,495.66,485.87,496.14,468.35Z" style="fill:#007f01"/><path d="M330.52,212c-23,.48-46.57,5.28-65.53-13.68,22.8-19.92,44.41-7.44,65.29,13.44Zm0,0Z" style="fill:#66a72e"/><path d="M330.52,212c-23,.48-46.57,5.28-65.53-13.68,22.8-19.92,44.41-7.44,65.29,13.44m.24.24Z" style="fill:none;stroke:#0b572f;stroke-linecap:round;stroke-linejoin:round;stroke-width:2px"/><path d="M270.75,202.4l-4.08-3.84.72-.48,8.88,1.44c15.6,2.64,30.72,6,45.85,10.08l5.76,1.44-14.88.72C298.12,212.48,283.48,211.76,270.75,202.4Z" style="fill:#007f01"/><path d="M107.05,468.35c-3.6,30-1.68,61.45-30,82.57-21.6-32.88-1.44-58.57,29.76-82.33Zm0,0Z" style="fill:#66a72e"/><path d="M107.05,468.35c-3.6,30-1.68,61.45-30,82.57-21.6-32.88-1.44-58.57,29.76-82.33m.24-.24Z" style="fill:none;stroke:#0b572f;stroke-linecap:round;stroke-linejoin:round;stroke-width:2px"/><path d="M83.53,544.2,78,549l-.72-1.2,3.36-11.28c6.24-19.44,13.68-38.64,21.6-57.61l3.12-7.2-1.92,19.44C101.53,510.6,98.17,529.32,83.53,544.2Z" style="fill:#007f01"/><path d="M293.32,174.07c-44.17-2.88-47,19.92-90.49,42.73l1,3.12c2.64-1.44,54.73-20.88,53.77-18.24l46.09-5.28c-2.4-5.76-8.64-9.84-20.64-11C287.32,180.79,286.84,178.39,293.32,174.07Z" style="fill:#66a72e;stroke:#0b572f;stroke-linecap:round;stroke-linejoin:round;stroke-width:2px"/><path d="M204.51,218.72l-.48-1.44,6.24-3.6h.24c8.88-2.88,17.52-6,26.16-9.12,10.08-13.68,24-23.52,55-30l-3.36,2.64c-2.88,2.4-3.84,6.24-6,8.4-.48.48-.48-.24-.24,0v.24l-3.84,2.4c-5.52,2.88-11.28,5.76-17.52,8.4,14.4-4.08,27.6-5.76,39.61-2.4l1.44.48h0l.48,1-44.17,5-.48-.24c-3.84-.48-40.57,13-51.37,17.52Z" style="fill:#007f01"/><path d="M277,208.88c-24.72,5.76-50.17,14.64-67.69,6.48C235.95,196.64,257.07,200,277,208.88Z" style="fill:#66a72e;stroke:#0b572f;stroke-linecap:round;stroke-linejoin:round;stroke-width:2px"/><path d="M214.59,216.56l-3.84-1.44.72-.48,9.36-1.2c16.08-1.92,31.68-3.12,47.29-4.08l6-.24L258.27,213C242.19,216.8,227.07,219.92,214.59,216.56Z" style="fill:#007f01"/><path d="M178.1,237.68c18-27.12,41.77-50.65,73.21-69.61-12.24,48-31.68,31.68-59.53,66.73Z" style="fill:#66a72e;stroke:#0b572f;stroke-linecap:round;stroke-linejoin:round;stroke-width:2px"/><path d="M186.5,240.56l-2.88-1.44L249.39,171,248,176c-11.28,35.52-18.48,19-56.89,58.81Z" style="fill:#007f01"/><path d="M178.82,199c-10.08,31.68-18,65.29-37.2,83.29C140.66,243.44,157.46,219.44,178.82,199Z" style="fill:#66a72e;stroke:#0b572f;stroke-linecap:round;stroke-linejoin:round;stroke-width:2px"/><path d="M142.34,280.17V279l4.8-11c8.4-19.92,17.28-39.36,26.4-58.33l2.88-5.76-5.76,18.72c-7,21.84-14.16,42.25-26.16,55.69Z" style="fill:#007f01"/><path d="M210,197.6c-16.56,25.2-31.2,54-54,61C163,220.4,184.58,206,210,197.6Z" style="fill:#66a72e;stroke:#0b572f;stroke-linecap:round;stroke-linejoin:round;stroke-width:2px"/><path d="M157,257.6l.24-1.44,7.2-8.64c12.48-14.88,25.2-28.8,38.16-42.49l5-5.28-10.56,16.56c-11,17.52-22.56,33.6-37.2,40.09Z" style="fill:#007f01"/><path d="M222.75,233.84c-26.88,17.28-53.29,38.64-78,36.24C168,236.48,194.9,231.44,222.75,233.84Z" style="fill:#66a72e;stroke:#0b572f;stroke-linecap:round;stroke-linejoin:round;stroke-width:2px"/><path d="M151.7,269.37h-5.52l.72-1.2,10.8-5.28c18.24-9.12,36.48-17.28,54.73-25l7-2.88-17.28,11.52C184.82,258.08,168,268.17,151.7,269.37Z" style="fill:#007f01"/><path d="M150.74,247.52c-8.64,27.12-15.36,56.17-32.16,71.77C117.85,285.69,132.26,265,150.74,247.52Z" style="fill:#66a72e;stroke:#0b572f;stroke-linecap:round;stroke-linejoin:round;stroke-width:2px"/><path d="M119.54,317.37v-1l3.84-9.6c7.44-17.28,15.12-33.84,22.8-50.17l2.4-5-5,16.32c-5.28,16.8-10.8,32.88-19.68,44.41Z" style="fill:#007f01"/><path d="M127.7,248c.24,25.68,3.6,52.81-9.36,68.41C104.65,285.45,113.29,265.53,127.7,248Z" style="fill:#66a72e;stroke:#0b572f;stroke-linecap:round;stroke-linejoin:round;stroke-width:2px"/><path d="M118.58,315l-.48-1,1-9.6c1.68-16.32,4.08-32.16,7-47.77l1-6,.48,16.8c.48,17.52,0,34.08-7.44,45.61Z" style="fill:#007f01"/><path d="M182.18,263.12c-20.64,23.28-39.61,50.65-63.85,54.73C131.06,279.93,155.06,268.17,182.18,263.12Z" style="fill:#66a72e;stroke:#0b572f;stroke-linecap:round;stroke-linejoin:round;stroke-width:2px"/><path d="M119.54,316.89l.48-1.44,8.64-7.68c14.88-13.44,29.76-25.92,44.89-38.16L179.3,265l-13,15.36c-13.92,16.32-27.84,31-43.69,35.76Z" style="fill:#007f01"/><path d="M102.25,296.49c-1.92,19.44,18.48,34.08-11,54C84.73,331.05,83.53,310.65,102.25,296.49Z" style="fill:#66a72e;stroke:#0b572f;stroke-linecap:round;stroke-linejoin:round;stroke-width:2px"/><path d="M99.37,300.09l.24-.24,1.44-1.2v1.44c.48,17.28,14.64,29.52-5.52,46.09l-2.16,1.68.48-1.44c4.8-14.88,2.16-29,4.8-42.73Z" style="fill:#007f01"/><path d="M78.49,417.7c3.6-16.56,7.2-33.36,5.28-49-12.24-23-3.36-32.4-6-53,8.64,6.48,16.08,15.6,18.24,25.44,3.12-13.68,10.8-26.4,17.52-36,2.88,10.08,5.76,19.92,5.28,31,9.12-8.4,18-9.36,27.12-10.08-27.84,21.12-8.4,35.52-50.65,66.73L85.21,422.51Z" style="fill:#66a72e;stroke:#0b572f;stroke-linecap:round;stroke-linejoin:round;stroke-width:2px"/><path d="M84,420.1l6.24-29.28c22.08-16.8,29-51.13,48.49-62.41l1.92-1h2.4l-2.4,1.92c-21.36,19.2-6.24,33.36-45.85,62.65-.24.24-.48.24-.48.48l-9.12,27.12Zm-5-102,4.32,3.6c5.76,5.76,10.32,12.48,11.76,19.68a.84.84,0,0,0,1.44.48h0v.24c3.36,10.56,2.88,24-3.6,43.21-2.64-21.12-5-40.81-11.28-60.25Zm34.08-10.56v-.24l1.44,4.8,1,4.8a87.59,87.59,0,0,1,2.16,15.36l.24,1.68v3.12c.24,16.08-5,29.52-21.36,38.16a254.08,254.08,0,0,0,14.16-51.61Z" style="fill:#007f01"/><path d="M49.21,376.42c16.32,44.17,37.92,88.81,28.8,126C39.61,459.95,39.36,417.94,49.21,376.42Z" style="fill:#66a72e;stroke:#0b572f;stroke-linecap:round;stroke-linejoin:round;stroke-width:2px"/><path d="M77.29,500.27,72,494l-2.16-2.88-3.12-10.08a396.19,396.19,0,0,1-17-89.05l-.48-10.08.24-2.16,11.52,30C72.49,440,82.09,469.31,78.25,495.23Z" style="fill:#007f01"/><path d="M117.37,394.18c-2.4,23.52-23.52,49-47.77,69.61C59.53,443.15,98.65,416,117.37,394.18Z" style="fill:#66a72e;stroke:#0b572f;stroke-linecap:round;stroke-linejoin:round;stroke-width:2px"/><path d="M70.09,462.11l-.72-1.68L115.93,398v.24c-4.08,19.2-19.44,39.36-38.16,56.89Z" style="fill:#007f01"/><path d="M76.09,373.3c6,36.48,17,74.89,0,100.33C48.25,433.07,57.37,402.1,76.09,373.3Z" style="fill:#66a72e;stroke:#0b572f;stroke-linecap:round;stroke-linejoin:round;stroke-width:2px"/><path d="M76.09,471.71l-1-1.2-.48-14.16c-.72-23.76-.24-47,.72-70.09l.48-9.12,4.32,23.76c4.32,25.2,7.2,49-2.16,67.45Z" style="fill:#007f01"/><path d="M100.81,393.46c-6,36.24-9.6,74.89-25.92,97.21C69.37,447.47,82.57,418.66,100.81,393.46Z" style="fill:#66a72e;stroke:#0b572f;stroke-linecap:round;stroke-linejoin:round;stroke-width:2px"/><path d="M75.61,487.79l-.24-1.44,3.12-12.48C84.25,450.59,90.49,428,97,405.7l1.92-5.76-3.36,20.64c-3.84,25-8.4,48.73-18.72,65Z" style="fill:#007f01"/><path d="M45.61,468.83C70.33,490,82.81,532,87.37,573.48,55.93,568,55.69,505.56,45.61,468.83Z" style="fill:#66a72e;stroke:#0b572f;stroke-linecap:round;stroke-linejoin:round;stroke-width:2px"/><path d="M85.69,571.56l-2.4-.72L49,473.87h0c18.72,19,29.76,50.89,35,84.25Z" style="fill:#007f01"/><path d="M89.05,592.45c-8.88-29-18.24-22.32-4.08-50.65.48-19,18.24-28.8-30.72-89.05,15.12,37.68,10.08,75.85,21.12,124.82,1.2,5,1.92,12,.24,17.28Z" style="fill:#66a72e;stroke:#0b572f;stroke-linecap:round;stroke-linejoin:round;stroke-width:2px"/><path d="M60.25,461.87l5.28,7.44c17.76,25.2,27.36,36,18.48,73.69Z" style="fill:#007f01"/><path d="M65.29,576.12c23.76,19,52.33,35.52,52.57,61.69C75.13,629.89,65.77,605.17,65.29,576.12Z" style="fill:#66a72e;stroke:#0b572f;stroke-linecap:round;stroke-linejoin:round;stroke-width:2px"/><path d="M116.65,636.61l-1.2-.24-7.68-8.16c-13-14.4-25-29-36.48-43.69l-4.32-6,15.84,12.24c16.56,12.72,31.2,25.68,33.6,42.49Z" style="fill:#007f01"/><path d="M111.85,567c13.2,29.28,14.64,64.09-5.76,81.37-21.84-36.24-16.56-61.93,6-81.37Zm0,0Z" style="fill:#66a72e"/><path d="M111.85,567c13.2,29.28,14.64,64.09-5.76,81.37-21.84-36.24-16.56-61.93,6-81.37m-.24,0Z" style="fill:none;stroke:#0b572f;stroke-linecap:round;stroke-linejoin:round;stroke-width:2px"/><path d="M106.33,646.93l-.72-1.2,1.44-11,4.56-66.49c10.56,25.2,15.36,53.29-2.16,76.33Z" style="fill:#05933f"/><path d="M151.46,678.14c-26.64-15.6-31.2-37.2-41-67.21-4.56-14.64-19-36.24-33.12-39.61,3.12,12.48,6.24,25,12,37.44-10.56-7.44-21.6-15.12-32.88-22.56,13.44,37,34.8,66,74.89,89.77a39.54,39.54,0,0,1,12.48,12.72Z" style="fill:#66a72e;stroke:#0b572f;stroke-linecap:round;stroke-linejoin:round;stroke-width:2px"/><path d="M79.21,574.68,78.73,573l3.36,1.2c12,6.48,23.28,24.24,27.36,37,8.64,26.4,13.2,46.57,32.64,61.69l2.64,1.92-1.68,4.8c-32.64-34.8-33.36-72-61.93-103ZM58.57,589.33v-.48l13.92,9.6c5.52,3.6,10.8,7.44,16.08,11a.88.88,0,0,0,.72.24h.48l3.6,9.12a258.46,258.46,0,0,0,15.84,30c-15.84-22.56-27.12-39.12-49.45-58.57Z" style="fill:#007f01"/><path d="M99.61,662.78c29.28,10.56,62.65,17.76,71.77,42.73C127.7,711.5,110.17,690.62,99.61,662.78Z" style="fill:#66a72e;stroke:#0b572f;stroke-linecap:round;stroke-linejoin:round;stroke-width:2px"/><path d="M102.25,664.7l19.44,6.72c20.16,7,38.64,14.64,46.81,30l1.44,3.36H168.5l-10.08-5.28c-17.52-9.84-34.08-19.92-49.93-30.48Zm-1.2-.72-.24-.72h0l.48.72Z" style="fill:#007f01"/><path d="M153.86,645.49c17,24.72,39.36,49,31.68,73.93C147.14,700,145.7,673.58,153.86,645.49Z" style="fill:#66a72e;stroke:#0b572f;stroke-linecap:round;stroke-linejoin:round;stroke-width:2px"/><path d="M184.82,718l-1.2-.72-4.8-9.84c-8.16-17.52-15.12-34.8-21.6-52.09l-2.4-6.72,11.52,16.08c12,16.8,22.08,33.12,19.2,49.93Z" style="fill:#007f01"/><path d="M220.83,740.55l-35.76-30.72-50.89-54.49c6.24,22.56,14.16,44.41,35.28,61-15.84-8.4-35.28-12.72-55.45-15.84,19.44,16.8,41,30,69.37,30l29.28,12.72Z" style="fill:#66a72e;stroke:#0b572f;stroke-linecap:round;stroke-linejoin:round;stroke-width:2px"/><path d="M136.34,659.18h0L184.1,710.3l.24.24,34.56,29.52-1.68.72-1.92-1.2c-32.88-20.4-59.29-46.09-75.85-74.65Zm-19,43h0l11.28,1.92c14.64,2.88,28.56,6.72,40.33,13.2a1.06,1.06,0,0,0,1.2-.24l.24-.72,5.52,4.8c-16.8-1-37.44-8.4-56.17-17.76Z" style="fill:#007f01"/><path d="M381.41,815.67c-14.88-17-61.93-46.33-85.21-51.37,3.84-3.6-36.48-4.8-80.65-4.56l-46.81-14.4L162,742.47c24.24-10.8,50.41-10.08,76.33,0-17-17-33.12-33.36-28.8-46.09,20.4,9.84,45.37,22.56,61,43.69l25,20.4,23.76,2.88c-22.56.48,51.61,16.8,77.53,25.2C376.85,802,399.17,805.59,381.41,815.67Z" style="fill:#66a72e;stroke:#0b572f;stroke-linecap:round;stroke-linejoin:round;stroke-width:2px"/><path d="M295.48,761.67l-50.17-8.16c-17.76-9.12-42.49-9.6-66-10.32L168,744.39l-4.56-2.16c19.44-8.16,45.37-11.76,74.65,1.2.72.48,1.68-.48,1.2-1.44l-.24-.24,3.12,1.92a19.62,19.62,0,0,1,4.8,2.88c6.48,4.08,16.8,4.8,26.64,5.28-17.28-16.08-39.61-24.24-52.33-38.64l-10.56-15.12-.48-.24,18.48,8.64c12.48,9.36,26.16,13.44,41,33.84l-1-.72L295,761.19c0,.24.24.24.48.24h0Z" style="fill:#007f01"/><path d="M382.13,815.43c-9.36-10.08-55.93-43.21-71.77-46.09-5.28-1-10.56-1.92-15.84-2.64l-1-.24,8.64,1.2c21.12,2.4,46.09,13.44,79.69,34.56Z" style="fill:#007f01"/><path d="M421.73,199c10.08,31.68,18,65.29,37.2,83.29C459.9,243.44,443.1,219.44,421.73,199Z" style="fill:#66a72e;stroke:#0b572f;stroke-linecap:round;stroke-linejoin:round;stroke-width:2px"/><path d="M458,280.17l-1.92-1.92c-12-13.44-19.44-33.84-26.16-55.45l-5.76-19L427,209.6c9.12,19,18,38.4,26.4,58.33L458,279Z" style="fill:#007f01"/><path d="M394.85,203.36c16.56,25.2,26.88,48.25,49.69,55.21-7-38.16-24-46.57-49.45-55Zm0,0Z" style="fill:#66a72e"/><path d="M394.85,203.36c16.56,25.2,26.88,48.25,49.69,55.21-7-38.16-24-46.57-49.45-55m-.24-.24Z" style="fill:none;stroke:#0b572f;stroke-linecap:round;stroke-linejoin:round;stroke-width:2px"/><path d="M443.58,257.6l-2.88-1.2c-14.88-6.48-26.16-22.56-37.2-40.09l-7.2-12.48L398,205c24.48,17.76,34.8,30.72,38.16,42.49l7.2,8.64Z" style="fill:#007f01"/><path d="M377.81,233.84c26.88,17.28,53.29,38.64,78,36.24C432.53,236.48,405.65,231.44,377.81,233.84Z" style="fill:#66a72e;stroke:#0b572f;stroke-linecap:round;stroke-linejoin:round;stroke-width:2px"/><path d="M397,245.6,381.17,235l7,2.88c18.24,7.68,36.48,15.84,54.73,25l10.8,5.28.72,1.2h-3.12C434,269.13,415.73,258.08,397,245.6Z" style="fill:#007f01"/><path d="M449.82,247.52c8.64,27.12,15.36,56.17,31.92,71.77C482.7,285.69,468.3,265,449.82,247.52Z" style="fill:#66a72e;stroke:#0b572f;stroke-linecap:round;stroke-linejoin:round;stroke-width:2px"/><path d="M481,317.37l-4.32-5c-8.88-11.52-14.4-27.6-19.68-44.41l-5-16.32,2.4,5c7.68,16.32,15.36,32.88,22.8,50.17l3.84,9.6Z" style="fill:#007f01"/><path d="M472.86,248c-.24,25.68-3.6,52.81,9.36,68.41C495.66,285.45,487.26,265.53,472.86,248Z" style="fill:#66a72e;stroke:#0b572f;stroke-linecap:round;stroke-linejoin:round;stroke-width:2px"/><path d="M482,315l-1.44-1.92c-7.44-11.52-7.92-28.08-7.44-45.61l.48-16.8,1,6c2.64,15.6,5,31.44,7,47.77l1,9.6Z" style="fill:#007f01"/><path d="M418.37,263.12c20.4,23.28,39.61,50.65,63.85,54.73C469.5,279.93,445.5,268.17,418.37,263.12Z" style="fill:#66a72e;stroke:#0b572f;stroke-linecap:round;stroke-linejoin:round;stroke-width:2px"/><path d="M481,316.89l-3.12-.72c-15.84-4.8-29.76-19.44-43.69-35.76L421,265l6,4.56c15.12,12.24,30,24.72,44.89,38.16l8.64,7.92Z" style="fill:#007f01"/><path d="M498.3,296.49c1.92,19.44-18.48,34.08,11,54C515.83,331.05,517,310.65,498.3,296.49Z" style="fill:#66a72e;stroke:#0b572f;stroke-linecap:round;stroke-linejoin:round;stroke-width:2px"/><path d="M507.18,347.86,505,346.18c-20.16-16.56-6-28.8-5.52-46.09v-1.44l1.44,1.2.24.24.72,3.6c2.64,13.68,0,27.84,4.8,42.73Z" style="fill:#007f01"/><path d="M522.07,417.7c-3.6-16.56-7.2-33.36-5.28-49,12.24-23,3.36-32.4,6-53-8.64,6.48-16.08,15.6-18.24,25.44-3.12-13.68-10.8-26.4-17.52-36-2.88,10.08-6,19.92-5.28,31-9.12-8.4-18-9.36-27.12-10.08,27.84,21.12,8.4,35.52,50.65,66.73l10.08,29.76Z" style="fill:#66a72e;stroke:#0b572f;stroke-linecap:round;stroke-linejoin:round;stroke-width:2px"/><path d="M516.55,420.1l-1.2-.48-9.12-27.12c0-.24-.24-.24-.48-.48-39.85-29.52-24.48-43.45-45.85-62.65l-2.4-1.92h2.4l1.92,1c19.44,11.28,26.4,45.61,48.49,62.41Zm-12.48-78.25h0a.84.84,0,0,0,1.44-.48c1.44-7.2,6-13.92,11.76-19.68l4.32-3.6-2.64,7c-6.24,19.44-8.64,39.12-11.28,60.25-6.48-19.2-7-32.64-3.6-43.21Zm-21.36-5.52v-2.4l.24-1.68a87.59,87.59,0,0,1,2.16-15.36l1-4.8,1.44-4.8v.24l2.4,16.08a254.08,254.08,0,0,0,14.16,51.61c-16.32-8.64-21.6-22.08-21.36-38.16Z" style="fill:#007f01"/><path d="M551.35,376.42c-16.32,44.17-37.92,88.81-28.8,126C561,459.95,561.19,417.94,551.35,376.42Z" style="fill:#66a72e;stroke:#0b572f;stroke-linecap:round;stroke-linejoin:round;stroke-width:2px"/><path d="M523.27,500.27l-1-5c-3.84-25.92,5.76-55.21,17.28-85.45l11.28-30,.48,2.16L550.87,392a396.19,396.19,0,0,1-17,89.05l-3.12,10.08L528.55,494Z" style="fill:#007f01"/><path d="M482.94,394.18c2.64,23.52,23.76,49,48,69.61C541,443.15,501.66,416,482.94,394.18Z" style="fill:#66a72e;stroke:#0b572f;stroke-linecap:round;stroke-linejoin:round;stroke-width:2px"/><path d="M530.47,462.11l-7.68-7c-19-17.52-34.32-37.68-38.16-56.89V398l46.57,62.17Z" style="fill:#007f01"/><path d="M524.47,373.3c-6,36.48-17,74.89,0,100.33C552.31,433.07,543.19,402.1,524.47,373.3Z" style="fill:#66a72e;stroke:#0b572f;stroke-linecap:round;stroke-linejoin:round;stroke-width:2px"/><path d="M524.47,471.71l-1.92-3.36c-9.36-18.48-6.48-42.25-2.16-67.45l4.32-23.76.48,9.12c1,23,1.2,46.33.72,70.09l-.48,14.16Z" style="fill:#007f01"/><path d="M499.74,393.46c6,36.24,9.6,74.89,25.92,97.21C531.19,447.47,517.75,418.66,499.74,393.46Z" style="fill:#66a72e;stroke:#0b572f;stroke-linecap:round;stroke-linejoin:round;stroke-width:2px"/><path d="M524.95,487.79l-1.2-2.16c-10.32-16.32-14.88-40.09-18.72-65l-3.36-20.88,1.68,6c6.72,22.32,13,44.89,18.72,68.17l3.12,12.48Z" style="fill:#007f01"/><path d="M555,468.83C530.23,490,517.75,532,513.19,573.48,544.63,568,544.87,505.56,555,468.83Z" style="fill:#66a72e;stroke:#0b572f;stroke-linecap:round;stroke-linejoin:round;stroke-width:2px"/><path d="M514.87,571.56l1.68-13.44c5.28-33.36,16.32-65.29,34.8-84.25l.48-.24-34.56,97.21Z" style="fill:#007f01"/><path d="M512.71,580.69c8.64-28.8-1.2-10.32-18.48-59.53-4.56-13.44-3.84-43.21,9.36-45.85,5,13.68,14.88,26.88,16.32,50.41-3.6-22.32,12.48-63.37,25.68-73-15.12,37.44-9.6,75.85-20.4,124.82-1.2,5-1.92,12-.24,17.28Z" style="fill:#66a72e;stroke:#0b572f;stroke-linecap:round;stroke-linejoin:round;stroke-width:2px"/><path d="M500.22,477.47c1.68-.48,1.2-1.92,2.16-1.2,2.16,44.41,15.12,50.89,14.4,87.13-.48,1.92-5.76-8.4-1.44-2.64C499,541.08,481.74,499.31,500.22,477.47Zm19.68,39.61c-2.16-11.76,16.56-60.49,20.88-58.57l1-1-3.12,6c-13.44,27.6-11.76,35.52-15.12,61.93-.72-2.88,1.2,27.6-.24,23.76C522.07,546.36,519.43,519.72,519.91,517.08Z" style="fill:#007f01"/><path d="M535.27,576.12c-23.76,19-52.33,35.52-52.57,61.69C525.43,629.89,534.79,605.17,535.27,576.12Z" style="fill:#66a72e;stroke:#0b572f;stroke-linecap:round;stroke-linejoin:round;stroke-width:2px"/><path d="M483.9,636.61l.24-3.36c2.4-16.8,17-29.76,33.6-42.49l15.84-12.24-4.32,6c-11.52,14.64-23.52,29.28-36.48,43.69l-7.68,8.16Z" style="fill:#007f01"/><path d="M480.54,569.64c-1,29.76-6.48,61.45,13.92,78.73C516.31,612.13,502.86,589.33,480.54,569.64Z" style="fill:#66a72e;stroke:#0b572f;stroke-linecap:round;stroke-linejoin:round;stroke-width:2px"/><path d="M494.22,646.93l-2.64-2.64c-11.52-12.72-12-31.92-11-52.09l1-19.68,1.68,7.2c4.08,17.76,7.68,36.24,10.32,55l1.44,11Z" style="fill:#05933f"/><path d="M448.86,678.14c26.88-15.6,31.44-37.2,41.29-67.21,4.56-14.64,19-36.24,33.12-39.61-3.12,12.48-6.24,25-12,37.44,10.56-7.44,21.6-15.12,32.88-22.56-13.44,37-34.8,66-74.89,89.77a39.54,39.54,0,0,0-12.48,12.72Z" style="fill:#66a72e;stroke:#0b572f;stroke-linecap:round;stroke-linejoin:round;stroke-width:2px"/><path d="M457.5,679.58l-1.68-4.8,2.64-1.92c19.44-15.12,24-35.28,32.4-61.69,4.08-12.72,15.6-30.48,27.6-37l3.36-1.2-.48,1.68-2.16,1.92C490.86,607.57,490.14,644.77,457.5,679.58Zm53.29-69.85h.48a.88.88,0,0,0,.72-.24c5.28-3.6,10.56-7.44,16.08-11l13.92-9.6-.24.48-1,1c-22.32,19.68-33.6,36-49.45,58.57a258.46,258.46,0,0,0,15.84-30Z" style="fill:#007f01"/><path d="M500.94,662.78c-29.28,10.56-62.65,17.76-71.77,42.73C472.86,711.5,490.38,690.62,500.94,662.78Z" style="fill:#66a72e;stroke:#0b572f;stroke-linecap:round;stroke-linejoin:round;stroke-width:2px"/><path d="M432.05,704.78l-2.64-.24,1.2.24,1.44-3.36c8.16-15.36,26.64-23,46.81-30l19.44-6.72L492.06,669c-16.08,10.56-32.4,20.64-49.93,30.48Z" style="fill:#007f01"/><path d="M446.46,645.49c-17,24.72-39.12,49-31.44,73.93C453.42,700,454.86,673.58,446.46,645.49Z" style="fill:#66a72e;stroke:#0b572f;stroke-linecap:round;stroke-linejoin:round;stroke-width:2px"/><path d="M415.73,718l-.72-3.36c-2.88-16.8,7.2-33.12,19.2-49.93l11.52-16.32-2.4,7c-6.48,17.28-13.44,34.56-21.6,52.09l-4.8,9.84Z" style="fill:#007f01"/><path d="M379.73,740.55l35.76-30.72,50.89-54.49c-6.24,22.56-14.16,44.41-35.28,61,15.84-8.4,35.28-12.72,55.45-15.84-19.44,16.8-41,30-69.61,30l-29,12.72Z" style="fill:#66a72e;stroke:#0b572f;stroke-linecap:round;stroke-linejoin:round;stroke-width:2px"/><path d="M383.33,740.79l-1.68-.72,34.56-29.52v-.24l48-51.13H464l-2.88,5.76c-16.56,28.56-43,54.25-75.85,74.65Zm41.29-19.68,5.52-4.8.24.72a1.06,1.06,0,0,0,1.2.24c11.76-6.48,25.68-10.32,40.33-13.2l11.28-1.92h0l-2.4,1.2C462.06,712.7,441.42,720.14,424.61,721.1Z" style="fill:#007f01"/><path d="M210.51,812.79c24.48-7.68,69.13-40.81,94.33-45.13a493.59,493.59,0,0,1,80.41-6L432.05,742l6.48.48c-24.24-10.8-50.41-10.08-76.33,0,20.16-10.56,30.72-30,25.92-44.17-20.4,10.08-42.49,20.64-58.09,41.77l-25,20.4c-25.68,7.92-56.41,15.6-84.49,23.28C219.39,793.59,210.51,800.07,210.51,812.79Z" style="fill:#66a72e;stroke:#0b572f;stroke-linecap:round;stroke-linejoin:round;stroke-width:2px"/><path d="M305.08,761.43h0c.24,0,.48,0,.48-.24l25.2-20.4v-.24c13.68-18.48,25.2-25.44,41.77-33.84l14.88-7.44,1.2,4.32-14.16,11.76c-13,14.4-30.24,20.4-47.53,36.48,9.84-.48,20.16-1.2,26.64-5.28a19.62,19.62,0,0,1,4.8-2.88l3.12-1.92-.24.24c-.48,1,.48,1.92,1.2,1.44,22.56-8.88,45.37-10.56,66.73-3.6l3.12,1.44a.33.33,0,0,0-.48,0l-4.56,1.92h-6c-23.52.72-48.25,1.2-66,10.32l-50.17,8.16Z" style="fill:#007f01"/><path d="M215.07,810.39l5-8.88,1.92-6.24c2.4-.72,10.32-7.44,78-28.32l7-.48-1.2.24C275.31,774.63,245.07,796.71,215.07,810.39Z" style="fill:#007f01"/><path d="M210,812.31c7.68-3.12,16.32-10.32,19.2-29.52C212.19,780.87,208.59,794.07,210,812.31Z" style="fill:#ee9948;stroke:#0b572f;stroke-linecap:round;stroke-linejoin:round;stroke-width:2px"/><path d="M397,789c1.2,6.24,4.56,18-15.6,25.92C379.25,798.87,388.37,789.51,397,789Z" style="fill:#ee9948;stroke:#0b572f;stroke-linecap:round;stroke-linejoin:round;stroke-width:2px"/><path d="M260.91,734.06C261.15,745.59,276.28,754,288,760c3.84,2.16,8.16-1.92,8.64-5.28-15.12-12-20.88-23.52-21.84-28.8C270.51,727.82,258,724,260.91,734.06Z" style="fill:#75aadb"/><path d="M308.92,758.31l8.16,4.32c9.12-8.88,27.6-19.2,26.4-30l-16.32-1.92C329.56,734.78,315.16,750.15,308.92,758.31Z" style="fill:#75aadb"/><path d="M263.79,728.78c2.88-.48,1.44-3.36,5.28-2.4,2.88,8.4,14.88,24.48,26.88,31.2,1.2.72-6.72-1-5.28,1.68C278.92,752.07,262.83,737.19,263.79,728.78Z" style="fill:#ececec"/><path d="M332,731.18c-2.4,7.92-9.12,19-18.24,25.2l-.48,3.12c10.08-4.8,23-17,26.88-29.76Z" style="fill:#e6e6e6"/><path d="M302.68,771.27c2.64,11,3.36,23.52,9.12,31.68l20.88-4.32c-16.56-17-15.84-23.52-20.16-33.6Z" style="fill:#75aadb"/><path d="M342.28,810.39c6.72,4.56,7.44,16.08,9.6,25.68,2.64-2.4,4.8-6.72,13.92-5.28-2.16-9.36-3.12-19.92-10.56-26.88Z" style="fill:#75aadb"/><path d="M305.8,770.55l3.6-1.92c2.4,6.72,9.12,24,17.76,32.64l-9.36,1.2C310.36,794.55,309.16,781.59,305.8,770.55Z" style="fill:#ececec"/><path d="M347.32,807c-1.44-7.2,4.8-2.4,5-2.16,4.08,5.76,8.88,19.92,9.12,25.68-6.24,1-5.76,2.16-7.44,3.84C356.21,829.12,350.44,812.79,347.32,807Z" style="fill:#f9f9f9"/><path d="M331.48,816.4c10.32-5.76,23.76-12.48,25-9.6-.48-2.16-2.4-4.08-3.84-5.76l-1.2-1.2c-2.4-3.12-4.08-5-7.92-7-5.28,1.68-10.08,3.84-14.16,5.52-25.2,7-18.24-3.12-19.2-.24C307.72,805.59,314,821.2,331.48,816.4Z" style="fill:#75aadb"/><path d="M310.36,805.59c5.28-1.44,5.28,4.08,18.48-1.2,6.24-1.92,13.44-6.72,20.16-6.72,4.08,1,5.28,5,7.44,7.44-5.28-3.12-7.68-1.44-16.56,2.88-9.6,5.76-20.88,9.84-25.68,4.8C312.76,811.59,310.36,807,310.36,805.59Z" style="fill:#fff"/><path d="M296.2,767.91l7.44,4.08c-3.84,17-12,27.84-17.52,34.56l-22.8-3.36C269.31,801,289.24,782.55,296.2,767.91Z" style="fill:#75aadb"/><path d="M239.55,833.44c5-2.88,10.56,0,16.08,3.6-.48-19.44-.72-26.4,1.68-32.88l-7.92-6.24C242.19,803.67,241,822.4,239.55,833.44Z" style="fill:#75aadb"/><path d="M296,772.47c-1.2,9.6-16.32,27.12-25.92,32.16,10.32,10.56,28.8-23.28,30.24-29.52C299.56,774.39,297.16,775.11,296,772.47Z" style="fill:#ececec"/><path d="M250.83,798.39c7.92-7.2-5.28,26.64-.48,35.52-3.12-.72-4.56-1.44-6.24-1C243.39,823.84,246,805.59,250.83,798.39Z" style="fill:#f9f9f9"/><path d="M246,802c6-7.68,11.28-8.88,18.48-6,5,4.32,14.16,12.24,23,8.4-2.16,7.2-8.64,11.28-23.76,6.48C254.91,808,248.19,801.75,246,802Z" style="fill:#75aadb"/><path d="M248.43,798.63c2.16-2.16,7.2-7,14.4,1.44,7.68,10.08,15.6,8.88,23.28,7.44-2.88,7-16.8,7.2-21.36,2.4C254,799.35,251.31,799.59,248.43,798.63Z" style="fill:#fff"/><path d="M273.87,717.26c41,7,39.36,1.44,61,.24,11,4.08,10.56,8.88,8.16,18.72-22.56-11.28-32.88,2.64-45.61-1.92-17.28-6.24-35.76-3.84-36,.48C260,726.14,264.51,719.42,273.87,717.26Z" style="fill:#75aadb"/><path d="M265.23,721.34c-3.36,2.64-4.8,7.68-4.56,9.6,7.92-2.88,17.52-6.24,30.24-3.36,15.36,5.28,20.4.24,29-1.2,19.2-1.68,22.8,1.68,23.76,5.76.72-3.12,1.68-7.44-1.68-10.56-8.64-2.4-15.6-1-22.32.72-12.24,4.08-24,2.4-36.72-.72C274.11,719.66,269.79,720.62,265.23,721.34Z" style="fill:#fff"/><path d="M289.72,760c1-2.64,2.16-5,5.28-6.24a30.54,30.54,0,0,1,15.36-.48c4.08.24,6.24,3.6,8.4,7.44.24,2.4.48,4.56-1.2,7.68-4.08,7-7.2,5.28-10.8,6.72a87.84,87.84,0,0,1-8.88-1c-4.8-.24-8.4-3.6-8.4-4.8A24.8,24.8,0,0,1,289.72,760Z" style="fill:#75aadb"/><path d="M300.28,753.27c-4.08,4.56-3.6,12.48-1,21.6,1.44.48,3.12,1.2,5.52.24,9.6-9.84,4.56-19.2,2.88-22.32C306,752.07,301.72,752.07,300.28,753.27Z" style="fill:#fff"/></svg>