<svg xmlns="http://www.w3.org/2000/svg" viewBox="0 0 188.32 228.24"><title>Aruba</title><path d="M106.08,1.79a4.89,4.89,0,0,0-3.36,1.1c-1.23.84-2.53,2.07-2.39,3.7A4,4,0,0,0,102,10.22c1.85,1.4,2.84,3.62,4.72,5,1.71,1,3.78.74,5.67.92a7.21,7.21,0,0,0,4-.64c1-.37,1.9-1,3-.79,3.12-.13,6.16.63,9.26.88a4.62,4.62,0,0,1,3.29,1.6,8.76,8.76,0,0,1,2,3.51,8.73,8.73,0,0,1-.18,3.93c-.4.78-.42,1.3-1.2,1.74a12.26,12.26,0,0,0-3.63-2.6,10.06,10.06,0,0,0-6.31-.55c-2,.44-3.66,1.65-5.38,2.65a9,9,0,0,1-7.39.47,17.4,17.4,0,0,0-4.57-.08c-1.36.18-2.74.36-4.08.65-.46.43-.27,1.25-.46,1.85s0,1.65-.59,2.2c-.55.24-1-.37-1.36-.74-.74-.63-1.49-1.27-2.24-1.89-.61-.18-.69.71-.86,1.14a4,4,0,0,0,.82,4,16.83,16.83,0,0,0,1.38,1.29c.11.42-.52.18-.73.22a11.93,11.93,0,0,1-4.06-.74c-.72.07-.32,1.05-.43,1.56a6.74,6.74,0,0,1-1.87,4.45c-.6,0-.68-.8-.83-1.22a5.72,5.72,0,0,0-1.14-2.14c-.61-.38-.89.52-1.07.94a12.17,12.17,0,0,1-2.07,3.69c-.4.28-.9-.21-1-.6a10.68,10.68,0,0,0-1.13-2.14c-.53-.26-.71.41-.65.8a5.2,5.2,0,0,1-2.88,3.83,1,1,0,0,1-1.25-.54c-.47-.91-.42-2.06-1.17-2.84-.33-.36-.8-1.29-1.3-.67a7.45,7.45,0,0,1-2.81,2.78c-1.58,1-3.55.74-5.34.83-1.77-.05-3.53.19-5.28.26-1.25-.11-2-1.26-3.05-1.82-.83-.48-1.47-1.4-2.44-1.56s-2.3.08-2.79,1.14a9.68,9.68,0,0,1-2.53,3.22,3.08,3.08,0,0,0-.94,2.48c.64.36,1.47.07,2.19.16H84.6c1.08-.37,1.41-1.69,2.45-2.11.67.56.85,1.6,1.64,2a22.82,22.82,0,0,0,3.79.07c.81-.6,1.06-1.71,1.53-2.58s1.08-1.81,2.12-1.66c.6,0,1.32-.2,1.66.45a3.66,3.66,0,0,0,1.79,1.22c.87-.34,1.4-1.26,2.12-1.83.89-1.06,2.39-.94,3.65-.91a29.48,29.48,0,0,0,6.17.09c.9-.08,1.78.16,2.67.08.63-.4-.12-1-.32-1.4a7.91,7.91,0,0,1-.44-6.1,4.24,4.24,0,0,1,1.24-1.77c.37,0-.1.49-.17.65a5.75,5.75,0,0,0-1.1,4.2,6,6,0,0,0,1.35,3.65c.37.63,1,1.11,1.35,1.71,0,.31-.43.19-.58,0A11.22,11.22,0,0,0,109.7,42c-2.27.11-4.58-.5-6.83-.06-1.17.61-1.88,1.85-3,2.59-1.22.12-2-1.1-2.86-1.72a2.27,2.27,0,0,0-2.43,1,13.34,13.34,0,0,0-1.1,2.52c.11.68,1,.29,1.51.4,13.63,0,27.27,0,40.9,0,.66-.23.29-1.11.36-1.65,0-1.5-1.4-2.39-2.48-3.16a10.68,10.68,0,0,1-4.08-5.49c-.18-.29.22-.41.31-.14a11.35,11.35,0,0,0,3.37,4.9c.7.22.55-.78.67-1.23a9,9,0,0,1,2.05-4.39c1.43-1.92,3.27-3.64,3.83-6.05,1-3.63-.07-7.47-1.75-10.72-1.26-2.79-3.85-4.72-6.55-6-.59-.33-1.41-.46-1.83-1a9,9,0,0,0-1-3.09c-.9-1.1-2.48-1.06-3.75-1.33a4.8,4.8,0,0,1-3.56-1.73,16.28,16.28,0,0,1-1.08-1.63c-.75-.07-.58,1-.64,1.46a4.34,4.34,0,0,0,1.26,3.41,16.9,16.9,0,0,1,1.72,1.88,12.46,12.46,0,0,1-1.83.08,14.5,14.5,0,0,0-4.46.62c-1.2.63-2.26,1.72-3.73,1.62a11,11,0,0,1-4-.42,8.13,8.13,0,0,1-2.41-3c-.48-1.2.61-2.46,1.72-2.83,1.52-.55,3.44.18,4.69-1.08.34-.28.92-1,.21-1.17-1.49-.35-2.94-1.06-4.49-1-1.22.14-2.17,1.16-3.22,1.63-.22-.43.4-.79.64-1.07a31.13,31.13,0,0,1,2.87-1.84c.21-.78-.89-.51-1.35-.55S106.53,1.78,106.08,1.79Zm30.68,23.59a5.52,5.52,0,0,1-1.71,4.7A4.25,4.25,0,0,1,132,31.48c1.88-1.15,3.48-1.31,4.31-3.4a20.92,20.92,0,0,0,.48-2.79v.08h0Z" style="fill:#d3261f"/><path d="M84.91,47.08c.83-.33,2.1-2.18,2.1-2.18s1.23,1.82,2.18,2.09" style="fill:none;stroke:#000;stroke-linecap:square"/><path d="M51.79,46.83a3.07,3.07,0,0,1,.89-3.15,6.35,6.35,0,0,0,1.78-2.89c.54-1.29,2.1-1.19,3.27-1.15,1,.32,1.63,1.36,2.61,1.77C61.28,42,62,43.14,63.29,43a36,36,0,0,1,3.59-.3,19.69,19.69,0,0,0,3.55,0A5.29,5.29,0,0,0,74,41.59c1.07-.4,1.89-2.2,2.68-3" style="fill:none;stroke:#000"/><path d="M91.07.72c-.53,0-1.25,0-1.6.4-.11.61.74.59,1,1,.82,1,.2,2.61-.79,3.28C89,6,87.82,6,87.5,6.91c0,.67.7,1.08,1.07,1.57a2.32,2.32,0,0,1,.3,3.16c-.84.89-.45,2.24,0,3.24a6.1,6.1,0,0,1,.21,4.49c-.12.33-.18.84-.46,1-.67-1-.94-2.34-1.76-3.28-.7-.24-.57.77-.62,1.2a6.67,6.67,0,0,1-2.33,4.35,3.16,3.16,0,0,1-1.11.58c-.13-.93.35-1.86.16-2.79-.59-.46-.87.5-1.29.79a6.39,6.39,0,0,1-1.76,1.43c-.26-.92,0-1.92-.28-2.83-.62-.37-.83.56-1.22.86a6,6,0,0,1-4.66,2c-1.2.12-2.5-.11-3.63.38a2.82,2.82,0,0,0-.89,2.72,4.58,4.58,0,0,1-2.12,4c-.39.39-1.13.53-1.29,1.08.11.64.9.25,1.35.21a6.75,6.75,0,0,0,4.47-3.23c.28-.28.42-.83.79-1,.23.11.09.56.12.78A10.92,10.92,0,0,1,70.28,34c-.41.58-1.09,1-1.42,1.6.17.66,1,.36,1.53.29a5.64,5.64,0,0,0,2.91-1.53c.43-.56.59-1.35,1.07-1.84.32.15.12.71.24,1A7.44,7.44,0,0,1,74.31,37c0,.67.79.48,1.18.32a6.83,6.83,0,0,0,3.4-3,9.75,9.75,0,0,0,.74-2.68c-.12-1.37-.47-2.71-.66-4.06.08-.3.33.09.31.23a16.65,16.65,0,0,1,.57,6.8,34.46,34.46,0,0,0-.1,5.09c.26.57,1,.2,1.2-.23a23.41,23.41,0,0,0,1.55-3c.47-.17.56.52.78.78.66,1.15,1.14,2.41,1.88,3.52.48.37.8-.35.79-.75a17.26,17.26,0,0,0,.22-4,49.08,49.08,0,0,0-1.62-5.39c.08-.31.07-.29.14-.13a19.21,19.21,0,0,0,3,4.07c1,.82,1.49,2.22,2.69,2.82.58.13.66-.62.45-1-.79-2.67-2.11-5.15-3.09-7.76,0-.3.38-.09.49,0,2.06,1.41,3.63,3.57,6,4.48.7.35.84-.62.86-1.12a9.61,9.61,0,0,0-1.74-4.77,7.82,7.82,0,0,1-1.69-3.74c0-.47.05-.57.46-.45a9.77,9.77,0,0,1,2.24,1.6c1.18.95,2.2,2,3.31,3.06.35.37,1.07.65,1.37.08a1.68,1.68,0,0,0-.27-2.17,15.56,15.56,0,0,0-2.53-2.76c-1.11-1-2.5-1.75-3.56-2.85-.23-.2.12-.35.3-.24a11,11,0,0,0,4.24,1A4.8,4.8,0,0,0,101,18.82c.28-.44-.31-.83-.7-.6a9,9,0,0,1-3.64.6c-1.43-.34-2.16-1.79-2.95-2.89a16.59,16.59,0,0,1-1.5-2.65c.11-.28.46.11.61.19a7,7,0,0,0,4.35,2.21c1,.07,2.26.15,3-.68.31-.53-.36-.78-.74-.94-1-.54-2.1-1.21-2.34-2.4-.46-1.52-.54-3.46-2-4.41a8.33,8.33,0,0,0-3-1.17c-.15-.28.39-.34.56-.42,1.05-.43,1.57-1.55,2.27-2.38.32-.44.88-1.16.29-1.63A7.28,7.28,0,0,0,91.07.72Z" style="fill:#d3261f"/><path d="M79.56,18.08a5.76,5.76,0,0,1-4.11,4.27c-1.78.65-3.78-.25-5.5.6a3.3,3.3,0,0,0-.85,3.25c0,2-1.76,3.48-3.43,4.31-.51.37-1.26.45-1.66.92,2.19.12,4.68,0,6.33-1.65a13.68,13.68,0,0,0,2.07-2.72A12.77,12.77,0,0,1,72,30.2a8.38,8.38,0,0,1-5,6c1,.48,2-.07,3.05-.06a7.46,7.46,0,0,0,2.5-.91,4.39,4.39,0,0,0,1.78-2.55,17.36,17.36,0,0,1,.16,2.61,15,15,0,0,1-.61,2.42,9.23,9.23,0,0,0,1.85-.25A10.51,10.51,0,0,0,77.89,36a6.86,6.86,0,0,0,1.94-4.3,22.4,22.4,0,0,0-.53-3.91" style="fill:none;stroke:#000;stroke-linecap:round;stroke-linejoin:round"/><path d="M75.66,37.59c.92,1.11,2.79,2.36,2.93,3.9.1,1.11.76,2.43,1.89,1.41a4.79,4.79,0,0,0,2.12-5.54c-.17-.47,0-1.38.37-.46.63,1.44,1.55,2.73,2.06,4.22.52.9,1.13-.78,1.47-1.19a20.07,20.07,0,0,0,1.88-4.31l1.08,1.77c.34.56.78,3.65,1.56,2.26A8.54,8.54,0,0,0,92.33,37a9.2,9.2,0,0,0,0-3.08c.59-.28,1.61.72,2.48.64a28.57,28.57,0,0,0,2.9.26c-1.4-.87-2.74-2.35-2.46-4.12.06-.84.34-3.23,1.6-2.35a22.41,22.41,0,0,0,3,2.57,10.85,10.85,0,0,0,.58-1.72,13.21,13.21,0,0,0,.28-2.71" style="fill:none;stroke:#000;stroke-linejoin:round"/><path d="M79.84,31.92c.15.89-.38,3.8-.29,4.69a10.33,10.33,0,0,0,.09,3.17c-.16.48.2,1.23.64.54a4.59,4.59,0,0,0,1.66-2.22c.2-.47.45-1.05.6-1.54" style="fill:none;stroke:#000;stroke-linecap:round"/><path d="M85.4,40.94a23.42,23.42,0,0,0,1-4.64c0-2.26-1.27-3.89-1.81-6,.82,1.4,1.13,2.81,2.42,3.75A7.15,7.15,0,0,1,89.29,37" style="fill:none;stroke:#000;stroke-linecap:round;stroke-linejoin:round"/><path d="M88.67,35.77c.43.45,1.66,2,2.31,1.7.44-.57-.05-1.33-.16-1.94-.59-1.72-1.35-3.38-2.06-5.05-.28-.65-.61-1.29-.88-1.94,1.35.7,2.52,2.24,3.84,3.24a8.27,8.27,0,0,0,2.91,1.57c.65,0,.51-1,.72-1.37" style="fill:none;stroke:#000;stroke-linecap:round;stroke-linejoin:round"/><path d="M95.22,31a9.91,9.91,0,0,0-.95-2.49,15.89,15.89,0,0,1-1.33-1.91,7.08,7.08,0,0,1-1.19-3.06c.07-.65.53-.57.89-.2.83.56,1.52,1.28,2.32,1.88a17.62,17.62,0,0,1,2.09,2,2.44,2.44,0,0,0,1.59,1c.59-.06.86-.69.89-1.22a4.92,4.92,0,0,0,0-.68" style="fill:none;stroke:#000;stroke-linecap:round;stroke-linejoin:round"/><path d="M100.46,26.72c-.85-.28-1.28-1.16-1.9-1.75a9.41,9.41,0,0,0-1.74-2,15.69,15.69,0,0,0-2.4-1.82c-.49-.46-1.27-.77-1.59-1.31,1,.25,1.9.92,3,1a6.88,6.88,0,0,0,2.64,0,5.13,5.13,0,0,0,3.3-2.87c.15-1.06-1,.06-1.49.15a12.39,12.39,0,0,1-2.81.68c-1.33.14-2.33-1-3-2s-1.12-1.68-1.6-2.57c-.21-.28-.84-1.34-.21-.63,1.19,1.07,2.56,2.2,4.24,2.28a4.24,4.24,0,0,0,3.41-.58c.18-.22,1.21-.72.88-.81a6.19,6.19,0,0,1-2.82-1.31,3.47,3.47,0,0,1-1.27-2.55A6.3,6.3,0,0,0,95.6,7.31a12.9,12.9,0,0,0-2.51-1.23A2.67,2.67,0,0,0,92.2,6" style="fill:none;stroke:#000;stroke-linecap:round;stroke-linejoin:round"/><path d="M92.29,5.91c1,0,1.68-1,2.19-1.76a6,6,0,0,0,1.22-1.74.88.88,0,0,0-.52-1.06A8.57,8.57,0,0,0,90.1.59a7.27,7.27,0,0,0-2.66,1.34.82.82,0,0,0-.17.26" style="fill:none;stroke:#000;stroke-linecap:round;stroke-linejoin:round"/><path d="M89.21,2a5.69,5.69,0,0,0-3.54,1.81c-.26.33-.5-.26-.72-.38-1.13-1.14-2.9-.86-4.35-.74-1,.19-2.33.13-3,1.11a21.45,21.45,0,0,1-3.32,2.78c-1.52.81-3.46.76-4.77,2a5.92,5.92,0,0,0-.34,2.71,1.57,1.57,0,0,0,2.25,1.36c.86-.35,1.65-1.4,2.65-1a6,6,0,0,1,2,1.92c.39.81-.47,1.44-1,1.86-.79.62-1.74,1-2.55,1.58-.42.7.19,1.49.53,2.1a.85.85,0,0,0,1.54.07,2.27,2.27,0,0,1,2.31-1.66,26,26,0,0,0,5.72.19c1.22-.4,1.6-1.81,2.34-2.73,1-1.59,3-2.37,3.92-4,.46-1-.37-2-1.07-2.69-.55-.47-1-1.41-.36-2,.8-.73,2.09-.78,2.67-1.79.48-.71.57-2-.38-2.34A1,1,0,0,0,89.21,2ZM78.67,4.5a11.24,11.24,0,0,1,3.85,2.23c-1.25,0-2.68-.09-3.65.86-.15.14-.43.36-.45,0A3.66,3.66,0,0,1,78.67,4.5Z" style="fill:#d3261f"/><path d="M70.55,13A1.89,1.89,0,0,1,69,11,8.38,8.38,0,0,0,69,9c.21-1.12,2.22-1.72,3.22-1.9a9.82,9.82,0,0,0,3.71-2c1.07-.81,1.73-1.9,3-2.36.77,0,1.9-.39,2.68-.43A6.41,6.41,0,0,1,84,2.6a2.55,2.55,0,0,1,1.48,1.2,3.71,3.71,0,0,1,2.2-1.59,9,9,0,0,1,2.63,0s.24,2.47-.7,3S88,5.66,87.35,6.67c-.26.93.74,1.49,1.25,2.08a2.08,2.08,0,0,1,.22,2.7,14.36,14.36,0,0,1-2.43,2.26,6.79,6.79,0,0,0-1.84,2.16c-.43.87-.89,1.82-1.89,2A17.09,17.09,0,0,1,80,18a23.2,23.2,0,0,1-3-.28A1.83,1.83,0,0,0,74.89,19a1.07,1.07,0,0,1-2.1.05A2.74,2.74,0,0,1,72.22,17" style="fill:none;stroke:#000;stroke-linecap:round;stroke-linejoin:round"/><path d="M63.18,11.74a3.52,3.52,0,0,0-3.1,2.41A3.68,3.68,0,0,0,61,18.08a4.74,4.74,0,0,0,4.39,1.24,23.25,23.25,0,0,0,5.79-2.21,31.51,31.51,0,0,0,3.65-1.95c.43-.35,1.33-.83.91-1.49-.63-.69-1.33-1.8-2.41-1.59a5.06,5.06,0,0,0-2.26,1.76c-1.4,1.4-3.08,2.79-5.12,3-.91.12-2-.88-1.42-1.77.41-.76,1.34-1,1.9-1.55-.22-.9-1.26-1.34-2.08-1.62a3.73,3.73,0,0,0-1.17-.18Z" style="fill:#d3261f"/><path d="M70.48,13c.39-.09.9,0,1.22-.23a6.26,6.26,0,0,1,1.77-1,1,1,0,0,1,.9.24c.27.24.52.5.79.73s.62.47.77.8c.43,1-.32,1.24-1.09,1.93-.54.37-1.13.66-1.7,1a9.75,9.75,0,0,1-.95.42" style="fill:none;stroke:#000;stroke-linecap:round"/><path d="M78.27,3.87a25.21,25.21,0,0,1,2.81,1.35,16.86,16.86,0,0,1,1.75,1.34c.21.15.36.67-.06.58a5.24,5.24,0,0,0-2.46,0,3.05,3.05,0,0,0-1.54.91.42.42,0,0,1-.68-.32,7.08,7.08,0,0,1-.16-1.09A3.16,3.16,0,0,1,78.25,4C78.41,3.83,78,3.82,78.27,3.87Z"/><path d="M79.65,18.63a21.61,21.61,0,0,1,.32,3.9,14,14,0,0,0,2-2c.3-.4.85-1.31.85-1.31a9.47,9.47,0,0,1,.31,1.45,12.72,12.72,0,0,1-.31,2.36,6.37,6.37,0,0,0,1.45-1,7.73,7.73,0,0,0,1.54-2.7A4.38,4.38,0,0,0,86,16.82c-.15-.36.15-1.15.44-.49,1.26,1,2.24,3.9,2.24,3.9a14.31,14.31,0,0,0,.61-2.67,4.06,4.06,0,0,0-.28-2c-.4-1-1.05-2.12-.72-3.26a2.37,2.37,0,0,1,.14-.36" style="fill:none;stroke:#000;stroke-linecap:round;stroke-linejoin:round"/><path d="M71.47,13a15.36,15.36,0,0,1-3,2.74,9.18,9.18,0,0,1-2.27,1c-.72.07-1.64-.37-1.66-1.18s1-1.17,1.65-1.52c.49-.08,1-.58.41-.95A4.25,4.25,0,0,0,64,11.61a3.54,3.54,0,0,0-3.72,1.65,4.27,4.27,0,0,0-.55,3,5.36,5.36,0,0,0,.95,1.79,4.94,4.94,0,0,0,4,1.51,10.31,10.31,0,0,0,3.46-.87c1.25-.5,2.81-1.27,4-1.87" style="fill:none;stroke:#000;stroke-linecap:round;stroke-linejoin:round"/><path d="M92.85,46.69c1.17-1,1.1-3.32,2.65-4l1.76-.07c.54.75,2.31,2.45,3,1.52.84-.81,1.84-2.38,3.12-2.49,2.41-.39,4.82.59,7.22.09a10.05,10.05,0,0,1,5.43.76" style="fill:none;stroke:#000;stroke-linecap:round;stroke-linejoin:round"/><path d="M114.68,32.48a14,14,0,0,0-.9,1.22c-.12.48-.35.91-.49,1.38a8.4,8.4,0,0,0,0,2.71,4.83,4.83,0,0,0,.41,1.66,10.3,10.3,0,0,0,1.38,2.15,6.49,6.49,0,0,0,.85,1l0,0" style="fill:none;stroke:#000;stroke-linecap:round;stroke-linejoin:round"/><path d="M100.79,26.68c2.77-.15,6.79-1.5,9.53-.36,2.93,1.11,6.23.09,8.62-1.77a10.91,10.91,0,0,1,6.45-1.8,8.3,8.3,0,0,1,7.28,3.74" style="fill:none;stroke:#000;stroke-linecap:round;stroke-linejoin:round"/><path d="M136.48,46.35c0-1,.12-2.12-.59-2.92a13.72,13.72,0,0,0-2.75-2.15,9.84,9.84,0,0,1-2.3-2.78,8.85,8.85,0,0,1-1-2.17" style="fill:none;stroke:#000;stroke-linecap:round"/><path d="M134.38,42.16c-.65-2,.42-4.71,1.69-6.23,1.62-2,3.62-3.94,4.16-6.59.81-3.35-.05-6.84-1.48-9.89a11,11,0,0,0-4.05-5A15.44,15.44,0,0,0,130.2,12" style="fill:none;stroke:#000;stroke-linecap:round"/><path d="M122.64,10.75c-1.13-1-2.45-2-2.88-3.57A5,5,0,0,1,120,3.58c.14-.27.46-.82.59-.84a3.47,3.47,0,0,0,.85,2.62,3.78,3.78,0,0,0,2.78,1.76c.85.12,1.27.22,2.12.31,1.06.23,1.92.29,2.63,1.23a9.13,9.13,0,0,1,1,3.18" style="fill:none;stroke:#000;stroke-linecap:round;stroke-linejoin:round"/><path d="M122.46,10.66a28.43,28.43,0,0,0-5.94.54c-1,.54-1.9,1.52-3.06,1.73-1.58,0-3.22.23-4.7-.41a8.39,8.39,0,0,1-2.33-3.1c-.16-1.7,1.81-2.79,3.42-2.57,1.22.06,2.7-.11,3.41-1.25a2.58,2.58,0,0,1,.56-.76" style="fill:none;stroke:#000;stroke-linecap:round"/><path d="M121,15.06a31.31,31.31,0,0,1-5.35,3.42c-.49.34,0,1,.5.84,2.16.15,4.35.11,6.49.32,1.88-.29,4-1,5-2.8a.66.66,0,0,0-.58-1c-1.95-.3-3.92-.59-5.87-.79l-.1,0-.07,0Z" style="fill:#d3261f"/><path d="M132.38,27.16a7.29,7.29,0,0,0,.51-8.31c-.9-1.72-2.6-3.25-4.66-3.13-3.31-.2-6.6-1.24-9.91-.83-1.82.66-3.6,1.88-5.64,1.4-2.06-.16-4.3.11-6.18-.89-1.88-1.45-2.8-3.79-4.78-5.14a4.36,4.36,0,0,1-.23-6.68c1.27-1,2.7-2.25,4.47-1.94a55.9,55.9,0,0,0,5.84-.18" style="fill:none;stroke:#000;stroke-linecap:round"/><path d="M111.72,1.43a17.89,17.89,0,0,1-3.42,1.44,11.18,11.18,0,0,0-2.22,1.35,7.46,7.46,0,0,0-.76.88s1.86-1.68,3.37-1.73,3.72,1,5.1,1.27" style="fill:none;stroke:#000;stroke-linecap:round;stroke-linejoin:round"/><path d="M120.82,14.94c-1.5,1.65-6.21,3.73-6.21,3.73.38,1.41,4.37.76,5.68,1,2.19.2,2.87.35,5-.5a5.11,5.11,0,0,0,2.45-2,2.73,2.73,0,0,0,.31-1.29" style="fill:none;stroke:#000;stroke-linecap:round;stroke-linejoin:round"/><path d="M136.29,22.92c.38,1.6.42,3.95-.53,5.25A9.16,9.16,0,0,1,133,30.74c-1.13.59-2.89.72-3.7,1.11,1,.48,4.12.12,5-.44a5.65,5.65,0,0,0,2.49-3.05c.5-1.4.36-4.21-.54-5.44Z"/><path d="M63.4,19a4.28,4.28,0,0,1-2.89-2.19,2.67,2.67,0,0,1-.26-1.33,2.76,2.76,0,0,1,.37-1.6,2.83,2.83,0,0,1,1.95-1.63,2.14,2.14,0,0,1,1.23-.06,4,4,0,0,1,1.95.93l.31.33-.63.36c-1.43.82-1.85,1.94-1,2.8,1,1.05,2.58.81,5-.76a14.55,14.55,0,0,0,2.59-2.44,3.47,3.47,0,0,1,.69-.55c1-.65,1.26-.61,2.15.29a4.06,4.06,0,0,1,.72.85c0,.38-1.91,1.65-3.18,2.13a5.38,5.38,0,0,0-1,.46,35.53,35.53,0,0,1-5,2.17A7.88,7.88,0,0,1,63.4,19Z" style="fill:#d3261f;fill-opacity:0"/><path d="M78.93,35.24c-.55.33-.89.91-1.44,1.26s-1,.62-1.35,1.09c.1.65.84,1,1.2,1.51a4.3,4.3,0,0,1,1.44,2.51c.16.53.3,1.46,1,1.43a4.81,4.81,0,0,0,2.82-4.4c-.34-.59-.84.12-1,.49A5.73,5.73,0,0,1,80,40.77c-.6,0-.47-.85-.56-1.26a36.12,36.12,0,0,1,0-4,.42.42,0,0,0-.47-.25Z"/><path d="M86.24,34.11c-.33.5.18,1.07.23,1.59.2.74-.06,1.55.17,2.28.65.41.79-.59,1.05-1s.71-.71.74-1.17a8.92,8.92,0,0,0-1.63-1.67A.43.43,0,0,0,86.24,34.11Z"/><path d="M89.12,30.17c-.31.56.3,1.13.42,1.68a34.6,34.6,0,0,1,1.88,5.23c.33.45.83,0,.79-.46.16-.93-.06-1.9.06-2.81.3-.28,1,.13,1-.5-.21-.65-1-.85-1.47-1.3-.82-.55-1.48-1.34-2.28-1.9C89.37,30,89.25,30.13,89.12,30.17Z"/><path d="M95.44,33.18c-.4.27-1.2.34-1.14,1,.39.44,1.08.21,1.61.32.55,0,.43-.72.1-1A.52.52,0,0,0,95.44,33.18Z"/><path d="M91.69,36.89a.47.47,0,0,0-.45.39c-.06.13-.11.3-.27.34s-.49,0-.72.08a.4.4,0,0,0-.16.54c.11.36.2.74.31,1.09a.38.38,0,0,0,.61.09,9,9,0,0,0,.64-1,4.78,4.78,0,0,0,.47-1.11A.39.39,0,0,0,91.69,36.89Z"/><path d="M93.21,33a.42.42,0,0,0-.31.53c.05.23.31.27.49.36a8,8,0,0,0,.84.35.43.43,0,0,0,.47-.34.41.41,0,0,0-.33-.52,6,6,0,0,1-.92-.35A.48.48,0,0,0,93.21,33Z"/><path d="M91.93,23.22c-.26,0-.23,1.12-.15,1.37a4.64,4.64,0,0,0,1,2.14,10.22,10.22,0,0,0,.93,1.33,7.63,7.63,0,0,1,.85,1.25c.08.17.22.35.43.32a.42.42,0,0,0,.37-.4A2,2,0,0,1,96,28.11a.85.85,0,0,1,.65-.09.38.38,0,0,0,.39-.48,2.14,2.14,0,0,0-.41-.5,15.88,15.88,0,0,0-1.89-1.78c-.75-.59-1.43-1.25-2.21-1.8A.88.88,0,0,0,91.93,23.22Z"/><path d="M100,26.74a.43.43,0,0,0-.35.47A1.38,1.38,0,0,1,99,28.29a1.24,1.24,0,0,1-.93,0,.38.38,0,0,0-.44.41c0,.25.29.35.46.51a6.6,6.6,0,0,1,1.38,1.27.4.4,0,0,0,.48.16c.24-.09.26-.38.3-.6.08-.65.19-1.28.29-1.93a6.57,6.57,0,0,0,.09-.93.53.53,0,0,0-.57-.4h0Z"/><path d="M89.11,29.74a.38.38,0,0,0-.32.27.4.4,0,0,0,.26.48.38.38,0,0,0,.42-.12.38.38,0,0,0,0-.42.41.41,0,0,0-.37-.21h0Z"/><path d="M86.54,37.71a.59.59,0,0,0-.48.48c0,.16,0,.33,0,.49a.63.63,0,0,0,.32.58A.54.54,0,0,0,87,39.1a2,2,0,0,0,.21-.45.74.74,0,0,0,.06-.48.59.59,0,0,0-.49-.45.91.91,0,0,0-.26,0Z"/><path d="M86.1,34.13l.27.18.1-.3Z" style="fill:none"/><path d="M86,33.86h.53l-.25.55L86,34Z"/><path d="M87.39,13.09A8.92,8.92,0,0,0,85,15.49c-.62.85-1,2.06-2,2.46a18.53,18.53,0,0,1-2.93.28c-.44.25-.05.82-.1,1.23a9,9,0,0,0,.29,2.11c.44.42.85-.22,1.11-.52.57-.6.94-1.36,1.51-1.94.4.33.33,1,.4,1.45a7.42,7.42,0,0,0,.11,1.66c.49.39.83-.33,1.12-.63a6.13,6.13,0,0,0,1.36-4.41c0-.39-.25-1.12.3-1.25a4.72,4.72,0,0,1,1.28,1.39,11.3,11.3,0,0,0,1,1.61c.62.13.55-.65.62-1,.31-1.48-.55-2.81-.94-4.18C88.05,13.33,87.84,12.82,87.39,13.09Z"/><path d="M105.83,83a6.36,6.36,0,0,0-4.06,1.46,5.49,5.49,0,0,0-.11,1.52c.05.41-.15,1,.21,1.28s.69-.22,1-.31a8.24,8.24,0,0,1,7.54.56A7.8,7.8,0,0,0,115,89a8.68,8.68,0,0,0,4.32-1.26,9.89,9.89,0,0,1,4.88-1.36,8,8,0,0,1,4.23,1.31A7.87,7.87,0,0,0,132.36,89,9.4,9.4,0,0,0,138,87.46a8.51,8.51,0,0,1,7.28-.55,15.65,15.65,0,0,1,3.33,1.68c.47.17.57-.43.54-.77a9.82,9.82,0,0,0,.05-1.94,12.45,12.45,0,0,0-6.06-2.72,7.8,7.8,0,0,0-4.16.52,24,24,0,0,1-2.79,1.42,9.65,9.65,0,0,1-5.71.28c-2-.64-3.65-2.21-5.81-2.28a9,9,0,0,0-5,1.24,9.9,9.9,0,0,1-3.92,1.33,7.74,7.74,0,0,1-5.28-1.37A8.41,8.41,0,0,0,105.83,83Z" style="fill:#fff"/><path d="M105.9,90.22a6.62,6.62,0,0,0-4.17,1.5,5.56,5.56,0,0,0-.09,1.55c.06.39-.12.93.22,1.22s.81-.27,1.2-.37a8.37,8.37,0,0,1,7.81.9,7.42,7.42,0,0,0,6,1c2-.54,3.61-1.87,5.63-2.26a7.12,7.12,0,0,1,4.89.61c1.55.74,3.06,1.81,4.84,1.8a9.16,9.16,0,0,0,5.38-1.26,7.37,7.37,0,0,1,4.27-1.31,8.21,8.21,0,0,1,3.46.55,15.56,15.56,0,0,1,3.06,1.56c.38.15.62-.27.55-.6a12.68,12.68,0,0,0,0-2.19,11.9,11.9,0,0,0-4.59-2.39,10,10,0,0,0-3.52-.18,8.09,8.09,0,0,0-3,1.25,8.7,8.7,0,0,1-4.55,1.26,7,7,0,0,1-3.14-.4c-1.84-.74-3.49-2.13-5.56-2.14a10.26,10.26,0,0,0-5.4,1.54A8.35,8.35,0,0,1,115.16,93a8.06,8.06,0,0,1-4.84-1.53,8.38,8.38,0,0,0-4.41-1.21Z" style="fill:#fff"/><path d="M105.84,97.48a6.29,6.29,0,0,0-4.08,1.46c-.24.43-.05,1-.11,1.45s-.14,1,.13,1.35.81-.23,1.21-.35a8.21,8.21,0,0,1,5.25-.32,14.12,14.12,0,0,1,3.51,1.7,6.53,6.53,0,0,0,3.36.71,6.84,6.84,0,0,0,3.48-.86c1.88-.95,3.89-1.95,6-1.74,2,0,3.57,1.31,5.31,2.05a8.77,8.77,0,0,0,6.86-.34,17.47,17.47,0,0,1,2.78-1.38,9.9,9.9,0,0,1,7,.78c.83.34,1.54.92,2.34,1.31.45.09.55-.44.45-.77a7.75,7.75,0,0,0-.37-2.16A7.85,7.85,0,0,0,147.13,99,9.49,9.49,0,0,0,140,97.81c-1.28.29-2.27,1.23-3.5,1.66a9.19,9.19,0,0,1-4.25.68,7.05,7.05,0,0,1-3.36-1,9.78,9.78,0,0,0-4.44-1.59c-2.16-.16-4.11,1-6,1.87a7.87,7.87,0,0,1-7.68-.48A8.53,8.53,0,0,0,105.84,97.48Z" style="fill:#fff"/><path d="M41.37,138.08a19.85,19.85,0,0,1-3.6-.86l-.86-.33a22.72,22.72,0,0,1-2.81-1.34c-1.18-.66-1.1-.57-1-1.22.23-2.47.76-6,1.37-9.18.34-1.78,1.21-6,1.27-6.19s5.15-.08,25.34-.08H86.34v19l-1.36.12a29.92,29.92,0,0,1-5.22.08,11.3,11.3,0,0,1-1.28-.25A14.87,14.87,0,0,1,75.12,136a11.53,11.53,0,0,0-4.73-2.14,8,8,0,0,0-2.6-.14,9.17,9.17,0,0,0-4.94,2l-.22.2-.34-.21a12.06,12.06,0,0,0-3.71-1.5,11.92,11.92,0,0,0-3,0,12.44,12.44,0,0,0-4.77,1.89,13.18,13.18,0,0,1-6.8,2,11.39,11.39,0,0,1-2.63,0Z" style="fill:#fff974"/><path d="M101.37,118.71c-.44,8-.06,16.21-.19,24.3v36.21c.93,1.66,3.13-.32,4.68,0,11.35-1.28,23.71.26,33.89-5.92,8.3-4.32,13.34-13.05,15-22,2.44-10.73.85-21.95-1.75-32.45-2.7-.73-5.93-.09-8.83-.3H101.94l-.34.16-.22.1Z" style="fill:#da251d"/><path d="M101.39,46.84c-.54,2-.07,4.25-.23,6.35v50.47c.5,1.4,2.41.49,3.54.75,14.6-.07,29.2.16,43.79-.15a1.23,1.23,0,0,0,1.4-1.74A79.57,79.57,0,0,1,151,77.94a20.18,20.18,0,0,1,6.67-10.59c.67-1.32-1.22-2.3-1.73-3.42-4.37-5.69-8.6-11.55-13.08-17.12-2.13-.43-4.47-.06-6.68-.18h-34.3l-.52.21Z" style="fill:#fff974;fill-opacity:0"/><path d="M126.71,59.56c-1.56,0-3.13,0-4.68.13-.63.2-1,.84-1.33,1.38a13.33,13.33,0,0,0-.88,3.89c-.49,1.42-1.68,1.67-2.85,2.54A31.72,31.72,0,0,0,112.35,71c-.89,1.16-.81,2.7-1,4.08-.08,1.22-.17,2.65-1.21,3.48-.35.33-1,.51-.94,1.11s.8.82,1.24,1.17a7.86,7.86,0,0,0,5.65,1.33c2.12-.24,3.83-1.68,5.85-2.25a6.93,6.93,0,0,1,4.18,0c1.58.62,3,1.58,4.65,2.1a9.85,9.85,0,0,0,5.93-.62c1.22-.53,2.29-1.42,3.63-1.63.66-.18,1.4,0,2-.31s.28-1.22.18-1.81a14.06,14.06,0,0,0-3.07-5.82,17.38,17.38,0,0,0-3.09-3.1c-1.85-1.68-2.66-4.18-3.27-6.54a3,3,0,0,0-1.84-2.29,11.61,11.61,0,0,0-3.6-.3h-1Z" style="fill:#84c225;stroke:#000;stroke-linecap:round;stroke-linejoin:round;stroke-width:0.06609918177127838px"/><path d="M101.37,46.91c-.44,8-.06,16.2-.19,24.28.17,3.06-.34,6.28.26,9.25,1.69.15,3.35-1.32,5.19-.8,2.16.56,4.8-.43,5-2.89.59-2.32.19-5.37,2.69-6.67,2.69-1.68,5.8-3.49,6.35-6.93.23-1.52,1-3.24,2.9-2.87,2.55.22,5.39-.48,7.83.37,1.66,1.21,1.08,3.61,2.37,5.15,2.57,4.58,7.74,7.58,8.43,13.12.72,1.43,2.78.84,3.9,1.82,1.19.4,3.31,2.46,4,.48,1.27-5.18,3.39-10.36,7.53-14,.21-2.11-2.45-3.62-3.36-5.49-3.88-4.94-7.46-10.23-11.52-15-13.56-.33-27.27-.06-40.89-.15l-.34.16Z" style="fill:#fff974;stroke:#000;stroke-linecap:round;stroke-linejoin:round;stroke-width:0.3778877854347229px"/><path d="M109.39,79.29c3.56-1.35,1.41-5.74,3.1-8.13,2.46-2.61,6.48-3,7.45-6.63.37-1.36,1.17-4.61,2.41-4.64l4.16-.1c1.27,0,2.28,0,3.3,0a2.92,2.92,0,0,1,3,2c.71,3,1.68,6.06,4.43,7.86,2.59,2.6,5.26,5.87,5.27,9.7-1.11,2.82-4.75,2.29-7.16,2.87-3.61,1.35-7.19.24-10.57-1.08-3.57-1.12-6.44,2.49-10.06,1.53-2.29-.63-5.32-.9-6.94-2.56C108,79.33,108.91,79.73,109.39,79.29Z" style="fill:none;stroke:#000"/><path d="M105.83,78.95a6.72,6.72,0,0,0-4.41,1.6c-.32.53-.1,1.2-.16,1.79s-.2,1.36.38,1.73,1.17-.31,1.74-.49a7.71,7.71,0,0,1,4.31-.32,9.35,9.35,0,0,1,3.35,1.5,8,8,0,0,0,7.69.15c1.69-.83,3.45-1.79,5.38-1.73a7.61,7.61,0,0,1,4,1.23,8.28,8.28,0,0,0,4,1.33,9.48,9.48,0,0,0,3.6-.39,15.34,15.34,0,0,0,3.08-1.49,8.73,8.73,0,0,1,7.07.18,28,28,0,0,1,2.79,1.49.83.83,0,0,0,1.09-.85,10.92,10.92,0,0,0,.16-2.2,7.67,7.67,0,0,0-2.25-1.76,10.4,10.4,0,0,0-8.2-1.32c-1.21.36-2.17,1.25-3.37,1.64a9.42,9.42,0,0,1-5.35.37c-1.94-.62-3.59-2.07-5.66-2.32a9.77,9.77,0,0,0-6,1.41,7.69,7.69,0,0,1-3.84,1.14,6.93,6.93,0,0,1-3.67-.77,15.49,15.49,0,0,0-2.42-1.32,8.32,8.32,0,0,0-3.39-.61Z" style="fill:#007cc3;stroke:#000;stroke-linecap:round;stroke-linejoin:round;stroke-width:0.06360487639904022px"/><path d="M106,86.2a6.82,6.82,0,0,0-4.46,1.51c-.43.46-.18,1.16-.25,1.72s-.14,1.24.25,1.72,1.09,0,1.57-.19a7.84,7.84,0,0,1,7.48.73A7.74,7.74,0,0,0,115.9,93c2.32-.15,4.15-1.83,6.35-2.36a7.55,7.55,0,0,1,3.71,0c2,.59,3.58,2.16,5.69,2.3a10.09,10.09,0,0,0,4.19-.4,15.79,15.79,0,0,0,3-1.49,8.47,8.47,0,0,1,6.92.1,18,18,0,0,1,2.61,1.41.81.81,0,0,0,1-.89,10.41,10.41,0,0,0-.08-2.44c-.31-.56-1-.8-1.48-1.18a10.43,10.43,0,0,0-6.55-1.76,7.07,7.07,0,0,0-3.6,1.19,9.23,9.23,0,0,1-5.51,1.37c-1.59,0-2.95-.87-4.32-1.55a7.41,7.41,0,0,0-3.32-1c-2.08-.19-4,.75-5.81,1.65a7.79,7.79,0,0,1-3.54,1,7.56,7.56,0,0,1-4.68-1.47A8.64,8.64,0,0,0,106,86.2Z" style="fill:#007cc3;stroke:#000;stroke-linecap:round;stroke-linejoin:round;stroke-width:0.06360487639904022px"/><path d="M105.73,93.45a6.62,6.62,0,0,0-4.3,1.59c-.31.52-.1,1.19-.16,1.77s-.15,1.29.38,1.66,1.16-.2,1.71-.38a7.75,7.75,0,0,1,5.74.09c1.24.46,2.23,1.44,3.53,1.78a8,8,0,0,0,6.06-.54,13.78,13.78,0,0,1,4.63-1.7,7,7,0,0,1,3.53.51c1.66.76,3.22,2,5.12,2a9.56,9.56,0,0,0,3.73-.37,14.21,14.21,0,0,0,3.11-1.5,8.68,8.68,0,0,1,7.58.37c.74.32,1.38.8,2.09,1.16a.81.81,0,0,0,1-.95,11.09,11.09,0,0,0-.26-2.51,4.8,4.8,0,0,0-1.47-1.18,10.27,10.27,0,0,0-7-1.68,7.67,7.67,0,0,0-3.23,1.26,9,9,0,0,1-5.16,1.25,6.05,6.05,0,0,1-3.06-.79c-1.5-.76-3-1.76-4.74-1.77A10.13,10.13,0,0,0,119,95.06a7.77,7.77,0,0,1-3.84,1.08,7.05,7.05,0,0,1-4.35-1.27A8.59,8.59,0,0,0,105.73,93.45Z" style="fill:#007cc3;stroke:#000;stroke-linecap:round;stroke-linejoin:round;stroke-width:0.06360487639904022px"/><path d="M56.67,133.91a12.08,12.08,0,0,0-6.35,2.24,17,17,0,0,1-8,1.63,21.3,21.3,0,0,1-8.2-2.56c-.47-.24-1.15-.54-1.55,0s-.18,1.32-.27,2a50.79,50.79,0,0,0,.45,9.37c.23,1.72.44,3.44.83,5.14a1,1,0,0,0,1.43.43,59,59,0,0,1,12.74-3A7.68,7.68,0,0,1,53,150.31c2.11,1.48,4.19,3.17,6.72,3.86a3.9,3.9,0,0,0,3.45-.5c.24-.23.13-.7.55-.38a6,6,0,0,0,2.6.24c.57-.26,1.3-.47,1.6-1.07-.08-.42.38,0,.6-.05,1,.18,2.32.26,3-.69.3-.16.25-.87.65-.6,1,.26,2.38.29,2.94-.75a2.08,2.08,0,0,0-.8-2.55q-4.43-3.55-8.66-7.37c-.45-.37-.93-1-1.59-.73-1.16.37-2.27,1-3.52.84-.92,0-2-.45-2.19-1.47-.09-.39.36-.67.58-.93.95-.76,2.23-.85,3.23-1.53a.85.85,0,0,0-.3-1.39,9.71,9.71,0,0,0-5.16-1.34Z" style="fill:#da251d"/><path d="M48.41,148.52a43.62,43.62,0,0,0-10.69,2.15c-1.2.4-2.45.71-3.61,1.2-.65.52-.15,1.36,0,2,1.61,6.11,4.66,12,9.54,16.17a38.07,38.07,0,0,0,6.9,4.35,42.53,42.53,0,0,0,16,3.8c5,.38,10.08.25,15.1.64a24.51,24.51,0,0,1,4.37,1c.6.12,1-.56.85-1.08,0-9.31,0-18.62,0-27.93,0-.66-.73-.83-1.28-.75-2.16-.13-4.17-1.2-6.33-1.32a13.66,13.66,0,0,0-4,.66c-.55.26-.57,1.11-1.24,1.24s-1.53-.19-2.26.06c-.55.45-.95,1.27-1.77,1.27s-1.7-.44-2.35.21a3,3,0,0,1-2.23.81c-.75,0-1.6-.48-2.24.11a2.76,2.76,0,0,1-1.83.64,4.54,4.54,0,0,1-2.24-.38c-2.35-.87-4.25-2.56-6.34-3.88a7.61,7.61,0,0,0-4.27-1Z" style="fill:#fff974"/><path d="M32.63,134.67a21.92,21.92,0,0,0,9.3,3.35c3.33.13,7-.41,9.62-2.35a10.54,10.54,0,0,1,7.21-1.35,11.65,11.65,0,0,1,6.1,3.72c1.78,1.47,5.53,1.57,6.66,3.92l3.41,7.13a1.4,1.4,0,0,1-1.13,1.9,4.67,4.67,0,0,1-2-.24,2.81,2.81,0,0,1-1.31,1.41,4.67,4.67,0,0,1-2.28-.08,7.12,7.12,0,0,1-2,1.2,7.81,7.81,0,0,1-2.54-.22,5.34,5.34,0,0,1-2,1,5.16,5.16,0,0,1-1.89-.1,15.3,15.3,0,0,1-4.71-2.42c-1.48-1.07-2.84-2.31-4.58-2.59-4.63-1.13-16.82,3.32-16.82,3.32" style="fill:none;stroke:#000"/><path d="M93.16,185l.94,2,1-2-1,.27-.93-.2Z"/><path d="M105.82,100.67a6.93,6.93,0,0,0-4.35,1.57c-.32.38-.2,1-.18,1.42.08.62.79.68,1.29.63,3.08,0,6.17,0,9.25,0a.75.75,0,0,0,.34-1.36,19.72,19.72,0,0,0-3.39-1.78,8.55,8.55,0,0,0-3-.46Z" style="fill:#007cc3;stroke:#000;stroke-linecap:round;stroke-linejoin:round;stroke-width:0.06360487639904022px"/><path d="M123.93,100.77a12.19,12.19,0,0,0-5.67,1.94.8.8,0,0,0-.19,1.37c.51.31,1.17.12,1.74.19,3.3,0,6.6,0,9.89,0a.75.75,0,0,0,.34-1.36A27.78,27.78,0,0,0,126,101a7.69,7.69,0,0,0-2.06-.21Z" style="fill:#007cc3;stroke:#000;stroke-linecap:round;stroke-linejoin:round;stroke-width:0.06360487639904022px"/><path d="M141.76,100.79a7.19,7.19,0,0,0-4.15,1.27A9.25,9.25,0,0,0,136,103a.77.77,0,0,0,.45,1.23c2.38.11,4.76,0,7.14.07,1.53,0,3.07,0,4.59,0a.75.75,0,0,0,.24-1.38,12.41,12.41,0,0,0-5.3-2.05,12.64,12.64,0,0,0-1.33,0Z" style="fill:#007cc3;stroke:#000;stroke-linecap:round;stroke-linejoin:round;stroke-width:0.06360487639904022px"/><path d="M86.69,137.67c-2.69.18-6.5.77-9-.16-2.82-1-4.49-3.21-7.58-3.58a8.55,8.55,0,0,0-7.54,2.19C61,137.29,59,137,58,138.85c0,1.79,2.25,2.26,3.67,2s2.81-1.37,4.29-.85,1.94,1,3.86,1l2.87-.06c-.7.29-2.48,1-2.93,1.82s.39,2,.94,2.4c1.49,1.31,4.51,1.84,6.32,1.74,0,0-1.8.64-2,1.58s.16,1.25.16,1.25,3.64-1.09,5.15-.54c2,.42,4,1.35,6.09,1.22" style="fill:#da251d;stroke:#000;stroke-linecap:round;stroke-linejoin:round"/><path d="M63.14,144.75s.29.62,8.66,6" style="fill:none;stroke:#000;stroke-linecap:round"/><path d="M60.17,146.8A45.65,45.65,0,0,0,67.91,152" style="fill:none;stroke:#000;stroke-linecap:round"/><path d="M56.1,148.15a31.08,31.08,0,0,0,7.54,4.9" style="fill:none;stroke:#000;stroke-linecap:round"/><path d="M64.67,139.94s4.12,4,10,8.5" style="fill:none;stroke:#000"/><path d="M60.26,153.55a15.37,15.37,0,0,1-5.5-2.89,10.39,10.39,0,0,0-3.71-2.09,8.63,8.63,0,0,0-2.82-.26,27.8,27.8,0,0,0-5.42.78c-2.18.48-5.78,1.51-7.88,2.25a4.81,4.81,0,0,1-.61.19c-.23,0-1.1-6.07-1.3-9.09a56.89,56.89,0,0,1,.08-6.85,4,4,0,0,1,.62.3,20.44,20.44,0,0,0,9.05,2.65,15.72,15.72,0,0,0,8.61-2.16,11,11,0,0,1,2.52-1.19,8.63,8.63,0,0,1,6.15.06,8.12,8.12,0,0,1,1.62.83,8.15,8.15,0,0,1-1.49.6,4.45,4.45,0,0,0-2.46,1.72.8.8,0,0,0-.16.75,2.53,2.53,0,0,0,2.09,2.08,6.29,6.29,0,0,0,2.28,0c.19,0,.8-.26,1.34-.46a10.92,10.92,0,0,1,1.09-.37,15.42,15.42,0,0,1,1.51,1.28c2.23,2,4.85,4.24,7.25,6.15,1.11.88,1.18,1,1.35,1.53a.91.91,0,0,1-.8,1.11,3.3,3.3,0,0,1-1.44-.13c-.25-.07-2.61-1.58-5-3.22-1.69-1.14-2.63-1.82-3.38-2.43-.58-.47-.77-.53-1-.3s-.19.52.12.82a53.3,53.3,0,0,0,5.57,3.94l2.5,1.66c.12.09.12.09-.05.32a2.15,2.15,0,0,1-.44.4,1.26,1.26,0,0,1-.81.19c-1.1,0-1.78-.2-3.57-1.28a57.78,57.78,0,0,1-5.44-3.87,1.43,1.43,0,0,0-.51-.29.51.51,0,0,0-.48.46c0,.26.25.5,1.85,1.71a43.32,43.32,0,0,0,5,3.35l.66.37-.37.24a2,2,0,0,1-1.51.38,4.66,4.66,0,0,1-2.31-.64,35.27,35.27,0,0,1-6.11-4c-.55-.48-.7-.57-.89-.51a.45.45,0,0,0-.36.46c0,.18.05.28.3.51a34.33,34.33,0,0,0,6.19,4.15l.57.31-.47.22a2,2,0,0,1-1.08.24,5.79,5.79,0,0,1-.91,0h0Z" style="fill:#da251d;fill-opacity:0"/><path d="M66,139.78a.77.77,0,0,0-.61,1c.15.41.57.62.86.92.82.73,1.63,1.48,2.49,2.17a.77.77,0,0,0,1.09-.24c.17-.25,0-.6.25-.84s.64-.55.93-.86a.77.77,0,0,0-.26-1.17c-.39-.16-.81,0-1.22-.07a4.74,4.74,0,0,1-1.78-.37,9.48,9.48,0,0,0-1.55-.54H66Z"/><path d="M74.35,146.49a.78.78,0,0,0-.45,1c.16.38.38.84.84.88s.79-.35,1.06-.66a.77.77,0,0,0-.25-1.12,2.64,2.64,0,0,0-1-.16l-.2,0Z"/><path d="M123.44,125.68v3.75a18.53,18.53,0,0,0-11.75,6.66l-3.12-1.81-2.84,4.91.09.06,3,1.72a18.46,18.46,0,0,0,0,13.59l-3.12,1.81,2.84,4.94.09-.06,3.09-1.78A18.54,18.54,0,0,0,123.44,166v3.88h5.69V166a18.52,18.52,0,0,0,11.34-6.69l3.53,2,2.88-4.94-3.53-2a18.5,18.5,0,0,0,0-13.12l3.5-2L144,134.28l-3.44,2a18.52,18.52,0,0,0-11.44-6.75v-3.81Zm-.06,9h.06v8.19l-7.19-4.12A13.3,13.3,0,0,1,123.38,134.65Zm5.75.09a13.33,13.33,0,0,1,6.91,4.13l-6.91,4Zm-15.75,8.88,7.22,4.16-7.19,4.16a13.19,13.19,0,0,1,0-8.31Zm25.44.22a13.26,13.26,0,0,1-.06,7.84L132,147.78Zm-15.37,8.88v8.06a13.35,13.35,0,0,1-7.12-4Zm5.69,0,6.81,3.94a13.32,13.32,0,0,1-6.81,4Z" style="fill:#fff;stroke:#000;stroke-width:0.9834582209587097px"/><path d="M101.61,80.71c2.69-2.27,6.84-1.84,9.53.2a7.8,7.8,0,0,0,7.94-.09,9.77,9.77,0,0,1,5.79-1.49c2.63.12,4.49,2.55,7.16,2.54A9.58,9.58,0,0,0,138.56,80c3.7-1.78,8.09-.17,11,2.33" style="fill:none;stroke:#000"/><path d="M101.61,98.83c2.69-2.27,6.84-1.84,9.53.2a7.8,7.8,0,0,0,7.94-.09,9.77,9.77,0,0,1,5.79-1.49c2.63.12,4.49,2.55,7.16,2.54a9.58,9.58,0,0,0,6.53-1.83c3.7-1.78,7.85-.33,10.79,2.18" style="fill:none;stroke:#000"/><path d="M101.61,102.45c2.69-2.27,6.84-1.84,9.53.2a7.8,7.8,0,0,0,7.94-.09,9.77,9.77,0,0,1,5.79-1.49c2.63.12,4.49,2.55,7.16,2.54a9.58,9.58,0,0,0,6.53-1.83c3.7-1.78,8.09-.17,11,2.33" style="fill:none;stroke:#000"/><path d="M101.61,84.34c2.69-2.27,6.84-1.84,9.53.2a7.8,7.8,0,0,0,7.94-.09,9.77,9.77,0,0,1,5.79-1.49c2.63.12,4.49,2.55,7.16,2.54a9.58,9.58,0,0,0,6.53-1.83c3.7-1.78,8.09-.17,11,2.33" style="fill:none;stroke:#000"/><path d="M101.61,95.2c2.69-2.27,6.84-1.84,9.53.2a7.8,7.8,0,0,0,7.94-.09,9.77,9.77,0,0,1,5.79-1.49c2.63.12,4.49,2.55,7.16,2.54a9.58,9.58,0,0,0,6.53-1.83c3.7-1.78,7.73-.39,10.67,2.12" style="fill:none;stroke:#000"/><path d="M101.61,91.58c2.69-2.27,6.84-1.84,9.53.2a7.8,7.8,0,0,0,7.94-.09,9.77,9.77,0,0,1,5.79-1.49c2.63.12,4.49,2.55,7.16,2.54a9.58,9.58,0,0,0,6.53-1.83c3.7-1.78,7.76-.42,10.7,2.09" style="fill:none;stroke:#000"/><path d="M101.61,88c2.69-2.27,6.84-1.84,9.53.2a7.8,7.8,0,0,0,7.94-.09,9.77,9.77,0,0,1,5.79-1.49c2.63.12,4.49,2.55,7.16,2.54a9.58,9.58,0,0,0,6.53-1.83c3.7-1.78,7.88-.33,10.82,2.18" style="fill:none;stroke:#000"/><path d="M86.82,47.78v56.68H38.94c-1.11,2.46-1,5.61-1.84,8.31.05,1.76-2.08,4.84-.43,5.68H86.82v60.77c2.33,1.7,5.08,3.07,6.91,5.47,2-.81,3.45-3.14,5.54-4.06,2.67-.31,1.8-3,1.9-4.92q0-28.62,0-57.25H151.9c.64-1.36-.6-3.43-.65-5.09-.78-2.91-.83-6.26-2.09-8.89h-48V47.78c-2.2-.89-5.09-.12-7.56-.38-2.2.24-4.87-.49-6.8.38Z" style="fill:#fff"/><path d="M45.27,46.79c-3.15,4-6.18,8.16-9.29,12.23-1.86,2.49-3.79,4.95-5.6,7.47-.41.86.71,1.27,1.18,1.8,3.79,3.36,5.64,8.37,6.41,13.27a97.3,97.3,0,0,1,.8,14.3,63.4,63.4,0,0,1-.59,7.69c.09,1,1.3.85,2,.82,1-.07,2.15.12,3-.59a35.81,35.81,0,0,1,10-3.64c.76-.27.49-1.24-.06-1.59a22.17,22.17,0,0,1-5.93-10.75,53.28,53.28,0,0,1-1-12.31c1.37,1.47,2.55,3.1,3.9,4.58a.84.84,0,0,0,1.26-.84c.12-1.51.18-3,.35-4.52,1,1.32,1.91,2.76,3,4.05a.84.84,0,0,0,1.4-.59c.26-1.46.45-3,.76-4.41,1.37,2.16,2.5,4.45,3.75,6.68a.84.84,0,0,0,1.54-.35c.88-2.89,1.76-5.76,2.9-8.57.06-.21.17.86.23,1.2a17.38,17.38,0,0,0,.86,4.64,13.24,13.24,0,0,0,1,2.77c.58.53,1.29,0,1.51-.62,1.07-1.94,2.17-3.87,3.37-5.73.34,1.62.41,3.28.81,4.88a.86.86,0,0,0,1.57-.1c.91-1.27,1.74-2.59,2.65-3.86.25,1.71.27,3.47.58,5.17a.88.88,0,0,0,1.6-.1c1.07-1.45,2.22-2.84,3.39-4.22A92.66,92.66,0,0,1,82.31,85a21.49,21.49,0,0,1-2.66,8.52,37.87,37.87,0,0,1-4.22,5.94.93.93,0,0,0,.63,1.51,32.42,32.42,0,0,1,7.11,3.17,8.79,8.79,0,0,0,3.14.19c1-.21.56-1.42.64-2.14,0-18.23,0-36.47-.12-54.7-.18-1-1.37-.69-2.09-.77-13-.11-26,0-39-.06l-.43.14ZM56.87,51c1.32.06,2.2,1.26,3,2.15a10.65,10.65,0,0,1,2.5,6.17c0,.64-.56,1.32-.28,1.9-.51-.85-1.68-.85-2.33-1.57a12.26,12.26,0,0,1-3.59-6c-.14-.8-.36-1.83.24-2.48A.79.79,0,0,1,56.87,51Z" style="fill:#007cc3;stroke:#000;stroke-linecap:round;stroke-linejoin:round;stroke-width:0.1091260090470314px"/><path d="M65.46,80.36s1.31-8.51-3.6-19.86" style="fill:none;stroke:#000;stroke-width:1.5px"/><path d="M61.24,54.58c1.58,2.73,2,5.46.85,6.09s-3.28-1.06-4.85-3.79-2-5.46-.85-6.09S59.66,51.85,61.24,54.58Z" style="fill:#fff974;stroke:#000;stroke-linecap:round;stroke-linejoin:round;stroke-width:0.9455984830856323px"/><path d="M54.44,100.1a23.6,23.6,0,0,1-6.83-9.82c-2.1-6.09-1.7-15.52-1.7-15.52s6.57,6.9,8.77,12.6a30.37,30.37,0,0,1,1.48,12.35" style="fill:#fff974;stroke:#000"/><path d="M49.68,85.11,55,99.77" style="fill:none;stroke:#000;stroke-linecap:round"/><path d="M57.8,100a23.6,23.6,0,0,1-5.95-10.38C50.3,83.35,51.52,74,51.52,74s5.95,7.44,7.64,13.32a30.37,30.37,0,0,1,.39,12.43" style="fill:#fff974;stroke:#000"/><path d="M54.37,84.63l4,15.07" style="fill:none;stroke:#000;stroke-linecap:round"/><path d="M60.68,99.45a23.6,23.6,0,0,1-5-10.86c-1-6.36,1-15.58,1-15.58S62,80.94,63.13,86.94a30.37,30.37,0,0,1-.69,12.42" style="fill:#fff974;stroke:#000"/><path d="M58.6,83.86l2.71,15.37" style="fill:none;stroke:#000;stroke-linecap:round"/><path d="M73.14,99.72a23.6,23.6,0,0,1,1.09-11.91c2.3-6,8.67-13,8.67-13s.6,9.51-1.38,15.29a30.37,30.37,0,0,1-6.81,10.41" style="fill:#fff974;stroke:#000"/><path d="M79.13,85.18,73.79,99.85" style="fill:none;stroke:#000;stroke-linecap:round"/><path d="M69.71,99.63a23.6,23.6,0,0,1,0-12C71.53,81.47,77.26,74,77.26,74s1.43,9.42,0,15.35a30.37,30.37,0,0,1-5.88,11" style="fill:#fff974;stroke:#000"/><path d="M74.41,84.62l-4,15.07" style="fill:none;stroke:#000;stroke-linecap:round"/><path d="M66,99a23.6,23.6,0,0,1-.58-11.95C66.85,80.82,72.19,73,72.19,73s1.92,9.33.76,15.33a30.37,30.37,0,0,1-5.29,11.26" style="fill:#fff974;stroke:#000"/><path d="M69.9,83.81,66.65,99.07" style="fill:none;stroke:#000;stroke-linecap:round"/><path d="M63.82,98.92a23.6,23.6,0,0,1-3.06-11.57c.11-6.44,3.71-15.17,3.71-15.17S68.3,80.91,68.41,87a30.37,30.37,0,0,1-2.84,12.11" style="fill:#fff974;stroke:#000"/><path d="M64.48,83.2V98.81" style="fill:none;stroke:#000;stroke-linecap:round"/><path d="M42.22,104s6.33-4.91,20.41-5.13,20.73,5,20.73,5" style="fill:#fff974;stroke:#000"/><path d="M86.56,46.88l.12,57.18H38.41" style="fill:none;stroke:#000"/><path d="M94.56,46.94H45.46l-15.12,20c8.58,6.13,8.52,17.77,8.74,27.26.31,17.71-8.87,34.47-6.1,52.28,1.05,10.23,5.31,21.07,14.86,26.13,9.68,6.23,21.45,5.35,32.42,5.84,5.5.32,10.94,2.74,13.95,7.55" style="fill:none;stroke:#000"/><path d="M93.62,46.94h49.1l15.12,20c-8.58,6.13-8.52,17.77-8.74,27.26-.31,17.71,8.87,34.47,6.1,52.28-1.05,10.23-5.31,21.07-14.86,26.13-9.68,6.23-21.45,5.35-32.42,5.84-5.5.32-10.94,2.74-13.95,7.55" style="fill:none;stroke:#000"/><path d="M101.52,46.76v57.3h48.33" style="fill:none;stroke:#000"/><path d="M35.37,118.65h51.2v61.14" style="fill:none;stroke:#000"/><path d="M152.83,118.65H101.52v61.1" style="fill:none;stroke:#000"/><path d="M105.81,83a6.16,6.16,0,0,0-4,1.49,8.22,8.22,0,0,0-.07,1.76c0,.37-.13,1.11.44,1.05a9.23,9.23,0,0,1,2.68-.92,8.79,8.79,0,0,1,6.09,1.42,7.6,7.6,0,0,0,7.88.24A13.23,13.23,0,0,1,123,86.45a7.52,7.52,0,0,1,3.89.52,25.57,25.57,0,0,0,4.31,1.89,9.44,9.44,0,0,0,6.41-1.21,8.42,8.42,0,0,1,7.25-.85,14.82,14.82,0,0,1,3.67,1.79c.52.17.56-.51.56-.86a7.2,7.2,0,0,0,0-1.89,11.65,11.65,0,0,0-7.6-2.72,7.51,7.51,0,0,0-4,1.4,9.69,9.69,0,0,1-7.05.87c-2-.67-3.63-2.19-5.78-2.28-2.21-.25-4.22.89-6.14,1.8a8.07,8.07,0,0,1-6.69.17,19.34,19.34,0,0,0-3.38-1.71,8.16,8.16,0,0,0-2.63-.38Z" style="fill-opacity:0"/><path d="M138.59,199.76c-2.07.53-3.07,3.53-1.27,4.92,1.59,1.72,4.38-.76,3.39-2.64-.4-.89-.88-2.47-2.12-2.28Z" style="fill:#b8db7c"/><path d="M147.49,179.63c-2.39.13-3.38,3.85-1.13,5,1.82,1.22,4.29-1.13,3.55-3.09A2.34,2.34,0,0,0,147.49,179.63Z" style="fill:#b8db7c"/><path d="M155.79,187.17c-1.77-.09-3.36,2.25-1.94,3.63,1,.86,2.83,1.66,3.76.26C158.88,189.63,157.93,186.87,155.79,187.17Z" style="fill:#b8db7c"/><path d="M174,162.79c-2.2.06-3.65,3.39-1.63,4.69a2.83,2.83,0,0,0,4.31-2.81,2.45,2.45,0,0,0-2.68-1.88Z" style="fill:#b8db7c"/><path d="M169.94,176.2a32.52,32.52,0,0,0-12.14,4.89c-.88.38-1.17,2,.11,2a26.11,26.11,0,0,0,5.53-1.64c-.54,1.08,1,1.52,1.7,1,2.5-1,5.1-2.63,6.13-5.23.13-.78-.7-1.12-1.34-1Z" style="fill:#b8db7c"/><path d="M148.62,196.46c-1,.08-3.09-.14-3,1.27.53,1.08,2.08.92,3.08,1.32a28.85,28.85,0,0,0,7.46-.18c1.34-.72-.14-1.81-1.11-1.81a28.43,28.43,0,0,0-6.47-.6Z" style="fill:#b8db7c"/><path d="M151.63,194.76c-.91.14-2.47-.27-2.7,1,.39,1.36,2.21.79,3.26,1.1,1.43.25,3.12.3,4.32,1.14.33,1.52,3.43.42,2.46-.94C157,195.19,154.21,194.63,151.63,194.76Z" style="fill:#b8db7c"/><path d="M123.33,203.38c-.94,0-2.7,0-2.54,1.34.56.94,1.88.77,2.8,1.12-1.17.63.07,1.77.85,2.07,3.25,1.79,7.09,3,10.77,1.84.94-.17,2.87-.82,1.77-2a12.72,12.72,0,0,0-9.82-4.3c-1.28-.08-2.56-.12-3.84-.1Z" style="fill:#b8db7c"/><path d="M123.46,186.83a12.8,12.8,0,0,0-7.92,6.5,15.07,15.07,0,0,0-.88,5.44c0,.91,1.5.3,1.19.65-.67.92.69,1.74,1.42,1,4.05-2.48,6.52-7,7.47-11.54C124.9,188,124.63,186.69,123.46,186.83Z" style="fill:#b8db7c"/><path d="M139.68,180.92a16.52,16.52,0,0,0-6.52,5.43,16.73,16.73,0,0,0-2.58,6.17c-.09,1.19,1.43.25,1.33.9.79,1.34,2.16-.17,2.94-.73,3.31-2.66,6.16-6.64,5.79-11.08a.87.87,0,0,0-1-.69Z" style="fill:#b8db7c"/><path d="M155.83,163.24c-2.66,3.59-5.65,7.69-5.28,12.4a5.34,5.34,0,0,0,1.59,3.34c1.56.27.41-2.26,1.8-1.41,1.16-.35,1.43-1.91,2-2.84,1.27-2.48,2.28-5.18,1.9-8a6.58,6.58,0,0,0-1.11-3.7.9.9,0,0,0-.94.23Z" style="fill:#b8db7c"/><path d="M162.86,157.18c-1.93.45-3.64,3.2-2,4.85,1.45,2.19,5.67.57,4.9-2.07C165.37,158.66,164.4,157.11,162.86,157.18Z" style="fill:#b8db7c"/><path d="M162.26,139.37c-2.26,4.49-1,10.13,2.18,13.86.9.68,1.37-1,1.56.51.12,1,1.71,1,1.66,0,0-4.19,0-8.74-2.49-12.31-.78-.77-1.46-2.12-2.58-2.17l-.2.07Z" style="fill:#b8db7c"/><path d="M184.51,145.83a12.22,12.22,0,0,0-7.83,8c-.43.78.31,1.89,1.13,1.42-.57,1,.85,1.64,1.52.93a12.53,12.53,0,0,0,6.09-8.39c.25-.78.32-2.14-.91-2Z" style="fill:#b8db7c"/><path d="M181.32,137.34c-2,.2-3.85,2.93-2.16,4.56,1.51,1.82,4.9,1.44,5.62-.92.54-2-1.63-3.74-3.46-3.64Z" style="fill:#b8db7c"/><path d="M169,135.39c-1.9-.13-2.31,2.65-.82,3.47,1.75,1.37,4-1.59,2.5-3.06A2.42,2.42,0,0,0,169,135.39Z" style="fill:#b8db7c"/><path d="M186.81,117.09a12.89,12.89,0,0,0-4.65,9.89c.45,1.1,1.34.28,1.93,1.22,1.21-.06,1.67-1.56,2.26-2.44a17.51,17.51,0,0,0,1.52-8.43A.77.77,0,0,0,186.81,117.09Z" style="fill:#b8db7c"/><path d="M180.58,113.51c-2,.14-4.14,2.82-2.54,4.6a3.35,3.35,0,0,0,4.76-.17C183.87,116.27,182.85,113.28,180.58,113.51Z" style="fill:#b8db7c"/><path d="M168.12,114.68c-2,.14-2.89,3.42-.8,4.19,1.5,1.11,4-.2,3.52-2.14A2.67,2.67,0,0,0,168.12,114.68Z" style="fill:#b8db7c"/><path d="M159.39,117.52c-1.44.47-.37,2.2,0,3.11a18,18,0,0,0,9.89,9.76c1.19.08,1-1.45.17-1.88-1.28-1-.08-.55.15-1.58-.6-2-2.23-3.63-3.55-5.25-1.86-1.76-4-3.57-6.52-4.16h-.12Z" style="fill:#b8db7c"/><path d="M182.51,94.32c-2.68,2.75-5.72,6.17-5.25,10.3a.88.88,0,0,0,1.53.55c.27,1.43,2.13.73,2.86.05,2.44-2.31,2.34-6,2.31-9.09-.06-.85-.1-2.66-1.44-1.82Z" style="fill:#b8db7c"/><path d="M155.69,95.91c-1.44.26-.55,1.94,0,2.66,2,3.35,4.71,6.72,8.52,8.06,1.17.27,1.25-1.31.38-1.77-1.1-.67.68-.34.52-1.24-.48-1.9-2.1-3.33-3.45-4.69a14.72,14.72,0,0,0-5.82-3h-.11Z" style="fill:#b8db7c"/><path d="M167,86.25c-2.6,4.58-2.06,10.45.22,15.06.65,1.08.95,2.51,1.92,3.3,1.06.53,1.36-1,1.16-1.74.13-.62-.56-2.08.3-1.46,1.4,0,1-1.91,1.1-2.86a20.66,20.66,0,0,0-3.1-11.46c-.37-.52-.86-1.25-1.59-.84Z" style="fill:#b8db7c"/><path d="M100.5,206.34c5.49-1.63,13.19-1,18.76-1.73a143.07,143.07,0,0,0,19.49-9.28c4-2.23,7.2-5.6,11.14-7.94,5.52-3.79,8.82-9.72,12.86-14.87,3.72-4.85,5.36-10.84,8.86-15.81,4-4.45,1.52-10.18,3.15-15.22,2.23-5.06.75-10.55.28-15.8-2.77-4.62-1.18-10.57-4.31-14.94-1.58-1.55-3.51-2.66-5.2-4.07" style="fill:none;stroke:#000;stroke-linecap:round"/><path d="M169.8,105.21c.48,1.73.67,3.53,1,5.3" style="fill:none;stroke:#000;stroke-linecap:round"/><path d="M177.72,106.06s-3.54,3.9-4.63,12.43" style="fill:none;stroke:#000;stroke-linecap:round"/><path d="M170.41,118.5l3.29,3.66" style="fill:none;stroke:#000;stroke-linecap:round"/><path d="M178.45,118.74s-3.66,1.71-4.27,5.24" style="fill:none;stroke:#000;stroke-linecap:round"/><path d="M180.28,142.52a8.86,8.86,0,0,0-6.1,5.36" style="fill:none;stroke:#000;stroke-linecap:round"/><path d="M170.29,138.61s4,4.63,3.9,9.39" style="fill:none;stroke:#000;stroke-linecap:round"/><path d="M181.87,150.81s-7.07,8.78-13.17,11.58" style="fill:none;stroke:#000;stroke-linecap:round"/><path d="M167.24,156s2.32,2.68,1.46,5.36" style="fill:none;stroke:#000;stroke-linecap:round"/><path d="M171.38,166.65a11.32,11.32,0,0,0-7.07,3.9" style="fill:none;stroke:#000;stroke-linecap:round"/><path d="M164.43,162.63s1.71.61,1.22,6.1" style="fill:none;stroke:#000"/><path d="M147.49,184.94v4" style="fill:none;stroke:#000"/><path d="M153.34,189.82l-5.24-1.1" style="fill:none;stroke:#000;stroke-linecap:round"/><path d="M144.56,196.89s-5.61.24-7.19-.61" style="fill:none;stroke:#000;stroke-linecap:round"/><path d="M136.52,186.4s-3.41,2.32-7.8,14.14" style="fill:none;stroke:#000;stroke-linecap:round"/><path d="M136.15,201.76s-1.34-1.83-5.36-2.07" style="fill:none;stroke:#000;stroke-linecap:round"/><path d="M121.52,190.67s-2.44,6.46-10.73,14" style="fill:none;stroke:#000;stroke-linecap:round"/><path d="M132.37,207.74s.37-.12-13.29-3" style="fill:none;stroke:#000;stroke-linecap:round"/><path d="M114.7,200.91c-.34-1.95.33-4.59.56-6.51a11.27,11.27,0,0,1,6.75-6.94c.71-.32,2.13-1,2.13-1,1.57,2.84-.94,7.1-2.44,9.67a12.33,12.33,0,0,1-5.46,4.7c-.62.19-1.35,0-1.89.43" style="fill:none;stroke:#000"/><path d="M130.54,195.3s-1-9.75,10-14.75c0,0,2,8.66-10,14.75Z" style="fill:none;stroke:#000"/><path d="M120.91,205.05s7.19,7.8,16.46,3.9c0,0-1.83-6.71-15.85-5.36" style="fill:none;stroke:#000"/><path d="M144.81,196.89s8-1.1,11.83.85" style="fill:none;stroke:#000;stroke-linecap:round"/><path d="M144.85,197.13s4.12,4,15,.86c0,0-4.12-6.24-15-1.22" style="fill:none;stroke:#000;stroke-linecap:round;stroke-width:0.9848069548606873px"/><path d="M138.47,199.81c-.31.32-.8.39-1.05.76a1.62,1.62,0,0,0-.79,1.19,3.16,3.16,0,0,0,.28,2.43,2.17,2.17,0,0,0,2.3.91,2.84,2.84,0,0,0,1.34-1.11,2.59,2.59,0,0,0-.15-2.43,6.72,6.72,0,0,0-.52-1.24.83.83,0,0,0-.88-.48c-.18,0-.35,0-.53,0Z" style="fill:none;stroke:#000"/><path d="M156.51,187.26h-1.1c-.24.25-.7.09-.88.42a2.45,2.45,0,0,0-.82.68c-.13.49-.5,1-.34,1.49a3.06,3.06,0,0,0,.78,1.11c.31.2.65.32,1,.53a2.91,2.91,0,0,0,1,.28,1.79,1.79,0,0,0,1-.43,2.33,2.33,0,0,0,.68-2.83c-.16-.28-.13-.67-.42-.87a2.52,2.52,0,0,0-.95-.38Z" style="fill:none;stroke:#000"/><path d="M147.85,179.7a2.15,2.15,0,0,0-2,.84,3,3,0,0,0-.73,2.05,1.77,1.77,0,0,0,.59,1.38,6.94,6.94,0,0,0,.82.76,2.77,2.77,0,0,0,1.34.07c.39-.11.72-.35,1.09-.5a3.45,3.45,0,0,0,.69-.92,3.79,3.79,0,0,0,.27-1.29c0-.4-.28-.71-.36-1.08a1.77,1.77,0,0,0-1.36-1.23,1.4,1.4,0,0,0-.37-.08Z" style="fill:none;stroke:#000"/><path d="M153.46,184.33s-1.46-12.19,1.83-16.82" style="fill:none;stroke:#000;stroke-linecap:round"/><path d="M153,179.58s-7.31-3.9,3.54-16.95c0,0,4.75,6.1-3.29,16.21" style="fill:none;stroke:#000"/><path d="M154.93,183s13.41,2.44,16.95-7.07c0,0-12.68,2.07-15.6,7.07" style="fill:none;stroke:#000"/><path d="M164.92,180.43s-2.07,2-8.66,2.68" style="fill:none;stroke:#000;stroke-linecap:round"/><path d="M176.38,156.53a11.78,11.78,0,0,1,9.14-11s.49,9.39-10.24,12.07" style="fill:none;stroke:#000"/><path d="M164.43,145.69a20,20,0,0,0,2.93,10.48s-9.39-7.19-5-16.95c0,0,6.46,1.58,5,16.95" style="fill:none;stroke:#000"/><path d="M163.09,157.27c-2.34.1-4,3.61-1.87,5.11,1.74,1.47,5.14.12,4.44-2.35a3.17,3.17,0,0,0-2.58-2.76Z" style="fill:none;stroke:#000"/><path d="M174.68,162.87c-2.6-.68-4.68,3.44-1.94,4.66,2.06,1.19,4.78-1,3.69-3.22a1.92,1.92,0,0,0-1.75-1.44Z" style="fill:none;stroke:#000"/><path d="M169.31,135.44c-2.4-.64-2.69,3.68-.29,3.62C171.37,139.43,172,135.15,169.31,135.44Z" style="fill:none;stroke:#000"/><path d="M182.6,137.64c-2.82-1.44-5.94,3.55-2.59,4.77,2.17,1.88,6.31-1,4.22-3.54A3.84,3.84,0,0,0,182.6,137.64Z" style="fill:none;stroke:#000"/><path d="M162.85,121.91s13,13,13.29,13.9" style="fill:none;stroke:#000;stroke-linecap:round"/><path d="M185.77,122.16s-3,9.63-9.63,13.78" style="fill:none;stroke:#000;stroke-linecap:round"/><path d="M172,131.18s-10.48-1.58-13.65-13.9c0,0,8.66,1.1,12.68,13" style="fill:none;stroke:#000"/><path d="M182.23,129.23s-1.22-8,5.49-12.8c0,0,1.34,10.48-6,13.78" style="fill:none;stroke:#000"/><path d="M181.87,99.36s-.12,2.32-4,6.71c0,0-3.29-4.75,5.73-12.43,0,0,2.19,13.41-5.36,12.31" style="fill:none;stroke:#000;stroke-linecap:round"/><path d="M168.46,91.92a58.34,58.34,0,0,1,1.71,12.68" style="fill:none;stroke:#000;stroke-linecap:round"/><path d="M169.92,105.94a20.56,20.56,0,0,0-2.44-20.36s-6.22,8,2.44,20.36" style="fill:none;stroke:#000"/><path d="M158.7,99l6.95,7.07" style="fill:none;stroke:#000;stroke-linecap:round"/><path d="M166,106.92s-.73-9-11.7-11.34c0,0,4,10.48,11.7,11.34Z" style="fill:none;stroke:#000"/><path d="M168.58,114.84c-2.16-.46-3.47,3-1.3,3.91,1.52,1.3,4.45-.4,3.38-2.36a2.25,2.25,0,0,0-2.08-1.54Z" style="fill:none;stroke:#000"/><path d="M180.53,113.62c-2.12,0-4.21,3.28-2.13,4.75,1.38.92,3.65.77,4.54-.73C183.63,116,182.65,113.17,180.53,113.62Z" style="fill:none;stroke:#000"/><path d="M49.72,200.17c2.07.53,3.07,3.53,1.27,4.92-1.59,1.72-4.38-.76-3.39-2.64.4-.89.88-2.47,2.12-2.28Z" style="fill:#b8db7c"/><path d="M40.83,180c2.39.13,3.38,3.85,1.13,5-1.82,1.22-4.29-1.13-3.55-3.09A2.34,2.34,0,0,1,40.83,180Z" style="fill:#b8db7c"/><path d="M32.53,187.58c1.77-.09,3.36,2.25,1.94,3.63-1,.86-2.83,1.66-3.76.26C29.44,190,30.38,187.28,32.53,187.58Z" style="fill:#b8db7c"/><path d="M14.31,163.21c2.2.06,3.65,3.39,1.63,4.69a2.83,2.83,0,0,1-4.31-2.81,2.45,2.45,0,0,1,2.68-1.88Z" style="fill:#b8db7c"/><path d="M18.37,176.62a32.52,32.52,0,0,1,12.14,4.89c.88.38,1.17,2-.11,2a26.11,26.11,0,0,1-5.53-1.64c.54,1.08-1,1.52-1.7,1-2.5-1-5.1-2.63-6.13-5.23-.13-.78.7-1.12,1.34-1Z" style="fill:#b8db7c"/><path d="M39.69,196.87c1,.08,3.09-.14,3,1.27-.53,1.08-2.08.92-3.08,1.32a28.85,28.85,0,0,1-7.46-.18c-1.34-.72.14-1.81,1.11-1.81a28.43,28.43,0,0,1,6.47-.6Z" style="fill:#b8db7c"/><path d="M36.69,195.17c.91.14,2.47-.27,2.7,1-.39,1.36-2.21.79-3.26,1.1-1.43.25-3.12.3-4.32,1.14-.33,1.52-3.43.42-2.46-.94C31.27,195.6,34.11,195,36.69,195.17Z" style="fill:#b8db7c"/><path d="M65,203.79c.94,0,2.7,0,2.54,1.34-.56.94-1.88.77-2.8,1.12,1.17.63-.07,1.77-.85,2.07-3.25,1.79-7.09,3-10.77,1.84-.94-.17-2.87-.82-1.77-2a12.72,12.72,0,0,1,9.82-4.3c1.28-.08,2.56-.12,3.84-.1Z" style="fill:#b8db7c"/><path d="M64.85,187.24a12.8,12.8,0,0,1,7.92,6.5,15.07,15.07,0,0,1,.88,5.44c0,.91-1.5.3-1.19.65.67.92-.69,1.74-1.42,1-4.05-2.48-6.52-7-7.47-11.54C63.42,188.45,63.68,187.1,64.85,187.24Z" style="fill:#b8db7c"/><path d="M48.63,181.33a16.52,16.52,0,0,1,6.52,5.43,16.73,16.73,0,0,1,2.58,6.17c.09,1.19-1.43.25-1.33.9-.79,1.34-2.16-.17-2.94-.73-3.31-2.66-6.16-6.64-5.79-11.08a.87.87,0,0,1,1-.69Z" style="fill:#b8db7c"/><path d="M32.48,163.65c2.66,3.59,5.65,7.69,5.28,12.4a5.34,5.34,0,0,1-1.59,3.34c-1.56.27-.41-2.26-1.8-1.41-1.16-.35-1.43-1.91-2-2.84-1.27-2.48-2.28-5.18-1.9-8a6.58,6.58,0,0,1,1.11-3.7.9.9,0,0,1,.94.23Z" style="fill:#b8db7c"/><path d="M25.46,157.6c1.93.45,3.64,3.2,2,4.85-1.45,2.19-5.67.57-4.9-2.07C22.94,159.08,23.92,157.52,25.46,157.6Z" style="fill:#b8db7c"/><path d="M26.06,139.78c2.26,4.49,1,10.13-2.18,13.86-.9.68-1.37-1-1.56.51-.12,1-1.71,1-1.66,0,0-4.19,0-8.74,2.49-12.31.78-.77,1.46-2.12,2.58-2.17l.2.07Z" style="fill:#b8db7c"/><path d="M3.81,146.24a12.22,12.22,0,0,1,7.83,8c.43.78-.31,1.89-1.13,1.42.57,1-.85,1.64-1.52.93a12.53,12.53,0,0,1-6.09-8.39c-.25-.78-.32-2.14.91-2Z" style="fill:#b8db7c"/><path d="M7,137.75c2,.2,3.85,2.93,2.16,4.56-1.51,1.82-4.9,1.44-5.62-.92-.54-2,1.63-3.74,3.46-3.64Z" style="fill:#b8db7c"/><path d="M19.32,135.8c1.9-.13,2.31,2.65.82,3.47-1.75,1.37-4-1.59-2.5-3.06A2.42,2.42,0,0,1,19.32,135.8Z" style="fill:#b8db7c"/><path d="M1.5,117.5a12.89,12.89,0,0,1,4.65,9.89c-.45,1.1-1.34.28-1.93,1.22C3,128.55,2.55,127,2,126.17a17.51,17.51,0,0,1-1.52-8.43A.77.77,0,0,1,1.5,117.5Z" style="fill:#b8db7c"/><path d="M7.74,113.92c2,.14,4.14,2.82,2.54,4.6a3.35,3.35,0,0,1-4.76-.17C4.44,116.68,5.47,113.69,7.74,113.92Z" style="fill:#b8db7c"/><path d="M20.19,115.09c2,.14,2.89,3.42.8,4.19-1.5,1.11-4-.2-3.52-2.14A2.67,2.67,0,0,1,20.19,115.09Z" style="fill:#b8db7c"/><path d="M28.92,117.93c1.44.47.37,2.2,0,3.11A18,18,0,0,1,19,130.8c-1.19.08-1-1.45-.17-1.88,1.28-1,.08-.55-.15-1.58.6-2,2.23-3.63,3.55-5.25,1.86-1.76,4-3.57,6.52-4.16h.12Z" style="fill:#b8db7c"/><path d="M5.81,94.74c2.68,2.75,5.72,6.17,5.25,10.3a.88.88,0,0,1-1.53.55c-.27,1.43-2.13.73-2.86.05-2.44-2.31-2.34-6-2.31-9.09.06-.85.1-2.66,1.44-1.82Z" style="fill:#b8db7c"/><path d="M32.62,96.32c1.44.26.55,1.94,0,2.66-2,3.35-4.71,6.72-8.52,8.06-1.17.27-1.25-1.31-.38-1.77,1.1-.67-.68-.34-.52-1.24.48-1.9,2.1-3.33,3.45-4.69a14.72,14.72,0,0,1,5.82-3h.11Z" style="fill:#b8db7c"/><path d="M21.35,86.66c2.6,4.58,2.06,10.45-.22,15.06-.65,1.08-.95,2.51-1.92,3.3-1.06.53-1.36-1-1.16-1.74-.13-.62.56-2.08-.3-1.46-1.4,0-1-1.91-1.1-2.86a20.66,20.66,0,0,1,3.1-11.46c.37-.52.86-1.25,1.59-.84Z" style="fill:#b8db7c"/><path d="M85.84,205.34c-5.49-1.63-11.21.38-16.78-.32a143.07,143.07,0,0,1-19.49-9.28c-4-2.23-7.2-5.6-11.14-7.94-5.52-3.79-8.82-9.72-12.86-14.87-3.72-4.85-5.36-10.84-8.86-15.81-4-4.45-1.52-10.18-3.15-15.22-2.23-5.06-.75-10.55-.28-15.8,2.77-4.62,1.18-10.57,4.31-14.94,1.58-1.55,3.51-2.66,5.2-4.07" style="fill:none;stroke:#000;stroke-linecap:round"/><path d="M18.52,105.62c-.48,1.73-.67,3.53-1,5.3" style="fill:none;stroke:#000;stroke-linecap:round"/><path d="M10.59,106.48s3.54,3.9,4.63,12.43" style="fill:none;stroke:#000;stroke-linecap:round"/><path d="M17.91,118.91l-3.29,3.66" style="fill:none;stroke:#000;stroke-linecap:round"/><path d="M9.86,119.15s3.66,1.71,4.27,5.24" style="fill:none;stroke:#000;stroke-linecap:round"/><path d="M8,142.93a8.86,8.86,0,0,1,6.1,5.36" style="fill:none;stroke:#000;stroke-linecap:round"/><path d="M18,139s-4,4.63-3.9,9.39" style="fill:none;stroke:#000;stroke-linecap:round"/><path d="M6.45,151.22S13.52,160,19.61,162.8" style="fill:none;stroke:#000;stroke-linecap:round"/><path d="M21.08,156.46s-2.32,2.68-1.46,5.36" style="fill:none;stroke:#000;stroke-linecap:round"/><path d="M16.93,167.06A11.32,11.32,0,0,1,24,171" style="fill:none;stroke:#000;stroke-linecap:round"/><path d="M23.88,163s-1.71.61-1.22,6.1" style="fill:none;stroke:#000"/><path d="M40.83,185.35v4" style="fill:none;stroke:#000"/><path d="M35,190.23l5.24-1.1" style="fill:none;stroke:#000;stroke-linecap:round"/><path d="M43.75,197.3s5.61.24,7.19-.61" style="fill:none;stroke:#000;stroke-linecap:round"/><path d="M51.8,186.81s3.41,2.32,7.8,14.14" style="fill:none;stroke:#000;stroke-linecap:round"/><path d="M52.16,202.17s1.34-1.83,5.36-2.07" style="fill:none;stroke:#000;stroke-linecap:round"/><path d="M66.79,191.08s2.25,6.18,10.54,13.74" style="fill:none;stroke:#000;stroke-linecap:round"/><path d="M55.94,208.15s-.37-.12,13.29-3" style="fill:none;stroke:#000;stroke-linecap:round"/><path d="M73.62,201.32c.34-1.95-.33-4.59-.56-6.51a11.27,11.27,0,0,0-6.75-6.94c-.71-.32-2.13-1-2.13-1-1.57,2.84.94,7.1,2.44,9.67a12.33,12.33,0,0,0,5.46,4.7c.62.19,1.54-.09,2.08.33" style="fill:none;stroke:#000"/><path d="M57.77,195.71s1-9.75-10-14.75c0,0-2,8.66,10,14.75Z" style="fill:none;stroke:#000"/><path d="M67.4,205.47s-7.19,7.8-16.46,3.9c0,0,1.83-6.71,15.85-5.36" style="fill:none;stroke:#000"/><path d="M43.51,197.3s-8-1.1-11.83.85" style="fill:none;stroke:#000;stroke-linecap:round"/><path d="M43.47,197.54s-4.12,4-15,.86c0,0,4.12-6.24,15-1.22" style="fill:none;stroke:#000;stroke-linecap:round;stroke-width:0.9848069548606873px"/><path d="M49.85,200.22c.31.32.8.39,1.05.76a1.62,1.62,0,0,1,.79,1.19,3.16,3.16,0,0,1-.28,2.43,2.17,2.17,0,0,1-2.3.91,2.84,2.84,0,0,1-1.34-1.11,2.59,2.59,0,0,1,.15-2.43,6.72,6.72,0,0,1,.52-1.24.83.83,0,0,1,.88-.48c.18,0,.35,0,.53,0Z" style="fill:none;stroke:#000"/><path d="M31.81,187.67h1.1c.24.25.7.09.88.42a2.45,2.45,0,0,1,.82.68c.13.49.5,1,.34,1.49a3.06,3.06,0,0,1-.78,1.11c-.31.2-.65.32-1,.53a2.91,2.91,0,0,1-1,.28,1.79,1.79,0,0,1-1-.43,2.33,2.33,0,0,1-.68-2.83c.16-.28.13-.67.42-.87a2.52,2.52,0,0,1,.95-.38Z" style="fill:none;stroke:#000"/><path d="M40.46,180.11a2.15,2.15,0,0,1,2,.84,3,3,0,0,1,.73,2.05,1.77,1.77,0,0,1-.59,1.38,6.94,6.94,0,0,1-.82.76,2.77,2.77,0,0,1-1.34.07c-.39-.11-.72-.35-1.09-.5a3.45,3.45,0,0,1-.69-.92,3.79,3.79,0,0,1-.27-1.29c0-.4.28-.71.36-1.08a1.77,1.77,0,0,1,1.36-1.23,1.4,1.4,0,0,1,.37-.08Z" style="fill:none;stroke:#000"/><path d="M34.85,184.74s1.46-12.19-1.83-16.82" style="fill:none;stroke:#000;stroke-linecap:round"/><path d="M35.34,180s7.31-3.9-3.54-16.95c0,0-4.75,6.1,3.29,16.21" style="fill:none;stroke:#000"/><path d="M33.39,183.4S20,185.84,16.44,176.33c0,0,12.68,2.07,15.6,7.07" style="fill:none;stroke:#000"/><path d="M23.39,180.84s2.07,2,8.66,2.68" style="fill:none;stroke:#000;stroke-linecap:round"/><path d="M11.93,156.95a11.78,11.78,0,0,0-9.14-11S2.3,155.36,13,158" style="fill:none;stroke:#000"/><path d="M23.88,146.1A20,20,0,0,1,21,156.58s9.39-7.19,5-16.95c0,0-6.46,1.58-5,16.95" style="fill:none;stroke:#000"/><path d="M25.22,157.68c2.34.1,4,3.61,1.87,5.11-1.74,1.47-5.14.12-4.44-2.35a3.17,3.17,0,0,1,2.58-2.76Z" style="fill:none;stroke:#000"/><path d="M13.64,163.29c2.6-.68,4.68,3.44,1.94,4.66-2.06,1.19-4.78-1-3.69-3.22a1.92,1.92,0,0,1,1.75-1.44Z" style="fill:none;stroke:#000"/><path d="M19,135.86c2.4-.64,2.69,3.68.29,3.62C16.94,139.84,16.36,135.56,19,135.86Z" style="fill:none;stroke:#000"/><path d="M5.72,138.05c2.82-1.44,5.94,3.55,2.59,4.77-2.17,1.88-6.31-1-4.22-3.54A3.84,3.84,0,0,1,5.72,138.05Z" style="fill:none;stroke:#000"/><path d="M25.47,122.32s-13,13-13.29,13.9" style="fill:none;stroke:#000;stroke-linecap:round"/><path d="M2.55,122.57s3,9.63,9.63,13.78" style="fill:none;stroke:#000;stroke-linecap:round"/><path d="M16.32,131.59S26.81,130,30,117.69c0,0-8.66,1.1-12.68,13" style="fill:none;stroke:#000"/><path d="M6.08,129.64s1.22-8-5.49-12.8c0,0-1.34,10.48,6,13.78" style="fill:none;stroke:#000"/><path d="M6.45,99.77s.12,2.32,4,6.71c0,0,3.29-4.75-5.73-12.43,0,0-2.19,13.41,5.36,12.31" style="fill:none;stroke:#000;stroke-linecap:round"/><path d="M19.86,92.33A58.34,58.34,0,0,0,18.15,105" style="fill:none;stroke:#000;stroke-linecap:round"/><path d="M18.4,106.35A20.56,20.56,0,0,1,20.83,86s6.22,8-2.44,20.36" style="fill:none;stroke:#000"/><path d="M29.61,99.41l-6.95,7.07" style="fill:none;stroke:#000;stroke-linecap:round"/><path d="M22.3,107.33S23,98.31,34,96c0,0-4,10.48-11.7,11.34Z" style="fill:none;stroke:#000"/><path d="M19.74,115.25c2.16-.46,3.47,3,1.3,3.91-1.52,1.3-4.45-.4-3.38-2.36a2.25,2.25,0,0,1,2.08-1.54Z" style="fill:none;stroke:#000"/><path d="M7.79,114c2.12,0,4.21,3.28,2.13,4.75-1.38.92-3.65.77-4.54-.73C4.68,116.44,5.67,113.59,7.79,114Z" style="fill:none;stroke:#000"/><path d="M90.93,205.8c-3.2.24-6,2.27-7.91,4.74-2.47,3-4.68,6.21-7.28,9.11a14.35,14.35,0,0,1-5.47,3.94c-.6.12-1.2.8-.72,1.36a12.33,12.33,0,0,0,3.92,1.55,6.25,6.25,0,0,0,4.62-.4A12.2,12.2,0,0,0,83,221.82a52.77,52.77,0,0,0,3.57-6.74c1-2.09,1.79-4.33,3.54-5.91.57-.68,1.44-1,2-1.75a1.45,1.45,0,0,0-.28-1.37,1.07,1.07,0,0,0-.86-.24Z" style="fill:#b8db7c"/><path d="M94.94,204.34a3.14,3.14,0,0,0-3,1.21,1.41,1.41,0,0,0,.49,2A12.37,12.37,0,0,0,97.23,209a3.12,3.12,0,0,0,3.41-1.44c.44-.93-.51-1.7-1.22-2.12A7.51,7.51,0,0,0,94.94,204.34Z" style="fill:#b8db7c"/><path d="M85.21,205.29a11.33,11.33,0,0,0-5.67,1.42c-2.72,1.32-5,3.35-7.5,5-1.85,1.21-3.49,2.79-5.6,3.55-1.78.62-3.69.48-5.54.7-.7.17-.63,1.06-.27,1.53a5.07,5.07,0,0,0,5.23,3.11c2.17-.06,3.9-1.55,5.65-2.66a43.05,43.05,0,0,0,6.79-5.79,21.4,21.4,0,0,1,4.9-3.72,31.12,31.12,0,0,1,3.85-1c.6-.26,1.64-.55,1.41-1.38s-1.36-.63-2.06-.71c-.4,0-.79,0-1.19,0Z" style="fill:#b8db7c"/><path d="M98.81,208.55c-.67.16-1.44-.11-2,.26-.68.65.18,1.41.47,2a15.42,15.42,0,0,1,1.58,7.07,53.87,53.87,0,0,0,.08,5.76,5.42,5.42,0,0,0,4.16,4,7.4,7.4,0,0,0,6-1.28,11.13,11.13,0,0,0,2.58-2c.2-.74-.61-1.11-1.23-1a4.59,4.59,0,0,1-2.53-.53,7,7,0,0,1-3.61-4.26,44.88,44.88,0,0,1-1.34-5.53,9.86,9.86,0,0,0-3.4-4.36A1.17,1.17,0,0,0,98.81,208.55Z" style="fill:#b8db7c"/><path d="M96.08,208.66a13.61,13.61,0,0,1,2.47,5.05,25.85,25.85,0,0,1,.46,6.62c-.18,2-.22,4,1.18,5.56a6.35,6.35,0,0,0,5.16,1.78,7,7,0,0,0,2.22-.62,33.35,33.35,0,0,0,4.79-3.31l-3.76-.27S105,222,104.11,219a50.1,50.1,0,0,1-1.43-6.24" style="fill:none;stroke:#000;stroke-linecap:round;stroke-linejoin:round"/><path d="M101.12,206.68c-.72.06-.72.87-1.22,1.24a1,1,0,0,0,0,1.59,15.25,15.25,0,0,1,3,4.23,16.42,16.42,0,0,0,3.16,3.51,10.61,10.61,0,0,0,5.15,1.9,16.41,16.41,0,0,0,9.56-1.39c.67-.41.26-1.29-.35-1.53-1.54-1.08-3.52-1-5.31-1.27a8.67,8.67,0,0,1-5.71-2.22c-1.62-1.41-2.2-3.74-4.1-4.86a8.39,8.39,0,0,0-4.22-1.19Z" style="fill:#b8db7c"/><path d="M99.1,208.66a10.4,10.4,0,0,1,3.71,4.51c.5,1.21,1.7,2,2.41,3.1a10.29,10.29,0,0,0,3.34,2.12,29.87,29.87,0,0,0,4.23.77,22.31,22.31,0,0,0,4.33-.3,41.05,41.05,0,0,0,4.3-1.46,9.18,9.18,0,0,0-1.47-1.31c-1.75-.86-3.76-.68-5.63-1a8.26,8.26,0,0,1-5.54-2.71,23.31,23.31,0,0,1-2-3,6.78,6.78,0,0,0-4.89-2.44,3.31,3.31,0,0,0-1.35,0" style="fill:none;stroke:#000;stroke-linecap:round;stroke-linejoin:round"/><path d="M85.32,192.62a3.14,3.14,0,0,0-2.1.66,8.13,8.13,0,0,0,0,2.49,11.34,11.34,0,0,0,1.29,5.47,11.93,11.93,0,0,0,4,4.76,5.71,5.71,0,0,0,3.1.19.86.86,0,0,0,.41-1.53c-1.28-1-2.76-1.86-3.55-3.35a12,12,0,0,1-1.77-4.2c0-1-.2-2.13.5-3a.88.88,0,0,0-.64-1.46,9.63,9.63,0,0,0-1.22-.06Z" style="fill:#b8db7c"/><path d="M87.62,188.51c-1.86,0-3.19,1.62-4,3.16-.38.5-.27,1.39.46,1.46a6.06,6.06,0,0,1,2.55,0c1.53.29,2.58,1.57,3.44,2.78,1.24,2,2.45,4.08,2.57,6.45.16.72,0,1.54.35,2.17.59.43,1.39.19,2.07.14.88-.26.64-1.34.66-2-.11-2.91-.37-5.92-1.78-8.52a10.67,10.67,0,0,0-4.7-5.31,4.41,4.41,0,0,0-1.67-.31Z" style="fill:#b8db7c"/><path d="M98.41,190.46a10.37,10.37,0,0,0-3.61,4.33,1.61,1.61,0,0,0-.21,1.77c.25.67.13,1.69.94,2,.84,0,1.21-.93,1.82-1.38a6.38,6.38,0,0,1,4.47-1.83.87.87,0,0,0,.9-1.28,7.72,7.72,0,0,0-1.95-2.78,4,4,0,0,0-2.17-.87l-.21.08Z" style="fill:#b8db7c"/><path d="M88.27,205.65a12.77,12.77,0,0,1-4.48-6.43,15.9,15.9,0,0,1-.47-5.72,5.88,5.88,0,0,1,2.76-4.4,4.08,4.08,0,0,1,4.8,1,13.8,13.8,0,0,1,3.56,5.42A21.05,21.05,0,0,1,95.53,201a11.14,11.14,0,0,1-.1,3.42" style="fill:none;stroke:#000;stroke-linecap:round"/><path d="M83.56,193.22a4.77,4.77,0,0,1,5,.63,13.94,13.94,0,0,1,3.16,4.49,10.14,10.14,0,0,1,1.2,4.2c.06.78,0,1.58.13,2.36" style="fill:none;stroke:#000;stroke-linecap:round"/><path d="M87.61,193.22c-.38.67-1.1,1.19-1.11,2a6.79,6.79,0,0,0,.83,4.44,8.9,8.9,0,0,0,3.07,4A12.23,12.23,0,0,0,92.32,205" style="fill:none;stroke:#000;stroke-linecap:round"/><path d="M101.33,189.52c-.66.07-1.71.07-1.81.9s1.11,1,1.51,1.61a5.25,5.25,0,0,1,1.55,3.72,6.37,6.37,0,0,1-1.61,4.77,36.33,36.33,0,0,1-3.83,3.25c-.48.54.12,1.23.72,1.32a16.37,16.37,0,0,1,1.75.85c.82.17,1.26-.74,1.91-1.06a14.36,14.36,0,0,0,4.74-6.06,8.69,8.69,0,0,0-1.44-8.07,3.86,3.86,0,0,0-3.49-1.23Z" style="fill:#b8db7c"/><path d="M94.48,195.57A14.34,14.34,0,0,1,96.87,192a6.42,6.42,0,0,1,6.63-2,4,4,0,0,1,2.08,2.36,7.93,7.93,0,0,1,0,7.56,16.83,16.83,0,0,1-3,4,22.25,22.25,0,0,0-2.61,2.06" style="fill:none;stroke:#000;stroke-linecap:round"/><path d="M98.91,190.49a5.74,5.74,0,0,1,3.93,5.16,7.3,7.3,0,0,1-.55,3.21c-.92,2.08-2.81,3.46-4.64,4.68-.51.34-1,.67-1.56,1" style="fill:none;stroke:#000;stroke-linecap:round"/><path d="M102.2,195.1a6.27,6.27,0,0,0-3.88,1,10,10,0,0,0-2.13,1.94,7,7,0,0,0-.77,1.37" style="fill:none;stroke:#000;stroke-linecap:round"/><path d="M97.31,204.71a19.24,19.24,0,0,0-1.94-.18,8.14,8.14,0,0,0-1.59.07,1.85,1.85,0,0,0-1.26.55,1.68,1.68,0,0,0-.65,1.53,2.34,2.34,0,0,0,1.32,1.14c.38.1.7.33,1.08.42.53.1,1.06.25,1.59.33a12.1,12.1,0,0,0,2.09.29,4.73,4.73,0,0,0,1.62-.34,3.76,3.76,0,0,0,1-1.09,1.23,1.23,0,0,0-.53-1.35c-.33-.25-.7-.44-1-.71a9,9,0,0,0-1.72-.66Z" style="fill:none;stroke:#000"/><path d="M69,224.48c2.37,1.41,6.08,2.83,8.72,1.64a11,11,0,0,0,4.49-3.49c1.89-2.18,3.95-7.06,5.15-9.7a11.18,11.18,0,0,1,4.9-5.59" style="fill:none;stroke:#000;stroke-linecap:round"/><path d="M89.4,206.12a12.09,12.09,0,0,0-9.31.52c-2.85,1.25-5.07,3.38-7.65,5-2.39,1.54-4.53,3.86-7.5,4.16a29.74,29.74,0,0,1-4.84.22,16.59,16.59,0,0,0,1.21,2.35c1.76,2.38,3.54,2.15,6,1.86,2.53-1.2,8.13-5.08,9.79-7.25a34.67,34.67,0,0,1,5.22-4.39,13.71,13.71,0,0,1,4.18-1.28" style="fill:none;stroke:#000;stroke-linecap:round;stroke-linejoin:round"/><path d="M91.75,206c-2.53-.27-5.43,1.32-7.14,3-2.47,2.49-4.28,5.52-6.6,8.14-1.19,1.79-4.44,5.33-6.6,6.11-1.28.61-2.51,1.12-2.51,1.12" style="fill:none;stroke:#000;stroke-linecap:round;stroke-linejoin:round"/></svg>