<svg xmlns="http://www.w3.org/2000/svg" viewBox="0 0 569 649.98"><title>Bosnia_and_Herzegovina</title><path d="M70.41,0,569.18.12c-1.12,91.41,3.19,180.57-3.49,270.88a472,472,0,0,1-19.88,88.6c-7.47,22.7-12.52,44-18.93,55.95Z" style="fill:#fecb00"/><path d="M286.12,649.21C128.89,570.77,30.35,443.89,7.07,264.86c-2.5-19.84-2.94-24.67-4.65-51-.43-6.57-.79-39.18-.81-72.49L.69.29,75.63,0C226.58,136.78,377.27,275.7,528.73,411.88,486.78,508.55,382.71,599.79,286.12,649.21Z" style="fill:#002395"/><path d="M48.74,172.31,82.94,67.06l34.2,105.25-89.53-65H138.27Z" style="fill:#fff"/><path d="M126.61,245.59l34.2-105.25L195,245.59l-89.53-65H216.13Z" style="fill:#fff"/><path d="M206.16,316.68l34.2-105.25,34.2,105.25-89.53-65H295.69Z" style="fill:#fff"/><path d="M284,390.31l34.2-105.25,34.2,105.25-89.53-65H373.55Z" style="fill:#fff"/><path d="M363.58,463.09l34.2-105.25L432,463.09l-89.53-65H453.11Z" style="fill:#fff"/><path d="M451,525.46l7.67-25.07-34.2-25,42.37-.09L480.07,435l13,39.5C480.19,491.9,465.8,509.25,451,525.46Z" style="fill:#fff"/><polygon points="14.14 35.82 2.59 0.28 0.69 0.29 1.19 76.1 35.27 100.86 22.21 60.66 56.41 35.82 14.14 35.82" style="fill:#fff"/></svg>