<svg xmlns="http://www.w3.org/2000/svg" xmlns:xlink="http://www.w3.org/1999/xlink" viewBox="0 0 390.83 427.18"><defs><linearGradient id="a" x1="38.74" y1="451.36" x2="28.21" y2="454.88" gradientTransform="matrix(1.22, 0, 0, -2.76, 32.81, 1275.15)" gradientUnits="userSpaceOnUse"><stop offset="0" stop-color="red"/><stop offset="1" stop-color="#ff0"/></linearGradient><linearGradient id="b" x1="38.74" y1="451.36" x2="28.21" y2="454.88" gradientTransform="matrix(1.22, 0, 0, -2.76, 31.86, 1325.77)" xlink:href="#a"/><linearGradient id="c" x1="38.74" y1="451.36" x2="28.21" y2="454.88" gradientTransform="matrix(1.22, 0, 0, -2.76, 31.47, 1375.67)" xlink:href="#a"/><linearGradient id="d" x1="38.74" y1="451.36" x2="28.21" y2="454.88" gradientTransform="matrix(1.22, 0, 0, -2.76, 64.22, 1429.71)" xlink:href="#a"/><linearGradient id="e" x1="38.74" y1="451.36" x2="28.21" y2="454.88" gradientTransform="matrix(1.22, 0, 0, -2.76, 27.2, 1473.91)" xlink:href="#a"/><linearGradient id="f" x1="38.74" y1="451.36" x2="28.21" y2="454.88" gradientTransform="matrix(1.22, 0, 0, -2.76, 28.17, 1526.14)" xlink:href="#a"/><linearGradient id="g" x1="38.74" y1="451.36" x2="28.21" y2="454.88" gradientTransform="matrix(1.22, 0, 0, -2.76, 212.1, 1275.97)" xlink:href="#a"/><linearGradient id="h" x1="38.74" y1="451.36" x2="28.21" y2="454.88" gradientTransform="matrix(1.22, 0, 0, -2.76, 210.46, 1325.67)" xlink:href="#a"/><linearGradient id="i" x1="38.74" y1="451.36" x2="28.21" y2="454.88" gradientTransform="matrix(1.22, 0, 0, -2.76, 208.26, 1376.47)" xlink:href="#a"/><linearGradient id="j" x1="38.74" y1="451.36" x2="28.21" y2="454.88" gradientTransform="matrix(1.22, 0, 0, -2.76, 210.73, 1426.44)" xlink:href="#a"/><linearGradient id="k" x1="38.74" y1="451.36" x2="28.21" y2="454.88" gradientTransform="matrix(1.22, 0, 0, -2.76, 210.18, 1476.41)" xlink:href="#a"/><linearGradient id="l" x1="38.74" y1="451.36" x2="28.21" y2="454.88" gradientTransform="matrix(1.22, 0, 0, -2.76, 210.46, 1526.66)" xlink:href="#a"/></defs><title>British_Virgin_Islands</title><path d="M49.65,2.88l292.68,0V264.25c.57,34.17-56.94,68.9-146.91,113.31C102.6,329.73,49.08,300.69,48.51,263.68L49.65,2.88Z" style="fill:#006129;stroke:#000;stroke-width:1.8873000144958496px"/><path d="M89.47,41.76l17.28-25.37,17.36,25.43" style="fill:none;stroke:#f7c600;stroke-width:1.8873000144958496px"/><path d="M110.22,32.27a3.43,3.43,0,1,1-3.43-3.43A3.43,3.43,0,0,1,110.22,32.27Z" style="fill:#f7c600;stroke:#000;stroke-width:0.9437000155448914px"/><path d="M92.72,60.5l26.78.08a6.16,6.16,0,0,0-2.8-5.59c14-1.93,10.38-14.3,22.13-15,2.28.35-6.14,5.26-6.14,5.26s-7.08,5-3.86,7.54c2.56,2,3.68-1.23,4-3.68s11.4-4,9.82-11c-2.63-5.79-18.06,3.86-18.06,3.86l-11-.06c-.69-1.24-3.72-6.19-6.85-6.21-3.72.14-6.34,6.27-6.34,6.27H75.54s-.85,6.39,11.77,7.62a15.13,15.13,0,0,0,7.52,5.71c-1.65,1.37-2.11,3-2.1,5.26Z" style="fill:#f7c600;stroke:#000;stroke-width:0.9437000155448914px"/><path d="M94.66,55.06,117,55" style="fill:#f7c600;stroke:#000;stroke-width:0.9437000155448914px"/><path d="M84.44,41.91s1.78,10.43,10,12.91" style="fill:#f7c600;stroke:#000;stroke-width:0.9437000155448914px"/><path d="M83.06,41.77c.82-4,2.33-4.67,4-9.75.27-4.94-4-4.39-2.75-7.55,2.2-3.43,1.1-6.73-3-9.34.82,4.53-5.35,8.79-5.35,12.49s3.16,2.88,2.75,8.51c.27,3.29-.82,2.47-1.1,5.63h5.49Z" style="stroke:#000;stroke-width:0.9437000155448914px;fill:url(#a)"/><path d="M110,17a3.16,3.16,0,1,1-3.16-3.16A3.16,3.16,0,0,1,110,17Z" style="fill:#f7c600;stroke:#000;stroke-width:0.9437000155448914px"/><path d="M88.53,92.39,105.8,67l17.36,25.43" style="fill:none;stroke:#f7c600;stroke-width:1.8873000144958496px"/><path d="M109.28,82.9a3.43,3.43,0,1,1-3.43-3.43A3.43,3.43,0,0,1,109.28,82.9Z" style="fill:#f7c600;stroke:#000;stroke-width:0.9437000155448914px"/><path d="M91.77,111.13l26.78.08a6.16,6.16,0,0,0-2.8-5.59c14-1.93,10.38-14.3,22.13-15,2.28.35-6.14,5.26-6.14,5.26s-7.08,5-3.86,7.54c2.56,2,3.68-1.23,4-3.68s11.4-4,9.82-11c-2.63-5.79-18.06,3.86-18.06,3.86l-11-.06c-.69-1.24-3.72-6.19-6.85-6.21-3.72.14-6.34,6.27-6.34,6.27H74.59s-.85,6.39,11.77,7.62a15.13,15.13,0,0,0,7.52,5.71c-1.65,1.37-2.11,3-2.1,5.26Z" style="fill:#f7c600;stroke:#000;stroke-width:0.9437000155448914px"/><path d="M93.71,105.68l22.31-.08" style="fill:#f7c600;stroke:#000;stroke-width:0.9437000155448914px"/><path d="M83.49,92.53s1.78,10.43,10,12.91" style="fill:#f7c600;stroke:#000;stroke-width:0.9437000155448914px"/><path d="M82.12,92.4c.82-4,2.33-4.67,4-9.75.27-4.94-4-4.39-2.75-7.55,2.2-3.43,1.1-6.73-3-9.34C81.16,70.3,75,74.55,75,78.26s3.16,2.88,2.75,8.51c.27,3.29-.82,2.47-1.1,5.63h5.49Z" style="stroke:#000;stroke-width:0.9437000155448914px;fill:url(#b)"/><path d="M109,67.66a3.16,3.16,0,1,1-3.16-3.16A3.16,3.16,0,0,1,109,67.66Z" style="fill:#f7c600;stroke:#000;stroke-width:0.9437000155448914px"/><path d="M88.14,142.28l17.28-25.37,17.36,25.43" style="fill:none;stroke:#f7c600;stroke-width:1.8873000144958496px"/><path d="M108.89,132.8a3.43,3.43,0,1,1-3.43-3.43A3.43,3.43,0,0,1,108.89,132.8Z" style="fill:#f7c600;stroke:#000;stroke-width:0.9437000155448914px"/><path d="M91.39,161l26.78.08a6.16,6.16,0,0,0-2.8-5.59c14-1.93,10.38-14.3,22.13-15,2.28.35-6.14,5.26-6.14,5.26s-7.08,5-3.86,7.54c2.56,2,3.68-1.23,4-3.68s11.4-4,9.82-11c-2.63-5.79-18.06,3.86-18.06,3.86l-11-.06c-.69-1.24-3.72-6.19-6.85-6.21-3.72.14-6.34,6.27-6.34,6.27H74.2s-.85,6.39,11.77,7.62a15.13,15.13,0,0,0,7.52,5.71c-1.65,1.37-2.11,3-2.1,5.26Z" style="fill:#f7c600;stroke:#000;stroke-width:0.9437000155448914px"/><path d="M93.32,155.58l22.31-.08" style="fill:#f7c600;stroke:#000;stroke-width:0.9437000155448914px"/><path d="M83.1,142.43s1.78,10.43,10,12.91" style="fill:#f7c600;stroke:#000;stroke-width:0.9437000155448914px"/><path d="M81.73,142.3c.82-4,2.33-4.67,4-9.75.27-4.94-4-4.39-2.75-7.55,2.2-3.43,1.1-6.73-3-9.34.82,4.53-5.35,8.79-5.35,12.49s3.16,2.88,2.75,8.51c.27,3.29-.82,2.47-1.1,5.63h5.49Z" style="stroke:#000;stroke-width:0.9437000155448914px;fill:url(#c)"/><path d="M108.62,117.56a3.16,3.16,0,1,1-3.16-3.16A3.16,3.16,0,0,1,108.62,117.56Z" style="fill:#f7c600;stroke:#000;stroke-width:0.9437000155448914px"/><path d="M120.88,196.32l17.28-25.37,17.36,25.43" style="fill:none;stroke:#f7c600;stroke-width:1.8873000144958496px"/><path d="M141.63,186.83a3.43,3.43,0,1,1-3.43-3.43A3.43,3.43,0,0,1,141.63,186.83Z" style="fill:#f7c600;stroke:#000;stroke-width:0.9437000155448914px"/><path d="M124.13,215.06l26.78.08a6.16,6.16,0,0,0-2.8-5.59c14-1.93,10.38-14.3,22.13-15,2.28.35-6.14,5.26-6.14,5.26s-7.08,5-3.86,7.54c2.56,2,3.68-1.23,4-3.68s11.4-4,9.82-11c-2.63-5.79-18.06,3.86-18.06,3.86l-11-.06c-.69-1.24-3.72-6.19-6.85-6.21-3.72.14-6.34,6.27-6.34,6.27h-24.9s-.85,6.39,11.77,7.62a15.13,15.13,0,0,0,7.52,5.71c-1.65,1.37-2.11,3-2.1,5.26Z" style="fill:#f7c600;stroke:#000;stroke-width:0.9437000155448914px"/><path d="M126.07,209.62l22.31-.08" style="fill:#f7c600;stroke:#000;stroke-width:0.9437000155448914px"/><path d="M115.85,196.47s1.78,10.43,10,12.91" style="fill:#f7c600;stroke:#000;stroke-width:0.9437000155448914px"/><path d="M114.47,196.33c.82-4,2.33-4.67,4-9.75.27-4.94-4-4.39-2.75-7.55,2.2-3.43,1.1-6.73-3-9.34.82,4.53-5.35,8.79-5.35,12.49s3.16,2.88,2.75,8.51c.27,3.29-.82,2.47-1.1,5.63h5.49Z" style="stroke:#000;stroke-width:0.9437000155448914px;fill:url(#d)"/><path d="M141.37,171.6a3.16,3.16,0,1,1-3.16-3.16A3.16,3.16,0,0,1,141.37,171.6Z" style="fill:#f7c600;stroke:#000;stroke-width:0.9437000155448914px"/><path d="M83.87,240.52l17.28-25.37,17.36,25.43" style="fill:none;stroke:#f7c600;stroke-width:1.8873000144958496px"/><path d="M104.62,231a3.43,3.43,0,1,1-3.43-3.43A3.43,3.43,0,0,1,104.62,231Z" style="fill:#f7c600;stroke:#000;stroke-width:0.9437000155448914px"/><path d="M87.11,259.26l26.78.08a6.16,6.16,0,0,0-2.8-5.59c14-1.93,10.38-14.3,22.13-15,2.28.35-6.14,5.26-6.14,5.26s-7.08,5-3.86,7.54c2.56,2,3.68-1.23,4-3.68s11.4-4,9.82-11C134.46,231,119,240.68,119,240.68l-11-.06c-.69-1.24-3.72-6.19-6.85-6.21-3.72.14-6.34,6.27-6.34,6.27H69.93s-.85,6.39,11.77,7.62A15.13,15.13,0,0,0,89.22,254c-1.65,1.37-2.11,3-2.1,5.26Z" style="fill:#f7c600;stroke:#000;stroke-width:0.9437000155448914px"/><path d="M89.05,253.82l22.31-.08" style="fill:#f7c600;stroke:#000;stroke-width:0.9437000155448914px"/><path d="M78.83,240.67s1.78,10.43,10,12.91" style="fill:#f7c600;stroke:#000;stroke-width:0.9437000155448914px"/><path d="M77.46,240.54c.82-4,2.33-4.67,4-9.75.27-4.94-4-4.39-2.75-7.55,2.2-3.43,1.1-6.73-3-9.34.82,4.53-5.35,8.79-5.35,12.49s3.16,2.88,2.75,8.51c.27,3.29-.82,2.47-1.1,5.63h5.49Z" style="stroke:#000;stroke-width:0.9437000155448914px;fill:url(#e)"/><path d="M104.35,215.8a3.16,3.16,0,1,1-3.16-3.16A3.16,3.16,0,0,1,104.35,215.8Z" style="fill:#f7c600;stroke:#000;stroke-width:0.9437000155448914px"/><path d="M84.84,292.75l17.28-25.37,17.36,25.43" style="fill:none;stroke:#f7c600;stroke-width:1.8873000144958496px"/><path d="M105.59,283.26a3.43,3.43,0,1,1-3.43-3.43A3.43,3.43,0,0,1,105.59,283.26Z" style="fill:#f7c600;stroke:#000;stroke-width:0.9437000155448914px"/><path d="M88.09,311.49l26.78.08a6.16,6.16,0,0,0-2.8-5.59c14-1.93,10.38-14.3,22.13-15,2.28.35-6.14,5.26-6.14,5.26s-7.08,5-3.86,7.54c2.56,2,3.68-1.23,4-3.68s11.4-4,9.82-11c-2.63-5.79-18.06,3.86-18.06,3.86l-11-.06c-.69-1.24-3.72-6.19-6.85-6.21-3.72.14-6.34,6.27-6.34,6.27H70.9s-.85,6.39,11.77,7.62a15.13,15.13,0,0,0,7.52,5.71c-1.65,1.37-2.11,3-2.1,5.26Z" style="fill:#f7c600;stroke:#000;stroke-width:0.9437000155448914px"/><path d="M90,306l22.31-.08" style="fill:#f7c600;stroke:#000;stroke-width:0.9437000155448914px"/><path d="M79.8,292.9s1.78,10.43,10,12.91" style="fill:#f7c600;stroke:#000;stroke-width:0.9437000155448914px"/><path d="M78.43,292.76c.82-4,2.33-4.67,4-9.75.27-4.94-4-4.39-2.75-7.55,2.2-3.43,1.1-6.73-3-9.34.82,4.53-5.35,8.79-5.35,12.49s3.16,2.88,2.75,8.51c.27,3.29-.82,2.47-1.1,5.63h5.49Z" style="stroke:#000;stroke-width:0.9437000155448914px;fill:url(#f)"/><path d="M105.32,268a3.16,3.16,0,1,1-3.16-3.16A3.16,3.16,0,0,1,105.32,268Z" style="fill:#f7c600;stroke:#000;stroke-width:0.9437000155448914px"/><path d="M268.77,42.58,286,17.21l17.36,25.43" style="fill:none;stroke:#f7c600;stroke-width:1.8873000144958496px"/><path d="M289.52,33.1a3.43,3.43,0,1,1-3.43-3.43A3.43,3.43,0,0,1,289.52,33.1Z" style="fill:#f7c600;stroke:#000;stroke-width:0.9437000155448914px"/><path d="M272,61.32l26.78.08a6.16,6.16,0,0,0-2.8-5.59c14-1.93,10.38-14.3,22.13-15,2.28.35-6.14,5.26-6.14,5.26s-7.08,5-3.86,7.54c2.56,2,3.68-1.23,4-3.68s11.4-4,9.82-11c-2.63-5.79-18.06,3.86-18.06,3.86l-11-.06c-.69-1.24-3.72-6.19-6.85-6.21-3.72.14-6.34,6.27-6.34,6.27h-24.9s-.85,6.39,11.77,7.62a15.13,15.13,0,0,0,7.52,5.71c-1.65,1.37-2.11,3-2.1,5.26Z" style="fill:#f7c600;stroke:#000;stroke-width:0.9437000155448914px"/><path d="M274,55.88l22.31-.08" style="fill:#f7c600;stroke:#000;stroke-width:0.9437000155448914px"/><path d="M263.73,42.73s1.78,10.43,10,12.91" style="fill:#f7c600;stroke:#000;stroke-width:0.9437000155448914px"/><path d="M262.36,42.6c.82-4,2.33-4.67,4-9.75.27-4.94-4-4.39-2.75-7.55,2.2-3.43,1.1-6.73-3-9.34.82,4.53-5.35,8.79-5.35,12.49S258.38,31.34,258,37c.27,3.29-.82,2.47-1.1,5.63h5.49Z" style="stroke:#000;stroke-width:0.9437000155448914px;fill:url(#g)"/><path d="M289.25,17.86a3.16,3.16,0,1,1-3.16-3.16A3.16,3.16,0,0,1,289.25,17.86Z" style="fill:#f7c600;stroke:#000;stroke-width:0.9437000155448914px"/><path d="M267.12,92.28,284.4,66.91l17.36,25.43" style="fill:none;stroke:#f7c600;stroke-width:1.8873000144958496px"/><path d="M287.87,82.79a3.43,3.43,0,1,1-3.43-3.43A3.43,3.43,0,0,1,287.87,82.79Z" style="fill:#f7c600;stroke:#000;stroke-width:0.9437000155448914px"/><path d="M270.37,111l26.78.08a6.16,6.16,0,0,0-2.8-5.59c14-1.93,10.38-14.3,22.13-15,2.28.35-6.14,5.26-6.14,5.26s-7.08,5-3.86,7.54c2.56,2,3.68-1.23,4-3.68s11.4-4,9.82-11c-2.63-5.79-18.06,3.86-18.06,3.86l-11-.06c-.69-1.24-3.72-6.19-6.85-6.21-3.72.14-6.34,6.27-6.34,6.27h-24.9S252.33,98.82,265,100a15.13,15.13,0,0,0,7.52,5.71c-1.65,1.37-2.11,3-2.1,5.26Z" style="fill:#f7c600;stroke:#000;stroke-width:0.9437000155448914px"/><path d="M272.31,105.58l22.31-.08" style="fill:#f7c600;stroke:#000;stroke-width:0.9437000155448914px"/><path d="M262.08,92.43s1.78,10.43,10,12.91" style="fill:#f7c600;stroke:#000;stroke-width:0.9437000155448914px"/><path d="M260.71,92.29c.82-4,2.33-4.67,4-9.75.27-4.94-4-4.39-2.75-7.55,2.2-3.43,1.1-6.73-3-9.34.82,4.53-5.35,8.79-5.35,12.49s3.16,2.88,2.75,8.51c.27,3.29-.82,2.47-1.1,5.63h5.49Z" style="stroke:#000;stroke-width:0.9437000155448914px;fill:url(#h)"/><path d="M287.6,67.56a3.16,3.16,0,1,1-3.16-3.16A3.16,3.16,0,0,1,287.6,67.56Z" style="fill:#f7c600;stroke:#000;stroke-width:0.9437000155448914px"/><path d="M264.92,143.08,282.2,117.7l17.36,25.43" style="fill:none;stroke:#f7c600;stroke-width:1.8873000144958496px"/><path d="M285.68,133.59a3.43,3.43,0,1,1-3.43-3.43A3.43,3.43,0,0,1,285.68,133.59Z" style="fill:#f7c600;stroke:#000;stroke-width:0.9437000155448914px"/><path d="M268.17,161.82l26.78.08a6.16,6.16,0,0,0-2.8-5.59c14-1.93,10.38-14.3,22.13-15,2.28.35-6.14,5.26-6.14,5.26s-7.08,5-3.86,7.54c2.56,2,3.68-1.23,4-3.68s11.4-4,9.82-11c-2.63-5.79-18.06,3.86-18.06,3.86l-11-.06c-.69-1.24-3.72-6.19-6.85-6.21-3.72.14-6.34,6.27-6.34,6.27H251s-.85,6.39,11.77,7.62a15.13,15.13,0,0,0,7.52,5.71c-1.65,1.37-2.11,3-2.1,5.26Z" style="fill:#f7c600;stroke:#000;stroke-width:0.9437000155448914px"/><path d="M270.11,156.38l22.31-.08" style="fill:#f7c600;stroke:#000;stroke-width:0.9437000155448914px"/><path d="M259.89,143.22s1.78,10.43,10,12.91" style="fill:#f7c600;stroke:#000;stroke-width:0.9437000155448914px"/><path d="M258.51,143.09c.82-4,2.33-4.67,4-9.75.27-4.94-4-4.39-2.75-7.55,2.2-3.43,1.1-6.73-3-9.34.82,4.53-5.35,8.79-5.35,12.49s3.16,2.88,2.75,8.51c.27,3.29-.82,2.47-1.1,5.63h5.49Z" style="stroke:#000;stroke-width:0.9437000155448914px;fill:url(#i)"/><path d="M285.41,118.36a3.16,3.16,0,1,1-3.16-3.16A3.16,3.16,0,0,1,285.41,118.36Z" style="fill:#f7c600;stroke:#000;stroke-width:0.9437000155448914px"/><path d="M267.4,193l17.28-25.37L302,193.1" style="fill:none;stroke:#f7c600;stroke-width:1.8873000144958496px"/><path d="M288.15,183.56a3.43,3.43,0,1,1-3.43-3.43A3.43,3.43,0,0,1,288.15,183.56Z" style="fill:#f7c600;stroke:#000;stroke-width:0.9437000155448914px"/><path d="M270.64,211.79l26.78.08a6.16,6.16,0,0,0-2.8-5.59c14-1.93,10.38-14.3,22.13-15,2.28.35-6.14,5.26-6.14,5.26s-7.08,5-3.86,7.54c2.56,2,3.68-1.23,4-3.68s11.4-4,9.82-11c-2.63-5.79-18.06,3.86-18.06,3.86l-11-.06c-.69-1.24-3.72-6.19-6.85-6.21-3.72.14-6.34,6.27-6.34,6.27h-24.9s-.85,6.39,11.77,7.62a15.13,15.13,0,0,0,7.52,5.71c-1.65,1.37-2.11,3-2.1,5.26Z" style="fill:#f7c600;stroke:#000;stroke-width:0.9437000155448914px"/><path d="M272.58,206.35l22.31-.08" style="fill:#f7c600;stroke:#000;stroke-width:0.9437000155448914px"/><path d="M262.36,193.2s1.78,10.43,10,12.91" style="fill:#f7c600;stroke:#000;stroke-width:0.9437000155448914px"/><path d="M261,193.06c.82-4,2.33-4.67,4-9.75.27-4.94-4-4.39-2.75-7.55,2.2-3.43,1.1-6.73-3-9.34.82,4.53-5.35,8.79-5.35,12.49s3.16,2.88,2.75,8.51c.27,3.29-.82,2.47-1.1,5.63H261Z" style="stroke:#000;stroke-width:0.9437000155448914px;fill:url(#j)"/><path d="M287.88,168.33a3.16,3.16,0,1,1-3.16-3.16A3.16,3.16,0,0,1,287.88,168.33Z" style="fill:#f7c600;stroke:#000;stroke-width:0.9437000155448914px"/><path d="M266.85,243l17.28-25.37,17.36,25.43" style="fill:none;stroke:#f7c600;stroke-width:1.8873000144958496px"/><path d="M287.6,233.53a3.43,3.43,0,1,1-3.43-3.43A3.43,3.43,0,0,1,287.6,233.53Z" style="fill:#f7c600;stroke:#000;stroke-width:0.9437000155448914px"/><path d="M270.09,261.76l26.78.08a6.16,6.16,0,0,0-2.8-5.59c14-1.93,10.38-14.3,22.13-15,2.28.35-6.14,5.26-6.14,5.26s-7.08,5-3.86,7.54c2.56,2,3.68-1.23,4-3.68s11.4-4,9.82-11c-2.63-5.79-18.06,3.86-18.06,3.86l-11-.06c-.69-1.24-3.72-6.19-6.85-6.21-3.72.14-6.34,6.27-6.34,6.27h-24.9s-.85,6.39,11.77,7.62a15.13,15.13,0,0,0,7.52,5.71c-1.65,1.37-2.11,3-2.1,5.26Z" style="fill:#f7c600;stroke:#000;stroke-width:0.9437000155448914px"/><path d="M272,256.32l22.31-.08" style="fill:#f7c600;stroke:#000;stroke-width:0.9437000155448914px"/><path d="M261.81,243.17s1.78,10.43,10,12.91" style="fill:#f7c600;stroke:#000;stroke-width:0.9437000155448914px"/><path d="M260.44,243c.82-4,2.33-4.67,4-9.75.27-4.94-4-4.39-2.75-7.55,2.2-3.43,1.1-6.73-3-9.34.82,4.53-5.35,8.79-5.35,12.49s3.16,2.88,2.75,8.51c.27,3.29-.82,2.47-1.1,5.63h5.49Z" style="stroke:#000;stroke-width:0.9437000155448914px;fill:url(#k)"/><path d="M287.33,218.3a3.16,3.16,0,1,1-3.16-3.16A3.16,3.16,0,0,1,287.33,218.3Z" style="fill:#f7c600;stroke:#000;stroke-width:0.9437000155448914px"/><path d="M267.12,293.27l17.28-25.37,17.36,25.43" style="fill:none;stroke:#f7c600;stroke-width:1.8873000144958496px"/><path d="M287.87,283.78a3.43,3.43,0,1,1-3.43-3.43A3.43,3.43,0,0,1,287.87,283.78Z" style="fill:#f7c600;stroke:#000;stroke-width:0.9437000155448914px"/><path d="M270.37,312l26.78.08a6.16,6.16,0,0,0-2.8-5.59c14-1.93,10.38-14.3,22.13-15,2.28.35-6.14,5.26-6.14,5.26s-7.08,5-3.86,7.54c2.56,2,3.68-1.23,4-3.68s11.4-4,9.82-11c-2.63-5.79-18.06,3.86-18.06,3.86l-11-.06c-.69-1.24-3.72-6.19-6.85-6.21-3.72.14-6.34,6.27-6.34,6.27h-24.9s-.85,6.39,11.77,7.62a15.13,15.13,0,0,0,7.52,5.71c-1.65,1.37-2.11,3-2.1,5.26Z" style="fill:#f7c600;stroke:#000;stroke-width:0.9437000155448914px"/><path d="M272.31,306.57l22.31-.08" style="fill:#f7c600;stroke:#000;stroke-width:0.9437000155448914px"/><path d="M262.08,293.41s1.78,10.43,10,12.91" style="fill:#f7c600;stroke:#000;stroke-width:0.9437000155448914px"/><path d="M260.71,293.28c.82-4,2.33-4.67,4-9.75.27-4.94-4-4.39-2.75-7.55,2.2-3.43,1.1-6.73-3-9.34.82,4.53-5.35,8.79-5.35,12.49s3.16,2.88,2.75,8.51c.27,3.29-.82,2.47-1.1,5.63h5.49Z" style="stroke:#000;stroke-width:0.9437000155448914px;fill:url(#l)"/><path d="M287.6,268.54a3.16,3.16,0,1,1-3.16-3.16A3.16,3.16,0,0,1,287.6,268.54Z" style="fill:#f7c600;stroke:#000;stroke-width:0.9437000155448914px"/><path d="M213.33,316.92s7,16.11,14.95,6.21,5-14.17,5-14.17l-17.86-9.71-5.24,11.07,3.11,6.6Z" style="fill:#f7c600;stroke:#000;stroke-width:0.9437000155448914px"/><path d="M228.68,314.77s1.16.19,2.14-1.55-2.14-2.52-3.49-4.47l-1.55,3.11Z" style="fill:#ffc6b5;stroke:#000;stroke-width:0.9437000155448914px"/><path d="M188.29,310.51,172.56,319s-7.77,1.55-8.35,0,.19-2.91,4.27-3.11,15.14-10.29,15.14-10.29l4.66,4.85Z" style="fill:#ffc6b5;stroke:#000;stroke-width:0.9437000155448914px"/><path d="M188.49,31.12s.39,3.69.58,5.63-3.11,6-3.3,5.82-1.75.19-1.55,1.36,2.52,1.55,2.52,1.55-1,4.08,0,4.27-2.52,5.24,0,6.6,6.8,3.11,8.74,2.72,0,7.57,0,7.57L190,78.3l29.9-3.11-6.21-9.9s-2.91-1.94-2.14-7.57-.39-31.06-.39-31.06l-21.36-2.91-1.36,7.38Z" style="fill:#ffc6b5;stroke:#000;stroke-width:0.9437000155448914px"/><path d="M183,75.38a17.56,17.56,0,0,0-9.32,16.5c-2.52,11.65-3.88,23.3-3.88,23.3s-11.45,13-14.95,17.67-8.74,14.17-10.68,16.7-9.51,10.87-9.32,14-1.75,16.89,5.82,18.44c1.94.78,8.15-15.92,8.15-15.92s.39-7.18-1.75-8.54,4.66-6,4.66-6,13-9.51,15.92-11.84,10.87-11.26,10.87-11.26l4.47-53Z" style="fill:#ffc6b5;stroke:#000;stroke-width:0.9437000155448914px"/><path d="M194.11,66.26s2.52,6.8,8.15,5.63,12.23-6.41,12.23-6.41,5.24-.19,6,.58,14.17,13.78,13.78,17.86-6.21,2.91-8.35,5.63-5.63,9.51-4.66,14.56,3.88,11.65,3.49,14.17-2.52,3.3-2.52,4.66,1.75,3.69,1.75,6.21-2.33,6.21-1.94,8.74.58,9.9.58,9.9L222.07,182a4.68,4.68,0,0,1,2.14,3.11c.19,1.94,13.2,58.44,13.2,58.44s-.58,1.75-1.94,1.55,5.24,8.74,5.44,11.26,6.8,22.33,6.6,25-1.16,8.74-1.75,8.93,4.27,12.43,3.49,14.37-8.74,1.75-8.74,1.75l-2.14-.39s.19,2.52-1.36,2.72-13-.58-13-.58-3.3,5-5.24,4.85-4.47-3.69-5-3.11,1.75,3.88,1.16,4.85-10.48,3.11-12.43-1.55,1.16-3.49.58-4.47-5-3.49-6.41-2.72,3.49,1.94,3.3,3.88-4.27,4.85-5.82,4.85-5.24-7.18-10.68-6.41a44.34,44.34,0,0,0-8.93,2.14s-6.41,2.72-9.13,2.14a4.6,4.6,0,0,1-3.88-3.88c0-1.16,1.94-6.21,1.75-7.77s-1.75-3.11-1.75-5.44S166,285.26,166,285.26l-.19-35.72s-4.08,0-4.27-2.52,6.21-56.5,7.18-60,3.49-15.92,3.49-15.92-2.91,1.36-3.11,0,8.74-32.23,8.74-32.23,1.55-15.34,1.55-19.42a87.79,87.79,0,0,0-.78-9.71s-8-3.37-8.15-8.54C169.69,93,178,88.39,179,85.68l3.88-10.87s4.27-7.38,11.26-8.54Z" style="fill:#fff;stroke:#000;stroke-width:0.9437000155448914px"/><path d="M191.19,312.84s-18.83,9.9-21.55,10.68-4.47-3.3-1.75-4.08a47.88,47.88,0,0,1,7-1.16s-6.41-5-6.21-5.24,8.74-3.3,8.93-3.3,2.72,5,4.47,4.66,6.8-4.27,6.8-4.27,2.72,3.11,2.33,2.72Z" style="fill:#f7c600;stroke:#000;stroke-width:0.9437000155448914px"/><path d="M217.73,318.27c1.78,2.3,2.48,6.28,6.55,3.95s-2.09-6.65-2.09-6.65Z" style="fill:#ffc6b5;stroke:#000;stroke-width:0.9437000155448914px"/><path d="M225.17,317.89a2.77,2.77,0,0,0,3.69-.19c1.75-1.75-3.49-5.44-3.49-5.44l-2.52,2.91Z" style="fill:#ffc6b5;stroke:#000;stroke-width:0.9437000155448914px"/><path d="M233.53,84.82c.19,0,6.41,19.22,7.18,24.08s3.3,24.27,2.33,27-10.87,15.73-12,19-8.15,15.92-8.15,15.92-1.75,12.43-2.52,13,2,3.63,1.75,4.66-5.63,6.6-8,6-6-3.3-6.21-5.82.19-10.87,1.94-13,10.87-23.69,11.45-25,8.35-18.25,8.54-21.16-2.42-9.65-5.16-12.12c-6.11-18-3.71-28.83,8.85-32.54Z" style="fill:#ffc6b5;stroke:#000;stroke-width:0.9437000155448914px"/><path d="M187.9,30s4.27.58,6.6-.78,5-1.94,7,.78,3.3,2.52,3.3,2.52-2.91,7.18,0,8,4.27.78,4.47,1.75-2.52,3.11-1.75,4.08,2.14,2.14,2.33,2.91-1.75,4.08-1.16,4.85,2.33,3.88,3.49,3.88.39,4.85,3.88,3.69a4.41,4.41,0,0,0,3.3-4.27s3.69-.58,4.66-3.88a5.88,5.88,0,0,1,3.3-4.08S232,46.85,225.76,43c0-27.18-17.86-24.27-17.86-24.27s-2.14-4.85-5.63-4.27-3.69,4.66-6.21,4.27-3.11-2.14-3.3-1.94-2.33,4.08-2.33,5-6.8-1.36-6.21,3.69,3.88,4.85,3.69,4.47Z" style="fill:#9c5100;stroke:#000;stroke-width:0.9437000155448914px"/><path d="M219.35,73.84S202.07,84.9,202.46,88.79" style="fill:none;stroke:#000;stroke-width:0.9437000155448914px"/><path d="M223.23,75.77S219.35,80,219.16,80" style="fill:none;stroke:#000;stroke-width:0.9437000155448914px"/><path d="M228.48,80.43s-8.54,7-7.18,11.45" style="fill:none;stroke:#000;stroke-width:0.9437000155448914px"/><path d="M188.09,72.86s-2.52,5.24-1.94,7,4.85,8.35,5.44,12.43a22.77,22.77,0,0,1,0,7" style="fill:none;stroke:#000;stroke-width:0.9437000155448914px"/><path d="M183.63,82.56s.78,6.21,1.94,7.38,4.27,6.41,4.66,8.54" style="fill:none;stroke:#000;stroke-width:0.9437000155448914px"/><path d="M182.07,108.39s5,2.52,9.71-7.18" style="fill:none;stroke:#000;stroke-width:0.9437000155448914px"/><path d="M199.36,94.42c-.19,0-3.69,9.51,2.52,13s10.87,3.11,13.59,2.14a37.42,37.42,0,0,0,5.63-2.72" style="fill:none;stroke:#000;stroke-width:0.9437000155448914px"/><path d="M196.64,106.06s.39,12.81,19.22,25.43" style="fill:none;stroke:#000;stroke-width:0.9437000155448914px"/><path d="M197.41,118.1s-.19,11.26,7.18,16.31" style="fill:none;stroke:#000;stroke-width:0.9437000155448914px"/><path d="M193.53,104.9s-5.63,16.7-10.1,18.44" style="fill:none;stroke:#000;stroke-width:0.9437000155448914px"/><path d="M191.78,117.13s-.19,12-1.75,16.31" style="fill:none;stroke:#000;stroke-width:0.9437000155448914px"/><path d="M188.49,136.35s3.88,4.85,8.15,4.47,6-5.44,8.93-4.66,5.63,3.11,12.43,2.52" style="fill:none;stroke:#000;stroke-width:0.9437000155448914px"/><path d="M208.28,143.73s0,9.9,1.75,10.87,1,10.1,1,10.1" style="fill:none;stroke:#000;stroke-width:0.9437000155448914px"/><path d="M184.6,139.07s-.19,9.32-1.36,12.62-3.49,8.93-3.11,13.78" style="fill:none;stroke:#000;stroke-width:0.9437000155448914px"/><path d="M172.76,170.91a33.33,33.33,0,0,0,4.27-3.3" style="fill:none;stroke:#000;stroke-width:0.9437000155448914px"/><path d="M178.78,169.75s-8.35,35.72-6,57.08" style="fill:none;stroke:#000;stroke-width:0.9437000155448914px"/><path d="M180.71,171.49s-4.27,26.79-2.33,31.84" style="fill:none;stroke:#000;stroke-width:0.9437000155448914px"/><path d="M178.58,170.72c.19,0,16.31,1.16,16.31,1.16" style="fill:none;stroke:#000;stroke-width:0.9437000155448914px"/><path d="M197.22,169.75a22.1,22.1,0,0,0,10.68,1.94" style="fill:none;stroke:#000;stroke-width:0.9437000155448914px"/><path d="M195.28,182.75s-.78,45.82-1.94,55.92" style="fill:none;stroke:#000;stroke-width:0.9437000155448914px"/><path d="M219.16,193.23s5,40.19,8,43.88" style="fill:none;stroke:#000;stroke-width:0.9437000155448914px"/><path d="M209.46,198.28s3.11,35.53,4.85,38.64" style="fill:none;stroke:#000;stroke-width:0.9437000155448914px"/><path d="M165.38,249.34a30.14,30.14,0,0,0,11.45-7.77c6.21,8.35,15.73.39,15.73.39s14.76,10.1,21.36-1.16c10.1,6.6,15.14-1,15.14-1s3.69,5.63,6.41,5" style="fill:none;stroke:#000;stroke-width:0.9437000155448914px"/><path d="M219.35,248.77s7.57,35.53,18.83,45.63" style="fill:none;stroke:#000;stroke-width:0.9437000155448914px"/><path d="M180.33,245.08s1,29.7,2.72,50.67" style="fill:none;stroke:#000;stroke-width:0.9437000155448914px"/><path d="M179,278.66s-1,19.42-2.14,20.77" style="fill:none;stroke:#000;stroke-width:0.9437000155448914px"/><path d="M167.51,301.38s2.14,8.35,12.81.58,10.87,2.91,11.26,4.08,2.14,9.51,6.21,2.52" style="fill:none;stroke:#000;stroke-width:0.9437000155448914px"/><path d="M206.34,297.11s-1.75,17.28,13.59,4.66,17.86-.19,18.25,3.69" style="fill:none;stroke:#000;stroke-width:0.9437000155448914px"/><path d="M206.54,23.35s-1.36,8.54,7.77,7.77c-1.16,4.66,2.33,6.21,2.33,6.21" style="fill:none;stroke:#000;stroke-width:0.9437000155448914px"/><path d="M223.43,42.58c.19,0,4.08,2.52-.19,5.63" style="fill:none;stroke:#000;stroke-width:0.9437000155448914px"/><path d="M210.23,49.37s1.94,2.33,4.08,1.75,5.63,2.14,5.63,2.14,2.91,1,3.3.39" style="fill:none;stroke:#000;stroke-width:0.9437000155448914px"/><path d="M198.39,56.75s6.6,2.52,10.87-8" style="fill:none;stroke:#000;stroke-width:0.9437000155448914px"/><path d="M186.16,45.68l3.88.19" style="fill:none;stroke:#000;stroke-width:0.9437000155448914px"/><path d="M143.07,168.12l.3,8.51" style="fill:none;stroke:#000;stroke-width:0.9437000155448914px"/><path d="M135.09,167.49s5.46,9.12,5,14" style="fill:none;stroke:#000;stroke-width:0.9437000155448914px"/><path d="M186.73,49.57h3.49l-3.11,1.36" style="fill:none;stroke:#000;stroke-linejoin:round;stroke-width:0.9437000155448914px"/><path d="M208.21,186.55s4.08-.43,4,6.38c2.6-8.46,7.9-8.66,7.9-8.66" style="fill:none;stroke:#000;stroke-linejoin:round;stroke-width:0.9437000155448914px"/><path d="M191.59,38.7c.58,0,2.72-.78,3.11-.19S192.36,39.47,191.59,38.7Z" style="fill:none;stroke:#000;stroke-linejoin:round;stroke-width:1.6986000537872314px"/><path d="M194.28,381c82-2.28,134.95-61.5,134.39-62.07s10.82-16.51,19.93-14.24,22.21,29,38.15,34.73c8,12.53-2.28,23.92-5.69,26.19S362.26,374.14,360,365s-6.83-7.4-6.83-7.4S280.27,428.8,196,426c-87.12.57-158.86-68.33-158.86-68.33l-6.26,6.83s-6.83,7.4-10.25,6.83S2.4,361,1.26,351.36s9.11-15.94,9.11-15.94,25.05-19.36,27.9-29.61c5.69-5.69,16.51,4,16.51,4S120.84,385.53,194.29,381Z" style="fill:#f7c600;stroke:#000;stroke-width:1.8873000144958496px"/><path d="M8.66,336.93s6.78-1.81,9.26,1,19.54,19.54,19.54,19.54" style="fill:none;stroke:#000;stroke-width:1.8873000144958496px"/><path d="M24.13,344.84l-6.78,5.08s17.05,3.39,13.21,14.57" style="fill:none;stroke:#000;stroke-width:1.8873000144958496px"/><path d="M380.59,336.36s-3.39-1.81-8.7,2.15-18.75,19-18.75,19" style="fill:none;stroke:#000;stroke-width:1.8873000144958496px"/><path d="M365.39,344.39l7.34,5.65s-15.36,1-12,15.58" style="fill:none;stroke:#000;stroke-width:1.8873000144958496px"/><path d="M95.44,355c-.44,1.29-1.62,0-2.59.22-2.57.1-4.7,1.77-6.9,2.91L63.39,371.3c-.76-.25-.58-.86-.39-1.48,2-9.39,4.09-18.77,6-28.17.32-1.65.84-3.69-.74-4.89-.68-.46.37-1.4.8-.55l11.53,8.23c-.37,1.08-1,.32-1.68-.12-1.6-1.54-3.52-.12-3.47,1.82-1.37,6.19-2.71,12.39-4.07,18.59,5.11-3,10.27-6,15.33-9.08,1.81-.8,3.14-3.22,1.26-4.73-.71-.42-1.89-1.57-.72-1.74L95.44,355Z"/><path d="M103.56,394.21c-.21.7-.57.86-1.13.35l-13.57-7.42c.21-.7.57-.86,1.13-.35,1.22.83,3.23,1.15,4.12-.31,1.8-2.88,3.31-5.93,5-8.89,2.26-4.19,4.62-8.33,6.81-12.56,1-1.5-.12-3.34-1.59-4-.5-.27-1.23-.46-.6-1.06.3-.37.95.42,1.38.52l13,7.12c-.21.7-.57.86-1.13.35-1.23-.83-3.24-1.15-4.14.3-1.8,2.88-3.31,5.93-5,8.89-2.26,4.19-4.62,8.33-6.81,12.56-1,1.51.12,3.37,1.61,4l.91.5Z"/><path d="M155.77,382l-3.69,10.35c-1.51-.16-.51-2.09-1-3.11-.54-4.66-4-9-8.65-10-3.58-1-7.35.87-9.45,3.78a28,28,0,0,0-5.38,15,8.52,8.52,0,0,0,3.88,7.79,12.43,12.43,0,0,0,7.19,1.88c.89-2.61,1.94-5.17,2.68-7.82.3-1.73-1.48-2.77-2.91-3.17a.54.54,0,0,1,.91-.58l13.53,4.82c-.16,1.66-2-.13-3.08.53-1.67.64-1.81,2.64-2.44,4.09l-1.65,4.63a31,31,0,0,1-17.59-3.91c-5.13-3.23-8.6-9.47-7.59-15.59a16.55,16.55,0,0,1,8.88-12.46,17.29,17.29,0,0,1,14.46-.48,19.11,19.11,0,0,1,6.64,4.18,2.57,2.57,0,0,0,4.44-.21l.8.29"/><path d="M177.78,417.28c0,.55-.09,1.05-.75.75l-15.49-2.35c0-.55.09-1.05.75-.75,1.34.27,3.14.25,3.79-1.2a49.39,49.39,0,0,0,1.16-6.39c.89-6,1.83-11.9,2.68-17.85a2.62,2.62,0,0,0-1.44-3.24,8.86,8.86,0,0,0-2.4-.55c0-.55.09-1.05.75-.75l15.49,2.35c0,.55-.09,1.05-.75.75-1.35-.28-3.14-.24-3.81,1.19a49.38,49.38,0,0,0-1.16,6.39c-.89,6-1.83,11.9-2.68,17.85a2.63,2.63,0,0,0,1.45,3.25A9.41,9.41,0,0,0,177.78,417.28Z"/><path d="M219.59,407.12l-.61,11-27.63,1.41c-.17-.67,0-1,.74-.89,1.39,0,3.18-.55,3.36-2.15.12-2.73-.18-5.46-.28-8.19-.3-5.44-.51-10.89-.87-16.33a2.66,2.66,0,0,0-2.84-2.77c-.49-.25-1.81.51-1.68-.38-.22-.72.78-.34,1.2-.47l15.37-.78c.17.67,0,1-.74.89-1.42,0-3.27.34-3.66,1.94a58.64,58.64,0,0,0,.17,7.1c.31,5.67.53,11.34.91,17a2.26,2.26,0,0,0,2.61,2.51,33.52,33.52,0,0,0,6.72-.58c3.07-.82,4.75-3.86,5.59-6.7.55-.77.1-2.69,1.31-2.58l.33,0"/><path d="M241.14,380.53c-.73,0-.41.95-.6,1.44-1.22,9.16-2.38,18.34-3.65,27.49-.31,2-.81,4.4-2.82,5.42-.74.26-.09,1.42.59.78l9.23-2.77c-.12-1.55-1.89-.14-2.88-.42-2.12,0-2.43-2.57-2.14-4.18l.38-3.26,10.57-3.18c1.35,1.7,2.84,3.3,4.06,5.09.92,1.73-1.31,2.52-2.6,2.85-.6.06-.08,1.33.47.74l13.89-4.16c0-1.57-2.06-.1-2.9-1.15-2.6-2-4.47-4.67-6.62-7.08l-15-17.63Zm-.08,11,7.51,9-9,2.68Z"/><path d="M288.42,359.89l4,7.43c-1.24,1.07-1.89-1.41-3-1.79a5.75,5.75,0,0,0-6.69-.53c-.84.44-1.67.9-2.51,1.34,4,7.44,8,14.91,12,22.32a2.88,2.88,0,0,0,4.47,1.19c.58-.42,1.11-.66,1.3.23-2,1.18-4.27,2.31-6.38,3.47l-8,4.29c-.63-.65-.21-1,.5-1.23a3,3,0,0,0,1.35-4.61c-3.93-7.39-7.92-14.74-11.87-22.11-2.2,1.22-5,2.32-5.57,5.06-.63,1.73.29,3.84.3,5.31-.68.7-.86-.26-1.17-.76l-3.41-6.35,24.65-13.25Z"/><path d="M307.11,348.81l7.64,10.13c1.77-1.13,3.25-3.14,2.72-5.34.2-1.72-2.25-3.66-1.41-4.87.56-.34.88.94,1.34,1.28l8.72,11.57c-1.14,1.3-2-1.35-3.17-1.63-1.7-1.21-4.08-1.81-5.91-.49-1.36.43-1.3,1.2-.37,2,2,2.64,3.95,5.41,6.13,7.94,1.34,1.3,3-.06,4.13-1,2.93-2,5.5-5.11,5.35-8.84.19-1.63-.83-3.45-.82-4.82.66-.87.84.48,1.22.93l4.13,7.45-21.5,16.22c-.93-.66,0-1.05.57-1.51,2-1.24,1.37-3.77-.11-5.16-4.59-6.05-9.11-12.16-13.76-18.17-1.19-1.61-3.39-.76-4.59.36-.5.71-1.28-.71-.33-.81l20.28-15.29,5.55,7.36c-1.29,1.3-2.42-1.6-3.89-1.75-2.66-1.39-5.83-.27-8,1.48-1.32.94-2.59,1.93-3.88,2.9"/></svg>