<svg xmlns="http://www.w3.org/2000/svg" viewBox="0 0 278.09 280.14"><title>Burundi</title><path d="M148.39,34.32,142.29,39V277.68c0,2.05-1.81,2.46-3.25,2.46s-3.25-.41-3.25-2.46V39l-6.1-4.64s4-11.09,5.67-17.16S139,0,139,0s2,11.09,3.67,17.16,5.67,17.16,5.67,17.16Z"/><path d="M96.3,41.57,92.47,48.2l92,220.27c.79,1.89-.72,3-2,3.52s-3.16.87-3.95-1l-92-220.27-7.42-1.94s-.57-11.78-1.38-18S74.45,13.5,74.45,13.5s6.14,9.46,10,14.42S96.3,41.57,96.3,41.57Z"/><path d="M181.78,41.57l3.83,6.64-92,220.27c-.79,1.89.72,3,2,3.52s3.16.87,3.95-1l92-220.27L199,48.77s.57-11.78,1.38-18,3.23-17.25,3.23-17.25-6.14,9.46-10,14.42-11.85,13.65-11.85,13.65Z"/><path d="M204.05,176.65c9.78-22.06,0-31.71,0-65.6s16.7-51.88,20.27-55.72,5-5.11,4.39-5.78-1.83.22-6.17,2.4-19.75,11.29-40.35,11.29c-27.87,0-43.15-11-43.15-11s-15.28,11-43.15,11c-20.6,0-36-9.11-40.35-11.29s-5.61-3.07-6.17-2.4.82,1.94,4.39,5.78S74,77.15,74,111s-9.78,43.54,0,65.6,39.39,23.67,65,49.79c25.61-26.12,55.23-27.73,65-49.79Z" style="fill:#f8c300;stroke:#000;stroke-width:1.5px"/><path d="M196.09,169.94c8.71-19.64-2.18-27.32-2.18-55.94s11.15-45.35,11.15-45.35-9.27,2.8-27.61,2.8c-24.81,0-38.41-9.82-38.41-9.82s-13.6,9.82-38.41,9.82C82.3,71.46,73,68.66,73,68.66S84.17,85.4,84.17,114,73.29,150.3,82,169.94s34.25,23.53,57,46.79c22.8-23.26,48.34-27.15,57-46.79Z" style="fill:#da251d;stroke:#000;stroke-width:1.5px"/><path d="M108.42,89.18s-5.52-4.64-15.09-1.74c0,0-2,11.9,6.39,17.13,0,0-8.08,29.23-5.33,46s11.33,24.06,21.49,28.12c0,0-.25,8.14,5.13,12.39s10.74,3.48,18,3.48,12.67.76,18-3.48,5.13-12.39,5.13-12.39c10.16-4.06,18.75-11.35,21.49-28.12s-5.33-46-5.33-46c8.42-5.22,6.39-17.13,6.39-17.13-9.58-2.9-15.09,1.74-15.09,1.74S159.8,81.63,139,81.63,108.42,89.18,108.42,89.18Z" style="fill:#f8c300;stroke:#000;stroke-width:1.5px"/><path d="M129.82,184.7a82.27,82.27,0,0,1,9.23-.9,82.27,82.27,0,0,1,9.23.9s-6,.61-9.23.61S129.82,184.7,129.82,184.7Z"/><path d="M103.87,151.88s1.13-14.87,3.55-25l5.82,5.31c0,.32-.3,14.37.42,20.41,0,0,3.52,2,6,3.3l.45-1.11c-2.39-1.2-5-2.82-5.32-3-.54-5.86-.37-20.47-.37-20.47-3.27-3.09-7.9-6.75-7.9-6.75-4.22,17.07-2.7,27.25-2.7,27.25Z"/><path d="M130,115.53c-8.72,2.74-13.65,2.87-13.65,2.87-3.9-3.28-4.5-9-4.5-9C117.93,111.78,123.84,113.62,130,115.53Z"/><path d="M180.36,92.27s-.41,4.72-4.11,7a25.34,25.34,0,0,0-3.08-6,15.74,15.74,0,0,1,7.18-1Zm-18.14,86.41s-.29-13.84-4.06-23.42a50.28,50.28,0,0,0-38.22,0c-3.77,9.58-4.06,23.42-4.06,23.42M97.73,92.27s.41,4.72,4.11,7a25.34,25.34,0,0,1,3.08-6,15.74,15.74,0,0,0-7.18-1Zm24.43,5.13s7.39,6.77,16.89,6.77,16.89-6.77,16.89-6.77-8.83-6-16.89-6S122.15,97.4,122.15,97.4Zm6.78,65c-.67,1.05-1.18,10.84-.29,13.06s4.64,2.32,10.4,2.32,9.51-.1,10.4-2.32.38-12-.29-13.06-4.35-2-10.11-2-9.44,1-10.11,2Zm-2.25-47.1c3.63,1.09,5.73,1.6,5.73,1.6-2,16-2.32,25.18-2.32,25.18a35.09,35.09,0,0,0,17.9,0s-.29-9.22-2.32-25.18c0,0,2.1-.51,5.73-1.6" style="fill:none;stroke:#000;stroke-width:1.5px"/><path d="M174.22,151.88s-1.13-14.87-3.55-25l-5.82,5.31c0,.32.3,14.37-.42,20.41,0,0-3.52,2-6,3.3l-.45-1.11c2.39-1.2,5-2.82,5.32-3,.54-5.86.37-20.47.37-20.47,3.27-3.09,7.9-6.75,7.9-6.75,4.22,17.07,2.7,27.25,2.7,27.25Z"/><path d="M148.13,115.53c8.72,2.74,13.65,2.87,13.65,2.87,3.9-3.28,4.5-9,4.5-9C160.15,111.78,154.25,113.62,148.13,115.53Z"/><path d="M237.74,198.71c8-35.16,8.42-59.62,13.12-81.54,3.94,4.6,17,8.43,23.28-1.45s3.62-20.44-11-28.45S232,85.7,225.06,106s-6.65,66.57-18,91.79-33.77,34-68,34-56.67-8.79-68-34S59.93,126.29,53,106,29.5,79.26,14.92,87.27-2.37,105.84,4,115.72s19.34,6.05,23.28,1.45c4.7,21.92,5.14,46.38,13.12,81.54,7.37,32.48,44.7,58.64,98.69,58.64s91.32-26.16,98.69-58.64Z" style="fill:#fff;stroke:#000;stroke-width:1.25px"/><path d="M27.23,117.17s-1.7-15.86-11.14-18.84S2.55,99.36.8,103.66m21.26-.84-9.13,3.65c4.15,6.1,5.84,16.9-3.21,14.34" style="fill:none;stroke:#000;stroke-width:1.25px"/><path d="M250.86,117.17s1.7-15.86,11.14-18.84,13.54,1,15.29,5.33M256,102.82l9.13,3.65c-4.15,6.1-5.84,16.9,3.21,14.34" style="fill:none;stroke:#000;stroke-width:1.25px"/><path d="M60.2,210.82l-2.52,1.62a75,75,0,0,0,9,11.06l2.12-2.13A72.69,72.69,0,0,1,60.2,210.82Zm145.31,12a76.5,76.5,0,0,1-9.85,6.56l1.47,2.61a79.48,79.48,0,0,0,10.23-6.81Z"/><path d="M48.76,121.54l-10.12,1.8a8.66,8.66,0,0,1-3.24.1A4.25,4.25,0,0,1,33.16,122a6.21,6.21,0,0,1-1.37-3.08,6.58,6.58,0,0,1,.13-3.3,4.12,4.12,0,0,1,1.58-2.11,7.69,7.69,0,0,1,3-1.09l10.33-1.84.52,2.9-10.12,1.8q-2.08.37-2.58,1.35a3.38,3.38,0,0,0-.28,2.15,3.17,3.17,0,0,0,1.07,2,3.58,3.58,0,0,0,2.83.32l10.12-1.8Z"/><path d="M36.42,145.59l-.4-2.77,9.24-7.48.69-.56.67-.54L35,135.93l-.33-2.3,15.83-2.31.46,3.15-8.52,6.9-1.56,1.26,11-1.61.33,2.25Z"/><path d="M38.31,157.54l-.42-2.85,15.83-2.32.42,2.85Z"/><path d="M40.35,171.33l-.51-3.05,13.34-2.23-.7-4.2,2.44-.41,1.91,11.44-2.44.41-.7-4.2Z"/><path d="M44.14,193.84,42,183.68l15.64-3.36,2.16,10.06-2.33.5-1.56-7.24-4.24.91,1.25,5.82-2.27.49L49.36,185,45,186l1.58,7.34Zm15.44-9.58,2.09,2.62,2.84-.53-2.36-2.58Z"/><path d="M86.81,243.44,84,242.11l5.81-12.51-3.94-1.83,1.06-2.29,10.74,5-1.06,2.29-3.94-1.83Z"/><path d="M109.46,250.73l-3-.8-.73-7.13-4-1.06L100,248.22l-2.84-.75,4.19-15.77,6.84,1.82a6.06,6.06,0,0,1,3.85,2.41,4.55,4.55,0,0,1,.46,3.68,4.32,4.32,0,0,1-4,3.43Zm-7.13-11.27,3.54.94a3.55,3.55,0,0,0,2.46,0,2.3,2.3,0,0,0,1.22-1.58,2.17,2.17,0,0,0-.29-1.87,3.14,3.14,0,0,0-1.9-1.2l-3.77-1Z"/><path d="M130,253.06l-3.13-.25-1-4-6.26-.5L118,252.1l-2.5-.2,6.7-15.84,3.61.29Zm-4.72-6.64L123.48,239,120.53,246Z"/><path d="M140.75,253l-3,0-5.28-16.24,3.11,0,3.93,12.45,3.63-12.56,2.45,0Z"/><path d="M164.89,251.09l-3.12.36L160,247.75l-6.23.73-.82,4-2.49.29L154,235.93l3.6-.42ZM159,245.5l-3.21-7L154.24,246Z"/><path d="M173.51,249.38l-2.87.63-3.47-15.95,2.87-.63Z"/><path d="M191.09,244l-9.53,3.18-5.17-15.48,2.94-1,4.33,12.95,6.59-2.2Z"/><path d="M221.63,218.65l-1.78,2.27L207.27,211l4-5.15A5.48,5.48,0,0,1,215,203.5a4.9,4.9,0,0,1,5.34,4.34,5.25,5.25,0,0,1-1.23,3.76l-2.47,3.14Zm-6.93-5.45,2.11-2.68a2.88,2.88,0,0,0,.74-2,2.27,2.27,0,0,0-.94-1.63,2.39,2.39,0,0,0-1.73-.53,3.11,3.11,0,0,0-2,1.41l-1.95,2.48Z"/><path d="M235,191.85l-1.16,2.82-7-.2-1.54,3.75,6.08,2.5-1.09,2.67-14.8-6.07,2.63-6.42a5.94,5.94,0,0,1,2.83-3.44,4.46,4.46,0,0,1,3.64,0,4.23,4.23,0,0,1,2.83,4.28Zm-11.86,5.5,1.36-3.32a3.49,3.49,0,0,0,.27-2.4,2.26,2.26,0,0,0-1.38-1.39,2.13,2.13,0,0,0-1.86,0,3.08,3.08,0,0,0-1.4,1.69l-1.45,3.53Z"/><path d="M236.63,178.5a5.84,5.84,0,0,1-3.44,4.31,9.65,9.65,0,0,1-6.15.41,9,9,0,0,1-5.27-3.14,6.07,6.07,0,0,1-1.19-5.38,5.87,5.87,0,0,1,3.39-4.28,9.3,9.3,0,0,1,6.13-.47,9.1,9.1,0,0,1,5.42,3.17,6.13,6.13,0,0,1,1.11,5.36Zm-2.26-.54a3.32,3.32,0,0,0-.67-2.86q-1-1.34-4.32-2.09a8.74,8.74,0,0,0-4.4-.09,3,3,0,0,0-2.15,2.35q-.82,3.61,5,4.94a8.37,8.37,0,0,0,4.49.06,3,3,0,0,0,2.05-2.31Z"/><path d="M231.52,151l8.07,1.32-.21,1.26-2.27.52a4.65,4.65,0,0,1,1.67,4.65,5.44,5.44,0,0,1-3.24,4.42,10.37,10.37,0,0,1-5.94.66,9.47,9.47,0,0,1-5.48-2.71,5.94,5.94,0,0,1-1.56-5.36,5.7,5.7,0,0,1,2-3.69,6.13,6.13,0,0,1,3.75-1.38l0,2.55q-3,.22-3.43,2.85a3.37,3.37,0,0,0,.92,3,6.94,6.94,0,0,0,4,1.74q6,1,6.59-2.77a3.21,3.21,0,0,0-.61-2.57,3.74,3.74,0,0,0-2.5-1.39l-.53,3.26-2.29-.37Z"/><path d="M243,131.84l-.37,3-6.83,1.67-.49,4,6.53.8-.35,2.86-15.88-1.94.84-6.89a5.94,5.94,0,0,1,1.82-4.06,4.46,4.46,0,0,1,3.51-.94,4.23,4.23,0,0,1,3.86,3.38Zm-10,8.44.43-3.56a3.49,3.49,0,0,0-.37-2.38,2.26,2.26,0,0,0-1.7-1,2.13,2.13,0,0,0-1.78.54,3.08,3.08,0,0,0-.91,2l-.46,3.79Z"/><path d="M244.94,116.48l-1.61,10.27-15.8-2.48,1.6-10.16,2.35.37-1.15,7.32,4.28.67.92-5.88,2.29.36-.92,5.88,4.42.7,1.17-7.42Z"/><path d="M243.76,111.66l.41-2.83q2.41.35,3.57-2.81a3.9,3.9,0,0,0,.24-2.42,1.82,1.82,0,0,0-1.13-1.3,2.1,2.1,0,0,0-1.26-.07,2.68,2.68,0,0,0-1.38,1.2L242.4,106a7.65,7.65,0,0,1-1.67,1.86,3.74,3.74,0,0,1-1.8.62,4.7,4.7,0,0,1-2.06-.28,4.19,4.19,0,0,1-2.67-2.68,6.24,6.24,0,0,1,.19-4.28,7.42,7.42,0,0,1,2.12-3.14,4.06,4.06,0,0,1,3.11-1.06l-.31,2.81a2.77,2.77,0,0,0-2.73,2.14,3.28,3.28,0,0,0-.19,2.13,1.75,1.75,0,0,0,1.1,1.15q1.29.47,2.57-1.42l1.58-2.32a5.53,5.53,0,0,1,2.87-2.47,4.56,4.56,0,0,1,2.8.13,4.42,4.42,0,0,1,2.87,3,7.38,7.38,0,0,1-.33,4.78,8.45,8.45,0,0,1-2.38,3.57,4.89,4.89,0,0,1-3.73,1.15Z"/><path d="M223,120.28l1.91-2.75,2.87.34-2.18,2.73Z"/></svg>