<svg xmlns="http://www.w3.org/2000/svg" viewBox="0 0 600 601.71"><title>Cabo_Verde</title><circle cx="300.27" cy="263.03" r="231.32" style="fill:#fff"/><path d="M300.25,31.72C172.56,31.72,68.95,135.31,68.95,263s103.61,231.28,231.3,231.28S531.58,390.69,531.58,263,427.93,31.72,300.25,31.72Zm0,9.5C422.67,41.22,522,140.61,522,263s-99.38,221.78-221.8,221.78S78.47,385.49,78.47,263,177.82,41.22,300.25,41.22Z" style="fill:#06376c"/><path d="M300.25,50.32C182.86,50.32,87.6,145.61,87.6,263s95.26,212.68,212.65,212.68S512.93,380.39,512.93,263,417.65,50.32,300.25,50.32Zm-.1,31.6c99.93,0,181,81.09,181,181.08s-81.1,181.08-181,181.08S119.11,363,119.11,263,200.22,81.92,300.15,81.92Z" style="fill:#06376c"/><path d="M114.74,336.23a204.06,204.06,0,0,0,8.69,19.66H476.88a204.06,204.06,0,0,0,8.69-19.66Zm16.33,33.43a203.5,203.5,0,0,0,13.8,19.86H455.43a203.69,203.69,0,0,0,13.8-19.86Zm25.39,33.4a201.6,201.6,0,0,0,21.92,20.17H421.93a201.6,201.6,0,0,0,21.92-20.17Z" style="fill:#06376c"/><path d="M195.53,311.1l-1.87-5.8-8.08,2.6-1.43-4.4c-.88-2.7,1.3-3.8,3.49-4.7.6-.3,2.75-1.1,3.33-1.8l-1.86-5.7c-.55,1-3.79,2.2-4.7,2.5-2,.9-4.47,2.5-4.26,5H180a6,6,0,0,0-6.7-1.6c-4.47,1.4-5,5.8-3.72,9.8l3.68,11.3ZM176.1,311l-1.5-4.6c-.52-1.6-.2-3.2,1.45-3.7s2.91.1,3.48,1.8l1.57,4.9Zm12.43-21.6-2.31-18.8-5.19.7L182.6,284l-4.41.5-1.4-11.3-4.67.6,1.4,11.3-4.06.5-1.52-12.4-4.83.6,2.26,18.4Zm-2.72-21.3.21-6-7.77-.3.17-5c.18-5.1-2-8.5-7.74-8.7-5.52-.2-7.65,3.8-7.8,8.2l-.39,11Zm-18.24-6.7.14-4.1c.1-1.8,1-3.2,3.18-3.1s2.86,1.5,2.8,3.4l-.15,4Zm-7.49-31,4,4.2.89-3.9-3.59-6Zm8.47-8.7-1.37,6,13.69,3.1c2.93.7,4.18,2.1,3.51,5s-2.41,3.7-5.34,3l-13.69-3.2L164,241.5l13.34,3.1c6.59,1.5,10.57-.7,12.16-7.6s-1-10.7-7.59-12.2Zm16.9-7.6,2.06-4.4c.77-1.7,2-2.7,3.86-1.8s1.81,2.3,1,4l-2,4.4Zm6.7,9.8,4.74-10.2c2.11-4.5,2.3-8.9-2.74-11.3a5.51,5.51,0,0,0-6.7,1.4,5.32,5.32,0,0,0-3-4.8c-4.41-2.1-7.22,1.5-8.86,5.1L171,214Zm-14.31-13.4,2-4.2c.53-1.2,1.55-2.1,3.09-1.3a2.17,2.17,0,0,1,1,3.1l-2,4.3Zm24.25-7,10-13.7-4.23-3.1-6.4,8.8-14.64-10.6-3.57,4.9Zm11.34-15.2,4-4.6-17.61-15.3-4,4.6Zm12.88-32.7c-3.74-4.2-10-3.1-13.83.1-5.41,4.6-5.44,11.6-1.1,16.8s11.32,6.4,16.73,1.9c4.53-3.8,5.64-9.4,2-14.2l-4.65,3.9a4.31,4.31,0,0,1-.83,6.3c-3,2.6-6.39.9-8.61-1.8s-3.3-6.3-.3-8.8c2-1.6,4.15-1.8,5.92-.3Zm11.7-8.9v-.1l6.22,5.9-4.63,2.6Zm-2.12,20.4,5.46-3-.74-4.4,7.12-3.9,3.28,2.9,5.54-3-18.94-16.2-5.4,3Zm31.4-15,9.78-2.2c6.9-1.6,10.21-6.6,8.49-14.1-1.62-7-6.77-10.3-13.74-8.7l-9.78,2.3Zm1.85-19,2.8-.6c4-1,6.74.5,7.69,4.7,1,4.5-.33,6.7-4.79,7.8l-2.8.7Zm21.75,14.6,18.92-.4-.1-5.2-12.84.2-.1-4.4,11.43-.2-.1-4.7-11.43.2-.1-4.1,12.51-.2L309,124l-18.58.3Zm56.39-7.7c1.3-5.5-3.14-10-8-11.3-6.82-1.8-12.63,2.2-14.38,8.7s1.27,13,8.09,14.8c5.71,1.5,10.88-.7,12.76-6.5l-5.88-1.5c-.91,2.5-2.91,3.6-5.66,2.9-3.78-1-4.34-4.7-3.44-8.1s3.24-6.3,7-5.3c2.46.7,3.91,2.4,3.61,4.7Zm14,4.7.1.1-1.41,8.4-4.72-2.4Zm-18.14,9.7,5.57,2.9,3.2-3.1,7.25,3.7-.61,4.4,5.64,2.9,2.82-24.8-5.5-2.8Zm32.79,7.3,3.84,3c1.44,1.1,2.15,2.5.88,4.1s-2.66,1.3-4.18.1l-3.84-3ZM364.86,166l8.84,6.9c3.94,3.1,8.2,4.2,11.62-.1a5.64,5.64,0,0,0,.23-6.9,5.15,5.15,0,0,0,5.32-1.8c3-3.8.17-7.4-3-9.8l-8.6-6.7Zm16.26-11,3.71,2.9c1,.8,1.61,2,.57,3.3a2.25,2.25,0,0,1-3.33.3l-3.71-2.9Zm9.78,17c-5.1,4.4-6.45,11.1-1.63,16.7s11.62,5.1,16.73.7,6.45-11.1,1.63-16.7-11.62-5.1-16.73-.7Zm4,4.6c2.62-2.3,6.22-3.4,8.79-.5s.94,6.4-1.67,8.7-6.21,3.4-8.79.4-.94-6.3,1.67-8.6Zm37.73,39.2-2.68-5.7-17.66,3.2v-.1l13.79-11.4-2.68-5.8-18,16.5,3,6.4Zm-21.26,10.7,4.58,18.4,5.07-1.3-3.1-12.4,4.31-1.1L425,241.2l4.56-1.2-2.77-11.1,4-1,3,12.2,4.73-1.2-4.5-18Zm5.34,21,.22,6.1,8.49-.3.16,4.6c.1,2.8-2.31,3.3-4.65,3.5-.65.1-2.94.3-3.7.9l.21,6c.82-.9,4.24-1.1,5.22-1.2,2.22-.3,5-1.1,5.47-3.6h.1a6.19,6.19,0,0,0,6,3.5c4.71-.2,6.43-4.3,6.28-8.4l-.41-11.9Zm18.67,5.4.16,4.9c.1,1.7-.67,3.1-2.4,3.1a2.48,2.48,0,0,1-2.84-2.7l-.18-5.1ZM417.15,270l-1.23,10c-.86,7,2.7,11.8,10.29,12.8,7.16.8,12-2.9,12.87-10l1.22-9.9Zm17.22,8.3-.35,2.8c-.5,4.1-2.82,6.2-7,5.6-4.64-.5-6.2-2.6-5.73-7.2l.35-2.8Zm-21.51,15.5-5.85,18,5,1.6,4-12.2,4.23,1.4-3.54,10.8,4.48,1.5,3.53-10.9,3.89,1.3-3.87,11.9,4.63,1.5L435,301Z" style="fill:#1f1a17"/><path d="M379.12,306H221.4l39.43-68.29,39.43-68.29,39.43,68.29Z" style="fill:#06376c"/><path d="M300.26.56a9.69,9.69,0,0,0-9.69,9.69h0a9.69,9.69,0,0,0,9.69,9.69h0a9.69,9.69,0,0,0,9.69-9.69h0A9.69,9.69,0,0,0,300.26.56Zm0,5.09a4.6,4.6,0,1,1-4.56,4.6,4.61,4.61,0,0,1,4.56-4.6Z" style="fill:#fcd116;stroke:#000;stroke-width:1.1288983821868896px"/><path d="M295.07,19.94c.2,3.89-4.28,11.82-13.3,11.82m42,0H276.72c5.48,0,15.7-7,15.7-11.82h15.7c0,4.91,9.92,11.82,15.7,11.82Zm-24.7-11.83s-1,11.82-8.53,11.82m9.68,70.59,30.39-70.59H269.87Zm-18.5-70.59,18.5,70.58M290.13,31.76l10.13,70.58M275.14,31.76l25.12,70.58" style="fill:#fcd116;stroke:#000;stroke-width:1.1288983821868896px"/><path d="M374.38,538.24A27.68,27.68,0,0,0,363.5,541l-39.06,19.23c-10.83,5.33-18.33,18.15-12.59,29.83s20.48,13.58,31.31,8.25l39.06-19.19c10.83-5.33,18.3-18.19,12.56-29.86-3.95-8-12.15-11.43-20.4-11Zm1.52,10.57c4.14.09,7.75,1.92,9.36,5.19,2.57,5.22-.93,12.24-7.74,15.59l-39,19.19c-6.82,3.35-14.5,1.82-17.07-3.4s.89-12.24,7.71-15.59l39.06-19.19a16.78,16.78,0,0,1,7.71-1.79Zm-152-10.58c-7.46.28-14.59,3.74-18.18,11C200,561,207.5,573.82,218.33,579.14l39,19.19c10.83,5.33,25.57,3.43,31.31-8.25s-1.73-24.5-12.56-29.83L237.05,541a27.64,27.64,0,0,0-13.13-2.79Zm.71,10.57a16.91,16.91,0,0,1,7.74,1.79l39,19.19c6.82,3.35,10.31,10.37,7.74,15.59s-10.25,6.75-17.07,3.4L223,569.58c-6.82-3.35-10.28-10.37-7.71-15.59,1.61-3.26,5.19-5.1,9.33-5.18Z" style="fill:#fcd116;stroke:#000;stroke-width:1.0770000219345093px"/><path d="M269.39,575.75h61a5.49,5.49,0,1,1,0,11h-61c-3.87,0-5.18-2.95-5.18-5.48S265.81,575.75,269.39,575.75Z" style="fill:#fcd116;stroke:#000;stroke-width:1.128999948501587px"/><path d="M417.64,547.24l1.19,6c72.2-38.54,129.58-101.39,159.58-170.1C551.44,435.71,501.5,502.91,417.64,547.24Z" style="fill:#00923f;stroke:#00923f;stroke-width:1.1288983821868896px"/><path d="M444.66,531.13c-6.39-22.62,2.77-37,14.85-50.17-5,19.36-9.83,24.82-14.85,50.17Zm10.77,0c20.85,6.13,44.65-.19,63.24-20.68C499.76,519,477.26,528.57,455.42,531.17Zm8.89-13.69c-1.77-32.87,4.9-45.87,22.52-68.09C479.16,474.12,472.42,497.83,464.31,517.47Zm16.56-5.64c17.25,2.61,45-4.62,61.52-25.11-15.89,9.22-40.84,15.64-61.52,25.11Zm10.87-16.27c-3.62-33.23,3.51-52.55,22-72.72C507.57,449.86,496.35,471.16,491.74,495.56ZM506.41,488c40.39.27,52-15.82,64.61-36.43-21,21.81-32.28,20.22-64.61,36.43Zm9-15.75c-2.3-21.68,4.47-54,25.76-74.92-7.68,30.36-17,47.69-25.76,74.92Zm15.57-10.87c25.47,2.79,43.54-19.21,52.18-39.9C563.61,439.63,553.06,450.85,530.93,461.38Zm6.44-14.67c.34-24,13.65-52.36,33.42-69.7C561,400.3,555.31,410.69,537.37,446.71Zm14.71-14.33c19.93-16.45,24.24-26.49,40.22-44.92C589.95,403.21,571.62,434.75,552.08,432.38Zm17.78-32.55c7.23-27.59,15.88-34.3,29.58-59.28-5.17,25.78-5.66,33.16-29.58,59.28Z" style="fill:#00923f;stroke:#00923f;stroke-linejoin:round;stroke-width:1.1288983821868896px"/><path d="M182.36,546.54l-1.19,6C109,514,51.59,451.18,21.58,382.47,48.56,435,98.5,502.21,182.36,546.54Z" style="fill:#00923f;stroke:#00923f;stroke-width:1.1288983821868896px"/><path d="M155.35,530.43c6.39-22.62-2.77-37-14.85-50.17C145.45,499.62,150.32,505.08,155.35,530.43Zm-10.77,0c-20.85,6.13-44.65-.19-63.24-20.68C100.25,518.31,122.74,527.87,144.58,530.47Zm-8.88-13.69c1.77-32.87-4.9-45.87-22.51-68.09C120.84,473.42,127.59,497.13,135.69,516.77Zm-16.56-5.64c-17.25,2.61-44.95-4.62-61.52-25.11C73.51,495.24,98.46,501.66,119.14,511.14Zm-10.87-16.27c3.62-33.23-3.51-52.55-22-72.72C92.44,449.16,103.65,470.47,108.26,494.86Zm-14.67-7.57c-40.39.27-52-15.82-64.61-36.43,21,21.81,32.28,20.22,64.61,36.43Zm-9-15.75c2.3-21.68-4.47-54-25.76-74.92,7.68,30.36,17,47.69,25.76,74.92ZM69.07,460.68c-25.47,2.79-43.54-19.21-52.18-39.9C36.39,438.93,46.94,450.15,69.07,460.68ZM62.63,446c-.34-24-13.65-52.36-33.43-69.7C39,399.6,44.69,410,62.63,446ZM47.92,431.68C28,415.23,23.68,405.19,7.71,386.76,10.06,402.51,28.38,434.05,47.92,431.68ZM30.14,399.13c-7.23-27.59-15.88-34.3-29.58-59.28C5.74,365.62,6.22,373,30.14,399.13Z" style="fill:#00923f;stroke:#00923f;stroke-linejoin:round;stroke-width:1.1288983821868896px"/><path d="M93,100.39l-10,7.24,3.84,11.73-10-7.27-10,7.27,3.84-11.73-10-7.24,12.34,0,3.79-11.74,3.79,11.74ZM64.45,146l-10,7.24L58.28,165l-10-7.27-10,7.27,3.84-11.73-10-7.24,12.34,0,3.79-11.74L52.1,146Zm-17,49-10,7.24L41.33,214l-10-7.27-10,7.27,3.84-11.73-10-7.24,12.34,0,3.79-11.75,3.79,11.75Zm-7.87,50.88-10,7.24,3.84,11.73-10-7.27-10,7.27,3.84-11.73-10-7.24,12.34,0,3.79-11.74L27.28,246Zm8,52.11-10,7.24L41.48,317l-10-7.27-10,7.27,3.84-11.73-10-7.24,12.34,0,3.79-11.74,3.79,11.74ZM507.57,100.39l10,7.24-3.84,11.73,10-7.27,10,7.27-3.84-11.73,10-7.24-12.34,0L523.7,88.67l-3.79,11.74ZM536.09,146l10,7.24L542.25,165l10-7.27,10,7.27-3.84-11.73,10-7.24L556,146l-3.79-11.74L548.43,146Zm17,49,10,7.24L559.21,214l10-7.27,10,7.27-3.84-11.73,10-7.24-12.34,0-3.79-11.75-3.79,11.75Zm7.87,50.88,10,7.24-3.84,11.73,10-7.27,10,7.27-3.84-11.73,10-7.24-12.34,0L577,234.21,573.25,246Zm-8,52.11,10,7.24L559.06,317l10-7.27L579,317l-3.84-11.73,10-7.24-12.34,0L569,286.32l-3.79,11.74Z" style="fill:#fcd116;stroke:#fcd116;stroke-width:1.1288983821868896px"/><path d="M287.19,238.16c-9.08.35-7.79-7.49-6.14-12.12,5.5,2.59,10.3,7.33,6.14,12.12Zm16.37-38.71c-12.66,7.29-22.57,21.63-8.5,34.31l3.15-5.19,5.35,6.14c1.13-6.94,8.89-12.18,6.77-20.46,0,0-1.73,3-4.56,2.83.64-3.69-2.7-10.05-2.2-17.62Z" style="fill:#fff;stroke:#06376c;stroke-width:2.1549999713897705px"/><rect x="271.32" y="245.28" width="57.83" height="8.91" rx="2.07" ry="2.07" style="fill:#fff"/><path d="M295.45,280.32c0-3.1-.08-14.58-11.73-14.58v-4.67h33v4.79c-11.15,0-11.34,10.95-11.34,14.46V306.8h-10Z" style="fill:#fff"/><path d="M295,280.13h10.39a4.71,4.71,0,0,1,4.71,4.71h0a4.71,4.71,0,0,1-4.71,4.71H295a4.71,4.71,0,0,1-4.71-4.71h0A4.71,4.71,0,0,1,295,280.13Z" style="fill:#fff;stroke:#06376c;stroke-width:4.309999942779541px"/><path d="M319,219.12c4.13,16.54-.57,17.68-4.09,19.36-9-2.62-5.34-15.12,4.09-19.36Z" style="fill:#fff;stroke:#06376c;stroke-width:2.1549999713897705px"/></svg>