<svg xmlns="http://www.w3.org/2000/svg" viewBox="0 0 600 680"><title>Cameroon</title><rect x="472.7" y="139.93" width="77.2" height="15.31" transform="translate(78.41 457.13) rotate(-51.67)" style="fill:#fcd116;stroke:#120b15;stroke-width:3px"/><rect x="132.73" y="552.03" width="77.21" height="15.31" transform="matrix(0.62, -0.78, 0.78, 0.62, -373.98, 346.99)" style="fill:#fcd116;stroke:#120b15;stroke-width:3px"/><path d="M466.25,159.21,152,546.19s8.24,10.45,18,17.83,22,11.17,22,11.17L507.29,190s-2.48-7.3-15.92-18A71.65,71.65,0,0,0,466.25,159.21Z" style="fill:#fcd116;stroke:#120b15;stroke-width:3px"/><line x1="202" y1="504.38" x2="160" y2="555.38" style="fill:none;stroke:#120b15;stroke-width:3px"/><line x1="212.5" y1="512.38" x2="171" y2="563.88" style="fill:none;stroke:#120b15;stroke-width:3px"/><line x1="222" y1="519.88" x2="182.5" y2="570.88" style="fill:none;stroke:#120b15;stroke-width:3px"/><polygon points="227 531.88 218 542.88 159 537.38 168 526.88 227 531.88" style="fill:#fcd116;stroke:#120b15;stroke-width:3px"/><polygon points="180.5 511.38 189 501.88 208 554.38 199.78 564.45 180.5 511.38" style="fill:#fcd116;stroke:#120b15;stroke-width:3px"/><line x1="457.06" y1="228.32" x2="499.06" y2="177.32" style="fill:none;stroke:#120b15;stroke-width:3px"/><line x1="446.56" y1="220.32" x2="488.06" y2="168.82" style="fill:none;stroke:#120b15;stroke-width:3px"/><line x1="424.78" y1="228.04" x2="476.56" y2="161.82" style="fill:none;stroke:#120b15;stroke-width:3px"/><polygon points="433.33 200.66 442.06 189.82 502.06 195.32 492.06 205.82 433.33 200.66" style="fill:#fcd116;stroke:#120b15;stroke-width:3px"/><polygon points="478.56 223.32 469.06 233.82 451.06 178.32 460.16 167.74 478.56 223.32" style="fill:#fcd116;stroke:#120b15;stroke-width:3px"/><path d="M595.78,138.74s9.89,34.64-13.78,60c-22,23.6-54.67,14.67-54.67,14.67s5-28.33,1.33-39c-3.59-10.44-4.44-10.83-10.15-16.25S497.66,137.84,492,132.38c-9.33-9-10.67-14.67-7.33-18,1.84-1.84,8.64-.68,18.67,5.67s24.29,19.48,41.13,24.69c17.2,5.32,27.2,4,34.78.85Z" style="fill:#fff;stroke:#120b15;stroke-width:3px"/><rect x="81.86" y="108.96" width="15.31" height="77.2" transform="translate(-72.22 87.33) rotate(-38.33)" style="fill:#fcd116;stroke:#120b15;stroke-width:3px"/><rect x="421.82" y="521.1" width="15.31" height="77.2" transform="translate(-254.56 387.03) rotate(-38.33)" style="fill:#fcd116;stroke:#120b15;stroke-width:3px"/><path d="M134.57,159.21l314.24,387s-8.24,10.45-18,17.83-22,11.17-22,11.17L93.54,190s2.48-7.3,15.92-18A71.64,71.64,0,0,1,134.57,159.21Z" style="fill:#fcd116;stroke:#120b15;stroke-width:3px"/><line x1="398.83" y1="504.38" x2="440.83" y2="555.38" style="fill:none;stroke:#120b15;stroke-width:3px"/><line x1="388.33" y1="512.38" x2="429.83" y2="563.88" style="fill:none;stroke:#120b15;stroke-width:3px"/><line x1="378.83" y1="519.88" x2="418.33" y2="570.88" style="fill:none;stroke:#120b15;stroke-width:3px"/><polygon points="373.83 531.88 382.83 542.88 441.83 537.38 432.83 526.88 373.83 531.88" style="fill:#fcd116;stroke:#120b15;stroke-width:3px"/><polygon points="420.33 511.38 411.83 501.88 392.83 554.38 401.05 564.45 420.33 511.38" style="fill:#fcd116;stroke:#120b15;stroke-width:3px"/><line x1="143.77" y1="228.32" x2="101.77" y2="177.32" style="fill:none;stroke:#120b15;stroke-width:3px"/><line x1="154.27" y1="220.32" x2="112.77" y2="168.82" style="fill:none;stroke:#120b15;stroke-width:3px"/><line x1="176.05" y1="228.04" x2="124.27" y2="161.82" style="fill:none;stroke:#120b15;stroke-width:3px"/><polygon points="167.5 200.66 158.77 189.82 98.77 195.32 108.77 205.82 167.5 200.66" style="fill:#fcd116;stroke:#120b15;stroke-width:3px"/><polygon points="122.27 223.32 131.77 233.82 149.77 178.32 140.67 167.74 122.27 223.32" style="fill:#fcd116;stroke:#120b15;stroke-width:3px"/><path d="M5,138.74s-9.89,34.64,13.78,60c22,23.6,54.67,14.67,54.67,14.67s-5-28.33-1.33-39c3.59-10.44,4.44-10.83,10.15-16.25s20.86-20.29,26.52-25.75c9.33-9,10.67-14.67,7.33-18-1.84-1.84-8.64-.68-18.67,5.67s-24.28,19.48-41.13,24.69c-17.2,5.32-27.2,4-34.78.85Z" style="fill:#fff;stroke:#120b15;stroke-width:3px"/><path d="M447.85,465.51c33.1-47.09,66.9-139.89,47.28-273.24-.73-5-80,76-126.25-5H235.43c-46.25,81-125.52,0-126.25,5C89.41,326.7,123.91,419.92,157.26,466.65L303,188.69Z" style="fill:#007a5e"/><path d="M302.5,188.65h67.94c45.71,80.44,124,0,124.76,5,19.76,135.07-15.36,228.25-48.67,274.1-54.1,74.48-144,122-144,122Z" style="fill:#fcd116"/><path d="M302.26,588.28l-1.39-.78c-21.26-11.92-94.27-55.81-141.22-120.12l-.62-.86L303,191.92,446.1,465.4q-.72,1-1.43,2c-46.93,64.3-119.8,108.19-141,120.12l-1.39.78Z" style="fill:#ce1126"/><path d="M303,188.69,447.85,465.51c-.66.93-1.31,1.86-2,2.76-47.71,65.36-122.94,110.11-141.5,120.54L302.26,590l-2.12-1.18c-18.58-10.42-94-55.18-141.7-120.54l-1.17-1.62L303,188.69m0,6.46L160.78,466.4l.07.1C181,494.07,208.29,521.07,242,546.76A532.15,532.15,0,0,0,301.6,586.2l.65.36.67-.37a532.22,532.22,0,0,0,59.46-39.44c33.67-25.68,61-52.68,81.08-80.25l.88-1.22L303,195.15Z" style="fill:#120b15"/><path d="M368.88,187.27c15.58,27.29,34.9,36.19,53.71,36.19,17.66,0,34.87-7.85,48.09-15.71S493.14,192,494.85,192a.25.25,0,0,1,.28.23c20,136-15.55,229.83-49.25,276-47.71,65.36-122.94,110.11-141.5,120.54L302.26,590l-2.12-1.18c-18.58-10.42-94-55.18-141.7-120.54-33.7-46.17-69.25-140-49.25-276a.25.25,0,0,1,.28-.23c1.71,0,10.94,7.85,24.16,15.71s30.43,15.71,48.09,15.71c18.81,0,38.14-8.9,53.71-36.19H368.88m-1.73,3h-130c-14.18,24-32.82,36.19-55.44,36.19-14.91,0-31.61-5.43-49.62-16.13-7-4.18-12.92-8.34-17.22-11.37-1.14-.8-2.29-1.62-3.29-2.3-8.35,59.65-6.67,115.69,5,166.62,9.18,40,24.9,76.69,44.26,103.22C181,494.07,208.29,521.08,242,546.76A532.35,532.35,0,0,0,301.6,586.2l.65.36.67-.37a532.23,532.23,0,0,0,59.46-39.44c33.67-25.68,61-52.68,81.08-80.25,19.36-26.53,35.08-63.18,44.26-103.22,11.68-50.94,13.36-107,5-166.62-1,.69-2.16,1.5-3.29,2.3-4.29,3-10.17,7.18-17.22,11.37-18,10.7-34.71,16.13-49.62,16.13-22.62,0-41.26-12.17-55.44-36.19Z" style="fill:#120b15"/><polygon points="320.22 288.33 317.53 286.92 302.99 279.26 288.44 286.9 285.75 288.31 286.27 285.32 289.06 269.12 277.3 257.65 275.12 255.53 278.13 255.09 294.39 252.74 301.67 238.01 303.02 235.28 304.36 238.01 311.62 252.75 327.88 255.12 330.89 255.56 328.71 257.68 316.94 269.14 319.71 285.33 320.22 288.33" style="fill:#fcd116"/><path d="M303,238.67l7.61,15.45,17,2.49-12.34,12,2.9,17-15.24-8-15.25,8,2.92-17-12.33-12,17-2.47L303,238.67m0-6.78-2.69,5.45-6.93,14-15.48,2.24-6,.87,4.35,4.24,11.2,10.92-2.65,15.42-1,6,5.38-2.83L303,281l13.84,7.29,5.38,2.83-1-6-2.64-15.42,11.21-10.91,4.36-4.24-6-.88-15.48-2.26-6.92-14L303,231.89Z" style="fill:none"/><path d="M303,301.14c-4.5-.37-4.5-3.87-8,3.63-3.23,6.93-2.5,5,1.5,11.5s4-1.25,5,11.5,4,15-.5,21.5c-5.44,7.85-10.5,5.5-14,17s-7,15-10.5,25.5,0,14-7,23-19,17.5-29.5,21.5-9,2-18.5,12c-9.17,9.65-8,10.5-12.5,19s-4,9.5-7,12.5-4,1-2.5,8.5c2.29,11.44,12.5,4,16,10,9.08,15.57,10.5,6,13.5,13,7.66,17.88,4.5,17,12.5,17.5s6.5.5,16.5-1.5,4,.5,20-4,13.5-4.5,23-4.5-1.5-2,14,1.5,19,7.5,28.5,7.5,9.5,3.5,16,.5c6.31-2.91,6.5-7.5,7-15s-5.5-14.5-11.5-17-12.5-2-19-5.5-8.5-3-7.5-10,1.5-12.5,2.5-18-.5-10.5,1-18,.5-8.5,2-17.5,2-12,2.5-15.5,3.5-3,1-11,2-4-7.5-9.5c-9.17-5.31-11-1.5-13.5-11-3.47-13.2-4-9-2-13.5,2.45-5.5,7-3.5,10-6s6.5-5,3.5-9-6-7-7-12-.5-7-3-10.5-3-4-4-9,0-5.5-3-9.5S303,301.14,303,301.14Z" style="fill:#4b5eaa;stroke:#120b15;stroke-width:2px"/><path d="M275.33,483.87c0,12.33-17,22.33-38,22.33s-38-10-38-22.33Z" style="fill:#fff;stroke:#000;stroke-width:3px"/><line x1="240.67" y1="344.2" x2="199.24" y2="482.73" style="fill:none;stroke:#000;stroke-width:3px"/><line x1="240.67" y1="344.2" x2="239.33" y2="482.87" style="fill:none;stroke:#000;stroke-width:3px"/><line x1="240.67" y1="344.2" x2="275.45" y2="482.96" style="fill:none;stroke:#000;stroke-width:3px"/><path d="M404.18,483.87c0,12.33-17,22.33-38,22.33s-38-10-38-22.33Z" style="fill:#fff;stroke:#120b15;stroke-width:3px"/><line x1="369.51" y1="344.2" x2="328.08" y2="482.73" style="fill:none;stroke:#120b15;stroke-width:3px"/><line x1="369.51" y1="344.2" x2="368.18" y2="482.87" style="fill:none;stroke:#120b15;stroke-width:3px"/><line x1="369.51" y1="344.2" x2="404.3" y2="482.96" style="fill:none;stroke:#120b15;stroke-width:3px"/><line x1="239.19" y1="346.2" x2="370.99" y2="346.2" style="fill:none;stroke:#120b15;stroke-width:6.0683207511901855px"/><polygon points="303 291.64 289 538.27 303 548.64 317 538.77 303 291.64" style="stroke:#120b15;stroke-width:6px"/><rect x="292.51" y="551.76" width="21.5" height="21.5" transform="translate(-307.67 375.04) rotate(-44.61)" style="fill:#120b15;stroke:#120b15;stroke-width:2px"/><path d="M264,517c5.68-4.83,17.68-7.75,39.5-7.75s35.24,3.51,39.5,7.75" style="fill:none;stroke:#120b15;stroke-width:10px"/><path d="M302.36,620.55c-76.27,0-132.46-39.73-132.46-39.73l-15.52,19.81c-34.88-21.36-61.72-58.69-61.72-58.69L68.33,564S144,677,303.11,677.24" style="fill:#fcd116;stroke:#120b15;stroke-width:3px"/><path d="M298.08,620.55c76.27,0,132.46-39.73,132.46-39.73l15.52,19.81c34.88-21.36,62.72-57.69,62.72-57.69L532.11,564s-75.67,113-234.78,113.2" style="fill:#fcd116;stroke:#120b15;stroke-width:3px"/><path d="M77.18,567,93.6,553.19l5.88,7a15.64,15.64,0,0,1,2.78,4.2,4.94,4.94,0,0,1,0,3.24,6.19,6.19,0,0,1-2,2.9,5.73,5.73,0,0,1-4,1.49,6.82,6.82,0,0,1-4.26-2,10.12,10.12,0,0,1,.12,2.94,24.51,24.51,0,0,1-1.07,4.13l-1.51,4.71-3.34-4,1.55-5.41a30.33,30.33,0,0,0,.94-3.78,3.33,3.33,0,0,0-.16-1.57,7.16,7.16,0,0,0-1.22-1.83l-.57-.67L80,570.35,77.19,567Zm12.27-4.67,2.07,2.45a16.66,16.66,0,0,0,2.71,2.81,2.34,2.34,0,0,0,1.48.34,2.8,2.8,0,0,0,1.51-.7,2.57,2.57,0,0,0,1-1.57,2.65,2.65,0,0,0-.41-1.79q-.28-.45-2-2.47l-2.18-2.59-4.17,3.51Z"/><path d="M94,586.23l15-15.37L120.37,582l-2.54,2.6-8.29-8.09-3.32,3.41,7.72,7.53L111.41,590l-7.72-7.53-4.08,4.18,8.59,8.38-2.53,2.59L94,586.23Z"/><path d="M111.3,602.61,124.89,586l5.39,4.4a25.22,25.22,0,0,1,3.79,3.51,5.62,5.62,0,0,1,1.06,3.58,6.67,6.67,0,0,1-1.68,4,7,7,0,0,1-2.66,2.12,5.88,5.88,0,0,1-2.75.48,6.26,6.26,0,0,1-2.39-.64,24.72,24.72,0,0,1-3.68-2.61l-2.19-1.79-5.13,6.27-3.36-2.74Zm14.65-11.07-3.86,4.72,1.84,1.5a11.2,11.2,0,0,0,2.87,1.91,2.86,2.86,0,0,0,1.72,0,2.89,2.89,0,0,0,1.44-1,2.77,2.77,0,0,0,.69-1.93,3,3,0,0,0-.75-1.84,20.76,20.76,0,0,0-2.32-2.09l-1.62-1.33Z"/><path d="M142,599.67l3.59,2.43-6.53,9.63a24.14,24.14,0,0,0-1.88,3.06,3.48,3.48,0,0,0-.09,2.5,4.62,4.62,0,0,0,1.92,2.27,4.38,4.38,0,0,0,2.73.94,3,3,0,0,0,2-.9,24.24,24.24,0,0,0,2.21-2.91l6.67-9.83,3.59,2.43-6.33,9.34a28.93,28.93,0,0,1-3.36,4.32,6.06,6.06,0,0,1-2.59,1.5,6.54,6.54,0,0,1-3.07,0,11,11,0,0,1-3.79-1.78,11.89,11.89,0,0,1-3.46-3.21,6.68,6.68,0,0,1-1-2.94,5.89,5.89,0,0,1,.33-2.65,26,26,0,0,1,2.71-4.75Z"/><path d="M161.68,612.66l7.52,4.14a24.88,24.88,0,0,1,3.23,2,5.41,5.41,0,0,1,2.11,4.22,4.88,4.88,0,0,1-.63,2.52,5.09,5.09,0,0,1-4.89,2.62,5.66,5.66,0,0,1,1.7,3.16,5.17,5.17,0,0,1-.64,3.34,6.39,6.39,0,0,1-2,2.17,5.73,5.73,0,0,1-2.7,1,6.13,6.13,0,0,1-3-.51q-1-.42-4.65-2.4l-6.4-3.53,10.37-18.81Zm-2.05,12.7-2.77,5,3.51,1.94a19.6,19.6,0,0,0,2.67,1.32,2.69,2.69,0,0,0,1.79,0,2.64,2.64,0,0,0,1.41-1.3,2.8,2.8,0,0,0,.38-1.66,2.66,2.66,0,0,0-.71-1.51,14.68,14.68,0,0,0-3.22-2.12l-3.07-1.69Zm4.12-7.48-2.4,4.35,2.49,1.37q2.22,1.22,2.79,1.46a2.87,2.87,0,0,0,1.9.17,2.27,2.27,0,0,0,1.37-1.16,2.36,2.36,0,0,0,.3-1.68,2.49,2.49,0,0,0-1.07-1.45q-.53-.37-3.21-1.85l-2.18-1.2Z"/><path d="M174,643.45,182.59,624l4,1.76-7.17,16.16,9.85,4.37-1.47,3.31Z"/><path d="M194.15,652l7.48-20.13,4.06,1.51-7.48,20.13Z"/><path d="M223,658.49a14.18,14.18,0,0,0,2.82,2.72l-2.4,2.49a10,10,0,0,1-1.61-1.31q-.17-.16-2.23-2.64a11.53,11.53,0,0,1-4.74-.43,10.26,10.26,0,0,1-6.62-5q-1.87-3.59-.38-8.65t5-7.06A10.09,10.09,0,0,1,221,638a10,10,0,0,1,6.44,4.94q1.86,3.59.38,8.64a14.14,14.14,0,0,1-2.12,4.47,10.2,10.2,0,0,1-2.68,2.46Zm-2.65-3.33a6.48,6.48,0,0,0,1.87-1.92,11.14,11.14,0,0,0,1.3-2.95q1-3.57,0-5.8a5.93,5.93,0,0,0-8.24-2.42q-2.1,1.3-3.15,4.86t0,5.87a5.32,5.32,0,0,0,3.47,3,5.11,5.11,0,0,0,1.79.21,12.58,12.58,0,0,0-2.19-2l1.87-2a14.75,14.75,0,0,1,3.3,3.26Z"/><path d="M236,642.42l4.25.84L238,654.67a24,24,0,0,0-.54,3.55,3.48,3.48,0,0,0,.89,2.33A4.62,4.62,0,0,0,241,661.9a4.37,4.37,0,0,0,2.88-.2,3,3,0,0,0,1.47-1.6,24.13,24.13,0,0,0,.89-3.54l2.3-11.65,4.25.84-2.19,11.06a29,29,0,0,1-1.4,5.29,6,6,0,0,1-1.79,2.39,6.55,6.55,0,0,1-2.82,1.23,11,11,0,0,1-4.18-.16A11.88,11.88,0,0,1,236,664a6.67,6.67,0,0,1-2.11-2.3,5.9,5.9,0,0,1-.73-2.57,26,26,0,0,1,.64-5.43Z"/><path d="M257,668.07l2.44-21.34,15.82,1.81-.41,3.61-11.51-1.31-.54,4.73,10.71,1.22-.41,3.59-10.71-1.22-.66,5.81,11.92,1.36-.41,3.59L257,668.07Z"/><path d="M293.1,649.44l7.92.09a15.51,15.51,0,0,1,4.08.46,7.18,7.18,0,0,1,3.21,2,9.35,9.35,0,0,1,2,3.5,15.85,15.85,0,0,1,.64,5.08,14.14,14.14,0,0,1-.71,4.56,9.46,9.46,0,0,1-2.34,3.77,7.64,7.64,0,0,1-3.07,1.68A13.1,13.1,0,0,1,301,671l-8.16-.09.25-21.47Zm4.29,3.68-.17,14.22,3.24,0a11.79,11.79,0,0,0,2.63-.17,4,4,0,0,0,1.76-.87,4.55,4.55,0,0,0,1.16-2.06,14,14,0,0,0,.48-3.93,12.82,12.82,0,0,0-.4-3.83,4.94,4.94,0,0,0-1.21-2.09,4.12,4.12,0,0,0-2-1,19.58,19.58,0,0,0-3.56-.25l-1.95,0Z"/><path d="M316.57,649.3l4.32-.36,1,11.59a24.12,24.12,0,0,0,.46,3.56,3.49,3.49,0,0,0,1.5,2,4.62,4.62,0,0,0,2.92.56,4.38,4.38,0,0,0,2.71-1,3,3,0,0,0,1-1.94,24.06,24.06,0,0,0-.11-3.65l-1-11.84,4.32-.36.93,11.24a29,29,0,0,1,.1,5.47,6.05,6.05,0,0,1-1.07,2.79,6.54,6.54,0,0,1-2.37,2,11,11,0,0,1-4.06,1,11.9,11.9,0,0,1-4.71-.32,6.68,6.68,0,0,1-2.65-1.63,5.9,5.9,0,0,1-1.41-2.27,26,26,0,0,1-.87-5.4l-.95-11.42Z"/><path d="M367.54,655.67l4.39.41a9.43,9.43,0,0,1-2,5.78,10.12,10.12,0,0,1-12.71,1.51,11.19,11.19,0,0,1-4.38-7.23q-1.13-5.24.95-8.73a9.48,9.48,0,0,1,6.49-4.44,8.93,8.93,0,0,1,6.75.92,8.46,8.46,0,0,1,3,3.4l-4,1.91a4.43,4.43,0,0,0-5.19-2.56,4.89,4.89,0,0,0-3.42,2.49q-1.09,2-.28,5.74.86,4,2.66,5.36a4.75,4.75,0,0,0,4.09.88,4.34,4.34,0,0,0,2.67-1.7,6.37,6.37,0,0,0,1-3.76Z"/><path d="M399.11,654.71l-4.5,1.42L391.35,652l-8.19,2.58-.23,5.19-4.39,1.38,1.53-23,4.37-1.38,14.65,17.9ZM388.94,649l-5.22-6.71-.37,8.47Z"/><path d="M404.82,652.58l-8.45-19.74,6-2.55,9.34,11.94-2.22-15,6-2.56,8.45,19.74-3.7,1.58-6.65-15.54,2.73,17.22-3.84,1.64-10.55-13.87L408.52,651l-3.7,1.58Z"/><path d="M431.17,640.75,420.88,621.9l14-7.63,1.74,3.19L426.42,623l2.28,4.18,9.46-5.17,1.73,3.18-9.46,5.17,2.8,5.13,10.53-5.75,1.73,3.18-14.33,7.83Z"/><path d="M452,629,440,611.16l7.59-5.07a15.64,15.64,0,0,1,4.48-2.3,4.93,4.93,0,0,1,3.22.33,6.18,6.18,0,0,1,2.66,2.29,5.73,5.73,0,0,1,1,4.11,6.83,6.83,0,0,1-2.43,4,10.15,10.15,0,0,1,2.93.21,24.45,24.45,0,0,1,4,1.53l4.51,2-4.31,2.88L458.5,619a30,30,0,0,0-3.65-1.36,3.32,3.32,0,0,0-1.58,0,7.14,7.14,0,0,0-1.95,1l-.73.49,5,7.46L452,629Zm-3.27-12.72,2.67-1.78a16.55,16.55,0,0,0,3.09-2.38,2.34,2.34,0,0,0,.51-1.43,2.8,2.8,0,0,0-.53-1.58A2.57,2.57,0,0,0,453,608a2.65,2.65,0,0,0-1.83.21q-.48.23-2.67,1.7l-2.81,1.88,3,4.53Z"/><path d="M465.6,606.9a13.65,13.65,0,0,1-2.71-4.9,10.11,10.11,0,0,1-.3-3.55,8.35,8.35,0,0,1,.94-3.25,11.78,11.78,0,0,1,3.06-3.58,10.09,10.09,0,0,1,7.75-2.5q4.07.49,7.37,4.56t2.93,8.1a10,10,0,0,1-4,7,10.11,10.11,0,0,1-7.76,2.53q-4-.49-7.27-4.47ZM469,604a8,8,0,0,0,4.79,3.23,5.79,5.79,0,0,0,6.64-5.36q.11-2.5-2.24-5.4t-4.73-3.26a6,6,0,0,0-6.68,5.45Q466.65,601.09,469,604Z"/><path d="M478.77,581.8l3.1-3,8.14,8.31a24.12,24.12,0,0,0,2.63,2.45,3.48,3.48,0,0,0,2.43.59,4.61,4.61,0,0,0,2.6-1.43,4.37,4.37,0,0,0,1.46-2.49,3,3,0,0,0-.49-2.11,24.36,24.36,0,0,0-2.42-2.74l-8.31-8.49,3.1-3,7.89,8.06a29,29,0,0,1,3.57,4.15,6.06,6.06,0,0,1,1,2.83,6.55,6.55,0,0,1-.58,3,11,11,0,0,1-2.5,3.35,11.87,11.87,0,0,1-3.83,2.76,6.66,6.66,0,0,1-3.09.44,5.9,5.9,0,0,1-2.53-.85,26.08,26.08,0,0,1-4.12-3.6l-8-8.18Z"/><path d="M511.8,579l-16.43-13.83,2.72-3.23,16.63,2.52-11-9.24,2.6-3.08L522.78,566l-2.8,3.33-16.29-2.4,10.71,9Z"/><path d="M162.6,600.86l7.84-12,5.31,3.47a8.44,8.44,0,0,1,2.23,1.92,3.18,3.18,0,0,1,.59,2,4.07,4.07,0,0,1-.68,2.13,3.59,3.59,0,0,1-2.23,1.61,5,5,0,0,1-3.28-.56,4.91,4.91,0,0,1,.57,1.22,9.85,9.85,0,0,1,.27,2.45l0,4.62-2-1.3,0-3.53q0-1.53-.06-2.4a4.29,4.29,0,0,0-.28-1.33,2.86,2.86,0,0,0-.51-.79,5.76,5.76,0,0,0-.85-.63l-1.84-1.2-3.48,5.32Zm6-5.66,3.41,2.23a6.08,6.08,0,0,0,1.85.89,2.16,2.16,0,0,0,1.4-.11,2.32,2.32,0,0,0,1-.87,2.13,2.13,0,0,0,.3-1.8,3.45,3.45,0,0,0-1.59-1.82l-3.79-2.48Z"/><path d="M176.5,609.68l6.9-12.55,9.07,5-.81,1.48-7.41-4.08-2.11,3.84,6.94,3.82-.81,1.47-6.94-3.82L179,609.12l7.7,4.23-.81,1.48Z"/><path d="M190,616.89l6-13,4.91,2.25a13,13,0,0,1,1.92,1,4.31,4.31,0,0,1,1.33,1.34,3.5,3.5,0,0,1,.47,1.73,4.66,4.66,0,0,1-2.76,4.28q-1.58.67-4.34-.6l-3.34-1.53-2.43,5.29Zm4.85-6,3.37,1.54a3.92,3.92,0,0,0,2.65.47,2.44,2.44,0,0,0,1.5-1.43,2.58,2.58,0,0,0,.23-1.59,2.13,2.13,0,0,0-.74-1.27,8.14,8.14,0,0,0-1.55-.85L197,606.2Z"/><path d="M217.82,613l1.77.66-2.88,7.75a9.78,9.78,0,0,1-1.65,3,4.18,4.18,0,0,1-2.37,1.32,6.24,6.24,0,0,1-3.41-.42,6.87,6.87,0,0,1-2.84-1.8,4,4,0,0,1-1-2.52,9.55,9.55,0,0,1,.74-3.55l2.88-7.75,1.78.66-2.88,7.74a8,8,0,0,0-.63,2.7,2.63,2.63,0,0,0,.64,1.69,4.13,4.13,0,0,0,1.77,1.17,4,4,0,0,0,3.12.15q1.16-.58,2.1-3.1Z"/><path d="M219.42,628.65l4-13.74,5.15,1.51a6.64,6.64,0,0,1,2.4,1.16,3.38,3.38,0,0,1,1.11,1.72,3.53,3.53,0,0,1,0,2,3.25,3.25,0,0,1-1,1.52,3.55,3.55,0,0,1-1.81.83,3.74,3.74,0,0,1,1.55,1.81,3.48,3.48,0,0,1,.06,2.28,4.18,4.18,0,0,1-.93,1.68,3.61,3.61,0,0,1-1.38,1,4.37,4.37,0,0,1-1.7.24,9.52,9.52,0,0,1-2.28-.42Zm2.29-1.09,3.42,1a8.08,8.08,0,0,0,1.26.3,3.1,3.1,0,0,0,1.16-.07,2.07,2.07,0,0,0,.92-.56,2.49,2.49,0,0,0,.61-1.08,2.38,2.38,0,0,0,0-1.45,2.16,2.16,0,0,0-.86-1.12,7,7,0,0,0-1.94-.82l-3.18-.93Zm1.86-6.35,3,.87a6.9,6.9,0,0,0,1.78.35,2,2,0,0,0,1.24-.38,2,2,0,0,0,.7-1.1,2.3,2.3,0,0,0,0-1.3,1.73,1.73,0,0,0-.73-1,8.19,8.19,0,0,0-2-.8l-2.75-.8Z"/><path d="M234.21,632.78l3.17-14,1.85.42-2.8,12.31,6.88,1.56-.37,1.65Z"/><path d="M247.42,635.59,250,621.51l1.86.34-2.57,14.08Z"/><path d="M265.34,633.26l1.81.73a6.38,6.38,0,0,1-2.6,3.24,5.9,5.9,0,0,1-3.91.71,6.79,6.79,0,0,1-3.61-1.43,5.88,5.88,0,0,1-1.82-3,9.74,9.74,0,0,1-.24-3.9,8.43,8.43,0,0,1,1.37-3.75,5.86,5.86,0,0,1,2.75-2.18,7.11,7.11,0,0,1,3.56-.4,5.87,5.87,0,0,1,3.44,1.56,5.68,5.68,0,0,1,1.61,3.32l-1.91.19a4.43,4.43,0,0,0-1.13-2.45,3.85,3.85,0,0,0-2.27-1,4.63,4.63,0,0,0-2.84.42,4.18,4.18,0,0,0-1.83,1.9,8.53,8.53,0,0,0-.81,2.66,8.73,8.73,0,0,0,.1,3.23,4,4,0,0,0,1.37,2.24,4.65,4.65,0,0,0,2.32,1,4.07,4.07,0,0,0,2.79-.55A4.69,4.69,0,0,0,265.34,633.26Z"/><path d="M278.13,632.51a7.78,7.78,0,0,1,2.15-5.49,6.51,6.51,0,0,1,5-1.8,6.86,6.86,0,0,1,3.53,1.1,6.2,6.2,0,0,1,2.31,2.74,8.58,8.58,0,0,1,.67,3.88,8.44,8.44,0,0,1-1,3.85,6,6,0,0,1-2.6,2.49,7.13,7.13,0,0,1-3.51.73,6.77,6.77,0,0,1-3.57-1.13,6.27,6.27,0,0,1-2.3-2.77A8,8,0,0,1,278.13,632.51Zm1.95.11a5.74,5.74,0,0,0,1.22,4.13,4.85,4.85,0,0,0,7,.28,6.08,6.08,0,0,0,1.56-4.2,7.33,7.33,0,0,0-.46-3.07,4.53,4.53,0,0,0-1.64-2.09,4.68,4.68,0,0,0-2.52-.83,4.85,4.85,0,0,0-3.52,1.23Q280.22,629.39,280.08,632.62Z"/><path d="M296,640.13l-.37-14.31,9.65-.25,0,1.69-7.76.2.11,4.43,6.72-.17,0,1.69-6.72.17.17,6.5Z"/><path d="M327.48,633.58l1.93.32a6.37,6.37,0,0,1-1.84,3.73,5.9,5.9,0,0,1-3.67,1.54,6.8,6.8,0,0,1-3.83-.62,5.9,5.9,0,0,1-2.43-2.54,9.73,9.73,0,0,1-1.07-3.76,8.44,8.44,0,0,1,.53-4,5.85,5.85,0,0,1,2.21-2.72,7.1,7.1,0,0,1,3.39-1.15,5.88,5.88,0,0,1,3.69.79,5.68,5.68,0,0,1,2.29,2.9l-1.82.59a4.41,4.41,0,0,0-1.63-2.15,3.85,3.85,0,0,0-2.43-.51,4.63,4.63,0,0,0-2.68,1,4.18,4.18,0,0,0-1.37,2.25,8.52,8.52,0,0,0-.22,2.78,8.74,8.74,0,0,0,.8,3.13,4,4,0,0,0,1.82,1.89,4.63,4.63,0,0,0,2.48.47,4.07,4.07,0,0,0,2.61-1.14A4.69,4.69,0,0,0,327.48,633.58Z"/><path d="M332.51,638.13,336,623.19l2-.28,7.78,13.37-2.14.3-2.25-4.06-5.93.83-1,4.51Zm3.28-6.39,4.81-.67-2-3.72q-.93-1.7-1.42-2.8a18.24,18.24,0,0,1-.39,2.81Z"/><path d="M349.21,635.7l-2.87-14,2.79-.57,5.35,9.25q.74,1.29,1.09,1.94.08-.81.29-2.4l1.36-10.45,2.5-.51,2.87,14-1.79.37-2.4-11.74-1.68,12.57-1.67.34-6.5-11.11L351,635.34Z"/><path d="M367.52,631.73l-3.8-13.8,10-2.75.45,1.63L366,619.05l1.17,4.23,7.64-2.1.45,1.62-7.64,2.1,1.3,4.7,8.47-2.34.45,1.63Z"/><path d="M382.29,627.5,377.58,614l6-2.09a8.49,8.49,0,0,1,2.88-.59,3.18,3.18,0,0,1,2,.76,4.06,4.06,0,0,1,1.27,1.84,3.6,3.6,0,0,1-.08,2.75,5,5,0,0,1-2.44,2.26,4.92,4.92,0,0,1,1.31.3,9.87,9.87,0,0,1,2.11,1.28l3.64,2.86-2.25.78-2.77-2.19q-1.21-.94-1.94-1.41a4.31,4.31,0,0,0-1.22-.59,2.83,2.83,0,0,0-.94-.07,5.68,5.68,0,0,0-1,.28l-2.07.72,2.1,6Zm-.85-8.18,3.85-1.34a6.14,6.14,0,0,0,1.83-.92,2.17,2.17,0,0,0,.77-1.18,2.34,2.34,0,0,0-.06-1.34,2.13,2.13,0,0,0-1.25-1.33,3.46,3.46,0,0,0-2.41.15l-4.28,1.49Z"/><path d="M394.43,615.78a7.78,7.78,0,0,1-.47-5.88,6.5,6.5,0,0,1,3.73-3.82,6.87,6.87,0,0,1,3.65-.56,6.19,6.19,0,0,1,3.28,1.45,8.57,8.57,0,0,1,2.3,3.19,8.44,8.44,0,0,1,.75,3.92,6,6,0,0,1-1.24,3.38,7.11,7.11,0,0,1-2.83,2.2,6.76,6.76,0,0,1-3.7.55,6.28,6.28,0,0,1-3.27-1.48A8.08,8.08,0,0,1,394.43,615.78Zm1.8-.75a5.73,5.73,0,0,0,2.9,3.18,4.86,4.86,0,0,0,6.42-2.81,6.08,6.08,0,0,0-.44-4.47,7.36,7.36,0,0,0-1.76-2.56,4.54,4.54,0,0,0-2.39-1.16,4.67,4.67,0,0,0-2.63.36,4.84,4.84,0,0,0-2.62,2.65Q394.94,612.06,396.23,615Z"/><path d="M410,608.88a7.78,7.78,0,0,1-.94-5.82,6.51,6.51,0,0,1,3.41-4.11,6.87,6.87,0,0,1,3.6-.85,6.17,6.17,0,0,1,3.39,1.19,8.58,8.58,0,0,1,2.55,3,8.44,8.44,0,0,1,1.06,3.85,6,6,0,0,1-1,3.47,7.11,7.11,0,0,1-2.65,2.42,6.77,6.77,0,0,1-3.65.84,6.29,6.29,0,0,1-3.38-1.22A8.09,8.09,0,0,1,410,608.88Zm1.74-.9a5.73,5.73,0,0,0,3.15,2.94,4.85,4.85,0,0,0,6.18-3.32,6.09,6.09,0,0,0-.79-4.41,7.35,7.35,0,0,0-2-2.41,4.55,4.55,0,0,0-2.48-1,4.69,4.69,0,0,0-2.59.57,4.84,4.84,0,0,0-2.4,2.85Q410.16,605.13,411.69,608Z"/><path d="M429.11,606.3l-7.73-12,1.64-1,12.4,5.4-6.07-9.46,1.53-1,7.73,12-1.64,1-12.4-5.41,6.07,9.47Z"/><path d="M8.93,82.36a35.28,35.28,0,0,1,4.43-3.83C15.79,76.74,18,76,19.86,76.18a6.34,6.34,0,0,1,4.59,2.75A6.94,6.94,0,0,1,26,84.06c-.28,2.34-1.87,4.6-4.27,6.36a10.43,10.43,0,0,1-2.1,1.29l5.61,7.61-2.45,1.81Zm9.2,7.35a10.17,10.17,0,0,0,2.17-1.3c3-2.18,3.7-4.95,1.77-7.57s-4.52-2.41-7.22-.42a12.83,12.83,0,0,0-2.16,1.9Z"/><path d="M34.06,83.58,36.49,91,34,92.88,26.4,69.13l3-2.18L49.84,81.16,47.22,83.1l-6.43-4.48Zm4.81-6.51L33,73c-1.34-.93-2.45-1.85-3.54-2.74l-.06,0c.55,1.33,1.09,2.72,1.58,4.14l2.19,6.86Z"/><path d="M41.08,58.31l14,19-2.45,1.81-14-19Z"/><path d="M69.76,66.48l-5.52-2.41c-2.17-.88-3.56-1.46-5-2.13l-.06,0c.27,1.49.49,2.9.73,5.29l.79,5.85L57.93,75.2,56.65,61.32,44.15,56,47,54l5.79,2.6c1.62.72,2.86,1.28,4.11,1.92l.08-.06c-.3-1.52-.46-2.75-.65-4.48l-.69-6.36,2.82-2.08,1,13.5,13.1,5.39Z"/><path d="M29.33,112.88a25.13,25.13,0,0,1,3.17-2.74,6.91,6.91,0,0,1,4.63-1.68,4.53,4.53,0,0,1,3.28,2,5,5,0,0,1,1.09,3.67,7,7,0,0,1-3,4.54,7.5,7.5,0,0,1-1.5.92L41,125l-1.75,1.29Zm6.57,5.25a7.29,7.29,0,0,0,1.55-.93c2.11-1.56,2.65-3.53,1.26-5.4s-3.22-1.72-5.16-.3A9.08,9.08,0,0,0,32,112.86Z"/><path d="M52.24,106.85,47,110.74l3.6,4.89,5.87-4.33,1.08,1.47-7.62,5.62-10-13.56,7.32-5.4,1.08,1.47L42.75,105l3.16,4.29,5.27-3.89Z"/><path d="M58.86,105.2l1.74,5.3-1.81,1.33-5.39-17,2.11-1.56,14.62,10.15-1.87,1.38-4.59-3.2Zm3.44-4.65-4.2-2.92c-1-.66-1.75-1.32-2.53-2l0,0c.39,1,.78,1.94,1.13,3l1.56,4.9Z"/><path d="M81,94.8a10.68,10.68,0,0,1-3.09,3.3c-3.82,2.82-8.49,2.5-11.77-1.94-3.13-4.25-2.37-9.24,1.83-12.34A9.05,9.05,0,0,1,71.6,82l.63,1.74a7.93,7.93,0,0,0-3.15,1.46c-3.18,2.34-3.79,5.93-1.17,9.49,2.45,3.32,5.93,4,9.23,1.61a8.71,8.71,0,0,0,2.44-2.67Z"/><path d="M85.83,82.09,80.56,86l3.6,4.89L90,86.53,91.12,88l-7.62,5.62-10-13.56,7.32-5.4,1.08,1.47-5.57,4.11,3.16,4.28,5.27-3.89Z"/><path d="M515.28,28.56a35.3,35.3,0,0,1,5,3.1c2.42,1.79,3.78,3.66,4.16,5.51a6.34,6.34,0,0,1-1.27,5.2,7,7,0,0,1-4.46,3c-2.31.42-4.95-.43-7.34-2.2a10.53,10.53,0,0,1-1.85-1.62l-5.61,7.6-2.45-1.81Zm-4.31,11a10.24,10.24,0,0,0,1.88,1.69c3,2.18,5.82,2.08,7.75-.54s1-5-1.73-7a12.84,12.84,0,0,0-2.45-1.51Z"/><path d="M521.52,52.92l-6.38,4.51-2.53-1.87,20.46-14.22,3,2.18L528.49,67.3l-2.62-1.93,2.38-7.47Zm7.64,2.68,2.18-6.83c.49-1.55,1-2.88,1.57-4.19l-.06,0c-1.11.92-2.28,1.85-3.49,2.73l-5.91,4.12Z"/><path d="M545.18,53.52l-5.77-4.26L541,47.17,555,57.55l-1.54,2.08-5.8-4.28-12.48,16.9-2.48-1.83Z"/><path d="M556.92,59.36a31.67,31.67,0,0,1,5,3.08c2.62,1.93,4,3.66,4.35,5.6a5.88,5.88,0,0,1-1.17,4.71,6.19,6.19,0,0,1-7.15,2.2l-.06.08c1.09,1.59,1,3.58,0,5.89a37.62,37.62,0,0,0-2.38,6.29l-2.53-1.87A31.55,31.55,0,0,1,555,79.87c1.37-3,1.09-4.77-1.08-6.5l-2.31-1.71-6.07,8.22-2.45-1.81ZM553,69.81l2.51,1.85c2.62,1.93,5.34,1.72,6.94-.44,1.81-2.45.83-4.83-1.74-6.77a12.49,12.49,0,0,0-2.59-1.56Z"/><path d="M574.71,72.1l-14,19-2.45-1.81,14-19Z"/><path d="M581.37,92.6,574,87.15,568.94,94l8.22,6.07-1.52,2.06L565,94.24l14-19,10.25,7.57-1.52,2.06-7.8-5.76-4.43,6,7.38,5.45Z"/><path d="M476.08,45l7.3,5.39-1.08,1.47-5.55-4.1-3.33,4.5L478.55,56l-1.07,1.45-5.13-3.78-4.53,6.13-1.75-1.29Z"/><path d="M479.64,61.93l-4.56,3.22-1.81-1.34,14.61-10.15L490,55.23l-5.38,17-1.87-1.38,1.7-5.33Zm5.45,1.91L486.65,59c.35-1.11.74-2.06,1.12-3l0,0c-.79.66-1.62,1.32-2.49,1.95L481,60.83Z"/><path d="M496.54,62.36l-4.12-3,1.1-1.49,10,7.41-1.1,1.49-4.14-3.06L489.4,75.73l-1.77-1.31Z"/><path d="M506.81,67.64l-4.19,5.67,6.55,4.84,4.19-5.67,1.77,1.31-10,13.55L503.36,86l4.69-6.35-6.55-4.84-4.69,6.35-1.75-1.29,10-13.55Z"/><path d="M519.88,88.41l-5.27-3.89L511,89.41l5.87,4.33-1.08,1.47-7.62-5.63,10-13.55,7.32,5.4-1.08,1.47-5.57-4.11-3.16,4.28L520.95,87Z"/><path d="M527.94,83.52a22.64,22.64,0,0,1,3.57,2.2c1.87,1.38,2.82,2.61,3.1,4a4.2,4.2,0,0,1-.84,3.36,4.42,4.42,0,0,1-5.11,1.57l0,.06c.78,1.13.69,2.56,0,4.2a26.63,26.63,0,0,0-1.7,4.49l-1.81-1.34a22.52,22.52,0,0,1,1.49-3.91c1-2.17.77-3.4-.77-4.64l-1.65-1.22-4.34,5.87-1.75-1.29ZM525.13,91l1.79,1.32c1.87,1.38,3.81,1.23,5-.32,1.29-1.75.59-3.45-1.24-4.83A8.91,8.91,0,0,0,528.78,86Z"/><path d="M538.89,91.33l1.75,1.29-8.92,12.08,5.79,4.28-1.08,1.47-7.54-5.57Z"/><path d="M543.72,109.25l-4.56,3.22-1.81-1.34L552,101l2.11,1.56-5.38,17-1.87-1.38,1.7-5.33Zm5.45,1.91,1.55-4.88c.35-1.11.74-2.06,1.12-3l0,0c-.79.66-1.62,1.32-2.49,1.95l-4.22,2.94Z"/><path d="M550.68,121l10-13.55,1.91,1.41-.72,10.06a47.58,47.58,0,0,1-.82,6.2h.06c1.17-1.93,2.35-3.61,3.91-5.72l4.19-5.67,1.65,1.22-10,13.55-1.77-1.31.77-10.05a53.44,53.44,0,0,1,.81-6.39l-.08,0c-1.16,1.78-2.32,3.44-4,5.69l-4.28,5.79Z"/><path d="M573.79,117.38a31.31,31.31,0,0,1,3.93,2.46c2.51,1.86,3.87,3.76,4.24,5.74a7.76,7.76,0,0,1-1.68,6.28,8.91,8.91,0,0,1-5.84,3.83c-2.2.33-4.8-.53-7.43-2.47a35.38,35.38,0,0,1-3.06-2.51Zm-7.1,13.28a13.72,13.72,0,0,0,1.7,1.41c3.74,2.76,7.31,2.17,10-1.49,2.38-3.18,2.07-6.55-1.63-9.28a12.32,12.32,0,0,0-2.18-1.33Z"/><path d="M249.24,4.27h-7.18V1.68h17.47V4.27h-7.21v21h-3.08Z"/><path d="M262.15,2A31.73,31.73,0,0,1,268,1.5c3.26,0,5.36.6,6.83,1.92a5.88,5.88,0,0,1,1.86,4.48,6.19,6.19,0,0,1-4.45,6V14c1.82.63,2.9,2.31,3.46,4.76a37.59,37.59,0,0,0,1.82,6.48h-3.15a31.5,31.5,0,0,1-1.58-5.64c-.7-3.26-2-4.48-4.73-4.59H265.2V25.27h-3V2Zm3,10.75h3.11c3.26,0,5.32-1.78,5.32-4.48,0-3-2.21-4.37-5.43-4.41a12.53,12.53,0,0,0-3,.28Z"/><path d="M285,17.85l-2.45,7.42h-3.15l8-23.59h3.67l8.05,23.59h-3.26l-2.52-7.42Zm7.74-2.38L290.4,8.68c-.52-1.54-.87-2.94-1.23-4.3h-.07c-.35,1.4-.73,2.84-1.19,4.27l-2.31,6.83Z"/><path d="M305.9,25.27,298.2,1.68h3.29l3.68,11.62c1,3.18,1.89,6.06,2.52,8.82h.07c.67-2.73,1.65-5.71,2.7-8.79l4-11.66h3.26l-8.44,23.59Z"/><path d="M322.07,17.85l-2.45,7.42h-3.15l8-23.59h3.68l8.05,23.59H333l-2.52-7.42Zm7.74-2.38L327.5,8.68c-.52-1.54-.87-2.94-1.23-4.3h-.07c-.35,1.4-.73,2.84-1.19,4.27l-2.31,6.83Z"/><path d="M342.72,1.67V25.27h-3V1.67Z"/><path d="M348,1.67h3v21h10.08v2.56H348Z"/><path d="M274,55.27l-4.27-16.85H272l2,8.52c.5,2.1,1,4.2,1.25,5.82h0c.27-1.67.8-3.67,1.38-5.85l2.25-8.5h2.27l2,8.55c.48,2,.92,4,1.17,5.77h0c.35-1.85.83-3.72,1.35-5.82l2.22-8.5h2.23l-4.77,16.85h-2.27l-2.12-8.77A50.68,50.68,0,0,1,280,41h0a52.63,52.63,0,0,1-1.3,5.5l-2.4,8.77H274Z"/><path d="M306.76,46.67c0,5.8-3.52,8.87-7.82,8.87s-7.57-3.45-7.57-8.55c0-5.35,3.32-8.85,7.82-8.85S306.76,41.67,306.76,46.67Zm-13.07.28c0,3.6,2,6.82,5.37,6.82s5.4-3.17,5.4-7c0-3.35-1.75-6.85-5.37-6.85S293.69,43.25,293.69,46.94Z"/><path d="M309.59,38.65a22.65,22.65,0,0,1,4.17-.35c2.32,0,3.82.42,4.87,1.38a4.19,4.19,0,0,1,1.32,3.2,4.42,4.42,0,0,1-3.17,4.3v.08c1.3.45,2.07,1.65,2.48,3.4a26.7,26.7,0,0,0,1.3,4.62h-2.25a22.48,22.48,0,0,1-1.12-4c-.5-2.33-1.4-3.2-3.37-3.27h-2v7.3h-2.17V38.65Zm2.17,7.67H314c2.32,0,3.8-1.28,3.8-3.2,0-2.17-1.57-3.12-3.87-3.15a8.93,8.93,0,0,0-2.15.2v6.15Z"/><path d="M323,38.42h2.17v8.12h.08c.45-.65.9-1.25,1.32-1.8l5.15-6.32h2.7l-6.1,7.15,6.57,9.7h-2.58L326.81,47l-1.6,1.85v6.42H323V38.42Z"/></svg>