<svg xmlns="http://www.w3.org/2000/svg" viewBox="0 0 340 300"><title>Cyprus</title><path d="M168.3,242.6c-42.1-28.3-78.7-69-79.4-188.35,47.2,21.2,111.5,20.8,158.8,0C247,173.6,210.3,214.3,168.3,242.6Z" style="fill:#ffcb04;stroke:#000;stroke-width:2.346400022506714px"/><path d="M171.1,141.2c15.9-13.1,31.7-31.5,37.6-63.85.2-1.6,4.2-1.6,4.9-.5.7,1.3,2,3.8,1,6.7,3-.9,4.3.2,3.1,6.9,4.2-.1,2.7,5.2.5,11.85,2.7.1,2.8,3.2-1.2,10.3,6.3,1.5-4.1,11.9-6,13.4,5.9-.1-6.2,10.3-16.2,18.2" style="fill:#fff;stroke:#000;stroke-linecap:round;stroke-linejoin:round;stroke-width:2.346400022506714px"/><path d="M172.1,142c-10-2.3-37.1-38.6-48.2-56.65a6.08,6.08,0,0,0-3-2.4c-1.4-.4-6.2-.9-2.7,8.3-5.9.9-4.7,5.3-2,10.25-4.9,3.4-2.6,6.7,0,10.1-2.4,3.4-1.3,6.5,1.1,9.5-.8,2.3-1.4,4.7,2.1,8.3-.3,2.2-1.7,4.4,3,7.4-1.8,4.3,0,5.7,2.3,6.8.2,6.7,3,7.6,5.9,7.7-.3,2.1.5,4.1,4.2,3.8.5,2.4,1.4,4.5,4.8,4.5,4.6.8,7.8,2.8,9.1,5.9l-8,11c-1.4,1.6.9,7,5.4,5.9,1.3,2.3,2.2,5.1,7.4,3.3,2.5,3.5,5.4,4.4,8.6,1.5,2.3,2.7,5.6,3,7.4,0,2.7,1.1,6.5,1.2,7.4-2.1,3.1.4,7.2.9,8.3-3.8,3.3,1.5,6.3.7,6.2-4.5l-15.8-17.5a7,7,0,0,0,4.7-1.3,9.21,9.21,0,0,0,4.9-1.9,8.37,8.37,0,0,0,5.4-2.1h15.6s-8.3-11.7-13.9-11.8c-6.9-.4-11.8,1.7-20.2-.2Z" style="fill:#fff;stroke:#000;stroke-linecap:round;stroke-linejoin:round;stroke-width:2.346400022506714px"/><path d="M193,147.58a1.84,1.84,0,1,1-1.84-1.84A1.84,1.84,0,0,1,193,147.58Z"/><path d="M203.44,150.43l1.41-1.88c5.16,0,10-.18,8.56-3.46,3.58-.29,7.92-.12,5.87-3.17,3.52-.29,6.57-1.11,6.51-4.52,9.39-.76,3.81-7.86-1.29-5.46-1.58-5-4.52-2.29-7.51,1.41-2.05-3.17-4-.41-6.1,3.34-1.82-2.76-3.64-.23-5.46,3.34-4.4-3-7.86,6.75-7.22,8.62Z" style="fill:#10673c;stroke:#000;stroke-linecap:round;stroke-linejoin:round;stroke-width:3px"/><path d="M201,154.59l-3.81,7c-2.64,1.41-3.81.47-4.11-1.88l2.76-5.22Z" style="fill:#10673c;stroke:#000;stroke-linecap:round;stroke-linejoin:round;stroke-width:3px"/><path d="M213.47,145c-2.35-1.76-4.16-2.93-7.33-2.11" style="stroke:#000;stroke-linecap:round;stroke-linejoin:round;stroke-width:3px"/><path d="M219.28,141.75c-2.52-2-4.52-2.76-7.63-2" style="stroke:#000;stroke-linecap:round;stroke-linejoin:round;stroke-width:3px"/><path d="M205.43,139.93c-.06,2.41.35,7.22-1.82,9.56" style="stroke:#000;stroke-linecap:round;stroke-linejoin:round;stroke-width:3px"/><path d="M211.06,136.64c.35,2.17,1.35,3.4-.12,6.69" style="stroke:#000;stroke-linecap:round;stroke-linejoin:round;stroke-width:3px"/><path d="M217,133.48c.53,2,1,3.28-.82,6.45" style="stroke:#000;stroke-linecap:round;stroke-linejoin:round;stroke-width:3px"/><path d="M225.85,137.17c-2.93-.82-4.69-2.58-8.39-1.41" style="stroke:#000;stroke-linecap:round;stroke-linejoin:round;stroke-width:3px"/><path d="M224.62,132.19c.06,1.76,0,2.76-2.64,3.46" style="stroke:#000;stroke-linecap:round;stroke-linejoin:round;stroke-width:3px"/><path d="M250.84,3.43c.7,11.2,2.93,21.76,20.65,29.45l1.94-3.17C274.65,13.28,268.08,5.71,250.84,3.43Z" style="fill:#00a750"/><path d="M250,2.55c-2.41,15.9,9.56,29.62,26.69,34C277.23,13.69,273,5,250,2.55Zm1.41,2.23c16.48,3.58,23.29,8.51,22.06,24.93l-7.86-10.62,5.87,13.79C255.65,23.84,252.13,15.92,251.36,4.78Z" style="fill:#251c20"/><path d="M264.21,30.76c4.63,9.62,10.09,18.83,26.4,26.57l.29-2.58C285.86,40.73,278.11,33.81,264.21,30.76Z" style="fill:#00a750"/><path d="M263.21,29.88c1.82,15.25,17.07,28,32.61,31C287.67,42.91,281.34,30.76,263.21,29.88Zm1,.88c13.9,3.05,21.65,10,26.69,24L281,45.13l9.5,12.2c-16.25-7.74-21.7-17-26.34-26.57Z" style="fill:#251c20"/><path d="M271.48,21c4.87,11.15,10.73,21.82,28,30.8l.35-3.05C294.54,32.46,286.27,24.49,271.48,21Z" style="fill:#00a750"/><path d="M270.43,20c1.88,16.78,20.88,30,34.67,35.84C299.93,35.34,292.31,21,270.43,20Zm1.06,1c14.78,3.52,23.05,11.5,28.39,27.75l-10.5-11.09,10.09,14.14C282.22,42.79,276.35,32.11,271.48,21Z" style="fill:#251c20"/><path d="M297.35,41.44c13.37-1.23,29.45,32.44,22.53,37.13l-9.62-19.24,7.86,21.18c-4.22-.41-5.75-5-6-6.51-.18,3.87-.06,7.33-3.87,9.27L294,70.18l13.61,16.89c-13.9-5.63-23.82-15.49-28.92-32.56,2.46-.35,5-.41,11,2.11l7.92-8.1c-.94-2.58-1.7-5-.29-7.1Z" style="fill:#00a750"/><path d="M275.36,52.23c4.22,12.44,6.8,26,27.86,35.55,9,3.34,17.13.88,22.17-10-5.75-32.2-22.94-39-29.27-38-.41,3.4-.53,2.76-.12,8l-8.27,6.22C285.5,53.41,279.64,52.82,275.36,52.23Zm3.34,2.29c2.46-.35,5-.41,11,2.17l7.92-8.15c-.94-2.58-1.7-5-.23-7.1,13.32-1.23,29.39,32.44,22.47,37.13l-9.62-19.24,7.86,21.18c-4.22-.41-5.75-5-6-6.51-.18,3.87-.06,7.33-3.87,9.27L294,70.12l13.61,17c-14-5.63-23.82-15.49-28.92-32.56Z" style="fill:#251c20"/><path d="M287.85,46.72c4.22,12.26,9.27,24,24.11,33.85l.29-3.28c-4.58-17.89-11.67-26.69-24.4-30.56Z" style="fill:#00a750"/><path d="M287,45.66c2.41,16.72,17.95,33,29.8,39.36C309.26,62.2,302.46,48.18,287,45.66Zm.88,1.06c12.73,3.87,19.83,12.67,24.4,30.56l-9-12.26,8.62,15.54C297.12,70.71,292.07,59,287.85,46.72Z" style="fill:#251c20"/><path d="M317.47,75.58c15,3.11,21.23,45.29,12.14,48l-4-24.23L327,125.15c-4.46-1.82-4.58-7.33-4.4-9.09-1.47,4.11-2.58,8-7.33,8.8l-11.09-19.06,9.15,23c-13.26-10.79-20.71-24.87-20.59-45.17,2.82.47,5.57,1.23,11.32,6l11.38-6.16C315.3,80.33,315.3,77.4,317.47,75.58Z" style="fill:#00a750"/><path d="M289.9,80c.41,14.9-1.29,30.56,18.42,48,8.74,6.63,18.36,6.75,27.57-3.46,4.52-37.07-12-50.15-19.18-51.27-1.58,3.58-1.47,2.82-2.76,8.62l-11.15,4C300.52,84.67,294.36,82.09,289.9,80Zm2.87,3.58c2.82.47,5.57,1.23,11.32,6l11.38-6.22c-.18-3.11-.18-6,2.05-7.86,15,3.11,21.18,45.29,12.08,48l-4-24.23L327,125.15c-4.46-1.82-4.58-7.33-4.4-9.09-1.47,4.11-2.58,8-7.33,8.8l-11.09-19.12,9.15,23.05c-13.32-10.79-20.71-24.87-20.59-45.17Z" style="fill:#251c20"/><path d="M305.39,78.16c.47,14.84,2,29.27,14.9,45l1.41-3.52c1-21-3.75-33-16.31-41.47Z" style="fill:#00a750"/><path d="M304.74,76.69c-2.93,19.06,8.51,42,19.3,53C323.52,102.21,320.82,84.67,304.74,76.69Zm.65,1.47c12.55,8.51,17.3,20.47,16.31,41.47L316,103.32l4.22,19.83C307.38,107.43,305.86,93,305.39,78.16Z" style="fill:#251c20"/><path d="M328.27,122.27c12.61,8.27,5.92,54.08-3.11,53.91l3.4-26.46-6.16,27.16c-3.46-3.34-2-9.09-1.29-10.85-2.52,3.75-4.63,7.39-9.21,6.63l-4.46-23.46L309,176.12c-8.8-15.6-11.44-32.73-5.4-53.79,2.41,1.41,4.69,3.17,8.45,10l12-2.58C324.87,126.5,325.74,123.45,328.27,122.27Z" style="fill:#00a750"/><path d="M302.11,117.64c-4,15.66-10.15,31.32,2.58,56.08,5.92,9.8,14.61,13.14,25.87,5.63,14.9-37,3.87-56-2.35-59.66-2.46,3.17-2.17,2.46-5,8l-11.2.47c-1.64-2.17-6.45-6.86-9.85-10.56Zm1.53,4.69c2.41,1.41,4.69,3.17,8.39,10.09l12.08-2.64c.76-3.28,1.64-6.34,4.16-7.45,12.61,8.21,5.92,54-3.11,53.85l3.4-26.46-6.16,27.16c-3.46-3.34-2-9.09-1.29-10.85-2.52,3.75-4.63,7.39-9.21,6.63l-4.4-23.52,1.53,27c-8.86-15.66-11.44-32.73-5.4-53.79Z" style="fill:#251c20"/><path d="M316.59,120.92c-3.93,15.54-6.75,31,.35,51.68l2.29-3.17C326.21,148,325.45,133.95,316.59,120.92Z" style="fill:#00a750"/><path d="M316.42,119.22c-8.21,18.77-4.52,46.4,2,61.36C325.92,152,328.56,132.89,316.42,119.22Zm.18,1.7c8.86,13,9.62,27,2.64,48.51l-.41-18.83-1.94,21.94C309.85,152,312.66,136.47,316.59,120.92Z" style="fill:#251c20"/><path d="M325.28,177.76c9,12.44-14.72,47.81-23.35,43.76l13.26-20.65-16.19,20c-2.05-4.34,1.58-8.51,2.87-9.68-3.81,2.11-7.27,4.16-11.32,1.58l4.58-21.53-8.68,23.17c-2.52-16.89,1.35-32.32,15.13-47.28,1.82,2.23,3.28,4.69,4.34,12l12.55,3.11c2-2.46,3.93-4.63,6.8-4.52Z" style="fill:#00a750"/><path d="M301.87,162.57c-9.74,11.32-21.53,21.76-18.71,47.93,2.05,10.79,9.09,17.3,22.82,16,28.22-24.4,24.81-45.11,20.24-50.86-3.58,1.58-3,1.11-7.86,4.58l-11-4.52c-.76-2.52-3.64-8.56-5.51-13.08Zm-.29,4.58c1.82,2.23,3.28,4.69,4.28,12.08l12.61,3.05c2-2.46,3.93-4.63,6.8-4.46,9,12.38-14.72,47.75-23.35,43.7l13.26-20.65-16.19,20c-2.05-4.34,1.58-8.51,2.87-9.68-3.81,2.11-7.27,4.16-11.32,1.58l4.63-21.59-8.74,23.23c-2.58-17,1.35-32.32,15.13-47.28Z" style="fill:#251c20"/><path d="M314.6,171.61c-9.62,11.26-18.24,23-19.24,43.29l3.4-1.64c14.84-14.9,19.36-26.92,15.84-41.65Z" style="fill:#00a750"/><path d="M315.07,170.08c-15,12.14-21.88,36.78-21.29,52.15C311.84,201.58,321.58,186.8,315.07,170.08Zm-.47,1.53c3.52,14.72-1,26.75-15.84,41.65l6.75-15.9-10.15,17.48c1-20.24,9.62-32,19.24-43.23Z" style="fill:#251c20"/><path d="M304.28,225c4.22,15.25-31.38,41.12-38.25,34.08l20.24-15.37-22.88,13.61c-.41-5.28,4.58-7.74,6.28-8.39-4.46.59-8.56,1.41-11.56-2.58l12.2-19.18-16.78,19.3c3.64-17.25,13-30.74,31.68-40.24.94,2.76,1.53,5.69-.12,13.2l11,7.45c2.76-1.64,5.46-3,8.15-1.88Z" style="fill:#00a750"/><path d="M287.15,201.93c-13.43,7.45-28.63,13.26-35.31,39.65-1.94,11.09,2.52,19.89,16.25,23.41,36.13-13.26,40.3-34.49,37.89-41.71-4,.29-3.28.06-9.21,1.58l-9-8.27c.18-2.76-.41-9.62-.65-14.67Zm-1.94,4.34c.94,2.76,1.53,5.69-.18,13.2l11.09,7.45c2.76-1.64,5.46-3,8.21-1.82,4.16,15.19-31.44,41.06-38.3,34l20.24-15.37-22.88,13.61c-.41-5.28,4.58-7.74,6.28-8.39-4.46.59-8.56,1.41-11.56-2.58l12.26-19.18-16.84,19.3c3.64-17.3,13-30.74,31.68-40.24Z" style="fill:#251c20"/><path d="M296.18,215.25c-13.32,7.39-25.87,15.66-34.14,34.9l3.87-.35C285.62,240.77,294.36,230.73,296.18,215.25Z" style="fill:#00a750"/><path d="M297.24,214c-18.89,6.34-34.43,27.63-39.42,42.82C282.75,243.23,297.53,232.44,297.24,214Zm-1.06,1.29c-1.82,15.49-10.56,25.52-30.27,34.55l12.26-13L262,250.09C270.31,230.91,282.86,222.64,296.18,215.25Z" style="fill:#251c20"/><path d="M267.44,259.13c1.47,15.25-36.13,34-41.41,26.4l21.47-11.15-23.64,9.39c.41-5.28,5.51-7,7.22-7-4.28,0-8.21,0-10.38-4.69l14.55-15.84L216.4,271.44c6.22-15.84,17.19-27,36.25-33.08.41,2.82.47,5.69-2.29,12.55l9.09,8.8c2.87-1.17,5.63-1.76,8-.59Z" style="fill:#00a750"/><path d="M255.18,234.55c-13.84,4.93-29,8-39.6,32.2-3.64,10-.88,19.36,11.38,25.22,36-7,43.41-27,42.35-34-3.81-.59-3.11-.59-8.92,0l-7-9.33c.59-2.58,1.17-9.21,1.82-14.08Zm-2.52,3.81c.41,2.82.47,5.69-2.35,12.55l9.15,8.8c2.87-1.17,5.63-1.76,8,0,1.47,14.67-36.13,33.44-41.41,25.81l21.47-11.15-23.64,9.39c.41-5.28,5.51-7,7.22-7-4.28,0-8.21,0-10.38-4.69l14.61-15.84L216.4,271.44c6.22-15.84,17.19-27,36.25-33.08Z" style="fill:#251c20"/><path d="M261.45,248.68c-13.73,5.16-26.81,11-37.72,28h3.7C247.38,271.44,257.17,263.23,261.45,248.68Z" style="fill:#00a750"/><path d="M262.63,247.63c-18.71,3-36.78,20.88-43.88,34.37C244.27,273.2,259.87,265.58,262.63,247.63Zm-1.17,1.06c-4.28,14.55-14.08,22.76-34,28L241,266.16l-17.3,10.56C234.65,259.71,247.73,253.85,261.45,248.68Z" style="fill:#251c20"/><path d="M89.81,3.43c-.7,11.2-2.93,21.76-20.65,29.45l-1.94-3.17C66,13.28,72.57,5.71,89.81,3.43Z" style="fill:#00a750"/><path d="M90.69,2.55c2.41,15.9-9.56,29.62-26.69,34C63.42,13.69,67.7,5,90.69,2.55ZM89.29,4.78C72.8,8.35,66,13.28,67.23,29.71l7.86-10.62L69.22,32.87C85,23.84,88.52,15.92,89.29,4.78Z" style="fill:#251c20"/><path d="M76,30.76c-4.63,9.62-10.09,18.83-26.34,26.57l-.35-2.58C54.33,40.73,62.07,33.81,76,30.76Z" style="fill:#00a750"/><path d="M77,29.88c-1.82,15.25-17.07,28-32.61,31C52.57,42.91,58.84,30.76,77,29.88Zm-1,.88c-13.9,3.05-21.65,10-26.69,24l9.85-9.62-9.44,12.2C65.88,49.59,71.34,40.38,76,30.76Z" style="fill:#251c20"/><path d="M68.76,21c-4.93,11.15-10.73,21.82-28,30.8l-.35-3.05C45.7,32.46,54,24.49,68.76,21Z" style="fill:#00a750"/><path d="M69.81,20C67.93,36.75,48.93,50,35.14,55.81,40.31,35.34,47.87,21,69.81,20Zm-1.06,1C54,24.49,45.7,32.46,40.36,48.71l10.5-11.09L40.77,51.76C58,42.79,63.83,32.11,68.76,21Z" style="fill:#251c20"/><path d="M42.65,41.44C29.28,40.21,13.2,73.88,20.13,78.57l9.62-19.24L21.89,80.51c4.22-.41,5.75-5,6-6.51.18,3.87.06,7.33,3.87,9.27L46,70.18,32.39,87.08c13.9-5.63,23.82-15.49,28.92-32.56-2.46-.35-5-.41-11,2.11l-7.92-8.1C43.3,46,44.06,43.49,42.65,41.44Z" style="fill:#00a750"/><path d="M64.65,52.23c-4.22,12.44-6.8,26-27.86,35.55-9,3.34-17.13.88-22.17-10,5.75-32.2,22.94-39,29.27-38,.41,3.4.53,2.76.12,8l8.27,6.22C54.5,53.41,60.37,52.82,64.65,52.23Zm-3.34,2.29c-2.46-.35-5-.41-11,2.17l-7.92-8.15c.94-2.58,1.7-5,.23-7.1C29.28,40.21,13.2,73.88,20.13,78.57l9.62-19.24L21.89,80.51c4.22-.41,5.75-5,6-6.51.18,3.87.06,7.33,3.87,9.27L46,70.12l-13.61,17C46.35,81.44,56.2,71.59,61.31,54.52Z" style="fill:#251c20"/><path d="M52.15,46.72C47.93,59,42.89,70.71,28,80.56l-.29-3.28C32.33,59.39,39.43,50.59,52.15,46.72Z" style="fill:#00a750"/><path d="M53,45.66c-2.41,16.72-17.95,33-29.8,39.36C30.74,62.2,37.55,48.18,53,45.66Zm-.88,1.06c-12.73,3.87-19.83,12.67-24.4,30.56l9-12.26L28.1,80.56C42.89,70.71,47.93,59,52.15,46.72Z" style="fill:#251c20"/><path d="M22.47,75.58c-15,3.11-21.19,45.29-12.09,48l4.05-24.23L13,125.15c4.4-1.82,4.58-7.33,4.4-9.09,1.41,4.11,2.52,8,7.33,8.8l11.09-19.06-9.15,23C39.84,118,47.34,103.91,47.17,83.62c-2.82.47-5.57,1.23-11.26,6L24.53,83.44C24.7,80.33,24.7,77.4,22.47,75.58Z" style="fill:#00a750"/><path d="M50,80c-.41,14.9,1.35,30.56-18.36,48-8.8,6.63-18.42,6.75-27.59-3.46C-.43,87.55,16,74.46,23.24,73.35c1.58,3.58,1.47,2.82,2.82,8.62l11.09,4C39.43,84.67,45.58,82.09,50,80Zm-2.87,3.58c-2.82.47-5.57,1.23-11.26,6L24.53,83.44c.18-3.11.18-6-2.11-7.86-14.92,3.11-21.14,45.29-12,48l4.05-24.23L13,125.15c4.4-1.82,4.58-7.33,4.4-9.09,1.41,4.11,2.52,8,7.33,8.8l11-19.12-9.09,23.05C39.89,118,47.34,103.91,47.17,83.62Z" style="fill:#251c20"/><path d="M34.56,78.16c-.41,14.84-2,29.27-14.84,45l-1.47-3.52C17.25,98.63,22.06,86.67,34.56,78.16Z" style="fill:#00a750"/><path d="M35.2,76.69c3,19.06-8.51,42-19.24,53C16.43,102.21,19.19,84.67,35.2,76.69Zm-.65,1.47c-12.49,8.51-17.3,20.47-16.31,41.47l5.69-16.31-4.22,19.83C32.56,107.43,34.15,93,34.56,78.16Z" style="fill:#251c20"/><path d="M11.74,122.27c-12.61,8.27-5.95,54.08,3.1,53.91l-3.43-26.46,6.18,27.16c3.46-3.34,2-9.09,1.29-10.85,2.52,3.75,4.63,7.39,9.15,6.63L32.5,149.2,31,176.12c8.8-15.6,11.44-32.73,5.4-53.79-2.41,1.41-4.69,3.17-8.45,10l-12-2.58C15.14,126.5,14.26,123.45,11.74,122.27Z" style="fill:#00a750"/><path d="M37.9,117.64c4,15.66,10.15,31.32-2.58,56.08-6,9.8-14.61,13.14-25.89,5.63-14.88-37-3.84-56,2.35-59.66,2.48,3.17,2.19,2.46,5,8l11.2.47C29.69,126,34.5,121.33,37.9,117.64Zm-1.53,4.69c-2.41,1.41-4.69,3.17-8.45,10.09l-12-2.64c-.76-3.28-1.64-6.34-4.21-7.45-12.56,8.21-5.9,54,3.15,53.85l-3.43-26.46,6.18,27.16c3.46-3.34,2-9.09,1.29-10.85,2.52,3.75,4.63,7.39,9.15,6.63l4.46-23.52-1.53,27C39.84,160.46,42.42,143.39,36.38,122.33Z" style="fill:#251c20"/><path d="M23.41,120.92c3.87,15.54,6.69,31-.35,51.68l-2.29-3.17C13.79,148,14.55,133.95,23.41,120.92Z" style="fill:#00a750"/><path d="M23.53,119.22c8.27,18.77,4.58,46.4-1.94,61.36C14.08,152,11.41,132.89,23.53,119.22Zm-.12,1.7c-8.86,13-9.62,27-2.64,48.51l.41-18.83,1.94,21.94C30.1,152,27.28,136.47,23.41,120.92Z" style="fill:#251c20"/><path d="M14.67,177.76c-9,12.44,14.72,47.81,23.35,43.76L24.7,200.88l16.25,20c2-4.34-1.58-8.51-2.87-9.68,3.81,2.11,7.22,4.16,11.32,1.58l-4.58-21.53,8.68,23.17c2.52-16.89-1.35-32.32-15.13-47.28-1.82,2.23-3.28,4.69-4.34,12l-12.55,3.11c-2-2.46-3.93-4.63-6.8-4.52Z" style="fill:#00a750"/><path d="M38.08,162.57c9.74,11.32,21.53,21.76,18.71,47.93-2.05,10.79-9.09,17.3-22.82,16C5.74,202,9.14,181.34,13.73,175.59c3.58,1.58,3,1.11,7.86,4.58l11-4.52C33.32,173.13,36.2,167.09,38.08,162.57Zm.29,4.58c-1.82,2.23-3.28,4.69-4.28,12.08l-12.61,3.05c-2-2.46-3.93-4.63-6.8-4.46-9,12.38,14.72,47.75,23.35,43.7L24.7,200.88l16.25,20c2-4.34-1.58-8.51-2.87-9.68,3.81,2.11,7.22,4.16,11.32,1.58L44.76,191.2l8.74,23.23c2.58-17-1.35-32.32-15.13-47.28Z" style="fill:#251c20"/><path d="M25.35,171.61c9.62,11.26,18.18,23,19.24,43.29l-3.4-1.64c-14.84-14.9-19.36-26.92-15.84-41.65Z" style="fill:#00a750"/><path d="M24.88,170.08c15,12.14,21.88,36.78,21.29,52.15C28.1,201.58,18.37,186.8,24.88,170.08Zm.47,1.53c-3.52,14.72,1,26.75,15.84,41.65l-6.8-15.9,10.21,17.48c-1.06-20.24-9.62-32-19.24-43.23Z" style="fill:#251c20"/><path d="M35.67,225C31.45,240.3,67.11,266.16,74,259.13l-20.3-15.37,22.88,13.61c.41-5.28-4.52-7.74-6.22-8.39,4.46.59,8.51,1.41,11.5-2.58l-12.2-19.18,16.78,19.3c-3.64-17.25-13-30.74-31.68-40.24-.94,2.76-1.53,5.69.12,13.2l-11,7.45C41.07,225.28,38.37,223.93,35.67,225Z" style="fill:#00a750"/><path d="M52.8,201.93c13.49,7.45,28.68,13.26,35.31,39.65C90,252.67,85.59,261.47,71.86,265,35.79,251.73,31.57,230.5,34,223.28c4,.29,3.28.06,9.27,1.58l8.92-8.27C52,213.84,52.57,207,52.8,201.93Zm1.94,4.34c-.94,2.76-1.53,5.69.18,13.2l-11.09,7.45c-2.76-1.64-5.46-3-8.15-1.82-4.22,15.19,31.44,41.06,38.3,34l-20.3-15.37,22.88,13.61c.41-5.28-4.52-7.74-6.22-8.39,4.46.59,8.51,1.41,11.5-2.58L69.58,227.21l16.84,19.3C82.78,229.21,73.45,215.78,54.74,206.27Z" style="fill:#251c20"/><path d="M43.77,215.25c13.37,7.39,25.87,15.66,34.14,34.9L74,249.8C54.33,240.77,45.64,230.73,43.77,215.25Z" style="fill:#00a750"/><path d="M42.71,214c18.89,6.34,34.43,27.63,39.42,42.82C57.2,243.23,42.48,232.44,42.71,214Zm1.06,1.29C45.64,230.73,54.33,240.77,74,249.8l-12.26-13L78,250.09C69.64,230.91,57.14,222.64,43.77,215.25Z" style="fill:#251c20"/><path d="M72.57,259.13c-1.47,15.25,36.13,34,41.41,26.4L92.51,274.38l23.64,9.39c-.41-5.28-5.51-7-7.22-7,4.28,0,8.21,0,10.38-4.69l-14.55-15.84,18.83,15.25c-6.22-15.84-17.19-27-36.25-33.08-.41,2.82-.47,5.69,2.29,12.55l-9.09,8.8c-2.87-1.17-5.63-1.76-8-.59Z" style="fill:#00a750"/><path d="M84.83,234.55c13.84,4.93,29,8,39.6,32.2,3.64,10,.88,19.36-11.38,25.22-36-7-43.41-27-42.35-34,3.81-.59,3.11-.59,8.92,0l7-9.33C86.06,246,85.47,239.42,84.83,234.55Zm2.52,3.81c-.41,2.82-.47,5.69,2.35,12.55l-9.15,8.8c-2.87-1.17-5.63-1.76-8,0C71.1,274.38,108.7,293.15,114,285.52L92.51,274.38l23.64,9.39c-.41-5.28-5.51-7-7.22-7,4.28,0,8.21,0,10.38-4.69l-14.61-15.84,18.89,15.25C117.38,255.61,106.42,244.4,87.35,238.36Z" style="fill:#251c20"/><path d="M78.55,248.68c13.73,5.16,26.81,11,37.72,28h-3.7C92.63,271.44,82.83,263.23,78.55,248.68Z" style="fill:#00a750"/><path d="M77.38,247.63c18.71,3,36.78,20.88,43.88,34.37C95.74,273.2,80.14,265.58,77.38,247.63Zm1.17,1.06c4.28,14.55,14.08,22.76,34,28L99,266.16l17.3,10.56C105.36,259.71,92.28,253.85,78.55,248.68Z" style="fill:#251c20"/><path d="M221.68,256.19c-17.13,1.17-33.79,3.52-51.56,19.36l4.11,1.76C198.57,278.48,212.24,272,221.68,256.19Z" style="fill:#00a750"/><path d="M223.38,255.61c-22.17-2.93-52.38,8.8-60.65,25.22C194.46,279.07,217.52,279.07,223.38,255.61Zm-1.7.59c-9.44,15.84-23.11,22.29-47.46,21.12l22.29-7c-6.92-.18-18.07,3.05-26.34,5.22,17.72-15.84,34.37-18.18,51.5-19.36Z" style="fill:#251c20"/><path d="M228.43,290.8c-16.54,4.69-33.2,7-54.91-2.93l3.34-2.93C200,277.31,214.82,279.07,228.43,290.8Z" style="fill:#00a750"/><path d="M230.31,291.39c-20.24,9.39-55.79,8.21-65.23-5.87,30.62-8.21,51-15.84,65.23,5.87Zm-1.88-.59c-13.61-11.73-28.45-13.49-51.5-5.87l26.1,1.11c-4.28,1.17-14.55,3-27.75,2.23,21.7,10,36.55,7.22,53.15,2.52Z" style="fill:#251c20"/><path d="M224.56,272.62c-17-2.93-33.73-4.11-54.44,8.21l3.64,2.35c23.7,5.87,38.3,2.35,50.8-10.56Z" style="fill:#00a750"/><path d="M226.37,272c-21.06-7.63-49.63,1.17-64.47,11.73C193.17,289,213.7,289.63,226.37,272Zm-1.82.59c-12.49,12.91-27.1,16.42-50.8,10.56l19.83-3.52-23.46,1.17C190.83,268.51,207.6,269.68,224.56,272.62Z" style="fill:#251c20"/><path d="M116.5,256.19c17.13,1.17,33.79,3.52,51.56,19.36L164,277.31C139.62,278.48,125.95,272,116.5,256.19Z" style="fill:#00a750"/><path d="M114.86,255.61c22.11-2.93,52.38,8.8,60.6,25.22C143.78,279.07,120.67,279.07,114.86,255.61Zm1.64.59c9.44,15.84,23.11,22.29,47.46,21.12l-21.82-7.1c6.39-.23,15.78,2.23,25.93,5.34C150.29,259.71,133.63,257.37,116.5,256.19Z" style="fill:#251c20"/><path d="M109.82,290.8c16.54,4.69,33.2,7,54.91-2.93l-3.34-2.93C138.27,277.31,123.43,279.07,109.82,290.8Z" style="fill:#00a750"/><path d="M107.94,291.39c20.24,9.39,55.79,8.21,65.23-5.87C142.55,277.31,122.14,269.68,107.94,291.39Zm1.88-.59c13.61-11.73,28.45-13.49,51.5-5.87l-28.57.82c11.32,4.93,19.65,2.87,32,2.11C143,297.84,126.42,295.49,109.82,290.8Z" style="fill:#251c20"/><path d="M113.69,272.62c17-2.93,33.73-4.11,54.44,8.21l-3.64,2.35C140.79,289,126.18,285.52,113.69,272.62Z" style="fill:#00a750"/><path d="M111.87,272c21.06-7.63,49.63,1.17,64.47,11.73C145.07,289,124.54,289.63,111.87,272Zm1.82.59c12.49,12.91,27.1,16.42,50.8,10.56l-19.83-3.52,23.46,1.17c-20.71-12.32-37.48-11.15-54.44-8.21Z" style="fill:#251c20"/><path d="M164.14,295.49A91.13,91.13,0,0,0,179.8,272c.06-3.52-2.17-3.52-4.46-2.93a106.39,106.39,0,0,1-16.13,21.7C159.09,295.49,161.56,295.49,164.14,295.49Z" style="fill:#00a750;stroke:#251c20;stroke-linecap:round;stroke-linejoin:round;stroke-width:4px"/><path d="M176.4,293.74c-6.39-6.45-10.38-14.08-14.49-22.29.41-2.93,2.35-3.52,4.69-2.93,4.63,7,8.27,14.67,14.67,21.7C180.62,293.74,179,294.91,176.4,293.74Z" style="fill:#00a750;stroke:#251c20;stroke-linecap:round;stroke-linejoin:round;stroke-width:4px"/><path d="M150.28,217.22c0-.29-.06-1.06,0-2.11s0-2.46,0-4.16v-3.7c0-1.64,0-3.17.12-4.52s.06-2.29.12-2.7h-.06c-.35.35-1,.94-2,1.88s-2,1.82-3.05,2.64l1,1.29c.76-.7,1.29-1.23,1.7-1.64v6.22c0,1.64-.06,3.11-.06,4.34s-.06,2.17-.12,2.52Z"/><path d="M157.79,218.16a15,15,0,0,0,3.34-3.11,20.61,20.61,0,0,0,2.58-4.4,12.41,12.41,0,0,0,1-5,5.77,5.77,0,0,0-1.53-3.87,5.28,5.28,0,0,0-3.81-1.41,5.88,5.88,0,0,0-4,1.82,5.4,5.4,0,0,0-1.64,4,4.28,4.28,0,0,0,2.23,3.64,8.73,8.73,0,0,0,5.28,1.11,15.34,15.34,0,0,1-2.35,3.52,21.16,21.16,0,0,1-2.41,2.11Zm4.58-12.08a10.1,10.1,0,0,1-.12,1.94c-.12.53-.23,1-.35,1.35a6.29,6.29,0,0,1-4-.59,3.33,3.33,0,0,1-1.88-3,3.89,3.89,0,0,1,.88-2.52,3.37,3.37,0,0,1,2.35-1.17,2.57,2.57,0,0,1,2.17,1A4.78,4.78,0,0,1,162.37,206.08Z"/><path d="M174.22,199.51a17.28,17.28,0,0,0-5.92,7.57,12.09,12.09,0,0,0-1.06,4.81,7.36,7.36,0,0,0,.47,2.46,5.15,5.15,0,0,0,1.17,1.76,4.91,4.91,0,0,0,1.58.94,7.11,7.11,0,0,0,2,.29,6.28,6.28,0,0,0,4-1.82,5.45,5.45,0,0,0,1.82-4.22,4.63,4.63,0,0,0-2.17-3.64,8.92,8.92,0,0,0-5.34-1.17,12.65,12.65,0,0,1,2.35-3.34,14,14,0,0,1,2.46-2Zm-4.75,12.2a9.5,9.5,0,0,1,.12-1.94,10.15,10.15,0,0,1,.47-1.58,6.37,6.37,0,0,1,4,.7,3.33,3.33,0,0,1,1.88,3,3.73,3.73,0,0,1-.88,2.46,3,3,0,0,1-2.46,1.17,2.52,2.52,0,0,1-2.17-.94,4.67,4.67,0,0,1-.94-2.87Z"/><path d="M186.54,200.15a4.39,4.39,0,0,0-3.64,1.64,10.56,10.56,0,0,0-1.88,6.57c0,3.05.76,5.51,1.7,6.69a4.54,4.54,0,0,0,3.81,1.82,4.2,4.2,0,0,0,3.58-1.64,11.55,11.55,0,0,0,1.88-6.86,10.64,10.64,0,0,0-1.82-6.51A4.43,4.43,0,0,0,186.54,200.15Zm-.35,2a3.13,3.13,0,0,1,1.47.29,2.82,2.82,0,0,1,1.23,1.53,16.53,16.53,0,0,1,.7,4.11,18,18,0,0,1-.23,4.81,2.11,2.11,0,0,1-1,1.58,2.33,2.33,0,0,1-1.29.53,4,4,0,0,1-1.58-.29,3,3,0,0,1-1.29-1.58,22.76,22.76,0,0,1-.76-4.58,11.84,11.84,0,0,1,.35-4.34,2.37,2.37,0,0,1,.94-1.58,2.56,2.56,0,0,1,1.47-.47Z"/><path d="M116.09,101.25,130.34,118" style="fill:none;stroke:#000;stroke-linecap:round;stroke-linejoin:round;stroke-width:3px"/><path d="M116.09,111.52l14.25,13.08" style="fill:none;stroke:#000;stroke-linecap:round;stroke-linejoin:round;stroke-width:3px"/><path d="M117.14,121l14.55,10.44" style="fill:none;stroke:#000;stroke-linecap:round;stroke-linejoin:round;stroke-width:3px"/><path d="M119.08,128.88c3.28,2.76,9.09,7.39,12.73,6.69" style="fill:none;stroke:#000;stroke-linecap:round;stroke-linejoin:round;stroke-width:3px"/><path d="M122,136.21c2.05,1.35,4.58,3.58,12.2,4.22" style="fill:none;stroke:#000;stroke-linecap:round;stroke-linejoin:round;stroke-width:3px"/><path d="M123.65,143.08l13.43.7" style="fill:none;stroke:#000;stroke-linecap:round;stroke-linejoin:round;stroke-width:3px"/><path d="M130.34,151.52l8.33-4.58" style="fill:none;stroke:#000;stroke-linecap:round;stroke-linejoin:round;stroke-width:3px"/><path d="M139.67,159.62l5.63-6.39" style="fill:none;stroke:#000;stroke-linecap:round;stroke-linejoin:round;stroke-width:3px"/><path d="M146.06,182.61l4.63-12.44" style="fill:none;stroke:#000;stroke-linecap:round;stroke-linejoin:round;stroke-width:3px"/><path d="M153.51,185.84l2.82-12.44" style="fill:none;stroke:#000;stroke-linecap:round;stroke-linejoin:round;stroke-width:3px"/><path d="M162.13,187.36l.29-14.37" style="fill:none;stroke:#000;stroke-linecap:round;stroke-linejoin:round;stroke-width:3px"/><path d="M169.7,187.36l-.47-14" style="fill:none;stroke:#000;stroke-linecap:round;stroke-linejoin:round;stroke-width:3px"/><path d="M177.62,185.25l-3.11-13.79" style="fill:none;stroke:#000;stroke-linecap:round;stroke-linejoin:round;stroke-width:3px"/><path d="M185.66,181.5l-6.86-11.67" style="fill:none;stroke:#000;stroke-linecap:round;stroke-linejoin:round;stroke-width:3px"/><path d="M118.08,91.1c4.69,6.92,10.15,13.61,12.26,21.29" style="fill:none;stroke:#000;stroke-linecap:round;stroke-linejoin:round;stroke-width:3px"/><path d="M191.7,142a13.21,13.21,0,0,1,2.11-8.21c2.82-4,4.81-7.63,2.11-9.5,2.29-3.23,2.82-7.1-.53-9.62" style="fill:none;stroke:#000;stroke-linecap:round;stroke-linejoin:round;stroke-width:3px"/><path d="M134.86,155.51l6.1-5.57" style="fill:none;stroke:#000;stroke-linecap:round;stroke-linejoin:round;stroke-width:3px"/><path d="M133.68,110c5.57,8.39,15.31,29,23.7,33.14.76.35,2.23,1.06,2.87.53a13.12,13.12,0,0,1-2.58-1.35C150.69,137.39,138.08,110,133.68,110Z"/><path d="M213.52,83.65l-2.17,11.79s3.46-10.56,3.81-10.73Z"/><path d="M159.49,163.08c-1.53.18-3.34-.06-4.16-1.06-2.87,2.35-5.87,1.94-5.81.7,0-.41.35-1.41-.35-1.41-.88,0-3.11.35-2.7-.82.18-.59,1.53-2.05-.59-1.7a17,17,0,0,0-2.76.94c-.53.18-.29,1-.18,1.06.41.18,5,2.35,5,2.46.53,2.17,5.57,2.64,7.33.06.76,1.17,2.82,1,3.23,1.53-1,7.33,7,3.58,10.15-.06,3.93,2,10.73-1.11,9-3.05-.65-.7-2.05,6.1-9,1.06-.82,1.7-3.75,5.46-7.39,5.63a1.63,1.63,0,0,1-1.47-2.11c.47-2.41,2.87-8.21,2.35-8.51-.35-.18-1.94,3.52-2.7,5.28Z"/><path d="M216.69,89.64l-3.34,11.56,4.87-10.27Z"/><path d="M217.27,101.37l-4.69,9.5,5.75-7.63Z"/><path d="M216.22,111.63l-3.28,6.45,4-4.69Z"/><path d="M154.16,152.29c-3.28,2.11-7,2.52-9.8,1.35-1.35-1.41-2.82-2.46-5-2.17a6.3,6.3,0,0,0-2.58-3.17c1.82-1.82-.94-3.64-1.94-4,.29-1.88.12-3-3.46-4.4a12.07,12.07,0,0,0-1-5.28c2.17-1.17.82-3.34-2.11-5.28,1.06-1.53,3.17-1.76-.47-7.92l.18-5.46c3.7-1.06-.12-6.34-.76-10.32,7.27,9,6.16,16.37,4,18.24,1.58,1.41,2.64,5.75,1.64,7.68a15.06,15.06,0,0,1,1.94,8.1c2.64,1.29,4.34,3.34,3.11,4.75,1.94,1.41,3.4,2.93,3.64,4.81,3.58-.47,6.28.94,4.93,2.93,2.23.76,5.16-.29,7.74.12Z"/></svg>