<svg xmlns="http://www.w3.org/2000/svg" xmlns:xlink="http://www.w3.org/1999/xlink" viewBox="0 0 566.04 500.95"><defs><linearGradient id="a" x1="1216.19" y1="79.27" x2="1167.19" y2="155.27" gradientTransform="matrix(0.75, 0, 0, -0.75, -681.65, 188.66)" gradientUnits="userSpaceOnUse"><stop offset="0" stop-color="#fff"/><stop offset="1" stop-color="#fc0"/></linearGradient><linearGradient id="b" x1="1259.29" y1="100.14" x2="1236.29" y2="204.14" xlink:href="#a"/><linearGradient id="c" x1="1238.17" y1="103.52" x2="1200.17" y2="171.82" xlink:href="#a"/><linearGradient id="d" x1="1198.08" y1="71.81" x2="1140.08" y2="128.81" xlink:href="#a"/><linearGradient id="e" x1="493.52" y1="79.27" x2="444.52" y2="155.27" gradientTransform="translate(705.7 188.66) rotate(180) scale(0.75)" xlink:href="#a"/><linearGradient id="f" x1="536.62" y1="100.14" x2="513.62" y2="204.14" gradientTransform="translate(705.7 188.66) rotate(180) scale(0.75)" xlink:href="#a"/><linearGradient id="g" x1="515.5" y1="103.52" x2="477.5" y2="171.82" gradientTransform="translate(705.7 188.66) rotate(180) scale(0.75)" xlink:href="#a"/><linearGradient id="h" x1="475.41" y1="71.81" x2="417.41" y2="128.81" gradientTransform="translate(705.7 188.66) rotate(180) scale(0.75)" xlink:href="#a"/><linearGradient id="i" x1="475.33" y1="300.87" x2="475.33" y2="387.75" gradientTransform="matrix(0.75, 0, 0, -0.75, -73.48, 331.91)" xlink:href="#a"/><radialGradient id="j" cx="1166.77" cy="168.77" r="173.06" gradientTransform="matrix(0.78, 0, 0, -0.78, -623.56, 326.23)" xlink:href="#a"/></defs><title>Côte d&amp;apos;Ivoire</title><path d="M178,446.46a216.3,216.3,0,0,1,37.2,2.9c11.07,1.81,24.22,7.39,35.08,8.82,12.83,1.69,30.83,2.49,33.08,2.45s19.33-1.37,30.75-3.28c12.83-2.15,28.15-8,41.2-10.67a200,200,0,0,1,32.64-4V474s-9.52,9-26.32,15.68c-9.29,3.73-22.49,5.31-33.56,7.79-14.1,3.16-38.73,2.46-43.65,2.46-5.57,0-34,.79-51-3-8.75-2-22.21-5-29.55-7.5C185.39,482.93,178,471.37,178,471.37V446.5Z" style="fill:#ffd942;stroke:#222;stroke-width:2.5px"/><path d="M93,193.93l21.07.71,18.26-34.42-21.75-16.16L87.38,160.93l5.62,33Z" style="fill:#ffd942;stroke:#401e04;stroke-width:2.5px"/><path d="M96.5,205.63s-.34-20.18,1.4-24.9c1.24-3.37,6.32-9.83,6.32-9.83s6.08,7.79,7,11.24c1.33,4.88,2.11,23.53,2.11,23.53" style="fill:#ffd942;stroke:#401e04;stroke-width:2.5px"/><path d="M119.6,195.28c2.1-8,12.75-22.44,12.75-22.44s-22.57,10.5-27.39,20.4c-2.87,5.87-1.4,23.88-1.4,23.88l15.46,3.5S117.89,201.87,119.6,195.28Z" style="fill:#ffd942;stroke:#401e04;stroke-width:2.5px"/><path d="M88.62,197.61c-2.1-8-12.75-22.44-12.75-22.44s22.57,10.5,27.39,20.4c2.87,5.87,1.4,23.88,1.4,23.88l-13.34,2.8s-1-18.08-2.7-24.64Z" style="fill:#ffd942;stroke:#401e04;stroke-width:2.5px"/><path d="M94.7,228.51s-.34-20.19,1.4-24.9c1.24-3.37,7.72-9.13,7.72-9.13s6.08,7.08,7,10.58c1.33,4.88.71,23.53.71,23.53" style="fill:#ffd942;stroke:#401e04;stroke-width:2.5px"/><path d="M90.8,229.56c-2.1-8-7.84-20.33-7.84-20.33s19.78,8.42,24.58,18.26c2.87,5.87,1.4,23.88,1.4,23.88l-13.35,2.8s-3.09-18.08-4.81-24.62Z" style="fill:#ffd942;stroke:#401e04;stroke-width:2.5px"/><path d="M118.25,229.86c2.1-8,7.84-20.33,7.84-20.33s-17.67,5.6-22.48,15.45c-2.87,5.87-3.51,26.69-3.51,26.69l18.26,2.1s-1.82-17.33-.11-23.91Z" style="fill:#ffd942;stroke:#401e04;stroke-width:2.5px"/><path d="M97.4,243.13c.12-5.5.77-12,1.44-14.25,1-3.39,6.52-7.82,6.52-7.82s5.64,4.39,6.41,7.87c.47,2.14,2.47,9.55,2.75,14.17.38,6-8.6,12.24-8.6,12.24s-8.66-6.08-8.54-12.2Z" style="fill:#ffd942;stroke:#401e04;stroke-width:2.5px"/><path d="M90.72,260.53c-2.1-8-7.84-20.32-7.84-20.32s19.78,3.63,24.58,13.48c2.87,5.87,1.4,28.65,1.4,28.65l-13.35,2.8s-3.09-18.07-4.81-24.62Z" style="fill:#ffd942;stroke:#401e04;stroke-width:2.5px"/><path d="M120.95,256c2.1-8,7.84-20.33,7.84-20.33s-17.67,5.6-22.48,15.45c-2.87,5.87-3.51,26.69-3.51,26.69l18.26,2.1s-1.82-17.32-.11-23.91Z" style="fill:#ffd942;stroke:#401e04;stroke-width:2.5px"/><path d="M97.1,280.11a37.4,37.4,0,0,1-2-12.07c.15-5.47,2.62-10.57,3.44-12.82,1.24-3.37,6.32-9.13,6.32-9.13s6.08,7.08,7,10.5c.58,2.12,3.86,6.75,4.21,11.32.46,6-2.11,12.21-2.11,12.21" style="fill:#ffd942;stroke:#401e04;stroke-width:2.5px"/><path d="M89.3,290.53c-2.1-8-7.84-20.32-7.84-20.32s19.78,3.63,24.58,13.48c2.87,5.87,1.4,28.65,1.4,28.65l-16.08,2.8s-.36-18.07-2.08-24.62Z" style="fill:#ffd942;stroke:#401e04;stroke-width:2.5px"/><path d="M121.92,289.18c2.1-8,3.74-19.65,3.74-19.65s-15.68,2.95-20.48,12.82c-2.87,5.87-1.4,28.65-1.4,28.65l16.07,2.81s.36-18.07,2.07-24.62Z" style="fill:#ffd942;stroke:#401e04;stroke-width:2.5px"/><path d="M95.9,307.11c.15-6.84,2.59-15.25,3.4-18.07,1.22-4.21,6.25-9.37,6.25-9.37s6.69,6.12,7.62,10.45c.57,2.65,3.13,11.21,3.48,16.94.45,7.46-10.41,15.22-10.41,15.22s-10.5-7.57-10.34-15.15Z" style="fill:#ffd942;stroke:#401e04;stroke-width:2.5px"/><path d="M90.72,325.41c-2.1-8-7.15-20.32-7.15-20.32s19.78,3.63,24.58,13.48c2.87,5.87,1.4,28.65,1.4,28.65l-18.82,4.85s1.69-20.11,0-26.66Z" style="fill:#ffd942;stroke:#401e04;stroke-width:2.5px"/><path d="M121.17,325.71c2.1-8,7.15-20.32,7.15-20.32s-19.78,3.63-24.58,13.48c-2.87,5.87-1.4,28.65-1.4,28.65l17.61,6s-.49-21.23,1.22-27.82Z" style="fill:#ffd942;stroke:#401e04;stroke-width:2.5px"/><path d="M95.9,341.61a79,79,0,0,1,2.71-17.4c1.22-4.21,6.93-10.05,6.93-10.05s6.69,6.12,7.62,10.45c.57,2.65,3.13,11.21,3.48,16.94.45,7.46-10.41,15.22-10.41,15.22s-10.5-7.57-10.34-15.15Z" style="fill:#ffd942;stroke:#401e04;stroke-width:2.5px"/><path d="M88,376.93s3.06-18.07,1.34-24.62c-2.1-8-4.43-22.39-4.43-22.39S97.2,335.62,102,345.46c2.87,5.87,4.81,26.61,4.81,26.61L88,376.93Z" style="fill:#ffd942;stroke:#401e04;stroke-width:2.5px"/><path d="M116.22,380.08s1.37-17.51,3.44-24c2.54-7.9,5.66-22.1,5.66-22.1s-12.56,5-17.91,14.56c-3.19,5.7-6.29,26.32-6.29,26.32l15.07,5.21Z" style="fill:#ffd942;stroke:#401e04;stroke-width:2.5px"/><path d="M94.47,370.26c.15-6.84,1.21-15.93,2-18.74,1.22-4.21,7.61-8.69,7.61-8.69s6.69,6.82,7.62,11.13c.57,2.65,3.13,10.5,3.48,16.26.45,7.46-10.41,15.21-10.41,15.21s-10.5-7.57-10.34-15.17Z" style="fill:#ffd942;stroke:#401e04;stroke-width:2.5px"/><path d="M83.22,389.16s2.72-3.48,1.71-10.19c-1.24-8.21-2-22.72-2-22.72s11.6,6.95,15.34,17.24c2.23,6.14,2.16,14.08,2.16,14.08Z" style="fill:#ffd942;stroke:#401e04;stroke-width:2.5px"/><path d="M118.62,397.18s-1.45-13.78.91-20.13c2.89-7.79,6.63-21.82,6.63-21.82s-12.75,4.43-18.53,13.76c-3.44,5.56-6.91,26.64-6.91,26.64l17.89,1.57Z" style="fill:#ffd942;stroke:#401e04;stroke-width:2.5px"/><path d="M93.8,394.56s-.1-12.9.72-15.71c1.22-4.21,7.61-8.69,7.61-8.69s6.69,6.82,7.62,11.13c.57,2.65.71,12.4.71,12.4l-16.65.88Z" style="fill:#ffd942;stroke:#401e04;stroke-width:2.5px"/><path d="M100.55,179.61,111.8,171s7.24-7.3,9.49-11c2.05-3.41,4.86-12.37,4.86-12.37l-7.06,6.19,7.5-12.15a53,53,0,0,0,1.77-7.07c.38-3.89-.66-13-.66-13l-4.63,6.19s3.44-9.41,2.21-13.25l-3.61-11.25s-3-7-4.34-9.73c-2.71-5.58-6.46-8.83-11.71-12.15A39.29,39.29,0,0,0,94.77,77c-9.55-2-22.06-2.09-22.06-2.09l28.94,29.4,2,47.47-3.09,27.83Z" style="fill:#ffd942;stroke:#112b00;stroke-width:2px"/><path d="M103.25,178.86s-7.79-5.72-9.92-9.17c-.84-1.37-3.88-6.83-3.88-6.83s6.3,3.49,8,4.29l4.42,2.15A54.5,54.5,0,0,1,95.95,165a31.57,31.57,0,0,1-3.12-3.62,64,64,0,0,1-3.36-5.85s5.58,3.34,7.43,4.21a51.83,51.83,0,0,0,5.78,1.9s-5.67-3.13-7.09-4.28c-1.88-1.53-2.25-1.45-3.46-3.55-.66-1.17-3.82-6.46-3.82-6.46l7.57,4c2.07,1.14,7.1,3.41,7.1,3.41s-5.62-3.58-7.57-4.89c-1.76-1.19-3.46-1.77-4.67-3.5-.82-1.18-3.88-6.83-3.88-6.83s6.47,4.74,9.44,5.59c1.48.43,7.66,1.72,7.66,1.72a49.92,49.92,0,0,1-5.84-2.24c-2.63-1.42-5.85-2.33-7.69-4.7-1.46-1.87-6.68-9.6-6.68-9.6s7.15,4,9,5a16.73,16.73,0,0,0,4.5,1.61c2.42.38,8.17-.29,8.17-.29S98.81,136,96.16,135a30,30,0,0,1-7.23-4.08c-1.24-.95-3.07-2.25-3.66-3.69-.83-2-3.34-7.6-3.34-7.6s6.93,4.59,8.82,6.08A14.24,14.24,0,0,0,95,128.07c2.24.62,7.76.31,7.76.31s-6.32-1.09-8.8-2.21a13.06,13.06,0,0,1-2.6-1.79c-1.88-1.56-5.2-3.74-5.79-5.75S82,111.76,82,111.76s9.58,4.83,11.93,5.83a25,25,0,0,0,10.1,1.62,11.18,11.18,0,0,0,2.51-.64,72,72,0,0,1-8.62-1.2,70.29,70.29,0,0,1-7-2.72c-3-1.33-5.5-2.42-7.42-5.09-1-1.42-3-6.75-3-6.75s9.11,3.44,12.29,4c3,.53,10.1.74,10.1.74s-7.77-1.42-11-2.51c-2.52-.86-6.53-1.57-8-3.75C82.82,99.68,81,94,81,94s7.5,2.47,9.82,2.9c4.11.77,13.87,1.27,13.87,1.27s-8-1-12-2.33c-1.91-.64-8-2-9.31-3.53a40.85,40.85,0,0,0-5.54-4.64S89.61,89,92.75,90.16c2.32.84,9,1.54,9,1.54s-22.41-4.85-23.67-6.91c-.77-1.25-2.57-2.94-2.92-4.36C74.66,78.36,70,74.74,70,74.74s13.57,1.79,24,6.17a33.72,33.72,0,0,1,14,11.22c5.62,7.66,9.25,18.7,10.26,28.87.87,8.77.62,22.16-2.12,31-2.57,8.33-12.82,26.87-12.82,26.87Z" style="fill:#ffd942;stroke:#17280b;stroke-width:2.5px"/><path d="M100.55,140.08s4.5,8.55,7.63,11.15c1.23,1,6.16,4.84,6.16,4.84s-2.54-6.74-3.08-8.5c-.44-1.41-1.48-4.69-1.48-4.69a55,55,0,0,0,3.43,6.44,31.94,31.94,0,0,0,3.12,3.62,63.82,63.82,0,0,0,5.32,4.18s-2.49-6-3.09-8a51.56,51.56,0,0,1-1-6s2.25,6.07,3.2,7.64c1.24,2.08,1.1,2.45,3,3.94,1.06.83,5.84,4.72,5.84,4.72s-2.25-6.43-2.87-8.07c-.82-2.21-2.33-7.5-2.33-7.5s2.71,6.08,3.73,8.19c.93,1.91,1.24,3.67,2.78,5.14,1.05,1,6.16,4.84,6.16,4.84s-3.74-7.09-4.15-10.15c-.2-1.52-.59-7.84-.59-7.84a50.33,50.33,0,0,0,1.37,6.1c1,2.81,1.46,6.13,3.52,8.33,1.63,1.72,8.52,8,8.52,8s-3-7.67-3.62-9.6a16.74,16.74,0,0,1-.94-4.69c0-2.45,1.48-8,1.48-8s-.3,6.6.25,9.35a30.49,30.49,0,0,0,3,7.75c.75,1.37,1.78,3.37,3.12,4.16,1.9,1.12,7,4.41,7,4.41s-3.53-7.5-4.7-9.61a14.11,14.11,0,0,1-1.7-4.58c-.29-2.31.82-7.71.82-7.71s.16,6.41.9,9a13.66,13.66,0,0,0,1.39,2.84c1.27,2.09,2.94,5.68,4.84,6.56s6.27,4.5,6.27,4.5-3.37-10.18-4-12.64a25.09,25.09,0,0,1-.13-10.22,11.54,11.54,0,0,1,1-2.38,72.3,72.3,0,0,0-.07,8.7,69.47,69.47,0,0,0,1.68,7.3c.87,3.18,1.58,5.79,4,8.08,1.26,1.21,6.27,4,6.27,4s-2.08-9.51-2.18-12.74c-.09-3,.73-10.11.73-10.11a111.32,111.32,0,0,0,.89,11.21c.49,2.62.59,6.68,2.54,8.5,1.44,1.35,6.82,4,6.82,4s-1.35-7.82-1.43-10.12c-.16-4.18.77-13.91.77-13.91s-.19,8.07.55,12.18c.35,2,.64,6.46,2,8s7.35,5.61,7.35,5.61-2.25-10.46-2.93-13.72c-.5-2.42-1-8.17-1-8.17s1.85,7.21,2.85,10.25c.75,2.29,1,6,2.87,7.5,1.12.94,3.42.37,4.78.91a39.34,39.34,0,0,1,5.95,3.86s-9-21.83-16-28.72c-6.75-6.68-17.14-11.88-27.07-14.33-8.54-2.14-21.82-3.85-31-2.44-8.61,1.33-28.45,8.78-28.45,8.78Z" style="fill:#ffd942;stroke:#17280b;stroke-width:2.5px"/><path d="M118.85,131.08s-8.12,5.25-12.07,6c-1.57.31-7.73,1.23-7.73,1.23s5.5-4.66,6.83-5.93c1.06-1,3.58-3.37,3.58-3.37a54,54,0,0,1-6.13,4,31,31,0,0,1-4.48,1.63,64.12,64.12,0,0,1-6.66,1.07s5.1-4,6.57-5.45a52.62,52.62,0,0,0,3.82-4.72s-4.94,4.2-6.51,5.12c-2.09,1.22-2.15,1.61-4.57,2-1.33.2-7.39,1.29-7.39,1.29s5.1-4.5,6.44-5.66c1.8-1.53,5.7-5.44,5.7-5.44s-5.33,4-7.25,5.33c-1.74,1.21-2.88,2.61-4.94,3.13-1.4.35-7.73,1.23-7.73,1.23s6.73-4.37,8.57-6.84c.92-1.23,4.33-6.55,4.33-6.55A49.71,49.71,0,0,1,85,123.74c-2.25,2-4.25,4.64-7.11,5.54-2.25.71-11.32,2.85-11.32,2.85s6.31-5.25,7.83-6.62a16.49,16.49,0,0,0,3.1-3.64c1.21-2.13,2.62-7.74,2.62-7.74s-2.95,5.91-4.77,8A30.16,30.16,0,0,1,69,127.49c-1.32.83-3.19,2.07-4.75,2.12-2.21.06-8.25.43-8.25.43s6.75-4.86,8.79-6.11a14.14,14.14,0,0,0,3.72-3.17c1.38-1.87,3-7.14,3-7.14s-3.26,5.53-5.18,7.46a13,13,0,0,1-2.6,1.8c-2.13,1.21-5.34,3.53-7.43,3.38s-7.67.89-7.67.89,7.9-7.25,9.68-9.08a25.08,25.08,0,0,0,5.09-8.87,11.34,11.34,0,0,0,.29-2.57,71.75,71.75,0,0,1-4.17,7.63,69,69,0,0,1-5,5.56c-2.31,2.35-4.2,4.29-7.39,5.13-1.7.45-7.41.41-7.41.41s6.45-7.3,8.1-10.07c1.56-2.61,4.28-9.19,4.28-9.19s-4.07,6.75-6.22,9.36c-1.7,2-3.75,5.55-6.36,6.2-1.91.48-7.89.15-7.89.15s5-6.17,6.19-8.14c2.18-3.57,6.1-12.53,6.1-12.53s-3.75,7.14-6.41,10.37c-1.28,1.56-3.71,5.33-5.62,6s-9.15,1.32-9.15,1.32,7.06-8,9.24-10.58c1.61-1.87,4.87-6.64,4.87-6.64s-5.13,5.4-7.48,7.58c-1.78,1.63-3.8,4.72-6.17,5.17-1.43.28-3.17-1.35-4.61-1.53a39,39,0,0,0-7.07.47S29.93,98.61,39.39,96c9.15-2.55,20.76-2,30.63.63,8.51,2.29,20.94,7.27,28.24,13,6.87,5.36,20.58,21.53,20.58,21.53Z" style="fill:#ffd942;stroke:#17280b;stroke-width:2.5px"/><path d="M90.95,141.58,95,128s4.22-9.37,6.91-12.83c2.45-3.14,9.82-9,9.82-9L108.44,115l8.65-11.33a52.48,52.48,0,0,1,6-4.18c3.5-1.75,12.4-4,12.4-4L131.35,102s7.72-5.63,11.58-6.83c4.85-1.49,16.88-1,16.88-1l-4.08,4.17s6.61-3.49,9.64-3.22c6.18.53,10.57,2.87,15.53,6.58a39.49,39.49,0,0,1,7.91,8.58c5.25,8.21,9.82,19.85,9.82,19.85l-37.8-16.49-45.07,15.15-24.9,12.83Z" style="fill:#ffd942;stroke:#112b00;stroke-width:2px"/><path d="M90.65,138.73s8.14,5.23,12.15,6c1.58.3,7.74,1.19,7.74,1.19s-5.52-4.63-6.86-5.9l-3.59-3.36a57.39,57.39,0,0,0,6.15,3.94,31.75,31.75,0,0,0,4.49,1.62,63.78,63.78,0,0,0,6.66,1s-5.12-4-6.6-5.42a51.59,51.59,0,0,1-3.84-4.71s4.95,4.18,6.53,5.08c2.1,1.21,2.16,1.6,4.56,2,1.33.2,7.4,1.25,7.4,1.25s-5.12-4.49-6.46-5.62c-1.81-1.52-5.72-5.41-5.72-5.41s5.35,4,7.28,5.33c1.74,1.21,2.89,2.59,4.94,3.11,1.4.35,7.74,1.19,7.74,1.19s-6.75-4.35-8.6-6.83c-.93-1.23-4.36-6.54-4.36-6.54a50.23,50.23,0,0,0,4.19,4.65c2.25,1.94,4.28,4.63,7.13,5.5,2.25.69,11.32,2.8,11.32,2.8s-6.35-5.23-7.86-6.59a16.9,16.9,0,0,1-3.12-3.62c-1.22-2.12-2.65-7.72-2.65-7.72s3,5.9,4.81,8a28.69,28.69,0,0,0,6.4,5.25c1.33.82,3.2,2.06,4.76,2.09,2.21,0,8.25.39,8.25.39s-6.75-4.82-8.81-6.08a14,14,0,0,1-3.73-3.16c-1.39-1.87-3.07-7.12-3.07-7.12s3.29,5.51,5.22,7.42a13.27,13.27,0,0,0,2.6,1.79c2.13,1.2,5.36,3.51,7.44,3.34s7.67.86,7.67.86-7.94-7.21-9.71-9.08a25,25,0,0,1-5.13-8.84,11.56,11.56,0,0,1-.3-2.57,71.66,71.66,0,0,0,4.21,7.61,69.09,69.09,0,0,0,5,5.54c2.32,2.34,4.22,4.27,7.41,5.1,1.7.44,7.41.38,7.41.38s-6.48-7.27-8.15-10c-1.57-2.6-4.32-9.16-4.32-9.16s4.1,6.74,6.27,9.33c1.71,2,3.8,5.53,6.38,6.17,1.91.46,7.89.11,7.89.11s-5-6.15-6.23-8.12c-2.19-3.56-6.16-12.5-6.16-12.5s3.8,7.12,6.46,10.34c1.28,1.55,4.71,6.83,6.62,7.43a41.46,41.46,0,0,1,6.32,3.51s-5.48-10.45-7.66-13c-1.62-1.87-4.67-7.88-4.67-7.88S185,128,187.43,128.47c1.43.27,3.67,1.35,5.11,1.16,2.11-.28,7.16,2.77,7.16,2.77s-6.52-12-14.32-20.17a33.52,33.52,0,0,0-15.48-9c-9.16-2.5-20.77-1.93-30.63.76-8.5,2.33-20.91,7.37-28.18,13.08-6.85,5.38-20.48,21.62-20.48,21.62Z" style="fill:#ffd942;stroke:#17280b;stroke-width:2.5px"/><path d="M106.17,150.51l-8.61-11.25s-7.3-7.24-11-9.5c-3.41-2.05-12.37-4.86-12.37-4.86L80.34,132l-12.15-7.5a53,53,0,0,0-7.06-1.77c-3.89-.38-13,.66-13,.66L54.29,128S45.05,125.5,41,125.79c-5.06.35-16.12,5.08-16.12,5.08l5.32,2.43s-7.42-.89-10.16.44c-5.58,2.71-8.84,6.46-12.15,11.71a39.29,39.29,0,0,0-4.31,10.84c-2,9.55-2.09,22.07-2.09,22.07l29.4-28.93,47.47-2,27.82,3.09Z" style="fill:#ffd942;stroke:#112b00;stroke-width:2px"/><path d="M105.5,147.73s-5.72,7.79-9.17,9.92c-1.37.84-6.82,3.88-6.82,3.88s3.49-6.3,4.29-8c.64-1.33,2.15-4.42,2.15-4.42A54.5,54.5,0,0,1,91.61,155,31.57,31.57,0,0,1,88,158.15a64.22,64.22,0,0,1-5.84,3.36s3.35-5.58,4.21-7.42a51.84,51.84,0,0,0,1.9-5.78S85.14,154,84,155.4c-1.53,1.88-1.45,2.25-3.55,3.46-1.16.66-6.46,3.83-6.46,3.83s3.17-6,4-7.58c1.14-2.07,3.4-7.1,3.4-7.1s-3.58,5.62-4.89,7.58c-1.19,1.75-1.77,3.46-3.5,4.67-1.19.83-6.82,3.88-6.82,3.88s4.74-6.47,5.6-9.43c.43-1.48,1.72-7.67,1.72-7.67a49.91,49.91,0,0,1-2.24,5.83c-1.43,2.63-2.33,5.85-4.7,7.69-1.87,1.46-9.6,6.68-9.6,6.68s4.05-7.15,5-9a16.73,16.73,0,0,0,1.61-4.5c.37-2.42-.29-8.17-.29-8.17s-.67,6.57-1.61,9.22a30,30,0,0,1-4.08,7.23c-.95,1.24-2.25,3.07-3.69,3.66-2,.83-7.6,3.34-7.6,3.34s4.59-6.93,6.07-8.82a14.33,14.33,0,0,0,2.36-4.28c.62-2.24.31-7.75.31-7.75s-1.1,6.32-2.21,8.8A13.07,13.07,0,0,1,51,159.6c-1.56,1.88-3.74,5.2-5.74,5.79s-6.86,3.55-6.86,3.55,4.83-9.58,5.83-11.92a25,25,0,0,0,1.62-10.09,11.18,11.18,0,0,0-.64-2.5A72,72,0,0,1,44,153a70.3,70.3,0,0,1-2.72,7c-1.33,3-2.41,5.5-5.09,7.42-1.43,1-6.75,3-6.75,3s3.44-9.11,4-12.29c.53-3,.74-10.1.74-10.1s-1.42,7.77-2.51,11c-.86,2.52-1.57,6.53-3.75,8-1.62,1.12-7.32,2.93-7.32,2.93s2.47-7.58,2.9-9.83c.77-4.11,1.27-13.87,1.27-13.87s-1,8-2.32,12c-.64,1.91-2,8-3.53,9.31a40.84,40.84,0,0,0-4.64,5.54s1.37-11.71,2.51-14.85c.84-2.32,1.54-9,1.54-9s-4.85,22.41-6.91,23.67c-1.24.76-2.94,2.57-4.36,2.92C5,176.32,1.38,181,1.38,181s1.79-13.58,6.16-24a33.72,33.72,0,0,1,11.22-14c7.66-5.62,18.7-9.25,28.87-10.26,8.77-.87,22.16-.62,31,2.12,8.32,2.57,26.87,12.83,26.87,12.83Z" style="fill:#ffd942;stroke:#17280b;stroke-width:2.5px"/><path d="M112.55,150.51s-.31,9.67-1.94,13.37c-.65,1.47-3.4,7-3.4,7s-.69-7.17-1-9c-.22-1.46-.73-4.86-.73-4.86a55.7,55.7,0,0,1-.24,7.3A31.17,31.17,0,0,1,104,169a63.85,63.85,0,0,1-2.92,6.08s-.4-6.5-.73-8.51a52.43,52.43,0,0,0-1.7-5.83s.63,6.45.49,8.25c-.2,2.42.09,2.68-1,4.86C97.62,175,95,180.67,95,180.67s-.8-6.75-1-8.51c-.23-2.35-1.21-7.78-1.21-7.78s.23,6.66.24,9c0,2.12.5,3.85-.24,5.83-.51,1.35-3.4,7-3.4,7s.25-8-.73-10.94c-.49-1.46-2.92-7.3-2.92-7.3a51.76,51.76,0,0,1,1.46,6.08c.31,3,1.39,6.14.49,9C87,185.34,83.63,194,83.63,194s-.71-8.19-1-10.21a16.87,16.87,0,0,0-1.21-4.62c-1.06-2.21-4.86-6.56-4.86-6.56s3.17,5.8,3.89,8.51a29.94,29.94,0,0,1,.73,8.25c-.07,1.56-.12,3.8-1,5.11-1.21,1.84-4.38,7-4.38,7s-.13-8.33,0-10.7a14,14,0,0,0-.49-4.86c-.75-2.21-4.13-6.56-4.13-6.56s2.68,5.83,3.16,8.51a13.48,13.48,0,0,1,0,3.16c-.22,2.44-.14,6.4-1.46,8S69.27,206,69.27,206s-1.44-10.63-1.94-13.13a25.1,25.1,0,0,0-4.38-9.24,11.32,11.32,0,0,0-1.94-1.7,73.67,73.67,0,0,1,3.89,7.78,69.13,69.13,0,0,1,1.7,7.3c.62,3.24,1.12,5.9,0,9-.6,1.65-3.89,6.32-3.89,6.32s-2.32-9.46-3.64-12.4c-1.25-2.77-5.11-8.75-5.11-8.75a112.26,112.26,0,0,1,4.13,10.46c.71,2.57,2.4,6.26,1.46,8.75-.7,1.84-4.38,6.56-4.38,6.56s-2.23-7.61-3.16-9.73C50.33,203.34,45.19,195,45.19,195s3.71,7.17,4.86,11.18c.55,1.94,2.25,6.09,1.7,8s-4.13,8.25-4.13,8.25-2.56-10.39-3.4-13.58c-.62-2.39-2.68-7.78-2.68-7.78s1.5,7.3,1.94,10.46c.33,2.39,1.71,5.81.73,8-.59,1.33-2.91,1.84-3.89,2.92a39.07,39.07,0,0,0-3.64,6.08s-1.54-23.53,1.7-32.83c3.13-9,10.17-18.21,18-24.83,6.73-5.68,17.92-13.06,26.74-15.83,8.32-2.59,29.4-4.62,29.4-4.62Z" style="fill:#ffd942;stroke:#17280b;stroke-width:2.5px"/><path d="M101.75,152.46l13.5-4.21s10.14-1.69,14.5-1.37c4,.29,12.9,3.18,12.9,3.18l-9.13,2.2,14.25.89a54.87,54.87,0,0,1,6.82,2.64c3.4,1.94,10.25,8.07,10.25,8.07l-7.73.21s9,3.3,12.07,5.86c3.92,3.21,10.22,13.46,10.22,13.46l-5.73-1.08s6.57,3.55,8,6.23c3,5.44,3.47,10.38,3.15,16.58a39.45,39.45,0,0,1-2.75,11.33c-3.89,9-11,19.21-11,19.21l-7.25-40.58L126.25,166l-24.49-13.58Z" style="fill:#ffd942;stroke:#112b00;stroke-width:2px"/><path d="M103.92,150.66s.16,9.67,1.76,13.4c.63,1.48,3.3,7.1,3.3,7.1s.79-7.16,1.1-9c.25-1.46.8-4.85.8-4.85a55.41,55.41,0,0,0,.13,7.3,31.71,31.71,0,0,0,1.15,4.63,63,63,0,0,0,2.83,6.12s.49-6.49.86-8.5a52.08,52.08,0,0,1,1.79-5.81s-.73,6.43-.61,8.25c.16,2.42-.13,2.68.9,4.87.57,1.21,3.06,6.86,3.06,6.86s.9-6.75,1.1-8.5c.26-2.35,1.33-7.76,1.33-7.76s-.33,6.65-.37,9c0,2.12-.55,3.84.16,5.83.49,1.36,3.3,7.1,3.3,7.1s-.13-8,.88-10.93c.51-1.46,3-7.25,3-7.25a50.61,50.61,0,0,0-1.54,6.08c-.36,3-1.48,6.12-.62,9,.68,2.25,4,11,4,11s.82-8.17,1.12-10.2a16.82,16.82,0,0,1,1.28-4.61c1.1-2.2,5-6.5,5-6.5s-3.26,5.75-4,8.45a30.23,30.23,0,0,0-.85,8.25c.05,1.56.06,3.8.9,5.12,1.19,1.86,4.28,7.12,4.28,7.12s.26-8.33.16-10.7a14.28,14.28,0,0,1,.55-4.85c.79-2.19,4.23-6.5,4.23-6.5s-2.76,5.79-3.29,8.46a13.07,13.07,0,0,0,0,3.16c.19,2.44.05,6.41,1.34,8s3.55,6.86,3.55,6.86,1.6-10.58,2.14-13.1a25.19,25.19,0,0,1,4.5-9.17,11.25,11.25,0,0,1,2-1.67,72.79,72.79,0,0,0-4,7.72,69,69,0,0,0-1.81,7.27c-.66,3.23-1.21,5.88-.13,9,.58,1.66,3.8,6.37,3.8,6.37s2.45-9.42,3.82-12.34c1.29-2.75,5.23-8.68,5.23-8.68a111.12,111.12,0,0,0-4.28,10.39c-.75,2.56-2.49,6.23-1.58,8.73.68,1.85,4.28,6.63,4.28,6.63s2.34-7.58,3.3-9.68c1.75-3.79,7-12.08,7-12.08s-3.82,7.12-5,11.12c-.59,1.93-3,7.69-2.5,9.64a40.88,40.88,0,0,1,.59,7.21s5.66-10.35,6.53-13.58c.65-2.38,4-8.25,4-8.25s-9,21.08-8,23.33c.57,1.34.91,3.8,1.87,4.9,1.4,1.6,1.67,7.49,1.67,7.49s6.37-12.08,8.82-23.12A33.77,33.77,0,0,0,177.38,197c-3-9-9.91-18.35-17.63-25.06-6.65-5.78-17.73-13.31-26.55-16.18-8.25-2.71-29.32-5-29.32-5Z" style="fill:#ffd942;stroke:#17280b;stroke-width:2.5px"/><path d="M241.85,125.53s-7.33-20.7-13.31-28.09-16.65-13.09-22.44-20.5S196.79,56,189.44,50c-3.64-3-10.43-6.75-16.2-7.75a23.44,23.44,0,0,0-11.07.84s12.95,5.59,16.65,11.81,2.75,15.08,6.11,21.52c4.11,7.84,13.29,17.9,18.22,25.25,6.37,9.5,13.8,35.47,13.8,35.47l24.9-11.63Z" style="stroke:#540;stroke-width:2.5px;fill:url(#a)"/><path d="M161.6,42.66s16.57,3.19,21.74,8.71c5.87,6.25,8.18,20.47,12.82,27.65,4,6.27,13.4,13.16,17.74,19.22,6.46,9.08,15,32.61,15,32.61" style="fill:none;stroke:#540;stroke-width:2.5px"/><path d="M274.85,113.68s.09-22-3-30.9S260.57,64.84,257.6,55.9,255.9,33.09,251,25c-2.43-4-7.5-9.9-12.63-12.75a23.83,23.83,0,0,0-10.7-2.95S238,18.94,239.34,26s-2.52,15.15-1.52,22.31c1.22,8.77,6.46,21.34,8.62,29.92,2.78,11.09,1,38,1,38l27.38-2.54Z" style="stroke:#540;stroke-width:2.5px;fill:url(#b)"/><path d="M228.35,8.76s14.5,8.59,17.53,15.55c3.41,7.86.8,22,2.73,30.36,1.69,7.27,8.18,16.91,10.21,24.08,3,10.7,3.12,35.76,3.12,35.76" style="fill:none;stroke:#540;stroke-width:2.5px"/><path d="M259.85,103.33l-61.1-86.7L233.13,117l26.72-13.64Z" style="stroke:#540;stroke-width:2.5px;fill:url(#c)"/><path d="M200.6,19.93l46,90.15" style="fill:none;stroke:#540;stroke-width:2.5px"/><path d="M226.85,123.58,141.2,61l64.72,84,20.94-21.49Z" style="stroke:#540;stroke-width:2.5px;fill:url(#d)"/><path d="M143.6,63.66l72.52,70.65" style="fill:none;stroke:#540;stroke-width:2.5px"/><path d="M14.22,340s5-4.93,6.4-7.5c1.06-2,.88-7.06.88-7.06a64.9,64.9,0,0,1,6.19,4.42c3.31,3.07,5.63,9,8.59,12.39,4,4.61,15.07,13.23,15.07,13.23s-11.8,4.5-17,4c-5.45-.57-13-3.59-16.57-7.73C15.38,348.9,14.25,340,14.25,340Z" style="fill:#ffd942;stroke:#222;stroke-width:2.5px"/><path d="M211.85,454.11c-4.58,3.26-11.75,5.62-17.18,7.09-3.25.88-8.66-.09-10.95,2.36-1.2,1.28-1.38,4.12-.86,5.8.75,2.44,3.58,4.06,4.94,6.22,1.7,2.69,6.51,9.5,6.51,9.5s-16.14-7.87-20-13.57a11,11,0,0,1-1.72-8.8c.55-2.5,3.28-5.6,4.3-7.95s.86-11.09.86-11.09l35.66-8.88,3.86,14.4a59.78,59.78,0,0,1-5.37,4.94Z" style="fill:#ffd942;stroke:#222;stroke-width:2.5px"/><path d="M473.07,193.93l-21.07.71-18.26-34.42,21.75-16.16,23.18,16.86-5.62,33Z" style="fill:#ffd942;stroke:#401e04;stroke-width:2.5px"/><path d="M469.55,205.63s.34-20.18-1.4-24.9c-1.24-3.37-6.32-9.83-6.32-9.83s-6.08,7.79-7,11.24c-1.33,4.88-2.11,23.53-2.11,23.53" style="fill:#ffd942;stroke:#401e04;stroke-width:2.5px"/><path d="M446.45,195.28c-2.1-8-12.75-22.44-12.75-22.44s22.57,10.5,27.39,20.4c2.87,5.87,1.4,23.88,1.4,23.88L447,220.62S448.16,201.87,446.45,195.28Z" style="fill:#ffd942;stroke:#401e04;stroke-width:2.5px"/><path d="M477.42,197.61c2.1-8,12.75-22.44,12.75-22.44s-22.57,10.5-27.39,20.4c-2.87,5.87-1.4,23.88-1.4,23.88l13.34,2.8s1-18.08,2.7-24.64Z" style="fill:#ffd942;stroke:#401e04;stroke-width:2.5px"/><path d="M471.35,228.51s.34-20.19-1.4-24.9c-1.24-3.37-7.72-9.13-7.72-9.13s-6.08,7.08-7,10.58c-1.33,4.88-.71,23.53-.71,23.53" style="fill:#ffd942;stroke:#401e04;stroke-width:2.5px"/><path d="M475.25,229.56c2.1-8,7.84-20.33,7.84-20.33s-19.78,8.42-24.58,18.26c-2.87,5.87-1.4,23.88-1.4,23.88l13.35,2.8s3.09-18.08,4.81-24.62Z" style="fill:#ffd942;stroke:#401e04;stroke-width:2.5px"/><path d="M447.8,229.86c-2.1-8-7.84-20.33-7.84-20.33s17.67,5.6,22.48,15.45c2.87,5.87,3.51,26.69,3.51,26.69l-18.26,2.1s1.82-17.33.11-23.91Z" style="fill:#ffd942;stroke:#401e04;stroke-width:2.5px"/><path d="M468.65,243.13c-.12-5.5-.77-12-1.44-14.25-1-3.39-6.52-7.82-6.52-7.82s-5.64,4.39-6.41,7.87c-.47,2.14-2.47,9.55-2.75,14.17-.37,6,8.6,12.24,8.6,12.24s8.66-6.08,8.54-12.2Z" style="fill:#ffd942;stroke:#401e04;stroke-width:2.5px"/><path d="M475.32,260.53c2.1-8,7.84-20.32,7.84-20.32s-19.78,3.63-24.58,13.48c-2.87,5.87-1.4,28.65-1.4,28.65l13.35,2.8s3.09-18.07,4.81-24.62Z" style="fill:#ffd942;stroke:#401e04;stroke-width:2.5px"/><path d="M445.1,256c-2.1-8-7.84-20.33-7.84-20.33s17.67,5.6,22.48,15.45c2.87,5.87,3.51,26.69,3.51,26.69L445,280s1.82-17.32.11-23.91Z" style="fill:#ffd942;stroke:#401e04;stroke-width:2.5px"/><path d="M468.95,280.11A37.4,37.4,0,0,0,471,268c-.15-5.47-2.62-10.57-3.44-12.82-1.24-3.37-6.32-9.13-6.32-9.13s-6.08,7.08-7,10.5c-.58,2.12-3.86,6.75-4.21,11.32-.46,6,2.11,12.21,2.11,12.21" style="fill:#ffd942;stroke:#401e04;stroke-width:2.5px"/><path d="M476.75,290.53c2.1-8,7.84-20.32,7.84-20.32s-19.78,3.63-24.58,13.48c-2.87,5.87-1.4,28.65-1.4,28.65l16.08,2.8s.36-18.07,2.08-24.62Z" style="fill:#ffd942;stroke:#401e04;stroke-width:2.5px"/><path d="M444.12,289.18c-2.1-8-3.74-19.65-3.74-19.65s15.68,2.95,20.48,12.82c2.87,5.87,1.4,28.65,1.4,28.65l-16.07,2.81s-.36-18.07-2.07-24.62Z" style="fill:#ffd942;stroke:#401e04;stroke-width:2.5px"/><path d="M470.15,307.11c-.15-6.84-2.59-15.25-3.4-18.07-1.22-4.21-6.25-9.37-6.25-9.37s-6.69,6.12-7.62,10.45c-.57,2.65-3.13,11.21-3.48,16.94-.45,7.46,10.41,15.22,10.41,15.22s10.5-7.57,10.34-15.15Z" style="fill:#ffd942;stroke:#401e04;stroke-width:2.5px"/><path d="M475.32,325.41c2.1-8,7.15-20.32,7.15-20.32s-19.78,3.63-24.58,13.48c-2.87,5.87-1.4,28.65-1.4,28.65l18.82,4.85s-1.69-20.11,0-26.66Z" style="fill:#ffd942;stroke:#401e04;stroke-width:2.5px"/><path d="M444.87,325.71c-2.1-8-7.15-20.32-7.15-20.32s19.78,3.63,24.58,13.48c2.87,5.87,1.4,28.65,1.4,28.65l-17.61,6s.49-21.23-1.22-27.82Z" style="fill:#ffd942;stroke:#401e04;stroke-width:2.5px"/><path d="M470.15,341.61a79,79,0,0,0-2.71-17.4c-1.22-4.21-6.93-10.05-6.93-10.05s-6.69,6.12-7.62,10.45c-.57,2.65-3.13,11.21-3.48,16.94-.45,7.46,10.41,15.22,10.41,15.22s10.5-7.57,10.34-15.15Z" style="fill:#ffd942;stroke:#401e04;stroke-width:2.5px"/><path d="M478,376.93s-3.06-18.07-1.34-24.62c2.1-8,4.43-22.39,4.43-22.39s-12.26,5.69-17.07,15.53c-2.87,5.87-4.81,26.61-4.81,26.61L478,376.93Z" style="fill:#ffd942;stroke:#401e04;stroke-width:2.5px"/><path d="M449.82,380.08s-1.37-17.51-3.44-24c-2.54-7.9-5.66-22.1-5.66-22.1s12.56,5,17.91,14.56c3.19,5.7,6.29,26.32,6.29,26.32l-15.07,5.21Z" style="fill:#ffd942;stroke:#401e04;stroke-width:2.5px"/><path d="M471.57,370.26c-.15-6.84-1.21-15.93-2-18.74-1.22-4.21-7.61-8.69-7.61-8.69s-6.69,6.82-7.62,11.13c-.57,2.65-3.13,10.5-3.48,16.26-.45,7.46,10.41,15.21,10.41,15.21s10.5-7.57,10.34-15.17Z" style="fill:#ffd942;stroke:#401e04;stroke-width:2.5px"/><path d="M482.82,389.16s-2.72-3.48-1.71-10.19c1.24-8.21,2-22.72,2-22.72s-11.6,6.95-15.34,17.24c-2.23,6.14-2.16,14.08-2.16,14.08Z" style="fill:#ffd942;stroke:#401e04;stroke-width:2.5px"/><path d="M447.42,397.18s1.45-13.78-.91-20.13c-2.89-7.79-6.63-21.82-6.63-21.82s12.75,4.43,18.53,13.76c3.44,5.56,6.91,26.64,6.91,26.64l-17.89,1.57Z" style="fill:#ffd942;stroke:#401e04;stroke-width:2.5px"/><path d="M472.25,394.56s.1-12.9-.72-15.71c-1.22-4.21-7.61-8.69-7.61-8.69s-6.69,6.82-7.62,11.13c-.57,2.65-.71,12.4-.71,12.4l16.65.88Z" style="fill:#ffd942;stroke:#401e04;stroke-width:2.5px"/><path d="M465.5,179.61,454.25,171s-7.24-7.3-9.49-11c-2.05-3.41-4.86-12.37-4.86-12.37l7.06,6.19-7.5-12.15a53,53,0,0,1-1.77-7.07c-.38-3.89.66-13,.66-13l4.63,6.19s-3.44-9.41-2.21-13.25l3.61-11.25s3-7,4.34-9.73c2.71-5.58,6.46-8.83,11.71-12.15A39.29,39.29,0,0,1,471.27,77c9.55-2,22.06-2.09,22.06-2.09l-28.94,29.4-2,47.47,3.09,27.83Z" style="fill:#ffd942;stroke:#112b00;stroke-width:2px"/><path d="M462.8,178.86s7.79-5.72,9.92-9.17c.84-1.37,3.88-6.83,3.88-6.83s-6.3,3.49-8,4.29l-4.42,2.15a54.5,54.5,0,0,0,5.87-4.33,31.57,31.57,0,0,0,3.12-3.62,64,64,0,0,0,3.36-5.85s-5.58,3.34-7.43,4.21a51.83,51.83,0,0,1-5.78,1.9s5.67-3.13,7.09-4.28c1.88-1.53,2.25-1.45,3.46-3.55.66-1.17,3.82-6.46,3.82-6.46l-7.57,4c-2.07,1.14-7.1,3.41-7.1,3.41s5.62-3.58,7.57-4.89c1.76-1.19,3.46-1.77,4.67-3.5.82-1.18,3.88-6.83,3.88-6.83s-6.47,4.74-9.44,5.59c-1.48.43-7.66,1.72-7.66,1.72a49.92,49.92,0,0,0,5.84-2.24c2.63-1.42,5.85-2.33,7.69-4.7,1.46-1.87,6.68-9.6,6.68-9.6s-7.15,4-9,5a16.73,16.73,0,0,1-4.5,1.61c-2.42.37-8.17-.29-8.17-.29s6.57-.67,9.22-1.61a30,30,0,0,0,7.23-4.08c1.24-.95,3.07-2.25,3.66-3.69.83-2,3.34-7.6,3.34-7.6s-6.93,4.59-8.82,6.08a14.24,14.24,0,0,1-4.28,2.36c-2.24.62-7.76.31-7.76.31s6.32-1.09,8.8-2.21a13.06,13.06,0,0,0,2.6-1.79c1.88-1.56,5.2-3.74,5.79-5.75s3.55-6.86,3.55-6.86-9.58,4.83-11.93,5.83a25,25,0,0,1-10.1,1.62,11.18,11.18,0,0,1-2.51-.64,72,72,0,0,0,8.62-1.2,70.29,70.29,0,0,0,7-2.72c3-1.33,5.5-2.42,7.42-5.09,1-1.42,3-6.75,3-6.75s-9.11,3.44-12.29,4c-3,.53-10.1.74-10.1.74s7.77-1.42,11-2.51c2.52-.86,6.53-1.57,8-3.75C483.22,99.68,485,94,485,94s-7.5,2.47-9.82,2.9c-4.11.77-13.87,1.27-13.87,1.27s8-1,12-2.33c1.91-.64,8-2,9.31-3.53a40.85,40.85,0,0,1,5.54-4.64S476.43,89,473.3,90.16c-2.32.84-9,1.54-9,1.54s22.41-4.85,23.67-6.91c.77-1.25,2.57-2.94,2.92-4.36.49-2.07,5.14-5.69,5.14-5.69s-13.57,1.79-24,6.17a33.72,33.72,0,0,0-14,11.22c-5.62,7.66-9.25,18.7-10.26,28.87-.87,8.77-.62,22.16,2.12,31,2.57,8.33,12.82,26.87,12.82,26.87Z" style="fill:#ffd942;stroke:#17280b;stroke-width:2.5px"/><path d="M465.5,140.08s-4.5,8.55-7.63,11.15c-1.23,1-6.16,4.84-6.16,4.84s2.54-6.74,3.08-8.5c.44-1.41,1.48-4.69,1.48-4.69a55,55,0,0,1-3.43,6.44,31.94,31.94,0,0,1-3.12,3.62,63.82,63.82,0,0,1-5.32,4.18s2.49-6,3.09-8a51.56,51.56,0,0,0,1-6s-2.25,6.07-3.2,7.64c-1.24,2.08-1.1,2.45-3,3.94-1.06.83-5.84,4.72-5.84,4.72s2.25-6.43,2.87-8.07c.82-2.21,2.33-7.5,2.33-7.5S439,150,438,152.08c-.93,1.91-1.24,3.67-2.78,5.14-1.05,1-6.16,4.84-6.16,4.84s3.74-7.09,4.15-10.15c.2-1.52.59-7.84.59-7.84a50.33,50.33,0,0,1-1.37,6.1c-1,2.81-1.46,6.13-3.52,8.33-1.63,1.72-8.52,8-8.52,8s3-7.67,3.62-9.6a16.74,16.74,0,0,0,.94-4.69c0-2.45-1.48-8-1.48-8s.3,6.6-.25,9.35a30.49,30.49,0,0,1-3,7.75c-.75,1.37-1.78,3.37-3.12,4.16-1.9,1.12-7,4.41-7,4.41s3.53-7.5,4.7-9.61a14.11,14.11,0,0,0,1.7-4.58c.29-2.31-.82-7.71-.82-7.71s-.16,6.41-.9,9a13.66,13.66,0,0,1-1.39,2.84c-1.27,2.09-2.94,5.68-4.84,6.56s-6.27,4.5-6.27,4.5,3.37-10.18,4-12.64A25.09,25.09,0,0,0,406.4,148a11.54,11.54,0,0,0-1-2.38,72.3,72.3,0,0,1,.07,8.7,69.47,69.47,0,0,1-1.68,7.3c-.87,3.18-1.58,5.79-4,8.08-1.26,1.21-6.27,4-6.27,4s2.08-9.51,2.18-12.74c.09-3-.73-10.11-.73-10.11a111.32,111.32,0,0,1-.89,11.21c-.49,2.62-.59,6.68-2.54,8.5-1.44,1.35-6.82,4-6.82,4s1.35-7.82,1.43-10.12c.16-4.18-.77-13.91-.77-13.91s.19,8.07-.55,12.18c-.35,2-.64,6.46-2,8s-7.35,5.61-7.35,5.61,2.25-10.46,2.93-13.72c.5-2.42,1-8.17,1-8.17s-1.85,7.21-2.85,10.25c-.75,2.29-1,6-2.87,7.5-1.12.94-3.42.37-4.78.91a39.34,39.34,0,0,0-5.95,3.86s9-21.83,16-28.72c6.75-6.68,17.14-11.88,27.07-14.33,8.54-2.14,21.82-3.85,31-2.44,8.61,1.33,28.45,8.78,28.45,8.78Z" style="fill:#ffd942;stroke:#17280b;stroke-width:2.5px"/><path d="M447.2,131.08s8.12,5.25,12.07,6c1.57.31,7.73,1.23,7.73,1.23s-5.5-4.66-6.83-5.93c-1.06-1-3.58-3.37-3.58-3.37a54,54,0,0,0,6.13,4,31,31,0,0,0,4.48,1.63,64.12,64.12,0,0,0,6.66,1.07s-5.1-4-6.57-5.45a52.62,52.62,0,0,1-3.82-4.72s4.94,4.2,6.51,5.12c2.09,1.22,2.15,1.61,4.57,2,1.33.2,7.39,1.29,7.39,1.29s-5.1-4.5-6.44-5.66c-1.8-1.53-5.7-5.44-5.7-5.44s5.33,4,7.25,5.33c1.74,1.21,2.88,2.61,4.94,3.13,1.4.35,7.73,1.23,7.73,1.23s-6.73-4.37-8.57-6.84c-.92-1.23-4.33-6.55-4.33-6.55a49.71,49.71,0,0,0,4.16,4.67c2.25,2,4.25,4.64,7.11,5.54,2.25.71,11.32,2.85,11.32,2.85s-6.31-5.25-7.83-6.62a16.49,16.49,0,0,1-3.1-3.64c-1.21-2.13-2.62-7.74-2.62-7.74s2.95,5.91,4.77,8a30.16,30.16,0,0,0,6.37,5.32c1.32.83,3.19,2.07,4.75,2.12,2.21.06,8.25.43,8.25.43s-6.75-4.86-8.79-6.11a14.14,14.14,0,0,1-3.72-3.17c-1.38-1.87-3-7.14-3-7.14s3.26,5.53,5.18,7.46a13,13,0,0,0,2.6,1.8c2.13,1.21,5.34,3.53,7.43,3.38s7.67.89,7.67.89-7.9-7.25-9.68-9.08a25.08,25.08,0,0,1-5.09-8.87,11.34,11.34,0,0,1-.29-2.57,71.75,71.75,0,0,0,4.17,7.63,69,69,0,0,0,5,5.56c2.31,2.35,4.2,4.29,7.39,5.13,1.7.45,7.41.41,7.41.41s-6.45-7.3-8.1-10.07c-1.56-2.61-4.28-9.19-4.28-9.19s4.07,6.75,6.22,9.36c1.7,2,3.75,5.55,6.36,6.2,1.91.48,7.89.15,7.89.15s-5-6.17-6.19-8.14c-2.18-3.57-6.1-12.53-6.1-12.53s3.75,7.14,6.41,10.37c1.28,1.56,3.71,5.33,5.62,6s9.15,1.32,9.15,1.32-7.06-8-9.24-10.58c-1.61-1.87-4.87-6.64-4.87-6.64s5.13,5.4,7.48,7.58c1.78,1.63,3.8,4.72,6.17,5.17,1.43.28,3.17-1.35,4.61-1.53a39,39,0,0,1,7.07.47S536.11,98.61,526.65,96c-9.15-2.55-20.76-2-30.63.63-8.51,2.29-20.94,7.27-28.24,13-6.87,5.36-20.58,21.53-20.58,21.53Z" style="fill:#ffd942;stroke:#17280b;stroke-width:2.5px"/><path d="M475.1,141.58l-4-13.58s-4.22-9.37-6.91-12.83c-2.45-3.14-9.82-9-9.82-9L457.6,115,449,103.7a52.48,52.48,0,0,0-6-4.18c-3.5-1.75-12.4-4-12.4-4l4.11,6.55S427,96.39,423.11,95.2c-4.85-1.49-16.88-1-16.88-1l4.08,4.17s-6.61-3.49-9.64-3.22c-6.18.53-10.57,2.87-15.53,6.58a39.49,39.49,0,0,0-7.91,8.58c-5.25,8.21-9.82,19.85-9.82,19.85l37.8-16.49,45.07,15.15,24.9,12.83Z" style="fill:#ffd942;stroke:#112b00;stroke-width:2px"/><path d="M475.4,138.73s-8.14,5.23-12.15,6c-1.58.3-7.74,1.19-7.74,1.19s5.52-4.63,6.86-5.9l3.59-3.36a57.39,57.39,0,0,1-6.15,3.94,31.75,31.75,0,0,1-4.49,1.62,63.78,63.78,0,0,1-6.66,1s5.12-4,6.6-5.42a51.59,51.59,0,0,0,3.84-4.71s-4.95,4.18-6.53,5.08c-2.1,1.21-2.16,1.6-4.56,2-1.33.2-7.4,1.25-7.4,1.25s5.12-4.49,6.46-5.62c1.81-1.52,5.72-5.41,5.72-5.41s-5.35,4-7.28,5.33c-1.74,1.21-2.89,2.59-4.94,3.11-1.4.35-7.74,1.19-7.74,1.19s6.75-4.35,8.6-6.83c.93-1.23,4.36-6.54,4.36-6.54a50.23,50.23,0,0,1-4.19,4.65c-2.25,1.94-4.28,4.63-7.13,5.5-2.25.69-11.32,2.8-11.32,2.8s6.35-5.23,7.86-6.59a16.9,16.9,0,0,0,3.12-3.62c1.22-2.12,2.65-7.72,2.65-7.72s-3,5.9-4.81,8a28.69,28.69,0,0,1-6.4,5.25c-1.33.82-3.2,2.06-4.76,2.09-2.21,0-8.25.39-8.25.39s6.75-4.82,8.81-6.08a14,14,0,0,0,3.73-3.16c1.39-1.87,3.07-7.12,3.07-7.12s-3.29,5.51-5.22,7.42a13.27,13.27,0,0,1-2.6,1.79c-2.13,1.2-5.36,3.51-7.44,3.34s-7.67.86-7.67.86,7.94-7.21,9.71-9.08a25,25,0,0,0,5.13-8.84,11.56,11.56,0,0,0,.3-2.57,71.66,71.66,0,0,1-4.21,7.61,69.09,69.09,0,0,1-5,5.54c-2.32,2.34-4.22,4.27-7.41,5.1-1.7.44-7.41.38-7.41.38s6.48-7.27,8.15-10c1.57-2.6,4.32-9.16,4.32-9.16s-4.1,6.74-6.27,9.33c-1.71,2-3.8,5.53-6.38,6.17-1.91.46-7.89.11-7.89.11s5-6.15,6.23-8.12c2.19-3.56,6.16-12.5,6.16-12.5s-3.8,7.12-6.46,10.34c-1.28,1.55-4.71,6.83-6.62,7.43a41.46,41.46,0,0,0-6.32,3.51s5.48-10.45,7.66-13c1.62-1.87,4.67-7.88,4.67-7.88S381,128,378.62,128.47c-1.43.27-3.67,1.35-5.11,1.16-2.11-.28-7.16,2.77-7.16,2.77s6.52-12,14.32-20.17a33.52,33.52,0,0,1,15.48-9c9.16-2.5,20.77-1.93,30.63.76,8.5,2.33,20.91,7.37,28.18,13.08,6.85,5.38,20.48,21.62,20.48,21.62Z" style="fill:#ffd942;stroke:#17280b;stroke-width:2.5px"/><path d="M459.87,150.51l8.61-11.25s7.3-7.24,11-9.5c3.41-2.05,12.37-4.86,12.37-4.86L485.7,132l12.15-7.5a53,53,0,0,1,7.06-1.77c3.89-.38,13,.66,13,.66L511.76,128S521,125.5,525,125.79c5.06.35,16.12,5.08,16.12,5.08l-5.32,2.43s7.42-.89,10.16.44c5.58,2.71,8.84,6.46,12.15,11.71a39.29,39.29,0,0,1,4.31,10.84c2,9.55,2.09,22.07,2.09,22.07l-29.4-28.93-47.47-2-27.82,3.09Z" style="fill:#ffd942;stroke:#112b00;stroke-width:2px"/><path d="M460.55,147.73s5.72,7.79,9.17,9.92c1.37.84,6.82,3.88,6.82,3.88s-3.49-6.3-4.29-8c-.64-1.33-2.15-4.42-2.15-4.42a54.5,54.5,0,0,0,4.33,5.87,31.57,31.57,0,0,0,3.62,3.12,64.22,64.22,0,0,0,5.84,3.36s-3.35-5.58-4.21-7.42a51.84,51.84,0,0,1-1.9-5.78s3.13,5.67,4.28,7.09c1.53,1.88,1.45,2.25,3.55,3.46,1.16.66,6.46,3.83,6.46,3.83s-3.17-6-4-7.58c-1.14-2.07-3.4-7.1-3.4-7.1s3.58,5.62,4.89,7.58c1.19,1.75,1.77,3.46,3.5,4.67,1.19.83,6.82,3.88,6.82,3.88s-4.74-6.47-5.6-9.43c-.43-1.48-1.72-7.67-1.72-7.67a49.91,49.91,0,0,0,2.24,5.83c1.43,2.63,2.33,5.85,4.7,7.69,1.87,1.46,9.6,6.68,9.6,6.68s-4.05-7.15-5-9a16.73,16.73,0,0,1-1.61-4.5c-.37-2.42.29-8.17.29-8.17s.67,6.57,1.61,9.22a30,30,0,0,0,4.08,7.23c.95,1.24,2.25,3.07,3.69,3.66,2,.83,7.6,3.34,7.6,3.34s-4.59-6.93-6.07-8.82a14.33,14.33,0,0,1-2.36-4.28c-.62-2.24-.31-7.75-.31-7.75s1.1,6.32,2.21,8.8a13.07,13.07,0,0,0,1.79,2.6c1.56,1.88,3.74,5.2,5.74,5.79s6.86,3.55,6.86,3.55-4.83-9.58-5.83-11.92a25,25,0,0,1-1.62-10.09,11.18,11.18,0,0,1,.64-2.5A72,72,0,0,0,522,153a70.3,70.3,0,0,0,2.72,7c1.33,3,2.41,5.5,5.09,7.42,1.43,1,6.75,3,6.75,3s-3.44-9.11-4-12.29c-.53-3-.74-10.1-.74-10.1s1.42,7.77,2.51,11c.86,2.52,1.57,6.53,3.75,8,1.62,1.12,7.32,2.93,7.32,2.93s-2.47-7.58-2.9-9.83c-.77-4.11-1.27-13.87-1.27-13.87s1,8,2.32,12c.64,1.91,2,8,3.53,9.31a40.84,40.84,0,0,1,4.64,5.54s-1.37-11.71-2.51-14.85c-.84-2.32-1.54-9-1.54-9s4.85,22.41,6.91,23.67c1.24.76,2.94,2.57,4.36,2.92,2.07.5,5.69,5.14,5.69,5.14s-1.79-13.58-6.16-24a33.72,33.72,0,0,0-11.22-14c-7.66-5.62-18.7-9.25-28.87-10.26-8.77-.87-22.16-.62-31,2.12-8.32,2.57-26.87,12.83-26.87,12.83Z" style="fill:#ffd942;stroke:#17280b;stroke-width:2.5px"/><path d="M453.5,150.51s.31,9.67,1.94,13.37c.65,1.47,3.4,7,3.4,7s.69-7.17,1-9c.22-1.46.73-4.86.73-4.86a55.7,55.7,0,0,0,.24,7.3A31.17,31.17,0,0,0,462,169a63.85,63.85,0,0,0,2.92,6.08s.4-6.5.73-8.51a52.43,52.43,0,0,1,1.7-5.83s-.63,6.45-.49,8.25c.2,2.42-.09,2.68,1,4.86.59,1.21,3.16,6.83,3.16,6.83s.8-6.75,1-8.51c.23-2.35,1.21-7.78,1.21-7.78s-.23,6.66-.24,9c0,2.12-.5,3.85.24,5.83.51,1.35,3.4,7,3.4,7s-.25-8,.73-10.94c.49-1.46,2.92-7.3,2.92-7.3a51.76,51.76,0,0,0-1.46,6.08c-.31,3-1.39,6.14-.49,9,.71,2.25,4.13,10.94,4.13,10.94s.71-8.19,1-10.21a16.87,16.87,0,0,1,1.21-4.62c1.06-2.21,4.86-6.56,4.86-6.56s-3.17,5.8-3.89,8.51a29.94,29.94,0,0,0-.73,8.25c.07,1.56.12,3.8,1,5.11,1.21,1.84,4.38,7,4.38,7s.13-8.33,0-10.7a14,14,0,0,1,.49-4.86c.75-2.21,4.13-6.56,4.13-6.56s-2.68,5.83-3.16,8.51a13.48,13.48,0,0,0,0,3.16c.22,2.44.14,6.4,1.46,8s3.64,6.83,3.64,6.83,1.44-10.63,1.94-13.13a25.1,25.1,0,0,1,4.38-9.24,11.32,11.32,0,0,1,1.94-1.7,73.67,73.67,0,0,0-3.89,7.78,69.13,69.13,0,0,0-1.7,7.3c-.62,3.24-1.12,5.9,0,9,.6,1.65,3.89,6.32,3.89,6.32s2.32-9.46,3.64-12.4c1.25-2.77,5.11-8.75,5.11-8.75A112.26,112.26,0,0,0,508,201.57c-.71,2.57-2.4,6.26-1.46,8.75.7,1.84,4.38,6.56,4.38,6.56s2.23-7.61,3.16-9.73c1.69-3.83,6.82-12.16,6.82-12.16s-3.71,7.17-4.86,11.18c-.55,1.94-2.25,6.09-1.7,8s4.13,8.25,4.13,8.25,2.56-10.39,3.4-13.58c.62-2.39,2.68-7.78,2.68-7.78s-1.5,7.3-1.94,10.46c-.33,2.39-1.71,5.81-.73,8,.59,1.33,2.91,1.84,3.89,2.92a39.07,39.07,0,0,1,3.64,6.08s1.54-23.53-1.7-32.83c-3.13-9-10.17-18.21-18-24.83-6.73-5.68-17.92-13.06-26.74-15.83-8.32-2.59-29.4-4.62-29.4-4.62Z" style="fill:#ffd942;stroke:#17280b;stroke-width:2.5px"/><path d="M464.3,152.46l-13.5-4.21s-10.14-1.69-14.5-1.37c-4,.29-12.9,3.18-12.9,3.18l9.13,2.2-14.25.89a54.87,54.87,0,0,0-6.82,2.64c-3.4,1.94-10.25,8.07-10.25,8.07l7.73.21s-9,3.3-12.07,5.86c-3.92,3.21-10.22,13.46-10.22,13.46l5.73-1.08s-6.57,3.55-8,6.23c-3,5.44-3.47,10.38-3.15,16.58a39.45,39.45,0,0,0,2.75,11.33c3.89,9,11,19.21,11,19.21l7.25-40.58L439.79,166l24.49-13.58Z" style="fill:#ffd942;stroke:#112b00;stroke-width:2px"/><path d="M462.12,150.66s-.16,9.67-1.76,13.4c-.63,1.48-3.3,7.1-3.3,7.1s-.79-7.16-1.1-9c-.25-1.46-.8-4.85-.8-4.85a55.41,55.41,0,0,1-.13,7.3,31.71,31.71,0,0,1-1.15,4.63,63,63,0,0,1-2.83,6.12s-.49-6.49-.86-8.5a52.08,52.08,0,0,0-1.79-5.81s.73,6.43.61,8.25c-.16,2.42.13,2.68-.9,4.87-.57,1.21-3.06,6.86-3.06,6.86s-.9-6.75-1.1-8.5c-.26-2.35-1.33-7.76-1.33-7.76s.33,6.65.38,9c0,2.12.55,3.84-.16,5.83-.49,1.36-3.3,7.1-3.3,7.1s.13-8-.88-10.93c-.51-1.46-3-7.25-3-7.25a50.61,50.61,0,0,1,1.54,6.08c.36,3,1.48,6.12.62,9-.68,2.25-4,11-4,11s-.82-8.17-1.12-10.2a16.82,16.82,0,0,0-1.28-4.61c-1.1-2.2-5-6.5-5-6.5s3.26,5.75,4,8.45a30.23,30.23,0,0,1,.85,8.25c-.05,1.56-.06,3.8-.9,5.12-1.19,1.86-4.28,7.12-4.28,7.12s-.26-8.33-.16-10.7a14.28,14.28,0,0,0-.55-4.85c-.79-2.19-4.23-6.5-4.23-6.5s2.76,5.79,3.29,8.46a13.07,13.07,0,0,1,0,3.16c-.19,2.44-.05,6.41-1.34,8s-3.55,6.86-3.55,6.86-1.6-10.58-2.14-13.1a25.19,25.19,0,0,0-4.5-9.17,11.25,11.25,0,0,0-2-1.67,72.79,72.79,0,0,1,4,7.72,69,69,0,0,1,1.81,7.27c.66,3.23,1.21,5.88.13,9-.58,1.66-3.8,6.37-3.8,6.37s-2.45-9.42-3.82-12.34c-1.29-2.75-5.23-8.68-5.23-8.68a111.12,111.12,0,0,1,4.28,10.39c.75,2.56,2.49,6.23,1.58,8.73-.68,1.85-4.28,6.63-4.28,6.63s-2.34-7.58-3.3-9.68c-1.75-3.79-7-12.08-7-12.08s3.82,7.12,5,11.12c.59,1.93,3,7.69,2.5,9.64a40.88,40.88,0,0,0-.59,7.21s-5.66-10.35-6.53-13.58c-.65-2.38-4-8.25-4-8.25s9,21.08,8,23.33c-.57,1.34-.91,3.8-1.87,4.9-1.4,1.6-1.67,7.49-1.67,7.49s-6.37-12.08-8.82-23.12A33.77,33.77,0,0,1,388.66,197c3-9,9.91-18.35,17.63-25.06,6.65-5.78,17.73-13.31,26.55-16.18,8.25-2.71,29.32-5,29.32-5Z" style="fill:#ffd942;stroke:#17280b;stroke-width:2.5px"/><path d="M324.2,125.53s7.33-20.7,13.31-28.09,16.65-13.09,22.44-20.5S369.26,56,376.6,50c3.64-3,10.43-6.75,16.2-7.75a23.44,23.44,0,0,1,11.07.84s-12.95,5.59-16.65,11.81S384.47,70,381.11,76.45c-4.11,7.84-13.29,17.9-18.22,25.25-6.37,9.5-13.8,35.47-13.8,35.47l-24.9-11.63Z" style="stroke:#540;stroke-width:2.5px;fill:url(#e)"/><path d="M404.45,42.66s-16.57,3.19-21.74,8.71c-5.87,6.25-8.18,20.47-12.82,27.65-4,6.27-13.4,13.16-17.74,19.22-6.46,9.08-15,32.61-15,32.61" style="fill:none;stroke:#540;stroke-width:2.5px"/><path d="M291.2,113.68s-.09-22,3-30.9,11.23-17.94,14.2-26.88S310.14,33.09,315,25c2.43-4,7.5-9.9,12.63-12.75a23.83,23.83,0,0,1,10.7-2.95S328.07,18.94,326.7,26s2.52,15.15,1.52,22.31c-1.22,8.77-6.46,21.34-8.62,29.92-2.78,11.09-1,38-1,38l-27.38-2.54Z" style="stroke:#540;stroke-width:2.5px;fill:url(#f)"/><path d="M337.7,8.76s-14.5,8.59-17.53,15.55c-3.41,7.86-.8,22-2.73,30.36-1.69,7.27-8.18,16.91-10.21,24.08-3,10.7-3.12,35.76-3.12,35.76" style="fill:none;stroke:#540;stroke-width:2.5px"/><path d="M306.2,103.33l61.1-86.7L332.91,117l-26.72-13.64Z" style="stroke:#540;stroke-width:2.5px;fill:url(#g)"/><path d="M365.45,19.93l-46,90.15" style="fill:none;stroke:#540;stroke-width:2.5px"/><path d="M339.2,123.58,424.85,61l-64.72,84-20.94-21.49Z" style="stroke:#540;stroke-width:2.5px;fill:url(#h)"/><path d="M422.45,63.66l-72.52,70.65" style="fill:none;stroke:#540;stroke-width:2.5px"/><path d="M551.82,340s-5-4.93-6.4-7.5c-1.06-2-.88-7.06-.88-7.06a64.9,64.9,0,0,0-6.19,4.42c-3.31,3.07-5.63,9-8.59,12.39-4,4.61-15.07,13.23-15.07,13.23s11.8,4.5,17,4c5.45-.57,13-3.59,16.57-7.73,2.4-2.78,3.53-11.71,3.53-11.71Z" style="fill:#ffd942;stroke:#222;stroke-width:2.5px"/><path d="M354.2,454.11c4.58,3.26,11.75,5.62,17.18,7.09,3.25.88,8.66-.09,10.95,2.36,1.2,1.28,1.38,4.12.86,5.8-.75,2.44-3.58,4.06-4.94,6.22-1.7,2.69-6.51,9.5-6.51,9.5s16.14-7.87,20-13.57a11,11,0,0,0,1.72-8.8c-.55-2.5-3.28-5.6-4.3-7.95s-.86-11.09-.86-11.09l-35.66-8.88-3.86,14.4a59.78,59.78,0,0,0,5.37,4.94Z" style="fill:#ffd942;stroke:#222;stroke-width:2.5px"/><path d="M268,105.13l15-105,15,105Z" style="stroke:#540;stroke-width:2.5px;fill:url(#i)"/><path d="M283,3.86V105.11" style="fill:none;stroke:#540;stroke-width:2.5px"/><ellipse cx="283.02" cy="194.08" rx="114.37" ry="112.05" style="stroke:#540;stroke-width:2.5px;fill:url(#j)"/><path d="M151.77,136.26v222.3c0,10.66,21.15,31.27,35,36.65l72.15,28.05c13.84,5.38,24.37,19.26,24.37,29.93,0-10.66,6.43-24.9,20.4-29.93L382,395.2c14-5,32.32-26,32.32-36.64V136.27Z" style="fill:#00ab68;stroke:#222;stroke-width:3.5px"/><path d="M188.37,221.61c1.76-4.84,11.17-12.37,15.41-19.13s4.66-16.7,10.28-24.08,18.69-16.08,29.47-19.29,32.22-.8,39.49-2.69,5.07-.45,9.24-1.53,9.19-.4,14-1.29,11-3.7,15.35-4.64,11.94-2.17,17.4-1,14.71,5.48,19.29,10.15c2.86,2.92,3.88,8.63,6.52,11.75,7.06,8.33,22.83,9.46,26.86,19.58,4.81,12.08-1.35,32.62-6,44.79S369.1,260,363.34,271.8c-3.3,6.75-5.35,17.4-10.86,22.49-6.08,5.63-17.93,4.17-24.67,9-3.37,2.41-4.43,9.29-8.12,11.17-2.45,1.25-6.62-1.09-9.13,0-6.92,3-10.75,13.17-17.25,17-2.17,1.27-7.87,2.78-10.28,2-3.09-1-5.62-4.38-7.11-7.26-4.87-9.46-6-34-6-34s-11.46,8.81-16.12,13.48a69.86,69.86,0,0,0-9.41,12.18c-3.08,5.33-7.27,13.5-7.27,13.5s-5.72-3.67-6.08-9.08c-.08-1.23-1.38-3.4-1.34-5.8a68.85,68.85,0,0,1,1.65-12.15s-5.78,11.7-5.92,17.7,3,12.49,6.64,17.12c3.9,5,8.41,9.71,14,12.75s11.33,6,17.48,7.22a63.07,63.07,0,0,0,11.83,1.36,62,62,0,0,0,12.08-1.48c5.43-1.09,9.95-3.2,14-5,4.5-1.94,10.5-4.89,14.21-8.12s6.6-9.69,10.16-13.2a79.73,79.73,0,0,1,8.12-6.09s2.45,3.32,4,4c3.2,1.39,8.35-.76,11.62.43,1.39.5,3.88,3,3.88,3s-4.63,3.17-6.46,4.74c-2.36,2-5.15,5.09-7.32,7.32-4.72,4.84-10.58,11.78-15.5,16.37-4.39,4-10.33,9.52-15.5,12.49-6.59,3.83-16.28,7.3-23.68,9.08a73.78,73.78,0,0,1-12.92,1.29,109.75,109.75,0,0,1-15.94-.43c-6.84-.87-17-4.07-23.25-6.89a68.64,68.64,0,0,1-16.79-10.77c-3.08-2.71-8.38-6.91-12.08-10.66-4.07-4.1-6-5.74-8.75-9.26-4.16-5.25-6.75-8.14-9.12-14.42-1.54-4.15-.93-11.59-1.9-15.9-.27-1.2-1.5-7.12-1.73-8.33a115.65,115.65,0,0,1-1.73-23.68c.28-4.94.71-11.63,2.15-16.37.42-1.38,1.82-2.9,2.15-4.3a12.58,12.58,0,0,0,0-5.59c-.54-1.9-2.91-3.71-3.44-5.59-1.19-4.23.16-12.34,1.29-15.94s4.07-4.65,4.74-7.32-.94-3.37.83-8.21Z" style="fill:#fff;stroke:#222;stroke-width:3px"/><path d="M172.7,371.16a43.53,43.53,0,0,0,8-1.48c5.22-2,11.41-6.19,15.67-9.75a144.1,144.1,0,0,0,11.24-10.36,161,161,0,0,0,14.5-17.75c3.08-4.58,6.29-11.14,8.87-16,2-3.75,6.83-12.75,6.83-12.75s-3-5.25-5.59-6.21c-2.91-1.08-10.11-.67-10.11-.67s-1.82,6.08-3.85,11.33c-1.73,4.5-4.35,10.45-6.51,14.79a137,137,0,0,1-7.39,13.31c-3.11,4.7-7.94,10.46-11.54,14.79-3.25,3.92-7.69,9.08-11.24,12.72-2.62,2.7-8.87,8-8.87,8Z" style="fill:#fff;stroke:#222;stroke-width:3px"/><path d="M299.9,354.88l-2.18,1.48s.53.78,1.1,1.75a14.22,14.22,0,0,1,1.27,2.67,15.39,15.39,0,0,1,0,3.21c-.11,1.21-.25,2.23-.25,2.23s2.25-1,2.37-2.33.74-2.43.46-3.67a12.71,12.71,0,0,0-1.57-3.44c-.62-1.06-1.19-1.9-1.19-1.9Zm-15,3.92-1.12,2.37s.71.34,1.52.82a10.89,10.89,0,0,1,1.85,1.36,9.88,9.88,0,0,1,.54,1.64c.16.73.25,1.36.25,1.36a5.36,5.36,0,0,0,1.67-2,3.08,3.08,0,0,0-.35-2.53,8,8,0,0,0-2.62-2.08C285.76,359.18,284.94,358.8,284.94,358.8Zm-29.81-3.25s-.59.37-1.27.87a7.85,7.85,0,0,0-1.94,1.81c-.58.84-1.44,3.46-.93,4.23l1.67,2.52s.47-2.54.69-3.33a10.68,10.68,0,0,1,.73-1.92,10.8,10.8,0,0,1,1.36-1.19c.59-.43,1.1-.77,1.1-.77l-1.41-2.21Zm-10-4.25a12.57,12.57,0,0,0-2.89,2.52c-1,1.28-1.79,3.05-1.54,4l.55,2.09s1.26-2.14,1.69-2.67c.89-1.12,4-4,4-4l-1.75-1.94Zm-7.5-5.75s-1,.13-2.18.35a9.77,9.77,0,0,0-3.54,1.15c-1.13.74-3.06,2.43-2.72,3.71l1,3.55a11.82,11.82,0,0,1,1.19-2.73,12.12,12.12,0,0,1,2-2.32,11.92,11.92,0,0,1,2.6-.77c1.07-.2,2-.31,2-.31l-.29-2.62Zm-38.33-14.71a85.93,85.93,0,0,1-8.88,2.37c-.8.11-3.71,0-3.71,0l-.14,2.62a13.05,13.05,0,0,0,4.19,0c3.18-.42,4.44-.67,6-1.71a14.17,14.17,0,0,0,2.54-3.26Zm-3.17-11.48a23.13,23.13,0,0,0-3.2.71,13.14,13.14,0,0,1-2.42.71,15.12,15.12,0,0,1-3.14-.54c-1.18-.31-2.16-.61-2.16-.61l-.82,2.48s1,.35,2.32.68a13.29,13.29,0,0,0,3.94.61c1.1-.06,2.77-.34,3.41-1.21l2.07-2.82Zm-13.32-12.15-.71,2.54s3.52,1,5.35,1.25c1.61.23,3.83,1,5.42.33a3.73,3.73,0,0,0,2.86-1.14,16,16,0,0,0,2.25-2.38s-3.94.82-5.25.89a27.9,27.9,0,0,1-4.9-.31c-1.33-.2-5-1.17-5-1.17Zm-2.07-12-1,2.46s1.49.57,3.33,1.17a24.21,24.21,0,0,0,5.58,1.33c2.25.13,7,.6,9-1.35l3.48-3.36s-2.21.6-4.87,1.15a36.8,36.8,0,0,1-7.48.94,25.83,25.83,0,0,1-4.92-1.19c-1.75-.58-3.19-1.15-3.19-1.15Zm.59-10.94-1,2.46s.84.34,1.9.71a18.72,18.72,0,0,0,3.25.89,27.71,27.71,0,0,0,4.92,0c1.65-.11,3.92-2.88,3.92-2.88l-4.1.25a29,29,0,0,1-4.38,0,19.69,19.69,0,0,1-2.75-.77c-1-.34-1.81-.68-1.81-.68Zm1-13.49-1.15,2.37s1.42.7,3.19,1.43a22.63,22.63,0,0,0,5.42,1.73c2.47.31,6.2.5,9.12-.56a12.46,12.46,0,0,0,2.38-.86,18.47,18.47,0,0,0,2.68-2.68s-2.47.5-5.46.94a39.85,39.85,0,0,1-8.39.56,24.84,24.84,0,0,1-4.73-1.54c-1.69-.71-3-1.38-3-1.38Zm3.25-11.5-.92,2.46s3.2,1.66,5.08,1.57a9.76,9.76,0,0,0,2.5-.12,15.12,15.12,0,0,0,3.22-2.18s-4-.05-5.25-.29-4.64-1.46-4.64-1.46ZM251,204.67s-1.58,4.72-4.61,6.66c-1,.62-2.39.67-4.12.56a12.88,12.88,0,0,0-5.67.4c-2.5,1-5.54,3.63-5.74,5.95l-.31,3.66a24.77,24.77,0,0,1,2.13-3.1,13.58,13.58,0,0,1,4.85-4.06,11.87,11.87,0,0,1,4.57-.23c1.8.11,4.47.83,5.69-1l2.69-3.95.51-4.94Zm77.62-35.13a16.56,16.56,0,0,0-4.43.94c-3.41,1.23-6.08,4.17-8.6,7s-5,5.41-7.5,6.37c-2.28.88-5.46.89-8.79.73s-6.83-.48-9.87.14c-1.31.27-3.09.53-4.83,1a8.93,8.93,0,0,0-4.67,2.65c-2.58,3.18-3.21,8.78-3.5,13.73a87.29,87.29,0,0,0,0,9.23,24.22,24.22,0,0,0,2.65-9.08c.27-4.79,1.27-10.21,2.91-12.23a7,7,0,0,1,3.35-1.79c1.5-.44,3.22-.7,4.64-1,2.48-.51,5.8-.24,9.19-.07s6.86.25,9.87-.92c3.36-1.31,6-4.27,8.54-7.06s5.05-5.36,7.58-6.25a14,14,0,0,1,3.68-.77,4.56,4.56,0,0,1,2.86.56,1.59,1.59,0,0,1,.35,1,19.92,19.92,0,0,1,0,2.46,13.26,13.26,0,0,0,0,2.83,3.37,3.37,0,0,0,1.79,2.58,5,5,0,0,0,4.6-.44,21.51,21.51,0,0,0,3.79-3c1.21-1.11,2.41-2.25,3.52-3.07a4.69,4.69,0,0,1,2.81-1.17,6.58,6.58,0,0,1,2.88,1.12,5.19,5.19,0,0,1,1.92,2.13,4.75,4.75,0,0,1-.19,3.1,27.59,27.59,0,0,1-2,4.06c-1.59,2.87-3.57,6-3,9.23.82,4.33,4.43,7.58,7.87,10.71s6.82,6.17,7.83,9.23c.55,1.65.1,4.24-.42,7s-1.13,5.67,0,8.33c.88,2,2.84,3,4.5,4s3,2,3.29,2.79a11.71,11.71,0,0,1-.4,4.27l1.48,4a33.86,33.86,0,0,0,1.06-3.37c.47-1.85,1-3.94.35-5.79-.75-2.12-2.73-3.17-4.41-4.17s-3.08-2-3.44-2.81c-.68-1.56-.35-4.06.16-6.75s1.21-5.62.33-8.33c-1.37-4.12-5.13-7.25-8.56-10.36s-6.44-6.15-7-9.25c-.35-1.82,1-4.58,2.65-7.48a28.88,28.88,0,0,0,2.16-4.48,6.45,6.45,0,0,0-2.74-8.26,8.49,8.49,0,0,0-4.22-1.54,7.09,7.09,0,0,0-4.5,1.64,40.25,40.25,0,0,0-3.75,3.29,19.62,19.62,0,0,1-3.31,2.65,2.26,2.26,0,0,1-2.23.35c-.13-.06-.17-.09-.25-.61a11.42,11.42,0,0,1,0-2.25,18.1,18.1,0,0,0,0-2.86,3.92,3.92,0,0,0-1.29-2.81,6.58,6.58,0,0,0-4.67-1.15Zm-63.52,50.55a77.27,77.27,0,0,0-1,11.22c0,3.72.77,7.58.89,10.1.18,3.86,1.58,9.26,3,14.67s2.82,10.83,3.1,14.18c.66,8.14-1.87,23.18-1.87,23.18l2.58.44s2.64-14.92,1.92-23.83c-.31-3.83-1.76-9.22-3.17-14.62a120.55,120.55,0,0,1-2.91-14.13l-1.16-10Zm-32.74,42.07c-2.13,4.21-4.74,9.25-6.47,12.17-1.54,2.6-4.48,6.44-5.46,9.94a23.44,23.44,0,0,0-.25,7.41c.19,2.48.5,4.5.5,4.5l.17,1.25,1.25-.12s1.7-.18,3.71-.23a20.88,20.88,0,0,1,5.37.42,10.6,10.6,0,0,1,4,2.86,11.5,11.5,0,0,1,.82,1.87c.27.78.47,1.46.47,1.46l.21.85.89.12s1,.09,2.08.14a11.39,11.39,0,0,0,3.5-.19,14.47,14.47,0,0,0,4.15-2.44,43.67,43.67,0,0,0,6.29-4.46,22.29,22.29,0,0,0,3.75-4.85c2-3.55,2.92-8.55,4.58-11.39a16.72,16.72,0,0,1,2.08-2.5,10.56,10.56,0,0,0,2.29-3.23,12,12,0,0,0,.58-3.79,5.26,5.26,0,0,0-1-2.66s-1.63,1.39-1.67,2.54a13.66,13.66,0,0,1-.4,3,9.68,9.68,0,0,1-1.79,2.42,17.28,17.28,0,0,0-2.44,3c-2,3.55-2.94,8.55-4.57,11.39a21.59,21.59,0,0,1-3.31,4.27,46.29,46.29,0,0,1-5.88,4.15,20.05,20.05,0,0,1-3.42,2.11,13.34,13.34,0,0,1-2.67.12c-.58,0-.71-.06-1.06-.1-.08-.29-.1-.33-.23-.73a8.58,8.58,0,0,0-1.25-2.62A11.82,11.82,0,0,0,232,295a19.61,19.61,0,0,0-6.29-.56c-1.42,0-1.93.11-2.6.17-.1-.7-.2-1.42-.33-3.14a24.55,24.55,0,0,1,.19-6.52c.73-2.59,3.5-6.46,5.18-9.31,1.87-3.16,5.06-8.25,6.75-12.75l3.13-8.17s-4.84,5.77-5.68,7.44Zm49.95-106.95a47.84,47.84,0,0,0-5.13,4c-5.5,5.42-13.33,13-16.31,20.65-1,2.7-2.13,6.88-1.31,10.36l1.59,6.74a28,28,0,0,0,1-6.7c.06-3.46.41-7.58,1.15-9.44,2.61-6.73,10.18-14.33,15.68-19.73,1.08-1.06,4.79-3.66,4.79-3.66l-1.48-2.18Zm-68.17,72.52a13.4,13.4,0,0,0-4,1.53c-1.41.83-1.65,1.87-2.49,3.08s-.39,3.09-1,3.75a18.64,18.64,0,0,1-3.67,2.79l-2.77,3.28a5.4,5.4,0,0,0,2.8-.58,8,8,0,0,1,3.19-1,3.59,3.59,0,0,1,.94.79,9.37,9.37,0,0,0,2,2,11.73,11.73,0,0,0,4,1.89,9.45,9.45,0,0,0,5.37.23,10.25,10.25,0,0,0,5-3.22,10.84,10.84,0,0,0,1.49-3,5.1,5.1,0,0,1,1-1.75,6.65,6.65,0,0,1,2.89-1.82,7.5,7.5,0,0,1,2.52,0s-1.11-2.6-2.77-2.79A22,22,0,0,1,224,232a10,10,0,0,1-2.13-1.88,7,7,0,0,0-3.4-2.4,9.87,9.87,0,0,0-4.34,0Zm118.35,102.6a4.2,4.2,0,0,0-1.25,5.57,4.67,4.67,0,0,0,2.36,1.72c2.5,1.14,6,.21,7.86-.16a10.84,10.84,0,0,0,4.46-1.61,23.18,23.18,0,0,0,3.17-2.44s-5.79.37-7.47.59a11.79,11.79,0,0,1-5.5-.34,5,5,0,0,1-2.17-1.3c-.62-.83-1.46-2-1.46-2Z" style="fill:#222"/><path d="M218.52,232.63l2.09,1.57a10.61,10.61,0,0,1,1.12,2.61,5.21,5.21,0,0,1-.38,4.08c-.66.9-1.38,1.94-2.48,2.09a14.76,14.76,0,0,1-3.37.17,8,8,0,0,1-1-.37l-2.29-1.92,2.35.81a10.64,10.64,0,0,0,1.4-.4,10.8,10.8,0,0,0,2.63-1.46,6.15,6.15,0,0,0,.76-1.48,11.11,11.11,0,0,0,.53-1.64,6.54,6.54,0,0,0-.1-2l-1.28-2.1Z" style="fill:#fff"/><path d="M17.33,336.43s-2.46,8.49,2,12.08c10.23,8.18,25.72,5.47,43.33,5,12.82-.34,30.43,3.32,39.66,5.78,20.66,5.5,52.8,29.83,78.82,44.62,18.64,10.62,31,7.2,37.8,9.7,1.83.67,1.23,0,2.67,2.25,5.5,8.6-5,33.66-5,33.66S174.74,449.88,148,434c-11.17-6.68-21.6-16.72-31.27-23.4-10.65-7.43-23-11.25-31.87-14.18-12.45-4.05-35.78-1.72-50.17-6.68-2.85-1-5.32-8.92-7.23-12.37-2.37-4.2-7.87-10-11.53-15.53a27.59,27.59,0,0,1-4.75-17.2c.6-4.19,6.23-8.22,6.23-8.22Z" style="fill:#ffd942;stroke:#222;stroke-width:2.5px"/><path d="M349.1,449.16a57.61,57.61,0,0,0,5.37,4.94c4.58,3.26,11.75,5.62,17.18,7.09,3.25.88,8.66-.09,11,2.36,1.2,1.28,1.38,4.12.86,5.8-.75,2.44-3.58,4.06-4.94,6.22-1.7,2.69-6.66,9.88-6.66,9.88s16.29-8.25,20.19-14a11,11,0,0,0,1.72-8.8c-.55-2.5-3.28-5.6-4.3-7.95s-.86-10.19-.86-10.19L353,434.8l-3.86,14.4Z" style="fill:#ffd942;stroke:#222;stroke-width:2.5px"/><path d="M548.75,336.43s2.46,8.49-2,12.08c-10.23,8.18-25.72,5.47-43.33,5-12.82-.34-30.43,3.32-39.66,5.78-20.65,5.5-52.8,29.83-78.82,44.62-18.83,10.71-30.64,6.83-37.45,9.48-1.75.68-1.65.27-3,2.46-5.33,8.39,5,32.76,5,32.76s41.86,1.27,68.62-14.64c11.21-6.66,21.62-16.72,31.29-23.4,10.67-7.39,22.95-11.23,31.92-14.16,12.4-4,35.75-1.72,50.14-6.64,2.85-1,5.32-8.93,7.23-12.37,2.37-4.21,7.87-10,11.54-15.5a27.59,27.59,0,0,0,4.76-17.2c-.6-4.19-6.23-8.22-6.23-8.22Z" style="fill:#ffd942;stroke:#222;stroke-width:2.5px"/><path d="M490,383.16c.9-1,.68-2.47-1.28-8.55-1.8-5.78-2.62-7.35-3.6-7.42-3.3-.22-1.28-1.8,4.65-3.37,6.37-1.72,6.45-1.72,7.35.38,1.12,2.47-.07,3.37-1.43,1.12-.68-1.12-1.57-1.28-3.68-.6-2.7.83-2.78,1-1.72,4.12.9,2.92,1.2,3.22,2.93,2.7a2.34,2.34,0,0,0,1.8-2.1c-.07-.83.45.08,1.12,2.1,1,2.85,1,3.37,0,2.47a3,3,0,0,0-2.78-.67c-1.35.45-1.35.9-.07,4.28,1.35,3.53,1.57,3.75,3.82,3.37,1.87-.37,2.62-1.12,3.68-3.83l1.28-3.37,1,3,1,3-7.5,2.33c-5.47,1.72-7.2,2-6.45,1.12Zm-20.7,5.25c1-1.05.82-2.47-1-9-1.72-6.37-2.32-7.72-3.3-7.5-.68.15-1.28-.08-1.43-.53-.37-1.28,8.85-3.45,11.85-2.7a4.45,4.45,0,0,1,2.4,7.35l-1.57,1.87,2.93,2.4a20.72,20.72,0,0,0,5.62,3.23l2.78.9-2.85.75c-2.47.68-3.45.3-7.2-2.47-2.4-1.8-4.65-3.15-5.1-3.08s-.3,1.65.22,3.52c.75,2.7,1.28,3.37,2.85,3.6s.82.6-2.7,1.57-4.35,1-3.53.07Zm6.3-12.45a4,4,0,0,0-4.43-5.7c-1.57.45-1.65.9-.82,4.2s1.2,3.67,2.78,3.22A4.76,4.76,0,0,0,475.62,376Zm-13.12,18.3c.75-1.2.38-2.55-2.55-8.7s-3.68-7.2-4.5-6.75c-.6.3-1.28.15-1.43-.22s1.28-1.58,3.3-2.47,3.82-1.35,4-1-.15,1-.75,1.28c-.9.45-.45,1.87,2.32,7.8,2.93,6.15,3.68,7.35,5.1,7.5s.68.6-2.32,2.1-3.82,1.57-3.07.53Zm-14.25,6.9c-3.45.68-6.15-.3-8.7-3.07-6-6.45-1.5-17,7.28-17,3.9,0,6.45,1.65,8.55,5.63,2.32,4.35,2,8.1-1.05,11.18-2.55,2.55-2.85,2.7-6,3.3Zm5.62-6.37c.6-2.18.3-3.53-1.28-6.45-2.7-4.95-6.07-6.6-9.68-4.57a9.57,9.57,0,0,0-3.07,2.4c-.9,1.87-.3,5.18,1.57,8.62,2.32,4.28,6.15,5.93,9.53,4.05a6.47,6.47,0,0,0,2.93-4Zm-35.25,2.62c2.1-1.43,3.68-1.87,3.82-1.57s-.07,1-.6,1.28-1,.75-.9.9l12.22,9-.75-4.95c-.9-6.15-2.18-9.75-3.22-9a.9.9,0,0,1-1.2-.22c-.22-.37.68-1.43,1.95-2.18,2.55-1.57,3.22-1.35,2.55.82-.07.3-.75.3-.68,1.43.15,2,1.2,5.93,1.8,9.22.9,5.1,1.35,9.37,1.12,9.6s-15.3-11.78-16.5-12c-.22,0-1.2.68-1.72.68-.22,0-.75-.22-.22-.9a10.7,10.7,0,0,1,2.32-1.95Zm-5.18,3.22.75-.37c1.95-.82.15,1.2.15,1.2l-.45.75,3.6,7.05c3.45,6.75,3.68,7.05,5.55,6.9,1.5-.15,1,.3-2.25,2.1-1,.53-2.7,1.57-3.3,1.8-.82.38-.22-.22.07-.53.9-.9.53-2-3-8.47-3.3-6.15-4.28-7.35-5.1-6.82-.6.3-1.2.22-1.43-.15s1.87-1.35,5.47-3.45Zm-6.75,10.8c1-1.72,0-3.82-1.43-3-1.12.6-2.47-1.12-1.8-2.32.45-.9,3.75-.07,4.35,1.12.9,1.57.45,4.5-.68,5.1s-1.2.53-.37-.82Zm-13.35,20.93c1.12-2.1-6.3-16-8-15-.6.3-1.12.15-1.05-.37.07-1.5,8-5.55,11.4-5.85,4.05-.3,6.75,1.35,9,5.55,1.43,2.62,1.8,4.28,1.35,6.6-.53,2.85-.9,3.22-7.05,6.82-4.87,2.85-6.3,3.45-5.7,2.32Zm10.05-8.47c.53-3.3-2.78-9-6.07-10.5-1.95-.9-3.15-.82-5.32.38l-2.78,1.5,3.82,7c2.1,3.82,4.2,7.12,4.65,7.28,1.5.53,5.32-3.22,5.7-5.55Zm-73.5,62.25c1-.9,1.12-2.32.15-9-1-7-1.28-7.95-2.47-7.8-1,.15-1.12-.15-.67-.82s3.22-1.28,6.67-1.57l5.92-.53.52,2.47.53,2.47L339,469.63a4.29,4.29,0,0,0-4.28-1.35c-2.62.37-2.7.45-2.25,3.75.45,3,.67,3.37,2.4,3.15a2.19,2.19,0,0,0,2.1-1.8c.08-.82.37.15.67,2.25s.3,3.15-.08,2.4a2.15,2.15,0,0,0-2.55-1.12c-1.87.22-2,.53-1.2,4.28.75,3.6,1,4,3,4,2.62-.07,5.25-1.87,5-3.53a2.05,2.05,0,0,1,.6-1.8c.45-.37.9.6,1.12,2.4l.45,3-7.8,1.05c-5.7.75-7.42.75-6.53,0Zm-16.28,2.18c1.65-.82,1.72-1.43,1.2-9l-.6-8.1-2.4.15a4.08,4.08,0,0,0-3.45,2.18c-1.12,1.95-1.12,1.95-1.28-.75l-.22-2.78,8.85-.6,8.85-.6.15,2.78c.15,2.62.08,2.7-.9.9-.75-1.35-1.72-1.8-3.67-1.65l-2.7.22.6,8.1c.53,7.65.67,8.18,2.47,8.78,1.42.45.53.75-3.37,1.05s-4.8.15-3.45-.53ZM293.37,490c-5.25-2-7.28-4.87-7.28-10.43,0-8.62,10.8-12.75,17-6.45a10.08,10.08,0,0,1-5.85,17,10.71,10.71,0,0,1-3.9-.07Zm7.2-3.45c2.7-3.6,2-12-1-14.18-.45-.37-2.17-.6-3.75-.68-4.35,0-6,2.4-6,8.7,0,4.35.3,5.32,1.87,6.75,2.85,2.4,6.9,2.1,8.92-.6Zm-8-17.7c0-1.28,2.62-4.8,3.6-4.8.53,0,1.42,1,2,2.18.75,1.8,1.42,2.93,1.12,3s-1-.6-1.8-1.28c-.9-.82-1.28-2-1.8-1.87s-.75,1.28-1.42,1.87c-.9.82-1.58,1.28-1.58,1ZM273,490.26c-4.42-1.57-7.28-5.25-7.28-9.68,0-7.35,8.25-12.75,13.42-9,1.35,1,1.8,1.05,2.1.22.67-2.1,1.5.07,1.2,3.3-.22,2.7-.37,3-1,1.57-1.42-3.45-3.08-4.72-6.15-4.72-4,0-5.55,2.32-5.55,8.18,0,3.15.45,5,1.65,6.68,2.85,3.82,8,2.7,10-2.25l1.12-2.78v4.28c0,2.47-.22,3.82-.6,3.15-.53-.9-1.28-.82-3.6.22-3.08,1.35-3.45,1.43-5.4.75Zm-32.25-3.68c1.2-.68,1.58-2,2-8.85.45-7,.3-8.1-.83-8.18q-1.46-.11-.45-.9c.53-.45,3.45-.6,6.83-.22l5.92.6.08,2.55.08,2.55-1.2-2c-.83-1.43-2-2-4-2.18-2.7-.15-2.78-.07-3,3.22-.22,3.07,0,3.45,1.8,3.53,1.28.07,2-.37,2.1-1.2s.45-1.05.83-.75.67,1.87.6,3.53-.53,2.93-1,2.85-.75-.6-.75-1.35-.67-1.35-2-1.43c-2-.15-2,.07-2.1,3.9,0,3.15.3,4.12,1.42,4.43a6,6,0,0,0,6.67-2.62l1.35-2.25L255,485l-.15,3.22-7.8-.53c-5.7-.37-7.42-.75-6.37-1.28ZM219,483.21c3-.37,5.47-16.72,2.62-17.18-1.12-.22-1.12-.3,0-.82,2-1,9.37.38,12,2.18,4.5,2.93,5.85,7.87,3.53,12.75s-5,5.7-12.75,4.35c-3.75-.6-6.22-1.2-5.47-1.35Zm12.37-.15c2-1.2,2.47-2.1,3.08-5.93.9-6-.67-9.22-5.1-9.9l-3.15-.45-1,7.12a50.53,50.53,0,0,0-.83,8.55c.37,2,4.2,2.32,7,.68ZM189,434.31c1.35-.45,1.87-1.8,3.37-8.4,1-4.72,1.42-7.95,1-8a.88.88,0,0,1-.6-1.05c.15-.53,2.4-.3,6.15.75,5.78,1.57,6,1.65,6,4.05.08,2.85-.75,3-1.58.3-.45-1.28-1.42-2.1-3.37-2.47-2.7-.6-2.78-.53-3.53,2.7-.67,3-.53,3.37,1.2,3.75,1.28.3,2.1,0,2.25-.82s.6-1,1-.6.38,1.95,0,3.53-1,2.78-1.42,2.7-.67-.75-.53-1.43-.45-1.43-1.72-1.72c-1.87-.45-2-.22-2.62,3.53s-.53,4.05,1.8,4.8a6,6,0,0,0,6.83-2.78c1.12-1.87,1.28-.15.3,2.55l-1,2.62-7.5-1.72c-5.55-1.28-7.12-1.87-6-2.25Zm-17.62-5.62c-2.33-2.62-2.25-3.75.75-11,2.17-5.25,2.33-6,1.12-7-.75-.6-1-1.28-.6-1.57,1-.75,8.1,2.32,7.72,3.3-.15.45-.83.6-1.42.3-.9-.37-1.65.82-4,6.6-2.62,6.37-2.85,7.2-1.72,8.62,1.58,2.1,6.3,2.93,8,1.43.75-.68,2.4-3.68,3.67-6.75,1.8-4.28,2.1-5.85,1.42-6.53-1.65-1.65-.37-2.32,2.25-1.28,2.85,1.2,3,1.65.6,2.7-1.12.53-2.33,2.47-4.2,7-2.33,5.62-2.78,6.3-4.8,6.68a9.29,9.29,0,0,1-8.78-2.62Zm-14-.15c-2.17-2.55-3.3-3.3-4.65-3.15a3.43,3.43,0,0,1-2.47-.45c-.45-.37.45-.82,2-1,2.47-.3,2.62-.45,1.5-1.43-3.08-2.7-4.2-4.8-4.35-8.25s.08-3.9,2.25-6.45c4.28-4.95,11.7-5,15.67-.07,2.4,3.07,2.7,6,1,10.28-1.28,3.07-2.1,4-4.87,5.18-1.8.82-3.75,1.28-4.35,1.05a2.26,2.26,0,0,0-1.72.07c-.37.3,1.28,2.1,3.6,4,3.45,2.7,4.72,3.37,6.15,3.07,2.33-.45,1.8.75-.67,1.72s-5.62-.53-9-4.57Zm3.08-6.37c1.72-.53,2.78-1.72,4.42-4.87,2.78-5.47,2.1-9.22-2-10.95a9.54,9.54,0,0,0-3.83-.9c-3.67.82-7.5,8.25-6.45,12.68a6.05,6.05,0,0,0,7.87,4.05Zm-21.75-9c1.42,0,2.33-1.12,5.77-7,3.37-5.7,3.9-7.05,3.08-7.5a1.06,1.06,0,0,1-.6-1.35c.23-.37,2,.15,3.9,1.28s3.3,2.4,3.08,2.78-.9.45-1.5.15c-.83-.53-1.8.68-5.1,6.37-3.45,5.85-4,7.2-3.3,8.4s-.15,1-3.08-.75-3.45-2.25-2.17-2.25Zm-15.75-8.85c1.8.45,2.25.07,6.6-5.78,4.2-5.62,4.58-6.37,3.6-7.5-.52-.75-.67-1.5-.23-1.65,1.12-.45,7.27,4.28,6.67,5.1a1.13,1.13,0,0,1-1.5,0c-.83-.6-1.87.53-6.08,6.15l-5.1,6.82,2.25,1.65c2.17,1.65,2.92,1.65,6.83.3,1.8-.68,1.8-.53.08,1.87l-1.87,2.55-6.6-4.95c-4.58-3.45-6-4.87-4.65-4.5Zm-14.55-10.12c1.8.38,2.25,0,6.52-5.85s4.5-6.45,3.52-7.58c-1.8-2.25.45-2.1,3.67.22,4.5,3.23,6.3,6.3,5.25,8.85a3.15,3.15,0,0,1-3.15,2.25l-2.25.22.83,2.32a4.39,4.39,0,0,1-.67,4.35c-2.25,3.15-5,2.7-10.8-1.5-3.6-2.62-4.35-3.45-2.92-3.15Zm8.4,4.43c3.75-.75,5.1-5.18,2.17-7.28-1.35-1-1.73-.75-4,2.4-2.1,2.93-2.33,3.6-1.27,4.35a4.67,4.67,0,0,0,3.08.6Zm5.7-8.47c2.55-.75,3.52-4.28,1.65-5.7-1.42-1.05-1.8-.9-3.6,1.57-1.65,2.25-1.8,2.93-.75,3.68a4,4,0,0,0,2.77.45Zm-28.5.38c-2.48-2.62-2.33-5.55.37-12,2-5,2.33-6.22,1.42-6.6-.6-.22-1-.83-.75-1.28s2-.08,4,.75,3.6,1.87,3.37,2.33-.83.6-1.42.3c-.9-.37-1.65.83-3.9,6.22-2.48,6-2.62,6.82-1.65,8.55a6.71,6.71,0,0,0,2.7,2.55,6.69,6.69,0,0,0,3.67.07c2-.45,2.48-1.2,5-7.2,2.25-5.4,2.55-6.75,1.65-7.12-.6-.22-1-.83-.75-1.28s1.65-.22,3.3.45c3,1.28,3.52,2.62,1,2.62-1,0-1.87,1.35-3.75,5.85-2.1,5-2.85,6.07-5,7.2-2.77,1.43-7.27.68-9.3-1.43Zm-18.52-6.68c2.17-.22,2.92-1.35,4.73-7.42,2-6.6,2.1-8.55.45-9-.6-.15-.83-.6-.37-1,1-1,9.23,1.65,11.1,3.53,1.2,1.2,1.42,2.4,1,4.65-.75,3.67-3.45,5-7.5,3.9-2.33-.67-2.62-.53-3.3,2-.9,3-.67,4.43.83,5.62.52.45-1,.22-3.6-.53s-4-1.43-3.37-1.5Zm13.5-10c.9-3.08.83-3.3-1.5-4.28s-2.48-1-3.52,2.78-1.12,3.75,1.5,4.28S88,376.86,88.92,373.78Zm-30.45,7.8c1.27-.6,1.65-2,2.48-8.7.6-4.8.67-8,.15-8.1a.85.85,0,0,1-.67-1c.08-.53,2.4-.53,6.23.08,5.92,1,6.15,1,6.45,3.37.37,2.85-.45,3.08-1.58.45-.52-1.28-1.65-2-3.6-2.17-2.7-.3-2.77-.22-3.23,3.08-.37,3.08-.23,3.45,1.58,3.6,1.27.15,2-.22,2.17-1s.52-1,.9-.67.6,2,.37,3.53-.75,2.85-1.12,2.85-.75-.67-.67-1.35c.08-.83-.6-1.35-1.87-1.5-2-.22-2-.08-2.33,3.83s-.15,4,2.25,4.65A6,6,0,0,0,72.5,379c.9-2,1.27-.3.52,2.55l-.75,2.7-7.73-1c-5.62-.67-7.27-1.12-6.23-1.65Zm8.85-21c2-2.25,3.6-2.92,3.45-1.42-.08.83-4,4-4.87,3.83C65.6,362.91,66.2,361.86,67.32,360.58ZM39,383.08c3.07-.9,2.85-17.25-.23-17.25-.68,0-1-.37-.68-.83.6-1.12,8.48-1.28,11.17-.3,4.12,1.58,4.8,6.37,1.12,8.55l-1.95,1.12,2.93,3.45a21.91,21.91,0,0,0,4.73,4.42c1.65.9,1.58,1-1.12,1.12s-3.3-.37-6-4.12c-3.6-5-5.32-5.4-5.25-1.35.07,3.08.75,4.42,2.55,5.1.68.22-1,.53-3.6.53s-4.27-.07-3.52-.3Zm9-10.5c1.35-1,1.73-3.08,1-5.1-.52-1.42-1.35-1.87-3.15-1.87-2.32.08-2.48.15-2.32,3.9.07,3.45.3,3.83,1.87,3.75a5.81,5.81,0,0,0,2.62-.67Z" style="fill:#fff;stroke:#000;stroke-width:0.30000001192092896px"/></svg>