<svg xmlns="http://www.w3.org/2000/svg" viewBox="0 0 1277 1527.17"><title>Equatorial_Guinea-01</title><path d="M228.72,248.71H1048.3v858.52c0,288.88-356.72,63.34-409.79,220.41-48.65-156.85-407.64,70.62-407.64-237.53C230.86,790.52,228.72,248.71,228.72,248.71Z" style="fill:#fff;stroke:#000;stroke-width:8px"/><path d="M697.36,1190.68s-10.7,10.7-30,2.14-21.36-550-21.36-550c42.8-47.08,77-62.06,77-62.06l25.68,21.4C652.42,651.43,661,722,669.54,844c2.14,44.94,2.14,102.71,12.84,158.35,15,70.62,44.94,130.53,47.08,175.47C731.59,1205.66,697.36,1190.68,697.36,1190.68Z" style="fill:#73452b;stroke:#000;stroke-width:2px"/><path d="M631,568h38.52c-32.1,310.28-4.28,494.31-4.28,584.18,0,30,17.12,40.66,15,40.66-38.52,42.8-57.78-2.14-57.78-2.14Z" style="fill:#73452b;stroke:#000;stroke-width:2px"/><path d="M572,1190.22c-36.38,17.12-41.57-16.66-39.43-20.94C611.76,1008.79,646,655.71,573.24,617.19L577.52,583c27.82,8.56,53.5,44.94,53.5,44.94,10.7,395.88-.17,557.88-6.59,564.3-38.52,40.66-53-5.31-55.18-9.59" style="fill:#a36629;stroke:#000;stroke-width:2px"/><path d="M569.42,1183.23c-6.42-34.24,55.18-120.94,50.9-213" style="fill:none;stroke:#000"/><path d="M673.82,1045.17c19.26,53.5,27.82,100.57,23.54,145.51" style="fill:none;stroke:#000"/><path d="M757.27,422.46c12.84-15,12.84-15,36.38-15,4.28-32.1,57.78-32.1,62.06,8.56,42.8-8.56,51.36,17.12,34.24,42.8,40.66-10.7,77,0,66.34,47.08,72.76,19.26,44.94,70.62,12.84,81.32-4.28,32.1-34.24,42.8-74.9,30-51.36,36.38-81.32,23.54-104.85-12.84-57.78,8.56-62.06-4.28-87.73-36.38-44.94,19.26-53.5,19.26-92-4.28-2.14,30-12.84,21.4-32.1,19.26,2.14,38.52-12.84,55.64-47.08,42.8,25.68,53.5-40.66,77-72.76,32.1-30,2.14-32.1-6.42-47.08-17.12-12.84,42.8-59.92,36.38-68.48,12.84-59.92-8.56-53.5-40.66-4.28-42.8,4.28-34.24,34.24-27.82,53.5-23.54,2.14-21.4,15-17.12,25.68-12.84-6.42-15-2.14-23.54,17.12-27.82-27.82-36.38-10.7-49.22,17.12-62.06-15-34.24,10.7-32.1,30-34.24-2.14-36.38,8.56-42.8,47.08-47.08-4.28-12.84,2.14-23.54,23.54-23.54-12.84-36.38,4.28-44.72,42.8-38.52,6.42-52.85,119.83-27.82,111.27,44.94C738,390.36,748.71,396.78,757.27,422.46Z" style="fill:#009a3b;stroke:#000;stroke-width:2px"/><path d="M528.31,403.2c8.56,4.28,19.26,0,21.4,23.54,17.12-30,38.52-12.84,38.52,21.4" style="fill:none;stroke:#000;stroke-width:2px"/><path d="M705.92,386.08c-8.56,12.84-40.66,12.84-36.38,47.08-10.7-15-32.1-19.26-40.66-4.28" style="fill:none;stroke:#000;stroke-width:2px"/><path d="M757.27,422.46c0,8.56-2.14,34.24-10.7,47.08" style="fill:none;stroke:#000;stroke-width:2px"/><path d="M890,458.84c2.14,2.14-30,0-44.94,10.7" style="fill:none;stroke:#000;stroke-width:2px"/><path d="M969.12,587.23c-8.56-4.28-25.68-15-38.52,2.14,0-8.56,0-32.1-23.54-32.1" style="fill:none;stroke:#000;stroke-width:2px"/><path d="M894.22,617.19c0-21.4-4.28-27.82-8.56-34.24" style="fill:none;stroke:#000;stroke-width:2px"/><path d="M823.61,587.23c-17.12-12.84-34.24,6.42-34.24,17.12" style="fill:none;stroke:#000;stroke-width:2px"/><path d="M699.5,568c0-8.56-6.42-25.68,8.56-32.1" style="fill:none;stroke:#000;stroke-width:2px"/><path d="M455.55,657.85c4.28-21.4,19.26-21.4,17.12-32.1-2.14-17.12-21.4-32.1-44.94-8.56" style="fill:none;stroke:#000;stroke-width:2px"/><path d="M472.67,625.75c12.84-4.28,25.68-2.14,30,4.28" style="fill:none;stroke:#000;stroke-width:2px"/><path d="M436.29,546.58c8.56-8.56,30-6.42,42.8,0" style="fill:none;stroke:#000;stroke-width:2px"/><path d="M479.09,495.22c10.7,0,30-4.28,36.38,15,23.54-36.38,40.66-32.1,44.94-23.54" style="fill:none;stroke:#000;stroke-width:2px"/><path d="M603.2,482.38c17.12-6.42,47.08,10.7,64.2,40.66,8.56-23.54,21.4-19.26,34.24-21.4" style="fill:none;stroke:#000;stroke-width:2px"/><path d="M783,523c27.82-12.84,44.94,12.84,53.5,23.54,12.84-17.12,23.54-17.12,36.38-17.12" style="fill:none;stroke:#000;stroke-width:2px"/><path d="M524,574.39c6.42-10.7,21.4-12.84,32.1-6.42-2.14-19.26,10.7-27.82,19.26-23.54" style="fill:none;stroke:#000;stroke-width:2px"/><path d="M608.62,128.44l-47.08,2.14L538,172.74l-25.68-40.23-47.08,1.93,21.4-42.37L461,51.84l49.22-2.14,21.4-42.16L557.3,47.77l47.08-1.93L583,88.21Z" style="fill:gold;stroke:#000;stroke-width:7px"/><path d="M407.48,144.07,360.4,155.62,347.56,201.2,313.32,167l-44.94,11.13,12.84-45.58-32.1-34.67L294.06,86.5,306.9,40.71l34.24,34.24,47.08-11.13-15,45.79Z" style="fill:gold;stroke:#000;stroke-width:7px"/><path d="M212.75,184.08,170,205.27l-2.14,47.51L127.2,226.67l-42.8,21,4.28-47.51L48,173.81l42.8-21.4,4.28-47.51L133.57,131l42.8-21-2.14,47.51Z" style="fill:gold;stroke:#000;stroke-width:7px"/><path d="M670.68,128.44l47.08,2.14,21.4,42.16,25.68-40.23,47.08,1.93-21.4-42.37L816.2,51.84,769.12,49.7,745.58,7.54,719.9,47.77l-47.08-1.93,21.4,42.37Z" style="fill:gold;stroke:#000;stroke-width:7px"/><path d="M871.83,144.07l44.94,11.56,12.84,45.58L963.84,167l44.94,11.13-12.84-45.58,34.24-34.67L983.1,86.5,970.26,40.71,936,74.95,891.09,63.82l12.84,45.79Z" style="fill:gold;stroke:#000;stroke-width:7px"/><path d="M1064.42,184.08l42.8,21.18,2.14,47.51L1150,226.66l42.8,21-2.14-47.51,38.52-26.32-42.8-21.4-2.14-47.51L1143.59,131l-42.8-21,4.28,47.51Z" style="fill:gold;stroke:#000;stroke-width:7px"/><path d="M783.87,1314.79l4.28,77s21.4,0,40.66-6.42c17.12-6.42,32.1-19.26,32.1-19.26l-2.14-40.66Z" style="fill:#fff;stroke:#000;stroke-width:7px"/><path d="M497.12,1314.79l-4.28,74.9a202,202,0,0,1-38.52-4.28c-17.12-4.28-32.1-15-32.1-15l-21.4-51.36Z" style="fill:#fff;stroke:#000;stroke-width:7px"/><path d="M151,1090.1l-54.07,77L37,1068.7l45-47.07Z" style="fill:#fff;stroke:#000;stroke-linejoin:round;stroke-width:7px"/><path d="M420.09,1468.86c0,72.76,440.81,72.76,440.81,0V1366.15c0,53.5-440.81,42.8-440.81,0Z" style="fill:#fff;stroke:#000;stroke-width:7px"/><path d="M26.35,1231.33c38.52,196.87,393.74,201.15,393.74,201.15v-66.34c-8.56-25.68,6.42-34.24,64.2-42.8,23.54-2.14,12.84-36.38,12.84-36.38s-154.07,27.82-263.2-15c-147.65-59.92-169-175.47-169-175.47S54.17,1186.4,26.35,1231.33Z" style="fill:#fff;stroke:#000;stroke-width:7px"/><path d="M1252.5,1231.33c-36.38,196.87-391.6,201.15-391.6,201.15v-66.34c6.42-25.68-8.56-34.24-66.34-42.8-23.54-2.14-10.7-36.38-10.7-36.38s154.07,27.82,263.2-15c145.51-59.92,162.63-175.47,162.63-175.47S1224.68,1186.4,1252.5,1231.33Z" style="fill:#fff;stroke:#000;stroke-width:7px"/><path d="M53.13,1156.44c-98.43-53.5-20.76-109.13-12.2-267.48,49.54,100.7,98.51,104,112.5,167.81,1.72,7.86,3,22.11-1.25,31.2-44.94,2.14-66.31-66.34-87.71,8.56Z" style="fill:#fff;stroke:#000;stroke-width:7px"/><path d="M1125.87,1090.1l54.07,77,59.92-98.43-44.94-47.08Z" style="fill:#fff;stroke:#000;stroke-linejoin:round;stroke-width:7px"/><path d="M1223.88,1156.44c98.43-53.5,20.75-109.13,12.19-267.48-49.54,100.7-98.51,104-112.5,167.81-1.72,7.86-3,22.11,1.25,31.2,44.94,2.14,66.31-66.34,87.71,8.56Z" style="fill:#fff;stroke:#000;stroke-width:7px"/><path d="M114.09,1229.19l10.7,8.56-23.54,25.68c-9.42,10.28-11.7,17.08-5.16,23.34,8.12,7.77,13.83,5.07,22.27-4.08L144,1254.87l8.56,8.56-25.65,29.93c-13.93,16.25-26.86,12.53-37.7,2.4-9.45-8.82-14.86-21.62-1-37.35l25.89-29.1Z"/><path d="M156.88,1265.57l10.7,6.42-2.14,51.36L189,1287l10.7,6.42L165.44,1349l-12.84-6.42,2.14-51.36L131.2,1327.6l-10.7-6.42Z"/><path d="M176.14,1355.45l30-59.92,10.7,6.42L189,1359.73Z"/><path d="M223.22,1304.09l-23.62,62,23.62,8.6c22,8,32.35-1.67,39.35-20.29,7.06-18.94,4-32.87-18-41.73Zm8.47,15c22.15,7.7,23.5,16.11,17.46,31.33-5.84,14.44-11.3,20.09-32.35,9.24Z"/><path d="M293.84,1327.63l-38.52,57.78,14.89,4.37,8.6-15,25.68,6.42,2.18,15,14.89,2.05-14.89-68.43Zm4.24,15,4.24,25.68-17.08-2.18Z"/><path d="M330.43,1333.19l-2.32,66.31,25.19.49c23.41.44,30.07-12,30.64-31.91.58-20.22-6.87-32.43-30.6-33.63l-22.91-1.27Zm12.84,11.51c23.46.09,27.47,7.58,26.65,24-.78,15.56-4.18,22.66-27.57,19.19l.92-43.15Z"/><path d="M554.9,1426.06v68.43h15v-25.68s12.84.77,23.5-2.05c8.41-2.18,14.25-7.58,14.44-20.86.19-13-7.38-19.84-20.48-19.84Zm15,10.66,15.09.19c12.58,0,10.21,19.07.39,19.07H569.92Z"/><path d="M631.94,1426.06l-27.86,68.43h15l6.42-17.08h27.86l6.42,17.08h14.89L646.87,1426h-15Zm6.42,15,10.64,25.7H629.75Z"/><path d="M674.73,1481.7l36.38-44.94H679v-10.7h51.36v10.7l-38.52,44.94h38.52v12.84H674.73Z"/><path d="M890.86,1349l12.84-2.14,6.42,38.52c2.28,13.7-4,23-13.73,26.63-11.1,4.1-25.26.35-26.93-18.07l10.7-2.14c2.49,11,6.93,12,12.06,10.25,4.07-1.37,6.18-7.79,5.06-14.53Z"/><path d="M912.26,1345.17l12.67-2.4,5.86,32.05c2.51,13.72,6.81,19.55,15.73,18,11.07-1.93,12.28-8.13,9.93-20.35l-7.88-34.2,13-2,8.6,35.57c5,20.8-5.84,29.06-20.43,31.78-12.71,2.37-26.22-.85-30.65-21.37Z"/><path d="M978.59,1374.71l10.7-4.28c5.25,9.43,13.44,8.94,19.8,6.13,8.84-3.91,9.86-11.64,5.48-14.26-6.24-3.73-21.12,1.57-29.13-1.36-9.59-3.5-13.71-8.89-13.22-17.19.59-10,9.37-15.47,18.93-18.44,10.69-3.32,21.24-2.14,28.09,10.87l-12.84,4.28c-4.18-7-9.56-6.7-14.33-4.45-4,1.89-10.24,5.43-6.89,11.14,2.73,4.67,18.46,1.64,26.74,2,8.57.35,15.49,6.07,16.65,14.31,1.62,11.49-2.64,17.71-15.92,22.89-16.4,6.4-31.2-.77-34.06-11.63Z"/><path d="M1036.37,1321.21l-17.12,8.56-4.28-10.7,47.08-19.26,4.28,8.56-17.12,8.56,19.26,47.08-10.7,6.42Z"/><path d="M1064.19,1297.67l10.7-6.42,30,55.64-10.7,6.42Z"/><path d="M1136.95,1301.95l12.84-4.28c6,12.69-3,35.77-25.2,35.29-32.45-.7-36-36.44-30.86-48.22,8.57-19.8,32.58-19.42,43.22-8.47l-10.7,8.56c-6.78-8.7-21.85-3.22-22.87,4.79-1.66,13.06,4.09,25.22,15.77,31,9.9,4.89,25.17-7.4,17.8-18.66Z"/><path d="M1130.53,1257l10.7-8.56,38.52,51.36-10.7,8.56Z"/><path d="M1171.18,1224.91l-10.66,8.6,23.5,64.2,10.66-10.66-6.42-12.84,19.26-17.2,12.84,6.42,10.79-8.47Zm4.24,15,21.44,10.66L1184,1263.43Z"/></svg>