<svg xmlns="http://www.w3.org/2000/svg" viewBox="0 0 610 610"><title>Ethiopia</title><circle cx="305" cy="305" r="300" style="fill:#0f47af"/><path d="M76.75,230.37H251.12L290.54,109l10.52,32.36-57.3,176.33-17-12.36,17.87-55H104.27l-27.53-20m87.18,268.33,53.88-165.83-103.22-75h34l150,109-17,12.36-46.78-34L191.46,478.69l-27.53,20m282.14,0L305,396.2l-103.22,75,10.51-32.36,150-109,6.5,20-46.78,34,113.54,82.49,10.52,32.36m87.18-268.33L392.18,332.86,431.61,454.2l-27.53-20L346.79,257.87h21l17.87,55,113.54-82.49h34M305,64.53l53.88,165.83H486.46l-27.52,20H273.53l6.5-20h57.82L294.49,96.89Z" style="fill:#fcdd09"/><path d="M305,415.47v130m-104.62-206L76.75,379.63m163.6-163.16L163.93,111.3M369.66,216.47,446.07,111.3M409.62,339.46l123.64,40.17Z" style="fill:none;stroke:#fcdd09;stroke-width:10px"/></svg>