<svg xmlns="http://www.w3.org/2000/svg" viewBox="0 0 800 1000"><title>Finland</title><path d="M799,1V601.68C799,756.45,672.2,999,400,999S1,756.45,1,601.68V1Z" style="fill:#c8102e;stroke:#000;stroke-width:2px"/><path d="M262.56,41.44c9.14,6.28,22.62,9.51,22.62,9.51s13.47-3.23,22.62-9.51c-3.15,10.64-2.06,24.45-2.06,24.45s7.24,11.82,16,18.57c-11.09.29-23.89,5.6-23.89,5.6s-9,10.53-12.71,21c-3.71-10.46-12.71-21-12.71-21s-12.8-5.31-23.89-5.6c8.8-6.76,16-18.57,16-18.57s1.09-13.81-2.06-24.45Z" style="fill:#fff;stroke:#000;stroke-width:2px"/><path d="M285.07,42.3a11.44,11.44,0,0,0-10.56,15.59,11.44,11.44,0,1,0-6.6,20.29,11.44,11.44,0,0,0-.53,18.88h0a11.44,11.44,0,0,0,16-2.53h0a11.44,11.44,0,0,0,1.8-3.81,11.44,11.44,0,1,0,20.32-9.64h0a11.44,11.44,0,0,0-3.06-2.89,11.44,11.44,0,0,0,11.53-15h0a11.44,11.44,0,0,0-14.42-7.35h0a11.44,11.44,0,0,0-3.69,2A11.44,11.44,0,0,0,285.19,42.3h-.11Zm0,19.39h.06a10.88,10.88,0,0,1,10.88,10.87h0a10.88,10.88,0,0,1-10.88,10.87h0a10.88,10.88,0,0,1-.06-21.75Z" style="fill:#fff;stroke:#000;stroke-width:2px"/><path d="M65.34,41.44C74.49,47.73,88,51,88,51s13.47-3.23,22.62-9.51c-3.15,10.64-2.06,24.45-2.06,24.45s7.24,11.82,16,18.57c-11.09.29-23.89,5.6-23.89,5.6s-9,10.53-12.71,21c-3.71-10.46-12.71-21-12.71-21s-12.8-5.31-23.89-5.6c8.8-6.76,16-18.57,16-18.57s1.09-13.81-2.06-24.45Z" style="fill:#fff;stroke:#000;stroke-width:2px"/><path d="M87.85,42.3A11.44,11.44,0,0,0,77.29,57.89a11.44,11.44,0,1,0-6.6,20.29,11.44,11.44,0,0,0-.53,18.88h0a11.44,11.44,0,0,0,16-2.53h0A11.44,11.44,0,0,0,88,90.72a11.44,11.44,0,1,0,20.32-9.64h0a11.44,11.44,0,0,0-3.06-2.89,11.44,11.44,0,0,0,11.53-15h0a11.44,11.44,0,0,0-14.42-7.35h0a11.44,11.44,0,0,0-3.69,2A11.44,11.44,0,0,0,88,42.3h-.11Zm0,19.39H88A10.88,10.88,0,0,1,98.84,72.57h0A10.88,10.88,0,0,1,88,83.44h0a10.88,10.88,0,0,1-.06-21.75Z" style="fill:#fff;stroke:#000;stroke-width:2px"/><path d="M689.42,41.44C698.57,47.73,712,51,712,51s13.47-3.23,22.62-9.51c-3.15,10.64-2.06,24.45-2.06,24.45s7.24,11.82,16,18.57c-11.09.29-23.89,5.6-23.89,5.6s-9,10.53-12.71,21c-3.71-10.46-12.71-21-12.71-21s-12.8-5.31-23.89-5.6c8.8-6.76,16-18.57,16-18.57s1.09-13.81-2.06-24.45Z" style="fill:#fff;stroke:#000;stroke-width:2px"/><path d="M711.93,42.3a11.44,11.44,0,0,0-10.56,15.59,11.44,11.44,0,1,0-6.6,20.29,11.44,11.44,0,0,0-.53,18.88h0a11.44,11.44,0,0,0,16-2.53h0a11.44,11.44,0,0,0,1.8-3.81,11.44,11.44,0,1,0,20.32-9.64h0a11.44,11.44,0,0,0-3.06-2.89,11.44,11.44,0,0,0,11.53-15h0a11.44,11.44,0,0,0-14.42-7.35h0a11.44,11.44,0,0,0-3.69,2A11.44,11.44,0,0,0,712,42.3h-.11Zm0,19.39H712a10.88,10.88,0,0,1,10.88,10.87h0A10.88,10.88,0,0,1,712,83.44h0A10.88,10.88,0,0,1,712,61.69Z" style="fill:#fff;stroke:#000;stroke-width:2px"/><path d="M609.66,233.1c9.14,6.28,22.62,9.51,22.62,9.51s13.47-3.23,22.62-9.51c-3.15,10.64-2.06,24.45-2.06,24.45s7.24,11.82,16,18.57c-11.09.29-23.89,5.6-23.89,5.6s-9,10.53-12.71,21c-3.71-10.46-12.71-21-12.71-21s-12.8-5.31-23.89-5.6c8.8-6.76,16-18.57,16-18.57s1.09-13.81-2.06-24.45Z" style="fill:#fff;stroke:#000;stroke-width:2px"/><path d="M632.17,234a11.44,11.44,0,0,0-10.56,15.59,11.44,11.44,0,1,0-6.6,20.29,11.44,11.44,0,0,0-.53,18.88h0a11.44,11.44,0,0,0,16-2.53h0a11.44,11.44,0,0,0,1.8-3.81,11.44,11.44,0,1,0,20.32-9.64h0a11.44,11.44,0,0,0-3.06-2.89,11.44,11.44,0,0,0,11.53-15h0a11.44,11.44,0,0,0-14.42-7.35h0a11.44,11.44,0,0,0-3.69,2A11.44,11.44,0,0,0,632.28,234h-.11Zm0,19.39h.06a10.88,10.88,0,0,1,10.88,10.87h0a10.88,10.88,0,0,1-10.88,10.87h0a10.88,10.88,0,0,1-.06-21.75Z" style="fill:#fff;stroke:#000;stroke-width:2px"/><path d="M65.34,291.42C74.49,297.7,88,300.93,88,300.93s13.47-3.23,22.62-9.51c-3.15,10.64-2.06,24.45-2.06,24.45s7.24,11.82,16,18.57c-11.09.29-23.89,5.6-23.89,5.6s-9,10.53-12.71,21c-3.71-10.46-12.71-21-12.71-21s-12.8-5.31-23.89-5.6c8.8-6.76,16-18.57,16-18.57s1.09-13.81-2.06-24.45Z" style="fill:#fff;stroke:#000;stroke-width:2px"/><path d="M87.85,292.28a11.44,11.44,0,0,0-10.56,15.59,11.44,11.44,0,1,0-6.6,20.29A11.44,11.44,0,0,0,70.16,347h0a11.44,11.44,0,0,0,16-2.53h0a11.44,11.44,0,0,0,1.8-3.81A11.44,11.44,0,1,0,108.28,331h0a11.44,11.44,0,0,0-3.06-2.89,11.44,11.44,0,0,0,11.53-15h0a11.44,11.44,0,0,0-14.42-7.35h0a11.44,11.44,0,0,0-3.69,2A11.44,11.44,0,0,0,88,292.28h-.11Zm0,19.39H88a10.88,10.88,0,0,1,10.88,10.87h0A10.88,10.88,0,0,1,88,333.42h0a10.88,10.88,0,0,1-.06-21.75Z" style="fill:#fff;stroke:#000;stroke-width:2px"/><path d="M65.34,546.52C74.49,552.8,88,556,88,556s13.47-3.23,22.62-9.51c-3.15,10.64-2.06,24.45-2.06,24.45s7.24,11.82,16,18.57c-11.09.29-23.89,5.6-23.89,5.6s-9,10.53-12.71,21c-3.71-10.46-12.71-21-12.71-21s-12.8-5.31-23.89-5.6c8.8-6.76,16-18.57,16-18.57s1.09-13.81-2.06-24.45Z" style="fill:#fff;stroke:#000;stroke-width:2px"/><path d="M87.85,547.37A11.44,11.44,0,0,0,77.29,563a11.44,11.44,0,1,0-6.6,20.29,11.44,11.44,0,0,0-.53,18.88h0a11.44,11.44,0,0,0,16-2.53h0a11.44,11.44,0,0,0,1.8-3.81,11.44,11.44,0,1,0,20.32-9.64h0a11.44,11.44,0,0,0-3.06-2.89,11.44,11.44,0,0,0,11.53-15h0a11.44,11.44,0,0,0-14.42-7.35h0a11.44,11.44,0,0,0-3.69,2A11.44,11.44,0,0,0,88,547.37h-.11Zm0,19.39H88a10.88,10.88,0,0,1,10.88,10.87h0A10.88,10.88,0,0,1,88,588.52h0a10.88,10.88,0,0,1-.06-21.75Z" style="fill:#fff;stroke:#000;stroke-width:2px"/><path d="M262.56,546.52c9.14,6.28,22.62,9.51,22.62,9.51s13.47-3.23,22.62-9.51c-3.15,10.64-2.06,24.45-2.06,24.45s7.24,11.82,16,18.57c-11.09.29-23.89,5.6-23.89,5.6s-9,10.53-12.71,21c-3.71-10.46-12.71-21-12.71-21s-12.8-5.31-23.89-5.6c8.8-6.76,16-18.57,16-18.57s1.09-13.81-2.06-24.45Z" style="fill:#fff;stroke:#000;stroke-width:2px"/><path d="M285.07,547.37A11.44,11.44,0,0,0,274.51,563a11.44,11.44,0,1,0-6.6,20.29,11.44,11.44,0,0,0-.53,18.88h0a11.44,11.44,0,0,0,16-2.53h0a11.44,11.44,0,0,0,1.8-3.81,11.44,11.44,0,1,0,20.32-9.64h0a11.44,11.44,0,0,0-3.06-2.89,11.44,11.44,0,0,0,11.53-15h0a11.44,11.44,0,0,0-14.42-7.35h0a11.44,11.44,0,0,0-3.69,2,11.44,11.44,0,0,0-10.67-15.58h-.11Zm0,19.39h.06a10.88,10.88,0,0,1,10.88,10.87h0a10.88,10.88,0,0,1-10.88,10.87h0a10.88,10.88,0,0,1-.06-21.75Z" style="fill:#fff;stroke:#000;stroke-width:2px"/><path d="M689.42,546.52C698.57,552.8,712,556,712,556s13.47-3.23,22.62-9.51C731.51,557.15,732.6,571,732.6,571s7.24,11.82,16,18.57c-11.09.29-23.89,5.6-23.89,5.6s-9,10.53-12.71,21c-3.71-10.46-12.71-21-12.71-21s-12.8-5.31-23.89-5.6c8.8-6.76,16-18.57,16-18.57s1.09-13.81-2.06-24.45Z" style="fill:#fff;stroke:#000;stroke-width:2px"/><path d="M711.93,547.37A11.44,11.44,0,0,0,701.37,563a11.44,11.44,0,1,0-6.6,20.29,11.44,11.44,0,0,0-.53,18.88h0a11.44,11.44,0,0,0,16-2.53h0a11.44,11.44,0,0,0,1.8-3.81,11.44,11.44,0,1,0,20.32-9.64h0a11.44,11.44,0,0,0-3.06-2.89,11.44,11.44,0,0,0,11.53-15h0a11.44,11.44,0,0,0-14.42-7.35h0a11.44,11.44,0,0,0-3.69,2A11.44,11.44,0,0,0,712,547.37h-.11Zm0,19.39H712a10.88,10.88,0,0,1,10.88,10.87h0A10.88,10.88,0,0,1,712,588.52h0a10.88,10.88,0,0,1-.06-21.75Z" style="fill:#fff;stroke:#000;stroke-width:2px"/><path d="M377.38,744.35c9.14,6.28,22.62,9.51,22.62,9.51s13.47-3.23,22.62-9.51c-3.15,10.64-2.06,24.45-2.06,24.45s7.24,11.82,16,18.57c-11.09.29-23.89,5.6-23.89,5.6s-9,10.53-12.71,21c-3.71-10.46-12.71-21-12.71-21s-12.8-5.31-23.89-5.6c8.8-6.76,16-18.57,16-18.57s1.09-13.81-2.06-24.45Z" style="fill:#fff;stroke:#000;stroke-width:2px"/><path d="M399.89,745.21a11.44,11.44,0,0,0-10.56,15.59,11.44,11.44,0,1,0-6.6,20.29A11.44,11.44,0,0,0,382.2,800h0a11.44,11.44,0,0,0,16-2.53h0a11.44,11.44,0,0,0,1.8-3.81A11.44,11.44,0,1,0,420.32,784h0a11.44,11.44,0,0,0-3.06-2.89,11.44,11.44,0,0,0,11.53-15h0a11.44,11.44,0,0,0-14.42-7.35h0a11.44,11.44,0,0,0-3.69,2A11.44,11.44,0,0,0,400,745.21h-.11Zm0,19.39H400a10.88,10.88,0,0,1,10.88,10.87h0A10.88,10.88,0,0,1,400,786.35h0a10.88,10.88,0,0,1-.06-21.75Z" style="fill:#fff;stroke:#000;stroke-width:2px"/><path d="M101.9,138.18l8-8a12.29,12.29,0,0,1,17.42,0l8,8a12.29,12.29,0,0,1,0,17.42l-8,8a12.29,12.29,0,0,1-17.42,0l-8-8A12.29,12.29,0,0,1,101.9,138.18Z" style="fill:#ffc72c;stroke:#000;stroke-linecap:round;stroke-width:2px"/><path d="M301.07,347.66l-93.69-46.18-18.46-94.63-4-5.64a61.78,61.78,0,0,0,29-33.69l-.59-44A255.18,255.18,0,0,1,188.24,104a22.55,22.55,0,0,0-1.94,5.78l-.09.35c0-.13,0-.25.05-.38s-8,4.9-8,8.58v3c0-3.68-8-8.58-8-8.58s-8,4.9-8,8.58v3c0-3.68-8-8.58-8-8.58s-8,4.9-8,8.58v3c0-3.68-8-8.58-8-8.58s-8,4.9-8,8.58v51a37.13,37.13,0,0,0,5-3.15A35.14,35.14,0,0,0,152,201.61l-5.1,5.64,2.66,115.53L255.76,405.1l57.71-25.88Z" style="fill:#fff;stroke:#000;stroke-width:2px"/><path d="M178.3,121.35v48.89c8.26-7.42,14-9.2,14-9.2a92.57,92.57,0,0,1,1.29-30.71s-9.57-8.48-7.3-20.58m-23.87,14.6v54s15.91-7.82,15.91-20.7m-31.83-30.31v51s15.91-7.82,15.91-20.7m-26.8,17.56c4.62-3.47,10.88-9.7,10.88-17.56" style="fill:none;stroke:#000;stroke-linecap:square;stroke-width:2px"/><path d="M224.7,174.42s29.85-6.9,45.72-7.11l371.36-4.93c6.41-.08,24.15-8.61,38.25-16.49-14.09-7.88-31.84-14.41-38.25-14.5l-371.36-4.93c-15.87-.21-45.72-7.11-45.72-7.11Z" style="fill:#fff;stroke:#000;stroke-width:2px"/><path d="M208.74,80.39s4.14-1.74,14.56-1.74,14.56,1.74,14.56,1.74c-8.87,41.8,0,65.5,0,65.5s-8.84,21.71,0,63.51c0,0-4.14,1.74-14.56,1.74s-14.56-1.74-14.56-1.74c8.87-41.8,0-63.51,0-63.51s8.84-23.7,0-65.5Z" style="fill:#ffc72c;stroke:#000;stroke-width:2px"/><path d="M147.25,199.47h44.9a6.52,6.52,0,0,1,6.53,6.53v5.33a6.52,6.52,0,0,1-6.53,6.53h-44.9a6.52,6.52,0,0,1-6.53-6.53V206A6.52,6.52,0,0,1,147.25,199.47Z" style="fill:#ffc72c;stroke:#000;stroke-linecap:round;stroke-width:2px"/><path d="M204.41,320c29.28,3.25,33.72-16,33.72-16-15.21-2.51-24.87-15.5-26.32-30.76-16.86,5-21,27.51-21,27.51H142l5,39.34,36.38,17.15c6.06-12.62,12.88-26.13,21-37.27Z" style="fill:#ffc72c;stroke:#000;stroke-width:2px"/><path d="M178.94,171l-1.28-1.58c-10.32,9.64-11.61,18-11.61,18A77.9,77.9,0,0,1,178.94,171Z"/><path d="M210.87,836.78s-57.72-36.39-72.36-43.5-20.91-7.95-30.53-2.09-2.51,13.8-2.51,13.8A16.38,16.38,0,0,1,87.89,793.7c-2.93-8.37,8.37-16.31,8.37-16.31C90,769.86,93.33,758.15,110.9,754s27.19-11.71,27.19-11.71,2.93,11.71-5.86,18c0,0,18,3.76,40.16,16.31S231.78,805,231.78,805Z" style="fill:#ffc72c;stroke:#000;stroke-width:2px"/><path d="M235.69,804.85S322,853.37,407.24,853.37s134.63-19.24,155.54-28.44c0,0,25.1,25.1,59.4,26.77-5.69,6.87-75.08,58.16-189.72,58.07-127-.1-218.52-69.78-218.52-69.78Z" style="fill:#fff;stroke:#000;stroke-width:2px"/><path d="M223.8,838.37c-4.74,8.77-15,29.08-15,29.08s10.23,3.45,8.95,12.8-10,12.62-18,9-11.37-11.4-6.61-21.49,13.45-26,17.7-35.6a18.92,18.92,0,0,0-.54-17.1s11.12-7,15-13.23,15.54-31.15,15.54-31.15c-4-.15-10.83-3.74-9.54-13.1s10.58-11.44,18.59-7.78,9.89,12.29,6,21.2-13.45,28.32-17.7,38-.35,20.06-.35,20.06a18.55,18.55,0,0,0-14.12,9.39Z" style="fill:#ffc72c;stroke:#000;stroke-width:2px"/><path d="M245.85,767.55a9,9,0,0,1-7.77,1.46l2.7,2.2A8.08,8.08,0,0,0,245.85,767.55Zm-36.79,99.92a8.06,8.06,0,0,0-5.3,3.32,8.94,8.94,0,0,1,7.85-.95Z"/><path d="M342.43,643.73c-26.74,23.11-72.09,41.43-89.88,34.84s-21.65-19.88-24.72-27.32S220,643.88,213.78,648c-9.37-9.76-39.21-10.1-45.37,9.16,6.44-1.29,17.38-4,26.75,5.24,0,0-4.23,5.33-4.28,9.4s10.47,8.53,24.1,20.1c0,0-23-5.54-28.65-10.91s-11.09-5-15.13,1.34c-16-5-41.17,10.79-36.22,34.61,8.75-9.94,17.32-15.31,30-11.78,0,0-3.23,5.86,2.87,12.69s18.2.57,36.07,8.06c-7.9,3.47-18.17,3.68-20.8,7.3-1.67,2.29.09,5.34,1.05,8.41-11.93,9.65-23.24,38.44-.91,55.6-.48-9.49,0-24.13,11.25-30.92,4.25,1.52,5.58,3.06,9.27,4.24,4.26,1.37,10.4-8.09,26.88-20.44s27.23-13.19,31.63-12.36,1,4.9,1.41,9.05,7.65,7.73,7.65,7.73c0,7.8-3.69,13.35-11.06,18.09,6.92,5.61,23.9-1.16,29.06-13.91,0,0,8-1.92,9.73-8.62s-3.05-20.43,26.27-29.9a14.41,14.41,0,0,0,7.34,7.68l10.94-6.12a17.33,17.33,0,0,1,4.19-18.8c-.35,3.38-2.09,10.88,7.11,16.31l11.71-5s-7.11-10.88,4.18-21.33c0,0-5,12.13,4.6,19.24l13-4.6s-7.95-10,5-24.26c0,0-2.09,14.22,7.53,19.66l11.29-4.6s-5.86-26.35,23.42-35.55l4.6-25.1S426,626.39,436,613.42,462,590.83,485,584.56s46.85-20.91,46.85-20.91l2.09-35.55L483.31,500.9s-31.74,8.77-66.93,33c-33.11,22.84-43,21-49.78,17.15s-7.95-15.48-7.95-15.48l-11.71,5s-7.11,16.31,10.46,23c-16.76,5.38-9.8,16.95-21.75,31.37,0,0,6.69,4.6,8.78,7.11,0,0,7.11-.84,13.39-7.95,4.69,7.5,11.35,26.45-15.39,49.56Z" style="fill:#ffc72c;stroke:#000;stroke-width:2px"/><path d="M357,593.56l1.61,1.25c7.36-9.58,8.5-18.08,17.46-21C363.86,575.59,364.3,585.25,357,593.56Zm35.47,89.21,1.78,1s6.92-12,0-20.65c4.34,8.49-1.8,19.64-1.8,19.64Zm-22.56,9.58,1.73,1.08s7.28-11.43,1.93-21.14c2.92,9.22-3.66,20.05-3.66,20.05Zm-23,10.08,1.78,1c3-6.26,5.55-15.06,1.55-20.49C351.77,690.34,350,696.17,346.9,702.43ZM215.3,690.93l-.62,1.94a52.13,52.13,0,0,0,16.14,2.1C223.07,693.38,215.3,690.93,215.3,690.93Zm109,29.48,2-.48c-1.57-11.34,8.69-13.09,2.62-25.16C331.45,708.45,323.61,706.7,324.33,720.42Zm-120.69,4.5.5,2s14.53-3.72,23.45-8.26c-9.42,2.56-23.94,6.29-23.94,6.29Z"/><path d="M498.65,511.78a28.31,28.31,0,0,0-12.13,10s26.45,6.4,38,30.69" style="fill:none;stroke:#000;stroke-width:2px"/><path d="M633.18,167.37a127.24,127.24,0,0,0-25.1,2.59c-35.8,7.19-59.35,40.63-61.7,71.23-2.43,31.63,16.83,60.07,36.17,72S604,328,610.23,331.55c-8.75,5.06-30.44,14.16-39.64,31.73s-3.76,29.7,0,38.06,2,19.63-2.09,27.19h46s14.64-15.06,9.62-39.32,10.38-34.91,15.54-39.63c13.38,9.42,21.94,16.21,29.58,26.56,13.94,18.89,17.16,41.08,6.94,65.06-9.9,23.23-30.35,33.43-47.46,36-17.77,2.62-31.05.25-50.66-7.06S525.41,437,497.8,413.61s-47.68-64.41-47.68-64.41l-125.48-1.68-22.83,10.56s-7.07,20.13-34.87,35-60.41,33.76-88.6,38.13-44-10-53.22-27.12c-8.89-16.57-12.86-15.28-19.66-8.78-13.07-10.56-38.35-4-42.66,14.22,6.23-2.09,18-6.28,28.44,1.67,0,0-4.77,6-4.31,10s11,12.15,29.4,21.35a111.59,111.59,0,0,1-31.57-10.42c-14.62-7.72-17.94-4.23-20.37,3.7-16.74-1.46-32.82,16.8-25.78,37.3,4-5.22,11.42-14.42,24.53-13.66,0,0-1.87,5.53,2.44,9.46s17.66-.84,34.71,6.13C89.2,478.65,82,480.17,79.65,484c-1.48,2.42-.14,4.8,1.06,7.78-13.95,9.38-15,33.69,3.37,45.21-.16-6.57.13-18.39,10.8-26,4.36,1.18,5.76,3.41,11.69,3.76s12.68-12.59,21.81-17.6,16.39-6,20.82-5.43,2.36,5,2.36,8.28,5.62,5,5.62,5c-.3,5.83-3.55,10.18-10.94,13.6,5.32,3.43,20.8,4.53,25.43-7.69,0,0,7.69,1.78,9.17-4.43s3.55-24,40.82-24a14.46,14.46,0,0,0,4.93,9.17s10.06-.3,16.86-3.84c-.89-15.4,3.71-14.22,10.05-24,0,0-7.69,13.61,2.37,22.77l16.56-4.44c-2.71-13.65,2.2-14.07,8.58-26,0,0-7.1,16,7.4,24L303.19,476c-5.4-14.75-3.53-15.59,7.39-28.69-2.37,5.62-6.21,18.93,5.92,26.32l14.2-3.25c-3.5-16.1,1.13-17.08,5.91-25.14,0,0-5.92,13.9,4.14,22.48,0,0,11.24-.59,15.68-5,0,0-1.95-7.26.29-11.83,0,0,15.23,15.54,56.07,26.76s69.76,21.84,92.07,43.86S525,561,534.48,585.82c9.59,25.19,16.51,40.84,6.8,49.69s-18,5.33-18,5.33.43,8.06,4,12.66c.42.21,8.37,5.65,18.4-.21,0,0-1.67,9.62,2.72,14.85,4.93,4,10.71,3.74,16.73,2.3-9-14.34,5.81-27-1.88-38.69A290.09,290.09,0,0,0,592,636.59c13.9,1.48,35.51,11.11,42.62,45.41s5.86,58.56-13.39,60.65c-12.11,1.32-24-1.31-31.34-4.64s-13-6.86-15.91,3.57c-16.78-.9-33.45,19.2-26.23,36.53,3.82-5.35,10.9-15.63,24-15.32,0,0-.36,7.64,2.38,10.64s10.65,4,27.67,1.63c0,0-13.52,5.52-24.15,5.44s-12.29,4-13.67,14.56c-15.13,7.31-25.45,39.18-5.56,53.18C557.1,835.86,563.36,822.06,575,816c0,0,1.22,5.71,6.94,6.88s17-12.81,34.45-17.2c-3.39,7.94-10.75,15.1-10.19,19.55.35,2.82,3.72,3.84,6.52,5.42-2.11,15.2,8.07,36.5,31.27,36.57-4.23-5-12.63-17.79-9.07-30.43,4.14-1.79,6.63-.94,11.47-4.36s2-17.75,6-27.36,6.64-16.83,10.42-19.24,3.21,2.56,6.34,5.32,10.87.41,10.87.41c3.86,4.78,5.21,13.41,3.07,21.91,8.88-.63,18.66-15,13.71-27.87,0,0,9.64-4.27,5.33-12.22s-14-24-5.85-44.07c9.5,3.59,14.94-1,14.94-1l.84-15.47c-12.61,1.12-13.15-6.13-22.59-12.13,13,8.37,21.33,4.6,21.33,4.6l2.09-16.73c-15.12-.46-16.68-10.79-23.84-18,13.38,10.46,23,7.53,23,7.53l.84-16.73c-13-.65-15.09-9.22-22.59-14.22,12.13,7.11,22.17,2.51,22.17,2.51V632.5c-7.53,1.25-15.89-1.25-24.26-9.2s-7.53-24.68-7.53-24.68l-23.84-13.8C628.87,597,615.62,570,615.62,570a11.8,11.8,0,0,0,11.71-4.6,22.43,22.43,0,0,0,1.25-14.64c-14.3,6.74-17.46-1.69-25.1-6.28,11.71,7.53,21.09.84,21.09.84,2.29-7.14-.17-15.47-.17-15.47-11.41,6-14.4-2.39-21.33-5.85a17.45,17.45,0,0,0,18-3.77c2.51-5,1.25-13.39,1.25-13.39-15.06,8.78-27.16-9.71-27.16-9.71s14.25,4.46,36.71,1.15c17.84-2.63,38.43-11.8,53-30.09,18.62-8.59,24.1,6.65,24.1,6.65a46.46,46.46,0,0,0,9.28-14.1s-1.31-17.61-20.78-14.6c13.93-21.1,27.19-8.27,27.19-8.27a46.47,46.47,0,0,0,2.11-16.74s-8.33-14.18-23.43-5a84.66,84.66,0,0,0-.26-8.65c11.71-14.62,24-5.86,24-5.86a48.72,48.72,0,0,0-.84-15.47s-12.07-15-28-.87a86.82,86.82,0,0,0-11.72-21.84,137.36,137.36,0,0,0-29.26-29.21c3.65-3,11.79-8,24.22-18.9,13.44-11.77,27.32-29.47,32.67-57.84,5.53-29.31-5.35-58.08-27.44-74.1-12.16-8.82-30.15-16-53.49-16Zm3.64,26.75s17.16,2.66,11.24,22.18c0,0,9.17,1.78,15.38-1.18a22.52,22.52,0,0,0-.43-20.65,56.47,56.47,0,0,1,11.11,6.22c14.9,10.81,23.08,31,19,52.82-4.29,22.76-16.31,37.47-32.27,49.61-7.82,6-17.3,10.73-26.06,15.17-9.48-6.88-16.2-7.93-35.55-20.51s-32.27-34.21-30.65-55.38c.84-10.91,3.1-19.52,11.65-29.84s17.77-2.36,16,6.11a76.46,76.46,0,0,0,15.65-1.24s6-10.92-2.19-20.53c0,0,17.4,1.36,11.19,20,0,0,8.58,2.36,15.68-.3C636.52,216.6,645.39,203.88,636.82,194.12Z" style="fill:#ffc72c;stroke:#000;stroke-width:2px"/><path d="M585,399.93c8.49,15.28-2.27,28.45-2.27,28.45H587s9.79-13.11,1.23-28.53S584,374,588.9,367.64c-6.88,5.44-12.34,17-3.85,32.29Zm24.86-32.29c-8.14,6.7-12.12,14.42-6,31.84s-3.63,28.89-3.63,28.89h3.47s9.81-12.18,2.79-29.73-1.6-24.62,3.34-31Zm-243.42,39c-3.43,7.06-2.27,13.9,1.27,18.26-7.86,15.8-12,25.52-12,25.52l1.88.78s4.44-9.38,12.43-26.13c-3.4-4.15-5-10.93-3.61-18.43Zm-25.44,16c.53,9.73-5.35,22.14-5.35,22.14l1.83.89S343.75,433.1,341,422.65Zm-24.84,6.22c-.09,6.24-3.54,12.79-6.5,17.91l1.76,1C314.45,442.63,318.28,435.74,316.21,428.87ZM286.92,438c-1.23,8.13-6.85,17.73-6.85,17.73l1.87.81S288.91,444.2,286.92,438Zm-170.34,3.59-.5,2a61.47,61.47,0,0,0,14.47,1.34C122.15,443,116.58,441.62,116.58,441.62Zm142.53,5.28c0,6.67-4,11.67-6.51,16.49l1.8.95C257.77,458.71,261,452.62,259.11,446.9Zm-31,11.53c-.12,12.15-7.07,12.69-7.43,24.12l2-.12C223.17,473.65,231.22,466.93,228.06,458.44Zm-105.5,11c-7,.79-22.52,4.64-22.52,4.64l.5,2S116,472.24,122.57,469.48Zm468.7,49.69s5.8,2.7,11.31,5.75l1-1.78A38.07,38.07,0,0,0,591.27,519.17Zm2.57,20.09a10.67,10.67,0,0,0-3.45.32c5.32.45,8.88,3.67,12.61,5.83l1-1.76C600.78,541.27,597.3,539.49,593.83,539.26Zm5.56,24.83a9.55,9.55,0,0,0-1,0c6.29,1.93,11.71,6.37,17.17,6.93l.18-2C609.7,568.33,604.59,564.18,599.4,564.09Zm71.32,72.61q-1.09,0-2.25.19c13.17,1.85,15.93,8,21.38,11.14l1-1.78c-4.35-2.48-9.28-10-20.14-9.56Zm-1.48,23.43c-.64,0-1.29.05-2,.12,9.72.9,16.69,7.27,21.15,11.09l1.33-1.55c-4.13-3.54-11-9.84-20.53-9.67Zm3.38,27.63c7.68,3.25,10.75,10.34,16.38,13.79l1.05-1.74C683.78,696,680.47,688.15,672.61,687.76Zm.29,27.5c9.87,2.13,16.08,11.67,23,15l.84-1.85C688.58,722.65,682.56,714.8,672.9,715.26ZM616.7,770c-7.12,1.69-15.19,4.09-15.19,4.09l.57,2A83.73,83.73,0,0,0,616.7,770Zm11.83,19.52c-6.77,5.93-13,15.62-13,15.62l1.71,1.1S623.46,796.58,628.53,789.5Z"/><path d="M639.68,349.59a207.89,207.89,0,0,1,17.55-15.36m-47-2.68c10.28-5.38,15.11-8.45,24.52-13.26" style="fill:none;stroke:#000;stroke-width:2px"/><path d="M262,223.78c-8.07,13.1-6.05,42.74,29.09,41.9s55.21-7.53,79.47.84,28.44,18,28.44,18l.25-11.37s-24-28.84-68.72-24.24-46.15-7-45.37-15.74,11.91-13,11.91-13c-3.52-8.35-27-9.51-35.06,3.59Z" style="fill:#ffc72c;stroke:#000;stroke-width:2px"/><path d="M340,113.33c-15.08,17.45-17.64,29.13-17.64,29.13,1.48,3.55,2.37,5-1.77,12.13s-20.11,35.2-20.11,35.2,3.55,8.87,16,13.9c0,0,0,11.83,4.44,20.7a125.25,125.25,0,0,0,13.9,3.25s-.3,10.94,8,17.45c0,0,1.6-19.2,14.49-25.36s24.66-4.06,32.76,12.47,9.81,34.94.49,55.27-33,15.48-39.81,4.53-6.75-21.47-5.57-26.79c0,0-9.07-.59-12.32,15.68a40.72,40.72,0,0,1-12.72,2.37s-1.48,3.55-.3,10.94-10.35,27.21-28.1,21.89c0,0-1.18,8.58,2.07,15.08,0,0,10.35,7.1,21.3,3C298,343,281.09,340,271,353.35c0,0,4.44,8.87,4.14,15.08,16.84-9.71,32-2.75,52.75-13,0,0-8.87,13.61-3.55,27.21l14.2,4.44A23.26,23.26,0,0,1,353,365.78s-3,13.9,2.37,23.66a53.06,53.06,0,0,0,16.86,4.14S366.88,377,383.45,363.7c0,0-2.07,20.41,8.28,29.28,4.76,1.68,13.1,2.12,17.15.89-8.84-14.37.7-16.83,3.25-36.38,5,12,5.65,24.34,16.56,33.13a61.21,61.21,0,0,0,17.45-3c-12.06-15.49-4.41-24.23-10.06-38.75,9.38,11.87,18.2,20.28,36.08,19.52a47.28,47.28,0,0,0,7.39-19.23c-25.59-3.1-22-15.22-35.79-31.65,0,0,17.15,17.15,31.94,7.1L479,308.1c-22.91-.45-16.37-7.88-33.87-22.63,11.24,4.5,19.82,13.24,32.09,7.84,2.37-7.1,3-18.34,3-18.34-15.61.57-20.2-.74-31.06-13.31,0,0,16.27,11.83,26.92,3.84l4.44-16c-14.17.79-18.19.15-29.58-10.94,0,0,13.9,8.28,24.25-.59l2.07-14s-18,2.07-29.28-10.06c0,0,16.27,3.85,24.55-6.21l.3-14.49s-11.83,4.73-21,1.48A113.79,113.79,0,0,1,456,171l-14.13-35.76Z" style="fill:#ffc72c;stroke:#000;stroke-width:2px"/><path d="M338.41,145.34a7.28,7.28,0,0,0-2.74.9,10.29,10.29,0,0,1,8.05,5.15c-2,3.75-5.46,10.14.38,16.21a21.76,21.76,0,0,1-5.58,2.73s8.67,1,18.92-8.29c0,0,7.21,2.83,12.4.29-10.64.41-19.17-6.82-23.76-11.93-3.44-3.83-5-5.33-7.67-5.07Zm70.82,1.22c-5.66,3.35-13.66,4.47-13.66,4.47s8.62.47,14.76-2.74Zm-63.59,6.85s5.67,5.68,9.76,6.93c0,0-2.88,3.42-9.39,6.5a10.29,10.29,0,0,1-2.43-6.53A13.38,13.38,0,0,1,345.64,153.42Zm73.87.72c-3.69.13-7.24,3-7.24,3s6.45-1.29,8.66,1.36.07,7.95.07,7.95,7.86-5.17,3.32-10.25a5.91,5.91,0,0,0-4.81-2Zm17.26,7.05a32.39,32.39,0,0,1-9.86,12.32c7-2.21,9.76-7.55,11.67-11.37ZM424,180.61c10.91,2.51,18.53,12,27.48,15.07l.63-1.94C442.08,189.42,434.25,181.16,424,180.61Zm-94.37,11.87c0,1.5.32,2.94-1.87,5.39s-8.38,5.07-8.38,5.07,5.81-.06,9.62-3.35,2.09-6.69.62-7.11Zm97.3,11.71a14.09,14.09,0,0,0-1.45.09c8.94.94,15.12,7.92,22.12,10.62l.72-1.91c-7.23-3.57-14.17-8.86-21.39-8.8Zm3,25.23a39.08,39.08,0,0,1,20.27,9.87l1.46-1.41A32.49,32.49,0,0,0,429.87,229.42Zm4.27,26.1a23.68,23.68,0,0,0-4.26.52,27.76,27.76,0,0,1,18.54,6.36l1.37-1.49A23.62,23.62,0,0,0,434.14,255.51Zm1.42,26.13a20.14,20.14,0,0,0-2.73.12,31.08,31.08,0,0,1,11.69,4.53l1.17-1.67a19.72,19.72,0,0,0-10.13-3Zm-5.68,28.52a23.26,23.26,0,0,1,13.06,8l1.67-1.19S439.87,310.39,429.88,310.16ZM325.47,325.24a25.57,25.57,0,0,1-10.79,7.9l.66,1.94A18,18,0,0,0,325.47,325.24Zm10.05,10.94a30.23,30.23,0,0,1-8.39,18.47l1.39,1.5A25.68,25.68,0,0,0,335.53,336.18ZM424,338.26a26.63,26.63,0,0,1,11.21,11.07l1.85-.86A21.11,21.11,0,0,0,424,338.26ZM358.3,342.4c2.15,14.57-6,22.64-6,22.64l1.43,1.44s9-9.07,4.61-24.08Zm24.26.89a22.86,22.86,0,0,1,0,19.9l1.78,1A20.74,20.74,0,0,0,382.56,343.29Zm23.95,5.62a15.43,15.43,0,0,1,4.61,8.68l2-.22A11.31,11.31,0,0,0,406.51,348.91Z"/><path d="M340,113.33c14.22-32.56,19.14-84.86,19.14-84.86,8.65.65,20,9.27,17.77,23.36,9.83,4.32,15.88,13.24,10.78,27.39-4.93-2.08-9.81-4.27-13.65.32s-2.79,9.21,2.06,10.76,10.34-5.85,10.34-5.85l10.06,4.16s-3.8,9,3,11.9,12.4-4.17,9.14-12.18-13.16-6.08-13.16-6.08c2.66-16.36,13.8-17.62,20.54-13.92,8.52-11.44,18.76-11,21.3-11.09,1.68,1.9,8.79,9.79,6.56,23.88,6.69,3,11.26,14,3.75,23.45,0,0-4.77-7.76-12.78-4.5s-8.91,11.58-2.09,14.46,11.52-5.77,11.52-5.77L454.67,114s-4.35,9.16.16,12.28,8.79,1.27,10.76-4.38-2.63-9.86-9.52-12.72c9-12.89,19.23-14.25,29.64-4.52,11-7.47,25.83-2.76,30.82,4.34,0,0-37.17,29.33-60.5,62l-18.36-9.35c2.32-7.63,2-14-.21-17.73-15.78-5.57-20.88,1.15-27.7,3.5Z" style="fill:#ffc72c;stroke:#000;stroke-width:2px"/></svg>