<svg xmlns="http://www.w3.org/2000/svg" viewBox="0 0 224.83 228.55"><title>Greece</title><path d="M118.5,1l1.12,2.44,2.62,5.72-3.66,2.53-4.78,3-3.47,3.47-2.44,1.22-1.69,2.25,3.84.47s8.62,1.41,9.56,1.41,12.75,1.12,12.75,1.12l15.37,1.87,11.34.84,3.19,1.22,7.41,4.5L172.59,37l2.16,6,3.56,6.66,3.56,6,6.94,7.12,5.91,4.87L198,74.52l2.44,8.34-.19,9.47v5.44s-3-1.78-3.37-2A37.25,37.25,0,0,1,194.16,92l-2.34-5.44-1.22,2.91-2.72,7.12,2.44,12.75L193,119l4.59,7.22s6.84,11,6.47,11-5.25,12.09-5.25,12.09l-1.5,1.5L195,148.11l-1.69-4.41-3.09,5.53-3.47,7.59-3.94,6.37-3.47,9.47s-3.09,8.53-3.09,9.09a14.77,14.77,0,0,1-1.5,3l-6.94,2.91-6.09,4.22s-5.16,6.09-5.53,6.28a59.36,59.36,0,0,0-5.44,6.56c0,.38-2.53,2.34-3.19,2.72a58.9,58.9,0,0,1-5.72,1.5l-2.53.19s8.44-8.72,8.44-9.56a72.44,72.44,0,0,1,2.16-7l2-3.37s-.19-1.31-.56-1-4.22,3.28-4.22,3.28l-8.81,2.06s-8.53,2-8.91,2-4.22.84-4.59.84-7.12,3.19-7.12,3.19l-3.9,2.46.27-.31-6.57-3.33-11.1-2.87L90.45,195l-3.24-1.48L80,192.11l-5.46-2.5-.65.65L77,197.48,82.59,204,82.31,206l-6.66-1.85-7.31-7.49-4.81-5-7.12-4.44-6.2-2.77L48.55,178l-3-9.43-3.24-7.21-6.94-11.47-2.68-6.2-1.94-4.35-2.41,7.86a30.2,30.2,0,0,1-3.51-2c-.28-.37-3.24-7.12-3.33-7.49s1.57-6.29,1.57-6.29l6.2-10.63,3.79-7.49,2-6.66.65-7.12-.18-9.8L34.22,82l-3.42,4.9L25,93.34l-.74-12.21.83-4.62L29.78,69l5.09-6.57L40.42,58l5.27-6.38,4-8.51,3.79-9,6.47-5.46,4.81-1.85s10.08.93,10.73.93,9.25-1.57,9.25-1.57l10-5.09,7.21-5.27a63.68,63.68,0,0,0,4.16-5.46c.18-.65,1.11-4,1.11-4l1.66-2.87.46-2.22L106,3.63l-7.49,1.2L90.82,5l-8.51,2L76.85,9.18,71,12.51,66.22,17.6l-1.48,3.7-1,2.77-5,3.05s-4.62,4.35-4.72,4,.92-6.75.92-6.75L55,19.82l-1.76.37-2.68,2.59L43.1,27.4l-5.55,4.9-5.09,5.55-4.35,9.71L25.9,59.86,27.1,64,25.8,68.83l-2.22,4.35c-.18.37-2.22-2.4-2.22-2.4L20.25,65.5l-.83-4.35-.18-2.5L16.09,62l-9,17L4.62,92.32l2.68,12,5.55,8,1.29,5L14,124l-.65,2.68-4.07-3.88-2.31-3.61-1.48-3.33-.65,4.26-.09,3.51-2.13,4.25,1.66,12.67L7.68,150l4.62,7.49,8.88,8.14,5.09,4.9,3.05,5L31,179.72l-5.36-3.05-1.2.93,2,4,3.51,8,8.32,9.16,13.6,9.52,8.6,1.94,11.75-.09s7.58-.74,8-.65,12.95,3.79,12.95,3.79l7.12,3.42.48-.11-7.35,2.85-8.34,2.06-6-2.16.28,2.25-.09,2.53,4.22,2.53s7.12.94,7.31.47,14.34-5.72,14.34-5.72l10.12-.84,8.34,2.06,8.25,3.94,3.66,1.22s5.53-1.12,5.91-1.5,4.22-2.91,4.22-2.91l.75-3-.28-1.22-3.28,1.59-8.06.28-8.06-2.16s1.5-2.16,2.06-2.34,6.94-2.53,6.94-2.53l9-2.91,13.59-1s8.25-.28,8.62-.28,5.06-.84,5.06-.84l6.56-3.56,7.59-5.62,7.22-7.87,6.09-8.25,2.06-4.12-1.22-.56-3.09,1.31-2.34.75,2.81-3.19,4.78-7.59,6.19-4.5,5.44-6.94,4.22-7.5,2.91-9.28,2.44-11.81.66-9.66-1-2.81-1.5,2.81-6.09,5.16-3.56,3.84.75-7.31-1.12-5.91s3.75-7.5,4.12-7.69,2.91-6.09,2.91-6.09l1.41-10.22-.66-9.47-2.34-5.91-1.78-4-6-14.16-1.41.56-.37,3.66-3.09,6.84-3.47,11L199,73l.37-4L198,67.77l-.66-5.53.19-7.59-1.41-8L191,36.46s-4.59-5-5-5.16-7.87-5.72-7.87-5.72L171,21.18l.75,4.78s.28,6.19-.09,6.37-3.84-2.91-3.84-2.91l-3.75-3.84-3.37-2.53-4.22-7.41L150.19,10l-8.91-3.19-9.09-1.31L126.28,4l-7-2.53Z" style="fill:#fff"/><path d="M118.13.19c-.36,0-.54.36-.52,1a2.42,2.42,0,0,0,.44,1.36c2.06,2.15,4,5.42,3.39,5.78-.39.24-1.3,0-2.61-.71a5.62,5.62,0,0,0-1.21-.53,2.51,2.51,0,0,1-.84-.49c-.48-.38-.74-.43-1.1-.24s-.47.35-.47.46a9.06,9.06,0,0,0,1.37,1.65A7,7,0,0,1,118,10.25a.49.49,0,0,0,.31.42c.52.18-.42,1-2,1.79a15.27,15.27,0,0,0-2.59,1.66,5.53,5.53,0,0,1-1.43,1,.3.3,0,0,0-.27.32c0,.49-2.51,2.8-3.43,3.16s-3.29,2.8-3.29,3.26c0,.13.22.23.48.23a.84.84,0,0,1,.65.27c.12.19.24.19.43,0a.37.37,0,0,1,.57,0c.21.17.36.17.47,0a.94.94,0,0,1,1.23,0c.07.12-.36.53-1,.92-1.19.75-1.54,1.29-1.13,1.71.19.19.43.16.82-.08.67-.42,7.24-.74,10.27-.51,1.1.08,3.84.18,6.1.21a22.34,22.34,0,0,1,4.35.29,5.12,5.12,0,0,0,1.95.24,13.32,13.32,0,0,1,4.54.75,24.53,24.53,0,0,0,2.86.62,17.37,17.37,0,0,1,2.81.65,11.13,11.13,0,0,0,2.34.48,7.3,7.3,0,0,1,2.26.55c.52.43,11.33.41,11.85,0,.26-.22.41-.22.53,0s.26.2.5,0,.47-.19.86,0,.56.27.75,0,.3-.3.74.1c.65.59.65,1.26,0,1.71a2.1,2.1,0,0,0-.27,2.81c.68.86,1.75,1.43,2.12,1.12a2.17,2.17,0,0,1,.88-.31c.6-.09.73-.24,1.32-1.56a1.79,1.79,0,0,1,.6-.82c.15,0,.82.48,1.49,1.16a4.61,4.61,0,0,0,1.66,1.25.41.41,0,0,1,.44.37c0,.21.09.37.21.37.56,0,2.08,1.86,2.21,2.71a3.48,3.48,0,0,0,.43,1.28,6.16,6.16,0,0,1,.6,1.61,5.34,5.34,0,0,0,.64,1.62,3.14,3.14,0,0,1,.51,1,16.82,16.82,0,0,0,1,2.12,19.91,19.91,0,0,1,1,2,15.53,15.53,0,0,0,.88,1.74,15.86,15.86,0,0,1,.86,1.7c.08.24.24.44.37.44s.22.15.22.34a3.68,3.68,0,0,0,.75,1.28,4.37,4.37,0,0,1,.75,1.16,15.9,15.9,0,0,0,2.59,3.42,2.16,2.16,0,0,1,.65.86,2.3,2.3,0,0,0,.61.89l3,3.18a16.52,16.52,0,0,0,2.76,2.55.58.58,0,0,1,.48.37.59.59,0,0,0,.5.37c.19,0,.46.28.59.62s.38.62.54.62A4.45,4.45,0,0,1,192.93,68c0,.17.22.43.5.58a.89.89,0,0,1,.5.6,3.81,3.81,0,0,0,.62,1.25c.94,1.39.84,1.64-.65,1.64a2.15,2.15,0,0,0-2.12.89,2.33,2.33,0,0,0-.84,2c0,.94.13,1.19,1,2a4,4,0,0,0,1.31.9,4.88,4.88,0,0,0,2.59-1l.58-.55.16.79c.09.43.25.79.37.79s.35.48.51,1.06a8.56,8.56,0,0,0,.61,1.56,8.65,8.65,0,0,1,.6,1.87,11.11,11.11,0,0,0,.52,1.8,50.58,50.58,0,0,1,.23,6.29c0,7,.06,6.91-2.81,3.83-2.19-2.35-3.92-5.52-3.92-7.17a1.51,1.51,0,0,0-.39-1c-.32-.27-.46-.24-.84.16a10.35,10.35,0,0,0-1.27,4.1,2.13,2.13,0,0,1-.36,1.07c-.34.45-.37.44-.65-.25l-.5-1.22a5,5,0,0,1-.28-1.12c-.11-.95-1.12-1-1.34-.08a3.29,3.29,0,0,1-.42,1c-.17.22-.15.51.08.95s.27.73,0,1.11a2.92,2.92,0,0,0-.08,2.37,16.72,16.72,0,0,1,.37,3.49c.16,3.42.3,4.64.66,5.46a10.78,10.78,0,0,1,.74,3.24,3.6,3.6,0,0,0,.34,1.38,6.93,6.93,0,0,1,.5,1.71,9.93,9.93,0,0,0,.65,2.11,12.27,12.27,0,0,1,.65,1.77,7.77,7.77,0,0,0,.49,1.36,20.41,20.41,0,0,1,.76,2,17.76,17.76,0,0,0,.78,2,2.89,2.89,0,0,1,.33.91,9.56,9.56,0,0,0,.75,1.79,10.5,10.5,0,0,1,.75,1.74c0,.13.17.3.37.38a.83.83,0,0,1,.37.74,1.31,1.31,0,0,0,.35.89,4.86,4.86,0,0,1,.8,1.52,2.92,2.92,0,0,0,.64,1.23c.11,0,.2.13.2.28a2.83,2.83,0,0,0,.62,1,2.6,2.6,0,0,1,.62,1.17,3.07,3.07,0,0,0,.74,1.29,3.49,3.49,0,0,1,.75,1.17,12.15,12.15,0,0,0,1.6,3.09,6.47,6.47,0,0,1,.9,2.42,7.42,7.42,0,0,1-1,2.28,25.92,25.92,0,0,0-1.75,3.65,29.06,29.06,0,0,1-2.3,4.53.53.53,0,0,0-.19.45c0,.57-.44.16-.91-.86a6.38,6.38,0,0,0-.57-1,3.26,3.26,0,0,1-.76-1.95,1.89,1.89,0,0,0-.62-1.29,1.94,1.94,0,0,1-.62-.94c0-.7-1-1.83-1.58-1.75s-.56.06-.26,2.44c.17,1.34-.34,3.07-.94,3.19-.33.06-.45-.19-.59-1.3a3.61,3.61,0,0,0-.52-1.66,1,1,0,0,1-.35-.63c0-.19-.25-.34-.58-.34-.57,0-.59.07-.74,2.78-.11,1.86-.27,2.91-.51,3.17a3.94,3.94,0,0,0-.53,1.58c-.1.65-.27,1.18-.4,1.18s-.22.16-.22.35a8.39,8.39,0,0,1-1,2.39,5.55,5.55,0,0,0-.37.84,14.71,14.71,0,0,1-.74,1.57,6.07,6.07,0,0,0-.58,1.35,9.16,9.16,0,0,1-.62,1.61,8.14,8.14,0,0,0-.62,1.68,1.77,1.77,0,0,1-.37.8,2,2,0,0,0-.37.95,4.25,4.25,0,0,1-.48,1.37,13.43,13.43,0,0,0-1.27,3c0,.15-.09.27-.2.27s-.8,1.44-.8,2a2.62,2.62,0,0,1-.47,1,4.89,4.89,0,0,0-.64,1.67,4.19,4.19,0,0,1-.36,1.25,9.25,9.25,0,0,0-.62,1.62c-.24.75-.59,1.72-.78,2.15a4.11,4.11,0,0,0-.35,1.08,4.12,4.12,0,0,1-.35,1.08,13.92,13.92,0,0,0-.65,2.4,11.28,11.28,0,0,1-.52,2,3.81,3.81,0,0,1-1.66.86,7,7,0,0,0-1.56.61,3.72,3.72,0,0,1-1.06.47c-.51.17-.93.39-.93.5s-.48.34-1.06.52a4.36,4.36,0,0,0-1.31.6,10.87,10.87,0,0,1-2.33,1.43c-2,1-8,6.9-8,7.82a42,42,0,0,1-3.76,4.52,7.65,7.65,0,0,0-1,1.17,15.27,15.27,0,0,1-1.49,1.65,11.14,11.14,0,0,0-1.49,1.71,3.41,3.41,0,0,1-1.25.71,15.71,15.71,0,0,0-2.62,1.24c.36,0,.64.07.68.2s-.1.16-.29.25l.41-.05a12.52,12.52,0,0,0,2.73-1,8.59,8.59,0,0,1,1.75-1c1.2-.57,3.06-2.31,3.06-2.86a9,9,0,0,1,1.12-1.64,7.64,7.64,0,0,0,1.12-1.7c0-.82,4.33-5.61,5.52-6.1,1-.42,1.95-1.38,1.95-2s.23-.83,1.62-1.76a4.3,4.3,0,0,1,3.45-1l1.18.13,1.59-1.65a8,8,0,0,1,1.93-1.65,4.64,4.64,0,0,0,1.29-.49c1.38-.7,4.52-1.2,5.14-.81a3.4,3.4,0,0,0,1.46.3c.83,0,1,.07.85.47a7.22,7.22,0,0,1-1.1,1.65,5,5,0,0,0-1,1.53.37.37,0,0,1-.38.35c-.22,0-.44.31-.53.75a1.8,1.8,0,0,1-.37.89.83.83,0,0,0-.22.62c0,.27-.08.48-.19.48s-.81,1.2-.81,1.64a.57.57,0,0,1-.38.44,1.47,1.47,0,0,0-.62.77c-.13.35-.4.63-.61.63a.75.75,0,0,0-.57.31,2.8,2.8,0,0,1-1.67.93.5.5,0,0,0-.45.29c-.05.16-.28.22-.51.14s-.38-.23-.05-.85a3.24,3.24,0,0,0,.36-1.16,3,3,0,0,1,.35-1.12,14.4,14.4,0,0,0,.77-2.08,5,5,0,0,1,.77-1.71c.5-.42.44-1-.11-1s-1.17.85-1.42,1.9a12.32,12.32,0,0,1-.62,1.71,11.89,11.89,0,0,0-1.23,3.42c0,1-1.48,2.46-3.73,3.62-.34.18-.9.48-1.25.68a3.29,3.29,0,0,1-1.39.37,1.69,1.69,0,0,0-1.28.6,2.8,2.8,0,0,1-1.29.77c-.42.09-.77.3-.78.46s-.1.14-.23-.07a.56.56,0,0,1,0-.69,1.59,1.59,0,0,0,.11-1.09,2.32,2.32,0,0,1,.19-1.43c.81-1.55,1.19-2.75,1-3.26s-.24-.48-.52-.25a1,1,0,0,0-.35.63,11.94,11.94,0,0,1-1.19,2.94,6.32,6.32,0,0,0-.4,2.21c0,1.58,0,1.53-1.65,2.24l-2,.88a10.82,10.82,0,0,1-2,.67c-1.08.2-2.09,1.15-1.85,1.76.12.32.34.38,1,.26.44-.09.84-.27.89-.4a.48.48,0,0,1,.45-.24,5.13,5.13,0,0,0,1.39-.49,9.16,9.16,0,0,1,1.86-.65,2,2,0,0,0,1-.38.79.79,0,0,1,.6-.22.6.6,0,0,0,.56-.29c.12-.36,2-.32,2.19.05s2.79.2,2.92-.2c.07-.2-.18-.32-.73-.34a10.2,10.2,0,0,1-1.58-.2L162,204l.87-.56c.78-.51,1.08-.55,2.87-.42,1.1.08,2.53.21,3.17.3s1.18.07,1.18-.09c0-.32-.71-.57-2.74-.94-1.25-.23-1.51-.34-1.12-.5a6,6,0,0,0,1.09-.66,2.19,2.19,0,0,1,1-.46.68.68,0,0,0,.59-.4c.12-.32.36-.37,1.2-.24a3.22,3.22,0,0,1,1.18.34,3.1,3.1,0,0,0,1.72.8,1.16,1.16,0,0,1,.78.37,1.56,1.56,0,0,0,1.05.37c.69,0,.73-.05.58-.68-.25-1-.47-1.14-2.18-1.12a6.37,6.37,0,0,1-2-.22c-.59-.32-.55-.89.08-1.09a13.16,13.16,0,0,0,2-1.14,9.17,9.17,0,0,1,1.69-1,5.53,5.53,0,0,0,1.32-.87,4.9,4.9,0,0,1,1.38-.87.45.45,0,0,0,.39-.3c.12-.36,4.67-.31,5,.06a3.53,3.53,0,0,0,2.72-.1c.36-.18.58-.41.49-.5a17.83,17.83,0,0,0-3.23-.16,11.07,11.07,0,0,1-3.07-.22c0-.33.55-.72,1.29-.9a2.58,2.58,0,0,0,1.1-.64,1.4,1.4,0,0,1,.72-.48,5.45,5.45,0,0,0,1.48-.93,17.83,17.83,0,0,1,2.47-1.57c1.32-.66,1.86-1.5,1-1.5a1.18,1.18,0,0,0-.8.37,1,1,0,0,1-.62.37,4.47,4.47,0,0,0-1.34.75,4.85,4.85,0,0,1-1.28.75.26.26,0,0,0-.25.27c0,.15-.2.2-.45.12s-.69.11-1.17.61a2.61,2.61,0,0,1-1,.75,4.84,4.84,0,0,0-1.38.87c-1.67,1.33-2.22,1.15-1.11-.35a5,5,0,0,0,.77-1.79c.09-.53.27-1,.39-1s.23-.15.23-.33a2.05,2.05,0,0,1,.56-.93,7.8,7.8,0,0,0,1.68-2.56,2.45,2.45,0,0,1,.56-1c.47-.56.89-.72,2.55-1a18.46,18.46,0,0,0,2.49-.49,24.71,24.71,0,0,1,4.45-.63,3.27,3.27,0,0,0,1.25-.32,10.2,10.2,0,0,1,2.08-.66,6.14,6.14,0,0,0,1.81-.6,2.61,2.61,0,0,1,1.1-.49,4.06,4.06,0,0,0,1.53-.8,1.4,1.4,0,0,1,.75-.48c.38,0-.09,1.06-.82,1.87a23.16,23.16,0,0,0-2.64,3.42c-.09.24-.27.43-.42.43a.27.27,0,0,0-.26.28,8.79,8.79,0,0,1-1.24,1.86,9.58,9.58,0,0,0-1.25,1.83c0,.52-1.53,2-2.23,2.09a4.66,4.66,0,0,0-1.75,1.16c-.81.81-1,1.17-1,1.81s-.16,1-1.23,2.08a18,18,0,0,1-1.9,1.67,4.14,4.14,0,0,0-1.05,1.15c-.24.41-.57.75-.72.75a1.38,1.38,0,0,0-.7.47,2.63,2.63,0,0,1-1.31.61c-1.1.18-1.83.8-1.83,1.57s-1.79,1.92-3.06,1.87a2,2,0,0,0-2.28,1.35,2.09,2.09,0,0,1-.9,1c-.26.07-.47.23-.47.37s-.55.2-3.15-.19c-1-.16-2.08.17-2.08.65a1.87,1.87,0,0,1-.53.77c-.6.6-1.67.7-6.82.67-3.1,0-3.32,0-4.36,0-.34,0-1.8,0-3.24-.06-2.53-.07-6.1.38-7,.88A6.42,6.42,0,0,1,145,210a5.41,5.41,0,0,0-1.72.49,5.24,5.24,0,0,1-1.57.5,5.61,5.61,0,0,0-1.9.75c-1.17.79-1.59.76-1.59-.12s.7-1.51,2.47-1.8a8.42,8.42,0,0,0,2-.5,8.42,8.42,0,0,1,1.67-.55,4.51,4.51,0,0,0,.88-.3c-.37,0-.47-.07-.47-.34a.2.2,0,0,1,.08-.12,3.39,3.39,0,0,0-1.85.44,1.84,1.84,0,0,1-1.07.39c-.53,0-.62-.09-.5-.53a1,1,0,0,1,.6-.65c.25-.07.46-.24.46-.39a5.66,5.66,0,0,1,1.77-1.91,14.4,14.4,0,0,0,2.72-2.73,11.1,11.1,0,0,1,1.49-1.79,13.93,13.93,0,0,0,1.88-2.39c.21-.45.55-.81.75-.81a.33.33,0,0,0,.36-.29,11.85,11.85,0,0,1,1.87-2.21c1.31-1.35,1.87-2.1,1.87-2.54,0-.9-.53-1.26-1.28-.87a20.11,20.11,0,0,0-3.37,2.68c-.23.3-.36.31-.61.06s-.21-.46.23-1a3.44,3.44,0,0,0,.55-.93,6.59,6.59,0,0,1,.76-1.31,3,3,0,0,0,.68-2.36c-.11-1.82-.61-1.78-2.52.2-1.23,1.28-1.77,1.65-2.55,1.79a5.28,5.28,0,0,0-1.54.52,5.42,5.42,0,0,1-1.74.5,5.43,5.43,0,0,0-1.72.48c-.56.35-3.2.73-6.88,1a7.7,7.7,0,0,0-2.31.37,3.11,3.11,0,0,1-1.31.38,9.53,9.53,0,0,0-1.92.48,20.7,20.7,0,0,1-2.72.73,11.24,11.24,0,0,0-2.24.62,3.72,3.72,0,0,1-1.14.39,6.46,6.46,0,0,0-1.62.62,9.67,9.67,0,0,1-1.93.75c-.65.17-1.18.41-1.18.52s-.48.42-1.06.67a4.86,4.86,0,0,0-1.4.88,1.12,1.12,0,0,1-.68.41c-.19,0-.34.1-.34.22,0,.32-1.52.57-1.85.3a14.81,14.81,0,0,0-3.62-1.76,6.77,6.77,0,0,1-1.83-.74,9.62,9.62,0,0,0-2.46-.9,4.61,4.61,0,0,1-1.32-.35,10.4,10.4,0,0,0-2.11-.5,13.82,13.82,0,0,1-2.24-.51,23.11,23.11,0,0,0-5.48-1,2.54,2.54,0,0,1-1.38-.25,1.56,1.56,0,0,0-1-.25c-1,0-2.85-.52-2.85-.79,0-.1-.53-.24-1.18-.33a30.18,30.18,0,0,1-5.17-.87,10.18,10.18,0,0,0-2-.5,4.56,4.56,0,0,1-1.95-.66c-.11-.19-.3-.28-.41-.21-.58.36-3.25-1.32-3.25-2a.58.58,0,0,0-.37-.48.58.58,0,0,1-.37-.47c0-.61-.57-.7-1-.16s-.39.72-.18,1.7a7.52,7.52,0,0,0,.72,1.94,3.88,3.88,0,0,1,.47,1c0,.45-.76.12-1.77-.77-1.42-1.23-1.9-1.41-2.1-.77-.11.34.07.78.55,1.39s.87,1.15,1.08,1.46,1.24,1.59,2.3,2.83a22.34,22.34,0,0,1,1.93,2.44,2.64,2.64,0,0,0,.61.81c2.87,3,4.12,4.47,4.12,5s0,.55-.61.17a8.92,8.92,0,0,0-2.54-.69c-1.92-.28-1.93-.29-3.76-2.05a26,26,0,0,1-2.59-2.85A34.75,34.75,0,0,0,69,196.39c-3.33-3.45-4.4-4.46-4.73-4.46-.14,0-.33-.22-.41-.5s-.3-.5-.48-.5a3.75,3.75,0,0,1-1.26-.75,3.9,3.9,0,0,0-1.23-.75,3.26,3.26,0,0,1-1.13-.87A5.11,5.11,0,0,0,58,187.42a7.79,7.79,0,0,1-1.47-.65,17.3,17.3,0,0,0-3.95-1.93c-1.41-.3-2.18-1.49-2.54-4a8.68,8.68,0,0,0-.52-2.29,2.79,2.79,0,0,1-.37-1.18,9.28,9.28,0,0,0-.5-1.8,21.25,21.25,0,0,1-.75-2.49,22.33,22.33,0,0,0-.74-2.49c-.17-.41-.4-1-.5-1.37a3.37,3.37,0,0,0-.49-1,5.94,5.94,0,0,1-.63-1.62,7.48,7.48,0,0,0-.79-1.91,2.67,2.67,0,0,1-.46-.92,33.23,33.23,0,0,0-2.15-4.27,2.81,2.81,0,0,1-.34-.89,2.15,2.15,0,0,0-.65-.87,7.52,7.52,0,0,1-1.25-1.85,18.69,18.69,0,0,0-2.12-3.53,20,20,0,0,1-1.44-2.62,13.78,13.78,0,0,0-1.4-2.46.94.94,0,0,1-.35-.53,16.09,16.09,0,0,0-.89-2.15c-.49-1.05-1.58-3.43-1.81-3.94a2.45,2.45,0,0,0-.59-.86c-.07.14-.11.24-.2.4s-.2.39-.28.59a7.32,7.32,0,0,1,.78,2.08,3,3,0,0,0,.22,1.13c.12.24.49,1,.81,1.73s.7,1.3.85,1.31.39.32.54.69a13.71,13.71,0,0,0,.65,1.31,7.73,7.73,0,0,1,1.17,3.33c0,1.5,1.45,3.64,2.46,3.64.24,0,.8.5,1.25,1.12.66.92.77,1.26.64,2s0,1,.64,1.75a3,3,0,0,0,1.1.9c.17,0,.63.64,1,1.43.64,1.27.73,1.72.77,3.9l0,2.47,1.37,1.27c1.57,1.45,1.71,1.85,1.79,5,0,2,.12,2.37.71,3.14a3.61,3.61,0,0,1,.66,1.13.39.39,0,0,0,.22.35A3,3,0,0,1,48.8,182c.09,1.34.07,1.37-.62,1.45a3.31,3.31,0,0,1-1.5-.29,8.71,8.71,0,0,0-2.1-.55c-.72-.1-1.3-.27-1.3-.39s-.16-.22-.36-.22a1.37,1.37,0,0,1-.76-.41c-.52-.52-.29-2.18.4-2.92a1.72,1.72,0,0,0,.47-.79,1.47,1.47,0,0,1,.5-.74,1.49,1.49,0,0,0,.5-.88.66.66,0,0,1,.37-.58.6.6,0,0,0,.37-.5.5.5,0,0,1,.29-.46.24.24,0,0,0,.12-.37c-.24-.39-1.41.19-1.41.7a1.86,1.86,0,0,1-.6,1,4.47,4.47,0,0,0-.9,1.29c-.16.4-.4.72-.52.72s-.22.34-.22.75c0,1-.61,1-1.25-.06-.76-1.24-.63-2.12.5-3.62a6.8,6.8,0,0,0,1-1.57,3.39,3.39,0,0,1,.62-1.08,3,3,0,0,0,.62-1.6c0-.72-.07-.79-.81-.78s-.87.13-1.49,1.43A10.18,10.18,0,0,0,40,173.1a3.81,3.81,0,0,1-.65,1.08l-.65.85-.59-1a4.28,4.28,0,0,1-.1-4.19,3,3,0,0,0,.5-1.15,3.53,3.53,0,0,1,.75-1.34,4.16,4.16,0,0,0,.75-1.19.88.88,0,0,1,.38-.53,2.24,2.24,0,0,0,.53-1.21c.14-.83.09-.93-.38-.93-.29,0-.53.14-.53.31a6.45,6.45,0,0,1-1,1.66,9.93,9.93,0,0,0-1.38,2.57c-.45,1.52-1.08,1.56-1.39.07a3.46,3.46,0,0,0-.45-1.23c-.34-.34-.31-2.38,0-2.38s.21-.09,0-.33-.13-.47.34-.92a1.91,1.91,0,0,0,.62-1.06,2.31,2.31,0,0,1,.5-1.11,2.29,2.29,0,0,0,.5-1,2,2,0,0,1,.3-.82c.23-.37.23-.56,0-.85s-.36-.33-.73,0a4.66,4.66,0,0,0-.76,1.42,8.1,8.1,0,0,1-.8,1.64c-.25.36-.39.72-.3.81s-.07.16-.35.16c-.53,0-.53,0-1-2.94-.16-1.07.27-3,.74-3.32s-.11-.73-.78-.66-.67,0-1.18-2.67c-.29-1.51-.58-2.91-.66-3.11s-.24-.7-.36-1.1c-.33-1.09-.84-1.12-.84,0A3.61,3.61,0,0,0,31.3,150a19.93,19.93,0,0,1,.91,4.85,4,4,0,0,0,.35,1.68,10.32,10.32,0,0,1,.52,2.74,10.87,10.87,0,0,0,.51,2.74,4.18,4.18,0,0,1,.34,1.68,23,23,0,0,0,.9,4.92,15,15,0,0,1,.5,2.12,12.75,12.75,0,0,0,1.25,3.79,2.12,2.12,0,0,1,.23.81c0,.21.09.38.2.38s.36.57.55,1.28a7.65,7.65,0,0,0,1.16,2.3c1.35,1.7,1,2.24-1.05,1.45a2.54,2.54,0,0,1-1.4-1c-.12-.31-.1-.53,0-.53s.24-.17.24-.37a.35.35,0,0,0-.33-.37,4.79,4.79,0,0,1-1.47-1.09c-1.52-1.46-2.94-4.63-1.48-3.3.6.55.77.52.61-.09-.07-.27-.29-.5-.47-.5a.36.36,0,0,1-.34-.37.38.38,0,0,0-.39-.37,2,2,0,0,1-1-.65l-.6-.64.84-.84c1.15-1.15,1.24-2.15.31-3.24a1.87,1.87,0,0,0-1.56-.7l-1,0-.07-1.81c-.06-1.49,0-1.8.31-1.8s.47,0,.05-.83-.54-4.4-.2-4.4c.12,0,.29.17.37.38.17.43.66.51.66.1a4.83,4.83,0,0,0-.95-1.35,6.19,6.19,0,0,1-1.48-3.37c-.53-2.28-.53-2.3,0-3.82a11,11,0,0,0,.48-2.06,3.41,3.41,0,0,1,.37-1.24,7.84,7.84,0,0,0,.53-2.15c.09-.79.26-1.44.38-1.44s.22-.27.22-.6a4.91,4.91,0,0,1,.46-1.43c-.34-.34-.11-1.06.34-1.06a.28.28,0,0,1,.15.07c.64-1.28.67-1.71.09-1.71-1,0-1.54,1.05-1.78,3.22-.23,2-.57,2.89-1,2.61a.84.84,0,0,1-.18-.68c.15-1.79-.06-3.68-.42-3.82-.69-.27-1.29.6-1.46,2.1-.09.78-.2,1.64-.26,1.92s-.11.58-.12.68c-.05.47-.81.12-1.05-.5a29.57,29.57,0,0,0-2-4.13c-.42-.61-.47-1-.37-3a7.75,7.75,0,0,1,.64-3.28c.29-.54.92-1.85,1.42-2.9A11,11,0,0,1,26,128.17a1.07,1.07,0,0,0,.36-.71,5.37,5.37,0,0,1,.82-1.65,18.48,18.48,0,0,0,1.3-2.36,4.07,4.07,0,0,1,.8-1.32.7.7,0,0,0,.32-.51,3.41,3.41,0,0,1,.64-1.17,11.74,11.74,0,0,0,1-1.73,7.22,7.22,0,0,1,.82-1.37,3.5,3.5,0,0,0,.6-1.25,13.13,13.13,0,0,1,.76-2,14.27,14.27,0,0,0,.88-2.86A10.89,10.89,0,0,1,35,109a7.94,7.94,0,0,0,.5-2.18,3.94,3.94,0,0,1,.32-1.51c.18,0,.17.19.45-4.36.33-5.2.1-12.26-.43-13.28a14.82,14.82,0,0,1-.53-2.54A8.29,8.29,0,0,0,33.81,81,1.12,1.12,0,0,0,33,81c-.54.14-.66.31-.66,1A1.86,1.86,0,0,0,32.57,83c.2.2.15.46-.18,1l-.45.7-.19-1.09c-.19-1.11-.5-1.49-1.23-1.49-.28,0-.55.41-.84,1.27a16.85,16.85,0,0,1-.77,1.93,3,3,0,0,0-.34,1,1,1,0,0,1-.46.62,3.07,3.07,0,0,0-.78,1.32,5,5,0,0,1-.82,1.55c-.47.52-.53.53-.83.12a5.1,5.1,0,0,1-.34-2.24,4.57,4.57,0,0,0-.2-1.81c-.25,0-.22-6.68,0-7.47.11-.34.4-1.07.65-1.62,2.19-4.82,2.55-5.3,2.86-3.89a1.89,1.89,0,0,0,2.12,1.57c1.23,0,2-.24,2-.59a2.89,2.89,0,0,1,.62-1,1.78,1.78,0,0,0,0-2.4,6.73,6.73,0,0,0-2.58-1.29c-.72,0-.19-.69,2.9-3.73a28.66,28.66,0,0,0,3.48-3.84,1.5,1.5,0,0,1,.69-.81c.7-.24,3.3-2.89,3.3-3.36,0-.23.36-.68.81-1a4.63,4.63,0,0,0,1-.95A12.88,12.88,0,0,1,44.42,54a4.05,4.05,0,0,0,1.07-1.44,1.38,1.38,0,0,1,.5-.8,1.38,1.38,0,0,0,.5-.77,3,3,0,0,1,.56-1.13A17.74,17.74,0,0,0,48.76,47c.64-1.48,1.2-2.71,1.81-4a7.21,7.21,0,0,0,.65-1.87,2.06,2.06,0,0,1,.34-1,9.42,9.42,0,0,0,.76-1.86,8.3,8.3,0,0,1,2-3.69,11.22,11.22,0,0,1,3.12-2.28c.11,0,.26-.21.33-.47.14-.55,1.77-1.4,2.19-1.14.21.13.2.23,0,.38s-.16.41.36,1.09c.9,1.18,1.49,1.46,2.65,1.27,1.57-.26,2.35-1.65,1.63-2.87a8.08,8.08,0,0,1-.52-1,1.78,1.78,0,0,0-.93-.68c-.75-.28-.76-.31-.3-.66A2.88,2.88,0,0,1,65.3,28c.42.41,7.28.83,10.45.65,3.82-.22,4.31-.29,4.71-.62.23-.19.53-.2,1,0a1.09,1.09,0,0,0,1.21-.12,2,2,0,0,1,.88-.37,11.46,11.46,0,0,0,2.87-1.14,3.37,3.37,0,0,1,1.12-.36,2.31,2.31,0,0,0,1-.49,2.31,2.31,0,0,1,1.07-.49.66.66,0,0,0,.58-.36,1.41,1.41,0,0,1,.93-.52A8.36,8.36,0,0,0,93.35,23a11.72,11.72,0,0,1,1.55-1A15.91,15.91,0,0,0,98,20a1.08,1.08,0,0,1,.61-.4A11.64,11.64,0,0,0,100.78,18a25.45,25.45,0,0,1,2.43-1.87c.31-.16.56-.44.56-.62a3.44,3.44,0,0,1,1.69-1.66c.16,0,.41-.22.56-.5s.4-.5.56-.5a6.71,6.71,0,0,0,2.18-2,8.32,8.32,0,0,1,1.31-1.52c1.52-1.54,2.14-2.56,1.77-2.92-.17-.17-.4-.08-.7.25a1.51,1.51,0,0,1-.85.51,3,3,0,0,0-1.14.5c-1,.64-1.87.66-1.87,0a1.15,1.15,0,0,1,.37-.78,1,1,0,0,0,.37-.59,19.13,19.13,0,0,1,2.3-4.36c.54-.74.56-1.42,0-1.62s-1.07.12-2.13,1.31a4.29,4.29,0,0,1-1.62,1.18,3.37,3.37,0,0,0-1,.37,16.21,16.21,0,0,1-3,.5,16.79,16.79,0,0,0-3,.49,26.74,26.74,0,0,1-4.11.34c-4.29.17-8.58.59-9.34.91A22.94,22.94,0,0,1,83.59,6a12.71,12.71,0,0,0-2.37.61,5.83,5.83,0,0,1-1.25.5,17.86,17.86,0,0,0-3.24,1.32c-.27.16-1,.52-1.5.81a21.26,21.26,0,0,0-2.39,1.57,5.89,5.89,0,0,1-1.8,1,.4.4,0,0,0-.41.37.35.35,0,0,1-.32.37,11.15,11.15,0,0,0-3.16,3.17.57.57,0,0,1-.36.47c-.47.18-1.86,3-2,4.19a2.13,2.13,0,0,1-.36,1,1,1,0,0,0-.23.68,2.38,2.38,0,0,1-.87,1.26c-.73.6-.92.66-1.25.39a1,1,0,0,1-.25-1c.11-.54,0-.83-.54-1.32a1.84,1.84,0,0,0-3.17.87,1.86,1.86,0,0,1-.37.87c-.23.14.27,1.37.56,1.37.1,0,.19.16.19.35s.22.4.5.47c.71.19.62.66-.19.95a3,3,0,0,0-1.16.9L56,28.67c-.86.22-1.16-.7-.56-1.72A5.41,5.41,0,0,0,56,25.48a2.79,2.79,0,0,1,.36-1A6.35,6.35,0,0,0,57,21.71a1.93,1.93,0,0,0-.86-.13c-.71,0-.72,0-.56-1a1.81,1.81,0,0,0-.13-1.37c-.61-.73-1.38-.4-2.95,1.25a8.43,8.43,0,0,1-1.81,1.62,4.8,4.8,0,0,0-1.37,1,8.84,8.84,0,0,1-1.77,1.3,4.28,4.28,0,0,0-.81.43c-.07.07-1,.57-2.06,1.11a12.64,12.64,0,0,0-2.34,1.43,1.32,1.32,0,0,1-.7.45c-.16,0-.44.28-.62.62s-.48.62-.67.62-.33.11-.33.24-.37.41-.82.63a51.1,51.1,0,0,0-7.11,7.29,17.1,17.1,0,0,1-1.4,1.94,6.12,6.12,0,0,0-1.24,2.27,3.09,3.09,0,0,1-.35,1.09,6.59,6.59,0,0,0-1,2.47,1.14,1.14,0,0,1-.37.77,1.1,1.1,0,0,0-.37.72,2.19,2.19,0,0,1-.4,1,3.05,3.05,0,0,0-.4,1.49,2.53,2.53,0,0,1-.23,1.2,11.38,11.38,0,0,0-.39,2.81,9.91,9.91,0,0,1-.37,2.66,2.24,2.24,0,0,0,.05,2c.18.11.17.27,0,.51a.78.78,0,0,0-.09.79,21.08,21.08,0,0,1,.69,4.28,2.24,2.24,0,0,1-1-.17c-1.7-.52-3.1.66-3.1,2.63a1.58,1.58,0,0,0,1.75,1.8c1.42,0,1.64.47.88,1.91a6.64,6.64,0,0,0-.64,1.47,1.5,1.5,0,0,1-.5.73c-.49.44-.51.44-.86,0a2.48,2.48,0,0,1-.37-1.26A1.63,1.63,0,0,0,22,69.18a2.7,2.7,0,0,1-.49-1.34A7,7,0,0,0,21,66a13.11,13.11,0,0,1-.64-3,18.45,18.45,0,0,0-.53-3,6,6,0,0,1-.31-1.57c0-.74-.14-.88-.7-.95s-.67,0-.82,1.06c-.09.62-.26,1.13-.38,1.13s-.28.28-.36.62c-.23.92-.53.76-.49-.25.1-2.1-1.67-2.4-2-.35A11.47,11.47,0,0,1,14,62.1a11,11,0,0,0-.62,1.52,8.91,8.91,0,0,1-.62,1.4,7.3,7.3,0,0,0-.62,1.5,15.4,15.4,0,0,1-1,2.25,14.18,14.18,0,0,0-1,2.27,1,1,0,0,1-.36.6,3.24,3.24,0,0,0-.65,1.21,4.79,4.79,0,0,1-.61,1.29,5.19,5.19,0,0,0-.63,1.43c-.17.58-.39,1.06-.49,1.06a2.7,2.7,0,0,0-.5,1.18,6.34,6.34,0,0,1-.78,1.78,2.27,2.27,0,0,0-.45,1.13,2.13,2.13,0,0,1-.34,1A20.33,20.33,0,0,0,4.1,87.59a3.24,3.24,0,0,1-.29,1.47c-.4.51-.37,7.88,0,8.28a1.58,1.58,0,0,1,.31,1,13.12,13.12,0,0,0,1.11,4,6.6,6.6,0,0,1,.53,1.61,2.75,2.75,0,0,0,.7,1.4A1.64,1.64,0,0,1,7,106.74c0,.64.11,1,.3,1a4,4,0,0,1,1.57,1.37,3.07,3.07,0,0,0,.51.67,12.87,12.87,0,0,1,2.23,2.89c0,.15.21.33.47.41.49.15.76.82.77,1.83,0,.55-.05.57-1.34.41-1.6-.2-2.11,0-2.74,1.22-.44.82-.44.94-.07,1.72.68,1.44,1.23,1.76,2.72,1.62,1.78-.17,2-.07,1.54.76a6.82,6.82,0,0,0-.35,2.48c0,1.55-.06,1.8-.44,1.8s-1.81-1.5-1.81-2a5.5,5.5,0,0,0-1.07-1.45,13.44,13.44,0,0,1-2.75-5C6.3,115.14,4.75,114.25,4,115a1.71,1.71,0,0,0,0,1.86,9.88,9.88,0,0,1,.41,2.85c.12,2.22.09,2.54-.21,2.29a5.67,5.67,0,0,1-.85-1.74,8.08,8.08,0,0,0-.86-1.88,1.54,1.54,0,0,0-2-.14,2.88,2.88,0,0,0-.09,2.33c.35.39.76,3.52.9,6.77a18.56,18.56,0,0,0,.36,3.49,28.88,28.88,0,0,1,.64,4,20.74,20.74,0,0,0,.65,3.85,1.67,1.67,0,0,1,.24.95,13.37,13.37,0,0,0,.75,3.55,20.44,20.44,0,0,1,.6,2.47A12,12,0,0,0,5.13,148a7.4,7.4,0,0,1,.52,1.57c.51,2.1,3.38,7.25,4.6,8.26a1.11,1.11,0,0,1,.41.68c0,.19.11.34.24.34s.4.31.6.68a12.8,12.8,0,0,0,1.71,2.05,14,14,0,0,1,1.46,1.62,23.75,23.75,0,0,0,4.21,3.64,15.45,15.45,0,0,1,2.53,1.62l.67.53-.7.67a3.44,3.44,0,0,0-.85,3.06c.08.31.27.56.41.56a2,2,0,0,1,.84.54,2.31,2.31,0,0,0,3-.08,1.83,1.83,0,0,0,.58-.86c0-.17.23-.39.52-.48.56-.18,1,.21,1.53,1.44.17.38.4.68.5.68s.19.12.19.27a6.87,6.87,0,0,0,1,2.22,2.08,2.08,0,0,1,.36.84l.18.71-2.19-1.12h0c.13.2.16.4,0,.52h-.07l0,0a13.12,13.12,0,0,0,5.59,2.57,11.64,11.64,0,0,1,2.26.42,12.28,12.28,0,0,0,2.12.62,15.56,15.56,0,0,1,2.24.64,4.12,4.12,0,0,0,1,.35,3.15,3.15,0,0,1,1.16.55,12.7,12.7,0,0,0,1.82,1.1c1.46.76,2.32.78,2.89.09.31-.38,1.11-.26,2.21.31a3.1,3.1,0,0,0,1.16.33,1.56,1.56,0,0,1,1,.49,2.58,2.58,0,0,0,.91.64c.26.08.46.29.46.46,0,.45,1.25,1.57,2.11,1.9a3.6,3.6,0,0,0,1.74.09c1.31-.24,1.53-.19,2.92.71.8.52,1.22,1,1.33,1.47.19.84.77,1.21,1.91,1.21.73,0,1.17.34,3.58,2.8,1.51,1.54,3.24,3.36,3.83,4s1.61,1.81,2.24,2.49a9.26,9.26,0,0,1,1.32,1.68,1.4,1.4,0,0,0,.74.66c.6.23,1.33,1,1.14,1.14A2.63,2.63,0,0,1,74,204.5a6.44,6.44,0,0,0-1.55-.36c-.31,0-.56-.1-.56-.21s-1.32-.71-2.66-.92A5.57,5.57,0,0,1,65,200a3.38,3.38,0,0,0-.64-1.06c-.25-.21-.29,0-.19.89l.13,1.15-.73-.16a9.9,9.9,0,0,1-3.62-1.91,5.62,5.62,0,0,1-1.69-3.35,10.8,10.8,0,0,0-.63-2.11A15.22,15.22,0,0,1,57,192c-.29-.79-1.31-1.67-1.75-1.52-.12,0,0,.58.29,1.2a21,21,0,0,1,1.85,5,2.23,2.23,0,0,0,.45,1.07c.51.37-1.41-.13-2.19-.56a7.1,7.1,0,0,0-1.43-.59c-1.08-.27-2.6-2.2-2.79-3.54a6.52,6.52,0,0,0-.52-1.81,14.56,14.56,0,0,1-.79-2c-.52-1.68-.81-2.1-1.53-2.17s-.68,0-.21.89a11.53,11.53,0,0,1,.67,1.78,11.08,11.08,0,0,0,.58,1.62,10.26,10.26,0,0,1,.76,3.08,3.37,3.37,0,0,1-1.16-.46l-1.94-1a7.54,7.54,0,0,1-3-3.23,6.26,6.26,0,0,0-.6-1.22,4.68,4.68,0,0,1-.52-1.1,1.51,1.51,0,0,0-.6-.87c-.28-.09-.32.09-.19.85.09.53.27,1,.41,1,.31.1.34,1.7,0,1.89-.12.08-.36,0-.54-.25a3.74,3.74,0,0,0-1.17-.74,10.1,10.1,0,0,1-2.32-1.87c-1.12-1.16-1.58-1.48-1.95-1.36s-.81-.15-1.69-1A5.79,5.79,0,0,0,33.66,184a5.28,5.28,0,0,1-1.41-1c-1.24-1.09-1.68-1.23-1.68-.55a5.83,5.83,0,0,0,1.88,2.29,2.1,2.1,0,0,1,.63.46,6.48,6.48,0,0,0,1.15.81,7.48,7.48,0,0,1,1.45,1.16,3.7,3.7,0,0,0,1,.81,8.07,8.07,0,0,1,1.47,1.15,10.91,10.91,0,0,0,2.28,1.59,9.2,9.2,0,0,1,2,1.32l1,.89h-1a1.76,1.76,0,0,1-1.25-.31c-.26-.42-2.5-.92-4.14-.92H35.69l1,.61a4.18,4.18,0,0,0,2,.62,2.53,2.53,0,0,1,1.4.39c.32.29,1.16.41,3.31.49,3.32.11,4.5.37,5.46,1.21,1.41,1.22,1.07,1.33-4.11,1.3a30.85,30.85,0,0,0-3.91.11,2.44,2.44,0,0,0,.65.59c.59.43.94.45,4.16.29a21.9,21.9,0,0,0,3.77-.38c.56-.45,1.79-.53,2.11-.14a1.06,1.06,0,0,0,.66.38,15.83,15.83,0,0,1,2.61,1.18c2.26,1.17,2.27,1.18,1.47,1.38a47.3,47.3,0,0,1-4.94.38c-3.67.15-4.15.22-4.23.61s.1.44.92.44a1.9,1.9,0,0,1,1.15.25,5.69,5.69,0,0,0,3.22,0,8.31,8.31,0,0,1,2.38-.55c1.7-.24,2.27-.42,2.37-.74s.27-.39,1.18-.16a7.72,7.72,0,0,1,2.05.94,8.45,8.45,0,0,0,3.41,1.48c.27,0,.44.13.39.3s-.69.33-1.58.37-2.57.18-3.91.32-3.08.25-3.86.26c-1.27,0-2.29.38-2.29.83a3,3,0,0,0,1.35.16,3,3,0,0,1,1.51.25c.19.3,1.18.33,1.51,0a13,13,0,0,1,2.73-.53,11.68,11.68,0,0,0,2.84-.6c.26-.21.38-.2.46,0s.81.42.81.06c0-.14.26-.25.57-.25a1.37,1.37,0,0,0,.83-.26c.31-.31,2.48.17,3.1.68a1.45,1.45,0,0,0,.75.32,2.11,2.11,0,0,1,.91.39,8.94,8.94,0,0,0,2.36.75,13.78,13.78,0,0,1,2.37.65c.68.35,1.85-.15,1.63-.7s.8-.48,1-.09a1.18,1.18,0,0,0,.84.25,2.32,2.32,0,0,1,1.17.35c.29.21.59.27.75.13s.78,0,1.62.47c1.66.85,3.3,1.39,3.75,1.24a1,1,0,0,1,.8.32,3,3,0,0,0,1.12.6c.73.18,1.28.57,1.28.9s-1.16.25-1.48-.14-1.39-.61-3.18-.78a2.72,2.72,0,0,1-1.2-.37,2.12,2.12,0,0,0-.92-.36l-2.13-.26a4.63,4.63,0,0,1-1.7-.4,6.57,6.57,0,0,0-3.2,0,29.45,29.45,0,0,1-4.32.45c-2.82.18-4.17.35-4.23.56-.13.38-7.17.43-7.41.05a1.33,1.33,0,0,0-.91-.25,2,2,0,0,1-1.45-.75c-.71-.76-1.57-1-1.89-.47s-2.41.08-3.4-.43a2.3,2.3,0,0,1-1-1.1,1.18,1.18,0,0,0-1.09-.88,2.23,2.23,0,0,0-1.08,0c-.35.22-1.42-.24-2.4-1a2.47,2.47,0,0,1-1-1.62,2.72,2.72,0,0,0-2.36-2.19,1.24,1.24,0,0,1-.87-.25.87.87,0,0,0-.66-.25A8.66,8.66,0,0,1,38.14,197L35.29,194c-.77-.79-.91-1.34-.46-1.79.19-.19.19-.41,0-.73a14.33,14.33,0,0,1-.63-1.4c-.25-.64-.52-.93-.86-.93a.85.85,0,0,1-.63-.22,1.73,1.73,0,0,0-.86-.36c-.73-.15-.8-.24-2.12-2.79a18.83,18.83,0,0,0-1-1.74,3.22,3.22,0,0,1-.55-1.33,2.19,2.19,0,0,0-.5-1.12,11,11,0,0,1-1.14-1.94,4.37,4.37,0,0,0-1-1.55.46.46,0,0,1,.14-.9,2.55,2.55,0,0,1,1.13.41,1.6,1.6,0,0,0,.68.3c-.56-.41-1-.68,0-.53a1.72,1.72,0,0,0-.8-.65,6.19,6.19,0,0,1-1.1-.58c-.92-.66-2.07,1-1.47,2.1a10.08,10.08,0,0,0,1.4,2.19c.25.28.4.56.33.62a7.42,7.42,0,0,1-2.51-1.18c-.59-.41-1.28,0-1.38.88-.06.5.41,1.19,2.19,3.21,2.92,3.32,2.83,3.21,3.23,4a19,19,0,0,0,2,2.53,18.08,18.08,0,0,1,1.7,2,7.58,7.58,0,0,0,1.12,1.27,5.51,5.51,0,0,1,1.12,1.36c0,.13.16.24.35.24a.59.59,0,0,1,.49.37.61.61,0,0,0,.52.37c.21,0,.38.12.38.26a31.4,31.4,0,0,0,4.12,4.22,32.11,32.11,0,0,1,4,3.2,1.54,1.54,0,0,0,.81.53,1,1,0,0,1,.64.5c.17.27.41.5.52.5a11.49,11.49,0,0,1,2.62,1.8.48.48,0,0,0,.42.19,2.55,2.55,0,0,1,1,.58,13.79,13.79,0,0,0,3.24,1.88,11.43,11.43,0,0,0,4.19,1.37,54.25,54.25,0,0,0,11.9.12,15.19,15.19,0,0,1,3.09-.13c.09.09,0,.36-.22.6a2.6,2.6,0,0,0,.93,3.94,2.41,2.41,0,0,0,3.37-1.11,2.25,2.25,0,0,0,0-3.06,2.53,2.53,0,0,1-.46-1.09c0-.39.21-.42,2-.3s3.05.57,2.28.86c-.44.16-.39,1.94.06,2.31a1,1,0,0,1,.37.63c0,.18.43.39,1,.49,2.48.07,2.54-1.07,3.75-2.67,0,.26,1.83.81,2.72.81a1.27,1.27,0,0,1,.9.27,15.76,15.76,0,0,0,3.48,1.72,5.1,5.1,0,0,1,1,.34c.43.18,1.23.48,1.78.65a23.65,23.65,0,0,1,2.37,1c1.16.55,1.28.67.77.74a3.44,3.44,0,0,0-1.12.42,5.49,5.49,0,0,1-1.64.5,4.87,4.87,0,0,0-1.37.37,16.31,16.31,0,0,1-4.23.89,6.56,6.56,0,0,0-1.74.35,9.53,9.53,0,0,1-1.49.62c-1.28.45-3.15-.28-5.35-1a2.22,2.22,0,0,0-.63-.12,1,1,0,0,1,.13.45,6.1,6.1,0,0,0,2.17,1.27,1.16,1.16,0,0,1,.71.25c.44.44,3.43.61,3.84.21a4,4,0,0,1,2-.4,4.71,4.71,0,0,0,1.86-.31c.4-.4,1-.3,1.53.24a1.49,1.49,0,0,0,.88.5,1.11,1.11,0,0,1,.74.37,1.36,1.36,0,0,0,1.6.19,7.65,7.65,0,0,1,3.32-.86c.87.17.19.52-.85.43-.53,0-.83,0-.83.25s-.2.38-.44.47a8.07,8.07,0,0,0-1.84,1.06,3.63,3.63,0,0,1-1.25.43,1.58,1.58,0,0,0-1,.53.74.74,0,0,1-1.33-.13c-.09-.35-.42-.55-1.1-.65s-1-.25-1-.37c0-.33-1.6-.26-1.94.08s-.44.22-.93,0-.69-.29-1.18.2l-.55.54.55.55c.43.43.92.57,2.23.65a5.87,5.87,0,0,1,1.81.28,4,4,0,0,0,1.25.45c1,.25,1,.27-1.25.26-3.13,0-5-.38-6.47-1.22-.21-.12-.6-.32-.87-.45a6.34,6.34,0,0,1-1.36-1.12c-.81-.84-.83-.9-.3-.9a2.68,2.68,0,0,1,1.07.27c.28.15.57.21.65.13.23-.23-.93-1.33-1.58-1.5a.68.68,0,0,1-.6-.77c0-.34.11-.62.25-.62s.26-.11.26-.28c-.19-.17-.31-.31-.31-.38s.07-.07.18-.07a2.13,2.13,0,0,0-.62-.72c-.92-.68-1.5-.7-1.5,0,0,.27.11.5.25.5s.25.2.25.45a1.21,1.21,0,0,0,.29.74c.16.16.22.37.13.46s-2.16-.39-2.68-.83-1-.4-1,.21a6.61,6.61,0,0,0,.76,2.45,4.18,4.18,0,0,1,.37,1.1,2.2,2.2,0,0,0,.61,1.17c.21.11,1,.49,1.74.85s1.65.8,2,1c.61.32,1.65.49,5,.79a5.79,5.79,0,0,1,1.86.37,7.65,7.65,0,0,0,3.56,0l1.26-.62a3.88,3.88,0,0,1,1.26-.42,5,5,0,0,0,1.46-.5,5.13,5.13,0,0,1,1.42-.5c.21,0,.39-.1.39-.22s.31-.3.69-.39a14.17,14.17,0,0,0,2-.77,10.45,10.45,0,0,1,2.37-.76,5.37,5.37,0,0,0,1.59-.47,8.33,8.33,0,0,1,1.49-.61,19.44,19.44,0,0,0,1.85-.69c1.78-.8,7.65-.68,8.86.18a7.82,7.82,0,0,0,1.56.48c.72.17,1.31.41,1.31.53s.43.23.95.23a2.84,2.84,0,0,1,1.43.36,2.85,2.85,0,0,0,1.42.37c.51,0,.93.11.93.22a3.38,3.38,0,0,0,1.53.52,10.7,10.7,0,0,1,2.41.77,7.25,7.25,0,0,0,2,.63,2.72,2.72,0,0,1,1.22.38,1.19,1.19,0,0,0,.81.23,2.28,2.28,0,0,1,1.15.37,1.88,1.88,0,0,0,.93.37c.25,0,.45.09.45.2s.36.32.81.47a7,7,0,0,0,4.06-.33,10.47,10.47,0,0,1,2.16-.58,12.44,12.44,0,0,0,2.75-.87,6.74,6.74,0,0,1,1.89-.64c.29,0,.54-.11.54-.25a.28.28,0,0,1,.29-.25c.6,0,1.2-.84,1.2-1.66,0-.46.11-.83.25-.83.34,0,.32-.93,0-1.14-.94-.58-3-.08-3,.73a6.58,6.58,0,0,1-2.08,2.15,6.08,6.08,0,0,0-1.38.72,9.55,9.55,0,0,1-1.76.9,3.13,3.13,0,0,0-1,.51,4.18,4.18,0,0,1-1.63.49c-1,.13-1.33.08-1.58-.22s-.06-.59,1.72-1.26a5,5,0,0,0,.75-.38,3.82,3.82,0,0,1,1-.37,3.45,3.45,0,0,0,1.22-.6l.57-.46-.56-.56c-.5-.5-.72-.55-2-.4-1.62.19-4,1.25-4,1.77s-.24.44-.91-.28a1.6,1.6,0,0,0-1.65-.56c-.89.07-1.09,0-1.3-.48a.89.89,0,0,0-.9-.56,8.74,8.74,0,0,1-2.84-.76,13.15,13.15,0,0,0-1.55-.48,2.94,2.94,0,0,1-1.2-.51.82.82,0,0,0-.63-.24c-.61,0-.9-1.06-.53-1.89.21-.47.47-.6,1.14-.6a1.56,1.56,0,0,1,1,.25.86.86,0,0,0,.65.25,14.51,14.51,0,0,1,3.5,1,11.36,11.36,0,0,0,2.12.5,11.41,11.41,0,0,1,2.14.51,32.31,32.31,0,0,0,6.71.72c1.75,0,4.18-.41,4.18-.71a4.1,4.1,0,0,1,1.95-.78c.16,0,.29.3.29.68,0,.59,0,.63.35.31a2.21,2.21,0,0,0,.18-2.32c-.29-.36-.42-.33-1.3.22a4.23,4.23,0,0,1-1.3.61,1,1,0,0,0-.62.29c-.4.4-7.56.44-8,.05a13,13,0,0,0-2.9-.7,17.07,17.07,0,0,1-3.24-.78,3.15,3.15,0,0,0-1-.36c-.47,0-.37-.36.25-.89a6.76,6.76,0,0,1,3.36-1.48,5.12,5.12,0,0,0,1.8-.67c0-.11.22-.2.48-.2a.83.83,0,0,0,.64-.25,1.05,1.05,0,0,1,.77-.25,2.63,2.63,0,0,0,1.17-.34,8.89,8.89,0,0,1,2.11-.66,4,4,0,0,0,1.56-.5c0-.1.48-.25,1.06-.33s1.36-.22,1.72-.31c.59-.14.68-.07.83.63a3.65,3.65,0,0,0,2.62,2.5c.41,0,.74-.11.74-.25s.16-.25.36-.25c.46,0,1.39-1.3,1.39-1.93,0-.79.85-1.33,2.34-1.48s1.73,0,.93,1.25c-.45.68-.45,1.92,0,1.92.12,0,.22.15.22.33,0,.69,2,1.29,3,.87a3.68,3.68,0,0,0,1.49-2.88v-.76l4.07,0a18.79,18.79,0,0,0,4.67-.26,17.46,17.46,0,0,1,2.54-.73,7.84,7.84,0,0,0,2.07-.64.82.82,0,0,1,.61-.21,17.25,17.25,0,0,0,4.86-2.51,1.4,1.4,0,0,1,.77-.48c.18,0,.33-.09.33-.2s.4-.34.88-.52a5.2,5.2,0,0,0,1.43-.81c1.76-1.59,3.6-2.95,4-2.95a.41.41,0,0,0,.44-.38c0-.21.11-.37.24-.37.44,0,6.73-6,6.73-6.39a.32.32,0,0,1,.31-.33,15.08,15.08,0,0,0,3.17-3.06,5.36,5.36,0,0,1,.93-1.09,22.09,22.09,0,0,0,1.56-1.74c.34-.44,1.49-1.82,2.55-3.06a17,17,0,0,0,1.93-2.5.3.3,0,0,1,.33-.25c.48,0,1.09-.75,1.3-1.59s0-.69-.85-.56c-.57.09-1,.1-1,0a7.67,7.67,0,0,1,.57-1.19c.7-1.28.63-2.16-.17-2.16a1.61,1.61,0,0,0-1,.5,1.47,1.47,0,0,1-.8.5,5.23,5.23,0,0,0-1.38.5c-1.41.68-1.78.65-1.58-.12,0,0,0,0,0,0a.52.52,0,0,1-.28.11c-.45.42,0-.17,0-.43a1.7,1.7,0,0,1,.15-.28c-.09,0-.2.08-.32.26-.22.36-1.45.3-2-.1-.39-.29-.42-.41-.15-.73a2.2,2.2,0,0,1,1-.55c.62-.14,1.73-1.24,1.73-1.72a3.63,3.63,0,0,1,.75-.89,2.74,2.74,0,0,0,.75-1,6.09,6.09,0,0,1,.68-1.44c.68-1.17.68-1.18.67-5.84,0-3.23-.11-4.77-.31-5a1.68,1.68,0,0,1-.29-1c0-.8-.63-2.18-1-2.18s-.26-1,.27-1.77c.28-.4.67-.72.85-.72.48,0,.57-.43.43-2-.2-2.35.11-3.62,1.17-4.78s1.5-2.31,1.44-4.6c0-1.43,0-1.89.35-2.12a2.05,2.05,0,0,0,.59-.91,3.43,3.43,0,0,1,.57-1.06,5.57,5.57,0,0,0,.66-1,1.29,1.29,0,0,1,.85-.64,4.06,4.06,0,0,0,1.55-1.09c.79-.81,1-1.19,1-1.95a3.86,3.86,0,0,1,1.08-2.4,19.17,19.17,0,0,1,1.74-2.06,2.15,2.15,0,0,0,.66-.87c0-.33,1.16-.89,1.84-.89a2.66,2.66,0,0,0,1.89-1.91c0-.37.49-1,1.41-1.88l3.3-3.08a16.11,16.11,0,0,1,2.32-1.92,2,2,0,0,0,.78-1,3.87,3.87,0,0,1,1.11-1.38c.07-.4.16-.72.3-.74s.3-.1.32-.1a.18.18,0,0,1,.11.09c.08-.25,0-.49-.35-.83-.94-1-1.82-.41-1.82,1.31a2,2,0,0,1-.63,1.23l-.62.59v-1.8c0-1.72,0-1.8-.55-1.72s-1,.76-1.41,2.32a9.37,9.37,0,0,1-1.69,2.72,23.85,23.85,0,0,0-1.81,2.42,15.18,15.18,0,0,1-2.6,3.09c.14-1.35.2-4,.22-5.07l.74,0c1.2,0,1.48-.07,2.13-.7,1.1-1.05,1-2.29-.15-3.62-.85-.95-1.65-1.26-1.95-.78a1.65,1.65,0,0,1-.89.33c-.65.09-.75,0-.75-.45a1,1,0,0,1,.25-.72,4.24,4.24,0,0,0,.73-1.2,17.21,17.21,0,0,1,1.37-2.27,6,6,0,0,0,.88-1.51,3.51,3.51,0,0,1,.64-1.14,8,8,0,0,0,.87-1.42c.12-.31.32-.56.45-.56s.31-.42.4-.93a6,6,0,0,1,.62-1.68,6.26,6.26,0,0,0,.63-1.87,4.48,4.48,0,0,1,.4-1.39,23.73,23.73,0,0,0,.62-3.86,29,29,0,0,1,.63-4c.34-.66.28-2.93-.07-2.93s-.23-.07,0-.3a1.37,1.37,0,0,0,0-1.7.76.76,0,0,1,0-1c.17-.27.21-.5.09-.5a4.15,4.15,0,0,1-.38-1.81c-.24-2.58-.62-4.34-1-4.67a2.83,2.83,0,0,1-.51-1.37c-.09-.6-.3-1.14-.48-1.2s-.39-.6-.48-1.19a6.08,6.08,0,0,0-.63-1.83,5.88,5.88,0,0,1-.63-1.63,12.38,12.38,0,0,0-.8-2.24c-.35-.75-.72-1.59-.83-1.87s-.38-.91-.6-1.41a5.09,5.09,0,0,1-.4-1.18.25.25,0,0,0-.21-.27c-.26,0-1.15-1.78-1.55-3.11a10.81,10.81,0,0,0-.63-1.62c-.18-.34-.5-1-.71-1.5-1.06-2.46-1.69-3.06-2.87-2.75-.6.16-.63.26-.68,2.27a11.75,11.75,0,0,1-.28,2.6c-.12.27-.33.78-.47,1.12-.24.59-.26.59-.43.13-.1-.27-.27-.72-.38-1a7.64,7.64,0,0,1-.34-1.46c-.16-1.12-.13-1.08-.78-1.19-.46-.08-.51.1-.7,2.52a13.22,13.22,0,0,1-.41,2.86,9.63,9.63,0,0,0-.38,2.38,11.55,11.55,0,0,1-.51,2.81,20.57,20.57,0,0,0-.78,3.49c-.45,2.85-.89,3.91-1.17,2.84a5,5,0,0,1-.15-1,17.84,17.84,0,0,0-.49-2.33,8.32,8.32,0,0,1-.6-3.1.8.8,0,0,1,.59-.2,2.26,2.26,0,0,0,1.12-.56,1.81,1.81,0,0,0,.67-1.65,2.05,2.05,0,0,0-2.19-2.32,1.9,1.9,0,0,0-1.07.26,1.13,1.13,0,0,1-.64.32l-.07,0s0,0,0,0l-.2.62,0-.55c-.13.12-.16.32-.12.7a2.53,2.53,0,0,0,.29,1,9.85,9.85,0,0,1,1,2.92c0,.24-.08.44-.18.43a4.63,4.63,0,0,1-1.31-1.91,9.42,9.42,0,0,0-.74-1.73,7.69,7.69,0,0,1-.75-1.9c0-.24-.09-.44-.19-.44s-.3-.25-.43-.56a1.82,1.82,0,0,0-.81-.81c-.31-.14-.56-.35-.56-.49A4.66,4.66,0,0,0,192,62.65a9.25,9.25,0,0,1-2.1-1.43c-1-.79-2-1.6-2.32-1.81a31.55,31.55,0,0,1-4.38-3.85l-1.7-1.73-.07-1.63-.07-1.63L180.14,50a6.09,6.09,0,0,1-3.25-6c.15-1.36.13-1.44-.74-2.4a3.82,3.82,0,0,1-.9-1.35,1,1,0,0,0-.21-.59,7.14,7.14,0,0,1-.54-1.73,8.65,8.65,0,0,0-.52-1.74,8.81,8.81,0,0,1-.48-1.87,6.05,6.05,0,0,1,0-2.93c.3-1.27.29-1.34-.31-2a3.82,3.82,0,0,1-1.11-2.92,7.11,7.11,0,0,0-.26-1.62,12.79,12.79,0,0,1-.45-1.76l-.28-1.39.61.32a2.65,2.65,0,0,1,.76.54,15.86,15.86,0,0,0,3,2,38.85,38.85,0,0,1,4.7,3,9.54,9.54,0,0,1,1.94,2.12c.72,1.13,1,1.33,1.83,1.47a2.73,2.73,0,0,1,1.73,1,3,3,0,0,0,1,.84c.13,0,.36.31.52.69s.45,1,.66,1.43l.68,1.37a2.9,2.9,0,0,0,1.18,1c1,.48,2,1.42,2,1.86a1.06,1.06,0,0,0,.47.63,3.4,3.4,0,0,1,.78,1.94,4,4,0,0,0,1.24,2.56c.87.88.94,1.07,1,2.67.07,1.26.22,1.81.53,2s.93,2.36.93,3.84a3,3,0,0,0,.31,1.34.76.76,0,0,1,0,1c-.41.66-.41,4.28,0,4.72.25.26.25.35,0,.45s.11,5.55.49,5.78a1.21,1.21,0,0,1,.27.82v.12a.51.51,0,0,1,.22-.11c.08-.45-.34-3.51-.33-5.05,0-1.93.13-3,.33-3.19s.23-.36-.06-.54-.32-.32-.06-.74.21-.5.06-.5-.25-1.18-.25-3.1c0-3.69-.4-6.69-1-7.73a3.13,3.13,0,0,1-.46-1.26,2.08,2.08,0,0,0-.34-1,4.43,4.43,0,0,1-.52-1.31,2.86,2.86,0,0,0-.66-1.27c-.44-.41-.7-.83-1.91-3.14a46.17,46.17,0,0,0-3.8-4.73l-.55-.57a74.71,74.71,0,0,0-7.49-6.63c-.43-.26-1.36-.91-2.06-1.43a5.39,5.39,0,0,0-1.65-1,2.16,2.16,0,0,1-1-.46,13.26,13.26,0,0,0-1.76-1A8.79,8.79,0,0,1,172.38,21c-.9-1-1.37-1.19-1.37-.71,0,.14-.17.25-.37.25-.41,0-.52,1-.16,1.38s.75,2.34.5,2.5-1.37-.52-1.71-1.14-1.49-.68-1.49,0a1.63,1.63,0,0,0,.37.94,6.6,6.6,0,0,1,.76,1.95,13.92,13.92,0,0,0,.73,2.18c.38.73.24,1.6-.25,1.6a17.49,17.49,0,0,1-3.85-3.32c0-.12.22-.27.48-.34.51-.13.72-.8.73-2.35,0-1.05-.47-1.57-1.67-1.8a1.78,1.78,0,0,0-2.16,1.09c-.21.41-.53.74-.7.74a3.49,3.49,0,0,1-1.41-1.63,3.59,3.59,0,0,0-.62-.9,2.6,2.6,0,0,1-.62-1.17,6.06,6.06,0,0,0-1.12-1.88,6.71,6.71,0,0,1-1.12-1.79.59.59,0,0,0-.37-.5.59.59,0,0,1-.37-.49c0-.47-3.24-3.85-4.54-4.73a7.62,7.62,0,0,1-1.39-1.15,1.14,1.14,0,0,0-.78-.44A1.11,1.11,0,0,1,149.1,9a4.69,4.69,0,0,0-1.59-.77c-.71-.22-1.63-.56-2.05-.75A8.84,8.84,0,0,0,143.6,7a4.35,4.35,0,0,1-1.41-.4,17.43,17.43,0,0,0-4.43-.85,5.19,5.19,0,0,1-1.49-.34,15.5,15.5,0,0,0-3-.36A17.1,17.1,0,0,1,128,4.13a16.84,16.84,0,0,0-2-.48,14.93,14.93,0,0,1-2-.5c-.27-.11-1-.39-1.66-.62a4.5,4.5,0,0,1-1.46-.77,1,1,0,0,0-.53-.36,3.68,3.68,0,0,1-1.08-.64,2.13,2.13,0,0,0-1.19-.56ZM224.51,118c-.07.21-.3.43-.71.72l0,0a17.73,17.73,0,0,0-.2,2.75,4.31,4.31,0,0,1-.3,1.37,37,37,0,0,0-.58,5.37c-.23,3.76-.37,4.76-.71,5.14a7.8,7.8,0,0,0-1.4,2.69,3.84,3.84,0,0,0,.48,1.16,2.34,2.34,0,0,1,.23,2.06,6.75,6.75,0,0,1-1.4,3.24c-.31.31-.44.86-.45,1.94a21.13,21.13,0,0,1-.21,2.63c-.24,1.38-1.31,3.74-1.71,3.74a2.53,2.53,0,0,0-1,.74,2,2,0,0,0-.66,1.68c0,.51,0,1.13,0,1.36,0,.56-2.41,3.4-3.25,3.88a2.7,2.7,0,0,0-1.26,2.12,13.67,13.67,0,0,1-2.8,3.12c-4.07,3.84-7.37,7.3-7.72,8.08-.17.38-.43.69-.59.69s-.58.77-.59,1.56c0,.06,0,.07.06.06a3.28,3.28,0,0,1,.38-.48c.05,0,.36,0,.36.23a.8.8,0,0,1-.1.32,1,1,0,0,1,.14.21c.38,0,.15.27.15.83a1.55,1.55,0,0,0,.69,1.27,1.85,1.85,0,0,0,1.65.41,2.53,2.53,0,0,0,1.12-.34,2.57,2.57,0,0,1,.65-.48c.38-.21.51-.58.57-1.52.07-1.13,0-1.31-.7-1.9a12.57,12.57,0,0,0-1.2-.9c-.37-.22-.32-.34.45-1l1.31-1.12a1.53,1.53,0,0,1,.67-.38,37.68,37.68,0,0,0,5.24-5.41,6.56,6.56,0,0,1,1.25-1.69,6.19,6.19,0,0,0,1.25-1.72.57.57,0,0,1,.35-.48c.34-.13.56-.47,1.55-2.41.24-.48.81-1.45,1.27-2.17a7.34,7.34,0,0,0,.82-1.54,3.45,3.45,0,0,1,.36-.95c.2-.39.42-.87.5-1.08a4.49,4.49,0,0,1,.38-.75,19.42,19.42,0,0,0,1.69-4.17c.07-.45.22-.81.32-.81a4.87,4.87,0,0,0,.49-1.81,9.75,9.75,0,0,1,.49-2.05c.2-.27.32-.79.75-3.36a16.58,16.58,0,0,1,.42-2,39.76,39.76,0,0,0,1-8.34,14.45,14.45,0,0,1,.34-3.56.38.38,0,0,0,0-.6.4.4,0,0,1-.07-.55,9.48,9.48,0,0,0,.31-2.51,10.55,10.55,0,0,0-.1-3.32Zm-24.12,56.19c-.27-.3-.53-.09-.64-.07-.53.72-1.44,2-1.68,2.37s-1.34,1.89-1.68,2.48c.16,0,.25.24.16.6,1-.64,3.35-4.26,3.84-5.39ZM119.65,2.21a2,2,0,0,1,.48.08,6.11,6.11,0,0,1,1.57.73,6.06,6.06,0,0,0,1.74.75,4.07,4.07,0,0,1,1.12.36,15,15,0,0,0,3.52.88,8.89,8.89,0,0,1,3.2,1.15c1.23.57,2,.63,2.48.19a4.18,4.18,0,0,1,2.75,0,.69.69,0,0,0,.54.25,3.43,3.43,0,0,1,1.3.72c1.07.85,1.46.93,3.2.67a4.25,4.25,0,0,1,4,1.27,2.79,2.79,0,0,0,2.21,1c1.19.12,1.44.24,1.79.85.22.39.54.71.71.71s.31.1.31.22.41.28.92.37a4.34,4.34,0,0,1,2.24,1.46,7,7,0,0,1,1.33,1.56,25.7,25.7,0,0,0,2.93,4,3.23,3.23,0,0,1,.65,1.41,2.49,2.49,0,0,0,.52,1.2,2.12,2.12,0,0,1,.51,1,2.14,2.14,0,0,0,1.7,1.5,2.84,2.84,0,0,1,1.14.87,2.76,2.76,0,0,0,1.17.87c.21,0,.48.28.61.63a1.5,1.5,0,0,0,.68.8,14.56,14.56,0,0,1,2,1.49,15.45,15.45,0,0,0,2.29,1.62c.64.28.66.34.29.75A1.38,1.38,0,0,1,169,32a15.14,15.14,0,0,1-1.71-1.47,13.76,13.76,0,0,0-2.43-1.87c-.48-.23-.87-.52-.87-.65s-.15-.24-.34-.24a1.09,1.09,0,0,1-.67-.4,8.86,8.86,0,0,0-2-1.18l-1.63-.79h-6.52c-6.42,0-6.53,0-7.12-.56s-1.25-.71-1.68-.19c-.57.68-1.63.44-2.72-.6s-1.63-1.16-4.48-1.23a1.74,1.74,0,0,1-1-.23,5.15,5.15,0,0,0-1.33-.69c-.65-.26-1.18-.62-1.18-.79a.31.31,0,0,0-.32-.31c-.17,0-.43-.25-.56-.56a1.14,1.14,0,0,0-.9-.64c-.94-.11-2.7-1.8-2.7-2.6s.26-.77,4-1.07a12.48,12.48,0,0,0,2.37-.36c.27-.11.71-.28,1-.36s.41-.22.16-.52a1,1,0,0,0-1.33-.2c-.19.19-.21.19-3.09.46a5.49,5.49,0,0,0-2.33.53c-.42.51-1,.4-1.69-.3a6.15,6.15,0,0,0-1.36-1,4.22,4.22,0,0,1-2.28-2.64,2.77,2.77,0,0,0-.64-1.32,1.57,1.57,0,0,1-.47-1,1,1,0,0,0-.35-.77,3.63,3.63,0,0,1-.74-1.52,8.43,8.43,0,0,0-.9-2,3,3,0,0,1-.51-1,1,1,0,0,0-.39-.56,3.15,3.15,0,0,1-.64-.79c-.14-.26-.17-.37,0-.38ZM108.2,2.9c.52,0,.24,1.07-.36,1.37a2.89,2.89,0,0,0-1.71,2.11,4.48,4.48,0,0,1-.76,1.51c-.5.42-.46,1.23.07,1.25.26,0,.31.07.13.15a.54.54,0,0,0-.31.47A7.4,7.4,0,0,1,104,11.63c-.72.85-1.42,1.71-1.56,1.92-.78,1.21-1.33,1.58-3.89,2.62a4.07,4.07,0,0,0-2.21,2.56c0,.61-1.2,1.55-3.26,2.55a6.18,6.18,0,0,1-3,.79c-1.31,0-1.44.06-2.07.87a2.29,2.29,0,0,1-1.64,1,2.38,2.38,0,0,0-1.1.37,1.29,1.29,0,0,1-.85.22,1.25,1.25,0,0,0-.87.25,1.65,1.65,0,0,1-1.74,0c-.26-.43-2.12-.28-2.83.22a3.84,3.84,0,0,1-1.66.55,3.53,3.53,0,0,0-1.26.27,7.71,7.71,0,0,1-3.72,0c-1.49-.81-8.25-.71-8.53.12a.61.61,0,0,1-.57.31.8.8,0,0,0-.62.25.77.77,0,0,1-.6.25,1.5,1.5,0,0,0-.9.5c-.47.52-1.37.68-1.37.25a.26.26,0,0,1,.27-.25,4.62,4.62,0,0,0,1.31-.83,11.56,11.56,0,0,1,1.94-1.24c1.09-.5,1.75-1.2,1.28-1.35S64.14,23,65,22a4,4,0,0,0,.87-1.25,13.88,13.88,0,0,1,.9-2.18A11.52,11.52,0,0,1,69.53,15a14.05,14.05,0,0,1,2.77-2.19c.53-.23,1.16-.53,1.39-.66a2.08,2.08,0,0,1,.83-.24,5.42,5.42,0,0,0,1.71-1.37c.91-.95,1.51-1.37,1.94-1.37a1.37,1.37,0,0,0,.93-.37c.38-.45,1.66-.5,1.81-.06.09.25.22.25.64,0a2.22,2.22,0,0,1,.79-.31,2.5,2.5,0,0,0,.94-.63A4,4,0,0,1,87,6.87c1.48.37,2.75.13,4.72-.9,1.72-.9,2.05-1,2.73-.62A11.66,11.66,0,0,0,96,5.9c1.11.33,1.62.24,3.66-.63A19.39,19.39,0,0,1,103,4.63a11.17,11.17,0,0,0,2.69-.53.73.73,0,0,1,.55-.21,2.3,2.3,0,0,0,1-.49,2.33,2.33,0,0,1,1-.49Zm16.17,2.87c-.12,0-.19,0-.19.11a10.58,10.58,0,0,0,3,2.24.66.66,0,0,1,.45.31c.21.32.66.6,2.4,1.49A11.67,11.67,0,0,1,131.71,11a4.08,4.08,0,0,0,1.42.72,2.19,2.19,0,0,1,1,.52,1,1,0,0,0,.64.36,16.66,16.66,0,0,1,2.7,1.25,13.71,13.71,0,0,0,2.85,1.24.83.83,0,0,1,.64.24,4.5,4.5,0,0,0,1.26.73c.8.35,1.11.64,1.11,1s-.16.51-1,.51a4.62,4.62,0,0,0-1.68.35,16.52,16.52,0,0,1-3.92.52c-2.75.15-3.15.23-2.85.52.45.45,5.06.57,5.49.14a1.27,1.27,0,0,1,.78-.29,13.3,13.3,0,0,0,4.16-1.15c.55-.48,1.16-.43,1.9.15a4,4,0,0,0,1.46.65,2.31,2.31,0,0,1,1.12.5,1.2,1.2,0,0,0,.82.35,3.53,3.53,0,0,1,1.4.55,9.84,9.84,0,0,0,1.6.81c1.3.46,1,.81-.78,1-3.81.37-4.86.69-4.45,1.35.29.47,2,.32,3.18-.29.8-.4,1.24-.5,1.51-.33s.65.11,1.26-.18c1.15-.55,1.22-.54,2.51.33a6.81,6.81,0,0,0,1.28.75,2.77,2.77,0,0,1,.81.5c.74.58,1.56.65,1.56.14s-1.4-1.82-2.37-2.17c-.48-.17-.87-.4-.87-.51s-.36-.37-.81-.58-1.09-.54-1.43-.73A13.81,13.81,0,0,0,151,18.57c-.6,0-1.6-1.37-2.76-3.79a17.35,17.35,0,0,0-1.38-2.56c-.47-.29-.49.37,0,1.16.55,1,.93,3.32.57,3.54a3.47,3.47,0,0,1-1.58-.54c-1.19-.62-1.42-.87-2.16-2.43C142.3,11.1,142.25,11,142,11.12s-.23,2.17.15,2.62c.25.3.23.45-.1.79s-.41.3-.41.11a.35.35,0,0,0-.38-.3c-1,0-2-1.18-3.24-3.74a5.53,5.53,0,0,0-1-1.49c-.42-.35-.44-.33-.28.25a9.8,9.8,0,0,1,.56,3.17c-.08.08-.36,0-.62-.28a4,4,0,0,0-1.34-.67,4.69,4.69,0,0,1-1.71-1.11,2.81,2.81,0,0,0-1.36-.87,6.87,6.87,0,0,1-3.4-1.42,5.58,5.58,0,0,0-1.47-.83,3.25,3.25,0,0,1-1.11-.62,4.89,4.89,0,0,0-1.9-1ZM103.48,6.88a1.92,1.92,0,0,0-1,.62,2.09,2.09,0,0,1-.83.62,28.56,28.56,0,0,0-3,1.4c-2.37,1.18-2.87,1.35-3.32,1.11s-.63-.17-1.27.57c-.89,1-3.79,2.53-4.4,2.3-.32-.12-.35-.23-.13-.45a1.2,1.2,0,0,0,.29-.74,2.39,2.39,0,0,1,.21-.88,11.68,11.68,0,0,1,1.61-2.74c.42-.47.44-.56.11-.56a.69.69,0,0,0-.56.5c-.09.27-.31.5-.5.5s-.41.23-.5.51a13.18,13.18,0,0,1-1.14,2,9.52,9.52,0,0,0-1,1.68c0,.77-3.32,2.8-4.57,2.8-.66,0-.92-.56-.41-.87a.81.81,0,0,0,.25-.62.87.87,0,0,1,.31-.67,3.53,3.53,0,0,0,.75-1.07c.83-1.68,1.65-2.74,2.11-2.74.18,0,.32-.22.32-.5s-.14-.5-.31-.5c-.49,0-2.13,1.82-2.31,2.57a1.7,1.7,0,0,1-.41.82,1.87,1.87,0,0,0-.47.68,16.42,16.42,0,0,1-1,1.66,16.45,16.45,0,0,0-1,1.66,4.06,4.06,0,0,1-1.61,1.18c-2.11,1-2.56.83-1.77-.69a3.35,3.35,0,0,0,.38-1.12,2.29,2.29,0,0,1,.49-1,2.31,2.31,0,0,0,.49-1A3.65,3.65,0,0,1,80,12.52c.43-.64.51-.91.27-.91S78.61,13,78.6,13.44A7.5,7.5,0,0,1,78,15a7.47,7.47,0,0,0-.61,1.52,1.42,1.42,0,0,1-.48.7,2.43,2.43,0,0,0-.62,1,3.09,3.09,0,0,1-2.45,1.72c-.89.16-.93.14-.93-.49a2.74,2.74,0,0,0,0-.31c-.06.06-.12.11-.16.11a.2.2,0,0,1-.2-.15,1.11,1.11,0,0,0-.37.73c0,.75-1,1.37-3.49,2.15a6,6,0,0,0-1.49.61,4.23,4.23,0,0,1-.94.6c-.45.23-.75.53-.67.66.3.48,2.45.24,3.48-.39a4.34,4.34,0,0,1,1.37-.62A6.31,6.31,0,0,0,72,22.17c2.54-1.33,3.1-1.59,3.49-1.59a18.64,18.64,0,0,0,3.67-1.51,14.6,14.6,0,0,1,1.62-.64,3.49,3.49,0,0,0,1.36-.72,2.06,2.06,0,0,1,1.12-.49,4.08,4.08,0,0,0,1.19-.37A9.76,9.76,0,0,1,86,16.21a14.06,14.06,0,0,0,1.74-.75,8.78,8.78,0,0,1,1.49-.61,5.71,5.71,0,0,0,1.28-.54,2.86,2.86,0,0,1,2.92-.23c1.36.61,4.64.89,4.64.39s-.64-.52-3.55-.75c-1.06-.09-1.87-.25-1.8-.37a5.63,5.63,0,0,1,1.62-.66,4.4,4.4,0,0,0,1.49-.61A9,9,0,0,1,97.72,11a23.52,23.52,0,0,0,2.52-1.4,2.19,2.19,0,0,1,1-.45A4.12,4.12,0,0,0,102.77,8c.68-.7,1-1.12.72-1.12Zm-31,12.21h0c.24-.2.33-.21.36,0,.32-.33.79-1.34.63-1.5a.08.08,0,0,0-.07,0,3.32,3.32,0,0,0-.94,1.45s0,0,0,0Zm49.23-8.23c.28,0,.46.1.46.31a3.2,3.2,0,0,0,.36,1,6.93,6.93,0,0,1,.53,1.62,4.2,4.2,0,0,0,.76,1.63c.8,1,.78,1.82-.05,2a5.9,5.9,0,0,1-2.85-.55,5.19,5.19,0,0,0-1.76-.76c-.45,0-.24.73.29,1s.51.29-.15.63a5.31,5.31,0,0,1-2,.35c-1.68,0-3.15.26-3.15.54,0,.13.36.16.81.08s3.16-.17,6-.2l5.23-.05.9.68a3.56,3.56,0,0,0,1.25.69,2.32,2.32,0,0,1,1,.49,2.34,2.34,0,0,0,.94.49.58.58,0,0,1,.46.38,2,2,0,0,0,1.12.66c1.08.32,1.67.86,1.32,1.19s-2.61.4-8.07.24c-4.89-.15-5.74-.24-6.85-.72a35.46,35.46,0,0,0-5.48-.89,9.14,9.14,0,0,1-1.62-.27c-.66-.26-2-.3-2.13-.06a1.9,1.9,0,0,1-1.13.23c-.79,0-1-.09-1-.47,0-.55,1.89-2.17,2.8-2.4a3.36,3.36,0,0,0,1.35-1A15,15,0,0,1,115.21,14c.62-.32,1.52-.82,2-1.12a3.74,3.74,0,0,1,1.2-.54,4.76,4.76,0,0,0,1.42-.75,3.85,3.85,0,0,1,1.91-.75Zm8.53.74c-1.06,0-2.48.19-2.55.54s.12.45.5.52a2.56,2.56,0,0,0,.91,0c.18,0,.77-.16,1.31-.25s1-.29,1-.51-.5-.31-1.14-.33Zm-13.85,4.73c-.89,0-1,0-.69.39s.37.3.5.1.31-.2.7,0c.55.34,1,.19.68-.26a1.89,1.89,0,0,0-1.18-.27Zm-29.05,1c-1.59,0-1.75.08-1.54.33a2,2,0,0,0,1.35.4,16.57,16.57,0,0,1,2.15.22,21.42,21.42,0,0,0,2.7.23c1.49,0,1.57,0,1.49-.52s-.16-.56-4-.63l-2.1,0Zm60,2.52a2.41,2.41,0,0,0-1.1.38,5.09,5.09,0,0,1-1.67.54,3.48,3.48,0,0,0-1.31.37,3.25,3.25,0,0,1-1.06.37c-.19,0-.35.11-.35.25,0,.53,3.41,0,5.07-.82,1.06-.51,1.15-.61.79-.91a.68.68,0,0,0-.38-.18ZM86,20.06a5.67,5.67,0,0,0-2.25.26c-.37.31-2.63.27-2.63,0s-.67-.21-1,.17.06.59,1.91.7c.72,0,1.31.15,1.31.25a2.74,2.74,0,0,0,1.31.26l1.68.13a3.32,3.32,0,0,0,1.31-.54c.76-.47.88-.63.6-.86A5.81,5.81,0,0,0,86,20.06Zm-31.76.62a.46.46,0,0,1,.3.12c.14.14.08.55-.15,1.07a18.25,18.25,0,0,0-.86,4.63A19.07,19.07,0,0,1,53,30.67a4.2,4.2,0,0,0-.37,1.25,2.53,2.53,0,0,1-.72,1.42c-.47.37-.54.67-.55,2.37a5.31,5.31,0,0,1-1.79,4.46c-.8.8-1.38,2.19-1,2.52a2.79,2.79,0,0,1,0,2.4,2.19,2.19,0,0,1-1,.84c-.6.23-.74.45-.89,1.48A5.29,5.29,0,0,1,46,49.26a3.15,3.15,0,0,0-.46.82,10.5,10.5,0,0,1-1.06,1.55c-.58.77-1.17,1.57-1.31,1.8a3.14,3.14,0,0,1-.39.53,1.82,1.82,0,0,0-.3.56.81.81,0,0,1-.77.44c-.91,0-1.89.44-1.89.84a1,1,0,0,1-.37.66,1.26,1.26,0,0,0-.37.86c0,.51-1.23,1.88-1.69,1.88s-7.77,7.3-7.77,7.75c0,.26-.14.48-.31.48-.36,0-1.18,1.54-1.18,2.2a2,2,0,0,1-.66,1A5.62,5.62,0,0,0,25.83,74a1.81,1.81,0,0,1-.3,1.06c-.43.43-.59.38-1-.31-.24-.37-.31-.67-.15-.76a1,1,0,0,0,.25-.7,2.07,2.07,0,0,1,.37-1,1.88,1.88,0,0,0,.37-.93c0-.25.11-.45.25-.45s.25-.2.25-.45a1.92,1.92,0,0,1,.62-1,2,2,0,0,0,.62-1.15,1,1,0,0,1,.25-.72,1,1,0,0,0,.25-.75,1,1,0,0,1,.23-.74,4.14,4.14,0,0,0,.54-1.5c.25-1.11.24-1.43,0-1.76s-.28-.44,0-.6.28-.52.17-1.29c-.18-1.23-.48-4.63-.45-5.2.12-2.52.24-3,.88-3.7s.93-1.63.66-3.37a4.35,4.35,0,0,1,1.64-4.32c1.3-1.25,1.58-2,1.59-4.06a3.6,3.6,0,0,1,.37-1.49c.2-.34.46-.85.59-1.12a4.81,4.81,0,0,1,2.69-2.13c1-.28,1-.38,1.2-1.37s.43-1.34,1.69-2.58a5.89,5.89,0,0,1,2-1.52c1,0,1.59-.3,1.75-.91s1.29-1.82,1.89-1.82a.66.66,0,0,0,.58-.37.56.56,0,0,1,.44-.37A3,3,0,0,0,47.09,26,14.9,14.9,0,0,1,49,24.83a11.7,11.7,0,0,0,2.48-1.91,6.08,6.08,0,0,1,1.64-1.34.33.33,0,0,0,.32-.35c0-.33.42-.58.77-.56Zm26.3,1.42-.69,0c-1.49.09-1.95.61-.68.77s1.81.08,1.9-.4C81.12,22.2,81,22.1,80.52,22.1ZM49.68,26.93c-.14,0-.36.18-.79.59a25.2,25.2,0,0,0-3.35,5.28,3.31,3.31,0,0,1-.74,1.07c-.5.45-.51.45-.68-.44a2.36,2.36,0,0,0-.36-1c-.24-.15-.5,1.37-.5,3a2.58,2.58,0,0,1-.62,1.95,2.64,2.64,0,0,0-.62,1.1c0,.51-1,1.84-1.42,1.84s-.33-.58-.35-2.3A16.35,16.35,0,0,0,40,35l-.2-.62-.07.62c0,.34-.08,2.19-.09,4.11,0,3.2-.06,3.55-.58,4.27a3.91,3.91,0,0,0-.56,1,3.62,3.62,0,0,1-.53.92c-.87,1.23-1.16.56-1.36-3.22-.14-2.53-.25-3.3-.51-3.3s-.41.68-.35,7c0,2.5-.07,3.8-.29,4.22-.55,1-.88.88-1.06-.53a9.07,9.07,0,0,0-1-3.4c-.57-.76-.69,1.23-.26,4.17.17,1.17.13,1.39-.28,1.7s-.46.36,0,.7.43.51.25,1.54-.32,1.21-.77,1.27-.56.22-.56,1.42c0,.83-.12,1.42-.32,1.54a3.12,3.12,0,0,0-.67,1.27,2.9,2.9,0,0,1-.68,1.26c-.37.21-.73,2.51-.49,3.13s.89.41,1.17-.62a9.24,9.24,0,0,1,.72-1.81c.25-.44.62-1.13.82-1.54,1.45-2.94,2-3.77,2.47-4,2.23-1.09,3.08-1.59,3.17-1.85s-1.29-.08-1.42.29c0,.13-.42.23-.84.23-.58,0-.72-.09-.6-.39a3,3,0,0,0,.15-.88c0-.76,1.16-1.65,2.52-1.94a7.06,7.06,0,0,0,1.79-.62A5.07,5.07,0,0,1,41,50.35c1-.2,2-.76,2-1.13,0-.14-.3-.18-.69-.1-.54.12-.43,0,.53-.64s1.14-.86.94-1.06-.55-.08-1.27.39a4.18,4.18,0,0,1-1.37.66.64.64,0,0,0-.5.22,1.89,1.89,0,0,1-.95.36l-1.62.3c-1.1.22-1.08-.33.06-1.92A6.48,6.48,0,0,0,39,46c0-.24.61-.62,2.24-1.4L43,43.71a4.44,4.44,0,0,1,1.25-.47,7.84,7.84,0,0,0,2.46-2.08c0-.39-.87-.11-1.71.55a6.13,6.13,0,0,1-1.53.9,3.26,3.26,0,0,0-1,.51c-.44.38-2.35.78-2.2.46l.67-1.4c.31-.65.66-1.18.8-1.18s.24-.18.24-.4a2.61,2.61,0,0,1,.62-1.14,2.73,2.73,0,0,0,.62-1.05c0-.17.48-.46,1.06-.63a3.29,3.29,0,0,0,1.2-.55A10.16,10.16,0,0,1,48,35.75c.63-.29,1.42-1.6,1.14-1.89-.08-.08-.63.25-1.22.74a11.55,11.55,0,0,1-2.06,1.33l-1.17.54c-.51.26-.08-.78.76-1.85a17.16,17.16,0,0,0,1.46-2.2c1.16-2.25,1.38-2.62,1.6-2.62a.26.26,0,0,0,.23-.29,3.43,3.43,0,0,1,.65-1.13,1.71,1.71,0,0,0,.49-1.25c0-.13-.1-.19-.18-.2Zm126.56,1.6c-.17,0,0,.37.35.85a3.2,3.2,0,0,1,.65,1.25c0,.21.11.39.25.39a.26.26,0,0,1,.25.27,4.45,4.45,0,0,0,.87,1.29c1,1.15,1.16,2.17.39,2.17a3.82,3.82,0,0,1-2-.84.55.55,0,0,0-.6-.06c-.54.21-.61.16,1.67,1.34,1.15.6,2,.9,2.14.77.32-.32.84.34,1.93,2.4a30.68,30.68,0,0,0,1.77,2.93,5.78,5.78,0,0,1,.85,1.45,2.6,2.6,0,0,0,.47.93,14.3,14.3,0,0,1,1.91,3.72,5.5,5.5,0,0,1-2.65-.86,4.88,4.88,0,0,0-1.25-.62,6,6,0,0,1-1.45-.75,2.2,2.2,0,0,0-.87-.46,4,4,0,0,1-1.2-.62c-1.17-.79-1.51-.37-.53.66a12,12,0,0,0,4.1,2.2,3.37,3.37,0,0,1,1.07.47,8.85,8.85,0,0,0,2.09.77c1.28.3,2.3,1.13,2.3,1.89a.46.46,0,0,0,.19.4,18.06,18.06,0,0,1,2.06,4.07c0,.2.09.37.2.37s.34.42.52.93a38.77,38.77,0,0,0,2.17,4.54,2.77,2.77,0,0,1,.35,1,2.36,2.36,0,0,0,.51,1c.3.38.66.59.87.5.41-.16.48-.48.15-.69a2.28,2.28,0,0,1-.37-1.07c-.13-.83-.47-1.64-1.81-4.38-.44-.89-.46-3.06,0-3.25.17-.08-.09-.08-.58,0-.86.13-.9.11-1.23-.94a5.84,5.84,0,0,0-.54-1.31c-.28-.32-.26-1.13,0-1.13.12,0,.3-.43.39-.95a5.08,5.08,0,0,1,.6-1.62,2,2,0,0,0,.3-1.58c-.21-1.27-.68-1.31-.89-.09-.09.55-.26,1-.36,1s-.29.48-.41,1.06q-.49,2.31-1.69-.1c-.74-1.48-.83-2.7-.27-3.55a7.89,7.89,0,0,0,.53-2.61c.13-1.68.09-2-.2-2-.62,0-1,.56-1,1.61a4.45,4.45,0,0,1-.37,1.72,3.26,3.26,0,0,0-.37,1.06c0,.19-.11.35-.25.35s-.25-.16-.25-.36a.75.75,0,0,0-.31-.56,5.51,5.51,0,0,1-.93-1.44c-.56-1.12-.62-1.48-.55-3.86a21.52,21.52,0,0,0-.11-3.37c-.17-.74-.18-.73-.37.34a3.85,3.85,0,0,1-.6,1.54c-.22.25-.34.56-.25.69a1.2,1.2,0,0,1-.08.82c-.15.39-.24.45-.25.17a.64.64,0,0,0-.36-.54c-.48-.18-1.9-3.18-1.9-4,0-.42-.16-.72-.44-.81-.89-.27-1.2-.55-1.93-1.74-.87-1.41-2.19-2.84-2.62-2.84Zm.71,9.74c-.15,0-.2.14-.2.44,0,.52,1.49,1.77,2.1,1.77.21,0,.39.11.39.25a.29.29,0,0,0,.31.25,3.76,3.76,0,0,1,1.18.55,11.56,11.56,0,0,0,1.62.84c1,.37,1.12.39,1.12.14,0-.44-1-1.08-3.42-2.28-.58-.28-1.06-.62-1.06-.75a.29.29,0,0,0-.31-.24,2.36,2.36,0,0,1-.93-.49,1.89,1.89,0,0,0-.79-.47Zm4.7,10.92c-.54,0,.45.75,1.53,1.15a13.2,13.2,0,0,1,1.66.74,5.08,5.08,0,0,0,1.31.47c.45.09.81.26.81.38s.2.26.44.32c.59.15.88.07,1-.26.05-.15-.67-.65-1.6-1.09a12.05,12.05,0,0,1-1.82-1A14.69,14.69,0,0,0,181.65,49.2Zm4.26,4.67a.56.56,0,0,0-.45.18c-.3.36.68,1.12,1.44,1.12a1.17,1.17,0,0,1,.72.27,4.6,4.6,0,0,0,1.23.61c2.42.86,2.92,0,.59-1a7.3,7.3,0,0,1-1.25-.63,5.08,5.08,0,0,0-1.3-.41,4.33,4.33,0,0,0-1-.14Zm22.87,5.93c.07,0,.17.09.33.26a6.75,6.75,0,0,1,.87,2,11.69,11.69,0,0,0,.62,1.74,7.65,7.65,0,0,1,.51,1.31,2.58,2.58,0,0,0,.49,1.06,2.79,2.79,0,0,1,.49,1.12,2.86,2.86,0,0,0,.73,1.35c.3.17.43.78.53,2.5.12,2.06.2,2.33.76,2.75a3.12,3.12,0,0,0,1.1.55,1.22,1.22,0,0,1,.75.57,2.51,2.51,0,0,0,.51.67c.14.1.1.32-.09.55a3.41,3.41,0,0,0,.1,3.14,1.46,1.46,0,0,0,.77.5c.43,0,1.1,1.41,1.1,2.32a2.05,2.05,0,0,0,.4,1.19c.64.71.64,6,0,7.28-.38.77-.42,1.06-.19,1.43a1.94,1.94,0,0,1,.29.81,1,1,0,0,0,.37.65c.47.39.27,2.09-.36,3a4,4,0,0,0-.55,3c.2.54.06,1.53-.63,4.37a2.3,2.3,0,0,1-.6,1,1.45,1.45,0,0,0-.47.89c0,.25-.11.46-.25.46s-.25.2-.25.45a1.88,1.88,0,0,1-.61,1,5.61,5.61,0,0,0-1,1.41c-.22.46-.51.84-.64.84s-.24.16-.24.34a1.06,1.06,0,0,1-.39.66,5.19,5.19,0,0,0-.88,1.46c-.27.63-.6,1.34-.73,1.58-.3.55-.31,2.85,0,3s.48,1.32.65,3.48c0,.26,0,.46.07.68h-.07l-.2,5.27a2.8,2.8,0,0,0-.54.06c-1,.2-1.38-.32-.85-1.3.4-.75.4-5.25,0-5.65a2,2,0,0,1-.26-1.1,7.7,7.7,0,0,0-1.16-3.94,2.83,2.83,0,0,1-.58-1.26,4.75,4.75,0,0,0-1.62-2.4.84.84,0,0,1-.37-.67A2.59,2.59,0,0,0,206,109a4.19,4.19,0,0,1-.79-1.58,2.44,2.44,0,0,0-.33-1c-.44-.32-1-2.75-1-4.33s0-1.78-1-2.76A3.19,3.19,0,0,1,201.79,97a7.67,7.67,0,0,0-.44-1.93c-.24-.47-.19-.66.26-1.14a2,2,0,0,0,.54-.87.28.28,0,0,1,.25-.3c.38,0,.28-1.56-.13-2.1a1.82,1.82,0,0,1-.37-.87,3.26,3.26,0,0,0-.37-1.1c-.41-.79-.5-1.9-.15-1.9.12,0,.29-.48.36-1.06l.31-2.26a3,3,0,0,1,1.07-2.08l.9-.88,0-2.09c0-2,.25-2.77.57-1.41a3.18,3.18,0,0,0,.47,1.06,5,5,0,0,1,.6,1.24c.58,1.74,1.16,2.68,1.83,3a1.4,1.4,0,0,0,.91.16c.38-.24,0-1.19-.8-2a11.76,11.76,0,0,1-2.15-3.78,2.84,2.84,0,0,0-.66-1c-.62-.67-.64-.76-.35-1.74a10.34,10.34,0,0,1,.57-1.53,7.2,7.2,0,0,0,.46-1.71,4.08,4.08,0,0,1,.6-1.66,4.12,4.12,0,0,0,.64-1.53,11.15,11.15,0,0,1,.63-1.92,7.59,7.59,0,0,0,.52-1.87,4.07,4.07,0,0,1,.32-1.27,5.91,5.91,0,0,0,.37-1.58c.11-.8.16-1.11.28-1.13Zm-190,.29a.24.24,0,0,1,.2.12c.11.17.07.35-.08.4s-.16.31.08.76a4,4,0,0,1,.35,1.55,4.54,4.54,0,0,0,.49,1.78c.27.5.43,1,.35,1a5.27,5.27,0,0,0,.27,1.7,3.34,3.34,0,0,1,.13,2.24c-.45,1.08-.21,2,.59,2.42a1.87,1.87,0,0,1,.85.75,1.36,1.36,0,0,0,.36.55A5,5,0,0,1,22.86,75a4.21,4.21,0,0,0,.53,1.64c.42.26.39,5.52,0,6-.58.7-.4,3.08.29,3.82.53.57.57.79.54,3.88,0,3.37-.29,4.65-1,4.65s-.51,1.95,0,2.71c.3.42.33.65.13.85a1.19,1.19,0,0,0-.28.73,3,3,0,0,1-.88,1.33c-.48.48-.82,1-.75,1.09a6.62,6.62,0,0,1-.3,3.92,15.48,15.48,0,0,0-.82,1.95,4.39,4.39,0,0,1-.48,1.12,3.42,3.42,0,0,0-.47.75c-.17.34-.75,1.44-1.29,2.44a8.13,8.13,0,0,0-1.17,4c-.11,1.19-.2,2.28-.2,2.41a.59.59,0,0,1-.22.4c-.25.19-.54,2.46-.31,2.46a2.09,2.09,0,0,0,.59-.22c2.42-1.22,2.57-1.27,2.71-.89a3.43,3.43,0,0,1-.68,2.1,15.42,15.42,0,0,0-.9,3.86,3.89,3.89,0,0,1-.3,1.25,5,5,0,0,0-.23,1.61c-.05,1.56-.23,1.85-.86,1.39-.36-.27-.45-.71-.47-2.29a13.42,13.42,0,0,0-.13-2.15c-.06-.11-.31.06-.57.37-.69.85-1.08.32-.79-1.08s.37-2.5.39-7.07c0-3.69-.25-5.63-.82-6.1a5.69,5.69,0,0,1-.59-1c-.24-.48-.65-1.21-.92-1.62a3.24,3.24,0,0,1-.5-1.25,1.16,1.16,0,0,0-.52-.81c-.27-.17-.5-.44-.5-.6a5.37,5.37,0,0,0-1-1.47,5.09,5.09,0,0,1-1-1.51,4.48,4.48,0,0,0-.61-1.32,2.8,2.8,0,0,1-.47-2.27,4.2,4.2,0,0,0-.92-3.46,2.76,2.76,0,0,1-.65-1.34,3.65,3.65,0,0,0-.39-1.19c-.14-.18,0-.63.31-1.24a3.16,3.16,0,0,0,.4-2.29,5.47,5.47,0,0,0-.53-1.93c-.22-.33-.29-.6-.15-.6s.32-.42.41-.93a4.82,4.82,0,0,1,.63-1.6,2.26,2.26,0,0,0,.21-2.36c-.18-.18-.14-.49.12-1a6.94,6.94,0,0,0,.54-1.59c.12-.62.62-1.3,1.77-2.43,1.43-1.39,1.59-1.65,1.47-2.29-.21-1,.25-3.56.7-3.82a.85.85,0,0,0,.38-.68A2.59,2.59,0,0,1,13,70.2a3,3,0,0,0,.62-1,7.69,7.69,0,0,1,1-1.58,10.06,10.06,0,0,0,1.15-2,3.65,3.65,0,0,1,.62-1.12,8.55,8.55,0,0,0,1.5-3.28c0-.55.57-1.19.93-1.17Zm-1.72,9.36c-.07,0-.16.12-.31.34-.31.44-.56,2.39-1,7.82a7.29,7.29,0,0,1-.41,2.18c-.17.21-.16.31,0,.31.35,0,.37,1.55,0,1.89s-.62,8.47-.61,19.37v9.68l.8.72c.81.73,1.17.87,1.38.53a38.08,38.08,0,0,0-.6-7.24c-.3-.11-.3-1.21,0-1.4a1.66,1.66,0,0,0,.38-.83,6,6,0,0,1,1.28-1.9c.75-.81,1-1.29.88-1.46s-.62.13-1.37.91a5,5,0,0,1-1.41,1.16c-.39,0-.17-4,.23-4.18a.44.44,0,0,0,.29-.39,24.1,24.1,0,0,1,2.61-3.15c2.38-2.61,3-3.49,2.4-3.49a7,7,0,0,0-1.43,1.25,6.8,6.8,0,0,1-1.44,1.25,3.53,3.53,0,0,0-1.4,1.49c0,.12-.34.39-.75.59l-.75.37V93.65c0-1.93.56-3,2.48-4.94a5.61,5.61,0,0,0,1.26-1.54.7.7,0,0,1,.31-.51,6,6,0,0,0,1.68-2.78c0-.7-.74-.64-1.12.1a6.54,6.54,0,0,1-.67,1l-1.08,1.31c-.36.45-.8.81-1,.81s-.44.28-.6.62a1,1,0,0,1-.82.62c-.52,0-.53-.07-.38-1.73a5.25,5.25,0,0,1,.78-2.65,3.77,3.77,0,0,0,.62-1.25c0-.19.11-.34.25-.34s.25-.17.25-.37a2.82,2.82,0,0,1,.83-1.18c1.56-1.52,2.2-2.58,2.1-3.47-.08-.72-.12-.76-.31-.33a2.4,2.4,0,0,1-.67.82,1,1,0,0,0-.45.65,3.92,3.92,0,0,1-1,1.33,4.38,4.38,0,0,0-1,1.26c0,.3-1,.66-1.17.45s0-.31.16-.51a7.93,7.93,0,0,0,.41-2.63c.1-2.3.5-3.55,1.22-3.83a.62.62,0,0,0,.38-.53c0-.46-.29-.49-.71-.07s-.71-.18-.46-2a7.44,7.44,0,0,0,.07-2.16c-.08-.2-.12-.3-.19-.29Zm193.05.65c-.14,0-.26,0-.26.06s-.07,4.66-.14,10.27-.19,10.38-.27,10.58a2.88,2.88,0,0,0-.07,2.13c.19.22.18.37,0,.49s-.26.78-.23,1.7,0,2.63,0,4l0,2.44-1.1-.9a6.91,6.91,0,0,1-1.6-2c-.55-1.17-1.7-2.64-2.05-2.64s-.24,1.23.22,1.69a5.86,5.86,0,0,1,.87,1.34,4.43,4.43,0,0,0,.8,1.2,1,1,0,0,1,.38.66.34.34,0,0,0,.34.34,4.91,4.91,0,0,1,1.51,1c.83.73,1.09,1.11.91,1.3-.34.34-.36,7.3,0,7.51a.86.86,0,0,1,.25.65,2.48,2.48,0,0,0,.26,1,.88.88,0,0,0,.62.48c.29,0,.36-.41.36-2a5.43,5.43,0,0,0-.25-2.13.84.84,0,0,1-.25-.64c0-.47.09-.71.71-1.91.4-.77.36-1.31-.1-1.31-.21,0-.32-.11-.25-.23a.29.29,0,0,0-.11-.39c-.33-.2-.33-2.12,0-2.12.14,0,.25-.15.25-.33a7.9,7.9,0,0,1,1.37-1.91c1.52-1.76,1.9-2.82.57-1.6a12.13,12.13,0,0,0-1.14,1.17c-.56.73-.75.5-.86-1s.31-3,.78-3c.14,0,.48-.44.75-1a10.16,10.16,0,0,1,1.4-1.93,7.63,7.63,0,0,0,1.13-1.46,6.73,6.73,0,0,1,.7-1.12,1.68,1.68,0,0,0,.35-1.43c-.15-.88-.58-1.11-.57-.31,0,.27-.11.5-.25.5s-.37.29-.5.65c-.39,1-3,4.05-3.54,4.07-.3,0-.22-3.39.1-4.15.49-1.17,1.69-3.6,2.57-5.18s1.21-3.45.53-2.88A11.86,11.86,0,0,0,213,84a25.06,25.06,0,0,1-1.46,2.63l-.51.71-.13-.83a15.41,15.41,0,0,1,.6-5.28,10.64,10.64,0,0,0,.89-2.86c0-.27-.22-.17-.75.33l-.75.72,0-1.1c0-.61,0-1.63,0-2.27a2.24,2.24,0,0,0-.21-1.32,6.42,6.42,0,0,1-.25-2.38c0-1.32-.1-2.23-.25-2.23Zm-3.67,4.56s-.06.12-.06.28a1.93,1.93,0,0,0,.53,1.06c.63.68.7.7.7.22a2.45,2.45,0,0,0-.62-1.06,2.1,2.1,0,0,0-.51-.49h-.05ZM12.71,76.23l-.1,0a.46.46,0,0,0-.1.5l.23.74a.57.57,0,0,0,.52.37c.3,0,.36-.14.23-.56-.2-.65-.52-1.09-.77-1.08Zm-2.22,4.63c-.34,0-.39.19-.29,1.07a6.5,6.5,0,0,0,1.42,3.33,4.73,4.73,0,0,1,.77,1.47,10.52,10.52,0,0,0,.71,1.67c.22.38.54.68.72.68.41,0,.72-.74.4-1a5.28,5.28,0,0,1-1-1.9,22.3,22.3,0,0,0-1-2.37c-.56-1.16-1.09-2.31-1.16-2.55a.64.64,0,0,0-.55-.44Zm23.33,2.66c.29,0,.44.95.63,3.76a10.75,10.75,0,0,0,.4,2.72c.35.44.25,5.3-.12,5.75-.49.6-.39,3.39.15,4,.4.44.43.77.28,2.58a10.39,10.39,0,0,1-.36,2.32,5.24,5.24,0,0,0-.36,1.45c-.14,1-.29,1.24-.8,1.44s-.63.32-.55,1.92c.11,2.45-.19,3.77-.92,4.05a.82.82,0,0,0-.6.81,1.39,1.39,0,0,1-.18.77.81.81,0,0,0-.19.48c0,1-.45,1.91-.91,1.91a2.84,2.84,0,0,0-1.35.88,2.28,2.28,0,0,0-.85,2,2.93,2.93,0,0,1-1,2.33,5.68,5.68,0,0,0-1,1.46c0,.15-.22.38-.48.53a1.59,1.59,0,0,0-.65.82,6.94,6.94,0,0,1-1.2,1.69c-1.8,2-2.09,2.41-2.28,3.26a2.25,2.25,0,0,1-.52,1.09,2.64,2.64,0,0,0-.54,1.25c-.23,1.15-1.13,1.56-1.42.64a19.82,19.82,0,0,1,.15-5.25,6.94,6.94,0,0,0,.34-1.55,2.9,2.9,0,0,1,.39-1.32,1.23,1.23,0,0,0,.24-.85c0-1,.68-2.51,1.12-2.51.2,0,.37-.1.37-.21s.36-.31.79-.44a1.53,1.53,0,0,0,.89-.53c.13-.4-.79-.4-1.43,0s-1.24-.08-.82-.6a3.82,3.82,0,0,0,.43-1.27,4.12,4.12,0,0,1,2.63-2.81c1.35-.63,4.07-1.94,4.22-2s0-.19-.16-.33-.32-.19-.43,0A1,1,0,0,1,27,114a1,1,0,0,0-.75.25.74.74,0,0,1-.57.25,3.29,3.29,0,0,0-1.13.38c-1.08.56-1.64.49-1.47-.19a3.94,3.94,0,0,1,.47-1.05,2.07,2.07,0,0,0,.33-1A6.92,6.92,0,0,1,26.45,110a3.57,3.57,0,0,0,1-.4l2.18-1.15a4.3,4.3,0,0,0,1.43-1c0-.26-1.09,0-2,.41-1.55.77-3.24,1.28-3.24,1,0-.08.17-.75.38-1.47a9,9,0,0,1,4.38-4.72,10,10,0,0,0,2-1.21c.55-.52.56-.55.1-.64a.87.87,0,0,0-.83.43,1.12,1.12,0,0,1-.69.53,4.32,4.32,0,0,0-1.27.5c-1.39.75-1.65.67-1.45-.43a5.68,5.68,0,0,1,.77-1.82,3.68,3.68,0,0,0,.61-1.25c0-.42,1.17-1.58,1.82-1.82s.37-.81-.32-.7c-.51.07-.55,0-.39-.62a2.18,2.18,0,0,1,.35-.83,5.83,5.83,0,0,0,.79-2.56,1.12,1.12,0,0,1,.25-.81,1.08,1.08,0,0,0,.25-.78c0-.8-.59-.65-.71.18a2.34,2.34,0,0,1-.39,1,6.29,6.29,0,0,0-.63,1.74,7.81,7.81,0,0,1-.52,1.62,10.22,10.22,0,0,0-.64,1.68A3.55,3.55,0,0,1,29,98.29c-.11,0-.2.23-.2.5a2.43,2.43,0,0,1-.22.93c-.12.24-1.2,2.45-2.39,4.92s-2.29,4.71-2.44,5a23.34,23.34,0,0,0-2.16,4.93A6.93,6.93,0,0,1,21,116.3a3.79,3.79,0,0,0-.43,1.42c-.08.82-.33,1.23-.77,1.24-.1,0-.19-.43-.19-1,0-.95-.56-1.78-1.21-1.78a1.9,1.9,0,0,1-.76-.29c-.45-.28-.44-.33.13-1.41a6.47,6.47,0,0,0,.6-1.39c0-.44,1.53-2,1.65-1.74a4.26,4.26,0,0,0,.44.74c.29.4.33.21.3-1.47,0-1.35.06-2,.29-2.13a6.63,6.63,0,0,0,1.06-1.67c.4-.81.73-1.27.73-1a.41.41,0,0,0,.37.44c.28,0,.37-.29.37-1.11a2.2,2.2,0,0,0-.25-1.26c-.32-.2-.32-1.05,0-1.16a4,4,0,0,0,.51-1.7,10,10,0,0,1,.5-2.05,2,2,0,0,0,.24-.81c0-.21.11-.38.25-.38s.25.17.25.37a.37.37,0,0,0,.37.37.34.34,0,0,0,.37-.31c0-.44-.63-1.21-.83-1s-.16-.36-.16-1a2.48,2.48,0,0,1,.75-2,5.28,5.28,0,0,0,.75-1,10.64,10.64,0,0,1,1.25-1.38,6.16,6.16,0,0,0,1.24-1.52.27.27,0,0,1,.28-.27c.44,0,1.46-1.08,1.46-1.55a.92.92,0,0,1,.48-.68,1.72,1.72,0,0,0,.65-1,1.21,1.21,0,0,1,.61-.89c.24-.06.58-.56.76-1.1a3.59,3.59,0,0,1,.62-1.23.24.24,0,0,1,.13-.07Zm170.46.11c-.38,0,.17,2.28.77,3a2.67,2.67,0,0,1,.6,1,5.6,5.6,0,0,0,1.18,1.48c1.11,1.13,1.78,1.4,2,.8a3.75,3.75,0,0,0-.73-1.45c-.45-.66-1-1.59-1.31-2.08A2.38,2.38,0,0,0,205.08,85a.68.68,0,0,1-.44-.62.86.86,0,0,0-.28-.67l-.09,0ZM9.35,87.6c-.11,0-.21.1-.27.29a7.22,7.22,0,0,0,.85,3.48,3,3,0,0,1,.47.87A3.52,3.52,0,0,0,12,93.87a1.31,1.31,0,0,0,.66,0c.27-.14.23-1-.06-1.19a.67.67,0,0,1-.25-.52,6.44,6.44,0,0,0-1.06-1.79A15.53,15.53,0,0,1,10,88.27c-.2-.45-.42-.69-.61-.68ZM191.72,88h0c.1,0,.26.25.35.56A20.67,20.67,0,0,0,194,92.44a.77.77,0,0,1,.2.58.68.68,0,0,0,.52.59,1,1,0,0,1,.65.65c.07.28.22.52.32.52s.26.47.35,1c.23,1.42.52,1.69,1.79,1.69,1,0,1.21.13,2.21,1.18s1.13,1.35,1.13,2.07a2.23,2.23,0,0,0,.22,1.12,19.09,19.09,0,0,1,1,5.14,2.08,2.08,0,0,0,.75,1.74,2.52,2.52,0,0,1,.75,1.16,9.28,9.28,0,0,0,.87,2.11,11.71,11.71,0,0,1,.87,2,8.41,8.41,0,0,0,1.51,1.75c.87.86,1.48,1.66,1.43,1.9s-.49.62-1,.86a1.57,1.57,0,0,0-1.08,1.26c-.22,1.17.18,2.5.78,2.59a3.39,3.39,0,0,1,1.21.65l.72.57-.31,4.33c-.31,4.44-.39,4.7-1.42,4.71-.43,0-.55-.19-.67-1.07a18.68,18.68,0,0,1,0-3c.09-1.21,0-1.92-.11-1.92s-.33-.56-.42-1.25a3.24,3.24,0,0,0-.4-1.38.93.93,0,0,1-.23-.69,3.5,3.5,0,0,0-.52-1.39c-.29-.47-.41-.91-.29-1a8.25,8.25,0,0,0,.38-2.49c.13-2,.1-2.28-.2-1.85a4.29,4.29,0,0,0-.52,1.22,5.4,5.4,0,0,1-.3.95c-.19.33-1.53-2.61-1.54-3.38a1.18,1.18,0,0,0-.26-.82,3.91,3.91,0,0,1-.25-1.77c0-1-.09-1.56-.25-1.47a.79.79,0,0,0-.25.61,1.14,1.14,0,0,1-.37.76c-.29.24-.37.24-.37,0a2.61,2.61,0,0,0-.45-1c-.89-1.32-1.11-2.47-1-5.11.07-1.39.08-2.28,0-2s-.23.56-.35.56-.3.45-.39,1-.25,1-.35,1-.49-.59-1.58-3a6.85,6.85,0,0,1-.41-2.3c0-.77-.11-1.39-.25-1.39s-.25.15-.25.34a1.09,1.09,0,0,1-.4.67c-.72.59-.28,2,2,6.41a17,17,0,0,1,1.18,2.66c0,.58-1,.13-2.61-1.15a6.41,6.41,0,0,0-1.92-1.21.74.74,0,0,1-.58-.25.46.46,0,0,0-.87.22c0,.69,2.1,2.52,2.89,2.52a2.85,2.85,0,0,1,1.51.75,2.55,2.55,0,0,0,1.65.75c.69,0,.88.15,1.36,1.06a5.5,5.5,0,0,1,.56,1.34,2.48,2.48,0,0,0,.52.94,5.33,5.33,0,0,1,.77,1.59,4.5,4.5,0,0,0,.56,1.3,5.63,5.63,0,0,1,.62,1.49,12.2,12.2,0,0,0,.64,1.74,11.63,11.63,0,0,1,.61,2.36,8.39,8.39,0,0,0,.51,2,39.12,39.12,0,0,1,.89,6.7,8.27,8.27,0,0,1-.14,2.55c-.27.82-1,1.18-1,.5a25,25,0,0,0-3.09-4.74,4.66,4.66,0,0,1-.81-1.15c-.26-.48-.66-1.17-.9-1.53a2.79,2.79,0,0,1-.38-1.66c.06-1-.21-1.56-1.28-2.4a11.37,11.37,0,0,1-3.25-4c-.77-1.64-1-3.49-.43-3.71.25-.1.25-.13,0-.14a.36.36,0,0,1-.31-.37,6,6,0,0,0-1.09-1.68,6.39,6.39,0,0,1-1.4-2.7,7.06,7.06,0,0,0-.52-1.64,7.58,7.58,0,0,1-.38-2c-.13-1.43-.09-1.9.24-2.4.44-.68.55-2,.18-2.25a6.39,6.39,0,0,1-.89-1.32c-.62-1.11-.66-1.37-.64-4.27a15.37,15.37,0,0,1,.24-3.36,6.55,6.55,0,0,0,.39-1.89c.24-2.31.92-4.48,1.4-4.48Zm12.1,1.08c-.72,0-.65.58.24,1.9a3.6,3.6,0,0,1,.58,1.18.31.31,0,0,0,.3.32,3.37,3.37,0,0,1,1.7,1.67.58.58,0,0,0,.38.48.56.56,0,0,1,.37.44,1,1,0,0,0,.29.59c.78.78.57-.53-.31-1.93-.13-.21-.43-.77-.67-1.25a19.48,19.48,0,0,0-1.36-2.15C204.64,89.41,204.27,89.1,203.82,89.13Zm-11,5.27-.07,1a4.18,4.18,0,0,0,.66,2.6,4.28,4.28,0,0,1,.79,2,.44.44,0,0,0,.5.5c.62,0,.63-.4,0-1.37a9.39,9.39,0,0,1-.76-1.87,14.82,14.82,0,0,0-.74-2Zm-183.3.39c-.2,0-.33.22-.21.69a7.21,7.21,0,0,0,.5,1.31,2.93,2.93,0,0,1,.33,1,2.93,2.93,0,0,0,.58,1.12,6.55,6.55,0,0,1,.74,1.21.63.63,0,0,0,.49.44c.18,0,.45.34.61.75.33.89,1.07,1,1.07.19A11.23,11.23,0,0,0,11.25,97a6,6,0,0,1-1.09-1.56c-.17-.46-.45-.7-.65-.7Zm184.56,18.68c-.1,0-.13.1-.13.28a2.44,2.44,0,0,0,1.44,1.45,2.65,2.65,0,0,1,1.1.62,2.61,2.61,0,0,0,1.28.62,3.11,3.11,0,0,1,1.29.47c.48.3.84.38,1,.23s-.78-1.22-2.05-1.83c-.45-.21-.81-.47-.81-.58s-.48-.34-1.06-.51a11.51,11.51,0,0,1-1.49-.54A1.31,1.31,0,0,0,194.07,113.47ZM5.62,117.57c.07,0,.15.12.28.33a6.72,6.72,0,0,1,.57,1.19c.56,1.84,1.1,2.64,3.5,5.23a24,24,0,0,1,2.66,3.15,1.57,1.57,0,0,0,.42.75,2.62,2.62,0,0,1,.5,1.27,2.25,2.25,0,0,0,.81,1.43l.73.62-.62,1.25a9.61,9.61,0,0,0-.77,2.74c-.25,2.48-.81,3.34-1.31,2a1.85,1.85,0,0,0-.47-.75,2,2,0,0,1-.42-1,3.44,3.44,0,0,0-.42-1.12,4,4,0,0,1-.08-1.94c.19-1.77-.09-2.48-.86-2.23-.61.19-.9-.28-1.23-2a12.75,12.75,0,0,0-.63-2.24,12.28,12.28,0,0,1-.48-1.18.62.62,0,0,0-.54-.43c-.35,0-.38.18-.24,1.16a7.52,7.52,0,0,0,.37,1.56,10.68,10.68,0,0,1,.76,2.49,6.48,6.48,0,0,0,.52,1.45,9.77,9.77,0,0,1,.66,2,2,2,0,0,0,.35,1,.88.88,0,0,1,.22.65,21.36,21.36,0,0,0,2,4.68,16.1,16.1,0,0,1,.78,2,4.82,4.82,0,0,0,.51,1.25,1.86,1.86,0,0,1,.34.68c.15.47.1.53-.28.4a2.35,2.35,0,0,1-.82-.59,18.27,18.27,0,0,0-3.85-2.73,2,2,0,0,1-.89-.62c-.7-.74-1-.79-1-.15s2.83,3.26,3.4,3.26a13.31,13.31,0,0,1,3.58,2.55c0,.1.15.19.33.19s.46.25.61.56a12.72,12.72,0,0,1,1.3,3.41,1.11,1.11,0,0,0,.5.82,1,1,0,0,1,.5.64,52.43,52.43,0,0,0,3.2,6.57,10.93,10.93,0,0,1,1.56,2.57,44.35,44.35,0,0,0,2.54,4.35c.74,1.1,1.49,1.28,2,.48.2-.32-.06-.87-1.22-2.58-2.37-3.48-2.48-3.75-2.42-5.73l.05-1.74-.52.69c-.6.81-.89.67-1.87-.87a3.83,3.83,0,0,1-.59-2.29,3,3,0,0,1,.25-1.51,1,1,0,0,0,.25-.76,1.58,1.58,0,0,1,.51-1,12.21,12.21,0,0,0,2-3.9c.06-.39-.09-.49-.83-.54s-.92,0-1,.65a9.52,9.52,0,0,1-.57,1.67c-.24.52-.61,1.44-.82,2a2.79,2.79,0,0,1-.64,1.18c-.14,0-.57-.52-1-1.25a4.58,4.58,0,0,1-.62-3.28c.06-1.24.21-2,.4-2.06a.66.66,0,0,0,.3-.62,7,7,0,0,1,.66-1.91,9.76,9.76,0,0,0,.78-2.47c.11-1,.09-1.08-.45-1-.76.11-1.39,1.28-1.75,3.25a14.86,14.86,0,0,1-.5,2.07c-.12.27-.33.82-.47,1.21l-.26.71-.45-.59a6.35,6.35,0,0,1-.78-1.77c-.18-.65-.42-1.18-.54-1.18-.29,0-.28-2.42,0-2.6a3.36,3.36,0,0,0,.39-1.45c.09-.72.2-1.64.26-2.05s.17-1.4.27-2.19a4.28,4.28,0,0,1,.37-1.56c.39-.24,2,1.74,2,2.46a3.18,3.18,0,0,0,1.88,2.41c.61.3,1.12.67,1.12.83a3.6,3.6,0,0,0,.75,1.15,3.16,3.16,0,0,1,.74,1.25,2.93,2.93,0,0,0,.49,1.12,2.72,2.72,0,0,1,.34,2.17c-.14,1.38-.12,1.44.51,1.68.36.14.66.41.66.6s.27.42.6.5c1.38.35,2.42,4.08,1.39,5a1.21,1.21,0,0,0,.13,2c.5.33.62.61.62,1.45a2.62,2.62,0,0,0,.23,1.28,16.16,16.16,0,0,1,.29,3.6c.08,4.84.35,7.42.82,7.94a1.55,1.55,0,0,1,.4.84,8.15,8.15,0,0,0,.91,2.58,5.11,5.11,0,0,1,.34,1,6.78,6.78,0,0,0,.75,1.25,4.87,4.87,0,0,1,.75,1.42,2.34,2.34,0,0,0,.49,1,2.3,2.3,0,0,1,.49,1,.84.84,0,0,0,.4.65.79.79,0,0,1,.31.82c-.08.58-.68.92-1,.57a1.31,1.31,0,0,1-.17-.73.75.75,0,0,0-.31-.67,2.62,2.62,0,0,1-.63-1.3,6.13,6.13,0,0,0-.81-1.81,2.27,2.27,0,0,1-.49-.94.57.57,0,0,0-.37-.46.7.7,0,0,1-.37-.62,2.71,2.71,0,0,0-.75-1.28,2.73,2.73,0,0,1-.75-1.24c0-.48-4.32-4.73-4.81-4.73a2.17,2.17,0,0,1-.92-.57c-1-.88-3.32-3-4.07-3.6a2.57,2.57,0,0,0-.92-.56.25.25,0,0,1-.25-.25,8.18,8.18,0,0,0-2-2.34,9.48,9.48,0,0,1-2.87-4.12c-.14-.86-.3-1.09-1-1.37-1.21-.51-1.48-1-1.55-2.68a3.08,3.08,0,0,0-.33-1.63.47.47,0,0,1-.27-.43,3.16,3.16,0,0,0-.75-1.2,3.28,3.28,0,0,1-.75-1.15,4,4,0,0,0-.37-1.09,16.52,16.52,0,0,1-.74-3c-.33-1.9-.33-2.25,0-2.86.51-1,.46-1.55-.24-2.94-.53-1.05-.63-1.67-.78-5s-.13-3.88.27-4.5.47-1.38.57-4.38c.08-2.47.11-3.28.25-3.33Zm191.8,2.1q-1.71,0,.65,2.23c1.33,1.25,1.43,1.3,2.43,1.15a1.93,1.93,0,0,1,1.54.22c.45.34,1.36.53,1.36.28s-.35-.89-.59-.89a7.27,7.27,0,0,1-1.7-1.11,8.56,8.56,0,0,0-2.06-1.27,1.61,1.61,0,0,1-.78-.38A1.31,1.31,0,0,0,197.41,119.67Zm3.5,6.74c-.62,0-.62,0,.2.75a4.13,4.13,0,0,0,1.56.9,1.76,1.76,0,0,1,.87.36c.25.4.89.23.81-.21S201.79,126.41,200.91,126.41Zm19.53.66c-.41,0-1.55,1.25-2.26,2.51a20.6,20.6,0,0,0-2.48,5.77,11.55,11.55,0,0,1-1.2,3l-.75,1.12-.17-1.5c-.09-.82-.24-2.36-.33-3.42-.12-1.39-.26-1.93-.51-1.93-.41,0-.74,1.51-.51,2.31a34,34,0,0,1,.3,3.76c.12,2.76.08,3.34-.31,4.23a6.57,6.57,0,0,1-.6,1.16,4.05,4.05,0,0,0-.47.92c-.36.9-1.15,1.72-1.35,1.4a10.44,10.44,0,0,1-.2-2,5.83,5.83,0,0,0-.27-1.94,2.75,2.75,0,0,1-.21-1.29c0-1.28-.49-2.83-.9-3s-.53,2-.38,5.32c.11,2.51.18,2.88.62,3.11s.48.44.36,1.58a6.32,6.32,0,0,1-.73,2.28,23.33,23.33,0,0,0-1.8,3.64c-.25.83-.59.43-.73-.87-.08-.72-.15-2.65-.17-4.3,0-4.09-.26-5.7-.81-5.8-.4-.08-.44.28-.43,4.81s0,5,.49,5.59a4.71,4.71,0,0,1,.65,1.67,2.18,2.18,0,0,1-.49,1.94,3.69,3.69,0,0,0-.65,1.78,1.4,1.4,0,0,1-.33,1,2.64,2.64,0,0,0-.65,1.07c-.18.48-.41,1.1-.53,1.37s-.39,1.17-.62,2a16.1,16.1,0,0,1-.61,1.88,6.3,6.3,0,0,0-.37,1.18c-.15.68-.11.8.3.8.78,0,1.5-1,1.69-2.37a5.83,5.83,0,0,1,.51-1.79,7.09,7.09,0,0,0,.61-1.73c.33-1.46.49-1.67,1.88-2.34s1.47-1.12.35-.9c-.83.17-1-.21-.44-1.08.24-.39.24-.55,0-.79-.4-.4-.39-.7,0-.7a1.46,1.46,0,0,0,.79-.5,1.65,1.65,0,0,1,1.06-.5,2.69,2.69,0,0,0,1.27-.46,14,14,0,0,1,1.78-1c1.55-.71,1.78-.91,1.61-1.36s-.28-.38-3.18,1.11c-1.61.83-2,.26-.88-1.34a2.53,2.53,0,0,0,.46-1.07c0-.23.45-.61,1.06-.9s1.55-.77,2.16-1.11a5.26,5.26,0,0,1,1.43-.62c.75,0,3.17-1.89,4-3.08.41-.63.41-.65-.1-.65a2.27,2.27,0,0,0-1.21.7,6.45,6.45,0,0,1-3,1.91,3,3,0,0,0-1.2.53,1.31,1.31,0,0,1-.8.34c-.44,0-.44-.05,0-1.3a6.69,6.69,0,0,1,1.82-2.74,5.79,5.79,0,0,1,1.83-1.44c.8,0,2.87-1.42,2.87-2,0-.13.47-.49,1.05-.81,1.09-.6,1.49-1.35.86-1.59a2.81,2.81,0,0,0-1.49.63,5.57,5.57,0,0,1-1.39.76,5.49,5.49,0,0,0-1.41,1,5.83,5.83,0,0,1-1.39,1c-.42,0-.25-.91.26-1.37a1.55,1.55,0,0,0,.5-1,6.4,6.4,0,0,1,1.8-2.2l1.8-1.7h-.8c-.91,0-.89-.25.1-1.72a3.27,3.27,0,0,0,.57-1.33,2.31,2.31,0,0,1,.5-1.12,2.29,2.29,0,0,0,.5-1.08.78.78,0,0,1,.25-.6,7.1,7.1,0,0,0,1.24-2.75c0-.13-.05-.19-.15-.18ZM6,133.66c-.42,0-.42,0-.11.85.13.35.4.64.6.64a.59.59,0,0,1,.5.37c.21.54.91.46.91-.1S6.58,133.66,6,133.66Zm187.4,11.92a12.11,12.11,0,0,1,1.78,3.46c0,.16.27.41.61.56.52.24.63.51.77,1.86a4.19,4.19,0,0,0,.34,1.59,2.65,2.65,0,0,1,.5,1.12,5,5,0,0,1,0,2.8,5.17,5.17,0,0,1-.58,1.85c-.18.12-.16.37.07.8s.27.71,0,1a5.06,5.06,0,0,0-.32,2c0,1.51-.09,1.71-.76,2.27a2.63,2.63,0,0,1-1.07.61,1.05,1.05,0,0,0-.67.45,2,2,0,0,1-.76.61.82.82,0,0,0-.37,1.11c.13.39.86,0,2.17-1.27s1.38-1.22,1.46-.78a1.73,1.73,0,0,0,.32.73,1.58,1.58,0,0,1,.22.88,1.53,1.53,0,0,0,.27.91,1.74,1.74,0,0,1,.19,1.11c-.08.83-.09.84-1.22.77a5.37,5.37,0,0,0-1.78.17,3,3,0,0,0-1.43,2.42,2.9,2.9,0,0,0,1.6,1.92c.5.19.52,1,0,1.41a1,1,0,0,0-.38.59,8.07,8.07,0,0,1-1.48,1.77,11.44,11.44,0,0,0-1.49,1.68c0,.72-2.19,1.93-3.44,1.93h-1l.1-1.17c.17-2,2.45-4.77,4.33-5.18.79-.17,1.55-.87.95-.87a4.33,4.33,0,0,0-1.27.5c-1.63.88-2.12.47-1.3-1.09a3.31,3.31,0,0,0,.37-1,4.61,4.61,0,0,1,2.07-3,7.17,7.17,0,0,0,1.41-1c.27-.33.25-.39-.18-.39a1.19,1.19,0,0,0-.81.37c-.41.49-1.25.48-1.25,0,0-.21.13-1.19.29-2.18.34-2.1,1-3.28,2.45-4.15.55-.34,1-.7,1-.81,0-.29-.94-.25-1.12.05s-1.37.36-1.37.11a24.33,24.33,0,0,1,.74-4,11.81,11.81,0,0,0,.36-2.56c.14-2,.11-2.33-.22-2.45a.6.6,0,0,1-.38-.49c0-.19-.11-.35-.25-.35s-.36.49-.29,1.31c0,.24-.06.44-.18.44a4.59,4.59,0,0,0-.34,1.93c-.18,2.92-.74,7.28-.94,7.28s-.26.48-.37,1.06-.21,1.11-.23,1.18-.13,1.25-.24,2.62a14,14,0,0,1-.38,2.74,7.15,7.15,0,0,0-.5,1.43,2.89,2.89,0,0,1-.48,1.18,4.41,4.41,0,0,0-.6,1.47,5.27,5.27,0,0,1-.8,1.77,1,1,0,0,0-.37.62,19.59,19.59,0,0,1-2.18,4.19c-.68,1-.74,1-2.55,1.26a7.45,7.45,0,0,0-2,.4,2.57,2.57,0,0,1-2.19.2c-.58-.57-.23-5.38.4-5.62a2.29,2.29,0,0,0,1.13-3.29c-.31-.52-.37-.84-.19-1a4.78,4.78,0,0,0,.59-1.73,4,4,0,0,1,.51-1.56c.1,0,.25-.33.33-.74a2.22,2.22,0,0,1,1.16-1.38,2.77,2.77,0,0,0,1.42-3.09,4.34,4.34,0,0,1,.56-2.76,6.82,6.82,0,0,0,.64-1.25,8.36,8.36,0,0,1,.62-1.25A5.14,5.14,0,0,0,186,159a1.1,1.1,0,0,1,.89-.69c.95,0,1.62-.89,1.62-2.13a4.65,4.65,0,0,1,.22-1.55,15.57,15.57,0,0,0,.9-3c.09-.45.27-.81.39-.81a.24.24,0,0,0,.23-.25,4.87,4.87,0,0,1,.75-1.28,4.5,4.5,0,0,0,.75-1.33,6.35,6.35,0,0,1,1.71-2.37Zm-183.94.67a.51.51,0,0,0-.57.5c0,.18.21.4.47.48a2.09,2.09,0,0,1,.88.76c.22.34.56.61.74.61a6,6,0,0,1,1.67,1c1.34,1,2.21,1.27,2.21.67,0-.39-.83-1.19-1.89-1.82a19.9,19.9,0,0,1-2.74-1.88A1.18,1.18,0,0,0,9.47,146.25Zm192.06,6.15c-.51,0-.63,2.61-.05,3.33a.8.8,0,0,0,.45.31c.29,0,.09-3.24-.23-3.55A.25.25,0,0,0,201.53,152.4Zm-189,0c-.18,0-.19.3-.07.85a1.29,1.29,0,0,0,1,1,5.13,5.13,0,0,0,1.11.3,5.18,5.18,0,0,1,1.43.87c1.29,1,1.42,1,1.85.5.25-.31.2-.41-.29-.6a2.59,2.59,0,0,1-.92-.61,2.25,2.25,0,0,0-1.07-.55,1.35,1.35,0,0,1-.88-.51c-.07-.19-.25-.35-.38-.35a3.09,3.09,0,0,1-1-.53c-.38-.27-.63-.4-.77-.38Zm189.82,4.86c-.34,0-.29,1.59.07,1.94.53.53.72.32.55-.64s-.3-1.31-.62-1.31Zm-16.91,11.51h-.07c-.39.14-.4,2.41,0,3.21a11.39,11.39,0,0,1,.57,1.82,5.55,5.55,0,0,0,.56,1.57c.19.23.35.25.53.07.33-.33-.17-4.06-.57-4.2-.15,0-.27-.36-.27-.68a1,1,0,0,0-.25-.74.86.86,0,0,1-.25-.66C185.73,168.95,185.63,168.79,185.49,168.79Zm-.91,2.49c-.06,0-.08.1-.08.38s.11.56.25.56c.31,0,.31-.26,0-.75C184.66,171.37,184.61,171.3,184.57,171.29Zm-2.14,2.27c-.08,0-.18.14-.37.41s-.31.62-.1.82a1.37,1.37,0,0,1,0,1.65c-.24.39-.18.6.38,1.26A2.77,2.77,0,0,1,183,179a.79.79,0,0,0,.23.61,2.11,2.11,0,0,1,.43.95c.2.8.2.8.29-.31.1-1.29-.39-4.41-.73-4.62a.85.85,0,0,1-.23-.64,2.56,2.56,0,0,0-.27-1c-.14-.25-.2-.38-.28-.37Zm8.37,12.81c-.42,0-1.84,1-1.84,1.31a.27.27,0,0,0,.31.23c.44,0,1.74-1.2,1.64-1.49C190.91,186.38,190.87,186.36,190.81,186.37Zm-39.55,2.73a.21.21,0,0,1,.19.05c.19.19.18.26,0,.26a.29.29,0,0,0-.3.28,5.28,5.28,0,0,1-.75,1.38,4.83,4.83,0,0,0-.75,1.45,2.67,2.67,0,0,1-.62,1.08,2.83,2.83,0,0,0-.62,1,4.64,4.64,0,0,1-.75,1.31,4.31,4.31,0,0,0-.75,1.37c0,.18-.1.34-.22.34s-.51.48-.86,1.06a7.17,7.17,0,0,1-3.15,3c-1,.5-1.13.63-1.2,1.57s-.29,1.24-1.21,2.18a4.86,4.86,0,0,1-1.45,1.15,5,5,0,0,0-1.46.88,2.78,2.78,0,0,0-1.31,1.75,3.33,3.33,0,0,1-1.32,1.86,7,7,0,0,1-1.33,1,6.91,6.91,0,0,0-1.31.8,3.83,3.83,0,0,1-2.75.83c-1.33,0-1.73.14-2.24.62a1.9,1.9,0,0,0-.62,1c0,.58-.68,1.09-2,1.5a16.53,16.53,0,0,0-2,.77,8.84,8.84,0,0,1-2.32.59,2.85,2.85,0,0,0-1.57.48c-.09.24-1.85.31-7.89.29-7.62,0-11.38.27-11.38.87,0,.12-.26.23-.58.23a5.71,5.71,0,0,0-1.8.62,5.25,5.25,0,0,1-1.85.6,3.65,3.65,0,0,1-1.89-.78c-.29-.29,1.6-1.12,3.17-1.4a10.8,10.8,0,0,0,2.37-.66,3.35,3.35,0,0,1,1.24-.37,2.33,2.33,0,0,0,1.15-.49,4.38,4.38,0,0,1,1.69-.66c1.76-.28,2.67-1.35,4.86-5.7a33.63,33.63,0,0,1,2.4-4.27,1.35,1.35,0,0,0,.45-.68,5.8,5.8,0,0,1,1.25-1.47,6.4,6.4,0,0,0,1.24-1.43c0-.13.14-.23.31-.23s.46-.24.64-.52.48-.49,1.18-.36c1.07.2,1.66-.11,2.31-1.21.89-1.52,3.62-2.75,4.15-1.89s2.3-.13,3-1.4a2.4,2.4,0,0,1,1.79-1.32,6.76,6.76,0,0,0,1.47-.58,2,2,0,0,1,1.73,0,2.72,2.72,0,0,0,1,.36c.62.12.93,0,1.57-.59a2.91,2.91,0,0,1,1.15-.73.64.64,0,0,0,.5-.25c.26-.42,1.27-.28,1.74.25.82.9,3,.6,4.41-.63a2.57,2.57,0,0,1,1.21-.62c.26,0,.48-.1.48-.22a3.66,3.66,0,0,1,1.62-.54,3.93,3.93,0,0,0,1.62-.52c0-.11.29-.2.64-.2a6.91,6.91,0,0,0,4.39-2,3.69,3.69,0,0,1,1.33-1Zm-76.68,1.08a4.39,4.39,0,0,1,1,.64,8.32,8.32,0,0,0,2,1,8,8,0,0,1,1.43.59,7.57,7.57,0,0,0,1.83.45,6.83,6.83,0,0,1,1.86.49,5,5,0,0,0,1.66.37c3.26.32,3.66.44,4.64,1.44s2.13,1.27,3.21.57a2.5,2.5,0,0,1,1.92-.22,5.23,5.23,0,0,1,1.58.39,9.12,9.12,0,0,0,2.17.5,4.62,4.62,0,0,1,3.42,1.66c1.33,1.2,1.65,1.38,2.55,1.37.57,0,1.07-.13,1.12-.28.21-.62,1.71-.6,3.08,0a14.81,14.81,0,0,0,2,.8c.38.09.68.26.68.37s.33.27.72.36a2.53,2.53,0,0,1,1.15.63c.41.45.35.55-1.5,2.36-2.2,2.16-2.76,2.3-2.65.69a4.68,4.68,0,0,0-.57-2.41,8.61,8.61,0,0,1-.64-1.62c0-.4-.49-.32-.66.11a.77.77,0,0,0,.11.68,6.47,6.47,0,0,1,.54,1.74,4.35,4.35,0,0,0,.53,1.57,1.47,1.47,0,0,1,.23,1,2.66,2.66,0,0,1-2,2.23c-.77.18-1.12,0-1.37-.83a4.61,4.61,0,0,0-.66-1.22,2.16,2.16,0,0,1-.46-.91.56.56,0,0,0-.36-.45c-.38-.15-.28.42.18,1,.34.44,0,1.19-.38.87a7.87,7.87,0,0,0-1.58-.66c-1.39-.45-2.34-1.19-2.34-1.81a3.21,3.21,0,0,0-.47-1.17,6,6,0,0,1-.64-1.79c-.17-1.06-1.14-2.35-1.77-2.35-.41,0-.5.88-.11,1.12a1.38,1.38,0,0,1,.25.93,5.39,5.39,0,0,0,.53,1.87,3.31,3.31,0,0,1,.43,1.19,5.14,5.14,0,0,1-2.6-.78.89.89,0,0,0-.53-.34c-.46,0-1.5-1.25-2.2-2.62-.38-.75-.84-1.36-1-1.36-.39,0-.43.3-.1.64a3.4,3.4,0,0,1,.41,1.23l.18,1-.52-.47a18.19,18.19,0,0,0-2.09-1.38,5.1,5.1,0,0,1-1.92-1.65c-.19-.41-.4-.6-.46-.43-.12.37-.64.4-1.31.06l-1-.5a2.67,2.67,0,0,0-1-.25,2.56,2.56,0,0,1-1.13-.41c-.34-.22-.69-.34-.77-.26s.15.28.51.45.66.42.66.57.59.54,1.31.87a9.61,9.61,0,0,1,1.8,1,6.56,6.56,0,0,0,1.49.86,13.58,13.58,0,0,1,2,1.1,27.28,27.28,0,0,0,5.83,2.75,1.15,1.15,0,0,1,.77.37,1.1,1.1,0,0,0,.73.37,3,3,0,0,1,1.23.6,4.85,4.85,0,0,0,1.64.75,2.31,2.31,0,0,1,1.14.52,1,1,0,0,0,.61.37,2.16,2.16,0,0,1,.9.46,5.9,5.9,0,0,0,1.49.75,4,4,0,0,1,1.43.86c.57.61.52,1.08-.37,3.09a3.84,3.84,0,0,1-.41.79l-2.08-.89a4.13,4.13,0,0,0-1.15-.34,1.46,1.46,0,0,1-.81-.5,1.76,1.76,0,0,0-1.32-.5,7.89,7.89,0,0,1-3.41-.92,2.05,2.05,0,0,0-.93-.33c-.24,0-.44-.11-.44-.25s.17-.25.37-.25.37-.09.37-.2,1.44-.8,2-.8a4.1,4.1,0,0,0,1.1-.35c.43-.19,1-.43,1.28-.53.88-.32-.09-.44-1.2-.16-.57.15-1.51.34-2.1.42s-1.06.26-1.06.38-.21.23-.47.23a2.44,2.44,0,0,0-1.14.53c-.55.43-.78.48-1.22.26a11.8,11.8,0,0,0-1.66-.58,7.39,7.39,0,0,1-1.37-.47,6.92,6.92,0,0,0-1.19-.47c-.51-.17-.88-.4-.8-.51a4.63,4.63,0,0,1,1.56-.52,6.56,6.56,0,0,0,1.67-.52,1.48,1.48,0,0,1,.81-.21c.32,0,.57-.11.57-.25s.23-.25.52-.25.48-.13.41-.31c-.19-.57-3.08-.1-5.1.82-1.31.6-1.56.6-1.56,0a2.18,2.18,0,0,0-1.56-1.54c-.54,0-2.92-2.39-2.92-2.94a3.29,3.29,0,0,0-1.43-2.15,15.36,15.36,0,0,1-3.23-3.82,11.06,11.06,0,0,0-.86-1.47,4.25,4.25,0,0,1-.7-1.42.69.69,0,0,0-.25-.54c-.27-.17-.35-1.12-.09-1.12ZM167,193.32c-.18,0-.36.17-.65.67a8.4,8.4,0,0,0-.68,1.44c-.1.33-.32.93-.5,1.34-.73,1.72-.91,2.35-.76,2.6a.46.46,0,0,0,.88-.24,2.38,2.38,0,0,1,.23-.93,13.74,13.74,0,0,0,1-2.47,4.9,4.9,0,0,1,.49-1.12c.4-.75.43-1,.15-1.19A.38.38,0,0,0,167,193.32Zm-23.39,1.83a13.8,13.8,0,0,0-4,2,2.84,2.84,0,0,1-.89.48,4.73,4.73,0,0,0-1.16.65,2.06,2.06,0,0,1-1.51.5c-.43-.11-.64,0-.89.47a4.58,4.58,0,0,1-2.69,1.87c-.6,0-.64-.18-.32-1.56.12-.53.12-1,0-1.07-.39-.24-1.22.39-1.22.92a2.33,2.33,0,0,1-.5,1.15,2.46,2.46,0,0,0-.5,1.27c0,1.18-3.75,4-5.29,4-.44,0-.44-.05.08-1.06.3-.58.71-1.34.9-1.68a9.42,9.42,0,0,0,1.27-3.2c-.12-.62-.68-.62-.92,0a8.06,8.06,0,0,1-.87,1.44,3.23,3.23,0,0,0-.64,1.25,3.92,3.92,0,0,1-.46,1.26,8,8,0,0,0-.65,1.69,1.51,1.51,0,0,1-.53,1,.57.57,0,0,0-.35.49c0,.19-.31.47-.68.61a4.35,4.35,0,0,0-1.06.58,5.4,5.4,0,0,1-2.14.83,5.9,5.9,0,0,1,.68-2.43c.11,0,.21-.17.21-.37a9.21,9.21,0,0,1,.75-2c.91-1.92.92-2.07.1-2.22-.45-.09-.69,0-.78.28a3.15,3.15,0,0,1-.45.78,3.59,3.59,0,0,0-.47,1.3,6.82,6.82,0,0,1-.53,1.62,3.22,3.22,0,0,0-.36,1.13,6.88,6.88,0,0,1-2,3.57c-.91.83-1.11.9-2.12.78s-1.13-.08-1.34.53c-.28.8-2.58,2.34-5.51,3.67-.93.43-1.21.95-.62,1.18,1.11.45,3.64-.71,5.23-2.41a2.89,2.89,0,0,1,1.34-.92,10.4,10.4,0,0,0,3.58-1.8c.14-.18,2.47-1.44,6.1-3.29a29.47,29.47,0,0,0,2.78-1.58,3.53,3.53,0,0,1,1-.56,14.4,14.4,0,0,0,2-.89c1.7-.87,1.83-.89,5.35-1,3.31-.13,4.33-.31,3.92-.72a18.38,18.38,0,0,0-3.21-.12,12.79,12.79,0,0,1-2.9-.12,19.34,19.34,0,0,1,2.68-1.49,18,18,0,0,0,2-1.2,21.49,21.49,0,0,1,2-1.23c.48-.24,1.32-.72,1.87-1.05s1.22-.71,1.49-.84a4.55,4.55,0,0,0,1.1-.88,2.12,2.12,0,0,1,.87-.65c.15,0,.41-.22.58-.5.27-.44.25-.5-.21-.5Zm34.93,1.62a.93.93,0,0,0-.7.2,2.57,2.57,0,0,1-1.13.17c-1.31,0-1.2.4.17.61a7,7,0,0,1,1.8.53c.78.41,1.55.47,1.55.13,0-.52-.32-1-.66-1a.56.56,0,0,1-.48-.33A.63.63,0,0,0,178.55,196.76ZM103,200.18c-.34,0-.29.65.12,1.41a14.41,14.41,0,0,1,.78,2,8.1,8.1,0,0,0,.68,1.69c.5.62.66-.1.29-1.32-.6-2-1.37-3.65-1.8-3.79l-.07,0Zm21.55,9.09a6.63,6.63,0,0,0-2.53.2c0,.14.22.27.59.29a6.38,6.38,0,0,1,2.94,1,2.29,2.29,0,0,0,1.25.38,3.14,3.14,0,0,0,2.37-.43,6,6,0,0,1,2.09-.46c1.84-.16,2-.23,1.78-.65-.1-.17-.68-.26-1.25-.26s-1.15.08-1.25.24c-.21.33-2.94.32-3.28,0a8.46,8.46,0,0,0-2.7-.31Zm-34.16.63a6.59,6.59,0,0,1,2.56.73,3.59,3.59,0,0,0,1.49.48A10.68,10.68,0,0,1,98,212a6.22,6.22,0,0,0,1.55.45,2.8,2.8,0,0,1,1.18.38,7.6,7.6,0,0,0,2,.62c2,.45,2.44.84,1.72,1.63a1.62,1.62,0,0,1-2.06.19c-.23-.23-.36-.23-.6,0-.39.39-.46.37-1.16-.21a3.82,3.82,0,0,0-1.56-.65c-.53-.08-1-.24-1-.34s-.37-.24-.82-.32a6.34,6.34,0,0,1-2-.9,5.28,5.28,0,0,0-1.48-.78,1.86,1.86,0,0,1-.82-.37,1.78,1.78,0,0,0-.81-.37A4.45,4.45,0,0,1,90.11,210C90.11,209.93,90.23,209.9,90.44,209.9ZM118,212.13c-.33,0-.53,0-.53.12s.36.37.81.55,1.15.48,1.56.68a7.66,7.66,0,0,0,2.24.44c.82,0,1.55.1,1.62.11a1.91,1.91,0,0,0,.62-.16c.47-.18.46-.21-.12-.54A22.84,22.84,0,0,0,118,212.13ZM114.26,214c-.31,0-.49.09-.49.35,0,.11.3.28.67.38a4.87,4.87,0,0,1,1.35.65,2.61,2.61,0,0,0,1.14.49,1.83,1.83,0,0,1,.83.24c.48.31.68.31.87,0,.09-.14,0-.32-.3-.4-.67-.23-2.59-1.06-3.4-1.47a2,2,0,0,0-.67-.23Z" style="fill:#2c5aa0;stroke:#2c5aa0;stroke-width:0.25px"/><path d="M50.83,164.49V50.5l1.76-.86,119.8,114.85c0,10.28-57.75,3-58.26,11.66l-.69,11.92-1.51.69c-3.49-5.46-11.62-8.48-16.31-9.08-4.13-.56-18.59-2.45-30.21-2.45-8.74,0-14.59-2.41-14.59-12.74Z" style="fill:#2c5aa0"/><path d="M50.83,164.49V50.5l1.76-.86,119.8,114.85c0,10.28-57.75,3-58.26,11.66l-.69,11.92-1.51.69c-3.49-5.46-11.62-8.48-16.31-9.08-4.13-.56-18.59-2.45-30.21-2.45-8.74,0-14.59-2.41-14.59-12.74Z" style="fill:none;stroke:#2c5aa0;stroke-linecap:round;stroke-linejoin:round;stroke-width:1.5656861066818237px"/><path d="M52.55,163.63v-114H174.15v114c0,10.28-5.81,12.74-14.54,12.74-11.62,0-26.12,1.89-30.25,2.45-4.65.6-12.22,3.61-15.71,9.08-3.49-5.46-11.62-8.48-16.31-9.08-4.13-.56-18.59-2.45-30.21-2.45-8.74,0-14.59-2.41-14.59-12.74Z" style="fill:#fff"/><path d="M52.55,163.63v-114H174.15v114c0,10.28-5.81,12.74-14.54,12.74-11.62,0-26.12,1.89-30.25,2.45-4.65.6-12.22,3.61-15.71,9.08-3.49-5.46-11.62-8.48-16.31-9.08-4.13-.56-18.59-2.45-30.21-2.45-8.74,0-14.59-2.41-14.59-12.74h0Z" style="fill:none"/><path d="M113.64,185.41c-4.24-4.91-11.71-7.5-16.11-8.07-6.8-.92-19.81-2.46-30.4-2.46-9.55,0-13.1-3-13.1-11.25V51.13H172.66v112.5c0,8.2-3.54,11.25-13.05,11.25-10.63,0-23.64,1.54-30.45,2.47C125,177.89,117.84,180.46,113.64,185.41Z" style="fill:#2c5aa0"/><path d="M171.17,52.62v111c0,7.3-2.92,9.76-11.56,9.76-10.74,0-23.81,1.55-30.63,2.48a28.28,28.28,0,0,0-15.35,7.37c-4.62-4.45-11.63-6.82-15.89-7.37-6.84-.93-19.91-2.48-30.61-2.48-4.24,0-7-.61-8.8-1.91-.7-.52-2.81-2.08-2.81-7.85v-111H171.17m3-3H52.55v114h0c0,10.33,5.85,12.74,14.59,12.74,11.62,0,26.08,1.89,30.21,2.45,4.69.6,12.82,3.61,16.31,9.08,3.49-5.46,11.06-8.48,15.71-9.08,4.13-.56,18.63-2.45,30.25-2.45,8.74,0,14.54-2.45,14.54-12.74v-114Z" style="fill:#fff"/><path d="M52.55,163.63v-114H174.15v114c0,10.28-5.81,12.74-14.54,12.74-11.62,0-26.12,1.89-30.25,2.45-4.65.6-12.22,3.61-15.71,9.08-3.49-5.46-11.62-8.48-16.31-9.08-4.13-.56-18.59-2.45-30.21-2.45-8.74,0-14.59-2.41-14.59-12.74Z" style="fill:none"/><path d="M97.68,49.64V97H54.5l-.17,31.39H97.68v50.53s8.26.07,15.76,9.2a22.18,22.18,0,0,1,15.63-9.21V128.34h43.32L172,97H129.07V49.64Z" style="fill:#fff"/><path d="M52.55,163.63v-114H174.15v114c0,10.28-5.81,12.74-14.54,12.74-11.62,0-26.12,1.89-30.25,2.45-4.65.6-12.22,3.61-15.71,9.08-3.49-5.46-11.62-8.48-16.31-9.08-4.13-.56-18.59-2.45-30.21-2.45-8.74,0-14.59-2.41-14.59-12.74Z" style="fill:none;stroke:#2c5aa0;stroke-linecap:round;stroke-linejoin:round;stroke-width:2.151554584503174px"/></svg>