<svg xmlns="http://www.w3.org/2000/svg" xmlns:xlink="http://www.w3.org/1999/xlink" viewBox="0 0 180 264"><defs><linearGradient id="a" x1="264.69" y1="-193.44" x2="264.85" y2="-171.62" gradientTransform="matrix(0.73, 0, 0, -0.54, -137.29, -27.26)" gradientUnits="userSpaceOnUse"><stop offset="0" stop-color="#4a0000"/><stop offset="1" stop-color="#ffcf00"/></linearGradient><linearGradient id="b" x1="318.38" y1="-100.93" x2="332.1" y2="-88.07" gradientTransform="matrix(0.64, 0, 0, -0.61, -176.91, 12.63)" xlink:href="#a"/><linearGradient id="c" x1="333.49" y1="-94.28" x2="345.55" y2="-82.98" gradientTransform="matrix(0.63, 0, 0, -0.62, -181.33, 17.75)" xlink:href="#a"/><linearGradient id="d" x1="173.61" y1="-256.73" x2="184.41" y2="-246.6" gradientTransform="matrix(0.78, 0, 0, -0.5, -111.91, -58.07)" xlink:href="#a"/><linearGradient id="e" x1="264.69" y1="-193.44" x2="264.85" y2="-171.62" gradientTransform="matrix(0.73, 0, 0, -0.54, -137.29, 32.24)" xlink:href="#a"/><linearGradient id="f" x1="318.38" y1="-100.93" x2="332.1" y2="-88.07" gradientTransform="matrix(0.64, 0, 0, -0.61, -176.91, 72.13)" xlink:href="#a"/><linearGradient id="g" x1="333.49" y1="-94.28" x2="345.55" y2="-82.98" gradientTransform="matrix(0.63, 0, 0, -0.62, -181.33, 77.25)" xlink:href="#a"/><linearGradient id="h" x1="173.61" y1="-256.73" x2="184.41" y2="-246.6" gradientTransform="matrix(0.78, 0, 0, -0.5, -111.91, 1.43)" xlink:href="#a"/><linearGradient id="i" x1="264.69" y1="-193.44" x2="264.85" y2="-171.62" gradientTransform="matrix(0.73, 0, 0, -0.54, -137.29, 91.74)" xlink:href="#a"/><linearGradient id="j" x1="318.38" y1="-100.93" x2="332.1" y2="-88.07" gradientTransform="matrix(0.64, 0, 0, -0.61, -176.91, 131.63)" xlink:href="#a"/><linearGradient id="k" x1="333.49" y1="-94.28" x2="345.55" y2="-82.98" gradientTransform="matrix(0.63, 0, 0, -0.62, -181.33, 136.75)" xlink:href="#a"/><linearGradient id="l" x1="173.61" y1="-256.73" x2="184.41" y2="-246.6" gradientTransform="matrix(0.78, 0, 0, -0.5, -111.91, 60.93)" xlink:href="#a"/></defs><title>Guernsey</title><path d="M88.81,2.87s-4,9.69-.44,15.31C95,9.37,88.81,2.87,88.81,2.87Z" style="fill:#efbd31;stroke:#000;stroke-width:0.5px"/><path d="M82.54,5.2a10.9,10.9,0,0,1,7.07,9.1c.88,7.2-.86,9.13-.86,9.13S81.48,19.92,82.54,5.2Z" style="fill:#efbd31;stroke:#000;stroke-width:0.5px"/><path d="M91.6,23.63a5,5,0,0,1,5.21-1.24c3,1.15,4.73,1.41,8.09-1.28a5.46,5.46,0,0,1-3.36-.66C99.69,19.48,97.13,17.75,91.6,23.63Z" style="fill:#efbd31;stroke:#000;stroke-width:0.5px"/><path d="M87.75,34.12a5.54,5.54,0,0,1-3.12-1.94c-.87-1.44-3.37-1.69-3.37-1.69s5.25-2.37,7,1.06A4.43,4.43,0,0,1,87.75,34.12Z" style="fill:#efbd31;stroke:#000;stroke-width:0.5px"/><path d="M89.92,21.51s-3.89-11,4.6-18.65C94.52,2.86,100.18,14.53,89.92,21.51Z" style="fill:#efbd31;stroke:#000;stroke-width:0.5px"/><path d="M87.88,34.88s-.16-9.3,9.78-7.45A23.93,23.93,0,0,0,87.88,34.88Z" style="fill:#efbd31;stroke:#000;stroke-width:0.5px"/><path d="M87.89,33.71s-.71-6,3.45-9.28,10.43-4.07,9.81-13.26a10.45,10.45,0,0,1-4.51,3.89C93.37,16.65,87.1,21.07,87.89,33.71Z" style="fill:#efbd31;stroke:#000;stroke-width:0.5px"/><path d="M90,261l49.69-23.36C177.44,219.47,176,187.13,176,187.13V33.82H4v153.3s-1.48,32.35,36.28,50.53Z" style="fill:#de2119;stroke:#000"/><path d="M88.25,27s-.71-9.19-7.42-11a8.57,8.57,0,0,0-4.89.51S77.11,22.22,88.25,27Z" style="fill:#efbd31;stroke:#000;stroke-width:0.5px"/><path d="M73.4,25.57s3.89-4.42,9-2.12,5.5,4,5.5,5.44c-3.12.54-7.75-.8-11.16-2.43A8.31,8.31,0,0,0,73.4,25.57Z" style="fill:#efbd31;stroke:#000;stroke-width:0.5px"/><path d="M93.24,6.84s1.82,5.38-.83,9.27-2.49,6-2.49,6c-.53-2.52,1.06-5.41,2.2-7.06C93.43,13.15,93.24,6.84,93.24,6.84Zm-5.1,21.66s2-6.32,5.72-8.66a15.89,15.89,0,0,0,4.95-4.38s0,2.14-4.26,4.68S88.13,28.45,88.13,28.49ZM85.31,10.43s2.89,7.32,3.24,12.72l.09,0c.93-6.36-3.33-12.76-3.33-12.76h0M87.64,28.6c-4.82-4.68-9.57-3.19-9.57-3.19s-.1.47.48.33c1-.25,6.33.28,8.89,3.34C87.44,29.08,87.74,29.18,87.64,28.6Zm.54-2c-.59-2.76-2.86-4.56-5.24-6-.53-.29-1.22-.52-1.38-.35a.25.25,0,0,0,0,.4s4.54,2.28,5.88,5.81C87.47,26.4,87.64,26.93,88.17,26.57Z"/><path d="M93.74,94.87c-.58.89,1,4.82,3.47,4.72a9.54,9.54,0,0,1-1.44-5.26l-2,.54Z" style="fill:blue;stroke:#650000;stroke-width:0.5375000238418579px"/><path d="M87.63,90.61c-.89.12-3,5.29.39,7.13a8.87,8.87,0,0,1,1.72-5.11L88,91.2h0l-.34-.59Z" style="fill:blue;stroke:#650000;stroke-width:0.5375000238418579px"/><path d="M87.21,87.53c-.86-.86-4.59,1.63-4.44,5.34a6.71,6.71,0,0,1,5-2.28l-.57-3.06Z" style="fill:blue;stroke:#650000;stroke-width:0.5375000238418579px"/><path d="M91.52,84.53c-.06-1.16-3.31-2.51-5-.18a5.77,5.77,0,0,1,3.85,2.43l1.16-2.25Z" style="fill:blue;stroke:#650000;stroke-width:0.5375000238418579px"/><path d="M156.95,95.35a2.27,2.27,0,0,0,.78,2,9.76,9.76,0,0,1,1.18,2.38s1.78-4.68,1.33-5.31S157.06,95.32,156.95,95.35Z" style="fill:blue;stroke:#650000;stroke-width:0.5375000238418579px"/><path d="M147.55,93.41c-.88-.16-2.56,3.71-1.16,6.37A7.61,7.61,0,0,1,149,95.36l-1.45-2Z" style="fill:blue;stroke:#650000;stroke-width:0.5375000238418579px"/><path d="M143.23,92.25c-.69-.74-3.67,1.41-3.54,4.63a5.13,5.13,0,0,1,4-2l-.45-2.65Z" style="fill:blue;stroke:#650000;stroke-width:0.5375000238418579px"/><path d="M145.49,87.28c-.47-1-3.82-.17-4.48,2.93a4.69,4.69,0,0,1,4.27-.22l.21-2.7Z" style="fill:blue;stroke:#650000;stroke-width:0.5375000238418579px"/><path d="M34.3,85.11c.32-1.09-2.18-4.1-4.48-2.93a8,8,0,0,1,2.7,4.33l1.78-1.4Z" style="fill:blue;stroke:#650000;stroke-width:0.5375000238418579px"/><path d="M24.71,91.9c-.84-1-4.34,1.81-4.13,6a5.71,5.71,0,0,1,4.72-2.55l-.59-3.49Z" style="fill:blue;stroke:#650000;stroke-width:0.5375000238418579px"/><path d="M25,85.93c-.36-1.39-4.46-1.2-5.86,2.61a5.3,5.3,0,0,1,5.07.8L25,85.93Z" style="fill:blue;stroke:#650000;stroke-width:0.5375000238418579px"/><path d="M29.19,97.21a2.47,2.47,0,0,0,.45,2.2,10.9,10.9,0,0,1,.79,2.64s2.47-4.11,2.13-4.84S29.3,97.21,29.19,97.21Z" style="fill:blue;stroke:#650000;stroke-width:0.5375000238418579px"/><path d="M19,50c0-1.47-3.93-3-6.2,0a6.32,6.32,0,0,1,4.61,2.88L19,50Z" style="fill:blue;stroke:#650000;stroke-width:0.5375000238418579px"/><path d="M14.93,55.8c-.84-1-4.34,1.81-4.13,6a5.71,5.71,0,0,1,4.72-2.55l-.59-3.49Z" style="fill:blue;stroke:#650000;stroke-width:0.5375000238418579px"/><path d="M29.2,49.45c.38-1.38-2.92-4.56-5.84-2.71A8.18,8.18,0,0,1,27,51.48l2.25-2Z" style="fill:blue;stroke:#650000;stroke-width:0.5375000238418579px"/><path d="M33.87,54.49c.66-.79-.58-4.94-3-5.21a9.87,9.87,0,0,1,1,5.44l2.07-.23Z" style="fill:blue;stroke:#650000;stroke-width:0.5375000238418579px"/><path d="M47,59.35c-2.47-2.71,0-7.66,2.18-5.55-1.16-2,.74-3.63,1.6-2.61-.4-1.65,1.42-2.74,2.31-1.22-.32-1.84,2.38-2.91,3.08-.9,0-1.81,2.68-3.23,3.26-.59.51-2,3.45-2.3,3.7.59.86-1.68,3.06-1.56,3.19.88,1-1.15,3.41.57,3,2.6,1.52-.31,3.38,2.59,1.52,4.74,3.29-1.66,4.06,3.71,2.07,6.14,1,.6,1.12.07,2,.52A19,19,0,0,0,79,65.46c1.37,0,6.38-.15,7.41-.3A31.27,31.27,0,0,0,90.5,64c1.75-.54,4.29-.56,6.6-1.09,1.83-.19,53.32.79,54.8.64s3.64-1.49,3.53-3.13-1.82-2.82-3.53-3a108.64,108.64,0,0,0-12.08.15,11.55,11.55,0,0,0-5,2.08,20.54,20.54,0,0,0-2.22,2.42c-.72.57-2.74.66-2.74-.09,0-.49-.17.09-.67.28-.65.38-3.56.49-3.43,0s0-.72-.78-.15c-.57.45-4.6.61-5.34.17.44-.7.45-.66-.76-.08-.77.32-3.94.57-4.17,0,0-.48-.39-.25-.84-.11-3.6.89-3.94-.14-3.37-.59s1.43-3,.52-2.85-6.61,1.19-8.54,1.49-15.95,0-17.89-.15a4.71,4.71,0,0,1-4.22-4.32c-.2-3.93,3.19-4.91,5.24-5.51a49.66,49.66,0,0,1,9.23-1.49c2.05,0,7.9.68,9.49.09a57.58,57.58,0,0,1,7.81-2.38c2-.18,7.8.47,10.56,3.6-1.44.62-2.11,1-.48.42,1.48-.3,7.84-1.55,9.32-1.88,5.13-.21,3.78.54,1.28,1.13-.84,2.52-8.37,6-10.76,6.48a37.5,37.5,0,0,1-8.61-.08c-1.14-.08-6.53-.33-8.49-1.54a26.71,26.71,0,0,0-11.6-3.32c-2.4,0-9.26.72-9.23,3,0,4,6.38,4.17,9.11,4s9.57-.45,11.51-1.19,6.13-.93,8.4-.93,5.61.48,6.63.33,3.42-.18,4.56-.93a12.58,12.58,0,0,1,6.12-1.52c2.51,0,21.11-.68,23.61-.53,3.63,0,6.19,3.72,6.24,6.9,0,1.49-.75,3.69-1.41,4,1.13.1,3.94.4,4.87.58,1.74.33,4.57,2.14,4.9,3.8a13.86,13.86,0,0,0-5.39-2c-.38,0-41-.06-44.17,0,8.68,1,15.31,7.27,17,10.88,1.48,2.23,5.13,1.34,6.49,1s3-1.64,4.1-2.68a4.42,4.42,0,0,1,3.72-1,1.55,1.55,0,0,1,1.4,2.53c-.68.89.11.53,1.94.53a5.54,5.54,0,0,1,4.5,2c-1,.89-1.54.16-.06.31s3.27,2.71,2.16,3.44c-1,.45-1.25.29,0,.43,1.87.15,2.38,1.29,2.62,3.32-1.58.27-.8-.19,0,.55s2,4-.91,4.17c-1-.45-1-.53-.79.48s-.35,3.54-1.95,3.54c-2.21.4-4.22-.74-4.44-2.08s-.2,2.58-3.33,3.2c-3,.62-4.53-1-4.76-1.72s-.11-.15-1.25-.3-2.57-.16-3.19-1.93a2.25,2.25,0,0,1,2.25-2.6c.91-.15,1.17-1.27.48-1.42s-.11-2.38,1.37-1.79,4.9.74,5.7,1.49,1-.6-.23-1.79S143,83.61,141,84.51c-4.78,2.27-12.76,1.93-14.13,1.64s-5.32.51-7.18-4.91c-1.51-5.54-7.25-8.28-9.87-8.58-12.93-1.15-12.22-.27-3.84.11-.06,1-.37,3.15,1,3.46,2.28-.3,7-1.25,8.16-.35s2.28,1.64,2.05,3.72.11,1.49-.91,2.38-.57,2.68,1,3.27a9.45,9.45,0,0,1,3.3,2.23c1,.89-.46,2.68-1.37,2.08s-.91-.6-1,.6-1.25,3.44-3.17,3.61c-.4-.14-.29-.76-.25-1.23.11-1-.38,1.29-1,1.94-.38.44-3.6,1.29-4.52.85.41-.93.17-.55-.63-.11-.78.29-5,.84-3.11-1,.49-.69-.67.86-1.3,1.13s-3,.51-3-.39c-.79.66-2.67.66-3,.15-.57-.6-.62.45-1.65.6s-3.25-.15-3.36-1.34.23-.45-1-.3c-3.05,1.91-4.56-.74-4.56-1.64a5.89,5.89,0,0,1,.23-2.53c.34-.6-2.12-.77-1.37-1.95.85-1.43,1.74-2.48,3.42-2.22.8.15.68-.3.34-.89s.91-.89,2.39-.3a5.65,5.65,0,0,1,3,3.42c.46,1.34,4,.3,5.47.45s1.59-2.23.68-3S98.36,82,97.34,81.08s-.34-4,.57-4.76c5.31-3.38,2.39-4.46.46-4.17S91.45,74.33,89.86,76s-14,9.66-15.13,10.55-2.8,1.11-3.48.07-1.14-.3-1,1.19a6.27,6.27,0,0,1-5.38,7.34,4.79,4.79,0,0,1-2.26-.94c-.66,3.14-3.6,3.45-6.26,3.14,0-.37.5-1.06.2-.8-.88,1.08-3.58,1-5.89.8-.15-.66.8-1.45.34-1-.78,1.38-2.11,1.13-4.28,1,0-.29,1-1.26.52-.68-.95,1-2.92.67-4.46.7-.18-.22.79-1.76-.1-.74s-2.66,1-4.38.78c-.31-.73.36-.74.54-1.2.46-.74-.23,0-.8,0s-1.37.15-1.71-.6-.15.74-.48,1.15A3.38,3.38,0,0,1,34,98.2c-1.14.3-4.1.6-4.56-.74A2.49,2.49,0,0,1,29,94.78c.46-.74-2.17,1.44-3.3,1.64-3.34.61-3.76-4.32-2.28-4.76s1.25-1.19.46-1.79-1.25-3-.23-3.72a5.22,5.22,0,0,1,4.9-.3c.88.57,2.76,2.52,2.39,1A2.67,2.67,0,0,1,32,84.31c.63-.55,2.57-.69,3.09.49,1.2,2.74,2.05,3.92,3.53,3.87a59.64,59.64,0,0,1,8.67-1.74c1.61-.36,10.12-1.15,10.12-1.89-5.11,1.67-7.17-.49-7.74-.34s-2-.48-2-.9c0-.89,1.29-.79-.54-.49a3.69,3.69,0,0,1-3-1.21c-.15-.55,1.21-2.44,1.7-4-1.18-.3-3.78,1.7-4.63,3.46-.6-.68-.84-.06-3,.43a5.05,5.05,0,0,1-3.56-.18c-.91-.45-4.48-3-2.76-3.33A7.84,7.84,0,0,0,30.69,78c-1.25-.51-2.44-1.49-2.07-1.76-.32-.45.36-.45-.14-.54-.68-.15-2.37-1.31-1.93-1.76-.43-.27-1.46-.68-1.89-.89a4.85,4.85,0,0,1-1.71-2.74c-.73.07-2.3-1.25-1.59-1.64-1.2-.84-2.22-2.22-1.42-2.67-.7-.52-1.19-1.47-.7-1.11-.73-.84-.5-1.73.07-1.73s.34-2.38-.68-2.38-2.67.75-3.87,0c-1-.71-1.82-3.87-.91-5.21s2.73-2.83,3.65-2.68.46.45.23-.89S19,49.72,20,49.38a5.34,5.34,0,0,1,4.22.45c.68.6.91.6.91-.45,0-.73.88-1.11,1.66-1.31a2.94,2.94,0,0,1,2.78.56c.71,1,1.14,2.08.23,3s-.12.14,1.36-.16c1-.3,2.67.09,3,1.05s.68,2.83-.34,3.72-2.51,3.13-1.71,3.87,3.3,4,3.87,4.47,1.25,1.49,2.16,1.34,1.94-.3,2.73-.45c3.17-.6,4.59-.91.53-.79.91-1.22,2.82-1.57,3.65-1.79-.73-1,2-3.22,2-3.52Z" style="fill:#ffcd00;stroke:#650000;stroke-width:0.6004188656806946px"/><path d="M47,71.43c-2.18-.32-7.71,4.19-5.93,9.81" style="fill:none;stroke:#650000;stroke-width:0.6497849822044373px"/><path d="M47.32,66.4C44.37,84,62.46,77.18,62.58,71.25" style="fill:none;stroke-width:0.6413679718971252px;stroke:url(#a)"/><path d="M61.55,73.79c.24,2.31.38,8.77-2.15,10.42a9.82,9.82,0,0,1-8.18,1.05" style="fill:none;stroke:#650000;stroke-width:0.5963778495788574px"/><path d="M55.94,77.37c-.25,2.27-2.66,7.93-7.37,7.16" style="fill:none;stroke:#650000;stroke-width:0.6004188656806946px"/><path d="M17.89,53A4.93,4.93,0,0,1,22.1,56.7c.53,1.61.88,2.53.88,2.53" style="fill:none;stroke:#650000;stroke-width:0.6004188656806946px"/><path d="M20,66.1a6.12,6.12,0,0,0,3,0" style="fill:none;stroke:#650000;stroke-width:0.6004188656806946px"/><path d="M21,68.58a7.17,7.17,0,0,0,4.66-.46" style="fill:none;stroke:#650000;stroke-width:0.5462744235992432px"/><path d="M26.21,74c6.36,0,9.06-8.47,9.06-8.47" style="fill:none;stroke-opacity:0.26110002398490906;stroke-width:0.6108912229537964px;stroke:url(#b)"/><path d="M39.15,70c-1.76,4.36-1.58,4.36-3.87,5.28L33,76.22" style="fill:none;stroke:#650000;stroke-opacity:0.08920001238584518;stroke-width:0.7400511503219604px"/><path d="M31.95,78.52a11.37,11.37,0,0,0,4-2.07" style="fill:none;stroke:#650000;stroke-width:0.6004188656806946px"/><path d="M29.31,52c-1.41,1.61-1.23,4.59-1.23,4.59" style="fill:none;stroke:#650000;stroke-width:0.6004188656806946px"/><path d="M58.31,52.11c.35,3-1.05,4.59-1.93,4.59s-1.86,1.11-1.32,2.91" style="fill:none;stroke:#650000;stroke-width:0.6004188656806946px"/><path d="M62,51.65a7.05,7.05,0,0,0-1.41,6.2c.53,1.84,0,2.37,0,2.37" style="fill:none;stroke:#650000;stroke-width:0.6004188656806946px"/><path d="M43.2,68.64c-2.81.71-4,5.57-2.46,8.18" style="fill:none;stroke:#650000;stroke-width:0.7477850914001465px"/><path d="M69,61.75H67.1s-1.23,2.53-3.34,1.84-.18,0-.18,0" style="fill:none;stroke:#650000;stroke-width:0.6004188656806946px"/><path d="M58.66,59.65c3,.07,2.4,2.34.18,2.11.18,2.76-3.33,2.41-3,.3-2.11.06-3-2.73.09-2.34" style="fill:none;stroke:#650000;stroke-width:0.6004188656806946px"/><path d="M129.89,61.76c.62-1.78,3.47-3.4,3.47-3.4h0" style="fill:none;stroke:#650000;stroke-width:0.6004188656806946px"/><path d="M125.75,61.66a10.89,10.89,0,0,1,3.47-3.4" style="fill:none;stroke:#650000;stroke-width:0.6004188656806946px"/><path d="M119.7,61.86a14.9,14.9,0,0,0,3-2c.67-.62,2-1.78,2-1.78" style="fill:none;stroke:#650000;stroke-width:0.6004188656806946px"/><path d="M114.45,61.79a26.87,26.87,0,0,0,3.37-1.72,9.18,9.18,0,0,0,2-1.81" style="fill:none;stroke:#650000;stroke-width:0.5715607404708862px"/><path d="M115.58,56.17a12.86,12.86,0,0,1-6.34-4.2" style="fill:none;stroke:#650000;stroke-width:0.6004188656806946px"/><path d="M122.87,50.21c-2.9,1.14-8.8.65-9,.65" style="fill:none;stroke:#650000;stroke-width:0.6004188656806946px"/><path d="M70.37,86.33c.87-2.91,2.49-3.56,4.53-4.51s5.31-3.26,3.33-1.48-4.84,2.91-5.84,3.56S70.79,86,71.29,86.66" style="fill:none;stroke:#650000;stroke-width:0.6004188656806946px"/><path d="M66.21,75.32c1.86,2.91.71,7-1.64,8.1" style="fill:none;stroke:#650000;stroke-linecap:round;stroke-width:0.6004188656806946px"/><path d="M72.41,65.28c3,1.18,3.13,4,3.56,5.61-1.06-.46-1.84-.24-2.64-.58" style="fill:none;stroke:#650000;stroke-width:0.6004188656806946px"/><path d="M71.22,66.88c2,2.65,2.83,4.27,2.95,5.19.19,1.6.2,5.55-4.64,5.49.45-1.18,1-4.28.25-5.53" style="fill:none;stroke:#650000;stroke-width:0.5484867691993713px"/><path d="M70.08,74.87a4.13,4.13,0,0,1-2.76,4" style="fill:none;stroke:#650000;stroke-width:0.6004188656806946px"/><path d="M57,64.15c-.13,2.27-3.4,2.75-4.53.81-.88-1.3-1.38-1.94-2-2.1s-.56-2-.69-2.32a9.35,9.35,0,0,0-.69-1.72" style="fill:none;stroke:#650000;stroke-width:0.6051551699638367px"/><path d="M52.29,64.8c1.52,2.5,5.15,1,6.08,2s-.91,4.49-1.49,6.5a3.9,3.9,0,0,1-5.47.33c.6-2.39.65-7.5.76-7.66l.12-1.17Z" style="fill:blue;stroke:#650000;stroke-width:0.6322236657142639px"/><path d="M25,50.18c.25,1.46-.12,1.78-.5,3.08a9.52,9.52,0,0,0,.12,3.56" style="fill:none;stroke:#650000;stroke-width:0.6004188656806946px"/><path d="M24.37,90.82a14.37,14.37,0,0,1,3.84,0" style="fill:none;stroke:#650000;stroke-width:0.6004188656806946px"/><path d="M29,94.65a9.05,9.05,0,0,1,2.48-2.43" style="fill:none;stroke:#650000;stroke-width:0.6004188656806946px"/><path d="M42.91,96.37c.62-.81.62-3.4.62-3.4" style="fill:none;stroke:#650000;stroke-width:0.6004188656806946px"/><path d="M47.43,96.35a6.15,6.15,0,0,0,1-3.34" style="fill:none;stroke:#650000;stroke-width:0.6004188656806946px"/><path d="M51,96.29a7.61,7.61,0,0,0,.83-3.84" style="fill:none;stroke:#650000;stroke-width:0.6004188656806946px"/><path d="M56.66,96.49a8.09,8.09,0,0,0,.62-3.24" style="fill:none;stroke:#650000;stroke-width:0.6004188656806946px"/><path d="M96.82,91.35c-2.23-.49-3.59,2.43-3.59,2.43" style="fill:none;stroke:#650000;stroke-width:0.6004188656806946px"/><path d="M99.75,90.88a8.73,8.73,0,0,1-2,4" style="fill:none;stroke:#650000;stroke-width:0.6004188656806946px"/><path d="M103.27,90.7c-.12,1.78-2.11,4.21-2.11,4.21" style="fill:none;stroke:#650000;stroke-width:0.6004188656806946px"/><path d="M107.64,90a8.17,8.17,0,0,1-2.11,4.14" style="fill:none;stroke:#650000;stroke-width:0.6004182696342468px"/><path d="M110.86,89.16c.12,2.1-1,5.34-1.74,6" style="fill:none;stroke:#650000;stroke-width:0.6004188656806946px"/><path d="M114.71,90.06a6.23,6.23,0,0,1,0,2.75" style="fill:none;stroke:#650000;stroke-width:0.6004188656806946px"/><path d="M90.47,85.64a4.13,4.13,0,0,1,2.35,1.94" style="fill:none;stroke:#650000;stroke-width:0.6004188656806946px"/><path d="M87.93,89.7c.78-2.55,4.15-1.3,4.56-.62" style="fill:none;stroke:#650000;stroke-width:0.6004188656806946px"/><path d="M151.54,78a8.63,8.63,0,0,0-3.1.49" style="fill:none;stroke:#650000;stroke-width:0.6004188656806946px"/><path d="M157.3,80.19a16,16,0,0,1-3.72.81" style="fill:none;stroke:#650000;stroke-width:0.6004188656806946px"/><path d="M159.53,83.93c-1.49-.16-2.6-.16-2.6-.16" style="fill:none;stroke:#650000;stroke-width:0.6004188656806946px"/><path d="M162.42,87.45a27.86,27.86,0,0,0-3.84,0" style="fill:none;stroke:#650000;stroke-width:0.6004188656806946px"/><path d="M161.28,92a2.94,2.94,0,0,0-2-1.62" style="fill:none;stroke:#650000;stroke-width:0.6004188656806946px"/><path d="M146.67,95a5.06,5.06,0,0,1,4.2-3.5h1.36" style="fill:none;stroke:#650000;stroke-width:0.6004188656806946px"/><path d="M144.62,90.72a20,20,0,0,1,3.84-.65" style="fill:none;stroke:#650000;stroke-width:0.6004188656806946px"/><path d="M48.2,83.08a11.82,11.82,0,0,0,2.66-3.47" style="fill:none;stroke:#650000;stroke-width:0.6004188656806946px"/><path d="M66.33,54.76c-1.49,1.46-1.61,1.62-1.61,1.62" style="fill:none;stroke:#650000;stroke-width:0.6004188656806946px"/><path d="M67.82,57.51a8.22,8.22,0,0,1-2.09.08" style="fill:none;stroke:#650000;stroke-width:0.6004188656806946px"/><path d="M60.76,56.42c1.47-.51,4.88-.08,4.83,1.1,0,1.45-1.33,1.54-4.86.17l0-1.06v-.2Z" style="fill:none;stroke:#650000;stroke-width:0.6803303956985474px"/><path d="M56.14,56.57c.18-1.72-3.38-3.42-4.25-2.46-1.06,1.59,1.94,3,2.74,3s.3.09.3.09" style="fill:none;stroke:#650000;stroke-width:0.552643358707428px"/><path d="M66.71,69.47c1.12,2.05,1.45,5.54.18,7.24" style="fill:none;stroke:#650000;stroke-opacity:0.30000001192092896;stroke-width:0.6004188656806946px"/><path d="M65.81,63a10.74,10.74,0,0,0-.22,6.75" style="fill:none;stroke:#650000;stroke-width:0.6004188656806946px"/><path d="M49.86,63.89a2.31,2.31,0,0,1-2,.59" style="fill:none;stroke:#650000;stroke-width:0.6004188656806946px"/><path d="M62.67,74.17c1.12.59,2.7,4.11,2.47,5.28l-.22,1.17" style="fill:none;stroke:#650000;stroke-opacity:0.30000001192092896;stroke-width:0.6004188656806946px"/><path d="M62.22,75.64c.67,1.76,1.57,4.4,1.35,5.28l-.22.88" style="fill:none;stroke:#650000;stroke-opacity:0.30000001192092896;stroke-width:0.6004188656806946px"/><path d="M58.17,77.4c.45,1.76.22,4.7-.45,5.28l-.67.59" style="fill:none;stroke:#650000;stroke-opacity:0.30000001192092896;stroke-width:0.6004188656806946px"/><path d="M57,77.69c-.67,2.05-1.35,5-1.35,5" style="fill:none;stroke:#650000;stroke-opacity:0.30000001192092896;stroke-width:0.6004188656806946px"/><path d="M47.16,65.07A38.92,38.92,0,0,1,44,68.59" style="fill:none;stroke:#650000;stroke-linecap:round;stroke-opacity:0.10189998894929886;stroke-width:1.298580288887024px"/><path d="M46.26,72.11A21.3,21.3,0,0,0,43.57,75" style="fill:none;stroke:#650000;stroke-opacity:0.2994000017642975;stroke-width:0.6004188656806946px"/><path d="M47.61,75c-1.8-1.17-3.82.88-3.82.88" style="fill:none;stroke:#650000;stroke-opacity:0.2994000017642975;stroke-width:0.6004188656806946px"/><path d="M36.43,78.19c-.45,1.17-3.82,2.05-3.82,2.05" style="fill:none;stroke:#650000;stroke-opacity:0.09549997001886368;stroke-width:0.7400511503219604px"/><path d="M64,56.82l-.22,1.33" style="fill:none;stroke:#650000;stroke-linecap:round;stroke-width:1.1660256385803223px"/><path d="M54.79,54.42a14.79,14.79,0,0,1-.73,2" style="fill:none;stroke:#650000;stroke-linecap:round;stroke-width:0.945871889591217px"/><path d="M44.23,64.78C40.09,66.84,39.38,68.65,40,73" style="fill:none;stroke:#650000;stroke-width:0.6004188656806946px"/><path d="M72.35,58.86c-1.18.51-1,3.16-1,3.16h0" style="fill:none;stroke:#600;stroke-width:0.7191062569618225px"/><path d="M47.15,55.17c1.27.84.76,3.37.76,3.37" style="fill:none;stroke:#600;stroke-width:0.6307441592216492px"/><path d="M38.82,95.89c-.09,2.52-2.61,1.86-3.68,1.86l.93-1.65a.94.94,0,0,0,.8-.1l2-.12Z" style="fill:#390000;fill-opacity:0.5986999869346619"/><path d="M60.93,74.21a9.48,9.48,0,0,1,.16,3.33,8.63,8.63,0,0,1-1.34,3.91,5.38,5.38,0,0,0-1,1.59l-3-1.93c.16.61,0-.45.14-.66a4.23,4.23,0,0,0,.58-2c.06-.94.84-2.52,1.29-1l3.14-3.26Z" style="fill:#390000;fill-opacity:0.10000000149011612"/><path d="M50.42,82.11a10.22,10.22,0,0,0,3.07-.5c1.16-.37.09-.56,1-1.4.26-.29.5-1.3.73-1.62L54,78.51c-.16,1-1.18.19-1.29.32-.46.42-.41.16-1,.33s-1.09-.07-.23.23l-1.09,2.72Z" style="fill:#390000;fill-opacity:0.10000000149011612"/><path d="M115.91,75.83a12.63,12.63,0,0,1-1.86,4.68,13.52,13.52,0,0,1-5.59,4.68,12.51,12.51,0,0,1-2.14.4l-.33-6.8a5.21,5.21,0,0,0,.94-.15,5.92,5.92,0,0,0,2.66-2.28c.66-1.17,1-2.89.59-.22Z" style="fill:#390000;fill-opacity:0.10000000149011612"/><path d="M28.69,76c4.87-1.09,7.58-7.21,7.58-7.21" style="fill:none;stroke-opacity:0.26110002398490906;stroke-width:0.8440872430801392px;stroke:url(#c)"/><path d="M23,70.53c4.93.27,8.57-5,8.57-5" style="fill:none;stroke-opacity:0.26110002398490906;stroke-width:0.8440872430801392px;stroke:url(#d)"/><path d="M140.74,84.09l.24-.63c-.53,1.39-.4.75,1.45-.63h3.63a14.26,14.26,0,0,1,3.63.63c.83.44,1.6,1.09,2.42,1.58" style="fill:none;stroke:#700;stroke-opacity:0.10189998894929886;stroke-width:1.5359550714492798px"/><path d="M46,79.28c-.16.7,1.75,1.66,2.87,1.7,1.17-.69,1.21-.95,2-2.1.21-.38,0-.12.12-.53l-2.48-2.25a1.48,1.48,0,0,0-.6.51c-.39.57-.38.9-1,1.22s-.6.1-.19.31l-.42.65-.37.48Z" style="fill:#390000;fill-opacity:0.10000000149011612"/><path d="M67.81,79.17a6.16,6.16,0,0,0,1.38-2.43,15.09,15.09,0,0,0,.51-5.32c-.09-.6-.2-1.16-.35-1.74l-2.72,1.17c.07.25.12.5.16.76a6.5,6.5,0,0,1-.26,2.54c-.3.76-.9,1.35.05.5Z" style="fill:#390000;fill-opacity:0.10000000149011612"/><path d="M69.68,67.25a3.84,3.84,0,0,1,2.17,1.06,11.39,11.39,0,0,1,2.58,4.22c.16.58.29,1.16.4,1.77l-2.82,1c0-.27-.1-.52-.16-.78a4.88,4.88,0,0,0-1.25-2c-.57-.43-1.32-.49-.16-.47Z" style="fill:#390000;fill-opacity:0.10000000149011612"/><path d="M65.32,82.66c.75-1.16,1.37-.48,1.59-1.92a15.3,15.3,0,0,0-1-6.45,19.22,19.22,0,0,0-1.05-1.88L61.39,75a8,8,0,0,1,.47.81,6.62,6.62,0,0,1,.45,3.09c-.18,1,0,1.35.85,1.68l2.16,2.06Z" style="fill:#390000;fill-opacity:0.10000000149011612"/><path d="M157.91,88.4a14.26,14.26,0,0,1,3.63.63c.83.44,1.6,1.09,2.42,1.58" style="fill:none;stroke:#700;stroke-opacity:0.10189998894929886;stroke-width:1.5359550714492798px"/><path d="M150.81,79.3a14.05,14.05,0,0,1,3.66-.3c.88.22,1.74.67,2.61.94" style="fill:none;stroke:#700;stroke-opacity:0.10189998894929886;stroke-width:1.5359550714492798px"/><path d="M127.3,83.11a7,7,0,0,1-2.37-.44c-.55-.36-1.06-.91-1.59-1.31" style="fill:none;stroke:#700;stroke-opacity:0.10189998894929886;stroke-width:1.1571691036224365px"/><path d="M136.76,65.94c-4.86-.14-8.49-.22-11.74-.3l-11.76-.31" style="fill:none;stroke:#700;stroke-opacity:0.10189998894929886;stroke-width:1.2733162641525269px"/><path d="M97.68,69.74A7.29,7.29,0,0,1,100,69c.61.06,1.24.32,1.85.43" style="fill:none;stroke:#700;stroke-opacity:0.10189998894929886;stroke-width:1.1571685075759888px"/><path d="M22.79,63.55a5.08,5.08,0,0,1-1.21,1.64,2.34,2.34,0,0,1-2.06.49c-.24-.08-.23-1.86-.45-2l.43-1.21a1.39,1.39,0,0,0,.29.16,1.34,1.34,0,0,0,1.1-.37c.36-.36.7-1.06.2,0l1.7,1.25Z" style="fill:#390000;fill-opacity:0.10000000149011612"/><path d="M52,64.05a7.47,7.47,0,0,1-2,4.93" style="fill:none;stroke:#650000;stroke-width:0.5920295119285583px"/><path d="M50.18,62.55a10.4,10.4,0,0,0,.27,6.32" style="fill:none;stroke:#650000;stroke-width:0.653590977191925px"/><path d="M59.59,66.66A7.71,7.71,0,0,0,61,71.82" style="fill:none;stroke:#650000;stroke-width:0.5920295119285583px"/><path d="M61.61,65.49a10,10,0,0,1-1,6.17" style="fill:none;stroke:#650000;stroke-width:0.653590977191925px"/><path d="M48.25,94.18c-.13,2.58-3.63,1.9-5.13,1.91l.42-.68c.18,0,1.48-.84,2-1.11l2.72-.12Z" style="fill:#390000;fill-opacity:0.10000000149011612"/><path d="M51.65,93c-.11,3.64-3.1,2.68-4.37,2.69l.36-1a20.28,20.28,0,0,0,1.7-1.56L51.65,93Z" style="fill:#390000;fill-opacity:0.10000000149011612"/><path d="M57.11,93.18c-.15,5.41-4.26,4-6,4l.49-1.42a28.8,28.8,0,0,0,2.33-2.32l3.19-.25Z" style="fill:#390000;fill-opacity:0.10000000149011612"/><path d="M62.52,93.09c-.15,5.41-4.26,4-6,4L57,95.67a28.8,28.8,0,0,0,2.33-2.32l3.19-.25Z" style="fill:#390000;fill-opacity:0.10000000149011612"/><path d="M43,93.09c-.13,5.41-3.63,4-5.13,4l.42-1.42a27,27,0,0,0,2-2.32L43,93.09Z" style="fill:#390000;fill-opacity:0.10000000149011612"/><path d="M45.58,78.32c-.48,1.37-1.28,2.43-1.15,3.29l-.75-.32c.58.2-.66-2.22-1-1.76l.7-.48.16-.26.35-.16,1.66-.29Z" style="fill:#390000;fill-opacity:0.5986999869346619"/><path d="M72.87,63.46a14.83,14.83,0,0,1,3,.7,3.65,3.65,0,0,1-3.29,1.29" style="fill:none;stroke:#650000;stroke-width:0.6004188656806946px"/><path d="M115.92,86.49a9.09,9.09,0,0,1-2.75.14c-.68-.22-1.34-.63-2-.9" style="fill:none;stroke:#700;stroke-opacity:0.10189998894929886;stroke-width:1.241290807723999px"/><path d="M105.08,90.14a27.85,27.85,0,0,0,5.28.69c1.36-.13,2.73-.5,4.1-.69" style="fill:none;stroke:#700;stroke-opacity:0.10189998894929886;stroke-width:1.904725193977356px"/><path d="M77.18,84.87c-2.13.69-3.13.73-3.83.13" style="fill:none;stroke:#650000;stroke-linecap:round;stroke-width:0.6004188656806946px"/><path d="M79.55,83.18c-1.87.69-2.94.92-3.87.36" style="fill:none;stroke:#650000;stroke-linecap:round;stroke-width:0.5801470279693604px"/><path d="M82.72,81.11c-1.24.69-2,.92-2.57.36" style="fill:none;stroke:#650000;stroke-linecap:round;stroke-width:0.47307807207107544px"/><path d="M84.91,79.51c-1.52.69-2.39.92-3.15.36" style="fill:none;stroke:#650000;stroke-linecap:round;stroke-width:0.5233758687973022px"/><path d="M24.84,50.18c.25,1.46-.12,1.78-.5,3.08a9.52,9.52,0,0,0,.12,3.56" style="fill:none;stroke:#650000;stroke-width:0.6004188656806946px"/><path d="M29.55,52c-1.41,1.61-1.23,4.59-1.23,4.59" style="fill:none;stroke:#650000;stroke-width:0.6004188656806946px"/><path d="M18.07,52.71a5,5,0,0,1,4.32,3.67c.54,1.61.9,2.53.9,2.53" style="fill:none;stroke:#650000;stroke-width:0.6075344681739807px"/><path d="M62.74,63.34c.12,3.08-5.83,5.34-5.7.65" style="fill:none;stroke:#650000;stroke-width:0.6004188656806946px"/><path d="M93.74,154.37c-.58.89,1,4.82,3.47,4.72a9.54,9.54,0,0,1-1.44-5.26l-2,.54Z" style="fill:blue;stroke:#650000;stroke-width:0.5375000238418579px"/><path d="M87.63,150.11c-.89.12-3,5.29.39,7.13a8.87,8.87,0,0,1,1.72-5.11L88,150.7h0l-.34-.59Z" style="fill:blue;stroke:#650000;stroke-width:0.5375000238418579px"/><path d="M87.21,147c-.86-.86-4.59,1.63-4.44,5.34a6.71,6.71,0,0,1,5-2.28L87.21,147Z" style="fill:blue;stroke:#650000;stroke-width:0.5375000238418579px"/><path d="M91.52,144c-.06-1.16-3.31-2.51-5-.18a5.77,5.77,0,0,1,3.85,2.43L91.52,144Z" style="fill:blue;stroke:#650000;stroke-width:0.5375000238418579px"/><path d="M156.95,154.85a2.27,2.27,0,0,0,.78,2,9.76,9.76,0,0,1,1.18,2.38s1.78-4.68,1.33-5.31S157.06,154.82,156.95,154.85Z" style="fill:blue;stroke:#650000;stroke-width:0.5375000238418579px"/><path d="M147.55,152.91c-.88-.16-2.56,3.71-1.16,6.37a7.61,7.61,0,0,1,2.61-4.42l-1.45-2Z" style="fill:blue;stroke:#650000;stroke-width:0.5375000238418579px"/><path d="M143.23,151.75c-.69-.74-3.67,1.41-3.54,4.63a5.13,5.13,0,0,1,4-2l-.45-2.65Z" style="fill:blue;stroke:#650000;stroke-width:0.5375000238418579px"/><path d="M145.49,146.78c-.47-1-3.82-.17-4.48,2.93a4.69,4.69,0,0,1,4.27-.22l.21-2.7Z" style="fill:blue;stroke:#650000;stroke-width:0.5375000238418579px"/><path d="M34.3,144.61c.32-1.09-2.18-4.1-4.48-2.93a8,8,0,0,1,2.7,4.33l1.78-1.4Z" style="fill:blue;stroke:#650000;stroke-width:0.5375000238418579px"/><path d="M24.71,151.4c-.84-1-4.34,1.81-4.13,6a5.71,5.71,0,0,1,4.72-2.55l-.59-3.49Z" style="fill:blue;stroke:#650000;stroke-width:0.5375000238418579px"/><path d="M25,145.43c-.36-1.39-4.46-1.2-5.86,2.61a5.3,5.3,0,0,1,5.07.8l.79-3.42Z" style="fill:blue;stroke:#650000;stroke-width:0.5375000238418579px"/><path d="M29.19,156.71a2.47,2.47,0,0,0,.45,2.2,10.9,10.9,0,0,1,.79,2.64s2.47-4.11,2.13-4.84S29.3,156.71,29.19,156.71Z" style="fill:blue;stroke:#650000;stroke-width:0.5375000238418579px"/><path d="M19,109.45c0-1.47-3.93-3-6.2,0a6.32,6.32,0,0,1,4.61,2.88L19,109.45Z" style="fill:blue;stroke:#650000;stroke-width:0.5375000238418579px"/><path d="M14.93,115.3c-.84-1-4.34,1.81-4.13,6a5.71,5.71,0,0,1,4.72-2.55l-.59-3.49Z" style="fill:blue;stroke:#650000;stroke-width:0.5375000238418579px"/><path d="M29.2,108.95c.38-1.38-2.92-4.56-5.84-2.71A8.18,8.18,0,0,1,27,111l2.25-2Z" style="fill:blue;stroke:#650000;stroke-width:0.5375000238418579px"/><path d="M33.87,114c.66-.79-.58-4.94-3-5.21a9.87,9.87,0,0,1,1,5.44l2.07-.23Z" style="fill:blue;stroke:#650000;stroke-width:0.5375000238418579px"/><path d="M47,118.85c-2.47-2.71,0-7.66,2.18-5.55-1.16-2,.74-3.63,1.6-2.61-.4-1.65,1.42-2.74,2.31-1.22-.32-1.84,2.38-2.91,3.08-.9,0-1.81,2.68-3.23,3.26-.59.51-2,3.45-2.3,3.7.59.86-1.68,3.06-1.56,3.19.88,1-1.15,3.41.57,3,2.6,1.52-.31,3.38,2.59,1.52,4.74,3.29-1.66,4.06,3.71,2.07,6.14,1,.6,1.12.07,2,.52A19,19,0,0,0,79,125c1.37,0,6.38-.15,7.41-.3a31.27,31.27,0,0,0,4.1-1.19c1.75-.54,4.29-.56,6.6-1.09,1.83-.19,53.32.79,54.8.64s3.64-1.49,3.53-3.13-1.82-2.82-3.53-3a108.64,108.64,0,0,0-12.08.15,11.55,11.55,0,0,0-5,2.08,20.54,20.54,0,0,0-2.22,2.42c-.72.57-2.74.66-2.74-.09,0-.49-.17.09-.67.28-.65.38-3.56.49-3.43,0s0-.72-.78-.15c-.57.45-4.6.61-5.34.17.44-.7.45-.66-.76-.08-.77.32-3.94.57-4.17,0,0-.48-.39-.25-.84-.11-3.6.89-3.94-.14-3.37-.59s1.43-3,.52-2.85-6.61,1.19-8.54,1.49-15.95,0-17.89-.15a4.71,4.71,0,0,1-4.22-4.32c-.2-3.93,3.19-4.91,5.24-5.51a49.66,49.66,0,0,1,9.23-1.49c2.05,0,7.9.68,9.49.09a57.58,57.58,0,0,1,7.81-2.38c2-.18,7.8.47,10.56,3.6-1.44.62-2.11,1-.48.42,1.48-.3,7.84-1.55,9.32-1.88,5.13-.21,3.78.54,1.28,1.13-.84,2.52-8.37,6-10.76,6.48a37.5,37.5,0,0,1-8.61-.08c-1.14-.08-6.53-.33-8.49-1.54a26.71,26.71,0,0,0-11.6-3.32c-2.4,0-9.26.72-9.23,3,0,4,6.38,4.17,9.11,4s9.57-.45,11.51-1.19,6.13-.93,8.4-.93,5.61.48,6.63.33,3.42-.18,4.56-.93a12.58,12.58,0,0,1,6.12-1.52c2.51,0,21.11-.68,23.61-.53,3.63,0,6.19,3.72,6.24,6.9,0,1.49-.75,3.69-1.41,4,1.13.1,3.94.4,4.87.58,1.74.33,4.57,2.14,4.9,3.8a13.86,13.86,0,0,0-5.39-2c-.38,0-41-.06-44.17,0,8.68,1,15.31,7.27,17,10.88,1.48,2.23,5.13,1.34,6.49,1s3-1.64,4.1-2.68a4.42,4.42,0,0,1,3.72-1,1.55,1.55,0,0,1,1.4,2.53c-.68.89.11.53,1.94.53a5.54,5.54,0,0,1,4.5,2c-1,.89-1.54.16-.06.31s3.27,2.71,2.16,3.44c-1,.45-1.25.29,0,.43,1.87.15,2.38,1.29,2.62,3.32-1.58.27-.8-.19,0,.55s2,4-.91,4.17c-1-.45-1-.53-.79.48s-.35,3.54-1.95,3.54c-2.21.4-4.22-.74-4.44-2.08s-.2,2.58-3.33,3.2c-3,.62-4.53-1-4.76-1.72s-.11-.15-1.25-.3-2.57-.16-3.19-1.93a2.25,2.25,0,0,1,2.25-2.6c.91-.15,1.17-1.27.48-1.42s-.11-2.38,1.37-1.79,4.9.74,5.7,1.49,1-.6-.23-1.79S143,143.11,141,144c-4.78,2.27-12.76,1.93-14.13,1.64s-5.32.51-7.18-4.91c-1.51-5.54-7.25-8.28-9.87-8.58-12.93-1.15-12.22-.27-3.84.11-.06,1-.37,3.15,1,3.46,2.28-.3,7-1.25,8.16-.35s2.28,1.64,2.05,3.72.11,1.49-.91,2.38-.57,2.68,1,3.27a9.45,9.45,0,0,1,3.3,2.23c1,.89-.46,2.68-1.37,2.08s-.91-.6-1,.6-1.25,3.44-3.17,3.61c-.4-.14-.29-.76-.25-1.23.11-1-.38,1.29-1,1.94-.38.44-3.6,1.29-4.52.85.41-.93.17-.55-.63-.11-.78.29-5,.84-3.11-1,.49-.69-.67.86-1.3,1.13s-3,.51-3-.39c-.79.66-2.67.66-3,.15-.57-.6-.62.45-1.65.6s-3.25-.15-3.36-1.34.23-.45-1-.3c-3.05,1.91-4.56-.74-4.56-1.64a5.89,5.89,0,0,1,.23-2.53c.34-.6-2.12-.77-1.37-1.95.85-1.43,1.74-2.48,3.42-2.22.8.15.68-.3.34-.89s.91-.89,2.39-.3a5.65,5.65,0,0,1,3,3.42c.46,1.34,4,.3,5.47.45s1.59-2.23.68-3-3.42-3.42-4.44-4.32-.34-4,.57-4.76c5.31-3.38,2.39-4.46.46-4.17s-6.91,2.18-8.51,3.81-14,9.66-15.13,10.55-2.8,1.11-3.48.07-1.14-.3-1,1.19a6.27,6.27,0,0,1-5.38,7.34,4.79,4.79,0,0,1-2.26-.94c-.66,3.14-3.6,3.45-6.26,3.14,0-.37.5-1.06.2-.8-.88,1.08-3.58,1-5.89.8-.15-.66.8-1.45.34-1-.78,1.38-2.11,1.13-4.28,1,0-.29,1-1.26.52-.68-.95,1-2.92.67-4.46.7-.18-.22.79-1.76-.1-.74s-2.66,1-4.38.78c-.31-.73.36-.74.54-1.2.46-.74-.23,0-.8,0s-1.37.15-1.71-.6-.15.74-.48,1.15A3.38,3.38,0,0,1,34,157.7c-1.14.3-4.1.6-4.56-.74a2.49,2.49,0,0,1-.46-2.68c.46-.74-2.17,1.44-3.3,1.64-3.34.61-3.76-4.32-2.28-4.76s1.25-1.19.46-1.79-1.25-3-.23-3.72a5.22,5.22,0,0,1,4.9-.3c.88.57,2.76,2.52,2.39,1A2.67,2.67,0,0,1,32,143.81c.63-.55,2.57-.69,3.09.49,1.2,2.74,2.05,3.92,3.53,3.87a59.64,59.64,0,0,1,8.67-1.74c1.61-.36,10.12-1.15,10.12-1.89-5.11,1.67-7.17-.49-7.74-.34s-2-.48-2-.9c0-.89,1.29-.79-.54-.49a3.69,3.69,0,0,1-3-1.21c-.15-.55,1.21-2.44,1.7-4-1.18-.3-3.78,1.7-4.63,3.46-.6-.68-.84-.06-3,.43a5.05,5.05,0,0,1-3.56-.18c-.91-.45-4.48-3-2.76-3.33a7.84,7.84,0,0,0-1.32-.42c-1.25-.51-2.44-1.49-2.07-1.76-.32-.45.36-.45-.14-.54-.68-.15-2.37-1.31-1.93-1.76-.43-.27-1.46-.68-1.89-.89a4.85,4.85,0,0,1-1.71-2.74c-.73.07-2.3-1.25-1.59-1.64-1.2-.84-2.22-2.22-1.42-2.67-.7-.52-1.19-1.47-.7-1.11-.73-.84-.5-1.73.07-1.73s.34-2.38-.68-2.38-2.67.75-3.87,0c-1-.71-1.82-3.87-.91-5.21s2.73-2.83,3.65-2.68.46.45.23-.89S19,109.22,20,108.88a5.34,5.34,0,0,1,4.22.45c.68.6.91.6.91-.45,0-.73.88-1.11,1.66-1.31a2.94,2.94,0,0,1,2.78.56c.71,1,1.14,2.08.23,3s-.12.14,1.36-.16c1-.3,2.67.09,3,1.05s.68,2.83-.34,3.72-2.51,3.13-1.71,3.87,3.3,4,3.87,4.47,1.25,1.49,2.16,1.34,1.94-.3,2.73-.45c3.17-.6,4.59-.91.53-.79.91-1.22,2.82-1.57,3.65-1.79-.73-1,2-3.22,2-3.52Z" style="fill:#ffcd00;stroke:#650000;stroke-width:0.6004188656806946px"/><path d="M47,130.93c-2.18-.32-7.71,4.19-5.93,9.81" style="fill:none;stroke:#650000;stroke-width:0.6497849822044373px"/><path d="M47.32,125.9c-2.95,17.6,15.14,10.78,15.26,4.85" style="fill:none;stroke-width:0.6413679718971252px;stroke:url(#e)"/><path d="M61.55,133.29c.24,2.31.38,8.77-2.15,10.42a9.82,9.82,0,0,1-8.18,1.05" style="fill:none;stroke:#650000;stroke-width:0.5963778495788574px"/><path d="M55.94,136.87c-.25,2.27-2.66,7.93-7.37,7.16" style="fill:none;stroke:#650000;stroke-width:0.6004188656806946px"/><path d="M17.89,112.53a4.93,4.93,0,0,1,4.22,3.67c.53,1.61.88,2.53.88,2.53" style="fill:none;stroke:#650000;stroke-width:0.6004188656806946px"/><path d="M20,125.6a6.12,6.12,0,0,0,3,0" style="fill:none;stroke:#650000;stroke-width:0.6004188656806946px"/><path d="M21,128.08a7.17,7.17,0,0,0,4.66-.46" style="fill:none;stroke:#650000;stroke-width:0.5462744235992432px"/><path d="M26.21,133.51c6.36,0,9.06-8.47,9.06-8.47" style="fill:none;stroke-opacity:0.26110002398490906;stroke-width:0.6108912229537964px;stroke:url(#f)"/><path d="M39.15,129.52c-1.76,4.36-1.58,4.36-3.87,5.28l-2.28.92" style="fill:none;stroke:#650000;stroke-opacity:0.08920001238584518;stroke-width:0.7400511503219604px"/><path d="M31.95,138a11.37,11.37,0,0,0,4-2.07" style="fill:none;stroke:#650000;stroke-width:0.6004188656806946px"/><path d="M29.31,111.51c-1.41,1.61-1.23,4.59-1.23,4.59" style="fill:none;stroke:#650000;stroke-width:0.6004188656806946px"/><path d="M58.31,111.61c.35,3-1.05,4.59-1.93,4.59s-1.86,1.11-1.32,2.91" style="fill:none;stroke:#650000;stroke-width:0.6004188656806946px"/><path d="M62,111.15a7.05,7.05,0,0,0-1.41,6.2c.53,1.84,0,2.37,0,2.37" style="fill:none;stroke:#650000;stroke-width:0.6004188656806946px"/><path d="M43.2,128.14c-2.81.71-4,5.57-2.46,8.18" style="fill:none;stroke:#650000;stroke-width:0.7477850914001465px"/><path d="M69,121.25H67.1s-1.23,2.53-3.34,1.84-.18,0-.18,0" style="fill:none;stroke:#650000;stroke-width:0.6004188656806946px"/><path d="M58.66,119.15c3,.07,2.4,2.34.18,2.11.18,2.76-3.33,2.41-3,.3-2.11.06-3-2.73.09-2.34" style="fill:none;stroke:#650000;stroke-width:0.6004188656806946px"/><path d="M129.89,121.26c.62-1.78,3.47-3.4,3.47-3.4h0" style="fill:none;stroke:#650000;stroke-width:0.6004188656806946px"/><path d="M125.75,121.16a10.89,10.89,0,0,1,3.47-3.4" style="fill:none;stroke:#650000;stroke-width:0.6004188656806946px"/><path d="M119.7,121.36a14.9,14.9,0,0,0,3-2c.67-.62,2-1.78,2-1.78" style="fill:none;stroke:#650000;stroke-width:0.6004188656806946px"/><path d="M114.45,121.29a26.87,26.87,0,0,0,3.37-1.72,9.18,9.18,0,0,0,2-1.81" style="fill:none;stroke:#650000;stroke-width:0.5715607404708862px"/><path d="M115.58,115.67a12.86,12.86,0,0,1-6.34-4.2" style="fill:none;stroke:#650000;stroke-width:0.6004188656806946px"/><path d="M122.87,109.71c-2.9,1.14-8.8.65-9,.65" style="fill:none;stroke:#650000;stroke-width:0.6004188656806946px"/><path d="M70.37,145.83c.87-2.91,2.49-3.56,4.53-4.51s5.31-3.26,3.33-1.48-4.84,2.91-5.84,3.56-1.61,2.09-1.11,2.75" style="fill:none;stroke:#650000;stroke-width:0.6004188656806946px"/><path d="M66.21,134.82c1.86,2.91.71,7-1.64,8.1" style="fill:none;stroke:#650000;stroke-linecap:round;stroke-width:0.6004188656806946px"/><path d="M72.41,124.78c3,1.18,3.13,4,3.56,5.61-1.06-.46-1.84-.24-2.64-.58" style="fill:none;stroke:#650000;stroke-width:0.6004188656806946px"/><path d="M71.22,126.38c2,2.65,2.83,4.27,2.95,5.19.19,1.6.2,5.55-4.64,5.49.45-1.18,1-4.28.25-5.53" style="fill:none;stroke:#650000;stroke-width:0.5484867691993713px"/><path d="M70.08,134.37a4.13,4.13,0,0,1-2.76,4" style="fill:none;stroke:#650000;stroke-width:0.6004188656806946px"/><path d="M57,123.65c-.13,2.27-3.4,2.75-4.53.81-.88-1.3-1.38-1.94-2-2.1s-.56-2-.69-2.32a9.35,9.35,0,0,0-.69-1.72" style="fill:none;stroke:#650000;stroke-width:0.6051551699638367px"/><path d="M52.29,124.3c1.52,2.5,5.15,1,6.08,2s-.91,4.49-1.49,6.5a3.9,3.9,0,0,1-5.47.33c.6-2.39.65-7.5.76-7.66l.12-1.17Z" style="fill:blue;stroke:#650000;stroke-width:0.6322236657142639px"/><path d="M25,109.68c.25,1.46-.12,1.78-.5,3.08a9.52,9.52,0,0,0,.12,3.56" style="fill:none;stroke:#650000;stroke-width:0.6004188656806946px"/><path d="M24.37,150.32a14.37,14.37,0,0,1,3.84,0" style="fill:none;stroke:#650000;stroke-width:0.6004188656806946px"/><path d="M29,154.15a9.05,9.05,0,0,1,2.48-2.43" style="fill:none;stroke:#650000;stroke-width:0.6004188656806946px"/><path d="M42.91,155.87c.62-.81.62-3.4.62-3.4" style="fill:none;stroke:#650000;stroke-width:0.6004188656806946px"/><path d="M47.43,155.85a6.15,6.15,0,0,0,1-3.34" style="fill:none;stroke:#650000;stroke-width:0.6004188656806946px"/><path d="M51,155.79a7.61,7.61,0,0,0,.83-3.84" style="fill:none;stroke:#650000;stroke-width:0.6004188656806946px"/><path d="M56.66,156a8.09,8.09,0,0,0,.62-3.24" style="fill:none;stroke:#650000;stroke-width:0.6004188656806946px"/><path d="M96.82,150.85c-2.23-.49-3.59,2.43-3.59,2.43" style="fill:none;stroke:#650000;stroke-width:0.6004188656806946px"/><path d="M99.75,150.38a8.73,8.73,0,0,1-2,4" style="fill:none;stroke:#650000;stroke-width:0.6004188656806946px"/><path d="M103.27,150.2c-.12,1.78-2.11,4.21-2.11,4.21" style="fill:none;stroke:#650000;stroke-width:0.6004188656806946px"/><path d="M107.64,149.49a8.17,8.17,0,0,1-2.11,4.14" style="fill:none;stroke:#650000;stroke-width:0.6004182696342468px"/><path d="M110.86,148.66c.12,2.1-1,5.34-1.74,6" style="fill:none;stroke:#650000;stroke-width:0.6004188656806946px"/><path d="M114.71,149.56a6.23,6.23,0,0,1,0,2.75" style="fill:none;stroke:#650000;stroke-width:0.6004188656806946px"/><path d="M90.47,145.14a4.13,4.13,0,0,1,2.35,1.94" style="fill:none;stroke:#650000;stroke-width:0.6004188656806946px"/><path d="M87.93,149.2c.78-2.55,4.15-1.3,4.56-.62" style="fill:none;stroke:#650000;stroke-width:0.6004188656806946px"/><path d="M151.54,137.46a8.63,8.63,0,0,0-3.1.49" style="fill:none;stroke:#650000;stroke-width:0.6004188656806946px"/><path d="M157.3,139.69a16,16,0,0,1-3.72.81" style="fill:none;stroke:#650000;stroke-width:0.6004188656806946px"/><path d="M159.53,143.43c-1.49-.16-2.6-.16-2.6-.16" style="fill:none;stroke:#650000;stroke-width:0.6004188656806946px"/><path d="M162.42,146.95a27.86,27.86,0,0,0-3.84,0" style="fill:none;stroke:#650000;stroke-width:0.6004188656806946px"/><path d="M161.28,151.5a2.94,2.94,0,0,0-2-1.62" style="fill:none;stroke:#650000;stroke-width:0.6004188656806946px"/><path d="M146.67,154.51a5.06,5.06,0,0,1,4.2-3.5h1.36" style="fill:none;stroke:#650000;stroke-width:0.6004188656806946px"/><path d="M144.62,150.22a20,20,0,0,1,3.84-.65" style="fill:none;stroke:#650000;stroke-width:0.6004188656806946px"/><path d="M48.2,142.58a11.82,11.82,0,0,0,2.66-3.47" style="fill:none;stroke:#650000;stroke-width:0.6004188656806946px"/><path d="M66.33,114.26c-1.49,1.46-1.61,1.62-1.61,1.62" style="fill:none;stroke:#650000;stroke-width:0.6004188656806946px"/><path d="M67.82,117a8.22,8.22,0,0,1-2.09.08" style="fill:none;stroke:#650000;stroke-width:0.6004188656806946px"/><path d="M60.76,115.92c1.47-.51,4.88-.08,4.83,1.1,0,1.45-1.33,1.54-4.86.17l0-1.06v-.2Z" style="fill:none;stroke:#650000;stroke-width:0.6803303956985474px"/><path d="M56.14,116.07c.18-1.72-3.38-3.42-4.25-2.46-1.06,1.59,1.94,3,2.74,3s.3.09.3.09" style="fill:none;stroke:#650000;stroke-width:0.552643358707428px"/><path d="M66.71,129c1.12,2.05,1.45,5.54.18,7.24" style="fill:none;stroke:#650000;stroke-opacity:0.30000001192092896;stroke-width:0.6004188656806946px"/><path d="M65.81,122.51a10.74,10.74,0,0,0-.22,6.75" style="fill:none;stroke:#650000;stroke-width:0.6004188656806946px"/><path d="M49.86,123.39a2.31,2.31,0,0,1-2,.59" style="fill:none;stroke:#650000;stroke-width:0.6004188656806946px"/><path d="M62.67,133.67c1.12.59,2.7,4.11,2.47,5.28l-.22,1.17" style="fill:none;stroke:#650000;stroke-opacity:0.30000001192092896;stroke-width:0.6004188656806946px"/><path d="M62.22,135.14c.67,1.76,1.57,4.4,1.35,5.28l-.22.88" style="fill:none;stroke:#650000;stroke-opacity:0.30000001192092896;stroke-width:0.6004188656806946px"/><path d="M58.17,136.9c.45,1.76.22,4.7-.45,5.28l-.67.59" style="fill:none;stroke:#650000;stroke-opacity:0.30000001192092896;stroke-width:0.6004188656806946px"/><path d="M57,137.19c-.67,2.05-1.35,5-1.35,5" style="fill:none;stroke:#650000;stroke-opacity:0.30000001192092896;stroke-width:0.6004188656806946px"/><path d="M47.16,124.57A38.92,38.92,0,0,1,44,128.09" style="fill:none;stroke:#650000;stroke-linecap:round;stroke-opacity:0.10189998894929886;stroke-width:1.298580288887024px"/><path d="M46.26,131.61a21.3,21.3,0,0,0-2.7,2.94" style="fill:none;stroke:#650000;stroke-opacity:0.2994000017642975;stroke-width:0.6004188656806946px"/><path d="M47.61,134.55c-1.8-1.17-3.82.88-3.82.88" style="fill:none;stroke:#650000;stroke-opacity:0.2994000017642975;stroke-width:0.6004188656806946px"/><path d="M36.43,137.69c-.45,1.17-3.82,2.05-3.82,2.05" style="fill:none;stroke:#650000;stroke-opacity:0.09549997001886368;stroke-width:0.7400511503219604px"/><path d="M64,116.32l-.22,1.33" style="fill:none;stroke:#650000;stroke-linecap:round;stroke-width:1.1660256385803223px"/><path d="M54.79,113.92a14.79,14.79,0,0,1-.73,2" style="fill:none;stroke:#650000;stroke-linecap:round;stroke-width:0.945871889591217px"/><path d="M44.23,124.28c-4.14,2.06-4.85,3.87-4.2,8.21" style="fill:none;stroke:#650000;stroke-width:0.6004188656806946px"/><path d="M72.35,118.36c-1.18.51-1,3.16-1,3.16h0" style="fill:none;stroke:#600;stroke-width:0.7191062569618225px"/><path d="M47.15,114.67c1.27.84.76,3.37.76,3.37" style="fill:none;stroke:#600;stroke-width:0.6307441592216492px"/><path d="M38.82,155.39c-.09,2.52-2.61,1.86-3.68,1.86l.93-1.65a.94.94,0,0,0,.8-.1l2-.12Z" style="fill:#390000;fill-opacity:0.5986999869346619"/><path d="M60.93,133.71a9.48,9.48,0,0,1,.16,3.33,8.63,8.63,0,0,1-1.34,3.91,5.38,5.38,0,0,0-1,1.59l-3-1.93c.16.61,0-.45.14-.66a4.23,4.23,0,0,0,.58-2c.06-.94.84-2.52,1.29-1l3.14-3.26Z" style="fill:#390000;fill-opacity:0.10000000149011612"/><path d="M50.42,141.61a10.22,10.22,0,0,0,3.07-.5c1.16-.37.09-.56,1-1.4.26-.29.5-1.3.73-1.62L54,138c-.16,1-1.18.19-1.29.32-.46.42-.41.16-1,.33s-1.09-.07-.23.23l-1.09,2.72Z" style="fill:#390000;fill-opacity:0.10000000149011612"/><path d="M115.91,135.33a12.63,12.63,0,0,1-1.86,4.68,13.52,13.52,0,0,1-5.59,4.68,12.51,12.51,0,0,1-2.14.4l-.33-6.8a5.21,5.21,0,0,0,.94-.15,5.92,5.92,0,0,0,2.66-2.28c.66-1.17,1-2.89.59-.22Z" style="fill:#390000;fill-opacity:0.10000000149011612"/><path d="M28.69,135.5c4.87-1.09,7.58-7.21,7.58-7.21" style="fill:none;stroke-opacity:0.26110002398490906;stroke-width:0.8440872430801392px;stroke:url(#g)"/><path d="M23,130c4.93.27,8.57-5,8.57-5" style="fill:none;stroke-opacity:0.26110002398490906;stroke-width:0.8440872430801392px;stroke:url(#h)"/><path d="M140.74,143.59,141,143c-.53,1.39-.4.75,1.45-.63h3.63a14.26,14.26,0,0,1,3.63.63c.83.44,1.6,1.09,2.42,1.58" style="fill:none;stroke:#700;stroke-opacity:0.10189998894929886;stroke-width:1.5359550714492798px"/><path d="M46,138.78c-.16.7,1.75,1.66,2.87,1.7,1.17-.69,1.21-.95,2-2.1.21-.38,0-.12.12-.53l-2.48-2.25a1.48,1.48,0,0,0-.6.51c-.39.57-.38.9-1,1.22s-.6.1-.19.31l-.42.65-.37.48Z" style="fill:#390000;fill-opacity:0.10000000149011612"/><path d="M67.81,138.67a6.16,6.16,0,0,0,1.38-2.43,15.09,15.09,0,0,0,.51-5.32c-.09-.6-.2-1.16-.35-1.74l-2.72,1.17c.07.25.12.5.16.76a6.5,6.5,0,0,1-.26,2.54c-.3.76-.9,1.35.05.5Z" style="fill:#390000;fill-opacity:0.10000000149011612"/><path d="M69.68,126.75a3.84,3.84,0,0,1,2.17,1.06A11.39,11.39,0,0,1,74.43,132c.16.58.29,1.16.4,1.77l-2.82,1c0-.27-.1-.52-.16-.78a4.88,4.88,0,0,0-1.25-2c-.57-.43-1.32-.49-.16-.47Z" style="fill:#390000;fill-opacity:0.10000000149011612"/><path d="M65.32,142.16c.75-1.16,1.37-.48,1.59-1.92a15.3,15.3,0,0,0-1-6.45,19.22,19.22,0,0,0-1.05-1.88l-3.47,2.61a8,8,0,0,1,.47.81,6.62,6.62,0,0,1,.45,3.09c-.18,1,0,1.35.85,1.68l2.16,2.06Z" style="fill:#390000;fill-opacity:0.10000000149011612"/><path d="M157.91,147.9a14.26,14.26,0,0,1,3.63.63c.83.44,1.6,1.09,2.42,1.58" style="fill:none;stroke:#700;stroke-opacity:0.10189998894929886;stroke-width:1.5359550714492798px"/><path d="M150.81,138.8a14.05,14.05,0,0,1,3.66-.3c.88.22,1.74.67,2.61.94" style="fill:none;stroke:#700;stroke-opacity:0.10189998894929886;stroke-width:1.5359550714492798px"/><path d="M127.3,142.61a7,7,0,0,1-2.37-.44c-.55-.36-1.06-.91-1.59-1.31" style="fill:none;stroke:#700;stroke-opacity:0.10189998894929886;stroke-width:1.1571691036224365px"/><path d="M136.76,125.44c-4.86-.14-8.49-.22-11.74-.3l-11.76-.31" style="fill:none;stroke:#700;stroke-opacity:0.10189998894929886;stroke-width:1.2733162641525269px"/><path d="M97.68,129.24a7.29,7.29,0,0,1,2.32-.75c.61.06,1.24.32,1.85.43" style="fill:none;stroke:#700;stroke-opacity:0.10189998894929886;stroke-width:1.1571685075759888px"/><path d="M22.79,123.05a5.08,5.08,0,0,1-1.21,1.64,2.34,2.34,0,0,1-2.06.49c-.24-.08-.23-1.86-.45-2L19.5,122a1.39,1.39,0,0,0,.29.16,1.34,1.34,0,0,0,1.1-.37c.36-.36.7-1.06.2,0l1.7,1.25Z" style="fill:#390000;fill-opacity:0.10000000149011612"/><path d="M52,123.55a7.47,7.47,0,0,1-2,4.93" style="fill:none;stroke:#650000;stroke-width:0.5920295119285583px"/><path d="M50.18,122.05a10.4,10.4,0,0,0,.27,6.32" style="fill:none;stroke:#650000;stroke-width:0.653590977191925px"/><path d="M59.59,126.16A7.71,7.71,0,0,0,61,131.32" style="fill:none;stroke:#650000;stroke-width:0.5920295119285583px"/><path d="M61.61,125a10,10,0,0,1-1,6.17" style="fill:none;stroke:#650000;stroke-width:0.653590977191925px"/><path d="M48.25,153.68c-.13,2.58-3.63,1.9-5.13,1.91l.42-.68c.18,0,1.48-.84,2-1.11l2.72-.12Z" style="fill:#390000;fill-opacity:0.10000000149011612"/><path d="M51.65,152.51c-.11,3.64-3.1,2.68-4.37,2.69l.36-1a20.28,20.28,0,0,0,1.7-1.56l2.32-.17Z" style="fill:#390000;fill-opacity:0.10000000149011612"/><path d="M57.11,152.68c-.15,5.41-4.26,4-6,4l.49-1.42a28.8,28.8,0,0,0,2.33-2.32l3.19-.25Z" style="fill:#390000;fill-opacity:0.10000000149011612"/><path d="M62.52,152.59c-.15,5.41-4.26,4-6,4l.49-1.42a28.8,28.8,0,0,0,2.33-2.32l3.19-.25Z" style="fill:#390000;fill-opacity:0.10000000149011612"/><path d="M43,152.59c-.13,5.41-3.63,4-5.13,4l.42-1.42a27,27,0,0,0,2-2.32l2.72-.25Z" style="fill:#390000;fill-opacity:0.10000000149011612"/><path d="M45.58,137.82c-.48,1.37-1.28,2.43-1.15,3.29l-.75-.32c.58.2-.66-2.22-1-1.76l.7-.48.16-.26.35-.16,1.66-.29Z" style="fill:#390000;fill-opacity:0.5986999869346619"/><path d="M72.87,123a14.83,14.83,0,0,1,3,.7,3.65,3.65,0,0,1-3.29,1.29" style="fill:none;stroke:#650000;stroke-width:0.6004188656806946px"/><path d="M115.92,146a9.09,9.09,0,0,1-2.75.14c-.68-.22-1.34-.63-2-.9" style="fill:none;stroke:#700;stroke-opacity:0.10189998894929886;stroke-width:1.241290807723999px"/><path d="M105.08,149.64a27.85,27.85,0,0,0,5.28.69c1.36-.13,2.73-.5,4.1-.69" style="fill:none;stroke:#700;stroke-opacity:0.10189998894929886;stroke-width:1.904725193977356px"/><path d="M77.18,144.37c-2.13.69-3.13.73-3.83.13" style="fill:none;stroke:#650000;stroke-linecap:round;stroke-width:0.6004188656806946px"/><path d="M79.55,142.68c-1.87.69-2.94.92-3.87.36" style="fill:none;stroke:#650000;stroke-linecap:round;stroke-width:0.5801470279693604px"/><path d="M82.72,140.61c-1.24.69-2,.92-2.57.36" style="fill:none;stroke:#650000;stroke-linecap:round;stroke-width:0.47307807207107544px"/><path d="M84.91,139c-1.52.69-2.39.92-3.15.36" style="fill:none;stroke:#650000;stroke-linecap:round;stroke-width:0.5233758687973022px"/><path d="M24.84,109.68c.25,1.46-.12,1.78-.5,3.08a9.52,9.52,0,0,0,.12,3.56" style="fill:none;stroke:#650000;stroke-width:0.6004188656806946px"/><path d="M29.55,111.51c-1.41,1.61-1.23,4.59-1.23,4.59" style="fill:none;stroke:#650000;stroke-width:0.6004188656806946px"/><path d="M18.07,112.21a5,5,0,0,1,4.32,3.67c.54,1.61.9,2.53.9,2.53" style="fill:none;stroke:#650000;stroke-width:0.6075344681739807px"/><path d="M62.74,122.84c.12,3.08-5.83,5.34-5.7.65" style="fill:none;stroke:#650000;stroke-width:0.6004188656806946px"/><path d="M93.74,213.87c-.58.89,1,4.82,3.47,4.72a9.54,9.54,0,0,1-1.44-5.26l-2,.54Z" style="fill:blue;stroke:#650000;stroke-width:0.5375000238418579px"/><path d="M87.63,209.61c-.89.12-3,5.29.39,7.13a8.87,8.87,0,0,1,1.72-5.11L88,210.2h0l-.34-.59Z" style="fill:blue;stroke:#650000;stroke-width:0.5375000238418579px"/><path d="M87.21,206.53c-.86-.86-4.59,1.63-4.44,5.34a6.71,6.71,0,0,1,5-2.28l-.57-3.06Z" style="fill:blue;stroke:#650000;stroke-width:0.5375000238418579px"/><path d="M91.52,203.53c-.06-1.16-3.31-2.51-5-.18a5.77,5.77,0,0,1,3.85,2.43l1.16-2.25Z" style="fill:blue;stroke:#650000;stroke-width:0.5375000238418579px"/><path d="M156.95,214.35a2.27,2.27,0,0,0,.78,2,9.76,9.76,0,0,1,1.18,2.38s1.78-4.68,1.33-5.31S157.06,214.32,156.95,214.35Z" style="fill:blue;stroke:#650000;stroke-width:0.5375000238418579px"/><path d="M147.55,212.41c-.88-.16-2.56,3.71-1.16,6.37a7.61,7.61,0,0,1,2.61-4.42l-1.45-2Z" style="fill:blue;stroke:#650000;stroke-width:0.5375000238418579px"/><path d="M143.23,211.25c-.69-.74-3.67,1.41-3.54,4.63a5.13,5.13,0,0,1,4-2l-.45-2.65Z" style="fill:blue;stroke:#650000;stroke-width:0.5375000238418579px"/><path d="M145.49,206.28c-.47-1-3.82-.17-4.48,2.93a4.69,4.69,0,0,1,4.27-.22l.21-2.7Z" style="fill:blue;stroke:#650000;stroke-width:0.5375000238418579px"/><path d="M34.3,204.11c.32-1.09-2.18-4.1-4.48-2.93a8,8,0,0,1,2.7,4.33l1.78-1.4Z" style="fill:blue;stroke:#650000;stroke-width:0.5375000238418579px"/><path d="M24.71,210.9c-.84-1-4.34,1.81-4.13,6a5.71,5.71,0,0,1,4.72-2.55l-.59-3.49Z" style="fill:blue;stroke:#650000;stroke-width:0.5375000238418579px"/><path d="M25,204.93c-.36-1.39-4.46-1.2-5.86,2.61a5.3,5.3,0,0,1,5.07.8l.79-3.42Z" style="fill:blue;stroke:#650000;stroke-width:0.5375000238418579px"/><path d="M29.19,216.21a2.47,2.47,0,0,0,.45,2.2,10.9,10.9,0,0,1,.79,2.64s2.47-4.11,2.13-4.84S29.3,216.21,29.19,216.21Z" style="fill:blue;stroke:#650000;stroke-width:0.5375000238418579px"/><path d="M19,169c0-1.47-3.93-3-6.2,0a6.32,6.32,0,0,1,4.61,2.88L19,169Z" style="fill:blue;stroke:#650000;stroke-width:0.5375000238418579px"/><path d="M14.93,174.8c-.84-1-4.34,1.81-4.13,6a5.71,5.71,0,0,1,4.72-2.55l-.59-3.49Z" style="fill:blue;stroke:#650000;stroke-width:0.5375000238418579px"/><path d="M29.2,168.45c.38-1.38-2.92-4.56-5.84-2.71A8.18,8.18,0,0,1,27,170.48l2.25-2Z" style="fill:blue;stroke:#650000;stroke-width:0.5375000238418579px"/><path d="M33.87,173.49c.66-.79-.58-4.94-3-5.21a9.87,9.87,0,0,1,1,5.44l2.07-.23Z" style="fill:blue;stroke:#650000;stroke-width:0.5375000238418579px"/><path d="M47,178.35c-2.47-2.71,0-7.66,2.18-5.55-1.16-2,.74-3.63,1.6-2.61-.4-1.65,1.42-2.74,2.31-1.22-.32-1.84,2.38-2.91,3.08-.9,0-1.81,2.68-3.23,3.26-.59.51-2,3.45-2.3,3.7.59.86-1.68,3.06-1.56,3.19.88,1-1.15,3.41.57,3,2.6,1.52-.31,3.38,2.59,1.52,4.74,3.29-1.66,4.06,3.71,2.07,6.14,1,.6,1.12.07,2,.52a19,19,0,0,0,4.08,1.5c1.37,0,6.38-.15,7.41-.3A31.27,31.27,0,0,0,90.5,183c1.75-.54,4.29-.56,6.6-1.09,1.83-.19,53.32.79,54.8.64s3.64-1.49,3.53-3.13-1.82-2.82-3.53-3a108.64,108.64,0,0,0-12.08.15,11.55,11.55,0,0,0-5,2.08,20.54,20.54,0,0,0-2.22,2.42c-.72.57-2.74.66-2.74-.09,0-.49-.17.09-.67.28-.65.38-3.56.49-3.43,0s0-.72-.78-.15c-.57.45-4.6.61-5.34.17.44-.7.45-.66-.76-.08-.77.32-3.94.57-4.17,0,0-.48-.39-.25-.84-.11-3.6.89-3.94-.14-3.37-.59s1.43-3,.52-2.85-6.61,1.19-8.54,1.49-15.95,0-17.89-.15a4.71,4.71,0,0,1-4.22-4.32c-.2-3.93,3.19-4.91,5.24-5.51a49.66,49.66,0,0,1,9.23-1.49c2.05,0,7.9.68,9.49.09a57.58,57.58,0,0,1,7.81-2.38c2-.18,7.8.47,10.56,3.6-1.44.62-2.11,1-.48.42,1.48-.3,7.84-1.55,9.32-1.88,5.13-.21,3.78.54,1.28,1.13-.84,2.52-8.37,6-10.76,6.48a37.5,37.5,0,0,1-8.61-.08c-1.14-.08-6.53-.33-8.49-1.54a26.71,26.71,0,0,0-11.6-3.32c-2.4,0-9.26.72-9.23,3,0,4,6.38,4.17,9.11,4s9.57-.45,11.51-1.19,6.13-.93,8.4-.93,5.61.48,6.63.33,3.42-.18,4.56-.93a12.58,12.58,0,0,1,6.12-1.52c2.51,0,21.11-.68,23.61-.53,3.63,0,6.19,3.72,6.24,6.9,0,1.49-.75,3.69-1.41,4,1.13.1,3.94.4,4.87.58,1.74.33,4.57,2.14,4.9,3.8a13.86,13.86,0,0,0-5.39-2c-.38,0-41-.06-44.17,0,8.68,1,15.31,7.27,17,10.88,1.48,2.23,5.13,1.34,6.49,1s3-1.64,4.1-2.68a4.42,4.42,0,0,1,3.72-1,1.55,1.55,0,0,1,1.4,2.53c-.68.89.11.53,1.94.53a5.54,5.54,0,0,1,4.5,2c-1,.89-1.54.16-.06.31s3.27,2.71,2.16,3.44c-1,.45-1.25.29,0,.43,1.87.15,2.38,1.29,2.62,3.32-1.58.27-.8-.19,0,.55s2,4-.91,4.17c-1-.45-1-.53-.79.48s-.35,3.54-1.95,3.54c-2.21.4-4.22-.74-4.44-2.08s-.2,2.58-3.33,3.2c-3,.62-4.53-1-4.76-1.72s-.11-.15-1.25-.3-2.57-.16-3.19-1.93a2.25,2.25,0,0,1,2.25-2.6c.91-.15,1.17-1.27.48-1.42s-.11-2.38,1.37-1.79,4.9.74,5.7,1.49,1-.6-.23-1.79S143,202.61,141,203.51c-4.78,2.27-12.76,1.93-14.13,1.64s-5.32.51-7.18-4.91c-1.51-5.54-7.25-8.28-9.87-8.58-12.93-1.15-12.22-.27-3.84.11-.06,1-.37,3.15,1,3.46,2.28-.3,7-1.25,8.16-.35s2.28,1.64,2.05,3.72.11,1.49-.91,2.38-.57,2.68,1,3.27a9.45,9.45,0,0,1,3.3,2.23c1,.89-.46,2.68-1.37,2.08s-.91-.6-1,.6-1.25,3.44-3.17,3.61c-.4-.14-.29-.76-.25-1.23.11-1-.38,1.29-1,1.94-.38.44-3.6,1.29-4.52.85.41-.93.17-.55-.63-.11-.78.29-5,.84-3.11-1,.49-.69-.67.86-1.3,1.13s-3,.51-3-.39c-.79.66-2.67.66-3,.15-.57-.6-.62.45-1.65.6s-3.25-.15-3.36-1.34.23-.45-1-.3c-3.05,1.91-4.56-.74-4.56-1.64a5.89,5.89,0,0,1,.23-2.53c.34-.6-2.12-.77-1.37-1.95.85-1.43,1.74-2.48,3.42-2.22.8.15.68-.3.34-.89s.91-.89,2.39-.3a5.65,5.65,0,0,1,3,3.42c.46,1.34,4,.3,5.47.45s1.59-2.23.68-3-3.42-3.42-4.44-4.32-.34-4,.57-4.76c5.31-3.38,2.39-4.46.46-4.17s-6.91,2.18-8.51,3.81-14,9.66-15.13,10.55-2.8,1.11-3.48.07-1.14-.3-1,1.19a6.27,6.27,0,0,1-5.38,7.34,4.79,4.79,0,0,1-2.26-.94c-.66,3.14-3.6,3.45-6.26,3.14,0-.37.5-1.06.2-.8-.88,1.08-3.58,1-5.89.8-.15-.66.8-1.45.34-1-.78,1.38-2.11,1.13-4.28,1,0-.29,1-1.26.52-.68-.95,1-2.92.67-4.46.7-.18-.22.79-1.76-.1-.74s-2.66,1-4.38.78c-.31-.73.36-.74.54-1.2.46-.74-.23,0-.8,0s-1.37.15-1.71-.6-.15.74-.48,1.15A3.38,3.38,0,0,1,34,217.2c-1.14.3-4.1.6-4.56-.74a2.49,2.49,0,0,1-.46-2.68c.46-.74-2.17,1.44-3.3,1.64-3.34.61-3.76-4.32-2.28-4.76s1.25-1.19.46-1.79-1.25-3-.23-3.72a5.22,5.22,0,0,1,4.9-.3c.88.57,2.76,2.52,2.39,1A2.67,2.67,0,0,1,32,203.31c.63-.55,2.57-.69,3.09.49,1.2,2.74,2.05,3.92,3.53,3.87a59.64,59.64,0,0,1,8.67-1.74c1.61-.36,10.12-1.15,10.12-1.89-5.11,1.67-7.17-.49-7.74-.34s-2-.48-2-.9c0-.89,1.29-.79-.54-.49a3.69,3.69,0,0,1-3-1.21c-.15-.55,1.21-2.44,1.7-4-1.18-.3-3.78,1.7-4.63,3.46-.6-.68-.84-.06-3,.43a5.05,5.05,0,0,1-3.56-.18c-.91-.45-4.48-3-2.76-3.33a7.84,7.84,0,0,0-1.32-.42c-1.25-.51-2.44-1.49-2.07-1.76-.32-.45.36-.45-.14-.54-.68-.15-2.37-1.31-1.93-1.76-.43-.27-1.46-.68-1.89-.89a4.85,4.85,0,0,1-1.71-2.74c-.73.07-2.3-1.25-1.59-1.64-1.2-.84-2.22-2.22-1.42-2.67-.7-.52-1.19-1.47-.7-1.11-.73-.84-.5-1.73.07-1.73s.34-2.38-.68-2.38-2.67.75-3.87,0c-1-.71-1.82-3.87-.91-5.21s2.73-2.83,3.65-2.68.46.45.23-.89S19,168.72,20,168.38a5.34,5.34,0,0,1,4.22.45c.68.6.91.6.91-.45,0-.73.88-1.11,1.66-1.31a2.94,2.94,0,0,1,2.78.56c.71,1,1.14,2.08.23,3s-.12.14,1.36-.16c1-.3,2.67.09,3,1.05s.68,2.83-.34,3.72-2.51,3.13-1.71,3.87,3.3,4,3.87,4.47,1.25,1.49,2.16,1.34,1.94-.3,2.73-.45c3.17-.6,4.59-.91.53-.79.91-1.22,2.82-1.57,3.65-1.79-.73-1,2-3.22,2-3.52Z" style="fill:#ffcd00;stroke:#650000;stroke-width:0.6004188656806946px"/><path d="M47,190.43c-2.18-.32-7.71,4.19-5.93,9.81" style="fill:none;stroke:#650000;stroke-width:0.6497849822044373px"/><path d="M47.32,185.4c-2.95,17.6,15.14,10.78,15.26,4.85" style="fill:none;stroke-width:0.6413679718971252px;stroke:url(#i)"/><path d="M61.55,192.79c.24,2.31.38,8.77-2.15,10.42a9.82,9.82,0,0,1-8.18,1.05" style="fill:none;stroke:#650000;stroke-width:0.5963778495788574px"/><path d="M55.94,196.37c-.25,2.27-2.66,7.93-7.37,7.16" style="fill:none;stroke:#650000;stroke-width:0.6004188656806946px"/><path d="M17.89,172a4.93,4.93,0,0,1,4.22,3.67c.53,1.61.88,2.53.88,2.53" style="fill:none;stroke:#650000;stroke-width:0.6004188656806946px"/><path d="M20,185.1a6.12,6.12,0,0,0,3,0" style="fill:none;stroke:#650000;stroke-width:0.6004188656806946px"/><path d="M21,187.58a7.17,7.17,0,0,0,4.66-.46" style="fill:none;stroke:#650000;stroke-width:0.5462744235992432px"/><path d="M26.21,193c6.36,0,9.06-8.47,9.06-8.47" style="fill:none;stroke-opacity:0.26110002398490906;stroke-width:0.6108912229537964px;stroke:url(#j)"/><path d="M39.15,189c-1.76,4.36-1.58,4.36-3.87,5.28l-2.28.92" style="fill:none;stroke:#650000;stroke-opacity:0.08920001238584518;stroke-width:0.7400511503219604px"/><path d="M31.95,197.52a11.37,11.37,0,0,0,4-2.07" style="fill:none;stroke:#650000;stroke-width:0.6004188656806946px"/><path d="M29.31,171c-1.41,1.61-1.23,4.59-1.23,4.59" style="fill:none;stroke:#650000;stroke-width:0.6004188656806946px"/><path d="M58.31,171.11c.35,3-1.05,4.59-1.93,4.59s-1.86,1.11-1.32,2.91" style="fill:none;stroke:#650000;stroke-width:0.6004188656806946px"/><path d="M62,170.65a7.05,7.05,0,0,0-1.41,6.2c.53,1.84,0,2.37,0,2.37" style="fill:none;stroke:#650000;stroke-width:0.6004188656806946px"/><path d="M43.2,187.64c-2.81.71-4,5.57-2.46,8.18" style="fill:none;stroke:#650000;stroke-width:0.7477850914001465px"/><path d="M69,180.75H67.1s-1.23,2.53-3.34,1.84-.18,0-.18,0" style="fill:none;stroke:#650000;stroke-width:0.6004188656806946px"/><path d="M58.66,178.65c3,.07,2.4,2.34.18,2.11.18,2.76-3.33,2.41-3,.3-2.11.06-3-2.73.09-2.34" style="fill:none;stroke:#650000;stroke-width:0.6004188656806946px"/><path d="M129.89,180.76c.62-1.78,3.47-3.4,3.47-3.4h0" style="fill:none;stroke:#650000;stroke-width:0.6004188656806946px"/><path d="M125.75,180.66a10.89,10.89,0,0,1,3.47-3.4" style="fill:none;stroke:#650000;stroke-width:0.6004188656806946px"/><path d="M119.7,180.86a14.9,14.9,0,0,0,3-2c.67-.62,2-1.78,2-1.78" style="fill:none;stroke:#650000;stroke-width:0.6004188656806946px"/><path d="M114.45,180.79a26.87,26.87,0,0,0,3.37-1.72,9.18,9.18,0,0,0,2-1.81" style="fill:none;stroke:#650000;stroke-width:0.5715607404708862px"/><path d="M115.58,175.17a12.86,12.86,0,0,1-6.34-4.2" style="fill:none;stroke:#650000;stroke-width:0.6004188656806946px"/><path d="M122.87,169.21c-2.9,1.14-8.8.65-9,.65" style="fill:none;stroke:#650000;stroke-width:0.6004188656806946px"/><path d="M70.37,205.33c.87-2.91,2.49-3.56,4.53-4.51s5.31-3.26,3.33-1.48-4.84,2.91-5.84,3.56-1.61,2.09-1.11,2.75" style="fill:none;stroke:#650000;stroke-width:0.6004188656806946px"/><path d="M66.21,194.32c1.86,2.91.71,7-1.64,8.1" style="fill:none;stroke:#650000;stroke-linecap:round;stroke-width:0.6004188656806946px"/><path d="M72.41,184.28c3,1.18,3.13,4,3.56,5.61-1.06-.46-1.84-.24-2.64-.58" style="fill:none;stroke:#650000;stroke-width:0.6004188656806946px"/><path d="M71.22,185.88c2,2.65,2.83,4.27,2.95,5.19.19,1.6.2,5.55-4.64,5.49.45-1.18,1-4.28.25-5.53" style="fill:none;stroke:#650000;stroke-width:0.5484867691993713px"/><path d="M70.08,193.87a4.13,4.13,0,0,1-2.76,4" style="fill:none;stroke:#650000;stroke-width:0.6004188656806946px"/><path d="M57,183.15c-.13,2.27-3.4,2.75-4.53.81-.88-1.3-1.38-1.94-2-2.1s-.56-2-.69-2.32a9.35,9.35,0,0,0-.69-1.72" style="fill:none;stroke:#650000;stroke-width:0.6051551699638367px"/><path d="M52.29,183.8c1.52,2.5,5.15,1,6.08,2s-.91,4.49-1.49,6.5a3.9,3.9,0,0,1-5.47.33c.6-2.39.65-7.5.76-7.66l.12-1.17Z" style="fill:blue;stroke:#650000;stroke-width:0.6322236657142639px"/><path d="M25,169.18c.25,1.46-.12,1.78-.5,3.08a9.52,9.52,0,0,0,.12,3.56" style="fill:none;stroke:#650000;stroke-width:0.6004188656806946px"/><path d="M24.37,209.82a14.37,14.37,0,0,1,3.84,0" style="fill:none;stroke:#650000;stroke-width:0.6004188656806946px"/><path d="M29,213.65a9.05,9.05,0,0,1,2.48-2.43" style="fill:none;stroke:#650000;stroke-width:0.6004188656806946px"/><path d="M42.91,215.37c.62-.81.62-3.4.62-3.4" style="fill:none;stroke:#650000;stroke-width:0.6004188656806946px"/><path d="M47.43,215.35a6.15,6.15,0,0,0,1-3.34" style="fill:none;stroke:#650000;stroke-width:0.6004188656806946px"/><path d="M51,215.29a7.61,7.61,0,0,0,.83-3.84" style="fill:none;stroke:#650000;stroke-width:0.6004188656806946px"/><path d="M56.66,215.49a8.09,8.09,0,0,0,.62-3.24" style="fill:none;stroke:#650000;stroke-width:0.6004188656806946px"/><path d="M96.82,210.35c-2.23-.49-3.59,2.43-3.59,2.43" style="fill:none;stroke:#650000;stroke-width:0.6004188656806946px"/><path d="M99.75,209.88a8.73,8.73,0,0,1-2,4" style="fill:none;stroke:#650000;stroke-width:0.6004188656806946px"/><path d="M103.27,209.7c-.12,1.78-2.11,4.21-2.11,4.21" style="fill:none;stroke:#650000;stroke-width:0.6004188656806946px"/><path d="M107.64,209a8.17,8.17,0,0,1-2.11,4.14" style="fill:none;stroke:#650000;stroke-width:0.6004182696342468px"/><path d="M110.86,208.16c.12,2.1-1,5.34-1.74,6" style="fill:none;stroke:#650000;stroke-width:0.6004188656806946px"/><path d="M114.71,209.06a6.23,6.23,0,0,1,0,2.75" style="fill:none;stroke:#650000;stroke-width:0.6004188656806946px"/><path d="M90.47,204.64a4.13,4.13,0,0,1,2.35,1.94" style="fill:none;stroke:#650000;stroke-width:0.6004188656806946px"/><path d="M87.93,208.7c.78-2.55,4.15-1.3,4.56-.62" style="fill:none;stroke:#650000;stroke-width:0.6004188656806946px"/><path d="M151.54,197a8.63,8.63,0,0,0-3.1.49" style="fill:none;stroke:#650000;stroke-width:0.6004188656806946px"/><path d="M157.3,199.19a16,16,0,0,1-3.72.81" style="fill:none;stroke:#650000;stroke-width:0.6004188656806946px"/><path d="M159.53,202.93c-1.49-.16-2.6-.16-2.6-.16" style="fill:none;stroke:#650000;stroke-width:0.6004188656806946px"/><path d="M162.42,206.45a27.86,27.86,0,0,0-3.84,0" style="fill:none;stroke:#650000;stroke-width:0.6004188656806946px"/><path d="M161.28,211a2.94,2.94,0,0,0-2-1.62" style="fill:none;stroke:#650000;stroke-width:0.6004188656806946px"/><path d="M146.67,214a5.06,5.06,0,0,1,4.2-3.5h1.36" style="fill:none;stroke:#650000;stroke-width:0.6004188656806946px"/><path d="M144.62,209.72a20,20,0,0,1,3.84-.65" style="fill:none;stroke:#650000;stroke-width:0.6004188656806946px"/><path d="M48.2,202.08a11.82,11.82,0,0,0,2.66-3.47" style="fill:none;stroke:#650000;stroke-width:0.6004188656806946px"/><path d="M66.33,173.76c-1.49,1.46-1.61,1.62-1.61,1.62" style="fill:none;stroke:#650000;stroke-width:0.6004188656806946px"/><path d="M67.82,176.51a8.22,8.22,0,0,1-2.09.08" style="fill:none;stroke:#650000;stroke-width:0.6004188656806946px"/><path d="M60.76,175.42c1.47-.51,4.88-.08,4.83,1.1,0,1.45-1.33,1.54-4.86.17l0-1.06v-.2Z" style="fill:none;stroke:#650000;stroke-width:0.6803303956985474px"/><path d="M56.14,175.57c.18-1.72-3.38-3.42-4.25-2.46-1.06,1.59,1.94,3,2.74,3s.3.09.3.09" style="fill:none;stroke:#650000;stroke-width:0.552643358707428px"/><path d="M66.71,188.47c1.12,2.05,1.45,5.54.18,7.24" style="fill:none;stroke:#650000;stroke-opacity:0.30000001192092896;stroke-width:0.6004188656806946px"/><path d="M65.81,182a10.74,10.74,0,0,0-.22,6.75" style="fill:none;stroke:#650000;stroke-width:0.6004188656806946px"/><path d="M49.86,182.89a2.31,2.31,0,0,1-2,.59" style="fill:none;stroke:#650000;stroke-width:0.6004188656806946px"/><path d="M62.67,193.17c1.12.59,2.7,4.11,2.47,5.28l-.22,1.17" style="fill:none;stroke:#650000;stroke-opacity:0.30000001192092896;stroke-width:0.6004188656806946px"/><path d="M62.22,194.64c.67,1.76,1.57,4.4,1.35,5.28l-.22.88" style="fill:none;stroke:#650000;stroke-opacity:0.30000001192092896;stroke-width:0.6004188656806946px"/><path d="M58.17,196.4c.45,1.76.22,4.7-.45,5.28l-.67.59" style="fill:none;stroke:#650000;stroke-opacity:0.30000001192092896;stroke-width:0.6004188656806946px"/><path d="M57,196.69c-.67,2.05-1.35,5-1.35,5" style="fill:none;stroke:#650000;stroke-opacity:0.30000001192092896;stroke-width:0.6004188656806946px"/><path d="M47.16,184.07A38.92,38.92,0,0,1,44,187.59" style="fill:none;stroke:#650000;stroke-linecap:round;stroke-opacity:0.10189998894929886;stroke-width:1.298580288887024px"/><path d="M46.26,191.11a21.3,21.3,0,0,0-2.7,2.94" style="fill:none;stroke:#650000;stroke-opacity:0.2994000017642975;stroke-width:0.6004188656806946px"/><path d="M47.61,194c-1.8-1.17-3.82.88-3.82.88" style="fill:none;stroke:#650000;stroke-opacity:0.2994000017642975;stroke-width:0.6004188656806946px"/><path d="M36.43,197.19c-.45,1.17-3.82,2.05-3.82,2.05" style="fill:none;stroke:#650000;stroke-opacity:0.09549997001886368;stroke-width:0.7400511503219604px"/><path d="M64,175.82l-.22,1.33" style="fill:none;stroke:#650000;stroke-linecap:round;stroke-width:1.1660256385803223px"/><path d="M54.79,173.42a14.79,14.79,0,0,1-.73,2" style="fill:none;stroke:#650000;stroke-linecap:round;stroke-width:0.945871889591217px"/><path d="M44.23,183.78c-4.14,2.06-4.85,3.87-4.2,8.21" style="fill:none;stroke:#650000;stroke-width:0.6004188656806946px"/><path d="M72.35,177.86c-1.18.51-1,3.16-1,3.16h0" style="fill:none;stroke:#600;stroke-width:0.7191062569618225px"/><path d="M47.15,174.17c1.27.84.76,3.37.76,3.37" style="fill:none;stroke:#600;stroke-width:0.6307441592216492px"/><path d="M38.82,214.89c-.09,2.52-2.61,1.86-3.68,1.86l.93-1.65a.94.94,0,0,0,.8-.1l2-.12Z" style="fill:#390000;fill-opacity:0.5986999869346619"/><path d="M60.93,193.21a9.48,9.48,0,0,1,.16,3.33,8.63,8.63,0,0,1-1.34,3.91,5.38,5.38,0,0,0-1,1.59l-3-1.93c.16.61,0-.45.14-.66a4.23,4.23,0,0,0,.58-2c.06-.94.84-2.52,1.29-1l3.14-3.26Z" style="fill:#390000;fill-opacity:0.10000000149011612"/><path d="M50.42,201.11a10.22,10.22,0,0,0,3.07-.5c1.16-.37.09-.56,1-1.4.26-.29.5-1.3.73-1.62L54,197.51c-.16,1-1.18.19-1.29.32-.46.42-.41.16-1,.33s-1.09-.07-.23.23l-1.09,2.72Z" style="fill:#390000;fill-opacity:0.10000000149011612"/><path d="M115.91,194.83a12.63,12.63,0,0,1-1.86,4.68,13.52,13.52,0,0,1-5.59,4.68,12.51,12.51,0,0,1-2.14.4l-.33-6.8a5.21,5.21,0,0,0,.94-.15,5.92,5.92,0,0,0,2.66-2.28c.66-1.17,1-2.89.59-.22Z" style="fill:#390000;fill-opacity:0.10000000149011612"/><path d="M28.69,195c4.87-1.09,7.58-7.21,7.58-7.21" style="fill:none;stroke-opacity:0.26110002398490906;stroke-width:0.8440872430801392px;stroke:url(#k)"/><path d="M23,189.53c4.93.27,8.57-5,8.57-5" style="fill:none;stroke-opacity:0.26110002398490906;stroke-width:0.8440872430801392px;stroke:url(#l)"/><path d="M140.74,203.09l.24-.63c-.53,1.39-.4.75,1.45-.63h3.63a14.26,14.26,0,0,1,3.63.63c.83.44,1.6,1.09,2.42,1.58" style="fill:none;stroke:#700;stroke-opacity:0.10189998894929886;stroke-width:1.5359550714492798px"/><path d="M46,198.28c-.16.7,1.75,1.66,2.87,1.7,1.17-.69,1.21-.95,2-2.1.21-.38,0-.12.12-.53l-2.48-2.25a1.48,1.48,0,0,0-.6.51c-.39.57-.38.9-1,1.22s-.6.1-.19.31l-.42.65-.37.48Z" style="fill:#390000;fill-opacity:0.10000000149011612"/><path d="M67.81,198.17a6.16,6.16,0,0,0,1.38-2.43,15.09,15.09,0,0,0,.51-5.32c-.09-.6-.2-1.16-.35-1.74l-2.72,1.17c.07.25.12.5.16.76a6.5,6.5,0,0,1-.26,2.54c-.3.76-.9,1.35.05.5Z" style="fill:#390000;fill-opacity:0.10000000149011612"/><path d="M69.68,186.25a3.84,3.84,0,0,1,2.17,1.06,11.39,11.39,0,0,1,2.58,4.22c.16.58.29,1.16.4,1.77l-2.82,1c0-.27-.1-.52-.16-.78a4.88,4.88,0,0,0-1.25-2c-.57-.43-1.32-.49-.16-.47Z" style="fill:#390000;fill-opacity:0.10000000149011612"/><path d="M65.32,201.66c.75-1.16,1.37-.48,1.59-1.92a15.3,15.3,0,0,0-1-6.45,19.22,19.22,0,0,0-1.05-1.88L61.39,194a8,8,0,0,1,.47.81,6.62,6.62,0,0,1,.45,3.09c-.18,1,0,1.35.85,1.68l2.16,2.06Z" style="fill:#390000;fill-opacity:0.10000000149011612"/><path d="M157.91,207.4a14.26,14.26,0,0,1,3.63.63c.83.44,1.6,1.09,2.42,1.58" style="fill:none;stroke:#700;stroke-opacity:0.10189998894929886;stroke-width:1.5359550714492798px"/><path d="M150.81,198.3a14.05,14.05,0,0,1,3.66-.3c.88.22,1.74.67,2.61.94" style="fill:none;stroke:#700;stroke-opacity:0.10189998894929886;stroke-width:1.5359550714492798px"/><path d="M127.3,202.11a7,7,0,0,1-2.37-.44c-.55-.36-1.06-.91-1.59-1.31" style="fill:none;stroke:#700;stroke-opacity:0.10189998894929886;stroke-width:1.1571691036224365px"/><path d="M136.76,184.94c-4.86-.14-8.49-.22-11.74-.3l-11.76-.31" style="fill:none;stroke:#700;stroke-opacity:0.10189998894929886;stroke-width:1.2733162641525269px"/><path d="M97.68,188.74A7.29,7.29,0,0,1,100,188c.61.06,1.24.32,1.85.43" style="fill:none;stroke:#700;stroke-opacity:0.10189998894929886;stroke-width:1.1571685075759888px"/><path d="M22.79,182.55a5.08,5.08,0,0,1-1.21,1.64,2.34,2.34,0,0,1-2.06.49c-.24-.08-.23-1.86-.45-2l.43-1.21a1.39,1.39,0,0,0,.29.16,1.34,1.34,0,0,0,1.1-.37c.36-.36.7-1.06.2,0l1.7,1.25Z" style="fill:#390000;fill-opacity:0.10000000149011612"/><path d="M52,183.05a7.47,7.47,0,0,1-2,4.93" style="fill:none;stroke:#650000;stroke-width:0.5920295119285583px"/><path d="M50.18,181.55a10.4,10.4,0,0,0,.27,6.32" style="fill:none;stroke:#650000;stroke-width:0.653590977191925px"/><path d="M59.59,185.66A7.71,7.71,0,0,0,61,190.82" style="fill:none;stroke:#650000;stroke-width:0.5920295119285583px"/><path d="M61.61,184.49a10,10,0,0,1-1,6.17" style="fill:none;stroke:#650000;stroke-width:0.653590977191925px"/><path d="M48.25,213.18c-.13,2.58-3.63,1.9-5.13,1.91l.42-.68c.18,0,1.48-.84,2-1.11l2.72-.12Z" style="fill:#390000;fill-opacity:0.10000000149011612"/><path d="M51.65,212c-.11,3.64-3.1,2.68-4.37,2.69l.36-1a20.28,20.28,0,0,0,1.7-1.56l2.32-.17Z" style="fill:#390000;fill-opacity:0.10000000149011612"/><path d="M57.11,212.18c-.15,5.41-4.26,4-6,4l.49-1.42a28.8,28.8,0,0,0,2.33-2.32l3.19-.25Z" style="fill:#390000;fill-opacity:0.10000000149011612"/><path d="M62.52,212.09c-.15,5.41-4.26,4-6,4l.49-1.42a28.8,28.8,0,0,0,2.33-2.32l3.19-.25Z" style="fill:#390000;fill-opacity:0.10000000149011612"/><path d="M43,212.09c-.13,5.41-3.63,4-5.13,4l.42-1.42a27,27,0,0,0,2-2.32l2.72-.25Z" style="fill:#390000;fill-opacity:0.10000000149011612"/><path d="M45.58,197.32c-.48,1.37-1.28,2.43-1.15,3.29l-.75-.32c.58.2-.66-2.22-1-1.76l.7-.48.16-.26.35-.16,1.66-.29Z" style="fill:#390000;fill-opacity:0.5986999869346619"/><path d="M72.87,182.46a14.83,14.83,0,0,1,3,.7,3.65,3.65,0,0,1-3.29,1.29" style="fill:none;stroke:#650000;stroke-width:0.6004188656806946px"/><path d="M115.92,205.49a9.09,9.09,0,0,1-2.75.14c-.68-.22-1.34-.63-2-.9" style="fill:none;stroke:#700;stroke-opacity:0.10189998894929886;stroke-width:1.241290807723999px"/><path d="M105.08,209.14a27.85,27.85,0,0,0,5.28.69c1.36-.13,2.73-.5,4.1-.69" style="fill:none;stroke:#700;stroke-opacity:0.10189998894929886;stroke-width:1.904725193977356px"/><path d="M77.18,203.87c-2.13.69-3.13.73-3.83.13" style="fill:none;stroke:#650000;stroke-linecap:round;stroke-width:0.6004188656806946px"/><path d="M79.55,202.18c-1.87.69-2.94.92-3.87.36" style="fill:none;stroke:#650000;stroke-linecap:round;stroke-width:0.5801470279693604px"/><path d="M82.72,200.11c-1.24.69-2,.92-2.57.36" style="fill:none;stroke:#650000;stroke-linecap:round;stroke-width:0.47307807207107544px"/><path d="M84.91,198.51c-1.52.69-2.39.92-3.15.36" style="fill:none;stroke:#650000;stroke-linecap:round;stroke-width:0.5233758687973022px"/><path d="M24.84,169.18c.25,1.46-.12,1.78-.5,3.08a9.52,9.52,0,0,0,.12,3.56" style="fill:none;stroke:#650000;stroke-width:0.6004188656806946px"/><path d="M29.55,171c-1.41,1.61-1.23,4.59-1.23,4.59" style="fill:none;stroke:#650000;stroke-width:0.6004188656806946px"/><path d="M18.07,171.71a5,5,0,0,1,4.32,3.67c.54,1.61.9,2.53.9,2.53" style="fill:none;stroke:#650000;stroke-width:0.6075344681739807px"/><path d="M62.74,182.34c.12,3.08-5.83,5.34-5.7.65" style="fill:none;stroke:#650000;stroke-width:0.6004188656806946px"/></svg>