<svg xmlns="http://www.w3.org/2000/svg" xmlns:xlink="http://www.w3.org/1999/xlink" viewBox="0 0 1304.79 1462.83"><defs><linearGradient id="a" x1="736.71" y1="-695.46" x2="668.13" y2="-784.51" gradientTransform="matrix(-0.65, 0.36, -0.27, 0.94, 444.74, 1480.31)" gradientUnits="userSpaceOnUse"><stop offset="0" stop-color="#ebb223"/><stop offset="0.51" stop-color="#f6db97"/><stop offset="1" stop-color="#ebb223"/></linearGradient><linearGradient id="b" x1="357.95" y1="756.25" x2="406.12" y2="913.18" gradientTransform="translate(606.22 1795.69) rotate(180) scale(1.04 1.05)" gradientUnits="userSpaceOnUse"><stop offset="0" stop-color="#f2cc6e" stop-opacity="0"/><stop offset="0.63" stop-color="#f2cc6e" stop-opacity="0.73"/><stop offset="1" stop-color="#f2cc6e" stop-opacity="0"/></linearGradient><linearGradient id="c" x1="194.8" y1="821.19" x2="109.39" y2="969.13" gradientTransform="matrix(1.04, 0, 0, -1.05, 14.6, 1524.16)" gradientUnits="userSpaceOnUse"><stop offset="0" stop-color="#f2cc6e" stop-opacity="0"/><stop offset="0.4" stop-color="#f2cc6e" stop-opacity="0.86"/><stop offset="1" stop-color="#f2cc6e" stop-opacity="0"/></linearGradient><linearGradient id="d" x1="131.6" y1="787.55" x2="165.04" y2="647.07" gradientTransform="matrix(1.04, 0, 0, -1.05, 14.6, 1524.16)" gradientUnits="userSpaceOnUse"><stop offset="0" stop-color="#fff" stop-opacity="0"/><stop offset="0.51" stop-color="#fff" stop-opacity="0.9"/><stop offset="1" stop-color="#fff" stop-opacity="0"/></linearGradient><linearGradient id="e" x1="386.97" y1="791.17" x2="416.32" y2="678.9" gradientTransform="translate(630.05 1764.16) rotate(180) scale(1.04 1.05)" xlink:href="#d"/><linearGradient id="f" x1="422.03" y1="1317.17" x2="403.78" y2="1245.9" gradientTransform="translate(630.05 1764.16) rotate(180) scale(1.04 1.05)" xlink:href="#d"/><linearGradient id="g" x1="661.68" y1="-45.14" x2="697.42" y2="-138.32" gradientTransform="matrix(-0.43, -0.5, -0.52, 0.46, 478.46, 1433.65)" gradientUnits="userSpaceOnUse"><stop offset="0" stop-color="#f2cc6e"/><stop offset="0.47" stop-color="#fdf2b9" stop-opacity="0.62"/><stop offset="1" stop-color="#fef9df" stop-opacity="0"/></linearGradient><linearGradient id="h" x1="381.14" y1="-561" x2="312.56" y2="-650.04" gradientTransform="matrix(0.65, 0.36, 0.27, 0.94, 1050.32, 1480.31)" xlink:href="#a"/><linearGradient id="i" x1="171.36" y1="756.25" x2="219.53" y2="913.18" gradientTransform="matrix(1.04, 0, 0, -1.05, 888.85, 1795.69)" xlink:href="#b"/><linearGradient id="j" x1="381.39" y1="821.19" x2="295.97" y2="969.13" gradientTransform="translate(1480.46 1524.16) rotate(180) scale(1.04 1.05)" xlink:href="#c"/><linearGradient id="k" x1="318.19" y1="787.55" x2="351.62" y2="647.07" gradientTransform="translate(1480.46 1524.16) rotate(180) scale(1.04 1.05)" xlink:href="#d"/><linearGradient id="l" x1="200.39" y1="791.17" x2="229.74" y2="678.9" gradientTransform="matrix(1.04, 0, 0, -1.05, 865.02, 1764.16)" xlink:href="#d"/><linearGradient id="m" x1="235.45" y1="1317.17" x2="217.19" y2="1245.9" gradientTransform="matrix(1.04, 0, 0, -1.05, 865.02, 1764.16)" xlink:href="#d"/><linearGradient id="n" x1="465.95" y1="-256.59" x2="501.69" y2="-349.77" gradientTransform="matrix(0.43, -0.5, 0.52, 0.46, 1016.61, 1433.65)" xlink:href="#g"/><linearGradient id="o" x1="159.14" y1="662.13" x2="348.53" y2="662.13" gradientTransform="matrix(1, 0, 0, -1, 29.83, 1441.01)" gradientUnits="userSpaceOnUse"><stop offset="0" stop-color="#f6db97"/><stop offset="1" stop-color="#f1c95a"/></linearGradient><linearGradient id="p" x1="353.14" y1="662.13" x2="542.53" y2="662.13" gradientTransform="translate(1465.91 1441.01) rotate(180)" xlink:href="#o"/><linearGradient id="q" x1="550.3" y1="71.22" x2="518.54" y2="-61.57" gradientTransform="matrix(0.41, -0.95, -0.86, -0.67, 18.76, 1861.9)" xlink:href="#a"/><linearGradient id="r" x1="588.89" y1="-542.49" x2="546.01" y2="-686.66" gradientTransform="matrix(0.84, -0.47, 0.8, 0.58, 379.9, 2048.87)" xlink:href="#a"/><linearGradient id="s" x1="441.99" y1="185.08" x2="386.1" y2="73.9" gradientTransform="matrix(0.24, -0.6, -0.35, -0.86, 104.65, 1318.25)" xlink:href="#a"/><linearGradient id="t" x1="305.99" y1="138.91" x2="248.68" y2="183.91" gradientTransform="matrix(1, 0, 0, -1, 29.83, 1483.01)" gradientUnits="userSpaceOnUse"><stop offset="0" stop-color="#f2cc6e"/><stop offset="1" stop-color="#f1c95a" stop-opacity="0"/></linearGradient><linearGradient id="u" x1="767.65" y1="-179.34" x2="710.34" y2="-134.34" gradientTransform="translate(794.96 1986.33) rotate(-110.77)" xlink:href="#t"/><linearGradient id="v" x1="39.7" y1="504.9" x2="49.78" y2="471.66" gradientTransform="matrix(1, 0, 0, -1.06, 25.83, 1490.86)" xlink:href="#t"/><linearGradient id="w" x1="669.01" y1="-97.84" x2="637.25" y2="-230.63" gradientTransform="matrix(-0.41, -0.95, 0.86, -0.67, 1480.03, 1861.9)" xlink:href="#a"/><linearGradient id="x" x1="719.35" y1="-435.98" x2="676.47" y2="-580.14" gradientTransform="matrix(-0.84, -0.47, -0.8, 0.58, 1118.89, 2048.87)" xlink:href="#a"/><linearGradient id="y" x1="847.36" y1="-95.24" x2="791.47" y2="-206.42" gradientTransform="matrix(-0.24, -0.6, 0.35, -0.86, 1394.14, 1318.25)" xlink:href="#a"/><linearGradient id="z" x1="499.99" y1="138.91" x2="442.68" y2="183.91" gradientTransform="translate(1468.96 1483.01) rotate(180)" xlink:href="#t"/><linearGradient id="aa" x1="698.85" y1="2.05" x2="641.54" y2="47.05" gradientTransform="matrix(0.35, -0.94, -0.94, -0.35, 703.83, 1986.33)" xlink:href="#t"/><linearGradient id="ab" x1="233.7" y1="504.9" x2="243.78" y2="471.66" gradientTransform="translate(1472.96 1490.86) rotate(180) scale(1 1.06)" xlink:href="#t"/><linearGradient id="ac" x1="563.45" y1="64.68" x2="1086.47" y2="64.68" gradientTransform="translate(1468.96 1441.01) rotate(180)" gradientUnits="userSpaceOnUse"><stop offset="0" stop-color="#fff" stop-opacity="0"/><stop offset="0.49" stop-color="#fff" stop-opacity="0.9"/><stop offset="1" stop-color="#fff" stop-opacity="0"/></linearGradient><linearGradient id="ad" x1="250.38" y1="444.05" x2="363.85" y2="251.54" gradientTransform="translate(1467.89 1447.12) rotate(180)" xlink:href="#d"/><linearGradient id="ae" x1="60.51" y1="457.3" x2="179.02" y2="228.78" gradientTransform="matrix(1, 0, 0, -1, 29.83, 1441.01)" gradientUnits="userSpaceOnUse"><stop offset="0" stop-color="#fff" stop-opacity="0"/><stop offset="0.4" stop-color="#fff" stop-opacity="0.9"/><stop offset="1" stop-color="#fff" stop-opacity="0"/></linearGradient><linearGradient id="af" x1="287.75" y1="791.83" x2="957.98" y2="791.83" gradientTransform="matrix(1, 0, 0, -1, 29.83, 1441.01)" gradientUnits="userSpaceOnUse"><stop offset="0" stop-color="#faecc9"/><stop offset="0.47" stop-color="#fdf2b9" stop-opacity="0.62"/><stop offset="1" stop-color="#fef9df" stop-opacity="0"/></linearGradient></defs><title>Guinea</title><path d="M167.09,1070.34c-14.51-15.67.24-59.65,27.56-49.51,14,5.19,13.89,3,13.58,10.61-.6,15-13.9,34.4-25.45,43C176.61,1079,172.38,1076.05,167.09,1070.34Z" style="stroke:#f2cc6e;stroke-width:2.6766180992126465px;fill:url(#a)"/><path d="M97.32,792.77c-7.59,40.15,20.28,51.54,42,76.13,30.39,34.44,58.48,43.49,59.61,77.56,29,301.32,143.11,93.17,96.16-10.49-26.9-75.15-41.94-80.55-69.63-136.5-66.66-102.91-96.53-74.61-128.12-6.7Z" style="fill:url(#b)"/><path d="M267.58,1108.34C385,1023,234.08,822.43,202.85,763.09,161.22,684,256.3,624,264.73,554.12c.59-4.92,8.44-99.36,7.3-152.66-.62-29.36-19.92-56.82-30.94-54.36-41.87,28.09-120.83,82.07-67.53,149.11S232.8,583,129.18,665.11C73.85,709,68.5,826.6,154.27,884.55c87.4,59,37.83,183,17.36,186.7C171.63,1071.25,235.25,1102.36,267.58,1108.34Z" style="fill:#fdf4c6;stroke:#f2cc6e;stroke-width:6.099999904632568px"/><path d="M264.51,446.24c7.59,40.15,12.38,89.76,0,120.13-20.74,51-48.46,88.95-58.61,107.56-53.45,163.24-171.12,77.14-76.16-9.49,72.57-63,116-91.11,51.63-155.5-42.34-136.91,51.53-130.61,83.12-62.7Z" style="fill:url(#c)"/><path d="M196.06,629.33c-12.64.27-26.28,7.47-41.51,16.95-7.13,6-17.09,13.81-25.36,21.07C72.36,717.22,80,834.17,158.38,884.64c10.44,6.72,38.37,37.48,38.65,44.41,55.72,20,53.68-40.39,49.75-80.33-9-37.82-37.06-63.29-45-82.65-22.68-43.69-5-84.07,16.69-119.36-4.46-13.25-11-17.62-22.38-17.38Z" style="fill:url(#d)"/><path d="M260.49,866.57C297.35,927,325.73,1024.46,299.9,1069c-18.59,32.06-67.34,55.08-74.72,46.53-90.55,6.19-66.74-10.63-52.8-42.77,58.73-58.09,42.32-162.29-37.91-206.33,30.81-51.36,117.33-19.39,126,.13Z" style="fill:url(#e)"/><path d="M238.57,352.68c11.84-4.84,28.62,28.25,28.13,46.59-1.43,54.27-6.12,108.19-6,161.77-31.17,107.86-104,134.84-57.95,33,46.14-54.17-51.58-89.94-43.21-151.35C165.74,397.48,228.15,357.88,238.57,352.68Z" style="fill:url(#f)"/><path d="M266.32,1104.85c4.5-1.88,14.37-12.09,17.69-15.7,75.9-82.6-65.26-257.22-78.52-81.37-5.43,26.11-19.27,51.56-28.38,63.17,27.1,19.11,81.24,38.8,89.22,33.9Z" style="fill:url(#g)"/><path d="M1134,1070.34c14.51-15.67-.24-59.65-27.56-49.51-14,5.19-13.89,3-13.58,10.61.6,15,13.9,34.4,25.45,43C1124.46,1079,1128.69,1076.05,1134,1070.34Z" style="stroke:#f2cc6e;stroke-width:2.6766180992126465px;fill:url(#h)"/><path d="M1203.75,792.77c7.59,40.15-20.28,51.54-42,76.13-30.39,34.44-58.48,43.49-59.61,77.56-29,301.32-143.11,93.17-96.16-10.49,26.9-75.15,41.94-80.55,69.63-136.5,66.66-102.91,96.53-74.61,128.12-6.7Z" style="fill:url(#i)"/><path d="M1033.49,1108.34C916,1023,1067,822.43,1098.22,763.09c41.63-79.1-53.45-139.09-61.88-209-.59-4.92-8.44-99.36-7.3-152.66.62-29.36,19.92-56.82,30.94-54.36,41.87,28.09,120.83,82.07,67.53,149.11s-59.24,86.78,44.38,168.9c55.33,43.85,60.68,161.49-25.09,219.44-87.4,59-37.83,183-17.36,186.7C1129.44,1071.25,1065.82,1102.36,1033.49,1108.34Z" style="fill:#fdf4c6;stroke:#f2cc6e;stroke-width:6.099999904632568px"/><path d="M1036.56,446.24c-7.59,40.15-12.38,89.76,0,120.13,20.74,51,48.46,88.95,58.61,107.56,53.45,163.24,171.12,77.14,76.16-9.49-72.57-63-116-91.11-51.63-155.5,42.34-136.91-51.53-130.61-83.12-62.7Z" style="fill:url(#j)"/><path d="M1105,629.33c12.64.27,26.28,7.47,41.51,16.95,7.13,6,17.09,13.81,25.36,21.07,56.83,49.88,49.18,166.83-29.18,217.29-10.44,6.72-38.37,37.48-38.65,44.41-55.72,20-53.68-40.39-49.75-80.33,9-37.82,37.06-63.29,45-82.65,22.68-43.69,5-84.07-16.69-119.36,4.46-13.25,11-17.62,22.38-17.38Z" style="fill:url(#k)"/><path d="M1040.58,866.57c-36.86,60.39-65.24,157.89-39.41,202.44,18.59,32.06,67.34,55.08,74.72,46.53,90.55,6.19,66.74-10.63,52.8-42.77-58.73-58.09-42.32-162.29,37.91-206.33-30.81-51.36-117.33-19.39-126,.13Z" style="fill:url(#l)"/><path d="M1062.5,352.68c-11.84-4.84-28.62,28.25-28.13,46.59,1.43,54.27,6.12,108.19,6,161.77,31.17,107.86,104,134.84,57.95,33-46.14-54.17,51.58-89.94,43.21-151.35C1135.33,397.48,1072.92,357.88,1062.5,352.68Z" style="fill:url(#m)"/><path d="M1034.75,1104.85c-4.5-1.88-14.37-12.09-17.69-15.7-75.9-82.6,65.26-257.22,78.52-81.37,5.43,26.11,19.27,51.56,28.38,63.17-27.1,19.11-81.24,38.8-89.22,33.9Z" style="fill:url(#n)"/><path d="M241.36,222.91,189,302c36.88,31.22,75.4,55,74.5,123.34l-9.66,730.53c92.91,117.25,256.85,178,397.08,178S955,1273.1,1048,1155.84l-9.66-730.53c-.9-68.36,37.62-92.13,74.5-123.34l-52.41-79.06-409.52-.12Z" style="fill:#fdf6e3"/><path d="M652.7,222.78l-411.34.12L189,302c36.88,31.22,75.4,55,74.5,123.34l-9.66,730.53C347.53,1274.13,513.54,1335,652.7,1335" style="fill:#fdf6e3;fill-opacity:0"/><path d="M649,222.78l411.34.12L1112.79,302c-36.88,31.22-75.4,55-74.5,123.34l9.66,730.53C954.22,1274.13,788.2,1335,649,1335" style="fill:#fdf6e3;fill-opacity:0"/><path d="M652.7,265.34l-388.64-.05-18,32.84c31.39,25.36,59.16,74.49,59.16,116.94L296.36,993c14.14,39.78,139,218.84,356.34,218.84" style="fill:#fff"/><path d="M649,265.34l388.64-.05,18,32.84c-31.39,25.36-59.16,74.49-59.16,116.94L1005.39,993c-14.14,39.78-139,218.84-356.34,218.84" style="fill:#fff"/><path d="M652.69,1335c-139.16,0-305.17-60.86-398.91-179.15l9.66-730.52c.9-68.36-37.6-92.12-74.48-123.34l52-79,411.69-.18m0,47.45H266.42l-13.91,26.69c19.8,17.21,57.37,64.16,57.37,118.77l-8.41,572.92c67.61,135.45,217,217.94,351.22,217.94m0,5.3c-217.3,0-342.21-179.06-356.35-218.84l8.82-577.95c0-42.45-27.76-91.6-59.15-117l17.93-32.82H652.69m0-23.56H251.39l-36.11,55.59c31.08,28.18,66.84,64.47,66.84,124.2,0,52.7-8.92,731.51-8.92,731.51,83.37,88,230,164.54,379.49,164.54" style="fill:url(#o)"/><path d="M649,1335c139.16,0,305.17-60.86,398.91-179.15l-9.66-730.52c-.9-68.36,37.6-92.12,74.48-123.34l-52-79L649,222.78m0,47.45h386.27l13.91,26.69c-19.8,17.21-57.37,64.16-57.37,118.77l8.41,572.92c-67.61,135.45-217,217.94-351.22,217.94m0,5.3c217.3,0,342.21-179.06,356.35-218.84l-8.82-577.95c0-42.45,27.76-91.6,59.15-117l-17.93-32.82H649m0-23.56h401.3l36.11,55.59c-31.08,28.18-66.84,64.47-66.84,124.2,0,52.7,8.92,731.51,8.92,731.51-83.37,88-230,164.54-379.49,164.54" style="fill:url(#p)"/><path d="M277.26,1150.73l2.5-172c61.3,112.18,138.69,167.95,216.64,204v104.25c-77.91-22-173.09-83.38-219.14-136.21Z" style="fill:#c71c25"/><path d="M500.63,1185c37.32,18.3,93.86,30.9,152.06,30.9l.35,98.22c-28.58,0-97-4.64-152.41-26.24,0,0,.1-77.12,0-102.89Z" style="fill:#fbcb0d"/><path d="M804.1,1185c-37.32,18.3-93.86,30.9-152.06,30.9l-.35,98.22c28.58,0,97-4.64,152.41-26.24,0,0-.1-77.12,0-102.89Z" style="fill:#fbcb0d"/><path d="M1023.09,1150.73s.52-126.45,0-172c-61.3,112.18-135.78,167.95-213.72,204v102.75C887.28,1259.77,977,1202.06,1023.09,1150.73Z" style="fill:#03935f"/><path d="M231.88,1317.7c18.19-.45,48.64,31.13,42.67,52.8-5.42,19.68-30.1,27.93-51.56,10-12.58-10.53-22.67-26.55-18.18-44.23,2.41-9.46,14.5-18.21,27.07-18.52Z" style="stroke:#f2cc6e;stroke-width:3.9000000953674316px;fill:url(#q)"/><path d="M409.93,1415.41c-22.26-12-55.81-33.28-72.05-24.56-16.73,9-18.36,38.31,3,52.46,22,14.59,39.44,6.87,47.67,3.76C397.63,1443.62,419.19,1420.41,409.93,1415.41Z" style="stroke:#f2cc6e;stroke-width:3.6236884593963623px;fill:url(#r)"/><path d="M157.23,932.77c10.19,6.23,25.82,43.91,16.32,59.82-5.6,9.39-13.83,13.06-22.41-9.51-5-13.23-9.88-33.36-6.85-45.67C145.92,930.81,151,929,157.23,932.77Z" style="stroke:#f2cc6e;stroke-width:2.504758596420288px;fill:url(#s)"/><path d="M652.69,1325C508,1325,376,1262.25,249.77,1149c-91.25-81.87-110.71-208.73-105.24-216.28,0,0,6.88-.26,5.3-.24-.76,0-9.43.27-10.49.3-23.18.51-139.91,25.09-136.2,69,2.09,154.32,164.13,263,208.79,296,17.7,13.1,105.33,63.7,42.66,92-17.64-3.69-25.89-4.57-40.77-19.83,22.5,35.91,65.95,66.48,149.73,80.57-14.82-4.91-32.39-11.12-35.59-25.41-11.16-49.82,49.86-36.52,84.1-8.41,37.69,31,138.52,43,240.64,43" style="fill:#fdf4c6;stroke:#f2cc6e;stroke-linecap:round;stroke-linejoin:round;stroke-width:6.099999904632568px"/><path d="M317,1203.77l47.24,38c12.74,10.24,10.77,30.44-9.65,50.85-45.85,45.85-63.93,101.26-109,98.86-11.87-.63-52.37-22.78-38.54-57" style="stroke:#f2cc6e;stroke-width:3.9000000953674316px;fill:url(#t)"/><path d="M492.9,1296.36l-51.67-14.73c-15.72-4.48-33-11.29-44.83,15-28.21,62.68-105.28,121-50.43,148.81,28.34,14.37,55,2.3,68-27.71" style="stroke:#f2cc6e;stroke-width:3.9000000953674316px;fill:url(#u)"/><path d="M6.47,992.72c-2.4,7.06.3,21.65.86,29.1C21.26,1207,241,1224.11,162.52,1013.74c-4-10.62-8.45-22.45-12.21-36.25-6.76-24.84-8-32.16-9.28-43.21C92.39,927.42,13.71,969.54,6.47,992.72Z" style="fill:url(#v)"/><path d="M1072.91,1317.7c-18.19-.45-48.64,31.13-42.67,52.8,5.42,19.68,30.1,27.93,51.56,10,12.58-10.53,22.67-26.55,18.18-44.23-2.41-9.46-14.5-18.21-27.07-18.52Z" style="stroke:#f2cc6e;stroke-width:3.9000000953674316px;fill:url(#w)"/><path d="M894.86,1415.41c22.26-12,55.81-33.28,72.05-24.56,16.73,9,18.36,38.31-3,52.46-22,14.59-39.44,6.87-47.67,3.76C907.16,1443.62,885.6,1420.41,894.86,1415.41Z" style="stroke:#f2cc6e;stroke-width:3.6236884593963623px;fill:url(#x)"/><path d="M1147.56,932.77c-10.19,6.23-25.82,43.91-16.32,59.82,5.6,9.39,13.83,13.06,22.41-9.51,5-13.23,9.88-33.36,6.85-45.67C1158.87,930.81,1153.77,929,1147.56,932.77Z" style="stroke:#f2cc6e;stroke-width:2.504758596420288px;fill:url(#y)"/><path d="M652.09,1325c144.68,0,276.71-62.73,402.92-176,91.25-81.87,110.71-208.73,105.24-216.28,0,0-6.88-.26-5.3-.24.76,0,9.43.27,10.49.3,23.18.51,139.91,25.09,136.2,69-2.09,154.32-164.13,263-208.79,296-17.7,13.1-105.33,63.7-42.66,92,17.64-3.69,25.89-4.57,40.77-19.83-22.5,35.91-65.95,66.48-149.73,80.57,14.82-4.91,32.39-11.12,35.59-25.41,11.16-49.82-49.86-36.52-84.1-8.41-37.69,31-138.52,43-240.64,43" style="fill:#fdf4c6;stroke:#f2cc6e;stroke-linecap:round;stroke-linejoin:round;stroke-width:6.099999904632568px"/><path d="M987.82,1203.77l-47.24,38c-12.74,10.24-10.77,30.44,9.65,50.85,45.85,45.85,63.93,101.26,109,98.86,11.87-.63,52.37-22.78,38.54-57" style="stroke:#f2cc6e;stroke-width:3.9000000953674316px;fill:url(#z)"/><path d="M811.89,1296.36l51.67-14.73c15.72-4.48,33-11.29,44.83,15,28.21,62.68,105.28,121,50.43,148.81-28.34,14.37-55,2.3-68-27.71" style="stroke:#f2cc6e;stroke-width:3.9000000953674316px;fill:url(#aa)"/><path d="M1298.32,992.72c2.4,7.06-.3,21.65-.86,29.1-13.93,185.23-233.66,202.3-155.19-8.07,4-10.62,8.45-22.45,12.21-36.25,6.76-24.84,8-32.16,9.28-43.21,48.65-6.86,127.32,35.26,134.57,58.43Z" style="fill:url(#ab)"/><path d="M653.48,1457.26c101.82,0,200.13-12,237.82-43L827.87,1295.4c-56.3,20.87-115.72,32.82-175.83,32.82-59.48,0-116.85-10.65-172.6-31.08l-64.14,117.49C453,1445.58,551.65,1457.26,653.48,1457.26Z" style="fill:url(#ac)"/><path d="M1045.83,1329.48c13.23-10.89,21-16.45,44.89-33.59,46.7-33.49,206-142.77,208-294,3.71-43.92-107.42-70.28-130.6-70.79-1.07,0-9.74-.29-10.49-.3-1.59,0,5.3.24,5.3.24,5.4,7.47-11.88,133.64-102,216.64-34.39,30.85-50.3,45.71-85.68,68.82" style="fill:url(#ad)"/><path d="M244,1320.55l-31.55-23.25c-44.72-33-207.24-141.17-209.33-295.49-3.71-43.92,113-68.5,136.2-69,1.07,0,9.74-.29,10.49-.3,1.59,0-5.3.24-5.3.24-5.47,7.55,14,134.41,105.24,216.28,34.39,30.85,51,45.35,86.4,68.46" style="stroke:#f2cc6e;stroke-linecap:round;stroke-linejoin:round;stroke-width:6.099999904632568px;fill:url(#ae)"/><polygon points="1154.35 1183.49 1154.35 1183.49 1154.35 1183.49 1154.35 1183.49"/><polygon points="1136.33 1200.87 1109.23 1171.45 1113.59 1167.43 1111.33 1164.97 1097.93 1177.31 1100.2 1179.77 1104.56 1175.75 1131.67 1205.16 1127.3 1209.19 1129.55 1211.62 1142.94 1199.28 1140.7 1196.84 1136.33 1200.87"/><path d="M1034,1259.84q-3.91-.86-10.18,1.28l-5.7,2q-6.2,2.12-8.89,1.69a8,8,0,0,1-5.93-9.39q.93-3.16,5-6,4.6-3.28,8.13-3.08t6.83,3.88l2.87-2.05-5.77-8.09a69.72,69.72,0,0,0-7.9,3.14,39.29,39.29,0,0,0-6.22,3.55q-6.21,4.43-7.74,9.55a11,11,0,0,0,1.92,10q3.07,4.3,7,5.19T1018,1270l6.08-2.07q5.63-1.9,8.11-1.44a7.09,7.09,0,0,1,4.46,3.19,7.57,7.57,0,0,1,1.35,6.95q-1.1,3.47-5.62,6.7-4.86,3.47-8.72,3.11t-7.07-4.63l-2.94,2.06,6.17,8.65h0a48.43,48.43,0,0,0,8-2.77,40.87,40.87,0,0,0,6.84-3.92q7-5,8.54-10.31t-2.4-10.84A11.18,11.18,0,0,0,1034,1259.84Z"/><path d="M1077.54,1224.83q-6.53-8.74-15.52-10.32t-17.13,4.49a23.54,23.54,0,0,0-6.07,6.49,20.13,20.13,0,0,0-2.86,7.87,22.7,22.7,0,0,0,.59,9.51,31,31,0,0,0,12.09,16.17,22.77,22.77,0,0,0,8.93,3.23,20.33,20.33,0,0,0,8.36-.51,23.84,23.84,0,0,0,7.94-4h0a23.87,23.87,0,0,0,6.07-6.45,20.52,20.52,0,0,0,2.84-7.9,22.4,22.4,0,0,0-.57-9.48A28.1,28.1,0,0,0,1077.54,1224.83Zm-5.67,30.26h0q-6.16,4.6-12.43,2.74T1047,1247.68q-6.19-8.28-6.21-14.83t6.12-11.17q6.13-4.58,12.42-2.69t12.47,10.15q6.17,8.26,6.21,14.83T1071.87,1255.09Z"/><polygon points="1115.47 1208.64 1120.47 1214.64 1104.09 1228.28 1078.84 1197.95 1083.4 1194.15 1081.26 1191.58 1067.26 1203.24 1069.4 1205.81 1073.96 1202.01 1099.56 1232.75 1095 1236.55 1097.12 1239.09 1097.12 1239.09 1125.89 1215.14 1118.43 1206.18 1115.47 1208.64"/><polygon points="1219.47 1011.68 1220.49 1007.97 1213.01 1005.9 1212.76 1009.82 1219.47 1011.68"/><path d="M1161.64,1146.6q-8-7.54-17.08-6.87t-17.38,9.41l-12.76,13.48,2.43,2.3,4.08-4.31L1150,1188.1l-4.08,4.31,2.41,2.28h0l12.76-13.48q8.27-8.74,8.41-17.89T1161.64,1146.6Zm-3.3,32.67-4,4.22h0L1125.29,1156l4-4.22q6.27-6.63,13.32-6.62t14.09,6.66q7,6.66,7.45,13.76T1158.34,1179.27Z"/><polygon points="1209.66 1005.88 1199.32 1043.13 1201.75 1044.16 1201.13 1045.6 1209.41 1047.9 1210.44 1044.2 1203.42 1042.25 1207.09 1029.03 1245.27 1039.63 1243.68 1045.38 1246.87 1046.27 1246.87 1046.27 1251.75 1028.68 1248.56 1027.8 1246.96 1033.55 1208.78 1022.95 1212.23 1010.52 1209.38 1010.34 1209.66 1005.88"/><polygon points="1212.23 1010.52 1212.72 1010.55 1212.76 1009.82 1212.45 1009.73 1212.23 1010.52"/><polygon points="1199.32 1043.13 1198.81 1044.96 1201.13 1045.6 1201.75 1044.16 1199.32 1043.13"/><polygon points="1209.66 1005.88 1209.38 1010.34 1212.23 1010.52 1212.45 1009.73 1212.76 1009.82 1213.01 1005.9 1209.89 1005.03 1209.66 1005.88"/><polygon points="1247.97 974.63 1247.73 978.47 1254.25 978.87 1252.88 1000.77 1233.38 999.54 1234.34 984.29 1240.17 984.66 1240.42 980.82 1224.95 979.85 1224.7 983.69 1230.54 984.05 1229.58 999.3 1213.98 998.33 1215.33 976.93 1221.85 977.34 1222.09 973.5 1211.73 972.85 1209.66 1005.88 1209.89 1005.03 1213.01 1005.9 1213.09 1004.63 1253.01 1007.13 1252.64 1013.06 1255.94 1013.27 1258.33 975.28 1247.97 974.63"/><polygon points="1195.74 1097.03 1195.74 1097.03 1195.74 1097.03 1195.74 1097.03"/><path d="M1228.65,1083.42l-15.38-1a12.56,12.56,0,0,0-4.86.48,8.87,8.87,0,0,0-3.63,2.23q2.07-5,1-8.67a10.4,10.4,0,0,0-5.22-6.15q-5.17-3-9.84-1.38t-8.06,7.48l-11.81,20.5,2.9,1.67,3-5.14,34.66,20-3,5.14,2.87,1.65,9.42-16.35-2.87-1.65-3.29,5.71-15.92-9.17,3.48-6a8,8,0,0,1,3.51-3.53q2-.89,6.74-.55l16.5,1.1,5.49-9.53-2.87-1.65Zm-28.3,5.62-4.6,8h0l-15.84-9.13,4.6-8q2.36-4.09,5.4-4.93t7.11,1.5q4.06,2.34,4.89,5.41T1200.34,1089Z"/><path d="M1204.24,1124.32l-44.56-13.06-3.19,4.17,24.37,39.51-2.48,3.25,2.63,2h0l8-10.43-2.63-2-3.11,4.07-5.78-9.32,11.91-15.6,10.52,3.11-3.15,4.12,2.63,2,10.3-13.49-2.63-2Zm-28.67,15.15-12.44-20.27,22.83,6.66Z"/><polygon points="1199.32 1043.13 1198.67 1042.85 1191.55 1059.62 1194.62 1060.93 1196.94 1055.46 1233.76 1071.1 1231.44 1076.57 1234.49 1077.86 1241.61 1061.1 1238.56 1059.8 1236.24 1065.27 1199.42 1049.62 1201.13 1045.6 1198.81 1044.96 1199.32 1043.13"/><path d="M208.32,1170.31l-4.36-4-46.72,23.34-3.4-3.11-2.52,2.75,10.89,10,2.52-2.75-4.25-3.89,11-5.54L187.8,1202l-4.54,11.47-4.31-3.94-2.52,2.75,14.08,12.89,2.52-2.75-3.81-3.49Zm-33.2,15,24-11.91-9.75,24.92Z"/><polygon points="191.57 1161.08 194.35 1158.54 183.96 1147.18 181.18 1149.72 185.17 1154.08 145 1169.85 164.27 1131.22 168.21 1135.52 170.98 1132.98 158.08 1118.87 155.3 1121.41 158.84 1125.28 135.45 1171.91 139.53 1176.37 188.13 1157.32 191.57 1161.08"/><polygon points="206.46 1232.74 234.83 1197.81 240.01 1202.02 242.39 1199.1 226.48 1186.18 224.1 1189.1 229.29 1193.31 200.92 1228.24 195.73 1224.03 193.38 1226.92 209.29 1239.84 211.64 1236.95 206.46 1232.74 206.46 1232.74"/><path d="M150.31,1107.95l-3.49-4.76-50.38,13.75-2.72-3.71-.28.21,1.17,2.22-2.69,1.42,7.53,10.27,3-2.2L99,1120.48l11.9-3.27L124,1135l-6.7,10.36-3.45-4.71-3,2.2,11.29,15.4,3-2.2-3.06-4.17Zm-35.49,8.19,25.83-7-14.43,22.53Z"/><polygon points="55.02 1034.95 55.02 1034.95 55.02 1034.95 55.02 1034.95"/><polygon points="113.51 1046.94 113.98 1047.84 101.27 1006.92 89.45 1010.59 90.73 1014.72 98.56 1012.29 103.14 1027.03 60.57 1040.26 58.57 1033.85 55.02 1034.95 61.11 1054.56 64.67 1053.45 62.67 1047.04 105.24 1033.81 109.82 1048.55 102 1050.98 103.28 1055.11 112.12 1052.37 110.18 1048.7 113.51 1046.94"/><polygon points="244.64 1205.75 250 1209.75 223.06 1245.8 217.71 1241.8 215.48 1244.79 249.22 1269.99 257.07 1259.49 253.6 1256.9 248.34 1263.94 229.13 1249.59 255.71 1214.02 261.06 1218.02 263.31 1215.01 246.9 1202.74 244.64 1205.75"/><polygon points="93.43 1113.43 90.71 1115.42 90.71 1115.42 91.91 1117.06 94.6 1115.64 93.43 1113.43"/><polygon points="113.98 1047.84 113.51 1046.94 110.18 1048.7 112.12 1052.37 115.1 1051.44 113.98 1047.84"/><path d="M90.71,1115.42l2.72-2L91.61,1110l10.22-14a14.13,14.13,0,0,0,2.46-4.91,10,10,0,0,0,.05-4.8h0q3.49,5,7.63,6.19t9-1.28q5.94-3.13,7.22-8.54t-2.27-12.15L114,1047.84l1.12,3.6-3,.93,1.18,2.24-39.81,21-3.11-5.91-3.3,1.74L77,1090.2l3.3-1.74-3.46-6.56,18.29-9.64,3.66,6.94a9,9,0,0,1,1.25,5.46q-.33,2.4-3.52,6.74l-11,15,5.77,10.95.61-.32-1.2-1.64Zm7.72-44.92,18.19-9.59,4.84,9.17q2.47,4.7,1.45,8.1t-5.69,5.86q-4.67,2.46-8.08,1.4t-5.86-5.77Z"/><polygon points="793.23 1392.13 794.16 1398.6 772.45 1401.73 769.66 1382.4 784.78 1380.22 785.62 1386 789.42 1385.45 787.21 1370.11 783.4 1370.66 784.24 1376.44 769.11 1378.63 766.88 1363.16 788.1 1360.1 789.03 1366.56 792.84 1366.01 791.35 1355.75 754.17 1361.11 754.65 1364.42 760.53 1363.58 766.25 1403.16 760.37 1404.01 760.84 1407.29 760.84 1407.29 798.51 1401.85 797.03 1391.58 793.23 1392.13"/><path d="M525.46,1362.55l7.2.84-4.84,41.5q-.79,6.77-2.52,8.92t-5.42,1.73a5.26,5.26,0,0,1-3.92-2,6.94,6.94,0,0,1-.93-4.73l-3.54-.41-.85,7.29h0a23.14,23.14,0,0,0,4.38,2.11,19.79,19.79,0,0,0,4.41,1q6.83.8,10.3-2.26t4.36-10.72l4.87-41.75,5.9.69.39-3.32-19.4-2.26Z"/><path d="M746.75,1396.13a13.94,13.94,0,0,1-4.28,7.8,14.18,14.18,0,0,1-8.37,3.14q-7.45.59-11.69-4.38t-5.06-15.21q-.81-10.25,2.61-15.82t10.86-6.19q6.26-.49,9.94,2t5.32,8.26l3.52-.28-.85-10.72a61.33,61.33,0,0,0-9.49-2.29,36.07,36.07,0,0,0-8.18-.36q-10.25.81-16,8t-4.88,18a28.41,28.41,0,0,0,2.48,9.93,22.77,22.77,0,0,0,5.83,7.5,20.48,20.48,0,0,0,7.28,4,22.59,22.59,0,0,0,8.57.89q7.41-.58,12-4.3a18.26,18.26,0,0,0,6.14-10.42h0Z"/><polygon points="640.53 1366.28 640.67 1377.28 644.51 1377.23 644.42 1369.95 658.14 1369.79 658.62 1409.41 652.65 1409.48 652.69 1412.79 652.69 1412.79 670.94 1412.57 670.9 1409.26 664.93 1409.33 664.45 1369.71 678.17 1369.54 678.26 1376.82 682.1 1376.78 681.97 1365.78 640.53 1366.28"/><polygon points="698.89 1408.35 697.25 1368.39 703.18 1368.14 703.04 1364.8 684.84 1365.55 684.98 1368.89 690.91 1368.65 692.55 1408.61 686.62 1408.86 686.75 1412.17 704.96 1411.42 704.82 1408.11 698.89 1408.35"/><path d="M624.59,1387.06l-5.74-1.85q-6.24-2-8.13-4a8,8,0,0,1,.88-11.08q2.64-2,7.58-1.86,5.65.13,8.35,2.41t3.15,7.2l3.53.08.23-9.93a69.7,69.7,0,0,0-8.2-2.22,39.27,39.27,0,0,0-7.11-.88q-7.62-.17-11.92,3a11,11,0,0,0-4.43,9.12q-.12,5.28,2.53,8.37t9.32,5.28l6.11,2q5.65,1.85,7.36,3.7a7.09,7.09,0,0,1,1.66,5.23,7.57,7.57,0,0,1-3.08,6.37q-3,2.12-8.52,2-6-.14-8.85-2.73t-2.88-7.94l-3.59-.11-.24,10.62h0a48.44,48.44,0,0,0,8,2.56,40.84,40.84,0,0,0,7.82,1q8.59.2,13-3.14t4.58-10.12a11.18,11.18,0,0,0-2.54-8Q630.89,1389.11,624.59,1387.06Z"/><path d="M580.92,1367.65l6,.41-1.66,24.07q-.61,8.92-3.79,12.24t-10.28,2.83q-7.14-.49-9.83-4.22t-2-12.64l1.66-24.07,6,.41.23-3.34-18.21-1.25-.23,3.34,6,.41h0l-1.7,24.69q-.73,10.57,3.11,15.28t13.66,5.39q9.79.67,14.18-3.44T589,1393l1.7-24.69,5.92.41.23-3.34-15.71-1.08Z"/><path d="M847.6,320.48c-7.95,6.36-20.73,22-25.06,30.69-1.9,3.8-3.25,7.3-3,7.76s1.92.88,3.71.92,4.58.13,6.19.19c9.47.37,28.54-6.76,38.38-14.34a70.5,70.5,0,0,0,20.28-26.18c5.72-13.4,5.21-14.76-5.24-14.05-12.37.84-23.44,5.55-35.26,15Zm36.9-8.22c.55,1.2.31,2.2-.64,2.63s-6.26,5-12.06,10.35a297.94,297.94,0,0,1-26,20.45c-8.47,5.93-16,11.4-16.7,12.15-1.44,1.51-4.18-.34-3.38-2.28.25-.62,7.78-6.24,16.72-12.49,9.49-6.64,20-14.84,25.17-19.72a148.19,148.19,0,0,1,12.45-10.69c3.23-2.13,3.62-2.17,4.42-.4ZM791,414c8.54,5.54,27.42,12.75,37,14.13,4.21.6,7.95.78,8.31.4s.23-2.1-.29-3.81-1.32-4.38-1.76-5.93c-2.63-9.1-15.4-25-25.69-31.92a70.5,70.5,0,0,0-31.23-11c-14.52-1.21-15.65-.3-11.69,9.4,4.69,11.47,12.65,20.5,25.35,28.74ZM771.55,381.6c1-.9,2-1,2.7-.22s6.75,4.36,13.62,8.19a297.93,297.93,0,0,1,27.58,18.2c8.3,6.18,15.85,11.59,16.79,12,1.88.89,1,4.08-1.1,3.93-.66,0-8.37-5.42-17.12-11.93-9.29-6.92-20.37-14.28-26.64-17.68a148.2,148.2,0,0,1-14.06-8.45c-3-2.39-3.2-2.75-1.77-4.07ZM652,782.51c-.93-1.51-4.51-7-8-12.25-6.41-9.71-25.68-48.37-24.64-49.42,1.88-1.88,4.18-.16,6.25,4.67,6.7,15.6,16.63,34.58,23.37,44.63,4.19,6.26,7.62,12.22,7.62,13.25,0,2.77-2.71,2.26-4.65-.88ZM347.11,526.61c-10.6-1.22-19.76-4.51-25.48-9.13l-2.46-2,2.93-4.23c8.17-11.78,26.35-23.44,41.51-26.62,11.41-2.39,29.09-1.47,39.5,2.06,9.32,3.16,17.5,7.38,17.5,9s-12,11.37-20.79,16.73c-9.25,5.64-21.17,10.5-30.14,12.28-7.51,1.49-18.16,2.37-22.57,1.87Zm24.5-6.47c9.86-2.51,28-11.48,35.5-17.59,3.3-2.68,6-5.3,5.93-5.83s-1.39-1.59-3-2.37-4.11-2-5.56-2.73c-8.47-4.25-28.78-5.64-40.88-2.79a70.5,70.5,0,0,0-29.28,15.47c-10.74,9.84-10.84,11.29-1,15,11.61,4.34,23.64,4.63,38.31.9Zm-37-7.75c0-1.32.63-2.13,1.67-2.13s7.79-2,15.26-4.44a297.93,297.93,0,0,1,32.08-7.9c10.17-1.9,19.27-3.78,20.23-4.16,1.93-.78,3.67,2,2.14,3.47-.49.46-9.66,2.47-20.38,4.47-11.38,2.13-24.31,5.27-31.07,7.56a148.2,148.2,0,0,1-15.75,4.59c-3.82.61-4.19.48-4.19-1.46Zm299,586.67c21.27-10.7,35-34.2,35-59.8,0-11.93-.56-12.24-10.93-6-20.78,12.49-34.12,27.57-39.23,44.36-1.63,5.36-2,8.69-1.66,15.52.23,4.78.79,9.3,1.24,10,1.23,2,5.86.77,15.55-4.09Zm-11.6-2.24c-.64-1.66,2-5.81,8.35-12.93,5.75-6.49,13.23-17.31,22.64-32.76,8.5-14,10.24-16,11.24-13.4s-19.67,35.7-30.42,48.33c-3.15,3.7-6.52,8-7.48,9.48-1.94,3.05-3.48,3.51-4.33,1.29Zm-12.24-96.57c20.56-12.14,33.77-37.32,32.65-62.24-.59-13-1.42-13.41-11.57-5.77-15.48,11.67-26.82,26.59-32.56,42.85-2.54,7.18-3.06,10.17-3,17.22.06,10.34,1.35,13.44,5.19,12.5a52.87,52.87,0,0,0,9.3-4.56ZM598,997.83c-.65-1.69.26-3.25,11.78-20.23,3.66-5.4,10.58-17.38,15.36-26.62,8-15.45,10.47-18.63,11.28-14.51.4,2.06-15.62,32.25-22.65,42.69l-9.45,14c-4.19,6.2-5.39,7.08-6.32,4.66Zm100.87.39c6.39-12.57-7-39.52-30.7-61.66a160.56,160.56,0,0,0-12.67-10.86c-3.85-2.67-4.18-2.74-5.4-1.07-3.48,4.76-3.66,18.41-.38,28.55,3.51,10.85,13.85,25.61,24,34.21,6.93,5.89,20.93,15,22.34,14.61.59-.19,1.87-1.88,2.83-3.78ZM687,991.13a113.31,113.31,0,0,0-6.84-10.25c-9.34-12.73-29.26-48.7-28-50.66,1.61-2.6,3.9.44,11.93,15.81,8.17,15.65,10.71,19.82,22.86,37.58,2.57,3.76,4.67,7.69,4.67,8.75,0,3-2.78,2.26-4.58-1.23ZM610.27,922c12.73-13.84,18.63-28.87,18.51-47.21-.08-12.69-2.06-20.49-8.51-33.54-2.12-4.29-4.08-3.55-8.46,3.2-14.26,22-20.37,47.8-15.63,66.11,2.36,9.11,6.11,15.69,8.95,15.69.67,0,3-1.91,5.13-4.25Zm-6-5.43c-.92-.92.08-6.31,2.84-15.32,3-9.81,5.1-20.62,7-36,2.48-20.14,2.44-20,4.69-20,1.75,0,1.93.48,1.43,3.75-.32,2.06-1.53,11.17-2.69,20.25a255,255,0,0,1-4.65,26c-1.39,5.22-3.24,12.31-4.1,15.75-1.44,5.73-2.74,7.34-4.51,5.57Zm96.13-22.89c3-10.14-12.6-30.31-34.32-44.48-10.84-7.07-33.07-18.06-35.51-17.55-2,.41-1.79,4.62.5,13,5.61,20.48,28,39.61,57.65,49.25,8.7,2.83,10.79,2.79,11.67-.21Zm-12.25-4.73a101.72,101.72,0,0,0-9.66-7.93c-4.48-3.37-10.76-8.38-14-11.15C655.43,862,632.8,839,633.16,838c.92-2.55,4.13-.12,19,14.34C661,861,672,871,676.62,874.43c12.25,9.26,15.57,12.35,15.27,14.22-.37,2.3-1.93,2.4-3.74.25Zm249.28-17c5-10.53-.18-32.08-12-49.51-9.79-14.47-25.72-30.36-28.3-28.23-1.86,1.54-3.74,11.42-3.71,19.49.08,20.14,12.58,42.19,32.17,56.73,7.22,5.36,9.82,5.7,11.82,1.52Zm-10.31-8a125.93,125.93,0,0,0-6.62-11.75,167.42,167.42,0,0,1-8.21-14.93c-5.19-11.34-14.68-34.44-14.68-35.75,0-.69.79-1.25,1.75-1.25,1.28,0,2.92,2.87,6.13,10.75,6.39,15.67,15.07,33.53,21,43.16,2.83,4.63,5.15,9.47,5.15,10.75,0,3.51-2.87,2.88-4.49-1ZM578.4,838q13.38-11.31,22.78-30.25c7.52-15.17,9.68-23.85,9.8-39.5.11-13.42-.61-18-2.8-18-1.55,0-8.89,8.23-16,18-14.88,20.34-23.86,43.32-23.85,61,0,8.09,1.3,14,3.06,14,.45,0,3.61-2.36,7-5.25Zm-4.79-6.25c0-.83,2.5-6.34,5.57-12.25,7.4-14.29,11.37-23.43,19-43.63,3.49-9.29,6.79-17.33,7.34-17.88a2.51,2.51,0,0,1,2.47-.44c3.65,1.4-28.29,75.57-32.58,75.66a1.6,1.6,0,0,1-1.75-1.46Zm302.85-22.36c6.58-15.29,4.25-35.39-6.52-56.34-4.5-8.75-11.91-19.3-16.59-23.62l-2.52-2.32-1.61,2.3c-2.42,3.46-2.07,5.85.85,5.85,2.73,0,2.7-.08,6.58,17,3.45,15.17,6.92,26.67,11.08,36.66,4.36,10.49,5.25,15.58,2.81,16.09-1.14.24-2-1.15-3.16-5-.87-2.91-3.24-9.25-5.25-14.09s-5.48-16.31-7.7-25.5S850,742,849.45,740s-1.34-3.75-1.84-3.75c-1.35,0-3.77,8.92-4.55,16.76-1.22,12.34,2.54,28.67,9.27,40.23,4.26,7.35,17.38,21,20.17,21,1.25,0,2.52-1.56,3.94-4.87Zm77.15-44c3.43-1,3.61-3.39.62-8.5-9.65-16.47-41-30.37-72.86-32.27-10.22-.61-10.75-.55-10.75,1.31,0,2.74,5.32,10.94,10.84,16.72,10.74,11.24,29.92,20.46,47.66,22.91,5,.69,21.82.56,24.49-.18Zm-11-5.12a76.29,76.29,0,0,0-10-3.58c-17-5.22-57-24.09-57-26.92,0-2.43,2.49-1.77,12.77,3.38,17.35,8.7,32.46,15.28,43,18.73,12.33,4,16.24,5.94,16.24,7.92,0,1.67-2.75,1.93-5,.47Zm-144.84-2.59c17.89-14.83,27-40.55,22.76-64a55.37,55.37,0,0,0-2.35-8.93c-.7-1.65-1.68-4.35-2.19-6-1.57-5.09-3.72-4.22-10.33,4.19-7.7,9.78-16.44,27.21-19.18,38.2s-2.3,25.77,1,34.35c2.69,6.92,4.13,7.22,10.24,2.15Zm-4.48-5c-1.49-1.49-.49-5.92,3.84-16.84s9.84-30.46,12.52-44.24c1.37-7,3-9.86,5.13-9,1.21.47.58,4.08-3.74,21.41-2.86,11.47-6.41,24-7.89,27.85s-3.74,9.86-5,13.35c-2.45,6.68-3.7,8.63-4.84,7.5Zm189.14-59.19c.86-15.18-9.12-34.22-27.82-53.1C942.45,628,934,624.1,931.6,625c-2.54,1-1.56,11.44.41,21.18,4.47,22.16,19.88,42,42,54.11,6.65,3.64,7.91,2.6,8.45-7Zm-11.16-.84a130.2,130.2,0,0,0-7.47-10.9c-3.31-4.45-7.87-11.12-10.14-14.83-6.79-11.1-19-34.31-19-36.08,0-4.64,4,.49,12.2,15.5,8.36,15.38,13,22.8,24.38,38.88,2.48,3.51,4.38,7.07,4.21,7.92-.52,2.68-2.63,2.43-4.14-.49ZM757,697.17c5.72-6.11,11-17,13.05-26.79,2.93-14,1.75-33.85-3-49.66-2.27-7.61-2.83-8.2-5.93-6.17s-3.5,5.65-.51,5.65c1.74,0,2,.45,1.53,2.75-3.28,16.35-6.65,42-7,53.25-.41,13.26-1,17-2.66,17s-1.78-1.93-.88-20a284,284,0,0,1,3.76-34.67c1.68-9.56,2.5-16.73,2-17.5-2.11-3.22-13.06,15.54-16.46,28.2-1.17,4.36-1.74,10.13-1.73,17.5,0,9.34.43,12.21,2.75,19,3.17,9.28,7.11,16.5,9,16.5.73,0,3.43-2.26,6-5Zm-191.09-1.72c18.18-9.55,32-31.35,34.22-54.06.78-7.92-.06-14.61-1.72-13.59-.59.36-4.62,8.09-9,17.18-8.15,17-13.22,26.14-17.93,32.22a62.05,62.05,0,0,0-5,8c-2.44,4.75-3.81,6.19-5.12,5.38-1.93-1.19-.31-4.92,6.62-15.26a263.18,263.18,0,0,0,15-26.84c11.26-23.46,10.88-22.81,13.28-22.56s3.43-1.55,2.62-4.62-2.84-2.62-8.18,1.31c-15.73,11.57-30.09,32-34.56,49.29-2.64,10.27-1.63,27.3,1.64,27.3.55,0,4.21-1.68,8.13-3.74Zm310.51-9.28c6.24-.55,12.2-1.46,13.25-2,2.68-1.44,2.38-5-.84-9.72-5.86-8.67-16.69-14.67-35.08-19.42-10.12-2.62-14-3.09-29.28-3.54-13-.39-17.8-.21-18.34.66-1.22,2,4.33,11.85,9.56,17,8.86,8.72,24.52,15.3,40.41,17,4.39.46,8.21.9,8.48,1s5.6-.33,11.84-.88Zm1.13-4.94a94.67,94.67,0,0,0-11.5-3.43c-13.15-3.34-18.83-5.32-38.22-13.3-14.87-6.12-18-8.12-15.28-9.8.54-.33,7.4,2.06,15.25,5.3,20.12,8.32,24.59,9.89,39.21,13.79,13.62,3.63,15.79,4.64,14.9,7-.62,1.62-2.13,1.78-4.36.47Zm27.66-58.88c2.27-12.1-9.12-32.8-28-51C867,561.54,850,548.82,848.13,549.54c-2.39.92-2.95,9.29-1.17,17.57,3.53,16.46,14.83,32.91,31.11,45.27,9.73,7.39,23.16,14.9,25.21,14.12.71-.27,1.59-2.13,2-4.14Zm-14.89-8.45c-2.07-2.86-6.73-8.59-10.35-12.71-7.07-8-29.58-41.24-29.77-43.9-.32-4.49,3.79,0,13.94,15.14,11.49,17.18,14.4,21,25.08,33.39,6.85,7.91,8.76,10.93,7.86,12.39-1.22,2-3.07.79-6.75-4.31Zm-506.1,2a104.92,104.92,0,0,0,23.56-42.45c2.47-9,3.25-33.24,1.15-35.34-1.7-1.71-2.42.1-8.74,21.85-3.08,10.61-7.68,24.34-10.23,30.5s-5.54,13.81-6.66,17c-1.46,4.18-2.47,5.7-3.62,5.46-2.53-.52-1.51-4.8,4.55-19.17,3-7.2,8.44-23,12-35.06s6.74-22.36,7-22.84,1.38-.64,2.42-.37c1.5.39,1.88,0,1.87-2.16a9,9,0,0,0-1-4.16c-.84-1.25-1.61-.83-4.57,2.5-5.25,5.91-12,16.33-17.4,27C373.48,580.56,369,603.16,373.15,617c2.05,6.91,3.78,6.74,11.1-1.09Zm440,1.81c.89-2.32-1.31-7.63-5.4-13-10.73-14.15-34.07-26.07-62.59-32-9.86-2-14.64-2-14.64,0,0,2.54,5.52,12.64,9.94,18.17,9.94,12.46,31.46,24,50.72,27.25a110.84,110.84,0,0,0,13.12.93c6.41.09,8.41-.21,8.84-1.34Zm-13.15-4.39c-1.64-1-8.15-4-14.47-6.74-12.71-5.46-50-27.14-50-29.08,0-3,3-1.85,17.81,7,8.69,5.23,21.18,12,27.75,15.14,20.54,9.69,22.63,10.79,23.18,12.22,1,2.56-1.18,3.27-4.26,1.41ZM666.7,615.58c.82-1,1.49-5.2,1.74-10.94.33-7.59,0-10.69-1.8-16.61-4.26-14-10.46-24.14-22.48-36.69-8.4-8.77-16-14.57-18.06-13.79-.86.33-1.48,1.84-1.48,3.59,0,2.45.39,3,2,2.78,2.46-.29,2.61-.05,13.08,21.68,4.48,9.31,11.07,21.22,14.63,26.47,6.91,10.2,8.64,13.67,7.84,15.76-.66,1.72-3.35.65-4.07-1.64-.31-1-3.52-6.23-7.13-11.66S640.2,576,635,565.44s-9.83-19.25-10.36-19.25c-3,0-1.79,18.63,1.92,29.42,5.66,16.46,17.13,30.65,30.54,37.8,8.11,4.32,7.84,4.26,9.57,2.18Zm-92.09-5.2c10-4.8,22.92-17.54,28.22-27.74,4.31-8.28,7.72-19.95,8-27.55.34-7.91-1.64-7-8.05,3.6-9.93,16.45-17.79,27.91-24.67,36-3.75,4.4-7.27,9-7.84,10.25-1.06,2.33-3.14,3-4.19,1.28-.95-1.53,1.81-6,8.44-13.53,6.11-7,13.69-18,25.42-37,5-8.17,6.57-9.95,8.32-9.7,2.36.33,3.79-2.37,2.72-5.16-.86-2.24-2-2.08-7.33,1C587.94,551,573.36,566.38,566,581.59c-7.72,16-8.3,35.17-1,33,1.16-.34,5.48-2.25,9.61-4.24Zm-108.85,5.1c16.46-7.87,28.35-21.65,34.3-39.75,3.32-10.1,4.39-17.81,2.56-18.43-.63-.21-5.09,5.37-9.91,12.41-11.62,17-16,22.59-25.48,32.84-4.38,4.73-8,9-8,9.53,0,1.27-2.73,1.18-3.53-.11-.92-1.49,1.87-5.38,10-14,7.81-8.21,14.33-16.77,25.42-33.34,6.5-9.71,7.5-10.78,9.65-10.24,2,.49,2.51.15,3-1.92a4.94,4.94,0,0,0-.61-4c-1.09-1.31-2.08-1-7.86,2.11-22.61,12.35-39.92,32.78-44.61,52.66-2.82,12-1.45,18.25,3.73,17.06a102.46,102.46,0,0,0,11.27-4.82Zm-2.18-95.21c11.23-11.43,15.44-22,22.39-34,4.29-7.44,8.14-18.6,6.29-18.6-4.13,0-34.66,16-44.17,26.24C433,510.25,424.17,529,426.76,539.36c.84,3.36,2.64,3.28,10.54-.46A92.82,92.82,0,0,0,463.58,520.28ZM433.37,533a71.7,71.7,0,0,1,8.3-10.82c10-10.61,17.19-19.55,29.61-37,5.18-7.28,9.68-13.23,10-13.22a6,6,0,0,1,2,.89c3.08,2-42.85,60.58-48.52,61.91-3.47,1.76-1.37-1.74-1.37-1.74Zm472.5-6.41c3.25-1.34,3.42-3,.82-8C901,507.5,882,498.29,856.93,494.53a183.85,183.85,0,0,0-20.75-1.08c-15.48,0-15.21-.2-11,8.19,6,11.88,21.67,21.85,40.48,25.77,6,1.24,36.7.64,40.17-.79Zm-15.25-4.26c-3-1-9.78-3-15-4.39-9.63-2.64-43.71-15.85-46.81-18.14-1.3-1-1.42-1.52-.5-2.45s5.38.49,20,6.39c10.35,4.18,23.09,8.77,28.32,10.21,21.49,5.92,21.5,5.92,21.5,7.91,0,2.51-1,2.58-7.5.47ZM546.37,558.1c25-8.84,41.87-30.86,45.34-59.34.87-7.16-.53-7.47-11-2.44-24.08,11.55-41,29.3-46.91,49.11-1.64,5.54-2.15,13.2-.94,14.4s6.94.59,13.54-1.74Zm-7.89-5.2c-.44-1.16,3.2-5.32,12.9-14.75,7.43-7.23,18.33-19.1,24.22-26.39s11.14-13.25,11.67-13.25,1.21.64,1.51,1.42c.59,1.53-17.26,23.81-27.29,34.08-7.1,7.26-21.24,20.5-21.9,20.5-.26,0-.75-.73-1.09-1.61Zm-30.41-2.17c0,1,0,2,0,3a84.13,84.13,0,0,1-2.4,20.65c-1.32,5-5.06,12.49-6.07,14.26h0c-9.67,17.05-27.32,30.82-44.73,34.88-7.47,1.74-7.87,1.4-8.74-7.42-2.13-21.5,13.48-47.35,39-64.69,7.89-5.35,18-8.47,21.75-11s13.23-11.38,19.42-15.81c20.79-14.88,37.25-25.25,73.57-41.92,1.15-.53,2.77-.57,7.49-5.41,6.87-7,12.59-16.32,15.16-24.59,2.29-7.36,3.54-20.42,2.17-22.48-1.14-1.71-.19-2-19.08,6.28-23.26,10.22-47.73,17.9-88.49,27.78-9.35,2.26-17.72,4.51-18.61,5s-2.84,4.37-4.35,8.65c-5.12,14.87-20.32,44.18-37.8,53.9-6.5,4.93-24.11,14.19-29.19,15.34-2.48.56-2.78.28-3.87-3.73-1.4-5.15-1.32-14.91,1.44-21.57,12.16-29.4,37.66-44.74,51.43-51.55-30.06,12.11-48.16,30.73-64.79,58.8l1.36,5.3c2.15,8.35,1.63,30.51-.93,39.95A104.86,104.86,0,0,1,398.08,605c-5.91,9.07-20.67,24.71-22.73,24.1-.68-.2-2.52-2.92-4.09-6-10.83-21.51,3.64-66.88,31.46-98.65,3.52-4,8.14-9.85,10.26-12.95,12.23-17.86,28.73-32.93,45.52-41.59,7.52-4.34,24-12.16,40.8-14.85,2.63,1.12,50.17-11,80.21-20.35,20.53-6.37,31.15-10.75,42.91-17.71,14.44-8.54,20.3-14,24.93-23.4,3.41-6.89,3.81-8.55,4.12-17,.19-5.14.08-10.4-.24-11.69-.41-1.64-4.09-4.52-12.35-9.65-32.72-20.33-77.62-52.12-118.53-83.94L513.58,266c-7.7-5.52-15.88-12.9-22.26-18-14.48-11.56-29.91-24.24-43-34.91-11.48-9.51-13.28-12.06-12.28-17.4.79-4.23,4.91-6.32,12.45-6.32,12.38,6.86,20.38,18.6,31.06,27.34,9.31,7.55,19.35,15.91,27.5,22.64,11.13,12,21.13,18.4,33.5,27.82,0,2.07,51.08,38.73,83,59.55,10.72,7,21.89,14.33,24.81,16.28s9,5.52,13.5,7.93c21.87,11.67,25.41,12.59,55,14.36,19.68,1.18,52.61.26,91.93-2.37,3.52-1.47,10.45-15.21,16.25-23.74,6.09-9,14.94-18.31,22.38-23.64,6.22-4.46,15.56-9.66,19.78-11h0c10.16-3.27,19.86-4.06,27-2.2l3.06.8-.92,5.06c-2.57,14.1-14.32,32.23-26.81,41.39-9.4,6.89-25.7,12.38-40.86,16.22-4.81,1.22-30.32,3.62-63,5.38,13.44-.47,33.28,4,45.9,13,9.5,6.76,20.83,20.37,25.3,30.4,4,9,6.46,17.86,5.24,19s-16.49-1.09-26.4-3.91c-10.42-3-22.08-8.42-29.48-13.8-6.19-4.5-14.07-11.73-16.69-15.31h0c-6.66-9-8.43-16.43-13.45-25.19a123.07,123.07,0,0,0-30.54.74c-16.22,2.22-19.5.93-19.5,2.19,0,.83,6.53,7.57,14.5,15,20.14,18.73,55.64,54.44,79.86,80.28,5.36,5.72,10.34,10.94,14.14,14.83,5.41,1.81,8,.9,8,.9h15.93c17.65,0,28.48,2.78,42,6.21,17,4.31,25.37,11.52,31.07,21,3.54,5.91,4,13.32,1.35,14.33-4.65,1.78-17.4,2.88-30.47,2.42-14-.49-22-1.57-34.06-6.2-3.63-1.39,2.67,2.36,17.83,19.71,9.13,10.45,26.5,30.81,38.59,45.25s15.54,17.57,24.54,25c4.15,3.42,10.37,6.83,13.45,8.91,18,12.18,35.65,32.1,40.56,49,4.82,12.73,3.2,33.3-2.63,33.3-3.42,0-19.52-10.54-27.39-17.92-12.21-11.46-20.71-24.67-24.21-37.64a102.75,102.75,0,0,1-2.23-16.13l-.63-10.19-7.93-8.56c-4.37-4.71-8.28-8.56-8.69-8.56s-.71,3.71-.67,8.25c.07,8.76-1.95,14.75-5,14.75-5.23,0-26.24-13.81-37.46-24.63-18.18-17.52-27.2-38.34-24-55.37.57-3,1.3-7.08,1.61-9,.58-3.49.46-3.62-48.76-52.52-47.61-47.3-68.85-67.46-86.84-82.4-4.67-3.88-9.06-7.07-9.75-7.07-1.66,0-1.63.47,1.21,20.32,3.11,21.68,4.56,43.88,3.84,58.67-.48,9.83-.24,12.81,1.68,20.5,4.47,17.93,16.21,43.4,28.18,61.15,2.65,3.93,3.12,4.19,9.07,4.84,42.54,4.7,78.84,24.74,85.35,47.12,2.54,8.73,2.43,8.85-8.93,9.18-14.73.43-27.92-2.3-44.9-9.28-3.64-1.5-1.4,1.9,11.5,17.48l13.25,16h17c25.68,0,42.39,3.05,58.11,10.55,12.47,5.95,20.25,14.54,21.85,24.13.58,3.46.38,4.34-1.13,5.14-7.54,4-42.35,4.15-54.67.22-3.77-1.2-7.13-1.9-7.47-1.55-.94.94,1,3.76,16.32,23.41,4.57,4.88,7,9.13,9.72,10.66,4.64,2.58,5.45-.88,26,.27s50.69,10.86,66.36,26.61c6.45,6.48,9.37,11.53,10.19,17.64.5,3.72.44,3.81-3.36,4.61-2.13.45-9.95.79-17.37.74-21.62-.12-38.4-5.44-54.48-17.29-3.86-2.83-7.37-5.14-7.83-5.14s.79,2.81,2.77,6.25c5.22,9.06,11.27,21,13.56,26.87,1.56,4,4.39,7.35,13,15.63,23.65,22.66,35.27,43.94,35.38,64.75,0,7.9-.3,9.7-2.78,14.75-1.55,3.16-3.47,5.75-4.27,5.75-4.42,0-21.31-13.59-30.15-24.26-10.29-12.42-14.92-23.91-16.21-40.24-.88-11.14-2.71-18.5-4.61-18.5-.69,0-1.55,1.75-1.91,3.89-.8,4.71-5.58,15.09-7.81,16.94-1.38,1.14-2.27.88-6.16-1.8-26.2-18-36.77-52.24-25.91-83.86,1.45-4.22,2.6-8.48,2.56-9.45-.12-2.57-17.35-24.72-19.24-24.72-.36,0-.94,4.61-1.29,10.25-.77,12.6-2.4,18.79-7.81,29.75-3.36,6.8-5.92,10.2-12.78,17-10,9.93-13.21,12-15.62,10s-6-9.69-7.45-15.85c-1.83-7.74-.79-25.7,2-34.61a123,123,0,0,1,17-32.92c4.93-6.57,5.76-8.25,4.91-9.84-1.23-2.29-20.28-24-24.74-28.18-1.92-1.8-3.48-2.58-4-2s-1.09,7-1.35,14.44c-.52,15.26-3.05,24.79-9.32,35.1-3.44,5.66-10.19,12.62-14.45,14.9-2,1.08-2.53.94-4.16-1.14-3.22-4.1-8.74-16.11-10.52-22.87-1.13-4.29-1.7-10.24-1.69-17.5,0-17.1,4.41-30.19,14.77-44.25,2.53-3.44,4.61-6.73,4.61-7.31s-2.68-4.58-6-8.88c-20.92-27.48-45.51-70.32-53.72-93.56-2.65-7.49-2.81-8.87-2.56-21.68.38-19.7-2.92-47.46-11.17-94.21-2.43-13.77-2.49-13.93-6.73-18.25-3.94-4-6.72-5.45-7-3.61-.05.41-.21,13.13-.36,28.25-.29,30.92-1.36,39.47-6.83,55-3.52,10-6.18,15.64-10,21.28-1.95,2.87-19.23,44.83-21.15,51.35-.5,1.71.41,3,4.65,6.47,17.64,14.5,24.5,22.85,32.38,39.4,4.61,9.67,6.41,17.44,6.35,27.46,0,9.42-2.43,18.34-5,18.83-3.56.66-18.24-7.8-25.41-14.66-9.7-9.27-14.52-16.65-19-29.07-1.69-4.71-3.51-8.56-4.05-8.56-1.18,0-2.79,7.73-5.11,24.5-2.37,17.18-2.37,55.62,0,73,.94,6.88,2.16,16.78,2.71,22,2.05,19.28,1.36,17.36,7.71,21.5,3.14,2,11.41,9.53,18.38,16.61s13.16,12.89,13.75,12.89,1.07,1.39,1.07,3.08,1.34,6.14,3,9.88c5.9,13.45,7.61,28.3,4.48,38.86-1.59,5.34-2.44,6.12-4.29,3.89-.77-.93-.68-2.4.33-5.25,1.84-5.17,1.84-15.38,0-23.2-2.74-11.64-9.83-24.65-19.92-36.58-4.44-5.28-19.27-17.66-21.14-17.66-1.6,0-2.29,3-3,13-1.6,21.59,9.24,46,26.06,58.62a88.35,88.35,0,0,0,9.9,6.51c4.32,2.2,4.3,2.92-.08,3-6.7.19-23.14-14.57-30.63-27.5-2.14-3.69-4.27-6.71-4.75-6.71-1.4,0-1,14.42.71,25.38,2.9,9.28-1.83,27.25,8.28,38.84,1.27,1.46.23.78,4.82,2.46a183.11,183.11,0,0,1,35.24,18.19c25.83,17,37.3,31.09,38.23,46.93a17.16,17.16,0,0,1-1.08,7.22l-1.35,2.63-6.3-1.59c-20.87-4.34-43.11-16.8-55.65-31.63-5-5.71-7.87-12.19-7.87-9.61,0,1.84,15,54.22,15.77,55.39a13.92,13.92,0,0,0,3.61,2.4c3.47,1.79,13,10.48,25.55,23.37,19.55,20,29.62,41.64,26.3,56.47-1.34,6-4.33,10.53-6.95,10.53-2.34,0-18.46-10.56-25-16.38-3-2.63-5.75-4.39-6.21-3.93-.72.72,3,24.07,6,38.31,2.56,11.85-.1,35.55-5.31,47.28-6,12.19-22.49,26.94-30.14,29.87-8,4.18-17.62,7.4-19.69,6.61-3.58-1.37-5-20.77-2.28-31.2,3.65-14,16.63-31,31.89-41.71,8.87-5,17.5-10.24,14.09-14.46a73.47,73.47,0,0,0-1.5-7.89,73.16,73.16,0,0,1-1.49-9,39.68,39.68,0,0,0-2.47-10,33.76,33.76,0,0,1-2.34-8.3c-.66-5.46-7.12-19.2-9-19.2-.79,0-2.21,1.91-3.14,4.25-5.18,12.95-19,27.64-32.53,34.57-10.37,5.31-12.57,5.38-14.73.43-2.72-6.23-2.2-21.87,1.05-31.75,6-18.07,17.07-32.25,38.63-49.3,2.42-1.92,2.43-2,1.23-9.83-1.42-9.31-3-15.37-4-15.36-.39,0-2.38,3.26-4.43,7.25-5.71,11.1-18.9,25.68-22.12,24.44-2-.76-7.3-9.19-9.83-15.59-1.9-4.82-2.22-7.58-2.26-19.6,0-15.13.81-19.76,6.38-34.2,2.93-7.6,9.79-19.47,16.19-28l3.14-4.19-2.22-9.81c-3.52-15.48-4.06-17.2-5.4-17.2-.69,0-1.79,1.46-2.44,3.25-2.25,6.22-11.21,19.53-18.14,27-7.68,8.24-16.92,15.8-19.29,15.8-2.62,0-5.21-10.33-5.13-20.5.12-15.32,5.85-32.72,16.84-51.14,4.88-8.18,8.9-13.58,20.35-27.36l2.91-3.5,1.15-26.18c.81-18.32.85-29.43.14-37-.56-6-1.29-14.33-1.63-18.62s-1-7.66-1.59-7.48-2.22,3.28-3.75,6.89c-3.82,9-8.78,16.22-16.62,24C575,695.48,563,703,557.48,703.91c-3.09.5-3.49.27-4.72-2.79-2.24-5.55-2.66-22.31-.75-29.85,4.8-18.91,18.74-38.46,37.43-52.49,9-6.75,10.83-7.53,11.8-5,1.08,2.81,2.17,1.51,2.73-3.25,1.72-14.78,1.82-20.25.36-20.25-.8,0-2.73,1.85-4.29,4.1-3.93,5.67-13,13.69-20.58,18.17-7.8,4.62-19.4,8.56-20.87,7.09-1.67-1.67-3.17-13.44-2.46-19.37,1-8.37,5.12-19.7,10.08-27.67,5.14-8.27,15.89-20.14,23.71-26.17,9.25-7.14,21.74-14.18,24.1-13.59,1.94.49,2.5-.61,6.47-12.63a272,272,0,0,1,13.14-30.8,321.35,321.35,0,0,0,13.14-30.15l4.34-12.5.34-17.25c.3-15.21.16-17.25-1.24-17.25-.87,0-1.58.44-1.58,1s-1.91,2.23-4.25,3.74a33,33,0,0,0-4.85,3.58c-.33.45-.88,5.86-1.21,12-1.15,21-6.44,34.93-18,47.29a212.67,212.67,0,0,1-24.62,21.89c-2.53,11.8-6.24,25.24-13,33.93-5.37,6.92-23.93,30.26-52.25,28.26-2.47-2.2-6.12-25.19,17.84-48.66-8.53,6.4-14,11.08-20.73,17s-12.14,11-19.56,18.44" style="fill:#debd65;stroke-linecap:round;stroke-linejoin:round;stroke-width:3.200000047683716px;stroke:url(#af)"/><path d="M965.08,2.07c-21.71,3.84-43.26,9.09-65.22,11.75-28.81,3.81-59.4,6.35-87-4.47a56.71,56.71,0,0,0-34.16-1C771.24,9.29,764,6,756.45,6.89c-29.2.87-59.68,10.58-80.53,31.69-15.17,15-14.76,39.17-30.59,53.66-3,2.42-7,8.53-11.34,5.72-8.07-7.53-14.26-20.48-26.62-20.75-3.49,1-7.75.64-9.25-3.25-5.13-9.63-14.56-20-26.62-16.81-3.66,1.17-8.84,2.79-10.75-2-6.33-7.6-13.44-18.57-24.66-17.69-3.74,1.9-8.26,1.53-11.16-1.66-6.59-4.05-14-10.4-22.41-8.81-4.69,2-10.15,2.86-14.37-.69-7.9-4.34-17.58-10-26.84-7-5.66,1.54-9.52,9.89-15.84,6.72-11-5.56-25-10.29-36.06-2.25-4.44,2.42-7.73,8.88-13.35,5.33-17.89-4.4-38.06-10.29-55.72-2-6.67,2.92-11.84,12.13-6,18.25,10.75,10.7,27.39,10.3,41,15.33,46,13.79,92.81,30.57,130.39,61.14,5,3.22,8.57,11,3.53,15.75-10,7.05-22.39-1.09-33.31,1.84-14.76,2.07-23.51,17.3-22.84,31.31-.27,7.37,3.44,14.85-.56,21.78-1.63,6.07-8.9,12.18-5.56,18.63,7.22.19,13.15-6,19-9.66,2.79,4.54,5.54,5,7.62,0,3.9-6.46,10.82-10.83,18.56-10.18,12.1-1.06,23.78-6.4,36.2-4.67,18.62,1.41,36.22,11.76,46,27.56,14.5,19.73,40.22,26.85,63.6,27.91,30.66,1.18,60.87-8.15,87.44-22.66,13.26-5.14,28.45-7.81,42-2.25,5.94,1.83,11.63,4.78,14.79,10.25,9.2,10.66,18.76,24.15,33.71,26.28,13,.6,27.23,2.34,39.41-3.25,4.35-3.16,8.16-7,13.59-8.28,8.85-3.14,13.86-12.82,12.59-21.87,1-6.79,9.27-9.56,10.38-16.5,1-4.42-2.9-8.71-1.87-13.44,2.28-7.85-3.47-14.94-10.34-17.94-17.79-7.71-38.21-5-56.59-1-5.06.14-10.2,7.07-14.19,1.65-8-7.67-19.75-6.64-29.61-3.78-13,3.37-26.95,3.62-39.39-1.6-3-.42-9.44-4.11-4.66-6.78,9.19-2.61,21.18-3.63,25.42-13.86,2-4.31,8.53-1,12.58-2.1,15-1.29,31.87-2.94,43.28-13.45,2.73-3.92,6.89-7.35,12.06-6.78,18.44-3.58,38.93-13.93,44.06-33.41,1-4.43.3-11.74,6.93-11.52,16.8-5.21,35.16-12.57,45.48-27.73,3.13-9.33,14.07-11.09,22.25-13.56,8.14-3,18.58-.56,24.84-7.71,6.48-5.43,13.89-15.17,8.38-23.64-3.27-4.48-10-5.47-15.41-5.09Z" style="fill:#fff"/><path d="M847.4,250.75c2.43-.74,4.59-1.83,4.79-2.43s-3.14-2.32-7.42-3.84c-11.11-3.93-22-9.42-44.54-22.47-17.25-10-19.9-11.85-20.95-14.75-.66-1.82-1.55-3.31-2-3.31a54.36,54.36,0,0,0-7.3,3.21q-9.75,4.81-4.77,6.41c12.16,3.89,24.86,13.73,32.87,25.45,5.32,7.79,8.55,10,18.14,12.43,6.85,1.74,24.43,1.34,31.16-.71ZM863,241.47c7.79-3.45,12.94-7.8,14.84-12.54,1.43-3.57,1.45-4.42.16-7.5-1.48-3.55-2.89-4.35-4.13-2.35-.49.79-4.27.92-12.81.44-31.88-1.79-51.06-7.33-64.8-18.69-2.56-2.14-5.29-3.88-6-3.88-1.56,0-6.17,4.66-7,7.09a3.57,3.57,0,0,0,.1,2.65c.88,1.42,32.95,20.12,44.48,25.94,8.69,4.39,25.76,11.16,28.4,11.27.67,0,3.75-1.07,6.83-2.43Zm-193-4.86c19-3.53,33.12-8.19,45.65-15.08,9.18-5,20.06-8.53,28.85-9.25,6.82-.55,9-1.37,24.47-9,17.16-8.5,20.53-10.62,20.53-12.88,0-.69,1.59-2.53,3.53-4.1,6.52-5.26,12.47-10.78,12.47-11.58,0-.43-1.46-1.68-3.25-2.77-4.3-2.62-11.23-2.57-22.42.17-13.21,3.23-27.22,3-38.11-.67-8.15-2.74-8.36-2.75-13.36-1.14A40.71,40.71,0,0,1,717.86,172c-4.72,0-5.39-.25-5.39-2s.67-2,5.42-2c9,0,11.17-2,5.58-5.34-1.65-1-3-2.6-3-3.61,0-1.66,1.15-1.88,11.75-2.22,10.11-.33,12.54-.75,17.43-3,8.62-4,11.32-11.12,5.61-14.78-12.52-8-23.94-14.26-29.27-16-8.29-2.75-11.52-6.31-11.52-12.68a22,22,0,0,1,1.6-7.9C717.91,98.5,724.76,92,727,92c2.61,0,1.63,2.95-2.05,6.18-9.23,8.11-8.43,17.72,1.73,20.76,8.31,2.49,29.22,14.59,35.06,20.31l3.09,3,11.08-.58c11.44-.59,21.3-2.75,30.21-6.61,6-2.61,11.29-7.56,9.72-9.12-.57-.57-9.77-3.45-20.44-6.41-22.27-6.16-29.9-8.88-40.7-14.5-9.53-5-14.46-8.95-16.58-13.41-1.85-3.9-2.15-12.41-.56-15.84.9-1.94,7.06-5.8,9.26-5.8,1.72,0,.34,2.93-2.83,6-2.87,2.78-3.5,4.12-3.5,7.45a16.35,16.35,0,0,0,1.92,7.2c3.12,5.12,14.14,11.83,28,17.05,11,4.15,48.93,14.3,53.4,14.3,5.84,0,18-3.52,25.17-7.3a61,61,0,0,0,12-9.18c7.52-7.54,10.06-13.79,9.09-22.39-.74-6.51-.33-7.36,2.9-6.14,3.6,1.37,12.7-1.44,26.18-8.07,9.11-4.49,13.58-7.37,17.73-11.46,5.08-5,7.71-9.68,6.26-11.13-.32-.32-7.68.6-16.37,2-26.44,4.39-43.69,5.21-67.5,3.19-25.19-2.14-31.94-3.48-40.81-8.14-8.39-4.41-13-9.22-13-13.57,0-4,5-12.86,7.25-12.86s2.16,1.74-.78,6.5c-3.34,5.42-3.12,7.72,1.05,11.39,6.65,5.84,16,9.4,29,11,36,4.5,61.11,3.56,94.78-3.52,6.48-1.36,12.13-2.26,12.55-2s4.58-.79,9.22-2.35A138.08,138.08,0,0,1,957,33.61L967,32l5.69-6c8.34-8.79,9.51-15.6,3.39-19.61-4-2.63-9.42-2.81-18.58-.62-38.68,9.25-83.92,15.07-106.8,13.73-14.4-.84-20.2-1.91-33.27-6.09C800,7.87,789.84,7.21,779.8,11c-2,.74-4.12.67-7.76-.27-2.92-.75-9.94-1.25-16.56-1.18-29.59.32-60.62,12.55-77.66,30.6-5.75,6.1-10.83,15.43-14.76,27.13-3.33,9.92-5.3,13.75-11,21.29-4.85,6.46-14.18,14.36-17,14.36-.91,0-3.8-2.8-6.41-6.23-7.24-9.5-12.38-14.59-16.37-16.21-3.32-1.35-3.94-1.31-7.46.49a27.23,27.23,0,0,1-4.42,2c-.32,0-2.32-3-4.44-6.75-5.74-10-8.24-12.92-13.2-15.32s-10.06-2.17-15.41.6A14.53,14.53,0,0,1,563.76,63c-.45,0-3.68-3.87-7.18-8.6-9.47-12.82-17.11-16.86-24.08-12.75-2.77,1.63-2.84,1.61-8.58-3.07Q507,24.73,497.62,31.7A20.85,20.85,0,0,1,494.17,34a31.33,31.33,0,0,1-4.29-3.1c-5.56-4.43-14.69-8.84-19.77-9.54-7.48-1-12.87,1.86-17.19,9.21-1,1.72-1.7,1.52-10.51-2.94-15.8-8-25.86-7.43-36,2l-4.63,4.33-5.71-2c-19.59-6.74-42.7-8.79-52.15-2.81-15.26,9.66-5.68,18.73,7.82,23S411.17,67.06,450.31,86c21.78,10.55,33.11,16.87,46.85,26.15q17.34,11.71,17.33,17.32c0,1.39.68,2.79,1.51,3.11,2.18.84,8.18-4.11,10.5-8.66,2.71-6.8,2-12.39-.84-17.45C514.83,86.94,501,69.26,484.9,53,479,47.06,460.85,38.33,463,36.4s22,10.09,29.67,18.45c13.91,15.11,28.57,37,36,49.17,3.27,6.62,3.92,9,3.56,14-.38,5.2-1,6.79-5.28,12.56-1.78,2.43.67,3.34,5,1.85,8.55-3,12.07-11.21,11.92-28-.07-7.49-.6-10.39-3.18-17.26-5.09-13.56-13.89-26.39-28.57-41.65-5.46-5.67-6.43-7.17-5.44-8.36s2.68.07,10.26,7.91c11.68,12.07,18.44,21.17,24,32.37,7.07,14.16,8.76,25.32,6.1,40.2-1.92,10.75-7.06,16.92-16.19,19.44-3.41.94-4,.82-5.57-1.1s-1.87-2.07-4.25-.52a6.86,6.86,0,0,1-5.55,1c-2.27-.5-3.19-.27-3.64.89-1.93,5-11.65,6.87-23.49,4.42a22.71,22.71,0,0,0-11.24.06c-17.64,3.95-26,21.37-19.81,41.37,4.67,6.87-10.51,19.58-7.33,24.57,1.21,1.89,14.39-6.63,20-12.7,2-2.16-2.15,9.65.07,9.09,2.49-.63,8.43-12.58,11.13-13,5.31-.79,4.67-2.82,1.93-4-1.56-.66-6.4-1.21-10.77-1.21-7.26,0-7.93-.17-7.93-2s.66-2,8.25-2c10.14,0,19.23,2,21.86,4.88,2.11,2.26,3.38,2.2,11.33-.57a63,63,0,0,1,12.5-1.93c23.82-1.54,44.58,8.6,57.84,28.24a47.15,47.15,0,0,0,18.46,16.46c6.46,3.29,20.24,7.46,29.26,8.86,8.31,1.29,36.33.5,46-1.3Zm-15.89-44.75c-9.76-3.36-25.83-14.78-31.83-22.62-4.4-5.75-5.29-9.68-3.35-14.76,1.39-3.64,2.41-4.64,6.54-6.42a34.63,34.63,0,0,1,5.77-2.1c.48,0,2.18-1.36,3.77-3,2.82-2.94,11.81-6.51,13.6-5.4,2.13,1.32.52,3.26-3.67,4.44-5.51,1.54-7.71,4.19-6.38,7.68s5.94,10,11.4,16.07c7.28,8.09,25.46,16.29,31.32,14.12,3.27-1.21,2.74-2.33-2.78-5.87-14.48-9.29-26.21-31.13-23-42.9,1.12-4.15,4.13-7.1,7.25-7.1,2.55,0,2.19,2.5-.64,4.35-3.38,2.22-4.05,6.53-2.07,13.38,4.92,17.05,16.91,29.57,31.93,33.36,4.27,1.08,5,1,7.58-1,3.73-2.76,4-2.71,4,.83,0,4-2.86,5.44-9.23,4.6-4.46-.59-5.19-.4-7.31,1.89-3.23,3.49-10.87,3.5-20.18,0-12.27-4.58-19.7-11-28.72-24.65-2.06-3.12-4.44-5.94-5.28-6.27-2.26-.87-8.52,2.55-10.18,5.56-1.31,2.37-1.22,3,1,7.5,3,6.09,16,16.82,26.87,22.2,6.34,3.14,8.42,3.68,14,3.66a52.48,52.48,0,0,0,9.81-.87c2.85-.74,3.25-.6,3.25,1.12,0,4.34-13.47,5.6-23.39,2.19Zm-181-23.08c-5.92-2.66-6-7.78.53-9.92s9.87-4.88,9.87-.14c-2.93,6.5-4.94,12.08-10.4,10.05Zm222.42-8.64c-3.58-3.74-10.9-12.24-16.26-18.89-7.45-9.24-9.75-12.8-9.75-15.08,0-3.94,1.68-5.16,7.59-5.47s6.81,1.86,1.42,3.61c-1.92.62-3.63,1.89-3.81,2.82-.35,1.85,18.3,25.11,26.65,33.23,2.78,2.71,4.83,5.29,4.54,5.75-1.29,2.09-4.36.32-10.38-6ZM708,147.54c-10-8.38-16.45-15.71-18.44-21-1.59-4.19-1.32-12.24.47-14,2.08-2.08,7-2.78,13-1.86,3.41.53,5,1.24,5,2.26,0,1.18-1.21,1.43-5.79,1.22-7.68-.35-9.71.81-9.7,5.55,0,7.36,7.28,16.52,22.6,28.48,5,3.91,7.06,7.74,4.14,7.73-.69,0-5.75-3.78-11.25-8.39Zm-95-1.92c-2.32-2-3.55-3.79-3.11-4.5a2.37,2.37,0,0,1,1.49-1.18c1.49,0,9.12,6.45,9.12,7.71C620.48,150,616.88,149,613,145.62Zm-72.5-6.49c0-1.35,1.53-2.27,6-3.6,7.48-2.24,14.53-8.15,16-13.4s1.24-19.71-.49-27c-2.94-12.46-10.43-26-22.7-40.95-3.8-4.64-5.75-7.84-5.37-8.83.87-2.28,2-1.53,7.61,5.11,11.08,13.1,19.94,28,23.48,39.5,2.23,7.25,3.21,28.34,1.54,33.39a30.72,30.72,0,0,1-5.13,8.22c-2.15,2.48-3.91,5.32-3.91,6.31,0,1.46-1.14,1.92-6.15,2.44-9.58,1-10.84.87-10.84-1.17Zm28.65.13c-1.72-1.72-.15-3.13,5.1-4.59,7.81-2.17,11-5.62,12.46-13.58,1-5.19.88-7.34-.56-13.41C584,98.87,574.55,77,571,72.75c-1.72-2-2.27-3.43-1.62-4.09,2.89-2.89,7.42,3.24,13.9,18.78,7.17,17.2,7.67,19.06,7.65,28.51,0,6.71-.48,9.47-2.22,13.07a33.18,33.18,0,0,0-2.21,5.24c0,1,1.88.85,6.26-.37,3.21-.89,4.18-1.89,6.59-6.74a72.05,72.05,0,0,0,4.19-10.7c1.52-5.57,1.86-17.73.69-24.27-.61-3.43-.46-4.39.79-4.87,2.25-.86,2.5-.33,3.61,7.7.94,6.76.12,18.6-1.77,25.69-.9,3.36,1.17,2.8,6.47-1.74,13.07-11.21,21.17-15.82,21.17-12.05,0,.57-5.07,4.79-11.26,9.37-6.69,5-12.38,10-14,12.49-2.09,3.16-3.4,4.16-5.43,4.16a8.54,8.54,0,0,0-5,2.15,19.9,19.9,0,0,1-7.06,3.42c-4.41,1.17-4.91,1.12-6.51-.74s-2-1.93-6-.49c-5.78,2.06-9.34,2.75-10.12,2ZM417.88,38.57c1.17-2,35.75,14,49.93,24.41,17.21,12.66,43.56,45.76,40.59,48.07s-17-20.73-29.87-34c-6.42-6.59-24.79-19-36.92-25.09C428.76,45.56,416.71,40.6,417.88,38.57ZM826.47,80.37c-45.22-2.06-53.31-2.95-60.25-6.65a37.65,37.65,0,0,1-8.78-6.48c-5.77-6.57-2.93-16.35,6.3-21.69,5.72-3.32,15.63-6.12,17-4.8,1.68,1.68,0,3-6,4.71-10,2.88-16.22,8.33-16.23,14.15,0,3.11,4,7.49,9.83,10.64,6.27,3.41,12.87,4.08,62.16,6.23,20.08.88,36.89,2,37.36,2.44,1.91,1.87-.75,3-6.67,2.88-3.4-.07-19-.72-34.69-1.43ZM444.39,204.89c.51-3,9.58-15.83,7.93-22.2-6-30,10.48-50.58,39.11-45,9.74,1.91,20.79.77,17.7-8.89-1.53-4.79-24-21.36-50.79-34.81C416.79,73.35,366.47,60,355,57.36,322.42,50,326.45,32.77,338.78,25.65c6.59-3.8,20.3-7.93,48.91-.73l12.73,3.2,5.11-4c7.28-5.76,14.47-7.68,23.15-6.2a58.4,58.4,0,0,1,13.28,4.38c4.61,2.27,7,2.95,7.89,2.26.73-.54,3.21-2.4,5.51-4.15a22.73,22.73,0,0,1,8.08-3.83c5.52-.93,15.23,1.8,23.21,6.53,7.51,4.46,7.71,4.49,13.54,2.46a16.41,16.41,0,0,1,7.5-.84c4.11.79,13,5.32,18.43,9.42,3.88,2.92,4.36,3,7.59,1.87,7.34-2.65,15.81,1.81,24.76,13.05,2.84,3.57,5.48,6.81,5.86,7.21s2.94,0,5.67-.8c10.79-3.29,21,2.32,29,16,2.58,4.4,2.9,4.62,6.12,4,7.86-1.47,15.1,2.89,24.7,14.89,2.72,3.41,5.47,6.32,6.11,6.48,1.89.46,9.3-6.51,14.19-13.38a72.3,72.3,0,0,0,8.06-16.16c1.89-5.36,4.75-12.44,6.34-15.74,9.11-19,32.15-34.89,61.47-42.47,17.31-4.48,36-5.46,47.68-2.52,1.28.32,5.24-.11,8.82-.95,12.08-2.85,20.32-1.92,39,4.42,22.76,7.71,57,6.62,110.69-3.53,10-1.89,20.79-4.12,24-4.94,16.65-4.33,28.35.67,28.35,12.13,0,5.57-3.43,11.62-10.06,17.76-4.93,4.57-6.72,5.59-10.68,6.11-13,1.72-22,4.05-30,7.75a10.68,10.68,0,0,0-6.1,6.11c-5.35,12-26.81,25.2-50.75,31.19-.61.15-1.35,2.71-1.66,5.68-1.28,12.45-11.2,24.55-25.95,31.68-8.06,3.89-18.67,7-23.83,7.07-1.78,0-3.67,1.37-6.31,4.53-5.78,6.92-15.37,11.1-32,14A118.73,118.73,0,0,1,770.53,147h-7.64l-1.94,3.6c-2.56,4.75-10.05,9-18.7,10.5-3.75.67-6.82,1.57-6.82,2,0,1.3,11.12,5.07,18.34,6.21s14.31.42,28.66-2.8c12.22-2.74,18.92-1.71,26.51,4.08l3.52,2.68,5.74-2.56c17.06-5.46,58.13-10.69,71.41,7.16,2.67,4.15,2.94,5.26,2.5,10.42a21.42,21.42,0,0,0,1.06,9.73c1.42,3.61,1.41,4.33-.15,8.41a25.05,25.05,0,0,1-5.64,8c-3.08,2.78-3.94,4.29-3.94,6.87.31,6.81-.57,10.65-4.55,15.71l0-.12c-3.5,5.74-10.07,7.17-15.95,9.79l-3.3,3c-5.52,5-13.48,6.73-30.2,6.62-16.1-.1-19.8-1-28.5-6.82l-5-3.35s-17.42-19.51-17.74-20.49h0c-1.23-3.75-17.79-9.75-26.91-9.75-9.52,0-26.05,4.44-30.61,8.22-61,31.1-118.44,22.89-143.88-3.56-1.57-1.84-4.82-6.11-7.23-9.48-13.56-19-40.43-27.4-64.14-20.1-3.91,1.2-11,2.24-17.67,2.6-11.05.59-15.24,17.18-18.46,14l-3.55-3.52C445.59,218.83,442.94,213.35,444.39,204.89Zm435,9.09c4.38-2.24,8.8-7.08,9.69-10.61.39-1.55-.14-3.68-1.5-6-1.59-2.69-1.86-4-1.11-5.45,3.22-6-1.58-14.36-9.12-18.18-16.26-4.91-44-5.76-58.43,2.15-3.42,1.91-5.93,2.65-7.76,2.3-3.12-.6-5.69,1.13-5.69,3.82,0,2.29,7.19,6.11,15.61,8.29,10.24,2.65,19,2.91,38.76,1.13,18.21-1.63,21.91-1.41,20.28,1.23-.87,1.41-26.47,3.69-40.65,3.63-14.43-.07-21.45-1.58-32-6.89-7-3.52-7.11-3.54-10-1.81-4.71,2.78-4.8,5.1-.32,8.94,9.53,8.17,27.52,15.1,44.87,17.28,20.58,2.59,32.53,2.63,37.41.14ZM744,165.27c-4.45-1-5.08-1.58-2.5-2.36a24.89,24.89,0,0,1,5.29-.86c2.48-.09,2.67.12,1.71,1.9-.59,1.1-1.39,1.95-1.79,1.88s-1.61-.32-2.71-.56Z" style="fill:#f4d581"/><path d="M900.75,222.9h-147l-.38,18.83H900.88Z" style="fill:#f1c95a"/><rect x="785.04" y="241.73" width="105.75" height="23.56" style="fill:#fdf6e3"/></svg>