<svg xmlns="http://www.w3.org/2000/svg" viewBox="0 0 910 726.37"><title>Haiti</title><path d="M453.16,506.65v.4c-19.35,2-227.18,24.8-283.66,67C110.28,618.22,5,664.53,5,664.53v56.84H905V664.53S799.72,618.22,740.5,574c-56.48-42.16-264.3-64.92-283.66-67v-.4l-1.84.2-1.84-.2Z" style="fill:#016a16"/><path d="M302.82,636.85c-2.49-6.29-22.88-5.81-38.8-1s-24.87,3.39-59.19,3.87S151.11,648,148.12,649s-54.72,25.66-74.61,32-38.8,0-38.8,0,22.88,21.79,55.21,4.36c0,0-26.86,14.53-44.27,16.46,0,0,26,5.3,47.94-3.93A53.3,53.3,0,0,0,99.37,695a391.32,391.32,0,0,1,37.06-15.81c62.94-22.79,87.42-8.28,130.57-19.05" style="fill:#fff;stroke:#000"/><path d="M302.71,635.92c-3,5.57-19.88,2.45-30.75,5.89,2.62,2.24,10.09,6.18,31.1,10.09,3.48-12.72-.34-16-.34-16Z" style="fill:#fff;stroke:#000"/><path d="M134,678c-20.21,6.65-30,12.77-41,16.78m38.55-20.46c-17.54,6.07-27.61,11.89-38.38,15.92m35.89-19.61c-14.87,5.48-25.25,11-35.71,15.07m33.23-18.75c-12.2,4.9-22.89,10.11-33.05,14.21m30.56-17.89c-9.53,4.31-20.53,9.22-30.39,13.35" style="fill:none;stroke:#000"/><path d="M157.72,668.23s28.31-8.32,50.21-5.72m-47,.52s26.58-7.28,49.95-5.33m-46.74.13s24.84-6.24,49.68-4.94m-46.47-.26a227.17,227.17,0,0,1,49.41-4.55m-46.21-.65a285.4,285.4,0,0,1,49.14-4.16" style="fill:none;stroke:#000"/><path d="M245.86,642.75s12.77-3,25.62-4.84c10.94-1.54,21.94-2.19,25.13.68" style="fill:none;stroke:#000"/><path d="M243.46,647.17a251.89,251.89,0,0,0,27-4.54" style="fill:none;stroke:#000"/><path d="M241.05,651.59s17.07-.22,28.3-4.24" style="fill:none;stroke:#000"/><path d="M238.65,656s19.22,1.19,29.64-3.94" style="fill:none;stroke:#000"/><path d="M236.23,660s21.39,2.32,31-3.25" style="fill:none;stroke:#000"/><path d="M347.88,272.44l30.93,63.65,7.07-3.44,55.23,101.5.44-17.2L389.16,327.2l2.46-1.86-3.53-3.87-1.71,1-.06-.09s-3.53-.43-4,.86Z" style="fill:#f1b517;stroke:#000;stroke-width:1.2280000448226929px"/><path d="M347.88,272.44l30.93,63.65,7.07-3.44-3.73-9.74Zm62.65,91.38a35.47,35.47,0,0,0-6.21,2.74l7.62,14a14.58,14.58,0,0,1,6.18-2.76.86.86,0,0,0,.46-.19Z" style="fill:#fff;stroke:#000;stroke-width:0.5669999718666077px"/><path d="M388.09,321.47l-1.59.89,2.73,4.8,2.4-1.82Z" style="fill:none;stroke:#000"/><path d="M347.88,272.44l30.93,63.65,7.07-3.44,55.23,101.5.44-17.2L389.16,327.2l2.46-1.86-3.53-3.87-1.71,1-.06-.09s-3.53-.43-4,.86Z" style="fill:none;stroke:#000;stroke-width:1.2280000448226929px"/><path d="M368,248.41l24.25,66.34,7.39-2.74,44.55,106.36,2.2-17.07-42.93-94.39,2.64-1.61L403,301.1l-1.8.78,0-.1s-3.47-.77-4,.47Z" style="fill:#f1b517;stroke:#000;stroke-width:1.2280000448226929px"/><path d="M368,248.41l24.25,66.34,7.39-2.74L397,302Z" style="fill:#fff;stroke:#000;stroke-width:0.5669999718666077px"/><path d="M403,301.1l-1.68.73,2.22,5,2.58-1.58Z" style="fill:none;stroke:#000"/><path d="M368,248.41l24.25,66.34,7.39-2.74,44.55,106.36,2.2-17.07-42.93-94.39,2.64-1.61L403,301.1l-1.8.78,0-.1s-3.47-.77-4,.47Z" style="fill:none;stroke:#000;stroke-width:1.2280000448226929px"/><path d="M368,248.41l24.25,66.34,7.39-2.74L397,302Z" style="fill:#fff;stroke:#000"/><path d="M403,301.1l-1.68.73,2.22,5,2.58-1.58Z" style="fill:none;stroke:#000;stroke-width:0.26499998569488525px"/><path d="M414.28,330.56a14.84,14.84,0,0,0-5.51,3.12l5.87,14a37.39,37.39,0,0,1,6.17-2.77Z" style="fill:#fff;stroke:#000;stroke-width:0.5669999718666077px"/><path d="M368,248.41l24.25,66.34,7.39-2.74,44.55,106.36,2.2-17.07-42.93-94.39,2.64-1.61L403,301.1l-1.8.78,0-.1s-3.47-.77-4,.47Z" style="fill:none;stroke:#000;stroke-width:0.32499998807907104px"/><path d="M394.42,240.32l19.25,67.87,7.57-2.21L457.78,415.2l3.47-16.87-35.8-97.17,2.75-1.42-2.8-4.4-1.86.65,0-.1s-3.41-1-4.07.19Z" style="fill:#f1b517;stroke:#000;stroke-width:1.2280000448226929px"/><path d="M394.42,240.32l19.25,67.87,7.57-2.21-2-10.22Z" style="fill:#fff;stroke:#000;stroke-width:0.5669999718666077px"/><path d="M425.4,295.34l-1.73.61,1.84,5.19,2.69-1.39Z" style="fill:none;stroke:#000"/><path d="M394.42,240.32l19.25,67.87,7.57-2.21L457.78,415.2l3.47-16.87-35.8-97.17,2.75-1.42-2.8-4.4-1.86.65,0-.1s-3.41-1-4.07.19Z" style="fill:none;stroke:#000;stroke-width:1.2280000448226929px"/><path d="M394.42,240.32l19.25,67.87,7.57-2.21-2-10.22Z" style="fill:#fff;stroke:#000"/><path d="M425.4,295.34l-1.73.61,1.84,5.19,2.69-1.39Z" style="fill:none;stroke:#000;stroke-width:0.26499998569488525px"/><path d="M434.42,325.51a14.91,14.91,0,0,0-5.73,2.72l4.81,14.39a37.54,37.54,0,0,1,6.36-2.33Z" style="fill:#fff;stroke:#000;stroke-width:0.5669999718666077px"/><path d="M394.42,240.32l19.25,67.87,7.57-2.21L457.78,415.2l3.47-16.87-35.8-97.17,2.75-1.42-2.8-4.4-1.86.65,0-.1s-3.41-1-4.07.19Z" style="fill:none;stroke:#000;stroke-width:0.32499998807907104px"/><path d="M332.95,467l6.53,62.85,82.08-5.33Z" style="fill:#d20014"/><path d="M175.32,397.61s6,100.24,37.31,150.6l127.84-18.4-3.48-61-161.67-107Z" style="fill:#0a328c;stroke:#000;stroke-width:0.75px"/><path d="M295,243.67a21,21,0,0,0,14.52.65s3.36,4.25-5.71,4.74c0,0-3.61.33-1.17,4.25" style="fill:#0a328c;stroke:#000;stroke-width:0.75px"/><path d="M284.26,236.08s13.68-10.86,22.32-10.21,9.06.49,9.82,2,2.27,8.25-1.59,13.23-5.45,3.76-6.13,2.7-6.13-4.17-16.45-1.88" style="fill:#d20014;stroke:#000;stroke-width:0.30000001192092896px"/><path d="M305.75,225.84c.28,0,.55,0,.82,0,8.64.65,9.06.49,9.82,2a14.87,14.87,0,0,1,.63,8.27c-1.29-1.2-3.95-2.35-9.44-2.06-10.91.57-17.29,4.9-17.29,4.9l-1.08.75-5-3.61S297.09,225.88,305.75,225.84Z" style="fill:#0a328c;stroke:#000;stroke-width:0.75px"/><path d="M443.8,485.51,346,398.73c-21.83,9.33-20.15,26.29-5,47.62l-.46,21.36,80,54.29,21.94-5.34.91-19.58Z" style="fill:#d20014"/><path d="M440.81,429.62l-60-75.2-15.17,32.76,4.74,30.91L442,483.6Z" style="fill:#d20014"/><path d="M380.62,355.81s-12.09,27-10.19,61.82l-73-66.2-34.83-30.68.71.46,4.5-21.22L270,288l5.69,1.38v-6.92l.95-6,5-9.46,4-10.15.95-8.54-1.9-10.15,2.61,1.15Z" style="fill:#0a328c;stroke:#000;stroke-width:0.75px"/><path d="M164.5,360.88s-7.11,6.92-8.06,22.61-.71,26.53-.71,26.53,11.61,6.69,22.51,3.92a35.39,35.39,0,0,1-2.13-11.07c-.24-6.46.24-39.91.24-39.91Z" style="fill:#0a328c;stroke:#000;stroke-width:0.75px"/><path d="M171.14,363l5.21.34c0,.63-.47,33.17-.23,39.57a35.4,35.4,0,0,0,2.13,11.07,26.26,26.26,0,0,1-11.64,0c-.09-1.26-1.39-20.43-1.16-30.47.24-10.38,5.69-20.53,5.69-20.53Z" style="fill:#d20014;stroke:#000;stroke-width:0.75px"/><path d="M78.92,646.47c-2.18-5.52-8.07-6.8-8.07-6.8s-.44-.42,1.31-4.46a11.12,11.12,0,0,0,.87-7C72.38,606.76,74.56,601,74.56,601c-1.53,0-8.51,8.07-8.51,8.07.22-20.39,31.19-29.94,31.19-29.94-11.34,28-7,31.22-7,31.22-7.2-3-8.07-7.64-8.07-7.64-1.31,7.64-.22,22.51-.22,22.51s-.44,7,6.33,3.61,34-16.14,34-16.14l2.84,5.52-37.52,17s-5.45,2.34-3.93,6.37,2.4,4.67,2.4,4.67Z" style="fill:#f1b517"/><path d="M82,625.23s-1.09-14.86.22-22.51c0,0,.87,4.67,8.07,7.64,0,0-4.36-3.19,7-31.22,0,0-31,9.56-31.19,29.94,0,0,7-8.07,8.51-8.07,0,0-2.18,5.73-1.53,27.18" style="fill:none;stroke:#000"/><path d="M78.92,646.47c-2.18-5.52-8.07-6.8-8.07-6.8s-.44-.42,1.31-4.46a11.12,11.12,0,0,0,.87-7C72.38,606.76,74.56,601,74.56,601c-1.53,0-8.51,8.07-8.51,8.07.22-20.39,31.19-29.94,31.19-29.94-11.34,28-7,31.22-7,31.22-7.2-3-8.07-7.64-8.07-7.64-1.31,7.64-.22,22.51-.22,22.51s-.44,7,6.33,3.61,34-16.14,34-16.14l2.84,5.52-37.52,17s-5.45,2.34-3.93,6.37,2.4,4.67,2.4,4.67" style="fill:none;stroke:#000"/><path d="M136.08,605.22a6.8,6.8,0,0,1,4,1.28,3.91,3.91,0,0,1,1.5,2.43,6.14,6.14,0,0,1-.75,3.74,8.47,8.47,0,0,1-6.82,4.4,15.18,15.18,0,0,1-4.44-.09l.36-1.76a13.51,13.51,0,0,0,3.84.07,6.5,6.5,0,0,0,5.4-3.4,4.46,4.46,0,0,0,.6-2.66,2,2,0,0,0-.82-1.31,5.88,5.88,0,0,0-2.87-.9,4.74,4.74,0,0,0-2.64.48c-1.23.6-3,2-5.34,5.1l-1.49-1.07c2.45-3.26,4.4-4.85,6-5.63a7,7,0,0,1,3.47-.68Z" style="fill:#f1b517;stroke:#000;stroke-width:0.3499999940395355px"/><path d="M133.24,624.38s-.87-14-10-18.9c0,0-2.18.21-2.4,1.91S129.32,624,129.32,624Z" style="fill:#f1b517;stroke:#000;stroke-width:0.3499999940395355px"/><path d="M132.21,622.81s-.73-11.68-8.36-15.75c0,0-1.82.18-2,1.59s7.09,13.8,7.09,13.8Z" style="fill:#f1b517;stroke:#000;stroke-width:0.3499999940395355px"/><ellipse cx="216.15" cy="588.6" rx="9.8" ry="9.54" style="fill:#f1b517;stroke:#000;stroke-linecap:round;stroke-width:0.5px"/><path d="M90.22,489.33s-16.51.92-16.32,8.87S76.55,513.9,71,515.38s-16.89,1.48-19.74,4.43a9.87,9.87,0,0,0-2.85,6.28s14.24-5,20.5-1.48,12.82-2,13.86-3.88c2.28-4.07.95-12,5.32-13.49s18.22-1.66,18.22-1.66Z" style="fill:#d20014"/><path d="M210.06,380c-2.58-43.35,5.16-94.25,5.16-94.25l.65-7.54L349.48,402.58s-9.05,13.22-7.71,66l-10.36-6.9Z" style="fill:#0a328c;stroke:#000;stroke-width:0.75px"/><path d="M210.06,380c-2.58-43.35,5.16-94.25,5.16-94.25l.65-7.54" style="fill:none;stroke:#000;stroke-width:0.26499998569488525px"/><path d="M245.8,183.64l17.89,40.6s5.2-5.14,9.41.19l4.2,5.32m-31.43-46.16,34.52,28.68s-6.59,3.31-2.6,8.81l4,5.48-4.46,3.2" style="fill:#f1b517;stroke:#000"/><path d="M291,217.57l-24.57,17.49,6.45,8.58,24.57-17.49Z" style="fill:#f1b517;stroke:#000"/><path d="M290.43,220.21l-21.27,15.15L273.4,241l21.27-15.15Z" style="fill:#f1b517;stroke:#000;stroke-width:0.5px"/><path d="M166.4,233.94l24.27,37.33S195,265.39,200,270l5,4.6m-38.55-40.73,38.76,23s-6,4.28-1.14,9.1l4.81,4.8L205,274.61" style="fill:#f1b517;stroke:#000"/><path d="M216.52,260.47l-21.41,21.06,7.76,7.48L224.29,268Z" style="fill:#f1b517;stroke:#000"/><path d="M216.41,263.16,197.88,281.4l5.11,4.92,18.54-18.24Z" style="fill:#f1b517;stroke:#000;stroke-width:0.5px"/><path d="M114.72,318.84l30.48,32.73s3.2-6.51,9-2.8l5.75,3.7m-45.15-33.7L157,335s-5.12,5.21.48,9.15l5.59,3.92-3.15,4.44" style="fill:#f1b517;stroke:#000"/><path d="M168.77,336.62l-17.38,24.32,9,6.07,17.38-24.32Z" style="fill:#f1b517;stroke:#000"/><path d="M169.14,339.29l-15.05,21.06,5.9,4L175,343.29Z" style="fill:#f1b517;stroke:#000;stroke-width:0.5px"/><path d="M286.16,234.19,441.37,426.09l-1,3L283.74,236Z" style="fill:#f1b517;stroke:#000"/><path d="M219.14,281.1,443.55,483.74l-2.09,2.2L217,283.29Z" style="fill:#f1b517;stroke:#000"/><path d="M183,362.24,421.92,521.42l-1.74,2.47L181.28,364.71Z" style="fill:#f1b517;stroke:#000"/><path d="M208.59,283.77s22.52-4.19,28-1-9.6,3.43-12.53,2.48l5.68,5.53s12.93-3.05,15.08-14.87-6.46-11.82-8.42-11.63S223.09,266.23,208.59,283.77Z" style="fill:#0a328c;stroke:#000;stroke-width:0.75px"/><path d="M240.93,271.35c2.47.71,4.34,2.41,3.7,5.56a37.16,37.16,0,0,1-2,5.53,1.22,1.22,0,0,0-.3-.34,18,18,0,0,1-2.48,3c-.76-.28-1.51-.52-2.21-.71.28-.42,0-.94-1.08-1.58a7.81,7.81,0,0,0-2.4-.81c-4.09-1.53-10.21.06-11.5-.14l-6.86.38s20.41-12.25,25.09-10.9Z" style="fill:#d20014;stroke:#000;stroke-width:0.75px"/><path d="M217.6,281.48s25.1-7.31,25.1-.25" style="fill:none;stroke:#000;stroke-width:0.5px"/><path d="M208.59,283.77s22.52-4.19,28-1-9.6,3.43-12.53,2.48l5.68,5.53s12.93-3.05,15.08-14.87-6.46-11.82-8.42-11.63S223.09,266.23,208.59,283.77Z" style="fill:none;stroke:#000;stroke-width:0.30000001192092896px"/><path d="M211.53,283.59c.59,2.75,1.23,6.37.9,8-7.33,18.24-17.31,18.64-13.4,40.8l-7.73-.21c-.83-10.28.83-20,2.78-24.35,1-2.16,3.13-4.74,5.49-7.24s4.93-4.94,6.74-6.83c3.61-3.79,1.11-8.66,1.11-8.66Z" style="fill:#0a328c;stroke:#000;stroke-width:0.75px"/><path d="M216.32,281.84a25.27,25.27,0,0,1,1.36,8.38,24.38,24.38,0,0,1-1.36,8.13,76.6,76.6,0,0,0-2.59,8.91c-1.42,6.33-2.22,13.91-2.41,25.45L199,332.37c-3.91-22.16,6.06-22.56,13.4-40.8.33-1.62-.32-5.24-.9-8Z" style="fill:#d20014;stroke:#000;stroke-width:0.75px"/><path d="M207.42,285.08s2.5,4.87-1.11,8.66c-1.81,1.89-4.38,4.33-6.74,6.83s-4.52,5.07-5.49,7.24c-1.95,4.33-3.61,14.07-2.78,24.35m0,0,20,.54c.19-11.54,1-19.12,2.41-25.45a76.62,76.62,0,0,1,2.59-8.91,24.38,24.38,0,0,0,1.36-8.13,25.3,25.3,0,0,0-1.36-8.38l-8.89,3.25" style="fill:none;stroke:#000;stroke-width:0.30000001192092896px"/><path d="M204.92,332.43s-2.78-12.18,3.61-23c6.44-11.06,8.36-27.9,5-26.79" style="fill:none;stroke:#000;stroke-width:0.5px"/><path d="M227.3,509.18l17.28,29.45,68.3,4.95,6.45.85s10,22.89,21.05,25.94,85.17,25.54,85.17,25.54l2.28-16.49-48-15.08s-14.09-5-18.28-10.39S322.44,516,322.44,516Z" style="fill:#f1b517;stroke:#000;stroke-width:0.5px"/><path d="M257.9,434.1l99.27,161.06-2.11,1.23L255.8,435.33Z" style="fill:#f1b517;stroke:#000"/><path d="M259.9,440.6s-2.8,2.58-6.28-1.55S240,417.86,238,414.76s-4.45-5.69-1.15-7.75,7.93.52,11.74,8.27S264.92,436.47,259.9,440.6Z" style="fill:#fff;stroke:#000"/><path d="M172,462.72c-3.71-.49-10,6.57-11.73,18.84s-.06,22.6,3.64,23.09c1.36.17,2.87-1,4.34-3.42l198.19,26,4.17-36.45L174,468c-.64-4.69-.11-5-2-5.26Z" style="fill:#f1b517;stroke:#000;stroke-width:0.75px"/><path d="M362.81,490a24.42,24.42,0,0,0-1.62,3m-2.67-3.48a24.42,24.42,0,0,0-1.62,3M354.24,489a24.42,24.42,0,0,0-1.62,3m-2.67-3.48a24.42,24.42,0,0,0-1.62,3m-2.67-3.48a24.42,24.42,0,0,0-1.62,3m-2.67-3.48a24.42,24.42,0,0,0-1.62,3m-2.67-3.48a24.42,24.42,0,0,0-1.62,3m-2.67-3.48a24.41,24.41,0,0,0-1.62,3m-2.67-3.48a24.41,24.41,0,0,0-1.62,3m-2.67-3.48a24.41,24.41,0,0,0-1.62,3m-2.67-3.48a24.41,24.41,0,0,0-1.62,3m-2.67-3.48a24.41,24.41,0,0,0-1.62,3m-2.67-3.48a24.41,24.41,0,0,0-1.62,3m-2.67-3.48a24.41,24.41,0,0,0-1.62,3m-2.67-3.48a24.41,24.41,0,0,0-1.62,3m-2.67-3.48a24.41,24.41,0,0,0-1.62,3m-2.67-3.48a24.41,24.41,0,0,0-1.62,3m-2.67-3.48a24.41,24.41,0,0,0-1.62,3m-2.67-3.48a24.41,24.41,0,0,0-1.62,3m-2.67-3.48a24.41,24.41,0,0,0-1.62,3m-2.67-3.48a24.41,24.41,0,0,0-1.62,3m-2.67-3.48a24.41,24.41,0,0,0-1.62,3m-2.67-3.48a24.41,24.41,0,0,0-1.62,3m-2.67-3.48a24.41,24.41,0,0,0-1.62,3m-2.67-3.48a24.41,24.41,0,0,0-1.62,3m-2.67-3.48a24.41,24.41,0,0,0-1.62,3m-2.67-3.48a24.41,24.41,0,0,0-1.62,3M247,476.79a24.41,24.41,0,0,0-1.62,3m-2.67-3.48a24.41,24.41,0,0,0-1.62,3m-2.67-3.48a24.41,24.41,0,0,0-1.62,3m-2.67-3.48a24.41,24.41,0,0,0-1.62,3m-2.67-3.48a24.41,24.41,0,0,0-1.62,3m-2.67-3.48a24.41,24.41,0,0,0-1.62,3m-2.67-3.48a24.41,24.41,0,0,0-1.62,3M217,473.37a24.41,24.41,0,0,0-1.62,3m-2.67-3.48a24.41,24.41,0,0,0-1.62,3m-2.67-3.48a24.41,24.41,0,0,0-1.62,3m-2.67-3.48a24.41,24.41,0,0,0-1.62,3m-2.67-3.48a24.41,24.41,0,0,0-1.62,3m-2.67-3.48a24.41,24.41,0,0,0-1.62,3m-2.67-3.48a24.41,24.41,0,0,0-1.62,3M187,469.94a24.41,24.41,0,0,0-1.62,3m-2.67-3.48a24.41,24.41,0,0,0-1.62,3M178.44,469a24.41,24.41,0,0,0-1.62,3m-2.67-3.48a24.41,24.41,0,0,0-1.62,3" style="fill:#f4cf0e;stroke:#000;stroke-linecap:round;stroke-width:0.5px"/><path d="M167.25,480,368,506.28" style="fill:none;stroke:#000;stroke-width:0.75px"/><path d="M166.64,484.39l200.71,26.28" style="fill:none;stroke:#000;stroke-width:0.75px"/><path d="M166,488.78l200.71,26.28" style="fill:none;stroke:#000;stroke-width:0.75px"/><path d="M165.73,491l200.71,26.28" style="fill:none;stroke:#000;stroke-width:0.75px"/><path d="M165.43,493.17l200.71,26.28" style="fill:none;stroke:#000;stroke-width:0.75px"/><path d="M165.13,495.36l200.71,26.28" style="fill:none;stroke:#000;stroke-width:0.75px"/><path d="M164.82,497.56l200.71,26.28" style="fill:none;stroke:#000;stroke-width:0.75px"/><path d="M164.52,499.75,365.23,526" style="fill:none;stroke:#000;stroke-width:0.75px"/><path d="M201.88,468.11c-3.49-.22-7,8.68-7.76,19.87h0c-.8,11.19,1.38,20.43,4.87,20.65h0a2.8,2.8,0,0,0,2-.86c-2.28-3.07-3.39-10.76-2.79-19.25.63-8.81,3-16.5,5.78-19a3,3,0,0,0-2.08-1.4Z" style="fill:#f1b517;stroke:#000;stroke-linecap:round;stroke-width:0.75px"/><path d="M342.24,486.49c-3.49-.22-7,8.68-7.76,19.87h0c-.8,11.19,1.38,20.43,4.87,20.65h0a2.8,2.8,0,0,0,2-.86c-2.28-3.07-3.39-10.76-2.79-19.25.63-8.81,3-16.5,5.78-19a3,3,0,0,0-2.08-1.4Z" style="fill:#f1b517;stroke:#000;stroke-linecap:round;stroke-width:0.75px"/><path d="M371.65,502.8l11.19-.73s6.87,2.3,7.3,5.15.66,7.08.1,8.21-13.62,3.42-18.2-.58Z" style="fill:#f1b517;stroke:#000;stroke-width:0.15000000596046448px"/><path d="M390.13,507.22c-4.48,1.07-12.37.64-18.34.08l.25,7.55c4.58,4,17.63,1.71,18.2.58s.33-5.36-.1-8.21h0Z"/><path d="M369.57,489.74a1.73,1.73,0,0,0-1.37.8c1,3.93,1.23,10.51.73,17.51-.58,8-2.1,15.29-3.88,18.56.52,1.46,1.15,2.26,1.84,2.33,2.42.21,5-8.39,5.72-19.22h0c.74-10.82-.62-19.77-3-20h0Z" style="fill:#f1b517;stroke:#000;stroke-linecap:round;stroke-width:0.75px"/><path d="M256.68,490v.13a5,5,0,0,1,4,4.82v33l-24-23.33a4.83,4.83,0,0,1-.7-6.13l-.1-.09-10.38,10.11,0,0a5.15,5.15,0,0,1,6.75.35l24.36,23.72H221.94A5,5,0,0,1,217,528.8h-.14v14.29h.06a5,5,0,0,1,5-4.4H256.4l-24.53,23.88a5.17,5.17,0,0,1-6.29.69l-.1.09,10.38,10.11,0,0a4.82,4.82,0,0,1,.36-6.57l24.36-23.72v33.77a5,5,0,0,1-4,4.82v.13h14.68v-.06a5,5,0,0,1-4.52-4.89V542.59l24.93,24.27a4.82,4.82,0,0,1,.36,6.57l0,0,10.38-10.11-.1-.09a5.17,5.17,0,0,1-6.29-.69L271.64,538.7H306.1a5,5,0,0,1,5,4.4h.06V528.8H311a5,5,0,0,1-4.95,3.85H271.41l24.36-23.72a5.15,5.15,0,0,1,6.75-.35l0,0-10.38-10.11-.1.09a4.83,4.83,0,0,1-.7,6.13l-24.53,23.88V495a5,5,0,0,1,4.52-4.89V490Z" style="fill:#f1b517;stroke:#000;stroke-linecap:round;stroke-width:0.5px"/><ellipse cx="263.74" cy="536.38" rx="9.35" ry="9.1" style="fill:#f1b517;stroke:#000;stroke-linecap:round;stroke-width:0.5px"/><path d="M263.74,475.75c-34.16,0-61.84,27-61.84,60.2h0c0,33.25,27.69,60.2,61.84,60.2h0c34.16,0,61.84-27,61.84-60.2h0c0-33.25-27.69-60.2-61.84-60.2Zm0,15.32c25.46,0,46.11,20.09,46.11,44.88s-20.64,44.88-46.11,44.88-46.11-20.09-46.11-44.88S238.27,491.07,263.74,491.07Z" style="fill:#f1b517;stroke:#000;stroke-linecap:round;stroke-width:0.6000000238418579px"/><ellipse cx="263.74" cy="483.17" rx="1.98" ry="1.92"/><ellipse cx="263.74" cy="588.18" rx="1.98" ry="1.92"/><path d="M303.27,497.19a1.89,1.89,0,0,1,0,2.72,2,2,0,0,1-2.79,0,1.89,1.89,0,0,1,0-2.72A2,2,0,0,1,303.27,497.19Z"/><path d="M227,571.44a1.89,1.89,0,0,1,0,2.72,2,2,0,0,1-2.79,0,1.89,1.89,0,0,1,0-2.72A2,2,0,0,1,227,571.44Z"/><path d="M224.21,497.19a1.89,1.89,0,0,0,0,2.72,2,2,0,0,0,2.79,0,1.89,1.89,0,0,0,0-2.72A2,2,0,0,0,224.21,497.19Z"/><path d="M300.48,571.44a1.89,1.89,0,0,0,0,2.72,2,2,0,0,0,2.79,0,1.89,1.89,0,0,0,0-2.72A2,2,0,0,0,300.48,571.44Z"/><ellipse cx="209.81" cy="535.67" rx="1.98" ry="1.92"/><ellipse cx="317.68" cy="535.67" rx="1.98" ry="1.92"/><path d="M211.92,556.12a2,2,0,0,0,2.57,1.06,1.91,1.91,0,0,0,1.09-2.5,2,2,0,0,0-2.57-1.06A1.91,1.91,0,0,0,211.92,556.12Z"/><path d="M311.89,516.67a2,2,0,0,0,2.57,1.06,1.91,1.91,0,0,0,1.09-2.5,2,2,0,0,0-2.57-1.06A1.91,1.91,0,0,0,311.89,516.67Z"/><path d="M315.06,557.28a2,2,0,0,1-2.6,1,1.9,1.9,0,0,1-1-2.53,2,2,0,0,1,2.6-1A1.9,1.9,0,0,1,315.06,557.28Z"/><path d="M216.05,515.59a2,2,0,0,1-2.6,1,1.9,1.9,0,0,1-1-2.53,2,2,0,0,1,2.6-1A1.9,1.9,0,0,1,216.05,515.59Z"/><path d="M285.66,485.6a1.9,1.9,0,0,1,1,2.52,2,2,0,0,1-2.59,1,1.9,1.9,0,0,1-1-2.52A2,2,0,0,1,285.66,485.6Z"/><path d="M243.37,582.21a1.9,1.9,0,0,1,1,2.52,2,2,0,0,1-2.59,1,1.9,1.9,0,0,1-1-2.52A2,2,0,0,1,243.37,582.21Z"/><path d="M241.83,485.6a1.9,1.9,0,0,0-1,2.52,2,2,0,0,0,2.59,1,1.9,1.9,0,0,0,1-2.52A2,2,0,0,0,241.83,485.6Z"/><path d="M284.11,582.21a1.9,1.9,0,0,0-1,2.52,2,2,0,0,0,2.59,1,1.9,1.9,0,0,0,1-2.52A2,2,0,0,0,284.11,582.21Z"/><ellipse cx="192.31" cy="588.6" rx="9.8" ry="9.54" style="fill:#f1b517;stroke:#000;stroke-linecap:round;stroke-width:0.5px"/><path d="M433.06,462.15s-24.1,10.11-26.17-7.28c0,0-14.54,17.8,5.4,29.12,0,0-9.14-14.16,20.77-15.77,0,0,4.15.4,3.74-2.83A3.76,3.76,0,0,0,433.06,462.15Z" style="fill:#fff;stroke:#000;stroke-width:0.75px"/><path d="M436.82,465.94a225,225,0,0,0-23.29,3.48c-5.37,1-9.12.4-11.76-1,0,5.14,2.34,10.87,10.52,15.51,0,0-9.14-14.16,20.77-15.77,0,0,3.65.36,3.77-2.27Z"/><path d="M422.44,462l-2,.3,8.31,54.19,2-.3Z" style="fill:#fff;stroke:#000;stroke-width:0.75px"/><path d="M423.25,461.88l-3.65.53,1.67,10.92,3.65-.53Z" style="fill:#fff;stroke:#000;stroke-width:0.75px"/><ellipse cx="376.17" cy="606.34" rx="14.63" ry="6.71" style="fill:#fff;stroke:#000;stroke-width:0.15000000596046448px"/><path d="M377.48,526.81c-1.35-.07-2.66.15-3,.94-.72,1.58,1.44,1.93,1.44,1.93v8.94c0,2.8-2.34,45-3.42,53.26a30,30,0,0,1-1.92,7.38s-10.32,1.2-9.78,5.76,6.12,7.57,15.48,7.36c11.54-.26,14.76-2.63,15.3-5.43s-2.7-5.43-7.56-6.31l-2.52-14s.54,2.1,7.2.7,6.48-11.21,6.48-11.21.18-29.44-.18-34.87-3.42-8.06-7.74-9.64c-3.42-.53-5.76.18-6.12,2.1s-1.26,2.45-1.8,1.75,0-6,0-6,2.52-1.22,1.44-1.93a8.1,8.1,0,0,0-3.28-.77Zm8.68,10.05,2.34,1.23.72,6.31v31.89l-.36,2.1-3.06,2.45-3.42-.7-1.8-2.1-1.26-28.56-.36-9.11,4.32-2.8Z" style="fill:#f1b517;stroke:#000;stroke-width:0.75px"/><path d="M384.9,604s-4-9.81-4.86-35.57-1.26-27.86,0-29.09,4.86-3.33,7-2.1,1.62,1.58,2,6,.36,32.76.36,32.76-1.08,4.73-3.78,4.56-4.68-1.23-5-3.15" style="fill:none;stroke:#000;stroke-width:0.75px"/><path d="M367.62,604.5s3.78-4.38,4.86-12.62,3.42-50.46,3.42-53.26v-8.94" style="fill:none;stroke:#000;stroke-width:0.75px"/><path d="M324.11,573.89s13.21.38,17.49,8.32,1.94,15.51-3.11,18.54-15.94,5.3-21,2.27-8.55-12.86-2.72-14,15.55-3,14.38-6.81-6.22-3.78-6.22-3.78Z" style="fill:#fff;stroke:#000"/><path d="M325.89,572.17l-2.42-.38-1.92,8.36,2.42.38Z" style="fill:#fff;stroke:#000"/><path d="M138.38,532.54l55.81,28.27-.3.55L190,562l-53-26.86Z" style="fill:#fff;stroke:#000;stroke-width:0.75px"/><path d="M136.74,533.87l31.45,54.2-5.1-2.71-29-50Z" style="fill:#fff;stroke:#000;stroke-width:0.75px"/><path d="M83,481.16h0a1.56,1.56,0,0,1,1.06.45l53,51.19a1.47,1.47,0,0,1,0,2.12,1.57,1.57,0,0,1-2.17,0h0L82.78,484.6v-3.43H83Z"/><path d="M128.4,525.14a1.56,1.56,0,0,1,1.05.45L182,576.41l-4.6-.23-50.15-48.46a1.47,1.47,0,0,1-.05-2.12,1.56,1.56,0,0,1,1.16-.46Z" style="fill:#fff;stroke:#000;stroke-linecap:round;stroke-width:0.75px"/><ellipse cx="327.61" cy="626.81" rx="9.8" ry="9.54" style="fill:#f1b517;stroke:#000;stroke-linecap:round;stroke-width:0.5px"/><ellipse cx="304.25" cy="607.71" rx="9.8" ry="9.54" style="fill:#f1b517;stroke:#000;stroke-linecap:round;stroke-width:0.5px"/><ellipse cx="268.26" cy="609.98" rx="9.8" ry="9.54" style="fill:#f1b517;stroke:#000;stroke-linecap:round;stroke-width:0.5px"/><ellipse cx="240.92" cy="624.54" rx="9.8" ry="9.54" style="fill:#f1b517;stroke:#000;stroke-linecap:round;stroke-width:0.5px"/><ellipse cx="217.08" cy="624.54" rx="9.8" ry="9.54" style="fill:#f1b517;stroke:#000;stroke-linecap:round;stroke-width:0.5px"/><ellipse cx="193.25" cy="624.54" rx="9.8" ry="9.54" style="fill:#f1b517;stroke:#000;stroke-linecap:round;stroke-width:0.5px"/><ellipse cx="169.42" cy="624.54" rx="9.8" ry="9.54" style="fill:#f1b517;stroke:#000;stroke-linecap:round;stroke-width:0.5px"/><ellipse cx="228.76" cy="606.8" rx="9.8" ry="9.54" style="fill:#f1b517;stroke:#000;stroke-linecap:round;stroke-width:0.5px"/><ellipse cx="204.93" cy="606.8" rx="9.8" ry="9.54" style="fill:#f1b517;stroke:#000;stroke-linecap:round;stroke-width:0.5px"/><ellipse cx="181.1" cy="606.8" rx="9.8" ry="9.54" style="fill:#f1b517;stroke:#000;stroke-linecap:round;stroke-width:0.5px"/><path d="M279.32,240.64a13.68,13.68,0,0,1-5.77,12c-6.54,4.49-14.23,9.36-17.3,22.08s-.77,11.23-.77,11.23l20.38,3.37s-2.31-9,2.69-16.1,12.31-27.7,5.38-35.93Z" style="fill:#d20014;stroke:#000;stroke-width:0.75px"/><path d="M280,240.17c1.22,2.89,3.34,9.78-1.42,14.7-6.15,6.36-11.92,9.36-14.23,18a134.69,134.69,0,0,0-2.85,14.09l-6-1s-2.31,1.5.77-11.23,10.77-17.59,17.3-22.08a13.68,13.68,0,0,0,5.77-12Z" style="fill:#0a328c;stroke:#000;stroke-width:0.75px"/><path d="M282.39,236.9s3.85,8.61-.38,17.22-8.46,12.73-10.77,18.34,0,10.86-2.69,15" style="fill:none;stroke:#000;stroke-width:0.5px"/><path d="M122.88,615.14a.8.8,0,0,1,.73.88.81.81,0,0,1-.9.71h-.09s-13.93-2.13-24.28,8.14a.84.84,0,0,1-1.16.09.78.78,0,0,1-.09-1.13l.08-.08c10.95-10.86,25.7-8.6,25.7-8.6Z" style="fill:#fff;stroke:#000;stroke-linecap:round;stroke-width:0.5px"/><path d="M98.59,630.46a6.78,6.78,0,0,1-1.76,4.18c-1.79,2-5.34,4-12.14,4.22l0-1.6c6.51-.19,9.51-2,10.94-3.65a4.82,4.82,0,0,0,1.37-3.1Z" style="fill:#fff;stroke:#000;stroke-width:0.5px"/><path d="M78.92,646.47c-2.18-5.52-8.07-6.8-8.07-6.8s-.44-.42,1.31-4.46a11.12,11.12,0,0,0,.87-7C72.38,606.76,74.56,601,74.56,601c-1.53,0-8.51,8.07-8.51,8.07.22-20.39,31.19-29.94,31.19-29.94-11.34,28-7,31.22-7,31.22-7.2-3-8.07-7.64-8.07-7.64-1.31,7.64-.22,22.51-.22,22.51s-.44,7,6.33,3.61c3.62-1.82,21.15-10.1,21.15-10.1l1.67,5.84L87.65,635.21s-5.45,2.34-3.93,6.37,2.4,4.67,2.4,4.67Z" style="fill:#f1b517"/><path d="M119.05,614.95c-.28.51-.56,1-.85,1.61l-1.23.07c.28-.57.55-1.13.83-1.65l1.25,0Zm-4.15.32c-.19.53-.38,1.07-.58,1.67-.39.06-.79.15-1.19.22.19-.61.37-1.17.57-1.72Zm-4.48.9c-.1.55-.19,1.11-.28,1.73l-1.13.36c.08-.62.17-1.19.26-1.75C109.66,616.4,110,616.28,110.42,616.17Zm-4.47,1.59c0,.56,0,1.13.06,1.74L105,620c0-.6-.07-1.19-.08-1.74.36-.18.72-.37,1.08-.53ZM101.83,620q.17.81.38,1.67-.48.33-1,.68c-.15-.59-.27-1.14-.39-1.7Z"/><path d="M95.95,633.12l.78,1.61a8.7,8.7,0,0,1-.82.79L95.17,634c.14-.14.28-.27.4-.41S95.83,633.28,95.95,633.12Zm-2.23,2,.21,1.73c-.32.17-.67.32-1,.47l-.2-1.66A10.51,10.51,0,0,0,93.72,635.11Zm-2.6,1.15L90.8,638c-.36.1-.75.18-1.15.27l.31-1.71C90.37,636.49,90.76,636.38,91.12,636.26Zm-2.32.58L88,638.56c-.41.06-.81.11-1.25.15l.76-1.69C88,637,88.41,636.91,88.8,636.84Z"/><path d="M176.83,343.58s12.32-5.77,15.17-.92,4,14.53,0,20.3c0,0-17.54,2.08-26.54-.92l-1.18-.69Z" style="fill:#0a328c;stroke:#000;stroke-width:0.75px"/><path d="M189,348.87a12.45,12.45,0,0,1,5.31,1.22c.6,4.43.08,9.37-2.36,12.87,0,0-15.53,1.84-24.86-.45,4.49-1.37,12.23-8.6,17.52-12.24A7.91,7.91,0,0,1,189,348.87Z" style="fill:#d20014;stroke:#000;stroke-width:0.5669999718666077px"/><path d="M194.36,358.57s-5.92-3.92-15.4.23-9.48,3.46-9.48,3.46" style="fill:none;stroke:#000;stroke-width:0.5px"/><path d="M176.83,343.58s12.32-5.77,15.17-.92,4,14.53,0,20.3c0,0-17.54,2.08-26.54-.92l-1.18-.69Z" style="fill:none;stroke:#000;stroke-width:0.30000001192092896px"/><path d="M173.27,363.19s-1.9,7.84-2.37,24.22,3.08,27.45,4.5,27.22" style="fill:none;stroke:#000;stroke-width:0.5px"/><path d="M164.5,360.88s-7.11,6.92-8.06,22.61-.71,26.53-.71,26.53,11.61,6.69,22.51,3.92a35.39,35.39,0,0,1-2.13-11.07c-.24-6.46.24-39.91.24-39.91" style="fill:none;stroke:#000;stroke-width:0.26499998569488525px"/><path d="M270.43,288s-5.69,22.84-6.4,33.45" style="fill:none;stroke:#000;stroke-width:0.30000001192092896px"/><path d="M314.47,241.06s-5.79-7.68-22.91-1" style="fill:none;stroke:#000;stroke-width:0.5px"/><path d="M443.69,210.81l3.11-99.53,14.53-7.58,4.15,107.11Z" style="fill:#016a16;stroke:#000"/><path d="M449.65,20.21s-1.4,0-3.74-2.28-3.74-2.28-1.87-5.47,4.21-7.29,12.16-6.83,14,.91,16.84,9.11,3.74,30.06,1.4,39.17c-12.16-.46-30.41-10-33.22-16.4S449.65,20.21,449.65,20.21Z" style="fill:#0a328c;stroke:#000"/><path d="M561.37,272.44,530.44,336.1l-7.07-3.44-55.23,101.5L467.7,417l52.38-89.75-2.46-1.86,3.53-3.87,1.71,1,.06-.09s3.53-.43,4,.86Z" style="fill:#f1b517;stroke:#000;stroke-width:1.2280000448226929px"/><path d="M561.37,272.44,530.44,336.1l-7.07-3.44,3.73-9.74Zm-62.65,91.38a35.47,35.47,0,0,1,6.21,2.74l-7.62,14a14.58,14.58,0,0,0-6.18-2.76.86.86,0,0,1-.46-.19Z" style="fill:#fff;stroke:#000;stroke-width:0.5669999718666077px"/><path d="M521.16,321.47l1.59.89-2.73,4.8-2.4-1.82Z" style="fill:none;stroke:#000"/><path d="M561.37,272.44,530.44,336.1l-7.07-3.44-55.23,101.5L467.7,417l52.38-89.75-2.46-1.86,3.53-3.87,1.71,1,.06-.09s3.53-.43,4,.86Z" style="fill:none;stroke:#000;stroke-width:1.2280000448226929px"/><path d="M541.2,248.41l-24.25,66.34L509.56,312,465,418.37l-2.2-17.07,42.93-94.39-2.64-1.61,3.12-4.2,1.8.78,0-.1s3.47-.77,4,.47Z" style="fill:#f1b517;stroke:#000;stroke-width:1.2280000448226929px"/><path d="M541.2,248.41l-24.25,66.34L509.56,312,512.27,302Z" style="fill:#fff;stroke:#000;stroke-width:0.5669999718666077px"/><path d="M506.22,301.1l1.68.73-2.22,5-2.58-1.58Z" style="fill:none;stroke:#000"/><path d="M541.2,248.41l-24.25,66.34L509.56,312,465,418.37l-2.2-17.07,42.93-94.39-2.64-1.61,3.12-4.2,1.8.78,0-.1s3.47-.77,4,.47Z" style="fill:none;stroke:#000;stroke-width:1.2280000448226929px"/><path d="M541.2,248.41l-24.25,66.34L509.56,312,512.27,302Z" style="fill:#fff;stroke:#000"/><path d="M506.22,301.1l1.68.73-2.22,5-2.58-1.58Z" style="fill:none;stroke:#000;stroke-width:0.26499998569488525px"/><path d="M495,330.56a14.84,14.84,0,0,1,5.51,3.12l-5.87,14a37.39,37.39,0,0,0-6.17-2.77Z" style="fill:#fff;stroke:#000;stroke-width:0.5669999718666077px"/><path d="M541.2,248.41l-24.25,66.34L509.56,312,465,418.37l-2.2-17.07,42.93-94.39-2.64-1.61,3.12-4.2,1.8.78,0-.1s3.47-.77,4,.47Z" style="fill:none;stroke:#000;stroke-width:0.32499998807907104px"/><path d="M514.82,240.32,495.57,308.2,488,306,451.47,415.2,448,398.33l35.8-97.17-2.75-1.42,2.8-4.4,1.86.65,0-.1s3.41-1,4.07.19Z" style="fill:#f1b517;stroke:#000;stroke-width:1.2280000448226929px"/><path d="M514.82,240.32,495.57,308.2,488,306l2-10.22Z" style="fill:#fff;stroke:#000;stroke-width:0.5669999718666077px"/><path d="M483.85,295.34l1.73.61-1.84,5.19-2.69-1.39Z" style="fill:none;stroke:#000"/><path d="M514.82,240.32,495.57,308.2,488,306,451.47,415.2,448,398.33l35.8-97.17-2.75-1.42,2.8-4.4,1.86.65,0-.1s3.41-1,4.07.19Z" style="fill:none;stroke:#000;stroke-width:1.2280000448226929px"/><path d="M514.82,240.32,495.57,308.2,488,306l2-10.22Z" style="fill:#fff;stroke:#000"/><path d="M483.85,295.34l1.73.61-1.84,5.19-2.69-1.39Z" style="fill:none;stroke:#000;stroke-width:0.26499998569488525px"/><path d="M474.83,325.51a14.91,14.91,0,0,1,5.73,2.72l-4.81,14.39a37.54,37.54,0,0,0-6.36-2.33Z" style="fill:#fff;stroke:#000;stroke-width:0.5669999718666077px"/><path d="M514.82,240.32,495.57,308.2,488,306,451.47,415.2,448,398.33l35.8-97.17-2.75-1.42,2.8-4.4,1.86.65,0-.1s3.41-1,4.07.19Z" style="fill:none;stroke:#000;stroke-width:0.32499998807907104px"/><path d="M466,23.57s-9.83,1.82-9.36,6.38" style="fill:none;stroke:#000;stroke-linecap:round"/><path d="M461.35,13.38s-11.23,2.73-15,12.3" style="fill:none;stroke:#000"/><path d="M456.2,14.74s-6.55,5.47-9.36,3.64" style="fill:none;stroke:#000"/><path d="M445.16,27.91l-.66,0-1.3.36c-1.87,3.11-3.14,6.55-2,9.21a7.83,7.83,0,0,0,.83,1.41l1-.5S464.62,36.6,474,52.54l.56,1a71.33,71.33,0,0,0,1.22-15.44c-14.91-10-27.63-10.24-30.6-10.14Z" style="fill:#d20014;stroke:#000"/><path d="M470.24,28.58s-5.15,2.28-5.15,4.55" style="fill:none;stroke:#000;stroke-linecap:round"/><path d="M572,468.79l-1.49,61-82.08-5.33Z" style="fill:#d20014"/><path d="M734.67,397.61s-6,100.24-37.31,150.6L569.52,529.8l3.48-61,161.67-107Z" style="fill:#0a328c;stroke:#000;stroke-width:0.75px"/><path d="M615,243.67a21,21,0,0,1-14.52.65s-3.36,4.25,5.71,4.74c0,0,3.61.33,1.17,4.25" style="fill:#0a328c;stroke:#000"/><path d="M625.74,236.08s-13.68-10.86-22.32-10.21-9.06.49-9.82,2-2.27,8.25,1.59,13.23,5.45,3.76,6.13,2.7,6.13-4.17,16.45-1.88" style="fill:#d20014;stroke:#000"/><path d="M604.24,225.84c-.28,0-.55,0-.82,0-8.64.65-9.06.49-9.82,2a14.87,14.87,0,0,0-.63,8.27c1.29-1.2,3.95-2.35,9.44-2.06,10.91.57,17.29,4.9,17.29,4.9l1.08.75,5-3.61S612.9,225.88,604.24,225.84Z" style="fill:#0a328c;stroke:#000"/><path d="M466.2,485.51,564,398.73l14.47,32.62-9,36.35-80,54.29-21.94-5.34-.91-19.58Z" style="fill:#d20014"/><path d="M469.18,429.62l60-75.2,15.17,32.76-4.74,30.91L468,483.6Z" style="fill:#d20014"/><path d="M529.37,355.81s12.09,27,10.19,61.82l73-66.2,34.83-30.68-.71.46L642.17,300,640,288l-5.69,1.38v-6.92l-.95-6-5-9.46-4-10.15-.95-8.54,1.9-10.15-2.61,1.15Z" style="fill:#0a328c;stroke:#000;stroke-width:0.75px"/><path d="M745.49,360.88s7.11,6.92,8.06,22.61.71,26.53.71,26.53-11.61,6.69-22.51,3.92a35.39,35.39,0,0,0,2.13-11.07c.24-6.46-.24-39.91-.24-39.91Z" style="fill:#0a328c;stroke:#000"/><path d="M738.85,363l-5.21.34c0,.63.47,33.17.23,39.57a35.4,35.4,0,0,1-2.13,11.07,26.26,26.26,0,0,0,11.64,0c.09-1.26,1.39-20.43,1.16-30.47-.24-10.38-5.69-20.53-5.69-20.53Z" style="fill:#d20014;stroke:#000"/><path d="M831.07,646.47c2.18-5.52,8.07-6.8,8.07-6.8s.44-.42-1.31-4.46a11.12,11.12,0,0,1-.87-7c.65-21.45-1.53-27.18-1.53-27.18,1.53,0,8.51,8.07,8.51,8.07-.22-20.39-31.19-29.94-31.19-29.94,11.34,28,7,31.22,7,31.22,7.2-3,8.07-7.64,8.07-7.64,1.31,7.64.22,22.51.22,22.51s.44,7-6.33,3.61-34-16.14-34-16.14l-2.84,5.52,37.52,17s5.45,2.34,3.93,6.37-2.4,4.67-2.4,4.67Z" style="fill:#f1b517"/><path d="M828,625.23s1.09-14.86-.22-22.51c0,0-.87,4.67-8.07,7.64,0,0,4.36-3.19-7-31.22,0,0,31,9.56,31.19,29.94,0,0-7-8.07-8.51-8.07,0,0,2.18,5.73,1.53,27.18" style="fill:none;stroke:#000;stroke-width:1.5px"/><path d="M831.07,646.47c2.18-5.52,8.07-6.8,8.07-6.8s.44-.42-1.31-4.46a11.12,11.12,0,0,1-.87-7c.65-21.45-1.53-27.18-1.53-27.18,1.53,0,8.51,8.07,8.51,8.07-.22-20.39-31.19-29.94-31.19-29.94,11.34,28,7,31.22,7,31.22,7.2-3,8.07-7.64,8.07-7.64,1.31,7.64.22,22.51.22,22.51s.44,7-6.33,3.61-34-16.14-34-16.14l-2.84,5.52,37.52,17s5.45,2.34,3.93,6.37-2.4,4.67-2.4,4.67" style="fill:none;stroke:#000;stroke-width:1.5px"/><path d="M773.91,605.22a6.8,6.8,0,0,0-4,1.28,3.91,3.91,0,0,0-1.5,2.43,6.14,6.14,0,0,0,.75,3.74,8.47,8.47,0,0,0,6.82,4.4,15.18,15.18,0,0,0,4.44-.09l-.36-1.76a13.51,13.51,0,0,1-3.84.07,6.5,6.5,0,0,1-5.4-3.4,4.46,4.46,0,0,1-.6-2.66,2,2,0,0,1,.82-1.31,5.88,5.88,0,0,1,2.87-.9,4.74,4.74,0,0,1,2.64.48c1.23.6,3,2,5.34,5.1l1.49-1.07c-2.45-3.26-4.4-4.85-6-5.63a7,7,0,0,0-3.47-.68Z" style="fill:#f1b517;stroke:#000;stroke-width:0.30000001192092896px"/><path d="M776.75,624.38s.87-14,10-18.9c0,0,2.18.21,2.4,1.91S780.68,624,780.68,624Z" style="fill:#f1b517;stroke:#000;stroke-width:0.30000001192092896px"/><path d="M777.79,622.81s.73-11.68,8.36-15.75c0,0,1.82.18,2,1.59s-7.09,13.8-7.09,13.8Z" style="fill:#f1b517;stroke:#000;stroke-width:0.30000001192092896px"/><ellipse cx="693.84" cy="588.6" rx="9.8" ry="9.54" style="fill:#f1b517;stroke:#000;stroke-linecap:round;stroke-width:0.5px"/><path d="M819.78,489.33s16.51.92,16.32,8.87-2.66,15.71,2.85,17.18,16.89,1.48,19.74,4.43a9.87,9.87,0,0,1,2.85,6.28s-14.24-5-20.5-1.48-12.82-2-13.86-3.88c-2.28-4.07-.95-12-5.32-13.49s-18.22-1.66-18.22-1.66Z" style="fill:#d20014"/><path d="M699.93,380c2.58-43.35-5.16-94.25-5.16-94.25l-.65-7.54L560.51,402.58S570.19,392.52,567,444l11.62,17.59Z" style="fill:#0a328c;stroke:#000;stroke-width:0.75px"/><path d="M699.93,380c2.58-43.35-5.16-94.25-5.16-94.25l-.65-7.54" style="fill:none;stroke:#000;stroke-width:0.26499998569488525px"/><path d="M664.19,183.64l-17.89,40.6s-5.2-5.14-9.41.19l-4.2,5.32m31.43-46.16L629.6,212.26s6.59,3.31,2.6,8.81l-4,5.48,4.46,3.2" style="fill:#f1b517;stroke:#000"/><path d="M619,217.57l24.57,17.49-6.45,8.58-24.57-17.49Z" style="fill:#f1b517;stroke:#000"/><path d="M619.56,220.21l21.27,15.15L636.59,241l-21.27-15.15Z" style="fill:#f1b517;stroke:#000;stroke-width:0.5px"/><path d="M743.6,233.94l-24.27,37.33S715,265.39,710,270l-5,4.6m38.55-40.73-38.76,23s6,4.28,1.14,9.1l-4.81,4.8,3.89,3.85" style="fill:#f1b517;stroke:#000"/><path d="M693.47,260.47l21.41,21.06L707.11,289,685.71,268Z" style="fill:#f1b517;stroke:#000"/><path d="M693.58,263.16l18.54,18.24L707,286.33l-18.54-18.24Z" style="fill:#f1b517;stroke:#000;stroke-width:0.5px"/><path d="M795.28,318.84l-30.48,32.73s-3.2-6.51-9-2.8l-5.75,3.7m45.15-33.7L753,335s5.12,5.21-.48,9.15L746.93,348l3.15,4.44" style="fill:#f1b517;stroke:#000"/><path d="M741.22,336.62l17.38,24.32-9,6.07-17.38-24.32Z" style="fill:#f1b517;stroke:#000"/><path d="M740.86,339.29l15.05,21.06-5.9,4L735,343.29Z" style="fill:#f1b517;stroke:#000;stroke-width:0.5px"/><path d="M623.84,234.19,468.63,426.09l.81,3.32L626.25,236Z" style="fill:#f1b517;stroke:#000"/><path d="M690.86,281.1,466.44,483.74l2.09,2.2L692.94,283.29Z" style="fill:#f1b517;stroke:#000"/><path d="M727,362.24,488.07,521.42l1.74,2.47L728.72,364.71Z" style="fill:#f1b517;stroke:#000"/><path d="M701.4,283.77s-22.52-4.19-28-1,9.6,3.43,12.53,2.48l-5.68,5.53s-12.93-3.05-15.08-14.87,6.46-11.82,8.42-11.63S686.91,266.23,701.4,283.77Z" style="fill:#0a328c;stroke:#000"/><path d="M669.07,271.35c-2.47.71-4.34,2.41-3.7,5.56a37.16,37.16,0,0,0,2,5.53,1.22,1.22,0,0,1,.3-.34,18,18,0,0,0,2.48,3c.76-.28,1.51-.52,2.21-.71-.28-.42,0-.94,1.08-1.58a7.81,7.81,0,0,1,2.4-.81c4.09-1.53,10.21.06,11.5-.14l6.86.38s-20.41-12.25-25.09-10.9Z" style="fill:#d20014;stroke:#000"/><path d="M692.39,281.48s-25.1-7.31-25.1-.25" style="fill:none;stroke:#000;stroke-width:0.5px"/><path d="M701.4,283.77s-22.52-4.19-28-1,9.6,3.43,12.53,2.48l-5.68,5.53s-12.93-3.05-15.08-14.87,6.46-11.82,8.42-11.63S686.91,266.23,701.4,283.77Z" style="fill:none;stroke:#000;stroke-width:0.30000001192092896px"/><path d="M698.47,283.59c-.59,2.75-1.23,6.37-.9,8,7.33,18.24,17.31,18.64,13.4,40.8l7.73-.21c.83-10.28-.83-20-2.78-24.35-1-2.16-3.13-4.74-5.49-7.24s-4.93-4.94-6.74-6.83c-3.61-3.79-1.11-8.66-1.11-8.66Z" style="fill:#0a328c;stroke:#000"/><path d="M693.68,281.84a25.27,25.27,0,0,0-1.36,8.38,24.38,24.38,0,0,0,1.36,8.13,76.6,76.6,0,0,1,2.59,8.91c1.42,6.33,2.22,13.91,2.41,25.45l12.29-.33c3.91-22.16-6.06-22.56-13.4-40.8-.33-1.62.32-5.24.9-8Z" style="fill:#d20014;stroke:#000"/><path d="M702.57,285.08s-2.5,4.87,1.11,8.66c1.81,1.89,4.38,4.33,6.74,6.83s4.52,5.07,5.49,7.24c1.95,4.33,3.61,14.07,2.78,24.35m0,0-20,.54c-.19-11.54-1-19.12-2.41-25.45a76.62,76.62,0,0,0-2.59-8.91,24.38,24.38,0,0,1-1.36-8.13,25.3,25.3,0,0,1,1.36-8.38l8.89,3.25" style="fill:none;stroke:#000;stroke-width:0.30000001192092896px"/><path d="M705.07,332.43s2.78-12.18-3.61-23c-6.44-11.06-8.36-27.9-5-26.79" style="fill:none;stroke:#000;stroke-width:0.5px"/><path d="M682.69,509.18l-17.28,29.45-68.3,4.95-6.45.85s-10,22.89-21.05,25.94-85.17,25.54-85.17,25.54l-2.28-16.49,48-15.08s14.09-5,18.28-10.39S587.55,516,587.55,516Z" style="fill:#f1b517;stroke:#000;stroke-width:0.5px"/><path d="M652.09,434.1,552.81,595.16l2.11,1.23,99.27-161.06Z" style="fill:#f1b517;stroke:#000"/><path d="M650.09,440.6s2.8,2.58,6.28-1.55S670,417.86,672,414.76s4.45-5.69,1.15-7.75-7.93.52-11.74,8.27S645.07,436.47,650.09,440.6Z" style="fill:#fff;stroke:#000"/><path d="M737.94,462.72c3.71-.49,10,6.57,11.73,18.84s.06,22.6-3.64,23.09c-1.36.17-2.87-1-4.34-3.42l-198.19,26-4.17-36.45L736,468c.64-4.69.11-5,2-5.26Z" style="fill:#f1b517;stroke:#000;stroke-width:0.75px"/><path d="M547.18,490a24.42,24.42,0,0,1,1.62,3m2.67-3.48a24.42,24.42,0,0,1,1.62,3m2.67-3.48a24.42,24.42,0,0,1,1.62,3m2.67-3.48a24.42,24.42,0,0,1,1.62,3m2.67-3.48a24.42,24.42,0,0,1,1.62,3m2.67-3.48a24.42,24.42,0,0,1,1.62,3m2.67-3.48a24.42,24.42,0,0,1,1.62,3m2.67-3.48a24.41,24.41,0,0,1,1.62,3m2.67-3.48a24.41,24.41,0,0,1,1.62,3m2.67-3.48a24.41,24.41,0,0,1,1.62,3m2.67-3.48a24.41,24.41,0,0,1,1.62,3m2.67-3.48a24.41,24.41,0,0,1,1.62,3m2.67-3.48a24.41,24.41,0,0,1,1.62,3m2.67-3.48a24.41,24.41,0,0,1,1.62,3m2.67-3.48a24.41,24.41,0,0,1,1.62,3m2.67-3.48a24.41,24.41,0,0,1,1.62,3m2.67-3.48a24.41,24.41,0,0,1,1.62,3m2.67-3.48a24.41,24.41,0,0,1,1.62,3m2.67-3.48a24.41,24.41,0,0,1,1.62,3m2.67-3.48a24.41,24.41,0,0,1,1.62,3m2.67-3.48a24.41,24.41,0,0,1,1.62,3m2.67-3.48a24.41,24.41,0,0,1,1.62,3m2.67-3.48a24.41,24.41,0,0,1,1.62,3m2.67-3.48a24.41,24.41,0,0,1,1.62,3m2.67-3.48a24.41,24.41,0,0,1,1.62,3m2.67-3.48a24.41,24.41,0,0,1,1.62,3m2.67-3.48a24.41,24.41,0,0,1,1.62,3m2.67-3.48a24.41,24.41,0,0,1,1.62,3m2.67-3.48a24.41,24.41,0,0,1,1.62,3m2.67-3.48a24.41,24.41,0,0,1,1.62,3m2.67-3.48a24.41,24.41,0,0,1,1.62,3m2.67-3.48a24.41,24.41,0,0,1,1.62,3m2.67-3.48a24.41,24.41,0,0,1,1.62,3m2.67-3.48a24.41,24.41,0,0,1,1.62,3m2.67-3.48a24.41,24.41,0,0,1,1.62,3m2.67-3.48a24.41,24.41,0,0,1,1.62,3m2.67-3.48a24.41,24.41,0,0,1,1.62,3m2.67-3.48a24.41,24.41,0,0,1,1.62,3m2.67-3.48a24.41,24.41,0,0,1,1.62,3m2.67-3.48a24.41,24.41,0,0,1,1.62,3m2.67-3.48a24.41,24.41,0,0,1,1.62,3m2.67-3.48a24.41,24.41,0,0,1,1.62,3m2.67-3.48a24.41,24.41,0,0,1,1.62,3m2.67-3.48a24.41,24.41,0,0,1,1.62,3m2.67-3.48a24.41,24.41,0,0,1,1.62,3" style="fill:#f4cf0e;stroke:#000;stroke-linecap:round;stroke-width:0.5px"/><path d="M742.74,480,542,506.28" style="fill:none;stroke:#000;stroke-width:0.75px"/><path d="M743.35,484.39,542.64,510.67" style="fill:none;stroke:#000;stroke-width:0.75px"/><path d="M744,488.78,543.25,515.06" style="fill:none;stroke:#000;stroke-width:0.75px"/><path d="M744.26,491,543.55,517.26" style="fill:none;stroke:#000;stroke-width:0.75px"/><path d="M744.56,493.17,543.86,519.45" style="fill:none;stroke:#000;stroke-width:0.75px"/><path d="M744.87,495.36,544.16,521.64" style="fill:none;stroke:#000;stroke-width:0.75px"/><path d="M745.17,497.56,544.46,523.84" style="fill:none;stroke:#000;stroke-width:0.75px"/><path d="M745.47,499.75,544.77,526" style="fill:none;stroke:#000;stroke-width:0.75px"/><path d="M708.11,468.11c3.49-.22,7,8.68,7.76,19.87h0c.8,11.19-1.38,20.43-4.87,20.65h0a2.8,2.8,0,0,1-2-.86c2.28-3.07,3.39-10.76,2.79-19.25-.63-8.81-3-16.5-5.78-19a3,3,0,0,1,2.08-1.4Z" style="fill:#f1b517;stroke:#000;stroke-linecap:round;stroke-width:0.75px"/><path d="M567.75,486.49c3.49-.22,7,8.68,7.76,19.87h0c.8,11.19-1.38,20.43-4.87,20.65h0a2.8,2.8,0,0,1-2-.86c2.28-3.07,3.39-10.76,2.79-19.25-.63-8.81-3-16.5-5.78-19a3,3,0,0,1,2.08-1.4Z" style="fill:#f1b517;stroke:#000;stroke-linecap:round;stroke-width:0.75px"/><path d="M538.35,502.8l-11.19-.73s-6.87,2.3-7.3,5.15-.66,7.08-.1,8.21,13.62,3.42,18.2-.58Z" style="fill:#f1b517;stroke:#000;stroke-width:0.15000000596046448px"/><path d="M519.86,507.22c4.48,1.07,12.37.64,18.34.08l-.25,7.55c-4.58,4-17.63,1.71-18.2.58s-.33-5.36.1-8.21h0Z"/><path d="M540.43,489.74a1.73,1.73,0,0,1,1.37.8c-1,3.93-1.23,10.51-.73,17.51.58,8,2.1,15.29,3.88,18.56-.52,1.46-1.15,2.26-1.84,2.33-2.42.21-5-8.39-5.72-19.22h0c-.74-10.82.62-19.77,3-20h0Z" style="fill:#f1b517;stroke:#000;stroke-linecap:round;stroke-width:0.75px"/><path d="M653.31,490v.13a5,5,0,0,0-4,4.82v33l24-23.33a4.83,4.83,0,0,0,.7-6.13l.1-.09,10.38,10.11,0,0a5.15,5.15,0,0,0-6.75.35l-24.36,23.72h34.69A5,5,0,0,0,693,528.8h.14v14.29h-.06a5,5,0,0,0-5-4.4H653.59l24.53,23.88a5.17,5.17,0,0,0,6.29.69l.1.09-10.38,10.11,0,0a4.82,4.82,0,0,0-.36-6.57l-24.36-23.72v33.77a5,5,0,0,0,4,4.82v.13H638.63v-.06a5,5,0,0,0,4.52-4.89V542.59l-24.93,24.27a4.82,4.82,0,0,0-.36,6.57l0,0-10.38-10.11.1-.09a5.17,5.17,0,0,0,6.29-.69l24.53-23.88H603.9a5,5,0,0,0-5,4.4h-.06V528.8h.14a5,5,0,0,0,4.95,3.85h34.69l-24.36-23.72a5.15,5.15,0,0,0-6.75-.35l0,0,10.38-10.11.1.09a4.83,4.83,0,0,0,.7,6.13l24.53,23.88V495a5,5,0,0,0-4.52-4.89V490Z" style="fill:#f1b517;stroke:#000;stroke-linecap:round;stroke-width:0.5px"/><ellipse cx="646.25" cy="536.38" rx="9.35" ry="9.1" style="fill:#f1b517;stroke:#000;stroke-linecap:round;stroke-width:0.5px"/><path d="M646.25,475.75c34.16,0,61.84,27,61.84,60.2h0c0,33.25-27.69,60.2-61.84,60.2h0c-34.16,0-61.84-27-61.84-60.2h0c0-33.25,27.69-60.2,61.84-60.2Zm0,15.32c-25.46,0-46.11,20.09-46.11,44.88s20.64,44.88,46.11,44.88,46.11-20.09,46.11-44.88S671.72,491.07,646.25,491.07Z" style="fill:#f1b517;stroke:#000;stroke-linecap:round;stroke-width:0.6000000238418579px"/><ellipse cx="646.25" cy="483.17" rx="1.98" ry="1.92"/><ellipse cx="646.25" cy="588.18" rx="1.98" ry="1.92"/><path d="M606.72,497.19a1.89,1.89,0,0,0,0,2.72,2,2,0,0,0,2.79,0,1.89,1.89,0,0,0,0-2.72A2,2,0,0,0,606.72,497.19Z"/><path d="M683,571.44a1.89,1.89,0,0,0,0,2.72,2,2,0,0,0,2.79,0,1.89,1.89,0,0,0,0-2.72A2,2,0,0,0,683,571.44Z"/><path d="M685.79,497.19a1.89,1.89,0,0,1,0,2.72,2,2,0,0,1-2.79,0,1.89,1.89,0,0,1,0-2.72A2,2,0,0,1,685.79,497.19Z"/><path d="M609.51,571.44a1.89,1.89,0,0,1,0,2.72,2,2,0,0,1-2.79,0,1.89,1.89,0,0,1,0-2.72A2,2,0,0,1,609.51,571.44Z"/><ellipse cx="700.19" cy="535.67" rx="1.98" ry="1.92"/><ellipse cx="592.32" cy="535.67" rx="1.98" ry="1.92"/><path d="M698.07,556.12a2,2,0,0,1-2.57,1.06,1.91,1.91,0,0,1-1.09-2.5,2,2,0,0,1,2.57-1.06A1.91,1.91,0,0,1,698.07,556.12Z"/><path d="M598.1,516.67a2,2,0,0,1-2.57,1.06,1.91,1.91,0,0,1-1.09-2.5,2,2,0,0,1,2.57-1.06A1.91,1.91,0,0,1,598.1,516.67Z"/><path d="M594.94,557.28a2,2,0,0,0,2.6,1,1.9,1.9,0,0,0,1-2.53,2,2,0,0,0-2.6-1A1.9,1.9,0,0,0,594.94,557.28Z"/><path d="M693.94,515.59a2,2,0,0,0,2.6,1,1.9,1.9,0,0,0,1-2.53,2,2,0,0,0-2.6-1A1.9,1.9,0,0,0,693.94,515.59Z"/><path d="M624.34,485.6a1.9,1.9,0,0,0-1,2.52,2,2,0,0,0,2.59,1,1.9,1.9,0,0,0,1-2.52A2,2,0,0,0,624.34,485.6Z"/><path d="M666.62,582.21a1.9,1.9,0,0,0-1,2.52,2,2,0,0,0,2.59,1,1.9,1.9,0,0,0,1-2.52A2,2,0,0,0,666.62,582.21Z"/><path d="M668.17,485.6a1.9,1.9,0,0,1,1,2.52,2,2,0,0,1-2.59,1,1.9,1.9,0,0,1-1-2.52A2,2,0,0,1,668.17,485.6Z"/><path d="M625.88,582.21a1.9,1.9,0,0,1,1,2.52,2,2,0,0,1-2.59,1,1.9,1.9,0,0,1-1-2.52A2,2,0,0,1,625.88,582.21Z"/><ellipse cx="717.68" cy="588.6" rx="9.8" ry="9.54" style="fill:#f1b517;stroke:#000;stroke-linecap:round;stroke-width:0.5px"/><path d="M476.93,462.15s24.1,10.11,26.17-7.28c0,0,14.54,17.8-5.4,29.12,0,0,9.14-14.16-20.77-15.77,0,0-4.15.4-3.74-2.83A3.76,3.76,0,0,1,476.93,462.15Z" style="fill:#fff;stroke:#000;stroke-width:0.75px"/><path d="M473.17,465.94a225,225,0,0,1,23.29,3.48c5.37,1,9.12.4,11.76-1,0,5.14-2.34,10.87-10.52,15.51,0,0,9.14-14.16-20.77-15.77,0,0-3.65.36-3.77-2.27Z"/><path d="M487.56,462l2,.3-8.31,54.19-2-.3Z" style="fill:#fff;stroke:#000;stroke-width:0.75px"/><path d="M486.74,461.88l3.65.53-1.67,10.92-3.65-.53Z" style="fill:#fff;stroke:#000;stroke-width:0.75px"/><ellipse cx="533.82" cy="606.34" rx="14.63" ry="6.71" style="fill:#fff;stroke:#000;stroke-width:0.15000000596046448px"/><path d="M532.52,526.81c1.35-.07,2.66.15,3,.94.72,1.58-1.44,1.93-1.44,1.93v8.94c0,2.8,2.34,45,3.42,53.26a30,30,0,0,0,1.92,7.38s10.32,1.2,9.78,5.76-6.12,7.57-15.48,7.36c-11.54-.26-14.76-2.63-15.3-5.43s2.7-5.43,7.56-6.31l2.52-14s-.54,2.1-7.2.7-6.48-11.21-6.48-11.21-.18-29.44.18-34.87,3.42-8.06,7.74-9.64c3.42-.53,5.76.18,6.12,2.1s1.26,2.45,1.8,1.75,0-6,0-6-2.52-1.22-1.44-1.93a8.1,8.1,0,0,1,3.28-.77Zm-8.68,10.05-2.34,1.23-.72,6.31v31.89l.36,2.1,3.06,2.45,3.42-.7,1.8-2.1,1.26-28.56.36-9.11-4.32-2.8Z" style="fill:#f1b517;stroke:#000;stroke-width:0.75px"/><path d="M525.09,604s4-9.81,4.86-35.57,1.26-27.86,0-29.09-4.86-3.33-7-2.1-1.62,1.58-2,6-.36,32.76-.36,32.76,1.08,4.73,3.78,4.56,4.68-1.23,5-3.15" style="fill:none;stroke:#000;stroke-width:0.75px"/><path d="M542.37,604.5s-3.78-4.38-4.86-12.62-3.42-50.46-3.42-53.26v-8.94" style="fill:none;stroke:#000;stroke-width:0.75px"/><path d="M585.88,573.89s-13.21.38-17.49,8.32-1.94,15.51,3.11,18.54,15.94,5.3,21,2.27,8.55-12.86,2.72-14-15.55-3-14.38-6.81,6.22-3.78,6.22-3.78Z" style="fill:#fff;stroke:#000"/><path d="M584.1,572.17l2.42-.38,1.92,8.36-2.42.38Z" style="fill:#fff;stroke:#000"/><path d="M771.61,532.54,715.8,560.8l.3.55L720,562l53-26.86Z" style="fill:#fff;stroke:#000;stroke-width:0.75px"/><path d="M773.26,533.87l-31.45,54.2,5.1-2.71,29-50Z" style="fill:#fff;stroke:#000;stroke-width:0.75px"/><path d="M827,481.16h0a1.56,1.56,0,0,0-1.06.45L773,532.8a1.47,1.47,0,0,0,0,2.12,1.57,1.57,0,0,0,2.17,0h0l52.07-50.32v-3.43H827Z"/><path d="M781.6,525.14a1.56,1.56,0,0,0-1.05.45L728,576.41l4.6-.23,50.15-48.46a1.47,1.47,0,0,0,.05-2.12,1.56,1.56,0,0,0-1.16-.46Z" style="fill:#fff;stroke:#000;stroke-width:0.75px"/><ellipse cx="582.38" cy="626.81" rx="9.8" ry="9.54" style="fill:#f1b517;stroke:#000;stroke-linecap:round;stroke-width:0.5px"/><ellipse cx="605.75" cy="607.71" rx="9.8" ry="9.54" style="fill:#f1b517;stroke:#000;stroke-linecap:round;stroke-width:0.5px"/><ellipse cx="641.73" cy="609.98" rx="9.8" ry="9.54" style="fill:#f1b517;stroke:#000;stroke-linecap:round;stroke-width:0.5px"/><ellipse cx="669.08" cy="624.54" rx="9.8" ry="9.54" style="fill:#f1b517;stroke:#000;stroke-linecap:round;stroke-width:0.5px"/><ellipse cx="692.91" cy="624.54" rx="9.8" ry="9.54" style="fill:#f1b517;stroke:#000;stroke-linecap:round;stroke-width:0.5px"/><ellipse cx="716.75" cy="624.54" rx="9.8" ry="9.54" style="fill:#f1b517;stroke:#000;stroke-linecap:round;stroke-width:0.5px"/><ellipse cx="740.58" cy="624.54" rx="9.8" ry="9.54" style="fill:#f1b517;stroke:#000;stroke-linecap:round;stroke-width:0.5px"/><ellipse cx="681.23" cy="606.8" rx="9.8" ry="9.54" style="fill:#f1b517;stroke:#000;stroke-linecap:round;stroke-width:0.5px"/><ellipse cx="705.06" cy="606.8" rx="9.8" ry="9.54" style="fill:#f1b517;stroke:#000;stroke-linecap:round;stroke-width:0.5px"/><ellipse cx="728.89" cy="606.8" rx="9.8" ry="9.54" style="fill:#f1b517;stroke:#000;stroke-linecap:round;stroke-width:0.5px"/><path d="M630.68,240.64a13.68,13.68,0,0,0,5.77,12c6.54,4.49,14.23,9.36,17.3,22.08s.77,11.23.77,11.23l-20.38,3.37s2.31-9-2.69-16.1-12.31-27.7-5.38-35.93Z" style="fill:#d20014;stroke:#000"/><path d="M630,240.17c-1.22,2.89-3.34,9.78,1.42,14.7,6.15,6.36,11.92,9.36,14.23,18a134.69,134.69,0,0,1,2.85,14.09l6-1s2.31,1.5-.77-11.23-10.77-17.59-17.3-22.08a13.68,13.68,0,0,1-5.77-12Z" style="fill:#0a328c;stroke:#000"/><path d="M627.6,236.9s-3.85,8.61.38,17.22,8.46,12.73,10.77,18.34,0,10.86,2.69,15" style="fill:none;stroke:#000;stroke-width:0.5px"/><path d="M787.11,615.14a.8.8,0,0,0-.73.88.81.81,0,0,0,.9.71h.09s13.93-2.13,24.28,8.14a.84.84,0,0,0,1.16.09.78.78,0,0,0,.09-1.13l-.08-.08c-10.95-10.86-25.7-8.6-25.7-8.6Z" style="fill:#fff;stroke:#000;stroke-linecap:round;stroke-width:0.5px"/><path d="M811.41,630.46a6.78,6.78,0,0,0,1.76,4.18c1.79,2,5.34,4,12.14,4.22l0-1.6c-6.51-.19-9.51-2-10.94-3.65a4.82,4.82,0,0,1-1.37-3.1Z" style="fill:#fff;stroke:#000;stroke-width:0.5px"/><path d="M831.07,646.47c2.18-5.52,8.07-6.8,8.07-6.8s.44-.42-1.31-4.46a11.12,11.12,0,0,1-.87-7c.65-21.45-1.53-27.18-1.53-27.18,1.53,0,8.51,8.07,8.51,8.07-.22-20.39-31.19-29.94-31.19-29.94,11.34,28,7,31.22,7,31.22,7.2-3,8.07-7.64,8.07-7.64,1.31,7.64.22,22.51.22,22.51s.44,7-6.33,3.61c-3.62-1.82-21.15-10.1-21.15-10.1l-1.67,5.84,23.48,10.63s5.45,2.34,3.93,6.37-2.4,4.67-2.4,4.67Z" style="fill:#f1b517"/><path d="M790.94,614.95c.28.51.56,1,.85,1.61l1.23.07c-.28-.57-.55-1.13-.83-1.65l-1.25,0Zm4.15.32c.19.53.38,1.07.58,1.67.39.06.79.15,1.19.22-.19-.61-.37-1.17-.57-1.72Zm4.48.9c.1.55.19,1.11.28,1.73l1.13.36c-.08-.62-.17-1.19-.26-1.75C800.33,616.4,800,616.28,799.57,616.17Zm4.47,1.59c0,.56,0,1.13-.06,1.74L805,620c0-.6.07-1.19.08-1.74-.36-.18-.72-.37-1.08-.53Zm4.12,2.24q-.17.81-.38,1.67.48.33,1,.68c.15-.59.27-1.14.39-1.7Z"/><path d="M814,633.12l-.78,1.61a8.7,8.7,0,0,0,.82.79l.73-1.52c-.14-.14-.28-.27-.4-.41S814.16,633.28,814,633.12Zm2.23,2-.21,1.73c.32.17.67.32,1,.47l.2-1.66A10.51,10.51,0,0,1,816.28,635.11Zm2.6,1.15.32,1.76c.36.1.75.18,1.15.27l-.31-1.71C819.62,636.49,819.23,636.38,818.87,636.26Zm2.32.58.76,1.72c.41.06.81.11,1.25.15l-.76-1.69C822,637,821.58,636.91,821.19,636.84Z"/><path d="M733.17,343.58s-12.32-5.77-15.17-.92-4,14.53,0,20.3c0,0,17.54,2.08,26.54-.92l1.18-.69Z" style="fill:#0a328c;stroke:#000"/><path d="M720.95,348.87a12.45,12.45,0,0,0-5.31,1.22c-.6,4.43-.08,9.37,2.36,12.87,0,0,15.53,1.84,24.86-.45-4.49-1.37-12.23-8.6-17.52-12.24A7.91,7.91,0,0,0,720.95,348.87Z" style="fill:#d20014;stroke:#000"/><path d="M715.63,358.57s5.92-3.92,15.4.23,9.48,3.46,9.48,3.46" style="fill:none;stroke:#000;stroke-width:0.5px"/><path d="M733.17,343.58s-12.32-5.77-15.17-.92-4,14.53,0,20.3c0,0,17.54,2.08,26.54-.92l1.18-.69Z" style="fill:none;stroke:#000;stroke-width:0.30000001192092896px"/><path d="M736.72,363.19s1.9,7.84,2.37,24.22-3.08,27.45-4.5,27.22" style="fill:none;stroke:#000;stroke-width:0.5px"/><path d="M745.49,360.88s7.11,6.92,8.06,22.61.71,26.53.71,26.53-11.61,6.69-22.51,3.92a35.39,35.39,0,0,0,2.13-11.07c.24-6.46-.24-39.91-.24-39.91" style="fill:none;stroke:#000;stroke-width:0.26499998569488525px"/><path d="M639.56,288s5.69,22.84,6.4,33.45" style="fill:none;stroke:#000;stroke-width:0.30000001192092896px"/><path d="M575.53,464.35s6.46-6.79,6.87-9.69.31-7.69-3.69-7.79-23-3.2-28.73,1.3-6.77,6.79-5.64,9.09,5.85,6,9.75,5.79,7.69,1.5,9.23.6,8.21-8.59,10-1.7l.21,2.3Z" style="fill:#d20014;stroke:#000;stroke-width:0.5px"/><path d="M557.2,490.18s3.89-18.09,10.37-26.09c0,0,8.21-2.1,11.24,0s-.43-2.52,3,1.68S585.3,486,585.3,486l4.32,3.79c-11.24,5-32.42.42-32.42.42Z" style="fill:#f1b617;stroke:#000"/><path d="M588.75,489.26c-10.37,5.47-31.56,1.26-31.56,1.26s-3.46,8,0,6.73,1.73,2.95,5.19,0,3.46-3.79,3.46-3.79,19.89,0,23.78-1.26Z" style="stroke:#000;stroke-width:0.15000000596046448px"/><path d="M569.78,466.7a22.73,22.73,0,0,0,3.16.52M569.69,469a21.89,21.89,0,0,0,3.15.48m-3.24,1.79a21.19,21.19,0,0,0,3.14.44m-3.23,1.83a20.61,20.61,0,0,0,3.13.4m-3.22,1.87a20.13,20.13,0,0,0,3.12.36M569.33,478a19.76,19.76,0,0,0,3.11.31m-3.2,2a19.49,19.49,0,0,0,3.1.27m-3.19,2a19.32,19.32,0,0,0,3.09.23m-3.18,2a19.22,19.22,0,0,0,3.08.19M569,487.1a19.31,19.31,0,0,0,3.07.15m-3.16,2.12a19.37,19.37,0,0,0,3.05.1" style="fill:none;stroke:#000;stroke-width:0.5px"/><path d="M576.22,467.65a4.68,4.68,0,0,0,3.23-1.65M576,469.83A6.76,6.76,0,0,0,580,468m-4.13,4a9.16,9.16,0,0,0,4.67-2m-4.85,4.21a11.87,11.87,0,0,0,5.39-2.22m-5.57,4.4A14.84,14.84,0,0,0,581.6,474m-6.29,4.59a18,18,0,0,0,6.83-2.6m-7,4.78a21.47,21.47,0,0,0,7.55-2.79m-7.73,5a25.08,25.08,0,0,0,8.27-3m-8.45,5.16a28.87,28.87,0,0,0,9-3.16m-9.17,5.34a32.83,32.83,0,0,0,9.71-3.35m-9.89,5.53a36.92,36.92,0,0,0,10.43-3.54" style="fill:none;stroke:#000;stroke-width:0.5px"/><path d="M568.45,457.16l-6.87,6.39M564,457l-4.53,6.31m.1-6.45-2.2,6.23m-2.24-6.37.14,6.15m-4.58-6.29,2.48,6.07m-6.92-6.21,4.82,6" style="fill:#d20014;stroke:#000;stroke-width:0.5px"/><path d="M548.86,457l3,5.69" style="fill:#d20014;stroke:#000;stroke-width:0.5px"/><path d="M595.53,241.06s5.79-7.68,22.91-1" style="fill:none;stroke:#000;stroke-width:0.5px"/><path d="M466,210.34s7,219.38,1.27,301.8M466,210.34c-8.27-1.21-22.12,0-22.12,0s-7,219.38-1.27,301.8c0,0,15.12-1.82,24.66,0" style="fill:#f1b517;stroke:#000"/><path d="M454.22,220.46c-1.53,0-3,0-4.44,0-2.29,0-4.3.11-6.25.18,0,.26,0,.79,0,1.05,6.12-.23,14-.34,22.8,0,0-.27,0-.8,0-1.06-4.24-.15-8.31-.21-12-.19Zm-.12,7.68-4.43,0c-2.33,0-4.38.1-6.36.17,0,.32,0,.73,0,1.06,6.19-.21,14.21-.32,23.22,0,0-.33,0-.74,0-1.06-4.37-.15-8.55-.21-12.38-.2Zm-.12,7.69-4.41,0c-2.37,0-4.46.09-6.46.15,0,.38,0,.67,0,1.06,6.26-.2,14.44-.29,23.64,0,0-.38,0-.68,0-1.06-4.49-.15-8.79-.22-12.71-.21Zm-.12,7.69-4.4,0c-2.41,0-4.54.08-6.57.14,0,.43,0,.62,0,1.06,6.33-.18,14.67-.26,24.06,0,0-.44,0-.63,0-1.06-4.62-.15-9-.22-13-.21Zm-4.5,7.71c-2.44,0-4.61.07-6.65.12,0,.32,0,.74,0,1.06,6.39-.16,14.87-.23,24.43.07,0-.32,0-.74,0-1.06C460.59,251.21,454.55,251.17,449.36,251.23Zm-.11,7.68c-2.47,0-4.67.06-6.73.11,0,.34,0,.72,0,1.06,6.45-.14,15.06-.2,24.79.1,0-.34,0-.72,0-1.06-6.61-.2-12.75-.24-18-.2Zm-.11,7.68c-2.5,0-4.73,0-6.8.08,0,.36,0,.7,0,1.06,6.5-.12,15.26-.16,25.16.12,0-.36,0-.7,0-1.06-6.72-.19-13-.24-18.3-.21Zm-.11,7.68c-2.53,0-4.79,0-6.87.07,0,.37,0,.67,0,1,6.55-.1,15.45-.12,25.52.15,0-.38,0-.68,0-1.05C460.78,274.3,454.44,274.25,449,274.27Zm-.11,7.68c-2.55,0-4.85,0-6.95,0,0,.39,0,.66,0,1.06,6.61-.08,15.63-.09,25.88.17,0-.4,0-.67,0-1.06-7-.18-13.41-.23-18.89-.22Zm-.1,7.69c-2.58,0-4.89,0-7,0,0,.34,0,.71,0,1.05,6.65-.05,15.8,0,26.2.19,0-.35,0-.71,0-1.05-7.09-.16-13.61-.22-19.15-.22Zm-.11,7.68h-7c0,.36,0,.7,0,1.06,6.69,0,16,0,26.51.22,0-.36,0-.7,0-1.06-7.2-.15-13.82-.21-19.42-.23Zm-.1,7.68c-3,0-4.77,0-7.1,0,0,.36,0,.69,0,1.05,6.78,0,15.67,0,26.82.22,0-.36,0-.69,0-1.05-7.31-.14-14-.2-19.68-.23Zm-7.24,7.66c0,.35,0,.7,0,1.05,6.8,0,15.8.06,27.09.24,0-.35,0-.7,0-1.05-11.28-.18-20.25-.23-27.06-.24Zm-.13,7.65c0,.35,0,.7,0,1.06,6.73,0,14.15.09,27.36.26,0-.35,0-.7,0-1.05-13.18-.18-20.59-.23-27.32-.27ZM441.1,328c0,.36,0,.7,0,1.06l27.62.29c0-.36,0-.7,0-1.06L441.1,328ZM441,335.6c0,.35,0,.71,0,1.06,6.74.1,14.36.21,27.84.31,0-.35,0-.71,0-1.06-13.47-.1-21.09-.21-27.81-.31Zm-.11,7.66c0,.35,0,.7,0,1.05,6.9.13,16.26.28,28.06.33,0-.35,0-.71,0-1.06-11.79-.05-21.14-.19-28-.32Zm-.11,7.65c0,.36,0,.7,0,1.06,6.91.16,16.35.33,28.27.34,0-.35,0-.7,0-1.05-11.91,0-21.34-.18-28.24-.34Zm-.09,7.68c0,.35,0,.7,0,1.05,6.9.18,16.92.36,28.45.33,0-.35,0-.7,0-1.05-11.53,0-21.54-.15-28.43-.33Zm-.07,7.66c0,.35,0,.7,0,1.06,6.92.21,17,.4,28.6.33,0-.35,0-.7,0-1.05-11.62.07-21.68-.12-28.58-.34Zm-.08,7.66c0,.35,0,.7,0,1.05,6.93.24,17,.45,28.76.34,0-.35,0-.7,0-1.05-11.7.11-21.82-.09-28.74-.34Zm-.07,7.66v1.06c7,.27,17.07.51,28.89.36v-1.06c-11.82.16-21.94-.08-28.88-.35Zm0,7.65v1.06c7,.3,17.09.56,29,.36v-1.06c-11.88.2-22-.06-29-.36Zm0,7.67v1.06c7,.33,17.11.61,29,.36,0-.35,0-.7,0-1.05C457.47,397.5,447.32,397.22,440.38,396.89Zm0,7.66c0,.35,0,.71,0,1.06,7,.36,17.13.66,29.12.36,0-.35,0-.7,0-1.06-12,.3-22.16,0-29.11-.36Zm0,7.67c0,.36,0,.7,0,1.06,7,.39,17.1.7,29.1.35,0-.35,0-.7,0-1.06-12,.35-22.16,0-29.11-.36Zm0,7.67c0,.35,0,.7,0,1.06,7,.41,17.07.74,29.09.35,0-.35,0-.7,0-1.06-12,.4-22.15.06-29.09-.35Zm0,7.66v1.06c6.95.44,17,.79,29.07.35v-1.06C457.39,428.33,447.29,428,440.36,427.54Zm0,7.67c0,.36,0,.7,0,1.06a271.8,271.8,0,0,0,29,.33c0-.36,0-.7,0-1.06a270.58,270.58,0,0,1-29-.33Zm.07,7.67c0,.35,0,.71,0,1.06a252.58,252.58,0,0,0,28.82.32c0-.35,0-.7,0-1.05a250.9,250.9,0,0,1-28.84-.32Zm.07,7.67c0,.34,0,.71,0,1.06a235.74,235.74,0,0,0,28.69.31c0-.34,0-.71,0-1.06a234.2,234.2,0,0,1-28.71-.31Zm.1,7.68c0,.35,0,.7,0,1.05a220.84,220.84,0,0,0,28.47.29c0-.35,0-.7,0-1.06a219.44,219.44,0,0,1-28.5-.29Zm.13,7.68c0,.36,0,.7,0,1.06a207.85,207.85,0,0,0,28.19.27c0-.36,0-.7,0-1.06a206.2,206.2,0,0,1-28.24-.27Zm.17,7.69c0,.35,0,.71,0,1.06a196.22,196.22,0,0,0,27.85.25c0-.34,0-.71,0-1.05a194.44,194.44,0,0,1-27.9-.25Zm.21,7.69c0,.35,0,.71,0,1.05a185.79,185.79,0,0,0,27.41.22c0-.35,0-.7,0-1.05a184.18,184.18,0,0,1-27.47-.22Zm.25,7.7c0,.36,0,.71,0,1.06a176.72,176.72,0,0,0,26.89.19l0-1.05a174.93,174.93,0,0,1-27-.19Zm.31,7.7c0,.36,0,.7.05,1.06a168.28,168.28,0,0,0,26.25.16c0-.36,0-.7.05-1.07a166.67,166.67,0,0,1-26.35-.16Zm.38,7.72c0,.37,0,.7.07,1.06a161.12,161.12,0,0,0,25.47.12c0-.36,0-.69.07-1.06a159.4,159.4,0,0,1-25.6-.12Z"/><path d="M460.64,500.67c1.55.17,3.27.33,5.15.47m-5.13-8.1c1.57.16,3.32.32,5.24.45m-5.22-8.08c1.59.15,3.37.3,5.33.42m-5.31-8.06c1.61.15,3.42.28,5.41.4m-5.39-8c1.63.14,3.47.27,5.5.38m-5.48-8c1.66.13,3.53.25,5.59.36m-5.57-8c1.68.12,3.58.24,5.67.34m-5.65-8c1.7.11,3.63.22,5.76.32m-5.74-8c1.72.11,3.68.21,5.85.3M460.81,432c1.74.1,3.73.19,5.93.27m-5.92-7.91c1.77.09,3.79.18,6,.25m-6-7.89c1.79.08,3.84.16,6.11.23m-6.09-7.86c1.81.07,3.89.15,6.2.21m-6.18-7.84c1.83.07,3.94.13,6.28.19m-6.26-7.82c1.85.06,4,.11,6.37.17m-6.35-7.8,6.46.15m-6.44-7.78,6.54.12M461,370.9l6.63.1m-6.8-7.74,6.72.08m-6.89-7.71,6.8.06m-7-7.69,6.89,0m-7.07-7.67,7,0m-7.15-7.65h7.07m-7.24-7.63c2.05,0,4.46,0,7.15,0m-7.33-7.61c2.08,0,4.51,0,7.24,0m-7.41-7.59c2.1,0,4.56-.06,7.33-.07m-7.5-7.56c2.12,0,4.62-.07,7.41-.09m-7.59-7.54c2.14,0,4.67-.09,7.5-.11M459,286.94c2.16-.05,4.72-.1,7.59-.13m-7.76-7.5c2.19-.06,4.77-.12,7.67-.15m-7.85-7.48c2.21-.07,4.82-.13,7.76-.18M458.53,264c2.23-.08,4.88-.15,7.85-.2m-8-7.44c2.25-.08,4.93-.17,7.94-.22m-8.11-7.41c2.27-.09,5-.18,8-.24m-8.2-7.39c2.3-.1,5-.2,8.11-.26m-8.28-7.37c2.32-.11,5.08-.21,8.2-.28m-8.37-7.35c2.34-.12,5.13-.23,8.28-.3m-8.46-7.33c2.36-.12,5.19-.24,8.37-.32" style="fill:none;stroke:#000;stroke-width:2.5px"/><path d="M443.78,501.09c1.55.17,3.27.33,5.15.47m-5.31-8.12c1.57.16,3.32.32,5.24.45m-5.4-8.1c1.59.15,3.37.3,5.33.42m-5.49-8.08c1.61.15,3.42.28,5.41.4m-5.57-8.06c1.63.14,3.47.27,5.5.38m-5.66-8c1.66.13,3.53.25,5.59.36m-5.75-8c1.68.12,3.58.24,5.67.34m-5.83-8c1.7.11,3.63.22,5.76.32m-5.92-8c1.72.11,3.68.21,5.85.3m-6-8c1.74.1,3.73.19,5.93.27m-6.09-7.93c1.77.09,3.79.18,6,.25M442,416.87c1.79.08,3.84.16,6.11.23m-6.27-7.89c1.81.07,3.89.15,6.2.21m-6.36-7.87c1.83.07,3.94.13,6.28.19m-6.44-7.85c1.85.06,4,.11,6.37.17m-6.53-7.82,6.46.15m-6.48-7.8,6.54.12m-6.41-7.78,6.63.1m-6.5-7.76,6.72.08m-6.58-7.74,6.8.06M441.89,348l6.89,0M442,340.31l7,0m-6.84-7.67h7.07M442.29,325c2.05,0,4.46,0,7.15,0m-7-7.63c2.08,0,4.51,0,7.24,0m-7.11-7.61c2.1,0,4.56-.06,7.33-.07M442.69,302c2.12,0,4.62-.07,7.41-.09m-7.28-7.57c2.14,0,4.67-.09,7.5-.11M443,286.72c2.16-.05,4.72-.1,7.59-.13m-7.45-7.52c2.19-.06,4.77-.12,7.67-.15m-7.54-7.5c2.21-.07,4.82-.13,7.76-.18m-7.63-7.48c2.23-.08,4.88-.15,7.85-.2m-7.71-7.46c2.25-.08,4.93-.17,7.94-.22m-7.8-7.44c2.27-.09,5-.18,8-.24m-7.89-7.42c2.3-.1,5-.2,8.11-.26m-8-7.39c2.32-.11,5.08-.21,8.2-.28M444,225.48c2.34-.12,5.13-.23,8.28-.3m-8.15-7.35c2.36-.12,5.19-.24,8.37-.32" style="fill:none;stroke:#000;stroke-width:2.5px"/><path d="M271.67,641c-2.26,8.25-6.78,29.14-6.78,29.14,45.24,20.45,172.81,21.38,184.68,21.43h2.26c11.9,0,143.34-1,188.63-21.43,0,0-4.52-20.89-6.78-29.14,0,0-5.65,18.69-183,22-177.34-3.3-179-22-179-22Z" style="fill:#fff;stroke:#000"/><path d="M601.92,636.85c2.49-6.29,22.88-5.81,38.8-1s24.87,3.39,59.19,3.87,53.72,8.23,56.71,9.2,54.72,25.66,74.61,32,38.8,0,38.8,0-22.88,21.79-55.21,4.36c0,0,26.86,14.53,44.27,16.46,0,0-26,5.3-47.94-3.93a53.3,53.3,0,0,1-5.78-2.85,391.32,391.32,0,0,0-37.06-15.81c-62.94-22.79-87.42-8.28-130.57-19.05" style="fill:#fff;stroke:#000"/><path d="M770.71,678c20.21,6.65,30,12.77,41,16.78M773.2,674.29c17.54,6.07,27.61,11.89,38.38,15.92m-35.89-19.61c14.87,5.48,25.25,11,35.71,15.07m-33.23-18.75c12.2,4.9,22.89,10.11,33.05,14.21m-30.56-17.89c9.53,4.31,20.53,9.22,30.39,13.35" style="fill:none;stroke:#000"/><path d="M747,668.23s-28.31-8.32-50.21-5.72m47,.52s-26.58-7.28-49.95-5.33m46.74.13s-24.84-6.24-49.68-4.94m46.47-.26A227.17,227.17,0,0,0,688,648.08m46.21-.65A285.4,285.4,0,0,0,685,643.27" style="fill:none;stroke:#000"/><path d="M658.87,642.75s-12.77-3-25.62-4.84c-10.94-1.54-21.94-2.19-25.13.68" style="fill:none;stroke:#000"/><path d="M661.28,647.17a251.89,251.89,0,0,1-27-4.54" style="fill:none;stroke:#000"/><path d="M663.68,651.59s-17.07-.22-28.3-4.24" style="fill:none;stroke:#000"/><path d="M666.09,656s-19.22,1.19-29.64-3.94" style="fill:none;stroke:#000"/><path d="M668.51,660s-21.39,2.32-31-3.25" style="fill:none;stroke:#000"/><path d="M602,635.92c3,5.57,19.88,2.45,30.75,5.89-2.62,2.24-10.09,6.18-31.1,10.09-3.48-12.72.34-16,.34-16Z" style="fill:#fff;stroke:#000"/><path d="M418.63,527.95h72.51v65.91H418.63Z" style="fill:#f1b517;stroke:#000;stroke-linecap:round;stroke-width:0.5px"/><path d="M454.47,591.24c4.76,0,9.36-.23,13.61-.66m-13.61-2.87c4.76,0,9.36-.23,13.61-.66m-13.61-2.87c4.76,0,9.36-.23,13.61-.66m-13.61-2.87c4.76,0,9.36-.23,13.61-.66m-13.61-2.87c4.76,0,9.36-.23,13.61-.66m-13.61-2.87c4.76,0,9.36-.23,13.61-.66M454.47,570c4.76,0,9.36-.23,13.61-.66m-13.61-2.87c4.76,0,9.36-.23,13.61-.66M454.47,563c4.76,0,9.36-.23,13.61-.66m-13.61-2.87c4.76,0,9.36-.23,13.61-.66m-13.61-2.87c4.76,0,9.36-.23,13.61-.66m-13.61-2.87c4.76,0,9.36-.23,13.61-.66m-13.61-2.87c4.76,0,9.36-.23,13.61-.66m-13.61-2.87c4.76,0,9.36-.23,13.61-.66m-13.61-2.87c4.76,0,9.36-.23,13.61-.66" style="fill:#d20014;stroke:#000;stroke-linecap:round;stroke-width:0.5px"/><path d="M490.66,585.09A44.15,44.15,0,0,1,479.48,589m11.18-7.49a44.16,44.16,0,0,1-11.18,3.92M490.66,578a44.16,44.16,0,0,1-11.18,3.92m11.18-7.49a44.16,44.16,0,0,1-11.18,3.92m11.18-7.49a44.16,44.16,0,0,1-11.18,3.92m11.18-7.49a44.16,44.16,0,0,1-11.18,3.92m11.18-7.49a44.16,44.16,0,0,1-11.18,3.92m11.18-7.49A44.16,44.16,0,0,1,479.48,564m11.18-7.49a44.16,44.16,0,0,1-11.18,3.92M490.66,553a44.16,44.16,0,0,1-11.18,3.92m11.18-7.49a44.16,44.16,0,0,1-11.18,3.92m11.18-7.49a44.16,44.16,0,0,1-11.18,3.92m11.18-7.49a44.16,44.16,0,0,1-11.18,3.92m11.18-7.49a44.16,44.16,0,0,1-11.18,3.92m11.18-7.49A44.16,44.16,0,0,1,479.48,539" style="fill:#fff;stroke:#000;stroke-linecap:round;stroke-width:0.5px"/><path d="M437.8,540.78a67.78,67.78,0,0,1-16.91-4.14m16.91,7.7a67.77,67.77,0,0,1-16.91-4.14m16.91,7.7a67.77,67.77,0,0,1-16.91-4.14m16.91,7.7a67.77,67.77,0,0,1-16.91-4.14M437.8,555a67.77,67.77,0,0,1-16.91-4.14m16.91,7.7a67.77,67.77,0,0,1-16.91-4.14m16.91,7.7A67.77,67.77,0,0,1,420.89,558m16.91,7.7a67.77,67.77,0,0,1-16.91-4.14m16.91,7.7a67.77,67.77,0,0,1-16.91-4.14m16.91,7.7a67.77,67.77,0,0,1-16.91-4.14m16.91,7.7a67.77,67.77,0,0,1-16.91-4.14m16.91,7.7a67.77,67.77,0,0,1-16.91-4.14m16.91,7.7a67.77,67.77,0,0,1-16.91-4.14M437.8,587a67.77,67.77,0,0,1-16.91-4.14m16.91,7.7a67.77,67.77,0,0,1-16.91-4.14" style="fill:none;stroke:#000;stroke-linecap:round;stroke-width:0.5px;opacity:0.9800000190734863;isolation:isolate"/><path d="M454.47,508.34c-20.53,0-37.17,4.22-37.17,9.43h0a2.91,2.91,0,0,0,.59,1.59v9a2.91,2.91,0,0,0-.59,1.59,2.88,2.88,0,0,0,.59,1.66v1.73h1.9c5.52,3.64,19.31,6,34.69,6s29.13-2.41,34.65-6h2.3V531a2.59,2.59,0,0,0,.23-1,2.63,2.63,0,0,0-.23-.89V518.66a2.63,2.63,0,0,0,.23-.89c0-5.21-16.64-9.43-37.17-9.43h0Zm0,6.38,2.31,0,1.88,0,1.65.06,2,.09,1.7.11,1.83.13,1.85.17,1.58.16,1.88.23,1.44.19,1.86.29,1.27.21,1.57.3,1,.19h-.05c5.05,1.07,8.9,2.46,11.14,4-5.29,3.74-19.27,6.24-34.94,6.24s-29.63-2.5-34.94-6.23c4.41-3.11,14.93-5.42,27.73-6.06q1.82-.09,3.67-.14t3.54,0Z" style="fill:#d20014;stroke:#000;stroke-linecap:round;stroke-width:0.5px"/><path d="M454.47,514.72c-15.67,0-29.65,2.5-34.94,6.24,5.3,3.74,19.28,6.23,34.94,6.23s29.65-2.5,34.94-6.24c-5.31-3.74-19.28-6.23-34.94-6.23Z" style="fill:#fff;stroke:#000;stroke-linecap:round;stroke-width:0.15000000596046448px"/><path d="M453.66,508.35q-1.49,0-3,0v6.38q1.49,0,3-.05ZM474,509.76v6.39q1.54.24,3,.52v-6.39Q475.57,510,474,509.76Zm-41.24.36q-1.55.28-3,.61v6.37q1.43-.32,3-.6Z" style="fill:#fff;stroke:#000;stroke-linecap:round;stroke-width:0.6000000238418579px"/><path d="M478,525.05q-1.66.34-3.48.64V537.9q1.81-.29,3.48-.64Zm-34.28,1.73V539q1.72.13,3.48.22V527q-1.76-.09-3.48-.22Z" style="fill:#fff;stroke:#000;stroke-linecap:round;stroke-width:0.6000000238418579px"/><path d="M491.42,587.43a25.76,25.76,0,0,1-5.51,2.28c-6.78,2.75-18.65,4.42-31.44,4.43s-24.56-1.66-31.36-4.39a26.94,26.94,0,0,1-5.22-2.11v7.69a2.91,2.91,0,0,0-.59,1.59,2.88,2.88,0,0,0,.59,1.66v1.73h1.9c5.52,3.64,19.31,6,34.69,6s29.13-2.4,34.65-6h2.3v-2.38a2.58,2.58,0,0,0,.22-1,2.62,2.62,0,0,0-.22-.89Z" style="fill:#d20014;stroke:#000;stroke-linecap:round;stroke-width:0.5px"/><path d="M418.64,534.24v10.57l13.31,47.39q1.5.29,3.12.54Z" style="fill:#d20014;stroke:#000;stroke-width:0.5px"/><path d="M443.85,539l-11.75,53.21q1.37.26,2.82.49l11.82-53.51q-1.46-.08-2.9-.19Z" style="fill:#d20014;stroke:#000;stroke-width:0.5px"/><path d="M477,537.47q-1.49.29-3.1.54l-14.39,56q1.5,0,3-.13Z" style="fill:#d20014;stroke:#000;stroke-width:0.5px"/><path d="M443.82,539l14.69,55.07q1.48,0,2.94-.12l-14.6-54.75q-1.53-.08-3-.2Z" style="fill:#d20014;stroke:#000;stroke-width:0.5px"/><path d="M477.77,537.31q-1.36.28-2.83.53l14.39,49.56,1.81-.5v-3.52Z" style="fill:#d20014;stroke:#000;stroke-linecap:round;stroke-width:0.5px"/><path d="M491.38,587.46a21.34,21.34,0,0,1-3.25,1.49v11.93q.53-.28,1-.56h2.26Zm-59.8,4.67v12.22q1.56.31,3.25.58V592.7Q433.15,592.43,431.58,592.12Zm30.19,1.83q-1.61.09-3.25.13v12.21q1.63,0,3.25-.12Z" style="fill:#fff;stroke:#000;stroke-linecap:round;stroke-width:0.6000000238418579px"/><path d="M459,206.84h6.4m-6.56-3.56h6.4m-6.56-3.56h6.4m-6.56-3.56H465m-6.56-3.56h6.4M458.24,189h6.4m-6.56-3.56h6.4m-6.56-3.56h6.4m-6.56-3.56h6.4m-6.56-3.56H464m-6.56-3.56h6.4m-6.56-3.56h6.4m-6.56-3.56h6.4M457,160.54h6.4M456.81,157h6.4m-6.56-3.56h6.4m-6.56-3.56h6.4m-6.56-3.56h6.4m-6.56-3.56h6.4M456,139.16h6.4m-6.56-3.56h6.4M455.69,132h6.4m-6.56-3.56h6.4m-6.56-3.56h6.4" style="fill:none;stroke:#000;stroke-width:1.25px"/><path d="M443.43,95.35c-60.59-7.8-79.74-2-82.53-1s-41.79,11.53-57.11,36.61-3.48,34.58-3.48,34.58c-2.79-5.76,7.31-27.12,7.31-27.12-4.88,8.81,1.39,23.73,1.39,23.73-2.09-4.41,2.44-17.63,2.44-17.63L314.93,155c0-6.1,3.13-20.68,3.13-20.68.35,19,4.18,22.37,4.18,22.37-3.48-4.75,2.44-33.9,2.44-33.9-3.48,17.29,2.09,21,2.09,21,0-20.34,10.1-30.85,10.1-30.85-10.79,11.86-3.13,29.15-3.13,29.15,1-20,16.71-35.93,16.71-35.93-14.63,15.25-5.92,25.42-5.92,25.42.35-12.88,23-31.52,23-31.52a29,29,0,0,0-9.4,20.34c3.83-7.12,18.46-21,18.46-21-3.48,4.75-6.62,17.29-6.62,17.29l4.53-2.71L387,99.07l-7.66,11.53,7.66-3.39,8.71-7.8-3.83,5.08,6.27-1.69,6.27-7.12-3.83,5.08h9.05L413.48,97l-1.74,4.07,6.62.34,2.09-3.73-.35,3.73h3.13L426,96l-1,5.42s7.31,0,8.71,1.69S389.1,117,389.1,117s10.1,0,10.79,2.71-23,6.44-23,6.44l11.49,4.75-23,3.05,16.71,2-28.9,6.78H379.7l-27.86,5.42,17.76,2.37L346.27,154l22.29,2-24,9.83,12.88-2C332,187.55,341,204.5,341,204.5c1.74-7.46,13.23-24.75,13.23-24.75-2.79,22,3.48,29.83,3.48,29.83.7-6.1,8.71-37.29,8.71-37.29,1.39,7.12,2.09,27.46,2.09,27.46,5.92-4.75,3.48-28.47,3.48-28.47l9.4,8.81c-4.53-7.46-3.48-24.75-3.48-24.75,2.79,3.05,6.27,14.91,6.27,14.91.35-2.71,3.13-22.71,3.13-22.71,0,7.12,5.57,21,5.57,21L395,144.84c.35,5.76,7,17.29,7,17.29V136.36l4.53,11.53.7-18,2.09,21,3.83-4.41-3.13-.34,1.39-.68,3.83-20.68,5.92,9.49,2.09-6.1-1.39-9.83c2.09.68,5.22,6.78,5.22,6.78V112.63l5.57,2.37L441,103.14l-5.22,9.49,8-4.75-9.4,7.12,5.92,2.37-13.23,1.36v3.39l11.84,1c-16.71,2.71-17.06,7.46-17.06,7.46l16-.68c-12.54-.34-21.59,8.47-21.59,8.47l19.15-.68c-17.76,1.36-25.07,8.14-25.07,8.14l22.29,1.36c-11.14-1-23.33,10.85-23.33,10.85l14.63.34c-13.58,1.36-16.71,8.81-16.71,8.81l11.84.34c-12.19,6.78-12.88,18.3-12.88,18.3l13.58-10.51c-14.28,12.2-9.4,22.37-9.4,22.37l8.71-9.83c-12.19,11.53-9.4,19.66-9.4,19.66l9.05-9.49c-4.53,28.81,1.74,29.49,1.74,29.49l2.09-29.15c7.66,3.73,12.54,20.68,12.54,20.68l-6.62-26.78c7.31,5.08,9.4,15.59,9.4,15.59,2.79-12.2-8.71-28.13-8.71-28.13l14.28,17.63L432.63,170.6l12.54,18.3a42.66,42.66,0,0,0-9.75-28.13l15.32,12.88C450,168.23,442,154,442,154c3.13,2.37,9.05,9.49,9.05,9.49-2.09-8.47-10.79-18.3-10.79-18.3,4.18,1,11.14,9.49,11.14,9.49,0-4.75-4.88-22.37-4.88-22.37l5.22,10.85-2.09-17.63,4.53,6.78-1-12.2,3.13.68,2.09-14.58-1,14.91-3.48-1.36,1,11.86,10.79-11.53-6.27,20.68,10.79-9.83-8.71,18,12.54-14.24-9.4,23.39,10.1-8.47-9.4,16.95c5.22,0,15.67-11.19,15.67-11.19C475.81,158.4,468.15,177,468.15,177c6.62,0,11.14-11.53,11.14-11.53L468.5,184.84c6.62-2,13.93-14.24,13.93-14.24,1.39,6.78-11.49,28.81-11.49,28.81,4.18,0,10.79-5.42,10.79-5.42s1-4.41-3.48,3.73-15,18-15,18c9.05.34,17.76-11.53,17.76-11.53,1.39,5.42-10.79,26.78-10.79,26.78,8.71-.68,16-24.41,16-24.41,2.79,3.05,4.53,30.51,5.22,27.12s.35-37.29.35-37.29c1.74,2.37,8.86,17.89,8.86,17.89.52-7.58-7.79-36.88-7.79-36.88l9.86,17.68L490.83,161.2l14.53,17.18L487.19,144l9.34,13.64c-3.11-23.24-18.68-23.24-18.68-23.24,18.68-2.53,20.24,20.21,20.24,20.21,4.15-1,3.63-12.63,3.63-12.63l1,5.56,3.11,19.2L508,150.09V170.8c0,2,6.23-12.13,6.23-12.13,1.56,2.53,1.56,19.7,1.56,19.7l5.19-13.64c3.11,8.08,1,21.72,1,21.72,5.19,0,6.75-12.13,6.75-12.13L534.94,192l-.52-13.14c-.52-13.14-18.68-38.9-23.36-41.43s-22.84-8.08-22.84-8.08l-17.13-15.66,17.13,15.66c2.08-2.53-2.08-15.16-2.08-15.16l13.49,17.18c3.11-6.06-3.11-16.17-3.11-16.17,4.15,4.55,16.09,21.22,16.09,21.22,1.56-6.06-3.11-19.7-3.11-19.7,3.63,3.54,16.61,24.25,16.61,24.25-.52-2-7.79-22.74-7.79-22.74,8.82,7.58,17.65,31.83,17.65,31.83,2.6-8.08-3.63-29.3-3.63-29.3l15.05,34.86c1.56-7.07-1-21.22-1-21.22,4.67,4,12.46,22.23,12.46,22.23a214.54,214.54,0,0,0-4.15-23.75l13.49,24.25L565.56,141l8.3,17.68L569.72,143l11.42,15.66L571.79,142l13.49,13.14s-19.72-23.75-23.87-27.28-41-16.67-49.31-20.71-44.63-2-44.63-2l10.9-.51-2.08-4.55,2.08,4h7.27l-4.15-4,3.11,4.55h12.46l-8.3-7.07c4.15,2,8.3,6.57,8.3,6.57l6.23.51L499.13,96l6.23,9.6,10.38,2C514.18,103.1,508,96,508,96c4.15,4,9.34,12.13,9.34,12.13l8.82,3c0-4.55-7.27-14.65-7.27-14.65,6.23,5.05,11.42,15.66,11.42,15.66.52-4-3.11-16.17-3.11-16.17,4.15,2.53,10.9,18.19,10.9,18.19.52-4.55-.52-18.19-1.56-17.68,3.11,3.54,9.86,21.72,9.86,21.72V100.58c2.08,0,7.79,19.2,7.79,19.2,3.11-7.07-.52-21.72-.52-21.72,2.6,5.05,8.3,21.22,8.3,21.22l1-7.07,1.56,13.14,1.56-11.11,4.67,12.13c-.52-7.07-6.23-26.27-6.23-26.27,4.15,4,15.05,27.79,15.05,27.79v-8.59l3.11,13.64c4.67-13.64-5.19-28.8-5.19-28.8,7.27,10.1,9.86,23.24,9.86,23.24l3.11-7.07c3.11,5.05,3.11,18.19,3.11,18.19,4.15-14.15-4.15-26.78-4.15-26.78,8.82,6.57,14,33.34,14,33.34L605,124.32c2.6,5.05,7.52,20.79,7.52,20.79,1.18-8.77-2.61-23.53-7.58-30s-9-13.15-40.29-19.61-106.87-.92-106.87-.92l12.09-2.54c7.82-6,25.83-.92,25.83-.92l4.5.23s-.71-5.08-.95-6.92,8.53,6,8.53,6l3.08.23V81.91l12.8,9.46,4.74.69-8.29-10.84c4.74,4.38,19,9.92,19,9.92-.95-3.92-11.61-12.23-11.61-12.23,3.55,0,18.25,12.92,18.25,12.92l-8.77-9.92L558,91.6c-1.42-2.54-8.53-9.69-8.53-9.69,8.29,7.38,25.36,11.76,25.36,11.76L554.71,78l25.12,19.15c-4-12-16.35-22.61-16.35-22.61,6.16.92,29.62,23.53,29.62,23.53,0-9-8.77-19.61-8.77-19.61,6.16,2.08,21.8,22.84,21.8,22.84.71-5.54-8.29-20.07-8.29-20.07,4.74,2.31,17.54,20.3,17.54,20.3,2.84-10.38-9.24-19.61-9.24-19.61l24.26,13c-12.65-18.47-38.18-24.63-41.23-25.77s-25.53-1.14-45-.46-44.27,11.63-45.44,11.86-21.08,6.16-21.08,6.16l-5.39-2.05,6.79,1.6,9.37-2.51L479.06,78l12.18,4.56,6.32-2.28L488.43,75l9.84,4.33,14.52-5.24L496.17,68l26.24.23-19.91-6.84,32.33,5.24c-2.81-3.42-11.95-6.38-11.95-6.38,6.56,0,21.55,3.42,21.55,3.42-2.81-3.19-15.69-8.89-15.69-8.89,7,1.37,25.77,6.84,25.77,6.84l-13.82-9.35c1.87.68,13.35,5,13.35,5-2.34-4.1-9.84-7.53-9.84-7.53,3,0,25.53,10.72,25.53,10.72C564.8,52.69,554,41.75,554,41.75l13.82,8.44-8-8.89,20.61,9.35c-7-9.58-22.72-15.05-27.41-15.73s-37.71,3-63.72,21-29,34.66-29,34.66S433.68,34.33,387,30.94c0,0,7.31,6.78,21.59,9.83,0,0-15.67,3.39-19.5,8.81,0,0,17.41-1.36,28.55,1.69,0,0-18.46,3.73-21.24,8.47,0,0,19.85-2,30.3-.34,0,0-17.76,2.37-18.46,6.44,0,0,27.51,0,28.55,5.08,0,0-18.8-.68-23.68,2.37,0,0,24.72,3.39,29.6,6.78l-15.32,2.37s19.85,4.07,22.29,9.49c0,0-43.88-18.64-79.74-22.37S323.29,75,317,80.09s-20.55,18.3-18.11,29.15c0,0,7.66-14.58,26.12-26.1L308.32,102.8l18.8-14.91s-11.49,15.25-11.49,20.34c0,0,17.76-28.13,25.42-33.22,0,0-12.88,15.93-12.54,22,0,0,24.72-23.73,27.16-23.39,0,0-18.8,16.61-18.46,27.46,0,0,21.59-22.37,28.21-24.41,0,0-16.37,9.15-13.23,16.95L370,77.72,359.16,94.67,364.38,93s7.66-14.24,18.46-13.9L368.56,92.3l7.31-.68s8.36-10.17,18.46-13.56c0,0-14.63,11.53-15.32,13.56l4.53.34s8.71-8.81,15.32-10.51l-6.27,9.83h3.13l8.36-7.8-5.92,7.46,7.66.68,5.57-4.75-4.53,5.42h5.57l3.48-2.71L415.57,93l9.05.34,2.44-4.75-.35,4.07Z" style="fill:#016a16;stroke:#000"/><path d="M404.42,95.69l-6.27,7.12-.7.19v.83s-24.38,8.81-42.48,24.07-29.25,32.2-31.34,40.34-2.44,30.85-2.44,30.85,3.48-19,5.57-21.7c0,0,0,11.86,1.74,14.58,0,0,1.39-20.68,2.09-23.73s.7,16.95,4.53,18.64c0,0-1-21.36,1.74-28.14,0,0-1,11.53,1,14.58,0,0,3.13-26.78,10.45-33.9,0,0-8.71,13.9-3.13,33.56l1.68-7.49-2.37.38,2.52-1,2.35-10.49,3.49,8.1,1.41-.58.88-7.05-8.91-.81,10.67-1.55.12-3.52-5.22-.7,5.27-1,.14-4.4h-4l4.06-1,.12-3.8.45,3.66,5.72-1.34.79-3.67.78,3.3.46-.11,1-5.76-1.16-.14,1.21-.16.88-5.26.68,5.06,2.7-.36,1.49-7.41,1.74,6.78s4.53-14.58,8-16.27l.28,8.87,1.62-.3,7.5-12.64-.14,4.13,3-.8,3.11-7.06,2.09,5.42,3.48-4.07,1.65,2.86c13.2-3.7,29.84-8.6,29-9.63-1.39-1.69-8.7-1.69-8.7-1.69L426,96l-2.79,5.42H420.1l.35-3.73-2.09,3.73-6.62-.34L413.48,97l-3.83,3.73H400.6Zm-13,21.44-.19,5.68,2.42-5.49C392.8,117.23,392.06,117.16,391.38,117.12Zm-23.09,17.21.65,4.78.82-.19.87-4.3ZM358,142.8l.51,4.12,3.82-.74.73-3.38Zm.79,6.35.37,3,2-.28.49-2.3Zm-3.18,5.69,1.1,4.57.15-4.46Zm3.93.36.31,2.52.53-2.44ZM354,164.36l-.25,0,.19.44Z" style="fill:#016a16;stroke:#000"/><path d="M458.26,40.42l-3.05,40.93c3.36,5.51,5.12,9.2,5.12,9.2a30.36,30.36,0,0,1,3.31-8.08L462.3,42a34,34,0,0,0-4-1.61ZM464,93.29l-1.53.32L464,94Z" style="fill:#f1b517;stroke:#000"/><path d="M325.84,464.11s14.5-8.07,22.79-.34l-2.76,5.71-14.16,1Z" style="fill:#fff;stroke:#000;stroke-width:0.75px"/><path d="M336.22,446.56l-.29,21.89,2.87,0,.29-21.89Z" style="fill:green;stroke:#000;stroke-width:0.5px"/><path d="M326.27,471.29s2.92,1.18,2.34,5.41-1.75,19.54,9.34,19.54,9.64-14.83,9.64-17.18a49.33,49.33,0,0,1,.88-6.83v-8.47s-11.1,8-22.19-.24Z" style="fill:green;stroke:#000;stroke-width:0.75px"/><path d="M335.85,474.68a73.5,73.5,0,0,0-.88,10.58,24,24,0,0,0,.92,7.4,6.5,6.5,0,0,0,1.59,2.69,4,4,0,0,0,.57.44,9.49,9.49,0,0,0,2.53-.33l0-.92a1.38,1.38,0,0,1-1.17-.47,5,5,0,0,1-1.09-1.94,23,23,0,0,1-.84-6.87A71.77,71.77,0,0,1,338.3,475Z" style="fill:#fff"/><path d="M348.34,470.23c-10,3.19-17.33,2.15-22.07.37v.68a4.12,4.12,0,0,1,2.06,2.29,19.16,19.16,0,0,0,20.11-1.71Z" style="fill:#fff;stroke:#000;stroke-width:0.5669999718666077px"/><path d="M301.79,657.2l-2.62-.49-3.74,18.92L307.91,678l.45-2.27-9.86-1.85Z"/><path d="M312.12,666l2,.31,1.13-6.75-2-.31Z"/><path d="M331.27,661.8l-1.69,12.06a6.35,6.35,0,0,1-.8,2.47,4,4,0,0,1-1.46,1.46,5.77,5.77,0,0,1-3.65.63,5.91,5.91,0,0,1-1.71-.51,4.87,4.87,0,0,1-1.5-1.06,4.16,4.16,0,0,1-.92-1.78,6.16,6.16,0,0,1-.11-2.62l1.69-12-2.64-.35-1.79,12.74a6.7,6.7,0,0,0,1.13,5q1.54,2.29,5.44,2.87t6.28-1.36a7.24,7.24,0,0,0,2.63-4.8l1.74-12.39Z"/><path d="M348.93,679.35h-.05l-8.19-16.47-3.15-.32-2.05,19.16,2.57.26,1.66-15.49h.05l8.36,16.5,3,.3,2.05-19.16-2.58-.26Z"/><path d="M360.1,664.7l-2.67-.22-1.71,19.19,2.67.22Z"/><path d="M379.14,675.76a8.64,8.64,0,0,1-2.24,5.47,6.3,6.3,0,0,1-5.21,1.87,6.18,6.18,0,0,1-4.87-2.57,9.5,9.5,0,0,1,.82-11.22,6.9,6.9,0,0,1,10.09.7A8.56,8.56,0,0,1,379.14,675.76Zm2.74.19a14.29,14.29,0,0,0-.18-3.4,10.12,10.12,0,0,0-1.36-3.38,8.18,8.18,0,0,0-2.76-2.73,10.79,10.79,0,0,0-4.58-1.28,12.62,12.62,0,0,0-2.53.06,8.61,8.61,0,0,0-2.13.57,8.49,8.49,0,0,0-3.17,2.32,9.94,9.94,0,0,0-1.8,3.16,12.51,12.51,0,0,0-.74,3.34,12,12,0,0,0,.26,3.33,10.49,10.49,0,0,0,1.32,3.4,8.46,8.46,0,0,0,2.8,2.72,9.78,9.78,0,0,0,4.52,1.34,10.15,10.15,0,0,0,2.57-.12,8.13,8.13,0,0,0,2.15-.57,8.33,8.33,0,0,0,3.13-2.31,10.91,10.91,0,0,0,1.84-3.18,13.8,13.8,0,0,0,.67-3.26Z"/><path d="M397.64,682.69h-.05l-9-16-3.16-.16-1,19.24,2.58.13.84-15.55h.05L397,686.37l3,.15,1-19.24-2.6-.13Z"/><path d="M415.15,678.33l9.7.31.08-2.31-9.7-.31.2-5.89,11,.35.08-2.31-13.7-.43L412.18,687l2.68.08Z"/><path d="M437.92,682.05l1.84,5.65,2.92.06-6.78-19.4-3-.06-7.83,19.12,2.75.05L430,681.9Zm-7.08-2.44,3.35-8.42h.05l2.75,8.53Z"/><path d="M448.52,668.51l-2.68,0-.16,19.27,2.68,0Z"/><path d="M450.41,670.86l6.69-.08.23,17,2.68,0-.23-17,6.7-.08,0-2.31-16.07.2Z"/><path d="M479.1,668l-2.66.08.61,19.26,12.7-.38-.07-2.31-10,.3Z"/><path d="M503.2,680.81l2.2,5.52,2.92-.12-8-18.95-3,.13L490.7,687l2.74-.12,1.82-5.69Zm-7.22-2,2.8-8.61h.05l3.3,8.35Z"/><path d="M520.83,676.74l9.69-.61-.15-2.3-9.69.61-.39-5.89,11-.69-.15-2.3-13.68.85,1.27,19.23,2.67-.17Z"/><path d="M549.94,673.75a8.58,8.58,0,0,1-1.35,5.74,6.85,6.85,0,0,1-10.08.82,8.41,8.41,0,0,1-2.32-5.44,8.32,8.32,0,0,1,1.36-5.77,6.21,6.21,0,0,1,4.84-2.6,6.34,6.34,0,0,1,5.23,1.79,8.62,8.62,0,0,1,2.3,5.47Zm2.74-.22a14.34,14.34,0,0,0-.72-3.34,10.23,10.23,0,0,0-1.88-3.14,8.28,8.28,0,0,0-3.15-2.28,10.84,10.84,0,0,0-4.72-.58,12.6,12.6,0,0,0-2.49.44,8.54,8.54,0,0,0-2,.89,8.39,8.39,0,0,0-2.76,2.76,9.84,9.84,0,0,0-1.28,3.39,12.45,12.45,0,0,0-.21,3.41,12.07,12.07,0,0,0,.78,3.25,10.59,10.59,0,0,0,1.84,3.17,8.56,8.56,0,0,0,3.19,2.27,9.83,9.83,0,0,0,4.68.65,10.13,10.13,0,0,0,2.52-.51,8.06,8.06,0,0,0,2-.89,8.23,8.23,0,0,0,2.72-2.75,10.8,10.8,0,0,0,1.32-3.42,13.76,13.76,0,0,0,.15-3.33Z"/><path d="M558.72,674.29l6.44-.68a5.18,5.18,0,0,1,1.95.1,2.3,2.3,0,0,1,1.13.68,2.55,2.55,0,0,1,.59,1,9.44,9.44,0,0,1,.22,1.22q.07.65.35,2.2.15.72.31,1.4a7.87,7.87,0,0,0,.35,1.15l3.27-.35,0-.43a1.93,1.93,0,0,1-.86-.66,3.19,3.19,0,0,1-.35-1.15l-.55-3.45a8.55,8.55,0,0,0-.41-1.63,2.54,2.54,0,0,0-.66-.93,2.34,2.34,0,0,0-.78-.54,8.67,8.67,0,0,0-.91-.26,6.26,6.26,0,0,0,.9-.77,5.09,5.09,0,0,0,.79-1,4.14,4.14,0,0,0,.51-1.35,6.58,6.58,0,0,0,0-1.81q-.39-3-2.45-3.89a9,9,0,0,0-4.59-.57l-9.1,1L557,682.79l2.66-.28Zm-1-8.72,6.63-.7a5.56,5.56,0,0,1,2.33.23,2.38,2.38,0,0,1,1,.84,3.79,3.79,0,0,1,.56,1.75,3.64,3.64,0,0,1-.15,1.72,2.34,2.34,0,0,1-.8,1.11,3.37,3.37,0,0,1-1.23.59,6.86,6.86,0,0,1-1.45.31l-6.17.65Z"/><path d="M590.82,665.08a6.83,6.83,0,0,0-2.9-4,8.48,8.48,0,0,0-6.06-1.1,8.64,8.64,0,0,0-6.29,3.67,10.54,10.54,0,0,0-1.4,7.54q.85,5.43,3.9,7.43a8.74,8.74,0,0,0,6.41,1.49,13.86,13.86,0,0,0,1.8-.44,9.18,9.18,0,0,0,2.48-1.25,7.32,7.32,0,0,0,2.21-2.64,9.63,9.63,0,0,0,1-4.4l-2.57.36a8.06,8.06,0,0,1-.57,2.79,5.18,5.18,0,0,1-1.26,1.8,6.21,6.21,0,0,1-1.53,1,5.91,5.91,0,0,1-1.47.43q-3.58.47-5.39-1.61a10,10,0,0,1-2.27-5.44,7.93,7.93,0,0,1,1.07-5.95,5.93,5.93,0,0,1,4.23-2.51,12.81,12.81,0,0,1,1.6-.12,5.76,5.76,0,0,1,1.7.36,4.65,4.65,0,0,1,2.77,3Z"/><path d="M610.35,672.89l-11.72,2.18-1.24-6.33,10.65-2-.44-2.27-10.65,2-1.14-5.79,11.53-2.15-.44-2.27-14.16,2.63,3.72,18.92,14.35-2.67Z"/></svg>