<svg xmlns="http://www.w3.org/2000/svg" xmlns:xlink="http://www.w3.org/1999/xlink" viewBox="0 0 354 488"><defs><linearGradient id="a" x1="176.25" y1="-567.63" x2="176.25" y2="-736.69" gradientTransform="matrix(1, 0, 0, -1, 0, -425)" gradientUnits="userSpaceOnUse"><stop offset="0.3" stop-color="#ce2028"/><stop offset="0.3" stop-color="#fdf4f0"/><stop offset="0.34" stop-color="#fef9f6"/><stop offset="0.42" stop-color="#fffefd"/><stop offset="0.64" stop-color="#fff"/><stop offset="0.64" stop-color="#fdfdfd"/><stop offset="0.64" stop-color="#f6f6f6"/><stop offset="0.64" stop-color="#ebebeb"/><stop offset="0.64" stop-color="#dadada"/><stop offset="0.64" stop-color="#c4c4c4"/><stop offset="0.64" stop-color="#a8a8a8"/><stop offset="0.64" stop-color="#888"/><stop offset="0.64" stop-color="#626262"/><stop offset="0.64" stop-color="#373737"/><stop offset="0.64" stop-color="#090909"/><stop offset="0.64"/></linearGradient></defs><title>Iraq</title><polygon points="144.61 387.94 204.41 388.96 186.52 296.96 167.1 296.45 144.61 387.94" style="fill:#f6c314;stroke:#201b17;stroke-width:0.013000000268220901px"/><path d="M229.56,279.75c3.52,5.91,22.69,29,22.69,29,4.56,12.65,21.86,23.73,21.86,23.73,1.76,8.81,20.52,21.76,20.52,21.76,4.66,12.23,24.56,23.73,24.56,23.73a112.46,112.46,0,0,0,24.66,25.49L331,119.16s-1.24-16.37-17.61-23.42-26.94,0-36.37,3.52-22.48,14.09-34,16.37C231.32,118,223.13,118,176.2,103.93c-46.83,14.09-55,14.09-66.72,11.71C98,113.36,84.82,102.79,75.39,99.26S55.5,88.69,39.12,95.74a29.24,29.24,0,0,0-17.61,23.42L8.66,403.47A111,111,0,0,0,33.21,378s20-11.5,24.66-23.73c0,0,18.75-13,20.52-21.76,0,0,17.3-11.09,21.76-23.73,0,0,19.27-23.1,22.79-29Z" style="fill:#f6c314;stroke:#201b17"/><path d="M319.18,378c10.06,15.54,24.66,25.49,24.66,25.49L331,119.16s-10.26-8.6-20-9.12v.1L319.18,378Z" style="fill:#201b17;stroke:#201b17;stroke-width:0.013000000268220901px"/><path d="M286.75,124.75c6.73-7.87,13.16-13.26,20.2-14.92l7.56,264.31a46.56,46.56,0,0,1-19.89-19.89l-7.87-229.5Z" style="fill:#201b17;stroke:#201b17;stroke-width:0.013000000268220901px"/><path d="M274.11,332.49l-5.28-184,.93-1.45c5.08-4.25,9-8.5,13.16-17.51l.52-1.24c2.23,74.21,4.57,148.15,6.79,222.36-5.67-5.28-11-8.68-16.12-18.14Z" style="fill:#201b17;stroke:#201b17;stroke-width:0.013000000268220901px"/><path d="M252.25,308.76,247.69,159l.31-.62c6-1.24,10.67-1.66,15.85-5.39l.83-.41,5,175.52s-10.16-3.21-17.41-19.38Z" style="fill:#201b17;stroke:#201b17;stroke-width:0.013000000268220901px"/><path d="M247.48,302.34l-3.83-133.87-.31-.62c-9.32,4.77-24.86,1.76-24.86,1.76l11.09,110.14c3.52,7,17.92,22.59,17.92,22.59Z" style="fill:#201b17;stroke:#201b17;stroke-width:0.013000000268220901px"/><path d="M33.21,378c-9.95,15.54-24.56,25.49-24.56,25.49L21.51,119.16s10.26-8.6,19.89-9.12v.1L33.21,378Z" style="fill:#201b17;stroke:#201b17;stroke-width:0.013000000268220901px"/><path d="M65.75,124.75c-6.73-7.87-20-22.15-20.2-14.92q-3.87,132.62-7.75,265.06c7.94-5.77,16.69-13.65,20.08-20.65l7.87-229.5Z" style="fill:#201b17;stroke:#201b17;stroke-width:0.013000000268220901px"/><path d="M78.39,332.49l5.28-184-1-1.45c-5-4.25-9-8.5-13.06-17.51L69,128.27,61.85,351.1c6.07-5.09,10.67-8.17,16.54-18.61Z" style="fill:#201b17;stroke:#201b17;stroke-width:0.013000000268220901px"/><path d="M100.15,308.76,104.71,159l-.21-.62c-6-1.24-10.67-1.66-16-5.39l-.83-.41-5,175.52s10.26-3.21,17.41-19.37Z" style="fill:#201b17;stroke:#201b17;stroke-width:0.013000000268220901px"/><path d="M105,302.34l3.83-133.87.31-.62c9.32,4.77,24.87,1.76,24.87,1.76L122.94,279.75c-3.52,7-17.93,22.59-17.93,22.59Z" style="fill:#201b17;stroke:#201b17;stroke-width:0.013000000268220901px"/><path d="M176.2,477.86c88.48,0,131.27-19.9,131.27-19.9l-1.14-8.81s.73-.52,5.28-1.77c4.14-1.14,5.6-9.32,5.28-12.95-.31-3.22,2.9-11.4,4.66-12.85,0,0-7.35-2.59-9.94-5.6-4.25-4.66-8.5-9.33-15.23-5.8-2.59,1.35-1.14-10.88-1.14-10.88s-40.31,19.9-118.84,18.76S57.25,399.31,57.25,399.31s1.45,12.23-1.14,10.88c-6.74-3.52-11,1.14-15.23,5.8-2.69,3-9.95,5.6-9.95,5.6,1.76,1.45,5,9.64,4.66,12.85-.31,3.63,1.14,11.81,5.28,12.95,4.56,1.24,5.28,1.77,5.28,1.77L44.92,458s42.8,19.89,131.28,19.89Z" style="fill:#fff;stroke:#201b17"/><path d="M176.82,472.78c84.34,0,126.2-18,126.2-18l-1.14-8.19s1.35-1.45,5.7-2.39c3.83-.93,5.28-6.84,5-9.43-.31-2.38,2.59-10.77,5.08-11.71,0,0-6-.83-7.77-2.38-3.32-2.8-7-10.15-16.89-6-1.24.62-1.65-8.5-1.65-8.5s-39.58,19.27-114.39,18.34S62.33,407.4,62.33,407.4s1.45,7.56-1.14,6.73c-9.22-3.1-11.5,1.55-16.27,5.39-1.55,1.24-7.77,4-7.77,4,1.76,1.14,2.07,4.25,2.8,6.53.93,3.21-.73,10.15,2.59,12.33,2.38,1.45,8,3,8,3l-1.14,9.33s43.11,18,127.45,18Z" style="fill:#007a3d;stroke:#201b17"/><path d="M227.18,232.92l44.55,159.35s-35.12,12.95-62.06,10.56l-22.27-114.9,39.78-55Z" style="fill:#f6c314;stroke:#201b17"/><path d="M241.27,287.94s1.15,9.43-1.14,14.09c0,0-10.57-12.85-10.57-22.27" style="fill:none;stroke:#201b17;stroke-width:0.013000000268220901px"/><path d="M241.27,287.94s1.15,9.43-1.14,14.09c0,0-10.57-12.85-10.57-22.27" style="fill:none;stroke:#201b17"/><path d="M221.37,289.18s2.28,17.51-4.66,23.42c0,0-15.23-14.09-13-21.14" style="fill:none;stroke:#201b17;stroke-width:0.013000000268220901px"/><path d="M221.37,289.18s2.28,17.51-4.66,23.42c0,0-15.23-14.09-13-21.14" style="fill:none;stroke:#201b17"/><path d="M202.62,300.89s-1.14,23.42-5.91,24.56c0,0-2.28-5.8-2.28-9.32" style="fill:none;stroke:#201b17"/><path d="M253.6,329l-.62,4.77s-10.56-4.77-14-23.52" style="fill:none;stroke:#201b17;stroke-width:0.013000000268220901px"/><path d="M253.6,329l-.62,4.77s-10.56-4.77-14-23.52" style="fill:none;stroke:#201b17"/><path d="M220.75,318.5c2.9,12.85,11.71,19.27,13.47,18.75,5.28-1.76,4.15-30.56,4.15-30.56" style="fill:none;stroke:#201b17;stroke-width:0.013000000268220901px"/><path d="M220.75,318.5c2.9,12.85,11.71,19.27,13.47,18.75,5.28-1.76,4.15-30.56,4.15-30.56" style="fill:none;stroke:#201b17"/><path d="M216.71,320.78s-2.38,25.8-7,28.18-13-23.52-13-23.52" style="fill:none;stroke:#201b17;stroke-width:0.013000000268220901px"/><path d="M216.71,320.78s-2.38,25.8-7,28.18-13-23.52-13-23.52" style="fill:none;stroke:#201b17"/><path d="M234.22,343.06s-1.14,29.32-4.66,30.46S219,363,217.85,359.43" style="fill:none;stroke:#201b17;stroke-width:0.013000000268220901px"/><path d="M234.22,343.06s-1.14,29.32-4.66,30.46S219,363,217.85,359.43" style="fill:none;stroke:#201b17"/><path d="M213.19,356s0,22.17-4.77,24.56l-4.66-9.32" style="fill:none;stroke:#201b17;stroke-width:0.013000000268220901px"/><path d="M213.19,356s0,22.17-4.77,24.56l-4.66-9.32" style="fill:none;stroke:#201b17"/><path d="M264.68,377s0,14.09-3.52,15.23-9.32-19.9-9.32-19.9" style="fill:none;stroke:#201b17;stroke-width:0.013000000268220901px"/><path d="M264.68,377s0,14.09-3.52,15.23-9.32-19.9-9.32-19.9" style="fill:none;stroke:#201b17"/><path d="M248.31,374.77s-2.38,22.17-7,23.42S227.18,380.57,228.42,377" style="fill:none;stroke:#201b17;stroke-width:0.013000000268220901px"/><path d="M248.31,374.77s-2.38,22.17-7,23.42S227.18,380.57,228.42,377" style="fill:none;stroke:#201b17"/><path d="M227.18,387.61s-1,12-4.66,12.85c-4.66,1.24-11.71-5.8-12.85-12.85" style="fill:none;stroke:#201b17;stroke-width:0.013000000268220901px"/><path d="M227.18,387.61s-1,12-4.66,12.85c-4.66,1.24-11.71-5.8-12.85-12.85" style="fill:none;stroke:#201b17"/><path d="M256.5,341.92s1.24,24.56-3.52,25.8-14-8.29-16.37-16.48" style="fill:none;stroke:#201b17;stroke-width:0.013000000268220901px"/><path d="M256.5,341.92s1.24,24.56-3.52,25.8-14-8.29-16.37-16.48" style="fill:none;stroke:#201b17"/><path d="M298.15,388.75c2.38,3.42-1.15,8.19-2.9,10.57s-32.33,9.94-49.84,12.95c-21.24,3.52-49.32,5.39-57.51,6.43-4.66.52-7.56-3.52-7.56-8.19,0-6.52,5.28-7.67,8.19-7.67,0,0,3.52-.62,3.52,1.76,0,0,2.9-2.9,5.91-2.9s5.28,1.14,5.28,3.52c0,0,2.28-4.14,5.18-4.77s7,0,7.67,2.38a21.28,21.28,0,0,0,6.43-2.38c2.9-1.76,7-1.76,9.43.62a82.4,82.4,0,0,1,9.32-2.9c2.9-.62,8.81-1.76,9.43.52,0,0,1.76-4.66,4.66-5.18s9.95-3.52,12.85-.62c0,0,2.38-3.52,4.15-3.52s5.9-1.14,6.42.62a10.68,10.68,0,0,1,7.67-4.77c5.28-.52,8.8-.52,11.7,3.52Z" style="fill:#f6c314;stroke:#201b17"/><path d="M295.25,392.9c-1.14,1.76-3,5.8-.62,9.32s2.9,5.9,0,8.29c0,0,8.81-1.76,8.19-11.81s-5.8-8.7-7.56-5.79Z" style="fill:#ee9b21;stroke:#201b17"/><path d="M241.89,400.46c-3.52.62-3.52,3.52-1.76,8.29s4.66,8.7,2.9,12.23c0,0,9.95-5.28,7-14s-4.66-7.05-8.18-6.53Z" style="fill:#ee9b21;stroke:#201b17"/><path d="M188.53,408.13c-2.69-1.14-8.19,4.46-8.19,7.56,0,5.28,2.9,10.56,8.19,12.33,0,0-2.38-10.57,0-11.09S194.44,410.51,188.53,408.13Z" style="fill:#ee9b21;stroke:#201b17"/><path d="M286.44,385.23s-5.28,4.77-.62,6.52a12.75,12.75,0,0,1,5.29-1.24" style="fill:none;stroke:#201b17"/><path d="M274.11,396.94s-4.66-1.14-5.9,1.24c0,0,2.38-4.66,0-5.28" style="fill:none;stroke:#201b17"/><path d="M257.12,393.52s-3.52,3.42-.62,5.19c0,0,3.52-2.28,5.28-.52" style="fill:none;stroke:#201b17"/><path d="M230.18,405.74s-9.95,0-9.95,2.38c0,0,4.66-8.19,2.28-7.67" style="fill:none;stroke:#201b17"/><path d="M210.18,401.08s-3.52,2.9-1.76,5.9" style="fill:none;stroke:#201b17"/><path d="M125.22,232.92,80.67,392.27s35.23,12.95,62.17,10.56l22.28-114.9-39.89-55Z" style="fill:#f6c314;stroke:#201b17"/><path d="M118.18,271.57s7-7,9.43-11.71c0,0-2.38,19.89,2.28,21.14s5.91-4.77,5.91-4.77" style="fill:none;stroke:#201b17"/><path d="M111.13,287.94S110,297.37,112.37,302c0,0,10.57-12.85,10.57-22.27" style="fill:none;stroke:#201b17"/><path d="M131.13,289.18s-2.38,17.51,4.66,23.42c0,0,15.23-14.09,12.85-21.14" style="fill:none;stroke:#201b17"/><path d="M149.88,300.89s1.14,23.42,5.8,24.56c0,0,2.38-5.8,2.38-9.32" style="fill:none;stroke:#201b17"/><path d="M98.9,329l.52,4.77S110,329,113.51,310.21" style="fill:none;stroke:#201b17"/><path d="M131.65,318.5c-2.9,12.85-11.71,19.27-13.47,18.75-5.28-1.76-4-30.56-4-30.56" style="fill:none;stroke:#201b17"/><path d="M135.79,320.78s2.38,25.8,7,28.18,12.85-23.52,12.85-23.52" style="fill:none;stroke:#201b17"/><path d="M118.18,343.06s1.24,29.32,4.77,30.46,10.46-10.56,11.71-14.09" style="fill:none;stroke:#201b17"/><path d="M139.31,356s0,22.17,4.66,24.56l4.66-9.32" style="fill:none;stroke:#201b17"/><path d="M87.71,377s0,14.09,3.52,15.23,9.43-19.9,9.43-19.9" style="fill:none;stroke:#201b17"/><path d="M104.19,374.77s2.28,22.17,6.94,23.42,14.09-17.61,13-21.14" style="fill:none;stroke:#201b17"/><path d="M125.22,387.61s1.14,12,4.66,12.85c4.77,1.24,11.81-5.8,13-12.85" style="fill:none;stroke:#201b17"/><path d="M95.9,341.92s-1.14,24.56,3.52,25.8,14.09-8.29,16.47-16.48" style="fill:none;stroke:#201b17"/><path d="M54.35,388.75c-2.38,3.42,1.14,8.19,2.9,10.57s32.22,9.94,49.84,12.95c21.24,3.52,49.32,5.39,57.4,6.43,4.66.52,7.67-3.52,7.67-8.19,0-6.52-5.29-7.67-8.19-7.67,0,0-3.52-.62-3.52,1.76,0,0-3-2.9-5.91-2.9s-5.28,1.14-5.28,3.52c0,0-2.28-4.14-5.29-4.77s-7,0-7.56,2.38a22.4,22.4,0,0,1-6.53-2.38c-2.9-1.76-6.94-1.76-9.32.62a79,79,0,0,0-9.43-2.9c-2.9-.62-8.7-1.76-9.33.52,0,0-1.76-4.66-4.66-5.18s-9.95-3.52-13-.62c0,0-2.28-3.52-4-3.52s-5.91-1.14-6.53.62a10.33,10.33,0,0,0-7.56-4.77c-5.28-.52-8.81-.52-11.71,3.52Z" style="fill:#f6c314;stroke:#201b17"/><path d="M57.25,392.9c1.14,1.76,2.9,5.8.62,9.32s-3,5.9,0,8.29c0,0-8.81-1.76-8.19-11.81s5.8-8.7,7.56-5.79Z" style="fill:#ee9b21;stroke:#201b17"/><path d="M110.61,400.46c3.52.62,3.52,3.52,1.76,8.29s-4.66,8.7-2.9,12.23c0,0-10.05-5.28-7-14s4.66-7.05,8.18-6.53Z" style="fill:#ee9b21;stroke:#201b17"/><path d="M164,408.13c2.69-1.14,8.19,4.46,8.19,7.56,0,5.28-3,10.56-8.19,12.33,0,0,2.28-10.57,0-11.09S158.07,410.51,164,408.13Z" style="fill:#ee9b21;stroke:#201b17"/><path d="M66.06,385.23s5.28,4.77.62,6.52a12.75,12.75,0,0,0-5.28-1.24" style="fill:none;stroke:#201b17"/><path d="M78.39,396.94s4.66-1.14,5.8,1.24c0,0-2.28-4.66,0-5.28" style="fill:none;stroke:#201b17"/><path d="M95.38,393.52s3.52,3.42.52,5.19c0,0-3.52-2.28-5.18-.52" style="fill:none;stroke:#201b17"/><path d="M122.32,405.74s9.95,0,9.95,2.38c0,0-4.66-8.19-2.38-7.67" style="fill:none;stroke:#201b17"/><path d="M142.21,401.08s3.52,2.9,1.76,5.9" style="fill:none;stroke:#201b17"/><polygon points="162.73 297.99 145.74 388.75 152.78 399.94 162.21 389.37 171.53 305.55 168.01 299.13 162.73 297.99" style="fill:#201b17;stroke:#201b17;stroke-width:0.013000000268220901px"/><polygon points="189.67 297.99 206.66 388.75 201.48 399.94 190.29 389.37 180.97 305.55 184.49 299.13 189.67 297.99" style="fill:#201b17;stroke:#201b17;stroke-width:0.013000000268220901px"/><polygon points="166.25 389.37 176.2 403.47 186.15 390 176.82 293.43 166.25 389.37" style="fill:#201b17;stroke:#201b17;stroke-width:0.013000000268220901px"/><path d="M207.9,135.63c1.76.1-2.38-9.43-2.38-9.43,4.66,4.77,22.27,5.91,22.27,5.91-10.56-4.66-21.14-39.89-19.9-68s-4-39.27-8.19-43.41c-5.28-5.28-22.28-9.95-33.47-10.57-6.32-.31-5.29,4.77-5.29,4.77-11.71-3-23.42-4.14-28.7-.62-5,3.31-6,19.89-2.38,17,8.81-7,16.48-.62,21.76,7,4.66,6.73,4.35,25.8-2.38,48.08-7,23.42-26.32,46.83-26.32,46.83,10.47,0,25.18-9.32,25.18-9.32l-3.52,14.61a90,90,0,0,0,19.89-13.47L175,136.15c3.52-4.66,10.57-11.09,10.57-11.09s8.82,9.33,22.29,10.57Z" style="fill:#f6c314;stroke:#201b17"/><path d="M165.11,68.18s-5.91,43.41-17,55.74" style="fill:none;stroke:#201b17"/><path d="M174.44,67s-2.28,43.93-9.95,58" style="fill:none;stroke:#201b17"/><path d="M182.73,68.8s0,48.08,2.9,56.26" style="fill:none;stroke:#201b17"/><path d="M193.19,71.18s2.38,40.41,12.33,55" style="fill:none;stroke:#201b17"/><path d="M154.44,47.15c-.52-3.83-1.45-6.84-2.8-8.81-5.28-7.67-13-14.09-21.76-7,0,0,3-9.32,9.43-9.64,5-.31,16.27,3.73,26.21,20.72,0,0-7.36-1.66-9.12-.1-3.32,2.9-2,4.87-2,4.87Z" style="fill:#201b17;stroke:#201b17;stroke-width:0.013000000268220901px"/><path d="M129,19.79c.73-2.38,1.87-4.56,3.32-5.49,5.28-3.52,17-2.38,28.7.62,0,0-1-5.08,5.28-4.77,11.19.62,28.18,5.28,33.47,10.57A20.85,20.85,0,0,1,203.65,27h-.2c-2.6-3.63-9.95-3.42-11.71-3.21A47.26,47.26,0,0,0,183.46,25c-1.77.42-4.46.93-5.91,2.07-1.14.93-2.07,4.35-3.83,4.35-2.8,0-2.59-.73-3.32-1.55C169.47,28.7,169,27,168,27.15c-2.9.52-7.56-1.76-13.47-6.42s-8.19-5.8-15.85-5.28-9.95,4.87-9.95,4.87l.2-.52Z" style="fill:#201b17;stroke:#201b17;stroke-width:0.013000000268220901px"/><path d="M172.26,26.63a3.11,3.11,0,0,0,0-6.22,3.11,3.11,0,1,0,0,6.22Z" style="fill:#f6c314;stroke:#201b17;stroke-width:0.013000000268220901px"/><path d="M233.51,273.94s-7-7-9.43-11.71c0,0,2.38,19.89-2.28,21.14s-5.91-4.77-5.91-4.77" style="fill:none;stroke:#201b17"/><path d="M176.2,311.69c81-62.31,74.07-153.58,74.07-153.58a31.52,31.52,0,0,1-6.31.64c-17,0-57.52-9.72-67-22.07-10.13,11.18-51.55,22.07-68.43,22.07a30.77,30.77,0,0,1-6.31-.64s-7.05,91.27,74,153.58Z" style="fill:#fff;stroke:#201b17"/><path d="M246.13,163q-1.08.07-2.18.07c-15.93,0-52.93-8.17-67.19-20.43-14.94,11.32-52.55,20.43-68.22,20.43a12.11,12.11,0,0,1-2.18-.22c0,3.57.15,7.27.37,10.64a187.65,187.65,0,0,0,6.39,37.35,182.41,182.41,0,0,0,63.08,95.38,182.69,182.69,0,0,0,63.15-95.46,187.9,187.9,0,0,0,6.4-37.35c.22-3.3.4-6.91.38-10.41Z" style="fill:url(#a)"/><path d="M246.13,163q-1.08.07-2.18.07c-15.93,0-52.93-8.17-67.19-20.43-14.94,11.32-52.55,20.43-68.22,20.43a12.11,12.11,0,0,1-2.18-.22c0,3.57.15,7.27.37,10.64a187.65,187.65,0,0,0,6.39,37.35,182.41,182.41,0,0,0,63.08,95.38,182.69,182.69,0,0,0,63.15-95.46,187.9,187.9,0,0,0,6.4-37.35c.22-3.3.4-6.91.38-10.41Z" style="fill:none"/><path d="M246.13,163q-1.08.07-2.18.07c-15.93,0-52.93-8.17-67.19-20.43-14.94,11.32-52.55,20.43-68.22,20.43a12.11,12.11,0,0,1-2.18-.22c0,3.57.15,7.27.37,10.64a187.65,187.65,0,0,0,6.39,37.35,182.41,182.41,0,0,0,63.08,95.38,182.69,182.69,0,0,0,63.15-95.46,187.9,187.9,0,0,0,6.4-37.35c.22-3.3.4-6.91.38-10.41Z" style="fill:none"/><path d="M246.13,163q-1.08.07-2.18.07c-15.93,0-52.93-8.17-67.19-20.43-14.94,11.32-52.55,20.43-68.22,20.43a12.11,12.11,0,0,1-2.18-.22c0,3.57.15,7.27.37,10.64a187.65,187.65,0,0,0,6.39,37.35,182.41,182.41,0,0,0,63.08,95.38,182.69,182.69,0,0,0,63.15-95.46,187.9,187.9,0,0,0,6.4-37.35c.22-3.3.4-6.91.38-10.41Z" style="fill:none;stroke:#201b17"/><path d="M199.33,212.76a2.81,2.81,0,0,1-.79-.6c-.18-.25-.07-.26.66-.06a3,3,0,0,0,3-.5L203,211l.88.45a2.78,2.78,0,0,0,1.14.37,2.52,2.52,0,0,0,1.15-1.46c0-.43.34-.32.51.15a1.69,1.69,0,0,1-1.06,2.23,2.44,2.44,0,0,1-1.52-.16c-.82-.29-1-.28-1.37,0A3.11,3.11,0,0,1,199.33,212.76Z" style="fill:#007a3d"/><path d="M202.59,209.77a4.59,4.59,0,0,1-.58-2.33c.11-.33.22-.39.52-.3.52.16.65.52.56,1.75C203,209.89,202.89,210.15,202.59,209.77Z" style="fill:#007a3d"/><path d="M164.13,208.67c-.1.75,1.32,2.6,2,2.94-.44.2-1,.11-1.39.33-2.25,2.25-10.46,10.26-12,12.17,4.44.09,9.37-.06,13.54-.25,0-3,2.86-3.18,4.77-4.27,1,1.55,3.46,1.43,3.77,3.77,0,2.8,0,7,0,10.05h-38a5.53,5.53,0,0,1-7,4.27c1.15-1.2,3.08-1.61,3.77-3.27.58-3.63-1.16-5.87-2.3-7.92a13.67,13.67,0,0,0,4.06-2.13c-1.33,4.06,3.47,3.61,7,3.52.12-1.38.05-3-1-3.2,1.37-.5,1.59-.67,3.77-2.51v5.65l26.29.07c0-1.71.45-4.77-.9-4.77s-.06,3.52-1.07,3.52h-20.3c0-.76,0-2.34,0-3.48.86-.86.76-.79,6.64-6.66C156.39,215.89,160.52,212.17,164.13,208.67Z" style="fill:#007a3d"/><path d="M214.87,208.52c1.42.76,2.54,1.82,4.27,2.26-.2.72-.84,1-1,1.76v15.33c1.94.43,2.35-.67,3.27-1.26.25,2.45,1.81,4.86,1.76,6.79h-8.29Q214.87,221,214.87,208.52Z" style="fill:#007a3d"/><path d="M203.81,216.73s3-2.55,3-2.65v13.38H209c0-5.1-.07-10.27-.07-15,.88-.88,2.61-2.16,3-3.05v24H192.92c-.28-5-.33-10.12,5.47-9v-2c-.18-.35-.49.08-.57-.37.92-.92,1.23-1.16,3.73-3.33,0,2.63,0,8.83,0,8.83h2.2S203.81,217.08,203.81,216.73Zm-7.37,10.66c.51.77,2.25.75,2.16-.54C198.31,225.8,196,226.2,196.44,227.4Z" style="fill:#007a3d"/><circle cx="141.5" cy="236.23" r="1.16" style="fill:#007a3d"/><path d="M177.4,208.55c1.42.76,2.54,1.82,4.27,2.26-.2.72-.84,1-1,1.76V227.9c1.94.43,2.35-.67,3.27-1.26.25,2.45,1.81,4.86,1.76,6.79h-8.29Q177.4,221,177.4,208.55Z" style="fill:#007a3d"/><path d="M291.6,438.39l-1.7.51a7.13,7.13,0,0,0,.51,1l.27.43.46.51a5.66,5.66,0,0,0,1.91,1.51,2.91,2.91,0,0,1-1.39.07l-.75-.19-.83-.36a4.4,4.4,0,0,1-2.17-2.37l-15,4.49-1-3.41,14.46-4.32-.64-1.22a4.26,4.26,0,0,0-1.67-1.54,3.93,3.93,0,0,0-1.93-.49,8.62,8.62,0,0,0-1.45.13l-1,.17-2.21.59a6.36,6.36,0,0,1-3.24.48,1.89,1.89,0,0,1-1.15-1.37l-1-3.19,1,.45a9.82,9.82,0,0,0,2.09.49h.6l.67-.08.9-.18.55-.17a8.52,8.52,0,0,1,2.53-.53,6,6,0,0,1,1.81,0,4.48,4.48,0,0,1,1.83.61,12,12,0,0,1,1.92,1.37l1.2,1.52q.28.38,1.38,2.3l2-.61,1,3.34m-5.64,8-1.72,3.18-3.06-1.64,1.62-3.2,3.16,1.65"/><path d="M272.87,444l-4.65,1.2a5.51,5.51,0,0,1-1,3.11,4.49,4.49,0,0,1-2.69,1.86,6,6,0,0,1-3.67-.16,4.83,4.83,0,0,1-2.66-2.23l-3.36.86-.88-3.4,3.31-.85a4.75,4.75,0,0,1,1.19-3.22,5.16,5.16,0,0,1,1.45-1.15,6.63,6.63,0,0,1,1.59-.68,4.81,4.81,0,0,1,3.07.17,6.55,6.55,0,0,1,2.73,2.3L272,440.6l.88,3.4m-7.89.27a2.74,2.74,0,0,0-1.05-1.5,2.07,2.07,0,0,0-1.86-.37,2.37,2.37,0,0,0-1.45,1.13,3.69,3.69,0,0,0-.23.82,2.61,2.61,0,0,0,.07,1,2.74,2.74,0,0,0,1,1.51,2.18,2.18,0,0,0,1.88.27,2.11,2.11,0,0,0,1.49-1.09,2.51,2.51,0,0,0,.14-1.76"/><path d="M254.84,448.84l-13.43,2.65,1.48,7.5-.63.15a1.62,1.62,0,0,0-.49.14,6.63,6.63,0,0,1-1.68.2l-.43,0a.7.7,0,0,1-.39,0h-.39l-.42-.08a4.54,4.54,0,0,1-1.58-.32l-.8-.25-1-.39a8,8,0,0,1-2.76-1.81,11.43,11.43,0,0,1-2-2.92l-4.25.84-.68-3.44,4.36-.86a8,8,0,0,1,.15-3.59l.47-1.38a6.26,6.26,0,0,1,.71-1.34,13.51,13.51,0,0,1,2.15-2.3q.87-.51,2.87-1.43l-.29-1.46-1.36-1.25,3.62-3.36,1.06,5.36a3.62,3.62,0,0,1,.84-.12,1.64,1.64,0,0,1,.61,0l.71,0,1,.15a8.8,8.8,0,0,1,4.66,2.25l.84.94.28.38.46.7a8.46,8.46,0,0,1,.9,2.52l4.71-.93.68,3.44M246.27,447a5.18,5.18,0,0,0-4.15-4.28q-1.53,0-1.9,0a1.18,1.18,0,0,0-.43.13l1,5.23,5.45-1.08m-8.63,1.71-1.05-5.32a4.18,4.18,0,0,0-2.18,1.13,5,5,0,0,0-1.72,5.16l4.95-1m1.5,7.61-.82-4.16-4.58.9a4.71,4.71,0,0,0,1.06,1.67,9.17,9.17,0,0,0,2,1.2l1.16.38a5.52,5.52,0,0,0,1.22,0"/><path d="M226,454.36l-4,.52.08.64a6.45,6.45,0,0,1-.39,3.37,6.35,6.35,0,0,1-2.33,2.77,7.26,7.26,0,0,1-3.28,1.46,7.37,7.37,0,0,1-4.49-.92l-.63-.34,1,.23.8.1.87,0a6.42,6.42,0,0,0,3-1.25,5.28,5.28,0,0,0,1.91-2.35,5.34,5.34,0,0,0,.35-2.64l-.08-.6-7.76,1-.4-3.06-.09-1,0-.37a3.62,3.62,0,0,1,0-.4,3.61,3.61,0,0,0,0-.43q0-.23.1-.8a2.58,2.58,0,0,1,.56-1.22,3.29,3.29,0,0,1,1.34-.93l.35-.07.31,0,.24,0h.11a7.09,7.09,0,0,1-.26-1.18,7.94,7.94,0,0,1-.09-.86l0-.3a3.16,3.16,0,0,1,.72-1.19,1.83,1.83,0,0,1,.61-.46l.85-.18.26,0,.78-.17,1.76-.45a8.58,8.58,0,0,0,1.3-.84l.65-.55,1.26,9.72,4.17-.54.45,3.48m-7.7-2.54-.65-5a.69.69,0,0,0-.28.08l-.49.18a1.54,1.54,0,0,0-.46.22l-.49.2a.55.55,0,0,0-.33.24,1.46,1.46,0,0,0-.27.48v.65a1.44,1.44,0,0,0,.65,1.06,1.72,1.72,0,0,0-.63,0,1.82,1.82,0,0,0-1.56,1.26,2.48,2.48,0,0,0-.07.64l0,.24v.42l4.56-.59"/><path d="M206.21,459.62a6.34,6.34,0,0,1-.7,2.06,7.7,7.7,0,0,1-6.53,4.2,12.55,12.55,0,0,1-2.12,0l-1.15-.14-.66-.15a1.71,1.71,0,0,1-.61-.16l-1.09-.28,1.16.07a2.52,2.52,0,0,1,.71,0q.44,0,.47,0a8.25,8.25,0,0,0,5.08-2.09,6.65,6.65,0,0,0,2.29-4.87l0-.64a6.85,6.85,0,0,0-1.06-3.22,4.06,4.06,0,0,0-2.05-1.86l-1.16-.29a5.29,5.29,0,0,0,1.28-2.23l.16-.92,0-.89a3.54,3.54,0,0,0-.2-.85l-.15-.5-.24-.56.59.4a13.6,13.6,0,0,1,1.27.93q.59.49,1.17,1.07a13.26,13.26,0,0,1,2,2.77,22.46,22.46,0,0,1,1.09,2.17,8.77,8.77,0,0,1,.51,2.37l0,.29,0,.27v.2q0,.27,0,.56a3.26,3.26,0,0,1,0,.65,4.45,4.45,0,0,1,0,.94l-.12.74"/><path d="M188.94,457.92l-10.26.25-.08-3.51,6.86-.17-.12-4.8-1.33-.92,4.6-4.8.34,14m.1,5.91-2.3-2.19-4.4,4.73L180,464.1l2.21-2.3,4.62,4.42,2.19-2.39"/><path d="M172.75,438.66l-2.34-2.53-5.13,4.94-2.38-2.62,2.51-2.4,4.87,5.12,2.46-2.52m6,19.58-16.24-.41.11-4.27,0-.67.09-.91.08-.62.22-.62.17-.44.3-.55a5.13,5.13,0,0,1,.92-1.24,5.76,5.76,0,0,1,4.38-1.82l.62,0a1.67,1.67,0,0,1,.69.11c.25,0,.41,0,.46.12l.62.24.07-2.6L170,443.37l4.86-3.32-.37,14.57,4.31.11-.09,3.51m-7.75-3.71.1-4.15a3.07,3.07,0,0,0-1.83-.62,3.15,3.15,0,0,0-2.29.9,3,3,0,0,0-1,2.22l0,1.53,5.09.13"/><path d="M150.29,436.69l-1.62.79-2,19.1-3.18-.33,2.56-24.76,4.22,5.19"/><path d="M139.66,455.76l-7.69-1,.46-3.48,4.56.6,2-15.62-1.46-1.18L142.9,431l-3.25,24.74"/><path d="M132,454.91l-11-2L119.44,451l-1.89,1.33-9.45-1.69.62-3.46,8.58,1.53,7.07-4.31-.22-.65-.21-.47a1.21,1.21,0,0,0-.33-.42l-.24-.16a4.21,4.21,0,0,0-.43-.24l-.2,0-.32-.1a1,1,0,0,1-.32-.22l-.35-.29-.42-.55-.3-.37-.39.29-.41.29-.61.27-.91,0a3.07,3.07,0,0,0-1.25.18l-.44.33-.35.3-.16.13,2.38,2.86-2.56,1.46-1.7-2.13a1.72,1.72,0,0,0-.55-.46,2.32,2.32,0,0,0-.87-.34,2.16,2.16,0,0,0-1.76,1l-.2-.51V444a1.68,1.68,0,0,1,.69-1.1,1.64,1.64,0,0,1,1.27-.29l.36.11,0-.25V442a2.72,2.72,0,0,1,1.12-1.47,3.46,3.46,0,0,1,1.27-.68l1.51-.23a7.42,7.42,0,0,0,1.38-.25,3.6,3.6,0,0,0,1.41-.67l.44-.31.4-.36.39-.4.41-.54a3.31,3.31,0,0,0,.8,2.08l.63.54.7.51,1.4.86.44.3a1.86,1.86,0,0,1,.49.31,4,4,0,0,1,1,1,2.38,2.38,0,0,1,.63,1.78.89.89,0,0,1-.21.44l-.17.22.65,0a1.26,1.26,0,0,1,.88.74,1,1,0,0,1,.19.55,2,2,0,0,1,0,.79,3.38,3.38,0,0,1-.57.94,1.69,1.69,0,0,0-.35-.94,1.6,1.6,0,0,0-1-.56,2.49,2.49,0,0,0-1.57.22l-4.33,2.52,11.09,2-.62,3.46"/><path d="M108.12,450.55l-3.33-.77a11.46,11.46,0,0,1-1,2.59,7.26,7.26,0,0,1-1.3,1.89,7.53,7.53,0,0,1-7.51,2.28,11.68,11.68,0,0,1-4.16-2l-.43-.31.54.13a11.13,11.13,0,0,0,6-.18,6.74,6.74,0,0,0,4.24-3.94l.18-.6a6.72,6.72,0,0,0-.07-3.44,3.94,3.94,0,0,0-1.42-2.34l-1-.65a5.3,5.3,0,0,0,1.88-1.73l.45-.85.26-.83.08-.44a1.62,1.62,0,0,0,0-.47v-.5a1.69,1.69,0,0,0-.09-.59l.78,1.07.95,1.43.5.8a11.45,11.45,0,0,1,1.29,4l.13,1.19,3.83.89-.79,3.42"/><path d="M93.33,426.36l-1.72.54-4.85,18.58-3.1-.81,6.28-24.08,3.39,5.77"/><path d="M84.59,424.65l-1.48-2.79L77.47,425l-1.56-2.84,2.83-1.54,3.1,5.59,2.75-1.59m-4.77,19.16a7.34,7.34,0,0,1-1.21,2.43,7,7,0,0,1-2.11,1.86,8.08,8.08,0,0,1-6.83.75A8.93,8.93,0,0,1,65,445.5a6.42,6.42,0,0,1-1.27-5.85,6.94,6.94,0,0,1,.72-1.62l.76-1,.63-.9a4.45,4.45,0,0,0,.74-1.36,1.78,1.78,0,0,0,.08-.51,1,1,0,0,0-.21-.71,1.12,1.12,0,0,0-.68-.61,1,1,0,0,0-.49,0,1.75,1.75,0,0,0-1.53,1.36l-.09-.1a3.53,3.53,0,0,1-.07-2.22,2.18,2.18,0,0,1,1.53-1.62l.6-.06.56,0,0-.45.07-.72.23-.56a2.07,2.07,0,0,1,.41-.46,2.65,2.65,0,0,1,.7-.42l1.47-.11.47,0-.37.56-.44.87v2a10.23,10.23,0,0,1-.44,2.32,22.51,22.51,0,0,1-1.46,2.47,15,15,0,0,0-1.77,3.56l-.19,1.06a4.72,4.72,0,0,0,1.5,3.35l.21.22.48.42a3.88,3.88,0,0,0,.45.29,3.52,3.52,0,0,0,.37.22l.83.42a6.16,6.16,0,0,0,1,.35,5.9,5.9,0,0,0,4.08-.2,5,5,0,0,0,1.56-1l.31-.35.36-.52.3-.47a3,3,0,0,0,.28-.57l-7.41-2.15.86-3,.27-.85.13-.45a1.89,1.89,0,0,1,.24-.51,3,3,0,0,1,.6-.94,3.56,3.56,0,0,1,.56-.49l.68-.59a1.6,1.6,0,0,1,.87-.3l.59.05.51.08.38.11.07-.3,0-.38.14-.49a4.75,4.75,0,0,1,.58-1.2,2.52,2.52,0,0,1,1.26-1l.42,0,.55,0,.78.11.95.25a11.75,11.75,0,0,0,1.89.36,3.65,3.65,0,0,0,1.62-.06l.34-.06-3.65,12.59,0,.25m-2.24-4.47,1.45-5-.39.07-.76-.1a1.22,1.22,0,0,0-.82,0,1.41,1.41,0,0,0-.84,1.05l-.1.5a1.08,1.08,0,0,0,.15.51l-.44-.17-.35-.08a1.46,1.46,0,0,0-.5,0,2.43,2.43,0,0,0-1,.49l-.25.3-.29.59-.08.6,4.14,1.2"/></svg>