<svg xmlns="http://www.w3.org/2000/svg" viewBox="0 0 640 830"><title>Ireland</title><path d="M640,0V442.5c0,19.8-6.51,229-320.07,387.5C6.51,671.5,0,462.3,0,442.5V0H640Z" style="fill:#00005c"/><path d="M288.11,88.08l1.25-1.19.71,1.79Z" style="fill:#806600;stroke:#806600"/><path d="M374.58,620.12c-24.13-1.56-24.53-1.27-31.41-3.17-3.21-.89-7.29-1.95-7.71-2.12a14.5,14.5,0,0,0-2.49-.64,12,12,0,0,1-3-.95c-.2-.22,36.56-88.88,80.67-196.15l80.1-194.8-1.87-4.67c-2.48-6.21-4.87-9.92-8.89-12.79a26.54,26.54,0,0,0-3.27-2,31.54,31.54,0,0,0-3.83-1.53,39.42,39.42,0,0,0-4.36-1.15c-1.58-.37-3.32-.55-5.09-1l-2.49-.63,2-2c1.72-1.73,4.94-3.61,6.94-3.63,2.65,0,19.3,3.52,25.84,5.42a76.16,76.16,0,0,1,25,12.68l6.56,4.66,1.15,4.88c1.77,7.52,2.71,10.65.53,15.43-1,2.14-27.9,86.42-61.32,187.42S405.79,610.3,404.43,614.46c-2.19,6.71-1.94,8.23-2.92,8.18-.61,0-13-1.62-26.94-2.52Z" style="fill:#f3ae00"/><path d="M204.28,182.44c7.65-10.92,24.7-31.6,34.21-43.49,4.76-6.51,10.05-12.82,15.22-19.07.31.29,1,.8,1.29,1.07l-24.36,30.76c-23.17,29.26-23.92,31.16-24.19,31.15-.6-.12-1.6-.27-2.18-.42Z" style="fill:#f3ae00"/><path d="M249,678.36c-7.21-1.56-8.58-3.61-16.14-16.19l-1.23-1.51-1.48,1.54c-3.73,3.89-12.75,4.7-19,2.95-6.9-1.93-11.92-11.78-11.4-18.09.71-8.61,9-13.67,17-12.17,3.5.65,8.58,5.14,10.11,9,1.24,3.17,1.33,4.25-.05,6.15a10,10,0,0,1-4.25,3c-2.58.86-4.29,1-8-.3-3.94-1.35-4.8-1.81-4.79-.54,0,.86,4.75,2.05,7.94,2.53,3.63.55,8.1-.79,10.12-3.41s-.55-9.79-.77-10c-1.28-1-4.61-7.37-10.39-17.18s-13.75-22.8-21.83-36.79l-29.36-50.84-4.52.14c-4.69.14-7.61-2.83-7.63-4.86a8.28,8.28,0,0,1,1.71-3.92c2.2-2.66,2.14-2.13-.1-4.75s-2-3.86.34-6.66c1.06-1.28,2.1-2.68,1.89-3.38s-3.89-7.08-6.17-14.22c-9.43-29.55-13.62-54.95-17.2-82.61-2.89-22.31-.14-59,4.35-86,8-47.89,29.28-93.76,54.86-125.82,1.71-2.14,3.64-4.06,3.64-4.36s-1.11-1.15-1.92-2.16c-1.74-2.17-2.4-4.46-.91-5.72s1.22-3.82.49-4l-2-.41,1.72-2.75c1.33-2.13,4.88-2,10.9-1.12,2.26.34,2-.13,25.81-30.48,13.26-16.93,24.95-31.77,25.22-31.85s10.07,8.74,20.37,18.92l19.08,18.86-7.54,6.86c-53.3,48.47-92.36,116.24-99.92,178.9-2.14,17.71-1.67,42.49,1,60,5.3,34.47,17.2,66.45,40.88,116.81l6.27,12.18,15.84,17.41c8.76,9.63,18.59,20.5,21.94,24.37l6.42,7.42-6.52,7.68c-22.28,26.25-33.2,50.1-35.43,64-1.54,9.62,1.59,15.27,9.07,18.17,16.25,6.31,44.79-7.57,86.47-43.24,4.87-4.17,12.95-11.59,13.12-11.42s2.53-.19-1,3.36a349.71,349.71,0,0,1-26.76,24.3,233.71,233.71,0,0,1-25.75,18.52c-8.25,5-20.78,11.52-23.12,11.19-5.45,3.53-18,3.05-21.42,2.32Z" style="fill:#f3ae00"/><path d="M258.77,557.67c-11.64-13-22.45-25.08-22.53-25.32S269,483.58,308.39,423.64C372,326.78,384.47,308.3,419.25,258c21.53-31.13,39.73-57.66,40-58,2.73-3.73,22.39,4.36,22.63,8.22,0,.49-200.52,373-201.41,373.91-.21.21-10.08-11.42-21.72-24.41Z" style="fill:#f3ae00"/><path d="M217.84,634.28l-7.87-13c-9.1-15-15.46-25.93-23-38.48s-14.91-27.05-20.87-38.06l-3.89-6.65,1.51-.14c-.13.08,1.08-.41,1.48.71,0,.05,14.06,24.09,28.07,48.13s28.33,48.63,28.37,48.72c-.49,0-3.1-1.25-3.85-1.27Z" style="fill:#f3ae00"/><path d="M251.38,673.41c-7.61-1.11-10.88-5.85-12.06-12.86-2.11-12.5,8.53-35.37,28.82-61.11,4.61-5.85,13.06-15.07,13.32-15.07.07,0,11.17,6.71,24,15l23.19,14.88,8.07,2.29c4.13,1.17,7.86,2.07,7.86,2.2,0,.64-24,20.87-32.57,27.46-26,19.89-44.79,29.41-57.22,27.6Z" style="fill:#f3ae00"/><path d="M305.34,597.72c-12.45-7.85-23.72-14.19-23.66-14.5.13-.67,200.32-373.67,200.88-374.29s3.27,4.19,4.84,9.3l1.68,4.2L409.28,416.9c-43.91,107-80.09,195.48-80.35,195.55s-11.13-6.88-23.58-14.73Z" style="fill:#c37b24"/><path d="M520.62,208.64c-14.28-9-23-12.3-40.15-15.4l-9-1.63,3.86-6.35c1.9-3.13,3.85-6,3.93-6.12.26-.29,11.29,1.7,16.27,2.8,2.54.56,6.85,1.81,9.25,2.63,4.73,1.6,19.49,8.7,19.78,9.54.21.63,2.27,19.1,2.15,19.22s-2.18-1.89-4.68-3.7Z" style="fill:#fc0"/><path d="M234.14,100.31l-.44-7.09L288,55.36,292.6,60" style="fill:#f3ae00;stroke:#c37b24;stroke-width:1.7999999523162842px"/><path d="M370.11,168.92a34.17,34.17,0,0,0-6.55-6.74,21.71,21.71,0,0,0-7.35-3.14,26.24,26.24,0,0,0-12.75,1.41,23.08,23.08,0,0,1-2.28.62c-.2-.1-4.07-2.76-8.6-6l-8.24-5.93.21-2.2a23.51,23.51,0,0,0-.47-7.49,14.88,14.88,0,0,0-7-8.64c-3.16-1.67-8.26-2.63-12.71-2.49a8.72,8.72,0,0,1-2.25-.18c-.17-.1-2.58-2.08-5.35-4.35-3.57-3-5-4.46-5.05-4.86s.09-2,.22-3.8c.55-7.7-.83-10.69-7-15.24a29.17,29.17,0,0,1-2.41-1.78c-.22-.3,2.84-2.52,3.12-2.23.17.1,1.25,1.09,2.4,2.18A30.3,30.3,0,0,0,296.7,104c3.37,1.27,6.35,1.45,11.36.7,1-.21,1.09-.11,5.14,4.15l4.09,4.26-.68,2.71c-1.15,4.61-.56,8.1,2,11.38a17.57,17.57,0,0,0,7.17,5.24A39.07,39.07,0,0,0,336,134l1.72-.11,5.87,4.25c3.22,2.37,6,4.45,6.16,4.65a3.25,3.25,0,0,1,.31,1.5,18,18,0,0,0,2.84,7.77,15.66,15.66,0,0,0,3.13,2.87c4.59,3.06,11.81,3.2,16.92.25l1.94-1.12,8.58-.17,8.58-.07,1.84,1.18a20.38,20.38,0,0,0,3.86,2,6.6,6.6,0,0,1,2,.88,3.64,3.64,0,0,1-.83,1,26.43,26.43,0,0,0-3.93,6.43l-1,2.31L382.77,169c-6.13.75-11.28,1.4-11.46,1.4a5.87,5.87,0,0,1-1.2-1.49Z" style="fill:none"/><path d="M368.14,173a17.8,17.8,0,0,0-6.33-7.94,12.81,12.81,0,0,0-5.76-2.35,16.78,16.78,0,0,0-5.88-.25,21.27,21.27,0,0,0-7.45,2.36l-1.15.61-10.67-7.41-10.67-7.31.22-.8a24.86,24.86,0,0,0,.9-5.71c-.19-5.5-2.79-9.37-7.62-11.33a9.36,9.36,0,0,0-3.13-.77,17.78,17.78,0,0,0-7.95.37l-1.07.21-7-5.64-7-5.64.18-.8c1.6-7.11,1.69-8.31.77-11.2-1.1-3.49-4.17-6.36-9.92-9.41-1-.59-1.8-1-1.83-1.08s9.52-7.78,10.09-8.18c0,0,1.22,1.49,2.65,3.38,4.44,5.86,6.11,7.15,9.88,7.71a24.46,24.46,0,0,0,8.41-.77l2.63-.52,5.77,5.95c5.37,5.45,5.76,5.95,5.62,6.25a14.5,14.5,0,0,0-1.57,4.61,9.19,9.19,0,0,0,.18,5.5,7.18,7.18,0,0,0,1.53,2.79,8.24,8.24,0,0,0,2.51,2.48,12.72,12.72,0,0,0,5.89,2.25,10.58,10.58,0,0,0,3.89.47,15.38,15.38,0,0,0,4.34-.74c.57-.3.63-.21,1,0,.2.2,3.39,2.57,7.08,5.34l6.7,4.94-.12,1.5c-.43,5.7,1.77,10.28,5.91,12.15a12.34,12.34,0,0,0,6.69.64,16.39,16.39,0,0,0,6.62-3.16l1-.71,9.82-.08,9.81,0,.57.39c3.1,2.37,5.48,3.55,8.58,3.93a12.19,12.19,0,0,0,5-.14,10.92,10.92,0,0,0,7.37-5.66,15.35,15.35,0,0,0,1.22-3.51.76.76,0,0,1,.2-.5c.2-.1,16.85-7,17.54-7.25a8,8,0,0,1,2.11.68c3.92,1.47,6,1.75,8.65,1.23.1-.1,0,.5-.11,1.1a31.81,31.81,0,0,0-.24,6.7l0,2.8c0,.1-5.28,2.54-11.67,5.4l-11.63,5.2-1.51-.79a16.05,16.05,0,0,1-1.94-1,24.48,24.48,0,0,0-7.83-1.83,10.49,10.49,0,0,0-8.8,4.67,26,26,0,0,0-3.37,7.73l-.14.7-1,.11c-2,.32-27,3.33-27.27,3.33s-.39-.3-.7-1Zm14.59-2.52c6.66-.86,12.21-1.6,12.32-1.61A9.85,9.85,0,0,0,396,167a26.09,26.09,0,0,1,4.52-7.54,14,14,0,0,1,2-1.52l1.3-.91-1.08-.19a20.3,20.3,0,0,1-9.21-3.92l-.61-.59-9.43.18c-8,.07-9.48.08-9.72.38a18.65,18.65,0,0,1-3.48,1.93,15.62,15.62,0,0,1-5.38,1,15.34,15.34,0,0,1-6.6-1.24,9.69,9.69,0,0,1-3.91-3.27,13.1,13.1,0,0,1-2.73-7.57,10.41,10.41,0,0,0-.27-1.7c-.1-.1-3.06-2.37-6.62-4.94l-6.48-4.74-1.43.11A22.41,22.41,0,0,1,330,132a22.12,22.12,0,0,1-4.38-1.16c-7-3.14-9.67-9.31-7-16.23.28-.7.54-1.4.56-1.5s-9.41-10.22-9.68-10.31c-.1,0-.89.21-1.78.42a17.57,17.57,0,0,1-10.49-.61c-3.17-1.27-6-3.35-10.2-7.51-1.26-1.29-1.69-1.59-1.82-1.48s-1.36,1.11-2.82,2.32l-2.65,2.22,3,2.07c3.46,2.47,4.86,3.66,5.95,5.25,1.72,2.48,2.09,5.48,1.49,12A19.26,19.26,0,0,0,290,120c.23.3,11.59,9.7,11.76,9.7a6.52,6.52,0,0,0,2.09,0c5.33-.15,10.14.91,13.17,2.79,4.75,3.06,6.61,7.84,5.8,14.95l-.27,2.3,9.23,6.62L341,163l.93-.41c5-1.94,8.26-2.57,12-2.3a17.4,17.4,0,0,1,8.5,2.93,30.32,30.32,0,0,1,6.9,7.24,7.73,7.73,0,0,0,1.16,1.59c.1,0,5.6-.65,12.26-1.5Zm48.86-16.12c5.89-2.55,10.72-4.69,10.74-4.79a26.88,26.88,0,0,0-.18-2.8,15.72,15.72,0,0,1,0-3.8l.21-1-2.75-.58c-2.69-.48-2.77-.48-4.07-1.26-.74-.39-1.42-.69-1.53-.59s-3.79,1.53-8.2,3.47-8.07,3.37-8.14,3.47a13.71,13.71,0,0,0-.74,1.31,33.25,33.25,0,0,1-4,6.23l-1.5,1.81,1,.09c.56.1,1.69.29,2.51.38a7.78,7.78,0,0,1,2.73,1.08,10.2,10.2,0,0,1,2.05,1.28,3.56,3.56,0,0,0,1,.49c.1,0,5-2.14,10.88-4.79h0Z" style="fill:none"/><path d="M451,145.43a3.7,3.7,0,0,1-.36-6.6,4.61,4.61,0,0,1,6,1.25,3.77,3.77,0,0,1,.82,2.89,4.45,4.45,0,0,1-3.12,2.93,5.52,5.52,0,0,1-3.32-.47Z" style="fill:none"/><path d="M249,179.06a8.65,8.65,0,0,0-1.39-.49,16.06,16.06,0,0,1-8-6.43,15.51,15.51,0,0,1-1.79-5.38,14.34,14.34,0,0,1,1.12-5.71,12.75,12.75,0,0,1,4.81-4.94,16.75,16.75,0,0,1,15.55-.33c6.08,2.85,9.35,8.92,7.91,14.53s-6.75,9.26-13.51,9.31a27.4,27.4,0,0,1-4.67-.56Z" style="fill:none"/><path d="M247.38,184.87C236,181.87,229,170.94,232.25,161c2.07-6.32,7.36-11,14.46-12.52a21.81,21.81,0,0,1,9.51-.08,22.29,22.29,0,0,1,10.59,4.91c.68.59,1.28,1.09,1.36,1.19s.32,7.8.23,8.3a6.43,6.43,0,0,1-.65-1.09c-4.35-8.46-16.63-11.85-25-6.88a13.68,13.68,0,0,0-3.57,2.93,12.78,12.78,0,0,0-3,9.52,14.5,14.5,0,0,0,2.07,5.68,16.78,16.78,0,0,0,7.83,6.63,14.7,14.7,0,0,0,4,1.07,13.31,13.31,0,0,0,4.41.46c6.27-.25,11.56-3.5,13.67-8.22.27-.6.42-.8.45-.6s0,1.9,0,3.9l0,3.7-.5.4a20.45,20.45,0,0,1-6.77,4.06,23.2,23.2,0,0,1-14,.52Z" style="fill:none"/><path d="M277.56,159.12c-.18-9.1-.25-16.49-.24-16.49s1.4,1.29,3,2.87l3,2.87.19,10.5c.15,5.7.19,10.6.09,10.8a16.5,16.5,0,0,1-2.37,2.52c-1.26,1.21-2.56,2.42-2.87,2.72a3,3,0,0,1-.6.6s-.16-7.4-.31-16.39h.08Z" style="fill:none"/><path d="M360.15,176.81a32.08,32.08,0,0,1-5-1.36h.44a6.39,6.39,0,0,0,3.1-.93,5,5,0,0,0,2.19-2.42,5.27,5.27,0,0,0-2.52-6.58,7,7,0,0,0-2.61-.88c-4.35-.46-7.57,2.86-6.41,6.65a7.08,7.08,0,0,0,1.71,2.58l.5.4-.55-.1c-.7-.29-3.23-1.27-4.77-1.86a131.71,131.71,0,0,1-18.14-9.84c-3-1.87-3.13-2-3.59-2.57a8.51,8.51,0,0,0-2.3-1.58c-1.11-.49-4.33-2.86-8.87-6.52-3.1-2.47-3-2.37-3.22-3.17a5.1,5.1,0,0,0-4.07-3.56l-1.06-.29-4.08-3.56c-5.74-5-8-7.13-8.29-7.73a6.07,6.07,0,0,0-2.58-2.58c-.71-.29-1-.59-3.61-3.27-4-4-8-8.43-12-13.19-.84-1-1.61-1.89-1.72-2s-.33-.2-4.86.74c-2.57.42-4.87.94-5.12.94l-.45.1,2.4,2.58a19.62,19.62,0,0,1,2.56,3.08c.1.3.24.6.33.8s.18,1.6.24,5.4l0,5.1S236.48,100.89,236,100.5c0-.1,52.31-35.64,52.41-35.64s3.53,3.87,11.91,13.49c6,6.95,13.81,15.78,16.77,19.15,12.79,14.19,23.45,24.69,32.53,32A98.49,98.49,0,0,0,363.37,139c2.34,1.28,6.3,2.55,11.6,3.7l3.45.77-.58,2.9c-.32,1.6-.61,2.9-.65,2.9l-4.5-.06c-.11.1-.46.3-.78.61a14.77,14.77,0,0,1-7.56,3.46,10.78,10.78,0,0,1-4.45-.66,7.73,7.73,0,0,1-4.4-5.06c-.66-2-.77-3.69-.46-7.29v-.5l-7.84-5.83-7.84-5.83-.86.31a13.28,13.28,0,0,1-8.4.47c-5.45-1.25-8.67-4.82-8.52-9.42a16,16,0,0,1,2-6.42c.22-.5.36-.8.32-.9S311.1,99,311,98.85s-1.34.21-3,.53c-4.27.94-6.16,1.15-8.22,1a8.36,8.36,0,0,1-5.46-2.75c-.56-.6-2-2.28-3.78-4.67-2.27-3-2.93-3.87-3.07-3.77s-.23,0-.43-.2a1.25,1.25,0,0,0-.37-.2c-.1,0-3,2.43-6.58,5.26l-6.47,5.15,2.72,1.48a33.44,33.44,0,0,1,6.67,4c3,2.57,4.25,5,4.25,8.56a28.13,28.13,0,0,1-1.35,6.91c-.43,1.3-.5,1.6-.39,1.7s13.12,10.58,15.48,12.46c.11.1.56,0,1.51-.21a22.72,22.72,0,0,1,5-.74,16.15,16.15,0,0,1,5,.76c4.49,1.56,7,5.34,7,10.44a22.61,22.61,0,0,1-1.1,5.71,8.51,8.51,0,0,0-.35,1s5.25,3.65,11.66,8l11.64,8.1,1.33-.71c4.82-2.74,10.17-3.49,14.54-2s7.67,4.83,9.64,10.11a9.22,9.22,0,0,0,.43,1s3.89-.43,4.49-.54c.19,0,.19.1-.1,1.5a9.15,9.15,0,0,1-.39,1.6,2.53,2.53,0,0,0-1.07-.09,46.94,46.94,0,0,1-5.35-.55,9.68,9.68,0,0,1-1.85-.28c-.15,0-1.51-.29-3-.57h0Zm-49.17-31a6.18,6.18,0,0,0,5.32-1.95,4.89,4.89,0,0,0,.92-4.71,6.63,6.63,0,0,0-2.2-2.88c-3.51-2.37-8.12-1.23-9.44,2.38a4.3,4.3,0,0,0,0,3.2c.6,1.79,2,3,4.33,3.86a6.29,6.29,0,0,0,1.07.09h0Zm52.4,6.25a6.82,6.82,0,0,0,3.05-.83,4.86,4.86,0,0,0,1.48-7.51,6.26,6.26,0,0,0-4-2.37c-4.22-.76-7.81,2.47-6.88,6.26a5.55,5.55,0,0,0,1.18,2.29,9.84,9.84,0,0,0,2.29,1.68,13.62,13.62,0,0,0,2.86.48Zm-33.8-24.9a6.14,6.14,0,0,0,3.14-.93c3-1.73,3.53-5.13,1.24-7.81a6.32,6.32,0,0,0-4.25-2.06c-4.26-.46-7.43,2.86-6.28,6.65a6.55,6.55,0,0,0,2.23,2.88,7,7,0,0,0,3.92,1.27Zm-49.27-11.27a5.94,5.94,0,0,0,5.25-3.24,3.74,3.74,0,0,0,.39-2.3,4.83,4.83,0,0,0-1.13-2.79,6.22,6.22,0,0,0-3.91-2.37c-3.31-.67-6.42,1.15-7,4.16a5.12,5.12,0,0,0,1.71,4.78,8.15,8.15,0,0,0,2,1.28,13.44,13.44,0,0,0,2.7.48h0ZM300.72,99a5.51,5.51,0,0,0,5-4.24c.6-2.9-1.64-5.78-4.9-6.46-4.55-.86-8.22,2.77-6.86,6.76a8,8,0,0,0,.78,1.39,6,6,0,0,0,2.73,2.08,7,7,0,0,0,3.26.47Z" style="fill:none"/><path d="M361.24,150.11a3.91,3.91,0,0,1-1.77-1.38,3.39,3.39,0,0,1,1-5.21,4.56,4.56,0,0,1,6.63,2.34,2.14,2.14,0,0,1,0,1.6,2.75,2.75,0,0,1-.69,1.61,4.45,4.45,0,0,1-2.64,1.42,5.56,5.56,0,0,1-2.61-.38Z" style="fill:none"/><path d="M280.24,143.1a19.82,19.82,0,0,1-3-3.07c0-.8-.18-9.5-.08-9.6s4.77,4.76,5.63,5.75l.36.4,0,4.7,0,4.7s-1.38-1.29-3-2.87h0Z" style="fill:none"/><path d="M298.32,160.24c-1.53-1.29-5-4.36-5.53-5.05,0-.1-.24-9.4-.19-9.4A8.13,8.13,0,0,1,294,147c1,1,6.24,5.54,6.44,5.64,0,.1.18,9,.08,9.2a.1.1,0,0,1-.11.1l-2.15-1.68Z" style="fill:none"/><path d="M297.39,147.85c-3.74-3.37-4.86-4.46-4.87-4.66-.11-1.1-.15-6.2-.06-6.5.14-.7.15-.7,1.86.88.88.79,3.13,2.77,5,4.36,3.33,3,3.41,3.07,3.13,3.17a5.43,5.43,0,0,0-1.78,1,3.62,3.62,0,0,0-.75,3.41,2.34,2.34,0,0,1,.15.6s-1.25-1-2.69-2.28Z" style="fill:none"/><path d="M313.21,160.52c-1-.69-2.36-1.68-3.06-2.27l-1.27-.89,0-2.6c0-2.4,0-2.5.19-2.7a5.76,5.76,0,0,0,.54-.6l.31-.4,1.76,1.48c1,.79,2.93,2.27,4.37,3.46l2.61,2-.41.1a8.7,8.7,0,0,0-1.85.92,3.28,3.28,0,0,1-.5.4,4.5,4.5,0,0,0-.68,1.71c-.1.4-.13.7-.14.7l-1.82-1.28Z" style="fill:none"/><path d="M312.47,171.62a24.5,24.5,0,0,1-3.32-2.87c-.1-.2-.28-8.8-.2-9.2,0,0,1.35.79,3.38,2.27,1.84,1.28,3.38,2.37,3.41,2.47s.21,9.5.18,9.8c0,0-.1.1-.12.1s-1.54-1.19-3.31-2.57h0Z" style="fill:none"/><path d="M326.76,181.69a13.85,13.85,0,0,1-1.88-1.18s-.12-2.4-.14-5.1l0-5.4c0-.3-.15-.3,2,.88a16.25,16.25,0,0,1,1.77,1.08c.17.3.22,1.1.28,5.4a50.37,50.37,0,0,0,.14,5.2c0,.1,0,.2-.1.2a19.83,19.83,0,0,1-1.92-1.08Z" style="fill:none"/><path d="M326.21,168.8c-.8-.49-1.49-.89-1.53-.89a14.21,14.21,0,0,1-.11-1.5V165l.32-.4a3.31,3.31,0,0,0,.51-1.1,1.74,1.74,0,0,1,.28-.6s.95.59,2,1.18a41.07,41.07,0,0,0,3.72,2.27c.24.2.23.2-.42.4a4.2,4.2,0,0,0-2.9,2.52c-.1.2-.23.4-.3.4a11,11,0,0,1-1.59-.89Z" style="fill:none"/><path d="M340.42,188.57c-2.08-.88-2.43-1.08-2.41-1.18l0-5.5,0-5.4s.87.39,1.87.88l1.82.78.23.7c.2.6.24,1.4.34,5.5,0,2.6.14,4.8.14,4.8s-.16.1-1.8-.58Z" style="fill:none"/><path d="M353.35,192.86c-.72-.19-1.32-.39-1.34-.39s-.2-10.1-.09-10.1a26.19,26.19,0,0,1,3.49,1.17c.1,0,.1.1.1.2a7.08,7.08,0,0,0,.47,1.5c.1.2.36,7.89.29,8.2a10.17,10.17,0,0,1-2.85-.58Z" style="fill:none"/><path d="M365.87,183.76a6.17,6.17,0,0,0-8.61-3.43,3.48,3.48,0,0,0-1.44,1.41c0,.2-.46.1-2.46-.58l-1.59-.59.2-1a2.73,2.73,0,0,0,0-1.8,3.78,3.78,0,0,0-.75-1.39c-.5-.7-.52-.7-.22-.6.61.29,3.51,1.17,4.77,1.56,2.2.58,6.52,1.54,8.72,1.82,9.22,1.42,18.83.64,32.26-2.68,1.28-.31,2.37-.62,2.44-.62s-.21.2-.61.41a3.44,3.44,0,0,0-1.79,2.11c-.29,1.1-.16,1.7.67,3.29.11.2-.16.3-2,.92-2.75.72-3.12.83-3.21.63l-.1-.2a4.67,4.67,0,0,0-.57-1c-2.16-2.78-6.78-3.24-9-.82-.38.4-.43.6-.62,1.5a2.46,2.46,0,0,0,0,1.6l.19.6-1,.11a12.34,12.34,0,0,1-2.09,0c-.1,0-.26-.3-.43-.7-1.79-4.08-9-4.42-10.1-.51-.21.8-.14.8-1.67.51l-1-.09-.1-.5h0Z" style="fill:none"/><path d="M365.73,195.05s0-2-.14-4.5a30.31,30.31,0,0,1,0-4.6c0-.2.1-.2.75-.11.39.1,1.1.19,1.58.29l.88.09.27.4a3.61,3.61,0,0,1,.28.7c0,.8.22,8,.19,8s-3.53-.27-3.7-.27h-.07Z" style="fill:none"/><path d="M379.22,195c-.11-.7-.22-8.2-.17-8.3a4.56,4.56,0,0,1,.88-.11,12.21,12.21,0,0,0,1.84-.12h1.08c0,.1.12,1.8.16,3.9s.13,4,.14,4.1,0,.2-2.64.52c-1.14.11-1.28.11-1.3,0h0Z" style="fill:none"/><path d="M392.49,192.82c0-.3-.24-7.4-.21-7.6s.37-.2,1-.41a19.94,19.94,0,0,0,2.54-.72l1.61-.41c.12,0,.36,7.89.23,8s-1.26.31-2.66.62a10.71,10.71,0,0,1-2.57.52h0Z" style="fill:none"/><path d="M406.65,185.6c-.13-3-.13-3.5.08-3.7a5,5,0,0,0,.33-1.1l.14-.8,2.2-.92a8.19,8.19,0,0,1,2.21-.92s0,2.1.14,4.5.14,4.5.15,4.6-.16.2-.45.3c-1,.31-4.57,1.44-4.63,1.44s-.11-1.5-.18-3.4Z" style="fill:none"/><path d="M377.85,146.36c.35-1.5.65-2.8.68-2.9a12.94,12.94,0,0,1,1.41.09,24.6,24.6,0,0,0,2.71.38c8.61.63,16.75-.54,26.16-3.92,2.53-.92,5.64-2.15,10.89-4.29,11.54-4.8,15.63-6.23,21.55-7.78a98.79,98.79,0,0,1,17.16-2.65c2.8-.22,2.44-.42,3.13,1.17a26.89,26.89,0,0,0,4.73,7.16,25.69,25.69,0,0,0,5.94,4.55l.94.39-.15.8-.14.8-.46-.2a19.61,19.61,0,0,1-7.4-5.43,13.58,13.58,0,0,1-2.05-3.58l-.45-1.1-2.24.52c-1.23.31-4.27,1-6.78,1.66l-4.54,1.14-.22.4a32.78,32.78,0,0,1-2.37,2.92,8,8,0,0,1-1.53,1.21c-1.48,1-2.59,1.12-4.78.74a21.77,21.77,0,0,1-4.54-1.56c-1.43-.49-1.87-.68-2-.58-.37.1-18.84,7.66-19,7.86-.13,0-.2.2-.21.6a9.39,9.39,0,0,1-.37,1.6,9.68,9.68,0,0,1-4.38,6c-3.16,1.93-7.67,1.77-11.69-.3a16.11,16.11,0,0,1-3.19-2.27,4.88,4.88,0,0,0-.92-.59c-.1-.1-3.78-.07-8.19,0s-8.08.07-8.14,0a12.62,12.62,0,0,1,.52-2.8Zm27,7a5.64,5.64,0,0,0,4.74-2.44,6.2,6.2,0,0,0,.83-2.91,5,5,0,0,0-1.12-2.89,6.65,6.65,0,0,0-8.78-1.52,5.3,5.3,0,0,0-1.77,2,7.43,7.43,0,0,0-.5,2.5,6,6,0,0,0,3.56,4.77,10.63,10.63,0,0,0,3,.47h0Z" style="fill:none"/><path d="M402.64,151.45a4.33,4.33,0,0,1-2.48-2.68,2.09,2.09,0,0,1,0-1.6,2.65,2.65,0,0,1,.71-1.61,4.63,4.63,0,0,1,7,.34,3.4,3.4,0,0,1-.54,4.9,4.81,4.81,0,0,1-4.65.64Z" style="fill:none"/><path d="M408.16,168.3a4.38,4.38,0,0,1-2.13-2,3.1,3.1,0,0,1-.27-2.3,3.74,3.74,0,0,1,3-2.82,3.21,3.21,0,0,1,2,0,4,4,0,0,1,1.77.68,4.15,4.15,0,0,1,1.81,3.48c-.21,2.7-3.32,4.23-6.1,3Z" style="fill:none"/><path d="M420.86,183.88c-.11-1.6-.24-7.6-.18-8.3,0-.5.09-1.1.09-1.2s.42-.4,2.18-1.12a9.06,9.06,0,0,1,2.21-.82c.1.1.44,9.69.35,9.79a40.56,40.56,0,0,1-4.59,1.84.35.35,0,0,1-.1-.2Z" style="fill:none"/><path d="M434.22,174.07c-.18-4.4-.18-4.5.08-5.2l.25-.6,2.55-1.12c1.4-.61,2.57-1.12,2.6-1.12s.48,9.49.42,9.79c0,.1-.12.2-.21.3s-1.34.61-2.76,1.22-2.61,1.12-2.66,1.12a38.36,38.36,0,0,1-.28-4.4Z" style="fill:none"/><path d="M448.55,171.65c0-.1-.12-2.1-.2-4.7s-.19-4.6-.18-4.7a36.87,36.87,0,0,1,4.32-2c0,.1.37,9.09.34,9.19a28.31,28.31,0,0,1-4.19,2.34.1.1,0,0,1-.1-.1Z" style="fill:none"/><path d="M448.94,159.55a3.39,3.39,0,0,0-.64-1.69,2.72,2.72,0,0,1-.39-1.1c0-.4,0-.4-.37-.2s-.27.1-.68-.19a1.72,1.72,0,0,0-.67-.39c-.23-.2-.1-.3,2.47-1.62s2.73-1.42,2.77-1.22a4.87,4.87,0,0,0,.55,1.49c.3.5.35.7.41,2.2,0,.8,0,1.6,0,1.6-.6.31-3.09,1.43-3.2,1.53s-.17-.1-.2-.4h-.05Z" style="fill:none"/><path d="M434.27,166.47l-.2-.4a1.59,1.59,0,0,1-.23-.7c0-.3-.1-.3-.23-.3a1.82,1.82,0,0,1-.64-.39c-.23-.2-.77-.49-1.19-.79l-.76-.39,1.59-.81c.89-.41,2.55-1.22,3.71-1.83s2.14-1.12,2.19-1.12a2.18,2.18,0,0,1,.2.4,6.6,6.6,0,0,0,.51,1c.36.5.39.6.43,1.8v1.3s-1,.51-2.23,1l-2.65,1.12c-.26.1-.47.2-.46.1Z" style="fill:none"/><path d="M419.58,172.3a5,5,0,0,0-3-1.57l-1.05-.29,2.54-1,4.21-1.84,1.65-.71.1.4a5,5,0,0,0,.71,1.79,1.71,1.71,0,0,1,.36,1.3,29.67,29.67,0,0,1-4.72,2.14c-.51.1-.66.11-.79-.19h-.05Z" style="fill:none"/><path d="M406.21,177.81a6.39,6.39,0,0,0-5.36-2.15h-.66c0-.1.45-.2,1-.41,1.65-.41,6-1.75,7.83-2.47.92-.31,1.69-.51,1.71-.51l-.21.4a3.61,3.61,0,0,0,.22,3.3c.15.3.24.5.2.5s-4,1.83-4.21,1.94-.32-.3-.57-.59Z" style="fill:none"/><path d="M386.44,427.71c-3.08-1.47-4.61-6.26-4-12.56a42.59,42.59,0,0,1,2.36-9.52c3.76-9.73,10.83-17.19,16.58-17.54a5.11,5.11,0,0,1,3.18.87,7.77,7.77,0,0,1,2.26,2.58q1.76,3.58,1.27,9.59a45.41,45.41,0,0,1-2.38,9.72c-3.37,8.63-9.47,15.68-15,17.22a5.72,5.72,0,0,1-4.3-.36Zm6.43-13.45c1.79-4,3.29-7.43,3.32-7.53s1.41.49,3.76,1.47c2.54,1.08,3.72,1.47,3.78,1.37a4.45,4.45,0,0,0,.59-1.3s-1.67-.69-3.66-1.47a34.81,34.81,0,0,1-3.69-1.57s1.31-3.21,3-7,3.08-7,3.1-7.12-.2-.2-.75-.39-.79-.29-.81-.19-1.34,2.91-2.91,6.52-3,6.72-3.09,7-.28.4-.42.4-1.62-.59-3.36-1.27a17.72,17.72,0,0,0-3.2-1.27,6,6,0,0,0-.62,1.3,22,22,0,0,0,3.14,1.37c1.72.69,3.21,1.27,3.33,1.37s.14.3-3,7.32c-1.78,4-3.26,7.43-3.31,7.53-.1.3,0,.3.5.5a2.06,2.06,0,0,0,.82.29c.2.1.45-.4,3.48-7.33h0Z" style="fill:none"/><path d="M384.6,432c-2.65-1.28-4.54-4.26-5.29-8.45a29.69,29.69,0,0,1-.28-6.7,60.55,60.55,0,0,1,1.89-9.21,46.35,46.35,0,0,1,10.2-17.58c3-3.12,6.58-5.35,9.58-6.08,6.6-1.46,10.92,3.91,10.82,13.5a26.81,26.81,0,0,1-.81,6.51,34.81,34.81,0,0,1-2.21,7.62c-4.46,11.34-12.84,20.2-20,21a10.14,10.14,0,0,1-3.95-.57Zm4.84-2.14c4.6-.34,9.81-4.28,13.92-10.62,6.61-10.25,8.57-23.37,4.38-29.43-2.64-3.78-7.06-4.44-11.86-1.6-5.75,3.35-10.83,10.59-13.81,19.71a51.13,51.13,0,0,0-1.49,7.51c-.37,5.2.56,9.29,2.71,11.87a7.37,7.37,0,0,0,6.12,2.55Z" style="fill:none"/><path d="M488,286.48c.1-2,2.37-35.41,2.41-35.51s.53.4,1.14.89c3.24,2.87,5.51,4.45,7.53,5.23,1.74.68,3.18.77,8.37.83,1.82.08,3.33.07,3.34.07L488,287s0-.2,0-.5h0Z" style="fill:none"/><path d="M409.53,413.92s.25-.7.57-1.5c3.31-8.33,4.1-16.53,2.15-22.51-1.22-3.69-3.36-6.17-6.46-7.24s-6.48-.44-10.23,1.79c-6.73,4-12.84,12.31-16.14,22.23a10.42,10.42,0,0,1-.47,1.2c0,.4-.71.31-1.43.11l-1.41-.29,22-41.18,22.81-42.78,5,1.46c2.78.88,3.78-1.33,5,1.26.22.4-8.29,11.67-17.58,24.24s-16.84,22.84-16.8,22.84.36.3.72.49l.64.39.22-.3c.12-.1,7.58-10.26,16.57-22.34s16.61-22.54,16.92-22.94l.54-.7.61.09.61.09-.18.7c-.33,1.1-14.19,54.31-14.16,54.31a5.69,5.69,0,0,1,.83.29l.79.19.18-.6c.11-.4,3.35-12.73,7.22-27.55s7.49-29.26,7.5-29.26a19.19,19.19,0,0,1,4.65.66l4.8,1.46-17.46,43.14c-9.16,22.67-17,41.43-17.15,41.74-.24.6-.26.6-.59.6a.73.73,0,0,0-.32-.1Zm4.8-23.33h.5c0-.1,3.36-31.82,3.36-31.92s-24.42,24-24.59,24.3c-.1.1,1,1.19,1.14,1.19s.89-.61,1.84-1.22a31,31,0,0,1,8.93-4.48c3.17-.73,4.89.46,6.13,4.35a35.8,35.8,0,0,1,1.3,6.69,2.54,2.54,0,0,0,.14.9c0,.1.2.1.4.1s.58.09.85.09h0Z" style="fill:none"/><path d="M413.5,382.89a16,16,0,0,0-1.63-3.68,5.54,5.54,0,0,0-3.67-2.37c-1.83-.38-3.69,0-6.72,1.36-.69.31-1.25.61-1.24.51s15.61-15.53,15.64-15.53-2,19.91-2.12,20.21-.12,0-.26-.5Z" style="fill:none"/><path d="M272.82,118.47c-1.61-.69-2.83-1.18-2.81-1.18.1-.2.81-.41,1.28-.51a5.16,5.16,0,0,1,2.43.38,3.81,3.81,0,0,1,2,2c.14.4.14.5,0,.5s-1.37-.49-2.94-1.17Z" style="fill:none"/><path d="M288.29,133.64c-1.5-.59-2.83-1.08-3-1.17l-.25-.1.22-.1a3.85,3.85,0,0,1,2.46-.42l.69.09,1.36,1.39a8.08,8.08,0,0,1,1.35,1.39H291l-2.78-1.08Z" style="fill:none"/><path d="M305,149a33.5,33.5,0,0,1-2.87-1.77c-.25-.2,1.56-.91,2.09-.82a12.82,12.82,0,0,1,1.67,1.29c.84.79,1.74,1.48,2,1.78s.47.4.44.5a1,1,0,0,1-.49.7L305,149Z" style="fill:none"/><path d="M320.54,161.85c-1.64-.89-3-1.57-3-1.57,0-.2.87-.61,1.28-.71a4.68,4.68,0,0,1,1.67,0,5.47,5.47,0,0,1,1.7,1c1.4,1,1.41,1,1.53,1.39s0,1.5-.18,1.4c0,0-1.4-.69-3-1.47h0Z" style="fill:none"/><path d="M333.25,170.54l-3.18-1.27c-.1-.1.18-.3.65-.61a3.57,3.57,0,0,1,2.35-.52c2,.08,3.82,1.67,3.62,3.17,0,.3-.1.4-.18.4s-1.54-.59-3.25-1.17Z" style="fill:none"/><path d="M346.74,178.22c-1.67-.49-3.09-1-3.15-1-.29,0,.31-.8.94-1.11a3.26,3.26,0,0,1,.81-.31,5.28,5.28,0,0,1,2.76.18,3.29,3.29,0,0,1,2.24,2.78v.4l-.27-.1c-.14,0-1.63-.49-3.31-.87Z" style="fill:none"/><path d="M360.44,183c-1.58-.39-2.89-.67-2.91-.67s.36-.5.74-.71a3.55,3.55,0,0,1,2.08-.42c1.57.09,3.23,1.07,3.62,2.17a1,1,0,0,1,.1.4c0,.1.1.1-3.63-.77Z" style="fill:none"/><path d="M370.29,184.32a2.21,2.21,0,0,1,1.5-1.41,4.67,4.67,0,0,1,4.12.56c.42.3,1.13,1.19,1,1.19l-6.67,0v-.3Z" style="fill:none"/><path d="M383.7,183.8a2.82,2.82,0,0,1,.09-.8,2.09,2.09,0,0,1,.34-.8,3.88,3.88,0,0,1,4.42-.54,3.11,3.11,0,0,1,1.56,1.09c.14.2.44.1-3,.73a23.4,23.4,0,0,0-3.06.53c-.27,0-.28,0-.33-.2Z" style="fill:none"/><path d="M386.35,186.18a1.9,1.9,0,0,1,.62-.11c.36-.1,1.19-.21,1.84-.32s1.2-.21,1.21-.11a4.1,4.1,0,0,1-1.26.61,4.44,4.44,0,0,1-2.41-.08Z" style="fill:#b0b0b0"/><path d="M398.46,179.88a2.58,2.58,0,0,1,.35-1.7c1.17-1.31,3.61-1.33,5.33,0a1.87,1.87,0,0,1,.4.3c0,.1-5.82,1.75-5.94,1.75S398.5,180,398.46,179.88Z" style="fill:none"/><path d="M412.08,174.66a1.91,1.91,0,0,1,.77-2,3.78,3.78,0,0,1,2.66-.62,5.34,5.34,0,0,1,2.4,1l.16.2-2.9.92c-1.61.51-2.93.92-3,.93a1.55,1.55,0,0,1-.13-.4Z" style="fill:none"/><path d="M425.78,167.15A2.24,2.24,0,0,1,426,166a6.58,6.58,0,0,1,1.35-.81c1.21-.51,1.23-.51,1.74-.51a5.6,5.6,0,0,1,2.38.88c.1.1-.51.3-2.73,1-1.57.41-2.87.82-2.9.82a.44.44,0,0,1-.1-.3Z" style="fill:none"/><path d="M453.19,153.11a1.82,1.82,0,0,1,.17-1.2,20.59,20.59,0,0,1,2.46-1.32,6,6,0,0,1,2.09.38,3.09,3.09,0,0,1,1.37.79c.1.1-.38.3-2.93.82-1.66.41-3,.73-3.05.73A.35.35,0,0,1,453.19,153.11Z" style="fill:none"/><path d="M440.25,159.32c-.15-.4,0-.5,1.87-1.52,1-.51,1.88-.92,2-.92a5.32,5.32,0,0,1,1.26.39c.1.1-.27.2-1.06.61-.64.21-1.79.72-2.56,1-1.3.51-1.43.51-1.47.41Z" style="fill:none"/><path d="M442.54,161.7a3.26,3.26,0,0,1-1.19-.79,37.47,37.47,0,0,1,4.78-1.94,10.63,10.63,0,0,1,.18,2.2s-.38.2-.84.41a2.82,2.82,0,0,1-1.25.41A5.16,5.16,0,0,1,442.54,161.7Z" style="fill:none"/><path d="M462,153.84s0-.1,0-.2a2.87,2.87,0,0,0-.17-1.1,4.65,4.65,0,0,0-1.94-2.38,5.65,5.65,0,0,0-1.29-.69l-.4-.2.55-.3c.48-.2.54-.2.59-.2s1,1,2.1,2.18,2,2.18,2,2.18a4.2,4.2,0,0,0-.64.31,4.15,4.15,0,0,0-.73.41H462Z" style="fill:none"/><path d="M482.16,178.86c-1.79-6.68-10.35-14.11-17.84-13.84-2.55.12-4.85,1.84-9.73,4.48-3.31,1.83-6.8,3.66-10.42,5.39-7.24,3.56-15,6.93-22.8,9.89a234.32,234.32,0,0,1-23.12,7.6,127.2,127.2,0,0,1-20.74,3.78,79.88,79.88,0,0,1-24.61-2.59A108.59,108.59,0,0,1,314.06,174L295.6,159.17l-61-58.86,58.28-39.89c2.84,4.27,7.2,10.24,12.54,17.09s11.67,14.3,18.41,21.84,13.93,14.78,21,21.11c12.57,12.09,27.92,19.25,44.57,19.51a71.45,71.45,0,0,0,19.93-3c12.6-3.61,24.6-9.41,40.71-11.65,17.37-2.75,32.35-.58,45,5.91a64.08,64.08,0,0,1,17.36,12.85c16.73,20.15,18.4,27.73,12.57,49.48" style="fill:#f3ae00;stroke:#c37b24;stroke-width:1.7999999523162842px"/><path d="M470.07,192.16c36.29,6,40.93,10.65,57.72,23l-2.7-21.57c-18.61-10.74-25.7-12.38-46.22-15.2Z" style="fill:#f3ae00;stroke:#c37b24;stroke-width:1.7999999523162842px"/><path d="M349.62,619.07c-22.23,21.48-72.28,70.2-104.39,58.78a20.09,20.09,0,0,1-5.64-4.15c-3-3.17-5-7.26-8.08-12-4,4.53-11.84,5.8-17.48,4.65a18.33,18.33,0,0,1-9-4.52c-4.91-5.46-7.19-13-4.62-19.15a14.36,14.36,0,0,1,6.09-6.55,14.12,14.12,0,0,1,17.61,2.75L164.92,537.18c-11.2,1.1-16.3-4.86-8.58-11.62-5.38-4.25-4.35-7.06.09-11.5-13.29-36.78-21.73-74.69-23.87-111.56-.63-58.18,9.86-110,34.35-158.35a238,238,0,0,1,28.68-44c-4.72-4.76-4.21-6.86-.88-9.89-.19-1.3-3.23-1.27-3-2.27a6.44,6.44,0,0,1,1.21-2.71c3.78-4.23,9.17-2.28,13.9-1.62l49-62.7" style="fill:none;stroke:#c37b24;stroke-width:1.7999999523162842px"/><path d="M272.32,114.38l-8.23,2.37c6.34,6.64,12.59,13.29,18.9,19.83s12.67,12.79,19.27,18.73a187.38,187.38,0,0,0,20.55,16.32A122.63,122.63,0,0,0,345.56,184c25.25,7.58,39.38,5.16,61.78-1.43,20.66-7.18,42.25-18.16,59-27.3l-5.13-6.35c-26.45,13.82-48.12,25.81-73.71,30.82-24,4.61-45.67-4.21-64.88-18.24S286.64,128.75,272.32,114.38Z" style="fill:none;stroke:#c37b24;stroke-width:1.7999999523162842px"/><path d="M296.19,159.76c-27.91,23.83-55.08,55.86-71.32,83.69-22.24,36.68-35.13,73.78-37.87,113.89a227.9,227.9,0,0,0,3.91,58.55c7.43,38,23.84,75.07,45.24,117.08l.67-.71L380.64,313.39,459.78,199c20.55,2.82,24.75,7.39,30.08,23.53m0,0c.3-.3-.56-.89.19.2m39.59,13.16c1.7-7.11,1.74-7.11-2.06-21.68" style="fill:none;stroke:#c37b24;stroke-width:1.7999999523162842px"/><path d="M470.8,191.85c-5.87,1.05-8.12,3.37-11.23,7.49" style="fill:none;stroke:#c37b24;stroke-width:1.7999999523162842px"/><path d="M529.72,235.53,401.62,622.92,348.32,619" style="fill:none;stroke:#c37b24;stroke-width:1.7999999523162842px"/><path d="M209.75,651.46a18.23,18.23,0,0,0,10,3c6.17-.75,10.11-4.79,8.12-9.77a26.18,26.18,0,0,0-3.94-6.26" style="fill:none;stroke:#c37b24;stroke-width:1.7999999523162842px"/><path d="M490.09,221.88,329.26,613.35" style="fill:none;stroke:#c37b24;stroke-width:3.299999952316284px"/><path d="M280.94,583.07,482.25,207.75" style="fill:#f3ae00;stroke:#c37b24;stroke-width:2.4000000953674316px"/><path d="M281.22,583.37l-44.74-49.9" style="fill:none;stroke:#c37b24;stroke-width:1.7999999523162842px"/><path d="M253.45,118.94c-17.17,21.54-34.54,42.58-50.28,63.71" style="fill:none;stroke:#c37b24;stroke-width:1.7999999523162842px"/><path d="M160.71,536.82c18.68,33.43,37.45,65.46,57,98.08" style="fill:none;stroke:#c37b24;stroke-width:1.7999999523162842px"/><path d="M155.21,526.54l11.09-4.09c17.83-6.15,12.11-23.72,12.91-39.91,3,23.34,10.35,33.21-3.9,48.14a40.27,40.27,0,0,1-10.2,6.46" style="fill:none;stroke:#c37b24;stroke-width:1.7999999523162842px"/><path d="M156.67,514a28.43,28.43,0,0,0,10-.27c11.1-3.28,8.14-20.56,7.25-29.24-.75-7.37-2.19-14.6-3.51-22.28a411.35,411.35,0,0,1-8.67-55.91,272.13,272.13,0,0,1,.54-54c2.25-22.2,5.67-38,10.74-52.89,4.26-13.53,9.79-25.08,15.44-36.25,1.41-2.82,2.83-5.52,4.24-8.35s2.83-5.52,4.18-8.35,2.7-5.71,4-8.66c7.78-18.75,9.65-33.26-5.83-38.44" style="fill:none;stroke:#c37b24;stroke-width:1.7999999523162842px"/><path d="M206.72,183.57c12.62,6.51,12.75,14.07,10.17,26.78A82,82,0,0,1,212.63,224c-1.78,4.39-3.86,8.84-6,13.17s-4.3,8.35-6.27,12.18c-12.62,22.79-22.92,46.31-28.16,69.6-15,59-2.66,112.18,7.23,165" style="fill:none;stroke:#c37b24;stroke-width:1.7999999523162842px"/><path d="M192,188.2c5.39,1.64,9.6,3.92,12.44,6.89,13,12.26,6.19,21.82,4.63,37.14" style="fill:none;stroke:#c37b24;stroke-width:1.7999999523162842px"/><polygon points="251.59 74.39 257.2 80.85 242.18 91.49 236.57 85.03 251.59 74.39" style="fill:#f3ae00;stroke:#c37b24;stroke-linecap:square;stroke-width:1.8043677806854248px"/><polygon points="276.33 57.54 282.03 64.1 267.47 74.42 261.76 67.85 276.33 57.54" style="fill:#f3ae00;stroke:#c37b24;stroke-linecap:square;stroke-width:1.8043677806854248px"/><path d="M132.77,396.58l28.34,1.57" style="fill:none;stroke:#c37b24;stroke-width:1.7999999523162842px"/><path d="M141.28,462.74l28.37-1.43" style="fill:none;stroke:#c37b24;stroke-width:1.7999999523162842px"/><path d="M142.81,466.16l27.93-1.55" style="fill:none;stroke:#c37b24;stroke-width:1.7999999523162842px"/><path d="M160.8,398.72l-25.68,23.21,32.21,23.72" style="fill:none;stroke:#c37b24;stroke-width:1.7999999523162842px"/><path d="M142.09,462.17l23.47-26" style="fill:none;stroke:#c37b24;stroke-width:1.7999999523162842px"/><path d="M138.74,451l24.77-27.21" style="fill:none;stroke:#c37b24;stroke-width:2px"/><path d="M169.06,457.13,136.6,434.6l25.68-23.71" style="fill:none;stroke:#c37b24;stroke-width:1.7999999523162842px"/><path d="M164.72,432.36l-31-22,15-12.75" style="fill:none;stroke:#c37b24;stroke-width:1.7999999523162842px"/><path d="M162.51,415.7,132.65,397" style="fill:none;stroke:#c37b24;stroke-width:1.7999999523162842px"/><path d="M137.57,444.9l18.77,16,10.75-15.4" style="fill:none;stroke:#c37b24;stroke-width:1.7999999523162842px"/><path d="M144.41,303.26l24.88,6.66" style="fill:none;stroke:#c37b24;stroke-width:1.7999999523162842px"/><path d="M143.32,307.27l24.75,6.79" style="fill:none;stroke:#c37b24;stroke-width:1.7999999523162842px"/><path d="M167.29,244.58l25.65,8.9" style="fill:none;stroke:#c37b24;stroke-width:1.7999999523162842px"/><path d="M147.6,302.73l27.11-10.36-18-24.65L177,259.87l15.77-6" style="fill:none;stroke:#c37b24;stroke-width:1.7999999523162842px"/><path d="M160.39,307.12l-12-16,30.8-10.39-12-16.89L161.7,256l18.76-6.78" style="fill:none;stroke:#c37b24;stroke-width:1.7999999523162842px"/><path d="M187.72,264.65l-34.78,12.61" style="fill:none;stroke:#c37b24;stroke-width:1.7999999523162842px"/><path d="M171.29,302.34l-18.35-25.46" style="fill:none;stroke:#c37b24;stroke-width:1.7999999523162842px"/><path d="M160,307.25,171.41,302" style="fill:none;stroke:#c37b24;stroke-width:1.5px"/><path d="M148,303l-2.65-3.1" style="fill:none;stroke:#c37b24;stroke-width:1.7999999523162842px"/><path d="M184.46,271l-17.79-26" style="fill:none;stroke:#c37b24;stroke-width:1.7999999523162842px"/><path d="M189.07,261.33,180.4,249.9" style="fill:none;stroke:#c37b24;stroke-width:1.7999999523162842px"/><path d="M139,323.43c16.87,5.73,26.77.89,28.36-10.43" style="fill:none;stroke:#c37b24;stroke-width:1.7999999523162842px"/><path d="M149.83,329.64c6.63.82,13-1,16.65-5" style="fill:none;stroke:#c37b24;stroke-width:1.7999999523162842px"/><path d="M140.27,323.79c25.7,8.09,17.91,53.71-6.59,55.23" style="fill:none;stroke:#c37b24;stroke-width:1.7999999523162842px"/><path d="M135.87,378.75c17.82.22,25.89,8.15,23.55,19.29" style="fill:none;stroke:#c37b24;stroke-width:1.7999999523162842px"/><path d="M143.85,375.68c6.82.13,14.17,4.38,17,9.16" style="fill:none;stroke:#c37b24;stroke-width:1.7999999523162842px"/><path d="M367.73,194.95c-14.2-1.19-29.79-6.62-43.31-15.1-5.29-3.31-6.56-4.27-18.55-13.88-9.23-7.4-11.33-9.34-39.49-36.53-16.36-15.79-29.74-28.82-29.74-28.94s50.69-35,55-37.85l1-.64L295,65.32c15.16,21.62,42.89,52.09,56.8,62.42s30.52,14.93,45.89,12.77c7.58-1.06,11.54-2.16,29.07-8.05,12.64-4.25,20.68-6,31.68-6.85,18.17-1.43,34.64,3.51,47.82,14.33a49.11,49.11,0,0,1,9.16,9.66C524,160.78,526.73,167,526.8,175.36a50.07,50.07,0,0,1-.5,7.06,74,74,0,0,1-2.07,9.19,27.88,27.88,0,0,1-3.84-1.92c-11.64-6.4-20.26-9.24-34.68-11.44l-2.59-.39-1.21-2.33a24.22,24.22,0,0,0-11.73-10.47,11.34,11.34,0,0,0-5.17-.91l-2.9,0L454.9,168c-23.33,12.58-48.75,22.17-68.18,25.7a96.06,96.06,0,0,1-19,1.2h0Zm21.82-9c.26-.42-1-.41-2.35,0-.77.25-.68.3.61.32A2.86,2.86,0,0,0,389.55,185.94Z" style="fill:none"/><path d="M401.28,431.62,293,570.21" style="fill:none;stroke:#f3ae00;stroke-width:1.7999999523162842px"/><path d="M374.35,419.6,333.77,588.66" style="fill:none;stroke:#f3ae00;stroke-width:1.7999999523162842px"/><path d="M408.92,413.07c-5.74,13.67-16.53,22.58-24.08,19.91s-9-15.92-3.28-29.59,16.53-22.58,24.08-19.91S414.66,399.4,408.92,413.07Z" style="fill:#c37b24;stroke:#f3ae00;stroke-linecap:square;stroke-width:1.2244787216186523px"/><path d="M384.09,433l-66,137.51" style="fill:none;stroke:#f3ae00;stroke-width:1.7999999523162842px"/><path d="M373.94,497l-36.4,34,1.54-48.91,37.14-32.7-2.7,48.24" style="fill:none;stroke:#f3ae00;stroke-width:1.7999999523162842px"/><path d="M406,412.13c-4.72,11.36-13.43,18.82-19.45,16.67s-7.08-13.1-2.36-24.45,13.43-18.82,19.45-16.67S410.76,400.77,406,412.13Z" style="fill:#c37b24;stroke:#f3ae00;stroke-linecap:square;stroke-width:1.5049102306365967px"/><path d="M388.79,402.47,403.58,409" style="fill:none;stroke:#f3ae00;stroke-width:1.7999999523162842px"/><path d="M417.87,359.6l-22.93,22.79c14.92-10.33,18.32-7.16,19.8,6.93Z" style="fill:none;stroke:#f3ae00;stroke-width:1.7999999523162842px"/><path d="M419.86,383.67l16.26-62.32-38.94,52.72" style="fill:none;stroke:#f3ae00;stroke-width:1.7999999523162842px"/><path d="M322,608.82c8.91-7,9.46-20,1.23-29s-22.12-10.59-31-3.56a18.4,18.4,0,0,0-6.42,9.69" style="fill:none;stroke:#f3ae00;stroke-linecap:square;stroke-width:1.401193380355835px"/><path d="M304.53,597.2l24.23-.71" style="fill:none;stroke:#f3ae00;stroke-width:2.4000000953674316px"/><path d="M324.28,581.74l-19.14,14.63" style="fill:none;stroke:#f3ae00;stroke-width:1.7999999523162842px"/><path d="M293.1,569.81c23.81-5.2,32.47,3.22,40.9,18" style="fill:none;stroke:#f3ae00;stroke-width:1.7999999523162842px"/><path d="M448.18,312.63a7.37,7.37,0,0,1-9.06,4.76,7,7,0,0,1-5-8.64,7.37,7.37,0,0,1,9.06-4.76A7,7,0,0,1,448.18,312.63Z" style="fill:#c37b24;stroke:#f3ae00;stroke-linecap:square;stroke-width:1.1994858980178833px"/><path d="M444.27,311.55a3.19,3.19,0,0,1-4,1.91,3,3,0,0,1-2.32-3.64,3.19,3.19,0,0,1,4-1.91A3,3,0,0,1,444.27,311.55Z" style="fill:#c37b24;stroke:#f3ae00;stroke-linecap:square;stroke-width:1.4770382642745972px"/><path d="M485.26,215,440,299.53" style="fill:none;stroke:#f3ae00;stroke-width:1.7999999523162842px"/><path d="M485.37,215.11l-34.16,88.24" style="fill:none;stroke:#f3ae00;stroke-width:1.7999999523162842px"/><path d="M483.15,219.94l-37.61,81.34" style="fill:none;stroke:#f3ae00;stroke-width:1.7999999523162842px"/><path d="M448.31,416.86c-1.11,3.7-5.42,5.77-9.62,4.62s-6.71-5.09-5.6-8.79,5.42-5.77,9.62-4.62S449.42,413.15,448.31,416.86Z" style="fill:#f3ae00;stroke:#c37b24;stroke-linecap:square;stroke-width:1.4681568145751953px"/><path d="M378.78,620.42c.26-4.76-4.66-9.21-11-9.94s-11.7,2.53-12,7.28a6.45,6.45,0,0,0,0,.83" style="fill:none;stroke:#c37b24;stroke-linecap:square;stroke-width:1.3163442611694336px"/><path d="M456.65,456.91,338.42,592.46" style="fill:none;stroke:#c37b24;stroke-width:1.7999999523162842px"/><path d="M480.86,244.59l-1.63,58.1" style="fill:none;stroke:#c37b24;stroke-width:2px"/><path d="M522.86,256.13,484,303.75" style="fill:none;stroke:#c37b24;stroke-width:1.7999999523162842px"/><path d="M511.86,257.82l-25.64,32.51,2.71-40.71c10.72,9.71,9.68,7.71,22.93,8.2Z" style="fill:none;stroke:#c37b24;stroke-width:1.7999999523162842px"/><path d="M478.6,326.39l5.75,46.27" style="fill:none;stroke:#c37b24;stroke-width:1.7999999523162842px"/><path d="M476.3,396.73l-6-62.17-47.14,50.09" style="fill:none;stroke:#c37b24;stroke-width:1.7999999523162842px"/><path d="M468.6,323l-35.17,36.65" style="fill:none;stroke:#c37b24;stroke-width:1.7999999523162842px"/><path d="M411,414.94l3.14,170.41" style="fill:none;stroke:#c37b24;stroke-width:1.7999999523162842px"/><path d="M386.85,584.45c-1.11,3.71-5.43,5.78-9.63,4.62s-6.72-5.1-5.61-8.81,5.43-5.78,9.63-4.62S388,580.75,386.85,584.45Z" style="fill:#f3ae00;stroke:#c37b24;stroke-linecap:square;stroke-width:1.501247763633728px"/><path d="M402,436.25l3.17,172.27" style="fill:none;stroke:#c37b24;stroke-width:1.7999999523162842px"/><path d="M463.85,434.78,348.18,567.24" style="fill:none;stroke:#c37b24;stroke-width:1.7999999523162842px"/><path d="M432.07,527c-2,6.82-9,10.9-15.52,9.11s-10.16-8.78-8.11-15.6,9-10.9,15.52-9.11S434.12,520.18,432.07,527Z" style="fill:#f3ae00;stroke:#c37b24;stroke-linecap:square;stroke-width:1.4770382642745972px"/><path d="M427.51,525.75a7.82,7.82,0,0,1-9.46,5.37,7.39,7.39,0,0,1-5-9.35,7.82,7.82,0,0,1,9.46-5.37A7.39,7.39,0,0,1,427.51,525.75Z" style="fill:#f3ae00;stroke:#c37b24;stroke-linecap:square;stroke-width:1.4770382642745972px"/><path d="M395.63,516.77c-2,6.82-9,10.9-15.52,9.11s-10.16-8.78-8.11-15.6,9-10.9,15.52-9.11S397.68,509.95,395.63,516.77Z" style="fill:#f3ae00;stroke:#c37b24;stroke-linecap:square;stroke-width:1.4770382642745972px"/><path d="M391.06,515.51a7.82,7.82,0,0,1-9.46,5.37,7.39,7.39,0,0,1-5-9.35,7.82,7.82,0,0,1,9.46-5.37A7.39,7.39,0,0,1,391.06,515.51Z" style="fill:#f3ae00;stroke:#c37b24;stroke-linecap:square;stroke-width:1.4770382642745972px"/><path d="M529.62,234.41c-2.74,9.14-13.87,14.11-24.86,11.1s-17.67-12.87-14.93-22,13.87-14.11,24.86-11.1S532.36,225.27,529.62,234.41Z" style="fill:#f3ae00;stroke:#c37b24;stroke-linecap:square;stroke-width:1.3717561960220337px"/><path d="M516.09,230.82c-.88,2.93-4.36,4.55-7.77,3.61s-5.47-4.07-4.59-7,4.36-4.55,7.77-3.61S517,227.89,516.09,230.82Z" style="fill:#f3ae00;stroke:#c37b24;stroke-linecap:square;stroke-width:1.4368385076522827px"/><path d="M513,241.4c-.88,2.93-4.36,4.55-7.77,3.61s-5.47-4.07-4.59-7,4.36-4.55,7.77-3.61S513.87,238.47,513,241.4Z" style="fill:#f3ae00;stroke:#c37b24;stroke-linecap:square;stroke-width:1.0776288509368896px"/><path d="M528.41,234.17c-.88,2.93-4.36,4.55-7.77,3.61s-5.47-4.07-4.59-7,4.36-4.55,7.77-3.61S529.29,231.24,528.41,234.17Z" style="fill:#f3ae00;stroke:#c37b24;stroke-linecap:square;stroke-width:1.0776288509368896px"/><path d="M503.31,227.34c-.88,2.93-4.36,4.55-7.77,3.61s-5.47-4.07-4.59-7,4.36-4.55,7.77-3.61S504.19,224.41,503.31,227.34Z" style="fill:#f3ae00;stroke:#c37b24;stroke-linecap:square;stroke-width:1.0776288509368896px"/><path d="M519.27,220c-.88,2.93-4.36,4.55-7.77,3.61s-5.47-4.07-4.59-7,4.36-4.55,7.77-3.61S520.15,217.08,519.27,220Z" style="fill:#f3ae00;stroke:#c37b24;stroke-linecap:square;stroke-width:1.0776288509368896px"/><path d="M414.59,521c-2,6.82-9,10.9-15.52,9.11s-10.16-8.78-8.11-15.6,9-10.9,15.52-9.11S416.63,514.19,414.59,521Z" style="fill:#f3ae00;stroke:#c37b24;stroke-linecap:square;stroke-width:1.4770382642745972px"/><path d="M410,519.77a7.82,7.82,0,0,1-9.46,5.37,7.39,7.39,0,0,1-5-9.35,7.82,7.82,0,0,1,9.46-5.37A7.39,7.39,0,0,1,410,519.77Z" style="fill:#f3ae00;stroke:#c37b24;stroke-linecap:square;stroke-width:1.4770382642745972px"/><path d="M382.33,603.31c-.84,4.68-6,7.5-11.62,6.31s-9.42-6-8.58-10.63,6-7.5,11.62-6.31S383.17,598.64,382.33,603.31Z" style="fill:#f3ae00;stroke:#c37b24;stroke-linecap:square;stroke-width:1.3814208507537842px"/><path d="M400.36,621.9c.29-4.65-4.25-9-10.14-9.62s-10.91,2.58-11.2,7.24a6.82,6.82,0,0,0,0,.81" style="fill:none;stroke:#c37b24;stroke-linecap:square;stroke-width:1.3681193590164185px"/><path d="M354.12,618c1.14-4.94-3-10.17-9.17-11.68s-12.16,1.27-13.3,6.2c0,.19-.08.38-.11.58" style="fill:none;stroke:#c37b24;stroke-linecap:square;stroke-width:1.2703301906585693px"/><path d="M334.34,601.15c21.37-18.88,60.13-13.11,69.32,16" style="fill:none;stroke:#c37b24;stroke-width:1.8000155687332153px"/><path d="M417.1,399.49c7.92-8.87,14.57-10,21.15-10.58,4.17-21.33,32.51-10.68,22.12,7.61,5.4,4,8.89,10.67,10,18.86" style="fill:none;stroke:#c37b24;stroke-width:1.7999999523162842px"/><path d="M412.11,411.43c-.07,7.1,1.56,14.18,9.18,21.22-11.41,17.79,18.81,29.73,22.18,7.81,10.53-.19,16.43-4.21,22.17-10.86" style="fill:none;stroke:#c37b24;stroke-width:1.7999999523162842px"/><path d="M464.13,421.17c-3.47,11.57-16.58,18.12-29.27,14.64s-20.18-15.69-16.71-27.26,16.58-18.12,29.27-14.64S467.6,409.6,464.13,421.17Z" style="fill:none;stroke:#c37b24;stroke-linecap:square;stroke-width:1.4278559684753418px"/><path d="M434.64,412.45c-1.11,3.7-5.42,5.77-9.62,4.62s-6.71-5.09-5.6-8.79,5.42-5.77,9.62-4.62S435.75,408.75,434.64,412.45Z" style="fill:#f3ae00;stroke:#c37b24;stroke-linecap:square;stroke-width:1.4681568145751953px"/><path d="M452.65,404.13c-1.11,3.7-5.42,5.77-9.62,4.62s-6.71-5.09-5.6-8.79,5.42-5.77,9.62-4.62S453.76,400.43,452.65,404.13Z" style="fill:#f3ae00;stroke:#c37b24;stroke-linecap:square;stroke-width:1.4681568145751953px"/><path d="M462.79,421.63c-1.11,3.7-5.42,5.77-9.62,4.62s-6.71-5.09-5.6-8.79,5.42-5.77,9.62-4.62S463.9,417.93,462.79,421.63Z" style="fill:#f3ae00;stroke:#c37b24;stroke-linecap:square;stroke-width:1.4681568145751953px"/><path d="M443.51,429.48c-1.11,3.7-5.42,5.77-9.62,4.62s-6.71-5.09-5.6-8.79,5.42-5.77,9.62-4.62S444.62,425.78,443.51,429.48Z" style="fill:#f3ae00;stroke:#c37b24;stroke-linecap:square;stroke-width:1.4681568145751953px"/><path d="M457,388.75a5.83,5.83,0,0,0-3.21-7.71,6.08,6.08,0,0,0-7.9,3.14,5.83,5.83,0,0,0,3.21,7.71A6.08,6.08,0,0,0,457,388.75Z" style="fill:#f3ae00;stroke:#c37b24;stroke-linecap:square;stroke-width:1.83156156539917px"/><path d="M435.6,445.32a5.83,5.83,0,0,0-3.21-7.71,6.08,6.08,0,0,0-7.9,3.14,5.83,5.83,0,0,0,3.21,7.71A6.08,6.08,0,0,0,435.6,445.32Z" style="fill:#f3ae00;stroke:#c37b24;stroke-linecap:square;stroke-width:1.83156156539917px"/><path d="M505.1,252a4,4,0,1,1-2.78-4.89A4,4,0,0,1,505.1,252Z" style="fill:#f3ae00;stroke:#c37b24;stroke-linecap:square;stroke-width:1.6155513525009155px"/><path d="M498.27,321.6a5.74,5.74,0,0,1-7,3.81,5.46,5.46,0,0,1-3.86-6.82,5.74,5.74,0,0,1,7-3.81A5.46,5.46,0,0,1,498.27,321.6Z" style="fill:#f3ae00;stroke:#c37b24;stroke-linecap:square;stroke-width:1.1465240716934204px"/><path d="M458.63,297.27c7.06-1.66,12.1,1.5,14.86,6,5.81-2.15,11.3-.3,14.81,6.07,7.73-1.87,11.84-.16,15.34,6.11" style="fill:none;stroke:#c37b24;stroke-width:1.7999999523162842px"/><path d="M452.13,314.32c4.1,6,10,6.81,15.08,5.37,2.93,5.37,8.27,7.53,15.19,5.07,4.56,6.46,9,7.82,15.79,5.46" style="fill:none;stroke:#c37b24;stroke-width:1.7999999523162842px"/><path d="M483.05,315.4a5.74,5.74,0,0,1-7,3.81,5.46,5.46,0,0,1-3.86-6.82,5.74,5.74,0,0,1,7-3.81A5.46,5.46,0,0,1,483.05,315.4Z" style="fill:#f3ae00;stroke:#c37b24;stroke-linecap:square;stroke-width:1.1465240716934204px"/><path d="M468.71,310.3a5.74,5.74,0,0,1-7,3.81,5.46,5.46,0,0,1-3.86-6.82,5.74,5.74,0,0,1,7-3.81A5.46,5.46,0,0,1,468.71,310.3Z" style="fill:#f3ae00;stroke:#c37b24;stroke-linecap:square;stroke-width:1.1465240716934204px"/><path d="M273.95,172.67c-3.12,10.39-15.19,16.19-27,13s-18.8-14.27-15.69-24.66,15.19-16.19,27-13,18.8,14.27,15.69,24.66Z" style="fill:#f3ae00;stroke:#c37b24;stroke-linecap:square;stroke-width:1.4725004434585571px"/><path d="M267.88,171c-2.14,7.14-10.71,11-19.15,8.73s-13.54-10-11.4-17.11,10.71-11,19.15-8.73,13.54,10,11.4,17.11Z" style="fill:#f3ae00;stroke:#c37b24;stroke-linecap:square;stroke-width:2.0994248390197754px"/><path d="M228.05,556.24c-3.12,10.39-15.19,16.18-27,13s-18.8-14.27-15.69-24.66,15.19-16.18,27-13,18.8,14.27,15.69,24.66Z" style="fill:#f3ae00;stroke:#c37b24;stroke-linecap:square;stroke-width:1.4725236892700195px"/><path d="M222,554.62c-2.14,7.14-10.71,11-19.15,8.73s-13.54-10-11.4-17.11,10.71-11,19.15-8.73,13.54,10,11.4,17.11Z" style="fill:#f3ae00;stroke:#c37b24;stroke-linecap:square;stroke-width:2.0994579792022705px"/><path d="M525.62,189.14c-16.18-5.73-20-16.14-17.31-28-10.54-4.1-16.16-10.86-17.73-18.65-15,3.94-26.6-3.77-29.55-11.74l-12.1,3.42" style="fill:none;stroke:#c37b24;stroke-width:1.7999999523162842px"/><path d="M303.69,93.21a4.8,4.8,0,0,1-5.92,3.21,4.65,4.65,0,0,1-3.28-5.78,4.8,4.8,0,0,1,5.92-3.21A4.65,4.65,0,0,1,303.69,93.21Z" style="fill:#f3ae00;stroke:#c37b24;stroke-linecap:square;stroke-width:1.131862998008728px"/><path d="M482,133.74a4.5,4.5,0,0,1-5.55,3,4.36,4.36,0,0,1-3.07-5.41,4.5,4.5,0,0,1,5.55-3A4.36,4.36,0,0,1,482,133.74Z" style="fill:#f3ae00;stroke:#c37b24;stroke-linecap:square;stroke-width:1.448784589767456px"/><path d="M287,87.72c4.59,10.08,10.45,15.41,22.79,11l13.31,13.57c-7.82,14.44,7,20.12,14.39,15.56l18.69,13.71c-3,12.71,10.27,16.72,17.14,8l19.5-1.29c7.56,7.12,19.37,6.33,22-4.69" style="fill:none;stroke:#c37b24;stroke-width:1.7999999523162842px"/><path d="M414.2,144.49l20.56-8.8c9.9,2.73,11.78,3.09,15-2.25" style="fill:none;stroke:#c37b24;stroke-width:1.7999999523162842px"/><path d="M445.9,137.53a26.13,26.13,0,0,0-1.83,12.89L421.6,161.48c-12.32-7.2-20.78-3.2-23.92,9.7l-29.73,3.57c-5.3-13-16.25-14-26.46-8.4l-22.33-15.49c3.59-11-4.42-19.77-18.4-16.34L286.4,121.47c4.09-11.91,1.49-16.32-11.26-22.52l12.41-11.48" style="fill:none;stroke:#c37b24;stroke-width:1.7999999523162842px"/><path d="M285.86,94.85c5.88,7.32,10.6,10.72,22.39,8.62l9.65,9.73c-5.45,13.54,6.14,23.13,18.49,19.71l14.91,10.87c.14,16.31,17.53,17.72,23.78,10.29L391,152.93a25.29,25.29,0,0,0,10.41,4.1c-4.35,3.41-6.3,8.43-7.22,10.56l-23.61,2.7c-7.22-10.31-14.56-13.37-29-8.87l-17.36-12c.79-16.81-10.68-20.9-22-19.43l-11-10c3.65-12.15-3.28-18.28-9.31-21.6Z" style="fill:#f3ae00;stroke:#c37b24;stroke-width:1.7999999523162842px"/><path d="M413.66,154.11a22.61,22.61,0,0,0,4.63-6.66l16.38-7.14c1,.18,2.19.61,5.51,1.08a40.93,40.93,0,0,0-1.19,6.82l-17.37,8.65A26.13,26.13,0,0,0,413.66,154.11Z" style="fill:#f3ae00;stroke:#c37b24;stroke-width:1.5px"/><path d="M461.73,123.9c4.71,17.14,18.79,18,31.26,14.73,1.46,10.3,8,17.74,19.87,20.2-6.08,12.24,1.9,24.16,13.36,26.75" style="fill:none;stroke:#c37b24;stroke-width:1.7999999523162842px"/><path d="M509.56,148.63a4.5,4.5,0,0,1-5.55,3,4.36,4.36,0,0,1-3.07-5.41,4.5,4.5,0,0,1,5.55-3A4.36,4.36,0,0,1,509.56,148.63Z" style="fill:#f3ae00;stroke:#c37b24;stroke-linecap:square;stroke-width:1.448784589767456px"/><path d="M523.65,172.63a4.5,4.5,0,0,1-5.55,3,4.36,4.36,0,0,1-3.07-5.41,4.5,4.5,0,0,1,5.55-3A4.36,4.36,0,0,1,523.65,172.63Z" style="fill:#f3ae00;stroke:#c37b24;stroke-linecap:square;stroke-width:1.448784589767456px"/><path d="M284,111.88a4.8,4.8,0,0,1-5.92,3.21,4.65,4.65,0,0,1-3.28-5.78,4.8,4.8,0,0,1,5.92-3.21A4.65,4.65,0,0,1,284,111.88Z" style="fill:#f3ae00;stroke:#c37b24;stroke-linecap:square;stroke-width:1.131862998008728px"/><path d="M334,122.51a4.8,4.8,0,0,1-5.92,3.21,4.65,4.65,0,0,1-3.28-5.78,4.8,4.8,0,0,1,5.92-3.21A4.65,4.65,0,0,1,334,122.51Z" style="fill:#f3ae00;stroke:#c37b24;stroke-linecap:square;stroke-width:1.131862998008728px"/><path d="M315.5,143.66a4.8,4.8,0,0,1-5.92,3.21,4.65,4.65,0,0,1-3.28-5.78,4.8,4.8,0,0,1,5.92-3.21A4.65,4.65,0,0,1,315.5,143.66Z" style="fill:#f3ae00;stroke:#c37b24;stroke-linecap:square;stroke-width:1.131862998008728px"/><path d="M368.81,147.83a4.8,4.8,0,0,1-5.92,3.21,4.65,4.65,0,0,1-3.28-5.78,4.8,4.8,0,0,1,5.92-3.21A4.65,4.65,0,0,1,368.81,147.83Z" style="fill:#f3ae00;stroke:#c37b24;stroke-linecap:square;stroke-width:1.131862998008728px"/><path d="M359.83,172.09a4.8,4.8,0,0,1-5.92,3.21,4.65,4.65,0,0,1-3.28-5.78,4.8,4.8,0,0,1,5.92-3.21A4.65,4.65,0,0,1,359.83,172.09Z" style="fill:#f3ae00;stroke:#c37b24;stroke-linecap:square;stroke-width:1.131862998008728px"/><path d="M409.06,146.92a4.8,4.8,0,0,1-5.92,3.21,4.65,4.65,0,0,1-3.28-5.78,4.8,4.8,0,0,1,5.92-3.21A4.65,4.65,0,0,1,409.06,146.92Z" style="fill:#f3ae00;stroke:#c37b24;stroke-linecap:square;stroke-width:1.131862998008728px"/><path d="M457.18,144.26a4.8,4.8,0,0,1-5.92,3.21,4.65,4.65,0,0,1-3.28-5.78,4.8,4.8,0,0,1,5.92-3.21A4.65,4.65,0,0,1,457.18,144.26Z" style="fill:#f3ae00;stroke:#c37b24;stroke-linecap:square;stroke-width:1.131862998008728px"/><path d="M414.49,166.68a4.8,4.8,0,0,1-5.92,3.21,4.65,4.65,0,0,1-3.28-5.78,4.8,4.8,0,0,1,5.92-3.21A4.65,4.65,0,0,1,414.49,166.68Z" style="fill:#f3ae00;stroke:#c37b24;stroke-linecap:square;stroke-width:1.131862998008728px"/><path d="M276.94,505.43l-37.79,30.71" style="fill:#fc0;stroke:#c37b24;stroke-width:1.7999999523162842px"/><path d="M239.08,536.14l24.8,27.78C274.37,547.83,256.26,530.49,239.08,536.14Z" style="fill:#f3ae00;stroke:#c37b24;stroke-width:1.7999999523162842px"/><path d="M278,521.43l-16.84,19.42" style="fill:#fc0;stroke:#c37b24;stroke-width:1.7999999523162842px"/><path d="M274.73,554.13l-7.37,13.26" style="fill:#fc0;stroke:#c37b24;stroke-width:1.7999999523162842px"/><path d="M242.39,540l18.28,20.54C268.45,548.68,255.09,535.7,242.39,540Z" style="fill:#f3ae00;stroke:#c37b24;stroke-width:1.7999999523162842px"/><path d="M277.58,123.69l4.58,427.73-5.35,2.39-4.67-432.51Z" style="fill:#fff"/><path d="M292.42,139l5.06,383.91-5.35,2.16L287,136.9Z" style="fill:#fff"/><path d="M308.33,152.94l3.56,344.6-5.36,1.92L302.89,151Z" style="fill:#fff"/><path d="M324,165.85l3.14,304.91-5.36,1.69-3.22-308.31Z" style="fill:#fff"/><path d="M337.38,174l1.55,272-5.37,1.47-1.61-275Z" style="fill:#fff"/><path d="M459.47,156.23l2.39,68-5.36.32L454,155.79Z" style="fill:#fff"/><path d="M446.84,162.85l2.39,82.24-5.36.38-2.47-83.16Z" style="fill:#fff"/><path d="M432.61,169.13l3.56,102.67-5.36.57-3.65-103.82Z" style="fill:#fff"/><path d="M418.47,174.79,422,296.19l-5.36.68L413,174.11Z" style="fill:#fff"/><path d="M404.06,179.94l4.59,139.59-5.35.82L398.62,179.2Z" style="fill:#fff"/><path d="M390.93,183.61l3.56,162.34-5.36.9L385.49,182.7Z" style="fill:#fff"/><path d="M377.54,185.5l3.56,185.81-5.36,1L372.1,184.47Z" style="fill:#fff"/><path d="M364.41,184.13,368,395.66l-5.36,1.18L359,183Z" style="fill:#fff"/><path d="M351,181.15l3.56,241.74-5.36,1.35-3.65-244.44Z" style="fill:#fff"/><path d="M294.25,139.56a4.47,4.47,0,0,1-5.47,3,4.23,4.23,0,0,1-3-5.29,4.47,4.47,0,0,1,5.47-3A4.23,4.23,0,0,1,294.25,139.56Z" style="fill:#f3ae00;stroke:#c37b24;stroke-linecap:square;stroke-width:1.4770382642745972px"/><path d="M309.76,154a4.47,4.47,0,0,1-5.47,3,4.23,4.23,0,0,1-3-5.29,4.47,4.47,0,0,1,5.47-3A4.23,4.23,0,0,1,309.76,154Z" style="fill:#f3ae00;stroke:#c37b24;stroke-linecap:square;stroke-width:1.4770382642745972px"/><path d="M325.18,166.6a4.47,4.47,0,0,1-5.47,3,4.23,4.23,0,0,1-3-5.29,4.47,4.47,0,0,1,5.47-3A4.23,4.23,0,0,1,325.18,166.6Z" style="fill:#f3ae00;stroke:#c37b24;stroke-linecap:square;stroke-width:1.4770382642745972px"/><path d="M338.7,175.17a4.47,4.47,0,0,1-5.47,3,4.23,4.23,0,0,1-3-5.29,4.47,4.47,0,0,1,5.47-3A4.23,4.23,0,0,1,338.7,175.17Z" style="fill:#f3ae00;stroke:#c37b24;stroke-linecap:square;stroke-width:1.4770382642745972px"/><path d="M352.51,181.49a4.47,4.47,0,0,1-5.47,3,4.23,4.23,0,0,1-3-5.29,4.47,4.47,0,0,1,5.47-3A4.23,4.23,0,0,1,352.51,181.49Z" style="fill:#f3ae00;stroke:#c37b24;stroke-linecap:square;stroke-width:1.4770382642745972px"/><path d="M365.61,185.18a4.47,4.47,0,0,1-5.47,3,4.23,4.23,0,0,1-3-5.29,4.47,4.47,0,0,1,5.47-3A4.23,4.23,0,0,1,365.61,185.18Z" style="fill:#f3ae00;stroke:#c37b24;stroke-linecap:square;stroke-width:1.4770382642745972px"/><path d="M378.74,186.2a4.47,4.47,0,0,1-5.47,3,4.23,4.23,0,0,1-3-5.29,4.47,4.47,0,0,1,5.47-3A4.23,4.23,0,0,1,378.74,186.2Z" style="fill:#f3ae00;stroke:#c37b24;stroke-linecap:square;stroke-width:1.4770382642745972px"/><path d="M392.3,184.89a4.47,4.47,0,0,1-5.47,3,4.23,4.23,0,0,1-3-5.29,4.47,4.47,0,0,1,5.47-3A4.23,4.23,0,0,1,392.3,184.89Z" style="fill:#f3ae00;stroke:#c37b24;stroke-linecap:square;stroke-width:1.4770382642745972px"/><path d="M406,181.46a4.47,4.47,0,0,1-5.47,3,4.23,4.23,0,0,1-3-5.29,4.47,4.47,0,0,1,5.47-3A4.23,4.23,0,0,1,406,181.46Z" style="fill:#f3ae00;stroke:#c37b24;stroke-linecap:square;stroke-width:1.4770382642745972px"/><path d="M419.55,176.79a4.47,4.47,0,0,1-5.47,3,4.23,4.23,0,0,1-3-5.29,4.47,4.47,0,0,1,5.47-3A4.23,4.23,0,0,1,419.55,176.79Z" style="fill:#f3ae00;stroke:#c37b24;stroke-linecap:square;stroke-width:1.4770382642745972px"/><path d="M433.88,170.73a4.47,4.47,0,0,1-5.47,3,4.23,4.23,0,0,1-3-5.29,4.47,4.47,0,0,1,5.47-3A4.23,4.23,0,0,1,433.88,170.73Z" style="fill:#f3ae00;stroke:#c37b24;stroke-linecap:square;stroke-width:1.4770382642745972px"/><path d="M447.76,163.8a4.47,4.47,0,0,1-5.47,3,4.23,4.23,0,0,1-3-5.29,4.47,4.47,0,0,1,5.47-3A4.23,4.23,0,0,1,447.76,163.8Z" style="fill:#f3ae00;stroke:#c37b24;stroke-linecap:square;stroke-width:1.4770382642745972px"/><path d="M460.46,157.25a4.47,4.47,0,0,1-5.47,3,4.23,4.23,0,0,1-3-5.29,4.47,4.47,0,0,1,5.47-3A4.23,4.23,0,0,1,460.46,157.25Z" style="fill:#f3ae00;stroke:#c37b24;stroke-linecap:square;stroke-width:1.4770382642745972px"/><path d="M278.61,123.33a4.47,4.47,0,0,1-5.47,3,4.23,4.23,0,0,1-3-5.29,4.47,4.47,0,0,1,5.47-3A4.23,4.23,0,0,1,278.61,123.33Z" style="fill:#f3ae00;stroke:#c37b24;stroke-linecap:square;stroke-width:1.4770382642745972px"/><path d="M299,525.1a4.47,4.47,0,0,1-5.47,3,4.23,4.23,0,0,1-3-5.29,4.47,4.47,0,0,1,5.47-3A4.23,4.23,0,0,1,299,525.1Z" style="fill:#f3ae00;stroke:#c37b24;stroke-linecap:square;stroke-width:1.4770382642745972px"/><path d="M313.92,499.41a4.47,4.47,0,0,1-5.47,3,4.23,4.23,0,0,1-3-5.29,4.47,4.47,0,0,1,5.47-3A4.23,4.23,0,0,1,313.92,499.41Z" style="fill:#f3ae00;stroke:#c37b24;stroke-linecap:square;stroke-width:1.4770382642745972px"/><path d="M328.44,472a4.47,4.47,0,0,1-5.47,3,4.23,4.23,0,0,1-3-5.29,4.47,4.47,0,0,1,5.47-3A4.23,4.23,0,0,1,328.44,472Z" style="fill:#f3ae00;stroke:#c37b24;stroke-linecap:square;stroke-width:1.4770382642745972px"/><path d="M341.54,447.5a4.47,4.47,0,0,1-5.47,3,4.23,4.23,0,0,1-3-5.29,4.47,4.47,0,0,1,5.47-3A4.23,4.23,0,0,1,341.54,447.5Z" style="fill:#f3ae00;stroke:#c37b24;stroke-linecap:square;stroke-width:1.4770382642745972px"/><path d="M355.91,423.83a4.47,4.47,0,0,1-5.47,3,4.23,4.23,0,0,1-3-5.29,4.47,4.47,0,0,1,5.47-3A4.23,4.23,0,0,1,355.91,423.83Z" style="fill:#f3ae00;stroke:#c37b24;stroke-linecap:square;stroke-width:1.4770382642745972px"/><path d="M370.62,397.27a4.47,4.47,0,0,1-5.47,3,4.23,4.23,0,0,1-3-5.29,4.47,4.47,0,0,1,5.47-3A4.23,4.23,0,0,1,370.62,397.27Z" style="fill:#f3ae00;stroke:#c37b24;stroke-linecap:square;stroke-width:1.4770382642745972px"/><path d="M383.48,373.6a4.47,4.47,0,0,1-5.47,3,4.23,4.23,0,0,1-3-5.29,4.47,4.47,0,0,1,5.47-3A4.23,4.23,0,0,1,383.48,373.6Z" style="fill:#f3ae00;stroke:#c37b24;stroke-linecap:square;stroke-width:1.4770382642745972px"/><path d="M396.76,347.06a4.47,4.47,0,0,1-5.47,3,4.23,4.23,0,0,1-3-5.29,4.47,4.47,0,0,1,5.47-3A4.23,4.23,0,0,1,396.76,347.06Z" style="fill:#f3ae00;stroke:#c37b24;stroke-linecap:square;stroke-width:1.4770382642745972px"/><path d="M411.17,321.69a4.47,4.47,0,0,1-5.47,3,4.23,4.23,0,0,1-3-5.29,4.47,4.47,0,0,1,5.47-3A4.23,4.23,0,0,1,411.17,321.69Z" style="fill:#f3ae00;stroke:#c37b24;stroke-linecap:square;stroke-width:1.4770382642745972px"/><path d="M424,298a4.47,4.47,0,0,1-5.47,3,4.23,4.23,0,0,1-3-5.29,4.47,4.47,0,0,1,5.47-3A4.23,4.23,0,0,1,424,298Z" style="fill:#f3ae00;stroke:#c37b24;stroke-linecap:square;stroke-width:1.4770382642745972px"/><path d="M438.07,272.1a4.47,4.47,0,0,1-5.47,3,4.23,4.23,0,0,1-3-5.29,4.47,4.47,0,0,1,5.47-3A4.23,4.23,0,0,1,438.07,272.1Z" style="fill:#f3ae00;stroke:#c37b24;stroke-linecap:square;stroke-width:1.4770382642745972px"/><path d="M451.59,244.8a4.47,4.47,0,0,1-5.47,3,4.23,4.23,0,0,1-3-5.29,4.47,4.47,0,0,1,5.47-3A4.23,4.23,0,0,1,451.59,244.8Z" style="fill:#f3ae00;stroke:#c37b24;stroke-linecap:square;stroke-width:1.4770382642745972px"/><path d="M463.54,224.27a4.47,4.47,0,0,1-5.47,3,4.23,4.23,0,0,1-3-5.29,4.47,4.47,0,0,1,5.47-3A4.23,4.23,0,0,1,463.54,224.27Z" style="fill:#f3ae00;stroke:#c37b24;stroke-linecap:square;stroke-width:1.4770382642745972px"/><path d="M283.31,554.1a4.47,4.47,0,0,1-5.47,3,4.23,4.23,0,0,1-3-5.29,4.47,4.47,0,0,1,5.47-3A4.23,4.23,0,0,1,283.31,554.1Z" style="fill:#f3ae00;stroke:#c37b24;stroke-linecap:square;stroke-width:1.4770382642745972px"/><path d="M275.48,554.45l8-2.89H283" style="fill:#f3ae00;stroke:#c37b24;stroke-width:1.7999999523162842px"/><path d="M291.14,525.5l7.52-2.76h-.54" style="fill:#806600;stroke:#c37b24;stroke-width:1.7999999523162842px"/><path d="M306.08,499.78,313.6,497h-.54" style="fill:#806600;stroke:#c37b24;stroke-width:1.7999999523162842px"/><path d="M320.7,472.26l7.52-2.76h-.54" style="fill:#806600;stroke:#c37b24;stroke-width:1.7999999523162842px"/><path d="M333.83,447.66l7.52-2.76h-.54" style="fill:#806600;stroke:#c37b24;stroke-width:1.7999999523162842px"/><path d="M348.18,424l7.52-2.76h-.54" style="fill:#806600;stroke:#c37b24;stroke-width:1.7999999523162842px"/><path d="M362.82,397.62l7.52-2.76h-.54" style="fill:#806600;stroke:#c37b24;stroke-width:1.7999999523162842px"/><path d="M375.71,373.92l7.52-2.76h-.54" style="fill:#806600;stroke:#c37b24;stroke-width:1.7999999523162842px"/><path d="M388.91,347.31l7.52-2.76h-.54" style="fill:#f3ae00;stroke:#c37b24;stroke-width:1.7999999523162842px"/><path d="M403.59,321.91l7.63-2.78h-.54" style="fill:#806600;stroke:#c37b24;stroke-width:1.7999999523162842px"/><path d="M416.23,298.39l7.52-2.76h-.54" style="fill:#f3ae00;stroke:#c37b24;stroke-width:1.7999999523162842px"/><path d="M430.34,272.38l7.52-2.76h-.54" style="fill:#806600;stroke:#c37b24;stroke-width:1.7999999523162842px"/><path d="M443.28,245.37l7.52-2.76h-.54" style="fill:#806600;stroke:#c37b24;stroke-width:1.7999999523162842px"/><path d="M455.31,224.78l7.52-2.76h-.54" style="fill:#806600;stroke:#c37b24;stroke-width:1.7999999523162842px"/><path d="M286.16,87.95l1.24-1.2.72,1.78Z" style="fill:#c37b24;stroke:#c37b24;stroke-width:0.5px"/><path d="M337.24,594a51.12,51.12,0,0,1,25-7.65c3-25,39.39-16.83,29.57,8.13,7.75,5.55,11.16,10.3,14,16.76" style="fill:none;stroke:#c37b24;stroke-width:1.8000155687332153px"/><path d="M388.2,423.09l13.7-30.33" style="fill:none;stroke:#f3ae00;stroke-width:1.7999999523162842px"/><path d="M304.52,597.1l-11.13-22.68" style="fill:none;stroke:#f3ae00;stroke-width:1.7999999523162842px"/><path d="M308.56,571.79l-4,25.41" style="fill:none;stroke:#f3ae00;stroke-width:1.7999999523162842px"/><path d="M404.06,501.41l.06,2.9c.9,0,5.28.35,7.62.73L411.53,493Z" style="fill:#f3ae00"/><path d="M348.79,619,329,613.45l-47.72-29.88c-19,21.06-55.84,69.26-38,86.9,4.36,3.46,10.34,4.81,17.85,3.75,9.58-1.58,20.54-6.77,31.46-13.67a292.2,292.2,0,0,0,31.34-23.06c9.49-7.78,17.57-15,22.84-19.59" style="fill:none;stroke:#c37b24;stroke-width:1.7999999523162842px"/><path d="M185.16,535.49l20.07-42.93L180.47,469l12.63-29.6-22.16-22,13.7-27.85-16-28.66,18-23.37-8-32.19,22-17.94" style="fill:none;stroke:#c37b24;stroke-linecap:square;stroke-width:1.4725004434585571px"/><path d="M200.32,288.08,199,257.24l25-18L222.55,209,257,190.35c-13.14.6-21.43-3.38-28.06-13.82l8.19,39.8L211.81,233l-.75,30.48-24,18.3L193,309.45,171.4,335.26l12.75,26.11-15.58,29.42,20.1,24.66" style="fill:none;stroke:#c37b24;stroke-linecap:square;stroke-width:1.4725004434585571px"/><path d="M188.61,414.5l-13.45,28.27,23.57,22-12.62,31.6,33.13,32.77c-11.22-5.38-27.72-2.24-34.37,6.37" style="fill:#f3ae00;stroke:#c37b24;stroke-linecap:square;stroke-width:1.4725004434585571px"/><path d="M138.72,326.62c22.11,6.72,15.76,47.54-6,49.32" style="fill:none;stroke:#c37b24;stroke-width:1.7999999523162842px"/></svg>