<svg xmlns="http://www.w3.org/2000/svg" viewBox="0 0 219 271"><title>Jersey</title><path d="M3,3.23V163.12c0,45.67,57.44,105,106.29,105s106.29-59.31,106.29-105V3.23Z" style="fill:#d1081d;stroke:#f7d917;stroke-linecap:square;stroke-width:4px"/><path d="M193.63,131.11a25.54,25.54,0,0,0,1,6.84,14.16,14.16,0,0,1,.49,2.2,7.47,7.47,0,0,0,1.14-3.66c0-2-.33-4.64-.33-4.64" style="fill:#0139ab;stroke:#000;stroke-width:0.6772053241729736px"/><path d="M187.77,131.11a7.06,7.06,0,0,0-.81,3.66,13.19,13.19,0,0,0,.65,3.66,5.37,5.37,0,0,1,1.14-3.42,9.57,9.57,0,0,1,2.93-2" style="fill:#0139ab;stroke:#000;stroke-width:0.6772053241729736px"/><path d="M186.63,126c-3.74,4.15-2.44,6.35-2.44,6.35a1.32,1.32,0,0,1,1.46-1,12.18,12.18,0,0,1,3.74,1.22" style="fill:#0139ab;stroke:#000;stroke-width:0.6772053241729736px"/><path d="M127.38,134.78a13.52,13.52,0,0,0,.81,6.35s1.3-1.22,1.14-4.39a14,14,0,0,0-1-4.88" style="fill:#0139ab;stroke:#000;stroke-width:0.6772053241729736px"/><path d="M121.52,132.33a12.51,12.51,0,0,0-2.44,2.44,5.12,5.12,0,0,0-.81,3.17s2.93-2,3.91-1.71a2.52,2.52,0,0,1,1.46,1.22" style="fill:#0139ab;stroke:#000;stroke-width:0.6772053241729736px"/><path d="M122.49,126.23a3.68,3.68,0,0,0-4.56,1.46c.16,0,2.77,0,3.26,1.46a13.64,13.64,0,0,0,1.79,3.17" style="fill:#0139ab;stroke:#000;stroke-width:0.6772053241729736px"/><path d="M128.52,123.3c-.33,0-.33-2-1.79-2.2a3.13,3.13,0,0,0-2.6,1.22s3.09,2.93,3.26,2.93A4.43,4.43,0,0,0,128.52,123.3Z" style="fill:#0139ab;stroke:#000;stroke-width:0.6772053241729736px"/><path d="M31.19,91.48A26.86,26.86,0,0,0,30.9,86s1-.17,2.07,1.38a6.45,6.45,0,0,1,.58,4.06" style="fill:#0139ab;stroke:#000;stroke-width:0.6772053241729736px"/><path d="M25.15,90.7c.23-4.23-1.55-5.35-1.61-5.35a3.24,3.24,0,0,1,2.82,0C27.51,86.13,28,90,28,90" style="fill:#0139ab;stroke:#000;stroke-width:0.6772053241729736px"/><path d="M20.2,92c-1.38-3.8-2.65-2.93-2.65-2.93A2.47,2.47,0,0,1,20,88c1.44.43,2.71,2.42,2.71,2.33" style="fill:#0139ab;stroke:#000;stroke-width:0.6772053241729736px"/><path d="M21.58,100.45c-1.27,1-1.61,1.47-2.65,1.21a15.07,15.07,0,0,0-1.84-.35s.63-3,1.44-3.37a6.32,6.32,0,0,1,2.24-.26" style="fill:#0139ab;stroke:#000;stroke-width:0.6772053241729736px"/><path d="M25.31,119.4a4.77,4.77,0,0,0-.81-2.93s1.14-1.22,2.28.49a14,14,0,0,1,1.63,4.39h0" style="fill:#0139ab;stroke:#000;stroke-width:0.6772053241729736px"/><path d="M20.6,122.12c-.06,0-.58-1.47-1.32-2s-1.44-.6-1.21-.6,0-1,1.61-1a4.73,4.73,0,0,1,2.65.78" style="fill:#0139ab;stroke:#000;stroke-width:0.6772053241729736px"/><path d="M20,126.52c-3.51-.35-3.86,2.85-3.74,2.93a6.63,6.63,0,0,0,2.24,1.12,7.26,7.26,0,0,0,1.5,0" style="fill:#0139ab;stroke:#000;stroke-width:0.6772053241729736px"/><path d="M21.58,133.94c-1.78,3.71-1.44,5.7-1.27,5.7s.81-.52,1.73-1.55a10.24,10.24,0,0,0,1.55-3" style="fill:#0139ab;stroke:#000;stroke-width:0.6772053241729736px"/><path d="M23,126c.16,0,.81-7.81,3.09-7.32s1.47.49,2.28,1,2.44,5.86,2.44,5.86" style="fill:#fdd400;stroke:#000;stroke-width:0.6772053241729736px"/><path d="M187.45,130.58c-.35-.35-3-2.42-1.61-4.14s9.55-.35,9.55-.35" style="fill:#fdd400;stroke:#000;stroke-width:0.6772053241729736px"/><path d="M133.69,130.06c-.92-.52-2-.69-3.11-3.45s-.46-2.76-.92-3.45-1.38-.35-3,.17-1.15,6-1.15,6" style="fill:#fdd400;stroke:#000;stroke-width:0.6772053241729736px"/><path d="M147.39,107.62c-.92.52-8.86,6.21-8.63,9.32s5.07,4.83,5,6.73-4.6,3.28-8.75,3.45-5.3,1.21-7.71.52-6-4.14-6.68-.17.23,4.14.23,4.14a7.52,7.52,0,0,0,0,3.8c.58,1.73,1.15,2.76,2.65,2.76a2.1,2.1,0,0,0,2-1.38s.23,1.73,2.88,1.9a3.77,3.77,0,0,0,3.57-1.73c.11,0,2.3.69,3.34.35a14.4,14.4,0,0,0,2.42-1.21,21.82,21.82,0,0,0-1,2.42,33.51,33.51,0,0,0,4.6-.69,7.11,7.11,0,0,0,3.91-2.76c-.11,0-2,3.11.92,2.93s4.26-3.45,6.33-3.11a5,5,0,0,0,3.22-.35,7.89,7.89,0,0,1,1.27-2.07,3.34,3.34,0,0,1,1.5-.86s1.84-.35,1.84-.52v-4.32a3.41,3.41,0,0,1-3-3.45c0-3.11,8.06-6.39,8.06-6.39Z" style="fill:#f7d917;stroke:#000;stroke-width:0.6772053241729736px"/><path d="M31.13,105.55c.46-14.15,3-8.29,3-11.39S33.09,89,32.28,89c-1.84,0-6.45,5.87-6.45,5.87" style="fill:#fdd400;stroke:#000;stroke-width:0.6772053241729736px"/><path d="M63.25,115.21c-1.15-.52-19-4.14-25-7.59s-8.52-9-9-11.74.69-7.25-2.76-7.25-1.61,4.49-1.61,4.49S22.15,85.87,20.08,90s2.53,7.25,2.53,7.25S18.16,94.48,19.28,99c1.88,7.58,4.95,4.83,5.41,6.56s-2.3,3.45-1.84,3.8a15.41,15.41,0,0,0,3.45,1.9c1.15.35,2.76.86,2.76.86l-1.73,2.07s3.22,3.45,4.83,4.32a4.48,4.48,0,0,0,3.57,0c-.12,0-3,1.9-3,1.9a8.69,8.69,0,0,0,3.34,1.73c1.73.35,3.22.52,3.22.52l-1.84,1.21,24.86,7.42Z" style="fill:#f7d917;stroke:#000;stroke-width:0.6772053241729736px"/><path d="M64.86,112.45c-.58.17-11.17,11.74-22.33,12.26a106.94,106.94,0,0,1-17.5-.35s-1.61-7.94-4.37-4.32-.58,5-.58,5,.46-.17,1.15.69a9.94,9.94,0,0,1,1.15,1.9s-3.68-4.49-3.68.86S21.12,132,21,132s-.58,4.66,0,4.83,2.88,1,4.14.69,1.15-1.38,1.5-1.55,2.3-1.38,2.65-.86-2.19,3.8-1.73,3.8,4.26,0,5.41-1.38,1.73-3.45,1.84-3.28-2,4.14-1.73,4.14,4.37.69,5.41.17a7.14,7.14,0,0,0,2.07-2.24s-.69,2.07-.46,2.24a6.25,6.25,0,0,0,4.26-.69,11.22,11.22,0,0,0,2.76-1.9l-.58,2.42a7.73,7.73,0,0,0,4.72-2.07c1.73-1.9,2.53-2.07,2.53-2.07s-1.73,2.93-1.5,2.93a15.72,15.72,0,0,0,4.72-.86c1.38-.69,2.76-1.21,2.76-1.21a27.54,27.54,0,0,0-1.5,2.42,12.9,12.9,0,0,0,5.06-.86,29.87,29.87,0,0,0,4.72-2.24s-3.22,3.45-2.53,3.45,4.83.17,6.91-1A5.68,5.68,0,0,0,75,134.37s6.68.35,8.06-1.21,1-2.24.92-2.07,4,1,6.22,1.55a24.08,24.08,0,0,0,9.9-.17c3.11-.86,36.95-20.71,43.16-20.37s7.37,2.59,9.21,2.42a11.94,11.94,0,0,0,2.88-.86c0,.17,9.09,10.53,21.41,9.84s9.9-1.73,11.86-1.9,4.26,1.73,4,3.45a3.1,3.1,0,0,1-2.53,2.93,3.18,3.18,0,0,0-2.65,3.11c0,1.73,1.38,4.14,2.88,4.14s2-.86,2.42-1,.92,1.9,2.88,1a16.9,16.9,0,0,0,3-1.9c.46-.17,3.45-.35,3.45-.52s.23-5.7.23-5.7,3.22-.35,3.22-1.38-1.15-3.28-1.84-4.32a16.86,16.86,0,0,0-1.5-1.9s2.19,1.21,2.65,1a11.81,11.81,0,0,0,1.5-.86,15.41,15.41,0,0,0-2.65-3.45,17.7,17.7,0,0,0-3.91-1.73,7.66,7.66,0,0,0,2.88-1.38,11.25,11.25,0,0,0,2.42-2.59c0-.17-3.45-3.11-6.1-2.76s-6.33,3.62-10.82,3.62-9.32-3.45-9.32-3.45,6.56,0,9.55-.17,9.44-2.24,9.44-8.63S192.86,89.32,180.88,89s-36.21,0-43.77.85c-12.26,1.39-24.13.38-29.77.38s-7.14-1.21-7.25-4c-.06-1.45,2.5-1.95,5-2.17a68.11,68.11,0,0,1,12.55-1.35c11.61,0,27,1.41,27,1.25,0-.52.23-1.21.35-1.21s.92,2.07,2.07,2.24a13.25,13.25,0,0,0,3.45-.35A2.86,2.86,0,0,0,153,86a3.11,3.11,0,0,0,2.3-1.38,3,3,0,0,0,2.65,1c1.73-.17,3-2.42,3.34-2.42a4.29,4.29,0,0,0,2.76-.35c1.15-.69,6.45-5.87,6.45-5.87a38.53,38.53,0,0,1-7.37,1.21c-2.76,0-4.49-1.55-7.94-1s-7.14,2.07-9.09,1.9c-1.27-.11-16.67-1.58-28.53-1.69-6.43-.06-11.81,1.19-13.35,1.19C99.87,78.64,96,83,95.49,88s3.77,5,8.63,7.59c6.49,3.53,65.13-1.57,73.88-1.23s14.39,1,14.39,4.83-5.87,4-10.13,3.8-14.16-1.9-21.41-1.73-53.87,10.18-62.27,10-13.58-.86-13.58-1S64.86,112.8,64.86,112.45Zm83.68-30.56a6.79,6.79,0,0,0,1.38,2.42c.81.69,2,1.55,2,1.55m1.5-3.45a1.82,1.82,0,0,1,1.15.86,8.56,8.56,0,0,0,1.15,1.55m3.22-3.28c.69,0,1.5,2.07,1.5,2.07" style="fill:#f7d917;stroke:#000;stroke-width:0.6772053241729736px"/><path d="M57.3,115.25c.16-.24.65-2.56,1.06-4.27s1.14-3.91,1.14-3.91-1.63,1.1-1.55.85-.33-3.66.57-6.1,1.79-3.78,1.79-4.76-.9-.49-.9-2.44-.41-4.76.65-5.37,4.31,3.66,4.31,3.42-.73-5.86.65-6.22,3.34,2,3.34,2,.65-4.88,1.14-4.88S71.3,87.3,71.3,87.3s1.3-4,1.79-4,2,4.27,2,4.27.73-3.66,1.71-3.66,1.71,4.39,1.71,4.39S79.11,86,80,86.2s1.63,6.1,1.63,6.1S84,88.52,85.54,89s0,5.49.08,7.69,1.55,3.3,1.63,4.88.08,11.47,0,11.47S70.89,119.4,69,119A115.3,115.3,0,0,1,57.3,115.25Z" style="fill:#f7d917;stroke:#000;stroke-width:0.6772053241729736px"/><path d="M66,104.34a131.69,131.69,0,0,1-6.5,12.26,25.8,25.8,0,0,1-3.22,3.45s.92,2.07,2.53,1.73S62.67,119,62.67,119a33.34,33.34,0,0,0-3.4,4.66,21.55,21.55,0,0,0-1.32,4.4,7.53,7.53,0,0,0,5.18-2.5,35.51,35.51,0,0,0,3.17-4.4c-.06,0-1.9,2.85-1.78,4.92a22,22,0,0,1-.23,3.8,17,17,0,0,0,3.4-2.68,37.19,37.19,0,0,0,2.65-4,20.35,20.35,0,0,0-.23,5.18c.35,1.64,1.27,4,1.21,4a8.12,8.12,0,0,0,2.47-3.62,27.33,27.33,0,0,0,1.15-4.49s.29,3.45,1.21,4.66,5.06.95,5.06.95-1.44-.52-1.9-2.93a24.94,24.94,0,0,1-.29-5.26s1,3.19,2,3.54,1.78-.69,2.47,0a21.77,21.77,0,0,1,1.67,2.93c.06-.09,2-1.29.92-4.23s-3.11-3.11-4.2-5A19.21,19.21,0,0,1,80.17,114c0-.09.92,4.23,2.3,5.18s2.19,2,4.14,2.07A2.89,2.89,0,0,1,89.55,124a10.08,10.08,0,0,1-.17,2s2.24-.52,2.24-4-1.38-4.83-2.88-5.35-4.26-1.47-4.89-2.5a6.48,6.48,0,0,1-.81-2.07s.23,1.9,1.5,2.5,2.94,1.81,4.09,1.38,4.14-4.75,4.14-4.75a31.33,31.33,0,0,1-5.64-1.73c-2.88-1.21-3.54-5.43-3.54-5.43Z" style="fill:#f7d917;stroke:#000;stroke-width:0.6772053241729736px"/><path d="M70,118.3a4.62,4.62,0,0,1,3.17-2.07c2-.12,4.15,2.56,4.15,2.56" style="fill:none;stroke:#000;stroke-width:0.6772053241729736px"/><path d="M71.79,110a18.12,18.12,0,0,0-.57,5.13A8.2,8.2,0,0,0,73.58,120,6.07,6.07,0,0,0,76,115a26.77,26.77,0,0,0-.33-5.49Z" style="fill:#0139ab;stroke:#000;stroke-width:0.6772053241729736px"/><path d="M73.74,110.12s.08,6.35,0,6.35" style="fill:none;stroke:#000;stroke-linecap:round;stroke-width:0.846506655216217px"/><path d="M62.1,102.56c.08,0,1.38.85,1.38,3.17s.57,5.37,2.36,5.37a3.87,3.87,0,0,0,2.6-1.22c.08.12,1.22,3.78,3,3.3s2.36-3.3,2.36-3.3,1,3.66,2.36,3.3,2.2-3.66,2.2-3.66,1.14,2.07,2.36,1.71,2.2-1.83,2.69-3.42a17.55,17.55,0,0,0,.57-4.52" style="fill:#fdd400;fill-opacity:0.9960809946060181;stroke:#000;stroke-width:0.6772053241729736px"/><path d="M71.22,96.21s1.55,7.08-2.12,7-1.79-3.3-2.93-3.42a6,6,0,0,0-1.71,0" style="fill:none;stroke:#000;stroke-width:0.6772053241729736px"/><path d="M74.47,95.6s-.9,8.18,2.12,7.57a5.21,5.21,0,0,0,3.74-3.78" style="fill:none;stroke:#000;stroke-width:0.6772053241729736px"/><path d="M61.12,91.21a28.09,28.09,0,0,0,1.22,5.49c.81,2.07,1.47,1.71,2.2,2.07a7.43,7.43,0,0,0-.9-4C62.75,92.79,61.12,91.45,61.12,91.21Z" style="fill-opacity:0.9960780143737793"/><path d="M82.29,98.28a10.71,10.71,0,0,1,.57-4.76c.9-2.2,1.87-2.69,1.87-2.69a11,11,0,0,1-.49,3.91C83.59,96.7,82.53,98.65,82.29,98.28Z" style="fill-opacity:0.9960780143737793"/><path d="M66.9,98.77c.41,0,2-2.69,4,0" style="fill:none;stroke:#000;stroke-width:0.6772053241729736px"/><path d="M75.61,98.16c2-2.2,4.23.49,4.23.49" style="fill:none;stroke:#000;stroke-width:0.6772053241729736px"/><path d="M70.65,100.36A1.71,1.71,0,1,1,69,99,1.53,1.53,0,0,1,70.65,100.36Z" style="fill:none;stroke:#000;stroke-width:0.7569260001182556px"/><path d="M79.19,100.12a1.66,1.66,0,1,1-1.63-1.34A1.51,1.51,0,0,1,79.19,100.12Z" style="fill:none;stroke:#000;stroke-width:0.7476382255554199px"/><path d="M68.94,98.65c0,.12.08,3.17.08,3.17" style="fill:none;stroke:#000;stroke-width:0.6772053241729736px"/><path d="M77.4,98.53l.08,3.05" style="fill:none;stroke:#000;stroke-width:0.6772053241729736px"/><path d="M75.69,107.5a2.13,2.13,0,1,0-2.12,2.38,2.26,2.26,0,0,0,2.12-2.38Z"/><path d="M197.11,127.47a6.44,6.44,0,0,0,.12,2.93c.46,1,1.5,3.11,1.5,3.11" style="fill:none;stroke:#000;stroke-width:0.6772053241729736px"/><path d="M194,129s-1.73,1.9-1.61,3.11a10.68,10.68,0,0,0,.58,2.42" style="fill:none;stroke:#000;stroke-width:0.6772053241729736px"/><path d="M199.88,125.05a2.74,2.74,0,0,1,2.19,2.42" style="fill:none;stroke:#000;stroke-width:0.6772053241729736px"/><path d="M123.1,130.23a22.08,22.08,0,0,0-2.3,1.55" style="fill:none;stroke:#000;stroke-width:0.6772053241729736px"/><path d="M126.44,132.82c-.58.35-1.15-.17-1.38,1.55a4,4,0,0,0,.35,2.59" style="fill:none;stroke:#000;stroke-width:0.6772053241729736px"/><path d="M131.39,133.51a2.47,2.47,0,0,1,.81,1.73,5.66,5.66,0,0,1-.46,1.9" style="fill:none;stroke:#000;stroke-width:0.6772053241729736px"/><path d="M21.92,129.71A3.22,3.22,0,0,0,21,132" style="fill:none;stroke:#000;stroke-width:0.6772053241729736px"/><path d="M155.61,114a22.05,22.05,0,0,1-2.18-3.13" style="fill:none;stroke:#000;stroke-width:0.6772053241729736px"/><path d="M193.63,66.11a25.54,25.54,0,0,0,1,6.84,14.16,14.16,0,0,1,.49,2.2,7.47,7.47,0,0,0,1.14-3.66c0-2-.33-4.64-.33-4.64" style="fill:#0139ab;stroke:#000;stroke-width:0.6772053241729736px"/><path d="M187.77,66.11a7.06,7.06,0,0,0-.81,3.66,13.19,13.19,0,0,0,.65,3.66A5.37,5.37,0,0,1,188.75,70a9.57,9.57,0,0,1,2.93-2" style="fill:#0139ab;stroke:#000;stroke-width:0.6772053241729736px"/><path d="M186.63,61c-3.74,4.15-2.44,6.35-2.44,6.35a1.32,1.32,0,0,1,1.46-1,12.18,12.18,0,0,1,3.74,1.22" style="fill:#0139ab;stroke:#000;stroke-width:0.6772053241729736px"/><path d="M127.38,69.78a13.52,13.52,0,0,0,.81,6.35s1.3-1.22,1.14-4.39a14,14,0,0,0-1-4.88" style="fill:#0139ab;stroke:#000;stroke-width:0.6772053241729736px"/><path d="M121.52,67.33a12.51,12.51,0,0,0-2.44,2.44,5.12,5.12,0,0,0-.81,3.17s2.93-2,3.91-1.71a2.52,2.52,0,0,1,1.46,1.22" style="fill:#0139ab;stroke:#000;stroke-width:0.6772053241729736px"/><path d="M122.49,61.23a3.68,3.68,0,0,0-4.56,1.46c.16,0,2.77,0,3.26,1.46A13.64,13.64,0,0,0,123,67.33" style="fill:#0139ab;stroke:#000;stroke-width:0.6772053241729736px"/><path d="M128.52,58.3c-.33,0-.33-2-1.79-2.2a3.13,3.13,0,0,0-2.6,1.22s3.09,2.93,3.26,2.93A4.43,4.43,0,0,0,128.52,58.3Z" style="fill:#0139ab;stroke:#000;stroke-width:0.6772053241729736px"/><path d="M31.19,26.48A26.86,26.86,0,0,0,30.9,21s1-.17,2.07,1.38a6.45,6.45,0,0,1,.58,4.06" style="fill:#0139ab;stroke:#000;stroke-width:0.6772053241729736px"/><path d="M25.15,25.7c.23-4.23-1.55-5.35-1.61-5.35a3.24,3.24,0,0,1,2.82,0C27.51,21.13,28,25,28,25" style="fill:#0139ab;stroke:#000;stroke-width:0.6772053241729736px"/><path d="M20.2,27c-1.38-3.8-2.65-2.93-2.65-2.93A2.47,2.47,0,0,1,20,23c1.44.43,2.71,2.42,2.71,2.33" style="fill:#0139ab;stroke:#000;stroke-width:0.6772053241729736px"/><path d="M21.58,35.45c-1.27,1-1.61,1.47-2.65,1.21a15.07,15.07,0,0,0-1.84-.35s.63-3,1.44-3.37a6.32,6.32,0,0,1,2.24-.26" style="fill:#0139ab;stroke:#000;stroke-width:0.6772053241729736px"/><path d="M25.31,54.4a4.77,4.77,0,0,0-.81-2.93s1.14-1.22,2.28.49a14,14,0,0,1,1.63,4.39h0" style="fill:#0139ab;stroke:#000;stroke-width:0.6772053241729736px"/><path d="M20.6,57.12c-.06,0-.58-1.47-1.32-2s-1.44-.6-1.21-.6,0-1,1.61-1a4.73,4.73,0,0,1,2.65.78" style="fill:#0139ab;stroke:#000;stroke-width:0.6772053241729736px"/><path d="M20,61.52c-3.51-.35-3.86,2.85-3.74,2.93a6.63,6.63,0,0,0,2.24,1.12,7.26,7.26,0,0,0,1.5,0" style="fill:#0139ab;stroke:#000;stroke-width:0.6772053241729736px"/><path d="M21.58,68.94c-1.78,3.71-1.44,5.7-1.27,5.7s.81-.52,1.73-1.55a10.24,10.24,0,0,0,1.55-3" style="fill:#0139ab;stroke:#000;stroke-width:0.6772053241729736px"/><path d="M23,61c.16,0,.81-7.81,3.09-7.32s1.47.49,2.28,1,2.44,5.86,2.44,5.86" style="fill:#fdd400;stroke:#000;stroke-width:0.6772053241729736px"/><path d="M187.45,65.58c-.35-.35-3-2.42-1.61-4.14s9.55-.35,9.55-.35" style="fill:#fdd400;stroke:#000;stroke-width:0.6772053241729736px"/><path d="M133.69,65.06c-.92-.52-2-.69-3.11-3.45s-.46-2.76-.92-3.45-1.38-.35-3,.17-1.15,6-1.15,6" style="fill:#fdd400;stroke:#000;stroke-width:0.6772053241729736px"/><path d="M147.39,42.62c-.92.52-8.86,6.21-8.63,9.32s5.07,4.83,5,6.73S139.1,62,135,62.12s-5.3,1.21-7.71.52-6-4.14-6.68-.17.23,4.14.23,4.14a7.52,7.52,0,0,0,0,3.8c.58,1.73,1.15,2.76,2.65,2.76a2.1,2.1,0,0,0,2-1.38s.23,1.73,2.88,1.9A3.77,3.77,0,0,0,131.85,72c.11,0,2.3.69,3.34.35a14.4,14.4,0,0,0,2.42-1.21,21.82,21.82,0,0,0-1,2.42,33.51,33.51,0,0,0,4.6-.69,7.11,7.11,0,0,0,3.91-2.76c-.11,0-2,3.11.92,2.93s4.26-3.45,6.33-3.11a5,5,0,0,0,3.22-.35,7.89,7.89,0,0,1,1.27-2.07,3.34,3.34,0,0,1,1.5-.86s1.84-.35,1.84-.52V61.78a3.41,3.41,0,0,1-3-3.45c0-3.11,8.06-6.39,8.06-6.39Z" style="fill:#f7d917;stroke:#000;stroke-width:0.6772053241729736px"/><path d="M31.13,40.55c.46-14.15,3-8.29,3-11.39S33.09,24,32.28,24c-1.84,0-6.45,5.87-6.45,5.87" style="fill:#fdd400;stroke:#000;stroke-width:0.6772053241729736px"/><path d="M63.25,50.21c-1.15-.52-19-4.14-25-7.59s-8.52-9-9-11.74.69-7.25-2.76-7.25-1.61,4.49-1.61,4.49S22.15,20.87,20.08,25s2.53,7.25,2.53,7.25S18.16,29.48,19.28,34c1.88,7.58,4.95,4.83,5.41,6.56s-2.3,3.45-1.84,3.8a15.41,15.41,0,0,0,3.45,1.9c1.15.35,2.76.86,2.76.86l-1.73,2.07s3.22,3.45,4.83,4.32a4.48,4.48,0,0,0,3.57,0c-.12,0-3,1.9-3,1.9a8.69,8.69,0,0,0,3.34,1.73c1.73.35,3.22.52,3.22.52l-1.84,1.21,24.86,7.42Z" style="fill:#f7d917;stroke:#000;stroke-width:0.6772053241729736px"/><path d="M64.86,47.45c-.58.17-11.17,11.74-22.33,12.26A106.94,106.94,0,0,1,25,59.36S23.42,51.42,20.66,55s-.58,5-.58,5,.46-.17,1.15.69a9.94,9.94,0,0,1,1.15,1.9s-3.68-4.49-3.68.86S21.12,67,21,67s-.58,4.66,0,4.83,2.88,1,4.14.69,1.15-1.38,1.5-1.55,2.3-1.38,2.65-.86-2.19,3.8-1.73,3.8,4.26,0,5.41-1.38S34.7,69,34.82,69.2s-2,4.14-1.73,4.14,4.37.69,5.41.17a7.14,7.14,0,0,0,2.07-2.24s-.69,2.07-.46,2.24a6.25,6.25,0,0,0,4.26-.69,11.22,11.22,0,0,0,2.76-1.9l-.58,2.42a7.73,7.73,0,0,0,4.72-2.07c1.73-1.9,2.53-2.07,2.53-2.07s-1.73,2.93-1.5,2.93A15.72,15.72,0,0,0,57,71.27c1.38-.69,2.76-1.21,2.76-1.21a27.54,27.54,0,0,0-1.5,2.42,12.9,12.9,0,0,0,5.06-.86,29.87,29.87,0,0,0,4.72-2.24s-3.22,3.45-2.53,3.45,4.83.17,6.91-1A5.68,5.68,0,0,0,75,69.37s6.68.35,8.06-1.21,1-2.24.92-2.07,4,1,6.22,1.55a24.08,24.08,0,0,0,9.9-.17c3.11-.86,36.95-20.71,43.16-20.37s7.37,2.59,9.21,2.42a11.94,11.94,0,0,0,2.88-.86c0,.17,9.09,10.53,21.41,9.84s9.9-1.73,11.86-1.9,4.26,1.73,4,3.45A3.1,3.1,0,0,1,190.09,63a3.18,3.18,0,0,0-2.65,3.11c0,1.73,1.38,4.14,2.88,4.14s2-.86,2.42-1,.92,1.9,2.88,1a16.9,16.9,0,0,0,3-1.9c.46-.17,3.45-.35,3.45-.52s.23-5.7.23-5.7,3.22-.35,3.22-1.38-1.15-3.28-1.84-4.32a16.86,16.86,0,0,0-1.5-1.9s2.19,1.21,2.65,1a11.81,11.81,0,0,0,1.5-.86,15.41,15.41,0,0,0-2.65-3.45,17.7,17.7,0,0,0-3.91-1.73,7.66,7.66,0,0,0,2.88-1.38,11.25,11.25,0,0,0,2.42-2.59c0-.17-3.45-3.11-6.1-2.76s-6.33,3.62-10.82,3.62S178.81,43,178.81,43s6.56,0,9.55-.17,9.44-2.24,9.44-8.63S192.86,24.32,180.88,24s-36.21,0-43.77.85c-12.26,1.39-24.13.38-29.77.38s-7.14-1.21-7.25-4c-.06-1.45,2.5-1.95,5-2.17a69.75,69.75,0,0,1,12.55-1.35c10.49,0,22.56,1,34,1s17.56-1,17.56-1.09c0-.52.23-1.21.35-1.21s.92,2.07,2.07,2.24A13.25,13.25,0,0,0,175,18.3a2.86,2.86,0,0,0,2.53,1.38,3.11,3.11,0,0,0,2.3-1.38,3,3,0,0,0,2.65,1c1.73-.17,3-2.42,3.34-2.42a4.29,4.29,0,0,0,2.76-.35c1.15-.69,6.45-5.87,6.45-5.87a38.53,38.53,0,0,1-7.37,1.21c-2.76,0-4.49-1.55-7.94-1s-7.14,2.07-9.09,1.9c-.63-.06-7.07.85-18.7.8s-23.22-1.13-34.37-1.13c-6.43,0-11.81,1.19-13.35,1.19C99.87,13.64,96,18,95.49,23s3.77,5,8.63,7.59c6.49,3.53,65.13-1.57,73.88-1.23s14.39,1,14.39,4.83-5.87,4-10.13,3.8-14.16-1.9-21.41-1.73S107,46.42,98.58,46.24,85,45.38,85,45.21,64.86,47.8,64.86,47.45ZM173.08,15.54A6.79,6.79,0,0,0,174.46,18c.81.69,2,1.55,2,1.55m1.5-3.45a1.82,1.82,0,0,1,1.15.86,8.55,8.55,0,0,0,1.15,1.55m3.22-3.28c.69,0,1.5,2.07,1.5,2.07" style="fill:#f7d917;stroke:#000;stroke-width:0.6772053241729736px"/><path d="M57.3,50.25c.16-.24.65-2.56,1.06-4.27s1.14-3.91,1.14-3.91-1.63,1.1-1.55.85-.33-3.66.57-6.1,1.79-3.78,1.79-4.76-.9-.49-.9-2.44-.41-4.76.65-5.37,4.31,3.66,4.31,3.42-.73-5.86.65-6.22,3.34,2,3.34,2,.65-4.88,1.14-4.88S71.3,22.3,71.3,22.3s1.3-4,1.79-4,2,4.27,2,4.27.73-3.66,1.71-3.66,1.71,4.39,1.71,4.39S79.11,21,80,21.2s1.63,6.1,1.63,6.1S84,23.52,85.54,24s0,5.49.08,7.69,1.55,3.3,1.63,4.88.08,11.47,0,11.47S70.89,54.4,69,54A115.3,115.3,0,0,1,57.3,50.25Z" style="fill:#f7d917;stroke:#000;stroke-width:0.6772053241729736px"/><path d="M66,39.34a131.69,131.69,0,0,1-6.5,12.26,25.8,25.8,0,0,1-3.22,3.45s.92,2.07,2.53,1.73S62.67,54,62.67,54a33.34,33.34,0,0,0-3.4,4.66A21.55,21.55,0,0,0,58,63.08a7.53,7.53,0,0,0,5.18-2.5,35.51,35.51,0,0,0,3.17-4.4c-.06,0-1.9,2.85-1.78,4.92a22,22,0,0,1-.23,3.8,17,17,0,0,0,3.4-2.68,37.19,37.19,0,0,0,2.65-4,20.35,20.35,0,0,0-.23,5.18c.35,1.64,1.27,4,1.21,4a8.12,8.12,0,0,0,2.47-3.62,27.33,27.33,0,0,0,1.15-4.49s.29,3.45,1.21,4.66,5.06.95,5.06.95-1.44-.52-1.9-2.93A24.94,24.94,0,0,1,79,56.69s1,3.19,2,3.54,1.78-.69,2.47,0a21.77,21.77,0,0,1,1.67,2.93c.06-.09,2-1.29.92-4.23s-3.11-3.11-4.2-5A19.21,19.21,0,0,1,80.17,49c0-.09.92,4.23,2.3,5.18s2.19,2,4.14,2.07A2.89,2.89,0,0,1,89.55,59a10.08,10.08,0,0,1-.17,2s2.24-.52,2.24-4-1.38-4.83-2.88-5.35-4.26-1.47-4.89-2.5A6.48,6.48,0,0,1,83,47.11s.23,1.9,1.5,2.5,2.94,1.81,4.09,1.38,4.14-4.75,4.14-4.75a31.33,31.33,0,0,1-5.64-1.73c-2.88-1.21-3.54-5.43-3.54-5.43Z" style="fill:#f7d917;stroke:#000;stroke-width:0.6772053241729736px"/><path d="M70,53.3a4.62,4.62,0,0,1,3.17-2.07c2-.12,4.15,2.56,4.15,2.56" style="fill:none;stroke:#000;stroke-width:0.6772053241729736px"/><path d="M71.79,45a18.12,18.12,0,0,0-.57,5.13A8.2,8.2,0,0,0,73.58,55,6.07,6.07,0,0,0,76,50a26.77,26.77,0,0,0-.33-5.49Z" style="fill:#0139ab;stroke:#000;stroke-width:0.6772053241729736px"/><path d="M73.74,45.12s.08,6.35,0,6.35" style="fill:none;stroke:#000;stroke-linecap:round;stroke-width:0.846506655216217px"/><path d="M62.1,37.56c.08,0,1.38.85,1.38,3.17s.57,5.37,2.36,5.37a3.87,3.87,0,0,0,2.6-1.22c.08.12,1.22,3.78,3,3.3s2.36-3.3,2.36-3.3,1,3.66,2.36,3.3,2.2-3.66,2.2-3.66,1.14,2.07,2.36,1.71,2.2-1.83,2.69-3.42A17.55,17.55,0,0,0,84,38.29" style="fill:#fdd400;fill-opacity:0.9960809946060181;stroke:#000;stroke-width:0.6772053241729736px"/><path d="M71.22,31.21s1.55,7.08-2.12,7-1.79-3.3-2.93-3.42a6,6,0,0,0-1.71,0" style="fill:none;stroke:#000;stroke-width:0.6772053241729736px"/><path d="M74.47,30.6s-.9,8.18,2.12,7.57a5.21,5.21,0,0,0,3.74-3.78" style="fill:none;stroke:#000;stroke-width:0.6772053241729736px"/><path d="M61.12,26.21a28.09,28.09,0,0,0,1.22,5.49c.81,2.07,1.47,1.71,2.2,2.07a7.43,7.43,0,0,0-.9-4C62.75,27.79,61.12,26.45,61.12,26.21Z" style="fill-opacity:0.9960780143737793"/><path d="M82.29,33.28a10.71,10.71,0,0,1,.57-4.76c.9-2.2,1.87-2.69,1.87-2.69a11,11,0,0,1-.49,3.91C83.59,31.7,82.53,33.65,82.29,33.28Z" style="fill-opacity:0.9960780143737793"/><path d="M66.9,33.77c.41,0,2-2.69,4,0" style="fill:none;stroke:#000;stroke-width:0.6772053241729736px"/><path d="M75.61,33.16c2-2.2,4.23.49,4.23.49" style="fill:none;stroke:#000;stroke-width:0.6772053241729736px"/><path d="M70.65,35.36a1.71,1.71,0,0,1-3.34,0,1.71,1.71,0,0,1,3.34,0Z" style="fill:none;stroke:#000;stroke-width:0.7569260001182556px"/><path d="M79.19,35.12a1.66,1.66,0,1,1-1.63-1.34A1.51,1.51,0,0,1,79.19,35.12Z" style="fill:none;stroke:#000;stroke-width:0.7476382255554199px"/><path d="M68.94,33.65c0,.12.08,3.17.08,3.17" style="fill:none;stroke:#000;stroke-width:0.6772053241729736px"/><path d="M77.4,33.53l.08,3.05" style="fill:none;stroke:#000;stroke-width:0.6772053241729736px"/><path d="M75.69,42.5a2.13,2.13,0,1,0-2.12,2.38,2.26,2.26,0,0,0,2.12-2.38Z"/><path d="M197.11,62.47a6.44,6.44,0,0,0,.12,2.93c.46,1,1.5,3.11,1.5,3.11" style="fill:none;stroke:#000;stroke-width:0.6772053241729736px"/><path d="M194,64s-1.73,1.9-1.61,3.11a10.68,10.68,0,0,0,.58,2.42" style="fill:none;stroke:#000;stroke-width:0.6772053241729736px"/><path d="M199.88,60.05a2.74,2.74,0,0,1,2.19,2.42" style="fill:none;stroke:#000;stroke-width:0.6772053241729736px"/><path d="M123.1,65.23a22.08,22.08,0,0,0-2.3,1.55" style="fill:none;stroke:#000;stroke-width:0.6772053241729736px"/><path d="M126.44,67.82c-.58.35-1.15-.17-1.38,1.55A4,4,0,0,0,125.4,72" style="fill:none;stroke:#000;stroke-width:0.6772053241729736px"/><path d="M131.39,68.51a2.47,2.47,0,0,1,.81,1.73,5.66,5.66,0,0,1-.46,1.9" style="fill:none;stroke:#000;stroke-width:0.6772053241729736px"/><path d="M21.92,64.71A3.22,3.22,0,0,0,21,67" style="fill:none;stroke:#000;stroke-width:0.6772053241729736px"/><path d="M155.61,49a22.05,22.05,0,0,1-2.18-3.13" style="fill:none;stroke:#000;stroke-width:0.6772053241729736px"/><path d="M193.63,196.11a25.54,25.54,0,0,0,1,6.83,14.16,14.16,0,0,1,.49,2.2,7.47,7.47,0,0,0,1.14-3.66c0-2-.33-4.64-.33-4.64" style="fill:#0139ab;stroke:#000;stroke-width:0.6772053241729736px"/><path d="M187.77,196.11a7.06,7.06,0,0,0-.81,3.66,13.19,13.19,0,0,0,.65,3.66,5.37,5.37,0,0,1,1.14-3.42,9.57,9.57,0,0,1,2.93-2" style="fill:#0139ab;stroke:#000;stroke-width:0.6772053241729736px"/><path d="M186.63,191c-3.74,4.15-2.44,6.35-2.44,6.35a1.32,1.32,0,0,1,1.46-1,12.18,12.18,0,0,1,3.74,1.22" style="fill:#0139ab;stroke:#000;stroke-width:0.6772053241729736px"/><path d="M114.94,214.8a13.52,13.52,0,0,0,3,5.66s.79-1.6-.46-4.52a14,14,0,0,0-2.62-4.24" style="fill:#0139ab;stroke:#000;stroke-width:0.6772053241729736px"/><path d="M108.59,214.56a12.51,12.51,0,0,0-1.44,3.14,5.12,5.12,0,0,0,.34,3.26s2.07-2.85,3.07-3a2.52,2.52,0,0,1,1.8.63" style="fill:#0139ab;stroke:#000;stroke-width:0.6772053241729736px"/><path d="M107.38,208.5a3.68,3.68,0,0,0-3.76,3c.15-.06,2.59-1,3.56.24A13.64,13.64,0,0,0,110,214" style="fill:#0139ab;stroke:#000;stroke-width:0.6772053241729736px"/><path d="M112,203.65c-.31.11-1-1.72-2.44-1.43s-2,2.05-2,2.05,3.92,1.67,4.07,1.61A4.43,4.43,0,0,0,112,203.65Z" style="fill:#0139ab;stroke:#000;stroke-width:0.6772053241729736px"/><path d="M31.19,156.48A26.86,26.86,0,0,0,30.9,151s1-.17,2.07,1.38a6.45,6.45,0,0,1,.58,4.06" style="fill:#0139ab;stroke:#000;stroke-width:0.6772053241729736px"/><path d="M25.15,155.7c.23-4.23-1.55-5.35-1.61-5.35a3.24,3.24,0,0,1,2.82,0C27.51,151.13,28,155,28,155" style="fill:#0139ab;stroke:#000;stroke-width:0.6772053241729736px"/><path d="M20.2,157c-1.38-3.8-2.65-2.93-2.65-2.93A2.47,2.47,0,0,1,20,153c1.44.43,2.71,2.42,2.71,2.33" style="fill:#0139ab;stroke:#000;stroke-width:0.6772053241729736px"/><path d="M21.58,165.45c-1.27,1-1.61,1.47-2.65,1.21a15.07,15.07,0,0,0-1.84-.35s.63-3,1.44-3.37a6.32,6.32,0,0,1,2.24-.26" style="fill:#0139ab;stroke:#000;stroke-width:0.6772053241729736px"/><path d="M25.31,184.4a4.77,4.77,0,0,0-.81-2.93s1.14-1.22,2.28.49a14,14,0,0,1,1.63,4.39h0" style="fill:#0139ab;stroke:#000;stroke-width:0.6772053241729736px"/><path d="M20.6,187.12c-.06,0-.58-1.47-1.32-2s-1.44-.6-1.21-.6,0-1,1.61-1a4.73,4.73,0,0,1,2.65.78" style="fill:#0139ab;stroke:#000;stroke-width:0.6772053241729736px"/><path d="M20,191.52c-3.51-.35-3.86,2.85-3.74,2.93a6.63,6.63,0,0,0,2.24,1.12,7.26,7.26,0,0,0,1.5,0" style="fill:#0139ab;stroke:#000;stroke-width:0.6772053241729736px"/><path d="M21.58,198.94c-1.78,3.71-1.44,5.7-1.27,5.7s.81-.52,1.73-1.55a10.24,10.24,0,0,0,1.55-3" style="fill:#0139ab;stroke:#000;stroke-width:0.6772053241729736px"/><path d="M23,191c.16,0,.81-7.81,3.09-7.32s1.47.49,2.28,1,2.44,5.86,2.44,5.86" style="fill:#fdd400;stroke:#000;stroke-width:0.6772053241729736px"/><path d="M187.45,195.58c-.35-.35-3-2.42-1.61-4.14s9.55-.35,9.55-.35" style="fill:#fdd400;stroke:#000;stroke-width:0.6772053241729736px"/><path d="M119.21,208.18c-1-.16-2.07,0-4.12-2.15s-1.39-2.43-2.07-2.91-1.42.16-2.74,1.21,1,6.06,1,6.06" style="fill:#fdd400;stroke:#000;stroke-width:0.6772053241729736px"/><path d="M129.76,174.76c-.24,1.69-16.18,11.34-10.38,19.36,1.82,2.53,6.43,2.76,7,4.58s-3.17,4.68-7,6.29-4.54,3-7,3.18-7.05-1.8-6.32,2.17,1.66,3.8,1.66,3.8a7.52,7.52,0,0,0,1.32,3.56c1.14,1.42,2,2.19,3.44,1.67a2.1,2.1,0,0,0,1.35-2s.82,1.54,3.36.78a3.77,3.77,0,0,0,2.74-2.86c.11,0,2.4-.16,3.25-.84a14.4,14.4,0,0,0,1.84-2,21.81,21.81,0,0,0-.13,2.63,33.51,33.51,0,0,0,4.07-2.25,7.11,7.11,0,0,0,2.7-4c-.11,0-.75,3.59,1.89,2.43s2.79-4.72,4.85-5.12a5,5,0,0,0,2.9-1.45,7.89,7.89,0,0,1,.46-2.38,3.34,3.34,0,0,1,1.1-1.33s1.61-1,1.55-1.13l-1.5-4s-4.87.79-4-2.19c3.08-10.64,31.31-11,29.14-7C166.53,173.44,151.29,171.51,129.76,174.76Z" style="fill:#f7d917;stroke:#000;stroke-width:0.6772053241729736px"/><path d="M31.13,170.55c.46-14.15,3-8.29,3-11.39s-1-5.18-1.84-5.18c-1.84,0-6.45,5.87-6.45,5.87" style="fill:#fdd400;stroke:#000;stroke-width:0.6772053241729736px"/><path d="M63.25,180.21c-1.15-.52-19-4.14-25-7.59s-8.52-9-9-11.74.69-7.25-2.76-7.25-1.61,4.49-1.61,4.49-2.76-7.25-4.83-3.11,2.53,7.25,2.53,7.25-4.45-2.78-3.34,1.73c1.88,7.58,4.95,4.83,5.41,6.56s-2.3,3.45-1.84,3.8a15.41,15.41,0,0,0,3.45,1.9c1.15.35,2.76.86,2.76.86l-1.73,2.07s3.22,3.45,4.83,4.32a4.48,4.48,0,0,0,3.57,0c-.12,0-3,1.9-3,1.9a8.69,8.69,0,0,0,3.34,1.73c1.73.35,3.22.52,3.22.52l-1.84,1.21,24.86,7.42Z" style="fill:#f7d917;stroke:#000;stroke-width:0.6772053241729736px"/><path d="M64.86,177.45c-.58.17-11.17,11.74-22.33,12.26a106.94,106.94,0,0,1-17.5-.35s-1.61-7.94-4.37-4.32-.58,5-.58,5,.46-.17,1.15.69a9.94,9.94,0,0,1,1.15,1.9s-3.68-4.49-3.68.86S21.12,197,21,197s-.58,4.66,0,4.83,2.88,1,4.14.69,1.15-1.38,1.5-1.55,2.3-1.38,2.65-.86-2.19,3.8-1.73,3.8,4.26,0,5.41-1.38,1.73-3.45,1.84-3.28-2,4.14-1.73,4.14,4.37.69,5.41.17a7.14,7.14,0,0,0,2.07-2.24s-.69,2.07-.46,2.24a6.25,6.25,0,0,0,4.26-.69,11.21,11.21,0,0,0,2.76-1.9l-.58,2.42a7.73,7.73,0,0,0,4.72-2.07c1.73-1.9,2.53-2.07,2.53-2.07s-1.73,2.93-1.5,2.93a15.72,15.72,0,0,0,4.72-.86c1.38-.69,2.76-1.21,2.76-1.21a27.54,27.54,0,0,0-1.5,2.42,12.9,12.9,0,0,0,5.06-.86,29.87,29.87,0,0,0,4.72-2.24s-3.22,3.45-2.53,3.45,4.83.17,6.91-1A5.68,5.68,0,0,0,75,199.37s6.68.35,8.06-1.21,1-2.24.92-2.07,4,1,6.22,1.55a24.08,24.08,0,0,0,9.9-.17c3.11-.86,36.95-20.71,43.16-20.37s7.37,2.59,9.21,2.42a11.94,11.94,0,0,0,2.88-.86c0,.17,9.09,10.53,21.41,9.84s9.9-1.73,11.86-1.9,4.26,1.73,4,3.45a3.1,3.1,0,0,1-2.53,2.93,3.18,3.18,0,0,0-2.65,3.11c0,1.73,1.38,4.14,2.88,4.14s2-.86,2.42-1,.92,1.9,2.88,1a16.9,16.9,0,0,0,3-1.9c.46-.17,3.45-.35,3.45-.52s.23-5.7.23-5.7,3.22-.35,3.22-1.38-1.15-3.28-1.84-4.32a16.86,16.86,0,0,0-1.5-1.9s2.19,1.21,2.65,1a11.81,11.81,0,0,0,1.5-.86,15.41,15.41,0,0,0-2.65-3.45,17.7,17.7,0,0,0-3.91-1.73,7.66,7.66,0,0,0,2.88-1.38,11.25,11.25,0,0,0,2.42-2.59c0-.17-3.45-3.11-6.1-2.76s-6.33,3.62-10.82,3.62-9.32-3.45-9.32-3.45,6.56,0,9.55-.17,9.44-2.24,9.44-8.63-4.95-9.84-16.92-10.18-36.21,0-43.77.85c-12.26,1.39-24.13.38-29.77.38s-7.14-1.21-7.25-4c-.06-1.45,2.5-1.95,5-2.17a68.1,68.1,0,0,1,12.55-1.35c11.61,0,27,1.41,27,1.25,0-.52.23-1.21.35-1.21s.92,2.07,2.07,2.24a13.25,13.25,0,0,0,3.45-.35A2.86,2.86,0,0,0,153,151a3.11,3.11,0,0,0,2.3-1.38,3,3,0,0,0,2.65,1c1.73-.17,3-2.42,3.34-2.42a4.29,4.29,0,0,0,2.76-.35c1.15-.69,6.45-5.87,6.45-5.87a38.53,38.53,0,0,1-7.37,1.21c-2.76,0-4.49-1.55-7.94-1s-7.14,2.07-9.09,1.9c-1.27-.11-16.67-1.58-28.53-1.69-6.43-.06-11.81,1.19-13.35,1.19-4.37,0-8.29,4.32-8.75,9.32s3.77,5,8.63,7.59c6.49,3.53,65.13-1.57,73.88-1.23s14.39,1,14.39,4.83-5.87,4-10.13,3.8-14.16-1.9-21.41-1.73-53.87,10.18-62.27,10-13.58-.86-13.58-1S64.86,177.8,64.86,177.45Zm83.68-30.56a6.79,6.79,0,0,0,1.38,2.42c.81.69,2,1.55,2,1.55m1.5-3.45a1.82,1.82,0,0,1,1.15.86,8.56,8.56,0,0,0,1.15,1.55m3.22-3.28c.69,0,1.5,2.07,1.5,2.07" style="fill:#f7d917;stroke:#000;stroke-width:0.6772053241729736px"/><path d="M57.3,180.25c.16-.24.65-2.56,1.06-4.27s1.14-3.91,1.14-3.91-1.63,1.1-1.55.85-.33-3.66.57-6.1,1.79-3.78,1.79-4.76-.9-.49-.9-2.44-.41-4.76.65-5.37,4.31,3.66,4.31,3.42-.73-5.86.65-6.22,3.34,2,3.34,2,.65-4.88,1.14-4.88,1.79,3.78,1.79,3.78,1.3-4,1.79-4,2,4.27,2,4.27.73-3.66,1.71-3.66,1.71,4.39,1.71,4.39S79.11,151,80,151.2s1.63,6.1,1.63,6.1,2.36-3.78,3.91-3.3,0,5.49.08,7.69,1.55,3.3,1.63,4.88.08,11.47,0,11.47S70.89,184.4,69,184A115.31,115.31,0,0,1,57.3,180.25Z" style="fill:#f7d917;stroke:#000;stroke-width:0.6772053241729736px"/><path d="M66,169.34a131.69,131.69,0,0,1-6.5,12.26,25.8,25.8,0,0,1-3.22,3.45s.92,2.07,2.53,1.73S62.67,184,62.67,184a33.34,33.34,0,0,0-3.4,4.66,21.55,21.55,0,0,0-1.32,4.4,7.53,7.53,0,0,0,5.18-2.5,35.5,35.5,0,0,0,3.17-4.4c-.06,0-1.9,2.85-1.78,4.92a22,22,0,0,1-.23,3.8,17,17,0,0,0,3.4-2.68,37.19,37.19,0,0,0,2.65-4,20.35,20.35,0,0,0-.23,5.18c.35,1.64,1.27,4,1.21,4a8.12,8.12,0,0,0,2.47-3.62,27.33,27.33,0,0,0,1.15-4.49s.29,3.45,1.21,4.66,5.06.95,5.06.95-1.44-.52-1.9-2.93a24.94,24.94,0,0,1-.29-5.26s1,3.19,2,3.54,1.78-.69,2.47,0a21.77,21.77,0,0,1,1.67,2.93c.06-.09,2-1.29.92-4.23s-3.11-3.11-4.2-5A19.21,19.21,0,0,1,80.17,179c0-.09.92,4.23,2.3,5.18s2.19,2,4.14,2.07A2.89,2.89,0,0,1,89.55,189a10.08,10.08,0,0,1-.17,2s2.24-.52,2.24-4-1.38-4.83-2.88-5.35-4.26-1.47-4.89-2.5a6.48,6.48,0,0,1-.81-2.07s.23,1.9,1.5,2.5,2.94,1.81,4.09,1.38,4.14-4.75,4.14-4.75a31.33,31.33,0,0,1-5.64-1.73c-2.88-1.21-3.54-5.43-3.54-5.43Z" style="fill:#f7d917;stroke:#000;stroke-width:0.6772053241729736px"/><path d="M70,183.3a4.62,4.62,0,0,1,3.17-2.07c2-.12,4.15,2.56,4.15,2.56" style="fill:none;stroke:#000;stroke-width:0.6772053241729736px"/><path d="M71.79,175a18.12,18.12,0,0,0-.57,5.13A8.2,8.2,0,0,0,73.58,185,6.07,6.07,0,0,0,76,180a26.77,26.77,0,0,0-.33-5.49Z" style="fill:#0139ab;stroke:#000;stroke-width:0.6772053241729736px"/><path d="M73.74,175.12s.08,6.35,0,6.35" style="fill:none;stroke:#000;stroke-linecap:round;stroke-width:0.846506655216217px"/><path d="M62.1,167.56c.08,0,1.38.85,1.38,3.17s.57,5.37,2.36,5.37a3.87,3.87,0,0,0,2.6-1.22c.08.12,1.22,3.78,3,3.3s2.36-3.3,2.36-3.3,1,3.66,2.36,3.3,2.2-3.66,2.2-3.66,1.14,2.07,2.36,1.71,2.2-1.83,2.69-3.42a17.55,17.55,0,0,0,.57-4.52" style="fill:#fdd400;fill-opacity:0.9960809946060181;stroke:#000;stroke-width:0.6772053241729736px"/><path d="M71.22,161.21s1.55,7.08-2.12,7-1.79-3.3-2.93-3.42a6,6,0,0,0-1.71,0" style="fill:none;stroke:#000;stroke-width:0.6772053241729736px"/><path d="M74.47,160.6s-.9,8.18,2.12,7.57a5.21,5.21,0,0,0,3.74-3.78" style="fill:none;stroke:#000;stroke-width:0.6772053241729736px"/><path d="M61.12,156.21a28.09,28.09,0,0,0,1.22,5.49c.81,2.07,1.47,1.71,2.2,2.07a7.43,7.43,0,0,0-.9-4C62.75,157.79,61.12,156.45,61.12,156.21Z" style="fill-opacity:0.9960780143737793"/><path d="M82.29,163.28a10.71,10.71,0,0,1,.57-4.76c.9-2.2,1.87-2.69,1.87-2.69a11,11,0,0,1-.49,3.91C83.59,161.7,82.53,163.65,82.29,163.28Z" style="fill-opacity:0.9960780143737793"/><path d="M66.9,163.77c.41,0,2-2.69,4,0" style="fill:none;stroke:#000;stroke-width:0.6772053241729736px"/><path d="M75.61,163.16c2-2.2,4.23.49,4.23.49" style="fill:none;stroke:#000;stroke-width:0.6772053241729736px"/><path d="M70.65,165.36A1.71,1.71,0,1,1,69,164,1.53,1.53,0,0,1,70.65,165.36Z" style="fill:none;stroke:#000;stroke-width:0.7569260001182556px"/><path d="M79.19,165.12a1.66,1.66,0,1,1-1.63-1.34A1.51,1.51,0,0,1,79.19,165.12Z" style="fill:none;stroke:#000;stroke-width:0.7476382255554199px"/><path d="M68.94,163.65c0,.12.08,3.17.08,3.17" style="fill:none;stroke:#000;stroke-width:0.6772053241729736px"/><path d="M77.4,163.53l.08,3.05" style="fill:none;stroke:#000;stroke-width:0.6772053241729736px"/><path d="M75.69,172.5a2.13,2.13,0,1,0-2.12,2.38,2.26,2.26,0,0,0,2.12-2.38Z"/><path d="M197.11,192.47a6.44,6.44,0,0,0,.12,2.93c.46,1,1.5,3.11,1.5,3.11" style="fill:none;stroke:#000;stroke-width:0.6772053241729736px"/><path d="M194,194s-1.73,1.9-1.61,3.11a10.68,10.68,0,0,0,.58,2.42" style="fill:none;stroke:#000;stroke-width:0.6772053241729736px"/><path d="M199.88,190.05a2.74,2.74,0,0,1,2.19,2.42" style="fill:none;stroke:#000;stroke-width:0.6772053241729736px"/><path d="M109.34,212a22.09,22.09,0,0,0-1.62,2.26" style="fill:none;stroke:#000;stroke-width:0.6772053241729736px"/><path d="M113.38,213.3c-.42.52-1.14.24-.75,1.94a4,4,0,0,0,1.23,2.31" style="fill:none;stroke:#000;stroke-width:0.6772053241729736px"/><path d="M118.26,212.22a2.47,2.47,0,0,1,1.36,1.34,5.66,5.66,0,0,1,.23,1.94" style="fill:none;stroke:#000;stroke-width:0.6772053241729736px"/><path d="M21.92,194.71A3.22,3.22,0,0,0,21,197" style="fill:none;stroke:#000;stroke-width:0.6772053241729736px"/><path d="M155.61,179a22.05,22.05,0,0,1-2.18-3.13" style="fill:none;stroke:#000;stroke-width:0.6772053241729736px"/></svg>