<svg xmlns="http://www.w3.org/2000/svg" viewBox="0 0 299.31 328"><title>Kiribati</title><path d="M285.68,282.77s2.5-11.19,7.05-7.15c3.3,2.93-2.71,16.45-13.48,11.42C279.15,287,275.8,279.26,285.68,282.77Z" style="fill:#fbcc03;stroke:#705c02;stroke-width:0.9829793572425842px"/><path d="M293,275.85a9.59,9.59,0,0,0-6.19-3.92C272.38,283.2,272,284.07,285.7,283,289.39,272.16,292.05,275.37,293,275.85Z" style="fill:#cf1126;stroke:#600812;stroke-linejoin:round;stroke-width:0.9829793572425842px"/><path d="M263,273.63l5.09,5.49a35.09,35.09,0,0,0,11.16,8c-2.76-9.67,9-15.91,14.55-21.72,13-14.58-3.68-20.29-3.68-20.29l-7.52.42Z" style="fill:#cf1126;stroke:#600812;stroke-width:0.9829793572425842px"/><path d="M289.5,248.89l-4.9.27-16.8,24.12,3,3.22a29.18,29.18,0,0,0,5.08,4.28,15.13,15.13,0,0,1,.4-1.79,21.71,21.71,0,0,1,4.6-6.86c3.66-3.88,8-7,10.34-9.38,2.88-3.23,3.78-5.61,3.94-7.12a4.39,4.39,0,0,0-1.08-3.51A12.38,12.38,0,0,0,289.5,248.89Z" style="fill:#aa0e1f"/><path d="M13.63,282.77s-2.5-11.19-7.05-7.15c-3.3,2.93,2.71,16.45,13.48,11.42.1,0,3.46-7.79-6.42-4.27Z" style="fill:#fbcc03;stroke:#705c02;stroke-width:0.9829793572425842px"/><path d="M6.32,275.85a9.59,9.59,0,0,1,6.19-3.92c14.42,11.27,14.81,12.14,1.1,11.07C9.92,272.16,7.26,275.37,6.32,275.85Z" style="fill:#cf1126;stroke:#600812;stroke-linejoin:round;stroke-width:0.9829793572425842px"/><path d="M36.26,273.63l-5.09,5.49a35.09,35.09,0,0,1-11.16,8c2.76-9.67-9-15.91-14.55-21.72-13-14.58,3.68-20.29,3.68-20.29l7.52.42Z" style="fill:#cf1126;stroke:#600812;stroke-width:0.9829793572425842px"/><path d="M9.81,248.89l4.9.27,16.8,24.12-3,3.22a29.18,29.18,0,0,1-5.08,4.28,15.13,15.13,0,0,0-.4-1.79,21.71,21.71,0,0,0-4.6-6.86c-3.66-3.88-8-7-10.34-9.38-2.88-3.23-3.78-5.61-3.94-7.12a4.39,4.39,0,0,1,1.08-3.51,12.38,12.38,0,0,1,4.56-3.23Z" style="fill:#aa0e1f"/><path d="M248.36,295c31.4-23.3,30.28-28.59,30.48-29.64,3.72-19.94,11-20.45,11-20.45L267,233.66a5.64,5.64,0,0,0-2.7-.63c-8.34.28-13.18,21.38-14.29,22.33-3.7,3.15-44.87,40.75-100.4,40.75S53,258.51,49.26,255.36c-1.11-.94-5.95-22-14.29-22.33a5.64,5.64,0,0,0-2.7.63L9.44,244.91s7.31.51,11,20.45c.2,1.05-.92,6.34,30.48,29.64.17-.83,40.44,32.5,98.7,32.5S248.19,294.17,248.36,295Z" style="fill:#fbcc03;stroke:#705c02;stroke-width:0.9829793572425842px"/><path d="M221,280.5a181.11,181.11,0,0,0,21.76-14.31c5.36-4.11,8.9-7.33,9.59-7.91a3,3,0,0,0,1.21-1.65c.18-.37.31-.72.46-1.1.29-.77.61-1.68,1-2.73.74-2.1,1.67-4.74,2.79-7.29a30.94,30.94,0,0,1,3.74-6.58c1.29-1.59,2.3-2.1,2.91-2.12a2,2,0,0,1,1,.26l17.24,8.5c-2.79,3.37-5.59,9-7.46,19.07-.14.75-.08.64-.09.68a1.44,1.44,0,0,1-.12.36,15.59,15.59,0,0,1-2.5,3.68c-3.3,3.93-10.65,10.92-25.94,22.29a6.68,6.68,0,0,0-.66.38c-.42.27-.89.6-1.51,1-1.24.86-3,2.09-5.32,3.6a174.07,174.07,0,0,1-19.86,11.19,160.47,160.47,0,0,1-139.2,0h0A174.07,174.07,0,0,1,60.2,296.66c-2.31-1.51-4.08-2.74-5.32-3.6-.62-.43-1.09-.76-1.51-1a6.68,6.68,0,0,0-.66-.38c-15.29-11.37-22.64-18.36-25.94-22.29a15.59,15.59,0,0,1-2.5-3.68,1.46,1.46,0,0,1-.12-.36s.05.07-.09-.68c-1.87-10-4.67-15.7-7.46-19.07l17.24-8.5a2,2,0,0,1,1-.26c.61,0,1.62.53,2.91,2.12a30.94,30.94,0,0,1,3.74,6.58c1.12,2.54,2.06,5.18,2.79,7.29.37,1.05.68,2,1,2.73.15.38.28.73.46,1.1a3,3,0,0,0,1.21,1.65c.69.59,4.23,3.81,9.59,7.91A181.11,181.11,0,0,0,78.29,280.5c18,10.08,42.77,19.38,71.37,19.38S203,290.58,221,280.5Z" style="fill:#f8d000"/><path d="M43.81,264.46,50,269.67l-1.2,1.21L46.57,269l-4.94,5-1.73-1.46,4.94-5-2.23-1.88Zm6.76,5.61,4.89,3.7L54.34,275l-3.08-2.33-1.07,1.21,2.89,2.19L52,277.38l-2.89-2.19-1.32,1.49,3.18,2.41-1.12,1.27-5-3.77Zm9.51,7,2.44,1.58-1.1,4.78,4.5-2.59,2.43,1.58-5.22,6.89-1.81-1.17,3.82-5-4.53,2.61-1.21-.79,1.1-4.82-3.82,5L54.86,284Zm10.54,14.78-3.11-1.79-1.37,1-2-1.15,7.67-5.5,2.37,1.36-2,8.78-2-1.15ZM68.91,289,71,290.24l.86-3.45Zm8.79-1.25,2,1.05-2.65,4.41a2.37,2.37,0,0,0-.46,1.47,1.33,1.33,0,0,0,.81.93,1.52,1.52,0,0,0,1.29.15,2.6,2.6,0,0,0,1.11-1.14l2.65-4.41,2,1.05-2.65,4.41a3.78,3.78,0,0,1-2.24,1.89,4.35,4.35,0,0,1-3-.56,3.88,3.88,0,0,1-2.11-2.08,3.34,3.34,0,0,1,.55-2.76Zm9.66,9a1.73,1.73,0,0,0,1.07.2,1.1,1.1,0,0,0,.68-.62,1,1,0,0,0,.11-.87,1.61,1.61,0,0,0-.83-.65l-.88-.4-1,1.94Zm-1.6.94-1.52,2.86-2.1-1,4-7.55,3.21,1.45a4.47,4.47,0,0,1,2.09,1.57,1.89,1.89,0,0,1-.09,1.92,2.3,2.3,0,0,1-1,1.05,2.71,2.71,0,0,1-1.55.18,1.6,1.6,0,0,1,.55.76,4,4,0,0,1,.17,1.29V303l-2.24-1v-2.33a2.17,2.17,0,0,0-.2-1,1.49,1.49,0,0,0-.71-.58l-.6-.27Zm8.72-2,2.14.88-3.69,7.69-2.14-.88Zm6.72,2.69,7.85,2.68-.62,1.54-2.82-1L103.06,308l-2.2-.75,2.55-6.35-2.83-1Zm8.55,2.87,6,1.73-.53,1.56-3.8-1.09L111,305l3.57,1-.53,1.56-3.57-1-.62,1.84,3.92,1.13-.53,1.56L107,309.34Zm14,7.41a1.74,1.74,0,0,0,1.09,0,1,1,0,0,0,.51-.75,1,1,0,0,0-.12-.87,1.69,1.69,0,0,0-1-.45l-1-.19-.5,2.11ZM122.4,310l-.74,3.11-2.29-.46,2-8.21,3.49.7a4.69,4.69,0,0,1,2.44,1.06,1.91,1.91,0,0,1,.41,1.89,2.18,2.18,0,0,1-.74,1.25,2.65,2.65,0,0,1-1.46.51,1.69,1.69,0,0,1,.73.62,4.07,4.07,0,0,1,.5,1.21l.69,2.58-2.44-.49-.59-2.26a2.24,2.24,0,0,0-.46-1,1.56,1.56,0,0,0-.84-.41Zm12,3.71-3.62-.5-.82,1.44-2.33-.32,4.69-7.85,2.76.38,2,8.77-2.33-.32Zm-2.79-2,2.46.34-.68-3.48ZM143,309a2,2,0,0,0-1.72.61,3.25,3.25,0,0,0-.76,2,3.16,3.16,0,0,0,.42,2.09,2,2,0,0,0,1.59.84,2,2,0,0,0,1.72-.61,3.24,3.24,0,0,0,.76-2,3.17,3.17,0,0,0-.41-2.1A2,2,0,0,0,143,309Zm.13-1.57a4.76,4.76,0,0,1,3.32,1.39,4.12,4.12,0,0,1,1,3.28,4.23,4.23,0,0,1-1.51,3.1,4.89,4.89,0,0,1-3.52.92,4.76,4.76,0,0,1-3.32-1.39,4.1,4.1,0,0,1-1-3.27,4.23,4.23,0,0,1,1.51-3.11,4.89,4.89,0,0,1,3.52-.92Zm5.9.44,2.34,0-.19,8.4-2.34,0Zm14.18,6.51-3.65.23-.47,1.56-2.35.15,2.76-8.6,2.79-.18,4,8.17-2.35.15ZM160,313.07l2.48-.16-1.48-3.26Zm10.43-4.91a2,2,0,0,0-1.53.95,3.16,3.16,0,0,0-.26,2.12,3.25,3.25,0,0,0,.9,2,2,2,0,0,0,1.76.5,2,2,0,0,0,1.54-.95,3.15,3.15,0,0,0,.27-2.11,3.26,3.26,0,0,0-.9-2,2.06,2.06,0,0,0-1.76-.5Zm-.24-1.55a4.9,4.9,0,0,1,3.58.68,4.26,4.26,0,0,1,1.72,3,4.09,4.09,0,0,1-.73,3.33,4.74,4.74,0,0,1-3.22,1.61,4.9,4.9,0,0,1-3.57-.68,4.25,4.25,0,0,1-1.73-3,4.09,4.09,0,0,1,.74-3.34,4.74,4.74,0,0,1,3.21-1.61Zm8.62-1.25,8.11-1.94.44,1.59-2.92.7,1.81,6.55-2.27.54-1.81-6.55-2.92.7Zm8.71-2.13,6-1.82.55,1.56-3.79,1.14.52,1.49,3.56-1.08.55,1.56-3.56,1.08L192,309,196,307.8l.55,1.56-6.14,1.86Zm10.35-3.3,7.7-3.07.7,1.5-2.77,1.1,2.88,6.21-2.15.86-2.88-6.21-2.77,1.11Zm16.54.49-3.27,1.53.23,1.61-2.1,1-1.07-8.9,2.5-1.17,7.09,6.09-2.1,1Zm-3.51-.1,2.22-1-2.73-2.46Zm8.25-6.46a1.22,1.22,0,0,0,.6-.59.77.77,0,0,0-.11-.71.88.88,0,0,0-.61-.44,1.34,1.34,0,0,0-.85.2l-1.12.61,1,1.54,1.12-.61Zm2.06,3.14a1.56,1.56,0,0,0,.77-.73,1,1,0,0,0-.14-.89,1.08,1.08,0,0,0-.75-.54,1.74,1.74,0,0,0-1.07.26l-1.19.64,1.2,1.9Zm.24-3.63a2.24,2.24,0,0,1,1.42.1,2.38,2.38,0,0,1,1.09,1,2,2,0,0,1,.22,2,4.48,4.48,0,0,1-2,1.78L218.85,300l-4.56-7.25,3-1.64a5.34,5.34,0,0,1,2.66-.82,2,2,0,0,1,1.65,1.07,1.73,1.73,0,0,1,.3,1,1.63,1.63,0,0,1-.43,1Zm4.81-5.79a1.8,1.8,0,0,0-.95,1.46,3.21,3.21,0,0,0,.74,2,3.57,3.57,0,0,0,1.72,1.41,2.09,2.09,0,0,0,1.82-.24,1.8,1.8,0,0,0,1-1.47,3.2,3.2,0,0,0-.74-2,3.58,3.58,0,0,0-1.72-1.41,2.09,2.09,0,0,0-1.83.25Zm-.94-1.31a4.91,4.91,0,0,1,3.55-.8,4.68,4.68,0,0,1,2.95,2,4.09,4.09,0,0,1,.88,3.3,4.32,4.32,0,0,1-2.17,2.73,4.91,4.91,0,0,1-3.55.8,4.67,4.67,0,0,1-2.95-2,4.09,4.09,0,0,1-.88-3.3A4.32,4.32,0,0,1,225.38,286.26Zm5-2.92,2.38-1.67,4.59,2.42L236,279.35l2.37-1.67,5.49,6.68-1.76,1.24-4-4.89,1.29,4.78-1.18.83-4.63-2.43,4,4.89L235.83,290Zm13.58-8.16a1.76,1.76,0,0,0-.75,1.56,3.28,3.28,0,0,0,1,1.92,3.66,3.66,0,0,0,1.89,1.2,2.07,2.07,0,0,0,1.78-.45,1.76,1.76,0,0,0,.76-1.56,3.26,3.26,0,0,0-1-1.91,3.67,3.67,0,0,0-1.89-1.21,2.08,2.08,0,0,0-1.78.45Zm-1.1-1.19a4.85,4.85,0,0,1,3.42-1.19,4.79,4.79,0,0,1,3.19,1.68,4.15,4.15,0,0,1,1.3,3.17,4.21,4.21,0,0,1-1.8,2.95,4.85,4.85,0,0,1-3.42,1.19,4.78,4.78,0,0,1-3.19-1.68,4.15,4.15,0,0,1-1.3-3.18,4.21,4.21,0,0,1,1.8-2.95Zm13.75-2-2.67,2.32.71,1.48-1.72,1.49L249.13,269l2-1.77,8.66,4-1.72,1.49Zm-3.4.82L255,271.2l-3.38-1.65Z"/><path d="M43.52,1V145.64H255.67L255.79,1Z" style="fill:#c81010"/><path d="M154.79,25.4c-17-7-27.46-8.34-39.12-8.46-16.88.12-24.93,7.37-41,8,6.38,6.87,29.48,8.54,39.22-.47,14.48,1.51,17.77,5.42,21.65,10.29-6-1-13-2.7-18.79,3.7-4.88,1-7.13,0-15.47,0-3.89,0-5.24,1.91-5.19,5.36,2.52-3.48,19.92-1.43,24.19,0,3.28,1.1,6.76,5.64,10.91,6.38,10.88,1.94,26.5-3.75,40.9-7.63l31.14-4.12H181.86l26.72-5.36H179.53a19.79,19.79,0,0,0-3.27-2.39C183.73,25.93,190.34,17.18,192,13a135.78,135.78,0,0,0,32.63-3.83C155.74,1.5,171.43,9.72,154.79,25.4Z" style="fill:#f8d000;stroke:#000;stroke-miterlimit:22.925600051879883;stroke-width:0.4000000059604645px"/><path d="M122.92,36.61a1.34,1.34,0,1,1-1.34,1.34A1.34,1.34,0,0,1,122.92,36.61Z"/><path d="M122.92,36.61a1.34,1.34,0,1,1-1.34,1.34A1.34,1.34,0,0,1,122.92,36.61Z" style="fill:none;stroke:#000;stroke-miterlimit:22.925600051879883;stroke-width:0.4000000059604645px"/><path d="M140.84,35.18s-5.6,3.31-9.31,3.31" style="fill:none;stroke:#000;stroke-miterlimit:22.925600051879883;stroke-width:0.4000000059604645px"/><path d="M172.08,42.61s5.12-4.12,9.78-4.12" style="fill:none;stroke:#000;stroke-miterlimit:22.925600051879883;stroke-width:0.4000000059604645px"/><path d="M90.56,23a51.47,51.47,0,0,1,6.13-2.76" style="fill:none;stroke:#000;stroke-miterlimit:22.925600051879883;stroke-width:0.4000000059604645px"/><path d="M107.8,19.85a37.79,37.79,0,0,1,13.95-2.71" style="fill:none;stroke:#000;stroke-miterlimit:22.925600051879883;stroke-width:0.4000000059604645px"/><path d="M125.64,20.55a49.89,49.89,0,0,1,16.64.32" style="fill:none;stroke:#000;stroke-miterlimit:22.925600051879883;stroke-width:0.4000000059604645px"/><path d="M135.59,22.64a36.42,36.42,0,0,1,14.06.74" style="fill:none;stroke:#000;stroke-miterlimit:22.925600051879883;stroke-width:0.4000000059604645px"/><path d="M143,24.82s7.31.1,10.95,1.51" style="fill:none;stroke:#000;stroke-miterlimit:22.925600051879883;stroke-width:0.4000000059604645px"/><path d="M74.65,25s10.26,2.8,18.6-1.21" style="fill:none;stroke:#000;stroke-miterlimit:22.925600051879883;stroke-width:0.4000000059604645px"/><path d="M76,26.2s13.32,3.29,19.41-2.81" style="fill:none;stroke:#000;stroke-miterlimit:22.925600051879883;stroke-width:0.4000000059604645px"/><path d="M80.42,28.5a18.13,18.13,0,0,0,17.93-5.11" style="fill:none;stroke:#000;stroke-miterlimit:22.925600051879883;stroke-width:0.4000000059604645px"/><path d="M89.74,30.53s8.11-2.32,11.18-7.1" style="fill:none;stroke:#000;stroke-miterlimit:22.925600051879883;stroke-width:0.4000000059604645px"/><path d="M96.08,30.66s5.44-3.77,7.39-7.13" style="fill:none;stroke:#000;stroke-miterlimit:22.925600051879883;stroke-width:0.4000000059604645px"/><path d="M166.14,26.41s2.13,2.67,10.13,4.33" style="fill:none;stroke:#000;stroke-miterlimit:22.925600051879883;stroke-width:0.4000000059604645px"/><path d="M167.55,25.15s3.44,3.44,10.6,4.28" style="fill:none;stroke:#000;stroke-miterlimit:22.925600051879883;stroke-width:0.4000000059604645px"/><path d="M169.28,23.54s3.49,3,11.09,4.12" style="fill:none;stroke:#000;stroke-miterlimit:22.925600051879883;stroke-width:0.4000000059604645px"/><path d="M171,21.81a26.64,26.64,0,0,0,11.42,4" style="fill:none;stroke:#000;stroke-miterlimit:22.925600051879883;stroke-width:0.4000000059604645px"/><path d="M173.11,19.56s3.74,3.49,11.16,4.36" style="fill:none;stroke:#000;stroke-miterlimit:22.925600051879883;stroke-width:0.4000000059604645px"/><path d="M174.68,17.77A21,21,0,0,0,186,22.06" style="fill:none;stroke:#000;stroke-miterlimit:22.925600051879883;stroke-width:0.4000000059604645px"/><path d="M176.23,15.89s2.69,3.11,11.55,3.92" style="fill:none;stroke:#000;stroke-miterlimit:22.925600051879883;stroke-width:0.4000000059604645px"/><path d="M177.8,13.87s3,3.29,11.41,4" style="fill:none;stroke:#000;stroke-miterlimit:22.925600051879883;stroke-width:0.4000000059604645px"/><path d="M179,12.2s5.27,4,11.37,3.89" style="fill:none;stroke:#000;stroke-miterlimit:22.925600051879883;stroke-width:0.4000000059604645px"/><path d="M180.06,10.68s7,4.18,11.12,4" style="fill:none;stroke:#000;stroke-miterlimit:22.925600051879883;stroke-width:0.4000000059604645px"/><path d="M181.33,8.75S186.87,12.2,192,13" style="fill:none;stroke:#000;stroke-miterlimit:22.925600051879883;stroke-width:0.4000000059604645px"/><path d="M157.55,28.12a8.19,8.19,0,0,0,4.32,1.62" style="fill:none;stroke:#000;stroke-miterlimit:22.925600051879883;stroke-width:0.4000000059604645px"/><path d="M158.83,26.87a7.72,7.72,0,0,0,4.6,1.64" style="fill:none;stroke:#000;stroke-miterlimit:22.925600051879883;stroke-width:0.4000000059604645px"/><path d="M160.39,25.33A6.58,6.58,0,0,0,165.23,27" style="fill:none;stroke:#000;stroke-miterlimit:22.925600051879883;stroke-width:0.4000000059604645px"/><path d="M161.88,23.85a10.32,10.32,0,0,0,5,1.73" style="fill:none;stroke:#000;stroke-miterlimit:22.925600051879883;stroke-width:0.4000000059604645px"/><path d="M163.52,22.16a8.94,8.94,0,0,0,5,1.85" style="fill:none;stroke:#000;stroke-miterlimit:22.925600051879883;stroke-width:0.4000000059604645px"/><path d="M165,20.31a9.12,9.12,0,0,0,5.2,2.1" style="fill:none;stroke:#000;stroke-miterlimit:22.925600051879883;stroke-width:0.4000000059604645px"/><path d="M166.53,19a12.86,12.86,0,0,0,5.35,1.69" style="fill:none;stroke:#000;stroke-miterlimit:22.925600051879883;stroke-width:0.4000000059604645px"/><path d="M167.93,17.4a28.27,28.27,0,0,0,5.73,1.31" style="fill:none;stroke:#000;stroke-miterlimit:22.925600051879883;stroke-width:0.4000000059604645px"/><path d="M169.55,15.49a10.12,10.12,0,0,0,5.72,1.36" style="fill:none;stroke:#000;stroke-miterlimit:22.925600051879883;stroke-width:0.4000000059604645px"/><path d="M171,13.58a11.39,11.39,0,0,0,5.59,1.66" style="fill:none;stroke:#000;stroke-miterlimit:22.925600051879883;stroke-width:0.4000000059604645px"/><path d="M172.07,11.77s3.29,1.84,6.12,1.43" style="fill:none;stroke:#000;stroke-miterlimit:22.925600051879883;stroke-width:0.4000000059604645px"/><path d="M173.27,9.6a8.14,8.14,0,0,0,6,2.2" style="fill:none;stroke:#000;stroke-miterlimit:22.925600051879883;stroke-width:0.4000000059604645px"/><path d="M174.11,8.62s3.73,2.1,6.26,1.56" style="fill:none;stroke:#000;stroke-miterlimit:22.925600051879883;stroke-width:0.4000000059604645px"/><path d="M175.69,7.43a11.82,11.82,0,0,0,5.42,1.65" style="fill:none;stroke:#000;stroke-miterlimit:22.925600051879883;stroke-width:0.4000000059604645px"/><path d="M178.56,6.56s5,2.57,11.87-.21" style="fill:none;stroke:#000;stroke-miterlimit:22.925600051879883;stroke-width:0.4000000059604645px"/><path d="M182.86,8.39s10.2,2.34,14.62-1.75" style="fill:none;stroke:#000;stroke-miterlimit:22.925600051879883;stroke-width:0.4000000059604645px"/><path d="M190.86,9a40.65,40.65,0,0,0,14.85-1.75" style="fill:none;stroke:#000;stroke-miterlimit:22.925600051879883;stroke-width:0.4000000059604645px"/><path d="M195.52,9s10.64,2.14,29.13.08" style="fill:none;stroke:#000;stroke-miterlimit:22.925600051879883;stroke-width:0.4000000059604645px"/><path d="M99,30.42s4.76-3.13,6.73-6.74" style="fill:none;stroke:#000;stroke-miterlimit:22.925600051879883;stroke-width:0.4000000059604645px"/><path d="M102.54,29.84s3.83-3.71,4.95-6" style="fill:none;stroke:#000;stroke-miterlimit:22.925600051879883;stroke-width:0.4000000059604645px"/><path d="M106.07,28.89s3.15-2.83,3.85-4.81" style="fill:none;stroke:#000;stroke-miterlimit:22.925600051879883;stroke-width:0.4000000059604645px"/><path d="M90.68,23.9s6.84-1.49,23.2.61" style="fill:none;stroke:#000;stroke-miterlimit:22.925600051879883;stroke-width:0.4000000059604645px"/><path d="M97,21.17a47.58,47.58,0,0,1,10.84-3.63" style="fill:none;stroke:#000;stroke-miterlimit:22.925600051879883;stroke-width:0.4000000059604645px"/><path d="M102.7,20a42.23,42.23,0,0,1,10.37-3" style="fill:none;stroke:#000;stroke-miterlimit:22.925600051879883;stroke-width:0.4000000059604645px"/><path d="M112.22,19.64A33.6,33.6,0,0,1,125.1,17.4" style="fill:none;stroke:#000;stroke-miterlimit:22.925600051879883;stroke-width:0.4000000059604645px"/><path d="M119.55,19.69a50,50,0,0,1,15.27-.78" style="fill:none;stroke:#000;stroke-miterlimit:22.925600051879883;stroke-width:0.4000000059604645px"/><path d="M140.82,23.57a50.73,50.73,0,0,1,13,1.46" style="fill:none;stroke:#000;stroke-miterlimit:22.925600051879883;stroke-width:0.4000000059604645px"/><path d="M130.46,21.14s8.69-.46,14.64.63" style="fill:none;stroke:#000;stroke-miterlimit:22.925600051879883;stroke-width:0.4000000059604645px"/><path d="M184.18,8.64s3,2.6,11.36,4.25" style="fill:none;stroke:#000;stroke-miterlimit:22.925600051879883;stroke-width:0.4000000059604645px"/><path d="M188.9,9.06A35.55,35.55,0,0,0,201,12.66" style="fill:none;stroke:#000;stroke-miterlimit:22.925600051879883;stroke-width:0.4000000059604645px"/><path d="M193.82,9.1a41.43,41.43,0,0,0,13.55,3" style="fill:none;stroke:#000;stroke-miterlimit:22.925600051879883;stroke-width:0.4000000059604645px"/><path d="M201.12,9.72a58.3,58.3,0,0,0,15,1.18" style="fill:none;stroke:#000;stroke-miterlimit:22.925600051879883;stroke-width:0.4000000059604645px"/><path d="M116.09,19.55s4.55-1.88,12.63-1.72" style="fill:none;stroke:#000;stroke-miterlimit:22.925600051879883;stroke-width:0.4000000059604645px"/><path d="M146.12,26.37a12.18,12.18,0,0,1,6.13,1.29" style="fill:none;stroke:#000;stroke-miterlimit:22.925600051879883;stroke-width:0.4000000059604645px"/><path d="M135.53,34.8a23.14,23.14,0,0,0,5.31.38,66.1,66.1,0,0,0,13.95-9.78" style="fill:none;stroke:#000;stroke-miterlimit:22.925600051879883;stroke-width:0.4000000059604645px"/><path d="M104.57,133.86a44.64,44.64,0,0,1-31-19.33,44.64,44.64,0,0,0,36.4,3.49" style="fill:#f8d000;stroke:#000;stroke-miterlimit:22.925600051879883;stroke-width:0.4000000059604645px"/><path d="M104.31,144.48,67,132.62l38.89-4.8" style="fill:#f8d000;stroke:#000;stroke-miterlimit:22.925600051879883;stroke-width:0.4000000059604645px"/><path d="M109.94,118A44.64,44.64,0,0,1,88,88.76a44.64,44.64,0,0,0,32.68,16.4" style="fill:#f8d000;stroke:#000;stroke-miterlimit:22.925600051879883;stroke-width:0.4000000059604645px"/><path d="M105.86,127.82,75.32,103.26l38,9.57" style="fill:#f8d000;stroke:#000;stroke-miterlimit:22.925600051879883;stroke-width:0.4000000059604645px"/><path d="M120.66,105.17A44.64,44.64,0,0,1,110.75,70a44.64,44.64,0,0,0,24.56,27.1" style="fill:#f8d000;stroke:#000;stroke-miterlimit:22.925600051879883;stroke-width:0.4000000059604645px"/><path d="M113.31,112.84,93.71,78.92l32,22.65" style="fill:#f8d000;stroke:#000;stroke-miterlimit:22.925600051879883;stroke-width:0.4000000059604645px"/><path d="M135.31,97.07a44.64,44.64,0,0,1,3.47-36.4A44.64,44.64,0,0,0,151.89,94.8" style="fill:#f8d000;stroke:#000;stroke-miterlimit:22.925600051879883;stroke-width:0.4000000059604645px"/><path d="M125.68,101.57l-6-38.72,21.63,32.67" style="fill:#f8d000;stroke:#000;stroke-miterlimit:22.925600051879883;stroke-width:0.4000000059604645px"/><path d="M151.89,94.8a44.64,44.64,0,0,1,16.39-32.69,44.64,44.64,0,0,0-.11,36.57" style="fill:#f8d000;stroke:#000;stroke-miterlimit:22.925600051879883;stroke-width:0.4000000059604645px"/><path d="M141.29,95.52l8.37-38.28L158,95.52" style="fill:#f8d000;stroke:#000;stroke-miterlimit:22.925600051879883;stroke-width:0.4000000059604645px"/><path d="M168.16,98.68a44.64,44.64,0,0,1,27.09-24.56,44.64,44.64,0,0,0-13.31,34.06" style="fill:#f8d000;stroke:#000;stroke-miterlimit:22.925600051879883;stroke-width:0.4000000059604645px"/><path d="M158,95.52l21.63-32.67-6,38.72" style="fill:#f8d000;stroke:#000;stroke-miterlimit:22.925600051879883;stroke-width:0.4000000059604645px"/><path d="M181.95,108.18a44.64,44.64,0,0,1,34.14-13.12A44.64,44.64,0,0,0,191.36,122" style="fill:#f8d000;stroke:#000;stroke-miterlimit:22.925600051879883;stroke-width:0.4000000059604645px"/><path d="M173.63,101.57l32-22.65L186,112.84" style="fill:#f8d000;stroke:#000;stroke-miterlimit:22.925600051879883;stroke-width:0.4000000059604645px"/><path d="M191.36,122a44.64,44.64,0,0,1,36.57.1,44.64,44.64,0,0,0-32.79,16.2" style="fill:#f8d000;stroke:#000;stroke-miterlimit:22.925600051879883;stroke-width:0.4000000059604645px"/><path d="M186,112.84l38-9.57-30.54,24.55" style="fill:#f8d000;stroke:#000;stroke-miterlimit:22.925600051879883;stroke-width:0.4000000059604645px"/><path d="M195.15,138.31a44.64,44.64,0,0,1,34.06,13.3,44.64,44.64,0,0,0-36.42,3.26" style="fill:#f8d000;stroke:#000;stroke-miterlimit:22.925600051879883;stroke-width:0.46000000834465027px"/><path d="M193.45,127.82l38.89,4.8L195,144.48" style="fill:#f8d000;stroke:#000;stroke-miterlimit:22.925600051879883;stroke-width:0.4000000059604645px"/><circle cx="149.65" cy="140.28" r="45.54" style="fill:#f8d000;stroke:#000;stroke-miterlimit:22.925600051879883;stroke-width:0.4000000059604645px"/><path d="M43.52,145.64V165c0,26,28.66,94.82,92.05,103.83h28c63.39-9,92.05-77.8,92.05-103.83l0-19.39Z" style="fill:#183070"/><path d="M116.09,162.27a95.78,95.78,0,0,0,67.13,0c16.93-6.16,32.53-6.2,47.69-.14a85.31,85.31,0,0,0,24.58,5.92c.1-1.24.16-2.42.16-3.52l0-20.58a62.15,62.15,0,0,1-15.85-4.11c-20.6-8.24-42.4-8.28-64.81-.14a71.44,71.44,0,0,1-50.73,0c-22.41-8.15-44.21-8.1-64.81.14a62.11,62.11,0,0,1-16,4.12v20.56c0,1.1.06,2.28.16,3.53a85.27,85.27,0,0,0,24.71-5.93C83.56,156.07,99.16,156.12,116.09,162.27Z" style="fill:#fff"/><path d="M116.09,205.13a95.76,95.76,0,0,0,67.13,0c16.93-6.16,32.53-6.2,47.69-.14a90.15,90.15,0,0,0,11.18,3.65,134.59,134.59,0,0,0,9.54-22.45,64.22,64.22,0,0,1-11.8-3.49c-20.6-8.24-42.4-8.28-64.81-.14a71.43,71.43,0,0,1-50.73,0c-22.41-8.15-44.21-8.1-64.81.14a64.13,64.13,0,0,1-11.93,3.51,134.62,134.62,0,0,0,9.55,22.46A90.07,90.07,0,0,0,68.39,205C83.56,198.93,99.16,199,116.09,205.13Z" style="fill:#fff"/><path d="M233.14,223.22c-18.61-5.78-38.12-5.05-58.12,2.22a71.44,71.44,0,0,1-50.73,0c-20-7.29-39.59-8-58.23-2.18a123.41,123.41,0,0,0,18.09,20.54c10.24-1.24,20.8.15,31.94,4.2a95.77,95.77,0,0,0,67.13,0c11.1-4,21.62-5.43,31.82-4.21A123.44,123.44,0,0,0,233.14,223.22Z" style="fill:#fff"/><path d="M255.65,165c0,27.87-32.86,104.81-106.07,104.81S43.52,192.9,43.52,165V1H255.79Z" style="fill:none"/><path d="M255.65,165c0,27.87-32.86,104.81-106.07,104.81S43.52,192.9,43.52,165V1H255.79Z" style="fill:none"/><path d="M255.65,165c0,27.87-32.86,104.81-106.07,104.81S43.52,192.9,43.52,165V1H255.79Z" style="fill:none"/><path d="M255.66,164.54c0,27.87-32.86,104.81-106.07,104.81S43.52,192.41,43.52,164.54V.5H255.79Z" style="fill:none;stroke:#000;stroke-width:1.1202425956726074px"/></svg>