<svg xmlns="http://www.w3.org/2000/svg" viewBox="0 0 658 729.09"><title>Kosovo</title><path d="M329,1C219.7,1,110.3,19.6,1,55.7,1,311.46-1.21,582.6,329,728,659.12,582.6,657,311.46,657,55.7,547.61,19.6,438.39,1,329,1Zm0,35.51c98.65,0,197.31,16.75,296,49.33,0,230.9,1.94,475.5-296,606.73C31.05,561.34,33,316.74,33,85.84,131.69,53.27,230.35,36.51,329,36.51Z" style="fill:#d0a650;stroke:#034ea2;stroke-width:2px"/><path d="M329,36.51c98.65,0,197.31,16.75,296,49.33,0,230.9,1.94,475.5-296,606.73C31.06,561.34,33,316.74,33,85.84c98.65-32.58,197.31-49.33,296-49.33" style="fill:#034ea2"/><path d="M326.4,189.91c4.18,4.87,7,9.74,7,15.67-3.51,1.73-8.35,2.44-11.15,5.57,17.41-2.44,20.88,17.75,40.38,10.08a5.55,5.55,0,0,0,7,4.18l2.09-5.56c7.64-2.09,5.56,10.44,13.94,8,4.18,3.49,1.38,9.4,4.18,13.59,0,4.87,2.09,9,4.17,13.22,2.09-2.42,3.47-5.91,8.35-4.87,3.47,3.82,6.26,7.31,7,11.48-1.41,8-3.5,15,4.85,19.14v2.44c5.59,2.44,18.12-2.44,18.12,7.31-.71,3.49,3.47.35,4.88,2.44,3.47-1.4,8.35-.69,12.53-.69,3.47,7.31-4.17,12.53-6.26,19.14,3.47,3.47,2.09,9.75,1.38,13.9l-2.09,1c5.56,1,12.53-.67,17.41,2.46l9.06,3.47c4.17-2.42,9-2.79,14.61-2.42,4.18,3.13-1.42,8.35,2.09,10.77,4.88,0,9.06.71,9.73,4.89l.71,1.38c3.47-6.26,13.24-2.09,17.41-6.6,7,0,8.35,7.64,11.82,11.82,1.42,10.81-11.82,15.7-7.64,26.47-2.8,5.22-8.35,9.4-12.53,14.28,1.38.71.67,2.42.67,3.47-4.17,2.46-.67,9.77-6.26,10.44-.67,4.55-9,2.79-6.26,7.68,5.59,7.31-2.76,11.82-2.76,18.45-3.51,3.84-10.48-3.51-10.48,3.84-4.18,1-8.35-3.84-11.11.34-1.42,4.88,2.76,6.6,2.09,11.48,6.94-.71,9,6.26,11.82,10.44l7,7c-7,5.56-16-.71-24.38,2.42-2.09-1,0-3.8-2.09-4.85-2.09-2.46-6.26-2.46-9.73-3.13.67,3.13-5.59,4.18-2.8,8,0,1,1.38,4.18-1.38,4.18-5.59,1.75-4.88-4.85-9.77-2.42-6.26,2.42-1.38,11.82-10.44,10.77,1.38,8.39-13.91,13.94-3.47,21.25,1.38,1.38.67,4.17.67,6.26-6.26,5.59-17.38,3.51-24.35,1.42-5.59-1.42-2.09-8.39-4.17-12.19-2.09-3.5-8.35-5.93-8.35-10.81-4.18-1.72-7.68-2.79-10.48-6.26-9.73,9.4-21.58,18.45-35.49,18.79-6.26,3.13-9.77,15.7-19.5,10.47-3.82,6.27-15.32,0-16,9-4.53,1.75-2.44,7.68-5.22,10.44-1,7,0,12.9,5.91,17.08,2.44,5.22-5.22,5.22-2.09,10.1.71,1.72,0,4.17-1,4.88-2.09,1-2.78,2.09-2.09,4.18-1.73,0-2.44,1-3.82,2.42-1.75,3.47-7.31,5.22-11.15,7.64-3.82,1-6.62-1.72-9-4.17C279,575,275.91,577,272.09,577c-5.57,0-4.53-4.88-8.71-7,1.73-6.26-3.84-9-2.09-14.62,4.53-3.47,12.17-5.93,10.08-13.23-4.86-5.89-3.13-14.62-8-21.59-3.13-2.76-8.35-6.93-6.62-13.57,4.53-5.22,0-11.48-2.44-17-1-4.55-3.82-8.72-3.82-13.94-7.66-4.51-8-16.37-18.81-17.41-7.66,0-9-9.73-16.7-9.06-.71-1.38-2.44-2.42-3.84-3.8-5.56,3.8-12.53-1-19.48.67-4.53-7.64,3.82-18.08-8.37-22.63V419c1.4.67,2.09-.71,2.44-1.42.69-5.22-8.71-5.89-4.87-11.82-2.09-1.75-4.53-2.46-3.13-5.93-5.24-10.77-20.9-9.73-24.38-20.54,2.8-2.42,2.8-4.88,3.84-7a19.71,19.71,0,0,1-2.44-13.2c2.44-.71,3.82-3.84,5.22-6.3-3.13-2.09-7-5.22-10.44-4.17-6.26-1-10.79-5.89-16.37-8.69-1.4-1.38-.69-3.84-.69-5.56,7.66-2.46-1-13.25,8.35-11.85,2.44-3.13,7.66-4.18,11.48-6.62,3.84-.69,7,.71,10.79,1.75,3.13,4.16,8.71,2.42,11.84,5.91,3.13-.71,7-2.44,10.79-.71,0-5.91,2.78-9.4,7-13.57.69-2.42,4.51-4.17,7.64-5.56,5.93,1.38,12.88,1.38,17.08-2.8,2.78,1.75,5.22-1.73,8.35-1.73a13.12,13.12,0,0,1,9.75,2.09c.34-7,12.53-1,15-9.4,2.78-5.57-7.66-7.66-7-12.55-1.73-5.57,2.44-8.35,4.53-12.17,2.44-1,5.22-2.44,8.35-1.75,8-2.78,1.75-19.14,14.63-13.22,0,1.73-.71,3.82.34,4.18,4.53,0,5.22-5.22,8.37-7,1.38-4.87-1.75-10.79,2.42-14.62a7.75,7.75,0,0,0,5.22-2.8c0-3.82-2.09-5.91-5.22-8.35-1,1.74-3.82.35-5.57,1,0-4.18-2.43-7-3.14-10.79-2.09-1-3.13-2.78-2.42-5.22,3.13-3.13,0-10.79,7.31-9.06,2.78-2.43,7.66-.69,10.44-4.87,7.31-4.17,17.06-4.17,22.63-11.84,2.44.35,5.22-2.09,7.66,0,.69,4.53,7.31,2.78,7.31,7" style="fill:#d0a650"/><path d="M288.84,93.79,279.33,64.2,269.7,93.79H238.57l25.19,18.3-9.63,29.59,25.19-18.3,25.07,18.3-9.63-29.59L320,93.79Z" style="fill:#fff"/><path d="M190.92,112.09l-9.51-29.47-9.63,29.47H140.66l25.19,18.3L156.22,160l25.19-18.3L206.49,160l-9.63-29.59,25.19-18.3Z" style="fill:#fff"/><path d="M97.52,141.56,87.9,112.09l-9.51,29.47H47.26l25.19,18.3-9.63,29.59,25.07-18.3,25.19,18.3-9.63-29.59,25.19-18.3Z" style="fill:#fff"/><path d="M369.25,93.79l9.51-29.59,9.63,29.59h31.13l-25.19,18.3,9.63,29.59-25.19-18.3-25.07,18.3,9.63-29.59-25.19-18.3Z" style="fill:#fff"/><path d="M467.16,112.09l9.51-29.47,9.63,29.47h31.13l-25.19,18.3L501.86,160l-25.19-18.3L451.59,160l9.63-29.59L436,112.09Z" style="fill:#fff"/><path d="M560.56,141.56l9.63-29.47,9.51,29.47h31.13l-25.19,18.3,9.63,29.59-25.07-18.3L545,189.45l9.63-29.59-25.19-18.3Z" style="fill:#fff"/></svg>