<svg xmlns="http://www.w3.org/2000/svg" viewBox="0 0 504 570"><title>Kuwait</title><path d="M431.06,71.77c9.4-3.71,16.68-5.76,24,6.31a211.42,211.42,0,0,1,30.17,128.11l-28.71-12.05" style="fill:#fff;stroke:#000;stroke-linejoin:round;stroke-width:4.288392543792725px"/><path d="M368.31,30.94C375.89,24.25,382,19.85,393,28.72c63.22,51,94.72,135.51,70.17,218l-21-23.66" style="fill:#feb402;stroke:#000;stroke-linejoin:round;stroke-width:4.288392543792725px"/><path d="M302.25,15.93c5.36-8.57,10-14.54,23.06-9.18,75.14,30.84,129.44,102.87,129.44,188.95a204.4,204.4,0,0,1-1.9,27.87h0l-21-7.64" style="fill:#fff;stroke:#000;stroke-linejoin:round;stroke-width:4.288392543792725px"/><path d="M252,24.68c0-14.29,14.26-16.07,25.77-14.42C369.84,23.49,441,102.09,441,197.71a190.65,190.65,0,0,1-1.77,26h0l-23,3.65" style="fill:#feb402;stroke:#000;stroke-linejoin:round;stroke-width:4px"/><path d="M72.94,71.77c-9.4-3.71-16.68-5.76-24,6.31A211.42,211.42,0,0,0,18.76,206.19l28.71-12.05" style="fill:#fff;stroke:#000;stroke-linejoin:round;stroke-width:4.288392543792725px"/><path d="M135.69,30.94C128.11,24.25,122,19.85,111,28.72c-63.22,51-94.72,135.51-70.17,218l21-23.66" style="fill:#feb402;stroke:#000;stroke-linejoin:round;stroke-width:4.288392543792725px"/><path d="M201.75,15.93c-5.36-8.57-10-14.54-23.06-9.18C103.55,37.58,49.25,109.61,49.25,195.69a204.4,204.4,0,0,0,1.9,27.87h0l21-7.64" style="fill:#fff;stroke:#000;stroke-linejoin:round;stroke-width:4.288392543792725px"/><path d="M252,24.68c0-14.29-14.26-16.07-25.77-14.42C134.16,23.49,63,102.09,63,197.71a190.66,190.66,0,0,0,1.77,26h0l23,3.65" style="fill:#feb402;stroke:#000;stroke-linejoin:round;stroke-width:4px"/><path d="M253.1,24.13c-94.28,0-170.95,75.36-173.37,169.06a29.21,29.21,0,0,1,.5-4,34.84,34.84,0,0,1,2.31-6.66,36.79,36.79,0,0,1,3.72-6.25,34.61,34.61,0,0,1,5-5.44,30.2,30.2,0,0,1,6.06-4.19,27.25,27.25,0,0,1,3.41-1.47,26.58,26.58,0,0,1,3.66-1,26,26,0,0,1,3.84-.47,26.83,26.83,0,0,1,4,.09,29.38,29.38,0,0,1,4.22.75,33.35,33.35,0,0,1,4.38,1.44,51.24,51.24,0,0,1,0-6,47.38,47.38,0,0,1,.69-5.72,44.17,44.17,0,0,1,1.31-5.37,41.41,41.41,0,0,1,1.91-5,38.22,38.22,0,0,1,2.47-4.53,35.66,35.66,0,0,1,3-4,32.9,32.9,0,0,1,3.44-3.47,31.17,31.17,0,0,1,3.88-2.87,30.12,30.12,0,0,1,4.28-2.22,28.83,28.83,0,0,1,4.56-1.47,30,30,0,0,1,4.91-.75,31,31,0,0,1,5.09.09,34.81,34.81,0,0,1,5.34,1,39.27,39.27,0,0,1,5.47,1.88,46.38,46.38,0,0,1,5.59,2.84,56.22,56.22,0,0,1,5.69,3.88,22.62,22.62,0,0,1,2.78-3.31,14.48,14.48,0,0,1,2.91-2.16,10.73,10.73,0,0,1,2.94-1.16,9.93,9.93,0,0,1,3-.19,11.88,11.88,0,0,1,3,.63,15.92,15.92,0,0,1,2.94,1.41,22.9,22.9,0,0,1,2.88,2.09,32.69,32.69,0,0,1,2.81,2.69,54,54,0,0,1-.81-9.19,34.58,34.58,0,0,1,.78-7.56,21.84,21.84,0,0,1,2.19-5.91,15.65,15.65,0,0,1,1.56-2.28,13.42,13.42,0,0,1,1.84-1.84,12.11,12.11,0,0,1,2.09-1.37,11.6,11.6,0,0,1,2.28-.91,12.91,12.91,0,0,1,2.53-.41,14.32,14.32,0,0,1,2.66.06,19.52,19.52,0,0,1,5.75,1.66,30.88,30.88,0,0,1,6.16,3.75A67.64,67.64,0,0,1,235,102.5a63.4,63.4,0,0,1,7.91-7.06,51.26,51.26,0,0,1,4.41-2.94,43.28,43.28,0,0,1,4.66-2.44,35.31,35.31,0,0,1,4.84-1.72,29.4,29.4,0,0,1,5-.94,25.83,25.83,0,0,1,5.06,0,24.72,24.72,0,0,1,5.09,1.06A26.29,26.29,0,0,1,277,90.66a32,32,0,0,1,5,3.56,41.89,41.89,0,0,1,4.84,5,58.25,58.25,0,0,1,4.69,6.56A82.62,82.62,0,0,1,296,114c1.44,3.05,2.82,6.41,4.16,10.09a57.82,57.82,0,0,1,7.41-.28,35.1,35.1,0,0,1,6.19.69,23.61,23.61,0,0,1,5.13,1.66,19.33,19.33,0,0,1,4.19,2.63,21.14,21.14,0,0,1,3.44,3.59,28.69,28.69,0,0,1,2.75,4.53,46,46,0,0,1,2.25,5.47c.68,2,1.29,4.1,1.88,6.38a26.6,26.6,0,0,1,5.88-3.09,19.82,19.82,0,0,1,5.5-1.22,18.15,18.15,0,0,1,5.09.38,20.06,20.06,0,0,1,4.63,1.63A24.09,24.09,0,0,1,358.5,149a29,29,0,0,1,3.47,3.16,32.86,32.86,0,0,1,2.84,3.5,30.37,30.37,0,0,1,2.13,3.44,51.11,51.11,0,0,1,8.38-5.41,43.64,43.64,0,0,1,8.69-3.31,38.75,38.75,0,0,1,4.34-.91,35.42,35.42,0,0,1,4.28-.34,33.4,33.4,0,0,1,4.22.16A32,32,0,0,1,401,150a30,30,0,0,1,11.25,5.31,32.38,32.38,0,0,1,3.31,2.88,34.18,34.18,0,0,1,3,3.41,38.14,38.14,0,0,1,2.66,4,43.4,43.4,0,0,1,2.31,4.53c.5,1.13.89,2.37,1.31,3.59C413.06,89.28,340.74,24.13,253.1,24.13Z" style="fill:#0182d6"/><path d="M424.52,175.2a174.89,174.89,0,0,1,1.3,22.51c0,95.81-77.76,173.57-173.57,173.57S78.68,293.52,78.68,197.71s-.1,15.29-.1-1.88S96.25,156.41,120,166c-2-32.83,27.27-55.31,57.58-31.82,7.32-10.35,15.91-7.83,23.23,0-4.55-26.52,10.35-36.87,27-24,14.39-20.46,50.06-45,71.49,13.95,21.43-2.14,28.57,6.43,33.21,24.64,16.07-11.07,28.93,1.43,33.57,10.36C387.88,142,415.59,146.63,424.52,175.2Z" style="fill:#fff"/><path d="M348.61,197.15c6.52-.8,15.27,9.11,18.13,10s8.84,1.07,8.84,1.07l-11.16,13.66s-1,.63-3.66.36-8.21-3.48-12.77-7.68-12.05-4.46-12.05-4.46Z" style="fill:#fff;stroke:#000"/><path d="M349.24,197.11c-.21,0-.42,0-.62,0l-1.09,1.13,1.72,5.59c6.16-.54,12.4,8.91,15.34,8.91,1.29,0,4.26.09,7.16.19l3.84-4.72s-6-.2-8.84-1.09S355.68,197,349.24,197.11Z" style="fill:#007a3d"/><path d="M341.65,205.65l-3.41,2.13-2.31,2.34s7.51.24,12.06,4.44,10.07,7.42,12.75,7.69,3.69-.34,3.69-.34l4.53-5.56a28.83,28.83,0,0,1-7.84.09c-4.55-1-9.48-7.14-14-8Z" style="fill:#ce1126"/><path d="M348.61,197.15c6.52-.8,15.27,9.11,18.13,10s8.84,1.07,8.84,1.07l-11.16,13.66s-1,.63-3.66.36-8.21-3.48-12.77-7.68-12.05-4.46-12.05-4.46Z" style="fill:none;stroke:#000"/><path d="M264.46,128.43q23-11.19,46-22.54c5.68.78.67,3-1.81,4.83-14.72,10.17-28.71,22.11-38.6,37.15-6.19,12.25-11.88,24.81-16,37.91,6.28-3,11.9-7.31,17.91-10.87,6.45-11.74,12.29-23.86,19.39-35.21,3.26,2.34,2,7,3.07,10.43,0,7,1.9,11.41,8.13,5.07C317,146,331.36,136.59,345.87,127.4c3.39,4.08-4.73,6.71-5.92,10.38a46.12,46.12,0,0,0-9,13.95c-7.81,6-10.36,16.13-14.72,24.59-1.87,8.17-5.15,16.14-4.57,24.65-.32,8-.77,16,.86,23.9,3.48-.21,7.57.91,10.71-.07,8.77-10.48,16-17.8,25.34-27.77.15,1.63.28-.07,1.59.36-3.12.1,3.19,7.25,2,9.1-2.35,3.8-4.39,1.3-11,2.89-4.1,1.47-4.49,1-7.37,4.65L325,224.87l33.25.8c-8.28,9.37-23.2,36.86-27.41,48.7-42.52,7-88.41,0-135.37,1-3.93-7.85-16.69-21.19-22.47-27.72l-15.29-14.32c-8.84,1-17.73,1.84-26.62,2.13-4-11.87-1.37-24.77,3.19-36,3.29-2.69,3-4.92-.83-6.69,22.13-11.65,45-22.19,67.43-33.31,6.05-18.59,11.9-37.36,18.06-55.86,1.49-2.18,2.1,5,3.69,6.42,3.87,10.93,7.94,21.91,12.58,32.49,9.83-4.55,19.54-9.35,29.29-14.06m-17.33,103.2c6.5,2.79,1.49-11.71.36-7.6-.67,2.53-4.62,5.1-3,7.6Zm12.41,0c2.25-.61,8.6,1.7,7.38-2.25-1.71-2.67-1.25-8.52-5.64-7.29-5.16.23-15-1.28-9.55,6.71C251.48,233.7,256.56,230.91,259.54,231.63Zm12.63-.16c4.85,1.47,2-4.85,4-6.21,3.81,2,7.69-3.22,2.64-3.18-5.14.54-16.47-2.48-11,5.72C268.89,230.46,268.55,232.64,272.16,231.48Zm-138.86-2.1c3.63-5,13.42-3.28,15.12-8.71,1.27-5.14,5.69-.14,8.68.43,1.63.09,9.53-.16,6.55-2.13-8.64-7.21-16.7-15.37-26-21.55-2.23,1.43-2.86,6-4.49,8.65-2.15,8-3.81,16.65-1.5,24.85l1.69-1.54Zm9.25,1.37c3.61-.48,15.86.56,8-4.14-3.23.61-12.74,3-11.2,4.17l3.24,0Zm69.84,0,12.14.1c1.17-4.56-4.78-1.47-7.36-2-3.83.24-16,1.28-15.78,1.81l11,.09Zm24.43.1c4.52,1.24,6.76-1.36,7.93-5.5-.72-3.49-11-.55-13.61,2C229.63,231.71,234,230.86,236.83,230.84Zm-66.12-2.23c5.52,1.12.22-4.61-2.28-4.13-4.21-.31-7.13-.13-2.3,3C167.39,229.36,168.78,228.89,170.71,228.61Zm7.4-1c4.34-2.7.4-5.21-3.66-4-3.27-1.2,3.36,5,3.66,4Zm11.6-.43c6.23,1,14.74-3.35,4.49-2.89l-12.09-.77c-4.45,5.68,2.58,3.91,6,3.75ZM203,225.88C212,225.53,194.15,225.6,203,225.88Zm29.35-1.07c4.21-4.07,15.17.81,15.14-6.29-2-7-2.91-14.46-5.89-21l-12.52,8.07c.53,6.61,1,13.24,2,19.8Zm67.09.46c8.4.61,1.53-1.68-3.27-1.9C291,223.82,297,226.28,299.48,225.27Zm-75.75-.8c3.28-3.1-3.07-4.15-.23,0Zm86.63-.12c0-9.44-1.54-18.89.21-28.28.7-11.93,5.61-23.1,10.22-34-1.75-3.35-3.78-6.62-8-6.84-5.68-1.79-9.69,3.7-14.42,5.87-5.25,3.64,1.7,12.93.63,18.61,2.3,14.61,4.27,29.27,6.83,43.84C307.34,223.83,308.87,224,310.36,224.35Zm-94.07-1.59c4.77.85,4-7,7.51-9.38-.88-20.1-1.7-40.25-2.85-60.36-3.64,1.88-10.22,2-9.45,7.54-3.09,20.16-6.88,40.26-9.26,60.5C206.92,221.69,211.59,222.43,216.3,222.76Zm86,0c3.59-5.2-2.13-17.8-2.14-25.85-1.59-11-3.59-21.91-4.82-32.92-4.56-1.22-1.8,4.74-2.43,7.37.52,16.88.25,33.82,1.81,50.64,2.53.27,5.05.55,7.59.75Zm-48.82-1.52c4.83-.2,12.6.34,7.89-5.89-1.69-5.48-4.71-13.17-7.57-3.47-.29,2.78-6.65,8.08-2.74,9.27l1.13.08Zm26.09-.09c5-3.31,2.33-15.11,4.47-21.33q1.77-15.17,3.51-30.35c-2.35-1.73-5.39,3-8,3.74-3.59,2.51-8.18,4.09-9.51,8.7-3.84,7.28-8.11,14.36-11.25,22,1.58,5.55,4,10.83,6,16.22,4.93.34,9.86.63,14.78,1ZM175.19,220c10.91,1,8.82-14,13-21.17,3.5-11.67,8.06-23.24,10.54-35.09-2.62.42-6.25,2.92-9.25,4.14L139,192.42c-.66,3.18,4.38,4.56,6.06,7l24.11,21.07,6-.51Zm16.71.5c2.64-.83,8.43,1.75,8.85-1.46,3-20.5,6.92-40.9,9.45-61.45-7.09,2.26-11.11,7.25-12,14.85-5,16-10.64,31.91-15.08,48.05h8.76Zm57-3.18c2.45-4.69,6-9.48,7.54-14.35-1.92-3.29-2.13-11.62-5.59-11.48-9.59,3.17-6.41,11.73-3.75,19.49C247.68,213.08,248.16,215.23,248.88,217.31Zm-20-15.12c8.18-3.71,15.67-8.45,10-18.06-2.9-12-5.95-24-8.93-36-3.12,1.59-7.37,2.56-5.46,6.93C226,170.74,227.26,186.54,228.89,202.18Zm29.53-2.79c3-5.49,8.7-13.71,9-18.11-4.89,2.67-9.46,5.87-14.16,8.85C255,192.6,255.92,201.76,258.42,199.4ZM246.82,191c7.63-2,.77-9.05-.18-13.89Q240.85,162,235,146.87c-4.36-1.33-3.4,3.82-2.4,6.4,3.4,13.39,6.52,26.86,10.21,40.17l4-2.48Zm6.06-7.54c5.12-11.8,8.47-24.43,15.6-35.27.27-2.32-3.62-6.64-6.4-6.73-4.18-1-6.55,3.14-9.68,5.12.35-3,.2-7.38-3.31-7.69l-12.61,5.93c4.07,13.82,9.84,27.32,15.24,40.72.27.85.92-1.92,1.17-2.08Zm62-76.76C313.44,105.66,316.3,105.66,314.87,106.67ZM276,171.94c4.29-2.14,8.17-5,12.22-7.56.42-6.26,1.42-12.47,2.13-18.7-5,5.64-7.79,13.73-11.82,20.41C278.1,167.61,274.83,171.41,276,171.94Zm17.47-11.14c3,.12-1.24-11.21-1.15-10.18l-.1,10.18h1.24Zm-86.53-4.31c6.36-1.16,4.71-8.36,6.06-13.16,1-8.16,4.52-23.79,3.64-27.35-5,14.07-9.43,28.31-13.78,42.58Zm9.69-4.85c4.36-.82,4.7-4,4-7.8-.39-9.31-.87-18.61-.79-27.93-2.85,3.18-1.85,8.19-3,12.16-1.41,8.57-2.52,17.2-4.34,25.7l4.2-2.13Zm7.58-3.57c6.13-.48,4.7-4.84,3.31-8.94-2.29-8.27-3.66-17-7-24.82,1.75,11.16,1.82,22.83,3.69,33.77Zm6.44-3.18c6.21-4.08-4.68-18-5.33-21.9C226.74,130.34,228.61,137.64,230.62,144.88Z"/><path d="M94.48,269.17c1.38,3,2.69,5.94,4.24,8.81.74,1.38,1.61,2.68,2.38,4a120.73,120.73,0,0,0,14.08-8.33c8.89-5.78,16.84-10.7,25.21-10.7s16.33,4.92,25.21,10.7,18.71,12.43,30.72,12.43,21.86-6.65,30.75-12.43S243.9,263,252.27,263s16.29,4.92,25.18,10.7,18.71,12.43,30.72,12.43,21.83-6.65,30.72-12.43S355.73,263,364.1,263s16.33,4.92,25.21,10.7a121.91,121.91,0,0,0,14,8.27c.88-1.55,1.86-3,2.69-4.61,1.41-2.68,2.6-5.48,3.87-8.24a92.47,92.47,0,0,1-15-8.36C386,255,376.11,248.31,364.1,248.31s-21.83,6.65-30.72,12.43-16.84,10.7-25.21,10.7-16.29-4.92-25.18-10.7-18.71-12.43-30.72-12.43-21.86,6.65-30.75,12.43-16.84,10.7-25.21,10.7-16.29-4.92-25.18-10.7-18.74-12.43-30.75-12.43-21.83,6.65-30.72,12.43A91.13,91.13,0,0,1,94.48,269.17Z" style="fill:#0182d6"/><path d="M100.17,280.45c1.91,3.42,3.86,6.81,6,10.1.43.67.92,1.29,1.36,2,2.65-1.58,5.2-3.2,7.67-4.81,8.89-5.78,16.84-10.7,25.21-10.7s16.33,4.92,25.21,10.7,18.71,12.4,30.72,12.4,21.86-6.62,30.75-12.4S243.9,277,252.27,277s16.29,4.92,25.18,10.7,18.71,12.4,30.72,12.4,21.83-6.62,30.72-12.4S355.73,277,364.1,277s16.33,4.92,25.21,10.7c2.44,1.59,5,3.18,7.58,4.74.63-1,1.33-1.87,1.95-2.85,1.89-3,3.63-6.09,5.35-9.2-3-1.68-6.11-3.57-9.34-5.67-8.89-5.78-18.74-12.43-30.75-12.43s-21.83,6.65-30.72,12.43-16.84,10.7-25.21,10.7-16.29-4.92-25.18-10.7-18.71-12.43-30.72-12.43-21.86,6.65-30.75,12.43-16.84,10.7-25.21,10.7-16.29-4.92-25.18-10.7-18.74-12.43-30.75-12.43-21.83,6.65-30.72,12.43C106.39,276.85,103.25,278.76,100.17,280.45Z" style="fill:#fff"/><path d="M106.33,290.8c2.52,3.91,5.15,7.74,7.92,11.44l.93-.58c8.89-5.78,16.84-10.7,25.21-10.7s16.33,4.92,25.21,10.7,18.71,12.4,30.72,12.4,21.86-6.62,30.75-12.4S243.9,291,252.27,291s16.29,4.92,25.18,10.7,18.71,12.4,30.72,12.4,21.83-6.62,30.72-12.4S355.73,291,364.1,291s16.33,4.92,25.21,10.7l.8.51c.25-.34.52-.65.77-1,2.5-3.37,4.88-6.88,7.18-10.45-1.07-.68-2.12-1.33-3.22-2.05-8.89-5.78-18.74-12.4-30.75-12.4s-21.83,6.62-30.72,12.4-16.84,10.7-25.21,10.7-16.29-4.92-25.18-10.7-18.71-12.4-30.72-12.4-21.86,6.62-30.75,12.4-16.84,10.7-25.21,10.7-16.29-4.92-25.18-10.7-18.74-12.4-30.75-12.4-21.83,6.62-30.72,12.4C108.53,289.43,107.43,290.1,106.33,290.8Z" style="fill:#0182d6"/><path d="M113.07,300.51c.47.65.88,1.35,1.36,2,2.33,3.11,4.79,6.09,7.27,9,6.38-3.82,12.4-6.6,18.68-6.6,8.38,0,16.33,4.92,25.21,10.7s18.71,12.43,30.72,12.43a35.67,35.67,0,0,0,12.4-2.53,17.07,17.07,0,0,1,1.14-2.88,15.07,15.07,0,0,1,1.95-2.79,15.7,15.7,0,0,1,2.35-2.18,20.77,20.77,0,0,1,5.48-2.88,35.05,35.05,0,0,1,5.6-1.44,35.54,35.54,0,0,1,2.63-6.92,28.53,28.53,0,0,1,3.46-5.29,26.31,26.31,0,0,1,8.17-6.51,28,28,0,0,1,4.08-1.7,29,29,0,0,1,3.65-.9,27,27,0,0,1,4.76-.48,27.5,27.5,0,0,1,6.53.77,25.59,25.59,0,0,1,5.78,2.18,25.13,25.13,0,0,1,4.92,3.37,25.64,25.64,0,0,1,4,4.36,26.54,26.54,0,0,1,4.55,10.86,27.78,27.78,0,0,1,.19,2.82c8.77,5.71,18.45,12.15,30.25,12.15,12,0,21.83-6.65,30.72-12.43s16.84-10.7,25.21-10.7c6.25,0,12.25,2.74,18.59,6.54,2.82-3.32,5.56-6.73,8.2-10.29.17-.23.33-.47.49-.71-8-5.14-16.79-10.22-27.28-10.22-12,0-21.83,6.65-30.72,12.43s-16.84,10.7-25.21,10.7-16.29-4.92-25.18-10.7-18.71-12.43-30.72-12.43-21.86,6.65-30.75,12.43-16.84,10.7-25.21,10.7-16.29-4.92-25.18-10.7-18.74-12.43-30.75-12.43C129.87,290.26,121.08,295.36,113.07,300.51Z" style="fill:#fff"/><path d="M277.73,313.3a27.27,27.27,0,0,1,.37,5.93,27.79,27.79,0,0,1-1.05,6.25c-.34,1.19-.46,2.28-.71,3.43l1.11.71c8.89,5.78,18.71,12.43,30.72,12.43s21.83-6.65,30.72-12.43,16.84-10.7,25.21-10.7a26.88,26.88,0,0,1,9.81,2.21c2.84-2.93,5.64-5.94,8.35-9.1.55-.64,1.06-1.33,1.61-2-6-3.24-12.44-5.8-19.77-5.8-12,0-21.83,6.65-30.72,12.43s-16.84,10.7-25.21,10.7-16.29-4.92-25.18-10.7C281.29,315.56,279.51,314.42,277.73,313.3Z" style="fill:#0182d6"/><path d="M120.53,310.1c1,1.2,1.93,2.45,2.94,3.62,2.24,2.6,4.57,5,6.9,7.5a27.06,27.06,0,0,1,10-2.31c8.38,0,16.33,4.92,25.21,10.7S184.3,342,196.31,342s21.86-6.65,30.75-12.43c-.28-1.19-.71-2.44-1.11-3.62-.92-3.22-10-1.45-17.48.16a16.31,16.31,0,0,1,.93-2.34c-4.38,2.14-8.67,3.56-13.09,3.56-8.38,0-16.29-4.92-25.18-10.7s-18.74-12.43-30.75-12.43C133,304.23,126.54,306.83,120.53,310.1Z" style="fill:#0182d6"/><path d="M276.8,326.7a50.82,50.82,0,0,0-1.39,6.76,39.49,39.49,0,0,0-.22,7.31c0,.56.21,1,.28,1.57.66.43,1.31.81,2,1.25,8.89,5.78,18.71,12.43,30.72,12.43s21.83-6.65,30.72-12.43c7.75-5,14.8-9.21,22-10.26.86-.73,1.72-1.39,2.57-2.15,3.24-2.88,6.45-5.94,9.59-9.13.6-.61,1.17-1.3,1.76-1.92a34.85,34.85,0,0,0-10.73-1.92c-12,0-21.83,6.65-30.72,12.43s-16.84,10.7-25.21,10.7-16.29-4.92-25.18-10.7C281,329.34,278.91,328,276.8,326.7Z" style="fill:#fff"/><path d="M129.43,320.22c1.21,1.29,2.39,2.66,3.62,3.91,3.12,3.17,6.31,6.18,9.53,9.07,7.58.76,14.91,5.11,23,10.38,8.89,5.78,18.71,12.43,30.72,12.43s21.86-6.65,30.75-12.43c1-.65,2-1.23,2.94-1.86a49.39,49.39,0,0,0-1.08-6.47,72.19,72.19,0,0,0-2.47-7.76c-1.66,1-3.33,2.11-4.92,3.14-8.89,5.78-16.84,10.7-25.21,10.7s-16.29-4.92-25.18-10.7S152.4,318.2,140.39,318.2A34.76,34.76,0,0,0,129.43,320.22Z" style="fill:#fff"/><path d="M275.23,339.77c0,.32-.05.68,0,1a30.65,30.65,0,0,0,1.11,6.47,24.89,24.89,0,0,0,2.35,5.58,21.54,21.54,0,0,0,3.5,4.55,20.62,20.62,0,0,0,4.55,3.4,22.31,22.31,0,0,0,5.51,2.12,26.72,26.72,0,0,0,6.34.74,46.45,46.45,0,0,0,8-.74,66.48,66.48,0,0,0,8.63-2.18,91.57,91.57,0,0,0,9.22-3.49c3.14-1.39,6.35-3,9.59-4.78s6.51-3.81,9.81-6,6.61-4.57,9.9-7.11c2.83-2.19,5.62-4.55,8.41-7-11.09.69-20.33,6.82-28.71,12.27-8.89,5.78-16.84,10.7-25.21,10.7s-16.29-4.92-25.18-10.7C280.5,343,277.89,341.36,275.23,339.77Z" style="fill:#0182d6"/><path d="M141.65,332.31c.47.42.92.9,1.39,1.31,3.37,3,6.76,5.89,10.18,8.56s6.86,5.14,10.27,7.44,6.8,4.42,10.15,6.31,6.62,3.57,9.84,5a94.23,94.23,0,0,0,9.4,3.72A67,67,0,0,0,201.7,367a44.17,44.17,0,0,0,6.65.64c6.82-2.43,13-6.31,18.72-10l1.27-.8c0-.06.07-.1.09-.16a23.56,23.56,0,0,0,1.64-6,33.67,33.67,0,0,0,.22-7.15c-.09-1.22-.45-2.61-.65-3.91-2.79,1.65-5.51,3.34-8.1,5-8.89,5.78-16.84,10.7-25.21,10.7s-16.29-4.92-25.18-10.7C162.57,339,153.08,332.76,141.65,332.31Z" style="fill:#0182d6"/><path d="M425.82,197.71A173.57,173.57,0,1,1,252.25,24.14,173.57,173.57,0,0,1,425.82,197.71Z" style="fill:none;stroke:#000;stroke-linejoin:round;stroke-width:4px"/><path d="M341,422.82h0c6.36-2.65,29.88-14.14,29.88-14.14s-6-9.19-14.5-13.43c24.4-3.89,57.1-19.62,72.65-41.19-10.61,0-25.81-1.06-25.81-1.06,56.57-30.76,77.07-69.3,77.07-69.3a131.75,131.75,0,0,1-24-1.06c31.47-35.36,40-83.44,41.72-111-23,20.51-49.5,44.19-75.31,52.33-7.07,73.89-83.78,135.65-124.09,135.65-18,0-27.87-15.48-21.51-36.8,4.82-16.16-6.76-32.73-25.05-32.73-3.29,0-21.1.88-26.76,21-7.07,1.24-16.62,4.42-17.5,16.44,3.54-1.94,9.9-3.54,18.21-4.24,10.25,25.1,1.77,40.3-16.26,40.3-40.3,0-121.27-65.76-128.34-139.65C55.54,215.81,29,192.13,6,171.62c1.77,27.58,10.25,75.66,41.72,111a131.75,131.75,0,0,1-24,1.06s20.51,38.54,77.07,69.3c0,0-15.2,1.06-25.81,1.06,15.56,21.57,48.26,37.3,72.65,41.19-8.49,4.24-14.5,13.43-14.5,13.43s23.51,11.49,29.88,14.14h0" style="fill:#feb402;stroke:#000;stroke-width:3.959778308868408px"/><path d="M252,368.36l-.74.84-1.11,1.24c-13.17,14.92-32.31,21-49.56,23.23s-32.12.68-37.59.68h-2.47v2.47c0,32.32,2.61,62.45,15.25,90.7s35.29,54.48,74.9,79.07l.8.49.53.34.53-.34.77-.49c39.61-24.59,62.26-50.82,74.9-79.07s15.25-58.38,15.25-90.7v-2.47H341c-5.47,0-20.34,1.57-37.59-.68s-36.36-8.32-49.53-23.23l-1.11-1.24Z"/><path d="M164.57,404.68c.43,29.08,3.54,56,14.82,81.24,7.5,16.77,18.63,32.81,35.05,48.29V441.8Z" style="fill:#ce1126"/><path d="M219.2,441.52v97A248.62,248.62,0,0,0,252,562.7a248.76,248.76,0,0,0,32.79-24.13v-97Z" style="fill:#fff"/><path d="M339.42,404.68,289.55,441.8v92.41c16.43-15.47,27.58-31.52,35.08-48.29C335.91,460.7,339,433.75,339.42,404.68Z" style="fill:#007a3d"/><path d="M226.83,321.29c4.38-.87,5.88,4.88,16.06,4.88s16.62-3.75,20.37-4.75c-6.94,5.75-17.56,12.19-35.44,4m17.75-21.69c5.75,0,11.06,4.56,11.06,4.56H234.77S239.42,303.66,245.58,303.73Z"/><path d="M252.25,24.13A173.24,173.24,0,0,0,117.06,88.91L152.46,116S188.65,68,252,68s99.53,48,99.53,48l35.75-27.34A173.29,173.29,0,0,0,252.25,24.13Z" style="fill:#fff;stroke:#000;stroke-width:3px"/><path d="M78.58,195.83c0-17.17,17.66-39.43,41.4-29.83-2-32.83,27.27-55.31,57.58-31.82,7.32-10.35,15.91-7.83,23.23,0-4.55-26.52,10.35-36.87,27-24,14.39-20.46,50.06-45,71.49,13.95,21.43-2.14,28.57,6.43,33.21,24.64,16.07-11.07,28.93,1.43,33.57,10.36,21.79-17.14,49.64-12.5,58.57,16.07" style="fill:none;stroke:#000;stroke-width:4px"/><path d="M144.41,81.15a3,3,0,1,1-3-3A3,3,0,0,1,144.41,81.15Zm4.42-3.66a3,3,0,1,1-3-3A3,3,0,0,1,148.82,77.49ZM165.24,88.6a3,3,0,1,1-3-3A3,3,0,0,1,165.24,88.6Zm4.42-3.66a3,3,0,1,1-3-3A3,3,0,0,1,169.66,84.94ZM134.05,95.29c.88-.63,2.53,3,5.68,3,1.66,0,6.86-2.44,10.81-6.37,3.55-3.53,6-8.42,6-10.93a22.37,22.37,0,0,0-1.39-6.31s6.57,1.14,6.57-.38-3.54-3.54-3.54-6.06,7.45,2.65,7.45,6.44-3.66,3.79-5.18,5.18,0,8.71-7.83,16.29-12.88,6.94-15.91,3.79S132.28,96.81,134.05,95.29Zm36.37-4h0c2.78-4.17,9.6-11.36,9.6-19.57-3.73,2.15-10.73,6.19-10.73-4.55s10.48-1.52,13.89-1.52c3.91,0,47-17.17,45.46-20s-27,12.88-38.26,12.88-3.6-9.91,6.57-20.08c2.71-2.71,3.28.76-.13,4.17s-9.34,10.23-7.2,11.62,29.17-13.38,37.88-13.38,7.7,2.78,7.7,4.42-2.4,4.29-2.4,6.57a4.83,4.83,0,0,0,4.92,4.92c3.28,0,5.56-2.15,5.56-6.82s-4.55-15.91-4.67-18.18,5.68-2.15,5.18,1,1.52,15.66,1.52,19.32-1.71,10.32-7.7,8.71A8.86,8.86,0,0,1,230.9,51c-7.58,4.29-32.7,17.8-48.11,17.8C182.79,78.12,185.19,82.29,170.42,91.25ZM253.5,29.63c-2.4,2.27-.76,21.59-.51,25.25C256.15,49.08,254.51,33.8,253.5,29.63Zm25.63,7.83c0,11.11-3.79,13.51,8.71,21.47s18.31,9.85,26.26,9.85,13.26-17.55,14.39-19.32,3.66,2,1.26,5.18-2.53,2.4-5.05,8.08-2.65,9-11.36,9-20.08-2.53-28.41-8.84-8.71-10.73-8.71-13.51c-2.53,2.65-5.93,3.28-9.09-.38s-2.27-5.68,3.54-5.68,6.06-.76,7.07-3.28S278.88,36.2,279.13,37.46ZM263,34.05c.13-1.89,3.66-2.53,5.18-2.53s.76,1.89,2.27,1.89,2.78-1.26,3.91-1.26a2.13,2.13,0,0,1,2.15,2.4,3.28,3.28,0,0,1-3.54,3c-1.77-.25-1.77-2-3.54-2s-1.64,1.14-3.54,1.14S262.85,36.07,263,34.05Zm42.81,16.6c5.49,0,8.46.19,9.66-.06S313,53.12,306,53s-10.29-3.09-8.59-3.72S299.65,50.66,305.78,50.66ZM348.2,75c0,6.69-2.4,12.25-15,12.25S316.89,77,318.91,77.87s5.56,6.82,15.78,6.82c6.31,0,9.34-1,8.21-2.65S338,81.28,338,75.47s3.16-5.81,5.93-5.81S348.08,71.81,348.2,75Zm12.88,11c2.9,0,3.28,4.42,3.28,7.83S363,104.13,357,104.13s-12.12-5.93-12.12-8.71,1.64-3.28,2.65-3.28S351.49,100,357,100s3.54-2.9,3.54-5.93-2-2.4-2-4.42S358.56,85.82,361.08,85.95Zm9.85-4.8c0,.76-15.4-.25-16.67-2.15s5.56.76,10,.76S372.32,79.63,370.93,81.15Z"/></svg>