<svg xmlns="http://www.w3.org/2000/svg" viewBox="0 0 171.82 208"><title>Lebanon</title><path d="M147.16,3.63,5.85,99.89C-2,106.21-4,154.29,33.31,175.35L162.67,90.48c-8.13-14.62-28.06-41.18,3.69-62A188.68,188.68,0,0,1,147.16,3.63Z" style="fill:#fff"/><path d="M162.36,90.79,33,175.87l35.82,15.92,17.66,14.93C89,202.36,96,197,104.4,191.3,158.14,170.58,184.81,143.38,162.36,90.79Z" style="fill:#ed1c24"/><path d="M24.38,4.31,6,29S21.42,36.3,23,54c.86,9.9-17.58,46.07-17.58,46.07L141.17,7.75c-5.82,1.88-8.44,4.63-19.6,5.05.6-4.85.55-9.41-3.64-12.12-21.1,9.58-41.88,8.8-62.44.61C50.24,3.2,50.49,8.11,51,13.2,38.85,11.89,32.66,7.58,24.38,4.31Z" style="fill:#ed1c24"/><path d="M57.38,1.68C52.87.42,47.65,6.1,50.77,13c-12.31-.52-18-5.65-26.4-9.45-6.28,10-12.56,18.81-18.84,25.26,0,0,17.33,13.5,17.64,23.52.74,24.37-33.46,51.6-18.28,90.38C19.36,179.64,59.1,186,68,191.59c15,9.53,17.24,15.32,18,15.41.43.05,3.83-7,18-15.41,7.13-4.24,48.59-11.95,63.06-48.93,15.18-38.78-19-66-18.28-90.38.31-10,17.64-23.52,17.64-23.52C160,22.32,153.73,13.48,147.45,3.51c-8.37,3.8-14.09,8.93-26.4,9.45,3.12-6.86-.24-13.88-6-11.48C93.58,10.38,78.64,7.59,57.38,1.68Z" style="fill:none;stroke:#000;stroke-width:2px"/><path d="M55.17,7.64c3.86-1,7.55,5.86-3.45,5.84" style="fill:none;stroke:#000"/><path d="M116.65,7.64c-3.86-1-7.55,5.86,3.45,5.84" style="fill:none;stroke:#000"/><path d="M32.87,175.51,162.33,90.36" style="fill:none"/><path d="M5.47,100.2,147.24,3.78" style="fill:none"/><path d="M84.82,47.21l-1.31,2.19a16.41,16.41,0,0,1-3.88,4,24.07,24.07,0,0,0-3.79,3.31L74.61,58.2l1.31-.34A19.5,19.5,0,0,0,78,57.18c.43-.18.78-.08.78.23,0,0,0,0,0,0v.06c-.19.77-2.44,2.54-4.23,3.28s-4.25,2.56-4.58,3.3l0,.06v0s0,0,0,0h0v.05h0l0,0a2.18,2.18,0,0,0,1.39,0c1.12-.25,1.58-.09,1.94.67.56,1.16.24,1.69-1.06,1.69-1.57,0-3.8,1.58-4.11,2.9-.2.89-1.06,1.62-2.9,2.46-3,1.37-6.88,4-7.15,4.8a.32.32,0,0,0,0,.07c0,1.14,2.53,1.06,6.19-.2.82-.28,1.18,0,1.8,1.42.77,1.75.75,1.79-1,4.09-1.25,1.61-2.34,2.44-3.53,2.69-2.37.5-3.11,1-6.18,4a13.36,13.36,0,0,1-3.28,2.7.45.45,0,0,0-.26.06h0s0,0,0,0h0v.07a4.65,4.65,0,0,0,2.78,1.35,9.15,9.15,0,0,0,3.62-1.7c2.31-1.64,2.43-1.66,3.36-.73a3.74,3.74,0,0,1,1,2.28c0,1.1-.59,1.6-3.62,3.14A29.72,29.72,0,0,0,52,101.46c-2.77,2.77-3.56,3.28-4.74,3.09a3.23,3.23,0,0,0-1.29-.09h0a.14.14,0,0,0,0,0c0,.14.25.43.7.93a3.36,3.36,0,0,0,2.19.85c2.12,0,8.83-2.5,10.9-4.06s3.79-1.72,5.33-.81c2.39,1.41-1.61,4.26-9.15,6.5a53.54,53.54,0,0,0-5.48,1.83h0c-.11.18.05.65.38,1.08.79,1,4.75,1.1,8.13.09a80.67,80.67,0,0,0,7.49-3c5-2.27,5-2.27,6.79-1.35,4.08,2.13,3.7,5.86-1.2,12a12,12,0,0,1-7.47,4.7c-1.27.31-3.89,2.78-3.89,3.66a.66.66,0,0,0,0,.22h.88a2.91,2.91,0,0,0,.59-.6,7.1,7.1,0,0,1,5.48-2.41,12.1,12.1,0,0,0,7.56-3.39c1.94-1.81,3.9-2.35,5.37-1.48a2.67,2.67,0,0,0,2.55.16c1.76-.67,2.62-.34,2.62,1a2.65,2.65,0,0,0,1.46,1.86,20.08,20.08,0,0,1,3.2,2.51c.72.7,1.25,1,1.53,1H92l0,0h0v-.09s0,0,0,0a3.78,3.78,0,0,0-.76-1.8,2.24,2.24,0,0,1-.44-1.28v-.06h0l0,0H91a15.87,15.87,0,0,1,3.71.15c3.13.36,3.51.55,5.35,2.69a7.79,7.79,0,0,0,2.27,2h1.26a.84.84,0,0,0,.5-.47v0s0,0,0,0,0,0,0,0,0,0,0,0h0a26.51,26.51,0,0,0-4.18-4c-5.05-4.21-5.82-5.76-5.84-11.59,0-3.49.16-4.39,1-5.29,1.27-1.4,2-1.37,5.1.26,2.36,1.23,3.09,1.33,8.46,1.22,5.76-.12,5.93-.09,8.83,1.61,1.62,1,3.61,2.23,4.42,2.84,1.79,1.35,3.61,1.44,4,.21.51-1.46-2.9-4.28-9.3-7.69s-7-4.34-4.1-5.88c1.67-.88,1.78-.86,4.43.61,2.12,1.18,3.09,1.44,4.45,1.16l1.74-.36-3.82-3.13a45.48,45.48,0,0,1-4.52-4.07,6.93,6.93,0,0,0-5.4-2.5,4.25,4.25,0,0,1-2.18-.43l0,0h0v0c-.6-1.07,1.2-1.57,6.22-1.77,6.76-.27,7.69-1.05,3-2.56-1.86-.6-4.65-1.36-6.2-1.7-1.89-.41-2.94-.85-3.2-1.36a.65.65,0,0,1-.06-.19.71.71,0,0,1,0-.15,1.07,1.07,0,0,1,.3-.55c.32-.35,1.83-.31,4.42.12,2.9.49,4.48.6,4.77.26s-1-1.36-4-3a42,42,0,0,1-7.62-5.41,23.62,23.62,0,0,0-5-3.81c-1.64-.77-2.17-1.3-2-1.9.37-1.06,2.94-1.07,4.61,0a9.14,9.14,0,0,0,3.94.76l2.71,0-1.79-.73c-1.79-.73-6.66-4.19-7-5l0-.05s0,0,0,0h0a7.72,7.72,0,0,1,2.67-.14l2.71.16-3.9-3c-2.86-2.2-4.62-3.15-6.64-3.58-1.51-.32-3.24-.7-3.84-.84-1.62-.38-4.33-3.21-5.44-5.67ZM75.94,62.38h.19a1.34,1.34,0,0,1,1,.31l0,0v0a.38.38,0,0,1,0,.09v0s0,0,0,0,0,0,0,0V63a3.89,3.89,0,0,1-1.26,1.42c-.45.33-.72.51-.88.49H75l0,0a2.21,2.21,0,0,1-.12-1.06c0-1.09.2-1.39,1.09-1.43Zm13.15,1.35h0a1.25,1.25,0,0,1,1.39,1c.13.74-.18.95-1.39.95-.68,0-1.07-.07-1.26-.26a.75.75,0,0,1-.11-.69A1.23,1.23,0,0,1,89.09,63.74Zm-3.85.32c.67-.05.93.34.93,1.19,0,1-.39,1.33-2.22,1.8a6.66,6.66,0,0,1-2.44.32h0c-.63-.7-.08-1.59,1.5-2.42a6.72,6.72,0,0,1,2.25-.86Zm8.86,0c1,0,1.1.43.62,1.8a1.64,1.64,0,0,1-1.51.85c-1,0-1.18-.24-1.06-1.22s.54-1.27,1.51-1.39Zm-15,2.65h.1c1.18,0,.45,2.23-1.08,3.26-1.36.91-2.8,1.3-3.2.95h0a.34.34,0,0,1-.07-.09v-.07s0,0,0,0,0,0,0-.05h0c0-1.22,2.89-3.81,4.29-3.93Zm11.13,5.17c.56-.07.92.55.73,1.69a1.57,1.57,0,0,1-1.52,1.18c-.65.08-1,.05-1.2-.12h0l0,0v0h0v0c-.08-.3.24-.87.93-1.78a1.89,1.89,0,0,1,1.12-.84Zm-4.43.25h.08c1.13,0,1.32,1,.29,1.6a4.69,4.69,0,0,1-1.09.51h0l-1.39-.46-1.23-.42,1.39-.62A7.67,7.67,0,0,1,85.85,72.14Zm9.54,1.25a3.86,3.86,0,0,1,1.68.31c1,.43,1.22.8,1,1.93-.26,1.53-1.1,1.7-3.95.79-1.4-.45-1.54-.66-1.09-1.58A2.66,2.66,0,0,1,95.4,73.39Zm-21.13.37h.09c2.07,0,2.36.36,1.35,1.69A11,11,0,0,1,74.28,77c-.69.58-.91.52-1.35-.4-.53-1.08-.69-1.8-.43-2.23S73.32,73.78,74.27,73.77Zm-5.46.92c.88,0,1.43.39,2.13,1.6l1,1.71-1.48.57c-1.35.52-1.58.42-2.7-1.16-.71-1-1-1.65-.78-2.07a.71.71,0,0,1,.07-.11l0,0,0,0a2.58,2.58,0,0,1,1.54-.46Zm32.64,5.11a1.6,1.6,0,0,1,1.84,1.73c-.18,1.42-1.73,1.83-3,.8-.76-.61-.79-.84-.2-1.73A1.78,1.78,0,0,1,101.46,79.79ZM82.93,82.45H83a.67.67,0,0,1,.23,0l.12.06,0,0,0,0,0,0,0,0a1.33,1.33,0,0,1,.14,1c-.19,1.46-1.16,1.89-1.58.7S82,82.5,82.93,82.45Zm-6.19,1.12a2.73,2.73,0,0,1,1.78.79,1.48,1.48,0,0,1,.65,1,.67.67,0,0,1,0,.08v.05l0,0,0,.05v0l0,0-.06.06,0,0c-.28.22-.89.17-1.58-.36a3,3,0,0,1-1.09-1.31s0,0,0,0,0,0,0,0a.42.42,0,0,1,.4-.47Zm9.85.21c.19,0,.39.17.73.54a6,6,0,0,1,1.09,2c.43,1.5-.25,2.13-1.59,1.45a2,2,0,0,1-1-3.2c.32-.5.51-.75.72-.77Zm3.44,2c.36,0,.86.5,1,1.42a1.47,1.47,0,0,1-.17,1.13h-.11c-.7,0-1.1-.63-1.1-1.76,0-.54.18-.8.41-.83ZM68.44,88a9.6,9.6,0,0,1,1.77.12,2.72,2.72,0,0,1,1.37.57.66.66,0,0,1,.11.17.58.58,0,0,1,0,.09.54.54,0,0,1,0,.19c-.08.42-.69.94-1.81,1.53a15.15,15.15,0,0,1-3.51,1.25c-1.66.32-1.89.2-2.59-1.28a11.86,11.86,0,0,1-.76-1.87h0s0,0,0,0h0v0h0c.35-.36,3.23-.7,5.35-.7Zm33.47,4.87c1.94-.09,3,1.23.88,2.85a3.81,3.81,0,0,1-4.58.09c-.89-.72-.84-.82.77-1.9A5.82,5.82,0,0,1,101.91,92.85ZM109,94.38h.1a3.36,3.36,0,0,1,1.47.76c.94.75.93.8-.24,2.18a5.16,5.16,0,0,1-1.43,1.31h0c-.16,0-1-.18-1.89-.3s-1.6-.53-1.6-1a.48.48,0,0,1,0-.07c.16-.81,2.58-2.74,3.61-2.86Zm-35.5,2.16h.31c1.33,0,2.07,1.1,2.07,3.09,0,2.68-1.63,2.46-2.39-.31-.66-2.42-.72-2.74,0-2.78Zm10.15.76a7,7,0,0,1,3,.73h0A8.64,8.64,0,0,1,85.48,100l-1.15,1.55-.6-2a8.4,8.4,0,0,1-.44-2.12h.08a.86.86,0,0,1,.26,0Zm-4.94.88a3.39,3.39,0,0,1,.69.07,1.62,1.62,0,0,1,1.31,1.19,2.05,2.05,0,0,1-.11,1.4l0,.06-.06.05,0,0-.11.05h-.15c-.33,0-.75-.45-1.12-1.24s-.62-1.34-.55-1.52l0,0a.25.25,0,0,1,.15-.06Z" style="fill:#00a651"/></svg>