<svg xmlns="http://www.w3.org/2000/svg" viewBox="0 0 699 737"><title>Liberia</title><path d="M613.84,416c-3.62-38.29-21.11-78.4-35-108.25-16.28-35-25-57.59-29.25-71.77-7.54-25,10.85-40.1,10.85-40.1-88-6.63-96.79-81.42-96.79-81.42-74.78,29.25-101-14.17-106.44-20.81C352.1,87,349.69,74,349.69,74s-2.11,13-7.54,19.6-31.36,50.05-106.44,20.81c0,0-8.74,74.78-96.79,81.42,0,0,16.58,11.76,10.85,40.1-2.71,14.48-13,36.79-29.25,71.77-13.87,29.85-31.36,70-35,108.55l528.29-.3Z" style="fill:#007cc3"/><path d="M124.15,514.28c-5.43-.3-12.06,1.51-23.82,1.81-12.67-30.45-15.08-60.61-15.68-81.41,0-6,.3-12.36.9-18.39h528l.3-.3c.6,6.33.91,12.66.91,18.7,0,3.32-.3,6.63-.6,10.25-.3,8.44-17.19-3.62-25,1.2-1.2.91,0,3.32.6,5.13,0,.6.9,1.51,1.2,2.11.6,1.51.6,3.32.91,4.23,1.81,2.71,3.92,5.43,6.94,6.63-.6.3-.91.9-1.21.9-3.62,1.21-7.54-.9-11.16.6-6,3-13.57.9-20.2,1.21h.6c-7.54.3-15.08-1.51-22.31.6-5.12,1.51-9,4.82-13.57,6.33.91,2.71,2.72,4.82,2.11,7.84,1.51.3,1.81,2.41,3.32,2.41,4.22.6,8.74-.3,13,.9,1.21.3,1.51,2.41,2.11,2.71,2.71,1.21,5.13,2.71,7.84,3.32,2.11.6,5.13.3,7.24,1.81a8.58,8.58,0,0,1,3.32,2.41c-2.72-.6-3.62,1.81-6,2.41-5.73,1.21-11.16-2.41-16.59-2.11-10.86.3-21.41-1.81-32.27-1.51.3,0,.3-.3.6-.6-9.65,1.21-19.6-.6-28.95,1.81-2.71.6-4.83,2.71-6.94,1.21-5.43-3.92-11.46-2.41-17.19-3-3.92,5.13-9.65,6.63-16,6a38.29,38.29,0,0,0-5.13.6c-3.31,1.21-.6,3.62.91,5.13.3,0,0,1.21,0,1.21-5.73,2.11-12.06,4.22-17.79,2.71-4.22-.9-10,3.92-12.36.3-1.2-1.51,0-5.73-3.62-6-3.32,0-6-.91-9.65-1.81-3.62-1.21-7.24,1.51-10.25,0-1.81-1.21-3.92-1.51-6-2.11-2.11-.3-4.82-.6-6.33.9-.6.9,1.51,3.92.9,3.92-9,2.41-18.09,1.81-27.14,1.81h.9c-3-1.81-6.63-1.51-10.25-3a23.48,23.48,0,0,0-13-1.21c-1.51.3-2.11,1.51-3,2.71-2.71,3.62-7.54,3-11.46,3.92a16.55,16.55,0,0,1-5.12,1.51c-6.63.9-13.27,0-19.9,0-.3,0-.3,1.81-.6,1.81-3.62.3-5.73,2.41-9.35.6-6.63-3-16-.9-22.31,3.62-3,2.41-7.24,2.41-10.85,2.11-11.16-.3-22,0-32.87-3.62-.3,0-.3-1.51.3-1.51,2.11.6,3.32-.6,4.22-1.81.3,0,.3-1.21,0-1.21a46,46,0,0,0-18.09-2.11c-1.51.3-1.81,2.71-3.32,3.62h.9c-5.12.3-10.55,1.81-15.68,1.81-10.25,0-20.2.6-30.46-.6-1.21,0,0-1.51,0-2.41a13.39,13.39,0,0,0,6-.9c1.81-.6,2.41-4.22,0-4.82-3.32-.6-6.94.9-10.25,1.21-4.22.6-8.44-.3-12.66-.6-.9,0,0,2.11-.6,2.11-2.71,1.51-2.71,5.13-5.73,6.33-.91.3-2.11-.6-2.72.6Z" style="fill:#3f5fa5"/><path d="M124.15,514.28c-5.43-.3-12.06,1.51-23.82,1.81-12.67-30.45-15.08-60.61-15.68-81.41,0-6,.3-12.36.9-18.39h528l.3-.3c.6,6.33.91,12.66.91,18.7,0,3.32-.3,6.63-.6,10.25-.3,8.44-17.19-3.62-25,1.2-1.2.91,0,3.32.6,5.13,0,.6.9,1.51,1.2,2.11.6,1.51.6,3.32.91,4.23,1.81,2.71,3.92,5.43,6.94,6.63-.6.3-.91.9-1.21.9-3.62,1.21-7.54-.9-11.16.6-6,3-13.57.9-20.2,1.21h.6c-7.54.3-15.08-1.51-22.31.6-5.12,1.51-9,4.82-13.57,6.33.91,2.71,2.72,4.82,2.11,7.84,1.51.3,1.81,2.41,3.32,2.41,4.22.6,8.74-.3,13,.9,1.21.3,1.51,2.41,2.11,2.71,2.71,1.21,5.13,2.71,7.84,3.32,2.11.6,5.13.3,7.24,1.81a8.58,8.58,0,0,1,3.32,2.41c-2.72-.6-3.62,1.81-6,2.41-5.73,1.21-11.16-2.41-16.59-2.11-10.86.3-21.41-1.81-32.27-1.51.3,0,.3-.3.6-.6-9.65,1.21-19.6-.6-28.95,1.81-2.71.6-4.83,2.71-6.94,1.21-5.43-3.92-11.46-2.41-17.19-3-3.92,5.13-9.65,6.63-16,6a38.29,38.29,0,0,0-5.13.6c-3.31,1.21-.6,3.62.91,5.13.3,0,0,1.21,0,1.21-5.73,2.11-12.06,4.22-17.79,2.71-4.22-.9-10,3.92-12.36.3-1.2-1.51,0-5.73-3.62-6-3.32,0-6-.91-9.65-1.81-3.62-1.21-7.24,1.51-10.25,0-1.81-1.21-3.92-1.51-6-2.11-2.11-.3-4.82-.6-6.33.9-.6.9,1.51,3.92.9,3.92-9,2.41-18.09,1.81-27.14,1.81h.9c-3-1.81-6.63-1.51-10.25-3a23.48,23.48,0,0,0-13-1.21c-1.51.3-2.11,1.51-3,2.71-2.71,3.62-7.54,3-11.46,3.92a16.55,16.55,0,0,1-5.12,1.51c-6.63.9-13.27,0-19.9,0-.3,0-.3,1.81-.6,1.81-3.62.3-5.73,2.41-9.35.6-6.63-3-16-.9-22.31,3.62-3,2.41-7.24,2.41-10.85,2.11-11.16-.3-22,0-32.87-3.62-.3,0-.3-1.51.3-1.51,2.11.6,3.32-.6,4.22-1.81.3,0,0-1.21,0-1.21a46,46,0,0,0-18.09-2.11c-1.51.3-1.81,2.71-3.32,3.62h.9c-5.12.3-10.55,1.81-15.68,1.81-10.25,0-20.2.6-30.46-.6-1.21,0,0-1.51,0-2.41a13.39,13.39,0,0,0,6-.9c1.81-.6,2.41-4.22,0-4.82-3.32-.6-6.94.9-10.25,1.21-4.22.6-8.44-.3-12.66-.6-.9,0,0,2.11-.6,2.11-2.71,1.51-2.71,5.13-5.73,6.33-.91.3-2.11-.6-2.72.6Z" style="fill:none;stroke:#000;stroke-miterlimit:2.613100051879883;stroke-width:0.6000000238418579px"/><path d="M599.06,516.08c-13.57,33.17-39.2,66.94-87.44,89,0,0-23.52,18.7-52.77,14.17,0,0-34.07,17.49-45.23,20.8-10.55,3-41.61,13.87-63.32,40.71h-1.21C327.38,653.88,296.32,643,285.77,640c-11.16-3.31-45.23-20.8-45.23-20.8C211.29,623.73,187.77,605,187.77,605c-48.25-22-73.87-55.78-87.44-89,11.76-.3,18.39-2.11,23.82-1.81a6,6,0,0,0,2.71-.6c3-1.21,3-4.82,5.73-6.33.6,0-.3-2.11.6-2.11,4.22.3,8.44,1.21,12.66.6,3.32-.3,6.93-1.81,10.25-1.21,2.41.6,1.81,4.22,0,4.82a13.39,13.39,0,0,1-6,.9c0,.9-1.21,2.41,0,2.41,10.25,1.21,20.2.6,30.46.6,5.13,0,10.55-1.51,15.68-1.81h-.9c1.51-.9,1.81-3.32,3.32-3.62a46,46,0,0,1,18.09,2.11c.3,0,.3,1.21,0,1.21-.91,1.2-2.11,2.41-4.22,1.81-.6,0-.6,1.51-.3,1.51,10.86,3.62,21.71,3.32,32.87,3.62,3.62.3,7.84.3,10.85-2.11,6.33-4.52,15.68-6.63,22.31-3.62,3.62,1.81,5.73-.3,9.35-.6.3,0,.3-1.81.6-1.81,6.64,0,13.27.9,19.9,0a16.55,16.55,0,0,0,5.13-1.51c3.92-.9,8.74-.3,11.46-3.92.9-1.21,1.51-2.41,3-2.71a23.48,23.48,0,0,1,13,1.21c3.62,1.51,7.24,1.21,10.25,3H350c9,0,18.09.6,27.14-1.81.6,0-1.51-3-.9-3.92,1.51-1.51,4.22-1.2,6.33-.9,2.11.6,4.22.9,6,2.11,3,1.51,6.63-1.21,10.25,0,3.62.9,6.33,1.81,9.65,1.81,3.62.3,2.41,4.52,3.62,6,2.41,3.62,8.14-1.21,12.36-.3,5.73,1.51,12.06-.6,17.79-2.71,0,0,.3-1.21,0-1.21-1.51-1.51-4.22-3.92-.91-5.13a38.29,38.29,0,0,1,5.13-.6c6.33.6,12.06-.9,16-6,5.73.6,11.76-.9,17.19,3,2.11,1.51,4.22-.6,6.94-1.21,9.35-2.41,19.3-.6,28.94-1.81-.3.3-.3.6-.6.6,10.85-.3,21.41,1.81,32.27,1.51,5.43-.3,10.85,3.32,16.59,2.11,2.41-.6,3.32-3,6-2.41a8.57,8.57,0,0,0-3.32-2.41c-2.11-1.51-5.12-1.2-7.24-1.81-2.71-.6-5.13-2.11-7.84-3.32-.6-.3-.91-2.41-2.11-2.71-4.22-1.21-8.74-.3-13-.9-1.51,0-1.81-2.11-3.32-2.41.6-3-1.21-5.13-2.11-7.84,4.52-1.51,8.44-4.82,13.57-6.33,7.24-2.11,14.78-.3,22.31-.6h-.6c6.63-.3,14.17,1.81,20.2-1.21,3.62-1.51,7.54.6,11.16-.6.3,0,.6-.6,1.21-.9-3-1.21-5.13-3.92-6.94-6.63-.3-.91-.3-2.71-.91-4.23-.3-.6-1.2-1.51-1.2-2.11-.6-1.81-1.81-4.22-.6-5.13,7.84-4.82,24.73,7.24,25-1.2,0,0-1.51,24.12-5.43,40.4a207.26,207.26,0,0,1-9.65,30.76Z" style="fill:#05603d"/><path d="M599.06,516.08c-13.57,33.17-39.2,66.94-87.44,89,0,0-23.52,18.7-52.77,14.17,0,0-34.07,17.49-45.23,20.8-10.55,3-41.61,13.87-63.32,40.71h-1.21C327.38,653.88,296.32,643,285.77,640c-11.16-3.31-45.23-20.8-45.23-20.8C211.29,623.73,187.77,605,187.77,605c-48.25-22-73.87-55.78-87.44-89,11.76-.3,18.39-2.11,23.82-1.81a6,6,0,0,0,2.71-.6c3-1.21,3-4.82,5.73-6.33.6,0-.3-2.11.6-2.11,4.22.3,8.44,1.21,12.66.6,3.32-.3,6.93-1.81,10.25-1.21,2.41.6,1.81,4.22,0,4.82a13.39,13.39,0,0,1-6,.9c0,.9-1.21,2.41,0,2.41,10.25,1.21,20.2.6,30.46.6,5.13,0,10.55-1.51,15.68-1.81h-.9c1.51-.9,1.81-3.32,3.32-3.62a46,46,0,0,1,18.09,2.11s.3,1.21,0,1.21c-.91,1.2-2.11,2.41-4.22,1.81-.6,0-.6,1.51-.3,1.51,10.86,3.62,21.71,3.32,32.87,3.62,3.62.3,7.84.3,10.85-2.11,6.33-4.52,15.68-6.63,22.31-3.62,3.62,1.81,5.73-.3,9.35-.6.3,0,.3-1.81.6-1.81,6.64,0,13.27.9,19.9,0a16.55,16.55,0,0,0,5.13-1.51c3.92-.9,8.74-.3,11.46-3.92.9-1.21,1.51-2.41,3-2.71a23.48,23.48,0,0,1,13,1.21c3.62,1.51,7.24,1.21,10.25,3H350c9,0,18.09.6,27.14-1.81.6,0-1.51-3-.9-3.92,1.51-1.51,4.22-1.2,6.33-.9,2.11.6,4.22.9,6,2.11,3,1.51,6.63-1.21,10.25,0,3.62.9,6.33,1.81,9.65,1.81,3.62.3,2.41,4.52,3.62,6,2.41,3.62,8.14-1.21,12.36-.3,5.73,1.51,12.06-.6,17.79-2.71,0,0,.3-1.21,0-1.21-1.51-1.51-4.22-3.92-.91-5.13a38.29,38.29,0,0,1,5.13-.6c6.33.6,12.06-.9,16-6,5.73.6,11.76-.9,17.19,3,2.11,1.51,4.22-.6,6.94-1.21,9.35-2.41,19.3-.6,28.94-1.81-.3.3-.3.6-.6.6,10.85-.3,21.41,1.81,32.27,1.51,5.43-.3,10.85,3.32,16.59,2.11,2.41-.6,3.32-3,6-2.41a8.57,8.57,0,0,0-3.32-2.41c-2.11-1.51-5.12-1.2-7.24-1.81-2.71-.6-5.13-2.11-7.84-3.32-.6-.3-.91-2.41-2.11-2.71-4.22-1.21-8.74-.3-13-.9-1.51,0-1.81-2.11-3.32-2.41.6-3-1.21-5.13-2.11-7.84,4.52-1.51,8.44-4.82,13.57-6.33,7.24-2.11,14.78-.3,22.31-.6h-.6c6.63-.3,14.17,1.81,20.2-1.21,3.62-1.51,7.54.6,11.16-.6.3,0,.6-.6,1.21-.9-3-1.21-5.13-3.92-6.94-6.63-.3-.91-.3-2.71-.91-4.23-.3-.6-1.2-1.51-1.2-2.11-.6-1.81-1.81-4.22-.6-5.13,7.84-4.82,24.73,7.24,25-1.2,0,0-1.51,24.12-5.43,40.4a207.26,207.26,0,0,1-9.65,30.76Z" style="fill:none;stroke:#000;stroke-miterlimit:2.613100051879883;stroke-width:0.43779999017715454px"/><path d="M457.34,240.48s-7.54,54.28-5.73,87.75c4.52,67.54,36.19,216.2,56.69,262.94,0,0,0-8.74,8.74-6.64s7.54-5.43,11.76-8.74c4.52-3,7.84-2.11,10.85-3,3.32-1.2,7.84-8.74,7.84-8.74s-12.06-15.38-31.66-70.56C496.24,438,463.38,311,476.64,259.78l-19.3-19.3Z" style="fill:#966a4b;stroke:#000;stroke-miterlimit:2.613100051879883;stroke-width:0.43779999017715454px"/><path d="M540.87,554.08s-8.74-5.43-11.46-3.92a6.61,6.61,0,0,0-2.72,7.24c.6,2.11,3.32,4.82,3.32,4.82s-2.11-6.33-8.74-3.92c-3.92,1.81-7.54,12.06-7.54,12.06s8.74-14.47-1.51-14.47c-4.52,0-13.87,4.82-11.46,15.68m33.47-31.66s-6.33-4.82-9-3.32a6.76,6.76,0,0,0-2.72,7.24c.3,2.11,4.22,7.54,4.22,7.54s-3.32-9.35-9.65-6.63c-4.22,1.81-7.84,12.06-7.84,12.06S517.95,542,507.7,542c-4.22,0-13.57,5.13-11.46,16m33.47-29.55s-8.14-5.13-10.85-3.62c-2.41,1.51-2.72,4.52-2.41,6.63.6,1.81,5.73,8.14,5.73,8.14s-4.52-9.65-10.55-7.24c-3.62,1.51-6.94,11.16-6.94,11.16S512.52,530,503.17,530a11.6,11.6,0,0,0-10.55,14.47m32.57-26.24s-6.94-5.43-9.35-4.22a5.25,5.25,0,0,0-3,5.73c.3,2.11,3.32,7.24,3.32,7.24s-2.41-8.44-8.14-6.63c-3.62.91-7.54,9.35-7.54,9.35s8.75-11.76-.3-12.66A11.14,11.14,0,0,0,489,529.65m30.15-23.52s-4.22-4.82-6.63-3.62a5.26,5.26,0,0,0-3,5.73c.3,2.11,3.32,7.24,3.32,7.24s-2.41-8.44-8.14-6.63c-3.62,1.2-7.54,9.65-7.54,9.65s8.74-12.06-.3-12.66c-3.62-.6-12.06,2.71-11.16,12.36m31.06-22s-6.33-4.83-8.44-3.62c-2.41.9-3,3.32-3,5.12.3,1.81,3.32,6.63,3.32,6.63s-2.11-7.84-7.54-6c-3.32.91-6.94,8.74-6.94,8.74s7.84-11.16-.3-11.76c-3.32-.3-10.86,2.71-10,11.46m28-22s-4.52-3.62-6.63-2.71a5.49,5.49,0,0,0-2.71,5.43,65.64,65.64,0,0,0,3.32,6.63s-2.11-7.84-7.54-6.33c-2.71.91-5.73,7.24-5.73,7.24s6.93-9-1.21-9.95a10,10,0,0,0-10.25,11.46m27.44-21.41s-4.22-4.52-6.63-3.32a5.25,5.25,0,0,0-2.42,5.43c.3,1.51,3,6.33,3,6.33s-2.11-7.54-7.54-6c-3.32.9-6.94,8.74-6.94,8.74s8.14-10.55,0-11.76a10.23,10.23,0,0,0-10.25,11.76m28.65-22s-6-4.52-8.14-3.62-2.71,3.62-2.41,5.12c.3,1.81,3,6.33,3,6.33s-2.11-7.54-7.24-6c-3,1.21-6.33,8.44-6.33,8.44s7.54-10.25-.3-10.86a9.16,9.16,0,0,0-9.35,10.55m28.64-19.6s-6-4.82-8.14-3.62c-2.11.91-2.71,3.32-2.41,5.13,0,1.51,3,6,3,6s-2.11-7.24-7.24-5.73c-3,.9-6.33,8.14-6.33,8.14s7.54-10-.3-10.86a9.5,9.5,0,0,0-9.65,10.86m27.44-20.81s-5.73-4.52-7.84-3.62a4.43,4.43,0,0,0-2.41,4.82c.3,1.81,2.71,6.33,2.71,6.33s-1.81-7.24-6.63-5.73c-3.32.9-6.64,7.84-6.64,7.84s7.54-9.65,0-10.55c-3-.3-9.95,2.71-9.35,10.55M498,433.46s-5.43-4.52-7.54-3.32a4.07,4.07,0,0,0-2.41,4.52c.3,1.51,3,6,3,6s-2.11-6.94-6.93-5.43c-3,.9-6,7.84-6,7.84s6.94-9.95,0-10.55a9.38,9.38,0,0,0-9.35,10.25m26.84-20.2s-5.73-4.22-7.54-3.32a4.47,4.47,0,0,0-2.41,4.52c.3,1.81,2.71,5.73,2.71,5.73s-1.81-6.63-6.33-5.43c-2.71,1.21-6,7.84-6,7.84s6.93-9.35,0-10a8.31,8.31,0,0,0-8.74,9.65M492,413s-5.43-4.22-7.24-3.32a5,5,0,0,0-2.41,4.52c.3,1.51,2.71,5.43,2.71,5.43s-1.81-6.33-6.33-5.13C476,415.37,473,422,473,422s6.63-9,0-9.95a8.59,8.59,0,0,0-8.74,9.65m25.63-18.39s-5.13-4.22-6.94-3.32c-2.11.9-2.41,3-2.41,4.52a36.63,36.63,0,0,0,2.71,5.13s-1.81-6.33-6-4.82c-2.71.9-5.73,6.93-5.73,6.93s6.63-8.74,0-9.35a8.09,8.09,0,0,0-8.14,9.35m24.42-18.39s-4.83-3.62-6.64-3a4,4,0,0,0-2.11,4.22c0,1.51,2.41,5.43,2.41,5.43s-1.81-6.33-6-5.13c-2.41.9-5.13,6.93-5.13,6.93s6-8.44-.3-9a7.64,7.64,0,0,0-7.84,9m23.22-17.49s-4.82-3.62-6.64-3a3.83,3.83,0,0,0-2.11,4.22,34.93,34.93,0,0,0,2.41,4.82s-1.81-5.73-5.73-4.52c-2.41.6-5.12,6.64-5.12,6.64s6-8.14-.3-8.74a7.47,7.47,0,0,0-7.54,8.74m22.92-17.19s-4.82-3.92-6.63-3a3.47,3.47,0,0,0-2.11,3.92,43.7,43.7,0,0,0,2.41,5.13s-1.81-6-5.73-4.82c-2.71.9-5.12,6.94-5.12,6.94s6-8.45-.3-9a7.47,7.47,0,0,0-7.54,8.74m23.52-16.59s-4.82-3.62-6.33-3a3.64,3.64,0,0,0-2.11,3.92c0,1.21,2.42,4.83,2.42,4.83s-1.51-5.43-5.43-4.52c-2.71.9-5.43,6.64-5.43,6.64s6-7.84,0-8.75a7.49,7.49,0,0,0-7.54,8.44m23.52-16.28s-4.52-3.62-6.33-2.71a3.63,3.63,0,0,0-1.81,3.92c0,1.21,2.41,4.52,2.41,4.52s-1.81-5.43-5.43-4.22c-2.41.6-5.13,6-5.13,6s5.73-7.54,0-8.14a6.91,6.91,0,0,0-7.24,8.14m20.81-15.68s-4.82-3.62-6.33-2.71a3.63,3.63,0,0,0-1.81,3.92,33.76,33.76,0,0,0,2.11,4.52s-1.51-5.43-5.12-4.22c-2.41.6-5.13,6-5.13,6s5.73-7.54,0-8.14a7,7,0,0,0-7.24,8.14m22.92-16.28s-4.52-3.32-6.33-2.71a3.63,3.63,0,0,0-1.81,3.92,28.28,28.28,0,0,0,2.41,4.52s-1.51-5.43-5.43-4.22c-2.41.6-4.82,6-4.82,6s5.43-7.54-.3-8.14a7.19,7.19,0,0,0-7.24,8.14m22.31-16.28s-4.52-3.32-6-2.71a4.1,4.1,0,0,0-2.11,3.92,34.86,34.86,0,0,0,2.41,4.83s-1.51-5.73-5.43-4.52c-2.41.6-4.82,6.33-4.82,6.33s5.73-7.84-.3-8.44a7.19,7.19,0,0,0-7.24,8.14m23.52-16.28s-4.22-3.92-5.73-3A3.51,3.51,0,0,0,468.2,324c0,1.21,2.11,4.82,2.11,4.82s-1.21-5.73-5.13-4.82c-2.41.6-5.43,5.73-5.43,5.73s6.33-7.24.6-8.14a7.2,7.2,0,0,0-8.14,7.54M475.43,315s-4.22-3.92-6-3.32a3.47,3.47,0,0,0-2.11,3.62c0,1.21,1.81,4.83,1.81,4.83s-1.21-5.73-5.13-4.83c-2.41.6-5.43,6-5.43,6s6.33-7.54.6-8.44c-2.41-.3-8.14,1.21-7.84,7.54m23.82-13.57s-4.22-3.92-6-3.32a3.93,3.93,0,0,0-2.11,3.62c.3,1.21,1.81,4.83,1.81,4.83s-.9-5.73-4.83-4.83c-2.11.6-5.12,5.73-5.12,5.73s6-7.24.6-8.14a7.17,7.17,0,0,0-7.84,7.54m22.62-13.57s-3.92-3.62-5.73-3a3.52,3.52,0,0,0-2.11,3.32,45.66,45.66,0,0,0,1.81,4.52s-.9-5.43-4.82-4.52c-2.11.6-4.83,5.43-4.83,5.43s5.73-6.63.3-7.84a7,7,0,0,0-7.54,7.24m22.92-13.87s-3.92-3.32-5.43-2.71c-1.51.3-1.81,1.81-1.81,3s1.51,4.52,1.51,4.52-.9-5.13-4.52-4.52c-1.81.6-4.82,5.43-4.82,5.43s5.73-6.64.6-7.54a6.4,6.4,0,0,0-6.94,6.63m21.11-13s-3.62-3.32-5.12-2.71a2.87,2.87,0,0,0-1.81,3c0,1.21,1.51,4.22,1.51,4.22s-.9-4.83-4.22-4.22c-2.11.6-4.82,5.13-4.82,5.13s5.43-6.33.6-7.24a6.06,6.06,0,0,0-6.63,6.63m20.2-13s-3.62-3.32-5.13-2.71a3.32,3.32,0,0,0-1.81,3c.3,1.21,1.51,4.22,1.51,4.22s-.61-4.82-3.92-4.22c-2.11.6-4.52,5.12-4.52,5.12s5.13-6.33.3-7.23a6.32,6.32,0,0,0-6.63,6.63m20.8-12.36s-3.62-3.32-5.13-2.71a3.67,3.67,0,0,0-1.81,3,21.63,21.63,0,0,0,1.51,4.22s-.9-4.82-4.22-4.22c-1.81.6-4.52,4.83-4.52,4.83s5.43-6,.6-6.94a6.1,6.1,0,0,0-6.63,6.33M474.83,258s-3.62-3.32-5.13-2.71c-1.51.3-1.81,2.11-1.81,3a21.67,21.67,0,0,0,1.51,4.22s-.9-4.82-3.92-4.22c-2.11.6-4.82,4.82-4.82,4.82s5.43-6,.6-6.93a6.1,6.1,0,0,0-6.63,6.33" style="fill:none;stroke:#000;stroke-miterlimit:2.613100051879883;stroke-width:0.3125px"/><path d="M183.55,222.69l31.66,18.09-17.49,31.36s-7.24,14.77-14.17,10l-31.06-12.36a17.14,17.14,0,0,0,8.74-6.63c3.92-5.43,22.32-40.41,22.32-40.41Z" style="fill:#fff;stroke:#000;stroke-miterlimit:2.613100051879883;stroke-width:0.5px"/><path d="M152.49,269.73l32.27,13s-4.52-2.41-2.11-8.74c1.21-2.71,3.32-4.83,9.65-3.32l-32-13.57c-3.32-2.11-7.24.6-8.14,2.71-1.51,3-3,8.14.3,10Z" style="fill:#fff;stroke:#000;stroke-miterlimit:2.613100051879883;stroke-width:0.5px"/><path d="M230.28,218.47s-11.46-6.33-16.88-9.65-6.93-6.63-5.43-12.06c1.81-5.43,13-12.06,15.38-15.68,1.81-3.62,10.25-13.57,9.65-15.68,0,0,4.82,4.22,4.22,9-.6,5.13-4.22,13.27-6.33,16.58-2.41,3-3.92,9-1.21,12.36S239.63,217,239.63,217l-9.35,1.51Z" style="fill:#fff"/><path d="M230.28,218.47s-11.46-6.33-16.88-9.65-6.93-6.63-5.43-12.06c1.81-5.43,13-12.06,15.38-15.68,1.81-3.62,10.25-13.57,9.65-15.68,0,0,4.82,4.22,4.22,9-.6,5.13-4.22,13.27-6.33,16.58-2.41,3-3.92,9-1.21,12.36S239.63,217,239.63,217" style="fill:none;stroke:#000;stroke-miterlimit:2.613100051879883;stroke-width:0.5px"/><path d="M228.48,180.48s7.84-9.65,6.33-12.36m-9.65,19.6a24.1,24.1,0,0,0,11.46-9.35m-13.87,14.47s6.33,0,8.14-1.81m-8.74,8.14s5.43,0,6.33-2.41M223.65,204s5.43-.6,5.43-2.71M227,208.22s3.92-1.51,3.32-3.32m0,6,2.11-4.22" style="fill:none;stroke:#000;stroke-miterlimit:2.613100051879883;stroke-width:0.1876000016927719px"/><path d="M237.22,217.87s-5.43-19.3,4.52-28c9.65-8.74,24.73-14.77,31.36-16.28,6.63-1.81,19.6-8.74,19.6-8.74s-15.08,21.11-25,28c-9.65,7.24-7.54,12.66-13,16.89-3.32,3-7.54,5.73-5.43,9.35l-12.06-1.21Z" style="fill:#fff"/><path d="M237.22,217.87s-5.43-19.3,4.52-28c9.65-8.74,24.73-14.77,31.36-16.28,6.63-1.81,19.6-8.74,19.6-8.74s-15.08,21.11-25,28c-9.65,7.24-7.54,12.66-13,16.89-3.32,3-7.54,5.73-5.43,9.35" style="fill:none;stroke:#000;stroke-miterlimit:2.613100051879883;stroke-width:0.5px"/><path d="M266.47,180.48s18.09-5.43,19.6-6.93m-23.82,13.57s14.77-2.41,16.89-4.52m-22.32,9.35A43.79,43.79,0,0,0,271,190.43m-17.79,5.73s7.54.6,10.25,0m-15.38,4.52s9.35.9,11.46.9m-13,3.92s7.54,1.81,9.65,1.81m-10.86,3.32s4.82,1.51,7.24.3" style="fill:none;stroke:#000;stroke-miterlimit:2.613100051879883;stroke-width:0.1876000016927719px"/><path d="M201,229.32s6.33-.9,10.86,0c4.22,1.21,19.6,9.95,28,8.74,8.74-.9,13.27-3.32,16.28-4.22,3.32-1.21,7.84-2.11,10.85,2.11,3.32,4.52,12.06,13,12.06,13s8.74-11.76,16.28-13c0,0-23.52-10.85-29.85-13.27-6.63-1.81-14.77-6.33-20.2-6.93-6.33-.3-13-2.11-17.79.6-3.92,2.11-6,3.92-9.35,2.71-3-1.21-6.33-2.71-11.46,0-3.32,1.81-3,4.52-5.13,5.43-2.41,1.21-3.92,6-3.92,6l3.32-1.21Z" style="fill:#fff;stroke:#000;stroke-miterlimit:2.613100051879883;stroke-width:0.5px"/><path d="M211.59,223.29c.6,0,.9-.6.9-1.21s-.3-1.21-.9-1.21a1.21,1.21,0,1,0,0,2.41Z" style="stroke:#000;stroke-miterlimit:2.613100051879883;stroke-width:0.1876000016927719px"/><path d="M275.82,229.93s13.27,6.63,14.77,7.54m-16.88-4.22,13,7.54m-13.57-3.62,9.35,7.54" style="fill:none;stroke:#000;stroke-miterlimit:2.613100051879883;stroke-width:0.1876000016927719px"/><path d="M376.83,469.35l-24.73-.9c-2.41-1.2-13.27.9-13.27.9-3.62-.9-17.49,0-17.49,0-7.54-2.71-20.5,0-20.5,0-2.71-1.51-17.79,0-17.79,0-5.12-2.11-13.57,0-13.57,0-2.41-.6-13.27.6-13.27.6-6-2.71-21.11-.6-21.11-.6-6.93-.6-20.5.6-20.5.6s-11.46-15.08-16-17.49c0,0,138.71.6,164.64-3.32,25.93-3.62,54.27-16.28,58.2-18.39l-2.71,7.84s-2.11,3.62-7.24,2.41c0,0-29.25,19.6-34.68,28.35Z" style="fill:#59412d;stroke:#000;stroke-miterlimit:2.613100051879883;stroke-width:0.43779999017715454px"/><path d="M421.76,430.75c-3.62,2.11-31.66,14.77-57.89,18.39-26.24,3.92-164.64,3.32-164.64,3.32l-1.51-3.32s74.18.6,86.24,0c12.06-.3,69.05-1.51,84.73-4.22s51.56-15.68,55.48-17.79l-2.41,3.62Z" style="fill:#fff;stroke:#000;stroke-miterlimit:2.613100051879883;stroke-width:0.43779999017715454px"/><path d="M249.28,318V449.14m54.88-140.82V448.84M352.1,314.06V445.53" style="fill:none;stroke:#000;stroke-miterlimit:2.613100051879883;stroke-width:0.43779999017715454px"/><path d="M352.1,313.45v-18.7s-1.21,4.22-7.24,5.13c-6,1.21-9.35,2.71-13,5.43a25.48,25.48,0,0,1-6.63,3.92s4.82,2.11,7.54,1.51c3-.6,6.93-1.81,10.25-.6,2.71,1.21,5.12,3.32,9,3.32Z" style="fill:#fff;stroke:#000;stroke-miterlimit:2.613100051879883;stroke-width:0.43779999017715454px"/><path d="M338.23,319.48l29.25-.6s6.63,17.49,0,26.84c0,0-8.44-9.35-30.15.91,0,0,8.44-23.22.9-27.14Z" style="fill:#fff;stroke:#000;stroke-miterlimit:2.613100051879883;stroke-width:0.43779999017715454px"/><path d="M334,348.43l37.39-1.21s12.06,7.24,4.22,32.57c0,0-15.08-13.57-47,1.51,0,0,13-18.7,5.43-32.87Z" style="fill:#fff;stroke:#000;stroke-miterlimit:2.613100051879883;stroke-width:0.43779999017715454px"/><path d="M323.76,381.9l57.89-.9s12.67,15.08,12.06,31.36c-.3,11.16-6.94,21.71-11.46,27.74l-8.74,2.71s-11.76-2.71-16.58-2.11a151.39,151.39,0,0,0-37.69,7.54s13.57-13.27,16-33.77c.9-10.26,0-21.71-11.46-32.57Z" style="fill:#fff;stroke:#000;stroke-miterlimit:2.613100051879883;stroke-width:0.43779999017715454px"/><path d="M268.28,381.9l57.89-.9s12.67,15.08,12.06,31.36c-.3,11.16-10.85,29.85-15.08,35.88L318,442.81s-11.76-2.71-16.58-2.11a145.28,145.28,0,0,0-37.39,7.54s13.57-13.27,15.68-33.77c1.2-10.26,0-21.71-11.46-32.57Z" style="fill:#fff;stroke:#000;stroke-miterlimit:2.613100051879883;stroke-width:0.43779999017715454px"/><path d="M287.28,319.48l29.25-.6s6.63,17.49,0,26.84c0,0-8.74-9.35-30.45.91,0,0,8.75-23.22,1.21-27.14Z" style="fill:#fff;stroke:#000;stroke-miterlimit:2.613100051879883;stroke-width:0.43779999017715454px"/><path d="M283.05,348.43l37.39-1.21s12.06,7.24,4.22,32.57c0,0-15.08-13.57-47,1.51,0,0,13-18.7,5.43-32.87Z" style="fill:#fff;stroke:#000;stroke-miterlimit:2.613100051879883;stroke-width:0.43779999017715454px"/><path d="M304.16,315.26v-19s-1.21,4.22-7.24,5.43a28.19,28.19,0,0,0-13,5.43,33,33,0,0,1-6.33,3.62s4.82,2.41,7.54,1.81,6.63-2.11,10.25-.6c2.71,1.21,4.83,3.32,8.74,3.32Z" style="fill:#fff;stroke:#000;stroke-miterlimit:2.613100051879883;stroke-width:0.43779999017715454px"/><path d="M204.65,381s30.15,19.9,21.41,40.71c-9,20.5-19.3,28.65-17.49,28,1.51-.6-28.35-1.51-44-7.84,0,0,44.32-32.26,40.1-60.91Z" style="fill:#fff;stroke:#000;stroke-miterlimit:2.613100051879883;stroke-width:0.43779999017715454px"/><path d="M230.89,348.43s6.93,26.54-6,32.57c-13,5.73-20.81.3-22.92,0l28.95-32.57Z" style="fill:#fff;stroke:#000;stroke-miterlimit:2.613100051879883;stroke-width:0.43779999017715454px"/><path d="M212.8,383.71,271,382.5s12.36,15.08,12.06,31.66c-.6,10.86-10.25,29.25-14.77,35l-5.43-4.82s-12.06-2.41-16.89-2.11a183.4,183.4,0,0,0-37.39,7.54s13.57-13.27,15.68-33.47c.91-10.25,0-21.71-11.46-32.57Z" style="fill:#fff;stroke:#000;stroke-miterlimit:2.613100051879883;stroke-width:0.43779999017715454px"/><path d="M231.79,321.29h32.26s6.94,17.19-1.2,26.54c0,0-10.25-9.65-32,.6,0,0,8.74-23.52.9-27.14Z" style="fill:#fff;stroke:#000;stroke-miterlimit:2.613100051879883;stroke-width:0.43779999017715454px"/><path d="M229.68,349.94,265,348.73s13.57,9.35.6,32.57c0,0-9.35-13.87-41.31,1.2,0,0,13-18.39,5.43-32.57Z" style="fill:#fff;stroke:#000;stroke-miterlimit:2.613100051879883;stroke-width:0.43779999017715454px"/><path d="M248.68,316.77v-19s-.9,4.22-6.93,5.43a31.47,31.47,0,0,0-13.27,5.43,36.54,36.54,0,0,1-6.33,3.92s4.82,2.11,7.54,1.51c3-.6,6.63-1.81,10.25-.6,3,1.21,4.83,3.32,8.74,3.32Z" style="fill:#fff;stroke:#000;stroke-miterlimit:2.613100051879883;stroke-width:0.43779999017715454px"/><path d="M386.18,438.89,352.41,375s17.49,38,16.28,70m-204.14-3s21.71,7.24,33.17,7.24c11.16,0,97.7,1.21,114.58-.3,6.63-.6,31.36-1.81,47.64-3.32s91.36-26.54,98-28.65c0,0-23.52,9-105.54-102.82,0,0,64.53,94.68,87.45,108.55M418.14,428l-59.7-84.73" style="fill:none;stroke:#000;stroke-miterlimit:2.613100051879883;stroke-width:0.43779999017715454px"/><path d="M579.77,415.07c0-19.9-14.78-33.77-32.27-33.77-17.79,0-32.57,13.87-32.57,33.77Z" style="fill:#fff500;stroke:#fff500;stroke-miterlimit:2.613100051879883;stroke-width:0.1876000016927719px"/><path d="M579.77,410.85h28.34m-29.25-5.43,29.85-6.63m-32,2.11,28.65-17.19m-32,12.06,25.33-26.84m-30.15,20.51L593,356m-29.85,29.85L587,335.77m-13-10.85-15.68,58.2m-6.63-1.21,10.85-59.71M547.5,381.3V321.59m-6,60.31-7.24-55.79m2.41,57-13.87-54.28m9.35,56.39-20.51-53.37m15.08,57.29-26.53-42.82m22.31,47L489.3,362m29.85,37.39L486.59,378m29.85,28-25.93-13.27m24.12,15.08-22-6.33m22.61,10.86h-19.3" style="fill:none;stroke:#fff500;stroke-miterlimit:2.613100051879883;stroke-width:1.3134000301361084px"/><path d="M220.33,474.17c3.32-.3,76.59,12.06,104.33,30.46,27.74,18.69,60.91,41.31,111.87,46.14,0,0,0,6,.6,7.54,0,0-51.26-4.82-89-28-30.15-18.39-53.07-39.5-123.33-47.94-9.35-.9-10.25-7.54-4.52-8.14Z" style="fill:#84746d;stroke:#000;stroke-miterlimit:2.613100051879883;stroke-width:0.43779999017715454px"/><polygon points="473.02 584.53 473.02 526.34 470.31 526.34 470.31 584.53 473.02 584.53" style="fill:#84746d;stroke:#000;stroke-miterlimit:2.613100051879883;stroke-width:0.43779999017715454px"/><polygon points="493.23 574.88 451.91 533.58 449.8 535.99 491.11 577.3 493.23 574.88" style="fill:#84746d;stroke:#000;stroke-miterlimit:2.613100051879883;stroke-width:0.43779999017715454px"/><polygon points="500.76 554.08 442.27 554.08 442.27 557.09 500.76 557.09 500.76 554.08" style="fill:#84746d;stroke:#000;stroke-miterlimit:2.613100051879883;stroke-width:0.43779999017715454px"/><polygon points="491.11 533.58 449.8 574.88 451.91 577.3 493.23 535.99 491.11 533.58" style="fill:#84746d;stroke:#000;stroke-miterlimit:2.613100051879883;stroke-width:0.43779999017715454px"/><path d="M437.14,560.71a33.66,33.66,0,0,1-.6-5.12c0-19.3,15.68-35.28,35-35.28a35.13,35.13,0,0,1,0,70.26c-17.49,0-32-12.36-34.07-29.25l6.33-.3c2.11,13.27,13.87,22.31,27.74,22.31a27.89,27.89,0,1,0-28-27.74c0,1.51.3,2.71.3,4.22l-6.64.9Z" style="fill:#84746d;stroke:#000;stroke-miterlimit:2.613100051879883;stroke-width:0.43779999017715454px"/><path d="M464,561.62s-16.58,1.81-45.53.91c-15.08-.3-42.82-.3-74.18-15.38-49.15-23.82-68.45-37.39-122.12-44-9.35-1.21-10.25-7.84-4.22-8.14,3-.3,55.48,5.43,84.43,21.71C378.94,559.5,425.38,558,457.94,555c5.73-.3,5.13-1.2,6.33-3,1.21-2.11,2.11-3.32,5.73-3.92,4.22-.9,8.44,1.21,9,3.92.6,3,1.21,6.33-2.71,9-2.41,1.81-6.94,1.21-12.36.6Z" style="fill:#84746d;stroke:#000;stroke-miterlimit:2.613100051879883;stroke-width:0.43779999017715454px"/><path d="M471.51,551.66a4,4,0,0,0-3.62,3.92,3.67,3.67,0,0,0,3.62,3.62c2.41,0,3.92-1.51,3.92-3.62a3.8,3.8,0,0,0-3.92-3.92Z" style="stroke:#000;stroke-miterlimit:2.613100051879883;stroke-width:0.43779999017715454px"/><path d="M360.55,588.75c-1.2-1.51-16.89-25.33-22.32-33.77-5.43-7.84-.9-26.84,9.35-21.41s19.6,10.25,22.92,11.76c3,1.81,30.15,9.65,54.27,10.86,0,0-5.42,9.35-4.52,16.89.9,5.43,1.21,13,3.92,15.08l-63.62.6Z" style="fill:#fff;stroke:#000;stroke-miterlimit:2.613100051879883;stroke-width:0.43779999017715454px"/><path d="M328,605c2.11.6,14.77-2.71,11.46,10.55a63.8,63.8,0,0,1-7.54,17.79s-30.45,0-30.45-5.43c0,0,6.33-30.76,17.79-28.34C327.38,601.42,328,605,328,605Z" style="fill:#fff;stroke:#000;stroke-miterlimit:2.613100051879883;stroke-width:0.43779999017715454px"/><path d="M368.69,519.4c2.11.9,1.21,4.82-.6,8.74-2.71,6.64-40.1,84.13-40.1,84.13l-6,4.82.6-6.33,39.5-87.14s2.11-6.63,6.64-4.22Z" style="fill:#d1945f;stroke:#000;stroke-miterlimit:2.613100051879883;stroke-width:0.43779999017715454px"/><path d="M438,114.74s-5.13,15.68,3.92,17.49c0,0,7.54-5.73-3.92-17.49Z" style="fill:#05603d;stroke:#000;stroke-miterlimit:2.613100051879883;stroke-width:0.43779999017715454px"/><path d="M462.77,204S448,190.12,447.69,181.68L464,196.76,462.77,204Z" style="fill:#05603d;stroke:#000;stroke-miterlimit:2.613100051879883;stroke-width:0.43779999017715454px"/><path d="M462.77,197.66s-17.79-16-18.09-24.42l19.6,17.19-1.51,7.24Z" style="fill:#05603d;stroke:#000;stroke-miterlimit:2.613100051879883;stroke-width:0.43779999017715454px"/><path d="M463.67,183.79s-20.51-17.49-20.8-28.35L463.67,176v7.84Z" style="fill:#05603d;stroke:#000;stroke-miterlimit:2.613100051879883;stroke-width:0.43779999017715454px"/><path d="M462.47,174.75s-21.11-15.38-20.81-28.35l19,18.4,1.81,9.95Z" style="fill:#05603d;stroke:#000;stroke-miterlimit:2.613100051879883;stroke-width:0.43779999017715454px"/><path d="M461.26,163.59s-22.92-10.85-21.71-23.82l18.7,14.47,3,9.35Z" style="fill:#05603d;stroke:#000;stroke-miterlimit:2.613100051879883;stroke-width:0.43779999017715454px"/><path d="M446.49,134.34s-10.25,3.62-13-11.76l11.16,9,1.81,2.71Z" style="fill:#05603d;stroke:#000;stroke-miterlimit:2.613100051879883;stroke-width:0.43779999017715454px"/><path d="M456.44,150.62s-17.79-3.32-21.41-16.89l15.38,8.74,6,8.14Z" style="fill:#05603d;stroke:#000;stroke-miterlimit:2.613100051879883;stroke-width:0.43779999017715454px"/><path d="M450.1,141.28s-15.08-1.51-18.39-14.17l14.47,8.14,3.92,6Z" style="fill:#05603d;stroke:#000;stroke-miterlimit:2.613100051879883;stroke-width:0.43779999017715454px"/><path d="M463.07,203.39s15.68-9,16.58-17.19l-17.49,9.35.9,7.84Z" style="fill:#05603d;stroke:#000;stroke-miterlimit:2.613100051879883;stroke-width:0.43779999017715454px"/><path d="M463.37,197.06s20.2-12.66,21.41-20.81l-22,13,.61,7.84Z" style="fill:#05603d;stroke:#000;stroke-miterlimit:2.613100051879883;stroke-width:0.43779999017715454px"/><path d="M464.58,189.22s23.82-16.59,20.51-25.63l-21.41,17.79.9,7.84Z" style="fill:#05603d;stroke:#000;stroke-miterlimit:2.613100051879883;stroke-width:0.43779999017715454px"/><path d="M464.28,180.48s20.81-16.88,17.19-28.95l-19,21.71,1.81,7.24Z" style="fill:#05603d;stroke:#000;stroke-miterlimit:2.613100051879883;stroke-width:0.43779999017715454px"/><path d="M460.36,160.57s16.28-12.36,8.14-22.92l-13,13.57,4.82,9.35Z" style="fill:#05603d;stroke:#000;stroke-miterlimit:2.613100051879883;stroke-width:0.43779999017715454px"/><path d="M456.44,150.62s11.46-11.16,3.32-21.41l-7.54,13.87,4.22,7.54Z" style="fill:#05603d;stroke:#000;stroke-miterlimit:2.613100051879883;stroke-width:0.43779999017715454px"/><path d="M453.72,144.59a18.73,18.73,0,0,0-.6-20.5l-5.43,12.66,6,7.84Z" style="fill:#05603d;stroke:#000;stroke-miterlimit:2.613100051879883;stroke-width:0.43779999017715454px"/><path d="M446.79,135.85s7.84-14.47-3.62-21.41L442,130.72l4.82,5.13Z" style="fill:#05603d;stroke:#000;stroke-miterlimit:2.613100051879883;stroke-width:0.43779999017715454px"/><path d="M460.06,210.33s17.49-42.21-19.6-82.32" style="fill:none;stroke:#000;stroke-miterlimit:2.613100051879883;stroke-width:0.5px"/><path d="M462.17,170.53s18.7-14.17,15.38-26.84l-16.89,18.7,1.51,8.14Z" style="fill:#05603d;stroke:#000;stroke-miterlimit:2.613100051879883;stroke-width:0.43779999017715454px"/><path d="M464.28,190.43s-20.5-17.49-20.81-25L464,182.29l.3,8.14Z" style="fill:#05603d;stroke:#000;stroke-miterlimit:2.613100051879883;stroke-width:0.43779999017715454px"/><path d="M562.88,274.25s-19.9,1.81-17.49-7.84c0,0,10-6.63,17.49,7.84Z" style="fill:#05603d;stroke:#000;stroke-miterlimit:2.613100051879883;stroke-width:0.43779999017715454px"/><path d="M475.43,227.82s8.74,18.69,17.49,20.81l-8.74-20.51-8.74-.3Z" style="fill:#05603d;stroke:#000;stroke-miterlimit:2.613100051879883;stroke-width:0.43779999017715454px"/><path d="M482.37,229s9.65,22.61,18.39,25l-9.35-24.73-9-.3Z" style="fill:#05603d;stroke:#000;stroke-miterlimit:2.613100051879883;stroke-width:0.43779999017715454px"/><path d="M498.35,231.43s9.95,25.63,21.71,28.35l-13.27-26.54-8.44-1.81Z" style="fill:#05603d;stroke:#000;stroke-miterlimit:2.613100051879883;stroke-width:0.43779999017715454px"/><path d="M507.7,235.05s6.94,25.33,21.41,28.34L517.95,239l-10.25-3.92Z" style="fill:#05603d;stroke:#000;stroke-miterlimit:2.613100051879883;stroke-width:0.43779999017715454px"/><path d="M519.15,239s1.81,25.93,16.59,28L528.5,243.8,519.15,239Z" style="fill:#05603d;stroke:#000;stroke-miterlimit:2.613100051879883;stroke-width:0.43779999017715454px"/><path d="M545.09,261s-8.74,10,6.64,16.28L547.2,263.7,545.09,261Z" style="fill:#05603d;stroke:#000;stroke-miterlimit:2.613100051879883;stroke-width:0.43779999017715454px"/><path d="M531.52,246.81S527,266.11,540,273L537.85,255l-6.33-8.14Z" style="fill:#05603d;stroke:#000;stroke-miterlimit:2.613100051879883;stroke-width:0.43779999017715454px"/><path d="M538.76,255.56s-5.13,16,7.24,22.92L543.88,261l-5.12-5.43Z" style="fill:#05603d;stroke:#000;stroke-miterlimit:2.613100051879883;stroke-width:0.43779999017715454px"/><path d="M476.34,227.82s17.49-14.47,27.14-13.87l-19,16.28-8.14-2.41Z" style="fill:#05603d;stroke:#000;stroke-miterlimit:2.613100051879883;stroke-width:0.43779999017715454px"/><path d="M483.57,228.72s23.52-18.09,32.87-17.19l-24.73,19.6-8.14-2.41Z" style="fill:#05603d;stroke:#000;stroke-miterlimit:2.613100051879883;stroke-width:0.43779999017715454px"/><path d="M492.92,229.32s29.25-20.81,38-15.38L501.06,232l-8.14-2.71Z" style="fill:#05603d;stroke:#000;stroke-miterlimit:2.613100051879883;stroke-width:0.43779999017715454px"/><path d="M502,231.74s28.94-17.79,40.4-11.16l-32.56,14.47L502,231.74Z" style="fill:#05603d;stroke:#000;stroke-miterlimit:2.613100051879883;stroke-width:0.43779999017715454px"/><path d="M522.47,240.48s21.71-14.17,29.25-3.32l-21.11,10.25-8.14-6.94Z" style="fill:#05603d;stroke:#000;stroke-miterlimit:2.613100051879883;stroke-width:0.43779999017715454px"/><path d="M531.52,246.51s17.79-9,25.33,2.11l-19,4.52-6.33-6.63Z" style="fill:#05603d;stroke:#000;stroke-miterlimit:2.613100051879883;stroke-width:0.43779999017715454px"/><path d="M536.95,251s14.17-4.52,22.61,5.43L543,259.17l-6-8.14Z" style="fill:#05603d;stroke:#000;stroke-miterlimit:2.613100051879883;stroke-width:0.43779999017715454px"/><path d="M543.58,260.38s19.6-5.13,22,8.44l-18.7-2.11-3.32-6.33Z" style="fill:#05603d;stroke:#000;stroke-miterlimit:2.613100051879883;stroke-width:0.43779999017715454px"/><path d="M467.29,229s54.88-8.14,82,39.8" style="fill:none;stroke:#000;stroke-miterlimit:2.613100051879883;stroke-width:0.5px"/><path d="M512.22,236.26s24.73-16.28,37.39-9.65L521,239.27l-8.74-3Z" style="fill:#05603d;stroke:#000;stroke-miterlimit:2.613100051879883;stroke-width:0.43779999017715454px"/><path d="M491.42,229.32s9.65,25.63,17.79,27.74l-9-25.33-8.74-2.41Z" style="fill:#05603d;stroke:#000;stroke-miterlimit:2.613100051879883;stroke-width:0.43779999017715454px"/><path d="M540.87,328.23s-19.6-10.86-16.28-21.71c0,0,12.06-6.63,16.28,21.71Z" style="fill:#05603d;stroke:#000;stroke-miterlimit:2.613100051879883;stroke-width:0.43779999017715454px"/><path d="M525.79,305.31s-9.95,15.38,6.34,24.12l-4.22-20.81-2.11-3.32Z" style="fill:#05603d;stroke:#000;stroke-miterlimit:2.613100051879883;stroke-width:0.43779999017715454px"/><path d="M525.79,305.31s17.19-4.52,20.51,13.57L528.2,308.63l-2.41-3.32Z" style="fill:#05603d;stroke:#000;stroke-miterlimit:2.613100051879883;stroke-width:0.43779999017715454px"/><path d="M463.07,228.12s24.12,1.81,30.15,9.65l-26.23-.9-3.92-8.74Z" style="fill:#05603d;stroke:#000;stroke-miterlimit:2.613100051879883;stroke-width:0.43779999017715454px"/><path d="M467.29,234.45S499,238.07,505,245.91l-34.08-2.71-3.62-8.74Z" style="fill:#05603d;stroke:#000;stroke-miterlimit:2.613100051879883;stroke-width:0.43779999017715454px"/><path d="M473.32,242.59S505,245.91,511,253.75L476.94,251l-3.62-8.44Z" style="fill:#05603d;stroke:#000;stroke-miterlimit:2.613100051879883;stroke-width:0.43779999017715454px"/><path d="M480.26,251.64s35.28-3.62,41,11.16l-37.09-2.41-3.92-8.75Z" style="fill:#05603d;stroke:#000;stroke-miterlimit:2.613100051879883;stroke-width:0.43779999017715454px"/><path d="M486.29,260.68s35-3.62,40.71,11.16l-34.08-.6-6.63-10.55Z" style="fill:#05603d;stroke:#000;stroke-miterlimit:2.613100051879883;stroke-width:0.43779999017715454px"/><path d="M494.13,270.33s35.28-3.62,41,10.85l-34.38-.6-6.63-10.25Z" style="fill:#05603d;stroke:#000;stroke-miterlimit:2.613100051879883;stroke-width:0.43779999017715454px"/><path d="M502,279.68s31.06-3.32,36.79,11.16l-28.35-2.71L502,279.68Z" style="fill:#05603d;stroke:#000;stroke-miterlimit:2.613100051879883;stroke-width:0.43779999017715454px"/><path d="M510.11,289s25-3.32,31.06,11.16l-22.91-2.71L510.11,289Z" style="fill:#05603d;stroke:#000;stroke-miterlimit:2.613100051879883;stroke-width:0.43779999017715454px"/><path d="M519.15,299s20.81-4.52,26.84,10l-21.41-3.32L519.15,299Z" style="fill:#05603d;stroke:#000;stroke-miterlimit:2.613100051879883;stroke-width:0.43779999017715454px"/><path d="M461.56,229.32s-3.32,24.12,3.32,31.36l4.22-25.93-7.54-5.43Z" style="fill:#05603d;stroke:#000;stroke-miterlimit:2.613100051879883;stroke-width:0.43779999017715454px"/><path d="M467,234.75s-3.32,31.66,3.32,39.2l4.22-33.47L467,234.75Z" style="fill:#05603d;stroke:#000;stroke-miterlimit:2.613100051879883;stroke-width:0.43779999017715454px"/><path d="M473.32,242.29s-3,31.66,3.32,39.2l4.52-33.77-7.84-5.43Z" style="fill:#05603d;stroke:#000;stroke-miterlimit:2.613100051879883;stroke-width:0.43779999017715454px"/><path d="M481.16,251s-10.85,33.77,2.11,42.52l5.43-37.09L481.16,251Z" style="fill:#05603d;stroke:#000;stroke-miterlimit:2.613100051879883;stroke-width:0.43779999017715454px"/><path d="M488.7,258.87s-10.85,33.47,2.11,42.21l6.64-33.77-8.74-8.44Z" style="fill:#05603d;stroke:#000;stroke-miterlimit:2.613100051879883;stroke-width:0.43779999017715454px"/><path d="M496.24,268.52s-10.85,33.47,2.11,42.21L505,277.27l-8.74-8.74Z" style="fill:#05603d;stroke:#000;stroke-miterlimit:2.613100051879883;stroke-width:0.43779999017715454px"/><path d="M504.08,278.47s-10,29.25,3.32,38l3-28.34-6.33-9.65Z" style="fill:#05603d;stroke:#000;stroke-miterlimit:2.613100051879883;stroke-width:0.43779999017715454px"/><path d="M511.62,288.12s-8.75,23.82,4.22,32.57l2.11-22.92-6.33-9.65Z" style="fill:#05603d;stroke:#000;stroke-miterlimit:2.613100051879883;stroke-width:0.43779999017715454px"/><path d="M519.15,299s-8.74,19.6,4.22,28l1.21-21.71L519.15,299Z" style="fill:#05603d;stroke:#000;stroke-miterlimit:2.613100051879883;stroke-width:0.43779999017715454px"/><path d="M457.34,223.9s38.9,36.79,63.93,79.3" style="fill:none;stroke:#000;stroke-miterlimit:2.613100051879883;stroke-width:0.5px"/><path d="M461.56,218.17s8.45-22.61,3.92-31.36l-10.25,24.42,6.33,6.93Z" style="fill:#05603d;stroke:#000;stroke-miterlimit:2.613100051879883;stroke-width:0.43779999017715454px"/><path d="M459.75,217s-24.12.3-30.76-6.94l26.23-1.21,4.52,8.14Z" style="fill:#05603d;stroke:#000;stroke-miterlimit:2.613100051879883;stroke-width:0.43779999017715454px"/><path d="M403.07,158.16s-25,3.32-30.76-11.46l22.61,3,8.14,8.44Z" style="fill:#05603d;stroke:#000;stroke-miterlimit:2.613100051879883;stroke-width:0.43779999017715454px"/><path d="M394.32,148.51s-21.11,3.92-24.42-8.44l21.41,3.62,3,4.82Z" style="fill:#05603d;stroke:#000;stroke-miterlimit:2.613100051879883;stroke-width:0.43779999017715454px"/><path d="M425.08,174.45s-34.68,6.63-41.61-7.24l34.07-2.41,7.54,9.65Z" style="fill:#05603d;stroke:#000;stroke-miterlimit:2.613100051879883;stroke-width:0.43779999017715454px"/><path d="M416.33,165.7s-30.15,6-37.09-7.84l28.34.3,8.74,7.54Z" style="fill:#05603d;stroke:#000;stroke-miterlimit:2.613100051879883;stroke-width:0.43779999017715454px"/><path d="M457.64,211.53s9.35-31.36,5.43-38.6L451.31,204.6l6.33,6.94Z" style="fill:#05603d;stroke:#000;stroke-miterlimit:2.613100051879883;stroke-width:0.43779999017715454px"/><path d="M452.82,202.79s10.25-29.85,5.43-38.9l-11.76,32,6.33,6.93Z" style="fill:#05603d;stroke:#000;stroke-miterlimit:2.613100051879883;stroke-width:0.43779999017715454px"/><path d="M446.18,193.44s14.17-30.76.6-38.29l-8.44,33.47,7.84,4.82Z" style="fill:#05603d;stroke:#000;stroke-miterlimit:2.613100051879883;stroke-width:0.43779999017715454px"/><path d="M438.35,186.81s14.47-30.76.6-38.29l-9.35,30.76,8.74,7.54Z" style="fill:#05603d;stroke:#000;stroke-miterlimit:2.613100051879883;stroke-width:0.43779999017715454px"/><path d="M430.81,178.06s10.85-31.06-3-38.29l-6,30.76,9,7.54Z" style="fill:#05603d;stroke:#000;stroke-miterlimit:2.613100051879883;stroke-width:0.43779999017715454px"/><path d="M373.82,134.34s10.85,19.6,21.71,16c0,0,6.33-11.76-21.71-16Z" style="fill:#05603d;stroke:#000;stroke-miterlimit:2.613100051879883;stroke-width:0.43779999017715454px"/><path d="M396.43,149.42S401,131.93,382,129.22l10.55,18.39,3.92,1.81Z" style="fill:#05603d;stroke:#000;stroke-miterlimit:2.613100051879883;stroke-width:0.43779999017715454px"/><path d="M422.36,172.94s8.74-33.17-9-37.69l.6,29.55,8.44,8.14Z" style="fill:#05603d;stroke:#000;stroke-miterlimit:2.613100051879883;stroke-width:0.43779999017715454px"/><path d="M412.72,164.8s3.62-25-11.16-31.06l3,22.92,8.14,8.14Z" style="fill:#05603d;stroke:#000;stroke-miterlimit:2.613100051879883;stroke-width:0.43779999017715454px"/><path d="M403.07,156.05s4.52-21.11-10.25-26.84l3.62,21.41,6.64,5.43Z" style="fill:#05603d;stroke:#000;stroke-miterlimit:2.613100051879883;stroke-width:0.43779999017715454px"/><path d="M454.93,210.93s-31.66-.6-38.29-7.84l33.77-.3,4.52,8.14Z" style="fill:#05603d;stroke:#000;stroke-miterlimit:2.613100051879883;stroke-width:0.43779999017715454px"/><path d="M448.3,203.69s-37.09-1.81-44-9l39.5.91,4.52,8.14Z" style="fill:#05603d;stroke:#000;stroke-miterlimit:2.613100051879883;stroke-width:0.43779999017715454px"/><path d="M442.57,194s-38,2.71-44.93-10.85l40.71,2.71,4.22,8.14Z" style="fill:#05603d;stroke:#000;stroke-miterlimit:2.613100051879883;stroke-width:0.43779999017715454px"/><path d="M436.23,185.6s-38,3-45.23-10.86l37.69.9,7.54,10Z" style="fill:#05603d;stroke:#000;stroke-miterlimit:2.613100051879883;stroke-width:0.43779999017715454px"/><path d="M459.15,217.56s-16-41.31-80.51-74.18" style="fill:none;stroke:#000;stroke-miterlimit:2.613100051879883;stroke-width:0.5px"/><path d="M564.39,198.57s-13.57,16.28-20.2,7.24c0,0,1.51-13,20.2-7.24Z" style="fill:#05603d;stroke:#000;stroke-miterlimit:2.613100051879883;stroke-width:0.43779999017715454px"/><path d="M458.25,228.42s22.61,7.84,31.36,2.71l-24.73-9-6.63,6.33Z" style="fill:#05603d;stroke:#000;stroke-miterlimit:2.613100051879883;stroke-width:0.43779999017715454px"/><path d="M464.58,224.2s27.14,10.25,35.88,5.13l-29.25-11.76-6.63,6.63Z" style="fill:#05603d;stroke:#000;stroke-miterlimit:2.613100051879883;stroke-width:0.43779999017715454px"/><path d="M478.45,213.95s29.85,12.06,41,5.73l-32.87-10.85-8.14,5.13Z" style="fill:#05603d;stroke:#000;stroke-miterlimit:2.613100051879883;stroke-width:0.43779999017715454px"/><path d="M488.4,209.72s28,14.47,41,5.73L499.86,205.2l-11.46,4.52Z" style="fill:#05603d;stroke:#000;stroke-miterlimit:2.613100051879883;stroke-width:0.43779999017715454px"/><path d="M500.46,204s24.73,18.69,37.09,9.35L511.92,201l-11.46,3Z" style="fill:#05603d;stroke:#000;stroke-miterlimit:2.613100051879883;stroke-width:0.43779999017715454px"/><path d="M539.06,201.58s2.41,14.17,19.6,7.54L543,202.49l-3.92-.9Z" style="fill:#05603d;stroke:#000;stroke-miterlimit:2.613100051879883;stroke-width:0.43779999017715454px"/><path d="M516.74,201s13.57,18.4,29.55,13.87L528.5,202.49,516.74,201Z" style="fill:#05603d;stroke:#000;stroke-miterlimit:2.613100051879883;stroke-width:0.43779999017715454px"/><path d="M530,202.49s9.95,16,25.33,11.76l-16.89-11.46-8.44-.3Z" style="fill:#05603d;stroke:#000;stroke-miterlimit:2.613100051879883;stroke-width:0.43779999017715454px"/><path d="M458.85,227.82s.3-24.12,7.84-30.76l.3,26.54-8.14,4.22Z" style="fill:#05603d;stroke:#000;stroke-miterlimit:2.613100051879883;stroke-width:0.43779999017715454px"/><path d="M464.88,223.29s1.51-31.66,9.35-38.29L473,219.07l-8.14,4.22Z" style="fill:#05603d;stroke:#000;stroke-miterlimit:2.613100051879883;stroke-width:0.43779999017715454px"/><path d="M472.42,216.66s3.32-38.3,14.77-40.41l-6.33,36.18-8.44,4.22Z" style="fill:#05603d;stroke:#000;stroke-miterlimit:2.613100051879883;stroke-width:0.43779999017715454px"/><path d="M481.16,211.53s6-35.28,20.2-38.9l-11.15,35.88-9,3Z" style="fill:#05603d;stroke:#000;stroke-miterlimit:2.613100051879883;stroke-width:0.43779999017715454px"/><path d="M504.38,202.79s3.32-27.14,18.7-24.42l-6.33,24.12-12.36.3Z" style="fill:#05603d;stroke:#000;stroke-miterlimit:2.613100051879883;stroke-width:0.43779999017715454px"/><path d="M516.44,200.68s5.13-20.2,20.51-17.49L527,201l-10.55-.3Z" style="fill:#05603d;stroke:#000;stroke-miterlimit:2.613100051879883;stroke-width:0.43779999017715454px"/><path d="M524.58,200.07s6-13.87,21.41-12.36l-10,14.17-11.46-1.81Z" style="fill:#05603d;stroke:#000;stroke-miterlimit:2.613100051879883;stroke-width:0.43779999017715454px"/><path d="M537.55,202.49s10.25-18.69,24.12-10.25l-16,12.36-8.14-2.11Z" style="fill:#05603d;stroke:#000;stroke-miterlimit:2.613100051879883;stroke-width:0.43779999017715454px"/><path d="M453.42,235.36S486.89,188,549.61,204.9" style="fill:none;stroke:#000;stroke-miterlimit:2.613100051879883;stroke-width:0.5px"/><path d="M492.92,207.31s3.92-31.06,19-35.28l-9.65,31.36-9.35,3.92Z" style="fill:#05603d;stroke:#000;stroke-miterlimit:2.613100051879883;stroke-width:0.43779999017715454px"/><path d="M471.21,217.56s29.85,12.36,37.7,8.14l-29-13-8.74,4.82Z" style="fill:#05603d;stroke:#000;stroke-miterlimit:2.613100051879883;stroke-width:0.43779999017715454px"/><path d="M433.82,213.95s-24.12-36.79-39.2-35.28l26.84,33.77,12.36,1.51Z" style="fill:#05603d;stroke:#000;stroke-miterlimit:2.613100051879883;stroke-width:0.43779999017715454px"/><path d="M306.57,227.82s10,12.66,33.17-1.51c0,0-16.59-12.06-33.17,1.51Z" style="fill:#05603d;stroke:#000;stroke-miterlimit:2.613100051879883;stroke-width:0.43779999017715454px"/><path d="M457.34,220.58s-24.73,14.77-37.69,12.66l26.23-16.58,11.46,3.92Z" style="fill:#498677;stroke:#000;stroke-miterlimit:2.613100051879883;stroke-width:0.43779999017715454px"/><path d="M447.09,218.47s-28.35,18.39-41.61,16.58l30.45-20.5,11.16,3.92Z" style="fill:#05603d;stroke:#000;stroke-miterlimit:2.613100051879883;stroke-width:0.43779999017715454px"/><path d="M425.08,213.34s-31.06,21.11-47.94,18.4l35.58-20.51,12.36,2.11Z" style="fill:#05603d;stroke:#000;stroke-miterlimit:2.613100051879883;stroke-width:0.43779999017715454px"/><path d="M410.91,212.44s-28,22.61-48.24,18.39l31.66-19,16.58.6Z" style="fill:#05603d;stroke:#000;stroke-miterlimit:2.613100051879883;stroke-width:0.43779999017715454px"/><path d="M392.81,210.93s-21.11,25.63-41.31,20.81l25.93-19.9,15.38-.9Z" style="fill:#05603d;stroke:#000;stroke-miterlimit:2.613100051879883;stroke-width:0.43779999017715454px"/><path d="M344,220.88s-1.51,18.7-25.93,17.79l21.41-16,4.52-1.81Z" style="fill:#05603d;stroke:#000;stroke-miterlimit:2.613100051879883;stroke-width:0.43779999017715454px"/><path d="M371.4,213s-7.84,21.71-30.15,22.62l16.59-17.49L371.4,213Z" style="fill:#05603d;stroke:#000;stroke-miterlimit:2.613100051879883;stroke-width:0.43779999017715454px"/><path d="M355.72,218.77s-4.83,18.39-25.63,19.3l15.38-16.59,10.25-2.71Z" style="fill:#05603d;stroke:#000;stroke-miterlimit:2.613100051879883;stroke-width:0.43779999017715454px"/><path d="M456.13,220s-12.06-22.92-24.42-26.54l12.06,25.33L456.13,220Z" style="fill:#05603d;stroke:#000;stroke-miterlimit:2.613100051879883;stroke-width:0.43779999017715454px"/><path d="M446.18,217.56S429.3,188,416.63,184.4l17.19,32,12.36,1.2Z" style="fill:#05603d;stroke:#000;stroke-miterlimit:2.613100051879883;stroke-width:0.43779999017715454px"/><path d="M368.09,177.16c34.38-2.11,52.17,34.68,52.17,34.68H407.89c0,.3-13-19.3-18.69-23.82s-21.11-10.86-21.11-10.86Z" style="fill:#05603d;stroke:#000;stroke-miterlimit:2.613100051879883;stroke-width:0.43779999017715454px"/><path d="M348.18,187.11c17.79-7.54,39.5,23.82,39.5,23.82l-15.38,3.32c-.3.3-8.14-16.88-12.36-20.2a126,126,0,0,0-11.76-6.94Z" style="fill:#05603d"/><path d="M348.18,187.11c17.79-7.54,39.5,23.82,39.5,23.82l-15.38,3.32s-8.14-16.88-12.36-20.2a126,126,0,0,0-11.76-6.94Z" style="fill:none;stroke:#000;stroke-miterlimit:2.613100051879883;stroke-width:0.43779999017715454px"/><path d="M332.81,196.76c21.11-14.47,38.9,16.28,38.9,16.28l-10.55,3.32c.3,0-6.63-10.25-10.25-12.36-3.92-2.41-18.09-7.24-18.09-7.24Z" style="fill:#05603d;stroke:#000;stroke-miterlimit:2.613100051879883;stroke-width:0.43779999017715454px"/><path d="M361.45,214.85s-19.6-17.79-37.69-11.46l24.42,16.89,13.27-5.43Z" style="fill:#05603d;stroke:#000;stroke-miterlimit:2.613100051879883;stroke-width:0.43779999017715454px"/><path d="M346.38,221.18s-13.87-16.89-32.57-6.33l23.52,10.85,9-4.52Z" style="fill:#05603d;stroke:#000;stroke-miterlimit:2.613100051879883;stroke-width:0.43779999017715454px"/><path d="M466.69,225.71S402.46,191,332.81,227.21" style="fill:none;stroke:#000;stroke-miterlimit:2.613100051879883;stroke-width:0.5px"/><path d="M356.33,181.38c25.93-8.74,47.64,30.46,47.64,30.46l-13.27-.9s-7.84-10.85-12.06-15.68c-6.33-6.94-22.31-13.87-22.31-13.87Z" style="fill:#05603d;stroke:#000;stroke-miterlimit:2.613100051879883;stroke-width:0.43779999017715454px"/><path d="M435.93,214.55s-31.06,21.41-43.12,19.6l29.85-21.41,13.27,1.81Z" style="fill:#05603d;stroke:#000;stroke-miterlimit:2.613100051879883;stroke-width:0.43779999017715454px"/><path d="M400.05,350.24s13.57-19.3,11.15-24.42c0,0-18.69,10-11.15,24.42Z" style="fill:#05603d;stroke:#000;stroke-miterlimit:2.613100051879883;stroke-width:0.43779999017715454px"/><path d="M460.06,228.12s1.81,23.52-6,35l-3-24.73,9-10.25Z" style="fill:#05603d;stroke:#000;stroke-miterlimit:2.613100051879883;stroke-width:0.43779999017715454px"/><path d="M453.72,236.86s3.32,26.23-4.52,37.69l-4.52-27.44,9-10.25Z" style="fill:#05603d;stroke:#000;stroke-miterlimit:2.613100051879883;stroke-width:0.43779999017715454px"/><path d="M438.35,256.46s7.54,28.95-3,43.72L430.81,267l7.54-10.55Z" style="fill:#05603d;stroke:#000;stroke-miterlimit:2.613100051879883;stroke-width:0.43779999017715454px"/><path d="M413.62,301.39s16.58,6.33,7.54,24.12l-9-13.57,1.51-10.55Z" style="fill:#05603d;stroke:#000;stroke-miterlimit:2.613100051879883;stroke-width:0.43779999017715454px"/><path d="M459.15,229S432.31,242.89,423,254l29.25-14.47L459.15,229Z" style="fill:#05603d;stroke:#000;stroke-miterlimit:2.613100051879883;stroke-width:0.43779999017715454px"/><path d="M452.22,237.77s-35.28,19.3-44.63,30.45l38-19.9,6.63-10.55Z" style="fill:#05603d;stroke:#000;stroke-miterlimit:2.613100051879883;stroke-width:0.43779999017715454px"/><path d="M443.17,248.92S414.52,261,409.1,273.35l27.14-13.87,6.94-10.55Z" style="fill:#05603d;stroke:#000;stroke-miterlimit:2.613100051879883;stroke-width:0.43779999017715454px"/><path d="M434.73,260.38S409.1,268.82,401,285.11l28-14.17,5.73-10.55Z" style="fill:#05603d;stroke:#000;stroke-miterlimit:2.613100051879883;stroke-width:0.43779999017715454px"/><path d="M418.75,288.12s-23.52,11.46-27.14,24.12l23.52-11.76,3.62-12.36Z" style="fill:#05603d;stroke:#000;stroke-miterlimit:2.613100051879883;stroke-width:0.43779999017715454px"/><path d="M413.32,301.09s-22.61,7.84-23.82,21.41l21.41-11.16,2.41-10.25Z" style="fill:#05603d;stroke:#000;stroke-miterlimit:2.613100051879883;stroke-width:0.43779999017715454px"/><path d="M410.3,309.53s-17.49,7.84-19.9,22l19-11.76.9-10.25Z" style="fill:#05603d;stroke:#000;stroke-miterlimit:2.613100051879883;stroke-width:0.43779999017715454px"/><path d="M409.4,321s-21.71,10.55-19.9,22.92l19.6-16.58.3-6.33Z" style="fill:#05603d;stroke:#000;stroke-miterlimit:2.613100051879883;stroke-width:0.43779999017715454px"/><path d="M469.1,219.37s-61.81,59.7-60.3,111.87" style="fill:none;stroke:#000;stroke-miterlimit:2.613100051879883;stroke-width:0.5px"/><path d="M427.19,274.25s-22,5.43-33.47,27.14l26.54-15.68,6.93-11.46Z" style="fill:#05603d;stroke:#000;stroke-miterlimit:2.613100051879883;stroke-width:0.43779999017715454px"/><path d="M444.68,247.11s4.22,32.87-.6,39.8l-7.24-28.35,7.84-11.46Z" style="fill:#05603d;stroke:#000;stroke-miterlimit:2.613100051879883;stroke-width:0.43779999017715454px"/><path d="M431.11,268.52S438.95,296,428.39,311l-4.82-28.64,7.54-13.87Z" style="fill:#05603d;stroke:#000;stroke-miterlimit:2.613100051879883;stroke-width:0.43779999017715454px"/><path d="M421.46,283.6a37.1,37.1,0,0,1,2.71,35.58l-9-22.61,6.33-13Z" style="fill:#05603d;stroke:#000;stroke-miterlimit:2.613100051879883;stroke-width:0.43779999017715454px"/><path d="M411.51,313.45s8.74,8.74,6.33,18.09l-8.44-9.65,2.11-8.44Z" style="fill:#05603d;stroke:#000;stroke-miterlimit:2.613100051879883;stroke-width:0.43779999017715454px"/><path d="M408.19,322.8s12.67,6,1.81,25l-2.11-21.41.3-3.62Z" style="fill:#05603d;stroke:#000;stroke-miterlimit:2.613100051879883;stroke-width:0.43779999017715454px"/><path d="M438.95,229.63s-36.48-14.77-47-5.73l37.39,11.16,9.65-5.43Z" style="fill:#05603d;stroke:#000;stroke-miterlimit:2.613100051879883;stroke-width:0.43779999017715454px"/><path d="M352.71,305.61s13.87,4.22,23.52-18.09c0,0-18.39-.3-23.52,18.09Z" style="fill:#05603d;stroke:#000;stroke-miterlimit:2.613100051879883;stroke-width:0.43779999017715454px"/><path d="M459.75,222.39s-10.25,23.52-21.11,28.95L449.5,225.4l10.25-3Z" style="fill:#05603d;stroke:#000;stroke-miterlimit:2.613100051879883;stroke-width:0.43779999017715454px"/><path d="M451.31,226s-11.46,28.34-22,33.77L441.06,229l10.25-3Z" style="fill:#055f3c;stroke:#000;stroke-miterlimit:2.613100051879883;stroke-width:0.43779999017715454px"/><path d="M432.31,233.55s-11.76,31.66-25.63,38.6l15.38-33.77,10.25-4.83Z" style="fill:#05603d;stroke:#000;stroke-miterlimit:2.613100051879883;stroke-width:0.43779999017715454px"/><path d="M421.46,240.48s-8.74,31.06-25.93,38.6l13.57-30.45,12.36-8.14Z" style="fill:#05603d;stroke:#000;stroke-miterlimit:2.613100051879883;stroke-width:0.43779999017715454px"/><path d="M407.59,248.62s-2.41,29.85-19.9,36.49l8.74-28,11.16-8.44Z" style="fill:#05603d;stroke:#000;stroke-miterlimit:2.613100051879883;stroke-width:0.43779999017715454px"/><path d="M376.83,281.19s8.44,14.47-10,26.84l7.54-23.22,2.41-3.62Z" style="fill:#05603d;stroke:#000;stroke-miterlimit:2.613100051879883;stroke-width:0.43779999017715454px"/><path d="M392.81,261.29s4.52,20.81-10.25,32.26l3-21.41,7.24-10.86Z" style="fill:#05603d;stroke:#000;stroke-miterlimit:2.613100051879883;stroke-width:0.43779999017715454px"/><path d="M384.07,273.35s6.33,16.28-8.44,27.74l2.41-20.2,6-7.54Z" style="fill:#05603d;stroke:#000;stroke-miterlimit:2.613100051879883;stroke-width:0.43779999017715454px"/><path d="M458.85,222.39s-20.8-10.25-32-6.63l22,12.36,10-5.73Z" style="fill:#05603d;stroke:#000;stroke-miterlimit:2.613100051879883;stroke-width:0.43779999017715454px"/><path d="M450.41,226s-28-13-39.2-9.35l29.25,14.47,10-5.13Z" style="fill:#05603d;stroke:#000;stroke-miterlimit:2.613100051879883;stroke-width:0.43779999017715454px"/><path d="M371.71,236.56c24.12-19.3,56.39-1.51,56.39-1.51l-9.35,6.33c.61.3-19.3-7.24-25.63-7.84-6.63-.3-21.41,3-21.41,3Z" style="fill:#05603d;stroke:#000;stroke-miterlimit:2.613100051879883;stroke-width:0.43779999017715454px"/><path d="M362.36,254.35c9-14.77,41.31-3.32,41.31-3.32l-9.35,10.86c-.3.3-14.77-8.44-19.6-8.44a69,69,0,0,0-12.36.9Z" style="fill:#05603d;stroke:#000;stroke-miterlimit:2.613100051879883;stroke-width:0.43779999017715454px"/><path d="M356,269.13c7.84-21.71,36.79-7.84,36.79-7.84l-6,7.84c.3-.3-9.95-4.22-13.87-3.92S356,269.13,356,269.13Z" style="fill:#05603d;stroke:#000;stroke-miterlimit:2.613100051879883;stroke-width:0.43779999017715454px"/><path d="M386.48,267.62s-23.82-3-33.77,11.16h26.54l7.24-11.16Z" style="fill:#05603d;stroke:#000;stroke-miterlimit:2.613100051879883;stroke-width:0.43779999017715454px"/><path d="M378.64,280.28s-19-5.12-27.44,12.36l23.22-4.22,4.22-8.14Z" style="fill:#05603d;stroke:#000;stroke-miterlimit:2.613100051879883;stroke-width:0.43779999017715454px"/><path d="M469.7,221.18s-65.43,7.84-98,70.56" style="fill:none;stroke:#000;stroke-miterlimit:2.613100051879883;stroke-width:0.5px"/><path d="M365.37,245.91c14.47-20.2,50.66-2.41,50.66-2.41l-10.55,6.33s-10.85-3.92-16.89-5.43c-7.84-1.81-23.22,1.51-23.22,1.51Z" style="fill:#05603d;stroke:#000;stroke-miterlimit:2.613100051879883;stroke-width:0.43779999017715454px"/><path d="M441.06,229s-11.76,31.66-21.41,36.79l10.55-31.36L441.06,229Z" style="fill:#05603d;stroke:#000;stroke-miterlimit:2.613100051879883;stroke-width:0.43779999017715454px"/><path d="M349.69,74s-2.11,13-7.54,19.6-31.36,50.05-106.44,20.81c0,0-8.74,74.78-96.79,81.41,0,0,16.58,11.76,10.85,40.1-2.71,14.48-13,36.79-29.25,71.77-16.28,34.68-36.79,83.53-35.88,126.95C85.85,478.09,95.5,562.82,187.77,605l-2.11,12.06S132,593.88,119.32,582.42c-13-12.06-17.19-5.43-17.19-1.21,0,0-6.64-1.21-7.54-6.64-1.21-5.12,0-13.87,11.76-11.76,0,0-17.19-21.71-20.5-30.46S73.79,517,70.77,521.51c0,0,2.11-6.63,6.33-7.54,4.22-1.21,3-8.45,1.21-14.18-2.11-6.33-7.54-12.06-10.86-12.06-6.63,0-10,1.21-10,6.64,0,0-3.92-3.32-4.22-7.54-1.21-10,0-15.08,8.44-17.49,3.92-.9,13.27,2.41,13.27,5.43,0,3.32-2.11-16.28-2.11-16.28a133.65,133.65,0,0,0-5.43-24.73C62.93,420.5,53.28,420.5,45.75,428c0,0-2.41-11.76.9-16.29,3.32-4.22,15.08-17.19,27.14,4.52,0,0,1.21-30.46-2.11-35-3.32-4.23-12.06-10.56-19.6-4.23,0,0-3.32-16.28,14.17-15.08,11.76.6,12.06,10.86,12.06,10.86S88,329.43,103,307.72c15.38-22,50.05-81.72,31.66-106.44,0,0-4.22,4.22-8.75,3-4.22-.9-3.32-8.44,0-8.44,0,0-9.65,2.11-4.22-8.74,2.71-6,7.54-4.52,8.74,0,0,0-2.41-10.86,7.54-7.54,8.44,2.71,4.22,6.33.9,8.44,0,0,73.88-13,83.83-70.56,0,0-4.22,8.14-8.74,0-5.43-9.65,6.33-9.65,6.33-9.65s-8.44-2.11,0-8.75c5.13-3.62,13.27-2.11,12.06,3.32,0,0,3.32-6.63,7.54-2.11,0,0,8.74,7.54,0,9.65,0,0,64.23,19.6,96.79-25,0,0-8.74-3-5.43-8.44,4.22-7.84,8.74-4.52,11.76,0,0,0-6.33-13,6.63-13s6.64,13,6.64,13c3-4.52,7.54-7.84,11.76,0,3.32,5.43-5.43,8.44-5.43,8.44,32.56,44.63,96.79,25,96.79,25-8.74-2.11,0-9.65,0-9.65,4.22-4.52,7.54,2.11,7.54,2.11-.91-5.43,7.24-6.93,12.06-3.32,8.74,6.63,0,8.75,0,8.75s11.76,0,6.33,9.65c-4.52,8.14-8.74,0-8.74,0C486.59,175,560.47,188,560.47,188c-3.32-2.11-7.24-5.73.91-8.44,9.95-3.32,7.54,7.54,7.54,7.54,1.21-4.52,6-6,8.75,0,5.73,10.85-4.22,8.74-4.22,8.74,3.32,0,4.22,7.54,0,8.44-4.52,1.21-8.74-3-8.74-3C546.29,226,581,285.71,596.35,307.72c15.08,21.71,25,65.13,25,65.13s0-10.25,11.76-10.86c17.49-1.2,14.17,15.08,14.17,15.08-7.54-6.33-16.28,0-19.6,4.23-3.31,4.52-2.11,35-2.11,35,12.06-21.71,23.82-8.74,27.14-4.52,3.32,4.52.9,16.29.9,16.29-7.54-7.54-17.19-7.54-21.71,5.73a133.36,133.36,0,0,0-5.43,24.73s-2.11,19.6-2.11,16.28c0-3,9.35-6.33,13.27-5.43,8.45,2.41,9.65,7.54,8.45,17.49-.3,4.22-4.22,7.54-4.22,7.54,0-5.43-3.32-6.64-9.95-6.64-3.32,0-8.45,5.73-10.55,12.06-2.11,5.73-3.32,13,.9,14.18,4.22.9,6.33,7.54,6.33,7.54-3-4.52-11.76,2.11-15.08,10.86S593,562.82,593,562.82c12.06-2.11,13,6.63,12.06,11.76-1.21,5.43-7.84,6.64-7.84,6.64,0-4.22-4.22-10.85-17.19,1.21-12.66,11.46-66.34,34.68-66.34,34.68L511.62,605c92.27-42.21,101.92-126.95,103.13-170.37.9-43.42-19.6-92.27-35.89-126.95-16.28-35-25-57.59-29.25-71.77-7.54-25,10.85-40.1,10.85-40.1-88-6.63-96.79-81.42-96.79-81.42-74.78,29.25-101-14.17-106.44-20.81C352.1,87,349.69,74,349.69,74Z" style="fill:#fff500;stroke:#000;stroke-miterlimit:2.613100051879883;stroke-width:0.8755999803543091px"/><path d="M232.4,605s-10.85,0-6.33-6.33c4.22-6.63,13.87-4.52,15.08,2.11.9,6.63-1.21,19.6-13,23.82-12.06,4.52-40.41,0-43.42,13,0,0-7.84-10.55.9-13.87,0,0-27.14-7.24-14.77-17.49,3.32-2.71,10.55,1.21,6,7.54,0,0,10.85,2.71,9.95-14.47,0,0,14.78,14.47,32,15.68,10.86.6,16.28-5.43,13.57-10Z" style="fill:#ffec00;stroke:#000;stroke-miterlimit:2.613100051879883;stroke-width:0.8755999803543091px"/><path d="M467,605s10.85,0,6.33-6.33c-4.22-6.63-13.87-4.52-15.08,2.11-.9,6.63,1.21,19.6,13,23.82,12.06,4.52,40.41,0,43.42,13,0,0,7.84-10.55-.91-13.87,0,0,27.14-7.24,14.78-17.49-3.32-2.71-10.55,1.21-6,7.54,0,0-10.85,2.71-10-14.47,0,0-14.47,14.47-32,15.68-10.86.6-16.28-5.43-13.57-10Z" style="fill:#ffec00;stroke:#000;stroke-miterlimit:2.613100051879883;stroke-width:0.8755999803543091px"/><path d="M348.79,682.23S370.5,647,387.69,643c15.38-3,52.17-13.87,37.09-30.46,0,0,15.08-6.33,16.28,10,0,0,10.55-2.11,10.55-6.63,0,0-7.24-5.12-4.22-8.44,3.32-3.32,15.38-5.43,15.38,5.12,0,11.16-1.21,16.59-13,21.71,0,0,7.54,5.73,5.13,12.06,0,0-21.71-10.85-41.31,2.41,0,0,12.06,4.22,3.31,15.08,0,0-28-22.92-68.15,18.39Z" style="fill:#fff500;stroke:#000;stroke-miterlimit:2.613100051879883;stroke-width:0.8755999803543091px"/><path d="M350.3,682.23S329.19,647,311.7,643c-15.38-3-52.16-13.87-37.09-30.46,0,0-15.08-6.33-16.28,10,0,0-10.55-2.11-10.55-6.63,0,0,7.24-5.12,4.22-8.44-3.32-3.32-15.38-5.43-15.38,5.12,0,11.16,1.21,16.59,13.27,21.71,0,0-7.84,5.73-5.43,12.06,0,0,21.71-10.85,41.31,2.41,0,0-12.06,4.22-3.32,15.08,0,0,27.74-22.92,67.84,18.39Z" style="fill:#fff500;stroke:#000;stroke-miterlimit:2.613100051879883;stroke-width:0.8755999803543091px"/><path d="M349.69,45.69c60.91,0,96.19,10,96.19,10V71.92c0,6.63,4.82,8.75,10.85,6.94,53.67-14.47,66-13.57,71.16-13.57,4.82,0,24.73,3,62.72,25,38,22.31,54.58,20.81,54.58,20.81V125c1.51,6.63,6.94,3.92,16.28,12.67C684.4,159.07,694,189.22,694,189.22s22-77.19-33.17-104.33L659.67,67.1S631,61.67,614.74,52c-16.28-10-47.65-32.26-88-32.26-35.28,0-67.85,11.46-67.85,11.46l2.71-19S430.2.46,349.69.46c-80.21,0-111.87,11.76-111.87,11.76l.6,16.89s-25-9.35-65.74-9.35c-40.1,0-71.76,22.31-88,32.26C68.36,61.67,39.71,67.1,39.71,67.1L38.51,84.89C-16.67,112,5.34,189.22,5.34,189.22S15,159.07,38.21,137.66c9-8.74,14.47-6,16.28-12.67V111.12s16.28,1.51,54.28-20.81c38-22,57.9-25,63-25,4.82,0,17.49-.9,71.16,13.57,5.73,1.81,10.55-.3,10.55-6.94V55.64s35.58-9.95,96.19-9.95Z" style="fill:#fff;stroke:#000;stroke-miterlimit:2.613100051879883"/><path d="M238.43,29.11l1.21,29.25a9,9,0,0,0,5.13,6.93c4.52,2.41,8.74,6.63,5.43,12.67m3.32-22.32a42.77,42.77,0,0,0-13.87,2.72M38.51,84.59l1.21,29.25a25.86,25.86,0,0,0,7.54,2.71c3.32.3,8.14,4.22,7.24,8.44m-.91-13.87s-9.65-.6-13.87,2.71M458.85,31.22l-1.51,26.54a13.8,13.8,0,0,1-5.12,8.14c-3.32,3.32-6.33,6-3,12.06m-3.32-22.32s4.22-.3,11.46,2.11M660.88,84.59l-1.21,29.25a25.85,25.85,0,0,1-7.54,2.71c-3.32.3-8.14,4.22-6.94,8.44m.6-13.87s9.65-.6,13.87,2.71" style="fill:none;stroke:#000;stroke-miterlimit:2.613100051879883;stroke-width:0.43779999017715454px"/><path d="M257.12,47.2l-.3-1.81a7.1,7.1,0,0,0,2.41-.6,1.21,1.21,0,0,0,.6-1.81l-3-16.28c-.3-3-.3-3-3-2.41h-.9l-.3-1.81,13.27-2.41.3,1.81-2.11.3c-1.51.3-1.51.9-1.2,2.11l3,16.89c.3,1.51.3,2.11,1.81,2.11.9,0,1.51-.3,2.41-.3,4.83-1.21,6.63-4.22,6.93-9l1.51-.3L279.74,43,257.12,47.2Z"/><path d="M284.86,42.67l-.6-2.11,2.41-.3c1.51-.3,1.21-.9.91-2.41L285.77,21a1.1,1.1,0,0,0-.3-.9c0-.6,0-.91-.6-.91h-1.81l-1.21.3V17.65l13.27-1.81.3,2.11h-1.21c-.6,0-1.81,0-2.11.6a.93.93,0,0,0-.3.6v1.21l2.11,17.19c.3.9.3,1.51.9,1.81h.6a13.17,13.17,0,0,1,1.51-.3h.91l.3,1.81-13.27,1.81Z"/><path d="M302.35,40.26l-.3-1.81c.9,0,3.32,0,3.32-.9a1.81,1.81,0,0,0,.3-1.21l-1.21-17.79a1.1,1.1,0,0,0-.3-.9.3.3,0,0,0-.3-.3h-.3a5.11,5.11,0,0,0-3,0V15.23l14.77-.9c2.11,0,5.13,0,7.24,1.51a4.7,4.7,0,0,1,2.11,3.92c.3,4.22-3.32,5.43-6.93,6.33h0c3.62.3,8.74,1.51,9,6a5.22,5.22,0,0,1-2.11,4.82,7.76,7.76,0,0,1-4.83,2.11,4.47,4.47,0,0,0-1.81.3,14.65,14.65,0,0,0-3.62.3l-12.06.6Z"/><path d="M331.9,38.45V36.64c.91,0,3.32.3,3.62-.9V34.53l-.3-17.79c0-.3.3-.6,0-.9,0-.3-.3-.3-.9-.6H331.6V13.42l23.22-.3.3,9h-1.51c-1.51-5.13-3.32-7.24-9-7.24a4.06,4.06,0,0,0-2.41.6c-.3,0-.3.3-.6.6v8.44c3.62,0,5.13-1.81,5.43-5.13h1.81l.3,12.06H347c0-3.32-1.81-5.43-5.43-5.12v7.54c0,1.51,0,2.41,1.81,2.41h1.81c5.43,0,7.54-2.41,8.75-7.54h1.81l-.3,9.35-23.52.3Z"/><path d="M375.93,14h2.71a12.79,12.79,0,0,1,5.73,1.81,5,5,0,0,1,2.11,4.82c0,4.22-3.92,6-7.84,6h0c3,.6,4.52,2.41,5.13,5.43l.3,2.41a5.57,5.57,0,0,0,.6,2.11.29.29,0,0,0,.3.3c1.81.9,2.11-1.81,2.11-3l1.81.3a3.81,3.81,0,0,1-.3,1.81c-.6,3-3.32,3.92-6,3.92a4.86,4.86,0,0,1-3.92-1.81,5.43,5.43,0,0,1-.91-3.62l-.3-2.11c0-3,0-5.12-3.32-5.43-.6,0-.91-.3-1.51-.3h-1.2l-.3,8.14v.9c0,.9.3.9.9,1.21h2.72v2.11l-13.57-.9V36.34H363c1.81,0,1.81-.3,1.81-1.81l.9-16c0-.6.3-2.41,0-3-.6-.6-1.51-.3-2.41-.6h-.9V13.12l13.57.9Z"/><path d="M393.72,24.58l1.81-9.35,22.61,3.32-.6,9.35-1.81-.3c0-3.32-.91-7.84-4.82-8.44-.6,0-1.21,0-1.21.6a1.82,1.82,0,0,0-.3,1.2L407,38.45c0,1.21,0,1.51,1.2,2.11a10.34,10.34,0,0,1,2.71.3l-.6,1.81-13.87-1.81.3-1.81h3c.3,0,.91,0,.91-.3a3.28,3.28,0,0,0,.3-1.51l2.41-17.19V18.85a1,1,0,0,0-.9-.9c-3.92-.6-6.33,3.92-6.94,6.93l-1.81-.3Z"/><path d="M422.67,19.15,435,21.57l-.3,1.81a6.48,6.48,0,0,0-2.41,0,.29.29,0,0,0-.3.3,3,3,0,0,0,.3.91l3,8.74,4.52-5.43a1.39,1.39,0,0,0,.9-1.51c.3-.3,0-.6,0-.91-.6-1.2-1.81-1.2-2.71-1.51l.3-1.81,10,1.81-.3,2.11c-2.71-.3-4.22.9-5.73,2.71-1.21,1.51-2.71,3-3.92,4.52-.9.9-1.51,1.81-2.41,2.71l-1.51,7.24v1.51a.3.3,0,0,1,.3.3,15.53,15.53,0,0,0,3.32.6l-.3,2.11-13.57-2.71.3-1.81c.6,0,2.41.6,3,.3.9,0,.9-.9.9-1.81l1.51-6.33-4.52-11.76c-.6-1.51-.9-2.11-3-2.71l.3-1.81Z"/><path d="M466.69,66.19l-.3-1.51c.3,0,1.51-.3,1.51-.9v-.9l-3.62-13v-.6a.3.3,0,0,1-.3-.3h-.3c-.6,0-.9,0-1.2.3l-.6-1.51L469.4,46a4.62,4.62,0,0,1,3.92.6c.91.3,1.51,1.51,1.81,2.41.61,3.31-.9,4.52-2.71,5.43h0c2.11-.3,4.52.3,5.73,3.62a5.72,5.72,0,0,1-.3,3.92,4.69,4.69,0,0,1-2.41,1.81.93.93,0,0,0-.6.3c-.6,0-1.51.3-2.11.3l-6,1.81Z"/><path d="M482.67,42.67l1.51-.3a3.58,3.58,0,0,1,3,.3,5.54,5.54,0,0,1,2.11,3c.6,3.32-.9,5.13-2.71,5.73h0c1.51,0,2.71,1.21,3.62,3l.6,1.81a6.53,6.53,0,0,1,.91,1.51h0c1.2.3.6-1.51.6-2.41l.9-.3a2.27,2.27,0,0,0,.3,1.51c0,2.11-.9,3.62-2.41,3.92a2.86,2.86,0,0,1-2.11-.6,7.92,7.92,0,0,1-1.51-2.71l-.3-1.51c-.6-2.11-.91-3.62-2.71-3.32h-.91l-.6.3,1.51,5.73a1.11,1.11,0,0,0,.3.9c0,.6.3.6.61.6h.9l.6-.3.3,1.51-6.94,1.51-.3-1.51h.9c.9-.3.6-.6.6-1.81L478.75,47.5a5.6,5.6,0,0,1-.6-2.11c-.6-.3-1.2,0-1.51,0l-.6.3-.3-1.51,6.93-1.51Z"/><path d="M495.94,56.24a13.82,13.82,0,0,1-3-6.33,11.78,11.78,0,0,1,.3-7.24,6.11,6.11,0,0,1,4.22-3.62,5.78,5.78,0,0,1,5.43,1.81,12.72,12.72,0,0,1,3.32,6.33,14.15,14.15,0,0,1-.91,7.24c-.9,2.41-2.11,3.32-4.22,3.62a6.06,6.06,0,0,1-5.13-1.81Z"/><path d="M506.19,37.55l6.63-.9.3,1.51c-.6,0-1.21,0-1.51.6-.3.3,0,.91,0,1.21l.9,8.44c.3.9.3,2.41.91,3.32a2.13,2.13,0,0,0,1.21,1.51,3.84,3.84,0,0,0,1.81.3,2.83,2.83,0,0,0,2.41-1.81,10,10,0,0,0,0-4.22l-.91-6.94a3.49,3.49,0,0,0-1.21-3h-.9l-.6-1.21,5.43-.6v1.21c-1.81.3-1.81,1.81-1.51,3.92l1.21,7.24v2.71a5.26,5.26,0,0,1-1.81,3.62,3.28,3.28,0,0,1-2.72,1.21,5.75,5.75,0,0,1-3.92-.6,6.82,6.82,0,0,1-2.41-4.82L508.3,39.66a1.06,1.06,0,0,0-.3-.6c-.6-.3-1.51,0-1.81,0V37.55Z"/><path d="M535.14,35.74h.6V43l-.9.3c-.6-3-.91-5.43-3.32-6.33,0-.3-.3-.3-.6-.3-2.41,0-3.32,2.41-3.62,5.13a14.76,14.76,0,0,0-.3,3.62,18.33,18.33,0,0,0,.3,5.73A2.86,2.86,0,0,0,530,53.53a3.29,3.29,0,0,0,1.51-.3,3.42,3.42,0,0,0,.91-1.81,8.37,8.37,0,0,0,.3-2.72V47.5h-.9l-.91-.3V46h6.33V47.5H536v.3c-.3,0-.3.6-.3.9l-.3,6.33h-.91l-.9-2.41A4.81,4.81,0,0,1,529.41,55c-1.81,0-3.32-.9-4.52-3a10.77,10.77,0,0,1-1.51-6.94,11.8,11.8,0,0,1,2.71-7.84,6.27,6.27,0,0,1,3-1.81h1.51a2.27,2.27,0,0,1,1.21.3,2.15,2.15,0,0,1,1.81.9c.3.3.3.3.6,0l.9-.9Z"/><path d="M541.17,36.34l6.64,1.21-.3,1.51c-.3,0-1.21-.3-1.81,0a1.82,1.82,0,0,0-.3,1.21l-1.21,5.13,4.52,1.21,1.21-5.13a1.1,1.1,0,0,0,.3-.9V40a4.31,4.31,0,0,0-1.81-.6l.3-1.21,6.94,1.21-.3,1.51-1.51-.3c-.3,0-.6.9-.9,1.51l-2.41,11.76c0,.3,0,1.21-.3,1.51a1.06,1.06,0,0,0,.3.6c.6.3.91.3,1.51.6l-.3,1.21-6.64-1.21.3-1.51a6.79,6.79,0,0,0,1.21.3c.6,0,.6-1.51.9-2.11l.91-5.13-4.52-.91-1.21,5.43c-.3.9-.3,1.51.3,1.81a6.81,6.81,0,0,0,1.21.3l-.3,1.51-6.63-1.51V53.23l1.21.3c.3,0,.6,0,.6-.3.3-.6.3-.91.6-1.21l2.41-12.36a1.35,1.35,0,0,0,0-1.51c-.3-.3-.91-.3-1.21-.6l.3-1.21Z"/><path d="M555.64,46.9l2.41-6.63,11.16,3.62-1.81,6.94-.91-.3c.6-2.41.91-6-1.2-6.63-.3,0-.6,0-.6.3-.3.3-.3.9-.6,1.21l-3.92,12.36c-.3.9-.6,1.21,0,1.51s.9.3,1.21.6l-.3,1.21-6.94-2.41.6-1.21a2.72,2.72,0,0,0,1.51.3.3.3,0,0,0,.3-.3c.3-.3.3-.6.6-.9l3.92-12.36a1.11,1.11,0,0,0,.3-.9c.3-.3,0-.6-.3-.6-1.81-.9-3.92,2.41-4.82,4.52l-.6-.3Z"/><path d="M576.15,46.9l6.33,2.72-.6,1.21c-.6,0-1.21-.9-1.81-.3,0,.3-.3.9-.6.9l-3.32,8.14a6.37,6.37,0,0,0-1.21,3,2.47,2.47,0,0,0,.3,2.11,2.36,2.36,0,0,0,1.21,1.21,3.52,3.52,0,0,0,3.32-.6,10.44,10.44,0,0,0,2.11-3.62l2.72-6c.6-1.21,1.21-2.41.3-3.32,0-.3-.3-.3-.6-.3l.6-1.21,4.52,1.81-.6,1.21c-1.51-.6-2.41.6-3.32,2.41l-2.71,6.94a12.87,12.87,0,0,1-1.51,2.11c-.91,1.21-2.11,2.41-3.31,2.41a3.51,3.51,0,0,1-3-.6c-1.21-.6-2.72-1.51-3-2.71a6.2,6.2,0,0,1,.6-5.12L577,49.61V48.7a3.19,3.19,0,0,0-1.51-.6l.6-1.21Z"/><path d="M585.8,64.08l.6.3c-.6,3-.6,6.63,1.51,7.84,1.2.6,2.71.3,3.62-1.51.9-1.51.6-2.41-.3-3.32L590,66.5a6.11,6.11,0,0,1-2.11-3.62,8.52,8.52,0,0,1,.6-4.52c1.81-3.32,4.82-4.22,7.24-2.72q1.35.45,1.81,2.72l1.51-.9.91.3-3,6.33-.91-.3c.6-3,.6-6-1.51-7.24a2.73,2.73,0,0,0-3.32,1.21c-.91,1.81,0,2.71.9,3.62l.6.6c1.81,2.11,3.62,4.22,1.51,8.14a6.41,6.41,0,0,1-3.62,3.32,3.24,3.24,0,0,1-3.32-.3,3.66,3.66,0,0,1-2.41-3l-1.81.6-.91-.3,3.62-6.33Z"/><path d="M606,62l6,3.32-.6,1.21c-.3-.3-1.21-.9-1.81-.6-.3.3-.3.6-.6.9l-2.72,4.82L610.52,74l2.72-4.52c0-.3.3-.6.3-.91s.3-.3.3-.6c-.3-.3-1.21-.9-1.51-1.21l.6-.9,6,3.32-.6.9-1.21-.3c-.6-.3-.9.6-1.2,1.21l-5.73,10.55c-.3.3-.6.9-.9,1.21v.6a4.17,4.17,0,0,1,1.2.9l-.6,1.21-6-3.32.6-1.21a2.29,2.29,0,0,0,1.21.6c.6.3,1.21-.9,1.51-1.51l2.71-4.82-4.22-2.11-3,4.82c-.3.6-.6,1.51-.3,1.81.3,0,.9.6,1.21.9l-.6.9-6-3.32.6-1.21.91.6a.57.57,0,0,0,.91,0,4.16,4.16,0,0,1,.9-1.21L606,65.29c.3-.3.9-.9.6-1.21-.3-.6-.91-.6-1.21-1.21l.6-.9Z"/><path d="M611.13,86.1l.6-1.21c.6.3,1.51.9,2.11.3,0-.3.3-.6.3-.9l5.43-12.06c.3,0,.3-.3.3-.6V71a2.28,2.28,0,0,0-1.21-.6l.3-1.21,11.16,5.13-2.72,6-.9-.3c.9-3.62.6-5.73-1.81-6.93-.6,0-.91-.3-1.21-.3-.3.3-.6.3-.6.6-.3.3-.3.6-.6.9l-2.11,4.52c1.51.9,3,0,3.92-2.11l1.21.3-3.92,8.44-.91-.6c.91-2.11.91-3.92-.9-4.52l-2.41,5.13c-.3.91-.6,1.21,0,1.81.3.3.6.3.91.6,2.72,1.21,4.22-.3,6.33-3l.9.3-3,6L611.13,86.1Z"/><path d="M637.66,77l1.21.6a7.11,7.11,0,0,1,2.72,1.81,8.65,8.65,0,0,1,0,3.92c-1.21,3-3.32,3.62-5.43,3v.3c1.21.91,1.81,2.41,1.21,4.52V93a2.3,2.3,0,0,0-.6,1.51.3.3,0,0,0,.3.3c.6.9,1.51-1.21,1.81-1.81l.91.3a2.28,2.28,0,0,0-.6,1.21c-1.21,2.11-2.72,2.71-3.92,2.11-.9-.3-1.21-.9-1.51-1.81a5.43,5.43,0,0,1,.3-3l.3-1.51c.6-2.11.9-3.62-.6-4.22a.93.93,0,0,1-.6-.3h-.6l-2.11,5.43v.9q-.45.9,0,.9a1.11,1.11,0,0,0,.91.3l.6.3-.6,1.21-6.63-2.41.6-1.21c.3,0,.6.3.91.3.6.3.9-.3,1.21-1.21l3.92-11.46c.3-.3.9-1.51.6-1.81,0-.6-.6-.6-.91-.6l-.6-.3.6-1.51L637.66,77Z"/><path d="M641,98.16l.3-1.51c.6,0,1.81.6,1.81-.3a1.1,1.1,0,0,0,.3-.9l1.51-13.27v-.6c0-.3,0-.3-.3-.3a2.26,2.26,0,0,0-1.51-.3l.3-1.51L655.45,81l-.6,6.64h-1.21c-.3-3.92-.9-5.73-3.62-6a2.27,2.27,0,0,0-1.51.3.3.3,0,0,0-.3.3,1.82,1.82,0,0,0-.3,1.21l-.6,5.13c1.81.3,3-1.21,3.32-3.32h.91l-.91,9h-.9c.3-2.71-.6-4.22-2.41-4.52l-.6,5.73c-.3,1.21-.3,1.81.6,2.11h.91c2.72.3,3.92-1.51,5.13-5.13l.9.3-.9,6.93L641,98.16Z"/><path d="M49.36,88.21l-.9-6.63,16-3.32,1.81,6.94-1.21.3c-.9-2.41-2.41-5.73-5.43-4.82a.59.59,0,0,0-.6.6c0,.3.3.6.3.9l2.41,13c0,.91.3,1.21,1.21,1.21a3.83,3.83,0,0,1,1.81-.3l.3,1.21L55.4,99.36l-.3-1.51a4.28,4.28,0,0,0,1.81-.6.65.65,0,0,0,.6-.6,1.11,1.11,0,0,0-.3-.9L54.79,83.08V81.87c-.3-.3-.6-.3-1.21-.3-2.71.6-3,4.22-3,6.63H49.36Z"/><path d="M64.74,78l8.44-3.62.6,1.21A6.32,6.32,0,0,0,72,76.75c0,.6,0,.91.3,1.21l1.81,4.83,6.33-2.41-2.11-4.83a1.1,1.1,0,0,1-.3-.9c-.3,0-.3-.3-.6-.3-.3-.3-1.81.3-2.11.6L75,73.73l8.44-3.92.6,1.51-1.81.9c-.6.3,0,1.21,0,1.51l4.82,11.16c.3.6.6.9.9,1.51,0,.3.3.3.6.3.6-.3,1.21-.3,1.81-.6L91,87.3l-8.74,3.62-.6-1.21a10,10,0,0,0,1.81-.9c.6-.6,0-1.51-.3-2.11L81,81.87l-6,2.71,2.11,5.13c.3.6.6,1.51,1.51,1.21a7.72,7.72,0,0,0,1.51-.6l.6,1.21L72,95.44l-.3-1.21,1.21-.9c.3,0,.9-.3.6-.9,0-.3-.3-.6-.3-1.21L68.06,79.76c0-.6-.3-1.21-.9-1.21s-1.51.6-2.11.6L64.74,78Z"/><path d="M93.09,86.1l-.6-1.21c.3-.3,2.11-.9,1.81-1.81,0-.3-.3-.6-.6-.91L87.36,70.42l-.3-.3c-.3-.3-.3-.3-.6-.3l-1.81.9L84,69.51l14.47-8.14,3.32,6-.9.6c-3-2.71-4.82-3.62-8.14-1.81a3,3,0,0,0-1.51,1.21c-.3.3-.3.3-.3.6.3.6.3.9.9,1.21L94,73.43c2.41-.9,2.71-2.71,1.51-5.13L96.7,68l4.52,7.54-.9.91c-1.51-2.41-3.32-3-5.73-1.81l3,5.13c.6.9.6,1.51,1.81.9.3,0,.91-.3,1.21-.3,3.32-2.11,3.92-4.22,2.71-8.14l1.21-.6,3,6.33L93.09,86.1Z"/><path d="M115.4,73.13l-.6-1.21c.6,0,1.21-.6,1.81-.9s.3-.9-.3-1.51l-5.43-11.16c-.9-1.81-.9-1.81-2.71-.9l-.6.3-.6-1.21L115.7,52l.6,1.21-1.51.6c-.9.6-.9,1.21-.3,2.11l5.73,11.16c.6.9.9,1.51,1.81,1.21.6-.3.9-.3,1.51-.6,3.32-1.81,3.62-4.22,2.71-7.84l1.21-.6,2.72,6.33L115.4,73.13Z"/><path d="M132.89,61.67a9.58,9.58,0,0,1-4.82-5.43,9.4,9.4,0,0,1-.3-7.54,10.59,10.59,0,0,1,5.13-5.13,8.73,8.73,0,0,1,7.24.3A9.49,9.49,0,0,1,145.25,49a10.11,10.11,0,0,1,0,7.84c-.91,2.72-2.71,3.92-5.13,5.13a8.72,8.72,0,0,1-7.24-.3Z"/><path d="M144,39.66l8.74-2.41.3,1.51c-.6.3-1.81.3-1.81.91a1.1,1.1,0,0,0,.3.9l6.63,9.35,1.21-10.25a1.11,1.11,0,0,0-.3-.91c-.3-1.21-1.81-1.21-2.71-.9l-.3-1.51L163,34.84l.6,1.21c-2.11.6-2.41,2.71-2.71,4.22l-1.81,15.38-2.11.3-9.65-13.57c-.6-.9-.9-1.81-2.11-1.81a1.11,1.11,0,0,1-.91.3l-.3-1.21Z"/><path d="M166.36,53.23V51.72c.6,0,2.41.6,2.71-.3V50.21l.6-13.27v-.6c0-.3-.3-.3-.6-.3a4.49,4.49,0,0,0-2.11-.3V34.53l16.88.6-.3,6.63h-1.21c-.6-3.92-1.81-5.43-5.73-5.73a5.11,5.11,0,0,0-2.11.3l-.3.3c-.3.6,0,.9-.3,1.51V43c2.41.3,3.62-1.21,3.92-3.32H179v9h-1.51c0-2.71-1.21-4.22-3.62-4.22l-.3,5.73c0,1.21,0,1.81.9,1.81a13.09,13.09,0,0,1,1.51.3c3.92,0,5.43-1.81,6.63-5.43h1.21l-.6,6.94-16.88-.6Z"/><path d="M195,53.23a11.86,11.86,0,0,1-.9-7.24,9,9,0,0,1,4.22-6.33,9.1,9.1,0,0,1,6.94-1.21A7.08,7.08,0,0,1,211,42.37a8.81,8.81,0,0,1,1.21,7.24A9.89,9.89,0,0,1,208,56.24c-2.11,1.51-4.52,1.51-6.94,1.21a9.4,9.4,0,0,1-6-4.22Z"/><path d="M211.59,59.26l.6-1.21,1.51.3h.9v-.3c.3-.3.3-.6.6-1.21l3-12.36c.3-.6.3-.91,0-1.21a3.18,3.18,0,0,0-1.51-.6l-.6-.3.3-1.21,16,3.92L230.89,52l-1.51-.3c.3-3.62-.6-6-4.22-6.94-.6,0-1.51-.3-2.11,0-.3,0-.3.6-.6.9l-1.21,5.43c2.41.6,3.32-.3,4.82-2.71l.9.3-2.11,8.74-1.21-.3V55.34c-.3-1.81-.9-2.41-2.71-3h-.3l-1.21,5.73c-.3,1.21-.6,1.51.9,2.11l1.51.3-.6,1.21-9.65-2.41Z"/><path d="M349.69,728.06c-7.24-.91-17.79-2.41-17.79-2.41l-.6,7.54a20.13,20.13,0,0,1-20.51.6c-18.39-9.35-72.37-36.49-93.78-38.9-20.5-2.72-64.23.9-94.68-10-21.71-7.54-39.2-23.82-45.83-32-10.25-13-3.62-17.49-3.62-17.49-18.39-17.49-19.6-41.61-19.6-41.61.3-5.12,3.62-5.12,3.62-5.12-15.08-15.68-13-43.42-13-43.42.3-4.82,4.52-4.22,4.52-4.22-32.87-35.28-28.95-72.67-28.95-72.67s38.6,38.9,53.37,46.44c18.39,10,11.46,16.59,9,17.49l-9,9.65s4.82,16,13,25.63c7.54,9.35,3.62,13.27,3.62,13.27l-4.22,3.62s5.43,13.27,10.85,19c10,10.25,10.55,13.57,8.14,16.28a21,21,0,0,1-5.43,3.92s25,29.25,61.51,27.44c24.42-.91,61.81,2.71,86.24,10.85,25.33,8.75,52.77,32.87,72.67,33.77v-6.63s21.71,3.92,30.45,3.92,30.45-3.92,30.45-3.92v6.63c20.2-.9,47.34-25,72.67-33.77,24.43-8.14,61.82-11.76,86.24-10.85,36.49,1.81,61.51-27.44,61.51-27.44a21,21,0,0,1-5.43-3.92c-2.41-2.71-1.51-6,8.14-16.28,5.73-5.73,10.86-19,10.86-19l-4.22-3.62S606,577,613.53,567.65c8.15-9.65,13-25.63,13-25.63l-9-9.65c-2.11-.91-9.35-7.54,9-17.49,14.78-7.54,53.37-46.44,53.37-46.44s3.92,37.39-28.65,72.67c0,0,3.92-.6,4.22,4.22,0,0,2.11,27.74-13,43.42,0,0,3.32,0,3.62,5.13,0,0-.91,24.12-19.6,41.61,0,0,6.63,4.52-3.62,17.49-6.63,8.14-24.12,24.42-45.83,32-30.45,10.85-74.18,7.24-94.68,10-21.41,2.41-75.38,29.55-93.48,38.9a20.59,20.59,0,0,1-20.81-.6l-.6-7.54s-10.55,2.72-17.79,2.42Z" style="fill:#fff;stroke:#000;stroke-miterlimit:2.613100051879883"/><path d="M70.77,528.45c2.41-2.11,5.73.6,8.44,1.21s3.92,1.81,5.12,0m-1.5,45.23c1.51-.6,2.41,2.11,3.32,3,3.32,3,4.22.91,4.53,0m-5.43,6.63c-3.62-6.63-2.41-9.65-2.41-9.65L56.9,588.76m37.69,30.45c1.51-1.21,3,.3,6,.3,3.62.3,4.82-1.51,4.82-1.81m-6.63,6c-4.52-6-4.22-4.52-4.22-4.52L72.88,635.49m246.66,87.44a18.6,18.6,0,0,0,6.63,4.82c3.62,1.51,6,2.11,5.13,5.43m.6-7.54a50.92,50.92,0,0,1-12.36-2.71l-.3-27.14M48.46,541.11l22.31-12.66A19.4,19.4,0,0,0,72.88,542m555.73-13.57c-2.41-2.11-5.73.6-8.44,1.21s-3.92,1.81-4.83,0m1.21,45.23c-1.21-.6-2.41,2.11-3.32,3-3.32,3-4.22.91-4.52,0m5.43,6.63c3.62-6.63,2.41-9.65,2.41-9.65l25.93,13.87m-37.69,30.45c-1.21-1.21-3,.3-5.73.3-3.92.3-4.82-1.51-5.13-1.81m6.64,6c4.52-6,4.22-4.52,4.22-4.52l21.71,16.28M379.85,722.94c-1.2,1.51-2.71,3-6.63,4.82-3.62,1.51-6,2.11-5.12,5.43m-.6-7.54a50.9,50.9,0,0,0,12.36-2.71l.3-27.14M651.23,541.11l-22.61-12.66A19.41,19.41,0,0,1,626.5,542" style="fill:none;stroke:#000;stroke-miterlimit:2.613100051879883;stroke-width:0.43779999017715454px"/><path d="M123.54,650.27l2.41,1.21a17.62,17.62,0,0,1,3.92,4.22,6.77,6.77,0,0,1-.6,5.43c-2.11,3.31-6,2.71-9.35,1.2h0c2.11,1.81,2.41,4.22,1.51,6.94l-.9,2.11a19.13,19.13,0,0,0-.6,2.11v.6c1.21,1.51,3-.6,3.62-1.81l1.21,1.21a5.34,5.34,0,0,1-1.21,1.51c-1.81,2.11-4.52,1.81-6.63.3a4.89,4.89,0,0,1-2.71-3.32,8.36,8.36,0,0,1,.9-3.92l.9-1.51c1.51-2.72,2.41-4.52-.3-6.33a4.14,4.14,0,0,0-1.21-.9l-.6-.6-4.22,6.63c-.3.3-.6.6-.6.9-.3.6-.3.91.3,1.51a6.66,6.66,0,0,0,1.51.91l.6.6-.9,1.51-11.16-7.24.91-1.51a6.56,6.56,0,0,1,1.51.91c1.51.9,1.81.3,2.71-.6L113,649.06a6.06,6.06,0,0,0,1.21-2.41c-.3-.9-.9-1.21-1.81-1.51l-.91-.6.91-1.51,11.15,7.24Z"/><path d="M128.06,679.82l.6-1.81c.9,0,3,1.21,3.32,0,.3-.3.3-.9.6-1.21l3.62-16.89v-.6a1.1,1.1,0,0,0-.3-.91c-.9-.3-1.81-.3-3-.6l.6-1.81,22,5.13L154,669.56l-1.81-.3c-.3-5.13-1.51-7.54-6.63-8.74a7.51,7.51,0,0,0-2.41-.3.65.65,0,0,0-.6.6l-.9,1.81-1.21,6c3.32,1.2,5.13-.6,6.33-3.32l1.51.3-2.41,11.46-1.81-.6c.6-3-.6-5.43-3.92-6l-1.51,7.24c-.3,1.51-.6,2.11.9,2.41a5.12,5.12,0,0,0,1.51.6c5.43,1.21,7.84-.6,10.25-5.13l1.51.6-2.11,8.44-22.61-4.82Z"/><path d="M156.11,684.94l.3-1.81c.6,0,1.21.3,1.81.3,1.51,0,1.81-.9,1.81-2.11l.9-17.79-.3-.3a.29.29,0,0,0-.3-.3,10.23,10.23,0,0,0-3-.3v-1.81l13.87.6a2.24,2.24,0,0,1,1.51.3c2.41,0,4.22.3,6,1.81a6.54,6.54,0,0,1,2.41,5.43c-.3,6-6.93,6.63-11.46,6.33l-3.62-.3-.3,6.94a1.82,1.82,0,0,0,.3,1.21.29.29,0,0,0,.3.3c.3.3.3.3.6.3h2.41v1.81l-13.27-.6Z"/><path d="M182.94,662l12.66.91v1.51c-.9,0-2.41-.3-3,.6-.6.3-.6.91-.6,1.51l-.6,11.16a11.41,11.41,0,0,0,0,4.52,4.18,4.18,0,0,0,2.41,2.11,8.8,8.8,0,0,0,3,.9,8.2,8.2,0,0,0,5.13-1.81c1.21-1.51,1.21-3.62,1.21-5.43l.6-8.44c0-1.81.3-3.62-1.51-4.22a3.81,3.81,0,0,0-1.81-.3v-2.11l9.65.6v2.11c-3.32-.3-3.92,1.51-4.22,4.22l-.3,9.65a16,16,0,0,1-.9,3,7,7,0,0,1-4.22,4.52,16.71,16.71,0,0,1-5.73.6c-2.11-.3-5.13-.6-6.94-2.41a6.42,6.42,0,0,1-2.41-6.33l.6-13.57c.3-.6,0-.91-.3-1.21a10.31,10.31,0,0,0-3-.3l.3-1.81Z"/><path d="M208.88,687.05l.3-1.81c.6,0,3,.91,3.32-.3.3-.3.3-.3.3-.91l3-16.89c0-.3.3-.6,0-.91v-.3c-.3-.3-.3-.3-.6-.3a5.69,5.69,0,0,0-2.41-.6l.3-1.81,14.17,2.41c2.11.3,4.82,1.21,6.33,3a5.4,5.4,0,0,1,1.21,4.22c-.9,3.92-4.52,4.22-7.84,4.22h0c3.32,1.21,7.54,3.62,6.93,7.84a6.65,6.65,0,0,1-3.32,4.22c-1.51.9-3,.9-4.82.9-.6-.3-1.21-.3-1.51-.6-1.21,0-2.41-.3-3.62-.3l-11.76-2.11Z"/><path d="M233.3,692.18l.6-1.51,2.71.91c.6.3.9-.6,1.21-1.21l6.33-14.78c.91-2.72,1.21-2.72-1.21-3.92l-1.21-.3.9-1.51L254.71,675l-.6,1.51-1.81-.9c-1.51-.3-1.81,0-2.41,1.21l-6.33,15.38c-.3,1.21-.6,1.81.6,2.72l1.81.9c4.82,1.81,7.84,0,10.55-3.62l1.51.6-3.92,8.14-20.81-8.74Z"/><path d="M255.92,701.83l.6-1.51,1.81.9c1.51.3,1.81-.3,2.41-1.51l6.63-15.08c.3-.3.3-.6.6-.9,0-.3.3-.6-.3-.91s-.9-.6-1.51-.9l-.9-.6.6-1.51,12.06,5.43-.91,1.81-.9-.6c-.6-.3-1.51-.9-2.11-.3-.3,0-.3.3-.6.3-.3.3-.3.6-.6.91l-6.93,15.38c-.3.6-.6,1.21,0,1.51a.3.3,0,0,0,.3.3,6.54,6.54,0,0,0,1.51.9l.6.3-.9,1.51-11.46-5.43Z"/><path d="M299,694.9l1.21.6-3.92,8.74-1.51-.3c.6-3.92.6-9-3.32-10.85a5.18,5.18,0,0,0-5.13,0,13.69,13.69,0,0,0-3.62,3.62,40.19,40.19,0,0,0-1.81,3.62,15.74,15.74,0,0,0-1.81,4.82,7.57,7.57,0,0,0,.3,4.52,5,5,0,0,0,3,3c3.92,1.81,7.54,0,10-3.32l1.51,1.21c-3.62,5.13-7.84,6-13.57,3.32-3.32-1.51-5.43-3.62-6.33-6.94-1.21-3-.6-6.33.6-9.35,1.81-3,4.22-5.73,7.54-6.94a11.32,11.32,0,0,1,9.35.6,10.05,10.05,0,0,1,4.82,3.92v.6l2.71-.9Z"/><path d="M415.13,713.89l-.9-1.51a17.92,17.92,0,0,0,2.41-1.21c.9-.6.3-1.51,0-1.81l-6.33-14.78c-.9-2.71-.9-2.71-3.32-1.81l-.9.3-.6-1.51,12.06-5.13.6,1.51-1.81.9c-1.21.6-1.21,1.21-.6,2.41l6.33,15.08c.6,1.21.6,2.11,2.41,1.51.6-.3,1.21-.3,1.81-.6,4.52-2.11,5.43-5.43,4.52-10l1.81-.9,3,8.75-20.51,8.75Z"/><path d="M437.74,703.94l-.9-1.51,2.11-.9c1.21-.91.6-1.51.3-2.72L432.62,684c0-.6-.3-.9-.3-1.21-.3-.3-.6-.3-1.21-.3s-.9.3-1.51.6l-.9.3-.9-1.51,12.06-5.43.9,1.81-1.21.3c-.6.3-1.51.6-1.81,1.21v.6c0,.3.3.91.3,1.21L445,697c.3.6.61,1.21,1.2,1.21l.3-.3a2.29,2.29,0,0,0,1.51-.6l.9-.3.6,1.81-11.76,5.13Z"/><path d="M450.71,697.91l-.6-1.51c.6-.3,3-.91,3-1.81a1.8,1.8,0,0,0-.3-1.21l-6-16.28a1.06,1.06,0,0,0-.3-.6l-.3-.3h-.6a8.76,8.76,0,0,0-2.71.6l-.6-1.51,13.57-5.13c2.11-.6,4.82-1.21,6.93-.6a6.53,6.53,0,0,1,3.32,3c1.51,3.92-1.81,6.33-4.52,7.84h0c3.32-.6,8.14-.9,9.65,3.32a5.27,5.27,0,0,1-.6,5.12,7.73,7.73,0,0,1-3.92,3,2.31,2.31,0,0,1-1.51.6c-1.21.6-2.11.91-3.32,1.51l-11.15,3.92Z"/><path d="M474.23,689.16l-.3-1.51c.91-.3,3-.3,3.32-1.51,0-.6,0-.91-.3-1.21l-2.41-17.19v-.6c-.3-.3-.3-.3-.9-.3a8.25,8.25,0,0,0-2.71,0l-.3-1.51L492.92,662l1.81,8.44-1.81.3c-2.11-4.52-4.22-6.64-9.35-5.73-.9.3-1.81.3-2.41.91a.65.65,0,0,0-.6.6v1.81l.9,6.33c3.62-.3,4.82-2.41,4.82-5.43l1.51-.6,1.81,11.76-1.51.3c-.6-3.32-3-5.13-6-4.52l.9,7.54c.3,1.21.3,2.11,1.81,1.81h2.11c5.13-.91,6.63-3.32,7.24-8.44h1.81l.91,8.74-22.61,3.32Z"/><path d="M511.32,661.12h2.41a9.29,9.29,0,0,1,5.73.9,5.73,5.73,0,0,1,2.41,4.52c.3,4.22-3.32,6-6.94,6.33h0c3,.6,4.52,2.11,5.43,5.13l.6,1.81a7,7,0,0,0,.6,2.41l.3.3c1.81.6,1.81-2.11,1.81-3.32h1.81V681a5.16,5.16,0,0,1-5.43,4.22,4.18,4.18,0,0,1-3.92-1.21,4.05,4.05,0,0,1-1.51-3.62l-.3-1.81c-.3-3-.6-4.82-3.92-4.82H508l.3,7.54v1.21c.3.6.61.9,1.21.9h2.71v1.81l-13.27.3V684a3.83,3.83,0,0,0,1.81-.3c1.51,0,1.51-.6,1.51-1.81l-.6-15.68c0-.6,0-2.41-.3-2.71-.6-.6-1.51-.3-2.11-.3H498v-1.81l13.27-.3Z"/><path d="M526.39,684.94v-1.81h2.41c1.21,0,1.21-.91,1.21-2.41l-.3-16.28v-.9c-.3-.6-.3-.91-.6-.91-.6-.3-1.51,0-2.11,0h-.91v-1.81l13-.3v1.81h-.91a7.46,7.46,0,0,0-2.41.3v.6a2.28,2.28,0,0,0-.3,1.21l.6,16.89c0,.6,0,1.51.6,1.51h.6a2.25,2.25,0,0,0,1.51.3h.9v1.51l-13.27.3Z"/><path d="M550.21,658.11l2.41-.6L565,675.9c1.21,1.81,1.81,2.11,3.92,1.81l.3,1.81-11.46,2.41-.6-1.81c.91-.3,2.11-.3,2.41-.91s0-.9-.3-1.51l-2.41-3.32-8.44,1.51c0,1.21-.3,2.41-.3,3.62.6,1.81,2.41,1.81,3.92,1.51l.3,1.81L543,684.64l-.3-1.51c2.41-.91,3-3.92,3.62-6.33l3.92-18.7Z"/><path d="M335.22,716.6a10.62,10.62,0,0,1-2.71-6.94,10,10,0,0,1,19.9.6,10.83,10.83,0,0,1-3.32,6.94c-2.41,1.81-4.52,2.72-7.24,2.41a8.64,8.64,0,0,1-6.63-3Z"/><path d="M354.52,719.62v-1.51l1.51-.3h.9v-.3c.3,0,.3,0,.3-.3V716l-.9-12.66c0-.6,0-1.21-.6-1.51h-2.11v-1.21l16.89-.9.6,6.63H369.9c-.9-3.32-2.71-5.13-6.63-4.82a5.11,5.11,0,0,0-2.11.3c-.3.3,0,.9,0,1.51l.3,5.13c2.71,0,3.32-1.21,3.92-3.62l1.21-.3.6,9h-1.51a3.81,3.81,0,0,0-.3-1.81c-1.2-1.51-2.11-2.11-3.62-1.81h-.3l.3,5.73c0,1.51,0,1.81,1.51,1.81h1.81v1.2l-10.56.91Z"/><path d="M132.89,54.44A22.48,22.48,0,0,0,135.61,59a3.73,3.73,0,0,0,4.22.9c2.41-1.21,1.81-3.92,1.21-6a3.43,3.43,0,0,0-.9-2.41c-.9-2.72-3.32-7.24-6.33-5.73-3.62,1.51-2.11,6-.9,8.75Z" style="fill:#fff"/><path d="M199.23,47.2a16.45,16.45,0,0,0-.3,5.43,3.51,3.51,0,0,0,3,3c2.41.6,3.62-2.41,4.52-4.22.3-.9.3-1.81.6-2.72.6-2.71,1.21-7.54-2.41-8.44-3.62-.6-5.12,4.22-5.43,6.94Z" style="fill:#fff"/><path d="M311.4,25.49c1.51-.3,3.62,0,4.82-.9,1.51-.91,1.81-2.41,1.81-4.22a3.71,3.71,0,0,0-1.51-3,3.5,3.5,0,0,0-3-.6c-.6,0-2.11,0-2.41.91-.3.6,0,1.2,0,1.81l.3,6Z" style="fill:#fff"/><path d="M311.7,28.2l.3,7.23a2.26,2.26,0,0,0,.3,1.51c.3.3,1.51.3,1.81.3,1.51-.3,3-.3,4.22-1.21a4.39,4.39,0,0,0,1.51-3.62,7.19,7.19,0,0,0-2.11-3.92,7.06,7.06,0,0,0-3.62-.6l-2.41.3Z" style="fill:#fff"/><path d="M371.71,24.28h2.71c3,.3,4.83-.6,5.13-4.22,0-2.72-1.21-3.92-4.22-4.22a4.48,4.48,0,0,0-2.11.3c-.9.3-.9,1.21-.9,1.81l-.6,6.33Z" style="fill:#fff"/><path d="M469.1,54.44c.91-.3,1.81-.3,2.41-1.21.6-.6.6-1.81.3-3.32a2.48,2.48,0,0,0-1.21-1.81c-.3-.6-.9-.3-1.81-.3-.3,0-.9.3-.9.6a2.25,2.25,0,0,0,.3,1.51l.9,4.52Z" style="fill:#fff"/><path d="M469.4,56.55l1.51,5.13c0,.3,0,.9.3.9a1.11,1.11,0,0,0,.91.3c.6-.3,1.81-.6,2.11-1.21a5.12,5.12,0,0,0,0-3,6.58,6.58,0,0,0-1.51-2.41,1.9,1.9,0,0,0-1.81,0l-1.51.3Z" style="fill:#fff"/><path d="M483,50.82c.6,0,.91,0,1.21-.3,1.51-.6,2.41-1.51,1.81-3.92-.6-2.11-1.51-2.71-3-2.41-.3,0-.6.3-.9.6-.6.3-.3.9,0,1.21l.9,4.83Z" style="fill:#fff"/><path d="M496.54,49.31A22.54,22.54,0,0,0,498,54.13a3.79,3.79,0,0,0,3,2.11c2.11-.6,1.81-3.32,1.51-5.43a6.72,6.72,0,0,0-.3-2.71c-.6-3-1.81-7.54-4.22-7.24-2.72.6-2.11,5.73-1.51,8.44Z" style="fill:#fff"/><path d="M633.44,84a1.21,1.21,0,0,0,1.21.6c1.51.6,2.72,0,3.62-2.41.6-2.11.3-3-1.21-3.62-.6,0-.9-.3-1.21-.3-.3.3-.6.91-.9,1.21L633.44,84Z" style="fill:#fff"/><path d="M115.1,657.2a7.54,7.54,0,0,0,2.11,1.21c2.71,1.51,4.52,1.81,6.33-.91s.9-4.22-1.51-5.73a4.5,4.5,0,0,0-2.11-.91c-.6,0-.9.6-1.21.91l-3.62,5.43Z" style="fill:#fff"/><path d="M166.66,672.88h1.81c3.62.3,5.43-.6,5.73-4.52,0-3.32-.9-4.52-4.52-4.82a5.16,5.16,0,0,0-2.11.3c-.6.3-.6,1.21-.6,1.51l-.3,7.54Z" style="fill:#fff"/><path d="M220.94,675.3a11.89,11.89,0,0,0,4.52.3,4.2,4.2,0,0,0,3-3.62,4.66,4.66,0,0,0-.9-3.31,5.68,5.68,0,0,0-2.71-1.21c-.6,0-2.11-.3-2.41.3-.3.3-.3,1.21-.6,1.81l-.9,5.73Z" style="fill:#fff"/><path d="M220.33,678l-1.21,6.63v1.51c.3.6,1.21.6,1.51.9,1.51,0,3,.3,4.22-.3a4.46,4.46,0,0,0,2.41-3.32c0-1.21,0-2.71-.9-3.62a8.1,8.1,0,0,0-3.32-1.51l-2.72-.3Z" style="fill:#fff"/><path d="M338.23,710a10.06,10.06,0,0,0,.6,5.13,3.64,3.64,0,0,0,3.62,2.41c3,.3,3.32-2.72,3.92-4.82a8.36,8.36,0,0,0,.3-2.72c0-2.72,0-7.84-3.92-7.84-3.92-.3-4.52,4.82-4.52,7.84Z" style="fill:#fff"/><path d="M455.23,681.93c1.2-.91,3.31-1.21,4.22-2.41a3.65,3.65,0,0,0,.6-4.22c-.3-.91-1.21-2.41-2.11-2.72a5.21,5.21,0,0,0-3,.3c-.6.3-2.11.91-2.11,1.51s.3,1.51.3,2.11l2.11,5.43Z" style="fill:#fff"/><path d="M456.13,684l2.41,6.94a2.3,2.3,0,0,0,.6,1.21,13.14,13.14,0,0,0,1.51-.3,5.51,5.51,0,0,0,3.92-2.41,3.84,3.84,0,0,0,0-3.62,4.78,4.78,0,0,0-2.41-3,4.94,4.94,0,0,0-3.62.6l-2.41.6Z" style="fill:#fff"/><path d="M508.3,671.37h2.41c3-.3,4.52-1.21,4.52-4.52-.3-3-1.81-3.92-4.52-3.62a5.1,5.1,0,0,0-2.11.3c-.6.3-.6.9-.6,1.81l.3,6Z" style="fill:#fff"/><polygon points="555.64 672.28 551.12 665.35 549.61 673.49 555.64 672.28" style="fill:#fff"/></svg>