<svg xmlns="http://www.w3.org/2000/svg" viewBox="0 0 279.6 279.6"><title>Libya</title><path d="M139.8,0A139.8,139.8,0,1,0,279.6,139.8h0A139.81,139.81,0,0,0,139.8,0m0,277.8a138,138,0,1,1,138-138h0A138,138,0,0,1,139.8,277.8Z" style="fill:#bd8d44"/><path d="M260.8,110.2l-2.9,5.6a7.71,7.71,0,0,1,1,2.9l.6,3.6c.3,3.7.5,2.8-1.8,5.7a59,59,0,0,0-4.4,5.8c-1.2,2-1.9,2.2-1.9,6.1v.3h0a112,112,0,0,1-44,88h0a109.52,109.52,0,0,1-135.8.1h0a112.14,112.14,0,0,1-43.9-84.7v-3.5c.1-3.8.3-3.2-2-6.2l-.9-1.2-4.6,4.4a5.76,5.76,0,0,1,.5,2.9v.2h0v2.7h0a119.08,119.08,0,0,0,50.2,93.3v.1a119.52,119.52,0,0,0,68.5,22.4h0a118.79,118.79,0,0,0,68.5-22.4h0a118.85,118.85,0,0,0,50.1-93h0c0-.9.1-2.3.1-3.2,0-3.6.3-2.8,2.2-5.6,1.4-2,2.9-3.9,4.4-5.9,2.3-3,2.7-2.3,2-6l-1.1-6.6c-.7-3.8-.7-2.8-3.9-5l-1.2-.8" style="fill:#bd8d44"/><path d="M88.4,249.3c-2-.9-4-1.9-6-2.9l-1.8,3.2c-23.3-15-39-32.6-50.3-54.2a114.66,114.66,0,0,1-13.6-51.6c-.1-5.8.1-4.9,4.3-9l5.3-5.1c2.8-2.7,2.3-4,2.9-7.9v-.1c.7-3.7,1.3-4.2-.4-7.6l-.7-1.3-5.3,3.5c0,.6-.2,1.3-.4,3.2-.2,1.5-.3,2-.5,3.2-.7,3.5,0,2.8-2.6,5.3l-4,3.9c-2.7,2.7-4.8,3.6-5,7.4v2.3h0v2h0c.4,19,4.3,35.6,14.4,55,12,23.1,35.8,47.7,60,58.8l3-6.1Z" style="fill:#bd8d44"/><polygon points="86.8 259.5 90.7 261.1 92.3 257.3 88.5 255.7 86.8 259.5" style="fill:#bd8d44"/><polygon points="89.1 253.9 92.9 255.6 94.6 251.8 90.8 250.2 89.1 253.9" style="fill:#bd8d44"/><path d="M177.8,255.2l1.4,3.8a140.15,140.15,0,0,1-26.4,5.2l-.4-3.6c-2.2.2-4.4.4-6.7.5l.7,8.7h.6a141.12,141.12,0,0,0,32.8-5.8h.2c2.1-.6,4.1-1.3,6.2-2.1l.6-.2-2.7-8.5c-2.1.8-4.2,1.6-6.3,2.2" style="fill:#bd8d44"/><path d="M129,264.3a137.33,137.33,0,0,1-26.1-5.3l.9-3.8c-2.1-.7-4.2-1.4-6.3-2.2l-.7,2-2.1,6.6a135.31,135.31,0,0,0,33.3,7.6h.3c2.3.2,4.6.4,7,.5v-.2h0l.5-8.5c-2.2-.1-4.4-.3-6.7-.5Z" style="fill:#bd8d44"/><rect x="138.8" y="260.9" width="4.1" height="4.1" style="fill:#bd8d44"/><path d="M191.7,249.3c2-.9,4-1.9,6-2.9l1.2,3.2c23.3-15,39.6-32,50.9-53.6a115.76,115.76,0,0,0,13.6-52.1c0-2.8-.1-5.1-2.4-7.3l3.7-4.8c2.5,2.4,5,4,5.2,7.6v2.3h0v2h0c-.4,19-4.3,35.6-14.4,55-12,23.1-35.8,47.7-60,58.8l-3-6.1Z" style="fill:#bd8d44"/><polygon points="193.6 259.5 189.8 261.1 188.1 257.3 191.9 255.7 193.6 259.5" style="fill:#bd8d44"/><polygon points="191.3 253.9 187.5 255.6 185.8 251.8 189.6 250.2 191.3 253.9" style="fill:#bd8d44"/><path d="M139.8,2.9a136.85,136.85,0,1,0,137,136.8v-.1A137,137,0,0,0,139.8,2.9m0,270.6A133.75,133.75,0,1,1,273.6,139.7h0c0,73.8-59.9,133.7-133.8,133.8Z" style="fill:#bd8d44"/><path d="M139.8,68a71.8,71.8,0,1,0,71.8,71.8v-.1A71.72,71.72,0,0,0,139.8,68m0,140.5a68.85,68.85,0,1,1,68.8-68.9h0a68.82,68.82,0,0,1-68.8,68.9Z" style="fill:#bd8d44"/><path d="M26.1,87.6,31.8,85a7.71,7.71,0,0,1,1-2.9l1.8-3.2c2.1-3,1.4-2.5,4.9-3.4,2.4-.6,4.8-1,7.1-1.8s2.7-.7,5.2-3.8l.1-.1.1.1c3-3,4.8-4.2,5-8.5V59.8l-6.3.5c-.4,1.3-3.2,3.8-4.2,5.2-2,3-1.9,2.1-5,3.2-2.4.7-4.8,1.2-7.1,1.9-3.7,1-3.5.2-5.3,3.5-2.1,3.7-1.6,2.6-3.2,5.8s-1.2,2.6,0,6.3a2.2,2.2,0,0,0,.2,1.4" style="fill:#bd8d44"/><path d="M36.9,68.5l6-1.4c.1-1.6,3.1-4.5,4.3-5.7,2.6-2.6,1.8-2.2,5.4-2.5l7.3-.5c3.9-.3,4.3-1.6,7.3-4.2l.1-.1c2.9-2.4,3.7-2.3,4.6-6l.3-1.4L65.8,46c-.4.5-1,.8-2.3,2.1-1.1,1-1.5,1.3-2.5,2.1-2.8,2.3-1.8,2.1-5.4,2.4l-7.3.6c-3.8.3-2.8-.8-5.5,2-1.5,1.6-3.5,4-4.8,5.7-2.5,3.2-1.8,2.5-1.3,6.3Z" style="fill:#bd8d44"/><path d="M51.3,51.6l6.3-.5c.2-.6.7-1.1,2-2.4l2.8-2.4c3-2.2,2.1-1.9,5.8-1.5,2.4.3,4.8.7,7.3.8s2.8.3,5.9-1.6h0c3.8-1.8,5.9-2.3,7.7-6.2l.6-1.4-6.1-1.8c-.7.8-4.3,2.4-5.5,3.3-2.9,2.1-2.5,1.4-5.8,1.2-2.4-.1-4.9-.5-7.3-.7-3.8-.3-3.4-1.1-6.2,1.4-3.2,2.8-2.3,2-5,4.4s-2.1,2.1-2.2,5.9v1.4" style="fill:#bd8d44"/><path d="M217,46.3l2.8,2.4c2.6,2.6,2.1,1.8,2.3,5.5.1,2.4,0,4.9.3,7.3s.1,2.8,2.7,5.8c.8.9,1.4,1.9,2.2,2.7h0c2.3,3,1.4,2.7,5,3.6l1.5.4.8-6.3a48.1,48.1,0,0,1-4.2-4.8c-2.5-2.6-1.7-2.2-2.1-5.6-.2-2.5-.3-4.9-.4-7.4-.2-3.8.6-3.5-2.3-5.9-3.2-2.8-2.3-2-5-4.3s-2.3-1.8-6.2-1.3l-1.4.2,1.4,6.2a5.36,5.36,0,0,1,2.6,1.5" style="fill:#bd8d44"/><path d="M199.2,33.9a23.29,23.29,0,0,1,3.4,2c3,2.1,2.4,1.4,3.2,5,.5,2.4,1.1,4.8,1.6,7.1.8,3.8,2.2,4,5.2,6.6l.1.1c2.9,2.5,2.9,3.3,6.6,3.6l1.5.1-.2-6.3a25.64,25.64,0,0,1-2.4-2,25.73,25.73,0,0,1-2.4-2.1c-2.7-2.4-2.3-1.5-3.2-5L211,35.8c-.9-3.7.3-2.9-2.8-5.1-1.9-1.3-4.5-2.6-6.6-3.8-3.4-2-2.7-1.4-6.4-.2l-1.3.4,2.4,5.7c.5,0,1.1.3,2.9,1.1" style="fill:#bd8d44"/><path d="M137.5,18.5h3.6c3.7.3,2.8,0,5.4,2.6,1.7,1.8,3.2,3.7,5,5.3s1.9,2,5.8,2.6h.2v.1a34.88,34.88,0,0,0,3.7.7c3.7.8,2.8,1.1,6.2-.5l1.4-.7-3.5-5.3c-1.3.2-4.9-1-6.6-1.1-3.6-.3-2.8-.6-5.2-2.9-1.8-1.7-3.4-3.5-5.1-5.3-2.6-2.7-1.8-3-5.6-3h-6.6c-3.9,0-2.9.2-5.6,3.1l-1,1,5.1,3.7a6,6,0,0,1,2.8-.3" style="fill:#bd8d44"/><path d="M162.7,20.8c3.5.9,2.8.5,4.8,3.5,1.3,2,2.7,4,4,6.1,2.1,3.2,3.5,3,7.2,4.3h.1c3.6,1.3,3.9,2.1,7.5,1l1.4-.4-2.4-5.8c-.6-.1-1.2-.4-3-1-1.4-.5-1.9-.6-3.1-1.1-3.4-1.3-2.7-.6-4.8-3.5-1.4-2-2.7-4.1-4.1-6.1-2.1-3.2-.7-2.8-4.4-3.8-2.2-.6-5.1-1-7.3-1.4-3.9-.7-3-.4-6.1,2l-1.1.9,3.9,4.3a48.59,48.59,0,0,1,7.4,1" style="fill:#bd8d44"/><path d="M116.4,20.8a19.72,19.72,0,0,1,3.5-.7c3.6-.3,2.8-.5,5.7,1.7l5.9,4.4c3.2,2.3,4.3,1.6,8.2,1.6h.2c3.8,0,4.3.6,7.4-1.6l1.2-.9-4.3-4.8a17.1,17.1,0,0,1-3.2,0h-3.2c-3.6,0-2.8.4-5.7-1.7l-6-4.1c-3.1-2.2-1.6-2.4-5.4-2.1-2.4.2-4.6,1-6.9,1.4-3.9.7-3,.7-5.1,4l-.8,1.1,5.5,2.8c.4-.4,1-.6,3-1.1" style="fill:#bd8d44"/><path d="M99.3,25.5c3.5-1,2.6-1,5.9.7,2.2,1.1,4.3,2.3,6.5,3.3s2.5,1.3,6.3.5a34.31,34.31,0,0,0,3.4-.6h0c3.8-.5,3,.1,5.6-2.7l1.1-1.1L123,21.8a57.83,57.83,0,0,1-5.7,1.2h0l-.5.1c-3.5,1-2.8.4-5.9-.9-2.2-1-4.4-2.2-6.6-3.2-3.4-1.6-2.8-2.2-6.3-.9-4,1.5-2.8,1-6.2,2.3-3.7,1.4-2.7,1.2-4.2,4.8a6.94,6.94,0,0,0-.5,1.3l6,1.8c.9-1,4.8-2.3,6.2-2.8" style="fill:#bd8d44"/><path d="M179.7,25.3l3.4,1.2c3.3,1.6,2.7.9,4.1,4.3,1,2.2,1.8,4.6,2.9,6.7s1.1,2.6,4.6,4.5c1.1.6,2.2,1.3,3.2,1.9,3.2,2.1,2.2,2.1,6,1.7l1.6-.1-1.4-6.2c-.9-.2-4.3-2.5-5.9-3.2-3.2-1.6-2.4-1.6-3.9-4.5-1.1-2.2-2-4.5-3-6.7-1.6-3.5-.7-3.4-4.3-4.8-4-1.4-2.8-1.1-6.3-2.3-3.7-1.3-2.8-.8-6.2,1l-1.3.7,3.5,5.2a8.43,8.43,0,0,1,3,.6" style="fill:#bd8d44"/><path d="M76.6,36a19.62,19.62,0,0,1,3.2-1.7c3.3-1.6,2.4-1.4,5.9-.4l7,2.1c3.7,1.1,4.6,0,8.3-1.3h.1c3.6-1.3,4.3-.9,6.3-4l.8-1.2-5.7-3c-.5.3-1.2.4-2.9,1.1a29.58,29.58,0,0,1-3.1,1.1c-3.4,1.2-2.4,1.3-5.9.3l-7.1-2c-3.6-1-2.4-1.7-5.8,0-1.9.9-4.5,2.5-6.3,3.6-3.4,2-2.6,1.7-3.4,5.5l-.3,1.3,6.1.7c.3-.6.8-1,2.5-2.1" style="fill:#bd8d44"/><path d="M18.8,108.3l5.2-3.4c-.2-.6,0-1.2.6-3.2a19.3,19.3,0,0,1,1.1-3.4c1.5-3.3.9-2.7,4.3-4.2l6.7-2.9c3.5-1.6,3.5-3,5.4-6.4l.1-.1c1.9-3.3,2.7-3.5,2.2-7.2L44.1,76l-6.2,1.4c-.2.6-.7,1.1-1.5,2.8-.7,1.3-1,1.8-1.6,2.8-1.8,3.2-1,2.6-4.3,4.1l-6.7,3.1c-3.4,1.6-2.9.3-4.5,3.7-1,2.2-1.4,4.4-2.2,6.7-1.3,3.8-.9,2.9,1,6.3Z" style="fill:#bd8d44"/><path d="M244.4,78.6l1.8,3.2c1.6,3.3,1.4,2.5.3,5.9-.7,2.3-1.6,4.6-2.2,7s-.8,2.7.5,6.3v.2h-.1c1.1,4.1,1.1,6.3,4.6,8.7l1.3.9,2.9-5.7c-.8-1-1.6-4.8-2.2-6.3-1.5-3.3-.8-2.7,0-5.9.6-2.4,1.4-4.8,2.1-7,1.1-3.6,1.7-3.1-.2-6.3-2.1-3.7-1.4-2.7-3.3-5.8-1.9-3.4-1.6-2.4-5.4-3.4l-1.4-.3-.8,6.2c.7.2,1.1.8,2.1,2.3" style="fill:#bd8d44"/><path d="M252,95c1.3,1,2.2,5,2.6,6.6.9,3.5,1,2.7-.7,5.9-1.1,2.1-2.3,4.3-3.4,6.5-1.8,3.5-.9,4.5-.2,8.4v.2c.6,3.7,0,4.4,2.8,7l1,1,4-5c-.2-.6-.2-1.3-.6-3.1a23,23,0,0,1-.5-3.2c-.5-3.6-.8-2.6.8-5.9l3.3-6.6c1.7-3.4,2.1-2,1.2-5.7-.5-2.1-1.6-5-2.3-7.1-1.3-3.8-1.2-2.8-4.8-4.4l-1.3-.6Z" style="fill:#bd8d44"/><path d="M229.5,52.9l.2,6.2c.6.2,1.1.7,2.4,2.2a14.93,14.93,0,0,1,2.3,2.7c2.1,3,1.8,2.2,1.3,5.8-.3,2.4-.6,4.8-1,7.2-.5,3.8.7,4.6,2.6,7.9V85c1.8,3.3,1.6,4.1,5,5.7l1.3.6,2-6.1c-.4-.5-.6-1.1-1.6-2.7-.8-1.3-1-1.7-1.6-2.8-1.7-3.2-1.7-2.2-1.2-5.8.3-2.4.6-4.9.9-7.3.5-3.8,1.3-2.6-.9-5.8-1.4-2-3-3.5-4.6-5.4-2.5-3.2-2.1-2.3-5.9-2.5Z" style="fill:#bd8d44"/><path d="M15.2,129.9l4.5-4.4a8.6,8.6,0,0,1,0-3.2l.6-3.6c.9-3.6.4-2.8,3.5-4.8,2-1.3,4.1-2.6,6-4.1s2.3-1.6,3.5-5.3S36.1,99,34.9,95l-.5-1.5-5.8,2.6c0,.3-1.6,5.2-1.8,6-.9,3.5-1,2.7-3.7,4.8-2,1.5-4,2.8-6,4.2-3.2,2.2-3.3,1.3-3.9,5.1l-1.1,6.6c-.6,3.9-.3,2.9,2.1,6a4.7,4.7,0,0,1,1,1.1" style="fill:#bd8d44"/><path d="M139.8,33.8A106.1,106.1,0,1,0,245.9,139.9h0v-.1a106,106,0,0,0-106.1-106m0,209.6A103.55,103.55,0,1,1,243.4,139.9,103.54,103.54,0,0,1,139.8,243.4Z" style="fill:#bd8d44"/><path d="M227.9,169.6l-2.1,5.3a4.51,4.51,0,0,1-1,1.4,4.1,4.1,0,0,1-2.8,1.3,4.53,4.53,0,0,1-1.6-.3l-6.1-2.4c4.8-11.9,8.4-20.6,8.1-34.1h-.6a3.17,3.17,0,0,1-1.6-.4,3.95,3.95,0,0,1-2.6-3.8v-2.5l3.2-.1v2.5a1.42,1.42,0,0,0,.2.6.73.73,0,0,0,.6.2h.6L222,130l6.5-.2a4.53,4.53,0,0,1,1.6.3,4.19,4.19,0,0,1,1.4.9,5.15,5.15,0,0,1,1.3,2.9v2.2a4.53,4.53,0,0,1-.3,1.6,4.19,4.19,0,0,1-.9,1.4,3.81,3.81,0,0,1-1.3.9,2.93,2.93,0,0,1-1.6.4l-3.3.1c.1,6.1-.8,9.5-1.9,16l2.3.4h.5a.75.75,0,0,0,.5-.7l1.6-9.3,5.1.9a4.42,4.42,0,0,1,1.6.6,5.24,5.24,0,0,1,1.1,1,7.74,7.74,0,0,1,.7,1.6,4.3,4.3,0,0,1,0,1.6l-2.5,11.9-3.2-.6,2.5-11.9v-.5a.71.71,0,0,0-.6-.6l-1.8-.3-1.1,6.1a4.15,4.15,0,0,1-1.7,2.6,7.74,7.74,0,0,1-1.6.7,4.3,4.3,0,0,1-1.6,0l-2.3-.4a112.61,112.61,0,0,1-4.6,13.1l3,1.2h.4l.5-.2a.52.52,0,0,0,.2-.4l2.6-6.5Zm.7-45.8-.5-2.9a2.18,2.18,0,0,0-.5-.8h-.5l-3.2.6.7,3.9ZM203.8,75l-2.2-2.1a.52.52,0,0,0-.4-.2,1,1,0,0,0-.9.2l-2.2,2.4,2.8,2.7ZM206,88.8a104.76,104.76,0,0,0-12.4-13.4l4.5-4.8a3.81,3.81,0,0,1,1.3-.9,7.49,7.49,0,0,1,1.6-.4,4.53,4.53,0,0,1,1.6.3,3.92,3.92,0,0,1,1.4.8l4.5,4.4-5.1,5.4a41.74,41.74,0,0,1,4.9,6.2h0l.3.4.1.2h0l3,4.2h0l2.5,3.9h0l.2.4v.1h0l2.1,4.1h0l2.1,4.8h0l.2.6v.1h0c1.4,3.6,3.4,9,4.3,12.4l3.2-.6a4.3,4.3,0,0,1,1.6,0,4.59,4.59,0,0,1,1.6.7,5.73,5.73,0,0,1,1.1,1.1,4.59,4.59,0,0,1,.7,1.6l1.1,6.2-10.5,1.9a101.69,101.69,0,0,0-4.4-18.1h0l-1.6-4-2-4.4h0l-2.4-4.8-3-4.8h0Zm3.3-16.1-2.1-2,2.1-2.2,2.1,2Zm-3-2.7-2.1-2,2.1-2.2,2.1,2Zm-18.2,1.3-2.7-1.9,9.1-12.8,2.7,1.9ZM175.7,55.7l-2-.9a.75.75,0,0,0-.5-.1,1,1,0,0,0-.6.5l-1.3,3,3.6,1.6,1.3-3a.6.6,0,0,0,0-.8c-.2-.2-.3-.3-.5-.3ZM184,68.4a70.62,70.62,0,0,0-7.5-4.2l-.2.5a4.12,4.12,0,0,1-1,1.3,3.68,3.68,0,0,1-2.9,1.1,4.71,4.71,0,0,1-1.6-.4l-2.3-1,1.3-3,2.4,1a.64.64,0,0,0,.6,0,1.21,1.21,0,0,0,.5-.5l.2-.5-6.6-3,2.7-5.9a6.42,6.42,0,0,1,1-1.3,4.19,4.19,0,0,1,1.4-.9,2.85,2.85,0,0,1,1.6-.2,4.53,4.53,0,0,1,1.6.3l2,.9a4.12,4.12,0,0,1,1.3,1,3.81,3.81,0,0,1,.9,1.3,4.15,4.15,0,0,1,.3,1.6,4.53,4.53,0,0,1-.3,1.6l-1.3,3a45.92,45.92,0,0,1,4.9,2.6L189,53l2.9,1.7ZM101.9,52.5l4.5-1.8a4.67,4.67,0,0,1,1.7-.3,4,4,0,0,1,2.9,1.2,4.19,4.19,0,0,1,.9,1.4l1.2,3c14.6-5.7,34.7-4.1,49.7-.7l.7-3.2v-.4c-.1-.2-.2-.3-.3-.5a.76.76,0,0,0-.4-.2L156,49.4l2-2.9,5.5,1.3a4.59,4.59,0,0,1,1.6.7,3.9,3.9,0,0,1,1.7,2.6,4.33,4.33,0,0,1-.1,1.6L165.2,59c-24.1-5.6-37.1-5.6-60.2,3.5l-1.2-3,6.3-2.5-1.2-3a1.79,1.79,0,0,0-.7-.5.9.9,0,0,0-.5.1l-4.5,1.8Zm1.3,10.8-9.1,5.2-3.3-5.7a4.26,4.26,0,0,1,.4-4.6,3.18,3.18,0,0,1,1.2-1.1l5.5-3.2Zm-6.5-4.7L94,60.2a.75.75,0,0,0-.5.7.45.45,0,0,0,0,.5l1.6,2.8,3.5-2Zm-.9-5.8-2.5,1.4-1.5-2.6,2.5-1.4Zm-3.4,2-2.5,1.4-1.5-2.6,2.5-1.4ZM88.6,72.5l-2.6,2L76.3,62.1l2.6-2Zm-4,3.1c-2.8,2.7-7.7,6.9-9.6,9.6l.4.3a3.18,3.18,0,0,1,1.1,1.2,4,4,0,0,1,.5,3.2,5.07,5.07,0,0,1-.7,1.5l-1.5,2-2.7-1.9,1.5-2a1.42,1.42,0,0,0,.2-.6.85.85,0,0,0-.3-.5l-.5-.3-4.2,5.7L63.5,90a12,12,0,0,1-1.1-1.2,4.42,4.42,0,0,1-.6-1.6,4.3,4.3,0,0,1,0-1.6,4,4,0,0,1,.6-1.5l1.3-1.8a4.26,4.26,0,0,1,1.2-1.1,4,4,0,0,1,1.5-.6,4.3,4.3,0,0,1,1.6,0,4,4,0,0,1,1.5.6l2.7,1.9a62.94,62.94,0,0,1,7.6-7.9l-8.6-9,2.4-2.3ZM66.5,84.3l-1.3,1.8a.76.76,0,0,0-.2.4.91.91,0,0,0,.4.8l2.7,1.9L70.4,86l-2.7-1.9a.78.78,0,0,0-.8-.1A1.38,1.38,0,0,0,66.5,84.3ZM59,95.9l-2,4.4v.4c0,.2.1.3.2.5l2.8,2.5,3.2-6.9-3-1.3a.85.85,0,0,0-.7,0,.66.66,0,0,0-.5.4ZM46.3,113.7l-.7,2.8-2.8-.7.7-2.8Zm15,14-.2,2.8-3-.2.2-2.9Zm-.3,3.6-.2,2.9-3-.2.2-3Zm2.8,43.4-6,2.4a4.15,4.15,0,0,1-1.6.3,4.71,4.71,0,0,1-1.6-.4,3.81,3.81,0,0,1-1.3-.9,3.39,3.39,0,0,1-.9-1.4l-2.3-5.9,6.9-2.7c-3.2-7.9-5.2-25.9-4.6-34.4l-6.9-.6.2-3.4,6.9.6c1.1-4,1.4-5.9,2.2-9.6l-7.2-1.6.8-3.2,7.2,1.6a36.84,36.84,0,0,1,2.8-8.5l-11.3-5,1.3-3,5.3,2.5v-.6a2.89,2.89,0,0,1,.3-1.8l2-4.4a6.71,6.71,0,0,1,.9-1.4,4.27,4.27,0,0,1,2.9-1,4.53,4.53,0,0,1,1.6.3l5.9,2.7c-13.7,30.3-15.7,48.4-3.5,79.4Zm-9.5-4,1.1,2.8c0,.1.1.2.2.3a1,1,0,0,0,.9.2l3-1.2-1.4-3.6Zm-5.9-.2,1.1,2.7-2.8,1.1-1.1-2.7Zm1.5,3.6,1.1,2.7-2.8,1.1-1.1-2.7Zm179.8-37.8V134a.9.9,0,0,0-.1-.5,1.23,1.23,0,0,0-.8-.4l-3.2.1.1,3.9,3.3-.1a.91.91,0,0,0,.8-.4.77.77,0,0,0-.1-.3Z" style="fill:#bd8d44"/><path d="M180.6,211.5l1.8-1.1a4.42,4.42,0,0,1,1.6-.6,4.3,4.3,0,0,1,1.6,0,4.42,4.42,0,0,1,1.6.6,5.73,5.73,0,0,1,1.1,1.1l3.8,5.8a3.39,3.39,0,0,1,.6,1.5,4.55,4.55,0,0,1-.6,3,5.73,5.73,0,0,1-1.1,1.1l-2.1,1.4-1.8-2.7,2.1-1.4a.55.55,0,0,0,.3-.5.64.64,0,0,0,0-.6l-.3-.5-6,3.9-3.5-5.3a2.69,2.69,0,0,1-.5-1.5,4.3,4.3,0,0,1,0-1.6,3.51,3.51,0,0,1,.6-1.4,3.45,3.45,0,0,1,1.2-1.2m3.4,1.5-1.8,1.1a.67.67,0,0,0-.4.7.9.9,0,0,0,.1.5l1.8,2.7,3.3-2.1-1.7-2.7a1.38,1.38,0,0,0-.4-.3,1.07,1.07,0,0,0-1.1.1Zm2.8-5.6,3.6-3.1a3.61,3.61,0,0,1,1.5-.8,3.5,3.5,0,0,1,3,.2,3.81,3.81,0,0,1,1.3.9l4.1,4.9-7.5,6.3-2.1-2.4,5-4.3-2.1-2.4a1.14,1.14,0,0,0-.8-.3.52.52,0,0,0-.4.2l-3.6,3.1Z" style="fill:#bd8d44"/><path d="M150.6,225.5l-3,.4c-.1,0-.3.1-.4.1a.91.91,0,0,0-.4.8l.4,3.2,3.8-.5Zm3.7,3.6c6.2-.8,17.1-4.7,22.6-7.4l-5.5-10.9,2.9-1.5,6.9,13.8c-14.1,7.1-21.7,8.5-36.7,10.4l-.8-6.3a4.3,4.3,0,0,1,0-1.6,10.09,10.09,0,0,1,.7-1.5,4,4,0,0,1,1.2-1,4.71,4.71,0,0,1,1.5-.6l6.2-.7Z" style="fill:#bd8d44"/><rect x="149.3" y="217.19" width="2.8" height="2.9" transform="translate(-25.53 20) rotate(-7)" style="fill:#bd8d44"/><rect x="145.5" y="217.69" width="2.8" height="2.9" transform="translate(-25.62 19.54) rotate(-7)" style="fill:#bd8d44"/><path d="M120.1,236.3l-2.7-.6.6-2.8,2.8.6Zm-3.4-.8-2.8-.6.7-2.8,2.8.6Zm-11.9-3.2-2.6-1,1.1-2.7,2.6,1Zm-11.1-5.5-2.4-1.4,1.5-2.5,2.4,1.4Zm-3-1.8-2.4-1.3,1.5-2.5,2.4,1.4Zm47.1,8.5c-25.1-.8-42.6-8.7-60.3-24.1l10.1-11.6,2.4,2.1-8,9.2a76,76,0,0,0,11.7,8.5l3.7-6.2,2.8,1.6-3.6,6.2a75.78,75.78,0,0,0,8.6,4.2l2.7-6.7,3,1.2-2.7,6.7a61.28,61.28,0,0,0,9.2,2.9l1.6-7,3.2.7-1.6,7a67.23,67.23,0,0,0,14.1,1.8l.4-12.1,3.3.1Z" style="fill:#bd8d44"/><path d="M63.8,189.1l3.9-2.9a1,1,0,0,1,1.3.2l2.8,3.9a1,1,0,0,1-.2,1.3h0l-3.9,2.8a1,1,0,0,1-1.3-.2l-2.8-4c-.3-.2-.2-.8.2-1.1h0" style="fill:#bd8d44"/><path d="M214.9,189.1l-3.9-2.9a1,1,0,0,0-1.3.2l-2.9,3.9a1,1,0,0,0,.2,1.3l3.9,2.8a1,1,0,0,0,1.3-.2l2.9-3.9a.84.84,0,0,0-.2-1.2h0" style="fill:#bd8d44"/><polygon points="167.1 122.1 174.6 133.2 187.8 129 179.5 139.6 187.7 150.9 175 146.3 166.8 157.5 167.3 144 154.1 139.7 167 136 167.1 122.1" style="fill:#bd8d44"/><path d="M138.6,172.6a32.8,32.8,0,1,1,25-53.9,39.05,39.05,0,1,0,0,42.4,32.7,32.7,0,0,1-25,11.5" style="fill:#bd8d44"/></svg>