<svg xmlns="http://www.w3.org/2000/svg" viewBox="0 0 528.23 599.75"><title>Lithuania</title><path d="M0,0V350.26C0,487.83,118.48,599.75,264.12,599.75S528.23,487.83,528.23,350.26V0Z"/><path d="M6.88,6.88V350.26c0,133.63,115.55,242.61,257.24,242.61s257.24-109,257.24-242.61V6.88Z" style="fill:#ed1c24"/><path d="M482.82,383.74c34.94-6.09,23.32-45.12,30.36-53-2.84-1.73-5.73-.94-7.76,1.44-1.74-18.91-20.45-32.57-27-48.86-1.8,1.24-3.23,3.92-4.61,6.81C459.16,272.1,457.59,254,462.65,236c-15.17,3-22.24,20.47-22.6,49.83-5.13-7.16-5.68-16.61-5.84-26.25-6.91,12.4-12.56,24.9-2.92,42.29,7,9.95,15.15,18.65,26,29.41,3.59,4,12.41,10.44,4.86,15.25-9.7,3.12-17.4,1.27-25-2.6-15.5-9.37-28.95-20.5-41.56-32.33-9.67-7.14-20.22-11.65-31.11-15.08,4.27-7.16,9.39-14.44.25-19.93l-9-2.92V260.27a167.87,167.87,0,0,0,36.46,20.9c37.13-39.38,43.26-89.63,13.13-141.7l-21.63,3.64c-3.32-5.6-10.61-6.88-18.48-7.53a5.83,5.83,0,0,0,.73-5.23c-20.37,2.82-3.47-14.39-.42-18.53,5.59-7.57,5.11-13.44,1.32-20.1a98,98,0,0,0-16.22-20.31c-8.25.35-16.22,3.24-24.06,7.3l-4.61-3.16c-5.59,6.72-11.8,14.53-17.39,21.25,1.7.48,4-.11,6.5-.08-.69,3.46-3,6.81-4.9,9.46q-.93,2.13,1.21,3.65-2.28,2.36-.24,5.35a16.35,16.35,0,0,1-2,8.28,5.43,5.43,0,0,0-4.57.94c-1.74,1.39-2.75,4.24-1.19,9.25l-1.46.73c-9.28-6.07-18.26-11.85-26.31-17.92,1.13-.65,2.57-1.6,3.71-2.25-2.84-1.62-5.52-3.86-8.35-5.48-.81-3.4-1.93-6.8-2.74-10.21-1.05.57-2,1.75-3,2.32l-5.37-10.7,4.15-4.62c-7.15-2.5-8.2-9.49-7.54-17.74L408,65.58c13.15-.79,25.29-2.8,32.57-10.7-7.53-7.39-19.43-10.4-34-10.7l-154.34-1c-.35-7.87-.46-16.51,7.91-19l-9.12-8.74c-7.73,3.44-11.07,14.67-13.44,26-3.81-1.95-7.31-4.82-11.11-6.76-2.12-.35-2.6,2-3.4,3.89-10.31-.51-15.15,4.28-18.48,9.94l-25.28,0-.35-8.11c-18.62,1.4-17.82,27.36-.13,28l.42-7.47,25.1-.06c1.23,4.45,4.16,8.91,8.26,13.37A186.94,186.94,0,0,1,202.09,94.5,253.8,253.8,0,0,0,233.44,96a59.34,59.34,0,0,0,7.14,13.13c-.89.32-1.63.65-2.52,1,2.62,5.09,4.79,10.37,5.34,16.29l12.82,9.24,2.1-.95c6.31,9,13.65,17.94,23.25,25.26,4,20.48,13.32,42.18,16.28,60.8-9.56,2.27-19.12,2.81-28.68,3.85a51.21,51.21,0,0,0-5.83-24.79,5.9,5.9,0,0,0,5.1-2.67c-7-5.84-4.47-13.23-9.48-18l2.67-2.91c-5.48-3.84-4.5-12.92-10.45-18-13.74-23.14-26.71-29.89-39.62-35.24l-.24-2.92A67.65,67.65,0,0,0,196,116.86l-.25-3.16a47.41,47.41,0,0,0-23.82-2.19c-5.6-10.18-19.68-8.19-27-14.83-7.5,1.68-2.17,6.69,1.23,10.05-2.92-.57-7.53-2.52-10-3.25q-2.83,4.67,7.29,10l-12.88,7.29c.27,2.65,3.09,4.74,7.05,6.56L123.34,143.6,106.57,163,100,170.33q-4.13,5.23-8.26,10.45c-2.68,3.89-1.69,7.78,1,11.67-.51,5.19-1.88,10.24,3.16,16.29,2.82,1.73,5.77,2.05,9-.73l1.94-7,8.27-6.81,4.62,6.32-4.14,4.38,2.19,4.38-2.67,2.19c-1.27,6.28,3.13,5.65,6.56,4.13,9.76-.82,16.94-5.1,18.48-17,3.08,2.43,4.89,5.49,3.89,10L136.22,224a8.27,8.27,0,0,0-7.58,7.66c-.39,3.71,1.49,7.55,6,8.37,3,.53,6.34-.8,8.59-4.35a9.36,9.36,0,0,0,.24-8.75l16.29,4.62-4.62,8.51c-6.63.44-12.43,4.22-17,12.88l-9.72,14.83A43.35,43.35,0,0,0,112.06,258c-3.81-1.34-6.42-2-8.6-2-3.18,0-5.47,1.19-9.29,3.26L40.95,291.62c-2.85,2.58-5.35,5.35-6.56,8.75L18.1,341q1.09,4,2.18,8l12.4-3.4A57.43,57.43,0,0,0,29,359.32c-.69,5.38-.45,10.84.35,18,1,8.67,1.54,17.32,2.61,25.91l5.35,6.08L65,377.9a32.15,32.15,0,0,0-5.72-5.54,45.57,45.57,0,0,0-8.62-4.91c-1.44-6.21.84-10.66,4.4-10.92,2.14-.15,4.74,1.2,7.27,4.6,5-4.47,5.87-10.64,3.89-18a253.56,253.56,0,0,1,17.23-22.81c3.89-4.58,6-7.52,12.4-8,7.06-.55,10.47,3.68,13.56,9.25a38.91,38.91,0,0,1,4.7,15l26.74,34.52a9.72,9.72,0,0,0,6.8,4.13,33,33,0,0,0,9-.24c3.43-1.42,5.85-3.5,6.81-6.56L184.83,376l3.4,1.7-1.94,4.86c-4.24,0-7.71,1.69-9.49,7.05-17.65,1.2-33.14,9.09-45.45,26.73l7.53,5.59c4.74-7,10.62-9.21,17-9.24q.12,2.32.24,4.62l31.12,2.92q.72-2.07,1.46-4.14c3.49,1,7.12,2.25,10.61,3.23,1-1.79,1.79-3.88,2.76-5.66l25,8.75c-4.78,3.56-10.64,7.59-15.42,11.15,7.38-.32,15.83-1.11,23.2-1.43l15.31,20.66L247.05,427l17.74-10.94c-7-.24-14.1-.18-21.14-.42-4.05-5.67-8.1-11.65-12.15-17.32q.24,8,.49,16l-26.49-9c3.18-6.84,9-11.83,16.28-15.8,16.35,4.75,33.46,7.21,51,8.26q.49,24.91,1,49.83c-.19,14.63,2.71,28.36,12.4,40.1C294.1,477.71,297,464,297.12,448.15q-.36-25.28-.73-50.56c2.64.07,5.34.45,6.34,2.4.51,1,1.11,2.13,1.78,3.29,2.75,4.81,2,4.78,7.22,3.58a80.14,80.14,0,0,1,14.76-2c.3,7.57,2.15,13.77,5.67,18.69s8.71,8.6,15.71,11.12a106.22,106.22,0,0,1,23.4,16.13c3.31,7.21,5.36,14.5,2.91,22.12-5.2,9.28-10.26,18.52-16.07,27.63-2.88,4.52-4.51,7.27-9,10-15.9,9.62-33.53,20.76-41.49,38q-.49,4-1,8l18.47-.49v5.59l41.56.24q.11-6.55.24-13.12,6.16-15.52,18.47-2.67a28.25,28.25,0,0,0,7.54-18.23l36.7-58.09a18,18,0,0,0,3.85-8.62c.61-4.89-.89-8.1-3.48-10.45-3.77-3.43-9.83-5-14.95-7.18-5.3-3.16-9.19-7.48-10-14.34,1.72-13.8,15.5-25.6,22.36-39.86a121.36,121.36,0,0,0,1.87-31c1.34.58,3.13,1.37,3.75,2.87,10.2,24.74,48.54,50.21,70.76,23.1-7.7,2.43-14.9,2.34-21-.58ZM167.41,217.38l-16.12-4.91c1.15-7.21.13-13.66-5.68-18.41l6.29-6.6a91.94,91.94,0,0,0,21.33-2.15,44.89,44.89,0,0,1-5.83,32.07Zm112.72,30.89c-2.52-4.45-7.21-6.84-12.5-8.65l.71-5.09L299,231.3C294.34,238.29,287.82,243.75,280.13,248.27Z" style="fill:#fff"/><path d="M324.31,160.75l77.86-15.54c23.09,34,26.6,91.12-11.34,131.55-45.61-18.46-71.95-61.27-66.52-116" style="fill:#00adef"/><path d="M386,348.74c.3-16.51.8-34.17-6.1-45.32-3.34-1.25-5.58-2.82-8.91-4.07,7.11,12.91,7.18,29.26,6.58,45.21a295.2,295.2,0,0,0-27.39-11.38c.94-7.18.45-16.07-1.9-21.83a78.76,78.76,0,0,0,19.56-20.42c2.84-5.86,3.31-11.3-4.66-15.2-5.07-2.67-10.14-2.85-15.2-3.18-3.54,9.39-13.49,13.54-27.83,14.1L302.87,301q.26,14.71.49,29.42c1.56-.37,3.26-.79,5.08-1.27,11,3.15,23,6.8,32.46,10.11-1.14,13.77-3,29.15,9.32,45.91l8-.16q.23-3.36.47-6.72c-9.19-9.13-9.67-22.85-9-35.87q15,5.6,27.55,11.59c-.79,19.6-.67,37.33,12.89,45.54l5-1.88q-.08-3.28-.16-6.56c-9.06-3.84-9.78-17.21-9.28-32.89,18.07,9.43,31.83,19.55,41.17,30.39q1.17-6.18,2.34-12.35A276.23,276.23,0,0,0,386,348.74Zm-62.64-24.25a111.15,111.15,0,0,0,16-7.38,53,53,0,0,1,2,13.06c-4.87-1.58-12.1-4-18-5.69Z" style="fill:#00adef"/><path d="M260.52,336.21a19.4,19.4,0,0,1-2.39,11.43l-3.41-1.38c-1.47,7.27-4.57,13.94-8,20.47l17,.19q1.56-9.23,8.65-11.07l-.19-27.76c-2.73,4-6.75,6.56-11.68,8.11" style="fill:#00adef"/><path d="M122.31,277.68l-3.92,7.18,8.92,9.74c31.15-12.76,67.12-16.29,106.73-12.86l1.75,8.4L183.9,375.69c1.85.94,3.16,1.89,5,2.84l38.91-51.71.54-10q5.34-7.53,17-10.83c9.85-16.83,21-32.72,35.8-46-.19-17.84-9.73-20.81-21.88-19.63-12.93,3.63-19.57,13.07-23.35,25.14-39.27-2.85-77.2,1-113.65,12.23" style="fill:#00adef"/><path d="M144.17,210.29l-7.88,14.57c48.09,15,105.51,16.35,171.43,5.25,12.08-2.82,5.65-11-1-9.79-62.93,11.85-116.87,8-162.6-10" style="fill:#00adef"/><path d="M106.5,163.64l-5.94,6.45a65,65,0,0,1,22,15.37c4.42-5.57,9.39-6.19,14.06-.22,10.15-9.84,19.85-19.94,30-29.78,1.49,0,2.61.35,4.1.35,4.1,6.33,7.53,13.53,7.79,23.47a29.39,29.39,0,0,1,7.92-2c-.11-12.84-4.06-21.4-10.64-27,.16-1.49.33-3,.49-4.46,7.36-5,10.74-12.47,11.38-21.58a12.65,12.65,0,0,0-8.91-2,24,24,0,0,1-10.53,18.62,86.48,86.48,0,0,0-21.55-16.75c-5.49,1.48-7.62,2.87-9.74,5.07A84.67,84.67,0,0,1,161.44,146c-.16,1.32-.42,2.1-.59,3.43-10.31,9.84-21.25,20.84-31.57,30.69-7.95-7-15.08-13.1-22.79-16.51" style="fill:#00adef"/><path d="M178.09,394.7c-5.82,8.35-13.88,14-22.67,18.68l.8,4.17,30.71,3.21,1.28-3.69c-2.46-3-4.11-6.07-4-9.46l43,15.87-14.88,10.58,22.56-1.12,15.52,21.16-3.2-25.81L265,416.58l-21.59.32-11.84-17.48.32,15.07-48-15.55c.14-.65.33-.39,1-.39a7.35,7.35,0,1,0-7.68-7.34,7,7,0,0,0,.91,3.47" style="fill:#fdb913"/><path d="M401.41,225.29,388.89,228,392,241.8c.86,3.46,1.91,4.52,4.51,6l-21.57,4.78c1.92-2.93,2.21-4.94,1.63-7.21l-3-14.33-16.22,3.39c-3,1.09-3.7,1.4-5.63,4.09L347.6,218.8c1.65,1.18,2.92,1.38,6.08,1.11l16.75-3.33-3.95-17.85-15.72,3.19a8.57,8.57,0,0,0-5.89,4.35l-4.32-19.67a9.74,9.74,0,0,0,7.06,1.17l16.06-3.25-2.52-12.76a10.17,10.17,0,0,0-4.31-5.37l20.27-4.2c-1.81,2.21-1.23,4.88-.82,6.88l2.53,12.1,12.59-2.81c3.68-.75,5.27-1.83,7.27-4.68l4.44,20.48c-2.52-2-4.51-1.63-7.28-1.39l-13.77,2.83,3.52,17.29L399.75,210c2.42-.51,4.28-1,5.76-3.92L409.89,226c-3-2.12-6.24-1.13-8.48-.71" style="fill:#fdb913"/><path d="M136.45,224.88a7.59,7.59,0,1,1-7.59,7.59,7.59,7.59,0,0,1,7.59-7.59" style="fill:#fdb913"/><path d="M134.26,193.67c5.63,3.06,10.38,7,10.14,16l7.37,3.06q.63-18.83-14.84-24a6.26,6.26,0,0,0,0-.63,7.29,7.29,0,1,0-2.69,5.66" style="fill:#fdb913"/><path d="M168.69,140.89a7.29,7.29,0,1,1-7.3,7.3,7.3,7.3,0,0,1,7.3-7.3" style="fill:#fdb913"/><path d="M250.68,94.66c-16.48-8-17.82-69.74.19-79.86L259.46,24c-2,1.31-6.8,2.6-7,8.26L251.68,76c.18,4.93,6.26,8.16,8.63,9.22Z" style="fill:#fdb913"/><path d="M178.89,68C159,66.27,161.09,42,178.51,41.81l.1,7.08,34.3.24c2.47,2.58,4.17,8.6,4.13,11.65l-38.26-.2Z" style="fill:#fdb913"/><path d="M345.21,329.68a7.5,7.5,0,1,1-7.5,7.5,7.5,7.5,0,0,1,7.5-7.5" style="fill:#fdb913"/><path d="M381.47,343.74a7.51,7.51,0,1,1-7.51,7.5,7.5,7.5,0,0,1,7.51-7.5" style="fill:#fdb913"/><path d="M272.22,278.36h23.3q.11,4.19.22,8.37c-9.81.05-10.23,11.53-.11,12.45q-.11,3.74-.22,7.49l-23.41.44c-.07-2.39-.15-4.77-.22-7.16,11.54-1.22,11.91-12.74.33-12.89q.05-4.35.11-8.7" style="fill:#fdb913"/><path d="M127.41,293.79l5.22,6.77c26.17-7.65,51.95-15.5,103.71-10.06q-1.06-4.35-2.12-8.71c-32.13-3.69-73.06,0-106.81,12" style="fill:#fdb913"/><path d="M21.12,348l-1.6-5,18.75-6.28a54.53,54.53,0,0,1-6,7.54L21.12,348Zm38.26,27.35,4.05,3.71-26,29.27-4.16-4.05C33.27,404.44,59.38,375.39,59.38,375.39Zm249.2,179.84v-4.31l18.06.15-1.39,4.16ZM365,561.29h-38.3v-4.45l38.3-.15Z" style="fill:#fdb913"/><path d="M391.19,277.48c39.56-41.41,33.26-101.41,11.09-132.84-24.8,5-53.13,10.6-77.93,15.59-5.41,28,4.23,92.9,66.84,117.25ZM324.84,161.06c24.13-4.76,53-10.55,77.15-15.31,26.36,38.57,22,96.32-11.23,130.48-50.67-20.39-71.35-70.68-65.92-115.16Zm73.59,87.13c-3.58-2-5.29-4.6-5.8-7.49L390,228.38,401.72,226a13.3,13.3,0,0,1,9.41,1.49c-1.57-7.68-3.35-15.47-4.92-23.15-1.63,2.07-3.76,4.26-6.83,5.06-4.09,1.07-8.68,1.75-12.82,2.58l-3.35-15.79,13.32-2.67c2.77-.45,5.57.74,8,2.4-1.71-8-3.53-16.26-5.24-24.28a10.35,10.35,0,0,1-7.32,5.81c-4,.86-8.22,1.74-12.23,2.46-.78-3.7-1.6-7.55-2.39-11.26a9.82,9.82,0,0,1,1.3-7.68l-22.81,5c2.34,1.85,4.46,4,5,6.76.66,3.6,1.36,7.24,1.9,10.86l-14.2,2.83a12.15,12.15,0,0,1-9.11-1.85c1.63,7.79,3.69,16.34,5.31,24.13,1.4-3.06,3.64-5.6,7.08-6.1,4.68-.68,9.69-2,14.34-2.87l3.58,16L356,218.61a14.72,14.72,0,0,1-9.7-1.56c1.52,7.23,3.48,16,5,23.24,1.95-2.17,4.3-4.8,7.56-5.47l14.25-3,2.54,12.66a11.57,11.57,0,0,1-2.09,9.33l24.9-5.59Zm-24-17.95c-5.6,1.06-11.22,2-16.81,3.19a11,11,0,0,0-5.39,3.08c-1.22-5.25-2.22-11.2-3.44-16.45a11.25,11.25,0,0,0,6,.62c5.62-1.08,11.21-2.31,16.81-3.47l-4.36-19.85c-5.79,1.3-11.62,2.4-17.36,3.9a8.38,8.38,0,0,0-4.45,3.13c-1.19-5.2-2.38-11.2-3.57-16.4a8.72,8.72,0,0,0,5,.79c5.93-1.18,11.83-2.49,17.74-3.74l-2.72-13.3a14.49,14.49,0,0,0-3.32-5.08c5.53-1.17,11.75-2.45,17.27-3.62a12.47,12.47,0,0,0-.41,6q1.47,6.51,2.92,13l13.48-2.74a11.06,11.06,0,0,0,6.48-3.92c1.37,5.5,2.43,11.37,3.8,16.87a9.94,9.94,0,0,0-5-.7l-16,3.31q2,9.5,4.05,19l14.28-3a14.86,14.86,0,0,0,6-3c1.2,5.48,2.23,11.08,3.42,16.56a14.52,14.52,0,0,0-6.11-.31L388,227.28c1,4.56,1.85,9.15,2.91,13.69a11.76,11.76,0,0,0,3.67,6.34c-5.91,1.39-12.15,2.73-18.06,4.11a10.28,10.28,0,0,0,1-7c-.92-4.76-2.05-9.46-3.08-14.19ZM506.82,367.91c2.95-6,3.63-13,4.1-19.64.44-6,.56-12.1,3.71-17.42a8.09,8.09,0,0,0-8.49-1.16c-4.55-21.08-23.77-33.12-27-48.49a13.83,13.83,0,0,0-5.41,5.94c-15.67-15.86-15.76-40.57-7.21-53.69-20.37,6.26-27.06,20.38-27.62,49.57-2.69-5.08-2.84-15-2.46-26.84C427.9,262.49,425,275.68,425,285.37a33.8,33.8,0,0,0,5.19,18.07c4.87,8,11.48,14.57,18,21.26,1.74,1.8,14.84,14.37,14.84,17.68,0,2.61-2.19,3.42-4.19,4-8.06,2.5-15.82.33-23.35-4.47-4.32-2.75-8.42-6.11-12.56-9.16-6.06-4.48-11.81-9.28-17.61-14-4.13-3.37-7.82-7.41-12.12-10.52-7-5.09-17.87-8.86-26.63-12.09,4.37-8,5.15-12.91,3.6-16.24-1.76-3.77-6.54-5.52-12.52-7.4-.14-2.94-.42-6.71-.57-9.65,10.07,8.19,22.81,15.52,36.12,21.53,22.87-26.85,34-54.92,32.92-84q-1.1-30.33-20-62c-7.36,1-14.66,2.18-22,3.55-4.12-5.32-10.73-6.05-17-6.3a14.55,14.55,0,0,0-.31-5.76c-2.2.51-7.82,1.1-9.19-1.52-1.69-3.24,5.51-10.67,7.3-13.09,2.26-3.05,4.55-5.59,5.42-9.38a18.78,18.78,0,0,0-.52-9.72c-1.51-5-4.43-8.93-7.57-13a171.53,171.53,0,0,0-11.71-13.44,116.06,116.06,0,0,0-23.37,8.1,24.88,24.88,0,0,1-4.65-4.38c-6.33,8.46-13.09,16.84-20.59,25,1.81.64,4.76.36,7.08.48a22.16,22.16,0,0,1-3.68,7.48c-.92,1.06-1,2.41-.21,3.07a1.55,1.55,0,0,1,.54,2c-.29.57-.44.64-.72,1.2a2.19,2.19,0,0,0,.82,2.73c.61,1.07-.22,1.9-.37,3.2s.26,1-.5,1.88a2.08,2.08,0,0,0-.53,1.41c0,1.13-.51,1.09-1.57,1.15a5.85,5.85,0,0,0-2.73.69c-2.82,1.64-2.37,7-1.94,9.7-8.37-5.85-18.06-10.5-24.51-16.34l3.29-2.44a41.18,41.18,0,0,0-8.81-5.62,57.9,57.9,0,0,0-3.61-11.46c-1.06.6-2.25,1.47-3.31,2.07-1.31-2.83-2.48-5.93-3.79-8.75,1.8-2,3.61-4.16,5.41-6.36-8.74-.95-11.07-6.54-9-15.28,50.37,0,100.41-1.6,150.78-1.6a90.11,90.11,0,0,0,18.14-1.76,50.63,50.63,0,0,0,21.77-10.44,63.35,63.35,0,0,0-11.64-7.11,44.15,44.15,0,0,0-10.11-3.29c-12.36-1.88-25.27-1.47-37.77-1.61q-45.74-.5-91.48-1c-13.19-.21-26.59-.35-39.78-.57q0-3,.06-6.09c0-3.59-.56-5.3,2.57-7.56a15.7,15.7,0,0,1,6.06-2.54l-11-12.52c-5.48,4-12.51,11.68-14.06,26.43-4.26-.4-5.94-3.17-7.66-4.94s-3.76-2.7-5.52-.52a25.31,25.31,0,0,0-1.9,3.15c-7.8,1.54-16.22,3.93-18.1,10.52H179.93V39.9c-8.39-.18-13.25,2.8-15.46,8.71a18.35,18.35,0,0,0,.36,14c2.07,4.67,6.4,7.83,15.1,8V63.14h22.5c2,3.76,4.09,7.46,7.85,10.5.4.3.54.87.43,1.7-3.37,7-6.84,14-11.46,20.27q-1.19,1,.53,1.28a291.45,291.45,0,0,0,30.77.74,2,2,0,0,1,2.12,1.16,61,61,0,0,0,5.88,10.51,12.67,12.67,0,0,1-1.95,1.52c2.93,5.13,4.86,11.95,5.84,17.79a69.71,69.71,0,0,1,13.79,9.23l1.63-.89c6.23,7.94,12.32,15.77,21.19,23.64a7,7,0,0,1,2.06,4.12q1,4.52,2.22,9c3.34,11.9,12.53,36.3,12.67,47.15-8.74,1.35-17.23,2.76-25.8,3.35-.41-7.9-1.24-16.48-4.85-22.24a20.3,20.3,0,0,0,4-4.83c-6.6-5.33-3-11.28-8.08-16.5a17.77,17.77,0,0,0,2.34-3.93c-7.13-3.65-5.24-14.35-11.25-18.14-7.32-16.32-24.56-28.13-39.58-36.4a4,4,0,0,0,.21-2c-4.92-2.11-10.22-2.88-15.49-3.72a8.32,8.32,0,0,0-.58-3c-8.72-3-15.94-3.11-24.18-2.68a23.06,23.06,0,0,0-8.65-7.11c-6.5-2.92-14.78-1.88-19.53-8.09a13.06,13.06,0,0,0-4.37,3.14c-1.58,2.06,2.18,5.62,3.31,7.36a37.59,37.59,0,0,1-8.25-3.47c-1.66,2.59-1.52,4.55-.5,6.22,1.22,2,4.18,3.6,6.34,5.48-4.49,2.23-9.44,5-13.93,7.21a23.58,23.58,0,0,0,8,6.87c-10.12,11.67-20.39,23.13-30.51,34.8-3.11,1.55-5.39,5.17-6.24,8.46A44.26,44.26,0,0,0,89.31,183c-1.12,2.4-1.15,5.09.69,8.26,1.37,2.37,1.31,2.81.85,5.61a16,16,0,0,0,2.55,11.43c2.33,3.69,5,4.19,9,3.06a5.59,5.59,0,0,0,4.35-4.68c.71-3.76,2.81-7.24,8.39-10.11.49.59,3.19,3.62,3.19,4.36,0,1-3.69,3.56-4.49,4.25l1.86,3.15c.47.81.66,1.27-.11,1.95-2.28,2-2.86,2.66-1.64,5.12s3.25,3.69,6.42,2.63c3.78-1.27,7.75-1.26,11.54-3.41,5.48-3.11,7.28-7.54,8.78-13.56,3.13,3.49,3.24,7-1.14,13.94-1.6,3-3.32,5.9-4.8,8.86-6,1.54-9.32,7.9-6.54,13.52a8.35,8.35,0,0,0,8.1,4.63,9.08,9.08,0,0,0,6.67-3.15,10.64,10.64,0,0,0,1.95-9.07L157.12,233l-2.76,5.42c-7.06,1.18-12.92,6.6-16.29,12.67a124.47,124.47,0,0,1-10.24,15.45c-6.32-7-12.65-8.72-19-10.65-4.15-1.26-6.76-1.69-10.79.33a455.16,455.16,0,0,0-59.79,36.53,22.44,22.44,0,0,0-4.63,6.15c-1.61,3-2.91,6.33-4.32,9.45-4.66,10.31-8.65,22.73-13.53,33.74,1.2,3.43,2.4,6.34,3.6,9.77l10.72-3.6c-.94,3.39-2.6,7.14-3,10.61-1,8.91,2.12,28,3.81,46.39,2.23,2.12,4.26,4.44,6.49,6.56l29.71-33.21A71,71,0,0,0,58,370.24c-1.84-1.44-3.62-1.53-5.34-2.74s-1.27-3.86-.76-5.6c1.6-5.48,7.63-5,9.59,2.49A16.5,16.5,0,0,0,68.43,351c0-1.79-.64-3.58-.49-5.34a3.92,3.92,0,0,1,1.42-2.78c3.85-6.47,11-18.77,18.57-24.87,2.62-2.12,5.3-3.49,7.9-3.61,5.8-.3,9.89,3.86,12.58,8.63,2.41,4.27,3.69,9.42,4.45,15,8.54,12,17,24.13,27.34,35.58,2.75,3,3.88,4.35,8.37,4.27l9.07-.16a5.3,5.3,0,0,0,1.58-.59c1.61-1,3-3.21,4.25-4.61a2.85,2.85,0,0,1,2.44-1c8.42,3.22,15.2,4.89,18.08,6.44,2.3,1.24,1.26,2.59,0,4.32a8.13,8.13,0,0,0-7.83,6.41c-18.4.89-32.71,10.56-44.35,25.42-1.67,2.08-2.94,3.32-.56,5.22a20.83,20.83,0,0,0,8.52,4.5C142.65,420,149,413.2,154.73,415c.11,1.2.15,3.06.26,4.27l33.53,3.29,1-4.35,10.4,3.1c.78-1.56,1.79-3.89,2.57-5.45l22.22,7.6-16.17,11.83,25.55-1,18,24-3.32-30.16,20.41-12.94L244.39,415,230.12,395.9l.22,17.36-23.07-8.07c2.4-5.33,8.46-9.66,14.35-13.11a290.94,290.94,0,0,0,49.75,7.77c.52,15.52.54,31.34,1.06,46.86.56,16.43,2,31.94,14,44.59,9.88-11.11,11.57-30,11.57-44.22v-47c3.35-.29,4.75,1.77,6.39,5.56,1.3,2.94,1.32,5.68,5.42,4A34.44,34.44,0,0,1,323,406.89c2.36,0,2.75.82,3.18,3.27.89,5.15,2,9.76,4.41,14a16.92,16.92,0,0,0,4.69,5.39c5.64,4.29,13.08,7.2,20.26,11.52,8.88,5.34,18.33,13.82,18.33,25.08a21.21,21.21,0,0,1-.46,4.34,24.86,24.86,0,0,1-1.7,5c-2.36,5.25-6.32,11.09-8.92,15.51-1,1.51-2,3-3,4.49-1.6,2.43-2.76,4.88-4.19,7.38a15.66,15.66,0,0,1-4.82,5.21c-5.8,4.24-12.87,8.4-19.46,12.66-6.83,4.61-12.37,10.27-17.7,16.58a107.43,107.43,0,0,0-8.46,12q.11,4.3.21,8.6h18.46c0,2,.07,4,.1,5.94h43.93a61.09,61.09,0,0,1,.16-9.58c.52-4.91,2-12.62,8.73-11.69,3.5.48,6.89,3.71,8.41,7.48a37.71,37.71,0,0,0,8.08-16.26,26.51,26.51,0,0,1,4.63-11.52c9.53-14.05,18.06-28.79,27.71-43.11,2.76-3.86,5.32-7.73,8-11.6,1.06-1.52,2.06-2.64,2.29-4.53.48-4-2.73-10.35-4.71-13.66-1.57-2.57-4.27-2.27-6.86-2.92a28.14,28.14,0,0,1-7.18-2.84c-5.18-3-11-8.39-10.5-14.85a20.41,20.41,0,0,1,2.55-7.87C414,411.41,421.51,403,427,393.55c3.31-5.71,3.15-9.45,3.42-15.73a141.86,141.86,0,0,0,.07-15.27c0-.82.38-1.16,1.2-.5a4.68,4.68,0,0,1,1.19,2.4c1.47,5.33,5.22,9.95,8.78,14.11a57,57,0,0,0,17,13.23c17.08,9,37.58,10.49,48.22-9.6a45.89,45.89,0,0,1-21,2.93,31.94,31.94,0,0,0,20.91-17.24ZM379.51,305.05a89.06,89.06,0,0,1,5.9,38.85c-1.83-1.06-4.72-1.13-7.1-.49a106.54,106.54,0,0,0-5.12-41.32A47.41,47.41,0,0,1,379.51,305.05Zm1.89,53.45a6.79,6.79,0,1,1,6.8-6.79A6.79,6.79,0,0,1,381.4,358.5Zm2.82,1.61c0,13.94.2,26.39,9.92,32.66,0,1.72-.29,3-.31,4.69L390,398.8c-11.91-6.88-13.1-22.4-12.3-39.24a12.78,12.78,0,0,0,6.56.55Zm-11.35-8.47c-6.9-3.08-13.7-5.84-20.8-8.52a9,9,0,0,0,1.86-6.5c7,2.84,14.56,6.08,21.52,8.93C373.83,347.36,372.67,349,372.87,351.64Zm.8-41c3.52,11.16,3.5,21.84,2.67,33-7.88-3.79-15.28-6.61-23.39-9.68-.3-1-1.47-1.89-2.17-2.64a41.59,41.59,0,0,0-1.71-18.59,95.67,95.67,0,0,0,15.67-14.2c5.87,1.83,7.28,6.9,8.93,12.11Zm-16.24,68.82c-.1,1.7-.22,3.4-.33,5.1-2.24-.19-4.18-.42-6.42-.61-8-9.53-11.48-22.12-9.49-38.42,2,1.12,4.77,1,7.17.41-.36,16.67,1.93,27,9.06,33.52ZM345.23,344.2a6.48,6.48,0,1,1,6.48-6.48A6.48,6.48,0,0,1,345.23,344.2ZM339,331.53a10.3,10.3,0,0,0-2.52,6c-7.64-2.63-15.65-5-23.28-7.67a60.11,60.11,0,0,0,10.22-3.33C328.32,328.23,334.11,329.86,339,331.53ZM327,325c4.3-1.64,7.85-3.92,11.85-5.79a24.92,24.92,0,0,1,1.46,10.42C335.76,327.89,331.54,326.8,327,325Zm14-7a67.12,67.12,0,0,0,6.34-4,31.9,31.9,0,0,1,2,16.07,10.17,10.17,0,0,0-6.91-.86A40.77,40.77,0,0,0,341,318Zm16.58-41.67c5.94,1.35,10.07,3,10.4,7.8.66,9.53-11,19.08-17.63,24.27C336.22,319.49,317.91,327.11,304,329q-.05-13.23-.11-26.46l17-13.84c11.45-.31,21.55-3.44,28.28-13.51a42.43,42.43,0,0,1,8.39,1.13ZM132.54,299.43l-3.25-4.51c22.47-10.62,78.15-15.76,103.78-12.28l1.4,6.37c-36.2-2.81-70.28.37-101.93,10.42Zm15.49-1.9a59.54,59.54,0,0,0-5.76,12.38c-3.93-1.48-5.23-5.18-7.54-8.32A102.63,102.63,0,0,1,148,297.53Zm85-17.36c-37.45-1.9-72.64,2-105.45,12.71-2.62-2.89-4.84-5-7.6-8.3a44,44,0,0,0,2.89-4.71c36.12-12.32,73.35-15.05,111.46-13.43a48.28,48.28,0,0,0-1.3,13.73ZM226.74,326l-26,35-5.83-.39,40.24-68.18a43.43,43.43,0,0,0,8.23,13.08,40.09,40.09,0,0,0-15.83,9.93,27.55,27.55,0,0,0-.78,10.52Zm-27.09,37-10.08,13.53-4.1-1.56,8.24-12.5Zm27.73-34.32a32.79,32.79,0,0,0,1.71,5.69L192,386.07a11,11,0,0,0-4.22-3.39c13.23-18.06,26.37-35.9,39.6-54Zm-35.45,67.58,3.61,2.25-1.59,2.81L188.78,399a12.72,12.72,0,0,0,3.15-2.74Zm1.25-2.44a12.28,12.28,0,0,0,.09-5.48l37.44-51.81c4.54-1.15,8.9-1.22,12.87,1.07-1.6,9.8-7.24,17.57-13.74,24.91a193.31,193.31,0,0,1-16.58,16.19c-6.34,5.65-12.29,11.48-16.45,18.14-1.25-1-2.38-2-3.63-3Zm38.47-60c-3.35-6.81-2.62-11.34-2.13-16A71.76,71.76,0,0,1,259,336.7a13.19,13.19,0,0,1-1.33,9.87c-9.19-12-17.73-14-26-12.67Zm23.79,15,3.12.81c2.05-3.87,3.53-7.79,2.94-11.9a35.81,35.81,0,0,0,9.28-5.28q.14,11.14.27,22.27-6.2,2.24-8.48,10.92a43.69,43.69,0,0,1-13.66.53C251.54,360.57,254.3,354.89,255.44,348.93Zm15.35-20.66c-2.05,4.09-5.56,5.67-9.28,6.89-10-8.31-20.19-15.48-30.7-19.49,3.25-3.45,7.49-6.58,15.26-8.59C251.7,317.19,257.73,326.82,270.8,328.27Zm-12.59-8.4c3.6-5.86,7.6-12.11,12.41-16.28.09,7.24.09,14.85.18,22.09A15.86,15.86,0,0,1,258.21,319.87Zm-12.44-15.31c-5.16-4.88-8.68-12.37-9.76-20.79-2.32-17.94,9.3-46.26,31.76-42,7.5,1.41,13.19,7.54,12.54,18.2-13.47,11.58-25,26.6-34.53,44.64Zm9-67.1c4-.46,8-.79,12.09-1.21-.12,1.14-.3,1.88-.42,3A33.42,33.42,0,0,0,254.94,241c-.06-1.15-.12-2.37-.18-3.52Zm25.5,9.7c-3.24-4.31-7-6.79-11.36-7.59.19-1,.38-2.4.58-3.41l27.3-3.11c-3.77,5.4-9.82,9.88-16.51,14.11Zm1.83,1.35c6.84-4.19,13-8.81,16.76-15l2.85-.29a18.64,18.64,0,0,0,5.46,4.75,81.77,81.77,0,0,0-11.51,13.14c-3.7-3.9-8.6-3.34-13.55-2.63ZM293,252a58.93,58.93,0,0,0-10.37,6.13,30.8,30.8,0,0,0-1-7.06C285.74,249.84,289.81,249.4,293,252Zm16-13.12a11.61,11.61,0,0,1,5.07,2.09c-10.56,6.8-16.73,19.14-19.24,36.54l-4.74-.06c1.23-15.53,6.18-28.8,18.9-38.57Zm5-1c-3.18-1.54-7.7-2.09-9.74-5.14-.55-1-.76-1.81,1.31-1.54a9.49,9.49,0,0,0,7.14-2.06c5.85-4.65.5-9.74-4.6-10,1.65-3.64,4.65-5.31,8.57-4.4,2.45.33,5.12.66,7.57,1a123.49,123.49,0,0,0,10.57,21.83c-4.21,1.8-6.32,8.27-12.22,5.25a95.35,95.35,0,0,0-8.61-4.87Zm22.68,2.35a117.89,117.89,0,0,0,17.58,20c.14,3.71.29,8,.44,11.68-17.55-3-34.68-2.23-49.89,3.3q-.43-17.73,17.14-30.17c6.12,4.21,10.2-3.83,14.72-4.84ZM326,272.84c2.37-.22,19.09-1.35,20,1.68.46,1.58-2.24,3.63-3.32,4.5-6.37,5.15-14.19,6.9-22.7,7a117.82,117.82,0,0,1-16.25,13.15q-.17-10.1-.34-20.19A66.75,66.75,0,0,1,326,272.84ZM403.33,142.2c21.82,29.13,33.28,88.73-11.32,138-57.38-21.52-76.35-77.52-69.89-122.22l81.21-15.81Zm-22.21,1.11-38.88,7.88C344.85,138.85,373.86,132.58,381.12,143.31Zm-31.7-70c7,6.8,14.06,13.46,18.19,24.07,2.24,5.83.21,10.17-2.85,14.21-2.13,2.81-4.75,5.47-6.8,8.4-2.38,3.42-5.83,10.24.22,12.12a19.6,19.6,0,0,0,6.39.44c.35,3.72-4.6,4.21-7.69,4.67C337,140.19,334,120.48,343,104a4.69,4.69,0,0,1,3,1.52c0,3.31,1.42,5.53,3.38,6.58,3.59,1.93,7.15.13,9.24-2.89,2.38-3.41,2.86-8.39-.61-11.25-1.85-1.52-4.6-1.9-7.81-.16C339.52,93.91,333.19,87.31,328.08,80A61.09,61.09,0,0,1,349.42,73.3ZM307,96a213.33,213.33,0,0,0,15.27-18.11c8,9.72,16.95,17.66,27.75,22.09a5.84,5.84,0,0,1,6.1-.78c2.48,1.24,3.75,4.51,1.79,8.23-1.81,3.42-5.1,4-7.38,2.75-1.77-1-3-3.14-2.72-6.1C337.69,98.35,323.91,95.71,307,96Zm1,10.08a32.39,32.39,0,0,0,4-8.2c2.33,0,5.19,0,7.52.09-1.62,2.42-.51,3.36,1.23,3.67a26.46,26.46,0,0,0,4.41,0c1.41-.12,2.58-.39,2.52-.92s-1.4-.82-1.93-1l.44-.8c2.84.35,7.08.32,8.17,3.62,1.52,4.6-4.82,12.42-8.12,14.73-1.25-1.25-2.61-2-4.21-1.73-.15-3.83-1.6-6.55-5.89-6.83a2.66,2.66,0,0,0-1-3.24c-1.14-.52-1.51.23-.93.75,1.41,1.56,1,2.62.21,3.07-1.13.61-1.94-.29-3.06-.06-.52.11-1.06.33-1.47.43a2.37,2.37,0,0,1-2.31-.46C306.63,108.3,307.2,107.05,307.95,106Zm-.78,6.6a3.59,3.59,0,0,1,2.19-1.54,18.55,18.55,0,0,1,6.61-.56c4.53.63,4.77,3.7,4,7-.1.43-.73,1.59.12,1.79s.89-1.44,1-1.69c.41-.78,1.25-.82,2.38-.41s1,1.32.32,2.23a8.81,8.81,0,0,1-4.09,2.81,3.25,3.25,0,0,1-3.12-.41A5.33,5.33,0,0,1,315,118.5c-.29-2.32.29-3-2.51-3-1.42,0-7.13.31-5.36-2.82Zm.83,5.84c-.23-1.52,1.37-1.85,2.95-1.66,2.44.29,2.71,1,2.89,2.3a4.61,4.61,0,0,0,1.37,3.06c.8,1.72-2.62,1.81-3.63,1.82-1.19,0-4-.16-4.61-1.44-.24-.48.12-1,1.07-1.44.48-.28.73-.57.76-.89C308.84,119.66,308.1,119.17,308,118.48Zm-3.59,19.76c5.67,2.56,12.74,1.08,19.58.26q1.72-.71-.09-1.06c-7.59,1.06-15.33,1.84-21.27-2.3-4-3.25-3.85-6.93-.62-10.17,19.55,3.33,30-5.92,34.78-23.26a16.28,16.28,0,0,1,4.32,1.68c-8.45,21.68-4.46,32.57,8,36.09-4.46,3.26-8,7-9.36,11.94-30.44,7.69-39.31,2.83-44.06-4.25-2.86-4.25-1.27-6.65,1.26-9.28,3-3.14,4-1.2,7.43.36Zm104.71-73.4L252.85,66.27l-.07-9.52c61.2.07,122.84-.37,184-.3-7.17,6.88-18.45,8.3-27.7,8.39Zm2.71-17.64c8.48.08,18.36,1,24.75,7.23l-183.8.22v-9.1l159,1.65ZM250.5,17.42l6.86,6.88c-4.25,2.14-7.1,5.25-6.86,10.51q.13,20.38.26,40.75c.27,4.35,1.67,8.24,7.12,10.51L251,93.33C235.91,85.59,233.93,26.81,250.5,17.42ZM221.95,40.58a3.31,3.31,0,0,1,2,1.53c.69,1.1,1,2.44,2.62,3.19,2.39,1.11,2.79,7.7.16,8a26.82,26.82,0,0,0-5.6.56c-1.95.45-3.39,1.51-4.67-.86-.91-2.17-2.24-4-4.61-4.08l-5.88-.21c2.58-5.22,11-9.6,16-8.11ZM177.74,66.71c-7.11.2-12.05-5.73-11.46-12.61.55-6.26,4.85-10.74,11.46-10.42Zm1.81-6.9V50.59h33a14.09,14.09,0,0,1,3.18,9.23Zm24.33,34.42c3.33-5.67,6.45-11.72,9.78-17.39a37.56,37.56,0,0,0,10.81.26c.08-.35.17-.69.26-1-11.21-.61-14.7-6-17.74-11.68q-1.95-2.66,1-2.21l5.21.38,2,.14c1.35.94,2,.84,2.28.3.4-.71.3-2.15.59-3.08,1-3.48,4.26-5.19,10.86-4.36,1.47.11,1.68-.58,1.42-1.56a19.7,19.7,0,0,1-.26-8.31,7,7,0,0,1-4.09-4c-1.17-2.78-.5-5.52,2-3.51q2,1.49,4.13,2.78c.6.36,1.27.74,1.95,1.1,3.65,2,2.43,2.92,2.32,7.08C236.06,64,238,77.32,243,88.53c-5,7.82-22.44,6.76-39.11,5.71Zm31.15,3a57.4,57.4,0,0,0,9.78-4.93A25.06,25.06,0,0,0,250.36,97a33.08,33.08,0,0,0,5.38-4.41l4,8.63a25.17,25.17,0,0,1-18.59,7.52A41.13,41.13,0,0,1,235,97.28Zm4.79,14.08c8.49.06,16.42-3,23.7-10a25.23,25.23,0,0,1,1.87,7.91L244.8,125.12a100.25,100.25,0,0,0-5-13.75Zm16.51,23.81a94.84,94.84,0,0,0-10.62-8l20.46-16.09a25.13,25.13,0,0,1,6.73,3.57,35.21,35.21,0,0,0-16.57,20.5Zm2.72-1.1A32.48,32.48,0,0,1,270.83,118c8.33,6,17.09,11.85,25.77,17.72-3.42,3.76-6.44,6.7-3.76,10.9-3.77,3.44-7.23,8.18-10.36,12.72-8.93-7.25-17.62-15.92-23.44-25.24ZM283,162.52a65.59,65.59,0,0,1,10.7-14.12,19.82,19.82,0,0,0,4.14,4.55,143.79,143.79,0,0,0-10.37,23.15c-2.51-4.19-3.59-8.85-4.46-13.58Zm7.32,24c-3-10.23,4.89-23.76,9.64-32.37a48.77,48.77,0,0,0,18.81,3.43,135.19,135.19,0,0,0,4.4,55.08c-4.26-.08-8-2-12.23-.05a7.77,7.77,0,0,0-3.88,4.2c-.81,3.24-6,3.24-8.39,3.61-1.58-12.1-5.5-22.88-8.36-33.9ZM173.56,113.42a45.55,45.55,0,0,1,21.1,2.13,7,7,0,0,1-.89,3.38c5.35.35,10.65.22,16.31,2.85-.74,2.37-2.86,2.83-4.79,3.55,3,.48,5.6-.68,8.65.27,3.21,1,6.18,3.29,8.9,5.1a92.71,92.71,0,0,1,26.76,27.09,8.59,8.59,0,0,0-4.06.24c4.69,1.74,6.6,3.83,7.72,6.23,1.91,4.07,2.68,11.07,7.61,12.89a5.31,5.31,0,0,1-6.78,0c.28,2.87,6.21,3,7.53,10.05.74,3.93,1.48,8.34,4.85,10-1.17,4.12-5.42.3-8.51,1.28,9.34,4.53,8.95,15,9.23,26-3.72.29-7.85.55-11.58.85-1.68-68.94-30.77-96.34-72.95-103.51C177.85,121,171.33,120.41,173.56,113.42Zm-36,72.9c9.62-9.67,19.52-19.47,29.14-29.14a8.67,8.67,0,0,0,1.93.22,8.92,8.92,0,0,0,1.37-.11,32.37,32.37,0,0,1,7.26,22.16c-6.5,7.3-16.62,8.55-28.75,6.45a3.78,3.78,0,0,0,1.87,2.29l-5.21,4.69c-2.32-1.6-4.88-3-7.2-4.28a4,4,0,0,0-.41-2.29Zm-5-5.56-.81-.42,28.63-28.92c.09.2.18.41.28.61a8.6,8.6,0,0,0,4.13,4.48l-27.91,28a7.09,7.09,0,0,0-.94-1.29,8.33,8.33,0,0,0-3.38-2.49Zm3.37,7.72a6.47,6.47,0,0,1-6.46,6.46l-.5,0h-.06a6.43,6.43,0,1,1,5-11.15l0,0a6.46,6.46,0,0,1,2,4.68Zm36.49-47.3a9.51,9.51,0,0,0-1.27-.51c5.83-5.68,7.48-10.42,8.19-16.79a11.86,11.86,0,0,1,7.49,1.5c-.27,7.93-4.31,14.37-10.26,20.14a7.64,7.64,0,0,0-4.16-4.34ZM185,177.37c-1.93.44-3.87.89-5.7,1.38-.71-8.3-2.66-16-7.3-22a8.58,8.58,0,0,0,4.5-4.5c7,7.83,8.9,16.55,8.5,25.17Zm-10.1-28.53A6.27,6.27,0,1,1,164,144.65a7.78,7.78,0,0,1,4.33-2.07h.33A6.27,6.27,0,0,1,174.91,148.84Zm-14-3.63A65.2,65.2,0,0,0,138.94,130c1.51-2.12,4-3.57,7.58-4.22,7.06,3.2,13.3,8.6,19.5,15A8.58,8.58,0,0,0,160.89,145.21Zm-8.13,44.31a35.82,35.82,0,0,0,18.87-2.59c3.33,10.57-.72,20.79-6,29.67-4.21-1.36-9-2.72-13.05-4.44-.06-6.55-1.16-13.14-5.72-17.57,1.71-1.53,4.17-3.55,5.89-5.08ZM174.44,185c2.82-4.4,8.26-6.84,17.42-5.61-1.62-.77-3.35-1.55-5-2.32.24-11.23-3.46-20.22-9.85-26.62a8.23,8.23,0,0,0,.15-1.59,9,9,0,0,0-.1-1.34c5.88-5.84,10.56-12.4,11.48-21.36,46.93,9.88,63.81,49.68,64.66,99.38-29,1.78-57.55-.27-84.52-8,5.67-10.4,8.78-21.3,5.74-32.53Zm-31.81-84.71a1.41,1.41,0,0,1,.59-1.32c1.24-.86,2.36.34,3.32,1a33,33,0,0,0,11.93,4.73c4.36,1,8.21,2.92,10.59,6a7.22,7.22,0,0,1,1.42,3.84c.28,2.54.35,4.83,1.57,6.28s2.67,1.22,4,1.63a3.39,3.39,0,0,1,1.7,1c-.84,6.59-3.4,12.39-9,16.78h-.37a87.67,87.67,0,0,0-19-15.28c1.69-1.73,4-2.87,7.82-2.7,2.93-.64,3.93-2.45,3.81-4.52a10.53,10.53,0,0,0-5.31-7.79c-4.16-2.15-8.42-4.26-11.25-7-.7-.67-1.73-1.64-1.82-2.67ZM137.22,108c-1.2-1.54-.93-3.28,1.52-2.44,4.62,3.09,12.87,4,16.39,6.94l-9.33,1.75C142.32,112.17,138.9,110.12,137.22,108Zm-3.75,14.9c-.68-.68-.81-1.27-.14-1.65a49.08,49.08,0,0,1,21.79-6.92,3.86,3.86,0,0,1,3.31,1.26c1.23,1.6,1,3.12.11,4.1a3.76,3.76,0,0,1-2.65,1.13,25.11,25.11,0,0,0-9,2.54,42.4,42.4,0,0,1-6.95,2.58c-2.79.15-4.6-1.21-6.44-3Zm-9.31,22.81c5.48,5.63,11.22,11.14,17.64,3,1.6-2,3.22-4,5.81-4.91,1.61-.55,1.77-.59.16-1.8-4.2-3.17-7.26-4-9.88-2.71-2.19,1.06-3.3,4.5-5.63,6.9a3.61,3.61,0,0,1-5.9-.48c-1.75-3.13,2.87-6.22,4.78-8.12s4-4,6-5.93c7.43,2.42,16.33,8.12,23.14,15.54a8.3,8.3,0,0,0-.16,1.63,8.2,8.2,0,0,0,.06,1c-10,9.78-20.89,19.93-30.83,29.69-6.85-7.56-13.95-11.92-21.1-15.5a135.41,135.41,0,0,1,15.95-18.34Zm6.63,2.88a8.53,8.53,0,0,0,5.07-4.33,5.44,5.44,0,0,0,4.6,3.48C136,152.9,133.11,151.61,130.8,148.56Zm-24.1,17.3a61.44,61.44,0,0,1,20.44,14.63,8.33,8.33,0,0,0-4.88,3.9c-7.49-7-14.61-12.1-20.34-13.93A9.54,9.54,0,0,1,106.7,165.86Zm7.76,28.2c-4.46,2.74-9.1,5.24-9.76,10.59a5.16,5.16,0,0,1-4,4.47,4.29,4.29,0,0,1-4.2-1.65c-3-3.66-2.78-7.33-2.35-11,.32-2.81,1.1-2-.58-4.51-2-3-2-6.41-.22-10.06,1.3-2.64,4.08-5.27,6.79-8.31,1.2-1.35,2.46-1,3.92-.21,5.74,3,12,8.07,17.48,12.85a8.33,8.33,0,0,0-.3,2.22,8.69,8.69,0,0,0,.11,1.35c-2.25,1.43-4.55,2.84-6.84,4.25Zm2.33,1.68a25.5,25.5,0,0,1,5.08-4,8.36,8.36,0,0,0,3.24,3.78,18.13,18.13,0,0,1-5,4.49A33.67,33.67,0,0,0,116.79,195.75Zm9.48.38a7.67,7.67,0,0,0,1.47.63c-.9,4.95-4.37,8.5-8.09,11.46a3.51,3.51,0,0,1-2.5-2.71A49.66,49.66,0,0,0,126.27,196.13Zm1.84,17.64c-2.3.76-4.73,1.26-7.07,1.9a4.25,4.25,0,0,1-2.87.11,2.39,2.39,0,0,1-1.64-2.77c.32-1.08,1.5-1.37,2.39-1.83,5.56-2.87,8.83-8.05,10.89-14.22a13,13,0,0,0,5-1.81,12.33,12.33,0,0,1,4.39,3.48C137.61,207.64,133.34,212.06,128.11,213.77Zm7.8-19.55a12.45,12.45,0,0,0,1.92-3.6c9.78,3.57,13.52,11.59,12.84,20.78a39.46,39.46,0,0,1-5-1.94A18.78,18.78,0,0,0,135.91,194.23Zm.52,45.36A6.55,6.55,0,1,1,143,233,6.55,6.55,0,0,1,136.42,239.58Zm1.53-15.91c2.16-3.9,4.46-8.23,6.62-12.12C189.58,231.51,253,230.9,302,222c3-.46,7.63-1.74,10,.87a2.63,2.63,0,0,1,.17,3.74c-1.7,2.4-6.83,2.67-9.73,3.14-71,10.32-125,8.1-164.48-6.07Zm15.35,18.46c-.13,3.81-4.49,7.06-4.52,12,7.33-4.56,15.39-7.65,23.09-8.17-4.88-3.6-12.68,2.37-18.2,1.9,1.33-5.45,6-9.24,8-14.69a470,470,0,0,0,91.27,4.63c.12,1.3.18,2.46.3,3.77-8.93,4-14.38,12.31-18.14,22.17-39.29-1.58-77,1.57-110.07,12.89,9.57-10.68,16-32,28.31-34.49ZM35,304.49a10.05,10.05,0,0,0,4.92,2.73c1.4.25,1.53-.49.38-.91-7.26-4.2-1.2-10.66,3.08-13.73,16.29-11.65,33.29-20.79,50.15-30.4.24,1.25.47,2.5.83,3.75.15.51,1,3.68,2,2.25a2.13,2.13,0,0,0,.06-1.72c-.94-8.25,5.2-9.11,11.48-7.67,9.75,2.23,14.46,6.37,18.05,10.92l-8.29,12.71a17.81,17.81,0,0,0-12-4.54,98.36,98.36,0,0,0-14.83.56c-5.43.63-9.33,1.65-12.79,5.86s-7.24,9-10.74,13.3a25.09,25.09,0,0,1-4.9,4.62c-1.87,1.29-4.14,1.63-5.9,3A3.89,3.89,0,0,0,54.78,309c.22,1.64,1.42,2.57.44,4.25a18.54,18.54,0,0,1-1.79,2.26c-1.76,2.17-3.47,4.35-5.29,6.5a43.94,43.94,0,0,0-18.58-5.24A58.13,58.13,0,0,1,35,304.49Zm-6.37,15.44c6.79.14,13.42.63,18,5.23-6.29,10.23-14.58,11.71-26.14,15a79.17,79.17,0,0,1,8.14-20.27ZM21.12,348l-1.6-5,18.75-6.28a54.53,54.53,0,0,1-6,7.54L21.12,348Zm38.26,27.35,4.05,3.71-26,29.27-4.16-4.05C33.27,404.44,59.39,375.39,59.39,375.39ZM57.5,374.3c-7.81,8.63-16,17.57-23.77,26.2a123.32,123.32,0,0,1-2.59-21.84,165.72,165.72,0,0,1,19.58-9.23,25.67,25.67,0,0,1,6.78,4.87Zm126.2.2c-6.13-2-12.55-4.18-18.68-6.17,1.94-4.17,4.6-6.94,9.31-8.07,6-1.44,5.08-3.33-1.06-2-3.49.76-7.81,3.36-13.2,12.07-1.26,2-1.44,3.31-4.11,3.71h-7.56c-3.05,0-4.61-.29-6.52-2.77l-26.58-34.6c-1.38-7.92-4.07-16.92-9.54-21.81-7-6.26-14.52-4-20.32,1.78-7.35,7.31-13.54,15.92-19.36,25-1.08-1.62-.84-3.19-.24-4.87.21-.59.37-1.16.11-1.3-.62-.33-1.69,1.69-1.94,2.27-1.83,4.22,1.39,8.4,1.83,13.27.41,4.49-1.36,7-3.91,8.79C55.66,349,47.3,358.83,49,367.56a160.26,160.26,0,0,0-18.39,8.3c-.75-4.41-1.31-8.82-.52-13.23a9.93,9.93,0,0,0,4.5,2.46,12.85,12.85,0,0,0,2.3.35c1.23,0,1.33-.63.73-1.11a15.48,15.48,0,0,0-2.43-.92c-2.43-1-3.34-3.39-3.7-5.8-1.11-7.57,5.59-16,10.72-23.06C53.49,319,65.26,304,77.19,290a8.58,8.58,0,0,0,3.59,5.06c2.74,1.87,2.82.5,1.13-1.27a7.18,7.18,0,0,1-2.36-4.91,8.35,8.35,0,0,1,1.53-4.3c2.38-3.19,7.73-3.85,11.39-3.94,6.69-.15,14.08-.85,19.73,1.56,3.2,1.36,6.4,4.41,9.64,7.88,6.63,7.09,13,16.68,17.29,22.42,10.65,4.47,18.4,13.77,16.58,27.16-.79,5.88.09,6.49,1.54.1,2.38-10.52-1.55-20.61-12.41-28.3a41.63,41.63,0,0,1,5.85-14.85c25.58-5.95,52.89-8.49,82.48-4.87L183.7,374.5Zm1,10a6.53,6.53,0,1,1-6.53,6.53A6.53,6.53,0,0,1,184.68,384.55Zm-45.77,35.73a7.82,7.82,0,0,1-4-1.88c-1.83-1.52-1.4-2.07-.05-3.82,10.41-13.43,23.34-22.45,41.62-22.13-3.62,7.64-10.12,14.15-20.83,19-7.52.22-12.34,4.24-16.78,8.81Zm47-.63-28.75-2.73c-.05-.94-.1-1.87-.16-2.8,8.5-4.33,15.65-9.8,21-17.24,1.16,1.6,3,2.33,5,2.89a17,17,0,0,0,3.92,16.6ZM199,418.56l-11-4c-1.56-1.9-2.74-3.87-2.64-5.76,5,1.87,10.36,3.81,15.39,5.68L199,418.56Zm34.26-1.48-1.32-15.73,10.64,16.74,20.28-1-17.4,9.73,4.19,24.92-14.06-20.79-21,2.26,16.24-10L184.78,406.8a17.87,17.87,0,0,1,.54-6.31Zm-29-12.47-6.76-2.47c1.9-7,7.67-12.67,14-18.19,14.52-12.74,29-26.06,34.31-45.45,3.34.58,6,2.68,7.62,7-1.5,13.06-9.18,22.79-18.13,31.83-10.87,10.39-24.86,16.59-31,27.3Zm19.6-14.81c8.07-6.49,16.27-13,22.9-20.74a156.13,156.13,0,0,0,18.3.18c.29-6.11,2.54-9.4,6.16-10.73q.18,19.18.36,38.37c-17.27-1-33.54-3.27-47.72-7.08Zm46.43-112.2q.11,11.31.23,22.62c-5,4.85-9.57,11.41-14.12,18a29.43,29.43,0,0,1-7.91-12.44c9-19.7,25.89-42.33,45.93-52.37-3.26,7.47-6,15.65-6.83,24.07l-17.3.16Zm2.89,23.83c10-.82,11.77-13.82.18-14.71v-6.41l21.16-.31v6.23c-9,1.17-10.24,12.91,0,14.62v5.48l-21.34.16Zm.21-2.51V289.4C281.83,289.57,281,299.24,273.36,298.92Zm21-10.45v9.71C287.4,298,287.56,288.84,294.32,288.47Zm.92,170.66a66.23,66.23,0,0,1-8.56,27.54c-7.2-6.94-10.38-18.61-11.32-31.37-.4-5.45-.35-10.93-.42-16.39l-1.73-130.32h21.28c.22,44.55.8,89.48,1.06,134.08,0,5.49.21,11-.3,16.47ZM298.46,268q4.32-17.17,16.94-26.4a8.91,8.91,0,0,1,4.13,2.16c-11,8.74-15.82,18.52-17.33,30.53-.77,6.09-.52,12.21-.48,18.33q.16,24.09.32,48.19a30.23,30.23,0,0,1-5.31,6.83V293.71c0-8.79-.45-17.14,1.72-25.72Zm23.88,136.52a96,96,0,0,0-13.76,2.6c-1.5.39-2.11-1.49-2.89-3.52a9.71,9.71,0,0,0-2-3.54L322,398.67c.88.07,1.74.17,1.86,1.54q.18,1.4.36,2.79c0,.83-.41,1.43-1.9,1.5Zm27.12,108.34A25.39,25.39,0,0,0,360,501.71l12.11-21.48c1.82-3.23,3.41-6,4.08-9.75,1.11-6.09-.39-11.58-3-18,8.45,5.27,16.09,11.34,16.38,20.19.12,3.72-1.16,7.14-2.57,10.51-3.8,9-9.14,17.63-14.22,26.14a28.51,28.51,0,0,1-8.52,7.93c-9.57,6.1-20.26,10.91-27.64,19.61a56.54,56.54,0,0,0-10.83-7.27c6.18-6.23,14.29-11.74,23.71-16.75Zm-8.39,24.44c8.3,1.1,25.46,6.07,23.59,17.44l-36.33-.44C331.57,548.24,335.5,542.15,341.07,537.28Zm-18-5.33a21.14,21.14,0,0,1,12.31,7.45,88.24,88.24,0,0,0-7.21,9.56c-6,0-12.4-.15-18.42-.15a58.9,58.9,0,0,1,13.32-16.86Zm2.18,23.28H308.58v-4.31l18.06.15-1.39,4.16ZM365,561.29h-38.3v-4.45l38.3-.15v4.6Zm41.7-141.22c-3.57,6-4.25,10.67-.53,16.85,4.37,7.28,9.93,9.54,18.76,13,4.21,1.67,3.92,2.14,5.37,6,.41,1.11.85,2.23,1.25,3.34.9,2.47-.49,5.14-1.86,7.22-10.45,15.82-20.25,32-30.19,48.17l-5.48,9.8c-1.24,2.21-1.69,2.41-2.18-.4A10.13,10.13,0,0,1,393,517c.88-1.2.18-1.46-.82-.24-1.61,2.35-2.29,3.6-2.36,6.55-.17,6.56,2.31,14.29-4.36,21.55-7.56-8.78-14.8-6.84-20,1.92-5.82-6.6-14-10.47-23.05-11.87,7.09-7.56,17-11.07,25.36-17.12,4.08-2.95,5.65-5.59,8.18-9.87,5.43-9.19,10.9-18.37,14.91-27.89a13.54,13.54,0,0,0,1.32-9.55c-.81-3.86-2.74-6.55-5.17-9.55a47.68,47.68,0,0,0-7.67-7.67,109.7,109.7,0,0,0-11.45-8c-5.45-3.33-10.94-6.45-16.44-9.46-3.76-2-7.81-3.81-11.45-6a20.58,20.58,0,0,1-8.54-9.46,49.38,49.38,0,0,1-2.37-8.15c-2-8.71-3.62-24-10-29.84-1.79-1.5-2.31-.11-1.49.62,2.6,3.36,5,7.4,4.36,12.94-8.89.78-17.53,1.35-24.51.49V351l6.88-8.79q0-4-.07-8.05L308.6,331c9.4,2.81,18.63,5.39,28,8.78a10.94,10.94,0,0,0,2.88,4.28c-2,15.63-.68,30.42,10.27,42.38,3.06-.08,6.26.18,9.32.1q.41-4.23.82-8.46c-8.84-6.19-10.48-18.75-9.84-33.36,7.68,3,15.18,5.81,22.86,9.47a14.65,14.65,0,0,0,3.24,4.53c-2.4,23.67,3.07,36.06,13.93,42.46,2.06-.93,3.74-1.39,5.8-2.31,0-2.83-.17-5.34-.2-8.16-8.55-3.8-10.28-17.06-9.37-30.27,22,11.84,34,22.35,39.38,28.68-5.61,10.27-13,20.88-19,30.91ZM426.59,387c-11.87-13.1-25.87-20.52-39.42-28.49,1.68-1.68,3-3.11,2.93-5.65,13.24,7.63,25.92,14.62,37.45,24.6A20.63,20.63,0,0,1,426.59,387Zm51.53-3.93c6.25,7.07,14.9,5.4,22.72,4.25-16.06,16.13-48.9,7.29-65.45-23a26.3,26.3,0,0,0-7.44-9.62q-.09,10-.16,20C416,365.5,404.43,357.06,390,349.87a14.75,14.75,0,0,0-2.69-4.69A116.54,116.54,0,0,0,382.19,306a67.69,67.69,0,0,1,10.47,6.22c13,10.22,26,22.68,41.69,32.27,8.91,5.39,18,7.82,27.52,4.09,5.27-2.07,7.15-5.55,2.81-10.36-9.41-12-26.86-25.77-34.08-39.33-5.69-10.72-3.9-23,2.95-35.94-.7,11.82,1.57,21.46,8.16,27.9-1.28-26.43,2.83-46.25,18.81-51.55-4.91,14.92-2.9,30.54,7.9,47a199.42,199.42,0,0,0,22,27.22c-.16-.54-.32-1.07-.48-1.6-4.55-5.3-17.63-18-12-25.5,2.31,5.89,5.87,9.68,9.64,14.6a116.43,116.43,0,0,1,10,15.28c6.8,12.58,11.36,30.85-4.36,39.15,16.27-3.13,9.25-24.2,17.52-23.49-2,2.79-1.65,6.48-1.79,9.74-1.17,27.07-11.08,41.37-30.86,41.33ZM390.5,428.44c3.38,7.11,5.27,14,16,22l-1.64,3.39c14.18-4,16.73,7.61,9.29,16.07,11.09-6.6,6.63-19.5-5.32-20.42-9.18-6-13.4-13.63-18.3-21ZM98.34,184.55c-1,.9,0,2.13,1.07,1.35,1.45-1.43,3-2.21,4.62-.89a3.51,3.51,0,0,1,1.43,3.06,2.62,2.62,0,0,1-1.6,2.54,8.17,8.17,0,0,1-3.11.58c-1,.08-1,1.08.11,1.18a7.43,7.43,0,0,0,3.18-.5,4.57,4.57,0,0,0,2.55-2.7,5,5,0,0,0-1.06-4.68c-1.86-2.47-4.4-1.75-7.2,0Z"/></svg>