<svg xmlns="http://www.w3.org/2000/svg" xmlns:xlink="http://www.w3.org/1999/xlink" viewBox="0 0 531 599.74"><defs><linearGradient id="a" x1="-80.73" y1="-59.24" x2="-54.42" y2="-110.88" gradientTransform="matrix(2.78, 0, 0, -2.78, 441.42, 88.88)" gradientUnits="userSpaceOnUse"><stop offset="0" stop-color="#cd8c5d"/><stop offset="0.76" stop-color="#fec00f"/><stop offset="1" stop-color="#fec00f"/></linearGradient><linearGradient id="b" x1="-37.25" y1="-129.74" x2="-74.83" y2="-88" gradientTransform="matrix(2.78, 0, 0, -2.78, 441.42, 88.88)" gradientUnits="userSpaceOnUse"><stop offset="0" stop-color="#cd8c5d"/><stop offset="0.75" stop-color="#fec00f"/><stop offset="1" stop-color="#fec00f"/></linearGradient><linearGradient id="c" x1="-52.28" y1="-107.82" x2="-69.03" y2="-93.26" gradientTransform="matrix(2.78, 0, 0, -2.78, 441.42, 88.88)" gradientUnits="userSpaceOnUse"><stop offset="0" stop-color="#cd8c5d"/><stop offset="0.86" stop-color="#fec00f"/><stop offset="1" stop-color="#fec00f"/></linearGradient><linearGradient id="d" x1="-35.03" y1="-89.96" x2="-56.98" y2="-103.68" gradientTransform="matrix(2.78, 0, 0, -2.78, 441.42, 88.88)" gradientUnits="userSpaceOnUse"><stop offset="0" stop-color="#cd8c5d"/><stop offset="0.83" stop-color="#fec00f"/><stop offset="1" stop-color="#fec00f"/></linearGradient><linearGradient id="e" x1="-47.75" y1="-72.3" x2="-43.1" y2="-90.94" gradientTransform="matrix(2.78, 0, 0, -2.78, 441.42, 88.88)" gradientUnits="userSpaceOnUse"><stop offset="0" stop-color="#cd8c5d"/><stop offset="0.9" stop-color="#fec00f"/><stop offset="1" stop-color="#fec00f"/></linearGradient><linearGradient id="f" x1="-62.81" y1="-75.71" x2="-53.43" y2="-76.36" gradientTransform="matrix(2.78, 0, 0, -2.78, 441.42, 88.88)" gradientUnits="userSpaceOnUse"><stop offset="0" stop-color="#cd8c5d"/><stop offset="0.94" stop-color="#fec00f"/><stop offset="1" stop-color="#fec00f"/></linearGradient><linearGradient id="g" x1="-70.09" y1="-91.04" x2="-65.81" y2="-80.95" xlink:href="#c"/></defs><title>Maldives</title><path d="M79.37,212.73c-4.26,2.53-6.49,6.68-5,9.25s6.24,2.59,10.5.06,6.49-6.68,5-9.25-6.24-2.59-10.5-.06h0Z" style="fill:#573f2f"/><path d="M451.63,212.73c4.26,2.53,6.5,6.68,5,9.25s-6.24,2.59-10.5.06-6.5-6.68-5-9.25,6.24-2.59,10.5-.06h0Z" style="fill:#573f2f"/><path d="M229.12.93s-1.3.52-.91,2.61-3.13.52-3.13-.13-1,.78-.65,1.17,1.57.91,2.09,1.83-.13,2.61-.65,2.09-2.22-.65-2-.13,1.57.65,2.61,2.48-.13,2-.13,2-1.56-.52-1.56.26A2.23,2.23,0,0,0,226,15.14c.91.52,2.87,2.09,3.91,2.09s.65,1.43.65,1.43-2-.91-2.35.39a2.46,2.46,0,0,0,.91,2.35s3.26,2.35,4.56,2.61,2.09,2,1.3,2.09a19.6,19.6,0,0,1-3.91.13c-.78-.13-1.7,1.43-.91,2.09a17.77,17.77,0,0,0,5.48,2.09c2.22.52,1.83,1.43,1.3,1.69s-3.91.65-4.7,0-2.74.78-.91,1.83,5.22.52,5,2.61-2,1.3-2.74,1.43-1.83,1.3-.39,2.09,4.17,2.35,5.61,2.35,1.83,2.22,1,2.22-3.78-.26-3.91-.52-2.74,0-.13,2,1,1.17,3.52,2.09,0,2.35-.39,2.22-2.22,1.3-.52,1.82,3,1.3,2.48,1.83-2.09,2-.26,2.35,4.56.79,3.52,2.22.39.65,2.22,1.3.13,2.09-.52,2-4.83-2.22-5.22-1,.26,1.57.26,1.57a12.29,12.29,0,0,1,4.3,1.57c1.3,1,1.57,2,0,2s-2.22-1.56-3.13-.65,1,2.35.39,4.17-1.83.65-1.83-1.83a6.94,6.94,0,0,0-2.09-4.43s-.78,2-.78-1.18-1.83-1.57-1.83-.52,1.17,2.87.26,3.26-3.39-3.65-3.39-5.09a1.05,1.05,0,1,0-2.09,0,19.76,19.76,0,0,0,2.35,7.7c1.3,2.22,3.65,5.09,2.48,5.74s-2.22.78-2.22-.39-4.43-11.6-6.65-14.21-2.35-2.48-2.35-.78,4,6.39,3.13,9.13-1.83,0-2,0-2.09-7.82-6-12.91-3.91-1.7-2.87-.39,5.09,6.39,4.56,9.65-1.56,1.82-1.83.26S215.42,51.92,210.73,48s-3.91-.13-2.87.52,6,5.74,6.13,10.3-1.44,1.56-1.83.65-2.22-8.61-7.69-13.17-2.61,1.17-2.61.39S207.6,52,207.6,56s-1.69,2.48-1.82,1.7S203.3,50,199,47.09s-4-3.65-5.61-3.13-2.48.13-3-.79-5-2.48-3.26.79-2.61-.65-2.74-.79-5.48-2.6-3.65,0,8.61,3.91,8.61,7.17,1.17,3.65-1.17,2.09-3.65-6.52-9.13-8.22,0,3-.13,2.35S183.48,49.31,181,50s-2.87-1.7-3.65-2.87-3.91-3.91-4.69-2.74.91,1.69-.26,1.69-4.43-1.17-4.3,1-1,.91-1.83.91-2.09.39-2,1.18-2.48,0-2.48.91,1.3,1.3,2.09,1.43,1.43.65,0,2-.91,3.65.78,3,3.13-1.7,4.69-1.7,2-.39,1.17.78-1.7,2.61,0,2.61,6.39-4,7.43-2.48,1,2-.26,3-.13,2.22,2,2,5.35-2.35,7.17-1.3.52,1.3-.39,1.83-2.09,2-.52,2,2.87-.52,5.61-.39,1.57-1.57,3-.26,2.35,1.3.52,2.09-2.48,2.74-.26,2.61,4.56-1.82,7.43-1.43,3,.65,1.82,1.82-3,1-3,2.35,2,1.3,2.74,1,3-1.3,4-1.3,2.09.13,1.17,1.17-1.57.52-2.22,1.57-.65,1.43,1.31,1.57,5.08-.26,5.61,0,3.13.26,1.83.78-4.3,2.09-2.61,2.48a15.53,15.53,0,0,0,5.61.52c2.09-.26,4,1,2.87,1.43s-2.61,1.57.13,1.57,4.43,0,4.43,1-1.69.39-2.48,2.09,5.35,6.91,8.35,11.61,2.74,1.17,1.7,3-3.13,1.17-3.78-.39-2.09-4.3-6-8.08-3.65-4.17-4.17-4.17-1.57,1,.13,3,5.87,4.83,6.65,8.22-2.48,1.69-2.61.91a25.14,25.14,0,0,0-7.17-10.3c-5-4.43-9.39-4.56-7.57-2.48s8.35,5.48,9.13,9.78-2.48,1.83-2.61,1-2.87-6.13-7.56-9.39-7.69-2.87-6.39-.65-.78,1.44-1.17,1-3.78-2.74-4.69-2.22-1.56.65-.78,2.09-1.31.52-3.13-.13-4-1.43-4,.26-3-.52-3.78-.65-6.78-1.56-6.78-.39,2.48,2.74,0,2.87-5.22.52-3.91,2,4.83-.52,8.61,4.56-1.43,2-1.56,2-2-2.74-4.43-3.78-5.09-2.35-7.69-2.61-4.82,1.17-2.48,2.22,7.3,1.31,9.91,4.43-3.26.91-3.78-.13-7-2.22-7-2.22-9.91-.13-3,2.35,10.43,5,4,3.13-16.43-1.56-11.87.39-1.83.79-2.87.91-4,1-2,3.78-2.87.52-.26,1.57-3.39,2.22.91,2.48-6.39,2.48-3.78,2.74-4.43,4.83.78,3.65.52.39,2.48,1.43,2.09-2.6,2.87-2.74,3-4.17,3-1.17-1.3,4.83,2.61.65,3-1.3,2.74.13,0,3,1.44,2.09.65,3.26,2.22,1.17,1.3-4.83,3.13-6,3.65-2.48,2.48.52-.65,5.87,2.22,1.7,4-5.09,3.39-2.61-.26,4.69,1.82,1.69,3.91-3.78,2.74-1.17.78,1.3,2,.78,1.83-.65,1.44,1,3.26-4.17,4.3-5.35,4.56-4.56,1.57,1.56,2.22,1.3,2.22,1.3,8.48-8.21,5.35-2.48-1.56,6.26.91,4.43,5.61-7.82,3.78-3-1.17,5.87,1.83,2.74,9.39-10.83,7-3.91,2.61,1.43,3.39.52,4.83-3,1.7,1,2.61,1.56,3.78.65,5.35-4.69,2.35.26-1,3.26,2.22,1.57,3.65,0,2.09,2.09-3-.52-1.56,3.13-2,1.7-3.39,2,1.3,1.7-2,2.35-12.91.91-7.43,3.52-1.43.52-2.22,1.3-4.43,1.3-2.35,2.22-2.35,1.56-3.26,1.43-11.08,1.83-5.61,2.48,16.56-2.22,17.34.65-5.35,1-7,1-24.39,1.43-14.74,2.48,10.69-.13,11.74.78-5,1.3-6.78,1.3-14.86,1.83-9.52,2.35,4.83,1,1.3,1.83-9.52,2.87-2.74,3.13,15.39.52,7.17,2-8.48-.65-13.17.91-7.17,2.61,7,2.74,2,1,2.35,1.56-10.56.13-15.91,2.22-2.74,3-4.3,4.3-5.22,4.3,3,3-3.13,2.87-4.17,2.87-12.13,8.87,2,2.74,5.22-1.17,4.3.65-12.13,4.82-12.13,4.82-1,2.61,2.22,1.83,5.74-4.56,7.43-2.87-3.26,2.61-7.17,4.43-9.65,7.3,1.7,2.61,1.83,1.18.91,1.7-6.78,1.83-8.87,5.61-1.17,6.78,1.56,5,3-1.43,1.7.91-2,6.52-1,7.43,2.22,2.22,2.74-2.35,2.09-3.78,2.09-1.7,1.43.78,1.83-2.21,2.35-2.48,2.35-.91,1,2.87,1.83-2.48,1.7-5.6,2-3.26,1.82,6.78,2.48-.39,1.7-6.78,2.09-4,1.7,4.43,2.61-2,.65-11.48,2-5.35,2.61-1.18,2.61-3.78,1.83-5.74,1.83-2.09,2,7.3,4,.52,2.22-9.13,2.22-4.43,2.22,1.57,2.48-.13,2.74-14.87,3.91-5.87,2.61,1.43,2.48-.65,2.35-11.47,2.48-2.09,3.13-1.3,3-1.82,1.17-10.43,2.48-2.35,2.61-.52,2.48-1.43,3.13-11.61,2.48-2.35,2.08,2.21,2.08,1,2.09-9.26,2.22-3,2.22-2.74,2.22-2.35.78-.13,1.3-3.26,1.7-.78,1.7.65-2.09,5.34,1.3,3.52,1.3.39,1.43,1.83,6.13-3.65,9.39-4.43,5.21.65.78,1.83-11.87,6-12.91,7.7-1.82,4.57.26,3.65,1.3.78.39,1.43-4,6.39.65,3.13,1.17-2.74,7.82-5.09,1.57,1.3-.52,2.22-9.78,4-12.91,7.83.26,3.39.65,3.13,3.65-4.3,8.21-6.13,4.7-2,4,.13-4.17,1.43-6.52,3.26-6.39,4.17-8.35,7.82-2.09,3.13.39,3.26,6.78-8.08,10.69-8.61,1,2.35.52,2.35a8.32,8.32,0,0,0-5,2.09c-2.48,2-5.48,3.52-6.65,6.26s-1.3.78,2.09.78,2.22-4.43,6.39-5.09,2.74,2.48,1.56,2.74-8.08,2.48-11.34,7.69,2.09,2.48,2.09,2.48a15.61,15.61,0,0,1,6.78-5.74c4.43-1.82,1.43,1.44,1.83,1.57s-7.69,2.48-11.74,8.48,1.57,3.52,2,2.48,3.39-5.61,7-6.52,1.57,2.22.65,3.13-7.43,2-10.3,7.82,2.09,1.82,2.09,1.82,1.83-5.08,6.52-5.74,3.13,0,.39,2.35-7.43,5-7.56,7.82-.65,4.7,2,2.09,6-5.48,6-5.48,3.65.26,0,1.7-8.22,5.87-8.22,7.3-1.7,5.48,2.35,1.17,1.82-.78.91,1-2.48,8.22,1.43,3,.52-5,2.61-3.26,1.43,1.57.78,2.48a19.85,19.85,0,0,0-3,3.78c-2.22,3.39-5,5.48-2.22,5.87s1.44,3.65,1.57,5.09,1.43,2.35,2.74,1.17,1,3.26,1,4.56,1.83.78,1.83.13-.26-5.21,1.17-3.39,2.74,1.3,2.35-.26-3.39-8.48-.52-5.87.52-3.26.26-4-.26-5,1.56-.52,1.83-2.74,1.44-3.65.39-3.78,1.3-.65.52-.78-.26-5.09-2.09-8.87.26-6.78,4.69,2.74,3-.65-4.83-12-2-9,2.61,3,2.35.26-.39-3.91,1.56-2,2.22-2.48,1-3.52-3.13-6.26-1.31-5,1.17-1,.92-2.08,1.3-.91,2.08-.13.13-3.78-.65-4.3-2.61-6.91-.39-4.83,2,1,2.61-.65,1.3-1,.65,1.18-2.22,5.74.26,4.83.39,1.43.13,2.74-.78,4.56,1.57,2.87.65,2.22.39,3.13-2.22,8.61,1.56,2.87,2.74-4.82,1.44-1.43-3,7.57-2.48,8.74,2.74-1.57,5.48-8.35,6.39-8.6,5.22-6.26-4.43,8.08-5.87,12-4.3,13.43-1.17,10.69.91,1.44.65,2.48-1.31,5.22.13,3.26,1.44,1.57,1.3,3.78.78,2.74.26,6,1.7,2.87,2.22,1.83.39,2.22.65,3.13.52,2.87,2,1.82,1.43,1.43,1.43,2.61,1.83-4.18,1.43.26,2.48,7.43,2.61,5.35,2.22-.39,2.87,2.61,2.87,3.78,2.87,1.83-2.22-8,.13-5.35,1.7-.52,1.43-1.56-4.56-5-2.22-4,3.26-.39,2.35-1.57-4.3-4.43-2-4.56,2.61-1.57.78-3.91,1-2,2.48-.91.91-2.22-.65-3.91-3.65-6-.91-5,2-.91,1.57-1.83-6.39-6.91-2-4.69,3.26,1.3,2.35-1.31-6.26-8.35-2.74-7.56,2.74-1.57,1.56-3-3.26-4.43-.13-3.78-1.17-2.35-1-2.87-2.48-3.39.13-3.26,2-.65.91-2.74-2-3.78,1-2.09,1.57-2.09,1-3.39-4.43-4.69-1.17-4.3.91-1.83.78-2.61,3.78,0,2.35-2.48-6.39-6.91-3.39-6.39.26-3.26-.13-4.56-2.09-4.43.13-3.52,3.13,5,4.83,5.22,3.78-.52,3,.65.78,1,2.61-.91,3.26-5.48,3.52-3.65-1,3.91-1.82,5-5.35,6.13-5.35,8.22-.13,2.87,2.87-.91,6.39-5.34,4.43-1.43-5.48,12-1.17,6.78,5.61-4,2,1.17-3.39,8-.13,4.17,7.69-9.65,3.78-1.3-7.43,11-3.13,8.47,4-2.74,2.87-.26-4.43,4.69-4.43,5.35-.78,4.83,3.13.65,3.78-1.43,2.48.65-11.21,13.69-2.61,8,1.56.26,1.56,1-5.22,9.52.65,3.52,2.09,1.43,1,1.69-8.87,11.22-3.52,8.22,6.65-6.13,5.61-2.87-4.56,5.35-5.22,6.26-4.56,8-.39,5.08,6.52-6.78,5.22-3.39-5.22,7.43-2.22,6.91.26,1.83-.39,3.26-1,3.91.78,3.13,1.3,2,1.3,3.13,2.09,2,2.61-.26-.65-2.09,2-1.7-.39-1.83-.13-3.52,2.61-.65,3.52.13,2.61,2.61,3.65.91-2.35-7.56-4.3-9.78-1.83-6.78-.26-5a31.39,31.39,0,0,1,4.3,7.7c.26,1.17,2,0,1.17-2.87s-2-6-3.65-7.56-3.26-5.61-1.17-4.17,5.22,9.52,5.22,9.52,3.26,5.35,2.61-.78-6.26-10.82-6.91-11.73-2.61-4-.65-3.91,6,8.6,6,8.6,2.35.78.39-4.56-6-6.91-6.52-7.83-1.57-6.26.91-3.26,5.35,6.78,5.87,9.65,2.22-.52,1.3-2.35-2.87-7.69-6.52-10.82-2.09-4.56-.26-2.61,8.48,14,8.09,8-6.65-10.82-7.83-12.13-1.43-4.56.65-2.08,7.17,9.39,5.74,4.17-7.82-9-7.82-9-2.22-3.52.39-2.35,12.91,15.91,9.78,6.91-4-4.56-4.56-6.52,2.74-1.3,2.74-1.3a17.52,17.52,0,0,0-4-4c-2.22-1.43-1.7-2.48-.13-1.83s3.52.13,1.17-2.48-4.43-7.3-1-3.78,6.13,3.52,4-.13-5.09-4.7-3.78-6.65-1.83-5.22.91-3.78,1.57,5.35,3.39,4.17,1.7-8.22,2.87-.52,3.13,9.26,3.13,5,2.74.26,2.74,5,2,7.69,2.48,3.65,2-5.61,1.83,0,3.65,5.48,3.52.65,2.87.78,1.83,6.39-.91,14.08,2.35,4.57,2.61-3.91,3.13-.65.65,7.69,2.87,3.39,1.17,4.17,1,6.52,2.74,3,2.74.13,2.87,1,2,5,0,4.43,1.7,4.69,3,6.52,3.13,3.65,1.17-1.17,2.61.52,3-.78,3.13,2,2,.13,1.56-4.43,2.22.26,3.39,1,3.52.65-.52-7.43,1.17-1,2.22-1.7-1.43-3.91-2.35-5.35-1-3.52,1.17-3.91.91-1.43-2.61-3.78-2.09-2.09.26-2.22-.65-2.09-2.87-3.65-5.22-4.3-1.83-5,2.22-2.35-2.48-3.65-8.35-2.22-4.17-3.39,5-1,2.48-1.83-4.83.13-4.56-2.48,1.83-3-1-4-1.57,0-5.48-.52,2.48-.91,3.26-3-1.83-1.3-3-1.43-4.43-1.31-2-2.35-2.61-3.26-4.43-3.26-4.3-1-1.17-2.74-1.7-2.48-3.52-2.48-4.7-.91-1.83-2-2.22-2.09-3.26-2-6.13-.39-1.7-1.7-2.09-2.48-3.78-2.22-3.13-2.87-3.13-2.87-2.22-7.17-.13-5,9.13,9.13,7,5-3.39-7.3-.78-5,5.74,11.48,5.74,6.13-3.65-8.48.39-4.83,4,11,5.48,6.13-.26-6.26,2.48-2.48,1.7,1.17,2.09-.78,1.17-.52,1.7,2,3.78,6.26,3.13.13,1.43-2.22,2.35,0,2.35,6.52,3.26,2,3.13,1,3.52,3.26,3.26,5,2.61-.13,2.74.52,2.74,2.74,3.39,3.91,2.48-1.43,2.09-3.65,3.26,1.17,3.39,7.43,3.39,2.22,2.22-1.17,3.26,2.08,4.43,10.83,4,2.22.26-4.43,1.83-1,3.65,8.08,3.65,2.48,2.35-.91,2.74,2,1.83,8.6,2.48,2.87,1.7-1,2.48.91,4.43,2.35,4.43.65-.52-2.61,1.83-2.09,1-4,.26-3.39-.91-2.74,1.69-2.22-.13-3.65-1.17-3.65,0-1.57-2.87-2.35-1.57-2.22-1.3-3,.39-1.44-1.83-2-.78-1.83-.52-2.74-.39-1.69-2.87-.91-7.3-.26-3.52-1.7,3.26-3.13.52-3.26-4.43.13-2.61-1.7-1.83-2.87-4.7-2.35-9.78,2.48-6.26.52,3.91-4.3,1.17-3.91-10.82,2-7.57.52,5-5,1.7-4.57-9.52,2.61-6.26.13,3.52-4.43.26-4.3-7.69,3-6.52,1.57-.78-3-3-2.48-4.69-1-.13-2.22-1.56-1.3-6.13-.39-9.13,1.17-4-1.17-.78-2.74-3.65-1.56-7.83,3.26-4.69.52-2.87-1-4.56-.26-6,.39-3.39-1-1.57-2.35-2.61-.78S311.92,98.08,314,97s-2.22-.13-4.43,1.3-5.87,2-5,.52-3.52.26-5.48,1.82-5.48-2.74-3.52-3.26.78-2.22-1.3-3,.52-2.09,3.39.78,1.3-2.74.65-3.26-4-3.39.65-2.61,5.74,1.43,4.17-1-2-3.13,1.83-1.69,6.91.26,5.09-1.56-.65-2.61,1.69-1.44,3.26,1.3,2.09-.91-.39-3.26,2.48.13,6.78,1.56,4.17-.78-1.56-3.26,1-1.3,4.56.91,2.48-1.3-1-4.3,2.35-1.31,5.09,1.31,2.74-.65.26-3.39,3,.91,4.3,2.09,3.39.13-.13-3.52,2,.13,4.43.65,3.26-.78,1-3.13,3.13.65,4.83,2.61,3.13-.13.91-3.39,2.61,0,5.22,3.65,4.3,1.17,1.83-1.57,2.35-.52,4.82,2,3-.78,1.7-1.57,2.87.91,3.78,3,3.13.91,2,.65,3,2.22,3.65,1.3,3.26,0S375,83.74,374,78.91s-2-3.65-1.3-4.83-1.17-1.18-1.83-1.44-2.22-1.43-.91-2.09-1.3-2.74-3.52-2-8.61.65-3.13-1.57,1.3-2.74.26-2.74,3.65-3.39-3.78-2.09-4.43-.13-2.22-1,.91-3.65-7.69.91-12.39,4-5.35.39,11.74-7.17,1.44-3.65-4.56-.26-3-1,6.65-5.48-3.52-.78-9.78,4.43-5.48,1.44,3.91-7.56-4.3.26-10.82,9.91-9,6.91,12.26-12.91,3.13-8.22S314.54,73.83,313,67s3.91-5.48,6.26-7.82-1.44-2.87-4.17-.13-4.7,3-4.7,9-3.52,2.09-2.74.91.26-8,4.7-11.74-5,1-5.22,1.83-4,5.22-3.78,2.48-1-.52-3.13.39-6.91,1.43-5.48.26,4-3.65,6.91-3.39,1.69-2.22-1-1.83-6.26-1.56-2.22-2,8.35-2.48,6.13-3.39-1.57-1.44,1.3-2,6.91-2.87,3.26-3.26-4.69-2.61-.52-2.61S317.14,42,315.06,41s-.78-1.31,1.43-1.18,1.83-1.69-.78-2.48.78-2.09,4.3-2.09,6.13-1.69,4.43-2.21-1-2,1.69-1.3,8.35-.91,5.87-1.44-1.57-2.61,1.17-2.61,5-.13,3.78-1.43.52-1,3.26-1.3,9.78-.65,7.17-1.43-5.48-2.74-3.52-3.13-1.83-2.22-3.52-2.74-3.65-1.57-3.52-2.35-1.7-.78-3,.26-3.52.91-3.39-.26,0-1-1.83,0-3.65,1.57-3.26.26-2.22,0-3.26,1-2.87,3.52-2.87,2-3.13-3.39-3.26-1.3-2.35,7.17-2.35,5.48-.78-5.61-2.61-3.13-.39,7.3-2.09,6.78-.26-2.87-.13-4.7-2.61-4.56-3.78.65,2,11.34.13,9.91-2.22-2.87-2.09-6.26-2.22-1.83-2.48.91.65,10.82-.39,6.65-1.17-12.26-3.26-6.91,1.57,15.39,0,12.91-2.22-3.65-2.22-6.52-2.22-2.48-2.87,0,0,14.34-.52,12.26,0-4.69-1.17-7-2.09,4.17-2.09,3,2.09,7.83.91,6.65-2.74,2.22-3.78-3.65-1.43.26-2.61,1.44-2.48-1.57-3.65,4.3-2.22,7.82-3.52,5.87-2.87.52-2.87,2.74-2.35,3.91-2.61,2.35-3-.78-3.13-2.74-1.7-1-2.35,2.35-2.61,1.83-1.43-3.65,1.56-9.52,0-7.82-1.7-1.3-1.56-3.26.13-5.09-.52-4.31-2.09,1.83-1.43-2.48-.78-5.74-2-1,.13,11.61-1.43,13S253,52.7,254,49.83s3.13-8.48,2.87-14.86-2.09-8.22-2.35-4S256,42,253.24,44.1s-3.13,1.17-2.48-1.17,3-5.35,2.09-11.22-3.52-8.87-3.65-4.69,1.7,9.91-.39,10.69-2.09-.52-1.17-2.87,1.57-9.52,1.17-12.91-2.87-4.43-3.13-1.7-.52-3-.26-5.21-2.09-7-2.35-3.39S241,14.49,241,11.49s.13-10.43-1-6.52-2.48,4.56-2.74,2.61-.26-6.91-1.3-5.74-2.74,1-3.13-.65-.65-1.56-1,.26-2.35-.39-2.61-.53h0Z" style="fill:#00a650"/><path d="M76.64,266c4.54,16.14,11.06,21.9,18.31,30.92C91.22,308.58,60.16,333.4,46,355.44c-6-15.12-11.8-15.46-18.24-30.31C43.95,295.42,63,287.76,76.64,266Z" style="fill:#496e6e"/><path d="M454.36,266c-4.54,16.14-11.05,21.9-18.31,30.92,3.73,11.66,34.79,36.49,48.9,58.52,6-15.12,11.8-15.46,18.24-30.31-16.14-29.7-35.2-37.37-48.83-59.14Z" style="fill:#496e6e"/><path d="M53.86,304.25c3.39-3.65,8.74-6.91,13.82-1.3,3.39,6.13.65,12.26-2.35,16.56.39-3.13,1-8.87-1.18-12.39-3.91-4-5.22-2.87-10.3-2.87Z" style="fill:#fff"/><path d="M477.14,304.25c-3.39-3.65-8.74-6.91-13.82-1.3-3.39,6.13-.65,12.26,2.35,16.56-.39-3.13-1-8.87,1.17-12.39,3.91-4,5.22-2.87,10.3-2.87Z" style="fill:#fff"/><path d="M87.6,220,265.5,535.6v23.35L82,223.34A15.69,15.69,0,0,0,87.6,220Z" style="fill:#573f2f"/><path d="M443.4,220,265.5,535.6v23.35L449,223.34A15.69,15.69,0,0,1,443.4,220Z" style="fill:#573f2f"/><path d="M79.37,212.73c-4.26,2.53-6.49,6.68-5,9.25s6.24,2.59,10.5.06,6.49-6.68,5-9.25-6.24-2.59-10.5-.06h0Z" style="fill:#573f2f"/><path d="M451.63,212.73c4.26,2.53,6.5,6.68,5,9.25s-6.24,2.59-10.5.06-6.5-6.68-5-9.25,6.24-2.59,10.5-.06h0Z" style="fill:#573f2f"/><path d="M262.89,237c-.78,109.28-3.78,205.89-4.69,315.17-4.69,17.34-13.3,28.56-29.08,29.47-2.61,0-3.91,1.17-3.65,3.52v6.26c-.13,3,.78,4.3,3.13,3.91,12.65-1.31,24.25,4,36.9,4.43,12.65-.39,24.25-5.74,36.9-4.43,2.35.39,3.26-.91,3.13-3.91v-6.26c.26-2.35-1-3.52-3.65-3.52-15.78-.91-24.39-12.13-29.08-29.47-.91-109.28-3.52-205.9-4.3-315.17Z" style="fill:#573f2f"/><path d="M229.12.93s-1.3.52-.91,2.61-3.13.52-3.13-.13-1,.78-.65,1.17,1.57.91,2.09,1.83-.13,2.61-.65,2.09-2.22-.65-2-.13,1.57.65,2.61,2.48-.13,2-.13,2-1.56-.52-1.56.26A2.23,2.23,0,0,0,226,15.14c.91.52,2.87,2.09,3.91,2.09s.65,1.43.65,1.43-2-.91-2.35.39a2.46,2.46,0,0,0,.91,2.35s3.26,2.35,4.56,2.61,2.09,2,1.3,2.09a19.6,19.6,0,0,1-3.91.13c-.78-.13-1.7,1.43-.91,2.09a17.77,17.77,0,0,0,5.48,2.09c2.22.52,1.83,1.43,1.3,1.69s-3.91.65-4.7,0-2.74.78-.91,1.83,5.22.52,5,2.61-2,1.3-2.74,1.43-1.83,1.3-.39,2.09,4.17,2.35,5.61,2.35,1.83,2.22,1,2.22-3.78-.26-3.91-.52-2.74,0-.13,2,1,1.17,3.52,2.09,0,2.35-.39,2.22-2.22,1.3-.52,1.82,3,1.3,2.48,1.83-2.09,2-.26,2.35,4.56.79,3.52,2.22.39.65,2.22,1.3.13,2.09-.52,2-4.83-2.22-5.22-1,.26,1.57.26,1.57a12.29,12.29,0,0,1,4.3,1.57c1.3,1,1.57,2,0,2s-2.22-1.56-3.13-.65,1,2.35.39,4.17-1.83.65-1.83-1.83a6.94,6.94,0,0,0-2.09-4.43s-.78,2-.78-1.18-1.83-1.57-1.83-.52,1.17,2.87.26,3.26-3.39-3.65-3.39-5.09a1.05,1.05,0,1,0-2.09,0,19.76,19.76,0,0,0,2.35,7.7c1.3,2.22,3.65,5.09,2.48,5.74s-2.22.78-2.22-.39-4.43-11.6-6.65-14.21-2.35-2.48-2.35-.78,4,6.39,3.13,9.13-1.83,0-2,0-2.09-7.82-6-12.91-3.91-1.7-2.87-.39,5.09,6.39,4.56,9.65-1.56,1.82-1.83.26S215.42,51.92,210.73,48s-3.91-.13-2.87.52,6,5.74,6.13,10.3-1.44,1.56-1.83.65-2.22-8.61-7.69-13.17-2.61,1.17-2.61.39S207.6,52,207.6,56s-1.69,2.48-1.82,1.7S203.3,50,199,47.09s-4-3.65-5.61-3.13-2.48.13-3-.79-5-2.48-3.26.79-2.61-.65-2.74-.79-5.48-2.6-3.65,0,8.61,3.91,8.61,7.17,1.17,3.65-1.17,2.09-3.65-6.52-9.13-8.22,0,3-.13,2.35S183.48,49.31,181,50s-2.87-1.7-3.65-2.87-3.91-3.91-4.69-2.74.91,1.69-.26,1.69-4.43-1.17-4.3,1-1,.91-1.83.91-2.09.39-2,1.18-2.48,0-2.48.91,1.3,1.3,2.09,1.43,1.43.65,0,2-.91,3.65.78,3,3.13-1.7,4.69-1.7,2-.39,1.17.78-1.7,2.61,0,2.61,6.39-4,7.43-2.48,1,2-.26,3-.13,2.22,2,2,5.35-2.35,7.17-1.3.52,1.3-.39,1.83-2.09,2-.52,2,2.87-.52,5.61-.39,1.57-1.57,3-.26,2.35,1.3.52,2.09-2.48,2.74-.26,2.61,4.56-1.82,7.43-1.43,3,.65,1.82,1.82-3,1-3,2.35,2,1.3,2.74,1,3-1.3,4-1.3,2.09.13,1.17,1.17-1.57.52-2.22,1.57-.65,1.43,1.31,1.57,5.08-.26,5.61,0,3.13.26,1.83.78-4.3,2.09-2.61,2.48a15.53,15.53,0,0,0,5.61.52c2.09-.26,4,1,2.87,1.43s-2.61,1.57.13,1.57,4.43,0,4.43,1-1.69.39-2.48,2.09,5.35,6.91,8.35,11.61,2.74,1.17,1.7,3-3.13,1.17-3.78-.39-2.09-4.3-6-8.08-3.65-4.17-4.17-4.17-1.57,1,.13,3,5.87,4.83,6.65,8.22-2.48,1.69-2.61.91a25.14,25.14,0,0,0-7.17-10.3c-5-4.43-9.39-4.56-7.57-2.48s8.35,5.48,9.13,9.78-2.48,1.83-2.61,1-2.87-6.13-7.56-9.39-7.69-2.87-6.39-.65-.78,1.44-1.17,1-3.78-2.74-4.69-2.22-1.56.65-.78,2.09-1.31.52-3.13-.13-4-1.43-4,.26-3-.52-3.78-.65-6.78-1.56-6.78-.39,2.48,2.74,0,2.87-5.22.52-3.91,2,4.83-.52,8.61,4.56-1.43,2-1.56,2-2-2.74-4.43-3.78-5.09-2.35-7.69-2.61-4.82,1.17-2.48,2.22,7.3,1.31,9.91,4.43-3.26.91-3.78-.13-7-2.22-7-2.22-9.91-.13-3,2.35,10.43,5,4,3.13-16.43-1.56-11.87.39-1.83.79-2.87.91-4,1-2,3.78-2.87.52-.26,1.57-3.39,2.22.91,2.48-6.39,2.48-3.78,2.74-4.43,4.83.78,3.65.52.39,2.48,1.43,2.09-2.6,2.87-2.74,3-4.17,3-1.17-1.3,4.83,2.61.65,3-1.3,2.74.13,0,3,1.44,2.09.65,3.26,2.22,1.17,1.3-4.83,3.13-6,3.65-2.48,2.48.52-.65,5.87,2.22,1.7,4-5.09,3.39-2.61-.26,4.69,1.82,1.69,3.91-3.78,2.74-1.17.78,1.3,2,.78,1.83-.65,1.44,1,3.26-4.17,4.3-5.35,4.56-4.56,1.57,1.56,2.22,1.3,2.22,1.3,8.48-8.21,5.35-2.48-1.56,6.26.91,4.43,5.61-7.82,3.78-3-1.17,5.87,1.83,2.74,9.39-10.83,7-3.91,2.61,1.43,3.39.52,4.83-3,1.7,1,2.61,1.56,3.78.65,5.35-4.69,2.35.26-1,3.26,2.22,1.57,3.65,0,2.09,2.09-3-.52-1.56,3.13-2,1.7-3.39,2,1.3,1.7-2,2.35-12.91.91-7.43,3.52-1.43.52-2.22,1.3-4.43,1.3-2.35,2.22-2.35,1.56-3.26,1.43-11.08,1.83-5.61,2.48,16.56-2.22,17.34.65-5.35,1-7,1-24.39,1.43-14.74,2.48,10.69-.13,11.74.78-5,1.3-6.78,1.3-14.86,1.83-9.52,2.35,4.83,1,1.3,1.83-9.52,2.87-2.74,3.13,15.39.52,7.17,2-8.48-.65-13.17.91-7.17,2.61,7,2.74,2,1,2.35,1.56-10.56.13-15.91,2.22-2.74,3-4.3,4.3-5.22,4.3,3,3-3.13,2.87-4.17,2.87-12.13,8.87,2,2.74,5.22-1.17,4.3.65-12.13,4.82-12.13,4.82-1,2.61,2.22,1.83,5.74-4.56,7.43-2.87-3.26,2.61-7.17,4.43-9.65,7.3,1.7,2.61,1.83,1.18.91,1.7-6.78,1.83-8.87,5.61-1.17,6.78,1.56,5,3-1.43,1.7.91-2,6.52-1,7.43,2.22,2.22,2.74-2.35,2.09-3.78,2.09-1.7,1.43.78,1.83-2.21,2.35-2.48,2.35-.91,1,2.87,1.83-2.48,1.7-5.6,2-3.26,1.82,6.78,2.48-.39,1.7-6.78,2.09-4,1.7,4.43,2.61-2,.65-11.48,2-5.35,2.61-1.18,2.61-3.78,1.83-5.74,1.83-2.09,2,7.3,4,.52,2.22-9.13,2.22-4.43,2.22,1.57,2.48-.13,2.74-14.87,3.91-5.87,2.61,1.43,2.48-.65,2.35-11.47,2.48-2.09,3.13-1.3,3-1.82,1.17-10.43,2.48-2.35,2.61-.52,2.48-1.43,3.13-11.61,2.48-2.35,2.08,2.21,2.08,1,2.09-9.26,2.22-3,2.22-2.74,2.22-2.35.78-.13,1.3-3.26,1.7-.78,1.7.65-2.09,5.34,1.3,3.52,1.3.39,1.43,1.83,6.13-3.65,9.39-4.43,5.21.65.78,1.83-11.87,6-12.91,7.7-1.82,4.57.26,3.65,1.3.78.39,1.43-4,6.39.65,3.13,1.17-2.74,7.82-5.09,1.57,1.3-.52,2.22-9.78,4-12.91,7.83.26,3.39.65,3.13,3.65-4.3,8.21-6.13,4.7-2,4,.13-4.17,1.43-6.52,3.26-6.39,4.17-8.35,7.82-2.09,3.13.39,3.26,6.78-8.08,10.69-8.61,1,2.35.52,2.35a8.32,8.32,0,0,0-5,2.09c-2.48,2-5.48,3.52-6.65,6.26s-1.3.78,2.09.78,2.22-4.43,6.39-5.09,2.74,2.48,1.56,2.74-8.08,2.48-11.34,7.69,2.09,2.48,2.09,2.48a15.61,15.61,0,0,1,6.78-5.74c4.43-1.82,1.43,1.44,1.83,1.57s-7.69,2.48-11.74,8.48,1.57,3.52,2,2.48,3.39-5.61,7-6.52,1.57,2.22.65,3.13-7.43,2-10.3,7.82,2.09,1.82,2.09,1.82,1.83-5.08,6.52-5.74,3.13,0,.39,2.35-7.43,5-7.56,7.82-.65,4.7,2,2.09,6-5.48,6-5.48,3.65.26,0,1.7-8.22,5.87-8.22,7.3-1.7,5.48,2.35,1.17,1.82-.78.91,1-2.48,8.22,1.43,3,.52-5,2.61-3.26,1.43,1.57.78,2.48a19.85,19.85,0,0,0-3,3.78c-2.22,3.39-5,5.48-2.22,5.87s1.44,3.65,1.57,5.09,1.43,2.35,2.74,1.17,1,3.26,1,4.56,1.83.78,1.83.13-.26-5.21,1.17-3.39,2.74,1.3,2.35-.26-3.39-8.48-.52-5.87.52-3.26.26-4-.26-5,1.56-.52,1.83-2.74,1.44-3.65.39-3.78,1.3-.65.52-.78-.26-5.09-2.09-8.87.26-6.78,4.69,2.74,3-.65-4.83-12-2-9,2.61,3,2.35.26-.39-3.91,1.56-2,2.22-2.48,1-3.52-3.13-6.26-1.31-5,1.17-1,.92-2.08,1.3-.91,2.08-.13.13-3.78-.65-4.3-2.61-6.91-.39-4.83,2,1,2.61-.65,1.3-1,.65,1.18-2.22,5.74.26,4.83.39,1.43.13,2.74-.78,4.56,1.57,2.87.65,2.22.39,3.13-2.22,8.61,1.56,2.87,2.74-4.82,1.44-1.43-3,7.57-2.48,8.74,2.74-1.57,5.48-8.35,6.39-8.6,5.22-6.26-4.43,8.08-5.87,12-4.3,13.43-1.17,10.69.91,1.44.65,2.48-1.31,5.22.13,3.26,1.44,1.57,1.3,3.78.78,2.74.26,6,1.7,2.87,2.22,1.83.39,2.22.65,3.13.52,2.87,2,1.82,1.43,1.43,1.43,2.61,1.83-4.18,1.43.26,2.48,7.43,2.61,5.35,2.22-.39,2.87,2.61,2.87,3.78,2.87,1.83-2.22-8,.13-5.35,1.7-.52,1.43-1.56-4.56-5-2.22-4,3.26-.39,2.35-1.57-4.3-4.43-2-4.56,2.61-1.57.78-3.91,1-2,2.48-.91.91-2.22-.65-3.91-3.65-6-.91-5,2-.91,1.57-1.83-6.39-6.91-2-4.69,3.26,1.3,2.35-1.31-6.26-8.35-2.74-7.56,2.74-1.57,1.56-3-3.26-4.43-.13-3.78-1.17-2.35-1-2.87-2.48-3.39.13-3.26,2-.65.91-2.74-2-3.78,1-2.09,1.57-2.09,1-3.39-4.43-4.69-1.17-4.3.91-1.83.78-2.61,3.78,0,2.35-2.48-6.39-6.91-3.39-6.39.26-3.26-.13-4.56-2.09-4.43.13-3.52,3.13,5,4.83,5.22,3.78-.52,3,.65.78,1,2.61-.91,3.26-5.48,3.52-3.65-1,3.91-1.82,5-5.35,6.13-5.35,8.22-.13,2.87,2.87-.91,6.39-5.34,4.43-1.43-5.48,12-1.17,6.78,5.61-4,2,1.17-3.39,8-.13,4.17,7.69-9.65,3.78-1.3-7.43,11-3.13,8.47,4-2.74,2.87-.26-4.43,4.69-4.43,5.35-.78,4.83,3.13.65,3.78-1.43,2.48.65-11.21,13.69-2.61,8,1.56.26,1.56,1-5.22,9.52.65,3.52,2.09,1.43,1,1.69-8.87,11.22-3.52,8.22,6.65-6.13,5.61-2.87-4.56,5.35-5.22,6.26-4.56,8-.39,5.08,6.52-6.78,5.22-3.39-5.22,7.43-2.22,6.91.26,1.83-.39,3.26-1,3.91.78,3.13,1.3,2,1.3,3.13,2.09,2,2.61-.26-.65-2.09,2-1.7-.39-1.83-.13-3.52,2.61-.65,3.52.13,2.61,2.61,3.65.91-2.35-7.56-4.3-9.78-1.83-6.78-.26-5a31.39,31.39,0,0,1,4.3,7.7c.26,1.17,2,0,1.17-2.87s-2-6-3.65-7.56-3.26-5.61-1.17-4.17,5.22,9.52,5.22,9.52,3.26,5.35,2.61-.78-6.26-10.82-6.91-11.73-2.61-4-.65-3.91,6,8.6,6,8.6,2.35.78.39-4.56-6-6.91-6.52-7.83-1.57-6.26.91-3.26,5.35,6.78,5.87,9.65,2.22-.52,1.3-2.35-2.87-7.69-6.52-10.82-2.09-4.56-.26-2.61,8.48,14,8.09,8-6.65-10.82-7.83-12.13-1.43-4.56.65-2.08,7.17,9.39,5.74,4.17-7.82-9-7.82-9-2.22-3.52.39-2.35,12.91,15.91,9.78,6.91-4-4.56-4.56-6.52,2.74-1.3,2.74-1.3a17.52,17.52,0,0,0-4-4c-2.22-1.43-1.7-2.48-.13-1.83s3.52.13,1.17-2.48-4.43-7.3-1-3.78,6.13,3.52,4-.13-5.09-4.7-3.78-6.65-1.83-5.22.91-3.78,1.57,5.35,3.39,4.17,1.7-8.22,2.87-.52,3.13,9.26,3.13,5,2.74.26,2.74,5,2,7.69,2.48,3.65,2-5.61,1.83,0,3.65,5.48,3.52.65,2.87.78,1.83,6.39-.91,14.08,2.35,4.57,2.61-3.91,3.13-.65.65,7.69,2.87,3.39,1.17,4.17,1,6.52,2.74,3,2.74.13,2.87,1,2,5,0,4.43,1.7,4.69,3,6.52,3.13,3.65,1.17-1.17,2.61.52,3-.78,3.13,2,2,.13,1.56-4.43,2.22.26,3.39,1,3.52.65-.52-7.43,1.17-1,2.22-1.7-1.43-3.91-2.35-5.35-1-3.52,1.17-3.91.91-1.43-2.61-3.78-2.09-2.09.26-2.22-.65-2.09-2.87-3.65-5.22-4.3-1.83-5,2.22-2.35-2.48-3.65-8.35-2.22-4.17-3.39,5-1,2.48-1.83-4.83.13-4.56-2.48,1.83-3-1-4-1.57,0-5.48-.52,2.48-.91,3.26-3-1.83-1.3-3-1.43-4.43-1.31-2-2.35-2.61-3.26-4.43-3.26-4.3-1-1.17-2.74-1.7-2.48-3.52-2.48-4.7-.91-1.83-2-2.22-2.09-3.26-2-6.13-.39-1.7-1.7-2.09-2.48-3.78-2.22-3.13-2.87-3.13-2.87-2.22-7.17-.13-5,9.13,9.13,7,5-3.39-7.3-.78-5,5.74,11.48,5.74,6.13-3.65-8.48.39-4.83,4,11,5.48,6.13-.26-6.26,2.48-2.48,1.7,1.17,2.09-.78,1.17-.52,1.7,2,3.78,6.26,3.13.13,1.43-2.22,2.35,0,2.35,6.52,3.26,2,3.13,1,3.52,3.26,3.26,5,2.61-.13,2.74.52,2.74,2.74,3.39,3.91,2.48-1.43,2.09-3.65,3.26,1.17,3.39,7.43,3.39,2.22,2.22-1.17,3.26,2.08,4.43,10.83,4,2.22.26-4.43,1.83-1,3.65,8.08,3.65,2.48,2.35-.91,2.74,2,1.83,8.6,2.48,2.87,1.7-1,2.48.91,4.43,2.35,4.43.65-.52-2.61,1.83-2.09,1-4,.26-3.39-.91-2.74,1.69-2.22-.13-3.65-1.17-3.65,0-1.57-2.87-2.35-1.57-2.22-1.3-3,.39-1.44-1.83-2-.78-1.83-.52-2.74-.39-1.69-2.87-.91-7.3-.26-3.52-1.7,3.26-3.13.52-3.26-4.43.13-2.61-1.7-1.83-2.87-4.7-2.35-9.78,2.48-6.26.52,3.91-4.3,1.17-3.91-10.82,2-7.57.52,5-5,1.7-4.57-9.52,2.61-6.26.13,3.52-4.43.26-4.3-7.69,3-6.52,1.57-.78-3-3-2.48-4.69-1-.13-2.22-1.56-1.3-6.13-.39-9.13,1.17-4-1.17-.78-2.74-3.65-1.56-7.83,3.26-4.69.52-2.87-1-4.56-.26-6,.39-3.39-1-1.57-2.35-2.61-.78S311.92,98.08,314,97s-2.22-.13-4.43,1.3-5.87,2-5,.52-3.52.26-5.48,1.82-5.48-2.74-3.52-3.26.78-2.22-1.3-3,.52-2.09,3.39.78,1.3-2.74.65-3.26-4-3.39.65-2.61,5.74,1.43,4.17-1-2-3.13,1.83-1.69,6.91.26,5.09-1.56-.65-2.61,1.69-1.44,3.26,1.3,2.09-.91-.39-3.26,2.48.13,6.78,1.56,4.17-.78-1.56-3.26,1-1.3,4.56.91,2.48-1.3-1-4.3,2.35-1.31,5.09,1.31,2.74-.65.26-3.39,3,.91,4.3,2.09,3.39.13-.13-3.52,2,.13,4.43.65,3.26-.78,1-3.13,3.13.65,4.83,2.61,3.13-.13.91-3.39,2.61,0,5.22,3.65,4.3,1.17,1.83-1.57,2.35-.52,4.82,2,3-.78,1.7-1.57,2.87.91,3.78,3,3.13.91,2,.65,3,2.22,3.65,1.3,3.26,0S375,83.74,374,78.91s-2-3.65-1.3-4.83-1.17-1.18-1.83-1.44-2.22-1.43-.91-2.09-1.3-2.74-3.52-2-8.61.65-3.13-1.57,1.3-2.74.26-2.74,3.65-3.39-3.78-2.09-4.43-.13-2.22-1,.91-3.65-7.69.91-12.39,4-5.35.39,11.74-7.17,1.44-3.65-4.56-.26-3-1,6.65-5.48-3.52-.78-9.78,4.43-5.48,1.44,3.91-7.56-4.3.26-10.82,9.91-9,6.91,12.26-12.91,3.13-8.22S314.54,73.83,313,67s3.91-5.48,6.26-7.82-1.44-2.87-4.17-.13-4.7,3-4.7,9-3.52,2.09-2.74.91.26-8,4.7-11.74-5,1-5.22,1.83-4,5.22-3.78,2.48-1-.52-3.13.39-6.91,1.43-5.48.26,4-3.65,6.91-3.39,1.69-2.22-1-1.83-6.26-1.56-2.22-2,8.35-2.48,6.13-3.39-1.57-1.44,1.3-2,6.91-2.87,3.26-3.26-4.69-2.61-.52-2.61S317.14,42,315.06,41s-.78-1.31,1.43-1.18,1.83-1.69-.78-2.48.78-2.09,4.3-2.09,6.13-1.69,4.43-2.21-1-2,1.69-1.3,8.35-.91,5.87-1.44-1.57-2.61,1.17-2.61,5-.13,3.78-1.43.52-1,3.26-1.3,9.78-.65,7.17-1.43-5.48-2.74-3.52-3.13-1.83-2.22-3.52-2.74-3.65-1.57-3.52-2.35-1.7-.78-3,.26-3.52.91-3.39-.26,0-1-1.83,0-3.65,1.57-3.26.26-2.22,0-3.26,1-2.87,3.52-2.87,2-3.13-3.39-3.26-1.3-2.35,7.17-2.35,5.48-.78-5.61-2.61-3.13-.39,7.3-2.09,6.78-.26-2.87-.13-4.7-2.61-4.56-3.78.65,2,11.34.13,9.91-2.22-2.87-2.09-6.26-2.22-1.83-2.48.91.65,10.82-.39,6.65-1.17-12.26-3.26-6.91,1.57,15.39,0,12.91-2.22-3.65-2.22-6.52-2.22-2.48-2.87,0,0,14.34-.52,12.26,0-4.69-1.17-7-2.09,4.17-2.09,3,2.09,7.83.91,6.65-2.74,2.22-3.78-3.65-1.43.26-2.61,1.44-2.48-1.57-3.65,4.3-2.22,7.82-3.52,5.87-2.87.52-2.87,2.74-2.35,3.91-2.61,2.35-3-.78-3.13-2.74-1.7-1-2.35,2.35-2.61,1.83-1.43-3.65,1.56-9.52,0-7.82-1.7-1.3-1.56-3.26.13-5.09-.52-4.31-2.09,1.83-1.43-2.48-.78-5.74-2-1,.13,11.61-1.43,13S253,52.7,254,49.83s3.13-8.48,2.87-14.86-2.09-8.22-2.35-4S256,42,253.24,44.1s-3.13,1.17-2.48-1.17,3-5.35,2.09-11.22-3.52-8.87-3.65-4.69,1.7,9.91-.39,10.69-2.09-.52-1.17-2.87,1.57-9.52,1.17-12.91-2.87-4.43-3.13-1.7-.52-3-.26-5.21-2.09-7-2.35-3.39S241,14.49,241,11.49s.13-10.43-1-6.52-2.48,4.56-2.74,2.61-.26-6.91-1.3-5.74-2.74,1-3.13-.65-.65-1.56-1,.26-2.35-.39-2.61-.53h0Z" style="fill:#007e3a"/><path d="M83,225.08c8.74,31,25.64,55.56,39.59,72.9-7.17,22.43-51.9,60.11-79,102.5C32.08,371.4,12.39,353.41,0,324.85c32.6-54.12,56.78-60.12,83-99.77Z" style="fill:#d21034"/><path d="M448,225.08c-8.74,31-25.64,55.56-39.59,72.9,7.17,22.43,51.9,60.11,79,102.5,11.48-29.08,31.17-47.08,43.56-75.63-32.6-54.12-56.78-60.12-83-99.77Z" style="fill:#d21034"/><path d="M76.64,266c4.54,16.14,11.06,21.9,18.31,30.92C91.22,308.58,60.16,333.4,46,355.44c-6-15.12-11.8-15.46-18.24-30.31C43.95,295.42,63,287.76,76.64,266Z" style="fill:#007e3a"/><path d="M454.36,266c-4.54,16.14-11.05,21.9-18.31,30.92,3.73,11.66,34.79,36.49,48.9,58.52,6-15.12,11.8-15.46,18.24-30.31-16.14-29.7-35.2-37.37-48.83-59.14Z" style="fill:#007e3a"/><path d="M53.86,304.25c3.39-3.65,8.74-6.91,13.82-1.3,3.39,6.13.65,12.26-2.35,16.56.39-3.13,1-8.87-1.18-12.39-3.91-4-5.22-2.87-10.3-2.87Z" style="fill:#fff"/><path d="M477.14,304.25c-3.39-3.65-8.74-6.91-13.82-1.3-3.39,6.13-.65,12.26,2.35,16.56-.39-3.13-1-8.87,1.17-12.39,3.91-4,5.22-2.87,10.3-2.87Z" style="fill:#fff"/><path d="M301.23,262.26c-38.08-20.86-94.28-1.7-114.49,33.51S162.48,381.57,198.08,416s80.2,34.69,115,15.52,48.77-54.38,46.16-80.85c-3.52,29.21-18.39,54.25-47.2,66.37S238.51,427.48,214,396s-28.61-65.9-7.69-98.32,57-49.31,94.93-35.47Z" style="fill:#fec00f"/><path d="M301.23,262.26c-42.05-14.63-78.2,7.66-96,37.29s-15.58,72.75,12.06,100.73,70.38,26.71,95.88,16.67,43.5-36.94,46.14-66.28c-12.23,24-23.33,44.7-47.58,51.64s-60.05,3.53-79.67-21.38-21.49-51.79-9.7-79.45,47.29-45.84,78.91-39.23Z" style="fill:#fec00f"/><path d="M231.9,381.6c-19.28-25.78-21.37-52.46-9.58-80.11s47.1-45.83,78.62-39.27c-38.63-15.73-77.75,6.73-95.44,35.6-16.88,27.54-21.07,65.27,11.29,102.85,2.37,2.76,12.25-21.26,15.11-19.06Z" style="fill:url(#a)"/><path d="M198,415.87c35.6,34,80.46,34.69,115.15,15.65s48.77-54.38,46.16-80.85c-3.52,29.21-18.68,54.76-46.81,66s-74,9.73-98.46-20.6c-1.46-1.81-14,18.56-16,19.82Z" style="fill:url(#b)"/><path d="M260.64,400.9l24.66-65.59L292.87,362Z" style="fill:#fec00f"/><path d="M342,380.22,285.3,335.31l27.71.59Z" style="fill:#fec00f"/><path d="M345.09,295.25l-59.8,40.07L294.69,309Z" style="fill:#fec00f"/><path d="M265.38,264.11l19.92,71.2-22.07-17.38Z" style="fill:#fec00f"/><path d="M215,332.07l70.28,3.24-23.2,15.37Z" style="fill:#fec00f"/><path d="M260.64,400.9l24.66-65.59-23.2,15.37Z" style="fill:url(#c)"/><path d="M342,380.22,285.3,335.31,292.87,362Z" style="fill:url(#d)"/><path d="M345.09,295.25l-59.8,40.07,27.71.59Z" style="fill:url(#e)"/><path d="M265.38,264.11l19.92,71.2L294.69,309Z" style="fill:url(#f)"/><path d="M215,332.07l70.28,3.24-22.07-17.38Z" style="fill:url(#g)"/><path d="M375.31,497.35l-11.62,29.89-19.2,5.18c19.92,5.2,40.38,13,58.7,21.12-4.43-9.78-8.85-20.56-13.15-30.34,9.26-2.87,18.52-5.74,27.91-8.61a242.93,242.93,0,0,0-42.63-17.24Z" style="fill:#c7c4e2"/><path d="M264.19,510.31c33.25.49,66.43,2.77,97.54,12.79L378,481.41c-29.73-9.1-63.9-17.14-113.84-16.9-49.94-.24-84.11,7.8-113.84,16.9l16.3,41.69c31.11-10,64.29-12.29,97.54-12.79Z" style="fill:#c7c4e2"/><path d="M361.35,489.94s-3.91-7.83-3.91-.39-.13,11.47-2,15.13-1.43,7,1.83,3.39,3.52-9.65,3.52-9.65-.52-2.08,1-1.3-.52-6-.52-7.17h0m-13.82,14.22s-2.87,2-.91,4.43,2.87,1,3-.52,0-2.22-.91-2.61-1.57-.65-1.17-1.3h0m2.87-19.82s-2.74-4-3.26,1.83.65,10-1.83,12-15.78.78-16.3-.79-4.7.13-5.22-8.34-2.61-8.61-2.87-9.39-3.78-.78-2.35,2.48,3,6.65,2,11-11.61,7.43-11.35,4.3,5.22-3.13,5-8.34-3-8.35-3.78-8.87-5-1.7-5,1.69.65,7.83,3.13,7.56,4.3-.65,2.61.52-3.13,4-6,5-7,2.74-9.78,2.87.26,2,.39,2,7.56.65,8.74-.26,1.83-2.61,2.22-1.17-.91,2.35.13,2.74,5.48,1.43,7.56.65,4.43-4.3,6.39-4.3,5.09,3.65,6.78,4,10.43,3.39,15.26,2.09,6.52-6.78,6.78-8.09-.39-3.91.78-3.65,2.22-.78,1.83-2.48a39.71,39.71,0,0,0-1.83-5h0m-18.13-3.39s-2.87,6.13,0,6,.52-.26,1.43,2.35,1.17,3.65.91,5,1.3,1.43,1.83-.13,2.22-5.48,2.35-6.65,1.7-2.61,1.83-1.69,2.87.39,2.08-1.7-3-2.61-4.56-.39-1.7,5.22-2.09,3.13-1.17-8-3.78-5.87h0m-133.92,5.87s-1.17,1.57,0,1.57.26-.13.65.52a2.59,2.59,0,0,1,.39,1.44c-.13.39.52.39.65,0a9.08,9.08,0,0,0,1-1.83c0-.26.65-.78.78-.52s1.17.13.78-.39a1.08,1.08,0,0,0-1.83-.13c-.65.65-.78,1.43-.91.91s-.52-2.22-1.57-1.57h0m128.19-6.91s2.61,1.3,2.22,3.65-2.22,1.69-2.08,1-.26-1.7.65-1.83-.78-2.87-.78-2.87h0m-6.39,19.3s2.61,1.3,2.22,3.65-2.22,1.7-2.09,1-.26-1.7.65-1.83-.78-2.87-.78-2.87h0m-7.43-24.25s2.61,1.3,2.22,3.65-2.22,1.7-2.09,1-.26-1.7.65-1.83-.78-2.87-.78-2.87h0m-18,7.3s2.61,1.31,2.22,3.65-2.22,1.7-2.09,1-.26-1.7.65-1.83-.78-2.87-.78-2.87h0m-12.26-8.61s2.61,1.3,2.22,3.65-2.22,1.7-2.09,1-.26-1.7.65-1.83-.78-2.87-.78-2.87h0m-97.67,26.08a6.52,6.52,0,0,0-.52,6.26c1.7,3.13,3.26,1.43,2.87.52s-.65-2.48-1.7-2.35-.65-4.43-.65-4.43h0m66.77-1.31s1.44.65,1.17,2-1.17.91-1,.65-.13-.91.26-1-.39-1.57-.39-1.57h0M236,476.24s2.61,1.31,2.22,3.65-2.22,1.7-2.09,1-.26-1.7.65-1.83-.78-2.87-.78-2.87h0m63.77-2.74s-2.35,1.43-1.17,5.34,2.22,7.43,1.17,9.52-8.48,6-12.26,3.78-2.87-7.3-6.78-3.26-5.35,10.3-7.3,8.61-2.22-.26-2.22-3.26,1.57-.52,2.48-1.3,2.09-2.74.39-2.74a13.62,13.62,0,0,1-5.48-1.82c-1.44-.78-6.52-1.17-2.22-2.35s4.17.91,5.22,1,1.3-.26.78-1.69-2.74-1.7-2.61-4.3-.52-2.35-.52-3.13-.26.39,1.17-.91-.65-1.83-1.3-2.74-2.48-3.52-2.61-2.35-1.3,2.48-.52,5,1.3,4.3.65,5.61-6.65,3.13-7.82,4.43-2.35,3.65-.91,3.91,1,0,3,.26-1.7,1.43-3.78,1.43-7.82.78-8.61-1.82-2.22,0-3-6-1.3-5.35-2.09-10.3-3.52.52-3.65.26,1.7,10,2.09,11.74,1.7,10.56,0,8.34-4.43-8.47-5-9.65-2.48-4.3-2.87-4.44-3.39-.78-2,2.09,5.35,8.08,2.61,10-5.35,2.87-6.39,2.74-2.74-1.18-2.09-3,1.7-5.6,0-4-3,6.78-2.35,8.08,2.74,4.57,6.65,3,5.87-5,6.91-4.3.39,2.47,2.35,3,6.13.52,8.08-1.83,3.39-.26,3.65,0,5.61.52,10.56-2.09,6.52-.91,7.17-.91,1.3,1.44,1.17,4.43,2.61,4.43,3.65,3.91,2.35-4.43,7.17-8.74,2.22-1.43,2.61-.26,4.82,3.91,6.52,3.65,9.91-2.09,9.91-3.13,3.52-2.61,2.48-9.13-2.09-5.48-1.83-6.13,3.26.13-1.17-4.56h0m-24.52-.13s-3.65.91-2.22,3.65,2,10.56,2,9.91.52,6.78,2.74,1.17,0-4-.39-6.52,1.3-1.43.52-4a9.62,9.62,0,0,0-2.61-4.17h0m8.87,8.22-1.3-1.18-1.3,2,1.83,1.56,1.56-1.43,2.74,1.17,1.43-2.09-2.35-2-2.61,2h0m-26.47-7.17-10.17,5.22-.78,2.09,12.13-5.61-1.17-1.7h0m3.13,5.35L250.63,485l-.78,2.09L262,481.46l-1.17-1.7h0m-39.25-3,4,1.43s-.65,4.3-2.48,4.57-4.56,1.43-3.13-1,.26-2.48-.13-1.56-1.57-.52-.65-1.44a23.56,23.56,0,0,1,2.35-2h0m-51.77,7.69,4,1.44s-.65,4.3-2.48,4.56-4.56,1.44-3.13-1,.26-2.48-.13-1.57-1.57-.52-.65-1.43a24.13,24.13,0,0,1,2.35-2h0m95.06,13.17s-3.91.39-2.09,1.83.13,1.43.39,2.35,2.87,3.26,3.65,1.57.78-2.35-.13-2.35a.92.92,0,0,1-.91-1.43c.39-.78-.91-2-.91-2h0m-30.78,2.61s-3.65.91-4,2.09,0,2.09,2.09.91,3.91-3.13,2-3h0m-15.13-1.69-1.17-1.31-1.7,2.48,2.61,2.08,1.7-1.83,1.56,1.31,1-1.83-1.17-1.83-2.09,1.44-.78-.52h0m-40.16-13.3-1.43-1-1.17,2.74,3,1.56,1.3-2.09,1.69.91.65-2-1.44-1.57-1.82,1.83-.78-.39h0m40.43,1.83s.91,2.09.39,3.39-3.13,1.7-3.39.13-3.65-5.6-3.91-7.69-1.56-.26-1.56,1.17a10.92,10.92,0,0,0,1.3,5.09c.78,1,1.17,3.26.13,3.91s-2,1.17-2.74.26-3.91-4.56-4.69-2.61-4,5.22-6.65,5.48-4.3,2-7.82-.65-10.17-6.52-11.35-1.83-1.7,12.78-5.61,9.13-6.52-5.22-4.82-1.56,5.22,7.69,6.78,6.78a10.1,10.1,0,0,0,5.09-6.65c.78-3.78,1.17-8.22,5.21-4.3s4.17,4.69,10.69,3.91,7.3-2.48,8.35-3.65.65-1.3,3.52-.13,6,0,6.39-1.83,2.22-1.57,2.22-.78,3.78,1.56,4.83-.52a5.2,5.2,0,0,0-2.35-7h0m-20-8.08-11.61,7.17.39,2.09L201,481.07l.13-2.61-1.82.52h0m12.52,21.25-1.18,1.83,2.35,1.44.78-2.61-2-.65Z"/><path d="M375.31,497.35l-11.62,29.89-19.2,5.18c19.92,5.2,40.38,13,58.7,21.12-4.43-9.78-8.85-20.56-13.15-30.34,9.26-2.87,18.52-5.74,27.91-8.61a242.91,242.91,0,0,0-42.63-17.24h0M264.19,513.28c-25.17.54-52.12,1.44-78,7.72l4.71,12.83c-24.59,5.75-48.51,15.2-71.33,25.59,4.63-11,9.65-23.38,14.45-34.2-8.71-3.09-19.71-6.44-31.18-9.44a217,217,0,0,1,49.08-21l-5.65-15.1c39-12.91,78.11-18.13,117.88-18.13s78.89,5.22,117.88,18.13l-5.65,15.1a217,217,0,0,1,49.08,21c-11.48,3-22.47,6.35-31.18,9.44,4.8,10.82,9.82,23.25,14.45,34.2C386,549,362.05,539.58,337.46,533.83L342.17,521c-25.86-6.28-52.81-7.18-78-7.72h0M153.08,497.35l11.62,29.89,19.2,5.18c-19.92,5.2-40.38,13-58.7,21.12,4.43-9.78,8.85-20.56,13.15-30.34-9.26-2.87-18.52-5.74-27.91-8.61a243,243,0,0,1,42.63-17.24h0m111.12,13c33.25.49,66.43,2.77,97.54,12.78L378,481.41c-29.73-9.1-63.9-17.13-113.84-16.9-49.94-.24-84.11,7.8-113.84,16.9l16.3,41.68c31.11-10,64.29-12.29,97.54-12.78Z"/><path d="M153.08,497.35l11.62,29.89,19.2,5.18c-19.92,5.2-40.38,13-58.7,21.12,4.43-9.78,8.85-20.56,13.15-30.34-9.26-2.87-18.52-5.74-27.91-8.61a243,243,0,0,1,42.63-17.24Z" style="fill:#c7c4e2"/></svg>