<svg xmlns="http://www.w3.org/2000/svg" viewBox="0 0 538.58 621.17"><title>Montenegro</title><path d="M314.71,157.7c-6.51,3.59-10.22,2.79-10,5.46s6.1,4.66,6.1,4.66-6,6.39-10.62,9.32a55,55,0,0,1-10.09,4.79s-1.85.27-.79,3.2a10.89,10.89,0,0,0,4.38,5.72,15.66,15.66,0,0,0,2.26,1.06s-8.1,8.65-11.68,11.44a30.55,30.55,0,0,1-8.49,4.93c-2.92,1.2-1.46,6-.8,8.12s3.18,5.05,4.65,5.45,2,1.46.13,4.39c-1.39,2.18-6,8-8.23,11.2l-.13.07c-2.2-3.18-6.89-9.07-8.29-11.27-1.86-2.93-1.33-4,.13-4.39s4-3.33,4.65-5.45,2.12-6.92-.8-8.12a30.54,30.54,0,0,1-8.49-4.93C255.06,200.55,247,191.9,247,191.9a15.65,15.65,0,0,0,2.25-1.06,10.82,10.82,0,0,0,4.38-5.72c1.06-2.93-.8-3.2-.8-3.2a55.15,55.15,0,0,1-10.09-4.79c-4.64-2.93-10.61-9.32-10.61-9.32s5.84-2,6.1-4.66-3.45-1.86-10-5.46-8.62-8.12-8.62-8.12a21.35,21.35,0,0,0,11.28-10.12,14,14,0,0,0,1.49-7.19l.29.1c12.08,3.93,26.2,5.51,38.82,5.51s26.71-1.58,38.77-5.51l.29-.1a14,14,0,0,0,1.49,7.19,21.35,21.35,0,0,0,11.29,10.12s-2.12,4.52-8.62,8.12Zm-88-63.42c-1.89,1.58-5.28.64-7.88-.39a52.4,52.4,0,0,0-5.36-1.74,9.38,9.38,0,0,0,1.34-1.89c.71-1.26.71-3.4.16-7s-1.11-7.35-.55-9.4.47-4.27,4.17-8.46,9.93-7.11,9.93-7.11-.79,1.34-2.29,4.18-5,10.59-4.49,18.18,5,8.84,6.14,9.88.71,2.13-1.18,3.71Zm23.81-36.7c6.6-6,11.2-7,11.2-7-.3,6.68-1.51,12-2.43,18.19-1.08,7.38-.5,10.82.92,14.42s5.27,5.79,5.27,5.79a10.72,10.72,0,0,0-3.18,1.18c-1.92,1-3.93,2.52-7.27,2.68s-4.85-.76-7-2.27a27.9,27.9,0,0,0-4.6-2.51,13.13,13.13,0,0,0,.83-5.54c-.25-2.93-1.84-6.62-1.84-9.64s1.5-9.23,8.11-15.26Zm32.19,25.57c1.42-3.6,2-7,.92-14.42-.91-6.2-2.12-11.51-2.42-18.19,0,0,4.6,1,11.2,7s8.11,12.24,8.11,15.26-1.59,6.71-1.84,9.64a13.17,13.17,0,0,0,.84,5.54,28,28,0,0,0-4.59,2.51c-2.17,1.51-3.68,2.43-7,2.27s-5.36-1.68-7.28-2.68a10.62,10.62,0,0,0-3.17-1.17s3.84-2.18,5.26-5.79Zm33.94-20.63c-1.49-2.84-2.28-4.18-2.28-4.18s6.22,2.92,9.93,7.11,3.62,6.4,4.17,8.46,0,5.84-.55,9.4-.55,5.69.16,7a9.34,9.34,0,0,0,1.34,1.89,52.19,52.19,0,0,0-5.36,1.74c-2.6,1-6,2-7.87.39s-2.36-2.69-1.18-3.71,5.59-2.29,6.14-9.87-3-15.33-4.49-18.18ZM183.42,419.87c-3.06,5.73-11.4,11.72-17.52,14.37s-12.79,3.49-15.57,3.9-.42,3.77-.42,3.77l2.92,4.19s-.41,1.25-4.87,2.51-9.87,2.23-14.46,3.48,1.25,5,3.89,6.42,1.95,2.93.55,4.32a33.63,33.63,0,0,1-9.18,5.16c-2.64.84-2.23,2.24.41,3.35s9.88,2.5,9.88,2.5-.14.28-4.59,3.63-12.24,5.57-17.38,5.86a231.67,231.67,0,0,1-23.59.14c-10.31-.47-11.5-.71-11.5-.71s-.36-3.44-1.07-8.54a43.18,43.18,0,0,0-6.16-15.65c-2.37-3.32-7.35-10-7.35-10a27.13,27.13,0,0,1,.47-3.08c.35-1.66.11-3.44-1.09-6.57s-7.23-7.71-7.23-7.71-.24-3.37-.24-6.51-2.17-15.42-4.1-21.21-11.32-21-15.66-28.2-6.91-17.95-8.23-26.27-.79-11-.35-13.23a10.86,10.86,0,0,1,1-2.61,25.74,25.74,0,0,0,7,6.27c12.62,7.71,37.71,8.43,37.71,8.43s-2.78.8-11.75.88-21-2.86-21-2.86a7.28,7.28,0,0,0-.32,2.79c0,2.15.56,11.29,13.74,18s27.71,2.07,27.71,2.07a17.42,17.42,0,0,1-4.92,2.39c-3.73,1.35-13.9,3.5-13.9,3.5,0,8.11,7.07,12.54,12.54,14.39,9.37,3.18,20,1,25.49-.16s2.38.71-2.78,2.94S89,394.45,89,394.45c1.13,5.91,12.77,11,17.15,11.93,11.12,2.38,19.29.88,22.63-.39s2.7.23,1.66,1.27c-2,2-5.35,2.49-5.35,5.66,0,.9-.08,4.14,16.44,5.21s22-8.09,24.86-10.79,2.7-1.26,2-.18-3.59,4.32-6.11,7.91-1.26,7,9.7,6.66c8.07-.26,13.41-8.82,15.66-13.31l.15.21.45.59a102.87,102.87,0,0,1-4.78,10.66Zm-154-90.16-5.06,2.89s-2-4.12-2.54-5.34-.26-1.75.43-1.75,2.8-.61,4.46-.79a6.43,6.43,0,0,0,.65-.11,32.36,32.36,0,0,0,2.24,5l-.18.09Zm451.66-28.86c5.64-1.59,25.25-7.32,39.06-18.53s16.51-20.2,17.63-25,1.59-8.66-2-5.88-14.29,11.21-21.59,15.27a80.74,80.74,0,0,1-18,7.08c-4,1.11-7.15,1.82-3.33.31s16.27-5.89,25.88-15.5,17.2-24,17.35-32.89-.47-8.22-3.32-6-13,14.7-18.65,19.44a181.58,181.58,0,0,1-19.44,13.75c-4.59,2.69-11.07,5.69-2.06-.48s26.08-20.7,33-39.52,5.68-29.87,5.53-31.77-1.74-5.69-3.32-2.21-13,26.24-22.13,36-7,7.91-9,9.49-5.54,4.43-1.11-1.11,13.59-18.34,18.34-31a103.15,103.15,0,0,0,6.16-32.56c.16-7.27-3-17.38-4.42-20.38s-2.84-5.22-3.32-1.75-7.74,25.93-11.69,36.83-11.85,23.24-13.44,25.61-5.69,7.27-1.26-.95,13-32.4,14.07-55.32-2.05-35.57-5.22-41.89-5.9-8.57-5.9-8.57.54,15.65-4.12,38.12-11.5,34.35-11.5,34.35-2.87,3.24-.9-2.16c1.33-3.62,4.07-11.61,5.33-25.15,1.32-14.2,1.48-30.36-2.67-44.11-4.52-15-12.35-22.64-12.35-22.64-2.18,21.49-1.75,49.18-9.62,71.63-1.48-1.32-3.43-3.75-4.2,1.21a126.66,126.66,0,0,1-14,38.85c-9.7,17.62-13.65,20-13.65,20s-1.79-4.32-3.05-6.65-2-3.6-3.59-.36a123.86,123.86,0,0,1-18.86,29.31c-11.85,13.67-18.49,20.32-18.13,30.57s5.75,15.47,12.93,20.14,8.45,7.19,7.37,12.77-7.55,7.55-13.11,7.74-12.57-.36-15.09,1.08-2.69,5-5.21,7.55-3.59,4-5.93,4.32c-.82.13-1.49.2-2,.26-.52-27,10-39.09,10-39.09l-29.29-34.4q-2.27,1.11-4.54,2.1a8.19,8.19,0,0,0-.86-1.3c-3.9-5-5.17-9.2-5.17-15.57,1.46.14,4.38,1.2,7,.66s.66-3.19-.13-5.72-1.59-11.31-1.06-14.65.79-4.66.79-4.66,4.25,4.66,6.9,4.66,2.39-2.66,2.79-5.59c.6-4.41,2.67-10,6.1-13a19.88,19.88,0,0,0,10,3.2,26.18,26.18,0,0,0,18.18-6.92c5.71-5.45,5.57-6.79,5.57-6.79s10.61,3.73,18.71,4.13,16.72-.94,20.84-9.45-1.2-16.37-2.12-17.7-3.59-2.4-3.59,0,.14,8.79-4.78,12-8.75,3.06-13.4,1.6-11.14-3.33-18.58-2.26c-6.66,1-7.57,1.48-7.68,1.58.35-.36,6.39-6.56,12.32-8.37,6.11-1.86,9.69.66,11.68,3.06s3.71,6.26,5.31.66.66-12-2-16.1-8.36-6.79-14.33-6.12-8.09,1.6-8.09,1.6-3.05-8.65-10.75-10.25c-9.39-1.95-19.74,1.58-27.86,6.12a28.84,28.84,0,0,1-12.87-.4,41.9,41.9,0,0,1-10.95-5.45c.74-2.49,2.2-7.08,2.2-7.08s1.86-.57,3.8-1.3,1.54-1.38,1.78-3-3.65-4.44-3.65-4.44-.56-4.87,5.84-8.2,5.7-2.78,5.7-2.78,3.75.7,5.29-.42,1.53-1.81,1.53-1.81S340,97.67,341,96a7.36,7.36,0,0,0,.47-6.17c-.75-2-1.71-2.37-.66-3.32a8.39,8.39,0,0,0,2.08-4.84c.1-1.62.1-2,.1-2s2.18-.77,2.08-4.09-1.89-4.65-2.94-4.94a7.09,7.09,0,0,0-1.7-.29,11.66,11.66,0,0,0-1.89-4.65,25.08,25.08,0,0,0-2.84-3.8s1.23-.95.57-3.13a5.82,5.82,0,0,0-3.69-4,6.08,6.08,0,0,0-3.12,0s-5-3-7.38-4.27L319.13,49a7,7,0,0,0-.95-3.23,5.44,5.44,0,0,0-3.88-1.62,5.74,5.74,0,0,0-2.18.57s-8.52-2.18-12-2.75-3.7-.85-3.7-.85-7.57-3.61-10.5-4.18a36.68,36.68,0,0,1-3.79-.85s3.06-3.71,3.25-8A11.88,11.88,0,0,0,279.71,18c-1.71-1-2.63-1.18-3.18-1.53l-.06-2.94,5.68.57.47-9.16-5.54.7.85-5.51L266.32,0l.85,5.51-5.58-.38.47,9,5.87-.76-.57,3.41a10.47,10.47,0,0,0-4,1.71A10.8,10.8,0,0,0,258,28.1a17.9,17.9,0,0,0,2.74,8.07s-.76.19-3.69.75-10.51,4.18-10.51,4.18-.19.29-3.69.85-12,2.76-12,2.76a5.72,5.72,0,0,0-2.18-.57,5.43,5.43,0,0,0-3.88,1.62,7,7,0,0,0-.95,3.23l-2.94,1.52c-2.37,1.23-7.38,4.27-7.38,4.27a6.11,6.11,0,0,0-3.13,0,5.82,5.82,0,0,0-3.69,4c-.66,2.18.57,3.13.57,3.13a24.62,24.62,0,0,0-2.84,3.8,11.59,11.59,0,0,0-1.89,4.65,7.15,7.15,0,0,0-1.71.29c-1,.29-2.84,1.61-2.93,4.94S200,79.64,200,79.64s0,.38.09,2a8.41,8.41,0,0,0,2.08,4.84c1,.95.1,1.33-.66,3.32A7.36,7.36,0,0,0,202,96c1,1.71,3.87,2.64,3.87,2.64s0,.7,1.53,1.81,5.29.42,5.29.42-.7-.55,5.7,2.78,5.84,8.2,5.84,8.2-3.89,2.82-3.65,4.44-.16,2.27,1.78,3,3.8,1.3,3.8,1.3,1.46,4.59,2.2,7.08a41.87,41.87,0,0,1-10.95,5.45,28.79,28.79,0,0,1-12.87.4c-8.12-4.54-18.47-8.07-27.86-6.12-7.7,1.6-10.75,10.25-10.75,10.25s-2.12-.93-8.09-1.59-11.68,2-14.34,6.12-3.58,10.52-2,16.1,3.32,1.73,5.31-.66,5.57-4.93,11.68-3.06c5.93,1.81,12,8,12.32,8.37-.12-.1-1-.62-7.68-1.58-7.43-1.07-13.93.8-18.57,2.26s-8.49,1.6-13.4-1.59-4.78-9.59-4.78-12-2.66-1.34-3.58,0-6.24,9.18-2.12,17.7,12.74,9.85,20.83,9.45S160.18,173,160.18,173s-.13,1.34,5.57,6.79a26.18,26.18,0,0,0,18.18,6.92,19.89,19.89,0,0,0,10-3.2c3.43,3.06,5.51,8.63,6.11,13,.39,2.93.13,5.59,2.79,5.59s6.9-4.66,6.9-4.66.27,1.33.79,4.66-.27,12.11-1.06,14.64-2.79,5.19-.13,5.72,5.57-.52,7-.67c0,6.38-1.28,10.6-5.17,15.57a8.8,8.8,0,0,0-.82,1.22q-2.17-.95-4.35-2L176.69,271s10.52,12.11,10,39.29v-.19c-.54,0-1.24-.13-2.13-.27-2.34-.36-3.41-1.8-5.93-4.32s-2.69-6.11-5.2-7.55-9.52-.9-15.09-1.08-12-2.16-13.11-7.73.18-8.09,7.36-12.77,12.57-9.89,12.93-20.14-6.29-16.9-18.14-30.57a124.28,124.28,0,0,1-18.85-29.31c-1.61-3.24-2.34-2-3.59.36s-3.05,6.65-3.05,6.65-3.95-2.34-13.65-20a126.5,126.5,0,0,1-14-38.85c-.78-5-2.73-2.52-4.2-1.21-7.88-22.45-7.45-50.14-9.62-71.63,0,0-7.84,7.66-12.35,22.64-4.14,13.75-4,29.91-2.66,44.11,1.25,13.54,4,21.52,5.32,25.15,2,5.39-.9,2.16-.9,2.16s-6.82-11.87-11.49-34.35-4.13-38.12-4.13-38.12-2.74,2.24-5.9,8.57-6.32,19-5.22,41.89,9.64,47.1,14.07,55.32.32,3.32-1.27.95-9.48-14.7-13.44-25.61S31.17,141.11,30.7,137.63s-1.9-1.27-3.32,1.75S22.8,152.49,23,159.76a103.12,103.12,0,0,0,6.16,32.57C33.86,205,43,217.77,47.46,223.3s.95,2.69-1.11,1.11.16.31-9-9.49-20.55-32.56-22.13-36-3.16.31-3.32,2.21-1.42,13,5.53,31.77,24,33.36,33,39.52,2.52,3.16-2.06.47A180.53,180.53,0,0,1,29,239.11c-5.69-4.74-15.81-17.23-18.65-19.44s-3.48-2.85-3.32,6,7.75,23.27,17.36,32.89,22.07,14,25.88,15.5.64.8-3.34-.31a80.64,80.64,0,0,1-18-7.08c-7.31-4.06-18-12.49-21.6-15.27s-3.09,1-2,5.88,3.81,13.84,17.63,25S56.34,299.27,62,300.86s1.67,1.59,1.67,1.59-2.22-.31-13.66-2.86S21.25,288,16.56,285s-5.4-4.05-4.77,2.15S19,306.66,29.58,312.87s29.62,9.39,34.54,9.62,3.65,1,1.43,1.11a101.68,101.68,0,0,1-16.67-.87c-7.36-.85-18.28-4.42-22-5.68-.41-1.58-.8-3.12-1-4.06-.44-2.36-1.66-2-2.45-1.48a24,24,0,0,1-3.84,2.27c-2.62,1.32-2.71-.26-2.8-1s-.61-4.21-.7-6-1-1.85-2.27-1.32-7.07,3-9.26,3.95-.18,2.71,1,4.81,2.88,5.17,2.88,5.17-5.5,1.49-7.25,1.93S0,323,.42,324.2s3.15,7.36,3.84,9.11a1.45,1.45,0,0,0,2.27.7l5.5-3.24L14,338.13a19.35,19.35,0,0,0-5.32,2.54c-2.78,1.95-2.09,4.46,1.25,5.44s7.23,2.65,11.54,10.46,5.42,21.89,8.06,44.07,16.82,33.47,18.77,34.86.84,2.51.84,2.51A9.84,9.84,0,0,0,48,445.13a10.7,10.7,0,0,0,6.53,7.53,2.16,2.16,0,0,1,1.39,2.65s-1,4.74,0,13.39,8.07,18.41,10,20.08S68,491.29,67.73,492s-1.53.14-3.89,2a24.54,24.54,0,0,0-6.67,7.39c-1.67,3.07-1.11,4.88-.56,9.07s6.68,7.95,6.68,7.95-1.11.28-1.39,3.35,1.95,6.55,4.73,8.79,8.07,3.35,8.07,3.35.42,2.64.7,4.46,3.75,3.63,6,4.88,6.54.56,8.34-.28,3.06.14,4.17,1.95.7,8.79.7,11.58-1.67,5.72-.7,7.11,3.62.41,6.26-1.12,3.34-.41,5.7,1.12,6.12,2.93,7.09,2.79.55-2.65.55-4.74.38-6.82,1.35-7.52c.46-.33,4.55-.64,7.69-2,1.46-.61,3.34-1.25,3.48-2.65s-1.95-1.39-6.54-3.76-5.42-3.77-8.34-5.72-1.53-2.65-1.53-3.48,1.39-1.81,1.95-2.93a9,9,0,0,0,.28-3.62s2.36-2.37,3.48-3.63a39.6,39.6,0,0,1,4-4.46c1.53-1.25,3.89-7.25,5.42-9.2s5-4,7.09-6.69,7.64-7,10.85-9.07,11.82-6.14,11.82-6.14-.14,5.16,2.09,7.67,5.14-1.95,15-8.93S189,480,189,480s2.09,3.21,4.73,6.55,5-.14,17.1-16.87c9.54-13.2,22.11-25.28,27-29.79.9.4,1.79.8,2.68,1.21-.23.64-.48,1.38-.73,2.17-1.11,3.46-2.91,5.68-5.27,10.53s-6,6-10.12,12.47-4.71,10.94-5.12,17.59,3.32,8,3.32,8-6.09,6-7.89,10.39-2.77,13.44-2.77,13.44-1,.41-3.18,5-6.24,5.27-12.06,11.09-12.33,8.31-15.38,10.11-2.22,3.61-1.38,6,5,4.71,9.84,6.51,6.51,1.11,9.84,1,.7,2.49-.69,3.88-3.19,6.23-2.91,11.64,4.3,4.16,9.29,3.33a56.56,56.56,0,0,0,10.8-3.33l-.55,1.53c-.55,1.52-.83,2.63-.83,6.93s.69,6.37,1.94,7.48,3.74-1.24,5.54-1.8,4.85-2.36,9.29-3.32,6.09-2.91,6.09-2.91a8.73,8.73,0,0,0-1.39,4.43,35.54,35.54,0,0,0,.56,10.25,18.85,18.85,0,0,0,5.68,8.59c3,2.77,3.74,1.52,6-1.94a57.38,57.38,0,0,1,6.79-7.9s.28,1.11,3.33,10.95,13,18,13,18,10-8.17,13-18,3.32-10.95,3.32-10.95a57,57,0,0,1,6.79,7.9c2.22,3.46,2.91,4.71,6,1.94a18.91,18.91,0,0,0,5.68-8.59,35.67,35.67,0,0,0,.56-10.25,8.77,8.77,0,0,0-1.39-4.43s1.66,1.94,6.09,2.91,7.48,2.77,9.28,3.32,4.3,2.91,5.55,1.8,1.94-3.18,1.94-7.48-.27-5.41-.83-6.93l-.56-1.53a56.52,56.52,0,0,0,10.81,3.33c5,.83,9,2.08,9.29-3.33s-1.53-10.25-2.91-11.64-4-4-.7-3.87,5,.83,9.84-1,9-4.16,9.84-6.51,1.66-4.16-1.38-6-9.56-4.29-15.38-10.11-9.84-6.51-12.06-11.09-3.18-5-3.18-5-1-9-2.77-13.44-7.9-10.39-7.9-10.39,3.74-1.39,3.33-8-1-11.08-5.12-17.59-7.77-7.62-10.12-12.47-4.16-7.07-5.27-10.53c-.22-.7-.46-1.4-.71-2.1,1.19-.53,2.38-1.05,3.58-1.57,4.85,4.47,17.47,16.58,27,29.82,12.1,16.74,14.46,20.23,17.11,16.88s4.73-6.55,4.73-6.55,7.5,2.51,17.38,9.48,12.79,11.44,15,8.93c1.18-1.32,1.44-3.52,1.58-5.2,0,0,5.67,1.66,12.17,3.93,3.89,1.36,8.22,3.09,11.43,4.44,8.55,3.62,9.48,5.48,16.28,10.85s16.49,4.86,25.66,2.07,33.6-10.85,43.39-15.09,16.8-8,17.84-9.93a31.22,31.22,0,0,0,2.16-9.4c0-2-2.16-4.86-2.89-5.38s-.41-2.07-.21-3.31-.41-5-2-6.62-1.34-2.27-1.13-7c.43-10.08-6.76-22.8-17-26.84a3.88,3.88,0,0,0-1.1-1.86,11.35,11.35,0,0,0-2.2-1.31s.2-5.8.13-7,.48-1.1,1.18-.76,1.79,1.73,3.44,2.14,2.68-.77,3-2.62,1.72-5.59,2.34-7.46-.14-2.14-.89-2.34-3.23-.48-4.41-.76-1.17-.34-.89-1a25.67,25.67,0,0,1,2.2-3.94c1.52-2.35.14-2.41-1.31-2.89s-8-2.49-9.77-2.77a1.85,1.85,0,0,0-2.21,2c0,.77.07,4.07.14,5.32s-1.1.89-1.79.55a25.64,25.64,0,0,1-3.51-2.28c-1.24-1-2.13-.07-2.62,1.31s-2,7-2.48,8.7-.34,3,.35,3.24,3.92,0,5.85,0S481,418,481,418s-2.06,3.38-2.75,4.69-1.86,1.52-3.44,1.52l-4.24,0s-10.57.39-18.36,6.18-10,10.57-11.17,13.37-2.59,2.2-3.79,3.2-4.59,4.59-4.59,6.79.79,3.39-2.59,5.58-6.19,11.77-1.6,16.77,6.39,10,7.79,12.37,0,3.39-1.2,3.39-3.7-2-5.78-3.59-12.63-9.79-17.16-13.16-1.2-3-1.2-3a9.27,9.27,0,0,0,3.8-1c2.64-1.12,3.06-2.5.41-3.35s-7.79-3.76-9.17-5.16-2.09-2.93.55-4.32,8.48-5.16,3.89-6.42-10-2.23-14.46-3.49-4.87-2.51-4.87-2.51l2.93-4.19s2.36-3.34-.42-3.77S384.14,436.65,378,434c-12.22-5.29-19.88-14.27-22.71-25.22l.2-.27c2.29,4.52,7.6,13,15.61,13.22,11,.36,12.21-3.06,9.7-6.66s-5.39-6.84-6.11-7.91-.9-2.52,2,.18,8.34,11.87,24.87,10.79S418,413.82,418,412.92c0-3.17-3.36-3.67-5.35-5.66-1-1-1.66-2.55,1.67-1.27s11.51,2.78,22.63.39c4.39-.93,16-6,17.15-11.92,0,0-7.39-.4-12.54-2.63s-8.26-4.05-2.78-2.94,16.12,3.34,25.48.16c5.48-1.86,12.55-6.29,12.55-14.39,0,0-10.16-2.14-13.9-3.5a17.37,17.37,0,0,1-4.92-2.38s14.53,4.61,27.71-2.07,13.73-15.82,13.73-18a7.39,7.39,0,0,0-.32-2.79s-12,2.95-21,2.87-11.75-.88-11.75-.88,25.09-.71,37.72-8.43,13.34-22.9,13.34-22.9-14.3,5.09-23.26,6.13a101.74,101.74,0,0,1-16.68.87c-2.22-.16-3.49-.87,1.43-1.11s24-3.42,34.54-9.62,17.15-19.48,17.78-25.68-.08-5.09-4.77-2.14-22,12-33.43,14.54-13.65,2.86-13.65,2.86-4,0,1.66-1.59" style="fill:#de6e0f"/><path d="M181.24,168.11a44.75,44.75,0,0,0-16.71-5.05c-7.3-.61-12.95.48-19,2.12-4.34,1.17-7.86,1.35-11.34.42-5.23-1.39-9.29-6.11-10.66-11.89a10.82,10.82,0,0,0,.11,12.89,14.44,14.44,0,0,0,8.59,5.88c10.23,2.06,20.26-4.18,28.78-4.73,8.18-.53,14.6,4.66,14.6,4.66a4.1,4.1,0,0,0,4.66,0c2.73-1.59,3.52-2.8,1-4.3" style="fill:#e30511"/><path d="M419.44,153.71c-1.38,5.78-5.44,10.5-10.66,11.89-3.48.93-7,.75-11.34-.42-6.06-1.64-11.7-2.74-19-2.12a44.85,44.85,0,0,0-16.72,5.05c-2.55,1.5-1.76,2.71,1,4.3a4.09,4.09,0,0,0,4.66,0s6.43-5.18,14.61-4.65c8.52.54,18.55,6.79,28.78,4.73a14.45,14.45,0,0,0,8.59-5.87,10.83,10.83,0,0,0,.11-12.89" style="fill:#e30511"/><path d="M354.2,304.21c0-20.42,9.39-33.33,9.39-33.33L338,241.6c-24.34,9.41-46.64,10-66.49-.12-19.86,10.1-42.16,9.53-66.49.12l-25.56,29.28s9.39,12.91,9.39,33.33-3.95,35.57-6.25,45.45-4.28,28.32,1,41.49,10.87,24.7,33.59,34.25,34.58,14.48,42.48,21.07a79.4,79.4,0,0,1,11.86,11.85,79.4,79.4,0,0,1,11.86-11.85c7.9-6.59,19.75-11.52,42.48-21.07s28.32-21.08,33.59-34.25,3.29-31.61,1-41.49-6.25-25-6.25-45.45" style="fill:#e8b326"/><path d="M158.2,467.19s-8.25,3.94-10.87,4.64a17.28,17.28,0,0,1-3.22.71,76,76,0,0,1-9.76,7.56,36.65,36.65,0,0,1-14.29,5c-6.44.7-24.15.5-32.1.2s-12.88,1.61-16.3,5.45-4.22,9.39.1,13.63,9.15,2.12,10.77-.5.8-6,.1-7.47,1.41-2,3.63-2.12a56.82,56.82,0,0,1,9.36.71,48.18,48.18,0,0,1,12.07,3.93c2.62,1.41,1.11,1.62-.7,1.31a40.24,40.24,0,0,1-7-2.21A27.84,27.84,0,0,0,92,496.06c-2-.1-1.31,1-.91,1.72A32.63,32.63,0,0,1,92.9,501c.3.81-.6,3.83-.6,3.83l1,1.92a26.91,26.91,0,0,0,1.61-2.92c.4-1-.1-2.93.3-3.84s2.11-.91,3.42.61a13.47,13.47,0,0,1,3.52,7.16,11.49,11.49,0,0,1-.6,6.56,7.7,7.7,0,0,1,1.91,2.22c.3.91-.41,4.55-.41,4.55s1.11.71,2.12-1.42a47.67,47.67,0,0,0,2.51-7.16c.3-1.31,1.21-3.73,2.82-1.91a15.18,15.18,0,0,1,3,5.15,8.66,8.66,0,0,1,.3,2,41.51,41.51,0,0,0,4.83-5.55,33.82,33.82,0,0,1,7.14-7.87c3.42-2.82,9.36-8.48,12.27-10.4s10.36-6,12.68-7.37,2.72-1.51,3.12-5.45,2.32-7.46,3.22-10.19a36.37,36.37,0,0,0,1.11-3.74" style="fill:#e8b326"/><path d="M151.76,464.17s-1-.1-2.41-.3a30,30,0,0,1-5.33-1.61,2.81,2.81,0,0,0-3.22.5c-.9,1-8.25,5.35-8.25,5.35h12.18c4.23,0,7-3.93,7-3.93" style="fill:#e8b326"/><path d="M186.05,462.07v-1.22l-1.62-3.49a22.51,22.51,0,0,0-3.74,3.1,94,94,0,0,0-6.07,7.39c-2,2.6-4.86,5-2.43.89s3.24-5.93,5.18-8.7,3.41-4,3.16-4.15-1.79-.4-6.89-1.05a25.67,25.67,0,0,1-10.61-4c-2.35-1.38-6.57-3.66-6.57-3.66s-8.67,3.66-11.91,4.47-5.19,1.3-2,2.85,5.84,2,7.38,3a23.44,23.44,0,0,0,9.24,2.52c2.91,0,7.86.08,5.91,2.11s-4.13,5.94-6.24,11.87a40.63,40.63,0,0,0-2.19,13.82A48.1,48.1,0,0,0,157,493s3.57-4,13.13-10S183.22,475,185,474.18s2.68-.81,2.35-3.09-1.3-7.88-1.3-9" style="fill:#e8b326"/><path d="M222.58,433l-1.77-.8a2,2,0,0,0-.44.16c-1.12.56-7,4.49-9.31,8.3s-4.71,4.15-2.13,0a36,36,0,0,1,6.51-8.3c.78-.7,1.48-1.27,2-1.71a106.91,106.91,0,0,1-14.72-8.44,22.47,22.47,0,0,1-3.25,5c-2,2.13-6.51,3.93-6.51,3.93s3.59-3.7,4.83-6.51a28.64,28.64,0,0,0,1.57-4.88,63.32,63.32,0,0,1-9.66-9.22,35.61,35.61,0,0,1-8.29,14.77c-7.52,8.42-22.55,12.68-22.55,12.68s-5.27.56-1,1.68,7.29,3,15.6,1.57,8.86-1.79,10-2.12,4.15-.11,0,1.46-13.8,3-17.5,2.7-8.75-1.12-3.48,1.68,7.52,3.93,10.77,3.93,4.61,1,7.75,1,4-.56,6.29-1,3.7.33,3.7,1.23-3,3.37-2.91,9.54.56,10.22,1.12,12a46.68,46.68,0,0,0,2.81,6.4c.9,1.68,1.23,3.36,2.13-.23s2.92-8.75,3.71-12.23,1.23-3.59,1.57-5.39,2.24-3.14,1.34.11-1.91,7.41-2.58,10.32-2.24,8.3.45,4,12.79-15.59,14.47-17.61,3-3.93,4.27-5.61,4.71-3.93,6.39-6.4a56.79,56.79,0,0,1,7.9-8.14c-2.86-1.21-5.87-2.48-9.05-3.9" style="fill:#e8b326"/><path d="M26.26,319.31c-.07-.67-1.41-3-1.74-4.24S23,314.6,23,314.6a25.71,25.71,0,0,1-4.56,2c-1.95.54-2.21-.2-2.41-1.21s-.67-4.17-1-6.39-.81-2.08-1.61-1.75-3.22,1.21-4.89,2-1.14,1.54-.6,2.48,2.48,4.91,3.35,6.32.07,2-.94,2.49-2.48.67-4.49,1.34S3.93,323,4.12,323.68a41.25,41.25,0,0,0,2.29,4.71c.73,1.28,1.41.4,1.41.4a21.37,21.37,0,0,1,4-2.82c1.81-.87,1.95-.61,2.41.74s2.55,8.41,3,9.76,1.07,1.21,2,.81,2.21-.61,3.28-.95,1.48-2.48,1.48-2.48-4-7.13-5-8.95,0-2.22.8-2.36,3.15-.47,5.16-.94,1.47-1.61,1.41-2.29" style="fill:#e8b326"/><path d="M71,513c-.3-1.72,0-3.43-1.31-4.74a16.36,16.36,0,0,1-3.52-6.05c-.6-2.12.5-3.13.3-4.34s-1.81-1.21-3.42.11-3.72,2.52-3.72,6.36,1.41,8.38,6.74,10,5.23.41,4.93-1.31" style="fill:#e8b326"/><path d="M76.4,511.2s-1.11-.71-1.61.3-.41,1.52,1,3.73A9.75,9.75,0,0,0,79.72,519c1.61,1,.5-1,.3-1.61s0-1.41-.4-1.92-.61-1.11-.61-2.72-2.61-1.52-2.61-1.52" style="fill:#e8b326"/><path d="M82.94,529.36c1-1.52,1.91-1.92,4.33-3a30.7,30.7,0,0,1,8.35-1.82c1.51-.1,4.93-3,4.43-6.06a5.52,5.52,0,0,0-4.63-4.64c-1.91-.4-3.62-.4-4.23.5a7.09,7.09,0,0,1-3.82,2.82c-2.11.71-2.41,1.41-3.72,1.82s-.3,1.21-1.41,2.12-2.61,0-4.33-.5-1.81-.8-3.72-.91l-6.94-.4a3.93,3.93,0,0,0-1.3-.11c-1.11,0-1.21.2-1.71,1.41s.1,4.24,1.3,5.75,5.13,2.22,7.75,3a45.25,45.25,0,0,0,6.14,1.51c2.21.41,2.52,0,3.52-1.51" style="fill:#e8b326"/><path d="M107.39,531.78c2.11-1.41.91-3.84.4-5.35s-3.42-1.82-4.93-1.82-2.31,0-3.12.7a10.43,10.43,0,0,1-4.12,2.43c-2.21.7-3.92,1.51-6.94,2.72s-3.93,3.23-5.23,4-3.82,0-3.82,0-1.82-.51-2.42,0,0,1.51,1.21,2.82,3.52,1.21,6.14,2,3.12.2,4.13-.51,1.81-2.22,3.63-3.33S98,534.2,99.95,534s5.34-.81,7.45-2.22" style="fill:#e8b326"/><path d="M107.39,522.6c.91.81,1.91,1.92,2.71.61s2.11-4,1.21-5.65a28,28,0,0,0-2-3,55.81,55.81,0,0,1-2.21,5.86c-.7,1.21-.61,1.41.3,2.21" style="fill:#e8b326"/><path d="M99.24,508.67a14.77,14.77,0,0,0-1.81-5.86,23.56,23.56,0,0,1-1.71,4.54,14.41,14.41,0,0,1-2.21,3.23,22.68,22.68,0,0,0,3.62.71c1,0,2.11,0,2.11-2.62" style="fill:#e8b326"/><path d="M84.14,514.22a11.77,11.77,0,0,0,5.54-2.72c1.21-1,1.91-3.74,1.11-5.14s-2.82-2.93-3.62-2.93H85.65a14.05,14.05,0,0,1-1.91,3.93c-1.11,1.31-2.41,2.22-2.31,3.93s-.1,3.53,2.71,2.93" style="fill:#e8b326"/><path d="M89.88,501.4a4.78,4.78,0,0,0-1.31-3.63l-1.51-1.51s-.2,2-.4,3.13a7.22,7.22,0,0,1-.3,1.31,6.08,6.08,0,0,0,1.51,1.11c.7.3,1.91.91,2-.41" style="fill:#e8b326"/><path d="M55.09,429.82s3.33,0,1.9-11.89S49.38,394.78,44.47,387s-10-20-12.21-26.47a75,75,0,0,1-3.71-20.06c0-4.66,2-7.06,2-7.06s.86-1.27.07-2.06-2.05-.07-3.32,1.2a15,15,0,0,0-3.12,5.25,9,9,0,0,0-.54,2.27,23,23,0,0,0-6.57-.26c-4,.33-6,.66-6.11,1.53s.53,1.53,3.45,2.79,4.78,1.8,6.24,3.53,5.2,10.43,6.34,14.63a200.14,200.14,0,0,1,4.57,24.53,97.9,97.9,0,0,0,8.22,28.8c1.38,3,8.94,17,15.31,14.2" style="fill:#e8b326"/><path d="M62.44,450.77c-2.75,1.54-2.65,12.79-1.43,18.62s6.94,13.1,8.67,15,2.14,1.94,3.06,1.43a3.29,3.29,0,0,1,1.32-.51,16.65,16.65,0,0,0,4.29-2.25c1.83-1.44,1.12-5,.81-8.19S76.42,465.4,71.93,458s-6.73-8.8-9.49-7.27" style="fill:#e8b326"/><path d="M65.5,441.66a6.65,6.65,0,0,0-6.84-6.44,6.31,6.31,0,0,0-4.2,1.29c-3.71,3.35-1.47,11.71,3.89,11.71,1.94,0,4.21-.32,5.62-1.67,1.25-1.18,1.54-3.16,1.54-4.88" style="fill:#e8b326"/><path d="M118.71,547.4c-1.46-.26-2.33-.86-4.49-2.32s-5.61-4.49-6.21-6-.61-1.55-2.68-.86-5,.6-7.25.69.26,2.59,1.81,4.93,1,10.18,1,10.18a6.92,6.92,0,0,1-.34,1.82c-.34,1.12-.09,1.89.52,2.16s.95-.26,2.51-2.08a70.49,70.49,0,0,0,4.4-6.55s.43.08,2.85.69a18.9,18.9,0,0,0,8.29-.35c2-.61,1-2.07-.43-2.34" style="fill:#e8b326"/><path d="M109.46,553.45c-1-.17-1.46-.26-2,.43a12.45,12.45,0,0,0-1.21,2.68,1.48,1.48,0,0,0,.43,1.82c.61.52,1.46,1.12,1.46,1.12a7.11,7.11,0,0,0,1.73,1.38c.86.43,1-.86,1-1.81s.52-2.68.52-3.8-.95-1.64-2-1.81" style="fill:#e8b326"/><path d="M83.06,174c.27,6.19,7.12,18,11,24.34s5,8.87,4.3,9.27-2.28-2.82-4.43-5.64-6.31-9.41-9.8-14.39-8.59-16.8-9.26-17.88-.94-1.75-2.68-.41-5.1,14.39-1.07,23.26S81.18,207.86,83.73,211s5.91,7.93,5.37,8.34-1.48-.81-4.56-4S76.35,206.52,73,202.49c-2.73-3.27-6.43-9.92-7.72-12.3-.49-.9-1.12-.66-1.59-.18-1.11,1.11-2.87,3.69-2.1,10.74,1.07,9.82,6.17,15.46,10.73,20.43s9.13,9.14,8.46,9.81-5.37-3.5-8.59-6.59S61,213.65,59.31,211.5s-4.3-1.08-4.16,7.39S64.67,236,68.56,240.67s8.73,7.52,8.32,8.46-4.3-1.48-6.85-3.23S58,238,56.08,236.64s-2.82,1.21-.4,9.27,9.4,14.52,13.56,17.47,10.87,6.59,10.47,7.53-3.22-.27-7.11-2.15a78.89,78.89,0,0,0-11.95-4.57c-3.36-.95-3.36,1.48-3.36,1.48A17.48,17.48,0,0,0,61.59,278a26.67,26.67,0,0,0,16,8.6c5.37.94,6.18,1.21,6,2s-.67.94-1.88.94-6.18.54-10.74.54-7,1.07-7,3.09-.14,4.71,6.71,9.28,14.5,5.24,17.72,5.92,3.35.94,2.68,1.88-2.14.8-7.25,1.34-8.19,2.55-8.86,3.89.4,5.38,4.57,8.2,9.53,3.77,17.58,3.23,10.07-.67,10.34.67-2.41,1.75-6.45,2.42-7.11.67-9.39,2.55-.54,5.78,3.36,8.61,13.56,2.82,17.58,2.55,10.2-1.75,10.6-.68-3,2.69-7.11,4.17-5.37,2.42-6.18,4.17-.13,3.36,4.83,5.24,12.21,1.88,16,.13,5.77-2.42,6.45-1.74,0,1.34-.81,2.29a18.52,18.52,0,0,1-8.18,4.57c-4.16,1.08-4.57,1.08-6,4.43s2.28,6.05,9.8,6.32,17.59-2.69,20.81-4.58,4.43-2.28,5-1.61.4,1.07-1.21,2.28-6.71,4.84-9.26,5.52-2.82,2.55-2.82,4.3-.67,5.24,6,6.86,14.63.41,21.88-4.71a16.53,16.53,0,0,0,4.46-4.18,56.19,56.19,0,0,1,.55-15.93,26.45,26.45,0,0,1-6.88-1.67c-4-1.61-5.64-5.37-6.58-7.39s-2.28-2-3.89-1.48a13.31,13.31,0,0,1-5.5,1.08,15.82,15.82,0,0,1-10.6-5.52c-3.49-4.17-2.82-8.2-3-10.22s-3.36-.54-5-.54a20.91,20.91,0,0,1-10.6-3.63c-4.3-3-4.3-7-4.7-8.61s-2.15-2.68-3.49-3.23a19.24,19.24,0,0,1-6.45-3.5c-2.95-2.42-4-7.12-4.16-8.73s-1.88-1.75-7.92-4.84-5.5-9.54-5.23-12.1,3.08-4.7,3.08-5.65-2-1.21-4-2.42-7.11-3.23-7.25-10.75S90,263.12,90,263.12a29,29,0,0,1-3-1.61c-2-1.21-7.52-5-7.52-9.41s2-6.45,3.49-7.53,5.5-2.15,5.5-2.15a9.76,9.76,0,0,1-3.62-5.11c-1.07-3.5-1.48-7.79,1.07-10.89s6.85-3.09,9.13-3.09,4.29,1.21,5.1.54.94-1.21.13-3-.94-6.05-.27-7.53.8-4.43,6.58-6.32,11.81,2,13.69,3.1,1.07-1.48,1.07-3.36-3.89-6.59-8.32-13.31-6.44-10.22-11.41-20.43-8.19-23.39-8.86-26.75-2-1.75-2-1.75-1.34.54-4.43,8.34A50.13,50.13,0,0,0,83.06,174" style="fill:#e8b326"/><path d="M184.33,311.46c-3.46-.17-8-2.07-11.41-7.1s-8.64-6.24-17.64-6.07-13.14-4.15-15.39-10.38.34-13.34,9.51-17.84,13.32-9.52,13.66-17.31-9.16-17.49-18.67-28.4S127.44,198,127.44,198s-2.77,3.64-2.77,7.27,1.38,7.45,0,8.48-1.9-1.55-7.43-4-10-2.77-13.49,1.21,0,10.91,3.11,14.2,5.71,5.72,4.84,6.93-5.54-1.91-7.09-2.95-5.19-5-10.55-4.5-7.27,2.08-7.78,6.58,4.84,8.48,8.3,10.21,4.84,3.29,4,4-1.73,0-3.29-.51-5.87-1-8.64,0-7.27,4.84-3.11,9.52S96.32,260.9,98,261.24s2.59-.18,2.77,1.21-3.63,1.39-8.3,1.56-6.05,4.67-5.36,8.14,8.47,7.27,12.79,8,5.88,0,6.23,1.21-.52,1.73-2.94,2.43-7.09,1.21-8,5-1,5.54,2.59,8.84,9.51,2.77,11.24,2.42,3.81-2.25,5.54-.52-1.56,3.12-4.5,5.2-2.77,6.06,2.25,8.83a15.41,15.41,0,0,0,12.1,1c2.07-.69,4.84-4,6.22-1.9s-4.32,2.77-6.74,5.71-1.55,7.79,3.29,10.73,12.8.87,14.18-.34,3.11-1.73,4.15-.69-.52,3.8-1.55,6.23-2.94,9.52,4.32,12.29,13.84-3.46,15-4.68,2.42-1.38,3.46-.86.52,1.56-.34,2.77a7.33,7.33,0,0,0,2.42,10,12.73,12.73,0,0,0,9.5,1.94c1.08-4.05,2.49-8.39,3.92-14.46,0,0-3,2.57-3.93,3.19s-1.73,1.38-2.22,1,1.88-1.59,2.5-2.36,1.87-1.94,1.94-2.77.48-1.32,1.73-2.36a4.78,4.78,0,0,0,.93-1.08c.83-4,1.65-8.77,2.39-14.49.5-3.89.79-7.55.9-11Z" style="fill:#e8b326"/><path d="M36.54,203.54A78.74,78.74,0,0,0,55.17,228s-1.43-3.88-2.07-6.55a16.88,16.88,0,0,1-.14-5.69s-2.74-3.52-7.8-11.31-7.73-19.32-7.73-19.32,4.71,11.52,8.36,17.63a94.54,94.54,0,0,0,7.87,11.09s1.47-5.41,2.53-5.68,1.83.56,2.74,1.75S60.63,211,60.63,211s-1.25-2.58-3.17-5.67c-.87-1.41-2.14-2.92-3-4.34-2.88-4.55-9.09-13.19-12.27-21.84S32,148.78,30.79,142.4s-2.43-2.88-3.64,1.82a55.4,55.4,0,0,0-1.82,21.39,107.56,107.56,0,0,0,11.21,37.93" style="fill:#e8b326"/><path d="M46.54,245.72c2.88,2.13,7.12,5,7.12,5a22.21,22.21,0,0,1-1.09-3.45,46.22,46.22,0,0,1-.61-5.75l-5.75-5c-2.36-2.06-5.33-4.73-11.19-12s-1.15-2.91,3.63,2.3a181.72,181.72,0,0,0,13.92,12.78s0-.12.06-1.7A6.25,6.25,0,0,1,54,234.07c.84-1.09.4-1.24-4.75-5.19s-18.48-19-23.93-27.92S14,179.87,14,179.87s-2.87,17.9,8,37.63,21.66,26.09,24.54,28.22" style="fill:#e8b326"/><path d="M103.77,358.64c6-2.31,4.34-8.21,4.34-8.3s-3.66,1.16-7,2.41-11.67,3.67-14.95,3.77-3.27-.38-3.37-.87,2.5,0,7.23-.87,13-5.21,14.46-6.18,1.25-1.16-.87-1.36a9.08,9.08,0,0,1-4.73-1.83c-.77-.68-3,.29-8.38,1.55s-16.58,3.18-25.16,3.18a100.21,100.21,0,0,1-17.93-1.74c-1.35-.29-2.8.48,1.35,7.44s18.7,10.71,28.82,10.62,20.24-5.5,26.22-7.82" style="fill:#e8b326"/><path d="M76.86,344.3c10.44.09,14.34-3,14.34-3s0-.53-1.42-2.65-1.15-5.76-1.15-5.76-2.48.45-6.82,1.07a46.29,46.29,0,0,1-15,.26c-5.57-1-3.18-1.59,1.24-1.06s12.92-1.07,15.66-2,1.59-1.86-.27-2.49a55.48,55.48,0,0,1-6.9-3.81,119,119,0,0,1-24.42.27c-11.77-1.34-19.2-4.34-21.59-4.7s-2.3.63-2.3.63-.62,1.06,3.45,7.43,12,10.55,18.76,12.5a100.89,100.89,0,0,0,26.37,3.37" style="fill:#e8b326"/><path d="M74.21,319.85a10.52,10.52,0,0,1-1.06-2.75,3.91,3.91,0,0,1,1.15-3.72,76.85,76.85,0,0,0-10.18-1.68c-7.79-1-8.23-1.6-13-2.66s-8-2.48-7.87-3,1.59.27,4.42,1.33,14.78,2.3,19.82,3,7.87,1.24,8.76.71a25.59,25.59,0,0,1,4-1.33,47.4,47.4,0,0,0-4.78-1.06A16.89,16.89,0,0,1,69,306.11c-1.42-1-1.86-1.24-8.23-1.95s-11.51-2.75-22.92-6.92-20-9.12-22.3-11-2.12-.53-1.5,1.86.53,5.4,6.29,12.14,8.58,9.66,23.09,15,30.79,4.61,30.79,4.61" style="fill:#e8b326"/><path d="M31.29,284.49a81.43,81.43,0,0,0,31.06,12.76c.71-.84-.78-3.84-.09-5.67.83-2.2,2.21-2.21,5.31-2.39s1.06-.8.36-.8-.89-.09-6-1.42-10.35-2.13-17.43-4.79-9.2-4.61-9-5.14,3.27,1.69,9.82,4.17,14.16,3.45,18.32,4.34.53-.89-1.42-2-4.69-5.41-4.69-5.41A110.66,110.66,0,0,1,45.36,275a97.81,97.81,0,0,1-20.09-8.42,74.44,74.44,0,0,1-6.5-4.41c-4.31-3.09-8.63-6.24-10.32-7.46-2.57-1.86-1.77-.35-1.5.8a42.92,42.92,0,0,0,6.11,12.32c4.07,5.85,5.4,7.62,18.23,16.66" style="fill:#e8b326"/><path d="M29.17,259A84.46,84.46,0,0,0,54.57,273c1.86.8,1.68-.27,1.33-1.33a32.34,32.34,0,0,1-.62-4.52s-4.52-2.57-9.56-5.5-10.62-6.91-14.33-9.48-1.5-2.39-.36-1.42,6.29,4,11.41,7.18,12.92,7.8,12.92,7.8a5.1,5.1,0,0,1,1.24-2.75c1.06-1.07,3.71-.79,3.71-.79a18.83,18.83,0,0,1-2.12-2.57c-.79-1.25-5-2.57-9.64-4.79s-13.1-8.41-19.29-13.64-18.23-18.34-19-19.41-1.33-.88-1.42.45-.53,2.21.8,8.24S16.51,249,29.17,259" style="fill:#e8b326"/><path d="M74,164.35c1.43,3,3,5.23,4.14,7.17,1.71,2.93,2.67,4.83,2.67,4.83a6.58,6.58,0,0,0,.07-2.79,22.07,22.07,0,0,1-.07-7.11,21.48,21.48,0,0,0,.5-4.5,19.84,19.84,0,0,0-.84-3.83c-.41-1.7-2.23-9.07-3.11-14.29a116.73,116.73,0,0,1-1.76-19.23c.07-6.57,1-3.25,1-.07a123,123,0,0,0,1.35,15.57,182.24,182.24,0,0,0,4.19,19,19.73,19.73,0,0,1,1.15-4.27c.95-2.51,2.5-5.35,3.72-8.46s.79-3.64.79-3.64-4.45-21.27-5.61-31.31-3-36.46-3-36.46c-6.5,6.54-11.33,23.75-12.19,40-.64,12.26,1.34,23.61,1.91,28.21,1.14,9.11,2.72,16.23,5.11,21.18" style="fill:#e8b326"/><path d="M59.53,197.91c.2-4.81,1.31-8.46,4.41-9.53A77.89,77.89,0,0,1,58.8,176.7a91.62,91.62,0,0,1-3.68-15.36c-1.7-11.4-3.06-23.13.34-3.91s7.47,26,7.47,26l4.93,8a34.72,34.72,0,0,1-.66-9.82A62.85,62.85,0,0,1,69,168.48a151.51,151.51,0,0,1-9.68-26.2c-3.73-14.29-5.87-27.29-5.95-35-.34-7.48-.51-10.37-.51-10.37s-6.11,4.59-8.15,27.9,4.08,45.59,7.13,54.09,7.64,19.05,7.64,19.05" style="fill:#e8b326"/><path d="M126.23,375.63s-1-.68-3.86-2.51-2-7.34-2-7.34-.77.58-2.89,2a38.54,38.54,0,0,1-7.42,4.25c-2.89,1.16-4.34,1.93-6.17,2.51s-1.35-.19.19-1.06a32.1,32.1,0,0,1,5.88-2.89c3.85-1.55,11.57-8.3,11.57-8.3s-1.83-.2-5-.29a25.78,25.78,0,0,1-7.23-1.74s-3.18,2.89-16,8.39a100.31,100.31,0,0,1-23.71,7s1.35,6.57,7.52,8.79c5.11,2.22,12.15,3.57,25.93.29a87.41,87.41,0,0,0,23.23-9.08" style="fill:#e8b326"/><path d="M143.1,388.77a11.74,11.74,0,0,0-2-9.18,19.55,19.55,0,0,0-2.6,2.12c-1.93,1.74-4.72,5-10.12,7.73s-7.33,2.51-2.12-.29,12.82-10.71,12.82-10.71l-2-.77c-2-.77-5.5.58-20,9.27s-22.95,9-22.95,9,6.46,7.82,24,7.24,23.91-9,25-14.38" style="fill:#e8b326"/><path d="M176.27,382.49a20.16,20.16,0,0,1-4.54,4.43c-2.61,1.74-9.54,2.8-9.54,2.8a11.76,11.76,0,0,1-1.64,2.51c-1.35,1.74-4.34,5.89-7.42,8.11s-7.91,3.66-8.2,3.09,2.8-1.74,5.79-3.57,5.69-5.22,7.71-7.53-.87-1.93-.87-1.93-3.66.09-7-.19-2.7,0-3.66,1.64a45.77,45.77,0,0,1-4.82,6c-3.06,3.53-6,6.73-8.87,10.23-1.93,2.32-.48,3-.48,3s.87,1.45,8.68,2.32a24.6,24.6,0,0,0,15.54-3.24,46.88,46.88,0,0,0,10.49-9c9.35-10.23,8.87-18.63,8.87-18.63" style="fill:#e8b326"/><path d="M180.41,403.63a40.28,40.28,0,0,1-3,3.58,40.72,40.72,0,0,1,2.51-6.09c.62-1,1.29-2,1.78-2.69a52.06,52.06,0,0,1-3.13-9.38c-.86,2.78-3.53,10.93-6.84,16.23-4,6.46-7.61,8.78-5.3,10.52s6.84,2.13,12-.39c4.94-2.42,6.36-6.65,7.06-10.07-.86-1.34-1.68-2.73-2.43-4.2a10.09,10.09,0,0,0-2.61,2.48" style="fill:#e8b326"/><path d="M473.84,263.38c4.16-3,11.14-9.41,13.55-17.47s1.48-10.62-.4-9.28-11.41,7.53-14,9.28-6.45,4.16-6.84,3.22,4.42-3.76,8.32-8.46,13.28-13.31,13.42-21.78-2.42-9.54-4.16-7.39-9.67,9.82-12.89,12.91S463,231.66,462.3,231s3.89-4.84,8.45-9.81,9.66-10.62,10.74-20.44c.77-7-1-9.63-2.11-10.74-.46-.47-1.1-.71-1.59.19-1.29,2.38-5,9-7.72,12.3-3.35,4-8.45,9.54-11.54,12.77s-4,4.44-4.56,4,2.82-5.25,5.37-8.34,8.59-9.54,12.62-18.41.67-21.92-1.07-23.26-2-.67-2.69.41-5.77,12.9-9.26,17.88-7.66,11.56-9.8,14.39-3.76,6-4.43,5.64.4-3,4.3-9.27,10.74-18.15,11-24.34a50,50,0,0,0-3.36-21.1c-3.09-7.79-4.43-8.33-4.43-8.33s-1.34-1.61-2,1.75-3.89,16.54-8.86,26.75-7,13.71-11.41,20.43-8.32,11.43-8.32,13.31-.81,4.44,1.07,3.36,7.91-5,13.69-3.09,5.9,4.84,6.57,6.32.54,5.78-.27,7.52-.67,2.29.13,3,2.82-.54,5.11-.54,6.58,0,9.13,3.09,2.15,7.39,1.08,10.89a9.76,9.76,0,0,1-3.62,5.11s4,1.07,5.5,2.15,3.49,3.09,3.49,7.53-5.5,8.2-7.52,9.41a29,29,0,0,1-3,1.61s5,.8,4.84,8.34-5.23,9.54-7.25,10.75-4,1.48-4,2.42,2.82,3.09,3.09,5.65.8,9-5.24,12.09-7.79,3.23-7.92,4.84-1.21,6.32-4.16,8.74a19.1,19.1,0,0,1-6.45,3.49c-1.34.55-3.09,1.62-3.49,3.23s-.4,5.65-4.7,8.61a21,21,0,0,1-10.61,3.63c-1.61,0-4.83-1.48-5,.54s.54,6.05-2.95,10.21a15.84,15.84,0,0,1-10.61,5.52,13.31,13.31,0,0,1-5.5-1.09c-1.61-.53-3-.53-3.9,1.48s-2.55,5.79-6.57,7.39a26.42,26.42,0,0,1-6.89,1.67,56.16,56.16,0,0,1,.55,15.93,16.59,16.59,0,0,0,4.46,4.18c7.25,5.11,15.17,6.32,21.88,4.71s6-5.11,6-6.86-.27-3.63-2.82-4.3-7.65-4.3-9.26-5.52-1.75-1.61-1.21-2.28,1.74-.27,5,1.61,13.29,4.84,20.8,4.57,11.28-3,9.8-6.32-1.87-3.36-6-4.43a18.52,18.52,0,0,1-8.19-4.57c-.8-.94-1.48-1.61-.8-2.29s2.68,0,6.44,1.75,11,1.75,16-.14,5.64-3.49,4.84-5.24-2-2.69-6.18-4.17-7.52-3.09-7.11-4.17,6.57.41,10.6.68,13.7.27,17.59-2.55,5.64-6.72,3.36-8.6-5.37-1.89-9.4-2.55-6.71-1.08-6.44-2.42,2.28-1.21,10.34-.68,13.42-.4,17.58-3.23,5.24-6.86,4.57-8.2-3.76-3.36-8.86-3.9-6.57-.41-7.25-1.34-.54-1.21,2.68-1.88,10.88-1.35,17.72-5.92,6.71-7.25,6.71-9.27-2.41-3.09-7-3.09-9.53-.54-10.74-.54-1.74-.13-1.88-.94.67-1.08,6-2a26.65,26.65,0,0,0,16-8.6,17.48,17.48,0,0,0,4.29-12.37s0-2.42-3.36-1.48a79.29,79.29,0,0,0-11.95,4.57c-3.89,1.89-6.71,3.09-7.11,2.16s6.31-4.57,10.48-7.54" style="fill:#e8b326"/><path d="M456.42,245c-2.77-1-7.09-.52-8.64,0s-2.42,1.21-3.29.52.52-2.25,4-4,8.82-5.72,8.3-10.22-2.42-6.06-7.79-6.58-9,3.46-10.54,4.5-6.22,4.16-7.09,2.95,1.73-3.64,4.84-6.93S442.76,215,439.3,211s-8-3.64-13.49-1.21-6,5-7.43,4,0-4.85,0-8.48-2.77-7.27-2.77-7.27-7.43,15.42-16.95,26.32-19,20.61-18.67,28.4,4.49,12.81,13.66,17.31,11.75,11.6,9.51,17.84-6.4,10.56-15.39,10.39-14.18,1-17.64,6.07-8,6.92-11.41,7.09l-2.28.12c.11,3.42.4,7.08.9,11,.75,5.72,1.56,10.45,2.39,14.49a4.88,4.88,0,0,0,.93,1.08c1.25,1,1.67,1.52,1.73,2.36s1.32,2,1.94,2.77,3,2,2.49,2.36-1.31-.41-2.21-1-2.09-1.65-2.94-2.39l-1-.8c1.43,6.07,2.84,10.41,3.92,14.46a12.72,12.72,0,0,0,9.5-1.93,7.32,7.32,0,0,0,2.42-10c-.86-1.21-1.38-2.25-.35-2.77s2.25-.35,3.46.86,7.78,7.45,15,4.68,5.36-9.87,4.32-12.29-2.59-5.2-1.56-6.23,2.77-.52,4.15.69,9.34,3.29,14.18.35,5.7-7.8,3.28-10.73-8.12-3.64-6.74-5.71,4.15,1.21,6.22,1.9a15.42,15.42,0,0,0,12.11-1c5-2.77,5.18-6.75,2.24-8.84s-6.22-3.46-4.49-5.19,3.81.18,5.54.52,7.61.87,11.24-2.42,3.46-5,2.6-8.84-5.54-4.33-8-5-3.28-1.21-2.93-2.43,1.9-.52,6.22-1.21,12.1-4.5,12.79-8-.69-8-5.36-8.14-8.47-.18-8.3-1.57,1-.86,2.77-1.21,10.38-2.07,14.52-6.75-.34-8.49-3.11-9.53" style="fill:#e8b326"/><path d="M487.89,228a78.7,78.7,0,0,0,18.63-24.43,107.37,107.37,0,0,0,11.21-37.93,55.44,55.44,0,0,0-1.81-21.39c-1.22-4.7-2.43-8.19-3.64-1.82s-8.18,28.06-11.36,36.71S491.52,196.4,488.65,201c-.9,1.42-2.18,2.94-3,4.34-1.92,3.09-3.17,5.68-3.17,5.68s.78.11,1.69-1.08,1.69-2,2.75-1.76,2.53,5.69,2.53,5.69a94.79,94.79,0,0,0,7.87-11.09c3.65-6.12,8.36-17.64,8.36-17.64s-2.67,11.52-7.73,19.32-7.8,11.31-7.8,11.31a16.89,16.89,0,0,1-.14,5.7c-.63,2.67-2.06,6.55-2.06,6.55" style="fill:#e8b326"/><path d="M529.09,179.87S523.18,192,517.73,201s-18.78,24-23.93,27.92-5.6,4.09-4.75,5.19a6.29,6.29,0,0,1,1.39,3.82c.06,1.57.06,1.69.06,1.69a181.69,181.69,0,0,0,13.92-12.78c4.78-5.21,9.5-9.57,3.63-2.3s-8.83,9.94-11.19,12l-5.75,5a46.22,46.22,0,0,1-.61,5.75,22.5,22.5,0,0,1-1.1,3.45s4.24-2.88,7.12-5,13.63-8.5,24.54-28.22,8-37.62,8-37.62" style="fill:#e8b326"/><path d="M476.12,115c-.86-16.28-5.7-33.49-12.19-40,0,0-1.87,26.41-3,36.46s-5.61,31.31-5.61,31.31-.43.52.79,3.63,2.77,6,3.72,8.46a20,20,0,0,1,1.14,4.27,183.17,183.17,0,0,0,4.2-19,122.79,122.79,0,0,0,1.35-15.57c0-3.18,1-6.5,1,.07a116.66,116.66,0,0,1-1.76,19.23c-.87,5.21-2.71,12.59-3.11,14.29a19.24,19.24,0,0,0-.84,3.83,21.53,21.53,0,0,0,.51,4.5,22.18,22.18,0,0,1-.07,7.11,6.55,6.55,0,0,0,.07,2.79s1-1.9,2.68-4.83c1.13-1.94,2.7-4.19,4.14-7.17,2.39-5,4-12.07,5.11-21.18.57-4.6,2.56-15.95,1.91-28.21" style="fill:#e8b326"/><path d="M491.17,178.86c3.05-8.5,9.18-30.79,7.13-54.09s-8.15-27.9-8.15-27.9-.17,2.89-.51,10.38c-.07,7.75-2.21,20.74-5.95,35A151.75,151.75,0,0,1,474,168.48a63.69,63.69,0,0,1,1.84,13.15,34.71,34.71,0,0,1-.66,9.82l4.92-8s4.08-6.81,7.47-26,2-7.48.34,3.91a90.75,90.75,0,0,1-3.69,15.36,77.88,77.88,0,0,1-5.14,11.68c3.11,1.07,4.21,4.71,4.41,9.53,0,0,4.59-10.55,7.64-19.05" style="fill:#e8b326"/><path d="M495.68,348.41a100.21,100.21,0,0,1-17.93,1.74c-8.58,0-19.76-1.93-25.16-3.18s-7.62-2.22-8.39-1.55a9,9,0,0,1-4.73,1.83c-2.12.2-2.31.39-.86,1.36s9.74,5.31,14.46,6.18,7.32.39,7.23.87-.1,1-3.38.87S445.36,354,442,352.75s-7-2.51-7-2.41-1.64,6,4.34,8.3,16.1,7.72,26.22,7.82,24.68-3.67,28.82-10.62,2.7-7.72,1.35-7.43" style="fill:#e8b326"/><path d="M512.48,320.38c-2.39.36-9.82,3.36-21.59,4.7a119,119,0,0,1-24.43-.27,55.67,55.67,0,0,1-6.9,3.81c-1.86.63-3,1.51-.27,2.49s11.24,2.57,15.66,2,6.81.09,1.24,1.06a46.32,46.32,0,0,1-15-.26c-4.33-.62-6.81-1.07-6.81-1.07s.27,3.64-1.15,5.76-1.41,2.65-1.41,2.65,3.89,3.11,14.33,3a100.87,100.87,0,0,0,26.37-3.37c6.73-1.95,14.69-6.11,18.76-12.5s3.45-7.43,3.45-7.43.09-1-2.3-.62" style="fill:#e8b326"/><path d="M527.53,286.26c-2.3,1.86-10.89,6.82-22.3,11s-16.55,6.21-22.92,6.91-6.82,1-8.23,1.95a16.93,16.93,0,0,1-6.46,2.57,48.32,48.32,0,0,0-4.78,1.06,25.6,25.6,0,0,1,4,1.33c.88.54,3.71,0,8.76-.71s17-1.95,19.82-3,4.34-1.86,4.42-1.33-3.09,1.95-7.87,3-5.22,1.68-13,2.66a77.29,77.29,0,0,0-10.18,1.69,3.91,3.91,0,0,1,1.15,3.72,10.48,10.48,0,0,1-1.07,2.75s16.28.71,30.79-4.61,17.34-8.24,23.1-15,5.66-9.74,6.28-12.14.8-3.71-1.5-1.86" style="fill:#e8b326"/><path d="M534.6,254.71c-1.68,1.22-6,4.38-10.32,7.46a75.33,75.33,0,0,1-6.5,4.41A97.72,97.72,0,0,1,497.7,275a110.25,110.25,0,0,1-12.12,3.1s-2.75,4.25-4.69,5.41-5.57,2.92-1.42,2,11.77-1.86,18.32-4.35,9.65-4.7,9.82-4.16-1.95,2.48-9,5.14-12.29,3.46-17.43,4.79-5.31,1.41-6,1.41-2.74.62.36.8,4.48.2,5.31,2.39c.69,1.83-.8,4.84-.09,5.67a81.28,81.28,0,0,0,31.06-12.76c12.83-9,14.15-10.82,18.23-16.66a42.92,42.92,0,0,0,6.1-12.32c.27-1.15,1.07-2.66-1.5-.8" style="fill:#e8b326"/><path d="M486.47,262.95a5.15,5.15,0,0,1,1.24,2.75s7.79-4.61,12.91-7.8,10.27-6.21,11.42-7.18,3.36-1.15-.36,1.42-9.29,6.55-14.33,9.48-9.56,5.5-9.56,5.5a33.43,33.43,0,0,1-.62,4.52c-.36,1.07-.54,2.13,1.32,1.33A84.52,84.52,0,0,0,513.9,259c12.65-10,18.23-22.6,19.55-28.62s.88-6.91.79-8.24-.62-1.51-1.41-.45-12.83,14.18-19,19.41-14.6,11.43-19.29,13.64-8.85,3.54-9.65,4.79a18.48,18.48,0,0,1-2.12,2.57s2.65-.27,3.71.8" style="fill:#e8b326"/><path d="M433.8,360.28a25.78,25.78,0,0,1-7.23,1.74c-3.19.09-5,.29-5,.29s7.71,6.76,11.56,8.3A32.19,32.19,0,0,1,439,373.5c1.54.88,2,1.64.19,1.06s-3.28-1.35-6.17-2.51a38.84,38.84,0,0,1-7.42-4.25c-2.12-1.45-2.89-2-2.89-2s.87,5.5-2,7.34-3.86,2.51-3.86,2.51a87.57,87.57,0,0,0,23.23,9.08c13.78,3.28,20.82,1.93,25.93-.29,6.17-2.22,7.52-8.79,7.52-8.79a100.29,100.29,0,0,1-23.72-6.95c-12.82-5.5-16-8.4-16-8.4" style="fill:#e8b326"/><path d="M406,377.66l-2,.77s7.61,7.91,12.82,10.71,3.28,3-2.12.29-8.19-6-10.12-7.72a18.91,18.91,0,0,0-2.61-2.12,11.79,11.79,0,0,0-2,9.18c1.06,5.4,7.43,13.8,25,14.38s24-7.24,24-7.24-8.48-.29-22.94-9-17.93-10-20-9.27" style="fill:#e8b326"/><path d="M401,397.84a46.13,46.13,0,0,1-4.82-6c-1-1.64-.29-1.94-3.66-1.64s-7,.2-7,.2-2.89-.39-.87,1.93,4.73,5.7,7.71,7.53,6.07,3,5.78,3.57-5.11-.87-8.19-3.09-6.08-6.37-7.43-8.11a11.65,11.65,0,0,1-1.64-2.51s-6.95-1.06-9.54-2.8a20.33,20.33,0,0,1-4.54-4.44s-.48,8.4,8.87,18.63a46.84,46.84,0,0,0,10.5,9,24.59,24.59,0,0,0,15.54,3.24c7.8-.86,8.67-2.32,8.67-2.32s1.45-.68-.48-3c-2.91-3.49-5.8-6.7-8.87-10.23" style="fill:#e8b326"/><path d="M364.48,389a52.06,52.06,0,0,1-3.13,9.38c.5.68,1.16,1.66,1.78,2.69a40.28,40.28,0,0,1,2.51,6.09,40.16,40.16,0,0,1-3-3.57,9.89,9.89,0,0,0-2.61-2.48c-.75,1.46-1.57,2.85-2.43,4.19.7,3.42,2.13,7.65,7.06,10.07,5.11,2.51,9.64,2.12,12,.38s-1.25-4.05-5.3-10.52c-3.32-5.3-6-13.45-6.84-16.23" style="fill:#e8b326"/><path d="M360.1,145.47a3.6,3.6,0,1,0,3.59-3.3,3.45,3.45,0,0,0-3.59,3.3" style="fill:#e8b326"/><path d="M320.08,143.66a28.24,28.24,0,0,0,5.75,2.68,29.21,29.21,0,0,0,19.71-1.72c7-3.73,12.79-6.21,17.06-6.62,3.61-.35,5.37,1.2,8.65,1.28a2.37,2.37,0,0,0,2.36-1c.69-1.38.27-4.83-4.68-7.6s-12.38-2.62-19-.68a38.85,38.85,0,0,0-13.07,6.48c-2.61,1.93-5.71,4.91-6.46,4.29s1.51-2.07,2.75-3.32a19.07,19.07,0,0,1,1.79-1.66,33.43,33.43,0,0,1-21.33-6.49s-2.06,9.52,6.46,14.35" style="fill:#e8b326"/><path d="M393.56,139.24c-4.82-2.21-9.64-1.93-15.55.28a54.62,54.62,0,0,0-8.81,4s.83,5.11-2.74,7.45-7.15,1-8.12-1.38A24.2,24.2,0,0,1,357.1,146a46.88,46.88,0,0,1-13.35,4.55c-4.37.78-12.45,1.65-17.61-.42,0,0-4.68,4.55-8.12,7.32s-7.15,5.11-7.15,5.11a3.21,3.21,0,0,0,2.06,1.66c1.65.55,2.2.82,1.11,2.62s-9.09,9-12.52,11.45a44.06,44.06,0,0,1-8.53,4.42s1.65,3,4,4,2.75,2.48,1.79,4.14-9.22,10.77-12.66,13.94a15.08,15.08,0,0,1-7.57,4c-1.51.42-4.26,1.93-1.23,5.38s10.18,4.7,17.33,2.63,14-10.49,14-10.49-1.52,12.14-1.52,17.8.69,12.14,1.65,15.46a24.52,24.52,0,0,0,1.92,5s4.82-2.75,8.13-11.18S323,220.25,323,217.77s.13-3.87,2.34-2.62a23.41,23.41,0,0,0,4.68,2.34,9.3,9.3,0,0,0,1.38.14A59,59,0,0,1,330,207c0-4.55,1.51-14.49,3.44-16.29s2.29.68,2.48,1.8a8.1,8.1,0,0,0,5.23,6.07c.94-6.7,2.39-12.21,8-18.08,1-1.06,1.65-2.48,5.1-1.11,5.07,2,11.59,3.32,16.7,1.34s8.79-7.25,7.65-7.82c-.27-.14-7.84,3.73-13.75,1.79s-8.68-3.86-5.23-7.45,4.95-4,11.83-9.66S383.79,149,389.85,150s7.15,4.55,7.7,5.24,3.17,2.76,3.17-2.2-2.34-11.6-7.15-13.8" style="fill:#e8b326"/><path d="M328.94,237.1a62.56,62.56,0,0,1-3.36-6.52,31.6,31.6,0,0,1-1.45,4.61c-1.25,3.42-4.81,8.3-4.81,8.3s2.83-.59,6-1.58a16.92,16.92,0,0,0,5.34-2.83,6.65,6.65,0,0,1-1.71-2" style="fill:#e8b326"/><path d="M304.44,218.46a30.46,30.46,0,0,1-6.39,9.36c-4.41,4.35-7.71,3.82-7.71,3.82a26.23,26.23,0,0,0,3.75-2.44c3.29-2.3,6.59-9,6.59-9-3.62,2.18-11.94,4.24-16.33,3.36,0,0-.66,1.52-1.71,4.22a56.53,56.53,0,0,1-5.8,9.88c-1.65,2.17-.4,2.5-.4,2.5s.79.92,11.2,3.82a49.75,49.75,0,0,0,19.76,1.25s-.39-.93-2.17-8-.79-18.71-.79-18.71" style="fill:#e8b326"/><path d="M175.69,145.47a3.6,3.6,0,1,0,3.59-3.3,3.45,3.45,0,0,0-3.59,3.3" style="fill:#e8b326"/><path d="M171.71,139.28c3.28-.08,5-1.62,8.65-1.28,4.27.41,10,2.9,17.06,6.63a29.19,29.19,0,0,0,19.71,1.71,27.91,27.91,0,0,0,5.75-2.68c8.53-4.83,6.47-14.35,6.47-14.35A33.46,33.46,0,0,1,208,135.79a20,20,0,0,1,1.79,1.66c1.24,1.24,3.5,2.69,2.75,3.32s-3.85-2.35-6.47-4.29A39,39,0,0,0,193,130c-6.61-1.94-14-2.07-19,.68s-5.36,6.21-4.68,7.59a2.35,2.35,0,0,0,2.36,1" style="fill:#e8b326"/><path d="M264.43,208.8a15.1,15.1,0,0,1-7.57-4c-3.44-3.17-11.7-12.28-12.66-13.94s-.55-3.18,1.79-4.14,4-4,4-4a44,44,0,0,1-8.53-4.42c-3.44-2.48-11.43-9.66-12.53-11.45s-.55-2.07,1.1-2.62a3.21,3.21,0,0,0,2.07-1.66s-3.71-2.34-7.15-5.11-8.12-7.31-8.12-7.31c-5.15,2.07-13.24,1.2-17.61.41A46.83,46.83,0,0,1,185.87,146a24.62,24.62,0,0,1-1.24,3.59c-1,2.35-4.54,3.73-8.12,1.38s-2.75-7.45-2.75-7.45a54.91,54.91,0,0,0-8.8-4c-5.92-2.21-10.73-2.49-15.55-.28s-7.16,8.83-7.16,13.81,2.62,2.9,3.16,2.2,1.65-4.28,7.71-5.24,11.56,1.93,18.44,7.59,8.39,6.08,11.83,9.66.69,5.52-5.23,7.45-13.48-1.93-13.76-1.79c-1.14.57,2.55,5.83,7.65,7.82s11.63.7,16.7-1.34c3.44-1.37,4.08,0,5.09,1.1,5.59,5.88,7,11.38,8,18.08a8.1,8.1,0,0,0,5.23-6.07c.19-1.12.55-3.59,2.48-1.8S213,202.45,213,207a59,59,0,0,1-1.37,10.63,9.35,9.35,0,0,0,1.38-.14,23.17,23.17,0,0,0,4.68-2.35c2.2-1.24,2.34.14,2.34,2.63s.82,7.18,4.13,15.59,8.12,11.18,8.12,11.18a23.9,23.9,0,0,0,1.93-5c1-3.31,1.65-9.8,1.65-15.46s-1.52-17.8-1.52-17.8,6.88,8.42,14,10.49,14.31.83,17.34-2.62.27-5-1.24-5.38" style="fill:#e8b326"/><path d="M217.38,230.58a63.67,63.67,0,0,1-3.36,6.52,6.76,6.76,0,0,1-1.71,2,16.92,16.92,0,0,0,5.34,2.83c3.16,1,6,1.58,6,1.58s-3.56-4.88-4.81-8.3a32,32,0,0,1-1.45-4.61" style="fill:#e8b326"/><path d="M260.33,227.75c-1.06-2.7-1.71-4.22-1.71-4.22-4.39.88-12.72-1.18-16.34-3.36,0,0,3.29,6.71,6.59,9a26.6,26.6,0,0,0,3.75,2.44s-3.29.53-7.7-3.82a30.32,30.32,0,0,1-6.39-9.36s1,11.59-.79,18.7-2.17,8-2.17,8a49.7,49.7,0,0,0,19.76-1.25c10.41-2.9,11.2-3.82,11.2-3.82s1.25-.33-.39-2.5a56,56,0,0,1-5.79-9.88" style="fill:#e8b326"/><path d="M223.83,488.55c2.2.73,6.29-.87,8.34-3.36s2.78-6.3,4.24-8.49,2.52-3.82,2.52-3.82a32.89,32.89,0,0,1-2.25,8.47A31.09,31.09,0,0,0,235,495c.88,5.41,4.39,6.29,6.44,5.56,1.55-.55,3.91-3,6.07-6.55.68-1.14,1.16-2.72,1.83-4,1.39-2.63,2.63-6.95,3.25-6.82,1.36.26.49,3.31,0,5.36-1,4.1-3.07,10.1-3.22,13.76s.29,10.24,4,10.53,5.56-2.93,7.61-10.39,2.49-9.81,3.37-9.81.88,5.13.88,7.32a36.79,36.79,0,0,0,.33,4.92c.57,4,1.73,8.8,2.89,9.86a4.6,4.6,0,0,0,6.44,0c1.75-1.61,3.22-12.59,3.22-14.78s0-7.32.88-7.32,1.32,2.35,3.37,9.81,3.95,10.68,7.61,10.39,4.1-6.88,4-10.53-2.2-9.66-3.23-13.76.44-3.8,3.23,1.46c.87,1.65,1.77,3.66,2.65,5.07,1.95,3.1,3.84,5,5.25,5.46,2,.73,5.56-.14,6.44-5.56s-3.22-20.93-3.22-20.93l1.76,2.64c1.46,2.19,2.19,6,4.25,8.49s6.15,4.1,8.34,3.36,2.49-4.83.88-12.15-8.2-11.41-12.88-17.27c-4.3-5.38-7.62-14.85-8.12-16.34a54.11,54.11,0,0,0-15.74,11.11C273.7,464,271.6,466.53,271.6,466.53s-2.11-2.52-11.79-12.63A54.26,54.26,0,0,0,244,442.74c-.55,1.25-4.57,10.29-8.92,15.74-2.17,2.71-5.15,4.75-7.27,7.34A24.91,24.91,0,0,0,223,476.39c-1.61,7.32-1.32,11.42.88,12.15" style="fill:#e8b326"/><path d="M223.57,513.35c2.83-2.49,4.29-3.87,4.29-3.87s2.06-1.72,1.54,1.55-1.63,10-.94,12.88,1,5.41,4.63,3.26a22.39,22.39,0,0,0,6.18-5.23c1.71-1.8,3.52-2.57,3.09.26s-1.72,7.13-1.11,12.88,3.43,6.61,7.13,1.71a64.91,64.91,0,0,0,7-11.76c1.12-2.4,3.35-4.46,3.35,0,0,9.61,2.2,23.58,12.79,27.3,10.59-3.73,12.8-17.7,12.8-27.3,0-4.46,2.23-2.4,3.34,0a65.08,65.08,0,0,0,7,11.76c3.69,4.89,6.53,4,7.13-1.71s-.69-10-1.12-12.88,1.38-2.06,3.09-.26a22.43,22.43,0,0,0,6.18,5.23c3.61,2.15,3.95-.34,4.64-3.26s-.43-9.62-.94-12.88,1.54-1.55,1.54-1.55,1.46,1.38,4.3,3.87a12,12,0,0,0,6.72,2.64s1.82-10.08-2.38-16.1-5.75-8-5.75-8a16.43,16.43,0,0,1-4.2-.84,17.87,17.87,0,0,1-3.59-2v5.58s5.15,4.89,6.35,6.36,3.61,3.95.09,1.54-6.44-4.8-6.44-4.8-.69,5.07-2.15,6.36a4.92,4.92,0,0,1-4.37,1.11l-.86-.35-.26,2s3.17,5.93,3.61,8.33-.26,2.14-1.72-.95-4.29-7-5.58-9.18-3.18-3.61-3-.86a24.67,24.67,0,0,1-1.89,9.53,10.69,10.69,0,0,1-1.54,2.4s2,7,2.23,8.25.09,2.75-1,1.11-4.29-8.5-4.29-8.5-4.21-.17-5.41-1.37-3.09-5.83-3.09-5.83-1.72,5.91-3.15,7.81a19.14,19.14,0,0,1-4.74,3.79s-.23,10.28-.47,12.1-.32,2.61-1.09,2.61-.85-.79-1.09-2.61-.47-12.1-.47-12.1a19.21,19.21,0,0,1-4.75-3.79c-1.42-1.9-3.14-7.81-3.14-7.81s-1.89,4.63-3.09,5.83-5.41,1.38-5.41,1.38-3.18,6.87-4.29,8.5-1.29.17-1-1.11,2.23-8.25,2.23-8.25a10.76,10.76,0,0,1-1.55-2.4,24.74,24.74,0,0,1-1.89-9.53c.17-2.75-1.72-1.29-3,.86s-4.12,6.09-5.58,9.18-2.15,3.36-1.71.95,3.6-8.33,3.6-8.33l-.26-2-.86.35a4.92,4.92,0,0,1-4.38-1.11c-1.46-1.29-2.15-6.36-2.15-6.36s-2.92,2.4-6.44,4.8-1.12-.09.09-1.54,6.35-6.36,6.35-6.36v-5.58a17.78,17.78,0,0,1-3.59,2,16.48,16.48,0,0,1-4.2.84s-1.54,2-5.74,8-2.38,16.1-2.38,16.1a12.06,12.06,0,0,0,6.72-2.64" style="fill:#e8b326"/><path d="M212.21,547.65c2.54-1.61,4.73-3.39,10.47-7.2a23.65,23.65,0,0,0,7.85-8h-2c-1.09,0-2-1.53-2.11-3a55.88,55.88,0,0,1,.42-8.3,16.67,16.67,0,0,0-.59-6.61,31.2,31.2,0,0,1-6.16,4.23c-3.71,1.95-5.23,1-5.23,1L213.9,516s-1.6,3.39-3.88,7.36-8.44,8.38-12.82,11.68-9.2,6.78-12.83,8-1.52,3-1.52,3,3.63,3.63,13,5.33,13.84-2.12,16.37-3.72" style="fill:#e8b326"/><path d="M245,544c-3.35-.35-5.35-1.61-6-5.25-.43-2.37.17-11.43.17-11.43a21.33,21.33,0,0,0-2.36,2.46c-1.27,1.52-4.14,1.86-4.14,1.86a17.36,17.36,0,0,1-1.69,3.3,18.62,18.62,0,0,1-6.08,6.52,101.52,101.52,0,0,0-9.37,6.44,56.59,56.59,0,0,1-8.52,6.18,14,14,0,0,0-7.18,9.39c-1.09,4.74-.25,6.26,3.46,6s4.14.09,10.13-1.44,14.52-8.21,20.76-12.19S245,544,245,544" style="fill:#e8b326"/><path d="M261.58,549.51a21.22,21.22,0,0,1-3.46-6.86c-.93-3.64-2.7-10.83-2.7-10.83s-.84,2.29-2.87,6.59a9.86,9.86,0,0,1-5.49,5.34s-.17,1.86-3,5.5a42.2,42.2,0,0,1-11.39,9.57c-4.3,2.53-9.87,6-12.91,10.32s-3.29,8.8-1.85,10.75,3.46-.25,6.32-1.69,11.06-2.71,22.37-8.8,15-19.9,15-19.9" style="fill:#e8b326"/><path d="M266.48,574.82c3.13-4.66,3.63-16,3.63-16s-1.1-.76-2.62-2S263,551,263,551s-1.86,3.89-3.88,7.53-3,4.91-7.26,8.8-10,7.71-12.41,11.85-1.1,12.44.51,15.23,3.88,1.86,6.25-.42,3.12-2.87,7.26-6.43,9.88-8.13,13-12.78" style="fill:#e8b326"/><path d="M358.78,543.08c-3.63-1.27-8.45-4.75-12.83-8s-10.55-7.7-12.83-11.68-3.88-7.36-3.88-7.36l-.93,3.72s-1.52.93-5.23-1a31.09,31.09,0,0,1-6.16-4.23,16.47,16.47,0,0,0-.59,6.6,55.74,55.74,0,0,1,.41,8.3c-.09,1.52-1,3-2.11,3h-2a23.65,23.65,0,0,0,7.85,8c5.74,3.81,7.93,5.59,10.46,7.2s7,5.41,16.38,3.72,13-5.33,13-5.33,2.11-1.7-1.52-3" style="fill:#e8b326"/><path d="M336.16,554.08a56.12,56.12,0,0,1-8.52-6.18,100.27,100.27,0,0,0-9.37-6.43,18.66,18.66,0,0,1-6.08-6.52,17.57,17.57,0,0,1-1.69-3.3s-2.87-.34-4.13-1.86a20.86,20.86,0,0,0-2.36-2.46s.59,9.06.16,11.43c-.64,3.64-2.64,4.9-6,5.25,0,0,4.55,7.87,10.8,11.85s14.77,10.66,20.76,12.19,6.41,1.19,10.13,1.44,4.56-1.27,3.46-6a14,14,0,0,0-7.17-9.39" style="fill:#e8b326"/><path d="M310.51,558.83a42.26,42.26,0,0,1-11.39-9.57c-2.87-3.64-3-5.5-3-5.5a9.88,9.88,0,0,1-5.49-5.34c-2-4.31-2.87-6.6-2.87-6.6s-1.77,7.19-2.7,10.83a21.32,21.32,0,0,1-3.46,6.86s3.71,13.79,15,19.9,19.5,7.37,22.37,8.8,4.89,3.64,6.33,1.7,1.18-6.43-1.86-10.75-8.61-7.8-12.91-10.33" style="fill:#e8b326"/><path d="M291.26,567.37c-4.22-3.89-5.23-5.16-7.26-8.8s-3.89-7.53-3.89-7.53-3,4.48-4.47,5.75-2.62,2-2.62,2,.51,11.34,3.63,16,8.87,9.23,13,12.79,4.89,4.15,7.25,6.43,4.65,3.21,6.25.42,2.95-11.09.5-15.23-8.18-8-12.4-11.85" style="fill:#e8b326"/><path d="M275.23,580.49a36.3,36.3,0,0,1-3.62-4.75,36.92,36.92,0,0,1-3.62,4.75c-2.72,3.17-9.05,8.15-9.05,8.15s.56,8.38,3.62,12.9c2.57,3.82,5,7.31,9.05,10,4-2.65,6.48-6.14,9.05-10,3.06-4.52,3.62-12.9,3.62-12.9s-6.34-5-9.05-8.15" style="fill:#e8b326"/><path d="M502.08,477.54a8.78,8.78,0,0,1-3.6-1.56s-1.08-.12-1.93,1.44-4.08,3.59-4.08,3.59-4.55,1.21-5.16,4.33,1.56,4.2,3.72,3.84,7.44-1.44,9.71-4.2a16.68,16.68,0,0,0,3.12-5.41c.48-1.08.72-1.44-1.8-2" style="fill:#005c94"/><path d="M509.16,452.7c-1.64-6.94-6.12-15.52-14.76-19.81,0,0-3.24,11.41-4.2,15s-1,3.48,1.8,4.2,11.64,2.64,13.43,3.12,4.8,2,3.73-2.52" style="fill:#005c94"/><path d="M468,446.22c2,.36,1.8-.48,2.52-3.24s4.32-16.44,4.32-16.44-9.12-.36-17,3.48a26.53,26.53,0,0,0-11.4,10.92,52.6,52.6,0,0,0,7.45,2c5.4,1.2,12.12,2.88,14.16,3.24" style="fill:#005c94"/><path d="M446.87,465.06c-3.23-.6-4.44-1-4.44-1s2,7.79,5.4,12.12,7.08,6.48,14,6.6,12.24-3.72,13.08-6.72a22.11,22.11,0,0,1,2.28-5.28s-12.6-1.69-17.76-2.89-9.36-2.28-12.6-2.88" style="fill:#005c94"/><path d="M346.17,312.61c-3.21-19.5,8-36.68,8-36.68l-21.88-25.58c-16.86,9.47-40.32,8.2-60.7-1.18-20.39,9.38-43.85,10.65-60.7,1.18L189,275.93s11.24,17.18,8,36.68S187,363,188.68,375.55s10.62,27.16,19.75,34.81,22.71,14.07,32.34,17.53,19,10.12,23.45,13.58a86.91,86.91,0,0,1,7.41,6.42,86.92,86.92,0,0,1,7.41-6.42c4.45-3.46,13.82-10.12,23.45-13.58s23.21-9.87,32.34-17.53,18-22.22,19.75-34.81-5.18-43.45-8.39-62.95" style="fill:#de6e0f"/><path d="M301.51,202.31c-3.2,3.68-11,7.2-11,7.2l-.16.64a22.34,22.34,0,0,0,6.24-2.32c3.12-1.76,7.68-5.76,8.64-7.36a2.22,2.22,0,0,0-.16-2.73s-.32.88-3.52,4.56" style="fill:#de6e0f"/><path d="M315,209.75c0,2.16-.81,16.72-.81,16.72,0,.67-.27,5.09-1.41,5.69.58.11,1.71.3,2-2,.4-2.72,3.13-21.3,3.13-21.3l-1.6-.72s-1.35-.56-1.35,1.6" style="fill:#de6e0f"/><path d="M339.51,172.83c-1.38.39-4.75,2.87-6.54,4.36s-3,1.48-4.66,2.28-1.09-2.87-.09-5.84,4.35-6.54,6.93-9.41-.1-2-1.29-.79a52.85,52.85,0,0,0-7.23,9.41c-3.27,5.25-5.05,17.13-5.05,17.13s2-1.18,4-2.57,4.16-2.57,7.93-5.35a49.66,49.66,0,0,0,7.92-7c2-2.17-.49-2.57-1.88-2.17" style="fill:#de6e0f"/><path d="M241.46,202.31c-3.2-3.68-3.52-4.56-3.52-4.56a2.2,2.2,0,0,0-.16,2.72c1,1.6,5.52,5.6,8.64,7.36a22.34,22.34,0,0,0,6.24,2.32l-.16-.64s-7.84-3.52-11-7.2" style="fill:#de6e0f"/><path d="M228.73,226.47s-.8-14.56-.8-16.72-1.36-1.6-1.36-1.6l-1.6.72s2.73,18.57,3.13,21.3c.34,2.29,1.47,2.1,2,2-1.14-.59-1.37-5-1.42-5.69" style="fill:#de6e0f"/><path d="M209.1,163.41c-1.19-1.19-3.86-2.07-1.29.79s5.94,6.44,6.93,9.41,1.59,6.63-.09,5.84-2.87-.79-4.66-2.28-5.15-4-6.54-4.36-3.86,0-1.88,2.17a49.65,49.65,0,0,0,7.92,7c3.77,2.77,5.94,4,7.92,5.35s4,2.57,4,2.57-1.78-11.88-5.05-17.13a52.79,52.79,0,0,0-7.23-9.41" style="fill:#de6e0f"/><path d="M271.32,501.41c.35.07.42-.83.49-2.51a76.41,76.41,0,0,1,.7-8.09c.42-2.37-.63-2.23-1.26-2.09s-1,2-1,3,.27,7,.27,8.3.42,1.32.77,1.39" style="fill:#de6e0f"/><path d="M313.73,479.9c1.66,3.39,2,3,1.3.14a28.29,28.29,0,0,0-3.33-7.94,39.85,39.85,0,0,0-5.63-6.29,30,30,0,0,0,2.6,4.48c1.52,2.09,3.39,6.21,5.05,9.6" style="fill:#de6e0f"/><path d="M297.7,482.79c.65,2.24,4,8.45,4.4,8.23s-1.37-5.56-2.53-9.24-3-6.5-3.32-6.35.28,2.31.28,2.31.51,2.82,1.16,5.06" style="fill:#de6e0f"/><path d="M285.06,493c.72,1.59,1.59,3.54,1.95,3.25s-.86-3.54-1.08-4.48a17.61,17.61,0,0,0-1.37-5.2c-1.08-2.16-1.52-1.15-1.52-.29a41.45,41.45,0,0,0,1.3,5.05s0,.07.72,1.66" style="fill:#de6e0f"/><path d="M229.36,479.9c1.66-3.39,3.54-7.51,5.05-9.6a30.18,30.18,0,0,0,2.6-4.48,40.05,40.05,0,0,0-5.63,6.29,28.16,28.16,0,0,0-3.32,7.94c-.72,2.82-.36,3.25,1.3-.14" style="fill:#de6e0f"/><path d="M245.39,482.79c.65-2.24,1-3.73,1-3.73s.65-2.17.29-2.31-2,1.35-3.18,5-2.89,9-2.53,9.24,3.76-6,4.41-8.23" style="fill:#de6e0f"/><path d="M258,493c.72-1.59.72-1.66.72-1.66a41.45,41.45,0,0,0,1.3-5.05c0-.86-.43-1.87-1.52.29a17.77,17.77,0,0,0-1.37,5.2c-.21.94-1.44,4.19-1.08,4.48s1.23-1.66,2-3.25" style="fill:#de6e0f"/><path d="M218.79,531.48l-1.69-1a36.19,36.19,0,0,1-2.45,2.88c-1.43,1.52-3,2.12-4.14,3.56a16,16,0,0,1-5.4,4.57c-2.62,1.36-3.63,1.78-3.12,2.2s2.28-.59,2.28-.59.76-.09,3.88-1.95a30.41,30.41,0,0,0,5.91-4.66,58.31,58.31,0,0,0,4.73-5" style="fill:#de6e0f"/><path d="M232.46,547.65c1.18-1.27,2.45-2.12,1.77-2.8s-1.52-.59-2.62.34-4.21,3.89-5.65,5.16-2.62,2-4.05,3.13a63.47,63.47,0,0,1-6.07,3.64c-1.52.85-.09.94-.09.94a20.8,20.8,0,0,1,2.45-1c1.26-.42,4.89-2,4.89-2a25.66,25.66,0,0,0,3.38-2,49,49,0,0,0,6-5.33" style="fill:#de6e0f"/><path d="M248.25,558.57c1-2-.09-1.44-1.77-.76s-5.49,4.82-7.68,6.35a40.5,40.5,0,0,1-5.91,3.05c-1.86.93-1.86,1.43-1.77,1.86s.84.42,1.6.09,3.38-1.86,3.38-1.86a12.08,12.08,0,0,1,2.11-.43c1-.08,2.45-1.19,4.73-3.13s4.3-3.13,5.32-5.17" style="fill:#de6e0f"/><path d="M255.59,573c-2.79,1.7-7.59,5.5-8.86,8s-2.11,4.31-1.69,4.74,1.77-.43,2.36-1.44a25.19,25.19,0,0,1,1.86-2.54s4.81-4.74,6.58-5.84,4.64-4.23,5.32-6.09a3.86,3.86,0,0,0,.17-2.87s-3,4.31-5.74,6" style="fill:#de6e0f"/><path d="M338,541.47a16,16,0,0,1-5.41-4.57c-1.1-1.44-2.7-2-4.14-3.56a36.18,36.18,0,0,1-2.45-2.88l-1.69,1a57.62,57.62,0,0,0,4.73,5,30.64,30.64,0,0,0,5.91,4.66c3.13,1.86,3.88,1.95,3.88,1.95s1.78,1,2.28.6-.5-.85-3.12-2.2" style="fill:#de6e0f"/><path d="M327.3,557.13a63.08,63.08,0,0,1-6.08-3.64c-1.43-1.1-2.61-1.86-4-3.13s-4.56-4.23-5.66-5.16-1.94-1-2.62-.34.59,1.53,1.77,2.8a48.7,48.7,0,0,0,6,5.33,26.09,26.09,0,0,0,3.38,2s3.63,1.61,4.89,2a20.88,20.88,0,0,1,2.45,1s1.44-.09-.09-.94" style="fill:#de6e0f"/><path d="M310.25,567.21a40.51,40.51,0,0,1-5.91-3.05c-2.19-1.52-6-5.67-7.68-6.35s-2.78-1.27-1.77.76,3,3.22,5.32,5.16,3.71,3,4.73,3.13a12.19,12.19,0,0,1,2.11.43s2.62,1.52,3.38,1.86,1.52.34,1.6-.08.09-.93-1.77-1.86" style="fill:#de6e0f"/><path d="M287.55,573c-2.78-1.69-5.73-6-5.73-6a3.84,3.84,0,0,0,.17,2.88c.68,1.86,3.54,5,5.32,6.1s6.59,5.84,6.59,5.84a26.37,26.37,0,0,1,1.86,2.54c.59,1,1.93,1.87,2.36,1.45s-.43-2.2-1.69-4.74-6.07-6.35-8.86-8" style="fill:#de6e0f"/><path d="M270.24,590.74c.25,1.94.09,6.86,1.27,6.86s1-4.92,1.27-6.86.34-6.61.34-6.61H269.9s.09,4.66.34,6.61" style="fill:#de6e0f"/><path d="M344.05,314.93c-3.17-21.06,6.33-38,6.33-38l-19.75-22c-16.69,8.57-37,6.36-59.08-1.3-22.1,7.66-42.39,9.88-59.08,1.3l-19.75,22s9.5,17,6.34,38-8,44.91-7.09,58.89q.1,1.44.3,2.93h18a8.84,8.84,0,0,1,3-2.07,9.1,9.1,0,0,0,2.57-1.44s.38-3.63,2.57-4.4a10.35,10.35,0,0,1,4-.77,3.23,3.23,0,0,0,2.57-1.24c1.05-1.05,3.9-3.63,5.14-7.26s2-5.07,2-7.46a37,37,0,0,1,.86-6.21s-.48-1.15-2.29-.48-2.1-1.15-2.29-3-.1-5.54,1-7.26,1.43-2.3,1.43-2.3l-.77-2.86s-11.43,2.29-13.43-6.6-2.39-13.19-2.67-14.14-.57-1.44-2.09-1.34-4.77-1-7.05-5.55-2.48-6.5-1.81-8.31,1.91-1.14,2.29-.58,3.43,5,4.67,3.73.57-1.24-1.14-4.68-1.14-4.58-1-6.31-.57-4-.57-5a1.45,1.45,0,0,1,2.1-1.24,7.56,7.56,0,0,1,2.48,1.82c.47.57.66,1.44,1.62.86s.38-3.73.38-4.78,1.24-1.82,2.77-1a4.49,4.49,0,0,1,2.29,3.63c0,1.15.1,2.2.66,2.2s1.24-1.72,1.34-2.87.76-2.87,1.81-1.43a7.6,7.6,0,0,1,1.05,5.73c-.38,2.2.38,1.05-.38,4.88s-1.14,5.54-1,8.41a19.15,19.15,0,0,0,1.62,8c1.43,3.54,2.57,7.64,5.24,7.74s3.43.09,3.43.09,3-5.73,5.24-7.07,5.52-1.53,7.81-1.82,3.23-1,3.23-1.53-.76-.76-3.52-1.14-5-1.05-5.14-3.16.47-3.91-1.34-4-6.29-1.54-7.91-4.49-1.24-3.63-1-5.25,2.29-4.87,3.62-1.82,2.2,3.44,3.34,4.11,2.66.86,1.91-1.25-1.24-3.43-1.05-5a2.84,2.84,0,0,1,2.48-2.49c1.24-.29,5-1.44,6.86-1.82s2-.57,2-.57.19-1.34,2.67-2.11a18,18,0,0,1,5.91-.86c1.8,0,3.14.29,5.52-.86a11.39,11.39,0,0,1,5.81-1.24,7.45,7.45,0,0,1,3.81,1.43c1.14.77.76,1.82.76,2.87s.19,1.63,1.81,1.63a12.35,12.35,0,0,1,4.57.57c1.53.58,3.63,1.43,2.29,3.06s-1.42,3.44-2.29,3.35-.76.86-1.14,1.43-.67,1.05.29,1.63,1,1.14,2.38,2.39,3.33,2.58,1.33,4.59a22.87,22.87,0,0,1-5.52,3.63s-2,.95.29,2.29,3.34,4.11,4.19,4.59,1.71,1.24,2.29,1.53.48,2.2.48,2.2a21,21,0,0,1-8.09,3c-1.62,0-2.48,0-1.81,1.53s1.81,3.16,2.09,4,.67,2.39.67,2.39a28.4,28.4,0,0,0,5,.57,56.66,56.66,0,0,0,8.67-.48c5.24-.57,6.77-.76,11.82-.19s5.81.39,7.14.86a27.74,27.74,0,0,1,2.66,1.15,74,74,0,0,0,11.05-1c3.91-.86,4.86-3.35,4.29-4.68s-.48-3.34-7.34-4.3-9.62-.57-15.05-1.63-13.91-3.82-15.43-10.61,4-9.65,6.77-11,8.76-3.44,11.53-4.59a26.61,26.61,0,0,1,13.15-1.53c5.33.77,8.38,2.2,10.48,1s3.81-.29,3.43,1.62-2.48,5.83-8.48,7.65-13.24,2-17.14,1-6.86-2.58-9.24-1.73-5.05,3.82-2.48,7.36,15.72,4.59,19.25,5,16.57-.57,20.29,5.92.76,13.76-3.62,15.39A56.56,56.56,0,0,1,322.78,328l-3.34.48S321,332,321,333.39s-.19,4.11,1.43,5.15a10.16,10.16,0,0,0,6.67,1.53c2.76-.28,6.1,1.63,6.29,4.11s1,5.92,1.23,10.89a79.07,79.07,0,0,1,0,9.08,17.11,17.11,0,0,1-.86,3.73c-.67,1.82-4.1,8.86-4.1,8.86h19.18q.21-1.48.31-2.93c.93-14-3.91-37.83-7.08-58.89" style="fill:#005c94"/><path d="M194.57,386.08a54.93,54.93,0,0,0,23.31,28.73c16.4,9.88,23.48,8.57,39,18.64s14.54,11.74,14.72,11.74-.75-1.68,14.72-11.74,22.55-8.76,38.95-18.64a54.93,54.93,0,0,0,23.31-28.73Z" style="fill:#618c30"/><path d="M208,303.08a5.84,5.84,0,0,0,5.75,2.14c2.69-.29,3.34,1.67,3.8,3.8s.46,7.14,2.41,11.77,8.43,4.91,8.43,4.91a28.8,28.8,0,0,1,1.95-7.69c.17-.44,1-2.51-1.3-2.51s-2.22-.93-3.61-3.15a43.48,43.48,0,0,1-4.73-12c-.65-3.8.55-9.45,1.2-11.49s.75-3.43,0-3.8a4.2,4.2,0,0,0-2.22,0s.55,1.76-.09,2-1.2-.93-1.66-2.22-1-1.11-1.95-1-.93.93-.28,1.86a3.92,3.92,0,0,1,.28,2.59,27.07,27.07,0,0,0-2.87-1.85c-.83-.37-2.78.37-3,1.48a7.64,7.64,0,0,0,2.5,5.46c1.76,1.49,1.76,4.54,1.2,5.94s-3.15,1.2-3.71.55a1.58,1.58,0,0,0-2.41,0c-.74.83-1.48,1.3.28,3.15" style="fill:#e8b326"/><path d="M207,298.17a13.42,13.42,0,0,1-1.39-1.29c-.37-.47-1.11-1.49-1.11-1.49a4.71,4.71,0,0,0-.19,1.58,4.18,4.18,0,0,0,1.21,2.32Z" style="fill:#e8b326"/><path d="M210.85,285.29c.83-.37,1.48-.56.83-1.48s-1.2-1.95-1.86-2.13a3,3,0,0,0-1.2-.09,15.79,15.79,0,0,1,.93,2.69c.19,1,.46,1.39,1.3,1" style="fill:#e8b326"/><path d="M215.67,281.4c-.09.84.09,1.21.83.84a1.63,1.63,0,0,0,.65-2.13,4,4,0,0,0-1.2-1.29l-.55-.38a16.65,16.65,0,0,1,.28,3" style="fill:#e8b326"/><path d="M222.62,282.51a5.18,5.18,0,0,0-.28-1.95,3.63,3.63,0,0,1-.46,1.76c-.46.65-.37.46.09,1s.55.09.65-.84" style="fill:#e8b326"/><path d="M233.51,329.62c1.36,3.16,4.83-1.79,8-5.79s3-.95,2.62,2.31a15.34,15.34,0,0,0,2.1,9c1.26,2.2,2.3.94,2.83-.64s.95-4.84,2-6.42,2.1-.21,2.2,1.16,1.78,4.42,3.36,6.21,2.31-.63,2.83-2.84,1.15-5.58,1.58-7,1.89-.21,1.89-.21,1.05,1.05,3.15,3.05,2.3-1.16,2.52-2.73-.32-5.05.32-5.59,2.41.74,5.14,2.11,2.63-1.27,2.31-2.74a15,15,0,0,0-4.1-6.73c-2.2-1.89-2.52-4.11-1.78-5.05s3.36-.11,5-.31,2.52-.42,3.78-.62a1.51,1.51,0,0,0,1.26-1.48,14.76,14.76,0,0,0-2.73-3.15c-1.79-1.58-2.83-2.84-5-3.37a15.87,15.87,0,0,0-5.24,0l-.32-.63c-.31-.63-.94-.63-1.36,0a15.71,15.71,0,0,1-2.31,2.21c-.84.74-1.36,1.16-1.89.84s.42-1.05.42-1.05a8.45,8.45,0,0,0,2.21-2.95c1-2.11,1.36-4.11.52-5.05s-3.15,0-4.41,0-2,.21-2.1-.42,1.26-.31,2.83-.53,2.52-2.11,3-3.68.95-1.37,1.89-.42,1.79.74,2,.1a21.23,21.23,0,0,1,2.1-3.79c1-1.58,1.68-3.79.52-5.26s-4-1.27-5.14-.31a5.6,5.6,0,0,0-2.2,4.2c-.32,2.32-.95,1-.95.31s-.95-1.89-.52-2.84a3.56,3.56,0,0,0-2.41-4.42,17.17,17.17,0,0,0-6.93.63,2.06,2.06,0,0,0-1.78,2.43s-1.68.1-3.46.31a48.51,48.51,0,0,0-5.56,1.36c-1.68.43-2.31.63-2.31,1.47a12.92,12.92,0,0,0,.32,2.22,5.37,5.37,0,0,1,2.1.41c.73.43.32,1.16-.52,1.48s-1.16.42-1.16,1.47.42,1.27,1.26,1.27a11,11,0,0,1,4.72.94,3.75,3.75,0,0,1,2.41,3.89c-.21,1.05-3.15,2.42-4.62,2.42s-1.89.32-1.89,1.27,1.79.85,1.79.85,1.78.1,5.24.52,4,1.16,5.56,2.53.42,1.68-.32,2.11a20,20,0,0,1-3,1.79c-1.16.41-1.89,1.26-2.94,1.47a29.1,29.1,0,0,0-8.5,2c-4.83,1.89-6.51,8.21-6.51,8.21a26.35,26.35,0,0,0,2.83-1.37c2.2-1.16,4.93-2.42,7.45-4s2.52.74,1.26,2.95,1.15,1.79,1.89,1.16a20.37,20.37,0,0,1,4.09-2.53c2.41-1.26,1.57.74,1.57.74a14.21,14.21,0,0,0-.94,4.95c-.21,3.47,3.46.21,5.14-2s2.41,0,1.15,2.53-3.67,4.52-5,4.52a2.92,2.92,0,0,1-2.52-2.31c-.1-.84.42-3.37-.41-4s-3.26.11-5,1.15-2.2.21-2.62-.73.63-1.26.21-1.89-1.36,0-2.1.31-2.41,1.27-5.66,2.95-3,2.63-3,5,.63,2.84,2,6" style="fill:#e8b326"/><path d="M265,276.94a15.11,15.11,0,0,1,1.92-.93s1.55-.37,3-.56,1.18-1,.86-1.67-.86-.93-2.71-.93-3,.93-4.09,1.36a19.32,19.32,0,0,1-2.29.75s.25.31.93,1.3a1.78,1.78,0,0,0,2.42.68" style="fill:#e8b326"/><path d="M272.55,284.44a3.84,3.84,0,0,0,1.55-.44,25.89,25.89,0,0,1,2.61-1.11,3.33,3.33,0,0,0,2.47-2.11c.74-1.49-.8-1.49-3-2s-3.23.18-3.47,1a10.8,10.8,0,0,1-1.05,3.29c-.87,1.55.12,1.43.87,1.43" style="fill:#e8b326"/><path d="M271.86,286.36c-2.1,0-4.46,3.16-5.32,3.72s-.37,1.11-.37,1.11a12.74,12.74,0,0,1,.86,2.54,26,26,0,0,1,.31,3.35,5.07,5.07,0,0,0,1.55.13c1.24,0,2-.62,3.16-1.49a8,8,0,0,1,3.78-1.49,12.32,12.32,0,0,0,4.33-1.61c1.86-1-1-2.73-3-4.34a7.14,7.14,0,0,0-5.33-1.92" style="fill:#e8b326"/><path d="M243.84,293.63c1.67-.18,2.41-1,2.41-1.95s-.84-1.95-3-1.76c-5.22.47-10.29-1.41-11.21-6.58,0,0-1.76,3.24,1.48,6.86s8.62,3.61,10.29,3.43" style="fill:#e8b326"/><path d="M226.06,375.83a2.24,2.24,0,0,0,.92.92h8c1.36-.38,1.37-1.64,1.44-2.5.08-1,.87-4,2-9.28a63.9,63.9,0,0,1,3.8-11.25c.79-2.14-.79-2.86-1.34-4.21a35.86,35.86,0,0,1-1.66-4.91c-.24-1.19-2.14-1-3.16-1s-1.19,1.75-1.34,3.33-.87,6.26-1.66,10.3-5.37,9.43-6.64,10.62a4.9,4.9,0,0,1-3.16,1.67,8.88,8.88,0,0,0-3.72.55,4.73,4.73,0,0,0-2,3.25c-.08,1.19,1.82,1.83,1.82,1.83a9.31,9.31,0,0,0,2.05-1.59c.55-.71,1.82-.87,3.08-1.11s1.42.23.95.86-.32.8.63,2.46" style="fill:#e8b326"/><path d="M213.81,375.43a2.75,2.75,0,0,0-1.32,1.31h5.23a2.8,2.8,0,0,0-.51-1.31c-.63-.79-2.29-.4-3.4,0" style="fill:#e8b326"/><path d="M220.92,375.27a5.64,5.64,0,0,0-1.8,1.47h5.63a1.47,1.47,0,0,0-.43-1.79c-1.27-1-2.53-.16-3.4.32" style="fill:#e8b326"/><path d="M269.74,372.94c-.62,0-1.16.55-2,1.16a3.37,3.37,0,0,0-1.29,2.32.5.5,0,0,0,0,.33h2.39a.43.43,0,0,0,.16-.33c0-.68.27-1.3,1.29-2.18s.07-1.29-.54-1.29" style="fill:#e8b326"/><path d="M274.42,375.53c0-.75-.27-1.43-.82-1.36s-1.43,1-2.17,1.57a4.85,4.85,0,0,0-1,1H274a3,3,0,0,0,.41-1.22" style="fill:#e8b326"/><path d="M296.16,349.58c1.7-1.23,1.43-1.57,1.49-2.86s.07-1.7-.61-2.18a11.73,11.73,0,0,0-5.56-1.57c-2.38,0-6.87.54-8.56,1.7s-2.52,5.31-2.52,7.49.34,2.52,1,2.52,1.63-1.57,1.63-1.57,2.24,2.93,3.6,5,.75,2.86.14,4.42-2.85,5.73-4.62,6.61-3.13.06-5.23-.27a4.53,4.53,0,0,0-4.48,1.5c-1.22,1.22-.07,2.18.68,2.18a2.85,2.85,0,0,1,2.58.95c.56.71.18,2.32-.11,3.26H286c1.77-.79,3-3.23,3.48-4.55.55-1.5,2.79-3.47,3.88-4.49s1.22-1.71,1.22-4a9.78,9.78,0,0,0-1.43-5.11,9.29,9.29,0,0,1-1.15-5.11c.27-1.3,2.52-2.73,4.21-3.95" style="fill:#e8b326"/><path d="M279,323.6c1,1.69.52,2-1,2.34a17.08,17.08,0,0,1-5.45.39c-2.33-.2-2.27.13-2.33,1.3a10.21,10.21,0,0,1-1.62,5.45c-1.36,1.82-3.05,1.11-4.09.39s-1.62-.52-2,.77a22,22,0,0,1-2.2,4.15c-1.11,1.95-1.82,2-2.6,1.82s-1.49-1.36-2.27-1.43-2-1.62-3.18-3.5-1.75.19-2.52,1.82-1.56,2.79-3.05,2.59-3.18-3-4-4.67-1.36-3.31-2.66-3.25-3.44,2.79-4.87,3.5-1.81.46-2.46-.45-1.49.33-2.34,2.47.07,4,1.23,4.54,3.5-1.11,5.06-2.14,2.27-.77,3.89-.77,1.49,2.66,2.2,6.55,3,4.41,3,4.41.78.65,2.53-2.34,1.95-5.91,3.64-5.91,1.82.39,3.5,2.73,3.11,4.09,4.09,2.34,1.82-4.35,2.92-5.25,2.14-1.17,1,.52-1.69,3.5.71,2.79,11.55-4.41,15.25-5.12c0,0,4.35-.71,9.34-1s6.23-.59,8.18-.59,2-.2,2.14-1.49-.91-1-4.54-1a51,51,0,0,0-8.7.85c-2.53.39-3.7.32-3.25-.32s1.17-1.11,4.09-1.55a119.72,119.72,0,0,1,12-.85c3.11-.06,2.14.91,1.88,3s.26,5.13.46,7.07.25,2.53,1.94,5.25,7.52,4.41,9.21,5.32,1.43,0,1.36-1.62,1.3-1.55,2.79-.71a26.46,26.46,0,0,0,5.71,2c1.75.45,2,.77,2,1.68s.2,2.92.39,4.8.13,2.46-.65,3.63a58.94,58.94,0,0,1-4.09,4.54,22.24,22.24,0,0,0-4.67.79c-3.18.78-4.15,2.27-4.48,3.57s.59,1.68.72,2.21a7.24,7.24,0,0,1,0,1.55h.73a17.23,17.23,0,0,1,1.14-1.69c1.11-1.43,3.9-1.75,5.71-.91a2.25,2.25,0,0,1,1.08,2.6h7.27c1-1.89,3.3-6.42,3.91-7.79a11.61,11.61,0,0,0,1.3-5.25c.07-2.4.32-11.68-.13-12.2s.13-2.08,0-4.67,0-4.54-4.8-5-6.29-2.46-7.92-4.09-1.23-5.38-2.53-9.92-4.48-5.26-10.12-6.36a46.9,46.9,0,0,0-14-.84c-4.22.39-9.47,1-12.39.71s-2.46.58-1.43,2.27" style="fill:#e8b326"/><path d="M306.29,375.72a3.51,3.51,0,0,0-1,1h4.91a1.92,1.92,0,0,0-.48-1.42c-.75-.9-2.18-.39-3.38.39" style="fill:#e8b326"/><path d="M315.07,375.38a4.42,4.42,0,0,0-1.62,1.36h5a2,2,0,0,0,0-.58c-.15-.78-1.65-1.62-3.32-.78" style="fill:#e8b326"/><path d="M192.55,378.49a47.34,47.34,0,0,0,1.09,4.67H349.47a46.21,46.21,0,0,0,1.08-4.67Z" style="fill:#e8b326"/><path d="M297.55,304c4.92,3.28,20.55,3.45,27.89,4.92s6.82,7.08,4.58,10-12.57,3.29-14.42,3.54a15.45,15.45,0,0,1,2.5,2.85l4.23-.34c3.11-.26,8.55-1,12.27-4.14s3.45-8.11.17-11.48-8.72-3.71-14.25-4.32-9.84-1-16.06-2.07-9.24-3.54-9.24-7.17,3.37-5.53,5.79-6.22,6.3-1.72,9.75-.43,7.52,1.46,14.34.61,8.38-5.62,8.38-5.62-.87.43-4.32.52-6-1.46-12.26-1.55-8.55,2.16-11.49,3.2-10.79,1.82-13.12,6.91.34,7.52,5.27,10.8" style="fill:#e8b326"/><path d="M256.59,277.63a2.89,2.89,0,1,0,2.93,2.9,2.91,2.91,0,0,0-2.93-2.9" style="fill:#de6e0f"/><path d="M319.75,285.49a38.13,38.13,0,0,0-9,.69,3.48,3.48,0,0,0,2.25.7,28.72,28.72,0,0,1,7.43.51,9.61,9.61,0,0,0,6.56-1.12s-3.37-.43-7.25-.77" style="fill:#de6e0f"/><path d="M444.71,460.14c3.13.72,28.8,5.64,31,6.12s4,1,4.56.36,1-1,3.24-1.8a3.25,3.25,0,0,0,2.16-3.12,31.29,31.29,0,0,0,.83-4.32c.25-2.16,1.45-2.88,4-.23s3,6.48,3.48,10.2,6.36,4.68,8.64,5,3.36-.36,4.68-2.52,2-6.48,2.4-9.25.12-2.52-2.76-3.24-16.2-3.71-18.6-4.32-1.91-2.16-1.55-3.84,5.64-18.61,5.64-18.61c-3.76-2.32-9-3.71-15.36-4.44,0,0-3.84,17.28-4.56,19.93s-2.4,2.63-5.16,2.15-22.68-5.15-22.68-5.15L443,446.81a31.08,31.08,0,0,0-2.28,10.44c0,2.28.84,2.16,4,2.89" style="fill:#e8b326"/><path d="M512.87,475.75c-2.65-1.73-4.6-2.19-6,1s-1.49,7.95-4.94,11.28-8.28,6.79-13.1,6.45-7.58-1.5-6.43-7,8.5-7.25,10.23-10.12a6.39,6.39,0,0,0-1.27-8.4c-2.53-2.19-6.2-2.65-7.24-2a15.9,15.9,0,0,0-5.51,7.36c-1.5,4.14-2.41,7.48-5.63,10.13s-11.49,5.29-17.92,3.79-8.73-3.45-11.15-9.78-5.29-16.8-6.55-17.95-2.87-2.07-5.62-.12-3,4.83-3.33,7.14,0,5,2.75,8.29,5.63,6.67,6.66,10.12,4.14,8.75-.23,9-6.32.34-9.65-2.87-16.32-12.08-19.88-15a58.24,58.24,0,0,0-5.05-3.79c-6-.11-12-2.57-18-6.67,0,0,3.45,8.86,4.13,12.19a21.8,21.8,0,0,1,.58,5.17s13.09,6.68,18.27,9.21,15.62,8.52,20.68,11.62,9.31,7.94,18.27,6.1,27.11-7.36,33-9.09,22.06-5.75,28-9.89,6.55-3.91,7.58-8.05,0-6.45-2.64-8.17" style="fill:#e8b326"/><path d="M478.29,413.8c1-.13,1.39-.27,4.45-.66s1.93,2.53,1.39,3.66a57.38,57.38,0,0,1-2.72,5.52c-1.27,2.14.39,2.47,1.26,2.8s2.13.47,4.59,1.14,2-1.14,2.06-2.06.2-5.79.47-7.52,1.86-1.26,2.46-.93,2.13,1.19,3.39,1.86a1.33,1.33,0,0,0,2.13-.8,39.93,39.93,0,0,0,1.39-4c.53-1.93-.66-1.53-1.86-1.53s-2.92,0-4.91-.06-.73-2-.73-2,1.46-2.39,2.59-4.19.73-2.06-.4-2.4-4.65-1.13-5.64-1.4-1.46-.13-1.46.54-.14,4.12-.14,5.46-.13,2.13-1.86,2.2-2.79-.94-4.18-2.46-2-.93-2.13-.33-1.26,5-1.53,6.19.4,1.13,1.39,1" style="fill:#e8b326"/><path d="M378.52,462.49c-1.95-2,3-2.11,5.92-2.11a23.59,23.59,0,0,0,9.24-2.52c1.54-1,4.21-1.46,7.38-3s1.22-2-2-2.84-11.92-4.47-11.92-4.47-4.21,2.28-6.57,3.66a25.59,25.59,0,0,1-10.62,4c-5.11.65-6.65.89-6.89,1.06s1.22,1.38,3.16,4.14,2.75,4.55,5.19,8.7-.41,1.71-2.44-.89a91.8,91.8,0,0,0-6.07-7.38,22.16,22.16,0,0,0-3.74-3.11l-1.62,3.5v1.22c0,1.14-1,6.75-1.3,9s.57,2.28,2.35,3.09,5.35,2.85,14.92,8.86,13.13,10,13.13,10a48.34,48.34,0,0,0,.32-5.21,40.6,40.6,0,0,0-2.19-13.82c-2.11-5.93-4.3-9.84-6.24-11.87" style="fill:#e8b326"/><path d="M356.32,449.21c2.24.45,3.14,1,6.28,1s4.49-1,7.74-1,5.5-1.12,10.77-3.93.22-2-3.48-1.68-13.35-1.12-17.51-2.7-1.12-1.79,0-1.46,1.69.68,10,2.14,11.34-.45,15.59-1.57-1-1.68-1-1.68-15-4.27-22.56-12.68a35.72,35.72,0,0,1-8.29-14.78,63.44,63.44,0,0,1-9.66,9.22,28.32,28.32,0,0,0,1.57,4.88c1.23,2.81,4.82,6.51,4.82,6.51s-4.49-1.8-6.51-3.93a22.47,22.47,0,0,1-3.25-5A106.84,106.84,0,0,1,326.11,431c.56.45,1.26,1,2,1.72a36.1,36.1,0,0,1,6.51,8.3c2.58,4.16.22,3.82-2.13,0s-8.19-7.74-9.31-8.3a2.1,2.1,0,0,0-.44-.16l-1.77.8c-3.18,1.42-6.19,2.7-9.05,3.9a56.55,56.55,0,0,1,7.9,8.13c1.69,2.47,5.16,4.71,6.4,6.4s2.58,3.59,4.26,5.61S342.29,470.75,345,475s1.12-1.12.45-4-1.69-7.07-2.58-10.32,1-1.91,1.34-.11.79,1.91,1.57,5.39,2.8,8.64,3.7,12.23,1.23,1.91,2.13.23a46.16,46.16,0,0,0,2.8-6.4c.56-1.79,1-5.83,1.13-12s-2.92-8.64-2.92-9.54,1.46-1.68,3.71-1.23" style="fill:#e8b326"/><path d="M399.57,462.59a30.89,30.89,0,0,1-5.33,1.62c-1.41.2-2.42.3-2.42.3s2.82,3.94,7,3.94H411s-7.34-4.34-8.25-5.35a2.77,2.77,0,0,0-3.21-.51" style="fill:#e8b326"/><path d="M487.92,457.38a30.32,30.32,0,0,1-.48,4.68c-.36,1.2-1.2,3,.24,3.48s2.76,1.08,3.59.84.48-1.92,0-3.36a12.88,12.88,0,0,0-2.28-4.44Z" style="fill:#e8b326"/><path d="M509,471.3a3,3,0,0,0,2.16,1.56c.72.24,1.68.24,1.68-1.08s.24-3-.84-4.44-1.65-2.49-2.28-.36-1.2,3.24-.73,4.32" style="fill:#e8b326"/><path d="M435.48,457.26c.6.12,2.88.84,2.88.84a34,34,0,0,1,.48-5.64c.48-2.27,1.44-3.84.6-3.84s-1.32.72-1.92,1.68-2.28,1.2-2.88,4,.24,2.88.84,3" style="fill:#e8b326"/><path d="M144.88,362.49a17,17,0,0,1-5.57,2.58s-1.5-.08-1.5.5,1.75,0,3.57-.33,4.33-2.17,5.25-2.84,2.25-1.5,1.83-2.67-1.16.92-3.58,2.75" style="fill:#de6e0f"/><path d="M165.6,373.57c-.5.58-4.49,3.58-4.49,3.58a14.65,14.65,0,0,1-2.59,1.33,2.85,2.85,0,0,0-1.66,1.25s.25.33,1.66-.08,5.58-3.34,6.91-4.5,1.92-1.5,1.42-2-.75-.16-1.25.42" style="fill:#de6e0f"/><path d="M81.55,224.23c.75.91,1.66,2.15,2.07,1.74s-.09-.83-1.07-2S81,222.24,81,222.24a25.33,25.33,0,0,0-2.23-3.07c-.83-.83-2.07-1.24-.5.66s2.57,3.48,3.31,4.39" style="fill:#de6e0f"/><path d="M75.18,238.24c.91.83,1.73,1.57,2.73,2.65s1.74,2.24,2.32,1.66-1.49-1.82-2.4-3A14.91,14.91,0,0,0,75,236.75a19.76,19.76,0,0,0-2.57-1.66,38.15,38.15,0,0,0,2.73,3.15" style="fill:#de6e0f"/><path d="M77.56,260.82c1.58,1.66,3.91,2.16,4.24,1.5s-.16-1.2-1.49-1.86a47.64,47.64,0,0,1-4.55-2.82,23.07,23.07,0,0,1-2.9-2.32c-.74-.75-1.62-1.42-1.9-1.16s2.19,2.91,2.94,3.33a21.56,21.56,0,0,1,3.66,3.33" style="fill:#de6e0f"/><path d="M82.14,278.9c0-.66.16-1-1.17-1.09s-3.16-.33-3.16-.33-2.58-1-2.75-.5,2.16,1.51,3.16,1.67a10.68,10.68,0,0,1,2.83.83c.58.34,1.08.08,1.08-.58" style="fill:#de6e0f"/><path d="M84.14,298.57c-2.83,0-5.25-.67-5.41-.25s1.33,1.09,2.75,1.59a25.42,25.42,0,0,0,5.91.75c1.83.09,2.16-.33,2.08-1.25s-2.49-.83-5.32-.83" style="fill:#de6e0f"/><path d="M106.27,320.07c-.41-.41-1.41-.08-3,.25a27,27,0,0,1-5.66.75c-1.5-.08-4.74-.17-4.74-.17s-1.83,0-1.83.41,2.41.34,5.91.75a22.56,22.56,0,0,0,7.48-.59c1.67-.25,2.25-1,1.83-1.41" style="fill:#de6e0f"/><path d="M115.42,335.4a11.28,11.28,0,0,1-4.32.83,38.19,38.19,0,0,0-4.5.58s-1.5.17-1.25.75.75,0,2.08-.17,2.33,0,4.66-.08a27.27,27.27,0,0,0,5.08-.92c1.41-.25,3-1,2.25-1.92s-2.25.25-4,.92" style="fill:#de6e0f"/><path d="M133.23,347a55.26,55.26,0,0,1-4.82,3.59,14.57,14.57,0,0,1-2.25,1.34c-1.5.75-1.41,1.09-1.16,1.5s1.16-.59,2-.92a32.46,32.46,0,0,0,5-3.33c1.41-1.17,3.24-2.09,2.91-2.92s-.66-.25-1.66.75" style="fill:#de6e0f"/><path d="M103.6,197a34.06,34.06,0,0,0,3.4,4.61c3.07,3.84,1.43.21.66-.77s-5.27-7.36-6.81-9.11-1.75-.88-1,.21S103.6,197,103.6,197" style="fill:#de6e0f"/><path d="M97.12,216.72c.44-.44-.55-.87-2.3-3.07s-5.27-6.7-5.27-6.7-1-2.09-1.32-1.87,1.21,3.51,2.64,4.95,3.29,4.17,4.28,5.38,1.54,1.76,2,1.32" style="fill:#de6e0f"/><path d="M105.64,253.74c0-1.07-3.48-.91-5-1.24l-4.39-.91s-3.31-.58-3.39-.17.66.83,2.48,1.16,4.55,1.16,6.63,1.49,3.72.75,3.72-.33" style="fill:#de6e0f"/><path d="M97.12,233.74a30.5,30.5,0,0,0,5,3.4c1.21.66,2.2,1.65,2.86.88s-.55-1.32-2.52-2.2a15.47,15.47,0,0,1-3-1.65s-1.1-.55-2.09-1.09-2.63-1.21-.32.66" style="fill:#de6e0f"/><path d="M117,220.57a17.85,17.85,0,0,0-2.64-1.87s-1.75-1.64-2.08-1.09,2,2.2,3.07,3.18,3.07,3.84,4.06,3.29-1-2.3-2.41-3.51" style="fill:#de6e0f"/><path d="M104,272.15l-3.16.83c-1.25.34-1.33.92.92.92s3.16-.58,5.41-1,3-.66,2.66-1.41-1.5-.5-2.41-.25l-3.41.92" style="fill:#de6e0f"/><path d="M107.52,290.81c-.17.42,1.58,0,2.74-.41s3.58-1.66,5-2.08,1.42-.67,1.42-1.5-1.5-.17-3.33.41a17.1,17.1,0,0,0-4.16,2.42s-1.5.75-1.66,1.16" style="fill:#de6e0f"/><path d="M131.57,302.15c1.66-1,2-1.75,1.41-2.25s-1.08-.42-2.41.66-3.91,2.91-3.91,2.91-1.33.5-2.33,1-2.25,1.33-1.91,1.83,2.41,0,3.49-.91,4-2.25,5.66-3.25" style="fill:#de6e0f"/><path d="M142.88,317.15c.66-.59,2.66-1.25,3.58-1.91s1.5-2.66.75-2.91-1.17.83-2.75,2-7,4.75-7,4.75a9.49,9.49,0,0,1-1.41.59c-1.5.58-.83,1,.42.83a5.82,5.82,0,0,0,3.57-1.33c1.5-1.17,2.16-1.42,2.83-2" style="fill:#de6e0f"/><path d="M159.69,331.4a20.39,20.39,0,0,0,4.49-3.33c1-.92,2.25-2.09,1.5-2.67s-1.58.17-2.75,1.25-4.25,4.34-4.25,4.34a7.72,7.72,0,0,0-2.08,1.42c-1.66,1.33.09,1.08.67.5a6,6,0,0,1,2.41-1.5" style="fill:#de6e0f"/><path d="M403.76,365.07a17,17,0,0,1-5.58-2.58c-2.41-1.83-3.16-3.91-3.58-2.75s.92,2,1.84,2.67,3.41,2.5,5.24,2.84,3.58.91,3.58.33-1.5-.5-1.5-.5" style="fill:#de6e0f"/><path d="M384.54,378.49a14.54,14.54,0,0,1-2.58-1.33s-4-3-4.49-3.58-.75-.92-1.25-.42.09.83,1.42,2,5.49,4.08,6.9,4.5,1.66.08,1.66.08a2.85,2.85,0,0,0-1.66-1.25" style="fill:#de6e0f"/><path d="M461.51,224.23c.75-.91,1.74-2.49,3.31-4.39s.34-1.49-.5-.66a25.34,25.34,0,0,0-2.23,3.07s-.58.58-1.57,1.74-1.49,1.58-1.08,2,1.33-.83,2.07-1.74" style="fill:#de6e0f"/><path d="M462.84,242.55c.57.58,1.32-.58,2.32-1.66s1.82-1.82,2.73-2.65a37.89,37.89,0,0,0,2.73-3.15,20.05,20.05,0,0,0-2.57,1.66,15,15,0,0,0-2.81,2.82c-.91,1.16-3,2.4-2.4,3" style="fill:#de6e0f"/><path d="M472.11,254.15c-.28-.25-1.16.42-1.91,1.16a23.07,23.07,0,0,1-2.9,2.32,48.44,48.44,0,0,1-4.55,2.82c-1.33.66-1.83,1.2-1.5,1.86s2.66.16,4.25-1.5a21.08,21.08,0,0,1,3.66-3.33c.75-.42,3.22-3.08,2.95-3.33" style="fill:#de6e0f"/><path d="M465.25,277.49s-1.83.25-3.16.33-1.16.42-1.16,1.09.5.92,1.08.58a10.73,10.73,0,0,1,2.83-.83c1-.16,3.33-1.17,3.16-1.67s-2.75.5-2.75.5" style="fill:#de6e0f"/><path d="M458.92,298.57c-2.82,0-5.23-.09-5.32.83s.25,1.33,2.08,1.25a25.36,25.36,0,0,0,5.91-.75c1.41-.5,2.91-1.17,2.75-1.59s-2.59.25-5.42.25" style="fill:#de6e0f"/><path d="M450.19,320.9s-3.25.09-4.75.17a27.14,27.14,0,0,1-5.66-.75c-1.57-.33-2.57-.66-3-.25s.16,1.16,1.83,1.41a22.6,22.6,0,0,0,7.49.59c3.49-.41,5.91-.33,5.91-.75s-1.83-.41-1.83-.41" style="fill:#de6e0f"/><path d="M436.46,336.82a38.11,38.11,0,0,0-4.49-.58,11.33,11.33,0,0,1-4.33-.83c-1.75-.67-3.24-1.84-4-.92s.83,1.67,2.25,1.92a27.29,27.29,0,0,0,5.07.92c2.33.08,3.33-.09,4.66.08s1.82.75,2.08.17-1.25-.75-1.25-.75" style="fill:#de6e0f"/><path d="M416.91,351.9a14.9,14.9,0,0,1-2.25-1.34,55.87,55.87,0,0,1-4.82-3.59c-1-1-1.33-1.58-1.66-.75s1.5,1.75,2.91,2.92a32.46,32.46,0,0,0,5,3.33c.83.33,1.75,1.33,2,.92s.33-.75-1.16-1.5" style="fill:#de6e0f"/><path d="M436.07,201.58a34.05,34.05,0,0,0,3.4-4.61s3-4,3.73-5.05.55-2-1-.22-6,8.12-6.8,9.11-2.42,4.61.66.77" style="fill:#de6e0f"/><path d="M454.84,205.09c-.33-.21-1.31,1.87-1.31,1.87s-3.52,4.5-5.28,6.69-2.74,2.64-2.3,3.07,1-.11,2-1.32,2.86-3.95,4.28-5.37,3-4.72,2.63-4.94" style="fill:#de6e0f"/><path d="M437.42,253.74c0,1.08,1.65.66,3.73.33s4.8-1.16,6.62-1.49,2.57-.75,2.48-1.16-3.39.17-3.39.17l-4.39.91c-1.57.33-5.05.17-5.05,1.24" style="fill:#de6e0f"/><path d="M445.62,233.08c-1,.55-2.09,1.09-2.09,1.09a15.48,15.48,0,0,1-3,1.65c-2,.88-3.18,1.43-2.52,2.2s1.65-.23,2.86-.88a30.92,30.92,0,0,0,5-3.4c2.3-1.86.66-1.21-.33-.66" style="fill:#de6e0f"/><path d="M423.66,224.08c1,.55,3-2.3,4.06-3.29s3.4-2.63,3.07-3.18-2.09,1.1-2.09,1.1a18.19,18.19,0,0,0-2.63,1.87c-1.43,1.21-3.4,3-2.41,3.51" style="fill:#de6e0f"/><path d="M435.88,272.9c2.25.42,3.16,1,5.41,1s2.15-.59.91-.92l-3.16-.83-3.41-.92c-.92-.25-2.08-.5-2.41.25s.41,1,2.66,1.41" style="fill:#de6e0f"/><path d="M433.88,289.65a17,17,0,0,0-4.16-2.42c-1.83-.59-3.33-1.25-3.33-.42s0,1.09,1.42,1.5,3.83,1.67,5,2.08,2.91.84,2.75.41-1.67-1.16-1.67-1.16" style="fill:#de6e0f"/><path d="M418.73,304.49c-1-.5-2.32-1-2.32-1s-2.58-1.83-3.91-2.91-1.83-1.16-2.41-.66-.25,1.25,1.41,2.25,4.58,2.33,5.66,3.25,3.16,1.41,3.5.91-.92-1.33-1.92-1.83" style="fill:#de6e0f"/><path d="M407,319.65a9.49,9.49,0,0,1-1.41-.59s-5.41-3.58-7-4.75-2-2.24-2.74-2-.17,2.25.75,2.91,2.91,1.33,3.57,1.91,1.34.84,2.83,2a5.83,5.83,0,0,0,3.58,1.33c1.25.17,1.91-.25.41-.83" style="fill:#de6e0f"/><path d="M386.45,332.4a7.61,7.61,0,0,0-2.08-1.42s-3.08-3.25-4.24-4.34-2-1.83-2.75-1.25.5,1.75,1.49,2.67a20.41,20.41,0,0,0,4.5,3.33,6,6,0,0,1,2.41,1.5c.58.58,2.33.83.67-.5" style="fill:#de6e0f"/><path d="M271.48,130.76c-11.33.2-24.63-1.37-31.94-4.1l-7.8,1.72c12.06,4.54,22.13,6.3,39.74,6.48,17.61-.18,27.68-1.94,39.74-6.48l-7.8-1.72c-7.32,2.73-20.61,4.29-31.94,4.1" style="fill:#e8b326"/><path d="M312.7,121.32a85.82,85.82,0,0,0-7.4-5.09c-1.35-.68-.3-2.48-.07-3.23s6.05-2.4,9.27-3.22,2.69-1.5,2.69-1.5-1.87-2.18-13.54-3.45-32.14-1-32.14-1-20.48-.3-32.15,1-13.53,3.45-13.53,3.45-.52.68,2.69,1.5,9,2.47,9.27,3.22,1.28,2.55-.07,3.23a84.34,84.34,0,0,0-7.4,5.09c-.89.75-1,2,.45,2s1.45.05,5.46-.75c12-2.38,23.3-3.05,35.29-3.22,12,.17,23.28.84,35.29,3.22,4,.8,4,.83,5.46.75s1.34-1.27.45-2" style="fill:#e8b326"/><path d="M227,111l-5.14,4.08,6.32,2.77,6.78-4.81Z" style="fill:#e8b326"/><path d="M316,111l-8,2,6.79,4.81,6.32-2.77Z" style="fill:#e8b326"/><path d="M299.43,126.27c-8-.95-13.08-2-27.89-1.85a198.82,198.82,0,0,0-27.89,1.85c5,2,13.19,3,27.89,3s22.86-1,27.89-3" style="fill:#e8b326"/><path d="M282.8,358c-1-1.5-1.23-1.36-2.32-.41s-2.18-2.32-2.32-4.36a66.89,66.89,0,0,1,.82-8.3s-5.31,1.09-8.17,2a78.4,78.4,0,0,1-7.89,1.77c-2.31.55-3.54,1.09-4.77.82a34.9,34.9,0,0,0-5.86-.41c-2,0-1.9.41-3.95,2.45s-2.59,3.13-4.22,6.94-2.18,7.35-2.72,12a31.27,31.27,0,0,1-1.31,6.21h24.4c.29-.78.67-1.77,1-2.49a6,6,0,0,1,2.94-2.75c1-.45,1.79-.45,2.23-1.53a5.6,5.6,0,0,1,2.94-2.56c1.28-.57,3.52-.25,5.56.32s2.75-.83,3.32-1.6.84-1.86,1.92-3.25a2.38,2.38,0,0,0,.27-2.69,8.37,8.37,0,0,1-1.9-2.18" style="fill:#005c94"/><path d="M321.94,358.66c-.32-1.41-.19-1.6-1-1.79a21.33,21.33,0,0,1-3.45-1c-1.21-.51-1.09,2.75-1.09,2.75a30.83,30.83,0,0,1-6.14-.07c-3.26-.38-7.09-3.32-8.44-4.29a15.26,15.26,0,0,1-2.81-3.13,12.75,12.75,0,0,1-2,1.54c-1,.57-1.6,2.62-1.79,4.66s2.37,4.54,2.55,6.58-2.23,6.14-3.45,7.8a30.79,30.79,0,0,0-2.49,5h11.78a6,6,0,0,1,1.26-2,6.32,6.32,0,0,1,3.26-1.47,4.86,4.86,0,0,1,.45-1.6c.45-1.09,1.66-2.36,4.6-3.52a24.28,24.28,0,0,1,6.46-1.34,13.28,13.28,0,0,0,2.43-2.75c1-1.6.25-4-.07-5.43" style="fill:#005c94"/><path d="M269.07,16.49l6.11-.5-.56-5.34,6.53.91.29-5.27-6.89.64,1.2-5.69-7.59-.07,1.34,5.76-6.68-.64v5.27l6.6-.77Z" style="fill:#e8b326"/><path d="M282.39,25.13h-8.2v-7a12.33,12.33,0,0,0-2.42-.24,12.09,12.09,0,0,0-2.14.19v7h-8.48a9.17,9.17,0,0,0-.44,2.81,8.68,8.68,0,0,0,.08,1.19h22a9.33,9.33,0,0,0,.08-1.19,9.17,9.17,0,0,0-.44-2.81" style="fill:#e8b326"/><path d="M271.77,38a11,11,0,0,0,10.49-6.85h-21A11,11,0,0,0,271.77,38" style="fill:#005c94"/><path d="M276.3,18.77v4.81h5.44a10.71,10.71,0,0,0-5.44-4.81" style="fill:#005c94"/><path d="M267.24,18.77a10.71,10.71,0,0,0-5.44,4.81h5.44Z" style="fill:#005c94"/><path d="M278.05,108c-2.07-1-6.59-2.91-6.59-2.91s-4.29,2.12-6.62,3.29-2,.83-2.75,2.53.07,2.3,1.09,2.75,8.39,4.23,8.39,4.23l9.07-4.23c1.77-.83,1.44-1.66.95-2.95s-1.47-1.73-3.54-2.72" style="fill:#de6e0f"/><path d="M293.11,106a6.23,6.23,0,1,1-6.45,6.23,6.34,6.34,0,0,1,6.45-6.23" style="fill:#de6e0f"/><path d="M249.81,106a6.23,6.23,0,1,1-6.46,6.23,6.35,6.35,0,0,1,6.46-6.23" style="fill:#de6e0f"/><path d="M264.43,110.19l7.21,3.68,7.14-3.68-7.31-3.43Z" style="fill:#e8b326"/><path d="M293.11,107.22a3.72,3.72,0,1,0,3.89,3.72,3.81,3.81,0,0,0-3.89-3.72" style="fill:#e8b326"/><path d="M249.81,107.22a3.72,3.72,0,1,0,3.89,3.72,3.81,3.81,0,0,0-3.89-3.72" style="fill:#e8b326"/><path d="M236.33,90.87a9.5,9.5,0,0,0,3.82.35s.65-2.86-.93-4.26-3-2.4-3.93-3.33a15,15,0,0,1-1.16-1.24s0,2.48-.12,4,.66,3.83,2.32,4.45" style="fill:#e8b326"/><path d="M239.76,92.88A1.12,1.12,0,1,0,240.94,94a1.15,1.15,0,0,0-1.18-1.12" style="fill:#e8b326"/><path d="M230.93,92.8a22.11,22.11,0,0,1-1.58,1.82,4.83,4.83,0,0,1,2.39.81,5.71,5.71,0,0,0,3.74,1.28A1.76,1.76,0,0,0,237,94.5c-.27-.85-.89-1.73-3-2.51s-2.62.11-3.12.81" style="fill:#e8b326"/><path d="M235.46,100.35c-4.06.36-9.42-4.12-9.42-4.12-.5,3.6-2.73,5.47-6.14,6.15l.31.16a25.47,25.47,0,0,0,6.92,2.19,13.82,13.82,0,0,0,5-.4,21.28,21.28,0,0,0,6-1.89c2.44-1.51,1.71-5.43,1.71-5.43s-.36,3-4.42,3.34" style="fill:#e8b326"/><path d="M219.65,96.28c-1.66-.63-4.16-1.83-5.2-1.88s-2.55-.32-2.29,1.62,2.24,2.87,4.16,2.92a7.38,7.38,0,0,0,4.06-1.25c1.14-.57.93-.78-.73-1.41" style="fill:#e8b326"/><path d="M207,89.38a10.56,10.56,0,0,0-3.44-1.66s-1.2,3.13-.52,5.06a3.43,3.43,0,0,0,3.8,2.39c1.71,0,4.27-.94,3.54-2.24A10.16,10.16,0,0,0,207,89.38" style="fill:#e8b326"/><path d="M208.62,97.18c.77,0,1.4.45,1.4,1s-.63,1-1.4,1-1.41-.45-1.41-1,.63-1,1.41-1" style="fill:#e8b326"/><path d="M212.5,82.62c-1.12-5.34-.93-11.15,4.12-18.55s13.86-10.4,13.86-10.4a27.09,27.09,0,0,1,3.09-3.55,59.69,59.69,0,0,1,8.52-6.75s-6.63,1.64-10.4,2.84c0,.07,0,.13,0,.2a4.59,4.59,0,0,1-4.54,4.64,4.51,4.51,0,0,1-2.59-.82c-2,.4-8.86,4.47-10.6,5.92a4.68,4.68,0,0,1,.69,2.44,4.6,4.6,0,0,1-4.55,4.63,4.39,4.39,0,0,1-2.09-.52c-.2.33-.4.65-.58,1a46.59,46.59,0,0,0-3.26,7.45,4.86,4.86,0,0,1,1.95,4c0,2.54-1.73,4.61-3.86,4.63a16.25,16.25,0,0,0-.08,3c.19,1.5.75,2.44,3.37,3.19s6.18,5.34,6.18,5.34c.25,0,2.13-3.37.75-8.71" style="fill:#e8b326"/><path d="M228.61,48.43a1.72,1.72,0,0,0,.36-2.64,2.48,2.48,0,0,0-3.1.18,1.73,1.73,0,0,0-.36,2.65,2.47,2.47,0,0,0,3.1-.19" style="fill:#e8b326"/><path d="M211.65,59.9a2.31,2.31,0,0,0,.41-3.32,2.59,2.59,0,0,0-3.5.23,2.31,2.31,0,0,0-.41,3.32,2.59,2.59,0,0,0,3.5-.23" style="fill:#e8b326"/><path d="M204.16,74.32a2.62,2.62,0,1,0-2.62,2.58,2.6,2.6,0,0,0,2.62-2.58" style="fill:#e8b326"/><path d="M258.12,37.93A32.54,32.54,0,0,0,250.48,41h.07c2.62,0,4.65,1.67,4.65,3.84s-2.38,4.53-5,4.53a4.48,4.48,0,0,1-4.39-4.44,3.37,3.37,0,0,1,.34-1.45c-1.12.69-2.31,1.45-3.58,2.31-8.34,5.62-10.3,8.34-14.43,16s-5.62,16.11-3.84,21.07,8.34,6,8.43,6a4.2,4.2,0,0,1-.84-1.68c-.09-.95.19-1.41.47-3.29a21,21,0,0,0,.09-4.12,2.82,2.82,0,0,1,2.34.84c.85,1,2.06,2.25,2.91,3.27a38.52,38.52,0,0,0,3.09,3,8,8,0,0,0,1.32-4.12c0-2.25-1.5-4.68-1.78-8.61s1.78-11,5.62-16.11S257,48.24,259.15,47.21a4.2,4.2,0,0,0,2.63-3.56c.09-.93.28-1.59.46-3.93s-2-2.25-4.12-1.79" style="fill:#e8b326"/><path d="M249.82,46.83a2.89,2.89,0,0,0,2.81-2.54A2.39,2.39,0,0,0,250,42.13a2.47,2.47,0,0,0-2.67,2.2,2.52,2.52,0,0,0,2.48,2.5" style="fill:#e8b326"/><path d="M262.23,95.81a6.23,6.23,0,0,0,5.35-.36,2.26,2.26,0,0,0,.16-3.58,4,4,0,0,0-4.31-.35c-1.17.65-3.8,2.5-3.8,2.5a5.36,5.36,0,0,0,2.59,1.79" style="fill:#e8b326"/><path d="M268.66,98.06c-.73,1.12-1.26,1.8-3.49,1.89s-4.66,0-6.11-1.51a15.39,15.39,0,0,1-2.48-3.5l-2.52,0s-.82,3.5-1.94,4.47-5,1.12-6.7-.14-3.25-2.82-3.54-2.63,0,1.46,1.74,3,3,2.43,5.77,2.43h16s3.25.19,4.17-1.75,1-3.16.53-3.65-.72.34-1.45,1.46" style="fill:#e8b326"/><path d="M244.34,95.35c2.4,1.34,3.73.52,4.6-.55a6.2,6.2,0,0,0,1-1.56,27,27,0,0,1-3.37-1.46c-1.11-.65-1.85-1.27-2.95-1.14s-1.27.3-1.27.3-.46,3.08,1.95,4.42" style="fill:#e8b326"/><path d="M275.21,91.87a2.27,2.27,0,0,0,.16,3.58,6.25,6.25,0,0,0,5.35.36A5.3,5.3,0,0,0,283.32,94s-2.62-1.85-3.79-2.5a4,4,0,0,0-4.31.36" style="fill:#e8b326"/><path d="M297.53,99.23c-1.7,1.27-5.58,1.12-6.69.14s-1.94-4.47-1.94-4.47l-2.52,0a15.54,15.54,0,0,1-2.47,3.5c-1.46,1.46-3.88,1.61-6.12,1.51s-2.76-.78-3.49-1.89-1-1.95-1.46-1.46-.38,1.7.54,3.65,4.17,1.75,4.17,1.75h16c2.81,0,4-.93,5.77-2.43s2-2.77,1.75-3-1.84,1.36-3.54,2.63" style="fill:#e8b326"/><path d="M296.35,91.78A26.23,26.23,0,0,1,293,93.24a6,6,0,0,0,1,1.56c.88,1.08,2.21,1.89,4.61.55s1.94-4.42,1.94-4.42-.16-.16-1.26-.29-1.85.49-3,1.14" style="fill:#e8b326"/><path d="M308.94,86.42c-.12-1.55-.12-4-.12-4a15.25,15.25,0,0,1-1.15,1.24c-.93.93-2.36,1.94-3.94,3.33s-.93,4.26-.93,4.26a9.5,9.5,0,0,0,3.82-.35c1.66-.62,2.43-2.9,2.32-4.45" style="fill:#e8b326"/><path d="M304.39,94a1.19,1.19,0,1,0-1.18,1.13A1.15,1.15,0,0,0,304.39,94" style="fill:#e8b326"/><path d="M307.48,96.71a5.7,5.7,0,0,0,3.74-1.28,4.85,4.85,0,0,1,2.39-.81A24.09,24.09,0,0,1,312,92.8c-.5-.7-1-1.59-3.12-.82s-2.7,1.67-3,2.52a1.77,1.77,0,0,0,1.55,2.21" style="fill:#e8b326"/><path d="M316.91,96.22s-5.36,4.48-9.41,4.12S303.08,97,303.08,97s-.73,3.92,1.71,5.43a21.28,21.28,0,0,0,6,1.89,13.93,13.93,0,0,0,5,.4,25.47,25.47,0,0,0,6.92-2.19l.31-.16c-3.41-.68-5.64-2.55-6.14-6.15" style="fill:#e8b326"/><path d="M328.51,94.4c-1,.05-3.54,1.25-5.2,1.88s-1.88.83-.73,1.41a7.27,7.27,0,0,0,4.06,1.25c1.92-.05,3.9-1,4.16-2.92s-1.25-1.67-2.29-1.62" style="fill:#e8b326"/><path d="M336,89.38a10.21,10.21,0,0,0-3.38,3.55c-.73,1.3,1.82,2.2,3.54,2.24a3.42,3.42,0,0,0,3.8-2.39c.68-1.93-.52-5.06-.52-5.06A10.57,10.57,0,0,0,336,89.38" style="fill:#e8b326"/><path d="M334.34,97.18c-.77,0-1.41.45-1.41,1s.63,1,1.41,1,1.41-.45,1.41-1-.63-1-1.41-1" style="fill:#e8b326"/><path d="M336.83,75.17a4.87,4.87,0,0,1,1.95-4,47,47,0,0,0-3.25-7.46c-.18-.33-.38-.66-.58-1a4.41,4.41,0,0,1-2.09.52,4.59,4.59,0,0,1-4.54-4.64,4.67,4.67,0,0,1,.68-2.44c-1.75-1.45-8.56-5.52-10.61-5.92a4.45,4.45,0,0,1-2.58.82,4.59,4.59,0,0,1-4.54-4.64c0-.07,0-.13,0-.2-3.77-1.21-10.4-2.84-10.4-2.84a59.83,59.83,0,0,1,8.52,6.74,27.19,27.19,0,0,1,3.09,3.56s8.8,3,13.86,10.4,5.24,13.21,4.12,18.55c-1.37,5.34.5,8.71.75,8.71,0,0,3.56-4.59,6.18-5.34s3.18-1.69,3.38-3.19a16.34,16.34,0,0,0-.08-3c-2.13,0-3.86-2.09-3.86-4.64" style="fill:#e8b326"/><path d="M314.35,48.43a2.48,2.48,0,0,0,3.1.19,1.73,1.73,0,0,0-.37-2.65,2.48,2.48,0,0,0-3.1-.18,1.72,1.72,0,0,0,.36,2.64" style="fill:#e8b326"/><path d="M331.32,59.9a2.59,2.59,0,0,0,3.5.23,2.3,2.3,0,0,0-.41-3.32,2.58,2.58,0,0,0-3.49-.23,2.31,2.31,0,0,0,.41,3.32" style="fill:#e8b326"/><path d="M341.42,71.74A2.58,2.58,0,1,0,344,74.32a2.61,2.61,0,0,0-2.62-2.58" style="fill:#e8b326"/><path d="M281.19,43.65a4.18,4.18,0,0,0,2.62,3.56c2.16,1,9.37,5.71,13.21,10.87s5.9,12.18,5.63,16.11-1.78,6.37-1.78,8.61a8.09,8.09,0,0,0,1.31,4.13,39.23,39.23,0,0,0,3.09-3c.84-1,2.06-2.25,2.9-3.28a2.82,2.82,0,0,1,2.34-.84,21.14,21.14,0,0,0,.1,4.12c.28,1.88.56,2.34.47,3.28a4.28,4.28,0,0,1-.84,1.68c.09,0,6.65-1,8.43-6s.28-13.4-3.84-21.07-6.08-10.4-14.42-16c-1.27-.86-2.46-1.62-3.58-2.31a3.31,3.31,0,0,1,.33,1.45,4.47,4.47,0,0,1-4.39,4.44c-2.62,0-5-2.36-5-4.52s2-3.84,4.66-3.84h.07a32.29,32.29,0,0,0-7.64-3.09c-2.15-.46-4.31-.56-4.12,1.78s.37,3,.46,3.93" style="fill:#e8b326"/><path d="M271.48,82a13.19,13.19,0,0,1-1.42,3.63c-.82,1.08-1.43,2-1.2,3.37a2.66,2.66,0,0,0,5.24,0c.23-1.32-.38-2.29-1.2-3.37A13.06,13.06,0,0,1,271.48,82" style="fill:#e8b326"/><path d="M271.53,92.38a1.36,1.36,0,1,0,1.36,1.36,1.36,1.36,0,0,0-1.36-1.36" style="fill:#e8b326"/><path d="M266.69,86.75a29.35,29.35,0,0,0,3.21-4.25c.87-1.65,1.58-3.12,1.58-3.12s.7,1.47,1.57,3.13a29.35,29.35,0,0,0,3.21,4.25s3.3-1.74,5.21-8.07-.44-13-1.31-20.23-1.56-19.62-1.56-19.62a13.28,13.28,0,0,1-14.27,0s-.69,12.41-1.56,19.62-3.21,13.89-1.3,20.23,5.21,8.07,5.21,8.07" style="fill:#e8b326"/><path d="M290.32,44.29a2.89,2.89,0,0,0,2.82,2.54,2.52,2.52,0,0,0,2.48-2.5,2.48,2.48,0,0,0-2.68-2.2,2.39,2.39,0,0,0-2.62,2.16" style="fill:#e8b326"/><path d="M232.73,66.42a5.29,5.29,0,1,1-5.34,5.29,5.32,5.32,0,0,1,5.34-5.29" style="fill:#de6e0f"/><path d="M242,53.36a5.38,5.38,0,0,0-7,1.28,4.36,4.36,0,0,0,.73,6.5,5.38,5.38,0,0,0,7-1.28,4.36,4.36,0,0,0-.74-6.5" style="fill:#de6e0f"/><path d="M232.52,68.07a3,3,0,1,0,3.11,3,3,3,0,0,0-3.11-3" style="fill:#e8b326"/><path d="M239.78,53.95A3.56,3.56,0,0,0,236,55.46c-.72,1.21,0,2.5,1.88,2.88,3.38.69,5-3.55,1.92-4.39" style="fill:#e8b326"/><path d="M271.46,67a5.5,5.5,0,1,0,5.7,5.5,5.61,5.61,0,0,0-5.7-5.5" style="fill:#de6e0f"/><path d="M271.46,54.32A5.29,5.29,0,1,1,266,59.61a5.39,5.39,0,0,1,5.48-5.29" style="fill:#de6e0f"/><path d="M271.46,42.23a5.05,5.05,0,1,1-5.23,5,5.14,5.14,0,0,1,5.23-5" style="fill:#de6e0f"/><path d="M310.24,66.41a5.29,5.29,0,1,0,5.33,5.29,5.32,5.32,0,0,0-5.33-5.29" style="fill:#de6e0f"/><path d="M308,54.64a5.39,5.39,0,0,0-7-1.28,4.36,4.36,0,0,0-.74,6.5,5.38,5.38,0,0,0,7,1.28,4.37,4.37,0,0,0,.74-6.5" style="fill:#de6e0f"/><path d="M310.44,68.07a3,3,0,1,0,3.11,3,3,3,0,0,0-3.11-3" style="fill:#e8b326"/><path d="M303.18,53.95c-3.06.84-1.46,5.07,1.92,4.39,1.83-.37,2.59-1.66,1.87-2.88a3.56,3.56,0,0,0-3.79-1.51" style="fill:#e8b326"/><path d="M271.46,68.61a2.91,2.91,0,1,0,3,2.91,3,3,0,0,0-3-2.91" style="fill:#e8b326"/><path d="M271.46,61.47a2.8,2.8,0,1,0-2.91-2.8,2.85,2.85,0,0,0,2.91,2.8" style="fill:#e8b326"/><path d="M271.46,48.83a2.46,2.46,0,1,0-2.55-2.46,2.51,2.51,0,0,0,2.55,2.46" style="fill:#e8b326"/><path d="M449.87,446.82a4.68,4.68,0,1,0,4.68,4.68,4.68,4.68,0,0,0-4.68-4.68" style="fill:#de6e0f"/><path d="M463.07,449.94a4.8,4.8,0,1,0,4.81,4.8,4.8,4.8,0,0,0-4.81-4.8" style="fill:#de6e0f"/><path d="M501.48,458.1a4.8,4.8,0,1,0,4.8,4.8,4.8,4.8,0,0,0-4.8-4.8" style="fill:#de6e0f"/><path d="M476.28,453.06a4.8,4.8,0,1,0,4.8,4.8,4.8,4.8,0,0,0-4.8-4.8" style="fill:#de6e0f"/><path d="M479.76,441.54a4.8,4.8,0,1,0,4.8,4.8,4.8,4.8,0,0,0-4.8-4.8" style="fill:#de6e0f"/><path d="M483.12,430a4.8,4.8,0,1,0,4.8,4.8,4.81,4.81,0,0,0-4.8-4.8" style="fill:#de6e0f"/><path d="M450.23,448.69a2.34,2.34,0,1,1-2.34,2.34,2.34,2.34,0,0,1,2.34-2.34" style="fill:#e8b326"/><path d="M463.44,451.86a2.4,2.4,0,1,0,2.4,2.4,2.4,2.4,0,0,0-2.4-2.4" style="fill:#e8b326"/><path d="M501.84,460a2.4,2.4,0,1,0,2.4,2.39,2.4,2.4,0,0,0-2.4-2.39" style="fill:#e8b326"/><path d="M476.64,455a2.4,2.4,0,1,0,2.41,2.4,2.4,2.4,0,0,0-2.41-2.4" style="fill:#e8b326"/><path d="M480.12,443.46a2.4,2.4,0,1,0,2.4,2.4,2.4,2.4,0,0,0-2.4-2.4" style="fill:#e8b326"/><path d="M483.48,431.94a2.4,2.4,0,1,0,2.4,2.4,2.4,2.4,0,0,0-2.4-2.4" style="fill:#e8b326"/></svg>