<svg xmlns="http://www.w3.org/2000/svg" viewBox="0 0 673.96 864.81"><title>Montserrat</title><path d="M3.29,2.49H671.47l-.79,487.45C676.23,685.9,557.1,807.49,337.9,862.32,182.24,822.69,2.76,740.72,2.49,495.5Z" style="fill:#00a2bd"/><path d="M666.29,547.69C642,734.73,501.1,816.45,337.9,859.83,193.43,820.21,38,756.95,7.89,548.63Z" style="fill:#a53d08"/><path d="M181,92.82l130.41.48-.93-61.44,47.51.48.47,61H488.42l.47,47.62-130.41.48-1,561.65-46.34.3-.59-562.42L181,141.4l0-48.58Z"/><path d="M206.23,570.86,325.18,697c41.13-46.23,12.6-219-41.5-250.83-6.48,20.46-17.51,45-29.23,52.9-25.79,18-89,39-67.86,52.43,4.82-6.82,17.42-13.26,23.35,1.9,7,23.87-26.31,25.39-26.31,25.39s-21.12-2.66-24.83-24.63,31.46-42,34.46-43.57c3-1.14,48.91-13.64,56.7-55.32,9.63-40.92,19.64-34.86,21.49-35.62,60,6.06,99.31,115.94,101.54,193.24S342.23,741.37,336.3,744.78s-143-166.33-143-166.33Z" style="fill:#ff9a08;stroke:#000;stroke-width:2.663090705871582px"/><path d="M292.94,453.41l.74,227.72" style="fill:none;stroke:#000;stroke-width:2.663090705871582px"/><path d="M279.6,457.57c0,.38.74,206.88.74,206.88" style="fill:none;stroke:#000;stroke-width:2.663090705871582px"/><path d="M265.15,487.51l.74,164.44" style="fill:none;stroke:#000;stroke-width:2.663090705871582px"/><path d="M253.29,499.25l.74,136" style="fill:none;stroke:#000;stroke-width:2.663090705871582px"/><path d="M240.69,507.38V620.12" style="fill:none;stroke:#000;stroke-width:2.663090705871582px"/><path d="M227,514.41v90.93" style="fill:none;stroke:#000;stroke-width:2.663090705871582px"/><path d="M215.12,521.61v69.72" style="fill:none;stroke:#000;stroke-width:2.663090705871582px"/><path d="M204.38,585.26,327,728.87" style="fill:none;stroke:#ffdf00;stroke-linecap:round;stroke-width:2.663090705871582px"/><path d="M333,494.7S388.55,619,337,721.29" style="fill:none;stroke:#ffdf00;stroke-linecap:round;stroke-width:4.988451957702637px"/><path d="M189.93,559.12s4.08-11,9.26-6.44" style="fill:none;stroke:#ffdf00;stroke-linecap:round;stroke-width:4.988451957702637px"/><path d="M180.29,527.29s-22.23,20.08-10,33" style="fill:none;stroke:#ffdf00;stroke-linecap:round;stroke-width:4.988451957702637px"/><path d="M358.83,211.24c8.23-7.22,12.51-11.64,17.61-10.83a41.45,41.45,0,0,0,17.14-1.2c5.12-1.61,30.42-4.82,40.83-1.2,3.53.4,8.23,2.41,15.49,8.63s17.86,17.05,14.33,47.15-2.38,43-3.93,59.79c-2.74,29.69-9.18,54.14-20.79,52.16,15.69,28.09,17.26,52.16,27.46,71.43s16.49,58.58,12.56,101.12-14.9,138,18.05,202.24c-5.5,4-18.83,0-30.61-12.84s-16.93-12.42-26.68-4.82c-29.82,23.27-57.74,51.32-98.88,23.27C332,739.7,329,732,335.9,712.42c17.26-49,25.65-116.12,22.93-147.66Z" style="fill:#008021;stroke:#000"/><path d="M387.11,181.15c2.15,6.82,3.32,15.65-.21,23.67s-4.31,17.66,1.57,29.29c9.42-13.64,22.77-10.83,30.61-18.86S428.51,199.6,434.4,198c-5.89-5.22-14.92-10.83-13-26.08s22.76-27.69,3.93-51c-12.16-15-29.84-10.83-37.49-5a27.65,27.65,0,0,0-7.84,9.23c-1.19,2.61.29,8.54-2.57,12a39,39,0,0,1-7.06,6.82c-1.76,1.31-2.86,3.21-1,5.42.76.88,2.14,1.07,3.65,1.61a31.53,31.53,0,0,1-2.86,4.91c-.93,1.22-.53,2.39.59,3.39-1.48,4.81,1.38,5.34-.59,8.95-1.71,3.12-4,6.82,2.36,10.43C374.35,179.74,382.7,181.72,387.11,181.15Z" style="fill:#ffe1cf;stroke:#000"/><path d="M310.78,261c-11,2.81-28.65-2-42-.4-5.89.71-10.59-2.41-9.8-8.42s1.57-15.25.38-23.68c-1.83-13.13,4.32-31.3,13-51.36s13-31.3,13-40.73c0-6.22.59-13.24,6.08-16.85,4.07-2.67,4.84-5.26,6.29-7.42,3.32-5,6.46-6.22,6.86-3.21.24,1.79-.4,3.41-2,5.82,3.53-3,9.53-6.52,10.89-7.52s8.36-6,8.73-1.3c2.76-1.4,4.62-1.31,5.31.2s.29,2.31-1.09,3.51c2-.4,4.22,3.11.29,6.22,2.07-.7,4.12,2.81.5,6s-8,5.62-9.42,8.23S307,140,303.32,141.62s-3.93,3.81-3.93,9.43c0,61.79-7.25,56.77-7.25,71.63,0,4-.79,7.62,3.14,6.42s9.61-3,15.5-3V261Z" style="fill:#ffe1cf;stroke:#000"/><path d="M313.12,394.21c17.74-9.07,38.07-12.44,48.67-15.25s27.48-11.23,35.71-15.65,14.92-10.43,19.62-12a22.22,22.22,0,0,0,13-10.83c15.3-30.5,23.55-55,23.55-76.24,0-14-3.53-29.69-16.88-18.46-12.54,10.56-26.2,30.92-29.82,45.74-5.5,22.47-10.2,27.29-11.39,31.7s-5.62,4.41-11,5.62c-23.15,5.22-28.65,8.83-45.91,22.07A461.51,461.51,0,0,1,290,383c-12.56,7.22-14.9,8-17.66,13.84s-5.29,10.23-7.65,12.84a10.28,10.28,0,0,0-2.55,8.83c.4,2.61-.79,14.65-1,18.66s.78,5,2.36,5.22,3.72-.6,4.51-5.42c-.79,4.82,5.68,3.21,6.08-.4-.21,5.22,6.67,2.21,7.06-2.61,0,3.41,5.2,1.05,5.68-.6,1.17-4,2.15-8.43,3.72-11.64,2.29-4.66,4.74-10.69,9.23-14,5.1-3.81,2.74-8,13.33-13.44Z" style="fill:#ffe1cf;stroke:#000"/><path d="M440.27,722.85c1.19,4.41,3.34,9.43,4.12,12.44s-.59,3.95-1.36,5.62c-4.12,8.83-8.54,22.9-9.23,30.5-.38,4.41-3.32,8.63-4.7,11.24-1.52,2.88-.93,5.1,2.55,7.82,1.67,1.3,7.06-.4,7.65-3.21,2,2,5.5,1.2,7.06-1.81,1.77,1.81,4.72.6,6.68-2.41,1.76,1.2,4.31-1.2,5.29-2.81,2.76,1.41,5.7-.3,5.79-5.82a10.43,10.43,0,0,1,1.48-4.31c.78-1.31,1.07-3.81,1-6s1.27-6.62,3.14-9.73,5.1-8.63,3.72-13.84c-1.27-4.86-3.32-4.41-5.1-11.44-4.31-4.62-10.2-11-16.28-11.44s-9.61,3.81-11.78,5.22Z" style="fill:#ffe1cf;stroke:#000"/><path d="M328.63,757.36c5.5,5.62,17.86,5.82,26.49-3.61-3.14-1.4-10-4.61-13.14-7.22-4.32,4.41-9.23,9.43-13.35,10.83Z" style="fill:#ffe1cf;stroke:#000"/><path d="M384.17,119.35c2.15-14.24,12-13.91,18.24-12.44a33.53,33.53,0,0,0,14.71-.4c11.65-3.17,20.41,1,19.24,12.44,3.14,2.41,6.46,8,5.87,12.84s.4,6.82,4.72,7.42,13.54,6,7.44,13.64c5.89,3.61,10.41,12.84,7.27,19.06s-12.56,7.22-16.49,1.6c-4.31,2-11.39,2.41-15.69-2.21-2.95,3.61-10.41,3.21-11.78,0a9.93,9.93,0,0,0-6.46-5.82c-3.15-1-3.34-9.83,1.36-10.83-.59-2.61-.38-5.62.79-7s.19-4-2.55-6.22-5.1-10.63-2.36-15.25c-4.7,1.6-15.11-3-17.26-6.22s-5.1-3.41-7.06-.6Z" style="fill:#870f00;stroke:#000"/><path d="M387.11,181.15c7.65-1,10.2-5.82,15.88-5.42" style="fill:none;stroke:#000"/><path d="M370.82,159.35a10.34,10.34,0,0,0,1.86,1.23,12.78,12.78,0,0,0,4.81,1.15" style="fill:none;stroke:#000"/><path d="M373.09,151.05a7.82,7.82,0,0,1,3.22,2" style="fill:none;stroke:#000"/><path d="M390.83,119.35c-4.51-4.41,7.65-13.44,20.41-.6,2.38,2.4,8.42,2.41,10.2,1.81" style="fill:none;stroke:#000"/><path d="M408.49,126.17c5.89-1.41,14.71-1.41,17.26,5.42S433.42,134,437.54,142s10.59,17.05,16.87,10.83" style="fill:none;stroke:#000"/><path d="M429.49,171.31c-1.77-2.41-2.55-7.63-1.38-11.24-2.36-2.81-1.38-8.63,0-11.44" style="fill:none;stroke:#000"/><path d="M412.61,154.66c.21,2.41,3.34,6.82,8.25,7.62" style="fill:none;stroke:#000"/><path d="M445.18,173.52c-2.74-3.61-2.36-6.82-1.76-11.24" style="fill:none;stroke:#000"/><path d="M416.54,133.6c-.19,3.61,2,8.43,5.68,10a12.15,12.15,0,0,0,12.56,6.82" style="fill:none;stroke:#000"/><path d="M436.36,118.95c-4.31-3.42-10.15-7.63-17.86-8.67" style="fill:none;stroke:#000"/><path d="M388.47,234.11c-6.67,9.23-11,22.07-7.84,40.13s8.23,44.54-4.72,56.58" style="fill:none;stroke:#000"/><path d="M439.5,365.73c-9-2-22-2-29,3.21s-18.85,5.62-26.68,1.6" style="fill:none;stroke:#000"/><path d="M420.46,365.12c-7.86,1.4-11.58,7-11.58,21.87s-3.14,36.51-.4,57.78" style="fill:none;stroke:#000"/><path d="M406.13,371.34c-5.1,1.4-10.39,1.6-9.41,15.65" style="fill:none;stroke:#000"/><path d="M379.65,387.39c.19-8.63,3.14-16.65,8.63-15.25" style="fill:none;stroke:#000"/><path d="M436.16,389c.4-19.06-3.72-24.48-9.22-24.28,7.46.2,12.54,1.13,15.69,32.3,2.36,23.27,7.11,31.51,12.56,49.76,14.13,47.35,7.06,120.38,14.13,146.06" style="fill:none;stroke:#000"/><path d="M425.37,394.62c14.9,44.14,22.76,93.09-1.57,171.74,16.47,46.55,33,80.25,36.09,99.51" style="fill:none;stroke:#000"/><path d="M378.28,498.94c2.74-10-7.06-11.23,1.57-46.55,3.74-15.3,4.32-24.48,2-29.29" style="fill:none;stroke:#000"/><path d="M381.81,444c-3.53,15.65,11.39,44.94,3.93,66.21" style="fill:none;stroke:#000"/><path d="M367.28,514.19c0,13.64,3.14,31.3,2.36,44.94s4.65,20,11,32.9c22.76,46.55,38.24,79.76,36.09,123.59-.38,8,2.36,24.88-5.87,29.69" style="fill:none;stroke:#000"/><path d="M367.87,757.16c2.36.2,4.91-1,7.86-8.23s12.37-50.56,8.44-80.25" style="fill:none;stroke:#000"/><path d="M388.87,702.39c1.17,9.23,1.17,28.09-4.7,42.93" style="fill:none;stroke:#000"/><path d="M403.79,674.7c3.53,19.66,3.14,37.32.4,49.76" style="fill:none;stroke:#000"/><path d="M395.93,724.46c.4,8,3.93,28.09-2,29.7" style="fill:none;stroke:#000"/><path d="M425.37,631.36c14.5,23.27,25.89,80.66,38.05,92.69" style="fill:none;stroke:#000"/><path d="M437.93,714.83c-.4-6.42-.79-15.25-4.32-19.26" style="fill:none;stroke:#000"/><path d="M281.15,433.94c.19-4.42-.59-8.63,4.12-15.45" style="fill:none;stroke:#000"/><path d="M274.09,436.55c.59-15.45.38-16.86,4.7-21.07" style="fill:none;stroke:#000"/><path d="M268,437c.19-11-1.19-14.85,3.14-21.87" style="fill:none;stroke:#000"/><path d="M322.15,105.91c-1.67,1.1-11.47,8.73-15.59,11.94" style="fill:none;stroke:#000"/><path d="M326.37,109.62c-1.86.3-7.25,4.82-16.87,12.44" style="fill:none;stroke:#000"/><path d="M326.66,115.84c-3,1.4-8.82,7.12-14.13,10.93" style="fill:none;stroke:#000"/><path d="M302.53,114.74c-1.46,1.1-4.31,4.31-5.68,5.42" style="fill:none;stroke:#000"/><path d="M439.29,787.26c-.88-1-.88-4.52.69-8.43" style="fill:none;stroke:#000"/><path d="M446.36,785.45c-1.07-1.1,0-5.92,1.09-9" style="fill:none;stroke:#000"/><path d="M453,783c-1.27-.6-1.67-3.41.19-7.22" style="fill:none;stroke:#000"/><path d="M458.33,780.23c-.88-.3-1.27-1.81.29-6.22" style="fill:none;stroke:#000"/><path d="M381.12,132c2.84,3.81,5.79,3.41,6.3,5.87s.9,2.64,1.45,3.36-1.34.58-2.27.19a16,16,0,0,0-4.63-.33c-1.4,0-3.07-1.67-2-1.87s.9-.53.74-1.28a2.61,2.61,0,0,1,1-2.15c.45-.22.14-.18-.26-1.18s-.93-3.44-.33-2.62Z"/><path d="M382.84,128.5c3.19.38,8.68,2.14,11.66,5.51,2.34,2.65.43,1.95-.76,2a6.42,6.42,0,0,1-4.69-2.27c-1.15-1.51-4.62-3.42-6.46-3.91-1.12-.3-2.17-1.68.24-1.38Z"/><path d="M3.29,2.49H671.47l-.79,487.45C676.23,685.9,557.1,807.49,337.9,862.32,182.24,822.69,2.76,740.72,2.49,495.5Z" style="fill:none;stroke:#000;stroke-width:4.5px"/></svg>