<svg xmlns="http://www.w3.org/2000/svg" viewBox="0 0 741 800"><title>Mozambique</title><path d="M324.64,137.5l46.07-30.36,46.43,31.79L399.29,87.86l46.07-31.07-56.79.36L370.36,5.36,353.21,56.79H295.36l46.07,31.79Z" style="fill:#fbce1d;stroke:#000;stroke-width:1.5px"/><path d="M338.21,120,370,97.86s33.21,23.57,32.86,22.14-12.5-34.29-12.5-34.29l31.79-21.43L383.21,65,370.36,27.5,358.21,65l-38.57-.71L351.43,85Z" style="fill:#ed1a23;stroke:#000;stroke-width:1.5px"/><path d="M526.29,751s-45,54.55-92.43,40.41-50.51-34.35-108.59-12.12S236.88,805.05,196,741.41c0,0-34.35,6.57-50.51-47.48,0,0-41.42-1.52-45.46-28.79s2.53-23.74-9.09-41.42-5.56-46-5.56-46l-5.56-5.56S48,569.69,43.94,544.94s-2-24-14.14-39.9c-20.72-27.19-15.15-54.55-5.05-60.61l1-10.61S4,417.66,7.58,393.41s6.57-18.18,0-47C4.7,333.82,6.06,303,25.25,291.89c0,0,6.06-2,3-17.68s17.17-54.55,27.78-59.09c0,0,29.29-47,49.5-55.05s40.91-33.84,40.91-33.84,7.58-29.8,20.71-34.35c0,0,7.58-9.6,17.17-10.61,0,0,45-27.78,59.6-32.83S295.47,23.7,295.47,23.7L239.91,64.1l15.15-2-18.69,5.56s-43.44,39.9-46.47,47c0,0,25.25-11.62,27.27-12.63s6.06-6.06,6.06-6.06l-2,5.56,34.85-19.7-39.4,28.28s-10.1,12.12-9.6,15.66c0,0,47.48-34.85,60.61-38.39,0,0-83.84,53.54-98.49,81.82,0,0,69.7-56.57,100.51-65.15,0,0-66.67,38.39-91.42,64.65,0,0,16.67-2,20.71-7.07l-2.53,5.05s4.55-1.52,5.05-3,33.84-36.37,70.71-49c0,0-48,24.24-58.59,43.44,0,0,18.18-4.55,22.73-4,0,0,50-23.23,52.53-24.24S251,153,251,153l6.06,1L228.8,166.13h6.06l-11.62,4s-68.69,26.26-64.65,73.24l13.64-18.18,19.7,2.53s28.79-31.82,62.12-47.48l3.57-16.67,63.1-21.6,14.14,12.5s49-4.55,74.75,0l13.07-12,67,23.74.21,15.53s46,26.26,61.11,47l19.19-4,2.53,4.55v-7.58S520.73,171.18,497,154l17.17,9.6s13.88.2,16.91.7-80-47.07-80-47.07l120.63,65-.24-11.62L456.42,102.3l116.84,63.77s2-4-3-10a21.93,21.93,0,0,1-5.26-12.1L464.8,77.31l98.36,60-.51-9.6s-41.42-22.22-47-24.24c0,0,36.37,12.12,48,19.7l-3.54-12.12c7.19,5-15.26-10-15.28-11.87l14.39,9.47L557,103s-5.43-7.07-17-12.63S497.5,63.6,497.5,63.6l37.88,16.16s-63.64-38.39-65.66-39.9S579.32,82.29,595,112.09s18.18,45.46,40.41,51,53.54,55.56,53.54,55.56,10.61,17.68,13.13,24.24,8.59,15.66,8.59,15.66,9.6,23,8.08,35.36h0s20.71,13.13,15.91,37.38-6.06,45.71-4.29,51.27,9.34,28.28-11.36,49.5c0,0-2.19,11.16-3.26,13.31,0,0,20.36,16.43,5.71,41.43s-21.79,32.5-23.93,47.86.36,33.93-40.36,37.14L653.21,575l3.57,1.07s5,16.43,1.07,28.21-13.57,25-14.29,41.79,3.93,42.86-48.21,47.86c0,0-2.78,44.87-69.07,57.08Z"/><path d="M470.75,126.78a2.66,2.66,0,1,1-5.32,0h0a2.66,2.66,0,1,1,5.32,0Z" style="stroke:#000"/><path d="M484.05,134a2.9,2.9,0,1,1-2.9-2.9A2.9,2.9,0,0,1,484.05,134Z" style="stroke:#000"/><path d="M498.32,140.57a3.87,3.87,0,1,1-7.74,0v0a3.87,3.87,0,1,1,7.74,0Z" style="stroke:#000"/><path d="M510.42,148.31a3.87,3.87,0,0,1-7.74,0h0a3.87,3.87,0,1,1,7.74,0Z" style="stroke:#000"/><path d="M523.72,155.69a4.23,4.23,0,1,1-4.23-4.23A4.23,4.23,0,0,1,523.72,155.69Z" style="stroke:#000"/><path d="M539,164.52a4.35,4.35,0,0,1-8.71,0v0a4.35,4.35,0,0,1,8.71,0Z" style="stroke:#000"/><path d="M552.27,170.93a4.48,4.48,0,1,1-4.48-4.48A4.48,4.48,0,0,1,552.27,170.93Z" style="stroke:#000"/><path d="M479.21,113.23a3.14,3.14,0,1,1-6.29,0h0a3.14,3.14,0,0,1,6.29,0Z" style="stroke:#000"/><path d="M493.26,121.21a3.39,3.39,0,1,1-6.77,0h0a3.39,3.39,0,1,1,6.77,0Z" style="stroke:#000"/><path d="M509,129.44a4.35,4.35,0,0,1-8.71,0v0a4.35,4.35,0,0,1,8.71,0Z" style="stroke:#000"/><path d="M522.27,136.58a4.23,4.23,0,1,1-4.23-4.23A4.23,4.23,0,0,1,522.27,136.58Z" style="stroke:#000"/><path d="M533.64,143.55a4,4,0,0,1-8,0v0a4,4,0,0,1,8,0Z" style="stroke:#000"/><path d="M547.91,150.61a4.48,4.48,0,1,1-4.48-4.48A4.48,4.48,0,0,1,547.91,150.61Z" style="stroke:#000"/><path d="M560.49,158.71a4.84,4.84,0,1,1-4.84-4.84A4.84,4.84,0,0,1,560.49,158.71Z" style="stroke:#000"/><path d="M489.72,91.24a3,3,0,1,1-3-3A3,3,0,0,1,489.72,91.24Z" style="stroke:#000"/><path d="M502.72,99.28a3.51,3.51,0,1,1-7,0h0a3.51,3.51,0,1,1,7,0Z" style="stroke:#000"/><path d="M516.41,107.75a3.76,3.76,0,1,1-7.53,0h0a3.76,3.76,0,0,1,7.53,0Z" style="stroke:#000"/><path d="M530.43,116.39a4.36,4.36,0,1,1-4.36-4.36A4.36,4.36,0,0,1,530.43,116.39Z" style="stroke:#000"/><path d="M543.78,124.94a4.36,4.36,0,1,1-4.36-4.36A4.36,4.36,0,0,1,543.78,124.94Z" style="stroke:#000"/><path d="M558.14,133.24a5.13,5.13,0,1,1-5.13-5.13A5.13,5.13,0,0,1,558.14,133.24Z" style="stroke:#000"/><path d="M337.65,513.49l4.4-4.23a26.84,26.84,0,0,0,7.28-.85l3.39,3.39a35.46,35.46,0,0,1-15.07,1.69Zm-16.59,17.78,5.42-3.73s15.24,10.5,35.9-5.25c0,0,14.39,16.09,38.61,3.89l4.57,3.22S384.72,545,362,529.58c0,0-16.93,16.43-41,1.69Zm-114,5.25s7.79,1.35,14.05-1.69C221.15,534.82,213.7,533.64,207.09,536.52Zm-4.23,16.76s13.89,3.39,27.77-7.79c0,0,19.3,17.1,42.5,1,0,0,24.72,17.61,45.21-1.35,0,0,22.52,19.64,43.52-.34,0,0,19.13,19.47,43.52,0,0,0,18.46,18.29,43.35,1,0,0,21.84,19,44.2-1.35,0,0,22.52,19.47,43.86.17l4.91,4.06s-22.86,23.88-48.6,3.73c0,0-22.69,17.61-44.2.68,0,0-18.63,16.26-43.35-.34,0,0-16.76,17.44-44,0,0,0-21.34,16.59-43,0,0,0-19.47,17.27-44.87,0,0,0-16.59,16.43-43.18,0,0,0-10.84,9.65-22.86,7.45a34.47,34.47,0,0,0-4.74-6.94Zm354.58-45.72a33.36,33.36,0,0,0,14.05-3l-.17,7.11s-13.72,5.76-24.72.17C546.61,511.8,555.07,509.09,557.44,507.56Zm2,23.2s-9.48,1.69-23-8.81c0,0-13.11,13.86-28.52,7.93L500,533.44s19,10.53,36.3-3.87c0,0,5.08,5.93,18.12,7.28ZM484.12,598l15.07-2-6.77-5.08s-2.2,3.73-8.3,7.11Zm-30.31,3.22L465,599.34s-7.45-1.35-15.41-8c0,0-21.17,19-43.52-.17,0,0-22.52,19.64-44.37-.34,0,0-20,21-43.35-.17,0,0-16.43,20.15-43.86.85,0,0-10,6.1-11.18,6.27s7.45,2.37,12.36,1h0s6.43,2.88,7.62,2.88,26.25,2,26.25,2l9-5.59S336.29,615.6,362,599c0,0,16.93,15.75,43.86-.17,0,0,10.67,6.27,12.87,6.27s25.74-2.37,25.74-2.37l4.57-3.89ZM230,596l7.11-.17-6.27-4.4-3.73,2Zm263-20.49c-23.71,17.27-43.86.34-43.86.34-24.38,16.93-44.2-.51-44.2-.51-20.66,16.76-42.67.85-42.67.85-24,15.92-43.86-.68-43.86-.68-26.25,16.93-43.86,0-43.86,0-24,17.61-44.2-.17-44.2-.17-5.42,5.76-16.93,7.79-16.93,7.79l-.51-6.77s10.33-.85,17.95-8.3c0,0,22.35,19.81,43.69.17,0,0,17.78,18.63,43.86-.17,0,0,15.07,20,43.69,0,0,0,17.95,19.13,43.69.17,0,0,22,18.8,43.18,0,0,0,18.63,18.12,44,0,0,0,14.73,12.7,30.31,7.62l.17,6.27s-14.05,4.74-30.48-6.6Z" style="fill:#fff"/><path d="M341.72,696.59a1.62,1.62,0,0,0-1.31,2.91,23.55,23.55,0,0,0,6.53,4.72c2.37-1.15,7.05-1.93,8-3.31-2.51-2-5.25-4.44-8.76-4A25.58,25.58,0,0,0,341.72,696.59Zm-68.41,1.22c-2.3-.17-4.37,2.5-2.59,4.47,5.69,6.69,14.35,10.28,22.08,14.31a70.22,70.22,0,0,0,8.08,3.54c5.14-1.74,10.27-3.49,15.41-5.22-12.79-6.39-25.55-13.46-39.5-16.84A13.11,13.11,0,0,0,273.31,697.81Zm175.38.63c-4.45.56-8,4-12.12,5.6-47.41,24.07-98.4,41.13-149.82,54.18-19.09,4.65-38.42,9.07-57.87,12.28,13.46,6,28.79,3.93,42.94,1.88,32.71-5.74,64.14-17,95.1-28.83,32.06-12.5,63.57-26.38,94.52-41.35C457.57,700,453.21,698.21,448.69,698.44Zm-131.09.78c-3.42-.27-6.73,3.88-4.34,6.81,1.76,1.79,4.77,1.11,6.78,1.41,1.78,1.33,2.8,4.08,4.44,5,5.16-1.95,10.32-3.89,15.47-5.84-4.1-3.38-9-6.24-14.44-6.31A23.06,23.06,0,0,0,317.59,699.22Zm91.5,1.75c-51.26,20.13-103.55,38.51-157.64,49.15-13.25,2.35-26.64,4.81-40.14,4.66,7.07,7.92,18.78,8.71,28.81,8.63,25.4-.94,49.94-8.34,74-15.94,37.29-12.26,73.81-27.4,109.24-43.94C419,701.41,413.93,701,409.09,701Zm-52.5,2.84c-45.39,20.1-94.26,32.38-143.87,35.11q-6.64.28-13.28.23c9.76,9.8,24.73,10.47,37.81,9.91,28.07-1.85,55.1-10.38,81.55-19.48,20.23-7.14,40.12-15.26,59.61-24.22-7.27-.53-14.55-1.13-21.81-1.56Zm107.81,2.91c-53.51,29.71-111.55,50.61-170.62,66.38-14.16,3.59-28.5,7.14-42.91,9.94,11.68,5.69,25.28,3.6,37.68,1.82,31.82-5.83,62.32-17.26,92.37-29.06,26-10.54,51.73-21.68,76.86-34,4.08-2.51,9.61-5.71,9.41-11.19C466.94,709.13,465.92,706.84,464.41,706.72ZM272,711.56c-1.24,2.78-2.54,5.54-3.75,8.34,3.29,1.6,6.78,3.64,7.81,7.44,5.43-1.16,11.65-1.59,16-5.22.6-2.54-3-3.64-4.64-4.75a124,124,0,0,0-15.21-6.22Zm188.72,18.5c-3.67.45-8.75,1.95-9.56,6,.8,3.86,6,3.65,8.91,5.3,17.82,5.91,36.72,11,55.67,8.65a35.37,35.37,0,0,0,14.51-5.29c-21.59-4.42-43.48-8.39-64.72-13.87A9.62,9.62,0,0,0,460.75,730.06Zm-30,9.5c-3.53-.24-6.91,3-5.69,6.69.92,3.77,5.63,3.72,8.46,5.44,19.51,7.61,40.23,13.94,61.41,12.69,8.13-.57,16.12-2.84,22.69-7.66-22.78-.79-46-2.81-67.4-11.1C444,743,437.72,739.46,430.75,739.56Zm-23.12,13.19c-3.16-.35-7,2.61-5.06,5.88,2.51,4.19,8.2,4.79,12.31,7,23.4,8.94,49.15,14.76,74.16,9.82A83,83,0,0,0,500.44,772c-25.58-4.24-51.47-7.86-76.35-15.13C418.71,755.07,413.43,752.51,407.63,752.75Zm-21.72,10c-2.58.43-.6,3.43.59,4.31,8.87,8.41,21.43,11.18,33,14.08,17.15,3.57,34.75,6.06,52.29,5,5-.6-1.33-1.65-3.34-1.88-24.27-4.54-48.6-9.3-71.71-18.13C393.12,764.92,389.83,762.42,385.91,762.72Z" style="fill:#fbca0a"/><path d="M23.23,299s-18.9,15.84-13.09,41.85,4.15,38.17,1.2,47.77c-1.13,3.68-5.54,28.56,16.43,42.2s78,26.52,103,30.3,22.22,11.11,25.25,24.5h0s5.81-13.64.25-24.24-9.09-22.48-8.59-27.53,7.83-27.27-16.16-36.11-74.5-36.37-92.68-45S8.08,323.46,23.23,299Zm0,151.39S10.76,471.17,32.14,500c15.29,20.61,15,39.29,15,39.29S44.08,573.35,90,567.14c46.32-6.26,92.77-4.53,99.07-4.08,8.09.58,15.93,5.51,14.15,20.51l6.43,7.14s8.21-26.07-15.71-40.36-31.07-43.57-31.07-43.57,1.35-8.35-13.21-10.71C105.71,488.93,21.79,505.71,23.21,450.36ZM93.93,584.64s-2.86,26.43,26.79,34.29a52.34,52.34,0,0,1,36.79,33.93A91.07,91.07,0,0,0,185.71,690C206.43,706.07,200,711.79,200,711.79s-.71-21.07-52.14-22.14-44.64-38.57-44.64-38.57,2.14-15.71-7.5-27.5-10-35-7.14-41.79ZM236.07,707.5s-40.71-16.79-71.79-71.79c0,0-8.74-27.65,34.81-35.41,0,0,27.62-4.19,87.33,4.34,72.5,10.36,195.71-2.5,195.71-2.5s104.64-16.43,93.21,28.93-70,76.79-70,76.79,6.79-13.93-24.64-14.64-215.36-1.43-231.07,1.07-13.21,8.21-13.57,13.21Zm306.33,4.13s-3.35-9.82,4.79-15.81,24.19-19.4,39-46.46,37.84-31.61,37.84-31.61,26.1-4.31,23.71-33.77c0,0,5-6.47,6-1.2s2.87,25.62-5.27,36.88-7.9,21.55-8.14,28.5,4.07,36.88-40.47,41.19-50.29,3.83-57.47,22.27Zm-6.49-127s-3.19-25.06,26.61-22.69,97.71,9,112.78,3.39c15.58-5.76,17.95-16.93,17.95-23s1.35-21.34,12.87-37.59,21.67-39.29,9.82-55.2l-3.39,6.1s6.77,28.11-26.75,32.51-90.09,7.45-90.09,7.45-17.27.34-17.95,9.14-7.11,27.09-30.14,45.38-18.29,35.41-17.95,37.11Zm50.32-95.84s0-25.74,13.21-27.09,91.1-14.9,111.76-27.77,18.63-35.56,18.63-35.56-7.11-18.29-.34-55.54-10.84-43.35-10.84-43.35,1.69,8.13,3.73,12.53,6.1,23.71-12.53,35.56-86,42.33-93.81,46.74-24,10.5-23,26.75.68,25.74-4.4,33.19S579.8,475.9,586.23,488.77Z" style="fill:#ed1a23"/><path d="M252.78,49.63c-19,7.93-34.32,22.79-47.05,38.66-.93,1.15-5.4,6.53-2,4.4,14.9-13.9,29.6-28.25,46.14-40.09,1.56-1.27,3.64-1.73,5-3.22a3.84,3.84,0,0,0-2.09.25ZM215.84,70.88c-9.83.91-19.58,5.33-26.16,12.72C199,80.17,207.61,75,217.06,71.78,217.31,70.83,216.59,70.76,215.84,70.88ZM186,84.06c-10.77,1.8-17.53,11.68-22.59,20.56-11.61,21.21-16.51,45.4-22.81,68.56-5.67,19.57-11.36,39.19-18.53,58.26-2.86,8.09-10.28,12.94-16.69,17.89.37-.58,3.09-3.71,4.25-5.34,7.28-9.53,12.85-20.51,14.81-32.41,6.92-27,15.81-53.55,24.47-80.06-5.78.11-9.13,5.9-11.53,10.47-7.87,16.37-8.08,35.05-12.83,52.41-5.22,21.75-13.21,43.3-26.38,61.54.51,1.46,3.81-3,5.12-4.22.9-1-1,1.75-.91,2.46-1.2,5.27,2.25,10.15,6,13.41-2.07-7.18,3.87-13.32,7.62-18.83,6.31-8.06,12.91-16.21,15.7-26.24,10.8-32.27,17.77-65.69,28.46-98C166,109.11,174.74,94,187.81,83.88Zm13.28,4.31c-14,1.57-24.56,13-30.64,25-7.6,14.71-9.92,31.42-14.63,47.17-5,17.85-9.36,36-16.42,53.19-6.11,10-9.18,21.53-13.35,32.43-4.07,7.26-8.81,14.71-9.62,23.17-.37,3.15,2.64,5,5.53,4.53,3.29.52,6.67-1.48,6.78-5,.76-5.64.63-11.88,1.8-17.66,1.46-8.57,3.85-17.76,10.51-23.77,8-11.37,11.62-25.18,15.58-38.39,4-14.65,6.5-29.66,11.94-43.93,7.54-20.9,17.8-41.77,34.48-56.78C200.63,88.36,200,88.3,199.31,88.38Zm.59,27.06c-8.34,2-18,5-22.44,13a12.17,12.17,0,0,0-1.12,7.31C184,128.23,192,121,201.21,115.64,202,115.24,200.09,115.4,199.91,115.44Zm1.81,3.84c-9.07,7.37-18.13,15.34-28.56,20.47-1.86,3.67-.93,8.19-.53,12.16,10.64-8.34,21.76-17,28.53-28.87C201.58,121.92,204.75,115.78,201.72,119.28ZM111.25,164c-10.22,3.63-19.33,10.64-27.33,18-8.69,8.16-15.83,18.21-19.36,29.68,15.82-14.56,31.9-29,46.67-44.54.53-.53,3.38-3.66,0-3.15Zm10.81,2.16c-10.08,7.3-19.35,16.19-26.22,26.66-1.9,2.44-2.43,5.92.58,2,8.66-9.43,17.76-19,26.3-28.19C122.82,165.81,122.73,165.86,122.06,166.16Zm96,.13c-27.64,8.85-50.42,28.74-67.92,51.39-1,1.13-4.35,6-1.15,3.55,19-17.2,38.1-34.35,59.44-48.57,3.74-2.68,8.11-4.27,11.91-6.56A3.24,3.24,0,0,0,218,166.28Zm-25.78,3.88c-6,.26-10.4,5.49-11.28,11.16,4.77-4.1,9.62-9.06,16-10,1.82-.78-2.54-1.21-3.75-1.14a8,8,0,0,0-1,0Zm-12.37,4.34c-5.37,2.14-10.83,4.49-16.59,4.69-2.87,2.58-1.59,7.28-1.47,10.75.35,3,4-2.67,5.81-3.46,4.52-4.15,9.51-7.85,13.72-12.29Zm-61,6.63C93.81,199.57,74,224.09,55,248.54c-4.55,5.52-8.38,11.83-13.36,16.8-4,3.14-5.83,8.68-9.31,12.41-2.41,9.92-2.25,20.41-3,30.59-.56,11.59-1,23.18-1.3,34.78,3.68,3.13,7.38,6.22,11,9.38-2.94-20.07-5-41.2.88-60.87a32,32,0,0,1,10.56-15.85q33.89-33.15,67.76-66.31c-2-9.61.23-19.51,1.66-29.06ZM87.19,200.75c-21,7.94-35.92,26.31-46.44,45.51-2.59,5.31-5.74,10.43-7.19,16.18,10.63-11.85,20.69-24.26,31.3-36.14,7.76-8.85,15.73-17.69,23.88-25.95Zm61.38,34.56c-11.77,20.85-18.44,44.25-23.06,67.63a358.12,358.12,0,0,0-6,68.59c2.63.42,5.3.59,5.09-2.72,4.18-20,7.23-40.41,14.22-59.65,2.22-5.62,7.56-11,5.38-17.5-1.19-3.53-5-5.69-5.25-9.66-1.24-4,1.58-7.25,4.25-9.81,6.57-9.08,6.25-21.13,6.43-31.94C149.21,239.13,150.28,231.13,148.56,235.31ZM80.47,252.25c-9.9,1.94-15.36,12-17.5,21.08a104.28,104.28,0,0,0-1.54,37.51c1.72-3.85,3-9.29,4.52-13.75,4.89-15.09,9.4-30.35,15.45-45l-.49.1Zm8.75,8.28c5.28,11.45,17.12,19.83,30,19.28,1.41,0,5-.3,4.83-.95-6.22-1.33-11.17-6-15.17-10.46A28.37,28.37,0,0,1,89,259.25Zm3.31,17.13c-1.2,18.16-6.14,35.73-12.13,52.79.69.57,2.37-2.35,3.19-3.61C92,312,94.14,294.49,93.53,277.66,93,276.32,93.2,276.26,92.53,277.66ZM49.63,287.94c-7.57,2.79-9.22,12-9.25,19.16.2,17.62,5.52,34.64,11.38,51.09,2.66,1.4,5.31,2.81,8,4.22-6.25-24.32-8-49.68-9.44-74.72l-.47.18ZM113,289.19c-9.21,13.72-14.83,30.28-13.84,46.94,1.19,2.95,1.47-4.19,2.13-5.72,3-13.43,5.65-27.11,11.84-39.47C113.72,290.21,114.76,287.57,113,289.19ZM88.78,337.56c-5.93,1.79-12.25,1-18.22-.16,7.64,6.23,16.41,11.91,26.31,13.31,1.83-1.5,5.36-2.63,5.13-5.37-2.14-1.39-5.38.06-7.66-1.31-2.8-1-4.45-3.85-5.06-6.66l-.47.18h0ZM70.47,343c-4.1.81-3.23,6.07-2.3,9.05,1,5.53,1.44,11.15,2.08,16.73,2.43-5.68,1.7-12.15,2.43-18.19,0-2.62,3.54,2,5.22,2.19A38.41,38.41,0,0,0,96.44,358c1.45,5.51-2.06,10.77-5.19,15,6.72-2.42,10.54-10.65,9-17.44-1.11-4.14-6.18-3-9.18-4.81-6.62-2.38-12.59-6.93-19.69-7.85A3.54,3.54,0,0,0,70.47,343ZM30,435.94c1.42,18.18,7.2,36.64,19.78,50.13,4.26.62,1.06-2.69.3-4.8-6-13.11-12.55-26.63-13.9-41.2.62-3.18-4-3.16-5.92-4.82C29.59,434.58,30.11,435.69,30,435.94Zm11,5.88c-1.18,1,1.17,4.56,1.3,6.52,4.34,13.22,8.19,27,15.73,38.76,1.65,2.77,5.91,3,8.5,1.34-7-15-14.56-29.71-20.34-45.25C46.37,440.3,42.91,442.26,41,441.81Zm21.16,6.44c-4-.27-1.78,3.38-1.41,5.75,3.46,12.62,7,25.68,14.31,36.69,3-.11,6-.29,9-.41a274.2,274.2,0,0,1-21.47-42.12l-.44.09Zm9.5,4.22c2,6.48,4.13,12.94,6.38,19.34,1.74-1,7.6.43,6-2.57C82,463.82,80.58,458,78,452.81a25.2,25.2,0,0,0-6.53-1.06l.15.48Zm18.09,2.91c-1.63-.1-3.26,1.18-2,2.85,1.56,4.44,2.43,9.3,4.89,13.33,2-.53,7.77,1.21,5-2.23a111.06,111.06,0,0,1-5.89-13.74A3.47,3.47,0,0,0,89.78,455.38Zm14.75,2.84c-2.52-.42-2.47,1.36-1.7,3.32.86,3.35,1.3,7.1,3.39,9.9,1.78-.82,8.25.71,5.86-2.2a104,104,0,0,1-5.67-10.64A2.38,2.38,0,0,0,104.53,458.22Zm14.19,2.53c-1.8.81-8.25-.81-6,2.09a37.23,37.23,0,0,1,4.69,13.06,31.58,31.58,0,0,1,3.53,16.34c3.41.26,6.81.55,10.22.81-4.5-10.07-9.83-20.2-11.84-31.09C119,461.63,119.69,460.27,118.72,460.75Zm6.5,1.16c-3,.83-1,4.56-.72,6.54,2,8.84,4.66,18.08,10.25,25.27,1.81.26,5.9.88,5.56-2a297.42,297.42,0,0,1-12.53-29A3.27,3.27,0,0,0,125.22,461.91Zm13.28,4.84c-2.12,10.67,4.31,20.93,11.51,28.23,3.14,2.78-.3-2.84-1-4.2-3.59-7.58-7.95-15-9.61-23.27C139.12,466.35,140.06,463.24,138.5,466.75Zm-60.09,7.16c7.89,4.38,17.73,4.76,26.44,2.66,2.15-.75,4.57-1.21,6.44-2.66-10.61.29-21.31,1-31.9-.08l-.5,0Zm35.19,3.88c-1.34.21-3.68,2.78-1.28,2.91,1.25.49,4.87,1.4,4.38-1A3,3,0,0,0,113.59,477.78Zm-15.44.88c-2.38.11-4.07,1.89-5.5,3.63,2.92-.88,6.53-1,9.16-1.91C102.08,478.86,99.26,478.56,98.16,478.66ZM117,483.78c-3.11.94-4.34,6.1-.75,7.31,2.19,1.13,1.91.67,1.59-1.37-.29-1.8,1.22-4.82-.69-6l-.16,0Zm-15.91,1.31c-2.52.74-1.87,4.92-.84,6.31,1.82-.17,5.08,1.17,6.13-.78C105.65,488.4,104.18,484.25,101.13,485.09Zm60,79.72c2,9,8.56,17.23,17.69,19.81-5.48-6.65-11.91-12.75-16.66-19.87C161.6,564,160.83,563.11,161.13,564.81Zm23.78-.28c-.42,2.47,1.79,5,2.67,7.35,4.44,8.35,9.59,16.6,17,22.59-2.6-6.55-7.11-12.21-10.71-18.22-2.69-4-5.11-8.34-8.29-11.87C185.38,564.45,185,564.21,184.91,564.53Zm-48,1.88c2,3.61,3.54,8,7,10.34,1.8-.47,8.54,1.26,5-1.59-3-3.1-5.7-6.7-8.8-9.51C139.44,566,135.55,564.9,136.94,566.41Zm15.38,0c-.63,3.28,2.14,6.7,4.44,9a21.76,21.76,0,0,0,8.5,4.84c-4-4.69-8.8-9.09-12.44-14C152.64,566.28,152.37,566.14,152.31,566.41Zm-28.69,1.81c7.84,8.72,17.77,15.82,29.13,19.19,5.93,2.48,11.8,5.78,15.91,10.81,2.61-3.05-.55-7.1-3.31-8.72-6.56-4.22-14.77-5.2-21.34-9.61a87.18,87.18,0,0,1-16.22-12.48C127.12,567.81,121.23,566.54,123.63,568.22Zm52.81.25c3.12,7.42,7.22,14.68,8.75,22.59,4.21,1.17,7.54,4.46,10.13,7.72,4-.46,5-1.86,1.72-4.66-6.58-8.79-13.42-17.43-19.81-26.34C176.61,567.9,175.69,567.36,176.44,568.47Zm-66.16,0c-1.6.68-7.95,0-6.28,1.63,10.66,9.11,21.33,18.42,32.31,27,3.91,5.39,7.61,13.12,15,13.59,3.36.22,7.11-1.72,7.06-5.41-.18-6.63-6.94-10.1-12.09-13-13.11-5.77-26.49-12.84-35.75-23.87l-.28,0ZM92,571.5c8.3,10.19,17.61,20.66,30.34,25.09,7.38,3.66,13.28,9.6,18.56,15.55,1.49-.34-2-4-2.87-5.45-6.27-8.28-14-16-23.88-19.6-8.2-4.27-15.1-10.34-21.85-16.47C91.27,569.78,91.88,570.91,92,571.5ZM183,596c-5.83,4-12.81,6.83-18.75,10.75-4.21,4.3-9.82,6.86-15.53,8.78.25,4.83,6,6.1,9.88,6.72,1.8-.09,5.23,1.62,5-1.21,2.07-9,10.87-14.17,18.67-18A59.9,59.9,0,0,1,189,600.5C187.34,598.86,185.6,596,183,596Zm400.23,26.89s55.15-32.17,65.31-48.14C648.55,574.79,607.67,607.93,583.23,622.93Zm4.6-12.82s47.66-30,49.35-36.29H617.83S593.15,606,587.83,610.1Zm5.56-15.24s17.9-10.64,18.87-24.43l-13.79-.73S591.7,578.66,593.39,594.86Zm-6.53,5.56c0-2.66,1.21-23,5.56-30.24l-8.47-.48s-10.4,17.18-25.4,29.27C558.56,599,566.54,616.64,586.86,600.43Zm-31.21-4.35s20.32-19.11,22-26.85l-11.13-1s-5.32,15-17.66,21C549.37,591.48,555.66,596.07,555.66,596.07Zm-19.59.24s8.22,3.87,8.22-6.77,1.69-17.42,6.77-23.71c0,0-11.61-1-15,30.48Zm15.48-14.76,12.82-15.72S547.43,567,551.54,581.56Z" style="fill:#088740"/><path d="M149.91,693.91s6.47,22,17.24,30.89c0,0,6.94-10.54,16.76-10.54s16.52-3.83,8.14-10.78-26.34-11.26-42.15-9.58Zm19.64,33.77s6.47,9.82,20.59,9.58,34-2.39,41.67-1.2,37.84-6.47,32.57-18.68S243.3,710,243.3,710s-7.18,3.11-23.95-7.66-33.29-31.37-42.63-45-17.48-26.58-31.13-34.72-46.7-34.72-46.7-34.72-3.83,17.24,16.52,25.62,36.4,21.55,40.47,29.69,12.45,31.37,33,47.66,13.89,26.34,4.55,26.34-21.31-.48-23.95,10.54Zm405.34-2.35s-4.57-11-12.7-12-18.46,0-14.9-8.64,33.87-12.7,44-11.35c-1.35,14.9-16.43,32-16.43,32Zm-1.69.85s-5.93,15.75-46.23,8.3c0,0-32.68,4.91-47.24-11.51s22-13.89,22-13.89,17.3,4.08,59.77-45.89c47-55.31,81.62-76.54,81.62-76.54s4.41,11.72-3.25,18.67-33.77,10.78-45.74,28-23.35,42.94-37.84,53.16c-16.28,11.49-23.95,24.19-10.78,29s16.31-6.61,27.67,10.7Z" style="fill:#b70f15"/><path d="M180.17,532.12s-9.14-9.82-11.51-20-3-14.22-11.85-17.95h0s11.85-14.22,4.06-30.48S150,438.64,151,429.84s5.08-22.35-19.3-37.93c0,0-2-12.87-.68-13.55a15.41,15.41,0,0,1,3.73-1s4.06-48.77,22.69-80.26l-10.16-13.55,29.46-45,17.95,3S232,201.92,266.53,188l2.54-16.54,47.59-16.65,13.55,12.53s47.07-8.47,83,.68L426,154.84l51.14,17.61v17.27s41.32,17.95,68.75,51.48l18.29-2.37,31.5,44.7-10.5,13.21s20.32,43,22.69,82l12.53,5.42.34,4.06s-32.17,10.16-31.5,30.48-2.37,29.8-6.1,37.93-4.74,22.35-4.74,22.35-25.06,7.11-28.45,10.16c0,0-8.47-13.21-26.75-19.64,0,0-4.06-9.48-14.56-10.84,0,0-2.71-16.26-26.08-20.66,0,0-7.11-10.84-19.3-14.9,0,0-5.42-37.59-7.79-40.3,0,0-38.27-14.22-90.76-.34,0,0-24-6.77-35.22-3.73S213,499.94,213,499.94L183.9,511.8l7.79,17.27Z" style="fill:#fbca0a"/><path d="M365.44,471l.24-85.49s38.08-12,77.59-2.16l5,80.7S400.16,450.85,365.44,471Zm97.47,7.9s-2.39-69.21-10.78-92.2l-5.27-2.16,4.07,80.94Zm-94.59-6s25.62-17.24,79.74-6.47L461.7,481s-62.5.48-80,2.63ZM350.47,484l14.13-10.18L378,484.14s-10.66,6.47-15.69,5.51S350.47,484,350.47,484Zm-4.67-.36,15.81-10.54s-24.91-17.24-81.42-6.71L268.69,480.3S333.35,481.26,345.8,483.66Zm-79-6.23.48-32.57,12.69-9.58-1.2,29.46Zm15.81-43.58L281.38,464s48.85-12.93,81.66,7.42V385.23S289,357.69,282.58,433.85Z" style="fill:#fff"/><path d="M350.83,488.21a130.21,130.21,0,0,0-24.67-2.16c-12.69.24-63.7-1.92-63.7-1.92l.48-33-48.37,50.53-27.78,11.26,6.94,14.85,18.2-5.51-2.87-6s20.59-3.11,26.82-4.31c0,0,37.12,18,56,19.4,0,0,7.66-13.17,17.24-14.37,0,0,4.07-6.47,9.34-7.42,0,0-.48-9.34,7.66-11.73s10.54-8.62,10.54-8.62,6.71.48,7.9,1.68c0,0,4.79-2.63,6.23-2.63Zm16.52,5.51,3.83,3.83s9.1-4.79,19.64,3.59c0,0,13.41,2.16,17.48,8.38,0,0,15.57-.72,22.27,10.3,0,0,12.21-1.92,16.52,3.59s9.82,7.9,17.72,7.66,11.26-1.92,12.45-4.07,9.58-6.71,13.65-6.23,10.54-8.14,10.54-8.14,4.31-8.14,17.72-8.38,18-8.86,18-8.86,0-1.92,10.06-6.23c0,0-8.14-11.73-27.3-17,0,0,1.44-7.42-12.45-11.26,0,0-.72-14.37-26.58-20.83,0,0-6.23-10.06-16.52-14.13l2.39,58.19-87.41,3.35s-5.75,4.79-12,6.23Z" style="fill:#09a04b"/><path d="M189.65,540.92s30.14-17.27,66-3.39,44.37,13.21,57.91.68l-5.42-5.76,5.42,5.76s-1.69-3-7.11-5.76c0,0,17.27,2,27.43-15.58s20.66-10.16,20.66-10.16,3.73,8.13,20.66,7.11h0a39.23,39.23,0,0,0,18.29,7.45c10.84,1.35,16.93,5.76,16.93,5.76s7.45,11.18,28.11,9.82c0,0,8.81,12.87,31.83,6.1,0,0,12.53-.34,27.77-11.18,0,0,25.4-9.48,29.13-9.48s7.45-14.22,48.43-20c0,0,1.35-5.08,8.47-7.45l-5.08-13.21s-38.95,12.87-41,15.24-10.5,8.81-12.53,8.81-17.27,0-22.69,8.13-7.45,7.79-12.19,8.47-9.48,3.39-14.22,8.47h0s-15.58,4.74-22.69,1-6.43-10.5-25.06-8.81c0,0-1-10.5-21.67-10.5,0,0-1.69-7.11-18.63-9.14,0,0-6.77-6.77-18.29-3,0,0-10.84-13.55-25.06-5.76-1.69-1-6.77-2-8.13.34,0,0-5.76,4.4-7.11,5.76s-6.43-3.39-8.81,10.5c0,0-8.81,4.4-9.48,7.45,0,0-11.18,5.08-12.87,9.82s-6.1,6.43-11.18,4.74-37.59-9.48-51.14-19l-24,4.06,3.73,5.08-33.87,10.5a51,51,0,0,0,7.45,7.11Z" style="fill:#919191"/><path d="M536.11,518.23l5.25-3.89s12.19,8.47,25.57,3.56l-3.73,7.28a40.3,40.3,0,0,1-27.09-6.94Zm9,28.45,4.74-5.08s-9.82-4.57-13.38-8c-.34.51-15.07,17.61-40.47,2.2,0,0-23.88,12-34,10.67,0,0,14.05,6.43,31-5.42,0,0,23,17.44,43.86-.34,0,0,1.86,2.37,8.3,5.93ZM330.37,524l3.56-5.08s11,3,23.71-4.74c0,0,5.42,2.88,14.39,1.86,0,0,5.93,5.08,18.63,7.62,0,0-11.68,5.93-28.45-4.91,0,0-11.51,10-31.83,5.25Zm-26.08,22.86s7.79-4.84,8.3-5.69,3-4.3,3-4.3l3.22-2.71s14.73,17.1,42.84,0c0,0,18.46,18.29,44.2-.51,0,0,15.24,12.53,32.17,6.94l4.74,4.4s-13.89,9.65-37.25-3.73c0,0-18.63,16.43-44,0,0,0-18.29,16.43-43.35-.34a34.37,34.37,0,0,1-13.89,5.93ZM190,543l6.43-3.22s16.93,8.47,34.21-6.1c0,0,13.38,11.51,29.8,7.79l8.81,3.39a39.23,39.23,0,0,1-38.61-3.73S212.17,557.18,190,543Zm20.66,22.18A43.52,43.52,0,0,0,230.46,557s18.8,19.13,44.2,0c0,0,17.1,19,44.2-.34,0,0,17.61,17.95,42.84.34,0,0,16.93,17.44,44,.17,0,0,20.32,18.29,43.35-.17,0,0,18.12,17.61,43.86-.17a34.3,34.3,0,0,0,34,5.93l-1.52,8.3s-15.24,4.06-33-6.94c0,0-14.56,17.78-43.69.34,0,0-16.26,16.43-43.52-.17,0,0-17.44,17.1-44.2.17,0,0-14.56,17.44-43.18-.17,0,0-19.3,16.26-43.86-.17,0,0-16.43,17.44-43.52.17,0,0-9.82,7.45-18.12,7.45Zm304.8,23.54c-12-1.69-22.18-8.64-22.18-8.64-27.43,18.12-43.52-.17-43.52-.17-23.54,18.29-43.86.51-43.86.51C380.15,599.17,362,580,362,580c-21,17.78-43.52.51-43.52.51-24.38,17.78-43.69-.51-43.69-.51-23.88,17.44-44.2,0-44.2,0-6.94,5.08-11.68,6.6-11.68,6.6l5.08,4.74s5.08-2.71,6.1-4.74c0,0,18.46,17.61,44.37.68,0,0,17.44,16.93,43.69-.51,0,0,18.8,16.26,44,.51,0,0,19.81,17.61,43.35-.17,0,0,18.8,16.26,43.86,0,0,0,21.34,15.75,44,0a40.51,40.51,0,0,0,16.43,6.6Z" style="fill:#117fcf"/><path d="M647,250.36c1.78,3-1.23,8.08-6.72,11.32s-11.39,3.43-13.16.42h0c-1.78-3,1.23-8.08,6.72-11.32s11.39-3.43,13.16-.42Z" style="fill:#fbce1d;stroke:#fbce1d"/><path d="M656.2,265.2c2.1,3.55-1.45,9.54-7.94,13.36s-13.45,4.05-15.55.5h0c-2.1-3.55,1.45-9.54,7.94-13.36s13.45-4.05,15.55-.5Z" style="fill:#fbce1d;stroke:#fbce1d"/><path d="M662.61,282c2.23,3.61-1.54,9.69-8.41,13.58s-14.24,4.11-16.47.51h0c-2.23-3.61,1.54-9.69,8.41-13.58s14.24-4.11,16.47-.51Z" style="fill:#fbce1d;stroke:#fbce1d"/><path d="M670.87,300.5c1.91,3.92-2.09,10.06-8.94,13.7s-14,3.42-15.87-.51h0c-1.91-3.92,2.09-10.06,8.94-13.7s14-3.42,15.87.51Z" style="fill:#fbce1d;stroke:#fbce1d"/><path d="M640,237.67c1.67,2.78-1.15,7.45-6.3,10.44s-10.68,3.16-12.35.39h0c-1.67-2.78,1.15-7.45,6.3-10.44s10.68-3.16,12.35-.39Z" style="fill:#fbce1d;stroke:#fbce1d"/><path d="M630.91,226.43c-.59,3.5-5.9,7.92-10.51,9.43-1.67.55-3.24.7-5.23,1.34-1.63-2.38.57-6.72,4.92-9.7S629.28,224.05,630.91,226.43Z" style="fill:#fbce1d;stroke:#fbce1d;stroke-width:0.8258708119392395px"/><path d="M623.73,216.06c1.23,2.13-1.12,6.22-5.25,9.12s-8.48,3.54-9.71,1.41h0c-1.22-2.14,1.14-6.22,5.28-9.13S622.5,213.93,623.73,216.06Z" style="fill:#fbce1d;stroke:#fbce1d;stroke-width:0.745100200176239px"/><path d="M617.53,206.05c1.3,1.67-.59,5.27-4.21,8s-7.61,3.65-8.91,2h0c-1.3-1.67.59-5.27,4.21-8s7.61-3.65,8.91-2Z" style="fill:#fbce1d;stroke:#fbce1d"/><path d="M660.43,335.59s3.59-14.54,13-18.64c0,0-16.93,0-21.55,10.43S660.43,335.59,660.43,335.59Zm-9.92,37.12s2.22-10.26,1.2-10.61a8.94,8.94,0,0,0-8.21,3.08c-2.91,3.42-5.13,14.54.51,12.32s6.5-4.79,6.5-4.79ZM634.26,382.8,632.72,372s-5.82,1.37-6.16,7.36S632.38,385.37,634.26,382.8ZM631.87,370l-2.39-12.66s-5,3.6-4.62,9.07c.17,2.39,1.71,6.33,3.76,5.64a8.05,8.05,0,0,0,3.25-2.05Zm-3.08-16.76-2.22-12.14s-6.16,7.36-5.13,11.63S626.57,358,628.79,353.21Zm-3.42-15.91-1.88-10.61s-6.67,4.79-3.93,9.75S625.37,337.3,625.37,337.3Zm-3.08-15.39-2.74-10.61s-5.82,4.45-4.62,9.92,7.36.68,7.36.68ZM618,308.74l-2.91-10.43s-5.13,5.82-3.59,10.26S618,308.74,618,308.74Zm-4.28-14.54-4.79-9.75s-6,7-2.74,11.63S613.74,294.2,613.74,294.2Zm-6.5-14.88-4.62-8.72s-4.28,6-1.37,9.92S607.24,279.32,607.24,279.32Zm-6-12.66-4.28-8s-3.59,7.18-1.71,10.61S601.25,266.66,601.25,266.66ZM688.49,313l-3.42-9.41s-4.45,3.42-3.93,7.36,7.36,2.05,7.36,2.05ZM684,298.47l-5.64-9.75s-7,5.3-4.62,9.24S684,298.47,684,298.47Zm-8.72-17.11-2.91-4.11-.51-5.13s-7,5.13-4.11,7.7,7.53,1.54,7.53,1.54Zm-3.59-15.57.34-11.29s-12.66,5.3-10.43,9.58S671.72,265.8,671.72,265.8Zm1-20.36.17-6.67s-9.75-2.57-15.05,1.37-3.42,9.41,2.74,9.07,12.14-3.76,12.14-3.76Z" style="fill:#fbce1d;stroke:#fbce1d"/><path d="M648.84,345.35c2.59,2.17,2.57,7.25,0,11.35s-6.84,5.67-9.43,3.5-2.57-7.25,0-11.35S646.25,343.19,648.84,345.35Z" style="fill:#fbce1d;stroke:#fbce1d"/><path d="M644.48,329.36c2.59,2.17,2.57,7.25,0,11.35s-6.84,5.67-9.43,3.5-2.57-7.25,0-11.35S641.88,327.19,644.48,329.36Z" style="fill:#fbce1d;stroke:#fbce1d"/><path d="M639.26,313.73c2.5,2.06,2.48,6.9,0,10.8s-6.6,5.4-9.1,3.33-2.48-6.9,0-10.8S636.76,311.67,639.26,313.73Z" style="fill:#fbce1d;stroke:#fbce1d"/><path d="M633.36,297.93c2.41,2,2.39,6.62,0,10.37s-6.35,5.18-8.76,3.2-2.39-6.62,0-10.37S631,296,633.36,297.93Z" style="fill:#fbce1d;stroke:#fbce1d"/><path d="M627,281.17c2,1.73,2,5.79,0,9.07s-5.37,4.53-7.4,2.8-2-5.79,0-9.07S625,279.44,627,281.17Z" style="fill:#fbce1d;stroke:#fbce1d"/><path d="M620.58,267.39c1.83,1.31,1.81,4.37,0,6.85s-4.82,3.42-6.65,2.11-1.81-4.37,0-6.85S618.76,266.09,620.58,267.39Z" style="fill:#fbce1d;stroke:#fbce1d"/><path d="M615.61,253.82c2.19,1.75,2.17,5.85,0,9.16s-5.79,4.57-8,2.83-2.17-5.85,0-9.16S613.42,252.08,615.61,253.82Z" style="fill:#fbce1d;stroke:#fbce1d"/><path d="M610.12,241.06c2.23,1.55,2.21,5.2,0,8.14s-5.89,4.07-8.13,2.51-2.21-5.2,0-8.14S607.89,239.5,610.12,241.06Z" style="fill:#fbce1d;stroke:#fbce1d"/><path d="M602.86,232.44c2.14,1.45,2.12,4.85,0,7.59s-5.65,3.79-7.79,2.34-2.12-4.85,0-7.59S600.72,231,602.86,232.44Z" style="fill:#fbce1d;stroke:#fbce1d"/><path d="M635.52,198.4c2.42,1.13,2.4,3.76,0,5.89s-6.38,2.94-8.79,1.82-2.4-3.76,0-5.89S633.1,197.28,635.52,198.4Z" style="fill:#fbce1d;stroke:#fbce1d"/><path d="M645.85,209c.33,2.18-2.72,4.69-6.81,5.6s-7.67-.12-8-2.31,2.72-4.69,6.81-5.6S645.53,206.81,645.85,209Z" style="fill:#fbce1d;stroke:#fbce1d"/><path d="M653.63,220.14c-.08,2.25-3.5,4.52-7.63,5.06s-7.41-.85-7.33-3.1,3.5-4.52,7.63-5.06S653.71,217.89,653.63,220.14Z" style="fill:#fbce1d;stroke:#fbce1d"/><path d="M663.09,229.85c0,2.29-3.92,4.9-8.7,5.83s-8.62-.17-8.6-2.46,3.92-4.9,8.7-5.83S663.12,227.56,663.09,229.85Z" style="fill:#fbce1d;stroke:#fbce1d"/><path d="M532.22,72.41c3.15,2.65,7.51,3.79,10.94,6.22,26.12,15.06,44.28,41.36,52.92,70.12A149.8,149.8,0,0,1,602,178.66c6.75,7.06,13.27,14.34,20.16,21.25-1.54-8.62-2.16-17.53-5.44-25.75-2.09-5.52-5.13-11.07-10.06-14.44,2.44.26,6.11,1.56,4.29-2.11C603,125,579.62,97.41,550.76,81c-5.8-3.18-11.69-6.53-17.91-8.61h-.63Zm3,12.09c4.8,3.33,10.39,5.74,15.13,9.33,10.21,7.4,19.79,16.16,25.53,27.61,4.67,16.8,6.81,34.34,9.66,51.58,1.33,8.55,2.47,17.18,3.81,25.7l10.66,12c-1.11-12.54-2-25.48-6.84-37.19-2.25-1.83,1.59-3.13.14-5.25-3.75-16.63-7.23-33.4-11.63-49.82-4.92-12.56-17-20.44-28.39-26.66C547.73,89,542,86.1,536,84.48h-.72Zm27.41,27.84c1.26,5.73,1.91,11.81.48,17.47.69,9.63,5.71,18.31,10.24,26.59,2,5.45,3.35,12.12.16,17.41-2.28,10.58-1.4,21.67-1.34,32.47-.45,3.12.47,5.61,3.18,7.31,4.35,4.23,8.74,8.43,13.06,12.69C587.61,216,587,205.6,586,195.41c-2.46-2.91-4.79-5.94-7.5-8.59,1.84,0,6.32,3.63,6.16.78-1.12-21-3.74-42.44-12.2-61.81a51.34,51.34,0,0,0-10.17-15.22Zm53,47.53c12.18,8.09,22.59,18.72,33.44,28.59Q664.42,203,679.5,217.94c-.34,20.83-1.23,41.68-.56,62.5,1.62,5.17,6.4,8.7,9.92,12.67,2.25,2.05.45,5.78,1,8.55-.16,15.42-.28,30.83-.46,46.25,7.11-10.38,8-23.23,9.45-35.4,1.59-18.25,1.57-36.61,1.92-54.91-1.85-13.31-9.18-25.11-16.14-36.34-4.32-5.67-6.62-12.42-11.06-18-8.45-11.54-18.07-22.54-29.64-31-5.42-3.37-11.84-4.85-17.36-7.91-3.9-1.49-7.53-4.4-11.61-5.37l.69,1Zm-93.5,7.41c-4.53-.31-2.12,1.21.56,2.69,14,9.16,28.39,18,40.5,29.31,1.3.58,3.06,5.28,3.1,3.25,0-4.31.66-8.87.34-13-5.16-3.64-10.23-7.95-15.44-11.19-5.22,1.82-11.08-1.68-12.59-6.91-.81-2.6-4.49-2.37-6.69-3.26A36.52,36.52,0,0,0,522.13,167.28Zm8.06,12.13c12.35,10.22,25.05,20.24,35.56,32.31-.22-2.65,1.32-6.07,0-8.24-10.85-9.33-22.28-18.26-35-24.89C529.3,178.35,529.18,178,530.19,179.41Zm74.06,6.44q.39,9.81.78,19.63c4-1.76,8.2-3.73,12.66-3.09q-6.72-9.1-13.5-18.16ZM594.84,209c-2.09,2.43-1.12,6.31-1.2,9.31a23.49,23.49,0,0,0,2.2,8.44c1.2-3.53,3.36-6.84,4.53-10.22-1.6-2.53-2.56-6.12-5.28-7.56H595l-.12,0Zm-22.72,3.25c-1,3.42-.68,7.44,2.15,10,4.58,5.76,9,11.86,14.38,16.8.34-3.15,1.29-6.53,1.22-9.56q-8.76-9-17.53-18.06l-.13.48-.09.36Zm1.41,15.84c.35,3.88-1.14,8.25,1.78,11.44,4.56,6.82,8.48,14.77,15.59,19.24.74-1.71-.13-6,0-8.71.61-3.19-1-5.51-3.28-7.52q-7.05-7.88-14.1-15.77v1.31Zm134.75,40.63c-1.32,27.48-6.3,54.64-11.56,81.59,2.73-1.18,6.07-1.84,8.44-3.34,4-21.47,7.49-43.33,6.38-65.25-.44-4.93-.81-10-3-14.54ZM595.59,302.09c9.22,24.68,15,50.39,19.88,76.25,1.82-.35,7.82,1.27,6.91-.45-4.2-4.56-6.27-11.64-3.51-17.52-3.93-4.12-4.73-10.4-3.47-15.84-3-4.33-5.39-9.83-3.75-15.16,1.37-2-.26-3.08-1.22-4.81-1.88-3.24-1.08-7.39-.75-10.69a14.87,14.87,0,0,1-6.12-12.47C601.42,301.89,596,300.45,595.59,302.09ZM684.91,315c-12.15,4.27-18.86,16.53-23.34,27.88a130.07,130.07,0,0,0-7.31,29.81q14.93-7.09,29.91-14.09c-.87-13.42-2.28-27.15.47-40.44C684.43,317.2,687.34,313.53,684.91,315Zm26.81,118.81c-3.9,2.1-8.33,3.82-11.91,6.16a110.51,110.51,0,0,1-17.91,47.38c4.44-.8,9.54-.53,13.5-2.75,8.81-15.82,13.69-33.58,17.22-51.25Zm-19.78,7.94c-3.82,1.5-8.26,2.44-11.72,4.25-3.59,14.69-8,29.9-17.22,42.19-3.36,2.95,3.54.7,5.33,1,2.49-.83,6.62.84,8-1.71,7.25-14.57,14.14-29.81,16.38-46.05l-.47.18-.28.11Zm-21.53,6.78c-3.73,1.4-8.06,2.28-11.44,4-3.87,13.85-9.77,27.17-18.5,38.66,4.64-.39,9.56-.31,14-1,7-9.76,10.39-21.7,14.17-33,.94-2.94,1.77-5.92,2.61-8.89l-.48.15Zm-23.87,6c-3.67,1-8,1.41-11.28,2.78-4.15,12.66-11,24.17-17.87,35.56,4.38-.45,9-.47,13.22-1.25a161.65,161.65,0,0,0,16.75-37.28l-.49.11-.33.08Zm-20.59,4.16c-3.59,1.15-7.72,1.78-11,3.22-3.31,10.18-6.39,20.95-12.78,29.5-3.83,2.71-1.34,2.5,2.25,2.34,2.77-.35,6.45,1.23,7.86-2a67.29,67.29,0,0,0,14.42-33.23l-.48.14-.27.08ZM607.28,463c-2.17,1.23-6.32.41-6.63,3.54-3.34,9.16-6,18.85-11.75,26.87-3.91,2.57,2.72.69,4.39.88,3,.45,4.78-.9,5.44-3.77,3.79-9,8.15-18,9.26-27.73l-.48.15-.24.07Z" style="fill:#088740"/><path d="M427.87,376.92s19.47-37.67-6.64-69.52-69.15-27.18-88.6-13.17c-18,12.93-38.08,41.43-21.79,80S344,377.94,344,377.94s16.71,3.11,21,4.79A202.37,202.37,0,0,1,427.87,376.92Z" style="fill:#ed1a23;stroke:#ed1a23"/><path d="M272.63,424.08l-54.86,39.62L271.61,421l.68-10.5-28.11,17.61,30.14-20,2.37-5.08-.34-6.1-95.84,43.69,95.84-49.45,2,12.87ZM298,374,223.18,399.7l74.17-28.79Zm-.68-5.42-1.84-4.74L180.85,396Zm-1.84-8.13L294,355.67l-69.57,14.9ZM463,423.4l-.56-4.7,50.28,37.23Zm-2.27-15.56-.48-2.37,34.92,22.67Zm-2.23-13.23-1.35-5.94L555.41,441Zm-21.58-20.13,1.94-4.84,71.85,27.82Zm2.42-7.74,112,27.34-110.55-31Zm1.94-7,.24-3.63,75.72,15.24Zm1-7L576,358.28,442.44,347.64Zm.24-8.47-.48-3.87L526.14,337Zm-1.21-6.53,115.63-20.56L441,333.12Zm-1.45-7.5,77.65-20.56L439.3,327.08Zm-1.94-6.53-.73-5.32,127.73-44.75Zm1.94-11.61L502,278.69l-62.17,28.79ZM462,273.37l35.32-29-35.08,31.45Zm12.34,5.81,51.77-32.66-51.53,35.32Zm-52.25,13.3,87.81-81-84.42,84.42Zm-2.66-.24L463,233.94l-46.93,55.88Zm-5.81-2.9,61.44-99.18L409.55,286Zm-6.29-5.81c0-1.69,32.17-63.62,32.17-63.62l-35.08,62.41Zm-5.81-3.39-4.35-1.69,48.86-115.15Zm-12.82-4.35L410,202.25,392.37,277Zm-8.47-2.42,5.08,1.21,16.93-107.65Zm-2.42-.24,3.63-70.39-8,69.91Zm-8-.73.24-107.16L365,272.41Zm-11.37.24,3.63-.48-8.47-67.73Zm-4.84,1.45c-.73-1.94-20.32-106.92-20.32-106.92l16.45,107.41Zm-7,1.69-20.8-70.88,17.66,71.85Zm-11.85,5.56,4.11-2.9L289.8,164.76Zm-10.64-12.1-29-48.62,25.64,47.41ZM299.72,248.7c-.73-1.21-38.95-57.09-38.95-57.09l37.5,60Zm19.59,41.37-2.18,1.69-45-57.57Zm-6.53,9.68,1.94-5.56-88.3-81.76ZM311.09,301l-60.72-43.54,58.06,46.45Zm-6.53,8.47,2.9-3.63-99.66-60Zm-3.87,7.26,2.42-3.87L230.54,277Zm-5.32,36.53-.73-5.08L160.87,358.28Zm-.73-7.5.48-3.87-53-2.66,13.3,2.42Zm-1.21-6.77,2.9-4.84-120.47-17.9Zm1.94-7.74,1.69-3.87-37.5-7.5.48,2.42Zm2.66-6.77,1.69-5.08L167.4,273.61Z" style="fill:#ed1a23"/><path d="M435.91,374.73s15-37.25-11.61-69.67-58.06-29-78.38-23.71-59,39.19-43.06,92.89" style="fill:none;stroke:#fbca0a;stroke-width:12px"/><path d="M502.24,504.35s8-4.39-11.85-25.4C468.82,456.15,382,347.54,382,347.54l38.61-32.85,7.79,9.14L466,291s-.34,4.74,57.23-54.19l-54.86,41.32s-6.77-1,0-7.11L466,268.3s0,2-4.74,1.69c0,0-4.74,1-5.42,2.37,0,0-11.18-8.47-11.85-10.84s-3,3-3,3l3,10.16-22.35,19s.34,6.43-10.5,2c-2,1-26.08,20.66-26.08,20.66l-1.69-2.71L366.44,327.9l-34.88-42.33s3.73-5.76-4.74-15.24-20.32-24.38-20.32-24.38-10.5-1.69-15.92,10.5-9.48,9.48-16.93,8.13-8.47-12.87-69.09,74.17L233,373.28,293.62,293s1.69-6.1,1.69-8.13,8.81-3.73,9.48-6.77,6.1-.68,13.55,10.84c0,0-2.37,2.37,4.06,9.14s33.19,39.62,33.19,39.62l-4.74,4.4-5.76-.34-14.56,11.85-.68,8.81-10.16,8.81-6.1-.68L306.15,377l-1.69,4.74L298,376.67l-35.56,16.59-.68,6.1,12.53-6.43-.68,11.85-6.77,7.11s-.68,3.73,2.37,5.08c0,0-4.74,5.42-.34,6.43a2.42,2.42,0,0,1,.68,3c-1,1.69-13.55,13.55-20.32,23.71l-14.56,3.73c0,.17-5.76,5.76-5.76,5.76L200.83,485l21.34,28.11s47.41-69.77,51.82-71.46c0,0,7.79-7.11,11.51-5.76s11.18,8.47,13.21,22,6.43,9.14,6.43,9.14,6.1-5.76,7.45-6.43-1.69-5.08-4.74-4.74c0,0-5.76-20.32-5.76-25.74,0,0,8.13,1.35,14.9-7.11s-.68-5.76.68-13.21c0,0,37.59,24.72,78.57,20.32.68-1,.34-25.4.34-25.4s-32.51,1.35-57.23-14.22l14.9-13.89s7.11-6.43,9.14-11.85,8.81-8.81,8.81-8.81L490,500.28s6.88,8.4,12.19,4.06Z"/><path d="M304.21,467s6.27-6.27,7.62-6.6c0,0,.75-3.15-3.81-3.81-2.23-.33-6.52-25.57-6.52-25.57s-.85-7.2-5-4.57a113.31,113.31,0,0,0-11,8.47s11.43,4.32,14.31,24.64c0,0,.68,7.87,4.4,7.45Zm-32.57-25.19,1.73-1.63-7.18-8.66-1.37,1.41Zm-1,1.57s-27.77,36.07-48.6,67.9c0,0-17.44-23.2-19.3-26.42l32.68-30,14.22-3.73,14.05-17.1ZM345,364.88l46.82-38.32,5.51,7.18-29.69,24.91a18,18,0,0,0-5.39,7.18c-1.92,4.67-8,10.18-8,10.18Z" style="fill:#964a3c"/><path d="M301.86,423.19s2.75,5.39,7.3,1.32,6.82-5.63,4.19-8.5-3.35-3.59-4.91-2-5.75,5.39.48,5.75C308.92,419.72,309.16,422.71,301.86,423.19Zm-32.15,2.93s-2.22-1.86-.78-3.05L409.86,305.13a2.3,2.3,0,0,1,2.51.24c1.44,1-1.68,2.16-2.39,2.75ZM306.52,400s1.66-1.06-.73-4.89-2.2-9.37-5.5-11.16C297.47,382.38,303.53,396.73,306.52,400Zm-38.2,18.2L332,364.64l-1.32-.84-62.38,52.56Zm10.39-15.58,4.23-3.89v-6.27l-4.74,3Zm9.82-8.3,8.3-7.28-2-1-6.27,4.23Zm40.64,15.41s26.59,14.22,51.82,15.58C381,425.27,355.09,428.65,329.18,409.69Zm1.35-5.08a169.77,169.77,0,0,0,52,14.73S354.58,420.86,330.54,404.61ZM383,414.26s-27.6-3.39-50.8-15.24c0,0,22.52,16.76,50.8,15.24Zm-48.77-19.64s26.25,12.53,49.11,14.22c0,0-19.64,4.06-49.11-14.22Zm3-27.94c-1-.34-7.52-4-7.52-4l-1,.83L336,368.2Zm3.22-.93,10.92,12.64,2-1.94-10.39-12.31Zm14.73-13.29-8.85-10.4,4.28.19,7.11,8.69Zm36.91-31.67c-.51-.85-5-5.92-5-5.92l-1.93,1.6,13.21,16.84s2.58-1.64,1.9-2-8.17-10.55-8.17-10.55Zm6.1,9.65s51.27-43.17,52-43.86c.47-.45-.34-.51-.34-.51l-53,43.18Zm28.79-34.71-1.52-.51,20.32-17.1,1.35.68Zm33.53-13c0-1.19.68-6.27.68-6.27s6.77,6.6,6.6,8.13-2,4.57-3.89,2a27,27,0,0,0-3.39-3.89Zm11.18-.85c.51-.68,15.07-11.35,19.81-17.95C484.46,268.13,471.76,281.84,471.76,281.84ZM434.68,306.4c.85-.51,16.76-13.38,20-18.29C446.7,292.51,434.68,306.4,434.68,306.4Zm57.07,191s2.71-2.37,5.59,1,1.12,4.3.28,5-2.75.11-4.28-2.09a8.12,8.12,0,0,1-1.59-3.9Zm-7.51-10.88s.57-2-.44-2.67-22.44-27.56-22.44-27.56-2.74-.83-2,.25c5.81,8.43,16.87,21.12,16.87,21.12S477.49,480,484.23,486.52Zm-57-71.08c-1.52-3-46.23-55.71-46.23-55.71l-.51.17-.34,1.86,46.23,54.53Zm-69.93-81.28,2.71-2.37-35.05-44.53h-2l-.68,1.69Zm-33.36-51.65,1.86-2.2-11.68-14.9-2.37,2.2Zm-32.17-5.42s16.09.34,19.47-16.43C305,272.53,291.76,277.1,291.76,277.1Zm.17-11.51s10.5,2.2,13.38-11.35C301.41,262.37,291.93,265.59,291.93,265.59Zm0-4.23s9.14.85,9-10.5C290.41,252.21,291.93,261.35,291.93,261.35ZM230.46,367.69l3.73-3.73L211,336l-4.23,3.73Z" style="fill:#fff"/><path d="M302.87,395.23l.54-2.1,2.39.06.36,3.11-2,.9Zm31.91-26.34a18.79,18.79,0,0,1,.36-1.92l1.86-.78,6.77-2.81-1.05,2.22-.45,1.19-1.62-.48Z" style="fill:#fff"/><path d="M389.14,323.81l.72-2.69,3.29-1.5.16,4.22-1.25.17Z" style="fill:#fff"/><path d="M249.35,629.81l-.24,5.25q-.12,2.51,2.52,2.64l1,0-.06,1.35-11.65-.58.06-1.35.54,0a3.69,3.69,0,0,0,2.17-.37,2.39,2.39,0,0,0,.84-2l.63-13.63a2.82,2.82,0,0,0-.5-2.09,3,3,0,0,0-2-.67l-.7,0,.06-1.35,4.3-.06q3.41-.08,5.47,0a24.78,24.78,0,0,1,5.81.83,7,7,0,0,1,3.3,2,5.48,5.48,0,0,1,1.41,4q-.19,4.18-5.18,5.31a17.27,17.27,0,0,1,2.54,3.28q.9,1.41,2.86,4.07a6.3,6.3,0,0,0,1.93,1.58,9,9,0,0,0,2.38.67l-.06,1.33q-.73,0-2.07-.05a12.8,12.8,0,0,1-5.6-1.21,6.68,6.68,0,0,1-1.69-1.42,21.91,21.91,0,0,1-1.94-2.7l-1.79-2.84a14.07,14.07,0,0,0-1.65-2Zm.52-11.39-.46,9.94,1.3.06a8.45,8.45,0,0,0,4.5-.72,4.35,4.35,0,0,0,2.09-3.93q.23-5-5.69-5.26Z" style="fill:#fbce1d;stroke:#000;stroke-width:0.4000000059604645px"/><path d="M284.93,624a7.13,7.13,0,0,0-.44-2.18,1.86,1.86,0,0,0-1.74-1l-7.3-.29-.29,7.77,5.4.21a2.72,2.72,0,0,0,1.95-.48,2.63,2.63,0,0,0,.65-1.91l1.33.05-.25,6.87-1.33-.05q.07-1.85-1-2.3a6,6,0,0,0-1.93-.31l-4.89-.19-.23,6.22a3.09,3.09,0,0,0,.13,1.29,1.06,1.06,0,0,0,1,.55l5.56.22a3.65,3.65,0,0,0,2.7-.74,5.25,5.25,0,0,0,1.27-2.63l1.25,0-.59,5.41-20-.79,0-1.35,1.37.05q2.6.1,2.69-2.37l.51-13.77a2.45,2.45,0,0,0-.66-2.1,3.84,3.84,0,0,0-2.16-.54h-.33l0-1.35,18.34.73.16,5Z" style="fill:#fbce1d;stroke:#000;stroke-width:0.4000000059604645px"/><path d="M296.41,631.83l-.15,5.12a2.5,2.5,0,0,0,.67,2.11,3.59,3.59,0,0,0,2.15.56l1,0,0,1.35-11.34-.35,0-1.35.5,0A3.32,3.32,0,0,0,291,639a1.92,1.92,0,0,0,.62-1.63l.42-14.8q0-1.53-.84-1.86a4.73,4.73,0,0,0-1.43-.21l-.73,0,0-1.35,5.41-.2q3.78-.07,5.29,0,4.55.14,6.9,2.22a6,6,0,0,1,2.08,4.84q-.13,4.62-5.09,5.93a12.21,12.21,0,0,1-3.49.36,21.34,21.34,0,0,1-3.8-.47Zm.32-11.21-.28,9.79a10.27,10.27,0,0,0,2.4.33,4.3,4.3,0,0,0,4.35-2.28,6.6,6.6,0,0,0,.63-2.83,5.13,5.13,0,0,0-1.18-3.75,4.75,4.75,0,0,0-3.54-1.44,11.53,11.53,0,0,0-2.38.18Z" style="fill:#fbce1d;stroke:#000;stroke-width:0.4000000059604645px"/><path d="M326.56,621.52l0-1.35,8.64.18,0,1.35H335a3.58,3.58,0,0,0-2.32.54,2.91,2.91,0,0,0-.79,2.26l-.17,8.6q-.09,4.59-2.62,6.86t-6.91,2.1a11.83,11.83,0,0,1-6.77-1.9,7,7,0,0,1-2.89-6.28l.2-10.3a2.59,2.59,0,0,0-.47-1.87,2.62,2.62,0,0,0-1.81-.53h-.57l0-1.35,10.43.22,0,1.35h-.57a2.08,2.08,0,0,0-2.4,2.29l-.2,10.3q-.08,3.84,2.94,5.16a7.79,7.79,0,0,0,3,.62,6.72,6.72,0,0,0,4.77-1.48,6.17,6.17,0,0,0,1.88-4.72l.16-8.4q0-2.46-1-3.21a3.09,3.09,0,0,0-1.62-.41ZM319.8,618l2.6-6.47,5.35.11-6,6.4Z" style="fill:#fbce1d;stroke:#000;stroke-width:0.4000000059604645px"/><path d="M339.37,637.63l.13-12.85q0-2.48-1-2.84a6.5,6.5,0,0,0-1.9-.22h-.83v-1.35q.8,0,2.1-.08l2.1-.15,1.86-.08q2.56-.12,3.55-.11,6.77.07,9.14,2.56a4.36,4.36,0,0,1,1.24,3.15q0,3.09-4.14,4.07a7.18,7.18,0,0,1,3.66,2,5.31,5.31,0,0,1,1.54,3.88q0,3.83-4,5.57a11.2,11.2,0,0,1-4.63.83l-12.9-.14v-1.35q3,0,3.72-1.17a3.61,3.61,0,0,0,.34-1.68Zm4.68-7.1-.07,6.74q0,2.33,1.24,2.85a4.69,4.69,0,0,0,1.75.29q4.67.05,4.72-4.75a5,5,0,0,0-1.43-3.88,5.43,5.43,0,0,0-3.79-1.32q-.91,0-2.43.07Zm.09-9.16-.08,7.67q1.46.08,2.57.1,4.17,0,4.2-3.58,0-4.22-4.94-4.27a15.09,15.09,0,0,0-1.76.08Z" style="fill:#fbce1d;stroke:#000;stroke-width:0.4000000059604645px"/><path d="M379,636.11l-2.45,6-17.85,0v-1.35h.55q2,0,2.52-1.06a3.4,3.4,0,0,0,.25-1.42l0-13.83q0-2.48-2.62-2.48h-.63v-1.35l11.29,0V622h-1a2.16,2.16,0,0,0-2.48,2.41l0,14.23a1.66,1.66,0,0,0,.36,1.27,2,2,0,0,0,1.29.32h4.25a3.85,3.85,0,0,0,3.08-1.44q.55-.66,2.05-2.64Z" style="fill:#fbce1d;stroke:#000;stroke-width:0.4000000059604645px"/><path d="M379,622v-1.35l10.59-.06v1.35H389a2.27,2.27,0,0,0-2.53,2.61l.07,13.67a2.54,2.54,0,0,0,.63,2,2.92,2.92,0,0,0,2,.55h.49V642l-10.59.06v-1.35h.47a2.12,2.12,0,0,0,2.41-2.39l-.07-13.81a2.91,2.91,0,0,0-.56-2,2.51,2.51,0,0,0-1.91-.59Z" style="fill:#fbce1d;stroke:#000;stroke-width:0.4000000059604645px"/><path d="M412.48,635.57l1.33,0a23.89,23.89,0,0,1-1.79,6.31,6.72,6.72,0,0,0-2-.21,20.37,20.37,0,0,0-2.54.35,20.67,20.67,0,0,1-3.18.36,13,13,0,0,1-6-1.3,11.3,11.3,0,0,1-4.62-4.07,10.63,10.63,0,0,1,1.92-13.71,13.16,13.16,0,0,1,9-3.42,12.41,12.41,0,0,1,4,.55q2.32.78,2.4.78a.84.84,0,0,0,.66-.35h.83l.39,6-1.3,0a7.25,7.25,0,0,0-3.8-4.67,6.75,6.75,0,0,0-2.9-.58,7.34,7.34,0,0,0-5.76,2.63,9.76,9.76,0,0,0-2.18,6.67,11.27,11.27,0,0,0,1.1,4.82,8.76,8.76,0,0,0,3.17,3.65,7.49,7.49,0,0,0,4.28,1.24,6.88,6.88,0,0,0,4.2-1.44,8.74,8.74,0,0,0,2.7-3.63Z" style="fill:#fbce1d;stroke:#000;stroke-width:0.4000000059604645px"/><path d="M429.7,633.37l-7.29.19-1.3,4.08q-.47,1.45,0,2t2.7.5h.42l0,1.35-8.83.22,0-1.35h.5a2.74,2.74,0,0,0,2.14-1,7.25,7.25,0,0,0,1.05-2.27l5.3-16.61-.38-1,4.93-.13L436,636.74a6.79,6.79,0,0,0,1.22,2.14,3.17,3.17,0,0,0,2.19.87l0,1.35-10.83.28,0-1.35,1.17,0q1.46,0,1.82-.7a2.41,2.41,0,0,0-.21-2Zm-.81-1.89-3.25-8L423,631.64Z" style="fill:#fbce1d;stroke:#000;stroke-width:0.4000000059604645px"/><path d="M447.79,620.69l-.05-1.35,2.35-.22,1.61-.14,1.39-.14q2.66-.28,4.55-.36,6.5-.28,9.5,1a9.32,9.32,0,0,1,5.1,5,11.12,11.12,0,0,1,.88,4,10.77,10.77,0,0,1-2.78,7.87q-3.26,3.67-11.16,4l-10.58.45-.05-1.35a4.59,4.59,0,0,0,2.21-.48,2.18,2.18,0,0,0,.78-2.06L451,623.59q-.09-2.36-1.25-2.75a6.07,6.07,0,0,0-2-.15Zm7.69-.33.64,16.11q.07,1.74.6,2.16a4.07,4.07,0,0,0,2.4.34q5.09-.22,7.36-3.4a10.13,10.13,0,0,0,1.7-6.42,9.65,9.65,0,0,0-2.75-6.9q-2.49-2.37-7.35-2.17a18.83,18.83,0,0,0-2.59.28Z" style="fill:#fbce1d;stroke:#000;stroke-width:0.4000000059604645px"/><path d="M492.51,622.18a7.1,7.1,0,0,0-.63-2.13,1.85,1.85,0,0,0-1.82-.84l-7.29.41.41,7.76,5.39-.3a2.74,2.74,0,0,0,1.9-.66,2.64,2.64,0,0,0,.48-2l1.33-.08.36,6.87-1.33.08q-.1-1.85-1.19-2.2a6,6,0,0,0-1.95-.13l-4.89.28.33,6.21a3.07,3.07,0,0,0,.25,1.27,1,1,0,0,0,1.08.45l5.56-.31a3.67,3.67,0,0,0,2.62-1,5.29,5.29,0,0,0,1-2.74l1.25-.07-.11,5.44-20,1.13-.07-1.35,1.36-.08q2.6-.15,2.47-2.62l-.72-13.76a2.43,2.43,0,0,0-.84-2,3.83,3.83,0,0,0-2.2-.33l-.32,0-.07-1.35,18.33-1,.6,5Z" style="fill:#fbce1d;stroke:#000;stroke-width:0.4000000059604645px"/><path d="M245.88,680.55l-9.17-18.92-.42,13.85a10.9,10.9,0,0,0,0,1.9,1.91,1.91,0,0,0,.9,1.51,4.68,4.68,0,0,0,2.24.35l0,1.52-8.33.26,0-1.52q2.54-.14,2.87-1.61a18.48,18.48,0,0,0,.2-2.61l.42-14.08a3.56,3.56,0,0,0-.45-2.28,2.92,2.92,0,0,0-2.14-.6l0-1.52,7.9-.25,7.77,16.08,6.54-16.52,8.07-.25,0,1.52-1.53.14q-1,.22-1.11.87a8.3,8.3,0,0,0,0,2L261,674.71a18.36,18.36,0,0,0,.22,1.93,1.87,1.87,0,0,0,1,1.49,7,7,0,0,0,2.19.33l0,1.52-11.82.37,0-1.52.64,0a4,4,0,0,0,2.18-.49,2.52,2.52,0,0,0,.63-2.13q0-.64-.13-1.82l-1.33-13.76-7.83,19.9Z" style="fill:#fbce1d;stroke:#000;stroke-width:0.4000000059604645px"/><path d="M267.09,668.25a12.38,12.38,0,0,1,3.85-9.57,14.63,14.63,0,0,1,10.26-4,13.65,13.65,0,0,1,9.71,3.24,11.54,11.54,0,0,1,3.91,8.83,12.76,12.76,0,0,1-2.11,7.46,12.6,12.6,0,0,1-5.88,4.77,17,17,0,0,1-12.71-.13,11.56,11.56,0,0,1-5.29-4.58A11.88,11.88,0,0,1,267.09,668.25Zm5.56-2a15.11,15.11,0,0,0,2.66,8.94,7.5,7.5,0,0,0,6.49,3.32q4.94-.1,6.71-5.13a14.56,14.56,0,0,0,.74-5.06,15.05,15.05,0,0,0-2.41-8.39,7.33,7.33,0,0,0-6.51-3.51,7,7,0,0,0-6.79,4.73,12.39,12.39,0,0,0-.89,5.1Z" style="fill:#fbce1d;stroke:#000;stroke-width:0.4000000059604645px"/><path d="M321.78,672l1.5,0a26.87,26.87,0,0,1-2,7.1,7.56,7.56,0,0,0-2.22-.24,23,23,0,0,0-2.86.39,23.26,23.26,0,0,1-3.57.4,14.62,14.62,0,0,1-6.72-1.46,12.72,12.72,0,0,1-5.2-4.58,12,12,0,0,1,2.16-15.42A14.81,14.81,0,0,1,313,654.35a14,14,0,0,1,4.51.62q2.61.88,2.7.87a.94.94,0,0,0,.75-.39h.93l.43,6.79-1.46,0A8.16,8.16,0,0,0,316.6,657a7.59,7.59,0,0,0-3.27-.66,8.26,8.26,0,0,0-6.48,3,11,11,0,0,0-2.45,7.51,12.68,12.68,0,0,0,1.24,5.43,9.85,9.85,0,0,0,3.57,4.11,8.42,8.42,0,0,0,4.81,1.4,7.74,7.74,0,0,0,4.72-1.62,9.83,9.83,0,0,0,3-4.08Zm-12.37,10.36,2.32-3.45,1.28,0-.8,1.49a2.84,2.84,0,0,1,2.33,3,3.36,3.36,0,0,1-1.81,3.19,4.09,4.09,0,0,1-1.93.48,5.84,5.84,0,0,1-3.27-.89l.31-1.18a4.91,4.91,0,0,0,2.11.41,1.67,1.67,0,0,0,1.15-.46,1.43,1.43,0,0,0,.48-1.12q0-1.31-2.16-1.49Z" style="fill:#fbce1d;stroke:#000;stroke-width:0.4000000059604645px"/><path d="M341.37,669.86l-8.2.06-1.55,4.56q-.56,1.62,0,2.26t3,.62h.48v1.52l-9.94.07v-1.52h.57a3.08,3.08,0,0,0,2.43-1.06,8.15,8.15,0,0,0,1.23-2.53l6.29-18.58-.41-1.14,5.55,0,7.61,19.7a7.65,7.65,0,0,0,1.33,2.44,3.57,3.57,0,0,0,2.44,1v1.52l-12.19.08v-1.52h1.32q1.65,0,2.06-.75a2.72,2.72,0,0,0-.2-2.22Zm-.87-2.14-3.5-9.06-3.09,9.11Z" style="fill:#fbce1d;stroke:#000;stroke-width:0.4000000059604645px"/><path d="M368,678.75l-8.6-19.21-.84,13.83a10.89,10.89,0,0,0,0,1.9,1.92,1.92,0,0,0,.86,1.54,4.68,4.68,0,0,0,2.23.42v1.52h-8.33v-1.52q2.54-.05,2.91-1.51a18.48,18.48,0,0,0,.28-2.6l.84-14.06a3.57,3.57,0,0,0-.38-2.3,2.93,2.93,0,0,0-2.12-.67v-1.52h7.91l7.29,16.32,7-16.31h8.07v1.52l-1.54.09q-1,.19-1.14.83a8.29,8.29,0,0,0,0,2l.88,14.32a18.41,18.41,0,0,0,.16,1.94,1.87,1.87,0,0,0,1,1.52,7.05,7.05,0,0,0,2.18.4v1.52H374.81v-1.52h.64a4,4,0,0,0,2.2-.41,2.51,2.51,0,0,0,.7-2.1q0-.64-.07-1.82l-.92-13.79-8.42,19.64Z" style="fill:#fbce1d;stroke:#000;stroke-width:0.4000000059604645px"/><path d="M392.34,674.06l.13-14.45q0-2.79-1.09-3.2a7.3,7.3,0,0,0-2.14-.25h-.93v-1.52q.9,0,2.36-.09l2.36-.17,2.09-.09q2.88-.14,4-.13,7.61.07,10.28,2.87a4.91,4.91,0,0,1,1.4,3.54q0,3.47-4.65,4.58a8.08,8.08,0,0,1,4.12,2.22,6,6,0,0,1,1.74,4.36q0,4.31-4.52,6.27a12.6,12.6,0,0,1-5.21.94l-14.52-.14v-1.52q3.4,0,4.19-1.33a4.06,4.06,0,0,0,.38-1.89Zm5.25-8-.07,7.59q0,2.62,1.4,3.2a5.27,5.27,0,0,0,2,.32q5.25.05,5.3-5.35a5.62,5.62,0,0,0-1.61-4.36,6.1,6.1,0,0,0-4.27-1.48q-1,0-2.73.09Zm.09-10.3-.08,8.63q1.65.09,2.89.1,4.69,0,4.72-4,0-4.74-5.56-4.8A17,17,0,0,0,397.69,655.77Z" style="fill:#fbce1d;stroke:#000;stroke-width:0.4000000059604645px"/><path d="M414.81,656.43l0-1.52,11.92.19,0,1.52h-.62q-2.86,0-2.9,2.88L423,674.87a2.87,2.87,0,0,0,.66,2.21,3.29,3.29,0,0,0,2.22.66h.55l0,1.52-11.92-.19,0-1.52H415q2.73,0,2.77-2.63L418,659.4a3.28,3.28,0,0,0-.59-2.26,2.83,2.83,0,0,0-2.13-.71Z" style="fill:#fbce1d;stroke:#000;stroke-width:0.4000000059604645px"/><path d="M457.35,687l-.67,1.5a9.05,9.05,0,0,1-2.11.18q-4.56-.11-9.09-3.93l-3.86-3.3a10.84,10.84,0,0,0-3.27-2.09,13.2,13.2,0,0,1-4.72-2.54,11.43,11.43,0,0,1-4.1-9.38,12.09,12.09,0,0,1,4.29-9.3,14.74,14.74,0,0,1,10.37-3.44,15.17,15.17,0,0,1,6.57,1.58,11.61,11.61,0,0,1,5,4.63,12.06,12.06,0,0,1,1.56,6.41,12.33,12.33,0,0,1-3.18,8.22,12.87,12.87,0,0,1-7.21,4.14,25,25,0,0,1,3.52,3.1,30.33,30.33,0,0,0,3.46,3.16,6.2,6.2,0,0,0,3.47,1.07Zm-22.18-21.17q-.17,7.62,4,11a7.35,7.35,0,0,0,4.61,1.68q5.12.12,7-5a16.44,16.44,0,0,0-1-13,7.4,7.4,0,0,0-6.59-4.14,7,7,0,0,0-7,4.43,12.57,12.57,0,0,0-1.08,5.06Z" style="fill:#fbce1d;stroke:#000;stroke-width:0.4000000059604645px"/><path d="M478.72,658l.05-1.52,9.71.35-.05,1.52h-.27a4,4,0,0,0-2.62.57,3.27,3.27,0,0,0-.93,2.53l-.32,9.67q-.17,5.16-3.06,7.67t-7.8,2.25a13.32,13.32,0,0,1-7.58-2.24,7.93,7.93,0,0,1-3.15-7.12l.39-11.58a2.91,2.91,0,0,0-.5-2.11,3,3,0,0,0-2-.62l-.64,0,.05-1.52,11.73.42-.05,1.52-.64,0a2.33,2.33,0,0,0-2.74,2.54l-.39,11.58q-.14,4.32,3.23,5.85a8.77,8.77,0,0,0,3.35.75,7.56,7.56,0,0,0,5.38-1.59,6.94,6.94,0,0,0,2.19-5.27l.31-9.44q.09-2.77-1.12-3.63a3.48,3.48,0,0,0-1.82-.48Z" style="fill:#fbce1d;stroke:#000;stroke-width:0.4000000059604645px"/><path d="M509.08,663.5a8,8,0,0,0-.48-2.45,2.1,2.1,0,0,0-1.95-1.16l-8.21-.4-.39,8.74,6.07.29a3.06,3.06,0,0,0,2.19-.52,3,3,0,0,0,.75-2.15l1.5.07-.35,7.73-1.5-.07q.09-2.08-1.09-2.6a6.77,6.77,0,0,0-2.16-.37l-5.5-.27-.31,7a3.47,3.47,0,0,0,.14,1.45,1.19,1.19,0,0,0,1.16.63l6.25.3a4.1,4.1,0,0,0,3-.8,5.9,5.9,0,0,0,1.45-2.95l1.41.07-.71,6.08L487.84,681l.07-1.52,1.54.07q2.93.14,3.05-2.64l.7-15.48a2.76,2.76,0,0,0-.72-2.37,4.33,4.33,0,0,0-2.43-.63l-.37,0,.07-1.52,20.63,1,.13,5.65Z" style="fill:#fbce1d;stroke:#000;stroke-width:0.4000000059604645px"/></svg>