<svg xmlns="http://www.w3.org/2000/svg" viewBox="0 0 402.46 402.15"><title>Nauru</title><path d="M54.09,108.54l1.44,12.88L42.15,137.16,37.9,187l4.25,44.19.38,18.56,8.63,9.12c-3.1-6.67-5.32-13.83-5.12-21L47.21,194c.2-7.54,8.58-12.8,14.81-17.81l-14.37,7.31c-.91-6.07,1.59-13.53,6.56-20l11.31-14.69-14.37,13.5c-2.64-9-2.5-20.27,4.19-28.94L65,112.62l10.87,36.67L56.28,240.16l.44,37.31L74.9,323.16l2.44,14.5C72,324.82,65.51,321.72,53,312l-.94-15.37-8.94-14.12.69,35.06L30.34,276l-8.56-42.5c-1.78-8.84,2.66-16.52,8-26.12a65.31,65.31,0,0,0-15.44,19c-6.81-10.44-14.42-25.18-1.12-37.19L27.9,175.91c-9.36,4.5-18.77,10.47-25.31,17.63l1.5-23.81c1-16.07,8.91-34.14,22.31-42.94Z" style="fill:#094163;stroke:#000"/><path d="M54.46,119.76c-6.53,3-17.9,17.44-19.49,31.65-2.9,26,1.27,63.63,1,79.75-.2,12.53-6.71,32.14-7,48.52-.32,19.62,10,35.65,10,40.38s-2.13,26.31-1.45,25.13c2.71-4.75,7.23-18.92,7.26-24.83.09-15.35-8.92-26.37-9.15-41-.25-15.6,7.3-29.16,7.12-46.63-.21-20.75-3-50.78-1.74-76.84.46-9.46,7.17-23.83,13.36-28.47l0-7.7Zm9.47-5.11c2.7,6.88,7.75,20.44,8,34.73.38,21-11.21,48.18-14.58,64-2.45,11.51-4.86,36-5.13,52.41C51.9,285.37,69.47,314.56,73,325c1.55,4.61,2.87,7.43,4.64,13.23a26.69,26.69,0,0,0-1.09-18.68C69,301.42,58.93,286,58.91,265.46a244.55,244.55,0,0,1,4.45-47c3.89-20.38,13.41-42,14.67-69.25.43-9.46-4.32-30.81-11.06-40.57l-3,6Z" style="fill:#f0cb46;stroke:#000;stroke-width:2px"/><path d="M75.61,131.29l-5,4.06m7,8.32-5.31,4.06m5.07,8.38-5.47,3.58m-30.91-5.11-6,2.25m5.71,8.56-6.08,2.18m5.89,9.27-5.87,2m40.8-8.7-6.14,2.56m2.69,11-6.33,1.91m-24.74,3-6.25,2.28m33.8,6.23-6.68,2m3.81,9.31-6.93,1.82m-17.55-9.95-5.73,2m6.57,8L36,212.54m6.22,7.85-6,2.31m26.27-2.31L56.31,222m4.51,10.88-6.13,1.9M42.45,231l-6.15,2m5.8,9.44-7.28,2m4.4,11.27-6.84,1.17m26.92-10.2-5.83,1.71m5.39,11.48-6.14,1.54m-16.06,6-6.32,1m5,10.78-6.19,1.22m7.68,8.8-6.15,4.5M59.1,272.11l-5.6,2.69m7.74,9L56.64,287m9,8.46-4,3.62m8.93,7.43L66.68,310m8.68,6.9-3.47,4.5m6.67,5.12-3.3,3.82M40.14,299.72l-6,5.73M43.28,311l-4.75,5.51m5.54,8.37-5.38,2.55M44,142.89,36.55,145" style="fill:none;stroke:#000;stroke-width:2px"/><path d="M348.37,108.54l-1.44,12.88,13.38,15.75L364.55,187l-4.25,44.19-.37,18.56-8.62,9.12c3.1-6.67,5.32-13.83,5.13-21L355.24,194c-.2-7.54-8.58-12.8-14.81-17.81l14.38,7.31c.91-6.07-1.59-13.53-6.56-20l-11.31-14.69,14.38,13.5c2.64-9,2.5-20.27-4.19-28.94l-9.63-20.8-10.87,36.67,19.56,90.88-.44,37.31-18.19,45.69-2.44,14.5c5.32-12.84,11.82-15.94,24.31-25.69l.94-15.37,8.94-14.12-.69,35.06L372.12,276l8.56-42.5c1.78-8.84-2.66-16.52-8-26.12a65.31,65.31,0,0,1,15.44,19c6.81-10.44,14.42-25.18,1.13-37.19l-14.69-13.25c9.36,4.5,18.77,10.47,25.31,17.63l-1.5-23.81c-1-16.07-8.91-34.14-22.31-42.94Z" style="fill:#094163;stroke:#000"/><path d="M348,119.76c6.53,3,17.9,17.44,19.49,31.65,2.9,26-1.27,63.63-1,79.75.2,12.53,6.71,32.14,7,48.52.32,19.62-10,35.65-10,40.38s2.13,26.31,1.45,25.13c-2.71-4.75-7.23-18.92-7.26-24.83-.09-15.35,8.92-26.37,9.15-41,.25-15.6-7.3-29.16-7.12-46.63.21-20.75,3-50.78,1.74-76.84-.46-9.46-7.17-23.83-13.36-28.47l0-7.7Zm-9.47-5.11c-2.7,6.88-7.75,20.44-8,34.73-.38,21,11.21,48.18,14.58,64,2.45,11.51,4.86,36,5.13,52.41.32,19.62-17.25,48.81-20.76,59.24-1.55,4.61-2.87,7.43-4.64,13.23a26.69,26.69,0,0,1,1.09-18.68c7.59-18.12,17.61-33.53,17.63-54.08a244.55,244.55,0,0,0-4.45-47c-3.89-20.38-13.41-42-14.67-69.25-.43-9.46,4.32-30.81,11.06-40.57l3,6Z" style="fill:#f0cb46;stroke:#000;stroke-width:2px"/><path d="M326.84,131.29l5,4.06m-7,8.32,5.31,4.06m-5.07,8.38,5.47,3.58m30.91-5.11,6,2.25m-5.71,8.56,6.08,2.18M362,176.85l5.87,2m-40.8-8.7,6.14,2.56m-2.69,11,6.33,1.91m24.74,3,6.25,2.28M334,197.12l6.68,2m-3.81,9.31,6.93,1.82m17.55-9.95,5.73,2m-6.57,8,5.95,2.2m-6.22,7.85,6,2.31M340,220.38l6.13,1.57m-4.51,10.88,6.13,1.9M360,231l6.15,2m-5.8,9.44,7.28,2m-4.4,11.27,6.84,1.17m-26.92-10.2,5.83,1.71m-5.39,11.48,6.14,1.54m16.06,6,6.32,1m-5,10.78,6.19,1.22m-7.68,8.8,6.15,4.5m-28.41-21.64,5.6,2.69m-7.74,9,4.61,3.23m-9,8.46,4,3.62M332,306.52l3.8,3.47m-8.68,6.9,3.47,4.5m-6.67,5.12,3.3,3.82m35.12-30.61,6,5.73M359.17,311l4.75,5.51m-5.54,8.37,5.38,2.55m-5.34-184.5,7.48,2.11" style="fill:none;stroke:#000;stroke-width:2px"/><path d="M344.94,99.14c11.38,4.19,22,13.69,27.66,18.37,4.93,4.06,1.1,10.79-3,7.2-6.79-5.89-23.41-16.86-23.41-16.86l2.43,17.84,5.48,15.65c1,3-5.54,2.92-6.69-.71L337,108.6c-2.38,7.34-8.5,18.94-11.85,28-1.3,3.5-7.45-1.09-6.38-3.83,2.31-5.92,11.07-29,10.95-34.22l15.21.62Z" style="fill:#f0cb46;stroke:#000;stroke-width:1.8241339921951294px"/><path d="M354.9,104.25l-2.43,7.66m10.7-1.52-3,6.93m10.57-1.21L367.46,123m-47.8,8.49,7.1.48m-3.68-7.49,7.32.22m-4.63-8.36,7.75.78m-4.94-8.66,7.93.65m9.83,29.27,6.24-.35m-8.66-8.49h5.89" style="fill:none;stroke:#000;stroke-width:2px"/><path d="M346.76,90.74c11.35,5.05,24,12.84,29.7,18.49,4.92,4.89-.41,11.91-4.55,7.58-6.77-7.1-25.76-16.67-25.76-16.67l3.33,25.16L360.1,142c1.9,3-4.21,4.39-6.37.61l-8.79-15.46L331.3,101c-2.37,8.85-8.17,20.64-11.52,31.52-1.3,4.22-7.74.88-6.67-2.42,2.31-7.14,13.46-29.48,13.34-35.77Z" style="fill:#f0cb46;stroke:#000;stroke-width:2px"/><path d="M324.94,103.47l4.85-.61m43,3.64-3.38,7.79m-6.67-14.81-2.47,8.05m-6.8-13.34L351.31,102m-37.2,26.76,6.28-.09m-2.73-8.83,6.37,0M321.52,111l6.15.65m25.08,29.14,5.89-.69m-10.92-8h6.07" style="fill:none;stroke:#000;stroke-width:2px"/><path d="M171.28,344.78c-30.24-1.18-57-10.46-82.2-23.39,21.5,6.08,43.17,12.88,68.29,13.91-30.08-3-50.89-11.64-72.08-23.39,18.78,5.06,36.75,9.7,58.8,12-22.42-3.63-42.86-11.8-62-21.5,16.78,5.4,34.52,9.86,51.22,11.38-19-2.68-38.43-10.81-53.74-20.87,14.83,5.61,29.89,10.58,44.26,10.75-17.18-2.94-33.65-11-46.79-21.5,13.11,5.81,27,11.26,40.47,12-17.47-4.87-30.39-12.16-43.63-22.13a134.3,134.3,0,0,0,37.31,11.38c-16-3.76-28.06-11.51-38.57-22.13,11.63,4.8,22.86,11.37,35.41,12-14.85-3.71-27.58-11.69-37.94-22.13,10.89,5.23,21.79,10.41,34.14,10.75-14.85-3.23-25-9.89-34.78-21.5,10,6.06,18.85,10.12,31,11.38-14.14-3.35-23.19-9.31-31.61-22.13,9.19,6.85,19,11.29,29.72,12.65C86.05,238.78,75.75,231,69.48,219c7.9,7.42,16.45,13.71,27.82,15.17-13.39-4.24-21.2-14.32-25.92-25.29,7.33,8,15.27,14.91,26.56,16.44C83.8,219.85,76.61,210.93,72.64,200a44.38,44.38,0,0,0,25.29,17.07c-13-5.9-19.8-15.16-22.76-26.56,5.41,8.95,13.12,15.39,24,18.34C87.3,203.29,79.87,194.69,79,181.65c5.06,8.66,11.94,15.31,21.5,19-11.59-7-15-17.57-17.7-28.45,5.42,8,10.64,16.16,19,20.23-9-9.43-10.55-18.23-13.91-27.19,4.71,7,8.86,14.39,16.44,19-7.64-8.72-8.91-18-10.75-27.19a62.18,62.18,0,0,0,13.91,17.7c-5.51-8-8.08-16-7.59-24,3.23,5.72,5.85,12.16,11.45,15-5.06-7.4-5-13.65-5.76-20.09,2.27,5.09,5.11,9.6,9.37,12.69a42.29,42.29,0,0,1-3.68-17.12c2.13,4,4.15,8.2,7.73,10.8-3.06-5.17-3.06-9.91-2.67-14.59,1.62,3.23,3.12,6.53,5.71,9.28-1.77-4.59-2.38-8.85-.65-12.44,1.3,2.69,2.3,5.94,4.07,7.87-1.48-4.09-2.16-7.89,1-11.67l3,7c.16-3.86.25-7.75,3.33-10.14l38.57,217.51Z" style="fill:#197351;stroke:#000"/><path d="M57.51,99.14c-11.38,4.19-22,13.69-27.66,18.37-4.93,4.06-1.1,10.79,3,7.2,6.79-5.89,23.41-16.86,23.41-16.86l-2.43,17.84-5.48,15.65c-1,3,5.54,2.92,6.69-.71l10.37-32c2.38,7.34,8.5,18.94,11.85,28,1.3,3.5,7.45-1.09,6.38-3.83-2.31-5.92-11.07-29-10.95-34.22l-15.21.62Z" style="fill:#f0cb46;stroke:#000;stroke-width:1.8241339921951294px"/><path d="M47.55,104.25,50,111.92m-10.7-1.52,3,6.93m-10.57-1.21L35,123m47.8,8.49-7.1.48m3.68-7.49-7.32.22m4.63-8.36-7.75.78m4.94-8.66L66,109.1m-9.83,29.27L49.89,138m8.66-8.49H52.66" style="fill:none;stroke:#000;stroke-width:2px"/><path d="M55.69,90.74c-11.35,5.05-24,12.84-29.7,18.49-4.92,4.89.41,11.91,4.55,7.58,6.77-7.1,25.76-16.67,25.76-16.67L53,125.3,42.36,142c-1.9,3,4.21,4.39,6.37.61l8.79-15.46L71.15,101c2.37,8.85,8.17,20.64,11.52,31.52,1.3,4.22,7.74.88,6.67-2.42C87,123,75.88,100.67,76,94.38Z" style="fill:#f0cb46;stroke:#000;stroke-width:2px"/><path d="M77.52,103.47l-4.85-.61m-43,3.64L33,114.3m6.67-14.81,2.47,8.05m6.8-13.34L51.15,102m37.2,26.76-6.28-.09m2.73-8.83-6.37,0M80.94,111l-6.15.65M49.71,140.8l-5.89-.69m10.92-8H48.67" style="fill:none;stroke:#000;stroke-width:2px"/><path d="M231.73,344.78c30.24-1.18,57-10.46,82.2-23.39-21.5,6.08-43.17,12.88-68.29,13.91,30.08-3,50.89-11.64,72.08-23.39-18.78,5.06-36.75,9.7-58.8,12,22.42-3.63,42.86-11.8,62-21.5-16.78,5.4-34.52,9.86-51.22,11.38,19-2.68,38.43-10.81,53.74-20.87-14.83,5.61-29.89,10.58-44.26,10.75,17.18-2.94,33.65-11,46.79-21.5-13.11,5.81-27,11.26-40.47,12,17.47-4.87,30.39-12.16,43.63-22.13a134.3,134.3,0,0,1-37.31,11.38c16-3.76,28.06-11.51,38.57-22.13-11.63,4.8-22.86,11.37-35.41,12,14.85-3.71,27.58-11.69,37.94-22.13-10.89,5.23-21.79,10.41-34.14,10.75,14.85-3.23,25-9.89,34.78-21.5-10,6.06-18.85,10.12-31,11.38,14.14-3.35,23.19-9.31,31.61-22.13-9.19,6.85-19,11.29-29.72,12.65C317,238.78,327.25,231,333.52,219c-7.9,7.42-16.45,13.71-27.82,15.17,13.39-4.24,21.2-14.32,25.92-25.29-7.33,8-15.27,14.91-26.56,16.44,14.13-5.43,21.32-14.35,25.29-25.29a44.38,44.38,0,0,1-25.29,17.07c13-5.9,19.8-15.16,22.76-26.56-5.41,8.95-13.12,15.39-24,18.34,11.9-5.55,19.33-14.14,20.23-27.19-5.06,8.66-11.94,15.31-21.5,19,11.59-7,15-17.57,17.7-28.45-5.42,8-10.64,16.16-19,20.23,9-9.43,10.55-18.23,13.91-27.19-4.71,7-8.86,14.39-16.44,19,7.64-8.72,8.91-18,10.75-27.19a62.18,62.18,0,0,1-13.91,17.7c5.51-8,8.08-16,7.59-24-3.23,5.72-5.85,12.16-11.45,15,5.06-7.4,5-13.65,5.76-20.09-2.27,5.09-5.11,9.6-9.37,12.69a42.29,42.29,0,0,0,3.68-17.12c-2.13,4-4.15,8.2-7.73,10.8,3.06-5.17,3.05-9.91,2.67-14.59-1.62,3.23-3.12,6.53-5.71,9.28,1.77-4.59,2.38-8.85.65-12.44-1.3,2.69-2.3,5.94-4.07,7.87,1.48-4.09,2.16-7.89-1-11.67l-3,7c-.16-3.86-.25-7.75-3.33-10.14L231.73,344.78Z" style="fill:#197351;stroke:#000"/><path d="M201.22,225.87V360l-55.73-40.27-32.72-42.43L102,224.79l99.24,1.08Z" style="fill:#fff"/><path d="M141.93,285.54c-5.71,0-11.42,1.49-17.12,2.5,1.33,2.19,2.7,4.32,4.19,6.44a67.42,67.42,0,0,1,12.94-1.75c6.47,0,13,2.88,19.44,2.88s12.9-2.87,19.38-2.87,14.12,1.92,20.59,2.88v-7.19c-6.47-1-14.12-2.88-20.59-2.87s-12.9,2.88-19.37,2.88S148.4,285.54,141.93,285.54Zm0,16.56a44.68,44.68,0,0,0-6.62.56c1.9,2.26,3.9,4.48,6,6.63h.63c6.47,0,13,2.87,19.44,2.88s12.9-2.88,19.38-2.87,14.12,1.92,20.59,2.88V305c-6.47-1-14.12-2.87-20.59-2.87S167.84,305,161.37,305,148.4,302.1,141.93,302.1ZM181.49,319c-6.47,0-13,2.88-19.44,2.88a39.13,39.13,0,0,1-8.25-1.12c3.23,2.7,6.73,5.44,10.31,8.19,5.79-.49,11.59-2.75,17.38-2.75,6.47,0,14.06,1.92,20.53,2.88v-7.19C195.55,320.89,188,319,181.49,319Zm-.75,17.25a31.75,31.75,0,0,0-5.87.69c3.16,2.26,6.4,4.51,9.69,6.75,5.21.51,11.57,1.92,16.78,2.69V339.1C194.86,338.14,187.21,336.23,180.74,336.23Z" style="fill:#45d;stroke:#000"/><path d="M151.69,238.17l-21.14,2.22-2.28,1.83.87-3.71c.38-1.62,1.56-2.73,4.2-2.95l19.94-1.69Z" style="fill:#fff;stroke:#000;stroke-miterlimit:4.5"/><path d="M150.11,248.83c-4.48-2.43-13.11-4.07-16.72.19s-3.26,10.91-.77,17.1l5.91,16.8-7.83,19.71,2.39,1.75,10.47-17.1-7.65,19.14,3.37,2.65,10.14-18.82-7,20.77,3.47,2.36,11.73-13.3s9.34,10.64,12.66,13.3c2.25,1.8,5.32.06,4.12-2.21l-8.82-19.71,11.53,18.24c1.73,2.1,5.3,0,3.4-2.48l-9-18.7,11.33,16.52c1.07,1.71,3.73-.19,2.58-2.44l-8.65-19.79,6.72-16.72c2.49-6.19,2.92-12.74-.77-17.1s-12.23-2.63-16.72-.19l.23-11.91c.16-8.1-10.62-10.59-13.49-3.09l-1.13,4.42Z" style="fill:#094163;stroke:#000"/><path d="M150,255.9c2-5.52,14.07-5.32,16.2,0,2.39,6,0,13.52,0,13.52-5.4,1.86-10.8,1.37-16.2,0C150,269.42,148,261.18,150,255.9Z" style="fill:#fff;stroke:#000;stroke-linecap:round;stroke-linejoin:round;stroke-width:0.9338780045509338px"/><path d="M125.93,273.41v9.25h26.94V329.1h9.31V282.66H188.8v-9.25Z" style="fill:#c22e2b;stroke:#000;stroke-linecap:round;stroke-linejoin:round;stroke-width:0.9543600082397461px"/><path d="M161.77,234.72a2.08,2.08,0,1,1-2.08-2.08A2.08,2.08,0,0,1,161.77,234.72Z" style="fill:#fff;stroke:#000;stroke-linecap:round;stroke-linejoin:round"/><path d="M200.53,225.87V360l55.73-40.27L289,277.29l10.79-52.49-99.24,1.08Z" style="fill:#45d;stroke:#000"/><path d="M102.48,226H298l-4.24-38.68L275.22,146l-18-22.26-56.7,3.71-56.7-4.77L120,155l-13.78,33.38L102.48,226Z" style="fill:#f7e13b;stroke:#000;stroke-width:2px"/><path d="M144.91,121.67v4.75h1.25v-4.66l-1.25-.09Zm-1.22.06-1.22,1.66v3h1.22Zm3.69.16v4.53h1.22V122l-1.22-.09Zm2.44.19v4.34H151v-4.25l-1.22-.09Zm2.22.69V124h11v-.78l-5-.44Zm103.28,0-7.28.47V124h10.28l-1-1.22Zm-91.28.5v3.16h1.22v-3.06Zm83,0-1.22.09v3H247v-3.12Zm-2.44.16-1.22.09v2.88h1.22v-3Zm-78.12,0v2.94h1.22v-2.84l-1.22-.09Zm75.69.13-1.25.09v2.72h1.25V123.6Zm-73.25.06v2.75h1.25v-2.62Zm70.78.09-1.22.09v2.56h1.22v-2.66Zm-68.31.13v2.53h1.22V124l-1.22-.09Zm65.88.06L236,124v2.41h1.22Zm-63.44.13v2.34H175V124.2Zm49.22.78-1.22.09v1.47H223v-1.56Zm-2.44.16-1.22.09v1.31h1.22V125Zm-79.34,0-1,1.38h1Zm76.91.13-1.25.09v1.16h1.25v-1.25Zm-66.12,0v1.22h11V125.2Zm24,0v1.22h11V125.2Zm48,0v1.22h11V125.2Zm24,0v1.22h11V125.2Zm-60,.09v1.13h1.22v-1l-1.22-.09Zm27.66,0-1.22.09v1h1.22v-1.09Zm-25.22.16v.94h1.22v-.84l-1.22-.09Zm22.78,0-1.22.06v.84h1.22Zm-2.22.13-10.5.69-.5,0v.13h11v-.78Zm-18.12.06v.72h1.25v-.62l-1.25-.09Zm2.47.19v.53h1.22V126l-1.22-.09Zm2.44.22v.31H199v-.22l-1.22-.09Zm62.22,0v.31h.25Zm-120,1.31v1.22h11v-1.22Zm12,0v11h1.22v-11Zm2.44,0v11h1.22v-11Zm2.44,0v11h1.25v-11Zm2.47,0v11h1.22v-11Zm2.44,0v11H163v-11Zm2.22,0v1.22h11v-1.22Zm12,0v11h1.22v-11Zm2.44,0v11h1.22v-11Zm2.44,0v11h1.25v-11Zm2.47,0v11h1.22v-11Zm2.44,0v11H187v-11Zm2.22,0v1.22h11v-1.22Zm12,0v11h1.22v-11Zm2.44,0v11h1.22v-11Zm2.44,0v11h1.25v-11Zm2.47,0v11h1.22v-11Zm2.44,0v11H211v-11Zm2.22,0v1.22h11v-1.22Zm12,0v11h1.22v-11Zm2.44,0v11h1.22v-11Zm2.44,0v11h1.25v-11Zm2.47,0v11h1.22v-11Zm2.44,0v11H235v-11Zm2.22,0v1.22h11v-1.22Zm12,0v11h1.22v-11Zm2.44,0v11h1.22v-11Zm2.44,0v11h1.25v-11Zm2.47,0v11h1.22v-11Zm2.44,0v11H259v-11Zm2.22,0v1.22h2l-1-1.22ZM139,128l-1.22,1.66v8.72H139Zm1,1.81v1.22h11v-1.22Zm24,0v1.22h11v-1.22Zm24,0v1.22h11v-1.22Zm24,0v1.22h11v-1.22Zm24,0v1.22h11v-1.22Zm24,0v1.22h4l-1-1.22Zm-123.44,1.5L135.38,133v5.41h1.22Zm3.44.94v1.25h11v-1.25Zm24,0v1.25h11v-1.25Zm24,0v1.25h11v-1.25Zm24,0v1.25h11v-1.25Zm24,0v1.25h11v-1.25Zm24,0v1.25h6l-1-1.25Zm-125.87,2.38-1.25,1.69v2.06h1.25Zm5.88.09V136h11v-1.22Zm24,0V136h11v-1.22Zm24,0V136h11v-1.22Zm24,0V136h11v-1.22Zm24,0V136h11v-1.22Zm24,0V136h8l-1-1.22h-7ZM140,137.2v1.22h11V137.2Zm24,0v1.22h11V137.2Zm24,0v1.22h11V137.2Zm24,0v1.22h11V137.2Zm24,0v1.22h11V137.2Zm24,0v1.22h10l-1-1.22ZM131.69,138l-.31.41h.31Zm-1,1.41-.91,1.22H139v-1.22Zm9.38,0v11h1.22v-11Zm2.44,0v11h1.22v-11Zm2.44,0v11h1.25v-11Zm2.47,0v11h1.22v-11Zm2.44,0v11H151v-11Zm2.22,0v1.22h11v-1.22Zm12,0v11h1.22v-11Zm2.44,0v11h1.22v-11Zm2.44,0v11h1.25v-11Zm2.47,0v11h1.22v-11Zm2.44,0v11H175v-11Zm2.22,0v1.22h11v-1.22Zm12,0v11h1.22v-11Zm2.44,0v11h1.22v-11Zm2.44,0v11h1.25v-11Zm2.47,0v11h1.22v-11Zm2.44,0v11H199v-11Zm2.22,0v1.22h11v-1.22Zm12,0v11h1.22v-11Zm2.44,0v11h1.22v-11Zm2.44,0v11h1.25v-11Zm2.47,0v11h1.22v-11Zm2.44,0v11H223v-11Zm2.22,0v1.22h11v-1.22Zm12,0v11h1.22v-11Zm2.44,0v11h1.22v-11Zm2.44,0v11h1.25v-11Zm2.47,0v11h1.22v-11Zm2.44,0v11H247v-11Zm2.22,0v1.22h11v-1.22Zm12,0v11h1.22v-11Zm2.44,0v11h1.22v-11Zm2.44,0v11h1.25v-11Zm2.47,0v11h1.22v-11Zm2.44,0v11H271V139.7l-.25-.28Zm-141,2.44-.81,1.09v.13h11v-1.22Zm23.19,0v1.22h11v-1.22Zm24,0v1.22h11v-1.22Zm24,0v1.22h11v-1.22Zm24,0v1.22h11v-1.22Zm24,0v1.22h11v-1.22Zm24,0v1.22h1.72l-1-1.22Zm-144,2.44v1.25h11v-1.25Zm24,0v1.25h11v-1.25Zm24,0v1.25h11v-1.25Zm24,0v1.25h11v-1.25Zm24,0v1.25h11v-1.25Zm24,0v1.25h11v-1.25Zm24,0v1.25h3.47l-.28-.66-.47-.59Zm-145,0L125.81,146v4.44H127Zm1,2.44V148h11v-1.22Zm24,0V148h11v-1.22Zm24,0V148h11v-1.22Zm24,0V148h11v-1.22Zm24,0V148h11v-1.22Zm24,0V148h11v-1.22Zm24,0V148h4.56l-.53-1.22Zm-147.44.84-1.22,1.66v1.16h1.22ZM128,149.2v1.22h11V149.2Zm24,0v1.22h11V149.2Zm24,0v1.22h11V149.2Zm24,0v1.22h11V149.2Zm24,0v1.22h11V149.2Zm24,0v1.22h11V149.2Zm24,0v1.22h5.66l-.53-1.22Zm-150.25,2.22-.87,1.22H127v-1.22Zm6.25,0v11h1.22v-11Zm2.44,0v11h1.22v-11Zm2.44,0v11h1.25v-11Zm2.47,0v11h1.22v-11Zm2.44,0v11H139v-11Zm2.22,0v1.22h11v-1.22Zm12,0v11h1.22v-11Zm2.44,0v11h1.22v-11Zm2.44,0v11h1.25v-11Zm2.47,0v11h1.22v-11Zm2.44,0v11H163v-11Zm2.22,0v1.22h11v-1.22Zm12,0v11h1.22v-11Zm2.44,0v11h1.22v-11Zm2.44,0v11h1.25v-11Zm2.47,0v11h1.22v-11Zm2.44,0v11H187v-11Zm2.22,0v1.22h11v-1.22Zm12,0v11h1.22v-11Zm2.44,0v11h1.22v-11Zm2.44,0v11h1.25v-11Zm2.47,0v11h1.22v-11Zm2.44,0v11H211v-11Zm2.22,0v1.22h11v-1.22Zm12,0v11h1.22v-11Zm2.44,0v11h1.22v-11Zm2.44,0v11h1.25v-11Zm2.47,0v11h1.22v-11Zm2.44,0v11H235v-11Zm2.22,0v1.22h11v-1.22Zm12,0v11h1.22v-11Zm2.44,0v11h1.22v-11Zm2.44,0v11h1.25v-11Zm2.47,0v11h1.22v-11Zm2.44,0v11H259v-11Zm2.22,0v1.22h11v-1.22Zm12,0v11h1.22v-11Zm2.44,0v11h1.22v-11Zm2.44,0v11h1.25v-11ZM120,153.85l0,0-.5,1.19H127v-1.22h-7Zm20,0v1.22h11v-1.22Zm24,0v1.22h11v-1.22Zm24,0v1.22h11v-1.22Zm24,0v1.22h11v-1.22Zm24,0v1.22h11v-1.22Zm24,0v1.22h11v-1.22Zm19.34.28v8.28h1.22v-5.56ZM119,156.29l-.5,1.25H127v-1.25Zm21.06,0v1.25h11v-1.25Zm24,0v1.25h11v-1.25Zm24,0v1.25h11v-1.25Zm24,0v1.25h11v-1.25Zm24,0v1.25h11v-1.25Zm24,0v1.25h11v-1.25ZM118,158.76l-.53,1.22H127v-1.22Zm22.06,0V160h11v-1.22Zm24,0V160h11v-1.22Zm24,0V160h11v-1.22Zm24,0V160h11v-1.22Zm24,0V160h11v-1.22Zm24,0V160h11v-1.22Zm21.78.81v2.84H283v-.12ZM116.94,161.2l-.5,1.22H127V161.2Zm23.09,0v1.22h11V161.2Zm24,0v1.22h11V161.2Zm24,0v1.22h11V161.2Zm24,0v1.22h11V161.2Zm24,0v1.22h11V161.2Zm24,0v1.22h11V161.2Zm-144,2.22v11h1.22v-11Zm2.44,0v11h1.22v-11Zm2.44,0v11h1.25v-11Zm2.47,0v11h1.22v-11Zm2.44,0v11H127v-11Zm2.22,0v1.22h11v-1.22Zm12,0v11h1.22v-11Zm2.44,0v11h1.22v-11Zm2.44,0v11h1.25v-11Zm2.47,0v11h1.22v-11Zm2.44,0v11H151v-11Zm2.22,0v1.22h11v-1.22Zm12,0v11h1.22v-11Zm2.44,0v11h1.22v-11Zm2.44,0v11h1.25v-11Zm2.47,0v11h1.22v-11Zm2.44,0v11H175v-11Zm2.22,0v1.22h11v-1.22Zm12,0v11h1.22v-11Zm2.44,0v11h1.22v-11Zm2.44,0v11h1.25v-11Zm2.47,0v11h1.22v-11Zm2.44,0v11H199v-11Zm2.22,0v1.22h11v-1.22Zm12,0v11h1.22v-11Zm2.44,0v11h1.22v-11Zm2.44,0v11h1.25v-11Zm2.47,0v11h1.22v-11Zm2.44,0v11H223v-11Zm2.22,0v1.22h11v-1.22Zm12,0v11h1.22v-11Zm2.44,0v11h1.22v-11Zm2.44,0v11h1.25v-11Zm2.47,0v11h1.22v-11Zm2.44,0v11H247v-11Zm2.22,0v1.22h11v-1.22Zm12,0v11h1.22v-11Zm2.44,0v11h1.22v-11Zm2.44,0v11h1.25v-11Zm2.47,0v11h1.22v-11Zm2.44,0v11H271v-11Zm2.22,0v1.22h11v-1.22Zm12,1.09v9.91h1.22v-7.19L284,164.51Zm-169,1.34-.5,1.22h.5Zm13,0v1.22h11v-1.22Zm24,0v1.22h11v-1.22Zm24,0v1.22h11v-1.22Zm24,0v1.22h11v-1.22Zm24,0v1.22h11v-1.22Zm24,0v1.22h11v-1.22Zm24,0v1.22h11v-1.22Zm-158,2.44-.53,1.25H115v-1.25Zm14,0v1.25h11v-1.25Zm24,0v1.25h11v-1.25Zm24,0v1.25h11v-1.25Zm24,0v1.25h11v-1.25Zm24,0v1.25h11v-1.25Zm24,0v1.25h11v-1.25Zm24,0v1.25h11v-1.25Zm14.44,1.66v4.47h1.22v-1.75ZM113,170.76l-.5,1.22H115v-1.22Zm15,0V172h11v-1.22Zm24,0V172h11v-1.22Zm24,0V172h11v-1.22Zm24,0V172h11v-1.22Zm24,0V172h11v-1.22Zm24,0V172h11v-1.22Zm24,0V172h11v-1.22ZM112,173.2l-.5,1.22H115V173.2Zm16,0v1.22h11V173.2Zm24,0v1.22h11V173.2Zm24,0v1.22h11V173.2Zm24,0v1.22h11V173.2Zm24,0v1.22h11V173.2Zm24,0v1.22h11V173.2Zm24,0v1.22h11V173.2Zm-160.66,2.22v11h1.22v-11Zm2.44,0v11H115v-11Zm2.22,0v1.22h11v-1.22Zm12,0v11h1.22v-11Zm2.44,0v11h1.22v-11Zm2.44,0v11h1.25v-11Zm2.47,0v11h1.22v-11Zm2.44,0v11H139v-11Zm2.22,0v1.22h11v-1.22Zm12,0v11h1.22v-11Zm2.44,0v11h1.22v-11Zm2.44,0v11h1.25v-11Zm2.47,0v11h1.22v-11Zm2.44,0v11H163v-11Zm2.22,0v1.22h11v-1.22Zm12,0v11h1.22v-11Zm2.44,0v11h1.22v-11Zm2.44,0v11h1.25v-11Zm2.47,0v11h1.22v-11Zm2.44,0v11H187v-11Zm2.22,0v1.22h11v-1.22Zm12,0v11h1.22v-11Zm2.44,0v11h1.22v-11Zm2.44,0v11h1.25v-11Zm2.47,0v11h1.22v-11Zm2.44,0v11H211v-11Zm2.22,0v1.22h11v-1.22Zm12,0v11h1.22v-11Zm2.44,0v11h1.22v-11Zm2.44,0v11h1.25v-11Zm2.47,0v11h1.22v-11Zm2.44,0v11H235v-11Zm2.22,0v1.22h11v-1.22Zm12,0v11h1.22v-11Zm2.44,0v11h1.22v-11Zm2.44,0v11h1.25v-11Zm2.47,0v11h1.22v-11Zm2.44,0v11H259v-11Zm2.22,0v1.22h11v-1.22Zm12,0v11h1.22v-11Zm2.44,0v11h1.22v-11Zm2.44,0v11h1.25v-11Zm2.47,0v11h1.22v-11Zm2.44,0v11H283v-11Zm2.22,0v1.22h5.44l-.53-1.22Zm-173.87,2.22-1.25,3v5.75h1.25Zm5.88.22v1.22h11v-1.22Zm24,0v1.22h11v-1.22Zm24,0v1.22h11v-1.22Zm24,0v1.22h11v-1.22Zm24,0v1.22h11v-1.22Zm24,0v1.22h11v-1.22Zm24,0v1.22h11v-1.22Zm24,0v1.22h6.53l-.53-1.22Zm-168,2.44v1.25h11v-1.25Zm24,0v1.25h11v-1.25Zm24,0v1.25h11v-1.25Zm24,0v1.25h11v-1.25Zm24,0v1.25h11v-1.25Zm24,0v1.25h11v-1.25Zm24,0v1.25h11v-1.25Zm24,0v1.25h7.66l-.56-1.25Zm-168,2.47V184h11v-1.22Zm24,0V184h11v-1.22Zm24,0V184h11v-1.22Zm24,0V184h11v-1.22Zm24,0V184h11v-1.22Zm24,0V184h11v-1.22Zm24,0V184h11v-1.22Zm24,0V184h8.75l-.56-1.22Zm-176.34.88-1.16,2.78h1.16ZM116,185.2v1.22h11V185.2Zm24,0v1.22h11V185.2Zm24,0v1.22h11V185.2Zm24,0v1.22h11V185.2Zm24,0v1.22h11V185.2Zm24,0v1.22h11V185.2Zm24,0v1.22h11V185.2Zm24,0v1.22h9.78l0-.19-.47-1H284Zm-177.84,2.22-.12,1.22h9v-1.22Zm9.84,0v11h1.22v-11Zm2.44,0v11h1.22v-11Zm2.44,0v11h1.25v-11Zm2.47,0v11h1.22v-11Zm2.44,0v11H127v-11Zm2.22,0v1.22h11v-1.22Zm12,0v11h1.22v-11Zm2.44,0v11h1.22v-11Zm2.44,0v11h1.25v-11Zm2.47,0v11h1.22v-11Zm2.44,0v11H151v-11Zm2.22,0v1.22h11v-1.22Zm12,0v11h1.22v-11Zm2.44,0v11h1.22v-11Zm2.44,0v11h1.25v-11Zm2.47,0v11h1.22v-11Zm2.44,0v11H175v-11Zm2.22,0v1.22h11v-1.22Zm12,0v11h1.22v-11Zm2.44,0v11h1.22v-11Zm2.44,0v11h1.25v-11Zm2.47,0v11h1.22v-11Zm2.44,0v11H199v-11Zm2.22,0v1.22h11v-1.22Zm12,0v11h1.22v-11Zm2.44,0v11h1.22v-11Zm2.44,0v11h1.25v-11Zm2.47,0v11h1.22v-11Zm2.44,0v11H223v-11Zm2.22,0v1.22h11v-1.22Zm12,0v11h1.22v-11Zm2.44,0v11h1.22v-11Zm2.44,0v11h1.25v-11Zm2.47,0v11h1.22v-11Zm2.44,0v11H247v-11Zm2.22,0v1.22h11v-1.22Zm12,0v11h1.22v-11Zm2.44,0v11h1.22v-11Zm2.44,0v11h1.25v-11Zm2.47,0v11h1.22v-11Zm2.44,0v11H271v-11Zm2.22,0v1.22h11v-1.22Zm12,0v11h1.22v-11Zm2.44,0v11h1.22v-11Zm2.44,0v11h1.25v-11Zm2.47,0v11h1.22v-11Zm2.44,0v11H295v-.81l-1.12-10.19h-.09Zm-187.87,2.44-.12,1.22H115v-1.22Zm22.09,0v1.22h11v-1.22Zm24,0v1.22h11v-1.22Zm24,0v1.22h11v-1.22Zm24,0v1.22h11v-1.22Zm24,0v1.22h11v-1.22Zm24,0v1.22h11v-1.22Zm24,0v1.22h11v-1.22Zm-166.34,2.44-.12,1.25H115v-1.25Zm22.34,0v1.25h11v-1.25Zm24,0v1.25h11v-1.25Zm24,0v1.25h11v-1.25Zm24,0v1.25h11v-1.25Zm24,0v1.25h11v-1.25Zm24,0v1.25h11v-1.25Zm24,0v1.25h11v-1.25Zm-166.59,2.47-.09,1.22H115v-1.22h-9.59Zm22.59,0V196h11v-1.22Zm24,0V196h11v-1.22Zm24,0V196h11v-1.22Zm24,0V196h11v-1.22Zm24,0V196h11v-1.22Zm24,0V196h11v-1.22Zm24,0V196h11v-1.22ZM105.22,197.2l-.12,1.22H115V197.2Zm22.81,0v1.22h11V197.2Zm24,0v1.22h11V197.2Zm24,0v1.22h11V197.2Zm24,0v1.22h11V197.2Zm24,0v1.22h11V197.2Zm24,0v1.22h11V197.2Zm24,0v1.22h11V197.2Zm-167,2.22-1,9.84v1.16h1.22v-11Zm1.47,0v11h1.22v-11Zm2.44,0v11h1.25v-11Zm2.47,0v11h1.22v-11Zm2.44,0v11H115v-11Zm2.22,0v1.22h11v-1.22Zm12,0v11h1.22v-11Zm2.44,0v11h1.22v-11Zm2.44,0v11h1.25v-11Zm2.47,0v11h1.22v-11Zm2.44,0v11H139v-11Zm2.22,0v1.22h11v-1.22Zm12,0v11h1.22v-11Zm2.44,0v11h1.22v-11Zm2.44,0v11h1.25v-11Zm2.47,0v11h1.22v-11Zm2.44,0v11H163v-11Zm2.22,0v1.22h11v-1.22Zm12,0v11h1.22v-11Zm2.44,0v11h1.22v-11Zm2.44,0v11h1.25v-11Zm2.47,0v11h1.22v-11Zm2.44,0v11H187v-11Zm2.22,0v1.22h11v-1.22Zm12,0v11h1.22v-11Zm2.44,0v11h1.22v-11Zm2.44,0v11h1.25v-11Zm2.47,0v11h1.22v-11Zm2.44,0v11H211v-11Zm2.22,0v1.22h11v-1.22Zm12,0v11h1.22v-11Zm2.44,0v11h1.22v-11Zm2.44,0v11h1.25v-11Zm2.47,0v11h1.22v-11Zm2.44,0v11H235v-11Zm2.22,0v1.22h11v-1.22Zm12,0v11h1.22v-11Zm2.44,0v11h1.22v-11Zm2.44,0v11h1.25v-11Zm2.47,0v11h1.22v-11Zm2.44,0v11H259v-11Zm2.22,0v1.22h11v-1.22Zm12,0v11h1.22v-11Zm2.44,0v11h1.22v-11Zm2.44,0v11h1.25v-11Zm2.47,0v11h1.22v-11Zm2.44,0v11H283v-11Zm2.22,0v1.22h11v-1.22Zm-168,2.44v1.22h11v-1.22Zm24,0v1.22h11v-1.22Zm24,0v1.22h11v-1.22Zm24,0v1.22h11v-1.22Zm24,0v1.22h11v-1.22Zm24,0v1.22h11v-1.22Zm24,0v1.22h11v-1.22Zm24,0v1.22h11v-1.22Zm-168,2.44v1.25h11v-1.25Zm24,0v1.25h11v-1.25Zm24,0v1.25h11v-1.25Zm24,0v1.25h11v-1.25Zm24,0v1.25h11v-1.25Zm24,0v1.25h11v-1.25Zm24,0v1.25h11v-1.25Zm24,0v1.25h11v-1.25Zm12,2.41v3.72h.41Zm-180,.06V208h11v-1.22Zm24,0V208h11v-1.22Zm24,0V208h11v-1.22Zm24,0V208h11v-1.22Zm24,0V208h11v-1.22Zm24,0V208h11v-1.22Zm24,0V208h11v-1.22Zm24,0V208h11v-1.22ZM116,209.2v1.22h11V209.2Zm24,0v1.22h11V209.2Zm24,0v1.22h11V209.2Zm24,0v1.22h11V209.2Zm24,0v1.22h11V209.2Zm24,0v1.22h11V209.2Zm24,0v1.22h11V209.2Zm24,0v1.22h11V209.2Zm-180,2.22v1.22h11v-1.22Zm12,0v11h1.22v-11Zm2.44,0v11h1.22v-11Zm2.44,0v11h1.25v-11Zm2.47,0v11h1.22v-11Zm2.44,0v11H127v-11Zm2.22,0v1.22h11v-1.22Zm12,0v11h1.22v-11Zm2.44,0v11h1.22v-11Zm2.44,0v11h1.25v-11Zm2.47,0v11h1.22v-11Zm2.44,0v11H151v-11Zm2.22,0v1.22h11v-1.22Zm12,0v11h1.22v-11Zm2.44,0v11h1.22v-11Zm2.44,0v11h1.25v-11Zm2.47,0v11h1.22v-11Zm2.44,0v11H175v-11Zm2.22,0v1.22h11v-1.22Zm12,0v11h1.22v-11Zm2.44,0v11h1.22v-11Zm2.44,0v11h1.25v-11Zm2.47,0v11h1.22v-11Zm2.44,0v11H199v-11Zm2.22,0v1.22h11v-1.22Zm12,0v11h1.22v-11Zm2.44,0v11h1.22v-11Zm2.44,0v11h1.25v-11Zm2.47,0v11h1.22v-11Zm2.44,0v11H223v-11Zm2.22,0v1.22h11v-1.22Zm12,0v11h1.22v-11Zm2.44,0v11h1.22v-11Zm2.44,0v11h1.25v-11Zm2.47,0v11h1.22v-11Zm2.44,0v11H247v-11Zm2.22,0v1.22h11v-1.22Zm12,0v11h1.22v-11Zm2.44,0v11h1.22v-11Zm2.44,0v11h1.25v-11Zm2.47,0v11h1.22v-11Zm2.44,0v11H271v-11Zm2.22,0v1.22h11v-1.22Zm12,0v11h1.22v-11Zm2.44,0v11h1.22v-11Zm2.44,0v11h1.25v-11Zm2.47,0v11h1.22v-11Zm2.44,0v11H295v-11Zm2.22,0v1.22h.66l-.12-1.22Zm-192,2.44v1.22h11v-1.22Zm24,0v1.22h11v-1.22Zm24,0v1.22h11v-1.22Zm24,0v1.22h11v-1.22Zm24,0v1.22h11v-1.22Zm24,0v1.22h11v-1.22Zm24,0v1.22h11v-1.22Zm24,0v1.22h11v-1.22Zm24,0v1.22h.91l-.12-1.22Zm-192,2.44v1.25h11v-1.25Zm24,0v1.25h11v-1.25Zm24,0v1.25h11v-1.25Zm24,0v1.25h11v-1.25Zm24,0v1.25h11v-1.25Zm24,0v1.25h11v-1.25Zm24,0v1.25h11v-1.25Zm24,0v1.25h11v-1.25Zm24,0v1.25h1.19l-.12-1.25Zm-192,2.47V220h11v-1.22Zm24,0V220h11v-1.22Zm24,0V220h11v-1.22Zm24,0V220h11v-1.22Zm24,0V220h11v-1.22Zm24,0V220h11v-1.22Zm24,0V220h11v-1.22Zm24,0V220h11v-1.22Zm24,0V220h1.47l-.16-1.22Zm-193,.72-.28,2.94H103Zm1,1.72v1.22h11V221.2Zm24,0v1.22h11V221.2Zm24,0v1.22h11V221.2Zm24,0v1.22h11V221.2Zm24,0v1.22h11V221.2Zm24,0v1.22h11V221.2Zm24,0v1.22h11V221.2Zm24,0v1.22h11V221.2Zm24,0v1.22h1.72l-.12-1.22Zm-193.37,2.22-.12,1.22h.5v-1.22Zm1.38,0v1.47h1.22v-1.47Zm2.44,0v1.47h1.22v-1.47Zm2.44,0v1.47h1.25v-1.47Zm2.47,0v1.47h1.22v-1.47Zm2.44,0v1.47H115v-1.47Zm2.22,0v1.22h11v-1.22Zm12,0v1.47h1.22v-1.47Zm2.44,0v1.47h1.22v-1.47Zm2.44,0v1.47h1.25v-1.47Zm2.47,0v1.47h1.22v-1.47Zm2.44,0v1.47H139v-1.47Zm2.22,0v1.22h11v-1.22Zm12,0v1.47h1.22v-1.47Zm2.44,0v1.47h1.22v-1.47Zm2.44,0v1.47h1.25v-1.47Zm2.47,0v1.47h1.22v-1.47Zm2.44,0v1.47H163v-1.47Zm2.22,0v1.22h11v-1.22Zm12,0v1.47h1.22v-1.47Zm2.44,0v1.47h1.22v-1.47Zm2.44,0v1.47h1.25v-1.47Zm2.47,0v1.47h1.22v-1.47Zm2.44,0v1.47H187v-1.47Zm2.22,0v1.22h11v-1.22Zm12,0v1.47h1.22v-1.47Zm2.44,0v1.47h1.22v-1.47Zm2.44,0v1.47h1.25v-1.47Zm2.47,0v1.47h1.22v-1.47Zm2.44,0v1.47H211v-1.47Zm2.22,0v1.22h11v-1.22Zm12,0v1.47h1.22v-1.47Zm2.44,0v1.47h1.22v-1.47Zm2.44,0v1.47h1.25v-1.47Zm2.47,0v1.47h1.22v-1.47Zm2.44,0v1.47H235v-1.47Zm2.22,0v1.22h11v-1.22Zm12,0v1.47h1.22v-1.47Zm2.44,0v1.47h1.22v-1.47Zm2.44,0v1.47h1.25v-1.47Zm2.47,0v1.47h1.22v-1.47Zm2.44,0v1.47H259v-1.47Zm2.22,0v1.22h11v-1.22Zm12,0v1.47h1.22v-1.47Zm2.44,0v1.47h1.22v-1.47Zm2.44,0v1.47h1.25v-1.47Zm2.47,0v1.47h1.22v-1.47Zm2.44,0v1.47H283v-1.47Zm2.22,0v1.22h11v-1.22Zm12,0v1.47h1.22v-1.47Z" style="fill:#e19459"/><path d="M261.85,125.77c50.19,48.94,60.05,138,1.69,193.52-20.09,19.11-74,57.88-109.94,78.21-9.67,5.47-16.93-3.95-7.38-9.46,33.83-19.53,85.28-50,112.15-76,51.19-49.54,45.78-132.45-2-185.38l5.48-.89Z" style="fill:#f0cb46;stroke:#000;stroke-width:2px"/><path d="M205.47,352.58l7.5,6.16m6.43-15.27,7.1,5.09M152.16,385l8.44,7.9m29.87-30.8,8.17,6.43m32.68-33.88,7.63,4.82m5.62-14.87,7.77,3.88M256.89,314l7.77,3.35M266,304.5l8.84,1.88m-.4-12.46,8.17,1.88m-1.47-13.26,7.9,2m-2.81-13.26,8.3,1.34m-3.62-14.33,7.63.94m-4.69-15.67,7.9.54m-6.56-15.67,7.9.4m-.54-15.8-8.17-1.34m5.36-15.94-7.9-1.34m3.35-14.6-7.5-.54m1.61-13.79-7.1-.27m.8-11.79-7-.4m-.8-11.38-6.43-.13m-2.28-10.18h-5.62" style="fill:none;stroke:#000;stroke-width:2px"/><path d="M252.08,43.23l26.52-8.84,22.23,15.27-20.89.27.27,17.68L255.56,51.53a7.46,7.46,0,0,1-3.48-8.3Z" style="fill:#fff;stroke:#000;stroke-width:2px"/><path d="M152.06,44l-26.52-8.84L103.31,50.46l20.89.27-.27,17.68,24.64-16.07a7.46,7.46,0,0,0,3.48-8.3Z" style="fill:#fff;stroke:#000;stroke-width:2px"/><path d="M120.08,25.77C178.3-5,226.53-4.51,284.06,26.55l-14.9,25.54c-53-26.35-89.08-26.71-134.47-.22Z" style="fill:#fff;stroke:#000;stroke-width:2px"/><path d="M142.87,20l12.85,7.12-3.05-7.36a3.77,3.77,0,0,0-1.31-1.9A2.64,2.64,0,0,0,149,18l-.19-.47,5.66-2.34.19.47a4.6,4.6,0,0,0-1.31,1,1.58,1.58,0,0,0-.28,1,5.41,5.41,0,0,0,.5,1.79l5.91,14.26-.43.18L141.59,24.4l4.51,10.89q.61,1.48,1.5,1.72a2.71,2.71,0,0,0,1.77-.13l.4-.17.19.47-6.08,2.52-.19-.47a3,3,0,0,0,1.73-1.4,2.94,2.94,0,0,0-.24-2.16l-5-12.09-.55-.3a3.61,3.61,0,0,0-1.33-.5A3.13,3.13,0,0,0,137,23l-.19-.47L142.87,20Z"/><path d="M172.33,24.42l-6.4,1.41-.37,1.93a4,4,0,0,0-.05,1.54,1.24,1.24,0,0,0,.86,1,5.29,5.29,0,0,0,1.85-.07l.11.49-6,1.32-.11-.49a2.77,2.77,0,0,0,1.43-1.15,11.16,11.16,0,0,0,.95-3.08l3.3-15.87.25-.06,9.8,13.41A9.26,9.26,0,0,0,180,27.11a2.15,2.15,0,0,0,1.39.2l.11.49-8.76,1.93-.11-.49.36-.08a2.81,2.81,0,0,0,1.42-.62.73.73,0,0,0,.16-.68,1.68,1.68,0,0,0-.19-.48q-.05-.11-.62-.91l-1.46-2Zm-.67-.89-4.07-5.64-1.41,6.85Z"/><path d="M192,8.32a9.21,9.21,0,0,1,10.6,8.74A9.89,9.89,0,0,1,201,23.4a9.18,9.18,0,0,1-7.46,4.08,9.37,9.37,0,0,1-8-2.84,9.82,9.82,0,0,1-2.6-6.19,9.24,9.24,0,0,1,2.32-7.06A9,9,0,0,1,192,8.32Zm.22.86A4.18,4.18,0,0,0,188.53,12a13.89,13.89,0,0,0-.65,6.19q.33,4.73,2.15,6.88a3.8,3.8,0,0,0,3.36,1.36,3.9,3.9,0,0,0,2.3-.85,5.61,5.61,0,0,0,1.67-2.91,15.6,15.6,0,0,0,.32-5.05,16.59,16.59,0,0,0-1.06-5.44,5.33,5.33,0,0,0-1.93-2.46A4.08,4.08,0,0,0,192.21,9.18Z"/><path d="M213.38,10.52,212.49,18l.37,0a2.93,2.93,0,0,0,2.67-.8,6.81,6.81,0,0,0,1.39-3.13l.52.06-1.14,9.64-.52-.06a7.17,7.17,0,0,0-.39-2.66,2.9,2.9,0,0,0-1-1.49,4.57,4.57,0,0,0-2-.59l-.61,5.19a7.94,7.94,0,0,0-.1,1.87,1.16,1.16,0,0,0,.42.61,2.28,2.28,0,0,0,1.11.35l1.1.13a6.62,6.62,0,0,0,4.27-.71,6.68,6.68,0,0,0,2.67-3.37l.5.06-1.52,5.75L204.31,27l.06-.5.61.07a2.56,2.56,0,0,0,1.32-.13,1.25,1.25,0,0,0,.62-.59,5.63,5.63,0,0,0,.35-1.69l1.44-12.11a9.71,9.71,0,0,0,.11-1.54,1.31,1.31,0,0,0-.42-.79A2.35,2.35,0,0,0,207,9.21l-.61-.07.06-.5,15.41,1.83-.65,5.44-.52-.06a6.62,6.62,0,0,0-.77-3,4.1,4.1,0,0,0-1.86-1.51,11,11,0,0,0-2.82-.58l-1.9-.23Z"/><path d="M231.4,22.8l-1.27,5a6,6,0,0,0-.29,1.89,1.4,1.4,0,0,0,.49.76,4.38,4.38,0,0,0,1.63.65l-.12.49-9.2-2.33.12-.49a4.31,4.31,0,0,0,1.74.2,1.39,1.39,0,0,0,.78-.45,5.47,5.47,0,0,0,.65-1.78l3-11.66a5.47,5.47,0,0,0,.28-1.88,1.31,1.31,0,0,0-.47-.77,4.38,4.38,0,0,0-1.63-.65l.12-.49,8.35,2.11a18.8,18.8,0,0,1,4.66,1.66,4.94,4.94,0,0,1,2,2.29,4.58,4.58,0,0,1,.24,3.08,4.38,4.38,0,0,1-2.26,2.92,6.1,6.1,0,0,1-2.87.59l2.78,7.18a9.49,9.49,0,0,0,.83,1.78,2.32,2.32,0,0,0,1.15.77l-.12.49-5.66-1.43-3.72-9.66ZM233.63,14l-2,7.87.76.19a8.88,8.88,0,0,0,2.84.37,2.84,2.84,0,0,0,1.74-.86,4.6,4.6,0,0,0,1.11-2.17,4.3,4.3,0,0,0-.2-3.28,4.3,4.3,0,0,0-2.84-1.76Z"/><path d="M258.94,20.25a9.21,9.21,0,0,1,5.91,12.4,9.89,9.89,0,0,1-4.15,5.06,9.18,9.18,0,0,1-8.49.55,9.37,9.37,0,0,1-6-5.94,9.82,9.82,0,0,1,.26-6.71,9.23,9.23,0,0,1,5.08-5.42A9,9,0,0,1,258.94,20.25Zm-.16.88a4.18,4.18,0,0,0-4.54,1A13.88,13.88,0,0,0,251,27.5q-1.7,4.43-1,7.15a3.8,3.8,0,0,0,2.47,2.65,3.9,3.9,0,0,0,2.44.2,5.61,5.61,0,0,0,2.75-1.93,15.6,15.6,0,0,0,2.42-4.44,16.59,16.59,0,0,0,1.33-5.38,5.33,5.33,0,0,0-.71-3A4.08,4.08,0,0,0,258.78,21.13Z"/><path d="M140,125.24c-50.19,48.94-60.05,138-1.69,193.52,20.09,19.11,74,57.88,109.94,78.21,9.67,5.47,16.93-3.95,7.38-9.46-33.83-19.53-85.28-50-112.15-76-51.19-49.54-45.78-132.45,2-185.38l-5.48-.89Z" style="fill:#f0cb46;stroke:#000;stroke-width:2px"/><path d="M196.4,352l-7.5,6.16m-6.43-15.27-7.1,5.09m74.33,36.43-8.44,7.9m-29.87-30.8L203.23,368M170.55,334.1l-7.63,4.82m-5.62-14.87-7.77,3.88M145,313.47l-7.77,3.35M135.86,304,127,305.84m.4-12.46-8.17,1.88M120.73,282l-7.9,2m2.81-13.26-8.3,1.34M111,257.76l-7.63.94M108,243l-7.9.54m6.56-15.67-7.9.4m.54-15.8,8.17-1.34m-5.36-15.94,7.9-1.34m-3.35-14.6,7.5-.54m-1.61-13.79,7.1-.27m-.8-11.79,7-.4m.8-11.38,6.43-.13m2.28-10.18H141" style="fill:none;stroke:#000;stroke-width:2px"/><path d="M74,94.6l-8.2-5.72c8-6.59,21.9-17.91,43.73-17.62,42.48.56,83.8,52.36,83.8,52.36l-15.1-.59s-36.57-42.76-68.07-44.14C93.08,78.56,86.47,84.47,74,94.6Z" style="fill:#f0cb46;stroke:#000;stroke-miterlimit:10;stroke-width:2px"/><path d="M78,81.59l7.74,3.46M91,75.48l4.69,4.07M105.3,72l2.44,5.91m10.39-5.09L119.36,80M131,75.89l-1.43,7.74m11.61-2.85-2,7.95m11-2.85-2.65,8.56m12.63-1.83-2.85,9.58m12.83-1.83-3.26,10.39m10.8-2.85-2.44,10.8" style="fill:none;stroke:#000;stroke-linecap:round;stroke-width:2px"/><path d="M327.27,94.6l8.2-5.72c-8-6.59-21.9-17.91-43.73-17.62-42.48.56-83.8,52.36-83.8,52.36L223,123s36.57-42.76,68.07-44.14c17.09-.33,23.69,5.59,36.17,15.72Z" style="fill:#f0cb46;stroke:#000;stroke-miterlimit:10;stroke-width:2px"/><path d="M323.26,81.59l-7.74,3.46m-5.3-9.58-4.69,4.07M296,72l-2.44,5.91m-10.39-5.09L281.9,80m-11.61-4.07,1.43,7.74M260.1,80.78l2,7.95m-11-2.85,2.65,8.56m-12.63-1.83,2.85,9.58m-12.83-1.83,3.26,10.39m-10.8-2.85,2.44,10.8" style="fill:none;stroke:#000;stroke-linecap:round;stroke-width:2px"/><path d="M326.45,96.68l2.46,5.47c-21,12.5-46.28,22.46-70.84,25-37.51,3.88-77.1,3.26-113.64-.76-24.14-2.66-52.49-12.74-72.69-25l3.07-4.46c20.58,11.49,48.68,20.83,72.84,23.23,35.56,3.53,70.16,4.49,108.72,1.14C281,119.16,305.11,108.42,326.45,96.68Z" style="fill:#f0cb46;stroke:#000;stroke-width:2px"/><path d="M90.41,105.22l-4.22,3.31m13.4.3-3.76,4.07m14.15-.45-3.31,4.67m14.6-1.36-2.71,5.12m14.76-2.41-2.26,5.42m14.76-3.46-2,5.57m14-4.67-1.2,5.72m14.15-4.52-.75,5.57m14-5-.3,5.57m127.4-23.46,4.22,3.31m-13.11.69,3.76,4.07m-13.86-.26,3.31,4.67m-14.22-.87,2.42,4.83m-14.56-2.12,2,5.13m-14.47-3.17,2,5.28m-14.1-4.38,1.3,5.63m-14.44-4.9.75,5.57M218,123.64l.4,5.67" style="fill:none;stroke:#000;stroke-width:2px"/><path d="M85.48,64.89l3.24,5.23c1.84,3,8.63-.8,7-3.49l-3.37-5.48c-1.62-2.64-8.6.92-6.86,3.74Z" style="fill:#f0cb46;stroke:#000;stroke-width:2px"/><path d="M92.46,60.91l5.86-3.37,3.61,5.86-6.11,3.24-3.37-5.73Z" style="fill:#094163;stroke:#000"/><path d="M112.06,86.31l.28,6.15c.16,3.49,7.92,3.51,7.8.36l-.26-6.43c-.13-3.1-8-3.4-7.81-.08Z" style="fill:#f0cb46;stroke:#000;stroke-width:2px"/><path d="M120.1,86.23l6.76-.08.3,6.88-6.91-.15-.14-6.65Z" style="fill:#094163;stroke:#000"/><path d="M118.77,101.77l-1,6.07c-.59,3.45,7,5.11,7.54,2l1.1-6.34c.53-3.05-7.06-5-7.61-1.73Z" style="fill:#f0cb46;stroke:#000;stroke-width:2px"/><path d="M126.64,103.4l6.62,1.35-1.17,6.78-6.72-1.61,1.27-6.53Z" style="fill:#094163;stroke:#000"/><path d="M97.82,120.47,93.68,125c-2.35,2.59,3.14,8.08,5.28,5.75L103.3,126c2.09-2.28-3.25-8-5.48-5.56Z" style="fill:#f0cb46;stroke:#000;stroke-width:2px"/><path d="M103.58,126.09l4.85,4.71-4.64,5.09-4.8-5,4.59-4.81Z" style="fill:#094163;stroke:#000"/><path d="M68.89,90.9c15.82-3,27.62-3.66,43.19-4.5l.13,6c-10.29.63-24.3,2.49-33.77,3.69,11.26,2.35,27.65,4.58,40.41,5.87l-1.17,5.9C104.52,107,85,103,72.47,100.1a274.76,274.76,0,0,0,25.19,20.55l-4,4.48A229.4,229.4,0,0,1,69,104.68l-10-18A56.76,56.76,0,0,1,85.57,65l3.2,5.31C78.21,74,72.34,80.1,68.89,90.9Z" style="fill:#f0cb46;stroke:#000;stroke-miterlimit:10;stroke-width:2px"/><path d="M71.08,74.46l1.22,7.13m6.72-13,.81,6.11M105.71,87.5l2.65,4.69M96.14,88.52,99,93.2M86.15,89.54,88.8,94m.2,4.89,1.63,4.48m8.56-3.06,1.63,4.48m8.56-3.26,1.63,4.89m-21,9.37L88.6,120.5M81.47,109.1l-.61,5.09" style="fill:none;stroke:#000;stroke-linecap:round;stroke-width:2px"/><path d="M315.79,64.89l-3.24,5.23c-1.84,3-8.63-.8-7-3.49l3.37-5.48c1.62-2.64,8.6.92,6.86,3.74Z" style="fill:#f0cb46;stroke:#000;stroke-width:2px"/><path d="M308.81,60.91l-5.86-3.37-3.61,5.86,6.11,3.24,3.37-5.73Z" style="fill:#094163;stroke:#000"/><path d="M289.21,86.31l-.28,6.15c-.16,3.49-7.92,3.51-7.8.36l.26-6.43c.13-3.1,8-3.4,7.81-.08Z" style="fill:#f0cb46;stroke:#000;stroke-width:2px"/><path d="M281.17,86.23l-6.76-.08-.3,6.88,6.91-.15.14-6.65Z" style="fill:#094163;stroke:#000"/><path d="M282.5,101.77l1,6.07c.59,3.45-7,5.11-7.54,2l-1.1-6.34c-.53-3.05,7.06-5,7.61-1.73Z" style="fill:#f0cb46;stroke:#000;stroke-width:2px"/><path d="M274.62,103.4,268,104.75l1.17,6.78,6.72-1.61-1.27-6.53Z" style="fill:#094163;stroke:#000"/><path d="M303.44,120.47l4.14,4.56c2.35,2.59-3.14,8.08-5.28,5.75L298,126c-2.09-2.28,3.25-8,5.48-5.56Z" style="fill:#f0cb46;stroke:#000;stroke-width:2px"/><path d="M297.69,126.09l-4.85,4.71,4.64,5.09,4.8-5-4.59-4.81Z" style="fill:#094163;stroke:#000"/><path d="M332.38,90.9c-15.82-3-27.62-3.66-43.19-4.5l-.13,6c10.29.63,24.3,2.49,33.77,3.69-11.26,2.35-27.65,4.58-40.41,5.87l1.17,5.9c13.15-.93,32.72-4.89,45.21-7.8a274.76,274.76,0,0,1-25.19,20.55l4,4.48a229.4,229.4,0,0,0,24.61-20.45l10-18A56.76,56.76,0,0,0,315.69,65l-3.2,5.31C323.06,74,328.93,80.1,332.38,90.9Z" style="fill:#f0cb46;stroke:#000;stroke-miterlimit:10;stroke-width:2px"/><path d="M330.19,74.46,329,81.59m-6.72-13-.81,6.11M295.55,87.5l-2.65,4.69m12.22-3.67-2.85,4.69m12.83-3.67L312.46,94m-.2,4.89-1.63,4.48m-8.56-3.06-1.63,4.48m-8.56-3.26-1.63,4.89m21,9.37,1.43,4.69m7.13-11.41.61,5.09" style="fill:none;stroke:#000;stroke-linecap:round;stroke-width:2px"/><path d="M53.15,87a29.21,29.21,0,0,1,23.49,6.44C68.9,107.7,64.22,119.21,52.79,131,49.53,114.49,52.28,102.77,53.15,87Z" style="fill:#f0cb46;stroke:#000"/><path d="M61.64,87l-3.18,9.91c1.55,4.2,4.71,4.43,8.32,2.71L70.67,90" style="fill:none;stroke:#000"/><path d="M52.68,98a10,10,0,0,0,5.88-.88" style="fill:none;stroke:#000"/><path d="M66.78,99.65c.24,1.87,1.86,3.6,3.61,4.61" style="fill:none;stroke:#000"/><path d="M63.88,108.61c-.53,1.62-2.61,2.4-4.64,1.73s-3.24-2.53-2.71-4.15h0c.53-1.62,2.61-2.4,4.64-1.73s3.24,2.53,2.71,4.15Z" style="fill:none;stroke:#000;stroke-miterlimit:5;stroke-width:2px"/><path d="M59.77,110.4l-2.71,8.9L55.82,119l.78-2.55,1.19.35" style="fill:none;stroke:#000;stroke-width:2px"/><path d="M146.16,273.6l2.67,8.72c.44,1.43-1.43,2.77-2,.87L144,273.73Z" style="fill:#a05a2c;stroke:#000"/><path d="M143.78,273.6l2.67,8.72c.44,1.43-1.43,2.77-2,.87l-2.82-9.47Z" style="fill:#a05a2c;stroke:#000"/><path d="M148.34,273.6l2.67,8.72c.44,1.43-1.43,2.77-2,.87l-2.82-9.47Z" style="fill:#a05a2c;stroke:#000"/><path d="M168.87,273.6l-2.67,8.72c-.44,1.43,1.43,2.77,2,.87l2.82-9.47Z" style="fill:#a05a2c;stroke:#000"/><path d="M171.25,273.6l-2.67,8.72c-.44,1.43,1.43,2.77,2,.87l2.82-9.47Z" style="fill:#a05a2c;stroke:#000"/><path d="M166.69,273.6,164,282.33c-.44,1.43,1.43,2.77,2,.87l2.82-9.47Z" style="fill:#a05a2c;stroke:#000"/><path d="M232.74,231.79c-2.65,9.61.17,25.29,8.44,35.38,0,0,4.28,6.49,4.19,6.75l-6.56-5.06a41.84,41.84,0,0,0-33.56-20.19c.79,13.4,15.07,27.45,33.31,28.56l5.31,2.38c-1.37,7-2,15.23-4.31,21.06-.27.67-.54,1.26-.81,1.88l-2.5-3.5c-5.36-11.12-15.88-17.32-27.44-18.31,3.16,9.37,10.28,17.59,21.81,22.25l5.69,4.44c-.36.64-.75,1.27-1.12,1.88-11.24-4.09-24-6.88-32.37-2.81,7.49,6,18.06,8.46,29.88,6.5-2.23,3.07-4.82,6.24-8.12,10.63l3.5,2.63c5.39-7.22,11.5-14.18,15-22.25l8.94-2.75c12.57-3.51,22.21-12.24,26.19-21.37-9.8,1.31-22.85,5.76-29.62,16.19l-3.5,1.75c1.7-7.35,1.83-15.41,4.44-22.25l4.88.75c12.24-1.4,25.27-5.21,33-16.75-11.43-1.11-21.66,2.27-31.94,6.5a69.29,69.29,0,0,1,9.94-9.06c11.77-3.45,23.75-13,25.19-24.81-11,2-22,10.79-28.31,21.5,0,0-10.27,8.74-13.94,14.25l-1.87-3.62C245.75,251.45,240.57,237.08,232.74,231.79Z" style="fill:#23a65b;stroke:#000;stroke-linejoin:round;stroke-width:0.75px"/><path d="M233.43,233.75c4.76,7.92,9.19,20.53,9.74,30.9C238.2,255.68,233.93,242.18,233.43,233.75Z" style="fill:#f7ffee"/><path d="M289.84,233c-5.54,7.74-15.77,17.17-25.59,22.1C270.71,246.73,281.88,237.07,289.84,233Z" style="fill:#f7ffee"/><path d="M286.44,260.17c-8.41,5.54-22,11-33.38,12.25C262.61,266.6,277.19,261.23,286.44,260.17Z" style="fill:#f7ffee"/><path d="M277.3,280.61c-7.16,7.4-19.61,16-30.88,19.93C254.66,292.58,268.15,283.87,277.3,280.61Z" style="fill:#f7ffee"/><path d="M205.83,249.36c10.06,4.64,23,14.14,30.51,24.07C225.36,267.9,212,257.39,205.83,249.36Z" style="fill:#f7ffee"/><path d="M209.54,281.35c8.31,4.05,18.89,12.21,25,20.61C225.48,297.14,214.56,288.14,209.54,281.35Z" style="fill:#f7ffee"/><path d="M204.07,306.61c7.93-.8,19.39.69,27.69,4.63C222.94,311.78,210.84,309.76,204.07,306.61Z" style="fill:#f7ffee"/><path d="M261.85,293a3.94,3.94,0,0,1-7.88,0v0a3.94,3.94,0,0,1,7.88,0Z" style="fill:#f7e9dc;stroke:#000;stroke-linecap:round;stroke-linejoin:round"/><path d="M256,289.09a3.94,3.94,0,0,1-7.88,0v0a3.94,3.94,0,0,1,7.88,0Z" style="fill:#f7e9dc;stroke:#000;stroke-linecap:round;stroke-linejoin:round"/><path d="M261.72,285.91a3.94,3.94,0,0,1-7.88,0v0a3.94,3.94,0,0,1,7.88,0Z" style="fill:#f7e9dc;stroke:#000;stroke-linecap:round;stroke-linejoin:round"/><path d="M267.44,288.58a3.94,3.94,0,0,1-7.88,0v0a3.94,3.94,0,0,1,7.88,0Z" style="fill:#f7e9dc;stroke:#000;stroke-linecap:round;stroke-linejoin:round"/><path d="M269.22,294.55a3.94,3.94,0,0,1-7.88,0v0a3.94,3.94,0,0,1,7.88,0Z" style="fill:#f7e9dc;stroke:#000;stroke-linecap:round;stroke-linejoin:round"/><path d="M265.28,299.64a3.94,3.94,0,0,1-7.88,0v0a3.94,3.94,0,0,1,7.88,0Z" style="fill:#f7e9dc;stroke:#000;stroke-linecap:round;stroke-linejoin:round"/><path d="M258.54,299.51a3.94,3.94,0,0,1-7.88,0v0a3.94,3.94,0,0,1,7.88,0Z" style="fill:#f7e9dc;stroke:#000;stroke-linecap:round;stroke-linejoin:round"/><path d="M255.23,295.7a3.94,3.94,0,0,1-7.88,0v0a3.94,3.94,0,0,1,7.88,0Z" style="fill:#f7e9dc;stroke:#000;stroke-linecap:round;stroke-linejoin:round"/><path d="M234.64,293.66a3.94,3.94,0,0,1-7.88,0v0a3.94,3.94,0,0,1,7.88,0Z" style="fill:#f7e9dc;stroke:#000;stroke-linecap:round;stroke-linejoin:round"/><path d="M228.79,289.72a3.94,3.94,0,0,1-7.88,0v0a3.94,3.94,0,0,1,7.88,0Z" style="fill:#f7e9dc;stroke:#000;stroke-linecap:round;stroke-linejoin:round"/><path d="M234.51,286.55a3.94,3.94,0,0,1-7.88,0v0a3.94,3.94,0,0,1,7.88,0Z" style="fill:#f7e9dc;stroke:#000;stroke-linecap:round;stroke-linejoin:round"/><path d="M240.23,289.22a3.94,3.94,0,0,1-7.88,0v0a3.94,3.94,0,0,1,7.88,0Z" style="fill:#f7e9dc;stroke:#000;stroke-linecap:round;stroke-linejoin:round"/><path d="M242,295.19a3.94,3.94,0,0,1-7.88,0v0a3.94,3.94,0,0,1,7.88,0Z" style="fill:#f7e9dc;stroke:#000;stroke-linecap:round;stroke-linejoin:round"/><path d="M238.07,300.27a3.94,3.94,0,0,1-7.88,0v0a3.94,3.94,0,0,1,7.88,0Z" style="fill:#f7e9dc;stroke:#000;stroke-linecap:round;stroke-linejoin:round"/><path d="M231.34,300.15a3.94,3.94,0,0,1-7.88,0v0a3.94,3.94,0,0,1,7.88,0Z" style="fill:#f7e9dc;stroke:#000;stroke-linecap:round;stroke-linejoin:round"/><path d="M228,296.33a3.94,3.94,0,0,1-7.88,0v0a3.94,3.94,0,0,1,7.88,0Z" style="fill:#f7e9dc;stroke:#000;stroke-linecap:round;stroke-linejoin:round"/><path d="M261.61,255a3.94,3.94,0,0,1-7.88,0v0a3.94,3.94,0,0,1,7.88,0Z" style="fill:#f7e9dc;stroke:#000;stroke-linecap:round;stroke-linejoin:round"/><path d="M255.76,251.07a3.94,3.94,0,0,1-7.88,0v0a3.94,3.94,0,0,1,7.88,0Z" style="fill:#f7e9dc;stroke:#000;stroke-linecap:round;stroke-linejoin:round"/><path d="M261.48,247.89a3.94,3.94,0,0,1-7.88,0v0a3.94,3.94,0,0,1,7.88,0Z" style="fill:#f7e9dc;stroke:#000;stroke-linecap:round;stroke-linejoin:round"/><path d="M267.2,250.56a3.94,3.94,0,0,1-7.88,0v0a3.94,3.94,0,0,1,7.88,0Z" style="fill:#f7e9dc;stroke:#000;stroke-linecap:round;stroke-linejoin:round"/><path d="M269,256.54a3.94,3.94,0,0,1-7.88,0v0a3.94,3.94,0,0,1,7.88,0Z" style="fill:#f7e9dc;stroke:#000;stroke-linecap:round;stroke-linejoin:round"/><path d="M265,261.62a3.94,3.94,0,0,1-7.88,0v0a3.94,3.94,0,0,1,7.88,0Z" style="fill:#f7e9dc;stroke:#000;stroke-linecap:round;stroke-linejoin:round"/><path d="M258.3,261.5a3.94,3.94,0,0,1-7.88,0v0a3.94,3.94,0,0,1,7.88,0Z" style="fill:#f7e9dc;stroke:#000;stroke-linecap:round;stroke-linejoin:round"/><path d="M255,257.68a3.94,3.94,0,0,1-7.88,0v0a3.94,3.94,0,0,1,7.88,0Z" style="fill:#f7e9dc;stroke:#000;stroke-linecap:round;stroke-linejoin:round"/><path d="M250.46,273.53a3.94,3.94,0,0,1-7.88,0v0a3.94,3.94,0,0,1,7.88,0Z" style="fill:#f7e9dc;stroke:#000;stroke-linecap:round;stroke-linejoin:round"/><path d="M244.61,269.59a3.94,3.94,0,0,1-7.88,0v0a3.94,3.94,0,0,1,7.88,0Z" style="fill:#f7e9dc;stroke:#000;stroke-linecap:round;stroke-linejoin:round"/><path d="M250.33,266.41a3.94,3.94,0,0,1-7.88,0v0a3.94,3.94,0,0,1,7.88,0Z" style="fill:#f7e9dc;stroke:#000;stroke-linecap:round;stroke-linejoin:round"/><path d="M256.05,269.08a3.94,3.94,0,0,1-7.88,0v0a3.94,3.94,0,0,1,7.88,0Z" style="fill:#f7e9dc;stroke:#000;stroke-linecap:round;stroke-linejoin:round"/><path d="M257.83,275.05a3.94,3.94,0,0,1-7.88,0v0a3.94,3.94,0,0,1,7.88,0Z" style="fill:#f7e9dc;stroke:#000;stroke-linecap:round;stroke-linejoin:round"/><path d="M253.89,280.14a3.94,3.94,0,0,1-7.88,0v0a3.94,3.94,0,0,1,7.88,0Z" style="fill:#f7e9dc;stroke:#000;stroke-linecap:round;stroke-linejoin:round"/><path d="M247.16,280a3.94,3.94,0,0,1-7.88,0v0a3.94,3.94,0,0,1,7.88,0Z" style="fill:#f7e9dc;stroke:#000;stroke-linecap:round;stroke-linejoin:round"/><path d="M243.85,276.2a3.94,3.94,0,0,1-7.88,0v0a3.94,3.94,0,0,1,7.88,0Z" style="fill:#f7e9dc;stroke:#000;stroke-linecap:round;stroke-linejoin:round"/><path d="M224.75,264.72a3.94,3.94,0,0,1-7.88,0v0a3.94,3.94,0,0,1,7.88,0Z" style="fill:#f7e9dc;stroke:#000;stroke-linecap:round;stroke-linejoin:round"/><path d="M218.91,260.78a3.94,3.94,0,0,1-7.88,0v0a3.94,3.94,0,0,1,7.88,0Z" style="fill:#f7e9dc;stroke:#000;stroke-linecap:round;stroke-linejoin:round"/><path d="M224.63,257.6a3.94,3.94,0,0,1-7.88,0v0a3.94,3.94,0,0,1,7.88,0Z" style="fill:#f7e9dc;stroke:#000;stroke-linecap:round;stroke-linejoin:round"/><path d="M230.35,260.27a3.94,3.94,0,0,1-7.88,0v0a3.94,3.94,0,0,1,7.88,0Z" style="fill:#f7e9dc;stroke:#000;stroke-linecap:round;stroke-linejoin:round"/><path d="M232.13,266.24a3.94,3.94,0,0,1-7.88,0v0a3.94,3.94,0,0,1,7.88,0Z" style="fill:#f7e9dc;stroke:#000;stroke-linecap:round;stroke-linejoin:round"/><path d="M228.19,271.33a3.94,3.94,0,0,1-7.88,0v0a3.94,3.94,0,0,1,7.88,0Z" style="fill:#f7e9dc;stroke:#000;stroke-linecap:round;stroke-linejoin:round"/><path d="M221.45,271.2a3.94,3.94,0,0,1-7.88,0v0a3.94,3.94,0,0,1,7.88,0Z" style="fill:#f7e9dc;stroke:#000;stroke-linecap:round;stroke-linejoin:round"/><path d="M218.14,267.39a3.94,3.94,0,0,1-7.88,0v0a3.94,3.94,0,0,1,7.88,0Z" style="fill:#f7e9dc;stroke:#000;stroke-linecap:round;stroke-linejoin:round"/><path d="M349.5,87A29.21,29.21,0,0,0,326,93.43c7.73,14.27,12.41,25.78,23.85,37.57C353.12,114.49,350.37,102.77,349.5,87Z" style="fill:#f0cb46;stroke:#000"/><path d="M341,87l3.18,9.91c-1.55,4.2-4.71,4.43-8.32,2.71L332,90" style="fill:none;stroke:#000"/><path d="M350,98a10,10,0,0,1-5.88-.88" style="fill:none;stroke:#000"/><path d="M335.86,99.65c-.24,1.87-1.86,3.6-3.61,4.61" style="fill:none;stroke:#000"/><path d="M338.77,108.61c.53,1.62,2.61,2.4,4.64,1.73s3.24-2.53,2.71-4.15h0c-.53-1.62-2.61-2.4-4.64-1.73s-3.24,2.53-2.71,4.15Z" style="fill:none;stroke:#000;stroke-miterlimit:5;stroke-width:2px"/><path d="M342.88,110.4l2.71,8.9,1.24-.34-.78-2.55-1.19.35" style="fill:none;stroke:#000;stroke-width:2px"/><path d="M253.73,356.37l7.07,23.9c-18.3,5.59-39.61,11.05-60.85,11.07s-50-5.33-65.18-14L144.14,356c18.3,5.59,34.8,10.66,56,10.64s35.24-4.64,53.55-10.23Z" style="fill:#fff;stroke:#000;stroke-width:2px"/><path d="M72,370.55l8.29-23.9L54.17,334V349.9L39.65,357.4,72,370.55Z" style="fill:#fff;stroke:#000;stroke-width:2px"/><path d="M153.41,365.09c2.23-3.12-6.65-6.62-8.82-8.79" style="fill:none;stroke:#000;stroke-linecap:round;stroke-width:2px"/><path d="M69,348.56c.09-2.3,7.86-2,11.26-1.91" style="fill:none;stroke:#000;stroke-width:2px"/><path d="M153.43,365.1c.28,8-6,19.37-11.21,23.68-7.47-.14-11.45-4.41-14.88-5.19-14.83-3.4-33-.84-47.92-2.74-8.69-1.11-20.21-9.44-21.46-14.77L69,348.56c-.08,2.44,8.5,5.43,13.25,5.82,15,1.23,34.63-.36,49.35,3.46C138.72,359.69,151.32,368,153.43,365.1Z" style="fill:#fff;stroke:#000;stroke-linejoin:round;stroke-width:2px"/><path d="M326.24,371.07l-8.29-23.9L344,334.54v15.89l14.52,7.49-32.3,13.15Z" style="fill:#fff;stroke:#000;stroke-width:2px"/><path d="M244.79,365.61c-2.23-3.12,6.65-6.62,8.82-8.79" style="fill:none;stroke:#000;stroke-linecap:round;stroke-width:2px"/><path d="M329.21,349.08c-.09-2.3-7.86-2-11.26-1.91" style="fill:none;stroke:#000;stroke-width:2px"/><path d="M244.77,365.62c-.28,8,6,19.37,11.21,23.68,7.47-.14,11.45-4.41,14.88-5.19,14.83-3.4,33-.84,47.92-2.74,8.69-1.11,20.21-9.44,21.46-14.77l-11.07-17.51c.08,2.44-8.5,5.43-13.25,5.82-15,1.23-34.63-.36-49.35,3.46C259.48,360.21,246.87,368.56,244.77,365.62Z" style="fill:#fff;stroke:#000;stroke-linejoin:round;stroke-width:2px"/><path d="M89.29,361.72v4.67h-.36a6,6,0,0,0-2-2.91,4.62,4.62,0,0,0-2.86-1,3.68,3.68,0,0,0-2.47.84,4.49,4.49,0,0,0-1.4,2.32,11.53,11.53,0,0,0-.41,3.07,11.21,11.21,0,0,0,.45,3.34,3.8,3.8,0,0,0,1.45,2.11,4.18,4.18,0,0,0,2.38.67,5.07,5.07,0,0,0,1-.1,7.38,7.38,0,0,0,1-.3v-2.75a2.89,2.89,0,0,0-.11-1,1,1,0,0,0-.45-.42,1.64,1.64,0,0,0-.81-.19h-.34v-.36h6.44v.36a2.77,2.77,0,0,0-1,.21,1,1,0,0,0-.44.5,2.76,2.76,0,0,0-.09.91v2.75a12.81,12.81,0,0,1-2.65.85,13.53,13.53,0,0,1-2.84.29,8.38,8.38,0,0,1-3.13-.51,8.06,8.06,0,0,1-2.2-1.35A6.46,6.46,0,0,1,77,371.84a6.57,6.57,0,0,1-.68-3,6.8,6.8,0,0,1,2.1-5,7.24,7.24,0,0,1,5.28-2.06,9.21,9.21,0,0,1,1.78.16,8.78,8.78,0,0,1,1.39.45,5.91,5.91,0,0,0,1.14.36.78.78,0,0,0,.51-.2,1.83,1.83,0,0,0,.43-.76h.36Z"/><path d="M99,361.84a6.58,6.58,0,0,1,7.12,6.76,7.06,7.06,0,0,1-1.47,4.43,6.56,6.56,0,0,1-5.52,2.54,6.7,6.7,0,0,1-5.53-2.42,7,7,0,0,1-1.54-4.54,6.6,6.6,0,0,1,2-4.91A6.4,6.4,0,0,1,99,361.84Zm.12.63a3,3,0,0,0-2.76,1.86,9.92,9.92,0,0,0-.77,4.38,8.49,8.49,0,0,0,1.19,5,2.72,2.72,0,0,0,2.32,1.13,2.79,2.79,0,0,0,1.68-.49,4,4,0,0,0,1.34-2,11.14,11.14,0,0,0,.48-3.58,11.85,11.85,0,0,0-.49-3.93,3.81,3.81,0,0,0-1.25-1.85A2.91,2.91,0,0,0,99.14,362.47Z"/><path d="M106.23,375.56l0-.36.44.06a1.78,1.78,0,0,0,.89-.06,1.13,1.13,0,0,0,.52-.44,4.67,4.67,0,0,0,.24-1.21l1.09-8.64a4.35,4.35,0,0,0,.05-1.27,1,1,0,0,0-.38-.49,1.69,1.69,0,0,0-.85-.3l-.44-.06,0-.36,5.88.74a9.49,9.49,0,0,1,3.71,1.12,5.62,5.62,0,0,1,2.35,2.71,7.61,7.61,0,0,1-.31,6.21,6,6,0,0,1-1.4,1.78,5.79,5.79,0,0,1-1.79,1,8.84,8.84,0,0,1-2.35.42,10.72,10.72,0,0,1-1.87-.12Zm6.57-11.76L111.5,374a3.64,3.64,0,0,0,0,1,.56.56,0,0,0,.23.31,1.6,1.6,0,0,0,.74.24,3,3,0,0,0,2.61-.79,7.57,7.57,0,0,0,1.75-4.48,8.79,8.79,0,0,0-.28-4.14,3.41,3.41,0,0,0-1.41-1.81A6.33,6.33,0,0,0,112.8,363.8Z"/><path d="M124.9,370.06l-.47,0-.65-3.81a4.74,4.74,0,0,1-.07-1.29,1.45,1.45,0,0,1,.51-1,1.38,1.38,0,0,1,1.06-.33,1.3,1.3,0,0,1,1,.55,1.48,1.48,0,0,1,.28,1,6,6,0,0,1-.35,1.3Z"/><path d="M140.38,368.13l-1.7,4.08-.37-.16a4.48,4.48,0,0,0-.19-3,3.47,3.47,0,0,0-1.77-1.9,2.25,2.25,0,0,0-1.66-.15,1.61,1.61,0,0,0-1,.88,1.49,1.49,0,0,0-.13.8,3.32,3.32,0,0,0,.46,1.2,20.44,20.44,0,0,0,1.47,1.91,9.42,9.42,0,0,1,2,3.25,3.65,3.65,0,0,1-.21,2.45,3.77,3.77,0,0,1-2.35,2.09,4.65,4.65,0,0,1-3.48-.25,5.3,5.3,0,0,1-1-.6,8.93,8.93,0,0,1-1.08-1,2.11,2.11,0,0,0-.63-.49,1,1,0,0,0-.57,0,1.37,1.37,0,0,0-.66.36l-.33-.15,2-4.57.33.15a5.78,5.78,0,0,0,.2,3.62,3.9,3.9,0,0,0,2,2.08,2.46,2.46,0,0,0,1.83.16,1.82,1.82,0,0,0,1.16-1,1.79,1.79,0,0,0,.14-.93,2.77,2.77,0,0,0-.35-1.06,11.1,11.1,0,0,0-1.22-1.68,15.53,15.53,0,0,1-1.76-2.44,4.71,4.71,0,0,1-.55-1.77,3.5,3.5,0,0,1,.31-1.72,3.6,3.6,0,0,1,2.16-2,4.07,4.07,0,0,1,3.13.17,5,5,0,0,1,1.08.65,6,6,0,0,1,.84.85,2.7,2.7,0,0,0,.72.66.52.52,0,0,0,.43,0,1.8,1.8,0,0,0,.56-.58Z"/><path d="M192,371.84l-.05.36a1.25,1.25,0,0,0-.65.11,1.51,1.51,0,0,0-.52.46q-.08.11-.83,1.4l-5.74,10.18-.38-.06-2-8.93-4.85,7.9-.36-.05-2.69-11.34a11.58,11.58,0,0,0-.62-2.09,1.21,1.21,0,0,0-.82-.53l.05-.36,5.68.86-.05.36a1.62,1.62,0,0,0-.95.07.58.58,0,0,0-.29.43,5.78,5.78,0,0,0,.24,1.63l1.61,6.74,2.81-4.65-.33-1.47a10.22,10.22,0,0,0-.46-1.62,1.49,1.49,0,0,0-.48-.64,2,2,0,0,0-.89-.3l.05-.36,6.34,1-.05.36a3.55,3.55,0,0,0-1,0,.62.62,0,0,0-.35.18.59.59,0,0,0-.17.34,6.73,6.73,0,0,0,.23,1.43l1.45,6.56,3-5.29a11.69,11.69,0,0,0,.6-1.12,2.54,2.54,0,0,0,.17-.58.76.76,0,0,0-.18-.66,1.74,1.74,0,0,0-1-.41l.05-.36,3.4.51Z"/><path d="M200.52,384.78v.36H193.6v-.36H194a1.83,1.83,0,0,0,.93-.21.89.89,0,0,0,.39-.47,4,4,0,0,0,.11-1.23v-8.71a4.35,4.35,0,0,0-.11-1.27,1,1,0,0,0-.44-.44,1.69,1.69,0,0,0-.88-.2h-.44v-.36h6.92v.36h-.44a1.83,1.83,0,0,0-.93.21.94.94,0,0,0-.4.47,4,4,0,0,0-.11,1.23v8.71a4.36,4.36,0,0,0,.11,1.27,1.07,1.07,0,0,0,.44.45,1.82,1.82,0,0,0,.89.19h.44Z"/><path d="M216.4,379.77l-.12,4.67-11.72,1,0-.36.44,0a1.83,1.83,0,0,0,.91-.28.89.89,0,0,0,.35-.5,4,4,0,0,0,0-1.24l-.71-8.68a4.36,4.36,0,0,0-.21-1.26,1,1,0,0,0-.47-.4,1.69,1.69,0,0,0-.89-.12l-.44,0,0-.36,7-.57,0,.36-.57,0a1.83,1.83,0,0,0-.91.28.93.93,0,0,0-.36.5,4,4,0,0,0,0,1.24l.68,8.41a4.33,4.33,0,0,0,.22,1.29.78.78,0,0,0,.49.37,4.65,4.65,0,0,0,1.18,0l1.1-.09a3.74,3.74,0,0,0,1.72-.51,3.24,3.24,0,0,0,1.11-1.27,9.35,9.35,0,0,0,.78-2.43l.4,0Z"/><path d="M230.33,377.5l.32,4.66-11.58,2.06-.06-.36.43-.08a1.83,1.83,0,0,0,.88-.36.89.89,0,0,0,.3-.53,4,4,0,0,0-.11-1.23L219,373.09a4.35,4.35,0,0,0-.33-1.23,1,1,0,0,0-.51-.36,1.69,1.69,0,0,0-.9,0l-.43.08-.06-.36,7-1.23.06.36-.57.1a1.83,1.83,0,0,0-.88.36.93.93,0,0,0-.31.53,4,4,0,0,0,.11,1.23l1.48,8.31a4.33,4.33,0,0,0,.34,1.26.78.78,0,0,0,.52.32,4.65,4.65,0,0,0,1.18-.12l1.09-.19a3.74,3.74,0,0,0,1.67-.67,3.24,3.24,0,0,0,1-1.37,9.35,9.35,0,0,0,.55-2.5l.39-.07Z"/><path d="M265.55,365.51l1.13,5.32.37-.08a3.37,3.37,0,0,0,1.35-.55,2.22,2.22,0,0,0,.73-1.06,4,4,0,0,0,.15-1.76l.33-.07,1.38,6.51-.33.07a3.35,3.35,0,0,0-1.51-2.22,3.06,3.06,0,0,0-2-.21l-.37.08.84,4a4.35,4.35,0,0,0,.37,1.22,1.07,1.07,0,0,0,.52.35,1.82,1.82,0,0,0,.91,0l.43-.09.07.35-6.77,1.43-.07-.35.43-.09a1.83,1.83,0,0,0,.87-.39.89.89,0,0,0,.29-.54,4,4,0,0,0-.15-1.23l-1.8-8.52a4.35,4.35,0,0,0-.37-1.22,1,1,0,0,0-.52-.34,1.69,1.69,0,0,0-.9,0l-.43.09-.07-.35,10.93-2.31.79,3.72-.39.08a3.51,3.51,0,0,0-1.1-1.79,3,3,0,0,0-1.77-.55,10.53,10.53,0,0,0-2.15.31Z"/><path d="M282.21,375.63l0,.36-6.89.71,0-.36.44,0a1.83,1.83,0,0,0,.9-.3.89.89,0,0,0,.34-.51,4,4,0,0,0,0-1.24l-.89-8.67a4.35,4.35,0,0,0-.24-1.25,1,1,0,0,0-.48-.39,1.69,1.69,0,0,0-.89-.1l-.44,0,0-.36,6.89-.71,0,.36-.44,0a1.83,1.83,0,0,0-.9.3.93.93,0,0,0-.35.51,4,4,0,0,0,0,1.24l.89,8.67a4.35,4.35,0,0,0,.24,1.25,1.07,1.07,0,0,0,.48.4,1.82,1.82,0,0,0,.9.09Z"/><path d="M287.76,369.81l.18,3.71a4.3,4.3,0,0,0,.19,1.35,1,1,0,0,0,.49.42,3.13,3.13,0,0,0,1.25.11l0,.36-6.77.33,0-.36a3.08,3.08,0,0,0,1.23-.23,1,1,0,0,0,.44-.47,3.91,3.91,0,0,0,.07-1.35l-.42-8.58a3.91,3.91,0,0,0-.2-1.34.93.93,0,0,0-.48-.43,3.12,3.12,0,0,0-1.25-.11l0-.36,6.15-.3a13.43,13.43,0,0,1,3.53.16,3.53,3.53,0,0,1,1.87,1.14,3.27,3.27,0,0,1,.8,2.05,3.13,3.13,0,0,1-.94,2.47,4.36,4.36,0,0,1-1.84,1l3.4,4.32a6.78,6.78,0,0,0,.94,1,1.65,1.65,0,0,0,.94.29l0,.36-4.16.2-4.56-5.82Zm-.32-6.49.28,5.79.56,0a6.34,6.34,0,0,0,2-.34,2,2,0,0,0,1-.95,3.28,3.28,0,0,0,.31-1.72,2.58,2.58,0,0,0-3.13-2.81Z"/><path d="M305.88,361.67l.38,4.4-.4,0a4.48,4.48,0,0,0-1.56-2.58,3.47,3.47,0,0,0-2.45-.87,2.25,2.25,0,0,0-1.55.63,1.61,1.61,0,0,0-.5,1.25,1.49,1.49,0,0,0,.25.77,3.32,3.32,0,0,0,1,.85,20.44,20.44,0,0,0,2.18,1,9.42,9.42,0,0,1,3.26,2,3.65,3.65,0,0,1,.94,2.27,3.77,3.77,0,0,1-1.12,2.94,4.65,4.65,0,0,1-3.2,1.39,5.3,5.3,0,0,1-1.19-.05,8.93,8.93,0,0,1-1.42-.39,2.11,2.11,0,0,0-.78-.15,1,1,0,0,0-.52.23,1.37,1.37,0,0,0-.42.62l-.36,0-.31-5,.36,0a5.78,5.78,0,0,0,1.84,3.12A3.9,3.9,0,0,0,303,375a2.46,2.46,0,0,0,1.7-.7,1.82,1.82,0,0,0,.57-1.42,1.79,1.79,0,0,0-.31-.89,2.77,2.77,0,0,0-.8-.78,11.11,11.11,0,0,0-1.86-.92A15.53,15.53,0,0,1,299.6,369a4.71,4.71,0,0,1-1.3-1.32,3.5,3.5,0,0,1-.52-1.67,3.6,3.6,0,0,1,1-2.76,4.07,4.07,0,0,1,2.86-1.29,5,5,0,0,1,1.26.08,6,6,0,0,1,1.14.37,2.7,2.7,0,0,0,.95.26.52.52,0,0,0,.39-.18,1.8,1.8,0,0,0,.23-.77Z"/><path d="M320.26,361.41l.15,3.58h-.35a5.59,5.59,0,0,0-.77-1.75,2.65,2.65,0,0,0-1.08-.82,3.35,3.35,0,0,0-1.31-.12l-1,0,.43,10.21a4.35,4.35,0,0,0,.16,1.26,1.07,1.07,0,0,0,.46.43,1.85,1.85,0,0,0,.91.15l.44,0,0,.36-6.93.29,0-.36.44,0a1.83,1.83,0,0,0,.92-.24.93.93,0,0,0,.38-.49,4,4,0,0,0,.06-1.23l-.43-10.21-1,0a2.78,2.78,0,0,0-1.92.65,3.75,3.75,0,0,0-1,2.3l-.37,0-.15-3.58Z"/><path d="M196.18,134.58v11.77H183.75v8.88h12.44v8.88L164,210.31l73.6.06-32-46.07v-9.07H218v-8.88H205.56V134.58h-9.38Zm26.48,68.47-43.38.14,21.56-32.83Z" style="fill:#fff;stroke:#000;stroke-linecap:round;stroke-miterlimit:5"/><path d="M245.75,80.51,224.53,87l15.16,16.19-21.6-5,5,21.6-16.19-15.16-6.45,21.22L194,104.56l-16.19,15.16,5-21.6-21.6,5L176.42,87,155.2,80.51l21.22-6.45L161.27,57.87l21.6,5-5-21.6L194,56.45l6.45-21.22,6.45,21.22L223.11,41.3l-5,21.6,21.6-5L224.53,74.06Z" style="fill:#fff;stroke:#000"/></svg>