<svg xmlns="http://www.w3.org/2000/svg" xmlns:xlink="http://www.w3.org/1999/xlink" viewBox="0 0 600 600"><defs><linearGradient id="a" x1="1056.16" y1="651.43" x2="1234.19" y2="651.43" gradientTransform="translate(-3291.48 -931.4) scale(3.24 1.94)" gradientUnits="userSpaceOnUse"><stop offset="0" stop-color="#025"/><stop offset="0.5" stop-color="#04a"/><stop offset="1" stop-color="#025"/></linearGradient><linearGradient id="b" x1="1051.97" y1="603.82" x2="1252.01" y2="603.82" gradientTransform="translate(-3216.22 -1476.69) scale(3.17 3.04)" xlink:href="#a"/><linearGradient id="c" x1="1513.04" y1="886.58" x2="1513.04" y2="897.56" gradientTransform="translate(-2333.32 -1259.59) scale(1.8 1.8)" gradientUnits="userSpaceOnUse"><stop offset="0" stop-color="#f5f549"/><stop offset="1" stop-color="#97c924"/></linearGradient><linearGradient id="d" x1="1517.03" y1="886.58" x2="1517.03" y2="897.56" gradientTransform="translate(-2384.42 -1259.59) scale(1.8 1.8)" xlink:href="#c"/><linearGradient id="e" x1="1517.03" y1="886.58" x2="1517.03" y2="897.56" gradientTransform="translate(-2435.53 -1259.59) scale(1.8 1.8)" xlink:href="#c"/><linearGradient id="f" x1="1517.03" y1="886.58" x2="1517.03" y2="897.56" gradientTransform="translate(-2486.3 -1259.59) scale(1.8 1.8)" xlink:href="#c"/><linearGradient id="g" x1="1521.09" y1="886.58" x2="1521.09" y2="897.56" gradientTransform="translate(-2537.74 -1259.59) scale(1.8 1.8)" xlink:href="#c"/><linearGradient id="h" x1="1455.88" y1="918.16" x2="1687.38" y2="918.16" gradientTransform="translate(-2573 -1281.02) scale(1.83 1.83)" xlink:href="#a"/><linearGradient id="i" x1="784.82" y1="-938.04" x2="1814.13" y2="-938.04" gradientTransform="matrix(0.38, 0, 0, -0.38, -192.6, 33.81)" xlink:href="#a"/><linearGradient id="j" x1="1158.81" y1="227.32" x2="1161.21" y2="234.39" gradientTransform="matrix(2.62, 0, 0, -2.66, -2740.29, 868.53)" gradientUnits="userSpaceOnUse"><stop offset="0" stop-color="#510000"/><stop offset="0.3" stop-color="#8a0000"/><stop offset="1" stop-color="#a00"/></linearGradient><linearGradient id="k" x1="1303.32" y1="-606.29" x2="1316.46" y2="-571.52" gradientTransform="matrix(0.38, 0, 0, -0.38, -192.54, 40.49)" gradientUnits="userSpaceOnUse"><stop offset="0" stop-color="#ff2a2a"/><stop offset="1" stop-color="red"/></linearGradient></defs><title>Nicaragua</title><rect x="23.59" y="361.41" width="5" height="21" transform="translate(-93.82 18.9) rotate(-14.75)" style="fill:#c8a400"/><rect x="563.52" y="369.41" width="21" height="5" transform="translate(68.23 832.33) rotate(-75.25)" style="fill:#c8a400"/><path d="M260.1,563.74l-21.8,30.53,5.54.8,6.73-9.48h0l18,2.6,3.77,11,5.54.8-12.25-35.46-5.54-.8Zm2,5.6,4.75,13.86-13.24-1.92Z" style="fill:#c8a400"/><path d="M520,450.84,548,469l14.68-22.63-4-2.58-11.74,18.1-.3.46-.35-.23-23.64-15.33Z" style="fill:#c8a400"/><path d="M91.66,467,67.9,489.21l3.17,3.39,20-18.72-10.5,28.9,3.64,3.89,28.7-8.71L93.27,516.34l3.17,3.39,23.76-22.22-4.82-5.15-29.17,8.71,10.92-28.23Z" style="fill:#c8a400"/><path d="M77.39,446.63l-37.27,4.29,3.12,4.65,11.55-1.36v0l10.13,15.1-5.64,10.17,3.12,4.65,18.1-32.86-3.12-4.65Zm-2.81,5.25-7.1,12.82L60,453.59Z" style="fill:#c8a400"/><path d="M126.26,502.3l-20.05,26.63,25.92,19.52,2.85-3.78-21.61-16.27-.44-.33.25-.34,5.6-7.43.25-.34.44.33,19.43,14.63,2.83-3.76-19.43-14.63-.44-.33.25-.34,4.9-6.51.25-.33.44.33L148.49,525l2.86-3.8Z" style="fill:#c8a400"/><path d="M196.52,545.85l-12.6,30.86,4.63,1.89,12.6-30.86Z" style="fill:#c8a400"/><path d="M226.58,556.24a28.1,28.1,0,0,0-10.69-1.52,16.09,16.09,0,0,0-8.83,3,15,15,0,0,0-5.25,7.54,17.15,17.15,0,0,0-.52,9,14.9,14.9,0,0,0,4.44,7.91q3.5,3.37,10.27,5.63a22.48,22.48,0,0,0,11.8,1,14.36,14.36,0,0,0,8.44-5.21l-4.34-2.39c-4.35,5.18-9.56,3.92-15,2.17-8.33-2.87-12.77-8.72-10.34-16.58,3-8.54,11.18-8.72,18.47-6.45,5.09,1.68,9.44,3.89,10.08,8.91l4.78.72a13.27,13.27,0,0,0-3.65-8,22.57,22.57,0,0,0-9.68-5.78Z" style="fill:#c8a400"/><path d="M338.23,564a28.1,28.1,0,0,0-10.06,3.91,16.09,16.09,0,0,0-6.21,7,15,15,0,0,0-.89,9.14,17.15,17.15,0,0,0,3.95,8.1,14.9,14.9,0,0,0,7.74,4.73c3.13.82,7,.79,11.71-.12a22.48,22.48,0,0,0,10.8-4.87,14.36,14.36,0,0,0,4.82-8.68l-5,0c-1.26,6.65-6.42,8.1-12,9.23-8.67,1.58-15.4-1.36-17.13-9.39-1.57-8.91,5.48-13.07,13-14.67,5.26-1,10.14-1.23,13.15,2.84l4.52-1.71a13.27,13.27,0,0,0-7.12-5.23,22.57,22.57,0,0,0-11.27-.3Z" style="fill:#c8a400"/><path d="M360.49,560,370,592l31.1-9.23-1.35-4.54-25.93,7.69-.53.16-.12-.4-2.65-8.92-.12-.4.53-.16,23.31-6.92-1.34-4.52-23.31,6.92-.53.16-.12-.4-2.32-7.81-.12-.39.53-.16,24.94-7.4-1.35-4.56Z" style="fill:#c8a400"/><path d="M396.55,548.7l14,30.25,4.17-1.93-11.1-24-.58-1.25,1.39.6,31.77,14.69,5.46-2.53-14-30.25-4.18,1.94,11.09,24,.57,1.23-1.38-.6L402,546.18Z" style="fill:#c8a400"/><path d="M433.16,531.51l2.61,4,11.91-7.84.45-.3.23.34,15.49,23.53,4-2.66L452.4,525l-.23-.34.46-.3,12-7.87-2.61-4Z" style="fill:#c8a400"/><path d="M505.48,469.73l14.91,34.42,3.54-4.33-4.65-10.66v0l11.51-14.07,11.37,2.45,3.54-4.33L509,465.39l-3.54,4.33Zm5.84,1.16L525.65,474l-8.47,10.36Z" style="fill:#c8a400"/><path d="M158.87,526.17l-15.7,29.41,4.28,2.29h0l6-11.2.19-.36.48.25,11.6,6.19c.73.39,1.43.74,2.12,1.07.42,2.05,2.54,12.42,3.47,16.78l5.45,2.91-3.67-17.7c5.33,1.38,9.31.08,12.05-4.87l.1-.21.17-.28a7.7,7.7,0,0,0,.74-5.2,9.14,9.14,0,0,0-2.71-4.94,33.88,33.88,0,0,0-7.46-5l-1.19-.64-15.9-8.49Zm2.06,6.48.48.25L173,539.08c4.7,2.51,9.63,5.92,7.42,10s-8.63,1.44-12.37-.53l-11.67-6.23-.48-.25.2-.37,4.66-8.72.19-.36Z" style="fill:#c8a400"/><path d="M466.7,508.54l22.59,24.52,3.57-3.29h0l-8.61-9.34-.28-.3.4-.37,9.67-8.91c.61-.56,1.17-1.11,1.71-1.65,2.08.28,12.56,1.69,17,2.26l4.54-4.18-17.92-2.37c3.06-4.57,3.14-8.76-.63-13l-.17-.17-.21-.25a7.7,7.7,0,0,0-4.67-2.41,9.14,9.14,0,0,0-5.56.93,33.88,33.88,0,0,0-7.18,5.4l-1,.92L466.7,508.54Zm6.8.19.4-.37,9.64-8.89c3.92-3.61,8.76-7.14,11.93-3.7s-1.48,8.63-4.57,11.51l-9.73,9-.4.37-.29-.31-6.7-7.27-.28-.3Z" style="fill:#c8a400"/><path d="M186,22.58l-3.49,37.35,5.19-2.09,1-11.58h0l16.86-6.8,8.79,7.61L219.64,45,191.22,20.48,186,22.58Zm4.56,3.83L201.67,36l-12.41,5Z" style="fill:#c8a400"/><path d="M437.36,33.12,422.21,62.81l-4.45-2.27,15.15-29.69Z" style="fill:#c8a400"/><path d="M4.33,246.69l32.46,7.58,7.38-31.59-4.61-1.08-6.15,26.34-.13.54-.41-.1-9.06-2.12-.41-.1.13-.54,5.53-23.68-4.59-1.07-5.53,23.68-.13.54-.41-.1-7.93-1.85-.4-.09.13-.54,5.91-25.33-4.64-1.08Z" style="fill:#c8a400"/><path d="M16,203.1,47.51,214l1.6-4.6-12-4.17-.39-.13.18-.51,3.79-10.88c3.42-9.82,2.72-16.15-4.81-18.9a8.11,8.11,0,0,0-4.66-.24,8.94,8.94,0,0,0-4.08,2.2,15.73,15.73,0,0,0-3.2,4.54,53,53,0,0,0-2.52,6.26Zm6.08-3,.18-.51,3.77-10.85c1.75-5,4.35-10.43,8.77-8.89s2.76,8.31,1.4,12.3l-3.81,11-.18.51-.4-.14-9.34-3.25Z" style="fill:#c8a400"/><path d="M33.41,162.78l16.39,9.59a17.09,17.09,0,0,0,8,2.72,10.39,10.39,0,0,0,6.64-2.46,26.67,26.67,0,0,0,6.39-7.75l0-.08a26.67,26.67,0,0,0,3.62-9.36,10.39,10.39,0,0,0-1.11-7,17.09,17.09,0,0,0-6.28-5.62L50.7,133.22l-2.45,4.18,16,9.36c7.18,4.2,6.41,9.24,2.61,15.69l0,.08c-3.76,6.47-7.77,9.62-15,5.42l-16-9.36-2.45,4.18Z" style="fill:#c8a400"/><path d="M57.42,123.54,83.9,143.79,94,130.62c4.41-5.18,9.35-13.3,2-18.89-5.87-4.49-10.15-.34-10.15-.34s1.31-3.69-2.53-6.63A9,9,0,0,0,78.24,103,9.77,9.77,0,0,0,73,104.81a26.12,26.12,0,0,0-5.68,5.76Zm6.71-1,.33-.43,6.81-8.9c2.24-2.93,5.63-7.12,9.05-4.54s.26,6.94-2,9.92l-6.81,8.9-.33.43-.33-.26-6.38-4.88Zm10.79,8.25.33-.43,6.81-8.9c4.71-6.16,7.85-8,10.87-5.73s1.94,5.95-2.69,12l-6.81,8.9-.33.43-.33-.26L75.25,131Z" style="fill:#c8a400"/><path d="M116.78,62.51,137.1,88.93l4-3L120.75,59.46Z" style="fill:#c8a400"/><path d="M146.64,42.23a28.1,28.1,0,0,0-8,7.25,16.09,16.09,0,0,0-3.3,8.74,15,15,0,0,0,2.44,8.86,17.15,17.15,0,0,0,6.59,6.15,14.9,14.9,0,0,0,8.92,1.64c3.22-.36,6.85-1.78,10.9-4.3a22.48,22.48,0,0,0,8.33-8.42,14.36,14.36,0,0,0,1.39-9.82l-4.61,1.81c1.21,6.66-3.09,9.86-7.9,12.92-7.53,4.58-14.87,4.25-19.36-2.63-4.66-7.76.43-14.17,6.84-18.33,4.55-2.84,9-4.78,13.29-2.06l3.61-3.21a13.27,13.27,0,0,0-8.52-2.33,22.57,22.57,0,0,0-10.63,3.75Z" style="fill:#c8a400"/><path d="M259.09,2l2.08,33.27,15.63-1a39.21,39.21,0,0,0,7-1,19.23,19.23,0,0,0,5.08-2A14.5,14.5,0,0,0,292.67,28a15,15,0,0,0,2.68-5,18.16,18.16,0,0,0,.75-6.82,17.78,17.78,0,0,0-2.22-7.87A14.11,14.11,0,0,0,288.37,3,16.83,16.83,0,0,0,281.88,1h0A48.48,48.48,0,0,0,274,1L259.09,2Zm5.13,4.42.55,0,9.42-.59a30.5,30.5,0,0,1,7.92.23c5.54,1.68,8.68,6,9,10.42a11.5,11.5,0,0,1-4,9.92,11.6,11.6,0,0,1-4.12,2.13,54.29,54.29,0,0,1-7.08,1.1l-9.58.6-.55,0,0-.41-1.44-23Z" style="fill:#c8a400"/><path d="M305.55,0l-1.9,33.28L336,35.13l.27-4.73-27-1.54-.55,0,0-.42.53-9.29,0-.42.55,0,24.28,1.39.27-4.7L310.15,14l-.55,0,0-.42.46-8.13,0-.41.55,0,26,1.48.27-4.75Z" style="fill:#c8a400"/><path d="M392.58,13.89,380.53,45l4.29,1.66L394.37,22l.5-1.28.53,1.42,11.49,33.06,5.61,2.18,12.05-31.08-4.3-1.67-9.55,24.63-.49,1.26-.53-1.41-11.51-33Z" style="fill:#c8a400"/><path d="M462.5,47.85a28.1,28.1,0,0,0-9.93-4.24,16.09,16.09,0,0,0-9.32.65,15,15,0,0,0-7,5.92,17.15,17.15,0,0,0-2.84,8.55,14.9,14.9,0,0,0,2.23,8.79c1.67,2.77,4.48,5.48,8.46,8.11a22.48,22.48,0,0,0,11.13,4.06,14.36,14.36,0,0,0,9.51-2.84l-3.57-3.44c-5.55,3.88-10.25,1.31-15-1.79-7.3-4.93-10.06-11.74-5.69-18.69,5.11-7.47,13.06-5.52,19.51-1.43,4.48,2.95,8.11,6.21,7.42,11.22l4.43,1.94a13.27,13.27,0,0,0-1.44-8.71,22.57,22.57,0,0,0-7.85-8.09Z" style="fill:#c8a400"/><path d="M494.24,71.79,459.4,85.69l4.23,3.67L474.41,85l0,0L488.16,97l-2.78,11.29,4.23,3.67,8.86-36.45-4.23-3.67Zm-1.33,5.8-3.5,14.23-10.11-8.77Z" style="fill:#c8a400"/><path d="M558.41,148l-37.48,1.72,2.79,4.85,11.61-.56v0l9.07,15.76-6.32,9.76,2.79,4.85,20.31-31.54L558.41,148Zm-3.16,5-8,12.3-6.67-11.6Z" style="fill:#c8a400"/><path d="M579.8,192.13A31.49,31.49,0,0,0,574,181.89a15.85,15.85,0,0,0-17.45-4.71,14.7,14.7,0,0,0-7.21,5.45,16.58,16.58,0,0,0-2.8,9.44,32.48,32.48,0,0,0,2.06,11.77,34.76,34.76,0,0,0,4.36,8.38,35.28,35.28,0,0,0,2.64,3.28l-2.49.89,1.59,4.44,4.68-1.68,10.93-3.93-6.07-16.86-3.61,1.3,4.28,11.9.19.53-.39.14-4.74,1.7-.17.06-.19-.13c-3.63-3.18-5.79-7.46-7.34-11.69-2.81-8.61-3-16.95,6.22-20.34,9-3,14.75,4.28,17.61,11.69,1.86,5.31,2.78,10.72-1.19,14.59l2.27,3.76a12.61,12.61,0,0,0,3.54-4.57,14.8,14.8,0,0,0,.9-6.66,30.44,30.44,0,0,0-1.85-8.47h0Z" style="fill:#c8a400"/><path d="M589.37,218.16l-18.64,3.63a17.09,17.09,0,0,0-7.78,3.23,10.39,10.39,0,0,0-3.36,6.24,26.67,26.67,0,0,0,.32,10l0,.09a26.67,26.67,0,0,0,3.46,9.43,10.39,10.39,0,0,0,5.46,4.52,17.09,17.09,0,0,0,8.42.07l18.64-3.63L595,247l-18.19,3.54c-8.17,1.59-10.92-2.71-12.32-10.06l0-.09c-1.46-7.34-.52-12.36,7.65-13.95l18.19-3.54-.93-4.76Z" style="fill:#c8a400"/><path d="M599.6,274.89,565.1,260.14l.4,5.58,10.7,4.54v0l1.31,18.13-9.94,6L568,300l32-19.57-.4-5.58Zm-5,3.17L582,285.68l-1-13.35Z" style="fill:#c8a400"/><path d="M87.44,88.18l22.89,24.23,19.61-18.53-3.25-3.44L111,105.26l-.4.38-.29-.31L91,84.86Z" style="fill:#c8a400"/><path d="M0,297.76,33.26,300l.32-4.85h0l-12.67-.85-.41,0,0-.54.88-13.12c.05-.82.08-1.61.1-2.37,1.7-1.23,10.27-7.42,13.87-10.06L35.8,262,21.18,272.63c-.93-5.42-3.76-8.52-9.39-9h-.24l-.33,0a7.7,7.7,0,0,0-5,1.47,9.14,9.14,0,0,0-3.39,4.5,33.88,33.88,0,0,0-1.49,8.86l-.09,1.35-1.2,18Zm5.06-4.54,0-.54L6,279.6c.35-5.31,1.44-11.21,6.1-10.89s4.87,7.28,4.61,11.49l-.88,13.2,0,.54-.42,0-9.87-.66-.41,0Z" style="fill:#c8a400"/><path d="M519.42,95,493.7,116.16l3.09,3.75h0l9.8-8.08.32-.26.34.42,8.36,10.14c.52.63,1,1.23,1.56,1.8-.39,2.06-2.38,12.45-3.19,16.83l3.93,4.76,3.35-17.76c4.4,3.3,8.58,3.62,13,.09l.17-.16.26-.2a7.7,7.7,0,0,0,2.67-4.53,9.14,9.14,0,0,0-.62-5.6,33.88,33.88,0,0,0-5-7.46l-.86-1L519.42,95Zm-.57,6.78.34.42,8.34,10.12c3.39,4.11,6.65,9.14,3,12.11s-8.53-2-11.24-5.2L510.92,109l-.34-.42.33-.27,7.63-6.29.32-.26Z" style="fill:#c8a400"/><path d="M300,54.69,195.08,236.48l-51.4,89H456.33l-49-84.95Z" style="fill:#fff"/><path d="M300,54.69,292.15,68.3,300,251.55,307.86,68.3Zm0,196.86,27.62-149L316.5,83.28Zm0,0,41.78-124.48L333.65,113Zm0,0,52.79-105.41L346.37,135Zm0,0,61.91-89.62-5.37-9.3Zm0,0,69.9-75.79-4.75-8.23Zm0,0,77.19-63.14-4.39-7.6Zm0,0,84.16-51.07-4.22-7.31Zm0,0,91.08-39.1-4.22-7.3Zm0,0,98.23-26.71-4.4-7.62Zm0,0,105.92-13.39-4.77-8.25Zm0,0,114.56,1.59-5.41-9.37Zm0,0,124.79,19.31-6.46-11.18Zm0,0,137.6,41.5-8.18-14.18Zm0,0L454.9,323l-11.21-19.41Zm0,0,115,73.93h24.76Zm0,0,85.91,73.93H402.3Zm0,0,65,73.93h12Zm0,0,48.68,73.93h9.52Zm0,0,35.11,73.93h8Zm0,0,23.25,73.93h7.07Zm0,0,12.37,73.93h6.54Zm0,0,2,73.93h6.29Zm0,0-8.29,73.93H298Zm0,0L281.1,325.48h6.54Zm0,0-30.32,73.93h7.07Zm0,0-43.12,73.93h8Zm0,0L241.8,325.48h9.54Zm0,0-77,73.93h12Zm0,0L197.72,325.48H214.1Zm0,0L160.28,325.48H185Zm0,0-143.69,52L145.11,323Zm0,0L170.59,278.88l-8.2,14.18Zm0,0-118.32,8.13-6.46,11.17Zm0,0-109.14-7.78-5.41,9.37Zm0,0L198.87,229.91l-3.8,6.57-1,1.69Zm0,0-93.82-34.33-4.4,7.62Zm0,0-86.84-46.4-4.22,7.3Zm0,0-79.94-58.37-4.21,7.3Zm0,0-72.8-70.73-4.39,7.6Zm0,0-65.13-84-4.75,8.23Zm0,0-56.53-98.93-5.37,9.33Zm0,0L253.64,135l-6.42,11.12Zm0,0L266.36,113l-8.14,14.09Zm0,0L283.51,83.27l-11.12,19.29Z" style="fill:#17c0eb;stroke:#17c0eb;stroke-width:1.1399999856948853px;opacity:0.6204081773757935;isolation:isolate"/><path d="M300,186.2A147.37,147.37,0,0,0,203.47,222L154.6,306.68A148.76,148.76,0,0,0,152,334.15c0,.82,0,1.63,0,2.45h18.66q0-1.22,0-2.45a129.29,129.29,0,0,1,258.59,0q0,1.23,0,2.45h18.66c0-.81,0-1.63,0-2.45a148.78,148.78,0,0,0-2.54-27.45L396.52,222A147.37,147.37,0,0,0,300,186.2Z" style="fill:red"/><path d="M300,188.87a144.82,144.82,0,0,0-100.94,40.78L159,299.12a145.57,145.57,0,0,0-4.26,35c0,.82,0,1.63,0,2.45h16q0-1.22,0-2.45a129.29,129.29,0,0,1,258.59,0q0,1.23,0,2.45h16c0-.81,0-1.63,0-2.45a145.6,145.6,0,0,0-4.26-35l-40.1-69.46A144.8,144.8,0,0,0,300,188.87Z" style="fill:#f60"/><path d="M300,191.52a142.27,142.27,0,0,0-106.49,47.75l-29,50.28a142.5,142.5,0,0,0-7.1,44.59c0,.82,0,1.63,0,2.45h13.33q0-1.22,0-2.45a129.29,129.29,0,0,1,258.59,0q0,1.23,0,2.45H442.6c0-.81,0-1.63,0-2.45a142.51,142.51,0,0,0-7.11-44.6l-29-50.28A142.26,142.26,0,0,0,300,191.52Z" style="fill:#ff0"/><path d="M300,194.19a139.82,139.82,0,0,0-116.35,62.15l-9.37,16.25A139.39,139.39,0,0,0,160,334.15c0,.82,0,1.63,0,2.45h10.67q0-1.22,0-2.45a129.29,129.29,0,0,1,258.59,0q0,1.23,0,2.45h10.67c0-.81,0-1.63,0-2.45a139.39,139.39,0,0,0-14.19-61.47l-9.48-16.44A139.83,139.83,0,0,0,300,194.19Z" style="fill:lime"/><path d="M300,196.86A137.3,137.3,0,0,0,162.7,334.15c0,.82,0,1.63,0,2.45h8q0-1.22,0-2.45a129.29,129.29,0,0,1,258.59,0q0,1.23,0,2.45h8q0-1.22,0-2.45A137.29,137.29,0,0,0,300,196.86Z" style="fill:#0cf"/><path d="M300,199.52A134.63,134.63,0,0,0,165.37,334.15c0,.82,0,1.63,0,2.45h5.34q0-1.22,0-2.45a129.29,129.29,0,0,1,258.59,0q0,1.23,0,2.45h5.34c0-.81,0-1.63,0-2.45A134.63,134.63,0,0,0,300,199.52Z" style="fill:blue"/><path d="M300,202.19a132,132,0,0,0-132,132q0,1.23,0,2.45h2.67q0-1.22,0-2.45a129.29,129.29,0,0,1,258.59,0q0,1.23,0,2.45h2.66q0-1.22,0-2.45a132,132,0,0,0-132-132Z" style="fill:purple"/><path d="M143.68,325.48l-33.18,57.46h379l-33.18-57.46Z" style="fill:#fff"/><path d="M144.1,324.86l-.41.72H456.32l-.41-.72Zm-.73,1.26-.42.73H457.06l-.42-.73Zm-.67,1.15-.68,1.19H458l-.68-1.19H142.7Zm-1.06,1.83-.83,1.45H459.2l-.83-1.45H141.64Zm-1.33,2.3-.83,1.45H460.53l-.83-1.45Zm-1.33,2.3-.82,1.43H461.85l-.82-1.43H139Zm-1.33,2.3-.83,1.43H463.19l-.83-1.43Zm-1.43,2.48-1,1.76H464.8l-1-1.76Z" style="fill:url(#a)"/><path d="M157.86,341c11.5,2.21,12.61,0,12.61,0Zm271.68,0s1.11,2.21,12.61,0Zm-293.48.51c-.53,0-1.05,0-1.58.06l-1.07,1.86c1.79-.15,3.58-.29,5.42-.34,11,.27,20.95,2.82,32.62,2.82.82,0,1.58,0,2.36-.06h.29c.33,0,.69,0,1,.06h7.69c.35,0,.69-.05,1-.06h.28c.79,0,1.56.06,2.38.06,11.66,0,21.63-2.56,32.61-2.82,11,.27,21,2.82,32.68,2.82.82,0,1.59,0,2.38-.06h.28c.35,0,.7,0,1,.06h7.69c.35,0,.69-.05,1-.06h.29c.79,0,1.55.06,2.36.06,11.66,0,21.59-2.56,32.56-2.82,11,.27,20.9,2.82,32.56,2.82.8,0,1.6,0,2.36-.06h.35c.32,0,.64,0,1,.06h7.75c.32,0,.66-.05,1-.06h.34c.77,0,1.58.06,2.38.06,11.66,0,21.63-2.56,32.62-2.82,11,.27,20.94,2.82,32.61,2.82.82,0,1.59,0,2.38-.06h.28c.35,0,.7,0,1,.06h7.69c.35,0,.69-.05,1-.06h.29c.79,0,1.56.06,2.38.06,11.66,0,21.58-2.56,32.55-2.82,2.24.06,4.43.26,6.61.46l-1.18-2h-8.21c-.57,0-1.11,0-1.67.06s-1.35-.06-2-.06c-11.66,0-21.58,2.5-32.55,2.76-11-.27-20.95-2.76-32.62-2.76-.7,0-1.35,0-2,.06s-1.11-.06-1.68-.06H377c-.59,0-1.15,0-1.73.06s-1.29-.06-2-.06c-11.66,0-21.64,2.5-32.62,2.76-11-.27-20.94-2.76-32.61-2.76-.68,0-1.35,0-2,.06s-1.11-.06-1.68-.06h-7.75c-.57,0-1.12,0-1.68.06s-1.34-.06-2-.06c-11.66,0-21.58,2.5-32.55,2.76-11-.27-20.9-2.76-32.56-2.76-.68,0-1.37,0-2,.06s-1.11-.06-1.68-.06h-7.69c-.59,0-1.15,0-1.73.06s-1.29-.06-2-.06c-11.68,0-21.63,2.5-32.62,2.76-11-.27-20.94-2.76-32.61-2.76-.68,0-1.36,0-2,.06s-1.1-.06-1.67-.06h-7.75Zm-3.7,3.73-1.19,2.07c2.51-.26,5.07-.43,7.67-.49,11,.27,20.95,2.82,32.62,2.82.82,0,1.58,0,2.36-.06h.29c.33,0,.69,0,1,.06h7.69c.35,0,.69-.05,1-.06h.28c.79,0,1.56.06,2.38.06,11.66,0,21.64-2.55,32.62-2.82,11,.27,21,2.82,32.67,2.82.82,0,1.59,0,2.38-.06h.28c.35,0,.7,0,1,.06h7.69c.35,0,.69-.05,1-.06h.29c.79,0,1.56.06,2.38.06,11.66,0,21.58-2.55,32.55-2.82,11,.27,20.9,2.82,32.56,2.82.8,0,1.6,0,2.36-.06h.35c.32,0,.65,0,1,.06h7.74c.32,0,.66-.05,1-.06h.34c.77,0,1.58.06,2.38.06,11.66,0,21.63-2.55,32.62-2.82,11,.26,20.94,2.82,32.61,2.82.82,0,1.59,0,2.38-.06h.28c.35,0,.7,0,1,.06h7.69c.35,0,.7-.05,1-.06h.28c.79,0,1.56.06,2.38.06,11.66,0,21.58-2.55,32.55-2.82,3,.07,6,.34,8.88.66l-1.26-2.19c-.32,0-.65,0-1,0-.56,0-1.11,0-1.68,0h-7.75c-.57,0-1.11,0-1.67,0s-1.35,0-2,0c-11.66,0-21.58,2.5-32.55,2.76-11-.27-20.95-2.76-32.62-2.76-.7,0-1.35,0-2,0s-1.11,0-1.68,0H377c-.59,0-1.15,0-1.73,0s-1.29,0-2,0c-11.66,0-21.64,2.5-32.62,2.76-11-.27-20.94-2.76-32.61-2.76-.68,0-1.35,0-2,0s-1.11,0-1.68,0h-7.75c-.57,0-1.12,0-1.68,0s-1.34,0-2,0c-11.66,0-21.58,2.5-32.55,2.76-11-.27-20.9-2.76-32.56-2.76-.68,0-1.37,0-2,0s-1.11,0-1.68,0h-7.69c-.59,0-1.15,0-1.73,0s-1.29,0-2,0c-11.68,0-21.63,2.5-32.62,2.76-11-.27-20.94-2.76-32.61-2.76-.68,0-1.36,0-2,0s-1.1,0-1.67,0h-7.75c-.58,0-1.15,0-1.73,0s-1.29,0-2,0h0Zm0,3.72c-.74,0-1.45,0-2.18.06l-1.35,2.36c3.28-.37,6.6-.71,10-.79,11,.27,20.95,2.76,32.62,2.76.82,0,1.58,0,2.36-.06h.29c.33,0,.69,0,1,.06h7.69c.35,0,.69-.05,1-.06h.28c.79,0,1.56.06,2.38.06,11.66,0,21.63-2.5,32.61-2.76,11,.27,21,2.76,32.68,2.76.82,0,1.59,0,2.38-.06h.28c.35,0,.7,0,1,.06h7.69c.35,0,.69-.05,1-.06h.29c.79,0,1.56.06,2.38.06,11.66,0,21.58-2.5,32.55-2.76,11,.27,20.9,2.76,32.56,2.76.8,0,1.6,0,2.36-.06h.35c.32,0,.65,0,1,.06h7.74c.32,0,.66-.05,1-.06h.34c.77,0,1.58.06,2.38.06,11.66,0,21.63-2.5,32.62-2.76,11,.26,20.94,2.76,32.61,2.76.82,0,1.59,0,2.38-.06h.28c.35,0,.7,0,1,.06h7.69c.35,0,.7-.05,1-.06h.28c.79,0,1.56.06,2.38.06,11.66,0,21.58-2.5,32.55-2.76,3.81.09,7.51.46,11.19.89L469.82,349c-.36,0-.71-.06-1.08-.06-.68,0-1.37,0-2,.06s-1.11-.06-1.68-.06h-7.75c-.57,0-1.11,0-1.67.06s-1.35-.06-2-.06c-11.66,0-21.58,2.5-32.55,2.76-11-.27-20.94-2.76-32.62-2.76-.7,0-1.35,0-2,.06s-1.1-.06-1.67-.06H377c-.59,0-1.16,0-1.74.06s-1.29-.06-2-.06c-11.66,0-21.64,2.5-32.62,2.76-11-.27-20.94-2.76-32.61-2.76-.68,0-1.35,0-2,.06s-1.11-.06-1.68-.06h-7.75c-.57,0-1.12,0-1.68.06s-1.34-.06-2-.06c-11.66,0-21.58,2.5-32.55,2.76-11-.27-20.9-2.76-32.56-2.76-.68,0-1.37,0-2,.06s-1.11-.06-1.68-.06h-7.69c-.59,0-1.15,0-1.73.06s-1.29-.06-2-.06c-11.68,0-21.63,2.5-32.62,2.76-11-.27-21-2.76-32.62-2.76-.68,0-1.35,0-2,.06s-1.1-.06-1.67-.06h-7.75c-.58,0-1.16,0-1.74.06s-1.29-.06-2-.06Zm0,3.72c-1.49,0-2.92,0-4.35.12l-1.49,2.59c4-.49,8.11-1,12.32-1.07,11,.27,20.95,2.76,32.62,2.76.82,0,1.58,0,2.36-.06h.29c.33,0,.69,0,1,.06h7.69c.35,0,.69-.05,1-.06h.28c.79,0,1.56.06,2.38.06,11.66,0,21.64-2.5,32.62-2.76,11,.27,21,2.76,32.67,2.76.82,0,1.59,0,2.38-.06h.28c.35,0,.7,0,1,.06h7.69c.35,0,.69-.05,1-.06h.29c.79,0,1.56.06,2.38.06,11.66,0,21.58-2.5,32.55-2.76,11,.27,20.9,2.76,32.56,2.76.8,0,1.6,0,2.36-.06h.35c.32,0,.65,0,1,.06h7.74c.32,0,.66-.05,1-.06h.35c.77,0,1.57.06,2.36.06,11.66,0,21.63-2.5,32.62-2.76,11,.27,20.94,2.76,32.61,2.76.82,0,1.59,0,2.38-.06h.29c.35,0,.69,0,1,.06h7.69c.35,0,.7-.05,1-.06h.28c.79,0,1.56.06,2.38.06,11.66,0,21.58-2.5,32.55-2.76,4.6.11,9.05.63,13.5,1.18L472,352.74c-1.09,0-2.15-.12-3.27-.12-.68,0-1.37,0-2,.06s-1.11-.06-1.68-.06h-7.75c-.57,0-1.11,0-1.67.06s-1.35-.06-2-.06c-11.79,0-21.79,2.54-32.9,2.76-10.85-.31-20.72-2.76-32.27-2.76-.7,0-1.35,0-2,.06s-1.1-.06-1.67-.06H377c-.59,0-1.16,0-1.74.06s-1.29-.06-2-.06c-11.66,0-21.64,2.5-32.62,2.76-11-.27-20.94-2.76-32.61-2.76-.68,0-1.35,0-2,.06s-1.11-.06-1.68-.06h-7.75c-.57,0-1.12,0-1.68.06s-1.34-.06-2-.06c-11.66,0-21.58,2.5-32.55,2.76-11-.27-20.9-2.76-32.56-2.76-.68,0-1.37,0-2,.06s-1.11-.06-1.68-.06h-7.69c-.59,0-1.15,0-1.73.06s-1.29-.06-2-.06c-11.55,0-21.42,2.46-32.27,2.76-11.12-.22-21.19-2.76-33-2.76-.68,0-1.35,0-2,.06s-1.1-.06-1.67-.06h-7.75c-.58,0-1.16,0-1.74.06s-1.29-.06-2-.06Zm0,3.72c-2.27,0-4.43.13-6.59.28l-1.53,2.65A145.92,145.92,0,0,1,138.83,358c11,.27,20.95,2.76,32.62,2.76.82,0,1.58,0,2.36,0h.29c.33,0,.69,0,1,0h7.69c.35,0,.69,0,1,0h.28c.79,0,1.56,0,2.38,0,11.66,0,21.64-2.5,32.62-2.76,11,.27,21,2.76,32.67,2.76.82,0,1.59,0,2.38,0h.28c.35,0,.7,0,1,0h7.69c.35,0,.69,0,1,0h.29c.79,0,1.56,0,2.38,0,11.66,0,21.58-2.5,32.55-2.76,11,.27,20.9,2.76,32.56,2.76.8,0,1.6,0,2.36,0h.35c.32,0,.65,0,1,0h7.74c.32,0,.66,0,1,0h.35c.77,0,1.57,0,2.36,0,11.66,0,21.63-2.5,32.62-2.76,11,.27,20.94,2.76,32.61,2.76.82,0,1.59,0,2.38,0h.29c.35,0,.69,0,1,0h7.69c.35,0,.7,0,1,0h.28c.79,0,1.56,0,2.38,0,11.66,0,21.58-2.5,32.55-2.76,5.4.13,10.58.81,15.82,1.46l-1.66-2.86c-1.8-.11-3.6-.24-5.48-.24-.68,0-1.37,0-2,.06s-1.11-.06-1.68-.06h-7.75c-.57,0-1.11,0-1.67.06s-1.35-.06-2-.06c-11.66,0-21.58,2.49-32.55,2.76-11-.27-20.94-2.76-32.62-2.76-.7,0-1.35,0-2,.06s-1.11-.06-1.68-.06H377c-.59,0-1.15,0-1.73.06s-1.29-.06-2-.06c-11.66,0-21.64,2.5-32.62,2.76-11-.27-20.94-2.76-32.61-2.76-.68,0-1.35,0-2,.06s-1.11-.06-1.68-.06h-7.75c-.57,0-1.12,0-1.68.06s-1.34-.06-2-.06c-11.66,0-21.6,2.5-32.56,2.76-11-.27-20.89-2.76-32.55-2.76-.68,0-1.37,0-2,.06s-1.11-.06-1.68-.06h-7.69c-.59,0-1.15,0-1.73.06s-1.3-.06-2-.06c-11.68,0-21.62,2.5-32.61,2.76-11-.27-21-2.76-32.62-2.76-.68,0-1.35,0-2,.06s-1.11-.06-1.68-.06h-7.74c-.58,0-1.16,0-1.74.06s-1.29-.06-2-.06Zm0,3.73c-3.06,0-6,.19-8.83.45l-1.6,2.75c5.6-.69,11.12-1.42,16.91-1.56,11,.27,20.95,2.75,32.62,2.75.82,0,1.58,0,2.36,0h.29l1,0h7.69c.35,0,.69,0,1,0h.28c.79,0,1.56,0,2.38,0,11.66,0,21.63-2.48,32.61-2.75,11,.27,21,2.75,32.68,2.75.82,0,1.59,0,2.38,0h.28c.35,0,.7,0,1,0h7.69c.35,0,.69,0,1,0h.29c.79,0,1.56,0,2.38,0,11.66,0,21.58-2.48,32.55-2.75,11,.27,20.9,2.75,32.56,2.75.8,0,1.6,0,2.36,0h.35l1,0h7.74c.32,0,.66,0,1,0h.34c.77,0,1.58,0,2.38,0,11.66,0,21.63-2.48,32.62-2.75,11,.26,20.94,2.75,32.61,2.75.82,0,1.59,0,2.38,0h.28c.35,0,.7,0,1,0h7.69c.35,0,.7,0,1,0h.28c.79,0,1.56,0,2.38,0,11.66,0,21.58-2.48,32.55-2.75,6.19.15,12.08,1,18.12,1.73l-1.75-3c-2.5-.2-5-.33-7.69-.33-.68,0-1.37,0-2,.06s-1.11-.06-1.68-.06h-7.75c-.57,0-1.11,0-1.67.06s-1.35-.06-2-.06c-11.66,0-21.58,2.5-32.55,2.76-11-.27-20.94-2.76-32.62-2.76-.7,0-1.35,0-2,.06s-1.11-.06-1.68-.06H377c-.59,0-1.15,0-1.73.06s-1.29-.06-2-.06c-11.66,0-21.64,2.5-32.62,2.76-11-.27-20.94-2.76-32.61-2.76-.68,0-1.35,0-2,.06s-1.11-.06-1.68-.06h-7.75c-.57,0-1.12,0-1.68.06s-1.34-.06-2-.06c-11.66,0-21.6,2.5-32.56,2.76-11-.27-20.89-2.76-32.55-2.76-.68,0-1.37,0-2,.06s-1.11-.06-1.68-.06h-7.69c-.59,0-1.15,0-1.73.06s-1.3-.06-2-.06c-11.68,0-21.62,2.5-32.61,2.76-11-.27-21-2.76-32.62-2.76-.68,0-1.35,0-2,.06s-1.11-.06-1.68-.06h-7.74c-.58,0-1.16,0-1.74.06s-1.29-.06-2-.06Zm0,3.72a105.24,105.24,0,0,0-11.11.68l-1.62,2.8c6.41-.74,12.63-1.69,19.21-1.85,11,.27,20.95,2.76,32.62,2.76.82,0,1.58,0,2.36-.06h.29c.33,0,.69,0,1,.06h7.69c.35,0,.69-.05,1-.06h.28c.79,0,1.56.06,2.38.06,11.66,0,21.63-2.5,32.61-2.76,11,.27,21,2.76,32.68,2.76.82,0,1.59,0,2.38-.06h.28c.35,0,.7,0,1,.06h7.69c.35,0,.69-.05,1-.06h.29c.79,0,1.56.06,2.38.06,11.66,0,21.58-2.5,32.55-2.76,11,.27,20.9,2.76,32.56,2.76.8,0,1.6,0,2.36-.06h.35c.32,0,.65,0,1,.06h7.74c.32,0,.66-.05,1-.06h.34c.77,0,1.58.06,2.38.06,11.66,0,21.63-2.5,32.62-2.76,11,.26,20.94,2.76,32.61,2.76.82,0,1.59,0,2.38-.06h.28c.35,0,.7,0,1,.06h7.69c.35,0,.7-.05,1-.06h.28c.79,0,1.56.06,2.38.06,11.66,0,21.58-2.5,32.55-2.76,7,.17,13.57,1.27,20.44,2l-1.8-3.1c-3.22-.32-6.51-.55-10-.55-.68,0-1.37,0-2,.06s-1.11-.06-1.68-.06h-7.75c-.57,0-1.11,0-1.67.06s-1.34-.06-2-.06c-11.66,0-21.59,2.5-32.56,2.76-11-.27-20.93-2.76-32.61-2.76-.7,0-1.37,0-2,.06s-1.1-.06-1.67-.06H377c-.58,0-1.16,0-1.74.06s-1.29-.06-2-.06c-11.66,0-21.64,2.5-32.62,2.76-11-.27-20.94-2.76-32.61-2.76-.68,0-1.35,0-2,.06s-1.11-.06-1.68-.06h-7.75c-.57,0-1.1,0-1.67.06s-1.35-.06-2-.06c-11.66,0-21.58,2.5-32.55,2.76-11-.27-20.9-2.76-32.56-2.76-.68,0-1.37,0-2,.06s-1.11-.06-1.68-.06h-7.68c-.59,0-1.16,0-1.74.06s-1.29-.06-2-.06c-11.68,0-21.63,2.5-32.62,2.76-11-.27-20.94-2.76-32.61-2.76-.68,0-1.35,0-2,.06s-1.11-.06-1.68-.06h-7.75c-.58,0-1.15,0-1.73.06s-1.3-.06-2-.06Zm0,3.72a114.93,114.93,0,0,0-13.39.89l-1.65,2.87c7.25-.76,14.15-1.95,21.52-2.13,11,.27,20.95,2.76,32.62,2.76.82,0,1.58,0,2.36-.06h.29c.33,0,.69,0,1,.06h7.69c.35,0,.69-.05,1-.06h.28c.79,0,1.56.06,2.38.06,11.66,0,21.63-2.5,32.61-2.76,11,.27,21,2.76,32.68,2.76.82,0,1.59,0,2.38-.06h.28c.35,0,.7,0,1,.06h7.69c.35,0,.69-.05,1-.06h.29c.79,0,1.55.06,2.36.06,11.66,0,21.59-2.5,32.56-2.76,11,.27,20.9,2.76,32.56,2.76.8,0,1.6,0,2.36-.06h.35c.32,0,.64,0,1,.06h7.75c.32,0,.66-.05,1-.06h.34c.77,0,1.58.06,2.38.06,11.66,0,21.63-2.5,32.62-2.76,11,.27,20.94,2.76,32.61,2.76.82,0,1.59,0,2.38-.06h.28c.35,0,.7,0,1,.06h7.69c.35,0,.69-.05,1-.06h.29c.79,0,1.56.06,2.38.06,11.66,0,21.58-2.5,32.55-2.76,7.75.19,15,1.5,22.71,2.25l-1.79-3.1a110,110,0,0,0-12.24-.78c-.68,0-1.37,0-2,.06s-1.11-.06-1.68-.06h-7.75c-.57,0-1.11,0-1.67.06s-1.35-.06-2-.06c-11.66,0-21.58,2.5-32.55,2.76-11-.27-20.94-2.76-32.62-2.76-.7,0-1.35,0-2,.06s-1.1-.06-1.67-.06H377c-.58,0-1.16,0-1.74.06s-1.29-.06-2-.06c-11.67,0-21.64,2.5-32.62,2.76-11-.27-20.94-2.76-32.61-2.76-.68,0-1.35,0-2,.06s-1.11-.06-1.68-.06h-7.75c-.57,0-1.12,0-1.68.06s-1.34-.06-2-.06c-11.66,0-21.58,2.5-32.55,2.76-11-.27-20.9-2.76-32.56-2.76-.68,0-1.37,0-2,.06s-1.11-.06-1.68-.06h-7.69c-.59,0-1.15,0-1.73.06s-1.29-.06-2-.06c-11.68,0-21.63,2.5-32.62,2.76-11-.27-21-2.76-32.62-2.76-.68,0-1.35,0-2,.06s-1.1-.06-1.67-.06h-7.75c-.58,0-1.17,0-1.74.06s-1.29-.06-2-.06Zm0,3.72a126.66,126.66,0,0,0-15.7,1.18L115,375.21c8.11-.72,15.66-2.16,23.8-2.36,11,.27,20.95,2.76,32.62,2.76.82,0,1.58,0,2.36,0h.29c.33,0,.69,0,1,0h7.69c.35,0,.69,0,1,0h.28c.79,0,1.56,0,2.38,0,11.66,0,21.63-2.5,32.61-2.76,11,.27,21,2.76,32.68,2.76.82,0,1.59,0,2.38,0h.28c.35,0,.7,0,1,0h7.69c.35,0,.69,0,1,0h.29c.79,0,1.56,0,2.38,0,11.66,0,21.58-2.5,32.55-2.76,11,.27,20.9,2.76,32.56,2.76.8,0,1.6,0,2.36,0h.35c.32,0,.65,0,1,0h7.74c.32,0,.66,0,1,0h.34c.77,0,1.58,0,2.38,0,11.66,0,21.63-2.5,32.62-2.76,11,.27,20.94,2.76,32.61,2.76.82,0,1.59,0,2.38,0h.28c.35,0,.7,0,1,0h7.69c.35,0,.7,0,1,0h.28c.79,0,1.56,0,2.38,0,11.66,0,21.58-2.5,32.55-2.76,8.5.21,16.4,1.73,25,2.41l-1.72-3a120.2,120.2,0,0,0-14.56-1.07c-.68,0-1.37,0-2,.06s-1.11-.06-1.68-.06h-7.75c-.57,0-1.11,0-1.67.06s-1.35-.06-2-.06c-11.66,0-21.58,2.49-32.55,2.76-11-.27-20.94-2.76-32.62-2.76-.7,0-1.35,0-2,.06s-1.1-.06-1.67-.06H377c-.59,0-1.16,0-1.74.06s-1.29-.06-2-.06c-11.66,0-21.64,2.5-32.62,2.76-11-.27-20.94-2.76-32.61-2.76-.68,0-1.35,0-2,.06s-1.11-.06-1.68-.06h-7.75c-.57,0-1.12,0-1.68.06s-1.34-.06-2-.06c-11.66,0-21.58,2.5-32.55,2.76-11-.27-20.9-2.76-32.56-2.76-.68,0-1.37,0-2,.06s-1.11-.06-1.68-.06h-7.69c-.59,0-1.15,0-1.73.06s-1.29-.06-2-.06c-11.68,0-21.63,2.5-32.62,2.76-11-.27-20.94-2.76-32.61-2.76-.68,0-1.35,0-2,.06s-1.11-.06-1.68-.06h-7.75c-.58,0-1.15,0-1.73.06s-1.3-.06-2-.06Z" style="fill:url(#b)"/><path d="M402.1,290.14c-5.7,0-7.44,2.87-7.44,2.87-9.12,35.25-39.36,71.11-75.34,71.11H292.39V400s0,0,.06,0h205l-20.62-36.51C444.46,358.68,418,325.6,409.6,293c0,0-1.8-2.87-7.5-2.87Z" style="fill:url(#c)"/><path d="M402.1,291.55a9.51,9.51,0,0,0-5.13,1.18c-.88.55-1,.92-1.07,1s-.05,0-.06.06a112,112,0,0,1-27.78,49c-13.37,13.57-30.23,22.76-48.68,22.76H293.8v33.08H496.65l-18.93-33.53c-15.63-2-29.91-10.54-41.53-22.31a112,112,0,0,1-27.78-49l-.06-.06a3.57,3.57,0,0,0-1.13-.9,9.41,9.41,0,0,0-5.13-1.24h0Z" style="fill:#97c924"/><path d="M402.1,291.55a12.53,12.53,0,0,1,1.35.11c.08,10.06,0,27,0,36-.1,7.8-2.77,14.08-6.71,21.47-1.82,5.18-3.29,3.21-7.83,9.52a85.21,85.21,0,0,1-17.13,4.06c-8.39,1.33-27.07,2.5-36.29.45,12.14-3.56,23.2-10.9,32.57-20.4a101.91,101.91,0,0,0,7.1-8,112.2,112.2,0,0,0,10-14.93c1.18-2.09,2.29-4.16,3.32-6.31,1.56-3.22,2.94-6.5,4.17-9.8.41-1.1.81-2.22,1.18-3.32.74-2.21,1.39-4.43,2-6.65,0,0,.05,0,.06-.06a2.73,2.73,0,0,1,1.07-1,7.35,7.35,0,0,1,1.92-.79h.06a12,12,0,0,1,3.15-.39Z" style="fill:#ede71f"/><path d="M399.79,296.34c-1.37,20.11-7.59,44-22.15,59.37-5.36,4.46-12.2,8.5-18.82,7.52,22.57-18.37,36.28-46.49,41-66.88Z" style="fill:#c6cb24"/><path d="M381.65,330.94c-3.34,9.07-16,22.49-29.47,33.48a90.07,90.07,0,0,1-9.35.13C351.06,363.8,370.24,347.6,381.65,330.94Z" style="fill:#9ecb34"/><path d="M358.5,293c9.12,35.25,39.3,71.11,75.28,71.11h27V400s0,0-.05,0H241.36s-.06,0-.06,0V364.15h26.9c36,0,66.21-35.86,75.33-71.11,0,0,1.78-2.89,7.48-2.89S358.5,293,358.5,293h0Z" style="fill:url(#d)"/><path d="M351,291.55a9.42,9.42,0,0,1,5.13,1.24,3.53,3.53,0,0,1,1.13.9l.06.06a112,112,0,0,0,27.78,49c13.39,13.57,30.29,22.76,48.74,22.76h25.47v33.07H242.72V365.53h25.58c18.45,0,35.31-9.2,48.68-22.76a112,112,0,0,0,27.78-49s.05,0,.06-.06a2.74,2.74,0,0,1,1.07-1,9.51,9.51,0,0,1,5.13-1.18h0Z" style="fill:#97c924"/><path d="M351,291.55a12.56,12.56,0,0,1,1.35.11c.08,10.06,0,27,0,36-.1,7.8-2.77,14.08-6.71,21.47-1.83,5.18-3.29,3.21-7.83,9.52a85.21,85.21,0,0,1-17.13,4.06c-8.39,1.33-27.07,2.5-36.29.45,12.14-3.56,23.2-10.9,32.57-20.4a102.29,102.29,0,0,0,7.1-8,112.56,112.56,0,0,0,10-14.93c1.17-2.09,2.29-4.16,3.32-6.31,1.56-3.22,2.94-6.5,4.17-9.8.41-1.1.81-2.22,1.18-3.32.74-2.21,1.39-4.43,2-6.65,0,0,.05,0,.06-.06a2.73,2.73,0,0,1,1.07-1,7.35,7.35,0,0,1,1.92-.79h.06a12.07,12.07,0,0,1,3.16-.39Z" style="fill:#ede71f"/><path d="M348.69,296.34c-1.37,20.11-7.59,44-22.15,59.37-5.35,4.46-12.2,8.5-18.82,7.52,22.57-18.37,36.28-46.49,41-66.88Z" style="fill:#c6cb24"/><path d="M330.54,330.94c-3.34,9.07-16,22.49-29.47,33.48a90.06,90.06,0,0,1-9.35.13C300,363.8,319.14,347.6,330.54,330.94Z" style="fill:#9ecb34"/><path d="M307.39,293c9.12,35.25,39.3,71.11,75.28,71.11h27V400s0,0-.06,0H190.26s-.06,0-.06,0V364.15h26.91c36,0,66.21-35.86,75.33-71.11,0,0,1.78-2.89,7.48-2.89S307.4,293,307.4,293h0Z" style="fill:url(#e)"/><path d="M299.92,291.55a9.43,9.43,0,0,1,5.13,1.24,3.6,3.6,0,0,1,1.13.9l.06.06a112,112,0,0,0,27.78,49c13.39,13.57,30.29,22.76,48.74,22.76h25.47v33.07H191.62V365.53H217.2c18.45,0,35.31-9.2,48.68-22.76a112.05,112.05,0,0,0,27.78-49s.05,0,.06-.06.19-.41,1.07-1a9.51,9.51,0,0,1,5.13-1.18h0Z" style="fill:#97c924"/><path d="M297.54,291.77c-.29.05-.56.12-.81.18h-.06a7.28,7.28,0,0,0-1.9.79c-.88.55-1,.91-1.07,1s-.05,0-.06.06c-.58,2.22-1.23,4.44-2,6.66-.37,1.11-.78,2.21-1.19,3.32-1.23,3.3-2.61,6.59-4.16,9.81-1,2.15-2.15,4.23-3.33,6.31a112.11,112.11,0,0,1-10,14.92,102.43,102.43,0,0,1-7.1,8c-9.37,9.5-20.43,16.83-32.56,20.39,9.22,2.05,13.44-.19,21.83-1.51,6.51-1,14-1.88,20.14-4.06,4.55-6.31,3-4.33,4.82-9.51,3.94-7.39,9.68-14.07,11.11-22.27C296.6,315.74,297.54,297.09,297.54,291.77Z" style="fill:#ede71f"/><path d="M297.58,296.34c-1.37,20.11-7.59,44-22.15,59.37-5.36,4.46-12.2,8.5-18.82,7.52,22.57-18.37,36.28-46.49,41-66.88Z" style="fill:#c6cb24"/><path d="M279.44,330.94c-3.34,9.07-16,22.49-29.47,33.48a90.27,90.27,0,0,1-9.35.13c8.23-.75,27.41-16.94,38.81-33.61Z" style="fill:#9ecb34"/><path d="M256.63,293c9.12,35.25,39.3,71.11,75.28,71.11h27V400s0,0-.06,0H139.49s-.06,0-.06,0V364.15h26.91c36,0,66.21-35.86,75.33-71.11,0,0,1.78-2.89,7.48-2.89s7.48,2.89,7.48,2.89Z" style="fill:url(#f)"/><path d="M248.81,291.55a9.42,9.42,0,0,0-5.13,1.24,3.56,3.56,0,0,0-1.13.9l-.06.06a112,112,0,0,1-27.78,49c-13.39,13.57-30.29,22.77-48.74,22.77H140.51v33.07h216.6l.68-33.07H332.21c-18.45,0-36-9.2-49.36-22.76a112.05,112.05,0,0,1-27.78-49s-.05,0-.06-.06a2.74,2.74,0,0,0-1.07-1,9.5,9.5,0,0,0-5.13-1.18h0Z" style="fill:#97c924"/><path d="M244.82,296.34c-2.06,30.14-18.84,68.18-37.8,74.73-6.18,2.14-17,2.88-20.76,3.36,33.16-15.77,52.76-52.85,58.56-78.09Z" style="fill:#93bc30"/><path d="M197.73,290.14c-5.7,0-7.49,2.87-7.49,2.87-8.41,32.49-39.42,74.39-71.65,79.37l-16,27.63H307.38s.06,0,.06,0V364.12h-27c-36,0-66.16-35.86-75.28-71.11C205.17,293,203.43,290.14,197.73,290.14Z" style="fill:url(#g)"/><path d="M197.73,291.55a9.42,9.42,0,0,0-5.13,1.24,3.56,3.56,0,0,0-1.13.9l-.06.06c-4.67,17.74-15.59,35.68-26.93,50s-32.4,28.73-46.81,30.25l-14.28,24.65H306V365.53H280.45c-18.45,0-35.31-9.2-48.68-22.76a112.05,112.05,0,0,1-27.78-49s-.05,0-.06-.06-.19-.41-1.07-1A9.52,9.52,0,0,0,197.73,291.55Z" style="fill:#97c924"/><path d="M193.73,296.34c-2.06,30.15-18.85,68.18-37.8,74.73-6.18,2.14-17,2.88-20.76,3.36,33.16-15.77,52.76-52.85,58.56-78.1h0Z" style="fill:#93bc30"/><path d="M197.73,291.55a12.53,12.53,0,0,0-1.35.11c-.08,10.06,0,27,0,36,.1,7.8,2.77,14.08,6.71,21.47a14.7,14.7,0,0,0,.68,1.63c1.37,3.62,2.38,4.88,7.61,8.85,16.62,12.62,37.23,14.51,49.36,13.47-3.8-3-7.86-5.72-11.44-8.23a86.55,86.55,0,0,0,15-1.69c-12.14-3.56-23.2-10.9-32.57-20.4-1.63-1.66-3.15-3.41-4.68-5.18-.69-1-1.67-2.32-2-2.7a116.55,116.55,0,0,1-10.48-15c-1.18-2.09-2.29-4.16-3.32-6.31-1.56-3.22-2.94-6.5-4.17-9.8-.41-1.1-.81-2.22-1.18-3.32-.74-2.21-1.39-4.43-2-6.65,0,0-.05,0-.06-.06a2.73,2.73,0,0,0-1.07-1,7.36,7.36,0,0,0-1.91-.79h-.06a12.07,12.07,0,0,0-3.16-.39Z" style="fill:#ede71f"/><path d="M200.07,296.34c1.37,20.11,7.59,44,22.15,59.37,5.35,4.46,12.2,8.5,18.82,7.51C218.46,344.86,204.75,316.74,200.07,296.34Z" style="fill:#c6cb24"/><path d="M214,324.16c7.9,19.46,27.9,37.63,48.48,49.85a71,71,0,0,0,8.45-.2c-14.73-7.9-38.46-19.18-56.93-49.65Z" style="fill:#9ecb34"/><path d="M303.17,291.95h.06a7.28,7.28,0,0,1,1.9.79c.88.55,1,.91,1.07,1s.05,0,.06.06c.58,2.22,1.23,4.44,2,6.66.37,1.11.78,2.21,1.19,3.32,1.23,3.3,2.61,6.59,4.16,9.81,1,2.15,2.15,4.23,3.33,6.31a112.11,112.11,0,0,0,10,14.92,102.43,102.43,0,0,0,7.1,8c9.37,9.5,20.43,18.15,32.56,21.71-24.15.09-34.63-2.1-43.41-13.39s-12-16.23-13.8-23.12S302.65,306.07,303.17,291.95Z" style="fill:#ede71f"/><path d="M138.45,383.28c-9.6,0-20.73,2-29.79,2.83L87.76,422.31l209.9,0,214.58,0-21-36.34c-8.67-.86-19.45-2.69-28.65-2.69-.89,0-1.73,0-2.6.06-.59,0-1.26-.06-1.86-.06-.4,0-.74,0-1.13,0s-.78,0-1.18,0c-.6,0-1.16,0-1.75.06-.87,0-1.69-.06-2.59-.06-12,0-22.16,3.16-33.58,3.16s-21.57-3.16-33.58-3.16c-.89,0-1.73,0-2.6.06-.59,0-1.14-.06-1.74-.06-.4,0-.8,0-1.19,0s-.78,0-1.18,0c-.6,0-1.22,0-1.81.06-.87,0-1.69-.06-2.59-.06-12,0-22.15,3.16-33.58,3.16s-21.58-3.16-33.58-3.16c-.89,0-1.78,0-2.65.06-.59,0-1.15-.06-1.75-.06-.4,0-.78,0-1.18,0s-.79,0-1.19,0c-.6,0-1.16,0-1.75.06-.87,0-1.75-.06-2.65-.06-12,0-22.11,3.16-33.53,3.16s-21.52-3.16-33.53-3.16c-.89,0-1.72,0-2.59.06-.59,0-1.26-.06-1.86-.06-.4,0-.74,0-1.13,0s-.79,0-1.19,0c-.6,0-1.15,0-1.74.06-.87,0-1.71-.06-2.6-.06-12,0-22.14,3.16-33.58,3.16s-21.58-3.16-33.58-3.16c-.87,0-1.74,0-2.59.06-.6,0-1.13-.06-1.74-.06-.41,0-.84,0-1.25,0s-.79,0-1.19,0c-.6,0-1.21,0-1.8.06-.86,0-1.69-.06-2.59-.06Z" style="fill:#fff"/><path d="M134.37,381.48c-8.74,0-16.47,1.6-24.42,2.52l-1.46,2.53h.16c11.52,0,21.27-2.9,32.11-3.21,10.85.31,20.68,3.21,32.22,3.21.81,0,1.56,0,2.34-.06h.29l1,.06c.29,0,.57,0,.86,0s.74,0,1.14,0,.79,0,1.2,0c.22,0,.43,0,.64,0s.46,0,.68,0c.4,0,.74,0,1.14,0s.79,0,1.2,0h.74c.34,0,.69-.05,1-.06h.28c.78,0,1.53.06,2.34.06,11.52,0,21.37-2.9,32.22-3.21,10.85.31,20.77,3.21,32.29,3.21.81,0,1.56,0,2.34-.06H255c.35,0,.68,0,1,.06h.75c.4,0,.8,0,1.2,0s.8,0,1.2,0c.21,0,.41,0,.62,0s.42,0,.64,0c.4,0,.8,0,1.2,0s.8,0,1.2,0h.8c.35,0,.68-.05,1-.06H265c.78,0,1.53.06,2.34.06,11.52,0,21.34-2.9,32.17-3.21,10.84.31,20.64,3.21,32.16,3.21.79,0,1.58,0,2.34-.06h.35l1,.06c.29,0,.58,0,.86,0s.8,0,1.2,0,.74,0,1.14,0c.22,0,.43,0,.64,0s.45,0,.68,0c.4,0,.8,0,1.2,0s.74,0,1.14,0h.8c.32,0,.65-.05,1-.06h.34c.76,0,1.55.06,2.34.06,11.52,0,21.37-2.9,32.22-3.21,10.86.3,20.7,3.21,32.23,3.21.81,0,1.56,0,2.34-.06h.28c.35,0,.68,0,1,.06h.75c.4,0,.8,0,1.2,0s.79,0,1.2,0c.21,0,.41,0,.62,0s.41,0,.62,0c.4,0,.82,0,1.21,0s.79,0,1.2,0h.8c.35,0,.68-.05,1-.06h.28c.78,0,1.54.06,2.34.06,11.53,0,21.34-2.9,32.17-3.21,10.84.31,20.7,3.21,32.22,3.21l1.13,0L490,383.87c-7.54-.94-15-2.39-23.26-2.39-.67,0-1.36,0-2,.06s-1.08-.06-1.65-.06c-.29,0-.57,0-.86,0s-.8,0-1.2,0-.74,0-1.14,0c-.22,0-.43,0-.63,0s-.45,0-.68,0c-.4,0-.8,0-1.2,0s-.74,0-1.14,0h-.8c-.57,0-1.1,0-1.66.06s-1.33-.06-2-.06c-11.52,0-21.33,2.84-32.17,3.15-10.86-.31-20.68-3.15-32.22-3.15-.69,0-1.34,0-2,.06s-1.09-.06-1.66-.06c-.25,0-.48,0-.74,0s-.8,0-1.2,0-.8,0-1.2,0c-.21,0-.41,0-.62,0s-.42,0-.64,0c-.4,0-.8,0-1.2,0s-.79,0-1.2,0h-.8c-.58,0-1.15,0-1.72.06s-1.27-.06-1.94-.06c-11.53,0-21.37,2.84-32.22,3.15-10.85-.31-20.7-3.15-32.22-3.15-.67,0-1.33,0-2,.06s-1.1-.06-1.66-.06c-.26,0-.52,0-.8,0s-.8,0-1.2,0-.79,0-1.2,0c-.22,0-.42,0-.62,0s-.42,0-.64,0c-.4,0-.8,0-1.2,0s-.79,0-1.2,0h-.8c-.57,0-1.1,0-1.66.06s-1.33-.06-2-.06c-11.52,0-21.33,2.84-32.16,3.15-10.85-.31-20.65-3.15-32.17-3.15-.67,0-1.35,0-2,.06s-1.08-.06-1.65-.06c-.29,0-.57,0-.86,0s-.8,0-1.2,0-.74,0-1.14,0c-.22,0-.43,0-.64,0s-.45,0-.68,0c-.4,0-.8,0-1.2,0s-.74,0-1.14,0h-.75c-.58,0-1.13,0-1.71.06s-1.28-.06-2-.06c-11.54,0-21.36,2.84-32.22,3.15-10.85-.31-20.7-3.15-32.22-3.15-.67,0-1.34,0-2,.06s-1.09-.06-1.66-.06c-.24,0-.48,0-.74,0-.42,0-.85,0-1.26,0s-.79,0-1.2,0c-.21,0-.42,0-.64,0s-.36,0-.56,0c-.42,0-.85,0-1.26,0s-.79,0-1.2,0H138c-.58,0-1.15,0-1.72.06s-1.27-.06-1.94-.06Zm0,4.29c-9.71,0-18.17,2-27.08,2.85L106,390.76h.27c.78,0,1.53.06,2.34.06,11.52,0,21.27-2.9,32.11-3.21,10.85.31,20.68,3.21,32.22,3.21.81,0,1.56,0,2.34-.06h.29l1,.06c.29,0,.57,0,.86,0s.74,0,1.14,0,.79,0,1.2,0c.22,0,.43,0,.64,0s.46,0,.68,0c.4,0,.74,0,1.14,0s.79,0,1.2,0h.74c.34,0,.69-.05,1-.06h.28c.78,0,1.53.06,2.34.06,11.52,0,21.37-2.9,32.22-3.21,10.85.31,20.77,3.21,32.29,3.21.81,0,1.56,0,2.34-.06H255c.35,0,.68,0,1,.06h.75c.4,0,.8,0,1.2,0s.8,0,1.2,0c.21,0,.41,0,.62,0s.42,0,.64,0c.4,0,.8,0,1.2,0s.8,0,1.2,0h.8c.35,0,.68-.05,1-.06H265c.78,0,1.53.06,2.34.06,11.52,0,21.34-2.9,32.17-3.21,10.84.31,20.64,3.21,32.16,3.21.79,0,1.58,0,2.34-.06h.35l1,.06c.29,0,.58,0,.86,0s.8,0,1.2,0,.74,0,1.14,0c.22,0,.43,0,.64,0s.45,0,.68,0c.4,0,.8,0,1.2,0s.74,0,1.14,0h.8c.32,0,.65-.05,1-.06h.34c.76,0,1.55.06,2.34.06,11.52,0,21.37-2.9,32.22-3.21,10.86.3,20.7,3.21,32.23,3.21.81,0,1.56,0,2.34-.06h.28c.35,0,.68,0,1,.06h.75c.4,0,.8,0,1.2,0s.79,0,1.2,0c.21,0,.41,0,.62,0s.41,0,.62,0c.4,0,.82,0,1.21,0s.79,0,1.2,0h.8c.35,0,.68-.05,1-.06h.28c.78,0,1.54.06,2.34.06,11.53,0,21.34-2.9,32.17-3.21,10.84.31,20.7,3.21,32.22,3.21.79,0,1.56,0,2.34-.06H493l.94.06-1.34-2.33c-8.48-.88-16.67-2.72-25.94-2.72-.67,0-1.35,0-2,.06s-1.09-.06-1.66-.06c-.29,0-.56,0-.85,0h-2.35c-.22,0-.42,0-.62,0s-.45,0-.68,0H455.4c-.57,0-1.1,0-1.66.06s-1.33-.06-2-.06c-11.52,0-21.33,2.84-32.17,3.15-10.86-.31-20.69-3.15-32.22-3.15-.69,0-1.34,0-2,.06s-1.09-.06-1.66-.06c-.25,0-.48,0-.74,0h-2.4c-.21,0-.41,0-.62,0s-.42,0-.64,0h-3.2c-.58,0-1.15,0-1.72.06s-1.27-.06-1.94-.06c-11.53,0-21.37,2.84-32.22,3.15-10.85-.31-20.7-3.15-32.22-3.15-.67,0-1.33,0-2,.06s-1.1-.06-1.66-.06c-.26,0-.52,0-.8,0h-2.4c-.22,0-.43,0-.64,0s-.41,0-.62,0h-3.2c-.57,0-1.1,0-1.66.06s-1.33-.06-2-.06c-11.52,0-21.33,2.84-32.16,3.15-10.85-.31-20.65-3.15-32.17-3.15-.67,0-1.35,0-2,.06s-1.09-.06-1.66-.06c-.29,0-.56,0-.85,0h-2.35c-.22,0-.41,0-.62,0s-.45,0-.68,0h-3.09c-.58,0-1.14,0-1.71.06s-1.28-.06-2-.06c-11.53,0-21.36,2.84-32.22,3.15-10.85-.31-20.7-3.15-32.22-3.15-.67,0-1.34,0-2,.06s-1.09-.06-1.66-.06c-.24,0-.48,0-.74,0-.42,0-.85,0-1.26,0h-1.2c-.21,0-.42,0-.64,0h-.56c-.42,0-.85,0-1.26,0h-2c-.58,0-1.15,0-1.72.06s-1.27-.06-1.94-.06Zm0,4.3c-10.62,0-19.79,2.36-29.65,3l-1.19,2.06H105c.34,0,.71-.05,1-.06h.28c.78,0,1.53.06,2.34.06,11.52,0,21.27-2.84,32.11-3.15,10.85.31,20.68,3.15,32.22,3.15.81,0,1.56,0,2.34-.06h.29l1,.06h3.2c.22,0,.43,0,.64,0s.46,0,.68,0h3.08c.34,0,.69-.05,1-.06h.28c.78,0,1.53.06,2.34.06,11.52,0,21.37-2.84,32.22-3.15,10.85.31,20.76,3.15,32.28,3.15.81,0,1.57,0,2.35-.06H255c.35,0,.68,0,1,.06h3.14c.21,0,.42,0,.64,0s.41,0,.62,0h3.2c.35,0,.7-.05,1-.06H265c.78,0,1.53.06,2.34.06,11.52,0,21.34-2.84,32.17-3.15,10.84.31,20.64,3.15,32.16,3.15.79,0,1.58,0,2.34-.06h.34l1,.06h3.2c.22,0,.43,0,.64,0s.45,0,.68,0H343c.32,0,.65-.05,1-.06h.34c.76,0,1.55.06,2.34.06,11.52,0,21.37-2.84,32.22-3.15,10.86.3,20.69,3.15,32.22,3.15.81,0,1.57,0,2.35-.06h.28c.35,0,.68,0,1,.06h3.15c.21,0,.41,0,.62,0s.41,0,.62,0h3.21c.35,0,.68-.05,1-.06h.28c.78,0,1.54.06,2.34.06,11.52,0,21.34-2.84,32.17-3.15,10.84.31,20.7,3.15,32.22,3.15.79,0,1.56,0,2.34-.06H493l1,.06h2.45L495.24,393c-9.44-.72-18.32-2.9-28.54-2.9-.67,0-1.35,0-2,.06s-1.09-.06-1.66-.06c-.29,0-.57,0-.86,0s-.79,0-1.19,0-.75,0-1.15,0c-.22,0-.42,0-.62,0s-.45,0-.68,0c-.4,0-.8,0-1.2,0s-.75,0-1.15,0h-.8c-.57,0-1.1,0-1.66.06s-1.33-.06-2-.06c-11.52,0-21.32,2.83-32.16,3.14-10.86-.31-20.69-3.14-32.22-3.14-.69,0-1.34,0-2,.06s-1.09-.06-1.66-.06c-.25,0-.48,0-.74,0s-.8,0-1.2,0-.8,0-1.2,0c-.21,0-.42,0-.64,0s-.41,0-.62,0c-.4,0-.8,0-1.2,0s-.79,0-1.2,0h-.8c-.58,0-1.15,0-1.72.06s-1.27-.06-1.94-.06c-11.53,0-21.37,2.83-32.22,3.14-10.85-.31-20.7-3.14-32.22-3.14-.67,0-1.34,0-2,.06s-1.09-.06-1.65-.06c-.26,0-.52,0-.8,0s-.8,0-1.2,0-.79,0-1.2,0c-.22,0-.43,0-.64,0s-.41,0-.62,0c-.4,0-.8,0-1.2,0s-.79,0-1.2,0h-.8c-.57,0-1.1,0-1.66.06s-1.33-.06-2-.06c-11.52,0-21.33,2.83-32.16,3.14-10.85-.31-20.65-3.14-32.17-3.14-.67,0-1.35,0-2,.06s-1.09-.06-1.66-.06c-.29,0-.57,0-.86,0s-.8,0-1.2,0-.74,0-1.14,0c-.22,0-.41,0-.62,0s-.46,0-.69,0c-.4,0-.8,0-1.2,0s-.74,0-1.14,0h-.74c-.42,0-3.79.19-5.67.46s-20.13,2.31-30.21,2.68c-10.85-.31-20.7-3.14-32.22-3.14-.67,0-1.34,0-2,.06s-1.09-.06-1.66-.06c-.24,0-.48,0-.74,0-.42,0-.85,0-1.26,0s-.79,0-1.2,0c-.21,0-.42,0-.64,0s-.37,0-.56,0c-.42,0-.85,0-1.26,0s-.79,0-1.2,0H138c-.58,0-1.15,0-1.72.06s-1.27-.06-1.94-.06Zm0,4.29c-11.52,0-21.34,2.83-32.17,3.14h0l-1.09,1.89h.12c.21,0,.41,0,.62,0,.4,0,.8,0,1.2,0s.74,0,1.14,0,.56,0,.86,0,.71-.05,1-.06h.28c.78,0,1.53.06,2.34.06,11.52,0,21.27-2.84,32.11-3.15,10.85.31,20.68,3.15,32.22,3.15.81,0,1.56,0,2.34-.06h.29l1,.06c.29,0,.57,0,.86,0s.74,0,1.14,0,.79,0,1.2,0c.22,0,.43,0,.64,0s.46,0,.68,0c.4,0,.74,0,1.14,0s.79,0,1.2,0h.74c.34,0,.69-.05,1-.06h.28c.78,0,1.53.06,2.34.06,11.52,0,21.37-2.84,32.22-3.15,10.85.31,20.76,3.15,32.28,3.15.81,0,1.57,0,2.35-.06H255c.35,0,.68,0,1,.06h.75c.4,0,.8,0,1.2,0s.78,0,1.19,0c.21,0,.42,0,.64,0s.41,0,.62,0c.4,0,.8,0,1.2,0s.8,0,1.2,0h.8c.35,0,.7-.05,1-.06H265c.78,0,1.53.06,2.34.06,11.52,0,21.34-2.84,32.17-3.15,10.84.31,20.64,3.15,32.16,3.15.79,0,1.58,0,2.34-.06h.34l1,.06c.29,0,.58,0,.86,0s.8,0,1.2,0,.74,0,1.14,0c.22,0,.43,0,.64,0s.45,0,.68,0c.4,0,.8,0,1.2,0s.74,0,1.14,0h.8c.32,0,.65-.05,1-.06h.34c.76,0,1.55.06,2.34.06,11.52,0,21.37-2.84,32.22-3.15,10.86.3,20.69,3.15,32.22,3.15.81,0,1.57,0,2.35-.06h.28c.35,0,.68,0,1,.06h.75c.4,0,.8,0,1.2,0s.79,0,1.2,0c.21,0,.41,0,.62,0s.41,0,.62,0c.4,0,.8,0,1.2,0s.79,0,1.2,0h.81c.35,0,.68-.05,1-.06h.28c.78,0,1.54.06,2.34.06,11.52,0,21.34-2.84,32.17-3.15,10.84.31,20.7,3.15,32.22,3.15.79,0,1.56,0,2.34-.06H493l1,.06h.8c.4,0,.8,0,1.2,0s.79,0,1.2,0c.22,0,.41,0,.62,0s.42,0,.64,0h.47l-1.12-1.93c-10.43-.45-20-3.1-31.13-3.1-.67,0-1.35,0-2,0s-1.09,0-1.66,0c-.29,0-.57,0-.86,0h-2.34c-.22,0-.42,0-.62,0s-.46,0-.69,0h-3.14c-.57,0-1.1,0-1.66,0s-1.33,0-2,0c-11.64,0-21.53,2.88-32.5,3.14-10.72-.36-20.47-3.14-31.88-3.14-.69,0-1.34,0-2,0s-1.09,0-1.66,0c-.25,0-.48,0-.74,0h-2.4c-.21,0-.42,0-.64,0s-.41,0-.62,0h-3.2c-.58,0-1.15,0-1.72,0s-1.27,0-1.94,0c-11.52,0-21.37,2.83-32.22,3.14-10.85-.31-20.71-3.14-32.23-3.14-.67,0-1.33,0-2,0s-1.1,0-1.66,0c-.26,0-.52,0-.8,0h-2.4c-.22,0-.41,0-.62,0s-.41,0-.62,0h-3.21c-.57,0-1.09,0-1.65,0s-1.33,0-2,0c-11.52,0-21.34,2.83-32.17,3.14-10.85-.31-20.64-3.14-32.16-3.14-.67,0-1.35,0-2,0s-1.09,0-1.66,0c-.29,0-.57,0-.86,0h-2.34c-.22,0-.43,0-.64,0s-.45,0-.68,0h-3.08c-.58,0-1.15,0-1.72,0s-1.27,0-1.94,0c-11.41,0-21.16,2.78-31.88,3.14-11-.26-20.93-3.14-32.57-3.14-.67,0-1.34,0-2,0s-1.09,0-1.66,0c-.24,0-.48,0-.74,0-.42,0-.85,0-1.26,0h-1.2c-.21,0-.41,0-.62,0h-.58c-.42,0-.85,0-1.26,0h-2c-.58,0-1.15,0-1.72,0s-1.26,0-1.93,0Zm0,4.29c-11.52,0-21.34,2.84-32.17,3.15-.83,0-1.64-.07-2.46-.13l-1.16,2h1.92c.22,0,.46,0,.68,0s.41,0,.62,0H105c.34,0,.71-.05,1-.06h.28c.78,0,1.53.06,2.34.06,11.52,0,21.27-2.84,32.11-3.15,10.85.31,20.68,3.15,32.22,3.15.81,0,1.56,0,2.34-.06h.29l1,.06h3.2c.22,0,.43,0,.64,0s.46,0,.68,0h3.08c.34,0,.69-.05,1-.06h.28c.78,0,1.53.06,2.34.06,11.52,0,21.37-2.84,32.22-3.15,10.85.31,20.76,3.15,32.28,3.15.81,0,1.57,0,2.35-.06H255c.35,0,.68,0,1,.06h3.14c.21,0,.42,0,.64,0s.41,0,.62,0h3.2c.35,0,.7-.05,1-.06H265c.78,0,1.53.06,2.34.06,11.52,0,21.34-2.84,32.17-3.15,10.84.31,20.64,3.15,32.16,3.15.79,0,1.58,0,2.34-.06h.34l1,.06h3.2c.22,0,.43,0,.64,0s.45,0,.68,0H343c.32,0,.65-.05,1-.06h.34c.76,0,1.55.06,2.34.06,11.52,0,21.37-2.84,32.22-3.15,10.86.3,20.69,3.15,32.22,3.15.81,0,1.57,0,2.35-.06h.28c.35,0,.68,0,1,.06h3.15c.21,0,.41,0,.62,0s.41,0,.62,0h3.21c.35,0,.68-.05,1-.06h.28c.78,0,1.54.06,2.34.06,11.52,0,21.34-2.84,32.17-3.15,10.84.31,20.7,3.15,32.22,3.15.79,0,1.56,0,2.34-.06H493l1,.06h3.2c.22,0,.41,0,.62,0s.42,0,.64,0h3l-1.14-2c-.47,0-.94.06-1.41.07-10.85-.31-20.65-3.14-32.17-3.14-.67,0-1.35,0-2,.06s-1.09-.06-1.66-.06c-.29,0-.57,0-.86,0s-.79,0-1.19,0-.75,0-1.15,0c-.22,0-.42,0-.62,0s-.45,0-.68,0c-.4,0-.8,0-1.2,0s-.75,0-1.15,0h-.8c-.57,0-1.1,0-1.66.06s-1.33-.06-2-.06c-11.52,0-21.32,2.83-32.16,3.14-10.86-.31-20.68-3.14-32.22-3.14-.69,0-1.34,0-2,.06s-1.09-.06-1.66-.06c-.25,0-.48,0-.74,0s-.8,0-1.2,0-.8,0-1.2,0c-.21,0-.42,0-.64,0s-.41,0-.62,0c-.4,0-.8,0-1.2,0s-.79,0-1.2,0h-.8c-.58,0-1.15,0-1.72.06s-1.27-.06-1.94-.06c-11.53,0-21.37,2.83-32.22,3.14-10.85-.31-20.7-3.14-32.22-3.14-.67,0-1.34,0-2,.06s-1.09-.06-1.65-.06c-.26,0-.52,0-.8,0s-.8,0-1.2,0-.79,0-1.2,0c-.22,0-.43,0-.64,0s-.41,0-.62,0c-.4,0-.8,0-1.2,0s-.79,0-1.2,0h-.8c-.57,0-1.1,0-1.66.06s-1.33-.06-2-.06c-11.52,0-21.33,2.83-32.16,3.14-10.85-.31-20.65-3.14-32.17-3.14-.67,0-1.35,0-2,.06s-1.09-.06-1.66-.06c-.29,0-.57,0-.86,0s-.8,0-1.2,0-.74,0-1.14,0c-.22,0-.41,0-.62,0s-.46,0-.69,0c-.4,0-.8,0-1.2,0s-.74,0-1.14,0h-.74c-.58,0-1.15,0-1.72.06s-1.27-.06-1.94-.06c-11.53,0-21.36,2.83-32.22,3.14-10.85-.31-20.7-3.14-32.22-3.14-.67,0-1.34,0-2,.06s-1.09-.06-1.66-.06c-.24,0-.48,0-.74,0-.42,0-.85,0-1.26,0s-.79,0-1.2,0c-.21,0-.42,0-.64,0s-.36,0-.56,0c-.42,0-.85,0-1.26,0s-.79,0-1.2,0H138c-.58,0-1.15,0-1.72.06s-1.27-.06-1.94-.06Zm0,4.29c-11.52,0-21.34,2.84-32.17,3.15-1.64,0-3.23-.15-4.83-.29l-1.22,2.12h.24c.35,0,.68,0,1,.06h.74c.4,0,.8,0,1.2,0s.75,0,1.15,0c.22,0,.46,0,.68,0s.41,0,.62,0c.4,0,.8,0,1.2,0s.74,0,1.14,0,.56,0,.86,0,.71-.05,1-.06h.28c.78,0,1.53.06,2.34.06,11.52,0,21.27-2.83,32.11-3.14,10.85.31,20.68,3.14,32.22,3.14.81,0,1.56,0,2.34-.06h.29l1,.06c.3,0,.57,0,.86,0s.74,0,1.14,0,.79,0,1.2,0c.22,0,.43,0,.64,0s.46,0,.68,0c.4,0,.74,0,1.14,0s.79,0,1.2,0h.74c.34,0,.69-.05,1-.06h.28c.78,0,1.54.06,2.34.06,11.52,0,21.37-2.83,32.22-3.14,10.85.31,20.76,3.14,32.28,3.14.81,0,1.57,0,2.35-.06H255c.35,0,.68,0,1,.06h.75c.4,0,.8,0,1.2,0s.78,0,1.19,0c.21,0,.42,0,.64,0s.41,0,.62,0c.4,0,.8,0,1.2,0s.8,0,1.2,0h.8c.35,0,.7-.05,1-.06H265c.78,0,1.53.06,2.34.06,11.52,0,21.34-2.83,32.17-3.14,10.84.31,20.64,3.14,32.16,3.14.79,0,1.58,0,2.34-.06h.34l1,.06c.29,0,.58,0,.86,0s.8,0,1.2,0,.74,0,1.14,0c.22,0,.43,0,.64,0s.45,0,.68,0c.4,0,.8,0,1.2,0s.74,0,1.14,0h.8c.32,0,.65-.05,1-.06h.34c.76,0,1.55.06,2.34.06,11.52,0,21.37-2.83,32.22-3.14,10.86.3,20.69,3.14,32.22,3.14.81,0,1.57,0,2.35-.06h.28c.35,0,.68,0,1,.06h.75c.4,0,.8,0,1.2,0s.79,0,1.2,0c.21,0,.41,0,.62,0s.41,0,.62,0c.4,0,.8,0,1.2,0s.79,0,1.2,0h.81c.35,0,.68-.05,1-.06h.28c.78,0,1.54.06,2.34.06,11.52,0,21.34-2.83,32.17-3.14,10.84.31,20.7,3.14,32.22,3.14.79,0,1.56,0,2.34-.06H493l1,.06h.8c.4,0,.8,0,1.2,0s.79,0,1.2,0c.22,0,.41,0,.62,0s.42,0,.64,0c.4,0,.81,0,1.2,0s.79,0,1.2,0h.74c.34,0,.67-.05,1-.06h.29l1,0-1.21-2.1c-1.25.1-2.53.21-3.8.25C488,405.8,478.23,403,466.7,403c-.67,0-1.35,0-2,.06S463.61,403,463,403c-.29,0-.57,0-.86,0s-.79,0-1.19,0-.75,0-1.15,0c-.22,0-.42,0-.62,0s-.45,0-.68,0c-.4,0-.8,0-1.2,0s-.75,0-1.15,0h-.8c-.57,0-1.1,0-1.66.06s-1.33-.06-2-.06c-11.52,0-21.32,2.84-32.16,3.15-10.86-.31-20.69-3.15-32.22-3.15-.69,0-1.34,0-2,.06s-1.09-.06-1.66-.06c-.25,0-.48,0-.74,0s-.8,0-1.2,0-.8,0-1.2,0c-.21,0-.42,0-.64,0s-.41,0-.62,0c-.4,0-.8,0-1.2,0s-.79,0-1.2,0h-.8c-.58,0-1.15,0-1.72.06s-1.27-.06-1.94-.06c-11.52,0-21.37,2.84-32.22,3.15C329.37,405.8,319.52,403,308,403c-.67,0-1.34,0-2,.06s-1.09-.06-1.65-.06c-.26,0-.52,0-.8,0s-.8,0-1.2,0-.79,0-1.2,0c-.22,0-.43,0-.64,0s-.41,0-.62,0c-.4,0-.8,0-1.2,0s-.79,0-1.2,0h-.8c-.57,0-1.1,0-1.66.06s-1.33-.06-2-.06c-11.52,0-21.33,2.84-32.16,3.15C250,405.8,240.22,403,228.7,403c-.67,0-1.35,0-2,.06S225.6,403,225,403c-.29,0-.57,0-.86,0s-.8,0-1.2,0-.74,0-1.14,0c-.22,0-.41,0-.62,0s-.45,0-.68,0c-.4,0-.81,0-1.21,0s-.74,0-1.14,0h-.74c-.58,0-1.15,0-1.72.06s-1.27-.06-1.94-.06c-11.53,0-21.36,2.85-32.22,3.15-10.85-.31-20.7-3.15-32.22-3.15-.67,0-1.34,0-2,.06s-1.09-.06-1.66-.06c-.24,0-.48,0-.74,0-.42,0-.85,0-1.26,0s-.79,0-1.2,0c-.21,0-.42,0-.64,0s-.36,0-.56,0c-.42,0-.85,0-1.26,0s-.79,0-1.2,0H138c-.58,0-1.15,0-1.72.06S135,403,134.37,403Zm0,4.29c-11.52,0-21.34,2.84-32.17,3.15-2.44-.07-4.79-.31-7.15-.58l-1.42,2.46h.12c.81,0,1.57,0,2.35,0h.28l1,0h.74c.4,0,.8,0,1.2,0s.75,0,1.15,0c.22,0,.46,0,.68,0s.41,0,.62,0c.4,0,.8,0,1.2,0s.74,0,1.14,0,.56,0,.86,0l1,0h.28c.78,0,1.53,0,2.34,0,11.52,0,21.27-2.83,32.11-3.14,10.85.31,20.68,3.14,32.22,3.14.81,0,1.56,0,2.34,0h.29l1,0c.3,0,.57,0,.86,0s.74,0,1.14,0,.79,0,1.2,0c.22,0,.43,0,.64,0s.46,0,.68,0c.4,0,.74,0,1.14,0s.79,0,1.2,0h.74l1,0h.28c.78,0,1.54,0,2.34,0,11.52,0,21.37-2.83,32.22-3.14,10.85.31,20.76,3.14,32.28,3.14.81,0,1.57,0,2.35,0H255l1,0h.75c.4,0,.8,0,1.2,0s.78,0,1.19,0c.21,0,.42,0,.64,0s.41,0,.62,0c.4,0,.8,0,1.2,0s.8,0,1.2,0h.8l1,0H265c.78,0,1.53,0,2.34,0,11.52,0,21.34-2.83,32.17-3.14,10.84.31,20.64,3.14,32.16,3.14.79,0,1.58,0,2.34,0h.34l1,0c.29,0,.58,0,.86,0s.8,0,1.2,0,.74,0,1.14,0c.22,0,.43,0,.64,0s.45,0,.68,0c.4,0,.8,0,1.2,0s.74,0,1.14,0h.8l1,0h.34c.76,0,1.55,0,2.34,0,11.52,0,21.37-2.83,32.22-3.14,10.86.31,20.69,3.14,32.22,3.14.81,0,1.57,0,2.35,0h.28l1,0h.75c.4,0,.8,0,1.2,0s.79,0,1.2,0c.21,0,.41,0,.62,0s.41,0,.62,0c.4,0,.8,0,1.2,0s.79,0,1.2,0h.81l1,0h.28c.78,0,1.54,0,2.34,0,11.52,0,21.34-2.83,32.17-3.14,10.84.31,20.7,3.14,32.22,3.14.79,0,1.56,0,2.34,0H493l1,0h.8c.4,0,.8,0,1.2,0s.79,0,1.2,0c.22,0,.41,0,.62,0s.42,0,.64,0c.4,0,.81,0,1.2,0s.79,0,1.2,0h.74c.34,0,.67,0,1,0h.29c.78,0,1.54,0,2.34,0,.36,0,.72,0,1.08,0L505,409.93c-2,.21-4.07.41-6.15.47-10.85-.31-20.65-3.15-32.17-3.15-.67,0-1.35,0-2,.06s-1.09-.06-1.66-.06c-.29,0-.57,0-.86,0s-.79,0-1.19,0-.75,0-1.15,0c-.22,0-.42,0-.62,0s-.45,0-.68,0c-.4,0-.8,0-1.2,0s-.75,0-1.15,0h-.8c-.57,0-1.1,0-1.66.06s-1.33-.06-2-.06c-11.52,0-21.32,2.84-32.16,3.15-10.86-.31-20.69-3.15-32.22-3.15-.69,0-1.34,0-2,.06s-1.09-.06-1.66-.06c-.25,0-.48,0-.74,0s-.8,0-1.2,0-.8,0-1.2,0c-.21,0-.42,0-.64,0s-.41,0-.62,0c-.4,0-.8,0-1.2,0s-.79,0-1.2,0h-.8c-.58,0-1.15,0-1.72.06s-1.27-.06-1.94-.06c-11.52,0-21.37,2.84-32.22,3.15-10.85-.31-20.7-3.15-32.22-3.15-.67,0-1.34,0-2,.06s-1.09-.06-1.65-.06c-.26,0-.52,0-.8,0s-.8,0-1.2,0-.79,0-1.2,0c-.22,0-.43,0-.64,0s-.41,0-.62,0c-.4,0-.8,0-1.2,0s-.79,0-1.2,0h-.8c-.57,0-1.1,0-1.66.06s-1.33-.06-2-.06c-11.52,0-21.33,2.84-32.16,3.15-10.85-.31-20.65-3.15-32.17-3.15-.67,0-1.35,0-2,.06s-1.09-.06-1.66-.06c-.29,0-.57,0-.86,0s-.8,0-1.2,0-.74,0-1.14,0c-.22,0-.41,0-.62,0s-.45,0-.68,0c-.4,0-.81,0-1.21,0s-.74,0-1.14,0h-.74c-.58,0-1.15,0-1.72.06s-1.27-.06-1.94-.06c-11.53,0-21.36,2.84-32.22,3.15-10.85-.31-20.7-3.15-32.22-3.15-.67,0-1.34,0-2,.06s-1.09-.06-1.66-.06c-.24,0-.48,0-.74,0-.42,0-.85,0-1.26,0s-.79,0-1.2,0c-.21,0-.42,0-.64,0s-.36,0-.56,0c-.42,0-.85,0-1.26,0s-.79,0-1.2,0H138c-.58,0-1.15,0-1.72.06s-1.27-.06-1.94-.06Zm0,4.29c-11.52,0-21.34,2.84-32.17,3.15a93.44,93.44,0,0,1-9.47-.86l-1.56,2.7c.85,0,1.69,0,2.58,0s1.57,0,2.35-.06h.28c.35,0,.68,0,1,.06h3.09c.22,0,.46,0,.68,0s.41,0,.62,0H105c.34,0,.71-.05,1-.06h.28c.78,0,1.53.06,2.34.06,11.52,0,21.27-2.84,32.11-3.15,10.85.31,20.68,3.15,32.22,3.15.81,0,1.56,0,2.34-.06h.29l1,.06h3.2c.22,0,.43,0,.64,0s.46,0,.68,0h3.08c.34,0,.69-.05,1-.06h.28c.78,0,1.54.06,2.34.06,11.52,0,21.37-2.84,32.22-3.15,10.85.31,20.77,3.15,32.29,3.15.81,0,1.56,0,2.34-.06H255c.35,0,.68,0,1,.06h3.15c.21,0,.41,0,.62,0s.42,0,.64,0h3.2c.35,0,.68-.05,1-.06H265c.78,0,1.53.06,2.34.06,11.52,0,21.34-2.84,32.17-3.15,10.84.31,20.64,3.15,32.16,3.15.79,0,1.58,0,2.34-.06h.35l1,.06h3.2c.22,0,.43,0,.64,0s.45,0,.68,0H343c.32,0,.65-.05,1-.06h.34c.76,0,1.55.06,2.34.06,11.52,0,21.37-2.84,32.22-3.15,10.86.3,20.7,3.15,32.23,3.15.81,0,1.56,0,2.34-.06h.28c.35,0,.68,0,1,.06h3.15c.21,0,.41,0,.62,0s.41,0,.62,0h3.21c.35,0,.68-.05,1-.06h.28c.78,0,1.54.06,2.34.06,11.52,0,21.34-2.84,32.17-3.15,10.84.31,20.7,3.15,32.22,3.15.79,0,1.56,0,2.34-.06H493l1,.06h3.2c.22,0,.41,0,.62,0s.42,0,.64,0h3.14c.34,0,.67-.05,1-.06h.29c.78,0,1.54.06,2.34.06,1.19,0,2.37,0,3.53-.09L507.38,414c-2.79.34-5.62.6-8.5.68-10.85-.31-20.65-3.15-32.17-3.15-.67,0-1.35,0-2,.06s-1.09-.06-1.66-.06c-.29,0-.56,0-.85,0s-.8,0-1.2,0-.75,0-1.15,0c-.22,0-.42,0-.62,0s-.45,0-.68,0c-.4,0-.8,0-1.2,0s-.75,0-1.15,0h-.8c-.57,0-1.09,0-1.65.06s-1.34-.06-2-.06c-11.52,0-21.32,2.84-32.16,3.15-10.86-.31-20.68-3.15-32.22-3.15-.69,0-1.34,0-2,.06s-1.09-.06-1.66-.06c-.25,0-.48,0-.74,0s-.8,0-1.2,0-.8,0-1.2,0c-.21,0-.42,0-.64,0s-.41,0-.62,0c-.4,0-.8,0-1.2,0s-.79,0-1.2,0h-.8c-.58,0-1.15,0-1.72.06s-1.27-.06-1.94-.06c-11.53,0-21.37,2.84-32.22,3.15-10.85-.31-20.7-3.15-32.22-3.15-.67,0-1.33,0-2,.06s-1.1-.06-1.66-.06c-.26,0-.52,0-.8,0s-.8,0-1.2,0-.79,0-1.2,0c-.22,0-.43,0-.64,0s-.41,0-.62,0c-.4,0-.8,0-1.2,0s-.79,0-1.2,0h-.8c-.57,0-1.1,0-1.66.06s-1.33-.06-2-.06c-11.52,0-21.33,2.84-32.16,3.15-10.85-.31-20.65-3.15-32.17-3.15-.67,0-1.35,0-2,.06s-1.09-.06-1.66-.06c-.29,0-.57,0-.86,0s-.8,0-1.2,0-.74,0-1.14,0c-.22,0-.41,0-.62,0s-.45,0-.68,0c-.4,0-.82,0-1.21,0s-.74,0-1.14,0h-.74c-.58,0-1.15,0-1.72.06s-1.27-.06-1.94-.06c-11.53,0-21.36,2.85-32.22,3.15-10.85-.31-20.7-3.15-32.22-3.15-.67,0-1.34,0-2,.06s-1.09-.06-1.66-.06c-.24,0-.48,0-.74,0-.42,0-.85,0-1.26,0s-.79,0-1.2,0c-.21,0-.42,0-.64,0s-.36,0-.56,0c-.42,0-.85,0-1.26,0s-.79,0-1.2,0H138c-.58,0-1.15,0-1.72.06s-1.27-.06-1.94-.06Zm0,4.29c-11.52,0-21.34,2.84-32.17,3.15a106.52,106.52,0,0,1-11.78-1.15l-1.63,2.83c1.62.11,3.25.21,5,.21.81,0,1.57,0,2.35-.06h.28c.35,0,.68,0,1,.06h.75c.4,0,.8,0,1.2,0s.74,0,1.14,0c.22,0,.46,0,.68,0s.41,0,.62,0c.4,0,.8,0,1.2,0s.75,0,1.15,0,.55,0,.85,0l1-.06h.28c.78,0,1.53.06,2.34.06,11.52,0,21.27-2.84,32.11-3.15,10.85.31,20.68,3.15,32.22,3.15.81,0,1.56,0,2.34-.06h.29l1,.06c.3,0,.57,0,.86,0s.74,0,1.14,0,.79,0,1.2,0c.22,0,.43,0,.64,0s.46,0,.68,0c.4,0,.74,0,1.14,0s.79,0,1.2,0h.74c.34,0,.69-.05,1-.06h.28c.78,0,1.54.06,2.34.06,11.52,0,21.37-2.84,32.22-3.15,10.85.31,20.77,3.15,32.29,3.15.81,0,1.56,0,2.34-.06H255c.35,0,.68,0,1,.06h.75c.4,0,.8,0,1.2,0s.8,0,1.2,0c.21,0,.41,0,.62,0s.42,0,.64,0c.4,0,.8,0,1.2,0s.8,0,1.2,0h.8c.35,0,.68-.05,1-.06H265c.78,0,1.53.06,2.34.06,11.52,0,21.34-2.84,32.17-3.15,10.84.31,20.64,3.15,32.16,3.15.79,0,1.58,0,2.34-.06h.35l1,.06c.29,0,.58,0,.86,0s.8,0,1.2,0,.74,0,1.14,0c.22,0,.43,0,.64,0s.45,0,.68,0c.4,0,.8,0,1.2,0s.74,0,1.14,0h.8c.32,0,.65-.05,1-.06h.34c.76,0,1.55.06,2.34.06,11.52,0,21.37-2.84,32.22-3.15,10.86.31,20.7,3.15,32.23,3.15.81,0,1.56,0,2.34-.06h.28c.35,0,.68,0,1,.06h.75c.4,0,.8,0,1.2,0s.79,0,1.2,0c.21,0,.41,0,.62,0s.41,0,.62,0c.4,0,.82,0,1.21,0s.79,0,1.2,0h.8c.35,0,.68-.05,1-.06h.28c.78,0,1.54.06,2.34.06,11.52,0,21.34-2.84,32.17-3.15,10.84.31,20.7,3.15,32.22,3.15.79,0,1.56,0,2.34-.06H493l1,.06h.8c.4,0,.8,0,1.2,0s.79,0,1.2,0c.22,0,.41,0,.62,0s.42,0,.64,0c.4,0,.81,0,1.2,0s.79,0,1.2,0h.74c.34,0,.67-.05,1-.06h.29c.78,0,1.54.06,2.34.06,2,0,4-.11,5.93-.26L509.66,418a100.88,100.88,0,0,1-10.78,1c-10.85-.31-20.65-3.15-32.17-3.15-.67,0-1.35,0-2,.06s-1.09-.06-1.66-.06c-.29,0-.56,0-.85,0h-2.35c-.22,0-.42,0-.62,0s-.45,0-.68,0h-3.15c-.57,0-1.09,0-1.65.06s-1.34-.06-2-.06c-11.52,0-21.32,2.84-32.16,3.15-10.86-.31-20.69-3.15-32.22-3.15-.69,0-1.34,0-2,.06s-1.09-.06-1.66-.06c-.25,0-.48,0-.74,0h-2.4c-.21,0-.42,0-.64,0s-.41,0-.62,0h-3.2c-.58,0-1.15,0-1.72.06s-1.27-.06-1.94-.06c-11.52,0-21.37,2.84-32.22,3.15-10.85-.31-20.7-3.15-32.22-3.15-.67,0-1.33,0-2,.06s-1.1-.06-1.66-.06c-.26,0-.52,0-.8,0h-2.4c-.22,0-.43,0-.64,0s-.41,0-.62,0h-3.2c-.57,0-1.1,0-1.66.06s-1.33-.06-2-.06c-11.52,0-21.33,2.84-32.16,3.15-10.85-.31-20.65-3.15-32.17-3.15-.67,0-1.35,0-2,.06s-1.09-.06-1.66-.06c-.29,0-.57,0-.86,0h-2.34c-.22,0-.41,0-.62,0s-.45,0-.68,0h-3.09c-.58,0-1.14,0-1.71.06s-1.28-.06-2-.06c-11.53,0-21.36,2.85-32.22,3.15-10.85-.31-20.7-3.15-32.22-3.15-.67,0-1.34,0-2,.06s-1.09-.06-1.66-.06c-.24,0-.48,0-.74,0-.42,0-.85,0-1.26,0h-1.2c-.21,0-.42,0-.64,0h-.56c-.42,0-.85,0-1.26,0h-2c-.58,0-1.15,0-1.72.06S135,415.83,134.37,415.83Z" style="fill:url(#h)"/><path d="M249.15,291.55a12.53,12.53,0,0,0-1.35.11c-.08,10.06,0,27,0,36,.1,7.8,2.77,14.08,6.71,21.47a15.07,15.07,0,0,0,.68,1.63c1.37,3.62,2.38,4.88,7.61,8.85,16.62,12.62,37.23,14.51,49.36,13.47-3.8-3-7.86-5.72-11.44-8.23a86.53,86.53,0,0,0,15-1.69c-12.14-3.56-23.2-10.9-32.57-20.4-1.63-1.66-3.15-3.41-4.68-5.18-.69-1-1.67-2.32-2-2.7a116.56,116.56,0,0,1-10.48-15c-1.18-2.09-2.29-4.16-3.32-6.31-1.56-3.22-2.94-6.5-4.17-9.8-.41-1.1-.81-2.22-1.18-3.32-.74-2.21-1.39-4.43-2-6.65,0,0-.05,0-.06-.06s-.19-.41-1.07-1a7.35,7.35,0,0,0-1.92-.79h-.06a12,12,0,0,0-3.15-.39Z" style="fill:#ede71f"/><path d="M251.49,296.34c1.37,20.11,7.59,44,22.15,59.37,5.36,4.46,12.2,8.5,18.82,7.52-22.57-18.37-36.28-46.49-41-66.88Z" style="fill:#ccd11e"/><path d="M265.38,324.16c7.9,19.46,27.9,37.63,48.48,49.85a71,71,0,0,0,8.45-.2C307.58,365.9,283.85,354.62,265.38,324.16Z" style="fill:#9ecb34"/><path d="M460,377c-.66,0-1.33,0-2,0-10.8.31-18.55,3.72-37.34,3.72s-20.73-3.4-41.95-2.93c-19.82.44-28.14,4.2-38.9,4.06s-28.24-2.33-41.7-.92-29.43,4.28-39.91,4.3c-13-.06-26.07-2.44-39.69-1.08s-20,5-36.88,5c-14.52,0-30.28-2.33-42.49-2.32-11.45,0-24.22,3.19-33.62,4.81l-2.81,4.88c7.49-.87,28.5-4.06,36-4.26,7.81-.2,35.72,1.61,51.12,1.08s17.2-3.9,35.4-3.9c12.67,0,22.22,1.33,35.22,1.33,8.11,0,15.48-4.14,27.81-4.14a5.29,5.29,0,0,1,2,0c.56,0,1.09-.1,1.66-.12l.8,0,1.2,0,1.2,0,.64,0,.62,0,1.2,0c10.4-1.72,27.94.15,40.16.78,11.05.58,18.19-2.05,29.72-2.43.67,0,1.3,0,1.94,0s1.14-.1,1.72-.12l.8,0,1.2,0,1.2,0,.63,0c.21,0,.41,0,.62,0l1.2,0,1.2,0,.74,0c.57,0,1.1,0,1.66,0s1.31-.11,2-.13c11.54-.38,21.41,2.14,32.27,2.08,10.83-.67,21.34-3.07,32.87-3.46.67,0,1.35,0,2,0s1.09-.1,1.66-.12l.8,0,1.14,0,1.2,0,.68,0,.64,0,1.14,0,1.2,0,.86,0c.57,0,1.09,0,1.65,0s1.34-.09,2-.12A156.54,156.54,0,0,1,490,384l-2.8-4.83C479.32,378.9,469.54,377,460,377Z" style="fill:url(#i)"/><path d="M452.95,368.41c-10.83.67-19.08,2.39-30.61,2.78-.8,0-1.56,0-2.34,0h-.28c-.34,0-.68.07-1,.09l-.8,0-1.2,0-1.21,0-.62,0-.62,0-1.2,0-1.2,0-.75,0c-.34,0-.67,0-1,0h-.28c-.78.05-1.53.11-2.34.14-11.53.38-22.92-1.44-33.78-1.39-10.85.67-20.65,3.89-32.17,4.27-.79,0-1.58,0-2.34,0h-.34c-.33,0-.65.07-1,.09l-.8,0-1.14,0-1.2,0-.68,0c-.21,0-.42,0-.64,0l-1.14,0-1.2,0-.86,0-1,0h-.35c-.76,0-1.55.11-2.34.14-11.52.38-21.35-1.44-32.2-1.39-10.83.67-20.6,1.63-32.13,2-.81,0-1.56,0-2.34,0h-.28l-1,.08-.8,0-1.2,0-1.2,0-.63,0-.62,0-1.2,0-1.2,0-.75,0c-.34,0-.67,0-1,0h-.28c-.78.05-1.53.1-2.34.13-11.52.38-21.48-.69-32.34-.64-10.84.67-20.64,3.15-32.16,3.53-.81,0-1.56,0-2.34,0h-.28l-1,.08-.74,0-1.2,0-1.14,0-.68,0-.63,0-1.2,0-1.14,0-.86,0c-.34,0-.69,0-1,0h-.29c-.78.05-1.53.1-2.34.13-11.53.38-21.42-1.44-32.27-1.39-10.59.65-12.18,2.07-22.79,4.16l-8.09,14c9.46-1.57,23.67-5.68,35.45-5.69,12.21,0,26.94,3,41.46,3.05,16.89,0,23.25-3.6,36.88-5s26.66,1.76,39.69,1.82c10.48,0,26.46-3.63,39.91-5s25.79,1,42,1.23,18.77-3.93,38.59-4.37c21.22-.47,23.16,2.93,41.95,2.93,14.14.76,26.28-2.85,38.89-3.74s18.46.14,27.68.36l-6.13-10.84h-.31c-11.52.38-17-2.73-27.85-2.68Z" style="fill:#97c924"/><path d="M466.89,382.16s9,.49,12.82.92,9.85.85,9.85.85l-1.23-1.62C486.42,383,473.59,381.68,466.89,382.16Z" style="fill:#fff"/><path d="M300,49.58,192.86,235.2,83.33,424.86l214.33,0,219,0L409.49,239.25,300,49.58Zm0,10L405.16,241.76,508,419.85H92L197.19,237.7,300,59.59Z" style="fill:#c8a400"/><path d="M304.92,296.34c1.37,20.11,7.4,40,22,55.42,5.36,4.46,12.2,8.5,18.82,7.52C321.25,342.6,309.6,316.74,304.92,296.34Z" style="fill:#c6cb24"/><path d="M300,224.92h-.45L300,235.3l.45-10.37Zm-3.3.23-.87.12,1.88,10.17Zm6.6,0-1,10.28,1.88-10.17Zm-10.26.71-.86.25,3.33,9.91Zm13.93,0L304.5,236l3.33-9.91Zm-17.47,1.24-.8.36,4.61,9.22Zm21,0-3.82,9.61,4.63-9.24Zm-24.34,1.71-.74.47,5.88,8.51Zm27.67,0-5.1,8.93,5.84-8.46ZM283.11,231l-.67.56,7,7.57L283.11,231Zm33.77,0-6.35,8.17,7-7.6Zm-36.48,2.56-.59.66,8,6.5Zm39.2,0-7.33,7.13,7.91-6.47Zm-41.54,2.92c-.16.24-.32.48-.47.73l8.76,5.32Zm43.87,0-8.32,6.08,8.8-5.35Zm-45.77,3.2c-.13.26-.26.52-.38.78l9.41,4.05Zm47.67,0-9.11,4.87,9.49-4.07q-.18-.4-.38-.79Zm-49.11,3.44c-.09.28-.18.55-.26.83l9.86,2.68Zm50.53,0-9.59,3.51,9.85-2.68C325.44,243.67,325.36,243.39,325.26,243.11Zm-51.46,3.61c-.05.28-.1.56-.15.84l10.05,1.28Zm52.4,0-9.9,2.12,10-1.28C326.3,247.28,326.25,247,326.2,246.72Zm-52.83,3.69c0,.29,0,.58,0,.87l10.24-.15-10.21-.73Zm53.26,0-10.2.73,10.23.15c0-.29,0-.58,0-.87Zm-43,3-10.18.7c0,.29.06.58.1.86Zm32.7,0L326.43,255c0-.29.07-.57.1-.86Zm-32.3,2.25-10,2.1c.07.28.13.56.2.84Zm31.91,0,9.75,2.94c.08-.28.14-.56.2-.84Zm-31.24,2.2-9.51,3.44c.1.27.21.53.32.79Zm30.61,0,9.14,4.22c.11-.26.22-.53.33-.79Zm-1.09,2,8.53,5.49.44-.74Zm-28.5,0-8.93,4.73c.14.25.28.49.43.74Zm1.28,1.92-8.17,5.91c.17.23.35.45.53.67Zm26,0,7.63,6.57c.18-.22.37-.43.54-.66Zm-24.41,1.67-7.3,7,.62.59Zm22.83,0,6.68,7.59.62-.59ZM290.37,265l-6.28,8c.23.17.46.35.7.51Zm19.3,0,5.55,8.44.7-.5Zm-17.34,1.11L287.19,275l.76.41Zm15.35,0,4.37,9.2.75-.4-5.13-8.8Zm-13.31,1-3.83,9.35.81.28,3-9.63Zm11.26,0,3,9.63.81-.28-3.83-9.35Zm-9,.6-2.51,9.81.83.16Zm6.81,0,1.67,10,.83-.16Zm-4.55.29-1.13,10.07.86.07Zm2.28,0,.27,10.14.86-.07-1.13-10.07Z" style="fill:#fff"/><rect x="118.33" y="161.09" width="17.12" height="25.94" style="fill:red;fill-opacity:0"/><path d="M301.32,260.45c-2.15-.41-4.09-1.61-5.92-2a7.33,7.33,0,0,0-2.44,6.93c.88.47,1,1.18,2.93,2.87s1.65,2.58,1.54,6.55c0,1.67.23,5.27,1.93,5.61s3.11-1.15,3.63-3.87a16.11,16.11,0,0,1,2.33-5.67c1-6.17-.64-8.36-4-10.38Z" style="fill:#510000"/><path d="M290.56,245.08c-2,0-5.09,3.37-6.48,1.58A4.76,4.76,0,0,1,284,242a16.07,16.07,0,0,1,7.22-7.77c7.93-4.67,13-3.17,16.91,3.54,3.66,5.91,7.17,12.43,7.49,17.91.1,1.67.94,4.69-.52,6.2-4.49,4.63-15.32-4.78-21.66-3.29-2.13.5-4.59,2.06-6.6.73-1.56-1-.26-3.32.91-4.31,2-1.73,5-7.88,4.6-10.55-.23-1.49-.27.59-1.75.63Z" style="fill:red"/><path d="M289.76,241.83c-3.61,1.48-3.22,3.59-5,5.3a3.92,3.92,0,0,0,4.54-1,9.55,9.55,0,0,1,2.26-1.21,27.09,27.09,0,0,0-2.28,2.28,17.3,17.3,0,0,0-4.47,6.15c-1,2.55-1.43,5.58-1.25,5.94s1.42,2.6,5.22,4.11c6.77,2.69,8.06,8.13,14.93,8.13,5.38,0,4.51-3.52,8.82-2.77,3.73.65,5.71-2.32,2.12-4.11-4.57-1.56-13.64-.64-17.91.11-1.38-13.61-.18-8.83-.51-14.68s-2.08-6.2.24-10.94c-1.93,2.91-4.26,2.45-6.68,2.69Z" style="fill:url(#j)"/><path d="M303.13,232.65a8.12,8.12,0,0,0-.18,2c.29,1.13.58,2.31.92,3.31a26.79,26.79,0,0,1,.8,3.09c.27,1.2,1.34,1.67,2.31,2.41,1.23.93.28,3.46,1,3.56.61.08,1.63-3.57,1.63-4.16a12.73,12.73,0,0,0-.12-2.16c-.45-1-.91-2-1.42-2.91l0,0a12.13,12.13,0,0,0-.65-1.09,14,14,0,0,0-2.62-2.87l-.18-.16c-.28-.22-.57-.43-.86-.62s-.43-.25-.65-.37Z" style="fill:#ff2a2a"/><path d="M304.16,258c-2.39-.63-4.75-1.81-6.79-2.42-4-1.19-8.27-3.78-11.22-2.71-1.06.47-1,1.52-1.3,3-.14,1.78-2,4.4-.45,3.54,2.28-1.28,8.3,2.44,10.32,3.69,1,.59,3,1.75,3.61,3.41s.31,5.85.14,7.65.4,6.12,2.29,6.62,3.59-1.07,4.39-4.1a19.37,19.37,0,0,1,2.52-6.38,6.18,6.18,0,0,1,4.4-2.87c1.88-.36,4.61,1.54,4.61-.68,0-1.46-1.28-2.85-.74-4.85.43-1.57-1.34-1.26-2.81-1.91-3.45-1.06-6.56-1.4-9-2Z" style="fill:url(#k)"/><path d="M294.54,263c-1.09-.59-7.72-4.93-10.14-3.57-.77.43-1.06-.05-1.07-.86a12.41,12.41,0,0,1,.61-2.89c.25-.91.65-2.64,1.72-3.54,2.29-1.93,7.56,1.92,10.36,3-.24,1.45-1.57,7.85-1.48,7.9Z" style="fill:#910000"/><path d="M305.88,271.2c3.05-5.34,5-4.66,8.71-4.58,1.23,0,1.59-1.1,1.31-2.22-.93,2.08-5.54-.23-8,.88-5.24,2.31-4.27,12.57-6.75,13.57C303.68,281,304.84,273,305.88,271.2Z" style="fill:#ff3a3a"/></svg>