<svg xmlns="http://www.w3.org/2000/svg" viewBox="0 0 575.09 576.93"><title>Oman</title><path d="M440,240.63H567.54a.26.26,0,0,1,.27.25v69.77a.26.26,0,0,1-.27.25H440a.26.26,0,0,1-.27-.25V240.88A.26.26,0,0,1,440,240.63Z" style="fill:#fff;stroke:#db161b"/><path d="M443.27,243.56h121a.24.24,0,0,1,.25.23v64a.24.24,0,0,1-.25.23h-121a.24.24,0,0,1-.25-.23v-64A.24.24,0,0,1,443.27,243.56Z" style="fill:#fff;stroke:#db161b"/><path d="M499.51,261.12l6.14.21.28,2.78,5,2.56,3.91-3.21L519.6,266l-4.46,2.78,1.12,3.85,5.58-.21v5.13l-4.46-.21-2.23,3.21,5,3.63-3.91,3L512.07,284l-6.14,1.28.28,4.7-6.7.43-.84-4.49-5.58-2.35L490,286.77l-4.74-2.35,2.79-3.63-3.35-2.35H480l-.28-6.63,4.74.43,3.35-3.85-3.91-3,5-3.42,3.63,2.78,6.14-.86Z" style="fill:#fff;stroke:#db161b"/><ellipse cx="501.37" cy="275.02" rx="6.74" ry="5.77" style="fill:#fff;stroke:#db161b"/><path d="M459.43,246.48l-9.85,8.78" style="fill:#fff;stroke:#db161b"/><path d="M466,246.48l-9.85,8.78" style="fill:#fff;stroke:#db161b"/><path d="M472.57,246.48l-9.85,8.78" style="fill:#fff;stroke:#db161b"/><path d="M479.14,246.48l-9.85,8.78" style="fill:#fff;stroke:#db161b"/><path d="M485.71,246.48l-9.85,8.78" style="fill:#fff;stroke:#db161b"/><path d="M492.28,246.48l-9.85,8.78" style="fill:#fff;stroke:#db161b"/><path d="M498.84,246.48,489,255.27" style="fill:#fff;stroke:#db161b"/><path d="M505.41,246.48l-9.85,8.78" style="fill:#fff;stroke:#db161b"/><path d="M512,246.48l-9.85,8.78" style="fill:#fff;stroke:#db161b"/><path d="M518.55,246.48l-9.85,8.78" style="fill:#fff;stroke:#db161b"/><path d="M525.12,246.48l-9.85,8.78" style="fill:#fff;stroke:#db161b"/><path d="M531.69,246.48l-9.85,8.78" style="fill:#fff;stroke:#db161b"/><path d="M505.41,246.48l-9.85,8.78" style="fill:#fff;stroke:#db161b"/><path d="M538.25,246.48l-9.85,8.78" style="fill:#fff;stroke:#db161b"/><path d="M544.82,246.48,535,255.27" style="fill:#fff;stroke:#db161b"/><path d="M551.39,246.48l-9.85,8.78" style="fill:#fff;stroke:#db161b"/><path d="M558,246.48l-9.85,8.78" style="fill:#fff;stroke:#db161b"/><path d="M548.11,246.48l9.85,8.78" style="fill:#fff;stroke:#db161b"/><path d="M541.54,246.48l9.85,8.78" style="fill:#fff;stroke:#db161b"/><path d="M535,246.48l9.85,8.78" style="fill:#fff;stroke:#db161b"/><path d="M528.4,246.48l9.85,8.78" style="fill:#fff;stroke:#db161b"/><path d="M521.83,246.48l9.85,8.78" style="fill:#fff;stroke:#db161b"/><path d="M515.27,246.48l9.85,8.78" style="fill:#fff;stroke:#db161b"/><path d="M508.7,246.48l9.85,8.78" style="fill:#fff;stroke:#db161b"/><path d="M502.13,246.48l9.85,8.78" style="fill:#fff;stroke:#db161b"/><path d="M495.56,246.48l9.85,8.78" style="fill:#fff;stroke:#db161b"/><path d="M489,246.48l9.85,8.78" style="fill:#fff;stroke:#db161b"/><path d="M482.42,246.48l9.85,8.78" style="fill:#fff;stroke:#db161b"/><path d="M475.85,246.48l9.85,8.78" style="fill:#fff;stroke:#db161b"/><path d="M502.13,246.48l9.85,8.78" style="fill:#fff;stroke:#db161b"/><path d="M469.29,246.48l9.85,8.78" style="fill:#fff;stroke:#db161b"/><path d="M462.72,246.48l9.85,8.78" style="fill:#fff;stroke:#db161b"/><path d="M456.15,246.48l9.85,8.78" style="fill:#fff;stroke:#db161b"/><path d="M449.58,246.48l9.85,8.78" style="fill:#fff;stroke:#db161b"/><path d="M459.43,296.26,449.58,305" style="fill:#fff;stroke:#db161b"/><path d="M466,296.26,456.15,305" style="fill:#fff;stroke:#db161b"/><path d="M472.57,296.26,462.72,305" style="fill:#fff;stroke:#db161b"/><path d="M479.14,296.26,469.29,305" style="fill:#fff;stroke:#db161b"/><path d="M485.71,296.26,475.85,305" style="fill:#fff;stroke:#db161b"/><path d="M492.28,296.26,482.42,305" style="fill:#fff;stroke:#db161b"/><path d="M498.84,296.26,489,305" style="fill:#fff;stroke:#db161b"/><path d="M505.41,296.26,495.56,305" style="fill:#fff;stroke:#db161b"/><path d="M512,296.26,502.13,305" style="fill:#fff;stroke:#db161b"/><path d="M518.55,296.26,508.7,305" style="fill:#fff;stroke:#db161b"/><path d="M525.12,296.26,515.26,305" style="fill:#fff;stroke:#db161b"/><path d="M531.69,296.26,521.83,305" style="fill:#fff;stroke:#db161b"/><path d="M505.41,296.26,495.56,305" style="fill:#fff;stroke:#db161b"/><path d="M538.25,296.26,528.4,305" style="fill:#fff;stroke:#db161b"/><path d="M544.82,296.26,535,305" style="fill:#fff;stroke:#db161b"/><path d="M551.39,296.26,541.54,305" style="fill:#fff;stroke:#db161b"/><path d="M558,296.26,548.11,305" style="fill:#fff;stroke:#db161b"/><path d="M548.11,296.26,558,305" style="fill:#fff;stroke:#db161b"/><path d="M541.54,296.26l9.85,8.78" style="fill:#fff;stroke:#db161b"/><path d="M535,296.26l9.85,8.78" style="fill:#fff;stroke:#db161b"/><path d="M528.4,296.26l9.85,8.78" style="fill:#fff;stroke:#db161b"/><path d="M521.83,296.26l9.85,8.78" style="fill:#fff;stroke:#db161b"/><path d="M515.27,296.26l9.85,8.78" style="fill:#fff;stroke:#db161b"/><path d="M508.7,296.26l9.85,8.78" style="fill:#fff;stroke:#db161b"/><path d="M502.13,296.26,512,305" style="fill:#fff;stroke:#db161b"/><path d="M495.56,296.26l9.85,8.78" style="fill:#fff;stroke:#db161b"/><path d="M489,296.26l9.85,8.78" style="fill:#fff;stroke:#db161b"/><path d="M482.42,296.26l9.85,8.78" style="fill:#fff;stroke:#db161b"/><path d="M475.85,296.26l9.85,8.78" style="fill:#fff;stroke:#db161b"/><path d="M502.13,296.26,512,305" style="fill:#fff;stroke:#db161b"/><path d="M469.29,296.26l9.85,8.78" style="fill:#fff;stroke:#db161b"/><path d="M462.72,296.26l9.85,8.78" style="fill:#fff;stroke:#db161b"/><path d="M456.15,296.26,466,305" style="fill:#fff;stroke:#db161b"/><path d="M449.58,296.26l9.85,8.78" style="fill:#fff;stroke:#db161b"/><path d="M9.76,237.7H137.31a.26.26,0,0,1,.27.25v69.77a.26.26,0,0,1-.27.25H9.76a.26.26,0,0,1-.27-.25V238A.26.26,0,0,1,9.76,237.7Z" style="fill:#fff;stroke:#db161b"/><path d="M13,240.63H134a.24.24,0,0,1,.25.23v64a.24.24,0,0,1-.25.23H13a.24.24,0,0,1-.25-.23v-64A.24.24,0,0,1,13,240.63Z" style="fill:#fff;stroke:#db161b"/><path d="M69.28,258.2l6.14.21.28,2.78,5,2.56,3.91-3.21,4.74,2.56-4.46,2.78L86,269.74l5.58-.21v5.13l-4.46-.21-2.23,3.21,5,3.63-3.91,3-4.18-3.21-6.14,1.28.28,4.7-6.7.43L68.44,283l-5.58-2.35-3.07,3.21-4.74-2.35,2.79-3.63-3.35-2.35H49.75l-.28-6.63,4.74.43,3.35-3.85-3.91-3,5-3.42,3.63,2.78,6.14-.86Z" style="fill:#fff;stroke:#db161b"/><ellipse cx="71.14" cy="272.09" rx="6.74" ry="5.77" style="fill:#fff;stroke:#db161b"/><path d="M29.2,243.56l-9.85,8.78" style="fill:#fff;stroke:#db161b"/><path d="M35.77,243.56l-9.85,8.78" style="fill:#fff;stroke:#db161b"/><path d="M42.34,243.56l-9.85,8.78" style="fill:#fff;stroke:#db161b"/><path d="M48.9,243.56l-9.85,8.78" style="fill:#fff;stroke:#db161b"/><path d="M55.47,243.56l-9.85,8.78" style="fill:#fff;stroke:#db161b"/><path d="M62,243.56l-9.85,8.78" style="fill:#fff;stroke:#db161b"/><path d="M68.61,243.56l-9.85,8.78" style="fill:#fff;stroke:#db161b"/><path d="M75.18,243.56l-9.85,8.78" style="fill:#fff;stroke:#db161b"/><path d="M81.75,243.56l-9.85,8.78" style="fill:#fff;stroke:#db161b"/><path d="M88.31,243.56l-9.85,8.78" style="fill:#fff;stroke:#db161b"/><path d="M94.88,243.56,85,252.34" style="fill:#fff;stroke:#db161b"/><path d="M101.45,243.56l-9.85,8.78" style="fill:#fff;stroke:#db161b"/><path d="M75.18,243.56l-9.85,8.78" style="fill:#fff;stroke:#db161b"/><path d="M108,243.56l-9.85,8.78" style="fill:#fff;stroke:#db161b"/><path d="M114.59,243.56l-9.85,8.78" style="fill:#fff;stroke:#db161b"/><path d="M121.16,243.56l-9.85,8.78" style="fill:#fff;stroke:#db161b"/><path d="M127.73,243.56l-9.85,8.78" style="fill:#fff;stroke:#db161b"/><path d="M117.87,243.56l9.85,8.78" style="fill:#fff;stroke:#db161b"/><path d="M111.3,243.56l9.85,8.78" style="fill:#fff;stroke:#db161b"/><path d="M104.74,243.56l9.85,8.78" style="fill:#fff;stroke:#db161b"/><path d="M98.17,243.56l9.85,8.78" style="fill:#fff;stroke:#db161b"/><path d="M91.6,243.56l9.85,8.78" style="fill:#fff;stroke:#db161b"/><path d="M85,243.56l9.85,8.78" style="fill:#fff;stroke:#db161b"/><path d="M78.46,243.56l9.85,8.78" style="fill:#fff;stroke:#db161b"/><path d="M71.89,243.56l9.85,8.78" style="fill:#fff;stroke:#db161b"/><path d="M65.33,243.56l9.85,8.78" style="fill:#fff;stroke:#db161b"/><path d="M58.76,243.56l9.85,8.78" style="fill:#fff;stroke:#db161b"/><path d="M52.19,243.56,62,252.34" style="fill:#fff;stroke:#db161b"/><path d="M45.62,243.56l9.85,8.78" style="fill:#fff;stroke:#db161b"/><path d="M71.89,243.56l9.85,8.78" style="fill:#fff;stroke:#db161b"/><path d="M39.05,243.56l9.85,8.78" style="fill:#fff;stroke:#db161b"/><path d="M32.48,243.56l9.85,8.78" style="fill:#fff;stroke:#db161b"/><path d="M25.91,243.56l9.85,8.78" style="fill:#fff;stroke:#db161b"/><path d="M19.35,243.56l9.85,8.78" style="fill:#fff;stroke:#db161b"/><path d="M29.2,293.33l-9.85,8.78" style="fill:#fff;stroke:#db161b"/><path d="M35.77,293.33l-9.85,8.78" style="fill:#fff;stroke:#db161b"/><path d="M42.34,293.33l-9.85,8.78" style="fill:#fff;stroke:#db161b"/><path d="M48.9,293.33l-9.85,8.78" style="fill:#fff;stroke:#db161b"/><path d="M55.47,293.33l-9.85,8.78" style="fill:#fff;stroke:#db161b"/><path d="M62,293.33l-9.85,8.78" style="fill:#fff;stroke:#db161b"/><path d="M68.61,293.33l-9.85,8.78" style="fill:#fff;stroke:#db161b"/><path d="M75.18,293.33l-9.85,8.78" style="fill:#fff;stroke:#db161b"/><path d="M81.75,293.33l-9.85,8.78" style="fill:#fff;stroke:#db161b"/><path d="M88.31,293.33l-9.85,8.78" style="fill:#fff;stroke:#db161b"/><path d="M94.88,293.33,85,302.12" style="fill:#fff;stroke:#db161b"/><path d="M101.45,293.33l-9.85,8.78" style="fill:#fff;stroke:#db161b"/><path d="M75.18,293.33l-9.85,8.78" style="fill:#fff;stroke:#db161b"/><path d="M108,293.33l-9.85,8.78" style="fill:#fff;stroke:#db161b"/><path d="M114.59,293.33l-9.85,8.78" style="fill:#fff;stroke:#db161b"/><path d="M121.16,293.33l-9.85,8.78" style="fill:#fff;stroke:#db161b"/><path d="M127.73,293.33l-9.85,8.78" style="fill:#fff;stroke:#db161b"/><path d="M117.87,293.33l9.85,8.78" style="fill:#fff;stroke:#db161b"/><path d="M111.3,293.33l9.85,8.78" style="fill:#fff;stroke:#db161b"/><path d="M104.74,293.33l9.85,8.78" style="fill:#fff;stroke:#db161b"/><path d="M98.17,293.33l9.85,8.78" style="fill:#fff;stroke:#db161b"/><path d="M91.6,293.33l9.85,8.78" style="fill:#fff;stroke:#db161b"/><path d="M85,293.33l9.85,8.78" style="fill:#fff;stroke:#db161b"/><path d="M78.46,293.33l9.85,8.78" style="fill:#fff;stroke:#db161b"/><path d="M71.89,293.33l9.85,8.78" style="fill:#fff;stroke:#db161b"/><path d="M65.33,293.33l9.85,8.78" style="fill:#fff;stroke:#db161b"/><path d="M58.76,293.33l9.85,8.78" style="fill:#fff;stroke:#db161b"/><path d="M52.19,293.33,62,302.12" style="fill:#fff;stroke:#db161b"/><path d="M45.62,293.33l9.85,8.78" style="fill:#fff;stroke:#db161b"/><path d="M71.89,293.33l9.85,8.78" style="fill:#fff;stroke:#db161b"/><path d="M39.05,293.33l9.85,8.78" style="fill:#fff;stroke:#db161b"/><path d="M32.48,293.33l9.85,8.78" style="fill:#fff;stroke:#db161b"/><path d="M25.91,293.33l9.85,8.78" style="fill:#fff;stroke:#db161b"/><path d="M19.35,293.33l9.85,8.78" style="fill:#fff;stroke:#db161b"/><path d="M186,408.47C44.17,542.92-15.27,561.24,15,573.14c31.91,12.56,134.53-67.87,241.32-174.71S428.47,196.51,396.56,184c-19.56-7.7-21.4,7.31-58.95,58.28" style="fill:#fff;stroke:#db161b;stroke-width:1.75px"/><path d="M76.25,498.3l55.83,14.64C79.53,562.72,20.42,583.22,4,574.43S33.55,545.15,76.25,498.3Z" style="fill:#fff;stroke:#db161b"/><path d="M76.25,504.16l46,11.71C71,563.74,20.42,577.36,7.32,571.51S34.66,549.21,76.25,504.16Z" style="fill:#fff;stroke:#db161b"/><path d="M247.76,378.23c-.12.74-.49,4.09-.82,5.42a29.14,29.14,0,0,1-.41,4.7c-.52,1.26-.43,2.43-2,2.89a6.24,6.24,0,0,1-3.26,2.53,18.68,18.68,0,0,1-4.08,2.17,8.46,8.46,0,0,1-4.9.36c-1.43-.88-2.48-1.79-3.67-2.53-.28-1.14-.54-2.83-.82-4a16.85,16.85,0,0,1,.82,4.7c-.16,1.8-.83,2.59-1.63,4" style="fill:#fff;stroke:#db161b"/><path d="M232.66,402.44l-.41-.36c1,.86.57.45-1.63-.72a20.94,20.94,0,0,0-5.3-1.45h-5.71a18.72,18.72,0,0,0-5.3.72c-1.15,1-2.87,1.6-4.08,2.53a6.4,6.4,0,0,0-2.45,2.89c-1.11,1-1.83,2.5-2.86,3.25-.46,1.66-1.4,1.6-2,2.89,1.92.13,3.47.36,4.49,1.45,1.7.78-1.42-.76-2-1.45a9.75,9.75,0,0,0-3.67-.72c-1.86-.52-3,.43-4.9.72a4.69,4.69,0,0,1-2.86.72" style="fill:#fff;stroke:#db161b"/><path d="M210.63,420.5c-.83,0-4.62.66-6.12,0a6,6,0,0,1-3.67-2.53c-.5-1,0,1.73,0,2.89-.18,2.13-.89,2.15-2,3.61-1.18.67-2.43,1.62-3.67,2.17a13.21,13.21,0,0,1-3.67,1.81,17.24,17.24,0,0,0-3.67,1.81c-1.36.86-1.23,1.9-2,3.25.15,1.77.48,2.77,1.63,3.61a9.92,9.92,0,0,0,2.45,3.25c1,1.66,2.13,2.44-.41,2.89-1.39.53-2.17.11-3.67,0" style="fill:#fff;stroke:#db161b"/><path d="M184.93,445.8c-1-.23-4.56-1.28-6.12-1.81H173.1c-2.21.15-2.64.73-4.49,1.45a11.65,11.65,0,0,1-3.67,2.53,27.7,27.7,0,0,0-3.26,4,13.2,13.2,0,0,0-.82,4.7c0,2.11.65,2.47.82,4.34a10.72,10.72,0,0,0,2.45,4.34c.17.46.3.57.82.72" style="fill:#fff;stroke:#db161b"/><path d="M165.5,470.76c-.17,0-.56.92-1.16,1.71-1.31,1.33-1.48,1.43-3.48,1.43-1.8-.07-1.63-.7-2.9-1.14-.6-.92-1.34-1.64-2-2.85a23.49,23.49,0,0,0-1.45-2.57c-.53-.85-1.19-1.49-1.74-2.28a5.15,5.15,0,0,0-1.45-.57c1.67.26,1.81.85,2.9,1.71a26.75,26.75,0,0,1,1.45,2.57,24.11,24.11,0,0,1,.58,3.71,9.1,9.1,0,0,1-.58,4,12.79,12.79,0,0,1-2,2,16.84,16.84,0,0,0-2,2.28c-.91.55-1.57,1-2.61,1.71a7.3,7.3,0,0,1-3.19,1.14,8.31,8.31,0,0,1-3.48-1.14c-1.08-.78-1.93-1.3-2.9-2a9.59,9.59,0,0,1-2-2.28c-1.57-.39-2.56-.23-3.48.57a7.61,7.61,0,0,0-2,2c-.47.23-1.27.91-1.74,1.14" style="fill:#fff;stroke:#db161b"/><path d="M133.59,482.56c.46.19,2.14,1.35,2.88,1.78.46,1.5,1.2,2.32,1.44,3.92a20.69,20.69,0,0,1,.36,5,23,23,0,0,1-1.8,4.63,27.84,27.84,0,0,1-3.24,2.14,33.08,33.08,0,0,1-4.68.36,7.1,7.1,0,0,1-4.32,0,12.38,12.38,0,0,1-4-1.42c-1.33-.74-2.15-1.45-3.6-2.14-.71-1-1.8-2-2.88-3.2a15.8,15.8,0,0,1-2.16-3.2c.53,1.52,1.34,2.85,1.8,4.27.82,1.52,1.3,2.05,1.44,3.92a16.21,16.21,0,0,1,.36,5c-.16,1.16-.24,3.32-.72,4.27v1.07" style="fill:#fff;stroke:#db161b"/><path d="M80.34,514.59v.52c0-1.39,0-.69.58,2.07,1.09,1.21,3.66,1.54,5.79,1,1.87-1.38,1.82-2.43,5.21-3.1a12.43,12.43,0,0,1,6.37,2.07c2.18,1,3.19,1.46,4.63,3.62.72,1.75,1.12,2.94-1.16,3.62a15.16,15.16,0,0,1-6.37,2.07c-2.68,0-4.6-.28-5.79,1-1.84,1.7-1.74,2.71-1.74,5.68-.62.92-.74,3.63-1.16,4.65a10.8,10.8,0,0,1-5.21,1,59.68,59.68,0,0,1-1.74-6.2c-.45-1.86-.59-4.45-1.74-5.68A14.65,14.65,0,0,0,74,523.37a7.44,7.44,0,0,0-3.48-2.07c2.27,1,2.6,2.15,2.9,4.65-2,.89-2.53,1.51-5.79,1.55-3.21-.24-4-1-5.21-2.58-.22,2.59-1.15,3.46-1.74,5.68-1.19,1.56-1.7,3.16-2.9,5.16.51,2.49,1.61,2.61,1.74,5.68.75,2,.67,4,2.32,5.17.73.8,1.28,1,2.9,1-3.35,0-5.31-.32-7.53-1.55-1.72-.94-3-2.12-4.64-3.1a23.26,23.26,0,0,0-7-3.1c-2.68,0-4.6-.28-5.79,1a9.07,9.07,0,0,0-3.48,5.17c-.54,2.68-.74,4.47.58,6.2,1,2,1.2,2.77,0,5.16-1.35,1.68-3.35,1.88-6.37,2.58a23.17,23.17,0,0,1-5.79-1" style="fill:#fff;stroke:#db161b"/><path d="M392.24,244.38C463,122.31,509.89,18.42,497,12.49s-80.73,88.32-151.45,210.39Z" style="fill:#fff;stroke:#db161b;stroke-width:1.75px"/><path d="M387.58,242.23C455.79,124.47,502.79,25,492.48,20.29s-74,87-142.26,204.74" style="fill:#fff;stroke:#db161b;stroke-width:1.5px"/><path d="M375.85,180.8c-8.29,13.77-17.09,29.51-25.62,44.23l37.35,17.2C396.1,227.51,405.4,212,413.2,198Z" style="fill:#fff;stroke:#db161b"/><path d="M379,185.55c-8.29,13.77-14.08,24.31-22.61,39l28,12.9c8.53-14.72,14.81-25,22.61-39Z" style="fill:#fff;stroke:#db161b;stroke-width:1.5px"/><polygon points="399.34 201.51 380.66 192.91 364.08 221.53 382.76 230.13 399.34 201.51" style="fill:#fff;stroke:#db161b;stroke-width:1.5px"/><path d="M399.34,201.51l-35.25,20" style="fill:#fff;stroke:#db161b;stroke-width:1.5px"/><path d="M382.76,230.12l-2.1-37.22" style="fill:#fff;stroke:#db161b;stroke-width:1.5px"/><path d="M483.73,55.81l-18.67-8.6" style="fill:#fff;stroke:#db161b"/><path d="M481.38,33.09c-2.91.73-4.74,3.4-4.08,6s3.55,4,6.46,3.29,4.74-3.4,4.08-6S484.29,32.35,481.38,33.09Z" style="fill:#db161b"/><path d="M335.15,352.52q13.76,14.12,29.54,29.58C524.06,537.95,592,557.66,560.13,570.22S425.61,502.35,318.82,395.51,146.63,193.59,178.53,181c19.85-7.81,21.45,7.77,60.65,60.58" style="fill:#fff;stroke:#db161b;stroke-width:1.75px"/><path d="M498.84,495.38,443,510c52.55,49.78,111.67,70.28,128.09,61.49S541.54,542.23,498.84,495.38Z" style="fill:#fff;stroke:#db161b"/><path d="M498.84,501.24l-46,11.71c51.19,47.86,101.81,61.49,114.91,55.64S540.43,546.29,498.84,501.24Z" style="fill:#fff;stroke:#db161b"/><path d="M327.34,375.31c.12.74.49,4.09.82,5.42a29.14,29.14,0,0,0,.41,4.7c.52,1.26.43,2.43,2,2.89a6.24,6.24,0,0,0,3.26,2.53,18.68,18.68,0,0,0,4.08,2.17,8.46,8.46,0,0,0,4.9.36c1.43-.88,2.48-1.79,3.67-2.53.28-1.14.54-2.83.82-4a16.85,16.85,0,0,0-.82,4.7c.16,1.8.83,2.59,1.63,4" style="fill:#fff;stroke:#db161b"/><path d="M342.43,399.52l.41-.36c-1,.86-.57.45,1.63-.72a20.94,20.94,0,0,1,5.3-1.45h5.71a18.72,18.72,0,0,1,5.3.72c1.15,1,2.87,1.6,4.08,2.53a6.4,6.4,0,0,1,2.45,2.89c1.11,1,1.83,2.5,2.86,3.25.46,1.66,1.4,1.6,2,2.89-1.92.13-3.47.36-4.49,1.45-1.7.78,1.42-.76,2-1.45a9.75,9.75,0,0,1,3.67-.72c1.86-.52,3,.43,4.9.72a4.69,4.69,0,0,0,2.86.72" style="fill:#fff;stroke:#db161b"/><path d="M364.46,417.58c.83,0,4.62.66,6.12,0a6,6,0,0,0,3.67-2.53c.5-1,0,1.73,0,2.89.18,2.13.89,2.15,2,3.61,1.18.67,2.43,1.62,3.67,2.17a13.21,13.21,0,0,0,3.67,1.81,17.24,17.24,0,0,1,3.67,1.81c1.36.86,1.23,1.9,2,3.25-.15,1.77-.48,2.77-1.63,3.61a9.92,9.92,0,0,1-2.45,3.25c-1,1.66-2.13,2.44.41,2.89,1.39.53,2.17.11,3.67,0" style="fill:#fff;stroke:#db161b"/><path d="M390.16,442.88c1-.23,4.56-1.28,6.12-1.81H402c2.21.15,2.64.73,4.49,1.45a11.65,11.65,0,0,0,3.67,2.53,27.7,27.7,0,0,1,3.26,4,13.2,13.2,0,0,1,.82,4.7c0,2.11-.65,2.47-.82,4.34a10.72,10.72,0,0,1-2.45,4.34c-.17.46-.3.57-.82.72" style="fill:#fff;stroke:#db161b"/><path d="M409.6,467.84c.17,0,.56.92,1.16,1.71,1.31,1.33,1.48,1.43,3.48,1.43,1.8-.07,1.63-.7,2.9-1.14.6-.92,1.34-1.64,2-2.85a23.49,23.49,0,0,1,1.45-2.57c.53-.85,1.19-1.49,1.74-2.28a5.15,5.15,0,0,1,1.45-.57c-1.67.26-1.81.85-2.9,1.71a26.75,26.75,0,0,0-1.45,2.57,24.11,24.11,0,0,0-.58,3.71,9.1,9.1,0,0,0,.58,4,12.79,12.79,0,0,0,2,2,16.84,16.84,0,0,1,2,2.28c.91.55,1.57,1,2.61,1.71a7.3,7.3,0,0,0,3.19,1.14,8.31,8.31,0,0,0,3.48-1.14c1.08-.78,1.93-1.3,2.9-2a9.59,9.59,0,0,0,2-2.28c1.57-.39,2.56-.23,3.48.57a7.61,7.61,0,0,1,2,2c.47.23,1.27.91,1.74,1.14" style="fill:#fff;stroke:#db161b"/><path d="M441.51,479.64c-.46.19-2.14,1.35-2.88,1.78-.46,1.5-1.2,2.32-1.44,3.92a20.69,20.69,0,0,0-.36,5,23,23,0,0,0,1.8,4.63,27.84,27.84,0,0,0,3.24,2.14,33.08,33.08,0,0,0,4.68.36,7.1,7.1,0,0,0,4.32,0,12.38,12.38,0,0,0,4-1.42c1.33-.74,2.15-1.45,3.6-2.14.71-1,1.8-2,2.88-3.2a15.8,15.8,0,0,0,2.16-3.2c-.53,1.52-1.34,2.85-1.8,4.27-.82,1.52-1.3,2.05-1.44,3.92a16.21,16.21,0,0,0-.36,5c.16,1.16.24,3.32.72,4.27V506" style="fill:#fff;stroke:#db161b"/><path d="M494.76,511.66v.52c0-1.39,0-.69-.58,2.07-1.09,1.21-3.66,1.54-5.79,1-1.87-1.38-1.82-2.43-5.21-3.1a12.43,12.43,0,0,0-6.37,2.07c-2.18,1-3.19,1.46-4.63,3.62-.72,1.75-1.12,2.94,1.16,3.62a15.16,15.16,0,0,0,6.37,2.07c2.68,0,4.6-.28,5.79,1,1.84,1.7,1.74,2.71,1.74,5.68.62.92.74,3.63,1.16,4.65a10.8,10.8,0,0,0,5.21,1,59.68,59.68,0,0,0,1.74-6.2c.45-1.86.59-4.45,1.74-5.68a14.65,14.65,0,0,1,4.06-3.62,7.44,7.44,0,0,1,3.48-2.07c-2.27,1-2.6,2.15-2.9,4.65,2,.89,2.53,1.51,5.79,1.55,3.21-.24,4-1,5.21-2.58.22,2.59,1.15,3.46,1.74,5.68,1.19,1.56,1.7,3.16,2.9,5.16-.51,2.49-1.61,2.61-1.74,5.68-.75,2-.67,4-2.32,5.17-.73.8-1.28,1-2.9,1,3.35,0,5.31-.32,7.53-1.55,1.72-.94,3-2.12,4.64-3.1a23.26,23.26,0,0,1,7-3.1c2.68,0,4.6-.28,5.79,1a9.07,9.07,0,0,1,3.48,5.17c.54,2.68.74,4.47-.58,6.2-1,2-1.2,2.77,0,5.16,1.35,1.68,3.35,1.88,6.37,2.58a23.17,23.17,0,0,0,5.79-1" style="fill:#fff;stroke:#db161b"/><path d="M182.85,241.46C112.14,119.39,65.2,15.5,78.09,9.57S158.82,97.89,229.54,220Z" style="fill:#fff;stroke:#db161b;stroke-width:1.75px"/><path d="M187.52,239.31C119.3,121.55,72.3,22.12,82.61,17.37s74,87,142.26,204.74" style="fill:#fff;stroke:#db161b;stroke-width:1.5px"/><path d="M199.25,177.88c8.29,13.77,17.09,29.51,25.62,44.23l-37.35,17.2c-8.53-14.72-17.83-30.23-25.62-44.23Z" style="fill:#fff;stroke:#db161b"/><path d="M196.09,182.63c8.29,13.77,14.08,24.31,22.61,39l-28,12.9c-8.53-14.72-14.81-25-22.61-39Z" style="fill:#fff;stroke:#db161b;stroke-width:1.5px"/><polygon points="175.76 198.59 194.43 189.99 211.01 218.6 192.33 227.2 175.76 198.59" style="fill:#fff;stroke:#db161b;stroke-width:1.5px"/><path d="M175.76,198.59l35.25,20" style="fill:#fff;stroke:#db161b;stroke-width:1.5px"/><path d="M192.33,227.2l2.1-37.22" style="fill:#fff;stroke:#db161b;stroke-width:1.5px"/><path d="M91.36,52.89,110,44.29" style="fill:#fff;stroke:#db161b"/><path d="M93.71,30.17c2.91.73,4.74,3.4,4.08,6s-3.55,4-6.46,3.29-4.74-3.4-4.08-6S90.8,29.43,93.71,30.17Z" style="fill:#db161b"/><path d="M238.67,290.93c-.83,21.67-2.57,32.06-6.23,34.62-7.16,5.67-206.53,0-206.53,29.28s164.21,58.56,213.48,58.56q98.53,0,98.53-87.85V289.75" style="fill:#fff;stroke:#db161b"/><path d="M337.92,246.85V179.14H239.39c0,26.16,0,48.16,0,66.51" style="fill:#fff;stroke:#db161b"/><path d="M337.92,283V254" style="fill:#fff;stroke:#db161b"/><path d="M239.39,208.42v14.64a333.33,333.33,0,0,0,98.53,0V208.42A333.33,333.33,0,0,1,239.39,208.42Z" style="fill:#fff;stroke:#db161b"/><path d="M239.39,179.14v14.64a333.33,333.33,0,0,0,98.53,0V179.14A333.33,333.33,0,0,1,239.39,179.14Z" style="fill:#fff;stroke:#db161b"/><path d="M239.39,193.78v14.64a333.33,333.33,0,0,0,98.53,0V193.78A333.33,333.33,0,0,1,239.39,193.78Z" style="fill:#fff;stroke:#db161b"/><path d="M239.39,223.06V237.7a333.33,333.33,0,0,0,98.53,0V223.06A333.33,333.33,0,0,1,239.39,223.06Z" style="fill:#fff;stroke:#db161b"/><ellipse cx="243.87" cy="202.1" rx="4.48" ry="3.16" style="fill:#fff;stroke:#db161b;stroke-width:1.5px"/><ellipse cx="261.78" cy="203.68" rx="4.48" ry="3.16" style="fill:#fff;stroke:#db161b;stroke-width:1.5px"/><ellipse cx="279.7" cy="205.26" rx="4.48" ry="3.16" style="fill:#fff;stroke:#db161b;stroke-width:1.5px"/><ellipse cx="297.61" cy="205.26" rx="4.48" ry="3.16" style="fill:#fff;stroke:#db161b;stroke-width:1.5px"/><ellipse cx="315.52" cy="203.68" rx="4.48" ry="3.16" style="fill:#fff;stroke:#db161b;stroke-width:1.5px"/><ellipse cx="333.44" cy="202.1" rx="4.48" ry="3.16" style="fill:#fff;stroke:#db161b;stroke-width:1.5px"/><path d="M240.48,253.22l97.43,78.18" style="fill:#fff;stroke:#db161b"/><path d="M264,264.05l73.89,58.56" style="fill:#fff;stroke:#db161b"/><path d="M251.19,253.89l5.95,4.71" style="fill:#fff;stroke:#db161b"/><path d="M263.72,256.31l74.19,57.52" style="fill:#fff;stroke:#db161b"/><path d="M272.23,255.27,337.92,305" style="fill:#fff;stroke:#db161b"/><path d="M329.53,290.1l8.39,6.16" style="fill:#fff;stroke:#db161b"/><path d="M282.08,255.27,318,281.62" style="fill:#fff;stroke:#db161b"/><path d="M291.94,255.27l41.83,29.3" style="fill:#fff;stroke:#db161b"/><path d="M301.79,255.27l36.13,23.43" style="fill:#fff;stroke:#db161b"/><path d="M311.64,255.27l26.27,17.57" style="fill:#fff;stroke:#db161b"/><path d="M324.78,257.61,337.92,267" style="fill:#fff;stroke:#db161b"/><path d="M329.17,253.33l8.74,7.8" style="fill:#fff;stroke:#db161b"/><path d="M263.79,280.7l73.44,58.93" style="fill:#fff;stroke:#db161b"/><path d="M336.74,253.29,229.54,340.19" style="fill:#fff;stroke:#db161b"/><path d="M295,278.73l-62.23,49.74" style="fill:#fff;stroke:#db161b"/><path d="M314.93,255.27l-75.54,58.56" style="fill:#fff;stroke:#db161b"/><path d="M305.07,255.27,239.39,305" style="fill:#fff;stroke:#db161b"/><path d="M243.87,293l-4.48,3.29" style="fill:#fff;stroke:#db161b"/><path d="M295.22,255.27l-32,23.46" style="fill:#fff;stroke:#db161b"/><path d="M285.37,255.27l-43.18,30.25" style="fill:#fff;stroke:#db161b"/><path d="M275.52,255.27l-36.13,23.43" style="fill:#fff;stroke:#db161b"/><path d="M257.3,260.86l-17.91,12" style="fill:#fff;stroke:#db161b"/><path d="M265.66,255.27l-1.84,1.23" style="fill:#fff;stroke:#db161b"/><path d="M255.81,255.27,239.39,267" style="fill:#fff;stroke:#db161b"/><path d="M247.94,253.5l-8.55,7.62" style="fill:#fff;stroke:#db161b"/><path d="M337.92,261.12,229.54,349" style="fill:#fff;stroke:#db161b"/><path d="M319.83,284.57l-90.29,73.18" style="fill:#fff;stroke:#db161b"/><path d="M337.92,269.91l-11.49,9.31" style="fill:#fff;stroke:#db161b"/><path d="M325.49,288.77l-96,77.77" style="fill:#fff;stroke:#db161b"/><path d="M337.92,278.69l-7,5.64" style="fill:#fff;stroke:#db161b"/><path d="M334.2,290.49,229.54,375.32" style="fill:#fff;stroke:#db161b"/><path d="M337.92,296.26,229.54,384.11" style="fill:#fff;stroke:#db161b"/><path d="M337.92,305,229.54,392.89" style="fill:#fff;stroke:#db161b"/><path d="M337.92,313.83,229.54,401.68" style="fill:#fff;stroke:#db161b"/><path d="M337.92,322.62,229.54,410.46" style="fill:#fff;stroke:#db161b"/><path d="M337.92,331.4l-101.81,82" style="fill:#fff;stroke:#db161b"/><path d="M337.1,340.84,246,413.39" style="fill:#fff;stroke:#db161b"/><path d="M334.63,351.9l-72.25,58.56" style="fill:#fff;stroke:#db161b"/><path d="M331.35,363.61l-59.12,46.85" style="fill:#fff;stroke:#db161b"/><path d="M324.78,378.25l-29.56,23.43" style="fill:#fff;stroke:#db161b"/><path d="M260.88,287.09l75.3,60.19" style="fill:#fff;stroke:#db161b"/><path d="M239.39,269.91l16,12.82" style="fill:#fff;stroke:#db161b"/><path d="M255.44,291.52l79.19,63.3" style="fill:#fff;stroke:#db161b"/><path d="M239.39,278.69l10.68,8.54" style="fill:#fff;stroke:#db161b"/><path d="M246.79,293.37l84.56,67.31" style="fill:#fff;stroke:#db161b"/><path d="M239.39,296.26l92,73.2" style="fill:#fff;stroke:#db161b"/><path d="M239.39,305l88.67,70.28" style="fill:#fff;stroke:#db161b"/><path d="M236.11,310.9l88.67,70.28" style="fill:#fff;stroke:#db161b"/><path d="M236.11,319.69l82.11,64.42" style="fill:#fff;stroke:#db161b"/><path d="M232.82,325.54,314.93,390" style="fill:#fff;stroke:#db161b"/><path d="M229.54,331.4l78.82,61.49" style="fill:#fff;stroke:#db161b"/><path d="M229.54,340.19l75.54,58.56" style="fill:#fff;stroke:#db161b"/><path d="M229.54,349l65.68,52.71" style="fill:#fff;stroke:#db161b"/><path d="M263.5,255a332.09,332.09,0,0,0,55-.39" style="fill:#fff;stroke:#db161b"/><path d="M241,252.58q7.24,1,14.48,1.76" style="fill:#fff;stroke:#db161b"/><path d="M337.92,247.22V237.7a333.33,333.33,0,0,1-98.53,0v7.95" style="fill:#fff;stroke:#db161b"/><path d="M229.54,357.76l59.12,46.85" style="fill:#fff;stroke:#db161b"/><path d="M229.54,366.54l52.55,41" style="fill:#fff;stroke:#db161b"/><path d="M229.54,375.32l46,35.14" style="fill:#fff;stroke:#db161b"/><path d="M229.54,384.11l32.84,26.35" style="fill:#fff;stroke:#db161b"/><path d="M229.54,392.89l26.27,20.5" style="fill:#fff;stroke:#db161b"/><path d="M229.54,401.68,246,413.39" style="fill:#fff;stroke:#db161b"/><path d="M239.43,245.61c.29-1.55,2.17-2.75,4.44-2.75a5.68,5.68,0,0,1,2.9.75" style="fill:#fff;stroke:#db161b;stroke-width:1.5px"/><path d="M257.5,246.67a4.58,4.58,0,0,1,4.28-2.23c2.47,0,4.48,1.41,4.48,3.16s-2,3.16-4.48,3.16h-.26" style="fill:#fff;stroke:#db161b;stroke-width:1.5px"/><ellipse cx="279.7" cy="249.18" rx="4.48" ry="3.16" style="fill:#fff;stroke:#db161b;stroke-width:1.5px"/><ellipse cx="297.61" cy="249.18" rx="4.48" ry="3.16" style="fill:#fff;stroke:#db161b;stroke-width:1.5px"/><ellipse cx="315.52" cy="247.6" rx="4.48" ry="3.16" style="fill:#fff;stroke:#db161b;stroke-width:1.5px"/><path d="M329.12,246.87A2.3,2.3,0,0,1,329,246c0-1.74,2-3.16,4.48-3.16s4.48,1.41,4.48,3.16a2.35,2.35,0,0,1-.29,1.11" style="fill:#fff;stroke:#db161b;stroke-width:1.5px"/><path d="M98.17,390,216.4,328.47" style="fill:#fff;stroke:#db161b"/><path d="M91.6,387l111.66-58.56" style="fill:#fff;stroke:#db161b"/><path d="M88.31,381.18l101.81-52.71" style="fill:#fff;stroke:#db161b"/><path d="M85,375.32l88.67-46.85" style="fill:#fff;stroke:#db161b"/><path d="M78.46,369.47l82.11-41" style="fill:#fff;stroke:#db161b"/><path d="M81.75,360.68l55.83-29.28" style="fill:#fff;stroke:#db161b"/><path d="M78.46,354.83l42.7-23.43" style="fill:#fff;stroke:#db161b"/><path d="M78.46,346,108,331.4" style="fill:#fff;stroke:#db161b"/><path d="M108,392.89l111.66-58.56" style="fill:#fff;stroke:#db161b"/><path d="M117.87,395.82,223,340.19" style="fill:#fff;stroke:#db161b"/><path d="M127.73,398.75,226.25,346" style="fill:#fff;stroke:#db161b"/><path d="M137.58,401.68l82.11-43.92" style="fill:#fff;stroke:#db161b"/><path d="M150.72,401.68,223,363.61" style="fill:#fff;stroke:#db161b"/><path d="M160.57,404.61,223,372.4" style="fill:#fff;stroke:#db161b"/><path d="M170.42,407.53l49.26-26.35" style="fill:#fff;stroke:#db161b"/><path d="M183.56,407.53,223,387" style="fill:#fff;stroke:#db161b"/><path d="M196.69,410.46,223,395.82" style="fill:#fff;stroke:#db161b"/><path d="M209.83,410.46l16.42-8.78" style="fill:#fff;stroke:#db161b"/><path d="M232.82,325.55H216.4a237,237,0,0,0,0,87.85h16.42A237,237,0,0,1,232.82,325.55Z" style="fill:#fff;stroke:#db161b"/><path d="M39.05,366.54l39.41-29.28" style="fill:#fff;stroke:#db161b"/><path d="M39.05,346l39.41,35.14" style="fill:#fff;stroke:#db161b"/><path d="M98.17,331.4l-19.71,2.93c-4.38,18.55-4.38,34.16,0,52.71l19.71,5.86C93.79,374.35,93.79,349.95,98.17,331.4Z" style="fill:#fff;stroke:#db161b"/><path d="M337.81,185V170.23c-14.76.12-24.6-8.66-24.61-17.57l-49.21.12c0,8.78-9.84,17.57-24.61,17.57V185Z" style="fill:#fff;stroke:#db161b"/><rect x="267.51" y="135.21" width="42.18" height="17.57" style="fill:#fff;stroke:#db161b"/><rect x="271.02" y="117.64" width="35.15" height="17.57" style="fill:#fff;stroke:#db161b"/><rect x="271.02" y="100.07" width="35.15" height="17.57" style="fill:#fff;stroke:#db161b"/><rect x="274.54" y="76.65" width="28.12" height="23.43" style="fill:#fff;stroke:#db161b"/><rect x="273.33" y="56.15" width="30.54" height="20.5" style="fill:#fff;stroke:#db161b"/><ellipse cx="290.3" cy="37.12" rx="40.72" ry="27.82" style="fill:#fff;stroke:#db161b"/><path d="M310.66,35.65c0,7.68,10.18,20.5,10.18,20.5-7.37,5-19.3,8.78-30.54,8.78s-25.24-2.09-30.54-8.78c0,0,10.18-12.82,10.18-20.5s-10.18-17.57-10.18-17.57c7.37-5,19.3-8.78,30.54-8.78s23.17,3.75,30.54,8.78C320.84,18.09,310.66,28,310.66,35.65Z" style="fill:#fff;stroke:#db161b"/><path d="M303.87,35.65c0,7.68,10.18,23.43,10.18,23.43-7.37,5-12.52,5.86-23.76,5.86s-18.45.84-23.76-5.86c0,0,10.18-15.75,10.18-23.43s-10.18-20.5-10.18-20.5c7.37-5,12.52-5.86,23.76-5.86s16.38.82,23.76,5.86c0,0-10.18,12.82-10.18,20.5Z" style="fill:#fff;stroke:#db161b"/><ellipse cx="249.57" cy="38.58" rx="10.18" ry="8.78" style="fill:#fff;stroke:#db161b"/><ellipse cx="331.02" cy="38.58" rx="10.18" ry="8.78" style="fill:#fff;stroke:#db161b"/><ellipse cx="290.3" cy="38.58" rx="10.18" ry="8.78" style="fill:#fff;stroke:#db161b"/><ellipse cx="290.3" cy="9.3" rx="10.18" ry="8.78" style="fill:#fff;stroke:#db161b"/><ellipse cx="260.48" cy="176.21" rx="10.54" ry="8.78" style="fill:#fff;stroke:#db161b"/><ellipse cx="316.72" cy="176.21" rx="10.54" ry="8.78" style="fill:#fff;stroke:#db161b"/><path d="M264,152.78H313.2l-24.6,26.35L264,152.78Z" style="fill:#fff;stroke:#db161b"/><ellipse cx="288.6" cy="173.28" rx="14.06" ry="11.71" style="fill:#fff;stroke:#db161b"/><path d="M264,261.16H309.9a.09.09,0,0,1,.1.08v17.41a.09.09,0,0,1-.1.08H234.57a.09.09,0,0,1-.1-.08V261.24a.09.09,0,0,1,.1-.08h22.88" style="fill:#fff;stroke:#db161b"/><path d="M333,246.52c-9.1,0-16.42,6.83-16.42,15.3v13.31c0,8.48,7.32,15.3,16.42,15.3s16.42-6.83,16.42-15.3V261.83c0-8.48-7.32-15.3-16.42-15.3Zm0,5.86c-5.46,0-9.85,5.46-9.85,12.24v7.72c0,6.78,4.4,12.24,9.85,12.24s9.85-5.46,9.85-12.24v-7.72c0-6.78-4.39-12.24-9.85-12.24Z" style="fill:none;stroke:#db161b"/><path d="M247.6,249.45c-5.46,0-9.85,5.46-9.85,12.24v13.58c0,6.78,4.4,12.24,9.85,12.24s9.85-5.46,9.85-12.24V261.69c0-6.78-4.39-12.24-9.85-12.24Zm0-5.86c-9.1,0-16.42,6.83-16.42,15.3v19.17c0,8.48,7.32,15.3,16.42,15.3S264,286.55,264,278.07V258.9c0-8.48-7.32-15.3-16.42-15.3Z" style="fill:none;stroke:#db161b"/><path d="M221.33,255.31c-5.46,0-9.85,5.46-9.85,12.24v3.19c0,6.78,4.4,12.24,9.85,12.24s9.85-5.46,9.85-12.24v-3.19c0-6.78-4.39-12.24-9.85-12.24Zm0-5.86c-9.1,0-16.42,6.83-16.42,15.3v8.78c0,8.48,7.32,15.3,16.42,15.3s16.42-6.83,16.42-15.3v-8.78c0-8.48-7.32-15.3-16.42-15.3Z" style="fill:#fff;stroke:#db161b"/><path d="M181.92,247.21c-9.82,0-17.74,6.1-17.74,13.68v15.18c0,7.58,7.91,13.68,17.74,13.68s17.74-6.1,17.74-13.68V260.9c0-7.58-7.91-13.68-17.74-13.68Zm0-6.55c-16.37,0-29.56,7.63-29.56,17.1V279.2c0,9.48,13.18,17.11,29.56,17.11s29.56-7.63,29.56-17.11V257.77c0-9.48-13.18-17.1-29.56-17.1Z" style="fill:#fff;stroke:#db161b"/><path d="M395.39,250.14c-9.82,0-17.74,6.1-17.74,13.68V279c0,7.58,7.91,13.68,17.74,13.68s17.74-6.1,17.74-13.68V263.82c0-7.58-7.91-13.68-17.74-13.68Zm0-6.55c-16.37,0-29.56,7.63-29.56,17.1v21.43c0,9.48,13.18,17.11,29.56,17.11S425,291.6,425,282.12V260.7c0-9.48-13.18-17.1-29.56-17.1Z" style="fill:#fff;stroke:#db161b"/><path d="M339.62,261.16h39.3s.05,0,.05.08v17.41s0,.08-.05.08h-39.3s-.05,0-.05-.08V261.24S339.59,261.16,339.62,261.16Z" style="fill:#fff;stroke:#db161b"/><path d="M303.47,258.23h22.93s0,0,0,.1v23.22c0,.06,0,.1,0,.1H303.47s0,0,0-.1V258.34C303.44,258.28,303.45,258.23,303.47,258.23Z" style="fill:#fff;stroke:#db161b"/><path d="M195.09,258.23H218s0,0,0,.1v23.22c0,.06,0,.1,0,.1H195.09s0,0,0-.1V258.34C195.06,258.28,195.07,258.23,195.09,258.23Z" style="fill:#fff;stroke:#db161b"/><path d="M122.87,255.31h45.85s.06.06.06.13v29c0,.07,0,.13-.06.13H122.87s-.06-.06-.06-.13v-29C122.8,255.37,122.83,255.31,122.87,255.31Z" style="fill:#fff;stroke:#db161b"/><path d="M408.59,258.23h42.58s.06.06.06.13v29c0,.07,0,.13-.06.13H408.59s-.06-.06-.06-.13v-29C408.53,258.29,408.56,258.23,408.59,258.23Z" style="fill:#fff;stroke:#db161b"/></svg>