<svg xmlns="http://www.w3.org/2000/svg" viewBox="0 0 595.3 683"><title>Pakistan</title><path d="M174.9,624.6c-5.8-3.5-14.1-2.6-20,.2a33.4,33.4,0,0,1-5.7,2.2c1,.2,2,.4,3.1.7,7.4,1.5,15.2,2.8,22.4,5.1,1,.3,2.1.7,3.1,1C180.2,631,177.8,626.4,174.9,624.6Z" style="fill:#01411c"/><path d="M21.8,322.8a4.23,4.23,0,0,1,.4-1.2,16.35,16.35,0,0,1-4-2.4c-4.8-1.8-10.3-.7-14.8,1.1a17.2,17.2,0,0,0,9.8,5.5,15.48,15.48,0,0,0,4.3,0,12.64,12.64,0,0,0,4.3-1.3A4.85,4.85,0,0,1,21.8,322.8Zm3.3-3.9a16.19,16.19,0,0,1-1.1-6.5c-2-4.5-6.1-7.5-10.1-9.5A18.52,18.52,0,0,0,17,314.5a11.58,11.58,0,0,0,2.3,2.6,11.62,11.62,0,0,0,4.1,2.5.35.35,0,0,1,.2.1,10.93,10.93,0,0,1,1.5-.8Zm-.8,11.4a8.2,8.2,0,0,0,.2-2.2c-.1-.1-.3-.1-.4-.2a3.92,3.92,0,0,1-1-.8c-.2-.2-.3-.4-.5-.6a14.41,14.41,0,0,1-4,1.3c-3.7,3.9-4.7,9.6-4.7,14.6a17.13,17.13,0,0,0,8.8-7.6A15.16,15.16,0,0,0,24.3,330.3Zm4.9-6.7v-.1a.9.9,0,0,0-.1-.5.35.35,0,0,0-.2-.1.35.35,0,0,0,.2.1,2.38,2.38,0,0,0-.6-1.1.35.35,0,0,1-.1-.2,2.08,2.08,0,0,0-1-.6,2.92,2.92,0,0,0-.9-.2h-.4a2.47,2.47,0,0,0-.9.4c-.1,0-.1,0-.1.1a1.38,1.38,0,0,1-.4.3c-.1.2-.3.3-.4.5a1.42,1.42,0,0,0-.2.6,1.09,1.09,0,0,0-.1.5v.1a2,2,0,0,0,.1.8c.1.2.1.4.2.6s.1.2.2.3.1.1.1.2.1.1.1.2a2.5,2.5,0,0,0,1.8.8h.2a2.36,2.36,0,0,0,1.6-.7l.1-.1.2-.2a.1.1,0,0,0,.1-.1,2.77,2.77,0,0,0,.5-1.6Zm2.4-6.4c3.2-5,2.4-11.4.7-16.8a15.83,15.83,0,0,0-5.7,8.8,12.61,12.61,0,0,0-.4,2.8,14.27,14.27,0,0,0,1.3,6.8h0c.2.1.5.1.7.2a15.87,15.87,0,0,1,3.4-1.8Zm5.2,26.1a16.87,16.87,0,0,0-1.5-11,14.3,14.3,0,0,0-5-5.6c-.1.1-.2.3-.4.5a5.22,5.22,0,0,1-3.2,1.4,11,11,0,0,1-.2,1.8c1,5.7,5.7,9.9,10.3,12.9Zm9.1-21.9a15.91,15.91,0,0,0-10-2.9,13.28,13.28,0,0,0-3,.6,8.45,8.45,0,0,0-2.7,1.3,3.33,3.33,0,0,1,.6,1,5.45,5.45,0,0,1,.5,2.2v.4C36.6,326,41.9,324,45.9,321.4Zm-4.4-77.3c1.4-9.5,1.9-19.6-1.9-27.9-2.4,6.4-4.2,13.9-2.7,20.5a17.89,17.89,0,0,0,1.6,4.4l-.2.2a35.49,35.49,0,0,0-3.4-3.3,61.9,61.9,0,0,0-21.7-12.3c2.1,5.9,6.6,10.1,11.8,13.1a32.44,32.44,0,0,0,3.7,1.9,8.73,8.73,0,0,0-3.7.7c-2.8,1.1-4.8,3.5-6.6,6.3a40.43,40.43,0,0,1,7.8.3c4.8.4,9.4.8,14.1-1.2.3-.1.5-.2.8-.3.1-.3.1-.7.2-1v-.3c0-.2.1-.4.1-.7A.6.6,0,0,0,41.5,244.1ZM58.2,414.9v-.3a12.88,12.88,0,0,0-1.6-1.7c-6.2-6.7-12.5-12.4-21.6-11.6a16.83,16.83,0,0,0,7.5,9.4,21.83,21.83,0,0,0,4.7,2.1,21.86,21.86,0,0,0-5.1.3A23,23,0,0,0,25.2,426c7.2,0,14.9-.2,21.2-3.6a29.22,29.22,0,0,0,3.7-2.4,31.06,31.06,0,0,0-2,4.1,45.12,45.12,0,0,0-2.7,14.5C54.1,433,57.2,423.1,58.2,414.9Zm3.6-15.4c-.6-1.2-1.1-2.5-1.7-3.7a123.36,123.36,0,0,0-6.3-12.6c-2.8-4.7-8.4-11.7-14.5-14.6,3.6,4.6,6.9,9.5,10.3,14.3,3.2,4.7,6.3,9.1,9.5,13.2a33.66,33.66,0,0,0,2.7,3.4Zm-.8-228a.6.6,0,0,1-.1-.4,5.85,5.85,0,0,1-.2-1.3,1.7,1.7,0,0,1,.1-.7,5.73,5.73,0,0,1,.4-1.4,15.23,15.23,0,0,0-4.2-.6c-5.3.1-10,3.4-13.5,7A16.8,16.8,0,0,0,55,175a13,13,0,0,0,4.3-2A12.16,12.16,0,0,0,61,171.5Zm2.8-6.3h0a12.4,12.4,0,0,0-1.1-4.5c-2.1-4.8-6.8-7.9-11.3-9.9a17.23,17.23,0,0,0,3.2,10.9,17.67,17.67,0,0,0,3,3.1,14,14,0,0,1,5.1,1,3,3,0,0,1,1.1-.6Zm1.9,17a14.78,14.78,0,0,0,.4-7.5c-.2,0-.4.1-.6.1a4.87,4.87,0,0,1-3.3-1.3,7.55,7.55,0,0,1-1.4,1.1c-3.3,4.8-3,11.2-1.7,16.6A16.7,16.7,0,0,0,65.7,182.2ZM71,272a15.81,15.81,0,0,1-3.8.4,19.6,19.6,0,0,1-5.4-.8,79.71,79.71,0,0,0-3,11c-.9,3.9-1.5,7.8-2,11.7C60.3,286.2,64.8,278.4,71,272ZM68.1,169.9v-.2a2.38,2.38,0,0,0-.3-1.2,3,3,0,0,0-.5-.7h0l-.3-.3a3.55,3.55,0,0,0-.9-.4h-.6a1.27,1.27,0,0,0-.6.1,1.42,1.42,0,0,0-.6.2c-.2.1-.3.2-.5.3h-.1a1.79,1.79,0,0,0-.5.7,1.42,1.42,0,0,0-.2.6h0c0,.1-.1.2-.1.3v.4a3.16,3.16,0,0,0,.7,1.9.35.35,0,0,0,.2.1,2.94,2.94,0,0,0,1.7.7h.4a3,3,0,0,0,1.6-.8l.1-.1c.1-.1.2-.2.2-.3h0a2.77,2.77,0,0,0,.3-1.3Zm3.5-10.4c1.4-4.5.6-9.3-.8-13.4A18.07,18.07,0,0,0,65,156.5a20,20,0,0,0-.2,3.4,13.06,13.06,0,0,0,1.2,4.8c0,.1.1.1.1.2a4.28,4.28,0,0,1,1.6.5c.1,0,.1.1.2.1a14.66,14.66,0,0,0,3.7-6ZM73.1,375h0a1.42,1.42,0,0,0-.2-.6,13.54,13.54,0,0,0-7.4-6.8c0,6.4.5,11.8,6.9,13.5C72.7,379,72.9,377,73.1,375Zm.6-22.4a.6.6,0,0,1,.1-.4l-2.4-.3c-3.4-.4-7.2-.8-10.2-3.8a9.39,9.39,0,0,0,4.1,7.2,12.69,12.69,0,0,0,9.8,1.6,5.27,5.27,0,0,1-1.4-4.3ZM75,197.8c.4-4.6.8-9.2,1.4-13.8a18.63,18.63,0,0,1-5.9-3.8,122.39,122.39,0,0,1,2.8,14.9C73.9,196,74.5,196.9,75,197.8Zm1.1,65.7.3-.6a15,15,0,0,0-11.6,1.6c-.7,1.3-1.3,2.7-1.9,4-.1.3-.3.7-.4,1a18.35,18.35,0,0,0,8.4.2,12.52,12.52,0,0,0,5.1-2.3,4.83,4.83,0,0,1,.1-3.9Zm1.7-89.3-.9-.9a11.9,11.9,0,0,0-3.3-2.2,10.07,10.07,0,0,1-2.5.3,3.75,3.75,0,0,1-1-.1,4.35,4.35,0,0,1-1.5,2.2,15.43,15.43,0,0,0,8.1,8c.3-2.4.7-4.9,1.1-7.3Zm.5-2.6c.2-.9.3-1.7.5-2.5a15.45,15.45,0,0,1-2.2,1.2,19.23,19.23,0,0,1,1.7,1.3ZM79,347.5a29.8,29.8,0,0,0-.8-9.2,27.15,27.15,0,0,0-7.9-13.2c-1.7,9.5.3,19.6,4.6,24.5a5,5,0,0,1,2.7-1.8A3.19,3.19,0,0,1,79,347.5Zm1.3-94a18.9,18.9,0,0,0-2.8-7.6c-1.7,2-3.4,4.1-5,6.3a.37.37,0,0,0,.1.3,13.82,13.82,0,0,0,5.7,8.6c.3-.1.5-.3.8-.4a15.42,15.42,0,0,1,1.2-7.2Zm-.7-87.8c.8-3.1,1.6-6.1,2.7-9.1a14.58,14.58,0,0,0-6.3,2.3,13.68,13.68,0,0,0-2.4,1.8,17.22,17.22,0,0,1-4,6.3,1.61,1.61,0,0,1,.4.7,6.47,6.47,0,0,1,.4,1.3,10.54,10.54,0,0,0,3.6-.3,14.56,14.56,0,0,0,5.6-3ZM74.7,381.1c4.4-1.4,7.4-5.1,8.3-10.3a15.23,15.23,0,0,0-7.5,4.1l-.1.1c0,.2-.1.5-.1.7a49.54,49.54,0,0,0-.6,5.4Zm4.8-101.2a15.2,15.2,0,0,0,1-7.2,15.53,15.53,0,0,1-.4-2.1c0-.1,0-.1-.1-.2a8.33,8.33,0,0,1-1.5-.4c-.3-.1-.5-.3-.8-.4-6.1,4.4-6.5,12.1-5.6,18.6A16.25,16.25,0,0,0,79.5,279.9Zm3,225.4c-.1-.1-.1-.2-.2-.3a12,12,0,0,1-1.1-1.2c-4.4-4.1-11.2-4.3-17-3.4a15.94,15.94,0,0,0,7.6,7.1,14.65,14.65,0,0,0,6.8,1.2h0l1.3-.3a8.81,8.81,0,0,1,1.7-.2h.1a5.24,5.24,0,0,1,.2-1.8,4.07,4.07,0,0,1,.6-1.1Zm.2-151.9v-.8a3,3,0,0,0-.8-1.6l-.3-.3c-.2-.1-.4-.3-.6-.4h0a1.08,1.08,0,0,0-.7-.3,1.48,1.48,0,0,0-.7-.1c-.1,0-.2-.1-.4-.1s-.3.1-.4.1h0a1.88,1.88,0,0,0-.8.2,2.29,2.29,0,0,0-1,.7,1,1,0,0,0-.5.6,3.51,3.51,0,0,0-.6,1.4v.8a2.79,2.79,0,0,0,.6,1.8c.2.2.3.4.5.6a1.38,1.38,0,0,0,.4.3,3.7,3.7,0,0,0,1.1.5c.1,0,.2.1.3.1h.8c.2-.1.4-.1.6-.2h.1a3,3,0,0,0,1.4-1h0a4.05,4.05,0,0,0,.5-.9c.1-.3.2-.6.3-1s.2-.3.2-.4Zm.2-86.9a3,3,0,0,0,.2-1.3c0-.2-.1-.3-.1-.5s0-.1-.1-.2v-.1a3.16,3.16,0,0,0-1.4-1.4.37.37,0,0,0-.3-.1c-.1,0-.1-.1-.2-.1h0c-.1,0-.2-.1-.4-.1h-.4a2.92,2.92,0,0,0-.9.2,5.5,5.5,0,0,0-.9.7,1.61,1.61,0,0,0-.4.7,3,3,0,0,0-.2,1.3.76.76,0,0,0,.1.4c.1.2.1.4.2.6a2.19,2.19,0,0,0,.9,1c.1.1.1.1.2.1s.1.1.2.1h.2a.75.75,0,0,0,.5.1c.2.1.3.1.4,0a1.69,1.69,0,0,0,1-.3,1.56,1.56,0,0,0,.8-.6c.1-.1.2-.2.2-.3a.52.52,0,0,0,.2-.4c.2.3.2.2.2.2Zm1.3,245.9a2.51,2.51,0,0,1-.7-.4,4.89,4.89,0,0,1-1.2-1.3h-.4a13.52,13.52,0,0,1-2.9.4c-6.1,1.6-10.1,7.1-12.6,12.4a17.67,17.67,0,0,0,11.7-3,14.75,14.75,0,0,0,3.2-2.9,13.39,13.39,0,0,0,2.9-5.2Zm2.4-9.2c2.8-7-1-13.8-5.2-18.7a16.59,16.59,0,0,0-1.7,11,15.73,15.73,0,0,0,3,6.7,8.64,8.64,0,0,1,1.3,1.4h0l.2.2a9.39,9.39,0,0,1,1.5-.6Zm2.5,5.3v-.8c0-.1-.1-.3-.1-.4a2,2,0,0,0-.4-.8,4.62,4.62,0,0,0-.7-.7,3.08,3.08,0,0,0-1.3-.3H86a.52.52,0,0,0-.4.2c-.1.1-.3.1-.4.2a2.34,2.34,0,0,0-.7.7c0,.1,0,.1-.1.1a.1.1,0,0,1-.1.1,3.18,3.18,0,0,0-.3.9v.9c0,.2.1.3.1.5a2,2,0,0,0,.4.8c.1.1.2.3.4.4l.2.2a2.12,2.12,0,0,0,1.9.4c.1,0,.2-.1.3-.1h0c.1,0,.1,0,.2-.1h0c.1-.1.3-.1.4-.2s.2-.1.3-.2a1.7,1.7,0,0,0,.6-.6c0-.1.1-.1.1-.2v-.1a3.71,3.71,0,0,1,.2-.9Zm-2.4,25.4A20.76,20.76,0,0,0,91.1,521a15,15,0,0,0-.2-2,12.28,12.28,0,0,0-2.5-6.4.37.37,0,0,1-.3.1,2.35,2.35,0,0,1-.8.2,2.2,2.2,0,0,1-.8.1h-.1a16.61,16.61,0,0,1-2.9,5.6C82.4,524.1,84.3,529.6,86.7,533.9Zm2-275.6c3.8-4.1,5.1-9.7,5.4-14.6a20.49,20.49,0,0,0-10.6,8.4,15,15,0,0,0-.9,1.8,14.51,14.51,0,0,0-1.4,6.8.76.76,0,0,1,.4.1,6.9,6.9,0,0,1,.8.3,2.18,2.18,0,0,1,.8.5h0a13.52,13.52,0,0,1,5.5-3.3Zm16.9,5.2a17.35,17.35,0,0,0-11.4-3.9,14.21,14.21,0,0,0-4.2.6,13.39,13.39,0,0,0-5.2,2.9l.3.6v.1a5.66,5.66,0,0,1,.3,1.8.76.76,0,0,0,.4.2,16,16,0,0,1,2.7,1.2C94.3,269,100.6,266.6,105.6,263.5ZM87.1,347.1c7-6.2,8.3-16,7.9-24.4a24.9,24.9,0,0,0-13.1,12.1,27.49,27.49,0,0,0-1.5,3.6,32,32,0,0,1,.7,9.5,5.33,5.33,0,0,1,2.3,1.6.1.1,0,0,0,.1.1,16.37,16.37,0,0,0,3.6-2.5Zm8.1-63A15.41,15.41,0,0,0,92.6,274a16,16,0,0,0-4.9-4.8,12.34,12.34,0,0,1-2.9-1.3h0a4.29,4.29,0,0,1-2.3,2.1v.4c.1.5.2,1,.3,1.6C84.2,277.8,89.8,281.7,95.2,284.1Zm1.9,84.2c-.7-.7-1.3-1.4-2-2.1a57.17,57.17,0,0,0-6.2-5.9,20.75,20.75,0,0,1-6.8-2.2,4.59,4.59,0,0,1-1.6.7C85,363.6,90.4,368.2,97.1,368.3Zm6.7,104.1c-3.1-6.4-8.1-11.4-12.2-14.8a11,11,0,0,0,.2,3.1c.5,1.5,1.1,3.1,1.7,4.6.5.3.9.7,1.4,1C97.7,468.4,100.7,470.5,103.8,472.4Zm5.8-122A22.28,22.28,0,0,0,94,347.2a17.52,17.52,0,0,0-5.6,1.8,21.18,21.18,0,0,1-3.8,2.6,5.83,5.83,0,0,1,.2,2.3c-.1.5-.2.9-.3,1.4a3.46,3.46,0,0,1-.7,1.2,18.71,18.71,0,0,0,5.8,1.6h0c7.6.8,14.7-3.3,20-7.7ZM92.5,507.5c5.8-2.3,8.7-8.1,10.1-13.4a17.16,17.16,0,0,0-10.4,5.1,14.63,14.63,0,0,0-3.1,4.8,5,5,0,0,1,2.1,3.3v.1a4.1,4.1,0,0,0,1.1.1Zm11.2-374.7a27.82,27.82,0,0,1-3-10.5,6.4,6.4,0,0,0-4-1.7c1.2,4.8,2.6,9.9,7,12.2Zm1.3,392a17.19,17.19,0,0,0-4.9-10.2,13.79,13.79,0,0,0-9.3-4.2h0c-.1.2-.2.3-.3.5s-.2.2-.2.3a16.6,16.6,0,0,1,2.8,6.8C96,521.7,100.6,523.7,105,524.8Zm2.6-398.6a29.66,29.66,0,0,0,.3-4.2,30.1,30.1,0,0,0-2.4-10.8,17.3,17.3,0,0,0-2.5,10.1,22.75,22.75,0,0,0,.2,2.6,21.92,21.92,0,0,0,1.6,5.7,23.94,23.94,0,0,0,1.3,2.8c.2-.5.3-.9.5-1.4.4-1.6.7-3.2,1-4.8Zm4.1,52.3a7,7,0,0,0-.2-2.8,7.49,7.49,0,0,1-.4-1.6h0a2.2,2.2,0,0,1-.8.1,4.38,4.38,0,0,1-2.5-.8,17.17,17.17,0,0,0-2.2,5.9,10.72,10.72,0,0,0,.7,4.4c.4.8.8,1.5,1.3,2.3.1.2.2.3.3.5a19.5,19.5,0,0,0,3.8-8Zm1.2-9.2h0a1.48,1.48,0,0,0-.1-.7,3.55,3.55,0,0,0-.4-.9c-.1-.1-.2-.2-.2-.3a2.41,2.41,0,0,0-1.8-.7h-.1a2.59,2.59,0,0,0-2.3,1.8h0a2.35,2.35,0,0,0-.2.8v.3a2.11,2.11,0,0,0,.5,1.3c.2.2.4.5.7.6a2.14,2.14,0,0,0,1.2.4h.2a.37.37,0,0,0,.3-.1,2.13,2.13,0,0,0,1.5-.7,1.79,1.79,0,0,0,.5-.7.37.37,0,0,0,.1-.3,2,2,0,0,0,.1-.8Zm-4.4-37.5c3.8-2.3,8.5-6.6,7.9-13.8a16,16,0,0,0-6.4,4.7A28.46,28.46,0,0,1,108.5,131.8Zm15.7,296.6a36.84,36.84,0,0,0-15.7,1,18.89,18.89,0,0,0-4.4,1.9,25.08,25.08,0,0,0,2.7-3.7c4.4-7.3,5-17,5.2-26-6.1,3.2-10.5,9.9-12,17.5a29.53,29.53,0,0,0-.6,5.9,20.51,20.51,0,0,0-1.8-5.8,16.27,16.27,0,0,0-6.7-7.1c-2.1,9.3,2.3,16.6,7.7,24,.4.5.8,1,1.2,1.6h.4a36.66,36.66,0,0,0,8.6-.6c.8-.2,1.6-.4,2.3-.6a23.4,23.4,0,0,0,13.1-8.1Zm-2.8-246.3a15.91,15.91,0,0,0-2.3-7.8A10.9,10.9,0,0,0,118,173a15.63,15.63,0,0,0-1.9-1.4,12.89,12.89,0,0,1-1.2-.6c0,.1,0,.1-.1.2a4.47,4.47,0,0,1-1.6,2v.2a.1.1,0,0,0,.1.1c.2.5.3,1.2.5,1.8h0a11.25,11.25,0,0,0,1.6,3.3A8.2,8.2,0,0,0,121.4,182.1ZM110.9,454.4c3.5,5.5,6.8,9.9,12.3,8.6-.8-1.8-1.7-3.6-2.5-5.4-.1-.3-.3-.6-.4-.9-.1-.1-.1-.2-.2-.3A13.43,13.43,0,0,0,110.9,454.4ZM120,163.1a9.69,9.69,0,0,0,2.2-6.7,17.16,17.16,0,0,0-7.1,3.7,9.21,9.21,0,0,0-2,3.6,13,13,0,0,0-.3,1.3v.1a5.72,5.72,0,0,1,1.6,1.5A18.41,18.41,0,0,0,120,163.1Zm10.2,350.8-6.3-.9-2.9-.3c-3.2,2.2-6.6,4.8-8.1,9.2,6.1.7,13.6-1.6,17.3-8Zm-6-3.1c2.2.3,4.4.6,6.6,1-1.7-7.4-11.2-9.9-17.6-10.2a25.39,25.39,0,0,0,4.2,4.6,28.18,28.18,0,0,1,4.1,4.4,24.53,24.53,0,0,1,2.7.2Zm1.1-48.5c5.3-4.8,7.2-10.5,5.3-15.9-3.7,3.3-6.2,6.1-7.6,9.6-.1.2-.2.5-.3.7a.37.37,0,0,1,.1.3c.8,1.7,1.7,3.5,2.5,5.3Zm14.3,32.3c-5.6-8.7-9.9-17.9-14.2-27-.3-.6-.6-1.3-.9-1.9h-.1l-.4-.6a12.66,12.66,0,0,1-2.6.4c-4.3,0-7.5-3-10.2-6.6a15.26,15.26,0,0,1-1.1-1.6c-.7-1-1.3-2-2-3l-.8-1.4,1.5-.3a16.5,16.5,0,0,1,9.5.5,148.08,148.08,0,0,0-8.1-13.9,37.3,37.3,0,0,1-8.5.9,10.87,10.87,0,0,1-1.8-.1H99a.1.1,0,0,1-.1.1h0c-1.3,2-2.6,4.1-3.7,6.1a50.67,50.67,0,0,1,11.5,10.3c.5.7.9,1.5,1.4,2.1s.7,1.1,1.1,1.7c1.2,2,2.5,4,3.7,6,4.5,7.3,9.1,14.9,14.7,21.7C131.4,490.3,135.4,492.4,139.6,494.6Zm-.5-374.7a19.3,19.3,0,0,0,0-3.4,13.81,13.81,0,0,0-.3-2,17.46,17.46,0,0,0-3.2-7.3c-.6,4.6-.5,10.3,1.7,14.8a9.5,9.5,0,0,0,1,1.7,12.8,12.8,0,0,0,.8-3.5v-.3Zm3.5,425.2v-3.2c-.7-.6-1.4-1.2-2.2-1.8-7.7-5.9-16.3-10.7-28.7-11.9,2.3,5.7,8.2,9.7,14.8,12.4,1.1.4,2.2.9,3.4,1.3a.37.37,0,0,0,.3.1c-1,.2-1.9.4-2.9.7l-.9.3c-9.1,3.1-17.2,10.5-24.5,17.6,9.1,2.5,20.3-1.4,28.4-9.2a34.23,34.23,0,0,0,3.6-4,44.78,44.78,0,0,0-1.6,5.2c-2.4,9.6-2.2,20.3-1.3,29.2,8.6-9.2,11-23.1,11.4-34.4a9.34,9.34,0,0,0,.2-2.3Zm6.1-415.7a13.86,13.86,0,0,0,5.5-1.2c-2.1-2.2-5.5-4.9-9.9-4.3-.3,0-.6.1-.9.1a10.64,10.64,0,0,0-2.5.9,7.46,7.46,0,0,0-1.2.7,12.61,12.61,0,0,0,9,3.8Zm-4.9-7.6c5.2-2.5,11.2-6.8,11.1-13.4-5.4.9-10.8,4.2-13.6,8.6a17.39,17.39,0,0,1-.1,3.2v.4a17.67,17.67,0,0,1-.3,2.1,17.23,17.23,0,0,1,2.1-.7A3.09,3.09,0,0,1,143.8,121.8Zm20.4,364.8a2.18,2.18,0,0,1,.5-.8,15.91,15.91,0,0,1-2.4-2,25.14,25.14,0,0,0-21.2-2.6c5.3,4.7,12.7,8.2,18.7,8.5a10.5,10.5,0,0,0,4-.4v-1.1c.1-.6.3-1.1.4-1.6Zm2.3,6.7c-.2-.2-.5-.3-.7-.5a4.43,4.43,0,0,1-1.2-1.5,18.49,18.49,0,0,1-4.2.6,21.27,21.27,0,0,0-9.4,8.8l3.3,1.8c4.8-1.7,9-4.6,11.3-7.8a5.51,5.51,0,0,0,.9-1.4Zm2.4-13.9c.5-6.5-3.9-12.6-8.5-17.2a16.68,16.68,0,0,0-1.3,11.3,16.89,16.89,0,0,0,4.6,8.5,10.11,10.11,0,0,0,2.8,2.2.31.31,0,0,1,.2-.1c.3-.1.6-.3.9-.4a12,12,0,0,1,1.3-4.3Zm3.1,9.9a2.44,2.44,0,0,0,0-1.2V488a4.33,4.33,0,0,1-.1-.5,2.37,2.37,0,0,0-1.1-1.3.1.1,0,0,0-.1-.1c-.1-.1-.3-.2-.4-.3s-.4-.1-.6-.2h-1c-.1,0-.2,0-.2.1a2.47,2.47,0,0,0-.9.4,3,3,0,0,0-.8.8,3.33,3.33,0,0,0-.3.6v.1a3.35,3.35,0,0,0,0,2.3h0a.76.76,0,0,0,.2.4c.1.1.1.2.2.3s.4.5.7.6c.1.1.3.2.4.3a.6.6,0,0,0,.4.1,2.85,2.85,0,0,0,1.3,0,1.42,1.42,0,0,0,.6-.2c.1-.1.2-.1.3-.2s.2-.1.2-.2a2.94,2.94,0,0,0,1-1.2h0c.1-.1.1-.2.1-.4C171.9,489.5,172,489.4,172,489.3Zm3.5,19.9a15.73,15.73,0,0,0,.7-10.1c0-.1-.1-.2-.1-.3a18.87,18.87,0,0,0-2-4.3c-.5-.7-1-1.3-1.5-1.9-.1.1-.3.2-.4.3s-.3.2-.5.3a4.51,4.51,0,0,1-2.5.7h-.3c-.3.6-.6,1.1-.9,1.6,0,5.4,3.7,10.1,7.5,13.7Zm-.1-24.7c6.6-3.2,9.7-9.5,11.2-15.1-6.3,1.1-12.7,5.1-15.6,10.4a16.27,16.27,0,0,0-1.3,3.7c.2,0,.3.1.5.1s.5.2.8.3a5.94,5.94,0,0,1,1.8,1.3,14.47,14.47,0,0,1,2.6-.7Zm17.2,9.5a17.81,17.81,0,0,0-9.9-7,16,16,0,0,0-6.5-.4,7.94,7.94,0,0,0-2.2.6c0,.1.1.2.1.3a4.74,4.74,0,0,1-.3,3.3c0,.1,0,.1-.1.1.6.6,1,1.1,1.5,1.7,5.2,3.5,11.9,2.9,17.4,1.4Zm5.3,61.1v-.4a18.55,18.55,0,0,1,1.6-9.4c-3.2,1.3-6.3,2.9-9.4,4.5-2.7,1.3-5.4,2.7-8.2,3.9,5.3-.6,11.2-.5,16,1.4Zm5.3-32.5c-.8-.7-1.7-1.3-2.6-2-7.5-5.9-15.1-11.8-22-19a16,16,0,0,1-2,9.7l-.6,1.1-.9-.8c-4-3.5-8.1-8.3-9.2-13.8a27.8,27.8,0,0,1-9,6c1.2.6,2.5,1.3,3.7,2,4.3,2.3,9.5,5.1,15,7.6h0c2.4,1.1,5,2.2,7.5,3.2a83.68,83.68,0,0,0,20.1,6Zm-.4,42.9v-.2a4.62,4.62,0,0,1-.7-.7,16,16,0,0,1-3.7-6.9c-4.5-2.2-10.4-2.4-15.7-1.9a14.7,14.7,0,0,0,6.9,7.9,19.1,19.1,0,0,0,7.7,2.3A20.14,20.14,0,0,0,202.8,565.5Zm1.5,4.6c.1-.3.1-.6.2-.8-.2-.1-.3-.3-.5-.5a5.55,5.55,0,0,1-.6-.8c-.1-.2-.1-.3-.2-.5a19.72,19.72,0,0,1-4.8.6h-.5c-5.9,2.7-9.3,8.7-11.2,14.2a19.87,19.87,0,0,0,12.8-5.1c.9-.9,1.7-1.8,2.5-2.7a15.57,15.57,0,0,0,1.6-2.8,5.93,5.93,0,0,0,.7-1.6Zm2.2-9.3a16,16,0,0,1,1.1-5.7,23.81,23.81,0,0,0-4.7-11.2.37.37,0,0,0-.3.1,16.69,16.69,0,0,0-2.6,10.5c.1.6.1,1.2.2,1.8a14.93,14.93,0,0,0,3.2,6.7c.1-.1.1-.2.2-.3a4.07,4.07,0,0,1,1.4-1.2c.1-.1.2-.1.3-.2a7.83,7.83,0,0,1,1.2-.5Zm3.7,5.5a2.44,2.44,0,0,0,0-1.2c-.1-.2-.1-.5-.2-.7a.1.1,0,0,0-.1-.1c0-.1-.1-.1-.1-.2a3,3,0,0,0-.8-.8c-.1-.1-.2-.1-.4-.2a3,3,0,0,0-1-.2,2.39,2.39,0,0,0-.9.2.1.1,0,0,0-.1.1c-.1,0-.2.1-.3.1a1.76,1.76,0,0,0-.5.4,2.07,2.07,0,0,0-.6,1v.3a.37.37,0,0,1-.1.3h0a3.44,3.44,0,0,0,.1,1.4.37.37,0,0,1,.1.3v.1a4.74,4.74,0,0,0,1,1,1.42,1.42,0,0,0,.6.2c.1,0,.1,0,.2.1h.8a2,2,0,0,0,1.1-.3c.3-.1.5-.4.7-.6l.1-.1a.1.1,0,0,1,.1-.1c.1-.4.2-.7.3-1Zm-1,25.3a17.67,17.67,0,0,0,3.5-11.9,15.82,15.82,0,0,0-2.3-7.8l-1.2-1.8c-.1.1-.1.1-.2.1a3.89,3.89,0,0,1-1.5.2,1.7,1.7,0,0,1-.7-.1,5.72,5.72,0,0,0-.7.8,18.33,18.33,0,0,1-2.1,4.2c-.5,5.9,2.1,11.7,5.2,16.3Zm6.4-31.8c2.3-3.9,2.7-8.8,2.3-13a17,17,0,0,0-8,8.5v.1a15.57,15.57,0,0,0-1.2,5.5,1.42,1.42,0,0,1,.6.2,5.25,5.25,0,0,1,2.3,1.9c.1.1.1.2.2.2s.1.3.2.4.1.1.1.2c.1-.1.3-.2.4-.3a13.59,13.59,0,0,0,3.1-3.7Zm12.9,14.9a16.41,16.41,0,0,0-8.2-7.8,14.24,14.24,0,0,0-6.9-1.2,2.77,2.77,0,0,0-.9.1,1.27,1.27,0,0,1-.1.6c0,.2-.1.4-.1.6a4.45,4.45,0,0,1-1.2,2.1,13,13,0,0,1,1,1.5h0c4.4,4.2,10.9,4.7,16.4,4.1Zm4.9-23.8c1.5-.4,2.9-.8,4.4-1.1a8.49,8.49,0,0,0-7.4-2.9A10.53,10.53,0,0,0,233.4,550.9Zm4.7,3.2a4.76,4.76,0,0,0,.7-2.3c-1.2.2-2.3.6-3.5.8a20.62,20.62,0,0,1-1.2,2.6c-.4.8-.8,1.7-1.1,2.4a8.36,8.36,0,0,0,5.1-3.5Zm7.3-18.4a5.34,5.34,0,0,0,3.3-.2c-.8-.9-1.7-1.9-2.5-2.9a15.46,15.46,0,0,1-3.1-.4c-.9-.2-1.8-.3-2.6-.4a9.36,9.36,0,0,0,4.9,3.9Zm1.5,12.9c.5,0,1-.1,1.5-.1-15-6.8-30.1-8.7-43.3-5.4a29.89,29.89,0,0,1,4.2,8.6,19.13,19.13,0,0,1,9.2-7.7l1.3-.5.2,1.4a29.18,29.18,0,0,1-.8,12.4,62.29,62.29,0,0,1,11.9-5.8,11.46,11.46,0,0,1-3.1-5.2l-.3-1,1-.3a10.18,10.18,0,0,1,11.3,3.8c.1.1.2.3.3.4s.4-.1.6-.1c2-.2,4-.4,6-.5Zm3.3-14.8a8.55,8.55,0,0,0-.2-8.9,11.22,11.22,0,0,0-2.5,5.6q1.35,1.8,2.7,3.3Zm-9.3-13.4c7.4-7.7,13.9-15.5,14.5-28.1-5.7,1.9-9.2,7-11.4,12.6-.7,1.9-1.3,3.9-1.8,5.8a40.28,40.28,0,0,0-.5-5.9h0c-2-11.8-9.5-22.3-19-25.9,1.6,8.4,3.5,17.2,7.3,24.6.6,1.1,1.2,2.2,1.9,3.3-1.2-.7-2.5-1.3-3.8-1.9a47.36,47.36,0,0,0-12.5-3.3c4.7,11.1,14.2,16.4,22.8,18.9.6.2,1.2.3,1.8.5a2.17,2.17,0,0,0,.7-.6Zm106.8,10.2a11.22,11.22,0,0,0-2.5-5.6,8.55,8.55,0,0,0-.2,8.9l2.7-3.3Zm2,5.1a9.87,9.87,0,0,0,4.9-3.9,12.66,12.66,0,0,0-2.6.4,16.45,16.45,0,0,1-3.1.4c-.8,1-1.6,1.9-2.5,2.9a4.71,4.71,0,0,0,3.3.2Zm12.4,22.1a25.58,25.58,0,0,0-1.1-2.4c-.4-.9-.9-1.7-1.2-2.6l-3.5-.9a6.15,6.15,0,0,0,.7,2.3,10.87,10.87,0,0,0,5.1,3.6Zm2.6-10.9a8,8,0,0,0-7.4,2.9c1.5.3,3,.7,4.4,1.1a9.61,9.61,0,0,0,3-4Zm14.8-45.2a47.74,47.74,0,0,0-12.5,3.4,33.66,33.66,0,0,0-3.8,1.9c.7-1.1,1.3-2.2,1.9-3.3,3.8-7.4,5.7-16.2,7.4-24.6-9.5,3.5-17,14.1-19,25.9h0a37.85,37.85,0,0,0-.5,5.8,54,54,0,0,0-1.8-5.7c-2.2-5.6-5.7-10.7-11.4-12.6.6,12.6,7.1,20.4,14.5,28.1l.6.6a18,18,0,0,0,1.9-.5C365.3,518.1,374.8,512.8,379.5,501.7Zm3.5,68.8a13,13,0,0,1,1-1.5,5.29,5.29,0,0,1-1.1-2.1c0-.2-.1-.4-.1-.6v-.6a2.77,2.77,0,0,0-.9-.1,13.45,13.45,0,0,0-7,1.3,16.82,16.82,0,0,0-8.2,7.8c5.5.6,12,.1,16.3-4.2Zm3.4-9.7a13.65,13.65,0,0,0-1.2-5.5.1.1,0,0,0-.1-.1,17.25,17.25,0,0,0-7.9-8.5c-.4,4.3,0,9.1,2.3,13a15.26,15.26,0,0,0,3.1,3.7,1.38,1.38,0,0,0,.4.3c0-.1.1-.1.1-.2s.1-.3.2-.4l.2-.2a4.75,4.75,0,0,1,2.3-1.9A1.42,1.42,0,0,0,386.4,560.8Zm3.6,5.7a2.2,2.2,0,0,0,.1-1.4h0c0-.1,0-.2-.1-.2s0-.1-.1-.2v-.1a2.29,2.29,0,0,0-.7-1,1,1,0,0,0-.5-.4.37.37,0,0,0-.3-.1l-.1-.1a2.92,2.92,0,0,0-.9-.2,3.55,3.55,0,0,0-1,.2c-.1.1-.2.1-.4.2a3,3,0,0,0-.8.8c-.1.1-.1.1-.1.2a.1.1,0,0,1-.1.1,1.42,1.42,0,0,0-.2.6,2.43,2.43,0,0,0,0,1.2v.1c.1.2.2.5.3.7l.1.1c0,.1,0,.1.1.2a1.34,1.34,0,0,0,.7.6,2,2,0,0,0,1.1.3h.8a.1.1,0,0,0,.1-.1c.2-.1.4-.1.6-.2a2.19,2.19,0,0,0,.9-1,.1.1,0,0,1,.1-.1c.3.1.4,0,.4-.2Zm-4,25.1c3.1-4.6,5.7-10.5,5.1-16.2a16.52,16.52,0,0,1-2.1-4.2,5.72,5.72,0,0,0-.7-.8,1.7,1.7,0,0,1-.7.1,5.9,5.9,0,0,1-1.4-.2c-.1,0-.1,0-.2-.1a9.39,9.39,0,0,0-1.2,1.8,18.22,18.22,0,0,0-2.3,7.8,17.41,17.41,0,0,0,3.5,11.8Zm9.1-37.1a17,17,0,0,0-2.5-10.5.37.37,0,0,0-.3-.1,23.81,23.81,0,0,0-4.7,11.2,16.47,16.47,0,0,1,1.1,5.7l1,.3c.1.1.2.1.3.2a5.26,5.26,0,0,1,1.4,1.2c.1.1.2.2.2.3a16.88,16.88,0,0,0,2.1-3.1,20.63,20.63,0,0,0,1.2-3.5A11.13,11.13,0,0,1,395.1,554.5Zm13.3,27.9c-1.9-5.5-5.3-11.5-11.2-14.2h-.5a19.73,19.73,0,0,1-4.8-.6c-.1.1-.1.3-.2.5a5.55,5.55,0,0,0-.6.8c-.1.2-.3.3-.5.5a3.09,3.09,0,0,0,.2.8,13.35,13.35,0,0,0,.7,1.8,15.57,15.57,0,0,0,1.6,2.8,20.51,20.51,0,0,0,2.5,2.7A20.2,20.2,0,0,0,408.4,582.4Zm-2.9-18.7a14.7,14.7,0,0,0,6.9-7.9c-5.3-.5-11.2-.3-15.7,1.9a16,16,0,0,1-3.7,6.9,4.62,4.62,0,0,1-.7.7v.2a19.78,19.78,0,0,0,5.4.5,17.3,17.3,0,0,0,7.8-2.3Zm15.9-72.8a.1.1,0,0,0-.1-.1,4.74,4.74,0,0,1-.3-3.3.37.37,0,0,1,.1-.3c-.7-.2-1.4-.4-2.2-.6a16,16,0,0,0-6.5.4,18.16,18.16,0,0,0-9.9,7c5.5,1.5,12.1,2.1,17.3-1.4.6-.6,1.1-1.2,1.6-1.7Zm3.5-7.3c.2,0,.3-.1.5-.1a12.57,12.57,0,0,0-1.3-3.7c-2.8-5.3-9.2-9.3-15.5-10.4,1.5,5.6,4.6,11.9,11.2,15.1a18.24,18.24,0,0,1,2.5.7,4.63,4.63,0,0,1,1.8-1.3,1.33,1.33,0,0,1,.8-.3Zm2.5,12a5.07,5.07,0,0,1-.9-1.6h-.3a4.3,4.3,0,0,1-2.5-.7,2.19,2.19,0,0,1-.5-.3c-.1-.1-.3-.2-.4-.3a13.93,13.93,0,0,0-1.5,1.9,13,13,0,0,0-2,4.3c0,.1-.1.2-.1.3a15.78,15.78,0,0,0,.6,10.1c3.7-3.7,7.4-8.4,7.6-13.7Zm1.5-5.8a3,3,0,0,0,.2-1.3,3.55,3.55,0,0,0-.2-1v-.1l-.3-.6a3,3,0,0,0-.8-.8,3,3,0,0,0-1-.4c-.1,0-.1,0-.2-.1h-1a1.42,1.42,0,0,0-.6.2c-.2.1-.3.2-.4.2l-.1.1a2.59,2.59,0,0,0-1.1,1.4.9.9,0,0,0-.1.5v.1a2.44,2.44,0,0,0,0,1.2v.2c0,.1.1.2.1.3h0a2.41,2.41,0,0,0,1,1.2c.1.1.2.1.3.2s.2.1.3.2a1.45,1.45,0,0,0,.7.2,2.85,2.85,0,0,0,1.3,0c.2,0,.3-.1.4-.1s.3-.2.5-.2c.2-.2.5-.4.7-.6s.2-.2.2-.3.1-.3.1-.5Zm5.7,16.1c1.2-.7,2.5-1.3,3.7-2a27.8,27.8,0,0,1-9-6c-1.1,5.5-5.2,10.3-9.2,13.8l-.9.8-.6-1.1a15.56,15.56,0,0,1-2-9.7c-6.8,7.1-14.5,13.1-22,19-.8.7-1.7,1.3-2.5,2a90.1,90.1,0,0,0,20.1-5.9c2.6-1,5.1-2.1,7.5-3.2,5.4-2.6,10.7-5.4,14.9-7.7Zm1.6-32.4a16.61,16.61,0,0,0-1.3-11.3c-4.6,4.6-9,10.7-8.6,17.2a16.65,16.65,0,0,1,1.4,4.3,3.55,3.55,0,0,1,.9.4c.1.1.2.1.2.2a19.87,19.87,0,0,0,2.7-2.2A18.65,18.65,0,0,0,436.2,473.5Zm4.7,29,3.3-1.8a21.81,21.81,0,0,0-9.4-8.8,14.21,14.21,0,0,1-4.2-.6,6.39,6.39,0,0,1-1.3,1.5c-.2.2-.5.3-.7.5.3.4.6.9.9,1.4,2.4,3.2,6.5,6,11.4,7.8Zm13.2-21.3a25.14,25.14,0,0,0-21.2,2.6,15.91,15.91,0,0,1-2.4,2,5.58,5.58,0,0,0,.5.8,7.49,7.49,0,0,1,.4,1.6v1.2a17,17,0,0,0,4,.4C441.4,489.4,448.8,485.9,454.1,481.2Zm.1-358.6a15.16,15.16,0,0,1-.3-2.1l-.1-.4a16.86,16.86,0,0,1-.1-3.2c-2.8-4.4-8.2-7.7-13.6-8.6,0,6.6,5.9,10.9,11.2,13.5.2,0,.5.1.7.1a9.51,9.51,0,0,1,2.2.7Zm1.1,3.1a7.46,7.46,0,0,0-1.2-.7,10.64,10.64,0,0,0-2.5-.9c-.3-.1-.6-.1-.9-.2-4.3-.6-7.8,2.1-9.9,4.3a13.86,13.86,0,0,0,5.5,1.2,12.24,12.24,0,0,0,9-3.7Zm2.6-3.7c2.1-4.5,2.3-10.2,1.7-14.8a15.27,15.27,0,0,0-3.2,7.3,13.55,13.55,0,0,0-.2,2,19.3,19.3,0,0,0,0,3.4v.4a10,10,0,0,0,.8,3.5l.9-1.8Zm14.6,335c0-.1.1-.2.1-.3s-.2-.5-.3-.7c-1.4-3.4-3.9-6.2-7.6-9.6-2,5.3-.1,11,5.2,15.9.8-1.8,1.7-3.6,2.6-5.3Zm5.3,49.1a25.39,25.39,0,0,0,4.2-4.6c-6.3.4-15.8,2.9-17.6,10.2,2.2-.3,4.4-.6,6.6-1l2.6-.3a42.37,42.37,0,0,1,4.2-4.3ZM465,513.9c3.7,6.3,11.2,8.7,17.3,7.9-1.5-4.4-4.9-7-8.1-9.2a25.34,25.34,0,0,0-2.9.4l-6.3.9Zm17-340.4v-.2a5.26,5.26,0,0,1-1.6-2c0-.1,0-.1-.1-.2a4.4,4.4,0,0,0-1.2.6,10.41,10.41,0,0,0-1.9,1.4,4.49,4.49,0,0,0-1.1,1.3,18.78,18.78,0,0,0-2.3,7.8c2.5-.5,4.5-1.3,6.1-3.4a10.15,10.15,0,0,0,1.6-3.3h0a10.55,10.55,0,0,1,.5-1.9v-.1Zm.5-8.4V165a8.58,8.58,0,0,0-.3-1.3,10,10,0,0,0-2-3.6,17.29,17.29,0,0,0-7.1-3.8,9.38,9.38,0,0,0,2.2,6.7,15.33,15.33,0,0,0,5.7,3.5A5.09,5.09,0,0,1,482.5,165.1Zm1.8,289.3a12.44,12.44,0,0,0-9.2,2.1c-.1.1-.1.2-.2.3a5.94,5.94,0,0,1-.4.8c-.9,1.8-1.7,3.6-2.6,5.4C477.5,464.4,480.8,459.9,484.3,454.4Zm2.4-322.6a28.92,28.92,0,0,1-1.5-9.1,15.11,15.11,0,0,0-6.4-4.7c-.6,7.3,4.1,11.6,7.9,13.8Zm.7,37.8v-.3a2,2,0,0,0-.1-.8h0a2.46,2.46,0,0,0-2.3-1.8h-.1a2.87,2.87,0,0,0-1.8.7l-.3.3a1.8,1.8,0,0,0-.4.9,1.7,1.7,0,0,0-.1.7h0a1.08,1.08,0,0,0,.2.8c0,.1.1.2.1.3a1.79,1.79,0,0,0,.5.7,2.75,2.75,0,0,0,1.5.8h.5a2.84,2.84,0,0,0,1.2-.4,4.35,4.35,0,0,0,.7-.6,2.84,2.84,0,0,0,.4-1.3ZM464.7,551.4c8.1,7.8,19.3,11.7,28.4,9.2-7.3-7.1-15.4-14.6-24.5-17.6l-.9-.3a24.6,24.6,0,0,0-2.9-.7c.1,0,.2-.1.3-.1,1.1-.4,2.3-.8,3.4-1.3,6.6-2.7,12.5-6.7,14.8-12.4-12.4,1.2-21,6-28.7,11.9-.7.6-1.5,1.2-2.2,1.8v3.2a17,17,0,0,0,.1,2.2c.4,11.3,2.9,25.2,11.4,34.4.9-8.8,1.1-19.6-1.3-29.2a44.77,44.77,0,0,0-1.6-5.2,50.6,50.6,0,0,0,3.7,4.1Zm24.2-367.7a7.7,7.7,0,0,0,.7-4.3,16.46,16.46,0,0,0-2.2-5.9,4.38,4.38,0,0,1-2.5.8,2.2,2.2,0,0,1-.8-.1h0a9.37,9.37,0,0,1-.4,1.6,9.44,9.44,0,0,0-.2,2.8,16.93,16.93,0,0,0,3.7,7.8c.1-.2.2-.3.3-.5a10.23,10.23,0,0,0,1.4-2.2Zm3.4-62.4a17.49,17.49,0,0,0-2.5-10.1,28.12,28.12,0,0,0-2.4,10.8,21.23,21.23,0,0,0,.3,4.3,26.64,26.64,0,0,0,1.1,4.7c.2.5.3.9.5,1.4a23.94,23.94,0,0,0,1.3-2.8,26.68,26.68,0,0,0,1.6-5.7c0-.8.1-1.7.1-2.6Zm6.1-.7a6.4,6.4,0,0,0-4,1.7,26.12,26.12,0,0,1-3,10.5c4.5-2.3,5.9-7.4,7-12.2Zm1.7,325.6c-1.1-2-2.4-4.1-3.7-6.1h0a.1.1,0,0,0-.1-.1h-2.8a38.72,38.72,0,0,1-8.6-.9,136.32,136.32,0,0,0-8.1,13.9,16.53,16.53,0,0,1,9.5-.5l1.5.3-.9,1.4a13,13,0,0,1-1,1.5,13,13,0,0,1-1,1.5c-2.9,4.4-6.4,8.3-11.3,8.3a8.24,8.24,0,0,1-2.6-.4l-.4.6h-.1c-.3.6-.6,1.3-.9,1.9-4.3,9.1-8.6,18.3-14.2,27,4.1-2.2,8.2-4.4,12.1-6.6,5.6-6.8,10.2-14.3,14.7-21.7,1.5-2.5,3.1-5.1,4.7-7.7.4-.7.9-1.4,1.4-2.1a59.33,59.33,0,0,1,11.8-10.3Zm-3.6-10.1c5.4-7.4,9.8-14.7,7.7-24a15.72,15.72,0,0,0-6.7,7.1,19.56,19.56,0,0,0-1.8,5.8,28.8,28.8,0,0,0-.6-5.9c-1.5-7.6-5.9-14.4-12-17.5.3,9,.8,18.7,5.2,26a31.76,31.76,0,0,0,2.7,3.7,24.36,24.36,0,0,0-4.4-1.9,36.93,36.93,0,0,0-15.7-1,24.26,24.26,0,0,0,13,8.2c.8.2,1.6.4,2.3.6a36.19,36.19,0,0,0,8.5.6c.2.1.3,0,.4,0a10.48,10.48,0,0,0,1.4-1.7Zm8.5,75.1c-.1-.1-.1-.2-.2-.3s-.2-.3-.3-.5h0a13.77,13.77,0,0,0-9.4,4.2,16.39,16.39,0,0,0-4.9,10.2c4.3-1.1,9-3.1,12-6.8a15.84,15.84,0,0,1,2.8-6.8Zm1-7.2a14.07,14.07,0,0,0-3.1-4.8,17.16,17.16,0,0,0-10.4-5.1c1.5,5.3,4.4,11,10.1,13.4h.2c.4,0,.7-.1,1.1-.1v-.1A5.3,5.3,0,0,1,506,504Zm4.2-240.3.3-.6a14,14,0,0,0-9.4-3.5,16.57,16.57,0,0,0-11.4,4c4.9,3,11.2,5.4,17.2,3.5a11.07,11.07,0,0,1,2.7-1.2c.1-.1.3-.1.4-.2a5.23,5.23,0,0,1,.3-1.8l-.1-.2Zm1.1,92.8a6.74,6.74,0,0,1-.9-2.6,5.83,5.83,0,0,1,.2-2.3,21.56,21.56,0,0,1-3.8-2.7,17.52,17.52,0,0,0-5.6-1.8,22.17,22.17,0,0,0-15.6,3.2c5.4,4.5,12.4,8.6,20,7.8h0a18.16,18.16,0,0,0,5.7-1.6Zm0,151.9v-.8l-.3-.9a.1.1,0,0,0-.1-.1c0-.1,0-.1-.1-.1a2.34,2.34,0,0,0-.7-.7.52.52,0,0,0-.4-.2.75.75,0,0,0-.5-.1c-.1,0-.1,0-.2-.1h-.4a2.77,2.77,0,0,0-1.3.3,2.34,2.34,0,0,0-.7.7,2,2,0,0,0-.4.8.6.6,0,0,0-.1.4v.8a3.55,3.55,0,0,0,.4.9v.1l.1.1a3.39,3.39,0,0,0,.6.6c.1.1.2.2.3.2s.2.1.3.2h0c.1,0,.1.1.2.1h0c.1,0,.2.1.3.1a3,3,0,0,0,1.9-.4c.1-.1.2-.1.2-.2l.4-.4a2,2,0,0,0,.4-.8c0-.1.1-.3.1-.4v-.1Zm-2.8,25.5c2.4-4.4,4.3-9.8,3.3-15.3a17.6,17.6,0,0,1-2.9-5.6h-.1a2.2,2.2,0,0,1-.8-.1,1.88,1.88,0,0,1-.8-.2c-.1,0-.2-.1-.3-.1a14.71,14.71,0,0,0-2.5,6.4,15,15,0,0,0-.2,2,19.9,19.9,0,0,0,4.3,12.9Zm4.3-263.5a.76.76,0,0,1,.1-.4,4.29,4.29,0,0,1-2.3-2.1h-.1a12.34,12.34,0,0,1-2.9,1.3,16,16,0,0,0-4.9,4.8,15.12,15.12,0,0,0-2.6,10.1c5.4-2.4,11-6.2,12.5-12.1a7.77,7.77,0,0,1,.2-1.6Zm1.9,88.4a3.29,3.29,0,0,1-1.6-.7,20.75,20.75,0,0,1-6.8,2.2,57.17,57.17,0,0,0-6.2,5.9c-.6.7-1.3,1.4-2,2.1C504.8,368.2,510.1,363.6,514.7,358.8Zm-.7-10.9a35.68,35.68,0,0,1,.7-9.5c-.4-1.2-.9-2.4-1.4-3.6a25.29,25.29,0,0,0-13.1-12.1c-.4,8.3.9,18.1,7.9,24.4a18.35,18.35,0,0,0,3.5,2.5.1.1,0,0,1,.1-.1,4.61,4.61,0,0,1,2.3-1.6Zm0-87.3a14.51,14.51,0,0,0-1.3-6.8l-.9-1.8a20.45,20.45,0,0,0-10.5-8.5c.3,5,1.6,10.6,5.4,14.7a15.26,15.26,0,0,1,5.4,3.1h0a5.58,5.58,0,0,1,.8-.5,6.9,6.9,0,0,0,.8-.3c0,.2.2.1.3.1Zm1.6,234.9a16.59,16.59,0,0,0-1.7-11c-4.3,4.9-8,11.7-5.2,18.7a2.77,2.77,0,0,1,.9.1,4.71,4.71,0,0,1,1.5.6l.2-.2h0a17.87,17.87,0,0,1,1.3-1.4,18.15,18.15,0,0,0,3-6.8Zm1.3-323.9a10.92,10.92,0,0,1,1.7-1.3,9.41,9.41,0,0,1-2.2-1.2c.2.8.3,1.6.5,2.5Zm.4,94.1a3,3,0,0,0-.2-1.3,2.51,2.51,0,0,0-.4-.7,2.7,2.7,0,0,0-.8-.7,2.92,2.92,0,0,0-.9-.2h-.3a.76.76,0,0,0-.4.1h0c-.1,0-.1,0-.2.1a.37.37,0,0,0-.3.1,2.54,2.54,0,0,0-1.3,1.4c-.1,0-.1,0-.1.1s-.1.1-.1.2a.9.9,0,0,0-.1.5,1.91,1.91,0,0,0,.2,1.3.1.1,0,0,0,.1.1c.1.1.1.3.2.4s.1.2.2.2a1.56,1.56,0,0,0,.8.6,1.93,1.93,0,0,0,1,.3h.4a.9.9,0,0,0,.5-.1c.1,0,.2,0,.2-.1a.1.1,0,0,0,.1-.1.35.35,0,0,0,.2-.1,2.84,2.84,0,0,0,.9-1,1.42,1.42,0,0,0,.2-.6,1.34,1.34,0,0,0,.1-.5Zm2,87.7v-.8a3.51,3.51,0,0,0-.6-1.4,2.65,2.65,0,0,0-.5-.6,2.07,2.07,0,0,0-1-.6,1.88,1.88,0,0,0-.8-.2h-.8c-.2,0-.5.1-.7.1a4.88,4.88,0,0,0-.7.3h0a2.09,2.09,0,0,0-.6.4l-.3.3a3.46,3.46,0,0,0-.8,1.6,2.49,2.49,0,0,0-.1.8v.2a3.81,3.81,0,0,0,.3,1,4.05,4.05,0,0,0,.5.9h0a2.81,2.81,0,0,0,1.4,1,.1.1,0,0,0,.1.1c.2.1.4.1.6.2h.8c.1,0,.2-.1.4-.1a2.22,2.22,0,0,0,1.1-.5c.1-.1.3-.2.4-.3a2.65,2.65,0,0,0,.5-.6,2.17,2.17,0,0,0,.8-1.8Zm1.2,27.7c-.2-1.8-.3-3.6-.6-5.4a1.7,1.7,0,0,0-.1-.7l-.1-.1a16.17,16.17,0,0,0-7.5-4.1c.9,5.2,3.9,8.9,8.3,10.3Zm2.5-92.9c.9-6.5.5-14.2-5.6-18.6a2,2,0,0,1-.8.4,7.49,7.49,0,0,1-1.6.4c0,.1,0,.1-.1.2a15.52,15.52,0,0,1-.4,2.1,16.56,16.56,0,0,0,1,7.2,17.87,17.87,0,0,0,7.5,8.3ZM521.9,195a108.59,108.59,0,0,1,2.8-14.9,22.9,22.9,0,0,1-5.9,3.8c.5,4.6,1,9.2,1.4,13.8.5-.8,1.1-1.7,1.7-2.7Zm6.7,66.2a75.65,75.65,0,0,0-4.2-6.7,17.72,17.72,0,0,1-3,5.6A16,16,0,0,1,528.6,261.2Zm-8.3,88.4c4.3-4.9,6.4-15,4.6-24.5a28.13,28.13,0,0,0-7.9,13.2,29.8,29.8,0,0,0-.8,9.2,3.19,3.19,0,0,1,1.4.3,5,5,0,0,1,2.7,1.8Zm6.3-176a4.17,4.17,0,0,1-1.5-2.2c-.4,0-.7.1-1,.1a10.07,10.07,0,0,1-2.5-.3,15.79,15.79,0,0,0-3.3,2.2,7.64,7.64,0,0,0-.9.9c.4,2.4.8,4.9,1.1,7.4a16,16,0,0,0,8.1-8.1Zm-1.3-5.9a2.51,2.51,0,0,1,.4-.7,15,15,0,0,1-4-6.3,13,13,0,0,0-2.3-1.8,16.57,16.57,0,0,0-6.3-2.3,94.55,94.55,0,0,1,2.6,9.1,15.87,15.87,0,0,0,5.7,3.1,13.83,13.83,0,0,0,3.6.3,2.38,2.38,0,0,1,.3-1.4ZM517,520.6a17.67,17.67,0,0,0,11.7,3c-2.5-5.3-6.5-10.8-12.7-12.4a28.86,28.86,0,0,1-2.9-.4h-.4a3.74,3.74,0,0,1-1.2,1.3,1.61,1.61,0,0,1-.7.4,14.54,14.54,0,0,0,2.9,5.3,30.39,30.39,0,0,0,3.3,2.8Zm6.4-13a15.94,15.94,0,0,0,7.6-7.1c-5.8-.9-12.6-.8-16.9,3.4a12,12,0,0,1-1.1,1.2c-.1.1-.2.2-.2.3a3.38,3.38,0,0,1,.6,1.2,3.72,3.72,0,0,1,.2,1.8h.1a9.85,9.85,0,0,1,1.7.2l1.3.3h0a14.57,14.57,0,0,0,6.7-1.3Zm-.7-126.5c6.4-1.8,6.9-7.1,6.9-13.5a13.54,13.54,0,0,0-7.4,6.8,1.42,1.42,0,0,0-.2.6h0c.3,2,.5,4,.7,6.1ZM530.3,160a14,14,0,0,0-.2-3.5,18.07,18.07,0,0,0-5.8-10.4c-1.4,4.1-2.1,9-.7,13.4a14.25,14.25,0,0,0,3.7,6c.1-.1.1-.1.2-.1a7.49,7.49,0,0,1,1.6-.5c0-.1.1-.1.1-.2a14.08,14.08,0,0,0,1.1-4.7Zm2,9.8v-.7h0a1.42,1.42,0,0,0-.2-.6,3,3,0,0,0-.5-.7l-.1-.1a2.19,2.19,0,0,0-.5-.3,1.42,1.42,0,0,0-.6-.2,1.27,1.27,0,0,0-.6-.1h-.5a3.55,3.55,0,0,0-.9.4c-.2.1-.2.2-.4.3h0a4.23,4.23,0,0,0-.5.7,2.38,2.38,0,0,0-.3,1.2v.2a1.75,1.75,0,0,0,.4,1.2h0c.1.1.2.2.2.3a.1.1,0,0,0,.1.1,2.14,2.14,0,0,0,1.7.8h.4a2,2,0,0,0,1.6-.7l.1-.1a2.65,2.65,0,0,0,.6-1.7Zm.4,99.7a4.18,4.18,0,0,0-.4-1c-.6-1.4-1.3-2.7-1.9-4a15,15,0,0,0-11.6-1.6l.3.6a5.26,5.26,0,0,1,0,3.9,12.52,12.52,0,0,0,5.1,2.3,16.3,16.3,0,0,0,8.5-.2ZM530,355.3a9.56,9.56,0,0,0,4.1-7.2c-3,3-6.8,3.4-10.2,3.8l-2.5.3c0,.1.1.3.1.4a5.44,5.44,0,0,1-1.3,4.3,12.28,12.28,0,0,0,9.8-1.6Zm6-164.2c1.3-5.4,1.6-11.8-1.7-16.6a6.88,6.88,0,0,1-1.3-1.1,4.87,4.87,0,0,1-3.3,1.3,1.27,1.27,0,0,1-.6-.1,13.76,13.76,0,0,0,.4,7.5A15.85,15.85,0,0,0,536,191.1Zm2.5,103.1a114.3,114.3,0,0,0-2-11.7c-.9-3.9-1.9-7.6-3-11a20.32,20.32,0,0,1-5.5.8,15.81,15.81,0,0,1-3.8-.4C530.4,278.4,534.9,286.2,538.5,294.2Zm2.1-132.5a16.81,16.81,0,0,0,3.2-10.9c-4.5,2-9.1,5.1-11.3,9.9a16.59,16.59,0,0,0-1.2,4.5h0a3.88,3.88,0,0,1,1.1.6,18.44,18.44,0,0,1,5.1-1,13,13,0,0,0,3.1-3.1Zm11.1,12.4c-3.5-3.6-8.2-6.8-13.5-7a10.21,10.21,0,0,0-4.2.6,5.73,5.73,0,0,1,.4,1.4,1.7,1.7,0,0,1,.1.7,5.07,5.07,0,0,1-.2,1.3c0,.2-.1.3-.1.4a11.51,11.51,0,0,0,1.7,1.4,14,14,0,0,0,4.3,2,16.83,16.83,0,0,0,11.5-.8Zm4.2,194.5c-6.2,2.9-11.8,9.9-14.6,14.6a123.35,123.35,0,0,0-6.3,12.6c-.6,1.2-1.1,2.5-1.7,3.7q1.35-1.5,2.7-3.3c3.2-4.1,6.3-8.6,9.5-13.2,3.5-4.9,6.8-9.8,10.4-14.4ZM570.1,426a23.38,23.38,0,0,0-16.9-12.9,21.86,21.86,0,0,0-5.1-.3,21.83,21.83,0,0,0,4.7-2.1,16.3,16.3,0,0,0,7.4-9.4c-9.1-.7-15.4,4.9-21.6,11.6-.6.6-1.1,1.1-1.6,1.7v.3c.9,8.2,4,18,12.8,23.7a45.12,45.12,0,0,0-2.7-14.5,31.07,31.07,0,0,0-2-4.1,29.22,29.22,0,0,0,3.7,2.4C555.2,425.7,562.9,426,570.1,426Zm-5.8-104.6a8.8,8.8,0,0,1,.6-1,11.26,11.26,0,0,0-2.7-1.3,16,16,0,0,0-3-.6,15.65,15.65,0,0,0-10,2.9c4.1,2.6,9.4,4.6,14.6,2.6v-.4A5.85,5.85,0,0,1,564.3,321.4Zm4.3,8.9a11,11,0,0,1-.2-1.8,4.93,4.93,0,0,1-3.2-1.4,1.76,1.76,0,0,0-.4-.5,15.19,15.19,0,0,0-5,5.6,16.87,16.87,0,0,0-1.5,11c4.7-2.9,9.4-7.1,10.3-12.9Zm-.9-11.5A14.5,14.5,0,0,0,569,312a13.5,13.5,0,0,0-.4-2.8,15.32,15.32,0,0,0-5.7-8.8c-1.7,5.4-2.5,11.9.6,16.8a12.78,12.78,0,0,1,3.4,1.9c.2-.2.5-.2.8-.3Zm3.6,4.6v-.1c0-.2-.1-.4-.1-.6l-.3-.6a1.76,1.76,0,0,0-.4-.5,1.38,1.38,0,0,0-.4-.3l-.1-.1a3.55,3.55,0,0,0-.9-.4h-.4a2.92,2.92,0,0,0-.9.2,2.07,2.07,0,0,0-1,.6c0,.1-.1.1-.1.2a2.38,2.38,0,0,0-.6,1.1.1.1,0,0,0,.1-.1.1.1,0,0,0-.1.1.9.9,0,0,0-.1.5v.1a3,3,0,0,0,.5,1.6l.1.1c0,.1.1.1.2.2h.1a2.94,2.94,0,0,0,1.7.7h.2a2.5,2.5,0,0,0,1.8-.8.35.35,0,0,0,.1-.2c.1-.1.1-.1.1-.2s.2-.2.2-.3a1.42,1.42,0,0,0,.2-.6c.1,0,.1-.3.1-.6Zm-1.1-84.5c5.2-3,9.7-7.2,11.8-13.1a62.8,62.8,0,0,0-21.7,12.3c-1.2,1.1-2.4,2.2-3.4,3.3l-.2-.1a23.17,23.17,0,0,0,1.6-4.4c1.5-6.6-.3-14.1-2.7-20.5-3.7,8.3-3.3,18.4-1.9,27.9a.37.37,0,0,0,.1.3c0,.2.1.4.1.7v.3c.1.3.1.7.2,1,.2.1.5.2.7.3,4.7,2,9.3,1.6,14.1,1.2a67,67,0,0,1,7.8-.3c-1.8-2.8-3.8-5.2-6.6-6.3a10.6,10.6,0,0,0-3.7-.7A33.64,33.64,0,0,0,570.2,238.9Zm11.1,103.5c0-5-1-10.7-4.7-14.6a13.42,13.42,0,0,1-4-1.3c-.2.2-.3.4-.5.6a4.44,4.44,0,0,1-1.1.8c-.1.1-.2.1-.4.2a16.35,16.35,0,0,0,.2,2.2,13,13,0,0,0,1.7,4.5,17.13,17.13,0,0,0,8.8,7.6Zm-3.1-27.9a18.35,18.35,0,0,0,3.1-11.6c-4,2-8,5-10.1,9.5a16.19,16.19,0,0,1-1.1,6.5,5.23,5.23,0,0,1,1.5.7c.1,0,.1,0,.2-.1a12.58,12.58,0,0,0,4.1-2.5,11.21,11.21,0,0,0,2.3-2.5Zm3.8,11.2a16.15,16.15,0,0,0,9.8-5.5c-4.6-1.8-10-2.9-14.8-1.1a13.74,13.74,0,0,1-4,2.4,5.64,5.64,0,0,1,.4,1.2,4.31,4.31,0,0,1,0,1.6,12.64,12.64,0,0,0,4.3,1.3A12.31,12.31,0,0,0,582,325.7Zm-168.7,228c-2.8-1.2-5.5-2.6-8.1-4-3.1-1.5-6.2-3.2-9.4-4.5a18.87,18.87,0,0,1,1.5,9.4v.4c4.8-1.8,10.7-1.9,16-1.3ZM117.7,512.3q-4.2-.45-9-.9c-3.5-.4-7-.7-10.6-1a17.3,17.3,0,0,1,3.5,2.7,19,19,0,0,1,5.6,12.7v1.9l-1.3-.3c-4.3-.9-9.1-2.6-12.7-5.8a21.51,21.51,0,0,1-6,15l-1,1-.7-1.2c-2.5-4.2-4.8-9.6-4.6-15.2l-1.5,1.2a20.5,20.5,0,0,1-11.1,3.5,15,15,0,0,1-3.7-.4l-1.3-.3.6-1.2c2.1-4.9,5.4-10.2,10.4-13.2a17,17,0,0,1-3.2-1,16.73,16.73,0,0,1-9.3-9.7l-.4-1.2,1.3-.2c5.1-1,11.1-1.3,16.1.9a19,19,0,0,1-1.1-3.6,19.93,19.93,0,0,1,.9-10.3,15.47,15.47,0,0,1,1.9-3.6l.8-1.1.9,1c4,4.3,8,10.3,7.8,16.9.3-.4.6-.7.9-1.1a19.24,19.24,0,0,1,13.4-5.9h1.4l-.3,1.4c-1.2,5.2-3.7,11.2-8.6,14.7l12.4,1.2c3.4.3,6.5.7,9.5,1a28.9,28.9,0,0,0-2.5-2.4c-2.3-2.1-4.6-4.3-5.5-7l-.5-1.5h1.5c7,0,20.1,2.8,21.6,12.9,12.8,2.1,25.2,5.1,37.4,8.2-19.7-8.9-40.5-19.4-59.8-31.9-3.9-2.3-7.7-4.6-11.6-6.8l-3.7-2.2c-7.4-4.4-15.1-9-22.7-13.4a30,30,0,0,1-2.8-1.7c-5.7-3.5-14.2-8.6-19.7-7.2-1.8.5-3.6,2.1-3.3,4.3.2,1.8,2,2.9,3.9,3.9a9.5,9.5,0,0,1,1.7,1c1.2.8,2.7,1.6,4.3,2.5,5.7,3.2,13.1,7.3,15.6,13.9a11.4,11.4,0,0,1,.8,3.3l-.1.1a17.09,17.09,0,0,0-2.6-2.1,24.22,24.22,0,0,0-11.1-4.7c-9.1-1-18.4-7.9-17.7-18.8.5-8.1,8.4-11.5,15.9-11.3,10.4.3,19.5,5.4,28.5,11.2l-2.4-8.7a73.43,73.43,0,0,1-12.3-11.1c-4.1-5-6.1-10.2-6-16a21.52,21.52,0,0,1,.4-4.3,25.28,25.28,0,0,0,1.8,3.7c2.9,5.1,7.1,8.9,11.9,12.2-.9-3.5-1.9-7-2.8-10.5a47.52,47.52,0,0,0-4.3-5.5,70.71,70.71,0,0,0-6.5-5.6,30.3,30.3,0,0,0-5.2-.1l-.2.2c-.9,8.1-4.2,20.5-15.6,26.8l-1.6.9v-1.9a52.23,52.23,0,0,1,2.1-15.1c-6.8,2.8-14.6,2.8-21.8,2.8H22.1l.6-1.5a25.3,25.3,0,0,1,17.1-15.4,19,19,0,0,1-6.9-10.7l-.3-1.2,1.2-.1c11.4-1.6,18.8,5.7,25.8,13.3h.2c1.1-.1,2.1-.2,3.2-.2-.1-.1-.3-.2-.4-.3-2.4-1.8-4.9-3.6-7.3-5.7-6.4-6-11-13.6-15.9-21.7-2.1-3.5-4.4-7.1-6.7-10.6-1.2-1.9-2.3-3.6-3.3-5.2-1.4.9-1.5,2.3-1.6,4.6v2.7a10.74,10.74,0,0,1-1.2,6c-.2.3-.4.7-.6,1a13.29,13.29,0,0,1-2.1,2.6c0-1.1,0-2.1-.1-3.2a15.87,15.87,0,0,0-.6-3.7c-.2-.8-.5-1.7-.7-2.4a21.26,21.26,0,0,1-1.3-5.9,15.14,15.14,0,0,1,2-8.8,2.65,2.65,0,0,1,.5-.6,90.91,90.91,0,0,0-8.4-8.9,41.17,41.17,0,0,0-4-3.3A61.78,61.78,0,0,0,6,345.5a34,34,0,0,1,5.9,1.4c.2,0,.3.1.4.1a47.93,47.93,0,0,1,17,10.3c4-1.3,8.8-.6,12.9.8a25.55,25.55,0,0,1,7.3,4.3,72.05,72.05,0,0,1-.8-13.1,75,75,0,0,0-10.2-16.4,18.31,18.31,0,0,1,.6,12.6l-.4,1.3-1.2-.7c-4.5-2.6-9.3-6.5-11.6-11.7a14,14,0,0,1-.9,1.7,19.7,19.7,0,0,1-11.4,9.1l-1.3.3v-1.4c-.2-5.1.6-11.2,3.8-15.9a22.75,22.75,0,0,1-2.6-.2,18.73,18.73,0,0,1-12.2-7.5L0,319.2l1.2-.6c4.2-1.8,9.3-3.3,14.2-2.6a.22.22,0,0,0-.2-.2,20.32,20.32,0,0,1-3.3-14.7l.2-1.4,1.3.6c3.9,1.8,8.2,4.5,11,8.5v-.1a17.29,17.29,0,0,1,7.8-11l1.1-.7.4,1.3c1.9,5.5,3.2,12.4.7,18.2.3,0,.5-.1.8-.1a16.31,16.31,0,0,1,12.1,4.3l1,.9-1.1.8c-4.1,3-8.2,4.6-11.9,4.6,5,4.3,9.3,10.5,12.8,17.5.2-3.6.5-7.2.9-10.7.3-2.8.5-5.7.7-8.5-.1-.8-.2-1.6-.3-2.5,0-.4-.1-.9-.1-1.2h0v-.3c-1.3-8.7-7.7-16.2-13.8-23.5a17.41,17.41,0,0,0-1.2-1.4h0c-1.9-2.3-3.7-4.5-5.3-6.7-9.3-12.9-11.9-23.9-8.3-34.5l1.3-3.8.8,3.9c2.1,10.2,8.6,17.9,14.8,25.3,4.1,4.9,8.4,9.9,11.3,15.7-1.8-14-5.2-28.4-16.2-38.4L30,255.4l3.6.5c8.6,1.2,14.2,7.4,19,13.2a88.5,88.5,0,0,0-10.8-19.9l-.6-.1c-5.3,2.3-10.4,1.8-15.3,1.4l-3.9-.3h0a23.39,23.39,0,0,0-5.9.3l-2.6.5,1.5-2.4c2-3.2,4.1-6.6,7.4-8.6-5.6-3.6-10.3-8.6-12-15.7l-.5-1.9,1.8.5a65.44,65.44,0,0,1,22.4,11.6c-.6-6,.7-13.2,4.2-21.4l.9-2.1,1.1,1.9c5.3,9.5,4.8,21.2,3.1,32.1-.1.6-.2,1.3-.3,1.9a3,3,0,0,1,.5.7c4.5,6.5,8.5,13.1,11.3,21.1a62,62,0,0,0-.7-12.7c-.4-2.9-1-5.9-1.7-9.2-.6-2.8-1.3-5.5-2-8.2-4.1-16.6-8.2-33.7-.7-50.8a29.16,29.16,0,0,1,2.2-4.3v4.7c.4,9.7,2.8,19.4,5,28.8,1.9,8.1,3.9,16.3,4.7,24.6.1-.4.1-.8.2-1.2,1.5-6,2.8-10.3,4.8-14.2h0c2.8-9.3,4.7-23.4,1.4-34.2l-1.7-5.5L70,191l.1.1c-.6-3.5-1.2-7.1-2.1-10.5a16,16,0,0,1-.5,2.1,25.54,25.54,0,0,1-1.4,3.5c-.1.1-.1.2-.2.3a17.46,17.46,0,0,1-7.3,7.2l-1.2.6L57,193a33.56,33.56,0,0,1-1.3-8.5v-.8a19.54,19.54,0,0,1,1.3-7.2c-.6.2-1.1.4-1.7.6a22.47,22.47,0,0,1-5.2.7,18.49,18.49,0,0,1-9.3-2.5l-1.2-.7.9-1c3.4-3.8,8.1-7.6,13.7-8.6a16.32,16.32,0,0,1-1.7-2,19.21,19.21,0,0,1-3.4-14l.2-1.4,1.3.5c4.3,1.7,8.9,4.3,11.9,8.3v-.3a20,20,0,0,1,7.8-12.8l1.2-.8.5,1.3a28.46,28.46,0,0,1,2,13.4.52.52,0,0,1,.4-.2,18.48,18.48,0,0,1,8.3-2.7,65.2,65.2,0,0,1,9.9-17.6l3.5-4.5-1.6,5.5c-4.7,15.8-7.3,31.9-9.9,47.4,0,.2-.1.3-.1.5v.7l-.2-.1c-.1.8-.3,1.6-.4,2.4,1.1-2.1,2.2-4.1,3.4-6,1.8-3.1,3.7-6,5.7-8.9-4-12,.6-24.2,5.2-32.4l2.1-3.7v4.2a53.9,53.9,0,0,0,1,9,63.14,63.14,0,0,1,1,7.6c2.3-6.7,2.9-13.7,2-22.8a12,12,0,0,1-6.6-4.9c-2-3-3-6.8-3.8-10.2l-.6-2.2h1.4a10.29,10.29,0,0,1,5.4,1.2,19.36,19.36,0,0,1,4-11.2l1.1-1.4.8,1.5a33.54,33.54,0,0,1,3.3,11.1,19.57,19.57,0,0,1,7.2-4.2l1.2-.4.2,1.3c1.3,7.9-2.9,14.9-11.1,18.7-.1.2-.2.3-.3.5.8,7.6.7,15.6-2.2,23.8,1.5-1.8,3.1-3.5,4.7-5.2s3-3.2,4.6-4.8c.6-.6,1.1-1.2,1.7-1.7l.2-.2c-2.1-7,.7-13,3.4-18.8,2.1-4.4,4.2-8.8,4.2-13.7v-2.7L125,114c5.1,5.2,5.5,12.5,4.5,18.6l.2-.2,1.6-2a48.84,48.84,0,0,1,4.9-5.3c-4.1-6-4.2-14.5-2.8-20.7l.4-1.8,1.4,1.2a17.38,17.38,0,0,1,5.3,9.8,22.19,22.19,0,0,1,14.9-7.9l1.1-.1.1,1.1c.8,7-3.8,11.9-8.9,15a16,16,0,0,1,8.7,5.9l.8,1-1.1.7c-3.1,1.8-4.8,1.9-7.8,2.1a14.75,14.75,0,0,1-10.7-4.6,44.71,44.71,0,0,0-4.6,5l-1.6,2a7,7,0,0,0-.8,1c5.8-1.4,12.1-2.5,17.7-.3l2,.8-1.9,1.1c-2.1,1.2-4.3,2.7-6.7,4.3-6.6,4.5-14,9.4-21.9,9.4a21.86,21.86,0,0,1-3.6-.3c-1.8,1.8-3.7,3.7-5.5,5.7-3.1,3.3-6.1,6.7-9,10.3-.6.8-1.3,1.6-1.9,2.5-1.4,1.8-2.8,3.7-4.1,5.6l-.6.9c-2,2.8-3.9,5.7-5.7,8.8a70,70,0,0,1,15.9-13.9c0-.2-.1-.4-.1-.6a4.82,4.82,0,0,1,4.8-4.9h.3a6.22,6.22,0,0,1,.4-1.6,11.71,11.71,0,0,1,2.5-4.4,18.28,18.28,0,0,1,9.6-4.6l1.2-.2.1,1.2c.2,3.1,0,6.4-2.5,9.3h.9c3.5.4,7.4,2.7,9.6,4.7l.9.8-.9.8c-2.3,2-4.9,3.9-8.6,3.9h-.6a6.75,6.75,0,0,1-1.4-.2,19.62,19.62,0,0,1,1.9,9.1v1.2l-1.2-.2c-3.1-.4-6.3-1.2-8.7-4.4a21.48,21.48,0,0,1-4.9,8.8l-.8.9-.8-.9c-.2-.3-.4-.5-.6-.8s-.5-.6-.7-.9a6.07,6.07,0,0,0-.7-1,11.09,11.09,0,0,1-1.7-7,18.09,18.09,0,0,1,2.4-6.7,71.78,71.78,0,0,0-18.5,18c1.4-.9,2.9-1.7,4.3-2.5a36.4,36.4,0,0,0,5.9-3.7l3.3-2.5-1.6,3.9c-2.4,5.6-6.4,9.6-10.3,13.4-3,3-5.9,5.9-8,9.4-.1.8-.3,1.5-.4,2.3,2.2-1.9,4.4-3.7,6.6-5.5,5.3-4.3,10.4-8.5,14.4-13.5.9-1.1,1.7-2.3,2.5-3.5a34.41,34.41,0,0,1-.5,4.5,2.92,2.92,0,0,1-.2.9c-1,5.6-4.3,11.5-8.3,16.5-.1.2-.3.3-.4.5a56.7,56.7,0,0,1-8.2,8.1c-.9.7-1.7,1.3-2.5,2-2.4,1.9-4.7,3.7-6.9,5.7,0,.1-.1.2-.1.3l-.2-.1a31.44,31.44,0,0,0-6,7.5,60.08,60.08,0,0,0-3.8,8.2,113.53,113.53,0,0,1,11.4-10.4c6.6-5.5,13.4-11.2,17.5-18.4.5-.9,1-1.8,1.4-2.7a8.51,8.51,0,0,1,.9,3.1,15.76,15.76,0,0,1-.6,7,22.78,22.78,0,0,1-5.8,9.9c-4.5,4.6-8.8,8.9-12.7,13.4a22.87,22.87,0,0,1,3,6.3,22,22,0,0,1,13-9.4l1.4-.3v1.4c-.1,4.9-1.1,10.7-4.2,15.3A12.1,12.1,0,0,1,94,257a19.38,19.38,0,0,1,14.1,5.6l1,1-1.1.8c-4.2,2.8-9.6,5.4-15.1,5.4h-.6a19.86,19.86,0,0,1,2.2,2.7,17.1,17.1,0,0,1,2.7,13.2l-.3,1.3-1.2-.5c-4.8-2-10-5-13-9.6a24.18,24.18,0,0,1-1,3.6l-.6,1.2c-.2.4-.4.7-.6,1.1s-.4.7-.6,1a17.5,17.5,0,0,1-8,6.8l-1.3.5-.2-1.3c-.8-4.5-1.1-9.9.5-14.5C64.2,283,59.6,292.5,56,301.8c-.4,5-.6,10-.8,15,3.1-5.8,8.1-10.7,12.9-15.5,4.4-4.4,8.9-8.8,12.1-13.9.7-1.2,1.4-2.4,2-3.7a21.63,21.63,0,0,1,.2,4.4c-.1,12.2-7.2,22.1-14.1,31.8-.1.1-.2.2-.2.3-4.1,5.8-8,11.3-10.4,17.2-2.2,7.7-2.4,15.9-1.8,24.1.1,1.2.2,2.5.4,3.8.2,2.1.5,4.3.8,6.5,2.2,3.5,4.1,7.3,5.9,10.9,1.2,2.5,2.4,5.2,3.5,7.7,1.7,3.8,3.4,7.7,5.3,11.4q-.15-9.45.6-18.6c-8.9-2.2-8.9-10.2-8.9-17.4v-1.5l1.5.5a17.16,17.16,0,0,1,8.9,6.3c.6-4.1,1.5-8.2,2.5-12.2a16.11,16.11,0,0,1-4.4.6,14.33,14.33,0,0,1-7.9-2.3c-3.9-2.7-5.7-7.1-5-12.3l.4-3.1,1.6,2.7c2.7,4.3,6.3,4.8,10.6,5.2.2,0,.4.1.6.1-4.2-5.8-6.3-15.9-3.7-26.9L69,321l1.3,1.1a31.68,31.68,0,0,1,9.2,12.7,11.73,11.73,0,0,1,.5-1.1A27.6,27.6,0,0,1,95.8,320l1.3-.4.1,1.4c.6,7.8-.2,17.2-5.4,24.3a12.86,12.86,0,0,1,1.9-.4,24.72,24.72,0,0,1,18.4,4.4l1.1.8-1,.9c-5.2,4.6-12.1,9-19.7,9.3,1.5,1.3,2.8,2.8,4.2,4.2,1.2,1.3,2.5,2.6,3.8,3.8l1.7,1.6-2.3.3a19.42,19.42,0,0,1-2.4.2H97c-7.8-.2-13.9-5.6-18.7-10.8-1,4-1.8,7.9-2.4,11.9a21.81,21.81,0,0,1,8.2-3.4l1.5-.3-.1,1.5c-.7,7.3-4.9,12.5-11,14.1A210.76,210.76,0,0,0,74,406c.6.9,1.1,1.9,1.7,2.7,2.1-7,6.4-12.3,10.6-17.6,4.1-5.1,8-10.1,9.9-16.2a16.54,16.54,0,0,0,.7-3.2,13.69,13.69,0,0,1,1.6,3.2c2.2,5.6.4,11-1.5,15.2-1,2.3-2.3,4.6-3.5,6.8-.4.7-.7,1.3-1.1,2a60.31,60.31,0,0,0-4.6,9.6A54,54,0,0,0,84.9,422a80.06,80.06,0,0,0,0,12c.4,2.3.8,4.4,1.3,6.6.5.3,1,.6,1.4.9,1.4.9,2.8,1.7,4.2,2.6a8.34,8.34,0,0,0,1.2.8c1.2-2.1,2.5-4.1,3.8-6.1.1-.2.3-.5.4-.7-6-8.2-11.4-16.8-8.2-27.9l.3-1.2,1.2.6a18.59,18.59,0,0,1,7.7,6.5c2.3-7.9,7.5-14.6,14.4-17.4l1.7-.7-.1,1.8c-.3,9-.6,18.9-4.5,26.9a44.84,44.84,0,0,1,16.3-.2l1.8.3-1,1.5a27.22,27.22,0,0,1-14.7,10.3,149.6,149.6,0,0,1,8.9,15.6c1.8-3.7,4.8-6.8,8.9-10.4l1-1,.6,1.3c3.4,6.8,1.3,14.3-5.7,20.3.4.8.7,1.6,1.1,2.3,4.8,10.2,9.7,20.7,16.3,30.2,1.6.9,3.2,1.7,4.8,2.6a.76.76,0,0,0,.5.2,24.8,24.8,0,0,1,7.5-8.1,33.89,33.89,0,0,1-18.2-10.1l-1.2-1.2,1.6-.6a27.9,27.9,0,0,1,20.4-.1,20.49,20.49,0,0,1-2.2-5.7,18.22,18.22,0,0,1,2.3-14.2l.7-1.1.9.9c4.6,4.3,9.3,10.1,10.2,16.5a25.67,25.67,0,0,1,17-9.1l1.5-.2-.3,1.5c-1.2,5.4-3.7,11.8-9.2,16a12,12,0,0,1,3.2.6,19.84,19.84,0,0,1,12,9.3l.6,1.2-.8.3-.5.1h0c-.2.1-.4.1-.6.2l-3.3.9a31.83,31.83,0,0,1-6.2.7,21.61,21.61,0,0,1-7.1-1.2c.2.4.3.8.5,1.2,7.4,8.3,15.9,14.9,24.2,21.4.9.7,1.9,1.5,2.9,2.3-.1-5.5-2.9-11.1-5.7-16.6-.9-1.7-1.8-3.4-2.5-5.1-.4-1-.9-2-1.3-3,.8.3,1.6.7,2.4,1a57.78,57.78,0,0,1,12.7,7.6,53.15,53.15,0,0,1,7.3,6.9l.1.1a47.6,47.6,0,0,1,6.9,10.5c5.8,10.4,16.6,17.2,32,20.5-2.3-1.9-4.4-3.9-6.4-5.9a7.68,7.68,0,0,1-3.6.9,6.93,6.93,0,0,1-2-.3c-3.2-.9-5.8-3.9-7.1-6.4l-.6-1.2,1.3-.4c1.7-.6,3.5-.2,5.2.1a2.49,2.49,0,0,0,.8.1c-1.4-2-2.8-4-4-6-.2-.4-.4-.7-.6-1.1l-1.1-.3a40,40,0,0,1-18.7-10.7,5.8,5.8,0,0,1-1-1.2,31.88,31.88,0,0,1-5.8-10.1l-.6-1.6,1.6.2a51.33,51.33,0,0,1,12.6,2.8c-3.4-7.7-5.2-16.5-6.7-24.7l-.4-1.8,1.8.5c10.2,2.8,18.6,13,21.7,25,2.7-5.4,6.8-10,13.1-11.5l1.4-.3v1.4c-.1,14.1-7.1,22.9-14.8,30.8a6.47,6.47,0,0,0-.8.9c.2.4.5.8.7,1.2.9,1.5,1.9,3.1,3,4.6a11.82,11.82,0,0,1,3.6-5.9l.8-.7.7.8a10.64,10.64,0,0,1,.9,13,70.27,70.27,0,0,0,8.1,7.3,27.17,27.17,0,0,1,5.8-21.3c3-3.8,6-7.9,6.7-12.1a19.66,19.66,0,0,0-1-9.1,7.56,7.56,0,0,0-1.8-2.9,20.63,20.63,0,0,1,3.5,1.2,15,15,0,0,1,7.6,6.6c2.4,4.5,1.9,9.7-1.4,15.4a47.85,47.85,0,0,1-2.9,4.4c-2.1,3.1-3.9,5.8-4.9,9.8a22.85,22.85,0,0,0,3.8,18,19.31,19.31,0,0,0,3.2,3.2,39.59,39.59,0,0,1,4-23.7,19.94,19.94,0,0,1,2.2-3.2c0,1.3,0,2.5.1,3.7.7,11.2,5.9,19.6,12.9,27.1,7-7.4,12.2-15.8,12.9-27.1.1-1.2.1-2.4.1-3.7a14.77,14.77,0,0,1,2.1,3.2c3.6,6.4,5.2,16.3,4,23.7a16.14,16.14,0,0,0,3.2-3.2c3.6-4.8,5.2-12.4,3.8-18-1-4-2.8-6.7-4.9-9.8-.9-1.4-1.9-2.8-2.8-4.4-3.3-5.7-3.8-10.9-1.4-15.4a15,15,0,0,1,7.6-6.6,24.15,24.15,0,0,1,3.5-1.2,9,9,0,0,0-1.8,2.9,19.79,19.79,0,0,0-1,9.1c.7,4.2,3.7,8.3,6.7,12.1,5,6.5,7,13.9,5.8,21.3a70.27,70.27,0,0,0,8.1-7.3,10.62,10.62,0,0,1,.9-13l.8-.8.8.7a11.05,11.05,0,0,1,3.6,5.9,45.3,45.3,0,0,0,3-4.6,7.46,7.46,0,0,0,.7-1.2l-.9-.9c-7.6-7.9-14.7-16.7-14.8-30.8v-1.4l1.3.3c6.3,1.5,10.4,6.1,13.1,11.5,3.1-12,11.5-22.3,21.7-25l1.8-.5-.4,1.8c-1.6,8.2-3.3,17.1-6.8,24.7a53.4,53.4,0,0,1,12.6-2.8l1.7-.2-.6,1.5a35.2,35.2,0,0,1-5.8,10.1c-.3.4-.7.8-1,1.2-5.6,6-12.8,9.1-18.7,10.7-.4.1-.8.2-1.1.3-.2.4-.4.7-.6,1.1a48.15,48.15,0,0,1-4,6,2.49,2.49,0,0,1,.8-.1,9.19,9.19,0,0,1,5.2-.1l1.2.4-.6,1.2c-1.3,2.5-3.8,5.5-7.1,6.4a6.45,6.45,0,0,1-2,.3,8,8,0,0,1-3.6-.9,72.15,72.15,0,0,1-6.4,5.9c15.4-3.2,26.2-10.1,32-20.5a45.38,45.38,0,0,1,6.9-10.5.1.1,0,0,1,.1-.1,48,48,0,0,1,7.3-6.9,61.93,61.93,0,0,1,12.7-7.6,24.42,24.42,0,0,1,2.4-1c-.4,1-.8,2-1.3,3-.8,1.7-1.6,3.3-2.5,5.1-2.8,5.4-5.7,11-5.7,16.6l2.9-2.3c8.3-6.5,16.9-13.1,24.2-21.4a6.12,6.12,0,0,1,.5-1.2,19.46,19.46,0,0,1-7.2,1.2,31.83,31.83,0,0,1-6.2-.7,15.91,15.91,0,0,1-3.3-.9c-.2-.1-.4-.1-.6-.2l-.5-.1-.8-.3.7-1.2a19.84,19.84,0,0,1,12-9.3,18,18,0,0,1,3.2-.6c-5.5-4.2-8-10.5-9.2-16l-.3-1.5,1.5.2a25.67,25.67,0,0,1,17,9.1c.9-6.4,5.6-12.2,10.2-16.5l1-.9.7,1a18.36,18.36,0,0,1,2.3,14.2,23.21,23.21,0,0,1-2.2,5.7,26.93,26.93,0,0,1,20.4.1l1.6.6-1.2,1.2c-5.7,5.8-12.3,9.1-18.2,10.1a24.8,24.8,0,0,1,7.5,8.1c.2-.1.3-.2.5-.2,1.6-.9,3.2-1.7,4.8-2.6,6.7-9.5,11.6-20,16.3-30.2.4-.8.7-1.5,1.1-2.3-7-6-9.1-13.4-5.7-20.3l.6-1.3,1,1c4.1,3.6,7.1,6.7,8.9,10.4a127.62,127.62,0,0,1,8.9-15.6,27.22,27.22,0,0,1-14.7-10.3l-1-1.5,1.8-.3a41.31,41.31,0,0,1,16.4.2c-3.9-8-4.2-17.9-4.5-26.9v-1.8l1.7.7c7,2.8,12.2,9.4,14.4,17.4a17.63,17.63,0,0,1,7.8-6.5l1.2-.6.4,1.2c3.2,11.2-2.2,19.8-8.2,27.9a4.35,4.35,0,0,1,.4.7c1.3,2,2.6,4,3.7,6.1a5.67,5.67,0,0,1,1.3-.8c1.4-.9,2.8-1.8,4.2-2.6.5-.3,1-.6,1.4-.9.5-2.1.9-4.4,1.3-6.6a68.68,68.68,0,0,0,0-12,54,54,0,0,0-2.9-13.5,59.77,59.77,0,0,0-4.5-9.6c-.4-.6-.7-1.3-1.1-2-1.2-2.2-2.5-4.5-3.5-6.8-1.9-4.3-3.7-9.6-1.5-15.2a14.3,14.3,0,0,1,1.7-3.2,30.05,30.05,0,0,0,.7,3.2c1.8,6.2,5.7,11.1,9.9,16.2s8.5,10.6,10.6,17.6c.6-.9,1.2-1.8,1.7-2.7.2-7.8.1-15.2-.4-22.6-6.1-1.5-10.2-6.7-11-14.1l-.2-1.5,1.5.3a21.81,21.81,0,0,1,8.2,3.4c-.6-4-1.4-7.9-2.4-11.9-4.8,5.2-10.9,10.6-18.7,10.9h-.5a19.42,19.42,0,0,1-2.4-.2l-2.3-.3,1.7-1.7c1.3-1.2,2.5-2.5,3.8-3.8a55.48,55.48,0,0,1,4.2-4.2c-7.6-.3-14.5-4.7-19.7-9.3l-1-.9,1.1-.8a24.28,24.28,0,0,1,18.4-4.4c.6.1,1.3.3,1.9.4-5.2-7-6-16.5-5.4-24.3l.1-1.4,1.3.4a26.73,26.73,0,0,1,15.7,13.7,9.74,9.74,0,0,1,.5,1.1,29.3,29.3,0,0,1,9.2-12.7l1.4-1.1.4,1.7c2.6,11,.5,21.1-3.7,26.9.2,0,.4-.1.6-.1,4.2-.5,7.9-.9,10.5-5.2l1.6-2.7.4,3.1c.7,5.3-1.1,9.7-5,12.3a14.33,14.33,0,0,1-7.9,2.3,16.66,16.66,0,0,1-4.4-.6c1,4.1,1.8,8.2,2.5,12.2a17.16,17.16,0,0,1,8.9-6.3l1.5-.5v1.6c0,7.1,0,15.2-8.9,17.4.5,6.1.6,12.3.6,18.6,1.9-3.7,3.6-7.6,5.3-11.4,1.1-2.6,2.3-5.2,3.5-7.7a89.1,89.1,0,0,1,5.9-10.9c.3-2.1.6-4.3.8-6.5.1-1.3.3-2.5.3-3.8.6-8.1.4-16.3-1.8-24.1-2.4-5.9-6.2-11.4-10.3-17.2-.1-.1-.1-.2-.2-.3-6.9-9.7-13.9-19.6-14.1-31.8,0-1.4.1-2.9.2-4.3a26.43,26.43,0,0,0,2,3.7c3.2,5.1,7.7,9.5,12.1,13.9,4.9,4.8,9.9,9.7,13,15.5-.2-5-.4-10-.8-15-3.6-9.3-8.2-18.8-14.9-26.5,1.6,4.7,1.3,10,.5,14.5l-.2,1.3-1.2-.5a17.5,17.5,0,0,1-8-6.8c-.2-.3-.4-.7-.6-1a10.9,10.9,0,0,1-.6-1.1l-.6-1.2a16.15,16.15,0,0,1-1-3.6c-3,4.6-8.2,7.6-13,9.6l-1.2.5-.3-1.3a17.45,17.45,0,0,1,2.7-13.2,14.42,14.42,0,0,1,2.2-2.7h-.6c-5.5,0-10.9-2.6-15.1-5.4l-1.1-.8.9-.9a19.63,19.63,0,0,1,14.1-5.6c.6,0,1.3.1,1.9.1-3.1-4.6-4.1-10.4-4.2-15.3v-1.4l1.4.3a21.29,21.29,0,0,1,13,9.4,20.93,20.93,0,0,1,3-6.2c-4-4.5-8.2-8.8-12.7-13.4a22.78,22.78,0,0,1-5.8-9.9,17.37,17.37,0,0,1-.6-7,15.83,15.83,0,0,1,.9-3.1c.4.9.9,1.8,1.4,2.7,4.1,7.3,10.9,12.9,17.5,18.4a113.54,113.54,0,0,1,11.4,10.4,50.1,50.1,0,0,0-3.8-8.2,31.44,31.44,0,0,0-6-7.5l-.2.1c0-.1-.1-.2-.1-.3-2.1-2-4.5-3.8-6.9-5.7-.8-.7-1.7-1.3-2.5-2a52.07,52.07,0,0,1-8.2-8.1,2.09,2.09,0,0,1-.4-.6,6.47,6.47,0,0,0-.8-.9c-3.7-4.8-6.6-10.2-7.6-15.5a2.77,2.77,0,0,1-.1-.9,34.42,34.42,0,0,1-.5-4.5c.8,1.2,1.6,2.4,2.5,3.5,4,5,9.1,9.2,14.3,13.5,2.2,1.8,4.4,3.6,6.6,5.5a15.53,15.53,0,0,0-.5-2.3c-2.1-3.6-5-6.4-8-9.4-3.9-3.8-7.9-7.8-10.3-13.4l-1.6-3.9,3.3,2.5a44.92,44.92,0,0,0,5.9,3.7c1.4.8,2.9,1.6,4.3,2.5a70.28,70.28,0,0,0-18.4-18.1,18.09,18.09,0,0,1,2.4,6.7,12.16,12.16,0,0,1-1.7,7c-.5.7-.9,1.4-1.4,2-.2.3-.4.5-.6.8l-.8.9-.8-.9a20.85,20.85,0,0,1-4.9-8.8c-2.5,3.2-5.7,4-8.7,4.4l-1.2.1v-1.2a20.42,20.42,0,0,1,1.9-9.1,6.75,6.75,0,0,1-1.4.2h-.6c-3.7,0-6.3-1.8-8.6-3.9l-.9-.8.9-.8a18.21,18.21,0,0,1,9.5-4.7h.9c-2.4-3-2.6-6.2-2.5-9.3l.1-1.2,1.2.2a18.64,18.64,0,0,1,9.6,4.6,11.12,11.12,0,0,1,2.5,4.4c.1.4.2.9.4,1.6h.3a4.89,4.89,0,0,1,4.8,4.9,1.27,1.27,0,0,1-.1.6,67.2,67.2,0,0,1,15.8,13.9c-1.8-3-3.7-6-5.7-8.8l-.6-.9c-1.3-1.9-2.7-3.8-4.2-5.6-.6-.8-1.3-1.6-1.9-2.5-2.9-3.6-5.9-7.1-9-10.3-1.8-2-3.7-3.9-5.5-5.7a21.86,21.86,0,0,1-3.6.3c-8,0-15.3-4.9-21.9-9.4-2.3-1.6-4.5-3-6.7-4.3l-1.8-1.1,2-.8c5.6-2.2,11.9-1.2,17.7.3a3.92,3.92,0,0,1-.8-1l-1.7-1.9a44.71,44.71,0,0,0-4.6-5,14.21,14.21,0,0,1-10.7,4.6c-3-.2-4.7-.3-7.8-2.1l-1.1-.7.8-1a16,16,0,0,1,8.7-5.9c-5.1-3.2-9.7-8-8.9-15l.1-1.1,1.1.1a22.19,22.19,0,0,1,14.9,7.9,17.38,17.38,0,0,1,5.3-9.8l1.4-1.2.4,1.8c1.3,6.2,1.2,14.7-2.8,20.7a48.84,48.84,0,0,1,4.9,5.3l1.6,2,.2.2c-1-6.1-.6-13.4,4.5-18.6l1.9-1.9v2.7c0,4.9,2.1,9.4,4.2,13.7,2.7,5.8,5.6,11.8,3.5,18.8l.2.2,1.7,1.7c1.5,1.5,3.1,3.2,4.6,4.8s3.1,3.4,4.7,5.2c-2.9-8.2-3-16.2-2.2-23.8-.1-.2-.2-.3-.2-.5-8.3-3.8-12.4-10.8-11.1-18.7l.2-1.3,1.2.4a18.36,18.36,0,0,1,7.1,4.2,33.54,33.54,0,0,1,3.3-11.1l.8-1.5,1.1,1.3a19.15,19.15,0,0,1,4,11.2,10.05,10.05,0,0,1,5.4-1.2h1.4l-.6,2.2c-.8,3.3-1.7,7.1-3.8,10.2a5.55,5.55,0,0,1-.6.8,12,12,0,0,1-6,4.1c-.9,9-.3,16.1,2,22.7a61.5,61.5,0,0,1,1-7.5,56.34,56.34,0,0,0,1-9v-4.2l2.1,3.7c4.6,8.2,9.1,20.4,5.2,32.4,2,2.8,3.9,5.8,5.7,8.9,1.2,2,2.3,4,3.4,6-.1-.8-.3-1.6-.4-2.4h-.2v-.7c0-.2-.1-.3-.1-.5-2.6-15.5-5.2-31.6-9.9-47.4l-1.6-5.5,3.6,4.5a68.35,68.35,0,0,1,9.9,17.6,18.1,18.1,0,0,1,8.3,2.7.76.76,0,0,0,.4.2,28.46,28.46,0,0,1,2-13.4l.5-1.3,1.1.8a20.17,20.17,0,0,1,7.9,12.8.37.37,0,0,0,.1.3c3-4,7.6-6.6,11.9-8.3l1.3-.5.2,1.4a18.72,18.72,0,0,1-3.5,14,16.32,16.32,0,0,1-1.7,2c5.5,1,10.2,4.8,13.7,8.5l1,1-1.2.7a18.49,18.49,0,0,1-9.3,2.5,17.45,17.45,0,0,1-5.1-.7c-.6-.2-1.2-.4-1.7-.6a19.92,19.92,0,0,1,1.3,7.2v.8a38.71,38.71,0,0,1-1.4,8.5l-.4,1.3-1.2-.6a17.46,17.46,0,0,1-7.3-7.2l-.1-.1-.1-.1a14.35,14.35,0,0,1-1.4-3.4,16,16,0,0,1-.5-2.1c-.9,3.5-1.6,7-2.2,10.5a.1.1,0,0,1,.1-.1l3.6-4.5-1.7,5.6c-3.3,10.8-1.4,24.9,1.4,34.2h0c2.1,4,3.3,8.3,4.8,14.2a5,5,0,0,1,.2,1.2,197.94,197.94,0,0,1,4.7-24.6c2.2-9.4,4.6-19.1,5-28.8.1-1.6.1-3.2.1-4.8.8,1.4,1.5,2.9,2.2,4.3,7.5,17.1,3.4,34.2-.7,50.8-.7,2.7-1.3,5.5-1.9,8.2a86.52,86.52,0,0,0-2.4,21.9,90.51,90.51,0,0,1,11.3-21.1c.2-.2.3-.5.5-.7-.1-.7-.2-1.3-.3-1.9-1.7-10.9-2.2-22.7,3.1-32.1l1.1-2,.9,2.1c3.4,8.2,4.8,15.4,4.2,21.4a65.44,65.44,0,0,1,22.4-11.6l1.8-.5-.4,1.9c-1.7,7.1-6.5,12.1-12,15.7,3.3,1.9,5.4,5.4,7.4,8.6l1.5,2.4-2.6-.5a29.2,29.2,0,0,0-5.9-.3h0c-1.3,0-2.6.2-3.9.3-4.9.4-10.1.8-15.4-1.4l-.6.1a88.5,88.5,0,0,0-10.8,19.9c4.9-5.8,10.5-12,19-13.2l3.6-.5-2.7,2.5c-11,10.1-14.4,24.4-16.2,38.4,3-5.8,7.2-10.8,11.3-15.7,6.3-7.4,12.7-15.1,14.8-25.3l.8-3.9,1.3,3.8c3.7,10.6,1.1,21.6-8.2,34.5-1.6,2.2-3.4,4.4-5.3,6.7h-.1c-.4.5-.8.9-1.2,1.4-6.2,7.3-12.5,14.9-13.9,23.5v.3a5.28,5.28,0,0,0-.1,1.3c-.1.9-.2,1.7-.3,2.5.2,2.9.5,5.7.7,8.5.3,3.6.6,7.1.9,10.7,3.6-7,7.8-13.2,12.8-17.5-3.8-.1-7.8-1.6-12-4.6l-1.1-.8,1-1a16.31,16.31,0,0,1,12.1-4.3c.2,0,.5.1.8.1-2.5-5.7-1.2-12.6.7-18.1l.5-1.3,1.1.7a17.29,17.29,0,0,1,7.8,11v.1c2.8-4,7.1-6.7,11-8.5l1.3-.6.2,1.4a19.85,19.85,0,0,1-3.3,14.7c-.1.1-.1.2-.2.3,4.9-.7,10,.8,14.2,2.6l1.3.6-.8,1.1a18.49,18.49,0,0,1-12.2,7.5,11.4,11.4,0,0,1-2.6.2c3.3,4.7,4,10.7,3.8,15.9v1.4l-1.3-.3a18.87,18.87,0,0,1-11.5-9.1,13,13,0,0,1-.8-1.7c-2.2,5.2-7,9.1-11.6,11.7l-1.2.7-.4-1.3a18.88,18.88,0,0,1,.6-12.6,75,75,0,0,0-10.2,16.4,71.51,71.51,0,0,1-.8,13.1,25.55,25.55,0,0,1,7.3-4.3c4-1.4,8.8-2.1,12.9-.8a46.53,46.53,0,0,1,17-10.3.6.6,0,0,1,.4-.1,39,39,0,0,1,5.9-1.4c-1.9,1.1-3.6,2.3-5.4,3.5-1.3,1-2.6,2.1-4,3.3a81.21,81.21,0,0,0-8.5,8.9,4.35,4.35,0,0,1,.4.7,15.54,15.54,0,0,1,2,8.8,21.26,21.26,0,0,1-1.3,5.9c-.3.8-.5,1.6-.8,2.5a23.76,23.76,0,0,0-.6,3.7c-.1,1-.1,2.1-.1,3.2a12.66,12.66,0,0,1-2.1-2.5,8.78,8.78,0,0,1-.6-1,10.42,10.42,0,0,1-1.2-5.9v-2.2l-.1-.6c-.1-2.3-.2-3.6-1.6-4.5-1,1.6-2.1,3.3-3.3,5.2-2.4,3.5-4.6,7.1-6.7,10.6-4.9,8-9.6,15.7-15.9,21.6-2.4,2-4.9,3.9-7.3,5.7-.1.1-.3.2-.4.3,1.1,0,2.1.1,3.2.2h.2c7-7.6,14.4-14.9,25.8-13.3l1.2.2-.3,1.2a19,19,0,0,1-6.8,10.7,25.53,25.53,0,0,1,17.1,15.4l.6,1.6h-1.7c-7.2,0-15,0-21.8-2.8a52.23,52.23,0,0,1,2.1,15.1v1.8l-1.6-.9c-11.4-6.2-14.7-18.6-15.6-26.8l-.2-.2a45.1,45.1,0,0,0-5.2,0,58.07,58.07,0,0,0-6.5,5.6,30.34,30.34,0,0,0-4.4,5.5c-.9,3.5-1.9,7-2.8,10.5,4.7-3.3,8.9-7.1,11.8-12.2a25.28,25.28,0,0,0,1.8-3.7,21.52,21.52,0,0,1,.4,4.3c.1,5.8-1.8,11-6,16-3.3,4.1-7.6,7.5-12.3,11.1l-2.4,8.7c9-5.8,18.1-10.9,28.5-11.2,7.5-.2,15.3,3.2,15.9,11.3.7,10.9-8.6,17.8-17.7,18.8a24.12,24.12,0,0,0-11.2,4.7,27.61,27.61,0,0,0-2.5,2.1l.5-.2a11.4,11.4,0,0,1,.8-3.3c2.5-6.5,9.9-10.7,15.6-13.9,1.6-.9,3-1.7,4.3-2.4.5-.3,1.1-.7,1.7-1,1.9-1,3.7-2,4-3.9.3-2.2-1.5-3.8-3.3-4.3-5.5-1.4-14.1,3.8-19.7,7.2-1,.6-1.9,1.2-2.8,1.7-7.6,4.4-15.3,9-22.7,13.4l-3.7,2.2c-3.9,2.3-7.8,4.6-11.6,6.9-19.4,12.5-40.1,23-59.8,31.9,12.1-3.2,24.5-6.1,37.3-8.3,1.5-10.2,14.6-12.9,21.6-12.9h1.5l-.5,1.5c-.9,2.8-3.2,4.9-5.5,7-.9.8-1.7,1.6-2.5,2.4,3-.3,6.1-.6,9.5-1l12.4-1.2c-5-3.5-7.4-9.5-8.6-14.7l-.3-1.4h1.4a18.83,18.83,0,0,1,13.4,5.9c.3.4.6.7.9,1.1-.2-6.6,3.8-12.5,7.8-16.9l.9-1,.8,1.1a15.47,15.47,0,0,1,1.9,3.6,18.93,18.93,0,0,1,.9,10.3,24.18,24.18,0,0,1-1,3.6c4.9-2.2,11-1.9,16.1-.9l1.3.3-.4,1.2a17.32,17.32,0,0,1-9.3,9.7,11.91,11.91,0,0,1-3.2,1c4.9,3,8.3,8.3,10.4,13.2l.6,1.3-1.3.3a15,15,0,0,1-3.7.4,20.39,20.39,0,0,1-11.1-3.4c-.5-.4-1.1-.8-1.5-1.2.2,5.6-2.1,11-4.7,15.2l-.7,1.2-1-1a22.84,22.84,0,0,1-6-15c-3.6,3.2-8.4,4.8-12.7,5.8l-1.3.3v-1.9a18.68,18.68,0,0,1,5.7-12.8,21.86,21.86,0,0,1,3.5-2.7c-3.5.3-7,.7-10.6,1q-4.8.45-9,.9a18,18,0,0,1,7.3,10.2l.3,1.1-1.1.2a24.53,24.53,0,0,1-3.9.4,21,21,0,0,1-14.2-5.5,12.16,12.16,0,0,1-1.5-1.7,11.1,11.1,0,0,1-1.7-2.7c-14.8,2.5-29.2,6-43.1,9.8,13.1,1.6,27.2,3,38.2-2.5a20.69,20.69,0,0,0,4.8-3.1,38.53,38.53,0,0,1-3.5,4.9c-11.3,13.3-28.4,12.3-45,11.4-3.9-.2-7.8-.4-11.7-.5,6.8.8,13.7,1.5,20.4,2.1,9.1.9,18.4,1.8,27.7,3,.4.1.9.1,1.3.2a5.5,5.5,0,0,1,.9-.7c8.4-6.6,18.1-12.1,32.2-13.2l1.6-.1-.4,1.5c-1.8,6.6-7.6,11.2-14.5,14.5,9.2,3.8,17.1,11.5,24.3,18.6l1.3,1.2-1.7.6a24.18,24.18,0,0,1-8.1,1.4c-7.4,0-15.5-3.2-22-8.5,1.9,9.9,1.5,20.7.5,29.2l-.2,2.1-1.6-1.5c-9-8.3-12.5-20.8-13.5-32.7a7.57,7.57,0,0,1-.1-1.5,2.48,2.48,0,0,0-.1-.8c-.1-2.1-.2-4.2-.2-6.2v-2a3.4,3.4,0,0,0-1-.1c-8.9-1.2-18-2.1-26.8-2.9-7.1-.7-14.4-1.3-21.7-2.2a97.17,97.17,0,0,1,14.2,5.2c.8.4,1.7.8,2.6,1.2,7.5,3.6,17.2,8.1,25.6,8.2a24.33,24.33,0,0,0,3.8-.3,24.24,24.24,0,0,1-3.1,2.5,26,26,0,0,1-12.2,4.6h-.4a41.79,41.79,0,0,1-16.3-3.6l-.2.6a16.54,16.54,0,0,1-8.3,10.5,19,19,0,0,1-5.6,2.1c5.3,3.7,8.3,9.9,10,15.4l.4,1.3-1.4.1h-1.3a22,22,0,0,1-14.5-5.6,6,6,0,0,1-.8-.8c-.3,5.8-3.3,11.4-6.4,15.9l-.8,1.1-.9-1a20.2,20.2,0,0,1-5-14.6,19.33,19.33,0,0,1,.9-4.9,21.32,21.32,0,0,1-10.5,2.4,34.3,34.3,0,0,1-5.6-.5l-1.3-.2.5-1.3a18.67,18.67,0,0,1,9.9-10.4,15.4,15.4,0,0,1,5.5-1.4,10.09,10.09,0,0,1-1.5-2.1,56.76,56.76,0,0,0-15.3-7.8,5.94,5.94,0,0,1,.4.8,10.56,10.56,0,0,1,1.6,5v1.4h-.2l-1.1-.2c-2.7-.6-6.2-2.1-8-5.1a7.65,7.65,0,0,1-1.1-3.9,56.1,56.1,0,0,0-5.9-.6,44.18,44.18,0,0,0-6.3.1,16.17,16.17,0,0,0-1.8,1v-.1c-1.9,1-3.8,1.9-5.7,2.8-2.5,1.2-5,2.4-7.5,3.8a76.76,76.76,0,0,1,17,1.3c1.5.3,3,.6,4.4.9a58.42,58.42,0,0,0,13.6,1.8c.9,0,1.8-.1,2.8-.2.5-.1,1-.1,1.5-.2a29.72,29.72,0,0,1-3.5,2.7c-11.6,7.6-26.5,6-39.9,4.6-1.7-.2-3.4-.4-5.1-.5a43.79,43.79,0,0,0-10.3.1c1.7,1.5,3.5,2.9,5.2,4.4,6.5,5.4,13.2,10.9,18.5,17.3.5.6.9,1.2,1.4,1.8a12.44,12.44,0,0,1-2,1,18.26,18.26,0,0,1-6.8,1.6h-.6a7.57,7.57,0,0,1-1.5-.1l-.9-1c-.4-.5-.9-1-1.3-1.6-2.7-3.3-5.5-6.6-8.6-9.7A56.4,56.4,0,0,0,298,572.2a55.06,55.06,0,0,0-13.3,10.1c-3.1,3.1-5.9,6.5-8.6,9.7-.4.6-.9,1.1-1.3,1.6l-.8,1c-.5,0-1,.1-1.5.1h-.6a17.82,17.82,0,0,1-6.8-1.6,18.64,18.64,0,0,1-2-1c.5-.6.9-1.2,1.4-1.8,5.3-6.4,11.9-11.9,18.4-17.3,1.8-1.5,3.5-2.9,5.2-4.4a39,39,0,0,0-10.3-.1c-1.7.1-3.3.3-5.1.5-13.4,1.5-28.3,3-39.9-4.6a29.72,29.72,0,0,1-3.5-2.7,7.72,7.72,0,0,0,1.5.2,26.36,26.36,0,0,0,2.8.2c4.6.2,9-.8,13.6-1.8,1.4-.3,2.9-.6,4.4-.9a66.38,66.38,0,0,1,17-1.3c-2.5-1.4-5-2.6-7.5-3.8-1.9-.9-3.8-1.8-5.6-2.8v.1c-.6-.3-1.2-.7-1.8-1a44.17,44.17,0,0,0-6.3-.1,56.1,56.1,0,0,0-5.9.6,7.65,7.65,0,0,1-1.1,3.9c-1.8,3-5.3,4.6-8,5.1l-1.2.2h-.1v-1.4a10.56,10.56,0,0,1,1.6-5,5.94,5.94,0,0,1,.4-.8,55.34,55.34,0,0,0-15.3,7.8l-1.5,2.1a14.89,14.89,0,0,1,5.4,1.4,18.69,18.69,0,0,1,9.9,10.4l.5,1.3-1.3.2a34.3,34.3,0,0,1-5.6.5,21.32,21.32,0,0,1-10.5-2.4,19.33,19.33,0,0,1,.9,4.9,20.5,20.5,0,0,1-5,14.6l-.9,1-.8-1.1c-3.1-4.4-6.1-10.1-6.4-15.9a6,6,0,0,1-.8.8,22,22,0,0,1-14.5,5.6h-1.3l-1.4-.1.4-1.3c1.7-5.5,4.7-11.7,10-15.4a18,18,0,0,1-5.6-2.1,16.79,16.79,0,0,1-8.3-10.5l-.1-.6a42.28,42.28,0,0,1-16.4,3.6h-.4a25.64,25.64,0,0,1-12.2-4.6c-1-.8-2.1-1.6-3.1-2.5a23.08,23.08,0,0,0,3.7.3c8.5-.1,18.1-4.6,25.6-8.2.9-.4,1.7-.9,2.6-1.2a97.17,97.17,0,0,1,14.2-5.2c-7.2.9-14.5,1.6-21.7,2.2-8.9.9-17.9,1.7-26.8,2.9-.3,0-.7.1-1,.1v2c0,2,0,4.1-.2,6.2v.8c0,.5-.1,1-.1,1.5-1,12-4.5,24.4-13.5,32.7l-1.6,1.5-.2-2.1c-1-8.6-1.5-19.3.4-29.2-6.5,5.3-14.5,8.5-21.9,8.5a24.18,24.18,0,0,1-8.1-1.4l-1.6-.6,1.3-1.2c7.2-7.1,15.2-14.8,24.3-18.6-6.8-3.2-12.6-7.8-14.4-14.5l-.4-1.5,1.5.1c14.2,1.1,23.9,6.6,32.2,13.2.3.2.6.5.9.7.4-.1.9-.1,1.3-.2,9.3-1.2,18.6-2.1,27.7-3,6.7-.6,13.6-1.3,20.4-2.1-3.9,0-7.8.2-11.7.5-16.6.9-33.6,1.9-45-11.4a47.28,47.28,0,0,1-3.5-4.9,35.58,35.58,0,0,0,4.8,3.1c11,5.5,25.1,4.1,38.2,2.5-14-3.8-28.3-7.3-43.1-9.8-.5.9-1.1,1.8-1.7,2.7-.2.3-.5.6-.7.9a6,6,0,0,1-.8.8,20.35,20.35,0,0,1-14.2,5.5,17.22,17.22,0,0,1-3.9-.4l-1.1-.2.3-1.1c.6-5,3.6-8.1,6.7-10.4Zm373.8-39.9c3.1-1.9,6-4,8.9-6.1a12.13,12.13,0,0,0,1.4-1c.6-1.5,1.2-3.1,1.7-4.6a16.15,16.15,0,0,0,.2-3.1A45.87,45.87,0,0,0,491.5,472.4ZM465.4,169.8a9.55,9.55,0,0,0,6.6,2.5,12,12,0,0,0,4-1.1,33,33,0,0,0,4.1-2.3h0v-.1a9.69,9.69,0,0,1-2.1-1c-.5-.2-.9-.5-1.2-.6a9.52,9.52,0,0,0-4.1-.7,16.46,16.46,0,0,0-7.3,3.3Zm-335.6,0a15.42,15.42,0,0,0-7.3-3.3,9.74,9.74,0,0,0-4.1.7,13.35,13.35,0,0,0-1.2.6,12.53,12.53,0,0,1-2.1,1v.1h0a33,33,0,0,0,4.1,2.3,11,11,0,0,0,4,1.1,9.11,9.11,0,0,0,6.6-2.5Zm387.9,76.1a18.9,18.9,0,0,0-2.8,7.6,15,15,0,0,1,1.2,7.2,6.9,6.9,0,0,1,.8.3,14.23,14.23,0,0,0,5.7-8.6c0-.1.1-.2.1-.3-1.6-2.1-3.2-4.1-5-6.2ZM66.6,261.2a14.71,14.71,0,0,1,7.2-1,15.93,15.93,0,0,1-3-5.6A53.24,53.24,0,0,0,66.6,261.2ZM364.2,551.7a56.89,56.89,0,0,1,11.9,5.8c-1.4-4.1-1.3-8.6-.9-12.4l.2-1.4,1.3.5a19.13,19.13,0,0,1,9.2,7.7,26.5,26.5,0,0,1,4.2-8.6c-13.2-3.4-28.3-1.4-43.3,5.4a7.57,7.57,0,0,1,1.5.1,60,60,0,0,1,6.1.6c.2,0,.4.1.6.1a1.38,1.38,0,0,0,.3-.4,10.22,10.22,0,0,1,11.3-3.8l1,.3-.3,1a13.39,13.39,0,0,1-3.1,5.1" style="fill:#01411c"/><path d="M221.9,240.1c0-3.2-2-6.6-4.1-8.6a5.79,5.79,0,0,0-3.7-1.5,2.77,2.77,0,0,0-.9-.1,3.14,3.14,0,0,1-2.7-2.7,10.41,10.41,0,0,0-.6-1.6,4,4,0,0,0-3.1-2.4,3.94,3.94,0,0,0-3.4,2l-.5.7-.6-.6a4.58,4.58,0,0,0-4.5-1.2,4.49,4.49,0,0,0-2.9,3.2l-.2.8-.7-.3c-.4-.1-.7-.3-1.1-.4-2-.8-3.7-1.5-5.5-.1s-1.6,2.8-1,5l.2.8-.8.2a4.34,4.34,0,0,0-3.3,3.9c.1,1.5,1.2,2.5,2.7,3.6l.8.5-.7.6c-.3.3-.6.5-.9.8-2,1.7-3.5,3.2-2.7,4.7a6.6,6.6,0,0,0,6.3,3.9l1.5-.1-.8,1.2a2.36,2.36,0,0,0-.3,2,4.38,4.38,0,0,0,2.4,2.6,11.62,11.62,0,0,0,4,.6c.2-2.1,1.9-3.3,3.4-4.3l1.2-.9a4.47,4.47,0,0,1-.3-2.8,5.07,5.07,0,0,1,2-2.8,12.76,12.76,0,0,0-7-.1c2.3-2.6,4.9-2.2,8.1-2.4.3-2.3-1-4.9-1.2-7.2a16.4,16.4,0,0,1,4.5,5.6c1.1-1.9,3.2-5.1,5.5-6-.7,2-1.6,4-2.1,5.9a5.9,5.9,0,0,1,1.4.2,2.7,2.7,0,0,0,1.8-.1,3.74,3.74,0,0,0,1.4-1.4c.7-.9,1.4-1.9,4-1.5a8.31,8.31,0,0,1,4.2,1.8,6.05,6.05,0,0,0,.2-1.5Zm1.9,15.9c1.3-2.3,1-7.3-.2-9.5a8.55,8.55,0,0,0-1.5-2.2,5.73,5.73,0,0,0-1.1-1.1,7.73,7.73,0,0,0-3.8-1.7,2.2,2.2,0,0,0-2.6,1,6.48,6.48,0,0,1-1.9,1.7,4.13,4.13,0,0,1-2.9.2,5.16,5.16,0,0,0-1.1-.2h-.4a3.29,3.29,0,0,0-1.2.6,11.49,11.49,0,0,0-.8,1,4.86,4.86,0,0,1-1.3,1.5,4.71,4.71,0,0,1-1.7.4,2.2,2.2,0,0,0-.8.1c-.2,0-.3.1-.5.2a3.53,3.53,0,0,0-1.8,2.2,2.69,2.69,0,0,0,.4,2.1l.3.5-.4.4a14.1,14.1,0,0,1-1.8,1.4c-1.5,1-2.5,1.9-2.7,3v.7c.1.2.1.5.2.7a9.91,9.91,0,0,0,4.3,4.9c.1.1.5.1.7.1a2.27,2.27,0,0,1,1.3.3,1.85,1.85,0,0,1,.8,1.2,1.69,1.69,0,0,1,.2.5,6.86,6.86,0,0,0,2.3,2,4.25,4.25,0,0,0,1.1.2,3.82,3.82,0,0,0,2.8-1.4,11.54,11.54,0,0,0,1.4-1.9c.3-.6.6-1.1.8-1.6l.3-.7.7.3a4.79,4.79,0,0,0,2.8.4,3.91,3.91,0,0,0,2.1-1.1l.4-.4c.3-.4.5-1,.8-1.5a4.49,4.49,0,0,1,1.4-2.3,4.23,4.23,0,0,1,1.2-.4c.3-.1.7-.1.9-.2a8,8,0,0,0,1.3-1.4Zm4.7,51.9V280.2a17.91,17.91,0,0,0-1.2-2.4c-.3-.6-.7-1.2-.9-1.6a24.62,24.62,0,0,0-2.8-4.6c-.6-.8-1.3-1.7-2-2.5-.5-.6-1-1.2-1.5-1.9a22,22,0,0,0-2.6-2.7c-.1-.1-.2-.2-.3-.2a4.06,4.06,0,0,1-1.9.4,7.47,7.47,0,0,1-2-.3c-.3.6-.6,1.1-.9,1.7a64.35,64.35,0,0,1,3.6,6.8l.4.7a60.15,60.15,0,0,1,4,11.1,96.2,96.2,0,0,1,1.9,10.5c.1,1.1.2,2.3.4,3.5.2,1.4.3,2.8.4,4.2l4.8,5Zm19-41.7a9.47,9.47,0,0,1-.9-1.7,6.47,6.47,0,0,1-3.9,0c-.1.1-.2.2-.3.2a33.15,33.15,0,0,0-2.6,2.7c-.5.6-1,1.2-1.5,1.9-.7.8-1.3,1.7-1.9,2.5a21.79,21.79,0,0,0-2.8,4.6c-.2.5-.6,1-.9,1.6s-.7,1.3-1.1,2v28l5.4-5.6c.1-1.2.2-2.3.4-3.5s.3-2.3.4-3.4a78.23,78.23,0,0,1,1.8-10.5,68.49,68.49,0,0,1,4-11.1l.3-.7A51.52,51.52,0,0,1,247.5,266.2Zm8.1-52.1a3,3,0,0,0,.6-2.6,3,3,0,0,0-1.7-2.1l-.6-.3.3-1.2c.5-1.9.9-3.5-.4-5a5.72,5.72,0,0,0-6.1-1.6l-1.2.4.2-1.2a7.14,7.14,0,0,0-2.6-6.7,3.32,3.32,0,0,0-3.1-1,2.83,2.83,0,0,0-1.8.9c-.5.3-1.5,1.2-2.1.7a11.9,11.9,0,0,1-.9-1.5,13.66,13.66,0,0,0-1.5-2.1,5.42,5.42,0,0,0-9,0,13.65,13.65,0,0,0-1.5,2.1c-.3.5-.4,1.1-.9,1.5s-1.5-.4-2-.7a4.37,4.37,0,0,0-1.8-.9,3.24,3.24,0,0,0-3.1,1,6.93,6.93,0,0,0-2.6,6.7l.2,1.2-1.2-.4a5.77,5.77,0,0,0-6.1,1.6c-1.4,1.4-.9,3-.4,4.9l.3,1.2-.6.3a3.59,3.59,0,0,0-1.7,2.1,3,3,0,0,0,.6,2.6c1.1,1.2,2.6,1.1,4.4.9a16.2,16.2,0,0,1,2.2-.1h.5l.2.4c.2.5.3.9.5,1.4.6,1.9,1,3.4,3.2,4a5.18,5.18,0,0,0,4.4-.5,8.9,8.9,0,0,0-2.7-2l-1.1-.3.8-.9a4.9,4.9,0,0,1,3.8-1.5,17,17,0,0,1,5.6,1.3,2,2,0,0,0-.1-.7,13.8,13.8,0,0,1,.3-5c.6-1.9,2.8-4.2,4-5.2l.7-.5.4.7c.4.6.8,1.2,1.3,1.9,1.6,2.2,3.5,5,3.8,7.6a19.88,19.88,0,0,1,4.9-.1.94.94,0,0,1,.8.6c.4,1-.9,3.6-1.5,4.7a5,5,0,0,0,3.2,0c2.1-.7,2.6-2.1,3.2-4,.1-.5.3-1,.4-1.5l.2-.4h.5a8.13,8.13,0,0,1,2.2.1c2,.3,3.5.4,4.6-.8Zm8,44.2a.85.85,0,0,0,0-.7c-.2-1.1-1.2-2-2.7-3-.6-.5-1.3-.9-1.8-1.4l-.4-.4.3-.5a2.69,2.69,0,0,0,.4-2.1,3.53,3.53,0,0,0-1.8-2.2c-.1-.1-.3-.1-.5-.2a2.48,2.48,0,0,1-.8-.1,3.53,3.53,0,0,1-1.7-.4,4.86,4.86,0,0,1-1.3-1.5,4.36,4.36,0,0,0-.8-1,1.74,1.74,0,0,0-1.1-.6H251a5.16,5.16,0,0,0-1.1.2,4.16,4.16,0,0,1-2.9-.2,6,6,0,0,1-1.8-1.7,2.2,2.2,0,0,0-2.6-1,7.73,7.73,0,0,0-3.8,1.7,11.41,11.41,0,0,0-1.1,1.1,9.41,9.41,0,0,0-1.5,2.2c-1.2,2.2-1.5,7.2-.2,9.6a3.18,3.18,0,0,0,1.1,1.2,2.39,2.39,0,0,0,.9.2,1.59,1.59,0,0,1,1.2.4,5.28,5.28,0,0,1,1.4,2.3,7.11,7.11,0,0,0,.7,1.5.78.78,0,0,0,.4.4,3.6,3.6,0,0,0,2.1,1.1,4.79,4.79,0,0,0,2.8-.4l.7-.3.3.7c.2.5.5,1,.8,1.6a6.69,6.69,0,0,0,1.4,1.9,4,4,0,0,0,2.9,1.4,4.25,4.25,0,0,0,1.1-.2,6.44,6.44,0,0,0,2.3-1.9c.1-.1.1-.3.2-.5a3.17,3.17,0,0,1,.8-1.2,2.65,2.65,0,0,1,1.4-.3c.2,0,.6-.1.7-.1a9.09,9.09,0,0,0,4.3-4.9c0-.2.1-.5.1-.7Zm14.7-11c.8-1.6-.7-3-2.7-4.7a6.47,6.47,0,0,0-.9-.8l-.7-.6.8-.5c1.5-1,2.6-2,2.7-3.5a4.45,4.45,0,0,0-3.3-3.9l-.8-.1.2-.8c.6-2.2.9-3.6-1-5s-3.5-.7-5.5.1c-.4.1-.8.3-1.1.4l-.8.3-.2-.8a4.15,4.15,0,0,0-2.9-3.2,4.82,4.82,0,0,0-4.5,1.2l-.6.6-.5-.6a3.94,3.94,0,0,0-3.4-2,4,4,0,0,0-3.1,2.4,6.39,6.39,0,0,0-.6,1.6,3,3,0,0,1-2.7,2.7,2.77,2.77,0,0,1-.9.1,5.3,5.3,0,0,0-3.7,1.5c-2.1,2-4.2,5.4-4.1,8.6a8.81,8.81,0,0,0,.2,1.7,8,8,0,0,1,4.2-1.8c2.5-.4,3.3.6,4,1.5a3.53,3.53,0,0,0,1.4,1.3,2.7,2.7,0,0,0,1.8.1,5.9,5.9,0,0,1,1.4-.2h0c-.6-2-1.4-3.9-2.1-5.9,2.2.9,4.4,4.1,5.5,6,.8-2.1,2.8-4.1,4.5-5.6-.2,2.3-1.6,4.9-1.2,7.2,3.2.2,5.9-.2,8.1,2.4a12.78,12.78,0,0,0-7,.1,5.13,5.13,0,0,1,2.1,2.9,3.66,3.66,0,0,1-.3,2.7,12.49,12.49,0,0,0,1.2.9c1.4,1,3.2,2.2,3.4,4.3a11.62,11.62,0,0,0,4-.6,4.55,4.55,0,0,0,2.5-2.6,2.36,2.36,0,0,0-.3-2l-.9-1.2,1.5.1a7.86,7.86,0,0,0,6.3-4.3Zm18.3,231.9V310.9H163.9v70.7c0,28.8,19.7,53.8,52.7,66.9,7.9,3.1,17,5.3,25.8,7.3l2,.5c23.4,3.8,40.9,11.4,52.2,22.9Zm.8-239.6-.8-.8L258,198.7l-26.7-27.6-1.6-1.7-1.6,1.7-64,66.4h0l-2.1,2.1,2.1,2.2h0l56.5,58.6c-.1-.4-.1-.9-.2-1.3-.2-1.2-.3-2.4-.4-3.6a71.53,71.53,0,0,0-1.8-10.1,52.17,52.17,0,0,0-3.9-10.7l-.4-.8c-.9-1.9-1.9-4.1-3-6a5.44,5.44,0,0,1-3.6,1.6,7.72,7.72,0,0,1-1.5-.2,7.35,7.35,0,0,1-3-2.5,1.8,1.8,0,0,1-.4-.9c-.1-.2-.2-.5-.3-.5a5.64,5.64,0,0,0-.7-.1,3.59,3.59,0,0,1-1.1-.2,10.53,10.53,0,0,1-5.3-6.2h0a11.6,11.6,0,0,1-4.7-.8,5.84,5.84,0,0,1-3.3-3.6,3.75,3.75,0,0,1,0-2.1,8.49,8.49,0,0,1-6.6-4.7c-1.3-2.8,1.3-5,3.1-6.5l.2-.2a5.6,5.6,0,0,1-2.5-4.1c-.2-2.2,1.7-4.5,3.7-5.2-.5-1.9-.7-4,1.7-5.9s4.9-.9,7-.1a.37.37,0,0,0,.3.1,5.92,5.92,0,0,1,3.6-3.5,6.05,6.05,0,0,1,5.3,1,5.13,5.13,0,0,1,4.2-2,5.48,5.48,0,0,1,4.3,3.1,13.18,13.18,0,0,1,.8,1.9c.3,1,.4,1.5,1.5,1.7a2.49,2.49,0,0,0,.8.1,8,8,0,0,1,4.5,1.9c2.1,2,4.7,5.8,4.6,9.7a7.63,7.63,0,0,1-.5,2.7,12.7,12.7,0,0,1,2.1,2.9c1.4,2.6,1.7,8.2.2,11a6.48,6.48,0,0,1-1.6,1.7,2.6,2.6,0,0,1-1.5.4c-.2,0-.5.1-.6.1a5.16,5.16,0,0,0-.9,1.7,8.48,8.48,0,0,1-1,1.9,1.21,1.21,0,0,1-.5.5,24,24,0,0,1,2.7,2.8,13.3,13.3,0,0,1,1.4,1.9c.7.8,1.3,1.7,2,2.5a28.18,28.18,0,0,1,3,4.9.1.1,0,0,0,.1.1V229.1a12.67,12.67,0,0,1-1.3-1.1l-.5-.5a9.23,9.23,0,0,0-5.3-2.3H220l.7-1.1a4.16,4.16,0,0,1,1.6-1.4c.1-.1.2-.1.4-.2l-.6-.6a6.47,6.47,0,0,1-.8-.9,6.51,6.51,0,0,1-3.7,1.2,7.61,7.61,0,0,1-2.1-.3c-2.9-.9-3.5-3-4.2-5a2.92,2.92,0,0,1-.2-.9c-.5,0-1,.1-1.5.1-1.9.2-4.1.3-5.6-1.4a4.19,4.19,0,0,1-.9-3.9,4.82,4.82,0,0,1,1.9-2.9h0c-.5-2-1.1-4.3.8-6.4a7.06,7.06,0,0,1,6.5-2.2,8.69,8.69,0,0,1,3.3-7,4.72,4.72,0,0,1,4.3-1.3,7.25,7.25,0,0,1,2.5,1.1c.2.1.3.2.5.3a15.83,15.83,0,0,1,1.9-3,7.23,7.23,0,0,1,2.9-2.2,10.22,10.22,0,0,1,2.9-.7,9,9,0,0,1,2.7.7,11.12,11.12,0,0,1,2.9,2.2,15.83,15.83,0,0,1,1.9,3c.2-.1.3-.2.5-.3a7.25,7.25,0,0,1,2.5-1.1,5,5,0,0,1,4.3,1.3,8.56,8.56,0,0,1,3.3,7,6.9,6.9,0,0,1,6.5,2.2c1.9,2.1,1.3,4.4.8,6.4h0a4.68,4.68,0,0,1,2,2.9,4.9,4.9,0,0,1-.9,3.9c-1.5,1.7-3.7,1.6-5.6,1.4a7.57,7.57,0,0,0-1.5-.1l-.3.9c-.6,2-1.3,4.1-4.2,5a7.61,7.61,0,0,1-2.1.3,5.42,5.42,0,0,1-2.5-.6c-.5.4-1,.8-1.4,1.1a5.55,5.55,0,0,0-.8.6,5.77,5.77,0,0,0,1,.8l1.6.9-1.7.5a9.72,9.72,0,0,1-1.8.1,4.7,4.7,0,0,0-1.8.2,6.53,6.53,0,0,0-2.9,2.3c-.2.2-.3.5-.5.7a2.41,2.41,0,0,1-.6.8v45a30,30,0,0,1,3-4.7c.6-.9,1.3-1.7,2-2.6l1.5-1.8a19.21,19.21,0,0,1,2.8-2.9l-.5-.5a8.48,8.48,0,0,1-1-1.9,4.47,4.47,0,0,0-.9-1.7,4.33,4.33,0,0,0-.5-.1,8.33,8.33,0,0,1-1.5-.4,8.52,8.52,0,0,1-1.6-1.7c-1.5-2.8-1.2-8.4.2-11a12.7,12.7,0,0,1,2.1-2.9,7.64,7.64,0,0,1-.6-2.7c-.1-4,2.5-7.7,4.6-9.7a7.37,7.37,0,0,1,4.5-1.9c.2,0,.5-.1.8-.1,1.1-.2,1.2-.6,1.5-1.7a13.17,13.17,0,0,1,.8-1.9,5.48,5.48,0,0,1,4.3-3.1,5.13,5.13,0,0,1,4.2,2,5.76,5.76,0,0,1,5.3-1,5.26,5.26,0,0,1,3.6,3.5c.1,0,.2-.1.3-.1,2.1-.8,4.4-1.8,7,.1s2.2,4,1.7,5.9c2,.8,3.9,3,3.7,5.2a5.83,5.83,0,0,1-2.6,4.1l.2.2c1.7,1.5,4.4,3.8,3.1,6.5a8.65,8.65,0,0,1-6.6,4.7,3.75,3.75,0,0,1,0,2.1,5.84,5.84,0,0,1-3.3,3.6,11.6,11.6,0,0,1-4.7.8h-.1a11.26,11.26,0,0,1-5.3,6.2c-.3.1-.7.1-1.1.2-.2,0-.6.1-.7.1a4.71,4.71,0,0,1-.2.5,2,2,0,0,1-.5.9,8.22,8.22,0,0,1-3,2.5,3.89,3.89,0,0,1-1.5.2,4.84,4.84,0,0,1-3.6-1.6,46.94,46.94,0,0,0-3,5.9l-.3.8a56.25,56.25,0,0,0-3.9,10.7,74.26,74.26,0,0,0-1.8,10.1c-.1,1.2-.2,2.4-.4,3.6a1.27,1.27,0,0,1-.1.6l57.2-59.2.3-.8ZM326.1,284a1.24,1.24,0,0,1,.2-.3,1.24,1.24,0,0,0-.3-.2,2,2,0,0,0-.9-.2,4.87,4.87,0,0,0-1.2.1,6.12,6.12,0,0,0-1.2.5c-.2.1-.3.2-.5.3s-.3.2-.5.3-.3.2-.4.3-.2.1-.3.2a.52.52,0,0,1-.4.2c-.1,0-.3.1-.4.1a1.24,1.24,0,0,0-.3.2,1.24,1.24,0,0,1,.2.3,1.23,1.23,0,0,0,.8.5,1.7,1.7,0,0,0,.7.1,2,2,0,0,0,.7-.1,5,5,0,0,0,1.3-.4,8.79,8.79,0,0,0,1-.6c.3-.3.6-.5.8-.7s.5-.4.7-.6Zm.9-39.9a3,3,0,0,0,.4-.3,1.21,1.21,0,0,0-.5-.1c-.3-.1-.8-.1-1.3-.2-.2-.1-.5-.1-.7-.2s-.6-.1-.9-.2c-.6-.1-1.3-.3-1.9-.4a14.92,14.92,0,0,0-2.1-.2,10.07,10.07,0,0,0-1.9.2,6.83,6.83,0,0,0-1.3.4,1,1,0,0,1-.5.2,4.2,4.2,0,0,0,.5.2c.3.1.7.2,1.2.4a1.88,1.88,0,0,0,.8.2l.9.3a11.8,11.8,0,0,0,2,.4,3.75,3.75,0,0,0,1.1.1h1.1a3.08,3.08,0,0,0,1-.1,4.65,4.65,0,0,0,.9-.3,1.46,1.46,0,0,0,1.2-.4Zm9.4,43h-.5c-.3,0-.7.1-1.1.1s-.9.2-1.5.3-1.1.3-1.6.5l-1.5.6c-.2.1-.5.2-.7.3a1.42,1.42,0,0,1-.6.2,1.69,1.69,0,0,1-.5.2.76.76,0,0,0-.5.2.25.25,0,1,0,0,.4,1.6,1.6,0,0,0,1.1.4,2.2,2.2,0,0,0,.8.1h.9a5.84,5.84,0,0,0,1.8-.4,5.31,5.31,0,0,0,1.7-.8,6.42,6.42,0,0,0,1.3-1,3.85,3.85,0,0,0,.9-1.1Zm1.5-82.1a9.78,9.78,0,0,0-.8-1.1,5.26,5.26,0,0,0-2.5-1.5,9.18,9.18,0,0,0-2.8-.5,9.44,9.44,0,0,0-1.4.1s.4.5.9,1a9.67,9.67,0,0,0,2.5,1.4,7.37,7.37,0,0,0,1.4.4c.5.1.9.1,1.3.2a5.64,5.64,0,0,0,1.4,0Zm4.5,48.9-.6-.3a5.29,5.29,0,0,0-1.6-.4,15.45,15.45,0,0,0-4.7.3c-.8.1-1.5.3-2.2.4a15.41,15.41,0,0,1-1.9.2,6.15,6.15,0,0,1-1.4-.1,2.8,2.8,0,0,0-.6-.1,2.22,2.22,0,0,0,.4.5c.1.2.3.3.5.5a2.18,2.18,0,0,0,.8.5,7.75,7.75,0,0,0,2.3.6,11.41,11.41,0,0,0,2.6-.2c1.7-.3,3.2-.9,4.4-1.2a7.17,7.17,0,0,0,1.4-.5l.6-.2Zm-.5,38.3a7.91,7.91,0,0,0,.5-1,2.54,2.54,0,0,0-1.2-.1,4,4,0,0,0-2,.9,7.93,7.93,0,0,0-1.3,1.2c-.1.1-.2.2-.2.3a.22.22,0,0,0-.2.2,1.24,1.24,0,0,0-.3.2,1.24,1.24,0,0,1,.2.3c.1.2.5.3.9.4a2.46,2.46,0,0,0,1.2-.1,2.38,2.38,0,0,0,1.1-.6,8.56,8.56,0,0,0,1.3-1.7ZM348,214a7.46,7.46,0,0,0-1.5-1.1,17.75,17.75,0,0,0-3.6-1.5,8.18,8.18,0,0,0-2.1-.3h-1c-.3,0-.6.1-.8.1a9.18,9.18,0,0,0-1.8.5,8.69,8.69,0,0,0,1.7.8,2.35,2.35,0,0,0,.8.2l.9.3a12.09,12.09,0,0,0,1.8.5,14.16,14.16,0,0,0,2,.4,5.6,5.6,0,0,0,1.8.1,4.52,4.52,0,0,0,1.8,0Zm7,4.6a14.77,14.77,0,0,0-.1-2.1,6.75,6.75,0,0,0-.2-1.4,6.88,6.88,0,0,1-.2-2.5c-.6-1-1.3-2.1-1.9-3.2s-1.4-2.1-1.9-3.1c-1.9-3.8-4-7.7-7.3-10.4a13.83,13.83,0,0,0-4.9-2.3,21.16,21.16,0,0,1-2.9-1.1c-.7-.3-1.3-.7-1.9-1a11.82,11.82,0,0,0-2.8-1.2,26.61,26.61,0,0,0-6.3-.9l-3.8-.3a3,3,0,0,1,.8.4,10.09,10.09,0,0,1,1.5.7,9.16,9.16,0,0,1,2.4,1.9,21,21,0,0,0,1.7,1.4,12.29,12.29,0,0,0,2.5,1.4,14.53,14.53,0,0,1,3.2,1.8,12,12,0,0,1,1.2,1.1,12,12,0,0,0,1.2,1.1c0-.2-.1-.3-.1-.5-.3-1.2-.6-2.5.4-3.6l.5-.5.6.4a3.65,3.65,0,0,1,1.3,2.7,5,5,0,0,0,.3,1.3c.3.6.5,1,.8,1.5a11.8,11.8,0,0,1,1.3,3,9.5,9.5,0,0,0,3.4,4.7v-.2c0-1.5,0-3.8,2-4l.9-.1-.1.9c-.1,5.6,4.5,10.6,8.4,14.1Zm.4,46.2v-.7c-2.2-2.2-4.1-5.6-4.3-8.3a23.14,23.14,0,0,1,.1-3.8c.2-2.3.3-4.1-1.5-6.3a108.61,108.61,0,0,0-12.4-12.9c-.6-.6-1.3-1.2-1.9-1.7a5.07,5.07,0,0,0-2.9-1.3c-.4-.1-.8-.2-1.3-.3a4.62,4.62,0,0,1-2.7-1.6,3.61,3.61,0,0,0-1.3-1.1c-2-1.2-5.2-.9-8.1-.7-1.2.1-2.4.2-3.5.2h-.7a9.39,9.39,0,0,1-3.1-.8,5.55,5.55,0,0,0-2.2-.6,1.71,1.71,0,0,0-1.5.3,43.72,43.72,0,0,0,6,5.3c1.1.9,2.2,1.7,3.3,2.6.5.4,1.1,1,1.7,1.6,2.2,2.1,5.4,5.1,7.7,5.6,0-1.9-.5-3-1.8-5a7.3,7.3,0,0,0-.9-1c-1.1-1.3-2.9-3.4-1.4-4.9l.4-.4.5.3c4,2.7,6.6,7.8,7.8,11.6.9,3,4.2,5.4,7.1,7.6a4.23,4.23,0,0,0,.7.5c.5-1.6-.3-3.5-1.2-5.5a14.25,14.25,0,0,1-1.5-5v-.9l.8.1c2.9.4,3.6,3.7,4.1,6.3a18.39,18.39,0,0,0,.6,2.3c.5,1.1.9,2.2,1.4,3.2s.9,2.2,1.3,3.2a14.07,14.07,0,0,0,3.8,4.7,4.37,4.37,0,0,0,.8.7,2.89,2.89,0,0,1,1.3,2.2,10,10,0,0,1,0,3,1.7,1.7,0,0,1-.1.7v.1c.1.5.1.6.9.8a3.34,3.34,0,0,0,1.7-.1c.2,0,.4-.1.7-.1s.3-.1.5-.1h.3a1.51,1.51,0,0,0,.8.2Zm3.7,15.7a2.4,2.4,0,0,0,.2-2.2,3.81,3.81,0,0,0-.6-.5,3,3,0,0,1-1-.9,1.85,1.85,0,0,1-.4-1c-.1-.4-.1-.5-.4-.6h-.1a.9.9,0,0,0-.5-.1,4.4,4.4,0,0,0-1,.2,2.28,2.28,0,0,0-1.2,3.5,4.49,4.49,0,0,0,1.1,1.3,4.62,4.62,0,0,0,1.5.9.9.9,0,0,0,.5.1h.3a1.75,1.75,0,0,0,1.6-.7Zm1.9-21.6a1.09,1.09,0,0,0-.1-.5c-.3-1.1-.9-1.3-1.3-1.3a3.67,3.67,0,0,0-2,.8,2.87,2.87,0,0,0-1.3,1.9,2.77,2.77,0,0,0-.1.9,4.44,4.44,0,0,0,.2,1.3,2.38,2.38,0,0,0,.6,1.1,1.37,1.37,0,0,0,1,.6,1.44,1.44,0,0,0,1.1-.7,11.64,11.64,0,0,0,.6-1.5,6.22,6.22,0,0,1,.3-1,2.85,2.85,0,0,1,.7-1C360.8,259.3,361,259.2,361,258.9Zm5.1-55.8c.6-2.5.3-5.3.1-8a19.42,19.42,0,0,1-.2-2.4,7.2,7.2,0,0,0-4.4,2l-.1.1a4.47,4.47,0,0,1-.8,1.7,2.85,2.85,0,0,0-.6,1.4,7.35,7.35,0,0,0,.9,2.6,5.58,5.58,0,0,0,.5.8,3.82,3.82,0,0,0,2.2,2.3c.6.3,1.4.1,2.4-.5Zm1,98.1a5,5,0,0,0,1.8-4c0-1.7-.4-2.1-.6-2.2-.8-.4-2.7,1.1-3.9,1.9-.1.1-.2.1-.3.2,0,1.8.1,3.6.1,5.4a5.47,5.47,0,0,0,2.9-1.3Zm23.8-66.7a4.44,4.44,0,0,0-.9-1,7.28,7.28,0,0,0-2.3-1.3,5.86,5.86,0,0,0-2.6-.2,8.36,8.36,0,0,0-1.3.3,3.19,3.19,0,0,0,.9.9,7.14,7.14,0,0,0,2.3,1.2,5.7,5.7,0,0,0,2.5.3,4.88,4.88,0,0,0,1.4-.2Zm2.3,39.1.3-.3a1.75,1.75,0,0,1-.5-.1,2,2,0,0,1-1-.2,1.48,1.48,0,0,0-.7-.1,1.85,1.85,0,0,0-.7-.2,1.85,1.85,0,0,1-.7-.2c-.2-.1-.5-.1-.8-.2a8.33,8.33,0,0,1-1.5-.4,8.87,8.87,0,0,0-1.4-.3,5.16,5.16,0,0,0-1.1-.2h-.5l.2.4c.2.2.4.6.7.9a7.34,7.34,0,0,0,1.3,1,5.94,5.94,0,0,0,.8.4l.9.3c.3.1.7.1,1,.2a2.72,2.72,0,0,0,.9,0c.3,0,.6-.1.9-.1a6.9,6.9,0,0,0,.8-.3,1.68,1.68,0,0,0,1.1-.6Zm4.6-76.1a1.24,1.24,0,0,1,.2-.3,1.58,1.58,0,0,1-.4-.1,3.44,3.44,0,0,1-.9-.1c-.3,0-.7-.1-1.1-.1h-1.2a9.27,9.27,0,0,0-2.4.4,2.73,2.73,0,0,0-1.1.6,3.79,3.79,0,0,0,1.1.7,4.87,4.87,0,0,0,2.5.5,3.19,3.19,0,0,0,1.4-.3,6.66,6.66,0,0,0,1.2-.6,4.62,4.62,0,0,0,.7-.7Zm.9,36.2a4.17,4.17,0,0,0-.5-1,5.55,5.55,0,0,1-.6-.8,2.7,2.7,0,0,0-.8-.7c-.3-.2-.8-.4-1.1-.6a3.75,3.75,0,0,0-1-.1,3.3,3.3,0,0,0-1.1.2,4.43,4.43,0,0,0,.6,1,1.38,1.38,0,0,1,.3.4c.2.1.2.3.3.4a5.55,5.55,0,0,0,.8.6,3.13,3.13,0,0,0,1,.5,3.55,3.55,0,0,0,1,.2,2.26,2.26,0,0,0,1.1-.1Zm4-44.6a26.06,26.06,0,0,0,2-3,21.05,21.05,0,0,0-2.5-.2,13.33,13.33,0,0,0-2.8.3,10.07,10.07,0,0,0-2.6,1.2,12,12,0,0,1-2.8,1.3c-1.6.5-3.1.7-4.5,1a23.23,23.23,0,0,0-6.1,1.7,15.81,15.81,0,0,0-5.9,5c-.9,1.3-1.8,2.6-2.7,4.1a14,14,0,0,1-1,1.6,42.1,42.1,0,0,1-4.4,6.6,54.07,54.07,0,0,0-5.5,9,62.07,62.07,0,0,1-3.4,6.1v.4a28.23,28.23,0,0,0,4.2-6.2c.1-.4.2-.7.3-1s.1-.3.2-.5a8.23,8.23,0,0,1,3.1-4.7l.1-.3c.2.1.4,0,.8-.2a31.49,31.49,0,0,0,7.8-6.1,12,12,0,0,0,1.6-3.2c.8-2,1.6-4,3.4-4.7l1.3-.6-.2,1.3c0,.2-.2.6-.3,1.1a9.76,9.76,0,0,0-.7,3.6,20.81,20.81,0,0,0,2.1-2.1,7.57,7.57,0,0,1,1.3-1.3l.9-.6a5.34,5.34,0,0,0,2.3-2.6A18.59,18.59,0,0,1,391,192l1-1.4.3,1.7a4.31,4.31,0,0,1-.3,2.3,2.54,2.54,0,0,0-.2.7c.4-.4.8-.7,1.2-1.1.8-.8,1.6-1.5,2.5-2.3a8.39,8.39,0,0,1,3.9-1.4,5.71,5.71,0,0,0,3-1.1h0l.3-.3Zm4.6,42a3,3,0,0,0-.6-.9,3.81,3.81,0,0,0-1.6-1.1,3.12,3.12,0,0,0-2.1-.2,2.5,2.5,0,0,0-1,.4,3.91,3.91,0,0,0,.7.9c.2.2.5.4.7.6a2,2,0,0,0,.8.4,3.4,3.4,0,0,0,2,.3,3.54,3.54,0,0,0,1.1-.4Zm6.9-7.9a7.74,7.74,0,0,0-1.6-.7,16.65,16.65,0,0,1-2.3-1.2,16.3,16.3,0,0,0-6.9-2.2,21.54,21.54,0,0,0-6.6.7h0c-.2,0-.3.1-.4.1a27.71,27.71,0,0,0-6.4,2.6,9.06,9.06,0,0,0-1.6,1.1,10.53,10.53,0,0,1-2.9,1.7,13.63,13.63,0,0,1-1.7.4c-.3,0-.6.1-.8.1h-3.5c-3.9.3-6.3,2.6-9.2,5.4a11.41,11.41,0,0,1-1.1,1.1,15.69,15.69,0,0,0-4,6.2c-.1,1.5-.3,3-.4,4.6l.6-.6-.2-.2c1.4-1.1,2.7-2.4,4-3.6s2.9-2.7,4.4-4a32.22,32.22,0,0,0,3.2-3.2,18.1,18.1,0,0,1,4.6-4.2l.9-.5.1-.1.1,1.1c0,.6.1,1.3.1,1.9v.8a14.89,14.89,0,0,0,7.5-3.5c.7-.7,1.3-1.5,2-2.2a10.9,10.9,0,0,1,4.4-3.8l.6-.3.3.6c.8,1.4-.4,3-1.7,4.5a17.54,17.54,0,0,0-1.8,2.6,20.47,20.47,0,0,0,5.6-1.8,17.33,17.33,0,0,0,2.1-1.7,14.78,14.78,0,0,1,3-2.3l.9-.4.2.9a3.77,3.77,0,0,1-.6,2.7,3.55,3.55,0,0,0-.4.9,11.08,11.08,0,0,0,5.7-1.9,22.87,22.87,0,0,1,3.8-1.6Zm18,158.4V310.9H299.6v88.6H320v50.6h5.5V399.5h22.9v43.4h5.4V399.5h19.9v36.7h5.5V399.5h21.4v24H406v-24h23.5A59.25,59.25,0,0,0,432.2,381.6Zm4.5-73.7v73.6a66.08,66.08,0,0,1-4.1,23.1c-7.7,20.7-25.7,37.8-51.4,48-8.3,3.3-17.5,5.4-26.4,7.5l-2.1.5h-.2c-24.5,3.9-42.2,12.3-52.6,24.9l-.1.1a2,2,0,0,1-1.6.7,2.84,2.84,0,0,1-1.7-.7l-.1-.1c-10.4-12.6-28.1-21-52.6-24.9h-.1l-2.1-.5c-9-2.1-18.2-4.3-26.4-7.5-34.8-13.8-55.5-40.4-55.5-71.1V168.8a2.22,2.22,0,0,1,2.2-2.2H434.6a2.22,2.22,0,0,1,2.2,2.2l-.1,139.1ZM398,265.1a1.73,1.73,0,0,1,.4.3,4.37,4.37,0,0,0,1,.6,8.45,8.45,0,0,0,1.7.5,12.75,12.75,0,0,0,2,.1,10.62,10.62,0,0,0,1.9-.4,5.43,5.43,0,0,0,1.5-.9,7.53,7.53,0,0,0,.9-.9,1.73,1.73,0,0,0,.3-.4h-.5c-.3,0-.7.1-1.2.1a1.7,1.7,0,0,0-.7.1c-.2.1-.6,0-.8.1a9.15,9.15,0,0,1-1.7.1,9.85,9.85,0,0,0-1.7.2c-.6.1-1.1.1-1.5.2s-.9.1-1.2.2a1,1,0,0,0-.4.1Zm16.8-15.8c-.5-.1-1-.3-1.5-.4a8.28,8.28,0,0,0-3.2-.5,26.9,26.9,0,0,0-3.1.2c-.3.1-.6.1-.9.2s-.4.1-.6.1a12.66,12.66,0,0,0-1.8.6,11,11,0,0,1-3.6.3,7,7,0,0,0-2.9.2,6,6,0,0,0-2.9,2.6,10.59,10.59,0,0,1-1,1.2,14.51,14.51,0,0,1-4.9,3.4,12.5,12.5,0,0,0-4,2.6,15.8,15.8,0,0,1-4.8,2.9c-1.7.8-3.4,1.5-4.4,2.9A21.73,21.73,0,0,0,373,269a24.65,24.65,0,0,1-4.3,5.6c-.5.4-.9.8-1.3,1.1a34.89,34.89,0,0,0-3.5,3.2c0,2.8,0,5.6.1,8.4.4.1.5,0,.8-.2a2.81,2.81,0,0,1,1.1-.5.76.76,0,0,0,.4-.1h.6a6.06,6.06,0,0,1,2.7,1.2,5,5,0,0,0,1.8.9h.8a1.74,1.74,0,0,0,1.3-1,3.46,3.46,0,0,0-.6-3c-.9-1.3-2.6-1.7-4.3-2.1-.3-.1-.7-.1-1-.2l-1.7-.4,1.4-.9-.1-.7c1.5-.1,3.5-2.1,5-3.6l.9-.9a61.46,61.46,0,0,1,6.6-5.1c2.3-1.5,3.6-2.5,4.9-4.8a15.68,15.68,0,0,1,4.7-5.6l1-.7.2,1.2c.3,2.1-1,3.8-2.2,5.5a16.36,16.36,0,0,0-1.7,2.6c3.2-1.2,7.2-4.4,9.4-6.4a6.08,6.08,0,0,0,1.7-3.6,18,18,0,0,1,.9-2.8,10.47,10.47,0,0,1,4.7-4.6l1.2-.6-.1,1.3a9,9,0,0,1-1,2.7c-.6,1.2-1.3,2.6-1,3.3.2.2,1,.1,3.8-1.9l.4-.3c2.7-1.9,5.1-3.9,7.7-6.1l.5-.6Zm-103.2,27A42.63,42.63,0,0,0,317,278a45.23,45.23,0,0,1,6.2,2.1c1.2.5,2.3,1.2,3.4,1.7,3,1.6,6.1,3.3,9.5,3.3a7.54,7.54,0,0,1,4.8,2,9,9,0,0,0,3.5,1.8c.4.1,1,.2,1.6.4,1.6.4,4,1,5,.3a1.36,1.36,0,0,0,.5-.9c-2.8-3-5.5-5.9-8.4-8.5a18.25,18.25,0,0,0-8.2-4.2c-3.1-.8-8.7-1.5-11.4-.6-.6.8-2.4.7-5.5.6a62.54,62.54,0,0,0-6.4.3Zm54-42.1a13.26,13.26,0,0,1,2.5-3,11.41,11.41,0,0,0,1.1-1.1c2.9-2.8,5.6-5.5,10.1-5.8a13.35,13.35,0,0,1,2,0h1.5a1.48,1.48,0,0,0,.7-.1c.5-.1.9-.2,1.3-.3a9.23,9.23,0,0,0,2.5-1.5l1.8-1.2a27.19,27.19,0,0,1,14.3-3.6,16.43,16.43,0,0,1,7.5,2.4c.7.4,1.4.7,2.2,1.1a35.93,35.93,0,0,1,3.4,1.7,9.55,9.55,0,0,1,1.6,1.2l.4.5-.4.5c-.4.5-.7,1-1.1,1.5-1.7,2.3-3.7,5-6.5,5.9a5.44,5.44,0,0,1-2,.4,4.21,4.21,0,0,0-2.5,1.1,15.93,15.93,0,0,1-1.3,1.3,11,11,0,0,1-2.5,2.3c-2.9,1.7-5.5,1.4-7.9,1-1.1-.1-2.2-.3-3.4-.3a2.82,2.82,0,0,0-2.4.9,8.51,8.51,0,0,1-1.3,1,8.85,8.85,0,0,1-6,1l-2.6-.3c-3.2-.5-6.5-.9-9.5.4a14.47,14.47,0,0,0-3.5,2.6,10.59,10.59,0,0,0-1,1.2c-.3,4.5-.5,9-.6,13.6-.2,5.9-.2,11.9-.2,17.8.8-.8,1.7-1.5,2.5-2.2.4-.4.9-.7,1.3-1.1a18.11,18.11,0,0,0,4-5.2,25,25,0,0,1,2.4-3.6c1.3-1.7,3.2-2.5,5-3.3a15,15,0,0,0,4.4-2.6,17.51,17.51,0,0,1,4.4-2.9,12.68,12.68,0,0,0,4.4-3.1c.3-.3.6-.8.9-1.1a7.59,7.59,0,0,1,3.7-3.1,9.76,9.76,0,0,1,3.4-.2,7.37,7.37,0,0,0,3-.2c.7-.2,1.4-.4,2-.6.2,0,.4-.1.6-.1s.7-.1,1-.2a28.8,28.8,0,0,1,3.2-.2,12.89,12.89,0,0,1,3.6.6,20.48,20.48,0,0,0,2.4.5l.6.1v1.7A15.85,15.85,0,0,1,413,260a10.2,10.2,0,0,0-2.4,4.6,9.82,9.82,0,0,1-2.6,5.3l-.2.2c-2.7,3.2-4.5,5.3-9,5.7-1.8.2-3.6,1.4-5.5,2.6a23,23,0,0,1-4,2.3,24.47,24.47,0,0,1-12.3,1,32.82,32.82,0,0,0-6.6-.5,5.84,5.84,0,0,1,3.2,2.2,5,5,0,0,1,.8,4.4,3.16,3.16,0,0,1-2.4,2,2.48,2.48,0,0,1-.8.1h-.4a6.82,6.82,0,0,1-2.6-1.1,4.64,4.64,0,0,0-1.9-.9h-.6c-.2,0-.3.1-.5.3a2.54,2.54,0,0,1-1.6.5c0,2.2.1,4.4.1,6.6,1.7-1.2,3.5-2.4,4.9-1.7,1,.5,1.4,1.6,1.4,3.5a6.93,6.93,0,0,1-2.3,5.1,7.34,7.34,0,0,1-4,1.8c0,1.3,0,2.6.1,3.8h68V171.1H299.6V307.9H355c0-3.1,0-6.3.1-9.4a28.65,28.65,0,0,1-6.1-1c-2.7-.7-4.1.1-6.4,1.2l-.9.5a8.58,8.58,0,0,1-4,.9,19.29,19.29,0,0,1-4.7-.8c-.7-.2-1.5-.3-2.2-.5-3.5-.7-5.5-2.8-7.7-5l-.9-.9a15.07,15.07,0,0,0-3.2-2.2c-2-1.2-4-2.4-5.2-4.9-.4-1-.8-1.9-1.2-2.8a18.51,18.51,0,0,0-3.5-6.2l-.1-.1-.4-.5.5-.5c1.3-1.2,4.4-1.3,8.8-1.2a19.05,19.05,0,0,0,4.3-.1v-.2l.4-.2c3.2-1.3,9.4-.4,12.6.4a21,21,0,0,1,8.9,4.6c3.7,3.5,7.4,7.4,11,11.4,0-2.9.1-5.7.1-8.6a6.33,6.33,0,0,1-2.3-2.3,3.88,3.88,0,0,1-.3-3.6,4.48,4.48,0,0,1,2.8-2.2c0-2.5.1-5,.1-7.5a.9.9,0,0,0-.5-.1h-.3c-.2,0-.3,0-.4.1s-.3.1-.5.1a4.19,4.19,0,0,1-2.5.1,2.38,2.38,0,0,1-1.9-1.7h-.1v-.5a1.61,1.61,0,0,0-.4-.7c-.7-.7-1.6-.6-3-.5a5.7,5.7,0,0,1-1.3.1c-4.6.2-8-.2-11.6-2.7a10.2,10.2,0,0,0-4.4-1.6c-.7-.2-1.4-.3-2.2-.5a9.5,9.5,0,0,1-4.1-2.7,13.07,13.07,0,0,0-1.2-1.1,31.34,31.34,0,0,1-7.5-9,32,32,0,0,1-1.7-4.3,22.16,22.16,0,0,0-2-4.7c-.5-.7-1-1.3-1.4-1.9-1.3-1.7-2.6-3.3-2.6-6.1a7.08,7.08,0,0,1,.1-1.4,10.62,10.62,0,0,1,.4-1.9c.4-1.4,1.2-2.4,3.5-2.1a9.15,9.15,0,0,1,2.5.7,7.71,7.71,0,0,0,2.6.7h.6c1,0,2.1-.1,3.3-.2,3.1-.3,6.6-.6,9.1.9a5.84,5.84,0,0,1,1.6,1.4,3,3,0,0,0,1.9,1.2,7.38,7.38,0,0,0,1.2.2,6,6,0,0,1,3.6,1.6l2,1.7h0a119,119,0,0,1,12.5,13c2.2,2.7,2.1,5,1.9,7.4a21,21,0,0,0-.1,3.6,11,11,0,0,0,2,5,3.4,3.4,0,0,1,.1-1,3.63,3.63,0,0,1,.7-1.7v-1c.1-10.3,0-18.9-.2-26.9,0-1.9-.1-3.9-.1-5.9-.6,0-1.2-.1-1.8-.1-1.9,0-4,0-5.9-1.3-1.2-.7-2.4-1.4-3.6-2a27.13,27.13,0,0,1-6.6-4.4c-.5-.5-1.1-1.1-1.8-1.7-2.3-2.1-5.1-4.7-6.3-6.9a6.4,6.4,0,0,1-.5-1.7,10.38,10.38,0,0,0-.3-1.2,2.17,2.17,0,0,0-.8-.9,6.47,6.47,0,0,1-.8-.9,22.18,22.18,0,0,1-2.1-3.7l-.6-1.2c-.2-.5-.5-1-.8-1.6a27.77,27.77,0,0,0-2.8-5.1,6.79,6.79,0,0,0-1.2-1.2,5.46,5.46,0,0,1-2-2.9l-.1-1.2,1.1.4a26.79,26.79,0,0,0,6.5,1,36.16,36.16,0,0,1,6.6.9,22.24,22.24,0,0,1,3.1,1.4,10.08,10.08,0,0,0,1.8.9,23.08,23.08,0,0,0,2.8,1,14.55,14.55,0,0,1,5.3,2.6c3.5,2.9,5.7,7,7.7,10.9a26.34,26.34,0,0,0,1.8,3c.5.7.9,1.4,1.4,2.1l.3-.5.7.7c.7.7,1.3,1.3,1.8,1.9a78.09,78.09,0,0,0-1.1-8.2c-.3-1.8-.6-3.1-.6-3.7,0-2.1,1.3-4.7,3.5-6.8l.6-.6c2.1-1.8,4.4-2.6,6.2-2.3l.6.1v.6c.1,1,.1,2,.3,3,.3,3,.6,6.2-.3,9.1a14.76,14.76,0,0,1-1.2,2.9,20.41,20.41,0,0,1-2.3,2.7,13.08,13.08,0,0,0-2.5,3.3,16.07,16.07,0,0,0-1.2,3.3,15.28,15.28,0,0,1,.4,4.1v.8c.8-1.3,1.5-2.7,2.2-4.1a59.47,59.47,0,0,1,5.7-9.3,47.1,47.1,0,0,0,4.2-6.4,15.05,15.05,0,0,1,1-1.7c.9-1.4,1.7-2.9,2.7-4.2a16.67,16.67,0,0,1,6.5-5.5,28.94,28.94,0,0,1,6.5-1.8,22.28,22.28,0,0,0,4.3-1,8.23,8.23,0,0,0,2.5-1.2,10.11,10.11,0,0,1,3-1.3,16.74,16.74,0,0,1,5.9-.2c.4.1.8.1,1.1.2l.9.2-.3.8a24.85,24.85,0,0,1-2.6,4c-.2.2-.3.4-.5.6a15,15,0,0,0-2.5,4.4,8.58,8.58,0,0,0-.2,2.2,6.11,6.11,0,0,1-.9,3.7,18.9,18.9,0,0,1-4,4,25,25,0,0,0-2.4,2.2c-1.7,1.7-3.4,3.6-6.5,3.8a45.21,45.21,0,0,1-5.2.2c-2.4.1-4.6.1-6.8.4s-3.9.5-5,1.1c-1.4.7-2.3,1.8-3.1,4.2-.1.2-.1.3-.2.5-.2.4-.3.8-.5,1.2a24,24,0,0,1-4.4,6.5,2.7,2.7,0,0,1-.7.8,1.38,1.38,0,0,0-.3.4c0,.7.1,1.5.1,2.2a33.41,33.41,0,0,1,3.2-3.3c.5-.5,1-.9,1.4-1.3l1.6-1.6-.3,2.3c-.4,4.3-.9,7.6-1.2,10.8Zm23-27.7a1.44,1.44,0,0,1-.3-.2,3.92,3.92,0,0,0-.9-.4,11.73,11.73,0,0,0-1.1-.5,5,5,0,0,0-1.3-.4,6.89,6.89,0,0,0-2.8-.3,3,3,0,0,0-1,.2,1,1,0,0,1-.4.1,9.52,9.52,0,0,0,1.1.9,9.72,9.72,0,0,0,2.5,1.2,5.77,5.77,0,0,0,2.9.1,3.92,3.92,0,0,0,.9-.4,3,3,0,0,0,.4-.3" style="fill:#01411c"/><path d="M310.3,0a64.09,64.09,0,1,1-76.4,70.6A54.49,54.49,0,1,0,310.3,0" style="fill:#01411c"/><path d="M417.2,373.3c1.1,4.1,3.4,7.1,2.5,11.7-.6,2.9-1.1,7.5-3.6,9.7a14,14,0,0,0-.2-12.3c-1.6-3.2-5.3-6.5-5.9-9.7-.8-4.4,1.5-8.1,2.5-12,.8-3.2-1.1-8.2-4.6-4.9a7.15,7.15,0,0,0-1.8,2.9h0v41h-5.5v-34c-.9-.6-1.9-.6-2.7.8-1.3,2-.2,8-.2,10.4,0,5.9-.8,12.7-5.9,16.3a8,8,0,0,0,.8-1.6c1.2-3.8,2.4-6.8,2.2-11-.2-4-1.4-7.6-2.1-11.4a18.12,18.12,0,0,1-.1-5.7,8.18,8.18,0,0,1,2.4-4.8,5.91,5.91,0,0,1,5.7-1.8v-.2h1.2c-3.8-6.8-3.4-13.8-3.6-21.8-.2-5.7,1.5-12,1.8-17.9a40.74,40.74,0,0,0,.7-4.2,28.32,28.32,0,0,1,5.6,10.9c1.2,4.4.8,7.5.3,12-.3,2.7.4,5,.5,7.6a12.21,12.21,0,0,1-.1,2.7c4.6-3.5,10.4-2.6,12.8,4.2,1,3,.3,9.2-.9,11.9-1.6,3.4-2.7,7.5-1.8,11.2m-27.6-23.2c1.8,3.6,1.7,8.4.7,12.2a1.42,1.42,0,0,1-.2.6c-1,3.5-3.1,6.6-2.1,10.3,2,7.8,3,15.7-4.4,20.9a17.59,17.59,0,0,0,.9-2c1.3-3.5,2.3-8,1.3-11.9s-3.1-6.8-2.7-11.3c.4-4.2,3.7-8.2,1-12.4-1.2-1.9-2.4-2.5-4.1-.9a4.06,4.06,0,0,0-1,1.4v42.4h-5.5V358a17.3,17.3,0,0,0-3.9-5.5c-1.5-1.3-4.3-3-6-1.1-1.2,1.3-.7,5.2-.3,6.8a13.16,13.16,0,0,1-5-8.5,6.8,6.8,0,0,1,2-5.5c3.9-4,7.4-2.6,11.1-.1a47.06,47.06,0,0,0,.3-7.5c-.2-3.5-1.9-6.4-2.3-9.8-.7-5.5,2.1-12.4,8-13.7-3.3,4-2.6,9.3-1.3,13.7a30.36,30.36,0,0,1,1.5,11.2c-.1,2.2-.7,5.2,0,7.6,4.5-1.7,9.4-.5,12,4.5m-35.8,8.3c14.3,1.3,2.9,25.3,10.2,36.3-11.4-5.7-6.3-17.1-8.9-27.1a3.79,3.79,0,0,0-1.3-1v33h-5.5V361h0c-.8-2.1-2.1-4.5-3.6-4.7-4.6-.9-1.3,9.2-.6,11.1,1.6,4.3,1.4,9.2,1.2,13.8-.2,4.3-2,8.3-.8,12.6-.2-.2-.5-.7-.8-1-8.6-7-3.1-20.2-5.4-29.4a51.78,51.78,0,0,1-1.3-5.8,9,9,0,0,1,2.5-8.1c2.3-2.5,4.7-3.6,7.6-3-6-10.2.2-22.9,4.2-32.1,5.9,7.4,1.5,14.9.7,22.4-.3,4.2,1.6,7.7,2,11.7,0,.6.1,1.1.1,1.7a29.59,29.59,0,0,1-.3,7.9h0v.3m-19.5-.4c.4,3.4-.1,7.6-.1,11,0,3.9-1.4,7.3-.4,11.2-4.5-2.9-3.6-9.4-4.1-14-.2-2.5.3-5.5-1.9-7.3a2.15,2.15,0,0,0-2.3-.5v41H320V359.1h0c-2.5-3.3-7.8-4-8.8,1.3-.8,4.2.7,8.6,1.5,12.7,1.5,7.1,2.5,14.6-3.1,20.2,2.4-2.6-.7-10.9-1.6-13.5-1.7-4.8-4-9.4-5.4-14.3a21,21,0,0,1-.9-5.4,9.06,9.06,0,0,1,2-6c4.2-5.3,10.2-2,15.6-1.1-7.2-12.9,4.9-25.8.7-38.6,11.1,9.7,9.3,26,5.2,39.2a12.47,12.47,0,0,1,2.7-1c3.1-.8,5.6,1.3,6.2,4.6a1.88,1.88,0,0,1,.2.8" style="fill:#01411c"/><path d="M307.9,45.9l-20,2-4.2,19.7-8.1-18.4-20,2,15-13.4-8.1-18.4,17.4,10.1,15-13.4-4.2,19.7,17.2,10.1" style="fill:#01411c"/><path d="M204.1,416.1l14.1-36.3c-.6,0-1.2-.1-1.8-.1l-18,34.6a11.32,11.32,0,0,0,1.3,1,4.5,4.5,0,0,0,3.1.7,4.48,4.48,0,0,1,1.1.1Zm6.7,4.1,11.3-40.4a6.15,6.15,0,0,0-1.4.1L205.8,418c.3.3.7.6,1,.9l.5.4a2.37,2.37,0,0,0,2.1.8,8.17,8.17,0,0,1,1.4.1Zm6.9,2.5,7.8-43h-1.2l-11.5,41.2a2.7,2.7,0,0,1,.8.7,3.92,3.92,0,0,0,1,.8,3,3,0,0,0,1.8.4,4.51,4.51,0,0,1,1.3-.1Zm6.8,2.1,4-45.2h-1l-7.9,43.6c.2.1.5.3.7.4a6,6,0,0,0,1.1.6,7.79,7.79,0,0,0,3.1.6Zm7,.9V379.6h-.9l-.1.7v.1l-4,44.6c.3.1.6.1.8.2.5.1,1,.2,1.6.3a13.42,13.42,0,0,0,2.1.1.9.9,0,0,0,.5.1Zm1.8-50.3a2.37,2.37,0,0,0-.4-3.3h-6.6c-1.6-.1-3.2-.1-4.8-.1a6.15,6.15,0,0,1-1.3-.1h-1.7c-2,0-4.8.1-6,1.2a1.76,1.76,0,0,0-.6,1.3,3.24,3.24,0,0,0,1.3,2.3,8.11,8.11,0,0,0,1.8,1,13.06,13.06,0,0,0,3.9.6,7.57,7.57,0,0,0,1.5-.1h2.1a17,17,0,0,0,2.2-.1h4.7c.4-.3.9-.6,1.4-.9.2-.1.5-.3.7-.4a1.38,1.38,0,0,0,.4-.3A5.26,5.26,0,0,0,233.3,375.4Zm5.2,49.7-4-45.5h-.9v46.2h.3a14.08,14.08,0,0,0,2.1-.1,7.49,7.49,0,0,0,1.6-.4A3.71,3.71,0,0,0,238.5,425.1Zm6.9-1.7-7.9-43.7h-1l4,45.2a9.43,9.43,0,0,0,3-.5,2.38,2.38,0,0,0,1.1-.6,3,3,0,0,1,.8-.4Zm6.9-2.3-11.6-41.4h-1.2l7.8,43.2h1.2a2.27,2.27,0,0,0,1.8-.3,3.92,3.92,0,0,0,1-.8c.4-.3.7-.5,1-.7Zm7-3-15-38.5h-1.4l11.4,40.7a6.15,6.15,0,0,1,1.3-.1,2.37,2.37,0,0,0,2.1-.8l.5-.4a3.13,3.13,0,0,0,1.1-.9Zm7.3-3.5-18.2-35h-1.8l14.3,36.7h1.2a5.64,5.64,0,0,0,4.5-1.7Zm-18.3-85.2a1.47,1.47,0,0,1,1.2-.4c-.2,1.5-1.3,2.2-1.7,3.5.6.1.9-.6,1.5-.4-.1,1.5-1.5,2.2-1.7,3.7a2.72,2.72,0,0,1,.9,0c-.3,1.6-1.3,2.5-1.7,3.9.3,0,.7.3,1,.3-.2,1.2-1.6,2.5-2.8,3.3l-6.5,27.1h.6l9.4-25.2h0a2.62,2.62,0,0,1-.6-1.3c-.3-1.3-.1-2.3,1.2-1.6a7.8,7.8,0,0,1-.4-2.2h0a4.67,4.67,0,0,1,.3-1.7c.2.1.6.1.7.3a11.45,11.45,0,0,1,.7-3.5c.2.1.5.1.6.2.3-1.1,0-2.4.6-3.5a5.58,5.58,0,0,0,.8.5,6.3,6.3,0,0,1,.6-2.9c.1.3.4.5.4,1,.6-.3,1.7-1.1,1.8-2-.1.7,1,3.3.2,3.8a1.53,1.53,0,0,1,1.3-.2c-.4,1.4-1.6,1.9-2.1,3.1.6.2,1-.4,1.5-.1-.3,1.5-1.7,2-2.1,3.4.4-.1.6.1.9.2-.5,1.6-1.6,2.3-2.2,3.6.3.1.6.4.9.5-.4,1.2-1.9,2.2-3.2,2.9l-9.2,24.8h.8L253.6,348a2.89,2.89,0,0,1-.4-1.4c-.2-1.3.2-2.3,1.4-1.4a8.68,8.68,0,0,1-.1-2.3h0a8.45,8.45,0,0,1,.5-1.7c.2.2.6.2.7.4a11.25,11.25,0,0,1,1.1-3.4,3.33,3.33,0,0,1,.6.3c.4-1,.2-2.3.9-3.3a2.41,2.41,0,0,0,.8.6,10.14,10.14,0,0,1,.9-2.8,1.82,1.82,0,0,1,.2,1.1c.6-.2,1.8-.9,2-1.7-.1.7.6,3.4-.3,3.8a1.93,1.93,0,0,1,1.3,0c-.6,1.4-1.8,1.7-2.5,2.9.5.2,1-.3,1.5.1-.5,1.4-1.9,1.7-2.5,3,.3-.1.6.2.9.3-.7,1.5-1.9,2-2.6,3.3.3.2.5.5.8.6-.5,1.2-2.1,1.9-3.4,2.4h0l-11.3,21.8h1.1l13-19a3.19,3.19,0,0,1-.3-1.4c0-1.3.5-2.2,1.5-1.2a6,6,0,0,1,.2-2.3c0-.1,0-.1.1-.2a4,4,0,0,1,.7-1.3c.2.2.5.3.7.5a10.36,10.36,0,0,1,1.5-3.2,6.12,6.12,0,0,0,.6.4c.5-1,.5-2.3,1.3-3.2.2.3.5.4.7.7a8.75,8.75,0,0,1,1.2-2.6,3.42,3.42,0,0,1,.1,1.1c.6-.1,1.9-.6,2.2-1.4-.2.6.2,3.6-.7,3.7a1.48,1.48,0,0,1,1.3.2c-.7,1.2-2,1.4-2.8,2.4.5.3,1-.1,1.5.3-.6,1.4-2.1,1.4-2.8,2.7.3,0,.6.3.8.4-.9,1.4-2.1,1.7-3,2.8.3.2.5.6.8.8-.6,1-2.3,1.6-3.7,1.8l-12.5,18.3c.5,0,.9.1,1.3.1h.1l13.6-15.2a3.55,3.55,0,0,1-.1-1.5c.2-1.3.7-2.1,1.7-1a5.73,5.73,0,0,1,.6-2.5,3.6,3.6,0,0,1,.8-1.2c.1.2.5.4.6.6a12.48,12.48,0,0,1,1.9-3c.1.2.4.3.5.5.6-.9.8-2.2,1.7-3,.1.3.4.5.6.8a8.74,8.74,0,0,1,1.5-2.4c0,.3.2.6,0,1.1.7,0,2-.3,2.3-1.1-.3.6-.2,3.6-1.2,3.6.5,0,1,0,1.3.4-.9,1.1-2.1,1.1-3.1,2,.5.4,1.1,0,1.5.6-.8,1.3-2.3,1.1-3.1,2.2.3.1.5.4.8.6-1,1.2-2.3,1.4-3.3,2.4.3.2.4.6.7.8-.7,1-2.5,1.3-3.9,1.3h0l-12.9,14.5c1.8.5,3.2,1.6,2.9,4.2-.2,2-1.5,3.3-3.9,4L268,413.3l1.1,2.3a12.88,12.88,0,0,1-1.7,1.6,9.38,9.38,0,0,1-1.2.9,7.14,7.14,0,0,1-4.3,1h-.4a9,9,0,0,1-1.6,1.8c-.2.1-.4.3-.6.4l-.4.4a5.34,5.34,0,0,1-3.6,1.4h-.7c-.2,0-.4.1-.6.1a2.92,2.92,0,0,0-1.4.8h0a7.34,7.34,0,0,1-1.3,1,5.19,5.19,0,0,1-3.2.7,1.27,1.27,0,0,1-.6-.1h-.6a4.88,4.88,0,0,0-1.3.6h0a10.19,10.19,0,0,1-1.5.8,11.49,11.49,0,0,1-3.6.7h-.2l-.6.1c-.4,0-.8.1-1.2.1a1.42,1.42,0,0,0-.6.2,14.91,14.91,0,0,0-1.8.4,19.27,19.27,0,0,1-2.4.1h-.8v.1a1.48,1.48,0,0,0-.7-.1,1.7,1.7,0,0,0-.7.1v-.1h-.8a19.42,19.42,0,0,1-2.4-.2,9.51,9.51,0,0,1-1.8-.4c-.2-.1-.3-.1-.5-.2-.4-.1-.8-.1-1.3-.2h-.8a12.1,12.1,0,0,1-3.7-.7,9.08,9.08,0,0,1-1.4-.7h0c-.6-.3-.9-.6-1.4-.6h-1.3a4.11,4.11,0,0,1-3.2-.7,14.7,14.7,0,0,1-1.3-1h0a2.53,2.53,0,0,0-1.4-.9.75.75,0,0,1-.5-.1,1.48,1.48,0,0,1-.7-.1,4.52,4.52,0,0,1-3.6-1.4l-.4-.4c-.2-.1-.3-.3-.5-.4a6.9,6.9,0,0,1-1.6-1.8h-.3a7.89,7.89,0,0,1-4.3-1.1,9.38,9.38,0,0,1-1.2-.9c-.6-.5-1.1-1.1-1.7-1.7l1.2-2.3,17.3-33.5a10.59,10.59,0,0,1-2-1.2,4.77,4.77,0,0,1-1.9-3.4,3.17,3.17,0,0,1,1.2-2.5,4.61,4.61,0,0,1,1.7-.9l-12.5-13.9a2.77,2.77,0,0,1-1.3.1c-1.1-.2-1.9-.8-.8-1.9a5.32,5.32,0,0,1-3.4-1.5,1.79,1.79,0,0,0,.5-.7,10,10,0,0,1-2.6-2.1,3.11,3.11,0,0,0,.4-.6c-.8-.7-2-.9-2.6-1.9.3-.1.4-.4.7-.6a6.84,6.84,0,0,1-2.1-1.7c.3,0,.6-.2,1,0,0-.7-.3-2.3-.9-2.6.5.3,3.2.2,3.2,1.3a2.09,2.09,0,0,1,.3-1.4c1,1,1,2.4,1.8,3.4.3-.5,0-1.2.5-1.6,1.1.9,1,2.5,2,3.4,0-.4.3-.6.5-.9,1.1,1.1,1.3,2.5,2.1,3.6.2-.3.6-.5.8-.8.9.8,1.1,2.8,1.1,4.4h0l13.8,15.5a7.57,7.57,0,0,1,1.5-.1L204.8,353h0a2,2,0,0,1-1.3-.1c-1.1-.4-1.8-1.1-.6-2a5.17,5.17,0,0,1-1.9-.8,3.45,3.45,0,0,1-1.2-1.2c.2-.1.4-.5.6-.6a10.9,10.9,0,0,1-2.4-2.4c.2-.1.3-.5.5-.5-.7-.8-1.8-1.2-2.4-2.2.3-.1.5-.4.8-.6a6.1,6.1,0,0,1-1.9-2,1.3,1.3,0,0,1,1,.2c.1-.8,0-2.3-.6-2.8.5.4,3,.6,3,1.7a2.54,2.54,0,0,1,.5-1.3c.9,1.1.7,2.5,1.4,3.7.4-.5.1-1.2.7-1.6,1,1,.7,2.7,1.5,3.7.1-.4.4-.5.6-.8,1,1.3,1,2.7,1.7,3.9.2-.2.6-.4.8-.6.8.9.8,2.9.6,4.5l13.4,19.5h1l-11-21.4a3.45,3.45,0,0,1-1.3-.3c-1.1-.5-1.6-1.3-.4-2a4.87,4.87,0,0,1-1.8-1.1,3.59,3.59,0,0,1-1-1.4c.2-.1.5-.4.7-.5a12.78,12.78,0,0,1-2.1-2.8c.2-.1.4-.3.6-.4-.6-.9-1.7-1.4-2.1-2.6a5.94,5.94,0,0,0,.8-.4,6.9,6.9,0,0,1-1.7-2.3c.3.1.6,0,.9.3.2-.7.2-2.3-.3-2.8.4.5,3,1.1,2.8,2.1a2.09,2.09,0,0,1,.7-1.3c.7,1.2.4,2.6.9,3.8.5-.4.3-1.1.9-1.4.9,1.2.4,2.8,1.1,3.9.1-.3.5-.4.7-.7.8,1.4.6,2.8,1.2,4.1.2-.2.7-.3.9-.6.6,1,.5,3,.1,4.6l11.9,23h.8l-9-24.4a2.67,2.67,0,0,1-1.3-.5c-1-.6-1.4-1.6-.2-2.1a7,7,0,0,1-1.7-1.3,3.77,3.77,0,0,1-.9-1.5c.2-.1.5-.4.7-.4a9.22,9.22,0,0,1-1.7-3.1c.2-.1.4-.3.6-.3-.5-1-1.5-1.7-1.8-2.9a3.18,3.18,0,0,0,.9-.3,6.77,6.77,0,0,1-1.4-2.5,1.8,1.8,0,0,1,.9.4c.2-.7.5-2.2,0-2.8.4.5,2.8,1.5,2.5,2.5a2.55,2.55,0,0,1,.8-1.2c.6,1.3.1,2.7.5,4,.5-.3.4-1.1,1-1.3.7,1.3,0,2.8.6,4a2.41,2.41,0,0,1,.8-.6c.6,1.5.3,2.9.7,4.3.3-.2.7-.2.9-.4.5,1.1.1,3-.5,4.5h0l9.6,25.9h.6l-6.4-26.7h0a2.52,2.52,0,0,1-1.2-.7c-.9-.8-1.3-1.7.1-2.1a5.8,5.8,0,0,1-1.5-1.6,4.59,4.59,0,0,1-.7-1.6c.2,0,.6-.3.8-.3a11.52,11.52,0,0,1-1.4-3.2,2.12,2.12,0,0,1,.7-.3c-.4-1.1-1.3-1.9-1.5-3.1.3,0,.6-.2.9-.2a6.82,6.82,0,0,1-1.1-2.6c.2.2.6.2.8.5.3-.7.7-2.1.3-2.8.3.6,2.6,1.9,2.2,2.9a1.52,1.52,0,0,1,.9-1c.4,1.4-.2,2.6,0,4,.5-.2.5-1,1.1-1.2.6,1.4-.3,2.8.1,4.1.2-.3.6-.3.8-.5.5,1.6,0,2.9.2,4.4a3.81,3.81,0,0,0,1-.3c.4,1.2-.2,3-1,4.4h0l6.7,27.9h.5l-3.3-28.1a2.84,2.84,0,0,1-1.1-.8c-.8-.9-1-1.9.3-2.1a5.94,5.94,0,0,1-1.3-1.8,3.37,3.37,0,0,1-.5-1.7c.3,0,.6-.2.8-.2a12,12,0,0,1-1-3.5c.2,0,.5-.2.7-.1-.3-1.1-1.1-2-1.1-3.3.3.1.6-.1.9-.1a7.67,7.67,0,0,1-.8-2.8c.2.2.5.2.7.7.4-.6,1-2,.7-2.7.2.6,2.4,2.3,1.8,3.2a2.13,2.13,0,0,1,1-.9c.3,1.5-.5,2.6-.4,4,.6-.2.6-.9,1.3-1,.4,1.4-.6,2.7-.3,4.1.2-.2.6-.2.9-.4.3,1.7-.4,2.9-.3,4.4.3-.1.7,0,1-.1.2,1.2-.6,3-1.5,4.2l3.4,29h.4V341.8a2.4,2.4,0,0,1-1-1c-.7-1-.8-2.1.6-2a8.62,8.62,0,0,1-1.1-1.9,6.28,6.28,0,0,1-.3-1.9c.2.1.6-.1.8,0a13.55,13.55,0,0,1-.6-3.6c.2,0,.5-.1.7-.1-.2-1.1-.9-2.1-.7-3.4.3.1.6,0,.9.1a7,7,0,0,1-.4-2.9c.2.2.5.3.7.8.4-.5,1.2-1.8,1-2.6.2.7,2.1,2.6,1.4,3.5a1.64,1.64,0,0,1,1.2-.8c.1,1.5-.8,2.5-.9,3.8.6-.1.8-.8,1.4-.8.2,1.5-.9,2.6-.8,4,.3-.2.6-.1.9-.2.1,1.7-.7,2.8-.8,4.3.3-.1.7.1,1,0,.1,1.2-.9,2.9-1.9,4v29.2h.4l3.4-28.4a3.33,3.33,0,0,1-.9-1.1c-.6-1.1-.6-2.2.8-1.9a6.11,6.11,0,0,1-.9-2,4.08,4.08,0,0,1-.1-1.9c.2.1.6,0,.8.1a14,14,0,0,1-.2-3.6c.2.1.5,0,.7.1,0-1.2-.6-2.3-.3-3.5.3.2.6.1.9.2a7,7,0,0,1-.1-2.9,2.31,2.31,0,0,1,.6.9c.5-.5,1.4-1.6,1.3-2.4.1.6,1.8,2.9,1.1,3.6a1.74,1.74,0,0,1,1.2-.6c-.1,1.5-1.1,2.4-1.3,3.7.6,0,.8-.7,1.5-.6.1,1.5-1.2,2.4-1.2,3.8.3-.2.6-.1.9-.1-.1,1.7-1,2.7-1.3,4.1.3,0,.7.2,1,.2h0c-.1,1.2-1.3,2.7-2.4,3.7l-3.4,28.6h.5l6.5-27.2h0a3.6,3.6,0,0,1-.8-1.2c-.4-1.2-.3-2.3,1-1.8a6.46,6.46,0,0,1-.6-2.1,4,4,0,0,1,.1-1.9c.2.1.6.1.8.2a11.43,11.43,0,0,1,.3-3.6,1.7,1.7,0,0,0,.7.1c.1-1.1-.3-2.3.1-3.5.2.2.6.2.9.3a7.25,7.25,0,0,1,.2-2.9,2.62,2.62,0,0,1,.5.9c.5-.4,1.6-1.4,1.6-2.2.2,1,1.6,3.4.8,4ZM237,378.1h10.6a8.75,8.75,0,0,0,2.4-.3c2.9-.6,3-2.1,3.1-2.7.2-2.1-.8-2.6-4.2-3-.6-.1-1.1-.1-1.7-.2-2.3,1.4-4.7,3-7,4.5-.1.1-.3.1-.4.2s-.3.2-.5.3-.2.1-.3.2a16.32,16.32,0,0,1-1.9.9.1.1,0,0,1-.1.1" style="fill:#01411c"/><path d="M73.4,603.9a4.57,4.57,0,0,1,3,1.8c.9,1.1,1.8,2.8,3.2,3.3,2.2.8,3.4-.7,3.2-2.8V606a33.9,33.9,0,0,1-4.5-4C77.8,601.5,75.6,602.7,73.4,603.9Z" style="fill:#01411c"/><path d="M541.7,566.7h0c-.4-4.6-2.2-9.1-5.7-11.7-6.5-4.9-17.2-3.6-23.2.7-3.1,2.2-6.4,6.5-6.9,10.9a9.68,9.68,0,0,0,.4,3.8h0l.1.2v.1a2,2,0,0,0,.4.8v.1l6.8,16.4a97.86,97.86,0,0,1-14.8,1.8c-9.9.7-19.7,1.5-29.6,2.8l-.7.1c-8.3,1-16.9,2.1-25.3,3.5-17.8,2.8-32.1,6.2-44.8,10.8a151.92,151.92,0,0,0-20.2,8.8,40.69,40.69,0,0,0-7,4.4,1.38,1.38,0,0,1-.4.3c-.9.7-1.6,1.3-2.1,1.7-9.1-3.9-19.2-6.3-30.7-7.5a365.69,365.69,0,0,0-37.3-1.8c-10.2,0-21.1.3-33.2,1.1-1.1.1-2.2.1-3.3.2-8.9.5-18,1-26.8,3.2a67.12,67.12,0,0,0-12.1,4.3c-.4-.3-.8-.7-1.3-1.1-.2-.2-.3-.3-.4-.3a58.22,58.22,0,0,0-7-4.4,165.42,165.42,0,0,0-20.2-8.9c-12.8-4.6-27-8.1-44.8-10.8-8.4-1.3-16.9-2.4-25.2-3.4l-.8-.1c-9.9-1.3-20.1-2.1-29.6-2.9A132.52,132.52,0,0,1,81.2,588L88,571.4l.2-.6.1-.3h0a9.68,9.68,0,0,0,.4-3.8c-.4-4.4-3.7-8.7-6.8-10.9-6-4.3-16.8-5.6-23.3-.7-3.4,2.6-5.2,7.1-5.7,11.6L46,605.2l.1.3c2.1,6.9,7.5,12.6,15.8,17.1,7.6,4.1,16.2,6.2,22,7.3,14.7,2.7,29.9,4,44.6,5.3l4.1.4c1.5.1,3,.2,4.5.4,5.3.5,10.8.9,16.2,1.6,25.5,3.3,42.6,7.2,48.8,10,0,6.3-.1,17.2-.1,24.4v5a8.65,8.65,0,0,0,.7,1.7,7.34,7.34,0,0,0,1.4,1.8,9,9,0,0,0,6.6,2.4,29.88,29.88,0,0,0,9.5-2,45.06,45.06,0,0,0,6.6-3.2c9-5.2,15.3-10.8,19.4-17.3a37.7,37.7,0,0,0,3.6-7.5c2.3,0,39.5.1,50.4.1h3l42.3.1a39.35,39.35,0,0,0,3.6,7.4c4.1,6.4,10.7,12.3,19.7,17.4a35.46,35.46,0,0,0,6.8,3.2,30.41,30.41,0,0,0,9.7,2.1,9.11,9.11,0,0,0,6.7-2.4,9.51,9.51,0,0,0,1.5-2,4.42,4.42,0,0,0,.6-1.6v-5c0-7.4,0-19-.1-25.2,7.2-2.7,23.6-6.3,47.2-9.4,5.4-.7,10.9-1.2,16.2-1.6,1.5-.1,3-.2,4.5-.4l4.1-.4c14.6-1.3,29.8-2.6,44.5-5.3,5.8-1.1,14.4-3.2,22-7.2,8.4-4.4,13.7-10.2,15.8-17.1l.1-.4ZM184.6,616.2a2.3,2.3,0,0,0,.4-1.4c-.2-1,1-1.7,1.8-1.9s2.4-.3,2.5.7a4.36,4.36,0,0,1-1.1,3.6,3.09,3.09,0,0,1-3,.8A1,1,0,0,1,184.6,616.2Zm-14.4-5.5a2.12,2.12,0,0,0,.4-1.4c-.2-1,1-1.7,1.8-1.9s2.4-.3,2.5.7a4.36,4.36,0,0,1-1.1,3.6,3.09,3.09,0,0,1-3,.8C169.7,612.3,169.6,611.4,170.2,610.7ZM60.3,557.6c5.2-4,14.4-2.8,19.4.8,2.4,1.7,5.2,5.1,5.5,8.5a5.66,5.66,0,0,1-.3,2.6l-.2.6h0a6.57,6.57,0,0,1-1.2,1.7c-3,3.1-10.4,1.6-16.4-.9l-1.5-.6-3,7.4c-3.4-3.9-6.2-8.9-6.1-13.6A11.25,11.25,0,0,1,60.3,557.6ZM200,625.3a16.73,16.73,0,0,1-4.8,2.1,21.4,21.4,0,0,1-1,5.9,8.8,8.8,0,0,1-7.8,5.2,34.51,34.51,0,0,1-9.7-1.5c-1.5-.4-2.9-.9-4.4-1.4-7.2-2.3-14.9-3.6-22.4-5.1-2.4-.5-4.8-1-7.3-1.5-15-3.2-30.1-6.6-43.8-13.5a111.13,111.13,0,0,1-12.5-7.1,8.12,8.12,0,0,1-6.6,3c-1.7,0-3.8-.2-5.1-1.5a21.41,21.41,0,0,0-2.8-3.2,4.32,4.32,0,0,0-1.9-.8c-.2.1-.3.2-.4.2A33,33,0,0,1,62,608c-3,.5-1.8-2.5.5-2.9,5.7-.9,9.3-4.1,14.3-6.4a5,5,0,0,1,3.2-.4c2.9.9,4.9,4.3,7.4,5.9h0c3.4,2.2,6.8,4.6,10.4,6.6,12.6,6.7,26.5,10.7,40.4,13.8l4,.9a13,13,0,0,0,7.3-.4c2.7-.8,5.2-2.1,7.8-3.1a19,19,0,0,1,.8-6.7h-1c-3,0-2-3,.4-3h5.7c2.6.2.9,3-.9,3,0,.1-.1.2-.2.5a7.61,7.61,0,0,0-.3,2.1,28.1,28.1,0,0,0-.1,2.9c.4-.1.8-.1,1.2-.2,4-.3,9-.9,12.8.7,5.2,2.1,10.7,9,5.4,13.5a15.06,15.06,0,0,0,3.6.6c5.8.4,6.3-6.2,6.6-10.5.2-3-.6-7.3,3.7-7.7,4-.4,5.5,3.2,5.9,6.6A2.14,2.14,0,0,1,200,625.3Zm27.2,12.9c.2,3.5-.1,11.2,6.5,9.1,5-1.7,8.2-6.1,5.6-11-2.2-4.3-2.2-7.9,2.2-10.7,1.7-1.1,5.3.3,2.9,1.9-5.7,3.7,1.9,8.8.3,13.7-1.2,3.9-4.8,6.8-8.5,8.5a10.5,10.5,0,0,1-10.9-1.3c-3.1-2.3-2.3-6.4-2.5-9.7C222.7,636.7,227.1,636,227.2,638.2Zm16.2,20.3c-3.7,5.9-9.8,11.3-18.2,16.2a38.42,38.42,0,0,1-6.1,3c-2.9,1-9.8,3.4-12.7.4a5,5,0,0,1-.7-.8c1.7-4.1,7.2-9.7,14.2-14.5,8.6-5.8,18-9.3,26.3-9.9A35.59,35.59,0,0,1,243.4,658.5Zm55-32.3a2.12,2.12,0,0,0,.4-1.4c-.1-1,1-1.7,1.8-1.9s2.4-.3,2.5.7a4.36,4.36,0,0,1-1.1,3.6,3.09,3.09,0,0,1-3,.8A1,1,0,0,1,298.4,626.2ZM288,627.7a2.3,2.3,0,0,0,.4-1.4c-.1-1,1-1.7,1.8-1.9s2.4-.3,2.5.7a4.36,4.36,0,0,1-1.1,3.6,3.09,3.09,0,0,1-3,.8C287.5,629.3,287.3,628.4,288,627.7Zm52.7.8c-.2-1.5-.3-2.9-.4-4.4-3.9,2.1-6.7,6.3-11.6,6.7-1.7.1-4,.5-5.6-.3-2.5-1.4,2.8,2.6,3.7,3.3,1.9,1.5,8.8,5.4,6.5,8.7-1.3,2-5,2.1-7,2-7.1-.6-14.1-1.8-21.3-1.7-9.5.1-18.8,1.7-28.3,1.8-12.9.2-23.6-2.4-23.2-17.4.1-1.5,4.4-2.3,4.3-.5-.6,21.5,25.7,14.7,39.8,13.9a137.62,137.62,0,0,1,20.3.1c2.3.2,4.6.5,6.8.9.4.1,5.7.8,3.8-1.2-2.1-2.1-15.4-10.1-7.8-13.3,5.9-2.5,4.7,6.4,13.8-1.5,2.5-2.1,4.5-3.8,7.7-4.6.5-.1,2.4-.4,2.5.6a58.69,58.69,0,0,0,.5,5.9C345.3,629,340.9,630,340.7,628.5Zm16.1-4.8a22.86,22.86,0,0,0,4,3.6c.8.7-.4,1.6-1.7,2a37.4,37.4,0,0,1,.2,18.8c-.4,1.7-4.8,2.3-4.4.5,1.7-7.8,1.8-15.9-2.1-23.1C351.9,623.7,355.8,622.4,356.8,623.7Zm32.8,54.6c-3.1,3-10.1.6-13.1-.4a29.54,29.54,0,0,1-6.2-3c-8.6-4.8-14.8-10.3-18.6-16.3a33.33,33.33,0,0,1-2.9-5.6c18.7.9,38.2,16,41.5,24.4A2.76,2.76,0,0,1,389.6,678.3Zm28-62.1a2.3,2.3,0,0,0,.4-1.4c-.1-1,1-1.7,1.8-1.9s2.4-.3,2.5.7a4.36,4.36,0,0,1-1.1,3.6,3.09,3.09,0,0,1-3,.8C417.1,617.8,417,616.9,417.6,616.2Zm14.1,15.7a27.54,27.54,0,0,1-32.1-6.5c-1.4-1.6,2.7-3.3,4-1.9,5.8,6.3,14.9,9.9,23.3,7,9.9-3.3,12.7-14.6,3.3-20.5-2-1.3,1.8-3.5,3.3-2.5C443.3,613.7,442.3,627.1,431.7,631.9Zm73.7-20.2a17.36,17.36,0,0,1-11.3,1.5c-1.7,3-5.2,4.9-8.5,5.8-4.2,1.1-8-1-11.5-3.1-3.8,2.7-9.1,4.7-13.8,4.5-5.6-.3-11.1-2.3-13.6-7.7-1.7-3.6-2-5.9,1.8-7.3,1.6-.6,4.4-.1,1.5.9-1.9.7,2.1,7.4,2.8,8,5.4,5,14,6,19.7.3a11.19,11.19,0,0,0,1.7-2,32.53,32.53,0,0,1,6.6-7.2c.7-.6,3.2-1.7,4-.9a38.28,38.28,0,0,0,9.3,6c.4,0,.6.1.7.3,4.3,1.8,8.5,2.1,9.6-2.4,1.1-4.2-.2-8.3-4.8-9.3-1.2-.2,2.5-1.9,3.6-1.7C509.8,598.9,511.9,608.5,505.4,611.7Zm6.9,4.4a2.94,2.94,0,0,1-3.1.8,1.14,1.14,0,0,1-.5-2c.1-.1.2-.2.1-.6a2,2,0,0,1,1.8-2c.7-.2,2.4-.2,2.5.8A3.2,3.2,0,0,1,512.3,616.1Zm7.4-2.6a3.21,3.21,0,0,1-3.1.8c-1-.3-1.1-1.1-.5-1.8a1.74,1.74,0,0,0,.3-1.4c-.1-1,1-1.7,1.8-1.9.6-.2,2.4-.3,2.5.7A3.47,3.47,0,0,1,519.7,613.5Zm9.9-2c-.6,1.3-4.9,1.9-4.4.6,1.3-3,1.7-7.1.2-10.1-1.2-2.3-3.8-3.1-5-5.3-2-3.9,4.4-5.5,7-5.9,3-.4,1.4,2-.6,2.3-3.5.5-2.1,2.6-.2,4.1a8.33,8.33,0,0,1,3.1,3.6A14.64,14.64,0,0,1,529.6,611.5Zm8.4-47.3c.1,4.7-2.7,9.7-6,13.5l-3-7.3-1.5.6c-6,2.5-13.5,3.9-16.4.9a9.39,9.39,0,0,1-1.2-1.8h0l-.2-.6h0a5.66,5.66,0,0,1-.3-2.6c.3-3.4,3.1-6.8,5.5-8.5,5-3.6,14.2-4.8,19.4-.8a11.86,11.86,0,0,1,3.7,6.6Z" style="fill:#01411c"/><path d="M476.9,613.6c2,1.2,4,2.7,6.3,3.3,3.4.9,6.5-1.7,7.4-4.7a30.93,30.93,0,0,1-8.2-4.8C480.5,609.4,478.9,611.6,476.9,613.6Z" style="fill:#01411c"/></svg>