<svg xmlns="http://www.w3.org/2000/svg" viewBox="0 0 600 600"><title>Palau</title><path d="M223.82,425c0,4.54-6.13,8.22-13.71,8.22s-13.72-3.68-13.71-8.22,6.13-8.22,13.71-8.22S223.83,420.46,223.82,425Z" style="fill:none;stroke:#41689b;stroke-linecap:round;stroke-linejoin:round;stroke-width:3.932162284851074px"/><path d="M252.82,424.72c0,4.39-6.13,7.94-13.71,7.94s-13.72-3.56-13.71-7.94,6.13-7.94,13.71-7.94S252.83,420.34,252.82,424.72Z" style="fill:none;stroke:#41689b;stroke-linecap:round;stroke-linejoin:round;stroke-width:3.932162284851074px"/><path d="M281.82,424.72c0,4.39-6.13,7.94-13.71,7.94s-13.72-3.56-13.71-7.94,6.13-7.94,13.71-7.94S281.82,420.34,281.82,424.72Z" style="fill:none;stroke:#41689b;stroke-linecap:round;stroke-linejoin:round;stroke-width:3.932162284851074px"/><path d="M310.82,424.72c0,4.39-6.13,7.94-13.71,7.94s-13.72-3.56-13.71-7.94,6.13-7.94,13.71-7.94S310.82,420.34,310.82,424.72Z" style="fill:none;stroke:#41689b;stroke-linecap:round;stroke-linejoin:round;stroke-width:3.932162284851074px"/><path d="M339.82,424.72c0,4.39-6.13,7.94-13.71,7.94s-13.72-3.56-13.71-7.94,6.13-7.94,13.71-7.94S339.82,420.34,339.82,424.72Z" style="fill:none;stroke:#41689b;stroke-linecap:round;stroke-linejoin:round;stroke-width:3.932162284851074px"/><path d="M368.82,424.72c0,4.39-6.13,7.94-13.71,7.94s-13.72-3.56-13.71-7.94,6.13-7.94,13.71-7.94S368.82,420.34,368.82,424.72Z" style="fill:none;stroke:#41689b;stroke-linecap:round;stroke-linejoin:round;stroke-width:3.932162284851074px"/><path d="M397.82,424.72c0,4.39-6.13,7.94-13.71,7.94s-13.72-3.56-13.71-7.94,6.13-7.94,13.71-7.94S397.82,420.34,397.82,424.72Z" style="fill:none;stroke:#41689b;stroke-linecap:round;stroke-linejoin:round;stroke-width:3.932162284851074px"/><path d="M238.32,439.7c0,4.39-6.13,7.94-13.71,7.94s-13.72-3.56-13.71-7.94,6.13-7.94,13.71-7.94S238.33,435.32,238.32,439.7Z" style="fill:none;stroke:#41689b;stroke-linecap:round;stroke-linejoin:round;stroke-width:3.932162284851074px"/><path d="M267.32,439.7c0,4.39-6.13,7.94-13.71,7.94s-13.72-3.56-13.71-7.94,6.13-7.94,13.71-7.94S267.33,435.32,267.32,439.7Z" style="fill:none;stroke:#41689b;stroke-linecap:round;stroke-linejoin:round;stroke-width:3.932162284851074px"/><path d="M296.32,439.7c0,4.39-6.13,7.94-13.71,7.94s-13.72-3.56-13.71-7.94,6.13-7.94,13.71-7.94S296.32,435.32,296.32,439.7Z" style="fill:none;stroke:#41689b;stroke-linecap:round;stroke-linejoin:round;stroke-width:3.932162284851074px"/><path d="M325.32,439.7c0,4.39-6.13,7.94-13.71,7.94s-13.72-3.56-13.71-7.94,6.13-7.94,13.71-7.94S325.32,435.32,325.32,439.7Z" style="fill:none;stroke:#41689b;stroke-linecap:round;stroke-linejoin:round;stroke-width:3.932162284851074px"/><path d="M354.32,439.7c0,4.39-6.13,7.94-13.71,7.94s-13.72-3.56-13.71-7.94,6.13-7.94,13.71-7.94S354.32,435.32,354.32,439.7Z" style="fill:none;stroke:#41689b;stroke-linecap:round;stroke-linejoin:round;stroke-width:3.932162284851074px"/><path d="M383.32,439.7c0,4.39-6.13,7.94-13.71,7.94s-13.72-3.56-13.71-7.94,6.13-7.94,13.71-7.94S383.32,435.32,383.32,439.7Z" style="fill:none;stroke:#41689b;stroke-linecap:round;stroke-linejoin:round;stroke-width:3.932162284851074px"/><path d="M281.82,454.68c0,4.39-6.13,7.94-13.71,7.94s-13.72-3.56-13.71-7.94,6.13-7.94,13.71-7.94S281.82,450.3,281.82,454.68Z" style="fill:none;stroke:#41689b;stroke-linecap:round;stroke-linejoin:round;stroke-width:3.932162284851074px"/><path d="M310.82,454.68c0,4.39-6.13,7.94-13.71,7.94s-13.72-3.56-13.71-7.94,6.13-7.94,13.71-7.94S310.82,450.3,310.82,454.68Z" style="fill:none;stroke:#41689b;stroke-linecap:round;stroke-linejoin:round;stroke-width:3.932162284851074px"/><path d="M339.82,454.68c0,4.39-6.13,7.94-13.71,7.94s-13.72-3.56-13.71-7.94,6.13-7.94,13.71-7.94S339.82,450.3,339.82,454.68Z" style="fill:none;stroke:#41689b;stroke-linecap:round;stroke-linejoin:round;stroke-width:3.932162284851074px"/><path d="M191,433.29c-4.17,1.8-10-2.39-13-9.35s-2-14.06,2.13-15.84,10,2.39,13,9.35S195.12,431.51,191,433.29Z" style="fill:none;stroke:#41689b;stroke-linecap:round;stroke-linejoin:round;stroke-width:3.932162284851074px"/><path d="M403.26,433.29c4.17,1.8,10-2.39,13-9.35s2-14.06-2.13-15.84-10,2.39-13,9.35S399.09,431.51,403.26,433.29Z" style="fill:none;stroke:#41689b;stroke-linecap:round;stroke-linejoin:round;stroke-width:3.932162284851074px"/><path d="M269.41,173.06l-5.71-4.29-13.93,20.71-12.14-7.14L220.48,207l-12.14-6.79L193,220.2l-10.36-5.71L165.84,232.7l-11.79-6.43-14.64,17.86" style="fill:none;stroke:#41689b;stroke-width:4px"/><path d="M312.47,172.23l6.79-3.21,17.5,20.36,13.57-8.21,17.86,21.07,11.43-6.43,17.14,21.07,8.93-5,17.86,20.36,12.5-5,16.07,18.93" style="fill:none;stroke:#41689b;stroke-width:4px"/><path d="M268.39,179c25.38,64.4,46.55,0,46.55,0" style="fill:none;stroke:#41689b;stroke-width:4px"/><path d="M204.22,332.76l17.38,22.94,13.52-20.57,16.07,20.75,12.92-21,16.68,21,12.32-21,17.28,20.91L322.09,335,340,355.67l11.11-20.73,18.48,20.55,10.51-21.21" style="fill:none;stroke:#41689b;stroke-width:3.8285534381866455px"/><path d="M232.32,395.46l-7.89,29.43" style="fill:none;stroke:#41689b;stroke-width:4px"/><path d="M195.35,358l12.25,37.25,87,0" style="fill:none;stroke:#41689b;stroke-width:4px"/><path d="M388.6,358l-12.25,37.25-81.75,0" style="fill:none;stroke:#41689b;stroke-width:4px"/><path d="M361.81,395.39l7.86,29.5" style="fill:none;stroke:#41689b;stroke-width:4px"/><path d="M292.91,366.78H263.66l6.5,18.19c4.75,0,25.5-.06,25.5-.06" style="fill:none;stroke:#41689b;stroke-width:4px"/><path d="M291,366.78h29.25L313.79,385c-4.75,0-25.5-.06-25.5-.06" style="fill:none;stroke:#41689b;stroke-width:4px"/><path d="M223.73,325.58c6.94-10.32,14-.06,14-.06" style="fill:none;stroke:#41689b;stroke-linecap:round;stroke-width:4px"/><path d="M237.73,325.58c6.94-10.32,14-.06,14-.06" style="fill:none;stroke:#41689b;stroke-linecap:round;stroke-width:4px"/><path d="M251.73,325.51c8.35,4.68,14.09-.31,14,.06" style="fill:none;stroke:#41689b;stroke-linecap:round;stroke-width:4px"/><path d="M140.31,259.92c.49,3.54-1.48,6.73-4.39,7.13s-5.67-2.14-6.16-5.68,1.48-6.73,4.39-7.13S139.82,256.39,140.31,259.92Z" style="fill:#41689b;stroke:#41689b;stroke-linecap:round;stroke-linejoin:round;stroke-width:3.5407285690307617px"/><path d="M140,264.22c24.38,23.75,6.35,46.06,6.35,46.06h138" style="fill:none;stroke:#41689b;stroke-linejoin:round;stroke-width:4px"/><path d="M194.65,310.24l-26.79,47.7H298" style="fill:none;stroke:#41689b;stroke-width:4px"/><path d="M398.53,327.86l16.94,30.08H285.33" style="fill:none;stroke:#41689b;stroke-width:4px"/><path d="M220.9,263.49l70.76-126,80.16,142.74" style="fill:none;stroke:#41689b;stroke-width:4px"/><path d="M139.66,263.36l150.31.85,0,46-9.06,0" style="fill:none;stroke:#41689b;stroke-linejoin:round;stroke-width:4px"/><path d="M291.74,280.14H466.69l-39.33,23.49L467,327.87H277.35" style="fill:none;stroke:#41689b;stroke-width:4px"/><path d="M266,310.21c1.41,0,5,17.66,6.67,17.66h5.25" style="fill:none;stroke:#41689b;stroke-linejoin:round;stroke-width:4px"/><path d="M289.62,311.19C283,318,264.26,327.7,276.46,327.87" style="fill:none;stroke:#41689b;stroke-linejoin:round;stroke-width:4px"/><path d="M186,358.05l33.48-47.67" style="fill:none;stroke:#41689b;stroke-width:4px"/><path d="M376.17,328l20.94,29.82" style="fill:none;stroke:#41689b;stroke-width:4px"/><path d="M203,333.57H379.92" style="fill:none;stroke:#41689b;stroke-width:4px"/><path d="M252.39,263.64l39.28-55.81L342.42,280" style="fill:none;stroke:#41689b;stroke-linejoin:round;stroke-width:4px"/><path d="M134.48,266.72S153.55,375.77,161,418c1.91,10.79,6.66,9.24,4.71-1.46C158.11,374.78,138,265.43,138,265.43" style="fill:#41689b;stroke:#41689b;stroke-width:4px"/><path d="M284.64,172.11a2,2,0,1,1-2-2A2,2,0,0,1,284.64,172.11Z" style="fill:#41689b"/><path d="M302.68,172a2,2,0,1,1-2-2A2,2,0,0,1,302.68,172Z" style="fill:#41689b"/><path d="M291.66,181.67v6.2" style="fill:none;stroke:#41689b;stroke-linecap:round;stroke-linejoin:round;stroke-width:4px"/><path d="M295.66,196.4h-8" style="fill:none;stroke:#41689b;stroke-linecap:round;stroke-linejoin:round;stroke-width:4px"/><path d="M290.15,266.95c6.46-6.46,10.91-4.56,15.25,0,11.2-6.56,10-3.79,15.89,0,3.28-.83,4.68-2.69,8.41-3.42" style="fill:none;stroke:#41689b;stroke-width:4px"/><path d="M275.77,229.94c6.46-6.46,10.91-4.56,15.25,0,11.2-6.56,8.68-4.43,16.53,0" style="fill:none;stroke:#41689b;stroke-width:4px"/><path d="M268.15,241.38c6.46-6.46,10.91-4.56,15.25,0,11.2-6.56,10-3.79,15.89,0,1.61-.41,3.67-4.19,6.43-4.13s5.8,2.68,9,4.21" style="fill:none;stroke:#41689b;stroke-width:4px"/><path d="M260.2,252.82c6.46-6.46,10.91-4.56,15.25,0,11.2-6.56,10-3.79,15.89,0,1.21-.43,4.25-3.8,9.31-3.28,2,.2,2.73,1.28,5.38,3,2.29,1.47,6.17-3.09,8.54-3.35,3.1-.34,7.7,3,8.69,2.77" style="fill:none;stroke:#41689b;stroke-width:4px"/><path d="M157.59,286.48a12.55,12.55,0,0,1,.9-5.06,9.29,9.29,0,0,1,1.84-2.71,7.68,7.68,0,0,1,2.55-1.78,10.83,10.83,0,0,1,4.25-.78,9.26,9.26,0,0,1,7,2.71,12.09,12.09,0,0,1,0,15,9.19,9.19,0,0,1-6.94,2.7,9.29,9.29,0,0,1-7-2.68,10.19,10.19,0,0,1-2.6-7.4Zm4.1-.13a7.39,7.39,0,0,0,1.55,5.08,5.32,5.32,0,0,0,7.84,0,7.54,7.54,0,0,0,1.53-5.15,7.42,7.42,0,0,0-1.49-5.06,5.51,5.51,0,0,0-7.92,0,7.45,7.45,0,0,0-1.51,5.09Z" style="fill:#41689b"/><path d="M179.85,296.23V276.5h13.53v3.34h-9.54v4.67h8.24v3.34h-8.24v8.38Z" style="fill:#41689b"/><path d="M196.7,296.23V276.5h13.53v3.34h-9.54v4.67h8.24v3.34h-8.24v8.38Z" style="fill:#41689b"/><path d="M213.4,296.23V276.5h4v19.73Z" style="fill:#41689b"/><path d="M233.79,289l3.86,1.22a8.66,8.66,0,0,1-3,4.8,9.3,9.3,0,0,1-11.7-1.12,10.27,10.27,0,0,1-2.53-7.34q0-4.93,2.54-7.65a8.72,8.72,0,0,1,6.69-2.73,8.21,8.21,0,0,1,5.88,2.14,7.78,7.78,0,0,1,2,3.63l-3.94.94a4.08,4.08,0,0,0-4.16-3.31,4.49,4.49,0,0,0-3.56,1.57q-1.37,1.57-1.37,5.1,0,3.74,1.35,5.33a4.37,4.37,0,0,0,3.5,1.59,4,4,0,0,0,2.73-1,5.86,5.86,0,0,0,1.64-3.18Z" style="fill:#41689b"/><path d="M241,296.23V276.5h4v19.73Z" style="fill:#41689b"/><path d="M266.52,296.23h-4.33l-1.72-4.48h-7.89L251,296.23h-4.23l7.68-19.73h4.21Zm-7.33-7.81-2.72-7.32-2.66,7.32Z" style="fill:#41689b"/><path d="M268.76,296.23V276.66h4V292.9h9.91v3.32Z" style="fill:#41689b"/><path d="M314.69,306.89l3.88-.38a4.73,4.73,0,0,0,1.42,2.87,4.29,4.29,0,0,0,2.89.92,4.44,4.44,0,0,0,2.9-.81,2.42,2.42,0,0,0,1-1.9,1.8,1.8,0,0,0-.41-1.19,3.28,3.28,0,0,0-1.43-.85q-.7-.24-3.19-.86a10.82,10.82,0,0,1-4.5-2,5.13,5.13,0,0,1-1.82-4,5.07,5.07,0,0,1,.85-2.82,5.35,5.35,0,0,1,2.46-2,9.87,9.87,0,0,1,3.88-.69,8.33,8.33,0,0,1,5.59,1.63,5.75,5.75,0,0,1,2,4.35l-4,.17a3.38,3.38,0,0,0-1.1-2.19,4,4,0,0,0-2.52-.67,4.55,4.55,0,0,0-2.72.71,1.44,1.44,0,0,0-.63,1.22,1.52,1.52,0,0,0,.59,1.2,10.47,10.47,0,0,0,3.66,1.32,19.32,19.32,0,0,1,4.3,1.42,5.54,5.54,0,0,1,2.18,2,6.21,6.21,0,0,1-.15,6.32,5.65,5.65,0,0,1-2.66,2.2,11.18,11.18,0,0,1-4.29.72,8.55,8.55,0,0,1-5.75-1.73,7.52,7.52,0,0,1-2.4-5Z" style="fill:#41689b"/><path d="M334.11,313.31V293.57h14.63v3.34H338.09v4.37H348v3.32h-9.91V310h11v3.32Z" style="fill:#41689b"/><path d="M370.31,313.31H366l-1.72-4.48h-7.89l-1.63,4.48h-4.23l7.68-19.73h4.21ZM363,305.5l-2.72-7.32-2.66,7.32Z" style="fill:#41689b"/><path d="M372.55,313.31V293.74h4V310h9.91v3.32Z" style="fill:#41689b"/><path d="M280,492.08H275.9V476.79a14,14,0,0,1-5.24,3.08v-3.68a11.73,11.73,0,0,0,3.45-2,7.49,7.49,0,0,0,2.56-3.39H280Z" style="fill:#41689b"/><path d="M286.12,487.19l3.93-.43a2.84,2.84,0,0,0,.75,1.78,2.23,2.23,0,0,0,1.6.58,2.61,2.61,0,0,0,2.14-1.16q.88-1.16,1.13-4.79a4.84,4.84,0,0,1-3.83,1.78,5.72,5.72,0,0,1-4.31-1.93,7,7,0,0,1-1.81-5,7.14,7.14,0,0,1,1.91-5.19,6.93,6.93,0,0,1,10.16.52q2.06,2.49,2.06,8.19t-2.15,8.38a7,7,0,0,1-5.6,2.57,5.93,5.93,0,0,1-4-1.32,6.38,6.38,0,0,1-2-3.95Zm9.18-8.87a4.63,4.63,0,0,0-.9-3,2.66,2.66,0,0,0-2.09-1.08,2.34,2.34,0,0,0-1.87.89,4.53,4.53,0,0,0-.74,2.91,4.62,4.62,0,0,0,.81,3,2.54,2.54,0,0,0,2,1,2.51,2.51,0,0,0,2-.92,4,4,0,0,0,.8-2.71Z" style="fill:#41689b"/><path d="M306,480.66a4.54,4.54,0,0,1-3-4.38,5.12,5.12,0,0,1,1.65-3.91,7.9,7.9,0,0,1,9.39,0,5.1,5.1,0,0,1,1.67,3.91,4.62,4.62,0,0,1-.77,2.62,4.84,4.84,0,0,1-2.15,1.75,5.67,5.67,0,0,1,2.68,2.06,5.46,5.46,0,0,1,.92,3.13,6.38,6.38,0,0,1-1.87,4.77,6.8,6.8,0,0,1-5,1.83,7.52,7.52,0,0,1-4.81-1.52,5.92,5.92,0,0,1-2.27-4.91,6.07,6.07,0,0,1,.85-3.16,5.49,5.49,0,0,1,2.69-2.22Zm.84-4.09a2.54,2.54,0,0,0,.69,1.89,2.48,2.48,0,0,0,1.83.68,2.51,2.51,0,0,0,1.85-.69,2.55,2.55,0,0,0,.69-1.9,2.36,2.36,0,0,0-2.5-2.51,2.52,2.52,0,0,0-1.86.69,2.48,2.48,0,0,0-.69,1.83Zm-.38,9.07a3.73,3.73,0,0,0,.86,2.61,2.79,2.79,0,0,0,2.14.94,2.69,2.69,0,0,0,2.08-.9,3.74,3.74,0,0,0,.82-2.61,3.37,3.37,0,0,0-.84-2.39,2.77,2.77,0,0,0-2.12-.9,2.54,2.54,0,0,0-2.22,1,3.76,3.76,0,0,0-.73,2.22Z" style="fill:#41689b"/><path d="M329.34,492.08h-4.06V476.79a14,14,0,0,1-5.24,3.08v-3.68a11.73,11.73,0,0,0,3.45-2,7.49,7.49,0,0,0,2.56-3.39h3.29Z" style="fill:#41689b"/><path d="M468.85,543.78c-4.19,2.9-2.16,5.15-6.44,7.91s-5.49,0-9.86,2.61-2.49,5-6.95,7.47-5.48-.37-10,2-2.81,4.82-7.42,7S422.72,570,418,572s-3.12,4.63-7.86,6.5-5.38-1.08-10.18.64-3.41,4.41-8.27,6-5.3-1.43-10.2,0-3.7,4.18-8.64,5.42-5.19-1.78-10.18-.7-4,3.93-9,4.84-5.07-2.11-10.11-1.36-4.21,3.66-9.28,4.25-4.92-2.44-10-2-4.44,3.38-9.53,3.63-4.75-2.76-9.85-2.67-4.65,3.08-9.75,3-4.56-3.06-9.65-3.31-4.84,2.77-9.93,2.35-4.35-3.35-9.41-3.93-5,2.45-10.06,1.7-4.12-3.63-9.14-4.54-5.16,2.11-10.15,1-3.87-3.89-8.82-5.13-5.29,1.77-10.2.37-3.61-4.14-8.47-5.69-5.39,1.42-10.2-.3-3.33-4.36-8.07-6.24-5.48,1.07-10.16-1-3-4.57-7.65-6.75-5.53.71-10.07-1.62-2.73-4.76-7.19-7.24-5.57.34-9.94-2.28-2.42-4.93-6.7-7.69-5.58,0-9.77-2.92-2.09-5.08-6.19-8.11-5.57-.39-9.56-3.56-1.75-5.2-5.64-8.5-5.53-.75-9.31-4.18-1.41-5.3-5.07-8.85-5.47-1.11-9-4.78-1.06-5.39-4.48-9.16-5.38-1.47-8.68-5.35-.7-5.44-3.88-9.44-5.28-1.82-8.32-5.91-.35-5.48-3.25-9.67-5.15-2.16-7.91-6.44,0-5.49-2.61-9.86-5-2.49-7.47-6.95.37-5.48-2-10-4.82-2.81-7-7.42S30,422.72,28,418s-4.63-3.12-6.5-7.86,1.08-5.38-.64-10.18-4.41-3.41-6-8.27,1.43-5.3,0-10.2-4.18-3.7-5.42-8.64,1.78-5.19.7-10.18-3.93-4-4.84-9,2.11-5.07,1.36-10.11S3,339.4,2.44,334.34s2.44-4.92,2-10S1.08,319.9.83,314.8,3.58,310.06,3.5,305,.42,300.3.5,295.2s3.06-4.56,3.31-9.65S1,280.71,1.46,275.62s3.35-4.35,3.93-9.41-2.45-5-1.7-10.06S7.32,252,8.23,247s-2.11-5.16-1-10.15S11.08,233,12.32,228s-1.77-5.29-.37-10.2,4.14-3.61,5.69-8.47-1.42-5.39.3-10.2,4.36-3.33,6.24-8.07-1.07-5.48,1-10.16,4.57-3,6.75-7.65-.71-5.53,1.62-10.07,4.76-2.73,7.24-7.19-.34-5.57,2.28-9.94,4.93-2.42,7.69-6.7,0-5.58,2.92-9.77,5.08-2.09,8.11-6.19.39-5.57,3.56-9.56,5.2-1.75,8.5-5.64.75-5.53,4.18-9.31,5.3-1.41,8.85-5.07,1.11-5.47,4.78-9,5.39-1.06,9.16-4.48,1.47-5.38,5.35-8.68,5.44-.7,9.44-3.88,1.82-5.28,5.91-8.32,5.48-.35,9.67-3.25,2.16-5.15,6.44-7.91,5.49,0,9.86-2.61,2.49-5,6.95-7.47,5.48.37,10-2,2.81-4.82,7.42-7S177.28,30,182,28s3.12-4.63,7.86-6.5,5.38,1.08,10.18-.64,3.41-4.41,8.27-6,5.3,1.43,10.2,0,3.7-4.18,8.64-5.42,5.19,1.78,10.18.7,4-3.93,9-4.84,5.07,2.11,10.11,1.36S260.6,3,265.66,2.44s4.92,2.44,10,2S280.1,1.08,285.2.83,289.94,3.58,295,3.5,299.7.42,304.8.5s4.56,3.06,9.65,3.31,4.84-2.77,9.93-2.35,4.35,3.35,9.41,3.93,5-2.45,10.06-1.7S348,7.32,353,8.23s5.16-2.11,10.15-1S367,11.08,372,12.32s5.29-1.77,10.2-.37,3.61,4.14,8.47,5.69,5.39-1.42,10.2.3,3.33,4.36,8.07,6.24,5.48-1.07,10.16,1,3,4.57,7.65,6.75,5.53-.71,10.07,1.62,2.73,4.76,7.19,7.24,5.57-.34,9.94,2.28,2.42,4.93,6.7,7.69,5.58,0,9.77,2.92,2.09,5.08,6.19,8.11,5.57.39,9.56,3.56,1.75,5.2,5.64,8.5,5.53.75,9.31,4.18,1.41,5.3,5.07,8.85,5.47,1.11,9,4.78,1.06,5.39,4.48,9.16,5.38,1.47,8.68,5.35.7,5.44,3.88,9.44,5.28,1.82,8.32,5.91.35,5.48,3.25,9.67,5.15,2.16,7.91,6.44,0,5.49,2.61,9.86,5,2.49,7.47,6.95-.37,5.48,2,10,4.82,2.81,7,7.42S570,177.28,572,182s4.63,3.12,6.5,7.86-1.08,5.38.64,10.18,4.41,3.41,6,8.27-1.43,5.3,0,10.2,4.18,3.7,5.42,8.64-1.78,5.19-.7,10.18,3.93,4,4.84,9-2.11,5.07-1.36,10.11,3.66,4.21,4.25,9.28-2.44,4.92-2,10,3.38,4.44,3.63,9.53-2.76,4.75-2.67,9.85,3.08,4.65,3,9.75-3.06,4.56-3.31,9.65,2.77,4.84,2.35,9.93-3.35,4.35-3.93,9.41,2.45,5,1.7,10.06-3.63,4.12-4.54,9.14,2.11,5.16,1,10.15-3.89,3.87-5.13,8.82,1.77,5.29.37,10.2-4.14,3.61-5.69,8.47,1.42,5.39-.3,10.2-4.36,3.33-6.24,8.07,1.07,5.48-1,10.16-4.57,3-6.75,7.65.71,5.53-1.62,10.07-4.76,2.73-7.24,7.19.34,5.57-2.28,9.94-4.93,2.42-7.69,6.7,0,5.58-2.92,9.77-5.08,2.09-8.11,6.19-.39,5.57-3.56,9.56-5.2,1.75-8.5,5.64-.75,5.53-4.18,9.31-5.3,1.41-8.85,5.07-1.11,5.47-4.78,9-5.39,1.06-9.16,4.48-1.47,5.38-5.35,8.68-5.44.7-9.44,3.88-1.82,5.28-5.91,8.32S473,540.87,468.85,543.78Z" style="fill:none;stroke:#c0b68d;stroke-linecap:round;stroke-linejoin:round;stroke-width:0.9990410804748535px"/><path d="M577,272.22c0,152.91-124.1,277-277,277s-277-124.1-277-277,124.1-277,277-277S577,119.31,577,272.22Z" style="fill:none"/><path d="M331,590.61q-.36-2.58,3.71-8.25a25.52,25.52,0,0,1,3.09-3.55q2.32-2.22,3.92-2.44t2,1.6a7.41,7.41,0,0,1-.94,4,19.94,19.94,0,0,1-2.14,3.55q-4.63,6.12-7.88,6.58-1.49.21-1.72-1.44Zm.8.11q.12.85.84.75,2.16-.3,6.61-6.78A34.32,34.32,0,0,0,342,580a5.38,5.38,0,0,0,.74-2.27q-.12-.85-1.13-.71-1.41.2-3.57,2.42a26.87,26.87,0,0,0-5.54,8.58,6.34,6.34,0,0,0-.69,2.67ZM311.95,592q-.19-2.6,4.24-8a25.52,25.52,0,0,1,3.31-3.34q2.46-2.07,4.07-2.18t1.85,1.72a7.41,7.41,0,0,1-1.2,3.89,19.93,19.93,0,0,1-2.37,3.41q-5,5.81-8.29,6.05-1.5.11-1.62-1.55Zm.79.16q.06.86.79.81,2.17-.16,7-6.34a34.32,34.32,0,0,0,3-4.48,5.38,5.38,0,0,0,.89-2.22q-.06-.86-1.08-.78-1.42.1-3.72,2.19a26.87,26.87,0,0,0-6.09,8.21,6.34,6.34,0,0,0-.86,2.62Zm-19.9,0q0-2.61,4.75-7.7a25.52,25.52,0,0,1,3.53-3.12q2.59-1.9,4.21-1.91t1.73,1.84a7.41,7.41,0,0,1-1.45,3.8,19.93,19.93,0,0,1-2.58,3.25q-5.39,5.47-8.67,5.5-1.51,0-1.52-1.66Zm.78.21q0,.86.73.85,2.18,0,7.43-5.86a34.31,34.31,0,0,0,3.33-4.27,5.38,5.38,0,0,0,1-2.16q0-.86-1-.85-1.42,0-3.86,1.94a26.87,26.87,0,0,0-6.61,7.79,6.34,6.34,0,0,0-1,2.56Zm-19.87-1.29q.15-2.6,5.25-7.37a25.52,25.52,0,0,1,3.72-2.88q2.71-1.73,4.32-1.63t1.61,2a7.41,7.41,0,0,1-1.7,3.7,19.93,19.93,0,0,1-2.79,3.07q-5.74,5.11-9,4.92-1.5-.09-1.41-1.75Zm.77.26q0,.86.67.9,2.17.13,7.8-5.36a34.32,34.32,0,0,0,3.6-4,5.38,5.38,0,0,0,1.17-2.09q0-.86-1-.92-1.42-.08-4,1.68a26.87,26.87,0,0,0-7.11,7.34,6.34,6.34,0,0,0-1.2,2.49Zm-19.74-2.6q.32-2.59,5.72-7a25.52,25.52,0,0,1,3.9-2.63q2.82-1.54,4.42-1.35t1.48,2.05a7.41,7.41,0,0,1-1.94,3.58,19.93,19.93,0,0,1-3,2.88q-6.06,4.72-9.32,4.31-1.49-.19-1.29-1.84Zm.75.31q-.11.85.61.94,2.16.27,8.14-4.84a34.32,34.32,0,0,0,3.86-3.8,5.38,5.38,0,0,0,1.31-2q.11-.85-.91-1-1.41-.18-4.08,1.42a26.87,26.87,0,0,0-7.57,6.86,6.34,6.34,0,0,0-1.36,2.4ZM236,585.21q.49-2.56,6.17-6.62a25.53,25.53,0,0,1,4.07-2.37q2.92-1.36,4.5-1.05t1.34,2.15a7.41,7.41,0,0,1-2.17,3.44,19.93,19.93,0,0,1-3.17,2.68q-6.36,4.31-9.58,3.69-1.48-.28-1.16-1.92Zm.73.36q-.16.84.55,1,2.14.41,8.44-4.29a34.32,34.32,0,0,0,4.1-3.54,5.38,5.38,0,0,0,1.44-1.91q.16-.84-.84-1-1.4-.27-4.16,1.14a26.87,26.87,0,0,0-8,6.34,6.34,6.34,0,0,0-1.51,2.31Zm-19.23-5.17q.66-2.52,6.59-6.19a25.52,25.52,0,0,1,4.22-2.09q3-1.16,4.56-.75a1.58,1.58,0,0,1,1.2,2.23,7.41,7.41,0,0,1-2.39,3.29,19.93,19.93,0,0,1-3.34,2.46q-6.63,3.88-9.8,3-1.46-.38-1-2Zm.7.41q-.22.83.48,1,2.11.55,8.7-3.73a34.31,34.31,0,0,0,4.33-3.26,5.38,5.38,0,0,0,1.56-1.82q.22-.83-.77-1.09-1.38-.36-4.23.87a26.87,26.87,0,0,0-8.41,5.8,6.34,6.34,0,0,0-1.66,2.21Zm-18.85-6.42q.82-2.47,7-5.75a25.52,25.52,0,0,1,4.34-1.81q3.07-1,4.6-.45a1.58,1.58,0,0,1,1,2.3,7.41,7.41,0,0,1-2.6,3.13,19.93,19.93,0,0,1-3.49,2.24q-6.87,3.44-10,2.4-1.43-.48-.9-2.06Zm.67.45q-.27.82.42,1,2.07.69,8.93-3.15a34.32,34.32,0,0,0,4.53-3,5.38,5.38,0,0,0,1.67-1.71q.27-.82-.7-1.14-1.35-.45-4.28.59a26.87,26.87,0,0,0-8.77,5.24,6.34,6.34,0,0,0-1.8,2.09Zm-18.38-7.64q1-2.41,7.35-5.28a25.52,25.52,0,0,1,4.45-1.52q3.13-.76,4.62-.15a1.58,1.58,0,0,1,.89,2.37,7.41,7.41,0,0,1-2.8,3,19.93,19.93,0,0,1-3.63,2q-7.08,3-10.12,1.74-1.39-.57-.77-2.11Zm.64.49q-.32.8.35,1.07,2,.82,9.11-2.56a34.31,34.31,0,0,0,4.72-2.67,5.38,5.38,0,0,0,1.78-1.6q.32-.8-.62-1.18-1.32-.54-4.31.31a26.87,26.87,0,0,0-9.1,4.65,6.34,6.34,0,0,0-1.93,2Zm-17.84-8.82q1.14-2.35,7.68-4.79a25.52,25.52,0,0,1,4.54-1.23q3.17-.55,4.62.15a1.58,1.58,0,0,1,.74,2.42,7.41,7.41,0,0,1-3,2.76,19.93,19.93,0,0,1-3.76,1.76Q168,562.47,165.06,561q-1.35-.66-.63-2.16Zm.61.53q-.38.77.28,1.09,2,1,9.26-2a34.32,34.32,0,0,0,4.88-2.35,5.38,5.38,0,0,0,1.88-1.48q.38-.77-.54-1.22-1.28-.62-4.32,0a26.87,26.87,0,0,0-9.38,4.05,6.34,6.34,0,0,0-2.06,1.84Zm-17.23-10q1.29-2.27,8-4.28a25.52,25.52,0,0,1,4.61-.93q3.2-.35,4.6.45a1.58,1.58,0,0,1,.58,2.46,7.41,7.41,0,0,1-3.16,2.56,19.93,19.93,0,0,1-3.86,1.51q-7.41,2-10.26.41-1.31-.74-.48-2.19Zm.57.57q-.43.75.21,1.11,1.89,1.08,9.37-1.35a34.31,34.31,0,0,0,5-2,5.38,5.38,0,0,0,2-1.35q.43-.75-.46-1.25-1.24-.7-4.31-.26a26.87,26.87,0,0,0-9.62,3.43,6.34,6.34,0,0,0-2.17,1.7ZM131.83,539q1.43-2.18,8.23-3.75a25.52,25.52,0,0,1,4.66-.63q3.21-.14,4.56.75a1.58,1.58,0,0,1,.42,2.5,7.41,7.41,0,0,1-3.32,2.35,19.94,19.94,0,0,1-4,1.26q-7.52,1.55-10.26-.26a1.41,1.41,0,0,1-.34-2.22Zm.53.61q-.47.72.13,1.12,1.82,1.2,9.44-.74a34.32,34.32,0,0,0,5.14-1.7,5.38,5.38,0,0,0,2.06-1.22q.47-.72-.38-1.28-1.19-.78-4.28-.54a26.87,26.87,0,0,0-9.83,2.8,6.34,6.34,0,0,0-2.28,1.56Zm-15.79-12.11q1.57-2.08,8.46-3.21a25.52,25.52,0,0,1,4.7-.33q3.22.07,4.5,1a1.58,1.58,0,0,1,.25,2.52,7.41,7.41,0,0,1-3.47,2.13,19.93,19.93,0,0,1-4,1q-7.61,1.06-10.22-.92a1.41,1.41,0,0,1-.2-2.24Zm.49.64q-.52.69.06,1.12,1.74,1.31,9.46-.12a34.31,34.31,0,0,0,5.24-1.36,5.38,5.38,0,0,0,2.13-1.08q.52-.69-.3-1.3-1.14-.86-4.24-.81a26.87,26.87,0,0,0-10,2.16,6.34,6.34,0,0,0-2.38,1.4Zm-15-13.11q1.7-2,8.65-2.65a25.52,25.52,0,0,1,4.71,0q3.2.28,4.42,1.33a1.58,1.58,0,0,1,.09,2.53,7.41,7.41,0,0,1-3.6,1.9,19.93,19.93,0,0,1-4.08.74q-7.66.56-10.14-1.58a1.41,1.41,0,0,1,0-2.25Zm.45.67q-.56.65,0,1.13,1.65,1.42,9.45.49a34.32,34.32,0,0,0,5.32-1,5.38,5.38,0,0,0,2.2-.94q.56-.65-.21-1.32-1.08-.93-4.18-1.09a26.87,26.87,0,0,0-10.11,1.5,6.34,6.34,0,0,0-2.46,1.25ZM88.45,501.62q1.83-1.86,8.8-2.09a25.53,25.53,0,0,1,4.7.29q3.18.49,4.33,1.62a1.58,1.58,0,0,1-.07,2.53,7.41,7.41,0,0,1-3.71,1.66,19.93,19.93,0,0,1-4.12.47q-7.68.06-10-2.24a1.41,1.41,0,0,1,.1-2.24Zm.4.7q-.6.61-.09,1.12,1.55,1.53,9.4,1.1a34.32,34.32,0,0,0,5.37-.67,5.38,5.38,0,0,0,2.26-.8q.6-.61-.12-1.33-1-1-4.1-1.36a26.87,26.87,0,0,0-10.18.84,6.34,6.34,0,0,0-2.54,1.08ZM75.71,487.38q1.95-1.74,8.92-1.51a25.52,25.52,0,0,1,4.67.59q3.14.69,4.21,1.9a1.58,1.58,0,0,1-.24,2.52,7.41,7.41,0,0,1-3.81,1.42,19.93,19.93,0,0,1-4.14.2q-7.67-.44-9.85-2.89a1.41,1.41,0,0,1,.24-2.23Zm.36.73q-.64.57-.16,1.11,1.45,1.63,9.31,1.71a34.32,34.32,0,0,0,5.41-.32,5.38,5.38,0,0,0,2.3-.65q.64-.57,0-1.34-.95-1.06-4-1.62a26.87,26.87,0,0,0-10.22.18,6.34,6.34,0,0,0-2.6.92ZM63.93,472.33q2.06-1.6,9-.92a25.52,25.52,0,0,1,4.62.9q3.09.9,4.08,2.17a1.58,1.58,0,0,1-.4,2.5,7.41,7.41,0,0,1-3.9,1.17,19.93,19.93,0,0,1-4.15-.07q-7.62-.94-9.64-3.53a1.41,1.41,0,0,1,.39-2.21Zm.31.75q-.68.53-.23,1.1,1.34,1.72,9.18,2.32a34.32,34.32,0,0,0,5.42,0,5.38,5.38,0,0,0,2.34-.5q.68-.53,0-1.33-.88-1.12-3.89-1.88a26.87,26.87,0,0,0-10.21-.49,6.34,6.34,0,0,0-2.66.74ZM53.16,456.54q2.16-1.47,9-.33a25.52,25.52,0,0,1,4.55,1.2q3,1.1,3.93,2.43a1.58,1.58,0,0,1-.57,2.47,7.41,7.41,0,0,1-4,.91,19.93,19.93,0,0,1-4.13-.34q-7.54-1.44-9.39-4.15-.85-1.25.53-2.18Zm.26.77q-.71.48-.3,1.08,1.22,1.8,9,2.92a34.32,34.32,0,0,0,5.4.39,5.38,5.38,0,0,0,2.37-.34q.71-.48.14-1.33-.8-1.18-3.76-2.13a26.87,26.87,0,0,0-10.15-1.16,6.34,6.34,0,0,0-2.7.57Zm-10-17.23q2.25-1.32,9,.27a25.53,25.53,0,0,1,4.46,1.49q2.94,1.29,3.76,2.69a1.58,1.58,0,0,1-.73,2.42,7.41,7.41,0,0,1-4,.65,19.94,19.94,0,0,1-4.1-.61q-7.43-1.93-9.1-4.76-.76-1.3.67-2.14Zm.21.78q-.74.44-.37,1.06,1.1,1.88,8.79,3.5a34.32,34.32,0,0,0,5.36.74,5.38,5.38,0,0,0,2.39-.19q.74-.44.22-1.32-.72-1.23-3.61-2.37a26.87,26.87,0,0,0-10.05-1.82,6.34,6.34,0,0,0-2.73.39ZM34.83,423q2.33-1.17,9,.86a25.52,25.52,0,0,1,4.36,1.78q2.85,1.49,3.58,2.93a1.58,1.58,0,0,1-.89,2.37,7.41,7.41,0,0,1-4.05.38,19.93,19.93,0,0,1-4.05-.88Q35.49,428,34,425.1q-.68-1.35.81-2.09Zm.16.79q-.77.39-.44,1,1,1.95,8.54,4.07a34.32,34.32,0,0,0,5.3,1.1,5.38,5.38,0,0,0,2.39,0q.77-.39.31-1.3-.64-1.27-3.44-2.6a26.87,26.87,0,0,0-9.91-2.48,6.34,6.34,0,0,0-2.75.21Zm-7.62-18.4q2.4-1,8.93,1.45a25.52,25.52,0,0,1,4.23,2.07q2.75,1.67,3.38,3.16a1.58,1.58,0,0,1-1,2.31,7.41,7.41,0,0,1-4.07.11,19.93,19.93,0,0,1-4-1.15q-7.12-2.89-8.39-5.91-.59-1.39.95-2Zm.11.8q-.79.33-.51,1,.85,2,8.26,4.63a34.32,34.32,0,0,0,5.22,1.44,5.38,5.38,0,0,0,2.39.13q.79-.33.4-1.28-.55-1.31-3.26-2.82a26.87,26.87,0,0,0-9.73-3.13,6.34,6.34,0,0,0-2.76,0Zm-6.4-18.86q2.46-.85,8.82,2A25.52,25.52,0,0,1,34,391.73q2.63,1.85,3.16,3.37a1.58,1.58,0,0,1-1.19,2.23,7.41,7.41,0,0,1-4.07-.16,19.93,19.93,0,0,1-3.9-1.41q-6.91-3.35-8-6.45-.49-1.42,1.08-2Zm.05.81q-.81.28-.58,1,.71,2.06,7.93,5.16a34.32,34.32,0,0,0,5.11,1.78,5.38,5.38,0,0,0,2.38.29q.81-.28.48-1.25-.47-1.35-3.07-3a26.87,26.87,0,0,0-9.5-3.76,6.34,6.34,0,0,0-2.76-.15ZM16,368.93q2.51-.69,8.66,2.61a25.53,25.53,0,0,1,3.92,2.6q2.51,2,2.93,3.57t-1.33,2.15a7.41,7.41,0,0,1-4-.42,19.93,19.93,0,0,1-3.8-1.66q-6.68-3.8-7.54-7-.4-1.45,1.21-1.89Zm0,.81q-.83.23-.64.93.58,2.1,7.58,5.67a34.32,34.32,0,0,0,5,2.12,5.38,5.38,0,0,0,2.35.44q.83-.23.56-1.21-.38-1.37-2.87-3.23a26.87,26.87,0,0,0-9.23-4.38,6.34,6.34,0,0,0-2.74-.33ZM12.1,350.22q2.55-.53,8.48,3.17a25.52,25.52,0,0,1,3.74,2.85Q26.69,358.41,27,360t-1.47,2.06a7.41,7.41,0,0,1-4-.68,19.93,19.93,0,0,1-3.69-1.9q-6.41-4.22-7.08-7.44-.3-1.47,1.33-1.81ZM12,351q-.84.17-.7.88.44,2.13,7.2,6.15a34.32,34.32,0,0,0,4.84,2.43,5.38,5.38,0,0,0,2.32.59q.84-.17.64-1.17-.29-1.4-2.65-3.41a26.87,26.87,0,0,0-8.93-5A6.34,6.34,0,0,0,12,351ZM9.43,331.31q2.58-.36,8.25,3.71a25.52,25.52,0,0,1,3.55,3.09q2.22,2.32,2.45,3.92t-1.6,2a7.41,7.41,0,0,1-4-.94,19.93,19.93,0,0,1-3.56-2.14Q8.44,336.28,8,333q-.21-1.49,1.44-1.72Zm-.11.8q-.85.12-.75.84.3,2.16,6.78,6.6A34.32,34.32,0,0,0,20,342.29a5.38,5.38,0,0,0,2.28.74q.85-.12.71-1.13-.2-1.41-2.43-3.57A26.87,26.87,0,0,0,12,332.79a6.34,6.34,0,0,0-2.67-.69ZM8,312.26q2.6-.19,8,4.23a25.53,25.53,0,0,1,3.35,3.31q2.07,2.46,2.19,4.07t-1.72,1.85a7.41,7.41,0,0,1-3.89-1.19,19.94,19.94,0,0,1-3.41-2.36q-5.82-5-6.06-8.29-.11-1.5,1.55-1.62Zm-.16.79q-.86.06-.8.79.16,2.17,6.34,7a34.32,34.32,0,0,0,4.48,3,5.38,5.38,0,0,0,2.22.89q.86-.06.78-1.08-.11-1.42-2.19-3.72a26.87,26.87,0,0,0-8.21-6.08A6.34,6.34,0,0,0,7.83,313Zm0-19.9q2.61,0,7.7,4.75a25.53,25.53,0,0,1,3.12,3.52q1.9,2.59,1.92,4.2t-1.84,1.74a7.41,7.41,0,0,1-3.8-1.45,19.93,19.93,0,0,1-3.25-2.58q-5.48-5.38-5.51-8.66,0-1.51,1.65-1.52Zm-.21.78q-.86,0-.85.73,0,2.18,5.87,7.42a34.32,34.32,0,0,0,4.28,3.32,5.38,5.38,0,0,0,2.16,1q.86,0,.85-1,0-1.42-1.94-3.85a26.87,26.87,0,0,0-7.8-6.6,6.34,6.34,0,0,0-2.56-1Zm1.27-19.87q2.6.15,7.38,5.24A25.53,25.53,0,0,1,19.11,283q1.73,2.71,1.64,4.32t-2,1.61a7.41,7.41,0,0,1-3.7-1.69A19.93,19.93,0,0,1,12,284.47q-5.11-5.73-4.92-9,.09-1.5,1.75-1.41Zm-.26.77q-.86,0-.9.68-.12,2.17,5.37,7.79a34.32,34.32,0,0,0,4,3.6,5.38,5.38,0,0,0,2.09,1.17q.86,0,.92-1,.08-1.42-1.68-4a26.87,26.87,0,0,0-7.35-7.1,6.34,6.34,0,0,0-2.49-1.19Zm2.57-19.74q2.59.32,7,5.72a25.53,25.53,0,0,1,2.63,3.9q1.55,2.82,1.35,4.42t-2.05,1.48a7.41,7.41,0,0,1-3.58-1.93,19.94,19.94,0,0,1-2.88-3q-4.72-6.06-4.32-9.31.18-1.49,1.84-1.29Zm-.31.75q-.85-.11-.94.61-.27,2.16,4.85,8.13a34.32,34.32,0,0,0,3.8,3.86,5.38,5.38,0,0,0,2,1.3q.85.11,1-.91.17-1.41-1.42-4.08a26.87,26.87,0,0,0-6.87-7.57,6.34,6.34,0,0,0-2.41-1.35Zm3.87-19.53q2.56.49,6.62,6.17a25.52,25.52,0,0,1,2.37,4.07q1.36,2.91,1.06,4.5t-2.15,1.34a7.41,7.41,0,0,1-3.45-2.16A19.93,19.93,0,0,1,16.5,247q-4.31-6.35-3.7-9.58.28-1.48,1.92-1.17Zm-.36.73q-.84-.16-1,.55-.41,2.14,4.3,8.43a34.32,34.32,0,0,0,3.54,4.1,5.38,5.38,0,0,0,1.92,1.43q.84.16,1-.84.27-1.4-1.15-4.16a26.87,26.87,0,0,0-6.35-8A6.34,6.34,0,0,0,14.37,237Zm5.15-19.23q2.52.66,6.2,6.59a25.53,25.53,0,0,1,2.1,4.21q1.16,3,.76,4.56a1.58,1.58,0,0,1-2.23,1.2A7.41,7.41,0,0,1,23,232a19.94,19.94,0,0,1-2.46-3.34q-3.89-6.62-3.06-9.8.38-1.46,2-1Zm-.4.7q-.83-.22-1,.49-.55,2.11,3.74,8.7A34.32,34.32,0,0,0,25.09,232a5.38,5.38,0,0,0,1.82,1.56q.83.22,1.09-.77.36-1.38-.87-4.23a26.87,26.87,0,0,0-5.81-8.4,6.34,6.34,0,0,0-2.21-1.66Zm6.4-18.85q2.48.82,5.76,7A25.53,25.53,0,0,1,33.08,211q1,3.07.46,4.6a1.58,1.58,0,0,1-2.3,1A7.41,7.41,0,0,1,28.1,214a19.93,19.93,0,0,1-2.24-3.49q-3.44-6.87-2.41-10,.47-1.43,2.06-.9Zm-.45.67q-.82-.27-1,.42-.69,2.07,3.16,8.92a34.32,34.32,0,0,0,3,4.53,5.38,5.38,0,0,0,1.71,1.67q.82.27,1.14-.7.45-1.35-.59-4.28a26.87,26.87,0,0,0-5.25-8.77,6.34,6.34,0,0,0-2.09-1.8Zm7.62-18.39q2.42,1,5.29,7.34a25.52,25.52,0,0,1,1.53,4.45q.76,3.12.15,4.62a1.58,1.58,0,0,1-2.37.9,7.41,7.41,0,0,1-3-2.8,19.93,19.93,0,0,1-2-3.63q-3-7.08-1.75-10.11.57-1.39,2.11-.77Zm-.49.64q-.8-.32-1.07.35-.82,2,2.57,9.11a34.32,34.32,0,0,0,2.67,4.71,5.38,5.38,0,0,0,1.6,1.78q.8.32,1.18-.62.54-1.32-.31-4.31a26.87,26.87,0,0,0-4.66-9.09,6.34,6.34,0,0,0-2-1.93ZM41,164.7q2.35,1.14,4.8,7.67A25.52,25.52,0,0,1,47,176.92q.56,3.17-.15,4.62a1.58,1.58,0,0,1-2.42.74,7.41,7.41,0,0,1-2.77-3,19.94,19.94,0,0,1-1.77-3.75q-2.52-7.26-1.09-10.21.66-1.35,2.16-.63Zm-.53.61q-.77-.38-1.09.28-.95,2,2,9.26a34.32,34.32,0,0,0,2.36,4.88,5.38,5.38,0,0,0,1.48,1.88q.77.38,1.22-.54.62-1.28,0-4.32a26.87,26.87,0,0,0-4.06-9.38,6.34,6.34,0,0,0-1.84-2.06Zm9.94-17.24q2.27,1.29,4.29,8a25.52,25.52,0,0,1,.94,4.61q.35,3.2-.45,4.6a1.58,1.58,0,0,1-2.46.58,7.41,7.41,0,0,1-2.57-3.16,19.94,19.94,0,0,1-1.52-3.86q-2-7.4-.42-10.26.74-1.31,2.19-.49Zm-.57.57q-.75-.42-1.11.21-1.08,1.89,1.36,9.37a34.32,34.32,0,0,0,2,5,5.38,5.38,0,0,0,1.35,2q.75.42,1.25-.46.7-1.24.25-4.31a26.87,26.87,0,0,0-3.44-9.62,6.34,6.34,0,0,0-1.7-2.17Zm11-16.56q2.18,1.43,3.76,8.23a25.53,25.53,0,0,1,.63,4.66q.14,3.21-.75,4.56A1.58,1.58,0,0,1,62,150a7.41,7.41,0,0,1-2.36-3.32,19.93,19.93,0,0,1-1.26-4q-1.56-7.52.25-10.26a1.41,1.41,0,0,1,2.22-.34Zm-.61.53q-.72-.47-1.12.13-1.2,1.82.75,9.44a34.32,34.32,0,0,0,1.7,5.14,5.38,5.38,0,0,0,1.22,2.06q.72.47,1.28-.38.78-1.19.53-4.28a26.87,26.87,0,0,0-2.81-9.82,6.34,6.34,0,0,0-1.56-2.28Zm12.09-15.8q2.08,1.57,3.22,8.46a25.52,25.52,0,0,1,.33,4.7q-.07,3.22-1,4.5a1.58,1.58,0,0,1-2.52.26,7.41,7.41,0,0,1-2.14-3.46,19.94,19.94,0,0,1-1-4q-1.06-7.61.91-10.22a1.41,1.41,0,0,1,2.24-.2Zm-.64.49q-.69-.52-1.12.06-1.31,1.74.13,9.46a34.32,34.32,0,0,0,1.37,5.24,5.38,5.38,0,0,0,1.09,2.13q.69.52,1.3-.3.86-1.14.81-4.24a26.87,26.87,0,0,0-2.17-10,6.34,6.34,0,0,0-1.41-2.38Zm13.09-15q2,1.7,2.66,8.65a25.52,25.52,0,0,1,0,4.71q-.28,3.2-1.33,4.43a1.58,1.58,0,0,1-2.53.09,7.41,7.41,0,0,1-1.91-3.59,19.94,19.94,0,0,1-.74-4.08q-.57-7.66,1.57-10.14a1.41,1.41,0,0,1,2.25-.05Zm-.67.45q-.65-.56-1.13,0-1.42,1.65-.48,9.45a34.32,34.32,0,0,0,1,5.32,5.38,5.38,0,0,0,.94,2.2q.65.56,1.32-.21.93-1.08,1.08-4.18a26.87,26.87,0,0,0-1.51-10.11,6.34,6.34,0,0,0-1.25-2.46Zm14-14.1q1.86,1.83,2.09,8.8a25.52,25.52,0,0,1-.28,4.7q-.48,3.18-1.61,4.33a1.58,1.58,0,0,1-2.53-.07,7.41,7.41,0,0,1-1.67-3.71,19.93,19.93,0,0,1-.47-4.12q-.07-7.68,2.23-10a1.41,1.41,0,0,1,2.24.09Zm-.7.41q-.61-.6-1.12-.08-1.53,1.55-1.09,9.4a34.32,34.32,0,0,0,.68,5.37,5.38,5.38,0,0,0,.8,2.26q.61.6,1.33-.13,1-1,1.35-4.1a26.87,26.87,0,0,0-.85-10.18,6.34,6.34,0,0,0-1.09-2.54Zm14.93-13.16q1.74,1.94,1.52,8.92a25.52,25.52,0,0,1-.59,4.67q-.69,3.14-1.89,4.22a1.58,1.58,0,0,1-2.52-.24,7.41,7.41,0,0,1-1.42-3.81,19.94,19.94,0,0,1-.2-4.14q.43-7.67,2.88-9.85a1.41,1.41,0,0,1,2.23.24Zm-.72.36q-.57-.64-1.11-.16-1.62,1.45-1.7,9.31a34.32,34.32,0,0,0,.32,5.41,5.38,5.38,0,0,0,.65,2.3q.57.64,1.34,0,1.06-.95,1.62-4a26.87,26.87,0,0,0-.19-10.22,6.34,6.34,0,0,0-.92-2.6Zm15.76-12.16q1.61,2.05.93,9a25.52,25.52,0,0,1-.89,4.62q-.89,3.09-2.17,4.08a1.58,1.58,0,0,1-2.5-.4,7.41,7.41,0,0,1-1.17-3.9,19.93,19.93,0,0,1,.07-4.15q.93-7.62,3.51-9.64a1.41,1.41,0,0,1,2.21.39Zm-.75.31q-.53-.68-1.1-.23-1.72,1.34-2.31,9.18a34.32,34.32,0,0,0,0,5.42,5.38,5.38,0,0,0,.5,2.34q.53.68,1.33,0,1.12-.88,1.87-3.89a26.87,26.87,0,0,0,.48-10.21,6.34,6.34,0,0,0-.75-2.66Zm16.52-11.1q1.47,2.16.34,9a25.53,25.53,0,0,1-1.19,4.55q-1.1,3-2.43,3.93a1.58,1.58,0,0,1-2.47-.56,7.41,7.41,0,0,1-.91-4,19.93,19.93,0,0,1,.34-4.13q1.43-7.55,4.14-9.39,1.24-.85,2.18.53Zm-.77.26q-.48-.71-1.08-.3-1.8,1.23-2.91,9a34.32,34.32,0,0,0-.38,5.4,5.38,5.38,0,0,0,.34,2.37q.48.71,1.33.14,1.18-.8,2.12-3.76A26.87,26.87,0,0,0,143,56.28a6.34,6.34,0,0,0-.57-2.7Zm17.22-10q1.32,2.25-.26,9a25.52,25.52,0,0,1-1.49,4.47q-1.29,2.95-2.68,3.76a1.58,1.58,0,0,1-2.42-.72,7.41,7.41,0,0,1-.65-4,19.93,19.93,0,0,1,.61-4.1q1.92-7.44,4.75-9.1,1.3-.76,2.14.67Zm-.78.21q-.44-.74-1.06-.37-1.88,1.11-3.49,8.8a34.32,34.32,0,0,0-.74,5.37,5.38,5.38,0,0,0,.19,2.39q.44.74,1.32.22,1.23-.72,2.37-3.61a26.87,26.87,0,0,0,1.81-10.06,6.34,6.34,0,0,0-.39-2.73ZM176.72,35q1.17,2.33-.85,9a25.52,25.52,0,0,1-1.78,4.36q-1.48,2.85-2.92,3.58a1.58,1.58,0,0,1-2.37-.88,7.41,7.41,0,0,1-.38-4.05,19.94,19.94,0,0,1,.88-4.05q2.41-7.29,5.34-8.77,1.34-.68,2.09.81Zm-.79.16q-.39-.77-1-.44-1.94,1-4.06,8.55a34.32,34.32,0,0,0-1.09,5.31,5.38,5.38,0,0,0,0,2.39q.39.77,1.3.31,1.27-.64,2.6-3.45a26.87,26.87,0,0,0,2.47-9.91,6.34,6.34,0,0,0-.21-2.75Zm18.39-7.64q1,2.4-1.44,8.93a25.52,25.52,0,0,1-2.06,4.23q-1.67,2.75-3.15,3.38a1.58,1.58,0,0,1-2.31-1,7.41,7.41,0,0,1-.12-4.07,19.93,19.93,0,0,1,1.14-4q2.88-7.12,5.9-8.4,1.39-.59,2,.95Zm-.8.11q-.34-.79-1-.51-2,.85-4.62,8.26a34.32,34.32,0,0,0-1.44,5.22,5.38,5.38,0,0,0-.13,2.39q.34.79,1.28.39,1.31-.56,2.82-3.27a26.87,26.87,0,0,0,3.12-9.73,6.34,6.34,0,0,0,0-2.76Zm18.85-6.42q.86,2.46-2,8.82A25.52,25.52,0,0,1,208,34.08q-1.84,2.63-3.37,3.16a1.58,1.58,0,0,1-2.23-1.19,7.41,7.41,0,0,1,.15-4.07,19.93,19.93,0,0,1,1.4-3.9q3.35-6.91,6.44-8,1.42-.49,2,1.08Zm-.81.05q-.28-.81-1-.57-2.06.72-5.15,7.94a34.32,34.32,0,0,0-1.78,5.12,5.38,5.38,0,0,0-.28,2.38q.28.81,1.25.48,1.35-.47,3-3.07A26.87,26.87,0,0,0,211.4,24a6.34,6.34,0,0,0,.15-2.76Zm19.22-5.17q.69,2.51-2.6,8.67a25.52,25.52,0,0,1-2.6,3.92q-2,2.51-3.57,2.94t-2.15-1.33a7.41,7.41,0,0,1,.42-4,19.94,19.94,0,0,1,1.66-3.8q3.79-6.68,7-7.55,1.45-.4,1.89,1.21Zm-.81,0q-.23-.83-.93-.64-2.1.58-5.66,7.59a34.32,34.32,0,0,0-2.11,5,5.38,5.38,0,0,0-.44,2.35q.23.83,1.21.56,1.37-.38,3.22-2.87a26.87,26.87,0,0,0,4.37-9.24,6.34,6.34,0,0,0,.33-2.74Zm19.51-3.9q.53,2.55-3.16,8.48a25.52,25.52,0,0,1-2.85,3.75q-2.17,2.37-3.75,2.7t-2.06-1.47a7.41,7.41,0,0,1,.68-4,19.93,19.93,0,0,1,1.9-3.69q4.22-6.42,7.43-7.08,1.47-.31,1.81,1.33Zm-.81-.05q-.17-.84-.89-.7-2.13.44-6.14,7.2a34.32,34.32,0,0,0-2.43,4.84,5.38,5.38,0,0,0-.59,2.32q.17.84,1.17.64,1.4-.29,3.4-2.65a26.87,26.87,0,0,0,5-8.93,6.34,6.34,0,0,0,.51-2.71Zm19.72-2.64q.36,2.58-3.7,8.26a25.52,25.52,0,0,1-3.08,3.56q-2.32,2.23-3.92,2.45t-2-1.6a7.41,7.41,0,0,1,.94-4,19.93,19.93,0,0,1,2.13-3.56q4.62-6.13,7.87-6.59,1.49-.21,1.72,1.44Zm-.8-.1q-.12-.85-.84-.75-2.16.3-6.59,6.79a34.32,34.32,0,0,0-2.74,4.67,5.38,5.38,0,0,0-.74,2.28q.12.85,1.13.71,1.41-.2,3.57-2.43a26.87,26.87,0,0,0,5.52-8.6,6.34,6.34,0,0,0,.68-2.68ZM287.44,8q.2,2.6-4.22,8a25.52,25.52,0,0,1-3.31,3.35q-2.46,2.07-4.07,2.19T274,19.83a7.41,7.41,0,0,1,1.19-3.89,19.94,19.94,0,0,1,2.36-3.41q5-5.82,8.28-6.07,1.5-.11,1.63,1.55Zm-.79-.16q-.06-.86-.79-.8-2.17.16-7,6.35a34.32,34.32,0,0,0-3,4.49,5.38,5.38,0,0,0-.88,2.22q.06.86,1.08.78,1.42-.11,3.72-2.19a26.87,26.87,0,0,0,6.07-8.22,6.34,6.34,0,0,0,.85-2.63Zm19.9-.06q0,2.61-4.74,7.71a25.52,25.52,0,0,1-3.52,3.13q-2.59,1.91-4.2,1.92t-1.74-1.84a7.41,7.41,0,0,1,1.44-3.8,19.93,19.93,0,0,1,2.58-3.25q5.38-5.48,8.66-5.51,1.51,0,1.52,1.65Zm-.78-.21q0-.86-.73-.85-2.18,0-7.42,5.88a34.32,34.32,0,0,0-3.32,4.28,5.38,5.38,0,0,0-1,2.16q0,.86,1,.85,1.42,0,3.85-1.95a26.87,26.87,0,0,0,6.59-7.81,6.34,6.34,0,0,0,1-2.56Zm19.87,1.25q-.15,2.6-5.23,7.38a25.52,25.52,0,0,1-3.72,2.89q-2.71,1.73-4.32,1.64t-1.61-1.95a7.41,7.41,0,0,1,1.69-3.7A19.93,19.93,0,0,1,315.22,12q5.73-5.12,9-4.93,1.5.08,1.41,1.75Zm-.77-.26q0-.86-.68-.9-2.17-.12-7.79,5.38a34.32,34.32,0,0,0-3.59,4.05,5.38,5.38,0,0,0-1.17,2.09q0,.86,1,.92,1.42.08,4-1.69a26.87,26.87,0,0,0,7.09-7.36,6.34,6.34,0,0,0,1.19-2.49Zm19.75,2.55q-.32,2.59-5.71,7a25.52,25.52,0,0,1-3.9,2.64q-2.82,1.55-4.42,1.35t-1.48-2.05A7.41,7.41,0,0,1,331,16.5a19.93,19.93,0,0,1,3-2.88q6.05-4.73,9.31-4.33,1.49.18,1.29,1.84Zm-.75-.31q.1-.85-.62-.94-2.16-.26-8.13,4.85a34.32,34.32,0,0,0-3.85,3.81,5.38,5.38,0,0,0-1.3,2q-.1.85.91,1,1.41.17,4.07-1.42a26.87,26.87,0,0,0,7.56-6.87,6.34,6.34,0,0,0,1.35-2.41Zm19.54,3.85q-.49,2.56-6.16,6.63a25.52,25.52,0,0,1-4.06,2.37q-2.91,1.36-4.5,1.06t-1.34-2.14a7.41,7.41,0,0,1,2.16-3.45,19.93,19.93,0,0,1,3.16-2.68q6.35-4.32,9.57-3.71,1.48.28,1.17,1.92Zm-.73-.36q.16-.85-.55-1-2.14-.41-8.43,4.31a34.31,34.31,0,0,0-4.09,3.55,5.38,5.38,0,0,0-1.43,1.92q-.16.85.84,1,1.4.27,4.16-1.15a26.87,26.87,0,0,0,8-6.36,6.34,6.34,0,0,0,1.51-2.31Zm19.24,5.13q-.65,2.52-6.58,6.21a25.52,25.52,0,0,1-4.21,2.1q-3,1.17-4.56.76a1.58,1.58,0,0,1-1.2-2.23,7.41,7.41,0,0,1,2.38-3.3,19.93,19.93,0,0,1,3.33-2.47q6.62-3.89,9.8-3.07,1.46.38,1,2Zm-.7-.4q.22-.83-.49-1-2.11-.55-8.69,3.74A34.32,34.32,0,0,0,367.72,25a5.38,5.38,0,0,0-1.55,1.82q-.22.83.77,1.09,1.38.36,4.23-.88a26.87,26.87,0,0,0,8.4-5.82A6.34,6.34,0,0,0,381.22,19Zm18.86,6.38q-.82,2.48-7,5.76A25.52,25.52,0,0,1,388.76,33q-3.07,1-4.6.46a1.58,1.58,0,0,1-1.05-2.3A7.41,7.41,0,0,1,385.71,28a19.93,19.93,0,0,1,3.49-2.24q6.86-3.45,10-2.42,1.43.47.91,2.06ZM399.4,25q.27-.82-.42-1-2.07-.68-8.92,3.17a34.32,34.32,0,0,0-4.52,3,5.38,5.38,0,0,0-1.67,1.71q-.27.82.7,1.14,1.35.45,4.28-.6a26.87,26.87,0,0,0,8.76-5.26,6.34,6.34,0,0,0,1.8-2.1Zm18.4,7.6q-1,2.42-7.34,5.29A25.52,25.52,0,0,1,406,39.39q-3.12.76-4.62.16a1.58,1.58,0,0,1-.9-2.37,7.41,7.41,0,0,1,2.79-3,19.93,19.93,0,0,1,3.63-2q7.07-3,10.11-1.76,1.4.57.77,2.11Zm-.64-.49q.32-.8-.35-1.07-2-.82-9.11,2.58A34.32,34.32,0,0,0,403,36.25a5.38,5.38,0,0,0-1.78,1.6q-.32.8.62,1.18,1.32.54,4.3-.32A26.87,26.87,0,0,0,415.23,34a6.34,6.34,0,0,0,1.93-2ZM435,40.85q-1.13,2.35-7.67,4.8a25.52,25.52,0,0,1-4.54,1.24q-3.17.56-4.62-.14a1.58,1.58,0,0,1-.74-2.42,7.41,7.41,0,0,1,3-2.77,19.93,19.93,0,0,1,3.75-1.77q7.25-2.53,10.21-1.1,1.36.66.63,2.16Zm-.61-.53q.37-.77-.28-1.09-2-.95-9.26,2A34.32,34.32,0,0,0,420,43.57,5.38,5.38,0,0,0,418.12,45q-.37.77.55,1.22,1.28.62,4.32,0a26.87,26.87,0,0,0,9.37-4.07,6.34,6.34,0,0,0,2.06-1.84Zm17.25,9.92q-1.29,2.27-8,4.3a25.52,25.52,0,0,1-4.61.94q-3.2.35-4.6-.44a1.58,1.58,0,0,1-.58-2.46A7.41,7.41,0,0,1,437.06,50a19.93,19.93,0,0,1,3.86-1.52q7.4-2,10.26-.43,1.31.74.49,2.19Zm-.57-.57q.42-.75-.21-1.11-1.89-1.07-9.37,1.37a34.32,34.32,0,0,0-5,2,5.38,5.38,0,0,0-2,1.35q-.42.75.46,1.25,1.24.7,4.31.25a26.87,26.87,0,0,0,9.62-3.45,6.34,6.34,0,0,0,2.17-1.71Zm16.57,11q-1.43,2.18-8.23,3.77a25.52,25.52,0,0,1-4.66.64q-3.21.14-4.56-.74a1.58,1.58,0,0,1-.42-2.49,7.41,7.41,0,0,1,3.32-2.36,19.93,19.93,0,0,1,3.95-1.27q7.52-1.56,10.26.23a1.41,1.41,0,0,1,.35,2.22Zm-.53-.61q.47-.72-.14-1.12-1.82-1.19-9.43.76a34.32,34.32,0,0,0-5.14,1.71,5.38,5.38,0,0,0-2.06,1.22q-.47.72.38,1.28,1.19.78,4.28.53a26.87,26.87,0,0,0,9.82-2.82,6.34,6.34,0,0,0,2.28-1.56Zm15.82,12.08q-1.57,2.08-8.45,3.23a25.52,25.52,0,0,1-4.69.34q-3.22-.07-4.5-1a1.58,1.58,0,0,1-.26-2.52A7.41,7.41,0,0,1,468.49,70a19.93,19.93,0,0,1,4-1q7.6-1.07,10.23.9a1.41,1.41,0,0,1,.2,2.24Zm-.49-.64q.52-.69-.06-1.12-1.74-1.31-9.46.14a34.32,34.32,0,0,0-5.24,1.37A5.38,5.38,0,0,0,465.55,73q-.52.69.3,1.3,1.14.86,4.24.8a26.87,26.87,0,0,0,10-2.18,6.34,6.34,0,0,0,2.37-1.41Zm15,13.08q-1.7,2-8.64,2.67a25.52,25.52,0,0,1-4.71,0q-3.2-.27-4.43-1.33a1.58,1.58,0,0,1-.09-2.53,7.41,7.41,0,0,1,3.59-1.91,19.93,19.93,0,0,1,4.08-.75q7.66-.58,10.15,1.56a1.41,1.41,0,0,1,.05,2.25Zm-.45-.67q.56-.65,0-1.13-1.65-1.42-9.45-.47a34.32,34.32,0,0,0-5.32,1,5.38,5.38,0,0,0-2.2.95q-.56.65.21,1.32,1.08.93,4.18,1.08a26.87,26.87,0,0,0,10.1-1.52A6.34,6.34,0,0,0,497,83.93Zm14.12,14q-1.83,1.86-8.8,2.1a25.52,25.52,0,0,1-4.7-.28q-3.18-.48-4.33-1.61a1.58,1.58,0,0,1,.07-2.53A7.41,7.41,0,0,1,497.06,94a19.93,19.93,0,0,1,4.12-.48q7.68-.08,10,2.22a1.41,1.41,0,0,1-.09,2.24Zm-.41-.7q.6-.61.08-1.12-1.56-1.52-9.4-1.08a34.32,34.32,0,0,0-5.37.68,5.38,5.38,0,0,0-2.25.8q-.6.61.13,1.33,1,1,4.1,1.35a26.87,26.87,0,0,0,10.18-.86,6.34,6.34,0,0,0,2.54-1.09Zm13.18,14.92q-1.94,1.74-8.92,1.53a25.52,25.52,0,0,1-4.67-.58q-3.14-.69-4.22-1.89a1.58,1.58,0,0,1,.23-2.52,7.41,7.41,0,0,1,3.81-1.43,19.93,19.93,0,0,1,4.14-.21q7.67.42,9.86,2.87a1.41,1.41,0,0,1-.24,2.23Zm-.36-.72q.64-.57.16-1.11-1.45-1.62-9.31-1.69A34.32,34.32,0,0,0,509,109a5.38,5.38,0,0,0-2.3.65q-.64.57,0,1.34,1,1.06,4,1.61a26.87,26.87,0,0,0,10.22-.2,6.34,6.34,0,0,0,2.6-.92Zm12.18,15.75q-2.05,1.61-9,.94a25.52,25.52,0,0,1-4.62-.89q-3.09-.89-4.09-2.16a1.58,1.58,0,0,1,.4-2.5,7.41,7.41,0,0,1,3.9-1.17,19.93,19.93,0,0,1,4.15.06q7.62.92,9.65,3.51a1.41,1.41,0,0,1-.38,2.21Zm-.31-.75q.68-.53.23-1.1-1.34-1.71-9.18-2.3a34.32,34.32,0,0,0-5.42,0,5.38,5.38,0,0,0-2.34.5q-.68.53,0,1.33.88,1.12,3.89,1.87a26.87,26.87,0,0,0,10.21.47,6.34,6.34,0,0,0,2.66-.75ZM546.51,143q-2.15,1.47-9,.35a25.52,25.52,0,0,1-4.55-1.19q-3-1.09-3.93-2.42a1.58,1.58,0,0,1,.56-2.47,7.41,7.41,0,0,1,4-.92,19.94,19.94,0,0,1,4.13.33q7.55,1.42,9.4,4.13.85,1.24-.53,2.18Zm-.26-.77q.71-.49.3-1.08-1.23-1.8-9-2.9a34.32,34.32,0,0,0-5.4-.38,5.38,5.38,0,0,0-2.37.35q-.71.49-.13,1.33.8,1.18,3.76,2.12a26.87,26.87,0,0,0,10.15,1.14,6.34,6.34,0,0,0,2.7-.57Zm10,17.21q-2.25,1.33-9-.25a25.52,25.52,0,0,1-4.47-1.48Q539.8,156.39,539,155a1.58,1.58,0,0,1,.72-2.42,7.41,7.41,0,0,1,4-.65,19.94,19.94,0,0,1,4.1.61q7.44,1.91,9.11,4.74.77,1.3-.67,2.14Zm-.21-.78q.74-.44.37-1.06-1.11-1.88-8.8-3.48a34.32,34.32,0,0,0-5.37-.73,5.38,5.38,0,0,0-2.39.19q-.74.44-.22,1.32.72,1.23,3.61,2.36a26.87,26.87,0,0,0,10.06,1.8,6.34,6.34,0,0,0,2.73-.4Zm8.86,17.83q-2.33,1.18-9-.84a25.52,25.52,0,0,1-4.36-1.77q-2.86-1.48-3.58-2.92a1.58,1.58,0,0,1,.88-2.37,7.41,7.41,0,0,1,4.05-.39,19.93,19.93,0,0,1,4.06.87q7.3,2.4,8.77,5.33.68,1.34-.81,2.1Zm-.16-.79q.77-.39.44-1-1-1.94-8.55-4.05a34.32,34.32,0,0,0-5.31-1.09,5.38,5.38,0,0,0-2.39,0q-.77.39-.31,1.3.64,1.27,3.45,2.6a26.87,26.87,0,0,0,9.92,2.46,6.34,6.34,0,0,0,2.75-.22ZM572.4,194q-2.4,1-8.93-1.43a25.52,25.52,0,0,1-4.23-2.06q-2.75-1.66-3.38-3.15a1.58,1.58,0,0,1,1-2.31A7.41,7.41,0,0,1,561,185a19.94,19.94,0,0,1,4,1.14q7.12,2.88,8.4,5.9.59,1.39-.95,2Zm-.11-.8q.79-.34.51-1-.85-2-8.27-4.61a34.32,34.32,0,0,0-5.22-1.43,5.38,5.38,0,0,0-2.39-.12q-.79.34-.39,1.28.56,1.31,3.27,2.82a26.87,26.87,0,0,0,9.73,3.11,6.34,6.34,0,0,0,2.76,0Zm6.43,18.84q-2.46.86-8.82-2a25.52,25.52,0,0,1-4.09-2.33q-2.64-1.84-3.17-3.37a1.58,1.58,0,0,1,1.18-2.24,7.41,7.41,0,0,1,4.07.15,19.93,19.93,0,0,1,3.91,1.4q6.92,3.34,8,6.44.5,1.42-1.08,2Zm-.05-.81q.81-.28.57-1-.72-2.06-7.95-5.14a34.32,34.32,0,0,0-5.12-1.77,5.38,5.38,0,0,0-2.38-.28q-.81.28-.48,1.25.47,1.35,3.08,3a26.87,26.87,0,0,0,9.51,3.74,6.34,6.34,0,0,0,2.76.15Zm5.19,19.22q-2.51.7-8.67-2.59a25.53,25.53,0,0,1-3.93-2.59q-2.51-2-2.94-3.57t1.33-2.15a7.41,7.41,0,0,1,4,.41,19.93,19.93,0,0,1,3.81,1.65q6.68,3.78,7.56,6.95.4,1.45-1.2,1.9Zm0-.81q.83-.23.64-.93-.58-2.1-7.59-5.65a34.32,34.32,0,0,0-5-2.1,5.38,5.38,0,0,0-2.35-.44q-.83.23-.56,1.21.38,1.37,2.87,3.22a26.87,26.87,0,0,0,9.24,4.36,6.34,6.34,0,0,0,2.74.33Zm3.92,19.51q-2.55.53-8.48-3.15a25.53,25.53,0,0,1-3.75-2.84q-2.37-2.17-2.7-3.75t1.47-2.06a7.41,7.41,0,0,1,4,.68A19.93,19.93,0,0,1,582,240q6.42,4.21,7.09,7.42.31,1.47-1.33,1.81Zm.05-.81q.84-.18.69-.89-.44-2.13-7.21-6.13a34.32,34.32,0,0,0-4.84-2.42,5.38,5.38,0,0,0-2.32-.59q-.84.18-.63,1.18.29,1.4,2.66,3.4a26.87,26.87,0,0,0,8.94,5,6.34,6.34,0,0,0,2.71.51Zm2.66,19.71q-2.58.37-8.26-3.69a25.52,25.52,0,0,1-3.56-3.08q-2.23-2.32-2.46-3.92t1.6-2a7.41,7.41,0,0,1,4,.93,19.93,19.93,0,0,1,3.56,2.13q6.14,4.62,6.6,7.86.21,1.49-1.44,1.72Zm.1-.8q.85-.12.75-.84-.31-2.16-6.8-6.59a34.32,34.32,0,0,0-4.68-2.73,5.38,5.38,0,0,0-2.28-.74q-.85.12-.71,1.13.2,1.41,2.43,3.57a26.87,26.87,0,0,0,8.6,5.52,6.34,6.34,0,0,0,2.68.68ZM592,287.15q-2.6.2-8-4.22a25.53,25.53,0,0,1-3.35-3.3q-2.07-2.46-2.2-4.07t1.72-1.86A7.41,7.41,0,0,1,584,274.9a19.93,19.93,0,0,1,3.41,2.36q5.83,5,6.08,8.27.11,1.5-1.55,1.63Zm.16-.79q.86-.07.8-.79-.17-2.17-6.36-7a34.32,34.32,0,0,0-4.49-3,5.38,5.38,0,0,0-2.22-.88q-.86.07-.78,1.08.11,1.42,2.2,3.72a26.87,26.87,0,0,0,8.23,6.06,6.34,6.34,0,0,0,2.63.85Zm.08,19.9q-2.61,0-7.71-4.73a25.52,25.52,0,0,1-3.13-3.52q-1.91-2.59-1.93-4.2t1.84-1.74a7.41,7.41,0,0,1,3.81,1.44,19.93,19.93,0,0,1,3.25,2.57q5.49,5.37,5.52,8.65,0,1.51-1.65,1.52Zm.21-.78q.86,0,.85-.74,0-2.18-5.89-7.41A34.32,34.32,0,0,0,583.1,294a5.38,5.38,0,0,0-2.16-1q-.86,0-.85,1,0,1.42,2,3.85a26.87,26.87,0,0,0,7.81,6.58,6.34,6.34,0,0,0,2.57,1Zm-1.23,19.87q-2.6-.14-7.39-5.23a25.53,25.53,0,0,1-2.89-3.71q-1.74-2.71-1.65-4.32t1.95-1.62a7.41,7.41,0,0,1,3.7,1.69,19.93,19.93,0,0,1,3.08,2.78q5.12,5.72,4.94,9-.08,1.5-1.75,1.41Zm.26-.77q.86,0,.9-.68.12-2.17-5.39-7.78a34.32,34.32,0,0,0-4.06-3.59,5.38,5.38,0,0,0-2.09-1.17q-.86,0-.92,1-.08,1.42,1.69,4A26.87,26.87,0,0,0,589,323.4a6.34,6.34,0,0,0,2.49,1.19Zm-2.53,19.75q-2.59-.31-7-5.7a25.52,25.52,0,0,1-2.64-3.9q-1.55-2.82-1.36-4.42t2-1.48a7.41,7.41,0,0,1,3.58,1.93,19.94,19.94,0,0,1,2.89,3q4.74,6,4.34,9.3-.18,1.49-1.84,1.29Zm.31-.75q.85.1.94-.62.26-2.16-4.86-8.12a34.32,34.32,0,0,0-3.81-3.85,5.38,5.38,0,0,0-2-1.3q-.85-.1-1,.91-.17,1.41,1.43,4.07a26.87,26.87,0,0,0,6.88,7.55,6.34,6.34,0,0,0,2.41,1.35Zm-3.83,19.54q-2.56-.48-6.63-6.15a25.52,25.52,0,0,1-2.38-4.06q-1.36-2.91-1.06-4.5t2.14-1.35a7.41,7.41,0,0,1,3.45,2.16,19.94,19.94,0,0,1,2.69,3.16q4.33,6.35,3.72,9.57-.28,1.48-1.92,1.17Zm.36-.73q.85.16,1-.55.4-2.14-4.32-8.42a34.32,34.32,0,0,0-3.55-4.09,5.38,5.38,0,0,0-1.92-1.43q-.85-.16-1,.84-.26,1.4,1.16,4.16a26.87,26.87,0,0,0,6.37,8,6.34,6.34,0,0,0,2.31,1.5Zm-5.11,19.24q-2.53-.65-6.22-6.58a25.52,25.52,0,0,1-2.11-4.21q-1.17-3-.77-4.56a1.58,1.58,0,0,1,2.23-1.2,7.41,7.41,0,0,1,3.3,2.38,19.93,19.93,0,0,1,2.47,3.33q3.9,6.62,3.08,9.79-.38,1.46-2,1Zm.4-.7q.83.22,1-.49.54-2.11-3.75-8.69a34.32,34.32,0,0,0-3.27-4.32,5.38,5.38,0,0,0-1.82-1.55q-.83-.22-1.09.77-.36,1.38.88,4.23a26.87,26.87,0,0,0,5.83,8.39,6.34,6.34,0,0,0,2.21,1.65Zm-6.36,18.87q-2.48-.82-5.77-7a25.53,25.53,0,0,1-1.83-4.34q-1-3.07-.47-4.6a1.58,1.58,0,0,1,2.3-1.05,7.41,7.41,0,0,1,3.14,2.59,19.94,19.94,0,0,1,2.25,3.49q3.46,6.86,2.43,10-.47,1.43-2.05.91Zm.45-.67q.82.27,1-.42.68-2.07-3.18-8.92a34.32,34.32,0,0,0-3-4.52,5.38,5.38,0,0,0-1.71-1.67q-.82-.27-1.14.7-.45,1.35.6,4.27a26.87,26.87,0,0,0,5.27,8.76,6.34,6.34,0,0,0,2.1,1.8Zm-7.58,18.41q-2.42-1-5.3-7.33a25.52,25.52,0,0,1-1.54-4.45q-.77-3.12-.16-4.62a1.58,1.58,0,0,1,2.36-.9,7.41,7.41,0,0,1,3,2.79,19.94,19.94,0,0,1,2,3.63q3,7.07,1.77,10.11-.56,1.4-2.11.77Zm.49-.64q.8.32,1.07-.35.82-2-2.58-9.11a34.32,34.32,0,0,0-2.68-4.71,5.38,5.38,0,0,0-1.6-1.78q-.8-.32-1.18.63-.53,1.32.32,4.3a26.87,26.87,0,0,0,4.68,9.08,6.34,6.34,0,0,0,2,1.93Zm-8.76,17.87q-2.35-1.13-4.81-7.66a25.52,25.52,0,0,1-1.24-4.54q-.56-3.17.14-4.62a1.58,1.58,0,0,1,2.42-.74,7.41,7.41,0,0,1,2.77,3,19.94,19.94,0,0,1,1.77,3.75q2.53,7.25,1.11,10.21-.65,1.36-2.16.63Zm.53-.61q.77.37,1.09-.28.95-2-2-9.25a34.33,34.33,0,0,0-2.37-4.87,5.38,5.38,0,0,0-1.48-1.88q-.77-.37-1.22.55-.62,1.28,0,4.32a26.87,26.87,0,0,0,4.08,9.37,6.34,6.34,0,0,0,1.85,2.05Zm-9.91,17.26q-2.27-1.28-4.3-8a25.52,25.52,0,0,1-.95-4.61q-.36-3.2.44-4.6a1.58,1.58,0,0,1,2.46-.59,7.41,7.41,0,0,1,2.57,3.15,19.93,19.93,0,0,1,1.53,3.86q2.06,7.4.44,10.26-.74,1.31-2.19.49Zm.57-.57q.75.42,1.11-.21,1.07-1.9-1.38-9.36a34.32,34.32,0,0,0-2-5,5.38,5.38,0,0,0-1.36-2q-.75-.42-1.25.47-.7,1.24-.24,4.31a26.87,26.87,0,0,0,3.46,9.61,6.34,6.34,0,0,0,1.71,2.17Zm-11,16.58q-2.18-1.43-3.78-8.22a25.53,25.53,0,0,1-.64-4.66q-.15-3.21.74-4.56a1.58,1.58,0,0,1,2.49-.42,7.41,7.41,0,0,1,2.36,3.31,19.94,19.94,0,0,1,1.27,3.95q1.57,7.52-.22,10.26a1.41,1.41,0,0,1-2.22.35Zm.61-.53q.72.47,1.12-.14,1.19-1.82-.77-9.43a34.32,34.32,0,0,0-1.71-5.14,5.38,5.38,0,0,0-1.23-2.05q-.72-.47-1.28.38-.78,1.19-.52,4.28a26.87,26.87,0,0,0,2.83,9.82,6.34,6.34,0,0,0,1.56,2.28ZM528,482.73q-2.09-1.57-3.24-8.45a25.52,25.52,0,0,1-.34-4.69q.06-3.22,1-4.51a1.58,1.58,0,0,1,2.52-.26,7.41,7.41,0,0,1,2.14,3.46,19.93,19.93,0,0,1,1,4q1.08,7.6-.89,10.23a1.41,1.41,0,0,1-2.24.2Zm.64-.49q.69.52,1.12-.06,1.31-1.74-.15-9.46a34.32,34.32,0,0,0-1.38-5.24,5.38,5.38,0,0,0-1.09-2.13q-.69-.52-1.3.3-.86,1.14-.8,4.24a26.87,26.87,0,0,0,2.19,10,6.34,6.34,0,0,0,1.41,2.37Zm-13.06,15q-2-1.7-2.68-8.64a25.52,25.52,0,0,1,0-4.71q.27-3.2,1.32-4.43a1.58,1.58,0,0,1,2.53-.1,7.41,7.41,0,0,1,1.91,3.59,19.93,19.93,0,0,1,.75,4.08q.58,7.66-1.55,10.15a1.41,1.41,0,0,1-2.25.06Zm.67-.45q.65.56,1.13,0,1.42-1.65.46-9.45a34.32,34.32,0,0,0-1-5.32,5.38,5.38,0,0,0-.95-2.2q-.65-.56-1.32.21-.93,1.08-1.07,4.18a26.87,26.87,0,0,0,1.53,10.1,6.34,6.34,0,0,0,1.26,2.46Zm-14,14.13q-1.86-1.82-2.11-8.8a25.52,25.52,0,0,1,.27-4.7q.48-3.18,1.61-4.33a1.58,1.58,0,0,1,2.53.07,7.41,7.41,0,0,1,1.68,3.71,19.93,19.93,0,0,1,.48,4.12q.09,7.68-2.21,10a1.41,1.41,0,0,1-2.24-.09Zm.7-.41q.62.6,1.12.08,1.52-1.56,1.07-9.4a34.32,34.32,0,0,0-.69-5.37,5.38,5.38,0,0,0-.8-2.25q-.62-.6-1.33.13-1,1-1.34,4.1a26.87,26.87,0,0,0,.87,10.18,6.34,6.34,0,0,0,1.09,2.54Zm-14.9,13.19q-1.74-1.94-1.54-8.92a25.53,25.53,0,0,1,.58-4.67q.68-3.14,1.88-4.22a1.58,1.58,0,0,1,2.52.23,7.41,7.41,0,0,1,1.43,3.81,19.94,19.94,0,0,1,.21,4.14q-.42,7.67-2.86,9.86a1.41,1.41,0,0,1-2.23-.24Zm.72-.36q.57.64,1.11.16,1.62-1.45,1.68-9.31a34.32,34.32,0,0,0-.34-5.41,5.38,5.38,0,0,0-.66-2.3q-.57-.64-1.33,0-1.06,1-1.61,4a26.87,26.87,0,0,0,.21,10.22,6.34,6.34,0,0,0,.93,2.6Zm-15.73,12.19q-1.61-2.05-.95-9a25.53,25.53,0,0,1,.88-4.62q.89-3.09,2.16-4.09a1.58,1.58,0,0,1,2.5.4,7.41,7.41,0,0,1,1.18,3.89,19.94,19.94,0,0,1-.06,4.15q-.92,7.63-3.49,9.65a1.41,1.41,0,0,1-2.21-.38Zm.75-.31q.53.68,1.1.23,1.71-1.35,2.29-9.18a34.32,34.32,0,0,0,0-5.42,5.38,5.38,0,0,0-.5-2.34q-.53-.68-1.33,0-1.12.88-1.87,3.89a26.87,26.87,0,0,0-.46,10.21,6.34,6.34,0,0,0,.75,2.66Zm-16.5,11.14q-1.47-2.15-.36-9a25.52,25.52,0,0,1,1.18-4.56q1.09-3,2.42-3.94a1.58,1.58,0,0,1,2.47.56,7.41,7.41,0,0,1,.92,4,19.93,19.93,0,0,1-.33,4.14q-1.41,7.55-4.12,9.4-1.24.85-2.18-.53Zm.76-.26q.49.71,1.08.3,1.8-1.23,2.89-9a34.32,34.32,0,0,0,.37-5.4,5.38,5.38,0,0,0-.35-2.37q-.49-.71-1.33-.13-1.18.8-2.12,3.76a26.87,26.87,0,0,0-1.13,10.16,6.34,6.34,0,0,0,.58,2.7Zm-17.2,10q-1.33-2.24.24-9a25.53,25.53,0,0,1,1.48-4.47q1.29-2.95,2.67-3.77a1.58,1.58,0,0,1,2.43.72,7.41,7.41,0,0,1,.66,4,19.94,19.94,0,0,1-.6,4.1q-1.91,7.44-4.73,9.11-1.3.77-2.14-.67Zm.78-.21q.44.74,1.06.37,1.87-1.11,3.47-8.8a34.32,34.32,0,0,0,.73-5.37,5.38,5.38,0,0,0-.19-2.39q-.44-.74-1.32-.22-1.23.73-2.36,3.61a26.87,26.87,0,0,0-1.79,10.06,6.34,6.34,0,0,0,.4,2.73Zm-17.82,8.87q-1.18-2.33.83-9a25.52,25.52,0,0,1,1.77-4.36q1.48-2.86,2.92-3.59a1.58,1.58,0,0,1,2.37.88,7.41,7.41,0,0,1,.39,4.05,19.94,19.94,0,0,1-.87,4.06q-2.39,7.3-5.32,8.78-1.34.68-2.1-.81Zm.79-.16q.39.77,1,.44,1.94-1,4-8.56a34.32,34.32,0,0,0,1.08-5.31,5.38,5.38,0,0,0,0-2.39q-.39-.77-1.3-.31-1.27.64-2.59,3.45a26.87,26.87,0,0,0-2.45,9.92,6.34,6.34,0,0,0,.22,2.75Zm-18.37,7.68q-1-2.4,1.43-8.94a25.52,25.52,0,0,1,2.05-4.24q1.66-2.75,3.15-3.39a1.58,1.58,0,0,1,2.31,1,7.41,7.41,0,0,1,.13,4.07,19.93,19.93,0,0,1-1.14,4q-2.87,7.12-5.89,8.41-1.39.59-2-.94Zm.8-.11q.34.79,1,.51,2-.85,4.6-8.27a34.32,34.32,0,0,0,1.43-5.23,5.38,5.38,0,0,0,.12-2.39q-.34-.79-1.28-.39-1.31.56-2.81,3.27a26.87,26.87,0,0,0-3.1,9.74,6.34,6.34,0,0,0,0,2.76Zm-18.83,6.45q-.86-2.46,2-8.82a25.53,25.53,0,0,1,2.33-4.09q1.84-2.64,3.36-3.17a1.58,1.58,0,0,1,2.24,1.18,7.41,7.41,0,0,1-.14,4.07,19.93,19.93,0,0,1-1.4,3.91q-3.33,6.92-6.43,8-1.42.5-2-1.08Zm.81-.05q.28.81,1,.57,2.06-.72,5.13-8a34.32,34.32,0,0,0,1.77-5.12,5.38,5.38,0,0,0,.28-2.38q-.28-.81-1.25-.47-1.34.47-3,3.08a26.87,26.87,0,0,0-3.73,9.51,6.34,6.34,0,0,0-.15,2.76Zm-19.21,5.2q-.7-2.51,2.58-8.67a25.52,25.52,0,0,1,2.59-3.93q2-2.51,3.56-2.94t2.15,1.33a7.41,7.41,0,0,1-.41,4,19.94,19.94,0,0,1-1.65,3.81q-3.78,6.69-6.94,7.57-1.45.4-1.9-1.2Zm.81,0q.23.83.93.63,2.1-.58,5.64-7.6a34.32,34.32,0,0,0,2.1-5,5.38,5.38,0,0,0,.43-2.35q-.23-.83-1.21-.56-1.37.38-3.22,2.88a26.87,26.87,0,0,0-4.35,9.25,6.34,6.34,0,0,0-.33,2.74Zm-19.51,3.94q-.53-2.55,3.14-8.49a25.52,25.52,0,0,1,2.84-3.75q2.17-2.38,3.75-2.71t2.06,1.46a7.41,7.41,0,0,1-.67,4,19.93,19.93,0,0,1-1.89,3.69q-4.2,6.43-7.41,7.1-1.47.31-1.81-1.32Zm.81.05q.18.84.89.69,2.13-.45,6.13-7.21a34.32,34.32,0,0,0,2.42-4.85,5.38,5.38,0,0,0,.59-2.32q-.18-.84-1.18-.63-1.39.29-3.4,2.66a26.87,26.87,0,0,0-4.94,8.94,6.34,6.34,0,0,0-.5,2.71Z" style="fill:none;stroke:#c0b68d;stroke-width:5.2465620040893555px"/><path d="M504,300c0,112.61-91.39,204-204,204S96,412.61,96,300,187.39,96,300,96,504,187.39,504,300Z" style="fill:none"/><path d="M517.78,317.29q-2.95-.09-8.49-5.72a28.88,28.88,0,0,1-3.37-4.12q-2-3-2-4.84t2.16-1.88a8.38,8.38,0,0,1,4.23,1.81,22.56,22.56,0,0,1,3.55,3.07q5.95,6.34,5.83,10-.05,1.7-1.94,1.64Zm.27-.87q1,0,1-.79.08-2.46-6.3-8.66a38.82,38.82,0,0,0-4.68-4,6.08,6.08,0,0,0-2.39-1.26q-1,0-1,1.12-.05,1.61,2,4.45a30.4,30.4,0,0,0,8.52,7.82,7.17,7.17,0,0,0,2.85,1.28Zm-3.11,22.83q-2.92-.39-7.87-6.54a28.88,28.88,0,0,1-2.94-4.44q-1.72-3.21-1.48-5T505,321.6a8.39,8.39,0,0,1,4,2.23,22.55,22.55,0,0,1,3.23,3.41q5.28,6.9,4.79,10.58-.23,1.69-2.09,1.44Zm.36-.84q1,.13,1.07-.69.33-2.44-5.39-9.25a38.83,38.83,0,0,0-4.26-4.4,6.08,6.08,0,0,0-2.25-1.5q-1-.13-1.12,1-.21,1.6,1.56,4.63a30.4,30.4,0,0,0,7.69,8.64,7.17,7.17,0,0,0,2.71,1.56Zm-5.42,22.41q-2.87-.69-7.17-7.31a28.88,28.88,0,0,1-2.47-4.72q-1.39-3.36-1-5.14t2.49-1.41a8.39,8.39,0,0,1,3.78,2.62,22.56,22.56,0,0,1,2.86,3.72q4.55,7.4,3.69,11-.4,1.66-2.23,1.22Zm.44-.8q.95.23,1.14-.57.57-2.4-4.43-9.75a38.83,38.83,0,0,0-3.79-4.82,6.08,6.08,0,0,0-2.09-1.72q-.95-.23-1.22.9-.37,1.57,1.08,4.76a30.4,30.4,0,0,0,6.77,9.37,7.17,7.17,0,0,0,2.53,1.83Zm-7.68,21.74q-2.78-1-6.38-8a28.88,28.88,0,0,1-2-4.95q-1-3.49-.43-5.21t2.62-1.14a8.39,8.39,0,0,1,3.5,3,22.56,22.56,0,0,1,2.47,4q3.77,7.83,2.54,11.33-.56,1.61-2.34,1Zm.52-.75q.92.32,1.19-.45.81-2.33-3.41-10.15a38.84,38.84,0,0,0-3.28-5.18,6.08,6.08,0,0,0-1.9-1.92q-.92-.32-1.3.77-.53,1.52.59,4.85a30.41,30.41,0,0,0,5.78,10,7.17,7.17,0,0,0,2.34,2.07Zm-9.86,20.85q-2.67-1.25-5.53-8.61a28.88,28.88,0,0,1-1.46-5.12q-.67-3.58.1-5.23t2.73-.87a8.39,8.39,0,0,1,3.17,3.34,22.56,22.56,0,0,1,2.05,4.22q3,8.17,1.38,11.53-.72,1.54-2.43.74Zm.59-.7q.88.41,1.23-.33,1-2.23-2.36-10.45A38.84,38.84,0,0,0,490,384.9a6.09,6.09,0,0,0-1.7-2.11q-.88-.41-1.37.63-.68,1.46.09,4.88a30.41,30.41,0,0,0,4.73,10.55,7.17,7.17,0,0,0,2.11,2.3ZM482,420.89q-2.53-1.52-4.63-9.13a28.89,28.89,0,0,1-.93-5.24q-.31-3.63.63-5.19t2.8-.59a8.39,8.39,0,0,1,2.82,3.64,22.56,22.56,0,0,1,1.61,4.41q2.11,8.43.2,11.61a1.59,1.59,0,0,1-2.49.49Zm.66-.63q.83.5,1.26-.2,1.27-2.11-1.28-10.63a38.84,38.84,0,0,0-2.17-5.73,6.09,6.09,0,0,0-1.48-2.27q-.83-.5-1.43.49-.83,1.38-.4,4.87a30.41,30.41,0,0,0,3.63,11,7.17,7.17,0,0,0,1.87,2.5Zm-13.85,18.42q-2.36-1.77-3.69-9.55a28.89,28.89,0,0,1-.4-5.31q.06-3.64,1.15-5.1t2.85-.3a8.39,8.39,0,0,1,2.43,3.91,22.56,22.56,0,0,1,1.16,4.55q1.25,8.6-1,11.57a1.59,1.59,0,0,1-2.53.24Zm.72-.56q.78.58,1.27-.08,1.47-2-.2-10.71a38.84,38.84,0,0,0-1.58-5.92,6.09,6.09,0,0,0-1.24-2.41q-.78-.58-1.47.34-1,1.29-.89,4.8a30.41,30.41,0,0,0,2.5,11.29,7.17,7.17,0,0,0,1.61,2.68ZM453.88,455q-2.17-2-2.71-9.87a28.89,28.89,0,0,1,.14-5.32q.43-3.61,1.66-5t2.86,0a8.39,8.39,0,0,1,2,4.13,22.56,22.56,0,0,1,.7,4.64q.37,8.68-2.13,11.42a1.59,1.59,0,0,1-2.54,0Zm.78-.49q.72.66,1.27.05,1.67-1.82.87-10.67a38.84,38.84,0,0,0-1-6.05,6.09,6.09,0,0,0-1-2.52q-.72-.66-1.5.19-1.09,1.19-1.37,4.69a30.41,30.41,0,0,0,1.36,11.48,7.17,7.17,0,0,0,1.33,2.83Zm-17.25,15.27q-2-2.2-1.7-10.1a28.89,28.89,0,0,1,.67-5.28q.79-3.55,2.15-4.77t2.85.27a8.39,8.39,0,0,1,1.6,4.32,22.56,22.56,0,0,1,.23,4.69q-.5,8.68-3.27,11.14a1.59,1.59,0,0,1-2.53-.27Zm.82-.41q.65.73,1.26.18,1.84-1.64,1.94-10.53a38.84,38.84,0,0,0-.36-6.12,6.09,6.09,0,0,0-.73-2.61q-.65-.73-1.51,0-1.2,1.07-1.83,4.53a30.41,30.41,0,0,0,.2,11.56,7.17,7.17,0,0,0,1,2.95Zm-18.7,13.46q-1.73-2.39-.68-10.22a28.89,28.89,0,0,1,1.2-5.19q1.14-3.46,2.62-4.53t2.81.56a8.39,8.39,0,0,1,1.16,4.46,22.56,22.56,0,0,1-.25,4.69Q425,481.24,422,483.42q-1.38,1-2.49-.53Zm.86-.32q.57.79,1.24.31,2-1.45,3-10.28a38.84,38.84,0,0,0,.26-6.12,6.09,6.09,0,0,0-.47-2.67q-.57-.79-1.51-.11-1.31.95-2.28,4.32a30.41,30.41,0,0,0-1,11.52,7.17,7.17,0,0,0,.73,3Zm-20,11.51q-1.48-2.55.36-10.23a28.89,28.89,0,0,1,1.72-5q1.48-3.32,3.06-4.24t2.74.84A8.39,8.39,0,0,1,409,480a22.56,22.56,0,0,1-.72,4.64q-2.23,8.4-5.44,10.26-1.47.85-2.42-.78Zm.88-.23q.49.84,1.2.43,2.13-1.24,4-9.93a38.84,38.84,0,0,0,.88-6.07,6.09,6.09,0,0,0-.2-2.7q-.49-.84-1.49-.26-1.39.81-2.7,4.07a30.41,30.41,0,0,0-2.13,11.36,7.17,7.17,0,0,0,.42,3.1Zm-21,9.42q-1.21-2.69,1.39-10.14a28.88,28.88,0,0,1,2.22-4.84q1.81-3.16,3.48-3.91t2.64,1.11a8.39,8.39,0,0,1,.24,4.6,22.56,22.56,0,0,1-1.19,4.54q-3.07,8.13-6.45,9.66-1.55.7-2.33-1Zm.9-.14q.4.89,1.15.55,2.25-1,5-9.47a38.84,38.84,0,0,0,1.49-5.95,6.09,6.09,0,0,0,.08-2.71q-.4-.89-1.45-.41-1.47.66-3.1,3.77A30.41,30.41,0,0,0,381.07,500a7.17,7.17,0,0,0,.11,3.12Zm-21.89,7.23q-.93-2.8,2.42-9.95a28.88,28.88,0,0,1,2.7-4.59q2.12-3,3.86-3.53t2.51,1.38a8.39,8.39,0,0,1-.23,4.6,22.56,22.56,0,0,1-1.64,4.4q-3.88,7.77-7.4,8.95-1.62.54-2.21-1.25Zm.91,0q.31.92,1.09.66,2.34-.78,5.94-8.91a38.84,38.84,0,0,0,2.09-5.76,6.09,6.09,0,0,0,.36-2.68q-.31-.92-1.4-.56-1.53.51-3.47,3.44a30.41,30.41,0,0,0-4.38,10.7,7.17,7.17,0,0,0-.21,3.12Zm-22.52,5q-.64-2.88,3.42-9.65a28.88,28.88,0,0,1,3.16-4.29q2.41-2.72,4.2-3.12t2.36,1.62a8.39,8.39,0,0,1-.7,4.55,22.56,22.56,0,0,1-2.08,4.21q-4.66,7.34-8.28,8.15-1.66.37-2.07-1.47Zm.91,0q.21,1,1,.77,2.4-.54,6.82-8.26a38.83,38.83,0,0,0,2.66-5.52,6.09,6.09,0,0,0,.63-2.63q-.21-1-1.34-.7-1.57.35-3.8,3.06a30.41,30.41,0,0,0-5.45,10.2,7.17,7.17,0,0,0-.53,3.08ZM315.7,518q-.35-2.93,4.39-9.25a28.88,28.88,0,0,1,3.57-3.95q2.68-2.46,4.49-2.68t2.18,1.86a8.39,8.39,0,0,1-1.16,4.46,22.56,22.56,0,0,1-2.5,4q-5.38,6.83-9.06,7.26-1.69.2-1.91-1.67Zm.9.14q.11,1,.93.87,2.45-.29,7.62-7.52a38.83,38.83,0,0,0,3.21-5.22,6.09,6.09,0,0,0,.89-2.56q-.11-1-1.26-.83-1.6.19-4.09,2.66a30.4,30.4,0,0,0-6.46,9.59,7.17,7.17,0,0,0-.84,3Zm-23,.32q-.05-3,5.29-8.76a28.87,28.87,0,0,1,4-3.57q2.91-2.18,4.74-2.21t2,2.06a8.39,8.39,0,0,1-1.6,4.32,22.56,22.56,0,0,1-2.89,3.7q-6,6.25-9.75,6.32-1.7,0-1.74-1.86Zm.89.23q0,1,.84,1,2.46,0,8.34-6.72a38.83,38.83,0,0,0,3.72-4.87,6.09,6.09,0,0,0,1.14-2.45q0-1-1.17-1-1.61,0-4.34,2.24a30.4,30.4,0,0,0-7.39,8.89,7.17,7.17,0,0,0-1.14,2.91Zm-22.94-2q.24-2.94,6.14-8.19a28.87,28.87,0,0,1,4.29-3.15q3.12-1.88,4.93-1.73t1.77,2.25a8.39,8.39,0,0,1-2,4.14,22.55,22.55,0,0,1-3.24,3.39q-6.63,5.62-10.33,5.31-1.7-.14-1.54-2Zm.86.32q-.08,1,.74,1,2.46.2,9-5.85a38.83,38.83,0,0,0,4.19-4.48,6.09,6.09,0,0,0,1.38-2.33q.08-1-1.07-1.07-1.61-.13-4.54,1.79a30.4,30.4,0,0,0-8.24,8.11,7.17,7.17,0,0,0-1.42,2.78Zm-22.64-4.29q.54-2.9,6.94-7.53a28.87,28.87,0,0,1,4.59-2.7q3.29-1.55,5.08-1.22t1.53,2.42a8.39,8.39,0,0,1-2.43,3.91,22.55,22.55,0,0,1-3.57,3q-7.16,4.92-10.81,4.24-1.67-.31-1.33-2.17Zm.82.4q-.18,1,.63,1.11,2.42.45,9.52-4.91a38.82,38.82,0,0,0,4.62-4,6.09,6.09,0,0,0,1.61-2.18q.18-1-1-1.17-1.58-.3-4.7,1.32a30.4,30.4,0,0,0-9,7.23,7.17,7.17,0,0,0-1.7,2.62Zm-22.1-6.58q.83-2.83,7.67-6.78a28.87,28.87,0,0,1,4.84-2.22q3.43-1.21,5.18-.69t1.27,2.56a8.39,8.39,0,0,1-2.82,3.64,22.55,22.55,0,0,1-3.86,2.67q-7.63,4.16-11.19,3.11-1.63-.48-1.1-2.29Zm.78.48q-.27.93.51,1.17,2.36.7,10-3.91a38.82,38.82,0,0,0,5-3.54,6.09,6.09,0,0,0,1.83-2q.27-.93-.83-1.26-1.55-.46-4.81.83a30.4,30.4,0,0,0-9.71,6.27,7.17,7.17,0,0,0-2,2.44Zm-21.31-8.8q1.12-2.73,8.32-6a28.87,28.87,0,0,1,5-1.72q3.54-.85,5.23-.16t1,2.68a8.39,8.39,0,0,1-3.17,3.34,22.55,22.55,0,0,1-4.11,2.26q-8,3.36-11.45,2-1.58-.65-.86-2.39Zm.72.56q-.37.9.39,1.21,2.28.93,10.31-2.88a38.82,38.82,0,0,0,5.34-3,6.09,6.09,0,0,0,2-1.8q.37-.9-.7-1.34-1.49-.61-4.87.34a30.39,30.39,0,0,0-10.3,5.25,7.17,7.17,0,0,0-2.19,2.23Zm-20.3-10.92q1.39-2.6,8.88-5.08a28.87,28.87,0,0,1,5.19-1.2q3.61-.49,5.21.37t.73,2.77a8.39,8.39,0,0,1-3.5,3,22.55,22.55,0,0,1-4.32,1.83q-8.31,2.53-11.59.78-1.5-.8-.61-2.47Zm.66.63q-.46.86.27,1.25,2.17,1.16,10.55-1.81a38.82,38.82,0,0,0,5.62-2.45,6.08,6.08,0,0,0,2.19-1.59q.46-.86-.56-1.4-1.42-.76-4.88-.16a30.39,30.39,0,0,0-10.78,4.18,7.17,7.17,0,0,0-2.41,2Zm-19.08-12.92q1.65-2.45,9.35-4.16a28.86,28.86,0,0,1,5.28-.66q3.64-.12,5.15.9t.44,2.83a8.39,8.39,0,0,1-3.78,2.63,22.55,22.55,0,0,1-4.48,1.38q-8.53,1.67-11.61-.4a1.59,1.59,0,0,1-.36-2.52Zm.6.69q-.54.81.14,1.27,2,1.37,10.68-.74a38.82,38.82,0,0,0,5.84-1.87,6.08,6.08,0,0,0,2.34-1.36q.54-.81-.42-1.45-1.34-.9-4.84-.65a30.39,30.39,0,0,0-11.15,3.06,7.17,7.17,0,0,0-2.6,1.74Zm-17.68-14.77q1.88-2.27,9.72-3.19a28.87,28.87,0,0,1,5.32-.13q3.63.25,5,1.41t.16,2.86a8.39,8.39,0,0,1-4,2.23,22.55,22.55,0,0,1-4.6.92q-8.65.8-11.51-1.57a1.59,1.59,0,0,1-.11-2.54Zm.52.75q-.62.75,0,1.27,1.9,1.57,10.7.34a38.81,38.81,0,0,0,6-1.27,6.08,6.08,0,0,0,2.47-1.12q.62-.75-.27-1.49-1.24-1-4.75-1.14a30.39,30.39,0,0,0-11.4,1.92,7.17,7.17,0,0,0-2.76,1.47Zm-16.1-16.47q2.1-2.07,10-2.2a28.87,28.87,0,0,1,5.31.41q3.59.61,4.87,1.91t-.13,2.86a8.38,8.38,0,0,1-4.23,1.82,22.55,22.55,0,0,1-4.67.46q-8.69-.07-11.29-2.71a1.59,1.59,0,0,1,.15-2.54Zm.45.8q-.69.68-.12,1.27,1.73,1.76,10.61,1.42a38.81,38.81,0,0,0,6.09-.66,6.08,6.08,0,0,0,2.57-.86q.69-.68-.12-1.51-1.13-1.15-4.61-1.61a30.39,30.39,0,0,0-11.53.77,7.17,7.17,0,0,0-2.89,1.18Zm-14.37-18q2.3-1.85,10.17-1.18a28.87,28.87,0,0,1,5.24.94q3.51,1,4.65,2.39t-.42,2.83a8.38,8.38,0,0,1-4.39,1.38,22.54,22.54,0,0,1-4.69,0q-8.64-.94-11-3.84a1.59,1.59,0,0,1,.4-2.51Zm.36.84q-.76.61-.24,1.25,1.54,1.92,10.42,2.48a38.81,38.81,0,0,0,6.13,0,6.08,6.08,0,0,0,2.64-.6q.76-.61,0-1.51-1-1.26-4.43-2.06a30.39,30.39,0,0,0-11.55-.4,7.17,7.17,0,0,0-3,.88ZM111.22,410q2.47-1.61,10.23-.15a28.87,28.87,0,0,1,5.12,1.46q3.39,1.32,4.39,2.85t-.7,2.78a8.38,8.38,0,0,1-4.51.93,22.55,22.55,0,0,1-4.67-.49q-8.5-1.81-10.52-4.92-.93-1.43.65-2.46Zm.28.87q-.82.53-.37,1.22,1.34,2.07,10.11,3.52a38.81,38.81,0,0,0,6.1.57,6.08,6.08,0,0,0,2.69-.33q.82-.53.19-1.5-.88-1.35-4.2-2.5a30.39,30.39,0,0,0-11.45-1.56,7.17,7.17,0,0,0-3.07.58ZM101,390.33q2.62-1.35,10.2.89a28.87,28.87,0,0,1,4.94,2q3.24,1.65,4.07,3.28t-1,2.69a8.38,8.38,0,0,1-4.58.47,22.55,22.55,0,0,1-4.59-1q-8.27-2.66-10-6-.78-1.52.9-2.38Zm.19.9q-.87.44-.49,1.18,1.12,2.19,9.71,4.52a38.81,38.81,0,0,0,6,1.19,6.08,6.08,0,0,0,2.71-.06q.87-.44.34-1.47-.74-1.43-3.92-2.91A30.39,30.39,0,0,0,104.34,391a7.17,7.17,0,0,0-3.11.26Zm-8.32-21.5q2.75-1.07,10.05,1.92a28.87,28.87,0,0,1,4.72,2.47q3.06,2,3.72,3.67t-1.25,2.58a8.38,8.38,0,0,1-4.6,0,22.55,22.55,0,0,1-4.47-1.42q-8-3.49-9.31-6.95-.62-1.59,1.14-2.27Zm.09.91q-.91.35-.61,1.12.9,2.3,9.19,5.49a38.82,38.82,0,0,0,5.86,1.79,6.08,6.08,0,0,0,2.7.22q.91-.35.49-1.43-.59-1.5-3.6-3.29a30.39,30.39,0,0,0-10.9-3.84,7.17,7.17,0,0,0-3.12-.05Zm-6.08-22.24q2.84-.79,9.81,2.93a28.87,28.87,0,0,1,4.44,2.94q2.84,2.28,3.33,4t-1.5,2.44a8.38,8.38,0,0,1-4.58-.47,22.55,22.55,0,0,1-4.3-1.87q-7.56-4.28-8.55-7.86-.45-1.64,1.36-2.15Zm0,.92q-.94.26-.72,1.05.66,2.37,8.59,6.4a38.82,38.82,0,0,0,5.65,2.38,6.08,6.08,0,0,0,2.66.49q.94-.26.63-1.37-.43-1.55-3.25-3.65A30.39,30.39,0,0,0,90,349.67a7.17,7.17,0,0,0-3.1-.37Zm-3.78-22.75q2.91-.49,9.46,3.92a28.87,28.87,0,0,1,4.12,3.37q2.59,2.55,2.9,4.35t-1.74,2.27a8.38,8.38,0,0,1-4.51-.93,22.55,22.55,0,0,1-4.09-2.3q-7.08-5-7.7-8.69-.28-1.68,1.57-2Zm-.09.91q-1,.16-.82,1,.41,2.43,7.89,7.24a38.82,38.82,0,0,0,5.37,2.95,6.08,6.08,0,0,0,2.6.76q1-.16.77-1.3-.27-1.59-2.86-4a30.4,30.4,0,0,0-9.9-6,7.17,7.17,0,0,0-3-.69Zm-1.46-23q2.94-.2,9,4.86a28.88,28.88,0,0,1,3.76,3.77q2.32,2.8,2.44,4.62t-2,2.08a8.38,8.38,0,0,1-4.39-1.38,22.55,22.55,0,0,1-3.84-2.7q-6.54-5.72-6.79-9.42-.11-1.7,1.77-1.83Zm-.18.9q-1,.06-.92.88.16,2.46,7.12,8a38.82,38.82,0,0,0,5,3.47,6.08,6.08,0,0,0,2.51,1q1-.06.89-1.22-.11-1.61-2.45-4.23a30.4,30.4,0,0,0-9.24-6.94,7.17,7.17,0,0,0-3-1Zm.84-23q2.95.1,8.48,5.73a28.88,28.88,0,0,1,3.36,4.13q2,3,2,4.84t-2.16,1.88a8.38,8.38,0,0,1-4.23-1.82A22.55,22.55,0,0,1,86.11,294Q80.18,287.69,80.3,284q.06-1.7,1.94-1.64Zm-.27.87q-1,0-1,.79-.08,2.46,6.28,8.67a38.82,38.82,0,0,0,4.68,4,6.08,6.08,0,0,0,2.39,1.27q1,0,1-1.12.05-1.61-2-4.45a30.4,30.4,0,0,0-8.5-7.83A7.17,7.17,0,0,0,82,283.22Zm3.15-22.83q2.92.39,7.86,6.56a28.88,28.88,0,0,1,2.93,4.45q1.72,3.21,1.47,5T95,278.06a8.38,8.38,0,0,1-4-2.23,22.55,22.55,0,0,1-3.22-3.41q-5.27-6.91-4.77-10.59.23-1.69,2.1-1.44Zm-.36.84q-1-.13-1.07.68-.33,2.44,5.38,9.26a38.83,38.83,0,0,0,4.25,4.41,6.08,6.08,0,0,0,2.25,1.5q1,.13,1.12-1,.22-1.6-1.55-4.63a30.4,30.4,0,0,0-7.67-8.65,7.17,7.17,0,0,0-2.7-1.56Zm5.46-22.4q2.87.69,7.15,7.32a28.88,28.88,0,0,1,2.46,4.72q1.38,3.37,1,5.14t-2.5,1.4a8.39,8.39,0,0,1-3.78-2.63,22.56,22.56,0,0,1-2.86-3.72q-4.54-7.41-3.67-11,.4-1.66,2.23-1.22Zm-.44.8q-.95-.23-1.14.57Q88.06,242.6,93,250a38.83,38.83,0,0,0,3.78,4.82,6.08,6.08,0,0,0,2.09,1.72q.95.23,1.22-.9.38-1.57-1.08-4.76a30.4,30.4,0,0,0-6.75-9.38,7.17,7.17,0,0,0-2.53-1.83Zm7.72-21.73q2.78,1,6.37,8a28.88,28.88,0,0,1,2,4.95q1,3.49.42,5.21t-2.63,1.14a8.39,8.39,0,0,1-3.49-3,22.56,22.56,0,0,1-2.46-4q-3.76-7.84-2.53-11.34.57-1.61,2.34-1Zm-.52.75q-.92-.32-1.19.45-.82,2.32,3.39,10.16a38.83,38.83,0,0,0,3.27,5.18,6.09,6.09,0,0,0,1.9,1.93q.92.32,1.3-.77.53-1.52-.58-4.85a30.41,30.41,0,0,0-5.76-10A7.17,7.17,0,0,0,97,218.65Zm9.89-20.83q2.67,1.26,5.52,8.62a28.89,28.89,0,0,1,1.45,5.12q.67,3.58-.11,5.23t-2.73.87a8.39,8.39,0,0,1-3.17-3.34,22.56,22.56,0,0,1-2-4.23q-2.94-8.18-1.36-11.54.73-1.54,2.43-.74Zm-.6.69q-.88-.41-1.23.33-1,2.23,2.34,10.45a38.84,38.84,0,0,0,2.73,5.49,6.09,6.09,0,0,0,1.7,2.11q.88.41,1.37-.63.69-1.46-.09-4.88a30.41,30.41,0,0,0-4.71-10.56,7.17,7.17,0,0,0-2.11-2.31Zm12-19.71q2.53,1.52,4.62,9.14a28.89,28.89,0,0,1,.93,5.24q.3,3.63-.64,5.19t-2.8.59a8.39,8.39,0,0,1-2.81-3.65,22.56,22.56,0,0,1-1.61-4.41q-2.09-8.43-.18-11.61a1.59,1.59,0,0,1,2.49-.49Zm-.66.63q-.83-.5-1.26.2-1.27,2.11,1.27,10.63a38.84,38.84,0,0,0,2.16,5.74,6.09,6.09,0,0,0,1.47,2.27q.83.5,1.43-.49.83-1.38.41-4.87a30.41,30.41,0,0,0-3.61-11,7.17,7.17,0,0,0-1.86-2.51ZM131.43,161q2.36,1.77,3.67,9.56a28.89,28.89,0,0,1,.39,5.31q-.07,3.64-1.16,5.1t-2.85.3a8.39,8.39,0,0,1-2.43-3.91,22.56,22.56,0,0,1-1.15-4.55q-1.23-8.6,1-11.57a1.59,1.59,0,0,1,2.53-.23Zm-.72.56q-.78-.58-1.27.07-1.48,2,.19,10.71a38.84,38.84,0,0,0,1.57,5.93,6.09,6.09,0,0,0,1.24,2.41q.78.58,1.47-.34,1-1.29.9-4.8a30.41,30.41,0,0,0-2.49-11.29,7.17,7.17,0,0,0-1.6-2.68Zm15.65-16.9q2.17,2,2.69,9.88a28.89,28.89,0,0,1-.14,5.32q-.43,3.61-1.67,5t-2.86,0a8.39,8.39,0,0,1-2-4.14,22.56,22.56,0,0,1-.69-4.64q-.36-8.68,2.15-11.41a1.59,1.59,0,0,1,2.54,0Zm-.78.48q-.72-.66-1.27-.05-1.67,1.81-.89,10.67a38.84,38.84,0,0,0,1,6.05,6.09,6.09,0,0,0,1,2.52q.72.66,1.5-.19,1.09-1.19,1.38-4.69A30.41,30.41,0,0,0,146.91,148a7.17,7.17,0,0,0-1.32-2.83Zm17.27-15.24q2,2.21,1.69,10.1a28.89,28.89,0,0,1-.68,5.28q-.79,3.55-2.16,4.76t-2.85-.28a8.39,8.39,0,0,1-1.6-4.32,22.56,22.56,0,0,1-.22-4.69q.51-8.68,3.29-11.14a1.59,1.59,0,0,1,2.53.28Zm-.82.4q-.65-.73-1.26-.18-1.84,1.64-2,10.53a38.84,38.84,0,0,0,.35,6.12,6.09,6.09,0,0,0,.73,2.61q.65.73,1.51,0,1.21-1.07,1.84-4.52a30.41,30.41,0,0,0-.18-11.56,7.17,7.17,0,0,0-1-2.95Zm18.72-13.43q1.73,2.39.66,10.22a28.89,28.89,0,0,1-1.21,5.19q-1.15,3.45-2.62,4.52t-2.81-.56a8.39,8.39,0,0,1-1.15-4.46,22.56,22.56,0,0,1,.26-4.69q1.38-8.58,4.39-10.75,1.38-1,2.48.53Zm-.86.32q-.57-.79-1.24-.31-2,1.44-3,10.28a38.84,38.84,0,0,0-.27,6.12,6.09,6.09,0,0,0,.46,2.67q.57.79,1.51.11,1.31-.94,2.29-4.32a30.41,30.41,0,0,0,1-11.52,7.17,7.17,0,0,0-.73-3Zm20-11.47q1.48,2.55-.37,10.23a28.88,28.88,0,0,1-1.73,5q-1.49,3.32-3.07,4.23t-2.74-.84a8.39,8.39,0,0,1-.7-4.55,22.56,22.56,0,0,1,.73-4.64q2.24-8.4,5.46-10.25,1.47-.85,2.42.78ZM199,106q-.49-.84-1.2-.43-2.13,1.23-4,9.92a38.84,38.84,0,0,0-.89,6.06,6.09,6.09,0,0,0,.19,2.7q.49.84,1.49.26,1.4-.81,2.71-4.06a30.41,30.41,0,0,0,2.15-11.36A7.17,7.17,0,0,0,199,106ZM220,96.59q1.21,2.69-1.41,10.14a28.88,28.88,0,0,1-2.23,4.84q-1.82,3.15-3.48,3.9t-2.64-1.12a8.39,8.39,0,0,1-.23-4.6,22.56,22.56,0,0,1,1.19-4.54q3.08-8.12,6.47-9.65,1.55-.7,2.33,1Zm-.9.14q-.4-.89-1.15-.55-2.25,1-5,9.46a38.84,38.84,0,0,0-1.5,5.94,6.09,6.09,0,0,0-.08,2.71q.4.89,1.45.41,1.47-.66,3.11-3.77a30.41,30.41,0,0,0,3.29-11.08,7.17,7.17,0,0,0-.1-3.12Zm21.9-7.2q.93,2.8-2.44,9.94a28.88,28.88,0,0,1-2.71,4.58q-2.13,3-3.86,3.53t-2.51-1.38a8.39,8.39,0,0,1,.24-4.6,22.56,22.56,0,0,1,1.65-4.39q3.9-7.77,7.42-8.94,1.62-.54,2.21,1.25Zm-.91,0q-.31-.92-1.09-.67-2.34.78-6,8.9a38.84,38.84,0,0,0-2.09,5.76,6.09,6.09,0,0,0-.36,2.68q.31.92,1.4.56,1.53-.51,3.48-3.43a30.41,30.41,0,0,0,4.4-10.69,7.17,7.17,0,0,0,.22-3.12Zm22.52-4.92q.64,2.88-3.44,9.64a28.88,28.88,0,0,1-3.16,4.28q-2.42,2.72-4.2,3.11t-2.35-1.63a8.39,8.39,0,0,1,.7-4.55,22.56,22.56,0,0,1,2.09-4.2Q257,84,260.58,83.19q1.66-.37,2.07,1.47Zm-.91,0q-.21-1-1-.77-2.41.53-6.83,8.25a38.83,38.83,0,0,0-2.67,5.52,6.09,6.09,0,0,0-.63,2.63q.21,1,1.34.7,1.57-.35,3.81-3.06a30.41,30.41,0,0,0,5.47-10.19,7.17,7.17,0,0,0,.53-3.08ZM284.64,82q.34,2.93-4.4,9.24a28.88,28.88,0,0,1-3.58,3.94q-2.68,2.46-4.5,2.67T270,96a8.39,8.39,0,0,1,1.16-4.45,22.56,22.56,0,0,1,2.51-4q5.39-6.82,9.07-7.25,1.69-.2,1.91,1.68Zm-.9-.14q-.11-1-.93-.87-2.45.29-7.63,7.51A38.83,38.83,0,0,0,272,93.73a6.09,6.09,0,0,0-.9,2.56q.11,1,1.26.83,1.6-.19,4.1-2.65a30.4,30.4,0,0,0,6.47-9.58,7.17,7.17,0,0,0,.84-3Zm23-.29q0,3-5.31,8.75a28.88,28.88,0,0,1-4,3.56q-2.92,2.18-4.74,2.2t-2-2.07a8.39,8.39,0,0,1,1.6-4.32,22.55,22.55,0,0,1,2.89-3.7q6-6.24,9.76-6.3,1.7,0,1.73,1.86Zm-.89-.23q0-1-.84-1-2.46,0-8.35,6.7A38.83,38.83,0,0,0,293,92a6.09,6.09,0,0,0-1.15,2.45q0,1,1.17,1,1.61,0,4.34-2.23a30.4,30.4,0,0,0,7.4-8.88,7.17,7.17,0,0,0,1.14-2.91Zm22.94,2q-.25,2.94-6.15,8.18a28.88,28.88,0,0,1-4.29,3.15q-3.12,1.87-4.94,1.72t-1.76-2.26a8.39,8.39,0,0,1,2-4.13,22.55,22.55,0,0,1,3.25-3.39q6.64-5.61,10.34-5.29,1.7.14,1.54,2Zm-.86-.32q.08-1-.74-1-2.45-.21-9,5.84a38.83,38.83,0,0,0-4.19,4.47,6.09,6.09,0,0,0-1.39,2.33q-.08,1,1.07,1.07,1.61.14,4.55-1.78a30.4,30.4,0,0,0,8.25-8.09A7.17,7.17,0,0,0,328,83.05Zm22.64,4.33q-.55,2.9-7,7.51a28.87,28.87,0,0,1-4.59,2.7q-3.29,1.55-5.09,1.21t-1.53-2.42a8.39,8.39,0,0,1,2.44-3.91,22.55,22.55,0,0,1,3.57-3q7.17-4.9,10.82-4.22,1.67.31,1.33,2.17Zm-.82-.4q.18-1-.63-1.11-2.42-.46-9.52,4.9a38.83,38.83,0,0,0-4.62,4A6.09,6.09,0,0,0,333.39,97q-.18,1,1,1.17,1.58.3,4.7-1.31a30.4,30.4,0,0,0,9-7.22,7.17,7.17,0,0,0,1.7-2.62Zm22.09,6.62q-.84,2.83-7.68,6.77a28.87,28.87,0,0,1-4.84,2.21q-3.43,1.2-5.18.69t-1.27-2.57a8.39,8.39,0,0,1,2.82-3.64,22.55,22.55,0,0,1,3.87-2.66q7.64-4.15,11.19-3.09,1.63.48,1.1,2.29Zm-.78-.48q.28-.93-.51-1.17-2.36-.7-10,3.9a38.82,38.82,0,0,0-5,3.53,6.09,6.09,0,0,0-1.83,2q-.28.93.83,1.26,1.55.46,4.81-.83a30.4,30.4,0,0,0,9.72-6.26,7.17,7.17,0,0,0,2-2.43Zm21.3,8.84q-1.12,2.73-8.33,5.95a28.87,28.87,0,0,1-5,1.71q-3.54.85-5.23.15t-1-2.68a8.39,8.39,0,0,1,3.18-3.33,22.55,22.55,0,0,1,4.12-2.25q8-3.35,11.45-1.93,1.58.65.86,2.39Zm-.72-.56q.37-.9-.39-1.21Q389,99.24,381,103a38.82,38.82,0,0,0-5.34,3,6.08,6.08,0,0,0-2,1.8q-.37.9.7,1.34,1.49.61,4.87-.33a30.39,30.39,0,0,0,10.31-5.23,7.17,7.17,0,0,0,2.2-2.22Zm20.28,11q-1.39,2.6-8.89,5.07a28.87,28.87,0,0,1-5.19,1.19q-3.61.48-5.21-.38t-.72-2.77a8.39,8.39,0,0,1,3.5-3,22.55,22.55,0,0,1,4.32-1.82q8.32-2.51,11.59-.76,1.5.8.61,2.47Zm-.66-.63q.46-.86-.26-1.25-2.17-1.16-10.56,1.8a38.82,38.82,0,0,0-5.62,2.44,6.09,6.09,0,0,0-2.19,1.58q-.46.86.56,1.4,1.42.76,4.88.17a30.39,30.39,0,0,0,10.79-4.16,7.17,7.17,0,0,0,2.41-2Zm19.06,12.95q-1.65,2.45-9.36,4.14a28.86,28.86,0,0,1-5.28.66q-3.64.12-5.15-.91t-.44-2.83a8.39,8.39,0,0,1,3.78-2.62,22.55,22.55,0,0,1,4.49-1.38q8.53-1.66,11.6.42a1.59,1.59,0,0,1,.36,2.52Zm-.6-.7q.54-.81-.14-1.27-2-1.38-10.68.72a38.82,38.82,0,0,0-5.84,1.86,6.08,6.08,0,0,0-2.34,1.35q-.54.81.41,1.45,1.34.9,4.84.66a30.39,30.39,0,0,0,11.15-3,7.17,7.17,0,0,0,2.6-1.73Zm17.66,14.8q-1.89,2.27-9.73,3.18a28.86,28.86,0,0,1-5.32.12q-3.63-.25-5-1.42t-.15-2.86a8.39,8.39,0,0,1,4-2.23,22.54,22.54,0,0,1,4.6-.92q8.65-.79,11.5,1.58a1.59,1.59,0,0,1,.1,2.54Zm-.52-.75q.62-.75,0-1.27-1.89-1.58-10.7-.36a38.81,38.81,0,0,0-6,1.26,6.08,6.08,0,0,0-2.47,1.11q-.62.75.27,1.49,1.24,1,4.75,1.14a30.39,30.39,0,0,0,11.4-1.91,7.17,7.17,0,0,0,2.76-1.46ZM463,154.51q-2.11,2.07-10,2.18a28.87,28.87,0,0,1-5.31-.42q-3.59-.62-4.86-1.92t.14-2.86a8.38,8.38,0,0,1,4.23-1.81,22.54,22.54,0,0,1,4.67-.45q8.69.08,11.29,2.73a1.59,1.59,0,0,1-.15,2.54Zm-.44-.8q.69-.68.12-1.27Q460.91,150.69,452,151a38.81,38.81,0,0,0-6.09.65,6.08,6.08,0,0,0-2.57.86q-.69.68.11,1.51,1.13,1.15,4.61,1.61a30.39,30.39,0,0,0,11.53-.75,7.17,7.17,0,0,0,2.89-1.18Zm14.34,18q-2.3,1.84-10.17,1.17a28.87,28.87,0,0,1-5.24-.95q-3.51-1-4.65-2.4t.42-2.83a8.38,8.38,0,0,1,4.39-1.37,22.55,22.55,0,0,1,4.69,0q8.64,1,11,3.85a1.59,1.59,0,0,1-.41,2.51Zm-.36-.84q.76-.61.25-1.25-1.54-1.92-10.41-2.5a38.81,38.81,0,0,0-6.13,0,6.08,6.08,0,0,0-2.64.59q-.76.61,0,1.51,1,1.26,4.42,2.07a30.39,30.39,0,0,0,11.55.41,7.17,7.17,0,0,0,3-.88Zm12.45,19.39q-2.48,1.6-10.23.14a28.87,28.87,0,0,1-5.12-1.47q-3.39-1.32-4.38-2.85t.71-2.77a8.38,8.38,0,0,1,4.51-.92,22.55,22.55,0,0,1,4.67.5q8.49,1.82,10.51,4.94.92,1.43-.66,2.45Zm-.27-.87q.82-.53.37-1.22-1.34-2.07-10.11-3.53a38.81,38.81,0,0,0-6.1-.58,6.08,6.08,0,0,0-2.69.33q-.82.53-.19,1.5.88,1.35,4.19,2.51A30.39,30.39,0,0,0,485.6,190a7.17,7.17,0,0,0,3.07-.57ZM499.1,210q-2.63,1.34-10.2-.9a28.87,28.87,0,0,1-4.94-2q-3.24-1.66-4.07-3.28t1-2.69a8.38,8.38,0,0,1,4.58-.46,22.55,22.55,0,0,1,4.59,1q8.27,2.67,10,6,.78,1.52-.9,2.38Zm-.18-.9q.87-.44.49-1.17-1.12-2.19-9.7-4.54a38.82,38.82,0,0,0-6-1.2,6.08,6.08,0,0,0-2.71.05q-.87.44-.34,1.47.73,1.44,3.92,2.92a30.39,30.39,0,0,0,11.23,2.73,7.17,7.17,0,0,0,3.11-.26Zm8.28,21.52q-2.75,1.07-10.05-1.94a28.87,28.87,0,0,1-4.71-2.48q-3.05-2-3.71-3.68t1.25-2.58a8.38,8.38,0,0,1,4.6,0,22.55,22.55,0,0,1,4.47,1.43q8,3.5,9.3,7,.62,1.59-1.14,2.27Zm-.09-.91q.91-.35.61-1.12-.89-2.3-9.19-5.5a38.82,38.82,0,0,0-5.86-1.8A6.08,6.08,0,0,0,490,221q-.91.35-.49,1.43.58,1.5,3.6,3.3a30.39,30.39,0,0,0,10.9,3.86,7.17,7.17,0,0,0,3.12.06Zm6,22.25q-2.84.78-9.8-3a28.87,28.87,0,0,1-4.44-2.94q-2.84-2.28-3.32-4t1.51-2.43a8.38,8.38,0,0,1,4.58.48,22.55,22.55,0,0,1,4.3,1.88q7.55,4.3,8.54,7.87.45,1.64-1.37,2.14Zm0-.92q.94-.26.72-1.05-.65-2.38-8.58-6.41a38.82,38.82,0,0,0-5.64-2.39,6.08,6.08,0,0,0-2.66-.5q-.94.26-.63,1.37.43,1.55,3.24,3.65a30.39,30.39,0,0,0,10.45,5,7.17,7.17,0,0,0,3.1.38Zm3.75,22.75q-2.91.49-9.45-3.93a28.87,28.87,0,0,1-4.11-3.38q-2.59-2.56-2.89-4.36t1.75-2.27a8.38,8.38,0,0,1,4.51.94,22.55,22.55,0,0,1,4.09,2.31q7.08,5,7.69,8.7.28,1.68-1.58,2Zm.09-.91q1-.16.82-1-.41-2.43-7.88-7.25a38.82,38.82,0,0,0-5.37-3,6.08,6.08,0,0,0-2.6-.77q-1,.16-.77,1.3.27,1.59,2.85,4a30.4,30.4,0,0,0,9.89,6,7.17,7.17,0,0,0,3,.69Zm1.42,23q-2.94.19-9-4.87a28.87,28.87,0,0,1-3.75-3.78q-2.32-2.81-2.44-4.63t2-2.08a8.38,8.38,0,0,1,4.39,1.39,22.55,22.55,0,0,1,3.83,2.71q6.53,5.73,6.77,9.44.11,1.7-1.77,1.82Zm.19-.9q1-.06.92-.88-.16-2.46-7.11-8a38.82,38.82,0,0,0-5-3.48,6.08,6.08,0,0,0-2.51-1q-1,.06-.9,1.22.1,1.61,2.44,4.23a30.4,30.4,0,0,0,9.23,7,7.17,7.17,0,0,0,3,1Z" style="fill:none;stroke:#c0b68d;stroke-width:4.899556636810303px"/><path d="M526,300c0,124.75-101.25,226-226,226S74,424.75,74,300,175.25,74,300,74,526,175.25,526,300Z" style="fill:none"/><path d="M74.35,203.68a19.67,19.67,0,0,1,12.12,9.37,19.94,19.94,0,0,1-7.86,26.76,19.82,19.82,0,0,1-15.18,1.24,19.83,19.83,0,0,1-12.08-9.31,18.7,18.7,0,0,1-1.56-15A18.46,18.46,0,0,1,59.2,205a19.76,19.76,0,0,1,15.14-1.31Zm-2.46,7.6A28.4,28.4,0,0,0,60,210q-6.75,1-8.55,7.18a10,10,0,0,0,1.82,9.31q3.34,4.34,12.68,7.09,8.76,2.57,13.92.73a9.82,9.82,0,0,0,6.61-6.78,9.21,9.21,0,0,0-1.85-9.21q-3.88-4.45-12.69-7Zm28.37-39,7.41,7.09L94,206.88l-.54-.27a7.93,7.93,0,0,0,1.11-3.84q-.18-2-2.87-3.32L67.07,187.23q-2.84-1.41-4.72-.08a10.66,10.66,0,0,0-2.12,3.16L59.7,190l8.14-16.41.54.27a8.55,8.55,0,0,0-1.14,3.77q.25,2.08,2.9,3.39l24.4,12.09a6.45,6.45,0,0,0,2.72.92q1.08-.08,2-1.94l2.7-5.44,1.21-2.69a8.57,8.57,0,0,0-.39-7.46,16.46,16.46,0,0,0-2.8-4Zm21.12-30.44q5.64,4.05,3.26,11.49a22.83,22.83,0,0,1-3,5.42l-1.36,2-9.89,13.77-.49-.35.29-.4a12.13,12.13,0,0,0,1.12-1.75,4,4,0,0,0,.21-2.07,4.77,4.77,0,0,0-2.13-3.22L87.26,150.78q-2.84-2-5-.58L80,152.64l-.62-.45,9.85-13.72A19.21,19.21,0,0,1,96.49,132a8.45,8.45,0,0,1,9.23.64,8.57,8.57,0,0,1,3.42,5.55,11.08,11.08,0,0,1-1,5.37l.27.19a12.89,12.89,0,0,1,5.21-3.32,8.55,8.55,0,0,1,7.71,1.36Zm-20-3.42A8,8,0,0,0,95,136.66a9.25,9.25,0,0,0-5.5,4,15,15,0,0,0-1.34,2.61l12.66,9.09a26.23,26.23,0,0,0,1.82-2.26l.41-.58q4.72-6.57-1.63-11.13Zm15.44,9.54q-4.53-3.25-9.74.07a11.24,11.24,0,0,0-3.15,3l-1.52,2.68,13.24,9.5a15.81,15.81,0,0,0,3-2.92q3.67-5.11.63-9.78a9.77,9.77,0,0,0-2.42-2.54Zm.56-41.68a8.62,8.62,0,0,0-2.29,3.4q-.44,2.06,1.75,4.12l20,18.83q2.31,2.17,4.57,1.37a9.84,9.84,0,0,0,2.79-2.25l.44.41-12.5,13.31-.44-.41a8.17,8.17,0,0,0,2.14-3.32q.44-2-1.75-4l-20-18.83q-2.43-2.28-4.57-1.37a9.38,9.38,0,0,0-2.75,2.21l-.44-.41L117,105.84Zm19-17.07a8.62,8.62,0,0,0-2.61,3.16q-.64,2,1.34,4.27l18.11,20.7q2.09,2.39,4.41,1.81a9.84,9.84,0,0,0,3-2l.4.45-13.75,12-.4-.45a8.17,8.17,0,0,0,2.45-3.09q.63-1.93-1.35-4.2l-18.11-20.7q-2.2-2.51-4.41-1.81a9.38,9.38,0,0,0-3,1.93l-.4-.45L136,88.73Zm49.32-.68,2.91,9.83-25.52,17.12-.34-.5a7.93,7.93,0,0,0,2.87-2.78q.83-1.81-.85-4.3L149.51,85q-1.77-2.63-4.06-2.41a10.66,10.66,0,0,0-3.41,1.69l-.34-.5L156.93,73.6l.34.5a8.55,8.55,0,0,0-2.86,2.71q-.81,1.93.83,4.38l15.17,22.61a6.45,6.45,0,0,0,1.9,2.15q1,.47,2.7-.69l5-3.38,2.39-1.74a8.57,8.57,0,0,0,3.36-6.67,16.46,16.46,0,0,0-.47-4.82Zm47.87-20,.58,9.68-29,11.22-.22-.56a7.78,7.78,0,0,0,3.36-2.06q1.26-1.6.17-4.41l-9.92-25.65q-1.2-3.11-3.48-3.23a9.07,9.07,0,0,0-3.49.82l-.22-.56L220,42.73l3.48,7.33-.61.24a7.12,7.12,0,0,0-4.1-3.63,8,8,0,0,0-5.24.56L203.75,51l5.52,14.28,8.16-3.16a9,9,0,0,0,2.64-1.37,3.45,3.45,0,0,0,1.34-2.45,3.8,3.8,0,0,0,0-1.18,8.21,8.21,0,0,0-.58-2.41l.56-.22,4.77,12.34-.56.22q-1.24-3.21-3.34-3.93-1.43-.5-5.2,1l-7.19,2.78,4.91,12.7a5.81,5.81,0,0,0,1.54,2.63q.9.65,2.83-.1l4.95-1.91A36.05,36.05,0,0,0,228,78.49a8.5,8.5,0,0,0,3.16-2.75,16.08,16.08,0,0,0,2-7.16Zm43.59.26-11.37,2.28L249.54,55.95l-3.36.79,2.48,12.33q.62,3.11,2.93,3.76a9.84,9.84,0,0,0,3.58-.22l.12.59-17.42,3.5-.12-.59a8.32,8.32,0,0,0,3.72-1.47q1.51-1.36.92-4.31l-5.42-27q-.62-3.11-2.82-3.78a11.72,11.72,0,0,0-3.69.24l-.12-.59,17.48-3.51q8.47-1.7,12.83,2.22a8.64,8.64,0,0,1,2.81,4.84q1.32,6.59-6.85,11.14l8.55,8.15,3.8,3.09a12.51,12.51,0,0,0,8.14,3ZM256.16,44.19a8.24,8.24,0,0,0-3.38-5.46,7.88,7.88,0,0,0-6.24-1.09,20.12,20.12,0,0,0-3.84,1.44l3.22,16,1.53-.14a12.31,12.31,0,0,0,6.88-3.5,7.88,7.88,0,0,0,1.83-7.28Zm61.91,24-16.29.27v-.6q4.16-.07,4.11-2.8a7.67,7.67,0,0,0-.93-3.1l-3.06-6.46-14.6.24-2.9,6.5a8.47,8.47,0,0,0-.82,3.29q0,2.62,4.14,2.56v.6l-10.93.18v-.6a3.75,3.75,0,0,0,2.77-1.3,9.1,9.1,0,0,0,2.24-3.48l14.73-34.81h.71L313.07,64q1.76,3.69,5,3.64ZM301,53.49l-6.38-15-6.47,15.26Zm72.67,26.14-19.9-4.7.14-.59q3.41.8,3.87-1.17.2-.85-1-3.1l-.6-1-8.23-14.87-3.1,13.15q-.73,3.09,1,4.63a9.84,9.84,0,0,0,3.35,1.3l-.14.59-17.67-4.17.14-.59a8.27,8.27,0,0,0,4,.22q1.89-.62,2.58-3.55L344.47,39q.78-3.3-1-4.62A10.25,10.25,0,0,0,340,33l.14-.59,17.67,4.17-.14.59a9.09,9.09,0,0,0-4-.28q-1.86.74-2.54,3.61L348,53.7l6.81-3.62,5.12-3.34q2.13-1.41,2.75-1.88a17.89,17.89,0,0,0,2.56-2.26,3.14,3.14,0,0,0,.65-1.31q.48-2-2.88-2.81l.14-.59L376.52,41l-.14.59a7.88,7.88,0,0,0-4.6.21,46.89,46.89,0,0,0-6.21,3.7l-4.77,3.09Q358.9,50,355,52.41l8.76,16.45a32.46,32.46,0,0,0,3.84,6.36A11.43,11.43,0,0,0,373.79,79ZM409,85.3l-6.38,7.31L374,80.26l.24-.55a7.78,7.78,0,0,0,3.85.89q2-.26,3.21-3l10.92-25.25q1.32-3.06-.21-4.74a9.07,9.07,0,0,0-3.07-1.86l.24-.55,28.16,12.17L414.69,65l-.6-.26a7.12,7.12,0,0,0-.38-5.47A8,8,0,0,0,409.58,56l-9.64-4.17-6.08,14.05,8,3.47a9,9,0,0,0,2.84.87,3.45,3.45,0,0,0,2.67-.81,3.8,3.8,0,0,0,.84-.83,8.21,8.21,0,0,0,1.28-2.13l.55.24-5.25,12.15-.55-.24q1.37-3.16.38-5.14-.66-1.36-4.38-3l-7.08-3.06L387.79,80a5.8,5.8,0,0,0-.74,3q.18,1.09,2.09,1.92L394,86.94a36,36,0,0,0,4,1.54,8.5,8.5,0,0,0,4.18.26A16.08,16.08,0,0,0,408.6,85Zm31.74,19.45-7.86,6.59L407,94.77l.32-.51a7.93,7.93,0,0,0,3.7,1.52q2,0,3.61-2.49l14.83-23.16q1.71-2.67.6-4.68A10.66,10.66,0,0,0,427.1,63l.32-.51,15.43,9.88-.32.51a8.55,8.55,0,0,0-3.62-1.54q-2.09,0-3.68,2.51L420.54,96.78a6.45,6.45,0,0,0-1.21,2.6q0,1.08,1.71,2.2l5.11,3.27,2.55,1.5a8.57,8.57,0,0,0,7.46.42,16.46,16.46,0,0,0,4.23-2.35Zm53,10.18-.36-.33q-3.69-3.42-7.18.35L474.95,127a28.75,28.75,0,0,1-5.73,5.05,11.32,11.32,0,0,1-9,1.38,18.17,18.17,0,0,1-8.11-4.61q-8.42-7.81-5.73-15.46a15.27,15.27,0,0,1,3-4.8l1.37-1.64L463.13,93.6q2.34-2.53,1.12-5.23a4,4,0,0,0-.9-1.36l-1-.89.48-.52L476.14,97.9l-.37.4-.4-.37q-2.81-2.6-5.12-1.47a9.32,9.32,0,0,0-2.1,1.78L454.46,113q-5.43,5.85-3.18,11.15a11.64,11.64,0,0,0,2.82,3.88q4.81,4.46,9.66,3.66a10.42,10.42,0,0,0,3.63-1.1,18.39,18.39,0,0,0,3.45-2.92l2.68-2.73,10.82-11.67q1.9-2,1.73-3.39a5.64,5.64,0,0,0-1.18-2.51l-1.15-1.66.37-.4,9.94,9.22Zm3.12,50.26-9.66,3.45-18.49-24.54.48-.36a7.93,7.93,0,0,0,2.94,2.72q1.85.73,4.25-1.08l22-16.55q2.53-1.91,2.19-4.18a10.66,10.66,0,0,0-1.88-3.31l.48-.36,11,14.63-.48.36a8.55,8.55,0,0,0-2.86-2.71q-2-.71-4.33,1.07L480.69,150.7a6.45,6.45,0,0,0-2,2q-.41,1,.84,2.66l3.65,4.85,1.86,2.29a8.57,8.57,0,0,0,6.84,3,16.46,16.46,0,0,0,4.79-.73ZM508.34,208l-7.48-14.48.53-.28q1.91,3.69,4.34,2.44a7.67,7.67,0,0,0,2.37-2.21l4.43-5.61-6.7-13-7.11.29a8.47,8.47,0,0,0-3.32.73q-2.33,1.2-.45,4.85l-.53.28-5-9.72.53-.28a3.75,3.75,0,0,0,2.4,1.9,9.1,9.1,0,0,0,4.11.46l37.73-2.26.33.63-24.58,29.87q-2.53,3.21-1,6.08Zm5.58-21.84,10.65-12.39-16.54,1Zm42.83,52.26-.14-.47q-1.43-4.82-6.36-3.36l-15.78,4.67a28.75,28.75,0,0,1-7.51,1.42,11.32,11.32,0,0,1-8.48-3.42,18.17,18.17,0,0,1-4.62-8.1q-3.26-11,3-16.22a15.27,15.27,0,0,1,5.05-2.58l2-.71,17.46-5.17q3.3-1,3.63-3.93a4,4,0,0,0-.08-1.63l-.37-1.26.68-.2,5.14,17.35-.52.16-.16-.52q-1.09-3.67-3.66-3.88a9.32,9.32,0,0,0-2.71.46L524,216.73q-7.66,2.27-8.42,8a11.64,11.64,0,0,0,.44,4.77q1.86,6.29,6.44,8.07a10.42,10.42,0,0,0,3.69.9,18.39,18.39,0,0,0,4.45-.75l3.7-1,15.26-4.52q2.67-.79,3.22-2a5.64,5.64,0,0,0,.27-2.76q0-.73-.14-2l.52-.16,3.85,13Z" style="fill:#41689b"/><path d="M75.8,456.7,69.5,447l8-20.65-2-2.81L65,430.4q-2.64,1.72-2.4,4.09a9.8,9.8,0,0,0,1.52,3.23l-.5.33L54,423.24l.5-.33a8.28,8.28,0,0,0,2.73,2.9q1.82.89,4.32-.74l22.93-14.94q2.64-1.72,2.46-4a11.66,11.66,0,0,0-1.58-3.32l.5-.33,9.68,14.86q4.69,7.2,2.67,12.68a8.6,8.6,0,0,1-3.44,4.39q-5.61,3.65-12.82-2.24l-4.39,10.91-1.45,4.65a12.45,12.45,0,0,0,.18,8.65Zm15-28.53a8.2,8.2,0,0,0,3.8-5.14,7.84,7.84,0,0,0-1.29-6.17,20,20,0,0,0-2.74-3l-13.63,8.88.69,1.37a12.25,12.25,0,0,0,5.77,5.07,7.84,7.84,0,0,0,7.41-1Zm15.5,49.38-8.87,3.81L77.11,458l.45-.39a7.74,7.74,0,0,0,3.07,2.45q1.92.64,4.18-1.33l20.66-17.95q2.51-2.18,1.85-4.34a9,9,0,0,0-1.95-3l.45-.39,20,23-5.69,5.73-.43-.49a7.08,7.08,0,0,0,2-5.07,8,8,0,0,0-2.29-4.71l-6.85-7.89-11.5,10,5.71,6.57a9,9,0,0,0,2.17,2,3.43,3.43,0,0,0,2.75.42,3.78,3.78,0,0,0,1.11-.38,8.17,8.17,0,0,0,2.06-1.36l.39.45L105.35,470l-.39-.45q2.59-2.25,2.55-4.45,0-1.5-2.65-4.55l-5-5.79L89.6,463.65A5.78,5.78,0,0,0,87.66,466q-.31,1.06,1,2.62l3.46,4a35.87,35.87,0,0,0,2.91,3.1,8.45,8.45,0,0,0,3.64,2,16,16,0,0,0,7.37-.56Zm37.19,8.82a9,9,0,0,1-7.95,3.19,14,14,0,0,1-8-3.78,30,30,0,0,1-4.75-5.47l-8.51,9.55q-2.24,2.52-1.32,4.51a9.08,9.08,0,0,0,2.27,2.68l-.4.45-13.2-11.77.4-.45a7.7,7.7,0,0,0,3.4,2.08q1.95.35,3.94-1.88l18.21-20.43q2.1-2.36,1.32-4.51a10,10,0,0,0-2.36-2.75l.4-.45,13.89,12.38a17.75,17.75,0,0,1,1.56,1.68,14.77,14.77,0,0,1,3.39,7.4,9.13,9.13,0,0,1-2.3,7.57Zm-5.42-5.12a9.48,9.48,0,0,0,2.73-6.17,7.73,7.73,0,0,0-2.89-6,17.25,17.25,0,0,0-3.31-2L124,478.94a16.18,16.18,0,0,0,2.8,3.81,6.67,6.67,0,0,0,5.89,1.9,9.8,9.8,0,0,0,5.35-3.39ZM183.61,501l-.41-.27q-4.18-2.76-7,1.51l-9,13.66a28.61,28.61,0,0,1-4.81,5.89,11.26,11.26,0,0,1-8.65,2.82,18.08,18.08,0,0,1-8.7-3.21q-9.53-6.3-8.13-14.25a15.2,15.2,0,0,1,2.2-5.2l1.08-1.83,10-15.11q1.89-2.86.25-5.31a4,4,0,0,0-1.11-1.19l-1.09-.72.39-.59,15,9.93-.3.45-.45-.3q-3.18-2.1-5.27-.61a9.28,9.28,0,0,0-1.77,2.09l-11,16.7q-4.38,6.63-1.32,11.46a11.59,11.59,0,0,0,3.39,3.35q5.45,3.6,10.07,2a10.37,10.37,0,0,0,3.39-1.67,18.29,18.29,0,0,0,2.91-3.42l2.19-3.12,8.73-13.21q1.53-2.31,1.15-3.61a5.62,5.62,0,0,0-1.56-2.27l-1.39-1.44.3-.45,11.26,7.44Zm16.49,37.36q-2.92,6.26-10.64,5.31a22.72,22.72,0,0,1-5.85-1.88l-2.19-1-15.29-7.13.25-.54.44.21a12.06,12.06,0,0,0,1.92.77,4,4,0,0,0,2.06-.18,4.74,4.74,0,0,0,2.75-2.68L185,506.63q1.47-3.16-.36-5l-2.8-1.72.32-.69,15.24,7.1a19.12,19.12,0,0,1,7.64,5.9,8.41,8.41,0,0,1,1.08,9.15,8.53,8.53,0,0,1-4.8,4.37,11,11,0,0,1-5.43.05l-.14.3a12.83,12.83,0,0,1,4.21,4.49,8.51,8.51,0,0,1,.09,7.79Zm-.33-20.15a8,8,0,0,0,.5-6.61,9.2,9.2,0,0,0-4.92-4.64,14.91,14.91,0,0,0-2.8-.82L186,520.17a26.1,26.1,0,0,0,2.54,1.37l.64.3q7.3,3.4,10.59-3.65ZM193.29,535q2.34-5-1.87-9.52a11.19,11.19,0,0,0-3.5-2.53l-2.9-1-6.85,14.7a15.74,15.74,0,0,0,3.4,2.37q5.67,2.64,9.68-1.19a9.72,9.72,0,0,0,2-2.83Zm41,14.56L228.45,558l-29.17-9.17.18-.57a7.89,7.89,0,0,0,3.95.5q1.92-.48,2.82-3.34l8.21-26.11q.95-3-.65-4.65a10.61,10.61,0,0,0-3.43-1.59l.18-.57,17.39,5.47-.18.57a8.5,8.5,0,0,0-3.88-.54q-2,.57-2.88,3.37l-8.13,25.85a6.42,6.42,0,0,0-.49,2.81q.24,1,2.21,1.67l5.76,1.81,2.84.78a8.53,8.53,0,0,0,7.27-1.54,16.38,16.38,0,0,0,3.45-3.36Zm25.55-23.42a8.58,8.58,0,0,0-4.08-.16q-2,.71-2.57,3.64l-5.44,26.82q-.63,3.09,1.24,4.58a9.79,9.79,0,0,0,3.37,1.18l-.12.59-17.81-3.61.12-.59a8.13,8.13,0,0,0,3.93.08q1.91-.67,2.51-3.6l5.44-26.82q.66-3.25-1.24-4.58a9.34,9.34,0,0,0-3.32-1.17l.12-.59,18,3.65Zm33.54,32.62q-6.55,8.54-16.9,7.61a20.21,20.21,0,0,1-13.87-6.81,18.76,18.76,0,0,1-4.5-14.5,19,19,0,0,1,7.52-13.86,20.84,20.84,0,0,1,15.24-4.32,23.4,23.4,0,0,1,8.83,2.65,8,8,0,0,0,1.7.53q1.46.13,2.31-2l.6.05-.16,12.77-.7-.06a14.06,14.06,0,0,0-2.85-7.19,12.8,12.8,0,0,0-9.3-4.71,12,12,0,0,0-11.12,4.63q-3.62,4.48-4.27,11.75-.8,9,4.07,14.35a12.77,12.77,0,0,0,8.85,4.23,15.72,15.72,0,0,0,7.63-1,17,17,0,0,0,6.16-4.69Zm54.15-15.12a19.58,19.58,0,0,1-4,14.73,19.84,19.84,0,0,1-27.58,3,21,21,0,0,1-3.06-28.13,18.61,18.61,0,0,1,13.22-7.21,18.37,18.37,0,0,1,14.36,4.16,19.67,19.67,0,0,1,7,13.4Zm-7.92.66a28.26,28.26,0,0,0-3.4-11.45q-3.54-5.79-9.87-5.09a10,10,0,0,0-7.85,5.25q-2.71,4.73-1.64,14.36,1,9,4.67,13.06a9.77,9.77,0,0,0,8.76,3.47,9.17,9.17,0,0,0,7.74-5.24q2.59-5.27,1.59-14.35Zm38-19.55-.53.14q-1.62-3.69-4.7-4.3a15.27,15.27,0,0,0-6.7.59l-9.59,2.46,3.81,14.86,7.27-1.86q3.53-.91,4.55-2,1.55-1.41.75-4.52l-.14-.53.74-.19,3.19,12.44-.74.19q-.74-2.9-2.24-3.7-1.68-1.09-6.27.09l-6.75,1.73,3.42,13.34q1,4.06,4.52,3.62a20,20,0,0,0,2.45-.52l.15.58-18,4.61-.15-.58a7.7,7.7,0,0,0,3.62-1.66q1.38-1.42.63-4.32l-6.8-26.51q-1-4-4.31-3.67a18.18,18.18,0,0,0-2.29.48l-.15-.58,31.78-8.15Zm40.94-15.11a9,9,0,0,1-.27,8.56,14,14,0,0,1-6.67,5.81,30,30,0,0,1-6.91,2.15l5.33,11.62q1.41,3.07,3.6,3a9.08,9.08,0,0,0,3.37-1l.25.54-16.08,7.37-.25-.54a7.7,7.7,0,0,0,3.27-2.28q1.1-1.64-.14-4.36l-11.4-24.88q-1.31-2.87-3.6-3a10,10,0,0,0-3.47,1.05l-.25-.54,16.92-7.75a17.75,17.75,0,0,1,2.17-.75,14.77,14.77,0,0,1,8.14-.14,9.13,9.13,0,0,1,6,5.15Zm-6.87,2.91a9.49,9.49,0,0,0-4.55-5,7.73,7.73,0,0,0-6.66.24,17.25,17.25,0,0,0-3.17,2.23L404,524.52a16.18,16.18,0,0,0,4.61-1,6.67,6.67,0,0,0,4.1-4.63,9.8,9.8,0,0,0-1-6.27Zm54.78-.81-13.68,8.71-.32-.5q3.49-2.22,2-4.52a7.64,7.64,0,0,0-2.4-2.15l-6-3.88-12.26,7.8.92,7a8.43,8.43,0,0,0,1,3.22q1.4,2.2,4.85,0l.32.5-9.18,5.84-.32-.5a3.73,3.73,0,0,0,1.67-2.55,9.05,9.05,0,0,0,.09-4.12l-5.62-37.19.6-.38,31.8,21.68q3.41,2.22,6.12.49Zm-22.14-3.58-13.24-9.44,2.45,16.31Zm42.42-26.75,4,9.39-23.3,19.8-.39-.46a7.89,7.89,0,0,0,2.53-3.08q.62-1.88-1.32-4.16L450.55,482.1q-2-2.4-4.28-1.93a10.61,10.61,0,0,0-3.18,2.06l-.39-.46L456.59,470l.39.46a8.5,8.5,0,0,0-2.52,3q-.59,2,1.32,4.24l17.55,20.65a6.42,6.42,0,0,0,2.12,1.91q1,.35,2.59-1l4.6-3.91,2.17-2a8.53,8.53,0,0,0,2.57-7,16.39,16.39,0,0,0-1-4.71Zm34.79-24.05-10.8,12.1-.45-.4q2.75-3.08.72-4.9a7.64,7.64,0,0,0-2.89-1.42l-6.79-2.12-9.67,10.84,2.8,6.51a8.43,8.43,0,0,0,1.86,2.82q1.95,1.74,4.67-1.31l.45.4L494.2,488l-.45-.4a3.73,3.73,0,0,0,.91-2.9,9.05,9.05,0,0,0-1-4l-15.51-34.27.47-.53,36.49,12.23q3.88,1.21,6-1.19ZM499.28,460,484,454.48l6.79,15Zm14.55-59.72-.27.41q-2.72,4.2,1.58,7l13.76,8.89a28.61,28.61,0,0,1,5.94,4.74,11.26,11.26,0,0,1,2.92,8.62,18.08,18.08,0,0,1-3.12,8.74q-6.2,9.6-14.16,8.28a15.2,15.2,0,0,1-5.22-2.14l-1.84-1.06-15.22-9.83q-2.88-1.86-5.32-.2a4,4,0,0,0-1.18,1.12l-.71,1.1-.59-.38,9.78-15.13.46.3-.3.46q-2.07,3.2-.56,5.28a9.27,9.27,0,0,0,2.11,1.75L518.7,439q6.67,4.31,11.47,1.19a11.59,11.59,0,0,0,3.32-3.43q3.54-5.48,1.92-10.09a10.37,10.37,0,0,0-1.71-3.37,18.29,18.29,0,0,0-3.45-2.88l-3.14-2.16-13.3-8.59q-2.33-1.51-3.62-1.11a5.61,5.61,0,0,0-2.26,1.59l-1.43,1.41-.46-.3L513.37,400Z" style="fill:#41689b"/></svg>