<svg xmlns="http://www.w3.org/2000/svg" xmlns:xlink="http://www.w3.org/1999/xlink" viewBox="0 0 354.33 481.89"><defs><clipPath id="a"><path d="M244.69,162a19.54,19.54,0,0,1-2.09.07c-15.41,0-51.18-7.92-64.93-19.73C163.2,153.26,126.84,162,111.73,162a9.77,9.77,0,0,1-2.09-.22c-.07,3.46.14,7.05.36,10.29a181.52,181.52,0,0,0,6.12,36.14,176.72,176.72,0,0,0,61,92.15,176.61,176.61,0,0,0,61-92.22,181.64,181.64,0,0,0,6.19-36.14C244.55,168.88,244.76,165.36,244.69,162Z" style="fill:none"/></clipPath></defs><title>Palestine</title><path d="M145.56,384.85l59.75,1-17.85-91.93L168,293.35Z" style="fill:#efb700;stroke:#2b2828;stroke-width:1.3px"/><path d="M230.44,276.72c3.53,5.9,22.75,29,22.75,29,4.54,12.6,21.81,23.68,21.81,23.68,1.8,8.78,20.52,21.74,20.52,21.74,4.68,12.24,24.55,23.76,24.55,23.76a113.37,113.37,0,0,0,24.69,25.48L331.87,116.12s-1.22-16.34-17.57-23.4-27,0-36.43,3.53-22.46,14-34,16.34S224,115,177.09,100.93c-46.79,14-55,14-66.66,11.66S85.74,99.77,76.31,96.25,56.44,85.66,40,92.72a29.28,29.28,0,0,0-17.57,23.4L9.57,400.4a111.15,111.15,0,0,0,24.55-25.48s20-11.52,24.69-23.76c0,0,18.72-13,20.52-21.74,0,0,17.28-11.09,21.74-23.68,0,0,19.29-23.11,22.82-29Z" style="fill:#efb700;stroke:#2b2828"/><path d="M320.06,374.92c10.08,15.55,24.69,25.48,24.69,25.48L331.87,116.12s-10.22-8.57-20-9.14v.14Z" style="fill:#2b2828;stroke:#2b2828"/><path d="M287.67,121.73c6.69-7.92,13.17-13.25,20.16-14.9l7.56,264.27a46.54,46.54,0,0,1-19.87-19.94Z" style="fill:#2b2828;stroke:#2b2828"/><path d="M275,329.42l-5.26-184,.94-1.44c5-4.25,9-8.49,13.17-17.49l.5-1.22c2.23,74.15,4.54,148.08,6.77,222.3C285.44,342.31,280.11,338.92,275,329.42Z" style="fill:#2b2828;stroke:#2b2828"/><path d="M253.19,305.66,248.58,156l.36-.65c6-1.22,10.65-1.66,15.84-5.33l.79-.43,5,175.51S260.38,321.86,253.19,305.66Z" style="fill:#2b2828;stroke:#2b2828"/><path d="M248.36,299.26l-3.82-133.83-.29-.65c-9.36,4.82-24.91,1.8-24.91,1.8l11.09,110.14C234,283.71,248.36,299.26,248.36,299.26Z" style="fill:#2b2828;stroke:#2b2828"/><path d="M34.12,374.92C24.19,390.47,9.57,400.4,9.57,400.4L22.46,116.12s10.22-8.57,19.87-9.14v.14Z" style="fill:#2b2828;stroke:#2b2828"/><path d="M66.66,121.73c-6.69-7.92-19.94-22.17-20.16-14.9q-3.89,132.5-7.77,265c7.92-5.76,16.7-13.68,20.08-20.66Z" style="fill:#2b2828;stroke:#2b2828"/><path d="M79.33,329.42l5.26-184-1-1.44c-5-4.25-9-8.49-13.1-17.49l-.58-1.22L62.77,348.06C68.82,343,73.43,339.86,79.33,329.42Z" style="fill:#2b2828;stroke:#2b2828"/><path d="M101.07,305.66,105.61,156l-.22-.65c-6-1.22-10.65-1.66-15.91-5.33l-.86-.43-5,175.51S93.95,321.86,101.07,305.66Z" style="fill:#2b2828;stroke:#2b2828"/><path d="M106,299.26l3.82-133.83.29-.65c9.36,4.82,24.91,1.8,24.91,1.8L123.89,276.72C120.37,283.71,106,299.26,106,299.26Z" style="fill:#2b2828;stroke:#2b2828"/><path d="M177.09,474.77c88.47,0,131.31-19.87,131.31-19.87L307.25,446s.72-.5,5.26-1.73c4.18-1.15,5.62-9.36,5.33-13-.36-3.24,2.88-11.37,4.61-12.81,0,0-7.34-2.59-9.93-5.62-4.25-4.68-8.49-9.36-15.19-5.83-2.59,1.37-1.15-10.87-1.15-10.87S255.85,416.17,177.31,415,58.17,396.23,58.17,396.23,59.61,408.46,57,407.1c-6.69-3.53-10.94,1.15-15.19,5.83-2.74,3-9.93,5.62-9.93,5.62,1.73,1.44,5,9.57,4.61,12.81-.29,3.6,1.15,11.81,5.33,13,4.54,1.22,5.26,1.73,5.26,1.73l-1.22,8.85S88.62,474.77,177.09,474.77Z" style="fill:#fff;stroke:#2b2828"/><path d="M228.06,229.86l44.56,159.31s-35.13,13-62.05,10.58L188.32,284.86Z" style="fill:#efb700;stroke:#2b2828"/><path d="M242.17,284.86s1.15,9.43-1.15,14.11c0,0-10.58-12.81-10.58-22.24" style="fill:none;stroke:#2b2828"/><path d="M222.3,286.15s2.23,17.49-4.68,23.4c0,0-15.26-14.11-13-21.16" style="fill:none;stroke:#2b2828"/><path d="M177.74,469.73c84.3,0,126.2-18.07,126.2-18.07l-1.15-8.21s1.37-1.44,5.69-2.38c3.82-.94,5.26-6.84,5-9.43-.29-2.38,2.59-10.73,5.11-11.66,0,0-6-.86-7.77-2.38-3.31-2.81-7.05-10.15-16.92-6-1.22.65-1.66-8.49-1.66-8.49s-39.59,19.29-114.39,18.36S63.28,404.29,63.28,404.29s1.44,7.63-1.15,6.77c-9.21-3.1-11.52,1.58-16.27,5.4-1.58,1.22-7.77,4-7.77,4,1.8,1.15,2.09,4.25,2.81,6.55.94,3.17-.72,10.15,2.59,12.31,2.38,1.44,8,3,8,3l-1.15,9.29S93.44,469.73,177.74,469.73Z" style="fill:#fff;stroke:#2b2828"/><path d="M203.51,297.82s-1.15,23.4-5.9,24.55c0,0-2.23-5.76-2.23-9.29" style="fill:none;stroke:#2b2828"/><path d="M254.48,325.89l-.58,4.75s-10.58-4.75-14-23.47" style="fill:none;stroke:#2b2828;stroke-width:1.3px"/><path d="M221.65,315.45c2.88,12.81,11.73,19.22,13.46,18.72,5.33-1.73,4.18-30.52,4.18-30.52" style="fill:none;stroke:#2b2828;stroke-width:1.3px"/><path d="M217.62,317.69s-2.38,25.84-7.05,28.22-13-23.54-13-23.54" style="fill:none;stroke:#2b2828;stroke-width:1.3px"/><path d="M235.12,340s-1.15,29.3-4.68,30.45-10.51-10.58-11.66-14.11" style="fill:none;stroke:#2b2828;stroke-width:1.3px"/><path d="M214.1,353s0,22.17-4.75,24.55l-4.68-9.36" style="fill:none;stroke:#2b2828;stroke-width:1.3px"/><path d="M265.57,374s0,14.11-3.53,15.19c-3.38,1.3-9.29-19.87-9.29-19.87" style="fill:none;stroke:#2b2828;stroke-width:1.3px"/><path d="M249.23,371.68s-2.38,22.17-7.05,23.4S228.06,377.51,229.36,374" style="fill:none;stroke:#2b2828;stroke-width:1.3px"/><path d="M228.06,384.56s-1,12-4.61,12.81c-4.68,1.22-11.73-5.83-12.89-12.81" style="fill:none;stroke:#2b2828;stroke-width:1.3px"/><path d="M257.43,338.85s1.22,24.55-3.53,25.77-14-8.28-16.41-16.41" style="fill:none;stroke:#2b2828;stroke-width:1.3px"/><path d="M299,385.64c2.38,3.46-1.15,8.21-2.88,10.58s-32.32,9.93-49.82,13c-21.24,3.53-49.31,5.4-57.52,6.41-4.68.58-7.56-3.53-7.56-8.13,0-6.55,5.26-7.7,8.21-7.7,0,0,3.46-.58,3.46,1.8,0,0,3-3,5.9-3s5.33,1.15,5.33,3.53c0,0,2.3-4.1,5.18-4.75s7.05,0,7.63,2.38a20.53,20.53,0,0,0,6.48-2.38c2.88-1.73,7-1.73,9.36.65a96.32,96.32,0,0,1,9.36-3c2.88-.58,8.78-1.73,9.43.58,0,0,1.73-4.68,4.68-5.18s9.93-3.53,12.81-.65c0,0,2.38-3.53,4.18-3.53s5.9-1.15,6.41.65a10.49,10.49,0,0,1,7.63-4.75C292.64,381.61,296.16,381.61,299,385.64Z" style="fill:#efb700;stroke:#2b2828"/><path d="M296.16,389.82c-1.15,1.73-3,5.83-.65,9.36s2.88,5.9,0,8.28c0,0,8.78-1.8,8.21-11.81S297.89,386.94,296.16,389.82Z" style="fill:#e7912d;stroke:#2b2828"/><path d="M242.82,397.38c-3.53.65-3.53,3.53-1.8,8.28s4.68,8.71,2.88,12.24c0,0,10-5.26,7.05-14S246.35,396.87,242.82,397.38Z" style="fill:#e7912d;stroke:#2b2828"/><path d="M189.48,405.08c-2.74-1.15-8.21,4.39-8.21,7.56,0,5.26,2.88,10.51,8.21,12.31,0,0-2.45-10.58,0-11.09S195.38,407.46,189.48,405.08Z" style="fill:#e7912d;stroke:#2b2828"/><path d="M287.31,382.19s-5.26,4.75-.58,6.48a12.77,12.77,0,0,1,5.26-1.22" style="fill:none;stroke:#2b2828"/><path d="M275,393.85s-4.68-1.15-5.9,1.22c0,0,2.38-4.61,0-5.26" style="fill:none;stroke:#2b2828"/><path d="M258,390.47s-3.53,3.38-.58,5.18c0,0,3.46-2.3,5.26-.58" style="fill:none;stroke:#2b2828"/><path d="M231.09,402.63s-9.93,0-9.93,2.45c0,0,4.68-8.21,2.3-7.7" style="fill:none;stroke:#2b2828"/><path d="M211.07,398s-3.53,2.88-1.73,5.9" style="fill:none;stroke:#2b2828"/><path d="M126.13,229.86,81.56,389.17s35.27,13,62.2,10.58L166,284.86Z" style="fill:#efb700;stroke:#2b2828"/><path d="M119.07,268.52s7.05-7.05,9.43-11.73c0,0-2.38,19.94,2.3,21.16s5.9-4.75,5.9-4.75" style="fill:none;stroke:#2b2828"/><path d="M112.09,284.86s-1.15,9.43,1.22,14.11c0,0,10.58-12.81,10.58-22.24" style="fill:none;stroke:#2b2828"/><path d="M132,286.15s-2.38,17.49,4.68,23.4c0,0,15.26-14.11,12.81-21.16" style="fill:none;stroke:#2b2828"/><path d="M150.82,297.82s1.15,23.4,5.76,24.55c0,0,2.38-5.76,2.38-9.29" style="fill:none;stroke:#2b2828"/><path d="M99.85,325.89l.5,4.75s10.58-4.75,14.11-23.47" style="fill:none;stroke:#2b2828"/><path d="M132.53,315.45c-2.88,12.81-11.66,19.22-13.46,18.72-5.26-1.73-4-30.52-4-30.52" style="fill:none;stroke:#2b2828"/><path d="M136.71,317.69s2.38,25.84,7.05,28.22,12.81-23.54,12.81-23.54" style="fill:none;stroke:#2b2828"/><path d="M119.07,340s1.3,29.3,4.82,30.45,10.44-10.58,11.66-14.11" style="fill:none;stroke:#2b2828"/><path d="M140.23,353s0,22.17,4.68,24.55l4.61-9.36" style="fill:none;stroke:#2b2828"/><path d="M88.62,374s0,14.11,3.53,15.19c3.53,1.3,9.43-19.87,9.43-19.87" style="fill:none;stroke:#2b2828"/><path d="M105.1,371.68s2.3,22.17,7,23.4,14-17.57,12.89-21.09" style="fill:none;stroke:#2b2828"/><path d="M126.13,384.56s1.15,12,4.68,12.81c4.75,1.22,11.81-5.83,13-12.81" style="fill:none;stroke:#2b2828"/><path d="M96.83,338.85s-1.15,24.55,3.53,25.77,14.11-8.28,16.49-16.41" style="fill:none;stroke:#2b2828"/><path d="M55.29,385.64c-2.38,3.46,1.15,8.21,2.88,10.58s32.25,9.93,49.82,13c21.24,3.53,49.31,5.4,57.45,6.41,4.61.58,7.63-3.53,7.63-8.13,0-6.55-5.26-7.7-8.21-7.7,0,0-3.46-.58-3.46,1.8,0,0-3-3-5.9-3s-5.33,1.15-5.33,3.53c0,0-2.3-4.1-5.26-4.75s-7.05,0-7.56,2.38a21.26,21.26,0,0,1-6.55-2.38c-2.88-1.73-6.91-1.73-9.29.65a93.07,93.07,0,0,0-9.43-3c-3-.58-8.71-1.73-9.36.58,0,0-1.73-4.68-4.68-5.18s-9.93-3.53-13-.65c0,0-2.23-3.53-4-3.53s-5.9-1.15-6.48.65A10.26,10.26,0,0,0,67,382.19C61.69,381.61,58.17,381.61,55.29,385.64Z" style="fill:#efb700;stroke:#2b2828"/><path d="M58.17,389.82c1.15,1.73,3,5.83.65,9.36s-3,5.9,0,8.28c0,0-8.78-1.8-8.21-11.81S56.44,386.94,58.17,389.82Z" style="fill:#e7912d;stroke:#2b2828"/><path d="M111.51,397.38c3.53.65,3.53,3.53,1.8,8.28s-4.68,8.71-2.88,12.24c0,0-10.08-5.26-7.05-14S108,396.87,111.51,397.38Z" style="fill:#e7912d;stroke:#2b2828"/><path d="M164.86,405.08c2.74-1.15,8.21,4.39,8.21,7.56,0,5.26-3,10.51-8.21,12.31,0,0,2.3-10.58,0-11.09S159,407.46,164.86,405.08Z" style="fill:#e7912d;stroke:#2b2828"/><path d="M67,382.19s5.26,4.75.58,6.48a12.77,12.77,0,0,0-5.26-1.22" style="fill:none;stroke:#2b2828"/><path d="M79.33,393.85s4.68-1.15,5.76,1.22c0,0-2.23-4.61,0-5.26" style="fill:none;stroke:#2b2828"/><path d="M96.32,390.47s3.53,3.38.5,5.18c0,0-3.53-2.3-5.18-.58" style="fill:none;stroke:#2b2828"/><path d="M123.25,402.63s9.93,0,9.93,2.45c0,0-4.68-8.21-2.38-7.7" style="fill:none;stroke:#2b2828"/><path d="M143.11,398s3.53,2.88,1.8,5.9" style="fill:none;stroke:#2b2828"/><path d="M163.63,294.94l-17,90.71,7.05,11.23,9.43-10.58,9.36-83.8L169,296.09Z" style="fill:#2b2828;stroke:#2b2828"/><path d="M190.56,294.94l17,90.71-5.18,11.23L191.2,386.29l-9.36-83.8,3.53-6.41Z" style="fill:#2b2828;stroke:#2b2828"/><path d="M167.16,386.29l9.93,14.11L187,386.94l-9.29-96.54Z" style="fill:#2b2828;stroke:#2b2828"/><path d="M208.84,132.6c1.73.07-2.38-9.43-2.38-9.43,4.61,4.75,22.24,5.9,22.24,5.9-10.58-4.68-21.16-39.88-19.87-68,1.08-28.22-4-39.23-8.21-43.41-5.26-5.26-22.24-9.93-33.47-10.58-6.34-.29-5.26,4.75-5.26,4.75-11.73-3-23.4-4.1-28.72-.58-5,3.31-6,19.87-2.38,17,8.78-7.05,16.49-.65,21.74,7.05,4.68,6.69,4.39,25.77-2.38,48-7.05,23.47-26.28,46.86-26.28,46.86,10.44,0,25.12-9.36,25.12-9.36l-3.53,14.61A90,90,0,0,0,165.43,122l10.51,11.09c3.53-4.68,10.58-11.09,10.58-11.09S195.38,131.38,208.84,132.6Z" style="fill:#efb700;stroke:#2b2828"/><path d="M166,65.15s-5.9,43.41-17,55.72Z" style="fill:none;stroke:#2b2828"/><path d="M175.37,64s-2.3,43.91-9.93,58Z" style="fill:none;stroke:#2b2828"/><path d="M183.64,65.8s0,48,2.88,56.22Z" style="fill:none;stroke:#2b2828"/><path d="M194.08,68.17s2.38,40.39,12.38,55Z" style="fill:none;stroke:#2b2828"/><path d="M155.35,44.13c-.5-3.82-1.44-6.84-2.81-8.78-5.26-7.7-13-14.11-21.74-7.05,0,0,3-9.36,9.43-9.65,5-.29,16.27,3.74,26.2,20.73,0,0-7.34-1.66-9.14-.14C154,42.18,155.35,44.13,155.35,44.13Z" style="fill:#2b2828;stroke:#2b2828;stroke-width:1.3px"/><path d="M129.87,16.77c.72-2.38,1.87-4.54,3.31-5.47,5.33-3.53,17-2.38,28.72.58,0,0-1.08-5,5.26-4.75,11.23.65,28.22,5.33,33.47,10.58a22.47,22.47,0,0,1,4,6.34h-.22c-2.59-3.67-9.93-3.46-11.73-3.24A45.14,45.14,0,0,0,184.36,22c-1.73.43-4.46.94-5.9,2.09-1.15.94-2.09,4.32-3.82,4.32-2.81,0-2.59-.72-3.31-1.51-.94-1.15-1.44-2.81-2.38-2.74-3,.5-7.56-1.73-13.46-6.41s-8.21-5.83-15.91-5.26-9.93,4.82-9.93,4.82Z" style="fill:#2b2828;stroke:#2b2828;stroke-width:1.3px"/><path d="M173.21,23.61a3.07,3.07,0,0,0,3.1-3.1,3,3,0,0,0-3.1-3.1,3.13,3.13,0,0,0-3.17,3.1A3.18,3.18,0,0,0,173.21,23.61Z" style="fill:#efb700;stroke:#2b2828;stroke-width:1.3px"/><path d="M234.4,270.89s-7.05-7.05-9.43-11.73c0,0,2.38,19.94-2.23,21.16s-5.9-4.75-5.9-4.75" style="fill:none;stroke:#2b2828"/><path d="M177.09,308.61c81-62.27,74.08-153.55,74.08-153.55a31.54,31.54,0,0,1-6.34.65c-17,0-57.52-9.72-66.95-22.1-10.15,11.23-51.54,22.1-68.39,22.1a30.5,30.5,0,0,1-6.34-.65S96.11,246.34,177.09,308.61Z" style="fill:#fff;stroke:#2b2828"/><path d="M244.69,162a19.54,19.54,0,0,1-2.09.07c-15.41,0-51.18-7.92-64.93-19.73C163.2,153.26,126.84,162,111.73,162a9.77,9.77,0,0,1-2.09-.22c-.07,3.46.14,7.05.36,10.29a181.52,181.52,0,0,0,6.12,36.14,176.72,176.72,0,0,0,61,92.15,176.61,176.61,0,0,0,61-92.22,181.64,181.64,0,0,0,6.19-36.14C244.55,168.88,244.76,165.36,244.69,162Z" style="fill:#fff"/><path d="M244.69,162a19.54,19.54,0,0,1-2.09.07c-15.41,0-51.18-7.92-64.93-19.73C163.2,153.26,126.84,162,111.73,162a9.77,9.77,0,0,1-2.09-.22c-.07,3.46.14,7.05.36,10.29a181.52,181.52,0,0,0,6.12,36.14,176.72,176.72,0,0,0,61,92.15,176.61,176.61,0,0,0,61-92.22,181.64,181.64,0,0,0,6.19-36.14C244.55,168.88,244.76,165.36,244.69,162Z" style="fill:none"/><path d="M235.91,423a2.45,2.45,0,0,0,.86,4.82,2.34,2.34,0,0,0,1.87-2.88A2.39,2.39,0,0,0,235.91,423Z" style="fill:#131516"/><path d="M231.16,439.78c.65,3.6,2.66,4.25,6.69,3.6a7.87,7.87,0,0,1,1.22-.22l1.15-.22.58,3.1c-5.18.86-10.44,1.73-15.69,2.45L222,425.17l-2.59,2.23a3.64,3.64,0,0,0-1,3l2.23,18.65c-2.88.29-5.76.65-8.64.86l-.79-8.42a28,28,0,0,0-3.46,2.3,2.62,2.62,0,0,0-.65,2.16c.07.79.29,2.52.43,4.32-1.08.14-2.09.22-3.24.29l-.43-7c-2.23,1.3-3.38,1.94-3.53,2.09a3,3,0,0,0-.65,2.45c0,.36.07,1.22.22,2.66-1.08.07-2.16.14-3.31.14l-.22-5-2.88,1.44c-1.37.65-1.44,1.3-1.37,3.67-2.88.07-5.83.14-8.71.14v-5.11a2.7,2.7,0,0,0-2.45-3c-5.54-.14-11-.29-16.56-.58a5.08,5.08,0,0,0-4.39,1.87l1.37-17.64c-1.94.94-2.88,1.44-3,1.44a3.63,3.63,0,0,0-1.58,2.66l-1.73,19c-3.1-.29-6.12-.65-9.21-1l.94-7.77a20.52,20.52,0,0,0-4.32,2.52q-.54.76-1.08,4.75c-4.1-.65-8.21-1.22-12.31-1.94l.86-4.9-2.81.72a5,5,0,0,0-2.52,1.3,5.71,5.71,0,0,0-1.08,2.81c-.07.29-.43,2.74-.5,3-.65,3.1-1.87,4.9-5.26,4.18-4.82-1.08-4.1-4.1-3.67-8.78a3.23,3.23,0,0,0-2.52,1.58,7.24,7.24,0,0,0-1.37,2.81,6.21,6.21,0,0,0,1.58,5.83,10.31,10.31,0,0,0,5.76,3.17,9.06,9.06,0,0,0,6.91-1.3,8.08,8.08,0,0,0,3.74-5.47c3.82.65,7.7,1.22,11.59,1.8s7.77,1,11.73,1.44,7.77.65,11.66.94,7.85.43,11.81.5,7.85.14,11.73.14,7.85-.22,11.81-.36,7.77-.43,11.73-.72,7.77-.79,11.73-1.22,7.7-1,11.59-1.58,7.77-1.37,11.66-2.09c1.08-.22,1.44-1.37,1-3.46L243.18,431c-.58,1.44-2.16,2.38-4.9,2.88-.36.07-.72.14-1,.22a8.12,8.12,0,0,0-1,.14,9.45,9.45,0,0,0-3.89,1.37A4.27,4.27,0,0,0,231.16,439.78Zm4.18-.72a1.55,1.55,0,0,1,1.22-1.58l2.59-.43.5,2.52-2.74.5A1.36,1.36,0,0,1,235.33,439.06Zm-56.66,12.09c-6.41-.14-12.74-.43-19.15-.86l.29-3.74c5.54.36,11,.65,16.56.79,1.51.07,2.3.65,2.3,1.66Z" style="fill:#131516"/><path d="M122,434.38a2.46,2.46,0,0,0-3,1.94,2.5,2.5,0,0,0,4.9,1A2.46,2.46,0,0,0,122,434.38Z" style="fill:#131516"/><path d="M145.13,457.56a2.47,2.47,0,0,0-2.88,2.16,2.65,2.65,0,0,0,5.26.58A2.62,2.62,0,0,0,145.13,457.56Z" style="fill:#131516"/><path d="M138,456.62a2.52,2.52,0,0,0-3,2.09,2.49,2.49,0,0,0,2.3,2.81,2.48,2.48,0,1,0,.65-4.9Z" style="fill:#131516"/><g style="clip-path:url(#a)"><path d="M154.85,288.53s-51.47-67.81-48.16-129.36l47.15-.07Z" style="fill:#00873b"/><path d="M200.42,290.19s51.4-67.74,48.09-129.29l-47.15.5Z" style="fill:#131516"/><path d="M106.69,159.17s43.55-2.66,68.25-23.25c0,0,47.3,30.38,73.57,25l-73.57,48.59Z" style="fill:#d82624"/></g></svg>