<svg xmlns="http://www.w3.org/2000/svg" xmlns:xlink="http://www.w3.org/1999/xlink" viewBox="0 0 560 335"><defs><linearGradient id="a" x1="322.16" y1="503.54" x2="294.66" y2="468.91" gradientTransform="matrix(1, 0, 0, -1, 0, 632.28)" gradientUnits="userSpaceOnUse"><stop offset="0"/><stop offset="1" stop-opacity="0"/></linearGradient><linearGradient id="b" x1="323.34" y1="504.68" x2="297.22" y2="485.97" xlink:href="#a"/><linearGradient id="c" x1="361.55" y1="513.67" x2="407.09" y2="513.67" xlink:href="#a"/><linearGradient id="d" x1="359.42" y1="508.36" x2="403.56" y2="508.36" xlink:href="#a"/><linearGradient id="e" x1="353.77" y1="503.77" x2="393.66" y2="503.77" xlink:href="#a"/><linearGradient id="f" x1="346.34" y1="496.89" x2="373.51" y2="496.89" xlink:href="#a"/><linearGradient id="g" x1="341.75" y1="491.6" x2="364.67" y2="491.6" xlink:href="#a"/><linearGradient id="h" x1="341.75" y1="487.93" x2="355.12" y2="487.93" xlink:href="#a"/><linearGradient id="i" x1="336.09" y1="484.2" x2="349.82" y2="484.2" xlink:href="#a"/><linearGradient id="j" x1="334.32" y1="478.57" x2="346.99" y2="478.57" xlink:href="#a"/><linearGradient id="k" x1="332.91" y1="473.47" x2="343.45" y2="473.47" xlink:href="#a"/><linearGradient id="l" x1="330.43" y1="467.6" x2="340.98" y2="467.6" xlink:href="#a"/><linearGradient id="m" x1="324.07" y1="460" x2="339.56" y2="460" xlink:href="#a"/><linearGradient id="n" x1="321.59" y1="452.56" x2="335.67" y2="452.56" xlink:href="#a"/><linearGradient id="o" x1="317" y1="447.06" x2="330.02" y2="447.06" xlink:href="#a"/><linearGradient id="p" x1="314.17" y1="441.96" x2="326.13" y2="441.96" xlink:href="#a"/><linearGradient id="q" x1="308.51" y1="438.61" x2="320.47" y2="438.61" xlink:href="#a"/><linearGradient id="r" x1="303.92" y1="435.98" x2="311.28" y2="435.98" xlink:href="#a"/><linearGradient id="s" x1="297.55" y1="434.51" x2="301.73" y2="434.51" xlink:href="#a"/><linearGradient id="t" x1="291.9" y1="432.72" x2="293.49" y2="432.72" xlink:href="#a"/><linearGradient id="u" x1="367.2" y1="521.09" x2="416.99" y2="521.09" xlink:href="#a"/><linearGradient id="v" x1="-335.85" y1="503.54" x2="-363.35" y2="468.91" gradientTransform="translate(-117.26 632.28) rotate(180)" xlink:href="#a"/><linearGradient id="w" x1="-334.67" y1="504.68" x2="-360.79" y2="485.97" gradientTransform="translate(-117.26 632.28) rotate(180)" xlink:href="#a"/><linearGradient id="x" x1="-296.47" y1="513.67" x2="-250.92" y2="513.67" gradientTransform="translate(-117.26 632.28) rotate(180)" xlink:href="#a"/><linearGradient id="y" x1="-298.59" y1="508.36" x2="-254.46" y2="508.36" gradientTransform="translate(-117.26 632.28) rotate(180)" xlink:href="#a"/><linearGradient id="z" x1="-304.25" y1="503.77" x2="-264.36" y2="503.77" gradientTransform="translate(-117.26 632.28) rotate(180)" xlink:href="#a"/><linearGradient id="aa" x1="-311.67" y1="496.89" x2="-284.51" y2="496.89" gradientTransform="translate(-117.26 632.28) rotate(180)" xlink:href="#a"/><linearGradient id="ab" x1="-316.27" y1="491.6" x2="-293.35" y2="491.6" gradientTransform="translate(-117.26 632.28) rotate(180)" xlink:href="#a"/><linearGradient id="ac" x1="-316.27" y1="487.93" x2="-302.89" y2="487.93" gradientTransform="translate(-117.26 632.28) rotate(180)" xlink:href="#a"/><linearGradient id="ad" x1="-321.92" y1="484.2" x2="-308.2" y2="484.2" gradientTransform="translate(-117.26 632.28) rotate(180)" xlink:href="#a"/><linearGradient id="ae" x1="-323.69" y1="478.57" x2="-311.02" y2="478.57" gradientTransform="translate(-117.26 632.28) rotate(180)" xlink:href="#a"/><linearGradient id="af" x1="-325.11" y1="473.47" x2="-314.56" y2="473.47" gradientTransform="translate(-117.26 632.28) rotate(180)" xlink:href="#a"/><linearGradient id="ag" x1="-327.58" y1="467.6" x2="-317.03" y2="467.6" gradientTransform="translate(-117.26 632.28) rotate(180)" xlink:href="#a"/><linearGradient id="ah" x1="-333.94" y1="460" x2="-318.45" y2="460" gradientTransform="translate(-117.26 632.28) rotate(180)" xlink:href="#a"/><linearGradient id="ai" x1="-336.42" y1="452.56" x2="-322.34" y2="452.56" gradientTransform="translate(-117.26 632.28) rotate(180)" xlink:href="#a"/><linearGradient id="aj" x1="-341.02" y1="447.06" x2="-327.99" y2="447.06" gradientTransform="translate(-117.26 632.28) rotate(180)" xlink:href="#a"/><linearGradient id="ak" x1="-343.84" y1="441.96" x2="-331.88" y2="441.96" gradientTransform="translate(-117.26 632.28) rotate(180)" xlink:href="#a"/><linearGradient id="al" x1="-349.5" y1="438.61" x2="-337.54" y2="438.61" gradientTransform="translate(-117.26 632.28) rotate(180)" xlink:href="#a"/><linearGradient id="am" x1="-354.1" y1="435.98" x2="-346.73" y2="435.98" gradientTransform="translate(-117.26 632.28) rotate(180)" xlink:href="#a"/><linearGradient id="an" x1="-360.46" y1="434.51" x2="-356.28" y2="434.51" gradientTransform="translate(-117.26 632.28) rotate(180)" xlink:href="#a"/><linearGradient id="ao" x1="-366.12" y1="432.72" x2="-364.52" y2="432.72" gradientTransform="translate(-117.26 632.28) rotate(180)" xlink:href="#a"/><linearGradient id="ap" x1="-290.81" y1="521.09" x2="-241.02" y2="521.09" gradientTransform="translate(-117.26 632.28) rotate(180)" xlink:href="#a"/><linearGradient id="aq" x1="254.78" y1="149.81" x2="268.86" y2="149.81" gradientTransform="matrix(1, 0, 0, -1, 0, 336)" gradientUnits="userSpaceOnUse"><stop offset="0" stop-opacity="0"/><stop offset="1"/></linearGradient><linearGradient id="ar" x1="257.25" y1="141.84" x2="264.62" y2="141.84" xlink:href="#aq"/><linearGradient id="as" x1="257.61" y1="133.09" x2="267.8" y2="133.09" xlink:href="#aq"/><linearGradient id="at" x1="262.56" y1="126.45" x2="270.63" y2="126.45" xlink:href="#aq"/><linearGradient id="au" x1="275.29" y1="149.52" x2="286.54" y2="149.52" gradientTransform="matrix(1, 0, 0, -1, 0, 336)" xlink:href="#a"/><linearGradient id="av" x1="269.63" y1="142.45" x2="279.47" y2="142.45" gradientTransform="matrix(1, 0, 0, -1, 0, 336)" xlink:href="#a"/><linearGradient id="aw" x1="275.64" y1="138.13" x2="282.65" y2="138.13" gradientTransform="matrix(1, 0, 0, -1, 0, 336)" xlink:href="#a"/><linearGradient id="ax" x1="277.05" y1="130.25" x2="283.36" y2="130.25" gradientTransform="matrix(1, 0, 0, -1, 0, 336)" xlink:href="#a"/><linearGradient id="ay" x1="268.57" y1="121.12" x2="274.87" y2="121.12" gradientTransform="matrix(1, 0, 0, -1, 0, 336)" xlink:href="#a"/><linearGradient id="az" x1="271.74" y1="211.06" x2="279.11" y2="211.06" gradientTransform="matrix(1, 0, 0, -1, 0, 336)" xlink:href="#a"/><linearGradient id="ba" x1="273.16" y1="206.81" x2="280.17" y2="206.81" gradientTransform="matrix(1, 0, 0, -1, 0, 336)" xlink:href="#a"/><linearGradient id="bb" x1="271.39" y1="202.16" x2="280.87" y2="202.16" gradientTransform="matrix(1, 0, 0, -1, 0, 336)" xlink:href="#a"/><linearGradient id="bc" x1="275.63" y1="197.18" x2="285.82" y2="197.18" gradientTransform="matrix(1, 0, 0, -1, 0, 336)" xlink:href="#a"/><linearGradient id="bd" x1="268.56" y1="195.09" x2="274.86" y2="195.09" gradientTransform="matrix(1, 0, 0, -1, 0, 336)" xlink:href="#a"/><linearGradient id="be" x1="268.91" y1="191.15" x2="278.05" y2="191.15" gradientTransform="matrix(1, 0, 0, -1, 0, 336)" xlink:href="#a"/><linearGradient id="bf" x1="261.84" y1="218.35" x2="275.57" y2="218.35" xlink:href="#aq"/><linearGradient id="bg" x1="257.6" y1="211.19" x2="265.32" y2="211.19" xlink:href="#aq"/><linearGradient id="bh" x1="264.67" y1="214.22" x2="273.8" y2="214.22" xlink:href="#aq"/><linearGradient id="bi" x1="259.37" y1="206.98" x2="267.09" y2="206.98" xlink:href="#aq"/><linearGradient id="bj" x1="266.44" y1="208.91" x2="270.97" y2="208.91" xlink:href="#aq"/><linearGradient id="bk" x1="264.67" y1="199.32" x2="272.04" y2="199.32" xlink:href="#aq"/><linearGradient id="bl" x1="259.72" y1="202.38" x2="268.5" y2="202.38" xlink:href="#aq"/><linearGradient id="bm" x1="260.08" y1="196.48" x2="266.02" y2="196.48" xlink:href="#aq"/><linearGradient id="bn" x1="259.37" y1="191.88" x2="266.73" y2="191.88" xlink:href="#aq"/><linearGradient id="bo" x1="265.02" y1="187.23" x2="272.04" y2="187.23" xlink:href="#aq"/></defs><title>Papua_New_Guinea</title><path d="M134.48,227.46,1.39,234.63,126,242.46a22.44,22.44,0,0,1,8.48-15" style="fill:#4d4948;fill-rule:evenodd"/><polygon points="410.46 228.76 432.64 223.22 431.66 219.79 460.04 227.46 454.66 220.44 467.38 222.89 483.53 227.62 477.33 219.14 505.87 227.78 499.51 219.14 523.33 227.94 517.45 220.28 538.98 228.6 555.29 230.88 537.03 234.96 516.8 243.44 522.67 234.96 499.02 243.44 505.06 235.77 478.15 243.11 482.88 236.26 453.84 243.44 459.55 235.77 430.85 243.28 435.9 236.75 432.8 238.87 413.23 235.77 408.83 228.92 410.46 228.76" style="fill:#fff;fill-rule:evenodd"/><path d="M341.07,54.89Zm0,0s41.14,11.67,64,52.74c11.07,60.2,1.16,109.23,1.16,109.23C410.37,157.81,386,98.28,386,98.28c-4.06-7.62-32.86-40.46-68.09-35.57" style="fill:#8f5444;fill-rule:evenodd"/><path d="M341.07,54.89Zm0,0s41.14,11.67,64,52.74c11.07,60.2,1.16,109.23,1.16,109.23C410.37,157.81,386,98.28,386,98.28c-4.06-7.62-32.86-40.46-68.09-35.57" style="fill:none;stroke:#000;stroke-miterlimit:2.613126039505005;stroke-width:1.9762617613494395px"/><path d="M278.69,90.77c-32,42.41-3.26,18.92,15.33-6.85s45.41-26,51.87-26.42c6.22-.44,45,8.81,56.43,45.67,0,0,8.5,15.42,16.12,95.47,5-37.83-7-98.33-7-98.33-27.76-57.48-64.95-53.89-64.95-53.89S310.66,48.36,278.69,90.77Z" style="fill:#8f5444;fill-rule:evenodd"/><path d="M278.69,90.77c-32,42.41-3.26,18.92,15.33-6.85s45.41-26,51.87-26.42c6.22-.44,45,8.81,56.43,45.67,0,0,8.5,15.42,16.12,95.47,5-37.83-7-98.33-7-98.33-27.76-57.48-64.95-53.89-64.95-53.89S310.66,48.36,278.69,90.77Z" style="fill:none;stroke:#000;stroke-miterlimit:2.613126039505005;stroke-width:1.9762617613494395px"/><path d="M303.56,211.8Zm0,0c6.52,55.78-49.26,117.76-49.26,117.76,46.65-16.64,60.35-99.17,59-120.37" style="fill:#8f5444;fill-rule:evenodd"/><path d="M303.56,211.8Zm0,0c6.52,55.78-49.26,117.76-49.26,117.76,46.65-16.64,60.35-99.17,59-120.37" style="fill:none;stroke:#000;stroke-miterlimit:2.613126039505005;stroke-width:1.9762617613494395px"/><path d="M373.46,228.85c4.84-28.6,2.08-48,2.08-48-8.48-52.85-16.15-21-16.15-21l1.26,68.23c-4.89,34.58-14.35,75.35-14.35,75.35C362,283.56,373.46,228.85,373.46,228.85Z" style="fill:#8f5444;fill-rule:evenodd"/><path d="M373.46,228.85c4.84-28.6,2.08-48,2.08-48-8.48-52.85-16.15-21-16.15-21l1.26,68.23c-4.89,34.58-14.35,75.35-14.35,75.35C362,283.56,373.46,228.85,373.46,228.85Z" style="fill:none;stroke:#000;stroke-miterlimit:2.613126039505005;stroke-width:1.9762617613494395px"/><path d="M276.16,89.47c-5.22,46.65,0,37.84-3.91-11.42S330,2.7,330,2.7,279.42,38.25,276.16,89.47Z" style="fill:#8f5444;fill-rule:evenodd"/><path d="M276.16,89.47c-5.22,46.65,0,37.84-3.91-11.42S330,2.7,330,2.7,279.42,38.25,276.16,89.47Z" style="fill:none;stroke:#000;stroke-miterlimit:2.613126039505005;stroke-width:1.9762617613494395px"/><path d="M290.51,100.88c-10.44,9.13-42.08,18.59-1.3-6.85s76.54,2.61,76.54,2.61,36.44,75.8,14.63,129.44C378.53,138.43,339.1,98.36,339.1,98.36s-9.77-6.94-19.88-6C319.22,92.4,301,91.75,290.51,100.88Z" style="fill:#8f5444;fill-rule:evenodd"/><path d="M290.51,100.88c-10.44,9.13-42.08,18.59-1.3-6.85s76.54,2.61,76.54,2.61,36.44,75.8,14.63,129.44C378.53,138.43,339.1,98.36,339.1,98.36s-9.77-6.94-19.88-6C319.22,92.4,301,91.75,290.51,100.88Z" style="fill:none;stroke:#000;stroke-miterlimit:2.613126039505005;stroke-width:1.9762617613494395px"/><path d="M283.34,92.4Zm0,0c18.59-18.59,49.26-22.84,49.26-22.84,7.18,0,37.19,2,53.17,30,0,0,22.6,76.8,6.38,125.35C396.3,180.64,373,97.5,373,97.5c-10.74-19.45-42.71-19.12-42.71-19.12-10.44-1.3-39.47,11.09-42.73,18.92" style="fill:#8f5444;fill-rule:evenodd"/><path d="M283.34,92.4Zm0,0c18.59-18.59,49.26-22.84,49.26-22.84,7.18,0,37.19,2,53.17,30,0,0,22.6,76.8,6.38,125.35C396.3,180.64,373,97.5,373,97.5c-10.74-19.45-42.71-19.12-42.71-19.12-10.44-1.3-39.47,11.09-42.73,18.92" style="fill:none;stroke:#000;stroke-miterlimit:2.613126039505005;stroke-width:1.9762617613494395px"/><path d="M282.52,78.21Zm0,0c37.19-53.5,66.38-46.49,66.38-46.49s49.58,1,72.42,70.14c0,0,3.51,4.13,7.73,67-5.54-49.82-16.11-67.65-16.11-67.65-23.26-58.09-64.36-59.39-64.36-59.39s-37,1.14-62.63,40" style="fill:#8f5444;fill-rule:evenodd"/><path d="M282.52,78.21Zm0,0c37.19-53.5,66.38-46.49,66.38-46.49s49.58,1,72.42,70.14c0,0,3.51,4.13,7.73,67-5.54-49.82-16.11-67.65-16.11-67.65-23.26-58.09-64.36-59.39-64.36-59.39s-37,1.14-62.63,40" style="fill:none;stroke:#000;stroke-miterlimit:2.613126039505005;stroke-width:1.9762617613494395px"/><path d="M275.34,88.16Zm0,0c18.76-73.89,68.34-74.05,71.93-74.05,43.18,0,75,53.17,75,53.17C363.62,7.47,313.37,5.23,280,91" style="fill:#8f5444;fill-rule:evenodd"/><path d="M275.34,88.16Zm0,0c18.76-73.89,68.34-74.05,71.93-74.05,43.18,0,75,53.17,75,53.17C363.62,7.47,313.37,5.23,280,91" style="fill:none;stroke:#000;stroke-miterlimit:2.613126039505005;stroke-width:1.9762617613494395px"/><path d="M360.31,229.08l1.61-37.37-.69-22.14-1.61-10.38-7.38,2.31-1.85,14.07L349,180.18c.23,1.15,1.85,31.37-2.54,49.82,0,0-6.38,43.12-17.47,83.57C329,313.58,349.22,282.58,360.31,229.08Z" style="fill:#8f5444;fill-rule:evenodd"/><path d="M360.31,229.08l1.61-37.37-.69-22.14-1.61-10.38-7.38,2.31-1.85,14.07L349,180.18c.23,1.15,1.85,31.37-2.54,49.82,0,0-6.38,43.12-17.47,83.57C329,313.58,349.22,282.58,360.31,229.08Z" style="fill:none;stroke:#000;stroke-miterlimit:2.613126039505005;stroke-width:1.9762617613494395px"/><path d="M342.78,230.24c3.69-13.84,1.61-40.6,1.61-40.6l-10.84,13.84c3.19,37.66-8.52,76.15-18.9,112.05C335.2,288.13,342.78,230.24,342.78,230.24Z" style="fill:#8f5444;fill-rule:evenodd"/><path d="M342.78,230.24c3.69-13.84,1.61-40.6,1.61-40.6l-10.84,13.84c3.19,37.66-8.52,76.15-18.9,112.05C335.2,288.13,342.78,230.24,342.78,230.24Z" style="fill:none;stroke:#000;stroke-miterlimit:2.613126039505005;stroke-width:1.9762617613494395px"/><path d="M330.33,205.78a75.48,75.48,0,0,1-8.3,3.46s4,44.63-20.09,105.31C319.2,296.63,334,242.51,330.33,205.78Z" style="fill:#8f5444;fill-rule:evenodd"/><path d="M330.33,205.78a75.48,75.48,0,0,1-8.3,3.46s4,44.63-20.09,105.31C319.2,296.63,334,242.51,330.33,205.78Z" style="fill:none;stroke:#000;stroke-miterlimit:2.613126039505005;stroke-width:1.9762617613494395px"/><path d="M309.8,210.86l8.3-2.08c2.34,39-5.84,79.42-32.81,109.68C298.24,280.2,312.84,247.33,309.8,210.86Z" style="fill:#8f5444;fill-rule:evenodd"/><path d="M309.8,210.86l8.3-2.08c2.34,39-5.84,79.42-32.81,109.68C298.24,280.2,312.84,247.33,309.8,210.86Z" style="fill:none;stroke:#000;stroke-miterlimit:2.613126039505005;stroke-width:1.9762617613494395px"/><path d="M202,54.89Zm0,0s-41.14,11.67-64,52.74c-11.07,60.2-1.16,109.23-1.16,109.23-4.15-59.05,20.21-118.57,20.21-118.57,4.06-7.62,32.86-40.46,68.09-35.57" style="fill:#8f5444;fill-rule:evenodd"/><path d="M202,54.89Zm0,0s-41.14,11.67-64,52.74c-11.07,60.2-1.16,109.23-1.16,109.23-4.15-59.05,20.21-118.57,20.21-118.57,4.06-7.62,32.86-40.46,68.09-35.57" style="fill:none;stroke:#000;stroke-miterlimit:2.613126039505005;stroke-width:1.9762617613494395px"/><path d="M264.39,90.77c32,42.41,3.26,18.92-15.33-6.85S203.65,58,197.19,57.5c-6.22-.44-45,8.81-56.43,45.67,0,0-8.5,15.42-16.12,95.47-5-37.83,7-98.33,7-98.33,27.76-57.48,64.95-53.89,64.95-53.89S232.42,48.36,264.39,90.77Z" style="fill:#8f5444;fill-rule:evenodd"/><path d="M264.39,90.77c32,42.41,3.26,18.92-15.33-6.85S203.65,58,197.19,57.5c-6.22-.44-45,8.81-56.43,45.67,0,0-8.5,15.42-16.12,95.47-5-37.83,7-98.33,7-98.33,27.76-57.48,64.95-53.89,64.95-53.89S232.42,48.36,264.39,90.77Z" style="fill:none;stroke:#000;stroke-miterlimit:2.613126039505005;stroke-width:1.9762617613494395px"/><path d="M239.52,211.8Zm0,0c-6.52,55.78,49.26,117.76,49.26,117.76-46.65-16.64-60.35-99.17-59-120.37" style="fill:#8f5444;fill-rule:evenodd"/><path d="M239.52,211.8Zm0,0c-6.52,55.78,49.26,117.76,49.26,117.76-46.65-16.64-60.35-99.17-59-120.37" style="fill:none;stroke:#000;stroke-miterlimit:2.613126039505005;stroke-width:1.9762617613494395px"/><path d="M169.62,228.85c-4.84-28.6-2.08-48-2.08-48,8.48-52.85,16.15-21,16.15-21l-1.26,68.23c4.89,34.58,14.35,75.35,14.35,75.35C181.13,283.56,169.62,228.85,169.62,228.85Z" style="fill:#8f5444;fill-rule:evenodd"/><path d="M169.62,228.85c-4.84-28.6-2.08-48-2.08-48,8.48-52.85,16.15-21,16.15-21l-1.26,68.23c4.89,34.58,14.35,75.35,14.35,75.35C181.13,283.56,169.62,228.85,169.62,228.85Z" style="fill:none;stroke:#000;stroke-miterlimit:2.613126039505005;stroke-width:1.9762617613494395px"/><path d="M266.92,89.47c5.22,46.65,0,37.84,3.91-11.42S213.1,2.7,213.1,2.7,263.66,38.25,266.92,89.47Z" style="fill:#8f5444;fill-rule:evenodd"/><path d="M266.92,89.47c5.22,46.65,0,37.84,3.91-11.42S213.1,2.7,213.1,2.7,263.66,38.25,266.92,89.47Z" style="fill:none;stroke:#000;stroke-miterlimit:2.613126039505005;stroke-width:1.9762617613494395px"/><path d="M252.57,100.88C263,110,294.65,119.48,253.87,94s-76.54,2.61-76.54,2.61-36.44,75.8-14.63,129.44C164.55,138.43,204,98.36,204,98.36s9.77-6.94,19.88-6C223.86,92.4,242.13,91.75,252.57,100.88Z" style="fill:#8f5444;fill-rule:evenodd"/><path d="M252.57,100.88C263,110,294.65,119.48,253.87,94s-76.54,2.61-76.54,2.61-36.44,75.8-14.63,129.44C164.55,138.43,204,98.36,204,98.36s9.77-6.94,19.88-6C223.86,92.4,242.13,91.75,252.57,100.88Z" style="fill:none;stroke:#000;stroke-miterlimit:2.613126039505005;stroke-width:1.9762617613494395px"/><path d="M259.75,92.4Zm0,0c-18.59-18.59-49.26-22.84-49.26-22.84-7.18,0-37.19,2-53.17,30,0,0-22.6,76.8-6.38,125.35C146.79,180.64,170.06,97.5,170.06,97.5c10.74-19.45,42.71-19.12,42.71-19.12,10.44-1.3,39.47,11.09,42.73,18.92" style="fill:#8f5444;fill-rule:evenodd"/><path d="M259.75,92.4Zm0,0c-18.59-18.59-49.26-22.84-49.26-22.84-7.18,0-37.19,2-53.17,30,0,0-22.6,76.8-6.38,125.35C146.79,180.64,170.06,97.5,170.06,97.5c10.74-19.45,42.71-19.12,42.71-19.12,10.44-1.3,39.47,11.09,42.73,18.92" style="fill:none;stroke:#000;stroke-miterlimit:2.613126039505005;stroke-width:1.9762617613494395px"/><path d="M260.56,78.21Zm0,0c-37.19-53.5-66.38-46.49-66.38-46.49s-49.58,1-72.42,70.14c0,0-3.51,4.13-7.73,67,5.54-49.82,16.11-67.65,16.11-67.65C153.4,43.15,194.5,41.84,194.5,41.84s37,1.14,62.63,40" style="fill:#8f5444;fill-rule:evenodd"/><path d="M260.56,78.21Zm0,0c-37.19-53.5-66.38-46.49-66.38-46.49s-49.58,1-72.42,70.14c0,0-3.51,4.13-7.73,67,5.54-49.82,16.11-67.65,16.11-67.65C153.4,43.15,194.5,41.84,194.5,41.84s37,1.14,62.63,40" style="fill:none;stroke:#000;stroke-miterlimit:2.613126039505005;stroke-width:1.9762617613494395px"/><path d="M267.74,88.16Zm0,0C249,14.28,199.4,14.11,195.81,14.11c-43.18,0-75,53.17-75,53.17C179.46,7.47,229.72,5.23,263.07,91" style="fill:#8f5444;fill-rule:evenodd"/><path d="M267.74,88.16Zm0,0C249,14.28,199.4,14.11,195.81,14.11c-43.18,0-75,53.17-75,53.17C179.46,7.47,229.72,5.23,263.07,91" style="fill:none;stroke:#000;stroke-miterlimit:2.613126039505005;stroke-width:1.9762617613494395px"/><path d="M182.77,229.08l-1.61-37.37.69-22.14,1.61-10.38,7.38,2.31,1.85,14.07,1.38,4.61c-.23,1.15-1.85,31.37,2.54,49.82,0,0,6.38,43.12,17.47,83.57C214.08,313.58,193.86,282.58,182.77,229.08Z" style="fill:#8f5444;fill-rule:evenodd"/><path d="M182.77,229.08l-1.61-37.37.69-22.14,1.61-10.38,7.38,2.31,1.85,14.07,1.38,4.61c-.23,1.15-1.85,31.37,2.54,49.82,0,0,6.38,43.12,17.47,83.57C214.08,313.58,193.86,282.58,182.77,229.08Z" style="fill:none;stroke:#000;stroke-miterlimit:2.613126039505005;stroke-width:1.9762617613494395px"/><path d="M200.3,230.24c-3.69-13.84-1.61-40.6-1.61-40.6l10.84,13.84c-3.19,37.66,8.52,76.15,18.9,112.05C207.88,288.13,200.3,230.24,200.3,230.24Z" style="fill:#8f5444;fill-rule:evenodd"/><path d="M200.3,230.24c-3.69-13.84-1.61-40.6-1.61-40.6l10.84,13.84c-3.19,37.66,8.52,76.15,18.9,112.05C207.88,288.13,200.3,230.24,200.3,230.24Z" style="fill:none;stroke:#000;stroke-miterlimit:2.613126039505005;stroke-width:1.9762617613494395px"/><path d="M212.76,205.78a75.48,75.48,0,0,0,8.3,3.46s-4,44.63,20.09,105.31C223.88,296.63,209.07,242.51,212.76,205.78Z" style="fill:#8f5444;fill-rule:evenodd"/><path d="M212.76,205.78a75.48,75.48,0,0,0,8.3,3.46s-4,44.63,20.09,105.31C223.88,296.63,209.07,242.51,212.76,205.78Z" style="fill:none;stroke:#000;stroke-miterlimit:2.613126039505005;stroke-width:1.9762617613494395px"/><path d="M233.29,210.86l-8.3-2.08c-2.34,39,5.84,79.42,32.81,109.68C244.84,280.2,230.24,247.33,233.29,210.86Z" style="fill:#8f5444;fill-rule:evenodd"/><path d="M233.29,210.86l-8.3-2.08c-2.34,39,5.84,79.42,32.81,109.68C244.84,280.2,230.24,247.33,233.29,210.86Z" style="fill:none;stroke:#000;stroke-miterlimit:2.613126039505005;stroke-width:1.9762617613494395px"/><path d="M299.61,100.84,333.81,99c14.68-7.83,31.7-1.73,31.7-1.73l69.16,8.48s-8.48,29.36-84.16,56.11c0,0-.33,28.71-24.79,46.32,0,0-36.54,2.94-35.56,9.46,0,0-.65,6.52,14.68,12.07,0,0-10.69,6.2-21.13,0v-127Z" style="fill:#8f5444;fill-rule:evenodd"/><path d="M299.61,100.84,333.81,99c14.68-7.83,31.7-1.73,31.7-1.73l69.16,8.48s-8.48,29.36-84.16,56.11c0,0-.33,28.71-24.79,46.32,0,0-36.54,2.94-35.56,9.46,0,0-.65,6.52,14.68,12.07,0,0-10.69,6.2-21.13,0v-127Z" style="fill:none;stroke:#000;stroke-miterlimit:2.613126039505005;stroke-width:2.8237262704396247px"/><path d="M335.3,97.89A82.67,82.67,0,0,0,313,121.41s-2.31,7.38-23.3,19.61" style="fill:none;stroke:#000;stroke-miterlimit:2.613126039505005;stroke-width:2.8237262704396247px"/><path d="M364.83,98.23c-35.56,29.69-41.43,53.83-41.43,53.83-9.46,19.9-32.62,26.75-32.62,26.75" style="fill:none;stroke:#000;stroke-miterlimit:2.613126039505005;stroke-width:2.8237262704396247px"/><path d="M322.22,109c-20.53-1.85-32.06,2.77-32.06,2.77" style="fill:none;stroke:#000;stroke-miterlimit:2.613126039505005;stroke-width:2.8237262704396247px"/><path d="M311.14,124.41c-5.54-4.61-18.91-4.61-18.91-4.61" style="fill:none;stroke:#000;stroke-miterlimit:2.613126039505005;stroke-width:2.8237262704396247px"/><path d="M241.13,100.84,206.93,99c-14.68-7.83-31.7-1.73-31.7-1.73l-69.16,8.48s8.48,29.36,84.16,56.11c0,0,.33,28.71,24.79,46.32,0,0,36.54,2.94,35.56,9.46,0,0,.65,6.52-14.68,12.07,0,0,10.69,6.2,21.13,0v-127Z" style="fill:#8f5444;fill-rule:evenodd"/><path d="M241.13,100.84,206.93,99c-14.68-7.83-31.7-1.73-31.7-1.73l-69.16,8.48s8.48,29.36,84.16,56.11c0,0,.33,28.71,24.79,46.32,0,0,36.54,2.94,35.56,9.46,0,0,.65,6.52-14.68,12.07,0,0,10.69,6.2,21.13,0v-127Z" style="fill:none;stroke:#000;stroke-miterlimit:2.613126039505005;stroke-width:2.8237262704396247px"/><path d="M205.44,97.89a82.66,82.66,0,0,1,22.31,23.52s2.31,7.38,23.3,19.61" style="fill:none;stroke:#000;stroke-miterlimit:2.613126039505005;stroke-width:2.8237262704396247px"/><path d="M175.91,98.23c35.56,29.69,41.43,53.83,41.43,53.83C226.8,172,250,178.8,250,178.8" style="fill:none;stroke:#000;stroke-miterlimit:2.613126039505005;stroke-width:2.8237262704396247px"/><path d="M218.52,109c20.53-1.85,32.06,2.77,32.06,2.77" style="fill:none;stroke:#000;stroke-miterlimit:2.613126039505005;stroke-width:2.8237262704396247px"/><path d="M229.59,124.41c5.54-4.61,18.92-4.61,18.92-4.61" style="fill:none;stroke:#000;stroke-miterlimit:2.613126039505005;stroke-width:2.8237262704396247px"/><path d="M267,60.7s.69-4.38,4.61,11.53c0,0,3.46-13.38,3.23-12,0,0-1.15,27-1.15,30.22l-5.77-.69c2.31-3.23-.92-29.06-.92-29.06" style="fill:#8f5444;fill-rule:evenodd"/><polyline points="557.4 231.44 536.63 227.94 517.22 220.09 523.31 227.85 498.96 219.38 505.67 227.68 477.61 219.38 483.96 227.32 453.78 219.38 460.49 227.68 430.49 219.38 436.84 227.5" style="fill:none;stroke:gray;stroke-miterlimit:2.613126039505005;stroke-width:2.8237262704396247px"/><polyline points="557.4 231.45 536.63 234.95 517.22 242.8 523.31 235.04 498.96 243.51 505.67 235.22 477.61 243.51 483.96 235.57 453.78 243.51 460.49 235.22 430.49 243.51 436.84 235.39" style="fill:none;stroke:gray;stroke-miterlimit:2.613126039505005;stroke-width:2.8237262704396247px"/><path d="M286.76,232.95c-16.31,11.42.82,34,.82,34C329.1,265.57,397.5,285.11,403,282.8c13.73-5.72,12.92-34.6,12.92-34.6-2.31-24-18.91-26.3-18.91-26.3Z" style="fill:#1f1a17;fill-rule:evenodd"/><polygon points="255.89 233.21 151.17 222.37 158.78 228.59 163.62 234.82 161.32 238.97 156.71 244.05 157.17 249.59 161.32 253.04 163.16 257.43 160.63 261.81 159.01 265.04 161.55 270.81 166.85 275.88 169.85 277.5 212.29 270.11 236.98 267.58 254.97 267.12 271.58 257.2 255.89 233.21" style="fill:#1f1a17;fill-rule:evenodd"/><path d="M137.56,224.9s-20.45,15.33-10.16,42.91A37.16,37.16,0,0,0,135.48,281s18.79-8.75,10.1-41.24c-1.6-6-2.93-11.52-8-14.82" style="fill:#fff;fill-rule:evenodd"/><path d="M137.33,224.9,145.4,221l9,3.92,6.69,5.07,2.08,6.69-4.61,5.07-2.08,4.61.69,4.15,4.15,3.69,2.31,4.15-4.84,4.38a40,40,0,0,0,1.61,4.38c.69,1.38,4.15,6.92,4.15,6.92l6,4.61L138.94,283,135,280.26l4.15-.92,6.23-9.46,2.54-18.68-2.77-16.84-5.07-7.61Z" style="fill:#fff;fill-rule:evenodd"/><path d="M158.32,223.29c.84,2.52,3.29,3.9,5.4,5.25a15.67,15.67,0,0,1,3.37,12.87,20.64,20.64,0,0,1-2.26,9.37c-.21,3.11,4,4.07,4,7.1-.33,3-3.91,4.59-3.65,7.74,1.22,4.38,6.55,5.81,7.9,10.12.3.52.6,1,.93,1.53" style="fill:none;stroke:#fff;stroke-miterlimit:2.613126039505005;stroke-width:2.8237262704396247px"/><path d="M173,224.64c.85,2.4,3.3,3.7,5.42,5a14.31,14.31,0,0,1,3.38,12.22,18.76,18.76,0,0,1-2.27,8.91c-.21,2.95,4,3.87,4,6.75-.33,2.83-3.92,4.36-3.67,7.35,1.22,4.16,6.58,5.52,7.93,9.61" style="fill:none;stroke:#fff;stroke-miterlimit:2.613126039505005;stroke-width:2.8237262704396247px"/><path d="M185.5,226.49c.85,2.4,3.3,1.86,5.42,3.14a14.31,14.31,0,0,1,3.38,12.22,18.76,18.76,0,0,1-2.27,8.91c-.21,2.95,4,3.87,4,6.75-.33,2.83-3.92,4.36-3.67,7.35,1.22,4.16,3.81,3.44,5.16,7.53" style="fill:none;stroke:#fff;stroke-miterlimit:2.613126039505005;stroke-width:2.8237262704396247px"/><path d="M196.75,226.66c.85,2.19,3.1,3.54,5.24,4.71a12.19,12.19,0,0,1,3.41,11.15c-2.29,9.74,4.52,10.54-1.94,21,1.23,3.8,3.84,3.14,5.21,6.87" style="fill:none;stroke:#fff;stroke-miterlimit:2.613126039505005;stroke-width:2.8237262704396247px"/><path d="M207.56,228c.86,2.05,3.12,3.32,5.27,4.42a11,11,0,0,1,3.43,10.46c-2.31,9.14,4.55,9.89-1.95,19.69,1.24,3.56,3.87,2.95,5.24,6.45" style="fill:none;stroke:#fff;stroke-miterlimit:2.613126039505005;stroke-width:2.8237262704396247px"/><line x1="159.01" y1="237.13" x2="247.09" y2="240.4" style="fill:none;stroke:#fff;stroke-miterlimit:2.613126039505005;stroke-width:2.8237262704396247px"/><line x1="156.73" y1="245.29" x2="232.74" y2="249.2" style="fill:none;stroke:#fff;stroke-miterlimit:2.613126039505005;stroke-width:2.8237262704396247px"/><line x1="160.32" y1="260.3" x2="225.56" y2="258.34" style="fill:none;stroke:#fff;stroke-miterlimit:2.613126039505005;stroke-width:2.8237262704396247px"/><path d="M256.12,267.12c-41.52-1.38-113,18-118.56,15.69-13.73-5.72-12.92-34.6-12.92-34.6,2.31-24,18.91-26.3,18.91-26.3l112.57,11.53" style="fill:none;stroke:#000;stroke-miterlimit:2.613126039505005;stroke-width:2.8237262704396247px"/><path d="M137.31,224.86c8.43,4.85,9.43,17,10,27,.6,11.41-2.53,27-12,29.07" style="fill:none;stroke:#000;stroke-miterlimit:2.613126039505005;stroke-width:2.8237262704396247px"/><path d="M150.2,222.46c3.26,2.61,13.18,7.16,12.72,14-.23,3.46-5.24,2.95-6.2,9.13a6.31,6.31,0,0,0,1,5.27c5.93,3.57,6.1,7.48,5.22,8.1a9.3,9.3,0,0,0-3.59,5.87,18.55,18.55,0,0,0,11.09,12.72" style="fill:none;stroke:#000;stroke-miterlimit:2.613126039505005;stroke-width:2.8237262704396247px"/><path d="M136,284.24Zm0,0c-1.48-8.25,6-18.59,10.27-18.92,15-1.15,11.86,11.38,7.5,10.44-4.51-2.42-12.22,1.74-11.14,9.55" style="fill:#605d5c;fill-rule:evenodd"/><path d="M136,284.24Zm0,0c-1.48-8.25,6-18.59,10.27-18.92,15-1.15,11.86,11.38,7.5,10.44-4.51-2.42-12.22,1.74-11.14,9.55" style="fill:none;stroke:#000;stroke-miterlimit:2.613126039505005;stroke-width:2.8237262704396247px"/><path d="M433.29,222.89c-1.63,0-24,6.2-24,6.2" style="fill:none;stroke:gray;stroke-miterlimit:2.613126039505005;stroke-width:2.8237262704396247px"/><path d="M433.29,238.87c-1.3,0-22.09-3.59-22.09-3.59" style="fill:none;stroke:gray;stroke-miterlimit:2.613126039505005;stroke-width:2.8237262704396247px"/><path d="M359.63,225.72l25.44,23.49L358.33,275m32.3,6.52-32.3-33.6,28.38-25.12" style="fill:none;stroke:#fff;stroke-miterlimit:2.613126039505005;stroke-width:2.8237262704396247px"/><line x1="309.4" y1="238.77" x2="411.17" y2="235.18" style="fill:none;stroke:#fff;stroke-miterlimit:2.613126039505005;stroke-width:2.8237262704396247px"/><line x1="416.07" y1="246.27" x2="316.25" y2="249.2" style="fill:none;stroke:#fff;stroke-miterlimit:2.613126039505005;stroke-width:2.8237262704396247px"/><path d="M327.66,229.31s9.46,21.2,0,40.12" style="fill:none;stroke:#fff;stroke-miterlimit:2.613126039505005;stroke-width:2.8237262704396247px"/><path d="M342.34,227s7.83,27.4.33,44.69" style="fill:none;stroke:#fff;stroke-miterlimit:2.613126039505005;stroke-width:2.8237262704396247px"/><path d="M393.56,222.46C403.35,228,404,241.38,404,241.38a63.57,63.57,0,0,1-1.63,23.16s-1,13.7-14,15.66" style="fill:none;stroke:#fff;stroke-miterlimit:2.613126039505005;stroke-width:2.8237262704396247px"/><path d="M287.58,267C329.1,265.57,397.5,285.11,403,282.8c13.73-5.72,12.92-34.6,12.92-34.6-2.31-24-18.91-26.3-18.91-26.3l-110.28,11" style="fill:none;stroke:#000;stroke-miterlimit:2.613126039505005;stroke-width:2.8237262704396247px"/><path d="M136.14,285.2s2.88,44,63.88,45.62c0,0,41.92,1.66,70.94-33.88,29,35.59,71,33.88,71,33.88,61-1.63,63.88-45.62,63.88-45.62h-6.53s-3.24,37.49-60,38.47c0,0-44.89-2.13-68.38-39-15.38,24.14-42.36,38.7-68.29,39-56.76-1-60-38.47-60-38.47Z" style="fill:#605d5c;fill-rule:evenodd"/><path d="M136.14,285.2s2.88,44,63.88,45.62c0,0,41.92,1.66,70.94-33.88,29,35.59,71,33.88,71,33.88,61-1.63,63.88-45.62,63.88-45.62h-6.53s-3.24,37.49-60,38.47c0,0-44.89-2.13-68.38-39-15.38,24.14-42.36,38.7-68.29,39-56.76-1-60-38.47-60-38.47Z" style="fill:none;stroke:#000;stroke-miterlimit:2.613126039505005;stroke-width:2.8237262704396247px"/><path d="M270.9,285.9s-15.69-7.18-16.15-20.06c-.16-4.57,8.32-8.64,8.32-8.64-4.4-2.12-6.52-9.79-6.52-9.79l7-4.4c-6.52-2.28-8.64-12.56-8.64-12.56l6.85-5.38a9.91,9.91,0,0,1-5.71-6.2l5.71-9.3,18.59.49,6.69,8.32-2.94,7-3.75-.16,6.36,3.59.65,6.69-4.89,6.85-4.57,1,5.87,1.31,2.61,3.75-3.59,7-3.59,2.12,6.2,2.45,2.94,5.71-2.61,7.67-6.69,8Z" style="fill:#fff;fill-rule:evenodd"/><path d="M280.36,248.88c0,2.16-3.94,3.91-8.81,3.91s-8.81-1.75-8.81-3.91,3.94-3.91,8.81-3.91,8.81,1.75,8.81,3.91Z" style="fill-rule:evenodd"/><path d="M137.21,283.23s-.35.92.69,3.92l3.58-.4s-.58-5.13-.58-3.23Z" style="fill:#605d5c;fill-rule:evenodd"/><path d="M404.77,283.23c.75.91.18-1.12-.69,3.92l-3.58-.4s.58-5.13.58-3.23c0,0,2.94-1.2,3.69-.29" style="fill:#605d5c;fill-rule:evenodd"/><path d="M405.85,285.55Zm0,0c.5-7.6-5.86-19.9-10.1-20.23-15-1.15-11.86,11.38-7.5,10.44,4.51-2.42,12.14,1.74,11.06,9.55" style="fill:#605d5c;fill-rule:evenodd"/><path d="M405.85,285.55Zm0,0c.5-7.6-5.86-19.9-10.1-20.23-15-1.15-11.86,11.38-7.5,10.44,4.51-2.42,12.14,1.74,11.06,9.55" style="fill:none;stroke:#000;stroke-miterlimit:2.613126039505005;stroke-width:2.8237262704396247px"/><path d="M254.92,266.17c-.65-6.2,7.5-8.81,7.5-8.81-4.24-2-5.55-8.16-5.55-8.16-.65-4.57,5.22-5.87,5.22-5.87-5.22-.65-7.12-10.75-6.85-12.36.46-2.77,5.72-5.37,5.72-5.37a6.51,6.51,0,0,1-4.84-5.31c-.92-4.61,4.15-8.53,4.15-8.53" style="fill:none;stroke:#000;stroke-miterlimit:2.613126039505005;stroke-width:2.8237262704396247px"/><path d="M262.42,264.86c-.79,1.73,3,13.7,9.13,13.7,5.55,0,8.48-14,8.48-14-5.26-7.95-12.79-7.78-17.62.33" style="fill-rule:evenodd"/><path d="M287.76,266.17c.65-6.2-7.5-8.81-7.5-8.81,4.24-2,5.55-8.16,5.55-8.16.65-4.57-5.22-5.87-5.22-5.87,5.22-.65,7.12-10.75,6.85-12.36-.46-2.77-5.72-5.37-5.72-5.37a6.51,6.51,0,0,0,4.84-5.31c.92-4.61-4.15-8.53-4.15-8.53" style="fill:none;stroke:#000;stroke-miterlimit:2.613126039505005;stroke-width:2.8237262704396247px"/><path d="M262.08,228.79c8.34,5.77,19.38.23,19.38.23-2.94,9.69-10.06,10.38-10.06,10.38-5.64-1.15-9.32-10.61-9.32-10.61" style="fill-rule:evenodd"/><path d="M249.83,156.68Zm0,0s-2.23,64.06,22.32,68.81c16.31-14.68,20.23-40.78,20.23-40.78,2.28-27.4-3.3-38.71-3.3-38.71" style="fill:#ef9a48;fill-rule:evenodd"/><path d="M249.83,156.68Zm0,0s-2.23,64.06,22.32,68.81c16.31-14.68,20.23-40.78,20.23-40.78,2.28-27.4-3.3-38.71-3.3-38.71" style="fill:none;stroke:#000;stroke-miterlimit:2.613126039505005;stroke-width:2.8237262704396247px"/><path d="M289.8,142.81c.92-21-21.62-28.08,1.15-37.6,10.38-3,6.46-7.61,6.46-7.61-6.46-.23-24-9.92-24-9.92s-17.3.92-21.22,18.68L249.66,123v33.68s5.54,7.38,18.91,5.77C268.58,162.42,288.88,163.8,289.8,142.81Z" style="fill:#f8c300;fill-rule:evenodd"/><path d="M289.8,142.81c.92-21-21.62-28.08,1.15-37.6,10.38-3,6.46-7.61,6.46-7.61-6.46-.23-24-9.92-24-9.92s-17.3.92-21.22,18.68L249.66,123v33.68s5.54,7.38,18.91,5.77C268.58,162.42,288.88,163.8,289.8,142.81Z" style="fill:none;stroke:#000;stroke-miterlimit:2.613126039505005;stroke-width:2.8237262704396247px"/><path d="M254.74,265.82c5.22,15,16.16,20.24,16.16,20.24.33.33,14-5.49,17-20.17" style="fill:none;stroke:#000;stroke-miterlimit:2.613126039505005;stroke-width:2.8237262704396247px"/><path d="M292.37,104.8c-15.66,4.57-22.51-2-22.51-2s-6.52-2-14.68,15.66v32.3c9.46,10.44,23.16,3.26,23.16,3.26l11.42-9.79c0-12.72-8.16-28.38-8.16-28.38C281.28,106.76,292.37,104.8,292.37,104.8Z" style="fill:#00923f;fill-rule:evenodd"/><path d="M292.37,104.8c-15.66,4.57-22.51-2-22.51-2s-6.52-2-14.68,15.66v32.3c9.46,10.44,23.16,3.26,23.16,3.26l11.42-9.79c0-12.72-8.16-28.38-8.16-28.38C281.28,106.76,292.37,104.8,292.37,104.8Z" style="fill:none;stroke:#000;stroke-miterlimit:2.613126039505005;stroke-width:2.8237262704396247px"/><path d="M279.19,97.72h0a3.13,3.13,0,1,1-6.23,0h0a3.13,3.13,0,1,1,6.23,0h0Z" style="fill-rule:evenodd"/><path d="M326.6,112.41s5.54-4.61,11.53-6c0,0-1.85,25.37-39.67,57.44" style="fill:none;stroke-width:2.8235089778900146px;stroke:url(#a)"/><path d="M322.45,126a54.5,54.5,0,0,1-23.3,19.61" style="fill:none;stroke-width:2.8235089778900146px;stroke:url(#b)"/><path d="M362,112.26c16.26,0,44.55,12.73,44.55,12.73" style="fill:none;stroke:url(#c)"/><path d="M359.92,117.92c9.19.35,43.13,12,43.13,12" style="fill:none;stroke:url(#d)"/><path d="M354.27,123.22c7.42,0,38.89,10.61,38.89,10.61" style="fill:none;stroke:url(#e)"/><path d="M346.84,128.88C355.68,131.35,373,142,373,142" style="fill:none;stroke:url(#f)"/><path d="M342.25,133.47c7.07,2.12,21.92,14.5,21.92,14.5" style="fill:none;stroke:url(#g)"/><path d="M342.25,138.42c5.66,2.47,12.37,12,12.37,12" style="fill:none;stroke:url(#h)"/><path d="M336.59,142.67c4.6,1.77,12.73,11,12.73,11" style="fill:none;stroke:url(#i)"/><path d="M334.82,147.62c4.6,1.77,11.67,12.37,11.67,12.37" style="fill:none;stroke:url(#j)"/><path d="M333.41,153.63c4.24,1.06,9.55,10.61,9.55,10.61" style="fill:none;stroke:url(#k)"/><path d="M330.93,157.87c4.6,3.54,9.55,13.79,9.55,13.79" style="fill:none;stroke:url(#l)"/><path d="M324.57,163.17c7.07,4.6,14.5,18.38,14.5,18.38" style="fill:none;stroke:url(#m)"/><path d="M322.09,170.6c5.3,4.24,13.08,18.38,13.08,18.38" style="fill:none;stroke:url(#n)"/><path d="M317.5,175.9c5.66,6.36,12,18.74,12,18.74" style="fill:none;stroke:url(#o)"/><path d="M314.67,180.14c7.07,8.49,11,20.51,11,20.51" style="fill:none;stroke:url(#p)"/><path d="M309,183.68c6.36,7.07,11,20.15,11,20.15" style="fill:none;stroke:url(#q)"/><path d="M304.42,187.57c4.95,7.07,6.36,17.68,6.36,17.68" style="fill:none;stroke:url(#r)"/><path d="M298.05,188.28a94.37,94.37,0,0,1,3.18,19.09" style="fill:none;stroke:url(#s)"/><path d="M292.75,191.46c.71,3.54-.35,16.26-.35,16.26" style="fill:none;stroke:url(#t)"/><path d="M367.7,105.9c18.38.71,48.79,10.61,48.79,10.61" style="fill:none;stroke:url(#u)"/><path d="M214.14,112.41s-5.54-4.61-11.53-6c0,0,1.85,25.37,39.67,57.44" style="fill:none;stroke-width:2.8235089778900146px;stroke:url(#v)"/><path d="M218.3,126a54.5,54.5,0,0,0,23.3,19.61" style="fill:none;stroke-width:2.8235089778900146px;stroke:url(#w)"/><path d="M178.7,112.26c-16.26,0-44.55,12.73-44.55,12.73" style="fill:none;stroke:url(#x)"/><path d="M180.82,117.92c-9.19.35-43.13,12-43.13,12" style="fill:none;stroke:url(#y)"/><path d="M186.48,123.22c-7.42,0-38.89,10.61-38.89,10.61" style="fill:none;stroke:url(#z)"/><path d="M193.91,128.88c-8.84,2.47-26.16,13.08-26.16,13.08" style="fill:none;stroke:url(#aa)"/><path d="M198.5,133.47c-7.07,2.12-21.92,14.5-21.92,14.5" style="fill:none;stroke:url(#ab)"/><path d="M198.5,138.42c-5.66,2.47-12.37,12-12.37,12" style="fill:none;stroke:url(#ac)"/><path d="M204.16,142.67c-4.6,1.77-12.73,11-12.73,11" style="fill:none;stroke:url(#ad)"/><path d="M205.93,147.62c-4.6,1.77-11.67,12.37-11.67,12.37" style="fill:none;stroke:url(#ae)"/><path d="M207.34,153.63c-4.24,1.06-9.55,10.61-9.55,10.61" style="fill:none;stroke:url(#af)"/><path d="M209.82,157.87c-4.6,3.54-9.55,13.79-9.55,13.79" style="fill:none;stroke:url(#ag)"/><path d="M216.18,163.17c-7.07,4.6-14.5,18.38-14.5,18.38" style="fill:none;stroke:url(#ah)"/><path d="M218.65,170.6c-5.3,4.24-13.08,18.38-13.08,18.38" style="fill:none;stroke:url(#ai)"/><path d="M223.25,175.9c-5.66,6.36-12,18.74-12,18.74" style="fill:none;stroke:url(#aj)"/><path d="M226.08,180.14c-7.07,8.49-11,20.51-11,20.51" style="fill:none;stroke:url(#ak)"/><path d="M231.74,183.68c-6.36,7.07-11,20.15-11,20.15" style="fill:none;stroke:url(#al)"/><path d="M236.33,187.57c-4.95,7.07-6.36,17.68-6.36,17.68" style="fill:none;stroke:url(#am)"/><path d="M242.7,188.28a94.37,94.37,0,0,0-3.18,19.09" style="fill:none;stroke:url(#an)"/><path d="M248,191.46c-.71,3.54.35,16.26.35,16.26" style="fill:none;stroke:url(#ao)"/><path d="M173,105.9c-18.38.71-48.79,10.61-48.79,10.61" style="fill:none;stroke:url(#ap)"/><path d="M267.3,205.52a6.89,6.89,0,0,0,6.36-.71" style="fill:none;stroke:#000"/><path d="M255.28,185.72c4.24,1.77,13.08.35,13.08.35" style="fill:none;stroke:url(#aq)"/><path d="M257.75,193.5c2.12,2.12,6.36.71,6.36.71" style="fill:none;stroke:url(#ar)"/><path d="M258.11,202.34c3.18,2.47,9.19,0,9.19,0" style="fill:none;stroke:url(#as)"/><path d="M263.06,209.06c2.47,1.77,7.07.35,7.07.35" style="fill:none;stroke:url(#at)"/><path d="M275.79,186.08c3.89,1.77,10.25,0,10.25,0" style="fill:none;stroke:url(#au)"/><path d="M270.13,193.15c3.18,1.77,8.84,0,8.84,0" style="fill:none;stroke:url(#av)"/><path d="M276.14,197.39a6.79,6.79,0,0,0,6,.35" style="fill:none;stroke:url(#aw)"/><path d="M277.55,205.17a4.64,4.64,0,0,0,5.3.35" style="fill:none;stroke:url(#ax)"/><path d="M269.07,214.36c2.47,2.12,5.3,0,5.3,0" style="fill:none;stroke:url(#ay)"/><path d="M278.61,125a13.13,13.13,0,0,1-6.36-.35" style="fill:none;stroke:url(#az)"/><path d="M273.66,128.88c2.3,1.06,6,.35,6,.35" style="fill:none;stroke:url(#ba)"/><path d="M271.89,133.47c2.83,1.59,8.49,0,8.49,0" style="fill:none;stroke:url(#bb)"/><path d="M276.13,138.07c2.83,2.3,9.19,1.06,9.19,1.06" style="fill:none;stroke:url(#bc)"/><path d="M269.06,140.55c1.94,1.24,5.3.35,5.3.35" style="fill:none;stroke:url(#bd)"/><path d="M269.41,144.08c2.47,1.77,8.13,1.41,8.13,1.41" style="fill:none;stroke:url(#be)"/><path d="M262.34,117.21c2.83,1.59,12.73.35,12.73.35" style="fill:none;stroke:url(#bf)"/><path d="M258.1,124.28c1.59,1.77,6.72.35,6.72.35" style="fill:none;stroke:url(#bg)"/><path d="M265.17,121.45c3.18,1.41,8.13,0,8.13,0" style="fill:none;stroke:url(#bh)"/><path d="M266.59,129.23s-4.95.71-6.72-.71" style="fill:none;stroke:url(#bi)"/><path d="M266.94,126.4a3.37,3.37,0,0,0,3.54,1.06" style="fill:none;stroke:url(#bj)"/><path d="M265.17,136.3c2.47,1.59,6.36,0,6.36,0" style="fill:none;stroke:url(#bk)"/><path d="M260.22,133.12c1.24,1.59,7.78.35,7.78.35" style="fill:none;stroke:url(#bl)"/><path d="M260.58,139.13a4.8,4.8,0,0,0,4.95,0" style="fill:none;stroke:url(#bm)"/><path d="M259.87,144.08c2.47,1.06,6.36-.35,6.36-.35" style="fill:none;stroke:url(#bn)"/><path d="M265.52,148.32c2.65,1.59,6,.35,6,.35" style="fill:none;stroke:url(#bo)"/></svg>