<svg xmlns="http://www.w3.org/2000/svg" viewBox="0 0 400 468.24"><title>Pitcairn_Islands</title><path d="M97.62,252.85C84.43,264,71.84,280.37,68.78,295.11c-8.69,41.5-20.26,50.76-38.1,41.84,0,22.3,19.58,24,28.16,11,0,20.94,7.56,39,24.68,54.54,7.18,6.5,8.58,2,5.14-5.14s-3.44-30.54-10.28-43.92c11,7.9,27.06,3.44,25.7-18.14-14.06,8.2-28,7.9-29.48-11.68-1.7-23,7.26-56.31,23-70.71Z" style="fill:#f7e017;stroke:#000;stroke-miterlimit:10;stroke-width:0.6047242957513631px;fill-rule:evenodd"/><path d="M80.91,87.69c.94-8.24-.79-16.71-6.84-22-11.6-10.24-23-6.84-31.48,1.4C29.89,60.21,23.16,84.55,8.76,80.43c2.38,7.9,6.16,11.3,13.38,8.58-7.56,6.84,0,15.08-8.92,23.32,16.1,5.14,24.68-3.78,24-19.2,6.16,5.48,15.76,5.14,20.9-1.06C49.54,89.35,49.51,81.87,53,75,58.12,64.67,82.31,65,80.91,87.69Z" style="fill:#f7e017;stroke:#000;stroke-miterlimit:10;stroke-width:0.6047242957513631px;fill-rule:evenodd"/><path d="M118.14,207c-18.18,9.6-51.44,5.48-54.54-18.18s19.92-34.28,26.08-37.38c9.64-4.8,17.16,3.78,14.06,13.72,10.62-3.78,13-16.1,7.9-23.32,14.06,1,27.1-9.6,32.58-24.68-5,4.69-18.37,1.51-29.44.79,3.4-3.78,3.36-11.07,2.34-14.85-11.68,12-28.46,6.5-50.76,41.16,3.44-12,9.94-36,13.72-51.78a33.93,33.93,0,0,0,.83-4.76C82.31,65,58.16,64.63,53,75c5.63,6.35,2.68,13.76.64,25-2.38,13.38-7.52,44.26-12,54.54-1.36-16.14-12-17.16-14.06-25.06-3.1,2.08-4.8,7.56-4.12,11.34-3.78-4.12-16.82,1-21.62-5.14-5.14,10.28,3.1,20.56,11.68,25C8.57,161,7.37,167,1.88,167c7.37,8.58,14.93,12,23.66,12.7s15.27,3.93,20.6,14.55c8.58,17.16,41.23,28.31,72,12.7Z" style="fill:#337321;stroke:#000;stroke-miterlimit:10;stroke-width:0.6047242957513631px;fill-rule:evenodd"/><path d="M163.42,186.07c-10.28,28.46-38.4,48.68-51.1,51.78-21.58,5.25-65.65,26.61-77.44,37.61a13.32,13.32,0,0,1-4.88-2c-5.82-4.12-10.62-17.46-.34-28.8,32.24-30.16,66.9-17.16,88.48-37.72-18.18,9.6-51.44,5.48-54.54-18.18,19.58,5.14,54.88,5.48,83-24.68,3.78,4.12,14.74,17.16,16.82,22Z" style="fill:#f7e017;stroke:#000;stroke-miterlimit:10;stroke-width:0.6047242957513631px;fill-rule:evenodd"/><path d="M97.62,252.85c-16.29,13.83-24.72,47.74-23,70.71.45,6.39,2.27,10.73,5,13.38,1.21-13,10.24-46.71,33.41-61.72,19.54-12.7,50.08-41.16,61.38-73.74-2-5.82-5.48-9.94-12-14.06-11.23,30.73-41.27,45.51-64.78,65.42Z" style="fill:#337321;stroke:#000;stroke-miterlimit:10;stroke-width:0.6047242957513631px;fill-rule:evenodd"/><path d="M153,172.84c-5.82,8.77-19,20.75-31.71,25.55A16.8,16.8,0,0,0,125,188.11c-16.14,6.16-48.38,5.48-61.42.68,19.58,5.14,54.88,5.48,83-24.68,2.76,3.1,5.14,5.82,6.35,8.73Z" style="fill:#316d3a;stroke:#000;stroke-miterlimit:10;stroke-width:0.6047242957513631px;fill-rule:evenodd"/><path d="M29.66,244.69c-26.19,24.53-8.92,46,1.36,50.76-2.72,17.16,13.38,15.08,13,29.48,6.54-3.74,8.24-13.72,7.22-21.58,8.24,8.92,29.14-1.06,33.6,15.42,2.76-18.18-11.3-36.36-28.8-34.62,7.18-6.54,3.1-17.16-3.78-19.92-1.36,13.38-16.44,13.38-22.3,9.26s-10.62-17.46-.34-28.8Z" style="fill:#337321;stroke:#000;stroke-miterlimit:10;stroke-width:0.6047242957513631px;fill-rule:evenodd"/><path d="M86.43,400.75c-2.87,1.63-2.65,5.29-.87,7.71,3.59,4.8-2.53,15.69,9.11,18,3.4.68,6-1.4,7.37-5.33,3.59-10.77-7.9-12-8.92-17.12s-4.31-4.65-6.69-3.25Z" style="fill:#f7e017;stroke:#000;stroke-miterlimit:10;stroke-width:0.6047242957513631px;fill-rule:evenodd"/><path d="M96.18,421c-3.82,1.78-7.18,4.27-5.63,16.63.64,5.1.34,17.5-4.12,17.65,2.72,1.4,8.58,2.83,11-.34,2.31,3.86,7.56,2.76,9.6-2,2.76,2.23,6.54-1.55,6.54-4.8,2.38,1.51,7.18-.72,6-8.05,2.95,1,6.69-1.06,8.09-2.95-4.31-.83-15.12-6.69-17.69-11.3s-9.26-6.88-13.72-4.8Z" style="fill:#f7e017;stroke:#000;stroke-miterlimit:10;stroke-width:0.6047242957513631px;fill-rule:evenodd"/><path d="M36.77,74.12a45.67,45.67,0,0,1,5.82-7" style="fill:none;stroke:#000;stroke-miterlimit:10;stroke-width:0.6047242957513631px"/><path d="M102,119.51c3-1.7,7.63-1.89,12.74-1.59" style="fill:none;stroke:#000;stroke-miterlimit:10;stroke-width:0.6047242957513631px"/><path d="M97.39,454.91c-1.21-1.7-1.63-8.92-.76-13.3" style="fill:none;stroke:#000;stroke-miterlimit:10;stroke-width:0.6047242957513631px"/><path d="M107,452.87c-1.89-1.47-5.48-6.43-6.09-10.81" style="fill:none;stroke:#000;stroke-miterlimit:10;stroke-width:0.6047242957513631px"/><path d="M113.53,448.07c-2.42-1.13-8.24-8.66-9.52-13.57" style="fill:none;stroke:#000;stroke-miterlimit:10;stroke-width:0.6047242957513631px"/><path d="M119.5,440c-2.8-.6-11.45-6.27-15.08-12.28" style="fill:none;stroke:#000;stroke-miterlimit:10;stroke-width:0.6047242957513631px"/><path d="M277.6,245c42.18,35.34,44.94,63.46,38.4,79.9-3.4-15.42-20.9-39.42-39.08-45.58Z" style="fill:#f7e017;stroke:#000;stroke-miterlimit:10;stroke-width:0.6047242957513631px;fill-rule:evenodd"/><path d="M202.16,225.15h78.2v92.6c0,78.88-43.88,125.52-88.48,150.2-44.6-24.68-88.48-71.32-88.48-150.2v-92.6h54.88c.08,4.8.49,12,6.16,19.2,13-1.29,27.59-11,37.72-19.2Z" style="fill:#337321;fill-rule:evenodd"/><path d="M280.36,225.15v92.6c0,23.81-4,44.67-10.81,62.89L191.88,238.19,114.21,380.64c-6.8-18.22-10.81-39.08-10.81-62.89v-92.6Z" style="fill:#006ec7;fill-rule:evenodd"/><path d="M271.89,373.8c-1.36,4.2-3.86,11-5.78,15.23L191.88,251,117.65,389c-1.93-4.2-4.42-11-5.82-15.23l80.05-148.38Z" style="fill:#f7e017;fill-rule:evenodd"/><path d="M227.18,424.56c2,1,5.86,2.91,7.56,3.59,4.12-8.2,4.8-19.88,3.44-30.16-4.46,11.3-19.54,11-23.66,17.84a46.68,46.68,0,0,1,6.88,4.38c-5.14,5.14-17.16,13.8-24,15.84V362.5c0-5.14-1.7-9.45-1.7-13.72V333.58c0-3.44-.68-8.43-3.78-8.43s-3.78,5-3.78,8.43v15.19c0,4.27-1.7,9.26-1.7,13.72V436c-3.78-11-18.56-7.22-25.4-18.18a18.94,18.94,0,0,1,8.24-.34c-5.14-17.5-19.2-18.86-22-24,0,7.22-3.06,24,1.74,31.22a18.2,18.2,0,0,1,4.65-3.82c5.82,12.7,32.05,12.74,38.21,33.64,5-7.67,22.79-16.59,35.3-30Z" style="fill:#f7e017;stroke:#000;stroke-miterlimit:10;stroke-width:0.6047242957513631px;fill-rule:evenodd"/><path d="M191.88,363.37c5.82,0,24.34-1.93,31-1.93,1.74,0,3.17-2.61,3.17-5.82s-1.44-5.82-3.17-5.82c-6.69,0-25.21-1.89-31-1.89s-24.34,1.89-31,1.89c-1.74,0-3.17,2.61-3.17,5.82s1.44,5.82,3.17,5.82c6.69,0,25.21,1.93,31,1.93Z" style="fill:#f7e017;stroke:#000;stroke-miterlimit:10;stroke-width:0.6047242957513631px;fill-rule:evenodd"/><path d="M188.14,333.21a7.51,7.51,0,0,0-4.65-1.59c-3.89,0-7,2.87-7,6.43s3.14,6.39,7,6.39,7-2.87,7-6.39a2,2,0,1,1,4,0c0,5.56-4.91,10.05-11,10.05s-11-4.5-11-10.05,5-10.09,11-10.09a11.85,11.85,0,0,1,5.06,1.13,27.33,27.33,0,0,0-.42,4.12Z" style="fill:#f7e017;stroke:#000;stroke-miterlimit:10;stroke-width:0.6047242957513631px;fill-rule:evenodd"/><path d="M160.85,361.44c1.74,0,3.14-2.61,3.14-5.82s-1.4-5.82-3.14-5.82m0,11.64Z" style="fill:#f7e017;stroke:#000;stroke-miterlimit:10;stroke-width:0.6047242957513631px;fill-rule:evenodd"/><path d="M163.42,361.44c1.74,0,3.17-2.61,3.17-5.82s-1.44-5.82-3.17-5.82m0,11.64Z" style="fill:none;stroke:#000;stroke-miterlimit:10;stroke-width:0.6047242957513631px;fill-rule:evenodd"/><path d="M180.35,362.65c2.12,0,3.82-3.14,3.82-7s-1.7-7-3.82-7m0,14Z" style="fill:#f7e017;stroke:#000;stroke-miterlimit:10;stroke-width:0.6047242957513631px;fill-rule:evenodd"/><path d="M184.32,363c2.19,0,4-3.25,4-7.33s-1.78-7.33-4-7.33m0,14.66Z" style="fill:none;stroke:#000;stroke-miterlimit:10;stroke-width:0.6047242957513631px;fill-rule:evenodd"/><path d="M197.48,363.06c2.19,0,4-3.33,4-7.45s-1.81-7.41-4-7.41m0,14.85Z" style="fill:#f7e017;stroke:#000;stroke-miterlimit:10;stroke-width:0.6047242957513631px;fill-rule:evenodd"/><path d="M201.63,362.8c2.19,0,4-3.21,4-7.18s-1.78-7.18-4-7.18m0,14.36Z" style="fill:none;stroke:#000;stroke-miterlimit:10;stroke-width:0.6047242957513631px;fill-rule:evenodd"/><path d="M220,361.55c1.78,0,3.21-2.65,3.21-5.93s-1.44-5.93-3.21-5.93m0,11.87Z" style="fill:none;stroke:#000;stroke-miterlimit:10;stroke-width:0.6047242957513631px;fill-rule:evenodd"/><path d="M153.67,420.93a26.07,26.07,0,0,1,7.33-3.06m-7.33,3.06Z" style="fill:#f7e017;stroke:#000;stroke-miterlimit:10;stroke-width:0.6047242957513631px;fill-rule:evenodd"/><path d="M223.44,421.65c-.64-.45-1.32-.91-2-1.44m2,1.44Z" style="fill:#f7e017;stroke:#000;stroke-miterlimit:10;stroke-width:0.6047242957513631px;fill-rule:evenodd"/><path d="M227.18,424.56c4.8-5.18,8.81-11,11-17.65m-11,17.65Z" style="fill:#f7e017;stroke:#000;stroke-miterlimit:10;stroke-width:0.6047242957513631px;fill-rule:evenodd"/><path d="M176.16,290.61c0-1.66,1.4-2.38,3-3.59,1.93-1.47,2.72-2.15,4.46-2.15h22.53c1.66,0,2,.42,2,2v30.61c0,1.55-.38,2-2,2h-30v-29.1m0,.3Z" style="fill:#fff;stroke:#000;stroke-miterlimit:10;stroke-width:0.6047242957513631px;fill-rule:evenodd"/><path d="M200.54,322.06c2.95,0,2.42,0,4.5-2.12s2-2,2-4V288c0-1.44-.34-1.81-1.89-1.81H184.28c-1.63,0-2.34.64-4.16,2-1.47,1.13-2.72,1.78-2.72,3.36v30.54Z" style="fill:#e5e5e5;stroke:#000;stroke-miterlimit:10;stroke-width:0.6047242957513631px;fill-rule:evenodd"/><path d="M202.77,321.41c0,1.55-.38,2-2,2H178.2c-1.66,0-2-.42-2-2V290.84c0-1.55.38-2,2-2h22.53c1.66,0,2,.45,2,2Z" style="fill:#fff;stroke:#000;stroke-miterlimit:10;stroke-width:0.6047242957513631px;fill-rule:evenodd"/><path d="M246.38,207.2a17.23,17.23,0,0,1,3.44,17.91h-6.5c2.72-8.24,1-16.06-10.62-17.12-17.46-1.51-37.72,32.24-68.26,36.36-8.92-10.62-8.43-30.88,2.87-40.48-5.86-16.86-18.22-35.41-26.76-43.43a79.6,79.6,0,0,0-16.25-1.13c4.46-9.6,17.2-19.73,27.48-23.81,1.66-2.46,3.44-4.8,5.1-6.88,1.06-13.23,63.8-7,77.18,1.21,0,14.74,5.82,64,12.32,77.37Z" style="fill:#96877d;stroke:#000;stroke-miterlimit:10;stroke-width:0.6047242957513631px;fill-rule:evenodd"/><path d="M170.34,216.23c-1.51-22.87-10.73-41.69-23.74-54.54,6.2,1.74,18.86,1.74,27.44-4.46,11.34-7.52,40.82-20.75,51.63-15.08a17.22,17.22,0,0,1,.68,8.92c-2.57-6.84-31,3.78-39.12,7-7.71,3.59-11.11,8.39-8.39,19.2-4.46-3.78-2.91-7.37-7.52-10.09,1.85,4.46,3.4,12.51,3.93,19-1.74-4.61-4.8-14.55-11.49-20.41,5.82,11.34,10.89,38.51,8.5,52.91,4.61,0,14.82-4.54,18.94-7.82-3.59,5.18-14,8.77-20.67,10.13-3,3.59-5.06,12.85-4.88,18-.53-6.31,1.47-21.81,4.69-22.79Z" style="fill-rule:evenodd"/><path d="M246.38,207.2c-5.67-6.31-16.25-9.71-29.82-6A44.52,44.52,0,0,1,227,197.71c-.53-3.59-3.78-19-4.27-22.79l3.74-1.55c1.89,9.26,4.31,19.88,5.86,24.19a32.45,32.45,0,0,1,6.35,2c-1.06-3.59-6.88-29.48-6.69-32.24l5.14-2.72c2,14.06,5.29,34.43,9.22,42.56Z" style="fill-rule:evenodd"/><path d="M243.32,225.11c2.72-8.24,1-16.06-10.62-17.12-9-.79-18.86,8-30.46,17.12Z" style="fill:#96877d;stroke:#000;stroke-miterlimit:10;stroke-width:0.6047242957513631px;fill-rule:evenodd"/><path d="M167.54,151.26c-5.14.68-16.63-.34-22.49-2.23a23.76,23.76,0,0,1,1.74-4.88c-3.63,2.42-10.47,7.11-13,10.36,8.24,1.7,25.21,2.57,33.79-3.25Z" style="fill:#96877d;stroke:#000;stroke-miterlimit:10;stroke-width:0.6047242957513631px;fill-rule:evenodd"/><path d="M167.31,203.87a54.09,54.09,0,0,1,3.29,15.46" style="fill:none;stroke:#000;stroke-miterlimit:10;stroke-width:0.6047242957513631px"/><path d="M151.78,135.5c-3.14,4.54-5.82,9.37-6.73,13.53,5.86,1.89,17.35,2.91,22.49,2.23" style="fill:none;stroke:#000;stroke-miterlimit:10;stroke-width:0.6047242957513631px"/><path d="M140.56,160.44a60.28,60.28,0,0,1,6,1.25c6.2,1.74,18.86,1.74,27.44-4.46s31.9-25.36,58.32-27.4" style="fill:none;stroke:#000;stroke-miterlimit:10;stroke-width:0.6047242957513631px"/><path d="M133.75,154.51c8.24,1.7,25.21,2.57,33.79-3.25,19.88-13.57,39.08-21.43,58.28-22.49" style="fill:none;stroke:#000;stroke-miterlimit:10;stroke-width:0.6047242957513631px"/><path d="M277.6,245c28.8,19.88,50.08,39.12,56.24,70s17.84,39.12,32.24,30.88c-3.4,17.84-21.24,19.88-36.36,6.16,1.4,20.6-6.84,45.28-28.12,54.2-1.36-12.36,6.8-22.15,4.46-32.24-1-4.46-1.36-14.74,4.46-19.54-11.3,3.74-29.14-3.44-30.84-20.26,13,6.2,29.82,7.22,36.32-9.26s3.78-44.56-38.4-79.9Z" style="fill:#337321;stroke:#000;stroke-miterlimit:10;stroke-width:0.6047242957513631px;fill-rule:evenodd"/><path d="M314,84.55c8.92-23.32,32.24-20.94,40.14-11,23-13,26,16.44,45.58,10.62-.34,5.48-6.84,10.62-14.06,10.28,7.56,6.84-3.06,17.16,13,23.32-13.72,6.84-32.92-.34-38.06-19.2-4.46,8.92-20.56,8.92-27.1,1.7,14.06-3.78,13-16.78,5.14-21.92s-21.92-3.1-24.68,6.16Z" style="fill:#337321;stroke:#000;stroke-miterlimit:10;stroke-width:0.6047242957513631px;fill-rule:evenodd"/><path d="M244.38,135.92c6.43,20.64,19.65,39.8,33.9,52.88,16.48,15.08,41.35,11.34,55.22-3.06.34,28.69-29.4,30.92-46,21.92-7.29-4-13.19-1.89-6.16,4.46,10.62,9.6,33.9,16.74,61.38,22.64,48,10.28,30.88,48.34,16.82,48,4-.08,7.33-4.31,1.55-9.49-41.69-37.49-126.39-22.75-125-106.39-8.92,21.92-45.58,13.34-28.46-12.7,5.48,4.46,15.12,4.8,17.84-2.08,2.15-5.33.76-14.59-8.88-22.56,1.59-.15,5,0,4.65-4,.42,2.34,2.53,5.74,7.94,4.61,1.55,2.42,3.14,4,5.33,3.17.45-.19,1.74-.83,1.21-3.29.45,4.57,5.82,6.2,8.66,5.86Z" style="fill:#337321;stroke:#000;stroke-miterlimit:10;stroke-width:0.6047242957513631px;fill-rule:evenodd"/><path d="M287.54,207.65c19.92,13,42.41,13,63.12-11,6.5-7.56,16.82-14.06,24-14.74s6.88-7.56,12.36-8.92c-3.44-1-4.8-5.14-9.94-4.65,12.85-4.46,9.07-14.74,15.42-19.69-5.14,1.89-13.19-5.86-20.6,3.93,1.89-4.46-.68-9.79-2.57-11.83.72,5.14-10.09,6.16-12.17,19.2-1.13,7.29-5.14,6.88-5.82-4.46-.49-8.28-4.46-31.22-9.26-42.86s-5.9-27.67.6-30.09a13,13,0,0,0-4-4.2c-7.94-5.22-21.92-3.1-24.68,6.16C305,107.87,330.1,121.25,328,146.61c-3.78-18.86-34.28-23.66-33.94-42.18-9.94,4.46-8.58,12.7-4.8,19.2-6.2-9.6-20.26,6.2-32.24-6.84-1.36,17.12,13.72,23.66,26,24.34-6.16,11,2.08,20.22,10.32,23.32.34-19.2,39.72-11.34,40.1,21.62.34,28.12-29.82,30.5-46,21.58Z" style="fill:#f7e017;stroke:#000;stroke-miterlimit:10;stroke-width:0.6047242957513631px;fill-rule:evenodd"/><path d="M342.76,234.75c48,10.28,30.88,48.34,16.82,48-9-.19-17.5-7.71-18-14.21-10.28,5.48-7.52,16.29.38,20.56-21.62-2.57-30.69,11.68-31.22,27.25,3.93-7.18,15.95-7.71,20.41-6.16s15.95,2.42,20.56-2.72c-3.78,3.25,2.42,10.77-2.91,16.63,18-.72,25.89-17.5,22.79-24.87,23.32-21.28,18.86-55.9-28.8-64.48Z" style="fill:#f7e017;stroke:#000;stroke-miterlimit:10;stroke-width:0.6047242957513631px;fill-rule:evenodd"/><path d="M306.21,397.69c3.14,2,2.72,6,.6,8.66C302.62,411.56,309,424,295.89,426c-3.86.6-6.69-1.85-8-6.24-3.55-12.25,9.34-13.08,10.7-18.75s5-5,7.6-3.36Z" style="fill:#f7e017;stroke:#000;stroke-miterlimit:10;stroke-width:0.6047242957513631px;fill-rule:evenodd"/><path d="M294.42,419.83c4.23,2.15,7.86,5.1,5.59,18.82-.94,5.67-1.13,19.5,3.82,19.88-3.1,1.44-9.68,2.8-12.25-.83-2.72,4.2-8.5,2.72-10.62-2.72-3.14,2.34-7.18-2-7.07-5.67-2.72,1.63-8-1.06-6.35-9.26-3.29,1.06-7.41-1.44-8.84-3.59,4.8-.76,17.12-6.8,20.18-11.87s10.66-7.26,15.53-4.76Z" style="fill:#f7e017;stroke:#000;stroke-miterlimit:10;stroke-width:0.6047242957513631px;fill-rule:evenodd"/><path d="M291.59,457.7c1.44-1.89,2.23-9.9,1.47-14.82" style="fill:none;stroke:#000;stroke-miterlimit:10;stroke-width:0.6047242957513631px"/><path d="M281,455c2.19-1.55,6.43-7,7.29-11.79" style="fill:none;stroke:#000;stroke-miterlimit:10;stroke-width:0.6047242957513631px"/><path d="M273.9,449.31c2.76-1.13,9.6-9.3,11.23-14.7" style="fill:none;stroke:#000;stroke-miterlimit:10;stroke-width:0.6047242957513631px"/><path d="M267.55,440.05c3.21-.53,13.11-6.46,17.39-13" style="fill:none;stroke:#000;stroke-miterlimit:10;stroke-width:0.6047242957513631px"/><path d="M236.1,166.87c-.57,35.15,14.06,52.91,34.28,64.48-7.52-4.5-4.27-19.92-14.36-24.91,2.38-.15,6.16,3.29,12.17,1.89-2.91-6.5-7.71-16.44-18.86-17.8,2.91-.38,9.26.68,13.38-.87-5.86-8.92-21.28-4.65-26.61-22.79Z" style="fill:#f7e017;stroke:#000;stroke-miterlimit:10;stroke-width:0.6047242957513631px;fill-rule:evenodd"/><path d="M232.47,133.42c-1.25-.42-2.27-1.66-3.29-3.25-5.4,1.13-7.52-2.27-7.94-4.61.34,4-3.06,3.82-4.65,3.93,9.64,8,11,17.27,8.88,22.6-2.72,6.88-12.36,6.54-17.84,2.08-.68,14.55,18.18,19.35,25.06,1,0,3.1,3.93,2.76,5,6.84,4.91-7.86,1.21-19.2-5.18-28.61Z" style="fill:#f7e017;stroke:#000;stroke-miterlimit:10;stroke-width:0.6047242957513631px;fill-rule:evenodd"/><path d="M202.35,63.8c-8.58-7.9-12.55-21.09-12.17-28.65s3.4-15.76,14.4-12.32c-3.44,0-1.06,6.84-4.65,7.52,2.91,1.06,6.88-1.36,7.37-2.91.68,2.42,5.14,1.74,5.48,4.46,1.74-1.36-.15-8.05-2.72-9.41,1.89-1.06,2.91-6.35,2-8.92-1.7.34-4.27,2.72-4.8,6.16.87-2.76-.15-9.6-5-10.62-1.4,1.89-1.74,6.5.15,9.07-4.46-1-11,1.89-12.51,5.67.34-4.54,1-11,3.78-15.08.94-1.4-1.4-3.78-3.17-.53-3.36-6.5-12.25-9.94-16.21-6.69S165.12,0,161.87,5.14s-14.29,5.71-13.72,11.15c.34,3.25-.45,8.31-2,10.13-4,4.46,1.89,7.71,2.91,11.64-.68-13,20.07-38.4,40.78-28.46-1.85,3.29-3.51,9.79-4.08,17.69-.87,11.64.83,28.12,12.17,37.72Z" style="fill:#337321;stroke:#000;stroke-miterlimit:10;stroke-width:0.6047242957513631px;fill-rule:evenodd"/><path d="M208.51,23c-.11-3.1,5.22-7.11,12.43-7,8.66.08,15.34,8,22.3,7.22s3.51,3.06,2,4.12a4.05,4.05,0,0,0-1.81,4.46c.53,1.85-.34,3.1-3.14,1.36-6.2-3.86-12.36,1.55-20.52-1.47-7-2.61-11.15-4-11.3-8.66Z" style="fill:#cf142b;stroke:#000;stroke-miterlimit:10;stroke-width:0.6047242957513631px;fill-rule:evenodd"/><path d="M173.17,103.94c-3.4-10.81-16.44-22.64-22.79-25.4L150,72.72c3.44-1.36,11.64-7.9,15.42-11.49,25.74,12.36,60.7-5.14,76.84-23.32l6.16,3.78-3.1,4.12-3.25-1.74c-3.93,4.8-18.67,18.67-23.13,21.58,6,1.51,14.21,2.57,16.44,2.42,14.4-10.28,25.74-19.54,31.22-20.22L271.25,54l-4.08,2.91-3.29-1.85C248.46,67.73,231,95.51,224.12,114c-9.6-2-43.92-.68-50.95-10.09Z" style="fill:#96877d;stroke:#000;stroke-miterlimit:10;stroke-width:0.6047242957513631px;fill-rule:evenodd"/><path d="M219,65.65a26.62,26.62,0,0,1-5.33-1.85c-2.76,2.57-9.6,4.8-18.33,5.14" style="fill:none;stroke:#000;stroke-miterlimit:10;stroke-width:0.6047242957513631px"/><path d="M174.57,100.16c-2.31-12.77,1.36-26.95,7.86-31.22,14.25,9.45,38.59,9.45,53-.87" style="fill:none;stroke:#000;stroke-miterlimit:10;stroke-width:0.6047242957513631px"/><path d="M174.57,93.47c11-.34,34.81,1.55,40.63,2.38s15.61,3.25,14.21,6.2" style="fill:none;stroke:#000;stroke-miterlimit:10;stroke-width:0.6047242957513631px"/><polygon points="179.64 91.66 182.81 88.48 179.64 85.34 176.5 88.48 179.64 91.66" style="fill:none;stroke:#000;stroke-miterlimit:10;stroke-width:0.6047242957513631px"/><path d="M187.08,27.78c-3.93-5.48-14.82-7.22-17.16.19-1,3.25-2.57,6.69-5.14,8.24s-2,6.2-.83,8.2c2.72,5,.34,9.79,5.63,13,0-3.93,5.82-8.05,10.81-9.07s12.51-5.52,13.53-10.47,2.76-9.11-6.84-10.13Z" style="fill:#337321;stroke:#000;stroke-miterlimit:10;stroke-width:0.6047242957513631px;fill-rule:evenodd"/><path d="M162.4,77.18h1.36l0,9.37a3.18,3.18,0,0,1,.79.42l8.09-4.65.68,1.17-8.13,4.72a2,2,0,0,1,0,.94l8.09,4.65L172.68,95l-8.13-4.65a2.81,2.81,0,0,1-.79.49v9.34H162.4l0-9.37a2.56,2.56,0,0,1-.83-.45L153.48,95l-.68-1.17,8.09-4.72a2.41,2.41,0,0,1,0-.91l-8.05-4.69.68-1.17L161.61,87a1.86,1.86,0,0,1,.76-.49l0-9.34Z" style="fill:#96877d;stroke:#000;stroke-miterlimit:10;stroke-width:0.6047242957513631px;fill-rule:evenodd"/><path d="M174.61,100.12A16.24,16.24,0,1,1,176,78.81a35.75,35.75,0,0,0-1.89,8.73,11.1,11.1,0,1,0-11,12.25,11.35,11.35,0,0,0,10.85-8.35c0,2,0,7,.68,8.69Z" style="fill:#96877d;stroke:#000;stroke-miterlimit:10;stroke-width:0.6047242957513631px;fill-rule:evenodd"/><path d="M156.2,115.58c-1-1.21-2.91-4.46-2.72-6.84A8.63,8.63,0,0,1,159.3,111c-.19-1.74-.87-5.52-.53-7.22,1.89.68,5.86,2.91,7.22,5.48-.34-1.7-1-6.16-.34-8.92,2,1.21,5.48,4.46,6.16,6.69.19-3.44,1.36-9.07,2.42-10.47,1.51,1.55,3.93,2.95,5.48,5,.34-2.76,1.7-6,3.78-6.84A19.8,19.8,0,0,1,188,104.77c1.51-.49,3.59-3.06,4.42-4.46a9.51,9.51,0,0,1,1.21,6.69c1.89-1.7,4.12-4.12,4.65-6.16,1.36,1,3.93,3.59,4.61,6.35-.34-2.23-.15-6.2-.83-8.43a10,10,0,0,1,5.14,6.35c.68-2.38,2.23-6.69,3.59-7.71,1.36,2.76,2.76,6,2.57,8.77.87-1.74,2.23-4.84,3.59-5.52,1.21,1.89,1.06,6,.68,8.24a16.91,16.91,0,0,1,4.8-4.46,12.72,12.72,0,0,1,0,4.65c1.55-.87,4.12-5.52,5-7.9,2.42,1.21,4.8,5.33,5,7.37a18.88,18.88,0,0,0,6.16-5.48c0,1.21.53,4.46-.19,7a19.77,19.77,0,0,0,2.57-3.93c.72,1.7.19,5.82-.49,8.05a8.81,8.81,0,0,1,5.14-2.23c.15,2.91-1.89,8.05-3.78,11.83-16.44-4.65-50.91-6.35-85.57-8.24Z" style="fill:#337321;stroke:#000;stroke-miterlimit:10;stroke-width:0.6047242957513631px;fill-rule:evenodd"/><path d="M213.61,24.76c-.08-1.29,2.76-4.12,7.79-4.12,6,0,11.64,4.5,16.52,4.16s2.46,1.29,1.44,1.7-1.63,1.06-1.25,1.81-.26,1.29-2.23.57c-4.31-1.59-8.62.64-14.32-.6-5-1.06-7.82-1.63-7.94-3.51Z" style="fill:#f7e017;fill-rule:evenodd"/><path d="M161.53,125.86c-5.14,6.2-10.28,5.14-11.3,1.21s2.72-5.82,1.36-9.26,2.23-5,3.93-3.44,7.22-3.4,9.6,1.74,4.31,8.73,2.91,10.77-5.48,1.06-6.5-1Z" style="fill:#f7e017;stroke:#000;stroke-miterlimit:10;stroke-width:0.6047242957513631px;fill-rule:evenodd"/><path d="M183.64,116.6c-.94-2.23,4.38-6.58,7.11-3.51s7-3.33,9.45,1.55,3.17,7.45,4.38,10.2-6.54,4.2-8.92,1.81c.34,1.63-6.69,2.87-8.58-1.74-1-2.49-2.15-5.29-3.44-8.31Z" style="fill:#f7e017;stroke:#000;stroke-miterlimit:10;stroke-width:0.6047242957513631px;fill-rule:evenodd"/><path d="M219.32,119.44c-1.29-2.38,5-5.82,8.24-1.44.83-1.81,7-2.15,7.45,3.06s.6,8.31.76,10.39-3.74,3.93-6.58-1.29c-5.06,1-7.37-1.81-8-4.8a23.22,23.22,0,0,0-1.89-5.93Z" style="fill:#f7e017;stroke:#000;stroke-miterlimit:10;stroke-width:0.6047242957513631px;fill-rule:evenodd"/><path d="M164.86,116c-.76-1.7,4.38-5.14,7.9-2.57s8.39-2.19,10.47,2.42c4.2,9.34,4.46,10,3.17,11.83s-6.77,1.1-8.16-1.36c-.26,1.7-5,1.4-7.45.08-2.83-1.55-4.8-7.29-5.93-10.39Z" style="fill:#337321;stroke:#000;stroke-miterlimit:10;stroke-width:0.6047242957513631px;fill-rule:evenodd"/><path d="M201,116.45c-1.17-2.68,6.88-5,10.39-.34,1.78-1.63,5.74-1.74,8,3.33s2.57,7.9.94,9.18c-1.17.91-5.33,1.63-6.69-.68-1.89,1.17-7.71.15-9-3.1a90.7,90.7,0,0,0-3.63-8.39Z" style="fill:#337321;stroke:#000;stroke-miterlimit:10;stroke-width:0.6047242957513631px;fill-rule:evenodd"/><path d="M235.08,121.52c-.15-2.42,4.2-3.51,5.82,0s6.84.34,7.29,6.16c.08,1.1-.6,5.4-2.23,7.45s-9.6,0-10.09-4.35-.72-6.88-.79-9.26Z" style="fill:#337321;stroke:#000;stroke-miterlimit:10;stroke-width:0.6047242957513631px;fill-rule:evenodd"/><path d="M161.53,125.86c-1.89-2.57-4.46-6.69-7.71-2.23" style="fill:none;stroke:#000;stroke-miterlimit:10;stroke-width:0.6047242957513631px"/><path d="M178.24,126.32a20,20,0,0,1-3.06-5.74" style="fill:none;stroke:#000;stroke-miterlimit:10;stroke-width:0.6047242957513631px"/><path d="M195.66,126.66a14.14,14.14,0,0,1-4-4.38" style="fill:none;stroke:#000;stroke-miterlimit:10;stroke-width:0.6047242957513631px"/><path d="M194.11,117.62c3,.38,5.06,3.17,6,4.46s2.91,3.63,4.46,3.86" style="fill:none;stroke:#000;stroke-miterlimit:10;stroke-width:0.6047242957513631px"/><path d="M213.58,127.94c-1-1.63-2.08-3.1-2.31-4.31" style="fill:none;stroke:#000;stroke-miterlimit:10;stroke-width:0.6047242957513631px"/><path d="M211.35,116.11a22.73,22.73,0,0,1,2.38,4" style="fill:none;stroke:#000;stroke-miterlimit:10;stroke-width:0.6047242957513631px"/><path d="M229.19,130.17c-1.4-2.57-3.51-5.06-5.33-5.93" style="fill:none;stroke:#000;stroke-miterlimit:10;stroke-width:0.6047242957513631px"/><path d="M228.51,120.72c.15,5.06,6.92,5.4,7.18,9" style="fill:none;stroke:#000;stroke-miterlimit:10;stroke-width:0.6047242957513631px"/><path d="M240.9,121.52A10,10,0,0,1,242,126.2" style="fill:none;stroke:#000;stroke-miterlimit:10;stroke-width:0.6047242957513631px"/><path d="M280.36,236.43v81.32c0,78.88-43.88,125.52-88.48,150.2-44.6-24.68-88.48-71.32-88.48-150.2v-92.6h54.88c.08,4.8.49,12,6.16,19.2,13-1.29,27.59-11,37.72-19.2H261" style="fill:none;stroke:#000;stroke-miterlimit:10;stroke-width:0.6047242957513631px;fill-rule:evenodd"/></svg>