<svg xmlns="http://www.w3.org/2000/svg" viewBox="0 0 220.59 249.8"><title>Saint_Kitts_and_Nevis</title><path d="M71,143.26c-.16,7.16-.32,14.46-.41,16.72-.24,6.62,3.2,24.24,11.78,38.19s27.91,23.34,27.91,23.34,11.53-6.45,18-11.81,16.09-18.53,19.31-28.72,2.16-25.47,2.16-25.47l.16-12.06L71,143.26Z" style="fill:#b3e2ee;fill-rule:evenodd"/><path d="M71,143.26c-.16,7.16-.32,14.46-.41,16.72-.24,6.62,3.2,24.24,11.78,38.19s27.91,23.34,27.91,23.34,11.53-6.45,18-11.81,16.09-18.53,19.31-28.72,2.16-25.47,2.16-25.47l.16-12.06L71,143.26Z" style="fill:none;stroke:#000;stroke-miterlimit:2.613126039505005;stroke-width:0.9999999749999999px"/><rect x="70.54" y="115.54" width="80.74" height="28.43" style="fill:#3790c0"/><path d="M76.17,133s0-3.75,1.61-3.75,3.49,1.34,3.49,2.14,1.88,2.41,1.07,4-3.75,2.95-4.56,1.88-.54.27-.54.27,1.34,2.14,3.22,2.14h1.88s.54-.27,1.34,1.61.8.81.8.81l1.34-2.41v-.54a4.13,4.13,0,0,0,2.15.54c1.34,0,3.49-1.34,3.49-2.68,0,0-1.88.8-3,.27s-1.61-3.22-.8-5.1,1.34-2.95,2.68-2.68,2.68,1.88,2.15,3.22c0,0,3-1.61,3-3.49s-.54-4-3-4-5.37.54-5.9,3a29.1,29.1,0,0,0,.54-4.56c0-1.88-1.61-5.36-2.41-5.36s-2.41,2.68-2.41,4.29v5.63s-3.75-4.29-5.37-3.49-4.46,2.35-3.84,4.66,2.23,3.65,3,3.65Z" style="fill:#fcfb00;fill-rule:evenodd"/><path d="M76.17,133s0-3.75,1.61-3.75,3.49,1.34,3.49,2.14,1.88,2.41,1.07,4-3.75,2.95-4.56,1.88-.54.27-.54.27,1.34,2.14,3.22,2.14h1.88s.54-.27,1.34,1.61.8.81.8.81l1.34-2.41v-.54a4.13,4.13,0,0,0,2.15.54c1.34,0,3.49-1.34,3.49-2.68,0,0-1.88.8-3,.27s-1.61-3.22-.8-5.1,1.34-2.95,2.68-2.68,2.68,1.88,2.15,3.22c0,0,3-1.61,3-3.49s-.54-4-3-4-5.37.54-5.9,3a29.1,29.1,0,0,0,.54-4.56c0-1.88-1.61-5.36-2.41-5.36s-2.41,2.68-2.41,4.29v5.63s-3.75-4.29-5.37-3.49-4.46,2.35-3.84,4.66,2.23,3.65,3,3.65Z" style="fill:none;stroke:#000;stroke-miterlimit:2.613126039505005;stroke-width:0.49999998749999996px"/><rect x="81.05" y="133.35" width="7.51" height="1.67" style="fill:#fcfb00"/><rect x="81.05" y="133.35" width="7.51" height="1.67" style="fill:none;stroke:#000;stroke-miterlimit:2.613126039505005;stroke-width:0.5627999959753691px"/><path d="M97.1,122.79A2.74,2.74,0,0,0,99,123.86h3.76s-4.83,3.49-4.83,4.83,1.88,1.61,1.88,1.61-.27,3.76-.27,5.1.27,1.88,1.34,1.88-1.34,1.88-1.34,1.88l.27,1.07,1.07,1.61,2.68-1.61h10.73l.54-1.61.62.41.19.12.81-.27.8,1.88,1.07,1.34,1.07-3.22.8,1.07s1.34-11.54.54-13.95-3.22-6.17-5.63-6.71-6.71-1.88-9.39-1.07-5.37.27-5.63,1.61a1.34,1.34,0,0,0,1.07,1.61s-2.68,1.61-4,1.34Z" style="fill:#fac908;fill-rule:evenodd"/><path d="M97.1,122.79A2.74,2.74,0,0,0,99,123.86h3.76s-4.83,3.49-4.83,4.83,1.88,1.61,1.88,1.61-.27,3.76-.27,5.1.27,1.88,1.34,1.88-1.34,1.88-1.34,1.88l.27,1.07,1.07,1.61,2.68-1.61h10.73l.54-1.61.62.41.19.12.81-.27.8,1.88,1.07,1.34,1.07-3.22.8,1.07s1.34-11.54.54-13.95-3.22-6.17-5.63-6.71-6.71-1.88-9.39-1.07-5.37.27-5.63,1.61a1.34,1.34,0,0,0,1.07,1.61s-2.68,1.61-4,1.34Z" style="fill:none;stroke:#000;stroke-miterlimit:2.613126039505005;stroke-width:1.1252000050578652px"/><path d="M107.29,120.91s1.07,4.29,3,5.36a5.34,5.34,0,0,1,3,4.83c0,2.15.27,4.83.27,4.83l1.34,2.68" style="fill:none;stroke:#000;stroke-miterlimit:2.613126039505005;stroke-width:1.1252000050578652px"/><path d="M115.61,129.49s-1.18,9.68-.19,9.53" style="fill:none;stroke:#000;stroke-miterlimit:2.613126039505005;stroke-width:1.1252000050578652px"/><path d="M99.78,130.3s2.68,0,3.75-1.07" style="fill:none;stroke:#000;stroke-miterlimit:2.613126039505005;stroke-width:1.1252000050578652px"/><polyline points="104.34 124.66 106.75 126.54 104.61 126.27" style="fill:none;stroke:#000;stroke-miterlimit:2.613126039505005;stroke-width:1.1252000050578652px"/><path d="M111,132.44s-2.14-.8-3,.54a6.17,6.17,0,0,1-1.61,1.88l5.9-.54s1.34-3.49.54-4.56-1.88,2.68-1.88,2.68" style="fill:#ad8b05;fill-rule:evenodd"/><polyline points="100.85 137.27 103.8 137 104.07 139.42" style="fill:none;stroke:#000;stroke-miterlimit:2.613126039505005;stroke-width:1.1252000050578652px"/><path d="M115.07,119.3s-1.88,2.15-3.49,2.41-1.88,1.34-.27,2.68,3.76,3.49,4,4.29a64.4,64.4,0,0,1,.27,9.39c-.19.95,1.61,1.61,1.61,1.61l1.07,2.41,1.07-3.22.8,1.07s1.61-9.66.81-12.34-1.34-7.51-5.9-8.32Z" style="fill:#ad8b05;fill-rule:evenodd"/><path d="M126.07,127.08a4.74,4.74,0,0,1,.27-4.29,6.67,6.67,0,0,1,3-2.41c.8-.54,2.15-1.61,3.22-1.34s2.41.54,2.41.54,2.14-1.07,3-.8,1.88,0,2.68,1.34a13.09,13.09,0,0,0,2.41,2.68s1.34,1.88,1.07,3l-.27,1.07a2.77,2.77,0,0,1,1.34,1.61c.27,1.07.81,3.22-.27,4.56s-1.07,1.07-1.34,2.68-3.22,1.88-3.22,1.88,0,2.14-.81,2.14-3.49.54-4.56.54-2.68.27-3.49-.27a7,7,0,0,1-1.61-2.14s-2.68,0-3.49-1.07a7.93,7.93,0,0,1-1.61-4c-.27-1.88-.54-3.22-.54-4s1.08-1.34,1.88-1.61Z" style="fill:#faf2ec;fill-rule:evenodd"/><path d="M126.07,127.08a4.74,4.74,0,0,1,.27-4.29,6.67,6.67,0,0,1,3-2.41c.8-.54,2.15-1.61,3.22-1.34s2.41.54,2.41.54,2.14-1.07,3-.8,1.88,0,2.68,1.34a13.09,13.09,0,0,0,2.41,2.68s1.34,1.88,1.07,3l-.27,1.07a2.77,2.77,0,0,1,1.34,1.61c.27,1.07.81,3.22-.27,4.56s-1.07,1.07-1.34,2.68-3.22,1.88-3.22,1.88,0,2.14-.81,2.14-3.49.54-4.56.54-2.68.27-3.49-.27a7,7,0,0,1-1.61-2.14s-2.68,0-3.49-1.07a7.93,7.93,0,0,1-1.61-4c-.27-1.88-.54-3.22-.54-4s1.08-1.34,1.88-1.61Z" style="fill:none;stroke:#000;stroke-miterlimit:2.613126039505005;stroke-width:1.1252000050578652px"/><line x1="135.19" y1="133.52" x2="135.72" y2="137.27" style="fill:none;stroke:#000;stroke-miterlimit:2.613126039505005;stroke-width:0.49999998749999996px"/><line x1="139.3" y1="131.38" x2="142.69" y2="131.89" style="fill:none;stroke:#000;stroke-miterlimit:2.613126039505005;stroke-width:0.5238666403457164px"/><path d="M138.14,126.54a19.34,19.34,0,0,0,1.88-3" style="fill:none;stroke:#000;stroke-miterlimit:2.613126039505005;stroke-width:0.49999998749999996px"/><line x1="132.51" y1="126" x2="130.09" y2="124.13" style="fill:none;stroke:#000;stroke-miterlimit:2.613126039505005;stroke-width:0.49999998749999996px"/><line x1="131.97" y1="130.3" x2="128.75" y2="132.17" style="fill:none;stroke:#000;stroke-miterlimit:2.613126039505005;stroke-width:0.49999998749999996px"/><path d="M111,153.1,76.23,184.42s4.5,11.06,5.31,12.4S111,170.53,111,170.53l27.9,26.29s7.24-10.19,7.24-11.53L111,153.1Z" style="fill:#f8341d;fill-rule:evenodd"/><path d="M85.29,149.88l.27,4.83s2.15.27,2.15-1.07-1.34-3.22-.81-4.56,4.29-2.14,5.63-.54,2.14,2.68,1.88,3.76a3.23,3.23,0,0,1-2.68,1.88c-.8,0-1.61-1.07-2.41.27S93.61,156,93.61,156s-3.22-.27-4,.27-1.34,2.14,0,1.88,0,1.88,1.88.54,3.49-2.41,4.29-1.34,1.07,3.76-1.34,6.17-3.76-.54-3.76-.54.54-2.41-.54-2.68-3.22-1.07-2.68,0l2.14,4.29s-2.68-3.22-3.49-2.68a1.69,1.69,0,0,0-.54,2.41,5.55,5.55,0,0,0,2.15,1.88s1.61,1.61.27,2.41-2.68.8-4.56.8-3.76-1.61-3.22-2.41,2.14-.27,2.68-2.41,0-2.68,0-2.68l-3.22,2.41,2.68-4.29s-.27-1.88-1.61-.8a5.24,5.24,0,0,0-2.15,3.49c-.54,1.88-2.68,1.34-4-.27s-2.68-5.09-1.34-5.36,3.76-.8,4.29.54,3-.27,3-.27L77.78,155l2.41.27s1.07-1.07,0-1.88-3.49,1.07-4.29.27-.54-4,1.61-5.1,4.56-1.61,4.56-.8,1.07,1.34.27,3.49-.27,2.95.81,2.95,2.15-4.29,2.15-4.29Z" style="fill:#f8341d;fill-rule:evenodd"/><path d="M85.29,149.88l.27,4.83s2.15.27,2.15-1.07-1.34-3.22-.81-4.56,4.29-2.14,5.63-.54,2.14,2.68,1.88,3.76a3.23,3.23,0,0,1-2.68,1.88c-.8,0-1.61-1.07-2.41.27S93.61,156,93.61,156s-3.22-.27-4,.27-1.34,2.14,0,1.88,0,1.88,1.88.54,3.49-2.41,4.29-1.34,1.07,3.76-1.34,6.17-3.76-.54-3.76-.54.54-2.41-.54-2.68-3.22-1.07-2.68,0l2.14,4.29s-2.68-3.22-3.49-2.68a1.69,1.69,0,0,0-.54,2.41,5.55,5.55,0,0,0,2.15,1.88s1.61,1.61.27,2.41-2.68.8-4.56.8-3.76-1.61-3.22-2.41,2.14-.27,2.68-2.41,0-2.68,0-2.68l-3.22,2.41,2.68-4.29s-.27-1.88-1.61-.8a5.24,5.24,0,0,0-2.15,3.49c-.54,1.88-2.68,1.34-4-.27s-2.68-5.09-1.34-5.36,3.76-.8,4.29.54,3-.27,3-.27L77.78,155l2.41.27s1.07-1.07,0-1.88-3.49,1.07-4.29.27-.54-4,1.61-5.1,4.56-1.61,4.56-.8,1.07,1.34.27,3.49-.27,2.95.81,2.95,2.15-4.29,2.15-4.29Z" style="fill:none;stroke:#000;stroke-miterlimit:2.613126039505005;stroke-width:0.49999998749999996px"/><ellipse cx="84.76" cy="157.79" rx="1.61" ry="1.48" style="fill:#f8341d"/><ellipse cx="84.76" cy="157.79" rx="1.61" ry="1.48" style="fill:none;stroke:#000;stroke-miterlimit:2.613126039505005;stroke-width:0.5627999959753691px"/><path d="M136.26,150.15l.27,4.83s2.15.27,2.15-1.07-1.34-3.22-.81-4.56,4.29-2.14,5.63-.54,2.14,2.68,1.88,3.75a3.23,3.23,0,0,1-2.68,1.88c-.8,0-1.61-1.07-2.41.27s4.29,1.61,4.29,1.61-3.22-.27-4,.27-1.34,2.15,0,1.88,0,1.88,1.88.54,3.49-2.41,4.29-1.34,1.07,3.76-1.34,6.17-3.75-.54-3.75-.54.54-2.41-.54-2.68-3.22-1.07-2.68,0l2.15,4.29s-2.68-3.22-3.49-2.68a1.69,1.69,0,0,0-.54,2.41,5.56,5.56,0,0,0,2.15,1.88s1.61,1.61.27,2.41-2.68.8-4.56.8-3.75-1.61-3.22-2.41,2.14-.27,2.68-2.41,0-2.68,0-2.68l-3.22,2.41,2.68-4.29s-.27-1.88-1.61-.8a5.24,5.24,0,0,0-2.15,3.49c-.54,1.88-2.68,1.34-4-.27s-2.68-5.1-1.34-5.37,3.76-.8,4.29.54,3-.27,3-.27l-2.68-2.41,2.41.27s1.07-1.07,0-1.88-3.49,1.07-4.29.27-.54-4,1.61-5.1S133,147.2,133,148s1.07,1.34.27,3.49-.27,3,.81,3,2.15-4.29,2.15-4.29Z" style="fill:#f8341d;fill-rule:evenodd"/><path d="M136.26,150.15l.27,4.83s2.15.27,2.15-1.07-1.34-3.22-.81-4.56,4.29-2.14,5.63-.54,2.14,2.68,1.88,3.75a3.23,3.23,0,0,1-2.68,1.88c-.8,0-1.61-1.07-2.41.27s4.29,1.61,4.29,1.61-3.22-.27-4,.27-1.34,2.15,0,1.88,0,1.88,1.88.54,3.49-2.41,4.29-1.34,1.07,3.76-1.34,6.17-3.75-.54-3.75-.54.54-2.41-.54-2.68-3.22-1.07-2.68,0l2.15,4.29s-2.68-3.22-3.49-2.68a1.69,1.69,0,0,0-.54,2.41,5.56,5.56,0,0,0,2.15,1.88s1.61,1.61.27,2.41-2.68.8-4.56.8-3.75-1.61-3.22-2.41,2.14-.27,2.68-2.41,0-2.68,0-2.68l-3.22,2.41,2.68-4.29s-.27-1.88-1.61-.8a5.24,5.24,0,0,0-2.15,3.49c-.54,1.88-2.68,1.34-4-.27s-2.68-5.1-1.34-5.37,3.76-.8,4.29.54,3-.27,3-.27l-2.68-2.41,2.41.27s1.07-1.07,0-1.88-3.49,1.07-4.29.27-.54-4,1.61-5.1S133,147.2,133,148s1.07,1.34.27,3.49-.27,3,.81,3,2.15-4.29,2.15-4.29Z" style="fill:none;stroke:#000;stroke-miterlimit:2.613126039505005;stroke-width:0.49999998749999996px"/><ellipse cx="135.72" cy="158.06" rx="1.61" ry="1.47" style="fill:#f8341d"/><ellipse cx="135.72" cy="158.06" rx="1.61" ry="1.47" style="fill:none;stroke:#000;stroke-miterlimit:2.613126039505005;stroke-width:0.5627999959753691px"/><path d="M92,202.46s4.83,1.34,5.37,3.22,1.34,5.1,1.34,5.1,23.07.8,24.41.54,3-3.22,3.22-4.29,2.15-2.68,2.15-3.49-2.41-.81-4.56,0a20.56,20.56,0,0,1-8.85,1.61c-4.83,0-11.54.54-13.95,0s-3.22-2.41-9.12-2.68Z" style="fill:#b3601a;fill-rule:evenodd"/><path d="M92,202.46s4.83,1.34,5.37,3.22,1.34,5.1,1.34,5.1,23.07.8,24.41.54,3-3.22,3.22-4.29,2.15-2.68,2.15-3.49-2.41-.81-4.56,0a20.56,20.56,0,0,1-8.85,1.61c-4.83,0-11.54.54-13.95,0s-3.22-2.41-9.12-2.68Z" style="fill:none;stroke:#000;stroke-miterlimit:2.613126039505005;stroke-width:1.1252000050578652px"/><line x1="103.27" y1="180.73" x2="101.93" y2="205.67" style="fill:none;stroke:#000;stroke-miterlimit:2.613126039505005;stroke-width:1.1252000050578652px"/><line x1="118.02" y1="180.46" x2="116.95" y2="205.4" style="fill:none;stroke:#000;stroke-miterlimit:2.613126039505005;stroke-width:1.1252000050578652px"/><path d="M103.27,184.21Zm0,0s-13.95,13.41-13.95,15.56,5.1.54,6.44,1.07" style="fill:#fff;fill-rule:evenodd"/><path d="M103.27,184.21Zm0,0s-13.95,13.41-13.95,15.56,5.1.54,6.44,1.07" style="fill:none;stroke:#000;stroke-miterlimit:2.613126039505005;stroke-width:1.1252000050578652px"/><path d="M118,187.43Zm0,0,3.6-2.52,1.77-1.24v3c0,2.15.27,8.58,1.61,10.73s3.22,3.76,2.15,4a36.67,36.67,0,0,1-6.17,1.07,13.27,13.27,0,0,1-3.76-.81l-1.34.27s-.8-.81-3.49-.81-4,.81-7.24.81-7,.8-8.58-.27,0-3.49,1.07-6.17,6.71-5.37,10.19-9.12,9.93-5.1,9.93-5.1l3.86,3.65" style="fill:#fff;fill-rule:evenodd"/><path d="M118,187.43Zm0,0,3.6-2.52,1.77-1.24v3c0,2.15.27,8.58,1.61,10.73s3.22,3.76,2.15,4a36.67,36.67,0,0,1-6.17,1.07,13.27,13.27,0,0,1-3.76-.81l-1.34.27s-.8-.81-3.49-.81-4,.81-7.24.81-7,.8-8.58-.27,0-3.49,1.07-6.17,6.71-5.37,10.19-9.12,9.93-5.1,9.93-5.1l3.86,3.65" style="fill:none;stroke:#000;stroke-miterlimit:2.613126039505005;stroke-width:1.1252000050578652px"/><line x1="103.27" y1="184.75" x2="107.83" y2="186.36" style="fill:none;stroke:#000;stroke-miterlimit:2.613126039505005;stroke-width:1.1252000050578652px"/><path d="M111,186.09s1.07,12.07,4.29,15" style="fill:none;stroke:#000;stroke-miterlimit:2.613126039505005;stroke-width:1.1252000050578652px"/><path d="M107.83,189.85s.54,7.24,5.9,9.66" style="fill:none;stroke:#000;stroke-miterlimit:2.613126039505005;stroke-width:1.1252000050578652px"/><path d="M119.36,194.14s.8,7,.8,7.78" style="fill:none;stroke:#000;stroke-miterlimit:2.613126039505005;stroke-width:1.1252000050578652px"/><path d="M121.24,193.33s1.34,4.29,3.22,5.9" style="fill:none;stroke:#000;stroke-miterlimit:2.613126039505005;stroke-width:1.1252000050578652px"/><path d="M132.51,126s0-1.61,1.34-1.61,2.68-.54,3.49,0,.27,1.88.27,1.88l2.15.54a25.92,25.92,0,0,1,.54,3.22c0,.8-1.34,1.07-1.34,1.07l.27,1.61-2.41,1.34-1.61-.54-1.61.8-2.41-2.41.81-1.61-1.61-.27a3.3,3.3,0,0,1,.27-2.68,3.74,3.74,0,0,1,1.88-1.34Z" style="fill:#d2439b;fill-rule:evenodd"/><path d="M132.51,126s0-1.61,1.34-1.61,2.68-.54,3.49,0,.27,1.88.27,1.88l2.15.54a25.92,25.92,0,0,1,.54,3.22c0,.8-1.34,1.07-1.34,1.07l.27,1.61-2.41,1.34-1.61-.54-1.61.8-2.41-2.41.81-1.61-1.61-.27a3.3,3.3,0,0,1,.27-2.68,3.74,3.74,0,0,1,1.88-1.34Z" style="fill:none;stroke:#000;stroke-miterlimit:2.613126039505005;stroke-width:0.49999998749999996px"/><circle cx="135.32" cy="129.36" r="1.74" style="fill:#b0512f"/><circle cx="135.32" cy="129.36" r="1.74" style="fill:none;stroke:#000;stroke-miterlimit:2.613126039505005;stroke-width:0.5627999959753691px"/><path d="M153.43,116.35v-3.22H69.74S68.39,156,68.39,163.29s3.49,22.26,9.12,31.92,21.19,22.53,24.14,24.41a96.43,96.43,0,0,0,8.85,4.56s13.68-6.7,16.63-9.92,10.46-8.31,15.56-17.7,7.78-12.88,9.66-22.8.54-29.78.54-29.78l.48-27.63ZM147.53,181c-3.22,10.19-12.88,23.34-19.31,28.7s-18,11.8-18,11.8-19.31-9.39-27.9-23.34-12-31.55-11.77-38.18c.2-5.48.78-34,1-43.64h78.62l-.5,39.16s1.07,15.29-2.14,25.48Z" style="fill-rule:evenodd"/><path d="M153.43,116.35v-3.22H69.74S68.39,156,68.39,163.29s3.49,22.26,9.12,31.92,21.19,22.53,24.14,24.41a96.43,96.43,0,0,0,8.85,4.56s13.68-6.7,16.63-9.92,10.46-8.31,15.56-17.7,7.78-12.88,9.66-22.8.54-29.78.54-29.78l.48-27.63ZM147.53,181c-3.22,10.19-12.88,23.34-19.31,28.7s-18,11.8-18,11.8-19.31-9.39-27.9-23.34-12-31.55-11.77-38.18c.2-5.48.78-34,1-43.64h78.62l-.5,39.16s1.07,15.29-2.14,25.48Z" style="fill:none;stroke:#000;stroke-miterlimit:2.613126039505005;stroke-width:0.8001332877715288px"/><polygon points="110.29 37.56 115.96 37.83 115.56 62.81 107.23 63.14 108.36 41.89 110.29 37.56" style="fill:#4a8418;fill-rule:evenodd"/><polygon points="110.29 37.56 115.96 37.83 115.56 62.81 107.23 63.14 108.36 41.89 110.29 37.56" style="fill:none;stroke:#000;stroke-miterlimit:2.613126039505005;stroke-width:1.1252000050578652px"/><path d="M106.9,23s-1-.27-1.4,1.4c0,0-1,.2-1.33,1.8,0,0-.8-.07-1.13,1.33,0,0-1.27.13-1,1.93,0,0,1.13,1.27,1.87,1.93l4.33.28-.4-8.53Zm11.66,10.59a8.87,8.87,0,0,0-.2,3.4c.33,1.27,10.53,19.92,11.26,21.52s.8,2.27.6,3.07-5.6,3.13-8.4,2.13-1.53-1-1.8-3.26-3.46-17.06-4.53-18.06-1.27-.4-1.27-.4l.33-4.93,3.73-3.8Z" style="fill:#fee591;fill-rule:evenodd"/><path d="M106.9,23s-1-.27-1.4,1.4c0,0-1,.2-1.33,1.8,0,0-.8-.07-1.13,1.33,0,0-1.27.13-1,1.93,0,0,1.13,1.27,1.87,1.93l4.33.28-.4-8.53Zm11.66,10.59a8.87,8.87,0,0,0-.2,3.4c.33,1.27,10.53,19.92,11.26,21.52s.8,2.27.6,3.07-5.6,3.13-8.4,2.13-1.53-1-1.8-3.26-3.46-17.06-4.53-18.06-1.27-.4-1.27-.4l.33-4.93,3.73-3.8Z" style="fill:none;stroke:#000;stroke-miterlimit:2.613126039505005;stroke-width:1.1252000050578652px"/><path d="M103.55,6.45s-.6,10.19,0,10.93,2.13,1.93,3,1.93,5.6-1.07,5.6-1.07-3.2-3.86-4.86-5.93a30.3,30.3,0,0,1-3.73-5.86Z" style="fill:#f8341d;fill-rule:evenodd"/><path d="M103.55,6.45s-.6,10.19,0,10.93,2.13,1.93,3,1.93,5.6-1.07,5.6-1.07-3.2-3.86-4.86-5.93a30.3,30.3,0,0,1-3.73-5.86Z" style="fill:none;stroke:#000;stroke-miterlimit:2.613126039505005;stroke-width:0.49999998749999996px"/><path d="M106,1.72A19.12,19.12,0,0,0,105.88,6c.27,1.4,1.46,4.46.53,6.8s.87,6.4,2.27,6.46,4.4-.07,4.66-.8-.07-9.73-2.27-11.13-4.6-2.73-5.07-5.66Z" style="fill:#f8341d;fill-rule:evenodd"/><path d="M106,1.72A19.12,19.12,0,0,0,105.88,6c.27,1.4,1.46,4.46.53,6.8s.87,6.4,2.27,6.46,4.4-.07,4.66-.8-.07-9.73-2.27-11.13-4.6-2.73-5.07-5.66Z" style="fill:none;stroke:#000;stroke-miterlimit:2.613126039505005;stroke-width:0.49999998749999996px"/><path d="M113,.25s-3,5.13-2.8,6.73-.33,7.06.2,8.79,1.6,2.67,2.93,2.73,1.2-.27,2-.6.53-10.66-.73-12.26S112.61,1.12,113,.25Z" style="fill:#f8341d;fill-rule:evenodd"/><path d="M113,.25s-3,5.13-2.8,6.73-.33,7.06.2,8.79,1.6,2.67,2.93,2.73,1.2-.27,2-.6.53-10.66-.73-12.26S112.61,1.12,113,.25Z" style="fill:none;stroke:#000;stroke-miterlimit:2.613126039505005;stroke-width:0.49999998749999996px"/><path d="M118.94,3.72s-4.8,1.8-4.93,6.06-.73,8.13-.4,8.79,2.6,1.33,3.73.53,2.33-4.26,1.93-7.53a16.26,16.26,0,0,0-1.2-5,2.67,2.67,0,0,1,.87-2.87Z" style="fill:#f8341d;fill-rule:evenodd"/><path d="M118.94,3.72s-4.8,1.8-4.93,6.06-.73,8.13-.4,8.79,2.6,1.33,3.73.53,2.33-4.26,1.93-7.53a16.26,16.26,0,0,0-1.2-5,2.67,2.67,0,0,1,.87-2.87Z" style="fill:none;stroke:#000;stroke-miterlimit:2.613126039505005;stroke-width:0.49999998749999996px"/><path d="M106,19.69a27,27,0,0,1,4.53-.6c1.8,0,5.4,0,6.8.6l-.27,1.93-.87-.13a35.18,35.18,0,0,0-8.46,0l-1.07.13Z" style="fill:#4a8418;fill-rule:evenodd"/><path d="M106,19.69a27,27,0,0,1,4.53-.6c1.8,0,5.4,0,6.8.6l-.27,1.93-.87-.13a35.18,35.18,0,0,0-8.46,0l-1.07.13Z" style="fill:none;stroke:#000;stroke-miterlimit:2.613126039505005;stroke-width:1.1252000050578652px"/><path d="M107.36,22s1.56,20.47,1.73,22.39c.27,2.93,2.13,17.79,2.13,17.79l3.93-29.58L116.36,22a30.29,30.29,0,0,0-9,.06Z" style="fill:#4a8418;fill-rule:evenodd"/><path d="M107.36,22s1.56,20.47,1.73,22.39c.27,2.93,2.13,17.79,2.13,17.79l3.93-29.58L116.36,22a30.29,30.29,0,0,0-9,.06Z" style="fill:none;stroke:#000;stroke-miterlimit:2.613126039505005;stroke-width:1.1252000050578652px"/><path d="M107.16,25.83A12.56,12.56,0,0,1,106,28.56c-.47.53-2.33,2.33-2.33,4.46s-1.4,5.93-2.47,7.86-8.39,16.12-9,19.26,4.8,6.4,6.13,6.4,3.2-2.13,4-4.26,3.73-13.13,4.06-15.39,1.73-5.26,2.66-6.06,2.53.2,4.73-2.86c0,0,4.73-4.33,4.67-5.33s-.27-2.6-.27-2.6.53-1.67,0-2.27.53-2.33-.33-2.66.07-.8-.93-.73-.87,0-.87,0,.47,1.46-2.27,3.46-4.6,3.26-5.6,2.73-1.07-4.73-1.07-4.73Z" style="fill:#987744;fill-rule:evenodd"/><path d="M107.16,25.83A12.56,12.56,0,0,1,106,28.56c-.47.53-2.33,2.33-2.33,4.46s-1.4,5.93-2.47,7.86-8.39,16.12-9,19.26,4.8,6.4,6.13,6.4,3.2-2.13,4-4.26,3.73-13.13,4.06-15.39,1.73-5.26,2.66-6.06,2.53.2,4.73-2.86c0,0,4.73-4.33,4.67-5.33s-.27-2.6-.27-2.6.53-1.67,0-2.27.53-2.33-.33-2.66.07-.8-.93-.73-.87,0-.87,0,.47,1.46-2.27,3.46-4.6,3.26-5.6,2.73-1.07-4.73-1.07-4.73Z" style="fill:none;stroke:#000;stroke-miterlimit:2.613126039505005;stroke-width:1.1252000050578652px"/><path d="M111.36,25.16s2.73,1.13,2.73,1.87-1.2,1.13-1.2,1.13-2-1.26-1.53-3Z" style="fill:#fee591;fill-rule:evenodd"/><path d="M111.36,25.16s2.73,1.13,2.73,1.87-1.2,1.13-1.2,1.13-2-1.26-1.53-3Z" style="fill:none;stroke:#000;stroke-miterlimit:2.613126039505005;stroke-width:1.1252000050578652px"/><path d="M167.72,93.06c1.19.09,2.3,1.09,3.56,1.94a8.4,8.4,0,0,0,2.31.94,3.93,3.93,0,0,0-.63-.09c-1.69,0-3.94,2-5.91,3.94s-4.78,11-4.78,11l-.53,1.47c.57-2,1.17-4.26,1.66-5.41.84-2,1.41-12.66,3.09-13.5a2.27,2.27,0,0,1,1.22-.25ZM167,89.85a8.89,8.89,0,0,0-4.19.94c-1.69,1.13-2.53,7.87-2.81,9.84-.12.82-.57,3.48-1.06,6.31-.58-3.44-2.25-8.61-4.28-10-2.53-1.69-4.5-1.41-5.34,1.13s-3.66,8.16-3.66,8.16,3.66-4.22,5.34-4.78,2.25,1.41,2.25,2.53c0,.25.12,1.08.31,2.22a2.94,2.94,0,0,0-3.41-.25c-3.38,2-11,6.19-11,6.19h.84l6.75-2.25c1.69-.56,4.22.84,5.34,2.53.17.26.39.64.66,1.06s1.59,1.47,1.59,3.44c.36.59.59,4.36.84,4.78a4.11,4.11,0,0,1,.41,2.34h6.13c.79-4.06,2-7.47,3-8.53,1.69-1.69,2.53-1.12,4.5-2.81s5.62,0,6.75,0,3.94-.84,1.13-1.69-4.78-1.69-8.72-1.69a5,5,0,0,0-2.34.56,23.63,23.63,0,0,1,1.5-3.66c1.41-2.53,3.94-6.47,5.91-6.75s10.41-.84,10.41-.84c-2,0-6.88-1.83-9.53-2.53,1.64.32,3,.26,2.22-.56-1.41-1.41-4.22-3.37-5.63-4.78-.7-.7-2.32-1-4-.94Z" style="fill:#4a8418;fill-rule:evenodd"/><path d="M167.72,93.06c1.19.09,2.3,1.09,3.56,1.94a8.4,8.4,0,0,0,2.31.94,3.93,3.93,0,0,0-.63-.09c-1.69,0-3.94,2-5.91,3.94s-4.78,11-4.78,11l-.53,1.47c.57-2,1.17-4.26,1.66-5.41.84-2,1.41-12.66,3.09-13.5a2.27,2.27,0,0,1,1.22-.25ZM167,89.85a8.89,8.89,0,0,0-4.19.94c-1.69,1.13-2.53,7.87-2.81,9.84-.12.82-.57,3.48-1.06,6.31-.58-3.44-2.25-8.61-4.28-10-2.53-1.69-4.5-1.41-5.34,1.13s-3.66,8.16-3.66,8.16,3.66-4.22,5.34-4.78,2.25,1.41,2.25,2.53c0,.25.12,1.08.31,2.22a2.94,2.94,0,0,0-3.41-.25c-3.38,2-11,6.19-11,6.19h.84l6.75-2.25c1.69-.56,4.22.84,5.34,2.53.17.26.39.64.66,1.06s1.59,1.47,1.59,3.44c.36.59.59,4.36.84,4.78a4.11,4.11,0,0,1,.41,2.34h6.13c.79-4.06,2-7.47,3-8.53,1.69-1.69,2.53-1.12,4.5-2.81s5.62,0,6.75,0,3.94-.84,1.13-1.69-4.78-1.69-8.72-1.69a5,5,0,0,0-2.34.56,23.63,23.63,0,0,1,1.5-3.66c1.41-2.53,3.94-6.47,5.91-6.75s10.41-.84,10.41-.84c-2,0-6.88-1.83-9.53-2.53,1.64.32,3,.26,2.22-.56-1.41-1.41-4.22-3.37-5.63-4.78-.7-.7-2.32-1-4-.94Z" style="fill:none;stroke:#000;stroke-miterlimit:2.613126039505005;stroke-width:1.1252000050578652px"/><path d="M155.63,124.66c-.05.68-.09,1.56-.09,3.25,0,5.63-.56,35.75-.28,42.22s-3.38,39.94-3.38,39.94c9.28.28,13.22-2,13.22-2S162,175.19,162,167.88s-1.41-29.56-1.13-36.31a50.45,50.45,0,0,1,.78-6.91h-6Z" style="fill:#ad8b05;fill-rule:evenodd"/><path d="M155.63,124.66c-.05.68-.09,1.56-.09,3.25,0,5.63-.56,35.75-.28,42.22s-3.38,39.94-3.38,39.94c9.28.28,13.22-2,13.22-2S162,175.19,162,167.88s-1.41-29.56-1.13-36.31a50.45,50.45,0,0,1,.78-6.91h-6Z" style="fill:none;stroke:#000;stroke-miterlimit:2.613126039505005;stroke-width:1.1252000050578652px"/><path d="M157.77,114.7Zm0,0v31.22c0,4.5-.28,64.14-.28,64.14" style="fill:#fee591;fill-rule:evenodd"/><path d="M157.77,114.7Zm0,0v31.22c0,4.5-.28,64.14-.28,64.14" style="fill:none;stroke:#000;stroke-miterlimit:2.613126039505005;stroke-width:1.1252000050578652px"/><path d="M161.71,157.74Zm0,0s.28,50.07.56,50.91m-10.13-2.53,5.63-.56m0,1.69,4.5-.84h2.81m-11.81-6.47h4.78m-.84,1.69,4.5-.28h3.09m-10.41-9.56,3.66.28m-.56,2.81s1.09-.16,2.39-.27c1.71-.15,3.76-.21,4.08.27m-9.28-9,2.81.28m.28,1.69h5.63M155,179.4h2.53m0,3.66,5.06.28m-4.78-7.88,4.5.56m-6.75-3.94,1.69.28m.84-2.25,3.94-.56m-6.75-3.09h2.25m.56-1.69h3.38M155,161.39h2.25m.56-2.81h3.38m-5.91-2,2.53.28m.56-3.94H162m-6.75-1.69,2.25-.56m.56-3.38,2.81.28m-5.91-2,2.81.28m.56-2.81,2.81-.28m-5.63-3.09h2.25m.28-2h2.81m-5.63-2.25,2.25-1.13m.28-1.69L160,133m-4.5-2.53,1.69-.28m.84-3.94,2.81.28" style="fill-rule:evenodd;opacity:0"/><path d="M161.71,157.74Zm0,0s.28,50.07.56,50.91m-10.13-2.53,5.63-.56m0,1.69,4.5-.84h2.81m-11.81-6.47h4.78m-.84,1.69,4.5-.28h3.09m-10.41-9.56,3.66.28m-.56,2.81s1.09-.16,2.39-.27c1.71-.15,3.76-.21,4.08.27m-9.28-9,2.81.28m.28,1.69h5.63M155,179.4h2.53m0,3.66,5.06.28m-4.78-7.88,4.5.56m-6.75-3.94,1.69.28m.84-2.25,3.94-.56m-6.75-3.09h2.25m.56-1.69h3.38M155,161.39h2.25m.56-2.81h3.38m-5.91-2,2.53.28m.56-3.94H162m-6.75-1.69,2.25-.56m.56-3.38,2.81.28m-5.91-2,2.81.28m.56-2.81,2.81-.28m-5.63-3.09h2.25m.28-2h2.81m-5.63-2.25,2.25-1.13m.28-1.69L160,133m-4.5-2.53,1.69-.28m.84-3.94,2.81.28" style="fill:none;stroke:#000;stroke-miterlimit:2.613126039505005;stroke-width:1.1252000050578652px"/><path d="M63,103.45s3.09-5.91,7.31-8.16,9.28-2.53,11-.84,2,4.78,2,4.78-1.35-.07-2.8-.18A24.7,24.7,0,0,1,77,98.66c-.84-.28,5.06,2.25,2.25,2.25a13.27,13.27,0,0,1-4.78-.84l2.25,2.25A21.88,21.88,0,0,1,73.1,102c-1.13-.28-4.22,1.13-4.22,1.13l2,.84a12.18,12.18,0,0,1-3.09,1.13c-.84,0-.28,2-.28,2a20.36,20.36,0,0,1,4.22-.28c3.09,0,8.16-.28,10.13,1.41a33.39,33.39,0,0,1,4.5,5.63s-3.38-.56-4.78-1.69a12.46,12.46,0,0,0-2.81-1.69s1.69,2.25,1.13,3.38-3.09-1.13-3.09-1.13l-3.09-3.66a4.93,4.93,0,0,0-.28,2.81c.28,1.69-3.38-1.69-3.38-1.69l.84,3.66-1.69,2.81s-1.13.84-2,0a22.39,22.39,0,0,1-2.25-3.38l-1.13,2-1.41-1.41v1.41l-1.69-.84-1.13,1.13-1.69-2L57.63,111l-.84.84L54.25,111l-1.41,1.41L51.72,111l-1.13,1.13-3.38.56s-1.69,1.41-3.09.56a6.46,6.46,0,0,1-2-1.69l-1.69-1.41s3.38-2.25,6.19-2.53,7.31-.28,8.72-.28h2.53l-5.34-2.81,2.25-.56h2.25s-2.25-2-3.94-2,2.81-2,2.81-2l-6.19.84,2.53-2.25-5.06,1.41,3.09-3.94-7.59,2.81s.56-2.53,2.25-2.81-6.47.84-7.59,1.41-.56-2.81,4.22-4.22,7.88-2,11.25-1.13c2.2.55,7.31,3.38,10.13,11.25Z" style="fill:#4a8418;fill-rule:evenodd"/><path d="M63,103.45s3.09-5.91,7.31-8.16,9.28-2.53,11-.84,2,4.78,2,4.78-1.35-.07-2.8-.18A24.7,24.7,0,0,1,77,98.66c-.84-.28,5.06,2.25,2.25,2.25a13.27,13.27,0,0,1-4.78-.84l2.25,2.25A21.88,21.88,0,0,1,73.1,102c-1.13-.28-4.22,1.13-4.22,1.13l2,.84a12.18,12.18,0,0,1-3.09,1.13c-.84,0-.28,2-.28,2a20.36,20.36,0,0,1,4.22-.28c3.09,0,8.16-.28,10.13,1.41a33.39,33.39,0,0,1,4.5,5.63s-3.38-.56-4.78-1.69a12.46,12.46,0,0,0-2.81-1.69s1.69,2.25,1.13,3.38-3.09-1.13-3.09-1.13l-3.09-3.66a4.93,4.93,0,0,0-.28,2.81c.28,1.69-3.38-1.69-3.38-1.69l.84,3.66-1.69,2.81s-1.13.84-2,0a22.39,22.39,0,0,1-2.25-3.38l-1.13,2-1.41-1.41v1.41l-1.69-.84-1.13,1.13-1.69-2L57.63,111l-.84.84L54.25,111l-1.41,1.41L51.72,111l-1.13,1.13-3.38.56s-1.69,1.41-3.09.56a6.46,6.46,0,0,1-2-1.69l-1.69-1.41s3.38-2.25,6.19-2.53,7.31-.28,8.72-.28h2.53l-5.34-2.81,2.25-.56h2.25s-2.25-2-3.94-2,2.81-2,2.81-2l-6.19.84,2.53-2.25-5.06,1.41,3.09-3.94-7.59,2.81s.56-2.53,2.25-2.81-6.47.84-7.59,1.41-.56-2.81,4.22-4.22,7.88-2,11.25-1.13c2.2.55,7.31,3.38,10.13,11.25Z" style="fill:none;stroke:#000;stroke-miterlimit:2.613126039505005;stroke-width:1.1252000050578652px"/><path d="M60.72,114.42s2,16,1.13,21.94-2.25,25.32-2.25,30.38-2.53,41.91-2.53,41.91,5.34,1.41,6.75.28,0-.84,0-.84.56-36,.84-39.38,1.41-27.29,1.13-30.38.56-9-.28-25.88c0,0-1.41-2.81-4.78,2Z" style="fill:#ad8b05;fill-rule:evenodd"/><path d="M60.72,114.42s2,16,1.13,21.94-2.25,25.32-2.25,30.38-2.53,41.91-2.53,41.91,5.34,1.41,6.75.28,0-.84,0-.84.56-36,.84-39.38,1.41-27.29,1.13-30.38.56-9-.28-25.88c0,0-1.41-2.81-4.78,2Z" style="fill:none;stroke:#000;stroke-miterlimit:2.613126039505005;stroke-width:1.1252000050578652px"/><path d="M65.79,134.11s-1.69,4.22-3.09,5.34,2.53.56,3.09-1.13a9.72,9.72,0,0,0,0-4.22m0,7s-2,4.22-3.66,3.94c0,0,3.38,1.41,3.66,0A17.13,17.13,0,0,0,65.79,141.14Zm.28,5.63s-2.53,2.53-4.5,3.09c0,0,2.81,1.13,3.94,0s.56-3.09.56-3.09ZM65.51,151s-1.13,4.78-3.38,4.78c0,0,2,.84,3.09,0S65.51,151,65.51,151Zm-.56,6.19a6,6,0,0,1-2.81,3.09c-2,.84,3.09.28,3.09.28Zm.28,5.06s-2,5.63-4.22,5.91,3.09-.84,3.09-.84l.84-.28Zm-.56,6.47s-1.13,5.06-3.09,5.06a2.7,2.7,0,0,0,2.81-.84C65.79,171.52,64.66,168.71,64.66,168.71Zm0,6.75s-.56,4.5-2.81,4.78L64.1,180l.56-4.5Zm-.28,6.19s-1.13,4.22-4.5,5.06c0,0,3.38.28,4.5-.28Zm-.56,5.91s-1.13,7.31-2.81,7.88c0,0,3.09.28,3.38-.56s-.56-7.31-.56-7.31Zm.28,9s-2,5.06-4.5,5.06h4.78Zm0,7s-1.69,4.78-5.34,5.06a8.15,8.15,0,0,0,5.06.28Z" style="fill:#221c17"/><path d="M36.57,189A22.09,22.09,0,0,1,38,197.4c-.28,4.22-2,5.63-.56,6.75s3.94,4.5,6.47,4.78,4.22,2.53,3.66,3.94.28,2,.28,2,3.23-2.15,3.1-3.82a1.2,1.2,0,0,0-.28-.68c-1.41-1.69,3.94-.28,5.06,2,0,0,0-4.5-1.69-5.06a1.94,1.94,0,0,1,2.53.56c1.13,1.41,0-3.38-2.53-3.94a49.58,49.58,0,0,0-5.63-1.13c-2.25-.28-3.94.84-5.63-1.13s-1.69-9.56-1.69-13.78L36.57,189Z" style="fill:#d35226;fill-rule:evenodd"/><path d="M36.57,189A22.09,22.09,0,0,1,38,197.4c-.28,4.22-2,5.63-.56,6.75s3.94,4.5,6.47,4.78,4.22,2.53,3.66,3.94.28,2,.28,2,3.23-2.15,3.1-3.82a1.2,1.2,0,0,0-.28-.68c-1.41-1.69,3.94-.28,5.06,2,0,0,0-4.5-1.69-5.06a1.94,1.94,0,0,1,2.53.56c1.13,1.41,0-3.38-2.53-3.94a49.58,49.58,0,0,0-5.63-1.13c-2.25-.28-3.94.84-5.63-1.13s-1.69-9.56-1.69-13.78L36.57,189Z" style="fill:none;stroke:#000;stroke-miterlimit:2.613126039505005;stroke-width:1.1252000050578652px"/><path d="M46.13,139.17a3.21,3.21,0,0,1-3.94-2.25,11,11,0,0,1-.28-7.31L43,126.23s5.34-16,5.63-21.94-.56-5.06-.56-10.13,1.69-12.1,3.09-12.66c0,0-4.22-.28-4.78,1.41s-.56,14.63-2.25,20.82-1.69,1.41-1.69,1.41-2.53-13.5-1.13-19.69l.84-2.81s-4.78,1.13-5.06,4.78-.28,19.13-.28,22.22-1.41,1.69-1.41-.56-.56-16.32-.84-18-2.81-1.69-2.81-1.69-2,6.47-1.13,11a41.17,41.17,0,0,1,.84,5.63s-2.25-5.06-3.38-4.22-.56,10.13-.56,10.13l2,2.81s3.09,14.63,4.22,18.57,4.22,12.66,12.38,5.91Z" style="fill:#b3e2ee;fill-rule:evenodd"/><path d="M46.13,139.17a3.21,3.21,0,0,1-3.94-2.25,11,11,0,0,1-.28-7.31L43,126.23s5.34-16,5.63-21.94-.56-5.06-.56-10.13,1.69-12.1,3.09-12.66c0,0-4.22-.28-4.78,1.41s-.56,14.63-2.25,20.82-1.69,1.41-1.69,1.41-2.53-13.5-1.13-19.69l.84-2.81s-4.78,1.13-5.06,4.78-.28,19.13-.28,22.22-1.41,1.69-1.41-.56-.56-16.32-.84-18-2.81-1.69-2.81-1.69-2,6.47-1.13,11a41.17,41.17,0,0,1,.84,5.63s-2.25-5.06-3.38-4.22-.56,10.13-.56,10.13l2,2.81s3.09,14.63,4.22,18.57,4.22,12.66,12.38,5.91Z" style="fill:none;stroke:#000;stroke-miterlimit:2.613126039505005;stroke-width:1.1252000050578652px"/><path d="M32.91,123.7s-3.38-9.85-6.75-13.22-8.44-8.16-12.1-14.06c0,0-2.53-5.34-2.81-7.59s-3.38-2.25-3.38-2.25S6.47,91.07,6.75,93s-.28,3.09,1.41,6.19-4.22-5.06-4.22-5.06-2.81,5.06-.84,10.13,3.66,6.47,3.66,6.47-4.5-3.09-5.34-2.25-1.69,4.5.84,7.59a26.6,26.6,0,0,0,4.5,4.5s-5.34,0-5.63.84,1.41,3.38,2.25,5.06,2.53,4.5,3.94,4.78l1.41.28S4.5,133,4.5,134.39s2.25,2.53,2.25,2.53a34.47,34.47,0,0,0,4.5,1.13c.84,0-1.13,1.69-1.13,1.69S7.88,143.39,9,144s5.34.84,5.34.84S9,147.61,9.28,149.86s1.13,2.53,1.13,2.53,5.06-.28,5.91-1.13S14.63,158,16,158.58s5.91-1.13,5.91-1.13.28,3.66.28,5.06,3.09,1.69,4.78-2S29,167,29,167s-10.69,30.66-11,36.85a83.54,83.54,0,0,0,9.28-7.31c3.09-3.09,8.44-7.31,10.41-7a10.06,10.06,0,0,0,4.22-.56A11.57,11.57,0,0,1,45,184.18l5.34-5.34.28-19.41,2.25-11.25-2.25-8.72L37.7,142.55l-5.06-7.88.28-11Z" style="fill:#b3e2ee;fill-rule:evenodd"/><path d="M32.91,123.7s-3.38-9.85-6.75-13.22-8.44-8.16-12.1-14.06c0,0-2.53-5.34-2.81-7.59s-3.38-2.25-3.38-2.25S6.47,91.07,6.75,93s-.28,3.09,1.41,6.19-4.22-5.06-4.22-5.06-2.81,5.06-.84,10.13,3.66,6.47,3.66,6.47-4.5-3.09-5.34-2.25-1.69,4.5.84,7.59a26.6,26.6,0,0,0,4.5,4.5s-5.34,0-5.63.84,1.41,3.38,2.25,5.06,2.53,4.5,3.94,4.78l1.41.28S4.5,133,4.5,134.39s2.25,2.53,2.25,2.53a34.47,34.47,0,0,0,4.5,1.13c.84,0-1.13,1.69-1.13,1.69S7.88,143.39,9,144s5.34.84,5.34.84S9,147.61,9.28,149.86s1.13,2.53,1.13,2.53,5.06-.28,5.91-1.13S14.63,158,16,158.58s5.91-1.13,5.91-1.13.28,3.66.28,5.06,3.09,1.69,4.78-2S29,167,29,167s-10.69,30.66-11,36.85a83.54,83.54,0,0,0,9.28-7.31c3.09-3.09,8.44-7.31,10.41-7a10.06,10.06,0,0,0,4.22-.56A11.57,11.57,0,0,1,45,184.18l5.34-5.34.28-19.41,2.25-11.25-2.25-8.72L37.7,142.55l-5.06-7.88.28-11Z" style="fill:none;stroke:#000;stroke-miterlimit:2.613126039505005;stroke-width:1.1252000050578652px"/><path d="M51.76,111.32s-1.13-5.63-3.09-7-6.47-2.25-8.44-1.41-5.34,5.06-5.34,8.16.28,6.19,2.81,9.28,12.1,10.41,10.41,16.88c0,0-1.41,3.38-6.19,3.38s-5.34-2.81-5.91-4.78-.56-9-.84-12.1-2.53-6.47-5.63-9a35.92,35.92,0,0,1,.84,7.88c0,4.5-1.69,8.72,0,12.1s4.22,7.31,7.31,7.88,6.47,0,9.56-.28,2.25-2,3.09.84a19.83,19.83,0,0,1-.28,12.1c-1.69,4.5-2.81,9.85-5.91,13.22s-5.06,6.19-3.66,7,3.66-.84,5.06-.84,2.81-1.41,3.09.56.28,3.94,2.81,4.5,6.19-.28,6.75-1.13.56-5.91.56-5.91l-3.09-2s3.66-4.78,3.66-6.19,2.21-31.22,2.21-31.22-5.87-5.91-7.84-8.16-3.38-2.81-5.06-6.19,3.09-7.59,3.09-7.59Z" style="fill:#6fc8dd;fill-rule:evenodd"/><path d="M51.76,111.32s-1.13-5.63-3.09-7-6.47-2.25-8.44-1.41-5.34,5.06-5.34,8.16.28,6.19,2.81,9.28,12.1,10.41,10.41,16.88c0,0-1.41,3.38-6.19,3.38s-5.34-2.81-5.91-4.78-.56-9-.84-12.1-2.53-6.47-5.63-9a35.92,35.92,0,0,1,.84,7.88c0,4.5-1.69,8.72,0,12.1s4.22,7.31,7.31,7.88,6.47,0,9.56-.28,2.25-2,3.09.84a19.83,19.83,0,0,1-.28,12.1c-1.69,4.5-2.81,9.85-5.91,13.22s-5.06,6.19-3.66,7,3.66-.84,5.06-.84,2.81-1.41,3.09.56.28,3.94,2.81,4.5,6.19-.28,6.75-1.13.56-5.91.56-5.91l-3.09-2s3.66-4.78,3.66-6.19,2.21-31.22,2.21-31.22-5.87-5.91-7.84-8.16-3.38-2.81-5.06-6.19,3.09-7.59,3.09-7.59Z" style="fill:none;stroke:#000;stroke-miterlimit:2.613126039505005;stroke-width:1.1252000050578652px"/><path d="M48.95,111.6s0-3.66-2.53-4.5-7-.84-7.88,2.53-.84,3.94.84,6.75a62.12,62.12,0,0,0,7,9.28c2.81,3.09,2.53,6.75,3.94,9s5.34,3.66,5.06,1.13-1.41-5.91-2.81-7-4.5-4.5-7.88-7.88-4.5-5.63-3.94-6.75.84-.84,2.25-.28S45.57,115,45.57,115l3.38-3.38Z" style="fill:#b3e2ee;fill-rule:evenodd"/><path d="M43,126.23a15.31,15.31,0,0,0-2,6.47c0,3.09,1.13,4.22,1.13,4.22s-2.25,2-3.38.84-3.09-3.94-.28-7.59l2.81-3.66.28-2.25,1.41,2Z" style="fill:#6fc8dd;fill-rule:evenodd"/><path d="M17.16,157.45c2-.56,9-8.72,9-8.72" style="fill:none;stroke:#000;stroke-miterlimit:2.613126039505005;stroke-width:1.1252000050578652px"/><path d="M45.29,151.55s-.28,5.91-1.41,8.72a18.86,18.86,0,0,1-3.66,5.34l-1.13-2.25s-3.38,4.5-5.06,5.06c0,0-1.69-3.09-1.13-5.91,0,0-2.53,4.5-3.94,4.5l-.28-4.5" style="fill:none;stroke:#000;stroke-miterlimit:2.613126039505005;stroke-width:1.1252000050578652px"/><path d="M20,109.63S10.41,98.1,10.13,93.88c0,0-2.53,2-.28,5.91s7.6,9,10.13,9.85ZM4.78,96.41a28.47,28.47,0,0,1,2.81,5.91c.84,2.81,7,10.69,7.88,11.81s-5.06-.56-7-3.38-4.78-8.44-4.78-10.69.28-3.38,1.13-3.66Zm-3.38,12.1a10.86,10.86,0,0,1,3.38,3.09C6.47,113.85,9,118.35,14.35,122c0,0-5.63-1.69-8.44-4.5s-4.5-6.19-4.5-7Zm1.13,14.06a18.22,18.22,0,0,0,4.22,4.78,12.82,12.82,0,0,0,7.88,2.81,14.26,14.26,0,0,1,4.22.84l.84-2a10.72,10.72,0,0,0-3.66-.56c-2.25,0-7-1.13-8.44-2.53s-3.09-3.38-5.06-3.38Zm16.88,13.5a14.26,14.26,0,0,1-4.22.84c-2,0-7.31-.56-8.44-2s1.69-.84,4.78-.84a51.84,51.84,0,0,1,7.59.84c-8.16-.28-10.69-.56-10.69-.56m11.81,7.88a2.6,2.6,0,0,1-2.53,1.41c-2,0-7.31-.84-7.31-.84s7.88-3.09,9.85-.56Zm1.41,3.46a6.69,6.69,0,0,1-2.25,3.66,25.17,25.17,0,0,1-7.31,2.53l-.56-2.81s7-1.41,10.13-3.38ZM16,158.47c.95-4.27,6.58-7.25,9.85-9.88,2.41,1.48,1.06,3.95-.85,5.38-1.13.84-3.38,4.22-5.63,3.66a3.57,3.57,0,0,1-3.38.56m14.06-7.81c.69,1.91,1.58,1.93,1.06,3.87a21.55,21.55,0,0,1-2.39,4c-1.25,1.79-3.61,4.33-5.72,4.87-.26-2.31,3.28-4.27,4.18-6.29,1-2.22,1.51-4.65,2.59-7m4.91,2.94c.54,0,1.25.39,1.93.31-.24,1.47-1.36,2.29-1.86,3.69a16.15,16.15,0,0,0-.43,2.94,4,4,0,0,1-.27.94,13.17,13.17,0,0,1-4.65,4.76c-.47-2.58,1.13-4.77,2.47-6.89a37.43,37.43,0,0,0,2.81-5.74m7.18-.09c-.59,2.53-.45,5.76-1.47,8.14C39.1,164,36.63,165,34.37,167c.26-1.55,1.61-2.67,2.27-4.11a17.47,17.47,0,0,0,1.07-4.64c.42-2.56.29-7.95,3.64-5.56m3.44-.94a5.47,5.47,0,0,0-1.64,0c-.14,2.57.79,4.12-.24,6.4C42.09,160,39.39,162,39.57,164c3.74-.09,5.5-8.92,5.22-12" style="fill:#6fc8dd;fill-rule:evenodd"/><path d="M32.91,166.17S27,192.34,20.82,199.93c0,0,3.94-15.19,6.19-23.07s3.38-10.69,3.38-10.69l2.53-3.66Zm14.35,8.44s-3.94,5.63-5.34,7.59-3.38,4.78-2.81,5.63,5.91-4.5,7.88-6.75.28-6.47.28-6.47Z" style="fill:#6fc8dd;fill-rule:evenodd"/><path d="M57.39,162s-9.56,6.47-9.56,8.72,3.94-1.13,5.34-3.09,6.19-5.06,4.22-5.63" style="fill:#b3e2ee;fill-rule:evenodd"/><path d="M70.57,160a8.26,8.26,0,0,1,2.25,5.91c-.28,3.38-.28,3.94-.56,6.47s2,4.78-.56,5.06c0,0-2.25-1.41-3.38-.84a23,23,0,0,1-3.09,1.13l-.56-2.25s2.43-1.11,2.53-3.09C67.48,167,70.57,160,70.57,160Z" style="fill:#d35226;fill-rule:evenodd"/><path d="M70.57,160a8.26,8.26,0,0,1,2.25,5.91c-.28,3.38-.28,3.94-.56,6.47s2,4.78-.56,5.06c0,0-2.25-1.41-3.38-.84a23,23,0,0,1-3.09,1.13l-.56-2.25s2.43-1.11,2.53-3.09C67.48,167,70.57,160,70.57,160Z" style="fill:none;stroke:#000;stroke-miterlimit:2.613126039505005;stroke-width:1.1252000050578652px"/><path d="M47.26,111.88s-.84-2.53-3.09-2.25-2.53,1.69-2.53,1.69a2.88,2.88,0,0,0,2,1.13C44.73,112.45,44.73,112.17,47.26,111.88Z" style="fill:#fff;fill-rule:evenodd"/><path d="M47.26,111.88s-.84-2.53-3.09-2.25-2.53,1.69-2.53,1.69a2.88,2.88,0,0,0,2,1.13C44.73,112.45,44.73,112.17,47.26,111.88Z" style="fill:none;stroke:#000;stroke-miterlimit:2.613126039505005;stroke-width:1.1252000050578652px"/><path d="M9.85,92.47Zm0,0c1.13,7.59,11.81,19.41,11.81,19.41m-3.94,4.78s-9.28-10.13-11-15.19m12.1,22.22S8.44,119.2,7,115.82A10.69,10.69,0,0,0,3.38,111m16.32,18s-3.66-.84-7-1.41-8.44-5.06-8.44-5.06m16,18.28a88.75,88.75,0,0,1-9,1.41m.56,7.88c2.53.28,10.41-5.34,10.41-5.34m7.88,5.63s-6.19,12.1-7,12.1M34,153s-3.38,9-4.5,9.85m9.28-10.13S36.57,162,34.6,166.46m9-14.63S42.48,162,40.79,163.36M9.7,134.5s6.84,1.37,9.41,1m6.84,12.83s-5.13,6-7.53,7.53" style="fill:none;fill-rule:evenodd"/><path d="M9.85,92.47Zm0,0c1.13,7.59,11.81,19.41,11.81,19.41m-3.94,4.78s-9.28-10.13-11-15.19m12.1,22.22S8.44,119.2,7,115.82A10.69,10.69,0,0,0,3.38,111m16.32,18s-3.66-.84-7-1.41-8.44-5.06-8.44-5.06m16,18.28a88.75,88.75,0,0,1-9,1.41m.56,7.88c2.53.28,10.41-5.34,10.41-5.34m7.88,5.63s-6.19,12.1-7,12.1M34,153s-3.38,9-4.5,9.85m9.28-10.13S36.57,162,34.6,166.46m9-14.63S42.48,162,40.79,163.36M9.7,134.5s6.84,1.37,9.41,1m6.84,12.83s-5.13,6-7.53,7.53" style="fill:none;stroke:#000;stroke-miterlimit:2.613126039505005;stroke-width:1.1252000050578652px"/><path d="M47.54,148.45s.28,4.78-3.94,3.38c0,0-2,2.25-5.06-.28,0,0-2.25,4.22-4.78.56,0,0-2.25,2.53-3.66-1.69,0,0-4.22,2-4.22-2.53,0,0-4.78-1.69-3.09-4.78,0,0-4.5.28-2-5.34,0,0-3.94-3.94,0-4.5,0,0-3.94-2.25-1.13-4.22,0,0-4.78-3.94-.84-5.34,0,0-2.53-4.5,0-5.06,0,0-2.53-3.94.28-3.94,0,0,0-3.66,2.53-2.81,0,0-.56-5.06,2.53-3.38" style="fill:none;stroke:#000;stroke-miterlimit:2.613126039505005;stroke-width:1.1252000050578652px"/><path d="M50.92,109.63s2,4.5,3.38,5.34,13.5,7.88,15.19,8.72,4.5,4.78,3.66,5.63-1.41-2.25-4.22-2-7.31-2-8.72-2.25a27.72,27.72,0,0,1-8.44-4.5c-2.25-2-6.19-3.09-6.19-5.63v-2.53s.28-1.41,1.69-.56,1.69-2,1.69-2S49.79,107.95,50.92,109.63Z" style="fill:#d35226;fill-rule:evenodd"/><path d="M50.92,109.63s2,4.5,3.38,5.34,13.5,7.88,15.19,8.72,4.5,4.78,3.66,5.63-1.41-2.25-4.22-2-7.31-2-8.72-2.25a27.72,27.72,0,0,1-8.44-4.5c-2.25-2-6.19-3.09-6.19-5.63v-2.53s.28-1.41,1.69-.56,1.69-2,1.69-2S49.79,107.95,50.92,109.63Z" style="fill:none;stroke:#000;stroke-miterlimit:2.613126039505005;stroke-width:1.1252000050578652px"/><path d="M47.82,115s4.78,2.53,9,4.5,11.53,6.47,12.94,7.31" style="fill:none;stroke:#000;stroke-miterlimit:2.613126039505005;stroke-width:1.1252000050578652px"/><path d="M35.41,68.56s-2.25,5.06-.28,7.59,5.63,2.25,5.63,2.25-3.66-4.22-1.69-5.63,3.09-3.94,8.72,0S57.91,84,63.54,88.26s11.81,7.31,16,7.59a91.8,91.8,0,0,0,12.66.28,23.45,23.45,0,0,0,8.44-2L85.76,85.72,82.1,79.82s-5.34,1.69-6.19-2.53a48.35,48.35,0,0,1-.56-9.85l-8.16-.28-2,4.5-7,1.13L55.1,62.94l-5.91,3.94-7.6-2.53-6.19,4.22Z" style="fill:#23365d;fill-rule:evenodd"/><path d="M35.41,68.56s-2.25,5.06-.28,7.59,5.63,2.25,5.63,2.25-3.66-4.22-1.69-5.63,3.09-3.94,8.72,0S57.91,84,63.54,88.26s11.81,7.31,16,7.59a91.8,91.8,0,0,0,12.66.28,23.45,23.45,0,0,0,8.44-2L85.76,85.72,82.1,79.82s-5.34,1.69-6.19-2.53a48.35,48.35,0,0,1-.56-9.85l-8.16-.28-2,4.5-7,1.13L55.1,62.94l-5.91,3.94-7.6-2.53-6.19,4.22Z" style="fill:none;stroke:#000;stroke-miterlimit:2.613126039505005;stroke-width:1.1252000050578652px"/><path d="M61,53.09s4.78-8.44,8.16-8.72a30.71,30.71,0,0,0,5.34-.84s.84-2,4.22-3.66,4.78-.56,4.78-.56-.84,5.34.84,6.47,5.06,2,5.06.84,0,3.94-1.13,4.78-1.13,3.94-8.72,3.38c0,0-.28.84-3.66,3.09s-4.5,0-8.44-1.41L61,53.09Z" style="fill:#23365d;fill-rule:evenodd"/><path d="M61,53.09s4.78-8.44,8.16-8.72a30.71,30.71,0,0,0,5.34-.84s.84-2,4.22-3.66,4.78-.56,4.78-.56-.84,5.34.84,6.47,5.06,2,5.06.84,0,3.94-1.13,4.78-1.13,3.94-8.72,3.38c0,0-.28.84-3.66,3.09s-4.5,0-8.44-1.41L61,53.09Z" style="fill:none;stroke:#000;stroke-miterlimit:2.613126039505005;stroke-width:1.1252000050578652px"/><path d="M129.92,82.63s.84,2.25,2.81,2.25,4.5-.56,3.94-2.25a23.7,23.7,0,0,0-1.13-2.81s3.66-.56,4.22,1.13,1.69,2.81,2.81,1.41,4.22-5.34,3.38-9,.84-6.47-7.31-5.34c0,0,3.66-4.22,7-3.66s3.38,4.5,5.63,4.5,2.25-2.25,2.25-4.78-1.13-8.72-4.22-9.56a19,19,0,0,1-5.91-3.09l4.5-3.38s11.53.28,12.66,3.38,3.09,9,1.41,12.94-2.25,5.63-.56,5.91,4.22-1.69,4.5-5.91,2.81-3.66,3.66-5.63,2.25-4.78,1.41-5.63,2.53,1.13,2.53,4.5,1.69,4.5,2.25,2.81.84-3.09,2.81-3.09,1.69,1.41,3.66.28,4.22-2.53,4.5-3.38,1.13,2.81.84,4.78-2,2.81-1.69,3.66S191.25,66,190.68,70s-.28,7.31-11,8.44c0,0,2.53-2,2-4.5s1.69-2-.56-2.53-9.28,3.94-13.78,9.28-8.16,8.16-13.22,10.41-18.57,5.34-22.22,5.06S129.08,93,129.08,93l.84-10.41Z" style="fill:#23365d;fill-rule:evenodd"/><path d="M129.92,82.63s.84,2.25,2.81,2.25,4.5-.56,3.94-2.25a23.7,23.7,0,0,0-1.13-2.81s3.66-.56,4.22,1.13,1.69,2.81,2.81,1.41,4.22-5.34,3.38-9,.84-6.47-7.31-5.34c0,0,3.66-4.22,7-3.66s3.38,4.5,5.63,4.5,2.25-2.25,2.25-4.78-1.13-8.72-4.22-9.56a19,19,0,0,1-5.91-3.09l4.5-3.38s11.53.28,12.66,3.38,3.09,9,1.41,12.94-2.25,5.63-.56,5.91,4.22-1.69,4.5-5.91,2.81-3.66,3.66-5.63,2.25-4.78,1.41-5.63,2.53,1.13,2.53,4.5,1.69,4.5,2.25,2.81.84-3.09,2.81-3.09,1.69,1.41,3.66.28,4.22-2.53,4.5-3.38,1.13,2.81.84,4.78-2,2.81-1.69,3.66S191.25,66,190.68,70s-.28,7.31-11,8.44c0,0,2.53-2,2-4.5s1.69-2-.56-2.53-9.28,3.94-13.78,9.28-8.16,8.16-13.22,10.41-18.57,5.34-22.22,5.06S129.08,93,129.08,93l.84-10.41Z" style="fill:none;stroke:#000;stroke-miterlimit:2.613126039505005;stroke-width:1.1252000050578652px"/><path d="M142,37.06s-.56,2.53,1.41,3.66,5.63,2,5.63,3.94a7.46,7.46,0,0,0,.56,3.09s3.94-1.41,5.34-.28,4.78,3.38,4.78,3.38-3.66-.56-5.91.28-5.91.84-5.91,3.38.28,5.06.28,5.06a5.39,5.39,0,0,1-4.78-5.06s-2.53,2-5.06,1.41-5.06-3.09-5.34-7.31a7.13,7.13,0,0,0,4.5-1.69,7.9,7.9,0,0,1,4.22-2s-2.53-2.25.28-7.88Z" style="fill:#b3e2ee;fill-rule:evenodd"/><path d="M142,37.06s-.56,2.53,1.41,3.66,5.63,2,5.63,3.94a7.46,7.46,0,0,0,.56,3.09s3.94-1.41,5.34-.28,4.78,3.38,4.78,3.38-3.66-.56-5.91.28-5.91.84-5.91,3.38.28,5.06.28,5.06a5.39,5.39,0,0,1-4.78-5.06s-2.53,2-5.06,1.41-5.06-3.09-5.34-7.31a7.13,7.13,0,0,0,4.5-1.69,7.9,7.9,0,0,1,4.22-2s-2.53-2.25.28-7.88Z" style="fill:none;stroke:#000;stroke-miterlimit:2.613126039505005;stroke-width:1.1252000050578652px"/><path d="M81.26,80.38s-4.5,0-4.5-2A54.21,54.21,0,0,1,77,71.66c.28-2,3.38-4.5,3.38-4.5s1.69-1.69,0-3.09-4.22-3.09-7-2a3.66,3.66,0,0,0-2.53,3.66s-2.53-2-1.41-3.66a26.23,26.23,0,0,0,2-3.66,5.52,5.52,0,0,1-2.53-1.13,3,3,0,0,1-.84-2s2.81,1.69,3.66.56,2.53-1.41,2.25-2.25-.28-3.09-2.53-4.5-5.06-1.69-6.47-.84S61,51.12,60.72,53.94s1.41,8.72,1.41,11.25.28,7.31.28,7.31l3.09,3.38A8,8,0,0,1,68,71.1c2.25-2,3.38-2,4.5-2s0,4.5.84,6.75,2,4.5,7.88,4.5Z" style="fill:#b3e2ee;fill-rule:evenodd"/><path d="M81.26,80.38s-4.5,0-4.5-2A54.21,54.21,0,0,1,77,71.66c.28-2,3.38-4.5,3.38-4.5s1.69-1.69,0-3.09-4.22-3.09-7-2a3.66,3.66,0,0,0-2.53,3.66s-2.53-2-1.41-3.66a26.23,26.23,0,0,0,2-3.66,5.52,5.52,0,0,1-2.53-1.13,3,3,0,0,1-.84-2s2.81,1.69,3.66.56,2.53-1.41,2.25-2.25-.28-3.09-2.53-4.5-5.06-1.69-6.47-.84S61,51.12,60.72,53.94s1.41,8.72,1.41,11.25.28,7.31.28,7.31l3.09,3.38A8,8,0,0,1,68,71.1c2.25-2,3.38-2,4.5-2s0,4.5.84,6.75,2,4.5,7.88,4.5Z" style="fill:none;stroke:#000;stroke-miterlimit:2.613126039505005;stroke-width:1.1252000050578652px"/><path d="M63.82,71.94s-2.81,1.41-3.94.28-2.81-1.41-3.09-5.34-.28-5.91-2.25-7.59-3.94-3.66-3.38-4.78A16.38,16.38,0,0,1,54,51.41s-2.81-1.69-4.22-.56-2.25,4.5-2.25,4.5-2.53.28-6.19.28-3.94-1.69-3.94-2.81a6.87,6.87,0,0,0-.28-2S32,52.53,32,54.5s2.53,6.19,2.53,6.19,1.13,2-.28,2.81a7.51,7.51,0,0,0-2.81,8.16c1.13,4.22,5.34,6.75,9.28,6.75,0,0-6.19-3.09-4.5-6.19s1.69-5.34,5.06-5.34S49.75,70,49.75,70a17,17,0,0,0,2.53-2.53c1.41-1.69,2.53-2.81,2.53-.56s.28,6.19,1.69,6.47,4.78,1.41,7.31-1.41Z" style="fill:#b3e2ee;fill-rule:evenodd"/><path d="M63.82,71.94s-2.81,1.41-3.94.28-2.81-1.41-3.09-5.34-.28-5.91-2.25-7.59-3.94-3.66-3.38-4.78A16.38,16.38,0,0,1,54,51.41s-2.81-1.69-4.22-.56-2.25,4.5-2.25,4.5-2.53.28-6.19.28-3.94-1.69-3.94-2.81a6.87,6.87,0,0,0-.28-2S32,52.53,32,54.5s2.53,6.19,2.53,6.19,1.13,2-.28,2.81a7.51,7.51,0,0,0-2.81,8.16c1.13,4.22,5.34,6.75,9.28,6.75,0,0-6.19-3.09-4.5-6.19s1.69-5.34,5.06-5.34S49.75,70,49.75,70a17,17,0,0,0,2.53-2.53c1.41-1.69,2.53-2.81,2.53-.56s.28,6.19,1.69,6.47,4.78,1.41,7.31-1.41Z" style="fill:none;stroke:#000;stroke-miterlimit:2.613126039505005;stroke-width:1.1252000050578652px"/><path d="M53.13,59.84a2.56,2.56,0,0,1-.84,3.09c-1.69,1.13-4.78,1.13-5.34,2s-1.13-.84-1.13-.84,3.09-.56,4.5-2.53,2.81-1.69,2.81-1.69" style="fill:#6fc8dd;fill-rule:evenodd"/><path d="M34.56,60.69s6.75.84,9.56,0a11.81,11.81,0,0,1-4.78,1.41,14,14,0,0,0-5.06,1.41l.84-1.69-.56-1.13Z" style="fill:#6fc8dd;fill-rule:evenodd"/><path d="M90.26,95.57a54.94,54.94,0,0,1-3.66,4.22c-1.69,1.69,2,1.41,2,1.41a7.12,7.12,0,0,1,.28,3.66c-.28,2.53-4.22,2.81-4.22,2.81s1.13,3.09,3.94,3.09,5.91-2.25,6.47-3.38,1.13,2.53.28,3.09,3.09-1.13,3.38-2.53.84-8.44.84-8.44S95.32,92.19,90.26,95.57Z" style="fill:#b3e2ee;fill-rule:evenodd"/><path d="M90.26,95.57a54.94,54.94,0,0,1-3.66,4.22c-1.69,1.69,2,1.41,2,1.41a7.12,7.12,0,0,1,.28,3.66c-.28,2.53-4.22,2.81-4.22,2.81s1.13,3.09,3.94,3.09,5.91-2.25,6.47-3.38,1.13,2.53.28,3.09,3.09-1.13,3.38-2.53.84-8.44.84-8.44S95.32,92.19,90.26,95.57Z" style="fill:none;stroke:#000;stroke-miterlimit:2.613126039505005;stroke-width:1.1252000050578652px"/><path d="M128.8,85.44S131,89.38,133,90.51s4.78,2,9,.84,4.78-1.69,5.91-4.5-1.69-6.47,0-10.13,2.25-2.53,2.53-4.22,0-3.09,1.41-2.81,4.5,2.25,4.5,5.06S160,73.35,160,73.35s1.69,3.38,1.13,5.06-3.09,4.78-4.22,6.47-2.81,2.81-.84,2.81,1.69,2,4.22-3.09,4.22-8.72,6.47-10.41,2-4.22,2.81-5.63,2.81.28,2,2.53,2.53-1.69,3.94-1.69,5.34.28,5.63,2c0,0-2-.56-5.06,1.41s-11.25,11-15.19,14.35S149.05,93.88,146,95.57s-1.69,3.66-3.38,3.66-.28,3.09.28,4.5.28,1.41-1.13,1.69-3.38.84-3.38.84,1.41,1.69,0,3.09a3.16,3.16,0,0,1-3.09.84l-9-5.63S126,87.41,128.8,85.44Z" style="fill:#b3e2ee;fill-rule:evenodd"/><path d="M128.8,85.44S131,89.38,133,90.51s4.78,2,9,.84,4.78-1.69,5.91-4.5-1.69-6.47,0-10.13,2.25-2.53,2.53-4.22,0-3.09,1.41-2.81,4.5,2.25,4.5,5.06S160,73.35,160,73.35s1.69,3.38,1.13,5.06-3.09,4.78-4.22,6.47-2.81,2.81-.84,2.81,1.69,2,4.22-3.09,4.22-8.72,6.47-10.41,2-4.22,2.81-5.63,2.81.28,2,2.53,2.53-1.69,3.94-1.69,5.34.28,5.63,2c0,0-2-.56-5.06,1.41s-11.25,11-15.19,14.35S149.05,93.88,146,95.57s-1.69,3.66-3.38,3.66-.28,3.09.28,4.5.28,1.41-1.13,1.69-3.38.84-3.38.84,1.41,1.69,0,3.09a3.16,3.16,0,0,1-3.09.84l-9-5.63S126,87.41,128.8,85.44Z" style="fill:none;stroke:#000;stroke-miterlimit:2.613126039505005;stroke-width:1.1252000050578652px"/><path d="M92.23,86.57s-5.06-.28-6.19-3.38-2-4.78,0-6.19c0,0-3.38-3.66-5.34-.84s-1.69,4.78-.56,6.47A26.28,26.28,0,0,0,82.95,86s-5.06-4.5-6.47-4.5-1.13,4.22-.28,5.91S81,93.32,82.67,93.6a50.24,50.24,0,0,0,6.47.56c1.69,0,5.63-3.09,5.63-3.09l-2.53-4.5Z" style="fill:#b3e2ee;fill-rule:evenodd"/><path d="M92.23,86.57s-5.06-.28-6.19-3.38-2-4.78,0-6.19c0,0-3.38-3.66-5.34-.84s-1.69,4.78-.56,6.47A26.28,26.28,0,0,0,82.95,86s-5.06-4.5-6.47-4.5-1.13,4.22-.28,5.91S81,93.32,82.67,93.6a50.24,50.24,0,0,0,6.47.56c1.69,0,5.63-3.09,5.63-3.09l-2.53-4.5Z" style="fill:none;stroke:#000;stroke-miterlimit:2.613126039505005;stroke-width:1.1252000050578652px"/><path d="M136.78,95.67s6.19-.84,7.31-.56l1.13.28-2,2s-3.38-.28-4.78-.28a42.88,42.88,0,0,1-5.34-.84l3.66-.56Z" style="fill:#6fc8dd;fill-rule:evenodd"/><path d="M133,99.89s4.5,4.78,5.91,5.06-.56,1.13-.56,1.13-1.41.84-5.34-6.19" style="fill:#6fc8dd;fill-rule:evenodd"/><path d="M155.24,72.78s-1.13,7.59-3.09,11c0,0,3.94-3.66,5.34-7.59,0,0,0,.56-1.13-1.41l-1.13-2" style="fill:#6fc8dd;fill-rule:evenodd"/><path d="M141.74,44.94s3.66.56,4.22,2a7.53,7.53,0,0,1,.56,2.53s-.28-1.69-2.25-.56-6.19,3.38-7.59,2.25c0,0,3.38-1.13,4.78-2.53a3.32,3.32,0,0,1,2.81-1.13s-3.09-2-5.63-.84l3.09-1.69Z" style="fill:#6fc8dd;fill-rule:evenodd"/><path d="M100.39,118.64a6.79,6.79,0,0,0,5.91.28c3.09-1.41,9.28-3.94,10.69-5.34a8.81,8.81,0,0,1,3.38-2L119,107.66l-5.63-11.81s.84,5.06.28,6.75-4.5,8.44-6.47,10.41-4.5,5.34-6.75,5.63Z" style="fill:#f9f6f3;fill-rule:evenodd"/><path d="M92,63.15a6.92,6.92,0,0,1,5.13-3.26l.93,4,4.2-.87-.2-4.53,6.33-.2.13,4.93,6.86-.2.2-4.66h6.53l-.4,5.06,4.13.53,1.13-4.4,4.93,1.73s-1.53,4.6-3.07,5.8a10.14,10.14,0,0,1-2.47,1.53v5.12a54.13,54.13,0,0,0-13.78-1.45,79.66,79.66,0,0,0-16.72,1.93l-.2-6.2a9.28,9.28,0,0,1-1.8-1.47A33.37,33.37,0,0,1,92,63.15Z" style="fill:#4a8418;fill-rule:evenodd"/><path d="M92,63.15a6.92,6.92,0,0,1,5.13-3.26l.93,4,4.2-.87-.2-4.53,6.33-.2.13,4.93,6.86-.2.2-4.66h6.53l-.4,5.06,4.13.53,1.13-4.4,4.93,1.73s-1.53,4.6-3.07,5.8a10.14,10.14,0,0,1-2.47,1.53v5.12a54.13,54.13,0,0,0-13.78-1.45,79.66,79.66,0,0,0-16.72,1.93l-.2-6.2a9.28,9.28,0,0,1-1.8-1.47A33.37,33.37,0,0,1,92,63.15Z" style="fill:none;stroke:#000;stroke-miterlimit:2.613126039505005;stroke-width:1.1252000050578652px"/><path d="M93.37,66.15s5-3.66,18.05-3.33S129.35,66,129.35,66" style="fill:none;stroke:#000;stroke-miterlimit:2.613126039505005;stroke-width:1.1252000050578652px"/><path d="M95.84,68.35a23.1,23.1,0,0,1,8-1.67,61.19,61.19,0,0,1,15.06.33c6.53.93,7.66,1.8,7.66,1.8" style="fill:none;stroke:#000;stroke-miterlimit:2.613126039505005;stroke-width:1.1252000050578652px"/><line x1="98.5" y1="67.68" x2="98.44" y2="73.41" style="fill:none;stroke:#000;stroke-miterlimit:2.613126039505005;stroke-width:1.1252000050578652px"/><line x1="106.36" y1="66.55" x2="106.28" y2="72.41" style="fill:none;stroke:#000;stroke-miterlimit:2.613126039505005;stroke-width:1.1252000050578652px"/><line x1="115.36" y1="66.68" x2="115.22" y2="72.34" style="fill:none;stroke:#000;stroke-miterlimit:2.613126039505005;stroke-width:1.1252000050578652px"/><line x1="124.09" y1="68.08" x2="124.22" y2="73.34" style="fill:none;stroke:#000;stroke-miterlimit:2.613126039505005;stroke-width:1.1252000050578652px"/><path d="M106.76,78l-4.41,3.22a12.47,12.47,0,0,1,6.75-1.41c3.94.28,4.5,1.41,3.09,2.25s2.53,2,2.53,2-2.25,7-1.41,11,7,16.6,7,16.6,4.78-5.34,8.16-5.34,6.75,4.5,3.09,6.75l2.53-.28s2.81-3.66.28-6.75-5.34-5.63-5.34-11.25,0-10.41,1.13-12.94,2.25-2-.28-3.66S109.63,76.87,106.76,78Z" style="fill:#ccc;fill-rule:evenodd"/><path d="M106.76,78l-4.41,3.22a12.47,12.47,0,0,1,6.75-1.41c3.94.28,4.5,1.41,3.09,2.25s2.53,2,2.53,2-2.25,7-1.41,11,7,16.6,7,16.6,4.78-5.34,8.16-5.34,6.75,4.5,3.09,6.75l2.53-.28s2.81-3.66.28-6.75-5.34-5.63-5.34-11.25,0-10.41,1.13-12.94,2.25-2-.28-3.66S109.63,76.87,106.76,78Z" style="fill:none;stroke:#000;stroke-miterlimit:2.613126039505005;stroke-width:1.1252000050578652px"/><path d="M115.3,89.66s1.69,13.78,6.47,19.13l.28.84.84-.84s-1.13,0-3.38-9-2-11.25-2-11.25l-2.25,1.13Z" style="fill:#f9f6f3;fill-rule:evenodd"/><path d="M113.61,88s-.56,4.5-.84,5.91,2.25,8.16-.84,12.94-9.85,12.38-11.53,11.81,0-3.09.28-8.16,1.69-6.19-.84-9-5.34-5.34-5.34-5.34l-5.63-.56s-3.09-5.06-2-7,1.41-4.78,3.38-6.19a8.18,8.18,0,0,0,2.53-2.53l3.09-.28s-3.09,2.53-3.94,4.22S91.1,93,91.1,93s3.66.56,5.06.56S104,92.19,104,92.19s-1.41,2,.84,2,3.66-1.13,5.34-2.53A25.79,25.79,0,0,0,113.61,88Z" style="fill:#999;fill-rule:evenodd"/><path d="M113.61,88s-.56,4.5-.84,5.91,2.25,8.16-.84,12.94-9.85,12.38-11.53,11.81,0-3.09.28-8.16,1.69-6.19-.84-9-5.34-5.34-5.34-5.34l-5.63-.56s-3.09-5.06-2-7,1.41-4.78,3.38-6.19a8.18,8.18,0,0,0,2.53-2.53l3.09-.28s-3.09,2.53-3.94,4.22S91.1,93,91.1,93s3.66.56,5.06.56S104,92.19,104,92.19s-1.41,2,.84,2,3.66-1.13,5.34-2.53A25.79,25.79,0,0,0,113.61,88Z" style="fill:none;stroke:#000;stroke-miterlimit:2.613126039505005;stroke-width:1.1252000050578652px"/><path d="M94.48,96.13s3.66,3.09,4.5,4.78,2.81,4.22,2,7.59c0,0,0-5.06,1.69-4.78s2.81,6.75,2.81,6.75-.84-7.88.56-8.16,1.41,3.94,1.41,3.94,1.41-7,2-8.72,1.13-4.78,2.25-4.22a1.26,1.26,0,0,0,1.69-.28l.84-6.19a26,26,0,0,1-3.94,4.78c-2,1.69-9,3.66-11,3.94s-4.78.56-4.78.56Z" style="fill-rule:evenodd"/><path d="M131.61,113s1.41,0,1.41-2.25a4.61,4.61,0,0,0-4.5-4.5c-2.81-.28-7,4.5-8.16,5.34a29.2,29.2,0,0,1-3.38,2Z" style="fill:#1f1a17;fill-rule:evenodd"/><path d="M131.61,113s1.41,0,1.41-2.25a4.61,4.61,0,0,0-4.5-4.5c-2.81-.28-7,4.5-8.16,5.34a29.2,29.2,0,0,1-3.38,2Z" style="fill:none;stroke:#000;stroke-miterlimit:2.613126039505005;stroke-width:1.1252000050578652px"/><path d="M92.79,79.82s-5.91,5.63-5.63,9.85,1.69,5.91,1.69,5.91,5.63.84,8.44.28,9.85-1.69,11-2.53,5.63-2.53,5.63-9.28a46,46,0,0,1,7.31-.84c3.09,0,8.16-.56,9-1.41l-.28-3.66s-34.32-2-37.13,1.69Z" style="fill:#ccc;fill-rule:evenodd"/><path d="M92.79,79.82s-5.91,5.63-5.63,9.85,1.69,5.91,1.69,5.91,5.63.84,8.44.28,9.85-1.69,11-2.53,5.63-2.53,5.63-9.28a46,46,0,0,1,7.31-.84c3.09,0,8.16-.56,9-1.41l-.28-3.66s-34.32-2-37.13,1.69Z" style="fill:none;stroke:#000;stroke-miterlimit:2.613126039505005;stroke-width:1.1252000050578652px"/><path d="M98,77.35Zm0,0-4.61,5.28a8.45,8.45,0,0,0-2.53,5.91A18.87,18.87,0,0,0,91.1,93s5.63.28,8.16.28,5.06-.84,8.72-4.22,2.81-6.19,2.81-6.19,7.88-1.41,10.13-1.69,8.15-1.31,8.15-1.31" style="fill:#999;fill-rule:evenodd"/><path d="M98,77.35Zm0,0-4.61,5.28a8.45,8.45,0,0,0-2.53,5.91A18.87,18.87,0,0,0,91.1,93s5.63.28,8.16.28,5.06-.84,8.72-4.22,2.81-6.19,2.81-6.19,7.88-1.41,10.13-1.69,8.15-1.31,8.15-1.31" style="fill:none;stroke:#000;stroke-miterlimit:2.613126039505005;stroke-width:1.1252000050578652px"/><path d="M122.48,109.63s-14.53,11.68-22,9.32" style="fill:none;stroke:#000;stroke-miterlimit:2.613126039505005;stroke-width:1.1252000050578652px"/><path d="M96.5,74.54s-3.47-.67-4.46,0S89.91,78.87,91,79.61s3.93.6,6,.27a21.91,21.91,0,0,1,3.6-.4c.73,0-2.2-4.26-4.06-4.93Z" style="fill:#b3e2ee;fill-rule:evenodd"/><path d="M96.5,74.54s-3.47-.67-4.46,0S89.91,78.87,91,79.61s3.93.6,6,.27a21.91,21.91,0,0,1,3.6-.4c.73,0-2.2-4.26-4.06-4.93Z" style="fill:none;stroke:#000;stroke-miterlimit:2.613126039505005;stroke-width:1.1252000050578652px"/><path d="M129.68,81.2s1.73.2,2.33-.73,1-3.4-.87-4.33A13.21,13.21,0,0,0,127,75a5.08,5.08,0,0,0,.87,2.4c.8,1.13,2.13,3.13,1.8,3.8Z" style="fill:#23365d;fill-rule:evenodd"/><path d="M129.68,81.2s1.73.2,2.33-.73,1-3.4-.87-4.33A13.21,13.21,0,0,0,127,75a5.08,5.08,0,0,0,.87,2.4c.8,1.13,2.13,3.13,1.8,3.8Z" style="fill:none;stroke:#000;stroke-miterlimit:2.613126039505005;stroke-width:1.1252000050578652px"/><path d="M129.07,79.91l-2.05-4c-.2-.4-.2-2-1.13-2.13s-1.67-.73-2.47-.73-4.2-.87-5.33-.47,1.47,5.13,2.86,6.2a6,6,0,0,0,3.86,1.07C125.76,79.81,128.6,79.91,129.07,79.91Z" style="fill:#b3e2ee;fill-rule:evenodd"/><path d="M129.07,79.91l-2.05-4c-.2-.4-.2-2-1.13-2.13s-1.67-.73-2.47-.73-4.2-.87-5.33-.47,1.47,5.13,2.86,6.2a6,6,0,0,0,3.86,1.07C125.76,79.81,128.6,79.91,129.07,79.91Z" style="fill:none;stroke:#000;stroke-miterlimit:2.613126039505005;stroke-width:1.1252000050578652px"/><path d="M120.89,78.54a9.52,9.52,0,0,0-.8-2.4c-.6-1.2-1.53-3.4-2.4-3.66a21.29,21.29,0,0,0-4.06-.07,3.53,3.53,0,0,0,.27,2.8,8.09,8.09,0,0,0,2.33,3c.93.6,1.33.47,2.73.73a2,2,0,0,0,1.93-.4Z" style="fill:#23365d;fill-rule:evenodd"/><path d="M120.89,78.54a9.52,9.52,0,0,0-.8-2.4c-.6-1.2-1.53-3.4-2.4-3.66a21.29,21.29,0,0,0-4.06-.07,3.53,3.53,0,0,0,.27,2.8,8.09,8.09,0,0,0,2.33,3c.93.6,1.33.47,2.73.73a2,2,0,0,0,1.93-.4Z" style="fill:none;stroke:#000;stroke-miterlimit:2.613126039505005;stroke-width:1.1252000050578652px"/><path d="M113.23,73.41a2.32,2.32,0,0,0-1.73-1.13c-1.07,0-1.13-.6-2.6-.6s-3.53.13-4.13.73a3.33,3.33,0,0,0-.33,3.13c.47.53,2.33,2.73,3.4,2.86a33.16,33.16,0,0,1,5.2.27c2.46.47,2.73-.33,2.73-.33s-1.2-1.67-1.67-2.27A9.82,9.82,0,0,1,113.23,73.41Z" style="fill:#b3e2ee;fill-rule:evenodd"/><path d="M113.23,73.41a2.32,2.32,0,0,0-1.73-1.13c-1.07,0-1.13-.6-2.6-.6s-3.53.13-4.13.73a3.33,3.33,0,0,0-.33,3.13c.47.53,2.33,2.73,3.4,2.86a33.16,33.16,0,0,1,5.2.27c2.46.47,2.73-.33,2.73-.33s-1.2-1.67-1.67-2.27A9.82,9.82,0,0,1,113.23,73.41Z" style="fill:none;stroke:#000;stroke-miterlimit:2.613126039505005;stroke-width:1.1252000050578652px"/><path d="M106.23,77.61,104.57,75c-.47-.73-.67-1.93-1.47-1.93s-4,0-5.06.8-1.4,1.2-1.07,2a8.32,8.32,0,0,0,3.26,2.93c1.13.47,1.6.33,3.66.33A3.47,3.47,0,0,0,106.76,78l-.53-.4Z" style="fill:#23365d;fill-rule:evenodd"/><path d="M106.23,77.61,104.57,75c-.47-.73-.67-1.93-1.47-1.93s-4,0-5.06.8-1.4,1.2-1.07,2a8.32,8.32,0,0,0,3.26,2.93c1.13.47,1.6.33,3.66.33A3.47,3.47,0,0,0,106.76,78l-.53-.4Z" style="fill:none;stroke:#000;stroke-miterlimit:2.613126039505005;stroke-width:1.1252000050578652px"/><path d="M184,189a22.09,22.09,0,0,0-1.41,8.44c.28,4.22,2,5.63.56,6.75s-3.94,4.5-6.47,4.78-4.22,2.53-3.66,3.94-.28,2-.28,2-3.23-2.15-3.1-3.82a1.2,1.2,0,0,1,.28-.68c1.41-1.69-3.94-.28-5.06,2,0,0,0-4.5,1.69-5.06a1.94,1.94,0,0,0-2.53.56c-1.13,1.41,0-3.38,2.53-3.94a49.59,49.59,0,0,1,5.63-1.13c2.25-.28,3.94.84,5.63-1.13s1.69-9.56,1.69-13.78L184,189Z" style="fill:#d35226;fill-rule:evenodd"/><path d="M184,189a22.09,22.09,0,0,0-1.41,8.44c.28,4.22,2,5.63.56,6.75s-3.94,4.5-6.47,4.78-4.22,2.53-3.66,3.94-.28,2-.28,2-3.23-2.15-3.1-3.82a1.2,1.2,0,0,1,.28-.68c1.41-1.69-3.94-.28-5.06,2,0,0,0-4.5,1.69-5.06a1.94,1.94,0,0,0-2.53.56c-1.13,1.41,0-3.38,2.53-3.94a49.59,49.59,0,0,1,5.63-1.13c2.25-.28,3.94.84,5.63-1.13s1.69-9.56,1.69-13.78L184,189Z" style="fill:none;stroke:#000;stroke-miterlimit:2.613126039505005;stroke-width:1.1252000050578652px"/><path d="M174.46,139.17a3.21,3.21,0,0,0,3.94-2.25,11,11,0,0,0,.28-7.31l-1.13-3.38s-5.34-16-5.63-21.94.56-5.06.56-10.13-1.69-12.1-3.09-12.66c0,0,4.22-.28,4.78,1.41s.56,14.63,2.25,20.82,1.69,1.41,1.69,1.41,2.53-13.5,1.13-19.69l-.84-2.81s4.78,1.13,5.06,4.78.28,19.13.28,22.22,1.41,1.69,1.41-.56.56-16.32.84-18,2.81-1.69,2.81-1.69,2,6.47,1.13,11a41.17,41.17,0,0,0-.84,5.63s2.25-5.06,3.38-4.22.56,10.13.56,10.13l-2,2.81s-3.09,14.63-4.22,18.57-4.22,12.66-12.38,5.91Z" style="fill:#b3e2ee;fill-rule:evenodd"/><path d="M174.46,139.17a3.21,3.21,0,0,0,3.94-2.25,11,11,0,0,0,.28-7.31l-1.13-3.38s-5.34-16-5.63-21.94.56-5.06.56-10.13-1.69-12.1-3.09-12.66c0,0,4.22-.28,4.78,1.41s.56,14.63,2.25,20.82,1.69,1.41,1.69,1.41,2.53-13.5,1.13-19.69l-.84-2.81s4.78,1.13,5.06,4.78.28,19.13.28,22.22,1.41,1.69,1.41-.56.56-16.32.84-18,2.81-1.69,2.81-1.69,2,6.47,1.13,11a41.17,41.17,0,0,0-.84,5.63s2.25-5.06,3.38-4.22.56,10.13.56,10.13l-2,2.81s-3.09,14.63-4.22,18.57-4.22,12.66-12.38,5.91Z" style="fill:none;stroke:#000;stroke-miterlimit:2.613126039505005;stroke-width:1.1252000050578652px"/><path d="M187.68,123.7s3.38-9.85,6.75-13.22,8.44-8.16,12.1-14.06c0,0,2.53-5.34,2.81-7.59s3.38-2.25,3.38-2.25,1.41,4.5,1.13,6.47.28,3.09-1.41,6.19,4.22-5.06,4.22-5.06,2.81,5.06.84,10.13-3.66,6.47-3.66,6.47,4.5-3.09,5.34-2.25,1.69,4.5-.84,7.59a26.6,26.6,0,0,1-4.5,4.5s5.34,0,5.63.84-1.41,3.38-2.25,5.06-2.53,4.5-3.94,4.78l-1.41.28s4.22,1.41,4.22,2.81-2.25,2.53-2.25,2.53a34.47,34.47,0,0,1-4.5,1.13c-.84,0,1.13,1.69,1.13,1.69s2.25,3.66,1.13,4.22-5.34.84-5.34.84,5.34,2.81,5.06,5.06-1.13,2.53-1.13,2.53-5.06-.28-5.91-1.13,1.69,6.75.28,7.31-5.91-1.13-5.91-1.13-.28,3.66-.28,5.06-3.09,1.69-4.78-2-2,6.47-2,6.47,10.69,30.66,11,36.85a83.54,83.54,0,0,1-9.28-7.31c-3.09-3.09-8.44-7.31-10.41-7a10.06,10.06,0,0,1-4.22-.56,11.57,11.57,0,0,0-3.09-4.78l-5.34-5.34L170,159.42l-2.25-11.25,2.25-8.72,12.94,3.09,5.06-7.88-.28-11Z" style="fill:#b3e2ee;fill-rule:evenodd"/><path d="M187.68,123.7s3.38-9.85,6.75-13.22,8.44-8.16,12.1-14.06c0,0,2.53-5.34,2.81-7.59s3.38-2.25,3.38-2.25,1.41,4.5,1.13,6.47.28,3.09-1.41,6.19,4.22-5.06,4.22-5.06,2.81,5.06.84,10.13-3.66,6.47-3.66,6.47,4.5-3.09,5.34-2.25,1.69,4.5-.84,7.59a26.6,26.6,0,0,1-4.5,4.5s5.34,0,5.63.84-1.41,3.38-2.25,5.06-2.53,4.5-3.94,4.78l-1.41.28s4.22,1.41,4.22,2.81-2.25,2.53-2.25,2.53a34.47,34.47,0,0,1-4.5,1.13c-.84,0,1.13,1.69,1.13,1.69s2.25,3.66,1.13,4.22-5.34.84-5.34.84,5.34,2.81,5.06,5.06-1.13,2.53-1.13,2.53-5.06-.28-5.91-1.13,1.69,6.75.28,7.31-5.91-1.13-5.91-1.13-.28,3.66-.28,5.06-3.09,1.69-4.78-2-2,6.47-2,6.47,10.69,30.66,11,36.85a83.54,83.54,0,0,1-9.28-7.31c-3.09-3.09-8.44-7.31-10.41-7a10.06,10.06,0,0,1-4.22-.56,11.57,11.57,0,0,0-3.09-4.78l-5.34-5.34L170,159.42l-2.25-11.25,2.25-8.72,12.94,3.09,5.06-7.88-.28-11Z" style="fill:none;stroke:#000;stroke-miterlimit:2.613126039505005;stroke-width:1.1252000050578652px"/><path d="M168.83,111.32s1.13-5.63,3.09-7,6.47-2.25,8.44-1.41,5.34,5.06,5.34,8.16-.28,6.19-2.81,9.28-12.1,10.41-10.41,16.88c0,0,1.41,3.38,6.19,3.38s5.34-2.81,5.91-4.78.56-9,.84-12.1,2.53-6.47,5.63-9a35.91,35.91,0,0,0-.84,7.88c0,4.5,1.69,8.72,0,12.1S186,142,182.9,142.55s-6.47,0-9.56-.28-2.25-2-3.09.84a19.83,19.83,0,0,0,.28,12.1c1.69,4.5,2.81,9.85,5.91,13.22s5.06,6.19,3.66,7-3.66-.84-5.06-.84-2.81-1.41-3.09.56-.28,3.94-2.81,4.5-6.19-.28-6.75-1.13-.56-5.91-.56-5.91l3.09-2s-3.66-4.78-3.66-6.19S159,133.26,159,133.26s5.87-5.91,7.84-8.16,3.38-2.81,5.06-6.19-3.09-7.59-3.09-7.59Z" style="fill:#6fc8dd;fill-rule:evenodd"/><path d="M168.83,111.32s1.13-5.63,3.09-7,6.47-2.25,8.44-1.41,5.34,5.06,5.34,8.16-.28,6.19-2.81,9.28-12.1,10.41-10.41,16.88c0,0,1.41,3.38,6.19,3.38s5.34-2.81,5.91-4.78.56-9,.84-12.1,2.53-6.47,5.63-9a35.91,35.91,0,0,0-.84,7.88c0,4.5,1.69,8.72,0,12.1S186,142,182.9,142.55s-6.47,0-9.56-.28-2.25-2-3.09.84a19.83,19.83,0,0,0,.28,12.1c1.69,4.5,2.81,9.85,5.91,13.22s5.06,6.19,3.66,7-3.66-.84-5.06-.84-2.81-1.41-3.09.56-.28,3.94-2.81,4.5-6.19-.28-6.75-1.13-.56-5.91-.56-5.91l3.09-2s-3.66-4.78-3.66-6.19S159,133.26,159,133.26s5.87-5.91,7.84-8.16,3.38-2.81,5.06-6.19-3.09-7.59-3.09-7.59Z" style="fill:none;stroke:#000;stroke-miterlimit:2.613126039505005;stroke-width:1.1252000050578652px"/><path d="M171.64,111.6s0-3.66,2.53-4.5,7-.84,7.88,2.53.84,3.94-.84,6.75a62.11,62.11,0,0,1-7,9.28c-2.81,3.09-2.53,6.75-3.94,9s-5.34,3.66-5.06,1.13,1.41-5.91,2.81-7,4.5-4.5,7.88-7.88,4.5-5.63,3.94-6.75-.84-.84-2.25-.28S175,115,175,115l-3.38-3.38Z" style="fill:#b3e2ee;fill-rule:evenodd"/><path d="M177.55,126.23a15.31,15.31,0,0,1,2,6.47c0,3.09-1.13,4.22-1.13,4.22s2.25,2,3.38.84,3.09-3.94.28-7.59l-2.81-3.66-.28-2.25-1.41,2Z" style="fill:#6fc8dd;fill-rule:evenodd"/><path d="M203.43,157.45c-2-.56-9-8.72-9-8.72" style="fill:none;stroke:#000;stroke-miterlimit:2.613126039505005;stroke-width:1.1252000050578652px"/><path d="M175.3,151.55s.28,5.91,1.41,8.72a18.86,18.86,0,0,0,3.66,5.34l1.13-2.25s3.38,4.5,5.06,5.06c0,0,1.69-3.09,1.13-5.91,0,0,2.53,4.5,3.94,4.5l.28-4.5" style="fill:none;stroke:#000;stroke-miterlimit:2.613126039505005;stroke-width:1.1252000050578652px"/><path d="M200.62,109.63s9.56-11.53,9.85-15.75c0,0,2.53,2,.28,5.91s-7.59,9-10.13,9.85Zm15.19-13.22a28.47,28.47,0,0,0-2.81,5.91c-.84,2.81-7,10.69-7.88,11.81s5.06-.56,7-3.38,4.78-8.44,4.78-10.69-.28-3.38-1.13-3.66Zm3.38,12.1a10.86,10.86,0,0,0-3.38,3.09c-1.69,2.25-4.22,6.75-9.56,10.41,0,0,5.63-1.69,8.44-4.5s4.5-6.19,4.5-7Zm-1.13,14.06a18.22,18.22,0,0,1-4.22,4.78,12.82,12.82,0,0,1-7.88,2.81,14.26,14.26,0,0,0-4.22.84l-.84-2a10.72,10.72,0,0,1,3.66-.56c2.25,0,7-1.13,8.44-2.53s3.09-3.38,5.06-3.38Zm-16.88,13.5a14.26,14.26,0,0,0,4.22.84c2,0,7.31-.56,8.44-2s-1.69-.84-4.78-.84a51.84,51.84,0,0,0-7.59.84c8.16-.28,10.69-.56,10.69-.56m-11.81,7.88a2.6,2.6,0,0,0,2.53,1.41c2,0,7.31-.84,7.31-.84s-7.88-3.09-9.85-.56Zm-1.41,3.46a6.69,6.69,0,0,0,2.25,3.66,25.17,25.17,0,0,0,7.31,2.53l.56-2.81s-7-1.41-10.13-3.38Zm5.63,12.74c-.95-4.27-6.58-7.25-9.85-9.88-2.41,1.48-1.06,3.95.85,5.38,1.13.84,3.38,4.22,5.63,3.66a3.57,3.57,0,0,0,3.38.56m-14.06-7.81c-.69,1.91-1.58,1.93-1.06,3.87a21.55,21.55,0,0,0,2.39,4c1.25,1.79,3.61,4.33,5.72,4.87.26-2.31-3.28-4.27-4.18-6.29-1-2.22-1.51-4.65-2.59-7m-4.91,2.94c-.54,0-1.25.39-1.93.31.24,1.47,1.36,2.29,1.86,3.69a16.16,16.16,0,0,1,.43,2.94,4,4,0,0,0,.27.94,13.17,13.17,0,0,0,4.65,4.76c.47-2.58-1.13-4.77-2.47-6.89a37.43,37.43,0,0,1-2.81-5.74m-7.18-.09c.59,2.53.45,5.76,1.47,8.14C181.49,164,184,165,186.22,167c-.26-1.55-1.61-2.67-2.27-4.11a17.47,17.47,0,0,1-1.07-4.64c-.42-2.56-.29-7.95-3.64-5.56m-3.44-.94a5.47,5.47,0,0,1,1.64,0c.14,2.57-.79,4.12.24,6.4C178.5,160,181.2,162,181,164c-3.74-.09-5.5-8.92-5.22-12" style="fill:#6fc8dd;fill-rule:evenodd"/><path d="M187.68,166.17s5.91,26.16,12.1,33.76c0,0-3.94-15.19-6.19-23.07s-3.38-10.69-3.38-10.69l-2.53-3.66Zm-14.35,8.44s3.94,5.63,5.34,7.59,3.38,4.78,2.81,5.63-5.91-4.5-7.88-6.75-.28-6.47-.28-6.47Z" style="fill:#6fc8dd;fill-rule:evenodd"/><path d="M163.21,162s9.56,6.47,9.56,8.72-3.94-1.13-5.34-3.09-6.19-5.06-4.22-5.63" style="fill:#b3e2ee;fill-rule:evenodd"/><path d="M150,160a8.26,8.26,0,0,0-2.25,5.91c.28,3.38.28,3.94.56,6.47s-2,4.78.56,5.06c0,0,2.25-1.41,3.38-.84a23,23,0,0,0,3.09,1.13l.56-2.25s-2.43-1.11-2.53-3.09C153.12,167,150,160,150,160Z" style="fill:#d35226;fill-rule:evenodd"/><path d="M150,160a8.26,8.26,0,0,0-2.25,5.91c.28,3.38.28,3.94.56,6.47s-2,4.78.56,5.06c0,0,2.25-1.41,3.38-.84a23,23,0,0,0,3.09,1.13l.56-2.25s-2.43-1.11-2.53-3.09C153.12,167,150,160,150,160Z" style="fill:none;stroke:#000;stroke-miterlimit:2.613126039505005;stroke-width:1.1252000050578652px"/><path d="M173.33,111.88s.84-2.53,3.09-2.25,2.53,1.69,2.53,1.69a2.88,2.88,0,0,1-2,1.13C175.86,112.45,175.86,112.17,173.33,111.88Z" style="fill:#fff;fill-rule:evenodd"/><path d="M173.33,111.88s.84-2.53,3.09-2.25,2.53,1.69,2.53,1.69a2.88,2.88,0,0,1-2,1.13C175.86,112.45,175.86,112.17,173.33,111.88Z" style="fill:none;stroke:#000;stroke-miterlimit:2.613126039505005;stroke-width:1.1252000050578652px"/><path d="M210.74,92.47Zm0,0c-1.13,7.59-11.81,19.41-11.81,19.41m3.94,4.78s9.28-10.13,11-15.19m-12.1,22.22s10.41-4.5,11.81-7.88a10.69,10.69,0,0,1,3.66-4.78M200.9,129s3.66-.84,7-1.41,8.44-5.06,8.44-5.06m-16,18.28a88.76,88.76,0,0,0,9,1.41m-.56,7.88c-2.53.28-10.41-5.34-10.41-5.34m-7.88,5.63s6.19,12.1,7,12.1m-11-9.56s3.38,9,4.5,9.85m-9.28-10.13S184,162,186,166.46m-9-14.63s1.13,10.13,2.81,11.53m31.09-28.86s-6.84,1.37-9.41,1m-6.84,12.83s5.13,6,7.53,7.53" style="fill:none;fill-rule:evenodd"/><path d="M210.74,92.47Zm0,0c-1.13,7.59-11.81,19.41-11.81,19.41m3.94,4.78s9.28-10.13,11-15.19m-12.1,22.22s10.41-4.5,11.81-7.88a10.69,10.69,0,0,1,3.66-4.78M200.9,129s3.66-.84,7-1.41,8.44-5.06,8.44-5.06m-16,18.28a88.76,88.76,0,0,0,9,1.41m-.56,7.88c-2.53.28-10.41-5.34-10.41-5.34m-7.88,5.63s6.19,12.1,7,12.1m-11-9.56s3.38,9,4.5,9.85m-9.28-10.13S184,162,186,166.46m-9-14.63s1.13,10.13,2.81,11.53m31.09-28.86s-6.84,1.37-9.41,1m-6.84,12.83s5.13,6,7.53,7.53" style="fill:none;stroke:#000;stroke-miterlimit:2.613126039505005;stroke-width:1.1252000050578652px"/><path d="M173.05,148.45s-.28,4.78,3.94,3.38c0,0,2,2.25,5.06-.28,0,0,2.25,4.22,4.78.56,0,0,2.25,2.53,3.66-1.69,0,0,4.22,2,4.22-2.53,0,0,4.78-1.69,3.09-4.78,0,0,4.5.28,2-5.34,0,0,3.94-3.94,0-4.5,0,0,3.94-2.25,1.13-4.22,0,0,4.78-3.94.84-5.34,0,0,2.53-4.5,0-5.06,0,0,2.53-3.94-.28-3.94,0,0,0-3.66-2.53-2.81,0,0,.56-5.06-2.53-3.38" style="fill:none;stroke:#000;stroke-miterlimit:2.613126039505005;stroke-width:1.1252000050578652px"/><path d="M169.68,109.63s-2,4.5-3.38,5.34-13.5,7.88-15.19,8.72-4.5,4.78-3.66,5.63,1.41-2.25,4.22-2,7.31-2,8.72-2.25a27.72,27.72,0,0,0,8.44-4.5c2.25-2,6.19-3.09,6.19-5.63v-2.53s-.28-1.41-1.69-.56-1.69-2-1.69-2S170.8,107.95,169.68,109.63Z" style="fill:#d35226;fill-rule:evenodd"/><path d="M169.68,109.63s-2,4.5-3.38,5.34-13.5,7.88-15.19,8.72-4.5,4.78-3.66,5.63,1.41-2.25,4.22-2,7.31-2,8.72-2.25a27.72,27.72,0,0,0,8.44-4.5c2.25-2,6.19-3.09,6.19-5.63v-2.53s-.28-1.41-1.69-.56-1.69-2-1.69-2S170.8,107.95,169.68,109.63Z" style="fill:none;stroke:#000;stroke-miterlimit:2.613126039505005;stroke-width:1.1252000050578652px"/><path d="M172.77,115s-4.78,2.53-9,4.5-11.53,6.47-12.94,7.31" style="fill:none;stroke:#000;stroke-miterlimit:2.613126039505005;stroke-width:1.1252000050578652px"/><path d="M82.72,239.62c-.37,6.34.64,7,3.68,8.64s18.38-1.93,23.89-1.93,17.92,3.4,22.42,2.94,7.17-5.33,6.62-8.82-7.81-9.83-28-9.56S82.53,239.52,82.72,239.62Z" style="fill:#b3e2ee"/><path d="M82.72,239.62c-.37,6.34.64,7,3.68,8.64s18.38-1.93,23.89-1.93,17.92,3.4,22.42,2.94,7.17-5.33,6.62-8.82-7.81-9.83-28-9.56S82.53,239.52,82.72,239.62Z" style="fill:none;stroke:#000;stroke-miterlimit:2.613126039505005;stroke-width:0.9999999749999999px"/><path d="M16.42,216c0-3.31,15.25-9.56,15.62-1.75s-5.52,14.48-5.52,14.48l-6.42-1.16L16.42,216Z" style="fill:#3f7256"/><path d="M16.42,216c0-3.31,15.25-9.56,15.62-1.75s-5.52,14.48-5.52,14.48l-6.42-1.16L16.42,216Z" style="fill:none;stroke:#000;stroke-miterlimit:2.613126039505005;stroke-width:0.9999999749999999px"/><path d="M32,213.89c-.33,2.34-8.38,5.39-8.38,5.39L25.83,226l5.91-.45Z" style="fill:#b3e2ee"/><path d="M32,213.89c-.33,2.34-8.38,5.39-8.38,5.39L25.83,226l5.91-.45Z" style="fill:none;stroke:#000;stroke-miterlimit:2.613126039505005;stroke-width:0.9999999749999999px"/><path d="M101.37,232.13c0,3.25-18.28,4-18.65,8.22.18-4.18,3.12-12.82,3.12-12.82l12.68,2.25,2.85,2.34Z" style="fill:#3f7256"/><path d="M101.37,232.13c0,3.25-18.28,4-18.65,8.22.18-4.18,3.12-12.82,3.12-12.82l12.68,2.25,2.85,2.34Z" style="fill:none;stroke:#000;stroke-miterlimit:2.613126039505005;stroke-width:0.9999999749999999px"/><path d="M101.48,232.27c-2.12-4.32-5.31-10-5.44-14.52-20.73-2.5-37.69,7.77-70.93,6.62-5.72-.2-8.7-6.53-8.64-9-.7,3.12,2.38,6.72,2.94,11.39s.18,7.44,2.76,10.47c2.14,2.53,27.27,3.37,40.06-.55,12-3.68,37.72-8.18,39.25-4.41Z" style="fill:#b3e2ee;fill-rule:evenodd"/><path d="M101.48,232.27c-2.12-4.32-5.31-10-5.44-14.52-20.73-2.5-37.69,7.77-70.93,6.62-5.72-.2-8.7-6.53-8.64-9-.7,3.12,2.38,6.72,2.94,11.39s.18,7.44,2.76,10.47c2.14,2.53,27.27,3.37,40.06-.55,12-3.68,37.72-8.18,39.25-4.41Z" style="fill:none;stroke:#000;stroke-miterlimit:2.613126039505005;stroke-width:0.9999999749999999px"/><path d="M205.42,216c0-3.31-15.25-9.56-15.62-1.75s5.52,14.48,5.52,14.48l6.42-1.16L205.42,216Z" style="fill:#3f7256"/><path d="M205.42,216c0-3.31-15.25-9.56-15.62-1.75s5.52,14.48,5.52,14.48l6.42-1.16L205.42,216Z" style="fill:none;stroke:#000;stroke-miterlimit:2.613126039505005;stroke-width:0.9999999749999999px"/><path d="M189.84,213.89c.33,2.34,8.38,5.39,8.38,5.39L196,226l-5.91-.45Z" style="fill:#b3e2ee"/><path d="M189.84,213.89c.33,2.34,8.38,5.39,8.38,5.39L196,226l-5.91-.45Z" style="fill:none;stroke:#000;stroke-miterlimit:2.613126039505005;stroke-width:0.9999999749999999px"/><path d="M120.48,232.13c0,3.25,18.28,4,18.65,8.22-.18-4.18-3.12-12.82-3.12-12.82l-12.68,2.25-2.85,2.34Z" style="fill:#3f7256"/><path d="M120.48,232.13c0,3.25,18.28,4,18.65,8.22-.18-4.18-3.12-12.82-3.12-12.82l-12.68,2.25-2.85,2.34Z" style="fill:none;stroke:#000;stroke-miterlimit:2.613126039505005;stroke-width:0.9999999749999999px"/><path d="M120.36,232.27c2.12-4.32,5.31-10,5.44-14.52,20.73-2.5,37.69,7.77,70.93,6.62,5.72-.2,8.7-6.53,8.64-9,.7,3.12-2.38,6.72-2.94,11.39s-.18,7.44-2.76,10.47c-2.14,2.53-27.27,3.37-40.06-.55-12-3.68-37.72-8.18-39.25-4.41Z" style="fill:#b3e2ee;fill-rule:evenodd"/><path d="M120.36,232.27c2.12-4.32,5.31-10,5.44-14.52,20.73-2.5,37.69,7.77,70.93,6.62,5.72-.2,8.7-6.53,8.64-9,.7,3.12-2.38,6.72-2.94,11.39s-.18,7.44-2.76,10.47c-2.14,2.53-27.27,3.37-40.06-.55-12-3.68-37.72-8.18-39.25-4.41Z" style="fill:none;stroke:#000;stroke-miterlimit:2.613126039505005;stroke-width:0.9999999749999999px"/><path d="M32,235.44Zm0,0a2.17,2.17,0,0,0,.78-.09,2,2,0,0,0,.58-.31,1.88,1.88,0,0,0,.42-.45,3.13,3.13,0,0,0,.29-.51l1.37.59a4.31,4.31,0,0,1-.47.79,3,3,0,0,1-.71.67,3.46,3.46,0,0,1-1,.45,4.22,4.22,0,0,1-1.32.13,4.59,4.59,0,0,1-1.7-.37,3.27,3.27,0,0,1-1.17-.88,3.46,3.46,0,0,1-.65-1.29,5.28,5.28,0,0,1-.16-1.6,5.36,5.36,0,0,1,.3-1.6,3.25,3.25,0,0,1,.75-1.19,3,3,0,0,1,1.21-.73,4.65,4.65,0,0,1,1.69-.2,4.83,4.83,0,0,1,1.3.21,3.12,3.12,0,0,1,.95.49,2.55,2.55,0,0,1,.65.7,3.18,3.18,0,0,1,.39.87l-1.43.32a1.66,1.66,0,0,0-.21-.48,1.62,1.62,0,0,0-.38-.42,2,2,0,0,0-.55-.3,2.33,2.33,0,0,0-.73-.14,2.4,2.4,0,0,0-1,.15,1.76,1.76,0,0,0-.71.5,2.35,2.35,0,0,0-.43.82,4.35,4.35,0,0,0-.17,1.08,4.51,4.51,0,0,0,.08,1.1,2.41,2.41,0,0,0,.36.87,1.85,1.85,0,0,0,.67.59,2.4,2.4,0,0,0,1,.25m11.58-2.8a3.75,3.75,0,0,0-.2-1.08,2.33,2.33,0,0,0-.46-.81,1.85,1.85,0,0,0-.72-.5,2.27,2.27,0,0,0-1-.14,2.38,2.38,0,0,0-1,.24,1.84,1.84,0,0,0-.67.56,2.32,2.32,0,0,0-.38.85,3.86,3.86,0,0,0-.09,1.09,4,4,0,0,0,.19,1.09,2.51,2.51,0,0,0,.47.83,2,2,0,0,0,.73.52,2.2,2.2,0,0,0,1,.15,2.33,2.33,0,0,0,1-.25,1.9,1.9,0,0,0,.67-.6,2.42,2.42,0,0,0,.36-.88,4.28,4.28,0,0,0,.08-1.09m1.63-.08A4.74,4.74,0,0,1,45,234.2a3.52,3.52,0,0,1-.7,1.29,3.35,3.35,0,0,1-1.18.86,4.39,4.39,0,0,1-1.61.36,4.45,4.45,0,0,1-1.69-.21,3.35,3.35,0,0,1-1.24-.76,3.5,3.5,0,0,1-.79-1.22,5.06,5.06,0,0,1-.32-1.57,4.91,4.91,0,0,1,.17-1.63,3.32,3.32,0,0,1,.68-1.26,3.26,3.26,0,0,1,1.17-.84,5.07,5.07,0,0,1,3.3-.16,3.26,3.26,0,0,1,1.25.73A3.34,3.34,0,0,1,44.9,231a4.76,4.76,0,0,1,.33,1.59m6.1,3.08a4.83,4.83,0,0,1-1.32.06,2.84,2.84,0,0,1-1.11-.35,2.49,2.49,0,0,1-.82-.8,3.44,3.44,0,0,1-.47-1.28l-.82-4.7,1.58-.28.8,4.58a2.61,2.61,0,0,0,.26.8,1.51,1.51,0,0,0,.44.51,1.38,1.38,0,0,0,.59.23,2.24,2.24,0,0,0,.71,0,2.26,2.26,0,0,0,.69-.23,1.45,1.45,0,0,0,.5-.44,1.55,1.55,0,0,0,.26-.65,2.5,2.5,0,0,0,0-.86l-.79-4.53,1.58-.28.81,4.62a3.34,3.34,0,0,1,0,1.38,2.58,2.58,0,0,1-.54,1.06,3,3,0,0,1-1,.74,5,5,0,0,1-1.32.41M62.09,233l-4.73-4.83.17.45q.07.19.15.42t.13.44L59,233.84l-1.37.37-2-7.38,1.77-.47,4.79,4.86-.17-.45q-.08-.2-.16-.45t-.15-.52l-1.14-4.29,1.37-.37,2,7.38-1.81.48m6.58-8.37,1.53,6.22-1.55.38L67.12,225l-2.4.59-.3-1.2,6.35-1.56.3,1.2Zm10.44-.93a1,1,0,0,0-.5-.76,1.72,1.72,0,0,0-1.07-.1l-2,.34.37,2.22,2.06-.34a2,2,0,0,0,.59-.18,1.14,1.14,0,0,0,.38-.3,1,1,0,0,0,.19-.4,1.29,1.29,0,0,0,0-.47m1.06,5.19-2.23-2.57-1.85.31.48,2.86-1.58.26-1.25-7.54,3.76-.63a4.28,4.28,0,0,1,1.26,0,2.46,2.46,0,0,1,1,.3,1.79,1.79,0,0,1,.64.62,2.38,2.38,0,0,1,.33.9,2.29,2.29,0,0,1,0,.8A2.11,2.11,0,0,1,80,225.4a2.38,2.38,0,0,1-.62.38l2.56,2.83-1.78.3m7.38-4,.27,3.12-1.59.14L86,225.08l-3.1-4.25,1.67-.15,2.11,3.06,1.56-3.38,1.67-.15-2.32,4.73m4.85,14.5-.19-.35-.17-.33-.12-.25-.05-.11v.12c0,.07,0,.16,0,.27s0,.23,0,.37,0,.26-.06.4l-.36,2.29,2.16-.39-1.13-2m2.7,5-1-1.8-2.87.51-.32,2-1.57.28,1.4-8,1.86-.33,4.08,7-1.56.28m8.35-3.07a1,1,0,0,0-.15-.5.91.91,0,0,0-.35-.31,1.47,1.47,0,0,0-.5-.15,3.13,3.13,0,0,0-.6,0l-2,.13.14,2.19,2.08-.13a3.28,3.28,0,0,0,.58-.08,1.35,1.35,0,0,0,.45-.21.91.91,0,0,0,.29-.37,1.16,1.16,0,0,0,.08-.55m-.64-3.17a.81.81,0,0,0-.38-.71,1.76,1.76,0,0,0-1-.16l-1.82.11.12,1.89,1.83-.11a1.62,1.62,0,0,0,1-.29.84.84,0,0,0,.26-.73m2.25,3.19a2,2,0,0,1-.17,1,1.94,1.94,0,0,1-.6.72,2.92,2.92,0,0,1-.91.44,5.24,5.24,0,0,1-1.13.19l-3.81.24L98,236.32l3.49-.22a5.49,5.49,0,0,1,1.21,0,2.61,2.61,0,0,1,.91.3,1.56,1.56,0,0,1,.58.57,1.78,1.78,0,0,1,.24.83,1.69,1.69,0,0,1-.29,1.12,1.84,1.84,0,0,1-1.06.67,2.33,2.33,0,0,1,1.44.5,1.66,1.66,0,0,1,.56,1.22m8-1.49a3.73,3.73,0,0,0-.11-1.09,2.33,2.33,0,0,0-.4-.85,1.85,1.85,0,0,0-.68-.55,2.28,2.28,0,0,0-1-.22,2.38,2.38,0,0,0-1,.16,1.85,1.85,0,0,0-.72.51,2.33,2.33,0,0,0-.45.82,3.87,3.87,0,0,0-.18,1.08,4,4,0,0,0,.11,1.1,2.52,2.52,0,0,0,.4.86,2,2,0,0,0,.68.58,2.2,2.2,0,0,0,1,.23,2.34,2.34,0,0,0,1-.17,1.9,1.9,0,0,0,.71-.54,2.41,2.41,0,0,0,.43-.84,4.29,4.29,0,0,0,.17-1.08m1.63.05a4.74,4.74,0,0,1-.32,1.62,3.52,3.52,0,0,1-.8,1.23,3.35,3.35,0,0,1-1.25.76,4.39,4.39,0,0,1-1.63.23,4.45,4.45,0,0,1-1.67-.35,3.35,3.35,0,0,1-1.17-.86,3.5,3.5,0,0,1-.68-1.28,5.06,5.06,0,0,1-.19-1.6,4.93,4.93,0,0,1,.3-1.61,3.33,3.33,0,0,1,.78-1.2,3.26,3.26,0,0,1,1.23-.74,5.07,5.07,0,0,1,3.3.11,3.27,3.27,0,0,1,1.18.83,3.35,3.35,0,0,1,.71,1.25,4.76,4.76,0,0,1,.2,1.61m5.57,4.41-1.61-.16-2.06-7.88,1.66.16,1.08,5q.05.25.1.51l.08.48.08.49.16-.45.17-.45.2-.5,2-4.73,1.65.16-3.55,7.32m4.34.49,1-7.57,6,.82-.17,1.22-4.37-.6-.26,1.9,4,.56-.17,1.22-4-.56-.28,2,4.59.63-.17,1.22-6.17-.85m31-15.4a2.31,2.31,0,0,1-.41.87,1.86,1.86,0,0,1-.75.56,2.9,2.9,0,0,1-1.1.21,5.81,5.81,0,0,1-1.47-.2,5.91,5.91,0,0,1-1.27-.46,3.19,3.19,0,0,1-.87-.63,2.28,2.28,0,0,1-.49-.8,2.77,2.77,0,0,1-.14-1l1.56.13a1.79,1.79,0,0,0,.07.5,1.22,1.22,0,0,0,.24.44,1.78,1.78,0,0,0,.47.36,3.38,3.38,0,0,0,.75.27,2.55,2.55,0,0,0,1.26.06.83.83,0,0,0,.61-.65.76.76,0,0,0,0-.54,1.31,1.31,0,0,0-.37-.43,3.56,3.56,0,0,0-.59-.37l-.72-.35-.59-.31a5.38,5.38,0,0,1-.56-.34,3.31,3.31,0,0,1-.47-.4,1.81,1.81,0,0,1-.34-.48,1.85,1.85,0,0,1-.15-.6,2.31,2.31,0,0,1,.08-.73,2,2,0,0,1,.46-.89,1.84,1.84,0,0,1,.77-.49,2.9,2.9,0,0,1,1-.13,5.82,5.82,0,0,1,1.21.18,6,6,0,0,1,1.21.43,2.56,2.56,0,0,1,.78.56,1.75,1.75,0,0,1,.41.72,2.69,2.69,0,0,1,.1.89l-1.56-.17a1.2,1.2,0,0,0-.29-.84,1.84,1.84,0,0,0-1-.5,2.77,2.77,0,0,0-.7-.1,1.27,1.27,0,0,0-.48.08.71.71,0,0,0-.3.23.87.87,0,0,0-.15.32.77.77,0,0,0,0,.49,1.08,1.08,0,0,0,.29.39,3.07,3.07,0,0,0,.51.34l.68.34.65.33a6.09,6.09,0,0,1,.6.35,3.43,3.43,0,0,1,.51.41,1.83,1.83,0,0,1,.37.5,1.65,1.65,0,0,1,.17.62,2.23,2.23,0,0,1-.07.78m2.95,3.12,1.82-7.42,5.83,1.43-.29,1.2-4.28-1-.46,1.86,4,1-.29,1.2-4-1-.48,2,4.5,1.1-.29,1.2-6.05-1.48m9.6,2.19,1.07-7.56,1.58.22-.89,6.34,4.06.57-.17,1.22Zm11-5.29-.08,2.36,3.91.13,0,1.24L179,233l-.09,2.8-1.6-.05.25-7.63,5.63.19,0,1.24-4-.13" style="fill:#23365d;fill-rule:evenodd"/></svg>