<svg xmlns="http://www.w3.org/2000/svg" viewBox="0 0 457.38 460.38"><title>Samoa</title><line x1="229.76" y1="97.78" x2="229.76" y2="395.84" style="fill:none;stroke:#ce1126;stroke-width:6.886600017547607px"/><path d="M183.63,444.63s-15.5,11.85-18.05,12.22.37,3.1.37,3.1,16.59-.18,17.69.36,18.6-12.95,18.6-12.95S187.83,442.07,183.63,444.63Z" style="fill:#07a64f"/><path d="M275.89,444.63s15.5,11.85,18.05,12.22-.36,3.1-.36,3.1-16.59-.18-17.69.36-18.6-12.95-18.6-12.95,14.4-5.29,18.6-2.73Z" style="fill:#07a64f"/><path d="M268.73,67.8c79.9,16.79,139.63,84.12,139.63,164.62,0,93.14-80,168.65-178.6,168.65S51.17,325.57,51.17,232.43c0-80.47,59.68-147.77,139.52-164.6" style="fill:none;stroke:#ce1126;stroke-linecap:round;stroke-linejoin:round;stroke-width:6.886600017547607px"/><ellipse cx="229.76" cy="235.75" rx="142.81" ry="137.97" style="fill:none;stroke:#ce1126;stroke-width:6.886600017547607px"/><line x1="51.17" y1="230.92" x2="408.36" y2="230.92" style="fill:none;stroke:#ce1126;stroke-width:6.886600017547607px"/><line x1="342.89" y1="102.94" x2="113.91" y2="361.76" style="fill:none;stroke:#ce1126;stroke-width:6.886600017547607px"/><line x1="360.11" y1="347.42" x2="100.14" y2="116.14" style="fill:none;stroke:#ce1126;stroke-width:6.886600017547607px"/><path d="M229.45,118c20.92-.32,44,9.44,59.54,10.51s37-10.28,37-10.28l34.65,28.1S329.74,179.1,340,222.18s57.13,110.52-51.51,145.17c-45.9,13.11-58.91,33.72-58.91,33.72h0s-13-20.6-58.91-33.72C62,332.7,108.87,265.27,119.17,222.18s-20.61-75.87-20.61-75.87l34.65-28.1s21.44,11.35,37,10.28,38.62-10.83,59.54-10.51h-.31Z" style="fill:#fff;stroke:#0b295e;stroke-width:6.886600017547607px"/><polygon points="221.23 45.32 221.23 84.35 239.59 84.35 239.59 45.32 265.64 45.32 265.64 29.54 239.59 29.54 239.59 6.87 221.23 6.87 221.23 29.54 195.18 29.54 195.18 45.32 221.23 45.32" style="fill:none;stroke:#ce1126;stroke-width:3.943700075149536px"/><path d="M106.22,401.52C99.19,397.3,77.89,354,77.89,354s36.4,25.06,39.89,47.95C117.78,402,107.32,402.18,106.22,401.52Z" style="fill:#07a64f"/><path d="M93.8,384.3S65,378,60,372.75c0,0,3.49,18.74,42.28,30.73,0,0,11.11,1.74,4.36-7.63S100.34,386.27,93.8,384.3Z" style="fill:#07a64f"/><path d="M47.6,312.6s7.19,15,7,20.71a38.67,38.67,0,0,0,2,12s-29.64-14.6-34-21.14c0,0,9.15,22,32.69,33.35,0,0,16.13,11.11,18.53,13.08C73.75,370.57,75.71,334,47.6,312.6Z" style="fill:#07a64f"/><path d="M31.47,266.17s-3.27,19-.87,28.33c0,0-22.67-13.08-27.9-25.06,0,0,0,19,22,41.19s17.22,17.65,17.22,17.65S43.24,295.6,43,290.8,38,272.71,31.47,266.17Z" style="fill:#07a64f"/><path d="M2,207.32s6.48,19.13,8.06,21.36,5,14.17,5,14.17,5-9.59,8.06-13.73,6.1-10,6.1-12.64c0,0,4.14,20.92-.87,34.87a237.19,237.19,0,0,0-7.85,27.24S1,249.83.3,236.53.3,213.21,2,207.32Z" style="fill:#07a64f"/><path d="M25.37,149.57s2,31.6,0,35.31c0,0,20.49-14.38,21.14-17.44,0,0-2,29-21.14,44.25,0,0-6.1,8.06-5.88,12.42,0,0-20.27-32,5.88-74.54Z" style="fill:#07a64f"/><path d="M55.44,104.45S48,130.39,48,135C48,135,68.3,131,71.79,126c0,0-12.21,21.36-27,31.17S30.6,172.89,30.6,172.89,23.19,126.9,55.44,104.45Z" style="fill:#07a64f"/><path d="M54.79,126.46S61.55,86.58,104,81.78C104,81.78,89,115.35,54.79,126.46Z" style="fill:#07a64f"/><path d="M351.15,401.52c7-4.22,28.33-47.51,28.33-47.51S343.09,379.07,339.6,402C339.6,402,350.06,402.18,351.15,401.52Z" style="fill:#07a64f"/><path d="M363.57,384.3s28.77-6.32,33.78-11.55c0,0-3.49,18.74-42.28,30.73,0,0-11.11,1.74-4.36-7.63S357,386.27,363.57,384.3Z" style="fill:#07a64f"/><path d="M409.78,312.6s-7.19,15-7,20.71a38.65,38.65,0,0,1-2,12s29.64-14.6,34-21.14c0,0-9.15,22-32.69,33.35,0,0-16.13,11.11-18.52,13.08C383.63,370.57,381.67,334,409.78,312.6Z" style="fill:#07a64f"/><path d="M425.91,266.17s3.27,19,.87,28.33c0,0,22.67-13.08,27.9-25.06,0,0,0,19-22,41.19s-17.22,17.65-17.22,17.65-1.31-32.69-1.09-37.49,5-18.09,11.55-24.63Z" style="fill:#07a64f"/><path d="M455.33,207.32s-6.48,19.13-8.06,21.36-5,14.17-5,14.17-5-9.59-8.07-13.73-6.1-10-6.1-12.64c0,0-4.14,20.92.87,34.87a237.43,237.43,0,0,1,7.85,27.24s19.62-28.77,20.27-42.06,0-23.32-1.74-29.21Z" style="fill:#07a64f"/><path d="M432,149.57s-2,31.6,0,35.31c0,0-20.49-14.38-21.14-17.44,0,0,2,29,21.14,44.25,0,0,6.1,8.06,5.89,12.42,0,0,20.27-32-5.89-74.54Z" style="fill:#07a64f"/><path d="M401.93,104.45s7.41,25.94,7.41,30.51c0,0-20.27-3.92-23.76-8.94,0,0,12.2,21.36,27,31.17s14.17,15.69,14.17,15.69,7.41-46-24.85-68.44Z" style="fill:#07a64f"/><path d="M402.59,126.46s-6.76-39.89-49.26-44.68C353.33,81.78,368.37,115.35,402.59,126.46Z" style="fill:#07a64f"/><line x1="204.17" y1="1.23" x2="213.83" y2="14.06" style="fill:none;stroke:#ce1126;stroke-linecap:round;stroke-linejoin:round;stroke-width:2.2955000400543213px"/><line x1="215.15" y1="22.13" x2="197.43" y2="5.99" style="fill:none;stroke:#ce1126;stroke-linecap:round;stroke-linejoin:round;stroke-width:2.2955000400543213px"/><line x1="207.61" y1="22.66" x2="194.78" y2="13.79" style="fill:none;stroke:#ce1126;stroke-linecap:round;stroke-linejoin:round;stroke-width:2.2955000400543213px"/><line x1="208.01" y1="51.76" x2="193.86" y2="61.41" style="fill:none;stroke:#ce1126;stroke-linecap:round;stroke-linejoin:round;stroke-width:2.2955000400543213px"/><line x1="214.36" y1="52.15" x2="198.09" y2="68.69" style="fill:none;stroke:#ce1126;stroke-linecap:round;stroke-linejoin:round;stroke-width:2.2955000400543213px"/><line x1="214.1" y1="60.09" x2="204.44" y2="73.98" style="fill:none;stroke:#ce1126;stroke-linecap:round;stroke-linejoin:round;stroke-width:2.2955000400543213px"/><line x1="255.35" y1="1.23" x2="245.69" y2="14.06" style="fill:none;stroke:#ce1126;stroke-linecap:round;stroke-linejoin:round;stroke-width:2.2955000400543213px"/><line x1="244.37" y1="22.13" x2="262.1" y2="5.99" style="fill:none;stroke:#ce1126;stroke-linecap:round;stroke-linejoin:round;stroke-width:2.2955000400543213px"/><line x1="251.91" y1="22.66" x2="264.74" y2="13.79" style="fill:none;stroke:#ce1126;stroke-linecap:round;stroke-linejoin:round;stroke-width:2.2955000400543213px"/><line x1="251.51" y1="51.76" x2="265.67" y2="61.41" style="fill:none;stroke:#ce1126;stroke-linecap:round;stroke-linejoin:round;stroke-width:2.2955000400543213px"/><line x1="245.16" y1="52.15" x2="261.44" y2="68.69" style="fill:none;stroke:#ce1126;stroke-linecap:round;stroke-linejoin:round;stroke-width:2.2955000400543213px"/><line x1="245.43" y1="60.09" x2="255.08" y2="73.98" style="fill:none;stroke:#ce1126;stroke-linecap:round;stroke-linejoin:round;stroke-width:2.2955000400543213px"/><path d="M428.51,369.84c.31.2.59.35.88.5l-.09.21c10.58,4.76,19.29,10.39,19,12.29,0,.19-.6.75-2.86,1.07-4.14.57-10.14.77-16.49,1l-4.47.16,4-15.2Zm-22.07,24.08,2.21,1.44c5.1,3.31,11.45,7.43,11,9.29-.21.79-2.2,2.71-16.1,3.47-.9,0-1.79.05-2.69.08L405,392.82A14.2,14.2,0,0,0,406.44,393.92ZM58.71,408.19c-.9,0-1.79,0-2.69-.08-13.9-.76-15.89-2.67-16.1-3.46-.49-1.86,5.85-6,11-9.29l2.22-1.44a14.24,14.24,0,0,0,1.47-1.1Zm-47.5-25.35c-.27-1.9,8.44-7.53,19-12.29l-.09-.21c.28-.15.57-.3.88-.5L35,385l-4.47-.16c-6.35-.21-12.35-.4-16.49-1-2.27-.31-2.84-.87-2.86-1.07Zm18.92,39.28A4.13,4.13,0,0,1,28.47,419c0-5-11.2-25.22-15.61-33l.91.15c4.26.59,10.31.79,16.73,1,8,.26,22.93.75,23.46,2.81,0,0,0,.65-2.13,2l-2.21,1.43c-7.46,4.84-12.85,8.33-11.92,11.8a3.07,3.07,0,0,0,.4.86l-.25.11c.07.16,4.36,10,7.72,19.3-6,.53-12.45-.82-15.43-3.39ZM407.75,439.5a2.16,2.16,0,0,1-.92,1.54c-5.82,4.78-32.08,3.43-44.84,1.65l-5.42-.79c-14.28-2.12-38.17-5.68-54.8-2.71l-9.43,1.73c-18.87,3.51-44.73,8.31-62.56,8.17-18.52-.15-45.2-5-64.68-8.57l-7.33-1.33c-16.63-3-40.52.58-54.8,2.71l-5.42.79c-12.77,1.78-39,3.13-44.84-1.65a2.17,2.17,0,0,1-.92-1.54c-.37-6.62-7.56-24.18-10.55-31.24,2.88,1.08,7.61,1.76,14.67,2.14,13.36.73,26.33-1.43,40.07-3.7,15.55-2.58,31.64-5.25,50.73-4.37,18.72.86,34.46,3.7,48.34,6.2,13.05,2.35,24.33,4.39,34.75,4.17,9.81-.2,20.32-2,32.49-4.13,14.44-2.5,30.82-5.33,50.55-6.24,19.1-.88,35.18,1.79,50.73,4.37,13.73,2.28,26.71,4.43,40.07,3.7,7.06-.38,11.79-1.06,14.67-2.14-3,7.06-10.17,24.63-10.55,31.24Zm23.3-20.5a4.13,4.13,0,0,1-1.66,3.11c-3,2.57-9.39,3.92-15.43,3.39,3.36-9.3,7.65-19.14,7.72-19.3l-.25-.11a3,3,0,0,0,.4-.86c.93-3.47-4.46-7-11.92-11.8L407.69,392c-2.09-1.37-2.12-2-2.12-2,.53-2.05,15.45-2.54,23.46-2.8,6.41-.21,12.48-.41,16.73-1l.91-.15c-4.42,7.75-15.61,27.93-15.61,33Z" style="fill:#fff"/><path d="M449.26,383.82S432.2,413.22,432.2,419s-11,8.83-20.11,7.46" style="fill:none;stroke:#000;stroke-width:2.299999952316284px"/><path d="M430.22,369.5s-2.28-1.07-2.28-2L423.06,386" style="fill:none;stroke:#010101;stroke-width:2.299999952316284px"/><line x1="55.05" y1="390.22" x2="60.23" y2="409.41" style="fill:none;stroke:#010101;stroke-width:2.299999952316284px"/><path d="M10.26,383.82S27.32,413.22,27.32,419s11,8.83,20.11,7.46" style="fill:none;stroke:#000;stroke-width:2.299999952316284px"/><path d="M29.3,369.5s2.28-1.07,2.28-2L36.46,386" style="fill:none;stroke:#010101;stroke-width:2.299999952316284px"/><path d="M429.76,369.5S459.92,383.06,445.6,385s-51.33-.46-38.54,7.92,24.52,14.77-3.5,16.3-54.38-9.75-90.79-8.07-61.69,9.93-83,10.38-46.61-8.7-83-10.37S84,410.78,56,409.26s-16.3-7.92-3.5-16.3S28.24,387,13.92,385,29.76,369.5,29.76,369.5" style="fill:none;stroke:#000;stroke-width:2.299999952316284px"/><path d="M420.62,405.75s-11.27,25.74-11.73,33.81-34,6.09-47.07,4.26S320.7,437,302,440.33s-51,10.09-72.2,9.92-53.47-6.57-72.2-9.92S110.8,442,97.7,443.83s-46.61,3.81-47.07-4.26S38.9,405.75,38.9,405.75" style="fill:none;stroke:#000;stroke-width:2.299999952316284px"/><line x1="404.48" y1="390.22" x2="399.3" y2="409.41" style="fill:none;stroke:#010101;stroke-width:2.299999952316284px"/><path d="M141.64,177.59h29.22c-7.31,0-14.62-6.34-14.62-6.34s-7.3,6.34-14.61,6.34Zm-11.44,0h11.44c-6.31,0-12.6-4.71-14.21-6Zm40.67,0h29.23c-7.31,0-14.62-6.34-14.62-6.34S178.17,177.59,170.86,177.59Zm29.23,0h29.23c-7.31,0-14.61-6.34-14.61-6.34S207.4,177.59,200.09,177.59Zm86.47,0h29.22c-7.31,0-14.62-6.34-14.62-6.34S293.87,177.59,286.57,177.59Zm29.22,0h12.39l2-6.15C329,172.45,322.38,177.59,315.79,177.59Zm-57.83,0c-7.1-.34-14-6.3-14-6.3s-7.31,6.34-14.62,6.34h57.24c-7.31,0-14.62-6.34-14.62-6.34S265,177.22,258,177.56Z" style="fill:#07a64f"/><path d="M327.11,185.27c-7.31,0-10.67-6.34-10.67-6.34s-7.31,6.34-14.61,6.34-14.62-6.34-14.62-6.34-7.3,6.34-14.61,6.34S258,178.94,258,178.94s-7.31,6.34-14.62,6.34h1.25c-7.32,0-14.63-6.34-14.63-6.34s-7.31,6.34-14.62,6.34-14.61-6.34-14.61-6.34-7.31,6.34-14.62,6.34-14.62-6.34-14.62-6.34-7.31,6.34-14.61,6.34-14.62-6.34-14.62-6.34A11.77,11.77,0,0,1,132,185.27H327.11Z" style="fill:#07a64f"/><path d="M327.11,200.77c-7.31,0-10.67-6.34-10.67-6.34s-7.31,6.34-14.61,6.34-14.62-6.34-14.62-6.34-7.3,6.34-14.61,6.34S258,194.43,258,194.43s-7.31,6.34-14.62,6.34h1.25c-7.32,0-14.63-6.34-14.63-6.34s-7.31,6.34-14.62,6.34-14.61-6.34-14.61-6.34-7.31,6.34-14.62,6.34-14.62-6.34-14.62-6.34-7.31,6.34-14.61,6.34-14.62-6.34-14.62-6.34A11.77,11.77,0,0,1,132,200.77H327.11Z" style="fill:#07a64f"/><path d="M142.33,192.22h29.11c-7.28,0-14.56-6.34-14.56-6.34S149.61,192.22,142.33,192.22Zm-6.83-.29,6.83.29c-6.28,0-12.55-4.71-9.59-6.29Zm35.94.29h29.12c-7.28,0-14.56-6.34-14.56-6.34S178.73,192.22,171.45,192.22Zm29.12,0h29.12c-7.28,0-14.56-6.34-14.56-6.34s-7.28,6.34-14.56,6.34Zm86.15,0h29.11c-7.28,0-14.56-6.34-14.56-6.34S294,192.22,286.72,192.22Zm29.11,0h8.62l2-6.15C328.94,187.08,322.4,192.22,315.83,192.22Zm-57.62,0c-7.08-.34-14-6.3-14-6.3s-7.28,6.34-14.57,6.34h57c-7.28,0-14.56-6.34-14.56-6.34S265.28,191.85,258.21,192.19Z" style="fill:#07a64f"/><line x1="130.84" y1="178.12" x2="327.11" y2="178.12" style="fill:none;stroke:#07a64f;stroke-width:1.1477999687194824px"/><line x1="130.84" y1="185.01" x2="327.11" y2="185.01" style="fill:none;stroke:#07a64f;stroke-width:1.1477999687194824px"/><line x1="133.93" y1="191.61" x2="324.02" y2="191.61" style="fill:none;stroke:#07a64f;stroke-width:1.1295000314712524px"/><line x1="133.93" y1="200.22" x2="324.02" y2="200.22" style="fill:none;stroke:#07a64f;stroke-width:1.1295000314712524px"/><path d="M263,137.36c8.92,2.24,17.34,4.35,25,4.88,12.66.87,27-4.1,36-7.9l17.64,14.3c-7.69,11.74-17.49,31.46-17.49,55.7a90.34,90.34,0,0,0,2.49,21c1.84,7.69,4.59,15.65,7.51,24.08,5.44,15.74,11,31.84,11,46.75a45.23,45.23,0,0,1-4.54,20.59c-7.71,15.39-26.65,28-56.27,37.43l.4-.12c-28.06,8-45.23,18.84-55.14,27.18-9.91-8.34-27.08-19.16-55.14-27.18l.4.12c-29.63-9.45-48.56-22-56.27-37.43a45.21,45.21,0,0,1-4.54-20.59c0-14.9,5.57-31,11-46.74,2.91-8.43,5.67-16.4,7.51-24.08a90.2,90.2,0,0,0,2.5-21c0-24.24-9.81-44-17.49-55.7l17.64-14.3c8.94,3.8,23.29,8.77,36,7.9,7.69-.53,16.12-2.64,25-4.88,11.24-2.82,22.87-5.74,33.25-5.6h.31c10.38-.14,22,2.78,33.25,5.6Z" style="fill:none;stroke:#0b295e;stroke-width:3.4433000087738037px"/><path d="M231.94,164.16s9.18-5.93,18.17,1.15c0,0-5.74-8-13.39-7.84,0,0,6.89-7.46,19.32-1.53,0,0-6.89-9-20.47-5,0,0,10.9-6.5,17.79-2.87,0,0-8-5.55-13.39-3.44A12.28,12.28,0,0,1,246.1,137s-12.43,1.91-15.49,6.5a14.24,14.24,0,0,0-8-6.89s3.06,6.12,1.91,9c0,0-10.52-10.33-20.28-5.36,0,0-2.68,2.29-2.68,5.16,0,0,7.65-4.21,11.86.57,0,0-9.56-1.15-14.92,8.61,0,0,14-5.74,23.15.19,0,0-13.77.19-15.3,10.14,0,0,12.51-6.48,18-1.34,0,0,4,4.59,7.65.57Z" style="fill:#07a64f"/><rect x="226" y="166.29" width="6.97" height="31.29" style="fill:#995037"/><path d="M233.28,161.48c0,2.45-3.25,4.44-3.25,4.44s-3.25-2-3.25-4.44S228.23,157,230,157,233.28,159,233.28,161.48Z" style="fill:#f6c906;stroke:#754438;stroke-width:0.8033999800682068px"/><path d="M228.7,168.94c-1.16,2.16-5,2.37-5,2.37s-1.92-3.29-.75-5.45,3.39-3.22,5-2.37,1.92,3.29.75,5.45Z" style="fill:#f6c906;stroke:#754438;stroke-width:0.8033999800682068px"/><path d="M235.68,164.47c2,1.48,1.58,5.27,1.58,5.27s-3.55,1.39-5.51-.09-2.66-3.84-1.57-5.27S233.72,163,235.68,164.47Z" style="fill:#f6c906;stroke:#754438;stroke-width:0.8033999800682068px"/><path d="M284.74,354.11l-.3.09-.1,0,.4-.12Zm49.41-104.64c-2.92-8.43-5.67-16.4-7.51-24.08a90.78,90.78,0,0,1-2.27-15l-.45-.64c-72.79,10.31-94.16-15.48-94.16-15.48C188,226.35,135.34,209.7,135.34,209.7s-.29-.06-.43-.09a90.53,90.53,0,0,1-2.34,15.78c-1.84,7.69-4.59,15.65-7.5,24.08-5.44,15.74-11,31.84-11,46.74a45.2,45.2,0,0,0,4.54,20.59c7.7,15.37,26.61,28,56.18,37.4,27.88,8,45,18.78,54.83,27.09,9.88-8.31,27-19.08,54.83-27.09,29.57-9.45,48.47-22,56.18-37.4a45.22,45.22,0,0,0,4.54-20.59C345.16,281.32,339.59,265.21,334.15,249.47ZM174.87,354.24l-.1,0-.3-.09.4.12Z" style="fill:#0b295e"/><polygon points="162.88 274.99 148 264.03 166.31 264.32 171.86 246.59 177.52 264.29 195.82 263.89 181.01 274.94 186.77 292.03 171.96 281.55 157.21 292.12 162.88 274.99" style="fill:#fff"/><polygon points="220.79 230.42 205.91 219.46 224.23 219.75 229.78 202.01 235.43 219.72 253.74 219.32 238.93 230.37 244.69 247.46 229.88 236.98 215.13 247.54 220.79 230.42" style="fill:#fff"/><polygon points="220.79 346.25 205.91 335.29 224.23 335.58 229.78 317.85 235.43 335.55 253.74 335.15 238.93 346.2 244.69 363.29 229.88 352.81 215.13 363.37 220.79 346.25" style="fill:#fff"/><polygon points="287.81 261.35 272.93 250.39 291.24 250.68 296.79 232.94 302.44 250.65 320.75 250.25 305.94 261.3 311.7 278.39 296.89 267.91 282.14 278.47 287.81 261.35" style="fill:#fff"/><polygon points="251.68 298.35 239.89 289.66 254.4 289.89 258.79 275.84 263.27 289.87 277.77 289.55 266.04 298.3 270.61 311.84 258.88 303.54 247.19 311.91 251.68 298.35" style="fill:#fff"/><path d="M59.85,416.26l11.91.64-.21,4-6.93-.37L64.43,424l6.52.35-.21,4L64.22,428l-.37,7-5-.27,1-18.54Z" style="fill:#ce1126"/><path d="M77.25,430.87l-.83,4.35-5.14.26,4.45-18.82,6.6-.34,6.47,18.26-5.36.27L82,430.62ZM81.16,427l-1-3.29c-.33-1-.76-2.53-1.1-3.61H79c-.22,1.11-.42,2.67-.64,3.73l-.63,3.34Z" style="fill:#ce1126"/><path d="M93,414.79a38.47,38.47,0,0,1-2.73,8.2l-2.93.57a45.44,45.44,0,0,0,1.2-8l4.46-.74Z" style="fill:#ce1126"/><path d="M99.73,428.69l-.41,4.4-5.1.76,2.62-19.16,6.54-1,8.19,17.56-5.31.79-1.8-4.08Zm3.52-4.25-1.33-3.17c-.43-1-1-2.44-1.44-3.49h-.06c-.11,1.13-.16,2.7-.28,3.77l-.31,3.39Z" style="fill:#ce1126"/><path d="M117.16,430.6l-7.87-17.82,5.42-.59,2.74,7a62.89,62.89,0,0,1,2.24,6.3h.06c.22-2.32.5-4.52.84-6.55l1.2-7.56,5.26-.57L123,430Z" style="fill:#ce1126"/><path d="M134.86,424.8l-.95,4.32-5.15.11,5-18.68,6.61-.15,6,18.44-5.37.12-1.28-4.27Zm4-3.78-.93-3.31c-.3-1-.69-2.55-1-3.64h-.05c-.25,1.11-.49,2.66-.74,3.71l-.72,3.32,3.44-.08Z" style="fill:#ce1126"/><path d="M161.83,423.6l-6.57-1.11-.57,3.37,7.36,1.24-.68,4-12.28-2.06,3.08-18.31,11.9,2-.67,4-7-1.17-.5,3,6.57,1.11-.67,4Z" style="fill:#ce1126"/><path d="M181.3,415.69,178.2,434l-4.92-.83,3.1-18.31Z" style="fill:#ce1126"/><path d="M192.5,417.65l4.94.68-2,14.27,7.07,1L202,437.7,190,436Z" style="fill:#ce1126"/><path d="M217.09,431.64l-6.64-.6-.31,3.4,7.43.67-.37,4.06-12.4-1.12,1.66-18.49,12,1.08-.36,4-7.05-.64-.27,3,6.64.6-.36,4Z" style="fill:#ce1126"/><path d="M234.75,435.6,234,440l-5.14.35,4.1-18.89,6.6-.46,6.8,18.14-5.36.37-1.48-4.2-4.78.33Zm3.84-4-1.08-3.27c-.35-1-.81-2.51-1.16-3.59h-.06c-.2,1.12-.37,2.68-.57,3.74l-.57,3.35,3.44-.24Z" style="fill:#ce1126"/><path d="M248.51,424.18l-4.7.61-.54-4.12,14.42-1.89.54,4.13-4.78.63,1.87,14.28-4.95.65-1.87-14.28Z" style="fill:#ce1126"/><path d="M264.59,417.62,266.34,428c.47,2.77,1.69,4.18,3.62,3.86s2.66-1.93,2.17-4.84l-1.76-10.37,4.92-.83,1.71,10.1c1,5.65-1.38,9-6.52,9.85s-8.12-1.45-9.12-7.34l-1.69-10,4.92-.83Z" style="fill:#ce1126"/><path d="M285.41,428.42l-.24,4.42-5.06.94L282,414.54l6.5-1.21,8.83,17.24-5.28,1-1.95-4Zm3.36-4.38-1.45-3.12c-.46-1-1.09-2.4-1.56-3.43h-.06c-.07,1.14-.06,2.7-.14,3.78l-.18,3.4,3.39-.63Z" style="fill:#ce1126"/><path d="M306.19,424.2a11.28,11.28,0,0,0,4.85,1c1.71,0,2.52-.63,2.5-1.57s-.86-1.41-3-2.08c-3.17-1-5.27-2.72-5.33-5.48-.07-3.27,2.63-5.87,7.31-6a12,12,0,0,1,5.06.85l-1,4a9.66,9.66,0,0,0-4.07-.79c-1.52,0-2.33.6-2.31,1.43s1,1.3,3.38,2.13c3.36,1.14,4.91,2.9,5,5.48.07,3.19-2.37,6-7.8,6.12a13.09,13.09,0,0,1-5.48-1l.85-4.12Z" style="fill:#ce1126"/><path d="M327.06,425.19l-1.41,4.19-5.13-.44,7-18,6.59.57,3.92,19-5.35-.46-.81-4.38-4.77-.41Zm4.41-3.32-.56-3.39c-.18-1.07-.41-2.61-.59-3.73h-.06c-.37,1.07-.77,2.59-1.14,3.61L328,421.57l3.43.3Z" style="fill:#ce1126"/><path d="M357.3,426.56c.25-2.11.56-4.57,1-7.42h-.08c-.93,2.34-2.09,5-3,6.91l-2.77,6.14-3.84-.56L348,425c-.17-2.06-.34-4.87-.38-7.44h-.05c-.49,2.57-1,5.28-1.39,7.37l-1.23,6.53-4.52-.66,3.81-18.2,6.62,1,.5,5.11c.19,2.12.38,4.65.43,6.94l.11,0c.85-2.16,1.83-4.66,2.66-6.52l2.08-4.71,6.48,1-1.77,18.51-4.8-.7.75-6.6Z" style="fill:#ce1126"/><path d="M382.75,425.72c-.29,6-4.05,9.6-9.77,9.32s-8.7-4.76-8.45-9.9c.26-5.39,4-9.51,9.69-9.24,6,.29,8.78,4.87,8.54,9.82Zm-13-.41c-.17,3.47,1.24,5.69,3.63,5.8s3.91-2.15,4.07-5.48-1.16-5.68-3.55-5.8S369.95,421.9,369.78,425.31Z" style="fill:#ce1126"/><path d="M389.74,430.82l-1,4.31-5.15.07,5.14-18.64,6.61-.09,5.8,18.49-5.37.08-1.24-4.28Zm4.05-3.75-.9-3.32c-.29-1-.67-2.55-1-3.65h-.05c-.26,1.1-.51,2.65-.77,3.7l-.75,3.32,3.44,0Z" style="fill:#ce1126"/><path d="M236.15,10.32V33h26v8.9h-26v39H224.67v-39h-26V33h26V10.32Z" style="fill:#0b295e;stroke:#fff;stroke-width:2.2955000400543213px"/></svg>