<svg xmlns="http://www.w3.org/2000/svg" viewBox="0 0 780 864"><title>Saudi_Arabia</title><path d="M499.59,782.64c31.05-33,24.48-70.19-.36-70.61,8.88,27.36-11.52,45-19.28,54.15-19.56-16.82-39.82-35.52-60.79-54.77,102.31-84.63,214.28-159.7,360.57-162.06C622.22,492.78,496.49,588.93,390,684.86,283.58,588.93,157.86,492.78.31,549.35c146.32,2.36,258.28,77.42,360.61,162.06-21,19.25-41.25,38-60.84,54.77-7.7-9.1-28.11-26.79-19.28-54.15-24.82.42-31.4,37.65-.32,70.61C268,793,247.92,810.5,231.9,814.7c-12.32,3.22-22.21-3.18-24.44-16.53-4.7-28.19-48.37-24-43,15.84,4.9,36.31,49,52.15,86.77,35.33,15-6.69,35.58-25.67,52.48-39.46,7.73,9,28.13,26.72,19.27,54.12,24.84-.46,31.4-37.65.35-70.66,22.06-18.82,44.2-38.23,66.74-57.43,22.52,19.19,44.67,38.61,66.75,57.43-31.07,33-24.51,70.2.34,70.66-8.86-27.4,11.54-45.06,19.25-54.12,16.93,13.79,37.5,32.77,52.51,39.46,37.78,16.82,81.84,1,86.74-35.33,5.34-39.82-38.31-44-43-15.84-2.23,13.35-12.09,19.74-24.43,16.53-16-4.2-36.14-21.71-48.56-32.06M306.39,254.77c-23.73,62.73-25,133.37,9.08,211.06-5.44-80.68,12.26-147.32,45.17-197.54l7,69.18h-8.11l8.11,81h-8.11l8.11,81h-8.11l8.1,80.87-22.92,22.85h90.77L412.49,580.3l8.12-80.87h-8.12l8.12-81h-8.12l8.12-81h-8.12l7-69.18c32.9,50.22,50.61,116.91,45.17,197.54,34.09-77.69,32.81-148.3,9.08-211.06,40.29,47.51,71.46,103.06,85.47,172.5,14.54-88.08-10.32-160-55.89-215.75,44.12,31.82,82,72.15,108.54,126.69-6.18-83.45-48.4-137.56-106.56-176.33,50.26,16.43,91.3,43.93,128.13,92.75C608.76,168,555.1,133.36,488.6,113.86c45.35-3.31,88.2,1.8,130.61,28.22C573.18,80,511.39,69.7,448.73,76.6c26.35-13.42,56-20.13,87.85-15.38-35.9-26.48-83.79-29.1-124.78-6.78L390-.46,368.25,54.41c-41-22.29-88.85-19.68-124.75,6.81,31.83-4.74,61.46,2,87.82,15.38C268.68,69.7,206.91,80,160.85,142.08c42.44-26.42,85.26-31.53,130.63-28.22C225,133.36,171.32,168,146.71,254.63c36.8-48.81,77.86-76.32,128.13-92.75-58.2,38.76-100.4,92.88-106.59,176.33,26.5-54.54,64.44-94.87,108.54-126.69-45.57,55.78-70.43,127.67-55.89,215.75,14-69.44,45.19-125,85.49-172.5" style="fill:#006c35"/></svg>