<svg xmlns="http://www.w3.org/2000/svg" viewBox="0 0 1216.75 1009.13"><title>Singapore</title><path d="M292.91,675.49C263,676.89,225,679,190.95,691s-65.14,24.91-114.43,47.93c51-8.83,80.44-26.12,111.79-36.85s67.63-15.21,88.41-17.33,24-2.32,23.68-6.59c4.88,1.16,9.38,2.42,14.35,3.6-3.25,1.56-9,2.21-13.36,2.2-72.89,12.37-155,33.74-198.93,95.78,67-58.34,116.15-65.81,195.91-85.66,7.76.37,23.57-7.28,22.9-10.62,10.94,2.63,21.41,4.72,31.22,6.38.23,1.35-10.15,2.11-13.69,1.85-69.27,16-156.16,29.88-189.83,98,59.82-63.24,109.13-65.91,187.25-88.34,7.34-2.11,20.3-4.56,22.83-10.06,2.22.71,4.54,1.2,6.75,1.7,10,2.66,20.21,5.7,31.45,9.5-3.47.87-13.76,0-17.59-.35-55.66,3.37-147.36,26.07-180.22,74.66-4.34,8.2-8.73,16.1-13.46,24,52.89-70.44,109.65-73,190.67-88.79,7.58-1.47,27.88-3.82,27.36-7.27,12.16,2.61,19.29,6.26,28.14,9.36-1.35,1.85-9.4.93-13.08.33-54-.11-150.18,22.88-184.9,67.67-4.7,7.63-9.42,15-14.47,22.28,55.42-64.6,118.15-69.83,197.37-82.1,7.51,1,16.2-2.71,20.95-5.84,8.66,3.23,12.73,6.27,19,9.1,0,0-6.31-2.84.48-.11.32.69-6.31-1-10.37-1.67-54-.11-148.42,20.92-183.14,65.71-4.7,7.63-9.42,15-14.47,22.28,55.42-64.6,114.71-66,193.93-78.27,7.51,1,16.86-3.91,18.7-5.79,7,1.79,12.08,5.06,17,8.4,0,0-5.49-2.77.85.21-2.71,1.71-9.24,1.12-13.11.49-54-.11-144.9,17-179.63,61.8-4.7,7.63-9.42,15-14.47,22.28,55.42-64.6,110.63-61.47,189.85-73.74,7.51,1,21.41-5.74,22.8-8.17a50.1,50.1,0,0,0,5.53,3.29c3.47,2,6.85,4,11.08,6.55-2.8,2.12-9.47,2.53-13.37,1.9-51.22-.1-137.39,16.13-170.31,58.6-4.45,7.23-8.93,14.19-13.72,21.12,52.55-61.25,104.78-58.15,179.89-69.79,7.12,1,20.45-6.21,22.47-8.5,4.41,3.26,8.49,6.26,12.52,9.31,0,0-4-3.05.12.09-3.09,3.43-8.94,1.91-12.25,1.53-48.95,2.27-130.52,21.82-160,64.07-3.92,7.14-7.87,14-12.13,20.89,47.36-61.17,96.07-59.36,167.29-74,6.85.61,18.16-5.21,21.3-9.24,4,3.06,7.65,5.94,11.65,9.14-3.14,3.17-9,2.52-12.49,2.27-44.21,4.05-120,27-136.65,73.93-3.82,6.66-7.67,13.08-11.78,19.5,48.89-65.41,77-65,141.76-81.18,6.15.27,17.81-8.15,22.24-12.48a24.86,24.86,0,0,0,3.33,2.94s1.61,1.22,3.58,3c-1.81,3.24-6.86,3.11-9.52,3.29-34.1,7.9-86.24,27.76-101.63,72.24-2.27,5.66-4.59,11.14-7.11,16.64,38.63-60.84,54.27-58.18,103.14-77.86,4.83-.44,16.34-7.71,19.06-11.83,2.06.68,3.66,3,6.15,4.81,19.68,21.75,52.19,61.24,58.63,99.46,2,5.36,3.44,12.11,5.18,20.25,3.06,2.76,13-14.54,18.38-20.57-19.68-40.66-25.53-66-86.4-117.92a338,338,0,0,0-47-34.39c-23.23-13.34-53-27.31-78.42-35.84-27.83-9.34-60.94-17.35-97.25-25,0,0-35.55-5.2-39.84-5.11-31.64.63-64.78-2.35-94.92,2.3-33,6.51-63.4,14.36-111.91,29,48.29-1.48,77.68-13.48,108-19.24s52.33-3.51,84.27-4c7.21-.13,20.67-1.69,21.51-2.6-.54.59-1.71.25-2.91-.08" style="fill:#d6b61e;stroke:#000"/><path d="M961.95,675.49c29.89,1.4,67.89,3.54,102,15.48s65.14,24.91,114.43,47.93c-51-8.83-80.44-26.12-111.79-36.85s-67.63-15.21-88.41-17.33-24-2.32-23.68-6.59c-4.88,1.16-9.38,2.42-14.35,3.6,3.25,1.56,9,2.21,13.36,2.2,72.89,12.37,155,33.74,198.93,95.78-67-58.34-116.15-65.81-195.91-85.66-7.76.37-23.57-7.28-22.9-10.62-10.94,2.63-21.41,4.72-31.22,6.38-.23,1.35,10.15,2.11,13.69,1.85,69.27,16,156.16,29.88,189.83,98-59.82-63.24-109.13-65.91-187.25-88.34-7.34-2.11-20.3-4.56-22.83-10.06-2.22.71-4.54,1.2-6.75,1.7-10,2.66-20.21,5.7-31.45,9.5,3.47.87,13.76,0,17.59-.35,55.66,3.37,147.36,26.07,180.22,74.66,4.34,8.2,8.73,16.1,13.46,24-52.89-70.44-109.65-73-190.67-88.79-7.58-1.47-27.88-3.82-27.36-7.27-12.16,2.61-19.29,6.26-28.14,9.36,1.35,1.85,9.4.93,13.08.33,54-.11,150.18,22.88,184.9,67.67,4.7,7.63,9.42,15,14.47,22.28-55.42-64.6-118.15-69.83-197.37-82.1-7.51,1-16.2-2.71-20.95-5.84-8.66,3.23-12.73,6.27-19,9.1,0,0,6.31-2.84-.48-.11-.32.69,6.31-1,10.37-1.67,54-.11,148.42,20.92,183.14,65.71,4.7,7.63,9.42,15,14.47,22.28-55.42-64.6-114.71-66-193.93-78.27-7.51,1-16.86-3.91-18.7-5.79-7,1.79-12.08,5.06-17,8.4,0,0,5.49-2.77-.85.21,2.71,1.71,9.24,1.12,13.11.49,54-.11,144.9,17,179.63,61.8,4.7,7.63,9.42,15,14.47,22.28-55.42-64.6-110.63-61.47-189.85-73.74-7.51,1-21.41-5.74-22.8-8.17a50.1,50.1,0,0,1-5.53,3.29c-3.47,2-6.85,4-11.08,6.55,2.8,2.12,9.47,2.53,13.37,1.9,51.22-.1,137.39,16.13,170.31,58.6,4.45,7.23,8.93,14.19,13.72,21.12C897.6,769.1,845.37,772.2,770.26,760.56c-7.12,1-20.45-6.21-22.47-8.5-4.41,3.26-8.49,6.26-12.52,9.31,0,0,4-3.05-.12.09,3.09,3.43,8.94,1.91,12.25,1.53,48.95,2.27,130.52,21.82,160,64.07,3.92,7.14,7.87,14,12.13,20.89-47.36-61.17-96.07-59.36-167.29-74-6.85.61-18.16-5.21-21.3-9.24-4,3.06-7.65,5.94-11.65,9.14,3.14,3.17,9,2.52,12.49,2.27,44.21,4.05,120,27,136.65,73.93,3.82,6.66,7.67,13.08,11.78,19.5-48.89-65.41-77-65-141.76-81.18-6.15.27-17.81-8.15-22.24-12.48a24.86,24.86,0,0,1-3.33,2.94s-1.61,1.22-3.58,3c1.81,3.24,6.86,3.11,9.52,3.29,34.1,7.9,86.24,27.76,101.63,72.24,2.27,5.66,4.59,11.14,7.11,16.64-38.63-60.84-54.27-58.18-103.14-77.86-4.83-.44-16.34-7.71-19.06-11.83-2.06.68-3.66,3-6.15,4.81-19.68,21.75-52.19,61.24-58.63,99.46-2,5.36-3.44,12.11-5.18,20.25-3.06,2.76-13-14.54-18.38-20.57,19.68-40.66,25.53-66,86.4-117.92a338,338,0,0,1,47-34.39c23.23-13.34,53-27.31,78.42-35.84,27.83-9.34,60.94-17.35,97.25-25,0,0,35.55-5.2,39.84-5.11,31.64.63,64.78-2.35,94.92,2.3,33,6.51,63.4,14.36,111.91,29-48.29-1.48-77.68-13.48-108-19.24s-52.33-3.51-84.27-4c-7.21-.13-20.67-1.69-21.51-2.6.54.59,1.71.25,2.91-.08" style="fill:#d6b61e;stroke:#000"/><path d="M531,207.1c10.47-5.21,17-3.53,23.35-1.53-6.58-10.88-14.67-15.7-23.61-17.11Z" style="stroke:#000"/><path d="M322.5,256.51c32.82,38.13,30.73,11.65,70.36,43.36,2-10.15-7.32-22.18-24-38.72,25.9,22,33.87,3.31,61.26,13.71,1.11-6.13-8.07-11.84-16.8-17.6,27.23,11.24,29.93-15.74,70.21,6-1.17-8.17-7.74-15.38-15.38-22.43L496.83,247a39.33,39.33,0,0,1,15.61-11.86l21.3-3.51c-3.24-10.66,1.21-15.67,2.16-23.83-.45-6.66-4.7-9.62-.84-20-29.33-2.07-43.84-14.51-61.35,7.85-19.44-1.28-39.7-4.14-56.37.07-63.64-28.64-82.81-19.74-104.24-6.36" style="fill:#d6b61e;stroke:#000"/><path d="M490.56,215.56c21.39,2.28,26.19-16.35,45.33-8.16" style="fill:#d6b61e;stroke:#000"/><path d="M393.41,209.09c32.16,15.75,34.26-4.27,77.59,6.47" style="fill:#d6b61e;stroke:#000"/><path d="M723.77,205c-10.47-5.21-17-3.53-23.35-1.53,6.58-10.88,14.67-15.7,23.6-17.11Z" style="stroke:#000"/><path d="M932.24,254.39c-32.82,38.13-30.73,11.65-70.35,43.35-2-10.15,7.32-22.18,24-38.72-25.89,22-33.86,3.31-61.25,13.71-1.11-6.13,8.07-11.84,16.8-17.6-27.23,11.24-29.93-15.74-70.21,6,1.17-8.17,7.74-15.38,15.37-22.43l-28.72,6.18A39.33,39.33,0,0,0,742.3,233L721,229.49c3.24-10.66-1.21-15.67-2.16-23.83.45-6.66,4.7-9.62.84-20,29.33-2.07,43.84-14.51,61.34,7.85,19.44-1.28,39.7-4.14,56.37.07,22.85-10.29,40-15.73,53.52-17.86,24.17-3.81,32.73-37.72,46.46-29.14" style="fill:#d6b720;stroke:#000"/><path d="M764.19,213.45c-21.39,2.28-26.18-16.35-45.33-8.16" style="fill:#eac102;stroke:#000"/><path d="M886.92,176.43c-3.12.61-6.4,1.36-9.91,2.31-1.75,7.11-2.79,14.59-1.06,23.56,2.11,7.26,8.66,11.89,13.31,24.81,2.94,6.18,1.66,13.6,5.5,21.69,1.9,3.42,3.71,5.5,5.31,6.63,4.37-.43,8.84-.76,7.25-7.09a13,13,0,0,0-.44-2.56,49.83,49.83,0,0,0-.81-6c-3.53-18.11-15.91-23.88-19.34-48.16A36.43,36.43,0,0,1,886.92,176.43Z" style="stroke:#000"/><path d="M855.64,185.9c-5.47,2.11-11.33,4.58-17.62,7.41a48,48,0,0,0,.84,10.78c2.11,7.26,8.66,11.89,13.31,24.81,2.94,6.18,1.66,13.6,5.5,21.69,1.9,3.42,3.71,5.5,5.31,6.63,4.37-.43,8.84-.76,7.25-7.09a13,13,0,0,0-.44-2.56,49.83,49.83,0,0,0-.81-6C865.64,224.37,859.22,208.2,855.64,185.9Z" style="stroke:#000"/><path d="M816.24,191.37c-6.89,0-14,.53-21.22,1.09-1,6.68,1.39,13.88-1.09,26.09-.7,6.81-5.61,12.47-6.53,21.38-.15,3.91.31,6.64,1.09,8.44,4,1.9,7.95,3.92,9.88-2.31a13,13,0,0,0,1-2.41,50.06,50.06,0,0,0,2.44-5.59C807.05,223.73,809.92,208.85,816.24,191.37Z" style="stroke:#000"/><path d="M876.93,203.34V480.71C865.86,718.42,650.11,793.1,627.36,802.34,603.61,792.59,394.53,720,377.93,480.71V203.34h499" style="fill:#ce1126;stroke:#000;stroke-width:3px"/><path d="M473.23,505.19a158.39,158.39,0,0,0-4.41,37.09c0,87.41,71,158.26,158.6,158.26S786,629.69,786,542.28a158.39,158.39,0,0,0-4.41-37.09,158.7,158.7,0,0,1-308.4,0Z" style="fill:#fff;stroke:#fff"/><path d="M472.63,508.71s3.94,137.9,154.79,137.9,154.79-137.9,154.79-137.9" style="fill:none;stroke:#fff"/><path d="M565.87,438.44l11.87,36.17,37.85,0L584.86,497l11.74,36-30.73-22.29L535.13,533l11.66-36.24-30.65-22.21,38.07-.11Z" style="fill:#fff;stroke:#fff"/><path d="M535.62,532.37l42.18-57.85" style="fill:#fff;stroke:#fff"/><path d="M596.17,532.53l-42-58.19" style="fill:#fff;stroke:#fff"/><path d="M546.77,496.82l68.19-22" style="fill:#fff;stroke:#fff"/><path d="M516.66,474.74,584.87,497" style="fill:#fff;stroke:#fff"/><path d="M565.87,510.76V438.62" style="fill:#fff;stroke:#fff"/><path d="M689,438.44l11.87,36.17,37.85,0L708,497l11.74,36L689,510.75,658.26,533l11.66-36.24-30.65-22.21,38.07-.11Z" style="fill:#fff;stroke:#fff"/><path d="M658.75,532.37l42.18-57.85" style="fill:#fff;stroke:#fff"/><path d="M719.29,532.53l-42-58.19" style="fill:#fff;stroke:#fff"/><path d="M669.89,496.82l68.19-22" style="fill:#fff;stroke:#fff"/><path d="M639.78,474.74,708,497" style="fill:#fff;stroke:#fff"/><path d="M689,510.76V438.62" style="fill:#fff;stroke:#fff"/><path d="M726.78,321.23l11.87,36.17,37.85,0-30.73,22.47,11.74,36-30.73-22.29L696,415.81l11.66-36.24-30.65-22.21,38.07-.11Z" style="fill:#fff;stroke:#fff"/><path d="M696.54,415.15l42.18-57.85" style="fill:#fff;stroke:#fff"/><path d="M757.09,415.31l-42-58.19" style="fill:#fff;stroke:#fff"/><path d="M707.69,379.6l68.19-22" style="fill:#fff;stroke:#fff"/><path d="M677.58,357.53l68.21,22.27" style="fill:#fff;stroke:#fff"/><path d="M726.78,393.55V321.4" style="fill:#fff;stroke:#fff"/><path d="M528.07,321.23l11.87,36.17,37.85,0-30.73,22.47,11.74,36-30.73-22.29-30.73,22.29L509,379.57l-30.65-22.21,38.07-.11Z" style="fill:#fff;stroke:#fff"/><path d="M497.83,415.15,540,357.31" style="fill:#fff;stroke:#fff"/><path d="M558.38,415.31l-42-58.19" style="fill:#fff;stroke:#fff"/><path d="M509,379.6l68.19-22" style="fill:#fff;stroke:#fff"/><path d="M478.87,357.53l68.21,22.27" style="fill:#fff;stroke:#fff"/><path d="M528.07,393.55V321.4" style="fill:#fff;stroke:#fff"/><path d="M627.43,249.14l11.87,36.17,37.85,0-30.73,22.47,11.74,36-30.73-22.29-30.73,22.29,11.66-36.24L577.7,285.27l38.07-.11Z" style="fill:#fff;stroke:#fff"/><path d="M597.18,343.06l42.18-57.85" style="fill:#fff;stroke:#fff"/><path d="M657.73,343.22l-42-58.19" style="fill:#fff;stroke:#fff"/><path d="M608.33,307.51l68.19-22" style="fill:#fff;stroke:#fff"/><path d="M578.22,285.44l68.21,22.27" style="fill:#fff;stroke:#fff"/><path d="M627.43,321.46V249.31" style="fill:#fff;stroke:#fff"/><path d="M285.64,671.59c-9.42,6.75-6.29,12.19-6.71,20.93-6-7.61-12.59-13.32-11.56-27.83,8.32,3.38,15.12-2.42,18.27,6.9Z" style="stroke:#000"/><path d="M321.89,686.7c11.39,2.18,10.82,8.43,14.87,16.19,2.22-9.42,5.84-17.37-1.18-30.11C329.44,679.34,320.83,676.92,321.89,686.7Z" style="stroke:#000"/><path d="M350.33,659.22c11.28,2.68,10.44,8.91,14.13,16.83,2.64-9.31,6.61-17.09.16-30.13C358.2,652.2,349.71,649.4,350.33,659.22Z" style="stroke:#000"/><path d="M338.82,671.64c11.28,2.68,10.44,8.91,14.13,16.83,2.64-9.31,6.61-17.09.16-30.13-6.42,6.28-14.91,3.48-14.3,13.3Z" style="stroke:#000"/><path d="M281.25,416.65,220.1,431.9v89.19l16.72,52.34c8.29,29.07-8.72,39-25.5,64.22,11.39-2.05,24.3-5.23,30.59-15.19,2.21,17.7-1.32,33.43-15.34,45.72,12.18-.55,24.7,2.66,35.19-16.53l5.81,18.19c5.07-1.53,10-3.31,19.28,5.59,9.56,6.81,18.07,15.08,33.78,13.69,6.14-7.4,10.78-17.08,20.91-18.5,4-5.14,5.76-12.44,13.63-13.69l12.06-2.34c3.32-20.92-12.18-31.3-25.69-28.19,0,0-38.33,14.42-52.25-23.31-9.75-26.42,17-52,24.22-81.47,15.6-15.39,24.14-10.43,37.47-2.22-13-20.09-26.38-25.6-36-16.87-1.52-13.91-9.24-28.75-28.12-44.94C276.38,448.61,281.25,416.65,281.25,416.65Z" style="fill:#d6b61e;stroke:#000"/><path d="M255.5,471.27c13.31-.36,36.16,15.45,24.12,45.82-9.89,24.94-7.51,42.71-4,54.66" style="fill:#d6b61e;stroke:#000"/><path d="M154.87,748c7.44,8.89,3,13.38,1.27,21.94,7.68-5.88,15.52-9.75,18.14-24.05-8.9,1.19-14-6.13-19.41,2.11Z" style="stroke:#000"/><path d="M135,753.09c7.44,8.89,4.94,13,7,21.31,7.68-5.88,13-12.49,15.61-26.8-8.9,1.19-17.2-2.75-22.58,5.49Z" style="stroke:#000"/><path d="M109,758.25c7.44,8.89,8.74,17.18,10.76,25.53,7.68-5.88,12.14-17.13,14.77-31.44-8.9,1.19-20.15-2.33-25.53,5.91Z" style="stroke:#000"/><path d="M237.82,484.94c8.69-1.14,19.51,2.51,20.1-16.88,7.83-9.65,16.22-19.29,34.57-28.94-17.15-6-31.89,8.28-49,14.47" style="fill:#d6b61e;stroke:#000"/><path d="M313.72,141.93,261,163l-81.37,35.06c33.77,79.36,35,139.26.53,195.22-9.56,15.52-33.56,34.46-39.87,60.09-11.08,18.58-20.19,24-43.81,23.84-25.64-.18-55.89-13.86-46.37-46.59,3.09-11,41.66-24.43,48.53-1,2.15,12-14.86,17.75-23.5,7.75-.72,17.23,33.45,14.16,35.69-1,1.3-8.81-.22-16-9.87-22.59,6.8,2.62,16.16,0,20.78-2.87-11.37,1.3-25-2.41-24-4.72,25.09-.44,30.34-26.66,8-32.41,13.29,13.72-1.77,25.94-17,23.66-10.44-1.56-18.85-3.23-24.59,7.31,5.56-15.06,12.89-18.56,23.81-35.41,17.44-26.91,22.34-62.53,16.72-93-3.75-20.35-17.7-36.16-23.25-54.47-1.61-9.36,3.8-18.58,11.56-19.22s11.69,6.75,2.84,12.34c7.13.84,13.56-2.1,13.84-10.78-1.22-11.31-22.29-19.47-33.53-12.69C68.62,195.78,63.8,201.94,62,210.18v.06H62c-5.3-3.87-12.4-4.72-21.37-2.72s-16.48.4-22.59-4.72c-6.17-6.37-8.26-17.62-.56-22.66,8.41-2.21,16.23-1.83,21.06,6.38,1.81-4.22.73-7.44-3.06-10.25-9.43-6.84-23.09-5.94-30.84,3.16-4.26,5-4.45,13.4-3.84,20.34,1.36,8.37,5.43,15.85,12.09,22.59a19.55,19.55,0,0,0,14.56,5.16l7.16-.37c-2,1-3.89,1.72-5.66,2.59-11,5.5-20,13.24-22.28,24C1.89,276,15.94,286.46,31.91,299.22c6,4.77,1.27,9.31-8.37,11.47,17.12,4.64,25.77-12.17,10.53-20.56a44.17,44.17,0,0,0,4.88,2.34c6.93,2.62,12.65,1.84,17-2.66,5.44-5.5,5.06-11.47-1.06-17.84,3.2,20.83-29.09,13.3-29.91-2.87-.1-16.24,10.42-24.18,26.25-24.94,38.36-1.33,41.87,53.19,32.31,87.69-4.28-15.52-19.78-22.13-33-12.34-4.08,3.77-3.94,10.62,4.06,11.34C48.65,320,75.14,317.4,75.66,338.72c-.6,18.55-11.06,35-23.94,47.81-5.17,4.87-9.12,12.26-11.84,21.88C37.66,388.48-6.66,393,16.16,360.93c-26.21,9.26-12.69,30.36,3.66,44.75-.14,0-.46-.06-.59.06H19.1C10.53,406.5,7,410,8.63,416c4.08-2.25,7.24-3,9.69-2.59,3.13.62,4.89,3.1,5.44,7.47.14,25.24,5.68,48,21.66,60.5,26.36,20.66,69.41,20.46,97.06,4.09-2.15,15.24-1.71,30.43,2.56,44.94,3.73,12.67,1.1,32.58-4.44,54.34-14.23,14-30.75,22-50.59,21.28,7.62,9,15.08,14.68,22.44,16.44C96.55,629.77,89.8,644.78,75,644c9.32,5.29,7.45,9.58,31.84,12.47-21.72,5.77-23.73,24-52.34,28.91,33,16.78,42.77,10.3,45.75-2.94,1.67,2.1,2.56,3.64,2.22,5.88v.16c-2.92,6.5-4.88,10.59-4.88,10.59C81,710.65,75,721.9,90.5,732.5c5.4,8.93,4.2,26.37,16.25,26.75,11.33-5,17.58-7.63,28.91-3,6.25-6.17,15.41-7.85,21.66-6.25,6.57-4.23,11.91-1.19,17.56.06,3.68-25.22-11.28-29.08-22.81-36.91-33.27-16.57-1.41-55.1,18.44-67.75,13.9-8.86,64.37-29,79.72-70.5,16.5-5,22.14,2.67,30.44,14.34-4.19-23.66-14.35-33.94-26.66-29.56a82.36,82.36,0,0,0-2.62-33.22c-5.19-18.83-21.37-67.8,9.81-83.22,70.67-34.94,92.52-72.56,94.84-157.5,1.69-61.54-27.18-96.6-42.31-143.81ZM27.41,408.68a14.57,14.57,0,0,1,5.31,6.09A25,25,0,0,0,27.41,408.68Z" style="fill:#d6b720;stroke:#000"/><path d="M220.13,538c7.94,33-11,60.72-45.82,85.21" style="fill:#d6b61e;stroke:#000"/><path d="M167.88,463.23c19.31,36.18-9.73,68.49,14.47,72.35,14.82,2.36,22.33-14.51,20.1-27.33" style="fill:#d6b61e;stroke:#000"/><path d="M136,756.24c-1.22-33.77-24.91-18.36-29.58-43.56" style="fill:#d6b61e;stroke:#000"/><path d="M157.45,750.07c-4.78-25.15-20.31-21.18-25.42-35.53" style="fill:#d6b61e;stroke:#000"/><path d="M341.8,671.34c-10.64-20.83-26.89-11.67-39.74-20.17" style="fill:#d6b61e;stroke:#000"/><path d="M354.85,657.69c-8.23-18.28-19.36-10.4-29.07-15.42" style="fill:#d6b61e;stroke:#000"/><path d="M397.59,413.92c-6.85-8.14-4.67-15.75-3.88-23.44l-16.21-.7c-1.3,10.22,11.54,19,20.09,24.14Z" style="stroke:#000"/><path d="M415.21,404.58c11.33,2.9,15.18,8.44,18.68,14.1,2.13-12.54-.85-21.47-6.7-28.37Z" style="stroke:#000"/><path d="M437.78,369.95c11.33,2.9,15.18,8.44,18.68,14.1,2.13-12.54-.85-21.47-6.7-28.37Z" style="stroke:#000"/><path d="M428.09,385.81c11.33,2.9,15.18,8.44,18.68,14.1,2.13-12.54-.85-21.47-6.7-28.37Z" style="stroke:#000"/><path d="M238,287c-.06,50.31,15.66,28.89,24.95,78.79,8.12-6.4,9-21.58,7.1-45,5.24,33.57,23.48,24.63,37.42,50.4,4.84-3.92,1.63-14.24-1.22-24.3,13.28,26.3,32.95,7.63,49.25,50.4,4.45-6.94,4.19-16.7,3-27l17.71,23.44a39.33,39.33,0,0,1,19.57,1.22l18.42,11.26c4.51-10.19,11.15-11.08,17.21-16.63,4-5.34,4.49-10.65,14.19-16-1.86-7.8,4.94-10.38,10.68-13.62-8.29-17.35-18.9-21.43-28.46-23.16-23.67-4.92-23.78,1.91-35.56,2.94-13.88-13.67-27.35-29.07-42.73-36.78-29.47-63.26-49.8-69-74.77-72.91" style="fill:#d6b720;stroke:#000"/><path d="M391.95,365.81c14.71,15.7,30.51,4.73,39.65,23.44" style="fill:#d6b720;stroke:#000"/><path d="M446.23,373.56c-4.08-20.46-16.44-11.13-39.65-19" style="fill:#d6b720;stroke:#000"/><path d="M322.62,297.44c14.06,32.93,28.73,19.15,54.52,55.59" style="fill:#d6b720;stroke:#000"/><path d="M132.64,77c-2.73-10.38,2.49-15.8,7.47-21.35,0-14.38,7.31-19.7,19.22-19.22-.51-12.2,5.85-19,19.22-20.29,4.79-2.87,6.85-11.2,17.08-3.2,10.45-10.61,20.44-11.21,29.9,0,4.44-5,10-7.73,20.29,0,8.7-6.9,19.79-11.67,37.37-10.68-1,18.54-2.89,35.7-11.75,40.57,12.27,2.54,23.52,7,29.9,20.29C312,77.52,321.45,77.88,329.1,74.84c-6.75,23.71-16,15.43-24.56,14.95,9.55,18.88,17.2,22.58,36.3,20.29-1.34,19.6-10.12,20-18.15,22.42,13.43,9.1,9.25,24.66,29.9,25.63-2.5,14-24.34,15.15-41.64,10.91,5.22,10.25,10.35,13.8,8.87,24,.35,12.33,13,13,19.59,16.26-24.85,20.48-43.85,6.67-53-10.63-2.08,9.84,5.9,22.08,6.65,33.16,1.82,15.82-6.29,22.71-14.12,29.84,2.22-24.88-15.15-26.58-23.49-47,14.21,38.9-8.09,43-18.25,54.83,9.4-21.71-10.49-30-11.75-62.53-6.92,13.63-2.58,40.51-24.46,36.53,5.89-13.5-8-21.54-4.37-44.94-6.82,23.87-16.37,31.33-30.87,23.59,16.11-6.48,2.29-31.7,10.86-50.28-11.51,15.41-19.32,21.86-35.79,8.91,19.83-3.14,13.84-23.39,13-41-4,8.32-1.91,21.59-25.48,14.07,13.83-3.51-4.74-26.74,11.74-50.18-15.26-.78-26.36-7.11-35.69-15.79C114.27,79,123.79,73.95,132.64,77Z" style="fill:#d6b61e;stroke:#000"/><path d="M106.21,87.7c12.35,1.19,25.54,4.49,36.07,1.12" style="fill:#d6b61e;stroke:#000"/><path d="M282.47,1.8c-11,6.54-18.1,15.42-24.17,24.91" style="fill:#d6b61e;stroke:#000"/><path d="M260.29,56C265.73,63.59,272,72.5,274,80.13c-.85,13.47-.57,24.56-1.49,36.81" style="fill:#d6b61e;stroke:#000"/><path d="M160.88,108.15c2.68,12.59,6.88,19.09,11.53,23.8,6.85,4.12,11.26,8.62,25.66,19.34" style="fill:#d6b61e;stroke:#000"/><path d="M189,63.83c-20.49,6.28-27.54,20-34.87,24.93,14-1.21,33.33,2.6,41.68-11.84C181.63,79.31,185.75,74,189,63.83Z" style="fill:#e3e4e5;stroke:#000"/><path d="M182,77.49c1.83,4.13,1.26,8.4-1.27,9.53s-6.07-1.3-7.9-5.43l0,0c-1.83-4.13-1.26-8.4,1.27-9.53s6.07,1.3,7.9,5.43Z" style="stroke:#000"/><path d="M212.13,52.33C229.45,45.65,233,36.15,245,37c-6,14-9.78,29.81-26.46,30.1C227.56,55.89,222.66,54.43,212.13,52.33Z" style="fill:#e3e4e5;stroke:#000"/><path d="M226.25,53.85C228,58,231.44,60.57,234,59.53s3.26-5.28,1.55-9.46l0,0c-1.71-4.18-5.18-6.72-7.75-5.68s-3.26,5.28-1.55,9.46Z" style="stroke:#000"/><path d="M247.74,110.07c.74-7.83-5.83,11-16.66,15.35-9.22,3.69-10.43,3.19-24.69,3,11.43,5.77,20.27,38,31.73,40,7.66,1.33,11.79-3.92,17.32-8.25,7.17-5.62-9.19-33.74-7.71-50.11Z" style="fill:#ce1126;stroke:#000"/><path d="M227.71,183.73c6,3.49,14.52-3.93,14.37-6.65-7.69-4.61-16.48-21.09-17.16-21.36C220.15,153.84,226.08,174.17,227.71,183.73Z" style="fill:#e3e4e5;stroke:#000;stroke-linecap:round;stroke-linejoin:round"/><path d="M195.29,126.32c5.67,6.89,16.77,26.12,21.88,26.94,4.06.65-4.83-17-2.79-24.44" style="fill:#e3e4e5;stroke:#000;stroke-linecap:round;stroke-linejoin:round"/><path d="M255.84,168.41c1.22-7.89-3.29-24.2-2.72-25.33,1.59-3.1,12.91,16.73,18.22,23.4" style="fill:#e3e4e5;stroke:#000;stroke-linecap:round;stroke-linejoin:round"/><path d="M241.66,116.48c6.62,3.86,10.93,25.21,13.44,21.28,2.81-4.4-1.69-30.53-2.17-40.12" style="fill:#e3e4e5;stroke:#000;stroke-linecap:round;stroke-linejoin:round"/><path d="M185.74,128.65c3.87-7.89,27.72,5.59,44.78-2.88,16.74-8.31,22.84-35.79,28.43-34.17,8.76,8.13,3.5,27.66,5.19,41.54,8.88,15.11,22.95,32.71,3.51,34.26-13.69-.39-23,3.24-26.61,12.24-7,8.24-12.56,4.73-18.14,1.76-3.63-6.14-6.86-19.54-13.9-27.61-9.76-11.19-23.25-17.25-23.26-25.14Z" style="fill:none;stroke:#000"/><path d="M202.79,101.89c.31-4.4,8.89.63,14.93-3.72s6.06-10.66,9.1-9.25,1.46,19-2.5,22.08S202.47,106.36,202.79,101.89Z" style="stroke:#000;stroke-linecap:round;stroke-linejoin:round"/><path d="M233.92,133.68l15.33,31.42" style="fill:none;stroke:#000"/><path d="M969.1,669.45c9.42,6.75,6.29,12.19,6.71,20.93,6-7.61,12.59-13.32,11.56-27.82-8.32,3.38-15.12-2.42-18.27,6.9Z" style="stroke:#000"/><path d="M932.86,684.56C921.47,686.73,922,693,918,700.74c-2.22-9.42-5.84-17.37,1.18-30.1C925.3,677.19,933.91,674.78,932.86,684.56Z" style="stroke:#000"/><path d="M904.42,657.07c-11.28,2.68-10.44,8.91-14.13,16.83-2.64-9.31-6.61-17.09-.16-30.13C896.54,650.05,905,647.26,904.42,657.07Z" style="stroke:#000"/><path d="M915.93,669.5c-11.28,2.68-10.44,8.91-14.13,16.83-2.64-9.31-6-20.67.43-33.71,6.42,6.28,14.32,7.06,13.7,16.88Z" style="stroke:#000"/><path d="M971.4,408.8l63.23,21V519l-5.27,59.6c-5.44,29.59-1.22,39.65-12.7,48.88-.48-7-5.83-8.34-8.49-13.1,1.16,21.86-7.51,16.82-7,33.53-11.92-6.26-6.79-8.8-15.46-18.12-5.46,22,8.71,31.43,1.47,37.95-5.07-1.53-10-3.32-19.28,5.59-9.56,6.81-18,15.09-33.76,13.69-6.14-7.4-10.8-17.08-20.93-18.49-4-5.14-5.76-12.45-13.62-13.69l-12-2.37c-3.32-20.92,12.16-31.28,25.66-28.17,0,0,38.33,14.43,52.26-23.3,16.14-43.74-67.72-85.36,2.44-145.52,10.47-9,3.51-46.65,3.51-46.65Z" style="fill:#d6b720;stroke:#000"/><path d="M960.46,462.34a94.36,94.36,0,0,0-9.75,11.34c11.56,1.9,22.28,1.92,36.31,9.38,6.54,3.35,8.5-3.24,4.16-5.19C977.81,465.78,969.22,464.21,960.46,462.34Z" style="stroke:#000"/><path d="M944.21,484.68A50.7,50.7,0,0,0,940,498.9c10.13-1.2,19.53-3.53,33.81,1.81,7.07,2.45,13.14,10.07,20.53,14.28,6.38,4.26,8.59-4.55,3.91-8.81a46.31,46.31,0,0,0-21.56-16.91C964.41,485.84,954.59,485.64,944.21,484.68Z" style="stroke:#000"/><path d="M940,513.22A76.58,76.58,0,0,0,945,530.9c13.11,1.55,26.6,1.63,37.91,9.81,5.48,3.54,16.79-.94,3.91-9.09C983.48,528.95,956.53,516.41,940,513.22Z" style="stroke:#000"/><path d="M952.11,546.22c3.14,6.18,6.33,12.25,9,18.25,9.28,1,17-.57,30.81,8.22,7,5.48,6.79-3.21,0-8.06C979.61,555.9,965.65,554.94,952.11,546.22Z" style="stroke:#000"/><path d="M966.74,580.87a38.16,38.16,0,0,1,.16,14.88c6.46,1.8,12.92,3.7,19.38,11.78,8.18,6.31,6.49-4.57,1.56-10.91C981.67,588.35,974.13,584.82,966.74,580.87Z" style="stroke:#000"/><path d="M1099.86,745.87c-7.44,8.89-3,13.38-1.27,21.94-7.68-5.88-15.52-9.75-18.14-24.05C1089.35,745,1094.49,737.64,1099.86,745.87Z" style="stroke:#000"/><path d="M1119.7,750.94c-7.44,8.89-4.94,13-7,21.31-7.68-5.88-13-12.49-15.61-26.79,8.9,1.19,17.2-2.75,22.57,5.49Z" style="stroke:#000"/><path d="M1145.75,756.11c-7.44,8.89-8.74,17.18-10.76,25.53-7.68-5.88-12.14-17.13-14.77-31.44C1129.12,751.39,1140.38,747.87,1145.75,756.11Z" style="stroke:#000"/><path d="M1016.92,482.81c-8.69-1.14-19.51,2.51-20.1-16.88C989,456.28,980.6,446.63,962.26,437c17.15-6,31.88,8.28,49,14.47" style="fill:#d6b720;stroke:#000"/><path d="M941,139.85c-15.13,47.21-44,82.26-42.31,143.79,2.33,84.93,24.14,122.56,94.81,157.5,31.18,15.42,15,64.38,9.84,83.21-20.79,75.41,62.4,107.13,80.89,118.91,19.84,12.65,51.68,51.18,18.41,67.75-11.54,7.83-26.52,11.68-22.84,36.9,5.66-1.25,11-4.3,17.57-.07,6.25-1.6,15.4.09,21.65,6.25,11.33-4.63,17.63-2,29,3,12.05-.38,10.83-17.85,16.23-26.78,15.49-10.59,9.51-21.82-7.1-33.38-3-6-6.6-10.61-2.67-16.66,4-6.5,4.69,7.28,18.2.63-10.95-10.64-10.11-23.39-24.81-26.57,24.4-2.89,10.85-3.29,26.92.77-4.92-14.83-16.58-27.49-32.47-34.79,7.35-1.76,16.86-4.39,33.31,1.19-11.8-19-47.26-24.92-61.5-38.94-.87-3.43-1.6-6.8-2.32-10.12,5.7-.07,10.27-5.34,14.69-11.53-6.43-2.78-17.87-7.08-18.48-15.25,7.09,1.31,14.18,2,21.86-6-10.12-4.43-14.81-11.09-18.48-18.2a99.44,99.44,0,0,0,2-17.57c7.77,13.21,27.16,39.9,53.27,32.26,27.27-8,28.61-31.3,28.11-51.94-.7-29.17-29.3-61.36-52.5-86.73-24.26-26.53-29.79-36-32.33-75.62,16.86-9.37,14.85-36.49,12.16-44.84-7.43-23-20.87-19.8-25.86-42.8-28.44,31.24-36.37,62.51-6.11,93.75-.81,45.82,26,76.9,47.51,100.57,24.39,26.87,45,75.92,23.54,80.68-20.2,4.48-32.64-35.66-47.86-61.78-7.6-23.73-29.71-41.55-38.79-56.29-25.54-41.43-23.11-83.75-19.17-137.1,1.49-20.14-39.67-85.88-30.91-106.48l-30.74,13.27-52.71-21h0Z" style="fill:#d6b720;stroke:#000"/><path d="M933.7,176.07c-19.62,5.48-29.57,15.33-38,25.76-3.74,5.27-5.7,10.09,10.4,10.4-4.22,9.42-10.28,16.08-17,21.74-8.21,11.19.39,15.66,3.78,22.21,3.84,9.6-2.58,20.91-5.67,31.66-3.1,19.59,7.52,17.85,15.12,20.79,22.26-4.95,21.28-28.9,31.19-44-4.05-7.89-13.81-3-22.69,0,23.46-9.79,30.29-25.62,40.64-40.17,5.65-6.93,2-6.3-8.51-9.45,21.67,3.21,29-15,41.59-25.52-4.08-15.85-47,5.38-50.81-13.47Z" style="fill:#d6b720;stroke:#000"/><path d="M1118.76,754.09c1.22-33.77,24.91-18.36,29.58-43.55" style="fill:none;stroke:#000"/><path d="M1097.28,747.92c4.78-25.15,20.3-21.18,25.42-35.53" style="fill:none;stroke:#000"/><path d="M912.95,669.19c10.64-20.83,26.89-11.67,39.74-20.17" style="fill:#d6b720;stroke:#000"/><path d="M899.9,655.55c8.23-18.28,19.36-10.4,29.06-15.42" style="fill:#d6b720;stroke:#000"/><path d="M857.16,411.79c6.85-8.14,4.67-15.75,3.88-23.44l16.21-.7c1.3,10.22-11.54,19-20.09,24.14Z" style="stroke:#000"/><path d="M843.42,400.36a38.43,38.43,0,0,0-22.56,16.19c-2.13-12.53.85-21.47,6.7-28.37Z" style="stroke:#000"/><path d="M817,367.82c-11.33,2.9-15.18,8.44-18.68,14.1-2.13-12.53.85-21.47,6.7-28.37Z" style="stroke:#000"/><path d="M826.66,383.68a30.17,30.17,0,0,0-11.13,5.08,31,31,0,0,0-7.55,9c-2.13-12.53.85-21.47,6.7-28.37Z" style="stroke:#000"/><path d="M1016.78,284.91c-13.28,69.53-52.42,57.64-80.19,90.84-10-9.81-22.75-6.88-40.31-1.13-4.57,5.94-5.18,12.77-17.71,16.95A39.33,39.33,0,0,0,859,392.79L840.58,404c-4.51-10.19-11.15-11.07-17.2-16.63-4-5.34-4.49-10.65-14.19-16,1.86-7.8-4.94-10.38-10.68-13.62,8.29-17.35,18.9-21.42,28.46-23.15,23.67-4.92,23.78,1.91,35.56,2.94,13.88-13.67,27.35-29.07,42.72-36.77,29.47-63.25,49.8-69,74.77-72.9" style="fill:#d6b720;stroke:#000"/><path d="M862.8,363.68c-14.71,15.7-30.5,4.73-39.65,23.44" style="fill:#d6b720;stroke:#000"/><path d="M808.52,371.44c4.08-20.46,16.44-11.13,39.65-19" style="fill:#d6b720;stroke:#000"/><path d="M887.08,313.59c-4.1,3.59-8.1,7.5-12.09,11.5l-1.22,2.13c9.42,12,35.28,6.3,54.56,7.25,10,1.35,20.09,3.06,28.06-2.31,2.88-1.6,10.46-8.84-5.47-6.75-16.4,3.16-28.83-4.14-48.06-1.06C897.92,325.53,891.8,318.89,887.08,313.59Z" style="stroke:#000"/><path d="M849.08,333.87c4.78,9.79,7.05,22.3,20.28,22.94,15,0,22-6.66,35.59-1.81,10.13,4.24,12.71-4,5.44-8.06-13.41-7.8-33.22,2.93-47.81-9.41l-.06.06C856.58,337.07,853.6,335.09,849.08,333.87Z" style="stroke:#000"/><path d="M989,288a8.29,8.29,0,0,0-1.5.28c-13.84,2.55-23,8.72-30.66,16.09-8.23,6.39-24.14,1.07-27-4.94-3.07-7.52-9.4-9.38-18.56-11.06-2,3.9-4,8-6.09,12.47-.15.08-.29.17-.44.25,5.09.47,10,1.21,11.31,7.44,1.88,7.93,27.05,10.72,43.66,7.28,14.61-3.7,18.11-17.84,32.19-17.94C1000.09,297.44,996.34,287.37,989,288Z" style="stroke:#000"/><path d="M997.58,268.06c-18.45-.19-26.6,10.81-51.06,9.28-11.17-.19-17.59-4.44-24.25-8.5-1.59,2.55-3.23,5.26-4.87,8.16,11.73,5.25,21.5,12.86,37.44,13.06,7.53-.61,13.4-6.11,27-8.06,6.65-1.63,13.65,1.1,22.34-1,3.73-1.18,6.14-2.5,7.56-3.84.46-4.37,1-8.81-5.5-8.53a13,13,0,0,0-2.59-.09A49.89,49.89,0,0,0,997.58,268.06Z" style="stroke:#000"/><path d="M1003.41,17c28-1.9,42.11,13.54,53.88,31.66,11.18-.37,24.48.2,36.86,9.45-5.17,6.75-12.34,10.82-23.63,15.12,5.06,17.78,12.91,36-7.56,50.1,1.43,8,4.06,18.24-5.2,25-3.82-.55-3.36-13.62-8.51-7.56,1.74,19.53-9.38,21.86-16.07,26.94,4.09-6.65-.75-11.51-2.36-17-12.56,11.86-16.31,6.72-24.1,4.25-2.53,11.71-7.26,22.68-20.79,30.72-36.11,3.81-44.26-13.24-60.49-23.16-1.85-4-6-10.19-1.89-16.54-14.9,5.66-13.14-6.06-18.9-11.82,10,1.74,18.35.14,24.58-5.67-7.39,1.77-16.85-.29-21.73-4.8,10.94-4.61,16.26-7.36,17.12-17-11.12,6.15-11-.58-16.19-2.76,8-4.28,12.74-9.11,13.23-14.65-7.73,8.32-11.53,6.18-15.6,4.73,11.84-12.48-.86-30.62,19.38-36.39-7.21,2.49-7.28-2.17-9.92-4.25,9-3.93,13.23-10.88,18.43-19.85,3.94-3.88,7.88-3.83,11.82-1.42C947.7,20.39,950,16.84,946.23.5,955,3.2,966.76,2.85,968,11.84c12-2,23.47-.3,35.45,5.2Z" style="fill:#d6b720;stroke:#000"/><path d="M947.48,49.06a80.64,80.64,0,0,0-11.87,24.17c.85,13.47-1.32,24.56-.4,36.81" style="fill:none;stroke:#000"/><path d="M1046.89,101.25c-2.68,12.59-1.68,19.56-6.33,24.27-6.85,4.12-16.46,8.14-30.86,18.86" style="fill:#d6b720;stroke:#000"/><path d="M960,103.17c-.74-7.83,5.83,11,16.66,15.35,9.22,3.69,10.43,3.19,24.69,3-11.43,5.77-20.27,38-31.73,40-7.66,1.33-11.79-3.92-17.32-8.25-7.17-5.62,9.19-33.73,7.7-50.1Z" style="fill:#ce1126;stroke:#000"/><path d="M979.95,176.89c-3.46,2.95-11.54-.6-14.29-5.93,7.69-4.61,16.51-21.86,17.19-22.13,4.76-1.89-1.28,18.51-2.9,28.07Z" style="fill:#e3e4e5;stroke:#000;stroke-linecap:round;stroke-linejoin:round"/><path d="M1012.47,119.41c-5.67,6.89-16.76,26.11-21.88,26.94-4.06.65,4.83-17,2.79-24.44" style="fill:#e3e4e5;stroke:#000;stroke-linecap:round;stroke-linejoin:round"/><path d="M951.93,161.5c-1.22-7.89,3.29-24.2,2.72-25.33-1.59-3.1-12.91,16.73-18.22,23.4" style="fill:#e3e4e5;stroke:#000;stroke-linecap:round;stroke-linejoin:round"/><path d="M966.11,109.58c-6.62,3.86-10.93,25.21-13.44,21.28-2.81-4.4,1.69-30.52,2.17-40.11" style="fill:#e3e4e5;stroke:#000;stroke-linecap:round;stroke-linejoin:round"/><path d="M1022,121.75c-3.87-7.89-27.72,5.59-44.78-2.88-16.74-8.31-22.84-35.79-28.43-34.17-8.76,8.13-3.5,27.65-5.19,41.54-8.88,15.11-22.94,32.7-3.51,34.26,13.69-.39,23,3.24,26.61,12.24,7,8.24,12.56,4.73,18.14,1.76,3.63-6.14,6.86-19.54,13.9-27.61,9.76-11.19,23.25-17.25,23.25-25.14Z" style="fill:none;stroke:#000"/><path d="M1003.15,96.36c-.31-4.39-7.06.67-13.1-3.68s-7-12.86-10-11.45-.53,19.76,3.43,22.86S1003.47,100.83,1003.15,96.36Z" style="stroke:#000;stroke-linecap:round;stroke-linejoin:round"/><path d="M973.85,126.77l-15.33,31.42" style="fill:#eac102;stroke:#000"/><path d="M1095.3,235.34q-2.94,3.28-5.56,6.56c4.83,23.37,8.9,43,.25,67.66-1.32,8.14,6.23,4,6.47-1.12C1093.41,288.73,1116.31,280.23,1095.3,235.34Z" style="stroke:#000"/><path d="M1110,322.69c-9.15,5.57-13.92,5.49-19.87,5.94,0,1.21,0,2.41,0,3.59a108.85,108.85,0,0,0,2,18.47c4.25-2.28,12.16-5.3,20-7.59-.9-5.85-1.54-12.54-2.06-20.41Z" style="stroke:#000"/><path d="M1114.63,355.28c-6.26,6.87-12,10.55-17.91,12.25a123.73,123.73,0,0,0,7.31,16.25c6.07-3.83,11.86-7.92,17.59-12.09A66.62,66.62,0,0,1,1114.63,355.28Z" style="stroke:#000"/><path d="M1129.79,383.18c-1.39,6.74-8,11.75-16,16.37,3.47,4.95,7.13,9.6,10.81,14,7.74-2.38,12.26-9.7,16.62-17.19C1136.82,391.53,1133,387.22,1129.79,383.18Z" style="stroke:#000"/><path d="M1154.13,410.65c-2.65,6.64-6.61,12.93-16.84,17.44l.41.44A135.53,135.53,0,0,1,1148.32,442c6.3-3,12.26-5.21,17.12-17.94-3.69-4.56-7.49-9-11.31-13.37Z" style="stroke:#000"/><path d="M1178.22,441.27c-4.79,7.61-12.21,13.78-21.34,14.41a140.09,140.09,0,0,1,8.09,17c11.58-3.42,19.63-9,22.84-14.66a133.37,133.37,0,0,0-9.59-16.75Z" style="stroke:#000"/><path d="M1194.22,477.68a36.85,36.85,0,0,1-25.87,5.06c1.76,6.63,2.34,12.59,1.41,17.19,7.53.8,17.09,5.88,24.56,1.78a126.38,126.38,0,0,0,.53-17.5c0-.91-.08-1.83-.16-2.75s-.18-1.83-.31-2.75c0-.34-.1-.69-.16-1Z" style="stroke:#000"/><path d="M1165.76,507.11a11,11,0,0,1-4.56,2.12,13.89,13.89,0,0,1-5.69.09,147.47,147.47,0,0,1,7.31,27.69,34,34,0,0,0,3.87-.87c11.22-3.28,18.06-9.15,22.19-16.37A120.91,120.91,0,0,0,1165.76,507.11Z" style="stroke:#000"/><path d="M1129.07,478.21a127.72,127.72,0,0,1-13,29.9c4.73,7.29,11.92,16.52,21.12,22.69,3.76-7.88,5.63-18,7.25-28.37-5.5-5.82-10.49-14.64-15.37-24.22Z" style="stroke:#000"/><path d="M1114.39,678a33.57,33.57,0,0,1,2.72,11.84c12.23,1.69,27-.49,26-2.59C1133.24,687.3,1123.79,682.91,1114.39,678Z" style="stroke:#000"/><path d="M1083.3,642.68l1,.59a86.35,86.35,0,0,1,16.59,14.31c6.75-3.78,22,1.9,36.56,6.78C1128.34,640.65,1104.6,643.9,1083.3,642.68Z" style="stroke:#000"/><path d="M1091.7,612.72c-16-.13-32.38,1.52-47.69,6.88a245.91,245.91,0,0,0,24,14.69c9.61-8.15,19.71-16.13,40.88-20.81C1103.23,613.05,1097.48,612.76,1091.7,612.72Z" style="stroke:#000"/><path d="M1096.83,578.28a7.3,7.3,0,0,0-1.5.13,82,82,0,0,1-26.22,7.53c-38,5.92-41.57,1.67-57.53,1.09a105.76,105.76,0,0,0,21.53,24.16,399.72,399.72,0,0,0,39.63-13.06c8.85-3.6,17.72-7.19,25.22-13.5C1103.75,581,1100.33,578.41,1096.83,578.28Z" style="stroke:#000"/><path d="M1000.21,542.59a73,73,0,0,0,2.78,25.5c21.72-2.64,36.55-8.58,73.91-3.72,4.86,1.56,12.08-5.21,0-7.81-21-11.23-50-10.94-76.69-14Z" style="stroke:#000"/><path d="M1023.39,515c32.54,4.63,37.39,23.16,67,30.39,7.18,3.18,17.14-6.65,6.49-9.61-40.82-4.74-36.39-30.27-69.09-32.47-5.65-.07-11.83,9.56-4.42,11.69Z" style="stroke:#000"/><path d="M1114.42,449.37c-6.65,14-23.62,39.68-26.87,42.53-7.52,8.79,1.88,12.39,8.84,6.47C1108.65,487.75,1115.94,476,1122,464c-2.5-5-5-10-7.59-14.59Z" style="stroke:#000"/><path d="M1091,411.81c1.2,14.23-2.49,26.27-6.09,38-4.46,12.31-9.7,16.07-10.41,24.69-.94,11.86,7.55,7.65,9.63,1.81,4.29-11.49,6.63-15,15.06-24.41,4.66-5.07,6.82-11.57,8.13-17.84-4.64-8.13-10.57-15.5-16.31-22.25Z" style="stroke:#000"/><path d="M1068.58,380.5c3.39,15.61.41,29-2.53,41.91-3.53,12.61-8.47,16.72-8.53,25.38-.05,11.89,8.08,7.07,9.72,1.09,3.42-11.78,5.52-15.44,13.22-25.47,3.83-4.85,5.55-10.7,6.47-16.44-4.86-5.66-9.37-10.93-12.37-15.81C1072.36,387.6,1070.38,384.07,1068.58,380.5Z" style="stroke:#000"/><path d="M1024.43,478.12c-4.94,4.84-5.84.51-5.2-3.12-.35-9.87,4.24-18.18,3.9-28.05,4.64-22.85,15.25-29.75,23.64-42.6l9.61-13.51c2.76-.3,7-2.77,3.9,5.45-5.7,25.63-16.95,39-25.72,57.92l-10.13,23.9Z" style="stroke:#000"/><path d="M1054.42,331.84c-4.77,8.51-10.47,16.91-11,26-1.5,15.72-18.25,20.43-28.06,30.13l-12.72,14.28c-6.57,5.12-4.21,18.72,10.91,5.44a24.92,24.92,0,0,0,7.81-9.84c9.18-5.89,19.21-8.39,27.53-17.69,5.31-4.94,8.51-12.4,11.47-20.16A154.93,154.93,0,0,1,1054.42,331.84Z" style="stroke:#000"/><path d="M1053.52,283.12c-24,19.35-35.46,45.62-46.5,72.13-4.37,12.05,1.82,23,10.66,9.63,11.13-15.53,21.48-31.73,35.72-44.59A340,340,0,0,1,1053.52,283.12Z" style="stroke:#000"/><path d="M938.71,383.31c9.87-.43,19.74,2.31,29.61-1.3,16.33-7.55,16-26.62,23.9-40,1.62-2.68,6.28-4.83,5.71,6.23,1.34,26-6.93,33.88-15.07,43.64-11.38,9.64-28.22.19-42.34.26-9.21-1.54-9.33-8.3-1.82-8.83Z" style="stroke:#000"/><path d="M955.21,38.52c19.67.55,22.26-2.2,36.54,28.63" style="fill:#d6b720;stroke:#000;stroke-linecap:round;stroke-linejoin:round"/><path d="M991.37,67.93c-6.54-.19-10-1-13.33-5.15-5.52-6.59-4.9-12.06-8.27-13.94,2.14-2.64,4.48-5,9.6-3,9,9.23,6.09,12.57,12,22Z" style="fill:#e3e4e5;stroke:#000;stroke-linecap:round;stroke-linejoin:round"/><path d="M983.79,59a9.47,9.47,0,0,1-3.61,4.14,1.5,1.5,0,0,1-2.38-1.22A9.47,9.47,0,0,1,979,56.54a9.47,9.47,0,0,1,3.61-4.14A1.5,1.5,0,0,1,985,53.61,9.47,9.47,0,0,1,983.79,59Z" style="stroke:#000"/><path d="M1006.82,74.63c27.88-5.31,30.26-8.23,41.36,14.68" style="fill:#d6b720;stroke:#000;stroke-linecap:round;stroke-linejoin:round"/><path d="M1006.61,75.3c4,5.18,6.67,7.56,12,7.77,8.57.6,12.64-3.11,16.14-1.49.88-3.28,1.38-6.54-3.25-9.5-12.73-1.83-13.75,2.46-24.88,3.22Z" style="fill:#e3e4e5;stroke:#000;stroke-linecap:round;stroke-linejoin:round"/><path d="M1022.83,78.87a9.47,9.47,0,0,1-3.61,4.14,1.5,1.5,0,0,1-2.38-1.22,9.47,9.47,0,0,1,1.23-5.35,9.47,9.47,0,0,1,3.61-4.14,1.5,1.5,0,0,1,2.38,1.22A9.47,9.47,0,0,1,1022.83,78.87Z" style="stroke:#000"/><path d="M946.7,1.92c5.39,7,16.13,9.47,13.71,19.85" style="fill:#d6b720;stroke:#000"/><path d="M1094.15,57.69c-10.34-.36-21.08-3.88-30.25,5.2" style="fill:#d6b720;stroke:#000"/><path d="M982.15,35.47c17.52,7.53,37.66,17.64,51.51,28.83,7.61,7.58,13.59,5.23,9.92-.47-16.64-14.95-34.75-27.84-57.66-34-6-2.85-10.22.7-3.78,5.67Z" style="stroke:#000"/><path d="M976.86,11a57.07,57.07,0,0,0-8.91.81s0-.08,0-.12l-2.09,6.87c14.92,5,27.49,6,44.78,14.91,7.09,2,7.94-2.55,2.69-5.34-10.37-4.68-16.63-9.36-31.94-14L979.21,11c-.78,0-1.57,0-2.34,0Z" style="stroke:#000"/><path d="M1061.05,50.88a57.06,57.06,0,0,1,4.23,7.88l.12,0-4.58,5.53c-12.37-9.71-20.14-19.65-37.11-29.16-5.59-4.8-2.25-8,3-5.19,9.61,6.08,17,8.73,29.3,18.93l3.77.1C1060.21,49.56,1060.63,50.22,1061.05,50.88Z" style="stroke:#000"/><path d="M917.11,97.93a37.36,37.36,0,0,1-8.69,6.06c5.17,2.18,5.06,8.94,16.19,2.78-.38,4.28-1.64,7.2-3.87,9.53a102.59,102.59,0,0,0,10.19,6.53c8.07,6.18,9.79,3.9,6.88-4.56C930.55,111.55,923.48,104.81,917.11,97.93Z" style="stroke:#000"/><path d="M1065.39,121.56c-5.81,4.24-13.11,8.48-25,12.72-10.13,7-8,10.12,1.38,11l7.69-1.19c0-1-.06-2.09-.16-3.22,2.94-3.46,4.06-.66,5.19,2.47L1063,142c2.59-6,1-12.87-.06-18.63.86-.6,1.67-1.2,2.44-1.81Z" style="stroke:#000"/><path d="M154.55,74.31c14.45-6.19,21-18.06,41.21-12.82" style="fill:none;stroke:#000"/><path d="M204.92,57.37c1.9-12.48,20.21-17.54,29.76-25.64" style="fill:none;stroke:#000"/><path d="M191.64,102.24a25.89,25.89,0,0,1,22-12.36c6.43-7.14,11.45-13,21.52-12.82" style="fill:none;stroke:#000"/><path d="M185.46,94.23a25.89,25.89,0,0,1,22-12.36c6.43-7.14,11.45-13,21.52-12.82" style="fill:none;stroke:#000"/><path d="M1054.77,247.25a57,57,0,0,1-10.44,8.47c-8.12,4.86-13.88,3.52-17.66,7.91-4.1,4.17-5.82,8.86,4.44,8.91,5,.13,16.52-4.65,23.59-9q.33-4.7.69-9.5a25.57,25.57,0,0,0-.62-6.81Z" style="stroke:#000"/><path d="M1038.8,204.81c-13,12.8-19.12,27.5-21.87,43.09-1.33,7,4.43,10.26,6.84,5.59,8.38-11.39,10.12-22.27,23.16-29.37C1044.43,218,1041.59,211.42,1038.8,204.81Z" style="stroke:#000"/><path d="M1027.61,175.93c-5.26,8.8-18.89,25.87-23.28,26.94-3.3.8-23.94,2.53-23.94,2.53-6.42,1.17-7.12,3.9-2.91,8,11,1.23,18.94,5.46,33.34,3.25,12.4-1.43,18.24-10.49,25.38-18.06C1033,190.79,1029.94,183.07,1027.61,175.93Z" style="stroke:#000"/><path d="M38.6,841.88C68.78,928,165,931.62,203.89,1003.36c2.09-22.47-2.72-44.93-7.25-67.4,19.82,5.48,39.63,12.52,59.45,28.08-17.11-64.71-81-70.21-107.3-105.31" style="fill:#fff;stroke:#3c5497;stroke-width:3px"/><path d="M1212.39,841.88C1182.2,928,1086,931.62,1047.09,1003.36c-2.09-22.47,2.72-44.93,7.25-67.4-19.82,5.48-39.63,12.52-59.45,28.08,17.11-64.71,81-70.21,107.3-105.31" style="fill:#fff;stroke:#3c5497;stroke-width:3px"/><path d="M59.53,762c-3.59,2.72-1.47,25.57-2.59,41.73S35.19,839.58,39.23,843C219.75,901.92,405.8,946,625.44,946S1020.28,903,1215.69,843c4-3.45-15.13-26.06-16.26-42.22s-.46-37.56-4-40.28c-194.66,69.11-341.19,100-570.12,100S241.94,821.66,59.53,762Z" style="fill:#3c5497;stroke:#3c5497"/><path d="M237.4,886l-12.82-3.36,10-31.05q1.63-5,4.07-11l-.32-.08a55.79,55.79,0,0,1-4,6.4l-24.9,31.75-10.61-2.78-2.46-38.53a63.81,63.81,0,0,1,.53-7.71l-.36-.09q-2,7.81-3.83,13.6l-9.27,28.7-11.69-3.06,16.77-51.9,19,5,1.83,33.85a40.68,40.68,0,0,1-.35,8l.24.06a76.92,76.92,0,0,1,4.71-6.89l21.69-27.6,18.52,4.85Z" style="fill:#d6b61e;stroke:#d6b61e"/><path d="M302.16,899.4l-14.35-3-1.15-12.58-20.79-4.33-7.13,10.86-14.27-3,34.81-48.22,15.62,3.26ZM286,874.09l-1.73-19a21.35,21.35,0,0,1,.24-4.94l-.33-.07a19.69,19.69,0,0,1-2.2,4.38L271,871Z" style="fill:#d6b61e;stroke:#d6b61e"/><path d="M338.72,883.9q-2.34,10.65-9.06,15.33t-17.11,2.83a24.53,24.53,0,0,1-8.26-3l2.46-11.2a12.93,12.93,0,0,0,7.12,3.69q9.07,1.62,11.74-10.51l6.92-31.5,13.22,2.36Z" style="fill:#d6b61e;stroke:#d6b61e"/><path d="M399.51,891.32q-4.42,24-29.27,20.31-24.11-3.6-19.8-27.06l5.66-30.79,13.38,2-5.69,30.94q-2.38,12.94,8.85,14.62,11,1.64,13.32-10.85l5.77-31.39,13.34,2Z" style="fill:#d6b61e;stroke:#d6b61e"/><path d="M443.59,920.21,408.16,916,416,862.41l13.4,1.6L423,907.8l22,2.62Z" style="fill:#d6b61e;stroke:#d6b61e"/><path d="M504.17,925.79l-14.66-1.31-2.93-12.35-21.24-1.9-5.53,11.59-14.58-1.3,27.67-51.84,15.95,1.43Zm-19.64-23.23L480.1,883.9a21.39,21.39,0,0,1-.47-4.93l-.33,0a19.14,19.14,0,0,1-1.56,4.6l-8.51,17.65Z" style="fill:#d6b61e;stroke:#d6b61e"/><path d="M563.49,929,550,928.3l1.44-22L526.58,905l-1.44,22-13.49-.72,3.53-54,13.49.72-1.41,21.52,24.81,1.32,1.41-21.52,13.54.72Z" style="fill:#d6b61e;stroke:#d6b61e"/><path d="M621.93,928.05,621.8,916a25.56,25.56,0,0,0,15.92,5.37,11.58,11.58,0,0,0,6.43-1.58,4.59,4.59,0,0,0,2.26-4,5.52,5.52,0,0,0-2-4q-1.94-1.85-9.26-4.88-13.79-5.73-13.89-15.71a13.76,13.76,0,0,1,5.84-11.72Q633,875.07,643,875a43.67,43.67,0,0,1,14.58,1.95l.12,11.27a25.53,25.53,0,0,0-13.85-3.65,11,11,0,0,0-6.14,1.56,4.56,4.56,0,0,0-2.22,4,5.48,5.48,0,0,0,1.82,4.09q1.8,1.68,7.55,4.08,8.91,3.73,12.3,7.47a13,13,0,0,1,3.44,8.87,13.79,13.79,0,0,1-5.84,11.85q-5.92,4.39-17.3,4.48-9.33.08-15.56-2.88Z" style="fill:#d6b61e;stroke:#d6b61e"/><path d="M683.91,929l-13.51.41-2-54,13.51-.41Z" style="fill:#d6b61e;stroke:#d6b61e"/><path d="M751.39,925.57l-13.61.79-27.12-32.45a49.31,49.31,0,0,1-3.33-4.3h-.17a82.94,82.94,0,0,1,1,8.71L710.25,928l-12.74.74-3.88-53.94,14.53-.85,26.12,31.45q1.79,2.12,3.32,4.23h.17a52.27,52.27,0,0,1-.87-7.39l-2.15-29.83,12.74-.74Z" style="fill:#d6b61e;stroke:#d6b61e"/><path d="M813.71,916.18q-8.21,5.37-21.19,6.61-14.4,1.37-23.55-5t-10.63-19q-1.49-12.67,6.64-21.52T788.19,867a54.62,54.62,0,0,1,17,.77l1.34,11.36q-7.33-2.94-17.32-2-8.36.8-13.05,6.19t-3.73,13.56q1,8.28,6.23,12.37t13.29,3.32a19.32,19.32,0,0,0,7.51-2l-1.23-10.5-11.94,1.14-1.14-9.67,25.39-2.42Z" style="fill:#d6b61e;stroke:#d6b61e"/><path d="M877.95,911.65l-14.58,1.89-6.13-11.35-21.12,2.74-2.28,12.44-14.5,1.88L832.4,863l15.86-2.06Zm-25.25-18.31-9.26-17.15a22.11,22.11,0,0,1-1.76-4.68l-.33,0a18.6,18.6,0,0,1-.29,4.8l-3.56,19Z" style="fill:#d6b61e;stroke:#d6b61e"/><path d="M895,889.93l3.66,18.33-13.3,2.16-10.63-53.2,20.84-3.38q22.32-3.62,25.71,13.33a15.34,15.34,0,0,1-3.81,14q-5.41,6-16.12,7.73Zm-5.13-25.67,3.31,16.58,5.23-.85q10.63-1.72,9-10.11-1.64-8.2-12.26-6.48Z" style="fill:#d6b61e;stroke:#d6b61e"/><path d="M979.46,869.61q5.76,23.79-18.86,28.62-23.88,4.69-29.5-18.55l-7.38-30.49,13.25-2.6,7.41,30.64q3.1,12.82,14.22,10.63,10.92-2.14,7.92-14.52L959,842.26l13.21-2.59Z" style="fill:#d6b61e;stroke:#d6b61e"/><path d="M1042.27,879.24l-15,3.52-9.76-12.08q-4.77-5.89-9.71-4.73l-2.83.67,5.79,20-13.08,3.07L982.51,837.4l20.73-4.86q21.14-5,25.25,9.27a13.07,13.07,0,0,1-.8,10,17.77,17.77,0,0,1-8.15,7.48l0,.15q5.52.26,10.63,6.11Zm-44.12-36.08,4.21,14.55,5.67-1.33a9.8,9.8,0,0,0,6.15-3.8,6.88,6.88,0,0,0,1-6.09q-2-6.86-11.1-4.72Z" style="fill:#d6b61e;stroke:#d6b61e"/><path d="M1100.77,862.86l-14,4-8.09-10.31-20.35,5.79V875l-14,4,2.74-57.47,15.28-4.35Zm-28.22-14.38-12.22-15.57a23,23,0,0,1-2.58-4.36l-.32.09a18.66,18.66,0,0,1,.58,4.78l-.1,19.24Z" style="fill:#d6b61e;stroke:#d6b61e"/></svg>