<svg xmlns="http://www.w3.org/2000/svg" viewBox="0 0 185.22 180.34"><title>Sint_Maarten</title><path d="M129.77,35.08l.11-3.48a5.76,5.76,0,0,1,.3-6.16s-4.61-2.46-3.55-6.27a5.35,5.35,0,0,1-3.86-5.67s-4.5-.3-5-4.12c0,0-4.5.72-6.46-3,0,0-4.38.83-5.63-2.23,0,0-4.27,1.47-6.8-2.15,0,0-4.5,1.81-6.39-1.59C90.62,3.82,86.12,2,86.12,2c-2.49,3.63-6.8,2.12-6.8,2.12-1.21,3.1-5.56,2.23-5.56,2.23-2,3.7-6.5,3-6.5,3-.42,3.82-4.91,4.12-4.91,4.12a5.24,5.24,0,0,1-3.82,5.63c1.1,3.86-3.51,6.27-3.51,6.27a5.74,5.74,0,0,1,.38,6.16l-.11,3.21,74.53.34Z" style="fill:#f9d90f;stroke:#000;stroke-miterlimit:10;stroke-width:0.4157470005112886px;fill-rule:evenodd"/><path d="M92.62,14.1c2,2,.15,3.1-1.7,2.08-4.57-3.44-9.86-5.37-17.2-3.29-10.51,0-21.69-.57-26.8,5-.34,1.1-3.21,5.14,7.82-.79-.68,4.08,4.46.72,8.43-1.13-2.76,2.87,4.16,3.33,8.54.53-2.15,2.87,1.63,2.8,5.22,2.83,5.22.15,2.34,4.69-6.61,4.88-.68,0-3.17,1.13.19,2,1.59.08.3,2.27,5.74-.53-.34,1.63,2,1.32,5.29.3,1.85,1.44,3.36-.08,5-.83,6.88,2.68,15.95,5.37,18.37-3.93,5.74-.68,10.47-1.51,7.9-3.7,7.48,3.06,7.9,1.89,7.79.38,3.59,1.36,7.75,3.17,6,.23,3.48.87,7.22,1.17,10.17,2.95,3,1.51,2-1.17,1.32-2.38-1.51-2.46-3.44-3.17-7.82-3.25-3.67-.08-21-4.91-30,.3h.08c-.15,0-3.74-3.36-3.74-3.36a2.49,2.49,0,0,0,1.89-1.06,33.08,33.08,0,0,0,10.51-1.1c1.63-.49,2.53.45,2.49,1.13,1.47-2.57-.57-3.1-2-3a52.77,52.77,0,0,1-12.4-.45c-5.67-2.83-12.51,1.51-6.2,5.1Z" style="fill:#bc715f;stroke:#000;stroke-miterlimit:10;stroke-width:0.4157470005112886px;fill-rule:evenodd"/><path d="M94,9.08c-1.21.15-2.42.3-2.91,1.13,0-1.36,2-1.47,2.91-1.13Z" style="fill-rule:evenodd"/><path d="M93.83,9.57A.51.51,0,0,0,93.34,9a.52.52,0,0,0-.53.53.54.54,0,0,0,.53.53.53.53,0,0,0,.49-.53Z" style="fill-rule:evenodd"/><path d="M28.82,26c2.34,13.34,5,27,6.24,41,2.8,20.67-9.79,38-4.61,58.43,3.06,9.79,13.83,15.5,23.7,16.63,13.08,2.46,28.91,0,38.44,9.79,9.56-9.79,25.4-7.33,38.48-9.79,9.86-1.13,20.64-6.84,23.7-16.63,5.18-20.41-7.41-37.76-4.61-58.43,1.29-14,3.89-27.63,6.24-41-23,12.51-45.81-3.74-63.8,6.65-18-10.39-40.74,5.86-63.76-6.65Z" style="fill:#dc171d;stroke:#000;stroke-miterlimit:10;stroke-width:0.4157470005112886px;fill-rule:evenodd"/><path d="M37.4,36.78c2,11,4.27,22.26,5.4,33.79,2.38,17-8.47,31.37-4,48.23,2.65,8.09,12,12.77,20.48,13.72,11.3,2,24.94,0,33.22,8.09,8.24-8.09,21.88-6,33.18-8.09,8.54-.94,17.84-5.63,20.48-13.72,4.46-16.86-6.39-31.18-4-48.23,1.13-11.53,3.36-22.79,5.4-33.79C127.69,47.1,108,33.68,92.5,42.26,76.93,33.68,57.28,47.1,37.4,36.78Z" style="fill:#62afe1;stroke:#000;stroke-miterlimit:10;stroke-width:0.4157470005112886px;fill-rule:evenodd"/><polygon points="81.7 67.62 58.41 83.57 58.41 102.77 126.56 102.77 126.56 83.57 103.28 67.62 81.7 67.62" style="fill:#fff;stroke:#000;stroke-linecap:round;stroke-miterlimit:10;stroke-width:0.9070844225502014px;fill-rule:evenodd"/><polygon points="52.9 99.6 52.9 103.26 55.13 103.26 55.13 122.12 129.85 122.12 129.85 103.26 132.08 103.26 132.08 99.6 52.9 99.6" style="fill:#fff;stroke:#000;stroke-linecap:round;stroke-miterlimit:10;stroke-width:0.9070844225502014px;fill-rule:evenodd"/><polygon points="92.5 46.84 81.7 57.34 81.7 67.62 103.28 67.62 103.28 57.34 92.5 46.84" style="fill:#fff;stroke:#000;stroke-linecap:round;stroke-miterlimit:10;stroke-width:0.9070844225502014px;fill-rule:evenodd"/><rect x="61.78" y="86.18" width="6.84" height="10.81" style="fill:#fff;stroke:#000;stroke-linecap:round;stroke-miterlimit:10;stroke-width:0.9070844225502014px"/><rect x="81.17" y="86.18" width="6.84" height="10.81" style="fill:#fff;stroke:#000;stroke-linecap:round;stroke-miterlimit:10;stroke-width:0.9070844225502014px"/><rect x="116.35" y="86.18" width="6.84" height="10.81" style="fill:#fff;stroke:#000;stroke-linecap:round;stroke-miterlimit:10;stroke-width:0.9070844225502014px"/><rect x="97" y="86.18" width="6.8" height="10.81" style="fill:#fff;stroke:#000;stroke-linecap:round;stroke-miterlimit:10;stroke-width:0.9070844225502014px"/><rect x="61.78" y="104.96" width="6.84" height="10.85" style="fill:#fff;stroke:#000;stroke-linecap:round;stroke-miterlimit:10;stroke-width:0.9070844225502014px"/><rect x="116.35" y="104.96" width="6.84" height="10.85" style="fill:#fff;stroke:#000;stroke-linecap:round;stroke-miterlimit:10;stroke-width:0.9070844225502014px"/><rect x="87.14" y="104.36" width="10.7" height="17.76" style="fill:#fff;stroke:#000;stroke-linecap:round;stroke-miterlimit:10;stroke-width:0.9070844225502014px"/><rect x="76.1" y="99.6" width="4.8" height="22.53" style="fill:#fff;stroke:#000;stroke-linecap:round;stroke-miterlimit:10;stroke-width:0.9070844225502014px"/><rect x="104.07" y="99.6" width="4.8" height="22.53" style="fill:#fff;stroke:#000;stroke-linecap:round;stroke-miterlimit:10;stroke-width:0.9070844225502014px"/><rect x="74.33" y="94.8" width="36.32" height="5.59" style="fill:#fff;stroke:#000;stroke-linecap:round;stroke-miterlimit:10;stroke-width:0.9070844225502014px"/><path d="M81.7,57.34h21.58m-21.58,0Z" style="fill:#fff;stroke:#000;stroke-miterlimit:10;stroke-width:0.9070844225502014px;fill-rule:evenodd"/><path d="M58.41,83.57h68.14m-68.14,0Z" style="fill:#fff;stroke:#000;stroke-miterlimit:10;stroke-width:0.9070844225502014px;fill-rule:evenodd"/><rect x="51.19" y="119.78" width="82.62" height="5.82" style="fill:#fff;stroke:#000;stroke-linecap:round;stroke-miterlimit:10;stroke-width:0.9070844225502014px"/><rect x="88.39" y="59.57" width="8.24" height="5.82" style="fill:#fff;stroke:#000;stroke-linecap:round;stroke-miterlimit:10;stroke-width:0.9070844225502014px"/><line x1="76.93" y1="94.8" x2="76.93" y2="100.39" style="fill:none;stroke:#000;stroke-miterlimit:10;stroke-width:1.0204699753689765px"/><line x1="108.04" y1="94.8" x2="108.04" y2="100.39" style="fill:none;stroke:#000;stroke-miterlimit:10;stroke-width:1.0204699753689765px"/><line x1="105.47" y1="94.8" x2="105.47" y2="100.39" style="fill:none;stroke:#000;stroke-miterlimit:10;stroke-width:1.0204699753689765px"/><line x1="102.86" y1="94.8" x2="102.86" y2="100.39" style="fill:none;stroke:#000;stroke-miterlimit:10;stroke-width:1.0204699753689765px"/><line x1="100.25" y1="94.8" x2="100.25" y2="100.39" style="fill:none;stroke:#000;stroke-miterlimit:10;stroke-width:1.0204699753689765px"/><line x1="97.68" y1="94.8" x2="97.68" y2="100.39" style="fill:none;stroke:#000;stroke-miterlimit:10;stroke-width:1.0204699753689765px"/><line x1="95.08" y1="94.8" x2="95.08" y2="100.39" style="fill:none;stroke:#000;stroke-miterlimit:10;stroke-width:1.0204699753689765px"/><line x1="92.5" y1="94.8" x2="92.5" y2="100.39" style="fill:none;stroke:#000;stroke-miterlimit:10;stroke-width:1.0204699753689765px"/><line x1="89.9" y1="94.8" x2="89.9" y2="100.39" style="fill:none;stroke:#000;stroke-miterlimit:10;stroke-width:1.0204699753689765px"/><line x1="87.29" y1="94.8" x2="87.29" y2="100.39" style="fill:none;stroke:#000;stroke-miterlimit:10;stroke-width:1.0204699753689765px"/><line x1="84.72" y1="94.8" x2="84.72" y2="100.39" style="fill:none;stroke:#000;stroke-miterlimit:10;stroke-width:1.0204699753689765px"/><line x1="82.11" y1="94.8" x2="82.11" y2="100.39" style="fill:none;stroke:#000;stroke-miterlimit:10;stroke-width:1.0204699753689765px"/><line x1="79.5" y1="94.8" x2="79.5" y2="100.39" style="fill:none;stroke:#000;stroke-miterlimit:10;stroke-width:1.0204699753689765px"/><line x1="110.65" y1="95.17" x2="110.65" y2="100.39" style="fill:none;stroke:#000;stroke-miterlimit:10;stroke-width:0.9070844225502014px"/><path d="M57.47,45.74c5.14,3.29,7.56,6.31,7.6,9.11-6.39-.34-12.17-3.33-7.6-9.11Z" style="fill:#008830;stroke:#000;stroke-miterlimit:10;stroke-width:0.4535422112751007px;fill-rule:evenodd"/><path d="M61.63,48.72c4.91,2.83,7.71,5.86,8.58,9.15-5,.87-10.39-1.47-8.58-9.15Z" style="fill:#008830;stroke:#000;stroke-miterlimit:10;stroke-width:0.4535422112751007px;fill-rule:evenodd"/><path d="M55.24,53.56c.64,5.63-.15,9.68-2.31,12.32-3.67-3.51-4.91-9.22,2.31-12.32Z" style="fill:#008830;stroke:#000;stroke-miterlimit:10;stroke-width:0.4535422112751007px;fill-rule:evenodd"/><path d="M55.24,53.56c4.65,3.29,7.11,6.61,7.63,10-5.06.38-10.17-2.53-7.63-10Z" style="fill:#008830;stroke:#000;stroke-miterlimit:10;stroke-width:0.4535422112751007px;fill-rule:evenodd"/><path d="M58.3,49.06l2.15,1.32,2.31-.23.94,1.59s-.26,3.25-.26,3.55a17,17,0,0,0,.72,2.12l-1.55,1.13-4.2,1.74-3.89-3.17L52,57.34,51,54.28l1.21-2.61,3.06-2Z" style="fill:#008830;stroke:#000;stroke-miterlimit:10;stroke-width:0.4535422112751007px;fill-rule:evenodd"/><path d="M54.29,50.69c-2,5.29-4.61,8.54-7.71,9.9-1.63-4.84-.11-10.51,7.71-9.9Z" style="fill:#008830;stroke:#000;stroke-miterlimit:10;stroke-width:0.4535422112751007px;fill-rule:evenodd"/><path d="M54.29,51.07c-5.59-1.1-9.18-3.1-11-6,4.46-2.42,10.32-1.85,11,6Z" style="fill:#008830;stroke:#000;stroke-miterlimit:10;stroke-width:0.4535422112751007px;fill-rule:evenodd"/><path d="M65,51.26c5.67.49,9.68-.42,12.28-2.65C73.61,45.06,67.82,44,65,51.26Z" style="fill:#008830;stroke:#000;stroke-miterlimit:10;stroke-width:0.4535422112751007px;fill-rule:evenodd"/><path d="M65,51.26c3.44,4.54,6.8,6.92,10.17,7.37.26-5.1-2.8-10.09-10.17-7.37Z" style="fill:#008830;stroke:#000;stroke-miterlimit:10;stroke-width:0.4535422112751007px;fill-rule:evenodd"/><path d="M63.18,54.05c4.27,3.74,6.35,7.33,6.54,10.7-5.1-.15-9.86-3.59-6.54-10.7Z" style="fill:#008830;stroke:#000;stroke-miterlimit:10;stroke-width:0.4535422112751007px;fill-rule:evenodd"/><path d="M61.44,60.29c2.91,4.88,3.82,8.92,2.95,12.17-4.8-1.7-8.28-6.39-2.95-12.17Z" style="fill:#008830;stroke:#000;stroke-miterlimit:10;stroke-width:0.4535422112751007px;fill-rule:evenodd"/><path d="M59.4,59.95c.64,5.67-.19,9.71-2.34,12.36C53.39,68.76,52.14,63,59.4,59.95Z" style="fill:#008830;stroke:#000;stroke-miterlimit:10;stroke-width:0.4535422112751007px;fill-rule:evenodd"/><path d="M55.69,53.64a2,2,0,0,1-.79-1.29A2.49,2.49,0,0,1,55.09,51c.08-.3.15-.53.15-.57a.38.38,0,0,1-.15,0c-.19,0-.19,0-.45.23-1,.91-1.85,1.32-2.46,1.21s-1-1.13-.57-2.12a2.07,2.07,0,0,1,1.74-1.4,1.36,1.36,0,0,1,.76.08l.38.08s-.19-.15-.38-.26a3,3,0,0,1-1.59-2,1.23,1.23,0,0,1,.79-1.17,1.87,1.87,0,0,1,2.46.68,2.38,2.38,0,0,1,.3,1.51c0,.49,0,.76.08.76s.11.08.19.15l.11.15.49-.38a6.86,6.86,0,0,1,1.25-.87,1.73,1.73,0,0,1,1.51-.19c.72.38.72,1.7,0,2.57a1.93,1.93,0,0,1-2.27.64c-.19-.08-.45-.15-.57-.19l-.26,0,.38.45a6.49,6.49,0,0,1,1,1.59c.38.91.19,1.63-.49,1.93a1.89,1.89,0,0,1-1.78-.23Z" style="fill:#f9d90f;stroke:#000;stroke-miterlimit:10;stroke-width:0.4535422112751007px;fill-rule:evenodd"/><path d="M56.64,49.63a1.16,1.16,0,0,1-1.47.76h0A1.26,1.26,0,0,1,56.07,48h0a1.2,1.2,0,0,1,.57,1.59Z" style="fill:#f9d90f;stroke:#000;stroke-miterlimit:10;stroke-width:0.4535422112751007px;fill-rule:evenodd"/><path d="M60.79,47.63A2.54,2.54,0,0,0,61.17,49c.11.3.23.57.23.57l-.15.08c-.15,0-.15,0-.45-.23a3.39,3.39,0,0,0-2.53-1c-.64.23-.76,1.21-.23,2.19a2.23,2.23,0,0,0,1.85,1.29,1.59,1.59,0,0,0,.72-.11c.19-.11.38-.15.38-.11a4,4,0,0,1-.34.3A2.9,2.9,0,0,0,59.4,54a1.5,1.5,0,0,0,.94,1.13,1.72,1.72,0,0,0,2.27-.91,2.49,2.49,0,0,0,.08-1.55,5.36,5.36,0,0,1-.08-.79s.11-.08.15-.19l.11-.15.53.38a7.6,7.6,0,0,0,1.32.79,1.85,1.85,0,0,0,1.47.08c.64-.49.45-1.78-.38-2.65a1.91,1.91,0,0,0-2.27-.49,3.4,3.4,0,0,1-.53.26L62.8,50l.3-.49a6.33,6.33,0,0,0,.68-1.7c.23-1,0-1.66-.76-1.93a1.61,1.61,0,0,0-1.59.34,1.93,1.93,0,0,0-.64,1.4Z" style="fill:#f9d90f;stroke:#000;stroke-miterlimit:10;stroke-width:0.4535422112751007px;fill-rule:evenodd"/><path d="M60.87,50.2s0-.08.08-.15a1.27,1.27,0,0,1,1.51-.57s.08,0,.11.08a1.2,1.2,0,0,1,.38,1.55.52.52,0,0,0-.11.15,1.22,1.22,0,0,1-1.47.57s-.11,0-.15-.08a1.2,1.2,0,0,1-.34-1.51Z" style="fill:#f9d90f;stroke:#000;stroke-miterlimit:10;stroke-width:0.4535422112751007px;fill-rule:evenodd"/><path d="M54.52,60a3.34,3.34,0,0,1,.08-1.59c.08-.38.11-.72.11-.72a.46.46,0,0,0-.19,0c-.19,0-.19,0-.49.38-1,1.25-1.93,1.89-2.61,1.85s-1.21-1.21-.87-2.42a2.56,2.56,0,0,1,1.78-2,1.68,1.68,0,0,1,.87-.08c.26,0,.45.08.45,0a1.68,1.68,0,0,0-.45-.26,3.25,3.25,0,0,1-2-2.12A1.73,1.73,0,0,1,52,51.48a2,2,0,0,1,2.83.45,3,3,0,0,1,.49,1.78,4.63,4.63,0,0,0,.15.91.57.57,0,0,1,.23.15l.15.15.49-.57a12.53,12.53,0,0,1,1.32-1.25,2,2,0,0,1,1.7-.49c.83.34,1,1.93.26,3.1a2.3,2.3,0,0,1-2.49,1.21,2.56,2.56,0,0,0-.64-.15l-.3,0,.49.49A7.33,7.33,0,0,1,57.92,59a1.72,1.72,0,0,1-.38,2.42,1.86,1.86,0,0,1-1.93,0A2.42,2.42,0,0,1,54.52,60Z" style="fill:#f9d90f;stroke:#000;stroke-miterlimit:10;stroke-width:0.4535422112751007px;fill-rule:evenodd"/><path d="M56.22,56.43a1.42,1.42,0,0,1-1.63,1.13,1.39,1.39,0,0,1-.79-1.78,1.28,1.28,0,1,1,2.42.64Z" style="fill:#f9d90f;stroke:#000;stroke-miterlimit:10;stroke-width:0.4535422112751007px;fill-rule:evenodd"/><path d="M61.7,54.7a3.18,3.18,0,0,0,.08,1.55c.08.38.15.68.15.68a.77.77,0,0,1-.19,0c-.19,0-.19,0-.49-.34-1-1.17-1.93-1.81-2.61-1.74s-1.13,1.21-.79,2.38a2.61,2.61,0,0,0,1.81,1.93,1.55,1.55,0,0,0,.83,0c.26,0,.45,0,.45,0a2.3,2.3,0,0,0-.45.26,3.14,3.14,0,0,0-1.89,2.12A1.58,1.58,0,0,0,59.4,63a2,2,0,0,0,2.76-.49,2.75,2.75,0,0,0,.45-1.74,3.47,3.47,0,0,1,.11-.91.57.57,0,0,0,.23-.15l.15-.15.49.53a9.15,9.15,0,0,0,1.32,1.21,1.88,1.88,0,0,0,1.66.42c.79-.38.91-1.89.19-3.06a2.21,2.21,0,0,0-2.46-1.06c-.23,0-.49.11-.64.15l-.26,0,.42-.53A6.94,6.94,0,0,0,65,55.57c.45-1,.3-1.89-.42-2.34a1.88,1.88,0,0,0-1.89,0,2.27,2.27,0,0,0-1,1.47Z" style="fill:#f9d90f;stroke:#000;stroke-miterlimit:10;stroke-width:0.4535422112751007px;fill-rule:evenodd"/><path d="M62.19,57a1.44,1.44,0,0,0-1.47,1.4h0a1.53,1.53,0,0,0,3-.08h0A1.45,1.45,0,0,0,62.19,57Z" style="fill:#f9d90f;stroke:#000;stroke-miterlimit:10;stroke-width:0.4535422112751007px;fill-rule:evenodd"/><polygon points="137.78 68.79 134.95 68.79 134.95 66.75 132.49 66.75 132.49 64.45 129.69 64.45 129.69 49.71 126.52 44.15 123.35 49.71 123.35 64.45 120.55 64.45 120.55 66.75 118.13 66.75 118.13 68.79 115.26 68.79 115.26 71.78 137.78 71.86 137.78 68.79" style="fill:#fff;stroke:#000;stroke-miterlimit:10;stroke-width:0.8314940010225772px;fill-rule:evenodd"/><path d="M92.73,161.32c11.45,0,25.51-2.31,32.13-5.71l14.48-1.29.3,17.65c-12.28,6.77-40.59,8.24-46.83,8.16-6.24.08-34.92-1.44-47.24-8.2l.15-17.69,14.51,1.32c6.61,3.36,21.13,5.74,32.54,5.74Z" style="fill:#f9d90f;fill-rule:evenodd"/><polygon points="45.56 171.94 60.49 168.53 45.6 166.38 45.56 171.94" style="fill:#f9b60f;fill-rule:evenodd"/><path d="M8.3,86,21,90l-3.86,20.67L5.12,112.52S3.08,101.68,8.3,86m0,0Z" style="fill:#f9d90f;fill-rule:evenodd"/><polygon points="5.12 112.52 12.95 101.71 17.18 110.67 5.12 112.52" style="fill:#f9b60f;fill-rule:evenodd"/><path d="M8.3,86,21,90l-3.86,20.67L5.12,112.52S3.08,101.68,8.3,86Z" style="fill:none;stroke:#000;stroke-miterlimit:10;stroke-width:0.4157470005112886px"/><line x1="45.56" y1="171.94" x2="60.61" y2="168.54" style="fill:none;stroke:#000;stroke-miterlimit:10;stroke-width:0.4157470005112886px"/><line x1="12.98" y1="101.64" x2="17.18" y2="110.67" style="fill:none;stroke:#000;stroke-miterlimit:10;stroke-width:0.4157470005112886px"/><polygon points="139.64 171.97 124.67 168.57 139.56 166.42 139.64 171.97" style="fill:#f9b60f;fill-rule:evenodd"/><path d="M176.9,86l-12.77,4.08L168,110.71l12.09,1.89s2-10.89-3.17-26.61m0,0Z" style="fill:#f9d90f;fill-rule:evenodd"/><polygon points="180.08 112.6 172.22 101.75 167.98 110.71 180.08 112.6" style="fill:#f9b60f;fill-rule:evenodd"/><path d="M176.9,86l-12.77,4.08L168,110.71l12.09,1.89s2-10.89-3.17-26.61Z" style="fill:none;stroke:#000;stroke-miterlimit:10;stroke-width:0.4157470005112886px"/><line x1="139.64" y1="171.97" x2="124.59" y2="168.57" style="fill:none;stroke:#000;stroke-miterlimit:10;stroke-width:0.4157470005112886px"/><line x1="172.21" y1="101.71" x2="167.98" y2="110.71" style="fill:none;stroke:#000;stroke-miterlimit:10;stroke-width:0.4157470005112886px"/><path d="M92.73,161.32c11.45,0,25.51-2.31,32.13-5.71l14.48-1.29.3,17.65c-12.28,6.77-40.59,8.24-46.83,8.16-6.24.08-34.92-1.44-47.24-8.2l.15-17.69,14.51,1.32c6.61,3.36,21.13,5.74,32.54,5.74h0" style="fill:none;stroke:#000;stroke-miterlimit:10;stroke-width:0.4157470005112886px"/><path d="M184.54,100.88l-12.32.87c-.26,10.43-1.51,50.19-49,52.35l1.47,14.48c57.83.6,62.21-48.79,59.87-67.69m0,0Z" style="fill:#f9d90f;fill-rule:evenodd"/><path d="M184.54,100.88l-12.32.87c-.26,10.43-1.51,50.19-49,52.35l1.47,14.48c57.83.6,62.21-48.79,59.87-67.69Z" style="fill:none;stroke:#000;stroke-miterlimit:10;stroke-width:0.4157470005112886px"/><path d="M.66,100.81l12.28.91c.3,10.43,1.55,50.19,49,52.35l-1.47,14.48C2.7,169.1-1.68,119.74.66,100.81m0,0Z" style="fill:#f9d90f;fill-rule:evenodd"/><path d="M.66,100.81l12.28.91c.3,10.43,1.55,50.19,49,52.35l-1.47,14.48C2.7,169.1-1.68,119.74.66,100.81Z" style="fill:none;stroke:#000;stroke-miterlimit:10;stroke-width:0.4157470005112886px"/><path d="M84.68,170a2,2,0,0,1-1.29.23l-2.31-.11.23-2.83,2.27.11a2.92,2.92,0,0,1,1,.23,1.28,1.28,0,0,1,.6,1.32,1.1,1.1,0,0,1-.53,1.06m-3.86,4.5.23-3.48,2.68.19A2.3,2.3,0,0,0,86.38,169a2.39,2.39,0,0,0-.57-1.81,2.83,2.83,0,0,0-1.78-.72l-3.82-.23-.53,8.2,1.13.08m0,0Z" style="fill:#012a87;fill-rule:evenodd"/><path d="M89.52,167.63l2.8,0a4.11,4.11,0,0,1,.94.19,1.28,1.28,0,0,1,.64,1.21,1.21,1.21,0,0,1-.49,1.13,2,2,0,0,1-1.25.3l-2.68,0,0-2.83m0,7.29v-3.51l2.65,0a2.41,2.41,0,0,1,1,.15,1.09,1.09,0,0,1,.6,1.1l.08,1.36c0,.34,0,.53,0,.68s.08.19.11.26h1.4l0-.19a.72.72,0,0,1-.34-.49,3.19,3.19,0,0,1-.08-.72l0-1.1a1.44,1.44,0,0,0-.26-1,1.61,1.61,0,0,0-.76-.53,2.94,2.94,0,0,0,.91-.72,2.54,2.54,0,0,0,.3-1.25,1.89,1.89,0,0,0-1.17-1.93,3.83,3.83,0,0,0-1.59-.3l-4,0V175h1.13m0,0Z" style="fill:#012a87;fill-rule:evenodd"/><path d="M98.82,173.18a3.54,3.54,0,0,1-.83-2.27,3.47,3.47,0,0,1,.68-2.61,2.68,2.68,0,0,1,2.08-1,2.77,2.77,0,0,1,2.19.79,3.46,3.46,0,0,1,.94,2.27,4.72,4.72,0,0,1-.57,2.46A2.28,2.28,0,0,1,101.2,174a2.56,2.56,0,0,1-2.38-.83M97.46,168a4.64,4.64,0,0,0-.68,2.91,4.73,4.73,0,0,0,1.17,3,4,4,0,0,0,3.14,1.06,3.83,3.83,0,0,0,3.17-1.55,5.26,5.26,0,0,0,.79-3.14,4.41,4.41,0,0,0-1-2.72,3.9,3.9,0,0,0-3.4-1.25A3.73,3.73,0,0,0,97.46,168m0,0Z" style="fill:#012a87;fill-rule:evenodd"/><path d="M6.29,116.11l.19,1.06a2.26,2.26,0,0,0-1.1.49,2.17,2.17,0,0,0-.49,2.08,4.37,4.37,0,0,0,.38,1.06,1.35,1.35,0,0,0,1.47.79,1,1,0,0,0,.87-.57,4,4,0,0,0,.26-1.4L8,118.46a4.67,4.67,0,0,1,.26-1.59,1.75,1.75,0,0,1,1.44-1,2.39,2.39,0,0,1,2,.45,2.72,2.72,0,0,1,1.1,2,3.3,3.3,0,0,1-.23,2.27,2.22,2.22,0,0,1-1.85,1.25l-.19-1a4.59,4.59,0,0,0,1-.53,2.27,2.27,0,0,0,.34-1.81,1.84,1.84,0,0,0-.68-1.32,1.4,1.4,0,0,0-1.06-.3.93.93,0,0,0-.79.68A9.29,9.29,0,0,0,9,119l0,1.21a3.29,3.29,0,0,1-.3,1.36,2,2,0,0,1-1.55,1.06A2.3,2.3,0,0,1,4.93,122a4.71,4.71,0,0,1-1-2.19,3.34,3.34,0,0,1,.38-2.49,2.57,2.57,0,0,1,2-1.17m0,0Z" style="fill:#012a87;fill-rule:evenodd"/><path d="M5.76,127l8.13-2.46,1.89,5.71-1,.34-1.55-4.69-2.49.72L12.19,131l-.94.3-1.4-4.35-2.76.83,1.59,4.76-1,.3L5.76,127m0,0Z" style="fill:#012a87;fill-rule:evenodd"/><path d="M9.36,136.9l7.48-4,.79,1.4-5.14,5.4L20,138.49l.79,1.36-7.45,3.93-.53-.91,4.38-2.31c.15-.11.42-.23.76-.42s.76-.38,1.13-.6l-7.45,1.29-.57-1,5.1-5.4-.23.15c-.19.08-.45.23-.83.42a6.84,6.84,0,0,1-.83.45l-4.35,2.34-.57-.91m0,0Z" style="fill:#012a87;fill-rule:evenodd"/><path d="M23.26,147.86a2.21,2.21,0,0,1-1.1-.64l-1.59-1.63,2.12-2,1.59,1.63a3.22,3.22,0,0,1,.6.83,1.26,1.26,0,0,1-.45,1.36,1.19,1.19,0,0,1-1.17.42m-6,.76,2.61-2.38,1.85,1.89a2.57,2.57,0,0,0,1.85.87,2.7,2.7,0,0,0,1.7-.76,2.24,2.24,0,0,0,.79-1.66,2.38,2.38,0,0,0-.79-1.7l-2.65-2.72-6.16,5.67.79.79m0,0Z" style="fill:#012a87;fill-rule:evenodd"/><polygon points="24.7 155.27 29.2 148.24 34.45 151.45 33.92 152.28 29.58 149.68 28.21 151.83 32.22 154.25 31.69 155.04 27.72 152.62 26.17 155 30.6 157.65 30.07 158.48 24.7 155.27" style="fill:#012a87;fill-rule:evenodd"/><path d="M37.93,153.91l2.68.83a1.87,1.87,0,0,1,.87.45,1.22,1.22,0,0,1,.23,1.36,1.32,1.32,0,0,1-.83.94,3.22,3.22,0,0,1-1.29-.11l-2.53-.79.87-2.68m-2.31,6.88,1.13-3.33,2.49.79a1.68,1.68,0,0,1,.91.45,1,1,0,0,1,.26,1.17L40,161.24c-.08.3-.11.53-.15.64v.26l1.32.42.08-.19a.5.5,0,0,1-.19-.53,1.72,1.72,0,0,1,.15-.68l.3-1.1a1.52,1.52,0,0,0,.08-1.06,1.86,1.86,0,0,0-.53-.72,2.44,2.44,0,0,0,1.06-.45,2,2,0,0,0,.68-1.06,1.88,1.88,0,0,0-.53-2.23,4.73,4.73,0,0,0-1.4-.76l-3.78-1.17-2.61,7.82,1.1.34m0,0Z" style="fill:#012a87;fill-rule:evenodd"/><path d="M135.63,155.57a4.31,4.31,0,0,1,2.12.15,3.1,3.1,0,0,1,1.89,2l-1.13.15a2,2,0,0,0-1.06-1.17,3,3,0,0,0-1.7-.19,2.78,2.78,0,0,0-1.85,1.1,4.44,4.44,0,0,0,.64,4.91,2.45,2.45,0,0,0,2.27.64,2.79,2.79,0,0,0,1.78-.91,2.51,2.51,0,0,0,.45-2.19l-2.65.38-.11-.91,3.7-.49.64,4.35-.76.11-.42-1a4.74,4.74,0,0,1-.91,1,4.13,4.13,0,0,1-1.85.68,4,4,0,0,1-2.72-.6,4.52,4.52,0,0,1-1.63-3.1,4.42,4.42,0,0,1,.64-3.4,3.59,3.59,0,0,1,2.65-1.51m0,0Z" style="fill:#012a87;fill-rule:evenodd"/><path d="M144,155.08l2.65-.91a2.21,2.21,0,0,1,.94-.11,1.15,1.15,0,0,1,1,.91,1.3,1.3,0,0,1,0,1.25,2.11,2.11,0,0,1-1.1.68l-2.49.87-1-2.68m2.49,6.88-1.21-3.33,2.46-.83a2.43,2.43,0,0,1,1-.19,1.21,1.21,0,0,1,1,.83l.53,1.29a1.77,1.77,0,0,0,.3.57,1.64,1.64,0,0,0,.15.26l1.36-.45-.08-.19a.66.66,0,0,1-.53-.34c-.11-.15-.19-.38-.34-.64l-.42-1a1.48,1.48,0,0,0-1.47-1.17,2.17,2.17,0,0,0,.57-1,2.42,2.42,0,0,0-.11-1.25,2.09,2.09,0,0,0-1.81-1.47,4.35,4.35,0,0,0-1.59.26l-3.74,1.25,2.87,7.82,1.1-.38m0,0Z" style="fill:#012a87;fill-rule:evenodd"/><path d="M156.23,158.07l-4.61-7,5.25-3.21.53.83-4.27,2.65,1.4,2.12,4-2.46.53.83-4,2.42,1.55,2.34L161,154l.57.79-5.33,3.29m0,0Z" style="fill:#012a87;fill-rule:evenodd"/><path d="M160.54,146l1.4-1.47a2.28,2.28,0,0,1,2-.83,3.91,3.91,0,0,1,2.23,1.17,3.05,3.05,0,0,1,.6.6,3.93,3.93,0,0,1,.64,1.25,2.08,2.08,0,0,1-.11,1.36,3,3,0,0,1-.57.76l-1.4,1.47-4.8-4.35m7.07,3.36a3,3,0,0,0,.68-3.44,5.61,5.61,0,0,0-1.47-2,4.8,4.8,0,0,0-2.68-1.29,3.3,3.3,0,0,0-2.76,1.1L159,146.16l6.24,5.63,2.34-2.42m0,0Z" style="fill:#012a87;fill-rule:evenodd"/><path d="M172.63,143l-7.22-4.42.64-.91,7.22,4.38-.64,1m0,0Z" style="fill:#012a87;fill-rule:evenodd"/><path d="M175.58,138.11l-7.79-3.29,2.42-5.52.94.42-2,4.54,2.38.94,1.85-4.16.91.38-1.85,4.2,2.65,1.1,2-4.57.94.38-2.49,5.59m0,0Z" style="fill:#012a87;fill-rule:evenodd"/><path d="M179.4,128.51l-8.28-2,.3-1.25,7.71-2.46-6.69-1.63.26-1,8.24,1.93-.26,1.25L173,125.86l6.69,1.59-.26,1.06m0,0Z" style="fill:#012a87;fill-rule:evenodd"/><path d="M178.94,118l.11-1.06a2.19,2.19,0,0,0,1.17-.19,2.1,2.1,0,0,0,1.1-1.85,2.79,2.79,0,0,0-.08-1.13,1.29,1.29,0,0,0-1.13-1.17,1.32,1.32,0,0,0-1.06.3,4.49,4.49,0,0,0-.64,1.29l-.38,1.1a4.44,4.44,0,0,1-.76,1.44,1.78,1.78,0,0,1-1.66.64,2.46,2.46,0,0,1-1.78-1,2.75,2.75,0,0,1-.49-2.19,3.73,3.73,0,0,1,.91-2.15,2.34,2.34,0,0,1,2.12-.64l-.11,1.06a1.53,1.53,0,0,0-1.06.23,2,2,0,0,0-.87,1.63,1.93,1.93,0,0,0,.26,1.47,1.42,1.42,0,0,0,.94.53,1,1,0,0,0,.94-.38,5.3,5.3,0,0,0,.64-1.44l.42-1.13a3.63,3.63,0,0,1,.68-1.21,2.27,2.27,0,0,1,1.81-.6,2.23,2.23,0,0,1,1.89,1.21,4.19,4.19,0,0,1,.34,2.38,3.4,3.4,0,0,1-1.06,2.31,2.93,2.93,0,0,1-2.27.6m0,0Z" style="fill:#012a87;fill-rule:evenodd"/></svg>