<svg xmlns="http://www.w3.org/2000/svg" viewBox="0 0 480 600"><title>Slovakia</title><path d="M240,600C141.25,552.47,0,458.12,0,271.5S8.93,0,8.93,0H471.07S480,84.87,480,271.5,338.75,552.47,240,600Z" style="fill:#ee1c25"/><path d="M261.1,369.35V266.27c30.11-.38,82.69-.08,125.27,14.16,0,0-1.23-16.61-1.23-36s1.23-36,1.23-36C340,224,287.82,223,261.1,222.57V157.83c24.35-.22,59.45.95,99.13,14.23,0,0-1.23-16.61-1.23-36s1.23-36,1.23-36c-39.62,13.26-74.67,14.44-99,14.23,1.25-41,13.19-92.66,13.19-92.66s-24.58,1.92-34.4,1.92-34.4-1.92-34.4-1.92,11.94,51.67,13.19,92.66c-24.35.21-59.4-1-99-14.23,0,0,1.23,16.61,1.23,36s-1.23,36-1.23,36c39.68-13.28,74.77-14.44,99.13-14.23v64.74C192.18,223,140,224,93.63,208.51c0,0,1.23,16.61,1.23,36s-1.23,36-1.23,36c42.58-14.25,95.16-14.55,125.27-14.16V369.35h42.2Z" style="fill:#fff"/><path d="M432.25,441.55c-12.85-22.62-33.11-47.13-60.58-47.13-40.55,0-55.35,32.69-55.35,32.69S289.7,358.2,240,358.2s-76.32,68.91-76.32,68.91-14.8-32.69-55.35-32.69c-27.47,0-47.73,24.5-60.58,47.13C97.7,520.9,177.38,569.86,240,600,302.61,569.86,382.3,520.9,432.25,441.55Z" style="fill:#0b4ea2"/></svg>