<svg xmlns="http://www.w3.org/2000/svg" xmlns:xlink="http://www.w3.org/1999/xlink" viewBox="0 0 1659.66 1640.31"><defs><radialGradient id="a" cx="153.14" cy="1494.64" r="2.36" gradientTransform="matrix(1.01, 0.47, 0.53, -1.14, -180.74, 1676.52)" gradientUnits="userSpaceOnUse"><stop offset="0" stop-color="#fff"/><stop offset="1"/></radialGradient><radialGradient id="b" cx="-442.09" cy="1206.81" r="185.4" gradientTransform="matrix(0.45, -0.03, -0.05, -0.71, 666.81, 2042.36)" gradientUnits="userSpaceOnUse"><stop offset="0" stop-color="#fff"/><stop offset="1" stop-color="#fdc643"/></radialGradient><radialGradient id="c" cx="520.55" cy="1162.21" r="185.4" gradientTransform="matrix(-0.45, -0.03, 0.05, -0.71, 1444.15, 2041.76)" xlink:href="#b"/><radialGradient id="d" cx="206" cy="1928.34" r="11.02" gradientTransform="matrix(1, -0.01, -0.01, -1.29, 641.34, 2758.01)" gradientUnits="userSpaceOnUse"><stop offset="0"/><stop offset="1" stop-color="#626262"/></radialGradient></defs><title>South_Sudan</title><path d="M123.33,1026l216-217.5,10,15.5-213,247s-42,39-74,45c-3,1-31,7-41,0-3-9,21-39,35-56,68-81.2,302-285.2,302-285.2l4,11.3Z" style="fill:#f9f9f9;stroke:#000;stroke-linejoin:round;stroke-width:6.25px"/><path d="M181.33,1056l182-221.8,11,13.5-177,249.3s-35,41-65,49c-3,1-29,10-39,4-4-8,16-38,28-55,56-82,256-293.8,256-293.8l5,10.1Z" style="fill:#f9f9f9;stroke:#000;stroke-linejoin:round;stroke-width:6.25px"/><path d="M109.33,947.75l244-196.2,7,16.5-238,222.1s-46,34.9-79,36.9c-3,0-31,4-40-4-2-9,25-36.9,41-52.2,76-73.5,331-250.8,331-250.8l3,11.8-269,215.9Z" style="fill:#f9f9f9;stroke:#000;stroke-linejoin:round;stroke-width:6.25px"/><path d="M129.33,853.25l254-174.4,6,15.6-235,186.2s-44,28.3-74,27.8c-3,.1-29,1.5-37-6.4-1-8.8,26-31.9,41-44.8,76-61.8,322-205.7,322-205.7l1,11Z" style="fill:#f9f9f9;stroke:#000;stroke-linejoin:round;stroke-width:6.25px"/><path d="M146.33,781.95l217-129.4,7,16.8-209,134.4s-38,20.5-63,18.3c-3-.1-25-.5-30-7.6-1-7.2,23-24.4,36-34.1,66-45.9,279-148.8,279-148.8l1,9.2Z" style="fill:#f9f9f9;stroke:#000;stroke-linejoin:round;stroke-width:6.25px"/><path d="M174.33,708.55l223-119.5,7,17.1L189.33,731s-39,18.8-64,15.5c-3-.3-24-1.6-30-9,0-7.2,24-23.3,38-32.4,68-42.9,285-136.1,285-136.1l1,9.1Z" style="fill:#f9f9f9;stroke:#000;stroke-linejoin:round;stroke-width:6.25px"/><path d="M185.33,649.55l231-103.1,5,17.6-223,109s-40,15.9-65,10.8c-3-.5-24-3.3-29-11.1,0-7.2,26-21.5,40-29.6,71-37.8,294-115.1,294-115.1v9.2Z" style="fill:#f9f9f9;stroke:#000;stroke-linejoin:round;stroke-width:6.25px"/><path d="M197.33,600l190-70,3,13.4-183,74.6s-33,10.7-53,6.1c-2-.5-19-3.3-23-9.3,0-5.4,22-15.3,33-20.9,59-26.1,241-76.9,241-76.9v6.9Z" style="fill:#f9f9f9;stroke:#000;stroke-linejoin:round;stroke-width:6.25px"/><path d="M212.33,551.65l194-54.5,2,12-188,61.1s-34,8.3-53,2.2c-2-.5-19-4.6-23-10.9,1-5.3,23-13.6,35-18.4,61-21.8,246-59.2,246-59.2l-1,6.9-212,60.8Z" style="fill:#f9f9f9;stroke:#000;stroke-linejoin:round;stroke-width:6.25px"/><path d="M227.33,508.65l197-40.6,2,12.2-193,47.6s-34,5.8-53-1.5c-1-.8-18-6-21-12.5,1-5.3,24-12,36-15.9,62-17.4,250-41.7,250-41.7l-2,6.9-216,45.5Z" style="fill:#f9f9f9;stroke:#000;stroke-linejoin:round;stroke-width:6.25px"/><path d="M237.33,468.75l200-25.2,1,12.3-196,32.5s-34,3.3-53-5.6c-1-.9-17-7.4-20-14.1,2-5.2,24-10.1,37-13,63-12.6,252-22.2,252-22.2l-2,6.7-219,28.6Z" style="fill:#f9f9f9;stroke:#000;stroke-linejoin:round;stroke-width:6.25px"/><path d="M247.33,429.25l188-5.2v11l-185,11.8s-33,0-49-9.3c-1-1-16-8-18-14.1,3-4.5,24-6.9,36-8.3,60-5.8,237,1.8,237,1.8l-2,5.7Z" style="fill:#f9f9f9;stroke:#000;stroke-linejoin:round;stroke-width:6.25px"/><path d="M262.33,391.35l189,10.4-1,10.9-186-3.5s-33-2.7-48-13.3c-1-1.2-15-9.3-16-15.6,2-4.3,24-4.9,36-5.3,60-.8,236,21.4,236,21.4l-3,5.5Z" style="fill:#f9f9f9;stroke:#000;stroke-linejoin:round;stroke-width:6.25px"/><path d="M277.33,360l187,23.5-2,10.8-185-16.5s-32-4.9-46-16.6c-2-1.3-15-10.3-16-16.7,3-4.1,25-3.2,37-2.7,60,3.4,234,37.9,234,37.9l-4,5.2-205-24.9Z" style="fill:#f9f9f9;stroke:#000;stroke-linejoin:round;stroke-width:6.25px"/><path d="M296.33,329.35l184,38.5-2,10.6-183-31.3s-32-7.5-46-20.3c-1-1.4-13-11.4-14-17.9,3-3.8,25-1.2,37,.3,60,8.2,230,56.5,230,56.5l-3,5-203-41.4Z" style="fill:#f9f9f9;stroke:#000;stroke-linejoin:round;stroke-width:6.25px"/><path d="M324.33,301.15l184,52.4-3,10.4-182-45.1s-31-9.9-45-23.8c-1-1.4-13-12.3-13-18.8,3-3.7,24,.6,36,3,60,12.7,229,73.8,229,73.8l-4,4.8-202-56.7Z" style="fill:#f9f9f9;stroke:#000;stroke-linejoin:round;stroke-width:6.25px"/><path d="M345.33,272.75l180,65.9-4,10.1-179-58.5s-30-12.2-42-27c-2-1.5-13-13.3-13-19.8,4-3.4,25,2.5,37,5.7,58,17.1,222,90.6,222,90.6l-4,4.5Z" style="fill:#f9f9f9;stroke:#000;stroke-linejoin:round;stroke-width:6.25px"/><path d="M380.33,254.25l175,76.4-4,9.9-175-68.9s-29-14-41-29.6c-1-1.6-11-14-11-20.4,4-3.2,25,3.9,36,7.8,57,20.5,217,103.6,217,103.6l-4,4.3-193-83.1Z" style="fill:#f9f9f9;stroke:#000;stroke-linejoin:round;stroke-width:6.25px"/><path d="M409.33,236.45l145,72.1-4,8.6-144-65.7s-25-13.1-34-27.1c-1-1.5-9-12.5-8-18.1,3-2.8,20,4.2,29,7.9,48,19.7,179,97.2,179,97.2l-4,3.6Z" style="fill:#f9f9f9;stroke:#000;stroke-linejoin:round;stroke-width:6.25px"/><path d="M434.33,220.45l118,68.6-4,7.3-118-63.1s-20-12.4-27-24.9c-1-1.4-7-11.2-7-15.9,3-2.4,17,4.5,25,8.1,39,19,146,91.7,146,91.7l-4,2.9-129-74.7Z" style="fill:#f9f9f9;stroke:#000;stroke-linejoin:round;stroke-width:6.25px"/><path d="M460.33,210.55l101,68.6-4,6.4-101-63.5s-17-12.3-23-24c0-1.4-6-10.6-5-14.8,3-2,15,4.9,22,8.6,33,19.3,124,91,124,91l-3,2.4-111-74.7Z" style="fill:#f9f9f9;stroke:#000;stroke-linejoin:round;stroke-width:5.61460018157959px"/><path d="M489.33,204.15l77,63.3-3,5.1-78-59.1s-13-11.3-17-21.4c0-1.2-4-9.2-3-12.6,2-1.5,12,5,17,8.5,26,18.1,95,83.4,95,83.4l-3,1.8-85-69Z" style="fill:#f9f9f9;stroke:#000;stroke-linejoin:round;stroke-width:5px"/><path d="M525.33,207.95l68,73.2-4,4.6-70-69.1s-11-12.9-13-23.5c-1-1.2-3-9.7-2-12.8,3-1.3,11,6.5,16,10.6,23,21.5,83,95.4,83,95.4l-3,1.5Z" style="fill:#f9f9f9;stroke:#000;stroke-linejoin:round;stroke-width:5px"/><path d="M551.33,205.55l52,65.6-4,3.6-53-62.3s-8-11.5-10-20.5c0-1-1-8.3,0-10.8,2-1,9,6.1,12,9.8,18,19.4,62,85.1,62,85.1l-2,1.1Z" style="fill:#f9f9f9;stroke:#000;stroke-linejoin:round;stroke-width:5px"/><path d="M251.33,1060l134-197.2,10,9.7-126,218.5s-25,36-50,46c-3,1-24,11-33,7-4-6,10-32,18-47,39-72,189-262.2,189-262.2l6,7.5Z" style="fill:#f9f9f9;stroke:#000;stroke-linejoin:round;stroke-width:6.25px"/><path d="M332.33,1042l119-217.4,11,9.4-110,239s-23,40-47,52c-2,2-23,13-32,11-5-7,7-36,14-51,34-79,170-290.3,170-290.3l6,7.4Z" style="fill:#f9f9f9;stroke:#000;stroke-linejoin:round;stroke-width:6.25px"/><path d="M396.33,1058l106-243.8,11,8.3-84,241.5s-19,40-41,54c-2,2-20,15-30,13-4-5,4-35,10-51,26-78,120-293.3,120-293.3l24,4.5Z" style="fill:#f9f9f9;stroke:#000;stroke-linejoin:round;stroke-width:6.0117998123168945px"/><path d="M358.33,784.85l107-111.3,4,8-105,126.6s-21,20.1-37,22.9c-1,.4-15,4-20,.3-1-4.6,10-20,17-28.7,34-41.8,150-146.3,150-146.3l2,5.8Z" style="fill:#f3f3f3;stroke:#000;stroke-linejoin:round;stroke-width:4.611299991607666px"/><path d="M355.33,739.45l115-103.1,5,8.3-115,118.5s-22,18.5-38,20.1c-2,.3-16,2.8-20-1.2-2-4.7,11-19.2,19-27.4,37-39.1,160-134.8,160-134.8l2,5.9Z" style="fill:#f3f3f3;stroke:#000;stroke-linejoin:round;stroke-width:4.611299991607666px"/><path d="M351.33,696.55l124-92.5,3,8.6-124,107.9s-24,16.4-40,16.6c-2,.2-16,1.4-20-3-1-4.8,13-18,21-25.5,40-35.8,172-120.1,172-120.1l1,6Z" style="fill:#f3f3f3;stroke:#000;stroke-linejoin:round;stroke-width:4.611299991607666px"/><path d="M350.33,655.75l132-80.4,2,8.9-134,95.6s-25,14.1-41,12.8c-2,.1-16-.1-20-4.9,0-4.9,15-16.7,24-23.4,44-31.8,182-103.3,182-103.3l1,6.2Z" style="fill:#f3f3f3;stroke:#000;stroke-linejoin:round;stroke-width:4.611299991607666px"/><path d="M349.33,614.65l139-67,1,9.2-143,81.9s-26,11.5-42,8.6c-1,0-16-1.6-19-6.7,0-4.9,17-15.2,26-20.9,47-27.4,191-84.9,191-84.9v6.1l-153,73.7Z" style="fill:#f3f3f3;stroke:#000;stroke-linejoin:round;stroke-width:4.611299991607666px"/><path d="M354.33,576.15l142-60.5,1,9.3-147,75.1s-27,10.2-42,6.6c-2-.1-16-2.4-19-7.6,0-4.9,17-14.4,27-19.7,48-25.2,195-75.8,195-75.8v6.1Z" style="fill:#f3f3f3;stroke:#000;stroke-linejoin:round;stroke-width:4.611299991607666px"/><path d="M363.33,537.95l148-45.4v9.4l-153,59.5s-28,7.4-44,2.2c-1-.3-15-4-17-9.6,0-4.8,18-12.4,29-16.7,49-20.1,201-55.2,201-55.2l-1,6Z" style="fill:#f3f3f3;stroke:#000;stroke-linejoin:round;stroke-width:4.611299991607666px"/><path d="M373.33,503.15l150-36.8v9.4l-157,50.5s-28,5.8-43-.4c-1-.3-15-4.8-17-10.5,1-4.8,19-11.3,30-15,51-17.2,204-43.5,204-43.5l-1,6-166,40.3Z" style="fill:#f3f3f3;stroke:#000;stroke-linejoin:round;stroke-width:4.611299991607666px"/><path d="M373.33,474.75l135-24.7-1,7.8-142,35.9s-25,3.7-38-2c-1-.3-13-4.7-15-9.5,1-4,18-8.7,27-11.4,46-12.3,185-28.1,185-28.1l-2,4.9-149,27.1Z" style="fill:#f3f3f3;stroke:#000;stroke-linejoin:round;stroke-width:4.5px"/><path d="M380.33,447.25l132-13.6-1,7-139,23.2s-25,1.7-38-4.2c-1-.4-12-5.1-13-9.5,1-3.5,18-6.7,27-8.4,45-8.2,180-13.7,180-13.7l-2,4.3-146,14.9Z" style="fill:#f3f3f3;stroke:#000;stroke-linejoin:round;stroke-width:4.5px"/><path d="M393.33,421.55l132-2.1-1,6.9-141,11s-25-.5-37-7.4c-1-.5-12-6.1-13-10.6,2-3.4,19-5.2,28-6.1,46-4.2,180,2,180,2l-2,4.1Z" style="fill:#f3f3f3;stroke:#000;stroke-linejoin:round;stroke-width:4.5px"/><path d="M399.33,396.15l132,8.6-2,6.7-141-.3s-25-2.6-36-10.4c-1-.6-11-7-12-11.6,2-3.2,19-3.7,28-3.8,46-.5,180,16.5,180,16.5l-3,3.9-146-9.6Z" style="fill:#f3f3f3;stroke:#000;stroke-linejoin:round;stroke-width:4.5px"/><path d="M408.33,371.65l131,21.3-3,6.5-140-13.9s-25-5-35-13.8c-1-.7-11-8-11-12.7,2-3,19-1.9,29-1.1,45,4,177,33.7,177,33.7l-3,3.6Z" style="fill:#f3f3f3;stroke:#000;stroke-linejoin:round;stroke-width:4.5px"/><path d="M423.33,348.85l129,30.2-3,6.3-140-23.4s-24-6.7-33-16.1c-2-.8-10-8.7-10-13.4,2-2.9,19-.7,28,.8,46,7.1,175,45.6,175,45.6l-3,3.4Z" style="fill:#f3f3f3;stroke:#000;stroke-linejoin:round;stroke-width:4.5px"/><path d="M438.33,328.75l126,43.1-4,5.9-136-37.2s-23-9.1-32-19.5c-1-.8-9-9.6-8-14.3,2-2.6,19,1.3,28,3.6,44,11.7,169,62.9,169,62.9l-3,3.1Z" style="fill:#f3f3f3;stroke:#000;stroke-linejoin:round;stroke-width:4.5px"/><path d="M460.33,308.95l122,54.6-5,5.6-132-49.9s-23-11.2-30-22.3c-1-1-8-10.5-7-15.1,3-2.3,19,3.1,27,6.3,44,15.8,163,78.4,163,78.4l-4,2.8Z" style="fill:#f3f3f3;stroke:#000;stroke-linejoin:round;stroke-width:4.5px"/><path d="M471.33,287.35l114,60.2-5,5.1-125-56.5s-21-12.2-27-23.3c-1-1.1-8-10.6-6-15,3-1.9,18,4.3,26,8,41,17.9,152,85.7,152,85.7l-4,2.4Z" style="fill:#f3f3f3;stroke:#000;stroke-linejoin:round;stroke-width:4.341000080108643px"/><path d="M489.33,273l110,66.2-5,4.8-122-63.1s-20-13.3-26-24.7c0-1.1-6-11-5-15.3,4-1.7,18,5.3,26,9.4,40,20.1,147,93.7,147,93.7l-3,2.2Z" style="fill:#f3f3f3;stroke:#000;stroke-linejoin:round;stroke-width:4.341000080108643px"/><path d="M508.33,261.75l98,62.7-5,4.1-108-60.2s-18-12.5-23-22.9c-1-1-6-10.1-4-13.8,3-1.5,16,5.2,23,9.2,35,19.2,130,88.3,130,88.3l-3,1.8Z" style="fill:#f3f3f3;stroke:#000;stroke-linejoin:round;stroke-width:4.5px"/><path d="M523.33,251.85l78,55.1-4,3.2-87-53.5s-14-11-17-19.6c-1-.8-5-8.5-3-11.4,2-1.1,13,4.9,18,8.4,29,17.1,104,77.3,104,77.3l-3,1.3-86-60.8Z" style="fill:#f3f3f3;stroke:#000;stroke-linejoin:round;stroke-width:4px"/><path d="M541.33,246.95l68,55.6-4,2.5-75-54.8s-13-10.9-15-18.9c-1-.9-4-8-2-10.6,2-.8,11,5.4,16,9,25,17.5,90,77.5,90,77.5l-3,1-75-61.3Z" style="fill:#f3f3f3;stroke:#000;stroke-linejoin:round;stroke-width:4px"/><path d="M569.33,250.85l63,61-4,2.2-71-60.9s-11-11.9-13-20.1c-1-.9-3-8.2-1-10.7,2-.6,11,6.3,16,10.3,23,19.5,83,84.7,83,84.7l-3,.8-70-67.3Z" style="fill:#f3f3f3;stroke:#000;stroke-linejoin:round;stroke-width:4px"/><path d="M580.33,241.25l45,49-4,1.4-50-49.2s-8-9.6-9-15.8c0-.7-2-6.4,0-8.1,2-.4,8,5.3,11,8.5,17,15.8,59,67.8,59,67.8l-3,.4-49-54Z" style="fill:#f3f3f3;stroke:#000;stroke-linejoin:round;stroke-width:3.0125999450683594px"/><path d="M377.33,814.55l94-122.1,6,7.4-91,137.1s-19,22.2-34,26.7c-2,.6-15,5.6-20,2.5-2-4.4,8-21,14-30.4,29-45.2,133-161.4,133-161.4l3,5.5-105,134.7Z" style="fill:#f3f3f3;stroke:#000;stroke-linejoin:round;stroke-width:4.611299991607666px"/><path d="M403.33,833.35l81-131.2,7,6.7-77,145.8s-16,24.1-31,30.2c-1,.8-14,7-20,4.6-2-4.2,6-21.8,11-31.8,24-48,116-174.3,116-174.3l3,5.2Z" style="fill:#f3f3f3;stroke:#000;stroke-linejoin:round;stroke-width:4.611299991607666px"/><path d="M429.33,855.25l67-139,7,6-61,153s-13,25.7-27,33.3c-1,.9-14,8.4-19,6.6-3-3.9,3-22.3,7-32.7,19-50.3,97-185.5,97-185.5l4,4.9-75,153.4Z" style="fill:#f3f3f3;stroke:#000;stroke-linejoin:round;stroke-width:4.611299991607666px"/><path d="M459.33,887.15l59-152.1,8,5.4-49,166.1s-13,28.2-27,37.7c-1,1-14,10.2-21,8.8-4-3.6,1-23.6,4-34.7,16-54.4,81-207.3,81-207.3l10,8.2Z" style="fill:#f3f3f3;stroke:#000;stroke-linejoin:round;stroke-width:4.99370002746582px"/><path d="M503.33,882.85l45-156.9,9,4.6-35,170s-9,29.2-23,40c-1,1.1-13,11.5-20,10.7-4-3.3,0-23.7,1-35,11-55.6,62-213.9,62-213.9l10,7.3-49,173.2Z" style="fill:#f3f3f3;stroke:#000;stroke-linejoin:round;stroke-width:4.99370002746582px"/><path d="M541.33,885.65l22-136.6,8,3-14,146.9s-5,25.5-15,35.8c-1,1-9,11-14,10.9-4-2.4-3-20-2-29.8,3-47.9,31-186.3,31-186.3l9,5.2-25,150.9Z" style="fill:#f3f3f3;stroke:#000;stroke-linejoin:round;stroke-width:4.089600086212158px"/><path d="M568.33,895.55l14-108.4,7,2.1-6,116.2s-4,20.3-12,28.8c-1,.8-8,9-13,9-3-1.7-3-15.7-2-23.4,1-37.9,20-147.8,20-147.8l8,3.8-16,119.7Z" style="fill:#f3f3f3;stroke:#000;stroke-linejoin:round;stroke-width:4px"/><path d="M595.33,884.95l10-109,6,1.8V894s-3,20.5-11,29.4c0,.8-7,9.3-12,9.6-3-1.6-4-15.6-4-23.3,0-37.9,13-148.6,13-148.6l9,3.4Z" style="fill:#f3f3f3;stroke:#000;stroke-linejoin:round;stroke-width:4px"/><path d="M625.33,879.55l-1-109.4,7,1.1,10,115.8s0,20.7-7,30.3c-1,.8-7,10-11,10.7-4-1.2-6-15.1-6-22.8-5-37.6-2-149.1-2-149.1l9,2.5Z" style="fill:#f3f3f3;stroke:#000;stroke-linejoin:round;stroke-width:4px"/><path d="M488.33,734.85l74-135.2,5,5.2-70,146.1s-11,18.8-22,24.2c-1,.5-11,6.2-15,4.4-2-3,4-17,7-24.6,16-37.9,98-169.5,98-169.5l3,3.8-80,145.6Z" style="fill:#ebebeb;stroke:#000;stroke-linejoin:round;stroke-width:3.536900043487549px"/><path d="M478.33,708.95l75-113.7,3,5.1-73,123.9s-11,15.7-21,19.5c0,.3-9,4.4-13,2.5-1-3,5-14.9,9-21.5,17-32.2,99-141.9,99-141.9l2,3.7-81,122.4Z" style="fill:#ebebeb;stroke:#000;stroke-linejoin:round;stroke-width:3.088599920272827px"/><path d="M459.33,695.55l84-103,3,5.2-82,113.1s-12,14.2-22,17c-1,.2-10,3.4-13,1.3-1-3,6-14,10-20,20-29.6,108-128.3,108-128.3l2,3.7Z" style="fill:#ebebeb;stroke:#000;stroke-linejoin:round;stroke-width:3.002700090408325px"/><path d="M455.33,672.75l89-93.9,2,5.4-88,103.9s-13,12.9-23,14.7c-1,.2-10,2.5-12,.2-2-3.1,6-13.2,11-18.9,21-27.2,116-116.3,116-116.3l1,3.8Z" style="fill:#ebebeb;stroke:#000;stroke-linejoin:round;stroke-width:2.9309000968933105px"/><path d="M455.33,641.15l100-82.4,2,5.6-101,92.4s-14,11.3-24,11.9c-1,.1-10,1.3-13-1.3,0-3.2,9-12.3,14-17.4,24-24.4,129-101.5,129-101.5v3.9Z" style="fill:#ebebeb;stroke:#000;stroke-linejoin:round;stroke-width:2.9309000968933105px"/><path d="M450.33,619.85l105-74.6,2,5.8-108,84.4s-15,10.1-25,10c0,.1-10,.6-12-2.2,0-3.3,9-11.7,15-16.4,26-22.4,136-91.3,136-91.3v3.9l-113,80.4Z" style="fill:#ebebeb;stroke:#000;stroke-linejoin:round;stroke-width:2.9309000968933105px"/><path d="M445.33,593.95l113-62.5,1,5.9-116,72.1s-16,8.4-26,7.2c-1,0-10-.5-12-3.6,0-3.2,10-10.5,16-14.6,29-19.4,146-75.8,146-75.8v3.9l-122,67.4Z" style="fill:#ebebeb;stroke:#000;stroke-linejoin:round;stroke-width:2.9309000968933105px"/><path d="M447.33,564.35l120-48.4v5.9l-124,57.6s-17,6.4-27,4c0,.1-10-1.7-11-4.9,0-3.3,11-9.3,18-12.6,31-15.8,153-57.7,153-57.7V512l-129,52.3Z" style="fill:#ebebeb;stroke:#000;stroke-linejoin:round;stroke-width:2.9309000968933105px"/><path d="M450.33,538.85l124-38.9-1,5.9-128,47.8s-17,5.1-27,1.9c0,.1-9-2.4-11-5.8,1-3.2,13-8.3,19-11.1,32-13.4,158-45.6,158-45.6l-1,3.7Z" style="fill:#ebebeb;stroke:#000;stroke-linejoin:round;stroke-width:2.9309000968933105px"/><path d="M458.33,511.25l128-22.5-1,5.8-134,30.8s-17,2.8-27-1.7c0,.1-9-3.6-10-7.1,1-3.1,14-6.7,21-8.6,33-9.1,162-24.7,162-24.7l-1,3.6-138,24.4Z" style="fill:#ebebeb;stroke:#000;stroke-linejoin:round;stroke-width:2.9309000968933105px"/><path d="M454.33,486.15l130-7.4-2,5.6-136,15s-18,.7-27-4.8c0,0-8-4.7-9-8.3,2-2.9,14-5.1,21-6.1,35-5.2,165-5.6,165-5.6l-2,3.4-140,8.2Z" style="fill:#ebebeb;stroke:#000;stroke-linejoin:round;stroke-width:2.9309000968933105px"/><path d="M457.33,466l129,3.6-2,5.4-136,3.5s-18-.9-26-7.1c-1,0-9-5.4-9-9.1,1-2.8,14-3.9,21-4.3,34-2.3,164,8.4,164,8.4l-2,3.2Z" style="fill:#ebebeb;stroke:#000;stroke-linejoin:round;stroke-width:2.9309000968933105px"/><path d="M460.33,446.65l129,15.3-2,5.2-136-8.7s-18-2.6-26-9.5c-1-.1-9-6.2-9-10,1-2.6,14-2.6,21-2.4,34,.8,164,23.3,164,23.3l-2,3-139-16.2Z" style="fill:#ebebeb;stroke:#000;stroke-linejoin:round;stroke-width:2.9309000968933105px"/><path d="M469.33,425.35l127,29.5-2,5-134-23.8s-18-4.5-26-12.4c0-.1-8-7.1-8-10.9,2-2.4,14-1.1,21-.1,34,4.6,161,41.4,161,41.4l-2,2.8Z" style="fill:#ebebeb;stroke:#000;stroke-linejoin:round;stroke-width:2.9309000968933105px"/><path d="M478.33,404.45l124,39.9-3,4.8-131-34.9s-18-6-25-14.5c0-.1-7-7.7-7-11.5,2-2.2,15,.1,22,1.7,33,7.4,156,54.6,156,54.6l-2,2.6Z" style="fill:#ebebeb;stroke:#000;stroke-linejoin:round;stroke-width:2.9309000968933105px"/><path d="M481.33,383.95l120,49.1-3,4.5-128-44.6s-17-7.3-23-16.3c-1-.1-7-8.2-7-11.9,2-2.1,14,1.1,21,3.2,33,9.9,153,66.2,153,66.2l-3,2.4-130-52.6Z" style="fill:#ebebeb;stroke:#000;stroke-linejoin:round;stroke-width:2.9309000968933105px"/><path d="M492.33,366.45l116,59.5-4,4.2-124-55.7s-16-8.7-22-18.3c0-.1-5-8.7-5-12.3,3-2,14,2.3,21,5,32,12.7,146,79.3,146,79.3l-3,2.1-125-63.8Z" style="fill:#ebebeb;stroke:#000;stroke-linejoin:round;stroke-width:2.9309000968933105px"/><path d="M500.33,346.25l112,66.5-4,4-120-63.2s-16-9.7-21-19.7c0-.1-5-9-4-12.5,2-1.9,13,3.1,20,6.2,31,14.7,141,88.1,141,88.1l-3,2Z" style="fill:#ebebeb;stroke:#000;stroke-linejoin:round;stroke-width:2.9309000968933105px"/><path d="M516.33,330.75l107,74.2-4,3.7-116-71.5s-15-10.7-19-21.1c0-.1-4-9.3-3-12.7,2-1.8,13,4,20,7.6,29,16.8,134,97.7,134,97.7l-4,1.8Z" style="fill:#ebebeb;stroke:#000;stroke-linejoin:round;stroke-width:2.9309000968933105px"/><path d="M531.33,315.85l100,83-5,3.3-109-81s-14-12-17-22.7c-1-.1-4-9.6-2-12.9,2-1.6,13,5.1,19,9.2,28,19.3,125,108.7,125,108.7l-3,1.6Z" style="fill:#ebebeb;stroke:#000;stroke-linejoin:round;stroke-width:3px"/><path d="M534.33,297.75l72,62.1-3,2.4-79-60.6s-10-8.9-13-16.9c0-.1-3-7.2-1-9.6,1-1.2,9,3.8,13,6.9,21,14.4,91,81.2,91,81.2l-3,1.1Z" style="fill:#ebebeb;stroke:#000;stroke-linejoin:round;stroke-width:3px"/><path d="M552.33,292.85l66,68.3-3,2.1-73-67.4s-9-9.8-11-18c0-.1-2-7.4-1-9.7,2-1,9,4.6,13,8.1,20,16.2,83,89,83,89l-2,.9Z" style="fill:#ebebeb;stroke:#000;stroke-linejoin:round;stroke-width:3px"/><path d="M569.33,288.45l60,70.7-4,1.8-66-70.3s-9-10.2-10-18.3c0-.1-2-7.3,0-9.4,2-.9,8,5,12,8.7,18,17,75,92,75,92l-3,.7-64-75.9Z" style="fill:#ebebeb;stroke:#000;stroke-linejoin:round;stroke-width:3px"/><path d="M585.33,285.25l49,72-3,1.4-55-72.2s-7-10.3-8-18.1c0-.1,0-7,1-8.9,2-.7,7,5.5,11,9.4,14,17.5,60,93.2,60,93.2l-2,.5Z" style="fill:#ebebeb;stroke:#000;stroke-linejoin:round;stroke-width:2.808300018310547px"/><path d="M598.33,280.85l45,75-3,1.2-51-75.5s-6-10.7-6-18.6c0-.1-1-7,1-8.8,2-.6,7,5.9,10,10,14,18.4,55,96.8,55,96.8l-2,.4-49-80.5Z" style="fill:#ebebeb;stroke:#000;stroke-linejoin:round;stroke-width:2.808300018310547px"/><path d="M607.33,273.65l34,64.5-2,1-39-65.1s-5-9.2-5-15.8c0-.1,0-6,1-7.5,2-.5,6,5.1,8,8.7,11,15.9,42,83.2,42,83.2l-2,.2-37-69.2Z" style="fill:#ebebeb;stroke:#000;stroke-linejoin:round;stroke-width:2.315200090408325px"/><path d="M511.33,749.95l60-142.1,5,4.6-54,152.5s-9,19.9-20,26.4c0,.6-10,7.3-14,5.9-3-2.7,2-17.3,4-25.1,13-39.5,80-178.7,80-178.7l3,3.4-64,153.1Z" style="fill:#ebebeb;stroke:#000;stroke-linejoin:round;stroke-width:3.536900043487549px"/><path d="M530.33,764.25l42-128.1,5,3.7-37,136.8s-6,17.8-15,24.3c0,.5-8,7-12,6.1-3-2.2,0-15.2,2-22.1,8-35.3,57-161.5,57-161.5l3,2.8-45,138Z" style="fill:#ebebeb;stroke:#000;stroke-linejoin:round;stroke-width:3px"/><path d="M552.33,789.75l25-132.4,5,3-18,140.4s-4,18.5-13,26.1c0,.5-7,7.9-11,7.6-2-1.9-1-15.2-1-22.2,4-36.1,36-167.5,36-167.5l4,2.4-27,142.6Z" style="fill:#ebebeb;stroke:#000;stroke-linejoin:round;stroke-width:3px"/><path d="M584.33,786.95l-1-134.8,6,2,9,141.3s0,19-7,28c0,.5-5,9.1-9,9.6-3-1.4-5-14.6-6-21.6-3-36.2,3-171.3,3-171.3l4,1.6Z" style="fill:#ebebeb;stroke:#000;stroke-linejoin:round;stroke-width:3px"/><path d="M608.33,787.65l-11-134.3,6,1.5,19,140.3s1,18.9-5,28.4c0,.5-4,9.5-8,10.3-3-1.2-6-14.2-7-21.1-6-35.9-10-171.1-10-171.1l4,1.4Z" style="fill:#ebebeb;stroke:#000;stroke-linejoin:round;stroke-width:3px"/><path d="M630.33,786l-11-96.6,6,1.1,19,100.9s1,13.6-5,20.4c0,.4-5,6.9-8,7.4-3-.8-6-10.2-7-15.1-6-25.9-10-123.1-10-123.1l4,1,12,104Z" style="fill:#ebebeb;stroke:#000;stroke-linejoin:round;stroke-width:3px"/><path d="M349.23,1288l-.4-45-71.5,16Z" style="stroke:#000;stroke-width:4px"/><path d="M971.83,295A248.43,248.43,0,0,1,948,244c-10.2-30.4-54.5-150.87-54.5-150.87-8.4-15.9-32-51.7-72.7-75.5-27.2-13-65.8-23.4-141.4,28.8L697.23,111c76.4,30.9,23.2,167.6-27.9,199.9-10,259.1,418,363.2,314-15.9Z" style="fill:#fff"/><path d="M1536.33,1026l-216-217.5-10,15.5,213,247s42,39,74,45c3,1,31,7,41,0,3-9-21-39-35-56-68-81.2-302-285.2-302-285.2l-4,11.3Z" style="fill:#f9f9f9;stroke:#000;stroke-linejoin:round;stroke-width:6.25px"/><path d="M1478.33,1056l-182-221.8-11,13.5,177,249.3s35,41,65,49c3,1,29,10,39,4,4-8-16-38-28-55-56-82-256-293.8-256-293.8l-5,10.1Z" style="fill:#f9f9f9;stroke:#000;stroke-linejoin:round;stroke-width:6.25px"/><path d="M1550.33,947.75l-244-196.2-7,16.5,238,222.1s46,34.9,79,36.9c3,0,31,4,40-4,2-9-25-36.9-41-52.2-76-73.5-331-250.8-331-250.8l-3,11.8,269,215.9Z" style="fill:#f9f9f9;stroke:#000;stroke-linejoin:round;stroke-width:6.25px"/><path d="M1530.33,853.25l-254-174.4-6,15.6,235,186.2s44,28.3,74,27.8c3,.1,29,1.5,37-6.4,1-8.8-26-31.9-41-44.8-76-61.8-322-205.7-322-205.7l-1,11Z" style="fill:#f9f9f9;stroke:#000;stroke-linejoin:round;stroke-width:6.25px"/><path d="M1513.33,781.95l-217-129.4-7,16.8,209,134.4s38,20.5,63,18.3c3-.1,25-.5,30-7.6,1-7.2-23-24.4-36-34.1-66-45.9-279-148.8-279-148.8l-1,9.2Z" style="fill:#f9f9f9;stroke:#000;stroke-linejoin:round;stroke-width:6.25px"/><path d="M1485.33,708.55l-223-119.5-7,17.1,215,124.9s39,18.8,64,15.5c3-.3,24-1.6,30-9,0-7.2-24-23.3-38-32.4-68-42.9-285-136.1-285-136.1l-1,9.1Z" style="fill:#f9f9f9;stroke:#000;stroke-linejoin:round;stroke-width:6.25px"/><path d="M1474.33,649.55l-231-103.1-5,17.6,223,109s40,15.9,65,10.8c3-.5,24-3.3,29-11.1,0-7.2-26-21.5-40-29.6-71-37.8-294-115.1-294-115.1v9.2Z" style="fill:#f9f9f9;stroke:#000;stroke-linejoin:round;stroke-width:6.25px"/><path d="M1462.33,600l-190-70-3,13.4,183,74.6s33,10.7,53,6.1c2-.5,19-3.3,23-9.3,0-5.4-22-15.3-33-20.9-59-26.1-241-76.9-241-76.9v6.9Z" style="fill:#f9f9f9;stroke:#000;stroke-linejoin:round;stroke-width:6.25px"/><path d="M1447.33,551.65l-194-54.5-2,12,188,61.1s34,8.3,53,2.2c2-.5,19-4.6,23-10.9-1-5.3-23-13.6-35-18.4-61-21.8-246-59.2-246-59.2l1,6.9,212,60.8Z" style="fill:#f9f9f9;stroke:#000;stroke-linejoin:round;stroke-width:6.25px"/><path d="M1432.33,508.65l-197-40.6-2,12.2,193,47.6s34,5.8,53-1.5c1-.8,18-6,21-12.5-1-5.3-24-12-36-15.9-62-17.4-250-41.7-250-41.7l2,6.9,216,45.5Z" style="fill:#f9f9f9;stroke:#000;stroke-linejoin:round;stroke-width:6.25px"/><path d="M1422.33,468.75l-200-25.2-1,12.3,196,32.5s34,3.3,53-5.6c1-.9,17-7.4,20-14.1-2-5.2-24-10.1-37-13-63-12.6-252-22.2-252-22.2l2,6.7,219,28.6Z" style="fill:#f9f9f9;stroke:#000;stroke-linejoin:round;stroke-width:6.25px"/><path d="M1412.33,429.25l-188-5.2v11l185,11.8s33,0,49-9.3c1-1,16-8,18-14.1-3-4.5-24-6.9-36-8.3-60-5.8-237,1.8-237,1.8l2,5.7Z" style="fill:#f9f9f9;stroke:#000;stroke-linejoin:round;stroke-width:6.25px"/><path d="M1397.33,391.35l-189,10.4,1,10.9,186-3.5s33-2.7,48-13.3c1-1.2,15-9.3,16-15.6-2-4.3-24-4.9-36-5.3-60-.8-236,21.4-236,21.4l3,5.5Z" style="fill:#f9f9f9;stroke:#000;stroke-linejoin:round;stroke-width:6.25px"/><path d="M1382.33,360l-187,23.5,2,10.8,185-16.5s32-4.9,46-16.6c2-1.3,15-10.3,16-16.7-3-4.1-25-3.2-37-2.7-60,3.4-234,37.9-234,37.9l4,5.2,205-24.9Z" style="fill:#f9f9f9;stroke:#000;stroke-linejoin:round;stroke-width:6.25px"/><path d="M1363.33,329.35l-184,38.5,2,10.6,183-31.3s32-7.5,46-20.3c1-1.4,13-11.4,14-17.9-3-3.8-25-1.2-37,.3-60,8.2-230,56.5-230,56.5l3,5,203-41.4Z" style="fill:#f9f9f9;stroke:#000;stroke-linejoin:round;stroke-width:6.25px"/><path d="M1335.33,301.15l-184,52.4,3,10.4,182-45.1s31-9.9,45-23.8c1-1.4,13-12.3,13-18.8-3-3.7-24,.6-36,3-60,12.7-229,73.8-229,73.8l4,4.8,202-56.7Z" style="fill:#f9f9f9;stroke:#000;stroke-linejoin:round;stroke-width:6.25px"/><path d="M1314.33,272.75l-180,65.9,4,10.1,179-58.5s30-12.2,42-27c2-1.5,13-13.3,13-19.8-4-3.4-25,2.5-37,5.7-58,17.1-222,90.6-222,90.6l4,4.5Z" style="fill:#f9f9f9;stroke:#000;stroke-linejoin:round;stroke-width:6.25px"/><path d="M1279.33,254.25l-175,76.4,4,9.9,175-68.9s29-14,41-29.6c1-1.6,11-14,11-20.4-4-3.2-25,3.9-36,7.8-57,20.5-217,103.6-217,103.6l4,4.3,193-83.1Z" style="fill:#f9f9f9;stroke:#000;stroke-linejoin:round;stroke-width:6.25px"/><path d="M1250.33,236.45l-145,72.1,4,8.6,144-65.7s25-13.1,34-27.1c1-1.5,9-12.5,8-18.1-3-2.8-20,4.2-29,7.9-48,19.7-179,97.2-179,97.2l4,3.6Z" style="fill:#f9f9f9;stroke:#000;stroke-linejoin:round;stroke-width:6.25px"/><path d="M1225.33,220.45l-118,68.6,4,7.3,118-63.1s20-12.4,27-24.9c1-1.4,7-11.2,7-15.9-3-2.4-17,4.5-25,8.1-39,19-146,91.7-146,91.7l4,2.9,129-74.7Z" style="fill:#f9f9f9;stroke:#000;stroke-linejoin:round;stroke-width:6.25px"/><path d="M1199.33,210.55l-101,68.6,4,6.4,101-63.5s17-12.3,23-24c0-1.4,6-10.6,5-14.8-3-2-15,4.9-22,8.6-33,19.3-124,91-124,91l3,2.4,111-74.7Z" style="fill:#f9f9f9;stroke:#000;stroke-linejoin:round;stroke-width:5.61460018157959px"/><path d="M1170.33,204.15l-77,63.3,3,5.1,78-59.1s13-11.3,17-21.4c0-1.2,4-9.2,3-12.6-2-1.5-12,5-17,8.5-26,18.1-95,83.4-95,83.4l3,1.8,85-69Z" style="fill:#f9f9f9;stroke:#000;stroke-linejoin:round;stroke-width:5px"/><path d="M1134.33,207.95l-68,73.2,4,4.6,70-69.1s11-12.9,13-23.5c1-1.2,3-9.7,2-12.8-3-1.3-11,6.5-16,10.6-23,21.5-83,95.4-83,95.4l3,1.5Z" style="fill:#f9f9f9;stroke:#000;stroke-linejoin:round;stroke-width:5px"/><path d="M1108.33,205.55l-52,65.6,4,3.6,53-62.3s8-11.5,10-20.5c0-1,1-8.3,0-10.8-2-1-9,6.1-12,9.8-18,19.4-62,85.1-62,85.1l2,1.1Z" style="fill:#f9f9f9;stroke:#000;stroke-linejoin:round;stroke-width:5px"/><path d="M1408.33,1060l-134-197.2-10,9.7,126,218.5s25,36,50,46c3,1,24,11,33,7,4-6-10-32-18-47-39-72-189-262.2-189-262.2l-6,7.5Z" style="fill:#f9f9f9;stroke:#000;stroke-linejoin:round;stroke-width:6.25px"/><path d="M1327.33,1042l-119-217.4-11,9.4,110,239s23,40,47,52c2,2,23,13,32,11,5-7-7-36-14-51-34-79-170-290.3-170-290.3l-6,7.4Z" style="fill:#f9f9f9;stroke:#000;stroke-linejoin:round;stroke-width:6.25px"/><path d="M1263.33,1058l-106-243.8-11,8.3,84,241.5s19,40,41,54c2,2,20,15,30,13,4-5-4-35-10-51-26-78-120-293.3-120-293.3l-24,4.5Z" style="fill:#f9f9f9;stroke:#000;stroke-linejoin:round;stroke-width:6.0117998123168945px"/><path d="M1301.33,784.85l-107-111.3-4,8,105,126.6s21,20.1,37,22.9c1,.4,15,4,20,.3,1-4.6-10-20-17-28.7-34-41.8-150-146.3-150-146.3l-2,5.8Z" style="fill:#f3f3f3;stroke:#000;stroke-linejoin:round;stroke-width:4.611299991607666px"/><path d="M1304.33,739.45l-115-103.1-5,8.3,115,118.5s22,18.5,38,20.1c2,.3,16,2.8,20-1.2,2-4.7-11-19.2-19-27.4-37-39.1-160-134.8-160-134.8l-2,5.9Z" style="fill:#f3f3f3;stroke:#000;stroke-linejoin:round;stroke-width:4.611299991607666px"/><path d="M1308.33,696.55l-124-92.5-3,8.6,124,107.9s24,16.4,40,16.6c2,.2,16,1.4,20-3,1-4.8-13-18-21-25.5-40-35.8-172-120.1-172-120.1l-1,6Z" style="fill:#f3f3f3;stroke:#000;stroke-linejoin:round;stroke-width:4.611299991607666px"/><path d="M1309.33,655.75l-132-80.4-2,8.9,134,95.6s25,14.1,41,12.8c2,.1,16-.1,20-4.9,0-4.9-15-16.7-24-23.4-44-31.8-182-103.3-182-103.3l-1,6.2Z" style="fill:#f3f3f3;stroke:#000;stroke-linejoin:round;stroke-width:4.611299991607666px"/><path d="M1310.33,614.65l-139-67-1,9.2,143,81.9s26,11.5,42,8.6c1,0,16-1.6,19-6.7,0-4.9-17-15.2-26-20.9-47-27.4-191-84.9-191-84.9v6.1l153,73.7Z" style="fill:#f3f3f3;stroke:#000;stroke-linejoin:round;stroke-width:4.611299991607666px"/><path d="M1305.33,576.15l-142-60.5-1,9.3,147,75.1s27,10.2,42,6.6c2-.1,16-2.4,19-7.6,0-4.9-17-14.4-27-19.7-48-25.2-195-75.8-195-75.8v6.1Z" style="fill:#f3f3f3;stroke:#000;stroke-linejoin:round;stroke-width:4.611299991607666px"/><path d="M1296.33,537.95l-148-45.4v9.4l153,59.5s28,7.4,44,2.2c1-.3,15-4,17-9.6,0-4.8-18-12.4-29-16.7-49-20.1-201-55.2-201-55.2l1,6Z" style="fill:#f3f3f3;stroke:#000;stroke-linejoin:round;stroke-width:4.611299991607666px"/><path d="M1286.33,503.15l-150-36.8v9.4l157,50.5s28,5.8,43-.4c1-.3,15-4.8,17-10.5-1-4.8-19-11.3-30-15-51-17.2-204-43.5-204-43.5l1,6,166,40.3Z" style="fill:#f3f3f3;stroke:#000;stroke-linejoin:round;stroke-width:4.611299991607666px"/><path d="M1286.33,474.75l-135-24.7,1,7.8,142,35.9s25,3.7,38-2c1-.3,13-4.7,15-9.5-1-4-18-8.7-27-11.4-46-12.3-185-28.1-185-28.1l2,4.9,149,27.1Z" style="fill:#f3f3f3;stroke:#000;stroke-linejoin:round;stroke-width:4.5px"/><path d="M1279.33,447.25l-132-13.6,1,7,139,23.2s25,1.7,38-4.2c1-.4,12-5.1,13-9.5-1-3.5-18-6.7-27-8.4-45-8.2-180-13.7-180-13.7l2,4.3,146,14.9Z" style="fill:#f3f3f3;stroke:#000;stroke-linejoin:round;stroke-width:4.5px"/><path d="M1266.33,421.55l-132-2.1,1,6.9,141,11s25-.5,37-7.4c1-.5,12-6.1,13-10.6-2-3.4-19-5.2-28-6.1-46-4.2-180,2-180,2l2,4.1Z" style="fill:#f3f3f3;stroke:#000;stroke-linejoin:round;stroke-width:4.5px"/><path d="M1260.33,396.15l-132,8.6,2,6.7,141-.3s25-2.6,36-10.4c1-.6,11-7,12-11.6-2-3.2-19-3.7-28-3.8-46-.5-180,16.5-180,16.5l3,3.9,146-9.6Z" style="fill:#f3f3f3;stroke:#000;stroke-linejoin:round;stroke-width:4.5px"/><path d="M1251.33,371.65l-131,21.3,3,6.5,140-13.9s25-5,35-13.8c1-.7,11-8,11-12.7-2-3-19-1.9-29-1.1-45,4-177,33.7-177,33.7l3,3.6Z" style="fill:#f3f3f3;stroke:#000;stroke-linejoin:round;stroke-width:4.5px"/><path d="M1236.33,348.85l-129,30.2,3,6.3,140-23.4s24-6.7,33-16.1c2-.8,10-8.7,10-13.4-2-2.9-19-.7-28,.8-46,7.1-175,45.6-175,45.6l3,3.4Z" style="fill:#f3f3f3;stroke:#000;stroke-linejoin:round;stroke-width:4.5px"/><path d="M1221.33,328.75l-126,43.1,4,5.9,136-37.2s23-9.1,32-19.5c1-.8,9-9.6,8-14.3-2-2.6-19,1.3-28,3.6-44,11.7-169,62.9-169,62.9l3,3.1Z" style="fill:#f3f3f3;stroke:#000;stroke-linejoin:round;stroke-width:4.5px"/><path d="M1199.33,308.95l-122,54.6,5,5.6,132-49.9s23-11.2,30-22.3c1-1,8-10.5,7-15.1-3-2.3-19,3.1-27,6.3-44,15.8-163,78.4-163,78.4l4,2.8Z" style="fill:#f3f3f3;stroke:#000;stroke-linejoin:round;stroke-width:4.5px"/><path d="M1188.33,287.35l-114,60.2,5,5.1,125-56.5s21-12.2,27-23.3c1-1.1,8-10.6,6-15-3-1.9-18,4.3-26,8-41,17.9-152,85.7-152,85.7l4,2.4Z" style="fill:#f3f3f3;stroke:#000;stroke-linejoin:round;stroke-width:4.341000080108643px"/><path d="M1170.33,273l-110,66.2,5,4.8,122-63.1s20-13.3,26-24.7c0-1.1,6-11,5-15.3-4-1.7-18,5.3-26,9.4-40,20.1-147,93.7-147,93.7l3,2.2Z" style="fill:#f3f3f3;stroke:#000;stroke-linejoin:round;stroke-width:4.341000080108643px"/><path d="M1151.33,261.75l-98,62.7,5,4.1,108-60.2s18-12.5,23-22.9c1-1,6-10.1,4-13.8-3-1.5-16,5.2-23,9.2-35,19.2-130,88.3-130,88.3l3,1.8Z" style="fill:#f3f3f3;stroke:#000;stroke-linejoin:round;stroke-width:4.5px"/><path d="M1136.33,251.85l-78,55.1,4,3.2,87-53.5s14-11,17-19.6c1-.8,5-8.5,3-11.4-2-1.1-13,4.9-18,8.4-29,17.1-104,77.3-104,77.3l3,1.3,86-60.8Z" style="fill:#f3f3f3;stroke:#000;stroke-linejoin:round;stroke-width:4px"/><path d="M1118.33,246.95l-68,55.6,4,2.5,75-54.8s13-10.9,15-18.9c1-.9,4-8,2-10.6-2-.8-11,5.4-16,9-25,17.5-90,77.5-90,77.5l3,1,75-61.3Z" style="fill:#f3f3f3;stroke:#000;stroke-linejoin:round;stroke-width:4px"/><path d="M1090.33,250.85l-63,61,4,2.2,71-60.9s11-11.9,13-20.1c1-.9,3-8.2,1-10.7-2-.6-11,6.3-16,10.3-23,19.5-83,84.7-83,84.7l3,.8,70-67.3Z" style="fill:#f3f3f3;stroke:#000;stroke-linejoin:round;stroke-width:4px"/><path d="M1079.33,241.25l-45,49,4,1.4,50-49.2s8-9.6,9-15.8c0-.7,2-6.4,0-8.1-2-.4-8,5.3-11,8.5-17,15.8-59,67.8-59,67.8l3,.4,49-54Z" style="fill:#f3f3f3;stroke:#000;stroke-linejoin:round;stroke-width:3.0125999450683594px"/><path d="M1282.33,814.55l-94-122.1-6,7.4,91,137.1s19,22.2,34,26.7c2,.6,15,5.6,20,2.5,2-4.4-8-21-14-30.4-29-45.2-133-161.4-133-161.4l-3,5.5,105,134.7Z" style="fill:#f3f3f3;stroke:#000;stroke-linejoin:round;stroke-width:4.611299991607666px"/><path d="M1256.33,833.35l-81-131.2-7,6.7,77,145.8s16,24.1,31,30.2c1,.8,14,7,20,4.6,2-4.2-6-21.8-11-31.8-24-48-116-174.3-116-174.3l-3,5.2Z" style="fill:#f3f3f3;stroke:#000;stroke-linejoin:round;stroke-width:4.611299991607666px"/><path d="M1230.33,855.25l-67-139-7,6,61,153s13,25.7,27,33.3c1,.9,14,8.4,19,6.6,3-3.9-3-22.3-7-32.7-19-50.3-97-185.5-97-185.5l-4,4.9,75,153.4Z" style="fill:#f3f3f3;stroke:#000;stroke-linejoin:round;stroke-width:4.611299991607666px"/><path d="M1200.33,887.15l-59-152.1-8,5.4,49,166.1s13,28.2,27,37.7c1,1,14,10.2,21,8.8,4-3.6-1-23.6-4-34.7-16-54.4-81-207.3-81-207.3l-10,8.2Z" style="fill:#f3f3f3;stroke:#000;stroke-linejoin:round;stroke-width:4.99370002746582px"/><path d="M1156.33,882.85l-45-156.9-9,4.6,35,170s9,29.2,23,40c1,1.1,13,11.5,20,10.7,4-3.3,0-23.7-1-35-11-55.6-62-213.9-62-213.9l-10,7.3,49,173.2Z" style="fill:#f3f3f3;stroke:#000;stroke-linejoin:round;stroke-width:4.99370002746582px"/><path d="M1118.33,885.65l-22-136.6-8,3,14,146.9s5,25.5,15,35.8c1,1,9,11,14,10.9,4-2.4,3-20,2-29.8-3-47.9-31-186.3-31-186.3l-9,5.2,25,150.9Z" style="fill:#f3f3f3;stroke:#000;stroke-linejoin:round;stroke-width:4.089600086212158px"/><path d="M1091.33,895.55l-14-108.4-7,2.1,6,116.2s4,20.3,12,28.8c1,.8,8,9,13,9,3-1.7,3-15.7,2-23.4-1-37.9-20-147.8-20-147.8l-8,3.8,16,119.7Z" style="fill:#f3f3f3;stroke:#000;stroke-linejoin:round;stroke-width:4px"/><path d="M1064.33,884.95l-10-109-6,1.8V894s3,20.5,11,29.4c0,.8,7,9.3,12,9.6,3-1.6,4-15.6,4-23.3,0-37.9-13-148.6-13-148.6l-9,3.4Z" style="fill:#f3f3f3;stroke:#000;stroke-linejoin:round;stroke-width:4px"/><path d="M1034.33,879.55l1-109.4-7,1.1-10,115.8s0,20.7,7,30.3c1,.8,7,10,11,10.7,4-1.2,6-15.1,6-22.8,5-37.6,2-149.1,2-149.1l-9,2.5Z" style="fill:#f3f3f3;stroke:#000;stroke-linejoin:round;stroke-width:4px"/><path d="M1171.33,734.85l-74-135.2-5,5.2,70,146.1s11,18.8,22,24.2c1,.5,11,6.2,15,4.4,2-3-4-17-7-24.6-16-37.9-98-169.5-98-169.5l-3,3.8,80,145.6Z" style="fill:#ebebeb;stroke:#000;stroke-linejoin:round;stroke-width:3.536900043487549px"/><path d="M1181.33,708.95l-75-113.7-3,5.1,73,123.9s11,15.7,21,19.5c0,.3,9,4.4,13,2.5,1-3-5-14.9-9-21.5-17-32.2-99-141.9-99-141.9l-2,3.7,81,122.4Z" style="fill:#ebebeb;stroke:#000;stroke-linejoin:round;stroke-width:3.088599920272827px"/><path d="M1200.33,695.55l-84-103-3,5.2,82,113.1s12,14.2,22,17c1,.2,10,3.4,13,1.3,1-3-6-14-10-20-20-29.6-108-128.3-108-128.3l-2,3.7Z" style="fill:#ebebeb;stroke:#000;stroke-linejoin:round;stroke-width:3.002700090408325px"/><path d="M1204.33,672.75l-89-93.9-2,5.4,88,103.9s13,12.9,23,14.7c1,.2,10,2.5,12,.2,2-3.1-6-13.2-11-18.9-21-27.2-116-116.3-116-116.3l-1,3.8Z" style="fill:#ebebeb;stroke:#000;stroke-linejoin:round;stroke-width:2.9309000968933105px"/><path d="M1204.33,641.15l-100-82.4-2,5.6,101,92.4s14,11.3,24,11.9c1,.1,10,1.3,13-1.3,0-3.2-9-12.3-14-17.4-24-24.4-129-101.5-129-101.5v3.9Z" style="fill:#ebebeb;stroke:#000;stroke-linejoin:round;stroke-width:2.9309000968933105px"/><path d="M1209.33,619.85l-105-74.6-2,5.8,108,84.4s15,10.1,25,10c0,.1,10,.6,12-2.2,0-3.3-9-11.7-15-16.4-26-22.4-136-91.3-136-91.3v3.9l113,80.4Z" style="fill:#ebebeb;stroke:#000;stroke-linejoin:round;stroke-width:2.9309000968933105px"/><path d="M1214.33,593.95l-113-62.5-1,5.9,116,72.1s16,8.4,26,7.2c1,0,10-.5,12-3.6,0-3.2-10-10.5-16-14.6-29-19.4-146-75.8-146-75.8v3.9l122,67.4Z" style="fill:#ebebeb;stroke:#000;stroke-linejoin:round;stroke-width:2.9309000968933105px"/><path d="M1212.33,564.35l-120-48.4v5.9l124,57.6s17,6.4,27,4c0,.1,10-1.7,11-4.9,0-3.3-11-9.3-18-12.6-31-15.8-153-57.7-153-57.7V512l129,52.3Z" style="fill:#ebebeb;stroke:#000;stroke-linejoin:round;stroke-width:2.9309000968933105px"/><path d="M1209.33,538.85l-124-38.9,1,5.9,128,47.8s17,5.1,27,1.9c0,.1,9-2.4,11-5.8-1-3.2-13-8.3-19-11.1-32-13.4-158-45.6-158-45.6l1,3.7Z" style="fill:#ebebeb;stroke:#000;stroke-linejoin:round;stroke-width:2.9309000968933105px"/><path d="M1201.33,511.25l-128-22.5,1,5.8,134,30.8s17,2.8,27-1.7c0,.1,9-3.6,10-7.1-1-3.1-14-6.7-21-8.6-33-9.1-162-24.7-162-24.7l1,3.6,138,24.4Z" style="fill:#ebebeb;stroke:#000;stroke-linejoin:round;stroke-width:2.9309000968933105px"/><path d="M1205.33,486.15l-130-7.4,2,5.6,136,15s18,.7,27-4.8c0,0,8-4.7,9-8.3-2-2.9-14-5.1-21-6.1-35-5.2-165-5.6-165-5.6l2,3.4,140,8.2Z" style="fill:#ebebeb;stroke:#000;stroke-linejoin:round;stroke-width:2.9309000968933105px"/><path d="M1202.33,466l-129,3.6,2,5.4,136,3.5s18-.9,26-7.1c1,0,9-5.4,9-9.1-1-2.8-14-3.9-21-4.3-34-2.3-164,8.4-164,8.4l2,3.2Z" style="fill:#ebebeb;stroke:#000;stroke-linejoin:round;stroke-width:2.9309000968933105px"/><path d="M1199.33,446.65l-129,15.3,2,5.2,136-8.7s18-2.6,26-9.5c1-.1,9-6.2,9-10-1-2.6-14-2.6-21-2.4-34,.8-164,23.3-164,23.3l2,3,139-16.2Z" style="fill:#ebebeb;stroke:#000;stroke-linejoin:round;stroke-width:2.9309000968933105px"/><path d="M1190.33,425.35l-127,29.5,2,5,134-23.8s18-4.5,26-12.4c0-.1,8-7.1,8-10.9-2-2.4-14-1.1-21-.1-34,4.6-161,41.4-161,41.4l2,2.8Z" style="fill:#ebebeb;stroke:#000;stroke-linejoin:round;stroke-width:2.9309000968933105px"/><path d="M1181.33,404.45l-124,39.9,3,4.8,131-34.9s18-6,25-14.5c0-.1,7-7.7,7-11.5-2-2.2-15,.1-22,1.7-33,7.4-156,54.6-156,54.6l2,2.6Z" style="fill:#ebebeb;stroke:#000;stroke-linejoin:round;stroke-width:2.9309000968933105px"/><path d="M1178.33,383.95l-120,49.1,3,4.5,128-44.6s17-7.3,23-16.3c1-.1,7-8.2,7-11.9-2-2.1-14,1.1-21,3.2-33,9.9-153,66.2-153,66.2l3,2.4,130-52.6Z" style="fill:#ebebeb;stroke:#000;stroke-linejoin:round;stroke-width:2.9309000968933105px"/><path d="M1167.33,366.45l-116,59.5,4,4.2,124-55.7s16-8.7,22-18.3c0-.1,5-8.7,5-12.3-3-2-14,2.3-21,5-32,12.7-146,79.3-146,79.3l3,2.1,125-63.8Z" style="fill:#ebebeb;stroke:#000;stroke-linejoin:round;stroke-width:2.9309000968933105px"/><path d="M1159.33,346.25l-112,66.5,4,4,120-63.2s16-9.7,21-19.7c0-.1,5-9,4-12.5-2-1.9-13,3.1-20,6.2-31,14.7-141,88.1-141,88.1l3,2Z" style="fill:#ebebeb;stroke:#000;stroke-linejoin:round;stroke-width:2.9309000968933105px"/><path d="M1143.33,330.75l-107,74.2,4,3.7,116-71.5s15-10.7,19-21.1c0-.1,4-9.3,3-12.7-2-1.8-13,4-20,7.6-29,16.8-134,97.7-134,97.7l4,1.8Z" style="fill:#ebebeb;stroke:#000;stroke-linejoin:round;stroke-width:2.9309000968933105px"/><path d="M1128.33,315.85l-100,83,5,3.3,109-81s14-12,17-22.7c1-.1,4-9.6,2-12.9-2-1.6-13,5.1-19,9.2-28,19.3-125,108.7-125,108.7l3,1.6Z" style="fill:#ebebeb;stroke:#000;stroke-linejoin:round;stroke-width:3px"/><path d="M1125.33,297.75l-72,62.1,3,2.4,79-60.6s10-8.9,13-16.9c0-.1,3-7.2,1-9.6-1-1.2-9,3.8-13,6.9-21,14.4-91,81.2-91,81.2l3,1.1Z" style="fill:#ebebeb;stroke:#000;stroke-linejoin:round;stroke-width:3px"/><path d="M1107.33,292.85l-66,68.3,3,2.1,73-67.4s9-9.8,11-18c0-.1,2-7.4,1-9.7-2-1-9,4.6-13,8.1-20,16.2-83,89-83,89l2,.9Z" style="fill:#ebebeb;stroke:#000;stroke-linejoin:round;stroke-width:3px"/><path d="M1090.33,288.45l-60,70.7,4,1.8,66-70.3s9-10.2,10-18.3c0-.1,2-7.3,0-9.4-2-.9-8,5-12,8.7-18,17-75,92-75,92l3,.7,64-75.9Z" style="fill:#ebebeb;stroke:#000;stroke-linejoin:round;stroke-width:3px"/><path d="M1074.33,285.25l-49,72,3,1.4,55-72.2s7-10.3,8-18.1c0-.1,0-7-1-8.9-2-.7-7,5.5-11,9.4-14,17.5-60,93.2-60,93.2l2,.5Z" style="fill:#ebebeb;stroke:#000;stroke-linejoin:round;stroke-width:2.808300018310547px"/><path d="M1061.33,280.85l-45,75,3,1.2,51-75.5s6-10.7,6-18.6c0-.1,1-7-1-8.8-2-.6-7,5.9-10,10-14,18.4-55,96.8-55,96.8l2,.4,49-80.5Z" style="fill:#ebebeb;stroke:#000;stroke-linejoin:round;stroke-width:2.808300018310547px"/><path d="M1052.33,273.65l-34,64.5,2,1,39-65.1s5-9.2,5-15.8c0-.1,0-6-1-7.5-2-.5-6,5.1-8,8.7-11,15.9-42,83.2-42,83.2l2,.2,37-69.2Z" style="fill:#ebebeb;stroke:#000;stroke-linejoin:round;stroke-width:2.315200090408325px"/><path d="M1148.33,749.95l-60-142.1-5,4.6,54,152.5s9,19.9,20,26.4c0,.6,10,7.3,14,5.9,3-2.7-2-17.3-4-25.1-13-39.5-80-178.7-80-178.7l-3,3.4,64,153.1Z" style="fill:#ebebeb;stroke:#000;stroke-linejoin:round;stroke-width:3.536900043487549px"/><path d="M1129.33,764.25l-42-128.1-5,3.7,37,136.8s6,17.8,15,24.3c0,.5,8,7,12,6.1,3-2.2,0-15.2-2-22.1-8-35.3-57-161.5-57-161.5l-3,2.8,45,138Z" style="fill:#ebebeb;stroke:#000;stroke-linejoin:round;stroke-width:3px"/><path d="M1107.33,789.75l-25-132.4-5,3,18,140.4s4,18.5,13,26.1c0,.5,7,7.9,11,7.6,2-1.9,1-15.2,1-22.2-4-36.1-36-167.5-36-167.5l-4,2.4,27,142.6Z" style="fill:#ebebeb;stroke:#000;stroke-linejoin:round;stroke-width:3px"/><path d="M1075.33,786.95l1-134.8-6,2-9,141.3s0,19,7,28c0,.5,5,9.1,9,9.6,3-1.4,5-14.6,6-21.6,3-36.2-3-171.3-3-171.3l-4,1.6Z" style="fill:#ebebeb;stroke:#000;stroke-linejoin:round;stroke-width:3px"/><path d="M1051.33,787.65l11-134.3-6,1.5-19,140.3s-1,18.9,5,28.4c0,.5,4,9.5,8,10.3,3-1.2,6-14.2,7-21.1,6-35.9,10-171.1,10-171.1l-4,1.4Z" style="fill:#ebebeb;stroke:#000;stroke-linejoin:round;stroke-width:3px"/><path d="M1029.33,786l11-96.6-6,1.1-19,100.9s-1,13.6,5,20.4c0,.4,5,6.9,8,7.4,3-.8,6-10.2,7-15.1,6-25.9,10-123.1,10-123.1l-4,1-12,104Z" style="fill:#ebebeb;stroke:#000;stroke-linejoin:round;stroke-width:3px"/><path d="M793.23,1579.55l24.8-494m-88.4,447.6,76.4-463.2m-130.8,433.2L792,1057.95m-163.6,382.8,145.5-397.2m-193.1,352.4,162-344m67.2,24.8-51.6,515.6c-8.4,43.4,39.2,58.4,66,31.4v-541m-25.2-16-105.2,482c-7.6,37.2,30.4,62.4,57.2,35.2l59.6-501.2m-26.8-32.8-142.4,449.6c-3.6,46.4,12,56.8,47.2,48.4l110.8-483.6m-40.8-14.4-165.6,404c-1.6,30.8,6,56,44.8,43.6l146-446m-56,1.2-185.2,353.6c-1.6,30.8,10.4,56,49.2,43.6l161.2-387.2" style="fill:#fff;stroke:#000;stroke-width:6px"/><path d="M862,1579.55l-24.8-494m88.4,447.6-76.4-463.2M980,1503.15l-116.8-445.2m163.6,382.8-145.5-397.2m193.1,352.4-162-344m-67.2,24.8,51.6,515.6c8.4,43.4-39.2,58.4-66,31.4v-541m25.2-16,105.2,482c7.6,37.2-30.4,62.4-57.2,35.2l-59.6-501.2m26.8-32.8,142.4,449.6c3.6,46.4-12,56.8-47.2,48.4l-110.8-483.6m40.8-14.4,165.6,404c1.6,30.8-6,56-44.8,43.6l-146-446m56,1.2,185.2,353.6c1.6,30.8-10.4,56-49.2,43.6L902,1062.75" style="fill:#fff;stroke:#000;stroke-width:6px"/><path d="M512.73,1025,769,1035l-32,40,46.3-13,85.8-3,47.2,12-24.1-42,253.1-24-5-64.7s-28-65.3-76-66.1-405.4-33.5-405.4-33.5-64.4,32.6-77.2,35.2-61,27.5-63.5,71.2l-5.5,77.9Z" style="fill:#e2b20f;stroke:#000;stroke-width:11px"/><path d="M622.53,971.75l19.4-12.7-40-14,52.8-12.1h-22.5l-12.7-9.1,3-18.2,40.6,5.4,18.2-25.5-13.9-10.3,15.2-13.9,5.4,16.3,21.3,24.9-18.9,19.4L671,903.15l-3,8.5,23.7,10.9-17.6,12.2-3.7,6.1-34,1.2,35.2-2.5,10.4,9.1,29.1-.6,1.2,12.2-29.1-4.3-15.8,7.3-44.9,8.5Z" style="fill:none;stroke:#000;stroke-width:3px"/><path d="M610.63,721.65c-123.6-130.4-116.7-327.9,8.6-427.4l50.4-.8m369.7,429.1c123-130.4,117-327.9-9-427.4l-35.9-1.7" style="fill:#f9f9f9;stroke:#000;stroke-width:9px"/><path d="M1087.33,484.85c-1-.7-48-83.6-48-83.6l15-6.3,2-6.1-23-9.1,21-4.8-37-13.2,27-2.2-30-10.3,23-.3-22-11.4,13-.2-15-10.8,9-5.6-26.4-11.7,19.4-1.2-28.5-16.3-16,1s20.5,28.4,15.1,40l-32.7-26.4c6.8,8,33.5,46.2,33.5,46.2s-23.9-27.3-39.5-35.3c8,15.5,13.6,34,23.6,48-14.4-7.5-21.6-22-35.6-30,8.8,15,19.2,35,30.8,47.5-14.8-6.5-26.8-23-38.4-34a116.1,116.1,0,0,0,22,50.4c-20-5.4-22.4-29.4-34-44.9,4,20.5,7.6,46.5,18,64.9-14-12.8-18-35.4-28.4-50.9,0,22.5,1.2,38.9,10.4,58.5-10.8-14-22.4-42.6-24.4-59.2,3.6,15.5,5.6,49.2,15.6,64.8-14-15.2-26.4-33.8-31.2-53.4-4.8,24.6,8.4,47.4,14.4,71a352.92,352.92,0,0,1-22.4-59.2c-2,14,.8,34.8.8,34.8,3,7,39.4,69.3,70.6,100.5l24.1,55.2c15.9,28.3,17.3,168,13.9,208.1l41.3,40.1c-11-51.7,33-128.7,42-140.1l-8-12.5,13,3.7-5-14,16,2.8-16-21.6,22,10-16-23.2,22,12-14-27.2,21,17.2-19-36,23,14-22-34.8,25,13.6s-18-24.8-26-38c7,5.2,22,15.2,22,15.2s-19-26-23-41.6c9,8.4,17,17.6,25,26-8-14.4-24-44.4-24-44.4l20,16.4s-8-18.1-15-30.1c7,6.4,10,6.9,17,12.9-4-14.4-10-24.2-11-24.9Zm-48-83.6c-42.5,41.5-85.9,80.7-100.3,124.8m65.3,277s7,.6,7-2.1-6-4.3-6-7.1,5-3.1,5-3.1-5,.3-5,3.1,6,4.4,6,7.1S1004.33,803,1004.33,803ZM756,442.65v10.1l5.6-9.3L756,453l7.3,7.5-7.3-7.3v7m-132.5-114.4,21.9-8.7-17.5-2.9,27-7-16.5-3.5,28.4-9-19.1-2,29.7-9.2,3.4-4-13.2,37.4c14.4-11.6,28.8-23.6,46.4-30.6-10,14.6-22.8,27-33.6,40.5,14.8-6.9,29.6-14.9,44.4-22.9-9.6,15-20.8,28.1-33.2,40.9,14.8-6.4,28-16,40.4-25.9-5.2,17.9-18,31.1-30,43.9,20-4,30-22.8,39.6-38.4-1.6,20-12,36.8-20.8,54.4,12.4-11.6,21.2-25.6,33.2-37.6-2.4,16.8-8.8,31.2-14.4,46.7,8.4-10.7,15.2-21.5,23.2-31.9-3.6,16.4-8,32.3-11.2,48.7,11.2-16.4,21.2-34.3,22-54.3,1.2,0,3.2.4,4.4.4,2,23.2-2.8,46.3-10,67.9,7.6-14,16-28.8,18-44.7,7.2,5.2,8.6,22.5,8.6,22.5-15.9,35.7-60.2,93.4-79.5,116.2-17.1,29.7-18.9,40.1-24,56.5-9.8,24.8-13.9,152.1-10.4,192.2l-39.9,38.1c10.2-51.7-25.6-95-34-106.4l7.7-10.9-13.8,1.5,7.7-13.7-17.6,3.1,16.9-20.7-23.3,9.1,16-23.2-22,12,14-27.2-20.8,17.2,18.8-36-23.2,14,22.4-34.8s-16.8,9.6-24.8,13.6c8.4-12.4,18-24.8,26-38-7.6,5.2-22,15.2-22,15.2s18.8-26,22.4-41.6c-8.4,8.4-16.8,17.6-24.8,26,8-14.4,16.8-29.2,24.4-44.4l-20.4,16.4,19.2-35.6-21.2,18.4,15.6-29.2-14.4,9.2,22-35.8-18.9,14.2,16.7-27,9.3-45.4-5-.5,9.9-7.9-15.7-1.3,24.2-14-16.4,1.4,36.7-42.2,3.8-6.1-12.7-3.1Z" style="stroke:#000"/><path d="M1176.33,330.65c-4,12.7-88,154.5-180.6,218.9-11.9,2.2-27.7-10.9-28.3-11.4s-10.6-25.1-8.8-32.1C1025.33,411.85,1163.33,334.55,1176.33,330.65Z" style="fill:#f4f4f4;stroke:#fff;stroke-linecap:round;stroke-linejoin:round;stroke-width:27px"/><path d="M1035.33,971.75l-19-12.7,40-14-53-12.1h23l12-9.1-3-18.2L995,911l-18.2-25.5,12.2-6.1-15.2-13.9-1.9,13.3-23,23.7,18.8,19.4,19.4-18.8,3.1,8.5-23.7,10.9,17.6,12.2,3.6,6.1,33.6,1.2-34.8-2.5-10.3,9.1-29.1-.6-1.2,12.2,29.1-4.3,15.8,7.3,44.5,8.5Z" style="fill:none;stroke:#000;stroke-width:3px"/><path d="M968.76,534.45,571.93,926.15" style="fill:none;stroke:#fff;stroke-miterlimit:3.799999952316284;stroke-width:55px"/><path d="M958,534.45,969.24,546,582.63,929.95l-11.2-11.5L958,534.35Z" style="fill:#debf40;stroke:#000;stroke-width:8px"/><ellipse cx="780.93" cy="54.32" rx="20.68" ry="16.13" style="fill:#c5bea1"/><path d="M540.83,317.95c-24.8,2.7-55.2,7.6-71.2,28.4-26.4,50.4-16.8,120.8,33.2,153.2,19.6,3.2,12.4-26.4,24-37.2,7.2-14,21.2-20,34.8-25.2-42-86.6-17.2-28.4,22.8-26.4.8,0-2.4-14.8,12.8-19,12.8-12.2,37.2-8.9,46-22.6-18-32.9-64.8-53.2-102.4-51.2Z" style="fill:#fff;stroke:#fff;stroke-linecap:round;stroke-linejoin:round;stroke-width:6.800000190734863px"/><ellipse cx="774.62" cy="55.13" rx="12.09" ry="10.5" style="fill:#e59c03;stroke:#715500;stroke-linecap:round;stroke-linejoin:round;stroke-width:0.6000000238418579px"/><path d="M809.23,131.15s19.2,26.3,20.8,49.1c1.2,22.8-1.2,64.5-1.2,64.5" style="fill:none;stroke:#000;stroke-width:4px"/><path d="M821.23,123.25c0,1.9,18.8,30.7,23.2,61.9s6.4,86.8,6.4,86.8" style="fill:none;stroke:#000;stroke-width:4px"/><path d="M833.23,83.58s23.6,4,33.2,64c10,60,12.4,105.1,12.4,105.1" style="fill:none;stroke:#000;stroke-width:4px"/><path d="M828.83,62.28s24.4,11.4,47.2,63.87,24.8,106.6,24.8,106.6" style="fill:none;stroke:#000;stroke-width:4px"/><path d="M679.43,46.48S734.53-.82,781.73.58c52.1,1.5,104.3,50.5,120.1,97.4,14.4,28.07,35,70.47,57.7,135.77,11.5,32.9,41.8,58,41.8,58l34-3.7,14-17.4-10,26.6-67.5-2.2A248.43,248.43,0,0,1,948,244c-10.2-30.4-54.5-150.87-54.5-150.87-8.4-15.9-32-51.7-72.7-75.5C793.63,4.68,755-5.72,679.43,46.48Z" style="stroke:#000"/><path d="M781.63,96.38,764,75.58a176.58,176.58,0,0,0-43.5-12.14c-12.6-18-27-24.16-39.7-23-33.4,14.89-54.5,37.57-53.6,52.78,0,0-2.8,18.57,8.4,34l14-21.7,18.4,11.9,113.6-21Z" style="fill:#eac930"/><circle cx="770.93" cy="53.5" r="9.42" style="fill:url(#a)"/><path d="M526.83,389.65l29.6,41.5c-21.2,2-42.8,27.6-47.2,60.4-79.2-57.6-28.8-146.7-28.8-146.7s83.2-57.5,157.2,23.1c-19.2,2.8-56,15.4-65.2,42l-8-1.4" style="fill:#949494;stroke:#000;stroke-linecap:round;stroke-linejoin:round;stroke-width:6.800000190734863px"/><path d="M507.23,349.75c29.6-31.2,86.4-13.8,97.2,10.5-20.8-11.9-67.6-19.7-97.2-10.5Z" style="fill:#f4f4f4"/><path d="M790,27.68c-19.2.9-36.4,10.4-49.2,23.5m148,75.77c-8-23.9-24.4-45.37-41.2-63.87A206.73,206.73,0,0,0,804,30.48" style="fill:none;stroke:#000;stroke-width:4px"/><path d="M721.23,36.78S756.43,15.38,776,15c25.2-.6,50,11,71.2,24.8,8,5.3,19.6,21.3,19.6,21.3" style="fill:none;stroke:#000;stroke-width:4px"/><path d="M779.63,97.17c-37.2,4.08-92.4,14-112.4,19.68l-16-10.7" style="fill:none;stroke:#000;stroke-width:4px"/><path d="M646.43,86.38s10-19.65,19.6-25.8,30.1-14.67,30.1-14.67l2,.92c-2.9,0-17.6,6.28-17.6,6.28" style="fill:none;stroke:#403000;stroke-width:2.799999952316284px"/><path d="M718.83,108.75c24.4,16.4,32.4,47.6,32.4,75.6" style="fill:none;stroke:#000;stroke-width:4px"/><path d="M670,310.95l-7.2-16.2c26.8-28.2,55.2-69.1,67.6-124.5-2-21.7-2.4-27.7-33.2-59.2,76.4,30.9,23.2,167.6-27.2,199.9Z" style="stroke:#000;stroke-width:4px"/><path d="M670,90.08l99.2-7" style="fill:none;stroke:#5e3c00;stroke-width:2px"/><path d="M686,66.18,682,66l-.1,2.53Z" style="fill:none;stroke:#000;stroke-linejoin:round;stroke-width:2.799999952316284px"/><path d="M696.93,88.81s21.6,1.73,32.4,3.52c10.2,1.71,28.2,5.53,28.2,5.53" style="fill:none;stroke:#462e00;stroke-width:2px"/><path d="M779.23,97.08A80.41,80.41,0,0,0,763,74.58c-11.8-3.19-39.8-11.2-39.8-11.2" style="fill:none;stroke:#000;stroke-width:1.600000023841858px"/><path d="M372.33,1239s-71.1,13-77.2,22c0,0,51,8,53.4,26,2.5,19-65.7-12-90.1-9s-70,22-77.3,41,11.6-60,88.9-95c-15.2-24-89.5-21-89.5-21s41.5-42,110.3-36l1.1,93,.3-107,160.6-12,55.8,19c22.6,17,39.6,41,37.8,53s-175.3,25-174.1,26Z" style="stroke:#000;stroke-width:4px;fill:url(#b)"/><path d="M1320.33,1286v-45l72,16Z" style="stroke:#000;stroke-width:4px"/><path d="M1298.33,1238s72,14,78,23c0,0-51,7-54,26-2,19,66-12,90-9,25,3,70,22,78,41,7,18-12-61-89-96,15-23,89-21,89-21s-41-42-110-36l-1,94V1152l-161-12-56,20c-22,17-39,40-38,53C1126.33,1225,1300.33,1238,1298.33,1238Z" style="stroke:#000;stroke-width:4px;fill:url(#c)"/><path d="M436.53,1441.35c32.3,3.8,45.1-57.2,57.6-96.8l-115.6,20.2C384.83,1410.35,420.73,1439.45,436.53,1441.35Z" style="stroke:#000"/><path d="M448.83,1373.65c12.3,19.2,13.2,42.9,1.9,53.2s-30.3,3-42.7-16.1-30.3-55.6-19-65.8,47.4,9.6,59.8,28.7Z" style="fill:#fecf39"/><path d="M1234.53,1441.35c-32.3,3.8-45.1-57.2-57.6-96.8l115.6,20.2C1286.23,1410.35,1250.33,1439.45,1234.53,1441.35Z" style="stroke:#000"/><path d="M1222.23,1373.65c-12.3,19.2-13.2,42.9-1.9,53.2s30.3,3,42.7-16.1,30.3-55.6,19-65.8-47.4,9.6-59.8,28.7Z" style="fill:#fecf39"/><path d="M602,1079s20.66,29.2-3.45,51.6-109.67,26.2-145.87,46.9-53.9,37.5-53.9,37.5l15.5,10.3-13.3,11.2-15.9-6v-31s-10.4,13.8-20.7,8.6-18.9-18.9-32.7-31-18.9-12-18.9-12c7.1-9.8,16.8-20.8,8.6-32.8v-5.1s12,0,17.2-10.4-.1-12.4-.1-12.4,8.2-7.9,20-8.7a17.84,17.84,0,0,1,18,10.8s15,29.7,32.2,31.4,34-6.4,34-6.4Z" style="fill:#fdc238;stroke:#000;stroke-width:9px"/><path d="M374.23,1184l-46.1-54.7" style="fill:none;stroke:#000;stroke-width:3px"/><path d="M379.83,1173.75l-34.9-59.9" style="fill:none;stroke:#000;stroke-width:3px"/><path d="M440.53,1147s-1.5,5.8-.9,8.6c.6,2.6,4.3,6.9,4.3,6.9" style="fill:none;stroke:#000;stroke-width:3px"/><path d="M421.63,1151.75s-1.5,5.8-.9,8.6c.6,2.6,4.3,6.9,4.3,6.9" style="fill:none;stroke:#000;stroke-width:3px"/><path d="M328,1164.45s5.2-3,6.8-5.3,2-7.9,2-7.9" style="fill:none;stroke:#000;stroke-width:3px"/><path d="M337.93,1173s5.2-3,6.8-5.3,2-7.9,2-7.9" style="fill:none;stroke:#000;stroke-width:3px"/><path d="M350.43,1183.35s5.2-3,6.8-5.3,2-7.9,2-7.9" style="fill:none;stroke:#000;stroke-width:3px"/><path d="M362.53,1129.15s5.2-3,6.8-5.3,2-7.9,2-7.9" style="fill:none;stroke:#000;stroke-width:3px"/><path d="M368.53,1139.45s5.2-3,6.8-5.3,2-7.9,2-7.9" style="fill:none;stroke:#000;stroke-width:3px"/><path d="M325.93,1128.25s5.2-3,6.8-5.3,2-7.9,2-7.9" style="fill:none;stroke:#000;stroke-width:3px"/><path d="M338.43,1137.75s5.2-3,6.8-5.3,2-7.9,2-7.9" style="fill:none;stroke:#000;stroke-width:3px"/><path d="M346.63,1149.35s5.2-3,6.8-5.3,2-7.9,2-7.9" style="fill:none;stroke:#000;stroke-width:3px"/><path d="M576.74,1117.95s9.42-6.3,11.49-11.2c2.23-5.3-.1-17.2-.1-17.2" style="fill:none;stroke:#000;stroke-width:5px"/><path d="M323.33,1124c3-1,13-4,15-14,0,0-13-16-28-16-16,1-19,28-19,28s7-11,16-11C315.33,1111,323.33,1124,323.33,1124Z" style="fill:#141414;stroke:#000"/><path d="M315.33,1156a16.36,16.36,0,0,0,10-15s-15-11-28-7c-14,4-10,28-10,28s3-11,11-13S315.33,1156,315.33,1156Z" style="fill:#141414;stroke:#000;stroke-width:0.886900007724762px"/><path d="M470.13,1162l-59.6-76c84.2-78,214.6-131.8,351.3-124.8l-1.4,89.8c-135.3-5-236.3,60-290.3,111Z" style="fill:#fff;stroke:#000;stroke-width:9px"/><path d="M557.33,911.85l29.7,32.8L465,1050l-14.9-9,107.2-129.2Z" style="fill:#1d1d1d;stroke:#fff;stroke-linejoin:round;stroke-width:17px"/><path d="M1058.71,1079s-20.66,29.2,3.45,51.6,109.67,26.2,145.87,46.9,53.9,37.5,53.9,37.5l-15.5,10.3,13.3,11.2,15.9-6v-31s10.4,13.8,20.7,8.6,18.9-18.9,32.7-31,18.9-12,18.9-12c-7.1-9.8-16.8-20.8-8.6-32.8v-5.1s-12,0-17.2-10.4.1-12.4.1-12.4-8.2-7.9-20-8.7a17.84,17.84,0,0,0-18,10.8s-15,29.7-32.2,31.4-34-6.4-34-6.4Z" style="fill:#fdc238;stroke:#000;stroke-width:9px"/><path d="M1286.43,1184l46.1-54.7" style="fill:none;stroke:#000;stroke-width:3px"/><path d="M1280.83,1173.75l34.9-59.9" style="fill:none;stroke:#000;stroke-width:3px"/><path d="M1220.13,1147s1.5,5.8.9,8.6c-.6,2.6-4.3,6.9-4.3,6.9" style="fill:none;stroke:#000;stroke-width:3px"/><path d="M1239,1151.75s1.5,5.8.9,8.6c-.6,2.6-4.3,6.9-4.3,6.9" style="fill:none;stroke:#000;stroke-width:3px"/><path d="M1332.63,1164.45s-5.2-3-6.8-5.3-2-7.9-2-7.9" style="fill:none;stroke:#000;stroke-width:3px"/><path d="M1322.73,1173s-5.2-3-6.8-5.3-2-7.9-2-7.9" style="fill:none;stroke:#000;stroke-width:3px"/><path d="M1310.23,1183.35s-5.2-3-6.8-5.3-2-7.9-2-7.9" style="fill:none;stroke:#000;stroke-width:3px"/><path d="M1298.13,1129.15s-5.2-3-6.8-5.3-2-7.9-2-7.9" style="fill:none;stroke:#000;stroke-width:3px"/><path d="M1292.13,1139.45s-5.2-3-6.8-5.3-2-7.9-2-7.9" style="fill:none;stroke:#000;stroke-width:3px"/><path d="M1334.73,1128.25s-5.2-3-6.8-5.3-2-7.9-2-7.9" style="fill:none;stroke:#000;stroke-width:3px"/><path d="M1322.23,1137.75s-5.2-3-6.8-5.3-2-7.9-2-7.9" style="fill:none;stroke:#000;stroke-width:3px"/><path d="M1314,1149.35s-5.2-3-6.8-5.3-2-7.9-2-7.9" style="fill:none;stroke:#000;stroke-width:3px"/><path d="M1083.92,1117.95s-9.42-6.3-11.49-11.2c-2.23-5.3.1-17.2.1-17.2" style="fill:none;stroke:#000;stroke-width:5px"/><path d="M1337.33,1124c-3-1-13-4-15-14,0,0,13-16,28-16,16,1,19,28,19,28s-7-11-16-11C1345.33,1111,1337.33,1124,1337.33,1124Z" style="fill:#141414;stroke:#000"/><path d="M1345.33,1156a16.36,16.36,0,0,1-10-15s15-11,28-7c14,4,10,28,10,28s-3-11-11-13S1345.33,1156,1345.33,1156Z" style="fill:#141414;stroke:#000;stroke-width:0.886900007724762px"/><path d="M561.06,419.15l680.37,667.6" style="fill:none;stroke:#fff;stroke-miterlimit:3.799999952316284;stroke-width:55px"/><path d="M555.52,425l680.21,667.5,11.2-11.5L566.8,413.35" style="fill:#debf40;stroke:#000;stroke-width:8px"/><path d="M1192.33,1161l60-76c-84-77-215-131.5-351.6-124.5l1.4,89.5C1037.33,1045,1138.33,1111,1192.33,1161Z" style="fill:#fff;stroke:#000;stroke-width:9px"/><path d="M850.63,44.88s24.4,11.4,47.2,63.87S938,212.35,938,212.35" style="fill:none;stroke:#000;stroke-width:4px"/><path d="M555.69,916.91c5.19-4.88,15.66-2.65,23.39,5s9.77,17.78,4.58,22.67-15.66,2.65-23.39-5S550.49,921.8,555.69,916.91Z" style="fill:#9d9d9d;stroke:#000;stroke-linecap:round;stroke-linejoin:round;stroke-width:2.180299997329712px"/><path d="M994.11,547.12c-11.86,2.21-26.76-8.29-26.76-8.29l207.56-207.94C1170.95,343.57,1086.69,482.7,994.11,547.12Z" style="fill:#949494;stroke:#000;stroke-linecap:round;stroke-linejoin:round;stroke-width:7.086599826812744px"/><path d="M957,510.68c-1.87,6.94,9.22,27.17,9.22,27.17L1173.7,330.41c-12.73,3.94-150,86-216.69,180.27Z" style="fill:#f4f4f4;stroke:#000;stroke-linecap:round;stroke-linejoin:round;stroke-width:7.086599826812744px"/><path d="M740.43,68.71l-22.6-4.9s-39.5,17.61-52.6,25.47c-14.8,8.9-28,37.67-28,37.67s-15.6-25.8-8.8-42.57,48-50.1,64.8-43.1,30,23.09,30,23.09" style="fill:none;stroke:#000;stroke-width:3.200000047683716px"/><path d="M364.73,1248c206.5-43,688.6-65,943.6-1l-27,138c-261-83-689.7-56-899,3l-17.6-140Z" style="fill:#ffc536;stroke:#000;stroke-linecap:round;stroke-linejoin:round;stroke-width:10px"/><path d="M413.33,1345c227-37,594-35,838,2" style="fill:none;stroke:#ffc435"/><path d="M473.33,1136c68-64,158.3-99,257.2-100" style="fill:none;stroke:#fff"/><path d="M612.53,1147c167,63,331.8,38,436.8-1" style="fill:none;stroke:#fff"/><path d="M828.83,1108.78c69.5-135.5,140.5-118,140.5-375.5,0-257-45.5-150-140.5-375.1-95,225.1-140.5,118.1-140.5,375.1C688.33,990.78,759.33,973.28,828.83,1108.78Z" style="fill:#f6c82b;stroke:#000;stroke-width:4px"/><path d="M829.13,1108.78c69.5-135.5,140.5-118,140.5-375.5,0-257-45.5-150-140.5-375.1-95,225.1-140.5,118.1-140.5,375.1C688.63,990.78,759.63,973.28,829.13,1108.78Z" style="fill:#f6c82b;stroke:#fff;stroke-width:3px"/><path d="M829.13,1108.78c69.5-135.5,140.5-118,140.5-375.5,0-257-45.5-150-140.5-375.1-95,225.1-140.5,118.1-140.5,375.1C688.63,990.78,759.63,973.28,829.13,1108.78Z" style="fill:#f6c82b;stroke:#000;stroke-width:0.3402000069618225px"/><ellipse cx="830.56" cy="499.68" rx="14.35" ry="24.71"/><ellipse cx="830.52" cy="945.75" rx="15.33" ry="26.39"/><path d="M830,1110V787.95" style="fill:none;stroke:#000;stroke-width:6.400000095367432px"/><ellipse cx="829.93" cy="295.05" rx="10.52" ry="25.25" style="stroke:#000;stroke-linecap:round;stroke-linejoin:round;fill:url(#d)"/><path d="M828.93,640.45V318.35" style="fill:none;stroke:#000;stroke-width:6.400000095367432px"/><ellipse cx="829.02" cy="714.58" rx="45.4" ry="79.67" style="fill:#010305"/><path d="M832.23,315.15v161.2l1.6.4c2,.4,4.4,3.2,5.6,7.6a48.11,48.11,0,0,1,2.4,16,47.32,47.32,0,0,1-2.4,15.6c-1.2,4.4-3.4,6.4-5.6,7.6l-1.6.4v398.8l1.6.4c2,.4,4,3.2,5.6,7.2a41,41,0,0,1,2.4,14.8,54.56,54.56,0,0,1-2.4,14.8c-1.6,4-3.6,6.4-5.6,6.8l-1.6.4V1109h4V969.55a13.26,13.26,0,0,0,6.8-8.4,51.61,51.61,0,0,0,2.8-16,42.8,42.8,0,0,0-2.8-16.4,13.26,13.26,0,0,0-6.8-8.4v-394c3.2-1.6,5.6-4.8,7.2-9.2a55,55,0,0,0,2.4-16.8,55.82,55.82,0,0,0-2.4-17.2c-1.6-4.4-4-7.6-7.2-9.2V315.15Z" style="fill:#fff;stroke:#000;stroke-width:1.399999976158142px"/><path d="M826.83,315.15v161.2l-1.6.4c-2,.4-4.4,3.2-5.6,7.6a48.11,48.11,0,0,0-2.4,16,47.32,47.32,0,0,0,2.4,15.6c1,3,4.2,6.1,7.2,8v398.8l-1.6.4c-2,.4-4,3.2-5.6,7.2a41,41,0,0,0-2.4,14.8,54.56,54.56,0,0,0,2.4,14.8c1.6,4,3.6,6.4,5.6,6.8l1.6.4V1109h-4V969.55a13.26,13.26,0,0,1-6.8-8.4,51.61,51.61,0,0,1-2.8-16,42.8,42.8,0,0,1,2.8-16.4,13.26,13.26,0,0,1,6.8-8.4v-394c-3.2-1.6-5.6-4.8-7.2-9.2a55,55,0,0,1-2.4-16.8,55.82,55.82,0,0,1,2.4-17.2c1.6-4.4,4-7.6,7.2-9.2V315.15h4Z" style="fill:#fff;stroke:#000;stroke-width:1.399999976158142px"/><ellipse cx="829.58" cy="714.72" rx="40.19" ry="70.53" style="fill:#fff"/><ellipse cx="829.39" cy="715.13" rx="35.33" ry="65.28"/><ellipse cx="829.46" cy="715.12" rx="28.8" ry="56.16" style="fill:#f6c82b"/><ellipse cx="829.41" cy="715.16" rx="18.88" ry="38.99"/><path d="M615.83,1064l-9.2,98c106.9,41,325.9,52,450.7-5l-7-88C927.33,1139,695.83,1115,615.83,1064Z" style="fill:#fff;stroke:#000;stroke-width:9px"/><path d="M1042.33,1056l22,8-3,9c-3-1-20-7-22-8Z" style="fill:#fff"/><path d="M623.43,1051l-22,8,4.2,13c3.3-1,20-7,22.3-8Z" style="fill:#fff"/><path d="M465.33,1083.25c-3-3.8-3-4.9,1-8.8l-1-1-15,12.9,1,1c5-3.4,6-3.3,9,.5l21,24.2c2,2.3,2,4,1,5.1-1,.7-1,.5-3-.5-2-1.3-4-1.5-5-.3a4.21,4.21,0,0,0,0,4.8c2,2.2,5,1.9,8-.7,6-4.9,6-11.4,0-17.9l-17-19.3"/><path d="M510.33,1053.25c-4-5.8-4-7.1,1-10.9l-1-1.1-13,9.1v1.1c5-2.7,7-2.1,11,3.6l10,15.3c3,3.8,4,6.3,4,8.6,1,3.8-2,8-6,11-4,2.8-8,3.3-11,1.7-2-1.1-4-2.9-7-6.5l-12-18.1c-3-4.1-3-5.2,1-8.7v-1.1l-16,11.1v1.1c5-2.7,6-2.5,9,1.6l12,17.7c7,9.8,15,11.3,25,4.6,6-4.3,9-9.2,8-14.6,0-3.3-1-6.3-4-10.7l-11-14.8"/><path d="M543.33,1022.75l-1,.7c0,1.5,0,2.5-1,3.1a16.28,16.28,0,0,1-3,.7c-3,.3-6,1-7,2a11.12,11.12,0,0,0-6,6.6c-2,3-1,6.2,0,9.3,3,4.9,7,7,16,7,6,.1,10,.9,13,2.5a8.92,8.92,0,0,1,3,3.1c2,4.1,0,8.5-4,10.8-6,2.8-11,1.5-18-4.4l-2,.7,9,12,1-.7c0-1.2,0-2.4,1-2.9,1-.3,2-.6,3-.8a20.37,20.37,0,0,0,8-2.3c7-3.7,10-11.4,7-17.7-3-5-8-7.2-19-7.4-8-.2-12-1.5-14-4.9a7.28,7.28,0,0,1,4-9,11.32,11.32,0,0,1,9-.5c3,1,5,2.2,8,5.3l1-.8-8-12.4"/><path d="M572.33,1014.45l13,32.2c2,5.5,1,6.5-4,8.8v1.3l19-7.2v-1.2c-6,1.8-7,1.3-9-3.5l-12-32.9,3-1.3c8-2.8,10-2.2,14,4.3l1-.6-4-10.8-37,13.8,4,11.1,2-.6c-1-7.6,0-9.4,7-12.1l3-1.3"/><path d="M616.33,1036.75c2,5,1,6-4,7.8v1.2l20-5.4-1-1.3c-5,1.3-7,.7-8-4.2l-8-29.5c-1-4.9-1-6,5-7.8l-1-1.2-19,5.4v1.3c6-1.3,7-.7,8,4.2l8,29.5"/><path d="M669.33,1001.55l-3-15.3-1,.3c0,1.5-1,2.5-3,2.7a9.71,9.71,0,0,1-3-.1,30.51,30.51,0,0,0-10,.1c-5,1-11,4.1-14,8.5a21.58,21.58,0,0,0-4,19.3c1,6.4,4,11.8,8,15.1a23.6,23.6,0,0,0,18,4c8-1.3,14-5.7,17-11.9l-1-1c-4,5.7-8,8.5-14,9.5a17.77,17.77,0,0,1-12-2c-4-2.6-7-8.4-9-15.9-2-12.3,3-21.4,13-23.1a14.39,14.39,0,0,1,11,2.3,22.31,22.31,0,0,1,6,7.7l1-.2"/><path d="M718.33,1017.65l-2,.1c-3,7.7-5,9.5-15,10.1l-2,.1c-3,.2-6,0-7-.5v-2.1l-1-17,10-.6c6-.3,7,.5,8,6.2l2-.1-1-16-2,.1c0,2.8,0,3.9-1,4.9q-1.5,1.8-6,2.1l-11,.6-1-15.3c0-1.9,1-2.4,3-2.5l9-.5c8-.5,9,.5,11,6.6l2-.1-1-9.8-37,2.1v1.3c5,.1,6,1,7,5.9l1,30.5c1,4.9,0,6-5,6.6v1.3l37-2.2,2-11.8"/><path d="M928.43,1028c129.9,12,168.9,31,268.9,102" style="fill:none;stroke:#fff"/><path d="M967.83,1020a13.21,13.21,0,0,1-3.6,5c-2.6,3-6.4,3-11.9,3l-4.5-1c-4.8,0-5.7-1-5.4-3l3.4-31.6c.5-4.7,1.5-5.5,6.8-5.3l.2-1.3-18.8-2-.2,1.3c4.9.9,5.7,1.9,5.2,6.6l-3.2,29.3c-.5,5-1.5,6-6.4,6l-.2,1,35.9,4,4.4-11-1.7-1"/><path d="M977.73,1026c-.7,5-1.7,6-7.3,5l-.2,1,19.7,3,.2-1c-5.4-1-6.4-2-5.7-7l4.2-29.4c.7-4.8,1.7-5.5,7.3-5l.2-1.3-19.7-2.8-.2,1.3c5.6,1.1,6.3,2,5.6,6.9l-4.1,29.3"/><path d="M1001.33,991.75l-1,1.3c6,1.4,7,2.3,6,7l-6,29c-1,5-2,6-7.8,5l-.3,1,22.1,5c5,1,10,0,13-2a7.52,7.52,0,0,0,5-7,7.78,7.78,0,0,0-2-8c-1-2-3-3-7-5,4,0,5-1,7-2a6.75,6.75,0,0,0,4-6c2-7-4-12.3-15-14.6l-18-3.7m8,24.3c7,2,10,3,12,4,3,2,4,5,4,10a9,9,0,0,1-6,6q-3,1.5-9,0c-4,0-4-1-4-3l3-17m1-2,3-15.3a1.55,1.55,0,0,1,2-1.6l3,.5q10.5,2.4,9,11.4c-1,5-5,7-11,6l-6-1"/><path d="M1076.33,1045h-1c-6,5-9,6-18,3h-2a29.54,29.54,0,0,1-6-3v-2l5-16,10,3c5,2,6,3,5,8l2,1,4-15h-1a13.8,13.8,0,0,1-3,4,17.59,17.59,0,0,1-6-1l-10-3,5-14c0-2,1-2,2-1l9,2c7,3,8,4,8,10l1,1,3-9-34-11v1c4,2,5,3,3,7l-9,29c-1,4-2,5-7,4v1l34,11,6-10"/><path d="M1114.33,1074c-2-1-3-3-4-5l-5-22c5,1,7,2,10,1,2-1,5-3,6-6,1-2,1-5,1-7-1-4-6-8-11-11l-17-7-1,1c5,2,5,3,3,8l-13,26c-2,5-3,5-8,3v2l17,8v-2c-4-2-5-3-3-8l6-12,3,2,6,25,10,5v-1m-11-48c1-1,2-2,4,0,8,3,10,7,7,13-1,3-4,5-6,5-4,0-6,0-12-3l7-15"/><path d="M1150.33,1049l-17,29c-3,4-4,5-9,2l-1,1,17,10,1-1c-5-3-5-4-3-8l18-30,3,2c7,4,7,6,5,13l1,1,6-10-33-20-6,10,2,1c5-6,7-6,13-2l3,2"/><path d="M1213.33,1087l-12-8-1,1c3,2,4,3,3,4l-2,2-17,7v-18a4.38,4.38,0,0,1,1-3c1-1,2-1,4,0a1,1,0,0,1,1,1l1-1-16-11v1c2,2,2,3,3,15v16l-7,9c-3,5-4,5-9,2l-1,1,17,12,1-2c-5-3-5-4-3-8l8-11,16-7c7-3,9-3,12-1l1-1"/><path d="M645.33,1127.85c2,.7,3,1.1,5,1.7,5,1.7,9,2.2,12,1.6,5-.8,8-4,10-8.3a11,11,0,0,0,0-8c-2-3.8-7-7.5-13-9.6l-18-5.8v1.2c5,2.2,5,3.1,4,7.8l-10,28.3c-2,5.5-3,6-8,4.8v1.2l18,6.2,1-1.3c-5-1.9-6-3.2-5-7.9l4-11.9m7-19.7c1-1.7,1-2,3-1.4,9,2.9,12,7.4,10,14.1-2,6.3-7,8.3-15,5.8-1-.4-2-.8-4-1.5l6-17"/><path d="M707.33,1164.35c-3-.8-4-1.8-5-4.6l-10-20.3c5,.2,7-.1,10-1.3a13.25,13.25,0,0,0,5-6.9c1-2.9,0-5.6-1-8-2-3.3-7-6.4-13-8l-19-4.6v1.3c5,1.8,5,2.7,4,7.4l-7,29c-1,5.6-2,6.2-7,5.4l-1,1.3,19,4.6v-1.3c-5-1.6-6-2.7-4-7.5l3-13.2,4,.8,10,24.5,11,2.7,1-1.3m-21-45.7c0-1.9,1-2.2,4-1.6,8,2.1,11,6,10,12.3-1,3.3-3,5.8-6,6.4-4,1-6,.8-13-.6l5-16.5"/><path d="M739.33,1123.55c-13-2-24,6.4-26,20.1-1,6.4,0,12.9,3,17.5,3,4.9,9,8.5,15,9.4,13,2.1,24-6,26-19.7,1-6.7,0-12.8-3-17.5-3-5.4-9-8.7-15-9.8m-1,2.5c3,.5,6,2.2,9,4.8,3,3.9,4,10.6,3,18.7a47.46,47.46,0,0,1-5,12,12.65,12.65,0,0,1-4,4.4c-3,2-6,2.8-9,2.2-4-.5-6-2.2-8-4.7-4-3.7-5-10.9-4-18.5,2-6.9,5-13.2,8-16a12.65,12.65,0,0,1,10-2.9"/><path d="M791.33,1129.25l-2-.2c0,1.6-1,2.3-2,2.2a6.13,6.13,0,0,1-3-1.1c-3-1.1-5-1.9-7-2.1-3-.2-7,.7-9,2.6-3,1.9-4,4.7-4,8.3-1,5.5,2,9.6,9,14.2a32.16,32.16,0,0,1,10,8.9c1,.9,1,2.4,1,4.1-1,4.6-4,7.5-9,7.1-7-.5-11-4.7-13-13.3l-2-.1,1,14.7,1,.1c1-1.3,2-2.2,3-2.1a16.12,16.12,0,0,0,3,1,17.49,17.49,0,0,0,8,2.2c8,.7,14-4.3,15-11.4,0-5.6-3-10.4-12-16-7-4.5-9-7.8-9-11.5s3-6.2,8-5.8c3,.2,5,1.7,8,4.4,2,2.4,2,4.2,3,8.4l2,.1v-14.7"/><path d="M809.33,1156.45c1,.2,3,.2,4,.3,6,.1,9-.5,12-2.2,5-2.1,7-6.3,7-10.8a17.76,17.76,0,0,0-2-7.6c-3-3.1-9-5.1-16-5.2l-18-.3v1.3c5,.6,6,1.3,6,6.3l-1,29.9c0,5.8,0,6.4-6,6.8v1.3l20,.4v-1.3c-6-.3-7-1.3-7-6.4l1-12.5m0-20.7c0-1.9,0-2.3,2-2.3,10,.2,14,3.5,14,10.6,0,6.7-5,10-12,9.9a19,19,0,0,1-4-.3v-17.9"/><path d="M873.33,1163.55l-2,.1c-3,7.6-6,9.4-16,9.8l-1,.1c-4,.1-7-.1-7-.6-1-.2-1-.9-1-2.1l-1-17,11-.5c6-.2,7,.6,8,6.3h1v-16h-2c0,2.9,0,3.9-1,4.9-1,1.2-3,1.9-6,2l-11,.5v-15.3c0-2,0-2.4,2-2.5l9-.4c8-.3,9,.7,11,6.8l2-.1-1-9.8-37,1.6v1.3c6,.2,7,1.1,7,5.9l1,30.6c0,4.9-1,5.9-6,6.5v1.3l38-1.6,2-11.8"/><path d="M920.33,1169c-3,.1-4-.4-7-2.5l-16-15.9c5-1.4,7-2.4,9-4.5a11.76,11.76,0,0,0,3-8.3c-1-2.9-2-5.4-4-7.2-3-2.5-9-3.7-15-3l-19,2v1.3c5,0,6,.7,7,5.6l3,29.7c0,5.7,0,6.6-5,7.5v1.3l19-2v-1.3c-6,.2-7-.6-7-5.5l-2-13.5,4-.6,19,19.4,11-1.1V1169m-36-35.7c0-2,1-2.6,4-2.9,8-.9,13,1.6,13,8.1,1,3.4-1,6.4-3,8-3,2.1-5,2.8-12,3.6l-2-16.8"/><path d="M927.33,1161.45c1,5.1,0,6-5,7.1v1.3l20-3.1v-1.3c-6,.7-7-.1-8-5.1l-5-30.3c0-5,1-6,6-7.2v-1.2l-20,3.1v1.3c6-.6,7,0,8,5.1l4,30.3"/><path d="M952.33,1121.35l7,33.9c1,5.7,0,6.6-5,8.1v1.3l20-4v-1.2c-6,.8-7,.1-8-4.8l-7-34.6,4-.7c7-1.6,9-.7,12,6.5l2-.3-3-11.5-38,7.6,2,11.6,1-.3c1-7.7,2-9.3,9-10.8l4-.8"/><path d="M1020.33,1102.15l-15,3.9,1,1.2c3-.8,4-.6,5,1v2.7l-6,17.6-14-12.2c-1-.9-2-1.9-2-2.6,0-1.2,1-2.1,3-2.8,0,0,1-.2,2-.5l-1-1.2-19,4.9,1,1.2c3-.7,4,0,13,7.7l12,10.5,4,11.6c1,5.8,1,6.6-5,8.5v1.3l20-5.4v-1.2c-6,1.4-7,.8-8-4.3l-4-12.9,6-17.7c3-6.9,4-8.8,7-10v-1.3"/><path d="M453.94,1328.31c-3,.31-4-.31-6.05-3.14l-15.13-21c4-2.2,6.05-3.76,8.07-6.74a37.42,37.42,0,0,0,2-11.6c-1-4.08-2-7.37-4-9.88-2-3.29-8.07-4.55-13.12-3.14l-17.15,3.92v1.72c5-.31,5,.63,6.05,7.37l4,40.92c1,7.84,0,9.09-4,10.82v1.72l17.15-3.92v-1.88c-5,.63-6.05-.31-7.06-7.21l-2-18.66,4-.94,17.15,25.72,10.09-2.2v-1.88M420.64,1281c0-2.67,0-3.61,3-4.23,7.06-1.72,11.1,1.57,12.11,10.35,0,4.86,0,9.09-2,11.45-3,3-5,4.08-11.1,5.64l-2-23.21"/><path d="M489.26,1307l-2,.31c-2,10.82-4,13.64-13.12,15.37l-1,.31c-3,.47-6.05.63-7.06,0v-2.82l-2-23.52,9.08-1.88c5-.94,6.05.16,8.07,7.84l1-.31-2-22-1,.31c0,3.92,0,5.33-1,6.9-1,1.72-2,2.82-5,3.45l-9.08,1.72-2-21c0-2.67,0-3.29,2-3.61l8.07-1.57c7.06-1.41,8.07-.31,10.09,8.15l1-.31-1-13.64-32.29,6.43v1.72c5-.31,6.05.94,6.05,7.53l3,42.18c1,6.59,0,8.15-4,9.56v1.72l33.3-6.43,1-16.46"/><path d="M502.37,1293.18c1-.16,2-.16,4-.47,5-.78,8.07-2.35,10.09-5,4-3.61,5-9.72,5-16.15a15.58,15.58,0,0,0-3-9.88c-3-3.76-8.07-5.64-14.13-4.55l-16.14,2.67v1.72c5,0,5,.94,6.05,7.68l3,41.24c0,8,0,8.94-5,10.51v1.72l17.15-2.82v-1.72c-5,.47-6.05-.78-6.05-7.68l-1-17.25m-2-28.54c0-2.67,0-3.29,2-3.61,8.07-1.41,12.11,2.51,12.11,12.23,1,9.25-2,14.58-9.08,15.68a13.59,13.59,0,0,1-4,.31l-1-24.62"/><path d="M559.89,1263.08c0-9.72,0-11.45,5-13v-1.88l-14.13,2v1.72c5,0,6.05,1.88,7.06,11.45l1,25.72c0,6.43,0,10.19-1,13.17a11.69,11.69,0,0,1-9.08,8.94c-5,.47-8.07-1.41-10.09-5.64-1-2.82-1-6.27-2-12.23l-2-30.58c0-6.9,1-8,6.05-9.25l-1-1.88L522.55,1254v1.88c5-.16,6.05.78,6.05,7.68l2,29.79c1,16.46,6.05,23.68,17.15,22.27a15.82,15.82,0,0,0,13.12-11.76c1-4.23,1-8.62,1-16l-2-24.77"/><path d="M568,1247.87v1.88c5-.16,6.05.78,6.05,7.84l2,42.49c1,7.06,0,8.31-5,9.09v1.88l20.18-2.2c5-.63,9.08-3,11.1-6.59a23.79,23.79,0,0,0,3-12.23c0-4.23-1-8-3-10.51-2-2.35-4-3.29-8.07-4.39a18.11,18.11,0,0,0,6.05-4.86,25.35,25.35,0,0,0,2-9.88c-1-10.66-6.05-15.52-17.15-14.43L568,1247.87m14.13,30.73c5-.63,8.07-.47,11.1.78,3,1.88,5,5.49,5,11.45,0,5.17-1,9.09-3,11.6-2,1.88-4,2.82-8.07,3.29-3,.31-4-.31-4-3.45l-1-23.68m-1-3.76-1-22c0-1.88,1-2.82,2-3l2-.31c7.06-.78,11.1,3.45,12.11,11.92,0,7.53-3,12.07-9.08,12.7l-6.05.63"/><path d="M645.65,1287.07a32.26,32.26,0,0,1-3,7.68c-2,3.92-5,6-10.09,6.27l-4,.47c-5,.31-5-.16-6.05-3.45l-1-45.16c0-6.9,0-8.31,5-9.09v-1.88l-17.15,1.57v1.72c5,.16,5,1.41,6.05,8.15l1,42.49c0,6.59,0,8.15-5,8.94v1.88l33.3-2.82,2-16.93-1,.16"/><path d="M654.73,1292.56c1,7.21,0,8.47-5,9.09v1.72l18.16-1.25v-1.88c-5,.16-6.05-1.1-6.05-8.15l-2-42.34c0-7.06,1-8.31,6.05-9.09v-1.72l-18.16,1.25v1.88c5,0,6.05,1.1,6.05,8.15l1,42.34"/><path d="M706.19,1256.81l-1-21.64-2,.16c0,2-1,3.14-2,3.29a5.47,5.47,0,0,1-3-.78,20.79,20.79,0,0,0-9.08-1.72c-5,.31-10.09,3.45-13.12,8.94-4,6.27-6.05,15.21-6.05,25.72,0,8.94,2,17.09,5,22.27,4,6.12,10.09,9.41,16.14,9.09,7.06-.47,13.12-5.17,16.14-13.17l-1-1.72c-4,7.06-8.07,10.19-13.12,10.51-4,.16-8.07-1.57-10.09-5-4-4.39-6.05-13-6.05-23.52-1-17.4,5-28.85,14.13-29.32,3-.16,6.05,1.57,9.08,5.33,2,2.82,3,5.49,4,11.6h2"/><path d="M746.55,1233.6c-12.11.47-20.18,14.43-20.18,33.71a50.16,50.16,0,0,0,6.05,23c4,5.8,9.08,9.41,14.13,9.25,12.11-.31,20.18-14,20.18-33.24,0-9.41-2-17.56-5-23.21-4-6.43-9.08-9.72-15.13-9.56m0,3.45a9.82,9.82,0,0,1,8.07,4.55c3,4.55,5,13.48,5,24.93,0,5.64,0,12.23-2,17.25a17.19,17.19,0,0,1-2,7.06c-2,3.45-5,5.33-8.07,5.33a9.65,9.65,0,0,1-8.07-4.39c-3-4.39-6.05-14-6.05-24.62,0-9.72,2-19,4-23.52q4.54-6.35,9.08-6.59"/><path d="M799,1275.15V1253h-2c0,7.68-2,9.09-6.05,9.09l-9.08.16v-21.17c0-2.67,0-3.29,2-3.29l8.07-.16c7.06,0,8.07,1.41,9.08,9.88h2l-1-13.64-32.29.47v1.72c5,.63,5,1.88,5,8.62l1,41.4c0,8-1,9.25-6.05,9.72v1.88l17.15-.31v-1.72c-4-.31-5-1.72-5-8.62v-20.85l9.08-.16c5,0,6.05,1.41,6.05,9.09h2"/><path d="M846.44,1232.82h-1c0,2.2-1,3.14-2,3.14a4.81,4.81,0,0,1-3-1.1,10.64,10.64,0,0,0-6.05-2.2c-3,0-5,1.57-7.06,4.39-3,3-4,6.9-4,11.92,0,7.68,3,13,10.09,18.66a47.5,47.5,0,0,1,9.08,11.29c0,1.25,1,3.29,1,5.64,0,6.27-3,10.66-8.07,10.66s-9.08-5.33-12.11-17.09h-2l2,20.38h2c0-1.88,0-3.14,1-3.14a4.81,4.81,0,0,1,3,1.1,13.76,13.76,0,0,0,7.06,2.2c7.06,0,13.12-7.37,13.12-17.25,0-7.84-3-14.11-11.1-21-7.06-5.64-9.08-9.88-9.08-14.9,0-5.33,2-8.94,6.05-8.94,3,0,5,1.88,7.06,5.33,2,3.14,3,5.64,4,11.29h2l-2-20.38"/><path d="M875.7,1233.29c-11.1-.16-20.18,13.33-20.18,32.61,0,8.94,2,17.72,5,23.36,4,6.12,9.08,9.88,14.13,10,12.11.31,21.19-12.86,21.19-32.14,0-9.41-2-17.56-5-23.36-4-6.74-9.08-10.35-15.13-10.51m0,3.45a10.38,10.38,0,0,1,8.07,5c3,4.7,5,13.8,5,25.24a90.38,90.38,0,0,1-2,17.09c-1,2.35-2,4.7-3,6.9-2,3.29-5,5-8.07,4.86-3,0-6.05-1.88-8.07-4.86-3-4.39-5-14.11-5-24.77,0-9.72,2-19,5-23.36,2-4.08,5-6.12,8.07-6.12"/><path d="M936.24,1251c0-9.88,1-11.29,6.05-12.07v-1.72l-14.13-.63v1.72c4,.78,5,3,5,12.54v25.72a35.54,35.54,0,0,1-2,13c-2,4.55-6.05,7.37-10.09,7.06q-7.57-.24-9.08-7.06a24.06,24.06,0,0,1-1-12.7v-30.73c0-6.74,1-7.84,6.05-8.31v-1.72l-17.15-.78V1237c4,.78,5,1.88,5,8.94l-1,29.79c0,16.46,5,24.62,15.13,25.09,7.06.31,12.11-2.82,14.13-9.25,2-3.92,2-8.31,2-15.68l1-24.93"/><path d="M959.45,1242.22l-2,47.82c0,8,0,9.09-6.05,9.25V1301l18.16,1.1v-1.72c-5-.78-6.05-2-5-8.94l1-48.92,3,.31c7.06.31,8.07,2.2,10.09,12.7l1,.16V1239.4l-34.31-2-1,16.15,1,.16c2-10.35,4-12.07,10.09-11.6l4,.16"/><path d="M993.76,1269.51V1251c1-6.9,1-8,6.05-8.15V1241l-17.15-1.41v1.88c5,1.1,5,2.2,5,8.94l-1,41.4c0,8-1,9.09-6.05,9.25v1.88l17.15,1.25v-1.72c-4-.94-5-2.35-5-9.09l1-19.6,18.16,1.41v18.66c-1,8-1,9.09-6.05,9.25v1.72l17.15,1.41v-1.88c-5-.94-6.05-2.2-5-8.94l1-42.49c0-6.9,1-7.84,6.05-8.15V1243l-17.15-1.41v1.72c4,1.1,5,2.2,5,9.09l-1,18.5-18.16-1.41"/><path d="M1069.43,1246.14l-1-.16c0,2.2-1,3.14-2,3a4.49,4.49,0,0,1-3-1.41,13.25,13.25,0,0,0-6.05-2.82,9.69,9.69,0,0,0-8.07,3.61c-2,2.82-3,6.74-3,11.6-1,7.68,2,13.33,8.07,19.6,5,4.23,8.07,8.47,9.08,12.23,0,1.25,1,3.29,1,5.64-1,6.27-4,10.35-8.07,9.88-6.05-.47-9.08-6.12-12.11-18.19l-1-.16,1,20.54,1,.16c0-1.88,1-3.14,2-3,0,0,1,.47,3,1.25a11.88,11.88,0,0,0,7.06,3c7.06.78,12.11-6.27,13.12-16,0-7.84-3-14.43-11.1-22.11-6.05-6.12-8.07-10.66-8.07-15.84s3-8.47,7.06-8.15c2,.31,5,2.35,7.06,6.12,2,3.14,2,5.8,3,11.45l2,.16-1-20.38"/><path d="M1113.83,1266.84c0-9.72,1-11.13,6.05-11.45v-1.88l-14.13-1.72v1.72c5,1.25,5,3.45,5,13l-1,25.72c-1,6.43-1,10-2,12.7a10.35,10.35,0,0,1-11.1,6.27c-4-.47-7.06-3.14-8.07-7.84a24.06,24.06,0,0,1-1-12.7l1-30.58c1-6.9,1-7.84,6.05-7.84v-1.88l-17.15-2.2v1.88c5,1.1,5,2.35,5,9.25l-2,29.79c0,16.46,4,24.93,14.13,26.19,7.06.78,12.11-1.88,15.13-8.15a54.12,54.12,0,0,0,2-15.37l2-24.93"/><path d="M1124.93,1307.3c-1,6.9-1,8-6.05,7.84v1.72l17.15,2.67c7.06,1.1,14.13-1.1,18.16-6,4-5,7.06-13.17,7.06-22.42,1-8.47,0-16.15-3-22-4-7.21-11.1-11.6-19.17-12.86l-16.14-2.51v1.88c4,1.41,5,2.35,4,9.41l-2,42.18m9.08-44.37c0-3,1-3.76,3-3.29,5,.78,9.08,2.82,12.11,6.59,4,5.8,6.05,14.43,6.05,24.62-1,11.29-4,19-9.08,22.58-3,2.35-7.06,3-12.11,2.2-3-.31-3-1.41-3-4.39l3-48.29"/><path d="M1205.65,1329.25c-3-.78-4-1.88-5-9.25l-11.1-56.76-2-.16-16.14,44.37c-4,13.17-5,14.58-8.07,14.27v1.72l12.11,2.2v-1.72c-3-.63-4-2-4-4.7a5,5,0,0,1,1-3.61l3-10.66,16.14,2.82,2,9.56a18.46,18.46,0,0,1,1,6.59c0,2.35-2,3-5,2.51v1.72l16.14,2.82v-1.72m-28.25-28.07,9.08-24.77,5,27.28-14.13-2.51"/><path d="M1244,1339.91l4-49.86c0-5.64,1-8.94,2-10,1-.78,2-.94,5-.78v-1.88l-14.13-3-1,1.88c3,.78,3,1.25,4,2.35,1,1.57,2,5,1,11l-3,32-19.17-50.8-10.09-2.2v1.72c2,.63,3,1.57,5,6.43l-4,41.87c0,9.72-1,11.45-7.06,11v1.72l15.13,3v-1.72c-5-1.41-6.05-3.76-5-13.33l3-37.16,22.2,57.7,2,.16"/></svg>