<svg xmlns="http://www.w3.org/2000/svg" viewBox="0 0 309.41 404.33"><title>South_Africa</title><path d="M112.91,210.11l-.19,2.33,32.19,6-39.47,7.16c-2.52.76-1.14,3.28.69,2.92h0L154,220l48.48,8.73h0c2.71.42,3.6-2.82.39-3.29l-39-7,41.81-7.32c6.8-.69,7,.33,10.32,3.14,2.42,2,4.75,1.32,7.08.08,3.34-1.78,6.5-4.79,5.68-9.05a6.46,6.46,0,0,0-1.13-2.57c-1.4-1.93-4.05-3.17-7-3.73-3.87-.73-5.63.54-7,2.78-2.5,4.13-1.59,3.81-7.28,6.19l-.27.11-52.11,9ZM71,204.19l30.22-.07.55.55c2.22,2.61,7,3.82,9.47,4.87l.74.31-36-4.9,35.37,7.8-.77-.05a33.51,33.51,0,0,0-5.68-.18l-.14,0a11.18,11.18,0,0,0-5.3,1.86l-.1,0L71,204.19"/><path d="M123.49,178.65h-23l30,13.17Z" style="fill:#b16f11"/><path d="M151.87,178.65H130.19l18.26,12.62Z" style="fill:#b16f11"/><path d="M178.54,178.65H157l3.51,12.76Z" style="fill:#b16f11"/><path d="M207.26,178.65H184.94l-6.58,13Z" style="fill:#b16f11"/><path d="M139.78,166.42l.07.06h29.29l.11-.09-14.72-11.59Zm-.91-15.22.07.06h29.29l.11-.09-14.72-11.59-14.76,11.63" style="fill:#e20a17"/><path d="M138.95,151.25l-.07-.06-.07.06Z"/><path d="M168.35,151.16l-.11.09h.23Z"/><path d="M183.45,163.06l0,0h0Z"/><path d="M153.89,163.07l-.18-.14-.18.14Z"/><path d="M124,163.07l-.13-.1-.13.1Z"/><path d="M138.95,151.25l14.76,11.68,14.53-11.68Zm0,23.57,14.62-11.75H124l14.52,11.75Zm30,0,14.52-11.75H153.89l14.84,11.75h.18" style="fill:#ed8001"/><path d="M168.73,174.82l-14.84-11.75h-.36l-14.62,11.75h29.82"/><path d="M153.71,162.93l-14.76-11.68h-.15L123.92,163l.13.1h29.48Zm29.73.14,0,0-15-11.81h-.23l-14.53,11.68.18.14Zm0,0-14.52,11.75h29.47l-14.91-11.75Zm-44.87,11.75L124,163.07h-.26l-14.91,11.75h29.68" style="fill:#024621"/><path d="M152.27,93.62a1.23,1.23,0,0,0,1.31,1.49,1.08,1.08,0,0,0,.6-1.82c-.31-.43-.47-.45-1-.36S152.37,93.15,152.27,93.62Zm-8.49,2.56a1.23,1.23,0,0,0,1.31,1.49,1.08,1.08,0,0,0,.6-1.82c-.31-.43-.47-.45-1-.36s-.81.22-.91.69"/><path d="M166.34,124.25s0-.69,0-1.31a26,26,0,0,0-1.64-7.15,19,19,0,0,0-3.82-3.64,57.93,57.93,0,0,0-5.68-3.08s.17,1.43.41,2.53c.87,4.08,3.64,7,6,9.65a19.71,19.71,0,0,0,4.12,3,5.36,5.36,0,0,0,.61,0Zm-4.59,18.91s.78-1.08,1.31-2c1.23-2.09,3.18-9.91,3.28-11.52s0-3.65,0-3.65-2.54-.31-4.37-.76a16.24,16.24,0,0,1-7.92-5c-1.51-1.84-3.51-5-3.51-5s-.1,3.85-.4,6.54a29.42,29.42,0,0,1-2.18,8c-1.06,2.22-6.38,8.74-8.1,11.92-.07.13-2.59,5.08-2.64,6.73,0,.26,0,.55,0,.55l16.1-12.33Zm11.49,8.75,18,14.16,1.52-1.94s4.79,3.4,8.14,5.35a58.18,58.18,0,0,0,8.25,2.82c3.73.42,8.79.9,12.59-1.27.74-.42,1.63-1,1.63-1s-2-1.16-4-2.46c-4.45-2.88-8.87-6.42-8.87-6.42l2-1s2.88,2.33,5.05,3.77c2,1.33,5.86,3.37,7.44,3.6a38.27,38.27,0,0,0,6.42,0s4.06,7.19,6.9,12.74a157.16,157.16,0,0,1,14.2,42.23,150.51,150.51,0,0,1-3.64,68.8c-1.8,6.37-7,20.67-10.83,26.48a41.08,41.08,0,0,0-3.46,5.88,1.68,1.68,0,0,0,1.09,1.77,108.92,108.92,0,0,0,11.46,3.37c6.25.89,15.36-.28,22.87-3a1.2,1.2,0,0,0,.9-.81c10.74-22,16.69-35.06,19.19-58,2.29-20.94-.12-43.1-6.37-64.14-1-3.27-4.69-13.39-6.1-16.56s-11.38-22.48-13.74-26.57a19.23,19.23,0,0,0-2.27-3.28c-1.08-1.27-2.71-2.95-2.71-2.95l2.29-1.87s-3-1.1-5.95-2.47a117,117,0,0,1-10.56-5.79,11.5,11.5,0,0,1,1-1,1.15,1.15,0,0,1,.35-.2c.17-.06.25,0,.79.21,7.6,3.58,14.93,8.36,20.31,5.38,1.84-1,5.19-3.42,5.19-3.42s-4.32-1.19-8.61-2.7c-5.92-2.08-11.78-4.77-11.78-4.77l1.55-1.54s5.62,2.38,9.68,3.76c5.22,1.77,11.73,2.94,15.11-.27,1.17-1.11,2.79-3.11,2.79-3.11s-5.81-1.09-11.53-2.53S258.39,130,258.39,130a9.25,9.25,0,0,1,.74-1.35.8.8,0,0,1,.25-.21c.13-.07.2-.06.77.08,5.18,1.29,13.79,3.52,15.57,3.72,2.33.26,6.89.05,8.92-1.18a20.71,20.71,0,0,0,3.85-3.61c.76-.87,1.61-1.88,1.61-1.88l-26.57-2.91a3.24,3.24,0,0,1,0-.79c0-.1.11-.05.22-.11a1.52,1.52,0,0,0,.42-.5c.15-.25.23-.28.82-.26,7.18.19,18.37,1.17,24.21-.49,4.51-1.29,6.74-2.51,8.74-6.46.93-1.83,2.22-5,2.22-5s-9.05,2.1-14,2.68c-6,.69-12,1.58-12.19,1.82a1.58,1.58,0,0,1-.29.45,4.29,4.29,0,0,1-1.72.55c-3,.56-23,1.55-28.61.36a21.13,21.13,0,0,0-4.37-.73c-.92.23-1.59,1.07-2.69,1.73a28.41,28.41,0,0,1-9.57,2.82c-.83,0-1.77,0-1.77,0s-.15.88-.3,1.46c-.62,2.35-3.74,4.37-5.91,5.1-2.4.8-5.8,1.87-5.93,2.15s.26.79.2,1.6c-.24,3.31-5.07,6.73-7.83,8.08-1.85.91-4.55,2.12-4.55,2.12a23.38,23.38,0,0,1,.18,2.39c0,4.28-5.39,6.17-9.1,7.23-2.16.62-15.07,3-16.38,3-1,0-2,0-2,0ZM63,141.93l1.54,1.27a83,83,0,0,1-8.53,5c-3.58,1.57-7.26,2.74-7.54,3.27-.53,1,.82,1.1,1.53,1.86.15.16-6,9-8.1,11.71-3.51,4.44-9.77,19.14-12,24.75-11.28,28.28-14.92,61.4-9,89.82a156.13,156.13,0,0,0,6.83,23.21c.71,2,10,21.59,10.47,22C41,327.51,49.57,328.72,54,329a49.08,49.08,0,0,0,8-.18,108.88,108.88,0,0,0,11.46-3.37c.77-.63,1-1.06.91-1.79a60.16,60.16,0,0,0-4.19-7.13c-.75-1.16-5.86-12.67-6.73-15.2a153.37,153.37,0,0,1-8.19-33.24c-.34-2.58-1.16-19.58-1.09-22.63s1.72-19.83,2.18-22.33c.8-4.31,2.47-11.1,3.82-16.07.71-2.62,5.85-16.86,6.82-18.93C70.64,180.55,78,167.38,78,167.38l5.35.16a3.2,3.2,0,0,0,1.29-.16,25.06,25.06,0,0,0,6.52-3c2-1.49,4.56-3.88,5.39-4,.42-.08,1.64.36,1.71.61a.9.9,0,0,1,0,.33c0,.15-.07.2-.55.54L85.8,170.23s.82.51,1.55.89c5,2.59,13,1.43,16.74,0a39.24,39.24,0,0,0,7.64-3.64c1.19-.86,4-3.79,4.74-3.1.35.35.33.51.68.47.1,0,.16-.05.62-.42l16-12.53s-16.46-2.94-18.9-3.81c-2.82-1-6.38-3.22-6.37-6.37,0-.95.18-2.43.18-2.43s-3.74-1.68-5.92-2.85-5.5-3.86-6.19-6c-.35-1.1,0-2-.38-2.72-.32-.56-6.53-2.73-9.36-4.47a4.39,4.39,0,0,1-2-2.37c-.51-1.35-.5-1.81-1-2.09-.89-.53-5-.61-7.58-1.37-1.88-.54-5-2.95-6.28-3.19a32.16,32.16,0,0,0-5.12.91c-1.09.22-11.65.22-14.52,0-4.76-.36-8.61-.65-14.48-1.46-10.3-1.42-27-4.47-27-4.47s1.53,3.24,2.65,5.29c2.75,5.07,7.21,6.36,14.19,6.83a117,117,0,0,0,18.54-.73.75.75,0,0,1,.76.27,10.35,10.35,0,0,1,1,1.55s-1.52.36-2.82.64a86,86,0,0,1-10.56,1.27c-5.15.26-13.91.76-13.91.76A50.51,50.51,0,0,0,23,129.92c3.79,3.35,11.4,2.62,16.7,1,3.75-1.17,9.51-2.76,9.89-2.64.55.18,1.11,1.35.85,1.7s-21.5,5.18-21.93,5.67.4,1.51,2.46,3.18c3.1,2.54,7.73,2.51,12.38,1s11.9-4.48,12.44-4.28,1,.85.85,1.34a23.07,23.07,0,0,1-4.91,2.58c-5.58,1.89-13.31,4-13.74,4.55s.46,1.53,2.82,3.09c3.26,2.16,5.3,1.84,9.63.65a31.18,31.18,0,0,0,5.75-2.19C59,144.18,63,141.93,63,141.93Zm11.62,8.23a14.34,14.34,0,0,0-2.13,1.65,1.44,1.44,0,0,0-.21.45c-.29.6-3.16,1.8-4.71,2.73-.85.51-1.33,1-2.28,1.55a52,52,0,0,1-5.1,2.45s.66.5,1.28.92a31.28,31.28,0,0,0,6,2.19c6.16.51,8.3-1.39,16.38-6.42a1,1,0,0,1,1.17-.11l1.25.48s-3.24,2.52-5.68,4.23c-2.71,1.9-4.45,2.81-6.72,4.15-.51.3-.57.34-.58.44,0,.43.23.4.81.88.85.7-1.69,2.34-3.07,3.63-3.18,3-12.32,17.24-13.2,18.66-7.49,12.07-14.65,30.12-17.62,43.8-1.84,8.47-3.95,21.27-3.95,21.27s-.93-6.56-1.37-11.28c-1.38-15.2,1.66-35.59,5.19-49.51,3.79-15,6-19.47,12.68-36.16a2.43,2.43,0,0,1,.36-.74c.78-.94,2.44.12,5.62.32,2.18.13,6.46-2,8.65-3.28s5.47-3.5,5.47-3.5Zm159.91,0,1.65-1.14s2.94,1.86,5.12,3.16c3.86,2.3,7.45,4,11.29,3.55,1.45-.16,3.48-.57,3.48-.57s9.25,24.62,11.44,31.79c4.21,13.79,6.11,28.37,6.73,42.68.17,3.8.06,11.53-.18,13.43s-.67,4-.73,5.86a9.87,9.87,0,0,1-.27,3.28c-.19.48-.51,1.08-.51,1.08s-1.27-9.56-2.31-15.46c-3.71-21-14.78-44.66-26-60.52a71.58,71.58,0,0,0-5.46-6.92c-1.19-1.3-4.43-3.89-3.82-4.52a8.18,8.18,0,0,1,1.2-.83s-3.71-2.14-7.2-4.53c-3-2-5.83-4.28-5.83-4.28s.31-.35.55-.57.58-.39.82-.27c1,.51,3.86,2.65,6.19,4a17.73,17.73,0,0,0,11.14,2.73,28.3,28.3,0,0,0,5.7-2.09c.65-.42,1.37-.93,1.37-.93l-3.92-2a56.35,56.35,0,0,1-7.37-4.46c-1.33-1-3-2.47-3-2.47" style="fill:#874515"/><path d="M64.12,327s-3.09.68-5.45,1a47.94,47.94,0,0,1-7.9-.64c-4.22-.94-9.87-1.8-11.15-2.85A41.66,41.66,0,0,1,36,317.88c-1.5-3.42-3.47-7.16-5.13-10.9-4-9.07-7.67-22.09-9.37-31.76-4.06-23.1-2-46.19,4.46-69.44,3.48-12.57,10.45-29.73,17.93-41.32,2-3.08,4.26-6.12,5.73-8.55a3,3,0,0,1,1.49-1.27,3.72,3.72,0,0,1,.61,0S45,171.51,41.94,180.85c-4,12-5.79,22.52-7.55,35.16-.48,3.43-1.21,13.13-1.09,14.43.08.82.2,1.59.26,2.42.11,1.66,0,3.55-.07,5.49s1.07,13.55,1.63,17.11a157.9,157.9,0,0,0,20.11,56.61C58.68,318.08,64.12,327,64.12,327ZM289,237.27c1.55,18.38.16,36.6-5.28,54.15-1.47,4.74-3.22,9.17-5.19,14.47-.81,2.2-8.31,17.82-8.74,18.2a5.66,5.66,0,0,1-1.18.82,63.84,63.84,0,0,1-8.92,2.18c-3.44.48-6.61.71-9.06.82a21.84,21.84,0,0,1-5.3-.91c-.23-.36,9.55-17.32,15.63-29,6.18-11.9,11.7-32.09,13.38-44.86a159.36,159.36,0,0,0-.45-43.41c-.57-3.62-3.38-16.22-5.19-23.57-.65-2.65-5-15.83-5.82-17.47-1.54-3.26-5.71-13.65-5.55-13.83a.62.62,0,0,1,.62-.18,27.36,27.36,0,0,1,4,4.55c1.3,1.92,10.55,18.87,11.83,21.66a168.59,168.59,0,0,1,8.65,22.57A163.66,163.66,0,0,1,289,237.27" style="fill:#bb8e53"/><path d="M96.72,179.61l35.81,15.78,6.17,11.39,7.13,6.17-18-8.09Zm53.1,33.2-5.08-7.27L148,194l-22.09-15.64,14.13,26.48Zm4.67,2.61-7.13-10.15,7-26.48,7.13,26.62Zm57.76-35.81-35.81,15.78-6.17,11.39-7.13,6.17,18-8.09Zm-53.1,33.2,5.08-7.27L160.93,194,183,178.37l-14.13,26.48ZM41.68,329.9s3.12,6,5.72,10.57a128.52,128.52,0,0,0,16.93,22.93c1.9,2.08,12.54,12.06,14.65,13.74A122,122,0,0,0,149,404c30.61,1.6,61.81-9.81,84.68-29.76a190.13,190.13,0,0,0,18.75-19.75c1.66-2,6.44-9,8.1-11.83,3-5.09,6.91-12.24,6.91-12.24s-5.91,1.21-10.63,1.68c-1.57.16-11.69-.25-13.73-.55a23.75,23.75,0,0,1-4.84-1.18c-1.9-.67-4.56-1.78-4.56-1.78s-1.27,2-2.36,3.6C222,346,205.61,358,192.5,363.92a91.35,91.35,0,0,1-84.22-4.16C100,355,89.4,346.61,83.25,339c-3.34-4.13-7.8-10.45-7.8-10.45s-2.87,1.08-5.21,1.81a79.28,79.28,0,0,1-10.07,1.55c-4.27.07-10.65.28-15.23-1-1.49-.42-3.26-1-3.26-1" style="fill:#024621"/><path d="M232.52,253.29l-3.29-24.39-1.07-1s1.17,7.92,1.52,11.34a7.07,7.07,0,0,1,0,2.19c-.18.89-.68,1.85-1,3a14.23,14.23,0,0,0-.27,4.31,8,8,0,0,0,2.73,3.61C231.74,252.77,232.52,253.29,232.52,253.29ZM81.27,228.72H80s-3.5,18.77-3.58,21.48c0,1.62,0,3.16,0,3.16a8.59,8.59,0,0,0,.91-.53,26.12,26.12,0,0,0,3.85-4s-.69-4-1.21-6c-.3-1.09-.54-1.51-.64-2.07a33.22,33.22,0,0,1,.91-6.66c.47-2.39,1-5.46,1-5.46Zm150.58.36h-.53l4,24.82a28.86,28.86,0,0,0,2.61-2.79,4.38,4.38,0,0,0,.24-4.14c-1-2.41-3.47-5.19-4.22-7.19-.66-1.76-.81-7.37-1.63-10.17a1.4,1.4,0,0,0-.14-.36c-.09-.15-.13-.17-.36-.17ZM73.94,253.47s2.44-14.23,3.58-21.11a7.69,7.69,0,0,0,.18-3.1c-.11-.16-.3-.18-.61,0a.65.65,0,0,0-.15.11c-.06.06-.07.13-.16.72-.46,3.25-1.19,8.89-1.55,9.73-1.11,2.61-5.61,6.67-4.57,10,.2.65,1.55,3,2.46,3.36a5.13,5.13,0,0,0,.81.25Zm3.21,3.7c-.46,1.23,1.27,2.78,2.09,2.85,2.27.21,4.68-3.1,5.46-4.37.59-1,6.25-16.17,6.1-16.38a.75.75,0,0,0-.94,0c-.62.65-.88,3.23-1.88,5.28-.56,1.15-8.42,8.51-9.65,10.37a12.26,12.26,0,0,0-1.18,2.24Zm150.16,2a4.54,4.54,0,0,0,2.27.82,2.65,2.65,0,0,0,2.27-2.73,3.15,3.15,0,0,0-.45-1.27c-.91-1.62-10.12-11.13-10.56-12.19-.73-1.77-.83-3.93-1.85-4.55a.48.48,0,0,0-.61,0c-.17.18,1.43,5.62,2.37,8,1.34,3.44,3.15,8.87,6.55,11.92Zm-161.44-15s.79,13.27,1.37,15.65c.73,3,3.46,8,6.58,7.28,1.93-.44,3.59-3.06,3.4-4.93-.09-.91-.69-1.69-1.8-2.9-1.54-1.68-7.62-7.13-8.37-10.19a36.6,36.6,0,0,1-.45-5.1ZM243.15,244h-.91l-.16,4a2.52,2.52,0,0,1-.29,1.25c-2.06,4.64-4,5.2-8,9.65-2.19,2.4-2.77,4.07-1.27,6,1.25,1.61,3,2.85,5,1.91,1.36-.65,2.86-3.47,3.46-4.91a21.13,21.13,0,0,0,1.37-4.82c.61-3.9.82-13.11.82-13.11ZM76.88,269.49A2.84,2.84,0,0,0,77.7,273c1.74,1.35,3.33,0,4.55-1.73a26.91,26.91,0,0,0,2.37-5c.92-2.38,4-12.81,3.82-13-.71-.87-1.09,1.33-1.91,3.28-.55,1.29-5.24,6.34-8,10.19A16,16,0,0,0,76.88,269.49Zm143.7-16c1,3.75,3.88,13.38,4.55,14.83,1,2.08,3.38,6.47,6.19,4.82a3.61,3.61,0,0,0,1.27-1.86c.25-1.1-1.78-4.09-3-5.79-5-7-6.87-7-8.19-12a.21.21,0,0,0-.2-.18C221,253.26,220.54,253.32,220.58,253.47Zm-156.89,5.1c.62,3.51,2.47,12.13,3.09,13.92,1,2.85,4,9.26,7.21,9.56,1.64.15,2.5-.49,3.44-2.37,2.28-4.53-3.75-6.93-8.28-11.1a15.32,15.32,0,0,1-3.55-4.37,45.35,45.35,0,0,1-1.09-5.64.21.21,0,0,0-.2-.18c-.21,0-.65,0-.62.18ZM231.14,277c-.48,1.39.59,2.94,1.55,4.13a2.61,2.61,0,0,0,3.51.58c3.08-1.74,5-6.42,6.22-9.5.52-1.33,3.27-13.46,3.09-13.65s-.56-.33-.82,0a13.32,13.32,0,0,0-1.18,4c0,.63.06,1,0,1.4a24.76,24.76,0,0,1-3.45,4.55C239.13,269.35,232.17,274.05,231.14,277ZM87.71,265.85h-.41c-.18,0-.23.06-.46.6-1.06,2.46-2,4.85-3.32,7.31-3.09,5.75-7.58,9.79-4,12.83a2.41,2.41,0,0,0,2.73.27,11.62,11.62,0,0,0,2-3.46C85.08,281.13,87.71,265.85,87.71,265.85Zm134.18,0h-.41s1.67,11.92,2.73,15.93c.34,1.3,1.86,5.16,3.33,5.37a2.82,2.82,0,0,0,1.76-.27,16.49,16.49,0,0,0,2-2.25s-.88-2.57-1.71-4.39a45.38,45.38,0,0,0-3.19-5.1c-.7-1.06-3.55-6.26-4.15-8.65-.14-.57-.18-.64-.36-.64Zm-156.57,10a1.15,1.15,0,0,0,0,.73c.91,4.92,5.75,18,10.37,20.84.66.4,2.27.78,2.91-.09a9.26,9.26,0,0,0,.55-1.55c.86-2.23,1.58-2.1,1.27-3.25a5.7,5.7,0,0,0-1.09-1.94c-.66-.84-7.51-6.35-10.28-8.55a5,5,0,0,1-1.55-1.82C67.25,279.61,66.37,274.32,65.33,275.86Zm163.26,16.89a20.31,20.31,0,0,0,1.94,4.77,3,3,0,0,0,1.92.36c1.44-.5,3.51-2.8,4.79-4.73a38.36,38.36,0,0,0,2.73-5.28,120.66,120.66,0,0,0,3.91-12c-.24-.34-.64-.34-1,.18-.61.89-1,3.18-1.64,4.55a5.26,5.26,0,0,1-1.55,1.91c-2.53,2.07-8.89,6.46-9.92,7.74A5.83,5.83,0,0,0,228.59,292.75Zm-8-12.34s.46,8.86,1.09,14c.26,2.16,1.28,8.17,3.33,8.55a3.43,3.43,0,0,0,3.76-3.09,5.08,5.08,0,0,0-.18-1.88c-.45-1.77-4.63-9.26-6.1-12.5a9.26,9.26,0,0,1-.73-2.37c-.22-1.16-.45-2.91-.45-2.91Zm-132.14,0h-.79s-.14,1.4-.39,2.73C87,284.72,81,296,80.43,298.3A4,4,0,0,0,82.86,303c2.91,1,4-4.45,4.4-8.19C87.91,289.36,88.44,280.41,88.44,280.41Zm-6.37,31.12c1.76.19,2.88-.47,3.28-1.94a3.05,3.05,0,0,0-.27-1.88c-.38-.77-9.23-7.08-12.65-10a7.23,7.23,0,0,1-1.82-2.18c-.65-1.2-1.22-2.94-1.76-3.46-.23-.22-.5-.21-.61,0s2.29,6.21,3.55,8.74c1.76,3.53,4.86,9.35,8.83,10.47A9.66,9.66,0,0,0,82.07,311.53Zm141.88-3.82c-.61.52,0,2.17,0,2.18,1,1.54,1.5,1.82,3.29,1.64,3.48-.35,5.86-3.44,7.79-6.56.94-1.53,6.09-12.74,5.93-12.92-.82-.91-2.13,2.76-3.85,5.15C236.33,298.31,227.16,305,223.95,307.71ZM89.17,297.63a25.86,25.86,0,0,0,.36,2.62,20.34,20.34,0,0,1-.82,5.1c-1.59,4.57-3.52,8.41-.15,9.65a5.51,5.51,0,0,0,2.67,0c.86-.43,1.43-1.9,1.58-3.2.08-.75-2.43-14.23-2.73-14.63-.08-.11-.21-.13-.44,0S89.18,297.46,89.17,297.63ZM216.34,311.2a10,10,0,0,0,.33,2.33c.5,1.61,1.9,2.08,3.79,1.46,3.73-1.24,1.28-4.74-.43-11.19a19.15,19.15,0,0,1-.32-5c.06-.76.14-1.65.14-1.65h-.61l-2.72,12.94a9.24,9.24,0,0,0-.19,1.11ZM73.56,307.89h-.41v.29c0,.13,0,.2.37.69,4.29,6.24,8.37,12.71,13.88,14.13a4.3,4.3,0,0,0,2.37,0,6.89,6.89,0,0,0,1.87-2.33c.36-1,.09-1.56-1-2.31C88.52,316.94,78.54,313,77.34,312a27.93,27.93,0,0,1-3.16-3.59C73.8,307.94,73.74,307.89,73.56,307.89ZM217.49,319.6c-.19,1.56-.14,2.23,1.46,3.13,3.61,2,9.35-3.22,12.1-7.37a43,43,0,0,1,3.55-5.37c.87-1,1.68-1.66,1.27-2.09-.71-.76-2.65,2.58-3.82,3.82a15.05,15.05,0,0,1-3.82,2.28c-1.66.65-9.19,3-10.47,5A1.73,1.73,0,0,0,217.49,319.6ZM94.81,310.44a26,26,0,0,1,.36,3.28c.07,2.06-1.91,10.45-1.64,11.16.48,1.27,1.95,2.14,4.55,1.94,2-.16,2.08-3,1.63-5.31-.25-1.29-2.78-7.6-4.25-11.37-.21-.55-.26-.61-.44-.61h-.41v.91Zm120.06-.7-.91-.21s-3,6.73-4.21,10.37c-.59,1.76-1,5.41.27,6.55.55.48,2.78.53,3.82.09,1.48-.62,1.84-2,1.64-3.77-.28-2.49-2.22-9.18-1.46-11.25A15.52,15.52,0,0,1,214.87,309.74ZM95.81,335.19c2.66.61,4.28.6,4.64-1.88.28-1.91-.68-2.47-2.73-3.49-2.77-1.38-8.34-2.91-11.47-4.1A6.88,6.88,0,0,1,84,324.46c-1.57-1.38-2.94-3.55-3.55-2.91-.14.14-.11.45,0,.79A116.4,116.4,0,0,0,89,331.28C89.92,332,93.47,334.66,95.81,335.19Zm113-3.46c-.88,1,.27,3,.82,3.37,2.43,1.67,7.43-1.48,9.65-3.09.9-.66,9.57-10.08,9.46-10.28-.24-.45-1-.24-2.09,1.09-.36.45-.53.84-.82,1.18a8.67,8.67,0,0,1-2.91,1.64c-3.89,1.43-11.27,3.92-12.1,4.46A10.64,10.64,0,0,0,208.84,331.74ZM102.09,323c-.08.08,0,.27,0,.44.21.75.83,1.18,1.18,1.75a6.6,6.6,0,0,1,.46,2.84c-.14,5.69-1.57,10.81,4,11.35a2.14,2.14,0,0,0,2.55-2.15c.21-2.16-2.1-6.15-3.18-8.23a43.14,43.14,0,0,0-4.39-6.19A.88.88,0,0,0,102.09,323Zm103.84.55c-2.36,3.35-7.46,9.73-7,14.2.15,1.49,1.06,1.89,2.51,1.63,2.72-.47,3.59-1,3.86-3.37s.12-6.39.18-8.9a3.66,3.66,0,0,1,.27-1.57c.47-1,1.83-2,1.37-2.73-.16-.24-.71.05-1.18.73ZM112.1,334.47c-.08.08,0,.27,0,.44.23.89.74,1.22,1.09,1.87a55.05,55.05,0,0,1,0,8.5c-.52,1.9-.62,3.51,1.46,4.58,1.24.64,3.81,1,4.28.09,1.08-2.08-.6-5.53-1.55-7.74a63.41,63.41,0,0,0-4.66-7.92A.84.84,0,0,0,112.1,334.47Zm77.72,13.18c-.41,2.77,1.19,3.22,3.4,2.66,1.93-.49,2.72-1.26,3-3,.29-2-.7-9.06-.36-10.08.25-.76,1.32-2.37,1.09-2.79-.08-.15-.34-.12-.61,0a108.08,108.08,0,0,0-5.85,10.37,22,22,0,0,0-.64,2.8Zm-81.9-.25c1.63.33,2.39.12,2.64-.36,1.07-2.11.83-2.84-.64-3.64-2.39-1.3-15.08-5.34-16.29-6.19-1.42-1-2.77-2.44-3.37-2-1.35,1,5.21,4.41,7,5.82.9.71,1.53,1.42,2.27,2.09A22.12,22.12,0,0,0,107.92,347.39Zm90.46-3.46c-.85,1.44-.21,3.21.67,3.46,2.89.82,8-2.5,10.44-4.1a109.69,109.69,0,0,0,9.46-7.52c.14-.29.16-.52,0-.58-.45-.18-3.87,2.09-6.37,3.37a19.82,19.82,0,0,1-3.82,1.46c-3.95,1.13-7,1.61-9.83,3.46A1.81,1.81,0,0,0,198.37,343.93Zm-87,7.51C121.59,358,125,359.56,136,362.82a23.12,23.12,0,0,0,3.87.88c2.1.29,5.29.49,5.29.49s-5.88-3.7-9.82-6.07a123.66,123.66,0,0,1-10.1-7.75c-1.55-1.8-3.41-4.22-3.41-4.22a32.66,32.66,0,0,1-.41,4.28c-.51,2.38-2.28,2.92-5,2.61-1.83-.21-1.61-.67-4.34-2.21-.55-.31-1.11-.53-1.24-.34a.7.7,0,0,0,0,.41C110.83,351.07,110.88,351.13,111.38,351.44ZM164.52,364v.29s5.14-.64,8.74-1.37a105.55,105.55,0,0,0,11.1-4c2.13-1,14.14-7.74,14.2-8s-.07-.78-.62-.62a20.45,20.45,0,0,0-3,1.85c-2.46,1.54-5.14,1.21-6.55-.12a8,8,0,0,1-.91-3.12c0-1.18,0-2.82,0-2.82s-1.63,2.08-2.73,3.39a15.47,15.47,0,0,1-2.55,2.55c-2.17,1.72-11.37,7.7-17.11,11.49-.49.32-.55.38-.55.51" style="fill:#825b34"/><path d="M71.35,104.83c1.4-5.76,4.67-8.18,8.48-12.73a5.26,5.26,0,0,1,.66-.68c2.83-2.51,4.38,1.85,5.11,3,5.65,9.09,6.74,10.79,13.64,19.22a114.17,114.17,0,0,0,24,21.21c4.46,2.84,9.17,4.75,14.54,4.75h1.07l-2,4.42-2.14,5.75-.81-.11c-4.4-.6-13.27-1.7-17.52-3.12-3.31-1.11-5.85-3.29-5.06-7.2l.24-1.21-6.42-3.08-1.5-1.13c-3-2.23-5.16-3.22-5-7.31l0-.79-4.5-1.71c-3.82-1.45-7.14-2.53-7.14-7v-.4l-1.38-.15c-4.78-.51-6-.47-10.47-2.39-2-.84-4.51-2.29-4.78-3.83S70.78,106.78,71.35,104.83ZM173,136.31l-.35-1.17-2.23-6.69-2.08-6.1v2.23c0,8-.65,11.6-4.31,18.74l-.45.89,7.44,5.95,1.32-.09,8.93-1.15a80.75,80.75,0,0,0,11.84-2.34c3.31-1.11,5.85-3.29,5.06-7.2l-.24-1.21,6.42-3.08,1.5-1.13c3-2.23,5.16-3.22,5-7.3l0-.79,4.5-1.71c3.81-1.45,7.14-2.53,7.14-7v-.4l1.38-.15c4.78-.51,6-.47,10.47-2.39,2-.84,4.51-2.29,4.78-3.83s-.35-3.61-.92-5.55c-1.4-5.76-4.67-8.19-8.48-12.73a5.33,5.33,0,0,0-.66-.67c-2.83-2.51-4.38,1.85-5.11,3-5.65,9.09-6.74,10.79-13.64,19.22a114.2,114.2,0,0,1-24,21.21,31.65,31.65,0,0,1-8.2,3.84c-4.31,1.24-4.66-1.07-5.06-2.42" style="fill:#d9a750"/><path d="M68.21,52.82l43.49-.24,8.89,11.05ZM87.91,23l51.42,23.55-3.12,12.25ZM120.83,8.6l23.31,24-4.08,12.49Zm48.74,37.88,13.5-6.64,5-31.24L169.23,45.45,154.47.43v56l-1.45.15c-13.21.33-38.2,6.82-47.47,16.94l-.58.69,2.28-.9c16.77-7.76,32.13-11.75,47.93-11.63,20.68.27,32.51,5,48.13,11.92l1.38.61-4.81-5,41.33-16.34L188.84,63.39,221.76,23l-48.3,35.32-3.89-11.86" style="fill:#f66014"/><path d="M221.63,23.18,218,27.62,222,23Z" style="fill:#fe8c08"/><path d="M198,52.12l-9.19,11.27,52.39-10.57Z" style="fill:#fe8c08"/><path d="M110.57,69.3c11.34-7.68,31.18-12.44,42.45-12.72l1.45-.15V.43l.25.77-.25-1L144.14,32.63l-4.08,12.49L120.83,8.6l5.08,31.82,13.42,6.15-3.12,12.25L87.91,23l1.62.74-1.86-1,24,29.8L68,52.82Zm1.13-16.72,8.89,11.05L68.21,52.82Z" style="fill:#fe8c08"/><path d="M164.8,31.92l4.43,13.53L188.12,8.6Z" style="fill:#fe8c08"/><path d="M183.07,39.84l-13.5,6.64,3.89,11.86,48-35.07L183.07,39.84" style="fill:#fe8c08"/><path d="M205,232.36l-50.48-9.28h-1.7l-47.52,8.71a1,1,0,0,0-.94.7c-.71,1.39-1.37,2.8-2,4.24-.78,1.87-3.39,10.65-3.91,13.2-3.51,17-3,31,2.09,48,4.36,14.35,13.12,29.53,23.21,39.77,2.37,2.41,10.19,9.38,14.24,12.7,1.67,1.36,9.81,6.76,11.61,7.69,2.3,1.19,5.1,2.52,5.1,2.52s6.38-3.45,11.1-6.34c1.66-1,12.56-9.51,14-10.92,13.49-13.08,23.33-27.32,29.09-46.18,5.37-17.6,5.17-33,1.22-50a59,59,0,0,0-2.37-7.83c-1.1-2.95-2.76-6.92-2.76-6.92" style="fill:#521d19"/><path d="M70,353.75l1.47,1.62,8.22-7.66-1.47-1.55Zm.68,2.36-1.48-1.62L67.62,356l1.31,1.8Zm2.8,6.22,9.72-10.54,1.47,1.47-4.08,4.41,6.53-2.53,1.39,1.47-6.94,2.86-2.7,8.09L77,365.84l2.53-6.94-4.66,4.82ZM83.22,371l8.66-11.92,4.49,3.59-1.14,1.63-2.7-2L90,365.6l2.61,1.72-1.31,1.63-2.53-1.88-2.61,3.68,2.61,2-1.47,1.63Zm16.05,10.88,6.82-13.06,5,2.9-.89,1.78-3-1.63-2,3.68,2.84,1.31L107,378.67l-2.78-1.49-2,4,2.87,1.56-1.22,1.83Zm15.23-8.51-.73,2.12,2.12.9,1-2.12Zm-4.33,11.27-1.06,2.12,2.12,1.06,1.14-2.21Zm12.17,7,8.17-13.15,1.88.57-7.92,13ZM136,379.89h2l1.31,5,2.37-4.08,2.45.25L140,387.57l2,7.6-2.21-.16-1.31-5.39-2.7,4.82-2.12-.41,4-6.94Zm14.54,12.41h2.88l.63,3.59,2.12-.08-2.78-14.37h-2.45l-3.68,14.46h2.53Zm2.55-1.88H150.9l1.17-5.72Zm8.55,5.23,2.29-.08-.49-6.37.3,0c2.16-.2,2,1.68,2.19,3.25l.29,2.9,2-.16-.23-2.82c-.1-1.21-.17-3.57-1.59-4.08l-.56-.2.44-.28.35-.23c1.12-.8.67-2.48.6-3.68,0-.23,0-.42,0-.55-.12-2.07-1.34-2.4-3.16-2.27l-3.26.23Zm1.47-8.09-.25-4.57.59-.11c1.25-.23,1.35.08,1.57,1.18l0,.24.06.76c.07.91.28,2.66-1.12,2.56Zm11.69,6.77,2.26-.35-1.22-6.27.29-.06c2.12-.44,2.21,1.43,2.55,3l.62,2.85,2-.4-.55-2.78c-.24-1.19-.58-3.52-2-3.87l-.58-.14.4-.33.32-.27c1-.92.38-2.54.17-3.73l-.09-.54c-.36-2-1.61-2.22-3.4-1.89l-3.21.6Zm.53-8.2-.77-4.51.57-.18c1.21-.38,1.35-.08,1.7,1l.07.23.15.75c.18.89.59,2.61-.82,2.68Zm13.06,1.05,2.73-1.11,1.9,3.32,2-1-7.7-12.45-2.06.84,1.43,14.43,2.19-.67Zm1.81-2.73-2.09.85-.93-6.14Zm17-1.13-3.3-15,1.65-1,3.38,15.07Zm4.4-20,1.73-1.26,5,14.29-1.65,1.49Zm5.1-3.45,9.42,11.07,1.41-1.49-4.08-4.79,6.36,2.9,2-1.65-7.93-3.53L222.32,355l-1.57,1.41,1.49,6.75-4-4.87Zm8.71-8,3.61-4.08,1.33,1.41L228,351.62l3.22,3,2.12-2.35,1.41,1.41-2.12,2.28,3.14,3.06,2.43-2.67,1.49,1.57-3.93,4.16-10.44-10.2" style="fill:#fff"/><path d="M73.38,324.21s-1.64-2.62-3-4.85c-3.77-6.41-7.68-16.2-9.74-22.2-.79-2.31-5.38-21.1-5.82-23.84a155.6,155.6,0,0,1-1.91-28.85,168.9,168.9,0,0,1,5.55-36.13c1.86-6.43,6.11-18.65,8.83-23.75,3.85-7.22,9.25-17.37,9.1-17.56-1.12-1.51-8.5,8.12-10.1,10.37-2,2.76-11,17.41-12.19,19.84s-7.05,16.43-8.25,19.88-2.32,6.93-3.32,10.65c-2.49,9.28-5.63,25.57-5.27,32,.07,1.2,3.33,14.57,4.1,16.8,3.49,10.12,7.41,20.83,12.29,29.85,4.18,7.74,11.81,20.29,11.81,20.29l7.89-2.52" style="fill:#d9a750"/><path d="M243.67,326.62s7.17-11.82,11.58-20c5.17-9.6,8.76-19.41,12.29-29.58.77-2.21,4.13-15.92,4.19-17.07.32-6.34-2.89-23.74-4.64-30.52-4.08-15.84-13.16-36.06-22-49-1.54-2.24-8.93-11.33-10.28-12.65a3.57,3.57,0,0,0-1.38-1c-.8-.18-.76.48-.53,1.27.31,1,5.33,9.92,8.28,15.38,3.1,5.74,8.32,20.36,10.28,27.76,2.5,9.43,4.26,24.24,4.64,33.47a131.84,131.84,0,0,1-1.37,25.13c-2.05,14.86-7.52,34.88-15.74,48.87-1.44,2.45-3.31,5.43-3.31,5.43s2,.86,4,1.49,4,1,4,1" style="fill:#d9a750"/><path d="M108.4,236s-.83,1.86-1.49,3.46c-2.66,6.46-4.19,15.3-4.91,22-1.67,15.6,1.74,33.19,8.37,47.14,1,2.17,7.24,12.65,8.74,14.74,4.45,6.24,8.52,10.39,14.29,16,1.75,1.7,9.61,8.11,11.28,9.19,4.11,2.66,9.81,5.85,9.81,5.85s3.76-1.81,6.75-3.49c1.28-.72,11.49-8.63,12.92-10,10.18-9.85,15.59-15.52,22.39-28,1.27-2.35,6-13,6.73-15.26,5.11-15.34,6-37.39.18-54.27-1-3-2.63-7-2.63-7l-46.26-8.7L108.4,236" style="fill:#d9a750"/><path d="M129.45,281.21l6.56,4.65s.64-2,1-3.57c.69-2.89.72-13.8.55-16.34-.2-2.9-.66-6.51-.66-6.51s1.3,1.61,2.3,2.85a16.08,16.08,0,0,0,3.4,3.18c3.13.86,6.37-2.6,8.25-6.19.46-.87,1-2,1-2l-3.32-2a13.87,13.87,0,0,0-5.06,6.07s-1.35-1.77-1.3-2.46c0-.47.65-.53,1-.95a1.82,1.82,0,0,0-.37-2.64,6.21,6.21,0,0,0-3.53-.64c-1,.2-2.69.74-2.84.55a.47.47,0,0,1,.18-.64c.61-.43,2.33-.19,2.82-.55.89-.65-2-3.3-2.64-3.82a9.66,9.66,0,0,0-3.27-1.37c-1-.07-2.37,0-2.37,0V247.1a6.41,6.41,0,0,0,2.06.18c.87-.19,1.47-2.12,1.21-2.85s-1.36-1.59-1.55-2.61.43-2.22.09-2.79c-.8-1.35-6.41.34-7.1.7a2.7,2.7,0,0,0-1.46,2.93,2.21,2.21,0,0,0,.27,1c.55.91,2.19,1.52,2.73,2.37a4,4,0,0,1,0,2.91c-.44.61-1.9.57-3,.82a8,8,0,0,0-3,1.37c-.67.65-1.05,1.78-1.7,2-.88.29-1.79-.54-2.21.67s1.33,3.36,2.73,3.88c.31.12,1.3.42,1.09.73,0,.07-.22.06-.44,0a18.63,18.63,0,0,1-3.2-1.51,16.27,16.27,0,0,0-1,1.51,5.74,5.74,0,0,0-.64,2.46,27.14,27.14,0,0,1-.36,3.91c-.57,2.8-2.33,6.63-2.46,8.37a36.54,36.54,0,0,0,.28,6.13l1.45.24c1.52.23,1.74-.07,2.28-1.46a10.57,10.57,0,0,0,.64-2.8c.25-2.69,0-6.41.46-7.57.63-1.67,3.17-4.26,3.91-6.1.18-.43.76-2.05.55-2.34s-1.39-.6-1.09-.85,1.23.11,1.46.27c.56.43,1.15,2.32,1.37,3,1.29,4.1,3.33,13.58,4.23,18.53a1.18,1.18,0,0,0,.65,1Zm48.36-34.11v1.82s-1.15,0-1.89,0a8.3,8.3,0,0,0-6.06,4.16c-.21.45-.42,1-.42,1l3.09.48v.73s-1.75-.42-2.84-.55c-1.66-.19-4.15.39-4.26,2.09a1.16,1.16,0,0,0,.27.82c.3.37.85.67,1,1a2.64,2.64,0,0,1-.85,2.25c-.93.42-1.24-1.49-2-2.55a17.07,17.07,0,0,0-3.35-3s-2.47,1.2-2.84,1.89a.85.85,0,0,0-.09.4c0,.18,0,.26.32.77,2.37,4.08,3.27,5.68,6.46,7a3.73,3.73,0,0,0,2.19,0c1.15-.62,5.4-5.37,5.4-5.37s0,1.13,0,2.06a21.38,21.38,0,0,1-.55,4.27,113,113,0,0,0,.18,12.15c.55,3.28,1.49,7.19,1.49,7.19l6.57-4.61a1.22,1.22,0,0,0,.67-1c.95-4.66,2.42-9.48,3-13.94a43.67,43.67,0,0,1,2.18-7.28c.85-.57,2.1-.6,3.19-1.18s4.28-3.28,2.55-4.37c-.51-.32-1.36-.26-2-.57-.9-.43-1.4-1.59-2.18-2.16a2.71,2.71,0,0,0-.73-.36c-3.5-1.19-5.22-.08-5.1-2.73a2.76,2.76,0,0,1,.46-1.55c.55-.73,1.76-1.11,2.37-1.82a3.71,3.71,0,0,0,.09-3.64c-.87-1.29-4.27-2-5.6-2a1.4,1.4,0,0,0-.61.08c-.16.08-.25.23-.44.25a2.83,2.83,0,0,1-1.18-.47A13.42,13.42,0,0,1,176,242c-.27.82-.78,1.12-1.06,1.63-.72,1.28,0,3.61,1.06,3.64a12,12,0,0,0,1.76-.18ZM151.05,252c-.15.33.17.8.27.95.46.61,1.26,1.55,1.67,1.64s1.06-.25,1.61-.23,1,.33,1.43.23,1.08-.91,1.58-1.46a1.48,1.48,0,0,0,.09-2c-.88-1.41-2.85-1.05-4.83-.91-1,.07-1.17.39-1.82,1.78Zm35.08,7.2a35.74,35.74,0,0,0,1.59,4.12c.86,1.71,2,2.19,2.55,3.28.5.91,1,8.15,1.55,11.28.31,1.82.61,1.88,2.33,1.64,1.12-.16,1.49-.21,1.67-.67a25.26,25.26,0,0,0,0-5.77c-.54-3-2.54-6.85-2.73-10.13-.1-1.72.33-3.12-.82-4.73a13.67,13.67,0,0,0-1.25-1.43,8.2,8.2,0,0,1-1.21,1,13.06,13.06,0,0,1-3.69,1.43Zm-74.58,24.36a2,2,0,0,0,1.7,2.15c1.47.38,2.59-.91,2.95-2.18.43-1.56.69-2.83-.83-3.53a1.5,1.5,0,0,0-2,.87,10.39,10.39,0,0,1-.47,1C112.47,282.5,111.72,282.74,111.56,283.54ZM192.85,281a5.59,5.59,0,0,0,.34,3.28c.59,1.12,2.11,2.07,3.37,1.18,2-1.4.83-2.41-.73-4.4-1-1.26-1.48-1.6-2.41-.73a2.3,2.3,0,0,0-.57.67ZM125,293.05l-2,7.18a5.82,5.82,0,0,0-.23,1.07,3.16,3.16,0,0,0,.05.87,24.36,24.36,0,0,0,.64,3.35,7.83,7.83,0,0,1,.69,2.89c0,.4,0,.46.58.6a9,9,0,0,0,2.06.33c.58,0,1.31,0,1.31,0a15,15,0,0,1-.12-1.82,50.61,50.61,0,0,1,1.94-6.73,2.56,2.56,0,0,0,0-1.77,42,42,0,0,0-2.37-5,1.27,1.27,0,0,1,.29,0c.3,0,.62.57.8,1.09,2.28,6.52,3.25,7.69,7.37,13.52a1.24,1.24,0,0,0,1,.67l4.2.9a71.68,71.68,0,0,0-1.58-7.63c-1.19-4.26-4.94-12.18-5.09-13.65a4.44,4.44,0,0,1,0-1.14c.08-.51,0-.61-.41-1-1.33-1.14-5.24-4.17-6.3-4.42-2.22-.54-4.54,1.93-5.4,4.28-.57,1.55-.64,3.1.45,3.91,1.75,1.3,3.46,1.32,2.39,1.75-.16.06-.19.13-.35.7Zm56.46,1.46-2.19,4.69a1.26,1.26,0,0,0-.08,1.22,60.68,60.68,0,0,1,1.93,6.85c.06,1,0,2.07,0,2.07l3.94-.42s.9-4.28,1.16-6.46c.3-2.54-.66-5.09-1.94-9.42-.17-.57-.21-.63-.45-.63h-.53a36.43,36.43,0,0,0,3.09-2.27c1.22-1.12.51-3.77-.63-5.38s-3.31-2.75-4.52-2.37-6.67,4.67-6.67,4.67,0,.94,0,1.63a4.92,4.92,0,0,1-.45,1.89c-1,2.32-3.2,7.19-3.82,9.28A102.79,102.79,0,0,0,168,310.08h1.31a8.48,8.48,0,0,0,3.24-.82,67.59,67.59,0,0,0,5.37-7.74,37.44,37.44,0,0,1,2.37-6A12.18,12.18,0,0,1,181.43,294.52Zm-53.85-1c0,.27-.05.33-.45.19a.86.86,0,0,1-.66-.66,2.11,2.11,0,0,1,0-.44l.73.53C127.54,293.38,127.57,293.41,127.58,293.5Zm54,.76c-.29,0-.42,0-.29-.31a4.5,4.5,0,0,1,.83-1.08c.3-.24.35-.27.43-.28.26,0,.46.06.19.62a2.31,2.31,0,0,1-.64.73c-.34.27-.39.31-.52.32Zm-46.44,33.26L129,311.62A16.1,16.1,0,0,0,126,311a13.1,13.1,0,0,0-2,0,15.05,15.05,0,0,0,0,2.37,9.83,9.83,0,0,0,.46,1.63,14.32,14.32,0,0,1,.18,1.64c.42,3.6,4.24,8,6.64,11.1,3,3.94,3.4,4.72,7.94,4.91,1.54.07,3.52,0,3.52,0a7.75,7.75,0,0,0,0-.87c-.14-1.35-5.89-3.11-6.71-3.41a1.06,1.06,0,0,1-.85-.84Zm45.06-15.9L174,327.43a1.12,1.12,0,0,1-.85.85c-2.29.92-6.53,2.4-6.64,3.2a7.57,7.57,0,0,0,0,1.15s1.84,0,3.22,0c3.78-.08,4.52-.74,6.42-2.73a81.06,81.06,0,0,0,6.28-8.19c.63-1.21,2.81-6.23,2.82-8.19a22.09,22.09,0,0,0-.18-2.55,12.56,12.56,0,0,0-1.75,0,16.6,16.6,0,0,0-3.17.64ZM151.6,331.19v-.65c0-.29-.05-.36-.55-.69a25.43,25.43,0,0,1-3.73-2.67c-.7-.86-5.31-14.7-5.31-14.7s-3.17-.88-4.91-1.13c-1.07-.16-1.36-.09-1.53,1a11.16,11.16,0,0,0,.82,4.08,77.57,77.57,0,0,0,4.82,8.85c.44.61,2.75,3.81,3.46,4.17a16.31,16.31,0,0,0,2.19.46c1,.3,1.89,1.13,3.27,1.27A9.37,9.37,0,0,0,151.6,331.19Zm6.44.05a3.05,3.05,0,0,0,.87-.05,29.58,29.58,0,0,0,5.89-2A9.2,9.2,0,0,0,167,326.5a1.81,1.81,0,0,1,.14-.68c.12-.16.38-.19.64-.27a82,82,0,0,0,5-9.1,8.06,8.06,0,0,0,.54-2.38c.09-1.08.1-2.72.1-2.72a13.4,13.4,0,0,0-1.46,0,22.83,22.83,0,0,0-4.91,1s-3.52,9.12-4.44,12.87a3.15,3.15,0,0,0-.12.84c0,.38,0,.47-.51.83l-4.58,3.54.12.49c.05.22.1.25.5.3" style="fill:#541a18"/><path d="M118.65,253.84h.78a3.73,3.73,0,0,1,.74.05c1.26.19,2,1.39,2.44,2.48.16.37.32.76.23.93-.37.69-3.81-1.9-3.91-2a.82.82,0,0,1-.27-.58,6.8,6.8,0,0,1,0-.87Zm71.89,0c.19.15.13.61,0,1-.29.84-2.24,2-3.57,2.49-.53.18-.69-.1-.44-1a3,3,0,0,1,2.69-2.42c.46-.09,1-.2,1.31,0Zm-53.87,5.46V256.2l3.72-.15a3.48,3.48,0,0,1,1,0c.82.15.9.52.78.92-.32,1-3.09,2.25-4.44,2.3-.44,0-1,0-1,0Zm35.87-2.88-.2,2.88s-.59,0-1,0c-.89,0-4.93-1.44-4.26-2.79a1.22,1.22,0,0,1,.79-.48,5.23,5.23,0,0,1,2.24,0c1,.14,2.46.39,2.46.39" style="fill:#fff"/><path d="M128.89,281.31l-.6.51,6.65,5,.6-.85Zm-4.78,28.23v.68l4.61.6-.43-.77Zm12.45.43v.68l5.2,1.19-.34-.85Zm30.79,1.79.34-1,4.78-.85.09.77Zm13.39-1.71-.26.68,4.43-.43v-.6ZM173.49,286l.85.85,6.48-5-.6-.51Zm-23.88-31.64-.6.6,2.9,1.88.26-.77Zm1.28-.94-.51.43,2,1.62.09-.6Zm7.51-.17L156.27,255l.34.6,2.47-1.79Zm1,1.19L157,256.07l.34.68,2.9-1.79-.85-.51" style="fill:#fffcdf"/><path d="M57.06,59l-2.11,2.35S46.55,45.21,43.74,38.7c-1.32-3.05-5-12.14-5.4-16.27-.08-.75-.13-1.56-.13-1.56H38s-.36-2.63-.55-4.08a6.64,6.64,0,0,1,0-2.6c.34-1.86,1.44-5.8,1.44-5.8a59.06,59.06,0,0,0-7.44,3.11,41.15,41.15,0,0,0-5.19,5.19c-1.81,3.37-1.74,5.44.09,9.92a126.33,126.33,0,0,0,5.73,11.56c5.57,9.91,17.66,29.16,17.66,29.16L47.85,70S34.79,50.08,33.29,48.53A13.37,13.37,0,0,1,31,46a8.68,8.68,0,0,1-.39-1.45c-.19-.71-4.44-7.21-6.59-10.41A47.48,47.48,0,0,1,20.58,27c-.53-1.4-1.15-3.1-1.15-3.1s-1.87,2-3.16,3.51c-2.67,3.15-4.16,6.33-3.55,8.86a29.43,29.43,0,0,0,3,5.52C18.06,45.22,30.88,62,33.2,64.73,38,70.31,44.19,77,44.19,77L43,79.25s-12.29-13-19.55-21.61S9.4,40.11,9.4,40.11a89.19,89.19,0,0,0-4.54,8.67,7.67,7.67,0,0,0-.14,3.15,18.78,18.78,0,0,0,1.14,2.4,3,3,0,0,0,.8,1c15.67,14.5,19.91,18.65,33.6,30a1,1,0,0,1,.5,1v1.25l-.85-.12a1.53,1.53,0,0,1-.94-.47C29.58,79.7,12.33,66.23,10.91,64.82c-2-2-6.35-6.41-7.89-5.73C1.76,59.64.73,65.22.9,66.82,1,68,1.56,68.65,2.72,69.64c1.93,1.68,36.37,22.85,36.68,23.48.09.18.4.75.27,1.13a6.13,6.13,0,0,1-.55,1s-29.66-17.33-33.3-19c-2.14-1-4.26-1.86-4.26-1.86a14.32,14.32,0,0,0-.83,1.35A15.23,15.23,0,0,0,.23,80.2,8.5,8.5,0,0,0,2.9,85a129,129,0,0,0,11.65,6c10.12,4.49,24.84,10.81,24.84,10.81l.38,2.41s-30.95-12-33-12.42c-2.31-.43-3.49-.31-3.46,1.18a31.57,31.57,0,0,0,2.09,6.1c1.66,3.1,3.8,4.09,8.46,5.73,2.63.93,18.09,5.05,21.48,5.73,2.5.5,4.81.9,7.09,1.27,1.6.26,19.39.73,20.8.55,2.16-.28,4.5-.67,4.5-.67s.28-3.59.73-6.19a48,48,0,0,1,3-7.34C72.72,96.33,76.55,91,79,88.75c.93-.86,2.16-1.9,2.16-1.9s-3-5.79-5.35-10.66c-1.23-2.56-7.61-19.06-8.74-22.57-1.53-4.78-6.68-23.63-7.37-27C57.44,15.75,55.18,1,55.18,1s-1.48.84-2.59,1.54c-9.86,6.17-10,17.47-7,28.12.71,2.53,3.58,10.24,5.37,14.41C53.47,51,57.06,59,57.06,59" style="fill:#b36e11"/><path d="M305.76,92.21h-.36v-.36h-2.26a2.57,2.57,0,0,0-1.27.24c-9.44,3.69-25,9.85-28.38,10.92-2,.63-4.17,1.29-4.17,1.29l.36-1.79c.12-.58.19-.67.73-.9,8.07-3.5,18.71-8,24.15-10.66,4.39-2.13,9-4.52,11.37-5.73a5.63,5.63,0,0,0,1.91-1.91,33.77,33.77,0,0,0,1.37-5.46H309c-.09,0-.11-.06-.26-.63a5.25,5.25,0,0,0-1.16-2.51c-.28-.26-.36-.25-.88,0L271.36,94.47v.29l-1.64.18-.18-1.88s5.27-3.15,10.19-6c3.13-1.84,27.88-18.42,28.12-18.84.67-1.19.75-3.88-.73-7.64-.23-.59-1-1.44-1.29-1.46a2.58,2.58,0,0,0-1,.27,3.18,3.18,0,0,0-1,.63c-10.05,8.24-27.09,22.29-30.25,24.58-2.33,1.68-4.87,3.48-4.87,3.48l-.15-1.43a.93.93,0,0,1,.42-1.08c10.52-9.26,27.39-24,31.45-27.9a28.32,28.32,0,0,0,3.91-4.73,15.42,15.42,0,0,0,0-4.49,50.7,50.7,0,0,0-3.88-7.18c-.48-.33-1-.63-1-.63s-6.9,9.16-14.4,17.95c-6.71,7.87-18.91,20.65-18.91,20.65l-1-2.23s7.49-8.39,13.29-15.14c1.9-2.21,16-21.33,16.65-22.57,2.13-4.11,2.24-6.45-1.64-11.29-1.49-1.86-3.76-4.23-3.76-4.23s-.7,2.51-1.43,4.59A123.15,123.15,0,0,1,282,39.43c-5.8,8-13.32,19.81-20,29.67-.33.49-.39.54-.53.56-.44.05-.65-.14-1-.78s-.74-1.37-.74-1.37S270.91,49,276.55,38.88c3-5.36,7.43-12.67,7.46-16.73,0-2.86-.29-4.38-1.46-6a36,36,0,0,0-5-4.73c-.39-.24-6.22-2.86-7-2.55-.19.08-.18.33-.07.76a22.49,22.49,0,0,1,1,4.15c.75,9.31-4.64,22.1-8.19,29.49s-9.06,18.12-9.06,18.12L252,59.06s2.68-5.47,4.56-9.62c3.3-7.29,8.68-22,8.75-28.64.07-6.29-.83-9.51-4-13.95a19.26,19.26,0,0,0-3.55-3.55C256.23,2.27,254,1,254,1s-1.53,10-2.87,17.29c-1.95,10.57-5,21.06-7.64,30.89-.76,2.76-6.57,19-7.37,20.63-3.18,6.32-7.9,16-7.92,16.5,0,1.13,1.05,1.65,3.73,4.25a77.43,77.43,0,0,1,5.92,8.15c1.42,2.61,3.11,5.79,3.38,9.4.12,1.63.08,3.63.08,3.63s2.55.39,4.87.67c1.49.18,18.78-.29,20.31-.55,3.31-.56,6.67-1.22,10.67-2.09,2.87-.63,21.47-6.18,22.57-6.73,2.27-1.15,3.11-2,4.33-4.62a13.29,13.29,0,0,0,1.19-3.2c.28-1.26.49-3,.49-3" style="fill:#b36e11"/><path d="M151.9,113.4h0c.16.33.33.66.51,1a16.76,16.76,0,0,0,1.23,1.91l.48.81.29.39a17.49,17.49,0,0,0,9.65,7l.93.31-1.22-.65a19.19,19.19,0,0,1-7.74-7.75,2.89,2.89,0,0,0-.25-.4l-1.91-4.26a15.06,15.06,0,0,1-.65-3.19c-.05-1.12,0-2.55,0-2.55h.69c.31,0,.4,0,.91.32,7.76,4.38,10.81,5.84,14.7,12.42a17.75,17.75,0,0,1,1.17,2.3c1.41,3.35,3.44,10.35,3.44,10.35a8.55,8.55,0,0,0,.56-1.25,17.28,17.28,0,0,0-.55-4.77c-.29-1-.45-2.11-.73-3.18a25,25,0,0,0-4.19-8.37c-1.19-1.34-3.27-3.19-3.27-3.19s21.35,6.08,23.75,7.19,4.36,2.12,4.64,2c.13-.05.13-.25,0-.44-.61-.87-7-4.37-8-4.93a63.58,63.58,0,0,0-8.28-3.73c-6.78-2.46-20-6.5-20-6.5s24.76,4.47,28.49,5.49,6.91,2.13,6.91,2.13-1.31-1-2.36-1.68c-3.24-2.15-11.27-4.85-13.83-5.46-5.13-1.23-14.2-2.37-14.2-2.37v-.55s2.36.41,4,.64a25.22,25.22,0,0,0,3.32.27c2.72,0,5.64-.3,10,0s10.11,1.2,10.11,1.2-2.13-1-3.54-1.56a14.59,14.59,0,0,0-3.46-1.09c-4.26-.83-15.25-2.17-15.25-2.17a71.18,71.18,0,0,1,9.33-1.65,60.09,60.09,0,0,1,7.1-.18V97c0-.13-.06-.16-.63-.32a32.8,32.8,0,0,0-7.23-1c-3.67,0-10.16.55-10.16.55a2.42,2.42,0,0,1,0-.61c0-.17.2-.2.36-.21,1-.05,2.71-.57,5-.82a66.48,66.48,0,0,1,8.08-.18v-.29c0-.13-.06-.16-.63-.32a29.62,29.62,0,0,0-6.36-1c-4.44-.2-10.18.63-14.27.36-3.45-.22-6.58-1.09-10.23-1.45-4.13-.41-6.51-.87-8.92,1a6.4,6.4,0,0,0-.91.82c-.58.67-.72,1.41-1.27,1.91s-3.72,1-5.73,1.55c-3.85,1.05-6,3.37-6.64,6.7-.13.68-.21,1.41,0,1.67a.29.29,0,0,0,.44,0c.23-.23.41-.86.84-1.18s.8-.37.9-.66c.15-.45,1.85-.34,1.23-.34h3.09c.43,0-.17-.11,2.4.34,4.52.79,12.5,2.15,13.13,2.48,2.32,1.24,2.89,3.8,4.67,7.45Zm-4.13-17c.39,1.36-1.84,2.1-2.54,2.18-1.29.15-3.88-.47-3.46-2.33s3.27-1.92,4.55-1.4a2.41,2.41,0,0,1,1.46,1.55" style="fill:#b36e11"/><path d="M135.07,99.8l1.35,0c4.17-.15,6.81-.48,10.77,1l.59.23,0-.31A8.54,8.54,0,0,1,150,96c.51-.6,1.3-1.35.35-2.06s-3.62-.66-4.7-.65c-4.85.05-6.84,1.8-9.91,5.71Zm12.71-3.4c.39,1.36-1.84,2.1-2.54,2.18-1.29.15-3.88-.47-3.46-2.33s3.27-1.92,4.55-1.4a2.41,2.41,0,0,1,1.46,1.55" style="fill:#511811"/><path d="M156.65,92.89c2.24,1.89,4,3.62,3.85,6.83-.09,1.44-.75,2.22-2.13,4.11l-.32.43.2.05c1.91.35,24.73,4.48,28.3,5.46s6.91,2.13,6.91,2.13-1.31-1-2.36-1.68c-3.24-2.15-11.27-4.85-13.83-5.46-5.13-1.23-14.2-2.37-14.2-2.37v-.55s2.36.41,4,.64a25.22,25.22,0,0,0,3.32.27c2.72,0,5.64-.3,10,0s10.11,1.2,10.11,1.2-2.13-1-3.54-1.56a14.59,14.59,0,0,0-3.46-1.09c-4.26-.83-15.25-2.17-15.25-2.17a71.18,71.18,0,0,1,9.33-1.65,60.09,60.09,0,0,1,7.1-.18V97c0-.13-.06-.16-.63-.32a32.8,32.8,0,0,0-7.23-1c-3.67,0-10.16.55-10.16.55a2.42,2.42,0,0,1,0-.61c0-.17.2-.2.36-.21,1-.05,2.71-.57,5-.82a66.48,66.48,0,0,1,8.08-.18v-.29c0-.13-.06-.16-.63-.32a29.62,29.62,0,0,0-6.36-1c-4.44-.2-10.18.63-14.27.36-.77,0-1.52-.13-2.27-.23" style="fill:#511811"/></svg>