<svg xmlns="http://www.w3.org/2000/svg" viewBox="0 0 1000 1125"><title>Sudan</title><path d="M324,984.14l31.28-109.92-17.09,12.15c-4.66-3.35-7.81-5.76-12.28-9.27l8.22-23.67-22,12c-4.33-3.9-8.72-8.08-12.63-12L310.57,831l-23.51,9.24c-4.08-4.64-8-9.25-11.69-13.92l13.47-21.08-24.37,6.71c-3.29-4.52-5.91-8.38-9-12.91l14-21.53-55.3,22.69-4.4-11.39,61.49-64.37c3.36-3.52,4.26-8.05.6-11.47l-97.25-90.69c-5.73-5.35-8.76-21.56-4.17-17.13l97.43,94.09,4.71-4.88L129.44,556.06c-6.22-6-13.46-30.06-6.55-23.15l129.7,129.7,4.68-4.91L94.41,494.85c-7.5-7.5-11.47-31.76-4.23-24.12L245.76,633.28l4.76-4.84L72.28,440.6c-6-6.31-11.12-29.17-5-22.62L206.85,567.67l6.38-5.95L55.33,392.4C46.54,383,37,338.5,48.53,351.77L202.15,528.48l7.34-6.33L42.64,330.22c-13.72-15.78-19.38-64.69-7.5-50.53L168.86,439.05l8.85-7.54L27.59,252.6c-11-13.12-20.29-63.37-8.43-49.23L142.45,350.3l8.91-7.47L19.42,185.6C8.11,172.12-1.06,122,11.24,136.67l121.65,145,8.72-7.69L15.08,123.16C3.85,109.77-5,59.84,6.66,73.93L126,216.15l8.91-7.47L19.3,70.92C3.84,52.49-7.74-14.05,8,4.66l297.72,354.8c13.36,15.92,53.53,22.84,53.53,58.91,0,22-10.65,44.3-52.79,44.3l124.7,378.56-56.38,167.21Z" style="stroke:#000;stroke-linejoin:round"/><path d="M274.94,393.67,116.29,204.59c-22.34-26.63-21.7-93.41-4-72.54l196,233.6c12.07,14.39,20.55,15.59,30.35,26.78,13.1,15,13.72,52.28-23.27,52.28-25.31,0-9.87-14.51-14.12-19.62-5.88-7.07-26.35-31.43-26.35-31.43Z" style="fill:#fff;stroke:#000;stroke-width:5px"/><path d="M271.65,447,129.14,277.17c-19.74-23.53-20.49-81.45-4.82-63L299.85,423.35Z" style="fill:#fff;stroke:#000;stroke-width:5px"/><path d="M274.58,507.78,135.74,342.31c-19.74-23.53-20.49-81.45-4.82-63L302.78,484.12Z" style="fill:#fff;stroke:#000;stroke-width:5px"/><path d="M246.39,531.44,154.24,421.63c-19.74-23.53-20.49-81.45-4.82-63L274.58,507.78Z" style="fill:#fff;stroke:#000;stroke-width:5px"/><path d="M283,621.52,189,513.35c-20.15-23.18-23.87-78.51-8.19-60.07L306,602.43Z" style="fill:#fff;stroke:#000;stroke-width:5px"/><path d="M269.59,643.48l-67.36-72.24c-20.95-22.46-28.36-75.06-12.37-56.89L288.39,627.7Z" style="fill:#fff;stroke:#000;stroke-width:5px"/><path d="M676,984.14,644.72,874.23l17.09,12.15c4.66-3.35,7.81-5.76,12.28-9.27l-8.22-23.67,22,12c4.33-3.9,8.72-8.08,12.63-12L689.43,831l23.51,9.24c4.08-4.64,8-9.25,11.69-13.92l-13.47-21.08,24.37,6.71c3.29-4.52,5.91-8.38,9-12.91l-14-21.53,55.3,22.69,4.4-11.39-61.49-64.37c-3.36-3.52-4.26-8.05-.6-11.47l97.25-90.69c5.73-5.35,8.76-21.56,4.17-17.13l-97.43,94.09-4.71-4.88,143.2-138.29c6.22-6,13.46-30.06,6.55-23.15l-129.7,129.7-4.68-4.91L905.59,494.85c7.5-7.5,11.47-31.76,4.23-24.12L754.24,633.28l-4.76-4.84L927.72,440.6c6-6.31,11.12-29.17,5-22.62L793.15,567.67l-6.38-5.95L944.67,392.4c8.79-9.43,18.33-53.9,6.8-40.63L797.85,528.48l-7.34-6.33L957.36,330.22c13.72-15.78,19.38-64.69,7.5-50.53L831.14,439.05l-8.85-7.54L972.41,252.6c11-13.12,20.29-63.37,8.43-49.23L857.55,350.3l-8.91-7.47L980.58,185.6c11.31-13.48,20.49-63.6,8.18-48.93l-121.65,145-8.72-7.69L984.92,123.16c11.23-13.38,20.13-63.32,8.43-49.23L874,216.15l-8.91-7.47L980.7,70.92c15.46-18.43,27-85,11.34-66.27L694.32,359.46c-13.36,15.92-53.53,22.84-53.53,58.91,0,22,10.65,44.3,52.79,44.3L568.87,841.23l56.38,167.21Z" style="stroke:#000;stroke-linejoin:round"/><path d="M725.06,393.67,883.71,204.59c22.34-26.63,21.7-93.41,4-72.54l-196,233.6c-12.07,14.39-20.55,15.59-30.35,26.78-13.1,15-13.72,52.28,23.27,52.28,25.31,0,9.87-14.51,14.12-19.62,5.88-7.07,26.35-31.43,26.35-31.43Z" style="fill:#fff;stroke:#000;stroke-width:5px"/><path d="M728.35,447,870.86,277.17c19.74-23.53,20.49-81.45,4.82-63L700.15,423.35Z" style="fill:#fff;stroke:#000;stroke-width:5px"/><path d="M725.41,507.78,864.26,342.31c19.74-23.53,20.49-81.45,4.82-63L697.22,484.12Z" style="fill:#fff;stroke:#000;stroke-width:5px"/><path d="M753.61,531.44l92.14-109.81c19.74-23.53,20.49-81.45,4.82-63L725.42,507.78Z" style="fill:#fff;stroke:#000;stroke-width:5px"/><path d="M717,621.52l94-108.17c20.15-23.18,23.87-78.51,8.19-60.07L694,602.43Z" style="fill:#fff;stroke:#000;stroke-width:5px"/><path d="M730.41,643.48l67.36-72.24c20.95-22.46,28.36-75.06,12.37-56.89L711.61,627.7Z" style="fill:#fff;stroke:#000;stroke-width:5px"/><path d="M475.18,191.21a72.69,72.69,0,0,0-8.32.39,147.81,147.81,0,0,0-51.8,15c-13.66,6.85-14.35,14.19-14.35,22.13,0,7-1.63,7.93-6.78,7.93-20.8,0-29.24,7.08-37.05,15.38-15.51,16.47-12.18,42.93-9.57,61.73,2-10.67,6.25-24.81,11.08-24.07,5.87.9,12.36,6.39,25.43,3.45,4.36-1,10.15-1.67,15.35-.58,6.22,1.31,5,7,13.2,15.38,15.45,15.73,26.32,34.88,36,52.4,4.54,8.23,7.49,19.89,7.81,28.82.39,10.68,2.64,22.18-.18,32.72-4.4,16.44-15.68,18.59-18.59,27.73-7.76-.48-11.94,4.56-14,11.44-6.14,1.49-10.88,5.13-12,11.5-4.47,1-9,2.8-10.17,7.63-5.8,0-10.06.8-13.32,5.57-4.75-2.11-10.58-2.89-15.74,2.66-6.07-4.86-13.57-4.92-17.29-2.15-1.22.91-2.84-.56-3.09-3.48-.47-5.43-6.16-9.7-12.93-9.48,1.3-3.9-.82-9-3.63-10-1.81-.61-2.42-2.18-2.42-4.81-3.62-2.92-14.71-11.38-14.71-20.56,20.93,0,21.13-32.94-2.72-41.5-22.17-8-45.52,11.72-54.28,37.45-28.22,82.89-11.56,149.59,8.23,213.36H730c19.79-63.77,36.45-130.47,8.23-213.36-8.76-25.73-32.11-45.41-54.28-37.45-23.86,8.57-23.65,41.5-2.72,41.5l-4.3,23.46c0,1.22.47,3.19-.39,4.27-2.81,3.5-2.36,5.56-.61,8.26,1.14,1.76,1.93,4.17-.24,5.3-2.54,1.32-3.38,2.45-3,5.09.25,1.59-.62,2.57-2.54,2.3-2.72-.38-5,.84-6.15,4.06a2.18,2.18,0,0,1-3.75.67c-1.56-1.56-3.44-1.86-5.81,0a5.57,5.57,0,0,1-6.57-.48c-3.36-3.36-9.32.17-9.08-1.15,1-5.58-4.85-12.67-10.2-12.56,2-5.54.22-13.19-7.33-15.62,1-4.7-2.46-8.5-7.42-9.75,2-3.89,1.64-11.56-4.51-14.53,1.57-6.43,1.77-16.9-3.66-19.89-3.44-1.39-15.12-44-21.28-67.14,10.75,22.86,20.31,48.34,43.11,57.18,13-38.31-43.84-105.31-54-121.82-2.22-3.61-.22-5,2.54-1.82,42.53,49.37,80.25,88.18,120,72.53-8.16-27.1-67.93-44.48-110.28-80.4-2.45-2.07-1.12-4.43,2.54-2.6,42.62,21.27,80,43.52,113.34,29.61-22.17-21.2-75-32.48-119.61-46.07-5.61-1.71-8.91-8.87,2.88-7.6,58.51,6.31,139.64,54,172.95,9.23-24.58-25.55-109.7-23.26-161.32-22.16-19,.41-28.34-1.53-40.57-7.93-7.47-3.91-33.65-18.59-50.16-28.82A59.42,59.42,0,0,0,475.18,191.21Z" style="fill:#fff;stroke:#000;stroke-linejoin:round"/><path d="M474.09,191.37c-.75,0-1.52,0-2.27,0A107.25,107.25,0,0,0,455.59,193c-13.79,2.42-27.6,6.61-40.08,13.23-9.62,5.11-13.52,9.63-14.62,17.83-.31,2.31-.32,7.69-.94,9.48-1,2.89-3.61,3-9.2,3.12-10.5.22-21.67,3.15-31.6,12.87-12.82,12.52-17.46,33.21-11.75,62.88,3.06-8.09,2.48-14.83,8.08-21.1,2.2-3.32,7.92.42,10.81,1.12,13.14,3.91,21.1-.73,29.42-.15,5.59.39,7.47,1.32,11.65,9.48,2.87,5.6,16,16.39,26.85,34.42,6.55,10.86,16,23.72,19.74,39.23.33,1.37.68,2.94,1,4.63a79.34,79.34,0,0,0,1.33,8.81c-.07,8.7,2.47,21.09-.24,32.79a.56.56,0,0,1-.15-.27,36.79,36.79,0,0,1-1.51,5.06c.08.21.18.4.27.61a14.71,14.71,0,0,0-3.18,5.21c-1.06,2.51-6.62,7.47-11.17,12.08a2.67,2.67,0,0,0-.58,1,13.63,13.63,0,0,0-2.33,4.36c-10-.61-12.89,8-14,11.17-3,1.4-10.5,2.88-11.93,11.62l-.73.15c0,.24,0,.46-.06.7-3.36-1-9.68,4.6-9.66,7-6.37-.47-11,1.88-13,5.24-7.39-2.86-12.86-1.21-16,2.85-5.31-4.71-13.63-5.42-17.86-1.91-3.89-.22.34-12-15.29-13.38-.05-1.57,2.29-7.26-5.06-10.47a9.07,9.07,0,0,1-1.36-4.3c-2.06-1.4-15.11-12.53-14.23-20.1,15.65-.91,17.27-16.3,13.8-25-6.89-17.35-22.34-20.43-34-17.68-16.42,3.87-31.11,19.37-38.57,43.17-13.4,42.79-16.85,80.53-11.17,120.3,4.64,32.46,8.39,48,21.22,88.37H729.92s14.2-48.63,18.44-71.29a272.21,272.21,0,0,0,2.18-90c-4.57-31-11-61.41-28.4-78.28-10.86-10.52-23.61-16.35-37.93-11.41-9.67,3.33-18.2,10.28-18.31,25.37-.11,14.84,11.88,16.32,15.14,16.32l-4,22.95c-.29,2.39.38,3.24-1.09,5.66-4.13,4.46,3.06,9.32.42,11.69-6.86,3.84-1.93,8.56-5.12,8.26-8.2-.75-5.68,5.55-10,5.36-5.85-3.87-3.75-.24-10.38,0-2.94-.17-4.77-4.24-11.81-1.91.19-2.95-1.81-12.12-10.23-13.14,2.1-8-2.74-14-7.93-15.56,2.08-2.28-1.41-8.33-6.51-9.78,1.81-8.56-1-12.48-5.09-14.65,2.17-5.69,1-16.58-3-19.31-5-1.71-13.19-37.5-17.83-52.83-4.23-13.27-2.5-11.52,2-.94,5.59,10.5,16.69,36.29,37,43.32,6.57-20.8-6.19-45.45-12.56-58.34-10.49-20.36-25-40-39-59.06-5.88-9.16-3.74-11.55,5.72.82,25.78,27,68.06,83.6,114.46,65.78-7.43-27.44-71.93-46.56-106.59-77.83-9-5.48-5-7.92,3.3-2.72,44,22.25,79.24,39.67,108.41,27.09-16.63-19.44-89.42-37.07-113.34-44.47-15.84-3.47-16.47-12.91,8.66-7.39,51.49,9.15,131,49.53,161.29,7.54-25-27.91-133.73-22.53-149.58-22.43-15,.09-32.89,1.83-46.77-5a587.76,587.76,0,0,1-56.13-31.85C496.46,193.64,485.36,191.41,474.09,191.37Zm7,11.59c1.82,0,3.13,1.38,5.6,4,1.18,1.27,2.22,2.69,4.27,2.06,4.28-1.31,5.15,2.26,8,5.15,1.4,1.42,2.67,3.62,4.78,3.18,7.76-1.6,4.29,1.95,4.3,3.21,0,2.18,2.72,1.79,4.69,1.63,3.61-.29,5.58-.7,3,3.87-1.37,2.46.25,3.39,1.21,3.09,2.92-.9,4.78-1,5.15,3.72.12,1.6.16,3.65,2.27,4.45,1.38.52,3,.5,3.09,1.66.1,1.94-2.49,1.59-4.84,3.3-2.51,1.83-4.58,3.09-6.72,4.57-9.52,6.61-13.65,8.72-13.65,15.62,0,1.15.21,4.52-1.57,3.87-1-.35-1.13.59-1.06,2.33.32,8.07,1.13,9.49-5.57,8.63-5-.65-5.18,3.32-5.51,16-.25,9.61-.27,13.08-2.27,15.5-3.74,4.53-8.57,6.34-12.35,1.66-.91-1.13-.63-2.09-3.45-2.12-1,0-1.55-1.52-1.7-2.33-.27-1.55-.64-3.71-2.82-3.75-1.9,0-.44-3.36-6.63-3.91-4-.35-7,.6-3.72,1.39,3.06.74,5.66.91,5.66,2.48a2.56,2.56,0,0,0,1.94,2.36,2.66,2.66,0,0,1,2.12,2.79c-.39,5.4,4.19,8.63,7.93,11.17a7.57,7.57,0,0,0,5.63,1.45c2.12-.09,3.93.29,4.87-.61.43-.41.89-1.33,2-1.3.69,0,1.63-.74,2.75-1.76,1.9-1.72,1.88-1.46,2.66-.27,5.93,9.05,12.08,15.61,36.48,32.57,3.44,2.4,7,1.64,2.12-1.91-12.61-9.17-36.42-28.74-37-36.45-.32-4.48.38-4.78,3.6.58,7.08,11.76,24.08,18.39,40.69,23.76a7.75,7.75,0,0,0,1.33.27,2.53,2.53,0,0,1-1.06,1.12c-2,.78-2.11,3,.42,5.24,1.16,1,2,1.61,1.39,4.18-.52,2-.56,3.91,1.21,5.27,1.23.94,2.44,1,2.12,3.3-.11.77,1.33,2.64,2.75,3.57,2.17,1.42,3.15,1,4.63-.15,1.13-.91-.46-3.06,1.09-3.6,4-1.39,2.05,1.42,3,1.73,4.38,1.38,5-1.2,8.2.36,4.71,2.32,3.84-6.93,4.84-7,1.29,0,1,6.68.88,7.48-.55,5.83-4.27,2.84-4.39,5.27-.11,2.27-1.77,1.57-2.69-.06-1.19-2.11-2.82.12-2,3.27.53,2.12,1.67,2.45,4,2.12s3.73-.15,4.39,1.79c.54,1.58.81,4.33.54,4.75a3,3,0,0,0,1,2.69c2.3,1.55,1,1.08-2.75,2.79s-3.31,6.67.09,6.12c2.62-.42,2.72,4.22-.91,5.48-2.89,1-5.28-1.48-5.75-6.57-.53-5.7-.31-6,1.85-7.2,1.39-.77,2.26-1.91,2-2.66-.42-1.09-1.12-1-3.42.3s-3.78,2.3-3.57,6.42c.25,4.87-1.1,11.29-6.27,11.29-2.34,0-4.29-.4-7.08-4.72-1.39-2.16-1.93-2.94-3.27-2.75s-1.79,4.86-2.51,6.93c-1.1,3.15-1.84,5.42-4.51,5.42s-6-1.58-8.08-7.08c-.88-2.38-.94-3.36-2.3-3.12s-1.19,1.35-1.33,3.09c-.37,4.54-1.82,8.14-5.66,8.14a6.8,6.8,0,0,1-6.21-3.24c-1.3-2-1.54-3.08-2.69-3s-1.11,1.12-2.12,3.12c-1.41,2.79-2.53,3.72-4.18,3.72s-2.85-1.15-4.12-3.66c-1.16-2.29-1.08-3.1-2.18-3.18s-1.39,1-2.69,3a6.75,6.75,0,0,1-6.18,3.24c-3.84,0-5.32-3.61-5.69-8.14-.14-1.73,0-2.85-1.33-3.09s-1.42.74-2.3,3.12a11.25,11.25,0,0,1-4.51,6c-1.59-1,.68-10.37-.79-12.08-.74-.87,2.56-.38,2.79-1.21s8.52-4.74-3.42-4.9c-3.39.08-4.67-3.69-1-3.57,4.9.16,4.56-.41,4.42-1.48-.4-3.18.9-3.68,1.79-5.54,1.14-2.41.34-3.94-.85-4.33-.63-.21-1,.95-1.09,2.18-.13,2.26-2.47,3.64-5,1.33-3.05-2.76-4.9-6.35.18-5.9,2,.18,3.39.47,3.75-.45.6-1.51-1.79-2.27-4.72-2.54-3.39-.31-3.4-2.29-2.48-4,.59-1.11,1.56-2,1.27-3s-2.94-.84-3.69,1.3c-.51,1.45-2.11,2.69-3.36.73-1.83-2.88,1.62-2.44,2.39-4.63.87-2.49.72-2.45-1.36-3.91a4.76,4.76,0,0,1-2.18-3.06c0-2.9-3-7.29-5.27-7.69-3.64-.63-7.48-4-8.42-7.36-1-3.58-2.44.39-3-1.18-1.43-3.83-8.16-5.08-7.6-6.08.74-1.33,5.81-.84,5.87.21,0,.59.32,1.47.91,1.48,1.23,0,1.27-1.29,1.27-2.63,0-1.73-.36-2.68-2.63-3.54-1.77-.67-4.39-1.09-4.24-.15.27,1.74-3.86,2.26-5.66,1.24-1.51-.85.25-2.15.48-3.45.32-1.83-1.95-2.18-4.63-3.42-2.35-1.09-2.91-2.67-3.45-4.84s-.22-3.23-3.75-4.33c-1.52-.47-5.58-1.81-4.69-2.72.71-.74,2.63-.57,1.76-2.54s-5.66-4.64,4.39-2.72c2.51.48,4.77-.05,4.9-1.48.18-1.93-3.11-3.08-9.69-3.18-3.39-.05-6.56,1.12-9-1.42s-13.76-2.77-18,.27c-6.76,4.87-12,2.86-17.13.67s-5.46-2.7-3-4.75a30.7,30.7,0,0,1,12.35-6c3.7-.83,24.68-3.07,23.13-.39s16.67,5.21,16.62,2.15c-.06-4.14,11.4.55,13,4.57,1.51,3.76,2.72,4.76,7.6,2.27,2.86-1.46,6.49.45,7.05,1.7.91,2,4.35,1.58,5,.21.29-.59,1.21-1.12,3.27-1.15,2.26,0,3.33.5,3.75,1.15A2.36,2.36,0,0,0,461,287a3.53,3.53,0,0,1,2.72,1.06,3.65,3.65,0,0,0,2.79,1.09c1.16,0,2.77.58,3.12,1.48a7.92,7.92,0,0,0,3.45,3.45c2.62,1.33,6.41-.08,5.54-2.33-.3-.77-1.51-1.58-1.51-2.3,0-3-4.79-7.18-11.08-7.27-4.62-.07-12.69-3.29-26.64-7.14-4.74-1.31-9.82-2.46-15-3.6-6.79-1.51-14.26-3.92-28.37-3.91-9.26,0-14.92.42-15.92-.12-1.91-1-3.06,2.59-8.11,3.42-1,.17-1.88.5-1.88,1.09s-.81,1-1.57,1.15c-1.32.19-3,1.71-4.39,2.36-1.85.85-2.93,2.4-4.9,3.75-3.2,2.2-3.66,2.12-5.21.58-2.12-2.12-1.87-10.87.3-10.84,2.49,0,2-1.32,1.39-3.33-.48-1.72,1.93-1.16,3.54-3.09.52-.62-1.59-4-.54-3.72,4.13,1,3.43-3.08,3.75-3.94.54-1.41,1.37-1.67,1.7.09.39,2.06,1.63,1.88,2.36-.42.39-1.24.63-3.21,3.45-2.72,2.23.38,4-.1,3.75-2.36-.41-3.78.39-4.77,5.12-4.06,3,.46,6.56-.09,7.6-.85,1.5-1.1,2.27-1.75,3,.51.44,1.3,2.15,2.68,3.54,2.3,1.67-.46,2.63.5,2.63,1.09s.68,1.06,1.51,1.06,1.22.93,1.51,1.66,2.07.27,1.85-1.48c-.1-.75-.23-4.37,1.06-4.3s1.11-.89,1.24-1.73c.2-1.25,3.43-1.85,6.63-1.06,2.16.54,3.75,0,4.24,1.6.17.57,1.55,1.15,2,.67,1.51-1.75.68-3.8-3.21-5.09-2.12-.7-3.78-3.29-2.36-3.42,2.55-.23,2.59-1.33,1.57-4-1.14-3-2.39-1-2.39-3.42,0-1.38,2.73-1,2.69-3.06,0-.54.21-3.45,1-3.3,3.44.66.25-4.45,3.78-4.12,1.32.12,2.57.23,2-2.33-.38-1.77.09-2.92,2.85-2.36,1.55.31,4.15.24,4.27-.67.45-3.41,4.12-4.62,9.57-3.75,3,.47,6.39,1.09,5.84-1.48-.82-3.81,3.42-2.31,11.35-2.94,9.45-.75,10.44,1.85,13.14,2.09,3.64.32,7.24.36,8.42-1.3,1.53-2.17,2.19-1.48,5.51-2.48a4.8,4.8,0,0,1,1.36-.24Zm-.45,4c-.78,0-1.63.56-1.63,1.27,0,.26,1.08.64,2,.64a.87.87,0,0,0,.79-1.39A1.24,1.24,0,0,0,480.66,207Zm-23.13,1.79A3.76,3.76,0,0,0,455,210c-.38.61,1,1.54,2.6,1.54s2.41-1.18,2-1.79A2.68,2.68,0,0,0,457.53,208.74Zm18,2.91c-1.33,0-2.55.23-2.33.76.58,1.41,4.19,1.38,4.69,1.33a1,1,0,0,0,.7-1.82A9.14,9.14,0,0,0,475.51,211.65Zm-29.36.12a12.6,12.6,0,0,0-2.79.36A46.25,46.25,0,0,1,432,213.46c-1.44,0-.82,2.6-.15,2.66,2.46.25,6.28-.4,9.45-.94,3-.5,7.26-1.46,8.11-2.06S448.67,211.73,446.15,211.77Zm.36,3.39a1.58,1.58,0,0,0-1.3,1.57,1.68,1.68,0,0,0,1.48,1.7c1.51.35,1.34-2.87.09-3.24a.83.83,0,0,0-.27,0Zm-17,4.9a4.6,4.6,0,0,0-1.3.12c-1.72.42-3.34.27-3.15,1.21.12.58,1.11,1.37,2.88,1.21s4.19.26,4.3-1.3C432.27,220.67,430.86,220.13,429.5,220.06Zm101.66,22.07c1.3-.23,3.44,1.32,1.15,2.15-3.19,1.16-8.1,4-10.23,5-1.72.82-3.44-.79-1.73-1.82s7.74-4.12,10.57-5.27a1.2,1.2,0,0,1,.24-.09Zm14,2.15c2.19-.11,4.64,3.11.76,4-8.18,1.92-18.25,3.59-28,10.57-1.19.85-4-1.07-2-2.36,9.87-6.52,19.22-9.57,28.85-12.17A2.23,2.23,0,0,1,545.17,244.28Zm5.51,7.14c1.85,0,3.14,3-.73,2.94a84.23,84.23,0,0,0-12.47.91c-1.76.31-2.24-1.49-.58-1.91A57,57,0,0,1,550.68,251.43Zm-2.12,5.81a29,29,0,0,1,3.57.18c1,.13,2.14.6,1.85,5.42-.14,2.22.29,4.77,2,5.9,2.32,1.54-1.06,2.15-4.42,2.12-2.07,0-1.9,2.33-.15,2.45,3.86.26,6.94,2.86,4.6,3.72a5.14,5.14,0,0,0-1.39.79c-1.37,0-2.88-.06-4.63-.06-1.41,0-13.72.16-22.25.24-5.8.06-11.67.4-11.78-1.15-.16-2.23,7-1.42,9.17-2,4.88-1.38,14.86-5,22.31-5.18,2.7-.06,4-2.6-.48-2.54-7.73.09-13.89,1.71-20.07,3.63-1.77.55-2.87-.07-1.3-2.06,2.73-3.46,12.23-5.23,18.68-6.39,1.19-.21.89-2.58-1.21-2.33-6.7.79-16.2,3.44-21.74,6.48-1.45.79-2.48-.86-.54-1.91,6.19-3.34,10.06-5.22,14.53-6.18A80.55,80.55,0,0,1,548.56,257.24Zm4.39,22.7a6.23,6.23,0,0,0-.58,2c-6,.23-22.22-.12-27.43.42-8.77.92-10-1.66-3.72-1.88,7.38-.25,26.32-.54,29.21-.54.89,0,1.72,0,2.51,0Zm-48.28,5.15a5.33,5.33,0,0,1,.64,0,7.41,7.41,0,0,1,1.7.27c5.41,1.5,12.87,1.79,23.85,1.79,18.56,0,19.67.26,22.34,1.51,2.38,1.12,5.48,4.79,4.57,6.05-1.19,1.65-4.4-.49-7.14,0-2.45.41-3.86,5.8-1.24,7.51,5,3.24,1.46,2.82-.45,6.3-2.18,4-6.83,5.94-10.81,6.36-2.75.29-3.21,3.11,1,3.21,2.62.06,5.21-.49,6.9.73,2,1.46,1.3,3.71-2.3,3.39-2.47-.22-2.78-2.46-4.33-2.09s-1.57,6.34-.06,6.84c1,.34.83,3.16.12,5.6-.32-.12-.62-.26-1-.39-19.37-6.61-31.88-13.76-39.81-24.85-4-5.56-3.11-8.89,0-5.72,8.29,8.37,17.78,13.86,30.48,18.07,2.71.9,4.06-.28.39-1.94-18.24-8.26-20.84-11.94-28-19.1-5.89-5.89-4.1-8.31,2.57-1.88,10.1,9.73,24.33,11.44,33.12,12.14,9.48.75,9.39-2.16,1.06-2.72-12.13-.82-21.07-4.6-27.31-9.14-2.13-1.55-1.75-3.11,1.06-2,8.43,3.24,23.33,3.18,26.31,3.18,5.66,0,5.47-2.63-.36-2.75-12.32-.26-23.82-2-32.42-5.39-4.19-1.67-3.87-4.66-.88-4.9Zm-77,19.43c-1.75.1-2.8,1.07-1.51,2.09s2.75,1,4.15-.76c.44-.54-.79-1.24-1.85-1.33A5.44,5.44,0,0,0,427.62,304.52Zm144.07,55.91c1-.21,1.25,2.8,1.27,3.66.08,2.79-.52,4.77-1.51,4.6s-1-2.39-1-3.24S571,360.58,571.69,360.44Zm-43.32,4a1.55,1.55,0,0,0-1.3,1.51c-.46,5.49-2.3,12.77-6.78,12.77s-6.36-7.9-7.39-11.72a1.39,1.39,0,1,0-2.69.64c.92,6,4,13.93,10.17,13.93,7.24,0,9.25-10.19,9.6-15.59A1.38,1.38,0,0,0,528.37,364.43Zm46.11,9.29a2.11,2.11,0,0,1,2.3,2.24c0,.6.08,2.38-.64,2.54s-2.76-1.16-3-1.94C572.46,374.68,572.63,374,574.47,373.73Zm-2.3,8.29c2.23,2.21,3.54-1.07,4.21,0,1.56,4.11.87,7.59.61,10.26a3.28,3.28,0,0,1-3-1.94A20.2,20.2,0,0,1,572.17,382Zm-31.48,7.48c1.79,2.7,4.29,5.58,8.57,5.69-.21,3.89.42,6.9-1.39,13.65-2.28,8.52-6.61,7.91-10.5.54a28.86,28.86,0,0,1-3-9.57C538.75,398.15,539.43,394.21,540.69,389.5Zm17.13,0c1,2.22,2.84,6.06,7.93,6.24.39,2.13.67,9.89-1,13.53-3.68,7.86-12.12,1.26-12.32-7.45-.09-3.87-.06-5.6-.06-7C555.86,393.54,556.51,392.36,557.82,389.53Zm13.35,1.82c1.46,2.74,3.62,3.87,5.63,3.87,3.24,6.83-4.29,5.55.48,15.32-2.72,1.55-6.27-1.42-6.93-3A19.22,19.22,0,0,1,571.17,391.35ZM476.87,394c.38,1.5,1.72,5.87,6,6.84.2,3.16-.62,5.55-1.85,8.63-2.43,6.11-9.81,8.43-11.81-.67a26.89,26.89,0,0,1-.7-8.84A11.53,11.53,0,0,0,476.87,394Zm46.26,0a11.53,11.53,0,0,0,8.32,6,26.89,26.89,0,0,1-.7,8.84c-2,9.1-9.37,6.77-11.81.67-1.23-3.08-2-5.46-1.85-8.63C521.41,399.88,522.75,395.51,523.13,394Zm-29.76,2.63c1.64,3.72,3.61,4.48,4.66,4.75-.18,2.64.18,4.88-1.63,10.5-1.92,6-7,9.71-9.2,1.42-1.49-5.55-1.61-8.31-1.09-12.29A9.52,9.52,0,0,0,493.37,396.64Zm13.26,0A9.52,9.52,0,0,0,513.9,401c.52,4,.4,6.74-1.09,12.29-2.22,8.29-7.28,4.53-9.2-1.42-1.81-5.62-1.45-7.87-1.63-10.5C503,401.13,505,400.36,506.63,396.64Zm-200.28,1.42a28.15,28.15,0,0,1,14.23,4.45c-2.07,3.94-3.35,5.83-8.6,7.08-3.23.77-7.49,2.15-10.08,1-1.33-.58-1.82-5-2.12-11.87A27.12,27.12,0,0,1,306.35,398.07Zm387.31,0a27.12,27.12,0,0,1,6.57.7c-.3,6.82-.79,11.29-2.12,11.87-2.59,1.12-6.85-.26-10.08-1-5.25-1.25-6.53-3.14-8.6-7.08A28.15,28.15,0,0,1,693.65,398.07Zm-397.48,1.57a28.06,28.06,0,0,1,.94,9.78c-.32,2.92-5.35,3.42-7.48,3-2.39-.51-3.72-2.89-5.18-5.45A46.06,46.06,0,0,1,296.18,399.64Zm407.65,0a46.06,46.06,0,0,1,11.72,7.3c-1.46,2.56-2.79,4.94-5.18,5.45-2.13.45-7.16,0-7.48-3A28.06,28.06,0,0,1,703.82,399.64Zm-380.59,5a23.53,23.53,0,0,1,6.48,9.9,13.11,13.11,0,0,1-4.57,1.51,5.19,5.19,0,0,1-5.51-5.45C319.73,409,321.43,406.73,323.24,404.64Zm353.52,0c1.81,2.1,3.51,4.41,3.6,6a5.19,5.19,0,0,1-5.51,5.45,13.11,13.11,0,0,1-4.57-1.51A23.54,23.54,0,0,1,676.76,404.64ZM551,408.36c1.88,6.26,11.07,10.73,15.53,3.78.76,2.14.78,7.07.21,10.44-1.92,11.32-9.35,6-11.9,3.45A38.05,38.05,0,0,1,548,415,17.6,17.6,0,0,0,551,408.36Zm-17.19.21c2.95,7.45,5.69,10.55,10.87,8.87-.47,4.42-.89,6.12-1.94,8.66-2.56,6.23-8.74,5.71-11.56,1.39-1.93-2.95-3-4.09-1.7-11C531.65,415.14,533.31,411.57,533.81,408.57Zm-251.72.48c1,1.34,2.8,3.5,3,5.57.29,2.66-2.9,4.66-5.45,4.84-1.08.08-2.8-.4-4.93-1.82A63.89,63.89,0,0,1,282.1,409.06Zm435.8,0a63.89,63.89,0,0,1,7.36,8.6c-2.14,1.42-3.85,1.89-4.93,1.82-2.55-.18-5.74-2.18-5.45-4.84C715.1,412.56,716.93,410.4,717.9,409.06Zm-217.9.82c.75,3.32,2.34,8.45,6.42,10.5.33,4.63-2.89,10.35-6.42,10.35s-6.75-5.73-6.42-10.35C497.66,418.32,499.25,413.19,500,409.87Zm-16.41,1c1.2,5.92,2.93,7.65,4.39,8.87-1.19,3.52-1.88,6.33-3.27,9.08-1.87,3.71-6,6.42-8.08.3-1.32-3.79-1.6-6.25-2.69-11.5C479.14,418.3,481.85,414.77,483.59,410.9Zm32.82,0c1.75,3.87,4.45,7.4,9.66,6.75-1.1,5.25-1.38,7.71-2.69,11.5-2.12,6.12-6.21,3.41-8.08-.3-1.39-2.75-2.08-5.56-3.27-9.08C513.48,418.56,515.21,416.82,516.41,410.9Zm52.89.15a9,9,0,0,0,6.3,2.95c3.53,3,1,7.83,7.44,9.25-1.67,3.14-5.13,3.81-9-1.85C572.54,419.14,567.63,409.28,569.29,411.05ZM313,412.29c4.6.06,7.83,3.79,6.54,8.63-1.08,4.06-4.86,6.09-6.93,5.3-1-.4-1.74-1.2-.54-3.21a1.44,1.44,0,0,0-2.45-1.51c-2.75,4,.08,7.91,4.18,7.78,4.57-.15,7.39-4.27,8.26-6.63,1.35-3.62,3-2.89,8.42-5.21.38,2.4,1,10.62-3.42,14.08-5,3.91-11.5,3.64-16.62,2.3-5.77-1.51-8.62-6.67-6.66-13.17C305.71,414.34,309.75,412.25,313,412.29Zm373.93,0c3.29,0,7.33,2,9.23,8.36,2,6.5-.89,11.66-6.66,13.17-5.12,1.34-11.58,1.6-16.62-2.3-4.46-3.46-3.8-11.68-3.42-14.08,5.46,2.32,7.07,1.58,8.42,5.21.88,2.36,3.69,6.48,8.26,6.63,4.1.13,6.93-3.75,4.18-7.78A1.44,1.44,0,0,0,687.9,423c1.2,2,.49,2.81-.54,3.21-2.07.79-5.85-1.24-6.93-5.3C679.13,416.08,682.37,412.35,687,412.29Zm-387.85,1.42a10.22,10.22,0,0,1,1.3.09c2.74.4,2,5.11-.94,7.6-2,1.66-7.8,2.26-9.57-.54-.73-1.15-2.54-3.79-.73-4.93s6.63-2.25,9.93-2.21Zm401.78,0c3.3,0,8.12,1.07,9.93,2.21s0,3.78-.73,4.93c-1.77,2.8-7.61,2.21-9.57.54-2.92-2.49-3.68-7.2-.94-7.6a10.14,10.14,0,0,1,1.3-.09ZM469.15,416c.36,0,1.23-.14,1.36.48,1.44,6.58.23,8-1.7,11-1.58,2.41-3.41,3.76-3.8,1.81-.23-1.15,1.83-4,1.43-7.32-.31-2.67,1-2.74,1.27-4.81A1.59,1.59,0,0,1,469.15,416Zm-183,2.94a7.89,7.89,0,0,0,6.05,6.66c.95,5-.81,7.17-2.24,8.42-3,2.65-6,1.82-8.81-.79-2.49-2.34-1.84-6.68-2.15-10.9A8.45,8.45,0,0,0,286.12,419Zm427.75,0a8.45,8.45,0,0,0,7.14,3.39c-.31,4.22.35,8.56-2.15,10.9-2.78,2.61-5.77,3.44-8.81.79-1.43-1.24-3.19-3.39-2.24-8.42A7.89,7.89,0,0,0,713.88,419ZM569.93,420.1c1.84,3.3,3.62,6.08,7,7.87a66.78,66.78,0,0,1,1.3,10.78c.51,9.54-3.8,12.6-8.75,8.17-4.27-3.82-6.82-11.19-8.2-14.5C564.43,432.41,569.12,431.12,569.93,420.1Zm-22.67.12c2,3.49,4.79,8.57,10,11.2.69,1.68.66,10-1.12,14.89-2.09,5.73-7.54,4.52-11.53.09-2.83-3.14-4.88-10.19-5.36-12.84,5.75-2.46,7.26-8.84,8.05-13.35ZM272.53,421a10.46,10.46,0,0,1,3.45,6c.49,2.57-.73,6.45-3.09,7.78-2,1.14-5.12,1.23-7.11,1.12C266.19,432.63,270.72,423.71,272.53,421Zm454.94,0c1.82,2.73,6.34,11.65,6.75,14.89-2,.11-5.08,0-7.11-1.12-2.36-1.33-3.58-5.21-3.09-7.78A10.46,10.46,0,0,1,727.47,421Zm-236.94.45c.36,8.31,5.23,10.13,6,11.23-.31,5.76-1,10.87-2.79,14.74-3,6.6-8.44,4-10.29-2a36.29,36.29,0,0,1-1.66-9.75C486.56,434.61,487.74,429.62,490.52,421.44Zm19,0c2.79,8.18,4,13.18,8.75,14.2a36.29,36.29,0,0,1-1.66,9.75c-1.85,6.07-7.25,8.62-10.29,2-1.79-3.88-2.48-9-2.79-14.74C504.25,431.57,509.12,429.75,509.48,421.44Zm-209.15,2.88a11.65,11.65,0,0,0,4.63,10c-1.47,2.15-3.59,3.34-5.48,2.79-1.09-.32-4.33-1.72-4.27-5.27C295.23,430.14,293.9,426,300.32,424.31Zm399.35,0c6.42,1.66,5.09,5.83,5.12,7.51.06,3.55-3.17,4.95-4.27,5.27-1.89.55-4-.64-5.48-2.79A11.65,11.65,0,0,0,699.68,424.31ZM472.79,425.8c.2,1.47,1.06,8.55,5.9,9.84.08,1.93-1.4,9.71-5,12.44-2.65,2-7.3,2.49-8.9-3.91a31.66,31.66,0,0,1-1-10.26C469.86,433.77,472.24,426.65,472.79,425.8Zm54.43,0c.55.85,2.92,8,9,8.11a31.65,31.65,0,0,1-1,10.26c-1.6,6.39-6.25,5.92-8.9,3.91-3.6-2.74-5.08-10.52-5-12.44C526.15,434.35,527,427.26,527.22,425.8Zm57.49.24c3.92,5-.62,8,3.66,14.26-1.53,2.55-3.77,1-5.57-3.06a37.82,37.82,0,0,1-2.66-8.72A6.75,6.75,0,0,0,584.7,426Zm-306,9.57a4.84,4.84,0,0,1,.54,0,4.79,4.79,0,0,1,4.21,3.66c.62,2.17.27,5.23-.61,9.38a8.62,8.62,0,0,0-5.12,3.12c-.84-3.9-2.34-5.9-5.21-7.3a14.41,14.41,0,0,1,2.82-7.3A4.65,4.65,0,0,1,278.68,435.6Zm442.1,0a4.7,4.7,0,0,1,3.91,1.57,14.41,14.41,0,0,1,2.82,7.3c-2.87,1.39-4.36,3.39-5.21,7.3a8.62,8.62,0,0,0-5.12-3.12c-.88-4.15-1.23-7.22-.61-9.38A4.79,4.79,0,0,1,720.78,435.6ZM500,436.39c1.38,6.33,3.08,17.47,9.08,17.47.61,7.46.64,14.76-1.42,16.83A101.87,101.87,0,0,0,500,479a101.87,101.87,0,0,0-7.66-8.32c-2.06-2.07-2-9.37-1.42-16.83C496.92,453.86,498.62,442.72,500,436.39Zm-208.52.76a6.28,6.28,0,0,1,1,0,8.47,8.47,0,0,1,7.54,6.9c-2.66.23-6.86,2.13-8.81,8.78a8.06,8.06,0,0,0-5.45-4.09c1.38-6.75.27-7.78,3.36-10.63A3.83,3.83,0,0,1,291.48,437.15Zm416,0a4.36,4.36,0,0,1,3.36,1c3.09,2.85,2,3.87,3.36,10.63a8.06,8.06,0,0,0-5.45,4.09c-2-6.65-6.15-8.55-8.81-8.78A8.47,8.47,0,0,1,707.52,437.15Zm-397.6.91c.41,0,.83,0,1.24,0a24,24,0,0,1,4.45.51c.69,3.63,1.53,9.25,1.85,10.93-4.95.09-7.42-.2-12-3.84-3.14-2.49-3.63-5.81,1-7.14A14.13,14.13,0,0,1,309.92,438.06Zm378.92,0a16.2,16.2,0,0,1,4.72.45c4.63,1.34,4.14,4.66,1,7.14-4.6,3.64-7.07,3.94-12,3.84.32-1.67,1.16-7.3,1.85-10.93A24,24,0,0,1,688.84,438.06Zm-128.39.06c2.33,5.17,4.83,9.22,8.17,11.84a33.76,33.76,0,0,1,.94,5.45c1.54,13.9-5.9,12.42-11,7.57-4-3.72-5.37-6.52-7.51-9.93C559.52,453.53,560.3,441.74,560.45,438.12Zm-289.28.33a21.74,21.74,0,0,0-1.54,5.63,6.74,6.74,0,0,0-2.42.85,20.15,20.15,0,0,0-1.3-6.15A21.89,21.89,0,0,0,271.17,438.45Zm457.66,0a21.89,21.89,0,0,0,5.27.33,20.15,20.15,0,0,0-1.3,6.15,6.74,6.74,0,0,0-2.42-.85A21.74,21.74,0,0,0,728.83,438.45Zm-268.84,1c-2.57,6.54-4.89,8.31-8.1,9.76-2,.88-2.32.58-4.1,0s.4-2.76,4.22-4.88c2.69-1.5,2.81-3.71,6.4-4.82,1.47-.45.86-1,1.58,0Zm132.37.76c3.76,5-.55,3.94,5.21,10.26-.77.82-2,1-3.48.12a22.62,22.62,0,0,1-6.54-6.66A6.12,6.12,0,0,0,592.36,440.21Zm-11.2.06c5.38,7.63,8.73,10.47,10.08,14.44,4.14,12.16-4.55,10.32-8,8.08-5.31-3.48-8.8-9-10.17-11C581,452.13,581,442.6,581.16,440.27Zm-119.82,1.6c.62,3.52,2.4,11.84,10.41,10.2-1.32,3.65-3.59,9.48-7.78,12.65-5.88,4.45-10.27,1.86-11.44-6a35.15,35.15,0,0,1-.42-6.36C457,450.46,459.66,445.83,461.34,441.87Zm77.32,0c1.68,4,4.35,8.59,9.23,10.5a35.15,35.15,0,0,1-.42,6.36c-1.17,7.86-5.56,10.45-11.44,6-4.19-3.17-6.46-9-7.78-12.65C536.26,453.71,538,445.39,538.66,441.87ZM264,442.9a29.24,29.24,0,0,1,.24,7.39,9.59,9.59,0,0,1-2.33,5.57s.57-4.59.76-5.87C262.92,448.37,264,442.9,264,442.9Zm471.95,0s1.1,5.47,1.33,7.08c.18,1.29.76,5.87.76,5.87a9.59,9.59,0,0,1-2.33-5.57A29.24,29.24,0,0,1,736,442.9Zm-256,.7c.39,1.57,1.89,9.31,8.08,10.47a34.08,34.08,0,0,1-4.39,9.63c-4.06,5.83-7.68,4.81-8.66-4a40.18,40.18,0,0,1,0-9A14.73,14.73,0,0,0,479.93,443.6Zm40.14,0a14.73,14.73,0,0,0,5,7.08,40.18,40.18,0,0,1,0,9c-1,8.81-4.6,9.83-8.66,4a34.08,34.08,0,0,1-4.39-9.63C518.18,452.91,519.68,445.17,520.07,443.6Zm-219.81,2.88a5.08,5.08,0,0,1,.7,0,6,6,0,0,1,4.93,3.72c.94,2.07.56,5.48-.7,9.41-2.64-7.35-8.39-7-11-6.66.51-1.79,1.63-4.68,4-5.87A5.51,5.51,0,0,1,300.26,446.47Zm398.78,0a5.38,5.38,0,0,1,2.82.61c2.33,1.2,3.45,4.09,4,5.87-2.63-.38-8.38-.69-11,6.66-1.25-3.93-1.63-7.34-.7-9.41A6,6,0,0,1,699,446.47ZM270.26,447a3.76,3.76,0,0,1,2.91,1.45c2.14,2.34,2.16,7.57,1.73,9.41-5.64,1.15-6.89,4.52-8.48,6.18a16.29,16.29,0,0,0-3.63-5c4.49-3.84,4.4-8.27,4.48-10.35A4.49,4.49,0,0,1,270.26,447Zm459.11,0a2.61,2.61,0,0,1,.36,0,4.49,4.49,0,0,1,3,1.7c.08,2.08,0,6.52,4.48,10.35a16.29,16.29,0,0,0-3.63,5c-1.59-1.65-2.84-5-8.48-6.18-.43-1.85-.42-7.07,1.73-9.41A4,4,0,0,1,729.37,447ZM284,451.47a5.57,5.57,0,0,1,4.15,2,5.12,5.12,0,0,1,1.27,2.88,16.36,16.36,0,0,0-1.51,8.45c-1.53.66-2.15.59-3.72,2.21-1.64-4.6-4-7.9-6.42-8.69.61-2,1.45-4.68,3.6-6.05A4.86,4.86,0,0,1,284,451.47Zm432,0a4.86,4.86,0,0,1,2.63.79c2.15,1.38,3,4.07,3.6,6.05-2.4.78-4.77,4.09-6.42,8.69-1.58-1.62-2.19-1.55-3.72-2.21a16.36,16.36,0,0,0-1.51-8.45,5.12,5.12,0,0,1,1.27-2.88A5.56,5.56,0,0,1,716,451.47Zm-404.8.39c1.09,0,2.52.48,3.91.51.22,3,.37,6.08-.36,8.66-1.27-.32-4.4-.39-5.33-.82-1.13-.52-.89-7.66.82-8.2A2.25,2.25,0,0,1,311.19,451.86Zm377.62,0a2.25,2.25,0,0,1,1,.15c1.7.54,2,7.68.82,8.2-.93.43-4.06.5-5.33.82-.73-2.57-.58-5.61-.36-8.66C686.29,452.34,687.72,451.88,688.81,451.86Zm-90.21,1.42c5.4,0-1.24,10.16,1.1,13.53,1.86,2.68,9.91,1.38,10,4.3.46,4.58-1.88,9.59-6.72,4.75a60.49,60.49,0,0,1-8.93-11.11c2.05-3.46.82-8.08-.09-11a5.62,5.62,0,0,0,4.63-.45Zm-302.73,2.33a6.08,6.08,0,0,1,.73,0,6,6,0,0,1,4.15,1.94c1.59,1.82,1.95,3.4,2.33,5.93a14.75,14.75,0,0,0-3,10.38,12.2,12.2,0,0,0-1.15.61c-.61-2.8-1.64-8.69-8.11-9.75-.06-4.56.33-5.06,1.06-6.69A4.49,4.49,0,0,1,295.87,455.61Zm407.53,0a4.68,4.68,0,0,1,4.72,2.42c.73,1.63,1.11,2.13,1.06,6.69-6.47,1.06-7.5,6.95-8.11,9.75a12.21,12.21,0,0,0-1.15-.61,14.75,14.75,0,0,0-3-10.38c.38-2.54.74-4.11,2.33-5.93A6,6,0,0,1,703.4,455.61ZM572.5,456c5.64,7.48,8.78,9.24,11.72,10.47,4.61,9.71,2.19,17.52-7.17,10.6a54.07,54.07,0,0,1-8.48-8.6C573,465.81,572.79,459.4,572.5,456Zm-124.9-.82a52.89,52.89,0,0,1-6.12,7.75,10.28,10.28,0,0,1-6.83,2.6c-2.18-.07-4-1.77,2.76-4.54,2.11-.86,1.51-4.64,6-6.27,1.16-.42,2,0,4.16.45Zm1.88,2.51c.58,5,2.52,10.19,6.36,11.53-1.5,2.95-4.39,7.37-8.87,9.51-9,4.31-9.2-5.54-9.23-9.9C442.19,467.32,446.74,462.14,449.48,457.73Zm101,0c2.73,4.4,7.28,9.58,11.75,11.14,0,4.36-.19,14.21-9.23,9.9-4.48-2.13-7.37-6.56-8.87-9.51C548,467.93,549.95,462.74,550.52,457.73ZM472,458.94c.61,6.6,2.45,10,5.21,11-1.92,4.91-5.3,9.1-10.32,10.66-7.26,2.25-7.57-4.4-7.42-11C463.53,469.12,467.43,467.11,472,458.94Zm56.06,0c4.54,8.16,8.44,10.17,12.53,10.72.16,6.59-.16,13.24-7.42,11-5-1.55-8.4-5.74-10.32-10.66C525.58,468.91,527.42,465.54,528,458.94Zm-252.65,1.82c1.84,0,3.38,1.5,4.66,4a25.28,25.28,0,0,1,2.12,5.66c-1.11,2.74-2.35,7.47-1.88,15.8-1.69-4.1-5.32-12.23-12.93-12a13.37,13.37,0,0,0,.33-6.54c1.55-2.7,2-3.65,4.06-5.36A5.64,5.64,0,0,1,275.38,460.76Zm449.24,0a5.64,5.64,0,0,1,3.63,1.57c2.06,1.71,2.51,2.66,4.06,5.36a13.37,13.37,0,0,0,.33,6.54c-7.6-.27-11.24,7.85-12.93,12,.47-8.33-.77-13.07-1.88-15.8a25.28,25.28,0,0,1,2.12-5.66C721.24,462.26,722.79,460.8,724.62,460.76Zm-463.5.54c1.58,2,3.67,4.26,3.91,8.42.2,3.59-1.3,6.11-4.45,8.11-.32-2.86-.22-1.46-.21-7.81C260.36,468.53,260.83,463,261.12,461.31Zm477.76,0c.29,1.72.76,7.22.76,8.72,0,6.35.11,5-.21,7.81-3.15-2-4.65-4.52-4.45-8.11C735.21,465.57,737.3,463.3,738.88,461.31Zm-251.2,1.24c0,1.73.19,6.77,1.66,9.2l7.2,7.6s-6.42,2.55-9.75,4c-5.89,2.5-9.43,4.24-9.29-1.57a38.65,38.65,0,0,1,2.75-11.65C484.18,469,486.92,464.08,487.68,462.55Zm24.64,0c.76,1.54,3.5,6.47,7.42,7.54a38.65,38.65,0,0,1,2.75,11.65c.13,5.81-3.4,4.08-9.29,1.57-3.33-1.41-9.75-4-9.75-4l7.2-7.6C512.13,469.32,512.29,464.28,512.32,462.55Zm-200.59,1a12.14,12.14,0,0,1,1.36.09c1.12.64,1.52,5.17,3.33,6.21,9.46,5.42,8.73,11.14,5.17,8.53-1.94-1.42-4.34-5.31-7.38-5-1,.1-1.83,1.12-2.57,2A11.43,11.43,0,0,0,310.1,478a8.65,8.65,0,0,0-7.14-4.6c.1-4.52,1.07-8,4-9.11a16.33,16.33,0,0,1,4.78-.82Zm376.53,0a13.16,13.16,0,0,1,4.78.82c2.93,1.12,3.89,4.59,4,9.11a8.65,8.65,0,0,0-7.14,4.6,11.44,11.44,0,0,0-1.54-2.75,8.83,8.83,0,0,0-2.57-2c-.7-3.24-.94-8.54,1.12-9.72a12.13,12.13,0,0,1,1.36-.09Zm-96.75,3.09a40.53,40.53,0,0,1,6,9.72c2.73,6.31,1.16,15.09-7.33,11.53a13.09,13.09,0,0,1-6.12-5.18c6.33-1.8,6.2-9.44,3.66-15.38A8.49,8.49,0,0,0,591.51,466.6Zm-302.06,1.33a7.71,7.71,0,0,1,4.12,1.27c2.09,2,2.56,5.35,2.75,8.6a18,18,0,0,0-1.39,6.63c-4.66-2.74-9.1-2.63-11.75.91-.24-3.75-.09-12.59,2.91-16.1A4.49,4.49,0,0,1,289.45,467.94Zm421.09,0a4.49,4.49,0,0,1,3.36,1.3c3,3.52,3.15,12.35,2.91,16.1-2.64-3.54-7.08-3.65-11.75-.91a18,18,0,0,0-1.39-6.63c.19-3.24.67-6.58,2.75-8.6A7.72,7.72,0,0,1,710.55,467.94Zm-283,0a13.81,13.81,0,0,1,3.87.54,54.07,54.07,0,0,1-8.48,8.6c-9.37,6.92-5-1.49-3-2.53C424,472.46,422.67,468.32,427.56,468Zm7.2,1.21c-.1,9.09,3.1,13.17,7.51,13.44-4.1,6.64-8.08,8.64-12.47,10.69-5.41,2.52-13.54,2.91-7.81-12.11C424.75,479.58,426.6,478.66,434.76,469.18Zm130.47,0c8.16,9.48,10,10.4,12.77,12,5.73,15-2.4,14.63-7.81,12.11-4.39-2-8.37-4-12.47-10.69C562.14,482.35,565.34,478.26,565.24,469.18Zm-108.68,4.45c.25,4.26,1.43,7.67,3.87,9.45-4.74,6.51-3.9,8.75-4,10.93-10.72,6.39-25.23,9.53-10.29-11.84C450.87,480.89,454.06,477.24,456.56,473.63Zm86.88,0c2.5,3.61,5.69,7.27,10.41,8.54,14.94,21.36.43,18.23-10.29,11.84-.1-2.18.74-4.42-4-10.93C542,481.3,543.2,477.89,543.44,473.63Zm68.9,1.3c3.2,1.77,2.23,5.16,4,8.73,1.28,2.53,5.36,5.06,7,7.56-.42,2.88-5.41.91-9.05-1.36-3.22-2-8.23-6.95-13.2-11.69C608.13,484.13,611.38,478.8,612.34,474.93ZM315,476.17c.66-.4,4.22,7,12.87,10.75,11.84,5.13,6.72,11.14,3.12,7.33-3.3-3.5-5.15-6.9-9.32-5.87-3.22.79-5.83,3-6.87,7.17a16.66,16.66,0,0,0-3-3.54C312.49,486.72,311.25,478.47,315,476.17Zm369.93,0c3.87,3.13,2.55,10.55,3.24,15.83a16.65,16.65,0,0,0-3,3.54,9.24,9.24,0,0,0-6.87-7.17C679.27,483.34,681.88,480.66,685,476.17Zm-382.61.18a6.23,6.23,0,0,1,5,2.72c2.21,3.27,1.89,7.83,1.7,11.14-3.24-1.71-7.24-.32-8.57,2.15a18,18,0,0,0-2.69-5.24c-.09-4.34.54-7.31,1.79-9.23A3.31,3.31,0,0,1,302.35,476.35Zm395.3,0a3.31,3.31,0,0,1,2.79,1.54c1.24,1.92,1.88,4.9,1.79,9.23a18,18,0,0,0-2.69,5.24c-1.32-2.46-5.33-3.86-8.57-2.15-.19-3.31-.52-7.87,1.7-11.14A6.23,6.23,0,0,1,697.65,476.35Zm-429.51.79a7.23,7.23,0,0,1,4.42,1.94c2.87,2.4,4.48,6.38,5.57,9.81-5.37-2.69-12.79-.41-14,7.42-1.27-2.06-3.87-11.17-2.94-13.17C262.77,479.67,265.16,477.06,268.14,477.14Zm463.71,0c3-.08,5.37,2.53,7,6,.94,2-1.66,11.11-2.94,13.17-1.26-7.83-8.68-10.1-14-7.42,1.09-3.43,2.7-7.41,5.57-9.81A7.23,7.23,0,0,1,731.86,477.14Zm-257,1.82c-.8,6.11.72,9.71,4.9,9.51-1.29,1.66-1.74,3-1.48,4.45-7.54,3.48-11.11,4-13.71,3.84s-9.81-1.67-1.18-12.87A14.76,14.76,0,0,0,474.87,479Zm50.25,0a14.76,14.76,0,0,0,11.47,4.93c8.63,11.2,1.3,12.74-1.18,12.87s-6.18-.37-13.71-3.84c.26-1.4-.2-2.79-1.48-4.45C524.41,488.67,525.93,485.06,525.13,479Zm-112,1.86a4.58,4.58,0,0,0,2.8,1.87,14.63,14.63,0,0,1-6.12,5.18C405.36,490.09,411.78,486.21,413.11,480.81Zm83.44,1.53-.09,13.17a34.5,34.5,0,0,1-10.93-.18c-4.2-.86-6.36-3.34-1.85-6.57.87-.62,4.63-3.58,12.87-6.42Zm6.9,0c8.23,2.84,12,5.8,12.87,6.42,4.52,3.23,2.35,5.71-1.85,6.57a34.5,34.5,0,0,1-10.93.18Zm98.33.51c2.33,1.8,5.86,5.8,6.87,8.05,3.9,8.72-1.84,12.51-7.63,9.35-4.93-2.69-9.24-5.87-12.11-9.84C599.32,494.85,601.82,485.27,601.78,482.86Zm-312.87,2.57a8.5,8.5,0,0,1,5.72,2.48c4.19,4.19,4.6,12.64,4.63,17-2.41-2.34-7.11-7.54-14.41-6.27-.49-4-1.06-7.92.39-11A3.87,3.87,0,0,1,288.91,485.43Zm422.18,0a3.87,3.87,0,0,1,3.66,2.24c1.45,3,.88,6.95.39,11-7.3-1.27-12,3.92-14.41,6.27,0-4.35.44-12.8,4.63-17A8.5,8.5,0,0,1,711.09,485.43ZM417.45,486c-2.31,12.33,7.57,15.13,20,6.24-3.42,5.54-9.07,9.61-13.77,12.81C410.54,514,409.74,504.93,411,499,411.92,494.46,415.88,487.32,417.45,486Zm165.11,0c1.56,1.28,5.53,8.42,6.48,13,1.22,5.9.43,15-12.71,6.05-4.7-3.2-10.35-7.26-13.77-12.81C575,501.17,584.87,498.37,582.55,486Zm-171.46,4.39c-2.87,4-7.18,7.15-12.11,9.84C388.45,492.27,407.26,491.91,411.09,490.43Zm-137.92.18a8.12,8.12,0,0,1,4.27,1.24c2.77,2.22,3.62,4.63,4.69,7.84-2.9,1.94-4,6.17-2.91,11.23-1.33-1.41-6.73-6.56-11.81-1.42-.89-3.62-.74-8.56-.61-11.56C267.06,494.43,269.37,490.72,273.17,490.61Zm453.66,0c3.8.11,6.11,3.82,6.36,7.33.14,3,.28,7.95-.61,11.56-5.07-5.14-10.47,0-11.81,1.42,1.1-5.06,0-9.29-2.91-11.23,1.08-3.21,1.92-5.62,4.69-7.84A8.12,8.12,0,0,1,726.83,490.61Zm-403.38.45c1.65-.2,7.55,6.75,7,9.63-7,5.32-2.95,13.35-1.63,15.59a18.45,18.45,0,0,0-4.45-.91c-4.46-7.42-6-10.8-6.78-14.8C316.66,496.15,317.61,491.77,323.45,491.06Zm353.1,0c5.83.77,6.79,5.08,5.87,9.51-.83,4-2.32,7.38-6.78,14.8a18.45,18.45,0,0,0-4.45.91c1.31-2.24,5.38-10.27-1.63-15.59C669.24,497.78,675.44,496.3,676.55,491.06Zm-64.3.94c3.59,2.56,6,1.28,8.75,8.6,1.94,5.1.81,7.35-4.72,7.17-3.38-.11-8-.63-11.11-3.48C609.48,504.63,614.72,499.68,612.25,492Zm-306,.36a6.9,6.9,0,0,1,4.3,2.45,20.78,20.78,0,0,1,5.12,10c-1.31-1.15-10.8-5.36-11.62,6.42a40.78,40.78,0,0,1-1.88-14.71C302.37,493.83,304,492.19,306.23,492.37Zm387.55,0c2.18-.17,3.85,1.47,4.09,4.15A40.78,40.78,0,0,1,696,511.22c-.83-11.78-10.32-7.56-11.62-6.42a20.78,20.78,0,0,1,5.12-10A6.9,6.9,0,0,1,693.77,492.37Zm-67.72,3c.85,0,1.58.55,1.33,1.51-1.18,4.51,4.94,9.09,8.84,8.54,0,2.47-.46,5.23-2.27,7.14-2.11,2.24-13.82,1.62-17.26-1.88,8-.28,8.84-4.72,7.72-9C622.82,497.16,624.63,495.43,626.05,495.39Zm-168.16,1.39c5,6,18.48.32,15.2,4.93-8.24,3.8-12.22,5.19-14.53,5.39l-2.63,4a34.2,34.2,0,0,1-8.78,2.48c-4.41.66-5.15-3.84-2.27-7.81a20.3,20.3,0,0,1,8.57-7.08Zm84.22,0,4.45,1.94a20.3,20.3,0,0,1,8.57,7.08c2.88,4,2.16,8.47-2.27,7.81a34.2,34.2,0,0,1-8.78-2.48l-2.63-4c-2.31-.2-6.3-1.59-14.53-5.39C523.63,497.11,537.13,502.83,542.11,496.78Zm-202.67.3a3.69,3.69,0,0,1,.51,0c4.22.12,7.68,2.79.24,4.54-2,.81.87,4.8,3.18,4.24-.92,4.88.52,10,4.09,12.65s-7.75.41-10.44,2.33c-5.05-3.44-10.78-12-5.12-17.32C333.54,502.26,335.6,497.5,339.43,497.09Zm97.9.48c.81,3,3.07,4.74,7.11,4.18-5.41,6-4.23,11.74-1.6,14.23-9.58,10.18-14.41,1.22-13.14-3.54C431.54,505.6,434.54,501.68,437.34,497.57Zm125.33,0c2.79,4.11,5.8,8,7.63,14.86,1.28,4.76-3.62,13.71-13.14,3.54,2.62-2.45,3.8-8.25-1.6-14.23C559.6,502.31,561.85,500.53,562.66,497.57Zm-154.36,0c-2.14,8.45.81,16.39,9.63,13.62a63.21,63.21,0,0,1-14.38,7.36c-8.53,2.83-13.9-4-7-11.84C399.19,503.71,406.79,498.62,408.3,497.6Zm183.39,0c1.51,1,9.11,6.11,11.78,9.14,6.87,7.82,1.5,14.67-7,11.84a63.21,63.21,0,0,1-14.38-7.36C590.89,514,593.84,506.06,591.7,497.6Zm-207.55,1.58c13.11-6.6,6.83,1.48,13.71,2.94-3.11,2.85-10.76,5.55-14.14,5.66-5.54.18-6.66-2.58-4.72-7.69C381.24,499.44,383,499.67,384.15,499.18Zm-97.33,2.06.64,0a14.12,14.12,0,0,1,6.69,2.79c3.95,2.81,10,11.53,10.84,17-7.15-4.92-15.69-4.18-15.35,5.42-2-1.45-7.33-9.87-7.81-18.62-.25-4.64,1.92-6.66,5-6.66Zm426.36,0c3.07,0,5.25,2,5,6.66-.48,8.75-5.81,17.16-7.81,18.62.34-9.6-8.2-10.34-15.35-5.42.88-5.52,6.89-14.23,10.84-17a14.12,14.12,0,0,1,6.69-2.79l.64,0ZM375.49,501c-1.12,4.3-.24,9.43,7.81,9.71-3.44,3.5-15.14,4.11-17.26,1.88-1.81-1.92-2.34-5.36-2.36-7.83C368.7,504.75,369.26,503.06,375.49,501Zm292.61,2.53c5.66,5.28-.07,13.87-5.12,17.32-2.69-1.92-13.91.25-10.44-2.33s5-7.77,4.09-12.65C659.55,503,663.62,504.92,668.1,503.54Zm-238.37.79c-7.4,13.73.46,23.73,10.93,17.07-1.94,4.19-11.67,7-17.13,8.57-10.85,3.08-10.76-5.2-6.18-13.14C419.93,512.37,425.15,507.9,429.74,504.32Zm140.52,0c4.58,3.58,9.81,8,12.38,12.5,4.58,7.94,4.72,16.06-6.18,13.14-6-1.71-15-4.36-17.13-8.57C569.82,528.06,577.67,518,570.26,504.32Zm-214.78.17a16.24,16.24,0,0,1,5.42.88c.14,2.87.89,7.35,3.33,9.45-5.3,1.34-6.95,3-8.23,4.54-4.43-1.55-8.21-2.58-9.72-7.84a22.15,22.15,0,0,1-.27-4.7C348.37,505.21,352.08,504.46,355.48,504.5Zm289,1.37c3.4,0,7.11.71,9.48,2.33a10.7,10.7,0,0,1-.27,3.33c-1.51,5.26-5.29,6.29-9.72,7.84-1.29-1.5-2.93-3.2-8.23-4.54,2.44-2.1,3.19-5.21,3.33-8.08A16.24,16.24,0,0,1,644.52,505.87Zm-334,.21c1.62-.07,3.65,1,5.84,3.15a34.87,34.87,0,0,1,5,6.69c-4.9,2.13-6.87,8.18-1.76,14.59a17,17,0,0,0-4.06-1c-7.08-4.91-9.06-11.18-8.69-17.74C307.07,508.09,308.47,506.17,310.55,506.08Zm378.89,0c2.08.09,3.49,2,3.69,5.66.37,6.56-1.61,12.83-8.69,17.74a17,17,0,0,0-4.06,1c5.12-6.41,3.14-12.46-1.76-14.59a34.87,34.87,0,0,1,5-6.69C685.79,507,687.83,506,689.45,506.08Zm-298,3c-2.6,4-.76,14.13,9.51,13-5.94,6.11-9.36,8-15.2,8.42-7.71.57-8.94-4-7.63-8.69C379.31,517.62,385.7,511.39,391.47,509.08Zm217.05,0c5.77,2.32,12.17,8.54,13.32,12.68,1.31,4.72.08,9.26-7.63,8.69-5.83-.43-9.26-2.3-15.2-8.42C609.29,523.2,611.13,513.12,608.53,509.08Zm-336,1.09a5.81,5.81,0,0,1,3.21,1.51c2.73,2.27,5.37,6.5,7.11,10.14-7.17-2.86-13.52,1.67-15.08,3.66-1.58-1.35-.57-9,.39-11.62C269,511.73,270.47,510,272.56,510.17Zm454.87,0c2.09-.16,3.58,1.56,4.36,3.69,1,2.63,2,10.27.39,11.62-1.56-2-7.9-6.52-15.08-3.66,1.74-3.64,4.38-7.87,7.11-10.14A5.81,5.81,0,0,1,727.44,510.17ZM457,513.86c-1.62,2.36-8.56,8.12-12.41,9.45s-4,.76-3-2.06c.56-1.6,1.73-2.12,2.66-3.36C446.08,519.28,448.85,517,457,513.86Zm86,0c8.16,3.16,10.93,5.43,12.74,4,.93,1.24,2.1,1.76,2.66,3.36,1,2.82.78,3.35-3,2.06S544.61,516.22,543,513.86Zm-165.17,2.48c-3.43,4.59-3.59,8.64-2.18,12.41a34.22,34.22,0,0,1-14.2.09c-5.14-1.29-5.35-6.88-1.6-9.14,5.63-3.41,12.69-2.62,18-3.36Zm244.36,0c5.29.74,12.35-.05,18,3.36,3.74,2.27,3.54,7.86-1.6,9.14a34.22,34.22,0,0,1-14.2-.09c1.41-3.77,1.25-7.82-2.18-12.41Zm-208.24.73c-2.44,4.18-5.44,16.64,5.57,16.32-7.26,2.81-11,5.42-16.26,6.18-8.41,1.22-9.33-6.53-1.79-14.08C405.59,521.36,411.46,518.32,413.94,517.07Zm172.13,0c2.48,1.25,8.35,4.29,12.47,8.42,7.54,7.54,6.62,15.29-1.79,14.08-5.24-.76-9-3.36-16.26-6.18C591.5,533.71,588.51,521.25,586.06,517.07Zm-262.4,1.27a6.76,6.76,0,0,1,1,0c3.76.21,7.12,2.6,10.53,4.75-2.06,5.14.29,8.58,3,11.32-3.14.1-4,.12-6.93,1.39-3.3-1.21-6.24-3-10-8.05C318.55,524.15,319.12,518.75,323.66,518.34Zm351.71,0c5.42-.31,6.26,5.57,3.39,9.41-3.75,5-6.69,6.85-10,8.05-3-1.27-3.8-1.29-6.93-1.39,2.7-2.74,5.06-6.18,3-11.32C668.24,520.93,671.61,518.55,675.37,518.34Zm-378.89,2.6a6.7,6.7,0,0,1,1.85.24c4.07,1.06,10.35,5.82,12.87,8.42-6.17,2.56-7.84,8.62-1.3,16.92a11.19,11.19,0,0,0-4.24-.42c-5.11-4.91-10.28-12-12.5-17.32C291.76,525.43,292.61,521,296.48,520.94Zm407,0c3.87.1,4.72,4.49,3.33,7.84-2.22,5.36-7.39,12.41-12.5,17.32a11.19,11.19,0,0,0-4.24.42c6.54-8.3,4.87-14.36-1.3-16.92,2.52-2.6,8.8-7.35,12.87-8.42A6.7,6.7,0,0,1,703.52,520.94Zm-356.85.54a50.83,50.83,0,0,1,7.93.67c-.41,3.37-.07,6,3.39,8.36-5.33,1.32-6.67,2.8-8.54,6.45-3.48-.87-8-3-10.08-5.45-3.83-4.49-2.24-8.95,2.69-9.69A31.78,31.78,0,0,1,346.67,521.49Zm306.66,0a31.78,31.78,0,0,1,4.6.33c4.93.74,6.52,5.2,2.69,9.69-2.06,2.42-6.6,4.58-10.08,5.45-1.86-3.65-3.21-5.13-8.54-6.45,3.46-2.37,3.8-5,3.39-8.36A50.82,50.82,0,0,1,653.33,521.49ZM278.1,523.85a9.55,9.55,0,0,1,3.3.51c3.1,1,5.94,3.73,8.66,6.72a12.21,12.21,0,0,0-12.38,1.24l-7.66-5A12.43,12.43,0,0,1,278.1,523.85Zm443.8,0a12.43,12.43,0,0,1,8.08,3.51l-7.66,5a12.21,12.21,0,0,0-12.38-1.24c2.72-3,5.56-5.67,8.66-6.72A9.55,9.55,0,0,1,721.9,523.85Zm-286.62,5.21,1.09,15.74a34,34,0,0,1-12.29,4.12c-7.58.71-6.88-7.81-5-10.63C422.56,533.08,429.83,530.83,435.28,529.06Zm129.45,0c5.44,1.77,12.72,4,16.2,9.23,1.88,2.82,2.58,11.34-5,10.63a34,34,0,0,1-12.29-4.12Zm-170.8,2.6a9.47,9.47,0,0,0,1.15,8.17c-4.91,2.46-9.3,5.06-16.65,6.33S371,539.8,374.82,536C379.07,531.74,385.69,534.74,393.93,531.66Zm212.15,0c8.24,3.08,14.85.08,19.1,4.33,3.81,3.81,3.65,11.43-3.6,10.17s-11.74-3.87-16.65-6.33A9.47,9.47,0,0,0,606.08,531.66Zm-231,.21c-2.76,2.56-8.08,6.84-4.24,14.56-5.07,2.64-11.49,2.36-15,.76-5.89-2.72-4.89-10.29-.85-12.5C360,531.94,369.2,532.88,375.07,531.87Zm249.87,0c5.87,1,15,.07,20,2.82,4,2.22,5,9.78-.85,12.5-3.46,1.6-9.88,1.88-15-.76C633,538.71,627.69,534.44,624.93,531.87ZM314,532.2a9,9,0,0,1,1.12.09c4.8.7,9.26,3.53,12.87,6.12-3.74,4.57-3.88,11,2.15,16.83a32.64,32.64,0,0,0-5.12.36c-4.51-2-10.25-6.4-15.47-15.08-1.92-3.18-.84-8.43,4.45-8.32Zm372,0c5.29-.1,6.37,5.14,4.45,8.32-5.22,8.68-11,13.09-15.47,15.08a32.59,32.59,0,0,0-5.12-.36c6-5.8,5.89-12.26,2.15-16.83,3.61-2.59,8.07-5.42,12.87-6.12a9,9,0,0,1,1.12-.09Zm-401.78.67c.22,0,.44,0,.67,0a11.39,11.39,0,0,1,4,.88c5.21,2.07,7.63,7.38,13.71,13.38a8,8,0,0,0-2.91,3.48c-3-2.76-7.84-6.67-12.87-4.42l-10.38-8.6C278.44,535.14,280.9,533.06,284.22,532.87Zm430.9,0c3.67-.07,6.31,2.11,8.42,4.72l-10.38,8.6c-5-2.25-9.82,1.66-12.87,4.42a8,8,0,0,0-2.91-3.48c6.08-6,8.5-11.31,13.71-13.38A11.39,11.39,0,0,1,715.12,532.87Zm-377.77,4.45c.4,0,.81,0,1.24,0A32.13,32.13,0,0,1,348.85,540c0,2.72.21,5.81,3.84,8.66-8.32.81-13.28,4.86-14,8.51-3.26-1.16-9.95-5.07-10.41-11.47C328.39,541.48,331.3,537.54,337.35,537.32Zm324.07,0c6.9-.31,10.18,3.88,10.35,8.42-.47,6.41-7.15,10.31-10.41,11.47-.76-3.65-5.73-7.7-14-8.51,3.64-2.84,3.81-5.93,3.84-8.66A32.13,32.13,0,0,1,661.41,537.32Zm-245.3.39c-2.42,4.77-1.43,12.41,5.33,14.86-4.09,1.73-12.25,3.83-15.92,3.39-5.71-.69-5.74-8.33-.39-12.26C408.45,541.26,413.76,539.11,416.12,537.71Zm167.77,0c2.36,1.4,7.66,3.55,11,6,5.34,3.93,5.32,11.57-.39,12.26-3.68.44-11.83-1.66-15.92-3.39C585.32,550.12,586.3,542.49,583.89,537.71ZM401,542.62c.32,0,.62,0,.91,0-5.95,6.05-3.33,12.37-1.39,14.2-3.06,2.58-8.75,6.66-15.53,7.17-5.49.41-11.54-7.51-2.48-14.23C388.22,545.54,396.22,542.79,401,542.62Zm197,0c4.66-.19,13.34,2.65,19.4,7.14,9.06,6.72,3,14.64-2.48,14.23-6.78-.51-12.47-4.59-15.53-7.17C601.39,555,604,548.67,598.05,542.62ZM289.55,548.4H290c3,.15,6.64,3.29,9.14,5.69.41,2.08.43,5.06,6.75,12.47l-19.83-15.47A3.89,3.89,0,0,1,289.55,548.4Zm420.42,0a3.9,3.9,0,0,1,3.94,2.69l-19.83,15.47c6.32-7.41,6.34-10.39,6.75-12.47C703.33,551.69,707,548.55,710,548.4Zm-403.26.54a8.42,8.42,0,0,1,3.54.73c3.61,1.54,8.08,5.39,10.32,7.11A8.49,8.49,0,0,0,317,570a9.16,9.16,0,0,0-3.21.09c-4.35-3.17-9.88-9.71-11.53-15.26-1-3.39,1.18-5.81,4.45-5.9Zm386.58,0c3.27.09,5.46,2.51,4.45,5.9-1.66,5.55-7.18,12.09-11.53,15.26A9.16,9.16,0,0,0,683,570a8.49,8.49,0,0,0-3.57-13.23c2.25-1.72,6.72-5.57,10.32-7.11a8.42,8.42,0,0,1,3.54-.73ZM378.91,549c-6,5.61-4.36,12.59-.15,15.8-1.92,1.93-8.64,4.79-11.9,4.93-7.69.35-7.41-9.69-4-13.77C369.57,547.88,375.58,549.27,378.91,549Zm242.18,0c3.33.24,9.34-1.15,16.07,7,3.39,4.08,3.67,14.13-4,13.77-3.26-.15-10-3-11.9-4.93C625.45,561.63,627.1,554.64,621.09,549Zm-262,2.3c1.4,0,2.8,0,4.15,0-4.7,4.18-6.64,9.53-4.93,15.47-3.62.4-9.4.47-13.38-1.15-6.2-2.52-4.65-10.32,2.21-12.68A41.84,41.84,0,0,1,359.05,551.34Zm277.75,0c5.41-.07,11.45.08,16.1,1.63,6.86,2.36,8.41,10.16,2.21,12.68-4,1.62-9.76,1.55-13.38,1.15C643.45,560.86,641.5,555.51,636.8,551.34Zm-217.17,5-7.3,19c-1.18,3.1-9.49,2.92-14.17,1.57-3.35-1-4.57-8.48-1.09-13.11C400.83,558.87,415.74,558.74,419.63,556.36Zm160.75,0c3.88,2.37,18.8,2.51,22.55,7.51,3.48,4.63,2.26,12.14-1.09,13.11-4.68,1.35-13,1.52-14.17-1.57Zm-250.2,1.76c.53,0,1.07,0,1.6,0a20.63,20.63,0,0,1,6.45,1.3c-.59,3.66,1.25,8,8.26,9.75-6.41,2.93-6.67,5.32-7.3,8.2-8.9-2-14.69-4.39-18.31-7.51-4.85-4.17-3.59-10.48,4.48-11.41a47.45,47.45,0,0,1,4.81-.36Zm339.66,0a47.44,47.44,0,0,1,4.81.36c8.07.93,9.33,7.25,4.48,11.41-3.63,3.12-9.41,5.49-18.31,7.51-.62-2.88-.88-5.27-7.3-8.2,7-1.77,8.85-6.09,8.26-9.75a20.63,20.63,0,0,1,6.45-1.3c.53,0,1.07,0,1.6,0Zm-276.66,6.72c-.82,1.39-3.36,12.95,5.06,15.2a44.31,44.31,0,0,1-9.48,3.18c-5.09,1.2-9.88-5.47-6-12.81C384.59,567,389.26,566.65,393.17,564.84Zm213.66,0c3.91,1.81,8.58,2.11,10.41,5.57,3.89,7.33-.9,14-6,12.81a44.31,44.31,0,0,1-9.48-3.18C610.2,577.79,607.66,566.23,606.83,564.84ZM381.6,566.38c-5.13,7.85-3.39,13.93.3,17.38-5.92,4-11.31,6.08-15.86,6.08-6.26,0-11.19-12.06,1.57-17.19C372.13,571.65,376.24,570.81,381.6,566.38Zm236.79,0c5.37,4.43,9.48,5.27,14,6.27,12.77,5.13,7.84,17.2,1.57,17.19-4.55,0-9.94-2.06-15.86-6.08C621.79,580.31,623.53,574.23,618.4,566.38Zm-258.8,3.27a6.1,6.1,0,0,0,2.94,2.63c-4.74,3.26-6.5,7.18-6,10.93-1.94.1-6.59.94-11.32-.82-4.35-1.62-3.78-6.84-.7-8.84C349,570.64,354.95,569.82,359.6,569.65Zm280.81,0c4.65.17,10.56,1,15,3.91,3.08,2,3.66,7.22-.7,8.84-4.73,1.76-9.38.91-11.32.82.54-3.74-1.22-7.67-6-10.93A6.1,6.1,0,0,0,640.4,569.65Zm-324,3.24c3.83.06,6.9,2.2,7.93,2.69a66.1,66.1,0,0,0,15.2,4.87,8.42,8.42,0,0,0,2.75,3.63c-3.66,1-5.73,5.89-6.33,7.36l-27-15.62A10.79,10.79,0,0,1,316.43,572.89Zm367.15,0a10.79,10.79,0,0,1,7.42,2.94l-27,15.62c-.59-1.47-2.67-6.37-6.33-7.36a8.42,8.42,0,0,0,2.75-3.63,66.1,66.1,0,0,0,15.2-4.87C676.68,575.09,679.75,572.95,683.57,572.89Zm-276.81,7c2.55.59-7.24,19.86-7.24,19.86-6.09,0-11.29-1.39-13.5-3.91-2.83-3.22-1.18-4.41,1.12-7.24C390.13,584.95,398,583.5,406.76,579.88Zm186.48,0c8.74,3.61,16.64,5.06,19.62,8.72,2.3,2.82,4,4,1.12,7.24-2.21,2.51-7.41,4-13.5,3.91C600.47,599.74,590.69,580.47,593.24,579.88Zm-207.19,5.51c-7.52,8.22-4.49,12.54,1,14.86l-21.19,4.12c-.6-5.27,1.24-8.29,3.91-10.26C373.74,591.17,383,586.34,386.05,585.39Zm227.89,0c3,1,12.31,5.78,16.29,8.72,2.67,2,4.51,5,3.91,10.26l-21.19-4.12C618.44,597.93,621.46,593.61,613.95,585.39ZM357.2,586c1.59,4.24,4.61,6.72,9.6,6.75-3.21,2.56-4.57,8-3.78,12.17l-24.28-12.53c1.63-3,2.06-6.15,8.48-6.12C350.69,586.32,353.45,586.59,357.2,586Zm285.59,0c3.76.56,6.51.29,10,.27,6.42,0,6.85,3.15,8.48,6.12L637,604.95c.79-4.18-.58-9.61-3.78-12.17C638.19,592.75,641.2,590.27,642.8,586ZM397,602.68c1.24,0,3.12-.07,3.12.58s-1.25,3.66-3.21,3.45c-1.23-.13-16.29-1.18-13.11-2.79C385.67,603,395.18,602.61,397,602.68Zm206,0c1.84-.06,11.35.31,13.2,1.24,3.18,1.6-11.88,2.65-13.11,2.79-2,.21-3.21-2.68-3.21-3.45S601.75,602.72,603,602.68Z"/><path d="M262.6,434.15c8.76-25.73,31.29-45.59,53.46-37.63,23.86,8.57,23.65,41.5,2.72,41.5l1.84,10.06" style="fill:none;stroke:#000;stroke-linejoin:round;stroke-width:7px"/><path d="M737.4,434.15c-8.76-25.73-31.29-45.59-53.46-37.63-23.86,8.57-23.65,41.5-2.72,41.5l-1.84,10.06" style="fill:none;stroke:#000;stroke-linejoin:round;stroke-width:7px"/><path d="M376.19,291.83c4,6.38.33,10.63,4.75,18.28,3,5.16,5.39,5.34,10.36,14.28-.11-4.26-1.44-11.59-3.15-14.66-1.31-2.36-1-6.91-.07-7.08,1.77-.32,1.72,6.17,5,12.73,1.6-5.88,0-12.85,1.21-13.14s1.49,3.48,6.36,7.38c1-6.75-5.55-13.11-4.06-20.95Z" style="stroke:#000;stroke-linejoin:round"/><path d="M428.62,326.28A39,39,0,0,0,430,348.92c.4-5.86,0-12.23,3.27-16.29Z" style="stroke:#000;stroke-linejoin:round"/><path d="M435.34,337.78c-1,8.74.22,16.25,6.48,21.48-2.28-5-4.72-8.94-1.7-13.51Z" style="stroke:#000;stroke-linejoin:round"/><path d="M610.83,243.54c55.52,9.7,82.31,15.28,128.08,15.23" style="fill:none;stroke:#fff;stroke-linecap:round;stroke-width:3px"/><path d="M686.24,299.94c-30.92-7.74-51.31-15.88-81.21-28.81" style="fill:none;stroke:#fff;stroke-linecap:round;stroke-width:3px"/><path d="M682.36,352c-34-16.23-60.66-34.92-83.32-55.8" style="fill:none;stroke:#fff;stroke-linecap:round;stroke-width:3px"/><path d="M618.82,388.9c-8.33-23.44-27.07-58.25-42.7-82.59" style="fill:none;stroke:#fff;stroke-linecap:round;stroke-width:3px"/><path d="M475,251.1c0,6.69-6.07,12.11-13.56,12.11s-13.56-5.42-13.56-12.11S453.92,239,461.41,239,475,244.41,475,251.1Z"/><path d="M460,252.83a4.36,4.36,0,1,1-4.36-4.36,4.36,4.36,0,0,1,4.36,4.36Z" style="fill:#fff"/><path d="M457.15,267c8.15,1.57,12.82.84,17.5-5.61" style="fill:none;stroke:#000;stroke-linecap:round;stroke-width:3px"/><path d="M428.84,253.12c4.3,4.75,8.63,6.63,15.66,5.56" style="fill:none;stroke:#000;stroke-linecap:round;stroke-width:3px"/><path d="M433.3,238.54c-.11,5.37,1.95,10.18,9.3,11.46" style="fill:none;stroke:#000;stroke-linecap:round;stroke-width:3px"/><path d="M446.64,241.25c-4.11-4.73-4.48-10-1-15.36" style="fill:none;stroke:#000;stroke-linecap:round;stroke-width:3px"/><path d="M454,234.62c-.34-7.29,3.89-12.63,12.69-14.11" style="fill:none;stroke:#000;stroke-linecap:round;stroke-width:3px"/><path d="M462.81,234.24c2.61-6.17,7.27-10.39,16.16-10.61" style="fill:none;stroke:#000;stroke-linecap:round;stroke-width:3px"/><path d="M471.64,235.4c5-5,12.08-5.6,19.18-2.72" style="fill:none;stroke:#000;stroke-linecap:round;stroke-width:3px"/><path d="M478.77,242.84c6.92-3,12.65-2.8,19.54-.27" style="fill:none;stroke:#000;stroke-linecap:round;stroke-width:3px"/><path d="M479.35,250.85a26.06,26.06,0,0,1,17.12.56" style="fill:none;stroke:#000;stroke-linecap:round;stroke-width:3px"/><path d="M451.72,969.22l-44.23,67.33h185l-44.23-67.33H451.72Z" style="fill:#fff"/><path d="M475.18,975v55.22" style="fill:none;stroke:#000;stroke-width:3px"/><path d="M459.68,975v55.22" style="fill:none;stroke:#000;stroke-width:3px"/><path d="M444.18,975v55.22" style="fill:none;stroke:#000;stroke-width:3px"/><path d="M524.82,975v55.22" style="fill:none;stroke:#000;stroke-width:3px"/><path d="M540.32,975v55.22" style="fill:none;stroke:#000;stroke-width:3px"/><path d="M555.82,975v55.22" style="fill:none;stroke:#000;stroke-width:3px"/><path d="M582.34,899.94c69-72.33,117.34-127.69,156.28-220.92,48.44-116,25.82-200.54-1.89-246.85,26.84,94.9-50.59,178.25-154.39,178.25Z"/><path d="M582.3,791.13,638,839.54l-8.82,10.31-47-40.82Z" style="fill:#fff"/><path d="M582.9,754.68l72.75,63.24-8.2,10.84-64.89-56.41Z" style="fill:#fff"/><path d="M720.61,541.69l45,39.12-2.38,15.9-50.75-44.11Z" style="fill:#fff"/><path d="M702.48,562.9l57.36,49.86-3.75,14.71-63.74-55.41Z" style="fill:#fff"/><path d="M681.05,581.24l70.83,61.57-4.66,13.92L669.1,588.82Z" style="fill:#fff"/><path d="M654.68,595.28l87.64,76.18-5.75,13-96.17-83.6Z" style="fill:#fff"/><path d="M623.84,605.44l106.61,92.67-6.32,12.48-117-101.73Z" style="fill:#fff"/><path d="M586.56,610,718,724.21l-6.82,12L580.56,622.76Z" style="fill:#fff"/><path d="M583,643.87,703.93,749l-7.27,11.65L582.2,661.15Z" style="fill:#fff"/><path d="M582.92,680.77l106,92.12-7.63,11.34-98.79-85.88Z" style="fill:#fff"/><path d="M582.82,717.65l90,78.27-8.29,10.77L582.1,735Z" style="fill:#fff"/><path d="M597.79,817.2l34.51,30" style="fill:none;stroke:#000;stroke-linecap:round;stroke-width:3px"/><path d="M600.82,812.6,635.76,843" style="fill:none;stroke:#000;stroke-linecap:round;stroke-width:3px"/><path d="M612.92,793.38,650,825.6" style="fill:none;stroke:#000;stroke-linecap:round;stroke-width:3px"/><path d="M615.78,788.64l37.45,32.55" style="fill:none;stroke:#000;stroke-linecap:round;stroke-width:3px"/><path d="M627.13,768.76l40.13,34.88" style="fill:none;stroke:#000;stroke-linecap:round;stroke-width:3px"/><path d="M629.8,763.86l40.7,35.38" style="fill:none;stroke:#000;stroke-linecap:round;stroke-width:3px"/><path d="M640.43,743.36l43.51,37.82" style="fill:none;stroke:#000;stroke-linecap:round;stroke-width:3px"/><path d="M642.92,738.3l43.79,38.07" style="fill:none;stroke:#000;stroke-linecap:round;stroke-width:3px"/><path d="M652.85,717.19l45.9,39.9" style="fill:none;stroke:#000;stroke-linecap:round;stroke-width:3px"/><path d="M655.18,712l46.35,40.29" style="fill:none;stroke:#000;stroke-linecap:round;stroke-width:3px"/><path d="M664.45,690.31l48.66,42.3" style="fill:none;stroke:#000;stroke-linecap:round;stroke-width:3px"/><path d="M666.63,685l49,42.62" style="fill:none;stroke:#000;stroke-linecap:round;stroke-width:3px"/><path d="M675.25,662.73l50.68,44.06" style="fill:none;stroke:#000;stroke-linecap:round;stroke-width:3px"/><path d="M677.27,657.26l51.33,44.62" style="fill:none;stroke:#000;stroke-linecap:round;stroke-width:3px"/><path d="M685.28,634.48l53,46" style="fill:none;stroke:#000;stroke-linecap:round;stroke-width:3px"/><path d="M687.16,628.88l52.74,45.84" style="fill:none;stroke:#000;stroke-linecap:round;stroke-width:3px"/><path d="M694.59,605.61l54.17,47.09" style="fill:none;stroke:#000;stroke-linecap:round;stroke-width:3px"/><path d="M696.32,599.88l54,47" style="fill:none;stroke:#000;stroke-linecap:round;stroke-width:3px"/><path d="M703.19,576.12l54,46.93" style="fill:none;stroke:#000;stroke-linecap:round;stroke-width:3px"/><path d="M704.79,570.28l53.91,46.86" style="fill:none;stroke:#000;stroke-linecap:round;stroke-width:3px"/><path d="M715.15,549.55l48.19,41.89" style="fill:none;stroke:#000;stroke-linecap:round;stroke-width:3px"/><path d="M718.16,544.93l46.41,40.34" style="fill:none;stroke:#000;stroke-linecap:round;stroke-width:3px"/><path d="M582.34,899.94c69-72.33,117.34-127.69,156.28-220.92,48.44-116,25.82-200.54-1.89-246.85,26.84,94.9-50.59,178.25-154.39,178.25Z" style="fill:none;stroke:#000;stroke-linejoin:round;stroke-width:7px"/><path d="M417.66,899.94c-69-72.33-117.34-127.69-156.28-220.92-48.44-116-25.82-200.54,1.89-246.85-26.84,94.9,50.59,178.25,154.39,178.25Z"/><path d="M417.7,791.13,362,839.54l8.82,10.31,47-40.82Z" style="fill:#fff"/><path d="M417.1,754.68l-72.75,63.24,8.2,10.84,64.89-56.41Z" style="fill:#fff"/><path d="M279.39,541.69l-45,39.12,2.38,15.9,50.75-44.11Z" style="fill:#fff"/><path d="M297.52,562.9l-57.36,49.86,3.75,14.71,63.74-55.41Z" style="fill:#fff"/><path d="M318.95,581.24l-70.83,61.57,4.66,13.92,78.13-67.92Z" style="fill:#fff"/><path d="M345.32,595.28l-87.64,76.18,5.75,13,96.17-83.6Z" style="fill:#fff"/><path d="M376.16,605.44,269.55,698.11l6.32,12.48,117-101.73Z" style="fill:#fff"/><path d="M413.44,610,282,724.21l6.82,12,130.57-113.5Z" style="fill:#fff"/><path d="M417,643.87,296.07,749l7.27,11.65,114.46-99.5Z" style="fill:#fff"/><path d="M417.08,680.77l-106,92.12,7.63,11.34,98.79-85.88Z" style="fill:#fff"/><path d="M417.18,717.65l-90,78.27,8.29,10.77L417.9,735Z" style="fill:#fff"/><path d="M402.21,817.2l-34.51,30" style="fill:none;stroke:#000;stroke-linecap:round;stroke-width:3px"/><path d="M399.18,812.6,364.24,843" style="fill:none;stroke:#000;stroke-linecap:round;stroke-width:3px"/><path d="M387.08,793.38,350,825.59" style="fill:none;stroke:#000;stroke-linecap:round;stroke-width:3px"/><path d="M384.22,788.64l-37.45,32.55" style="fill:none;stroke:#000;stroke-linecap:round;stroke-width:3px"/><path d="M372.87,768.76l-40.13,34.88" style="fill:none;stroke:#000;stroke-linecap:round;stroke-width:3px"/><path d="M370.2,763.86l-40.7,35.38" style="fill:none;stroke:#000;stroke-linecap:round;stroke-width:3px"/><path d="M359.57,743.36l-43.51,37.82" style="fill:none;stroke:#000;stroke-linecap:round;stroke-width:3px"/><path d="M357.08,738.3l-43.79,38.07" style="fill:none;stroke:#000;stroke-linecap:round;stroke-width:3px"/><path d="M347.15,717.19l-45.9,39.9" style="fill:none;stroke:#000;stroke-linecap:round;stroke-width:3px"/><path d="M344.82,712l-46.35,40.29" style="fill:none;stroke:#000;stroke-linecap:round;stroke-width:3px"/><path d="M335.55,690.31l-48.66,42.3" style="fill:none;stroke:#000;stroke-linecap:round;stroke-width:3px"/><path d="M333.37,685l-49,42.62" style="fill:none;stroke:#000;stroke-linecap:round;stroke-width:3px"/><path d="M324.75,662.73l-50.68,44.06" style="fill:none;stroke:#000;stroke-linecap:round;stroke-width:3px"/><path d="M322.73,657.26,271.4,701.87" style="fill:none;stroke:#000;stroke-linecap:round;stroke-width:3px"/><path d="M314.72,634.48l-53,46" style="fill:none;stroke:#000;stroke-linecap:round;stroke-width:3px"/><path d="M312.84,628.88l-52.74,45.84" style="fill:none;stroke:#000;stroke-linecap:round;stroke-width:3px"/><path d="M305.41,605.61,251.24,652.7" style="fill:none;stroke:#000;stroke-linecap:round;stroke-width:3px"/><path d="M303.68,599.88l-54,47" style="fill:none;stroke:#000;stroke-linecap:round;stroke-width:3px"/><path d="M296.81,576.12l-54,46.93" style="fill:none;stroke:#000;stroke-linecap:round;stroke-width:3px"/><path d="M295.21,570.28,241.3,617.14" style="fill:none;stroke:#000;stroke-linecap:round;stroke-width:3px"/><path d="M284.85,549.55l-48.19,41.89" style="fill:none;stroke:#000;stroke-linecap:round;stroke-width:3px"/><path d="M281.84,544.93l-46.41,40.34" style="fill:none;stroke:#000;stroke-linecap:round;stroke-width:3px"/><path d="M417.66,899.94c-69-72.33-117.34-127.69-156.28-220.92-48.44-116-25.82-200.54,1.89-246.85-26.84,94.9,50.59,178.25,154.39,178.25Z" style="fill:none;stroke:#000;stroke-linejoin:round;stroke-width:7px"/><path d="M555.7,619.5A55.7,55.7,0,1,1,500,563.8,55.7,55.7,0,0,1,555.7,619.5Z" style="fill:#d21034"/><path d="M500,490.17c-39.89,0-104.75,66.37-102.14,154.24,2,68,8.83,121.94,3.42,192.65-3.86,50.44-11.28,106.19-35.6,166.8l60,17.32c14.23-33.91,26.59-44.71,48.62-44.71h51.46c22,0,34.39,10.81,48.62,44.71l60-17.32c-24.33-60.61-31.74-116.36-35.6-166.8-5.41-70.71,1.4-124.7,3.42-192.65C604.75,556.55,539.89,490.17,500,490.17Zm12.53,76.35,1.63,8.93c2.05,11.3-4,56.06-8.57,63.24-2.53,4-3,8.54-1.91,18.19,1.55,13.72-.51,17.79-5.87,11.53-2.2-2.57-2.75-5.69-1.63-9.41l1.66-5.57.58,5.57c.92,8.79,3.7-25.6,4-49.71.19-14.07-.5-21.38-1.94-20.49-1.23.76-2.24,9.85-2.24,20.19,0,11.05-.9,18.8-2.21,18.8-2.81,0-2.81-.06.33-32.85,1.44-15,3.46-27.31,4.48-27.31s1.85,2.46,1.85,5.45,1.05,6.08,2.33,6.87,2.09,8.3,1.79,17.89c-.29,9.05.18,17.16,1,18s1.54-5,1.54-13A220.35,220.35,0,0,1,511,577.42l1.54-10.9Zm-24,3.36h5.66l-1.57,17.26c-1.91,20.9-3.27,23.61-3.27,6.51,0-17.8-4.11-15.77-4.9,2.42C484,606.64,483,610.93,481,610.54c-1.63-.33-2.79,1.76-2.79,5,0,3.06-1,5.57-2.3,5.57s-2.14-3.28-2-7.27a148,148,0,0,0-1.33-19.92c-1.35-10.29-1-13.34,2-16.29,3.36-3.36,3.65-2.58,4,10.44.25,9.34.62,11.08,1.12,5.18,1.74-20.6,2.82-23.4,8.84-23.4Zm38.66,4.45c1.3,0,1.66,4.31.91,10.6-1.66,14-2.64,16.71-5.33,15-2.92-1.8-2.86,5.81.09,13.56,1.6,4.2,1.6,6.79,0,8.39s-2.33.11-2.33-4.81c0-3.92-1.05-7.11-2.33-7.11-3.14,0-.26-15.67,3.72-20.25,1.68-1.93,3.06-6.17,3.06-9.45s1-6,2.21-6ZM464.61,581c1.59,0,2.38,5,2.21,13.93-.31,16.35-2.4,27.26-4.75,24.88s-2.06-27.17.36-28.67c1.11-.69,1.49-3.24.85-5.69s-.06-4.45,1.33-4.45Zm81.58,11.75c.79-.16,1.09.92,1.09,3.39q0,8.07-3.45,2.48c-.82-1.33-.39-3.54,1-4.9A3.27,3.27,0,0,1,546.2,592.77Zm-92.51,8.29c1-.28,1.44,4.47,2.33,17.83.78,11.64,2.15,23.43,3.06,26.19,2.64,8.06.12,5.78-4.21-3.81A32,32,0,0,1,452,623.65c.65-4.83.26-9.73-.88-10.87s-1-4.57.67-8.57c.79-1.86,1.39-3,1.85-3.15Zm76.62,2.66a.49.49,0,0,1,.51.18c.74.74.83,2.66.18,4.27-.71,1.78-1.26,1.23-1.36-1.36C529.56,605.05,529.85,603.89,530.3,603.73Zm17.83,6.66c.15-.06.33,0,.51.21.74.74.83,2.66.18,4.27-.71,1.78-1.26,1.23-1.36-1.36C547.39,611.74,547.68,610.55,548.13,610.39Zm-78.56,2.85c1.23-.25,2,3.52,2,10.11,0,7,.87,10.87,2.24,10s2.21.21,2.21,2.12c0,2.22,2,3.45,5.57,3.45,5.12,0,5.57.84,5.57,10.05,0,5.51-1,10-2.21,10s-2-1.76-1.85-3.91a75.36,75.36,0,0,0,0-9.17c-.3-4.49-.88-4.86-3.78-2.45-5.86,4.87-12.17-4.31-12.17-17.68,0-6.11,1-11.71,2.21-12.47a.84.84,0,0,1,.27-.09Zm19.1,1.94c.38-.06.47,1.53.54,5,.08,3.74,1.21,7.84,2.51,9.14s2,6.76,1.6,12.14c-.73,9.32-.83,9.46-2.45,3.09-.93-3.68-2.6-10-3.69-14.11-1.14-4.26-1.17-9.51-.06-12.26.76-1.89,1.25-2.92,1.54-3Zm42.38,8.93c.62,0,1.46.92,3,2.82,1.77,2.18,2,3.25.51,2.36-2-1.19-2.85,2.88-3.33,15.56-.36,9.44-1.7,17.5-3,17.92-2.5.83-1.66-28.42,1-35.69C530,625.11,530.44,624.12,531.06,624.1Zm-17.19,3.69c1.23,0,2.11,3.76,2,8.36a85,85,0,0,1-2,15c-1.31,5.16-1.73,3.27-1.94-8.36C511.77,634.12,512.57,627.79,513.86,627.79Zm34.24.82c.86,0,.9,1.78.09,5.15-2.05,8.54-3.12,9.35-3.12,2.36,0-3.2,1-6.48,2.3-7.27a1.34,1.34,0,0,1,.73-.24ZM522.89,630c1.79,0,1.16,13.57-1.42,30.64-.6,4-2.17,7.24-3.48,7.24-1.51,0-1.81-2.24-.79-6.12a147.68,147.68,0,0,0,2.69-19C520.48,635.79,521.83,630,522.89,630Zm16,3.18c1-.1,1.65,1.85,1.51,5.06a76.47,76.47,0,0,1-2,12.93c-1.46,5.74-1.74,5.06-2-4.87-.15-6.36.74-12.2,2-13A1,1,0,0,1,538.84,633.21Zm-59.27,13c.64.06.88,1.17.88,3.42q0,8.07-3.45,2.48c-.82-1.33-.36-3.54,1-4.9C478.67,646.55,479.18,646.19,479.57,646.23Zm-7.08.42c.16,0,.35.16.54.64a8.6,8.6,0,0,1,0,5.57c-.62,1.53-1.12.28-1.12-2.79,0-2.11.22-3.34.58-3.42Zm-7.33,7.14a5.91,5.91,0,0,1,3.45,1.94c4.29,4.29,3.11,5.91-2.15,3-2.16-1.21-3.32-3.14-2.6-4.3a1.33,1.33,0,0,1,1.3-.61Z"/><path d="M581.4,1006.05c-3.27-6-10.38-22.89-25.1-33.31-8-5.65-17.5-8.85-31.84-8.85H500v12.33c49.93,0,55.42,1.5,74.31,45.37l11.82-5.44s-2.84-6.62-4.73-10.1Zm52.5-3.21c-28.47-78.49-36-131.24-37.76-213.09-1.13-51,7.4-122.38,5.33-167.83C599,568.34,547.79,490.17,500,490.17v12.6c21.64,0,53.29,27.17,71.25,61.81,12.92,24.92,17.91,50.76,18.3,69.73.51,25-3.47,68.08-5.07,121.65a781.49,781.49,0,0,0,3.39,101.8c4.23,44.43,12.39,90.67,29.78,137.82,1.88,5.09,4.07,10.91,4.07,10.91Z" style="fill:#d21034;stroke:#d21034"/><path d="M418.6,1006.05c3.27-6,10.38-22.89,25.1-33.31,8-5.65,17.5-8.85,31.84-8.85H500v12.33c-49.93,0-55.42,1.5-74.31,45.37l-11.82-5.44S416.71,1009.54,418.6,1006.05Zm-52.5-3.21c28.47-78.49,36-131.24,37.76-213.09,1.13-51-7.4-122.38-5.33-167.83C401,568.34,452.21,490.17,500,490.17v12.6c-21.64,0-53.29,27.17-71.25,61.81-12.92,24.92-17.91,50.76-18.3,69.73-.51,25,3.47,68.08,5.07,121.65a781.5,781.5,0,0,1-3.39,101.8c-4.23,44.43-12.39,90.67-29.78,137.82-1.88,5.09-4.07,10.91-4.07,10.91Z" style="fill:#d21034;stroke:#d21034"/><path d="M500,490.19c-39.89,0-104.75,66.37-102.14,154.24,2,68,8.83,121.94,3.42,192.65-3.86,50.44-11.28,106.19-35.6,166.8l60,17.32c14.23-33.91,26.59-44.71,48.62-44.71h51.46c22,0,34.39,10.81,48.62,44.71l60-17.32c-24.33-60.61-31.74-116.36-35.6-166.8-5.41-70.71,1.4-124.7,3.42-192.65C604.75,556.56,539.89,490.19,500,490.19Z" style="fill:none;stroke:#000;stroke-linejoin:round;stroke-width:5px"/><path d="M489.34,534.73V466a10.66,10.66,0,1,1,21.31,0v68.78Zm21.31,402V1037.5a10.66,10.66,0,0,1-21.31,0V936.75Z"/><path d="M458.75,114c-39,2.91-65.67,10.82-97.09,20.33-17,5.14-13.8,32.1,13.35,24.61,25.07-6.91,45.36-13.47,75.11-15.17,7.38-.42,11.38,4.7,10.93,10.72Z" style="fill:#fff"/><path d="M541.25,114c39,2.91,65.67,10.82,97.09,20.33,17,5.14,13.8,32.1-13.35,24.61-25.07-6.91-45.36-13.47-75.11-15.17-7.38-.42-11.38,4.7-10.93,10.72Z" style="fill:#fff"/><path d="M219.07,255.22l12.84-63.09L167.55,192c49.12-40.1,105.61-68.3,172-87.73C337.14,92.92,334.76,82,332,67c-1.67-9.27-.16-18.84,10.87-23C378.09,30.7,435.35,21.82,500,21.82S621.91,30.7,657.08,44c11,4.17,12.54,13.74,10.87,23-2.71,15.05-5.09,25.93-7.54,37.33,66.43,19.43,122.91,47.63,172,87.73l-64.36.09,12.84,63.09c-61.55-43.61-127.31-74.81-232.55-89.55-13.94-2-11.55-22.66,1.51-21.92,29.75,1.7,50,8.25,75.11,15.17,27.15,7.49,30.33-19.47,13.35-24.61C597.56,122,558.3,112.54,500,112.88c-58.3-.35-97.56,9.09-138.35,21.43-17,5.14-13.8,32.1,13.35,24.61,25.07-6.91,45.36-13.47,75.11-15.17,13.07-.75,15.45,20,1.51,21.92C346.38,180.41,280.62,211.62,219.07,255.22Z" style="fill:#fff;stroke:#000;stroke-linejoin:round;stroke-width:3px"/><path d="M339.32,103.08l12.07,46.72" style="fill:none;stroke:#000;stroke-width:3px"/><path d="M461,154.48,458.75,114" style="fill:none;stroke:#000;stroke-width:3px"/><path d="M660.68,103.08,648.61,149.8" style="fill:none;stroke:#000;stroke-width:3px"/><path d="M539,154.48l2.29-40.5" style="fill:none;stroke:#000;stroke-width:3px"/><path d="M500,112.74V109c-41.23,0-76.76,3.43-126.07,17.63-13.19,3.8-20.63,4.88-24.65,13.35l1.29,7c1.61-13.32,14.92-14.93,62.79-25.85C441.33,114.71,470.32,112.45,500,112.74Z" style="stroke:#000"/><path d="M500,21.81c-64.65,0-121.91,8.87-157.08,22.16-8.68,3.28-11.46,9.91-11.44,17.1l.69,2.87c-.32-11.53,8.94-15.3,16.2-17.82C389.49,31.84,447.7,25.71,500,25.71Z" style="stroke:#000;stroke-linejoin:round"/><path d="M334.11,73.64l-.76.3c2.18,11.54,4.19,20.84,6.24,30.36-66.43,19.43-122.91,47.63-172,87.73l64.36.09-12.84,63.09c61.55-43.61,127.31-74.81,232.55-89.55a10.31,10.31,0,0,0,9.2-8.57l-.51-6.07c1.29,7.48-4.28,10.12-8,10.64C406.68,168,358,178.8,311.8,198.39a477.34,477.34,0,0,0-87,48.22q5.41-26.61,10.84-53.25c.69-3.42-1.51-5.08-4.18-5.09-18,0-35.24,0-52.73-.09a432.88,432.88,0,0,1,72.9-45.68A536.28,536.28,0,0,1,340.92,108Z" style="stroke:#000;stroke-linejoin:round"/><path d="M460,146.11c-2.56-2.85-5.31-4.56-11-4.23-21.57,1.26-40.2,5.43-64.71,12.46-14.82,4.65-27.53,7.58-32-4,2.84,13.49,18,10.11,24,8.34,24.09-7.07,44.2-12.09,65.15-14.23,9.93-1,12.23-.85,18.55,1.71Z" style="stroke:#000"/><path d="M500,112.74V109c41.23,0,76.76,3.43,126.07,17.63,13.19,3.8,20.63,4.88,24.65,13.35l-1.29,7c-1.61-13.32-14.92-14.93-62.79-25.85C558.67,114.71,529.68,112.45,500,112.74Z" style="stroke:#000"/><path d="M500,21.81c64.65,0,121.91,8.87,157.08,22.16,8.68,3.28,11.46,9.91,11.44,17.1l-.69,2.87c.32-11.53-8.94-15.3-16.2-17.82C610.51,31.84,552.3,25.71,500,25.71Z" style="stroke:#000;stroke-linejoin:round"/><path d="M665.89,73.64l.76.3c-2.18,11.54-4.19,20.84-6.24,30.36,66.43,19.43,122.91,47.63,172,87.73l-64.36.09,12.84,63.09c-61.55-43.61-127.31-74.81-232.55-89.55a10.31,10.31,0,0,1-9.2-8.57l.51-6.07c-1.29,7.48,4.28,10.12,8,10.64C593.32,168,642,178.8,688.2,198.39a477.34,477.34,0,0,1,87,48.22Q769.83,220,764.4,193.36c-.69-3.42,1.51-5.08,4.18-5.09,18,0,35.24,0,52.73-.09a432.88,432.88,0,0,0-72.9-45.68A536.28,536.28,0,0,0,659.08,108Z" style="stroke:#000;stroke-linejoin:round"/><path d="M540,146.11c2.56-2.85,5.31-4.56,11-4.23,21.57,1.26,40.2,5.43,64.71,12.46,14.82,4.65,27.53,7.58,32-4-2.85,13.49-18,10.11-24,8.34-24.09-7.07-44.2-12.09-65.15-14.23C548.62,143.39,546.32,143.55,540,146.11Z" style="stroke:#000"/><path d="M623.46,109.83a27.93,27.93,0,0,0,5-3.37,9.63,9.63,0,0,0,2.63-3.74q.8-1.74,1.65-4T634.39,94q3.16-9.5,6.1-19.36t5-19l-.43-.32q-1.67.74-3.59,1.8t-3.58,2.16q-1.72,7.52-4.18,17t-5,17.18L627,98.64q-.88,2.69-1.9,5.42a50.37,50.37,0,0,1-2.26,5.16Z" style="fill:#007229"/><path d="M598.07,93.2a3.76,3.76,0,0,0-3.13.46,3.46,3.46,0,0,0-1.42,1.93,4,4,0,0,0,.11,2.6,3.36,3.36,0,0,0,2.69,2.07,29.92,29.92,0,0,0,4.3.77,15.7,15.7,0,0,0,3.79-.17,8.64,8.64,0,0,0,3.82-1.59,19.33,19.33,0,0,0,3.16-3.2,22.18,22.18,0,0,0,3.14-5.52,54.67,54.67,0,0,0,2.72-7.69q1.27-4.58,2.39-9.47t2.27-9.68a32.9,32.9,0,0,0,4.23-1.81,40.61,40.61,0,0,1-1.42-7.62,16.43,16.43,0,0,1,.55-6.14l-.3-.38a26.91,26.91,0,0,0-3.86,2.15,5.74,5.74,0,0,0-2.68,3.19q-.42,1.52-.72,3.28t-.67,3.7q-1.48,7.73-3.08,15t-3.37,13.82q-1.22,4.26-4.57,5.08a11.74,11.74,0,0,1-3.6.12,33.78,33.78,0,0,1-4.35-.86Z" style="fill:#007229"/><path d="M572.45,86.42c-1.73-.16-2.14,0-2.87.59a3.46,3.46,0,0,0-1.3,2,4,4,0,0,0,.26,2.59,3.25,3.25,0,0,0,2.8,2l1.18.1a28.16,28.16,0,0,0,6.78.13c2.21-.3,3.89-.45,5.29-2.09l.22,0a8.79,8.79,0,0,0,3.41,5.35A17.3,17.3,0,0,0,595,100l1.27.28,1.57-7.09-1-.22a12.51,12.51,0,0,1-3.75-1.42,9.59,9.59,0,0,1-2.64-2.31,4.54,4.54,0,0,1-1-2.28,7.68,7.68,0,0,1,.17-2.72,15.79,15.79,0,0,1,.9-2.54q.68-1.61,1.74-3.62l-.25-.46-4.44,1.93-2.93,5.63c-.84,1.48-2.08,1.46-4.2,1.71a30.78,30.78,0,0,1-6.31-.25c-.59,0-1.36-.14-1.7-.18Z" style="fill:#007229"/><path d="M507.5,80.48q2.8-1.1,6.43-2.15t7.92-2A11.14,11.14,0,0,0,523,81a14.29,14.29,0,0,0,3.45,4.36A73.66,73.66,0,0,0,523,94l1.13.78q1.26-1.87,2.59-3.73t2.79-3.58a18.74,18.74,0,0,0,4.66,1.81,34.84,34.84,0,0,0,5.76.92,44.65,44.65,0,0,0,7.53,0,42.75,42.75,0,0,0,5.81-.93c2.89,1.31,4.57,2.32,8.4,3.07A72.62,72.62,0,0,0,570,93.5l1.47.12.59-7.24-7.52-.61a42.81,42.81,0,0,0,2.53-5.71,17.29,17.29,0,0,0,1.23-4.92,12.63,12.63,0,0,0-2.67-9q-3-3.88-9.1-4.54a15,15,0,0,0-7,1.17,28.92,28.92,0,0,0-6.14,3.63,50.43,50.43,0,0,0-7,6.31q-3,3.33-5.7,6.84a11.83,11.83,0,0,1-4.86-5,15.06,15.06,0,0,1-1.35-6.12q-11,2.67-21.1,5.91A50.23,50.23,0,0,0,501.14,81c1,1.32,1.72,1.33,2.57,2.54.48.69.73,2-.59,3.83a33.06,33.06,0,0,1-4.86,5.14,30.23,30.23,0,0,1-7.33,4,18.38,18.38,0,0,1-7.78,1.1,17,17,0,0,1-3.38-.61,16.4,16.4,0,0,1-3.4-1.42l-1,1.51q7.29,6.09,13.24,6.6a12.21,12.21,0,0,0,5.87-1.07,27.67,27.67,0,0,0,7.2-4.81,24.39,24.39,0,0,0,3.89-5,18.42,18.42,0,0,0,2.07-5.5,30.15,30.15,0,0,0,.51-3.93,4,4,0,0,0-.67-2.87Zm26.08.7a50.27,50.27,0,0,1,10.22-9.45,16.05,16.05,0,0,1,10-3,11.38,11.38,0,0,1,6.71,3A9.56,9.56,0,0,1,563.74,78a3.19,3.19,0,0,1-1.47,2.21,12.12,12.12,0,0,1-3.52,1.66,34.7,34.7,0,0,1-6.5,1.22,46.68,46.68,0,0,1-8.42.13,51.67,51.67,0,0,1-6.27-.85,21.37,21.37,0,0,1-4-1.18Z" style="fill:#007229"/><path d="M594.07,51.68l2.67,3.52q1.32,1.75,2.61,3.63a23,23,0,0,0,5.8-4.42,51.33,51.33,0,0,0-5.34-7.4q-2.82,2.12-5.74,4.66Z" style="fill:#007229"/><path d="M432.74,88.09a173.6,173.6,0,0,1-18.82,6.44,133.85,133.85,0,0,1-13.64,3.12,80.32,80.32,0,0,1-16,1.41c-10.12-.54-14.92-2-15.79-10.9-.69-7-.63-6.3-1.41-13.3s-.93-5.88-2-12.09l-.42-.19a29.72,29.72,0,0,0-2.32,2.58q-1.19,1.47-2.48,3.19c1,5.94,1.18,4,2,9.63s.74,3.4,1.27,8.76a83,83,0,0,0,1.41,9.67c.52,2.68,4.38,8.61,17.3,9.82,5,.46,13.13-.35,18.67-1.26a128.9,128.9,0,0,0,15.1-3.38A198.41,198.41,0,0,0,435.09,95Z" style="fill:#007229"/><path d="M410.88,76.08l4,1.78q2,.89,4,1.91a23,23,0,0,0,2.93-6.67,51.33,51.33,0,0,0-8.26-3.88Q412.2,72.45,410.88,76.08Z" style="fill:#007229"/><path d="M433.08,87.94c-2,.83-3,2.57-2.69,4.2a4,4,0,0,0,4.85,2.81c1.24-.51,2.57-1.08,3.76-1.67A13.53,13.53,0,0,0,442.36,91a9.83,9.83,0,0,0,3.12-5.44l.22-.06A10.1,10.1,0,0,0,451,89l1.51-6.89c-2.41-.81-3.38-1.18-5.13-3.08a6.06,6.06,0,0,1-1.18-2.46,15.79,15.79,0,0,1-.45-2.66q-.18-1.74-.23-4l-.44-.28-2.95,3.84.17,6.35A6.08,6.08,0,0,1,440,84.33a13.1,13.1,0,0,1-3.29,2.1c-1.41.62-2.32,1-3.62,1.51Z" style="fill:#007229"/><path d="M452.59,82.08c-1.8-.55-2.72,1.2-3.09,2.66a5.86,5.86,0,0,0,.43,3.87,22.14,22.14,0,0,0,2.48.71,21.4,21.4,0,0,0,5.13.63,18.58,18.58,0,0,0,5.41-.79,15.22,15.22,0,0,0,7.21-4.61,14.4,14.4,0,0,0,3.24-6.61c.34-3-.19-6.73-.61-11.06-.11-1.09-.2-1.82-.51-4.5-.38-3.32-.17-.83-.51-4.1a32.9,32.9,0,0,0,3.39-3.11,40.61,40.61,0,0,1-3.88-6.72,16.43,16.43,0,0,1-1.53-6l-.41-.26a26.91,26.91,0,0,0-2.92,3.31,5.74,5.74,0,0,0-1.46,3.9q.11,1.57.41,3.34t.6,3.71c.78,5.19.91,4.45,1.51,9.36s.47,3.84.85,8.37c.21,2.52-2,5.29-5,7a11.38,11.38,0,0,1-6.36,1.57,16.11,16.11,0,0,1-4.33-.66Z" style="fill:#007229"/><path d="M216.14,846.19c-7.9.06-13.75,6.67-11.32,12.62,12.4,30.44,41.22,65.89,82.61,96.08,5.92-7,17-20.07,23.55-27.79-28.49-21-58.83-39.94-77.71-69.54-5.37-8.41-11.73-11.43-17.13-11.38Z" style="fill:#fff"/><path d="M783.87,846.19c7.9.06,13.75,6.67,11.32,12.62-12.4,30.44-41.22,65.89-82.61,96.08-5.92-7-17-20.07-23.55-27.79,28.49-21,58.83-39.94,77.71-69.54C772.1,849.16,778.46,846.15,783.87,846.19Z" style="fill:#fff"/><path d="M202.57,744.57l-18.31,93.84-73-49c14.78,37.78,32.18,77.56,55,111.46q-13.69,16.2-27.12,32.45c-5.27,6.38-4.88,12.2,2.3,21.28,77.95,98.61,206.75,169,358.55,169s280.6-70.37,358.55-169c7.18-9.08,7.58-14.9,2.3-21.28Q847.4,917,833.72,900.83c22.86-33.9,40.26-73.69,55-111.46l-73,49-18.31-93.84C788.29,787,763.63,859.35,690.84,914c-5.65,4.24-5.35,8.93-1.82,13.11,3.06,3.61,7.62,3.7,11.75.51,25.7-19.87,48.62-42.86,66-70.05,13.21-20.7,32.54-8.79,28.46,1.24-28.27,69.4-141.88,164.77-295.19,164.77S233.09,928.21,204.81,858.81c-4.09-10,15.25-21.94,28.46-1.24,17.35,27.19,40.26,50.18,66,70.05,4.12,3.19,8.69,3.09,11.75-.51,3.54-4.17,3.83-8.87-1.82-13.11C236.37,859.35,211.71,787,202.57,744.57Z" style="fill:#fff;stroke:#000;stroke-linejoin:round;stroke-width:3px"/><path d="M311,927.11l-23.76,28" style="fill:none;stroke:#000;stroke-width:3px"/><path d="M166.28,900.85c13.59-16.34,28.36-32.22,39.36-49.31" style="fill:none;stroke:#000;stroke-width:3px"/><path d="M689,927.11l23.76,28" style="fill:none;stroke:#000;stroke-width:3px"/><path d="M833.72,900.85c-13.59-16.34-28.36-32.22-39.36-49.31" style="fill:none;stroke:#000;stroke-width:3px"/><path d="M204.36,854.88l-3.72,4c10.25,25.22,28.7,49.9,52.64,72.65,27.3,25.94,70.44,56.4,126.36,75.68A368.63,368.63,0,0,0,500,1027.46v-3.87c-153.31,0-266.92-95.38-295.19-164.77A7.39,7.39,0,0,1,204.36,854.88Z" style="stroke:#000"/><path d="M140.29,932.14c-.29.35-.84.79-1.13,1.15-5.27,6.38-4.88,12.2,2.3,21.28,77.95,98.61,206.75,169,358.55,169v-3.87c-47.22,0-104.45-7-163.56-29.15A449.53,449.53,0,0,1,215.71,1023c-32.2-25.36-56.48-51.74-71.81-71.56C138,943.8,134.92,939,140.29,932.14Z" style="stroke:#000"/><path d="M202.57,744.57l-18.31,93.84-73-49c14.78,37.76,32.16,77.54,55,111.43l2.57-3.15c-13-19.4-22.81-38.45-31.82-57.46-6.56-13.84-12.14-27.29-17.65-40.69,20.75,14,39.53,26.44,62.15,41.72,3.47,2.34,6,.8,6.9-3.81,5-25.76,11.31-58.16,14.59-74.86,9,33.28,24.46,66.84,45.68,95.75a282.42,282.42,0,0,0,53.4,55.16c4.67,3.64,11.91,8.41,7.87,13.9l3.48-5c.51-2.8-.69-5.67-4.27-8.36C236.37,859.35,211.71,787,202.57,744.57Z" style="stroke:#000"/><path d="M795.64,854.88l3.72,4c-10.25,25.22-28.7,49.9-52.64,72.65-27.3,25.94-70.44,56.4-126.36,75.68A368.63,368.63,0,0,1,500,1027.46v-3.87c153.31,0,266.92-95.38,295.19-164.77A7.39,7.39,0,0,0,795.64,854.88Z" style="stroke:#000"/><path d="M859.71,932.14c.29.35.84.79,1.13,1.15,5.27,6.38,4.88,12.2-2.3,21.28-77.95,98.61-206.75,169-358.55,169v-3.87c47.22,0,104.45-7,163.56-29.15A449.53,449.53,0,0,0,784.29,1023c32.2-25.36,56.48-51.74,71.81-71.56C862,943.8,865.08,939,859.71,932.14Z" style="stroke:#000"/><path d="M797.43,744.57l18.31,93.84,73-49c-14.78,37.76-32.16,77.54-55,111.43l-2.57-3.15c13-19.4,22.81-38.45,31.82-57.46,6.56-13.84,12.14-27.29,17.65-40.69-20.75,14-39.53,26.44-62.15,41.72-3.47,2.34-6,.8-6.9-3.81-5-25.76-11.31-58.16-14.59-74.86-9,33.28-24.46,66.84-45.68,95.75a282.41,282.41,0,0,1-53.4,55.16c-4.67,3.64-11.91,8.41-7.87,13.9l-3.48-5c-.51-2.8.69-5.67,4.27-8.36C763.63,859.35,788.29,787,797.43,744.57Z" style="stroke:#000"/><path d="M206.34,860.17c-2.17-5.56,1.94-10.89,8.08-11.94s12.87,3.17,17.73,11.18c4.14,6.82,14.79,21.22,24.21,31.51a336.24,336.24,0,0,0,42.47,38.81c2.36,1.82,5.1,2.23,7.86,2.52l1.07-2.31c-7.58,2.36-33.91-23.41-49.72-40.17-20.14-21.35-29.19-47.27-44.21-43.79-6.29,1.46-10.27,5.54-10.27,12.16Z" style="stroke:#000"/><path d="M793.66,860.17c2.17-5.56-1.94-10.89-8.08-11.94s-12.87,3.17-17.73,11.18c-4.14,6.82-14.79,21.22-24.21,31.51a336.23,336.23,0,0,1-42.47,38.81c-2.36,1.82-5.1,2.23-7.86,2.52l-1.07-2.31c7.58,2.36,33.91-23.41,49.72-40.17,20.14-21.35,29.19-47.27,44.21-43.79,6.29,1.46,10.27,5.54,10.27,12.16Z" style="stroke:#000"/><path d="M422.17,1037q-1.54.78-3.19,1.79,0,2.28-.18,3.92a11,11,0,0,1-.37,2.19,1.57,1.57,0,0,1-.73.12,2.09,2.09,0,0,1-.74-.17,3.09,3.09,0,0,1-.78-.54,3.59,3.59,0,0,1-.66-.81,3.19,3.19,0,0,1-.57-2.24,11,11,0,0,1,.9-3.53l-.11-.17a6.26,6.26,0,0,0-1.13.25l-1.09.36-1.47,3.63a3,3,0,0,1-1.23,1.37,2.37,2.37,0,0,1-2.2,0,1.52,1.52,0,0,1-.91-1.28,4.13,4.13,0,0,1,.46-2.11,13,13,0,0,1,1.73-2.7l-.11-.17a21.33,21.33,0,0,0-2.42.39,13.69,13.69,0,0,0-1.95,3.17,9.06,9.06,0,0,0-1,4,3.86,3.86,0,0,0,.59,1.6,3.38,3.38,0,0,0,1.44,1.19q2.24,1,5.94-.84l.15.07a4.35,4.35,0,0,0,1.15,1.47,7,7,0,0,0,1.61,1,2.68,2.68,0,0,0,2,.16,5.33,5.33,0,0,0,2.23-1.6,6.43,6.43,0,0,0,.91-1.35q.36-.72.66-1.42a14.11,14.11,0,0,0,.89-3.08,22,22,0,0,0,.36-4.58Z" style="fill:#007229"/><path d="M711.93,1027.1a4.09,4.09,0,0,0-2,2.86,3.57,3.57,0,0,0,.58,2.4,4.17,4.17,0,0,0,2.13,1.64c2.49.34,3.9-1,6-2.41a43.3,43.3,0,0,0,9.9-8.94,49.81,49.81,0,0,0,6.82-11.68l4.51-10.78a13,13,0,0,1,2.37-3.53,24.1,24.1,0,0,1,4.8-4l-.88-6.83H746l-3.89,2.71a31.31,31.31,0,0,1-4.72,2.55,26,26,0,0,1-4.62,1.52A93.46,93.46,0,0,0,721,995.9a31.73,31.73,0,0,0-7,3.33,13.81,13.81,0,0,0-5.71,7.3,10.67,10.67,0,0,0,1.11,8.57l6.72,4.79.48-.33-1.51-5.35-2.23-2q.41-3.75,4.51-6.6a38.87,38.87,0,0,1,7.8-4,80.26,80.26,0,0,1,9.73-3l.08.23a86.72,86.72,0,0,1-9.24,16,45,45,0,0,1-10.83,10.25Zm26.42,9.12,4.54.49q2.25.25,4.57.62a23.69,23.69,0,0,0,.8-7.48,53,53,0,0,0-9.34-1.24q-.41,3.62-.57,7.61Z" style="fill:#007229"/><path d="M672.44,1048.16a4.09,4.09,0,0,0-2.25,2.64,3.57,3.57,0,0,0,.34,2.45,4.17,4.17,0,0,0,2,1.85,3.92,3.92,0,0,0,3.52-.34l.77-.42c2.75-1.54,4.77-3.26,5.82-5.32a11.06,11.06,0,0,0,1.28-6.21l.21-.11a28.13,28.13,0,0,0,10.21,1.33,19.87,19.87,0,0,0,8.28-2,5.36,5.36,0,0,0,2.49-3.54,9.17,9.17,0,0,0-.46-4.81l.21-.11a10.75,10.75,0,0,0,5.57,1.57,10.45,10.45,0,0,0,4.79-1.36l1-.53-3.56-6.6-.88.47a11.91,11.91,0,0,1-5.81,1.58,7.68,7.68,0,0,1-4.51-1.47q-4.34-3.2-6.57-4.66a36.27,36.27,0,0,0-3.82-2.25,9.39,9.39,0,0,0-4.25-1.16,7.85,7.85,0,0,0-3.81,1,8.94,8.94,0,0,0-4,5.35,19.56,19.56,0,0,0-.29,9.6,15.12,15.12,0,0,1,.13,7.2c-.54,2-2.24,3.57-4.87,5Zm9.27-13.56a8.38,8.38,0,0,1,.46-4.54,6.53,6.53,0,0,1,3-3.3,6.76,6.76,0,0,1,4-.64,14.41,14.41,0,0,1,5.09,1.72,22.77,22.77,0,0,1,3.65,2.48,11.09,11.09,0,0,1,2.62,3,1.23,1.23,0,0,1,0,1.41,3.55,3.55,0,0,1-1.21.91,13.56,13.56,0,0,1-3.71,1.18,22,22,0,0,1-4.64.38,24.85,24.85,0,0,1-5.16-.71A9,9,0,0,1,681.7,1034.6Z" style="fill:#007229"/><path d="M639,1062.41a4.09,4.09,0,0,0-2.48,2.43,3.57,3.57,0,0,0,.12,2.47,4.17,4.17,0,0,0,1.78,2,3.92,3.92,0,0,0,3.54,0l1-.44q1.07-.46,2.16-1t2-1.08l1.13,2.64a18.71,18.71,0,0,0,5.35,7,16.81,16.81,0,0,0,7.91,3.66,14.29,14.29,0,0,0,4.49,0,16.61,16.61,0,0,0,4.08-1.14,9.36,9.36,0,0,0,4-3.56,12.18,12.18,0,0,0,1.84-8.52,14.75,14.75,0,0,0-1-3.65,13.85,13.85,0,0,0-2.09-3.34,17,17,0,0,0-3.23-3l.22-.22a14.09,14.09,0,0,0,2.61-.61q1.36-.45,2.15-.79l1.4-.6-3-6.89-10.5,4.5a25.22,25.22,0,0,0-2-7.55,17.58,17.58,0,0,0-5.09-6.27,72.15,72.15,0,0,0-8.45-5.84l-1.81-1.19a16,16,0,0,1-1.57-1.19l-.42.37a51.52,51.52,0,0,0-.21,16.47q.85,6.57,2,12.72Zm11.36,3.16a42,42,0,0,1,5.88-3.09,12,12,0,0,1,5.82-1.06,10.43,10.43,0,0,1,4.6,1.57,12.34,12.34,0,0,1,3.29,2.89,11.76,11.76,0,0,1,1.58,2.67,2.68,2.68,0,0,1,0,2.23,3.7,3.7,0,0,1-2,1.75,12.86,12.86,0,0,1-6,.86,18.17,18.17,0,0,1-6.61-1.84,16.8,16.8,0,0,1-3.86-2.6,12.13,12.13,0,0,1-2.71-3.38Zm-2.37-7q-1.35-9.46-2-18.65l.27-.12a89.59,89.59,0,0,1,7.64,5,14.28,14.28,0,0,1,4.6,5.09,2.11,2.11,0,0,1-.17,1.84,7.93,7.93,0,0,1-2.21,2.43,23.86,23.86,0,0,1-3.7,2.32q-2.08,1.06-4.43,2.06Z" style="fill:#007229"/><path d="M634.55,1063.89q-4.15-8.22-9.13-12t-9-2.59a9.1,9.1,0,0,0-4.3,3.11,15,15,0,0,0-2.5,5.06,15.87,15.87,0,0,0,.13,9.89q1.93,5.82,7.16,7.2t13.74-1.46l2.73-.9a12.43,12.43,0,0,1-.58,4.56,34,34,0,0,1-2.07,5,30.43,30.43,0,0,1-5.54,8.13,18.44,18.44,0,0,1-7.38,4.66,18.75,18.75,0,0,1-4.71.93,17.09,17.09,0,0,1-4.13-.23l-.34,2.15a48.63,48.63,0,0,0,9.45,1.36,24.41,24.41,0,0,0,8.43-1q2.38-.77,5.44-4.37a25.94,25.94,0,0,0,4.82-9.58,29.28,29.28,0,0,0,1-6.66,23,23,0,0,0-.54-6.15l4.62-1.53-2.36-7.12Zm-3.78,1.25q-2.7.92-5.25,1.62a25.1,25.1,0,0,1-5,.86,12.81,12.81,0,0,1-5-.63,4.58,4.58,0,0,1-2.88-2.87,4.87,4.87,0,0,1,.89-3.94,7.51,7.51,0,0,1,3.78-3,6.83,6.83,0,0,1,3.32-.2,11,11,0,0,1,3.61,1.37,15.72,15.72,0,0,1,3.64,2.86,19.84,19.84,0,0,1,2.94,4Z" style="fill:#007229"/><path d="M587.91,1054.29q-1.3,4-2.38,8.08a92.69,92.69,0,0,1,9.78,11q.45.67.88,1.39a5.43,5.43,0,0,1,.62,1.45,6.34,6.34,0,0,1,0,2.66,30,30,0,0,1-5.87,12.81,19.9,19.9,0,0,1-10.55,7.27,20.19,20.19,0,0,1-3.51.51,22.21,22.21,0,0,1-3.06-.05l-.17,2.09q9.37,2.38,15.69,1a9.61,9.61,0,0,0,4.18-2.27,20.91,20.91,0,0,0,4-5.12,39,39,0,0,0,3.38-9.27,19.1,19.1,0,0,0,.1-8.27l-1.47-6.28a21.51,21.51,0,0,0-2.32-6,27.39,27.39,0,0,0-3.07-4.19l-5.85-6.75Z" style="fill:#007229"/><path d="M544.07,1086a4.09,4.09,0,0,0-3,1.73,3.57,3.57,0,0,0-.51,2.42,4.17,4.17,0,0,0,1.22,2.4,4.93,4.93,0,0,0,4.05.8,47.94,47.94,0,0,0,10.09-2.34,10.58,10.58,0,0,0,5-3.54,24.75,24.75,0,0,0,2.14-5.68,15.41,15.41,0,0,0,.27-6,28.84,28.84,0,0,0-3.3-8.94,56.16,56.16,0,0,0-5.18-7.85l-.29,0a46.36,46.36,0,0,0-3.35,7.21q3,4.16,5.29,7.74a18.11,18.11,0,0,1,2.67,5.69,1.8,1.8,0,0,1-.68,1.5,10.38,10.38,0,0,1-2.22,1.88,19.33,19.33,0,0,1-4.68,1.63q-2.86.66-6.57,1.21ZM559,1109.19q-1.95-1.56-3.76-2.82t-3.78-2.37q-.92,1.3-1.88,2.88t-1.86,3.32q1.94,1.16,3.8,2.37t3.89,2.62a22.86,22.86,0,0,0,1.84-2.69q.82-1.41,1.75-3.3Zm11.07-2.45q-1.95-1.56-3.76-2.82t-3.78-2.37q-.92,1.3-1.88,2.88t-1.86,3.32q1.94,1.16,3.8,2.37t3.89,2.62a22.86,22.86,0,0,0,1.84-2.7q.82-1.41,1.75-3.3Z" style="fill:#007229"/><path d="M531.23,1086.17q2,4.74,5.16,6.24a14.22,14.22,0,0,0,7.47,1.11l1.29-.08-.48-7.48-1.4.09a16.52,16.52,0,0,1-3.55-.09,5.24,5.24,0,0,1-4.66-4.12,21.88,21.88,0,0,1-.78-5q-.92-13.62-2.11-27.23l-.64,0q-1.12,1.14-2.21,2.44t-2.1,2.65l.63,4.36q-14.6,9.37-17.67,17.29a17.52,17.52,0,0,0-1.43,7,5.76,5.76,0,0,0,3.35,5,15.2,15.2,0,0,0,7.73,1.17,26.45,26.45,0,0,0,6.2-1.14,31.78,31.78,0,0,0,5.21-2.18Zm-1.34-6.2a39.56,39.56,0,0,1-4.6,1.54,21.11,21.11,0,0,1-4,.66,15.18,15.18,0,0,1-5.28-.44q-2.21-.65-2.41-2.35-.14-2.33,3.66-5.81a73.36,73.36,0,0,1,11.36-8Zm5.87-41.83q-1.81-1.72-3.51-3.13t-3.56-2.69q-1,1.22-2.12,2.71t-2.14,3.15q1.83,1.32,3.59,2.69t3.65,2.95a22.85,22.85,0,0,0,2.07-2.53Q534.67,1039.94,535.76,1038.14Zm-11.24,1.49q-1.81-1.72-3.51-3.13t-3.56-2.69q-1,1.22-2.12,2.71t-2.14,3.15q1.83,1.32,3.59,2.69t3.65,2.95a22.85,22.85,0,0,0,2.07-2.53Q523.43,1041.43,524.52,1039.63Z" style="fill:#007229"/><path d="M469.19,1095.72a28.83,28.83,0,0,0,4.14-4.62,9.94,9.94,0,0,0,1.7-4.4q.36-1.94.65-4.42t.48-5.19q.79-10.31,1.26-20.92t.29-20.33l-.51-.21q-1.49,1.16-3.15,2.7t-3,3.06q.15,8,.06,18.06t-.67,18.44l-.43,5.73q-.2,2.92-.54,5.9a52,52,0,0,1-1,5.74Z" style="fill:#007229"/><path d="M440.6,1084.45a4,4,0,0,0-3.37.84,3.57,3.57,0,0,0-1.15,2.19,4.17,4.17,0,0,0,.51,2.64,5.13,5.13,0,0,0,3.87,1.91,17.48,17.48,0,0,0,3.75,0,16.07,16.07,0,0,0,3.8-.84,8.79,8.79,0,0,0,3.54-2.35,19.22,19.22,0,0,0,2.61-3.71,29.5,29.5,0,0,0,2.74-6.94,56.43,56.43,0,0,0,1.6-8.27q.6-4.87,1-10t.84-10.23a34,34,0,0,0,4-2.49,41.92,41.92,0,0,1-2.62-7.57,17,17,0,0,1-.38-6.35l-.37-.34a27.77,27.77,0,0,0-3.61,2.79,5.93,5.93,0,0,0-2.24,3.67q-.19,1.62-.24,3.46t-.11,3.88q-.33,8.12-.86,15.75t-1.33,14.63c-.4,3-1.84,5.91-4,6.81a13,13,0,0,1-3.66.84,23.65,23.65,0,0,1-4.33-.27Z" style="fill:#007229"/><path d="M441.3,1084.59l-1.25-.3a13.87,13.87,0,0,1-6.38-3,5.31,5.31,0,0,1-1.52-5.39,21.69,21.69,0,0,1,1.32-3.65q.92-2,1.95-3.82l-.19-.22-5,1.89q-.86,1.74-1.37,2.69l-.83,1.55a14.51,14.51,0,0,1-2,2.93,6.69,6.69,0,0,1-2.57,1.76,8,8,0,0,1-1.78.47,6.74,6.74,0,0,1-2.45-.14,3.09,3.09,0,0,1-2.18-1.65,3.65,3.65,0,0,1-.24-2.41,12.81,12.81,0,0,1,1.34-3.32,55.49,55.49,0,0,1,3-4.68l-.17-.28-4.81,1-2.16,3a15.29,15.29,0,0,1-2.32,2.49,10.05,10.05,0,0,1-2.57,1.66,8.55,8.55,0,0,1-2.72.71,8.28,8.28,0,0,1-2.65-.17,3.34,3.34,0,0,1-2-1.28,2.79,2.79,0,0,1-.38-2.3,8.57,8.57,0,0,1,1.82-3.06q1.49-1.79,3.81-4.22l-.16-.34-4.75.5-3.9,3.78a9.7,9.7,0,0,1-5.73,2.28,19,19,0,0,1-9.06-.88,3.68,3.68,0,0,0-3.5.5,3.57,3.57,0,0,0-1.37,2.05,4.17,4.17,0,0,0,.23,2.68c1.11,1.58,2,1.88,3.83,2.31a21.42,21.42,0,0,0,6.44.56,11.4,11.4,0,0,0,6.48-1.95l.23.05a5.45,5.45,0,0,0,.82,4.08,5.85,5.85,0,0,0,3.51,2.05,12.21,12.21,0,0,0,5.86,0,16.08,16.08,0,0,0,5.12-2.4l.23.05q.07,3.09,1.62,4.46a7.28,7.28,0,0,0,3.48,1.74,10.56,10.56,0,0,0,5.22-.11,17.42,17.42,0,0,0,5.8-3l.34.08a8,8,0,0,0,2.84,4.76q2.41,2.1,7.64,3.37l1.43.34Z" style="fill:#007229"/><path d="M378.89,1068.56q1.84-9,.29-15.1t-5.43-7.6a9.09,9.09,0,0,0-5.3-.22,15,15,0,0,0-5.1,2.42,15.87,15.87,0,0,0-6,7.84q-2.09,5.77,1.16,10.09t11.69,7.37l2.7,1a12.43,12.43,0,0,1-3.28,3.22,34,34,0,0,1-4.7,2.61,30.43,30.43,0,0,1-9.39,2.94,18.44,18.44,0,0,1-8.68-.92,18.75,18.75,0,0,1-4.28-2.19,17.32,17.32,0,0,1-3.09-2.74l-1.6,1.48a48.63,48.63,0,0,0,6.57,6.92,24.41,24.41,0,0,0,7.26,4.41q2.34.87,7-.06a25.94,25.94,0,0,0,9.72-4.53,29.28,29.28,0,0,0,4.91-4.6,23,23,0,0,0,3.38-5.16l4.57,1.66,2.57-7Zm-3.74-1.36q-2.69-1-5.12-2a25.1,25.1,0,0,1-4.49-2.45,12.81,12.81,0,0,1-3.54-3.6,4.58,4.58,0,0,1-.48-4,4.87,4.87,0,0,1,3.14-2.54,7.51,7.51,0,0,1,4.85,0,6.83,6.83,0,0,1,2.73,1.9,11,11,0,0,1,2,3.31,15.72,15.72,0,0,1,1.08,4.5,19.84,19.84,0,0,1-.15,4.94Z" style="fill:#007229"/><path d="M321.38,1035.5a24,24,0,0,0-1.29,2.15q-.5,1-.79,1.6-2.67,5.89-1.17,9.87a11,11,0,0,0,6.12,6.1,24.65,24.65,0,0,0,8.14,2.08,46.29,46.29,0,0,0,8.93-.12,25.66,25.66,0,0,0,3.73-3.72,22,22,0,0,0,2.84-4.52,17.64,17.64,0,0,0,1.6-7.11,30.35,30.35,0,0,0-1-7.93,51.86,51.86,0,0,0-3.19-9A60.31,60.31,0,0,0,341,1017l-.45-.15a38.47,38.47,0,0,0-3.34,2.42,8.53,8.53,0,0,0-2.2,2.37,1.71,1.71,0,0,0-.09,1.16,4.3,4.3,0,0,0,.87,1.6,46,46,0,0,1,4.05,6.17,40.78,40.78,0,0,1,3,6.91,25.9,25.9,0,0,1,1.21,7,12.41,12.41,0,0,1-.93,5.44q-.33.67-1.66.78a33,33,0,0,1-6.85-.11,21.22,21.22,0,0,1-6.28-1.83q-4.84-2.37-5.67-5.55a9.83,9.83,0,0,1,.79-6.7Z" style="fill:#007229"/><path d="M298.67,1042.83a28.83,28.83,0,0,0,5.68-2.49,9.94,9.94,0,0,0,3.37-3.31q1.13-1.62,2.42-3.76t2.58-4.52q5-9.06,9.8-18.53t8.67-18.39l-.38-.41q-1.83.44-4,1.16t-4,1.53q-3.15,7.31-7.41,16.47t-8.24,16.51l-2.76,5q-1.39,2.57-2.94,5.15a52,52,0,0,1-3.26,4.82Z" style="fill:#007229"/><path d="M301.2,1003.87q-2.06.86-4,1.82t-3.8,1.94a49.82,49.82,0,0,1-2.12,12.37q-.61,2.22-1.55,4.68a28.38,28.38,0,0,1-2.55,5,3.72,3.72,0,0,1-2,1.19,19.29,19.29,0,0,1-4,.7,25.43,25.43,0,0,1-7.61-.6,22.35,22.35,0,0,1-7.07-2.81,18.49,18.49,0,0,1-4.66-4.29,14.21,14.21,0,0,1-2.52-5,11.37,11.37,0,0,1-.19-4.91,15.84,15.84,0,0,1,2.42-5.79,19.15,19.15,0,0,1,3.51-3.79,32.32,32.32,0,0,1,5.19-3.64l-1.2-2.24a36.28,36.28,0,0,0-7,4.31,30.13,30.13,0,0,0-6.5,7.29q-4.24,6.73-2.85,13.38t8.34,11.29a25.33,25.33,0,0,0,10.12,3.61,29.64,29.64,0,0,0,11.11-.51,15.45,15.45,0,0,0,5.85-3.6,33.79,33.79,0,0,0,5.75-6.7,47.27,47.27,0,0,0,5.4-11.36A56,56,0,0,0,301.6,1004Zm-9.95-22q.67,2.2,1.32,4.37t1.21,4.45a23.69,23.69,0,0,0,7.2-2.19,53,53,0,0,0-2.51-9.08q-3.5,1-7.23,2.45Z" style="fill:#007229"/></svg>