<svg xmlns="http://www.w3.org/2000/svg" viewBox="0 0 664.29 559.06"><title>Suriname</title><path d="M517.65,112.71l-19.5-21.87c1.5-4-.4-6.88-6.62-5.5s-21.75,19.87-14.37,19.75l7.5,7.63Z" style="fill:#d8a46f;stroke:#6b240a"/><path d="M506,100.33c-8.71,10.68-11.82,11.78-13.87,12.38" style="fill:none;stroke:#6b240a"/><path d="M46.7,483.82l.13-6.36c4.07-3.36,3.51-12.27-3.18-14.5s-30-2-37.48,3.89S0,476.78,5.64,485.23s3.54,31.47-.53,42.07c3,27.35,139.42,9.66,168.29,4.95.13,2-.56,5.32-3.71,12.9,8.07,19.16,70.69,9.35,90.39,5.52,20-3.91,39-7.4,63.54-8.39s39,1.9,60.85,4.8c22.11,2.93,108.79,24.18,119.86-1.76L502.91,534c119.5,19.25,149.5,7.82,154.61,2.54,4.37-4.52,4.56-10.38,1.31-17.38s-1.12-25.12,1.41-31.47,6-18-1.6-22.21-32.39-.46-38.7,5.95-1.53,7.35.54,8.25l-.19,4.47c-18,3.25-80.61-3.64-97.58-8.49s-68.38-12.34-83.05-7.64c-15.95,5.11-12.58,11.64-8.83,15,3.93,3.55,5.88,10.82,5.16,14.91-33.87-4.37-62.33-10.84-104-11.24s-70.82,5.32-94.19,9.32c0,0,1.6-7.46,3.85-10.84,4.73-6.6,5.89-12.9-9.45-17.37s-56.78-.2-89.8,8.51C109.6,485,46.7,483.82,46.7,483.82Z" style="fill:#e00814;stroke:#000;stroke-width:2px"/><path d="M2,472.32c-1.5,7.16,12.29,13.61,12.29,13.61-6.89-1.06-7.69.35-7.69.35C.31,479.13,1.17,472.32,2,472.32Z"/><path d="M48.51,470a15.4,15.4,0,0,1-9.1,10.25,50.19,50.19,0,0,1,7.07-.27S49.72,472.9,48.51,470Z"/><path d="M46.12,482.75,32.69,481V478.6c21.74-2.92,7.42-14.32,2.12-12.9,0,0,15.73,7.34-5.3,10.69v3.8c-23.42-3.91-20.65-8.56-6.28-13.88C22,463-23.92,477.11,46,484.77l.15-2Z"/><path d="M168.08,489.16c-4.62,2.38.75,12.38.75,12.38,12.25,5.25,27.5,2.63,27.5,2.63s-15.37-1.62-17.12-2.87c0,0-.95-2.14,2.63-4,2.63-2,11.47-7.35,13.5-10.25.13-1-1.87-4.12-2.87-4.62l-2.75.5Z"/><path d="M188.34,480.46l2.3,2.74c21.21,1.41,19.13,1.49,31.38,1.15s20.05-13.15.27-14.94c-19.53-1.76-30.67,1.33-30.67,1.33s18,.13,30.23.8,10.78,10.08-.27,10.69C210.8,482.83,205.13,482,188.34,480.46Z"/><path d="M156.08,473.39c.35,2.74.28,6.74,3.8,8.57a13.75,13.75,0,0,1,6.54,6.81l1.59-.62c0-6.36-9.9-15.11-9.9-15.11Z"/><path d="M662.46,473.41s.13,6.88-10.62,12c0,0,7.38-.37,10-2A37.67,37.67,0,0,0,662.46,473.41Z"/><path d="M508.46,487.66c-1.87,8.88-9,14.25-27.25,17,0,0,15.5,2,24.63-4.12C507.13,496.95,509,491.24,508.46,487.66Z"/><path d="M428.58,475.41c0,9.13,23.63,11.13,23.63,11.13s-12.12,1.63-18.5-.5C425.78,480.7,428.36,478.14,428.58,475.41Z"/><path d="M481.58,480.53c-.75,3.13-17.37,5.38-17.37,5.38s2.5,1.5,12.38.88a21.5,21.5,0,0,0,12.5,11.5l9.25-2.37c6.25-7.5,8.63-13.62,10.25-15.37,2.82-1.88,4.25-2.25,4.38-5.62Z"/><path d="M620.83,482.66a127.66,127.66,0,0,0,17.38-1.5v-2.75s-9,1.43-13.87-2.75,13.88-8.37,13.88-8.37-17.35,7.14-6.5,8.13c1.38.13,9,0,9,0l.25,4.75c26.23-6.37,5.83-13.37-.85-13,27.75-1.12,16.43,11.67,10.72,13.66s-18.12,5.13-35.62,4.88Z"/><path d="M619.21,473.41c-2.5,6,6.38,6,6.38,6-4.5.38-4.5,1.75-4.5,1.75C614.58,476.78,619.21,473.41,619.21,473.41Z"/><path d="M492.46,470.78c-5.5,6.38-17.45,9.28-24,9.88-4.12.38-18.87.13-22.37-.12-14.35-4.78-2.25-10,17-10.75,0,0-17.48-4.47-25.75,2.63-5,5.88.5,9.75,7.38,10.5,4.66.89,23.83.52,28.88,0,4.13-.5,7.25-1.5,11.75-2.62C487.71,477.12,490.48,474.51,492.46,470.78Z"/><path d="M66.34,519.73q.1-5.06-1.7-7.43a12.85,12.85,0,0,0-4.24-3.66,17.59,17.59,0,0,1-4.26-3.11q-1.82-1.82-1.76-5.79.2-3.14,1.66-4.46a4.14,4.14,0,0,1,3.34-1.12,4.49,4.49,0,0,1,3.21,2.17,12.76,12.76,0,0,1,1.8,4.78l2-.5-.66-6.3a15.55,15.55,0,0,1-2-.89,14.73,14.73,0,0,0-1.92-.81,9,9,0,0,0-2-.43,7.12,7.12,0,0,0-5.89,2.31q-2.6,2.61-2.94,8-.08,5.77,2.35,8a28.1,28.1,0,0,0,5.39,3.79,9.86,9.86,0,0,1,3,3.06A8.86,8.86,0,0,1,63,522.43a8.63,8.63,0,0,1-1.78,5.2,4.26,4.26,0,0,1-3.67,1.71A5.05,5.05,0,0,1,53.87,527a13.07,13.07,0,0,1-2-5.36l-2,.26.56,6.18a10,10,0,0,0,3.21,2.29,11.09,11.09,0,0,0,3.48,1,7.19,7.19,0,0,0,6.21-2.81q2.66-3.08,3-8.82h0Z"/><path d="M400.61,525.31q-.1-4.8-2.09-7a13.11,13.11,0,0,0-4.61-3.25,18.38,18.38,0,0,1-4.61-2.73q-2-1.63-2.09-5.4a5.75,5.75,0,0,1,1.57-4.32,4.67,4.67,0,0,1,6.93.65,11.33,11.33,0,0,1,2.08,4.44l2-.57-1-5.94a17.23,17.23,0,0,1-2.19-.73,16.36,16.36,0,0,0-2.06-.67,10.36,10.36,0,0,0-2.09-.3,8,8,0,0,0-6.1,2.5q-2.63,2.61-2.77,7.79.15,5.48,2.8,7.42a29.53,29.53,0,0,0,5.82,3.31,9.83,9.83,0,0,1,3.31,2.75,8.23,8.23,0,0,1-.11,9.78,4.74,4.74,0,0,1-3.79,1.81,5.36,5.36,0,0,1-3.91-2,11.6,11.6,0,0,1-2.3-5l-2.11.35.84,5.83a10.44,10.44,0,0,0,3.47,2,12.61,12.61,0,0,0,3.7.76,8,8,0,0,0,6.42-3q2.67-3.06,2.8-8.53h0Z"/><path d="M638.72,521.35q-.24-4.7-2.54-6.66a14.27,14.27,0,0,0-5.28-2.84,20.68,20.68,0,0,1-5.27-2.34q-2.29-1.46-2.5-5.14a5.45,5.45,0,0,1,1.65-4.34,6,6,0,0,1,3.87-1.47,5.38,5.38,0,0,1,4,1.6,10.07,10.07,0,0,1,2.47,4.2l2.28-.71-1.23-5.75a21,21,0,0,1-2.48-.56,20,20,0,0,0-2.34-.5,13.19,13.19,0,0,0-2.36-.14,10.12,10.12,0,0,0-6.81,2.9q-2.89,2.75-2.91,7.83.32,5.36,3.35,7.07a33.47,33.47,0,0,0,6.65,2.82,10.35,10.35,0,0,1,3.8,2.45,6.71,6.71,0,0,1,1.88,4.54,7.26,7.26,0,0,1-1.74,5,5.91,5.91,0,0,1-4.22,2.06,6.14,6.14,0,0,1-4.46-1.7,10.3,10.3,0,0,1-2.72-4.71l-2.37.5,1.1,5.65a11.78,11.78,0,0,0,4,1.71,15.86,15.86,0,0,0,4.19.47,10,10,0,0,0,7.16-3.4,12.18,12.18,0,0,0,2.93-8.56h0Z"/><path d="M90.21,498.87l-1.06-6.18-5.29.28q-2.64.14-5.29.24t-5.33.11l-5.33.07-.71,6.24,1.19.29a5.35,5.35,0,0,1,1.91-3.4,5.52,5.52,0,0,1,3.24-1.07l2.74-.09.17.1.31,10.93.31,10.93q0,.7.09,3.11t.07,4.73a11.92,11.92,0,0,1-.15,2.69,1.74,1.74,0,0,1-1,.71,6,6,0,0,1-1.15.18L75,530q2.27-.24,4.55-.31t4.56,0l0-1.26A5.56,5.56,0,0,1,83,528.3a1.82,1.82,0,0,1-1-.69,14.38,14.38,0,0,1-.32-2.93q-.14-2.52-.23-5.19T81.32,516l-.58-20.71.17-.11,2.82-.09A5.29,5.29,0,0,1,87,496,5.37,5.37,0,0,1,89,499.24l1.17-.37Z"/><path d="M123.14,496.31,122,490.09l-4.78.49q-2.38.25-4.79.45t-4.83.33l-4.84.29L102.3,498l1.09.24a5.64,5.64,0,0,1,1.61-3.52,4.71,4.71,0,0,1,2.9-1.22l2.48-.2.16.1.68,11.05.68,11.05q0,.71.19,3.15t.23,4.78a13.46,13.46,0,0,1,0,2.73,1.62,1.62,0,0,1-.86.76,5,5,0,0,1-1,.23l.15,1.26q2.05-.33,4.11-.5t4.13-.17v-1.27a4.5,4.5,0,0,1-1.07-.07,1.64,1.64,0,0,1-1-.66,16.15,16.15,0,0,1-.4-3q-.22-2.55-.4-5.24t-.23-3.52l-1.29-20.95.15-.12,2.56-.21a4.4,4.4,0,0,1,3,.76,5.47,5.47,0,0,1,2,3.21l1-.42Z"/><path d="M355.33,500.27l-.86-6.31-5.13.1q-2.56.06-5.13.06t-5.17-.06l-5.17-.1-.86,6.31,1.14.33a5.44,5.44,0,0,1,1.94-3.39,5.16,5.16,0,0,1,3.17-1h2.66l.16.11v22.19q0,.71,0,3.16t-.07,4.8a12.63,12.63,0,0,1-.22,2.72,1.67,1.67,0,0,1-1,.68,5.59,5.59,0,0,1-1.12.15l.08,1.27q2.21-.17,4.41-.17t4.41.17l.08-1.27a5.14,5.14,0,0,1-1.14-.15,1.78,1.78,0,0,1-1-.73,15.28,15.28,0,0,1-.23-3q-.07-2.57-.08-5.27t0-3.54v-21l.16-.11h2.74a5,5,0,0,1,3.11,1,5.53,5.53,0,0,1,1.92,3.37l1.14-.33Z"/><path d="M102.13,527.67a6.93,6.93,0,0,1-1.22-.09,1.69,1.69,0,0,1-1.07-.63,11.94,11.94,0,0,1-.39-3q-.16-2.49-.25-5.09t-.11-3.42L98.95,511q-.11-3.25-.2-7t-.09-6.64a13.8,13.8,0,0,1,.19-3.22,1.91,1.91,0,0,1,1-.68,7.46,7.46,0,0,1,1.19-.19L101,492q-2.39.27-4.78.39t-4.79.06l-.05,1.26a8,8,0,0,1,1.24.08,1.74,1.74,0,0,1,1.09.58,12,12,0,0,1,.33,2.72q.15,2.33.24,4.77t.11,3.17L94.67,516q0,.76.09,3.32t.06,5a13.65,13.65,0,0,1-.16,2.89,1.78,1.78,0,0,1-1,.73,7.41,7.41,0,0,1-1.23.2l.13,1.25q1.16-.14,2.35-.23T97.2,529q1.23-.06,2.44-.07t2.44,0l.05-1.26Z"/><path d="M135.22,524.62a6,6,0,0,1-1.13,0,1.53,1.53,0,0,1-1-.57,12.78,12.78,0,0,1-.49-2.94q-.26-2.48-.46-5.07t-.25-3.4l-.34-4.43q-.25-3.24-.5-7t-.38-6.63a14.9,14.9,0,0,1,0-3.23,1.78,1.78,0,0,1,.93-.73,6.46,6.46,0,0,1,1.09-.25l-.17-1.25q-2.19.39-4.4.63t-4.42.3v1.26a6.91,6.91,0,0,1,1.15,0,1.55,1.55,0,0,1,1,.52,12.87,12.87,0,0,1,.43,2.7q.24,2.32.43,4.75t.24,3.15l.8,10.9q.06.76.23,3.31t.28,5a14.74,14.74,0,0,1,0,2.9,1.68,1.68,0,0,1-.94.78,6.42,6.42,0,0,1-1.13.26l.17,1.25q1.07-.19,2.16-.35t2.16-.27q1.13-.12,2.25-.19t2.26-.11v-1.26Z"/><path d="M309.48,531.11a5,5,0,0,1-1-.08,1.42,1.42,0,0,1-.91-.61,13.81,13.81,0,0,1-.39-2.93q-.18-2.46-.31-5t-.16-3.38l-.21-4.4q-.16-3.22-.31-7t-.21-6.58a16,16,0,0,1,.1-3.19,1.59,1.59,0,0,1,.87-.68,5.42,5.42,0,0,1,1-.2l-.13-1.24q-2,.29-4,.42t-4,.09l0,1.25a5.81,5.81,0,0,1,1,.07,1.43,1.43,0,0,1,.93.57,13.91,13.91,0,0,1,.33,2.69q.17,2.3.29,4.72t.15,3.14l.5,10.84q0,.75.14,3.29t.15,5a15.81,15.81,0,0,1-.08,2.87,1.5,1.5,0,0,1-.87.73,5.37,5.37,0,0,1-1,.21l.13,1.24q1-.14,2-.25t2-.17q1-.07,2.06-.09t2.06,0l0-1.25Z"/><path d="M559.83,528.64a6,6,0,0,1-1.07-.28,1.67,1.67,0,0,1-.89-.78,12.84,12.84,0,0,1-.06-2.93q.1-2.43.27-5t.23-3.32l.3-4.32q.22-3.16.5-6.84t.56-6.43a14.2,14.2,0,0,1,.48-3.09,1.54,1.54,0,0,1,1-.49,6.07,6.07,0,0,1,1.08,0V494q-2.15-.12-4.29-.39t-4.26-.71l-.17,1.21a6.92,6.92,0,0,1,1.09.28,1.69,1.69,0,0,1,.91.73,12.9,12.9,0,0,1,0,2.68q-.09,2.27-.25,4.64t-.21,3.08l-.76,10.63q0,.74-.24,3.22t-.43,4.86a14.08,14.08,0,0,1-.42,2.77,1.45,1.45,0,0,1-1,.53,6,6,0,0,1-1.11,0v1.23q1,.05,2.11.15t2.1.23q1.1.14,2.17.32t2.17.4l.17-1.21Z"/><path d="M163.5,519.51a6.55,6.55,0,0,1-1.4-.1,1.55,1.55,0,0,1-1.14-.93l-13.85-32.12-1.44.26-7.38,35.93a2.13,2.13,0,0,1-1,1.38,5.35,5.35,0,0,1-1.37.59l.2,1.23q1.6-.46,3.22-.75.81-.15,1.6-.25t1.61-.17l0-1.26a3.78,3.78,0,0,1-1.25-.11,1.14,1.14,0,0,1-.82-1.06,18.8,18.8,0,0,1,.4-2.75q.41-2.19.89-4.49t.65-3.2l9.91-1.8,1.24,2.9q.92,2.16,1.76,4.21a22.75,22.75,0,0,1,.93,2.48,1.18,1.18,0,0,1-.63,1.17,5.92,5.92,0,0,1-1.16.48l.24,1.22q1.13-.29,2.25-.53t2.25-.45q2.16-.39,4.33-.62l0-1.26Zm-12-11.64-.07.12-8.51,1.55-.05-.1,2.83-14.89.12,0Z"/><path d="M381.88,533.9a7.94,7.94,0,0,1-1.44-.53,1.92,1.92,0,0,1-1-1.27l-8.75-36-1.55-.19L355,529.12a1.85,1.85,0,0,1-1.25,1.07,5.48,5.48,0,0,1-1.54.16v1.28q1.76,0,3.5.25.87.1,1.72.25t1.71.33l.18-1.26a4.6,4.6,0,0,1-1.28-.49,1.34,1.34,0,0,1-.67-1.3,16.83,16.83,0,0,1,.91-2.59q.82-2,1.73-4.16t1.25-3L371.92,521q.2.83.78,3.25t1.09,4.71a24.35,24.35,0,0,1,.53,2.74,1,1,0,0,1-.87,1,6.09,6.09,0,0,1-1.3.12l0,1.28q1.23.06,2.44.17t2.44.25q2.33.28,4.64.72l.18-1.26Zm-10.45-15.22-.09.1-9.17-1.1,0-.12,5.62-13.85.13,0,3.56,14.95Z"/><path d="M296.73,507.76q-.41-5.2-2.78-7.38a7,7,0,0,0-5.79-1.77q-1.72.2-3.43.46t-3.43.46q-2,.22-4,.28v1.28a5.68,5.68,0,0,1,1.08,0,1.5,1.5,0,0,1,1,.54,14.67,14.67,0,0,1,.4,2.85q.22,2.48.4,5.08t.22,3.35L281,523.5q.05.77.2,3.39t.24,5.11a15.06,15.06,0,0,1,0,2.89,1.7,1.7,0,0,1-.88.79,5.36,5.36,0,0,1-1.06.26l.16,1.27q1-.2,2.08-.36t2.09-.27q1-.11,2.06-.18t2.06-.1V535a4.89,4.89,0,0,1-1.06,0,1.49,1.49,0,0,1-.95-.59,12.42,12.42,0,0,1-.41-2.69q-.22-2.29-.39-4.69t-.21-3.16l-1.07-17.07q-.05-.67-.16-2.54a11.94,11.94,0,0,1,0-2.35,1.81,1.81,0,0,1,1.21-.87,7.84,7.84,0,0,1,1.42-.26l.61-.07a4.13,4.13,0,0,1,4.18,2.27,14.62,14.62,0,0,1,1.53,6.25,13.28,13.28,0,0,1-.81,6,4.42,4.42,0,0,1-3.62,2.9,21.65,21.65,0,0,1-4.27-.17l-.25,2.62,4.72.15c2.53.08,4.53-1.82,6.16-4s2.35-5.16,2.19-9h0Z"/><path d="M330.94,525.33,329.8,525q-.29.63-.62,1.23a7.79,7.79,0,0,1-.75,1.11,4.93,4.93,0,0,1-3.09,1.54,28.17,28.17,0,0,1-3.48.25,8.23,8.23,0,0,1-1.72,0,2.22,2.22,0,0,1-1.53-.82,5.9,5.9,0,0,1-.3-1.72q-.12-1.4-.19-2.87t-.08-2q-.08-2.19-.14-4.41t-.14-4.41l.08-.17c1.33-.07.54-.12,1.88-.15s2.67,0,4,0l1.67-2.25-.74-1a4.34,4.34,0,0,1-1.57.78,7.76,7.76,0,0,1-1.69.25l-3.62.29-.09-.16-.12-3.43-.12-3.43q0-.78-.09-2.75a11,11,0,0,1,.11-2.51,2.25,2.25,0,0,1,1.62-1.12,10.74,10.74,0,0,1,2-.2,19.63,19.63,0,0,1,3.1,0,4.17,4.17,0,0,1,2.83,1.23,5.15,5.15,0,0,1,.62,1q.26.53.5,1.09l1.11-.54-1-5.31q-2.78.22-5.57.4t-5.58.32q-1.62.08-3.23.12t-3.23,0l0,1.25a6.79,6.79,0,0,1,1.22.15,1.63,1.63,0,0,1,1,.77,12.94,12.94,0,0,1,.29,2.51q.14,2.11.23,4.31t.11,2.85l.42,11.79q0,.72.1,3.13t.09,4.72a14.32,14.32,0,0,1-.11,2.71,1.75,1.75,0,0,1-1,.81,5.55,5.55,0,0,1-1.19.22l.13,1.24,3.39-.24q1.7-.12,3.39-.2,5.81-.28,11.62-.47l.68-5.56Z"/><path d="M614.55,527.32l-1.12-.38q-.32.59-.7,1.16a7.6,7.6,0,0,1-.82,1,5,5,0,0,1-3.17,1.31,28.93,28.93,0,0,1-3.49,0,8.46,8.46,0,0,1-1.71-.14,2.23,2.23,0,0,1-1.47-.89,5.59,5.59,0,0,1-.19-1.69q0-1.37,0-2.8t0-1.93q.05-2.13.13-4.29t.13-4.29l.09-.16c1.33,0,.55-.08,1.88,0s2.66.13,4,.25l1.8-2.09-.68-1a4.4,4.4,0,0,1-1.62.66,8,8,0,0,1-1.7.15l-3.63.07-.08-.16.08-3.34.08-3.34q0-.76.08-2.67a10.35,10.35,0,0,1,.26-2.43,2.26,2.26,0,0,1,1.68-1,11,11,0,0,1,2-.08,20.13,20.13,0,0,1,3.09.17,4.21,4.21,0,0,1,2.75,1.35,5,5,0,0,1,.56,1q.23.53.43,1.09l1.14-.46-.71-5.22q-2.79.05-5.59.07t-5.59,0q-1.62,0-3.23-.07T596,497l-.11,1.21a7,7,0,0,1,1.21.22,1.62,1.62,0,0,1,1,.81,12.25,12.25,0,0,1,.15,2.46q0,2.06,0,4.2t-.06,2.77l-.28,11.47q0,.7-.09,3t-.19,4.59a13.57,13.57,0,0,1-.27,2.62,1.75,1.75,0,0,1-1,.73,5.69,5.69,0,0,1-1.2.14l.05,1.21,3.4,0h3.4q5.81.07,11.63.21l1-5.36Z"/><path d="M547,497l-.29-5.27q-2.26-.29-4.53-.63t-4.53-.71l-1.85-.3q-3.28-.54-6.48-1.23l-.21,1.18a7.67,7.67,0,0,1,1.13.32,1.79,1.79,0,0,1,.93.76,11.89,11.89,0,0,1,0,2.63q-.16,2.22-.38,4.54t-.3,3L529.4,511.6q-.07.72-.34,3.16t-.58,4.76a13,13,0,0,1-.52,2.71,1.51,1.51,0,0,1-1.06.48,6.65,6.65,0,0,1-1.16-.05l0,1.21q2.17.2,4.33.56t4.55.91l.21-1.18a6.62,6.62,0,0,1-1.11-.32,1.75,1.75,0,0,1-.9-.8,11,11,0,0,1,0-2.78q.16-2.31.4-4.73t.32-3.18l.22-2.15.22-2.15.1-.19c1.32.21.86.45,2.17.7s2.62.54,3.93.86l1.91-1.85-.56-1a3.48,3.48,0,0,1-1.61.41,8.19,8.19,0,0,1-1.68-.11l-3.95-.94-.07-.17.82-7.94q.06-.73.27-2.45a8,8,0,0,1,.47-2.22,2.14,2.14,0,0,1,1.74-.61,11.51,11.51,0,0,1,1.9.21,21.69,21.69,0,0,1,3,.63A4.56,4.56,0,0,1,545,495a5.09,5.09,0,0,1,.53,1.09,12.63,12.63,0,0,1,.36,1.22L547,497Z"/><path d="M591.49,516.87q-.6,8.07-4.18,12t-9.67,3.24q-2.22-.28-4.43-.63t-4.43-.63q-1-.12-2-.2t-2-.12v-1.23a3.41,3.41,0,0,0,1.07,0,2.06,2.06,0,0,0,1-.5,11.8,11.8,0,0,0,.44-2.8q.24-2.47.43-5.08t.24-3.36l.32-4.36q.23-3.18.48-6.88t.36-6.45a13.93,13.93,0,0,0,0-3,2.37,2.37,0,0,0-.9-.73,3.55,3.55,0,0,0-1.05-.26l.17-1.21q1,.2,2,.37t2,.29q1.71.2,3.41.34t3.41.34q7,.89,10.48,6.18t2.81,14.73h0Zm-4.51-2q.59-7.33-1.5-11.79t-7.9-5.26l-1.08-.13a7.14,7.14,0,0,0-1.5-.07,1.9,1.9,0,0,0-1.37.63,6.78,6.78,0,0,0-.36,1.84q-.18,1.53-.3,3.13t-.16,2.12l-.3,4.15q-.25,3.44-.53,7.73t-.46,7.57a28.21,28.21,0,0,0-.08,3.67,2.26,2.26,0,0,0,1.42,1,9.23,9.23,0,0,0,1.68.33l.56.07.56.07q5.55.5,8.23-3.86a24,24,0,0,0,3.1-11.22h0Z"/><path d="M49.55,494.21l0-1.27Q49,493,48.4,493t-1.11,0q-.62,0-1.23-.1t-1.23-.18L44.75,494a3.47,3.47,0,0,1,.8.15,1.28,1.28,0,0,1,.68.69,35.44,35.44,0,0,1,.1,4.2q0,3.72-.07,7.64t-.08,5l-.11,6.63a19,19,0,0,1-1.25,7.2c-.79,1.82-1.92,3-3.61,2.7s-1.7-.63-2.49-1.75a11.55,11.55,0,0,1-1.64-5.09,35.27,35.27,0,0,1-.22-3.92q0-2.06,0-4l.11-6.8q0-.81.06-3.63t.15-5.5a17.84,17.84,0,0,1,.25-3.07,1.37,1.37,0,0,1,.7-.58,2.73,2.73,0,0,1,.78-.12l0-1.27-2.05,0q-.78,0-1.55,0a29.34,29.34,0,0,1-3.1-.31l-.08,1.27a2.9,2.9,0,0,1,.8.18,1.4,1.4,0,0,1,.68.72,27.29,27.29,0,0,1,.11,3.66q0,3.21-.06,6.6t-.07,4.35q-.18,5.81-.09,10.56A18.1,18.1,0,0,0,35,527.12q1.43,2.89,5.26,3.13A5.46,5.46,0,0,0,45.55,527q1.83-3.35,1.95-10,0-1,.07-4.32t.13-7.37q.08-4,.17-7a27.88,27.88,0,0,1,.2-3.32,1.65,1.65,0,0,1,.7-.66,2.1,2.1,0,0,1,.78-.16h0Z"/><path d="M30.69,493.07l-.07-1q-2.45.08-4.9,0c-1.63,0-8-1.3-9.64-1.43l-.11,1a9.21,9.21,0,0,1,1.22.14A56,56,0,0,1,23,493.5a5.55,5.55,0,0,1,.23,2q0,1.69,0,3.46t0,2.31L23,509.95q-.07,3.9-.21,7.74l-.07,2.44a10.64,10.64,0,0,1-.35,2.4,3.86,3.86,0,0,1-1,1.86,2.84,2.84,0,0,1-2.06.67A4.33,4.33,0,0,1,16.43,524a4.31,4.31,0,0,1-.09-5.37l-3.07,2a6.57,6.57,0,0,0,2.28,4.94c2.49,2.35,6.28,1.11,8.43-.66A9.26,9.26,0,0,0,27.44,518l.24-11.38q0-.88.07-3.87t.2-5.83a10.83,10.83,0,0,1,.42-3.26,2.24,2.24,0,0,1,1.12-.47,9.39,9.39,0,0,1,1.21-.08Z"/><path d="M156,111.16l19.5-21.87c-1.5-4,.4-6.88,6.63-5.5s23.94,20.5,14.19,19.88l-7.31,7.5Z" style="fill:#d8a46f;stroke:#6b240a"/><path d="M636.73,155.1c1.68,3.89,3.36,5.13,5.57,7.07l9.1-3.71-1.33-9.37Z" style="fill:#ee7b39;stroke:#5e0c01"/><path d="M31,148.65c.53,4-4.15,8.84-4.15,8.84l-9.72-2.83s4-12.64,4.33-12.55S31,148.37,31,148.65Z" style="fill:#ee7b39;stroke:#5e0c01"/><path d="M487.83,89.74c-1.3-7.65-9.4-18.93-19.45-21.21C470.21,77.83,478,87,487.83,89.74Z" style="fill:#e00814;stroke:#ac1522"/><path d="M480.94,95.75c-1.3-7.65-9.4-18.93-19.45-21.21C463.32,83.84,471.1,93,480.94,95.75Z" style="fill:#e00814;stroke:#ac1522"/><path d="M490.84,87.62c-1.3-7.65-9.4-18.93-19.45-21.21C473.22,75.71,481,84.91,490.84,87.62Z" style="fill:#e00814;stroke:#ac1522"/><path d="M478.46,98.22c-1.3-7.65-9.4-18.93-19.45-21.21C460.84,86.31,468.62,95.52,478.46,98.22Z" style="fill:#e00814;stroke:#ac1522"/><path d="M484.47,92.92c-1.3-7.65-9.4-18.93-19.45-21.21C466.85,81,474.63,90.21,484.47,92.92Z" style="fill:#e00814;stroke:#ac1522"/><path d="M185.78,88.19c1.3-7.65,9.4-18.93,19.45-21.21C203.39,76.28,195.61,85.48,185.78,88.19Z" style="fill:#e00814;stroke:#ac1522"/><path d="M192.67,94.2c1.3-7.65,9.4-18.93,19.45-21.21C210.29,82.29,202.51,91.49,192.67,94.2Z" style="fill:#e00814;stroke:#ac1522"/><path d="M189.13,91.37c1.3-7.65,9.4-18.93,19.45-21.21C206.75,79.46,199,88.66,189.13,91.37Z" style="fill:#e00814;stroke:#ac1522"/><path d="M195.14,96.67c1.3-7.65,9.4-18.93,19.45-21.21C212.76,84.76,205,94,195.14,96.67Z" style="fill:#e00814;stroke:#ac1522"/><path d="M182.77,86.07c1.3-7.65,9.4-18.93,19.45-21.21C200.39,74.16,192.61,83.36,182.77,86.07Z" style="fill:#e00814;stroke:#ac1522"/><path d="M113,35.41l-8.37-4.87c-2.5-12.25,9.25-28,9.25-28S119.21,19.16,113,35.41Z" style="fill:#e00814;stroke:#ac1522"/><path d="M97.39,38.69c-1.29-23.82,9.9-37.48,9.9-37.48s3.81,30.12-1.06,39.24Z" style="fill:#e00814;stroke:#ac1522"/><path d="M138.33,54c4.75-6.12,2.13-27.62,2.13-27.62s-12.88,10.13-12.12,22.38Z" style="fill:#e00814;stroke:#ac1522"/><path d="M133,50.78c5.38-5.5,2.63-31.12,2.63-31.12S121.33,35.41,122.21,44Z" style="fill:#e00814;stroke:#ac1522"/><path d="M118.08,42l9,6.5c6.25-8.37,3.13-35.75,3.13-35.75S117.58,28.41,118.08,42Z" style="fill:#e00814;stroke:#ac1522"/><path d="M110.46,37.53l8.75,3.5c5.63-11.62,3.38-32.5,3.38-32.5S111,18.16,110.46,37.53Z" style="fill:#e00814;stroke:#ac1522"/><path d="M90.13,35.36c-11-2.58,8.43,1.34,10.75,1.56,3.88-10.5-2.17-32.39-2.17-32.39S88,23.86,90.13,35.36Z" style="fill:#e00814;stroke:#ac1522"/><path d="M87.33,47,94,42.53c1.13-8.75-4.62-28-4.62-28S79.46,28.53,87.33,47Z" style="fill:#e00814;stroke:#ac1522"/><path d="M91.08,37.91l6.5.5C101.46,26,92.21,7,92.21,7S86.46,27,91.08,37.91Z" style="fill:#e00814;stroke:#ac1522"/><path d="M536.15,63.79c-8.31-5.3-6.36-21.57-6.36-21.57s8.49,6.72,9.19,17.32Z" style="fill:#e00814;stroke:#ac1522"/><path d="M537.56,59.55c-5.83-4.07-6.36-24.75-6.36-24.75S541.8,41.87,543.93,55Z" style="fill:#e00814;stroke:#ac1522"/><path d="M544.28,55C535.44,55.49,533,24.9,533,24.9s23.16,20,18.38,27.22Z" style="fill:#e00814;stroke:#ac1522"/><path d="M549.23,51.77C535.09,39.22,538.8,14.12,538.8,14.12s21.92,27,20,35.53Z" style="fill:#e00814;stroke:#ac1522"/><path d="M556.48,49.3c-8.13-2.47-9-40.13-9-40.13s18.74,20.15,18.38,39.77Z" style="fill:#e00814;stroke:#ac1522"/><path d="M578.4,45.76l4.95.88C587.59,36.57,577.69,9,577.69,9S572,39,578.4,45.76Z" style="fill:#e00814;stroke:#ac1522"/><path d="M574.33,46.29h5.13c6-9-8.66-40.84-8.66-40.84S567.08,42.4,574.33,46.29Z" style="fill:#e00814;stroke:#ac1522"/><path d="M568.32,45.06l6-1.41c5.3-4.77-9.9-38.89-9.9-38.89s-4.6,30.76,3.89,40.31Z" style="fill:#e00814;stroke:#ac1522"/><path d="M564.08,47.35s5-1.14,5.48-2.83c3.54-5.83-13.08-38.36-13.08-38.36S551.88,40.11,564.08,47.35Z" style="fill:#e00814;stroke:#ac1522"/><path d="M517.58,113.66s6.25-1,6.75-3.25c-.89-6.83,7.25-12,7.25-12-3.5-15.25,3.3-23.92,2.75-24.75-1-1.5.75-9,.75-9-3.75-3.25-5.5-11.25-5.5-11.25,2.5,0,5.31,2.88,5.31,2.88.25-3,8.38-5.75,8.38-5.75-4.12-4.44-5.69-14.12-5.69-14.12-.19-.69.5-.87,1,0,0,0,1.88,8.13,5.94,13.5a10.39,10.39,0,0,0,4.94-2.62,21.23,21.23,0,0,1-4.37-13.37,136.23,136.23,0,0,1,6.25,12.63c1.81-.9,4-1.46,4.63-3.12-2.25-3.25-2.87-15.25-2.87-15.25s4.81,12.5,4.94,14.31A10.39,10.39,0,0,0,563,39.59c-2.5-4.81-2.87-12.69-2.87-12.69S565,35,565,38.84a6.44,6.44,0,0,0,4.81-1.94c-.75-2.75-3.56-10.31-3.56-10.31s2.94,2.31,5.25,10.13c1.61-.28,2.95,1.44,4.25.38,0-3.5-2.94-12.12-2.94-12.12s7.25,5.56,7.75,12.38a14.94,14.94,0,0,1,1.56-5.25s1.13,2.19.81,10.31l1.81-.12c.56,3.19-1.37,8.06-1.37,8.06,3.56,2.94,5,10.1,5,13.36s.9,5.1-1.11,7.71c-1.06,1.38-50.37,45.25-52.37,45.25S519.33,113.41,517.58,113.66Z" style="fill:#461d2f"/><path d="M83.87,63.28c-2.5-2.5-1.6-6.67-.82-7.81a39.94,39.94,0,0,0,3.73-9.18c.38-3.09,6.91-2.22,2.72-12-1.31-1.19,5.23-4,5.23-4,2.13-.56,1.61,4.54,1.61,4.54,2.38,2,5.15.47,5.11.58a51,51,0,0,0,.88-7.56c.13-2.37,2.55-1.23,2.3,1l-.35,4.42c.25,3.25,3.72,2.29,3.91.1,0,0,.63-6.11.76-8.54a7.93,7.93,0,0,1,9.52,3.14c-.5,1.81.71,4.4-1.6,6.84.24.2,4.27,3.18,4.27,3.18-.87,2.19,1.07,2,1.07,2,1.25-1.62,2.74-8,2.74-8,1.5-.12,2.38.1,2.33,1.89,0,.94-1.89,6.18-2,8.37-.14,2.62,1,3.23,2,3.86,1.42.89,1.26.87,2.39.87.88,0,1.65-1.54,2.38-5.82.31-1.37,1.36-3,2.23-2.52,2.67,1.27.07,8.7.07,8.7.13.81,2.83,1.41,2.83,1.41a6,6,0,0,1-1.77,3.36l4.69-.25c-1.69,4.6-4.08,6.36-6.11,9.62,3.63,1.69,3.3,4.15,3.3,6,0,2.69-.79,3.48.46,4.92,2.24,2.58,1.61,8.15,1.55,12.4,0,6,1.25,7.27,2.43,8.83,5.63,6.78,3.22,15.57,3.22,15.57L132.74,106Z" style="fill:#461d2f"/><path d="M336.24,369.39V99.51C463.12,101.24,533.87,245.59,494,364.62c-53,10.14-106,13.26-157.72,4.77Z" style="fill:#e6e6e6;stroke:#000"/><path d="M94.38,97.56s.73,8.2-3.89,11.67-3.89,12.9-3.89,12.9l16.62-7.25-1.59-15.56Z" style="fill:#461d2f"/><path d="M358.85,129.89c45,14.63,51.23,72.28,51.23,72.28-.5-33.75,23.9-49.8,23.9-49.8-2.47,4.85-5.22,8.65,5.3,4.41-3,2.9-6.92,6.21,1.06,4.6-5.33,5.49-6.11,7.91-1.77,10.25,2.5,1.5-10.25,12-10.25,12,.5,1.5,7.78,1.77,7.78,1.77-.5,2.5-11,9.34-11,9.34,43.13-11.5,52.2,23.94,52.2,23.94-4.08-2.28-14.09-20.06-8.63.31-3.57-2.61-9-11.48-9.55-3.89-1.89-.49-2.35-5.77-6-.35-2-.3-3.42-11.09-6,0-5.66-10.69-7-6.39-7.42,1.41-1.94-1.33-2.89-14-6-1.77l-6-2.83c-1.18-6.27-2.36-3.16-3.54-.35,0,0,45.42,4.58,45.79,59.83-2.42-4.54-3.28-11.84-6.9-10.34-4-14-6.42-12.57-8.49-8.13-1.26-4.13-1.3-11.88-5.66-6.72-1-8-2.62-5.92-4.24-4.24-1.3-9.35-3.09-11.84-3.89-2.12-1.75,7.75-4.19-12.17-9.19-7.42-1.24-4.52-2.74-6.67-5.3.71-.93-3.93-2.69-5-4.95-4.24-1.84-2.07-3-1.5-3.54,1.77,0,0,1.77,5.43,1.77,8.84s-2.73,5.69-1.12,9.3.77,4.49.77,4.49l-7.78-3.54c-2,0-4.6-6-4.6-6a37.69,37.69,0,0,1-2.12,6c-3,5.75-1.77,15.2-1.77,15.2-6.35-6.57-5.56-1.86-4.66,6.07-6.87-23.12,5.78-44.23,5.78-44.23l-2.89-3.91c-3.71-2.35-4.14,1.85-4.6,6-1.61-2.55-2.58-7.35-6.72-1.06-.22-2.14-2.83.48-4.95,2.12-1.65-1.09-3.3,4.25-4.95,7.42-3.93-3.35-5.4-.32-6,4.95-3.45-1.66-4.8,5.06-7.07,8.13-1.81-.18-3.47-9.62-6.73-1.57-2.35,5.8-1.37,4.93-3.83,6.38,1.75-44,33.27-47.93,33.27-47.93-1.32-1.55-3.33-7.45-7.16-2.12-1.06-2.9-1.69-7.17-5.3-1.77-.3-3.47-1.55-3.65-3.18-2.47-1.67-3.68-3.34-7.17-5.66,2.83-2.22-4.87-4.59-8.33-8.13-.71,0-3.54-.06-7.16-5.3.35,1.26-5.7-.83-5.29-8.24,1,8.25-28.62,43.59-17.24,43.59-17.24.8-2.77,1.94-6.76-3.68-1.19l-3-1.33c5.55-6.28,2.11-5.45-4.95-1.77,1-4,12.2-14.81-4.95-6.72.5-3.37,7.88-10.32-5.66-6.36,2.57-3.65,13.07-9.67-2.83-7.78,5.6-3.76,12.11-7.78-1.06-6.36,9.09-3.06-.78-6.13-5.3-9.19,5.67,1,4.91-1.84-1.41-8.13,11.74,4.33,6.73-1.45,1.6-8.15Z" style="stroke:#000"/><path d="M406,360.6c-5.3-13.79,1.94-17.32,1.94-17.32-6.36-8.13,0-15.56,0-15.56-7.07-12.55,1.59-14.85,1.59-14.85-4.6-5.48-3.85-11.89-2.83-14,.94-1.92,2.09-6.22.35-9.72s1.59-9.9,1.59-9.9c-4.77-5.48-3-10.61-1.06-12.55a5.89,5.89,0,0,0,.35-7.42c-1.38-2-.18-7.78,2.47-10.25L409,243.4c-.71-4.42,4-4.62,4.24-.71a37.82,37.82,0,0,0,1.24,6.54c3.71-1.41,4.6,2.83,4.6,2.83.88,2.83-1.77,8-1.77,8a20.49,20.49,0,0,1,1.59,19.09c4.24,4.77,3.29,12,1.77,14-1.94,2.47-.18,5.3.35,6.72,1.18,3.14-.53,16.09-.53,16.09,5.13,6.89-.53,16.44-.53,16.44,3.54,2.65,3.52,8.36,2.3,10.43-.53,2.12-.68,5.7.71,7.78,1.06,1.59.88,12.2-1.59,15.56L406,360.6Z" style="fill:#00802f;stroke:#000"/><path d="M414.88,207.87c.71-6.54,14.58-16.09,26.52-16.09s30.76,3.71,35.53,26.16c0,0-7.42-11.84-12-13.26.51,3.09,1.26,6.55.88,8.31,0,0-6-7.07-9.19-6.54-1.59-4.14-3.18-3.91-4.77-1.94a12.23,12.23,0,0,0-5.3-5.13s1.65,8.25-.71,7.78c-2.65-.35-4.29-6.94-5.13-6-.71,1.24-2.3,4.6-4.24.35a5.82,5.82,0,0,1-5.13-1.06c-.59-.43-3,.22-2.65,1.41,1.06,4.6-2.83,1.77-2.83,1.77-1.77-1.94-3.36,1.06-4.6,2.3a6.83,6.83,0,0,1-6.36,1.94Z" style="fill:#00802f;stroke:#000"/><path d="M412.4,204.86c-4.24-22.45,9.72-43.31,14.14-44.9,0,0-1.24,4.6-.53,5.66,0,0,4.74-1.71,1.41,2.12-.88,2.12,2.3,2.12,4.95,1.06l-8.66,9.55c-.71,1.77-.53,2.47,1.41,1.77l5.3-2.83s-7.6,6.36-10.08,9.72c0,0,4.6-.18,5.83,3.18,0,0-7.25,0-9.19,3.36l4.07,1.24c.71,3.54-5.13,2.12-5.13,2.12C418.94,204.15,412.4,204.86,412.4,204.86Z" style="fill:#00802f;stroke:#000"/><path d="M408.34,199.65c-3.54-38.54-29.88-64.44-45.25-67.62l7.07,8.66-8.31.71,11.84,3.54c0,1.94-8.84,2.12-8.84,2.12,2.65,1.94,11.14,2.3,11.14,2.3l-3.89,3h6.72c.35,3.18-5.13,5.66-5.13,5.66s11.84-1.06-1.94,9c0,0,18.74-10.08,4.24,6.54,0,0,15.2-9,7.6,4.24,0,0,9.19-4.42,4.42,3.71,0,0,9.37-1.77,3.54,3.71,0,0,4.42.45,3.54,4.87,4.05-.14,8.78,5.86,13.26,9.55Z" style="fill:#00802f;stroke:#000"/><path d="M408.16,208.22c-9.19-32.88-55.86-28.46-60.28-7.6,0,0,6.19-10.43,11.84-6.89,0,0,6-6,10.25-.88,0,0,4.77-3.89,4.77-.88,0,0,4.6-1.24,4.24,1.41,0,0,3.89-1.77,4.6,3.71l4.42-2.65c.88,2.65,2.47,2.11,3.18,1.77,3.71-1.77,1.94,4.42,1.94,4.42,3.36-1.41,4.07,1.24,4.07,1.24,2.47-.53,2.12,3.18,2.12,3.18,2.3-1.59,8.84,3.18,8.84,3.18Z" style="fill:#00802f;stroke:#000"/><path d="M356.72,251.35c1.06-42.25,39.76-48.42,45.79-43.66,6.72,5.3,12.55,1.41,12.55,1.41,2.65.88.18,4.07.18,4.07,47.2-3.36,53.74,45.61,53.74,45.61s-4.42-11-7.6-8.13c0,0-2.47-12-6.72-7.42,0,0-1.24-7.07-5.83-7.25,0,0,1.77-5.83-1.94-7.25,0,0-3.18,7.07-6.89-5.48,0,0-.71,11.67-6.54-3.36,0,0-2.47,9.9-3.89.18-1.06-3-3.89,2.65-3.89,2.65s-2.65-11.49-4.6-1.94c0,0-4.07-5.3-5.3,5.3l-3.18-1.59c1.59-11.14-5.48-7.07-5.48-7.07-1.3-5.06-3.62-2.46-5.83-.71-.2-7.31-2.66-4.42-5.66.88-.47-4.31-1.6-5.89-4.42-.35l-1.59-3c-1.55,5.44-3.28,7.57-5.3,4.07a13.11,13.11,0,0,0-1.77,5.83s-3.54-5.48-5.83,4.42c0,0-1.77,1.59-1.77-4.95-4,10.9-8.1,22.49-8,14.14l.88-6.19C363.44,236.15,356.72,251.35,356.72,251.35Z" style="fill:#00802f;stroke:#000"/><path d="M406.75,224.48c-1.75-.29-6,8.84-6,8.84-.18,3.36,3.71,3,3.71,3C407.1,234.74,407.81,224.66,406.75,224.48Z" style="fill:#00802f;stroke:#000"/><path d="M400.21,238.27s-3.83,6.2-1.41,12.37c.18,3.36,1.59,1.06,2.3-.35C402,248.49,402,238.27,400.21,238.27Z" style="fill:#00802f;stroke:#000"/><path d="M412.76,236.5c.44-2.52,4.71-1.95,3.89,1.59C417,239.33,412.32,239,412.76,236.5Z" style="fill:#00802f;stroke:#000"/><path d="M405.83,236.48c.44-2.52,4.71-1.95,3.89,1.59C410.07,239.31,405.38,239,405.83,236.48Z" style="fill:#00802f;stroke:#000"/><path d="M336.39,368.56V99.68C208.14,102,138.26,244.75,178.17,363.78c53,10.14,106.5,13.26,158.22,4.77Z" style="fill:#006bb6;stroke:#000"/><path d="M268.51,324.36l-18-144.27" style="fill:none;stroke:#000"/><path d="M277.86,328.65,250.46,180.09" style="fill:none;stroke:#000"/><path d="M225.73,327.19l24.75-147.08" style="fill:none;stroke:#000"/><path d="M230,325.42l20.86-144.25" style="fill:none;stroke:#000"/><path d="M235.1,323.48l15.74-143.13" style="fill:none;stroke:#000"/><path d="M273.31,326.48l-23-146.39" style="fill:none;stroke:#000"/><path d="M275.58,473.91l12.72-7.66,48.12,12.22-.09,8.38C325.11,487.55,286.9,481.95,275.58,473.91Z" style="fill:#e6e6e6;stroke:#000"/><path d="M274.69,474.09c-13.64-6.32-24.44-13.86-34.83-21.57l54.27-12.73L336.38,452l.05,26.54s-12.61-.1-22.49-4.42-24.93-5.83-39.24,0Z" style="fill:#006bb6;stroke:#000"/><path d="M205.73,416.61l95.84-4.7,34.84,14.3v26c-5.75.25-13.95-1.57-23.15-5.74-9.57-4.34-27.63-4-37.67.62s-21.25,6.54-35,6.54a215,215,0,0,1-34.85-37Z" style="fill:#e6e6e6;stroke:#000"/><path d="M190.53,391.45C198,386.85,294,384,303.8,386.56s25.17,9.32,32.41,11l.06,28.78c-11.31-2.18-14.07-2.7-27.05-7.88-12.8-5.12-25.2-3.47-38.16,1.19s-26.75,8.37-39.13,4.12-18.25-6.83-24.26-5.06c-6.48-11.29-14.33-18.75-17.15-27.28Z" style="fill:#006bb6;stroke:#000"/><path d="M265.26,322.79c1.75-4.5-.75-12.25-.75-12.25,3-1.75,3.25-8.25-1.25-8.25s-5.5,4.75-3,7.5c0,0-1.25,6.75-.75,8.75Z" style="fill:#fdef00;stroke:#000"/><path d="M248.58,263.91,250.83,149l2.25,114.87Z" style="fill:#fdef00;stroke:#000"/><path d="M234.46,165.41l1.13,12.38c7.38-1.75,15.25-8,15.25-8l-.12-15.37S238.33,163.91,234.46,165.41Z" style="fill:#fdef00;stroke:#000"/><path d="M227,162.66s5.16-5,11.75-4.87,10.13-1.69,12.25-4.19l-.12-4.44s-4.16,1.62-6.37,2.31A35.85,35.85,0,0,1,235,153C231.22,153,226.9,157.22,227,162.66Z" style="fill:#fdef00;stroke:#000"/><path d="M235.89,324.16c-1.75-4.5,3-13.75,3-13.75-3-1.75-3.25-8.25,1.25-8.25s5.5,4.75,3,7.5c0,0,1.25,6.75.75,8.75Z" style="fill:#fdef00;stroke:#000"/><path d="M219.83,363.41s-2.95-13.53.5-20.5a63.7,63.7,0,0,0,5-15.25s28-10.63,22.21-33.88a49.29,49.29,0,0,1,8.54-.62c-8,24.5,22.25,36,22.25,36a31.55,31.55,0,0,0,4.5,11.75c3.93,6.33,3.5,15.25,3.5,15.25C265.57,372.24,243.26,373.31,219.83,363.41Z" style="fill:#fdef00;stroke:#000"/><path d="M217.33,269.85c-18.44-16.4-7.52-46.5,33-48.19,41.28-1.72,57.57,35.41,38.32,49.91,0,0,2.66-19.79-36.57-19C213.1,253.28,217.33,269.85,217.33,269.85Z" style="fill:#fdef00;stroke:#000"/><path d="M225.59,327.72c-38-21-32.19-63,25.59-64.17,58.52-1.23,59.83,44.62,26.91,65.27,13.52-11.46,7.22-35.16-26.91-35.22-34.39-.07-38.58,28.59-25.59,34.12Z" style="fill:#fdef00;stroke:#000"/><path d="M230.33,224.41c-15.5-20.75-4.23-31.76,1-36.25,7.11-6.11,49.65-8.32,49.65-8.32-22.62,18.5-2,48-2,48C246.44,191.74,230.33,224.41,230.33,224.41Z" style="fill:#fdef00;stroke:#000"/><path d="M178.7,363.25c7.42-4.6,30.39-6.46,42.07-.35,11.91,6.23,33.58,3.34,43.49-2.12,10.32-5.69,33-6.5,43.84-1.41,8.72,4.1,21.92,9.19,28.28,8.84v29.34c-11.84-.53-17.07-1.88-30.05-7.07-12.8-5.12-28.24-4.79-39.6,1.06s-35.63,6.81-47.75,1.87a43.08,43.08,0,0,0-28.26-1.87c-6.48-11.29-9.21-19.75-12-28.28Z" style="fill:#e6e6e6;stroke:#000"/><path d="M175.58,89.28c-.25,1.35,7.13,13.68,20.88,14.44" style="fill:none;stroke:#6b240a"/><path d="M170.33,95.09c9.4,10.77,16.15,13.75,20.88,13.5" style="fill:none;stroke:#6b240a"/><path d="M167.58,98.78c7,10.18,13.7,11.78,13.88,12.38" style="fill:none;stroke:#6b240a"/><path d="M496.1,357.68c-13.67-7.35-32.39-1-44.07,5.15-11.91,6.23-33.58,3.34-43.49-2.12-10.32-5.69-33-6.5-43.84-1.41-8.72,4.1-21.92,9.19-28.28,8.84V486.57c40.66,2.83,83.36-21.21,108.6-44.94,25.76-24.22,46-63.41,51.08-83.95Z" style="fill:#00802f;stroke:#000"/><path d="M505.28,293.41c0,106.92-75.8,193.69-169.19,193.69S166.89,400.33,166.89,293.41,242.69,99.71,336.08,99.71,505.28,186.49,505.28,293.41Z" style="fill:none;stroke:#000;stroke-linejoin:round;stroke-width:2.612936496734619px"/><path d="M415.94,363.61c3.23-1,1.06-16.65-1.24-16.44,3-4.6,4.61-10.06-.35-19.8,4.39-5.39,1.81-10.27-.18-15.2,2.29-3.65,3.93-7.86.18-16.62,1.56-4.31,3.5-8.4-.88-15.91.21-4.52,3.38-7.69-1.06-14.32,3.83-5.72,1.4-8.3.88-11.84" style="fill:none;stroke:#000;stroke-linecap:round;stroke-width:1.5px"/><path d="M420.18,332.32c-1.24,1.47-2.83-.74-4.07-1.41" style="fill:none;stroke:#000"/><path d="M420.53,315.88c-1.77.26-3.54-.61-5.3-1.24" style="fill:none;stroke:#000"/><path d="M414.88,295.9c1.65.85,3.3,1.76,4.95,1.24" style="fill:none;stroke:#000"/><path d="M418.59,279.46a6.82,6.82,0,0,1-4.95-.71" style="fill:none;stroke:#000"/><path d="M336.21,487.17V100" style="fill:none;stroke:#000;stroke-width:2px"/><path d="M297.43,298.4l38.75-68.75,38.75,68.75-38.75,68.75Z" style="fill:#00802f;stroke:#000;stroke-linecap:round;stroke-linejoin:round;stroke-width:2px"/><path d="M336.17,269.09l6.59,20.7,20.83.17-16.76,13,6.28,20.8L336.17,311l-16.95,12.69,6.28-20.8-16.76-13,20.83-.17Z" style="fill:#fdef00"/><path d="M173.49,532.78c1.94-13.79-1-24.28-3.36-28.55s-8.66-13.17-.62-16.18" style="fill:none;stroke:#000;stroke-width:2px"/><path d="M190.11,486.38c17.77,1.86,33.79,1.47,38.18.8s16.09-4.24,16.44-9.37" style="fill:none;stroke:#000;stroke-width:2px"/><path d="M75.77,482.13c-.53-5.66,13.15-7.7,17.12-9.49s12.73-11.11,12.73-11.11c1.41-2.9.83-9.86-.23-14.81L91.28,406.48s-5.2-15.45-5.55-24.29c0,0-6.37-1.89-7.17-12.26-.18-2.3.68-10.95.68-10.95-7.25-24-17.34-52.52-17.82-89.86-.47-35.75,12.32-53.82,13-55.83.78-2.37.26-9.57,3-13-.25-4.67-1.5-16.63-1.5-16.63-9.55,22.45-34.83,37.69-34.83,37.69-6.72-4.6-16.43-12.43-22.44-31.7l-6.25-21.75c-2.83-9.19,0-19.47,1.62-24.06,2-5.76,3.05-16.09,5-18.74,0,0,3.34-5.86,12.36-1.62l4.92,2.36c2.89,1.39,1.11,5.75-1.26,6.05,5.91,2.73,1.35,4.56.06,6.68,2.16,2.13,1.34,3.48,0,4.31A10.41,10.41,0,0,1,31.79,144c2.19,2.44-.65,6.11-2.78,4a31.65,31.65,0,0,0-3.66-3.27c-.73-.49-1.59-1.69-1.85.13s-.57,3.14-.8,4.85a13.14,13.14,0,0,0-.15,4.51c.23.51,2.33,1.21,2.33,1.21s4.82,13.79,6.94,15.73c0,0,9.67,10.11,12.49,10.64,0,0,6.43-15.43,15.27-25.68l3.24-14.81c.71-5.13,4.74-9.42,11.11-13L88.5,121s9.9-6.48,12.73-6.48l-.69-11.8c-4.95-.18-9.25-7.87-9.25-7.87-2.83-3.8-5.07-12.11-6-14.45s1.08-8,.38-10a35.1,35.1,0,0,1-1.28-7.29c2-4.86,15.84-3.7,17.35-3.7s10.11-.28,12.26,0c4.86.35,7.42,10,7.42,10,.35,2.74-1.4,5-1.09,6.29.44,1.86-.32,7.55-.32,7.55-.62,2.56,1.19,6.05,2.5,7a12.61,12.61,0,0,0,5.14,2l5.32,13.65,14.63,4.16c5.07,1.44,12.42.81,17.29.27s15.14,0,19.08.26,7.85,1.18,12.23,1.18c5.76,0,19.54,0,19.54,0,6.93.62,10.42.9,15.31,1.48,5.24.62,13.72,6.44,19,11.06,0,0-4.36,10.73-12.32,15.81-4.2,2.68-18.82,13.35-22.06,15.42-4.58,2.94-24.34,34.05-24.34,34.05s-1-12.52-.25-16.26c.69-4.12,4.21-9.71,5.53-11.65s9.28-21.51,9.28-21.51a124.55,124.55,0,0,1-22.67,3c-9.71.36-12.75,8.77-15.91,12.89s-4.43,7.54-5.83,13.09c0,0-5.92,31.66-11.58,46l-3.7,7.17a23.28,23.28,0,0,1-1.62,9c-1,2.07-1.39,13.88-1.39,13.88l7.4,54.14s5,23.73,4.86,38.41l.48,19.79c1.59,2.65,4.2,12.6,2.08,21.79,0,0,11.65,29.71,11.74,46s6.92,42.78,11.34,48.08c0,0,14.13,11.77,11.17,13.66,0,0-2,1.4-5.47.4,0,0,.39,4-3.11,2,0,0-.66,4-4.16,3.24,0,0,.85,3.35-2.9,3,0,0-2.32,3.12-4.82.11-1.33-1.59-7-16.34-8.1-16.52-5-.84-5.49-1.69-5.49-5.13,0,0,1.36-12.35-2.46-21.21,0,0-6.84-21.06-12-26.85S133.69,404,133.72,397s-4.16-22.55-5.2-26-15.23-38.9-15.23-38.9-2.94,23.91-1.43,29.19c1,3.44,3.08,24.69,3.08,24.69,5.24,9,8.37,18.17,9.19,33.38l.64,38.29c-.16,2.94,6.41,18.18,5.43,19.81-.53.88-7.84,1.91-12.06,1.84s-10.89,1.48-13.89,2.49-11.67,2.53-14.59,1.2-6.88-.23-8.56-.23a41.85,41.85,0,0,1-5.32-.69Z" style="fill:#fdb57d;stroke:#5e0c01"/><path d="M181,496.66c6.13,1.13,43.31,1.75,57.19-.62" style="fill:none;stroke:#000;stroke-width:2px"/><path d="M502.83,533.91c-1.37-7-1.42-20.7,1.5-28.87s9.38-19.87-.12-22.5" style="fill:none;stroke:#000;stroke-width:2px"/><path d="M435.71,497.91c43.38,1.75,59,3.63,63-4.5" style="fill:none;stroke:#000;stroke-width:2px"/><path d="M105.27,72.47c1.06,0,5.58.23,7.56-1.25s-.53-5.66-5.81-3.94c-1.13.37-1.82,1.12-3,2.44C101.36,72.69,104.26,72.51,105.27,72.47Z" style="fill:#521a1c"/><path d="M87.18,48.41c-2.9.63-2.76,3.67-.12,3,5.44-1.44,17.95-6.51,32.6-.44,1.56.5,2.16-.52,1.1-1.27C102.88,41.35,91.49,47.47,87.18,48.41Z" style="fill:#dd2d37;stroke:#5b1617"/><path d="M580.4,97.52s-1.71,12.63-.36,15.29,2.89,11.9,2.89,11.9l-17-8.62,5.72-11.81,8.75-6.77Z" style="fill:#461d2f"/><path d="M635.05,57.56s8.57,50.74,9.32,70.62a10.08,10.08,0,0,0-4.82.23C639.67,105,635.05,57.56,635.05,57.56Z" style="fill:#e00814;stroke:#000"/><path d="M593.39,483.35c.53-5.66-14.21-7.7-18.18-9.49s-10.74-7.84-11.31-9.51c-1-3.05-.19-10.73,1.47-15.51.8-2.3,11.77-33.23,13.23-40.44,0,0,4-19.34,4.32-28.18a13.64,13.64,0,0,0,5.76-10.14c.18-2.3,0-9.89,0-9.89,7-12,7.33-38.89,11.8-54.26,4.4-15.12,7.44-41.35,5.93-53.1s-11-36.32-11.66-38.33c-.78-2.37-2.56-5.33-4.42-9.24-2.11-4.67,1.45-18.4,1.5-18.4C601.4,209.3,625.79,221,628.27,221c1.42,0,16.26-10.84,22.27-30.11l5.25-20.12c2.2-9.32,1-21.09-.62-25.69A63.28,63.28,0,0,0,648,130.72s-4.47-5.61-10.36-1.87l-5,2.11c-3,1.24-2.61,5.12-.24,5.43-5.91,2.73-.1,5.81,2.44,5.8-2.16,2.13-2.61,3.71-1.35,4.68a3.61,3.61,0,0,0,3.51.75c-6.25,3.38,1.08,10,3.78,8.67,1-.48-.24-6.71,1.16-7.64.73-.49,2.52-1.61,3.39-.14s.14,3.59,1.36,4.12a2,2,0,0,1,.91,2.71c-.36,1.07-3.31,1.33-3.31,1.33s-4.82,13.79-6.94,15.73c0,0-7.17,12-10,12.52-.4.54-7.24-10-15.12-21.55,0,0-1.82-13.39-3.42-19.93-1.22-5-9.16-10.84-14.11-13.13,0,0-11.17-4.49-12.92-5.86s-9.52-6.6-12.35-6.6l1.82-10c4.95-.18,9-11.24,9-11.24,2.83-3.8,4.44-9.61,5.41-12s-1.33-9-.63-11c.95-2.6,2.78-6.79,2.78-6.79-2-4.86-18.09-4.08-19.6-4.08s-10.61.6-12.76.88c-4.86.35-6.17,7-6.17,7-.35,2.74-.1,5-.41,6.29-.44,1.86.82,6.55.82,6.55.62,2.56-1.07,4.8-2.37,7.4-.44,4.39-1.55,4.27-2.76,5.49-1.88,2.3-2.66,7.95-5,11.31-1.88,2.75-7.23,3.46-12.51,5-5.93,1.78-14-1.13-21.36-2.21-6.65-1-17.64.68-20.5,1.32A66.67,66.67,0,0,1,473,113c-5.76,0-7.34-1.45-11.76-1.63-6.95-.28-12.9,1.61-18,3.07-4.73,1.36-12,8.56-17.2,13.18,0,0,6.6,9.26,12.85,16.34,4.55,5.15,13.83,11.56,17.39,13,5.33,2.19,24.64,33.3,24.64,33.3s.6-13.08-.15-16.82c-.69-4.12-3.86-10.95-5.17-12.89s-7.16-17.27-7.16-17.27,5.14.6,17.55,1.06c9.71.36,13.28,7.54,16.44,11.65s5,9,6.36,14.51a95.22,95.22,0,0,0,6.81,27.24,170,170,0,0,1,6.35,18,23.28,23.28,0,0,0,1.62,9c1,2.07,1.57,21.66,1.57,21.66l-6.52,54.14s-4.15,22.67-4.15,37.35c0,2.83-1.19,16.43-1.19,16.43-1.59,2.65-4.2,11.36-2.08,20.55,0,0-10.94,45.27-11,61.57s-5.08,31.77-9.22,37.3c-3.18,4.24-14,11.65-11,13.54,0,0,1.31,1.09,4,.4,0,0-1.14,5,2.36,3,0,0,.79,2.74,4.29,2,0,0,1.53,2.72,3.65.47,0,0,1.94,2.62,4.45-.39,1.33-1.59,7.35-14.29,8.41-14.47,5-.84,5.69-2.68,5.87-6.11.13-2.61-.34-8.71,1.09-17.77.66-3.14,8.74-21.15,12.52-27.47s8.88-21.75,8.85-28.76,4.16-23.8,5.2-27.21,15.23-37.65,15.23-37.65,1.87,23.2,1.43,29.19c-1,3.44-2,23.27-2,23.27A73.64,73.64,0,0,0,545,420.65s.6,32.65-.46,37.71c-.61,2.89-6.39,17.28-5.08,19.9.88,1.77,8.24,4.77,13.65,3.39a21.16,21.16,0,0,1,13.72,1.25c2.56,1.36,9.73,2.7,12.65,1.38s6.88-.23,8.56-.23a41.85,41.85,0,0,0,5.32-.69Z" style="fill:#fdb57d;stroke:#5e0c01"/><path d="M565.93,75.85c-1.06.08-5.52.84-7.65-.42s-.1-5.69,5.35-4.55c1.16.24,1.93.91,3.25,2.09,3,2.66.06,2.8-.94,2.87Z" style="fill:#521a1c"/><path d="M65.46,483.41v.13c.74.25-16.65-54.83-24.12-107.87-4-23.5-27.13-141.24-17.38-230.87l5,4.27c-5.12,60.25.9,86.85,4.15,133.85C40,358,65.46,483.41,65.46,483.41Z" style="fill:#e00814;stroke:#000"/><path d="M31.33,50.66S25.59,101.13,24.84,121c1.51-.4,3.09.46,4.82.85C29.54,98.49,31.33,50.66,31.33,50.66Z" style="fill:#e00814;stroke:#000"/><path d="M31.33,51.16c7.5,63.75,9.2,178.74,9.25,203.25,0,14.75.09,71.12.09,71.12" style="fill:none;stroke:#000"/><path d="M65.71,483.53s-14.62-46.25-17-57.62c-2.08-10-5.5-29.87-5.5-29.87-2.37-7.75-2.5-71.5-2.5-71.5" style="fill:none;stroke:#000"/><path d="M100.71,102.28a32.45,32.45,0,0,0,20.75-9.62c-2.12,8.12-12.06,11.12-20.62,11.63Z" style="fill:#5e0c01"/><path d="M68.71,195.78c6.76-9.3,8.64-26.8.38-41.12,6.61,7.21,7.73,18.71,7.38,31.25Z" style="fill:#5e0c01"/><path d="M198.81,158.1c6.43-12.32,12-25.36,19.76-37-5.06,5.34-10.67,9.61-13.35,18.38-13,2.95-26.17-3-38.89,8.84h6.19c4.48-6,11.56-4.22,17.5-5.83l15.56-2.3Z" style="fill:#5e0c01"/><path d="M135,161.2c16.72-.55,28.84-9.48,33.85-22.1C161.26,148.53,150,157.94,135,161.2Z" style="fill:#5e0c01"/><path d="M79.53,358.41a41.4,41.4,0,0,0,4.3,7.5c-1.63-1.1-3.43-4.09-4.75-1.87Z" style="fill:#5e0c01"/><path d="M80,375.91a27.87,27.87,0,0,0,12.13,8.5c-1.73,0-3.75-.36-4.25.25.62,6.88,1.83,12.6,2.75,18.88-1.93-7.22-4.77-14.59-4.87-21.5C81.46,381.54,81.5,378.2,80,375.91Z" style="fill:#5e0c01"/><path d="M74.83,167.66c3.59,6.13,9.66,4,15.13,3.88-4.41,2.61-8.82,3.06-14.25,1Z" style="fill:#5e0c01"/><path d="M106.31,224.75,105.7,237c-.09,1.86,1.15,1.94,1.5.18l.62-12.11C107.73,222.8,106,223.16,106.31,224.75Z" style="fill:#5e0c01"/><path d="M148.33,380.78c2.83-.1,4.73,2.09,9.63-.37,2.39-9.39-1.26-17.13-2.12-25.62-3,3.45-3.86,5-4.25,6.13,1.32-.41,2.38-1.61,4-1.12C157.39,365.29,160.89,378.35,148.33,380.78Z" style="fill:#5e0c01"/><path d="M111.33,349.41c1.77-21.41-3.12-32.87-8.12-51.25l2.13-.5c4.71,15.92,8.72,30.51,13.13,46.13l-5.12-11.12Z" style="fill:#5e0c01"/><path d="M33.83,173.78c5.41,5.54,11.92,11.08,16.13,16.63-.84-2.3,0-2-5.12-9.25l-.5.88Z" style="fill:#5e0c01"/><path d="M124.33,448.16c-.75.13-4.19,1.32-4.25,3.38-.07,2.37,2.63,2.88,2.63,2.88s-4.62,7.38-4.5,10.5a11.15,11.15,0,0,0,6.63-4.75Z" style="fill:#5e0c01"/><path d="M95.08,471.91c-2.93,2.58-4.85,5.9-10.25,6.63-2.48.11-5,.59-6,2.25-.52.87.21,1.57.5,2L75.71,482C77.21,476.87,85.32,474.09,95.08,471.91Z" style="fill:#5e0c01"/><path d="M76.17,186.3c1.24,6.39,2.47,14.87,3.71,19.09H77.23c-.6,5.76.22,9.18.53,13.44l-3.89-3.89,1.47-5.58c.47-3.46.1-7.56,2.3-9.72L76.17,186.3Z" style="fill:#5e0c01"/><path d="M105.21,220.64c-3.88-2.38,7.93-2.47,4.77-.18A5.37,5.37,0,0,1,105.21,220.64Z" style="fill:#5e0c01"/><path d="M104,126.87c2.06.54,1.6-2.5.37-2.77L93.66,124c-1.07-.35-1.18,1.2,1.2,1.57l9.18,1.27Z" style="fill:#5e0c01"/><path d="M112.32,177.24,110.84,192c-.14,1.85,1.1,2,1.5.22l1.47-14.56C113.78,175.33,112,175.64,112.32,177.24Z" style="fill:#5e0c01"/><path d="M33.58,130.41l-6.38-3.12c-1.75-1-2.87.25-1.87,1l9.5,4.5c3,1.55,1.32,5.45-.59,4.37L26,132.47c-1.77-1.24-1.92.54-.69,1.69l9.16,5.91c2.1,1.48-.85,4.17-2.63,2.32l-6.65-5.1c-1.94-1.15-1.89.08-1.19.88,9.7,7.46,8.88,7.88,8.88,7.88s-.06-2.69,1.88-2.5a14.78,14.78,0,0,0,1-1.18c.46-.63.87-1.33.64-1.63-2.16-2.44.57-2,1.45-5.89.24-1-2.08-1.56-1.77-2.53s4.14-4.13-.28-6.25C36.9,126.92,38.33,132.17,33.58,130.41Z" style="fill:#5e0c01"/><path d="M34.1,215.29c5.78,4,9.64,3.24,13.08,1.41l-6,4.77Z" style="fill:#5e0c01"/><path d="M175.17,496.59c.93-.75.13-1.48-.13-1.9-.64-1,.42-1.49,1.06-.49a1.62,1.62,0,0,0,1.86,1.15l-2.78,1.24Z" style="fill:#5e0c01"/><path d="M79.34,168.35c-3.88-2.38,7.1-2.1,3.71-.18A3.85,3.85,0,0,1,79.34,168.35Z" style="fill:#5e0c01"/><path d="M145.21,151.5c-1-1.54,4.06-2.88,4.21-1.34C149.56,151.53,145.73,152.29,145.21,151.5Z" style="fill:#5e0c01"/><path d="M126.08,120.16c-2.12.13-.75,2.88.5,2.75l10.25-3.25c1.13,0,.75-1.5-1.62-1.12Z" style="fill:#5e0c01"/><path d="M112.51,126.62c-.5-1.33,4.15-1.29,3.93-.13S112.77,127.3,112.51,126.62Z" style="fill:#5e0c01"/><path d="M114.18,151.63l-.43,11.1c0,1.86,1.23,2.07,1.51.29l.44-11.1C115.51,149.62,113.76,150.05,114.18,151.63Z" style="fill:#5e0c01"/><path d="M121.31,104.45l-1.93,9.81c-.32,1.83.87,2.25,1.44.54l1.94-9.8c.2-2.29-1.6-2.16-1.45-.54Z" style="fill:#5e0c01"/><path d="M108.64,205.17l-1.17,8.95c-.31,1.83.91,2.07,1.47.35l1.15-8.77c.18-2.29-1.62-2.15-1.45-.53Z" style="fill:#5e0c01"/><path d="M178.85,494.43c.93-.75-1.95-4-2.21-4.42-.64-1,.42-1.49,1.06-.49.15.24,1.81,3,3.31,2.92a3.43,3.43,0,0,0-2.17,2Z" style="fill:#5e0c01"/><path d="M182.56,491.16c.93-.75-1.86-2.68-2.12-3.09-.64-1,.42-1.49,1.06-.49.15.24,2.52,2.08,4,1.94a3.13,3.13,0,0,0-3,1.64Z" style="fill:#5e0c01"/><path d="M185.79,489.48c.93-.75-.13-2.23-.4-2.65-.64-1,.29-1.88.93-.88a2.39,2.39,0,0,0,2.3,1.33C186.75,487.17,186.43,488.47,185.79,489.48Z" style="fill:#5e0c01"/><path d="M95.4,88.34c-.93.31-2,2.52-.12,4.69,2,2.37,8.42,2.63,10.44.44s1.66-4.89.19-5.06S96.33,88,95.4,88.34Z" style="fill:#5e0c01"/><path d="M84.27,64.47c2.13-.87,7.64-2.81,10.44-.37s2.74,9,2.43,11a4.62,4.62,0,0,1-1.33,2.68,8,8,0,0,0-1.29,1.81c-.28.55-.08,3.09-.19,2.68A5.52,5.52,0,0,1,94.13,79c.2-.78,1.5-2.1,1.77-3.93.44-3.37-.07-7.62-1.85-9.39s-7.41-.25-9.35.5Z" style="fill:#5e0c01"/><path d="M103.33,64.66c-1.42,1.41.56,2.32,1.5,1.44,4.13-3.56,10.75-1.19,10.75-1.19S109.4,59.09,103.33,64.66Z" style="fill:#5e0c01"/><path d="M87.83,86.66c3.73.57,4.22,2.16,3,7A22.53,22.53,0,0,1,87.83,86.66Z" style="fill:#5e0c01"/><path d="M113.46,88.09a1,1,0,0,0,1,1.06c.69,0,1-.81,1-1.25a.85.85,0,0,0-1.06-.81C113.68,87.17,113.46,87.49,113.46,88.09Z" style="fill:#5e0c01"/><path d="M95,83.12c0,.6.92.6,1.61.6s1.73-.35,1.73-.79-1-1.17-1.73-1.09S95,82.52,95,83.12Z" style="fill:#5e0c01"/><path d="M102.43,79.88c-.14-1.2,1.57-.93,2-.18,1,1.59-1.15,3.18-1.15,3.18C104.28,81,102.6,80.68,102.43,79.88Z" style="fill:#5e0c01"/><path d="M571.58,107.12a32.45,32.45,0,0,1-20.75-9.62c2.12,8.12,12.06,11.12,20.63,11.62Z" style="fill:#5e0c01"/><path d="M474,158.51c-9.09-21.34-14.34-25.17-23.45-36.22,5.06,5.34,17.42,10.42,20.1,19.2,13,2.95,30.67-4.49,40.7,14.84a76.57,76.57,0,0,0-11.69-8.75c-5.93-3.42-14.62-2.28-20.56-3.9l-10.68-.74Z" style="fill:#5e0c01"/><path d="M593.38,345.37c-.92,4.33-7.32,15.86-8.3,17a4.92,4.92,0,0,0,3.63-.75C590.4,356.19,592.44,350.7,593.38,345.37Z" style="fill:#5e0c01"/><path d="M588.58,368.12a19.6,19.6,0,0,1-12.12,12.5c1.73,0,4.75.14,5.25.75-.62,6.88-1,13-1.87,19.25,2.16-7.11,1.39-11.95,3.43-20.75C587.17,378.41,588,373,588.58,368.12Z" style="fill:#5e0c01"/><path d="M594.55,166.77c-3.59,6.13-6.76,4.84-12.22,4.72,4.41,2.61,6.45,3.94,11.88,1.88Z" style="fill:#5e0c01"/><path d="M566,227.93l4.1,13.19c.53,1.78-.64,2.16-1.42.54l-4.06-13c-.47-2.25,1.33-2.34,1.37-.71Z" style="fill:#5e0c01"/><path d="M521.45,376.87c-2.83-.1-5,1.09-9.87-1.37-3.14-10,.64-16.13,2.38-24.62,2.9,5,4.86,2.73,5.25,3.88-1.32-.41-5,1.39-6,3.13C511.39,363.38,508.89,374.44,521.45,376.87Z" style="fill:#5e0c01"/><path d="M557.52,350.53c-1.77-21.41,5.06-30.79,11.88-53.33l-2.12-.5c-4.71,15.92-12.16,32.67-16.57,48.29l5.13-11.12Z" style="fill:#5e0c01"/><path d="M636.45,175.25c-5.41,5.54-6.42,10.21-12.75,17.13.84-2.3-.92-.75,3.13-8.75l.5.88C628.33,184.5,636.45,175.25,636.45,175.25Z" style="fill:#5e0c01"/><path d="M574.08,473.12c2.93,2.58,4.85,5.9,10.25,6.63,2.48.11,5,.59,6,2.25.52.87-.21,1.57-.5,2l3.63-.75C592,478.11,584,476.57,574.08,473.12Z" style="fill:#5e0c01"/><path d="M589.49,197.52c-1.24,6.39.78,10-.46,14.22l3.53-.12c.59,5.76,0,7.18-.28,11.44l3.89-3.89-1.47-5.58c-2-3.34-.72-1.43-2.67-4.6-1.8-3.34-2.1-7.43-2.53-11.46Z" style="fill:#5e0c01"/><path d="M566.22,222.39c4.37-4.38-10.66-2.19-6.11.68C562.12,224.32,565.31,223.3,566.22,222.39Z" style="fill:#5e0c01"/><path d="M569.42,133.38c-1.59-.07-1.19-2.61.18-2.29s10.55,1.15,10.55,1.15c1.11-.18,1.27,1.91-1.13,1.92C579,134.15,571.85,134,569.42,133.38Z" style="fill:#5e0c01"/><path d="M559.66,180l1.23,14.55c.39,1.92-1.1,2-1.5.22l-1.28-14.5C558.13,177.92,559.65,178.23,559.66,180Z" style="fill:#5e0c01"/><path d="M634.26,134.25l5.56-2.06c2.75-1,3.38.5.31,1.56l-7.31,3.38c-3,1.55-.39,5.07,1.4,3.8l7-4.93c1.89-1.49,2.67,0,1,1.44l-7.84,6.34c-2,2.1.17,4,1.31,3.14l6.78-6.54c1.57-1.59,2.52-.17,1.44,1.19-8.83,8.28-9.25,9.06-9.25,9.06s2-2.62-1.75-4a7.85,7.85,0,0,1,.52-3.06c.43-.65,1.51-1.52-.64-1.63-2.84-2.37-1,1-2.83-2.77-.46-1,2.52-2.87.58-4.78-.81-.79.55-3.13,5.47-4.44C631.2,131.94,628.64,136.07,634.26,134.25Z" style="fill:#5e0c01"/><path d="M495.9,494.16a1.38,1.38,0,0,1-.57-1.94c.53-1.48-1-1.73-1.24-.35a1.92,1.92,0,0,1-1.68,1.9C493.42,493.83,495.14,493.41,495.9,494.16Z" style="fill:#5e0c01"/><path d="M591,167.43c3.68-2.67-7.25-1.53-3.71.12A3.85,3.85,0,0,0,591,167.43Z" style="fill:#5e0c01"/><path d="M527.5,154.7c.91-1.61-4.24-2.61-4.29-1.07C523.16,155,527,155.53,527.5,154.7Z" style="fill:#5e0c01"/><path d="M548.35,128.07c2.07.5.47,2.21-.73,1.87l-14.75-7.53c-1.11-.2-.47-1.61,1.8-.82l13.69,6.48Z" style="fill:#5e0c01"/><path d="M563.5,132.18c.79-2-6.51-1.9-6.15-.2C557.67,133.51,563.1,133.19,563.5,132.18Z" style="fill:#5e0c01"/><path d="M562.78,152.28a98.82,98.82,0,0,1-1.55,15.29c-.5,1.79-2.48,1.84-1.79.17s1.67-11,1.58-15.38c0-2.3,1.74-2,1.75-.08Z" style="fill:#5e0c01"/><path d="M549.26,108.49c.88,1.41,5.11,6.8,5.64,11.4.21,1.85-2.1,1.09-2.32-.7-.18-1.41-3.35-8.74-4.77-10.16C546.19,107.4,548.4,107.11,549.26,108.49Z" style="fill:#5e0c01"/><path d="M562.21,202.44l1.67,12.88c.31,1.83-.91,2.07-1.47.35L560.76,203c-.43-2.29,1.37-2.27,1.45-.53Z" style="fill:#5e0c01"/><path d="M491.56,493.53c-.62-1.46,1.33-3.38,1.59-3.8.64-1-.51-1.67-1.15-.66-1,1.56-2,3.45-3.49,3.31,1.27.35,2.14.08,3,1.15Z" style="fill:#5e0c01"/><path d="M487.35,492c-.66-1,.18-1.53,1.41-3.09.74-.94-.3-1.26-1.06-.35-1.17,1.39-1,1.72-3.45,2.3a6.84,6.84,0,0,1,3.09,1.15Z" style="fill:#5e0c01"/><path d="M484,489.65c0-1.81,1.8-2.59,2.17-2.92.73-.66-.2-1.62-1.37-.62a3.38,3.38,0,0,1-2.65,1.37C484,487.38,483.21,488.64,484,489.65Z" style="fill:#5e0c01"/><path d="M576.39,91.43c.93.31,2,2.52.13,4.69-2,2.37-8.42,2.63-10.44.44s-1.66-4.89-.19-5.06S575.45,91.12,576.39,91.43Z" style="fill:#5e0c01"/><path d="M586.68,68.26c-2-.87-8.11-2.64-10.8-.2s-2.63,9-2.33,11a4.7,4.7,0,0,0,1.28,2.68,8,8,0,0,1,1.24,1.81c.27.55-.3,3.36-.19,2.94a5.86,5.86,0,0,0,.55-3.53c-.19-.78-1.44-2.1-1.7-3.93-.42-3.37-.17-6.45,1.66-8.89s5.21-2.06,9.62.46Z" style="fill:#5e0c01"/><path d="M568.83,68.87c1.42,1.41-.56,2.32-1.5,1.44-4.12-3.56-10.75-1.19-10.75-1.19S562.76,63.31,568.83,68.87Z" style="fill:#5e0c01"/><path d="M583.7,88.62c-3.73.57-4.22,2.16-3,7A22.53,22.53,0,0,0,583.7,88.62Z" style="fill:#5e0c01"/><path d="M559.33,92.14a1.42,1.42,0,0,1-1.47,1.61c-1,0-1.47-1.22-1.47-1.89a1.26,1.26,0,0,1,1.56-1.23C559,90.75,559.33,91.23,559.33,92.14Z" style="fill:#5e0c01"/><path d="M571.87,85.7c0,.6-1,1-1.71,1s-1.62-.81-1.62-1.25,1-.89,1.68-.81S571.87,85.1,571.87,85.7Z" style="fill:#5e0c01"/><path d="M575.83,86.09c0,.6-.92.6-1.61.6s-1.73-.35-1.73-.79,1-1.17,1.73-1.09S575.83,85.49,575.83,86.09Z" style="fill:#5e0c01"/><path d="M568.29,82.72c.14-1.2-1.57-.93-2-.18-1,1.59,1.15,3.18,1.15,3.18C566.43,83.87,568.11,83.52,568.29,82.72Z" style="fill:#5e0c01"/><path d="M99,83c0,.6.92.6,1.61.6s1.73-.35,1.73-.79-1-1.17-1.73-1.09S99,82.4,99,83Z" style="fill:#5e0c01"/><path d="M498.58,138.47s8.8,9.82,16.44,17.19c6.13,5.88,12.81,9.06,23.25,9.19,0,0-15.5-5.37-21.62-11.62S506,141.72,498.58,138.47Z" style="fill:#5e0c01"/><path d="M594.88,186.92c-1.27-4.35-1-8.06,1.37-16.53,1.3-4.74,3.62-15.11,3.62-15.11s-9.77,14.63-8.4,31.6c19.24,33.1,37.06,33,36.37,34.07,0,0-28.95-19.84-33-34Z" style="fill:#5e0c01"/><path d="M548.46,453.47c-.56,4.58-1.54,8.57,2.69,13.31C544.25,465,545.47,459.85,548.46,453.47Z" style="fill:#5e0c01"/><path d="M512.9,469.59c-2.56-1.19-6.51-1.8.38-7Z" style="fill:#5e0c01"/><path d="M577,76.29c.88.08,4.61.84,6.39-.42s.08-5.69-4.47-4.55a3.88,3.88,0,0,0-2.71,2.09C574.74,76.18,576.19,76.22,577,76.29Z" style="fill:#521a1c"/><path d="M96.47,90.87c-.23.08-2,.54.2,1.81a9,9,0,0,0,7.46.11c2.24-1,.84-1.82,0-1.91s-7.39-.11-7.67,0Z" style="fill:#d59c97"/><path d="M93.54,72.6c-.94,0-4.93.23-6.68-1.25s.46-5.66,5.13-3.94a4.57,4.57,0,0,1,2.65,2.44C96,72.46,94.43,72.63,93.54,72.6Z" style="fill:#521a1c"/><path d="M575.31,94c.23.08,2,.54-.2,1.81a9,9,0,0,1-7.46.11c-2.24-1-.84-1.82,0-1.91s7.39-.11,7.67,0Z" style="fill:#d59c97"/><path d="M635.05,57.53c-9.62,104.06-4.61,178.39-4.65,202.9,0,14.75-1.86,66.88-1.86,66.88" style="fill:none;stroke:#000"/><path d="M601.46,484.13l1.06.3c.75.21,23.42-78.35,27.66-106.28s23.77-142.92,15.26-232.37l-4.8,4c2.47,61.49.69,88.44-3.62,135.44-7.08,98-35.56,198.91-35.56,198.91Z" style="fill:#e00814;stroke:#000"/><path d="M638.41,156.25l2.65-.09.27-6.45,2.65-1.94,2.56,1.06-.44-4.6-5.83,4.15-1.86,7.87Z" style="fill:#ee7b39"/><path d="M635.41,153.68c2.21,3.09,4.24,2.74,5.48,2.65.83,0-.36-3.43,0-5,.18-.8,1.76-3.31,2.3-3.36,1.94-.18,2.45.44,2.47,1.41a3.91,3.91,0,0,0,1.59,3.71" style="fill:none;stroke:#5e0c01"/><path d="M602.29,484.53s14.63-46.25,17-57.62c2.08-10,4.26-17.5,5.5-29.87,1.19-11.88,3.75-70.44,3.75-70.44" style="fill:none;stroke:#000"/><path d="M584.19,52.37c2.9.63,2.76,3.67.12,3-5.44-1.44-29.35-3.15-37.73,4.34-1,.77-2-1-.92-1.71,7.72-8.33,34.22-6.54,38.54-5.6Z" style="fill:#dd2d37;stroke:#5b1617"/><path d="M417.56,260.16c-.86.32-1.06.63-3.32-.46" style="fill:none;stroke:#000"/><path d="M532.33,58.41c22-31.1,56-21.4,52-15.5Z" style="fill:#461d2f"/><path d="M179.77,88.9c.73,4.45,6.84,10.25,12.37,11.67,4.36,1.5,3.71-3.71,3.71-3.71l10-10.72c.89-1.11-.29-2-1.14-1.12l-8.13,8.84a1,1,0,0,1-.68.26c-.27,0-.13-.38-.44-.51,1.06-2.28,2.34-4.47,3.44-6.72-2,.88-5.48,4-6.92,3.52a2.38,2.38,0,0,1,0-1.07,2,2,0,0,1,.54-1L198,81.65c1.06-1.24-.53-1.59-1.41-.88l-5.48,6.12c-1.65,0,1.4-4.5,2.26-6,.07-.13-6.73,5.59-6.51,2.93L193,77.05c1.24-1.06-.47-2.85-1.71-1.61-1.06,1-10.85,11.78-11.55,13.46Z" style="fill:#461d2f"/><path d="M498,90.83c.25,1.35-6.76,13.62-20.87,14.25" style="fill:none;stroke:#6b240a"/><path d="M502.65,96.58c-10.47,11.84-15.21,13.06-20.37,13.5" style="fill:none;stroke:#6b240a"/><path d="M493.84,90.45c-.73,4.45-6.84,10.25-12.37,11.67-3.36,0-3.71-3.71-3.71-3.71l-10-10.72c-.89-1.11.29-2,1.14-1.12L477,95.4a1,1,0,0,0,.67.26c.27,0,.13-.38.44-.51-1.06-2.28-2.34-4.47-3.44-6.72,2,.88,5.48,4,6.92,3.52a2.38,2.38,0,0,0,0-1.07,2,2,0,0,0-.54-1l-5.48-6.72c-1.06-1.24.53-1.59,1.41-.88l5.48,6.12c1.65,0-1.4-4.5-2.26-6-.07-.13,6.73,5.59,6.51,2.93l-6.19-6.72c-1.24-1.06.47-2.85,1.71-1.61,1.06,1,10.85,11.78,11.55,13.46Z" style="fill:#461d2f"/><path d="M493,92.87c1.77-2.56,2.21-4.51,1.59-4.86-2.83-1.62-6.89,1.68-5.39,2.83Z" style="fill:#461d2f"/><path d="M180.58,91.28c-1.77-2.56-2.21-4.51-1.59-4.86,2.83-1.62,6.89,1.68,5.39,2.83l-3.8,2Z" style="fill:#461d2f"/><path d="M144.23,247.33c0-1.81,1.23-2.09,1.59-1.28a54.33,54.33,0,0,1,3.54,17c.25,8,3,21.81,4.6,28.11,1.59,6.46-2.38,8.16-3.36,4.6-.53-1.77-1.46-5.08-1.81-6.67-.62-2.81-2.94-13.18-3.67-16.84-.35-2.12-1.65-10.73-1.24-16.26,0-2.17.35-8.62.35-8.62Z" style="fill:#e00814;stroke:#6b051c"/><path d="M525,238.24c0-1.81-1.23-2.09-1.59-1.28a54.33,54.33,0,0,0-3.54,17c-.25,8-1.11,23.75-2.66,30-1.59,6.46,2.38,8.16,3.36,4.6.53-1.77,1.46-5.08,1.81-6.67.62-2.81,1.81-14.31,2.54-18a112.52,112.52,0,0,0,.42-17.08c0-2.17-.35-8.62-.35-8.62Z" style="fill:#e00814;stroke:#6b051c"/><path d="M79.27,229.12S71,250.59,75.64,263.55c4.72,13.17-2.47,31.29-2.47,31.29s8.06,0,13.08,1.94,14.73,2,19.09,1.06,7.25-1.24,7.25-1.24l-.18,5.13c2.83,2.83,9.55,3,13.26-.71,0,0-2.21-22.27-2-54.09-4.76-.33-30-6.14-44.37-17.81Z" style="fill:#e00814;stroke:#6b051c"/><path d="M151.58,211.41c-1.5,15.5-17.75,12-24.5,6.75-22-16.44-30.75-44.25-35.25-58-6.74-20.59-1.25-40.25-1.25-40.25,1-3.5,5.93-3.87,5.93-3.87-6,24.25-.18,43.62,6.82,59.87C131.32,235.78,151.58,211.41,151.58,211.41Z" style="fill:#e00814;stroke:#6b051c"/><path d="M546.27,247.22c.88,23.31-4,56.5-4,56.5,16.81-1.75,14-10.69,14-10.69,16,9.31,34.06-.56,35.56-2.56,7-10.07,1.63-60.62,1.63-60.62C579.26,239.67,564.11,247,546.27,247.22Z" style="fill:#e00814;stroke:#6b051c"/><path d="M521.81,216.5c-.25,15.31,14.23,10.82,21,5.57,22-16.44,31.63-45,36.13-58.75a85.62,85.62,0,0,0,3.38-38.5c-1-3.5-6.18-4.37-6.18-4.37,6,24.25-1.7,42.37-8.7,58.62C538.56,235.82,521.81,216.5,521.81,216.5Z" style="fill:#e00814;stroke:#6b051c"/><path d="M78.12,259.4c-.09-4,2.74-3.54,2.56,0,0,0,.44,12,1.24,15.91s6.19,15.11,6.19,15.11c1,2.74-1.68,3-2.83.18,0,0-4.87-9.94-5.75-14.67S78.12,259.4,78.12,259.4Z" style="fill:#6b051c"/><path d="M82.65,262.5c-.44-3.45,2.39-3.27,2.56,0,0,0,.88,10.34,1.68,14.23s7.42,14.58,7.42,14.58c1.33,2.12-1.5,2.47-2.83.18,0,0-6.11-9.41-7-14.14S82.65,262.5,82.65,262.5Z" style="fill:#6b051c"/><path d="M88.13,269.93c-.44-3.8,2.3-3.62,2.56,0,0,0,1,4.95,1.77,8.84s8.31,12.11,8.31,12.11c1.33,1.86-1.24,2.92-2.56,1,0,0-7.26-7.73-8.13-12.46S88.13,269.93,88.13,269.93Z" style="fill:#6b051c"/><path d="M593.09,256.43c-.09-3.8-2.74-3.54-2.56,0,0,0-.31,9.74-1.24,15.91a112.94,112.94,0,0,1-3.44,14.11c-1,2.74,2,2.74,2.83.18,0,0,2.12-8.94,3-13.67.88-6.27,1.41-16.53,1.41-16.53Z" style="fill:#6b051c"/><path d="M588.55,259.54c.71-3.18-2.12-3.18-2.56,0,0,0-2.38,11.09-3.18,15s-4.92,14.08-4.92,14.08c-.8,2.3,2.21,2.39,2.83.18,0,0,3.61-8.91,4.48-13.64S588.55,259.54,588.55,259.54Z" style="fill:#6b051c"/><path d="M584.32,261c.8-3.62-1.86-3.8-2.56,0,0,0-2.82,11-4,14.84s-5.81,12.86-5.81,12.86c-1.15,2.21,1.41,3.18,2.56,1,0,0,3.87-8.29,5.63-13.21S584.32,261,584.32,261Z" style="fill:#6b051c"/><path d="M112.59,296.61c2.39-.35,7-1.71,7.34-.39.3,3.51-7.34,5.34-7.34,5.34" style="fill:none;stroke:#6b051c;stroke-linecap:round"/><path d="M119.93,296.13l-.36-29.48" style="fill:none;stroke:#6b051c;stroke-linecap:round"/><path d="M556.21,293c-.71-.88-8-2-9.28,1-1.86,5,7.51-1,8.75,3.89" style="fill:none;stroke:#6b051c;stroke-linecap:round"/><path d="M546.67,294.84c0-.44.8-34.91.8-34.91" style="fill:none;stroke:#6b051c;stroke-linecap:round"/><path d="M525.43,240.49c17.71,14.52,60.81,1.2,73.48-16" style="fill:none;stroke:#6b051c;stroke-linecap:round;stroke-width:2px"/><path d="M143.66,247.07c-41.57.57-59.49-12.15-72.66-26.94" style="fill:none;stroke:#6b051c;stroke-linecap:round;stroke-width:2px"/></svg>