<svg xmlns="http://www.w3.org/2000/svg" xmlns:xlink="http://www.w3.org/1999/xlink" viewBox="0 0 670 642.66"><defs><clipPath id="a"><path d="M347,44A55.89,55.89,0,0,0,354.74,33c3.64-6.93,12.55-2.15,19.83-2.65-1.16-.33-2.15.33-2.15,1.16,0,4.8-2.65,10.57-8.25,11.4-5.12.66-9.91-1.17-14.87-.83C348.46,42.05,347.8,43.2,347,44Z" style="fill:none"/></clipPath></defs><title>Syria</title><polygon points="404.53 338.61 393.04 345.41 529.87 522.8 541.36 516 404.53 338.61" style="fill:#bc8810;stroke:#fddd10;stroke-width:3.1839635372161865px"/><polygon points="265.25 338.59 276.74 345.39 139.91 522.78 128.42 515.98 265.25 338.59" style="fill:#bc8810;stroke:#fddd10;stroke-width:3.1839635372161865px"/><path d="M154.1,470.16c-13.08.3-26.58,13-32.41,18-7.93,6.93-10.24,10.25-10.24,10.25-2.32,3.47-5.78-20.65-29.91,4.63s-23,24.13-21.82,35.68a116.73,116.73,0,0,1,0,28.59s27.59-11.4,27.59-14.88c0,0,6,30.41,23,36.69,10.9,4,14.87-4.62,14.87-4.62s23-17.18,24.13-21.83S225,633.85,336.17,632.68C447.36,633.85,521.88,558,523,562.62s24.12,21.83,24.12,21.83,4,8.6,14.88,4.62c17-6.28,23-36.69,23-36.69,0,3.47,27.6,14.88,27.6,14.88a117.72,117.72,0,0,1,0-28.58c1.16-11.57,2.31-10.41-21.82-35.68s-27.59-1.17-29.91-4.64c0,0-2.32-3.3-10.24-10.24-8.09-6.93-31.05-28.74-47.09-11.4-71.55,76.5-147.88,79.14-167.37,79.14s-95.84-2.65-167.38-79.14c-4.49-4.89-9.57-6.67-14.68-6.55Z" style="fill:#fddd10;stroke:#bc8810;stroke-width:3.171999931335449px"/><path d="M154.26,477.51a23,23,0,0,0-8.85,2.43c-7.29,3.46-14.56,10-18.9,13.73-6.82,6-8.68,8.41-9,8.83v.07a6.2,6.2,0,0,1-.6.72v0A110.51,110.51,0,0,0,108.3,515a3.24,3.24,0,0,1,.41.18c6.22,3,11.4,8.5,20.66,18.44,16.18,17.19,17.43,17.75,22.58,21.73a9.23,9.23,0,0,1,1.56.65,23.61,23.61,0,0,1,3.66,2.28c2.49,1.77,5.73,4.27,9.94,7.41a339.73,339.73,0,0,0,36.34,23.79c31.39,17.67,76.54,35.82,132.72,35.82s101.32-18.16,132.71-35.82a341,341,0,0,0,36.33-23.79c4.22-3.13,7.46-5.64,10-7.41a22.52,22.52,0,0,1,3.67-2.28,8,8,0,0,1,1.56-.65c5.13-4,6.41-4.54,22.57-21.73,9.28-9.94,14.44-15.45,20.67-18.44A4.14,4.14,0,0,0,564,515a108.3,108.3,0,0,0-8.64-11.7v0c-.21-.24-.46-.51-.61-.72v-.07c-.31-.42-2.17-2.86-9-8.83-4.34-3.73-11.62-10.28-18.91-13.73a21.16,21.16,0,0,0-9.92-2.42c-2.8.17-5.13,1-8,4.16v.05c-73.31,78.4-154.65,81.48-172.76,81.48s-99.43-3.08-172.76-81.48v0c-2.88-3.12-5.23-4-8-4.16-.36,0-.72,0-1.08,0Zm-53.88,21a5.4,5.4,0,0,0-1.83.48c-2.09.75-6.12,3.22-11.68,9.05-5.22,5.47-9.06,9.56-12.07,12.89q1.15.44,2.32,1c5.38,2.74,10,7.86,13.38,15.66-2.58-9.2-1.68-16.41.2-21.26,2.22-5.67,6.43-12,10.56-17.27-.1-.1-.25-.19-.31-.24C100.75,498.71,100.65,498.56,100.38,498.55Zm471.59,0c-.31,0-.36.16-.6.31s-.15.14-.31.24c4.11,5.26,8.33,11.59,10.55,17.26,1.92,4.86,2.8,12.06.26,21.27,3.39-7.8,8-12.92,13.39-15.66a22.34,22.34,0,0,1,2.29-1c-3-3.31-6.84-7.4-12.06-12.89-5.57-5.84-9.61-8.31-11.68-9.05a5.13,5.13,0,0,0-1.82-.48Zm-479,45.93q.95,3.21,1.6,6.5h0a81.68,81.68,0,0,0,4.63,14.48c3.28,7.56,8.51,14.8,13.65,16.71,3.55,1.29,4.07.54,4.76.05l.26-.23c-.26-1.22-1.14-2.8-3.5-5.92-3.28-4.35-8.77-10.53-14.82-19.55a75.69,75.69,0,0,1-6.6-12Zm486.44,0a73.58,73.58,0,0,1-6.6,12c-6,9-11.52,15.21-14.82,19.55-2.35,3.12-3.26,4.7-3.5,5.92l.26.23c.69.5,1.21,1.24,4.77,0,5.15-1.91,10.38-9.13,13.64-16.71A80.22,80.22,0,0,0,577.76,551h0q.65-3.28,1.59-6.49Z" style="fill:#fddd10"/><path d="M111.45,498.37c-4.63,4.62-11.58,15-13.89,20.66-2.14,5.78-3.3,16.19,8.11,33.36,11.57,17.18,19.5,20.65,19.5,32.06" style="fill:#fddd10;stroke:#bc8810;stroke-width:3.171999931335449px"/><path d="M60.89,528.29c5.77-2.31,20.65-4.62,26.42,24.13" style="fill:#fddd10;stroke:#bc8810;stroke-linecap:square;stroke-width:3.171999931335449px"/><path d="M96.58,524.79c5.61-6.77,9.09-5.78,27.42,13.88,18.35,19.49,18.83,18.16,25.77,23.76" style="fill:#fddd10;stroke:#bc8810;stroke-width:3.171999931335449px"/><path d="M560.88,498.37c4.63,4.62,11.56,15,13.88,20.66,2.16,5.78,3.3,16.19-8.09,33.36-11.58,17.18-19.51,20.65-19.51,32.06" style="fill:#fddd10;stroke:#bc8810;stroke-width:3.171999931335449px"/><path d="M611.45,528.29c-5.79-2.31-20.66-4.62-26.44,24.13" style="fill:#fddd10;stroke:#bc8810;stroke-linecap:square;stroke-width:3.171999931335449px"/><path d="M575.75,524.79c-5.61-6.77-9.09-5.78-27.43,13.88-18.33,19.49-18.82,18.16-25.76,23.76" style="fill:#fddd10;stroke:#bc8810;stroke-width:3.171999931335449px"/><path d="M164.95,510.55c-.94.75-1.93,1.52-2.88,2.32-.8-1.24-1.52-2.46-2.3-3.7-.72.74-1.44,1.46-2.13,2.19-1.06-1.61-2.12-3.21-3.09-4.8.91-.76,1.74-1.51,2.68-2.25.79,1.23,1.63,2.45,2.43,3.69.8-.67,1.55-1.33,2.31-2,1,1.51,2,3,3,4.54Zm0,32.75c-.86-.63-1.72-1.21-2.58-1.82a6,6,0,0,1-1.24-1.25,10.16,10.16,0,0,1-1.75-3.62,25.13,25.13,0,0,1-.61-7.09,10.21,10.21,0,0,1-2.34,1,2.23,2.23,0,0,1-1.85-.22,10.09,10.09,0,0,1-1-.8l-2.24-2.19a24.74,24.74,0,0,1-1.77-1.86.88.88,0,0,1-.26-.75,7.61,7.61,0,0,1,1.81-2.66,9.38,9.38,0,0,1,2.54-2.33,5.62,5.62,0,0,1,1.94-.26c.57,0,1.32.07,2.35.13.31,0,.68,0,1.07.09v-.64c0-.23.05-.42.05-.6a6.09,6.09,0,0,1,.72-1.77,9.29,9.29,0,0,1,1.75-2.12c-.15,2.4-.21,4.86-.31,7.25s-.15,4.83-.15,7.24a15.84,15.84,0,0,0,.6,5.05,3.32,3.32,0,0,0,1.18,1.64q1.27.95,2.58,1.85c-.26,1.91-.41,3.81-.58,5.71Zm-6.13-17.39v-2.79a8.84,8.84,0,0,0-1-.21,9,9,0,0,0-1.85-.11,3.23,3.23,0,0,0-.87.22.7.7,0,0,0-.46.44,1.5,1.5,0,0,0,.52,1,12.55,12.55,0,0,0,1.34,1.14,1.81,1.81,0,0,0,.86.37,5.43,5.43,0,0,0,1.47,0Zm17.41-5.45a3.76,3.76,0,0,1-1,2.2c-.53.51-1.06.49-1.75,0a3,3,0,0,1-.61-.63,10,10,0,0,1-.56-.9,2.37,2.37,0,0,1-1,.57,1.45,1.45,0,0,1-1.44-.31,3.15,3.15,0,0,1-1.06-1.49,4.11,4.11,0,0,1-.05-1.94,2,2,0,0,1,.31-1c.15-.27.36-.58.6-.92.1,0,.31.08.41.11a1.18,1.18,0,0,1-.1.53c-.05.22-.1.45-.15.62a3,3,0,0,0,0,1,1,1,0,0,0,.41.75,1.07,1.07,0,0,0,1.59-.22,10,10,0,0,0,.94-1.66,3,3,0,0,1,.41.2v1.41a2,2,0,0,0,.57,1.22.93.93,0,0,0,1.41-.15,4.14,4.14,0,0,0,.68-1.47,3,3,0,0,1,.41.18v1a2.48,2.48,0,0,1-.1.91Zm-.2,30.6c-4.16-2.73-8.26-5.68-12.3-8.61.15-1.91.36-3.8.57-5.72,3.42,2.47,6.81,5,10.23,7.4a10.73,10.73,0,0,0-.46-3c-.15-.53-.57-1.44-1.18-2.85q1.09-2,2.28-3.91a19.23,19.23,0,0,1,1.48,5,28.16,28.16,0,0,1-.15,6.09q-.3,2.74-.46,5.5Zm-.53,3.48c-.84,1-1.56,2-2.32,2.91-1-1.23-1.85-2.47-2.8-3.68-.52.72-1.1,1.44-1.63,2.17-1.21-1.6-2.45-3.17-3.59-4.73.65-.89,1.41-1.77,2.13-2.64.9,1.19,1.92,2.44,2.9,3.66Q171,551.1,172,550,173.66,552.35,175.5,554.55Zm18.24,8.11a3.4,3.4,0,0,1-1.59,2.44,7.42,7.42,0,0,1-3.33,1.6,4.76,4.76,0,0,1-3.59-.52,17.65,17.65,0,0,1-3.85-3.4c-1.16-1.3-3-3.67-5.41-7l.86-.77c1.22,1.59,2.18,2.74,2.88,3.48a12.91,12.91,0,0,0,2.36,1.93,5.85,5.85,0,0,0,2.8.9,13.42,13.42,0,0,0,3.9-.65c2.39-.68,3.5-1.54,3.59-2.64a7.26,7.26,0,0,0-.41-2.59,20.25,20.25,0,0,0-1.48-3.68c.53-1.63,1.14-3.28,1.75-4.9a20.28,20.28,0,0,1,1.7,4.69,15,15,0,0,1,.31,4.77c-.21,2.08-.36,4.19-.46,6.31Zm19,8.42a6.48,6.48,0,0,1-3.22,5.47,5.62,5.62,0,0,1-5.95.38,14.58,14.58,0,0,1-3.77-3.06,77.77,77.77,0,0,1-6.06-8,6.93,6.93,0,0,1,.87-.67,34.45,34.45,0,0,0,3.52,4.17,11,11,0,0,0,2.62,1.83,7.92,7.92,0,0,0,4.05,1,10.52,10.52,0,0,0,4.91-1.76c-.6-.23-1.09-.45-1.48-.64a8.21,8.21,0,0,1-3.22-3,7,7,0,0,1-.86-4.26,9.33,9.33,0,0,1,1.92-5.26c1.26-1.57,2.58-1.94,3.87-1.24,1.13.59,2,1.83,2.54,3.74a16.28,16.28,0,0,1,.61,6c-.15,1.81-.26,3.58-.36,5.35Zm-2.2-5.49c-.21-2.42-.87-3.94-2-4.57-.46-.24-.74-.28-1.09,0a1.21,1.21,0,0,0-.46.91,2.6,2.6,0,0,0,.72,1.66,7.35,7.35,0,0,0,2.08,1.6l.8.43Zm12.6-16.91a4.35,4.35,0,0,1-.95,2.29,1.34,1.34,0,0,1-1.78.33,2.49,2.49,0,0,1-.65-.52,5.78,5.78,0,0,1-.64-.76,3.29,3.29,0,0,1-1,.69,1.64,1.64,0,0,1-1.48-.11,2.69,2.69,0,0,1-1.18-1.27,2.83,2.83,0,0,1-.15-1.86,2.15,2.15,0,0,1,.36-1c.15-.29.36-.6.52-1a3.24,3.24,0,0,1,.54.06c0,.11-.1.3-.15.52a3,3,0,0,0-.1.59,5.61,5.61,0,0,0,0,.93.85.85,0,0,0,.46.66,1.2,1.2,0,0,0,1.64-.38,9.2,9.2,0,0,0,.9-1.75,1.91,1.91,0,0,0,.46.11,4.25,4.25,0,0,0,.1,1.39,1.58,1.58,0,0,0,.72,1.09c.46.27,1,.11,1.36-.42a3.93,3.93,0,0,0,.64-1.56,3.47,3.47,0,0,0,.51.08v1a4.47,4.47,0,0,1-.05.86Zm15.56,35.89a26.65,26.65,0,0,1-3.9-2,20.88,20.88,0,0,1-3-2.36,6.23,6.23,0,0,1-2.2.2,14.12,14.12,0,0,1-2.91-1c-1.17-.5-2.27-1-3.39-1.46a5.18,5.18,0,0,1-2.16-1.81A11.93,11.93,0,0,1,219.7,573a3.76,3.76,0,0,1-2.65,1.17,6.59,6.59,0,0,1-2.91-.89l-2.91-1.53c.1-1.87.15-3.74.36-5.62,1,.5,1.94,1,3,1.54a4.92,4.92,0,0,0,3.68.71c1.36-.39,2.08-1.72,2.3-3.89.46.3.92.57,1.37.88a10.27,10.27,0,0,0-.2,1.45c-.05.56-.15,1.17-.21,1.85a3.16,3.16,0,0,0,.6,2.13,3.85,3.85,0,0,0,1.6,1.53l2.54,1.09a7.29,7.29,0,0,0,3.71.87c.95-.19,1.43-1,1.59-2.6a1,1,0,0,1,.36-.76,3.37,3.37,0,0,1,.84-.33l.83-.29v1.11a5.23,5.23,0,0,0,0,.91c-.1.75-.31,1.69-.58,2.85a12.49,12.49,0,0,0,1.7,1.39c.66.45,1.3.88,2,1.28a3.71,3.71,0,0,0-.36-2,4.2,4.2,0,0,1-.46-1.75,2.08,2.08,0,0,1,.2-.75c0-.07.26-.15.57-.42l1.9-1.6a15,15,0,0,1,.68,2.72,12,12,0,0,1,0,2.73c-.15,2.57-.36,5.17-.41,7.77Zm10.26,4q-5.9-2.19-11.69-4.66c0-1.86.1-3.73.2-5.61,3,1.29,6.07,2.5,9.09,3.7-.36-2.52-.54-5-.8-7.54s-.36-5-.46-7.51c-.51-.46-.88-.92-1.3-1.36a8.27,8.27,0,0,1,.68-2.31,17.11,17.11,0,0,1,2.13-3.16c.31.28.57.54.87.83a2.07,2.07,0,0,1-.1.64c-.15.45.15,1,.68,1.61a13.86,13.86,0,0,0,2.35,2.18c-.31.83-.54,1.66-.87,2.43a12.46,12.46,0,0,1-1.13,2c-.26-.2-.46-.38-.69-.58.1,2.28.31,4.58.51,6.88s.41,4.55.72,6.84c-.1,1.86-.1,3.75-.15,5.64Zm6.54-4a10.3,10.3,0,0,1-.56,3.23,22,22,0,0,1-1.78,3.54c-.51-.32-.87-.62-1.29-.93a22.36,22.36,0,0,0,.57-4.14v-3.79q0-2.51-.15-5c-.1-1.68-.31-3.7-.52-6.07a5.82,5.82,0,0,1,0-1.68,4.57,4.57,0,0,1,.87-2,27.84,27.84,0,0,1,2.26-3.12c.1,2.59.31,5.17.51,7.78.21,3,.26,5.49.26,7.59,0,1.63,0,3.17-.05,4.62Zm30.36-15.38q-1.44,1.63-2.8,3.32c-1-.8-2-1.6-2.84-2.4-.76,1-1.4,1.93-2.12,2.89-1.26-1-2.54-2-3.72-3.09.88-1.06,1.7-2.11,2.66-3.15.94.76,2,1.54,2.91,2.3.79-.92,1.51-1.85,2.3-2.76,1.18,1,2.4,1.93,3.6,2.88ZM289,599.61c-1-.19-1.9-.37-2.85-.59a3.91,3.91,0,0,1-1.44-.62,7.15,7.15,0,0,1-2.13-2.7,18,18,0,0,1-1.4-6.42,16.92,16.92,0,0,1-2.34,2,2.78,2.78,0,0,1-2.09.6,8.17,8.17,0,0,1-.91-.35c-.94-.39-1.86-.75-2.68-1.11a14.76,14.76,0,0,1-2-1,.72.72,0,0,1-.36-.63,10.36,10.36,0,0,1,1.63-3.19,15,15,0,0,1,2.39-3.22,8.64,8.64,0,0,1,2-1c.6-.24,1.49-.49,2.54-.85.36-.11.72-.27,1.09-.4v-1.17a4.88,4.88,0,0,1,.62-1.92,14.33,14.33,0,0,1,1.58-2.66c.1,2.26.26,4.53.36,6.76s.41,4.51.65,6.75a11.25,11.25,0,0,0,1.17,4.46,2.27,2.27,0,0,0,1.4,1c1,.21,1.94.37,2.88.55-.05,1.9-.05,3.8-.05,5.7Zm-8.15-13.67c0-.85-.15-1.73-.2-2.59a10,10,0,0,0-1.18.25,11,11,0,0,0-1.94.68,4.41,4.41,0,0,0-.94.58c-.31.22-.41.44-.41.58s.2.44.64.63a9.18,9.18,0,0,0,1.52.53,2.26,2.26,0,0,0,1,0,8.25,8.25,0,0,0,1.51-.63Zm17.76-13.36a5.17,5.17,0,0,1-.8,2.54A1.81,1.81,0,0,1,296,576a1.57,1.57,0,0,1-.76-.24c-.2-.11-.36-.28-.68-.5a6,6,0,0,1-.91,1,1.94,1.94,0,0,1-1.56.45,1.69,1.69,0,0,1-1.28-.78,3,3,0,0,1-.36-1.71,2.11,2.11,0,0,1,.36-1.06c.15-.32.36-.7.52-1.13a3.61,3.61,0,0,1,.46-.13,1.25,1.25,0,0,1-.1.54,3.63,3.63,0,0,0-.1.61,2.29,2.29,0,0,0,.1.86.63.63,0,0,0,.58.46,1.67,1.67,0,0,0,1.66-1,18.26,18.26,0,0,0,.8-2.05l.46-.06c.05.72.1,1.16.1,1.3.15.48.36.75.76.8.6.09,1-.23,1.44-.89a4.81,4.81,0,0,0,.61-1.71,4.59,4.59,0,0,0,.46-.08v1.84Zm2.77,29c-4.58-.55-9.11-1.36-13.7-2.26,0-1.9-.05-3.79,0-5.69,3.83.73,7.69,1.43,11.51,1.94a7.89,7.89,0,0,0-.8-2.56,18.38,18.38,0,0,0-1.51-2.11c.6-1.6,1.32-3.22,2-4.82a11.94,11.94,0,0,1,2.08,4.06,23.46,23.46,0,0,1,.41,5.91v5.53Zm-.2,3.69c-.83,1.34-1.52,2.67-2.24,4l-3.21-2.05c-.53,1-1.1,2-1.59,3-1.44-1-2.81-2-4.2-3,.68-1.19,1.44-2.42,2.09-3.62,1.1.75,2.19,1.49,3.36,2.24q.81-1.62,1.71-3.2c1.36.89,2.69,1.77,4.09,2.66ZM313.64,603c-4.59-.47-9.17-1-13.75-1.6v-5.77c3.86.49,7.68,1,11.55,1.38a9.07,9.07,0,0,0-.84-2.5c-.2-.4-.8-1.07-1.52-2,.57-1.6,1.29-3.25,1.9-4.9a11.77,11.77,0,0,1,2.12,3.94,22,22,0,0,1,.51,5.93V603Zm-2.06,4.25c-.83,1.49-1.66,3-2.42,4.45q-2.65-1.61-5.26-3.29c.76-1.5,1.55-3,2.46-4.51Q308.93,605.67,311.58,607.27Zm21.65-2.93a6.91,6.91,0,0,1-1.39,3.46,16,16,0,0,1-3.4,3.69,6.24,6.24,0,0,1-3.86,1.67,9.82,9.82,0,0,1-4.27-1.17A50.51,50.51,0,0,1,314,607.7a5.88,5.88,0,0,0,.87-1.22,21.2,21.2,0,0,0,3.3,2.07,6.55,6.55,0,0,0,2.66.61,5.93,5.93,0,0,0,3-.78,24.93,24.93,0,0,0,4.05-3c2.38-2.07,3.54-3.67,3.52-4.82a5.22,5.22,0,0,0-.68-2.25,8.59,8.59,0,0,0-2-2.7c.36-1.92.86-3.83,1.32-5.77a11.74,11.74,0,0,1,2.27,3.52,11.5,11.5,0,0,1,.8,4.42q0,3.27.15,6.58Zm16.2-1c-1.09.1-2.12.16-3.17.24a6,6,0,0,1-3.09-.47,4.73,4.73,0,0,1-2.24-2.2,7.6,7.6,0,0,1-3.67,2.48,10.59,10.59,0,0,1-3.3.49c-.8,0-1.47,0-2.27,0,0-1.94-.15-3.91-.1-5.86.76,0,1.48,0,2.27,0a14,14,0,0,0,2.58-.22,6.74,6.74,0,0,0,1.93-.88,8.86,8.86,0,0,0-1.1-1.81,1.51,1.51,0,0,0-1.17-.67.8.8,0,0,0-.53.17,6.15,6.15,0,0,0-.46.64l-.94-.11c0-2.6.41-4.47,1.39-5.63a5.52,5.52,0,0,1,4.32-1.82,8.5,8.5,0,0,1,4.81,1,3.38,3.38,0,0,1,1.66,3.14,6.26,6.26,0,0,1-.36,2.17,21.07,21.07,0,0,1-1.78,2.91,2.3,2.3,0,0,0,.87.58,2.39,2.39,0,0,0,1.07.16c1.06-.07,2-.13,3.13-.22.05,2,.1,4,.2,6Zm10.64-.93c-4.05.41-8.11.74-12.15,1-.05-2-.15-4-.2-5.95,3.14-.25,6.33-.47,9.47-.79-.51-2.43-1-4.86-1.44-7.28s-.84-4.82-1.18-7.27c-.41-.28-.94-.55-1.39-.82a11.42,11.42,0,0,1,.52-2.61,28.49,28.49,0,0,1,2-4.09,9.21,9.21,0,0,0,.91.35c0,.1-.1.33-.15.74s.31.88.87,1.25a9.78,9.78,0,0,0,2.49,1q-.31,1.43-.72,2.84a15.06,15.06,0,0,1-.91,2.52,3.81,3.81,0,0,1-.8-.2c.31,2.21.73,4.42,1.1,6.64s.88,4.44,1.33,6.67c0,2,.15,4,.2,6Zm6.33-7.21a16.89,16.89,0,0,1-.36,3.69,29.34,29.34,0,0,1-1.51,4.64c-.41-.14-.92-.28-1.33-.42a25.94,25.94,0,0,0,.2-4.64c-.05-.91-.15-2.23-.31-3.94s-.35-3.42-.6-5.13-.65-3.65-1.07-5.95a8.29,8.29,0,0,1-.15-1.67,6.32,6.32,0,0,1,.68-2.42q1-2.17,2.08-4.28.46,3.84,1.06,7.68c.46,2.91.69,5.44,1,7.6.2,1.68.31,3.29.36,4.84Zm28.77-31c-.92,1.6-1.67,3.2-2.49,4.8-1.07-.32-2.05-.67-3-1q-1,2-1.78,4c-1.33-.43-2.65-.86-3.94-1.3.76-1.49,1.55-3,2.38-4.5,1,.29,2.08.57,3.1.83.65-1.3,1.33-2.61,2-3.94C392.66,563.47,393.91,563.81,395.16,564.18Zm5.55,30.16-2.95.79a2.91,2.91,0,0,1-1.44,0,4,4,0,0,1-2.23-1.84,14.17,14.17,0,0,1-1.86-6.11c-1,1.55-1.7,2.66-2.2,3.31a4.14,4.14,0,0,1-1.93,1.66,4.18,4.18,0,0,1-1.07.1h-2.65c-1.17,0-1.89,0-2.16-.08a.43.43,0,0,1-.41-.49,18.87,18.87,0,0,1,1.36-4.14,23.68,23.68,0,0,1,2.12-4.45,16.39,16.39,0,0,1,1.86-2c.59-.53,1.32-1.19,2.34-2.09.36-.32.77-.66,1.18-1,0-.2-.1-.4-.1-.6v-.61a11.65,11.65,0,0,1,.36-2.26,19.28,19.28,0,0,1,1.37-3.55c.31,2.25.63,4.52,1,6.74s.68,4.51,1.14,6.75a9.73,9.73,0,0,0,1.51,4.13,1.37,1.37,0,0,0,1.44.39c1-.26,2-.53,3-.78,0,2,.2,4.05.36,6.08Zm-9.15-10.43q-.29-1.29-.51-2.59c-.41.33-.82.62-1.06.82a20.45,20.45,0,0,0-1.86,1.72,9.18,9.18,0,0,0-.87,1,2.16,2.16,0,0,0-.41.83c0,.22.31.33.76.33a5.35,5.35,0,0,0,1.47-.22,2.61,2.61,0,0,0,1-.53,11,11,0,0,0,1.44-1.41Zm16.32-22.31a7.45,7.45,0,0,1-.62,3,3.06,3.06,0,0,1-1.7,1.81,1.78,1.78,0,0,1-.68.09,2.44,2.44,0,0,1-.72-.17c-.36.64-.62,1.16-.87,1.5a3,3,0,0,1-1.48,1.18,1.18,1.18,0,0,1-1.33-.23,2.49,2.49,0,0,1-.36-1.65,3.27,3.27,0,0,1,.2-1.18,7.58,7.58,0,0,1,.46-1.39,4.07,4.07,0,0,0,.36-.32v1.28a1.46,1.46,0,0,0,.15.84.43.43,0,0,0,.57.19,2.8,2.8,0,0,0,1.51-1.78c.15-.43.41-1.28.72-2.47a2.45,2.45,0,0,1,.41-.29c.1.7.26,1.12.26,1.24a.54.54,0,0,0,.79.41,2.55,2.55,0,0,0,1.37-1.57,7.44,7.44,0,0,0,.46-2c.1-.08.26-.19.36-.28,0,.25.1.55.1.89v.92ZM413,590.7c-4.56,1.44-9.13,2.75-13.6,4-.1-2-.31-4.06-.36-6.1,3.75-1,7.53-2.19,11.36-3.33a6.39,6.39,0,0,0-1.06-2.34,9.72,9.72,0,0,0-1.6-1.6q.79-3,1.48-5.93a7.61,7.61,0,0,1,2.39,3.31,23.55,23.55,0,0,1,.91,6.05c.1,2,.36,4,.51,5.93Zm0,4.13c-.66,1.81-1.34,3.63-1.9,5.39-1.14-.32-2.24-.61-3.3-1-.46,1.36-1,2.7-1.4,4-1.44-.39-2.88-.76-4.28-1.17.61-1.65,1.22-3.3,1.86-5,1,.29,2.21.53,3.36.77.46-1.39,1-2.8,1.52-4.19,1.36.43,2.73.82,4.14,1.14Zm19.11-10.61a9.53,9.53,0,0,1-1.14,4.23,25.89,25.89,0,0,1-3.11,5.27,9.22,9.22,0,0,1-3.67,3.27,8.51,8.51,0,0,1-4.2.34,41.15,41.15,0,0,1-6.35-1.74c.26-.58.52-1.17.8-1.74a13.07,13.07,0,0,0,3.31.69,6.64,6.64,0,0,0,2.58-.46,7.42,7.42,0,0,0,2.88-2,40,40,0,0,0,3.75-4.75c2.19-3.14,3.15-5.31,3-6.52a5.05,5.05,0,0,0-.79-2.12,5.94,5.94,0,0,0-2.12-2.05c.26-2.18.46-4.37.78-6.59a7.61,7.61,0,0,1,2.46,2.77,10.49,10.49,0,0,1,1.13,4.38c.15,2.34.41,4.66.66,7Zm19.25-10.8c.31,2.6-.41,5.61-2.19,9.13s-3.64,5.64-5.64,6.56a7.38,7.38,0,0,1-4,.53,30.82,30.82,0,0,1-7-2l.76-1.66a11.37,11.37,0,0,0,4,.55,8.79,8.79,0,0,0,2.81-.77,12.08,12.08,0,0,0,3.94-3.07,32.57,32.57,0,0,0,4.39-6.91c-.61.35-1.06.64-1.44.81a3.56,3.56,0,0,1-3.49,0c-.94-.62-1.44-1.75-1.59-3.42a18.56,18.56,0,0,1,1-7.21c.86-2.73,2-4.43,3.26-5,1.14-.52,2.16-.11,3,1.17a11.12,11.12,0,0,1,1.67,5.37C450.91,569.53,451.12,571.48,451.32,573.42Zm-2.9-3.41c-.65-2.24-1.51-3.1-2.73-2.56a2,2,0,0,0-1,1,2.77,2.77,0,0,0-.26,1.39,1,1,0,0,0,1,1,4,4,0,0,0,2.23-.46l.83-.36Zm22.3-5q-2.12,1.16-4.25,2.28l-.9.53c-.36.21-.8.47-1.48.91a12.61,12.61,0,0,1,1.63.1,1.2,1.2,0,0,1,.91,1.14,13,13,0,0,1,0,2c0,.45-.2,1.21-.36,2.36A20,20,0,0,1,465.2,579a4.06,4.06,0,0,1-1.82,2.05,4.39,4.39,0,0,1-5.41-.59c-1.74-1.53-2.73-3.89-3.09-7l-4.77,2.24c-.2-2-.46-4.09-.61-6.14.61-.31,1.21-.58,1.89-.9a14,14,0,0,0,2.28-1.34c.85-.59,1.44-1.06,1.78-1.32a79.91,79.91,0,0,1,3.22-12c.9-2.3,1.86-3.7,2.66-4.14s1.41,0,2,1.29a9.77,9.77,0,0,1,1,3.48,11.94,11.94,0,0,1-.54,5,12.35,12.35,0,0,1-2.84,4.64c.94-.72,1.9-1.32,2.68-1.81s1.59-.93,2.31-1.32L470,558.9c.2,2,.51,4.07.73,6.1Zm-9.5-5.79a2.82,2.82,0,0,0-.53-1.24c-.31-.42-.57-.55-.83-.42a3.7,3.7,0,0,0-1.14,1.95,46.29,46.29,0,0,0-1.4,4.94,27.28,27.28,0,0,0,3.13-3.3,3.06,3.06,0,0,0,.76-1.93Zm2.54,14.68a2,2,0,0,0-1.63-1.68,9,9,0,0,0-4.8.44,3.45,3.45,0,0,0,2.23,2.46,4.34,4.34,0,0,0,3.67-.39A.82.82,0,0,0,463.74,573.89Zm24.34-19.1a21.38,21.38,0,0,1-5.15,2.21,17.36,17.36,0,0,1-4.7.82,10.42,10.42,0,0,1-2.61,4.18,10.55,10.55,0,0,1-2.27,1.59l-4.1,2.2c-.26-2-.53-4.07-.72-6.1q2.06-1.06,4.09-2.18a10.89,10.89,0,0,0,2.9-2.13,7.23,7.23,0,0,0,1.67-3.26,25.76,25.76,0,0,1,2.43-6.43,8.89,8.89,0,0,1,2.58-3.3c.64-.4,1.67.2,2.91,1.87a11.51,11.51,0,0,1,2.3,5.7c.2,1.62.41,3.22.66,4.84Zm-4.62-4.38c-.05-.32-.41-.7-1.11-1.15s-1.32-.6-1.78-.33-.9,1.28-1.13,2.84c.69-.11,1.29-.22,1.71-.3A8.69,8.69,0,0,0,483,551c.31-.18.46-.37.41-.58Zm26-9.58c-7.53,5.29-15.14,10.09-22.79,14.85-.26-2-.52-4-.78-6.05,4.77-2.94,9.48-5.86,14.22-8.84a12.14,12.14,0,0,0-4.91-1.17,8.73,8.73,0,0,0-4.66,1.74c-.31.22-.64.56-1.22,1a22.86,22.86,0,0,1,2-5.59,8.86,8.86,0,0,1,3-3.21,5.32,5.32,0,0,1,2.57-.83,7.83,7.83,0,0,1,3,.53c.84.3,2.14.75,3.81,1.52a7,7,0,0,0,2.49.81,6.73,6.73,0,0,0,2.48-.71c.2,2,.56,3.94.82,5.91Zm-6.58,9.93c-.61,2.22-1.17,4.37-1.75,6.54l-5.07.22q.93-3.24,1.76-6.51c1.74-.06,3.31-.14,5.06-.25Zm16-16.57c-3.64,2.54-7.23,5.08-10.82,7.6-.26-2-.57-3.94-.87-5.91,2.85-2,5.64-3.92,8.48-5.88-.79-2.14-1.51-4.28-2.24-6.46s-1.28-4.35-1.85-6.52c-.51,0-.91,0-1.37,0a13.86,13.86,0,0,1,.2-2.82,31.24,31.24,0,0,1,1.33-4.93,4.75,4.75,0,0,0,.91-.1v.76c0,.46.31.74.87.81a8.33,8.33,0,0,0,2.39-.19c-.1,1-.21,2-.36,3s-.34,1.92-.57,2.86c-.26.07-.53.11-.72.16q.85,3,1.78,5.92t2,5.86c.26,2,.59,3.92.9,5.85Zm4.89-10.28a18.22,18.22,0,0,1,.05,3.73A41.4,41.4,0,0,1,523,533c-.41.11-.84.2-1.26.29a28.27,28.27,0,0,0-.31-4.74c-.15-.88-.41-2.1-.72-3.69s-.78-3.12-1.18-4.63q-.73-2.63-1.62-5.22a4.92,4.92,0,0,1-.36-1.51,10.41,10.41,0,0,1,.41-2.66c.36-1.33.83-3,1.4-5,.53,2.24,1.12,4.49,1.74,6.74.7,2.57,1.33,4.82,1.82,6.8q.52,2.26.88,4.55Z" style="fill:#584500"/><path d="M262.68,375.53c-11.32,24.71-32.66,62.28-65.75,85.92-6.61,4.86-9.5,6.48-5,12.25,4.51,5.55,9,12.71,17.42,7.88,7.07-4.09,46-39.38,63.34-88.85q-5.19-8.37-10-17.2Zm13.47,22.57c-9.68,25.15-28.11,63-58.25,89.24-6.3,5.31-8.86,7.16-4.2,12.25,4.68,4.86,9.36,11.33,17.26,5.8,6.47-4.84,41.62-42.74,55.94-91.86q-5.53-7.48-10.75-15.43Z" style="fill:#bc8810;stroke:#fddd10;stroke-width:3.171999931335449px"/><path d="M296.34,412.61c-9.06,25.77-26.27,64-55.08,91.7-6.13,5.79-8.71,7.85-3.87,12.49s9.67,10.86,17.42,4.62c6.32-5,40.14-45.1,53.05-95q-5.91-6.64-11.53-13.78Zm17,19.79c-6.68,21.45-19.49,53-43.73,89.26-5,7.62-8.06,8.79-3.05,12.95s14.67,10.41,21.94,3.72c6-5.61,28.17-49.22,36.82-93.83q-6.09-5.83-12-12.1Z" style="fill:#bc8810;stroke:#fddd10;stroke-width:3.171999931335449px"/><path d="M407.79,375.52c11.32,24.71,32.66,62.28,65.75,85.92,6.61,4.86,9.5,6.48,5,12.25-4.51,5.55-9,12.71-17.42,7.88-7.07-4.09-46-39.38-63.34-88.85q5.19-8.37,10-17.2ZM394.32,398.1c9.68,25.15,28.11,63,58.25,89.24,6.3,5.31,8.86,7.16,4.2,12.25-4.68,4.86-9.36,11.33-17.26,5.8-6.47-4.84-41.62-42.74-55.94-91.86q5.53-7.48,10.75-15.43Z" style="fill:#bc8810;stroke:#fddd10;stroke-width:3.171999931335449px"/><path d="M335.23,410.7h-3.3s-2.26,53.63-15.16,83.45c-7.1,16.19-12.9,33.75-14,37-1.14,3-7.26,13.86,6.77,15.26,9.51.7,25.8.7,25.8.7l25.65-.7c14-1.39,7.91-12.25,6.77-15.26-1.14-3.23-6.95-20.81-14-37-12.9-29.83-15.16-83.44-15.16-83.44Z" style="fill:#bc8810;stroke:#fddd10;stroke-width:2.714458465576172px"/><path d="M374.13,412.6c9.06,25.77,26.27,64,55.08,91.7,6.13,5.79,8.71,7.85,3.87,12.49s-9.67,10.86-17.42,4.62c-6.32-5-40.14-45.1-53.05-95q5.91-6.64,11.53-13.78Zm-17,19.79c6.68,21.45,19.49,53,43.73,89.26,5,7.62,8.06,8.79,3.05,12.95S389.22,545,382,538.31c-6-5.61-28.17-49.22-36.82-93.83q6.09-5.83,12-12.1Z" style="fill:#bc8810;stroke:#fddd10;stroke-width:2.714458465576172px"/><path d="M364.11,10.74c-10.39,0-22.74,2.39-33.81,11-19.67,15-30.89,45.76-50.39,57.34h13.71s-10.24,22.64-18.34,27.42L289,108.8s-11.4,18.34-20.65,23l11.57,2.31s-18.18,36.53-27.43,41.15c0,0,5.12,20.65-9.25,25.28l16.2,34.37H412.92l16-32.06c-16-6.93-9.08-32.22-9.08-32.22l-9.25-16c-18.34-2.31-13.73-38.83-13.73-50.23,0-11.57-9.26-25.27-9.26-25.27,9.26-23,6.94-32.24,6.94-32.24,2.31-11.4,17.84-10.9,17.84-10.9-1-1.16-6.74-2.61-7.88-3.29L385.29,37l-2.21,3c2.56-1-8.71-2.58.82-6.74,7-6.87,3.73-18.58,3.73-18.58a71,71,0,0,0-23.52-4Z" style="fill:#fddd10;stroke:#bc8810;stroke-width:3.174999952316284px"/><path d="M364.1,15.15A66,66,0,0,1,386,18.89l1,.4,1.08-.11a42.91,42.91,0,0,1,10.52.51,18.94,18.94,0,0,1,6.9,2.58,6.48,6.48,0,0,1,3.09,4.66s-14.64,3-15.33,3.27L385.29,37l19.24-4.43c-.53.13-.91.11-1.46.29-5,1.56-11.26,5.47-12.81,13.07l-.2,1,.25,1s.42,1.22-.11,5.94-2.15,12.38-6.65,23.55l-.89,2.19L384,81.53a64.93,64.93,0,0,1,4.3,7.74c2.18,4.57,4.2,10.47,4.2,15.07,0,5.1-1.2,17.5,0,29,.6,5.73,1.77,11.37,4.37,16.13a18.07,18.07,0,0,0,10.81,8.85l7.53,13A47.81,47.81,0,0,0,414,184.26a31.57,31.57,0,0,0,2.81,12.48,20.9,20.9,0,0,0,6.4,7.74l-13,26h-148L249,202.33a18,18,0,0,0,5.56-5.47,24.17,24.17,0,0,0,3.11-10.34,37.07,37.07,0,0,0-.37-9.51,40.22,40.22,0,0,0,6.95-7.54c3.15-4.29,6.35-9.39,9.25-14.32,5.79-9.87,10.39-19.11,10.39-19.11l2.58-5.17-7.73-1.54a92.42,92.42,0,0,0,6.92-8.08c4.16-5.36,7.12-10.12,7.12-10.12l3.49-5.6-11.6-2a91.9,91.9,0,0,0,6.7-10.42c3.7-6.47,6.32-12.28,6.32-12.28l2.83-6.25h-8.15c6-6,11.25-13.14,16.34-20.4,7.74-11.05,15.32-22.11,24.33-29h0c10.07-7.85,21.36-10.06,31.06-10Z" style="fill:#fddd10"/><path d="M325.4,74.71c1.3-4.26,2.87-8.32,4.59-12.47l1.14-2.72-2.48,1.6c-7.07,4.52-15.36,10.26-21.71,14.07C309,72.25,311.55,69,314,65.89c3.38-4.33,6.56-8.46,8.05-11.7l1.29-2.8a81.39,81.39,0,0,0-16,12.66c4-1.81,7.72-4.8,11.06-7.22-1.56,2.37-3.66,5.1-5.86,7.93a143.1,143.1,0,0,0-9.3,12.69l-1.76,2.9,3-1.62c6.07-3.29,14.9-9.39,22.7-14.46a115.21,115.21,0,0,0-4.55,13.41l-.86,3.26,2.41-2.36a130,130,0,0,0,17.68-21.32C336.28,62.63,330.92,69,325.4,74.71Zm38.35-1.21c-.61,1.5-1.17,2.92-1.66,4.07a44.74,44.74,0,0,0-3-12.39c.59,5.81,1.3,9.63,1.39,15a1.27,1.27,0,0,0,.2.93,1.16,1.16,0,0,0,1,.49,1,1,0,0,0,.66-.32,4.41,4.41,0,0,0,.89-1.5c.6-1.32,1.38-3.38,2.32-5.62a101.89,101.89,0,0,1,5-11.18C366.74,65.32,365.32,69.63,363.75,73.5ZM345,72.83a28.06,28.06,0,0,1-3.32,3.61c.05-4.47.23-11.26.23-11.26s-2.08,6.78-2.08,11.56a2.4,2.4,0,0,0,.18,1,1.4,1.4,0,0,0,.95.79,2,2,0,0,0,1.85-.64A25.74,25.74,0,0,0,346.41,74a94,94,0,0,0,6.87-10c-3.2,2.34-5.63,5.53-8.31,8.81ZM375,69.77c-.6,2.84-.95,6.46,1.19,9.29a35.56,35.56,0,0,1,.62-8.92,52.42,52.42,0,0,1,1.46-5.33A9.94,9.94,0,0,0,375,69.77ZM362.3,80.36S362.31,80.39,362.3,80.36ZM378,86.24l-1.4,2.62q-4.17,7.75-8.34,15.48l-6-14.24-.75-1.75L360.53,90c-2.43,4.32-7.56,10.52-9.53,12.82-3.78-5.38-10.76-14.1-10.76-14.1l-.8-1-.71,1.08q-4.95,7.61-9.88,15.23c-2.76-2.16-4.9-6.47-5.6-12.51l-.37-3.15-1.39,2.86c-1.4,2.89-5.43,7.22-9.05,10.71q-2.9,2.76-5.94,5.37-3.13-7.44-6.28-14.87L299,89.64c-.57,4.64-3.39,9-5.45,12.42a13.77,13.77,0,0,0,5.89-6.6l5.8,13.74.49,1.15,1-.79s3.3-2.73,7-6.27a63.93,63.93,0,0,0,8.08-9c1.09,5.63,3.48,9.75,6.82,11.82l.77.49.5-.76q4.86-7.48,9.7-14.95c2.1,2.66,7.78,9.91,10.56,14l.67,1,.78-.9a121.2,121.2,0,0,0,9.58-12.45q3,7.18,6.06,14.35l.75,1.79.92-1.71q4-7.41,8-14.8c1,4.17,2.67,9.4,6.27,11-3.58-6.1-4.51-11-5.19-17Zm-89.66,36.69c.14,1.32.35,3,.62,4.84s.66,4,1.1,5.78a13.7,13.7,0,0,0,1.66,4.37l.57.82.77-.63a71.51,71.51,0,0,0,6.51-6.21c2.9-3.13,6-7,7.14-10.86q2.16,2.17,4.29,4.37a91.73,91.73,0,0,1,7.13,8l.54.81.78-.56s7.54-5.46,10-14.59c.89,2.5,1.84,5.59,2.73,8.55,1.29,4.3,2.43,8.3,3,10l.47,1.36,1-1a50.31,50.31,0,0,0,5.55-6.48A33,33,0,0,0,348,119.86c1.31,2.76,2.65,6.1,4.05,9.2,1.87,4.12,3.77,7.85,6.62,9.17l.62.29.46-.51a47.45,47.45,0,0,0,9.89-19c1.32,3.3,2.3,6.05,3.32,8.39a19.54,19.54,0,0,0,5,7.37l1,.9.45-1.29c1.94-5.43,3.28-11.35,5.41-16.31a17.42,17.42,0,0,0,5.12,10.23c-2.88-6.28-3.51-11.08-3.56-17.22l-1.71,3.05c-3,5.43-4.5,12.21-6.52,18.27a20.55,20.55,0,0,1-3.51-5.74c-1.26-2.88-2.51-6.55-4.49-11.27l-1.31-3.13-.47,3.36c-1.39,10.1-7.7,18.38-9.52,20.57-1.64-1.21-3.47-4.3-5.12-7.9-1.83-4-3.55-8.63-5.43-11.85l-1.54-2.64-.2,3c-.32,4.9-3.07,9.91-5.78,13.66a49.23,49.23,0,0,1-4.28,5.15c-.62-2-1.53-5.19-2.54-8.54a123.48,123.48,0,0,0-4-11.73l-1.38-3.2-.39,3.46c-1,8.32-7,14.16-9.15,16-1.51-2-4.21-4.85-6.74-7.47q-2.72-2.82-5.51-5.57l-1.3-1.29-.27,1.81c-.52,3.54-3.82,8.07-7,11.57a71.09,71.09,0,0,1-5.46,5.29,20.67,20.67,0,0,1-.9-2.83c-.42-1.7-.78-3.72-1.06-5.62-.57-3.8-.86-7.2-.86-7.2l-.21-2.53c-2.41,3.4-5,7-6.33,10.55a19.39,19.39,0,0,0,4.94-5.37Zm97.13,35.6c-2.24-3.81-5.44-10.73-7.2-14.59l-.9-1.94-.81,2a131.78,131.78,0,0,1-8.5,17.11,66.27,66.27,0,0,1-4.85-8.7c-1.85-3.84-3.29-7.25-3.29-7.25l-.7-1.63-1,1.5q-6.59,10.43-13.21,20.85c-2.26-1.64-4.28-4.78-5.94-8.28-1.83-3.89-3.29-8.2-4.47-11.4l-1.19-3.2-.59,3.37c-1.11,6.35-5.45,14.76-7.22,18a59.79,59.79,0,0,1-3.71-8.87c-1.27-3.73-2.13-6.9-2.13-6.9l-.58-2.18-1.12,2c-3.78,6.71-5.06,9.88-11.85,18.4a119.81,119.81,0,0,1-5.59-10.83c-2.14-4.59-3.87-8.63-3.87-8.63l-1.08-2.53-.67,2.66a66.43,66.43,0,0,1-5.46,12.92,19.08,19.08,0,0,1-4,5.26,2.48,2.48,0,0,1-1.48.67,1.41,1.41,0,0,1-1.16-.71c-4.4-5.51-6.5-13.3-6.5-13.3s.21,8.4,5.06,14.46a3.36,3.36,0,0,0,2.58,1.39,4.3,4.3,0,0,0,2.64-1,19.91,19.91,0,0,0,4.46-5.83,70.52,70.52,0,0,0,4.9-11c.71,1.61,1.74,3.93,2.89,6.38,2.15,4.62,4.66,9.75,6.46,12.16l.72,1,.75-.93a95.46,95.46,0,0,0,11.72-17.71c.38,1.27.92,3,1.55,4.85,1.29,3.79,3,8.14,4.75,10.65l.83,1.17.73-1.23s5.23-8.84,7.49-16.88c1,2.66,2.1,5.72,3.47,8.61,1.91,4,4.24,7.77,7.45,9.59l.76.44.48-.75,12.77-20.16q1.27,2.88,2.63,5.72c1.87,3.88,4.07,8.15,6,10.12l.79.84.64-1a116.42,116.42,0,0,0,8.52-16.54c2.09,4.53,5.19,11.08,7.3,14.24l.82,1.23.75-1.28c3-5.23,5-9.6,4.81-16.5a62,62,0,0,1-5.65,14.22Z" style="fill:#bc8810;stroke:#bc8810;stroke-width:1.0759999752044678px"/><path d="M347,44A55.91,55.91,0,0,0,354.74,33c3.64-6.93,12.55-2.15,19.83-2.65-1.15-.33-2.15.33-2.15,1.16,0,4.8-2.65,10.57-8.25,11.4-5.12.66-9.91-1.17-14.87-.83-.84,0-1.5,1.15-2.33,2Z" style="fill:#fff"/><g style="clip-path:url(#a)"><path d="M365.32,39.4a5.72,5.72,0,0,0,5.62-5.78,5.62,5.62,0,1,0-11.25,0A5.73,5.73,0,0,0,365.32,39.4Z" style="fill:#584500"/></g><path d="M361.79,28.24a10.89,10.89,0,0,0-3.75.58,7.37,7.37,0,0,0-4.11,3.71c-3,6-7,9.46-9.06,14.79,1.57-1.34,3-3,4.43-4.33h.07c4.69-.31,9.52,1.53,14.92.83h0a9.72,9.72,0,0,0,6.84-4.6,14.6,14.6,0,0,0,2.12-7.53c1.8-.32,3.15-1.49,4.77-2.57-4.9,1.23-10.27-.44-14.66-.8q-.8-.07-1.6-.07Zm0,1.86c.46,0,.94,0,1.42.06,2.52.18,5.36.82,8.2,1a2,2,0,0,0,0,.34,12.87,12.87,0,0,1-1.83,6.66A7.69,7.69,0,0,1,364,42c-4.39.56-8.74-.88-13.41-.88a60.32,60.32,0,0,0,4.94-7.67h0a5.47,5.47,0,0,1,3.09-2.84A9.76,9.76,0,0,1,361.82,30.09Z" style="fill:#bc8810;stroke:#bc8810"/><path d="M253.46,193.07s12.06-19,0-38,8.93-20,6.61-32.71c-2.15-12.55-17.51-61.3-73.69-59.14-56.35,2.15-96,42.29-105.92,48.58-9.91,6.45-20.82,15.87-27.42,3.3,0,0-4.46,10.56,1,16.85,5.62,6.12,12.23,10.41,22.14,6.12,0,0-23.13,33.87-25.46,44.45-2.14,10.56-3.3,10.56-12.06,7.42,0,0,1.16,9.59,6.61,10.57,5.44,1.16,13.22,5.29,18.67-3.13,0,0-9.91,23.3-6.61,37,4.46,18-1,34.87-5.44,38.18,0,0,17.68,4.15,26.44-7.44,0,0-1.17,57.19-16.52,75,0,0,17.68,7.42,25.28-4.15,0,0-13.22,80.3-76,196.79,0,0,21,7.27,37.51-25.46,0,0,18.67,6.28,33-25.45,0,0,35.19,1.16,46.26-53.87,0,0,23.14,5.29,33.05-29.57l29.74-32.89s19.91,7.53,29.74-29.57c6.32-23.85,10.25-39.53,13.54-81.85,8.69,24.56,15.83,4,17.39-2,6.13-23.59,2.11-59,2.11-59Z" style="fill:#fddd10;stroke:#bc8810;stroke-width:3.174999952316284px"/><path d="M76.17,138.06c5.44-6.12,54.87-56.69,108.9-56.69m-4.32,19.84s-44.94,4-76,35.85a218.56,218.56,0,0,0-40.81,60.32" style="fill:#fddd10;stroke:#bc8810;stroke-width:3.174999952316284px"/><path d="M178.61,118.22s-32.22,7.27-56.18,26.27c-13.22,10.58-35.36,37-38.67,57.19-3.3,20-5.44,52.87-5.44,63.44" style="fill:#fddd10;stroke:#bc8810;stroke-width:3.174999952316284px"/><path d="M178.47,136.06c-5.62,2.14-27.94,8.77-47.27,24.3-13.22,10.56-28.59,31.71-30.9,68.73-2.14,37,1.16,66.59-13.22,106.9" style="fill:#fddd10;stroke:#bc8810;stroke-width:3.174999952316284px"/><path d="M183.08,152.92c-8.92,4.29-58.49,15.86-64,80.46-5.62,64.44-6.62,107.89-24.29,155.49C81.61,424.39,48.56,507.34,48.56,507.34" style="fill:#fddd10;stroke:#bc8810;stroke-width:3.174999952316284px"/><path d="M81.62,481.91s32.89-71.71,44.12-117.32c13.22-54,13.72-109.06,14.38-123.76,1-29.73,2.15-49.73,41.81-64.61" style="fill:#fddd10;stroke:#bc8810;stroke-width:3.174999952316284px"/><path d="M186.37,194.23c-6.61,1-26.1,7.43-25.44,52.88,1.16,75.18-29.58,172.51-33.05,180.93M198.3,212.23c-4.46,1.17-17-1.13-16.38,35.87,1.16,59.33-14.38,124.93-21,150.37M212.5,238.83s-2,61.15-21.83,126.75" style="fill:#fddd10;stroke:#bc8810;stroke-width:3.174999952316284px"/><path d="M268.82,219.52s-10.9-37-30.73-41.15,3.3-18-12.06-27.59c0,0,14.21-18.85,10.91-33.72-3.3-14.71-9.59-36.68-38.5-42.29-9.69-1.88-9.51-4.68-8.76-11.35-.79-.19-.53-.27-3.3-.22-1.19,9.7-2.31,23.3-4.46,30.74-2.15,7.27-9.91,51.55,1.16,59,0,0-4.46,28.58,1,38.17,5.62,9.42,11.07,25.27,19.83,27.43,0,0,2.32,38.17,39.66,38.17l.66-6Z" style="fill:#fddd10;stroke:#bc8810;stroke-width:3.174999952316284px"/><path d="M416.55,193.07s-12-19,0-38-8.92-20-6.61-32.71c2.15-12.55,17.52-61.3,73.68-59.14,56.35,2.15,96,42.29,105.94,48.58,9.91,6.45,20.81,15.87,27.42,3.3,0,0,4.45,10.56-1,16.85-5.63,6.12-12.25,10.41-22.15,6.12,0,0,23.13,33.87,25.45,44.45,2.15,10.56,3.3,10.56,12,7.42,0,0-1.16,9.59-6.61,10.57-5.43,1.16-13.21,5.29-18.66-3.13,0,0,9.91,23.3,6.6,37-4.46,18,1,34.87,5.46,38.18,0,0-17.68,4.15-26.44-7.44,0,0,1.16,57.19,16.51,75,0,0-17.68,7.42-25.27-4.15,0,0,13.22,80.3,76,196.79,0,0-21,7.27-37.51-25.46,0,0-18.66,6.28-33-25.45,0,0-35.21,1.16-46.26-53.87,0,0-23.14,5.29-33.06-29.57l-29.73-32.89s-19.9,7.53-29.72-29.57c-6.33-23.85-10.24-39.53-13.55-81.85-8.69,24.56-15.83,4-17.39-2-6.12-23.59-2.11-59-2.11-59Z" style="fill:#fddd10;stroke:#bc8810;stroke-width:3.174999952316284px"/><path d="M593.83,138.06c-5.45-6.12-54.88-56.69-108.9-56.69m4.3,19.84s44.95,4,76,35.85a218.47,218.47,0,0,1,40.81,60.32" style="fill:#fddd10;stroke:#bc8810;stroke-width:3.174999952316284px"/><path d="M491.38,118.22s32.23,7.27,56.18,26.27c13.22,10.58,35.37,37,38.67,57.19,3.3,20,5.45,52.87,5.45,63.44" style="fill:#fddd10;stroke:#bc8810;stroke-width:3.174999952316284px"/><path d="M491.53,136.06c5.63,2.14,27.94,8.77,47.27,24.3,13.22,10.56,28.59,31.71,30.91,68.73,2.15,37-1.17,66.59,13.21,106.9" style="fill:#fddd10;stroke:#bc8810;stroke-width:3.174999952316284px"/><path d="M486.93,152.92c8.92,4.29,58.49,15.86,64,80.46,5.63,64.44,6.61,107.89,24.29,155.49,13.22,35.52,46.27,118.47,46.27,118.47" style="fill:#fddd10;stroke:#bc8810;stroke-width:3.174999952316284px"/><path d="M588.39,481.91S555.5,410.2,544.27,364.59c-13.22-54-13.73-109.06-14.38-123.76-1-29.73-2.15-49.73-41.8-64.61" style="fill:#fddd10;stroke:#bc8810;stroke-width:3.174999952316284px"/><path d="M483.63,194.23c6.61,1,26.1,7.43,25.45,52.88-1.16,75.18,29.59,172.51,33.06,180.93M471.71,212.23c4.46,1.17,17-1.13,16.38,35.87-1.16,59.33,14.38,124.93,21,150.37M457.5,238.83s2,61.15,21.83,126.75" style="fill:#fddd10;stroke:#bc8810;stroke-width:3.174999952316284px"/><path d="M401.18,219.52s10.92-37,30.74-41.15-3.3-18,12.05-27.59c0,0-14.19-18.85-10.9-33.72,3.3-14.71,9.58-36.68,38.48-42.29,9.69-1.88,9.52-4.68,8.75-11.35.8-.19.53-.27,3.31-.22,1.19,9.7,2.31,23.3,4.46,30.74,2.15,7.27,9.91,51.55-1.16,59,0,0,4.46,28.58-1,38.17-5.62,9.42-11.07,25.27-19.83,27.43,0,0-2.31,38.17-39.66,38.17l-.65-6Z" style="fill:#fddd10;stroke:#bc8810;stroke-width:3.174999952316284px"/><path d="M247.79,339.67,238,344.09a22.21,22.21,0,0,0-6.89,11.31,27.63,27.63,0,0,0,12.79-.49c6.39-2,9.35-4.92,9.35-4.92Zm5.87,11.74-9.84,4.42a22.27,22.27,0,0,0-6.89,11.32,27.54,27.54,0,0,0,12.79-.5c6.39-2,9.35-4.92,9.35-4.92Zm5.87,12.27-9.84,4.42a22.24,22.24,0,0,0-6.89,11.31,27.6,27.6,0,0,0,12.79-.49c6.39-2,9.34-4.93,9.34-4.93Zm6.36,12.82-9.84,4.43a22.19,22.19,0,0,0-6.89,11.31,27.58,27.58,0,0,0,12.79-.49c6.39-2,9.34-4.92,9.34-4.92Zm7.35,12.71-9.84,4.42a22.17,22.17,0,0,0-6.89,11.31,27.5,27.5,0,0,0,12.79-.5c6.39-2,9.34-4.92,9.34-4.92Z" style="fill:#fddd10;stroke:#bc8810;stroke-width:3.171999931335449px"/><path d="M246.14,344.45l2.35,4.5a26.52,26.52,0,0,1-5.72,2.45,21,21,0,0,1-6.57.84,16.93,16.93,0,0,1,3.74-5ZM252,356.19l2.35,4.49a25.77,25.77,0,0,1-5.72,2.45,20.78,20.78,0,0,1-6.57.84,16.75,16.75,0,0,1,3.73-5Zm5.87,12.27,2.35,4.49a26,26,0,0,1-5.71,2.46,21.47,21.47,0,0,1-6.59.84,16.78,16.78,0,0,1,3.75-5Zm6.36,12.82,2.35,4.49a26.65,26.65,0,0,1-5.71,2.45,20.84,20.84,0,0,1-6.57.85,16.66,16.66,0,0,1,3.74-5ZM271.6,394l2.35,4.49a26.17,26.17,0,0,1-5.72,2.45,21.37,21.37,0,0,1-6.57.84,16.66,16.66,0,0,1,3.73-5Z" style="fill:#fddd10"/><path d="M421.73,339.67l9.84,4.42a22.22,22.22,0,0,1,6.89,11.31,27.63,27.63,0,0,1-12.79-.49c-6.39-2-9.35-4.92-9.35-4.92Zm-5.87,11.74,9.84,4.42a22.26,22.26,0,0,1,6.89,11.32,27.54,27.54,0,0,1-12.79-.5c-6.39-2-9.35-4.92-9.35-4.92ZM410,363.68l9.84,4.42a22.24,22.24,0,0,1,6.89,11.31,27.61,27.61,0,0,1-12.79-.49c-6.39-2-9.34-4.93-9.34-4.93Zm-6.36,12.82,9.84,4.43a22.19,22.19,0,0,1,6.89,11.31,27.57,27.57,0,0,1-12.79-.49c-6.39-2-9.34-4.92-9.34-4.92Zm-7.35,12.71,9.84,4.42A22.17,22.17,0,0,1,413,404.94a27.51,27.51,0,0,1-12.79-.5c-6.39-2-9.34-4.92-9.34-4.92Z" style="fill:#fddd10;stroke:#bc8810;stroke-width:3.171999931335449px"/><path d="M423.38,344.44l-2.35,4.5a26.45,26.45,0,0,0,5.72,2.45,20.94,20.94,0,0,0,6.58.84,16.9,16.9,0,0,0-3.74-5Zm-5.88,11.74-2.35,4.49a25.79,25.79,0,0,0,5.71,2.45,20.82,20.82,0,0,0,6.58.84,16.74,16.74,0,0,0-3.73-5Zm-5.87,12.27-2.35,4.49a26,26,0,0,0,5.72,2.46,21.44,21.44,0,0,0,6.58.84,16.8,16.8,0,0,0-3.75-5Zm-6.36,12.82-2.35,4.49a26.74,26.74,0,0,0,5.72,2.45,20.83,20.83,0,0,0,6.58.85,16.67,16.67,0,0,0-3.74-5ZM397.92,394l-2.35,4.49a26.23,26.23,0,0,0,5.71,2.45,21.4,21.4,0,0,0,6.58.84,16.66,16.66,0,0,0-3.73-5Z" style="fill:#fddd10"/><path d="M387.63,178.46l48.63,64.21c13.48,87.63-23.27,164.53-101,214-77.66-49.53-114.33-126.47-100.87-214l48.46-64.23H387.62Z" style="fill:#bc8810;stroke:#bc8810;stroke-width:6.334000110626221px"/><path d="M432.4,244.29c12.7,84.92-22.32,159-97.17,207.59-74.75-48.66-109.7-122.72-97-207.59l46.62-61.79H385.6Zm-144-52.94L287.14,193,244.74,248.9l-.15,1C233,326.6,265.18,394.32,333.07,437.67l2.18,1.39,2.18-1.39c68-43.32,100.27-111,88.64-187.76l-.14-1-43.79-57.55H288.36Z" style="fill:#fddd10"/><path d="M219.72,400.11s-27.11-15.2-15.54-23C214.6,370.38,220.87,389.2,219.72,400.11Z" style="fill:#fddd10;stroke:#bc8810;stroke-width:3.171999931335449px"/><path d="M208.4,379.5a2.4,2.4,0,0,1,1.08.33,9.35,9.35,0,0,1,3.38,3.95,30.41,30.41,0,0,1,2.74,9.08,59.48,59.48,0,0,1-5.39-4.22c-2.44-2.18-4.34-4.59-4.83-6a1.74,1.74,0,0,1-.14-1.17c.06-.2.2-.55,1.1-1.17a4.26,4.26,0,0,1,2.08-.84Z" style="fill:#fddd10"/><path d="M227.15,414s-19.83-23.64-1.81-38.34C225.34,375.66,239.88,388.71,227.15,414Z" style="fill:#fddd10;stroke:#bc8810;stroke-width:3.171999931335449px"/><path d="M225,381.4a22.55,22.55,0,0,1,2.33,5.12c1.44,4.49,2.09,10.85-.94,19.48a41.33,41.33,0,0,1-3.24-6.92,22.25,22.25,0,0,1-1.3-10.61A14.22,14.22,0,0,1,225,381.4Z" style="fill:#fddd10"/><path d="M227.15,414s-5-23.79-31.72-20.33C195.43,393.66,204,418.45,227.15,414Z" style="fill:#fddd10;stroke:#bc8810;stroke-width:3.171999931335449px"/><path d="M201.39,397.18c8.73.15,13.66,3.86,17,7.82a25.7,25.7,0,0,1,3.54,5.67c-7.58.11-12.63-3.54-16.4-7.77a33.76,33.76,0,0,1-4.11-5.73Z" style="fill:#fddd10"/><path d="M232.27,427.71s-2.47-22.65-28.92-19.17C203.36,408.54,206.5,425.89,232.27,427.71Z" style="fill:#fddd10;stroke:#bc8810;stroke-width:3.171999931335449px"/><path d="M209,412c8.63,0,12.93,3.47,15.67,7.12a20.38,20.38,0,0,1,2.32,4c-8.41-1.58-13.09-5.07-15.88-8.25a19.94,19.94,0,0,1-2.13-2.86Z" style="fill:#fddd10"/><path d="M234.09,427s-18.67-21.8-.66-36.51C233.43,390.53,249.13,406.72,234.09,427Z" style="fill:#fddd10;stroke:#bc8810;stroke-width:3.171999931335449px"/><path d="M233,396.36a25.74,25.74,0,0,1,2.71,6,22.23,22.23,0,0,1-1.76,17.75,36,36,0,0,1-3.26-7,20,20,0,0,1-.95-9.92A14.68,14.68,0,0,1,233,396.36Z" style="fill:#fddd10"/><path d="M239.88,439.1s-3.14-20.32-29.58-16.85C210.3,422.25,216.58,443.73,239.88,439.1Z" style="fill:#fddd10;stroke:#bc8810;stroke-width:3.171999931335449px"/><path d="M216.32,425.7c8.53,0,13,3.09,15.78,6.23a18.66,18.66,0,0,1,2.64,3.95c-7.73.42-12.32-2.66-15.55-6.11a24.29,24.29,0,0,1-3.06-4.07h.19Z" style="fill:#fddd10"/><path d="M240.87,440.92s-18.67-22-.66-36.69c0,0,14.53,13.06.66,36.69Z" style="fill:#fddd10;stroke:#bc8810;stroke-width:3.171999931335449px"/><path d="M239.85,410a21.47,21.47,0,0,1,2.19,4.89c1.32,4.33,1.8,10.35-1.66,18.47a35.45,35.45,0,0,1-2.92-6.45,20.34,20.34,0,0,1-.94-10A14.56,14.56,0,0,1,239.85,410Z" style="fill:#fddd10"/><path d="M249.63,453.48s-19.33-20.82-1.33-35.36C248.3,418.12,263.18,429.36,249.63,453.48Z" style="fill:#fddd10;stroke:#bc8810;stroke-width:3.171999931335449px"/><path d="M248.14,423.59a17.62,17.62,0,0,1,2.24,4.44c1.38,4,2,9.76-1.45,18.06a33.81,33.81,0,0,1-3.09-6.16,18.32,18.32,0,0,1-1.12-9.46A13.61,13.61,0,0,1,248.14,423.59Z" style="fill:#fddd10"/><path d="M249.63,453.48s-4.8-20.82-31.23-17.36c0,0,7.93,22,31.23,17.36Z" style="fill:#fddd10;stroke:#bc8810;stroke-width:3.171999931335449px"/><path d="M241.11,446.17a21,21,0,0,1,3,4.1A20.47,20.47,0,0,1,228,443.81C218.58,434.7,238,442.91,241.11,446.17Z" style="fill:#fddd10"/><path d="M257.06,466.7s-4.13-20.16-33-19.17C224,447.53,233.76,471.16,257.06,466.7Z" style="fill:#fddd10;stroke:#bc8810;stroke-width:3.171999931335449px"/><path d="M230.79,451.58c9.29.89,14.55,4.39,17.79,7.82a21.77,21.77,0,0,1,3,4c-7.69.12-13-3.37-17-7.35A33.29,33.29,0,0,1,230.79,451.58Z" style="fill:#fddd10"/><path d="M258.71,465.55s-18.84-11.4-3-36C255.74,429.52,267.14,440.26,258.71,465.55Z" style="fill:#fddd10;stroke:#bc8810;stroke-width:3.171999931335449px"/><path d="M255.94,437.06c.25.63.5,1.35.75,2.13,1.28,4.17,2,10.4,0,19.19a19.07,19.07,0,0,1-1.93-3.23c-1.84-4-2.83-9.67,1.15-18.08Z" style="fill:#fddd10"/><path d="M269,478.76s-6.61-18.65-32.88-15.2C236.08,463.56,241.53,482.23,269,478.76Z" style="fill:#fddd10;stroke:#bc8810;stroke-width:3.171999931335449px"/><path d="M242.54,467c8.58,0,13.85,2.85,17.32,5.81a21.68,21.68,0,0,1,2.52,2.54c-9,0-14.26-2.85-17.58-5.78a20.86,20.86,0,0,1-2.45-2.57Z" style="fill:#fddd10"/><path d="M269,478.76s-22.64-19.66-4.8-34.19C264.16,444.56,280.35,454.63,269,478.76Z" style="fill:#fddd10;stroke:#bc8810;stroke-width:3.171999931335449px"/><path d="M264.3,449.74a17.93,17.93,0,0,1,3,4.53c1.8,3.78,3,9.28.29,17.47a34.64,34.64,0,0,1-4.3-6.39,16.52,16.52,0,0,1-2.08-8.94A11.27,11.27,0,0,1,264.3,449.74Z" style="fill:#fddd10"/><path d="M284.32,490.83S270.61,472.48,245,477.28C245,477.28,263.18,496.11,284.32,490.83Z" style="fill:#fddd10;stroke:#bc8810;stroke-width:3.171999931335449px"/><path d="M255,480.35a35.77,35.77,0,0,1,20.77,7.49C267.61,487.55,260.18,483.79,255,480.35Z" style="fill:#fddd10"/><path d="M284.32,490.83s-24.45-8.1-10.4-34.86C273.91,456,285,458.6,284.32,490.83Z" style="fill:#fddd10;stroke:#bc8810;stroke-width:3.171999931335449px"/><path d="M275.31,462.13c.22.32.46.69.7,1.11,1.87,3.28,4,9.59,4.4,21.1a19.53,19.53,0,0,1-3.55-3.33c-3.11-3.83-5.39-9.25-1.55-18.87Z" style="fill:#fddd10"/><path d="M294.73,501.07s-11.73-19.34-36-12.56c0,0,13.71,20.33,36,12.56Z" style="fill:#fddd10;stroke:#bc8810;stroke-width:3.171999931335449px"/><path d="M268.83,490.92a25.9,25.9,0,0,1,14.85,4.57,29.45,29.45,0,0,1,4.13,3.3,24.57,24.57,0,0,1-17.31-4.32,34.69,34.69,0,0,1-4.37-3.43q1.39-.12,2.7-.12Z" style="fill:#fddd10"/><path d="M294.73,501.07s-24.79-17.52-8.93-34.54C285.81,466.54,301.67,473.64,294.73,501.07Z" style="fill:#fddd10;stroke:#bc8810;stroke-width:3.171999931335449px"/><path d="M286.58,471.75a16.91,16.91,0,0,1,3,3.75c2.1,3.53,3.94,9.15,2.68,18.26a37,37,0,0,1-4.66-5.68,17.86,17.86,0,0,1-3.18-9.05A12.1,12.1,0,0,1,286.58,471.75Z" style="fill:#fddd10"/><path d="M308.45,515S281,497,295.39,478.61C295.39,478.6,313.08,486.2,308.45,515Z" style="fill:#fddd10;stroke:#bc8810;stroke-width:3.171999931335449px"/><path d="M296.54,483.89a21.81,21.81,0,0,1,3.94,4.33c2.68,3.85,5.21,9.82,4.84,19.3a44,44,0,0,1-5.69-6.18,21.89,21.89,0,0,1-4.42-9.82,12.39,12.39,0,0,1,1.33-7.63Z" style="fill:#fddd10"/><path d="M308.45,515s-10.9-22.31-38.17-12C270.28,502.89,286,525,308.45,515Z" style="fill:#fddd10;stroke:#bc8810;stroke-width:3.171999931335449px"/><path d="M284,504a22.48,22.48,0,0,1,13.33,4.24,26.34,26.34,0,0,1,5.1,4.73c-7.91,2.08-14.34-.31-19.46-3.55a37.62,37.62,0,0,1-5.83-4.6A30.29,30.29,0,0,1,284,504Z" style="fill:#fddd10"/><path d="M324.48,528.66s-27.43-16-14.88-35.53C309.6,493.14,325.64,499.92,324.48,528.66Z" style="fill:#fddd10;stroke:#bc8810;stroke-width:3.171999931335449px"/><path d="M311.06,498.74a22.87,22.87,0,0,1,3.29,3.67c2.67,3.65,5.42,9.42,6.14,18.55a40.65,40.65,0,0,1-5.16-5.19,22.26,22.26,0,0,1-4.89-9.57,13.34,13.34,0,0,1,.63-7.46Z" style="fill:#fddd10"/><path d="M322.32,527.51s-13.87-20.65-38-9.25C284.31,518.26,301.67,538.91,322.32,527.51Z" style="fill:#fddd10;stroke:#bc8810;stroke-width:3.171999931335449px"/><path d="M298.56,518.63A23.31,23.31,0,0,1,310.44,522a29.14,29.14,0,0,1,5.5,4.14c-7.15,2.3-13.37.45-18.52-2.35a36.72,36.72,0,0,1-6-4.07,26.09,26.09,0,0,1,7.15-1.06Z" style="fill:#fddd10"/><path d="M332.57,537.91s-23-13.88-10.24-33.37C322.32,504.54,340.66,513.79,332.57,537.91Z" style="fill:#fddd10;stroke:#bc8810;stroke-width:3.171999931335449px"/><path d="M323.63,510.18a21,21,0,0,1,3.65,4.15c2.48,3.72,4.51,9,3,17-6.46-6.06-9.41-14.57-6.69-21.11Z" style="fill:#fddd10"/><path d="M332.57,537.91s-9.08-18.5-33.2-6.94C299.36,531,311.91,549.32,332.57,537.91Z" style="fill:#fddd10;stroke:#bc8810;stroke-width:3.171999931335449px"/><path d="M314.19,531a16.8,16.8,0,0,1,8.83,2.46,17.53,17.53,0,0,1,3.7,3,18.54,18.54,0,0,1-16.61-1.07,24.53,24.53,0,0,1-4.12-2.89,25.59,25.59,0,0,1,8.21-1.47Z" style="fill:#fddd10"/><path d="M450.66,400.11s27.11-15.2,15.54-23c-10.41-6.77-16.69,12.06-15.54,23Z" style="fill:#fddd10;stroke:#bc8810;stroke-width:3.171999931335449px"/><path d="M462,379.49a2.42,2.42,0,0,0-1.08.33,9.36,9.36,0,0,0-3.37,3.95,30.37,30.37,0,0,0-2.74,9.08,59.22,59.22,0,0,0,5.39-4.22c2.44-2.18,4.34-4.59,4.83-6a1.75,1.75,0,0,0,.14-1.17c-.06-.2-.2-.55-1.1-1.17a4.26,4.26,0,0,0-2.08-.84Z" style="fill:#fddd10"/><path d="M443.23,414s19.83-23.64,1.81-38.34c0,0-14.54,13.05-1.81,38.34Z" style="fill:#fddd10;stroke:#bc8810;stroke-width:3.171999931335449px"/><path d="M445.39,381.39a22.54,22.54,0,0,0-2.33,5.12C441.63,391,441,397.36,444,406a41.29,41.29,0,0,0,3.24-6.92,22.25,22.25,0,0,0,1.3-10.61,14.24,14.24,0,0,0-3.15-7.07Z" style="fill:#fddd10"/><path d="M443.23,414s5-23.79,31.72-20.33C475,393.65,466.37,418.44,443.23,414Z" style="fill:#fddd10;stroke:#bc8810;stroke-width:3.171999931335449px"/><path d="M469,397.17c-8.73.15-13.66,3.86-17,7.82a25.7,25.7,0,0,0-3.54,5.67c7.58.11,12.63-3.54,16.4-7.77a33.71,33.71,0,0,0,4.11-5.73Z" style="fill:#fddd10"/><path d="M438.11,427.7S440.58,405,467,408.52C467,408.52,463.88,425.88,438.11,427.7Z" style="fill:#fddd10;stroke:#bc8810;stroke-width:3.171999931335449px"/><path d="M461.42,412c-8.63,0-12.93,3.47-15.67,7.12a20.38,20.38,0,0,0-2.32,4c8.42-1.58,13.09-5.07,15.89-8.25a19.94,19.94,0,0,0,2.13-2.86Z" style="fill:#fddd10"/><path d="M436.29,427s18.67-21.8.66-36.51C437,390.52,421.25,406.71,436.29,427Z" style="fill:#fddd10;stroke:#bc8810;stroke-width:3.171999931335449px"/><path d="M437.4,396.35a25.74,25.74,0,0,0-2.71,6,22.23,22.23,0,0,0,1.76,17.75,35.88,35.88,0,0,0,3.26-7,20,20,0,0,0,1-9.92,14.68,14.68,0,0,0-3.25-6.82Z" style="fill:#fddd10"/><path d="M430.5,439.09s3.14-20.32,29.58-16.85C460.08,422.24,453.81,443.72,430.5,439.09Z" style="fill:#fddd10;stroke:#bc8810;stroke-width:3.171999931335449px"/><path d="M454.07,425.69c-8.53,0-13,3.09-15.78,6.23a18.66,18.66,0,0,0-2.64,3.95c7.73.42,12.32-2.66,15.55-6.11a24.29,24.29,0,0,0,3.06-4.07Z" style="fill:#fddd10"/><path d="M429.51,440.91s18.67-22,.66-36.69C430.17,404.24,415.64,417.28,429.51,440.91Z" style="fill:#fddd10;stroke:#bc8810;stroke-width:3.171999931335449px"/><path d="M430.53,410a21.47,21.47,0,0,0-2.19,4.89c-1.32,4.33-1.8,10.35,1.66,18.47a35.44,35.44,0,0,0,2.92-6.45,20.34,20.34,0,0,0,.94-10A14.55,14.55,0,0,0,430.53,410Z" style="fill:#fddd10"/><path d="M420.75,453.47s19.33-20.82,1.33-35.36c0,0-14.88,11.24-1.33,35.36Z" style="fill:#fddd10;stroke:#bc8810;stroke-width:3.171999931335449px"/><path d="M422.24,423.58A17.62,17.62,0,0,0,420,428c-1.38,4-2,9.76,1.45,18.06a33.71,33.71,0,0,0,3.09-6.16,18.33,18.33,0,0,0,1.12-9.46,13.6,13.6,0,0,0-3.42-6.88Z" style="fill:#fddd10"/><path d="M420.75,453.47s4.8-20.82,31.23-17.36c0,0-7.93,22-31.23,17.36Z" style="fill:#fddd10;stroke:#bc8810;stroke-width:3.171999931335449px"/><path d="M429.27,446.16a21,21,0,0,0-3,4.1,20.48,20.48,0,0,0,16.11-6.45C451.81,434.69,432.42,442.9,429.27,446.16Z" style="fill:#fddd10"/><path d="M413.32,466.69s4.13-20.16,33-19.17c0,0-9.74,23.64-33,19.17Z" style="fill:#fddd10;stroke:#bc8810;stroke-width:3.171999931335449px"/><path d="M439.6,451.57c-9.3.89-14.55,4.39-17.79,7.82a21.77,21.77,0,0,0-3,4c7.69.12,13-3.37,17-7.35A33.29,33.29,0,0,0,439.6,451.57Z" style="fill:#fddd10"/><path d="M411.67,465.54s18.85-11.4,3-36C414.64,429.51,403.24,440.25,411.67,465.54Z" style="fill:#fddd10;stroke:#bc8810;stroke-width:3.171999931335449px"/><path d="M414.44,437.05c-.25.63-.5,1.36-.75,2.13-1.28,4.17-2,10.4-.05,19.19a19.07,19.07,0,0,0,1.93-3.23c1.83-4,2.83-9.67-1.15-18.08Z" style="fill:#fddd10"/><path d="M401.42,478.75s6.61-18.66,32.88-15.2C434.31,463.55,428.85,482.22,401.42,478.75Z" style="fill:#fddd10;stroke:#bc8810;stroke-width:3.171999931335449px"/><path d="M427.84,467c-8.58,0-13.85,2.85-17.32,5.81a21.68,21.68,0,0,0-2.52,2.54c9,0,14.26-2.85,17.58-5.78A20.94,20.94,0,0,0,428,467h-.2Z" style="fill:#fddd10"/><path d="M401.42,478.75s22.64-19.66,4.8-34.19c0,0-16.19,10.07-4.8,34.19Z" style="fill:#fddd10;stroke:#bc8810;stroke-width:3.171999931335449px"/><path d="M406.08,449.73a17.93,17.93,0,0,0-3,4.53c-1.8,3.78-3,9.28-.29,17.48a34.69,34.69,0,0,0,4.3-6.39,16.51,16.51,0,0,0,2.08-8.94,11.27,11.27,0,0,0-3.05-6.68Z" style="fill:#fddd10"/><path d="M386.06,490.82s13.71-18.34,39.32-13.55C425.38,477.27,407.2,496.1,386.06,490.82Z" style="fill:#fddd10;stroke:#bc8810;stroke-width:3.171999931335449px"/><path d="M415.34,480.34a35.76,35.76,0,0,0-20.77,7.49C402.77,487.54,410.2,483.78,415.34,480.34Z" style="fill:#fddd10"/><path d="M386.06,490.82s24.45-8.1,10.4-34.86C396.47,456,385.39,458.59,386.06,490.82Z" style="fill:#fddd10;stroke:#bc8810;stroke-width:3.171999931335449px"/><path d="M395.07,462.12c-.22.32-.46.69-.7,1.1-1.87,3.28-4,9.59-4.4,21.1a19.53,19.53,0,0,0,3.55-3.33c3.11-3.83,5.39-9.25,1.55-18.87Z" style="fill:#fddd10"/><path d="M375.65,501.06s11.73-19.33,36-12.56C411.67,488.5,398,508.83,375.65,501.06Z" style="fill:#fddd10;stroke:#bc8810;stroke-width:3.171999931335449px"/><path d="M401.55,490.91a25.92,25.92,0,0,0-14.85,4.57,29.45,29.45,0,0,0-4.12,3.3,24.57,24.57,0,0,0,17.31-4.32,34.68,34.68,0,0,0,4.37-3.44Q402.86,490.91,401.55,490.91Z" style="fill:#fddd10"/><path d="M375.65,501.06s24.79-17.52,8.93-34.54C384.58,466.53,368.71,473.63,375.65,501.06Z" style="fill:#fddd10;stroke:#bc8810;stroke-width:3.171999931335449px"/><path d="M383.8,471.74a16.93,16.93,0,0,0-3,3.75c-2.1,3.53-3.94,9.15-2.68,18.26a36.86,36.86,0,0,0,4.66-5.68A17.87,17.87,0,0,0,386,479a12.1,12.1,0,0,0-2.2-7.28Z" style="fill:#fddd10"/><path d="M361.93,514.94s27.44-18,13.06-36.34C375,478.59,357.31,486.19,361.93,514.94Z" style="fill:#fddd10;stroke:#bc8810;stroke-width:3.171999931335449px"/><path d="M373.84,483.88a21.75,21.75,0,0,0-3.94,4.33c-2.68,3.85-5.21,9.82-4.84,19.3a44,44,0,0,0,5.69-6.18,21.89,21.89,0,0,0,4.42-9.82A12.37,12.37,0,0,0,373.84,483.88Z" style="fill:#fddd10"/><path d="M361.93,514.94s10.9-22.31,38.17-12C400.1,502.88,384.41,525,361.93,514.94Z" style="fill:#fddd10;stroke:#bc8810;stroke-width:3.171999931335449px"/><path d="M386.35,504A22.48,22.48,0,0,0,373,508.24a26.35,26.35,0,0,0-5.1,4.73c7.91,2.08,14.34-.31,19.46-3.55a37.62,37.62,0,0,0,5.83-4.6,30.24,30.24,0,0,0-6.87-.83Z" style="fill:#fddd10"/><path d="M345.9,528.66s27.43-16,14.88-35.53C360.78,493.13,344.74,499.91,345.9,528.66Z" style="fill:#fddd10;stroke:#bc8810;stroke-width:3.171999931335449px"/><path d="M359.33,498.73A22.81,22.81,0,0,0,356,502.4c-2.67,3.66-5.42,9.42-6.14,18.55a40.65,40.65,0,0,0,5.16-5.19,22.28,22.28,0,0,0,4.89-9.57,13.33,13.33,0,0,0-.63-7.46Z" style="fill:#fddd10"/><path d="M348.06,527.5s13.87-20.65,38-9.26c0,0-17.36,20.66-38,9.25Z" style="fill:#fddd10;stroke:#bc8810;stroke-width:3.171999931335449px"/><path d="M371.83,518.62A23.32,23.32,0,0,0,359.94,522a29.14,29.14,0,0,0-5.5,4.14c7.15,2.3,13.37.45,18.52-2.35a36.68,36.68,0,0,0,6-4.06A26,26,0,0,0,371.83,518.62Z" style="fill:#fddd10"/><path d="M337.82,537.9s23-13.87,10.25-33.37C348.06,504.53,329.72,513.78,337.82,537.9Z" style="fill:#fddd10;stroke:#bc8810;stroke-width:3.171999931335449px"/><path d="M346.75,510.17a21,21,0,0,0-3.64,4.15c-2.48,3.72-4.52,9-3,17,6.46-6.06,9.41-14.57,6.69-21.11Z" style="fill:#fddd10"/><path d="M337.82,537.9S346.9,519.4,371,531c0,0-12.55,18.34-33.2,6.94Z" style="fill:#fddd10;stroke:#bc8810;stroke-width:3.171999931335449px"/><path d="M356.2,531a16.8,16.8,0,0,0-8.83,2.46,17.53,17.53,0,0,0-3.7,3,18.54,18.54,0,0,0,16.62-1.07,24.53,24.53,0,0,0,4.11-2.89A25.59,25.59,0,0,0,356.2,531Z" style="fill:#fddd10"/><path d="M107.09,535.89c-2.36-2.8-4.2-9.45,2.29-15.75,5.26-5,7.52-5.71,8.49-8.1,0,0,4.07,7.65,1.79,14.77-1.07,3.23-5,17.62-12.57,9.08Z" style="fill:#fddd10;stroke:#bc8810;stroke-width:3.171999931335449px"/><path d="M117.28,547.72c-2.67-2.46-3.75-8,1-13.65,5-5.69,12.89-4.8,14.21-7,.83,3.33.64,10.39-.84,15.14,0,0-7.54,12-14.32,5.56Zm12.9,10.59c-3-2.26-2.27-10.27,3.15-15.16,5.57-5.23,10.52-5.14,11.62-7.47,2.73,4.43,3.42,12.66.18,16.68-4.38,5.47-10.74,8.93-15,5.94Z" style="fill:#fddd10;stroke:#bc8810;stroke-width:3.171999931335449px"/><path d="M116.27,519a13.8,13.8,0,0,1-.11,6.71c-.64,1.92-1.89,5.9-3.35,8a4.33,4.33,0,0,1-1.2,1.24c.09,0-.31.18-1.73-1.41a6.65,6.65,0,0,1-1.27-4.08c0-1.84.68-4,3.34-6.61q2.08-2,4.33-3.83Zm13.08,13.4a57.62,57.62,0,0,1-1.13,8.22,20.57,20.57,0,0,1-3.54,3.89,6.53,6.53,0,0,1-2.78,1.43c-.67.09-1,.12-2.09-.86v0l-.05,0c-1-.9-2.47-4,1.25-8.55a13.2,13.2,0,0,1,6.7-3.65c.56-.16,1.1-.3,1.64-.44ZM143.71,541c0,.25.09.5.11.74.28,3.07-.52,7-1.52,8.3a17.9,17.9,0,0,1-6.16,5.07c-1.83.8-2.83.77-3.66.25a7.51,7.51,0,0,1-.18-3.08,11.63,11.63,0,0,1,3.57-6.42l0,0,0,0a21,21,0,0,1,6.09-4.12l1.76-.68Z" style="fill:#fddd10"/><path d="M382.42,44c.33-2.8.1-2.14.66-4a46.5,46.5,0,0,1,7.14-4.84l1.1-.58.07,0,.66-.33c6.27-3,14.49-4.93,20.19,1.67,0,0-13.88-.44-17.32,9.16-4.51-1-8.93-1.82-12.51-1.08Zm.66-4c-5.11-5.6-4.28-19.77,1.15-25.87l.31-.34c1.91.57,3,1,3,1s22.9-2.31,25.21,11.37c0,0-12.38,1.13-21.32,5.78a28,28,0,0,0-2.53,1.48,14.43,14.43,0,0,0-5.81,6.58Z" style="fill:#fddd10;stroke:#bc8810;stroke-width:3.193000078201294px"/><path d="M562.69,535.91c2.36-2.8,4.2-9.45-2.29-15.75-5.26-5-7.52-5.71-8.49-8.1,0,0-4.07,7.65-1.79,14.77,1.07,3.23,5,17.62,12.57,9.08Z" style="fill:#fddd10;stroke:#bc8810;stroke-width:3.171999931335449px"/><path d="M552.5,547.74c2.67-2.46,3.75-8-1-13.65-5-5.69-12.89-4.8-14.21-7-.83,3.33-.64,10.39.84,15.14,0,0,7.54,12,14.32,5.56Zm-12.9,10.59c3-2.26,2.27-10.27-3.15-15.16-5.57-5.23-10.52-5.14-11.62-7.47-2.73,4.43-3.42,12.66-.18,16.68,4.38,5.47,10.74,8.93,15,5.94Z" style="fill:#fddd10;stroke:#bc8810;stroke-width:3.171999931335449px"/><path d="M553.51,519a13.8,13.8,0,0,0,.11,6.71c.64,1.92,1.89,5.9,3.35,8a4.33,4.33,0,0,0,1.2,1.24c-.09,0,.31.18,1.73-1.41a6.65,6.65,0,0,0,1.27-4.08c0-1.84-.68-4-3.34-6.61q-2.08-2-4.33-3.83Zm-13.08,13.4a57.62,57.62,0,0,0,1.13,8.22,20.57,20.57,0,0,0,3.54,3.89,6.53,6.53,0,0,0,2.78,1.43c.67.09,1,.12,2.09-.86v0l.05,0c1-.9,2.47-4-1.25-8.55a13.2,13.2,0,0,0-6.7-3.65c-.56-.16-1.1-.3-1.64-.44ZM526.07,541c0,.25-.09.5-.11.74-.28,3.07.52,7,1.52,8.3a17.9,17.9,0,0,0,6.16,5.07c1.83.8,2.83.77,3.66.25a7.51,7.51,0,0,0,.18-3.08,11.63,11.63,0,0,0-3.57-6.42l0,0,0,0a21,21,0,0,0-6.09-4.12L526,541Z" style="fill:#fddd10"/><path d="M290.38,195.19,248.6,250.32c-11.41,75.25,19.87,141.1,86.64,183.73l.09-.06V195.19Z" style="fill:#ce1126"/><path d="M335.33,195.19V434c66.8-42.61,98.15-108.39,86.73-183.68l-41.95-55.13H335.33Z"/><path d="M306.06,195.19V411.94A223.6,223.6,0,0,0,335.25,434a223.51,223.51,0,0,0,29.35-22.21V195.17Z" style="fill:#fff;stroke:#bc8810;stroke-width:1.4724143743515015px;stroke-dasharray:0,3.171445369720459"/><path d="M329.9,268.13l5.43-16.83,5.42,16.83,17.68,0-14.33,10.36,5.49,16.8-14.27-10.41L321,295.26l5.49-16.8L312.22,268.1Zm0,68.9,5.43-16.83L340.76,337l17.68,0-14.33,10.37,5.49,16.8-14.27-10.42L321,364.17l5.49-16.8L312.22,337Z" style="fill:#007a3d;stroke:#bc8810;stroke-width:2.2086215019226074px;stroke-dasharray:0,4.752000331878662"/></svg>