<svg xmlns="http://www.w3.org/2000/svg" viewBox="0 0 664.66 664.05"><title>Tajikistan</title><path d="M476.22,632.82l-.12-26.5-11.78-2.59L524,587.09,536.2,573.6c-65.08-.89-130.42-5.27-195.52-8.35L153.87,576.51l11.15,12,53.45,15-6.72,1.61.13,27.88,3.15,1.66,12.74-3.55,0,10.3L231,643l12.71-3.54,0,10.27,3.22,1.7,12.67-3.53,0,10.24,3.26,1.72,78.73-22,79.09,22.12,3.39-1.67-.05-10.85,14.1,3.94,3.29-1.62-.05-10.92,14.2,4,3.19-1.57-.05-11,14.3,4Z" style="fill:#9d0a0f"/><path d="M530.63,576.3l-7.8,8.43L262.25,657.41l-.14-30.21,222.17-53.09ZM475,573.68,338,606.4l-17.1-3.76,126.63-30.26ZM259.65,645.25,246.3,649l-.13-28.47,17.93-4.29,15.14,4.23-19.68,4.7.09,20.09Zm178.62-73.31-22.37,5.35-78.64,18.79-17.1-3.77,90.67-21.67,27.43,1.3ZM243.71,636.81l-13.35,3.72-.12-26.73,13.61-3.25L259,614.79l-15.36,3.67Zm-15.94-8.44-13.35,3.72-.12-25,9.29-2.22,15.14,4.23-11,2.64.08,16.62Zm173.79-58.17-65,15.55L319.41,582l54.72-13.08Z" style="fill:#f58020"/><path d="M301.56,570.55,330,576.81l-16.36,3.91-36.43-8,24.36-2.15ZM459,605.21l14.55,3.2.11,23.4-14.86-4.16-.07-15L444,609.41l15.05-4.2ZM268.62,573.45l62.13,13.68L314.39,591,244.25,575.6Zm170,37.43,17.55,3.86.12,25.66-14.86-4.16L441.39,619l-17.78-3.91,15.05-4.2Zm-203-34.53,95.84,21.1-16.37,3.91L211.3,578.51l24.37-2.15Zm182.63,40.21,20.55,4.52L439,649l-14.86-4.16L424,625.34l-20.78-4.57,15.05-4.2Zm-255-33.82,3.13,3.47,118,33,47.86-11.44L202.72,579.26l-39.45,3.48Zm183.24,53.85,75.14,21-.14-30.18L398,622.24l-51.44,14.35Z" style="fill:#f58020"/><path d="M342.56,589.62c48.71-15.66,122.18-16.17,179.15-3.16l14.62-15.68C470.63,564.33,406.28,561,342.56,561s-128.07,3.37-193.78,9.82l14.62,15.68c57-13,130.45-12.5,179.15,3.16Z" style="fill:#6c6753"/><polygon points="344.15 589.13 342.56 589.62 340.98 589.12 340.98 581.19 344.15 581.19 344.15 589.13" style="fill:#a05a2c"/><path d="M344.7,348.71q4.13.1,8.17.54l30.34-236.44q2.34.51,4.66,1.08l-30.29,236q4.12.66,8.13,1.66L424.85,127q2.19,1,4.36,2.11L370.3,352.82q4.09,1.25,8,2.85l84.56-205.87q2,1.46,3.92,3l-84.11,204.8q4,1.87,7.81,4.09L496.15,179.37c1.14,1.2,2.27,2.41,3.39,3.63l-105,181.15q3.86,2.52,7.45,5.39l122.15-155.7c.95,1.36,1.88,2.75,2.8,4.13L405.63,372.6q3.61,3.19,6.88,6.72l134.2-127.73q1.13,2.21,2.23,4.44L415.66,382.89a96.05,96.05,0,0,1,6.05,8l138.12-96.65,2.73,3.9L424.27,394.94a95.19,95.19,0,0,1,4.9,9.25l131-64.14,2.09,4.27L431.06,408.56a94.42,94.42,0,0,1,3.45,10.22L560.59,380.4l1.39,4.55L435.66,423.41q1,4.5,1.57,9.16L561,413.85l.71,4.7L342.43,451.7,123.12,419l.7-4.7L247.6,432.77q.56-4.65,1.55-9.16l-126.4-38.19,1.38-4.55L250.29,419a94.36,94.36,0,0,1,3.43-10.23l-131.36-64,2.08-4.28,131.16,63.86a95.08,95.08,0,0,1,4.89-9.26L122,298.65l2.72-3.9L263,391.1a95.78,95.78,0,0,1,6-8.05L135.51,256.48q1.1-2.23,2.22-4.45L272.2,379.47a96.13,96.13,0,0,1,6.87-6.74L157.43,218.36c.93-1.39,1.85-2.77,2.8-4.14L282.7,369.66q3.58-2.87,7.44-5.4L184.75,183.34c1.12-1.23,2.25-2.44,3.39-3.64l106,182.05q3.79-2.23,7.8-4.1L217.43,153q1.95-1.51,3.92-3l85,205.69q3.92-1.6,8-2.86L255,129.31q2.17-1.08,4.36-2.12L318.94,351.6q4-1,8.13-1.68L296.27,114q2.32-.58,4.65-1.1l30.85,236.38q4-.45,8.17-.56l-.26-240.35c.79,0,1.58,0,2.38,0s1.58,0,2.38,0l.26,240.35Z" style="fill:#ffd42a"/><path d="M449.29,258.54h16.55l-13.39,9.73L457.56,284l-13.39-9.73L430.79,284l5.11-15.74-13.38-9.73h16.55l5.11-15.74Z" style="fill:red"/><polygon points="440.21 260.12 427.39 260.12 437.76 267.65 433.8 279.85 444.18 272.31 454.55 279.85 450.58 267.65 460.95 260.12 448.13 260.12 444.18 247.93 440.21 260.12" style="fill:#ffe680"/><path d="M434.49,206.15H451l-13.39,9.72,5.11,15.74-13.39-9.72L416,231.62l5.11-15.74-13.38-9.72h16.55l5.11-15.74Z" style="fill:red"/><polygon points="433.34 207.74 429.38 195.55 425.42 207.74 412.6 207.74 422.97 215.27 419.01 227.47 429.38 219.93 439.75 227.47 435.79 215.27 446.16 207.74 433.34 207.74" style="fill:#ffe680"/><path d="M396.56,167.75H413.1l-13.39,9.73,5.11,15.74-13.39-9.73-13.39,9.73,5.11-15.74-13.38-9.73h16.55L391.44,152Z" style="fill:red"/><polygon points="395.4 169.34 391.44 157.15 387.48 169.34 374.66 169.34 385.03 176.87 381.07 189.06 391.44 181.53 401.81 189.06 397.85 176.87 408.22 169.34 395.4 169.34" style="fill:#ffe680"/><path d="M337.16,153.23H320.61L334,163l-5.11,15.74L342.27,169l13.39,9.73L350.55,163l13.38-9.73H347.38l-5.11-15.74Z" style="fill:red"/><polygon points="338.31 154.82 342.27 142.63 346.23 154.82 359.05 154.82 348.68 162.35 352.64 174.54 342.27 167.01 331.9 174.54 335.86 162.35 325.49 154.82 338.31 154.82" style="fill:#ffe680"/><path d="M288,167.75H271.44l13.39,9.73-5.11,15.74,13.39-9.73,13.39,9.73-5.11-15.74,13.38-9.73H298.21L293.1,152Z" style="fill:red"/><polygon points="289.14 169.34 293.1 157.15 297.06 169.34 309.88 169.34 299.51 176.87 303.47 189.06 293.1 181.53 282.73 189.06 286.69 176.87 276.32 169.34 289.14 169.34" style="fill:#ffe680"/><path d="M250.05,206.15H233.51l13.39,9.72-5.11,15.74,13.39-9.72,13.39,9.72-5.11-15.74,13.38-9.72H260.28l-5.11-15.74Z" style="fill:red"/><polygon points="251.2 207.74 255.16 195.55 259.13 207.74 271.94 207.74 261.57 215.27 265.54 227.47 255.16 219.93 244.79 227.47 248.75 215.27 238.38 207.74 251.2 207.74" style="fill:#ffe680"/><path d="M235.25,258.54H218.71l13.39,9.73L227,284l13.39-9.73L253.75,284l-5.11-15.74L262,258.54H245.48l-5.11-15.74Z" style="fill:red"/><polygon points="244.33 260.12 257.15 260.12 246.78 267.65 250.74 279.85 240.37 272.31 230 279.85 233.96 267.65 223.59 260.12 236.41 260.12 240.37 247.93 244.33 260.12" style="fill:#ffe680"/><path d="M342.27,210.69a16.57,16.57,0,0,1,16.54,16.26,14.62,14.62,0,0,0-16.54,7.1,14.62,14.62,0,0,0-16.54-7.1A16.57,16.57,0,0,1,342.27,210.69Zm-25.72,16.57a25.81,25.81,0,0,0,.67,5.85,25.5,25.5,0,0,0,3.24,7.79h1.61v-.11a7.26,7.26,0,0,1,14.49.61v15.12c0,13.09-.65,20.71-14,25.05-10.67,3.47-22.79-1.13-29.46-11.18l-1-1.56-.4,1.82a28.84,28.84,0,0,1-15.26,20c-13.34,6.56-27.06,2.51-35.45-3.47l-3-2.15,32,54.52.65-.29c12.55-5.62,43.38-10.25,71.73-10.78,28.32.53,59.15,5.16,71.7,10.78l.65.29,32-54.52-3,2.15c-8.39,6-22.11,10-35.45,3.47a28.84,28.84,0,0,1-15.25-20l-.4-1.82-1,1.56C384.76,280.44,372.65,285,362,281.57c-13.35-4.34-14-12-14-25.05V241.4a7.25,7.25,0,0,1,14.48-.61v.11h1.61a25.51,25.51,0,0,0,3.24-7.79,25.72,25.72,0,1,0-50.78-5.85Zm25.72,53.05c3.95,9,11.27,18.65,24.58,17.43a30.43,30.43,0,0,0,20.75-11,29.82,29.82,0,0,0,15.14,17.69c7.22,3.55,17.57,4.1,25.5,1.54l-9.51,16.37c-14.41-5.15-45.62-9.09-76.44-9.63-30.85.53-62.06,4.48-76.47,9.63L256.31,306c7.93,2.56,18.27,2,25.5-1.54a29.83,29.83,0,0,0,15.14-17.69,30.43,30.43,0,0,0,20.75,11c13.31,1.22,20.64-8.43,24.58-17.43Zm44.55,13a16.21,16.21,0,0,0-7.5,8.1,16.23,16.23,0,0,0-4.88-1.85,16.41,16.41,0,0,0-4-.28l-.92,0,.18.9a17.27,17.27,0,0,0,31.44,5.92l.49-.76-.82-.39a15.79,15.79,0,0,0-9.11-1.37,16.23,16.23,0,0,0-3.93-10.13l-.41-.47Zm-45-2.44a16.23,16.23,0,0,0-5.78,9.2,16.21,16.21,0,0,0-5.18-.9,16.4,16.4,0,0,0-4,.51l-.88.22.34.84a17.27,17.27,0,0,0,32,.19l.35-.85-.89-.22a16.32,16.32,0,0,0-4-.49h0a16.18,16.18,0,0,0-5.14.89,16.21,16.21,0,0,0-5.82-9.38l-.49-.39Zm-45.06,2.63a16.24,16.24,0,0,0-3.93,10.13,16.21,16.21,0,0,0-5.24.11,16.39,16.39,0,0,0-3.88,1.27l-.82.39.49.76a17.27,17.27,0,0,0,31.44-5.92l.18-.9-.92,0a15.74,15.74,0,0,0-8.87,2.13,16.22,16.22,0,0,0-7.5-8.1l-.55-.28-.41.47Z" style="fill:red"/><path d="M294.37,304.49c0-.11,0-.21,0-.32a14.64,14.64,0,0,1,3.2-9.07,14.62,14.62,0,0,1,6.55,7.67l.34.93.83-.53a14.4,14.4,0,0,1,7.72-2.29,15.56,15.56,0,0,1-27.6,5.24,13.12,13.12,0,0,1,8-.83l1,.18,0-1Z" style="fill:#fc0"/><path d="M337.38,301.2a14.65,14.65,0,0,1,4.93-8.61,14.63,14.63,0,0,1,5,8.78l.16,1,.92-.36a13.14,13.14,0,0,1,8-.71,15.6,15.6,0,0,1-14,8.73h0a15.58,15.58,0,0,1-14.1-8.91,14.84,14.84,0,0,1,2.65-.33,14.68,14.68,0,0,1,5.44,1l.91.36.17-1Z" style="fill:#fc0"/><path d="M380.43,302.77A14.62,14.62,0,0,1,387,295.1a14.64,14.64,0,0,1,3.2,9.07c0,.11,0,.22,0,.32l0,1,1-.18a13.12,13.12,0,0,1,8,.83,15.56,15.56,0,0,1-27.6-5.24,14.4,14.4,0,0,1,7.72,2.29l.83.53.34-.93Z" style="fill:#fc0"/><path d="M318.76,232.75a24.14,24.14,0,1,1,47,0,23.81,23.81,0,0,1-2.24,5.74,8.82,8.82,0,0,0-17.15,2.91v15.12c0,11.62,0,21.65,15.09,26.56,10.85,3.53,23-.8,30.27-10.49A30.23,30.23,0,0,0,407.42,292c12.57,6.18,25.43,3.37,34.27-1.8L414,337.52c-13.08-5.57-43.61-10.13-71.69-10.65-28.1.52-58.63,5.08-71.71,10.65l-27.72-47.28c8.84,5.17,21.69,8,34.26,1.81a30.23,30.23,0,0,0,15.67-19.46c7.23,9.69,19.42,14,30.27,10.49,15.09-4.9,15.09-14.94,15.09-26.56V241.4A8.82,8.82,0,0,0,321,238.49a23.83,23.83,0,0,1-2.24-5.74Zm5.35-5.49,0,1.79,1-.35a13.35,13.35,0,0,1,16.38,7.35l.73,1.66.73-1.66a13.35,13.35,0,0,1,16.37-7.35l1,.33,0-1.78a18.15,18.15,0,0,0-36.31,0ZM341.53,278C338,287,331,297.37,317.83,296.16c-8.27-.76-16.13-5.16-20.53-11.49l-1-1.38-.46,1.61A28.44,28.44,0,0,1,281.1,303c-7.49,3.68-18.53,4-26.25.77l-2.18-.91,12.44,21.4.63-.23c13.75-5.12,45.95-9.21,76.55-9.74,30.57.53,62.76,4.63,76.52,9.74l.63.23,12.44-21.4-2.18.91C422,307,410.93,306.7,403.44,303a28.44,28.44,0,0,1-14.79-18.11l-.46-1.61-1,1.38c-4.4,6.33-12.26,10.73-20.53,11.49C353.55,297.37,346.56,287,343,278l-.74-1.85-.74,1.85Z" style="fill:#fc0"/><polygon points="292.54 424.28 277.8 414.08 187.45 454.09 187.87 512.55 511.41 512.55 511.41 446.64 429.56 412.72 428.89 413.09 411.06 422.94 346.54 389.74 345.77 390.24 292.54 424.28" style="fill:#a05a2c"/><path d="M187.48,457.63l0,3,82.41-32.13,28.51,3.73-20.91-14.55-90,39.9ZM346.71,393.4l47.51,24.48-51.09-13.45L298.07,428l-2.7-1.77Zm83,22.83,74.84,31-77.69-19-27.18,4.51Z" style="fill:#fff"/><path d="M559.55,401.49c-.31,2-.93,4.71-1.47,7.41-1.93,7.85-3.9,15.89-8.68,22.22a24.15,24.15,0,0,1-4.59,4.79V436c-4.34,3.82-9.84,5.88-14.19,2.68l0,0a6.29,6.29,0,0,1-1.05-1.17,9.4,9.4,0,0,1-1.23-4.48,10.28,10.28,0,0,1-5,3.09,6.26,6.26,0,0,1-1.57.06h0c-5.31-.93-7.63-6.32-7.88-12.1l0,0,0,0a24.11,24.11,0,0,1,.28-6.63c1.26-7.83,5.7-14.82,10-21.65l.66-.95a22,22,0,0,1,0-3.5c.32-7.93,3.89-15.4,7.37-22.69l.93-1.76a23.4,23.4,0,0,1-.74-5.09c-.45-7.92,2.38-15.7,5.14-23.29.39-1,.78-1.91,1.15-2.84-.06-.25-.11-.5-.16-.74-1.72-7.74-.19-15.88,1.31-23.82l.17-.75a20.93,20.93,0,0,1-1-2.32c-2.8-7.42-2.43-15.7-2.06-23.77.25-2.79.42-5.64.69-7.62.16-1.2.94-3.16,1.86-1.05.52,1.2.86,3.58,2,6.09a37.06,37.06,0,0,0,6.67,9c2,2.34,4.06,4.59,6.12,6.85.2.22.38.44.57.66.21-.41.43-.82.66-1.23,1.57-2.63,3.15-5.25,4.62-7.94a37.1,37.1,0,0,0,4.73-10.17c.65-2.69.5-5.1.77-6.37.47-2.25,1.63-.48,2,.66.65,1.88,1.4,4.64,2.2,7.32,2,7.84,4,15.87,2.75,23.7a23.84,23.84,0,0,1-1.62,5.95c.22.89.44,1.8.67,2.7,1.64,7.91,3.32,16,1.74,23.79a23.49,23.49,0,0,1-1.49,5c0,.88,0,1.79,0,2.69-.2,8.08-.39,16.36-3.7,23.57a22,22,0,0,1-1.62,3.1c0,1,0,2-.06,3-.48,8.07-1,16.33-4.52,23.42a23.27,23.27,0,0,1-2.55,4.18Z" style="fill:#f60"/><path d="M453.34,113.6c-1.36-.88-2.71-1.67-3.94-2.36-5.61-3.13-13.09-6.18-18-8.31-6-2.62-14.26-6.08-20.45-8.27-1.25-.44-2.75-.63-2.92-.29-.35.58.47,1,1.55,1.48,5.47,2.59,12.39,6.22,16.91,10.76a82.79,82.79,0,0,0-13.81-2c-3.4-.26-6.81-.42-10.2-.76a65.29,65.29,0,0,1-11.33-2.13c-2.77-.77-10.46-3.6-13.32-3.92-2.06-.23-2.89,1.36-.17,2.1a67.34,67.34,0,0,1,17.87,7.25c4.24,2.62,7.33,6,10.15,8.43,4.72,3.6,8.86,7.49,13.19,9.78A27.38,27.38,0,0,0,427.7,128a39.84,39.84,0,0,1-7.91.88c-6.94-.1-18.91-2.06-25-5.19-1.06-.54-1.87-1-2.12-.33-.17.35.9,1.42,2,2.14,5.33,3.47,11.54,4.88,19.05,8.12,7.05,3,15.39,7.92,21.13,10.39,1.11.48,2.34,1,3.63,1.46,2.1,1.44,4.22,2.87,6.31,4.3,4.38,3,10.94,7.72,16.56,10.81l1.4.75c2.09,2.12,4.2,4.2,6.29,6.3,3.75,3.76,9.31,9.62,14.26,13.71.72.6,1.51,1.23,2.34,1.86,1.65,2.23,3.32,4.44,5,6.65,3.18,4.25,7.84,10.84,12.17,15.6a59.62,59.62,0,0,0,4.4,4.42l3,5.12c2.66,4.6,6.52,11.69,10.25,16.92,3.24,4.54,8.24,10.8,14.07,11.51a7.88,7.88,0,0,0,9.12-7,13.7,13.7,0,0,0,.09-2.35l.78.26a7.88,7.88,0,0,0,10.14-5.44c1.74-5.61-1.93-12.73-4.74-17.55-3.24-5.55-8.14-12-11.24-16.28l-3-4.15a44.21,44.21,0,0,0-5.29-9.25c-3.72-5.24-9.16-11.21-12.63-15.22-1.89-2.18-3.76-4.38-5.66-6.55a55,55,0,0,0-4.68-5.67c-4.36-4.71-10.53-9.93-14.5-13.46-2.09-1.86-4.17-3.74-6.28-5.6a46.41,46.41,0,0,0-7.55-6.4l-.76-.53-.35-.27a9.15,9.15,0,0,0-1.26-.81c-4.87-3.19-10.63-6.32-14.58-8.58-2.9-1.67-5.8-3.36-8.74-5Z" style="fill:#f60"/><path d="M594,254.24c1.34-2.75,2.7-5.5,3.93-8.31a37.2,37.2,0,0,0,3.85-10.54c.42-2.74.07-5.12.23-6.42.28-2.28,1.59-.62,2.08.48.81,1.82,1.79,4.51,2.81,7.11,2.63,7.64,5.33,15.47,4.75,23.38a23.43,23.43,0,0,1-.83,5.12l.17.43c2.7,7.62,5.47,15.42,5,23.34a24.06,24.06,0,0,1-1.2,6.52l0,0,0,0q-.14.5-.29,1c.15.54.31,1.09.46,1.64,1.88,7.86,3.81,15.91,2.46,23.73a24.13,24.13,0,0,1-1.88,6.36v.08a22.19,22.19,0,0,1-1.21,2.58c0,.76.1,1.54.15,2.31.22,8.08.44,16.35-2.49,23.73a22.48,22.48,0,0,1-1.66,3.54c0,1.88,0,4.25,0,6.59-.29,8.07-.58,16.35-4,23.52a22.07,22.07,0,0,1-1.56,2.93c-.1,2-.38,4.6-.59,7.2-1,8-2,16.24-6,23.08a24.21,24.21,0,0,1-4,5.29v.08c-3.87,4.3-9.09,7-13.78,4.32h0a6.14,6.14,0,0,1-1.18-1,9.4,9.4,0,0,1-1.74-4.3,10.28,10.28,0,0,1-4.61,3.66,6.2,6.2,0,0,1-1.55.24h0c-5.38-.3-8.32-5.39-9.24-11.1l0,0,0,0a24.06,24.06,0,0,1-.49-6.62c.34-7.92,3.93-15.38,7.44-22.67l.86-1.62a23.64,23.64,0,0,1-.82-5.65c-.36-7.93,2.56-15.67,5.41-23.24.35-.83.7-1.66,1-2.47a23.73,23.73,0,0,1-1.17-5.59c-.85-7.89,1.58-15.8,3.95-23.53.47-1.33.93-2.69,1.37-3.94-2.36-7.47-1.63-15.62-.91-23.57.19-1.46.37-2.93.54-4.29-.14-.3-.27-.6-.39-.88-3.25-7.24-3.38-15.52-3.51-23.6,0-1.22.05-2.45.07-3.62a20.67,20.67,0,0,1-.93-2c-3.18-7.27-3.24-15.55-3.3-23.63.1-2.8.13-5.65.28-7.64.1-1.2.78-3.2,1.8-1.15.58,1.17,1,3.53,2.35,6a37.13,37.13,0,0,0,7.14,8.65c2.1,2.23,4.3,4.37,6.47,6.52a21.92,21.92,0,0,1,2.89,3.61,21.62,21.62,0,0,1,1.78-5.6Z" style="fill:#f60"/><path d="M429,58.85c-5.14-2-10.88-3.69-14.9-5-6.22-2-17.37-5-23.75-6.63-1.28-.32-2.8-.37-2.94,0-.29.61.57.92,1.68,1.32,6.47,2.33,17.53,6.19,22.34,11.19l.49.52a80.19,80.19,0,0,0-14.32-.69c-3.4.07-6.82.23-10.22.21-3.24,0-11.09-1.29-15.67-2.1-2.83-.5-5.95-1.63-8.83-1.68-2.07,0-2.74,1.63,0,2.11,10.07,1.57,21.82,8.17,28.77,13,5,3.13,9.53,6.61,14.06,8.48a19.53,19.53,0,0,0,2.05.7,26.58,26.58,0,0,1-2.74.33c-6.93.44-13.47-1.49-19.81-4.13-1.1-.46-1.94-.81-2.13-.16-.14.36,1,1.35,2.17,2,5.77,3.14,11.81,5.75,17.77,8.45,4.83,2.19,12.11,5.71,18.19,7.78,1.22.42,2.57.85,4,1.24,3.23,1.66,6.49,3.24,9.74,4.84,4.76,2.36,11.9,6.13,17.9,8.41,1.68.64,3.6,1.32,5.61,1.87l5.15,3.7c4.31,3.1,10.73,8,16.28,11.23,1.13.66,2.38,1.36,3.72,2,2.82,2.53,5.71,5,8.56,7.46,4,3.48,10,8.93,15.21,12.65.85.6,1.76,1.24,2.74,1.87,1.84,2.49,3.71,4.94,5.56,7.41,3.19,4.24,7.86,10.83,12.2,15.57L529,174c2.25,3.59,4.62,7.1,6.95,10.62,2.93,4.43,7.2,11.28,11.24,16.28a56.31,56.31,0,0,0,4.69,5.22l3.51,5.46c2.87,4.47,7.05,11.38,11,16.43,3.45,4.38,8.73,10.4,14.59,10.84a7.88,7.88,0,0,0,8.78-7.44,13.8,13.8,0,0,0,0-2.51l.6.2a7.88,7.88,0,0,0,10.2-5.34c1.8-5.59-1.79-12.75-4.56-17.6-3.18-5.58-8-12.06-11.07-16.39-2.36-3.34-6.69-8.7-9.32-12.87-1.58-2.5-2-5.1-2.55-5.12s-.22,2.31-1.11.83c-2.48-3.47-4.83-7-7-9.41-4.17-4.63-4.4-11.26-5.13-6.91a49.07,49.07,0,0,0-4.67-7.77c-3.72-5.24-9.17-11.2-12.64-15.22a33.16,33.16,0,0,1-4.06-5.15c-2.17-3.88-3.2-7.29-3.73-3.79-5.71-7.12-13.64-12.47-20.76-17.93a47.82,47.82,0,0,1-7-5.9c-3.75-4.28-5.27-6.84-4.42-2.74-1.26-1.12-2.53-2.13-3.69-3-5.1-3.91-12.05-8-16.56-10.83a37.55,37.55,0,0,1-5.95-4.67c-3.48-3.49-3.87-4.68-3.26-1.06a56.82,56.82,0,0,0-5.79-3.75c-5.57-3.2-13-6.35-17.84-8.55A226.75,226.75,0,0,1,429,55.74c-1.13-.68-2.74-.67-2.92-.33S428.45,58.53,429,58.85Z" style="fill:#f60"/><path d="M629.51,239.18c.82-3,1.65-5.9,2.36-8.88a37.23,37.23,0,0,0,1.87-11.06c-.09-2.77-.87-5-.95-6.35-.13-2.29,1.45-.9,2.14.1,1.13,1.64,2.58,4.1,4.06,6.48,4,7,8.05,14.24,8.92,22.13a23.62,23.62,0,0,1,.08,5.56c.62,1.33,1.29,2.8,2,4.24,3.13,7.45,6.33,15.09,6.27,23a23.71,23.71,0,0,1-.61,5.68c.37,1.65.76,3.57,1.18,5.47,1.4,8,2.83,16.11,1,23.84a23.43,23.43,0,0,1-1.64,4.94c.12.72.25,1.45.38,2.17,1.08,8,2.19,16.21.07,23.86a22.88,22.88,0,0,1-1.39,4c.13,2,.13,4.84.2,7.64-.15,8.08-.31,16.36-3.58,23.58a22.87,22.87,0,0,1-2.23,4.08c0,.85-.08,1.73-.12,2.6-.68,8.05-1.37,16.3-5.09,23.3a24.24,24.24,0,0,1-3.78,5.45V411c-3.69,4.45-8.8,7.35-13.59,4.87l0,0a6.31,6.31,0,0,1-1.22-1,9.41,9.41,0,0,1-1.92-4.23,10.28,10.28,0,0,1-4.46,3.84,6.37,6.37,0,0,1-1.55.3h0c-5.39-.08-8.53-5.05-9.68-10.72l0,0,0,0a24.19,24.19,0,0,1-.76-6.59c0-7.93,3.31-15.53,6.52-22.95l.78-1.64a21.6,21.6,0,0,1-.31-3c-.49-7.92,2.3-15.71,5-23.32l.66-1.63a23,23,0,0,1-1.33-4.44c-1.7-7.75-.13-15.88,1.4-23.81.23-1,.45-1.94.67-2.88A21.44,21.44,0,0,1,620,311c-2-7.68-.75-15.86.46-23.85l.2-1c-.36-.59-.67-1.18-.94-1.74-3.65-7-4.25-15.3-4.84-23.36,0-1.65-.13-3.31-.18-4.81l-.17-.26c-4.45-6.57-6-14.7-7.54-22.63-.41-2.77-.9-5.58-1.11-7.57-.13-1.2.18-3.29,1.56-1.45.79,1,1.67,3.28,3.4,5.45a37.21,37.21,0,0,0,8.59,7.21c2.47,1.81,5,3.52,7.55,5.24.64.45,1.24.92,1.8,1.4A22,22,0,0,1,629.51,239.18Z" style="fill:#f60"/><path d="M425.8,25.31a23.92,23.92,0,0,0-5.33-2.81C413.95,19.87,407,20,399.75,20c-3.4.07-6.82.23-10.22.21a65.14,65.14,0,0,1-11.48-1c-2.83-.5-5.95-1.63-8.82-1.68-2.07,0-2.74,1.63,0,2.11,10.07,1.57,17.64,7.11,24.59,12,5,3.13,9.53,6.61,14.06,8.48a19.77,19.77,0,0,0,2.13.73c-6,.41-11.89-.88-17.65-2.74-1.13-.37-2-.64-2.14,0-.11.37,1.12,1.26,2.33,1.79,6,2.65,12.25,4.75,18.41,6.95,5,1.78,12.54,4.68,18.77,6.25a56.26,56.26,0,0,0,7,1.35l4.84,2.72c4.62,2.61,11.55,6.76,17.42,9.37a54.1,54.1,0,0,0,7.14,2.67l5.22,3.18c4.53,2.77,11.31,7.16,17.09,10,1.61.78,3.47,1.63,5.43,2.36,2,1.49,4,3,6,4.45,4.26,3.17,10.61,8.15,16.11,11.48,1.11.67,2.33,1.38,3.64,2.06,1.67,1.8,3.35,3.59,5,5.39,3.62,3.89,9,9.94,13.77,14.21,1,.86,2,1.78,3.2,2.69l4.1,5.33c2,2.67,4.7,6.28,7.48,9.76a9,9,0,0,0,.87,1.48c3.84,5.34,8.14,10.31,12.34,15.33,3.41,4.07,8.43,10.4,13,14.91,1,.95,2,2,3.22,3,1.32,1.88,2.66,3.75,4,5.62,3.06,4.34,7.56,11,11.75,15.91,3.64,4.23,9.19,10,15.06,10.18a7.88,7.88,0,0,0,8.44-7.83,13.54,13.54,0,0,0-.11-2.24l.54.16a7.88,7.88,0,0,0,10-5.77c1.55-5.66-2.34-12.66-5.32-17.38-3.42-5.44-8.52-11.7-11.77-15.89-1.76-2.28-3.52-4.59-5.3-6.87-.82-1.43-1.68-2.77-2.48-4-3.58-5.34-8.86-11.45-12.22-15.55-4.15-5.06-6.28-13.27-10.8-18-.91-1-2.16-1.81-2.47-1.58-.57.36,0,1.08.71,2a29.89,29.89,0,0,1,4.51,9.59c-.3-.49-.6-1-.89-1.41-3.47-5.41-8.62-11.63-11.9-15.8-4-5.14-7.63-11-12.06-15.85-.89-1-2.12-1.86-2.44-1.63-.58.34,0,1.08.67,2a49.19,49.19,0,0,1,3,4.65l0,0c-4.07-5-9.9-10.56-13.64-14.33-4.61-4.64-8.37-9.8-13.33-14.12-1-.87-2.32-1.6-2.61-1.34-.54.41.08,1.08.89,1.94a43,43,0,0,1,3.44,4.17c-.67-.6-1.33-1.17-1.95-1.7-4.9-4.15-11.66-8.58-16-11.61-5.38-3.73-10.16-10-15.81-13.33-1.14-.67-2.58-1.15-2.81-.85-.45.5.28,1,1.23,1.75a32.3,32.3,0,0,1,5.71,5.59c-1-.73-1.9-1.4-2.78-2-5.28-3.66-12.43-7.41-17.07-10C483,36.1,477.25,30.79,471.29,28c-1.2-.56-2.67-.9-2.88-.57-.4.54.38,1,1.4,1.62a38.4,38.4,0,0,1,6.8,5.31l-1.45-.92c-5.46-3.39-12.79-6.78-17.55-9.13-5.87-2.9-11.71-5.91-17.8-8.39-1.22-.49-2.72-.76-2.91-.42s.23.88,1.07,1.33c-5.2-1.95-11-3.67-15.12-5-6.23-2-12.46-4.09-18.85-5.63-1.28-.31-2.8-.35-2.94,0-.29.61.57.92,1.69,1.31,6.48,2.28,12.63,5.24,17.48,10.2A45.14,45.14,0,0,1,425.8,25.31Z" style="fill:#f60"/><path d="M437.26,38c-9.78-1-17.67,5.37-27.21,4.39A104.5,104.5,0,0,0,430,50.59c4.82,1.49,10.12,2.56,14,1.54a8.07,8.07,0,0,0,3.42-1.94c-4.19.25-8.54.11-12.59-1.59-2.15-.91-1.1-1.37.87-1.13a27,27,0,0,0,10.21-.66c2.27-.53,4-1.09,1.8-3.93S441.09,38.42,437.26,38Z" style="fill:#fc0"/><path d="M424.4,124.21c-9.2-3.47-17.28-12.21-25.13-18.14A148.24,148.24,0,0,0,414.64,108c5.53.59,10.6,1.26,15.34,3.08,1.15,1.84,2.15,3.84,3.12,5.82-1-.35-2-.67-2.82-.85s-4.44-.85-4.76,0c-.19.49,2.8,1.31,3.53,1.61a47.46,47.46,0,0,1,5.75,2.72l.38.73a28.38,28.38,0,0,0,2.15,3.64l-.57.21c-4.28,1.45-11.06-.19-12.36-.68Z" style="fill:#fc0"/><path d="M444,130c-9.61-2.07-18.17,3.34-27.53,1.28a104.55,104.55,0,0,0,18.86,10.36c4.62,2,9.76,3.68,13.7,3.11a8.09,8.09,0,0,0,3.61-1.54c-4.19-.23-8.5-.86-12.33-3-2-1.14-.94-1.49,1-1a27,27,0,0,0,10.22.5c2.31-.27,4.14-.63,2.23-3.7s-6-5.16-9.76-6Z" style="fill:#fc0"/><path d="M471.77,147.47c-9.37-3-18.4,1.58-27.53-1.37A104.54,104.54,0,0,0,462,158.23c4.41,2.46,9.36,4.6,13.34,4.41a8.07,8.07,0,0,0,3.74-1.19c-4.15-.63-8.38-1.67-12-4.18-1.92-1.33-.8-1.57,1.09-.93a27,27,0,0,0,10.13,1.47c2.33,0,4.18-.23,2.58-3.47s-5.48-5.71-9.14-6.88Z" style="fill:#fc0"/><path d="M496,170.4c-8.65-4.67-18.38-1.87-26.79-6.46a104.56,104.56,0,0,0,15.21,15.22c3.87,3.24,8.34,6.27,12.29,6.81a8.08,8.08,0,0,0,3.9-.47c-4-1.39-7.92-3.2-11-6.34-1.64-1.67-.49-1.69,1.24-.71a27,27,0,0,0,9.68,3.33c2.3.39,4.15.55,3.18-2.92s-4.32-6.63-7.7-8.46Z" style="fill:#fc0"/><path d="M516.91,196.43C509,190.57,499,192,491.31,186.22a104.56,104.56,0,0,0,12.89,17.23c3.37,3.76,7.37,7.39,11.19,8.49a8.08,8.08,0,0,0,3.93.09c-3.72-1.94-7.39-4.29-10-7.84-1.38-1.88-.24-1.74,1.33-.52a27,27,0,0,0,9.11,4.68c2.22.71,4,1.14,3.56-2.44s-3.33-7.18-6.42-9.47Z" style="fill:#fc0"/><path d="M535.5,224.61c-7.15-6.74-17.27-6.54-24.22-13.15A104.53,104.53,0,0,0,522,230.09c2.9,4.13,6.45,8.2,10.12,9.75a8.09,8.09,0,0,0,3.89.55c-3.47-2.36-6.83-5.13-9-9-1.15-2,0-1.76,1.38-.36a27,27,0,0,0,8.49,5.72c2.12,1,3.87,1.6,3.82-2s-2.46-7.52-5.26-10.16Z" style="fill:#fc0"/><path d="M537,222.14c-3.23-9.29,1.1-18.44-2.08-27.48a104.54,104.54,0,0,1,12.58,17.46c2.58,4.34,4.85,9.24,4.75,13.22a8.09,8.09,0,0,1-1.09,3.77c-.74-4.13-1.89-8.33-4.49-11.87-1.38-1.88-1.59-.75-.9,1.11a27,27,0,0,1,1.74,10.09c0,2.33-.12,4.18-3.4,2.67s-5.85-5.32-7.11-9Z" style="fill:#fc0"/><path d="M518.45,193.56c-4-9-.53-18.46-4.5-27.19A104.51,104.51,0,0,1,528,182.65c3,4.1,5.64,8.78,5.9,12.75a8.07,8.07,0,0,1-.75,3.86c-1.1-4-2.61-8.14-5.52-11.43-1.54-1.75-1.65-.61-.8,1.19a27,27,0,0,1,2.62,9.9c.22,2.32.25,4.18-3.15,3S520,197.07,518.45,193.56Z" style="fill:#fc0"/><path d="M497.1,167.56c-5.16-8.37-2.91-18.24-8-26.38a104.57,104.57,0,0,1,16.06,14.32c3.46,3.68,6.73,8,7.5,11.88a8.08,8.08,0,0,1-.25,3.92c-1.61-3.87-3.64-7.73-7-10.62-1.76-1.54-1.71-.39-.64,1.28a27,27,0,0,1,3.88,9.47c.52,2.27.79,4.11-2.74,3.34s-6.86-3.93-8.88-7.21Z" style="fill:#fc0"/><path d="M471.73,143.91c-6.77-7.13-6.6-17.25-13.23-24.18a104.52,104.52,0,0,1,18.66,10.72c4.14,2.89,8.22,6.42,9.78,10.09a8.08,8.08,0,0,1,.56,3.89c-2.37-3.46-5.15-6.82-9-9-2-1.14-1.76,0-.36,1.38a27,27,0,0,1,5.74,8.47c1,2.11,1.61,3.86-2,3.83s-7.53-2.44-10.18-5.23Z" style="fill:#fc0"/><path d="M443.77,127.06c-7.5-6.36-8.42-16.44-15.76-22.62a104.52,104.52,0,0,1,19.71,8.64c4.42,2.43,8.87,5.5,10.81,9a8.08,8.08,0,0,1,1,3.8c-2.73-3.18-5.86-6.22-9.9-7.95-2.15-.92-1.75.16-.21,1.41a27,27,0,0,1,6.62,7.81c1.2,2,2,3.66-1.57,4s-7.75-1.61-10.68-4.1Z" style="fill:#fc0"/><path d="M411.27,77.89c-9.53-2.39-18.57-10.14-27.05-15.13a149.08,149.08,0,0,0,15.49.11c5.38,0,10.33,0,15.1,1.18,1.19,1.75,2.29,3.6,3.39,5.37-.74-.15-1.43-.27-2-.34-.81-.09-4.51-.34-4.73.52-.13.51,2.93,1,3.69,1.19,1.71.48,3.34,1,5,1.6.44.65,3.76,4.65,3.66,4.69C419.23,78.66,416.33,79.15,411.27,77.89Z" style="fill:#fc0"/><path d="M429.21,79.81c-9.73-1.41-17.89,4.58-27.38,3.16a104.5,104.5,0,0,0,19.53,9c4.75,1.71,10,3,13.88,2.16a8.08,8.08,0,0,0,3.5-1.79c-4.19.06-8.54-.27-12.51-2.16-2.11-1-1-1.42.92-1.09a27,27,0,0,0,10.23-.21c2.29-.43,4.08-.91,2-3.84S433,80.36,429.21,79.81Z" style="fill:#fc0"/><path d="M461.32,94.57c-9.69-1.65-18,4.12-27.45,2.47a104.5,104.5,0,0,0,19.29,9.54c4.71,1.83,9.91,3.26,13.82,2.51a8.08,8.08,0,0,0,3.54-1.7c-4.19,0-8.53-.49-12.45-2.47-2.08-1.05-1-1.44,1-1.07a27,27,0,0,0,10.24.05c2.3-.37,4.1-.81,2.07-3.79s-6.22-4.89-10-5.54Z" style="fill:#fc0"/><path d="M490.63,113c-9.29-3.22-18.44,1.12-27.49-2.06a104.51,104.51,0,0,0,17.47,12.57c4.34,2.58,9.24,4.84,13.22,4.74a8.08,8.08,0,0,0,3.77-1.09c-4.13-.73-8.34-1.88-11.88-4.48-1.88-1.38-.76-1.59,1.11-.9a27,27,0,0,0,10.09,1.73c2.33,0,4.18-.13,2.67-3.4S494.27,114.22,490.63,113Z" style="fill:#fc0"/><path d="M519.23,136.13c-9-4-18.46-.55-27.19-4.53a104.57,104.57,0,0,0,16.26,14.09c4.09,3,8.77,5.65,12.74,5.91a8.07,8.07,0,0,0,3.86-.75c-4-1.1-8.13-2.62-11.43-5.53-1.75-1.55-.61-1.65,1.19-.8a27,27,0,0,0,9.89,2.63c2.32.22,4.18.25,3-3.15s-4.78-6.3-8.29-7.89Z" style="fill:#fc0"/><path d="M542,163.75c-7.91-5.84-17.93-4.43-25.62-10.16a104.58,104.58,0,0,0,12.93,17.2c3.38,3.75,7.38,7.37,11.21,8.47a8.07,8.07,0,0,0,3.93.08c-3.72-1.93-7.4-4.28-10-7.82-1.38-1.88-.25-1.74,1.33-.53a27,27,0,0,0,9.11,4.66c2.22.71,4,1.13,3.56-2.45s-3.35-7.17-6.44-9.46Z" style="fill:#fc0"/><path d="M561.79,192.71c-7.54-6.31-17.63-5.5-25-11.68a104.55,104.55,0,0,0,11.87,18c3.15,3.95,6.92,7.81,10.68,9.13a8.09,8.09,0,0,0,3.92.32c-3.6-2.15-7.13-4.72-9.51-8.4-1.27-2-.14-1.75,1.36-.45a27,27,0,0,0,8.82,5.2c2.17.84,4,1.37,3.7-2.23s-2.91-7.36-5.86-9.83Z" style="fill:#fc0"/><path d="M581.13,220c-7.46-6.41-17.56-5.74-24.81-12A104.61,104.61,0,0,0,568,226.11c3.09,4,6.82,7.9,10.56,9.27a8.09,8.09,0,0,0,3.91.37c-3.57-2.2-7.06-4.81-9.4-8.53-1.24-2-.12-1.76,1.36-.43a27,27,0,0,0,8.75,5.32c2.16.87,3.93,1.42,3.73-2.18s-2.81-7.4-5.73-9.91Z" style="fill:#fc0"/><path d="M583,216.86c-3.13-9.32,1.3-18.43-1.79-27.51a104.55,104.55,0,0,1,12.4,17.59c2.53,4.37,4.75,9.29,4.61,13.27a8.09,8.09,0,0,1-1.13,3.76c-.69-4.14-1.8-8.35-4.36-11.92-1.36-1.9-1.58-.77-.91,1.1a27,27,0,0,1,1.63,10.11c0,2.33-.17,4.18-3.43,2.63S584.19,220.51,583,216.86Z" style="fill:#fc0"/><path d="M563.66,190.32c-3.35-9.24.85-18.45-2.46-27.45A104.51,104.51,0,0,1,574,180.15c2.64,4.3,5,9.17,4.93,13.15a8.08,8.08,0,0,1-1,3.79c-.79-4.12-2-8.31-4.65-11.81-1.41-1.86-1.6-.73-.88,1.12a27,27,0,0,1,1.88,10.06c0,2.33-.07,4.18-3.36,2.71s-5.92-5.24-7.24-8.86Z" style="fill:#fc0"/><path d="M543.25,160.45c-4-9-.54-18.46-4.51-27.19a104.52,104.52,0,0,1,14.08,16.27c3,4.09,5.65,8.77,5.91,12.74a8.08,8.08,0,0,1-.75,3.86c-1.1-4-2.62-8.13-5.52-11.43-1.54-1.75-1.65-.61-.8,1.19a27,27,0,0,1,2.63,9.89c.22,2.32.25,4.18-3.15,3s-6.3-4.79-7.88-8.29Z" style="fill:#fc0"/><path d="M520.14,132.86c-5.76-8-4.25-18-9.91-25.72a104.52,104.52,0,0,1,17.08,13.09c3.72,3.41,7.3,7.45,8.36,11.29a8.12,8.12,0,0,1,0,3.93c-1.89-3.74-4.21-7.44-7.72-10.08-1.87-1.4-1.74-.26-.54,1.32a27,27,0,0,1,4.57,9.16c.69,2.23,1.09,4-2.48,3.53s-7.14-3.41-9.39-6.53Z" style="fill:#fc0"/><path d="M490.93,109.66C484.44,102.28,485,92.17,478.63,85a104.53,104.53,0,0,1,18.24,11.41c4,3,8,6.73,9.39,10.45a8.08,8.08,0,0,1,.42,3.91c-2.24-3.55-4.89-7-8.64-9.3-2-1.22-1.76-.1-.41,1.37a27,27,0,0,1,5.42,8.68c.89,2.15,1.47,3.92-2.14,3.75S493.47,112.55,490.93,109.66Z" style="fill:#fc0"/><path d="M461.4,90.27c-7.41-6.46-8.2-16.55-15.46-22.82a104.51,104.51,0,0,1,19.59,8.91c4.39,2.49,8.8,5.61,10.69,9.11a8.07,8.07,0,0,1,.93,3.82c-2.69-3.22-5.78-6.3-9.79-8.08-2.13-.95-1.75.13-.23,1.41a27,27,0,0,1,6.52,7.89c1.17,2,2,3.69-1.62,4s-7.72-1.72-10.63-4.25Z" style="fill:#fc0"/><path d="M428.65,76.66c-8.07-5.61-10-15.56-17.86-21a104.49,104.49,0,0,1,20.45,6.71c4.64,2,9.36,4.62,11.62,7.89A8.08,8.08,0,0,1,444.2,74c-3-2.91-6.43-5.63-10.62-7-2.23-.71-1.73.33-.07,1.43a27,27,0,0,1,7.34,7.13c1.38,1.87,2.36,3.45-1.18,4.16S431.81,78.86,428.65,76.66Z" style="fill:#fc0"/><path d="M412.64,38.39C403.1,36,394.07,28.24,385.59,23.25a149.07,149.07,0,0,0,15.49.11c7-.06,13.29.08,19.39,2.55,4.72,1.91,6.79,4,6.79,4.57,0,1.62-6.39-.54-9.72-.91-.81-.09-4.51-.34-4.73.52-.13.51,2.93,1,3.69,1.19a36.11,36.11,0,0,1,9.63,3.89,1.47,1.47,0,0,1,.74.77l-.77.27c-2.31.8-4.73,1.78-7.17,2.63a28.07,28.07,0,0,1-6.29-.46Z" style="fill:#fc0"/><path d="M437.12,34.85c-8-5.64-9.89-15.6-17.77-21.07a104.57,104.57,0,0,1,20.42,6.79c4.63,2,9.34,4.66,11.59,7.94a8.08,8.08,0,0,1,1.32,3.7c-3-2.92-6.41-5.65-10.59-7-2.22-.72-1.73.32-.08,1.43a27,27,0,0,1,7.31,7.16c1.37,1.88,2.35,3.46-1.19,4.15s-7.86-.89-11-3.1Z" style="fill:#fc0"/><path d="M526.88,87.91c-9.24-3.36-18.45.83-27.45-2.48A104.6,104.6,0,0,0,516.7,98.26c4.3,2.64,9.17,5,13.15,4.94a8.09,8.09,0,0,0,3.79-1c-4.12-.8-8.31-2-11.81-4.66-1.86-1.41-.73-1.6,1.13-.88A27,27,0,0,0,533,98.51c2.33,0,4.18-.06,2.72-3.36s-5.24-5.93-8.86-7.24Z" style="fill:#fc0"/><path d="M527.67,84.19c-6.13-7.68-5.1-17.75-11.11-25.23a104.54,104.54,0,0,1,17.67,12.28c3.88,3.23,7.64,7.1,8.88,10.88a8.08,8.08,0,0,1,.23,3.92c-2.07-3.65-4.55-7.23-8.18-9.7-1.93-1.31-1.75-.18-.48,1.35a27,27,0,0,1,5,8.94c.79,2.19,1.28,4-2.32,3.65s-7.29-3.08-9.69-6.08Z" style="fill:#fc0"/><path d="M552.38,107.76c-4.63-8.67-1.78-18.38-6.34-26.82a104.53,104.53,0,0,1,15.15,15.28c3.22,3.89,6.23,8.37,6.75,12.32a8.09,8.09,0,0,1-.49,3.9c-1.37-4-3.16-7.94-6.28-11-1.66-1.64-1.69-.5-.71,1.24a27,27,0,0,1,3.29,9.69c.38,2.3.53,4.15-2.94,3.16S554.19,111.16,552.38,107.76Z" style="fill:#fc0"/><path d="M573.71,133c-3.61-9.14.34-18.47-3.22-27.38a104.54,104.54,0,0,1,13.29,16.92c2.76,4.23,5.22,9,5.29,13a8.11,8.11,0,0,1-.93,3.82c-.91-4.1-2.23-8.25-5-11.68-1.46-1.82-1.62-.69-.85,1.15a27,27,0,0,1,2.15,10c.11,2.33.05,4.18-3.28,2.81s-6.07-5.08-7.48-8.66Z" style="fill:#fc0"/><path d="M551.42,111.76c-8.48-5-18.3-2.52-26.55-7.41a104.5,104.5,0,0,0,14.66,15.75c3.75,3.38,8.11,6.56,12,7.24a8.08,8.08,0,0,0,3.91-.33c-3.91-1.53-7.81-3.48-10.77-6.72-1.57-1.72-.43-1.71,1.27-.66a27,27,0,0,0,9.55,3.68c2.28.47,4.13.7,3.28-2.81s-4.08-6.78-7.4-8.73Z" style="fill:#fc0"/><path d="M498.14,68.68c-9.5-2.51-18.3,2.51-27.56,0a104.56,104.56,0,0,0,18.37,11.21c4.52,2.24,9.58,4.13,13.54,3.73a8.08,8.08,0,0,0,3.68-1.38C502,81.85,497.71,81,494,78.69c-2-1.24-.87-1.53,1-1a27,27,0,0,0,10.19,1c2.32-.16,4.16-.44,2.4-3.59s-5.76-5.43-9.48-6.41Z" style="fill:#fc0"/><path d="M468.22,52.53c-9.59-2.18-18.2,3.14-27.55,1a104.58,104.58,0,0,0,18.75,10.57c4.6,2.08,9.72,3.79,13.67,3.26a8.08,8.08,0,0,0,3.63-1.5c-4.19-.27-8.49-1-12.3-3.14-2-1.17-.93-1.5,1-1a27,27,0,0,0,10.22.61c2.32-.24,4.14-.59,2.28-3.67S472,53.38,468.22,52.53Z" style="fill:#fc0"/><path d="M498.63,64.49c-6.85-7.05-6.8-17.18-13.51-24A104.6,104.6,0,0,1,503.91,51c4.17,2.84,8.3,6.33,9.9,10a8.08,8.08,0,0,1,.61,3.88c-2.41-3.43-5.23-6.76-9.09-8.86-2-1.12-1.76,0-.34,1.39a27,27,0,0,1,5.84,8.41c1,2.1,1.66,3.84-2,3.85S501.31,67.25,498.63,64.49Z" style="fill:#fc0"/><path d="M468.81,49c-7.19-6.7-7.65-16.81-14.69-23.32a104.55,104.55,0,0,1,19.28,9.55c4.31,2.63,8.6,5.9,10.38,9.46a8.08,8.08,0,0,1,.8,3.85C482,45.22,479,42,475.06,40.13c-2.1-1-1.76.08-.27,1.4A27,27,0,0,1,481,49.64c1.1,2.05,1.85,3.75-1.76,3.95s-7.66-2-10.48-4.59Z" style="fill:#fc0"/><path d="M572,136.53c-8-5.76-18-4.26-25.72-9.91a104.52,104.52,0,0,0,13.09,17.08c3.41,3.72,7.45,7.3,11.29,8.36a8.08,8.08,0,0,0,3.93,0c-3.74-1.89-7.44-4.21-10.08-7.72-1.4-1.87-.26-1.74,1.32-.54a27,27,0,0,0,9.16,4.57c2.23.69,4,1.09,3.53-2.48s-3.41-7.14-6.53-9.39Z" style="fill:#fc0"/><path d="M592.94,162c-8.2-5.41-18.14-3.48-26.12-8.79a104.54,104.54,0,0,0,13.82,16.5c3.57,3.57,7.76,7,11.64,7.86a8.08,8.08,0,0,0,3.93-.13c-3.82-1.73-7.61-3.88-10.4-7.28-1.48-1.8-.34-1.73,1.3-.6a27,27,0,0,0,9.35,4.17c2.25.59,4.08.91,3.42-2.64S596.16,164.07,592.94,162Z" style="fill:#fc0"/><path d="M612.66,187.62c-7.74-6.06-17.8-4.94-25.32-10.88a104.51,104.51,0,0,0,12.43,17.56c3.27,3.85,7.17,7.58,11,8.78a8.07,8.07,0,0,0,3.92.19c-3.67-2-7.27-4.49-9.78-8.1-1.33-1.92-.2-1.75,1.34-.49a27,27,0,0,0,9,4.91c2.2.77,4,1.24,3.63-2.35s-3.14-7.26-6.17-9.64Z" style="fill:#fc0"/><path d="M595.12,158.24c-3.79-9.07,0-18.47-3.77-27.3A104.56,104.56,0,0,1,605,147.59c2.84,4.17,5.41,8.92,5.56,12.9a8,8,0,0,1-.86,3.83c-1-4.08-2.4-8.2-5.21-11.57-1.5-1.79-1.63-.66-.83,1.17a27,27,0,0,1,2.36,10c.16,2.32.14,4.18-3.23,2.87s-6.17-5-7.65-8.51Z" style="fill:#fc0"/><path d="M614.34,184.61c-3.53-9.18.5-18.46-3-27.4a104.53,104.53,0,0,1,13.15,17c2.72,4.25,5.15,9.08,5.18,13.06a8.06,8.06,0,0,1-1,3.81c-.87-4.1-2.16-8.27-4.88-11.72-1.44-1.83-1.61-.7-.86,1.14a27,27,0,0,1,2.07,10c.09,2.33,0,4.18-3.31,2.78s-6-5.13-7.4-8.72Z" style="fill:#fc0"/><path d="M526.15,204.87c.28.08.56.15.84.21a8.07,8.07,0,0,0,6.21-1.1c-.11,2.9-.43,5.85-.57,8.61a28.83,28.83,0,0,0,.2,6.12,28.56,28.56,0,0,0-4.27-2c-2.06-.81-4.28-1.55-6.47-2.38a7.86,7.86,0,0,0,4.25-7.14,13.63,13.63,0,0,0-.19-2.36Z" style="fill:#fc0"/><path d="M506.45,177.81l.6.06a8.07,8.07,0,0,0,6-1.92c.14,2.85.08,5.77.19,8.48a29,29,0,0,0,.89,6.71,28.78,28.78,0,0,0-5.09-1.71c-2-.52-4.14-1-6.27-1.49a7.82,7.82,0,0,0,4-8.19,13.45,13.45,0,0,0-.41-1.94Z" style="fill:#fc0"/><path d="M483,152l.58-.06a8.07,8.07,0,0,0,5.54-3.14c.76,3.41,1.11,7,1.68,10.35a29,29,0,0,0,1.69,6.37,28.72,28.72,0,0,0-5.22-.95c-2-.23-4.18-.37-6.33-.58a7.81,7.81,0,0,0,3.26-9.38A14,14,0,0,0,483,152Z" style="fill:#fc0"/><path d="M455.9,133.9l.53-.12a8.13,8.13,0,0,0,5-3.39c.85,2.23,1.62,4.5,2.45,6.61a29.06,29.06,0,0,0,3.25,6.32,28.62,28.62,0,0,0-5,.07c-1.89.14-3.88.38-5.88.57a7.87,7.87,0,0,0,.76-8.05,13.62,13.62,0,0,0-1.1-2Z" style="fill:#fc0"/><path d="M570.57,202.2l.75.24a7.86,7.86,0,0,0,8-1.93c-.17,2.29-.42,4.58-.54,6.75a28.93,28.93,0,0,0,.33,7.43,28.8,28.8,0,0,0-5.23-2.22c-2.17-.74-4.51-1.4-6.81-2.15a8,8,0,0,0,3.55-6.29A13.39,13.39,0,0,0,570.57,202.2Z" style="fill:#fc0"/><path d="M551.16,171.81l.63.15a7.86,7.86,0,0,0,7.83-2.57c.16,3.78-.3,7.79-.43,11.45a29,29,0,0,0,.35,6.52,28.79,28.79,0,0,0-5.15-2.09c-3-1-6.22-1.77-9.28-2.88a7.81,7.81,0,0,0,6.29-7.87,14.1,14.1,0,0,0-.26-2.72Z" style="fill:#fc0"/><path d="M530,142.39l.78,0a7.92,7.92,0,0,0,6.72-3.37c.58,4,.38,8.35.54,12.28a28.9,28.9,0,0,0,1,7.08,28.72,28.72,0,0,0-4.94-1.63c-3.15-.82-6.64-1.45-9.89-2.45l.16,0a7.88,7.88,0,0,0,6.33-9.62,13.75,13.75,0,0,0-.7-2.29Z" style="fill:#fc0"/><path d="M501.95,118.19l.54,0a7.8,7.8,0,0,0,7.23-6.44c1.74,4.09,2.47,9,3.53,13.25a28.92,28.92,0,0,0,2.33,6.6,28.79,28.79,0,0,0-5.47-.61c-3.91-.16-8.24,0-12.21-.54a7.85,7.85,0,0,0,5-10,13.72,13.72,0,0,0-.91-2.24Z" style="fill:#fc0"/><path d="M472.94,97.35c.35-.05.69-.11,1-.19a7.91,7.91,0,0,0,5.83-4.91c1.39,3.31,2.37,7,3.51,10.21a28.94,28.94,0,0,0,2.89,6.25,28.66,28.66,0,0,0-5.13-.07c-2.51.12-5.18.4-7.83.54a7.81,7.81,0,0,0,1.36-9.23,14.31,14.31,0,0,0-1.68-2.59Z" style="fill:#fc0"/><path d="M441.08,82.39c.27-.07.55-.16.81-.25a7.82,7.82,0,0,0,5.35-9c2.22,3.4,3.86,7.46,5.66,11a28.91,28.91,0,0,0,4.64,6.92,29,29,0,0,0-6.35.82c-3.11.67-6.42,1.64-9.7,2.23a7.8,7.8,0,0,0,1.16-9.39,14,14,0,0,0-1.58-2.31Z" style="fill:#fc0"/><path d="M535.54,104.7c2.49.36,5,.59,7.37.95a28.84,28.84,0,0,1,5.49,1.23A29,29,0,0,1,546.61,99c-.35-3.19-.47-6.67-1-10a7.87,7.87,0,0,1-6.85,4.21h-.72a13.82,13.82,0,0,1,.92,2.34,7.8,7.8,0,0,1-3.45,9.13Z" style="fill:#fc0"/><path d="M509.49,72.51c.37,0,.73-.06,1.09-.11a7.81,7.81,0,0,0,6.8-6.16c1.23,3.37,2,7.07,3,10.38a29,29,0,0,0,3,7.08,28.87,28.87,0,0,0-6-.27c-2.63.09-5.44.35-8.21.43a7.83,7.83,0,0,0,1.72-8.66,14.25,14.25,0,0,0-1.41-2.7Z" style="fill:#fc0"/><path d="M480,56.46c.37,0,.74-.09,1.11-.16a7.81,7.81,0,0,0,6.48-6.48c1.1,2.62,2,5.36,3,7.86a29,29,0,0,0,4,7.16,28.89,28.89,0,0,0-6.34.25c-2.44.31-5,.78-7.61,1.11a7.92,7.92,0,0,0,.52-7.58A13.82,13.82,0,0,0,480,56.46Z" style="fill:#fc0"/><path d="M559.21,128.52a7.92,7.92,0,0,0,2.74-7,14.14,14.14,0,0,0-.6-2.87l.33.05a7.87,7.87,0,0,0,7.51-2.92c0,2.67-.19,5.38-.21,7.91a29,29,0,0,0,.83,7.87,28.79,28.79,0,0,0-5.7-1.91c-1.57-.39-3.23-.74-4.91-1.11Z" style="fill:#fc0"/><path d="M591.35,157.4a28.88,28.88,0,0,0-6.59-2c-2.2-.45-4.56-.8-6.9-1.25a7.89,7.89,0,0,0,3.7-6.93,13.71,13.71,0,0,0-.22-2.39l.35.1a7.81,7.81,0,0,0,8.56-3c0,2.38-.09,4.76-.06,7a28.91,28.91,0,0,0,1.15,8.42Z" style="fill:#fc0"/><path d="M610.3,182.37a28.81,28.81,0,0,0-5.27-1.95c-1.65-.48-3.39-.91-5.14-1.37a7.93,7.93,0,0,0,3.05-6.84,14.17,14.17,0,0,0-.34-2.43l.73.2a8,8,0,0,0,6.6-1.17c-.07,2.17-.21,4.34-.24,6.4a28.94,28.94,0,0,0,.6,7.16Z" style="fill:#fc0"/><path d="M449.5,40.38a13,13,0,0,0,1.4-.41,7.84,7.84,0,0,0,5.4-6.63c1.57,3,2.83,6.3,4.21,9.24a29,29,0,0,0,3.72,6.22,28.82,28.82,0,0,0-6,.48c-2.62.42-5.4,1-8.17,1.47a7.81,7.81,0,0,0,.22-9.26A13.24,13.24,0,0,0,449.5,40.38Z" style="fill:#fc0"/><path d="M592,378.83c2.24-2.08,4.49-4.16,6.65-6.34,1.39-1.25,2.65-2.48,3.74-3.66a8.1,8.1,0,0,1-6.49.29h0a6.16,6.16,0,0,1-1.32-.85,9.38,9.38,0,0,1-2.37-4,10.27,10.27,0,0,1-4,4.31,6.16,6.16,0,0,1-1.5.47h0a7.91,7.91,0,0,1-4.52-.88q.5,1.19,1.1,2.43c1.15,2.84,2.44,5.63,3.7,8.42a22.06,22.06,0,0,1,1.4,4.41,21.59,21.59,0,0,1,3.67-4.59Z" style="fill:#fc0"/><path d="M605.16,337.22a8.4,8.4,0,0,1-1-.1h0a6.21,6.21,0,0,1-1.47-.56,9.39,9.39,0,0,1-3.14-3.41,10.26,10.26,0,0,1-3,5,6.15,6.15,0,0,1-1.37.77h0a8.62,8.62,0,0,1-8.21-1.86q.35.66.72,1.34c1.33,2.76,2.78,5.46,4.22,8.17a22,22,0,0,1,1.68,4.31,21.57,21.57,0,0,1,3.38-4.81c2.1-2.22,4.23-4.44,6.25-6.74q1.07-1.09,2-2.14Z" style="fill:#fc0"/><path d="M584.91,410.81c2.41-1.88,4.84-3.75,7.19-5.72,1.45-1.09,2.77-2.17,3.94-3.23a8.11,8.11,0,0,1-6.48-.12h0a6.05,6.05,0,0,1-1.27-.94,9.39,9.39,0,0,1-2.12-4.13,10.27,10.27,0,0,1-4.27,4,6.1,6.1,0,0,1-1.53.37h0a7.9,7.9,0,0,1-4-.93q.28.83.6,1.68c.9,2.93,1.93,5.82,2.94,8.71a22,22,0,0,1,1,4.51,21.58,21.58,0,0,1,4.06-4.25Z" style="fill:#fc0"/><path d="M605.79,305.44a8.25,8.25,0,0,1-1.39,0h0a6.21,6.21,0,0,1-1.52-.4,9.4,9.4,0,0,1-3.48-3.06,10.26,10.26,0,0,1-2.48,5.34,6.22,6.22,0,0,1-1.29.91h0a8.06,8.06,0,0,1-6.22.1l.38.44c1.87,2.43,3.85,4.77,5.82,7.12a22,22,0,0,1,2.53,3.87,21.59,21.59,0,0,1,2.31-5.4c1.6-2.61,3.22-5.21,4.72-7.89l.67-1.07Z" style="fill:#fc0"/><path d="M601.45,276.45a8.36,8.36,0,0,1-1.48,0h0a6.23,6.23,0,0,1-1.52-.42A9.39,9.39,0,0,1,595,273a10.25,10.25,0,0,1-2.53,5.31,6.09,6.09,0,0,1-1.29.9h0a8,8,0,0,1-3.09.65c1.82,1.86,3.7,3.66,5.57,5.47a22,22,0,0,1,2.92,3.58,21.6,21.6,0,0,1,1.73-5.62c1.08-2.27,2.17-4.54,3.2-6.83Z" style="fill:#fc0"/><path d="M586.31,364.85c3.38-.62,4.37-5.39,4.51-8.51.19-4.12-1.23-7.34-3.28-11.16-2.25-4.21-4.9-8.59-6.41-14.44-2.43,6.68-4.65,12.38-4.37,19.49a27.24,27.24,0,0,0,2.88,11.09c-.35-5,.4-11.22,1.2-11C582.17,350.63,581.83,365.67,586.31,364.85Z" style="fill:#fc0"/><path d="M597.35,365.17c-3.09-1.5-2.77-6.36-2.07-9.4.92-4,3.15-6.74,6.15-9.88,3.29-3.45,7-7,10-12.19.55,7.08,1.17,13.18-1,20a27.25,27.25,0,0,1-5.75,9.92c1.68-4.73,2.61-10.92,1.79-10.95-1.36,0-5.06,14.54-9.16,12.55Z" style="fill:#fc0"/><path d="M580.26,396.88c3.41-.4,4.7-5.1,5-8.21.45-4.1-.77-7.4-2.58-11.35-2-4.34-4.35-8.88-5.5-14.81-2.84,6.51-5.42,12.07-5.58,19.18a27.24,27.24,0,0,0,2.18,11.25c0-5,1.11-11.17,1.89-10.93C577,382.43,575.74,397.41,580.26,396.88Z" style="fill:#fc0"/><path d="M591.26,397.88c-3-1.69-2.37-6.52-1.48-9.52,1.17-4,3.57-6.53,6.75-9.47,3.5-3.24,7.44-6.51,10.78-11.54.11,7.11.35,13.23-2.25,19.85a27.26,27.26,0,0,1-6.35,9.54c2-4.61,3.29-10.73,2.47-10.81-1.36-.13-6,14.19-9.93,12Z" style="fill:#fc0"/><path d="M593.92,334.93c3.18-1.3,3.16-6.17,2.66-9.26-.66-4.07-2.72-6.92-5.52-10.24-3.07-3.65-6.57-7.39-9.26-12.8-1,7-2,13.08-.25,20a27.24,27.24,0,0,0,5.11,10.26c-1.38-4.82-1.92-11.06-1.1-11,1.36,0,4.14,14.82,8.35,13.1Z" style="fill:#fc0"/><path d="M604.78,333c-3.33-.83-4-5.65-4-8.77.07-4.12,1.69-7.24,4-10.94,2.51-4.06,5.43-8.27,7.31-14,2,6.82,3.87,12.65,3.14,19.73a27.25,27.25,0,0,1-3.57,10.89c.66-5,.3-11.22-.51-11.08-1.34.24-1.95,15.27-6.37,14.17Z" style="fill:#fc0"/><path d="M571.63,427.75c3.43-.1,5.13-4.67,5.74-7.73.81-4-.12-7.44-1.57-11.53-1.59-4.5-3.55-9.23-4.17-15.24-3.41,6.24-6.46,11.54-7.25,18.61a27.25,27.25,0,0,0,1.18,11.4c.4-5,2.09-11,2.85-10.72C569.67,413.07,567.07,427.89,571.63,427.75Z" style="fill:#fc0"/><path d="M582.49,429.72c-2.83-1.95-1.78-6.7-.64-9.61,1.51-3.84,4.13-6.19,7.56-8.84,3.77-2.92,8-5.83,11.76-10.55-.52,7.09-.82,13.2-4,19.58a27.26,27.26,0,0,1-7.17,8.94c2.37-4.42,4.22-10.4,3.41-10.55-1.34-.25-7.19,13.61-10.94,11Z" style="fill:#fc0"/><path d="M594,304.39c3-1.63,2.49-6.47,1.67-9.48-1.09-4-3.44-6.6-6.57-9.61-3.44-3.31-7.31-6.66-10.56-11.75-.25,7.1-.61,13.22,1.85,19.89a27.26,27.26,0,0,0,6.17,9.66c-1.88-4.65-3.08-10.8-2.26-10.86,1.36-.1,5.68,14.3,9.69,12.15Z" style="fill:#fc0"/><path d="M604.56,301.28c-3.4-.47-4.6-5.19-4.87-8.31-.37-4.11.92-7.38,2.8-11.29,2.06-4.3,4.53-8.79,5.79-14.7,2.71,6.57,5.18,12.17,5.2,19.29a27.21,27.21,0,0,1-2.41,11.21c.14-5-.88-11.19-1.67-11-1.31.38-.33,15.39-4.84,14.77Z" style="fill:#fc0"/><path d="M589.54,275.31c3-1.6,2.55-6.45,1.75-9.47-1.06-4-3.38-6.63-6.48-9.66-3.41-3.34-7.25-6.72-10.45-11.84-.31,7.1-.72,13.21,1.68,19.91a27.25,27.25,0,0,0,6.08,9.72c-1.84-4.67-3-10.82-2.16-10.88,1.36-.09,5.55,14.35,9.58,12.23Z" style="fill:#fc0"/><path d="M600.16,272.29c-3.4-.5-4.55-5.23-4.8-8.35-.33-4.11,1-7.37,2.9-11.27,2.1-4.28,4.6-8.75,5.92-14.65,2.66,6.59,5.08,12.22,5,19.33a27.23,27.23,0,0,1-2.5,11.19c.18-5-.79-11.2-1.58-11-1.31.37-.46,15.38-5,14.72Z" style="fill:#fc0"/><path d="M551.2,359.29a22.44,22.44,0,0,0-1.09-3c-1.21-2.6-2.44-5.19-3.56-7.83a8,8,0,0,0,5.92,1h0a6.21,6.21,0,0,0,1.44-.63,7.28,7.28,0,0,0,1.45-1.29,9.2,9.2,0,0,0,2.9,3.26,6.5,6.5,0,0,0,.75.36c-1.73,1.73-3.5,3.4-5.27,5.09a22.29,22.29,0,0,0-2.55,3Z" style="fill:#fc0"/><path d="M551.3,321a7.92,7.92,0,0,0,3.62-.44h0a6,6,0,0,0,1.34-.83,7,7,0,0,0,1-1.17,6.39,6.39,0,0,0,.8.54,6.18,6.18,0,0,0,1.48.54h0a8,8,0,0,0,2.95-.1q-.45.7-.94,1.41c-1.58,2.62-3.28,5.17-5,7.74l-.2.31a22.72,22.72,0,0,0-1.35-2.32c-1.28-1.89-2.58-3.77-3.83-5.68Z" style="fill:#fc0"/><path d="M537.66,416.76c2.62-1.59,5.25-3.16,7.81-4.85a53.69,53.69,0,0,0,4.87-3.16,7.94,7.94,0,0,1-5.35-.61h0a6.14,6.14,0,0,1-1.24-1,9,9,0,0,1-1.9-3.71,11.48,11.48,0,0,1-5.7,5.34,6.12,6.12,0,0,1-1.56.24h0a7.92,7.92,0,0,1-3.6-1.05c.51,2.65,1.12,5.29,1.7,7.92a22,22,0,0,1,.48,4.6,21.58,21.58,0,0,1,4.53-3.74Z" style="fill:#fc0"/><path d="M543,387.6c-1-2.89-2.06-5.77-3-8.7-.18-.48-.35-1-.52-1.43a7.89,7.89,0,0,0,4.27,1h0a6.27,6.27,0,0,0,1.53-.39,9,9,0,0,0,3.2-2.63,8.43,8.43,0,0,0,1.76,2.88,6.18,6.18,0,0,0,1.28.92h0a8.07,8.07,0,0,0,2.35.65c-2,1.84-4,3.61-6,5.4a21.31,21.31,0,0,0-4.2,5.2,22.6,22.6,0,0,0-.77-2.9Z" style="fill:#fc0"/><path d="M534.83,404.84c3.43-.11,5.11-4.68,5.72-7.75.8-4-.14-7.44-1.6-11.52-1.6-4.49-3.58-9.22-4.22-15.22-3.39,6.25-6.43,11.56-7.2,18.64a27.25,27.25,0,0,0,1.22,11.4c.39-5,2.05-11,2.81-10.73,1.26.51-1.28,15.34,3.27,15.19Z" style="fill:#fc0"/><path d="M543.65,374.27c3.41-.44,4.64-5.16,4.94-8.27.4-4.11-.86-7.39-2.71-11.32-2-4.32-4.45-8.83-5.67-14.75-2.77,6.55-5.28,12.13-5.36,19.24a27.29,27.29,0,0,0,2.31,11.23c-.09-5,1-11.18,1.77-10.95,1.31.39.2,15.39,4.72,14.8Z" style="fill:#fc0"/><path d="M551.67,345.41c3.29-1,3.74-5.84,3.54-9-.27-4.12-2-7.15-4.5-10.73-2.7-3.93-5.82-8-8-13.64-1.67,6.91-3.25,12.82-2.18,19.86a27.25,27.25,0,0,0,4.1,10.71c-.9-4.94-.84-11.19,0-11.09,1.35.17,2.68,15.15,7,13.85Z" style="fill:#fc0"/><path d="M560.48,347.34c-3.31-.93-3.85-5.77-3.7-8.89.19-4.12,1.91-7.19,4.31-10.81,2.63-4,5.68-8.1,7.73-13.78,1.8,6.88,3.48,12.76,2.54,19.82a27.24,27.24,0,0,1-3.9,10.78c.82-5,.64-11.21-.17-11.09-1.35.2-2.41,15.2-6.8,14Z" style="fill:#fc0"/><path d="M553.22,375.38c-3-1.65-2.44-6.49-1.59-9.5,1.12-4,3.49-6.57,6.64-9.55,3.46-3.28,7.36-6.6,10.65-11.67.19,7.1.5,13.22-2,19.88a27.25,27.25,0,0,1-6.25,9.61c1.92-4.64,3.17-10.77,2.35-10.84-1.36-.11-5.79,14.26-9.79,12.07Z" style="fill:#fc0"/><path d="M546.76,404.33c-3-1.76-2.21-6.57-1.26-9.55,1.26-3.93,3.72-6.44,7-9.31,3.58-3.16,7.59-6.34,11.05-11.29-.06,7.11,0,13.23-2.71,19.79a27.24,27.24,0,0,1-6.58,9.39c2.08-4.57,3.54-10.65,2.72-10.75-1.36-.16-6.29,14-10.2,11.72Z" style="fill:#fc0"/><path d="M560.91,314.85c-3.34-.79-4.09-5.6-4.08-8.72,0-4.13,1.6-7.26,3.84-11,2.46-4.09,5.33-8.33,7.14-14.09,2.09,6.79,4,12.6,3.38,19.69a27.24,27.24,0,0,1-3.44,10.93c.6-5,.16-11.22-.64-11.07-1.34.26-1.76,15.29-6.2,14.25Z" style="fill:#fc0"/><path d="M553.1,316c3.12-1.44,2.88-6.31,2.24-9.36-.85-4-3-6.79-6-10-3.23-3.51-6.89-7.09-9.82-12.38-.68,7.07-1.41,13.15.64,20a27.25,27.25,0,0,0,5.57,10c-1.59-4.76-2.41-11-1.59-11,1.36,0,4.79,14.62,8.93,12.72Z" style="fill:#fc0"/><path d="M522.49,432c3.42.3,5.64-4,6.6-7,1.27-3.92.75-7.4-.21-11.63-1.05-4.65-2.45-9.58-2.37-15.62-4.11,5.8-7.77,10.71-9.37,17.64a27.25,27.25,0,0,0-.15,11.46c1-4.92,3.36-10.71,4.08-10.31,1.19.66-3.11,15.07,1.42,15.47Z" style="fill:#fc0"/><path d="M533,435.26c-2.58-2.26-1-6.86.49-9.62,1.95-3.64,4.82-5.66,8.54-7.9,4.09-2.46,8.61-4.86,12.91-9.1-1.34,7-2.36,13-6.24,19a27.24,27.24,0,0,1-8.17,8c2.87-4.12,5.41-9.84,4.62-10.08-1.3-.4-8.72,12.68-12.15,9.68Z" style="fill:#fc0"/><path d="M637,387.6a8.21,8.21,0,0,1-1.83-.56h0a6,6,0,0,1-1.28-.91,9.38,9.38,0,0,1-2.19-4.09,10.26,10.26,0,0,1-4.2,4.12,6.15,6.15,0,0,1-1.52.4h0a8,8,0,0,1-3.19-.47c.87,2.35,1.81,4.69,2.73,7a22,22,0,0,1,1.19,4.46,21.58,21.58,0,0,1,3.89-4.4c2.16-1.83,4.34-3.65,6.45-5.55Z" style="fill:#fc0"/><path d="M647.73,353.63a8,8,0,0,1-5.82.65h0a6.12,6.12,0,0,1-1.41-.71,9.38,9.38,0,0,1-2.78-3.71,10.25,10.25,0,0,1-3.52,4.71,6.14,6.14,0,0,1-1.44.63h0a7.92,7.92,0,0,1-5.06-.6q.33.7.69,1.42c1.2,2.82,2.53,5.58,3.84,8.35a22,22,0,0,1,1.48,4.38,21.57,21.57,0,0,1,3.6-4.65c2.21-2.12,4.43-4.24,6.55-6.45a54.81,54.81,0,0,0,3.95-4Z" style="fill:#fc0"/><path d="M645.81,324.07a8.11,8.11,0,0,1-2.16-.19h0a6.15,6.15,0,0,1-1.43-.65,9.38,9.38,0,0,1-2.93-3.6,10.26,10.26,0,0,1-3.34,4.85,6.2,6.2,0,0,1-1.42.68h0a7.91,7.91,0,0,1-3.77,0c1.52,2.42,3.14,4.78,4.74,7.14a22,22,0,0,1,2.13,4.1,21.58,21.58,0,0,1,2.84-5.14c1.81-2.39,3.65-4.77,5.38-7.22Z" style="fill:#fc0"/><path d="M647.88,291.36a8.1,8.1,0,0,1-2.24.32h0a6.19,6.19,0,0,1-1.54-.32,9.39,9.39,0,0,1-3.65-2.86,10.26,10.26,0,0,1-2.18,5.47,6,6,0,0,1-1.23,1h0a8,8,0,0,1-5.4.67c1.54,2.22,3.16,4.39,4.76,6.57a22,22,0,0,1,2.29,4,21.6,21.6,0,0,1,2.64-5.25c1.75-2.51,3.53-5,5.2-7.58q.75-1,1.42-2Z" style="fill:#fc0"/><path d="M642.6,258.89a7.93,7.93,0,0,1-3.19,1.09h0a6.15,6.15,0,0,1-1.57-.13,7.8,7.8,0,0,1-2.3-1.07,9.47,9.47,0,0,1-1.46,4.52,6.26,6.26,0,0,1-1.11,1.12h0a8.2,8.2,0,0,1-6.86,1l.75.63c2.24,2.09,4.57,4.08,6.89,6.09a22,22,0,0,1,3.12,3.41,21.58,21.58,0,0,1,1.41-5.71c1.16-2.83,2.33-5.67,3.38-8.54q.53-1.24,1-2.43Z" style="fill:#fc0"/><path d="M618,410.62c3.43-.24,4.94-4.87,5.43-8,.64-4.07-.42-7.43-2-11.46-1.77-4.43-3.92-9.08-4.78-15.06-3.15,6.37-6,11.79-6.5,18.89a27.22,27.22,0,0,0,1.64,11.34c.2-5,1.64-11.11,2.41-10.82,1.28.47-.72,15.37,3.83,15.06Z" style="fill:#fc0"/><path d="M628.9,412.15c-2.91-1.83-2.05-6.62-1-9.58,1.36-3.89,3.88-6.35,7.2-9.14,3.65-3.07,7.74-6.15,11.33-11-.23,7.1-.29,13.23-3.2,19.72a27.25,27.25,0,0,1-6.81,9.22c2.19-4.51,3.8-10.56,3-10.68-1.35-.19-6.63,13.89-10.49,11.46Z" style="fill:#fc0"/><path d="M625.8,382.35c3.4-.46,4.61-5.18,4.9-8.29.38-4.11-.9-7.38-2.77-11.3-2.05-4.31-4.5-8.81-5.75-14.72-2.73,6.56-5.22,12.16-5.26,19.27a27.25,27.25,0,0,0,2.37,11.22c-.12-5,.92-11.19,1.71-11,1.31.38.28,15.39,4.8,14.78Z" style="fill:#fc0"/><path d="M636.81,383.17c-3-1.64-2.47-6.48-1.64-9.49,1.1-4,3.46-6.59,6.59-9.59,3.45-3.3,7.33-6.64,10.59-11.72.23,7.1.57,13.22-1.91,19.89a27.24,27.24,0,0,1-6.2,9.65c1.89-4.65,3.11-10.79,2.29-10.85-1.36-.11-5.72,14.29-9.72,12.12Z" style="fill:#fc0"/><path d="M631.91,351.07c3.29-1,3.77-5.82,3.57-8.94-.25-4.12-2-7.16-4.46-10.75-2.69-3.94-5.79-8-7.93-13.66-1.7,6.9-3.3,12.81-2.26,19.85a27.25,27.25,0,0,0,4.06,10.72c-.89-4.94-.8-11.2,0-11.09,1.35.18,2.63,15.16,7,13.87Z" style="fill:#fc0"/><path d="M642.92,350.19c-3.23-1.16-3.44-6-3.07-9.13.48-4.1,2.41-7,5.05-10.48,2.9-3.79,6.23-7.68,8.67-13.2,1.31,7,2.58,13,1.15,19.94a27.25,27.25,0,0,1-4.65,10.48c1.16-4.88,1.42-11.14.6-11.07C649.32,336.83,647.21,351.73,642.92,350.19Z" style="fill:#fc0"/><path d="M633.54,321.06c3.25-1.1,3.53-6,3.22-9.08-.41-4.1-2.29-7.08-4.88-10.56-2.84-3.83-6.1-7.78-8.46-13.34C622,295,620.63,301,621.95,308a27.24,27.24,0,0,0,4.48,10.55c-1.08-4.9-1.24-11.16-.42-11.08,1.36.12,3.22,15,7.54,13.59Z" style="fill:#fc0"/><path d="M644.26,319.51c-3.28-1-3.67-5.89-3.43-9,.32-4.11,2.13-7.13,4.64-10.67,2.75-3.9,5.92-7.92,8.15-13.53,1.58,6.93,3.09,12.87,1.93,19.88a27.27,27.27,0,0,1-4.23,10.65c1-4.92,1-11.18.17-11.09C650.13,305.91,648.6,320.88,644.26,319.51Z" style="fill:#fc0"/><path d="M635.16,291.17c2.93-1.8,2.12-6.6,1.13-9.56-1.31-3.91-3.81-6.39-7.1-9.22-3.62-3.11-7.68-6.23-11.21-11.13.15,7.1.15,13.23,3,19.75a27.24,27.24,0,0,0,6.71,9.3c-2.14-4.54-3.69-10.6-2.87-10.71,1.35-.18,6.48,14,10.36,11.58Z" style="fill:#fc0"/><path d="M645.56,287.47c-3.42-.28-4.88-4.92-5.34-8-.6-4.08.5-7.42,2.15-11.43,1.82-4.41,4-9,4.94-15,3.08,6.4,5.87,11.86,6.29,19a27.24,27.24,0,0,1-1.76,11.33c-.15-5-1.52-11.12-2.3-10.85C648.26,272.91,650.1,287.83,645.56,287.47Z" style="fill:#fc0"/><path d="M630.67,260.89c2.7-2.13,1.33-6.8,0-9.63-1.76-3.73-4.53-5.9-8.13-8.32-4-2.66-8.35-5.29-12.43-9.75,1,7,1.69,13.12,5.27,19.27a27.25,27.25,0,0,0,7.75,8.45c-2.66-4.26-4.9-10.1-4.1-10.3C620.34,250.27,627.09,263.71,630.67,260.89Z" style="fill:#fc0"/><path d="M638.84,255.81c-3.43.12-5.43-4.32-6.24-7.34-1.07-4-.37-7.43.8-11.61,1.29-4.59,2.93-9.44,3.15-15.48,3.81,6,7.21,11.09,8.47,18.09a27.24,27.24,0,0,1-.43,11.46c-.73-5-2.81-10.87-3.55-10.51-1.23.6,2.34,15.21-2.21,15.38Z" style="fill:#fc0"/><path d="M203,247.41c-11.83,6.73-26.81,3.44-33.45-7.34l-.06-.1c-10.29,2.56-21.28-1.24-26.7-10-6.64-10.78-2.43-25,9.4-31.7l30.38-17.27c11.83-6.73,26.81-3.44,33.45,7.34,5.42,8.8,3.61,19.89-3.68,27.32l.06.1c6.64,10.78,2.43,25-9.4,31.7Z" style="fill:#fff"/><path d="M203,247.41c-11.83,6.73-26.81,3.44-33.45-7.34l-.06-.1c-10.29,2.56-21.28-1.24-26.7-10s-3.61-19.85,3.64-27.28A28.07,28.07,0,0,0,145,221.59c2.83,10.74,16.5,19.53,25.35,14.53,4.47,11.14,20.18,10.8,29.17,5.69s16.86-18.17,8.85-27.3c8.82-5,7.37-20.79-1.06-28.34a30.9,30.9,0,0,0-18-7.95c10.27-2.53,21.22,1.28,26.63,10.06s3.61,19.89-3.68,27.32l.06.1C219,226.49,214.82,240.68,203,247.41Z" style="fill:#a1a3a5"/><path d="M227.24,23.06c-10.54,1.44-18.18,10.87-17,21v.09a19.27,19.27,0,0,0-11.58,19.49c1.13,10.18,10.59,17.26,21.14,15.81l27.07-3.71c10.54-1.44,18.18-10.87,17-21A18.07,18.07,0,0,0,248.38,39v-.09C247.24,28.69,237.78,21.61,227.24,23.06Z" style="fill:#fff"/><path d="M227.24,23.06c-10.54,1.44-18.18,10.87-17,21v.09a19.27,19.27,0,0,0-11.58,19.49,18.06,18.06,0,0,0,15.45,15.77,23,23,0,0,1-10-11.51c-3.46-8.29.7-20.61,8.57-21.72-2.64-9.35,7.2-16.79,15.21-17.89S247,31.8,246.49,41.58c7.88-1.05,14.6,9.78,13.06,18.75a24.66,24.66,0,0,1-7.21,13.87,19.26,19.26,0,0,0,11.53-19.47A18.07,18.07,0,0,0,248.38,39v-.09C247.24,28.69,237.78,21.61,227.24,23.06Z" style="fill:#a1a3a5"/><path d="M244.83,194.76c11.7-3.36,18.75-14.75,15.76-25.43l0-.1c8-4.91,12.27-14.1,9.82-22.82-3-10.68-14.92-16.61-26.62-13.25l-15.58-.44-14.46,9.08C202,145.16,195,156.55,198,167.23c2.45,8.72,10.85,14.28,20.22,14.19l0,.1C221.21,192.19,233.13,198.13,244.83,194.76Z" style="fill:#fff"/><path d="M244.83,194.76c11.7-3.36,18.75-14.75,15.76-25.43l0-.1c8-4.91,12.27-14.1,9.82-22.82s-10.82-14.26-20.17-14.19a25.61,25.61,0,0,1,13.31,10.57c5.32,8.26,2.69,22.15-6,24.69,4.57,9.53-5.32,19.19-14.21,21.74s-22.32-.39-23.38-10.94c-8.74,2.49-18.2-7.93-18-17.78a26.05,26.05,0,0,1,5.82-16.07c-8,4.92-12.22,14.09-9.77,22.79s10.85,14.28,20.22,14.19l0,.1c3,10.68,14.92,16.61,26.62,13.25Z" style="fill:#a1a3a5"/><path d="M122.24,103.71c1.42,11.51,11.08,19.84,21.57,18.61h.1c3.42,8.27,11.44,13.65,20,12.64,10.49-1.23,17.85-11.56,16.43-23.07l-3.65-29.55c-1.42-11.51-11.08-19.84-21.57-18.61-8.57,1-15,8.08-16.36,16.91h-.1C128.18,81.88,120.82,92.21,122.24,103.71Z" style="fill:#fff"/><path d="M122.24,103.71c1.42,11.51,11.08,19.84,21.57,18.61h.1c3.42,8.27,11.44,13.65,20,12.64s15-8.05,16.35-16.86A24.4,24.4,0,0,1,168.35,129c-8.56,3.77-21.24-.77-22.32-9.36-9.65,2.88-17.26-7.87-18.34-16.61s3.7-20.94,13.77-20.37c-1-8.6,10.17-15.94,19.41-14.26a24.8,24.8,0,0,1,14.25,7.87c-3.44-8.24-11.43-13.6-20-12.59s-15,8.08-16.36,16.91h-.1C128.18,81.88,120.82,92.21,122.24,103.71Z" style="fill:#a1a3a5"/><path d="M65.24,185c8.2,9.54,21.93,11.25,30.66,3.84l.08-.07c8.06,5.41,18.53,5.45,25.66-.61,8.73-7.42,9.17-21.16,1-30.7l-21-24.48c-8.2-9.54-21.93-11.25-30.66-3.84-7.13,6.06-8.73,16.34-4.61,25.09l-.08.07C57.48,161.74,57,175.48,65.24,185Z" style="fill:#fff"/><path d="M65.24,185c8.2,9.54,21.93,11.25,30.66,3.84l.08-.07c8.06,5.41,18.53,5.45,25.66-.61s8.72-16.3,4.63-25a26.46,26.46,0,0,1-4.19,17.05c-5.47,8.55-19.64,12.06-25.78,5-7,8.4-20.31,3.27-26.53-4S60.52,160,70,154.5c-6.1-7.14-.4-20.5,9-24.53a26.9,26.9,0,0,1,17.6-1.45c-8.06-5.38-18.49-5.4-25.61.64s-8.73,16.34-4.61,25.09l-.08.07C57.48,161.74,57,175.48,65.24,185Z" style="fill:#a1a3a5"/><path d="M125.22,114.82c-12-11.75-23.39-19-30.44-9.66-7.72,10.26,2.2,18.71,21.48,24.29Q127.37,125.31,125.22,114.82Z" style="fill:#fff"/><path d="M125.22,114.82c-12-11.75-23.39-19-30.44-9.66-7.72,10.26,2.2,18.71,21.48,24.29l.69-.27c-15.7-4.7-23.66-11.72-17.27-20.21,5.93-7.88,15.55-1.76,25.62,8.14a14.66,14.66,0,0,1,.25,1.65,15.44,15.44,0,0,0-.33-3.93Z" style="fill:#a1a3a5"/><path d="M280.43,50.59c9-4.77,20.82-6.47,22,3.47,13.58.48,8.09,14.8,3.4,19-4.77,4.06-9.08,6.95-15.76,8.7-6.77,1.05-16.79-1.52-20-8.41-2.52-10.69,1.33-16.24,10.34-22.79Z" style="fill:#fff"/><path d="M280.43,50.59c9-4.77,20.82-6.47,22,3.47,13.58.48,8.09,14.8,3.4,19-4.77,4.06-9.08,6.95-15.76,8.7a21,21,0,0,1-4.27.2c5.85-2.39,13.11-5.93,16.22-8.67,3.62-3.19,9.48-15.09-2-16.34-.71-8.46-14.42-7.74-23.17-3.58C277.93,52.46,279.13,51.54,280.43,50.59Z" style="fill:#a1a3a5"/><path d="M25.63,362.65c6.31-14.79,21.67-22.41,34.3-17l.12.05c7.54-9.77,19.67-14,30-9.65,12.62,5.39,17.74,21.75,11.43,36.54l-16.21,38c-6.31,14.79-21.67,22.41-34.3,17-10.31-4.4-15.61-16.12-13.77-28.33l-.12,0C24.43,393.81,19.32,377.44,25.63,362.65Z" style="fill:#fff"/><path d="M25.63,362.65c6.31-14.79,21.67-22.41,34.3-17l.12.05c7.54-9.77,19.67-14,30-9.65s15.59,16.08,13.78,28.26a32.16,32.16,0,0,0-10.59-18.82c-9.21-8.08-26.84-6.57-31.58,4.46-10.92-7.28-24.66,4.28-29.46,15.51s-3.64,29.16,9.17,32c-4.68,11.06,6.42,24.83,18.62,25.89A32.15,32.15,0,0,0,80.88,418c-7.55,9.73-19.65,14-29.94,9.59s-15.61-16.12-13.77-28.33l-.12,0C24.43,393.8,19.32,377.44,25.63,362.65Z" style="fill:#a1a3a5"/><path d="M132.43,304.26c16.07.47,28.79,12,28.39,25.69v.13c11.85,3.45,20.27,13.17,19.95,24.38-.4,13.72-13.76,24.47-29.83,24l-41.27-1.2c-16.07-.47-28.79-12-28.39-25.69.33-11.2,9.3-20.43,21.33-23.18v-.13C103,314.55,116.36,303.8,132.43,304.26Z" style="fill:#fff"/><path d="M132.43,304.26c16.07.47,28.79,12,28.39,25.69v.13c11.85,3.45,20.27,13.17,19.95,24.38s-9.26,20.39-21.26,23.16a32.16,32.16,0,0,0,13.64-16.73c4.15-11.53-3.7-27.38-15.7-27.76,2.78-12.83-13-21.39-25.21-21.74s-28.47,7.28-26.43,20.24c-12-.32-20.76,15.05-17.29,26.8a32.15,32.15,0,0,0,12.64,17.5c-11.81-3.46-20.2-13.17-19.87-24.36s9.3-20.43,21.33-23.18v-.13c.4-13.72,13.76-24.47,29.83-24Z" style="fill:#a1a3a5"/><path d="M43.1,270.78c17.2-5,34.58,2.91,38.82,17.59l0,.14c13.73-.37,26,7.08,29.42,19.06,4.24,14.68-6.27,30.61-23.47,35.58L43.76,355.89c-17.2,5-34.58-2.91-38.82-17.59-3.46-12,2.91-24.81,14.73-31.81l0-.14C15.39,291.67,25.9,275.74,43.1,270.78Z" style="fill:#fff"/><path d="M43.1,270.78c17.2-5,34.58,2.91,38.82,17.59l0,.14c13.73-.37,26,7.08,29.42,19.06s-2.89,24.76-14.67,31.78A35.79,35.79,0,0,0,105.48,317c.48-13.63-13.22-27.77-26.08-24.09C78,278.33,58.35,274.63,45.29,278.4s-27.7,17.38-21.14,30.44c-12.83,3.74-16.89,23-9.22,34.29a35.79,35.79,0,0,0,19.35,14.25c-13.7.34-25.89-7.1-29.34-19.07s2.91-24.81,14.73-31.81l0-.14C15.39,291.67,25.9,275.74,43.1,270.78Z" style="fill:#a1a3a5"/><path d="M150.2,409.65c.43-9.21,4.7-17.4,20.33-26.21a21.93,21.93,0,0,1,13.8-2.43c9.42,1.19,7.89,3.51,4.22,10.39-7,13.14-15.9,15.41-24.31,12-7.93-3.17-8.7,2-9,6.11ZM77.64,350.5c-.78,10.5,2.52,18.06,8.85,22.69,2.59,6.39,3.13,12.19,10,15.85a24.12,24.12,0,0,0,6.88,2.27l10.47,19,5.49-.1-9.12-18.12c1.94.1,4,.13,6.31.1,6-.07,8.44.16,10.29,6.48A55.55,55.55,0,0,1,128.54,410l6-.11a67.22,67.22,0,0,1-.29-10.84c.55-6,.95-4.3,5.24-4.28l.5,15,5.69-.1-.51-15.54c14-1.46,23.21-8.7,21.63-24.9-5.72,8-24.49,1.48-30.12,11.58,3.93-18.81-4.42-21.83-6.24-31.7-7.88,6.15-14.43,13.95-14.4,25.74-6.92-6.59-20.2-5.31-31.18-8-3.55-4.52-5.08-10.2-4.52-16.83,11.24-1.83,19-7.06,22.07-14.45-7.19,1.88-14.43-1.83-20.18-.47-5.07,1.19-9,3.59-11,8.63A30.79,30.79,0,0,0,69,327.21c-2.13-5.35-5-6-8.72-13.77-4.9,10.51-8.68,11.23-9,16.73s2.1,10.67,7.76,17a25.41,25.41,0,0,0-12.67-2.92c-9,.18-10,9.33-21.17,12.77,6.21,3.12,11.6,5.76,17.07,5.64a27.23,27.23,0,0,0,15.62-5.34c3.61-2.58,5.41-3,7.8-1,6.19,5.08,9.7,13.27,13.91,20,7.4,11.79,15.72,23,23,34.2l5.62-.1c-4.72-6.37-13.94-19.11-21.94-31.09-5.42-8.11-10.72-15.64-12.71-21.12C71.79,353.27,73,351,77.64,350.5Zm-23,25.08c6.28-2.22,15.92-2.26,23.87.87,6.41,10.3,13.6,19.91,20.73,30.67-5.76,2.63-15.34,4.73-22.43-.24,1-1.7,2.66-4.36,3.68-6.07C64.31,402.1,64.18,379.41,54.64,375.57Z" style="fill:#00a650"/><path d="M182.45,214.74c-1.69-8.19,3.38-24.19-5.14-32,10.05,4.65,12.86-4.33,24.72-4.48-8.38-6-25.78-14.09-36.18-3.41-5.11-4.42-9.69-6.05-15.88,1.36-9.38,11.22-18.1,25.32-27,39.7l3.65,2.43c8.42-15.14,16.92-29.89,25.58-39.21,4.41-4.75,7.12-4.17,9.69-.71-9.72,1.28-17.42,12.46-20.81,22.44-1.79,5.27-3,6.47-5.58,10.15a25.9,25.9,0,0,1,9.32-3.93c6.46-1.43,13.77-2,16.07-9,5.13,11.05,14.63,9.36,21.58,16.61Z" style="fill:#00a650"/><path d="M108.1,206c13.08-14.48,25.31-28.72,28.42-43.32,3.79-17.76-5.86-18.4-13.26-18.37,17,5.46,6.25,20.34,7.49,27.63-2-7.07-10.46-7.37-12.95-15.95-5,6.2-13.14,4.09-17.85,11.9-.33-9.92,1.82-17.87,10.91-23.64C96.92,140.05,95.35,131.81,94.32,123c4.28,6.86,26.11,7.43,26.46,17.87,11.22-1.49,21.21-.24,21.05,16.88S125.74,192.5,114,209.94L108.1,206Z" style="fill:#00a650"/><path d="M153.6,152.44c3.4-17.36,20.77-5.2,40.14-32.51,1.47-1.13,2.89-4.71,5-8.43-1.73-9-10.43-8.53-9.37,1.47.41,14.22-9.6,16.07-17.52,20.39,10.87-9.68,3-16.39,6.83-25.94-12,10.1-22.25,1.06-31.79-.55,8.31-8,18.75-15.95,32-11.6-8.32-11.07-10.95-22.14-4.08-31.49,1.47,12.56,16.95,18.24,13.59,32.65,6.46-.44,12.2.61,14.42,9.3,3.41-3.6,4.07-8.42.53-13-4.53-5.83-11.15-2.63-14.88-12.26-3.52-9.09-2-17.94,4.06-25.86-1.24,12.29,18.3,18.61,16.85,47l.57-.14c6.31-10.31,20.84-18.63,20.74-23.05-3.4-2.66-14.41,13.29-23.65-1.79,6.94,1.16,10.34-7.73,20-1.72-6.83-9,7.06-13.93,7.38-22.16,4.66,6.32,6.68,12.88,4.55,18.87,5.53-2.07,9.5,1.66,19,.14-7,9.25-14.79,9.87-22,7.35-1.56,7.11-13.47,14-18.29,22.83l.14,0c17-12.78,23.47-16.6,42.4-26.56-2.15-11.2,1.79-19.86,9.49-23.2,4.44-1.93,9.79-1.49,15.47-4.55-.82,7.81-8.92,8.57-10.23,13.74,6.92.25,10.62-.21,16,1.17-2.16,4.93-6.29,8.68-12.15,11.91,6.54.86,11.93,3.6,15.61,9.22a19.6,19.6,0,0,0-15.84,3.15,11.85,11.85,0,0,1-9.87.43c-4.7-1.7-6.52-4.48-7.68-8.47-21.41,10.33-47.72,28.7-63.82,47l.57.42c12.72-13.54,29.81-26.7,44.4-33.67,7.73-3.69,19.85-7.67,27,.24,5.8,6.42,8.71,21,24.67,20.52-2.33,7.55-7.6,9.48-14.19,8.86-.07,8.46-1.64,15.85-6.48,20.86-4.39-4.82-6.77-10.88-8.25-17.51l-4.13,3.6c.48-3.83-1.2-6.59-3-10.2-3.23-6.63-6.46-13.81,2.59-19.7a3.12,3.12,0,0,0,1.15-1.49C258,94.13,254,94.32,248,96.88a92.75,92.75,0,0,0-13,6.38c1.15-.21,2.35-.43,3.65-.64,7.7-1.77,13,2.36,14.46,7.95a38.21,38.21,0,0,0,5.91,13.11c-10.61-1.19-25.3-1.82-21.84-12.2,1.93-4.88-1.65-4.93-6-4.29-4.7.69-7.78,3.78-11.41,6.76,4.43.26,8.37,2.3,10.81,9.79,19.82-3.88,23.95,8.85,31.3,10.27-6.46,4.25-17,4.57-27.15,0,1.93,9.54-8,23.18-2.07,33.36-9.52-2.58-13.09-13.58-16.69-23-5,5.48-10.91,8.46-18.57,10.82,9.86-8.83,2.32-28.55,23.06-28.9.21-2.29,0-4.34-2-5.32-6.16-3.08-10.19,4.32-14,8-2.34,2.31-1.93,9.75-5.09,14.63-7,10.82-8.69,19.31-5.7,26.12-6.43-.38-10.54-4.26-12.57-9.75a28.62,28.62,0,0,1-21.13,9.53c1.74-3.53,5.24-8.72,6.18-16.55a4.48,4.48,0,0,1-1.86.13c-5.82,10.24-14.84,17.24-21.34,26.82-1.84,2.71-3.77,5.4-5.61,8.07-6.18,8.95-12.3,18.34-17.39,26l-3.42-2.28c9.14-13.56,18.66-26,26.75-40.25,9.35-16.51,4.08-32.55-13.88-38.57-6.65,1.11-18.37-.15-25.18-6.3,3.66-1.1,9-1.46,12.64-1.84-2.92-2.37-6.47-4.92-8-8.76,3.58-1.05,7.09-.75,11.6.34-2-3.56-5.67-5.47-4.79-11.78,6.55,6.59,17.55,5.05,17.39,23.42,15.09,8.86,19,18.42,19.36,28.39a23.81,23.81,0,0,1-1.31,8.36,92.47,92.47,0,0,0,10.24-13c-1.87-1.22-3.79-2.36-7.92.64Z" style="fill:#00a650"/><path d="M168,397.61c4.46-2.85,8.84-4.34,12.45-6.1,3.8-1.84-.89,2.82-6.59,5.54C169.7,399,166.69,398.44,168,397.61Z" style="fill:#fff"/><path d="M143.08,381.28a12.21,12.21,0,0,1,10.16-1.6c-3.64.83-5.37,1.51-7.48,3-2.38,1.64-3.11,3-4.23,2.28C139.91,383.86,141.84,382.13,143.08,381.28Z" style="fill:#fff"/><path d="M124.66,366.06c-3.47,3.21-3.05,9.18-2.25,14.66s4.83,6.19,3.51-.15C125,376.18,123.63,372,124.66,366.06Z" style="fill:#fff"/><path d="M38.44,356.77c4.82-.12,9.55-.43,13.18-3.49,5.34-4.51,7.36.09,2.41,3C48.92,359.26,42.59,359.52,38.44,356.77Z" style="fill:#fff"/><path d="M225,152.56c-1.39-4.62-2.58-9.21-.8-13.61,2.62-6.49-2.38-7-3.59-1.36C219.37,143.38,221.1,149.47,225,152.56Z" style="fill:#fff"/><path d="M156.7,105.25c4.81.33,9.55.47,13.45-2.24,5.74-4,7.32.77,2.12,3.2C166.89,108.71,160.58,108.38,156.7,105.25Z" style="fill:#fff"/><path d="M192.2,70.41c2,4.36,2.57,6.74,6.58,9.28,5.91,3.74,2.24,6.92-2.12,3.19S191.19,75.39,192.2,70.41Z" style="fill:#fff"/><path d="M273.07,109.45c-1.83-4.68-4-8-7.31-10.68-5.41-4.43-1.9-6.51,2.56-2.91a13.05,13.05,0,0,1,4.75,13.59Z" style="fill:#fff"/><path d="M274.8,55.44a17.56,17.56,0,0,0-4.69,10.05c-.82,6.94-4.76,5.06-3.83-.59C267.15,59.63,270.11,56.92,274.8,55.44Z" style="fill:#fff"/><path d="M233.8,63.61c-2.5,1.92-3.35,4.15-3.18,7.32.28,4.88,3.3,3.76,2.72.16A13.7,13.7,0,0,1,233.8,63.61Z" style="fill:#fff"/><path d="M177.41,82.18c-1,3-.43,5.32,1.5,7.84,3,3.87,4.84,1.25,2.33-1.4A13.7,13.7,0,0,1,177.41,82.18Z" style="fill:#fff"/><path d="M210,137.59c.54-3.1,2.13-4.9,5-6.2,4.45-2,4.86,1.18,1.4,2.33A13.7,13.7,0,0,0,210,137.59Z" style="fill:#fff"/><path d="M104.31,133.69c3-1,5.32-.49,7.86,1.41,3.91,2.93,1.31,4.83-1.37,2.35a13.7,13.7,0,0,0-6.48-3.76Z" style="fill:#fff"/><path d="M130,158.93c1-3,.5-5.31-1.39-7.86-2.92-3.92-4.83-1.32-2.35,1.37a13.7,13.7,0,0,1,3.75,6.49Z" style="fill:#fff"/><path d="M108.38,158.61c.08-3.15,1.38-5.16,4-6.88,4.1-2.65,5,.44,1.73,2.1A13.71,13.71,0,0,0,108.38,158.61Z" style="fill:#fff"/><path d="M171.73,199.22c-2.88-2.29-4.24-3.44-5-6.53-1.13-4.75,2.25-4.8,2.72-1.17a21.2,21.2,0,0,0,2.25,7.71Z" style="fill:#fff"/><path d="M471.67,478.94c-2.42,3.34-5.11,6.46-8,9.76,16.8-1.06,69.06,1,108.15.93,21.93-.05,42.42,2.05,47.4-4.14,11.84-14.72,20.38-30.83,26.87-46.07,3.57-8.36,6.37-20.42,9.39-32.68,3.83-17.43,2.55-29.6-3.92-30.26-.26,12.27-14.48,20-25.18,21-31.19,3.08-61.67,3.95-92.91,3.75-22.17-.14-26.28,11.22-29.92,19.31-2.86,6.35-4.48,9.87-7.32,16C488.8,451.45,481,466,471.67,478.94Z" style="fill:#fff"/><path d="M471.67,478.94c-2.42,3.34-5.11,6.46-8,9.76,16.8-1.06,69.06,1,108.15.93,21.93-.05,42.42,2.05,47.4-4.14,11.84-14.72,20.38-30.83,26.87-46.07-20.32,20-54.46,16.53-86.77,16-27.33-.44-55.22,1-78,8.79-3,5.08-6.25,10-9.67,14.72Z" style="fill:#00a650"/><path d="M655.39,407.15l.1-.41c3.83-17.43,2.55-29.6-3.92-30.26-.26,12.27-14.48,20-25.18,21-31.19,3.08-61.67,3.95-92.91,3.75-22.17-.14-26.28,11.22-29.92,19.31-2.86,6.34-4.47,9.87-7.32,16,45.82-22.09,138.84,8.33,159.15-29.42Z" style="fill:#ed1c24"/><path d="M228.57,490.76c-9.24-12-18.68-23.89-26.92-37.43-6-9.88-11.06-21-16.52-32.07-3.92-8-9.73-15.69-31.88-14.78a834.42,834.42,0,0,1-90.47-1.18c-12.54-.8-23.28,1.15-28-13.79-10.51,1.93,1.52,55.6,40.92,101.22,5.2,6,22.95,3.46,44.86,2.75C159.59,494.19,211.75,490.28,228.57,490.76Z" style="fill:#fff"/><path d="M238.47,491c-11.39-8.59-21.52-17.14-27.72-23.92-23.17-7.23-51.37-7.68-78.93-6.27-32.27,1.65-64.6,6.29-85.62-13a127,127,0,0,0,29.46,44.9c5.64,5.6,22.95,3.46,44.86,2.75,39.07-1.27,101.13-4.9,118-4.43Z" style="fill:#00a650"/><path d="M194.22,439.8C147.47,418.23,54.48,454.73,34,415.54c-6.23-16.8-5.74-24.5.7-25.39,1.65,1.75,1.66,4.24,3.57,5.62,13.36,9.69,34.33,10,54.06,10.54,22.54.59,45.77-.69,63.42-.52,22.17.22,25.45,7.5,29.37,15.46C188.21,427.5,191.15,433.76,194.22,439.8Z" style="fill:#ed1c24"/><path d="M620.71,155.95c4.83,11.62,8.6,21.49,13.21,31.57,2.56,5.59,7.07,16.07,11.79,26.47,5.19,11.42,9.46,20.47,6.75,28.28s-13.11,13.88-24.29,21.62c-22.89,15.85-53.75,32.23-67.13,42.27-10.58,7.94-19.57,19.48-23.73,29a212.57,212.57,0,0,0-2.9-44.65c-2.33-13-5.32-29-12.29-40.06-7.09-11.3-3.07-20.66,8-27.54C571,197.48,610.76,175.16,620.71,155.95Z" style="fill:#fff"/><path d="M620.71,155.95c4.06,9.77,7.36,18.3,11.06,26.75l-.13.31c-11.43,19-48.71,38.08-88.9,63.09-6.47,4-12.36,12.26-13.84,19.84a66.21,66.21,0,0,0-6.76-15.47c-7.09-11.3-3.07-20.66,8-27.54C571,197.48,610.76,175.16,620.71,155.95Z" style="fill:#ed1c24"/><path d="M644.75,211.87l1,2.11c5.19,11.42,9.46,20.47,6.75,28.28s-13.11,13.88-24.29,21.62c-22.89,15.85-53.75,32.23-67.13,42.27-10.58,7.94-19.57,19.48-23.73,29a215,215,0,0,0-2.37-41.55C539.23,276,633.16,238.94,644.75,211.87Z" style="fill:#00a650"/><path d="M65.69,163.37c-8.84,19.42-18.56,38.11-25.63,58.25-7.23,20.59-.62,32.84,13.16,43.73,27.69,21.87,78.44,38,98.52,68.12-1.1-26.93-1.51-53.68,14.06-74.3,8-10.65,2-22.77-9.1-29.65C115.79,204.13,76.37,182.57,65.69,163.37Z" style="fill:#fff"/><path d="M65.69,163.37c-4,8.71-8,17.31-12,25.94,11.45,18.95,50.22,40.2,90.45,65.17,7.25,4.5,12.37,12.86,12.8,21.08a63.32,63.32,0,0,1,8.87-16.4c8-10.65,2-22.77-9.1-29.65C115.79,204.13,76.37,182.57,65.69,163.37Z" style="fill:#ed1c24"/><path d="M45.06,208.94q-2.61,6.28-5,12.68c-7.63,20.6-1.44,31.64,12.36,43.34,14.34,12.17,34.28,23.93,53.18,34.31,18.32,10.06,35.66,18.67,46.15,34.2-.49-12.08-.75-18.45.42-29.92C143.68,267.72,44.14,246.64,45.06,208.94Z" style="fill:#00a650"/><path d="M531.15,484.42c30.12,1.51,61.26,3.08,91,1.08l3-.2-1.55,2.6c-11,18.5-37.55,51.63-49.76,62.18l-.37.32-.49.05c-.68.08-1.61.12-2.75.13a69.55,69.55,0,0,1-9,8.7l-.41.32h-.52c-.63,0-1.41,0-2.34,0a48.78,48.78,0,0,1-9.31,8.9l-.45.32-.55,0c-.59,0-1.28-.08-2.07-.14a35.59,35.59,0,0,1-9.52,9.05l-.45.33-11.18-1.59c-32.37-4.9-118.35-17.91-181.54,7.89l-.6.24-.6-.24c-63.19-25.8-149.17-12.79-181.54-7.89L149,578l-.5-.32a35.59,35.59,0,0,1-9.52-9.05c-.79.06-1.48.11-2.07.14l-.55,0-.45-.32a48.7,48.7,0,0,1-9.31-8.9c-.93,0-1.72,0-2.34,0h-.52l-.41-.32a69.65,69.65,0,0,1-9-8.7c-1.15,0-2.07-.06-2.75-.13l-.49-.05-.37-.32C98.52,539.52,72,506.4,61,487.9l-1.55-2.6,3,.2c29.7,2,60.84.44,91-1.08,63.56-3.2,129.27-6.49,188.88,22.54,59.6-29,125.32-25.73,188.88-22.54Z" style="fill:red"/><path d="M340.69,566.15v-3.82c-50.47-19.44-152-14.83-201-12.61-8.94.41-16,.73-21,.83a61.52,61.52,0,0,0,6.27,5.91c3.22,0,10-.49,19.1-1.16,42.39-3.11,140.9-10.33,196.71,10.85Z" style="fill:#fea"/><path d="M340.69,573.35v-3.81c-54.92-21.46-154-14.19-196.48-11.07-5.45.4-10,.74-13.6.95a44,44,0,0,0,6.71,6.17c2.69-.16,7.16-.64,13.3-1.31C186.36,560.39,280.58,550.18,340.69,573.35Z" style="fill:#fea"/><path d="M340.69,580.56v-3.82c-59.31-23.47-154-13.2-189.73-9.31-3.18.35-5.94.65-8.24.88a32.28,32.28,0,0,0,7,6.41l9.89-1.41C191.89,568.43,276.91,555.59,340.69,580.56Z" style="fill:#fea"/><path d="M343.86,576.74v3.82c63.77-25,148.79-12.13,181-7.25l9.89,1.41a32.25,32.25,0,0,0,7-6.41c-2.3-.23-5.06-.53-8.24-.88-35.76-3.88-130.42-14.16-189.73,9.31Z" style="fill:#fea"/><path d="M343.86,569.54v3.81c60.1-23.18,154.33-13,190.07-9.08,6.14.67,10.61,1.15,13.3,1.31a43.93,43.93,0,0,0,6.71-6.17c-3.55-.21-8.15-.55-13.6-.95-42.46-3.12-141.56-10.39-196.48,11.07Z" style="fill:#fea"/><path d="M343.86,562.33v3.82c55.81-21.18,154.32-14,196.71-10.85,9.13.67,15.88,1.16,19.1,1.16a61.5,61.5,0,0,0,6.27-5.91c-5-.11-12.1-.43-21-.83-49-2.22-150.56-6.83-201,12.61Z" style="fill:#fea"/><path d="M343.86,559c51.46-19.19,152.34-14.62,201.18-12.4,13.55.61,23.43,1.06,27.08.78,11.42-10.06,35.76-40.35,47.16-58.53-29,1.72-59.1.25-88.29-1.22-63.09-3.17-128.31-6.45-187.13,22.12Z" style="fill:#fea"/><path d="M340.69,509.71c-58.82-28.56-124-25.29-187.13-22.12-29.19,1.47-59.33,2.94-88.29,1.22C76.67,507,101,537.27,112.42,547.34c3.65.28,13.53-.16,27.08-.78,48.84-2.22,149.72-6.79,201.18,12.4V509.71Z" style="fill:#fea"/><path d="M531.27,500c20.62,1,40.73,2,60,2l-3.85,3.15c-18.14-.13-37-1-56.28-2-52.5-2.64-103.48-4-150,8.64l-.17-.64-.48-2.47c47-12.68,98.15-11.35,150.86-8.7ZM383.6,525c37.13-8.25,79.48-8.2,119.73-6.91,13.43.29,26.62.72,39.38,1.15l26.51.79L573,517l-30.14-.89c-12.77-.43-26-.86-39.4-1.15-40.41-1.29-83-1.34-120.42,7l.61,3.11Zm2.59,13.28c50.22-6.85,123.46-5.08,164.76-3.27l3.1-2.54,0-.5c-40.83-1.85-116.79-3.89-168.48,3.19l.61,3.12ZM153.27,500c-20.62,1-40.73,2-60,2l3.85,3.15c18.14-.13,37-1,56.28-2,52.5-2.64,103.48-4,150,8.64l.17-.64.48-2.47C257.17,496,206,497.36,153.27,500Zm147.67,25c-37.13-8.25-79.48-8.2-119.73-6.91-13.43.29-26.62.72-39.38,1.15l-26.51.79L111.58,517l30.14-.89c12.77-.43,26-.86,39.4-1.15,40.41-1.29,83-1.34,120.42,7l-.61,3.11Zm-2.59,13.28c-50.22-6.85-123.46-5.08-164.76-3.27l-3.1-2.54,0-.5c40.83-1.85,116.79-3.89,168.48,3.19l-.61,3.12Z" style="fill:#6c6753"/></svg>