<svg xmlns="http://www.w3.org/2000/svg" viewBox="0 0 512 512"><title>Timor-Leste</title><circle cx="256" cy="256" r="255" style="fill:#dc241f"/><circle cx="256" cy="256" r="252" style="fill:#fff"/><circle cx="256" cy="256" r="205" style="fill:#dc241f"/><circle cx="256" cy="256" r="202" style="fill:#fff"/><path d="M39.9,277.7a6.44,6.44,0,0,1-1.1,2.4,26,26,0,0,1-3.4,3.4,50.17,50.17,0,0,1-4.5,3.7c-1.4-2.2-3.5-3.9-6.5-3.4a5.48,5.48,0,0,0-4.3,3.2c-.8,1.6-.8,3.4-.2,6.5l1.7,9.9,1.2-.2c-.2-2.6.1-3,2.9-3.5l13.6-2.4c2.9-.5,3.3-.2,4,2.4l1.2-.2L42.8,289l-1.3.2c.2,2.7-.1,3.1-2.9,3.6l-5.2.9-.1-.7a2.47,2.47,0,0,1,1.2-2.6c1.7-1.4,3.4-2.6,4.7-3.8,2-1.8,2.7-3.4,2.1-7.8a4.91,4.91,0,0,1-.1-1.1ZM32,294l-8.7,1.5c-.7.1-1.1.1-1.3-.1a3.41,3.41,0,0,1-.7-1.6c-.3-2,.7-4.4,4.4-5.1a5,5,0,0,1,4.5,1,5.71,5.71,0,0,1,1.6,3.3Zm1.3-34.6a12.88,12.88,0,0,1,3.7,1.7c.9.8,1.3,2,1.5,3.8a11.1,11.1,0,0,1-.1,3.3c-.3.8-1.2,1-2.9,1.1l-6.1.5-.2-2.4c-.2-3-.2-3.5,2.4-4.2l-.1-1.3-7.2.6.1,1.3c2.5.3,2.7.7,3.1,3.7l.2,2.4-7.6.6c-1.2.1-1.2,0-1.4-1.4l-.1-1.7c-.2-2-.1-3,.6-3.7a7.69,7.69,0,0,1,3-1.8l-.3-1.3c-2.2.3-4.7.7-5.3.8l1.5,16.8,1.2-.1c-.1-2.5.1-2.9,3.2-3.2l13.7-1.2c3-.3,3.2.1,3.7,3.1l1.3-.1-1.6-18.2c-1.1-.2-4.4-.6-6-.7Zm-16.5-3.1h1.3c.3-2.5.6-2.8,3.5-2.8H35.4c3,0,3.3.3,3.6,3h1.3V245.4H38.9c-.3,3.1-.5,3.4-3.6,3.4H30.4l.6-2.4a8.08,8.08,0,0,0-.1-1.5c-.5-3.8-2.6-7.3-7.4-7.3a6.11,6.11,0,0,0-5.3,2.7c-1.1,1.4-1.5,3.4-1.5,6.3Zm2.9-7.5a1.61,1.61,0,0,1-1.1-.3,2,2,0,0,1-.4-1.3c0-2.2,1.3-4.5,5.3-4.5,4.8,0,5.8,2.9,5.8,4.2a4.88,4.88,0,0,1-.4,1.9Zm1.1-40.7L19.7,217l1.3.2c.4-2.4,1.2-3.1,2.5-3.2a25.38,25.38,0,0,1,5,.3l3.8.4c5.9.7,8.9,3,8.4,7.3-.4,3.9-3.8,5.4-9.1,4.7l-7.7-.9c-3.4-.4-3.6-.8-3.5-3.5l-1.3-.2-1.3,10.7,1.2.1c.6-2.6.9-2.9,4.2-2.5l8.4,1c4.1.5,6.9-.1,8.7-1.9a9.45,9.45,0,0,0,2.6-6.1,8.79,8.79,0,0,0-1.8-6.9c-1.8-2.3-4.8-3.2-8.6-3.6l-3.9-.5a31.35,31.35,0,0,1-4.9-.9c-1.2-.3-1.8-1.4-1.7-3.3ZM16.3,214a4.79,4.79,0,0,0-3,1.5c1.2,2.2,2.4,4.5,3.7,6.7l1-.4-1.2-7.6Zm19.8-20.5c.2-2.6-.3-5.9-3.6-6.8a4.65,4.65,0,0,0-4.6.9,10.45,10.45,0,0,0-2.8,5.4l-2.8,10,1.2.3c.9-2.4,1.2-2.6,4.2-1.8l13.2,3.8c3,.8,3.1,1.2,2.6,4l1.2.3,2.5-8.7a16.23,16.23,0,0,0,.6-7.7,5.81,5.81,0,0,0-4.2-4.7C40.3,187.5,37.9,189.7,36.1,193.5Zm-1.8,5-6.6-1.9c-.8-.2-1.3-.4-1.4-.8a2.33,2.33,0,0,1,0-1.7c.6-1.8,2.3-3.4,5.4-2.5,2.9.8,3.7,2.6,2.8,6Zm1.3.4.2-.7c1.1-3.9,3.4-5.5,6.6-4.5,3.4,1,4.2,3.6,3.7,5.5s-1.5,2.3-4,1.6Zm15.1-29.1a11.82,11.82,0,0,1,2.7,3.3c.6,1.2.3,2.4-.2,3.8a7.59,7.59,0,0,1-1.3,2.4c-.6.6-1.3.5-2.8-.2l-12.9-5.3c-2.9-1.2-3-1.5-2.1-4.2l-1.2-.5-4.1,10.2,1.2.5c1.3-2.4,1.6-2.7,4.5-1.5l12.7,5.1c2.8,1.1,2.9,1.5,2,4.5l1.2.5,6.5-16.2c-.8-.6-3.8-2.7-5.1-3.5Zm11.6-9.5-1.1-.5c-1.3,2.3-1.7,2.5-4.4,1.3l-12.6-5.6c-2.8-1.2-2.9-1.7-2-4.2l-1.1-.5-4.4,9.8,1.2.5c1.3-2.3,1.6-2.5,4.4-1.3l12.6,5.6c2.8,1.2,2.9,1.6,2,4.2l1.1.5Zm5.4-23.2c2.3,3.4,2.9,6.2,1.4,8.8-2.4,4.2-7.9,5.3-13.7,2.1-4.6-2.5-7.5-7.5-5-12,1.4-2.4,3.8-4.2,8.1-3.2l.4-1.3c-2.1-.9-3.7-1.5-5.5-2.1a31.51,31.51,0,0,0-4,5.3c-4.1,7.5-2.4,14.9,4,18.5,5,2.8,12.4,2.3,17-6.1a29.16,29.16,0,0,0,2.4-6.3,32.35,32.35,0,0,0-4-4.5Zm20.7-18.2-1-.7c-1.6,1.7-2.2,1.8-5.5,1-6.4-1.6-12.8-3.4-19.2-5.1l-.7,1.8,10.9,16.6c1.8,2.7,1.9,3.3.8,5.4l1,.8,4.6-6.6-1-.7c-1.8,2-2.2,1.8-3.4.4-.9-1.2-1.7-2.3-2.3-3.3l3.9-5.6c1.5.4,3.1.8,4.1,1.1,1.6.4,1.9.8.9,2.8l1.1.7Zm-13.9,3.3-3.2,4.6c-1.5-2.2-3.2-4.4-4.7-6.7l.1-.1Zm8.1-31.4.9.9c2-1.6,2.4-1.7,4.5.5l9.5,9.9c2.1,2.2,2,2.6.2,4.8l.9.9,6.6-6.4c3.2-3.1,5.2-6.4,5.7-9.7s-.4-6.9-3.4-10.1a10.2,10.2,0,0,0-7.6-3.2c-3.2,0-6.4,1.8-9.6,4.9Zm8.3-2.5c-.7-.8-1.1-1.2-1.1-1.7a4,4,0,0,1,1.2-2,8.21,8.21,0,0,1,5.8-2.5c2.3,0,4.9,1.3,7.3,3.8,4.4,4.6,4.8,9.7,1.3,13-1.8,1.8-2.8,1.5-4.6-.4Zm37.3-14.7a11.18,11.18,0,0,1,.7,4c-.1,1.2-.9,2.2-2.3,3.4a9.54,9.54,0,0,1-2.7,1.8c-.8.2-1.4-.4-2.5-1.7l-4-4.7,1.8-1.6c2.4-2,2.7-2.1,4.8-.5l1-.8-4.7-5.6-1,.9c1.2,2.3,1,2.7-1.3,4.6l-1.9,1.5-4.9-5.8c-.8-.9-.7-1.1.3-1.9l1.3-1.1c1.5-1.3,2.4-1.7,3.3-1.6a8.68,8.68,0,0,1,3.2,1.4l.8-1c-1.5-1.6-3.2-3.4-3.7-3.9L103.5,71.8l.8,1c2.1-1.5,2.4-1.5,4.4.8l8.9,10.6c1.9,2.4,1.8,2.7-.4,4.9l.8,1,14-11.7c-.5-1-2-4-2.9-5.4Zm31.7-11.3-.6-1.1c-2.6,1.1-2.8,1-4.6-1.8l-7-11.5c-1.5-2.5-1.5-2.9.8-4.5l-.6-1.1-6.2,3.6L143.5,63,129.6,52.9l-6.4,3.7.6,1.1c2.8-1.3,3.3-1,5.1,2.7l3.1,6.4c1.6,3.4,2.3,5.1,2.7,6.2s.2,2.1-1.4,3.3l.6,1.1,7.4-4.3-.6-1.1c-2.2,1-3,1.1-3.9-.2a42.56,42.56,0,0,1-2.9-5l-4.3-8.3.1-.1,15.5,12.2.8-.5L143.5,50l.2-.1,7,11.9c1.7,2.8,1.6,3.2-.6,4.8l.6,1.1Zm4.4-28.1c-7.6,3.1-9.4,10.3-7.1,16A11.71,11.71,0,0,0,173,56.9c6.3-2.5,9.7-9,6.8-16.2C177.2,34.2,170.4,31.8,164.3,34.2Zm0,1.6c3.8-1.5,8.2,1.4,10.8,8,2.5,6.1,1.2,10.3-2,11.5-4.2,1.7-8.8-2.1-11.1-7.8S160.9,37.2,164.3,35.8Zm41.3,2.8c-.7,4-2.3,6.4-5.1,7.3-4.7,1.4-9.3-1.7-11.3-8-1.6-5-.2-10.6,4.8-12.1,2.6-.8,5.6-.4,8,3.3l1.2-.6c-.9-2.1-1.7-3.6-2.5-5.4a26.05,26.05,0,0,0-6.5,1c-8.2,2.5-12.1,9.1-10,16.1,1.7,5.5,7.3,10.2,16.4,7.4a32.07,32.07,0,0,0,6.1-2.9,38.33,38.33,0,0,0,.2-6Zm26.5,1.6a5.18,5.18,0,0,1-2.4-1.1,43.77,43.77,0,0,1-3.4-3.3c-1.3-1.5-3.1-3.6-3.8-4.5,2.2-1.4,3.9-3.4,3.4-6.6a5.26,5.26,0,0,0-3.3-4.2c-1.6-.8-3.4-.8-6.5-.2l-9.9,1.8.2,1.2c2.6-.2,3,.1,3.5,2.9l2.4,13.5c.5,2.9.2,3.3-2.4,4.1l.2,1.2,10.7-1.9-.2-1.2c-2.7.2-3.1-.1-3.6-3l-.9-5.1.6-.1a2.48,2.48,0,0,1,2.7,1.1c1.3,1.7,2.6,3.4,3.8,4.7,1.8,2,3.4,2.7,7.9,2.1.4-.1.9-.1,1.1-.2Zm-16.3-7.9-1.6-8.6a2,2,0,0,1,.1-1.4q.15-.3,1.5-.6c2-.4,4.4.7,5.1,4.4a5,5,0,0,1-1,4.5,5.71,5.71,0,0,1-3.3,1.6ZM256.7,39l-.1-1.3c-2.3-.1-2.8-.5-4.3-3.5-2.9-5.9-5.6-12-8.4-18l-1.8.6-5.7,19c-.9,3.1-1.3,3.5-3.6,4v1.3l8-.7-.1-1.2c-2.6-.1-2.8-.6-2.4-2.3.4-1.5.7-2.8,1-4l6.8-.6c.7,1.4,1.3,2.9,1.8,3.9.7,1.5.6,2-1.5,2.5l.1,1.3Zm-11.5-8.6-5.5.5c.7-2.6,1.4-5.3,2.1-8h.1Zm3.3-17.9a4.64,4.64,0,0,0-2.1-2.6c-1.9,1.5-3.8,3.2-5.8,4.9l.6.9,7.2-2.8Zm28.4,10.7c-.2-2.3-.3-5.4-.3-6.9h-.9a2.54,2.54,0,0,1-2.1.9l-14.5-.3a2,2,0,0,1-2-.9h-.9c-.2,1.8-.4,4.4-.6,7.1h1.3a10.58,10.58,0,0,1,1.5-3.6c.6-.6,1.3-1,4.2-.9h1.2l-.3,17c-.1,3.1-.4,3.3-3.4,3.4v1.3l11.7.2V39.3c-3.1-.3-3.5-.6-3.5-3.6l.3-16.9h1.6c2.1,0,3,.3,3.6.9s1.2,1.8,1.6,3.7Zm12.2,19.3.2-1.2c-2.6-.6-2.9-.9-2.5-3.9l1.9-13.6c.4-3,.8-3.2,3.5-3.1l.2-1.2L281.8,18l-.2,1.2c2.6.6,2.8.9,2.4,3.9l-1.9,13.6c-.4,3-.8,3.2-3.5,3.1l-.2,1.2Zm24.1-1.7c-2.6,3.1-5.3,4.4-8.2,3.7-4.7-1.2-7.1-6.3-5.5-12.7,1.3-5.1,5.3-9.2,10.3-8,2.7.7,5,2.5,5.1,7l1.4.1c.2-2.2.4-3.9.6-5.9a26,26,0,0,0-6.1-2.5c-8.3-2.1-15.1,1.6-16.8,8.7-1.4,5.5.9,12.5,10.2,14.9a43.06,43.06,0,0,0,6.7.7,54.24,54.24,0,0,0,3.3-5Zm23.2,14.1.4-1.2c-2.1-1-2.4-1.6-2.6-5-.3-6.6-.4-13.2-.7-19.9l-1.9-.1L319,44c-2.1,2.5-2.6,2.7-4.9,2.3l-.5,1.2,7.6,2.5.4-1.2c-2.4-1.1-2.3-1.6-1.3-3.1.9-1.2,1.7-2.3,2.4-3.2l6.5,2.1c.1,1.6.1,3.2.1,4.3.1,1.7-.2,2.1-2.3,1.7l-.4,1.2Zm-7.1-12.4L324,40.8c1.7-2.1,3.3-4.3,5.1-6.5l.1.1Zm33-1.4-.6,1.1c2.1,1.5,2.3,1.8.7,4.5l-6.9,11.9c-1.5,2.6-1.9,2.7-4.5,1.5l-.6,1.1,8,4.6c3.9,2.3,7.6,3.3,10.9,2.9a11.79,11.79,0,0,0,9.8-14.3c-.9-3.1-3.5-5.6-7.3-7.8Zm4.8,7.2c.5-.9.9-1.4,1.3-1.5a3.17,3.17,0,0,1,2.2.7,7.7,7.7,0,0,1,4,4.9c.6,2.2.1,5.1-1.6,8-3.2,5.5-8,7.3-12.2,4.9-2.2-1.3-2.2-2.3-.9-4.5Zm24.4,31.8a16.21,16.21,0,0,1-3.7,1.7c-1.2.2-2.4-.3-4-1.4a10.67,10.67,0,0,1-2.4-2.2c-.4-.7.1-1.5,1-2.9l3.7-5,2,1.4c2.4,1.8,2.7,2.2,1.6,4.5l1,.8,4.3-5.9-1.1-.7c-1.9,1.7-2.3,1.6-4.8-.2l-2-1.4,4.5-6.1c.7-1,.9-.9,2-.2l1.4,1c1.6,1.2,2.2,1.9,2.3,2.8a7.63,7.63,0,0,1-.6,3.4l1.1.6c1.2-1.9,2.5-4,2.9-4.6L387,55.8l-.7,1c1.9,1.7,2.1,2,.2,4.5l-8.1,11.2c-1.8,2.5-2.2,2.4-4.9.8l-.7,1,14.8,10.8a52.46,52.46,0,0,0,4.5-4.1Zm35.6,17c1.4-1.8,3.5-4.2,4.5-5.4l-.6-.6a2.21,2.21,0,0,1-2.1-.8l-10.6-9.8c-.7-.7-1-1.1-.9-2l-.6-.6c-1.4,1.3-3.2,3.1-5.2,4.9l.9.9a9.37,9.37,0,0,1,3.6-1.6c.8,0,1.5.1,3.7,2.1l.9.8L409.1,97.4c-2.1,2.3-2.5,2.2-4.9.3l-.8.9,8.5,8,.8-.9c-2.1-2.3-2.2-2.8-.1-5l11.6-12.4,1.2,1.1c1.6,1.4,2.1,2.2,2.1,3.1s-.4,2.1-1.4,3.8Zm-3.8,22.5.9-.8c-1.6-2.2-1.6-2.6.7-4.6l10.4-9c2.3-2,2.7-1.9,4.6-.1l1-.8-7.1-8.1-.9.8c1.6,2.2,1.6,2.6-.8,4.6l-10.3,9c-2.3,2-2.7,1.9-4.6.1l-1,.8Zm19,25.8,1-.7c-1.4-2.4-1.3-2.8,1.4-4.7l10.8-8c2.4-1.8,2.7-1.8,4.6.4l1-.7-4.1-5.9L440.1,129l8.9-14.7-4.3-6.1-1,.7c1.5,2.7,1.3,3.2-2.3,5.3l-6.1,3.6a42.38,42.38,0,0,1-6,3.2c-1.1.5-2.1.4-3.3-1.2l-1,.7,4.9,7,1-.7c-1.2-2.1-1.3-2.8-.1-3.9a32.2,32.2,0,0,1,4.7-3.3l7.9-5,.1.1-10.8,16.5.6.8,19.9-4.2.1.2L442,136c-2.7,1.9-3,1.9-4.8-.2l-1,.7Zm27.6,2.3c-3.8-7.3-11.1-8.5-16.6-5.7a11.73,11.73,0,0,0-5.3,16.4c3,6,9.8,8.8,16.7,5.3a11.69,11.69,0,0,0,5.2-16m-1.6.1c1.9,3.7-.7,8.2-7,11.5-5.9,3-10.1,2-11.6-1-2.1-4.1,1.3-8.9,6.8-11.6,5.4-3,10.1-2.2,11.8,1.1Zm-4.9,43.6a5.36,5.36,0,0,1,.7-2.6,21,21,0,0,1,2.6-4c1.2-1.5,2.9-3.7,3.7-4.5,1.8,1.9,4.1,3.2,7.1,2.1a5.5,5.5,0,0,0,3.6-4c.4-1.7.1-3.5-1-6.5l-3.6-9.4-1.2.4c.6,2.5.5,3-2.2,4l-12.9,5c-2.8,1.1-3.2.8-4.4-1.6l-1.2.4,3.9,10.1,1.1-.4c-.7-2.6-.5-3.1,2.2-4.1l4.9-1.9.2.7a2.51,2.51,0,0,1-.6,2.8c-1.3,1.6-2.9,3.2-3.8,4.6-1.6,2.2-2.1,3.8-.7,8.1a2.65,2.65,0,0,1,.3,1Zm4.7-17.4,8.2-3.1a2.67,2.67,0,0,1,1.4-.2c.3.1.6.5.9,1.4.7,1.9.2,4.5-3.3,5.8a5,5,0,0,1-4.6-.1,5.13,5.13,0,0,1-2.1-2.9Zm5.8,23.9-2.4-8.5-2.6.2,2.4,8.4Zm1.7,20a11.92,11.92,0,0,1-4-1.2,4.71,4.71,0,0,1-2-3.3,6.68,6.68,0,0,1-.2-2.7c.2-.8.8-1.1,2.4-1.4l13.7-2.9c3-.7,3.3-.4,4.1,2.3l1.2-.3-2.3-10.7-1.2.3c.3,2.7.2,3.1-2.8,3.7L471,204.6c-2.9.6-3.3.3-4.2-2.7l-1.2.2,3.7,17.1c1,.1,4.7.1,6.2,0Zm2.3,20.7a13.93,13.93,0,0,1-3.8-1.6c-1-.7-1.4-2-1.6-3.8a7.17,7.17,0,0,1,0-3.3c.3-.8,1.1-1,2.8-1.2l6.1-.8.3,2.4c.4,3,.2,3.5-2.2,4.3l.2,1.3,7.2-.9-.2-1.3c-2.6-.2-2.8-.6-3.1-3.6l-.3-2.4,7.5-.9c1.2-.2,1.3-.1,1.5,1.3l.2,1.7c.2,2,.1,3-.5,3.7a6.57,6.57,0,0,1-2.9,1.8l.4,1.3c2.2-.4,4.7-.9,5.3-1l-2.1-16.8-1.2.1c.1,2.6,0,3-3.1,3.3l-13.7,1.7c-3,.4-3.3.1-3.9-2.9l-1.2.1,2.2,18.2a50.07,50.07,0,0,0,6.1.5Zm11.8,17.9c2.2-.3,3.8-.6,5.1-.7a16.37,16.37,0,0,0,.9-5c0-5.1-3.1-8.2-7-8.2-3.4,0-5.4,2.5-7.2,6.2-1.4,2.7-2.7,4.3-4.9,4.3a3.47,3.47,0,0,1-3.8-3.6c0-3.4,4-5.6,6.3-6.3l-.4-1.2a36.52,36.52,0,0,0-6,1,23.15,23.15,0,0,0-.8,2.2,13,13,0,0,0-.5,3.6c0,5.2,3.2,8.7,7.3,8.7,3.5,0,5.5-2.6,7.3-6.4,1.6-3.1,2.7-4.4,4.7-4.4a3.36,3.36,0,0,1,3.5,3.5c0,2.9-2.6,4.3-4.9,5ZM488,281.4c2.3,0,5.4.1,7,.2v-.9a2.08,2.08,0,0,1-.6-2.1l1.2-14.4c.1-1,.2-1.5,1.1-1.9v-.9c-1.8-.2-4.4-.7-7-1.1l-.2,1.3a8.39,8.39,0,0,1,3.5,1.8c.6.6.9,1.3.6,4.2l-.1,1.2-16.9-1.5c-3-.3-3.2-.7-3.2-3.7l-1.2-.1-1,11.7,1.2.1c.6-3.1.8-3.5,3.8-3.2l16.9,1.5-.2,1.7c-.2,2.1-.5,3-1.1,3.5A7,7,0,0,1,488,280Zm-14.2,19.1a12.62,12.62,0,0,1-3.1-2.6c-.8-1-.8-2.3-.5-4.1a11.72,11.72,0,0,1,.9-3.1c.5-.6,1.4-.6,3-.3l6.2,1.1-.4,2.4c-.6,3-.8,3.4-3.3,3.4l-.3,1.3,7.1,1.3.3-1.3c-2.4-.9-2.5-1.4-2-4.4l.4-2.4,7.5,1.3c1.1.2,1.2.4,1,1.7l-.3,1.7c-.3,2-.8,2.9-1.5,3.4a7.58,7.58,0,0,1-3.3.9l-.1,1.3c2.2.2,4.7.5,5.4.6l3-16.7-1.3-.2c-.6,2.4-.9,2.8-3.9,2.2L475,285.6c-3-.5-3.2-.9-2.9-4l-1.2-.2-3.2,18a55.87,55.87,0,0,0,5.7,2.3Z" style="fill:#dc241f"/><path d="M210.7,497.1c-.7-.5-1.2-1.5-1.8-3.3a57.17,57.17,0,0,1-1.5-6.4c-.5-2.6-1.1-6.5-1.3-8.5,3.1-1,5.6-3.3,6.7-7.8a9.72,9.72,0,0,0-.9-7.4c-1.1-1.7-2.7-2.6-5.3-3.2l-9.4-2.2-.3,1.1c2.4,1,2.6,1.3,1.6,5.8l-5,21.7c-1,4.5-1.4,4.9-4.2,4.5l-.2,1.1,10,2.3.2-1.1c-2.6-.9-2.7-1.4-1.7-5.9l2.1-8.8.8.2c1.3.4,1.5,1.3,1.7,3,.4,3,.8,6.5,1.3,8.8.7,3.7,1.7,5.5,5.6,6.7a5,5,0,0,0,1.2.2ZM200,477.6l3.2-13.7c.3-1.3.5-1.7.8-1.9a2.24,2.24,0,0,1,1.7-.1c2.1.5,3.9,3.3,2.6,9.1-.7,3.1-1.8,5.1-3.3,6.2a3.81,3.81,0,0,1-3.6.7ZM231.6,465l-.1,1.1c2.5.6,2.8.9,2.4,5.7l-1.5,21.9c-.3,4.8-.8,5.2-3.6,5.3l-.1,1.1,8,.6c4.4.3,7.9-.8,10.6-3.7s4.6-7.5,5.2-14.2c.3-5.1-.6-9-2.2-11.7-1.9-3.4-4.9-5.1-9.6-5.4Zm6.8,5.4c.1-1.9.3-2.5.6-2.8a2.58,2.58,0,0,1,1.9-.4c1.9.1,3.4,1,4.7,3.1,1.9,2.6,2.6,7.5,2.2,13-.7,10.4-4.2,16.2-8.7,15.8-2.1-.2-2.6-1.6-2.4-5Zm50.1,2c-.4-2.7-.8-6.8-1-9.1h-.7c-.5,1.1-1,1.5-1.9,1.5l-13.4.9a2,2,0,0,1-2.2-1.2l-.6.1c.1,2.7.1,6.3.3,9.3l.9-.1a19.48,19.48,0,0,1,.9-4.8c.5-1.3,1.3-1.8,3.6-1.9l1.7-.1,1.9,27.2c.3,4.5.1,5-2.8,5.5l.1,1.2,10.7-.8v-1.2c-3.1-.1-3.4-.5-3.7-5l-1.9-27.2,2-.1c1.9-.1,2.9.1,3.5,1.2.7.9,1.2,2.3,1.8,4.8Zm35.3,11a19.73,19.73,0,0,1-.5,5.4c-.5,1.6-1.6,2.3-3.3,2.8a5.65,5.65,0,0,1-3,.3c-.8-.3-1.2-1.4-1.9-4l-5.8-21.6c-1.2-4.4-1.1-4.8,1.4-5.9l-.3-1.1-9.6,2.6.3,1.1c2.5-.3,2.9-.1,4.1,4.3l5.8,21.8c1.1,4.2,1,4.7-1.8,5.8l.3,1.1,16.1-4.3c-.1-1.4-.6-6.3-.8-8.2Z" style="fill:#dc241f"/><path d="M256,100.82c-72.3,48.1-115.8,125.9-120.4,212.2q10.59-1.66,20.88-2.33c34.11-2.21,66.23,3.73,99.52,17.63,40-16.7,78.3-21.9,120.4-15.3-4.6-86.3-48.1-164.1-120.4-212.2Z" style="fill:none;stroke:#dc241f;stroke-width:59.38399887084961px"/><path d="M256,100.82c-72.3,48.1-115.8,125.9-120.4,212.2,42.1-6.6,80.4-1.4,120.4,15.3,40-16.7,78.3-21.9,120.4-15.3-4.6-86.3-48.1-164.1-120.4-212.2Z" style="fill:none;stroke:#ffc726;stroke-width:15.40999984741211px"/><path d="M256,100.82c-72.3,48.1-115.8,125.9-120.4,212.2,42.1-6.6,80.4-1.4,120.4,15.3,40-16.7,78.3-21.9,120.4-15.3C371.8,226.72,328.3,148.92,256,100.82Z"/><path d="M224.95,152.83a1.86,1.86,0,0,0-1.55.63l-2.7,2.5a2,2,0,0,0-.6,1.4v11.39l-.6-.1-.2.2-2.6,4.2-.2.3.2.2,3.3,3v1.3l-1.2,3.1-5.3.4-.3.1-.1.3-.9,4.8v.3l.3.1,4.8,2v4.4l-4.8,2-.3.1v.3l.9,4.8.1.3h.3l5.3.4,1.2,3.1v1.4l-3.3,3-.2.2.2.3,2.6,4.2.2.2h.3l5.1-1.3,3.1,3.4-2.2,4.3-.1.3.2.2,4.1,3.1.2.2.2-.2,4.2-2.8,4.2,2.2-.5,4.7-.1.3.3.1,5.6,1.9-1.3,1.8-1.2-.3c-.8-.3-1.7-.6-2.6-.9s-1.7-.7-2.5-1l-.2-.11H224.4v7.3h63.2v-7.3H275.7l-.2.11c-.8.3-1.6.7-2.5,1s-1.8.6-2.6.9l-1.2.3-1.3-1.8,5.6-1.9.3-.1-.1-.3-.5-4.7,4.2-2.2,4.2,2.8.2.2.2-.2,4.1-3.1.2-.2-.1-.3-2.2-4.3,3.1-3.4,5.1,1.3h.3l.2-.2,2.6-4.2.2-.3-.2-.2-3.3-3v-1.4l1.2-3.1,5.3-.4h.3l.1-.3.9-4.8v-.3l-.3-.1-4.8-2v-4.4l4.8-2,.3-.1v-.3l-.9-4.8-.1-.3-.3-.1-5.3-.4-1.2-3.1v-1.3l3.3-3,.2-.2-.2-.3-2.6-4.2-.2-.2-.6.1V157.36a2,2,0,0,0-.6-1.4l-2.7-2.5a1.86,1.86,0,0,0-1.55-.63,1.74,1.74,0,0,0-.55.13A120.32,120.32,0,0,0,256,168.72,120.32,120.32,0,0,0,225.5,153a1.74,1.74,0,0,0-.55-.13Z" style="fill:#ffc726"/><path d="M207,168.62c-1.1,2.7.7,5,1,7.6a18,18,0,0,1-.8,7.5c-1.8,5.6-3,9.8-2.3,15.3s3.6,12.3.5,17.3c2.3-5.2-1-11.6-2.1-16.7-1.2-5.4-.4-9.8.9-15.3,1-3.5,1.4-5.9-.4-9.3a7.52,7.52,0,0,1-.8-2.4,11.06,11.06,0,0,1-3.8,1.8c-4.1,1.4-6.3,4-8.3,7.6-3.1,5.6-5.5,11.5-12.79,11.7,6.6-2.4,7.7-6.4,10.5-12.8,2.2-5,4.3-8.1,9.7-10.1,2-.8,4.4-1.6,5.3-3.7Zm-6.9,8.6c-.4-.2-.7-.4-1.1-.6s-.8-.3-1.1-.5c-.6-.2-1.4,1.3-.8,1.6.4.2.7.4,1.1.6s.8.3,1.2.5,1.3-1.3.7-1.6m1-2.2c-.3-.2-.6-.3-.9-.5l-.9.3c-.5.2-.9.4-1.4.6l.1.1a9.73,9.73,0,0,0,1.1.5,11.72,11.72,0,0,1,1.1.5c.8.3,1.4-1.2.9-1.5m-.2-.7c.1,0,.2.1.3.1.3.1.7-.3.9-.7a4.49,4.49,0,0,1-1.2.6m2.4,1.1-.9-.4c-.3-.2-.2-.8.2-1.2a9.39,9.39,0,0,0,.6,1.5Zm-15.79,32.3a6.89,6.89,0,0,1,.8.3,5.93,5.93,0,0,1,.8.4c.5.2-.4,1.5-.9,1.3a4.87,4.87,0,0,0-.7-.3,2.5,2.5,0,0,1-.7-.4c-.4-.1.2-1.4.7-1.3m1-2c.3.1.6.3.9.4a4,4,0,0,1,.9.5c.4.3-.5,1.6-.9,1.4a2,2,0,0,1-.8-.4,5.93,5.93,0,0,1-.8-.4c-.5-.2.1-1.6.7-1.5m1-2a4.17,4.17,0,0,1,1,.4,9.28,9.28,0,0,1,1,.5c.5.3-.3,1.7-.9,1.5a2.47,2.47,0,0,1-.9-.4,4,4,0,0,1-.9-.5c-.5-.3.1-1.8.7-1.5m1-2.2c.3.1.7.3,1,.4s.7.3,1.1.5-.3,1.8-.9,1.5a4.17,4.17,0,0,1-1-.4,9.29,9.29,0,0,1-1-.5c-.5-.2.2-1.7.8-1.5m1.1-2.2a10.4,10.4,0,0,1,1.2.5,9.29,9.29,0,0,1,1,.5c.6.3-.2,1.8-.8,1.6-.4-.1-.7-.3-1.1-.4s-.7-.3-1.1-.5c-.6-.4.2-1.9.8-1.7m1.1-2.4a9.73,9.73,0,0,1,1.1.5,10.91,10.91,0,0,1,1.1.6c.6.3-.3,1.9-.9,1.7a3.69,3.69,0,0,1-1.1-.5c-.4-.2-.7-.4-1.1-.6s.2-1.9.9-1.7m1-2.3c.4.2.8.3,1.2.5l1.2.6c.6.3-.2,2-.8,1.7a6.11,6.11,0,0,1-1.2-.5,10.91,10.91,0,0,1-1.1-.6c-.7-.3.1-2,.7-1.7m1.2-2.5a6.11,6.11,0,0,1,1.2.5l1.2.6c.6.4-.2,2.1-.8,1.8a6.11,6.11,0,0,1-1.2-.5l-1.2-.6c-.7-.3.1-2,.8-1.8m1.1-2.4a6.11,6.11,0,0,1,1.2.5c.3.2.8.4,1.1.6.6.3-.2,2-.8,1.8-.4-.2-.8-.3-1.2-.5l-1.2-.6c-.5-.4.2-2.1.9-1.8m1.1-2.5c.4.2.8.3,1.2.5l1.2.6c.6.3-.2,2-.8,1.8a6.11,6.11,0,0,1-1.2-.5l-1.2-.6c-.7-.3.2-2,.8-1.8m1.1-2.4a6.11,6.11,0,0,1,1.2.5,10.91,10.91,0,0,1,1.1.6c.6.3-.2,2.1-.8,1.8-.4-.2-.8-.3-1.2-.5l-1.2-.6c-.5-.4.2-2.1.9-1.8m1.1-2.4c.4.2.8.3,1.2.5l1.2.6c.6.3-.2,2-.8,1.8-.4-.2-.8-.3-1.2-.5l-1.2-.6c-.6-.4.1-2.1.8-1.8m1.1-2.4c.4.2.8.3,1.2.5a3.88,3.88,0,0,1,1.1.6c.6.3-.1,1.9-.8,1.7a6.11,6.11,0,0,1-1.2-.5,10.91,10.91,0,0,1-1.1-.6c-.6-.3.1-1.9.8-1.7m1-2.2a6.11,6.11,0,0,1,1.2.5,3.69,3.69,0,0,0,1.1.5c.6.3,0,1.9-.7,1.7-.4-.2-.8-.3-1.2-.5a10.91,10.91,0,0,1-1.1-.6c-.7-.3.1-1.9.7-1.6m.9-2.2a3,3,0,0,1,1,.4c.2.1.3.1.4.2a7.62,7.62,0,0,1,.6,2,.37.37,0,0,1-.3.1,3.69,3.69,0,0,1-1.1-.5,11.72,11.72,0,0,1-1.1-.5c-.7-.4-.1-2,.5-1.7m-11.19,33.8c.3.3-.7,1.3-1.1,1.3-.2-.1-.3-.1-.5-.2a1.38,1.38,0,0,1-.4-.3c-.3-.2.5-1.4,1-1.3.2.1.3.1.5.2s.4.2.5.3m1.3-1.9c.4.2-.5,1.4-1,1.3a1.69,1.69,0,0,1-.5-.2,2.18,2.18,0,0,1-.5-.3c-.3-.3.5-1.5,1-1.4a1.42,1.42,0,0,1,.6.2.78.78,0,0,0,.4.4m1.3-1.9c.5.3-.5,1.6-1,1.4a1.42,1.42,0,0,1-.6-.2,2.18,2.18,0,0,1-.5-.3c-.4-.3.4-1.6.9-1.4a1.42,1.42,0,0,1,.6.2,3.33,3.33,0,0,1,.6.3m1.3-2.1c.5.3-.4,1.6-.9,1.5a6.38,6.38,0,0,0-.7-.2,2.18,2.18,0,0,1-.5-.3c-.4-.3.4-1.6.9-1.5.2.1.5.1.7.2a2.19,2.19,0,0,0,.5.3m1.3-2.1c.4.3-.4,1.7-1,1.6a6.38,6.38,0,0,0-.7-.2,2.09,2.09,0,0,1-.6-.4c-.4-.3.3-1.7.9-1.6.2.1.5.2.7.3s.5.2.7.3m1.2-2.2c.5.3-.4,1.8-.9,1.6a1.44,1.44,0,0,0-.7-.2c-.2-.1-.4-.3-.6-.4-.5-.4.3-1.8.9-1.6a6.88,6.88,0,0,0,.8.3c.1,0,.3.2.5.3m1.2-2.3c.6.4-.2,1.9-.9,1.7-.2-.1-.5-.1-.7-.3s-.5-.3-.7-.4c-.5-.3.3-1.9.9-1.7a4.87,4.87,0,0,1,.7.3,2.14,2.14,0,0,1,.7.4m1.2-2.4c.5.4-.2,2-.8,1.8a6.88,6.88,0,0,0-.8-.3,4.34,4.34,0,0,1-.7-.4c-.5-.4.2-2,.9-1.8a2.54,2.54,0,0,1,.7.2,4.23,4.23,0,0,1,.7.5M201,192c.6.4-.2,2-.8,1.8a2.12,2.12,0,0,1-.7-.3c-.2-.1-.5-.3-.7-.4-.5-.4.2-2,.8-1.8.2.1.5.1.7.3a4.34,4.34,0,0,1,.7.4m1.1-2.5c.6.4-.1,2-.8,1.8-.2-.1-.5-.2-.7-.3s-.5-.3-.7-.4c-.5-.4.1-2,.8-1.8a1.85,1.85,0,0,1,.7.2,2.31,2.31,0,0,0,.7.5m.4-.6h0c-.3-.1-.5-.2-.8-.3a1.61,1.61,0,0,1-.7-.4c-.5-.4.2-1.9.8-1.8.2.1.5.2.7.3a.77.77,0,0,1,.3.2,16.21,16.21,0,0,1-.3,2m.5-2.6a.31.31,0,0,0-.2-.1,2.5,2.5,0,0,1-.7-.4c-.5-.3.2-1.9.8-1.7.2.1.4.1.6.2a19.47,19.47,0,0,1-.5,2m.7-2.6c-.2-.1-.4-.2-.4-.3-.5-.4.2-1.9.8-1.7l.1.1a8.71,8.71,0,0,0-.5,1.9m.5-2.6c-.3-.2-.2-1,.2-1.4a3.65,3.65,0,0,1-.2,1.4m-21.29,24.5c-.4-.1-.6,1.4-.2,1.6.1.1.3.2.4.3a.9.9,0,0,0,.5.1c.4.1.7-1.3.3-1.6-.2-.1-.3-.2-.5-.3a.9.9,0,0,1-.5-.1m.5-2.2c-.5-.1-.7,1.4-.4,1.7.2.1.3.2.5.3s.4.1.5.2c.4.1.8-1.4.4-1.7a2.18,2.18,0,0,1-.5-.3c-.1-.1-.3-.1-.5-.2m.7-2.2c-.4-.2-.8,1.4-.4,1.7a2.19,2.19,0,0,0,.5.3,1.42,1.42,0,0,0,.6.2c.5.1,1-1.3.5-1.7l-.6-.3a1.42,1.42,0,0,0-.6-.2m.7-2.3c-.5-.1-.9,1.4-.4,1.7a3.33,3.33,0,0,0,.6.3,1.42,1.42,0,0,0,.6.2c.5.1,1-1.3.5-1.7l-.6-.3a1.85,1.85,0,0,0-.7-.2m.7-2.4c-.6-.1-1,1.4-.5,1.8a3.33,3.33,0,0,0,.6.3,1.42,1.42,0,0,0,.6.2c.6.1,1.1-1.4.6-1.7-.2-.1-.4-.3-.6-.3a4.87,4.87,0,0,0-.7-.3m.9-2.4c-.6-.2-1.1,1.4-.6,1.8.2.1.4.3.6.3a4.87,4.87,0,0,1,.7.3c.6.1,1.1-1.4.6-1.8-.2-.1-.5-.3-.7-.4a2.07,2.07,0,0,1-.6-.2m.9-2.5c-.6-.2-1.2,1.5-.7,1.8a2.51,2.51,0,0,0,.7.4c.2.1.5.2.7.3.6.1,1.3-1.5.7-1.8a2.15,2.15,0,0,0-.7-.4c-.2-.1-.5-.2-.7-.3m1.1-2.4c-.6-.2-1.3,1.4-.8,1.8.2.1.4.3.6.4a2.54,2.54,0,0,0,.7.2c.6.2,1.3-1.4.8-1.8a4.35,4.35,0,0,0-.7-.4.84.84,0,0,0-.6-.2m1.1-2.4c-.6-.2-1.3,1.4-.8,1.8a4.35,4.35,0,0,0,.7.4,6.88,6.88,0,0,0,.8.3c.6.1,1.3-1.5.8-1.8a2.5,2.5,0,0,1-.7-.4,1.13,1.13,0,0,0-.8-.3m1.2-2.5c-.6-.2-1.3,1.4-.8,1.8.2.1.5.3.7.4s.5.2.8.3c.6.1,1.4-1.5.8-1.8a2.15,2.15,0,0,0-.7-.4,2.61,2.61,0,0,0-.8-.3m1.1-2.5a.37.37,0,0,0-.3.1l-.2.3c-.2.3-.3.6-.5.9a.37.37,0,0,0,.2.5c.2.1.4.3.6.4a2.35,2.35,0,0,0,.8.2c.6.2,1.3-1.5.8-1.8a1.61,1.61,0,0,0-.7-.4,1.85,1.85,0,0,1-.7-.2m.2-.8c0,.1.1.1.1.2a4.35,4.35,0,0,0,.7.4c.2.1.5.2.7.3.6.1,1.3-1.4.8-1.7a1.61,1.61,0,0,0-.7-.4,1.42,1.42,0,0,0-.6-.2,17,17,0,0,0-1,1.4m1.5-2a.52.52,0,0,0,.4.2,4.87,4.87,0,0,1,.7.3c.6.1,1.4-1.3.8-1.7a3.33,3.33,0,0,0-.6-.3,10,10,0,0,0-1.3,1.5m1.9-1.9c.1,0,.2.1.4.1.4.1.9-.6,1-1.1a7.09,7.09,0,0,0-1.4,1m-11.29,36.3a20511.56,20511.56,0,0,0-.6-.2c-.1-.1,0,.8.1.8a.31.31,0,0,0,.2.1.31.31,0,0,1,.2.1c0-.1.2-.7.1-.8m.4.2a.37.37,0,0,0,.3.1c.1,0,.2.1.3.1s-.5.6-.6.5h-.2c-.1-.1-.1-.1-.2-.1s.2-.6.4-.6m1.5.7c.2.1-.7.5-.8.4H185l-.1-.1c-.1-.1.5-.5.7-.5a558564.86,558564.86,0,0,1,.4.2m-3.5-1.6c-.1-.1.2.8.3.9a.1.1,0,0,1,.1.1c.1,0,.1.1.2.1s0-.8-.2-.9-.1-.1-.3-.2h-.1m2-.4c-.2-.1-.3-.2-.5-.2s-.3-.2-.4-.2c-.3,0-.3.9,0,1,.1,0,.2.1.3.2s.2.1.3.1.5-.8.3-.9m.5.2c.2.1.3.1.5.2l.4.2c.2.1-.5.7-.7.7s-.3-.1-.4-.2-.2-.1-.3-.2.3-.8.5-.7m2.2,1c.2.2-.6.6-.9.6-.1,0-.2-.1-.3-.1a.37.37,0,0,0-.3-.1c-.1-.1.6-.7.8-.6s.2.1.3.1.3.1.4.1m-4.9-2.2c-.2-.1,0,.9.2,1s.2.1.2.2a.35.35,0,0,1,.2.1c.2,0,.2-.8,0-1s-.2-.1-.3-.2a.37.37,0,0,0-.3-.1m2.7-.4-.6-.3a1.42,1.42,0,0,0-.6-.2c-.3-.1-.4.9-.2,1.1s.3.2.4.2.3.1.5.2c.4.1.8-.8.5-1m.7.3a1.42,1.42,0,0,0,.6.2,2.18,2.18,0,0,1,.5.3c.3.2-.5,1-.7.9s-.3-.1-.5-.2-.3-.2-.4-.2.2-1.1.5-1m2.6,1.2c.3.2-.6.9-.9.8-.1,0-.2-.1-.3-.1s-.2-.1-.3-.1c-.2-.2.4-.9.8-.8.2.1.2.1.3.1a1,1,0,0,1,.4.1m-5.9-2.7c-.3,0-.2,1,0,1.2s.2.1.3.2a.37.37,0,0,0,.3.1c.2,0,.4-1,.1-1.2-.1-.1-.2-.1-.4-.2a.37.37,0,0,0-.3-.1m3.3-.5a4.87,4.87,0,0,0-.7-.3,4.87,4.87,0,0,1-.7-.3c-.4-.2-.6,1.1-.3,1.3l.6.3.6.3c.3.1.8-1.1.5-1.3m.8.4a4.87,4.87,0,0,1,.7.3c.2.1.5.2.7.3s-.5,1.2-.8,1.1-.4-.1-.6-.2a3.33,3.33,0,0,0-.6-.3c-.3-.2.2-1.3.6-1.2m3.1,1.4c.3.2-.6,1.1-1,1-.2-.1-.3-.1-.5-.2s-.2-.1-.3-.2.5-1.1.9-1c.2,0,.3.1.5.2s.3.2.4.2m-7-3.2c-.3-.1-.4,1.2-.1,1.4a.52.52,0,0,0,.4.2c.2,0,.2.1.4.1s.5-1.1.2-1.4c-.2-.1-.3-.1-.4-.2a4.33,4.33,0,0,1-.5-.1m3.9-.5a2,2,0,0,0-.8-.4,6.89,6.89,0,0,1-.8-.3c-.4-.2-.8,1.3-.4,1.5a4.35,4.35,0,0,0,.7.4c.2.1.5.2.7.3.4.1,1-1.3.6-1.5m.9-2.1a7.25,7.25,0,0,0-.9-.5,3.55,3.55,0,0,1-.9-.4c-.5-.2-.9,1.3-.5,1.6.3.1.5.3.8.4a3.55,3.55,0,0,1,.9.4c.4.2,1-1.2.6-1.5m.9-2.1a9.29,9.29,0,0,0-1-.5c-.3-.1-.7-.3-1-.4-.6-.2-1.1,1.4-.6,1.6a4,4,0,0,1,.9.5,10.38,10.38,0,0,0,1,.4c.5.1,1.2-1.3.7-1.6m1-2.1a8.8,8.8,0,0,1-1-.6,4.87,4.87,0,0,0-1.1-.4c-.6-.2-1.1,1.4-.6,1.7a9.29,9.29,0,0,1,1,.5,4.87,4.87,0,0,0,1.1.4c.4.1,1.1-1.4.6-1.6m1-2.3a5.35,5.35,0,0,0-1.1-.5,3.58,3.58,0,0,0-1.1-.4c-.6-.2-1.2,1.4-.7,1.7a5.35,5.35,0,0,0,1.1.5,4.87,4.87,0,0,0,1.1.4c.5.2,1.2-1.4.7-1.7m1-2.4a3.69,3.69,0,0,0-1.1-.5c-.4-.2-.8-.3-1.2-.5-.7-.2-1.3,1.4-.7,1.8a61997722022017.37,61997722022017.37,0,0,1,2.2,1c.7.2,1.4-1.4.8-1.8m1.1-2.3-1.2-.6a6.11,6.11,0,0,0-1.2-.5c-.6-.3-1.3,1.4-.7,1.8.3.2.8.4,1.1.6a6.11,6.11,0,0,0,1.2.5c.6.2,1.4-1.5.8-1.8m1.1-2.5-1.2-.6c-.4-.2-.8-.3-1.2-.5-.7-.3-1.5,1.5-.8,1.8.3.2.8.4,1.1.6s.8.3,1.2.5c.7.3,1.5-1.4.9-1.8m1.1-2.5a10.91,10.91,0,0,1-1.1-.6c-.4-.2-.8-.3-1.3-.5s-1.4,1.5-.8,1.8l1.2.6a4.32,4.32,0,0,0,1.2.5c.7.3,1.4-1.4.8-1.8m1.1-2.4a10.91,10.91,0,0,1-1.1-.6,6.11,6.11,0,0,0-1.2-.5c-.6-.2-1.5,1.5-.9,1.8a10.91,10.91,0,0,1,1.1.6,6.11,6.11,0,0,1,1.2.5c.8.3,1.6-1.5.9-1.8m1.2-2.5-1.2-.6c-.4-.2-.8-.3-1.2-.5-.7-.2-1.4,1.5-.8,1.8l1.2.6a11.72,11.72,0,0,1,1.1.5c.7.3,1.5-1.4.9-1.8m1.1-2.4a13.37,13.37,0,0,0-1.2-.6,6.11,6.11,0,0,0-1.2-.5c-.6-.2-1.4,1.4-.8,1.8l1.2.6c.4.2.8.3,1.2.5.6.2,1.4-1.4.8-1.8m1-2.3a9.73,9.73,0,0,0-1.1-.5,6.11,6.11,0,0,0-1.2-.5c-.6-.2-1.4,1.3-.8,1.7l1.2.6a9.73,9.73,0,0,0,1.1.5c.7.2,1.4-1.5.8-1.8" style="fill:#ffc726"/><path d="M332.9,191.72c-3.3-1.7-7.7-7-11-11.2a23.86,23.86,0,0,0-8.4-7.1,13.74,13.74,0,0,0-5.6-1.5c5.2,9.7-3.1,25.3-.2,42.2-11.6-25.7,6-32.8-3-45.3l1.4-1c4.7,5.3,13,2,20.49,13.5,2.6,3.9,3.5,6.8,6.3,10.4m-15.4,10a5.73,5.73,0,0,0,.4-.7,8.79,8.79,0,0,0,1.2-2.8,9.72,9.72,0,0,0,.1-5.6c-.1-.2-.1-.3-.2-.4a9.06,9.06,0,0,1-1.3-2.6c0-.1-.2-.4-.3-.8a8.34,8.34,0,0,1-.4,1.5,17.82,17.82,0,0,1-1.2,2.4,9.91,9.91,0,0,0,0,5.4,13.9,13.9,0,0,0,1.2,2.8,3.51,3.51,0,0,1,.5.8m8.9,7h0a7,7,0,0,1,.9.6,7.9,7.9,0,0,1,2.9,3.6,21.72,21.72,0,0,1,.7,2.4v.5a.76.76,0,0,1-.4-.2,10.07,10.07,0,0,1-2.3-1.2,13.44,13.44,0,0,1-1.4-1.1,14,14,0,0,0,0-2.9,5.26,5.26,0,0,0-.4-1.7m-.2,5.1a1.38,1.38,0,0,1-.4-.3,16.31,16.31,0,0,1-2-1.7,7,7,0,0,1-1.9-3.6,9.66,9.66,0,0,0,.7-2.7,9,9,0,0,0,2.8,2.7,6.65,6.65,0,0,1,.7,2.4,8.18,8.18,0,0,1,.1,2.7v.5m2.9-4.8a1.42,1.42,0,0,0-.6-.2,10,10,0,0,1-5.8-4.4,8.52,8.52,0,0,0-.5-3.6,12.5,12.5,0,0,0,1.2.9,17.09,17.09,0,0,0,2.3,1.2,8,8,0,0,1,2.3,2.9,9,9,0,0,1,.9,2.6,1.42,1.42,0,0,1,.2.6m-8.1-.7c-.1-.2-.3-.3-.4-.5a7.48,7.48,0,0,1-1.5-2.4,10.73,10.73,0,0,1-.9-3.4,19.16,19.16,0,0,0,1.6-3.5,1.85,1.85,0,0,0,.2-.7c.2.3.4.7.6,1v.1l.6.9a9.83,9.83,0,0,1,.8,5.1,9.59,9.59,0,0,1-.7,2.8,3.33,3.33,0,0,0-.3.6m6.1-5.6c-.2-.1-.5-.2-.7-.3a13,13,0,0,1-2.6-1.4,8.75,8.75,0,0,1-3.4-4.2,1.42,1.42,0,0,1-.2-.6,9.47,9.47,0,0,0-.2-2.9l.2.2a4.35,4.35,0,0,1,.7.6,16.31,16.31,0,0,0,3.1,1.7,9.45,9.45,0,0,1,2.1,3.1,14.74,14.74,0,0,1,.8,2.8,5.75,5.75,0,0,1,.2,1m-18.09-30c.1.2.1.3.2.4a9.73,9.73,0,0,0,1.1,2.3,7.94,7.94,0,0,0,3.5,3,7.28,7.28,0,0,0,2.4.7c.2,0,.3.1.5.1-.1-.2-.1-.3-.2-.5a7.24,7.24,0,0,0-1.2-2.3,8.53,8.53,0,0,0-3.5-3,10.27,10.27,0,0,0-2.5-.7H309m3.8,12.8c.1-.2.1-.3.2-.5a8.65,8.65,0,0,0,.8-2.6,9.72,9.72,0,0,0-.1-3.4h-.1a7.39,7.39,0,0,1-2.8-2.1,3.55,3.55,0,0,0-.2,1,8,8,0,0,0,.6,4.8,10.46,10.46,0,0,0,1.3,2.3.46.46,0,0,0,.3.5m8.7,1.8a1.27,1.27,0,0,1-.1-.6,13.82,13.82,0,0,0-.8-2.7,9.38,9.38,0,0,0-3.2-3.9,23.75,23.75,0,0,1-2.9-.7,10.27,10.27,0,0,0,.7,2.5,8.68,8.68,0,0,0,3.2,3.9,13.44,13.44,0,0,0,2.4,1.2c.2.2.5.2.7.3m-6.8,6a2.09,2.09,0,0,1,.4-.6,15.76,15.76,0,0,0,1.3-2.6,9.81,9.81,0,0,0,.3-4.8,9.51,9.51,0,0,1-2-2.8c0-.1-.2-.4-.3-.7a1.27,1.27,0,0,1-.1.6,11,11,0,0,1-1,3.2,9.92,9.92,0,0,0,0,4.2,14.77,14.77,0,0,0,1,2.7,5.89,5.89,0,0,1,.4.8m10.1,2.2a2.2,2.2,0,0,1-.1-.8,15.3,15.3,0,0,0-.7-2.9,9.13,9.13,0,0,0-2.4-3.7,16.22,16.22,0,0,1-3.6-1.7c-.1-.1-.3-.2-.4-.3v.3a15,15,0,0,0,.6,2.9,9.76,9.76,0,0,0,3.2,4.3c.8.6,1.7,1,2.5,1.5a6.31,6.31,0,0,0,.9.4" style="fill:#ffc726"/><path d="M224.5,154c-.2.1-.3.1-.4.2l-2.7,2.6c-.1.2-.2.3-.2.5v49h.1v.4h.1c0,.1,0,.1.1.1h.2a131.12,131.12,0,0,1,16.3,7,115.64,115.64,0,0,1,14.9,9.3.52.52,0,0,0,.4.2h5.4a.52.52,0,0,0,.4-.2,115.64,115.64,0,0,1,14.9-9.3,131.14,131.14,0,0,1,16.3-7h.2c.1,0,.1,0,.1-.1h.1v-.4h.1v-49c0-.2-.1-.3-.2-.5l-2.7-2.6c-.1-.1-.2-.1-.4-.2h-.1l-.2.1H287a132.54,132.54,0,0,0-16.4,7,101.37,101.37,0,0,0-14.6,9.2,101.38,101.38,0,0,0-14.6-9.2,132.55,132.55,0,0,0-16.4-7h-.2l-.2-.1Z" style="fill:#dc241f"/><path d="M228,190.22a106,106,0,0,1,13.3,6,109.88,109.88,0,0,1,11.9,7.1v1.5a114.07,114.07,0,0,0-25.2-13.2Z"/><path d="M224.6,199v4.7a133,133,0,0,1,16.4,7.1,110.25,110.25,0,0,1,15,9.3,110.25,110.25,0,0,1,15-9.3,133,133,0,0,1,16.4-7.1V199a124.91,124.91,0,0,0-16.4,7.1,110.25,110.25,0,0,0-15,9.3,110.24,110.24,0,0,0-15-9.3,124.91,124.91,0,0,0-16.4-7.1Z" style="fill:#ffc726"/><path d="M228,181.72a106,106,0,0,1,13.3,6,109.88,109.88,0,0,1,11.9,7.1v1.5a114.07,114.07,0,0,0-25.2-13.2Z"/><path d="M228,173.22a106,106,0,0,1,13.3,6,109.88,109.88,0,0,1,11.9,7.1v1.5a114.07,114.07,0,0,0-25.2-13.2Z"/><path d="M228,164.72a106,106,0,0,1,13.3,6,109.88,109.88,0,0,1,11.9,7.1v1.5a114.07,114.07,0,0,0-25.2-13.2Z"/><path d="M284,190.22a106,106,0,0,0-13.3,6,109.88,109.88,0,0,0-11.9,7.1v1.5a114.07,114.07,0,0,1,25.2-13.2Z"/><path d="M284,181.72a106,106,0,0,0-13.3,6,109.88,109.88,0,0,0-11.9,7.1v1.5a114.07,114.07,0,0,1,25.2-13.2Z"/><path d="M284,173.22a106,106,0,0,0-13.3,6,109.88,109.88,0,0,0-11.9,7.1v1.5a114.07,114.07,0,0,1,25.2-13.2Z"/><path d="M284,164.72a106,106,0,0,0-13.3,6,109.88,109.88,0,0,0-11.9,7.1v1.5a114.07,114.07,0,0,1,25.2-13.2Z"/><path d="M256,137.62l-2.9,26.1,2.9,2,2.9-2" style="fill:#fff"/><path d="M247.5,141l-2.8,17.7-3.9-2Z" style="fill:#fff"/><path d="M227.4,151l16.6-20.8-10.3,23.2" style="fill:#fff"/><path d="M284.6,151,268,130.22l10.3,23.2" style="fill:#fff"/><path d="M264.5,141l2.8,17.7,3.9-2Z" style="fill:#fff"/><path d="M269.2,121.51,247.84,137,256,111.92,264.16,137,242.8,121.51" style="fill:#fff"/><path d="M188.5,239.42c-3.1.3-6.2.4-9.2.4h-1.5l1.3.6a79.05,79.05,0,0,1,8.2,4.2l.1.4h.1a12.06,12.06,0,0,1,4.6-.8c1.5,0,1.2,1.3,3,1.7,2.4.4,5,.5,7.4,1l27.2,5.9.3-.3.1-.1,8.6-.2-35.5-8.1c-2.5-.6-4.8-1.6-7.3-2.2-1.9-.6-1.9,1-3.4.2a17.69,17.69,0,0,1-3.9-2.6v-.1Zm91.8,22-2.6.2a13.52,13.52,0,0,0-2,.2c-.5.2-1.1.3-1.6.5L332.9,275c.4.1.8-1.5.4-1.6Zm-97.31,22c-.89,0-1.18,1-.48,1.58l7.3,6.7c.2.2.4.2.7.3a43.49,43.49,0,0,1,13.1,3.7c10.8,5.4,24.6,15.7,40.1,17.1l3.2,2.8h18.3l3.3-2.8c21-1.9,37-20.5,54.4-20.5h7.6v.3a1.13,1.13,0,0,0,.3.8l.4.3c.1.2.5.1.7,0l2.3-1.5h2.5c.7,0,.6-2,0-2l-2.5.3-2.4-3.9a.43.43,0,0,0-.7-.2l-.2.1a.55.55,0,0,0-.4.6v1.2H195.1l-.5-1.1a1.65,1.65,0,0,0-1-1l-10.2-2.7a1.46,1.46,0,0,0-.42-.08Zm12.52,6h135v1.1h-7.6c-20.1,0-34.8,16.2-55.9,18.1l-3.1,2.8H248.4l-3.2-2.8c-17.9-1.6-32.1-13.1-48.9-18-.3,0-.3-.1-.5-.4Z" style="fill:#ffc726"/><path d="M236.4,267.62l1-2.5h.3a2.17,2.17,0,0,1,1.9,1,3,3,0,0,0,1.7,1.4c.2.1.2,0,.1-.2a2,2,0,0,1-.5-1.8,2.82,2.82,0,0,1,1.5-2l.1-.1,1.6-.1c.8-.1,1.9.2,1.9,1.3v2.1a1.83,1.83,0,0,1-1.5,1.9,1.08,1.08,0,0,1-.6.1c-.3,0-.5.1-.7.1l-4.1.1a2.54,2.54,0,0,1-1.5-.3,2.09,2.09,0,0,1-.6-.4Z" style="fill:none;stroke:#fff;stroke-width:2.5px"/><path d="M323.79,249a.6.6,0,0,0-.1.4,5.86,5.86,0,0,1-.2,1.3,6.11,6.11,0,0,1-.5,1.2l-1.9,4.1v.2l-8.7.1v1.6h16.8a2.21,2.21,0,0,0,0-1.6h-2.8l-.6-6.8a.6.6,0,0,0-.1-.4.6.6,0,0,0-.4-.1h-1.5Zm-60.3,1c.3,1,.7,2.1,1.1,3.1h2.8v.1l.5,1.2h37a.26.26,0,0,1,.3.3v3l1.7,1.5,2.2-1.2,2.5.2.2-.2v-1.7l-.2-.8c0-.2-.2-.3-.2-.4s-.1,0-.1-.1a.1.1,0,0,1-.1-.1h-.1c-.8-.4-1.4-.9-2.2-1.4a4.52,4.52,0,0,0-3.5-1.3l-10.2-.1v.1h-.6l-.9-1h-19l-.1-.1a.76.76,0,0,1-.2-.5,1.43,1.43,0,0,0-1.2-.6Zm.2,2.3-33.2.7-4.5,4.5,1.3,3.5a5.4,5.4,0,0,0,.7,1.3,5.11,5.11,0,0,0,1.6,1.1h.5a.37.37,0,0,1,.3.1h1.3l10.2-1,1.9-.2a2.45,2.45,0,0,1,2.8,1.6l2.4-.4,1.5-1c.1-.1.1-.1.2-.1,5.6-.5,11.3-.9,17-1.2v-6.3l-.4-1.1h-2.9v-.1Zm4.4,2.9v6l.6.2c2.1.5,2.9.7,5,0a10.55,10.55,0,0,1,1.9-.5,7.48,7.48,0,0,1,2.1-.2l14.1-.5a3.66,3.66,0,0,0,1.8-.4,2.73,2.73,0,0,0,.9-1.2l.3-.8h9.7v-2.6H268.1Zm-42.6,2.5-3.6.9,1.1,6.6,1.2-.4a3.09,3.09,0,0,1,3.3.8l.5.5.3.4.2.2a1.8,1.8,0,0,1,.3,2.1l-3.5,8.8a2.19,2.19,0,0,0,1.1,2.7l1.6.7a2.15,2.15,0,0,0,2.7-1.2l6.4-16.1-5.3.5h-1.5l-.2-.1-.2-.1h-.3l-.1-.1h-.1c-.2-.1-.3-.1-.5-.2v-.1l-.4-.2c-.1-.1-.1-.1-.2-.1l-.1-.1-.1-.1V263l-.1-.1-.1-.1c-.1,0-.1-.1-.1-.2l-.1-.1h-.1c0-.1-.1-.1-.2-.2s0-.1-.1-.2l-.1-.1v-.3l-.1-.1-.1-.1-.1-.2-.1-.1v.1Zm-4.3,1-6.6,1.5a5.26,5.26,0,0,1-4.5-.6L190.7,264a2.84,2.84,0,0,0-1.7.9,3,3,0,0,0-.3,1.6l1.6,10.9c0,.3.2.5.2.7a3,3,0,0,0,.8.8,2.35,2.35,0,0,0,1.2.2,9.43,9.43,0,0,0,.9-.3q7-3.75,14.4-7.2c4.7-2.2,9.5-4.2,14.4-6.1Zm37.6,3.7-8,.7-1.2.8v.1c.2,1.2.6,2.4.8,3.5a4.88,4.88,0,0,0,.4,1.1,36.11,36.11,0,0,0,1.7,4.6,41.44,41.44,0,0,0,15.6,18.5l5.2-8.6a16,16,0,0,1-2.5-1.8c-1-.8-1.9-1.6-2.8-2.4a33.73,33.73,0,0,1-9-15.9Zm-17.8.9-3.3.3-.3.7a3,3,0,0,1,2.5.9,3.11,3.11,0,0,1,1.1-1.9Zm7.8.9-2.2.4v1.5l2.6-.2-.3-1.5Z" style="fill:none;stroke:#fff;stroke-width:2.5px"/><path d="M236.4,267.62l1-2.5h.3a2.17,2.17,0,0,1,1.9,1,3,3,0,0,0,1.7,1.4c.2.1.2,0,.1-.2a2,2,0,0,1-.5-1.8,2.82,2.82,0,0,1,1.5-2l.1-.1,1.6-.1c.8-.1,1.9.2,1.9,1.3v2.1a1.83,1.83,0,0,1-1.5,1.9,1.08,1.08,0,0,1-.6.1c-.3,0-.5.1-.7.1l-4.1.1a2.54,2.54,0,0,1-1.5-.3,2.09,2.09,0,0,1-.6-.4Z"/><path d="M323.79,249a.6.6,0,0,0-.1.4,5.86,5.86,0,0,1-.2,1.3,6.11,6.11,0,0,1-.5,1.2l-1.9,4.1v.2l-8.7.1v1.6h16.8a2.21,2.21,0,0,0,0-1.6h-2.8l-.6-6.8a.6.6,0,0,0-.1-.4.6.6,0,0,0-.4-.1h-1.5Zm-60.3,1c.3,1,.7,2.1,1.1,3.1h2.8v.1l.5,1.2h37a.26.26,0,0,1,.3.3v3l1.7,1.5,2.2-1.2,2.5.2.2-.2v-1.7l-.2-.8c0-.2-.2-.3-.2-.4s-.1,0-.1-.1a.1.1,0,0,1-.1-.1h-.1c-.8-.4-1.4-.9-2.2-1.4a4.52,4.52,0,0,0-3.5-1.3l-10.2-.1v.1h-.6l-.9-1h-19l-.1-.1a.76.76,0,0,1-.2-.5,1.43,1.43,0,0,0-1.2-.6Zm.2,2.3-33.2.7-4.5,4.5,1.3,3.5a5.4,5.4,0,0,0,.7,1.3,5.11,5.11,0,0,0,1.6,1.1h.5a.37.37,0,0,1,.3.1h1.3l10.2-1,1.9-.2a2.45,2.45,0,0,1,2.8,1.6l2.4-.4,1.5-1c.1-.1.1-.1.2-.1,5.6-.5,11.3-.9,17-1.2v-6.3l-.4-1.1h-2.9v-.1Zm4.4,2.9v6l.6.2c2.1.5,2.9.7,5,0a10.55,10.55,0,0,1,1.9-.5,7.48,7.48,0,0,1,2.1-.2l14.1-.5a3.66,3.66,0,0,0,1.8-.4,2.73,2.73,0,0,0,.9-1.2l.3-.8h9.7v-2.6H268.1Zm-42.6,2.5-3.6.9,1.1,6.6,1.2-.4a3.09,3.09,0,0,1,3.3.8l.5.5.3.4.2.2a1.8,1.8,0,0,1,.3,2.1l-3.5,8.8a2.19,2.19,0,0,0,1.1,2.7l1.6.7a2.15,2.15,0,0,0,2.7-1.2l6.4-16.1-5.3.5h-1.5l-.2-.1-.2-.1h-.3l-.1-.1h-.1c-.2-.1-.3-.1-.5-.2v-.1l-.4-.2c-.1-.1-.1-.1-.2-.1l-.1-.1-.1-.1V263l-.1-.1-.1-.1c-.1,0-.1-.1-.1-.2l-.1-.1h-.1c0-.1-.1-.1-.2-.2s0-.1-.1-.2l-.1-.1v-.3l-.1-.1-.1-.1-.1-.2-.1-.1v.1Zm-4.3,1-6.6,1.5a5.26,5.26,0,0,1-4.5-.6L190.7,264a2.84,2.84,0,0,0-1.7.9,3,3,0,0,0-.3,1.6l1.6,10.9c0,.3.2.5.2.7a3,3,0,0,0,.8.8,2.35,2.35,0,0,0,1.2.2,9.43,9.43,0,0,0,.9-.3q7-3.75,14.4-7.2c4.7-2.2,9.5-4.2,14.4-6.1Zm37.6,3.7-8,.7-1.2.8v.1c.2,1.2.6,2.4.8,3.5a4.88,4.88,0,0,0,.4,1.1,36.11,36.11,0,0,0,1.7,4.6,41.44,41.44,0,0,0,15.6,18.5l5.2-8.6a16,16,0,0,1-2.5-1.8c-1-.8-1.9-1.6-2.8-2.4a33.73,33.73,0,0,1-9-15.9Zm-17.8.9-3.3.3-.3.7a3,3,0,0,1,2.5.9,3.11,3.11,0,0,1,1.1-1.9Zm7.8.9-2.2.4v1.5l2.6-.2-.3-1.5Z"/><path d="M297.5,357.85l.2.9c1.1-.1,1.2.1,1.7,1.9l2.2,8.69c.5,1.9.3,2.1-.7,2.5l.2.8,4.7-1.2-.2-.8c-1.3.2-1.5,0-2-1.8l-.8-3.1,1.1.1c.2-.1.3-.1.5-.2,1.7-.8,2.8-2.6,2-5.59a4.83,4.83,0,0,0-2-3.1,3.55,3.55,0,0,0-2.9-.2Zm3.6,1.1c0-.4-.1-.6,0-.8s.2-.3.5-.3c.8-.2,2,.3,2.7,3,.7,3-.4,3.9-.8,4a2.72,2.72,0,0,1-.9,0Zm19.3,8.89a3.64,3.64,0,0,1-1.2-.9,15.8,15.8,0,0,1-1.6-2.2,18.23,18.23,0,0,1-1.8-3.1,4.33,4.33,0,0,0,1.2-4.2,4.06,4.06,0,0,0-1.6-2.9,3.36,3.36,0,0,0-2.7-.4l-4.5.8.2.9c1.1,0,1.3.1,1.6,2l1.5,8.79c.4,1.9.2,2.1-.9,2.4l.2.9,4.7-.8-.2-.9c-1.1.1-1.3-.1-1.6-2l-.6-3.3.3-.1c.5-.1.8.2,1.1.9a30.06,30.06,0,0,0,1.9,3.2c1,1.4,1.6,1.9,3.5,1.7.2,0,.5,0,.6-.1Zm-7.6-5.79-.9-5.39c-.1-.5-.2-.7-.1-.9s.2-.3.6-.4c.9-.2,2,.5,2.4,2.9a4.43,4.43,0,0,1-.3,2.9,1.55,1.55,0,0,1-1.2.8Zm12.3-9.69c-3.4.3-4.7,4.5-4.3,8.39.4,4.5,2.6,7.69,5.6,7.49,2.8-.3,4.6-3.5,4.2-8.49-.4-4.7-2.7-7.69-5.5-7.39m-.1,1.1c1.6-.1,2.7,2.6,3.2,7.09.4,4.2-.3,6.49-1.6,6.59-1.8.2-2.9-3.2-3.3-7.09-.4-3.7.3-6.49,1.7-6.59m18.1,6.09-4.7.1v.9c1.6.2,1.6.3,1.6,1.7l.1,2.4a2.06,2.06,0,0,1-.3,1.3,1.49,1.49,0,0,1-.7.3c-2.1,0-3.3-3.3-3.3-7.09-.1-4.3,1.4-6.69,3-6.79,1.2,0,2.1.9,2.7,3.5l.7-.2c-.2-1.7-.2-2.9-.3-3.7a8.4,8.4,0,0,0-2.8-.6c-3.2.1-5.8,3-5.8,8.29.1,4.5,2.2,7.69,5.7,7.59a9,9,0,0,0,3.4-.9c-.1-.6-.1-1.4-.2-2.2v-2.1c-.1-1.5.1-1.5.8-1.8Zm11.7,7.29c-.3-.1-.6-.5-.9-1.1a17,17,0,0,1-1.1-2.5c-.3-1.1-.9-2.8-1.1-3.5a4.4,4.4,0,0,0,2.2-3.8,3.87,3.87,0,0,0-1-3.2,3.68,3.68,0,0,0-2.6-1l-4.6-.2-.1.9c1.1.2,1.2.4,1.1,2.3l-.5,9c-.1,1.9-.3,2.1-1.5,2.2v.9l4.7.2v-.9c-1.1-.2-1.2-.4-1.1-2.3l.2-3.4h.2c.5.1.7.3.9,1.1a25.69,25.69,0,0,0,1.1,3.6c.6,1.5,1.1,2.2,3.1,2.4.2,0,.5.1.6.1Zm-6.1-7.29.3-5.49c0-.5,0-.7.2-.9a1,1,0,0,1,.7-.2c.8,0,1.8,1,1.6,3.4a4.51,4.51,0,0,1-.9,2.7,1.74,1.74,0,0,1-1.4.5Zm15.3,5a10,10,0,0,1-1.1,2.1c-.4.6-.9.7-1.8.6a3.33,3.33,0,0,1-1.3-.4c-.3-.3-.3-.8-.2-1.9l.4-4.1,1,.1c1.4.1,1.4.2,1.5,2l.7.1.5-4.8-.7-.1c-.3,1.7-.5,1.7-1.8,1.6l-1-.1.5-4.7c.1-.8.2-.9.7-.8l.6.1c1,.1,1.4.4,1.6.8a6.85,6.85,0,0,1,.4,1.9h.7c.1-1.4.1-3,.2-3.5l-7.4-.8-.1.9c1.1.3,1.2.4,1,2.3l-.9,9c-.2,1.9-.4,2-1.6,2l-.1.9,7.9.8c.2-.6.7-2.8.9-3.7Zm9.7-6c.1-1.5.2-2.5.2-3.4a5.22,5.22,0,0,0-2.1-.9c-2.3-.4-3.9,1.4-4.3,3.9a5.93,5.93,0,0,0,2.1,5.19,3.91,3.91,0,0,1,1.3,3.4c-.2,1.4-1,2.2-1.9,2.1-1.5-.2-1.9-2.8-2-4.2l-.7.2a27.58,27.58,0,0,0-.1,3.9,9.68,9.68,0,0,0,.9.7,2.46,2.46,0,0,0,1.5.5c2.4.4,4.2-1.4,4.6-4a6.05,6.05,0,0,0-2-5.29c-1.2-1.2-1.6-2-1.4-3.3s1.1-2.1,1.8-2c1.3.2,1.4,1.9,1.6,3.4Zm9.3,1.9c.2-1.5.2-2.5.4-3.4a3.73,3.73,0,0,0-2-1c-2.3-.5-4,1.2-4.5,3.6a6.26,6.26,0,0,0,1.7,5.29,3.75,3.75,0,0,1,1.1,3.5c-.3,1.4-1.1,2.2-2,2-1.5-.3-1.8-2.9-1.8-4.3l-.7.1a36.41,36.41,0,0,0-.3,3.8,4,4,0,0,0,.9.7,3.39,3.39,0,0,0,1.5.6c2.3.5,4.3-1.2,4.8-3.8.5-2.3-.3-3.8-1.7-5.39-1.1-1.2-1.6-2.1-1.2-3.3.2-1.4,1.1-2.1,1.9-1.9,1.3.3,1.4,2,1.4,3.5Zm8.6-2c-3.3-.8-5.9,2.7-6.8,6.49-1.1,4.4-.1,8.09,2.8,8.89,2.7.7,5.5-1.7,6.8-6.59,1.1-4.6-.1-8.19-2.8-8.79Zm-.5,1c1.6.4,1.8,3.3.7,7.79-1,4.1-2.4,6-3.7,5.69-1.7-.4-1.8-3.9-.8-7.69s2.4-6.19,3.8-5.79" style="fill:#dc241f"/><path d="M130.1,357.55l-4.9,1.1.3.9c1.3-.2,1.9,0,2.1.8a24,24,0,0,1,.9,3.3l.6,2.7c.8,3.7.2,5.59-1.8,6s-3.3-.9-4-4.2l-1.3-5.39c-.4-2-.3-2.2,1-2.6l-.2-.9-5.7,1.3.2.9c1.4-.2,1.6,0,2.1,1.9l1.3,5.59c.6,2.7,1.4,4.2,2.6,4.9a4.74,4.74,0,0,0,3.7.4,4.57,4.57,0,0,0,3.1-2.5c.7-1.5.5-3.7,0-5.89l-.5-2.4c-.4-1.9-.5-2.6-.6-3.4s.2-1.3,1.2-1.6Zm14.6-2.7-4.8.8.2.9c1.3-.2,1.8.1,2,.9s.5,1.8.9,3.8l.7,4.1h-.1l-8.4-8.79-3.6.6.2.9a1.93,1.93,0,0,1,1.8.6c.5.5.5.9.8,2.4l.8,4.8a19.13,19.13,0,0,1,.5,3.9c0,.8-.3,1.3-1.4,1.5l.2.9,4.9-.9-.2-.9c-1.4.2-1.8-.1-2.1-1a28.91,28.91,0,0,1-.8-3.7l-.9-5h.1l9.1,9.89,1.1-.2-1.6-9.29a33.56,33.56,0,0,1-.5-3.9c-.1-.9.3-1.3,1.3-1.5Zm9.9,14.09-.1-.9c-1.4,0-1.6-.2-1.8-2.1l-.9-8.89c-.2-1.9-.1-2.1,1.3-2.4l-.1-.9-5.9.6.1.9c1.5,0,1.6.2,1.8,2.1l.9,8.89c.2,1.9.1,2.1-1.3,2.4l.1.9Zm1.1-15.48.1.9c1.4.1,1.5.2,1.7,2.2l.5,8.89c.1,2-.1,2.1-1.6,2.4v.9l4.7-.3a7.76,7.76,0,0,0,5.6-2.2,8.21,8.21,0,0,0,1.9-6.39,7.31,7.31,0,0,0-1.9-4.8c-1.3-1.4-3.2-1.9-5.6-1.8Zm4.4,2.2a1.88,1.88,0,0,1,.1-1.2c.1-.2.4-.3,1-.3a3.18,3.18,0,0,1,2.8,1.2,8.44,8.44,0,0,1,1.5,5c.3,4.6-1.4,6.89-3.4,7-1.1.1-1.4-.5-1.5-2.1Zm22.4,12.79v-.9c-1.1-.2-1.4-.5-1.9-2.5-1.1-4.1-2.1-8.19-3.3-12.39l-1.1.2-4.4,12.09c-.6,1.7-1,2-2.2,2.1v.9l4.4.2v-.9c-1.3-.3-1.4-.5-1.1-1.8a12.7,12.7,0,0,1,.7-2.1l3.6.2a22.45,22.45,0,0,1,.5,2.2c.3,1.2.2,1.4-.9,1.5l-.1.9Zm-5.5-6.19-2.9-.1c.6-1.7,1.1-3.3,1.6-5h.1Zm8.6-8.59-.1.9c1.3.3,1.5.5,1.3,2.5l-1.1,8.79c-.2,1.9-.4,2.1-1.9,2v.9l4.7.6a7.7,7.7,0,0,0,5.9-1.2,8.48,8.48,0,0,0,3.1-6,7.22,7.22,0,0,0-1-5.09c-1-1.6-2.8-2.4-5.2-2.7Zm3.9,3c.1-.7.2-1,.4-1.1s.4-.2,1-.1a3.1,3.1,0,0,1,2.6,1.7,7.69,7.69,0,0,1,.7,5.09c-.6,4.5-2.6,6.49-4.7,6.19-1-.1-1.3-.7-1.1-2.3ZM208.2,369a6.27,6.27,0,0,1-1.5,1.9c-.5.5-1.1.5-2.2.3a5.35,5.35,0,0,1-1.6-.6c-.3-.3-.3-.8-.1-1.9l.9-4,1.2.3c1.6.4,1.8.5,1.7,2.2l.8.2,1.1-4.7-.8-.2c-.7,1.6-.9,1.6-2.5,1.2l-1.1-.3,1.1-4.7c.2-.8.3-.8,1-.7l.8.2c1.2.3,1.7.6,1.8,1.1a5.4,5.4,0,0,1,.3,1.9l.9.1c.2-1.4.5-3,.6-3.4l-9-2.1-.2.9c1.3.5,1.5.6,1,2.5l-2,8.79c-.5,1.9-.6,1.9-2.2,1.8l-.1.9,9.6,2.3c.3-.6,1.2-2.7,1.5-3.6Z" style="fill:#dc241f"/><path d="M235.5,399.91l.3-.9c-.9-.5-1.1-.8-1-2.8.2-4.3.4-8.39.7-12.69l-1.1-.1L227.3,394c-1.1,1.5-1.4,1.7-2.5,1.5l-.3.9,3.8,1.2.2-.9c-1.1-.5-1-.8-.4-1.9.5-.8.9-1.4,1.1-1.8l3.1,1a17.82,17.82,0,0,1-.2,2.3c-.1,1.2-.3,1.4-1.2,1.2l-.1.8Zm-3-7.39-2.4-.8c.9-1.5,1.8-3,2.8-4.4h0Zm15.5,5.19c-1.1,2-2.2,3.1-3.5,2.9-2-.3-3.1-3.3-2.6-7.49.5-3.6,2.3-6.39,4.3-6.19,1.3.2,2.2,1.1,2.4,3.7l.8-.1c0-1.4.1-2.5.2-3.7a13.12,13.12,0,0,0-2.8-.9c-4-.6-7,2.4-7.7,7.19-.5,3.7.6,7.89,5,8.49a15.38,15.38,0,0,0,3.2-.1c.4-.8,1-2.4,1.4-3.4Zm12.6.4c-.9,2.2-1.8,3.4-3.1,3.4-2,0-3.5-2.7-3.5-7,0-3.6,1.3-6.49,3.3-6.49,1.3,0,2.2.7,2.9,3.3l.8-.2c-.2-1.4-.3-2.3-.4-3.7a8,8,0,0,0-2.9-.6c-4,0-6.6,3.4-6.6,8.19,0,3.6,1.7,7.59,5.9,7.69l-.6.9c-.4.5-.3.9.2,1.5a1.91,1.91,0,0,1,.3.8c0,.4-.3.8-1,1.3l.4.7c1.4-.6,2.1-1.5,2.1-2.4a2.9,2.9,0,0,0-.6-1.6c-.3-.5-.4-.7-.2-.9l.3-.4a17.91,17.91,0,0,0,2.5-.5c.2-.9.7-2.5.9-3.6Zm14.7,1.9-.2-.9c-1.1,0-1.3-.2-2.2-2-1.9-3.8-3.6-7.59-5.4-11.49l-1,.4-1.3,12.69c-.2,1.9-.4,2.1-1.5,2.5l.2.9,3.9-.7-.2-.9c-1.2,0-1.3-.2-1.2-1.5a12.14,12.14,0,0,1,.1-2.1l3.2-.6c.3.6.6,1.5.9,2.1.5,1.1.5,1.3-.5,1.7l.2.9Zm-6.1-5-2.6.4c.2-1.7.3-3.5.4-5.19h0Zm-3.8-12.49c-.5.1-1.1.7-1.3,2.6l.8.4c.2-.8.4-1.2.7-1.3a1.23,1.23,0,0,1,1,.2,2.39,2.39,0,0,0,1.4.3c.6-.1,1.1-.7,1.3-2.6l-.7-.3c-.1.6-.3,1.1-.7,1.2a2.28,2.28,0,0,1-1.1-.3,2.59,2.59,0,0,0-1.4-.2Zm13,.2c-3.6,1.2-4.1,5.69-2.9,9.39,1.4,4.3,4.5,6.79,7.7,5.79,3-1,4.4-4.6,2.8-9.39-1.5-4.5-4.6-6.79-7.6-5.79m.1,1.1c1.7-.6,3.5,1.8,5,6.09,1.3,4,1,6.39-.4,6.79-1.8.6-3.9-2.3-5.1-6-1.1-3.5-1-6.39.5-6.89Z" style="fill:#dc241f"/><path d="M395.9,352.16c-41.6-11.39-77.1-10.79-115.8,3.3v18.08a66.62,66.62,0,0,1-24.1,4.6,64.58,64.58,0,0,1-24.1-4.6l-.1-18.08c-38.8-14.09-74.2-14.59-115.8-3.3-3.6,1-7.1,2-10.6,3.1.9,11.69,6,23.28,17.1,28.47,9.6,4.5,21,4,30.6,9.79V378.13c2.1-.3,4.1-.4,6.2-.6a141.71,141.71,0,0,1,56.6,7.09v16.78a88.84,88.84,0,0,0,80.3,0V384.63c19.5-6.39,37.9-8.69,57.4-7,1.7.1,3.5.3,5.3.5v15.38c9.6-5.79,21.1-5.19,30.6-9.79,11-5.19,16.2-16.78,17.1-28.47C403.1,354.16,399.5,353.16,395.9,352.16Zm-246,36.26a57.47,57.47,0,0,0-8-2.6c-4.5-1.1-9-1.8-13.4-3.2a193.2,193.2,0,0,1,21.4-4.3Zm65.8-24.08v16.88c-2-.7-4-1.3-6.2-1.9h0a146.59,146.59,0,0,0-48-5.29c-4.2.3-8.3.7-12.5,1.3a221.81,221.81,0,0,0-25.6,5.39c-9-4.4-13.6-13.69-14.8-23.28,2.7-.8,5.3-1.6,8.1-2.3,39.2-10.69,73.8-11,111.9,2.4v14.59A71.49,71.49,0,0,1,215.7,364.35Zm77.3,35a86.48,86.48,0,0,1-37.1,8.39,84.62,84.62,0,0,1-37-8.39v-29a58.33,58.33,0,0,0,8.5,4.6,55,55,0,0,0,6.3,2.5,69.36,69.36,0,0,0,22.2,3.6,70.27,70.27,0,0,0,22.2-3.6c2.2-.7,4.3-1.6,6.4-2.5a64,64,0,0,0,8.5-4.6Zm77-13.39a54.69,54.69,0,0,0-8.1,2.6V378.43a194.83,194.83,0,0,1,21.5,4.3C379,384,374.5,384.83,370,385.93Zm18.2-5.19a219,219,0,0,0-25.7-5.39c-4.1-.6-8.2-1-12.4-1.3a146.28,146.28,0,0,0-47.9,5.29h0c-2,.6-4.1,1.2-6.3,1.9V364.35a71.49,71.49,0,0,1-12.9,7.79V357.55c38.1-13.39,72.8-13.09,111.9-2.4,2.7.7,5.4,1.5,8.1,2.3C401.8,367,397.2,376.34,388.2,380.73Z" style="fill:#dc241f"/></svg>