<svg xmlns="http://www.w3.org/2000/svg" xmlns:xlink="http://www.w3.org/1999/xlink" viewBox="0 0 548.38 520"><defs><linearGradient id="a" x1="45.36" y1="946.5" x2="503.65" y2="946.5" gradientTransform="translate(0 -678)" gradientUnits="userSpaceOnUse"><stop offset="0" stop-color="#cc823f"/><stop offset="0.16" stop-color="#e9ccad"/><stop offset="0.42" stop-color="#cc823f"/><stop offset="0.77" stop-color="#5b3a2a"/><stop offset="0.86" stop-color="#5b3a2a"/><stop offset="1" stop-color="#a0663a"/></linearGradient><radialGradient id="b" cx="55.78" cy="1013.81" r="412.75" gradientTransform="translate(-9.28 -858.08)" gradientUnits="userSpaceOnUse"><stop offset="0.34" stop-color="#5b3a2a" stop-opacity="0"/><stop offset="1" stop-color="#5b3a2a" stop-opacity="0.7"/></radialGradient></defs><title>Tokelau-01-01</title><path d="M272.37,447.18h-2.16c-40.9,0-73.34-2-90.07-3.81H180c-55.25-4.16-99.9-11.64-116.71-14.46l-.35-.06c-3.24-.54-5-.83-5.66-.91-4-.47-7-2-9.08-4.74-3.58-4.74-2.8-11.46-2.7-12.21v-.28c.07-1.91,2-47.44,15.48-112.43,8.57-41.2,13.37-77.2,15.89-100.14l.33-3L54.78,192.8v-33l8.28-3.13v-33.3l18.7,1.55,1-1.54.22-.05,175.38-33.5c.09,0,9,2.64,24.75,2.64a161.76,161.76,0,0,0,28.48-2.64L466.35,125,486,123.38v33.27l8.28,3.13v33l-22.47,2.33.33,3c2.52,22.94,7.33,58.94,15.9,100.15,13.51,65,15.4,110.52,15.47,112.42V411c.1.75.89,7.47-2.7,12.21-2,2.68-5.09,4.28-9.09,4.74-.72.08-2.51.38-5.9.93h-.13C469.34,431.56,419.6,439.7,360.62,444c-28.94,2.09-58.63,3.17-88.31,3.22Z" style="fill:url(#a)"/><path d="M488.07,307.42c12.63-4.08,22.35-11.77,28.11-22.25,16.32-29.73,4.89-64.28-34-102.71-41.82-41.33-29.3-30.48-29.4-30.83l-.72.2-.39-1.61-4.15-1.13-3,.38-1.22,1.46,1,3-3.17.86c.44,1.53-11.82-7.93,32.26,35.64,35,34.57,45.78,64.72,32.1,89.64-11.21,20.42-38.09,19.59-43.36,19.22-21.21-1.5-46.84-13.26-58.89-20.8L396.6,288c11.25,7,39.21,20.82,64.51,22.61a74.57,74.57,0,0,0,27-3.19" style="fill:#e3b96d"/><path d="M480.47,304.72c2.26-.46,5.23,3.47,7.6,2.7a50.85,50.85,0,0,0,28.11-22.25c14.91-24,5.31-36.84,4.22-46.49,4.28,23.17-6.5,57.49-39.92,66" style="fill:#a27737"/><path d="M485.68,194.73s25.34,24.84,26.58,61.56l-3.57-15.47-10.37-21-18.11-24.73,5.48-.33" style="fill:#a27737"/><path d="M465.85,311.77c-2.09,0-3.77-.09-4.81-.16-25.49-1.81-53.64-15.68-65-22.76a1,1,0,0,1-.32-1.38h0l6.71-9.53a1,1,0,0,1,1.35-.27c12,7.48,37.4,19.16,58.43,20.65.79.06,2.09.12,3.76.12,8.51,0,29.32-1.83,38.65-18.83,13.44-24.47,2.7-54.23-31.93-88.44S438.57,155.78,439,154.61a1.2,1.2,0,0,1,.87-.71l-1-3.79a1,1,0,0,1,.69-1.23h.08a37.15,37.15,0,0,1,6.38-.56,22.16,22.16,0,0,1,6.82.93,1,1,0,0,1,.68.79l.24,1.45a1,1,0,0,1-.15.73c2.85,3.13,10.39,10.9,29.27,29.56,39.24,38.78,50.73,73.74,34.17,103.9-5.88,10.7-15.79,18.56-28.68,22.72a74.79,74.79,0,0,1-22.52,3.4M398,287.71c11.71,7.14,38.7,20.17,63.15,21.9,1,.07,2.64.16,4.67.16a72.71,72.71,0,0,0,21.91-3.3c12.39-4,21.91-11.53,27.54-21.78,16.08-29.29,4.7-63.44-33.82-101.52-28.06-27.73-31.27-31.43-31.38-32.56a24.23,24.23,0,0,0-4.08-.32,36.49,36.49,0,0,0-4.93.35l1.07,3.86a1.15,1.15,0,0,1-.17,1,1.12,1.12,0,0,1-.5.37c2,2.7,9.7,11.1,32.68,33.81,35.34,34.92,46.19,65.48,32.27,90.83C496.59,298.46,474.9,300.4,466,300.4c-1.73,0-3.08-.07-3.9-.13-20.93-1.48-46.1-12.85-58.55-20.45L398,287.71" style="fill:#5b3a2a"/><path d="M415.87,298.88c-4.52-8.76-1.94-14.55-1.83-14.79l1.82.83s-2.25,5.2,1.79,13l-1.78.92" style="fill:#5b3a2a"/><path d="M424.66,302.75c-4.52-8.76-2-14.55-1.83-14.79l1.82.83s-2.25,5.2,1.79,13l-1.78.92" style="fill:#5b3a2a"/><path d="M433.53,305.84c-4.52-8.76-1.94-14.55-1.83-14.79l1.82.83s-2.25,5.2,1.79,13l-1.78.92" style="fill:#5b3a2a"/><path d="M444.25,308.57c-5.39-7.13-3.59-13.34-3.51-13.6l1.91.58-1-.29,1,.29c-.06.22-1.55,5.54,3.19,11.82l-1.6,1.2" style="fill:#5b3a2a"/><path d="M453.16,310c-5.42-7.16-3.43-12.74-3.35-13l1.88.7-.94-.35.94.34c-.07.2-1.65,4.84,3.07,11.07l-1.6,1.24" style="fill:#5b3a2a"/><path d="M462.22,311.44c-5.42-7.16-3.43-12.74-3.34-13l1.87.7-.94-.35.94.34c-.07.19-1.65,4.84,3.06,11.07l-1.59,1.21" style="fill:#5b3a2a"/><path d="M473.41,311.07c-6.59-5.58-6-11.78-5.93-12l2,.22c0,.22-.49,5.44,5.24,10.3l-1.29,1.53" style="fill:#5b3a2a"/><path d="M483.2,309.25c-7.26-4.83-7-10.53-7-10.77l2,.11-1-.06h1c0,.2-.13,4.84,6.12,9l-1.11,1.67" style="fill:#5b3a2a"/><path d="M491.66,306.89c-7.26-4.83-7-10.53-7-10.77l2,.11-1-.06h1c0,.2-.13,4.84,6.12,9l-1.11,1.66" style="fill:#5b3a2a"/><path d="M502,301.47c-8.55-2.1-10.93-7.84-11-8.08l1.86-.74-.93.37.93-.38c.08.21,2.15,5,9.65,6.89l-.48,1.94" style="fill:#5b3a2a"/><path d="M510.07,294.84c-9.39-.8-12.54-5.81-12.67-6l1.7-1c.11.18,2.82,4.37,11.13,5.08l-.17,2" style="fill:#5b3a2a"/><path d="M514.45,287.07c-8.07,0-11.22-4.2-11.36-4.38l1.62-1.18-.81.59.8-.6c.12.16,3,3.92,10.77,3.54l.09,2h-1.11" style="fill:#5b3a2a"/><path d="M518.27,279.21c-7.67,0-11.08-3.85-11.23-4l1.51-1.31c.14.16,3.49,3.86,11.36,3.27l.15,2c-.62,0-1.22.07-1.79.07" style="fill:#5b3a2a"/><path d="M516.06,269.37a12.57,12.57,0,0,1-6.53-1.64l1.09-1.68c.18.12,4.52,2.82,11.16.14l.75,1.85a17.2,17.2,0,0,1-6.48,1.33" style="fill:#5b3a2a"/><path d="M513.86,260.3a9.11,9.11,0,0,1-2.83-.38l.66-1.89-.33.94.33-1c.19.06,4.78,1.53,11-3l1.18,1.62a17,17,0,0,1-10,3.64" style="fill:#5b3a2a"/><path d="M512.48,251.55a7.2,7.2,0,0,1-1.46-.12l.42-2c.2,0,5,.95,10.71-4.34l1.35,1.47c-4.67,4.29-8.89,4.94-11,4.94" style="fill:#5b3a2a"/><path d="M510,242.7a8.83,8.83,0,0,1-1.48-.11l.36-2c.22,0,5.49.9,10.94-4.17l1.36,1.46A16.46,16.46,0,0,1,510,242.7" style="fill:#5b3a2a"/><path d="M505.59,235.24h-.06v-2c.19,0,5.22,0,10.11-6.28l1.58,1.23c-5.32,6.84-11,7-11.68,7" style="fill:#5b3a2a"/><path d="M502.92,227.83l-.11-2v1l-.06-1c.2,0,4.92-.4,8.58-6.77l1.73,1c-4.24,7.37-10,7.75-10.21,7.77" style="fill:#5b3a2a"/><path d="M498.45,220.78l-.26-2,.13,1-.14-1c.21,0,5.13-.8,8.66-7.38l1.76.95c-4,7.53-9.9,8.39-10.15,8.42" style="fill:#5b3a2a"/><path d="M493.42,213.85l-.36-2,.18,1-.18-1c.21,0,5.13-1.05,7.83-7.33l1.84.79c-3.14,7.31-9.06,8.47-9.3,8.51" style="fill:#5b3a2a"/><path d="M488.6,207.07l-.59-1.91.29,1-.3-1c.19-.06,4.63-1.56,6.73-8.66l1.92.57c-2.42,8.19-7.83,9.93-8.06,10" style="fill:#5b3a2a"/><path d="M482.39,200.52l-.65-1.89.32.95-.33-.94c.19-.07,4.6-1.73,6.59-9l1.93.53c-2.28,8.38-7.64,10.3-7.87,10.38" style="fill:#5b3a2a"/><path d="M474.6,192.58l-.46-1.95.23,1-.24-1c.19,0,4.76-1.27,7.09-8.15l1.89.64c-2.71,8-8.28,9.4-8.52,9.45" style="fill:#5b3a2a"/><path d="M468.63,186.29l-.54-1.93.27,1-.27-1c.2-.06,5-1.52,7.11-8.55l1.91.58c-2.48,8.13-8.24,9.82-8.48,9.89" style="fill:#5b3a2a"/><path d="M462.6,179.4l-.58-1.92c.2-.06,5-1.6,6.89-8.12l1.92.56c-2.23,7.6-8,9.4-8.23,9.47" style="fill:#5b3a2a"/><path d="M455.39,172.27l-.23-2,.12,1-.12-1c.2,0,4.91-.72,8-7.48l1.82.83c-3.56,7.85-9.32,8.61-9.57,8.64" style="fill:#5b3a2a"/><path d="M450.09,165.15l-.33-2,.17,1-.17-1c.2,0,4.88-.94,8.08-7l1.77.93c-3.68,7-9.27,8.06-9.51,8.1" style="fill:#5b3a2a"/><path d="M444.75,158.31l-.35-2,.17,1-.18-1c.19,0,4.8-1,7.85-7.79l1.83.82c-3.5,7.84-9.08,8.9-9.32,8.94" style="fill:#5b3a2a"/><path d="M61.87,307.42c-12.63-4.08-22.35-11.77-28.11-22.25-16.32-29.73-4.89-64.28,34-102.71,41.82-41.33,29.3-30.48,29.4-30.83l.72.2.39-1.61,4.15-1.13,3,.38,1.22,1.46-1,3,3.17.86c-.44,1.53,11.82-7.93-32.27,35.64-35,34.57-45.78,64.72-32.1,89.64,11.21,20.42,38.09,19.59,43.36,19.22,21.21-1.5,46.84-13.26,58.89-20.8L153.4,288c-11.25,7-39.21,20.82-64.51,22.61a74.58,74.58,0,0,1-27-3.19" style="fill:#e3b96d"/><path d="M64.81,300.49l1.39-3.63c-8.2-2.51-16.66-7.4-21.83-16.86-13-23.62-3.92-52,26.88-84.3l-4.66-1.22S29.49,227,34.29,262.6s30.52,37.89,30.52,37.89" style="fill:#a27737"/><path d="M84.09,311.77a74.78,74.78,0,0,1-22.52-3.4c-12.88-4.16-22.8-12-28.68-22.72-16.56-30.17-5.07-65.12,34.17-103.9,18.89-18.67,26.42-26.43,29.27-29.56a1,1,0,0,1-.15-.73l.24-1.45a1,1,0,0,1,.68-.79,22.2,22.2,0,0,1,6.82-.93,37,37,0,0,1,6.38.56,1,1,0,0,1,.79,1.17v.08L110,153.9a1.2,1.2,0,0,1,.87.71c.48,1.17.93,2.27-33.72,36.52s-45.37,64-31.93,88.44c9.33,17,30.14,18.83,38.65,18.83,1.67,0,3-.07,3.76-.12,21-1.49,46.46-13.17,58.43-20.65a1,1,0,0,1,1.35.27l6.71,9.53a1,1,0,0,1-.25,1.39h0c-11.32,7.08-39.48,21-65,22.76-1,.07-2.72.16-4.81.16M99.84,150.61c-.1,1.14-3.32,4.84-31.38,32.56-38.52,38.07-49.9,72.23-33.82,101.52,5.63,10.25,15.15,17.78,27.54,21.78a72.75,72.75,0,0,0,21.91,3.3c2,0,3.66-.08,4.67-.16,24.45-1.73,51.44-14.77,63.15-21.9l-5.56-7.89c-12.45,7.6-37.62,19-58.54,20.45-.83.06-2.17.13-3.9.13-8.87,0-30.56-1.94-40.41-19.86-13.92-25.35-3.06-55.91,32.27-90.83,23-22.71,30.71-31.11,32.68-33.81a1.12,1.12,0,0,1-.5-.37,1.15,1.15,0,0,1-.17-1l1.07-3.85a36.61,36.61,0,0,0-4.93-.35,24.32,24.32,0,0,0-4.08.32" style="fill:#5b3a2a"/><path d="M134.07,298.88l-1.78-.92c4.08-7.9,1.82-13,1.79-13l1.81-.84c.11.24,2.69,6-1.83,14.79" style="fill:#5b3a2a"/><path d="M125.28,302.75l-1.78-.92c4.08-7.9,1.82-13,1.79-13l1.81-.84c.11.24,2.69,6-1.83,14.79" style="fill:#5b3a2a"/><path d="M116.42,305.84l-1.78-.92c4.08-7.9,1.82-13,1.79-13l1.81-.84c.11.24,2.69,6-1.83,14.79" style="fill:#5b3a2a"/><path d="M105.7,308.57l-1.6-1.2c4.75-6.28,3.26-11.6,3.19-11.82l1.92-.58c.08.26,1.88,6.47-3.51,13.6" style="fill:#5b3a2a"/><path d="M96.78,310l-1.6-1.21c4.76-6.3,3.09-11,3.07-11.07l1.87-.7c.09.23,2.07,5.81-3.35,13" style="fill:#5b3a2a"/><path d="M87.73,311.44l-1.6-1.21c4.76-6.3,3.08-11,3.07-11.07l1.87-.7c.09.23,2.07,5.81-3.34,13" style="fill:#5b3a2a"/><path d="M76.53,311.07l-1.29-1.53c5.78-4.89,5.25-10.24,5.24-10.29l2-.23c0,.26.66,6.47-5.93,12" style="fill:#5b3a2a"/><path d="M66.74,309.25l-1.11-1.67c6.25-4.16,6.13-8.8,6.12-9l2-.11c0,.24.25,5.94-7,10.77" style="fill:#5b3a2a"/><path d="M58.28,306.89l-1.11-1.66c6.25-4.16,6.13-8.8,6.12-9l2-.11c0,.24.25,5.94-7,10.77" style="fill:#5b3a2a"/><path d="M48,301.47l-.48-1.94c7.56-1.85,9.63-6.83,9.65-6.88l1.86.74c-.1.24-2.48,6-11,8.08" style="fill:#5b3a2a"/><path d="M39.88,294.84l-.17-2c8.39-.72,11.1-5,11.13-5.07l1.71,1c-.13.21-3.28,5.22-12.67,6" style="fill:#5b3a2a"/><path d="M35.5,287.07H34.39l.09-2c7.83.35,10.73-3.5,10.76-3.54l1.62,1.18c-.14.19-3.29,4.38-11.36,4.38" style="fill:#5b3a2a"/><path d="M31.68,279.21a15.74,15.74,0,0,1-1.79-.07l.15-2c7.85.57,11.22-3.12,11.36-3.27l1.51,1.31c-.15.17-3.57,4-11.23,4" style="fill:#5b3a2a"/><path d="M33.89,269.37A17.18,17.18,0,0,1,27.41,268l.75-1.85c6.64,2.68,11,0,11.17-.14l1.09,1.68a12.59,12.59,0,0,1-6.53,1.64" style="fill:#5b3a2a"/><path d="M36.09,260.3a17,17,0,0,1-10-3.64L27.27,255c6.22,4.52,10.81,3,11,3l.66,1.89a9.15,9.15,0,0,1-2.83.38" style="fill:#5b3a2a"/><path d="M37.47,251.55c-2.13,0-6.36-.65-11-4.94l1.35-1.47c5.8,5.33,10.65,4.35,10.7,4.34l.43,2a7.35,7.35,0,0,1-1.46.12" style="fill:#5b3a2a"/><path d="M40,242.7a16.46,16.46,0,0,1-11.18-4.77l1.36-1.46c5.49,5.1,10.88,4.18,10.93,4.17l.36,2a8.64,8.64,0,0,1-1.48.11" style="fill:#5b3a2a"/><path d="M44.36,235.24c-.67,0-6.36-.21-11.68-7L34.26,227c4.93,6.34,10.07,6.28,10.11,6.28v2h-.06" style="fill:#5b3a2a"/><path d="M47,227.83c-.24,0-6-.4-10.21-7.77l1.73-1c3.66,6.37,8.39,6.75,8.58,6.77l-.11,2" style="fill:#5b3a2a"/><path d="M51.5,220.78c-.25,0-6.12-.89-10.15-8.42l1.76-.94c3.55,6.64,8.6,7.37,8.65,7.38l-.26,2" style="fill:#5b3a2a"/><path d="M56.52,213.85c-.25,0-6.17-1.2-9.3-8.51l1.84-.79c2.7,6.28,7.62,7.3,7.83,7.33l-.36,2" style="fill:#5b3a2a"/><path d="M61.35,207.07c-.23-.07-5.64-1.81-8-10l1.92-.57c2.12,7.17,6.68,8.64,6.72,8.66l-.58,1.91" style="fill:#5b3a2a"/><path d="M67.55,200.52c-.23-.08-5.58-2-7.86-10.38l1.93-.53c2,7.29,6.4,9,6.59,9l-.66,1.89" style="fill:#5b3a2a"/><path d="M75.35,192.58c-.24-.06-5.81-1.47-8.52-9.45l1.89-.64c2.36,6.95,7,8.14,7.09,8.15l-.46,1.95" style="fill:#5b3a2a"/><path d="M81.31,186.29c-.24-.07-6-1.76-8.48-9.89l1.91-.58c2.16,7.1,7.06,8.53,7.11,8.55l-.54,1.93" style="fill:#5b3a2a"/><path d="M87.35,179.4c-.24-.07-6-1.87-8.23-9.47l1.92-.56c1.93,6.57,6.83,8.1,6.88,8.12l-.57,1.92" style="fill:#5b3a2a"/><path d="M94.56,172.27c-.24,0-6-.79-9.57-8.64l1.82-.83c3.07,6.76,7.79,7.45,8,7.48l-.24,2" style="fill:#5b3a2a"/><path d="M99.86,165.15c-.24,0-5.83-1.06-9.51-8.1l1.77-.93c3.23,6.17,8,7,8.07,7l-.33,2" style="fill:#5b3a2a"/><path d="M105.2,158.31c-.24,0-5.82-1.11-9.32-8.94l1.83-.82c3,6.81,7.65,7.75,7.85,7.79l-.35,2" style="fill:#5b3a2a"/><path d="M533.09,463.84c-10.29,10.29-5.38,19-12.15,24.83-7.31,6.35-21.84-.34-25.16-2.28a15.34,15.34,0,0,1,2.43-2.1c11.26-8,11.54-12.33,10.43-15.84a20.72,20.72,0,0,0-2.74-3.79h0a12.68,12.68,0,0,0-1.24-1.17c-2.78-2.51-5.45-4.52-1-5.56,4.71-1.1,2.37-2.32-5.72-2.15s.28,7.55,3.26,10.43a6,6,0,0,1,1.9,4.61,8.34,8.34,0,0,1-.59,2.56c-1,2.36-6.67,4.94-9,7.11-6.11,5.77-6.25,11.27-6.45,20.83a9.86,9.86,0,0,1-3.06,6.16c-2.24,2-5.57,2.84-9.9,2.55-1.94-.13-6.36-1.24-12-2.64-26.33-6.59-81.12-20.31-130.5-1.73a146.46,146.46,0,0,1-44.82,8.92h0c-2.54.12-5.1.2-7.68.2h-9.22c-19.14,0-37-3-53.21-9.11-49.37-18.58-104.17-4.86-130.5,1.73-5.6,1.4-10,2.51-12,2.64-4.33.29-7.67-.57-9.9-2.55a9.86,9.86,0,0,1-3.06-6.16c-.2-9.56-.34-15.06-6.45-20.83A20.38,20.38,0,0,1,50,473.64c-1.94-4.54-.88-9.33-1.54-10.1-.29-.34-.63.35-.86,1h0l-.16.5v.12c-1.11,3.51-3.17,12.06,3.49,19a24.4,24.4,0,0,1,1.86,2.15c-3,1.76-19.28,8.78-25.8,1.62-6-6.62-1.38-13.79-11.67-24.08C3.16,451.7,2.7,445.83,7,442.24s16.17-10.7,15.8-4.81c-.31,5,.15,10.85,2.59,16-2.39.4-9.77,2-10.16-4.36,0,0-.47-4.43,2.75-6.34,0,0,1.29-.74,0-1.1s-5.14,2.29-6.34,5.61A7.94,7.94,0,0,0,13,454.77c.71.93,4.58,5.07,15.72,2.44,12.5-2.94,16.88-9.67,26.94-6.53,7.93,2.48,9.18,12.94,9.26,16.73-4.43.32-5.75-.85-6.53-1.91s-.79-2.88-1.06-3.29c-.46-.7-.92,1.08-.92,1.08-.48,1.87-.74,5.21,1,7,2.22,2.29,5.94,2.38,8.49,2,2.28-.31,6.59-1.23,13.09-2.82,26.65-6.53,89.07-21.81,137.38-3.62a154,154,0,0,0,55.08,9.44h1.47c19.83.09,42.37-3.12,59.17-9.44,16.6-6.25,34.86-8.54,52.76-8.6,34.18-.1,67,8,84.53,12.23,6.5,1.59,10.81,2.51,13.09,2.82,2.55.35,9.28,1,12.09-.46,2.42-1.29,3.14-4,1.5-6-3.18-3.85-6.06-3.49-6.61-3-1.49,1.28,2.57,2.76,1.68,4s-3.14,1-7.66.56c.08-3.78,1.32-14.26,9.26-16.74,8.57-2.68,17.94,2.9,21.88,5l4.56,2.57c1.35.58,1.79.36,3.14-1.6,1.83-2.7,2.68-7.54,2.68-7.54a51.56,51.56,0,0,0,.56-11.71c-.37-5.88,11.57,1.29,15.8,4.81s3.86,9.47-8.28,21.61" style="fill:#e1b177"/><path d="M541.91,437.18c-11.65-6.86-21-10-20.59-2.3s-.46,15.94-1.93,17.44c0,0-19.58-11.65-32.54-4.11,0,0-7,3.91-7.09,18.62-2.32-.49-5.47-1.26-9.1-2.15-17.79-4.35-51.25-12.54-86.21-12.36-18.33.09-37.08,2.47-54.2,8.92a150.77,150.77,0,0,1-52.87,9.12H271c-19,0-36.78-3.07-52.85-9.12-49.76-18.73-113.23-3.19-140.33,3.44-3.68.9-6.86,1.67-9.19,2.15-.06-14.72-7.09-18.63-7.09-18.63-13-7.54-32.54,4.11-32.54,4.11-1.47-1.5-2.3-9.72-1.93-17.44s-9-4.56-20.59,2.3c-10.3,6.07-5.92,17.13-.9,22.69,5.34,5.91,12.67,13.17,14,22.82,1.14,8.58,5.33,12.5,15.81,12.78,9.11.24,17.59-4,19.65-5.07.93,2.69,1.22,6,1.33,11.08a14.81,14.81,0,0,0,4.63,9.7c3.28,3,7.86,4.26,13.63,3.87,2.39-.16,6.54-1.2,12.84-2.78,25.84-6.47,79.61-19.93,127.52-1.9a154.08,154.08,0,0,0,52.3,9.41h14.85c1.5,0,3-.08,4.49-.15h.25a151.73,151.73,0,0,0,46.58-9.24c47.91-18,101.68-4.57,127.52,1.9,6.29,1.58,10.45,2.62,12.84,2.78,5.77.39,10.35-.91,13.63-3.87a14.83,14.83,0,0,0,4.67-9.69c.1-4.91.36-8.37,1.32-11.08,2,1.1,10.54,5.31,19.66,5.07,10.48-.28,14.67-4.2,15.81-12.78,1.29-9.65,8.62-16.91,14-22.82,5-5.55,9.4-16.62-.9-22.69m-8.83,26.66c-10.29,10.29-5.38,19-12.15,24.83-7.31,6.35-21.84-.34-25.16-2.28a15.34,15.34,0,0,1,2.43-2.1c11.26-8,11.54-12.33,10.43-15.84a20.72,20.72,0,0,0-2.74-3.79h0a12.68,12.68,0,0,0-1.24-1.17c-2.78-2.51-5.45-4.52-1-5.56,4.71-1.1,2.37-2.32-5.72-2.15s.28,7.55,3.26,10.43a6,6,0,0,1,1.9,4.61,8.34,8.34,0,0,1-.59,2.56c-1,2.36-6.67,4.94-9,7.11-6.11,5.77-6.25,11.27-6.45,20.83A9.86,9.86,0,0,1,484,507.5c-2.24,2-5.57,2.84-9.9,2.55-1.94-.13-6.36-1.24-12-2.64-26.33-6.59-81.12-20.31-130.5-1.73a146.46,146.46,0,0,1-44.82,8.92h0c-2.54.12-5.1.2-7.68.2h-9.22c-19.14,0-37-3-53.21-9.11-49.37-18.58-104.17-4.86-130.5,1.73-5.6,1.4-10,2.51-12,2.64-4.33.29-7.67-.57-9.9-2.55a9.86,9.86,0,0,1-3.06-6.16c-.2-9.56-.34-15.06-6.45-20.83A20.38,20.38,0,0,1,50,473.64c-1.94-4.54-.88-9.33-1.54-10.1-.29-.34-.63.35-.86,1h0l-.16.5v.12c-1.11,3.51-3.17,12.06,3.49,19a24.4,24.4,0,0,1,1.86,2.15c-3,1.76-19.28,8.78-25.8,1.62-6-6.62-1.38-13.79-11.67-24.08-12.14-12.14-12.6-18-8.27-21.6s16.17-10.7,15.8-4.81c-.31,5,.15,10.85,2.59,16-2.39.4-9.77,2-10.16-4.36,0,0-.47-4.43,2.75-6.34,0,0,1.29-.74,0-1.1s-5.14,2.29-6.34,5.61A7.94,7.94,0,0,0,13,454.78c.71.93,4.58,5.07,15.72,2.44,12.5-2.94,16.88-9.67,26.94-6.53,7.93,2.48,9.18,12.94,9.26,16.73-4.43.32-5.75-.85-6.53-1.91s-.79-2.88-1.06-3.29c-.46-.7-.92,1.08-.92,1.08-.48,1.87-.74,5.21,1,7,2.22,2.29,5.94,2.38,8.49,2,2.28-.31,6.59-1.23,13.09-2.82,26.65-6.53,89.07-21.81,137.38-3.62a154,154,0,0,0,55.08,9.44h1.47c19.83.09,42.37-3.12,59.17-9.44,16.6-6.25,34.86-8.54,52.76-8.6,34.18-.1,67,8,84.53,12.23,6.5,1.59,10.81,2.51,13.09,2.82,2.55.35,9.28,1,12.09-.46,2.42-1.29,3.14-4,1.5-6-3.18-3.85-6.06-3.49-6.61-3-1.49,1.28,2.57,2.76,1.68,4s-3.14,1-7.66.56c.08-3.78,1.32-14.26,9.26-16.74,8.57-2.68,17.94,2.9,21.88,5l4.56,2.57c1.35.58,1.79.36,3.14-1.6,1.83-2.7,2.68-7.54,2.68-7.54a51.56,51.56,0,0,0,.56-11.71c-.37-5.88,11.57,1.29,15.8,4.81s3.86,9.47-8.28,21.61" style="fill:#5b3a2a"/><path d="M537.66,444.08c-2.65-2-8.08-4.76-7.51-2.69s7.29,5.17,5.25,8.11c-1.86,2.68-4.86,5.5-5.44,6.61s.21,1.48,2.07.4c2.59-1.52,6.21-4.93,7.31-7.52a4.12,4.12,0,0,0-1.68-4.91" style="fill:#5b3a2a"/><path d="M80,483.66l-6.17,1.63-1.33-5,18.1-4.79,1.33,5-6.2,1.64,4.14,15.65-5.73,1.52L80,483.66" style="fill:#fff"/><path d="M95.36,485.42v-.06a11.53,11.53,0,0,1,22.68-4v.06a11.2,11.2,0,0,1-9.19,12.9h-.28c-6.5,1.13-12.16-2.88-13.21-8.92m16.7-2.91v-.06a5.52,5.52,0,0,0-6.17-4.78h-.21a5.45,5.45,0,0,0-4.43,6.31h0a.64.64,0,0,0,.05.25v.06a5.56,5.56,0,0,0,6.25,4.77h.16a5.45,5.45,0,0,0,4.4-6.33h0v-.23" style="fill:#fff"/><path d="M121.59,469.66l5.89-.68,1,8.61,6.35-9.46,6.95-.8-7,10,9.72,11.18-7,.81-6.28-7.27-1.88,2.62.64,5.52-5.89.68-2.46-21.24" style="fill:#fff"/><path d="M149.19,466.64h17.2v5H155.06v3.27h10.26v4.67H155.06V483h11.49v5H149.2l.05-21.39" style="fill:#fff"/><path d="M173.26,466.8l5.9.58-1.57,16.11,10.31,1-.51,5.17-16.21-1.58,2.07-21.28" style="fill:#fff"/><path d="M203.81,471.31l5.58,1.22,4.29,23-6.21-1.36-.67-4.09-8.09-1.77-2.31,3.43-6.06-1.33,13.46-19.1m2.28,13.88-1-6.42-3.65,5.39,4.68,1" style="fill:#fff"/><path d="M217.78,488.35l2.91-11.65,5.81,1.45-2.88,11.53c-.75,3,.41,4.79,2.72,5.37s4.2-.4,4.92-3.3l2.92-11.68,5.81,1.45L237.11,493c-1.67,6.66-6.23,8.67-12.13,7.2s-8.82-5.39-7.2-11.87" style="fill:#fff"/><path d="M259.27,484.49h6.26l5.1,8.28,5.1-8.28H282v21.38h-5.9V493.59L270.64,502h-.12l-5.44-8.34v12.25h-5.81V484.49" style="fill:#fff"/><path d="M286,494.37v-.06a11.2,11.2,0,0,1,10.19-12.13h.27c6.57-.61,11.9,3.83,12.47,9.94v.06A11.53,11.53,0,0,1,286,494.37m16.88-1.58v-.06a5.51,5.51,0,0,0-5.75-5.26h-.25a5.45,5.45,0,0,0-4.91,5.94v.31A5.55,5.55,0,0,0,297.8,499h.2a5.45,5.45,0,0,0,4.89-6v-.28" style="fill:#fff"/><path d="M331,481l-6.07,2-1.63-5,17.8-5.84,1.62,4.93-6.1,2,5,15.38L336,496.33l-5-15.39" style="fill:#fff"/><path d="M346.33,470.79l16.82-3.6,1,4.9-11.08,2.37.68,3.2,10-2.15,1,4.57-10,2.15.71,3.32,11.23-2.41,1.06,4.93-17,3.64-4.48-20.91" style="fill:#fff"/><path d="M394.87,466.1l5.7.39,7.61,22.11-6.34-.43-1.26-4-8.26-.57-1.79,3.74-6.19-.43,10.53-20.86m4.28,13.4-2-6.2-2.82,5.87,4.79.33" style="fill:#fff"/><path d="M416.65,473.35l-6.33-.83.68-5.15,18.56,2.44-.68,5.15-6.36-.84-2.11,16-5.88-.77,2.11-16.06" style="fill:#fff"/><path d="M432.66,482.64l2.46-11.75,5.86,1.22-2.43,11.63c-.63,3,.59,4.78,2.93,5.26s4.17-.56,4.79-3.49l2.46-11.78,5.86,1.22-2.43,11.6c-1.41,6.73-5.89,8.91-11.84,7.66s-9-5-7.65-11.59" style="fill:#fff"/><path d="M465.78,477.7l5.56,1.31,3.9,23.06-6.18-1.46-.6-4.1-8.06-1.91L458,498l-6-1.43,13.79-18.87m2,13.92-.93-6.43-3.74,5.33,4.67,1.1" style="fill:#fff"/><path d="M105.2,158.31c-.24,0-5.82-1.11-9.32-8.94l1.83-.82c3,6.81,7.65,7.75,7.85,7.79l-.35,2" style="fill:#5b3a2a"/><path d="M315.94,136.49l.76,38.26h0Z" style="fill:none"/><path d="M407,132.31l2.4,38.24h0Z" style="fill:none"/><path d="M98.34,165.34l3.1-38.23h0Z" style="fill:none"/><path d="M172.74,133.73,170.93,172h0l1.81-38.24Z" style="fill:none"/><path d="M394,133.24l2.16,38.24h0Z" style="fill:none"/><path d="M179.24,134.12l-1.69,38.24h0Z" style="fill:none"/><path d="M422.63,169.48,420,131.24h0q1.32,19.12,2.63,38.24Z" style="fill:none"/><path d="M296.4,136.76l.41,38.27h0Z" style="fill:none"/><path d="M133.79,130.72,131.28,169h0l2.51-38.24Z" style="fill:none"/><path d="M361.52,135.05l1.58,38.24h0Z" style="fill:none"/><path d="M114.36,128.7l-2.87,38.24h0Z" style="fill:none"/><path d="M348.49,135.59l1.34,38.25h0Z" style="fill:none"/><path d="M335.48,136l1.11,38.25h0Z" style="fill:none"/><path d="M368,134.75,369.72,173h0Z" style="fill:none"/><path d="M355,135.33l1.46,38.25h0Z" style="fill:none"/><path d="M387.52,133.66l2,38.24h0Z" style="fill:none"/><path d="M159.75,132.86l-2,38.24h0Z" style="fill:none"/><path d="M330,174.46l-1-38.26h0Z" style="fill:none"/><path d="M146.76,131.87l-2.28,38.24h0Z" style="fill:none"/><path d="M381,134.05l1.93,38.24h0Z" style="fill:none"/><path d="M153.26,132.38l-2.16,38.24h0Z" style="fill:none"/><path d="M95,126.24l-3.22,38.22h0Z" style="fill:none"/><path d="M458.85,127l3.33,38.21h0Z" style="fill:none"/><path d="M270.36,136.8q0,19.14-.06,38.27h0Q270.3,155.93,270.36,136.8Z" style="fill:none"/><path d="M445.92,128.63l3.1,38.23h0Z" style="fill:none"/><path d="M442.43,167.58l-3-38.24h0Z" style="fill:none"/><path d="M88.54,125.3l-3.33,38.2h0Z" style="fill:none"/><path d="M426.48,130.65l2.75,38.24h0Z" style="fill:none"/><path d="M465.45,126.15h-.14l.81,9Z" style="fill:none"/><path d="M224.78,136.05l-.88,38.26h0Z" style="fill:none"/><path d="M250.82,136.62l-.41,38.27h0Z" style="fill:none"/><path d="M192.24,134.8,190.78,173h0l1.46-38.24Z" style="fill:none"/><path d="M166.24,133.31l-6.49-.45-2,38.24,6.61.45Z" style="fill:#e9ccad"/><path d="M166.25,133.31l-1.93,38.24,6.6.42,1.81-38.24Z" style="fill:#e1b177"/><path d="M164.31,171.55h0l1.93-38.24h0Z" style="fill:#e1b177"/><path d="M172.74,133.73,170.93,172l6.62.39,1.69-38.24Z" style="fill:#e2a66e"/><path d="M185.74,134.47l-6.5-.36-1.69,38.24,6.62.36Z" style="fill:#e2a66e"/><path d="M140.27,131.31l-6.48-.59L131.28,169l6.6.59Z" style="fill:#e1b177"/><path d="M140.28,131.31l-2.4,38.24,6.6.55,2.28-38.24Z" style="fill:#e9ccad"/><path d="M137.88,169.55h0l2.4-38.24h0Z" style="fill:#e9ccad"/><path d="M146.76,131.87l-2.28,38.24,6.61.52,2.16-38.24Z" style="fill:#ebc49a"/><path d="M153.26,132.38l-2.16,38.24,6.61.48,2-38.24Z" style="fill:#e9ccad"/><path d="M107.9,127.94l-3,38.23,6.58.77,2.87-38.24Z" style="fill:#d39451"/><path d="M120.84,129.43l-6.47-.72-2.87,38.24,6.58.72Z" style="fill:#cc823f"/><path d="M120.84,129.43l-2.75,38.24,6.58.67,2.63-38.24Z" style="fill:#d39451"/><path d="M120.84,129.43l-2.75,38.24h0Z" style="fill:#d39451"/><path d="M127.31,130.1l-2.63,38.24,6.59.63,2.51-38.24Z" style="fill:#e2a66e"/><path d="M124.68,168.34h0l2.63-38.24h0Z" style="fill:#e2a66e"/><path d="M85.78,124.88l-2.14-.33L80.92,161l2,.15h0l-.31,2,2.59.39,3.33-38.2Z" style="fill:#e2a66e"/><path d="M88.54,125.3l-3.33,38.2c2.15.33,4.33.65,6.56,1L95,126.24C92.8,125.93,90.66,125.62,88.54,125.3Z" style="fill:#d39451"/><path d="M101.44,127.12c-2.18-.29-4.34-.58-6.45-.88l-3.22,38.22c2.15.3,4.35.6,6.57.89Z" style="fill:#cc823f"/><path d="M104.92,166.17l3-38.23-6.46-.82-3.1,38.23Z" style="fill:#d39451"/><path d="M104.92,166.17h0l3-38.23h0Z" style="fill:#d39451"/><path d="M263.85,136.76,263.67,175h6.63q0-19.14.06-38.27Z" style="fill:#cc823f"/><path d="M276.87,136.82h-6.51q0,19.14-.06,38.27h6.62Z" style="fill:#cc823f"/><path d="M279.92,136.83h-3q0,19.14.06,38.27h6.62l-.18-38.27Z" style="fill:#d39451"/><path d="M276.87,136.82l.06,38.27h0Q276.93,156,276.87,136.82Z" style="fill:#d39451"/><path d="M283.39,136.82l.18,38.27h6.62l-.29-38.27Z" style="fill:#e2a66e"/><path d="M283.38,136.82l.18,38.27h0Z" style="fill:#e2a66e"/><path d="M237.81,136.38l-.64,38.26,6.62.13.53-38.26Z" style="fill:#e2a66e"/><path d="M244.31,136.51l-.53,38.26,6.62.11.41-38.27Z" style="fill:#e1b177"/><path d="M243.78,174.77h0l.53-38.26h0Z" style="fill:#e1b177"/><path d="M257.34,136.7l-6.51-.08-.41,38.27L257,175Q257.19,155.83,257.34,136.7Z" style="fill:#d39451"/><path d="M257.34,136.7q-.15,19.13-.29,38.27l6.62.06.18-38.27Z" style="fill:#d39451"/><path d="M263.67,175h0l.18-38.27h0Q263.76,155.9,263.67,175Z" style="fill:#d39451"/><path d="M257.34,136.7q-.15,19.14-.29,38.27h0Q257.2,155.84,257.34,136.7Z" style="fill:#d39451"/><path d="M211.77,135.63l-1.11,38.25,6.62.23,1-38.25Z" style="fill:#e2a66e"/><path d="M218.27,135.85l-1,38.25,6.62.2.88-38.26Z" style="fill:#e2a66e"/><path d="M217.28,174.1h0l1-38.25h0Z" style="fill:#e2a66e"/><path d="M231.3,136.23l-6.5-.18-.88,38.26,6.62.18Z" style="fill:#e1b177"/><path d="M231.3,136.23l-.76,38.26,6.62.15.64-38.26Z" style="fill:#e1b177"/><path d="M237.8,136.38l-.64,38.26h0Z" style="fill:#e1b177"/><path d="M231.3,136.23l-.76,38.26h0Z" style="fill:#e1b177"/><path d="M185.74,134.47l-1.58,38.24,6.62.33,1.46-38.24Z" style="fill:#e1b177"/><path d="M184.16,172.71h0l1.58-38.24h0Z" style="fill:#e1b177"/><path d="M198.76,135.1l-6.5-.3L190.79,173l6.62.3Z" style="fill:#e2a66e"/><path d="M198.76,135.1l-1.34,38.24,6.62.28,1.23-38.25Z" style="fill:#dc9d5d"/><path d="M198.76,135.1l-1.34,38.24h0Z" style="fill:#dc9d5d"/><path d="M205.26,135.38,204,173.62l6.62.25,1.11-38.25Z" style="fill:#d39451"/><path d="M211.77,135.63l-1.11,38.25h0Z" style="fill:#d39451"/><path d="M205.26,135.38,204,173.62h0l1.23-38.25Z" style="fill:#d39451"/><path d="M374.52,134.41l-6.5.33,1.7,38.26,6.61-.33Z" style="fill:#5b3a2a"/><path d="M374.53,134.41l1.81,38.24,6.61-.36L381,134.05Z" style="fill:#7f512b"/><path d="M376.33,172.66h0l-1.81-38.24h0Z" style="fill:#7f512b"/><path d="M381,134.05l1.93,38.24,6.62-.39-2-38.24Z" style="fill:#a0663a"/><path d="M387.52,133.66l2,38.24,6.62-.42L394,133.24Z" style="fill:#7f512b"/><path d="M342,135.82l1.23,38.25,6.61-.23-1.34-38.25Z" style="fill:#5b3a2a"/><path d="M348.49,135.59l1.34,38.25,6.62-.26L355,135.33Z" style="fill:#63422c"/><path d="M355,135.33l1.46,38.25,6.63-.28-1.58-38.24Z" style="fill:#7f512b"/><path d="M361.52,135.05l1.58,38.24,6.62-.31L368,134.75Z" style="fill:#a0663a"/><path d="M322.46,136.36l-6.51.13.76,38.26,6.63-.14Z" style="fill:#dc9d5d"/><path d="M323.34,174.62l6.62-.16-1-38.26-6.5.16Z" style="fill:#ba7b46"/><path d="M322.46,136.36l.88,38.26h0Z" style="fill:#ba7b46"/><path d="M329,136.2l1,38.26,6.63-.18L335.48,136Z" style="fill:#a0663a"/><path d="M342,135.82l-6.5.2,1.11,38.25,6.62-.21Z" style="fill:#7f512b"/><path d="M343.21,174.07h0L342,135.82h0Z" style="fill:#7f512b"/><path d="M289.89,136.8l.29,38.27h6.63l-.41-38.27Z" style="fill:#e1b177"/><path d="M290.19,175.07h0l-.29-38.27h0Z" style="fill:#e1b177"/><path d="M302.92,136.69l-6.51.07.41,38.27,6.62-.07Z" style="fill:#e2a66e"/><path d="M302.92,136.69l.53,38.27,6.62-.09-.64-38.26Z" style="fill:#dc9d5d"/><path d="M302.92,136.69l.53,38.27h0Z" style="fill:#dc9d5d"/><path d="M309.43,136.6l.64,38.26,6.63-.11-.76-38.26Z" style="fill:#d39451"/><path d="M310.07,174.87h0l-.64-38.26h0Z" style="fill:#d39451"/><path d="M452.38,127.86l-6.46.76,3.1,38.23,6.58-.77Z" style="fill:#dc9d5d"/><path d="M452.39,127.86l3.22,38.23c2.22-.27,4.42-.55,6.57-.83L458.85,127C456.73,127.32,454.57,127.59,452.39,127.86Z" style="fill:#e2a66e"/><path d="M455.6,166.09h0l-3.22-38.23h0Z" style="fill:#e2a66e"/><path d="M468.3,164.43l-2.18-29.28-.81-9-2,.27-4.49.6,3.33,38.21,4.25-.57Z" style="fill:#cc823f"/><path d="M420,131.24l2.63,38.24,6.6-.59-2.75-38.24Z" style="fill:#b7743c"/><path d="M433,130l-6.48.63,2.75,38.24,6.6-.63Z" style="fill:#cc823f"/><path d="M435.83,168.26l6.59-.67-3-38.24L433,130Z" style="fill:#dc9d5d"/><path d="M433,130l2.87,38.24h0Z" style="fill:#dc9d5d"/><path d="M439.44,129.35l3,38.24,6.59-.73-3.1-38.23Z" style="fill:#cc823f"/><path d="M400.52,132.79l-6.49.45,2.16,38.24,6.61-.45Z" style="fill:#5b3a2a"/><path d="M400.53,132.79,402.8,171l6.61-.48L407,132.31Z" style="fill:#5b3a2a"/><path d="M402.8,171h0l-2.28-38.24h0Z" style="fill:#5b3a2a"/><path d="M413.51,131.79l-6.48.52,2.4,38.24L416,170Z" style="fill:#63422c"/><path d="M416,170l6.6-.55q-1.32-19.12-2.63-38.24l-6.48.55Z" style="fill:#7f512b"/><path d="M413.51,131.79,416,170h0l-2.51-38.24Z" style="fill:#7f512b"/><path d="M79.72,165.68s177.07,30.77,388.61,13.21L467,167.41s-192.3,23.88-387.25-1.72" style="fill:#5b3a2a;opacity:0.5;isolation:isolate"/><path d="M72.43,123.3l1,1.06-1,1v-2.09" style="fill:#a27737"/><path d="M477.52,123.3l-1,1.06,1,1v-2.09" style="fill:#a27737"/><path d="M292.18,90.17h0q.55-3.59,1.08-7.18Q292.74,86.58,292.18,90.17Z" style="fill:#5b3a2a"/><path d="M278.87,90.39h0q.7-6.14,1.36-12.21Q279.57,84.26,278.87,90.39Z" style="fill:#5b3a2a"/><path d="M308.88,88.26l.8-.13v-.81c.68-15.71-2.35-22-5-24.56q-1.81,13.38-4,26.66C303.36,89.1,306.11,88.72,308.88,88.26Z" style="fill:#e2a66e"/><path d="M271,61.16a7.27,7.27,0,0,0-1,.1c-.88,9.69-1.61,19-2.34,28.28,1.6.2,3.41.39,5.4.55.93-9.76,1.79-19.35,2.73-29.17Z" style="fill:#e2a66e"/><path d="M264.33,63.72c-.92,8.71-1.67,16.85-2.29,24.9,1.46.29,3.36.62,5.69.92.74-9.32,1.48-18.6,2.35-28.28A10.31,10.31,0,0,0,264.33,63.72Z" style="fill:#e2a66e"/><path d="M270.08,61.26c-.88,9.68-1.61,19-2.35,28.28h0c.73-9.32,1.46-18.6,2.34-28.28Z" style="fill:#e2a66e"/><path d="M263,65.2c-5.07,6.63-3.36,19.77-3,22.33l.1.68.67.15,1.27.27c.62-8,1.37-16.18,2.28-24.88A10.4,10.4,0,0,0,263,65.2Z" style="fill:#e1b177"/><path d="M264.31,63.74c-.92,8.7-1.67,16.84-2.28,24.88h0c.62-8.05,1.37-16.2,2.29-24.9Z" style="fill:#e1b177"/><path d="M304.59,62.69h0a5.23,5.23,0,0,0-3.4-1.55h-.7s-1.46-.14-4.12-.27Q294.9,72,293.27,83q-.53,3.59-1.08,7.18,4.08-.25,8.24-.73Q302.68,76.13,304.59,62.69Z" style="fill:#e1b177"/><path d="M300.43,89.44h.2q2.22-13.31,4-26.66l-.07-.07Q302.68,76.13,300.43,89.44Z" style="fill:#e1b177"/><path d="M296.36,60.89c-1.89-.09-4.4-.17-7.47-.2-1.19,9.91-2.42,19.77-3.76,29.75q3.49,0,7.06-.27.55-3.59,1.09-7.18Q294.91,72,296.36,60.89Z" style="fill:#e2a66e"/><path d="M293.27,83q1.64-11,3.1-22.1h0Q294.9,72,293.27,83Z" style="fill:#e2a66e"/><path d="M285.12,90.44c1.34-10,2.56-19.84,3.74-29.75h-6.75c-.62,5.84-1.24,11.63-1.87,17.45q-.66,6.08-1.36,12.21,2,.06,4.22.07Z" style="fill:#dc9d5d"/><path d="M285.12,90.44h0c1.34-10,2.57-19.83,3.76-29.75h0C287.68,70.6,286.45,80.46,285.12,90.44Z" style="fill:#dc9d5d"/><path d="M282.1,60.73q-3.06.06-6.2.19c-.94,9.83-1.79,19.42-2.7,29.17,1.75.13,3.63.24,5.67.3q.7-6.14,1.36-12.21C280.87,72.37,281.48,66.57,282.1,60.73Z" style="fill:#d39451"/><path d="M273.15,90.09h0c.9-9.75,1.76-19.34,2.7-29.17h0C274.94,70.74,274.08,80.33,273.15,90.09Z" style="fill:#d39451"/><path d="M280.23,78.19c.64-5.82,1.25-11.62,1.88-17.45h0C281.48,66.57,280.87,72.37,280.23,78.19Z" style="fill:#d39451"/><path d="M297.83,92.09c.59-1.83-.86-5-1.26-7a52,52,0,0,1-1-7.62,21.87,21.87,0,0,1,4.84-14.2c3.43-3.9,8.1-1.18,10,3.08,2.12,4.75,2,11.59,2,16.84,0,4.24-1.1,5.58-5.4,6-3.38.37-6.31.66-9.52,1.25" style="fill:#2d1710"/><path d="M26,47.12c1.61-13.2,7.56-24.26,17.23-32C70.6-6.82,108.76-2.53,156.61,27.87c51.47,32.71,90,35.92,90.38,35.95l-.05.75,13.54,1.24.77,2.13-.56,1-1,2.52-.3,2.06-13-1-.24,3.28c-1.68-.12-41.7-3.31-95.95-37.79C107.13,10.65,73.66,6.1,50.68,24.49,31.84,39.57,38.26,65.73,39.74,70.83c6,20.48,23.43,43.24,33.73,53.54L65,132.86c-9.62-9.62-29.68-34.25-36.77-58.68a70.69,70.69,0,0,1-2.27-27" style="fill:#e3b96d"/><path d="M33.53,47.87c1.3-10.65,8.06-25.6,26.32-30.26C38.9,28,37.47,48,37.47,48l-.18,7.88c.44,6.36.69,11.63,1.4,14.09,6.24,21.51,23,43.27,33,54.08l1.1-1.05,2.72,2.94-3.9,3.9C62,120.2,42.6,96.64,35.5,72.22a57.12,57.12,0,0,1-2-24.35" style="fill:#a27737"/><path d="M72.43,123.3l1,1.06-1,1v-2.09" style="fill:#a27737"/><path d="M259.39,72.55c-5.54-.23-16.95-1.2-16.95-1.2-6.13-.87-15.37-2.81-33.23-8.47-12.09-3.83-37.69-14.7-51.77-21.69,0,.11,1.58,2.13,1.61,2.25,49.69,29.37,85.5,32.25,87.08,32.36l12.8,1.39" style="fill:#a27737"/><path d="M65,133.85a1,1,0,0,1-.71-.29c-9.68-9.68-29.87-34.49-37-59.11A71.74,71.74,0,0,1,25,47c1.64-13.46,7.73-24.75,17.6-32.66A63.4,63.4,0,0,1,83.19.34c21.21,0,46.1,9,74,26.68,51.16,32.51,89.53,35.77,89.92,35.79l12.74,1.35a1,1,0,0,1,.75.48c1.56,2.61.38,5.66.06,8s-.7,3.94-.71,4.08.17.93-.11.91l-3.19-.18-10.55-.69c-1.69-.12-42-3.33-96.42-37.94-25.5-16.2-47.8-24.42-66.28-24.42-12.28,0-23.06,3.65-32,10.85C33,40,39.27,65.56,40.72,70.55c5.9,20.3,23.25,42.89,33.48,53.11a1,1,0,0,1,0,1.41l-8.48,8.48a1,1,0,0,1-.71.29M83.21,2.34A61.45,61.45,0,0,0,43.83,15.9C34.37,23.47,28.54,34.3,27,47.24a69.65,69.65,0,0,0,2.2,26.65c6.87,23.65,26,47.53,35.81,57.54l7.07-7.07C61.64,113.68,44.67,91.3,38.8,71.1c-1.51-5.2-8.06-31.92,11.27-47.4,9.36-7.49,20.56-11.29,33.3-11.29,18.87,0,41.53,8.32,67.36,24.73,54.05,34.34,93.82,37.52,95.49,37.63l12.71.83c0-1.93,2-6.08.17-9.52l-12.2-1.29c-.35,0-39.15-3.27-90.81-36.1C128.56,11.21,104,2.34,83.21,2.34" style="fill:#5b3a2a"/><path d="M56.73,117.12a26.92,26.92,0,0,1-7-1l.52-1.93c9.08,2.43,13.9-.83,14-.86L65.38,115c-.17.12-3.14,2.12-8.65,2.12" style="fill:#5b3a2a"/><path d="M50.91,109.28a26.92,26.92,0,0,1-7-1l.52-1.93c9.08,2.43,13.9-.83,14-.86l1.14,1.64c-.17.12-3.14,2.12-8.65,2.12" style="fill:#5b3a2a"/><path d="M45.87,101.22a26.88,26.88,0,0,1-7-1l.52-1.93c9.08,2.43,13.9-.83,14-.86l1.14,1.64c-.17.11-3.14,2.12-8.65,2.12" style="fill:#5b3a2a"/><path d="M42.42,92.24a20.6,20.6,0,0,1-8.54-1.95l.83-1.82c7.59,3.44,12.94.79,13,.76l.9,1.77a14.45,14.45,0,0,1-6.19,1.23" style="fill:#5b3a2a"/><path d="M38.83,83.8a20,20,0,0,1-8.29-1.95L31.37,80c7.49,3.4,12,.89,12.2.78l1,1.73a12,12,0,0,1-5.75,1.26" style="fill:#5b3a2a"/><path d="M35.47,75.21a20,20,0,0,1-8.29-1.95L28,71.45c7.49,3.4,12,.89,12.2.78l1,1.73a12,12,0,0,1-5.75,1.26" style="fill:#5b3a2a"/><path d="M35.81,66a17.51,17.51,0,0,1-10.54-3.77l1.2-1.6c6.3,4.71,11.78,3.1,11.83,3.08l.59,1.91a11.18,11.18,0,0,1-3.07.37" style="fill:#5b3a2a"/><path d="M35.89,57.14c-2.24,0-6.35-.69-10.76-4.87l1.37-1.45C32.19,56.2,37.12,55,37.17,55l.48,2a7.83,7.83,0,0,1-1.76.17" style="fill:#5b3a2a"/><path d="M36.58,48.38c-2.24,0-6.34-.69-10.76-4.87l1.37-1.45c5.69,5.38,10.62,4.23,10.67,4.21l.49,1.94a7.75,7.75,0,0,1-1.76.17" style="fill:#5b3a2a"/><path d="M39.92,41.48c-.27,0-6.68-1.23-10.62-9.18l1.79-.89c3.47,7,8.94,8,9.17,8.1l-.34,2" style="fill:#5b3a2a"/><path d="M43.34,34.26c-.25-.08-6.06-2.16-8.84-11.2l1.91-.59c2.48,8.08,7.52,9.88,7.58,9.9l-.64,1.89" style="fill:#5b3a2a"/><path d="M48.52,27.46c-.23-.1-5.67-2.55-7.08-11.35l2-.32c1.25,7.73,5.86,9.81,5.9,9.83l-.79,1.84" style="fill:#5b3a2a"/><path d="M55.48,22.09c-.23-.12-5.63-3.08-6.79-12l2-.26c1,7.81,5.56,10.36,5.75,10.47l-.94,1.76" style="fill:#5b3a2a"/><path d="M62.69,18.16c-.19-.18-4.65-4.57-3-12.71l2,.39c-1.4,7,2.29,10.73,2.45,10.88l-1.39,1.44" style="fill:#5b3a2a"/><path d="M70.47,15.13c-.13-.21-3.18-5.23.72-13.26l1.8.87c-3.39,7-.93,11.16-.82,11.33l-1.7,1.06" style="fill:#5b3a2a"/><path d="M79.27,13.43c-.1-.23-2.49-5.58,2.41-13.23l1.68,1.08C79.05,8,81.07,12.55,81.09,12.59l-1.82.84" style="fill:#5b3a2a"/><path d="M88.94,14.13C88.84,13.89,86.45,8,91.16.76l1.68,1.09c-4.14,6.39-2.07,11.46-2.05,11.51L89,14.14" style="fill:#5b3a2a"/><path d="M97.17,15.57c-.06-.24-1.37-6.08,4.88-12.94L103.53,4C98,10.06,99.1,15.05,99.12,15.11l-1.94.47" style="fill:#5b3a2a"/><path d="M105.38,16.64c0-.24-.82-6,5.93-11.58l1.28,1.54c-5.9,4.91-5.24,9.69-5.24,9.74l-2,.3" style="fill:#5b3a2a"/><path d="M113.61,19.6c0-.25-.35-6.19,6.62-11.65l1.23,1.57c-6.08,4.77-5.87,9.73-5.86,9.94l-2,.13" style="fill:#5b3a2a"/><path d="M121.84,23.14c0-.26,0-6.3,6.89-10.83l1.1,1.67c-6,3.9-6,8.92-6,9.13h-2" style="fill:#5b3a2a"/><path d="M131.85,26.71l-2-.21c0-.24.71-5.9,8.68-9.9l.9,1.79c-7,3.51-7.59,8.27-7.59,8.32" style="fill:#5b3a2a"/><path d="M139.9,31.56l-2-.29c0-.24.92-5.88,9.11-9.78l.86,1.8c-7.15,3.41-8,8.07-8,8.27" style="fill:#5b3a2a"/><path d="M149.76,37.41l-2-.09c0-.24.32-6,8-10.24l1,1.75c-6.65,3.67-7,8.38-7,8.58" style="fill:#5b3a2a"/><path d="M157.5,42.06l-2-.16c0-.25.58-6.24,8.48-10.29l.91,1.78c-6.92,3.55-7.39,8.62-7.4,8.67" style="fill:#5b3a2a"/><path d="M165.89,46.64l-2-.2c0-.25.7-6.26,8.1-10l.9,1.79c-6.42,3.21-7,8.32-7,8.37" style="fill:#5b3a2a"/><path d="M172.78,52.08c0-.24-.42-6.06,7-11.12l1.13,1.65c-6.37,4.36-6.12,9.11-6.1,9.31l-2,.16" style="fill:#5b3a2a"/><path d="M181.25,55.85c0-.24-.11-5.94,6.42-11l1.22,1.59c-5.67,4.36-5.64,9.11-5.64,9.31l-2,.06" style="fill:#5b3a2a"/><path d="M189.44,59.71c0-.24-.06-5.94,7.33-10.93l1.12,1.66c-6.42,4.34-6.45,9-6.45,9.24h-2" style="fill:#5b3a2a"/><path d="M200.35,63.56h-2c0-.24.16-6,7.77-10.88l1.09,1.68c-6.72,4.35-6.86,9.18-6.86,9.22" style="fill:#5b3a2a"/><path d="M208.72,67.49c0-.24-.46-6,6.63-11.19l1.18,1.61c-6.19,4.54-5.83,9.35-5.82,9.4l-2,.18" style="fill:#5b3a2a"/><path d="M217.89,70.92c0-.29-.52-7.08,7.67-12.17l1.06,1.7c-7.1,4.41-6.75,10.06-6.73,10.3l-2,.17" style="fill:#5b3a2a"/><path d="M228.08,72.34c0-.26-.12-6.3,6.74-10.92l1.12,1.66c-5.9,4-5.87,9-5.86,9.21l-2,.06" style="fill:#5b3a2a"/><path d="M238.88,75.35c0-.29-.42-7.18,7.15-12.74l1.18,1.61c-6.63,4.87-6.35,10.74-6.34,11l-2,.14" style="fill:#5b3a2a"/><path d="M251.31,76.22l-2-.07c0-.32.33-7.94,6.11-12.27l1.2,1.6c-5,3.77-5.31,10.67-5.31,10.74" style="fill:#5b3a2a"/><path d="M524,47.12c-1.61-13.2-7.56-24.26-17.23-32C479.35-6.82,441.18-2.53,393.33,27.87c-51.47,32.71-90,35.92-90.38,35.95v.75l-1.74.06-2,3.84-.23,3L300.29,73l3.31-.43.24,3.28c1.68-.12,41.7-3.31,96-37.79,43-27.35,76.52-31.9,99.5-13.51,18.83,15.08,12.41,41.24,10.94,46.34-6,20.48-23.43,43.24-33.73,53.54l8.48,8.48c9.62-9.62,29.68-34.25,36.77-58.68a70.65,70.65,0,0,0,2.2-27.1" style="fill:#e3b96d"/><path d="M303.81,75.79c1.68-.12,41.7-3.31,96-37.79,25.77-16.38,48.11-24.58,66.82-24.58a57,57,0,0,1,12.12,1.27l-.7-1.13c-29.33-6.68-59.86,9.1-74.17,17.29-2,1.22-4.09,2.47-6.16,3.79l-1.44.9-.39.27h-.08c-43.39,27.15-77,33.93-88.2,35.52,0,0-6.7.78-8.86.51-.7-.09-.63,3.84-.63,3.84l2.39.23,3.41-.13" style="fill:#a27737"/><path d="M524,47.12c-1.3-10.65-7.49-23.83-15.08-29,14.8,21,11.38,41,11.38,41A68,68,0,0,1,517.9,73c-6.24,21.51-23,43.27-33,54.08L483.78,126l-2.72,3,3.9,3.9c9.62-9.62,29.68-34.25,36.77-58.68A70.66,70.66,0,0,0,524,47.13" style="fill:#a27737"/><path d="M477.52,123.3l-1,1.06,1,1v-2.09" style="fill:#a27737"/><path d="M485,133.85a1,1,0,0,1-.71-.29l-8.48-8.48a1,1,0,0,1,0-1.41c10.23-10.23,27.58-32.81,33.48-53.11,1.45-5,7.74-30.6-10.6-45.28-9-7.2-19.78-10.85-32.06-10.85-18.48,0-40.78,8.22-66.28,24.42-54.47,34.61-94.73,37.82-96.41,37.94l-5.4.36a1,1,0,0,1-1.06-.94s0,0,0-.06c0-.32.08-7.78,3.12-12.88a1,1,0,0,1,.89-.49H303c1.6-.14,39.55-3.82,89.87-35.79C420.66,9.32,445.55.34,466.76.34a63.41,63.41,0,0,1,40.63,14c9.87,7.9,16,19.19,17.6,32.66a71.76,71.76,0,0,1-2.3,27.45c-7.15,24.62-27.34,49.43-37,59.11a1,1,0,0,1-.71.29m-7.07-9.49,7.07,7.07c9.8-10,28.94-33.89,35.81-57.54A69.71,69.71,0,0,0,523,47.24c-1.58-12.93-7.41-23.77-16.86-31.34A61.45,61.45,0,0,0,466.76,2.34c-20.83,0-45.35,8.87-72.89,26.37C342.22,61.53,303.43,64.78,303,64.81h-1.06c-1.88,3.51-2.38,8.2-2.51,10.29l4.29-.28c1.66-.12,41.43-3.29,95.48-37.63,25.8-16.41,48.49-24.73,67.36-24.73,12.74,0,24,3.8,33.31,11.29,19.33,15.48,12.78,42.2,11.27,47.4-5.86,20.2-22.83,42.58-33.28,53.26" style="fill:#5b3a2a"/><path d="M493.21,117.12c-5.52,0-8.48-2-8.65-2.12l1.14-1.64s5,3.27,14,.87l.52,1.93a26.93,26.93,0,0,1-7,1" style="fill:#5b3a2a"/><path d="M499,109.28c-5.51,0-8.48-2-8.65-2.12l1.14-1.64s5,3.27,14,.87l.52,1.93a26.89,26.89,0,0,1-7,1" style="fill:#5b3a2a"/><path d="M504.07,101.22c-5.52,0-8.48-2-8.65-2.12l1.14-1.64s5,3.27,14,.86l.52,1.93a26.9,26.9,0,0,1-7,1" style="fill:#5b3a2a"/><path d="M507.52,92.24A14.46,14.46,0,0,1,501.34,91l.91-1.78c.22.11,5.46,2.66,13-.76l.83,1.82a20.61,20.61,0,0,1-8.54,1.95" style="fill:#5b3a2a"/><path d="M511.11,83.8a12,12,0,0,1-5.75-1.26l1-1.73c.19.11,4.72,2.62,12.2-.78l.83,1.82a20,20,0,0,1-8.29,1.95" style="fill:#5b3a2a"/><path d="M514.47,75.21A12,12,0,0,1,508.72,74l1-1.72-.51.86.5-.86c.19.11,4.71,2.62,12.2-.78l.83,1.82a20,20,0,0,1-8.29,1.95" style="fill:#5b3a2a"/><path d="M514.13,66a11.25,11.25,0,0,1-3.07-.37l.59-1.91c.22.07,5.58,1.59,11.83-3.08l1.2,1.6A17.51,17.51,0,0,1,514.13,66" style="fill:#5b3a2a"/><path d="M514.06,57.14A7.77,7.77,0,0,1,512.3,57l.48-1.94c.21,0,5,1.12,10.68-4.21l1.37,1.45c-4.42,4.17-8.52,4.87-10.76,4.87" style="fill:#5b3a2a"/><path d="M513.36,48.38a7.73,7.73,0,0,1-1.76-.17l.49-1.94-.24,1,.24-1c.2,0,5,1.12,10.67-4.21l1.37,1.45c-4.42,4.17-8.52,4.87-10.76,4.87" style="fill:#5b3a2a"/><path d="M510,41.48l-.34-2,.17,1-.17-1c.23,0,5.7-1.1,9.16-8.1l1.79.89c-3.94,8-10.35,9.13-10.61,9.18" style="fill:#5b3a2a"/><path d="M506.6,34.26l-.6-1.89.32,1-.33-.94c.21-.07,5.12-1.89,7.58-9.9l1.91.59c-2.78,9-8.6,11.12-8.84,11.2" style="fill:#5b3a2a"/><path d="M501.43,27.46l-.8-1.84.4.92-.4-.91c.19-.09,4.67-2.18,5.91-9.84l2,.32c-1.42,8.8-6.85,11.25-7.08,11.35" style="fill:#5b3a2a"/><path d="M494.47,22.09l-.94-1.77.47.88-.48-.88c.19-.1,4.73-2.66,5.75-10.47l2,.26c-1.16,8.89-6.56,11.85-6.79,12" style="fill:#5b3a2a"/><path d="M487.25,18.16l-1.39-1.44.69.72-.7-.72c.16-.15,3.85-3.86,2.45-10.88l2-.39c1.63,8.14-2.83,12.53-3,12.71" style="fill:#5b3a2a"/><path d="M479.47,15.13l-1.69-1.06.85.53-.85-.52c.11-.18,2.57-4.36-.82-11.33l1.8-.87c3.9,8,.85,13.05.72,13.26" style="fill:#5b3a2a"/><path d="M470.67,13.43l-1.81-.84.91.42-.91-.41c.08-.19,2-4.65-2.27-11.32L468.26.2c4.9,7.65,2.51,13,2.41,13.23" style="fill:#5b3a2a"/><path d="M461,14.13l-1.84-.78.92.39-.92-.38c.09-.21,2-5.18-2-11.52L458.79.76C463.5,8,461.12,13.89,461,14.13" style="fill:#5b3a2a"/><path d="M452.78,15.57l-2-.46c0-.21,1.08-5.11-4.41-11.14l1.48-1.35c6.24,6.86,4.93,12.7,4.88,12.94" style="fill:#5b3a2a"/><path d="M444.56,16.64l-2-.3,1,.15-1-.15c0-.2.6-4.88-5.23-9.75l1.28-1.54c6.76,5.63,6,11.34,5.93,11.58" style="fill:#5b3a2a"/><path d="M436.33,19.6l-2-.14,1,.07-1-.06c0-.21.23-5.18-5.86-9.94L429.71,8c7,5.46,6.64,11.4,6.62,11.65" style="fill:#5b3a2a"/><path d="M428.11,23.14h-2c0-.21,0-5.23-6-9.13l1.1-1.67c6.92,4.54,6.89,10.58,6.89,10.83" style="fill:#5b3a2a"/><path d="M418.1,26.72c0-.2-.66-4.85-7.59-8.33l.9-1.79c8,4,8.66,9.66,8.68,9.9l-2,.22" style="fill:#5b3a2a"/><path d="M410,31.56c0-.2-.84-4.85-8-8.27l.86-1.8C411.1,25.39,412,31,412,31.27l-2,.29" style="fill:#5b3a2a"/><path d="M400.19,37.41c0-.2-.34-4.91-7-8.58l1-1.75c7.7,4.24,8,10,8,10.24l-2,.09" style="fill:#5b3a2a"/><path d="M392.44,42.07c0-.21-.55-5.16-7.4-8.68l.91-1.78c7.9,4.05,8.46,10,8.48,10.29l-2,.16" style="fill:#5b3a2a"/><path d="M384.06,46.64c0-.21-.64-5.19-7-8.37l.89-1.79c7.4,3.7,8.07,9.71,8.1,10l-2,.2" style="fill:#5b3a2a"/><path d="M377.16,52.08l-2-.17,1,.08-1-.08c0-.2.27-4.94-6.1-9.31L370.2,41c7.39,5.06,7,10.87,7,11.12" style="fill:#5b3a2a"/><path d="M368.7,55.85l-2-.06c0-.2,0-5-5.64-9.31l1.22-1.59c6.53,5,6.42,10.71,6.42,11" style="fill:#5b3a2a"/><path d="M360.5,59.71h-2c0-.2,0-4.89-6.45-9.24l1.12-1.66c7.39,5,7.34,10.69,7.33,10.93" style="fill:#5b3a2a"/><path d="M349.6,63.57c0-.2-.2-4.92-6.86-9.23l1.09-1.68c7.61,4.93,7.77,10.64,7.77,10.88h-2" style="fill:#5b3a2a"/><path d="M341.22,67.49l-2-.18,1,.09-1-.08c0-.2.3-4.91-5.82-9.41l1.18-1.61c7.08,5.2,6.65,11,6.63,11.19" style="fill:#5b3a2a"/><path d="M332,70.92l-2-.17c0-.24.37-5.89-6.73-10.3l1-1.7c8.19,5.09,7.7,11.88,7.67,12.17" style="fill:#5b3a2a"/><path d="M321.86,72.34l-2-.06h0c0-.21,0-5.23-5.86-9.21l1.12-1.66c6.86,4.63,6.75,10.67,6.74,10.92" style="fill:#5b3a2a"/><path d="M311.06,75.35l-2-.14c0-.25.3-6.12-6.34-11l1.18-1.61c7.56,5.55,7.17,12.45,7.15,12.74" style="fill:#5b3a2a"/><path d="M477.52,123.3l-1,1.06,1,1v-2.09" style="fill:#a27737"/><path d="M286.24,109.5c19.42-2.77,36.83-4.72,59.21-6.83-22.37,2.11-39.78,4.06-59.2,6.82C255,112.35,216.75,116,158.14,109h-.05C216.73,116.07,255,112.36,286.24,109.5Z" style="fill:none"/><path d="M125.62,115.18h0a810.27,810.27,0,0,0,83,7.77A811,811,0,0,1,125.62,115.18Z" style="fill:none"/><path d="M252.61,99.63c20.45-2.34,43.22-4.08,73.09-6.6h-.08c-29.89,2.51-52.69,4.23-73.2,6.54a489.54,489.54,0,0,1-51.88,1.31h-.07A503.67,503.67,0,0,0,252.61,99.63Z" style="fill:none"/><path d="M284.7,115.82c-33.51,2.9-77.22,5-142.53-3.81h0C207.48,120.86,251.2,118.73,284.7,115.82Z" style="fill:none"/><path d="M313.37,116.31c11.16-1.54,21.46-2.84,32-4-10.53,1.18-20.82,2.48-32,4-38.66,3.46-90.24,9.59-179.18-2.76h-.06C223.12,125.91,274.71,119.77,313.37,116.31Z" style="fill:none"/><path d="M150.07,110.51h0a608.22,608.22,0,0,0,60.63,5A608,608,0,0,1,150.07,110.51Z" style="fill:none"/><path d="M267.51,104.93c22.17-3.08,44.4-5.07,76-7.84h0c-31.59,2.76-53.82,4.74-76,7.8-25.86,2.43-52.12,4-89.39.78l-1.75-.16h0l1.81.16C215.38,108.84,241.62,107.31,267.51,104.93Z" style="fill:none"/><path d="M347.26,132.3q-12.37.74-24.94,1.31c-12.83.56-25.88,1-39.53,1.26h1c13.3-.25,26-.69,38.58-1.25C330.74,133.24,339,132.79,347.26,132.3Z" style="fill:none"/><path d="M208.64,134.08c-11.73-.56-24.1-1.22-37.45-2.2l-1.93-.12c14.09,1.05,27.07,1.75,39.36,2.34,27.9,1.08,52.36,1.2,75.16.77h-1C260.28,135.28,236.14,135.14,208.64,134.08Z" style="fill:none"/><path d="M422.43,132.17q8.76-.82,17.59-1.71c-13,1.27-25.63,2.47-38.13,3.54Q412.14,133.14,422.43,132.17Z" style="fill:none"/><path d="M334.6,95.06h0c8.09-.7,16.75-1.46,26.1-2.3C351.37,93.6,342.7,94.36,334.6,95.06Z" style="fill:none"/><path d="M259.24,102.34c-14.59,1.21-29,2.09-45,2,16,.06,30.45-.81,45.1-2,21.41-2.76,44.14-4.63,75.3-7.33h0C303.44,97.74,280.68,99.61,259.24,102.34Z" style="fill:none"/><path d="M171.19,131.88c-23.87-1.75-51-4.5-83.49-9.46h-.1c31.69,4.83,58.23,7.57,81.66,9.32Z" style="fill:none"/><path d="M327.27,125.2c13.7-1.09,26.68-2.27,39.68-3.48-13,1.2-26,2.37-39.7,3.47a1016.74,1016.74,0,0,1-109.94,3.18,962.89,962.89,0,0,1-110.47-9.6h-.1a963.34,963.34,0,0,0,110.56,9.61A1016.21,1016.21,0,0,0,327.27,125.2Z" style="fill:none"/><path d="M117,116.82h-.07c44.72,6.45,80.32,8.82,110.09,9.2C197.27,125.65,161.69,123.28,117,116.82Z" style="fill:none"/><path d="M326.56,129.1c7.33-.47,14.51-1,21.62-1.5-7.12.53-14.3,1-21.64,1.5-32.1,2-67,3.42-112.12,2.07a1025.37,1025.37,0,0,1-117-10.6h-.09a1025.53,1025.53,0,0,0,117.08,10.6C259.57,132.53,294.46,131.09,326.56,129.1Z" style="fill:none"/><path d="M214.23,104.38c16,.05,30.42-.83,45-2,21.45-2.73,44.2-4.6,75.37-7.28l-8.9-2c-29.87,2.52-52.64,4.26-73.09,6.6a503.67,503.67,0,0,1-52.14,1.25l-13.3,2.54C196.82,104.06,205.75,104.35,214.23,104.38Z" style="fill:#cc823f"/><path d="M252.41,99.56c20.51-2.31,43.32-4,73.2-6.54l-9.23-2.1c-27.21,2.46-48.68,4.36-68.88,5.59-10,.57-19.7,1-29.55,1l-17.42,3.33A489.54,489.54,0,0,0,252.41,99.56Z" style="fill:#cc823f"/><path d="M316.37,90.91l-4.79-1.09c-18.9,3.4-33.51,2.93-42.61,1.89-8.34.56-16.27,1-24,1.39l-4.87.2L218,97.53c9.83-.08,19.51-.47,29.49-1C267.68,95.27,289.16,93.36,316.37,90.91Z" style="fill:#d39451"/><path d="M247.49,96.49c-10,.57-19.66,1-29.49,1h0c9.85-.08,19.55-.46,29.55-1,20.2-1.23,41.67-3.13,68.88-5.59h0C289.16,93.36,267.68,95.27,247.49,96.49Z" style="fill:#d39451"/><path d="M268.9,91.71a68,68,0,0,1-10.55-1.89l-18.13,3.46,4.74-.19C252.66,92.73,260.58,92.27,268.9,91.71Z" style="fill:#e2a66e"/><path d="M269,91.72h-.07c-8.33.56-16.25,1-23.94,1.39l-4.74.19h-.1l4.87-.2C252.7,92.74,260.63,92.28,269,91.72Z" style="fill:#e2a66e"/><path d="M211.59,115.53h.26c35.41,1,61.8-1.74,84.06-3.84,24.26-3.52,44.78-5.73,75-8.38l-9.34-2.12c-5.7.51-11,1-16.15,1.48-22.38,2.11-39.79,4.06-59.21,6.83-31.27,2.86-69.51,6.57-128.16-.52l-8,1.53a607.81,607.81,0,0,0,60.62,5Z" style="fill:#e2a66e"/><path d="M286.24,109.49c19.42-2.76,36.83-4.71,59.2-6.82,5.1-.48,10.45-1,16.15-1.48l-9-2.06c-31.1,2.81-52.46,4.92-76,8.12-28.78,2.47-62.06,5.25-110,.1L158.13,109C216.74,116.06,255,112.35,286.24,109.49Z" style="fill:#e1b177"/><path d="M345.45,102.67c5.1-.48,10.46-1,16.15-1.48h0C355.9,101.7,350.54,102.19,345.45,102.67Z" style="fill:#e1b177"/><path d="M276.55,107.25c23.53-3.2,44.88-5.3,76-8.12l-9-2c-31.6,2.77-53.84,4.76-76,7.84-25.89,2.38-52.13,3.91-89.4.73l-1.81-.16-9.7,1.85C214.51,112.5,247.78,109.71,276.55,107.25Z" style="fill:#d39451"/><path d="M276.55,107.25c-28.78,2.47-62,5.25-110,.1h0c47.9,5.15,81.18,2.37,110-.1,23.54-3.2,44.9-5.3,76-8.12h0C321.43,101.94,300.08,104,276.55,107.25Z" style="fill:#d39451"/><path d="M267.48,104.87c22.17-3.06,44.41-5,76-7.8l-8.85-2c-31.16,2.7-53.89,4.57-75.3,7.33-14.64,1.18-29.07,2-45.1,2-8.48,0-17.41-.32-27.07-1l-10.82,2.07,1.75.16C215.36,108.83,241.62,107.3,267.48,104.87Z" style="fill:#d39451"/><path d="M187.16,103.42c9.65.64,18.58.93,27.07,1-8.48,0-17.41-.32-27.05-1Z" style="fill:#d39451"/><path d="M325,121.82c29-2.7,54-5.66,85.15-8.26l4.29-.36-12.19-2.77c-30.93,2.58-54.47,5.62-81.94,8.52-29.38,2-63,5.92-111.73,4a810.27,810.27,0,0,1-83-7.77L117,116.82c44.68,6.45,80.25,8.83,110,9.22C267.71,126.56,297.53,123.37,325,121.82Z" style="fill:#e2a66e"/><path d="M320.23,118.89c27.53-2.84,51-5.88,81.94-8.47l-10.94-2.49c-17.43,1.43-31.86,2.79-45.88,4.36-10.52,1.18-20.82,2.48-32,4-38.66,3.46-90.24,9.6-179.26-2.75l-8.49,1.62a811,811,0,0,0,83,7.84C257.31,124.85,290.88,120.9,320.23,118.89Z" style="fill:#e2a66e"/><path d="M320.23,118.89c-29.34,2-62.92,6-111.67,4.07,48.75,1.9,82.35-2,111.73-4,27.47-2.9,51-5.93,81.94-8.52h-.06C371.27,113,347.75,116,320.23,118.89Z" style="fill:#e2a66e"/><path d="M313.36,116.3c11.16-1.53,21.46-2.83,32-4,14-1.57,28.44-2.94,45.86-4.37l-10.42-2.37c-30.08,2.55-50.71,4.81-75.66,8.38-6.41.6-13.18,1.26-20.42,1.89-33.5,2.91-77.23,5-142.56-3.8l-8,1.52C223.12,125.9,274.7,119.76,313.36,116.3Z" style="fill:#e1b177"/><path d="M345.35,112.29c14-1.57,28.45-2.93,45.88-4.36h0C373.78,109.35,359.36,110.72,345.35,112.29Z" style="fill:#e1b177"/><path d="M284.7,115.82c7.25-.63,14-1.29,20.43-1.89,24.93-3.57,45.55-5.83,75.62-8.38L371,103.33c-30.26,2.64-50.79,4.86-75.06,8.37-22.27,2.09-48.67,4.83-84.07,3.83h-1.16a605.24,605.24,0,0,1-60.63-5L142.17,112C207.48,120.85,251.19,118.73,284.7,115.82Z" style="fill:#e1b177"/><path d="M295.92,111.7c-22.27,2.09-48.65,4.84-84.06,3.84,35.41,1,61.8-1.74,84.07-3.83,24.27-3.51,44.8-5.73,75.06-8.37h0C340.7,106,320.18,108.18,295.92,111.7Z" style="fill:#e1b177"/><path d="M305.13,113.93c-6.41.6-13.18,1.26-20.43,1.89,7.25-.63,14-1.29,20.42-1.89,25-3.57,45.58-5.83,75.66-8.38h0C350.69,108.1,330.06,110.36,305.13,113.93Z" style="fill:#e1b177"/><path d="M347.91,132.26h-.65c-8.24.49-16.52.94-24.9,1.32-12.53.55-25.27,1-38.58,1.25,53-.29,114.63-2.93,182.56-9.86l-7.83-1.78c-12.51,1.12-24.36,2.21-36,3.26C397.15,128.81,372.72,130.77,347.91,132.26Z" style="fill:#e1b177"/><path d="M169.26,131.76c-23.43-1.75-50-4.49-81.66-9.32l-4.88.93S114.15,128.35,169.26,131.76Z" style="fill:#e1b177"/><path d="M282.79,134.87c13.65-.25,26.7-.69,39.53-1.26,8.39-.38,16.68-.82,24.94-1.31h.65c24.82-1.5,49.25-3.47,74.59-5.8,11.63-1.05,23.44-2.15,35.9-3.26l-15.68-3.57c-7.77.64-15.23,1.27-22.54,1.92-24.92,2.19-48,4.27-72,6-7.11.53-14.29,1-21.62,1.5-32.1,2-67,3.43-112.15,2.08a1025.53,1025.53,0,0,1-117.08-10.6l-9.63,1.84c32.53,5,59.62,7.71,83.49,9.46C201.72,133.73,239.35,135.09,282.79,134.87Z" style="fill:#e2a66e"/><path d="M282.79,134.87c-43.44.22-81.07-1.14-111.6-3,13.36,1,25.72,1.64,37.45,2.2C236.14,135.14,260.28,135.28,282.79,134.87Z" style="fill:#e2a66e"/><path d="M422.5,126.46c-25.35,2.33-49.77,4.3-74.59,5.8,24.81-1.49,49.23-3.45,74.58-5.77,11.67-1.05,23.52-2.15,36-3.26h-.11C446,124.32,434.13,125.41,422.5,126.46Z" style="fill:#e2a66e"/><path d="M326.54,129.1c7.33-.47,14.52-1,21.64-1.5,24-1.78,47.07-3.87,72-6.07,7.28-.64,14.72-1.28,22.47-1.92L428,116.28l-12,1c-17.25,1.47-33.13,3-49,4.44-13,1.21-26,2.38-39.68,3.48a1016.21,1016.21,0,0,1-110,3.19,963.34,963.34,0,0,1-110.56-9.61l-9.33,1.78a1025.37,1025.37,0,0,0,117,10.6C259.58,132.52,294.44,131.07,326.54,129.1Z" style="fill:#dc9d5d"/><path d="M420.16,121.53c-24.91,2.19-48,4.28-72,6.07,24-1.78,47.08-3.86,72-6,7.31-.64,14.77-1.28,22.54-1.92h-.1C434.88,120.25,427.44,120.89,420.16,121.53Z" style="fill:#dc9d5d"/><path d="M327.25,125.19c13.71-1.09,26.69-2.26,39.7-3.47,15.85-1.47,31.72-3,49-4.46,3.92-.34,7.9-.68,12-1l-13.43-3.05-4.31.37c-31.13,2.6-56.16,5.55-85,8.31-27.52,1.52-57.39,4.69-98.1,4.16-29.77-.38-65.37-2.75-110.09-9.2l-10.11,1.93a962.89,962.89,0,0,0,110.47,9.6A1016.74,1016.74,0,0,0,327.25,125.19Z" style="fill:#d39451"/><path d="M410.13,113.57C379,116.17,354,119.13,325,121.82c-27.44,1.55-57.27,4.73-97.94,4.22,40.7.53,70.58-2.64,98.1-4.16,28.86-2.76,53.89-5.71,85-8.31l4.31-.37h0Z" style="fill:#d39451"/><path d="M415.91,117.27c-17.24,1.47-33.12,3-49,4.46,15.85-1.47,31.74-3,49-4.44q5.89-.51,12-1h-.06Q421.79,116.76,415.91,117.27Z" style="fill:#d39451"/><polygon points="469.48 125.33 469.41 125.47 469.43 125.85 469.48 125.33" style="fill:#5b3a2a"/><path d="M472.31,160.36h0c.12.28.23.55.36.84h0C472.53,160.92,472.42,160.64,472.31,160.36Z" style="fill:#d39451"/><path d="M484.77,157.91h0a20.82,20.82,0,0,1-5.94-13.72A20.82,20.82,0,0,0,484.77,157.91Z" style="fill:none"/><path d="M466,129a10.43,10.43,0,0,1,3.3-5.22h0a11,11,0,0,0-3.4,5.25,9.57,9.57,0,0,1,.19,5.14v.19A10.09,10.09,0,0,0,466,129Z" style="fill:none"/><path d="M469,144.29c.23-8,3.27-13.19,2.67-17.07a12.22,12.22,0,0,1,2.55-3.87h0a13.25,13.25,0,0,0-2.65,3.91C472.2,131.11,469.19,136.32,469,144.29Z" style="fill:none"/><path d="M478.81,143.63v.48A3.84,3.84,0,0,0,478.81,143.63Z" style="fill:none"/><path d="M466,129a10.09,10.09,0,0,1,.09,5.37l2,26.33,2,.13,2.26-.45A37.66,37.66,0,0,1,469,144.29c.22-8,3.35-13.22,2.67-17.07a12.45,12.45,0,0,1,2.52-3.87l-4.9.41A10.43,10.43,0,0,0,466,129Z" style="fill:#e2a66e"/><path d="M469,144.29a37.8,37.8,0,0,0,3.33,16.07l6.18-1.22c-6-7.85-4.68-15-4.11-20.37,1-5.68,1.18-9.39,3.11-13.11a15.56,15.56,0,0,1,2-2.75l-5.27.44a12.22,12.22,0,0,0-2.55,3.87C472.24,131.1,469.2,136.32,469,144.29Z" style="fill:#d39451"/><path d="M469,144.29a37.66,37.66,0,0,0,3.33,16.07h0A37.8,37.8,0,0,1,469,144.29Z" style="fill:#d39451"/><path d="M478.82,144.11v-.48a41.1,41.1,0,0,1,.26-5.33c1-5.85,1.69-9.93,4.4-13.93a20.81,20.81,0,0,1,1.55-1.91l-5.56.46a15.55,15.55,0,0,0-2,2.74c-1.93,3.71-2.08,7.43-3.12,13.11-.57,5.35-1.91,12.53,4.11,20.37l6.29-1.24a20.82,20.82,0,0,1-5.94-13.72S478.83,144.13,478.82,144.11Z" style="fill:#d39451"/><path d="M477.48,125.67c-1.93,3.72-2.07,7.43-3.11,13.11-.57,5.34-1.91,12.52,4.11,20.37h0c-6-7.85-4.68-15-4.11-20.37,1-5.68,1.19-9.4,3.13-13.11a15.55,15.55,0,0,1,2-2.74h0A15.56,15.56,0,0,0,477.48,125.67Z" style="fill:#d39451"/><path d="M487,156.64v-4.58a20.91,20.91,0,0,1-3.09-13.91A32.12,32.12,0,0,1,487,127.32v-3.94a1,1,0,0,0-1-1h-.07l-.94.08a20.73,20.73,0,0,0-1.54,1.9c-2.72,4-3.45,8.09-4.41,13.94a40.92,40.92,0,0,0-.26,5.33v.55a20.82,20.82,0,0,0,5.94,13.72l1.46-.29A1,1,0,0,0,487,156.64Z" style="fill:#cc823f"/><path d="M478.82,144.11v.07C478.82,144.25,478.83,144.13,478.82,144.11Z" style="fill:#cc823f"/><path d="M483.47,124.37c-2.71,4-3.43,8.09-4.4,13.93a41.1,41.1,0,0,0-.26,5.33,40.92,40.92,0,0,1,.26-5.33c1-5.85,1.7-9.93,4.41-13.94a20.73,20.73,0,0,1,1.54-1.9h0A20.81,20.81,0,0,0,483.47,124.37Z" style="fill:#cc823f"/><path d="M466.07,129a10.22,10.22,0,0,1,3.17-5.2l-2.86.24h-.28l-.6.08v.28l-.1.31a1,1,0,0,0,0,.38,1.07,1.07,0,0,0,.06.24l.11.3.07,2.64.44,5.89C466.37,132.18,466.66,130.46,466.07,129Z" style="fill:#d39451"/><path d="M487,152.05v-24.7a32.13,32.13,0,0,0-3,10.79A20.89,20.89,0,0,0,487,152.05Z" style="fill:#cc823f"/><path d="M484,138.14a20.91,20.91,0,0,0,3,13.91h0a20.89,20.89,0,0,1-3-13.91,32.13,32.13,0,0,1,3-10.79h0A32.12,32.12,0,0,0,484,138.14Z" style="fill:#cc823f"/><path d="M62.86,157.61l.58.11-.86-.22A1,1,0,0,0,62.86,157.61Z" style="fill:none"/><path d="M62,137.19h0q5.23,1.32,10.45,2.6Q67.29,138.53,62,137.19Z" style="fill:none"/><path d="M80.92,161l.7-9.35q-9.77-2.31-19.57-4.84v9.84a1,1,0,0,0,.52.87l.86.22,15.5,3.06Z" style="fill:#e2a66e"/><path d="M82.32,142.21q-4.9-1.17-9.82-2.38-5.22-1.27-10.45-2.6v9.48q9.8,2.52,19.57,4.83Z" style="fill:#e2a66e"/><path d="M62,146.71v.09q9.8,2.53,19.57,4.84v-.09Q71.86,149.23,62,146.71Z" style="fill:#e2a66e"/><path d="M82.33,142.14l.62-8.39q-10.4-2.51-20.9-5.18v8.62q5.24,1.34,10.45,2.63C75.78,140.62,79.05,141.38,82.33,142.14Z" style="fill:#e1b177"/><path d="M82.32,142.21v-.06c-3.27-.76-6.55-1.52-9.82-2.32Q77.42,141,82.32,142.21Z" style="fill:#e1b177"/><path d="M83.48,126.68v-.48L71.07,123l-8-.66a1,1,0,0,0-1,1v5.16q10.5,2.68,20.9,5.2Z" style="fill:#e2a66e"/><path d="M83,133.72q-10.41-2.52-20.9-5.2h0q10.5,2.67,20.9,5.18Z" style="fill:#e2a66e"/><path d="M83.57,125.59l.09-.25a.74.74,0,0,0,0-.51v-.26l-2.42-.69L71.17,123l12.34,3.14Z" style="fill:#a0663a"/><path d="M83.52,126.19,71.17,123h-.11l12.45,3.16Z" style="fill:#a0663a"/><path d="M73.39,162.35c-.57-2-1.75-4.14-5.37-6.92,3.6,2.78,4.76,4.87,5.26,6.89-1.47,3.91,1.46,9,1.86,17.7C74.76,171.28,71.86,166.23,73.39,162.35Z" style="fill:none"/><path d="M82.86,162.41l.06-1.28.3-4-6-.75-.86-.17C80,158.71,81.84,160.7,82.86,162.41Z" style="fill:none"/><path d="M55.3,171.47c-.06-.43-.13-.84-.19-1.25.07.42.13.82.19,1.26A20.75,20.75,0,0,1,51.78,186h0A20.72,20.72,0,0,0,55.3,171.47Z" style="fill:none"/><path d="M79.63,196.8h0l-6.52-1.12h0l-6.53-1.14h0l-6.52-1.15h0l-6.52-1.16h0l-1.76-.32v.89a3,3,0,0,0,2.69,3L76.32,198h.31a3,3,0,0,0,.77-.11l2.55.15.13-1.21Z" style="fill:none"/><path d="M78.82,164.22c-2.29,4.2.89,9.33,1.45,19.94-.55-10.6-3.71-15.73-1.36-19.92-.32-2.42-1.55-5-7.37-9h0C77.35,159.22,78.56,161.82,78.82,164.22Z" style="fill:none"/><path d="M67.6,160.56c-.68,4.4,3.33,10.52,2.6,20.45.74-9.92-3.24-16-2.46-20.41-.9-2-2.39-4.12-5.89-6.71h0C65.33,156.48,66.78,158.54,67.6,160.56Z" style="fill:none"/><path d="M67.74,160.6C67,165,70.94,171.08,70.2,181a40.3,40.3,0,0,1-3.61,13.53h0l6.53,1.14a48.05,48.05,0,0,0,2-15.66c-.4-8.74-3.33-13.79-1.86-17.7-.5-2-1.66-4.11-5.26-6.89q-.75-.57-1.65-1.2l-.32-.06-1.21.08a3,3,0,0,0-2.86-.42l-.14.05C65.35,156.48,66.84,158.55,67.74,160.6Z" style="fill:#e2a66e"/><path d="M58.66,155.09A16.45,16.45,0,0,1,61.77,159c1.93,3.71,2.07,7.43,3.11,13.11.59,5.55,2,13.07-4.82,21.27l6.52,1.15h0A40.41,40.41,0,0,0,70.2,181c.73-9.93-3.28-16-2.6-20.45-.82-2-2.27-4.08-5.76-6.67l-1.79.67Z" style="fill:#d39451"/><path d="M70.2,181a40.41,40.41,0,0,1-3.61,13.52h0A40.3,40.3,0,0,0,70.2,181Z" style="fill:#d39451"/><path d="M60,193.38c6.86-8.2,5.41-15.73,4.82-21.28-1-5.68-1.19-9.4-3.12-13.11a16.42,16.42,0,0,0-3.09-3.9l-3.78,1.43c.32.39.63.78.91,1.17,2.71,4,3.43,8.09,4.4,13.93.58,5.72,1,13.14-6.64,20.59h0L60,193.37h0Z" style="fill:#d39451"/><path d="M64.88,172.11c-1-5.68-1.18-9.4-3.11-13.11a16.45,16.45,0,0,0-3.11-3.91h0a16.42,16.42,0,0,1,3.09,3.9c1.93,3.71,2.08,7.43,3.12,13.11.59,5.55,2,13.08-4.82,21.28h0C66.92,185.18,65.47,177.66,64.88,172.11Z" style="fill:#d39451"/><path d="M53.53,192.22c7.6-7.45,7.22-14.87,6.63-20.59-1-5.85-1.7-9.93-4.41-13.94-.27-.38-.58-.77-.89-1.16l-1.14.43a3,3,0,0,0-1.94,2.81v.08a29.05,29.05,0,0,1,3.33,10.38c.07.41.13.82.19,1.25a20.72,20.72,0,0,1-3.52,14.58v5.86l1.76.32Z" style="fill:#cc823f"/><path d="M60.18,171.63c-1-5.85-1.69-9.93-4.4-13.93-.28-.39-.59-.78-.91-1.17h0c.32.39.62.77.89,1.16,2.71,4,3.45,8.09,4.41,13.94.59,5.72,1,13.14-6.63,20.59h0C61.14,184.77,60.76,177.35,60.18,171.63Z" style="fill:#cc823f"/><path d="M78.91,164.24c-2.35,4.18.81,9.32,1.36,19.92h0v.11a64.92,64.92,0,0,1-.63,12.5h0l.45.08c2-18.34,2.63-29.29,2.65-29.54a3,3,0,0,0-.07-.78l.2-4.15c-1-1.71-2.86-3.7-6.47-6.21l-4.85-1C77.36,159.23,78.58,161.82,78.91,164.24Z" style="fill:#d39451"/><path d="M80.27,184.29v-.11h0c-.56-10.61-3.74-15.75-1.45-19.94-.26-2.4-1.47-5-7.29-9l-5.15-1c.6.41,1.15.81,1.64,1.19,3.61,2.78,4.79,4.89,5.37,6.92-1.53,3.88,1.37,8.93,1.75,17.66a47.93,47.93,0,0,1-2,15.66h0l6.52,1.12A65,65,0,0,0,80.27,184.29Z" style="fill:#d39451"/><polygon points="73.12 195.68 73.12 195.67 73.11 195.67 73.12 195.68" style="fill:#d39451"/><path d="M75.15,180a48.05,48.05,0,0,1-2,15.66h0A47.93,47.93,0,0,0,75.15,180Z" style="fill:#d39451"/><path d="M66.38,154.23q.9.62,1.65,1.2c-.5-.38-1-.78-1.64-1.19Z" style="fill:#d39451"/><path d="M80.27,184.29a65,65,0,0,1-.63,12.5h0A64.92,64.92,0,0,0,80.27,184.29Z" style="fill:#d39451"/><path d="M55.3,171.47c-.06-.43-.13-.84-.19-1.26a29.09,29.09,0,0,0-3.33-10.36V186A20.75,20.75,0,0,0,55.3,171.47Z" style="fill:#cc823f"/><path d="M55.1,170.22a29.05,29.05,0,0,0-3.33-10.38h0A29.09,29.09,0,0,1,55.1,170.22Z" style="fill:#cc823f"/><path d="M495.82,170.42c-8.5,1.38-17.61,2.57-27.47,3.45h0C478.21,173,487.35,171.8,495.82,170.42Z" style="fill:none"/><path d="M495.82,190.67c-8.18.93-16.72,1.76-25.68,2.48h0C479.14,192.43,487.64,191.6,495.82,190.67Z" style="fill:none"/><path d="M495.82,162c-8.61,1.66-17.87,3.13-28,4.22h0C477.92,165.13,487.18,163.66,495.82,162Z" style="fill:none"/><path d="M495.82,166.3c-8.55,1.52-17.75,2.84-27.75,3.81h0C478.07,169.11,487.27,167.82,495.82,166.3Z" style="fill:none"/><path d="M495.82,174.42c-8.44,1.27-17.47,2.35-27.17,3.16h0c9.7-.81,18.73-1.89,27.16-3.16Z" style="fill:none"/><path d="M495.82,186.22c-8.26,1-16.94,1.91-26.12,2.68h0c9.17-.77,17.85-1.67,26.11-2.68Z" style="fill:none"/><path d="M469,181.33h0l3.6-.32Z" style="fill:none"/><path d="M469.34,185.18h0l.76-.07Z" style="fill:none"/><path d="M495.82,162c-8.61,1.66-17.87,3.13-28,4.22v1.08s.06,1,.19,2.83c10-1,19.2-2.29,27.75-3.81Z" style="fill:#e2a66e"/><path d="M495.82,159.77a1.51,1.51,0,0,0-1-1.4l-1.29-.49c-8.07,1.62-16.66,3.07-25.93,4.18v.56l.18,3.56c10.1-1.09,19.36-2.55,28-4.22Z" style="fill:#ba7b46"/><path d="M495.82,182.24v-4c-7.31,1.07-15,2-23.24,2.76l-3.6.32q.16,1.82.36,3.85l.76-.07C479.2,184.35,487.75,183.37,495.82,182.24Z" style="fill:#63422c"/><path d="M495.82,178.24v-3.81c-8.44,1.27-17.46,2.35-27.16,3.16q.15,1.74.33,3.74l3.6-.32C480.78,180.26,488.5,179.32,495.82,178.24Z" style="fill:#7f512b"/><path d="M472.58,181c8.2-.75,15.92-1.69,23.24-2.76h0C488.5,179.32,480.78,180.26,472.58,181Z" style="fill:#7f512b"/><path d="M495.82,170.43c-8.5,1.38-17.61,2.57-27.47,3.45q.13,1.65.3,3.69c9.7-.81,18.73-1.89,27.17-3.16Z" style="fill:#a0663a"/><path d="M495.82,166.3c-8.55,1.52-17.75,2.84-27.75,3.81.07,1,.16,2.26.28,3.76,9.86-.88,19-2.07,27.47-3.45Z" style="fill:#ba7b46"/><path d="M472.19,196.53h.37l21.93-2.27a1.5,1.5,0,0,0,1.35-1.49v-2.12c-8.18.93-16.72,1.76-25.68,2.48l.37,3.51Z" style="fill:#e2a66e"/><path d="M495.82,186.25c-8.26,1-16.94,1.91-26.11,2.68q.2,2,.43,4.22c9-.72,17.51-1.55,25.68-2.48Z" style="fill:#a0663a"/><path d="M495.82,182.26c-8.07,1.12-16.61,2.1-25.72,2.86l-.76.07q.17,1.78.36,3.72c9.17-.77,17.85-1.67,26.12-2.68Z" style="fill:#7f512b"/><path d="M470.1,185.12c9.11-.76,17.65-1.74,25.72-2.86h0C487.75,183.37,479.2,184.35,470.1,185.12Z" style="fill:#7f512b"/><path d="M214.36,167.74q-.15,2.63-.31,5.25h0Q214.2,170.37,214.36,167.74Z" style="fill:none"/><path d="M391.08,443.4c.15,1.25.32,2.5.47,3.75C391.39,445.9,391.23,444.65,391.08,443.4Z" style="fill:#b7743c"/><path d="M417.51,168.91c13.72,90.26,17.65,179.27,35.28,267.09h0C435.16,348.19,431.23,259.18,417.51,168.91Z" style="fill:none"/><path d="M179.64,171.47h0c-4.77,51.19-8,101.77-11.26,152.6-2.73,39.58-5.28,79.37-10.23,119.44h0c5-40.07,7.5-79.86,10.23-119.44C171.67,273.24,174.88,222.66,179.64,171.47Z" style="fill:none"/><path d="M470.41,433.38c-19.2-86.17-24.37-175.1-39.81-265.62h0C446,258.27,451.21,347.2,470.41,433.38Z" style="fill:none"/><path d="M443.44,166.47c17.3,90.87,23.91,179.72,44.73,264.06h0C467.35,346.18,460.74,257.34,443.44,166.47Z" style="fill:none"/><path d="M175.46,445h0c2.2-21.08,3.83-42,5.2-62.87C179.28,403,177.66,423.93,175.46,445Z" style="fill:none"/><path d="M200.46,172.48h0c-3.6,50.58-6,100.69-8.45,151.24C194.44,273.16,196.86,223.05,200.46,172.48Z" style="fill:none"/><path d="M449.76,165.77c14,69.9,21.65,138.45,34.21,204.23C471.41,304.23,463.78,235.68,449.76,165.77Z" style="fill:none"/><path d="M118.83,166.74h0c-5.41,31.87-9.55,63.37-13.44,94.48C109.28,230.11,113.42,198.6,118.83,166.74Z" style="fill:none"/><path d="M131.86,168C118,259.89,114.16,349.24,96.6,436.15h0C114.16,349.23,118,259.88,131.87,168Z" style="fill:none"/><path d="M382.61,349.34q-1-13.81-1.9-27.56c-3.24-50.17-6.48-99.8-11.17-149.78h0c4.68,50,7.93,99.61,11.17,149.79Q381.67,335.53,382.61,349.34Z" style="fill:none"/><path d="M371.85,305.08l1.06,18c1.28,20.07,2.49,40.26,4,60.59-1.49-20.33-2.7-40.51-4-60.58Q372.38,314.06,371.85,305.08Z" style="fill:none"/><path d="M355.66,172.61h0c3.46,43.92,6,87.6,8.36,131.7C361.64,260.21,359.13,216.53,355.66,172.61Z" style="fill:none"/><path d="M151.84,169.67c-11.44,91.46-13.81,181-29,270h0c15.17-89,17.54-178.53,29-270Z" style="fill:none"/><path d="M165.41,170.62c-9.92,91.26-11.55,180.85-25.12,271.07h0C153.86,351.46,155.48,261.88,165.41,170.62Z" style="fill:none"/><path d="M112.4,166C95.82,258.45,90.12,347.55,70.14,432h0C90.14,347.52,95.82,258.42,112.4,166Z" style="fill:none"/><path d="M242.41,173.75c-2.67,90.64-2.64,180.19-6.79,275h0C239.77,354,239.73,264.43,242.41,173.75Z" style="fill:none"/><path d="M46,380.23h0c13.57-59.52,22.2-122.9,35.43-189C68.22,257.35,59.58,320.72,46,380.23Z" style="fill:none"/><path d="M299.57,174c2.06,90.2,2,179.51,5.26,274.73h0C301.59,353.51,301.63,264.2,299.57,174Z" style="fill:none"/><path d="M256.67,174c-1.48,90.52-1.43,180-3.75,275.1h0C255.23,354,255.19,264.52,256.67,174Z" style="fill:none"/><path d="M235.29,173.6C232,264.29,232,353.88,227,448.42h0c5.06-94.54,5-184.13,8.32-274.82Z" style="fill:none"/><path d="M313.83,173.81c3.26,90.12,3.25,179.39,8.32,274.33h0C317.07,353.2,317.09,263.93,313.83,173.81Z" style="fill:none"/><path d="M462.16,164.25c16.37,73.77,25.48,145.63,40.62,213.19v-.07C487.64,309.83,478.53,238,462.16,164.25Z" style="fill:none"/><path d="M437,167.13C453.41,257.81,459.27,346.7,479.28,432h0c-20-85.28-25.87-174.17-42.23-264.84Z" style="fill:none"/><path d="M373.74,445h0c-1.58-15.15-2.87-30.21-4-45.18C370.88,414.75,372.16,429.81,373.74,445Z" style="fill:none"/><path d="M376.45,171.65h0c5,49.68,8.55,99,12,148.77,3,40.29,5.8,81,11.27,122.12h0c-5.47-41.13-8.23-81.82-11.28-122.11C385,270.64,381.48,221.33,376.45,171.65Z" style="fill:none"/><path d="M390.14,170.86h0c5.75,49.07,9.8,97.71,13.87,146.66,3.6,40.76,6.85,81.82,13.17,123.09h0c-6.32-41.27-9.58-82.34-13.17-123.1C400,268.57,395.89,219.93,390.14,170.86Z" style="fill:none"/><path d="M261.58,449.15h0c1.35-92.53,1.36-179.61,2.17-267.46C262.94,269.55,262.93,356.62,261.58,449.15Z" style="fill:none"/><path d="M334.68,173.33h0c3,51.27,4.93,102.26,6.9,154.1,1.63,39.16,3.12,78.82,6.22,119.4h0c-3.1-40.58-4.59-80.24-6.22-119.4C339.6,275.59,337.62,224.6,334.68,173.33Z" style="fill:none"/><path d="M278.13,174.1h0q.11,32.54.17,65Q278.23,206.59,278.13,174.1Z" style="fill:none"/><path d="M461.59,434.72h0q-2.24-10.6-4.23-21.24Q459.35,424.11,461.59,434.72Z" style="fill:none"/><path d="M328,173.5c4.48,90,4.58,179.3,11.46,273.81h0C332.57,352.8,332.46,263.54,328,173.5Z" style="fill:none"/><path d="M93.54,163.69C74.44,254.77,66.3,341.51,45,421.48h0c21.36-80,29.49-166.72,48.6-257.8Z" style="fill:none"/><path d="M207,172.74c-5.79,90.89-6.09,180.56-14.68,273.77h0c8.59-93.21,8.89-182.88,14.68-273.77Z" style="fill:none"/><path d="M403.69,170h0c6.47,48.43,11.1,96.38,15.75,144.43,4.2,41.26,8,82.71,15.23,124.06h0c-7.2-41.35-11-82.8-15.23-124.07C414.79,266.34,410.16,218.4,403.69,170Z" style="fill:none"/><path d="M106,165.3C88.5,258,82.06,347,61.24,430.58h0C82.06,347,88.5,258,106,165.3Z" style="fill:none"/><path d="M378,398.31q-.47-5.91-.91-11.79Q377.54,392.41,378,398.31Z" style="fill:none"/><path d="M369.19,391.6q.26,3.78.54,7.56Q369.45,395.38,369.19,391.6Z" style="fill:none"/><path d="M214.05,173c-5.15,90.85-5.34,180.52-13.06,274.13h0C208.71,353.52,208.9,263.85,214.05,173Z" style="fill:none"/><path d="M158.61,170.16l-6.76-.49c-11.44,91.46-13.81,181-29,270q4.26.52,8.71,1C146,351.08,147.93,261.52,158.61,170.16Z" style="fill:#e9ccad"/><path d="M158.61,170.16c-10.67,91.36-12.65,180.91-27,270.55l8.7,1c13.57-90.23,15.19-179.81,25.12-271.07Z" style="fill:#ebc49a"/><path d="M131.58,440.71h0c14.37-89.64,16.35-179.19,27-270.55h0C147.93,261.52,146,351.08,131.58,440.71Z" style="fill:#ebc49a"/><path d="M160.58,322.82c3.57-50.47,7-100.79,12.16-151.74l-7.34-.45c-9.92,91.26-11.54,180.85-25.12,271.07l9.17,1C154.82,402.55,157.6,362.59,160.58,322.82Z" style="fill:#e9ccad"/><path d="M179.62,171.47l-6.87-.39c-5.13,51-8.59,101.27-12.16,151.75-3,39.77-5.76,79.73-11.12,119.84l8.65.85c5-40.07,7.51-79.86,10.23-119.44C171.66,273.24,174.86,222.65,179.62,171.47Z" style="fill:#e9ccad"/><path d="M160.58,322.82c-3,39.78-5.76,79.73-11.12,119.84h0c5.35-40.11,8.14-80.07,11.12-119.84,3.57-50.48,7-100.79,12.16-151.75h0C167.62,222,164.15,272.34,160.58,322.82Z" style="fill:#e9ccad"/><path d="M125.31,167.39c-14.76,92-19.14,181.32-37.49,267.46l8.78,1.3C114.16,349.24,118,259.89,131.86,168Z" style="fill:#cc823f"/><path d="M138.47,168.6l-6.61-.59C118,259.88,114.16,349.23,96.61,436.16c2.8.4,5.73.82,8.77,1.23C122.14,349.73,125.42,260.32,138.47,168.6Z" style="fill:#d39451"/><path d="M138.48,168.6c-13.05,91.72-16.33,181.13-33.1,268.79l8.74,1.17c16-88.35,18.77-177.82,31-269.4Z" style="fill:#e2a66e"/><path d="M138.47,168.6c-13.05,91.71-16.34,181.13-33.1,268.79h0C122.13,349.74,125.37,260.32,138.47,168.6Z" style="fill:#e2a66e"/><path d="M145.14,169.16c-12.23,91.58-15,181.06-31,269.41l8.73,1.11c15.17-89,17.54-178.53,29-270Z" style="fill:#e1b177"/><path d="M114.12,438.56h0c16-88.35,18.78-177.82,31-269.41h0C132.9,260.74,130.09,350.21,114.12,438.56Z" style="fill:#e1b177"/><path d="M99.76,164.52C81.24,257.41,74,346.22,52.4,428.77a18,18,0,0,0,4.69,1.15c.57.06,2,.3,4.15.66C82.06,347,88.5,258,106,165.3Z" style="fill:#b7743c"/><path d="M106,165.3C88.5,258,82.06,347,61.24,430.58l1.38.23.37.06,7.15,1.19c20-84.48,25.68-173.58,42.26-266Z" style="fill:#d39451"/><path d="M105.39,261.21c3.89-31.11,8-62.61,13.44-94.48l-6.43-.7C95.82,258.48,90.12,347.58,70.14,432L79,433.46C91.53,377.64,98,320.14,105.39,261.21Z" style="fill:#cc823f"/><path d="M79,433.49q4.1.65,8.82,1.36c18.35-86.15,22.73-175.43,37.49-267.46l-6.48-.66c-5.41,31.87-9.55,63.37-13.44,94.48C98,320.14,91.53,377.64,79,433.49Z" style="fill:#b7743c"/><path d="M87.82,434.86h0c18.35-86.15,22.73-175.43,37.49-267.46h0C110.55,259.43,106.17,348.71,87.82,434.86Z" style="fill:#b7743c"/><path d="M79,433.49h0c12.54-55.85,19-113.35,26.39-172.28C98,320.14,91.53,377.64,79,433.49Z" style="fill:#b7743c"/><path d="M77.88,161.4l-.16,2.1a2,2,0,0,0,.38,1.32l.43.58-.42.59a2,2,0,0,0-.38,1.06c0,.19-.39,6.57-1.45,17.66q2.44-11.34,5.09-22.81Z" style="fill:#dc9d5d"/><path d="M87.41,162.82l-4.09-.62-1.94-.28q-2.65,11.46-5.09,22.81A1066.11,1066.11,0,0,1,59.08,297.86C52,331.7,48.15,360.28,46,380.23c13.56-59.51,22.2-122.87,35.43-189Q84.28,177.12,87.41,162.82Z" style="fill:#dc9d5d"/><path d="M76.29,184.72h0q2.44-11.35,5.09-22.81h0Q78.72,173.37,76.29,184.72Z" style="fill:#dc9d5d"/><path d="M87.41,162.82q-3.15,14.31-6,28.45c-13.23,66.1-21.86,129.48-35.43,189-2,18.44-2.42,29.48-2.46,30.45a21.58,21.58,0,0,0,1.39,10.77c21.35-80,29.49-166.72,48.6-257.79Z" style="fill:#cc823f"/><path d="M81.45,191.27q2.83-14.15,6-28.45h0Q84.26,177.13,81.45,191.27Z" style="fill:#cc823f"/><path d="M52.39,428.76C74,346.22,81.24,257.41,99.75,164.52l-6.2-.82C74.44,254.78,66.31,341.53,45,421.5a14.4,14.4,0,0,0,1.69,2.9A13.35,13.35,0,0,0,52.39,428.76Z" style="fill:#c0763f"/><path d="M52.39,428.76h0C74,346.22,81.24,257.41,99.76,164.52h0C81.24,257.41,74,346.22,52.39,428.76Z" style="fill:#c0763f"/><path d="M263.82,174q0,3.83-.07,7.66c-.81,87.85-.82,174.93-2.17,267.46h8.63c.46-95.3.45-184.7.75-275.1Z" style="fill:#e1b177"/><path d="M270.23,449.18h8.65c-.35-72.44-.43-141.44-.58-210q-.07-32.52-.17-65H271C270.68,264.48,270.69,353.89,270.23,449.18Z" style="fill:#d39451"/><path d="M271,174.08c-.29,90.4-.28,179.81-.75,275.1h0c.46-95.3.45-184.7.75-275.1Z" style="fill:#d39451"/><path d="M278.88,449.16q4.33,0,8.65-.09c-1.39-95.33-1.36-184.68-2.25-275h-7.15q.11,32.54.17,65C278.45,307.71,278.52,376.71,278.88,449.16Z" style="fill:#d39451"/><path d="M278.88,449.16h0c-.35-72.44-.43-141.44-.58-210C278.44,307.71,278.52,376.71,278.88,449.16Z" style="fill:#d39451"/><path d="M285.28,174.09c.88,90.3.85,179.64,2.25,275l8.65-.14c-2.32-95.29-2.28-184.62-3.75-274.86Z" style="fill:#cc823f"/><path d="M285.27,174.09c.88,90.3.86,179.64,2.25,275h0C286.13,353.76,286.16,264.41,285.27,174.09Z" style="fill:#cc823f"/><path d="M235.29,173.6C232,264.29,232,353.88,227,448.42l8.65.28c4.15-94.76,4.11-184.32,6.79-275Z" style="fill:#e2a66e"/><path d="M249.53,173.87l-7.12-.12c-2.67,90.64-2.64,180.19-6.79,275q4.23.12,8.65.21C247.5,354,247.46,264.44,249.53,173.87Z" style="fill:#e1b177"/><path d="M249.54,173.87c-2.07,90.58-2,180.09-5.26,275q4.23.09,8.65.15c2.31-95.1,2.27-184.58,3.75-275.1Z" style="fill:#e1b177"/><path d="M244.27,448.91h0c3.23-95,3.19-184.47,5.26-275h0C247.46,264.44,247.5,354,244.27,448.91Z" style="fill:#e1b177"/><path d="M263.75,181.69q0-3.83.07-7.66l-7.15-.07c-1.48,90.52-1.44,180-3.75,275.1q4.25.06,8.65.09C262.93,356.62,262.94,269.55,263.75,181.69Z" style="fill:#e2a66e"/><path d="M263.82,174q0,3.83-.07,7.66Q263.75,177.83,263.82,174Z" style="fill:#e2a66e"/><path d="M214.05,173l-7-.26c-5.79,90.89-6.09,180.56-14.68,273.77q4,.32,8.66.62C208.72,353.51,208.9,263.85,214.05,173Z" style="fill:#e2a66e"/><path d="M214.05,173c-5.15,90.85-5.34,180.52-13.06,274.13q4.12.27,8.66.52c6.84-94,6.94-183.62,11.46-274.42Z" style="fill:#dc9d5d"/><path d="M221.11,173.22c-4.52,90.8-4.62,180.46-11.46,274.42q4.16.23,8.66.43c6-94.27,6-183.9,9.88-274.65Z" style="fill:#d39451"/><path d="M221.11,173.22c-4.52,90.8-4.62,180.46-11.46,274.42h0C216.49,353.64,216.59,264,221.11,173.22Z" style="fill:#d39451"/><path d="M228.19,173.42c-3.89,90.75-3.93,180.38-9.88,274.65q4.19.19,8.65.35c5.06-94.54,5-184.13,8.32-274.82Z" style="fill:#e2a66e"/><path d="M218.31,448.07h0c6-94.27,6-183.9,9.88-274.65h0C224.3,264.17,224.26,353.8,218.31,448.07Z" style="fill:#e2a66e"/><path d="M176.18,325.26c3-51.17,6-102,10.38-153.42l-6.91-.36c-4.77,51.19-8,101.77-11.26,152.61-2.73,39.57-5.28,79.37-10.23,119.44q4.27.4,8.66.78C171.36,404.28,173.69,364.64,176.18,325.26Z" style="fill:#e1b177"/><path d="M180.73,381.13v-.08c1.2-18.31,2.21-36.54,3.26-54.71,2.76-51.49,5.45-102.57,9.5-154.17l-6.94-.34c-4.4,51.4-7.35,102.25-10.37,153.42-2.49,39.38-4.82,79-9.37,119l8.65.72c2.2-21.08,3.83-42,5.2-62.87Z" style="fill:#e2a66e"/><path d="M186.55,171.83h0c-4.4,51.41-7.35,102.25-10.37,153.42-2.49,39.38-4.81,79-9.37,119h0c4.56-40,6.89-79.66,9.37-119C179.2,274.08,182.15,223.24,186.55,171.83Z" style="fill:#e2a66e"/><path d="M184,326.35q-1.5,27.26-3.26,54.71v.08l-.07,1c-1.38,20.85-3,41.8-5.2,62.87l4.46.35,4.17.43c3.8-40,5.7-79.36,7.73-118.44l.18-3.63c2.44-50.56,4.85-100.66,8.45-151.24l-7-.31C189.45,223.77,186.75,274.85,184,326.35Z" style="fill:#e2a66e"/><path d="M180.73,381c1.2-18.31,2.22-36.54,3.26-54.71,2.76-51.49,5.45-102.57,9.5-154.18h0c-4,51.6-6.74,102.68-9.5,154.17C182.95,344.51,181.93,362.74,180.73,381Z" style="fill:#e2a66e"/><path d="M180.73,381.13l-.07,1Z" style="fill:#e2a66e"/><path d="M200.46,172.48c-3.6,50.58-6,100.68-8.46,151.24l-.18,3.63c-2,39.08-3.93,78.48-7.73,118.44q3.74.36,8.23.72c8.59-93.21,8.89-182.88,14.68-273.77Z" style="fill:#e1b177"/><path d="M184.1,445.79h0c3.8-40,5.7-79.36,7.73-118.44l.18-3.63-.18,3.63C189.79,366.43,187.89,405.83,184.1,445.79Z" style="fill:#e1b177"/><path d="M396.27,319c-3.78-49.37-7.57-98.35-13-147.73l-6.86.38c5,49.68,8.55,99,12,148.77,3,40.29,5.8,81,11.28,122.11l8.7-.93C402.58,400.4,399.58,359.52,396.27,319Z" style="fill:#a0663a"/><path d="M390.14,170.87l-6.82.41c5.39,49.38,9.17,98.36,13,147.73,3.31,40.52,6.32,81.39,12.21,122.6l8.71-1c-6.32-41.26-9.58-82.33-13.17-123.09C399.94,268.58,395.89,219.93,390.14,170.87Z" style="fill:#7f512b"/><path d="M396.27,319c3.31,40.52,6.31,81.4,12.21,122.6h0c-5.89-41.2-8.9-82.08-12.21-122.6-3.79-49.37-7.57-98.35-13-147.73h0C388.7,220.65,392.48,269.63,396.27,319Z" style="fill:#7f512b"/><path d="M411.74,316c-4.36-48.51-8.7-96.8-14.8-145.55l-6.79.43c5.75,49.07,9.8,97.7,13.87,146.65,3.59,40.76,6.85,81.83,13.17,123.1l8.74-1C419.17,398.25,415.63,357,411.74,316Z" style="fill:#63422c"/><path d="M403.69,170l-6.75.46c6.11,48.75,10.45,97,14.8,145.56,3.89,41,7.43,82.26,14.18,123.58l8.74-1.1c-7.2-41.36-11-82.8-15.23-124.06C414.79,266.34,410.16,218.4,403.69,170Z" style="fill:#5b3a2a"/><path d="M411.74,316c3.89,41,7.43,82.27,14.18,123.58h0C419.17,398.25,415.63,357,411.74,316c-4.36-48.51-8.7-96.8-14.8-145.56h0C403,219.18,407.38,267.48,411.74,316Z" style="fill:#5b3a2a"/><path d="M369.73,399.16q-.28-3.78-.54-7.56c-1.58-22.62-2.8-45-4.09-67.33q-.53-10-1.07-20c-2.38-44.1-4.9-87.78-8.36-131.7l-7,.27c3.64,50.8,6.11,101.29,8.58,152.54,2.07,39.48,4,79.47,7.82,120.24q4.37-.33,8.66-.69c-1.58-15.16-2.87-30.21-4-45.18Z" style="fill:#dc9d5d"/><path d="M378,398.31q-.47-5.91-.91-11.79-.11-1.43-.21-2.86c-1.49-20.33-2.7-40.52-4-60.59l-1.06-18c-2.64-44.43-5.41-88.47-9.23-132.76l-7,.29c3.46,43.92,6,87.6,8.36,131.7q.54,10,1.07,20c1.29,22.27,2.51,44.7,4.09,67.32q.26,3.78.54,7.56v.62c1.1,15,2.39,30,4,45.18q4.38-.36,8.66-.75Q379.84,421.13,378,398.31Z" style="fill:#cc823f"/><path d="M369.19,391.6c-1.58-22.62-2.8-45-4.09-67.32q-.53-10-1.07-20,.54,10,1.07,20C366.39,346.55,367.61,369,369.19,391.6Z" style="fill:#cc823f"/><path d="M371.85,305.08l1.06,18c1.28,20.07,2.49,40.26,4,60.58q.1,1.43.21,2.86.44,5.89.91,11.79c1.22,15.22,2.64,30.52,4.39,45.9l8.67-.81c-3.91-31.66-6.3-63-8.47-94.07q-1-13.81-1.9-27.55C377.47,271.61,374.23,222,369.55,172l-6.93.32C366.44,216.61,369.21,260.64,371.85,305.08Z" style="fill:#ba7b46"/><path d="M377.11,386.52q-.11-1.43-.21-2.86Q377,385.08,377.11,386.52Z" style="fill:#ba7b46"/><path d="M362.62,172.32c3.82,44.29,6.59,88.33,9.23,132.76-2.64-44.43-5.41-88.47-9.23-132.76Z" style="fill:#ba7b46"/><path d="M382.41,444.22h0c-1.75-15.39-3.17-30.69-4.39-45.9C379.24,413.53,380.66,428.83,382.41,444.22Z" style="fill:#ba7b46"/><path d="M376.45,171.65l-6.9.35c4.68,50,7.93,99.61,11.17,149.78q1,13.74,1.9,27.56c2.17,31.07,4.56,62.41,8.47,94.07l8.69-.87c-5.47-41.13-8.23-81.82-11.27-122.12C385,270.64,381.48,221.33,376.45,171.65Z" style="fill:#b7743c"/><path d="M391.08,443.4c-3.9-31.66-6.3-63-8.47-94.07C384.78,380.4,387.17,411.74,391.08,443.4Z" style="fill:#b7743c"/><path d="M321,173.67c3.87,90.08,3.9,179.34,9.88,274.08l8.66-.43c-6.89-94.51-7-183.77-11.46-273.81Z" style="fill:#e2a66e"/><path d="M334.67,173.33l-6.64.18c4.48,90,4.58,179.3,11.46,273.81l8.3-.48c-3.1-40.58-4.59-80.25-6.22-119.4C339.6,275.59,337.62,224.6,334.67,173.33Z" style="fill:#e2a66e"/><path d="M349.43,326.47c-2.22-51.56-4.45-102.31-7.74-153.35l-7,.21c3,51.28,4.93,102.26,6.9,154.11,1.63,39.15,3.12,78.82,6.22,119.4l8.64-.56C353,405.59,351.27,365.78,349.43,326.47Z" style="fill:#dc9d5d"/><path d="M348.69,172.87l-7,.24c3.29,51,5.52,101.79,7.74,153.35,1.84,39.31,3.53,79.13,7,119.8l4.39-.3,4.26-.32c-3.87-40.77-5.75-80.75-7.82-120.23C354.8,274.17,352.32,223.68,348.69,172.87Z" style="fill:#e2a66e"/><path d="M357.26,325.42c2.07,39.48,4,79.46,7.82,120.23h0c-3.87-40.78-5.75-80.76-7.82-120.24-2.46-51.25-4.94-101.74-8.58-152.54h0C352.32,223.68,354.8,274.17,357.26,325.42Z" style="fill:#e2a66e"/><path d="M341.69,173.11h0c3.29,51,5.52,101.79,7.74,153.35,1.84,39.31,3.53,79.13,7,119.8h0c-3.48-40.67-5.16-80.49-7-119.8C347.21,274.91,345,224.16,341.69,173.11Z" style="fill:#e2a66e"/><path d="M292.43,174.06c1.47,90.25,1.43,179.57,3.75,274.86,2.89-.06,5.77-.12,8.65-.2-3.24-95.22-3.2-184.53-5.26-274.73Z" style="fill:#cc823f"/><path d="M296.17,448.92h0c-2.32-95.29-2.28-184.62-3.75-274.86h0C293.9,264.31,293.86,353.63,296.17,448.92Z" style="fill:#cc823f"/><path d="M306.7,173.92l-7.13.09c2.06,90.2,2,179.51,5.26,274.73q4.34-.12,8.65-.27C309.33,353.36,309.37,264.07,306.7,173.92Z" style="fill:#d39451"/><path d="M306.71,173.92c2.66,90.16,2.62,179.44,6.78,274.54q4.34-.15,8.66-.33c-5.08-94.94-5.06-184.21-8.32-274.33Z" style="fill:#e2a66e"/><path d="M313.49,448.46h0c-4.16-95.1-4.12-184.39-6.78-274.54h0C309.37,264.07,309.33,353.36,313.49,448.46Z" style="fill:#e2a66e"/><path d="M320.94,173.67l-7.1.14c3.26,90.12,3.25,179.39,8.32,274.33l8.66-.38C324.84,353,324.81,263.74,320.94,173.67Z" style="fill:#e1b177"/><path d="M330.82,447.75h0c-6-94.74-6-184-9.88-274.08h0C324.81,263.74,324.84,353,330.82,447.75Z" style="fill:#e1b177"/><path d="M456,165c18.79,89,27.09,175.54,48.34,256a21.94,21.94,0,0,0,1.2-10.44c0-1-.54-13.07-2.76-33.19C487.64,309.88,478.53,238,462.16,164.25Z" style="fill:#ba7b46"/><path d="M472.65,182.95q-2.12-9.73-4.4-19.51l-2,.26-4.14.55c16.37,73.75,25.48,145.58,40.61,213.12-2.19-19.76-6-47.23-12.74-79.5A1064.63,1064.63,0,0,1,472.65,182.95Z" style="fill:#ba7b46"/><path d="M471.37,167.07a2,2,0,0,0-.11-.52l-.11-.32.11-.32a2,2,0,0,0,.1-.78l-.16-2.1-3,.39q2.28,9.78,4.4,19.5C471.72,172.95,471.38,167.24,471.37,167.07Z" style="fill:#cc823f"/><path d="M472.65,182.95h0q-2.12-9.72-4.4-19.5h0Q470.53,173.22,472.65,182.95Z" style="fill:#cc823f"/><path d="M430.6,167.76c15.45,90.52,20.61,179.45,39.81,265.62q5-.77,8.87-1.4c-20-85.28-25.87-174.17-42.23-264.84Z" style="fill:#63422c"/><path d="M437.06,167.13C453.41,257.81,459.28,346.7,479.28,432l6.79-1.1h.11l2-.32c-20.82-84.34-27.43-173.19-44.73-264.06Z" style="fill:#5b3a2a"/><path d="M497,428.65c-5-19.27-9.23-38.84-13-58.66-12.57-65.77-20.19-134.32-34.21-204.23l-6.31.7c17.3,90.87,23.91,179.71,44.73,264.06,1.93-.32,3.31-.53,3.84-.6A17.76,17.76,0,0,0,497,428.65Z" style="fill:#5b3a2a"/><path d="M449.76,165.77c14,69.9,21.65,138.45,34.21,204.23,3.79,19.82,8,39.38,13,58.66a13.3,13.3,0,0,0,5.48-4.24,14.57,14.57,0,0,0,1.87-3.33C483.09,340.58,474.78,254,456,165Z" style="fill:#a0663a"/><path d="M504.33,421.08h0c-21.24-80.5-29.54-167-48.34-256h0C474.78,254,483.09,340.58,504.33,421.08Z" style="fill:#a0663a"/><path d="M497,428.65h0c-5-19.27-9.23-38.84-13-58.66C487.75,389.81,492,409.38,497,428.65Z" style="fill:#a0663a"/><path d="M427.12,312.76c-5-47.58-9.89-95.17-16.72-143.28l-6.71.49c6.47,48.43,11.1,96.37,15.75,144.42,4.2,41.27,8,82.71,15.23,124.07l8.77-1.16C435.78,395.92,431.65,354.29,427.12,312.76Z" style="fill:#5b3a2a"/><path d="M410.4,169.47c6.83,48.11,11.76,95.69,16.72,143.27,4.53,41.54,8.66,83.17,16.33,124.55q4.88-.66,9.34-1.3c-17.63-87.81-21.57-176.82-35.28-267.09Z" style="fill:#7f512b"/><path d="M427.12,312.76c4.53,41.53,8.66,83.16,16.32,124.54h0c-7.66-41.38-11.79-83-16.33-124.55-5-47.59-9.89-95.16-16.72-143.27h0C417.23,217.59,422.16,265.17,427.12,312.76Z" style="fill:#7f512b"/><path d="M424.08,168.35l-6.57.56c13.72,90.26,17.65,179.27,35.28,267.09l8.8-1.28q-2.24-10.6-4.23-21.24C442.38,333.24,437.46,251.39,424.08,168.35Z" style="fill:#a0663a"/><path d="M430.6,167.76l-6.51.59c13.38,83,18.29,164.89,33.28,245.13q2,10.64,4.23,21.24l8.82-1.34C451.21,347.2,446,258.27,430.6,167.76Z" style="fill:#7f512b"/><path d="M457.37,413.47c-15-80.24-19.9-162.09-33.28-245.13h0C437.46,251.39,442.38,333.24,457.37,413.47Z" style="fill:#7f512b"/><path d="M297,94.81a3,3,0,0,1-3-2.69c-1.78-17-.22-28,4.63-32.76a7.37,7.37,0,0,1,5.86-2.4l-.71,6a.68.68,0,0,0,.23,0,2.57,2.57,0,0,0-1.47,1c-1.46,1.74-4.63,7.9-2.57,27.53a3,3,0,0,1-2.67,3.3H297" style="fill:#5b3a2a"/><path d="M78.91,162.76a3,3,0,0,1-.58-.06l-15.85-3.13a3,3,0,0,1-2.42-2.94V123.37a3,3,0,0,1,3-3h.26L83,122a3,3,0,1,1-.5,6l-16.43-1.36v27.53l13.43,2.65a3,3,0,0,1-.58,5.94" style="fill:#5b3a2a"/><path d="M76.63,198.06h-.31l-21.85-2.27a3,3,0,0,1-2.69-3v-33A3,3,0,0,1,53.71,157L62,153.83a3,3,0,1,1,2.29,5.55l-.17.06-6.33,2.39v28.25l19.16,2a3,3,0,1,1-.31,6" style="fill:#5b3a2a"/><path d="M270.21,450.18c-42,0-74.59-2.09-90.4-3.83-55.4-4.17-100.15-11.67-117-14.5-3-.5-5.15-.86-5.84-.94-4.85-.56-8.59-2.55-11.14-5.91-4.23-5.59-3.46-13-3.28-14.42.12-3.13,2.06-48.13,15.54-112.92C73.34,224.34,76.71,167.56,76.74,167a3,3,0,0,1,6,.34c0,.57-3.41,57.76-18.76,131.54-13.8,66.36-15.4,111.61-15.42,112.06a3,3,0,0,1,0,.38s-.9,6.1,2.13,10.08a9.74,9.74,0,0,0,7,3.55c.83.1,2.83.43,6.14,1,16.78,2.81,61.37,10.29,116.52,14.43h.1c25.75,2.84,96.51,6.61,180,.59,58.82-4.24,108.48-12.37,124.8-15l6.17-1c3.2-.37,5.5-1.54,7-3.57,3-4,2.12-10,2.11-10a3,3,0,0,1,0-.38c0-.45-1.63-45.76-15.42-112.06-15.34-73.79-18.73-131-18.76-131.54a3,3,0,1,1,6-.34c0,.56,3.39,57.34,18.64,130.66,13.47,64.79,15.41,109.79,15.53,112.92.19,1.37,1,8.83-3.28,14.42-2.54,3.36-6.29,5.35-11.14,5.91-.69.08-2.87.44-5.89.93C469.85,434.54,420,442.71,360.9,447c-32.83,2.37-63.7,3.23-90.68,3.23" style="fill:#5b3a2a"/><path d="M279.92,179.1c-78.51,0-151.66-4.55-200.68-12.48a3,3,0,0,1-2.51-3.18l3-40.28a3,3,0,0,1,3.21-2.77h.26c49.45,8,119.31,12.41,196.72,12.41,71,0,137-3.83,186-10.79a3,3,0,0,1,3.39,2.55v.2l3,40.28a3,3,0,0,1-2.57,3.19C421.24,175.15,352,179.1,279.92,179.1m-197-18c48.68,7.62,120.23,12,197,12,70.48,0,138.12-3.78,186.24-10.4l-2.55-34.28c-48.93,6.71-114,10.4-183.69,10.4-76.06,0-144.91-4.25-194.45-12L82.92,161.1" style="fill:#5b3a2a"/><path d="M466.37,128a3,3,0,0,1-.67-.08l-154.19-35c-30.07,5.3-49.31,1-53.28,0L83.29,126.33a3,3,0,0,1-1.13-5.89L257.8,86.88a3,3,0,0,1,1.42.07c.19.06,19.83,5.67,51.84-.08a3,3,0,0,1,1.2,0L467,122.09a3,3,0,0,1-.66,5.93" style="fill:#5b3a2a"/><path d="M470.18,162.76a3,3,0,0,1-.58-5.94l13.4-2.65V126.64L466.61,128a3,3,0,0,1-.5-6l19.68-1.63a3,3,0,0,1,3.24,2.74h0q0,.13,0,.26v33.26a3,3,0,0,1-2.42,2.94l-15.85,3.13a3.06,3.06,0,0,1-.58.06" style="fill:#5b3a2a"/><path d="M472.46,198.06a3,3,0,0,1-.3-6l19.16-2V161.84L485,159.45a3,3,0,0,1,1.74-5.74l.21.07.17.06,8.27,3.13a3,3,0,0,1,1.94,2.81v33a3,3,0,0,1-2.69,3L472.77,198h-.31" style="fill:#5b3a2a"/><path d="M308,59a10,10,0,0,0-7.24-2.83,216.36,216.36,0,0,0-30,0,15.24,15.24,0,0,0-11.77,6c-7.36,9.63-3.71,27.51-3.56,28.27a3,3,0,0,0,2.93,2.39h0a3,3,0,0,0,2.94-3.62c-.92-4.41-2.29-17.2,2.45-23.39a9.37,9.37,0,0,1,7.35-3.65c18.25-1.07,29.19,0,29.3,0a3,3,0,0,0,.76,0,4.2,4.2,0,0,1,2.75,1.29c.16.15.33.31.5.5l6.41-1.29A15.13,15.13,0,0,0,308,59Z" style="fill:#5b3a2a"/><path d="M308.38,75.2a78.45,78.45,0,0,1,.21,14.42,3,3,0,0,0,6,.38,83.7,83.7,0,0,0-.29-15.74Z" style="fill:#5b3a2a"/><path d="M274.51,280l-7.15,13.65,7.16,13.65,7.13-13.65L274.51,280" style="fill:#fff"/><path d="M274.51,280l7.15,13.65-7.13,13.65-7.16-13.65L274.51,280m0-3a3,3,0,0,0-2.66,1.61l-7.15,13.65a3,3,0,0,0,0,2.78l7.16,13.65a3,3,0,0,0,2.66,1.61h0a3,3,0,0,0,2.66-1.61L284.31,295a3,3,0,0,0,0-2.78l-7.15-13.65A3,3,0,0,0,274.5,277Z" style="fill:#5b3a2a"/><path d="M274.51,310.55l-7.15,13.65,7.16,13.65,7.13-13.65-7.15-13.65" style="fill:#fff"/><path d="M274.51,310.55l7.15,13.65-7.13,13.65-7.16-13.65,7.15-13.65m0-3a3,3,0,0,0-2.66,1.61l-7.15,13.65a3,3,0,0,0,0,2.78l7.16,13.65a3,3,0,0,0,2.66,1.61h0a3,3,0,0,0,2.66-1.61l7.13-13.65a3,3,0,0,0,0-2.78l-7.15-13.65a3,3,0,0,0-2.66-1.61Z" style="fill:#5b3a2a"/><path d="M274.51,250.56l-7.15,13.65,7.16,13.65,7.13-13.65-7.15-13.65" style="fill:#fff"/><path d="M274.51,250.56l7.15,13.65-7.13,13.65-7.16-13.65,7.15-13.65m0-3a3,3,0,0,0-2.66,1.61l-7.15,13.65a3,3,0,0,0,0,2.78l7.16,13.65a3,3,0,0,0,2.66,1.61h0a3,3,0,0,0,2.66-1.61l7.13-13.65a3,3,0,0,0,0-2.78l-7.15-13.65a3,3,0,0,0-2.66-1.61Z" style="fill:#5b3a2a"/><path d="M274.51,217.51l-7.15,13.65,7.16,13.65,7.13-13.65-7.15-13.65" style="fill:#fff"/><path d="M274.51,217.51l7.15,13.65-7.13,13.65-7.16-13.65,7.15-13.65m0-3a3,3,0,0,0-2.66,1.61l-7.15,13.65a3,3,0,0,0,0,2.79l7.16,13.65a3,3,0,0,0,2.66,1.61h0a3,3,0,0,0,2.66-1.61l7.13-13.65a3,3,0,0,0,0-2.78l-7.15-13.65a3,3,0,0,0-2.66-1.61Z" style="fill:#5b3a2a"/><path d="M274.51,187.45l-7.15,13.65,7.16,13.65,7.13-13.65-7.15-13.65" style="fill:#fff"/><path d="M274.51,187.45l7.15,13.65-7.13,13.65-7.16-13.65,7.15-13.65m0-3a3,3,0,0,0-2.66,1.61l-7.15,13.65a3,3,0,0,0,0,2.79l7.16,13.65a3,3,0,0,0,2.66,1.61h0a3,3,0,0,0,2.66-1.61l7.13-13.65a3,3,0,0,0,0-2.78l-7.15-13.65a3,3,0,0,0-2.66-1.61Z" style="fill:#5b3a2a"/><path d="M214.81,248.18l13.65,7.15,13.65-7.16L228.46,241l-13.65,7.15" style="fill:#fff"/><path d="M228.46,241l13.65,7.13-13.65,7.16-13.65-7.15L228.46,241m0-3a3,3,0,0,0-1.39.34l-13.65,7.15a3,3,0,0,0,0,5.32L227.06,258a3,3,0,0,0,2.79,0l13.65-7.16a3,3,0,0,0,0-5.32l-13.65-7.13A3,3,0,0,0,228.46,238Z" style="fill:#5b3a2a"/><path d="M244.87,248.18l13.65,7.15,13.65-7.16L258.52,241l-13.65,7.15" style="fill:#fff"/><path d="M258.52,241l13.65,7.13-13.65,7.16-13.65-7.15L258.52,241m0-3a3,3,0,0,0-1.39.34l-13.65,7.15a3,3,0,0,0,0,5.32L257.12,258a3,3,0,0,0,2.79,0l13.65-7.16a3,3,0,0,0,0-5.32l-13.65-7.13A3,3,0,0,0,258.52,238Z" style="fill:#5b3a2a"/><path d="M334.22,248.18l-13.65,7.15-13.65-7.16L320.57,241l13.65,7.15" style="fill:#fff"/><path d="M320.57,241l13.65,7.15-13.65,7.15-13.65-7.16L320.57,241m0-3a3,3,0,0,0-1.39.34l-13.65,7.13a3,3,0,0,0,0,5.32L319.17,258a3,3,0,0,0,2.79,0l13.65-7.15a3,3,0,0,0,0-5.32L322,238.37a3,3,0,0,0-1.39-.34Z" style="fill:#5b3a2a"/><path d="M304.16,248.18l-13.65,7.15-13.65-7.16L290.51,241l13.65,7.15" style="fill:#fff"/><path d="M290.51,241l13.65,7.15-13.65,7.15-13.65-7.16L290.51,241m0-3a3,3,0,0,0-1.39.34l-13.65,7.13a3,3,0,0,0,0,5.32L289.11,258a3,3,0,0,0,2.79,0l13.65-7.15a3,3,0,0,0,0-5.32l-13.65-7.15a3,3,0,0,0-1.39-.34Z" style="fill:#5b3a2a"/><path d="M274.51,341.3l-7.15,13.65,7.16,13.65,7.13-13.65L274.5,341.3" style="fill:#fff"/><path d="M274.51,341.3l7.15,13.65-7.13,13.65-7.16-13.65,7.15-13.65m0-3a3,3,0,0,0-2.66,1.61l-7.15,13.65a3,3,0,0,0,0,2.78L271.86,370a3,3,0,0,0,2.66,1.61h0a3,3,0,0,0,2.66-1.61l7.13-13.65a3,3,0,0,0,0-2.78l-7.15-13.65a3,3,0,0,0-2.66-1.61Z" style="fill:#5b3a2a"/><path d="M80.15,165.21S257.22,196,468.76,178.42l-1.36-11.49s-192.3,23.88-387.25-1.72" style="fill:#5b3a2a;opacity:0.5;isolation:isolate"/><path d="M469.79,166.7l-171.86,9.78-124.12-3.29-91.15-8L53.17,343l-7.36,76.45,9.66,8.61,108.94,13.49,129.35,5,114.84-6.34,85.3-13,8.49-6.22,1.75-8.82L502.36,388l-3.9-33-12.87-68.73L477.38,235Z" style="opacity:0.5;isolation:isolate;fill:url(#b)"/></svg>