<svg xmlns="http://www.w3.org/2000/svg" viewBox="0 0 572 635"><title>Tonga</title><path d="M514,124c18.16,29.91,11.57,27.09,12,41.58.5,17,26.5,39.5,27.5,54.5S550.67,326,564,362.67s-25.33,102-27,127.33c-74-66.5-42.81-124.58-41.67-175.33-4-58-10.33-73.17-36.83-105.67Z" style="fill:red;stroke:#000;stroke-miterlimit:3.8636999130249023"/><path d="M59.1,124c-18.16,29.91-11.57,27.09-12,41.58-.5,17-26.5,39.5-27.5,54.5S22.44,326,9.1,362.67s25.33,102,27,127.33c74-66.5,42.81-124.58,41.67-175.33,4-58,10.33-73.17,36.83-105.67Z" style="fill:red;stroke:#000;stroke-miterlimit:3.8636999130249023"/><path d="M286.55,372.91V594c-16-45-154.95-5.5-151.95-109.5-57,41-89.18-13.58-69.5-60,9.12-21.51,36-32.5,52.5-51.59Z" style="fill:#0c419a;stroke:#000;stroke-miterlimit:3.8636999130249023"/><path d="M286.55,372.91V594c16-45,155-5.5,152-109.5,57,41,89.18-13.58,69.5-60-9.12-21.51-36-32.5-52.5-51.59Z" style="fill:#ffe600;stroke:#000;stroke-miterlimit:3.8636999130249023"/><path d="M455.5,372.91h-169V186.5a16.19,16.19,0,0,0,12,12.5C321,180.5,404,235.5,428,235.5c12.77-.14,24-24.21,27-29.5,9.5,18.5,4.06,37.1,14,54,11.12,18.9,28.5,26.5,29.25,54.25C473,299.5,423.5,295.5,455.5,372.91Z" style="fill:red;stroke:#000;stroke-miterlimit:3.8636999130249023"/><path d="M117.6,372.91H286.55V186.5a16.19,16.19,0,0,1-12,12.5c-22.5-18.5-105.5,36.5-129.5,36.5-12.76-.14-24-24.21-27-29.5-9.5,18.5-4.06,37.1-14,54C93,278.9,75.6,286.5,74.85,314.25,100.1,299.5,149.6,295.5,117.6,372.91Z" style="fill:#ffe600;stroke:#000;stroke-miterlimit:3.8636999130249023"/><path d="M151.25,457s1.9,3.2,3.88,2.88c2.25-.38,6-1.38,9.88.88a6.2,6.2,0,0,1-7.75,3c1.5,2.88,2.88,5.75,9.75,6.5-.5,2.12-3.88,1.12-5.5,3,3.88.62,7,.62,7.75,5.5-1.12.88-3.62.12-7-2.25,2,3.88,5.62,5.5,4,12.62-3.12-5.5-4-2-4.75-8.12-1,4.5,2.62,9-3.5,14.5-4.38-9.62,3.75-9.62,1.75-17.5-.12,1.25-3,7.12-6,8.12-.5-7.75,8.25-8.62,4.75-16.12a9.23,9.23,0,0,1-4.88,7c-1.5-5,6-8.38.62-12.5.62,1.88-.5,5.25-2.88,7.12-2.25-3.75.93-8.21,1.12-9.38.25-1.5-.75-2.38-2.5-4.5A5.84,5.84,0,0,1,151.25,457Z" style="fill:#008837;stroke:#000;stroke-miterlimit:3.8636999130249023"/><path d="M220.75,472.5s33,.75,31.75,4.25c-1,2.76-16.5-1-34-1.5,16,1.5,33,1.25,31.25,4.75-1.5,3-32-3.5-32-3.5S250,480.25,247,483s-29.5-4.75-29.5-4.75,28.5,5.5,25.75,7.75-26-6-26-6,24.5,6.25,21.25,8c-3.76,2-21.75-6.5-21.75-6.5s21,6.75,16.75,8.5c-3.83,1.58-17.5-7.25-17.5-7.25s16.5,7.5,12,9c-2.55.85-13.75-7.25-13.75-7.25,1.75,2,9.25,3.5,5.75,5.75-2.27,1.46-10.75-1.25-10.75-1.25Z" style="fill:#fff;stroke:#000;stroke-miterlimit:3.8636999130249023"/><path d="M183.75,469.5c-.75-12.25-5.75-15-4.75-20.25s8.64-12,27-17.5c5-1.5,12.3-5.17,13-2C219.5,432,189,478,189,478Z" style="fill:#fff;stroke:#000;stroke-miterlimit:3.8636999130249023"/><path d="M161.75,469.5,166,466s1.49-4.14,5.25-4a22.23,22.23,0,0,1,16.5,8.75c-.75-12.25-5.75-15-4.75-20.25s8.25-13.5,27-17.5c18.17-3.88,18.8-6.67,19.5-3.5.5,2.25-30.75,14.25-30.75,14.25l8.5,28.5c8.75,1,19.25-2.75,19.25-2.75l-7,7.25s0,5.5-1.75,6.75-2.75,4.75-7.75,5.75a29.66,29.66,0,0,1,7.75,2.25s-2,2.5-8,1.25c-2.94-.61-15.79,6.25-22,3-10.5-5.5-11-16.75-19-23.75A24.44,24.44,0,0,0,161.75,469.5Z" style="fill:#fff;stroke:#000;stroke-miterlimit:3.8636999130249023"/><path d="M191.5,472.5c-.75-12.25-5.75-15-4.75-20.25s8.25-13.5,27-17.5c18.17-3.88,24.05-5.92,24.75-2.75.5,2.25-14.75,3-29.75,9.25,16.75-7.5,23.25-6,23.25-4s-21.25,7.25-21.25,7.25,17.75-4.5,17.5-2.25-20,7.25-20,7.25,16.5-5.25,16.25-2.5c-.29,3.24-17.75,6.75-17.75,6.75S220,449,219.5,452c-.5,2.75-12,6.5-12,6.5s9.5-4.75,7-.5c-1.3,2.22-8,3.5-8,3.5s3.75.75,4,2-3,3.5-3,3.5,3.5-1,1.5,3a19.93,19.93,0,0,1-4,5.75Z" style="fill:#fff;stroke:#000;stroke-miterlimit:3.8636999130249023"/><ellipse cx="171.5" cy="466.75" rx="2" ry="1" style="stroke:#000;stroke-miterlimit:3.8636999130249023"/><polygon points="419.19 499.57 412 487.13 403.95 494.57 400.27 489.32 408.67 484.24 351.17 400.56 350.47 395.83 354.68 398.11 413.65 480.76 421.29 474.6 424.97 479.85 415.23 484.88 424.45 495.89 419.19 499.57" style="fill:#fff;stroke:#000;stroke-miterlimit:3.8636999130249023"/><polygon points="342.96 495.77 352.18 484.77 342.43 479.74 346.11 474.48 353.76 480.65 412.73 397.99 416.93 395.71 416.23 400.45 358.73 484.13 367.14 489.21 363.46 494.46 355.4 487.02 348.21 499.45 342.96 495.77" style="fill:#fff;stroke:#000;stroke-miterlimit:3.8636999130249023"/><polygon points="380.94 507.56 382.18 493.25 371.31 494.73 371.31 488.31 381.11 488.97 382.01 387.45 384.15 383.17 386.29 387.45 387.18 488.97 396.98 488.31 396.98 494.73 386.11 493.25 387.36 507.56 380.94 507.56" style="fill:#fff;stroke:#000;stroke-miterlimit:3.8636999130249023"/><polygon points="187.49 291.42 194.59 279.11 187.49 266.7 201.76 266.67 208.83 254.42 215.93 266.73 230.21 266.75 223.08 279.05 230.21 291.36 215.92 291.43 208.83 303.7 201.69 291.32 187.49 291.42" style="fill:#fff;stroke:#000;stroke-miterlimit:3.8636999130249023"/><polygon points="152.97 339.34 160.07 327.03 152.97 314.62 167.25 314.59 174.31 302.34 181.41 314.66 195.69 314.68 188.57 326.97 195.69 339.28 181.41 339.36 174.31 351.62 167.17 339.24 152.97 339.34" style="fill:#fff;stroke:#000;stroke-miterlimit:3.8636999130249023"/><polygon points="119.49 291.42 126.59 279.11 119.49 266.7 133.76 266.67 140.83 254.42 147.93 266.73 162.21 266.75 155.08 279.05 162.21 291.36 147.92 291.43 140.83 303.7 133.69 291.32 119.49 291.42" style="fill:#fff;stroke:#000;stroke-miterlimit:3.8636999130249023"/><path d="M480.5,312c-5,3-8.5,16.37,5.25,16.75,9,.25,12.66-8.75,12.5-14.5C498,305.5,490.5,299.18,473,299.5c-27,.5-38.51,23-37.75,43.5.5,13.5,11.55,36.72,24.75,51.5,16.75,18.75,26,31.09,27,56,4.5-4,11.75-9.75,10.75-19,3,3.5,11.2,17,10.75,29-.75,20-14,31.25-31,31.5-30.25.44-32-11-29.5-17.25,4,7.25,15.5,6,15.5-3,0-7.5-5.23-12.5-12.25-12.5-9.5,0-18.19,11-12.75,25.25,7,18.25,25.25,19.76,37.25,20.25,18.5.75,46.25-15.25,49.5-48.25,1.67-17-1.5-32.25-14.75-46,9.25,1,29.62-10.25,29.25-28-.25-12-8-19.5-15.75-19.25-18.53.6-14.25,24,2,20.25-4,7.5-15.5,14.5-20.5,14.5s-15.25-2.25-22.5-7.5c6-3.75,13.75-12.5,14.25-15.25A53.08,53.08,0,0,1,467,372c7.25-3,14.5-11.5,14.5-11.5a28,28,0,0,1-28.5-25C450,304.75,480.5,312,480.5,312Z" style="fill:#cca208;stroke:#000;stroke-miterlimit:3.8636999130249023"/><path d="M92.6,312c5,3,8.5,16.37-5.25,16.75-9,.25-12.66-8.75-12.5-14.5.25-8.75,7.75-15.07,25.25-14.75,27,.5,38.51,23,37.75,43.5-.5,13.5-11.55,36.72-24.75,51.5-16.75,18.75-26,31.09-27,56-4.5-4-11.75-9.75-10.75-19-3,3.5-11.2,17-10.75,29,.75,20,14,31.25,31,31.5,30.25.44,32-11,29.5-17.25-4,7.25-15.5,6-15.5-3,0-7.5,5.23-12.5,12.25-12.5,9.5,0,18.2,11,12.75,25.25-7,18.25-25.25,19.76-37.25,20.25-18.5.75-46.25-15.25-49.5-48.25-1.67-17,1.5-32.25,14.75-46-9.25,1-29.62-10.25-29.25-28,.25-12,8-19.5,15.75-19.25,18.53.6,14.25,24-2,20.25,4,7.5,15.5,14.5,20.5,14.5s15.25-2.25,22.5-7.5c-6-3.75-13.75-12.5-14.25-15.25A53.08,53.08,0,0,0,106.1,372c-7.25-3-14.5-11.5-14.5-11.5a28,28,0,0,0,28.5-25C123.1,304.75,92.6,312,92.6,312Z" style="fill:#cca208;stroke:#000;stroke-miterlimit:3.8636999130249023"/><path d="M438.5,484.5C435.75,474.26,426,465,426,465c5.25,19.25,20.25,30-5.75,66.5,3-16.75-13.75-29.75-26.5-19C377.67,526.06,400,541.75,409,526c2.25,15.75-32.5,28.5-53,32s-69.45,3.23-69.45,36c0,22.5,12.7,25.5,23.45,23,26.12-6.07,2.25-43.5-5.5-13-6.24.69-9.48-8.34-6.25-15.75,2.6-6,9.34-10.25,22.25-12.25C352,571.11,460.5,566.25,438.5,484.5Z" style="fill:#cca208;stroke:#000;stroke-miterlimit:3.8636999130249023"/><path d="M134.6,484.5c2.76-10.24,12.5-19.5,12.5-19.5-5.25,19.25-20.25,30,5.75,66.5-3-16.75,13.75-29.75,26.5-19,16.08,13.56-6.25,29.25-15.25,13.5-2.25,15.75,32.5,28.5,53,32s69.45,3.23,69.45,36c0,22.5-12.7,25.5-23.45,23-26.12-6.07-2.25-43.5,5.5-13,6.24.69,9.49-8.34,6.25-15.75-2.6-6-9.34-10.25-22.25-12.25C221.09,571.11,112.6,566.25,134.6,484.5Z" style="fill:#cca208;stroke:#000;stroke-miterlimit:3.8636999130249023"/><path d="M383,598c9.49,18,87.5-2.25,105.25-110.25-10.5-.25-29.25-1-29.25-1-6.25,72.25-47,81-55.75,83.25C391.3,573.07,380.5,593.25,383,598Z" style="fill:#fff;stroke:#000;stroke-miterlimit:3.8636999130249023"/><path d="M190.1,598c-9.49,18-87.5-2.25-105.25-110.25,10.5-.25,29.25-1,29.25-1,6.25,72.25,47,81,55.75,83.25C181.81,573.07,192.6,593.25,190.1,598Z" style="fill:#fff;stroke:#000;stroke-miterlimit:3.8636999130249023"/><path d="M398.5,594.25c-3.28,5.29-7.25-1.25-15.5,3.75-3.5-9.75.75-16.5,6.5-21S402.5,587.8,398.5,594.25Z" style="fill:#fff;stroke:#000;stroke-miterlimit:3.8636999130249023"/><path d="M174.6,594.25c3.28,5.29,7.25-1.25,15.5,3.75,3.5-9.75-.75-16.5-6.5-21S170.6,587.8,174.6,594.25Z" style="fill:#fff;stroke:#000;stroke-miterlimit:3.8636999130249023"/><path d="M354.75,538.75c8.25,10.75,46.25,15.5,52,26-.25,7.5-8.25,29.5-8.25,29.5-.25-12-37.25-12.25-61-33-4-3.49-27.75-18.25-51-18.25s-47,14.76-50.95,18.25c-23.75,20.75-60.75,21-61,33,0,0-8-22-8.25-29.5,5.75-10.5,43.75-15.25,52-26,4.49-5.85,38.25-24.75,68.2-24.5S350.26,532.89,354.75,538.75Z" style="fill:#fff;stroke:#000;stroke-miterlimit:3.8636999130249023"/><path d="M465.72,526.3l-6.7-.24,5.09,4.43Zm-9,0,.78-2,15.26.28-.76,2-4.53-.18-2,5.3,3.46,3-.71,1.86Z" style="stroke:#000;stroke-miterlimit:3.8636999130249023"/><path d="M452.09,530.66s3.21,6.27,5,4.87a1.52,1.52,0,0,0-1.16-2.79C454.75,533.31,452.09,530.66,452.09,530.66Z" style="stroke:#000;stroke-miterlimit:3.8636999130249023"/><rect x="455.64" y="536.14" width="1.96" height="14.35" transform="translate(-234.8 703.4) rotate(-62.99)" style="stroke:#000;stroke-miterlimit:3.8636999130249023"/><polygon points="442.98 551.98 448.4 543.63 449.88 544.59 445.52 551.3 449.17 553.67 453 547.77 454.44 548.7 450.6 554.61 456.07 558.16 455.02 559.79 442.98 551.98" style="stroke:#000;stroke-miterlimit:3.8636999130249023"/><path d="M442,556.58a8,8,0,0,1,4.65,2,8.49,8.49,0,0,1,3,4.68,7.24,7.24,0,0,1-6.61,8.37,8.32,8.32,0,0,1-5.17-2.13,8.56,8.56,0,0,1-2.89-4.31,6.29,6.29,0,0,1,1.49-5.91A6.59,6.59,0,0,1,442,556.58Zm3.4,3.59a6,6,0,0,0-4-1.6,4.51,4.51,0,0,0-3.5,1.78,4.72,4.72,0,0,0-1.16,3.77,6.45,6.45,0,0,0,2.54,4,6.65,6.65,0,0,0,3.85,1.67,4.59,4.59,0,0,0,3.77-2,4,4,0,0,0,1-4A8,8,0,0,0,445.37,560.17Z" style="stroke:#000;stroke-miterlimit:3.8636999130249023"/><polygon points="431.76 565.12 432.86 566.43 429.15 569.54 437.28 579.22 435.77 580.49 427.64 570.81 423.94 573.91 422.84 572.6 431.76 565.12" style="stroke:#000;stroke-miterlimit:3.8636999130249023"/><path d="M386.22,560.91,383,569.19a5.34,5.34,0,0,0-.39,2.64,3.1,3.1,0,0,0,2.18,2.51,3.44,3.44,0,0,0,3.74-.37,5.43,5.43,0,0,0,1.33-2.14l3.18-8.28,1.84.71L392,571.78a9.53,9.53,0,0,1-2.12,3.55c-1.43,1.3-3.27,1.52-5.54.65s-3.48-2.26-3.67-4.19a9.6,9.6,0,0,1,.79-4.06l2.89-7.52Z" style="stroke:#000;stroke-miterlimit:3.8636999130249023"/><polygon points="371.1 555.09 372.86 555.8 370.24 562.28 379.34 558.42 381.83 559.42 374.13 562.55 376.61 572.79 374.27 571.84 372.31 563.29 369.36 564.46 367.49 569.1 365.73 568.39 371.1 555.09" style="stroke:#000;stroke-miterlimit:3.8636999130249023"/><path d="M367.55,556.25a7.91,7.91,0,0,1-1.29,4.91,8.53,8.53,0,0,1-4.15,3.74,7.26,7.26,0,0,1-9.31-5.23,8.32,8.32,0,0,1,1.3-5.44,8.48,8.48,0,0,1,3.8-3.52,6.28,6.28,0,0,1,6.07.55A6.56,6.56,0,0,1,367.55,556.25Zm-3,3.91a6,6,0,0,0,1-4.17,4.53,4.53,0,0,0-2.3-3.18,4.73,4.73,0,0,0-3.9-.56,6.39,6.39,0,0,0-3.52,3.14,6.62,6.62,0,0,0-1,4.07,4.55,4.55,0,0,0,2.52,3.41,4,4,0,0,0,4.13.34A8.21,8.21,0,0,0,364.54,560.16Z" style="stroke:#000;stroke-miterlimit:3.8636999130249023"/><polygon points="345.54 540.07 347.22 541.08 344.17 546.16 350.57 550.01 353.62 544.93 355.3 545.94 347.91 558.23 346.23 557.22 349.68 551.47 343.29 547.63 339.83 553.38 338.15 552.37 345.54 540.07" style="stroke:#000;stroke-miterlimit:3.8636999130249023"/><path d="M331,535a8,8,0,0,1-.59,5,8.47,8.47,0,0,1-3.59,4.28,7.25,7.25,0,0,1-9.94-3.88,8.37,8.37,0,0,1,.53-5.57,8.53,8.53,0,0,1,3.28-4,6.27,6.27,0,0,1,6.09-.3A6.59,6.59,0,0,1,331,535Zm-2.44,4.29A6,6,0,0,0,329,535a4.53,4.53,0,0,0-2.72-2.83,4.68,4.68,0,0,0-3.94,0,6.42,6.42,0,0,0-3,3.59,6.68,6.68,0,0,0-.47,4.17,4.56,4.56,0,0,0,3,3,4,4,0,0,0,4.13-.24A7.87,7.87,0,0,0,328.6,539.3Z" style="stroke:#000;stroke-miterlimit:3.8636999130249023"/><polygon points="305.54 523.88 307.36 524.4 305.43 531.12 314.08 526.32 316.66 527.06 309.33 530.98 312.87 540.9 310.43 540.2 307.59 531.9 304.78 533.38 303.4 538.19 301.58 537.66 305.54 523.88" style="stroke:#000;stroke-miterlimit:3.8636999130249023"/><path d="M285.92,530.17l-2.4-6.26-2.09,6.42Zm-3.49-8.35,2.2-.08,5.7,14.15-2.13.07-1.6-4.24-5.67.2-1.4,4.35-2,.07Z" style="stroke:#000;stroke-miterlimit:3.8636999130249023"/><path d="M268.62,524a5.1,5.1,0,0,1,3.49,3.19l-1.87.47a3.49,3.49,0,0,0-2-1.87,5.08,5.08,0,0,0-2.88,0,4.38,4.38,0,0,0-2.9,2.26,6.5,6.5,0,0,0-.24,4.65,7.21,7.21,0,0,0,2.1,3.78,4.19,4.19,0,0,0,3.94.67,4.71,4.71,0,0,0,2.85-1.87,4.76,4.76,0,0,0,.39-3.86l-4.36,1.09-.39-1.56,6.11-1.52,1.86,7.45-1.21.3-.9-1.68a7.26,7.26,0,0,1-1.33,1.88,6.68,6.68,0,0,1-3,1.49,6.34,6.34,0,0,1-4.65-.54,7.9,7.9,0,0,1-3.32-5,8.1,8.1,0,0,1,.51-6,6.21,6.21,0,0,1,4.17-3.13A7,7,0,0,1,268.62,524Z" style="stroke:#000;stroke-miterlimit:3.8636999130249023"/><polygon points="242.83 532.28 244.96 531.42 256.03 539.48 251.68 528.7 253.39 528.01 258.76 541.31 256.74 542.13 245.57 534.12 249.92 544.88 248.2 545.58 242.83 532.28" style="stroke:#000;stroke-miterlimit:3.8636999130249023"/><path d="M237.94,536.87a8,8,0,0,1,3.61,3.57,8.46,8.46,0,0,1,1.16,5.46,7.24,7.24,0,0,1-9.17,5.44,8.33,8.33,0,0,1-4.06-3.84,8.5,8.5,0,0,1-1.15-5.06,6.26,6.26,0,0,1,3.51-5A6.53,6.53,0,0,1,237.94,536.87Zm1.88,4.56a6,6,0,0,0-3.14-2.92,4.56,4.56,0,0,0-3.91.4,4.67,4.67,0,0,0-2.43,3.1,6.43,6.43,0,0,0,.95,4.62,6.74,6.74,0,0,0,3,2.94,4.58,4.58,0,0,0,4.22-.47,4,4,0,0,0,2.35-3.4A7.86,7.86,0,0,0,239.82,541.43Z" style="stroke:#000;stroke-miterlimit:3.8636999130249023"/><polygon points="223.55 542.58 224.46 544.03 220.36 546.59 227.06 557.3 225.38 558.35 218.69 547.63 214.59 550.2 213.68 548.75 223.55 542.58" style="stroke:#000;stroke-miterlimit:3.8636999130249023"/><path d="M206.14,555.46a8,8,0,0,1,3.15,4,8.5,8.5,0,0,1,.49,5.56,7.24,7.24,0,0,1-9.77,4.28,8.28,8.28,0,0,1-3.56-4.31,8.57,8.57,0,0,1-.53-5.16,6.27,6.27,0,0,1,4.09-4.52A6.57,6.57,0,0,1,206.14,555.46Zm1.31,4.75a6,6,0,0,0-2.76-3.28,4.56,4.56,0,0,0-3.93-.08,4.68,4.68,0,0,0-2.79,2.78,6.43,6.43,0,0,0,.38,4.7,6.59,6.59,0,0,0,2.62,3.28,4.55,4.55,0,0,0,4.24,0,4,4,0,0,0,2.75-3.09A7.74,7.74,0,0,0,207.45,560.21Z" style="stroke:#000;stroke-miterlimit:3.8636999130249023"/><path d="M178.08,564.15l2.6-1,8.19,9.85-.53-12.79,2.57-1,5.14,13.39-1.72.66-3-7.9c-.1-.27-.28-.72-.5-1.37s-.49-1.31-.76-2l.52,12.76-1.8.69-8.18-9.82.16.41c.13.33.32.82.6,1.48l.59,1.48,3,7.9-1.73.67Z" style="stroke:#000;stroke-miterlimit:3.8636999130249023"/><path d="M160.47,586.61l.59-6.68-4.69,4.85Zm.52-9,2,.89-1.08,15.22-1.95-.87.42-4.52L155.21,586,152,589.27l-1.82-.81Z" style="stroke:#000;stroke-miterlimit:3.8636999130249023"/><path d="M148.72,569.91l-5.21,7.17a5.19,5.19,0,0,0-1.05,2.45,3.11,3.11,0,0,0,1.45,3,3.46,3.46,0,0,0,3.71.61,5.57,5.57,0,0,0,1.84-1.72l5.21-7.17,1.6,1.16-4.73,6.52a9.4,9.4,0,0,1-3,2.88c-1.72.89-3.55.62-5.52-.8s-2.78-3.08-2.46-5a9.67,9.67,0,0,1,1.82-3.72l4.73-6.52Z" style="stroke:#000;stroke-miterlimit:3.8636999130249023"/><polygon points="146.35 568.22 145.17 569.45 141.69 566.09 132.91 575.18 131.49 573.81 140.27 564.72 136.79 561.36 137.98 560.13 146.35 568.22" style="stroke:#000;stroke-miterlimit:3.8636999130249023"/><path d="M135.2,560.06a8,8,0,0,1-2.89,4.18,8.43,8.43,0,0,1-5.18,2.09,7.25,7.25,0,0,1-7-8.09,9.27,9.27,0,0,1,7.86-6.68,6.27,6.27,0,0,1,5.52,2.59A6.56,6.56,0,0,1,135.2,560.06ZM131,562.71a6,6,0,0,0,2.33-3.59,4.55,4.55,0,0,0-1.08-3.78,4.74,4.74,0,0,0-3.48-1.86,6.42,6.42,0,0,0-4.38,1.74,6.65,6.65,0,0,0-2.37,3.47,4.56,4.56,0,0,0,1.2,4.07,4,4,0,0,0,3.76,1.73A8,8,0,0,0,131,562.71Z" style="stroke:#000;stroke-miterlimit:3.8636999130249023"/><path d="M130.5,547.25s-6.62-2.39-7-.12a1.52,1.52,0,0,0,2.75,1.25C126.75,547.13,130.5,547.25,130.5,547.25Z" style="stroke:#000;stroke-miterlimit:3.8636999130249023"/><polygon points="117.19 527.87 121.78 537.27 120.2 538.04 116.44 530.34 112.53 532.25 116 539.37 114.51 540.1 111.04 532.98 106.66 535.11 110.48 542.94 108.95 543.69 104.3 534.16 117.19 527.87" style="stroke:#000;stroke-miterlimit:3.8636999130249023"/><path d="M111,518a8,8,0,0,1-4.24,2.79,8.52,8.52,0,0,1-5.58,0,7.25,7.25,0,0,1-3.42-10.11,8.34,8.34,0,0,1,4.6-3.18,8.53,8.53,0,0,1,5.19-.07,6.27,6.27,0,0,1,4.14,4.47C112.43,514.37,112.21,516.4,111,518Zm-4.85.89a6,6,0,0,0,3.51-2.46,4.55,4.55,0,0,0,.42-3.91,4.68,4.68,0,0,0-2.53-3,6.43,6.43,0,0,0-4.72,0,6.7,6.7,0,0,0-3.5,2.33,4.57,4.57,0,0,0-.42,4.22,4,4,0,0,0,2.84,3A7.88,7.88,0,0,0,106.15,518.93Z" style="stroke:#000;stroke-miterlimit:3.8636999130249023"/><polygon points="106.6 493.37 106.99 495.23 100.15 496.68 108.45 502.07 109.01 504.69 102.11 500.06 95.01 507.84 94.48 505.36 100.48 498.96 97.85 497.17 92.96 498.21 92.57 496.36 106.6 493.37" style="stroke:#000;stroke-miterlimit:3.8636999130249023"/><path d="M286.55,622.8a3,3,0,1,1-3,3A2.95,2.95,0,0,1,286.55,622.8Z" style="stroke:#000;stroke-miterlimit:3.8636999130249023"/><path d="M293.25,624a22.79,22.79,0,0,1-5-6.75L292,618c-5.2-7.5-5.45-23.5-5.45-23.5s-.25,16-5.45,23.5l3.75-.75a22.79,22.79,0,0,1-5,6.75,51.07,51.07,0,0,1,6.7-1.5A51.07,51.07,0,0,1,293.25,624Z" style="stroke:#000;stroke-miterlimit:3.8636999130249023"/><path d="M340,18c2.5,18,9.5,24,30.5,32.5C367,33.5,360.5,23,340,18Z" style="fill:#008837;stroke:#000;stroke-miterlimit:3.8636999130249023"/><path d="M344.5,43.5c8,20.5,17.36,16.92,34,25.5C373.36,48.42,358.5,51.5,344.5,43.5Z" style="fill:#008837;stroke:#000;stroke-miterlimit:3.8636999130249023"/><path d="M355.26,63.56c1.27,22,16.06,24.13,29.24,37.44C383.5,69.5,366.1,75.5,355.26,63.56Z" style="fill:#008837;stroke:#000;stroke-miterlimit:3.8636999130249023"/><path d="M359.29,86c-4.29,30,9.79,31.8,18.21,48.53C384.5,107,365.92,100.67,359.29,86Z" style="fill:#008837;stroke:#000;stroke-miterlimit:3.8636999130249023"/><path d="M358.21,111.52c-11.88,18.52-3.55,22.47-.71,41C376,131.5,360,127.55,358.21,111.52Z" style="fill:#008837;stroke:#000;stroke-miterlimit:3.8636999130249023"/><path d="M348.8,132c-17,13.94-13.28,15.5-16.3,34C354,155.5,349.5,148,348.8,132Z" style="fill:#008837;stroke:#000;stroke-miterlimit:3.8636999130249023"/><path d="M331.55,147.45c-20.5,8-18.46,12.91-27,29.55C325.08,171.86,323.55,161.45,331.55,147.45Z" style="fill:#008837;stroke:#000;stroke-miterlimit:3.8636999130249023"/><path d="M374,29.5c11.5,11,12.51,25.27,6.5,43C369.9,54.12,372.5,44,374,29.5Z" style="fill:#008837;stroke:#000;stroke-miterlimit:3.8636999130249023"/><path d="M396.5,51.5c8,13.74-.83,32.11-11.5,47.5C379.88,78.41,388.5,64,396.5,51.5Z" style="fill:#008837;stroke:#000;stroke-miterlimit:3.8636999130249023"/><path d="M402.92,92.5c2.58,34-10.92,30.14-25.42,42C378.25,113.3,394,104,402.92,92.5Z" style="fill:#008837;stroke:#000"/><path d="M399.92,133.85C390.5,160.5,373.5,153,357,155.5,368,137.5,388.15,142.43,399.92,133.85Z" style="fill:#008837;stroke:#000;stroke-miterlimit:3.8636999130249023"/><path d="M375.62,162.11C348.5,180,348.07,165.63,329.5,168,346,156.5,363,161,375.62,162.11Z" style="fill:#008837;stroke:#000;stroke-miterlimit:3.8636999130249023"/><path d="M343.37,176.72c-11.87,8.78-20.36,3.12-38.87.28C320.76,163.37,334,173.5,343.37,176.72Z" style="fill:#008837;stroke:#000"/><path d="M363.5,39C432,149.5,333,170.5,293,179.5c-17.29,3.89-27.5,9-27.5,9l-2-4.5s12.3-3.71,26-7.5C322,167.5,426,151,363.5,39Z" style="fill:#008837;stroke:#000;stroke-miterlimit:3.8636999130249023"/><path d="M233.1,18c-2.5,18-9.5,24-30.5,32.5C206.1,33.5,212.6,23,233.1,18Z" style="fill:#008837;stroke:#000;stroke-miterlimit:3.8636999130249023"/><path d="M228.6,43.5c-8,20.5-17.36,16.92-34,25.5C199.74,48.42,214.6,51.5,228.6,43.5Z" style="fill:#008837;stroke:#000;stroke-miterlimit:3.8636999130249023"/><path d="M217.84,63.56c-1.27,22-16.06,24.13-29.24,37.44C189.6,69.5,207,75.5,217.84,63.56Z" style="fill:#008837;stroke:#000;stroke-miterlimit:3.8636999130249023"/><path d="M213.81,86c4.29,30-9.79,31.81-18.21,48.53C188.6,107,207.18,100.67,213.81,86Z" style="fill:#008837;stroke:#000;stroke-miterlimit:3.8636999130249023"/><path d="M214.89,111.52c11.88,18.52,3.55,22.47.71,41C197.1,131.5,213.14,127.55,214.89,111.52Z" style="fill:#008837;stroke:#000;stroke-miterlimit:3.8636999130249023"/><path d="M224.3,132c17,13.94,13.28,15.5,16.3,34C219.1,155.5,223.6,148,224.3,132Z" style="fill:#008837;stroke:#000;stroke-miterlimit:3.8636999130249023"/><path d="M241.55,147.45c20.5,8,18.46,12.91,27.05,29.55C248,171.86,249.55,161.45,241.55,147.45Z" style="fill:#008837;stroke:#000;stroke-miterlimit:3.8636999130249023"/><path d="M199.1,29.5c-11.5,11-12.51,25.27-6.5,43C203.2,54.12,200.6,44,199.1,29.5Z" style="fill:#008837;stroke:#000;stroke-miterlimit:3.8636999130249023"/><path d="M176.6,51.5c-8,13.74.84,32.11,11.5,47.5C193.23,78.41,184.6,64,176.6,51.5Z" style="fill:#008837;stroke:#000;stroke-miterlimit:3.8636999130249023"/><path d="M170.19,92.5c-2.58,34,10.92,30.14,25.42,42C194.85,113.3,179.14,104,170.19,92.5Z" style="fill:#008837;stroke:#000"/><path d="M173.18,133.85C182.6,160.5,199.6,153,216.1,155.5,205.1,137.5,185,142.43,173.18,133.85Z" style="fill:#008837;stroke:#000;stroke-miterlimit:3.8636999130249023"/><path d="M197.49,162.11C224.61,180,225,165.63,243.61,168,227.1,156.5,210.1,161,197.49,162.11Z" style="fill:#008837;stroke:#000;stroke-miterlimit:3.8636999130249023"/><path d="M229.73,176.72c11.87,8.78,20.36,3.12,38.87.28C252.35,163.37,239.1,173.5,229.73,176.72Z" style="fill:#008837;stroke:#000"/><path d="M209.6,39c-68.5,110.5,30.5,131.5,70.5,140.5,17.29,3.89,27.5,9,27.5,9l2-4.5s-12.3-3.71-26-7.5C251.1,167.5,147.1,151,209.6,39Z" style="fill:#008837;stroke:#000;stroke-miterlimit:3.8636999130249023"/><path d="M385.29,259.29c18.33,0,27.57,11.09,27.57,11.09l-55.75,2A37,37,0,0,1,385.29,259.29Z" style="fill:#fff"/><path d="M355.49,316.89s-2.67-.07-2.67,1.93,15.62,5.62,32.57,5.59,32.91-3.59,32.91-5.59-2.67-1.93-2.67-1.93" style="fill:#cca208;stroke:#000"/><path d="M353,312.19s0,4.63.37,5.26,9.06,5.06,32.11,5.08,31.88-4.45,32.28-5.08.37-5.26.37-5.26" style="fill:#cca208;stroke:#000"/><path d="M387,319.5a1.58,1.58,0,1,1-1.57-1.37A1.48,1.48,0,0,1,387,319.5Z"/><path d="M400.16,318.82a1.31,1.31,0,1,1-1.31-1.37A1.34,1.34,0,0,1,400.16,318.82Z"/><path d="M410.23,317.34a1.09,1.09,0,1,1-1.06-1.37A1.25,1.25,0,0,1,410.23,317.34Z"/><path d="M416.65,315.68c0,.76-.36,1.37-.8,1.37s-.8-.61-.8-1.37.36-1.37.8-1.37S416.65,314.93,416.65,315.68Z"/><path d="M370.73,318.82a1.31,1.31,0,1,0,1.31-1.37A1.34,1.34,0,0,0,370.73,318.82Z"/><path d="M360.66,317.34a1.09,1.09,0,1,0,1.06-1.37A1.25,1.25,0,0,0,360.66,317.34Z"/><path d="M354.24,315.68c0,.76.36,1.37.8,1.37s.8-.61.8-1.37-.36-1.37-.8-1.37S354.24,314.93,354.24,315.68Z"/><path d="M355.88,312.18l-9.26-37.72,9.39-5.39,29.46-.77,29.46.77,9.39,5.39-9.25,37.72a146.83,146.83,0,0,1-29.6,3.09A127.76,127.76,0,0,1,355.88,312.18Z" style="fill:#0c419a;stroke:#000"/><path d="M352.79,312.19a2.65,2.65,0,0,1,1-2,146.23,146.23,0,0,0,31.65,3.67,175.59,175.59,0,0,0,31.65-3.67s1.15.93,1,2c-.94.69-16.57,4.86-32.65,4.8S353.73,312.89,352.79,312.19Z" style="fill:#ffe600;stroke:#000;stroke-miterlimit:3.8636999130249023"/><polygon points="387.45 286.74 387.45 283.09 383.51 283.09 383.51 286.74 379.86 286.74 379.86 290.68 383.51 290.68 383.51 295.7 387.45 295.7 387.45 290.79 387.45 290.68 391.1 290.68 391.1 286.74 387.45 286.74" style="fill:red"/><polygon points="387.45 286.74 387.45 283.09 383.51 283.09 383.51 286.74 379.86 286.74 379.86 290.68 383.51 290.68 383.51 295.7 387.45 295.7 387.45 290.79 387.45 290.68 391.1 290.68 391.1 286.74 387.45 286.74" style="fill:none;stroke:#000"/><polygon points="357.1 286.74 357.1 283.09 354.29 283.09 354.29 286.74 352.28 286.74 352.28 290.68 354.29 290.68 354.29 295.01 357.1 295.01 357.1 290.79 357.1 290.68 360.3 290.68 360.3 286.74 357.1 286.74" style="fill:red"/><polygon points="357.1 286.74 357.1 283.09 354.29 283.09 354.29 286.74 352.28 286.74 352.28 290.68 354.29 290.68 354.29 295.01 357.1 295.01 357.1 290.79 357.1 290.68 360.3 290.68 360.3 286.74 357.1 286.74" style="fill:none;stroke:#000"/><polygon points="416.67 286.74 416.67 283.09 413.86 283.09 413.86 286.74 410.66 286.74 410.66 290.68 413.86 290.68 413.86 290.79 413.86 295.01 416.67 295.01 416.67 290.68 418.68 290.68 418.68 286.74 416.67 286.74" style="fill:red"/><polygon points="416.67 286.74 416.67 283.09 413.86 283.09 413.86 286.74 410.66 286.74 410.66 290.68 413.86 290.68 413.86 290.79 413.86 295.01 416.67 295.01 416.67 290.68 418.68 290.68 418.68 286.74 416.67 286.74" style="fill:none;stroke:#000"/><path d="M353.89,310.19l-8-34s-1.23-2.08,1.69-4,28.25-15,37.84-15,34.91,13.09,37.84,15,1.69,4,1.69,4l-8,34s-8.6,4.52-31.62,4.52S353.89,310.19,353.89,310.19Zm58.34-32.26c.77-2.08,0-3.08-2.77-7.39s-19-9.24-22.41-8.85c0,2.54,1.08,12.32,2.23,15.32s8.93,10.06,12.4,10.93C405.15,286.78,411.46,280,412.23,277.93Zm-43,10c3.47-.87,11.24-7.93,12.4-10.93s2.23-12.78,2.23-15.32c-3.39-.39-19.63,4.54-22.41,8.85s-3.54,5.31-2.77,7.39S365.81,286.78,369.28,287.94Zm19.66,25c-1.54-.51-3.49-3.7-3.49-3.7s-2,3.18-3.49,3.7Zm16.58-1.54a17.91,17.91,0,0,1-3.76-2.16s-2,2.5-3.49,3Zm-32.73.85c-1.54-.51-3.49-3-3.49-3a17.91,17.91,0,0,1-3.76,2.16Zm12.7-34.94c-.18,2.06-8.27,11.59-10.44,12.11,2.17.6,10.25,6.18,10.44,8.07.72-2.06,8.85-8.25,11.2-8.16C394.25,288.64,385.85,279.37,385.49,277.31Zm-30.61,0c-.18,2.06-2.91,11.07-5.08,11.59,2.17.6,4.52,6.7,4.7,8.58.72-2.06,7.82-8,10.16-7.93C362.22,288.87,355.24,279.37,354.88,277.31Zm1.15-6.7-6.7,4.23.92,5.7Zm47,29.16c2.17-1,4.7-2.15,6.49-.83,1.62,1.2,1.31,5.16.48,6.88s-3.57,2.12-3.57,2.12,1.66-4,.37-4.86-3.46.64-3.58,3c-.15,3.1,2.5,3.66,5.83,3.46,2.5-.15,5.26-2.81,5.36-8.54.12-6.91-13-10.53-13-10.53s-13.1,5.2-13,12.1c.1,5.71,2.86,8,5.36,7.89,3.33-.2,6-1.08,5.83-4.16-.12-2.38-1.67-3.71-3.34-2.56-1.83,1.25.12,4.78.12,4.78s-2.74-.07-3.57-1.69-1.15-5.54.48-6.94c1.79-1.54,3.54-1.18,5.6-.26-.91-3.31,2.5-8,2.5-8S404,296.92,403,299.77Zm-33.36-8.14s3.41,4.72,2.5,8c2-.91,3.81-1.27,5.59.26,1.62,1.4,1.31,5.32.48,6.94s-3.57,1.69-3.57,1.69,2-3.53.12-4.78c-1.67-1.15-3.22.19-3.34,2.56-.15,3.08,2.5,4,5.83,4.16,2.5.15,5.26-2.18,5.36-7.89.12-6.9-13-12.1-13-12.1s-13.1,3.61-13,10.53c.1,5.73,2.86,8.39,5.36,8.54,3.34.2,6-.36,5.83-3.46-.12-2.39-2.21-3.94-3.58-3s.37,4.86.37,4.86-2.74-.4-3.57-2.12-1.15-5.68.48-6.88c1.79-1.32,4.32-.2,6.49.83C367,296.92,369.65,291.63,369.65,291.63Zm36.65-2.08c2.35-.09,9.44,5.87,10.16,7.93.18-1.89,2.53-8,4.7-8.58-2.17-.52-4.9-9.53-5.08-11.59C415.72,279.37,408.74,288.87,406.3,289.55Zm14.4-9,.92-5.7-6.7-4.23Z" style="fill:#ffe600;stroke:#000"/><polygon points="386.99 242.97 386.99 238.89 383.97 238.89 383.97 242.97 381.24 242.97 381.24 245.9 383.97 245.9 383.97 253.03 386.99 253.03 386.99 245.9 389.45 245.9 389.45 242.97 386.99 242.97" style="fill:#ffe600"/><polygon points="386.99 242.97 386.99 238.89 383.97 238.89 383.97 242.97 381.24 242.97 381.24 245.9 383.97 245.9 383.97 253.03 386.99 253.03 386.99 245.9 389.45 245.9 389.45 242.97 386.99 242.97" style="fill:none;stroke:#000"/><path d="M389.62,254.11a4.14,4.14,0,1,1-4.14-4.14A4.14,4.14,0,0,1,389.62,254.11Z" style="fill:#ffe600;stroke:#000"/><path d="M381.8,258.1a1.55,1.55,0,1,1-1.55-1.55A1.54,1.54,0,0,1,381.8,258.1Z" style="fill:#ffe600;stroke:#000;stroke-miterlimit:3.8636999130249023"/><path d="M427.62,274.24a1.86,1.86,0,1,1-1.86-1.86A1.86,1.86,0,0,1,427.62,274.24Z" style="fill:#ffe600;stroke:#000;stroke-miterlimit:3.8636999130249023"/><path d="M423.91,271.68a1.55,1.55,0,1,1-1.55-1.55A1.54,1.54,0,0,1,423.91,271.68Z" style="fill:#ffe600;stroke:#000;stroke-miterlimit:3.8636999130249023"/><path d="M343.39,274.24a1.86,1.86,0,1,0,1.86-1.86A1.86,1.86,0,0,0,343.39,274.24Z" style="fill:#ffe600;stroke:#000;stroke-miterlimit:3.8636999130249023"/><path d="M347.09,271.68a1.55,1.55,0,1,0,1.55-1.55A1.54,1.54,0,0,0,347.09,271.68Z" style="fill:#ffe600;stroke:#000;stroke-miterlimit:3.8636999130249023"/><path d="M357,267.92a1.55,1.55,0,1,1-1.55-1.55A1.54,1.54,0,0,1,357,267.92Z" style="fill:#ffe600;stroke:#000;stroke-miterlimit:3.8636999130249023"/><path d="M360,266.38a1.55,1.55,0,1,1-1.55-1.55A1.54,1.54,0,0,1,360,266.38Z" style="fill:#ffe600;stroke:#000;stroke-miterlimit:3.8636999130249023"/><path d="M413.64,266.22a1.55,1.55,0,1,1-1.55-1.55A1.54,1.54,0,0,1,413.64,266.22Z" style="fill:#ffe600;stroke:#000;stroke-miterlimit:3.8636999130249023"/><path d="M363.59,264.68a1.55,1.55,0,1,1-1.55-1.55A1.54,1.54,0,0,1,363.59,264.68Z" style="fill:#ffe600;stroke:#000;stroke-miterlimit:3.8636999130249023"/><path d="M410.29,264.72a1.55,1.55,0,1,1-1.55-1.55A1.54,1.54,0,0,1,410.29,264.72Z" style="fill:#ffe600;stroke:#000;stroke-miterlimit:3.8636999130249023"/><path d="M406.71,263.3a1.55,1.55,0,1,1-1.55-1.55A1.54,1.54,0,0,1,406.71,263.3Z" style="fill:#ffe600;stroke:#000;stroke-miterlimit:3.8636999130249023"/><path d="M367.32,263.18a1.55,1.55,0,1,1-1.55-1.55A1.54,1.54,0,0,1,367.32,263.18Z" style="fill:#ffe600;stroke:#000;stroke-miterlimit:3.8636999130249023"/><path d="M403.36,261.79a1.55,1.55,0,1,1-1.55-1.55A1.54,1.54,0,0,1,403.36,261.79Z" style="fill:#ffe600;stroke:#000;stroke-miterlimit:3.8636999130249023"/><path d="M370.71,261.64a1.55,1.55,0,1,1-1.55-1.55A1.54,1.54,0,0,1,370.71,261.64Z" style="fill:#ffe600;stroke:#000;stroke-miterlimit:3.8636999130249023"/><path d="M399.78,260.22a1.55,1.55,0,1,1-1.55-1.55A1.54,1.54,0,0,1,399.78,260.22Z" style="fill:#ffe600;stroke:#000;stroke-miterlimit:3.8636999130249023"/><path d="M396.08,259a1.55,1.55,0,1,1-1.55-1.55A1.54,1.54,0,0,1,396.08,259Z" style="fill:#ffe600;stroke:#000;stroke-miterlimit:3.8636999130249023"/><path d="M392.42,257.94a1.55,1.55,0,1,1-1.55-1.55A1.54,1.54,0,0,1,392.42,257.94Z" style="fill:#ffe600;stroke:#000;stroke-miterlimit:3.8636999130249023"/><path d="M374.21,260.37a1.55,1.55,0,1,1-1.55-1.55A1.54,1.54,0,0,1,374.21,260.37Z" style="fill:#ffe600;stroke:#000;stroke-miterlimit:3.8636999130249023"/><path d="M378.1,258.87a1.55,1.55,0,1,1-1.55-1.55A1.54,1.54,0,0,1,378.1,258.87Z" style="fill:#ffe600;stroke:#000;stroke-miterlimit:3.8636999130249023"/><path d="M386.88,258.25a1.55,1.55,0,1,1-1.55-1.55A1.54,1.54,0,0,1,386.88,258.25Z" style="fill:#ffe600;stroke:#000;stroke-miterlimit:3.8636999130249023"/><path d="M353.61,269.49a1.55,1.55,0,1,1-1.55-1.55A1.54,1.54,0,0,1,353.61,269.49Z" style="fill:#ffe600;stroke:#000;stroke-miterlimit:3.8636999130249023"/><path d="M420.61,269.8a1.55,1.55,0,1,1-1.55-1.55A1.54,1.54,0,0,1,420.61,269.8Z" style="fill:#ffe600;stroke:#000;stroke-miterlimit:3.8636999130249023"/><path d="M417.18,267.92a1.55,1.55,0,1,1-1.55-1.55A1.54,1.54,0,0,1,417.18,267.92Z" style="fill:#ffe600;stroke:#000;stroke-miterlimit:3.8636999130249023"/><path d="M386.84,260.52a1.55,1.55,0,1,1-1.55-1.55A1.54,1.54,0,0,1,386.84,260.52Z" style="fill:#ffe600;stroke:#000;stroke-miterlimit:3.8636999130249023"/><path d="M386.84,262.68a1.55,1.55,0,1,1-1.55-1.55A1.54,1.54,0,0,1,386.84,262.68Z" style="fill:#ffe600;stroke:#000;stroke-miterlimit:3.8636999130249023"/><path d="M387,264.87a1.55,1.55,0,1,1-1.55-1.55A1.54,1.54,0,0,1,387,264.87Z" style="fill:#ffe600;stroke:#000;stroke-miterlimit:3.8636999130249023"/><path d="M387,267.18a1.55,1.55,0,1,1-1.55-1.55A1.54,1.54,0,0,1,387,267.18Z" style="fill:#ffe600;stroke:#000;stroke-miterlimit:3.8636999130249023"/><path d="M387,269.34a1.55,1.55,0,1,1-1.55-1.55A1.54,1.54,0,0,1,387,269.34Z" style="fill:#ffe600;stroke:#000;stroke-miterlimit:3.8636999130249023"/><path d="M386.88,271.34a1.55,1.55,0,1,1-1.55-1.55A1.54,1.54,0,0,1,386.88,271.34Z" style="fill:#ffe600;stroke:#000;stroke-miterlimit:3.8636999130249023"/><path d="M387.15,273.62a1.55,1.55,0,1,1-1.55-1.55A1.54,1.54,0,0,1,387.15,273.62Z" style="fill:#ffe600;stroke:#000;stroke-miterlimit:3.8636999130249023"/><path d="M387.29,275.78a1.86,1.86,0,1,1-1.86-1.86A1.86,1.86,0,0,1,387.29,275.78Z" style="fill:#ffe600;stroke:#000;stroke-miterlimit:3.8636999130249023"/><polygon points="196.5 425.07 226.46 373.12 196.5 320.75 256.74 320.64 286.55 268.95 316.5 320.92 376.75 321 346.69 372.88 376.75 424.82 316.49 425.13 286.55 476.88 256.43 424.65 196.5 425.07" style="fill:#fff;stroke:#000;stroke-miterlimit:3.8636999130249023"/><rect x="244.95" y="359.82" width="83.21" height="26.18" style="fill:red"/><rect x="273.46" y="331.31" width="26.18" height="83.21" style="fill:red"/><path d="M458.5,209c-3.93-32.21-55.5-62-55.5-62l41.06-77.55S497,96,514,124Z" style="fill:#fff;stroke:#000;stroke-miterlimit:3.8636999130249023"/><path d="M438.39,149.28c2.86,2.16,10.32,8.88,13.59,11.74l26.87-44c-3-2.85-10.6-9.95-13.91-12.46Z" style="fill:red"/><path d="M436.2,127.14a227.22,227.22,0,0,1,35.37,28.43l9.82-16c-6.43-6.74-20.87-20.89-35.13-29.81Z" style="fill:red"/><path d="M445.72,53.88c3.11-5.85,9.4-9.16,14.48-15.52C457.3,47,458.54,53.19,455.43,59s-7.81,9.44-10.49,8S442.61,59.73,445.72,53.88Z" style="fill:#fff;stroke:#000;stroke-miterlimit:3.8636999130249023"/><rect x="333.25" y="133.9" width="149.5" height="6.5" transform="translate(95.32 432.96) rotate(-61.99)" style="fill:#fff;stroke:#000;stroke-miterlimit:3.8636999130249023"/><path d="M438.1,63.41c1.32-2.48,5.46-2.85,9.25-.84s5.79,5.65,4.48,8.13-5.46,2.85-9.25.84S436.78,65.88,438.1,63.41Z" style="fill:#fff;stroke:#000;stroke-miterlimit:3.8636999130249023"/><path d="M301.75,211c-.5-17.5,20.66-14.34,38-5L401,239c23.57,12.7,64.5-1.5,54-33-6.87-20.62-22-21-30.5-21.5-14.1-.83-17,13.5-16.5,21.5,1,16.23,30,9,18.75-10.75,6,.5,16,5.25,15.75,15.25-.32,12.91-11.25,17.25-18.5,17.5-18,.62-38-20.25-39.32-43.09-1.68,5.09-3.18,19.34-3.18,19.34a40,40,0,0,1-6.75-22.75c-4.25,2.75-6.75,16-6.75,16s-10-14-20.5-13.75c3,5.25,5,8,6.25,11.75-6.75-2.75-16-8.15-33.25-7-15,1-34,3-34,24.76,0,12.74,4.59,19.61,13.09,19.84C314,233.5,317.25,212,301.75,211Z" style="fill:#cca208;stroke:#000;stroke-miterlimit:3.8636999130249023"/><path d="M114.6,209c3.93-32.21,55.5-62,55.5-62L129,69.45S76.1,96,59.1,124Z" style="fill:#fff;stroke:#000;stroke-miterlimit:3.8636999130249023"/><path d="M134.71,149.28c-2.87,2.16-10.32,8.88-13.6,11.74L94.24,117c3-2.85,10.6-9.95,13.91-12.46C114.09,114.51,129.38,140.29,134.71,149.28Z" style="fill:red"/><path d="M136.91,127.14a227.22,227.22,0,0,0-35.37,28.43l-9.82-16c6.43-6.74,20.87-20.89,35.13-29.81Z" style="fill:red"/><path d="M127.38,53.88C124.27,48,118,44.72,112.9,38.36c2.9,8.65,1.66,14.83,4.77,20.68s7.81,9.44,10.49,8S130.49,59.73,127.38,53.88Z" style="fill:#fff;stroke:#000;stroke-miterlimit:3.8636999130249023"/><rect x="161.88" y="62.39" width="6.5" height="149.5" transform="translate(-45.06 93.59) rotate(-28)" style="fill:#fff;stroke:#000;stroke-miterlimit:3.8636999130249023"/><path d="M121.29,70.7c-1.32-2.48.69-6.12,4.48-8.13s7.93-1.64,9.24.84-.69,6.12-4.48,8.13S122.61,73.17,121.29,70.7Z" style="fill:#fff;stroke:#000;stroke-miterlimit:3.8636999130249023"/><path d="M271.35,211c.5-17.5-20.66-14.34-38-5L172.1,239c-23.56,12.7-64.5-1.5-54-33,6.87-20.62,22-21,30.5-21.5,14.1-.83,17,13.5,16.5,21.5-1,16.23-30,9-18.75-10.75-6.05.5-16,5.25-15.75,15.25.32,12.91,11.25,17.25,18.5,17.5,18,.62,38-20.25,39.32-43.09,1.68,5.09,3.18,19.34,3.18,19.34a40,40,0,0,0,6.75-22.75c4.25,2.75,6.75,16,6.75,16s10-14,20.5-13.75c-3,5.25-5,8-6.25,11.75,6.75-2.75,16.05-8.15,33.25-7,15,1,34,3,34,24.76,0,12.74-4.59,19.61-13.09,19.84C259.1,233.5,255.85,212,271.35,211Z" style="fill:#cca208;stroke:#000;stroke-miterlimit:3.8636999130249023"/><path d="M242.73,127.18s-3.9-.11-3.9,2.82,22.82,8.21,47.59,8.17,48.08-5.24,48.08-8.17-3.9-2.82-3.9-2.82" style="fill:#cca208;stroke:#000"/><path d="M239,120.32s0,6.76.54,7.68,13.23,7.4,46.92,7.42,46.58-6.5,47.16-7.42.54-7.68.54-7.68" style="fill:#cca208;stroke:#000"/><path d="M288.84,131a2.31,2.31,0,1,1-2.29-2A2.17,2.17,0,0,1,288.84,131Z"/><path d="M308,130a1.92,1.92,0,1,1-1.92-2A2,2,0,0,1,308,130Z"/><path d="M322.71,127.83a1.59,1.59,0,1,1-1.54-2A1.82,1.82,0,0,1,322.71,127.83Z"/><ellipse cx="330.92" cy="125.42" rx="1.17" ry="2"/><path d="M265,130a1.92,1.92,0,1,0,1.92-2A2,2,0,0,0,265,130Z"/><path d="M250.29,127.83a1.59,1.59,0,1,0,1.54-2A1.82,1.82,0,0,0,250.29,127.83Z"/><ellipse cx="242.08" cy="125.42" rx="1.17" ry="2"/><path d="M243.31,120.3,229.79,65.2l13.73-7.87,43-1.12,43,1.12,13.72,7.87L329.8,120.3a214.58,214.58,0,0,1-43.24,4.52A187.15,187.15,0,0,1,243.31,120.3Z" style="fill:#0c419a;stroke:#000"/><path d="M238.8,120.32c-.21-1.57,1.46-2.92,1.46-2.92s23,5.61,46.24,5.35,46.24-5.35,46.24-5.35,1.67,1.35,1.46,2.92c-1.37,1-24.2,7.1-47.71,7S240.17,121.33,238.8,120.32Z" style="fill:#ffe600;stroke:#000;stroke-miterlimit:3.8636999130249023"/><polygon points="289.43 83.13 289.43 77.8 283.67 77.8 283.67 83.13 278.34 83.13 278.34 88.89 283.67 88.89 283.67 96.22 289.43 96.22 289.43 89.05 289.43 88.89 294.76 88.89 294.76 83.13 289.43 83.13" style="fill:red"/><polygon points="289.43 83.13 289.43 77.8 283.67 77.8 283.67 83.13 278.34 83.13 278.34 88.89 283.67 88.89 283.67 96.22 289.43 96.22 289.43 89.05 289.43 88.89 294.76 88.89 294.76 83.13 289.43 83.13" style="fill:none;stroke:#000"/><polygon points="245.09 83.13 245.09 77.8 240.99 77.8 240.99 83.13 238.04 83.13 238.04 88.89 240.99 88.89 240.99 95.22 245.09 95.22 245.09 89.05 245.09 88.89 249.76 88.89 249.76 83.13 245.09 83.13" style="fill:red"/><polygon points="245.09 83.13 245.09 77.8 240.99 77.8 240.99 83.13 238.04 83.13 238.04 88.89 240.99 88.89 240.99 95.22 245.09 95.22 245.09 89.05 245.09 88.89 249.76 88.89 249.76 83.13 245.09 83.13" style="fill:none;stroke:#000"/><polygon points="332.12 83.13 332.12 77.8 328.01 77.8 328.01 83.13 323.34 83.13 323.34 88.89 328.01 88.89 328.01 89.05 328.01 95.22 332.12 95.22 332.12 88.89 335.06 88.89 335.06 83.13 332.12 83.13" style="fill:red"/><polygon points="332.12 83.13 332.12 77.8 328.01 77.8 328.01 83.13 323.34 83.13 323.34 88.89 328.01 88.89 328.01 89.05 328.01 95.22 332.12 95.22 332.12 88.89 335.06 88.89 335.06 83.13 332.12 83.13" style="fill:none;stroke:#000"/><path d="M240.4,117.4,228.79,67.79s-1.8-3,2.48-5.85S272.53,40,286.55,40s51,19.12,55.28,21.94,2.48,5.85,2.48,5.85L332.7,117.4s-12.56,6.6-46.2,6.6S240.4,117.4,240.4,117.4Zm85.23-47.14c1.12-3,0-4.5-4-10.8S293.79,46,288.84,46.52c0,3.71,1.57,18,3.26,22.39s13,14.7,18.11,16C315.29,83.2,324.51,73.3,325.63,70.26ZM262.88,84.88c5.06-1.28,16.42-11.59,18.11-16s3.26-18.68,3.26-22.39c-5-.56-28.69,6.64-32.74,12.94s-5.17,7.76-4.05,10.8S257.82,83.2,262.88,84.88Zm28.72,36.53c-2.25-.75-5.1-5.4-5.1-5.4s-2.85,4.65-5.1,5.4Zm24.23-2.24a26.45,26.45,0,0,1-5.5-3.16s-2.85,3.65-5.1,4.4ZM268,120.41c-2.25-.75-5.1-4.4-5.1-4.4a26.45,26.45,0,0,1-5.5,3.16Zm18.54-51.05c-.26,3-12.08,16.93-15.25,17.69,3.17.88,15,9,15.25,11.79,1-3,12.94-12.05,16.37-11.92C299.37,85.9,287.09,72.37,286.56,69.36Zm-44.72,0c-.26,3-4.26,16.18-7.43,16.93,3.17.88,6.6,9.78,6.86,12.54,1.06-3,11.42-11.72,14.85-11.59C252.57,86.24,242.37,72.37,241.84,69.36Zm1.69-9.79-9.79,6.19,1.35,8.33Zm68.64,42.6c3.17-1.5,6.87-3.14,9.48-1.21,2.37,1.75,1.91,7.54.7,10.05s-5.22,3.1-5.22,3.1,2.43-5.84.54-7.1-5.06.94-5.24,4.43c-.23,4.53,3.65,5.35,8.52,5.05,3.65-.22,7.69-4.11,7.83-12.48.17-10.1-19-15.38-19-15.38s-19.14,7.59-19,17.67c.14,8.35,4.17,11.75,7.83,11.53,4.87-.29,8.75-1.57,8.52-6.08-.17-3.47-2.43-5.43-4.88-3.75-2.67,1.83.18,7,.18,7s-4-.11-5.22-2.47-1.68-8.09.7-10.13c2.61-2.25,5.18-1.72,8.18-.39-1.33-4.83,3.65-11.73,3.65-11.73S313.67,98,312.17,102.17ZM263.43,90.28s5,6.89,3.65,11.73c3-1.33,5.57-1.86,8.18.39,2.37,2,1.92,7.77.7,10.13s-5.22,2.47-5.22,2.47,2.85-5.15.18-7c-2.45-1.68-4.7.28-4.88,3.75-.23,4.51,3.65,5.79,8.52,6.08,3.65.22,7.68-3.18,7.83-11.53.17-10.08-19-17.67-19-17.67s-19.14,5.28-19,15.38c.14,8.37,4.18,12.26,7.83,12.48,4.87.29,8.75-.52,8.52-5.05-.17-3.49-3.24-5.76-5.24-4.43s.54,7.1.54,7.1-4-.59-5.22-3.1-1.68-8.29.7-10.05c2.61-1.93,6.32-.29,9.48,1.21C259.58,98,263.43,90.28,263.43,90.28Zm53.54-3c3.43-.12,13.79,8.58,14.85,11.59.26-2.76,3.7-11.66,6.86-12.54-3.17-.75-7.16-13.92-7.43-16.93C330.73,72.37,320.53,86.24,317,87.24Zm21-13.16,1.35-8.33-9.79-6.19Z" style="fill:#ffe600;stroke:#000"/><polygon points="288.75 19.18 288.75 13.22 284.35 13.22 284.35 19.18 280.35 19.18 280.35 23.46 284.35 23.46 284.35 33.88 288.75 33.88 288.75 23.46 292.35 23.46 292.35 19.18 288.75 19.18" style="fill:#ffe600"/><polygon points="288.75 19.18 288.75 13.22 284.35 13.22 284.35 19.18 280.35 19.18 280.35 23.46 284.35 23.46 284.35 33.88 288.75 33.88 288.75 23.46 292.35 23.46 292.35 19.18 288.75 19.18" style="fill:none;stroke:#000"/><path d="M292.6,35.46a6,6,0,1,1-6-6A6.05,6.05,0,0,1,292.6,35.46Z" style="fill:#ffe600;stroke:#000"/><path d="M281.17,41.28A2.26,2.26,0,1,1,278.91,39,2.26,2.26,0,0,1,281.17,41.28Z" style="fill:#ffe600;stroke:#000;stroke-miterlimit:3.8636999130249023"/><path d="M348.11,64.87a2.72,2.72,0,1,1-2.72-2.72A2.72,2.72,0,0,1,348.11,64.87Z" style="fill:#ffe600;stroke:#000;stroke-miterlimit:3.8636999130249023"/><path d="M342.7,61.13a2.26,2.26,0,1,1-2.26-2.26A2.26,2.26,0,0,1,342.7,61.13Z" style="fill:#ffe600;stroke:#000;stroke-miterlimit:3.8636999130249023"/><path d="M225.05,64.87a2.72,2.72,0,1,0,2.72-2.72A2.72,2.72,0,0,0,225.05,64.87Z" style="fill:#ffe600;stroke:#000;stroke-miterlimit:3.8636999130249023"/><path d="M230.46,61.13a2.26,2.26,0,1,0,2.26-2.26A2.26,2.26,0,0,0,230.46,61.13Z" style="fill:#ffe600;stroke:#000;stroke-miterlimit:3.8636999130249023"/><path d="M244.89,55.63a2.26,2.26,0,1,1-2.26-2.26A2.26,2.26,0,0,1,244.89,55.63Z" style="fill:#ffe600;stroke:#000;stroke-miterlimit:3.8636999130249023"/><path d="M249.39,53.38a2.26,2.26,0,1,1-2.26-2.26A2.26,2.26,0,0,1,249.39,53.38Z" style="fill:#ffe600;stroke:#000;stroke-miterlimit:3.8636999130249023"/><path d="M327.69,53.16a2.26,2.26,0,1,1-2.26-2.26A2.26,2.26,0,0,1,327.69,53.16Z" style="fill:#ffe600;stroke:#000;stroke-miterlimit:3.8636999130249023"/><path d="M254.57,50.91a2.26,2.26,0,1,1-2.26-2.26A2.26,2.26,0,0,1,254.57,50.91Z" style="fill:#ffe600;stroke:#000;stroke-miterlimit:3.8636999130249023"/><path d="M322.79,51a2.26,2.26,0,1,1-2.26-2.26A2.26,2.26,0,0,1,322.79,51Z" style="fill:#ffe600;stroke:#000;stroke-miterlimit:3.8636999130249023"/><path d="M317.57,48.88a2.26,2.26,0,1,1-2.26-2.26A2.26,2.26,0,0,1,317.57,48.88Z" style="fill:#ffe600;stroke:#000;stroke-miterlimit:3.8636999130249023"/><path d="M260,48.71a2.26,2.26,0,1,1-2.26-2.26A2.26,2.26,0,0,1,260,48.71Z" style="fill:#ffe600;stroke:#000;stroke-miterlimit:3.8636999130249023"/><path d="M312.67,46.68a2.26,2.26,0,1,1-2.26-2.26A2.26,2.26,0,0,1,312.67,46.68Z" style="fill:#ffe600;stroke:#000;stroke-miterlimit:3.8636999130249023"/><path d="M265,46.46a2.26,2.26,0,1,1-2.26-2.26A2.26,2.26,0,0,1,265,46.46Z" style="fill:#ffe600;stroke:#000;stroke-miterlimit:3.8636999130249023"/><path d="M307.44,44.38a2.26,2.26,0,1,1-2.26-2.26A2.26,2.26,0,0,1,307.44,44.38Z" style="fill:#ffe600;stroke:#000;stroke-miterlimit:3.8636999130249023"/><path d="M302,42.58a2.26,2.26,0,1,1-2.26-2.26A2.26,2.26,0,0,1,302,42.58Z" style="fill:#ffe600;stroke:#000;stroke-miterlimit:3.8636999130249023"/><path d="M296.69,41.06a2.26,2.26,0,1,1-2.26-2.26A2.26,2.26,0,0,1,296.69,41.06Z" style="fill:#ffe600;stroke:#000;stroke-miterlimit:3.8636999130249023"/><path d="M270.09,44.61a2.26,2.26,0,1,1-2.26-2.26A2.26,2.26,0,0,1,270.09,44.61Z" style="fill:#ffe600;stroke:#000;stroke-miterlimit:3.8636999130249023"/><path d="M275.77,42.41a2.26,2.26,0,1,1-2.26-2.26A2.26,2.26,0,0,1,275.77,42.41Z" style="fill:#ffe600;stroke:#000;stroke-miterlimit:3.8636999130249023"/><path d="M288.59,41.51a2.26,2.26,0,1,1-2.26-2.26A2.26,2.26,0,0,1,288.59,41.51Z" style="fill:#ffe600;stroke:#000;stroke-miterlimit:3.8636999130249023"/><path d="M240,57.93a2.26,2.26,0,1,1-2.26-2.26A2.26,2.26,0,0,1,240,57.93Z" style="fill:#ffe600;stroke:#000;stroke-miterlimit:3.8636999130249023"/><path d="M337.87,58.38a2.26,2.26,0,1,1-2.26-2.26A2.26,2.26,0,0,1,337.87,58.38Z" style="fill:#ffe600;stroke:#000;stroke-miterlimit:3.8636999130249023"/><path d="M332.87,55.63a2.26,2.26,0,1,1-2.26-2.26A2.26,2.26,0,0,1,332.87,55.63Z" style="fill:#ffe600;stroke:#000;stroke-miterlimit:3.8636999130249023"/><path d="M288.54,44.83a2.26,2.26,0,1,1-2.26-2.26A2.26,2.26,0,0,1,288.54,44.83Z" style="fill:#ffe600;stroke:#000;stroke-miterlimit:3.8636999130249023"/><path d="M288.54,48a2.26,2.26,0,1,1-2.26-2.26A2.26,2.26,0,0,1,288.54,48Z" style="fill:#ffe600;stroke:#000;stroke-miterlimit:3.8636999130249023"/><path d="M288.82,51.18a2.26,2.26,0,1,1-2.26-2.26A2.26,2.26,0,0,1,288.82,51.18Z" style="fill:#ffe600;stroke:#000;stroke-miterlimit:3.8636999130249023"/><path d="M288.82,54.56a2.26,2.26,0,1,1-2.26-2.26A2.26,2.26,0,0,1,288.82,54.56Z" style="fill:#ffe600;stroke:#000;stroke-miterlimit:3.8636999130249023"/><path d="M288.82,57.71a2.26,2.26,0,1,1-2.26-2.26A2.26,2.26,0,0,1,288.82,57.71Z" style="fill:#ffe600;stroke:#000;stroke-miterlimit:3.8636999130249023"/><path d="M288.59,60.63a2.26,2.26,0,1,1-2.26-2.26A2.26,2.26,0,0,1,288.59,60.63Z" style="fill:#ffe600;stroke:#000;stroke-miterlimit:3.8636999130249023"/><path d="M289,64a2.26,2.26,0,1,1-2.26-2.26A2.26,2.26,0,0,1,289,64Z" style="fill:#ffe600;stroke:#000;stroke-miterlimit:3.8636999130249023"/><path d="M289.2,67.12a2.72,2.72,0,1,1-2.72-2.72A2.72,2.72,0,0,1,289.2,67.12Z" style="fill:#ffe600;stroke:#000;stroke-miterlimit:3.8636999130249023"/></svg>