<svg xmlns="http://www.w3.org/2000/svg" xmlns:xlink="http://www.w3.org/1999/xlink" viewBox="0 0 617.81 974.6"><defs><pattern id="a" width="617.81" height="974.6" patternTransform="matrix(1, 0, 0, -1, 190.2, 1311.8)" patternUnits="userSpaceOnUse" viewBox="0 0 617.81 974.6"><rect width="617.81" height="974.6" style="fill:none"/></pattern></defs><title>Tunisia</title><path d="M309.15,970.67C373.6,954.3,429,913.7,482.23,867.43c56.27-53.56,131.52-172.67,131.52-284.25-.24-86.09-55.16-110.13-55.16-168.3,0-86.94,22.08-103.29,39.6-147.07-65.8-10.1-104.72-47.08-142.83-84.86-98.9,48-193.65,45.1-292.93,0-38.11,37.78-77,74.76-142.83,84.86,17.52,43.78,39.6,60.13,39.6,147.07,0,58.17-54.92,82.21-55.16,168.3,0,111.58,75.25,231.14,131.52,284.7,53.25,46.27,110.87,86.42,175.33,102.79" style="fill:#ebc440;stroke:#000;stroke-width:7.690000057220459px"/><path d="M72.76,761.14h83.89C131.14,789.53,97.84,786.46,72.76,761.14Z" style="stroke:#000;stroke-width:1.6200000047683716px"/><path d="M151.63,763.82,117,610l-37.74,154,72.39-.1Z" style="fill:none;stroke:#000;stroke-linejoin:round;stroke-width:5.260000228881836px"/><path d="M208.15,446.58,180.52,380l-78.16-51.59c42.9,21.72,78.53,46.85,151.43,54.44l.7,11.16c34.09,4.4,68.74,6.51,104.68,3.49l5.58-14A455.21,455.21,0,0,0,508.51,364c-14.12,14.41-17,30.6-64.2,39.78l-23,44.66-213.13-1.82Z" style="fill:#d35227;stroke:#000"/><path d="M323.58,386.3l-18.15-2.1m17.8-5.23-16.75-1.75m16.4-5.23-16-1.75m15.7-4.18-15-1m15-4.19-14.3-.35M332,369.2l11.52-1M332,376.87l12.91-1m-12.91,8,13.61-.7m-12.91,7.68,14-1m-24.08,4.1-18.14-1.4m-105.24-1.91,2.09-5.8m-6.66,3.7,2.34-5.3m-3.14,5-3.84,6.11m10.82-2.79L195.87,403m13.91-7.42-5.06,13.26M221.08,398l-4.19,13.09m57.66-2.62-2.26,13.09m-8.38-14.13-3,12.38m-8.2-13.95L250,418m-7.33-14.13-3.32,12.56" style="fill:none;stroke:#000;stroke-width:2px"/><path d="M462,385.88l.74,13.57" style="fill:none;stroke:#000;stroke-width:7px"/><path d="M102.06,327.66c47.37,21.24,63.73,44,152,55.26l.5,11.35" style="fill:none;stroke:#000;stroke-width:3px"/><path d="M102.06,328.15l77.47,50.33c104,33,229.62,21.45,318.17-.38" style="fill:none;stroke:#000;stroke-width:4px"/><path d="M359.15,397.73l5.92-13.82c47.34.3,95.43-6.88,144.09-19.74-5.71,7.11-20.48,26.42-37.85,32.86C424.2,414.49,230.37,424.95,180,378.48l27.14,65.63,12.83-1-40-64.64" style="fill:none;stroke:#000;stroke-width:4px"/><path d="M445.5,403.15l-22.7,42.44" style="fill:none;stroke:#000;stroke-width:2px"/><path d="M437.85,417.22C352.17,431.5,264.28,426,197.57,406.78" style="fill:none;stroke:#000;stroke-width:4px"/><path d="M476.59,382.92l.74,11.35" style="fill:none;stroke:#000;stroke-width:7px"/><path d="M231.81,401.47,228,414.21m-38.32-28.45,1.6-4m131.63,18.44V223.7L304,398.86m29.31-.7L322.88,223,348,398.86" style="fill:none;stroke:#000;stroke-width:2px"/><path d="M340.33,398.16,322.88,223.7l-9.77,175.16m18.15-37.34,11.86-1.05" style="fill:none;stroke:#000;stroke-width:2px"/><path d="M102.36,327.68c92-58.18,170.71-81.61,215.64-76.07-64,14.23-114.84,61.14-168.19,101.89m41.18,16C245.87,264.11,334.22,245,385,234.16c-46.76,71.08-35.18,115.3,1.4,149.34m-20.94,0c3.08-2.06,7.89-5.54,11.87-8.22,13-15,51.26-34.84,89.9-22.76l26.64,16.33-26.68-16.52c-25.41-53.21-2.51-93,7.83-105.61-56,10.12-98,26.5-137.47,44-2.23,48.87,14.06,68.95,27.91,92.81Z" style="fill:none;stroke:#000;stroke-width:3px"/><path d="M309.65,969.2v-508" style="fill:#2282ea;stroke:#000;stroke-width:6px"/><path d="M210.76,761.14h83.89C269.14,789.53,235.84,786.46,210.76,761.14Z" style="stroke:#000;stroke-width:1.6200000047683716px"/><path d="M289.63,763.82,255,610l-37.74,154,72.39-.1Z" style="fill:none;stroke:#000;stroke-linejoin:round;stroke-width:5.260000228881836px"/><path d="M179.88,830.18c4.72,7.68,3.59,28.69,6.19,28.72s1.13-21.22,6.11-29.58L185.05,578l-5.17,252.22Z"/><path d="M179.9,582.2h10.32l-5.09-29-5.23,29Z" style="stroke:#000;stroke-linejoin:round;stroke-width:1.409999966621399px"/><path d="M424.49,364.36l-18.14-2.09M424.14,357l-16.75-1.74m25.48-.35,12.91-1.05m-12.91,8,13.6-.7m-12.91,7.67,14-1m-24.08,2.09-18.14-1.39m18.49,12V238.27L404.32,381.56m30.13-2.8-10.66-140.2,25.13,138.36m-7.47.93L423.51,238.27l-9.76,142.67" style="fill:none;stroke:#000;stroke-width:2px"/><path d="M344.47,577l10.64,8.17c-5,4.67-9.85,47.93-9.85,47.93s1.5,5.39.8,8.25c-.17.69,6.09.26,6,1,0,.29,2,4.06.41,4.49-3.05.81-11.26-.84-11.4-.32-.17-.61-8.19,1.3-11.68,0-1.58-.59-.25-4.69-.31-5-.15-.79,10,0,9.86-.7-6.09-23.83-6.07-46.79,5.57-63.84Z" style="fill:#b8bcde"/><path d="M442.9,838.47c-1.84-2-2.25-8.69-.59-9.71,2.78-4,3.2-5.37,8.72-5.46,5.09,0,6.18-.36,8.53-2.81,1.48-1.54,2.69-3.54,2.69-4.44,4.12-5.2,4.65-11.85,7.15-17.63.92-1.47.77-2.36-.75-4.43-3.16-4.3-6.27-5-19.69-4.47-14.47.58-18.79,2-21.16,7-2,4.56-6.69,7.24-8.55,11.82-2.88,4.18-2.44,9.64-6,13.43-2.08,2-3,3.83-3,6-.23,4.25-2,7.65-6.6,9.51h-34.4V832c-.33-7.77,5.52-11.55,12.61-11.69,5.28,0,6.34-.34,8.7-2.81,4-5.12,5-12,7.24-18,1-1.44,1.45-3.85,1.25-6.89-.28-4.27-.64-4.86-4.3-7-3.84-4.38-19,.82-19.5-4.65,2-7.19,11.42-10,12-17.84-.22-5.67,5.17-17.67,9.37-17.88h13.61c14.42,0,16-.47,16-4.68,0-2.49-5.3-10.23-8.5-12.42-13.94-3.33-28.74.39-41.84-6.67a95.82,95.82,0,0,1-9.18-8c-.58-.59-5.12,2.17-7.29-.4s.9-4.64.87-5.43c-.06-1.55.41-2.09-.91-2.57-.73-.27-3.45,2-5-.58s1.68-3.77.78-5.19c-1.09-1.71-1.93,1.45-3.31-1.38-1.07-2.19,1.08-2.39.69-3.44a27.47,27.47,0,0,1-1.29-4.7c0-1.74-.54-3.71-1.2-4.37-1.68-1.68-6.31-1.5-7.8.3-1.54,2.69-5.1,2.36-9,1.5V668.42c0-15.56.68-18.37,1.92-19.39.64-.53-8.91-.55-8.5-1.49s.47-7.46.64-8.53,10,1,9.8.06c-2.17-12.7-1.43-16.94-2.41-25.79.56-29,8-42.07,8-42.07l16.57,14.05c-12.13,15.35-12,35.53-11.69,54.37.06.46,7.27-.3,7.33.11.11.8.31,9.1.31,9.1s-4.51-.59-6.12.05c5.2,1.73,4.08,1.84,4.19,8.21.15,11.3,2.11,7,2.8,10.5.91,4.7,3.42,3.76,6.53,2.69,7,.36,12.79,5.41,19,.19a10.43,10.43,0,0,0,1.67-11.7c-7.16-7.67-4.8-18.88-.23-27.28,2.71-2.76,7.33-8.78,7.25-9.94-.41-5.23-14.54-6.17-7.5-15.27,2-1.7,2-9.35-.09-11.07-4.33-2.53-4.47,2.9-6.33,5.07-1.44,0-4.08-3.64-4.08-5.62,0-2.33,8.87-11.38,11.16-11.38a4.39,4.39,0,0,0,2.84-1.5c.68-.83,2.66-1.5,4.4-1.5,8.62-1,10.83-7.33,15-12,7.74,1.63,19.79-3.32,26.57,1.5,1.65,2,9.34,2,11,0,3.14-1.43,7-5.59,10-3,1.71,1.55,2,3.08,2,10.82,0,7-.87,11,.41,12.44,1.54,1.7,5.62,2.67,4.61,7.56.59,2.81-5.51,6.33-3.52,8,.85,4.47,2,3.67,6,6.7a5,5,0,0,1,0,7c-1.91,1.58-3.15,6.24-1.24,7.83,1.6,1.84,4.14.6,4.92,4.23s-.93,5-2.47,6.67c-2,3.39-1.4,3.37-.92,6.07.15.86,3.7.74,3.9,4.57.17,3.18-3.87,3.3-4.44,4.39-1.91,1.58-1.66,2.66.25,4.25,3.09,2.57.5,9-3.63,9-2.61,0-3.87,2.29-3.87,7,0,2.06,3.75,2.37,1.18,6.82-2.13,3.68-4.28.83-7.18,3.7-4.18,2.34-4.8,7.27-7.5,10.5-2.81,2.33-1.78,6.31,2.78,10.79,8.68,7.28,12.74,15,42.27,13.21,28-17.65,10.39-40.29-.89-60.81-4.26-7.78-8.06-12.14-10.06-31.28-2.33-22.33,6-45.59,29.35-45.91,10.44-.15,13.63-1.65,22.17,7.48a23.65,23.65,0,0,1,3.22,3.2c1,1.2,3.37-2.2,5.5,1.33.77,1.27-1.44,4.9-.92,6.06,3.15,7.13,4,16.36-1.9,25.32-5,13-27.05,18.47-32.59,5.84-4-9.12.27-22.7,3.72-18.69s1,13.59,8.81,10.77,8.71-6.17,9.73-9.13c.59-1.72-4.74-1.74-5.88-6.33s3.93-2.91,3.45-4.08c-3-7.25-10.19-10-19.26-6.26-9.68,3.94-13.18,11.1-10.72,23.9.25,1.29,4.35,1.13,6,3.32s-4.67,7-4.48,7.82a79.81,79.81,0,0,0,5.35,15.71c5.4,11.63,12.56,22.53,18.94,33.74,4.92,7.78,6.11,15.82,3.79,25.73-2.71,9.23-8.09,17.66-13.88,25.27-6.41,7.3,1.19,6.45.9,9.4,1.29,3.57-4.57,4.36-4.8,8.48.18,4.58,16,14.25,7,16.12-5.53,0-6.08.68-6.08,7.5-1.32,4.56,2.4,6.5,3,10.28,0,2.28-1.85,4.66-9.07,11.73-5,4.88-9.71,10.41-10.5,12.3-.93,2.22-1.43,7-1.43,13.61.41,5,1.57,17-2.51,17.08l-39.84.67ZM344.82,622.79c.36-16,1.61-18.41,3.74-25.75l4.7-10.15c-2.68-2.59-5-5.63-8.23-7.59-8.9,14-5.86,63.52-5.86,63.52l-7.76-.49-.18,3.41h19.59l-.2-3.22-5.15-.06s-1.31-12.31-.65-19.66h0Z"/><path d="M423.38,238.4c-11.26-1.94-28.8,4.85-36.49,7.2,8.52-.3,26.19-1.67,36.06-1.28l.43-5.92ZM323,223.21c-13.53,3.63-47.83,2-56.11-1.9-12.47,4.52-42.62,16.15-55.09,19.24,11.75-.84,41.18-.7,51.57-5.65,10.23,3.25,45.06.08,58.28-4.15l1.35-7.53Z" style="fill:#e70013"/><path d="M57.41,435.86,45.61,462.4H573.35c-6.81-9.83-13.07-18.58-12.89-31.19-1.84.06.1,6.11-3.86,6.11S549.18,429,543.73,429s-3,8.68-6.93,9-6.44-8.32-12.38-8.68-5.94,9-9.9,9-7.92-8.68-12.38-9-3.47,8-7.92,8-5-9-10.89-8.32-6.93,7.59-11.39,8-5.94-7.59-9.41-7.23-8.42,8.32-11.88,8.68-5-9.76-10.4-9.4S422.94,440.93,418,442s-5.45-8.32-8.91-9,0,6.87-5.94,7.59-7.43-3.25-12.87-3.25-7.92-5.79-10.89-6.51S369,435.87,364,436.23s-8.91-8-11.88-8-10.4,6.87-15.84,5.06-6.93-5.42-8.91-5.42-9.41,6.51-15.84,5.79-1-5.79-7.43-5.79-3,5.06-6.93,6.87-12.87-4.34-15.84-6.15-3.47,5.42-9.41,5.42-5.94-6.15-8.42-6.51-4,7.23-9.41,6.15-5-4.7-6.93-5.06,2.48,6.51-4.46,7.23-12.38-8.32-14.36-8.68,3,5.42,1.49,7.59S218.49,438,212.55,438s-7.92-6.15-10.89-6.87-4.46,6.51-8.42,6.51-4.46-7.59-10.4-7.59-6.93,6.51-11.88,6.51-3-6.87-8.91-6.15-9.9,7.23-13.86,8-3-9-8.91-9-5.45,9-9.9,9-4-9-10.89-8.68-9.41,9-14.36,9-4-8-9.41-8-3.47,8.32-11.39,8.32-1-9.19-10.89-8.1-5.14,11-15,4.84Z" style="fill:#2368d0;stroke:#000;stroke-width:3.4692890644073486px"/><path d="M185.09,591.38l-1.44,3.75s8.12,3.16,16.88,6.34c4.38,1.59,8.92,3.2,12.69,4.41,1.88.6,3.59,1.11,5,1.47a13.93,13.93,0,0,0,3.47.59c3,0,5-.19,6.66-.91a6.61,6.61,0,0,0,3.34-3.47,4.86,4.86,0,0,0-.66-5,4.63,4.63,0,0,0-2.71-1.69,3.65,3.65,0,0,1,1.15-.41c2.67-.12,7.16,2.65,11.41,5.88,2.12,1.61,4.2,3.26,6.19,4.59s3.83,2.43,6,2.53c6,.27,9.18-2.58,10.81-4.75a6.87,6.87,0,0,0,.75-6.47,5.88,5.88,0,0,0-1.75-2.66c-.87-.73-2.46-1.33-3.53-.78-1.91,1-2.54,5.92-2.54,5.92s2.23-2.36,3.54-2c.94,1,.64,2.35.34,3.63-1.38,1.85-2.49,3.35-7.44,3.13a10.66,10.66,0,0,1-3.94-1.84c-1.78-1.19-3.83-2.82-6-4.47-4.33-3.3-9-6.92-14-6.69a7.1,7.1,0,0,0-5.87,3.22c-1.63,2.5-.34,6.11-.34,6.11s1.79-1,2.94-.71c1.19,1.07,1.27,1.16-.55,2.62-.74.32-1,.2-3.77.2a16.14,16.14,0,0,1-2.5-.47c-1.29-.33-2.91-.82-4.75-1.41-3.68-1.18-8.18-2.76-12.53-4.34-8.7-3.16-16.81-6.34-16.81-6.34h0Z"/><path d="M185.62,591.38l1.44,3.75s-8.12,3.16-16.87,6.34c-4.38,1.59-8.92,3.2-12.69,4.41-1.88.6-3.59,1.11-5,1.47a13.93,13.93,0,0,1-3.47.59c-3,0-5-.19-6.66-.91a6.61,6.61,0,0,1-3.34-3.47,4.86,4.86,0,0,1,.66-5,4.63,4.63,0,0,1,2.71-1.69,3.65,3.65,0,0,0-1.15-.41c-2.67-.12-7.16,2.65-11.41,5.88-2.12,1.61-4.2,3.26-6.19,4.59s-3.83,2.43-6,2.53c-6,.27-9.18-2.58-10.81-4.75a6.87,6.87,0,0,1-.75-6.47,5.88,5.88,0,0,1,1.75-2.66c.87-.73,2.46-1.33,3.53-.78,1.91,1,2.54,5.92,2.54,5.92s-2.23-2.36-3.54-2c-.94,1-.64,2.35-.34,3.63,1.38,1.85,2.49,3.35,7.44,3.13a10.66,10.66,0,0,0,3.94-1.84c1.78-1.19,3.83-2.82,6-4.47,4.33-3.3,9-6.92,14-6.69a7.1,7.1,0,0,1,5.88,3.22c1.63,2.5.34,6.11.34,6.11s-1.79-1-2.94-.71c-1.19,1.07-1.27,1.16.55,2.62.74.32,1,.2,3.77.2a16.14,16.14,0,0,0,2.5-.47c1.29-.33,2.91-.82,4.75-1.41,3.68-1.18,8.18-2.76,12.53-4.34,8.7-3.16,16.81-6.34,16.81-6.34h0Z"/><path d="M76,520.3c-17.07,13-36.64,30.05-43.18,52.16,9.39-7.95,20.94-12.84,29.35-16.62-8.79,13.16-8.95,29.66-9.5,45,18.09-21.46,39.68-43,68.12-49.1,6-1.29,15.79-1.08,17.47-7.65,1.53-6-8-8.45-12.94-8.79-5.51-.38-15.85.15-15.85.15m86.25-72c-.08,12.42,15.21,18.8,25.77,19.25,49.54-9.73,105.56-7.93,155.72-3.15,4.77.57,9.58.46,14.37.76,3.8.24,11.46,1.4,15.22,2.07s18.94-11.26,23.41-18.2,1-15.35-6.29-18.55c-17.27-8.73-44.35-7.81-63.16-10-19.54-1.23-39.13-1.64-58.72-1.44-25.23.67-57.33,4.14-82.43,6.65-11.76,1-23.81,10.16-23.89,22.58Zm-.35,1.06c-37.21,4.79-81.69,16-116.64,42.46a10.58,10.58,0,0,0-1.31,12.31c2.21,3.84,22.79,21.57,31,16.57,17.92-11.91,80.16-32.5,101.49-35.87,7.73-3,33.58.73,32.16-10.42-6-4.57-13.77-5.21-20.57-7M519.46,537.4c-7.12-.81-16,.15-19.77,6.81-1.25,6.35,6.78,9.42,11.42,11.19,24.33,8,47.78,20.41,64.85,39.81.69-14.12-2.11-28.47-9.19-40.75A96.07,96.07,0,0,1,593,566.24c-9.12-18.58-17.06-30.61-30.42-41.61-2.75-2.27-10.33-4.91-7.54-8.91M407,482.16c-7.17,1.56-19.76,1.18-23.61,8.26-3.74,5.53,2.75,11.41,7.78,12.23,24.53,6.11,47.66,3.06,72.06,10,19.92,5.08,39.29,12.85,56.22,24.72s31.53-15.88,35.25-21.5.69-13.12-5.42-15.42c-37.41-23.77-75.51-31.87-118.86-35.46" style="fill:#ebc440;stroke:#000;stroke-width:5px"/><path d="M431.85,485.5c1.27-2.43,1.91-2.68,3-1.24s.34,1.77-.31,1.86A2.74,2.74,0,0,1,431.85,485.5Zm-4,7.22c3.74,3.19,11,.86,12.1-.11s2.7-4.71,3.15-7.78-4.29-10.29-9.12-9-5.73,8.28-7.49,9.75-1.51,6-9.45,8c-4.22,1.08-12.42.36-11,1.31a38.61,38.61,0,0,0,10,3.29c4.29.28,10.42,1,11.81-5.52h0Zm51.47-.32c4.17-2.46,5.11-5.86,3.64-7.13s-17-2.58-21,0-3.84,3.59-1.9,3.73,4.29,2,5.41.51,4.09-2.54,7-2.41,10.35,1.84,6.83,5.26ZM498.6,488l4.24-3.35,3.84,4.72L502,493l-3.44-5Zm19.68,7.56,4.08-3.43,3.76,4.81-4,3.59Zm-26.9,13.32c5.12-4.73,7.55-3.94,8.52-3.15s.52,3.55.52,3.55-5.16.86-9-.4Zm29.61.33,3.54-5.6c4.18,5.94,7.27,12.5,1.17,17.38-1.77.66-24.49-1.62-30.81-4.47s-11.55-4.33-13-7.55c-7.24,2.65-33.11-3.56-36.56-10s.81-17.11.59-22.92l4.8-4.24s.16,4.15,0,9.16-1,13.12-1,13.12,8.39,5.15,15.17,6.73a42.63,42.63,0,0,0,19.67,0l.27,2.74s1.3,1.28,1.76-1.15S489,492,488.28,488.76s3.83-4.88,3.83-4.88,1.84,6.6.59,11a68.2,68.2,0,0,1-2.83,7.93s5.3-2.31,7.88-3.14,7.57-1.85,7.57-1.85,5,2.86,5.06,6.08-5.09,8.12-5.09,8.12,6.31,1.39,8.73,1.53,7.27.74,8.23-.08.19-1.62-1.25-4.22Z"/><path d="M227.18,445.23l4.31,3.87-4.2,4.8L222.5,450Zm11.21-.93-4.71,4.09,4.42,3.93,4.79-4.1Zm49.67,20.37-4.28,4.83,4.57,4.3,4.67-5.6Zm10.94-.88-4.39,4.5,5,4.47,4.32-5.32-4.9-3.65Zm-29-15.48c16.61-3.51,24.84-5.27,25.4-5.13s4,3.88,2.14,4.46S272,451.51,271,451.38s-4.62-.8-1-3.07Zm38.3-2.46,3.17-5.06s8,6.64,7.39,12.38-6.49,8.87-8.31,9-32.68,4.5-39.67,4.71-22.94-.62-24.56-9.56c-4,2.14-7.61,15.91-13.82,17.61-8,2.19-14-5.06-7.41-14.75,1.34,8.1,7.48,9.47,9.82,4.46,4.2-9,5-12.57,14.53-16.36.63,7,1.91,8.57,5.7,9.51s19.73,1.49,31.33-.16,23.89-2.74,25.13-4.29.26-2-3.29-7.52Zm44.32-1.68s3.19-2.83,5-2.84,10.8,3,10.81,4.65-7.36,5.94-10.42,6.81-9.5,1.35-12.32-1-1.43-3.34.95-3.09,7.28,1.33,9.66.61.8-4.62-3.68-5.14Zm17.58,10.6c7.5-5.52,11.14-5.56,12.4-5s7.18,5.11,12.92,6.17,13.6,3.37,13.6,3.37l-7.91,6.51s-8.27-2.3-11.76-1.71-14.8,2.94-25.71,2.2-27-2-29.42-5.32c-1.91,5.47-5,7.32-7.89,8.33s-15,.28-15.8.29,15.47-6,16.84-9.11-2.32-8.23-2.32-8.23l3.73-4.65a62.81,62.81,0,0,0,5.65,5.54c2.68,2.21,9.85,6.06,26.77,6.32s24.73-2.19,26.56-1.79c-4.78-2.47-4.78-2.33-7.72-2.72s-6.16-1.2-9.93-.19Zm-241.7,36.66c-3,4.43-1.23,9.79.36,10.91,3.59,2.52,8.2,1,7-2.46s-1.07-3.95-2.92-4.81,1.22,3.18-.82,3.83a2.43,2.43,0,0,1-3-1.37c-.37-1.87-.43-6-.63-6.09h0Zm-25.45,2.35,6.63.5-.08,8.19-8,0s-.48-5.72,1.42-8.66Zm10.41-6.31s-2.7,6.64-1.86,6.72,6.34,2.35,7.42,1.85,2-6.6,2-6.6Zm22.37-5.4-3.65,5.73s8.64,11,8.56,11.72-4.2,5.91-7.18,7.39-7.23,2.76-8.37,2.57-6.88-7.92-7-10.15-6.48,5.37-7.14,9.91-1.4,8.18-2.31,8.86c-5.2,3.89-9.12,0-9.39-3.81s-3.1,13.4,6.65,12.56,9.24-17.77,10.81-17.32,3.69,6.46,6.13,7.27,12.39-1.17,15.47-3.22,8.35-8.59,8.2-10.69-7.7-17.39-10.75-20.82Zm14.34-5.24s-2.91,4.42-2.35,4.38,4.42,4.87,5.89,7.85,5.24,12.38,5.19,11.68,2.88-6.8,2.88-6.8S155.56,479.68,150.17,476.84Zm33.32,7.63c2.6,2.06,8.85.69,8.85.69l6.73-4.83,2.33,7s-6.55,4.47-9.63,8.4-13,5.63-15.83,5.07-3.17-3.14-3.54-1.5-10.63,9.11-14.71,10S151.51,507,150.8,506a7.06,7.06,0,0,1-.26-7.48c.2,4.68,5,3.63,7.47,3.53s11.68-7.15,11.79-7.65S160,483.63,160,483.63l4.23-5.56a49.23,49.23,0,0,1,10.06,13.22c1,1.54,1.82.92,3.6,1.35s6.11-2.82,6.11-2.82a28.41,28.41,0,0,1-4.77-2.38c-4-3.6-1.28-9.06,2-12.2,2.82-2.19,5.92-1.48,10.86,1.28-5.26,1.47-10.52,3.47-8.53,7.94Z"/><path d="M379.26,493.91l-1-15.87L396,479.91Z" style="stroke:#000"/><path d="M233.92,478.58l11.16-.3.1,12.82-10.87-7.67Z" style="stroke:#000;stroke-width:0.7849040031433105px"/><path d="M140.95,540.26l-4.5-17.5-20.75,8.5s1,6,3.5,5.75S140.95,540,140.95,540.26Zm355.75,3c.25-1,5-17,5-17l17.5,10.25Z" style="stroke:#000"/><path d="M402.27,96.21a91.53,91.53,0,0,1-183.06,0v0a91.53,91.53,0,0,1,183.06,0Z" style="fill:#fff"/><path d="M313.65,19.21A77,77,0,1,0,382.83,133.8,59.5,59.5,0,1,1,381,55.55a76.93,76.93,0,0,0-65.37-36.34C315,19.21,314.31,19.19,313.65,19.21Z" style="fill:#e70013"/><path d="M408.65,97.2a94,94,0,1,1-94-94,94,94,0,0,1,94,94Z" style="fill:none;stroke:#e70013;stroke-linecap:square;stroke-linejoin:bevel;stroke-width:6px"/><path d="M365.37,122.14l-28.86-7.47-17.94,23.81-1.82-29.76L288.56,99,316.3,88.09l.53-29.81,19,23,28.51-8.71-16,25.14Z" style="fill:#e70013"/><path d="M204.71,394.12l-5.06,13.26m15.56-10.15L211,410.32M197.77,388.9l-5.92,11m34.33.68-3.84,12.74m14.78-11.17-3.32,12.56" style="fill:none;stroke:#000;stroke-width:2px"/><path d="M435.22,406.36l.49,12.09m-8.49-12.09.49,12.09m-8.49-12.09.49,12.09m-8.49-10.09.49,12.09m-8.49-12.09.49,12.09m-8.49-10.09.49,12.09m-8.49-12.09.49,12.09m-8.49-12.09.49,12.09m-8.39-10.09.28,12.1" style="fill:none;stroke:#000;stroke-width:5px"/><path d="M446,389.88l.74,13.57M430,391.88l.74,13.57M414,393.88l.74,13.57M398,393.88l.74,13.57" style="fill:none;stroke:#000;stroke-width:7px"/><path d="M363.33,412.36l.28,12.1m-8.28-12.1.28,12.1m-8.28-12.1.28,12.1m-8.28-12.1.28,12.1m-8.28-12.1.28,12.1m-7.91-12.09-.45,12.09m-7.55-12.09-.45,12.09m-7.49-12.09-.57,12.09m-7.43-12.09-.57,12.09m-7.29-14.08L291,422.44m-7.16-12.07L283,422.44" style="fill:none;stroke:#000;stroke-width:5px"/><path d="M361.47,281.93c25.07-16.39,114.77-34.72,114.77-34.72-40.51,46.3-9.1,105.49-9.1,105.49-56.91-13.5-90.24,22.79-90.24,22.79-21.58-27.54-27.35-58.58-15.43-93.56Zm25.07-48.22C249.58,259.75,212.93,335,212.93,335l15.43,46.3c32.59-20.29,61.07-29,83.91-26.76,45.83,4.59,68.3,23.87,66.56,21.93C321,311.83,387.87,233.41,386.54,233.71ZM201.36,353.31s-8.68-13.51-31.83-14.47c0,0,96.57-82.7,149.56-86.8,0,0-77.07,33.7-106.25,81.95C208.79,340.71,204.29,346.8,201.36,353.31Zm117.7-101.6c-69.45-12.54-191,61.09-191,61.09,23.14,2.89,40.5,26,40.5,26C258.27,260.68,319.06,251.71,319.06,251.71Z" style="fill:#c1c9eb"/><path d="M386.54,233.71C249.58,259.75,212.93,335,212.93,335l15.43,46.3c32.59-20.29,61.07-29,83.91-26.76,45.83,4.59,68.3,23.87,66.56,21.93C321,311.83,387.87,233.41,386.54,233.71Z" style="fill:url(#a)"/><path d="M361.47,281.93c25.07-16.39,114.77-34.72,114.77-34.72-40.51,46.3-9.1,105.49-9.1,105.49-56.91-13.5-90.24,22.79-90.24,22.79-21.58-27.54-27.35-58.58-15.43-93.56Z" style="fill:url(#a)"/><path d="M17.07,366.64a12.51,12.51,0,0,0-7.61,1.73v1.27a11.86,11.86,0,0,1,7.48-1.78,27.35,27.35,0,0,1,6.78,1.94c4.57,1.71,9.55,3.46,15.81-.16v-1.27c-6.44,3.71-10.82,2-15.37.27A28.13,28.13,0,0,0,17.07,366.64Z" style="fill:#fff"/><path d="M17.07,371.82a12.51,12.51,0,0,0-7.61,1.73v1.27A11.86,11.86,0,0,1,16.94,373,27.35,27.35,0,0,1,23.72,375c4.57,1.71,9.55,3.46,15.81-.16v-1.27c-6.44,3.71-10.82,2-15.37.27A28.13,28.13,0,0,0,17.07,371.82Z" style="fill:#fff"/><path d="M17.07,377a12.51,12.51,0,0,0-7.61,1.73V380a11.86,11.86,0,0,1,7.48-1.78,27.35,27.35,0,0,1,6.78,1.94c4.57,1.71,9.55,3.46,15.81-.16v-1.27c-6.44,3.71-10.82,2-15.37.27A28.13,28.13,0,0,0,17.07,377Z" style="fill:#fff"/><path d="M17.07,382.18a12.51,12.51,0,0,0-7.61,1.73v1.27a11.86,11.86,0,0,1,7.48-1.78,27.35,27.35,0,0,1,6.78,1.94c4.57,1.71,9.55,3.46,15.81-.16v-1.27c-6.44,3.71-10.82,2-15.37.27A28.13,28.13,0,0,0,17.07,382.18Z" style="fill:#fff"/><path d="M17.07,387.36a12.51,12.51,0,0,0-7.61,1.73v1.27a11.86,11.86,0,0,1,7.48-1.78,27.35,27.35,0,0,1,6.78,1.94c4.57,1.71,9.55,3.46,15.81-.16v-1.27c-6.44,3.71-10.82,2-15.37.27A28.13,28.13,0,0,0,17.07,387.36Z" style="fill:#fff"/><path d="M359.11,342.49h0l.09,0c-.34-1.13-.66-2.26-1-3.39l-.13.07Q358.58,340.79,359.11,342.49Z" style="fill:none"/><path d="M229,293.86q-.61-.1-1.2-.23-2,1.29-4,2.63l1.07.4Z" style="fill:none"/><path d="M356.79,333.26l.15-.07q-.35-1.84-.62-3.69l-.15.05Q356.44,331.41,356.79,333.26Z" style="fill:none"/><path d="M443.76,349.71c-1.27,0-2.53,0-3.77,0A12.78,12.78,0,0,0,443.76,349.71Z" style="fill:none"/><path d="M303.45,259.68l1.39-.64h-.16Z" style="fill:none"/><path d="M212.93,335s.6-1.23,1.93-3.43l-.51,0q-.78,1.2-1.51,2.42c-.42.7-.85,1.4-1.29,2.09a12.11,12.11,0,0,1,1.61-.39Z" style="fill:none"/><path d="M360.64,346.91l.08,0c-.41-1.12-.79-2.24-1.15-3.37l-.1.05Q360,345.24,360.64,346.91Z" style="fill:none"/><path d="M357.85,338l.12-.06c-.29-1.18-.57-2.36-.81-3.55l-.13.06Q357.4,336.19,357.85,338Z" style="fill:none"/><path d="M215.61,330.33c.66-1.06,1.45-2.27,2.39-3.63l-.28-.06q-1.32,1.82-2.55,3.68Z" style="fill:none"/><path d="M356,328.37l.13,0c-.17-1.26-.3-2.52-.41-3.79l-.15,0Q355.76,326.46,356,328.37Z" style="fill:none"/><path d="M419.45,260.76l6.49-1.73A11.94,11.94,0,0,0,419.45,260.76Z" style="fill:none"/><path d="M355.3,313.06l.15,0c.05-1.33.14-2.67.24-4l-.17,0C355.42,310.37,355.35,311.71,355.3,313.06Z" style="fill:none"/><path d="M355.25,318.25l.15,0c0-1.31,0-2.63,0-4l-.15,0Q355.21,316.26,355.25,318.25Z" style="fill:none"/><path d="M363.22,353.07l-.24-.54h0Z" style="fill:none"/><path d="M317.35,252c-.56.11-1.25.26-2.08.45q1.33-.19,2.62-.31Z" style="fill:none"/><path d="M306.47,248.72a11.75,11.75,0,0,0-7.12,1.59,106.14,106.14,0,0,1,14.79.68l-.89-.33A27.35,27.35,0,0,0,306.47,248.72Z" style="fill:none"/><path d="M355.49,323.36l.15,0c-.1-1.29-.17-2.59-.21-3.89l-.14,0C355.33,320.76,355.39,322.06,355.49,323.36Z" style="fill:none"/><path d="M355.63,307.78l.16-.05c.13-1.36.29-2.73.47-4.11l-.19.07Q355.82,305.72,355.63,307.78Z" style="fill:none"/><path d="M357.19,296.83l.26-.12q.44-2.18,1-4.39l-.3.16C357.79,293.91,357.48,295.36,357.19,296.83Z" style="fill:none"/><path d="M358.48,291l.33-.17q.59-2.29,1.29-4.61l-.4.21Q359,288.71,358.48,291Z" style="fill:none"/><path d="M218.52,325.57l.24.06c.7-1,1.47-2.06,2.32-3.18l-.14,0Q219.7,324,218.52,325.57Z" style="fill:none"/><path d="M362.48,351.45h0c-.49-1.16-1-2.33-1.39-3.5l-.07,0C361.49,349.13,362,350.29,362.48,351.45Z" style="fill:none"/><path d="M221.76,321.38l.1,0q1.1-1.44,2.36-3h0Q223,319.89,221.76,321.38Z" style="fill:none"/><path d="M356.26,302.38l.2-.07c.21-1.4.43-2.8.7-4.21l-.22.1C356.69,299.58,356.46,301,356.26,302.38Z" style="fill:none"/><path d="M329.36,249.07c1.39-.5,2.81-1,4.23-1.48A13.5,13.5,0,0,0,329.36,249.07Z" style="fill:#fff"/><path d="M314.14,251c1,.38,2.11.74,3.21,1,1.12-.23,1.71-.31,1.71-.31C317.45,251.42,315.8,251.19,314.14,251Z" style="fill:#fff"/><path d="M463.59,250.66a23.86,23.86,0,0,0,8.29,2c.3-.41.6-.81.91-1.22-3,.2-5.58-.71-8.2-1.69l-2.21.49Z" style="fill:#fff"/><path d="M299,250.5h0l.35-.19q-1.36,0-2.73.09a13.18,13.18,0,0,1-8.49.6q-1.54.15-3.09.34C289.11,252.74,293.57,253.63,299,250.5Z" style="fill:#fff"/><path d="M312.64,255.61l1.66-.7-.6-.23-.16-.06-1.54.75Z" style="fill:#fff"/><path d="M270.5,253.64c1.82-.36,3.63-.69,5.43-1A12,12,0,0,0,270.5,253.64Z" style="fill:#fff"/><path d="M313.53,254.62c-.93-.35-1.86-.7-2.81-1l-2.26.63a31.21,31.21,0,0,1,3.53,1.12Z" style="fill:#fff"/><path d="M456.93,252.68a12.51,12.51,0,0,0-7.61,1.73h0A13.81,13.81,0,0,1,437.81,256l-2.27.57c4,1.38,8.44,2.21,13.8-.88h0a11.86,11.86,0,0,1,7.47-1.78,27.35,27.35,0,0,1,6.78,1.94,35.89,35.89,0,0,0,5,1.57l.7-1.07a33.42,33.42,0,0,1-5.23-1.65A28.13,28.13,0,0,0,456.93,252.68Z" style="fill:#fff"/><path d="M365.35,238.31a11.72,11.72,0,0,0-5.34,1.36C361.77,239.21,363.54,238.75,365.35,238.31Z" style="fill:none"/><path d="M373.83,244.32a28.13,28.13,0,0,0-7.09-2,12.51,12.51,0,0,0-7.61,1.73h0c-6.44,3.7-10.81,2-15.37.27l0,0-1.93.6,1.53.57c4.57,1.71,9.55,3.46,15.81-.16h0a11.86,11.86,0,0,1,7.47-1.78,27.35,27.35,0,0,1,6.78,1.94,40.31,40.31,0,0,0,4.31,1.42l.67-1.08A38.77,38.77,0,0,1,373.83,244.32Z" style="fill:#fff"/><path d="M359.14,240.14h0c.29-.17.58-.32.87-.47q-4.76,1.24-9.32,2.55A14.38,14.38,0,0,0,359.14,240.14Z" style="fill:#fff"/><path d="M366.61,238.36a27.35,27.35,0,0,1,6.78,1.94,26.3,26.3,0,0,0,7.32,1.92l.77-1.16a23,23,0,0,1-7.65-1.92,40.24,40.24,0,0,0-5-1.65c-1.15.27-2.32.54-3.46.82A12.12,12.12,0,0,1,366.61,238.36Z" style="fill:#fff"/><path d="M384.43,236.81l1.06-1.49a13.22,13.22,0,0,1-7.37.09l-2.45.53A16.59,16.59,0,0,0,384.43,236.81Z" style="fill:#fff"/><path d="M366.74,247.5a12.51,12.51,0,0,0-7.61,1.73h0c-6.44,3.7-10.81,2-15.37.27a28.13,28.13,0,0,0-7.09-2,11.9,11.9,0,0,0-3.07.09c-1.42.49-2.84,1-4.23,1.48l-.3.16v0a15.74,15.74,0,0,1-5.72,2.08l-3.2,1.23a14.31,14.31,0,0,0,8.92-2h0a11.86,11.86,0,0,1,7.48-1.78,27.35,27.35,0,0,1,6.78,1.94c4.57,1.71,9.55,3.46,15.81-.16h0a11.86,11.86,0,0,1,7.47-1.78,27.35,27.35,0,0,1,6.78,1.94l1.67.61.63-1.08-1.87-.69A28.13,28.13,0,0,0,366.74,247.5Z" style="fill:#fff"/><path d="M359.13,254.41h0c-6.44,3.7-10.81,2-15.37.27a28.13,28.13,0,0,0-7.09-2,12.51,12.51,0,0,0-7.61,1.73v0c-6.16,3.55-10.43,2.12-14.77.5l-1.66.7.62.23c4.57,1.71,9.55,3.46,15.81-.16h0a11.86,11.86,0,0,1,7.48-1.78,27.35,27.35,0,0,1,6.78,1.94c4.57,1.71,9.55,3.46,15.81-.16h0a11.86,11.86,0,0,1,7.47-1.78,24.23,24.23,0,0,1,6,1.65l.61-1.09a25.77,25.77,0,0,0-6.51-1.78A12.51,12.51,0,0,0,359.13,254.41Z" style="fill:#fff"/><path d="M268.93,255.68h0a11.86,11.86,0,0,1,7.47-1.78,27.35,27.35,0,0,1,6.78,1.94c4.57,1.71,9.55,3.46,15.81-.16h0a11.86,11.86,0,0,1,7.47-1.78c.29,0,.58.07.87.12q1.36-.33,2.7-.62a18.19,18.19,0,0,0-3.44-.72,12.51,12.51,0,0,0-7.61,1.73h0c-6.44,3.7-10.81,2-15.36.27a28.13,28.13,0,0,0-7.09-2l-.6,0c-1.8.3-3.61.64-5.43,1a16.25,16.25,0,0,0-1.58.77h0a13.78,13.78,0,0,1-10.33,1.88l-2.42.61A14.84,14.84,0,0,0,268.93,255.68Z" style="fill:#fff"/><path d="M359.13,259.59h0c-6.44,3.7-10.81,2-15.37.27a28.13,28.13,0,0,0-7.09-2,12.51,12.51,0,0,0-7.61,1.73v0c-6.44,3.71-10.82,2-15.37.27a31,31,0,0,0-6.44-1.91l-2.4,1.08a11.88,11.88,0,0,1,1.62,0,27.35,27.35,0,0,1,6.78,1.94c4.57,1.71,9.55,3.46,15.81-.16h0a11.86,11.86,0,0,1,7.48-1.78,27.35,27.35,0,0,1,6.78,1.94c4.57,1.71,9.55,3.46,15.81-.16h0a11.86,11.86,0,0,1,7.47-1.78,17.8,17.8,0,0,1,3.72.84l.58-1.11a19.48,19.48,0,0,0-4.17-.95A12.51,12.51,0,0,0,359.13,259.59Z" style="fill:#fff"/><path d="M268.93,260.86h0a11.86,11.86,0,0,1,7.47-1.78,27.35,27.35,0,0,1,6.78,1.94c.66.25,1.34.5,2,.73l1.7-.73c-1.11-.34-2.19-.75-3.29-1.16a28.13,28.13,0,0,0-7.09-2,12.51,12.51,0,0,0-7.61,1.73h0c-6.44,3.7-10.81,2-15.37.27-1.19-.45-2.39-.9-3.62-1.27l-2.38.68a34.43,34.43,0,0,1,5.56,1.75C257.69,262.73,262.67,264.48,268.93,260.86Z" style="fill:#fff"/><path d="M299,260.86h0a12.35,12.35,0,0,1,5.69-1.82l2.21-1.14-.31,0a12.51,12.51,0,0,0-7.61,1.73h0a13.77,13.77,0,0,1-10.83,1.77l-1.83.75A14.81,14.81,0,0,0,299,260.86Z" style="fill:#fff"/><path d="M456.93,257.86a12.51,12.51,0,0,0-7.61,1.73h0c-6.44,3.7-10.81,2-15.37.27a40.83,40.83,0,0,0-5-1.63l-3.07.8.81.05a27.35,27.35,0,0,1,6.78,1.94c4.57,1.71,9.55,3.46,15.81-.16h0a11.86,11.86,0,0,1,7.47-1.78,27.35,27.35,0,0,1,6.78,1.94c.76.29,1.53.57,2.32.83.2-.36.4-.72.61-1.08-.83-.28-1.66-.59-2.49-.9A28.13,28.13,0,0,0,456.93,257.86Z" style="fill:#fff"/><path d="M419.27,260.86h0l.18-.1c-2.65.72-5.31,1.46-8,2.21A14.49,14.49,0,0,0,419.27,260.86Z" style="fill:#fff"/><path d="M287.59,267.64l1.63-.89a31.18,31.18,0,0,1-5.6-1.72c-.74-.28-1.49-.56-2.25-.82l-1.69.74c1.16.36,2.32.8,3.5,1.24A39.56,39.56,0,0,0,287.59,267.64Z" style="fill:#fff"/><path d="M359.13,264.77h0c-6.44,3.7-10.81,2-15.37.27a28.13,28.13,0,0,0-7.09-2,12.51,12.51,0,0,0-7.61,1.73v0c-6.44,3.71-10.82,2-15.37.27a28.13,28.13,0,0,0-7.09-2,12.51,12.51,0,0,0-7.61,1.73h0a14.08,14.08,0,0,1-8.73,2.13l-1.67,1A14.32,14.32,0,0,0,299,266h0a11.86,11.86,0,0,1,7.47-1.78,27.35,27.35,0,0,1,6.78,1.94c4.57,1.71,9.55,3.46,15.81-.16h0a11.86,11.86,0,0,1,7.48-1.78,27.35,27.35,0,0,1,6.78,1.94c4.57,1.71,9.55,3.46,15.81-.16h0a11.86,11.86,0,0,1,7.47-1.78,14.16,14.16,0,0,1,1.47.23l.55-1.14a16.09,16.09,0,0,0-1.89-.31A12.51,12.51,0,0,0,359.13,264.77Z" style="fill:#fff"/><path d="M238.87,266h0a11.86,11.86,0,0,1,7.47-1.78,27.35,27.35,0,0,1,6.78,1.94c4.57,1.71,9.55,3.46,15.81-.16h0a11.86,11.86,0,0,1,7.47-1.78,15.36,15.36,0,0,1,2.35.44l1.69-.79a19,19,0,0,0-3.91-.86,12.51,12.51,0,0,0-7.61,1.73h0c-6.44,3.7-10.81,2-15.37.27a28.13,28.13,0,0,0-7.09-2,12.51,12.51,0,0,0-7.61,1.73h0a14,14,0,0,1-12.37,1.34l-1.86.67C228.77,268.24,233.31,269.25,238.87,266Z" style="fill:#fff"/><path d="M456.93,263a12.51,12.51,0,0,0-7.61,1.73h0c-6.44,3.7-10.81,2-15.37.27a28.13,28.13,0,0,0-7.09-2,12.51,12.51,0,0,0-7.61,1.73h0c-6.34,3.65-10.68,2-15.15.35l-2,.59,1.31.49c4.57,1.71,9.55,3.46,15.81-.16h0a11.86,11.86,0,0,1,7.47-1.78,27.35,27.35,0,0,1,6.78,1.94c4.57,1.71,9.55,3.46,15.81-.16h0a11.86,11.86,0,0,1,7.47-1.78,27.35,27.35,0,0,1,6.78,1.94l.06,0c.18-.37.35-.75.54-1.12L464,265A28.13,28.13,0,0,0,456.93,263Z" style="fill:#fff"/><path d="M449.33,270h0c-6.44,3.7-10.81,2-15.37.27a28.13,28.13,0,0,0-7.09-2,12.51,12.51,0,0,0-7.61,1.73h0c-6.44,3.7-10.81,2-15.37.27a28.13,28.13,0,0,0-7.09-2,12,12,0,0,0-2.83,0q-2.16.7-4.26,1.41l-.52.27h0a15.27,15.27,0,0,1-6.37,2.15l-3,1.11a14.29,14.29,0,0,0,9.34-2h0a11.86,11.86,0,0,1,7.47-1.78,27.34,27.34,0,0,1,6.78,1.94c4.57,1.71,9.55,3.46,15.81-.16h0a11.86,11.86,0,0,1,7.47-1.78,27.35,27.35,0,0,1,6.78,1.94c4.57,1.71,9.55,3.46,15.81-.16h0a11.86,11.86,0,0,1,7.47-1.78,20.56,20.56,0,0,1,4.87,1.23c.16-.38.3-.76.47-1.15a21.82,21.82,0,0,0-5.22-1.31A12.51,12.51,0,0,0,449.33,270Z" style="fill:#fff"/><path d="M276.53,268.22a11.87,11.87,0,0,0-5.4.71q-4.21,2-8.75,4.38a14.86,14.86,0,0,0,6.55-2.09h0a11.86,11.86,0,0,1,7.47-1.78,22.14,22.14,0,0,1,5.41,1.43l1.41-.8A26.47,26.47,0,0,0,276.53,268.22Z" style="fill:#fff"/><path d="M359.13,270h0c-6.44,3.7-10.81,2-15.37.27a28.13,28.13,0,0,0-7.09-2,12.51,12.51,0,0,0-7.61,1.73v0c-6.44,3.71-10.82,2-15.37.27a28.13,28.13,0,0,0-7.09-2A12.51,12.51,0,0,0,299,270h0c-6.16,3.55-10.43,2.12-14.78.49l-1.35.81.33.13c4.57,1.71,9.55,3.46,15.81-.16h0a11.86,11.86,0,0,1,7.47-1.78,27.34,27.34,0,0,1,6.78,1.94c4.57,1.71,9.55,3.46,15.81-.16h0a11.86,11.86,0,0,1,7.48-1.78,27.35,27.35,0,0,1,6.78,1.94c4.57,1.71,9.55,3.46,15.81-.16h0a12,12,0,0,1,6.72-1.82l.52-1.19A12.57,12.57,0,0,0,359.13,270Z" style="fill:#fff"/><path d="M238.87,271.22h0a11.86,11.86,0,0,1,7.47-1.78,27.34,27.34,0,0,1,6.78,1.94c2.78,1,5.72,2.09,9,1.94l3.22-1.78c-4.59,1.43-8.13.05-11.79-1.32a28.13,28.13,0,0,0-7.09-2,12.51,12.51,0,0,0-7.61,1.73h0c-6.44,3.7-10.81,2-15.36.27-1.39-.52-2.8-1.06-4.25-1.46l-2.09.79a32.09,32.09,0,0,1,5.9,1.82C227.62,273.09,232.6,274.84,238.87,271.22Z" style="fill:#fff"/><path d="M268.93,276.4h0a12,12,0,0,1,6.68-1.83l1.74-1.06-.82-.11a12.51,12.51,0,0,0-7.61,1.73h0a14,14,0,0,1-12.34,1.34l-1.41.82C259.18,278.67,263.59,279.49,268.93,276.4Z" style="fill:#fff"/><path d="M359.13,275.13c-6.44,3.7-10.81,2-15.37.27a28.13,28.13,0,0,0-7.09-2,12.51,12.51,0,0,0-7.61,1.73v0c-6.44,3.71-10.82,2-15.37.27a28.13,28.13,0,0,0-7.09-2,12.51,12.51,0,0,0-7.61,1.73h0c-6.44,3.7-10.81,2-15.36.27a41.37,41.37,0,0,0-4.9-1.62l-1.51.94a31.67,31.67,0,0,1,6,1.83c4.57,1.71,9.55,3.46,15.81-.16h0a11.86,11.86,0,0,1,7.47-1.78,27.34,27.34,0,0,1,6.78,1.94c4.57,1.71,9.55,3.46,15.81-.16h0a11.86,11.86,0,0,1,7.48-1.78,27.35,27.35,0,0,1,6.78,1.94c4.57,1.71,9.55,3.46,15.81-.16h0a12.92,12.92,0,0,1,4.54-1.69l.5-1.28a13.38,13.38,0,0,0-5.05,1.71Z" style="fill:#fff"/><path d="M208.8,276.4h0a11.86,11.86,0,0,1,7.47-1.78,27.34,27.34,0,0,1,6.78,1.94c4.57,1.71,9.55,3.46,15.81-.16h0a11.86,11.86,0,0,1,7.47-1.78,27.34,27.34,0,0,1,6.78,1.94c.62.23,1.26.47,1.9.69l1.47-.8c-1-.31-2-.68-2.93-1a28.13,28.13,0,0,0-7.09-2,12.51,12.51,0,0,0-7.61,1.73h0c-6.44,3.7-10.81,2-15.36.27a28.13,28.13,0,0,0-7.09-2,12.51,12.51,0,0,0-7.61,1.73h0a13.8,13.8,0,0,1-10.12,1.93l-1.85.79A14.59,14.59,0,0,0,208.8,276.4Z" style="fill:#fff"/><path d="M449.33,275.13h0c-6.44,3.7-10.81,2-15.37.27a28.13,28.13,0,0,0-7.09-2,12.51,12.51,0,0,0-7.61,1.73h0c-6.44,3.7-10.81,2-15.37.27a28.13,28.13,0,0,0-7.09-2,12.51,12.51,0,0,0-7.61,1.73h0c-6.3,3.62-10.62,2-15.07.38l-1.64.71.91.34c4.57,1.71,9.55,3.46,15.81-.16h0a11.86,11.86,0,0,1,7.47-1.78,27.34,27.34,0,0,1,6.78,1.94c4.57,1.71,9.55,3.46,15.81-.16h0a11.86,11.86,0,0,1,7.47-1.78,27.35,27.35,0,0,1,6.78,1.94c4.57,1.71,9.55,3.46,15.81-.16h0a11.86,11.86,0,0,1,7.47-1.78,16.72,16.72,0,0,1,3.16.67c.13-.39.26-.78.39-1.17a18.18,18.18,0,0,0-3.43-.71A12.51,12.51,0,0,0,449.33,275.13Z" style="fill:#fff"/><path d="M449.33,280.31h0c-6.44,3.7-10.81,2-15.37.27a28.13,28.13,0,0,0-7.09-2,12.51,12.51,0,0,0-7.61,1.73h0c-6.44,3.7-10.81,2-15.37.27a28.13,28.13,0,0,0-7.09-2,12.51,12.51,0,0,0-7.61,1.73h0c-6.44,3.7-10.81,2-15.36.27a30.42,30.42,0,0,0-6.56-1.93q-1.1.55-2.11,1.1a12,12,0,0,1,1.45.05,27.35,27.35,0,0,1,6.78,1.94c4.57,1.71,9.55,3.46,15.81-.16h0a11.86,11.86,0,0,1,7.47-1.78,27.34,27.34,0,0,1,6.78,1.94c4.57,1.71,9.55,3.46,15.81-.16h0a11.86,11.86,0,0,1,7.47-1.78,27.35,27.35,0,0,1,6.78,1.94c4.57,1.71,9.55,3.46,15.81-.16h0a11.86,11.86,0,0,1,7.47-1.78,14.46,14.46,0,0,1,1.71.28c.11-.4.21-.79.32-1.19a16.12,16.12,0,0,0-1.91-.31A12.51,12.51,0,0,0,449.33,280.31Z" style="fill:#fff"/><path d="M261.84,283.69l2-1.41c-3.88.74-7-.47-10.29-1.69-.8-.3-1.61-.6-2.42-.89l-1.39.84c1.12.35,2.23.77,3.37,1.2A23,23,0,0,0,261.84,283.69Z" style="fill:#fff"/><path d="M208.8,281.58h0a11.86,11.86,0,0,1,7.47-1.78,27.34,27.34,0,0,1,6.78,1.94c4.57,1.71,9.55,3.46,15.81-.16h0a11.86,11.86,0,0,1,7.47-1.78,16.45,16.45,0,0,1,3,.62l1.47-.83a19.85,19.85,0,0,0-4.36-1,12.51,12.51,0,0,0-7.61,1.73h0c-6.44,3.7-10.81,2-15.36.27a28.13,28.13,0,0,0-7.09-2,12.51,12.51,0,0,0-7.61,1.73h0c-6.44,3.7-10.81,2-15.36.27L191.9,280l-1.65.73c.91.3,1.82.65,2.74,1C197.55,283.45,202.54,285.2,208.8,281.58Z" style="fill:#fff"/><path d="M359.13,280.31c-6.44,3.7-10.81,2-15.37.27a28.13,28.13,0,0,0-7.09-2,12.51,12.51,0,0,0-7.61,1.73v0c-6.44,3.71-10.82,2-15.37.27a28.13,28.13,0,0,0-7.09-2,12.51,12.51,0,0,0-7.61,1.73h0c-6.44,3.7-10.81,2-15.36.27a28.13,28.13,0,0,0-7.09-2,12.51,12.51,0,0,0-7.61,1.73h0c-.45.26-.88.48-1.31.69q-1.77,1.2-3.55,2.45a15.56,15.56,0,0,0,4.87-1.86h0a11.86,11.86,0,0,1,7.47-1.78,27.35,27.35,0,0,1,6.78,1.94c4.57,1.71,9.55,3.46,15.81-.16h0a11.86,11.86,0,0,1,7.47-1.78,27.34,27.34,0,0,1,6.78,1.94c4.57,1.71,9.55,3.46,15.81-.16h0a11.86,11.86,0,0,1,7.48-1.78,27.35,27.35,0,0,1,6.78,1.94c4.57,1.71,9.55,3.46,15.81-.16h0a14.52,14.52,0,0,1,2.45-1.15c.16-.47.32-.93.48-1.39a15,15,0,0,0-2.95,1.27Z" style="fill:#fff"/><path d="M359.7,286.46l.4-.21c.15-.48.29-1,.44-1.44l-.4.17C360,285.46,359.84,286,359.7,286.46Z" style="fill:#fff"/><path d="M359.13,285.49c-6.44,3.7-10.81,2-15.37.27a28.13,28.13,0,0,0-7.09-2,12.51,12.51,0,0,0-7.61,1.73v0c-6.44,3.71-10.82,2-15.37.27a28.13,28.13,0,0,0-7.09-2,12.51,12.51,0,0,0-7.61,1.73h0c-6.44,3.7-10.81,2-15.36.27a28.13,28.13,0,0,0-7.09-2,12.51,12.51,0,0,0-7.61,1.73h0a13.78,13.78,0,0,1-10.34,1.88l-1.27.93a14.51,14.51,0,0,0,11.62-1.54h0A11.86,11.86,0,0,1,276.4,285a27.35,27.35,0,0,1,6.78,1.94c4.57,1.71,9.55,3.46,15.81-.16h0a11.86,11.86,0,0,1,7.47-1.78,27.34,27.34,0,0,1,6.78,1.94c4.57,1.71,9.55,3.46,15.81-.16h0a11.86,11.86,0,0,1,7.48-1.78,27.35,27.35,0,0,1,6.78,1.94c4.57,1.71,9.55,3.46,15.81-.16h0l.56-.3c.14-.5.29-1,.44-1.49-.33.16-.67.33-1,.52Z" style="fill:#fff"/><path d="M246.34,285a27.34,27.34,0,0,1,6.78,1.94c1,.36,1.94.72,3,1l1.2-.91c-1.26-.36-2.48-.82-3.72-1.28a28.13,28.13,0,0,0-7.09-2,12.24,12.24,0,0,0-1.88,0l-2.68,1.68A11.2,11.2,0,0,1,246.34,285Z" style="fill:#fff"/><path d="M449.33,285.49h0c-6.44,3.7-10.81,2-15.37.27a28.13,28.13,0,0,0-7.09-2,12.51,12.51,0,0,0-7.61,1.73h0c-6.44,3.7-10.81,2-15.37.27a28.13,28.13,0,0,0-7.09-2,12.51,12.51,0,0,0-7.61,1.73h0c-6.44,3.7-10.81,2-15.36.27a28.13,28.13,0,0,0-7.09-2,12,12,0,0,0-6.2,1c-.15.48-.29,1-.44,1.44a11.52,11.52,0,0,1,6.51-1.26,27.35,27.35,0,0,1,6.78,1.94c4.57,1.71,9.55,3.46,15.81-.16h0a11.86,11.86,0,0,1,7.47-1.78,27.34,27.34,0,0,1,6.78,1.94c4.57,1.71,9.55,3.46,15.81-.16h0a11.86,11.86,0,0,1,7.47-1.78,27.35,27.35,0,0,1,6.78,1.94c4.57,1.71,9.55,3.46,15.81-.16h0a11.86,11.86,0,0,1,7.47-1.78l.53.07c.08-.4.17-.8.26-1.2l-.66-.09A12.51,12.51,0,0,0,449.33,285.49Z" style="fill:#fff"/><path d="M178.73,286.76a11.86,11.86,0,0,1,7.47-1.78,27.35,27.35,0,0,1,6.78,1.94c4.57,1.71,9.55,3.46,15.81-.16h0a11.86,11.86,0,0,1,7.47-1.78,27.34,27.34,0,0,1,6.78,1.94c4.23,1.59,8.81,3.19,14.44.55q3-1.88,6-3.64a13.63,13.63,0,0,0-4.63,1.65h0c-6.44,3.7-10.81,2-15.36.27a28.13,28.13,0,0,0-7.09-2,12.51,12.51,0,0,0-7.61,1.73h0c-6.44,3.7-10.81,2-15.36.27a28.13,28.13,0,0,0-7.09-2,12,12,0,0,0-2.81,0q-5.41,2.5-10.46,5a15.19,15.19,0,0,0,5.67-2Z" style="fill:#fff"/><path d="M358.13,292.48l.3-.16q.18-.73.37-1.47l-.33.17C358.36,291.51,358.24,292,358.13,292.48Z" style="fill:#fff"/><path d="M449.33,290.67h0c-6.44,3.7-10.81,2-15.37.27a28.13,28.13,0,0,0-7.09-2,12.51,12.51,0,0,0-7.61,1.73h0c-6.44,3.7-10.81,2-15.37.27a28.13,28.13,0,0,0-7.09-2,12.51,12.51,0,0,0-7.61,1.73h0c-6.44,3.7-10.81,2-15.36.27a28.13,28.13,0,0,0-7.09-2,12.51,12.51,0,0,0-7.61,1.73h0l-.33.17q-.19.74-.37,1.47c.24-.12.47-.24.71-.38h0a11.86,11.86,0,0,1,7.47-1.78,27.35,27.35,0,0,1,6.78,1.94c4.57,1.71,9.55,3.46,15.81-.16h0a11.86,11.86,0,0,1,7.47-1.78,27.35,27.35,0,0,1,6.78,1.94c4.57,1.71,9.55,3.46,15.81-.16h0a11.86,11.86,0,0,1,7.47-1.78,27.35,27.35,0,0,1,6.78,1.94c4.57,1.71,9.55,3.46,15.81-.16h0a11.9,11.9,0,0,1,7.12-1.8c.06-.4.12-.81.19-1.21A12.55,12.55,0,0,0,449.33,290.67Z" style="fill:#fff"/><path d="M238.87,291.94h0a11.86,11.86,0,0,1,7.47-1.78,21.5,21.5,0,0,1,5.2,1.35l1.13-.9a24.71,24.71,0,0,0-6.2-1.67,12.51,12.51,0,0,0-7.61,1.73h0a14.24,14.24,0,0,1-8.33,2.17l-1.51,1A14.28,14.28,0,0,0,238.87,291.94Z" style="fill:#fff"/><path d="M178.73,291.94h0a11.86,11.86,0,0,1,7.47-1.78A27.35,27.35,0,0,1,193,292.1c4.57,1.71,9.55,3.46,15.81-.16h0a11.86,11.86,0,0,1,7.47-1.78,27.35,27.35,0,0,1,6.78,1.94,37.18,37.18,0,0,0,4.77,1.53l1.44-.94a30.26,30.26,0,0,1-5.76-1.74,28.13,28.13,0,0,0-7.09-2,12.51,12.51,0,0,0-7.61,1.73h0c-6.44,3.7-10.81,2-15.36.27a28.13,28.13,0,0,0-7.09-2,12.51,12.51,0,0,0-7.61,1.73h0A14,14,0,0,1,166.42,292l-1.55.78C168.91,294.19,173.35,295.05,178.73,291.94Z" style="fill:#fff"/><path d="M343.76,290.94a28.13,28.13,0,0,0-7.09-2,12.51,12.51,0,0,0-7.61,1.73v0c-6.44,3.71-10.82,2-15.37.27a28.13,28.13,0,0,0-7.09-2,12.51,12.51,0,0,0-7.61,1.73h0c-6.44,3.7-10.81,2-15.36.27a28.13,28.13,0,0,0-7.09-2,12.51,12.51,0,0,0-7.61,1.73h0c-6.35,3.66-10.7,2-15.19.34l-1.15.89.54.2c4.57,1.71,9.55,3.46,15.81-.16h0a11.86,11.86,0,0,1,7.47-1.78,27.35,27.35,0,0,1,6.78,1.94c4.57,1.71,9.55,3.46,15.81-.16h0a11.86,11.86,0,0,1,7.47-1.78,27.35,27.35,0,0,1,6.78,1.94c4.57,1.71,9.55,3.46,15.81-.16h0a11.86,11.86,0,0,1,7.48-1.78,27.35,27.35,0,0,1,6.78,1.94c4.32,1.62,9,3.26,14.8.38.11-.49.23-1,.35-1.46C352.4,294.24,348.16,292.59,343.76,290.94Z" style="fill:#fff"/><path d="M356.94,298.2l.22-.1c.09-.46.19-.93.28-1.39l-.26.12C357.1,297.28,357,297.74,356.94,298.2Z" style="fill:#fff"/><path d="M343.76,296.12a28.13,28.13,0,0,0-7.09-2,12.51,12.51,0,0,0-7.61,1.73v0c-6.44,3.71-10.82,2-15.37.27a28.13,28.13,0,0,0-7.09-2,12.51,12.51,0,0,0-7.61,1.73h0c-6.44,3.7-10.81,2-15.36.27a28.13,28.13,0,0,0-7.09-2,12.51,12.51,0,0,0-7.61,1.73h0c-6.44,3.7-10.81,2-15.37.27a46.41,46.41,0,0,0-4.41-1.5l-1.21,1a37.42,37.42,0,0,1,5.18,1.68c4.57,1.71,9.55,3.46,15.81-.16h0a11.86,11.86,0,0,1,7.47-1.78,27.35,27.35,0,0,1,6.78,1.94c4.57,1.71,9.55,3.46,15.81-.16h0a11.86,11.86,0,0,1,7.47-1.78,27.35,27.35,0,0,1,6.78,1.94c4.57,1.71,9.55,3.46,15.81-.16h0a11.86,11.86,0,0,1,7.48-1.78,27.35,27.35,0,0,1,6.78,1.94c4,1.51,8.36,3,13.61.92.08-.46.16-.92.25-1.37C351.79,299.19,347.84,297.65,343.76,296.12Z" style="fill:#fff"/><path d="M449.33,295.85c-6.44,3.7-10.81,2-15.37.27a28.13,28.13,0,0,0-7.09-2,12.51,12.51,0,0,0-7.61,1.73h0c-6.44,3.7-10.81,2-15.37.27a28.13,28.13,0,0,0-7.09-2,12.51,12.51,0,0,0-7.61,1.73h0c-6.44,3.7-10.81,2-15.36.27a28.13,28.13,0,0,0-7.09-2,12.51,12.51,0,0,0-7.61,1.73h0c-.58.33-1.14.61-1.68.86-.09.46-.2.93-.28,1.39a17.47,17.47,0,0,0,2-1h0a11.86,11.86,0,0,1,7.47-1.78,27.35,27.35,0,0,1,6.78,1.94c4.57,1.71,9.55,3.46,15.81-.16h0a11.86,11.86,0,0,1,7.47-1.78,27.35,27.35,0,0,1,6.78,1.94c4.57,1.71,9.55,3.46,15.81-.16h0a11.86,11.86,0,0,1,7.47-1.78,27.35,27.35,0,0,1,6.78,1.94c4.57,1.71,9.55,3.46,15.81-.16h0a12,12,0,0,1,6.53-1.83c0-.41.07-.81.11-1.22a12.72,12.72,0,0,0-6.65,1.78Z" style="fill:#fff"/><path d="M238.87,297.12h0a11.86,11.86,0,0,1,7.47-1.78l.51.07,1.22-1a15.77,15.77,0,0,0-1.6-.25,12.51,12.51,0,0,0-7.61,1.73h0c-5.76,3.32-9.87,2.28-13.94.8l-1.24.86C228.07,299.14,232.89,300.58,238.87,297.12Z" style="fill:#fff"/><path d="M178.73,297.12h0a11.86,11.86,0,0,1,7.47-1.78,27.35,27.35,0,0,1,6.78,1.94c4.57,1.71,9.55,3.46,15.81-.16h0a11.86,11.86,0,0,1,7.47-1.78,25.31,25.31,0,0,1,6.3,1.76l1.27-.85-.35-.13a28.13,28.13,0,0,0-7.09-2,12.51,12.51,0,0,0-7.61,1.73h0c-6.44,3.7-10.81,2-15.36.27a28.13,28.13,0,0,0-7.09-2,12.51,12.51,0,0,0-7.61,1.73h0c-6.44,3.7-10.81,2-15.37.27-1-.37-2-.74-2.95-1.06l-1.58.81c1.36.38,2.71.89,4.09,1.41C167.49,299,172.47,300.74,178.73,297.12Z" style="fill:#fff"/><path d="M356.08,303.69l.19-.07c.06-.44.12-.88.19-1.32l-.2.07C356.19,302.82,356.14,303.25,356.08,303.69Z" style="fill:#fff"/><path d="M238.87,302.3h0c.27-.16.53-.29.79-.43q1.14-1.07,2.33-2.16a14.76,14.76,0,0,0-3.13,1.32h0c-6.44,3.7-10.81,2-15.36.27-1.15-.43-2.31-.87-3.49-1.24l-1.3.91c1.45.38,2.88.93,4.36,1.48C227.62,304.17,232.6,305.92,238.87,302.3Z" style="fill:#fff"/><path d="M148.67,302.3a11.86,11.86,0,0,1,7.47-1.78,27.35,27.35,0,0,1,6.78,1.94c4.57,1.71,9.55,3.46,15.81-.16h0a11.86,11.86,0,0,1,7.47-1.78,27.35,27.35,0,0,1,6.78,1.94c4.57,1.71,9.55,3.46,15.81-.16h0a11.86,11.86,0,0,1,7.47-1.78c.36,0,.72.09,1.08.16l1.39-1a16.61,16.61,0,0,0-2.34-.42,12.51,12.51,0,0,0-7.61,1.73h0c-6.44,3.7-10.81,2-15.36.27a28.13,28.13,0,0,0-7.09-2,12.51,12.51,0,0,0-7.61,1.73h0c-6.44,3.7-10.81,2-15.37.27a28.13,28.13,0,0,0-7.09-2A11.85,11.85,0,0,0,151,300q-4.38,2.33-8,4.34a15.17,15.17,0,0,0,5.71-2Z" style="fill:#fff"/><path d="M449.33,301c-6.44,3.7-10.81,2-15.37.27a28.13,28.13,0,0,0-7.09-2,12.51,12.51,0,0,0-7.61,1.73h0c-6.44,3.7-10.81,2-15.37.27a28.13,28.13,0,0,0-7.09-2,12.51,12.51,0,0,0-7.61,1.73h0c-6.44,3.7-10.81,2-15.36.27a28.13,28.13,0,0,0-7.09-2,12.51,12.51,0,0,0-7.61,1.73h0a18.64,18.64,0,0,1-2.67,1.27c-.07.44-.13.88-.19,1.32a16.79,16.79,0,0,0,2.87-1.32h0a11.86,11.86,0,0,1,7.47-1.78,27.35,27.35,0,0,1,6.78,1.94c4.57,1.71,9.55,3.46,15.81-.16h0a11.86,11.86,0,0,1,7.47-1.78,27.35,27.35,0,0,1,6.78,1.94c4.57,1.71,9.55,3.46,15.81-.16h0a11.86,11.86,0,0,1,7.47-1.78,27.35,27.35,0,0,1,6.78,1.94c4.57,1.71,9.55,3.46,15.81-.16h0a12.12,12.12,0,0,1,6.24-1.83q0-.61,0-1.22a12.82,12.82,0,0,0-6.29,1.78Z" style="fill:#fff"/><path d="M343.76,301.3a28.13,28.13,0,0,0-7.09-2,12.51,12.51,0,0,0-7.61,1.73v0c-6.44,3.71-10.82,2-15.37.27a28.13,28.13,0,0,0-7.09-2A12.51,12.51,0,0,0,299,301h0c-6.44,3.7-10.81,2-15.36.27a28.13,28.13,0,0,0-7.09-2,12.51,12.51,0,0,0-7.61,1.73h0c-6.44,3.7-10.81,2-15.37.27a28.13,28.13,0,0,0-7.09-2,11.9,11.9,0,0,0-3.05.09l-2,1.71a11.24,11.24,0,0,1,4.89-.58,27.35,27.35,0,0,1,6.78,1.94c4.57,1.71,9.55,3.46,15.81-.16h0a11.86,11.86,0,0,1,7.47-1.78,27.35,27.35,0,0,1,6.78,1.94c4.57,1.71,9.55,3.46,15.81-.16h0a11.86,11.86,0,0,1,7.47-1.78,27.35,27.35,0,0,1,6.78,1.94c4.57,1.71,9.55,3.46,15.81-.16h0a11.86,11.86,0,0,1,7.48-1.78,27.35,27.35,0,0,1,6.78,1.94c3.8,1.42,7.89,2.86,12.76,1.23.06-.44.11-.87.17-1.31C351.32,304.18,347.6,302.74,343.76,301.3Z" style="fill:#fff"/><path d="M355.52,309l.17,0c0-.42.06-.85.1-1.27l-.16.05C355.59,308.2,355.55,308.62,355.52,309Z" style="fill:#fff"/><path d="M216.27,305.7a27.35,27.35,0,0,1,6.78,1.94c2.75,1,5.66,2.07,8.91,1.94l1.24-1.3c-3.62.52-6.62-.64-9.71-1.8a28.13,28.13,0,0,0-7.09-2,12,12,0,0,0-2.67,0l-2.55,1.84A11.25,11.25,0,0,1,216.27,305.7Z" style="fill:#fff"/><path d="M148.67,307.48h0a11.86,11.86,0,0,1,7.47-1.78,27.35,27.35,0,0,1,6.78,1.94c4.57,1.71,9.55,3.46,15.81-.16h0a11.86,11.86,0,0,1,7.47-1.78,27.35,27.35,0,0,1,6.78,1.94c3.87,1.45,8,2.91,13,1.14q2.46-1.81,4.89-3.55a15.78,15.78,0,0,0-2.1,1h0c-6.44,3.7-10.81,2-15.36.27a28.13,28.13,0,0,0-7.09-2,12.51,12.51,0,0,0-7.61,1.73h0c-6.44,3.7-10.81,2-15.37.27a28.13,28.13,0,0,0-7.09-2,12.51,12.51,0,0,0-7.61,1.73h0a13.86,13.86,0,0,1-11.83,1.5l-1.45.82C139.27,309.81,143.54,310.44,148.67,307.48Z" style="fill:#fff"/><path d="M449.33,306.21c-6.44,3.7-10.81,2-15.37.27a28.13,28.13,0,0,0-7.09-2,12.51,12.51,0,0,0-7.61,1.73h0c-6.44,3.7-10.81,2-15.37.27a28.13,28.13,0,0,0-7.09-2,12.51,12.51,0,0,0-7.61,1.73h0c-6.44,3.7-10.81,2-15.36.27a28.13,28.13,0,0,0-7.09-2,12.51,12.51,0,0,0-7.61,1.73h0a18,18,0,0,1-3.33,1.52c0,.43-.07.85-.1,1.27a16.48,16.48,0,0,0,3.45-1.52h0a11.86,11.86,0,0,1,7.47-1.78,27.35,27.35,0,0,1,6.78,1.94c4.57,1.71,9.55,3.46,15.81-.16h0a11.86,11.86,0,0,1,7.47-1.78,27.35,27.35,0,0,1,6.78,1.94c4.57,1.71,9.55,3.46,15.81-.16h0a11.86,11.86,0,0,1,7.47-1.78,27.35,27.35,0,0,1,6.78,1.94c4.57,1.71,9.55,3.46,15.81-.16h0a12.12,12.12,0,0,1,6.23-1.83c0-.4,0-.81,0-1.22a12.85,12.85,0,0,0-6.22,1.78Z" style="fill:#fff"/><path d="M343.76,306.48a28.13,28.13,0,0,0-7.09-2,12.51,12.51,0,0,0-7.61,1.73v0c-6.44,3.71-10.82,2-15.37.27a28.13,28.13,0,0,0-7.09-2,12.51,12.51,0,0,0-7.61,1.73h0c-6.44,3.7-10.81,2-15.36.27a28.13,28.13,0,0,0-7.09-2,12.51,12.51,0,0,0-7.61,1.73h0c-6.44,3.7-10.81,2-15.37.27a28.13,28.13,0,0,0-7.09-2,12.51,12.51,0,0,0-7.61,1.73h0a16.27,16.27,0,0,1-5,2l-1.4,1.39a14.88,14.88,0,0,0,6.43-2.08h0a11.86,11.86,0,0,1,7.47-1.78,27.35,27.35,0,0,1,6.78,1.94c4.57,1.71,9.55,3.46,15.81-.16h0a11.86,11.86,0,0,1,7.47-1.78,27.35,27.35,0,0,1,6.78,1.94c4.57,1.71,9.55,3.46,15.81-.16h0a11.86,11.86,0,0,1,7.47-1.78,27.35,27.35,0,0,1,6.78,1.94c4.57,1.71,9.55,3.46,15.81-.16h0a11.86,11.86,0,0,1,7.48-1.78,27.35,27.35,0,0,1,6.78,1.94c3.65,1.37,7.57,2.75,12.2,1.41,0-.42.07-.84.11-1.26C351,309.25,347.44,307.86,343.76,306.48Z" style="fill:#fff"/><path d="M355.26,314.3l.15,0q0-.62,0-1.24l-.15,0C355.29,313.47,355.27,313.88,355.26,314.3Z" style="fill:#fff"/><path d="M148.67,312.66h0a11.86,11.86,0,0,1,7.47-1.78,27.35,27.35,0,0,1,6.78,1.94c4.57,1.71,9.55,3.46,15.81-.16h0a11.86,11.86,0,0,1,7.47-1.78,27.35,27.35,0,0,1,6.78,1.94,33.58,33.58,0,0,0,5.4,1.66l1.31-1a27.79,27.79,0,0,1-6.27-1.82,28.13,28.13,0,0,0-7.09-2,12.51,12.51,0,0,0-7.61,1.73h0c-6.44,3.7-10.81,2-15.37.27a28.13,28.13,0,0,0-7.09-2,12.51,12.51,0,0,0-7.61,1.73h0c-6.44,3.7-10.81,2-15.36.27l-2-.75-1.41.83c1,.32,2,.7,3,1.08C137.42,314.53,142.41,316.28,148.67,312.66Z" style="fill:#fff"/><path d="M343.76,311.66a28.13,28.13,0,0,0-7.09-2,12.51,12.51,0,0,0-7.61,1.73v0c-6.44,3.71-10.82,2-15.37.27a28.13,28.13,0,0,0-7.09-2,12.51,12.51,0,0,0-7.61,1.73h0c-6.44,3.7-10.81,2-15.36.27a28.13,28.13,0,0,0-7.09-2,12.51,12.51,0,0,0-7.61,1.73h0c-6.44,3.7-10.81,2-15.37.27a28.13,28.13,0,0,0-7.09-2,12.51,12.51,0,0,0-7.61,1.73h0a13.8,13.8,0,0,1-10.07,1.93l-1,1a14.39,14.39,0,0,0,11-1.69h0a11.86,11.86,0,0,1,7.47-1.78,27.35,27.35,0,0,1,6.78,1.94c4.57,1.71,9.55,3.46,15.81-.16h0a11.86,11.86,0,0,1,7.47-1.78,27.35,27.35,0,0,1,6.78,1.94c4.57,1.71,9.55,3.46,15.81-.16h0a11.86,11.86,0,0,1,7.47-1.78,27.35,27.35,0,0,1,6.78,1.94c4.57,1.71,9.55,3.46,15.81-.16h0a11.86,11.86,0,0,1,7.48-1.78,27.35,27.35,0,0,1,6.78,1.94c3.58,1.34,7.42,2.69,11.93,1.48,0-.41,0-.83,0-1.24C350.84,314.36,347.35,313,343.76,311.66Z" style="fill:#fff"/><path d="M449.33,311.39c-6.44,3.7-10.81,2-15.37.27a28.13,28.13,0,0,0-7.09-2,12.51,12.51,0,0,0-7.61,1.73h0c-6.44,3.7-10.81,2-15.37.27a28.13,28.13,0,0,0-7.09-2,12.51,12.51,0,0,0-7.61,1.73h0c-6.44,3.7-10.81,2-15.36.27a28.13,28.13,0,0,0-7.09-2,12.51,12.51,0,0,0-7.61,1.73h0a17.56,17.56,0,0,1-3.68,1.62q0,.62,0,1.24a16.23,16.23,0,0,0,3.73-1.59h0a11.86,11.86,0,0,1,7.47-1.78,27.35,27.35,0,0,1,6.78,1.94c4.57,1.71,9.55,3.46,15.81-.16h0a11.86,11.86,0,0,1,7.47-1.78,27.35,27.35,0,0,1,6.78,1.94c4.57,1.71,9.55,3.46,15.81-.16h0a11.86,11.86,0,0,1,7.47-1.78,27.35,27.35,0,0,1,6.78,1.94c4.57,1.71,9.55,3.46,15.81-.16h0a12.05,12.05,0,0,1,6.48-1.83c0-.4-.06-.81-.09-1.22a12.79,12.79,0,0,0-6.41,1.78Z" style="fill:#fff"/><path d="M208.8,312.66h0a11.86,11.86,0,0,1,7.47-1.78,27.35,27.35,0,0,1,6.78,1.94,38.05,38.05,0,0,0,4.63,1.49l.9-1a34.41,34.41,0,0,1-5.09-1.62,28.13,28.13,0,0,0-7.09-2,12.51,12.51,0,0,0-7.61,1.73h0a14.65,14.65,0,0,1-7.42,2.2l-1.47,1.11A14.31,14.31,0,0,0,208.8,312.66Z" style="fill:#fff"/><path d="M224.22,318.43l.12-.15-.13.15Z" style="fill:#fff"/><path d="M355.28,319.47l.14,0c0-.41,0-.82,0-1.23l-.15,0C355.26,318.66,355.27,319.06,355.28,319.47Z" style="fill:#fff"/><path d="M148.67,317.84a11.86,11.86,0,0,1,7.47-1.78,27.34,27.34,0,0,1,6.78,1.94c4.57,1.71,9.55,3.46,15.81-.16h0a11.86,11.86,0,0,1,7.47-1.78A27.35,27.35,0,0,1,193,318l.56.21,1.15-.89-1.27-.47a28.13,28.13,0,0,0-7.09-2,12.51,12.51,0,0,0-7.61,1.73h0c-6.44,3.7-10.81,2-15.37.27a28.13,28.13,0,0,0-7.09-2,12.51,12.51,0,0,0-7.61,1.73h0a17.12,17.12,0,0,1-4.1,1.74c.48.26,1,.52,1.42.78a16.93,16.93,0,0,0,2.68-1.25Z" style="fill:#fff"/><path d="M449.33,316.57h0c-6.44,3.7-10.81,2-15.37.27a28.13,28.13,0,0,0-7.09-2,12.51,12.51,0,0,0-7.61,1.73h0c-6.44,3.7-10.81,2-15.37.27a28.13,28.13,0,0,0-7.09-2,12.51,12.51,0,0,0-7.61,1.73h0c-6.44,3.7-10.81,2-15.36.27a28.13,28.13,0,0,0-7.09-2,12.51,12.51,0,0,0-7.61,1.73h0a17.5,17.5,0,0,1-3.73,1.63c0,.41,0,.82,0,1.23a16.24,16.24,0,0,0,3.72-1.59h0a11.86,11.86,0,0,1,7.47-1.78,27.35,27.35,0,0,1,6.78,1.94c4.57,1.71,9.55,3.46,15.81-.16h0a11.86,11.86,0,0,1,7.47-1.78,27.34,27.34,0,0,1,6.78,1.94c4.57,1.71,9.55,3.46,15.81-.16h0a11.86,11.86,0,0,1,7.47-1.78,27.35,27.35,0,0,1,6.78,1.94c4.57,1.71,9.55,3.46,15.81-.16h0a11.92,11.92,0,0,1,7-1.81q-.08-.61-.15-1.23A12.65,12.65,0,0,0,449.33,316.57Z" style="fill:#fff"/><path d="M208.8,317.84h0a11.86,11.86,0,0,1,7.47-1.78,27.34,27.34,0,0,1,6.78,1.94l1.16.43.13-.15.7-.86-1.56-.58a28.13,28.13,0,0,0-7.09-2,12.51,12.51,0,0,0-7.61,1.73h0c-5.27,3-9.16,2.42-12.9,1.16l-1.17.9C198.82,320.07,203.32,321,208.8,317.84Z" style="fill:#fff"/><path d="M343.76,316.84a28.13,28.13,0,0,0-7.09-2,12.51,12.51,0,0,0-7.61,1.73v0c-6.44,3.71-10.82,2-15.37.27a28.13,28.13,0,0,0-7.09-2,12.51,12.51,0,0,0-7.61,1.73h0c-6.44,3.7-10.81,2-15.36.27a28.13,28.13,0,0,0-7.09-2,12.51,12.51,0,0,0-7.61,1.73h0c-6.44,3.7-10.81,2-15.37.27a28.13,28.13,0,0,0-7.09-2,12.51,12.51,0,0,0-7.61,1.73h0c-5.69,3.27-9.77,2.31-13.78.86l-.73.85-.12.15c4.25,1.54,8.91,2.72,14.65-.59h0a11.86,11.86,0,0,1,7.47-1.78,27.34,27.34,0,0,1,6.78,1.94c4.57,1.71,9.55,3.46,15.81-.16h0a11.86,11.86,0,0,1,7.47-1.78,27.35,27.35,0,0,1,6.78,1.94c4.57,1.71,9.55,3.46,15.81-.16h0a11.86,11.86,0,0,1,7.47-1.78,27.34,27.34,0,0,1,6.78,1.94c4.57,1.71,9.55,3.46,15.81-.16h0a11.86,11.86,0,0,1,7.48-1.78,27.35,27.35,0,0,1,6.78,1.94c3.59,1.35,7.44,2.7,12,1.47,0-.41,0-.81,0-1.22C350.81,319.52,347.34,318.18,343.76,316.84Z" style="fill:#fff"/><path d="M220.94,322.4l.14,0,.78-1-.1,0Z" style="fill:#fff"/><path d="M355.59,324.57l.15,0c0-.4-.07-.8-.1-1.21l-.15,0C355.52,323.76,355.55,324.17,355.59,324.57Z" style="fill:#fff"/><path d="M343.76,322a28.13,28.13,0,0,0-7.09-2,12.51,12.51,0,0,0-7.61,1.73v0c-6.44,3.71-10.82,2-15.37.27a28.13,28.13,0,0,0-7.09-2,12.51,12.51,0,0,0-7.61,1.73h0c-6.44,3.7-10.81,2-15.36.27a28.13,28.13,0,0,0-7.09-2,12.51,12.51,0,0,0-7.61,1.73h0c-6.44,3.7-10.81,2-15.37.27a28.13,28.13,0,0,0-7.09-2,12.51,12.51,0,0,0-7.61,1.73h0c-6.44,3.7-10.81,2-15.36.27l-1.63-.61-.78,1,2,.73c4.57,1.71,9.55,3.46,15.81-.16h0a11.86,11.86,0,0,1,7.47-1.78,27.34,27.34,0,0,1,6.78,1.94c4.57,1.71,9.55,3.46,15.81-.16h0a11.86,11.86,0,0,1,7.47-1.78,27.35,27.35,0,0,1,6.78,1.94c4.57,1.71,9.55,3.46,15.81-.16h0a11.86,11.86,0,0,1,7.47-1.78,27.34,27.34,0,0,1,6.78,1.94c4.57,1.71,9.55,3.46,15.81-.16h0a11.86,11.86,0,0,1,7.48-1.78,27.35,27.35,0,0,1,6.78,1.94c3.67,1.38,7.61,2.77,12.26,1.39,0-.4-.07-.8-.1-1.2C350.93,324.76,347.4,323.39,343.76,322Z" style="fill:#fff"/><path d="M449.33,321.75h0c-6.44,3.7-10.81,2-15.37.27a28.13,28.13,0,0,0-7.09-2,12.51,12.51,0,0,0-7.61,1.73h0c-6.44,3.7-10.81,2-15.37.27a28.13,28.13,0,0,0-7.09-2,12.51,12.51,0,0,0-7.61,1.73h0c-6.44,3.7-10.81,2-15.36.27a28.13,28.13,0,0,0-7.09-2,12.51,12.51,0,0,0-7.61,1.73h0a17.82,17.82,0,0,1-3.49,1.57c0,.4.07.81.1,1.21a16.53,16.53,0,0,0,3.4-1.51h0a11.86,11.86,0,0,1,7.47-1.78,27.35,27.35,0,0,1,6.78,1.94c4.57,1.71,9.55,3.46,15.81-.16h0a11.86,11.86,0,0,1,7.47-1.78,27.34,27.34,0,0,1,6.78,1.94c4.57,1.71,9.55,3.46,15.81-.16h0a11.86,11.86,0,0,1,7.47-1.78,27.35,27.35,0,0,1,6.78,1.94c4.57,1.71,9.55,3.46,15.81-.16h0a11.86,11.86,0,0,1,7.47-1.78l.3,0c-.07-.42-.14-.84-.21-1.26A12.52,12.52,0,0,0,449.33,321.75Z" style="fill:#fff"/><path d="M208.8,323h0a11.86,11.86,0,0,1,7.47-1.78,20,20,0,0,1,4.67,1.16l.82-1A22.2,22.2,0,0,0,216.4,320a12.51,12.51,0,0,0-7.61,1.73h0c-6.44,3.7-10.81,2-15.36.27-.7-.26-1.39-.52-2.1-.77l-1.17.91c.94.31,1.87.67,2.83,1C197.55,324.89,202.54,326.64,208.8,323Z" style="fill:#fff"/><path d="M156.14,321.24a27.34,27.34,0,0,1,6.78,1.94c4.57,1.71,9.55,3.46,15.81-.16h0a11.86,11.86,0,0,1,7.47-1.78,16.07,16.07,0,0,1,2.79.56l1.18-.93a18.88,18.88,0,0,0-3.84-.84,12.51,12.51,0,0,0-7.61,1.73h0c-6.44,3.7-10.81,2-15.37.27a28.13,28.13,0,0,0-7.09-2,12.18,12.18,0,0,0-6.72,1.27l1.1.75A11.28,11.28,0,0,1,156.14,321.24Z" style="fill:#fff"/><path d="M218.52,325.57l-.79,1.08.28.06.75-1.08Z" style="fill:#fff"/><path d="M356.17,329.56l.15-.05c-.06-.39-.12-.79-.17-1.18l-.13,0C356.06,328.77,356.11,329.16,356.17,329.56Z" style="fill:#fff"/><path d="M449.33,326.93h0c-6.44,3.7-10.81,2-15.37.27a28.13,28.13,0,0,0-7.09-2,12.51,12.51,0,0,0-7.61,1.73h0c-6.44,3.7-10.81,2-15.37.27a28.13,28.13,0,0,0-7.09-2,12.51,12.51,0,0,0-7.61,1.73h0c-6.44,3.7-10.81,2-15.36.27a28.13,28.13,0,0,0-7.09-2,12.51,12.51,0,0,0-7.61,1.73h0a18.27,18.27,0,0,1-3,1.39c.05.4.11.79.17,1.18a16.83,16.83,0,0,0,2.82-1.3h0a11.86,11.86,0,0,1,7.47-1.78,27.35,27.35,0,0,1,6.78,1.94c4.57,1.71,9.55,3.46,15.81-.16h0a11.86,11.86,0,0,1,7.47-1.78,27.34,27.34,0,0,1,6.78,1.94c4.57,1.71,9.55,3.46,15.81-.16h0a11.86,11.86,0,0,1,7.47-1.78,27.35,27.35,0,0,1,6.78,1.94c4.57,1.71,9.55,3.46,15.81-.16h0a11.86,11.86,0,0,1,7.47-1.78c.45,0,.9.12,1.35.21-.09-.43-.19-.87-.28-1.3-.31-.05-.63-.09-.95-.12A12.51,12.51,0,0,0,449.33,326.93Z" style="fill:#fff"/><path d="M178.73,328.2h0a13,13,0,0,1,4.41-1.67l1.68-1.38a12.89,12.89,0,0,0-6.1,1.78h0c-6.44,3.7-10.81,2-15.37.27a28.13,28.13,0,0,0-7.09-2,12.42,12.42,0,0,0-1.42-.05q.83.66,1.61,1.31a28.89,28.89,0,0,1,6.46,1.9C167.49,330.07,172.47,331.82,178.73,328.2Z" style="fill:#fff"/><path d="M343.76,327.2a28.13,28.13,0,0,0-7.09-2,12.51,12.51,0,0,0-7.61,1.73v0c-6.44,3.71-10.82,2-15.37.27a28.13,28.13,0,0,0-7.09-2,12.51,12.51,0,0,0-7.61,1.73h0c-6.44,3.7-10.81,2-15.36.27a28.13,28.13,0,0,0-7.09-2,12.51,12.51,0,0,0-7.61,1.73h0c-6.44,3.7-10.81,2-15.37.27a28.13,28.13,0,0,0-7.09-2,12.51,12.51,0,0,0-7.61,1.73h0c-6.44,3.7-10.81,2-15.36.27a43,43,0,0,0-4.73-1.58l-.75,1.08a38.6,38.6,0,0,1,5,1.65c4.57,1.71,9.55,3.46,15.81-.16h0a11.86,11.86,0,0,1,7.47-1.78,27.34,27.34,0,0,1,6.78,1.94c4.57,1.71,9.55,3.46,15.81-.16h0a11.86,11.86,0,0,1,7.47-1.78,27.35,27.35,0,0,1,6.78,1.94c4.57,1.71,9.55,3.46,15.81-.16h0a11.86,11.86,0,0,1,7.47-1.78,27.34,27.34,0,0,1,6.78,1.94c4.57,1.71,9.55,3.46,15.81-.16h0a11.86,11.86,0,0,1,7.48-1.78,27.35,27.35,0,0,1,6.78,1.94c3.82,1.43,7.94,2.88,12.84,1.2-.06-.4-.11-.79-.16-1.19C351.2,330,347.54,328.62,343.76,327.2Z" style="fill:#fff"/><path d="M216.4,325.2a12.51,12.51,0,0,0-7.61,1.73h0c-6.44,3.7-10.81,2-15.36.27a28.13,28.13,0,0,0-7.09-2h-.05l-1.48,1.17a12,12,0,0,1,1.41.05,27.35,27.35,0,0,1,6.78,1.94c4.57,1.71,9.55,3.46,15.81-.16h0a11.86,11.86,0,0,1,7.47-1.78,14.16,14.16,0,0,1,1.45.23l.79-1.08A16.33,16.33,0,0,0,216.4,325.2Z" style="fill:#fff"/><path d="M215.61,330.33h-.44l-.82,1.24.51,0Z" style="fill:#fff"/><path d="M357,334.42l.13-.06c-.08-.39-.14-.78-.22-1.16l-.15.07C356.87,333.65,357,334,357,334.42Z" style="fill:#fff"/><path d="M449.33,332.11h0c-6.44,3.7-10.81,2-15.37.27a28.13,28.13,0,0,0-7.09-2,12.51,12.51,0,0,0-7.61,1.73h0c-6.44,3.7-10.81,2-15.37.27a28.13,28.13,0,0,0-7.09-2,12.51,12.51,0,0,0-7.61,1.73h0c-6.44,3.7-10.81,2-15.36.27a28.13,28.13,0,0,0-7.09-2,12.51,12.51,0,0,0-7.61,1.73h0a19.3,19.3,0,0,1-2.19,1.08c.07.39.14.78.22,1.16a17.48,17.48,0,0,0,2-1h0a11.86,11.86,0,0,1,7.47-1.78,27.35,27.35,0,0,1,6.78,1.94c4.57,1.71,9.55,3.46,15.81-.16h0a11.86,11.86,0,0,1,7.47-1.78,27.35,27.35,0,0,1,6.78,1.94c4.57,1.71,9.55,3.46,15.81-.16h0a11.86,11.86,0,0,1,7.47-1.78,27.35,27.35,0,0,1,6.78,1.94c4.57,1.71,9.55,3.46,15.81-.16h0a11.86,11.86,0,0,1,7.47-1.78,15.9,15.9,0,0,1,2.69.53q-.18-.67-.36-1.36a16.45,16.45,0,0,0-2.21-.39A12.51,12.51,0,0,0,449.33,332.11Z" style="fill:#fff"/><path d="M163.36,332.38l-.79-.3c.71.72,1.36,1.4,2,2a18.68,18.68,0,0,0,8,1.31l1.74-1.48C170.08,335,166.77,333.66,163.36,332.38Z" style="fill:#fff"/><path d="M343.76,332.38a28.13,28.13,0,0,0-7.09-2,12.51,12.51,0,0,0-7.61,1.73v0c-6.44,3.71-10.82,2-15.37.27a28.13,28.13,0,0,0-7.09-2,12.51,12.51,0,0,0-7.61,1.73h0c-6.44,3.7-10.81,2-15.36.27a28.13,28.13,0,0,0-7.09-2,12.51,12.51,0,0,0-7.61,1.73h0c-6.44,3.7-10.81,2-15.37.27a28.13,28.13,0,0,0-7.09-2,12.51,12.51,0,0,0-7.61,1.73h0c-6.44,3.7-10.81,2-15.36.27a28.13,28.13,0,0,0-7.09-2l-.78,0-.75,1.22a12,12,0,0,1,1.41.05,27.35,27.35,0,0,1,6.78,1.94c4.57,1.71,9.55,3.46,15.81-.16h0a11.86,11.86,0,0,1,7.47-1.78,27.35,27.35,0,0,1,6.78,1.94c4.57,1.71,9.55,3.46,15.81-.16h0a11.86,11.86,0,0,1,7.47-1.78,27.35,27.35,0,0,1,6.78,1.94c4.57,1.71,9.55,3.46,15.81-.16h0a11.86,11.86,0,0,1,7.47-1.78,27.35,27.35,0,0,1,6.78,1.94c4.57,1.71,9.55,3.46,15.81-.16h0a11.86,11.86,0,0,1,7.48-1.78,27.35,27.35,0,0,1,6.78,1.94c4,1.52,8.42,3.05,13.71.88-.08-.38-.17-.77-.24-1.15C351.59,335.38,347.74,333.88,343.76,332.38Z" style="fill:#fff"/><path d="M178.73,333.38a11.86,11.86,0,0,1,7.47-1.78,27.35,27.35,0,0,1,6.78,1.94c4.57,1.71,9.55,3.46,15.81-.16h0a12.39,12.39,0,0,1,5.55-1.81l.82-1.24a12.79,12.79,0,0,0-6.38,1.78h0c-6.44,3.7-10.81,2-15.36.27a28.13,28.13,0,0,0-7.09-2,12.51,12.51,0,0,0-7.61,1.73h0a18.72,18.72,0,0,1-2.62,1.25l-2.3,1.89a15.52,15.52,0,0,0,4.92-1.87Z" style="fill:#fff"/><path d="M358.13,339.1l.13-.07c-.1-.37-.2-.74-.29-1.12l-.12.06C357.94,338.35,358,338.72,358.13,339.1Z" style="fill:#fff"/><path d="M449.33,337.29h0c-6.44,3.7-10.81,2-15.37.27a28.13,28.13,0,0,0-7.09-2,12.51,12.51,0,0,0-7.61,1.73h0c-6.44,3.7-10.81,2-15.37.27a28.13,28.13,0,0,0-7.09-2,12.51,12.51,0,0,0-7.61,1.73h0c-6.44,3.7-10.81,2-15.36.27a28.13,28.13,0,0,0-7.09-2,12.51,12.51,0,0,0-7.61,1.73h0c-.39.23-.78.43-1.16.62.09.37.19.75.29,1.12.29-.15.58-.3.88-.47h0a11.86,11.86,0,0,1,7.47-1.78,27.35,27.35,0,0,1,6.78,1.94c4.57,1.71,9.55,3.46,15.81-.16h0a11.86,11.86,0,0,1,7.47-1.78,27.35,27.35,0,0,1,6.78,1.94c4.57,1.71,9.55,3.46,15.81-.16h0a11.86,11.86,0,0,1,7.47-1.78,27.35,27.35,0,0,1,6.78,1.94c4.57,1.71,9.55,3.46,15.81-.16h0a11.86,11.86,0,0,1,7.47-1.78,19.27,19.27,0,0,1,4.37,1.06q-.23-.71-.46-1.45a18.79,18.79,0,0,0-3.79-.82A12.51,12.51,0,0,0,449.33,337.29Z" style="fill:#fff"/><path d="M178.73,338.56a11.86,11.86,0,0,1,7.47-1.78,27.35,27.35,0,0,1,6.78,1.94c4.57,1.71,9.55,3.46,15.81-.16h0a15.23,15.23,0,0,1,1.74-.87l1-1.61a15.11,15.11,0,0,0-2.76,1.21h0c-6.44,3.7-10.81,2-15.36.27a28.13,28.13,0,0,0-7.09-2,12.51,12.51,0,0,0-7.61,1.73h0a16.52,16.52,0,0,1-4.76,1.9c.92.11,1.82.24,2.69.39a17.44,17.44,0,0,0,2.08-1Z" style="fill:#fff"/><path d="M343.76,337.56a28.13,28.13,0,0,0-7.09-2,12.51,12.51,0,0,0-7.61,1.73v0c-6.44,3.71-10.82,2-15.37.27a28.13,28.13,0,0,0-7.09-2,12.51,12.51,0,0,0-7.61,1.73h0c-6.44,3.7-10.81,2-15.36.27a28.13,28.13,0,0,0-7.09-2,12.51,12.51,0,0,0-7.61,1.73h0c-6.44,3.7-10.81,2-15.37.27a28.13,28.13,0,0,0-7.09-2,12.51,12.51,0,0,0-7.61,1.73h0c-6.44,3.7-10.81,2-15.36.27a28.13,28.13,0,0,0-7.09-2,11.88,11.88,0,0,0-3.23.12l.38,1.15a11.43,11.43,0,0,1,2.72,0,27.35,27.35,0,0,1,6.78,1.94c4.57,1.71,9.55,3.46,15.81-.16h0a11.86,11.86,0,0,1,7.47-1.78,27.35,27.35,0,0,1,6.78,1.94c4.57,1.71,9.55,3.46,15.81-.16h0a11.86,11.86,0,0,1,7.47-1.78,27.35,27.35,0,0,1,6.78,1.94c4.57,1.71,9.55,3.46,15.81-.16h0a11.86,11.86,0,0,1,7.47-1.78,27.35,27.35,0,0,1,6.78,1.94c4.57,1.71,9.55,3.46,15.81-.16h0a11.86,11.86,0,0,1,7.48-1.78,27.35,27.35,0,0,1,6.78,1.94c4.32,1.62,9,3.26,14.8.38-.1-.38-.19-.75-.28-1.13C352.1,340.76,348,339.16,343.76,337.56Z" style="fill:#fff"/><path d="M359.13,342.47h0c.11.36.24.72.36,1.08l.1-.05-.34-1.09-.09,0Z" style="fill:#fff"/><path d="M193,343.9c3.82,1.43,7.94,2.88,12.85,1.19l1-1.65c-5.41,2.37-9.36.84-13.44-.7a28.13,28.13,0,0,0-7.09-2,11.8,11.8,0,0,0-3.76.22c1,.29,1.91.61,2.81.95l.83.05A27.35,27.35,0,0,1,193,343.9Z" style="fill:#fff"/><path d="M343.76,342.74a28.13,28.13,0,0,0-7.09-2,12.51,12.51,0,0,0-7.61,1.73v0c-6.44,3.71-10.82,2-15.37.27a28.13,28.13,0,0,0-7.09-2,12.51,12.51,0,0,0-7.61,1.73h0c-6.44,3.7-10.81,2-15.36.27a28.13,28.13,0,0,0-7.09-2,12.51,12.51,0,0,0-7.61,1.73h0c-6.44,3.7-10.81,2-15.37.27a28.13,28.13,0,0,0-7.09-2,12.51,12.51,0,0,0-7.61,1.73h0c-6.44,3.7-10.81,2-15.36.27a28.13,28.13,0,0,0-7.09-2,12.36,12.36,0,0,0-1.56,0l.4,1.21c.35,0,.69,0,1,.05a27.35,27.35,0,0,1,6.78,1.94c4.57,1.71,9.55,3.46,15.81-.16h0a11.86,11.86,0,0,1,7.47-1.78,27.35,27.35,0,0,1,6.78,1.94c4.57,1.71,9.55,3.46,15.81-.16h0A11.86,11.86,0,0,1,276.4,342a27.35,27.35,0,0,1,6.78,1.94c4.57,1.71,9.55,3.46,15.81-.16h0a11.86,11.86,0,0,1,7.47-1.78,27.35,27.35,0,0,1,6.78,1.94c4.57,1.71,9.55,3.46,15.81-.16h0a11.86,11.86,0,0,1,7.48-1.78,27.35,27.35,0,0,1,6.78,1.94c4.57,1.71,9.55,3.46,15.81-.16h0l.33-.18c-.12-.36-.25-.72-.36-1.08C352.68,346.17,348.31,344.45,343.76,342.74Z" style="fill:#fff"/><path d="M449.33,342.47h0c-6.44,3.7-10.81,2-15.37.27a28.13,28.13,0,0,0-7.09-2,12.51,12.51,0,0,0-7.61,1.73h0c-6.44,3.7-10.81,2-15.37.27a28.13,28.13,0,0,0-7.09-2,12.51,12.51,0,0,0-7.61,1.73h0c-6.44,3.7-10.81,2-15.36.27a28.13,28.13,0,0,0-7.09-2,12.48,12.48,0,0,0-7.52,1.68l.34,1.09a11.72,11.72,0,0,1,7.05-1.55,27.35,27.35,0,0,1,6.78,1.94c4.57,1.71,9.55,3.46,15.81-.16h0a11.86,11.86,0,0,1,7.47-1.78,27.35,27.35,0,0,1,6.78,1.94c4.57,1.71,9.55,3.46,15.81-.16h0a11.86,11.86,0,0,1,7.47-1.78,27.35,27.35,0,0,1,6.78,1.94c4.57,1.71,9.55,3.46,15.81-.16h0a11.86,11.86,0,0,1,7.47-1.78,25.9,25.9,0,0,1,6.45,1.81c-.19-.49-.38-1-.57-1.53a23.3,23.3,0,0,0-5.76-1.5A12.51,12.51,0,0,0,449.33,342.47Z" style="fill:#fff"/><path d="M361,348l.07,0-.39-1.06-.08,0C360.77,347.27,360.9,347.62,361,348Z" style="fill:#fff"/><path d="M440,349.71q-2.13,0-4.19.18c3.48,1.16,7.27,1.86,11.7-.06q-1.89-.1-3.74-.13A12.78,12.78,0,0,1,440,349.71Z" style="fill:#fff"/><path d="M434,347.92a28.13,28.13,0,0,0-7.09-2,12.51,12.51,0,0,0-7.61,1.73h0c-6.44,3.7-10.81,2-15.37.27a28.13,28.13,0,0,0-7.09-2,12.51,12.51,0,0,0-7.61,1.73h0c-6.44,3.7-10.81,2-15.36.27a28.13,28.13,0,0,0-7.09-2,12,12,0,0,0-6,1l.39,1.06a11.29,11.29,0,0,1,5.5-.8,27.35,27.35,0,0,1,6.78,1.94c4.57,1.71,9.55,3.46,15.81-.16h0a11.86,11.86,0,0,1,7.47-1.78,27.35,27.35,0,0,1,6.78,1.94c4.57,1.71,9.55,3.46,15.81-.16h0a11.86,11.86,0,0,1,7.47-1.78,27.35,27.35,0,0,1,6.78,1.94c.75.28,1.5.56,2.28.82q2.06-.13,4.19-.18A28.9,28.9,0,0,1,434,347.92Z" style="fill:#fff"/><path d="M456.93,345.92a12.51,12.51,0,0,0-7.61,1.73h0a15.87,15.87,0,0,1-5.57,2.06q1.85,0,3.74.13a17.55,17.55,0,0,0,1.83-.91h0a11.86,11.86,0,0,1,7.47-1.78,27.35,27.35,0,0,1,6.78,1.94c.72.27,1.45.54,2.19.79-.21-.46-.44-1-.68-1.55l-1.07-.4A28.13,28.13,0,0,0,456.93,345.92Z" style="fill:#fff"/><path d="M238.87,348.92h0a11.86,11.86,0,0,1,7.47-1.78,27.35,27.35,0,0,1,6.78,1.94c4.57,1.71,9.55,3.46,15.81-.16h0a11.86,11.86,0,0,1,7.47-1.78,27.35,27.35,0,0,1,6.78,1.94c4.57,1.71,9.55,3.46,15.81-.16h0a11.86,11.86,0,0,1,7.47-1.78,27.35,27.35,0,0,1,6.78,1.94c4.57,1.71,9.55,3.46,15.81-.16h0a11.86,11.86,0,0,1,7.48-1.78,27.35,27.35,0,0,1,6.78,1.94c4.57,1.71,9.55,3.46,15.81-.16h0A15.15,15.15,0,0,1,361,348c-.14-.35-.27-.71-.4-1.06a16.32,16.32,0,0,0-1.51.74h0c-6.44,3.7-10.81,2-15.37.27a28.13,28.13,0,0,0-7.09-2,12.51,12.51,0,0,0-7.61,1.73v0c-6.44,3.71-10.82,2-15.37.27a28.13,28.13,0,0,0-7.09-2,12.51,12.51,0,0,0-7.61,1.73h0c-6.44,3.7-10.81,2-15.36.27a28.13,28.13,0,0,0-7.09-2,12.51,12.51,0,0,0-7.61,1.73h0c-6.44,3.7-10.81,2-15.37.27a28.13,28.13,0,0,0-7.09-2,12.51,12.51,0,0,0-7.61,1.73h0c-6.44,3.7-10.81,2-15.36.27a28.9,28.9,0,0,0-6.91-2l.43,1.29a31.26,31.26,0,0,1,6,1.84C227.62,350.79,232.6,352.54,238.87,348.92Z" style="fill:#fff"/><path d="M197.85,349.39c.59.54,1.1,1,1.53,1.51a14.4,14.4,0,0,0,3.1.08c.22-.43.45-.85.68-1.27A13.53,13.53,0,0,1,197.85,349.39Z" style="fill:#fff"/><path d="M298.36,354.44a97.19,97.19,0,0,0-10.2,1.39A14.28,14.28,0,0,0,298.36,354.44Z" style="fill:#fff"/><path d="M363,352.54h0c-.16-.36-.33-.72-.48-1.09h0C362.64,351.81,362.81,352.18,363,352.54Z" style="fill:#fff"/><path d="M323.76,356q-4.36-.72-9.06-1.25A17.94,17.94,0,0,0,323.76,356Z" style="fill:#fff"/><path d="M238.87,354.1h0a11.86,11.86,0,0,1,7.47-1.78,27.35,27.35,0,0,1,6.78,1.94c4.57,1.71,9.55,3.46,15.81-.16h0a11.86,11.86,0,0,1,7.47-1.78,27.35,27.35,0,0,1,6.78,1.94,35.88,35.88,0,0,0,5,1.57,97.19,97.19,0,0,1,10.2-1.39l.64-.34h0a11.86,11.86,0,0,1,7.47-1.78,27.35,27.35,0,0,1,6.78,1.94l1.45.53q4.7.53,9.06,1.25a15.35,15.35,0,0,0,5.3-1.94h0a11.86,11.86,0,0,1,7.48-1.78,27.35,27.35,0,0,1,6.78,1.94c4.57,1.71,9.55,3.46,15.81-.16h0a13.43,13.43,0,0,1,3.83-1.56c-.17-.36-.34-.72-.5-1.09a14.55,14.55,0,0,0-3.35,1.38h0c-6.44,3.7-10.81,2-15.37.27a28.13,28.13,0,0,0-7.09-2,12.51,12.51,0,0,0-7.61,1.73v0c-6.44,3.71-10.82,2-15.37.27a28.13,28.13,0,0,0-7.09-2,12.51,12.51,0,0,0-7.61,1.73h0c-6.44,3.7-10.81,2-15.36.27a28.13,28.13,0,0,0-7.09-2,12.51,12.51,0,0,0-7.61,1.73h0c-6.44,3.7-10.81,2-15.37.27a28.13,28.13,0,0,0-7.09-2,12.51,12.51,0,0,0-7.61,1.73h0c-6.44,3.7-10.81,2-15.36.27a39.8,39.8,0,0,0-5.07-1.66l.46,1.38c1.39.38,2.77.91,4.18,1.44C227.62,356,232.6,357.72,238.87,354.1Z" style="fill:#fff"/><path d="M403.9,353.1a28.13,28.13,0,0,0-7.09-2,12.51,12.51,0,0,0-7.61,1.73h0c-6.44,3.7-10.81,2-15.36.27a28.13,28.13,0,0,0-7.09-2,11.79,11.79,0,0,0-4.23.34c.15.36.32.73.48,1.09a11.25,11.25,0,0,1,3.63-.21,27.35,27.35,0,0,1,6.78,1.94c4.57,1.71,9.55,3.46,15.81-.16h0a11.86,11.86,0,0,1,7.47-1.78,27.35,27.35,0,0,1,6.78,1.94,36.84,36.84,0,0,0,4.82,1.54q1.13-.43,2.3-.83A26.12,26.12,0,0,1,403.9,353.1Z" style="fill:#fff"/><path d="M425.91,351a12,12,0,0,0-5,1Q423.37,351.47,425.91,351Z" style="fill:#fff"/><path d="M389.19,358h0c-6.44,3.7-10.81,2-15.36.27a28.13,28.13,0,0,0-7.09-2,12.21,12.21,0,0,0-2,0c.21.4.41.8.62,1.2.4,0,.81,0,1.2.05a27.35,27.35,0,0,1,6.78,1.94c4.57,1.71,9.55,3.46,15.81-.16h0a11.86,11.86,0,0,1,7.47-1.78,20.2,20.2,0,0,1,4.74,1.19L403,358a24.76,24.76,0,0,0-6.22-1.67A12.51,12.51,0,0,0,389.19,358Z" style="fill:#fff"/><path d="M336.54,357.5a27.35,27.35,0,0,1,6.78,1.94c4.57,1.71,9.55,3.46,15.81-.16h0a12.14,12.14,0,0,1,6.17-1.83l-.6-1.2a13.12,13.12,0,0,0-5.58,1.76h0c-6.44,3.7-10.81,2-15.37.27a28.13,28.13,0,0,0-7.09-2,12,12,0,0,0-6.16,1l2.21.47A11.24,11.24,0,0,1,336.54,357.5Z" style="fill:#fff"/><path d="M238.87,359.28h0a11.86,11.86,0,0,1,7.47-1.78,27.34,27.34,0,0,1,6.78,1.94c4.57,1.71,9.55,3.46,15.81-.16h0a11.86,11.86,0,0,1,7.47-1.78,15.61,15.61,0,0,1,2.5.48l2.26-.59a20.44,20.44,0,0,0-4.63-1.1,12.51,12.51,0,0,0-7.61,1.73h0c-6.44,3.7-10.81,2-15.37.27a28.13,28.13,0,0,0-7.09-2,12.51,12.51,0,0,0-7.61,1.73h0c-6.44,3.7-10.81,2-15.36.27-1-.39-2.1-.79-3.17-1.13l.49,1.47c.74.26,1.49.54,2.25.82C227.62,361.15,232.6,362.9,238.87,359.28Z" style="fill:#fff"/><path d="M359.13,363.19h0a18,18,0,0,1-3.33,1.51l1.59.63a17.61,17.61,0,0,0,1.75-.88h0a11.86,11.86,0,0,1,7.47-1.78,14.48,14.48,0,0,1,1.72.28l-.81-1.4-.79-.1A12.51,12.51,0,0,0,359.13,363.19Z" style="fill:#fff"/><path d="M389.19,363.19h0c-6.44,3.7-10.81,2-15.36.27a33,33,0,0,0-6.05-1.86c.29.48.6,1,.9,1.44a41.91,41.91,0,0,1,4.71,1.57c4.57,1.71,9.55,3.46,15.81-.16h0a13,13,0,0,1,4.4-1.67q1.18-.69,2.43-1.38A12.66,12.66,0,0,0,389.19,363.19Z" style="fill:#fff"/><path d="M238.87,364.46h0a11.86,11.86,0,0,1,7.47-1.78,27.34,27.34,0,0,1,6.78,1.94c1.25.47,2.54.94,3.87,1.3l1.83-.8a33.2,33.2,0,0,1-5.27-1.66,28.13,28.13,0,0,0-7.09-2,12.51,12.51,0,0,0-7.61,1.73h0c-6.44,3.7-10.81,2-15.36.27l-1.22-.46.5,1.51.28.1C227.62,366.33,232.6,368.08,238.87,364.46Z" style="fill:#fff"/><path d="M366.74,366.64a11.81,11.81,0,0,0-5,.56l1.72.78a11.35,11.35,0,0,1,3.12-.12,23.65,23.65,0,0,1,5.87,1.6c-.4-.58-.8-1.16-1.18-1.74A20.28,20.28,0,0,0,366.74,366.64Z" style="fill:#fff"/><path d="M238.87,369.64h0a11.86,11.86,0,0,1,7.47-1.78,19.07,19.07,0,0,1,4.29,1l1.56-.76a23.2,23.2,0,0,0-5.72-1.49,12.51,12.51,0,0,0-7.61,1.73h0c-6.08,3.5-10.32,2.15-14.61.55l.5,1.49C228.85,371.86,233.37,372.82,238.87,369.64Z" style="fill:#fff"/><path d="M373.83,368.64,372,368q.66.91,1.34,1.82l0,0a25.69,25.69,0,0,0,7.54,1.93l1.42-1.18C379.25,370.7,376.57,369.67,373.83,368.64Z" style="fill:#fff"/><path d="M238.86,373.55h0a14.06,14.06,0,0,1-12.66,1.25l.47,1.42a14.66,14.66,0,0,0,12.19-1.39h0a14.36,14.36,0,0,1,2.64-1.22q1.72-.94,3.42-1.83A12.9,12.9,0,0,0,238.86,373.55Z" style="fill:#fff"/><path d="M376.63,375.13l-.31-.4-.73-.25Z" style="fill:#fff"/><path d="M228.36,381.28l.87-.54q-.57-.09-1.13-.22Z" style="fill:#fff"/><path d="M361.47,281.93c25.07-16.39,114.77-34.72,114.77-34.72-40.51,46.3-9.1,105.49-9.1,105.49-56.91-13.5-90.24,22.79-90.24,22.79-21.58-27.54-27.35-58.58-15.43-93.56Zm25.07-48.22C249.58,259.75,212.93,335,212.93,335l15.43,46.3c32.59-20.29,61.07-29,83.91-26.76,45.83,4.59,68.3,23.87,66.56,21.93C321,311.83,387.87,233.41,386.54,233.71ZM201.36,353.31s-8.68-13.51-31.83-14.47c0,0,96.57-82.7,149.56-86.8,0,0-77.07,33.7-106.25,81.95C208.79,340.71,204.29,346.8,201.36,353.31Zm117.7-101.6c-69.45-12.54-191,61.09-191,61.09,23.14,2.89,40.5,26,40.5,26C258.27,260.68,319.06,251.71,319.06,251.71Z" style="fill:none;stroke:#000;stroke-width:3px"/></svg>