<svg xmlns="http://www.w3.org/2000/svg" xmlns:xlink="http://www.w3.org/1999/xlink" viewBox="0 0 960.61 1153.2"><defs><linearGradient id="a" x1="1686.18" y1="771.77" x2="1637.74" y2="729.7" gradientTransform="matrix(1, 0, 0, -1, -1027.48, 1212.92)" gradientUnits="userSpaceOnUse"><stop offset="0" stop-color="#250"/><stop offset="1" stop-color="#250" stop-opacity="0"/></linearGradient><filter id="b" x="-0.39" y="-0.43" width="1.77" height="1.85" name="filter3744"><feGaussianBlur result="feGaussianBlur3746" stdDeviation="4.98"/></filter><radialGradient id="c" cx="1273.75" cy="369.66" r="15.96" gradientTransform="matrix(1, 0, 0, -0.91, -1027.48, 1176.25)" gradientUnits="userSpaceOnUse"><stop offset="0" stop-color="#fff" stop-opacity="0.31"/><stop offset="0.19" stop-color="#fff" stop-opacity="0.25"/><stop offset="0.6" stop-color="#6b6b6b" stop-opacity="0.13"/><stop offset="1" stop-opacity="0.13"/></radialGradient><filter id="d" x="-0.42" y="-0.42" width="1.83" height="1.84" name="filter3740"><feGaussianBlur result="feGaussianBlur3742" stdDeviation="4.98"/></filter><radialGradient id="e" cx="1268.42" cy="277.8" r="14.85" gradientTransform="matrix(1, 0, 0, -1, -1027.48, 1211.85)" xlink:href="#c"/><radialGradient id="h" cx="1794.25" cy="811.46" r="11.7" gradientTransform="matrix(1, 0, 0, -1.02, -1027.48, 1230.72)" xlink:href="#c"/><radialGradient id="i" cx="1824.5" cy="679.81" r="10.45" gradientTransform="matrix(1, 0, 0, -0.86, -1027.48, 1111.65)" xlink:href="#c"/><radialGradient id="j" cx="1880.5" cy="688.5" r="11.45" gradientTransform="matrix(1, 0, 0, -0.96, -1027.48, 1181.85)" xlink:href="#c"/><radialGradient id="k" cx="1830.5" cy="523.5" r="10.45" gradientTransform="matrix(1, 0, 0, -1.05, -1027.48, 1238.97)" xlink:href="#c"/><radialGradient id="l" cx="1865.5" cy="514.69" r="9.45" gradientTransform="matrix(1, 0, 0, -1.19, -1027.48, 1311.67)" xlink:href="#c"/><radialGradient id="m" cx="1881" cy="489" r="11.45" gradientTransform="matrix(1, 0, 0, -1, -1027.48, 1212.92)" xlink:href="#c"/><radialGradient id="n" cx="1735" cy="339" r="9.45" gradientTransform="matrix(1, 0, 0, -1, -1027.48, 1212.92)" xlink:href="#c"/><radialGradient id="o" cx="1768.25" cy="304.25" r="10.2" gradientTransform="matrix(1, 0, 0, -1, -1027.48, 1212.92)" xlink:href="#c"/><radialGradient id="p" cx="1602" cy="178.34" r="10.95" gradientTransform="matrix(1, 0, 0, -1.09, -1027.48, 1231.05)" xlink:href="#c"/><linearGradient id="q" x1="311.28" y1="720.47" x2="430.93" y2="720.47" gradientUnits="userSpaceOnUse"><stop offset="0" stop-color="#333"/><stop offset="1" stop-color="#333" stop-opacity="0"/></linearGradient></defs><title>Uruguay</title><path d="M528.61,189.65l2.92-30.72c95-15.27,79-61.46,132.79-54.33-47.26,13.83-21.49,34.18-87.1,79.92" style="fill:#fcd116;stroke:#7b3f00;stroke-linecap:square;stroke-miterlimit:20;stroke-width:3.633419990539551px"/><path d="M391.91,275.7l151.7-88.2-.22-.49c38.21-20.33,57.76-41,73.11-56.91,7.68-7.94,14.31-14.73,21.82-19.59a45.88,45.88,0,0,1,16-6.63c-42.1-.28-34.19,40.81-122.8,55Z" style="fill:#7b3f00;stroke:#7b3f00;stroke-linecap:square;stroke-miterlimit:20;stroke-width:1.6532000303268433px"/><path d="M544,188.45c77.07-41,79.46-84.08,120.28-83.85" style="fill:none;stroke:#7b3f00;stroke-miterlimit:20;stroke-width:3.633419990539551px"/><path d="M439.19,271.11l-2.92,30.72c-95,15.27-79,61.46-132.79,54.33,47.26-13.83,22.83-34.72,88.44-80.46" style="fill:#fcd116;stroke:#7b3f00;stroke-linecap:square;stroke-miterlimit:20;stroke-width:3.633419990539551px"/><path d="M576.71,184.93l-153,88.75.22.49c-38.21,20.33-57.76,41-73.11,56.91-7.68,7.94-14.31,14.73-21.82,19.59a45.88,45.88,0,0,1-16,6.63c42.1.28,34.18-40.82,122.8-55.06Z" style="fill:#7b3f00;stroke:#7b3f00;stroke-linecap:square;stroke-miterlimit:20;stroke-width:1.6532000303268433px"/><path d="M423.76,272.31c-77.07,41-79.46,84.08-120.28,83.85" style="fill:none;stroke:#7b3f00;stroke-miterlimit:20;stroke-width:3.633419990539551px"/><path d="M544.28,189.37c.2.55,1.05.44,2.6-.33,1.38-.69,7.27-1.69,14.65-2.5l12.34-1.35-12.71,7.38c-120.86,70.19-136.9,79.35-137.42,78.55-.39-.6-1.13-.49-2.62.38s-5.47,1.55-12.82,2.26c-5.91.58-11,.94-11.35.81s31.84-19.09,71.51-42.14l73.82-42.9C543.4,188.9,544.09,188.83,544.28,189.37Z" style="fill:#fcd116"/><path d="M622.87,132.59l2.44-.41L623,136.1c-8.35,14.24-21.64,28.09-40.41,42.11l-8.33,6.22-10.94,1.21c-6,.66-11,1-11.09.79s1.19-1.14,2.84-2c4.13-2.19,19.31-12.16,25.54-16.77a282.89,282.89,0,0,0,28.33-24.83c5.18-5.1,9.88-9.39,10.45-9.54s2.14-.46,3.48-.69Z" style="fill:#fcd116"/><path d="M622.7,132.53c1.24-.28,2.32-.3,2.41,0,.22.68-7.33,11.91-11.35,16.86-7.78,9.6-17.81,18.89-31.16,28.86l-8.32,6.22-10.94,1.23c-6,.68-11,1-11.1.79s1.19-1.16,2.83-2c4.11-2.18,19.28-12.14,25.54-16.77,7-5.19,21.89-18.34,30.48-26.94,3.9-3.91,7.6-7.23,8.22-7.39s2.14-.51,3.39-.79Z" style="fill:#fcd116"/><path d="M622.7,132.53c1.24-.28,2.32-.3,2.41,0,.22.69-7.34,12-11.23,16.77-7.79,9.6-18.79,19.76-31.94,29.5l-7.7,5.7-10.38,1.14c-5.71.63-10.7,1-11.08.82s1.2-1.41,3.52-2.74c18.5-10.67,36.79-25.09,55.9-44.1,3.3-3.28,6.51-6.1,7.13-6.25s2.15-.51,3.39-.79Z" style="fill:#fcd116"/><path d="M622.53,132.47c1.77-.34,3.26-.59,3.32-.56s-3.12,5.33-5.34,8.67c-10,15-24.09,28.53-44.68,42.86a5.66,5.66,0,0,0-1.26,1.05c-.05.21-23.33,2.78-24.31,2.69-.47,0-.47,0-.06-.21.66-.26,7.53-4.27,11-6.4,19.45-12,35.35-25.07,53.37-43.71,3.55-3.68,3.14-3.45,8-4.38Z" style="fill:#fcd116"/><path d="M622.53,132.47c1.77-.34,3.26-.59,3.32-.56s-4,6.77-6.1,9.79a137.11,137.11,0,0,1-23.24,25.75c-3.87,3.41-12.55,10.21-17.64,13.84-2.23,1.58-4.12,3-4.21,3.15s-18.87,2.36-23.93,2.75c-.85.07-.66-.07,3.69-2.59,22.43-13,40.58-27.44,60.44-48.08C618,133.22,617.69,133.4,622.53,132.47Z" style="fill:#fcd116"/><path d="M622.53,132.47c1.77-.34,3.26-.59,3.32-.56a87.39,87.39,0,0,1-4.69,7.7,136.22,136.22,0,0,1-24.65,27.85c-3.82,3.37-12.5,10.17-17.63,13.83-2.23,1.59-4.12,3-4.21,3.14s-23,2.85-24.4,2.73c-.46,0-.46,0,0-.21.83-.33,8.77-5,13.39-8,18.33-11.56,34-24.57,51.76-43,2.6-2.69,2.4-2.6,7.17-3.51Z" style="fill:#fcd116"/><path d="M622.53,132.47c1.77-.34,3.27-.59,3.34-.56a19.64,19.64,0,0,1-1.61,2.86,125.32,125.32,0,0,1-17.6,23c-7.6,7.95-16.36,15.35-28.31,23.94-1.81,1.3-3.43,2.51-3.58,2.68s-2.93.61-20.44,2.47c-2.07.22-3.93.37-4.12.34s.23-.37,1.17-.88c3.34-1.82,13-7.74,17.29-10.61,16.58-11.06,30.13-22.6,47-40.07C617.93,133.33,617.85,133.37,622.53,132.47Z" style="fill:#fcd116"/><path d="M544,223.71l20.41-23.13c85.87,43.51,100-3.28,139.37,34.1-46.36-16.59-37.47,15-117.44,13.46" style="fill:#fcd116;stroke:#7b3f00;stroke-linecap:square;stroke-miterlimit:20;stroke-width:3.633419990539551px"/><path d="M382.84,213l174.57,17.81.11-.52c42.87,6,70.84.76,92.6-3.07,10.88-1.91,20.23-3.5,29.16-3a45.88,45.88,0,0,1,16.85,4c-33.9-25-51.65,12.92-131.71-27.65Z" style="fill:#7b3f00;stroke:#7b3f00;stroke-linecap:square;stroke-miterlimit:20;stroke-width:1.6532000303268433px"/><path d="M557.2,231.81c86.44,12.15,113.7-21.31,146.6,2.86" style="fill:none;stroke:#7b3f00;stroke-miterlimit:20;stroke-width:3.633419990539551px"/><path d="M423.78,237.05l-20.41,23.13c-85.87-43.51-100,3.28-139.37-34.1,46.36,16.59,38.88-14.67,118.84-13.11" style="fill:#fcd116;stroke:#7b3f00;stroke-linecap:square;stroke-miterlimit:20;stroke-width:3.633419990539551px"/><path d="M585.7,248.17,409.72,230l-.11.52c-42.87-6-70.84-.76-92.6,3.07-10.88,1.91-20.23,3.5-29.16,3a45.88,45.88,0,0,1-16.85-4c33.9,25,51.65-12.93,131.71,27.64Z" style="fill:#7b3f00;stroke:#7b3f00;stroke-linecap:square;stroke-miterlimit:20;stroke-width:1.6532000303268433px"/><path d="M410.6,228.95c-86.44-12.15-113.7,21.31-146.6-2.86" style="fill:none;stroke:#7b3f00;stroke-miterlimit:20;stroke-width:3.633419990539551px"/><path d="M556.85,232.7c-.16.56.59,1,2.3,1.27,1.52.26,6.88,2.91,13.32,6.59l10.78,6.16-14.63-1.5C429.6,231,411.24,228.95,411.28,228c0-.72-.62-1.06-2.35-1.23s-5.34-2-11.7-5.7c-5.12-3-9.46-5.71-9.66-6s37,3.27,82.62,7.94l84.93,8.68C556.42,231.79,557,232.15,556.85,232.7Z" style="fill:#fcd116"/><path d="M653.8,232.95,656,234l-4.17,1.82c-15.13,6.61-34,10-57.44,10.32l-10.4.14-9.56-5.45c-5.26-3-9.51-5.65-9.44-5.89s1.63-.22,3.48,0c4.63.66,22.77,1.51,30.52,1.44A282.89,282.89,0,0,0,636.52,233c7.18-1.08,13.51-1.79,14.06-1.58s2,.88,3.22,1.49Z" style="fill:#fcd116"/><path d="M653.7,232.8c1.17.5,2.06,1.12,2,1.38-.22.68-12.93,5.33-19.09,7-11.94,3.19-25.51,4.81-42.17,5l-10.39.14-9.58-5.43c-5.27-3-9.52-5.64-9.44-5.89s1.64-.24,3.49,0c4.6.65,22.74,1.51,30.52,1.44,8.73-.08,28.49-2,40.49-3.88,5.45-.87,10.4-1.38,11-1.14s2,.85,3.2,1.35Z" style="fill:#fcd116"/><path d="M653.7,232.8c1.17.5,2.06,1.12,2,1.38-.22.69-13,5.37-18.95,7-11.94,3.18-26.82,4.94-43.18,5.09l-9.58.09-9.07-5.18c-5-2.85-9.24-5.48-9.44-5.85s1.8-.43,4.46-.15c21.24,2.25,44.51,1.32,71.14-2.82,4.6-.72,8.85-1.11,9.44-.87s2,.85,3.21,1.35Z" style="fill:#fcd116"/><path d="M653.6,232.65c1.63.76,3,1.44,3,1.5S651,236.63,647.2,238c-16.95,6.27-36.25,8.92-61.34,8.41a5.66,5.66,0,0,0-1.63.11c-.16.14-20.51-11.46-21.25-12.11-.36-.31-.35-.32.08-.21.69.18,8.6,1,12.64,1.27,22.81,1.69,43.33.5,68.87-4,5-.89,4.57-.95,9,1.16Z" style="fill:#fcd116"/><path d="M653.6,232.65c1.63.76,3,1.44,3,1.5s-7.24,3.11-10.69,4.34A137.11,137.11,0,0,1,612,245.66c-5.14.48-16.16.89-22.4.83-2.73,0-5.1,0-5.26.07s-16.65-9.18-21-11.84c-.73-.45-.49-.45,4.51.07,25.79,2.66,49,1.65,77.16-3.37C649.51,230.61,649.14,230.56,653.6,232.65Z" style="fill:#fcd116"/><path d="M653.6,232.65c1.63.76,3,1.44,3,1.5a87.39,87.39,0,0,1-8.32,3.47,136.22,136.22,0,0,1-36.32,8c-5.08.48-16.09.89-22.4.83-2.73,0-5.1,0-5.25.07-.31.13-20.32-11.24-21.35-12.13-.35-.3-.35-.31.1-.19.86.22,10.06,1.07,15.51,1.43,21.62,1.42,41.93.1,67.15-4.37,3.68-.65,3.47-.69,7.86,1.37Z" style="fill:#fcd116"/><path d="M653.6,232.65c1.63.76,3,1.44,3,1.51a19.64,19.64,0,0,1-3,1.37,125.32,125.32,0,0,1-27.75,8.25c-10.82,2-22.26,2.81-37,2.73-2.23,0-4.25,0-4.47.06-.39.08-2.73-1.22-18-10-1.81-1-3.4-2-3.53-2.14s.4-.17,1.47,0c3.77.49,15.06,1.37,20.23,1.58,19.92.8,37.66-.57,61.61-4.77C649.38,230.64,649.29,230.63,653.6,232.65Z" style="fill:#fcd116"/><path d="M536.45,260.32l30.11-6.72c43.9,85.68,82.87,56.16,92.71,109.51-27.75-40.68-39.14-9.88-102.92-58.14" style="fill:#fcd116;stroke:#7b3f00;stroke-linecap:square;stroke-miterlimit:20;stroke-width:3.633419990539551px"/><path d="M412.37,156.9l130.76,117,.39-.36c31.15,30.06,56.87,42.25,76.72,51.94,9.93,4.85,18.43,9.06,25.37,14.7a45.88,45.88,0,0,1,11.25,13.17c-12.75-40.13-49.38-19.91-90.3-99.78Z" style="fill:#7b3f00;stroke:#7b3f00;stroke-linecap:square;stroke-miterlimit:20;stroke-width:1.6532000303268433px"/><path d="M542.36,274.62c62.79,60.63,104.52,49.59,116.92,88.48" style="fill:none;stroke:#7b3f00;stroke-miterlimit:20;stroke-width:3.633419990539551px"/><path d="M431.34,200.44l-30.11,6.72c-43.9-85.68-82.87-56.16-92.71-109.51,27.75,40.68,40.08,11,103.85,59.24" style="fill:#fcd116;stroke:#7b3f00;stroke-linecap:square;stroke-miterlimit:20;stroke-width:3.633419990539551px"/><path d="M555.8,304.61,424.1,186.49l-.39.36c-31.15-30.06-56.87-42.25-76.72-51.94-9.93-4.85-18.43-9.06-25.37-14.7A45.88,45.88,0,0,1,310.36,107c12.75,40.13,49.38,19.9,90.31,99.77Z" style="fill:#7b3f00;stroke:#7b3f00;stroke-linecap:square;stroke-miterlimit:20;stroke-width:1.6532000303268433px"/><path d="M425.44,186.14c-62.79-60.63-104.52-49.59-116.92-88.48" style="fill:none;stroke:#7b3f00;stroke-miterlimit:20;stroke-width:3.633419990539551px"/><path d="M541.56,275.14c-.46.36-.1,1.14,1.12,2.38s3.85,6.39,6.91,13.16l5.1,11.32-11-9.81C439.63,198.93,426,186.51,426.56,185.77c.45-.56.12-1.22-1.17-2.38s-3.16-4.73-6.11-11.49c-2.37-5.44-4.3-10.18-4.28-10.54s28,24.39,62.17,55l63.61,56.95C541.74,274.15,542,274.79,541.56,275.14Z" style="fill:#fcd116"/><path d="M619.85,332.33l1.14,2.19-4.44-1c-16.13-3.54-33.4-11.9-52.54-25.42l-8.49-6-4.53-10c-2.49-5.52-4.37-10.16-4.18-10.31s1.45.78,2.79,2.08c3.36,3.25,17.53,14.61,23.84,19.1a282.89,282.89,0,0,0,32.37,19.28c6.45,3.35,12,6.49,12.31,7s1.1,1.89,1.73,3.09Z" style="fill:#fcd116"/><path d="M619.85,332.15c.65,1.09,1,2.12.79,2.27-.58.42-13.59-3.29-19.54-5.58-11.54-4.44-23.47-11.1-37.08-20.72l-8.49-6-4.55-10c-2.5-5.51-4.39-10.15-4.18-10.31s1.47.77,2.8,2.07c3.34,3.24,17.51,14.59,23.84,19.11,7.11,5.07,24.21,15.15,35,20.67,4.92,2.5,9.23,5,9.57,5.54s1.15,1.88,1.8,3Z" style="fill:#fcd116"/><path d="M619.85,332.15c.65,1.09,1,2.12.79,2.27-.58.42-13.65-3.28-19.42-5.5-11.53-4.44-24.6-11.77-37.93-21.26l-7.8-5.56-4.29-9.52c-2.36-5.24-4.25-9.86-4.2-10.28s1.71.71,3.69,2.5c15.86,14.3,35.23,27.23,59.21,39.53,4.14,2.12,7.81,4.31,8.15,4.85s1.15,1.88,1.8,3Z" style="fill:#fcd116"/><path d="M619.86,332c.87,1.57,1.57,2.92,1.56,3s-6-1.32-9.9-2.4c-17.4-4.89-34.57-14.09-54.56-29.25a5.66,5.66,0,0,0-1.39-.87c-.21,0-9.86-21.33-10.07-22.29-.1-.46-.1-.46.18-.12.45.55,6.39,5.84,9.48,8.45,17.46,14.77,34.76,25.87,58.06,37.25,4.6,2.24,4.25,1.92,6.64,6.25Z" style="fill:#fcd116"/><path d="M619.86,332c.87,1.57,1.57,2.92,1.56,3s-7.69-1.74-11.2-2.77A137.11,137.11,0,0,1,578.55,318c-4.44-2.63-13.59-8.78-18.61-12.5-2.19-1.63-4.13-3-4.29-3s-8.08-17.22-10-21.91c-.33-.79-.14-.65,3.6,2.71,19.29,17.31,38.64,30.11,64.41,42.62C617.74,327.91,617.48,327.65,619.86,332Z" style="fill:#fcd116"/><path d="M619.86,332c.87,1.57,1.57,2.92,1.56,3a87.39,87.39,0,0,1-8.77-2.08A136.22,136.22,0,0,1,578.54,318c-4.39-2.6-13.54-8.74-18.61-12.5-2.2-1.63-4.13-3-4.29-3-.33-.08-9.83-21-10.14-22.37-.11-.45-.1-.45.19-.1.57.69,7.51,6.78,11.71,10.27,16.66,13.86,33.87,24.72,56.9,35.93,3.36,1.64,3.22,1.48,5.55,5.73Z" style="fill:#fcd116"/><path d="M619.86,332c.87,1.57,1.57,2.93,1.56,3a19.64,19.64,0,0,1-3.22-.65,125.32,125.32,0,0,1-27.3-9.64c-9.9-4.77-19.66-10.81-31.52-19.53-1.8-1.32-3.45-2.48-3.66-2.58s-1.49-2.6-8.67-18.67c-.85-1.9-1.57-3.62-1.6-3.81s.42.1,1.2.84c2.76,2.61,11.38,10,15.44,13.17,15.64,12.35,30.8,21.67,52.65,32.35C617.62,327.86,617.56,327.79,619.86,332Z" style="fill:#fcd116"/><path d="M508.82,285.49l28.31,12.27c-14.85,95.12,34,94.14,10.64,143.09,1.45-49.22-25.86-31-49.09-107.53" style="fill:#fcd116;stroke:#7b3f00;stroke-linecap:square;stroke-miterlimit:20;stroke-width:3.633419990539551px"/><path d="M469.22,128.89l37,171.53.53-.06C514.29,343,527.93,368,538.3,387.48c5.18,9.76,9.58,18.16,11.89,26.8a45.88,45.88,0,0,1,1.36,17.27c13.28-40-28.25-45.13-14.41-133.8Z" style="fill:#7b3f00;stroke:#7b3f00;stroke-linecap:square;stroke-miterlimit:20;stroke-width:1.6532000303268433px"/><path d="M505.19,300.53c15.16,86,55.41,101.55,42.58,140.31" style="fill:none;stroke:#7b3f00;stroke-miterlimit:20;stroke-width:3.633419990539551px"/><path d="M459,175.27,430.67,163c14.85-95.12-34-94.14-10.64-143.09-1.45,49.22,26,32.44,49.2,109" style="fill:#fcd116;stroke:#7b3f00;stroke-linecap:square;stroke-miterlimit:20;stroke-width:3.633419990539551px"/><path d="M498.44,332.7l-37.12-173-.53.06c-7.53-42.63-21.17-67.61-31.54-87.12-5.18-9.76-9.58-18.16-11.89-26.8A45.88,45.88,0,0,1,416,28.59c-13.28,40,28.26,45.12,14.42,133.8Z" style="fill:#7b3f00;stroke:#7b3f00;stroke-linecap:square;stroke-miterlimit:20;stroke-width:1.6532000303268433px"/><path d="M462.61,160.23C447.45,74.26,407.2,58.67,420,19.92" style="fill:none;stroke:#7b3f00;stroke-miterlimit:20;stroke-width:3.633419990539551px"/><path d="M504.24,300.48c-.59,0-.75.86-.49,2.58.23,1.53-.64,7.44-2.15,14.71l-2.53,12.16L496,315.55c-29.4-136.63-33.17-154.72-32.24-155,.69-.19.82-.92.45-2.61s.22-5.68,1.81-12.89c1.28-5.8,2.51-10.77,2.73-11s8.32,36.18,18,81,17.76,82.4,18,83.46C505,299.78,504.81,300.46,504.24,300.48Z" style="fill:#fcd116"/><path d="M534,392.76l-.36,2.44-3-3.4c-11-12.35-20-29.26-27.56-51.44l-3.34-9.84,2.23-10.78c1.23-5.93,2.43-10.79,2.68-10.79s.71,1.49,1,3.32c.8,4.6,5.6,22.12,8.06,29.47a282.89,282.89,0,0,0,14.86,34.62c3.25,6.5,5.88,12.3,5.85,12.89s-.22,2.17-.42,3.52Z" style="fill:#fcd116"/><path d="M534.07,392.62c-.12,1.27-.43,2.3-.7,2.3-.72,0-9.06-10.65-12.53-16-6.72-10.37-12.46-22.77-17.82-38.55l-3.34-9.84,2.21-10.79c1.22-5.93,2.42-10.79,2.68-10.8s.73,1.49,1.05,3.32c.8,4.58,5.59,22.09,8.06,29.47,2.77,8.28,10.68,26.49,16.2,37.31,2.51,4.92,4.53,9.46,4.49,10.1s-.17,2.2-.29,3.46Z" style="fill:#fcd116"/><path d="M534.07,392.62c-.12,1.27-.43,2.3-.7,2.3-.72,0-9.12-10.68-12.48-15.87-6.72-10.37-13-24-18.18-39.5l-3-9.08,2.13-10.23c1.17-5.62,2.36-10.48,2.64-10.79s1,1.58,1.52,4.19c4.43,20.89,12.5,42.74,24.67,66.79,2.1,4.15,3.79,8.07,3.74,8.71s-.17,2.2-.29,3.47Z" style="fill:#fcd116"/><path d="M534.18,392.48c-.22,1.78-.44,3.28-.49,3.33s-4.11-4.61-6.59-7.76c-11.2-14.18-19.69-31.72-27-55.73a5.66,5.66,0,0,0-.61-1.52c-.18-.11,4.56-23.05,5-24,.19-.44.19-.44.22,0,0,.71,1.73,8.48,2.7,12.41,5.45,22.22,12.92,41.36,25.08,64.26,2.4,4.52,2.31,4.05,1.7,9Z" style="fill:#fcd116"/><path d="M534.18,392.48c-.22,1.78-.45,3.28-.49,3.33s-5.2-5.93-7.43-8.82a137.11,137.11,0,0,1-17.31-30.07c-2-4.74-5.84-15.09-7.71-21.05-.82-2.61-1.58-4.85-1.69-5s3.58-18.67,4.78-23.61c.2-.83.27-.61,1.33,4.31,5.43,25.35,13.56,47.07,27.05,72.34C534.85,388,534.79,387.59,534.18,392.48Z" style="fill:#fcd116"/><path d="M534.18,392.48c-.22,1.78-.44,3.28-.49,3.33a87.39,87.39,0,0,1-5.87-6.84,136.22,136.22,0,0,1-18.87-32.06c-2-4.68-5.81-15-7.71-21-.82-2.61-1.58-4.85-1.69-5s4.41-22.79,4.94-24.05c.18-.43.19-.43.21,0,.05.89,2.09,9.9,3.44,15.19,5.33,21,12.87,39.91,24.91,62.51,1.76,3.3,1.73,3.09,1.13,7.9Z" style="fill:#fcd116"/><path d="M534.18,392.48c-.22,1.78-.45,3.29-.5,3.34a19.64,19.64,0,0,1-2.22-2.42A125.32,125.32,0,0,1,515,369.56c-5.21-9.68-9.55-20.3-14-34.32-.68-2.13-1.33-4-1.44-4.23s.32-3,4-20.2c.43-2,.86-3.85.95-4s.28.33.48,1.39c.7,3.74,3.35,14.74,4.75,19.73,5.39,19.19,12.18,35.64,23.58,57.12C534.78,387.84,534.77,387.75,534.18,392.48Z" style="fill:#fcd116"/><path d="M496.13,171.15l-15.69-26.56c67.92-68.22,27.8-96.16,75.5-122-30.11,39,2.7,40.28-23.49,115.85" style="fill:#fcd116;stroke:#7b3f00;stroke-linecap:square;stroke-miterlimit:20;stroke-width:3.633419990539551px"/><path d="M436.12,321.11,507,160.58l-.46-.26c19-38.91,22.61-67.14,25.69-89,1.54-10.94,2.92-20.33,6.14-28.67a45.88,45.88,0,0,1,9-14.77c-34.23,24.52-3.67,53.11-67,116.72Z" style="fill:#7b3f00;stroke:#7b3f00;stroke-linecap:square;stroke-miterlimit:20;stroke-width:1.6532000303268433px"/><path d="M507.91,161.11c38.26-78.45,14.87-114.73,48-138.54" style="fill:none;stroke:#7b3f00;stroke-miterlimit:20;stroke-width:3.633419990539551px"/><path d="M471.67,289.61l15.69,26.56c-67.92,68.22-27.8,96.16-75.5,122,30.11-39-1.94-41.51,24.25-117.08" style="fill:#fcd116;stroke:#7b3f00;stroke-linecap:square;stroke-miterlimit:20;stroke-width:3.633419990539551px"/><path d="M532.28,139.06,460.63,300.81l.46.26c-19,38.91-22.61,67.14-25.69,89-1.54,10.94-2.92,20.33-6.14,28.67a45.88,45.88,0,0,1-9,14.77c34.23-24.52,3.66-53.11,67-116.72Z" style="fill:#7b3f00;stroke:#7b3f00;stroke-linecap:square;stroke-miterlimit:20;stroke-width:1.6532000303268433px"/><path d="M459.89,299.65c-38.26,78.45-14.87,114.73-48,138.54" style="fill:none;stroke:#7b3f00;stroke-miterlimit:20;stroke-width:3.633419990539551px"/><path d="M508.65,161.71c.48.33,1.11-.26,1.92-1.8.71-1.37,4.89-5.64,10.39-10.64l9.19-8.35-5.95,13.45C467.67,282.2,460.08,299,459.19,298.7c-.67-.26-1.2.26-1.9,1.85s-3.52,4.47-9,9.36c-4.44,3.94-8.36,7.24-8.7,7.33s14.54-34.16,33.08-76.12S506.7,164,507.13,163C507.65,161.85,508.18,161.39,508.65,161.71Z" style="fill:#fcd116"/><path d="M538.84,69.58l1.73-1.76.44,4.53c1.61,16.43-1,35.44-7.94,57.82L530,140.09l-8.14,7.41c-4.48,4.07-8.31,7.3-8.51,7.16s.3-1.62,1.12-3.29c2.06-4.2,8.48-21.19,10.8-28.58A282.89,282.89,0,0,0,533.59,86c1.19-7.17,2.47-13.41,2.84-13.86s1.46-1.63,2.41-2.6Z" style="fill:#fcd116"/><path d="M538.68,69.63c.84-1,1.7-1.61,1.92-1.45.58.42,1.07,13.94.73,20.31-.65,12.34-3.31,25.75-8.24,41.66L530,140.08l-8.13,7.43c-4.47,4.09-8.3,7.31-8.52,7.16s.28-1.63,1.1-3.31c2-4.18,8.46-21.16,10.8-28.58,2.63-8.33,6.93-27.7,8.83-39.71.86-5.45,1.9-10.32,2.31-10.81s1.43-1.68,2.27-2.63Z" style="fill:#fcd116"/><path d="M538.68,69.63c.84-1,1.7-1.61,1.92-1.45.58.42,1.1,14,.77,20.17-.66,12.34-3.59,27-8.5,42.64L530,140.13l-7.73,7c-4.25,3.86-8.07,7.09-8.48,7.18s.14-1.84,1.23-4.28c8.7-19.5,15-41.92,19.3-68.53.74-4.59,1.68-8.76,2.09-9.25s1.43-1.68,2.27-2.63Z" style="fill:#fcd116"/><path d="M538.5,69.68c1.23-1.31,2.29-2.39,2.35-2.41s.61,6.15.77,10.15c.73,18.06-2.72,37.24-11,60.93a5.66,5.66,0,0,0-.4,1.59c.08.2-17.24,16-18.09,16.47-.41.24-.41.24-.17-.14.38-.6,3.58-7.88,5.11-11.62,8.65-21.18,13.86-41.06,17.48-66.73.71-5.06.51-4.64,3.89-8.24Z" style="fill:#fcd116"/><path d="M538.5,69.68c1.23-1.31,2.29-2.39,2.36-2.41s.72,7.85.82,11.5a137.11,137.11,0,0,1-3.67,34.5c-1.13,5-4.15,15.64-6.14,21.56-.87,2.59-1.57,4.85-1.56,5s-13.88,13-17.75,16.29c-.65.55-.58.33,1.46-4.26,10.5-23.7,16.7-46,20.63-74.43C535.3,72.95,535.13,73.28,538.5,69.68Z" style="fill:#fcd116"/><path d="M538.5,69.68c1.23-1.31,2.29-2.39,2.35-2.41a87.39,87.39,0,0,1,.73,9,136.22,136.22,0,0,1-3.57,37c-1.11,5-4.13,15.58-6.14,21.56-.87,2.59-1.57,4.85-1.56,5,0,.34-17,15.85-18.14,16.55-.4.24-.4.24-.15-.15.48-.75,4.13-9.24,6.15-14.31,8-20.13,13-39.85,16.59-65.22.52-3.71.42-3.52,3.73-7.05Z" style="fill:#fcd116"/><path d="M538.5,69.68c1.23-1.31,2.3-2.4,2.37-2.41a19.64,19.64,0,0,1,.38,3.26,125.32,125.32,0,0,1-.73,28.95c-1.48,10.89-4.21,22-8.83,36-.7,2.12-1.3,4-1.32,4.27,0,.39-2,2.22-15.08,14-1.55,1.4-3,2.61-3.13,2.7s0-.43.43-1.4c1.63-3.43,6-13.9,7.75-18.75,6.92-18.69,11.09-36,14.5-60.07C535.29,73.08,535.24,73.16,538.5,69.68Z" style="fill:#fcd116"/><path d="M484.35,231.12l31.72,0L484.35,11.18l-31.72,220,31.72,0V11.18" style="fill:#fcd116;stroke:#7b3f00;stroke-miterlimit:20;stroke-width:4.10221004486084px"/><path d="M484.35,231.12l-31.72,0,31.72,0V11.18l-31.72,220" style="fill:#7b3f00"/><path d="M483.81,231.22l-31.72,0,31.72,219.92,31.72-220-31.72,0V451.16" style="fill:#fcd116;stroke:#7b3f00;stroke-miterlimit:20;stroke-width:4.10221004486084px"/><path d="M483.81,231.22l31.72,0-31.72,0V451.16l31.72-220" style="fill:#7b3f00"/><path d="M484.33,231.29,510,249.92,613.61,53.35l-155,159.3,25.68,18.63L613.61,53.35" style="fill:#fcd116;stroke:#7b3f00;stroke-miterlimit:20;stroke-width:4.10221004486084px"/><path d="M484.33,231.29l-25.68-18.63,25.68,18.63L613.61,53.35l-155,159.3" style="fill:#7b3f00"/><path d="M483.83,231.05l-25.68-18.63L354.55,409l155-159.3-25.68-18.63L354.55,409" style="fill:#fcd116;stroke:#7b3f00;stroke-miterlimit:20;stroke-width:4.10221004486084px"/><path d="M483.83,231.05l25.68,18.63-25.68-18.63L354.55,409l155-159.3" style="fill:#7b3f00"/><path d="M484.21,231.41,494,261.58l199.35-98.13-219,37.8,9.82,30.17,209.18-68" style="fill:#fcd116;stroke:#7b3f00;stroke-miterlimit:20;stroke-width:4.10221004486084px"/><path d="M484.21,231.41l-9.82-30.17,9.82,30.17,209.18-68-219,37.8" style="fill:#7b3f00"/><path d="M483.95,230.93l-9.82-30.17L274.77,298.89l219-37.8-9.82-30.17-209.18,68" style="fill:#fcd116;stroke:#7b3f00;stroke-miterlimit:20;stroke-width:4.10221004486084px"/><path d="M483.95,230.93l9.82,30.17-9.82-30.17-209.18,68,219-37.8" style="fill:#7b3f00"/><path d="M484,231.44l-9.79,30.18,219,37.79L493.83,201.26,484,231.44l209.18,68" style="fill:#fcd116;stroke:#7b3f00;stroke-miterlimit:20;stroke-width:4.10221004486084px"/><path d="M484,231.44l9.79-30.18L484,231.44l209.18,68L493.83,201.26" style="fill:#7b3f00"/><path d="M484.11,230.9l9.79-30.18-219-37.79,199.39,98.14,9.79-30.18-209.18-68" style="fill:#fcd116;stroke:#7b3f00;stroke-miterlimit:20;stroke-width:4.10221004486084px"/><path d="M484.11,230.9l-9.79,30.18,9.79-30.18-209.18-68,199.39,98.14" style="fill:#7b3f00"/><path d="M483.89,231.37,458.24,250,613.17,409.31,509.55,212.71l-25.65,18.66L613.17,409.31" style="fill:#fcd116;stroke:#7b3f00;stroke-miterlimit:20;stroke-width:4.10221004486084px"/><path d="M483.89,231.37l25.65-18.66-25.65,18.66L613.17,409.31,509.55,212.71" style="fill:#7b3f00"/><path d="M484.27,231l25.65-18.66L355,53l103.62,196.6L484.27,231,355,53" style="fill:#fcd116;stroke:#7b3f00;stroke-miterlimit:20;stroke-width:4.10221004486084px"/><path d="M484.27,231l-25.65,18.66L484.27,231,355,53l103.62,196.6" style="fill:#7b3f00"/><circle cx="484.67" cy="231.56" r="72.27" style="fill:#fcd116;stroke:#7b3f00;stroke-miterlimit:20;stroke-width:4.100949764251709px"/><path d="M537.88,202.65c-4.6,5.26-7.23-3.94-23.65-3.94s-19.05,9.85-21.68,7.88,13.8-13.8,19.05-14.45,20.37,4.6,26.28,10.51m-19.05,5.91c4.6,3.94.66,12.48-3.94,12.48s-13.14-7.88-9.2-13.14" style="fill:#7b3f00"/><path d="M497.15,214.48c.66-7.88,7.23-9.2,17.74-9.2s15.11,7.88,19.05,9.85c-4.6,0-8.54-6.57-19.05-6.57s-10.51,0-17.74,6.57m2,1.31c2.63-3.94,5.91,3.94,13.14,3.94s11.17-2,15.77-5.26-6.57,7.88-13.8,7.88-17.08-3.94-15.11-6.57" style="fill:#7b3f00"/><path d="M447.88,207.91c-3.28,1.31-8.54,7.88,0,12.48C441.31,215.79,446.56,209.22,447.88,207.91Z" style="fill:#7b3f00"/><path d="M521.46,207.91c1.31,1.31,6.57,7.88,0,12.48C530,215.79,524.74,209.22,521.46,207.91Z" style="fill:#7b3f00"/><path d="M474.15,236.16c-5.91,1.31-3.94,9.85-9.2,10.51s-7.88,6.57-7.23,5.91C461,250,468.24,248,473.5,248s6.57,3.29,11.17,3.29,5.91-3.29,11.17-3.29,12.48,2,15.77,4.6c.66.66-2-5.26-7.23-5.91s-3.29-9.2-9.2-10.51c0,2.63,2,2,2.63,5.91,0,3.28-5.91,3.28-7.23,0,1.31,5.26-2.63,5.26-5.91,5.26s-7.23,0-5.91-5.26c-1.31,3.28-7.23,3.28-7.23,0C472.19,238.13,474.15,238.79,474.15,236.16Z" style="fill:#7b3f00"/><path d="M453.79,258.49c-5.26,3.94-6.57,5.91-7.23,10.51a47.65,47.65,0,0,1,3.55-5.51l-.92-.4,1.09.16c.79-1.07,1.5-2,3.5-4.76Z" style="fill:#7b3f00"/><path d="M450.29,263.25l-.08.11a11.69,11.69,0,0,0,2.61.28c-.8-.14-1.65-.27-2.52-.4Z" style="fill:#7b3f00"/><path d="M452.81,263.65a73.38,73.38,0,0,1,10.26,2.62,194.43,194.43,0,0,1,43.19,0,73.38,73.38,0,0,1,10.26-2.62c-7.24,0-16.89-5.15-21.35-5.15-5.26,0-6.57,1.31-10.51,1.31s-5.26-1.31-10.51-1.31C469.7,258.49,460,263.67,452.81,263.65Z" style="fill:#7b3f00"/><path d="M516.52,263.65a11.72,11.72,0,0,0,2.61-.28l-.08-.11C518.17,263.37,517.33,263.5,516.52,263.65Z" style="fill:#7b3f00"/><path d="M519,263.25l1.09-.16-.92.4a47.65,47.65,0,0,1,3.55,5.51c-.66-4.6-2-6.57-7.23-10.51,2,2.75,2.71,3.68,3.5,4.76Z" style="fill:#7b3f00"/><path d="M519.22,263.49l0,0c-6.86,2.64-9.27,3.09-12.93,2.82-6.23,2-11.36,4.05-21.6,4.05s-15.37-2-21.6-4.05c-3.66.27-6.07-.18-12.93-2.82l0,0c20.64,8.88,18.38,12.08,34.56,12.08s13.92-3.2,34.56-12.08Z" style="fill:#7b3f00"/><path d="M450.14,263.45l.06-.08a8.57,8.57,0,0,1-1-.27l.95.35Z" style="fill:#7b3f00"/><path d="M519.19,263.45l.95-.35a8.7,8.7,0,0,1-1,.27l.06.08Z" style="fill:#7b3f00"/><path d="M431.45,202.65c4.6,5.26,7.23-3.94,23.65-3.94s19.05,9.85,21.68,7.88-13.8-13.8-19.05-14.45-20.37,4.6-26.28,10.51m19.05,5.91c-4.6,3.94-.66,12.48,3.94,12.48s13.14-7.88,9.2-13.14" style="fill:#7b3f00"/><path d="M472.18,214.48c-.66-7.88-7.23-9.2-17.74-9.2s-15.11,7.88-19.05,9.85c4.6,0,8.54-6.57,19.05-6.57s10.51,0,17.74,6.57m-2,1.31c-2.63-3.94-5.91,3.94-13.14,3.94s-11.17-2-15.77-5.26,6.57,7.88,13.8,7.88,17.08-3.94,15.11-6.57" style="fill:#7b3f00"/><path d="M484.67,281.49c-3.28,0-11.83,2,0,2s3.28-2,0-2" style="fill:#7b3f00"/><ellipse cx="483.85" cy="583.72" rx="250.1" ry="324.56" style="fill:#fff;opacity:0.9990000128746033;isolation:isolate"/><path d="M734,583.72c0,179.18-111.9,324.47-250,324.56l-.13-324.56Z" style="fill:#0038a8"/><path d="M233.75,583.72c0-179.18,111.9-324.47,250-324.56l.13,324.56Z" style="fill:#0038a8"/><ellipse cx="483.85" cy="583.72" rx="250.1" ry="324.56" style="fill:none;stroke:#0b2bcd;stroke-linecap:round;stroke-linejoin:round;stroke-width:3.7795300483703613px"/><path d="M508.05,565.95c-8.6,0-16.3,5.48-24.9,5.48V580c8.6,0,16.3-5.48,24.9-5.48S524.35,580,533,580s16.3-5.48,24.9-5.48,16.3,5.48,24.9,5.48,16.3-5.48,24.9-5.48S624,580,632.56,580s16.3-5.48,24.9-5.48,16.3,5.48,24.9,5.48,16.3-5.48,24.9-5.48S723.54,580,732.13,580q0-4.3-.16-8.6c-8.53-.08-16.17-5.47-24.71-5.47s-16.3,5.48-24.9,5.48-16.3-5.48-24.9-5.48-16.3,5.48-24.9,5.48-16.3-5.48-24.9-5.48-16.3,5.48-24.9,5.48-16.3-5.48-24.9-5.48-16.3,5.48-24.9,5.48-16.3-5.48-24.9-5.48Z" style="fill:#0038a8;stroke:#0038a8;stroke-width:0.060238100588321686px"/><path d="M508.05,548.77c-8.6,0-16.3,5.47-24.9,5.47v8.59c8.6,0,16.3-5.48,24.9-5.48s16.3,5.48,24.9,5.48,16.3-5.48,24.9-5.48,16.3,5.48,24.9,5.48,16.3-5.48,24.9-5.48,16.3,5.48,24.9,5.48,16.3-5.48,24.9-5.48,16.3,5.48,24.9,5.48,16.3-5.48,24.9-5.48c8.43,0,16,5.25,24.39,5.46q-.21-4.31-.5-8.61c-8.2-.4-15.62-5.44-23.88-5.44-8.6,0-16.3,5.47-24.9,5.47s-16.3-5.47-24.9-5.47-16.3,5.47-24.9,5.47-16.3-5.47-24.9-5.47-16.3,5.47-24.9,5.47-16.3-5.47-24.9-5.47-16.3,5.47-24.9,5.47S516.65,548.77,508.05,548.77Z" style="fill:#0038a8;stroke:#0038a8;stroke-width:0.060238100588321686px"/><path d="M508.05,531.59c-8.6,0-16.3,5.48-24.9,5.48v8.59c8.6,0,16.3-5.48,24.9-5.48s16.3,5.48,24.9,5.48,16.3-5.48,24.9-5.48,16.3,5.48,24.9,5.48,16.3-5.48,24.9-5.48,16.3,5.48,24.9,5.48,16.3-5.48,24.9-5.48,16.3,5.48,24.9,5.48,16.3-5.48,24.9-5.48c8,0,15.28,4.77,23.2,5.41q-.39-4.36-.87-8.69c-7.59-.89-14.6-5.31-22.34-5.31-8.6,0-16.3,5.48-24.9,5.48s-16.3-5.48-24.9-5.48-16.3,5.48-24.9,5.48-16.3-5.48-24.9-5.48-16.3,5.48-24.9,5.48-16.3-5.48-24.9-5.48-16.3,5.48-24.9,5.48-16.3-5.48-24.9-5.48Z" style="fill:#0038a8;stroke:#0038a8;stroke-width:0.060238100588321686px"/><path d="M508.05,514.4c-8.6,0-16.3,5.48-24.9,5.48v8.59c8.6,0,16.3-5.48,24.9-5.48s16.3,5.48,24.9,5.48,16.3-5.48,24.9-5.48,16.3,5.48,24.9,5.48,16.3-5.48,24.9-5.48,16.3,5.48,24.9,5.48,16.3-5.48,24.9-5.48,16.3,5.48,24.9,5.48,16.3-5.48,24.9-5.48c7.38,0,14.09,4,21.28,5.17q-.58-4.41-1.25-8.81c-6.72-1.37-13.08-4.95-20-4.95-8.6,0-16.3,5.48-24.9,5.48s-16.3-5.48-24.9-5.48-16.3,5.48-24.9,5.48-16.3-5.48-24.9-5.48-16.3,5.48-24.9,5.48-16.3-5.48-24.9-5.48-16.3,5.48-24.9,5.48-16.3-5.48-24.9-5.48Z" style="fill:#0038a8;stroke:#0038a8;stroke-width:0.060238100588321686px"/><path d="M508.05,497.22c-8.6,0-16.3,5.48-24.9,5.48v8.59c8.6,0,16.3-5.48,24.9-5.48s16.3,5.48,24.9,5.48,16.3-5.48,24.9-5.48,16.3,5.48,24.9,5.48,16.3-5.48,24.9-5.48,16.3,5.48,24.9,5.48,16.3-5.48,24.9-5.48,16.3,5.48,24.9,5.48,16.3-5.48,24.9-5.48c6.44,0,12.38,3.07,18.56,4.61q-.81-4.56-1.72-9.08c-5.58-1.62-11-4.12-16.85-4.12-8.6,0-16.3,5.48-24.9,5.48s-16.3-5.48-24.9-5.48-16.3,5.48-24.9,5.48-16.3-5.48-24.9-5.48-16.3,5.48-24.9,5.48-16.3-5.48-24.9-5.48-16.3,5.48-24.9,5.48-16.3-5.48-24.9-5.48Z" style="fill:#0038a8;stroke:#0038a8;stroke-width:0.060238100588321686px"/><path d="M496.75,490.92a36.19,36.19,0,0,1,7.42-5.64c9.3-4.65,17-7.68,25.1-13.79,7-5.23,12.25-13,19.45-16.62,8.58-4.29,18.32-8.07,25.1-14.85,1.35-1.35,16.2-3.87,19.09-4.6,2,1.51,10.09,2,12.37,2.12,9.58.46,27.71,7.91,34.65,14.85a35.22,35.22,0,0,0,6.89,4.77c8.71,4.35,15,8.67,23.51,12.9,2.88,1.44,9.61,5.72,12,8.13,1.45,1.45,3.57,2.14,5.18,2.95a19.79,19.79,0,0,1,5.07,3.41c3.46,3.46,8.21,5.5,13.08,6.72H619.43c-8.1,0-17,.25-25.1,0-22-.69-46.64.05-65.45-.52-10.46-.32-18.18,0-32.13.15Z" style="fill:#599740;stroke:#024f06"/><path d="M496.75,490.92a36.19,36.19,0,0,1,7.42-5.64c9.3-4.65,17-7.68,25.1-13.79,7-5.23,12.25-13,19.45-16.62,8.58-4.29,18.32-8.07,25.1-14.85,1.35-1.35,16.2-3.87,19.09-4.6,2,1.51,10.09,2,12.37,2.12,9.58.46,27.71,7.91,34.65,14.85a35.22,35.22,0,0,0,6.89,4.77c8.71,4.35,15,8.67,23.51,12.9,2.88,1.44,9.61,5.72,12,8.13,1.45,1.45,3.57,2.14,5.18,2.95a19.79,19.79,0,0,1,5.07,3.41c3.46,3.46,8.21,5.5,13.08,6.72H619.43c-8.1,0-17,.25-25.1,0-22-.69-46.64.05-65.45-.52-10.46-.32-18.18,0-32.13.15Z" style="fill:url(#a)"/><rect x="589.81" y="404.36" width="11.29" height="28.46" style="fill:#fff"/><path d="M581,408v4.56l1.75,1.75v8.14L576,439h38.94l-6.79-16.61v-8.14l1.75-1.75V408h-2.22v2.33h-2.22V408h-2.22v2.33H587.68V408h-2.22v2.33h-2.22V408Z" style="fill:#fff;stroke:#000;stroke-width:0.27746298909187317px"/><path d="M581.72,439.14l3.84-14.92v-7.14" style="fill:none;stroke:#000;stroke-width:0.27746298909187317px"/><path d="M608.48,439.14l-3.84-14.92v-7.14" style="fill:none;stroke:#000;stroke-width:0.27746298909187317px"/><path d="M579.38,430.73l-1.7,4.15h35.54l-1.7-4.15Z" style="fill:#fff;stroke:#000;stroke-width:0.28557801246643066px"/><rect x="591.33" y="430.88" width="8.22" height="2.1" style="fill:none;stroke:#000;stroke-width:0.27746298909187317px"/><path d="M582.78,422.42h0l-1.7,4.14h28.74l-1.7-4.14H582.78Z" style="fill:#fff;stroke:#000;stroke-width:0.28557801246643066px"/><path d="M582.78,415.36v3.53h25.35v-3.53Z" style="fill:#fff;stroke:#000;stroke-width:0.28557801246643066px"/><path d="M589.81,408.29v3.53H601.1v-3.53Z" style="fill:#fff;stroke:#000;stroke-width:0.28557801246643066px"/><rect x="587.57" y="432.98" width="15.74" height="2.53" style="fill:#fff;stroke:#000;stroke-width:0.27746298909187317px"/><rect x="585.3" y="435.52" width="20.27" height="2.96" style="fill:#fff;stroke:#000;stroke-width:0.27746298909187317px"/><rect x="582.52" y="438.48" width="25.83" height="3.08" style="fill:#fff;stroke:#000;stroke-width:0.27746298909187317px"/><rect x="589.81" y="404.36" width="11.29" height="28.46" style="fill:none;stroke:#000;stroke-width:0.27746298909187317px"/><path d="M589.81,400.67v4.09H601.1v-4.09h-1.47v2.45H598v-2.45h-1.67v2.45h-1.67v-2.45h-1.67v2.45h-1.67v-2.45Z" style="fill:#fff;stroke:#000;stroke-width:0.27746298909187317px"/><path d="M592.35,424.88v6h6.19v-6a3.09,3.09,0,0,0-6.18,0Z"/><path d="M594.5,407.33v4.51h1.91v-4.51a1,1,0,0,0-1.91,0Z"/><path d="M581,412.54l1.68,1.68h7.11v-1.68Zm20.07,0v1.68h7.11l1.68-1.68Z" style="fill:none;stroke:#000;stroke-width:0.27746298909187317px"/><rect x="583.52" y="412.71" width="0.83" height="1.34" rx="0.32" ry="0.32" transform="translate(-128.46 347.35) rotate(-30)"/><rect x="585.74" y="412.71" width="0.83" height="1.34" rx="0.32" ry="0.32" transform="translate(-87.02 165.79) rotate(-15)"/><rect x="587.96" y="412.71" width="0.83" height="1.34" rx="0.32" ry="0.32"/><rect x="606.3" y="412.97" width="1.34" height="0.83" rx="0.32" ry="0.32" transform="translate(-54.52 732.34) rotate(-60)"/><rect x="604.08" y="412.97" width="1.34" height="0.83" rx="0.32" ry="0.32" transform="translate(48.93 890.53) rotate(-75)"/><rect x="602.11" y="412.71" width="0.83" height="1.34" rx="0.32" ry="0.32"/><path d="M590.13,413.66v-1.55h10.76v3.11H590.13Z" style="fill:none"/><path d="M596.59,410.08v-1.55h4.3v3.11h-4.3Z" style="fill:#e3e4e5;opacity:0.9760000109672546;isolation:isolate"/><path d="M590.13,413.66v-1.55h10.76v3.11H590.13Z" style="fill:#e3e4e5;opacity:0.9760000109672546;isolation:isolate"/><path d="M590.13,410.08v-1.55h4.3v3.11h-4.3Z" style="fill:#e3e4e5;opacity:0.9760000109672546;isolation:isolate"/><path d="M591.15,408.11a17.49,17.49,0,0,1,2.27,0c.62,0,.11.09-1.14.09s-1.76,0-1.14-.09Z" style="fill:#e3e4e5;opacity:0.9760000109672546;isolation:isolate"/><path d="M590,406.53V405H600.9v3.11h-4.42v-.52c0-.76-.34-1.15-1-1.15s-1,.39-1,1.13v.5H590Z" style="fill:#e3e4e5;opacity:0.9760000109672546;isolation:isolate"/><path d="M590,402.66v-1.85h1.08v2.51h2v-2.51h1.31v2.51h2v-2.51h1.31v2.51h2v-2.51h1.08v3.71H590Z" style="fill:#e3e4e5;opacity:0.9760000109672546;isolation:isolate"/><path d="M590,417.12v-1.61H600.9v3.23H590Z" style="fill:#e3e4e5;opacity:0.9760000109672546;isolation:isolate"/><path d="M590,420.66V419.1H600.9v3.11h-2a10.53,10.53,0,0,1-2.68-.2,2,2,0,0,0-1.34,0,20,20,0,0,1-2.76.2l-2.12,0Z" style="fill:#e3e4e5;opacity:0.9760000109672546;isolation:isolate"/><path d="M598.63,425.57a4.31,4.31,0,0,0-.65-2.42l-.31-.47h3.23v3.71h-2.27Z" style="fill:#e3e4e5;opacity:0.9760000109672546;isolation:isolate"/><path d="M598.63,428.66v-1.91h2.27v3.82h-2.27Z" style="fill:#e3e4e5;opacity:0.9760000109672546;isolation:isolate"/><path d="M599.7,431.77v-.84h1.2v1.67h-1.2Z" style="fill:#e3e4e5;opacity:0.9760000109672546;isolation:isolate"/><path d="M591.57,431.83V431h7.77v1.55h-7.77Z" style="fill:#e3e4e5;opacity:0.9760000109672546;isolation:isolate"/><path d="M590,428.66v-1.91h2.27v3.82H590Z" style="fill:#e3e4e5;opacity:0.9760000109672546;isolation:isolate"/><path d="M590,424.53v-1.85h3.24l-.3.4a3.65,3.65,0,0,0-.67,2.37v.94H590Z" style="fill:#e3e4e5;opacity:0.9760000109672546;isolation:isolate"/><path d="M590,431.77v-.84h1.08v1.67H590Z" style="fill:#e3e4e5;opacity:0.9760000109672546;isolation:isolate"/><path d="M587.75,434.28V433.2h15.42v2.15H587.75Z" style="fill:#e3e4e5;opacity:0.9760000109672546;isolation:isolate"/><path d="M585.48,437v-1.25h19.84v2.51H585.48Z" style="fill:#e3e4e5;opacity:0.9760000109672546;isolation:isolate"/><path d="M582.73,440V438.7h25.46v2.63H582.73Z" style="fill:#e3e4e5;opacity:0.9760000109672546;isolation:isolate"/><path d="M582.06,438.61c.06-.21.54-2,.79-3l.13-.51h2.21a8.47,8.47,0,0,1,2.21.12c0,.07-.46.12-1.14.12h-1.14v2.87h-2.75v.3c0,.19-.07.3-.19.3s-.17-.07-.13-.21Z" style="fill:#e3e4e5;opacity:0.9760000109672546;isolation:isolate"/><path d="M578.07,434.57s.33-.87.73-1.85l.73-1.79h10.13v1.91h-2.27v1.79h-4.66c-2.56,0-4.66,0-4.66-.06Z" style="fill:#e3e4e5;opacity:0.9760000109672546;isolation:isolate"/><path d="M577,437l.75-1.82,2.35,0a15.17,15.17,0,0,1,2.35.06c0,.05-.2.89-.45,1.85l-.45,1.76h-5.3Z" style="fill:#e3e4e5;opacity:0.9760000109672546;isolation:isolate"/><path d="M579.74,430.49s.34-.91.75-1.91l.75-1.83h1.7c1.28,0,1.7,0,1.7.15s-.21.93-.46,1.88l-.46,1.73-2,0a12.12,12.12,0,0,1-2,0Z" style="fill:#e3e4e5;opacity:0.9760000109672546;isolation:isolate"/><path d="M584.16,430.5s.17-.7.37-1.46l.48-1.85.12-.45h4.53v3.82h-2.75c-1.51,0-2.75,0-2.75-.07Z" style="fill:#e3e4e5;opacity:0.9760000109672546;isolation:isolate"/><path d="M581.45,426.24l.75-1.85.7-1.7h6.76v3.71h-4.14C582.27,426.39,581.4,426.36,581.45,426.24Z" style="fill:#e3e4e5;opacity:0.9760000109672546;isolation:isolate"/><path d="M583,420.65V419.1h2.39v3.11H583Z" style="fill:#e3e4e5;opacity:0.9760000109672546;isolation:isolate"/><path d="M585.72,420.65V419.1h3.94v3.11h-3.94Z" style="fill:#e3e4e5;opacity:0.9760000109672546;isolation:isolate"/><path d="M583,417.12v-1.61h6.69v3.23H583Z" style="fill:#e3e4e5;opacity:0.9760000109672546;isolation:isolate"/><path d="M601.26,417.12v-1.61h6.69v3.23h-6.69Z" style="fill:#e3e4e5;opacity:0.9760000109672546;isolation:isolate"/><path d="M601.26,420.65V419.1h3.23v3.11h-3.23Z" style="fill:#e3e4e5;opacity:0.9760000109672546;isolation:isolate"/><path d="M604.84,420.65V419.1h3.11v3.11h-3.11Z" style="fill:#e3e4e5;opacity:0.9760000109672546;isolation:isolate"/><path d="M601.26,424.53v-1.85H608l.59,1.46.75,1.85.16.39h-8.25Z" style="fill:#e3e4e5;opacity:0.9760000109672546;isolation:isolate"/><path d="M601.26,428.66v-1.91h3.82l.12.45.48,1.82c.2.76.37,1.41.37,1.46a16.11,16.11,0,0,1-2.39.09h-2.39Z" style="fill:#e3e4e5;opacity:0.9760000109672546;isolation:isolate"/><path d="M606.46,430.42c-.12-.35-.9-3.45-.9-3.56a7.54,7.54,0,0,1,2.06-.12h2.06l.68,1.7c.38.94.72,1.8.76,1.91s-.09.21-2.27.21c-1.77,0-2.36,0-2.4-.15Z" style="fill:#e3e4e5;opacity:0.9760000109672546;isolation:isolate"/><path d="M603.53,433.74v-.9h-2.27v-1.91h10.12l.69,1.7.75,1.85c0,.12-.93.15-4.62.15h-4.67Z" style="fill:#e3e4e5;opacity:0.9760000109672546;isolation:isolate"/><path d="M605.8,436.79v-1.43h-1.14c-.68,0-1.14,0-1.14-.12a6.08,6.08,0,0,1,1.85-.12h1.85l.13.51.41,1.55.28,1H605.8Z" style="fill:#e3e4e5;opacity:0.9760000109672546;isolation:isolate"/><path d="M608.55,438.64c0-.1-.19-.87-.42-1.72s-.42-1.6-.42-1.68a9,9,0,0,1,2.7-.1l2.7,0,.71,1.72c.39.95.71,1.77.71,1.82a21.79,21.79,0,0,1-3,.1c-2.55,0-3,0-3-.18Z" style="fill:#e3e4e5;opacity:0.9760000109672546;isolation:isolate"/><path d="M601.26,411.45v-1h2.15v-2.27h1.79v2.27h2.63v-2.27h1.91v4.18h-8.49Z" style="fill:#e3e4e5;opacity:0.9760000109672546;isolation:isolate"/><path d="M581.18,410.31v-2.09h1.91v2.27h2.63v-2.27h1.79v2.27h2.15v1.91h-8.49Z" style="fill:#e3e4e5;opacity:0.9760000109672546;isolation:isolate"/><path d="M586.64,413.78a1.53,1.53,0,0,0-.07-.66l-.13-.36h1.48v1.31h-.67C586.61,414.08,586.59,414.07,586.64,413.78Z" style="fill:#e3e4e5;opacity:0.9760000109672546;isolation:isolate"/><path d="M584.37,414c.2-.08.19-.46,0-.88l-.18-.35h.75c.74,0,.75,0,.75.33a3.17,3.17,0,0,0,.09.66l.09.33H585c-.44,0-.74,0-.66-.07Z" style="fill:#e3e4e5;opacity:0.9760000109672546;isolation:isolate"/><path d="M582.25,413.42l-.65-.66h.91c.85,0,.91,0,.85.24a1.14,1.14,0,0,0,.19.66l.25.42h-.45c-.38,0-.54-.09-1.1-.66Z" style="fill:#e3e4e5;opacity:0.9760000109672546;isolation:isolate"/><path d="M588.81,413.42l0-.66h.81v1.31h-.9l0-.66Z" style="fill:#e3e4e5;opacity:0.9760000109672546;isolation:isolate"/><path d="M583,414.79v-.36h6.69v.72H583Z" style="fill:#e3e4e5;opacity:0.9760000109672546;isolation:isolate"/><path d="M601.26,414.79v-.36h6.69v.72h-6.69Z" style="fill:#e3e4e5;opacity:0.9760000109672546;isolation:isolate"/><path d="M603,413.42v-.66h1.33v1.31H603v-.66Z" style="fill:#e3e4e5;opacity:0.9760000109672546;isolation:isolate"/><path d="M601.26,413.42v-.66h.81l0,.66,0,.66h-.9Z" style="fill:#e3e4e5;opacity:0.9760000109672546;isolation:isolate"/><path d="M582.48,440.43v-1.25H579.2c-3.52,0-3.47,0-3.1-.6l.18-.3-.07.33-.07.33h5.56l.47-1.82c.26-1,.49-1.89.52-2s-.5-.15-2.45-.15h-2.51l-.16.38c-.09.21-.17.33-.2.26a23.78,23.78,0,0,1,.93-2.5c1-2.49,1.18-2.85,1.18-2.59s.48.14,2.17.12l2.17,0,.52-2,.52-2s-.83,0-1.86,0h-1.86l-.26.62c-.14.34-.27.56-.29.5a29.47,29.47,0,0,1,1-2.77l1.08-2.65v-8l-.93-.92-.93-.92,0-2.33,0-2.33h2.38v2.39h2v-2.39h2.39v2.4l1,0,1,0,0-4.81,0-4.81h1.55v2.51h1.55v-2.51h1.79v2.51h1.55v-2.51H598v2.51h1.55v-2.51h1.55l0,4.81,0,4.81,1,0,1,0v-2.4h2.39v2.39h2v-2.39H610l0,2.33,0,2.33-.93.92-.93.92v8l1,2.33c.89,2.17,1.19,3.08.77,2.29l-.18-.33h-4.39l.4,1.52.53,2,.14.51h2.51c1.92,0,2.51,0,2.51-.15s0-.08.11,0,1.8,4.29,1.8,4.39a25.23,25.23,0,0,1-2.92.05l-2.92,0,.51,1.95.51,1.95,3.13,0,3.13,0-.07-.33-.07-.33.18.3c.37.61.42.6-3.1.6h-3.29v2.51H582.48ZM608.3,440v-1.43H582.6v2.87h25.7Zm-25.82-1.37v-.3h2.75v-2.87h1.14c1.06,0,1.14,0,1.14-.24s-.08-.24-2.33-.24c-1.28,0-2.33,0-2.33.05s-.21.88-.48,1.88-.48,1.87-.48,1.92.13.09.3.09.3-.06.3-.3Zm23-1.64,0-1.34-10.07,0-10.07,0v2.75h20.21Zm2.66,1.27s-.13-.56-.29-1.17l-.42-1.6-.13-.51h-2c-1.89,0-2,0-2,.24s.08.24,1.14.24h1.14v2.87h1.25a5.46,5.46,0,0,0,1.25-.07Zm-4.93-4,0-1.17H587.62v2.39l7.8,0,7.8,0Zm-15.75-.38V433l1.11,0,1.11,0,0-1,0-1H579.43l-.64,1.58-.8,2-.16.39h9.68Zm25.42.5-.8-2-.64-1.58H601.12l0,1,0,1,1.11,0,1.11,0v1.78h9.68Zm-21.72-2.6v-1h-1.31v1.91h1.31Zm8.25.06v-.9h-8v1.79h8Zm1.55-.06v-1h-1.43v1.91H601Zm-11.23-3.11v-2H585l-.49,1.89c-.27,1-.49,2-.49,2s.76.14,2.87.14h2.87Zm2.63,0v-2h-2.51v4.06h2.51Zm8.61,0v-2H598.5v4.06H601Zm5.14,1.83a16.06,16.06,0,0,0-.37-1.58l-.48-1.83-.12-.45h-4.05v4.06h2.51c2.26,0,2.51,0,2.51-.2Zm-16.37-6v-2h-7l-.75,1.88c-.41,1-.75,1.92-.75,2s1.91.09,4.25.09h4.24Zm2.65.81a3,3,0,0,1,.83-2.36l.37-.42h-3.73v3.94h2.48Zm8.58-.81v-2h-3.72l.43.5a3.73,3.73,0,0,1,.78,2.57v.87H601Zm8.61,1.88s-.33-.94-.75-2l-.75-1.88h-7v3.94h4.24c2.33,0,4.25,0,4.25-.09Zm-24.15-5.77V419h-2.63v3.35h2.63Zm4.3,0V419h-4.18v3.35h4.18Zm4.9,1.48a2.17,2.17,0,0,1,1.52,0,12.42,12.42,0,0,0,2.82.2h2V419H589.89v3.35h2a10.77,10.77,0,0,0,2.74-.2Zm9.92-1.48V419h-3.47v3.35h3.47Zm3.47,0V419h-3.35v3.35h3.35Zm-18.29-3.53v-1.73h-6.93v3.47h6.93Zm11.23,0v-1.73H589.89v3.47H601Zm7.05,0v-1.73h-6.93v3.47h6.93Zm-18.29-2.33v-.48h-6.93v1h6.93ZM601,413.6v-1.67H589.89v3.35H601Zm7.05,1.2v-.48h-6.93v1h6.93Zm-18.31-1.4,0-.75h-8.55l.77.78.77.78,3.47,0,3.47,0Zm19.15,0,.77-.78h-8.54v.7a2.35,2.35,0,0,0,.08.78s1.62.08,3.5.08h3.42Zm-19.15-2,0-1-1,0-1,0V408.1h-2v2.27H583.2V408.1H581v4.3h8.73Zm20.1-1.17V408.1H607.7v2.27h-2.39V408.1h-2v2.26l-1,0-1,0,0,1,0,1h8.73Zm-15.3-.24v-1.67h-4.66v3.35h4.66Zm6.45,0v-1.67h-4.66v3.35H601Zm-6.45-2.31c0-.7.35-1.15.9-1.15s.9.45.9,1.15v.52H601v-3.35H589.89v3.35h4.66Zm6.45-5v-2h-1.31v2.51H597.9v-2.51h-1.55v2.51h-1.79v-2.51H593v2.51h-1.79v-2.51h-1.31v3.94H601Z" style="fill:#1a1a1a;opacity:0.9760000109672546;isolation:isolate"/><path d="M588.67,433l1.11,0,0-1,0-1,0,.93,0,.93h1.3V430.8l-6,0a54.77,54.77,0,0,1-5.91-.09,9.7,9.7,0,0,1,2.32-.09c2.07,0,2.27,0,2.27-.18s0-.19.13,0,.38.21,2.92.21h2.8v-4.07h-8.7l.07-.27c.06-.22.08-.23.12-.06s.34.21,4.28.21h4.23v-3.94h-7.05V414.2h7l0-.68c0-1.17.13-.86.13.49v1.27H601l0-1.48c0-.81,0-1.57,0-1.67s-.56-.19-5.58-.19c-5.18,0-5.54,0-5.59.21s-.06-.23-.07-.77v-1l-1,0-1,0,1,0,1,0v-9.68h1.55v2.51h1.55v-2.51h1.79v2.51h1.55v-2.51H598v2.51h1.55v-2.51h1.69l-.06,4.84-.06,4.84,1,0,1,0-1,0-1,0v.75a5.8,5.8,0,0,0,.07,1l.07.27h8.57l0-2.18,0-2.18v4.54l-4.39,0-4.39,0v1.55h7.05v8.37h-6.92l0,2,0,2h4.2c3.91,0,4.21,0,4.25-.21s.06-.16.12.06l.07.27h-8.64v4.07h2.43c2.33,0,2.43,0,2.49-.24s.11-.21.16-.18.07.14,0,.24.26.18,2.58.15a19.69,19.69,0,0,1,2.64.06s-2.69.09-6,.09h-6v1.91H601v-.9c0-.51.05-.9.12-.9s.11.41.09,1l0,1,1.08,0c.59,0-2.47,0-6.81,0s-7.39,0-6.78,0Zm10.79-1.17v-.9h-8v1.79h8Zm-7.05-3.17v-2h-2.51v4.06h2.51Zm8.61,0v-2H598.5v2a14,14,0,0,0,.08,2,5.64,5.64,0,0,0,1.25.08H601Zm-8.6-2.36c0-.12.05-.68.11-1.26a2.81,2.81,0,0,1,.84-2.05.77.77,0,0,0,.24-.32,8.64,8.64,0,0,0-1.85-.1h-1.85v3.94h1.25c1.11,0,1.26,0,1.26-.21Zm8.6-1.76v-2h-3.73l.2.27a4.09,4.09,0,0,1,1,2.75l.08.93H601Zm-15.54-3.88V419h-2.63v3.35h2.63Zm4.3,0V419h-4.18v3.35h4.18Zm5,1.48c.08-.08.36-.1.81,0a2.74,2.74,0,0,0,.77,0,.13.13,0,0,1,.16.07,9.78,9.78,0,0,0,2.28.12H601V419H589.89v3.36l2.38,0a11.62,11.62,0,0,0,2.51-.17Zm9.8-1.48V419h-3.41v3.35h3.41Zm3.47,0V419h-3.35v3.35h3.35Zm-18.29-3.56v-1.7h-6.93v3.41h6.93Zm11.23,0v-1.7H589.89v3.41H601Zm7.05,0v-1.7h-6.87v3.41h6.87Zm-18.29-2.3v-.48h-6.93v1h6.93Zm18.29,0v-.48h-6.87v1h6.87ZM594.53,410l0-1.64-2.3,0-2.3,0v3.35h4.67Zm6.48,0v-1.68l-2.3,0-2.3,0,0,1.64,0,1.64H601Zm-6.4-2.38c.09-.66.37-1,.84-1s.75.34.84,1l.08.59H601v-3.35H589.89v3.35h4.64Zm6.4-5v-2h-1.31v2.51H597.9v-2.51h-1.55v2.51h-1.79v-2.51H593v2.51h-1.79v-2.51h-1.31v3.94H601Z" style="fill:#333;opacity:0.9760000109672546;isolation:isolate"/><path d="M589.83,432.84a1.42,1.42,0,0,1,.72-.12h.65v-2h1.2v-4h-2.51v4l.45,0c.25,0-2,0-5,0s-4.57,0-3.44,0c1.48,0,2.06-.08,2.06-.18s0-.11.14,0a11.22,11.22,0,0,0,2.93.14h2.78v-8.13h-7.05v-1.73c0-1,0-2.62,0-3.71s0-2.19,0-2.45v-.48h3.52c3.25,0,3.52,0,3.57-.21s.06.13.07.54v.75H601l0-.45,0-.45,0,.45,0,.45h6.93v-1l-3.5,0-3.5,0,3.55,0,3.55,0,0,4.06c0,2.24,0,4.12,0,4.18a21.39,21.39,0,0,1-3.48.12h-3.44l-.08.63c0,.35-.08,2.17-.08,4.06v3.43l2.48,0c2.39,0,2.36,0-.78.06l-3.26,0v1.91H601l0-.57c0-.56,0-.56.07.12l0,.69h-5.68a48.66,48.66,0,0,1-5.61-.12Zm9.62-1v-.9h-8v1.79h8Zm1.55-3.14v-2H598.5v4H601Zm-8.64-2.33a3.8,3.8,0,0,0,.19-1.09,3.34,3.34,0,0,1,.78-2.16c.55-.49.38-.55-1.6-.55h-1.85v3.94h1.18c.8,0,1.22,0,1.3-.15Zm8.64-1.82v-2h-1.85a14.06,14.06,0,0,0-1.85.06,5.64,5.64,0,0,0,.43.71,3.07,3.07,0,0,1,.55,1.52l.18,1.27.06.39H601Zm-6.45-2.33a4.78,4.78,0,0,1,1.43,0c.43.06,1.73.12,2.9.12H601V419H589.89v3.43l2,0c1.1,0,2.3-.1,2.66-.16Zm-9.08-1.55V419h-2.63v3.35h2.63Zm4.3,0V419h-4.18v3.35h4.18Zm14.82,0V419h-3.47v3.35h3.47Zm3.47,0V419h-3.35v3.35h3.35Zm-18.29-3.53v-1.73h-6.93v3.47h6.93Zm11.23,0v-1.73H589.89v3.47H601Zm7.05,0v-1.73h-6.93v3.47h6.93Zm-18.29-2.33v-.48h-6.93v.4a1,1,0,0,0,.08.48s1.6.08,3.47.08h3.39Z" style="fill:#333;opacity:0.9760000109672546;isolation:isolate"/><path d="M588.06,413.88a1.08,1.08,0,0,1,.1-1c.32-.27.54-.05.54.53s0,.54-.28.54a.66.66,0,0,1-.36-.08Z" style="fill:#333;opacity:0.9760000109672546;isolation:isolate"/><path d="M585.82,413.46c-.11-.39-.1-.52,0-.6.28-.18.51-.05.62.34s0,.75-.27.75-.27-.12-.37-.5Z" style="fill:#333;opacity:0.9760000109672546;isolation:isolate"/><path d="M583.69,413.62c-.3-.42-.31-.54-.06-.75s.23-.11.48.18.33.82,0,.88c-.11,0-.31-.12-.45-.32Z" style="fill:#333;opacity:0.9760000109672546;isolation:isolate"/><path d="M582.89,417.12c0-.92,0-1.28,0-.8s0,1.23,0,1.67,0,0,0-.87Z" style="fill:#333;opacity:0.9760000109672546;isolation:isolate"/><path d="M589.83,432.84a1.42,1.42,0,0,1,.72-.12h.65v-2h1.2v-4h-2.51v4l.45,0c.25,0-2,0-5,0s-4.61,0-3.53,0a11.66,11.66,0,0,0,2.1-.15.26.26,0,0,1,.31,0,21.28,21.28,0,0,0,2.89.11h2.72v-8.13h-7.05v-1.73c0-1,0-2.62,0-3.71s0-2.19,0-2.45v-.48h3.52c3.25,0,3.52,0,3.57-.21s.06.13.07.54v.75H601l0-.45,0-.45,0,.45,0,.45h6.93v-1l-3.5,0-3.5,0,3.55,0,3.55,0,0,4.06c0,2.24,0,4.12,0,4.18a21.41,21.41,0,0,1-3.48.12h-3.44l-.06.57c0,.31-.07,2.14-.08,4.06l0,3.49,2.48,0c2.4,0,2.38,0-.77.06l-3.26,0v1.91H601l0-.57c0-.56,0-.56.07.12l0,.69h-5.68a48.66,48.66,0,0,1-5.61-.12Zm9.62-1v-.9h-8v1.79h8Zm1.55-3.14v-2H598.5v4H601Zm-8.63-2.39a4.88,4.88,0,0,0,.19-1.08,3.37,3.37,0,0,1,.73-2.08c.17-.2.27-.41.23-.47a8.52,8.52,0,0,0-1.85-.11h-1.79v3.94h1.19c1,0,1.21,0,1.3-.21Zm8.63-1.76v-2h-1.85a12.81,12.81,0,0,0-1.85.07,2.17,2.17,0,0,0,.3.45,3.57,3.57,0,0,1,.71,1.87c0,.36.11.86.14,1.11l.07.45H601Zm-7.53-2.28a38.62,38.62,0,0,1,4.81,0l2.72.08V419H589.89v3.43l1.11,0,2.48-.11Zm-8-1.61V419h-2.63v3.35h2.63Zm4.3,0V419h-4.18v3.35h4.18Zm14.82,0V419h-3.47v3.35h3.47Zm3.47,0V419h-3.35v3.35h3.35Zm-18.29-3.53v-1.73h-6.93v3.47h6.93Zm11.23,0v-1.73H589.89v3.47H601Zm7.05,0v-1.73h-6.93v3.47h6.93Zm-18.29-2.33v-.48h-6.93v.4a1,1,0,0,0,.08.48s1.6.08,3.47.08h3.39Z" style="fill:#333;opacity:0.9760000109672546;isolation:isolate"/><path d="M602.23,413.4c0-.49.08-.58.3-.61s.28,0,.34.26c.14.55,0,.85-.34.9s-.34,0-.3-.54Z" style="fill:#333;opacity:0.9760000109672546;isolation:isolate"/><path d="M604.4,413.77c-.1-.27.12-.94.32-1,.39-.07.5.15.36.67-.1.37-.19.5-.37.5a.35.35,0,0,1-.31-.19Z" style="fill:#333;opacity:0.9760000109672546;isolation:isolate"/><path d="M606.59,413.88c-.15-.15-.08-.46.21-.82s.3-.35.5-.15.2.23,0,.63-.5.53-.69.34Z" style="fill:#333;opacity:0.9760000109672546;isolation:isolate"/><path d="M607.36,413.66a1.14,1.14,0,0,0,.19-.66c-.06-.22,0-.24.85-.24h.91l-.65.66c-.56.56-.71.66-1.1.66h-.45Z" style="fill:#e4e5e6;opacity:0.9760000109672546;isolation:isolate"/><path d="M605.16,413.75a3.13,3.13,0,0,0,.09-.66c0-.32,0-.33.75-.33h.75l-.18.35c-.22.43-.24.8,0,.88s-.21.06-.66.07h-.81Z" style="fill:#e4e5e6;opacity:0.9760000109672546;isolation:isolate"/><ellipse cx="431.51" cy="529.86" rx="26.52" ry="10.84" style="fill:#b89902;stroke:#554701;stroke-width:1.0010000467300415px"/><path d="M430.19,520.53c-7.86.43-16.65,1.17-22.89,6.93-1.89,2.34-.16,5.49,2.16,6.56,7.55,4.89,16.82,5.27,25.4,5.06,7.11-.37,14.89-1.64,20.56-6.46a4,4,0,0,0-1-6.27c-7-5.25-16-5.65-24.25-5.82Z" style="fill:#d6b102"/><path d="M428.81,522.85c-6.94.5-14.72,1.13-20.07,6.42-.16,2.7,3,3.41,4.8,4.44,9.49,4.16,20.25,3.67,30.3,1.94,3.83-.86,7.68-2.2,10.48-5.3,0-2.65-3.11-3.28-4.85-4.41-6.49-3-13.71-3.12-20.65-3.09Z" style="fill:#f4c902"/><path d="M429.78,526.59c-5.28.39-10.89.43-15.63,3.26,10.6,4.75,22.85,4.11,33.68.63,1.24-.32,1.52-.81,0-1.18-5.72-2.57-12-2.71-18-2.7Z" style="fill:#fcd518"/><path d="M426.56,433.76,401.1,528.36l1.41,2.24,1.41,1.87,1.41,1.87,1.77,1.5,3.54,3.37,3.89,2.24,4.24,1.87,4.6,1.5,4.6.75h4.6l4.6-.37,4.24-.75,4.24-1.5,4.24-1.87,3.54-2.24,3.54-3,1.41-1.87,1.41-1.5,1.06-2.24,1.06-1.87-25.11-94.61ZM434,436l23,90.12H434Zm-3.89-.75v90.87H405.34Z" style="fill:#b89902;stroke:#554701;stroke-width:1.0010000467300415px"/><path d="M430.14,432.78c.5.48,1.06-.26,0-.07Zm3.31.39c-.78.65,1.06.45.15,0Zm-1.34,1.89c-.94-.1-1.06.7-.59,1.32v91.24H403.46c8.42-30.82,16.78-61.77,25.24-92.52-2.08.11-1.64,3.22-2.28,4.65l-23.79,88.39a33.22,33.22,0,0,0,35.59,15.34c8.76-1.53,17.94-6.27,21.95-15,.16-2.78-1.46-5.28-1.8-8l-22.66-85.36c-1.35-.37.1,1.55.14,2.28,7.57,30.08,15.32,60.13,23,90.2H432.57c.1-30.76-.2-61.57.15-92.3.22-.3-.51-.24-.62-.25Z" style="fill:#d6b102"/><path d="M456.85,529.77c-5.2.4-10.45-.09-15.68.09H406.43c7.41,9.69,20.28,13.79,31.7,11.38,7.28-1.31,14.56-4.89,18.91-11.48Z" style="fill:#f4c902"/><path d="M442.47,533.56c-8.79.15-18-.09-26.52.1a30.22,30.22,0,0,0,31.88,0c-1.78,0-3.57-.06-5.35-.05Z" style="fill:#fcd518"/><ellipse cx="320.11" cy="529.86" rx="26.52" ry="10.84" style="fill:#b89902;stroke:#554701;stroke-width:1.0010000467300415px"/><path d="M321.43,520.53c7.86.43,16.65,1.17,22.89,6.93,1.89,2.34.16,5.49-2.16,6.56-7.55,4.89-16.82,5.27-25.4,5.06-7.11-.37-14.9-1.64-20.56-6.46a4,4,0,0,1,1-6.27c7-5.25,16-5.65,24.25-5.82Z" style="fill:#d6b102"/><path d="M322.82,522.85c6.94.5,14.72,1.13,20.07,6.42.16,2.7-3,3.41-4.8,4.44-9.49,4.16-20.25,3.67-30.3,1.94-3.83-.86-7.68-2.2-10.48-5.3-.06-2.53,2.87-3.17,4.53-4.26,6.59-3.16,13.9-3.27,21-3.24Z" style="fill:#f4c902"/><path d="M321.73,526.65c5.32.27,10.94.37,15.75,3.21-10.56,4.75-22.83,4.07-33.67.66-.9-.28-1.76-.74-.31-1.07,5.72-2.63,12.08-2.93,18.24-2.79Z" style="fill:#fcd518"/><path d="M325.06,433.76l25.46,94.61-1.06,2.24L348,532.48l-1.77,1.87-1.77,1.5L341,539.21l-3.89,2.24-4.24,1.87-4.6,1.5-4.24.75h-4.6l-4.6-.37-4.6-.75-4.24-1.5-3.89-1.87-3.89-2.24-3.18-3L293.59,534l-1.41-1.5-1.41-2.24-1.06-1.87,25.11-94.61ZM317.63,436l-23,90.12h23Zm3.89-.75.35,90.87h24.4Z" style="fill:#b89902;stroke:#554701;stroke-width:1.0010000467300415px"/><path d="M321.48,432.78C320.29,433,320.92,432.91,321.48,432.78Zm-3.3.39c.78.65-1.06.45-.15,0Zm1.34,1.89c1-.11,1,.71.59,1.32l.36,91.23h27.69c-8.42-30.82-16.78-61.78-25.24-92.52,2.08.13,1.64,3.21,2.28,4.65L349,528.23c-2.11,4.48-6.29,7.18-9.79,10.31-7.14,4.4-15.6,6.58-23.83,5.22a30,30,0,0,1-24.18-15.59l24.69-93c1.35-.37-.1,1.55-.14,2.28-7.57,30.08-15.32,60.13-23,90.2H319c-.1-30.76.2-61.57-.15-92.3-.23-.31.52-.24.62-.26Z" style="fill:#d6b102"/><path d="M325,529.77c6.8.2,13.6,0,20.4.09a32.54,32.54,0,0,1-25,12c-9.57.15-19.67-3.77-25.56-12,10-.1,20.17.17,30.17-.09Z" style="fill:#f4c902"/><path d="M306.69,533.59c9.65.07,19.57-.05,29.07,0a29.9,29.9,0,0,1-31.8,0Z" style="fill:#fcd518"/><path d="M373,379.91l-3.18,70.67L376.17,479l6.72-28.42-3.54-70.3,2.12-1.87,1.77-1.87,1.06-1.12.71-1.5.35-1.5.35-2.24-.35-3L385,365,384,362.71l-1.06-1.5-1.41-1.5-1.77-.75-1.77-.75H374.4l-1.77.75-1.77.75-1.41,1.5-1.41,1.5L367,365l-.71,2.24-.35,3,.71,2.24.71,1.87.35,1.5,1.06,1.12,1.77,1.5Zm8.49-10.47v-1.5l-.35-1.12-.71-.75-.71-1.12-.71-.37-1.06-.37-1.06-.37h-1.77l-1.06.37-1.06.37-.71.37-.71,1.12-.71.75-.35,1.12v2.62l.35,1.12.71,1.12.71.75.71.75,1.06.37,1.06.37h1.77l1.06-.37,1.06-.37.71-.75.71-.75.71-1.12.35-1.12Z" style="fill:#b89902;stroke:#554701;stroke-width:1.0010000467300415px"/><path d="M376,359.64c-5.16.14-9.25,5.81-8.43,11.07.76,2.64,1.54,5.72,4.3,6.77,1.65.68,3.34,2.49,2.42,4.49-.91,23.07-2.33,46.15-2.92,69.21l4.81,21.48c1.73-7.65,3.86-15.23,5.23-22.94q-1.76-35-3.53-70.09c3-2.57,7-5.67,6.32-10.37-.13-4-2-8.44-6.06-9.3a6.31,6.31,0,0,0-2.14-.3Zm-.22,2.67a6.9,6.9,0,0,1,7.17,7.36c-.1,4.38-4.35,7.7-8.32,6.8a7.39,7.39,0,0,1-5.51-8.66,6.86,6.86,0,0,1,6.66-5.51Z" style="fill:#d6b102"/><path d="M376.11,390.17c-.8,20.61-2.43,41.24-2.35,61.86l2.49,11.1c1.8-6.67,3.65-13.56,2.7-20.57L376.2,388Z" style="fill:#f4c902"/><path d="M310.39,421.79l.71,13.46H441.24V421.79H426.39l-3.54,2.62L419,426.28l-2.12,1.12-2.48.75-2.83.37-3.18.75L402,428.15,395.62,427l-5.66-1.5-5.3-1.12H367.33l-6.72,1.5L354.24,427l-6,1.12-6.37,1.12-6.37-1.87-4.6-1.5-1.77-1.12-1.41-.75-1.41-1.12-1.06-1.12Z" style="fill:#b89902;stroke:#554701;stroke-width:1.0010000467300415px"/><path d="M430.73,423.26c-1.87.14-4-.32-5.49,1.26-4.53,3-9.57,5.34-15,5.8-3.3,1-6.75-.66-10.12-1-5.54-.77-10.91-2.78-16.42-3.4-5.21-.23-10.49,0-15.72,0-5.27.69-10.5,2.3-15.84,3-3.67.52-7.39,1.74-11.06,1.67-5.67-1.8-12.07-2.72-16.47-7.31H311.88l.55,10.47h127.4c-.12-3.42.23-7.34-.17-10.45-3,0-6-.09-8.93-.05Z" style="fill:#d6b102"/><path d="M429.56,425.47c-3.07-.27-5,2.59-7.67,3.58a37,37,0,0,1-6,2.46h21.8c0-2,.1-4,0-6-2.71,0-5.43,0-8.14-.09Zm-115.12,6h21.64c-4.3-1.38-8.85-2.68-12.25-6h-9.7Zm61.86-3.45a73.64,73.64,0,0,0-17.9,2c-2.49.49-5,1-7.49,1.44h48.48c-7.31-1.35-14.45-3.86-21.9-3.45H376.3Z" style="fill:#f4c902"/><path d="M370.16,435.26h12V424.41h-12Z" style="fill:#b89902;stroke:#554701;stroke-width:1.0010000467300415px"/><path d="M371.57,433.76h9.2v-7.85h-9.2Z" style="fill:#d6b102"/><path d="M373.74,431.91h4.87v-4.16h-4.87v4.16Z" style="fill:#fcd518"/><path d="M339.69,680.22c-.84,4.43-1.34,7.19-3.37,11.25-4.62,9.24-3.25,5.34-5,14.25a23.76,23.76,0,0,0,.69,8c1,2.47,3,10.54,4,12.59-.77,2.61-9.76,3.55-11.71,3.88-1.24.21-7,2.07-9.87,2.75-3.09.72-3.45,6.2-3,7.13,2.35,4.81,5.46,12,8.88,15.38.9.9,1.42,3.35,2,4.5.47.93.33,2.3.8,3.23a7.31,7.31,0,0,0,3,2.52c.94.47.83,2.08,1.5,2.75.32.32.65.9,1,1.25.12.12.67,0,.5,0s-.5-.17-.5,0,3.87.13,4.25.25c3.47,1.05,3.9-5.5,1.25-10.5-.07-.13.1-.9,0-1-.36-.36-2-.25-1.5-.25s-1.2.18-1.75,0,.43-3.07,0-3.5c-.75-.75-2.84.7-3.75.25-.66-.33-4-6.32-4.5-7.25-.23-.46-3.6-3-2.87-3.75,0,0,.25-2.62,2.63-2.62,3.59,0,4.24-.54,7.5-1.62a37.05,37.05,0,0,1,9.63-1.37c2.68,0,7.12-2.75,9.88-2.75-1,4.73-.68,16.55-4,19.88-.47.47.38,6.6,0,7.75-.5,1.51-1,2.89-1.5,4.25-.36,1.07-2.08,8.58-2.62,9.13l-2,2a49.35,49.35,0,0,1-2,5c-.37.55-1,.69-1,1.25,0,2.5-4.44,8.06-3,9.5.81.81,2.7,1,3.88,1,5.55,0,6.13-.07,6.13-5.75a6.33,6.33,0,0,1,0-2c.95-1.89,2.77-3,4-4.25,1.47-1.47,1.88-9.52,1.88-11.87s-.38-7.18,1-9.25c2.3-3.45,4.31-6.5,5.5-11.25.93-3.73.51-12,4-13.75,1-.51,8.91-3.91,9-4,.31-.31,3,0,3.5,0,3.21,0,5.82,0,8.25-1.25,5.69.46,7.85,3.32,7,10.13a6.46,6.46,0,0,1-2,3.63,13.66,13.66,0,0,0-1.5,2.5c-.42,1.68-.51,3.56-.87,5.38-1.23,6.14-4,11.87-6.87,17.63-1,2.08-2.5,2.25-3.5,3.25-1.21,1.21-1.11,2.36-2,3.25-.43.43-1.64.14-2,.5-1,1-1.31,2.52-2.25,3-2,1,3.15,3.31,6.75,2.75.5-.08,3.47-.53,4-.53,6,0,2.46-3.94,3.22-5.47.69-1.38,3.76-.51,4-.75,1.1-1.1,0-12.53,1-13.5,1.22-1.22.94-3.38,1.75-5,.59-1.18.95-1,1.63-2.37.11-.21,1.48-2.73,1.63-2.87,1.06-1.06,1.85-1.6,2.75-2.5.58-.58,1-2,1.5-2.5,2.13-2.13,3.23-1.78,5-6,.89-2.13-4.17-4.55-1.25-8,1.19-1.41,2.66-1.91,3.5-2.75s4.35,2.29,5.53,4.28c2.27,3.79,9.56,4.77,14.47,7.22.17.92,1.17,4,.5,5-3.26,4.89-1.82,5.08-1.82,11.26,0,1.7-2.67,9.79-1.94,11.24,1.34,2.67,1.79,5.28,3.51,7,.53.53,1.9,3.1,3.25,1.75a9.59,9.59,0,0,0,3-7c0-5.65-.17-.84-2-4.5-.66-1.32.54-3.08,1-4,.58-1.17,0-4.17,0-5.5,0-.64-.48-4.52,0-5,.64-.64,4.29-10.17,3.5-11.75-.54-1.08-1.87-1.37-2.5-2s-.67-1.67-1.25-2.25c-2-2-6.55-8-4.25-11.5,1.28-1.92,3.27-2.79,4.25-4.75a20.7,20.7,0,0,1,2-6.75c.38-.77,0-2.61,0-3.5a23.79,23.79,0,0,0-4.5-14.25c-1-1.45-2.81-2.31-3.75-3.25-.67-2.5,0-2.55-2.25-2.62-3-3-11.14-4.08-15.48-4.08-2.35,0-8.31,1.6-10.14,1.7-5.06.29-9.06.57-11.38-1.75-1-1-1.2-2.45-2.25-3.5-4.44-5.21-4.83-8-6.87-14.12a36.81,36.81,0,0,0-4.37-6.62c-.76-.76-.65-.43-1.12-1.62-.54-1.34-3.67-3.4-4.12-4.75s-5-4.39-6-4.87c-3.25-1.63-5.15-4.62-9-4.62-2,0-4.78-1.61-6.5-.75-2.25,1.12-4.12,1.5-5.75,3.13-1.08,1.08-2.93,1.68-4,2.75-.73.73-.32,2.16-1.06,2.9-2.17,2.17-3.54,5.67-5.62,7.74-1.67,1.67-9.83,6.11-7.86,10.05,1.08,2.16,3.08,5.22,5.33,5.38,1,.07,2.69-.33,1.9.91,0,0-2.43,1.39,2.23,1.39a1.83,1.83,0,0,0,1.07-.13c2.4-1.2,3.74-3.37,6-4.5a6.38,6.38,0,0,0,2-1.25,23.17,23.17,0,0,1,2.89-2.33c.45,1.62,1.1,3.73,1.1,3.73a34.55,34.55,0,0,1,.13,4.61Z" style="fill:#1a1a1a;stroke:#000"/><path d="M343.61,645l.82-1.88,1.19,0c1.59,0,1.47-1,5.29-1.19s4.38-.22,4.38-.22l4.58-.53-4.94,2.41a10.71,10.71,0,0,1,5.18.91,21.15,21.15,0,0,0,6.11,1.38s-5.69.05-7.29.1a11.28,11.28,0,0,0-2.37.25s8.57.36,10.42,1.46,3.64,4.25,4.72,5a11.41,11.41,0,0,0,4.43,2.23l3.08.63s-5.36.38-7.4-.4-3.63-1.34-3.63-1.34,2.39,3,4.71,3.63,5,1.26,6.6,2.55,1.14,2.79,2.6,3.45a11.34,11.34,0,0,0,2,.78s-4,.53-6-1.09a8.77,8.77,0,0,0-2.58-1.74s1.31,3.19,3.25,3.83a14.36,14.36,0,0,1,5.13,3.06,15,15,0,0,1,2.08,2.37l.72,1.24s-5.55-1.39-6.87-1.53-1.5.19-1.5.19,8.11,2.63,9.7,4.42,5.44.55,5.44.55-4.56,4-5.8,2.88a11,11,0,0,0-3.51-1.76s1.52,2.74,3.63,3.17,3.84.29,5.41,1a16.29,16.29,0,0,1,2.74,1.53,15.94,15.94,0,0,0-4.39,1.19c-2.91,1.12-3.07.11-3.07.11s1.53,1.15,4.75.88,6.15,2.14,6.15,2.14a11.3,11.3,0,0,0-4.3-.14,14.26,14.26,0,0,1-3.7.23s.52,3.25,2.74,3.45a2.77,2.77,0,0,1,2.63,1.75l0,.48-6.17-1.43L384,689l-3.16-1.93-5.17-6.61-1.61-6.85L370,666.27l-5.35-5.55-5.17-8.36L352.77,648l-5.49-2.08Z" style="fill:#0a0a0a;stroke:#000;stroke-linecap:round;stroke-linejoin:round;stroke-width:0.4000000059604645px"/><path d="M344.43,643.07a4.7,4.7,0,0,0-2.59-1c-1.87-.27-4.37-.52-6.16.84s-1,3.32-3.61,4.41c-2.32,1-1.86,3.72-4.07,2.87a2,2,0,0,1-1.06-1.51s-.95,1.78-.31,2.39a3.11,3.11,0,0,0,2.83.59c.48-.11-.21.64-1,.64a3.93,3.93,0,0,1-1.57-.39,2.39,2.39,0,0,0,.9,1.77,3.15,3.15,0,0,0,3.19.72c1.47-.27,2,0,2.78-.78l.79-.81s0,1.95-1,2.19a3.74,3.74,0,0,0-1.06.34s2.93.28,3.44-.87.45-1.93,1.53-2.51.59.13,2.55-.81c1.74-.83,1.1.8,2.62-1.5,6.22-2.36,7.52-4.89,4.8-4.36l-.79-.19-.93,0-.75-.35-.49-.58.81-.5Z" style="fill:#0a0a0a;stroke:#000;stroke-linecap:round;stroke-linejoin:round;stroke-width:0.4000000059604645px"/><path d="M418.46,690.57c.57-.59,1.85-2.44,2.74-2.74,2.78-.93,9.45-.18,12.9-.18.68,0,4.18-1.28,4.82-.88.22.14-1.06.84-1.77,1.55-1.64.72-2.87,1.69-3.36,1.72l3.36,0c2.62,0,5.66-.46,7.91.66.22.11,4.64-.14,4.64,0,0,.55-.69,1.44-3.54,1.64-.53,0-2.6.16-2.14.42a5.2,5.2,0,0,0,1.48.51,9.24,9.24,0,0,1,2.17.8c.93.31,2.66.72,3.23,1.28s3.9,1.24,4.77,1.59c.09,0,3.09.21,2.83.35-.71.4-.62.4-1.24.71-1,.51-3.69.23-4.64.71-.27.13,2.59.81,3.31,1.9,1.4,2.11,4.73,3.3,7.16,4.11a25.06,25.06,0,0,0,3.54.18c0-.08-1.31.65-2.47,1.24a33.74,33.74,0,0,1-4.07.71c-.26.26,4.43,1.43,4.6,1.59.51.51,1.27.74,1.77,1.24,2,2,1.29.65,2.76,2.34,2,1.63,4.09,1.25,5.37,2.83-1.29,0-3.4,1.15-5.13,1.17-3.84,0-3.5-.56-6.89,0a31.43,31.43,0,0,1-3.18-.88c-.85-.21-4.83-1.71-4.95-1.59s.71.94.88,1.06c1,.65,1.55,1.91,2.3,2.65.3.3,1.67.35,1.24.35-4.33,0-9.92-1.81-13.79-3.36-.33-.13-.76,0-1.06-.18a47.35,47.35,0,0,1-7.07-5.3c-.16-.16-1.05-1.94-1.24-1.94-.58,0,1,5.3.35,5.3s-1.77-1.66-1.77-2.3c-1.68-3-.92-6.5-1.77-9.37-.51-1.52-1.52-5.3-2.76-6.54-.82-.82-5.67-2-7-1.59-1.08.33-.74.63-2,1.22a14.14,14.14,0,0,1-2.36-2.9Z" style="fill:#0a0a0a;stroke:#000;stroke-linecap:square;stroke-width:0.4000000059604645px"/><path d="M402.56,731.72c-2.06-1.06-4.43-2.23-5.5-4.37-.63-1.26-.79-2.72-1.37-4a23.62,23.62,0,0,1-1.5-3.87c-.34-1.36.13-3,.13-4.25" style="fill:none;stroke:#000"/><path d="M349.31,735.59c.06-.49-.22-1.41,0-1.89,1-1.92.62-7.11.62-9.63" style="fill:none;stroke:#000"/><path d="M336,726.33a3.41,3.41,0,0,0,.85,1.09c.4.4.58,1.38,1.15,1.94.79.79,2.61,1.37,3.54,2.3a16.2,16.2,0,0,0,4.15,3.36c.67.34,2.75.89,3.27,1.41" style="fill:none;stroke:#000"/><path d="M336.43,673.24c4.79-4.06,6.15-.31,9.81-4.68" style="fill:none;stroke:#000;stroke-width:0.8999999761581421px"/><path d="M326.81,765.72c3.79-.22,3.26-5.06,3.88-7.5" style="fill:none;stroke:#000"/><path d="M335.44,787.72c2.35,1.64,4.87.69,7-.37" style="fill:none;stroke:#000"/><path d="M372.19,775.22c1.08,2.58,5.51,2.65,8.13,2.13" style="fill:none;stroke:#000"/><path d="M425.69,767.72c-1.42,2.24-2.52,5.9-4.87,6.38" style="fill:none;stroke:#000"/><path d="M380.31,732c3.16.59,6.91-.79,10.06,0a24.65,24.65,0,0,0,8.25.31,19.11,19.11,0,0,1,2.94-.62" style="fill:none;stroke:#000"/><path d="M527.07,671.39c3.34,2.18,8,1.25,10.76.48s.68-1.38-.83-3.09c-2.26-2.57-4.89-1.52-7.84-2.88-8.87-4.11-9.67-9.53-10.13-13.35C516.41,657.55,518.34,665.7,527.07,671.39Z" style="fill:#fcba16;stroke:#4f3a00;stroke-linecap:round;stroke-linejoin:round"/><path d="M632.36,766.92a7.63,7.63,0,0,0,8-1.26c1.33-1.31,2.62-1.42,1.23-2.79-3,.94-5.37.9-6.45-.7a30.11,30.11,0,0,0-2.75,4.75Z" style="fill:#fcba16;stroke:#4f3a00;stroke-linecap:round;stroke-linejoin:round;stroke-width:1.2000000476837158px"/><path d="M630.54,712.41c.61,7.4,10.83,12.95,12.44,16.56a17,17,0,0,1,1.91,8.45c-.36,6.15-4.89,14-7.69,19.45-.77,1.5-2.29,4.94-2.16,5.43.4,1.46,6.27,1.68,7.91-.27,1-3,3.17-2.49,3.51-2.68.48-1.38.22-2.49.4-4.16a37.46,37.46,0,0,1,1.2-7.27c1.31-4.08,3.66-7.38,4.65-11.54.69-2.92,2.51-2.9,3.43-5.46,1.05-2.92-.73-8.87.77-11.58,1.88-3.38,6.88-3.4,9.29-11.2" style="fill:#fcba16;stroke:#4f3a00;stroke-linecap:round;stroke-linejoin:round;stroke-width:1.2000000476837158px"/><path d="M634.36,768.26a6.72,6.72,0,0,0,7.71-2.34A4.79,4.79,0,0,0,643,762a12.26,12.26,0,0,1-6.93,1.07A29.39,29.39,0,0,0,634.36,768.26Z" style="fill:#fcba16;stroke:#4f3a00;stroke-linecap:round;stroke-linejoin:round;stroke-width:1.2000000476837158px"/><path d="M655.43,766.89a7.59,7.59,0,0,0,8.05.12c1.5-1.06,2.74-2.77,1.56-4.35-1.9-.87-4-.48-6-.52-1.14,1.53-2.56,2.76-3.62,4.75Z" style="fill:#fcba16;stroke:#4f3a00;stroke-linecap:round;stroke-linejoin:round;stroke-width:1.2000000476837158px"/><path d="M657.21,768.54a6.6,6.6,0,0,0,8-1c1.42-1.33,2.28-3.51.9-5.14a12.35,12.35,0,0,0-5.43-.75C659.62,764,657.7,767,657.21,768.54Z" style="fill:#fcba16;stroke:#4f3a00;stroke-linecap:round;stroke-linejoin:round;stroke-width:1.2000000476837158px"/><path d="M586.39,714.54c-2.94,4.36-4,9.27-5.13,14.42-1.29,6.1-3.61,10.42-5.14,15.88-1.43,5.1-1.41,9.09-1,14.38.16,2.24-3.73.45-2.7,2.88.51,1.2-.59,1-1.7,1.93s-3.6,3.52-5.14,2.11c-.75,1.29-3.31-.52-2.73-2,3.77-3.26,5.74-8.61,6.36-12.61.76-4.92-2.66-9.74-2.13-14.64a14.79,14.79,0,0,0-.78-6.32c-2.33-6.95-1.58-9.6-3.46-13.52" style="fill:#fcba16;stroke:#4f3a00;stroke-linecap:round;stroke-linejoin:round;stroke-width:1.2000000476837158px"/><path d="M560.53,769.41a7.61,7.61,0,0,0,7.91-1.54c1.27-1.35,2.46-1.55,1-2.86-3,1-5.48.74-6.62-.83a32,32,0,0,0-2.31,5.23Z" style="fill:#fcba16;stroke:#4f3a00;stroke-linecap:round;stroke-linejoin:round;stroke-width:1.2000000476837158px"/><path d="M562.58,770.68a6.82,6.82,0,0,0,7.61-2.61,5.3,5.3,0,0,0,.51-4.06c-2.21,1.26-5.31,1.85-6.6,1.19A32,32,0,0,0,562.58,770.68Z" style="fill:#fcba16;stroke:#4f3a00;stroke-linecap:round;stroke-linejoin:round;stroke-width:1.2000000476837158px"/><path d="M537.25,671.32a3.74,3.74,0,0,0-2.2-2.14c-1.66-.69-4.07.25-6.34-.47s-3.8-.65-5.34-2.05c.21,2.34,3.21,11,10,7.19,1.05-.59,2.18,1.37,3.29.52" style="fill:#fcba16;stroke:#4f3a00;stroke-linecap:round;stroke-linejoin:round;stroke-width:0.9967120289802551px"/><path d="M536.71,674.36c-.46-4-7.81,0-12.28-7" style="fill:#fcba16;stroke:#4f3a00;stroke-linecap:round;stroke-linejoin:round;stroke-width:0.9053850173950195px"/><path d="M675,689.51c2.44,3.11,3.42,5.27,1.94,11.69-2.76,11.94-1.08,13.81-.29,25.8a15.66,15.66,0,0,1-2.17,8.13c-1.34,2.44-1.65,8,.4,10.39,3.3-7.43,1.13-2.5,3.13-7.36-1.07,3.41-1.81,5.85-.32,10,2.11-4.81,3.86-8.7,3.86-12.26a50.45,50.45,0,0,0-.72-6.51c-4.42-22.9,1.86-21.75,1-32.95-.61-7.76-4.52-14.06-20.5-20.81-10.59-3-20.84,1.22-29.67,2.26-2.7.32-11.89-.47-21.31.1a39.39,39.39,0,0,1-11.88-1.32c-10-4.62-29.29-4.77-35.45-4.69-10,2.83-30.9-7.34-32.34-2.22-2.68,9.56-8.82,16.22-10,20.77s1.76,4.74,3.55,7.59,8.56,3.83,12.57,5.07,7.75,4.49,8.47,7.38c2.07,8.27,6.34,10.73,7.51,12,9.17,9.74,14.1,18.14,25.62,15.51,14.6-3.34,30.94-7.35,33-6.86,1.67.41,2.06,4.16,1.84,6.17,3.74-6.56,8-9.53,15.6-11.86.63-.19,10.81-4.34,19.14-5.71.9,1.16.48,1.22,1.33,2.86a32.35,32.35,0,0,0,6.79,9,10.87,10.87,0,0,1,3.75,5.76c2,5.78.78,11.09.11,17.28-.19,1.71-.67,5.7-.77,7.42-.06,1.06,4.06,1.76,7,.29A4.77,4.77,0,0,1,668,758a16.47,16.47,0,0,0-.2-4.23,41.49,41.49,0,0,1-1.54-7.61c-.23-4.32.89-8.73.33-13-.39-3,2.54-5.47,2.49-8.22-.06-3.14-.56-6.9-.13-10a123.74,123.74,0,0,0,.77-18.18c-.06-3.79,1.5-5.86-2-11.72-.15-1.79,3.47-.36,7.26,4.49Z" style="fill:#fcba16;stroke:#4f3a00;stroke-linecap:round;stroke-linejoin:round;stroke-width:1.2000000476837158px"/><path d="M546.71,675.21a3.74,3.74,0,0,1,2.2-2.14c1.66-.69,4.07.25,6.34-.47s3.8-.65,5.34-2.05c-.21,2.34-3.21,11-10,7.19-1.05-.59-2.18,1.37-3.29.52" style="fill:#fcba16;stroke:#4f3a00;stroke-linecap:round;stroke-linejoin:round;stroke-width:0.9967120289802551px"/><path d="M547.25,678.25c.46-4,7.81,0,12.28-7" style="fill:#fcba16;stroke:#4f3a00;stroke-linecap:round;stroke-linejoin:round;stroke-width:0.9053850173950195px"/><path d="M548.71,653.45c12.73,6.58,10.28,18.19,4.39,19.13a34.53,34.53,0,0,1-8.6.46,2.58,2.58,0,0,1-2-4.21c1.83-2.6,5.28-.35,8.19-.81C555.2,667.3,554.24,661.68,548.71,653.45Z" style="fill:#fcba16;stroke:#4f3a00;stroke-linecap:round;stroke-linejoin:round"/><path d="M627.82,709.27c2.72,3.13,8.92,6.08,8.92,6.08,4.08,1.65,8.61.76,11.1,4.39" style="fill:#fcba16;stroke:#4f3a00;stroke-linecap:round;stroke-linejoin:round;stroke-width:1.2000000476837158px"/><path d="M549.69,695.54c-1.33,13.12,2.32,21.74,5,28" style="fill:#fcba16;stroke:#4f3a00;stroke-linecap:round;stroke-linejoin:round;stroke-width:1.2000000476837158px"/><path d="M588.62,713.48c-2.55,4.6-3.22,9.59-3.86,14.82-.76,6.19-2.69,10.7-3.74,16.27-1,5.2-.62,9.18.23,14.41.36,2.21-3.67.78-2.44,3.1.61,1.15-.28,1-1.31,2.11s-3.5,3.79-5.15,2.52c-.64,1.35-3.35-.22-2.89-1.7,3.48-3.58,5-9.09,5.24-13.13.33-5-3.5-9.47-3.39-14.4a14.79,14.79,0,0,0-1.32-6.22c-2.93-6.71-2.41-9.42-4.62-13.17" style="fill:#fcba16;stroke:#4f3a00;stroke-linecap:round;stroke-linejoin:round;stroke-width:1.2000000476837158px"/><path d="M567.61,770.41a7.62,7.62,0,0,0,7.75-2.22c1.15-1.46,2.42-1.73.86-2.92-2.86,1.3-5.49,1.21-6.76-.26a32,32,0,0,0-1.85,5.4Z" style="fill:#fcba16;stroke:#4f3a00;stroke-linecap:round;stroke-linejoin:round;stroke-width:1.2000000476837158px"/><path d="M569.76,771.5a6.83,6.83,0,0,0,7.36-3.27,5.29,5.29,0,0,0,.37-4.06c-2.09,1.45-5.42,2.42-6.69,1.73a32,32,0,0,0-1,5.6Z" style="fill:#fcba16;stroke:#4f3a00;stroke-linecap:round;stroke-linejoin:round;stroke-width:1.2000000476837158px"/><path d="M235.27,323.67c-95.77,114.14-127,291.65-61.75,455.25,79.73,198.25,272.72,278.32,442.24,284.53,12.42,1.07,23,27,36.76,42.47-36.28-17.42-53.77-24.57-56-29.1C415.06,1053.67,252.82,976.44,165,773.42c-49.44-122-37.55-294,28.5-397.25C207,357,228,325.43,235.27,323.67Z" style="fill:#599740;stroke:#2e5f2e"/><path d="M749.74,331.45c81.52,100.64,92.32,344,42,446.06C695,978.58,523,1052.33,353.45,1058.53c-12.42,1.07-23,27-36.76,42.47,36.28-17.42,53.77-24.57,56-29.1C554.15,1048.75,712.39,975,800.19,772c49.44-122,24.8-303.15-18-396.64-8.53-19.93-19.56-24.7-32.48-43.92Z" style="fill:#599740;stroke:#2e5f2e"/><path d="M169.65,480.83l-15.56.71" style="fill:none;stroke:#004a04;stroke-width:3.0999999046325684px"/><path d="M127.93,511.94a35.57,35.57,0,0,0,17.32,10.61" style="fill:none;stroke:#004a04;stroke-width:3.0999999046325684px"/><path d="M122.27,655.49c4.08,5.34,13.37,9,18.38,10.25" style="fill:none;stroke:#004a04;stroke-width:3.0999999046325684px"/><path d="M171.77,718.77c-6.94,2.48-14.77,4.81-18.74,5.3" style="fill:none;stroke:#004a04;stroke-width:3.0999999046325684px"/><path d="M239.3,848.17c-8,5.07-15.53,11.83-23,15.56" style="fill:none;stroke:#004a04;stroke-width:3.0999999046325684px"/><path d="M250.61,940.81c6.64.61,12.84.16,17.32-2.83" style="fill:none;stroke:#004a04;stroke-width:3.0999999046325684px"/><path d="M395.93,1033.44a44.15,44.15,0,0,1,5.3-14.14" style="fill:none;stroke:#004a04;stroke-width:3.0999999046325684px"/><path d="M232.58,355.67c-8-.22-18.54,6.5-25.1,2.12" style="fill:none;stroke:#004a04;stroke-width:3.0999999046325684px"/><path d="M238.95,346.13c8.73-8.4,21.31,2.73,12.73,11.31-5.31,5.31-22.27,8.8-22.27-2.83C229.4,349.43,235,348.11,238.95,346.13Z" style="fill:#333;stroke:#000"/><path d="M181.67,470.58c4.09,2.18,10.89-2.33,14.85-.35,14.64,7.32-11.47,24.14-25.1,17.32s2.9-17,10.25-17Z" style="fill:#333;stroke:#000"/><path d="M112,494.27V507c0,12.29,15.28,15.4,20.15,5.66C139.93,497.15,120.5,485.79,112,494.27Z" style="fill:#333;stroke:#000"/><path d="M119.09,642.76c-2.38-.87-12.46-3.8-14.85-1.41-2.16,2.16-3.13,9.24-.71,11.67,27.22,27.22,29.12-6.38,15.56-10.25Z" style="fill:#333;stroke:#000"/><path d="M165.05,722c.23-3.32-1-9.61,2.12-11.67C209.15,682.3,184,744,165.05,722Z" style="fill:#333;stroke:#000"/><path d="M230.82,842.87c2.26-3.35,4.71-5.89,6.36-9.19,6.11-12.22,30.94-6.72,23,9.19C252.08,859,235.43,859,230.82,842.87Z" style="fill:#333;stroke:#000"/><g style="opacity:0.6580650210380554;isolation:isolate;filter:url(#b)"><path d="M230.82,842.87c2.26-3.35,4.71-5.89,6.36-9.19,6.11-12.22,30.94-6.72,23,9.19C252.08,859,235.43,859,230.82,842.87Z" style="fill:url(#c)"/><path d="M230.82,842.87c2.26-3.35,4.71-5.89,6.36-9.19,6.11-12.22,30.94-6.72,23,9.19C252.08,859,235.43,859,230.82,842.87Z" style="fill:none;stroke:#000"/></g><path d="M245.66,922.42c-17-8.08-27.28,15.35-10.61,23.69,23.19,11.59,26-10.82,10.61-23.69Z" style="fill:#333;stroke:#000"/><g style="opacity:0.6580650210380554;isolation:isolate;filter:url(#d)"><path d="M245.66,922.42c-17-8.08-27.28,15.35-10.61,23.69,23.19,11.59,26-10.82,10.61-23.69Z" style="fill:url(#e)"/><path d="M245.66,922.42c-17-8.08-27.28,15.35-10.61,23.69,23.19,11.59,26-10.82,10.61-23.69Z" style="fill:none;stroke:#000"/></g><g style="opacity:0.6580650210380554;isolation:isolate;filter:url(#d)"><path d="M245.66,922.42c-17-8.08-27.28,15.35-10.61,23.69,23.19,11.59,26-10.82,10.61-23.69Z" style="fill:url(#e)"/><path d="M245.66,922.42c-17-8.08-27.28,15.35-10.61,23.69,23.19,11.59,26-10.82,10.61-23.69Z" style="fill:none;stroke:#000"/></g><path d="M407.15,1041.69c1-18.76-24.64-19.3-25.94-.7-1.81,25.86,20,19.9,25.94.7Z" style="fill:#333;stroke:#000"/><path d="M375.42,994.55c6.6-51-13.44-85.07-32.53-128.69C337.94,917.23,345.59,955.77,375.42,994.55Z" style="fill:#599740;stroke:#2e5f2e"/><path d="M395.22,1009.39C382.44,971,411.4,925.29,393.8,884.24,380.24,924.48,366,974.32,395.22,1009.39Z" style="fill:#599740;stroke:#2e5f2e"/><path d="M327,978.92c0-26.57-20.42-40.75-28-63.5-5.67-17-1-41.84-1-60,0-8-3.25-15.18-3-23C327.81,873.2,327,927.62,327,978.92Z" style="fill:#599740;stroke:#2e5f2e"/><path d="M375.52,1003.42c-12.59-33.87-27.67-81.72-59-101C331.67,932.65,344.73,995.21,375.52,1003.42Z" style="fill:#599740;stroke:#2e5f2e"/><path d="M391,1016.92c-34.88,26.56-83.83,30.5-126,30.5C301.83,1016.52,349.3,1025.27,391,1016.92Z" style="fill:#599740;stroke:#2e5f2e"/><path d="M301.27,243.17c-7.34,36.92-52,52.58-66,80.5C228,270.72,268.79,267.53,301.27,243.17Z" style="fill:#599740;stroke:#2e5f2e"/><path d="M227.52,331.92c9.36-40.61,13.76-78.39,8.5-120.5C216.95,245.06,208.26,296.16,227.52,331.92Z" style="fill:#599740;stroke:#2e5f2e"/><path d="M229.94,336.59c27.41-21.23,67.06-13.74,89.25-44C290.39,284.85,236.26,305,229.94,336.59Z" style="fill:#599740;stroke:#2e5f2e"/><path d="M204,329.92c-27.77,42.47-34.77,71.18-39.5,118.5C200.6,411.23,208.74,377.17,204,329.92Z" style="fill:#599740;stroke:#2e5f2e"/><path d="M164.52,448.42c34-11.12,66.44-53.51,83-80C230.9,374.15,167.65,441.37,164.52,448.42Z" style="fill:#599740;stroke:#2e5f2e"/><path d="M160.52,457.92c42.12.95,94.73-35.08,118-65C226.68,388.27,188.42,430,160.52,457.92Z" style="fill:#599740;stroke:#2e5f2e"/><path d="M160.52,457.92c-24.31-21.67-26.86-93.05-9.25-137.25C148.9,359.07,183,420.82,160.52,457.92Z" style="fill:#599740;stroke:#2e5f2e"/><path d="M148.52,516.92c-26.41-26.41-53.92-84.46-45.5-126.5C116,432.59,153.07,471.42,148.52,516.92Z" style="fill:#599740;stroke:#2e5f2e"/><path d="M130,607.42c20.91-33.46,46.89-61.87,49-104C155.34,525.09,122.67,582.91,130,607.42Z" style="fill:#599740;stroke:#2e5f2e"/><path d="M130.52,618.42C106,585.69,97.48,536,97,493.42,128.65,527.14,122.13,576.46,130.52,618.42Z" style="fill:#599740;stroke:#2e5f2e"/><path d="M202,520.42c-30.2,33.13-57.42,55.61-66.5,101,23.7-12.7,72.15-72.73,66.5-101Z" style="fill:#599740;stroke:#2e5f2e"/><path d="M128.52,626.92c-33.9-29.66-68.84-73.31-71-123C79,538.78,128.52,585,128.52,626.92Z" style="fill:#599740;stroke:#2e5f2e"/><path d="M136.52,643.42c-40.87-30.65-78.59-7.46-118-52.5-5-5.73-11.62-9.23-17-14.5C65.53,588.24,92.91,599.81,136.52,643.42Z" style="fill:#599740;stroke:#2e5f2e"/><path d="M136.52,643.42c27-28.79,75.52-41.34,94.5-75.5C195.73,568.57,140,608.52,136.52,643.42Z" style="fill:#599740;stroke:#2e5f2e"/><path d="M146.52,695.92C159.8,667,213,638,220.52,600.42,175.06,602.93,146.52,653.71,146.52,695.92Z" style="fill:#599740;stroke:#2e5f2e"/><path d="M154.52,713.42c32.28-29,61.71-40,78.5-82C200.48,634.54,142.75,686.95,154.52,713.42Z" style="fill:#599740;stroke:#2e5f2e"/><path d="M150.52,717.92c-33-20.62-89.8-37.56-109.5-83,26.66,20.32,66.91,25.37,88,53.5C136.44,698.32,142.71,710.11,150.52,717.92Z" style="fill:#599740;stroke:#2e5f2e"/><path d="M203.52,844.42c-23.52-47-20.92-90.19-9.5-137.5C192.76,748.45,217.75,801.72,203.52,844.42Z" style="fill:#599740;stroke:#2e5f2e"/><path d="M203.52,844.42c-40.07-30.05-94.75-71.72-98.5-130C124.45,743.56,207.3,806.62,203.52,844.42Z" style="fill:#599740;stroke:#2e5f2e"/><path d="M210,848.92c-25.31-19.69,10.54-119.81,14.5-146C233.06,751.58,235.35,808.4,210,848.92Z" style="fill:#599740;stroke:#2e5f2e"/><path d="M215.52,857.92c0-46.72,13.74-89.33,38.5-128.5C269,779.8,233.74,816.92,215.52,857.92Z" style="fill:#599740;stroke:#2e5f2e"/><path d="M223,871.42c-46.52-16.91-103.47-30.65-134-72,3.12,4.78,9.41,4.5,15,4.5,42.4,0,73.08,30.55,104.5,51.5C215,859.75,216.27,867.67,223,871.42Z" style="fill:#599740;stroke:#2e5f2e"/><path d="M248.52,909c-30.57,8-63.61,47-104.5,40.44C178.48,932,203,898.23,248.52,909Z" style="fill:#599740;stroke:#2e5f2e"/><path d="M248.52,909c-8.62,1.61-24.53-3.06-36.5-3.06-36.93,0-69,11.56-105-9,31.44,5,68.14-23.37,100.5-9.5C222,893.61,235.94,904.62,248.52,909Z" style="fill:#599740;stroke:#2e5f2e"/><path d="M130.52,612.92c0-8.63-4.17-23.44-8-33-13.44-33.6,22.47-61.76,31.5-89.5C154.05,532.75,152,578.63,130.52,612.92Z" style="fill:#599740;stroke:#2e5f2e"/><path d="M303.52,966.92c-31.45-31.45-37.58-89.11-36-133C293.27,875.33,295.22,921.27,303.52,966.92Z" style="fill:#599740;stroke:#2e5f2e"/><path d="M306.52,971.92C270,984.1,212.8,970.65,176,964.42,210.49,961,285.5,934.09,306.52,971.92Z" style="fill:#599740;stroke:#2e5f2e"/><path d="M319.52,974.92c-37.94-12.65-92.85-58.11-82-109.5C257.11,907.26,304.34,933.17,319.52,974.92Z" style="fill:#599740;stroke:#2e5f2e"/><path d="M313.52,976.92c-31,20.64-61.4,45.4-101,38C247.2,994,269.92,972.56,313.52,976.92Z" style="fill:#599740;stroke:#2e5f2e"/><path d="M238,1042.92c44.88.83,80.83-24.64,115-46C308.16,988.92,270.31,1018.7,238,1042.92Z" style="fill:#599740;stroke:#2e5f2e"/><path d="M482.26,1047.28c-30.77-23.79-92.39-35.68-79.5-84,3.15-11.7,7.14-8.43,20.5-25,48.32-1.48,48.18,27,60,62.5.62,13.33,1.94,29.47-2,40.5-20.87-17-29.65-61-52-69C433.53,1003.89,472.54,1020.09,482.26,1047.28Z" style="fill:#85a9df;stroke:#225f77"/><path d="M490.76,1041.28c35-7.7,66-26,87.5-47.5,6.22-6.22.6-38.83-.5-46.5-4-12.81-18-12-28-17-5.78-2.89-9.19-7.85-14.5-10.5-15.37-7.69-46.85,61.8-50,71-3.44,10-3.92,32.46,0,36a28.1,28.1,0,0,1,8,2.5c-5.67,57.82,13.47-49.31,47.5-70.5C553.73,990.09,484,1034,490.76,1041.28Z" style="fill:#85a9df;stroke:#225f77"/><path d="M476.26,1049.78c-6.77,18.46-24.37,30.55-29.5,48.5-1.16-5.81-15.8-39.7-24-52-12.72,1.3-25.74,2.31-37.79,5.32-1.24,3.53-8,7,7.27,4.33,3.43,3.31,5,12.69,5,12.69s-14.63,2.08-20.16,3.27c-7.44,13.47-30.71,46-40.31,52.38,13.89,2.88,33.49,3.27,41-8,1.48,11.46,4,22.77,4,33,7.46-20.27,24-37,24-60,4.62,11.34,11.75,27.13,17,35,6,13.55,19.49,9.11,34.5,7,23-18.76,34.5-49.31,34.5-82a43.2,43.2,0,0,1-15.5.5Z" style="fill:#85a9df;stroke:#225f77"/><path d="M480.76,1052.78c10.38,13-.76,33.47,6,47,5,10,23.93,19.93,30.5,26.5,16.71,2.27,32.59-.8,48-3,4-1.3,6-4.08,7.5-7,.49,12.67,7.34,30.73,16,36.5-7.1-13.66,4.5-25.52,4.5-38.5,1.94,19.41,22.12,18,36.5,18-15.61-16.94-25.64-30.5-28.5-50.5-3.22-3.45-9.63-4-12.5-4,.76-5.16.5-13.32.5-17h6c-1.05-3.75-2.56-4.28-5-5.5-10.95-3.35-23.11-5.44-34-7-9.93,18.62-6.2,45.25-18.5,60-14.69-17.5-47-44.29-47-67C485.6,1044.59,483.46,1048.73,480.76,1052.78Z" style="fill:#85a9df;stroke:#225f77"/><path d="M462,1037.28c3.1-2.78,14.51,10,.5,19,16.19,13.31,32.11,5.91,37.25,2.5,4.12-11.07,4.82-22.61.75-30.75C493.92,1024.65,464.11,1023.36,462,1037.28Z" style="fill:#85a9df;stroke:#225f77"/><path d="M397.23,1068.62l9.84,23.15" style="fill:#85a9df;stroke:#225f77"/><path d="M572.76,1116.28c1.15-8.79,12.91-28.09,16-38.5" style="fill:#85a9df;stroke:#225f77"/><path d="M429.26,972.28c-4.94-2.26-19.11-5.62-24.67-2.84-1.75.88-3,4.51-3.89,6.19" style="fill:#85a9df;stroke:#225f77"/><path d="M540.76,958.78c-3.23-12.65-6.29-31.32-22-29.36" style="fill:#85a9df;stroke:#225f77"/><path d="M396.26,1068.95c-6.23,1.11-12.68,1.5-18.72,3.34-2.88,3-4.38,7.22-7,10.51-9.34,13.66-18.88,27.32-30.48,39.19-1.18.89-1.29,2.85.6,2.74,10.93,1.58,23.36,2.13,32.84-4.51,1.67-1.16,2.91-2.81,4.47-4.09,1.35,9,2.62,18.1,3.84,27.11,1.3,1.86,2.79-1.18,3.33-2.25,7.75-15.67,18.87-30.61,20.32-48.58-.08-7-4.27-13-6.64-19.41-.91-1.14-.91-3.87-2.56-4.07Z" style="fill:#7190bd"/><path d="M590.09,1078c-2.33.36-2.06,3.71-3.3,5.26-4.42,10.77-10.44,21-13.65,32.2-.28,6.88,2,13.68,4.24,20.12,2.08,4.9,4.2,10.25,8.25,13.84,1.65-.69.59-3.52,1-5-.7-9.8,5.11-18.55,6.27-28.16.17-1.75.7-1.71.81.09A18,18,0,0,0,608,1130.62c6.72,1.35,13.76,1.31,20.52,1.25-1.4-3-4.69-5.48-6.75-8.36-9.65-11.38-17.89-24.54-20.4-39.43-.81-5.09-7.25-5.57-11.28-6.08Z" style="fill:#7190bd"/><path d="M521,929.67c-4.08,0-5.51,4.83-7.71,7.46a294,294,0,0,0-27.54,53.3c-3.43,8.79-2.57,18.47-2.59,27.71.21,2.49,0,5.4,1.69,7.38a85,85,0,0,1,14.32,1.58c2.95-1,2.82-5,4.18-7.34,6.73-17.2,14-34.53,25.16-49.39a88.63,88.63,0,0,1,11.87-12.1C538,949.6,536.67,939.63,530,933A12.86,12.86,0,0,0,521,929.67Z" style="fill:#7190bd"/><path d="M410.18,968.72c-3.77-.38-8,1.61-8.48,5.72-1.5,10.35,3.74,20.59,10.63,28,12.76,13.78,30.36,21.34,46.52,30.25,1.48.73,3.39,2.42,4.65.41a61.89,61.89,0,0,1,6.09-5.23c-10.62-11.9-23.2-22.29-32.49-35.41a53.59,53.59,0,0,1-8-19.64c-3.29-2.3-7.67-2.61-11.54-3.48a45.83,45.83,0,0,0-7.38-.61Z" style="fill:#7190bd"/><path d="M446.76,1098.28c4.71,17.83,6.65,22.25,12.76,30.89" style="fill:none;stroke:#285d7b"/><path d="M537.76,1108.28c-6.21,7.35-12.38,13.81-20.5,18" style="fill:none;stroke:#285d7b"/><path d="M774.23,403.4c6.78,3.39,13.08,5.26,19.8,7.78" style="fill:none;stroke:#002405;stroke-width:2.299999952316284px"/><path d="M801.8,531.39c5.84-1.6,15.93,5.14,17,5.66" style="fill:none;stroke:#002405;stroke-width:2.299999952316284px"/><path d="M852,524.32c-8.9,2-19,14.07-22.63,17.68" style="fill:none;stroke:#002405;stroke-width:2.299999952316284px"/><path d="M804.63,696.15c-.17,10,5.1,17.3,6.36,26.16" style="fill:none;stroke:#002405;stroke-width:2.299999952316284px"/><path d="M837.16,705.34c-9.85,4.21-19.88,12.78-26.16,17" style="fill:none;stroke:#002405;stroke-width:2.299999952316284px"/><path d="M847.77,723.72c-13.62,11-27.25,17.87-41,24.75" style="fill:none;stroke:#002405;stroke-width:2.299999952316284px"/><path d="M707.76,877.87c-2.31,9.72-.83,22.1-2.12,31.11" style="fill:none;stroke:#002405;stroke-width:2.299999952316284px"/><path d="M705.64,909c8.45,5.17,29.26,7.94,33.23,0" style="fill:none;stroke:#002405;stroke-width:2.299999952316284px"/><path d="M572.7,1032.73v-21.92" style="fill:none;stroke:#002405;stroke-width:2.299999952316284px"/><path d="M878.69,833.63c-78.1,0-95,3.88-144,51,8.47,4.17,20.88-2,30,1C815,902.4,858.6,873.8,878.69,833.63Z" style="fill:#599740;stroke:#2e5f2e"/><path d="M730,719.42c-9.83,12.57.57,30.29-4,44-6.17,18.52-12,44,1.5,62,3.2,4.27,4.46,13,7.5,16,.53.53.51,4.5,1,4.5,1.9,0,.36-4,1.5-5.5a83.91,83.91,0,0,0,8-13C762.88,792.7,761.28,745.47,730,719.42Z" style="fill:#599740;stroke:#2e5f2e"/><path d="M707.14,752.91c-3.51,14.71-18.54,70.19-9,84.5,6.85,10.27,18.51,23.53,22,34,1.3,3.89,1.4,11,5.5,11,2.33,0,0-4.67,0-7,0-5.44,2.42-9.14,5-13,10.33-15.5,7.15-56.73,3.5-75C731.12,772.33,716.23,759,707.14,752.91Z" style="fill:#599740;stroke:#2e5f2e"/><path d="M784.52,693.92c1.44,25.42,19.77,56.62,9.5,84-2.88,7.68-8.31,14.44-11,22.5-3.05,9.15-8,20.68-14.5,25C736.41,798.38,764.78,713.66,784.52,693.92Z" style="fill:#599740;stroke:#2e5f2e"/><path d="M913.17,737.16c-32.93,4.7-72.23,14.8-100.41,33.59-11.19,7.46-14.84,24.74-24,33.94-4.2,4.2-7.89,10.26-11,15.56C836.46,827.09,893.33,786.78,913.17,737.16Z" style="fill:#599740;stroke:#2e5f2e"/><path d="M738.87,535.63c8.35,46.79,41.71,91.45,83.44,105.36,10.24-62-45.59-87.8-83.44-108.19" style="fill:#599740;stroke:#2e5f2e"/><path d="M815.24,517.25c-6.4,53.73-6.71,101.84,14.85,145,15.2-41.71,28.08-121.84-14.85-145Z" style="fill:#599740;stroke:#2e5f2e"/><path d="M905,532.1c-49.17,36.32-64.2,72.75-75,130.11C887,639.93,894,587.14,905,532.1Z" style="fill:#599740;stroke:#2e5f2e"/><path d="M823,687.51c40-59.93,52.13-98.7,136.83-102.88-27.62,55.23-88.31,77.1-135.76,104.3Z" style="fill:#599740;stroke:#2e5f2e"/><path d="M739.52,587.92c3.39,80.93,50.23,59.87,84.5,101,6-60.23-54.49-80.53-85-104.5Z" style="fill:#599740;stroke:#2e5f2e"/><path d="M796.52,347.42c-25.93,58.95,6.9,100.81,25,151.5-10.52-30.09,12.92-74.57.5-102.5C814,378.39,800.41,366.88,796.52,347.42Z" style="fill:#599740;stroke:#2e5f2e"/><path d="M822,505.92c35.91-31.57,47.09-87.1,29.5-134C833.34,415.82,811.94,455.53,822,505.92Z" style="fill:#599740;stroke:#2e5f2e"/><path d="M822,505.92c-7.87-8.66-10.25-23-16.5-35.5-20.48-41-60.8-35.15-99-52C720.57,480.44,779,482.76,822,505.92Z" style="fill:#599740;stroke:#2e5f2e"/><path d="M767,258.45c-37.77,24.38-2,66.18-2,93.47C785.49,322.67,785.58,287.22,767,258.45Z" style="fill:#599740;stroke:#2e5f2e"/><path d="M676,258.45c8.43,53.28,59.4,61.34,83.5,93.47C764.68,294.63,721.34,270.38,676,258.45Z" style="fill:#599740;stroke:#2e5f2e"/><path d="M777.52,370.92c-30.25-13-88.59,22.26-114.5-16C703.61,324.25,749.16,342.56,777.52,370.92Z" style="fill:#599740;stroke:#2e5f2e"/><path d="M684,932.42c-2.18-34.88-39.47-72.52-8.5-110.5C688.17,855,705.65,897.27,684,932.42Z" style="fill:#599740;stroke:#2e5f2e"/><path d="M660.52,851.92C613,885.22,637,940.85,620,980.42,654.69,957.64,675.05,892.62,660.52,851.92Z" style="fill:#599740;stroke:#2e5f2e"/><path d="M625,977.92c31.78-50.37,81.32-45.31,131.5-52C726.23,987.35,682.22,966.48,625,977.92Z" style="fill:#599740;stroke:#2e5f2e"/><path d="M620,980.42c2.76,2.61,13.77,3.74,20.21,2.46,51.38-10.28,82.43,8.5,127.63,22.63-43.52,10.63-78.88,28.81-120.21-.71-15.46-11-28.9-7.59-39.24-24.4C612.28,979.62,616.18,980.15,620,980.42Z" style="fill:#599740;stroke:#2e5f2e"/><path d="M588.52,1001.42c-26.5-60.05,10.64-103.17,45.5-145C626.56,913.58,652.86,973.85,588.52,1001.42Z" style="fill:#599740;stroke:#2e5f2e"/><path d="M588.52,1001.42c-4.68,66.43,65.82,46.49,92.5,78.5C667.31,1036,639.29,998.25,588.52,1001.42Z" style="fill:#599740;stroke:#2e5f2e"/><ellipse cx="766.77" cy="401.92" rx="11.25" ry="11.5" style="fill:#303030;stroke:#000;stroke-linecap:round;stroke-linejoin:round;stroke-width:0.8999999761581421px;opacity:0.9980000257492065;isolation:isolate"/><ellipse cx="797.02" cy="529.42" rx="10" ry="8.5" style="fill:#303030;stroke:#000;stroke-linecap:round;stroke-linejoin:round;stroke-width:0.8999999761581421px;opacity:0.9980000257492065;isolation:isolate"/><ellipse cx="853.02" cy="523.42" rx="11" ry="10.5" style="fill:#303030;stroke:#000;stroke-linecap:round;stroke-linejoin:round;stroke-width:0.8999999761581421px;opacity:0.9980000257492065;isolation:isolate"/><ellipse cx="803.02" cy="690.42" rx="10" ry="10.5" style="fill:#303030;stroke:#000;stroke-linecap:round;stroke-linejoin:round;stroke-width:0.8999999761581421px;opacity:0.9980000257492065;isolation:isolate"/><ellipse cx="838.02" cy="701.67" rx="9" ry="10.75" style="fill:#303030;stroke:#000;stroke-linecap:round;stroke-linejoin:round;stroke-width:0.8999999761581421px;opacity:0.9980000257492065;isolation:isolate"/><circle cx="853.52" cy="723.92" r="11" style="fill:#303030;stroke:#000;stroke-linecap:round;stroke-linejoin:round;stroke-width:0.8999999761581421px;opacity:0.9980000257492065;isolation:isolate"/><circle cx="707.52" cy="873.92" r="9" style="fill:#303030;stroke:#000;stroke-linecap:round;stroke-linejoin:round;stroke-width:0.8999999761581421px;opacity:0.9980000257492065;isolation:isolate"/><circle cx="740.77" cy="908.67" r="9.75" style="fill:#303030;stroke:#000;stroke-linecap:round;stroke-linejoin:round;stroke-width:0.8999999761581421px;opacity:0.9980000257492065;isolation:isolate"/><ellipse cx="574.52" cy="1036.42" rx="10.5" ry="11.5" style="fill:#303030;stroke:#000;stroke-linecap:round;stroke-linejoin:round;stroke-width:0.8999999761581421px;opacity:0.9980000257492065;isolation:isolate"/><ellipse cx="766.77" cy="401.92" rx="11.25" ry="11.5" style="stroke:#000;stroke-linecap:round;stroke-linejoin:round;stroke-width:0.8999999761581421px;opacity:0.3741939961910248;isolation:isolate;fill:url(#h)"/><ellipse cx="797.02" cy="529.42" rx="10" ry="8.5" style="stroke:#000;stroke-linecap:round;stroke-linejoin:round;stroke-width:0.8999999761581421px;opacity:0.3741939961910248;isolation:isolate;fill:url(#i)"/><ellipse cx="853.02" cy="523.42" rx="11" ry="10.5" style="stroke:#000;stroke-linecap:round;stroke-linejoin:round;stroke-width:0.8999999761581421px;opacity:0.3741939961910248;isolation:isolate;fill:url(#j)"/><ellipse cx="803.02" cy="690.42" rx="10" ry="10.5" style="stroke:#000;stroke-linecap:round;stroke-linejoin:round;stroke-width:0.8999999761581421px;opacity:0.3741939961910248;isolation:isolate;fill:url(#k)"/><ellipse cx="838.02" cy="701.67" rx="9" ry="10.75" style="stroke:#000;stroke-linecap:round;stroke-linejoin:round;stroke-width:0.8999999761581421px;opacity:0.3741939961910248;isolation:isolate;fill:url(#l)"/><circle cx="853.52" cy="723.92" r="11" style="stroke:#000;stroke-linecap:round;stroke-linejoin:round;stroke-width:0.8999999761581421px;opacity:0.3741939961910248;isolation:isolate;fill:url(#m)"/><circle cx="707.52" cy="873.92" r="9" style="stroke:#000;stroke-linecap:round;stroke-linejoin:round;stroke-width:0.8999999761581421px;opacity:0.3741939961910248;isolation:isolate;fill:url(#n)"/><circle cx="740.77" cy="908.67" r="9.75" style="stroke:#000;stroke-linecap:round;stroke-linejoin:round;stroke-width:0.8999999761581421px;opacity:0.3741939961910248;isolation:isolate;fill:url(#o)"/><ellipse cx="574.52" cy="1036.42" rx="10.5" ry="11.5" style="stroke:#000;stroke-linecap:round;stroke-linejoin:round;stroke-width:0.8999999761581421px;opacity:0.3741939961910248;isolation:isolate;fill:url(#p)"/><path d="M430.81,741.72c-.54-1.08-1.87-1.37-2.5-2s-.67-1.67-1.25-2.25c-2-2-6.55-8-4.25-11.5,1.28-1.92,3.27-2.79,4.25-4.75a20.7,20.7,0,0,1,2-6.75c.38-.77,0-2.61,0-3.5a23.79,23.79,0,0,0-4.5-14.25c-1-1.45-2.81-2.31-3.75-3.25-.67-2.5,0-2.55-2.25-2.62-3-3-11.14-4.08-15.48-4.08-2.35,0-8.31,1.6-10.14,1.7-5.06.29-9.06.57-11.38-1.75-1-1-1.2-2.45-2.25-3.5-4.44-5.21-4.83-8-6.87-14.12a36.81,36.81,0,0,0-4.37-6.62c-.76-.76-.65-.43-1.12-1.62-.54-1.34-3.67-3.4-4.12-4.75s-5-4.39-6-4.87c-3.25-1.63-5.15-4.62-9-4.62-2,0-4.78-1.61-6.5-.75-2.25,1.12-4.12,1.5-5.75,3.13-1.08,1.08-2.93,1.68-4,2.75-.73.73-.32,2.16-1.06,2.9-2.17,2.17-3.54,5.67-5.62,7.74-1.67,1.67-9.83,6.11-7.86,10.05,1.08,2.16,3.08,5.22,5.33,5.38,1,.07,2.69-.33,1.9.91,0,0-2.43,1.39,2.23,1.39a1.83,1.83,0,0,0,1.07-.13c2.4-1.2,3.74-3.37,6-4.5a6.38,6.38,0,0,0,2-1.25,23.17,23.17,0,0,1,2.89-2.33c.45,1.62,1.1,3.73,1.1,3.73a34.55,34.55,0,0,1,.13,4.61h0c-.84,4.43-1.34,7.19-3.37,11.25-4.62,9.24-3.25,5.34-5,14.25a23.76,23.76,0,0,0,.69,8c1,2.47,3,10.54,4,12.59-.77,2.61-9.76,3.55-11.71,3.88-1.24.21-7,2.07-9.87,2.75-3.09.72-3.45,6.2-3,7.13,2.35,4.81,5.46,12,8.88,15.38.9.9,1.42,3.35,2,4.5.47.93.33,2.3.8,3.23a7.31,7.31,0,0,0,3,2.52c.94.47.83,2.08,1.5,2.75.32.32.65.9,1,1.25,0-.17.33,0,.5,0s-.38.12-.5,0c0,.29,3.87.13,4.25.25,3.47,1.05,3.9-5.5,1.25-10.5-.07-.13.1-.9,0-1-.36-.36-2-.25-1.5-.25s-1.2.18-1.75,0,.43-3.07,0-3.5c-.75-.75-2.84.7-3.75.25-.66-.33-4-6.32-4.5-7.25-.23-.46-3.6-3-2.87-3.75,0,0,.25-2.62,2.63-2.62,3.59,0,4.24-.54,7.5-1.62a37.05,37.05,0,0,1,9.63-1.37c2.68,0,7.12-2.75,9.88-2.75-1,4.73-.68,16.55-4,19.88-.47.47.38,6.6,0,7.75-.5,1.51-1,2.89-1.5,4.25-.36,1.07-2.08,8.58-2.62,9.13l-2,2a49.35,49.35,0,0,1-2,5c-.37.55-1,.69-1,1.25,0,2.5-4.44,8.06-3,9.5.81.81,2.7,1,3.88,1,5.55,0,6.13-.07,6.13-5.75a6.33,6.33,0,0,1,0-2c.95-1.89,2.77-3,4-4.25,1.47-1.47,1.88-9.52,1.88-11.87s-.38-7.18,1-9.25c2.3-3.45,4.31-6.5,5.5-11.25.93-3.73.51-12,4-13.75,1-.51,8.91-3.91,9-4,.31-.31,3,0,3.5,0,3.21,0,5.82,0,8.25-1.25,5.69.46,7.85,3.32,7,10.13a6.46,6.46,0,0,1-2,3.63,13.66,13.66,0,0,0-1.5,2.5c-.42,1.68-.51,3.56-.87,5.38-1.23,6.14-4,11.87-6.87,17.63-1,2.08-2.5,2.25-3.5,3.25-1.21,1.21-1.11,2.36-2,3.25-.43.43-1.64.14-2,.5-1,1-1.31,2.52-2.25,3-2,1,3.15,3.31,6.75,2.75.5-.08,3.47-.53,4-.53,6,0,2.46-3.94,3.22-5.47.69-1.38,3.76-.51,4-.75,1.1-1.1,0-12.53,1-13.5,1.22-1.22.94-3.38,1.75-5,.59-1.18.95-1,1.63-2.37.11-.21,1.48-2.73,1.63-2.87,1.06-1.06,1.85-1.6,2.75-2.5.58-.58,1-2,1.5-2.5,2.13-2.13,3.23-1.78,5-6,.89-2.13-4.17-4.55-1.25-8,1.19-1.41,2.66-1.91,3.5-2.75s4.35,2.29,5.53,4.28c2.27,3.79,9.56,4.77,14.47,7.22.17.92,1.17,4,.5,5-3.26,4.89-1.82,5.08-1.82,11.26,0,1.7-2.67,9.79-1.94,11.24,1.34,2.67,1.79,5.28,3.51,7,.53.53,1.9,3.1,3.25,1.75a9.59,9.59,0,0,0,3-7c0-5.65-.17-.84-2-4.5-.66-1.32.54-3.08,1-4,.58-1.17,0-4.17,0-5.5,0-.64-.48-4.52,0-5C428,752.82,431.6,743.3,430.81,741.72Z" style="stroke:#000;fill:url(#q)"/></svg>