<svg xmlns="http://www.w3.org/2000/svg" viewBox="0 0 398.69 500.03"><title>Vanuatu</title><path d="M282.86,356.31a98.44,98.44,0,0,0,24.05-64.42c0-55.53-45.69-103.86-106.55-103.86C121.24,188,84,234.76,86.2,287.54c2.26,55.34,54.23,81.39,96.34,79.74,70.31-2.75,87.29-58.1,92.16-87.28,1.92-11.53,2.54-31,5.51-36.86,7.09,9.76,8.22,24.88,8.39,37.89.72,55.14-22.31,115-106,117.94C92.12,402.1,49,337.08,47.39,288.14c-2.82-87.89,68.35-142.61,152.19-142.61s151.81,65.52,151.81,146.35a142.89,142.89,0,0,1-38.77,97.69Z" style="fill:#d0b990;stroke:#000;stroke-width:1.1879452466964722px"/><path d="M199.59,148.81c-41.22,0-79.22,13.45-106.47,37.52S49.25,245,50.63,288.05c1.51,47.1,42.92,110.73,131.82,107.65,45.29-1.57,71.63-20.67,86.54-46.61S287.09,290,284.27,261a41.64,41.64,0,0,0-3.52-13.88c-.72,3.57-.67,7.25-1.29,12.17,0-.08-.11,2.47-.35,5.74s-.67,7.68-1.45,12.83a143.26,143.26,0,0,1-10.53,37c-12,26.78-36.64,53.8-84.46,55.68-21.77.85-45.91-5.41-65.12-19.11S84.13,316.35,83,287.67c-1.11-27.2,8-53.08,27.61-72s49.61-30.87,89.81-30.87c62.56,0,109.78,49.78,109.78,107.11,0,24.12-9.62,47.52-24.12,65.34l25.47,28.46c22.16-25,36.64-58.36,36.64-93.8C348.14,212.9,281.76,148.81,199.59,148.81Z" style="fill:#e1d2b5"/><path d="M199.59,152.33c-40.47,0-77.62,13.23-104.15,36.66s-42.67,56.88-41.32,98.93c1.45,45.12,41,107.28,128.23,104.26,44.34-1.54,69.24-19.83,83.61-44.84,12.21-21.25,16.32-47.88,15.6-72.92-.18,1.43-.2,2.35-.44,3.93a146.64,146.64,0,0,1-10.82,38c-12.37,27.58-38.46,55.82-87.51,57.74-22.54.88-47.33-5.53-67.26-19.74s-34.85-36.72-36.07-66.48c-1.15-28.07,8.3-55,28.68-74.72s51.35-31.85,92.23-31.85c64.39,0,113.27,51.35,113.27,110.63,0,23.89-10.23,48.55-24.06,66.57l20.82,23.29c20.09-24,34.25-56.7,34.25-89.86C344.65,214.89,280,152.33,199.59,152.33Z" style="fill:#f0e9d5"/><path d="M199.59,156.8c-39.51,0-75.64,12.93-101.25,35.56S57.25,247,58.56,287.8c1.37,42.61,38.59,102.86,123.64,99.92,43.14-1.5,66.24-18.79,79.93-42.62A101.3,101.3,0,0,0,270.78,325c-14.07,26.31-41.24,51.67-87.8,53.49-23.51.92-49.14-5.7-70-20.57S76.3,319.16,75,288c-1.19-29.18,8.73-57.54,30.06-78.15s53.54-33.08,95.28-33.08c66.72,0,117.7,53.35,117.7,115.1,0,23.59-12.28,50.56-25.32,68.78l15,16.73c17.51-22.54,32.49-55.25,32.49-85.51C340.21,217.41,277.66,156.8,199.59,156.8Z" style="fill:#f7f5e7"/><path d="M43.66,419.76s9.5-9.79,15.12-12.58c2.84-1.41,8.72-3.75,11.85-3.23a16.92,16.92,0,0,1,7.18,3.59s3.29-1,4.67-2.87c2.14-2.88,6.18-5.37,9.7-4.67,2.83.57,5.75,4.31,5.75,4.31s2.81-5.59,6.1-7.18c3-1.46,10.77-1.44,10.77-1.44s-2.34-4.89,6.46-9.34c2.2-1.11,5.2.32,7.18-.36,4.67-1.59,8.11-8.29,12.57-10.41a15.59,15.59,0,0,1,7.18-1.08s.84-.83,1.36-3.46a17,17,0,0,1,5.1-8c2.87-2.16,8.26-1.08,8.26-1.08s2.06-5.19,4.31-6.46,7.54-.36,7.54-.36,3-5.57,5.75-6.82a12.06,12.06,0,0,1,9.7,0c2,.92,4.31,5,4.31,5S202,354,206,356.55c4.51,2.87,4.86,8.74,9,11.13,3.88,2.25,9.13.46,13.29,2.15,4.61,1.88,9.15,4.69,12.21,8.62,1,1.32.33,3.86,1.8,4.67s5.37-.65,7.18-.36c4.34.69,6.8,2.44,9.7,5.75,1.7,1.94,2.87,7.18,2.87,7.18s5.18-1.62,7.54-.72c1.82.7,4,4.31,4,4.31s5.7-3.19,8.62-2.51c3.8.88,4.76,4.81,8.62,5.39,3,.45,5.21-1.23,8.26-1.44,2.76-.19,7.9,2.51,7.9,2.51s8.46-4.53,12.93-4c2.93.38,4.64,4.08,7.54,4.67,4.51.91,9.17-3.24,13.65-2.15s10.77,7.9,10.77,7.9l3.23,9c-37.44,49.18-213.42,104.16-311.37,1.09Z" style="fill:#75482a;fill-opacity:0.9968140721321106;stroke:#000;stroke-width:1.1925396919250488px"/><path d="M185.35,353.76a5.1,5.1,0,0,0-1.79.35,22.64,22.64,0,0,0-1.67,1.82,24.69,24.69,0,0,0-1.45,2.3,6.49,6.49,0,0,1-6.73,3.3,17.15,17.15,0,0,0-2.14-.22,4.1,4.1,0,0,0-1,.13,4.65,4.65,0,0,0-.66.88c-.58,1.06-1,2-1,2a6.49,6.49,0,0,1-7.33,4,12.62,12.62,0,0,0-1.79-.13c-1,0-1.84.44-1.29,0,.27-.2-.79.81-1.48,1.86a16.4,16.4,0,0,0-1.16,2.26,16.54,16.54,0,0,1-1.48,4.47,14.41,14.41,0,0,1-1.76,2.42,6.49,6.49,0,0,1-5.16,1.76,17.48,17.48,0,0,0-3.71.47,29.73,29.73,0,0,0-4.28,4c-2.07,2.21-4.49,5.16-9,6.7a11.36,11.36,0,0,1-6.26.35,3,3,0,0,0-.53,0c-2,1.11-2.57,1.71-2.64,1.89a6.49,6.49,0,0,1-6.35,7.86s-1.72,0-3.74.16-4.62.86-4.15.63-1,.85-1.79,2a18.57,18.57,0,0,0-1.32,2.2,6.49,6.49,0,0,1-10.91,1.1,15,15,0,0,0-1.13-1.16,5.82,5.82,0,0,0-1-.69c-.08.16-2.2,1-3,2.08a12.64,12.64,0,0,1-5.25,4.09,20.84,20.84,0,0,1-2.77,1.1,6.49,6.49,0,0,1-6.16-1.32,17.2,17.2,0,0,0-4-2c.65.11-1.23.1-3,.66-.28.09-.47.22-.75.31.94.51,1.88,1.13,2.83,1.6l1.51.38a6.49,6.49,0,0,1,3.74,10.06l-1.79,2.48a144.31,144.31,0,0,0,29.65,12.2l.09,0c1,.17,2,.3,3,.47a6.49,6.49,0,0,1,4.87,9.15l-.44.94c32.81,11.86,62.54,16.82,90.06,16.82s57.25-5,90.06-16.82l-.44-.94a6.49,6.49,0,0,1,4.87-9.15c1.06-.17,2-.3,3-.47l.09,0a144.31,144.31,0,0,0,29.65-12.2l-1.79-2.48a6.49,6.49,0,0,1,3.74-10.06l1.54-.38c2.76-1.4,5.5-2.88,8.24-4.53a8.59,8.59,0,0,0-2,.53c-2.26.77-5.67,2.27-10.22,1.35a13.09,13.09,0,0,1-6.82-3.93,5.35,5.35,0,0,0-.66-.53,35.81,35.81,0,0,0-4.53,1.23,43.38,43.38,0,0,0-4.12,1.89,6.49,6.49,0,0,1-6,0s-1-.53-2.33-1c-1-.38-2.23-.56-2.39-.66a18,18,0,0,0-2.52.63,15.75,15.75,0,0,1-6.89.66,14.47,14.47,0,0,1-7.89-4.34c-.94-.92-.9-.82-.94-.85a8.34,8.34,0,0,0-1.82.44A26.71,26.71,0,0,0,276.7,405a6.49,6.49,0,0,1-8.74-2.36s-.39-.58-.88-1.23a4.36,4.36,0,0,0-1,0,21.4,21.4,0,0,0-2.11.5,6.49,6.49,0,0,1-8.13-4.25q-.08-.26-.14-.52s-.26-1.06-.66-2.3-1.34-2.71-.75-2c-2.44-2.79-2.76-3.1-5.82-3.58,1.54.24,0,.11-1.57.38s-3.67,1.48-7.74-.75a8.77,8.77,0,0,1-3.62-4.06,10.55,10.55,0,0,1-.75-2.8s0,0,0,0a24.19,24.19,0,0,0-9-6.1,18.79,18.79,0,0,0-4.4-.38,18.58,18.58,0,0,1-9.72-2.17c-4-2.32-5.61-5.76-6.76-7.86s-1.8-3-2.42-3.4a21.48,21.48,0,0,0-5.06-1.7c-2-.42-3.55-.57-3.55-.57a6.49,6.49,0,0,1-5.06-3.27s-.42-.74-1-1.54a5.39,5.39,0,0,0-.88-.88,5.05,5.05,0,0,0-1.6-.31Z" style="fill:#84512f"/><path d="M175.29,359c-2.2.1-4.69,1.57-5.31,3.46-.82,2.48,5.3,4.49,4,6.73s-6-1.93-8.27-.31c-1.2.87-1.43,2.84-1.23,4.31.4,2.86,5.14,4.49,4.59,7.33-.36,1.87-2.72,3.74-4.59,3.4-2.4-.44-1.85-5-4-6.13a10.34,10.34,0,0,0-9.78,0c-1.55,1-1.06,3.72-2.45,4.91-2.12,1.8-6,.55-8,2.45-1.67,1.57-.55,5.09-2.42,6.41-3.25,2.3-9-2.33-11.95.31-2.09,1.85.88,6.45-1.23,8.27-2.4,2.07-6.75-1.57-9.5,0-1.45.83-3.38,2.89-2.55,4.34,1.73,3,7.12,1.13,10.41,0,2.74-.95,4.11-4.43,6.86-5.38,2.16-.74,4.9,1.18,6.86,0,1.64-1,1.2-3.88,2.7-5.06,1.94-1.52,5.2-3.31,7.14-1.79,1.1.86.63,2.94,0,4.18-1,2-3.38,2.86-5.35,3.87-.56.29-1.29.22-1.79.6-1.14.87-1.17,2.84-2.39,3.58-1.54.94-3.69,0-5.38.6-2.69,1-8,2-7.14,4.75,1,3.33,6.94-.3,10.41,0,2.91.25,5.86,2.39,8.65,1.51,2.14-.68,2.71-3.89,4.78-4.78,3.84-1.64,9,2,12.52-.28.94-.6.57-2.39,1.51-3,3.27-2.08,7.87-1.36,11.6-.31,1.59.45,2.54,2.91,4.18,2.7,2.3-.28,3.14-3.45,4.78-5.09s3.06-4.15,5.35-5.06c3-1.17,6.83-1.62,9.56,0,1.07.64.89,2.41,1.76,3.3s2.44,1.3,3.58,2.08c.94.63,2.18,1.06,2.67,2.08.39.8-.63,2.07,0,2.7,3.83,3.9,11.23,2,16.41.28,2.15-.72,3.08-4.22,5.35-4.18,1.55,0,2.13,2.44,3.58,3,2.88,1.1,6.48-1,9.24.31a9.07,9.07,0,0,1,4.18,5.06c.5,1.4-.8,3.21,0,4.47,2,3.15,8.12,1.63,10.13,4.78.69,1.09-.64,2.75,0,3.87,1.37,2.39,4.4,3.8,7.14,4.18,4,.55,7.75-3.93,11.63-3,2.33.56,3.16,3.86,5.38,4.75,2.68,1.07,6.16-1.15,8.65.31,1,.59.75,2.48,1.79,3,2.8,1.35,6.33,0,9.21-1.19,3.77-1.5,7.89-3.62,9.84-7.17.77-1.4-.71-3.53.31-4.75,2.24-2.65,9,.9,10.13-2.39.25-.74-.76-1.49-1.48-1.79-2.57-1.09-5.83-.56-8.36.6-1.41.64-1.87,2.62-3.27,3.27-4.71,2.17-10.42.17-15.5,1.19-.62.12-1.17.5-1.79.6-2.94.48-6.57,1.82-8.93,0-1.22-.94,0-3.44-1.19-4.47-1.5-1.34-4.06-1.51-6-.91-2.08.65-2.58,4.24-4.75,4.5-3.4.41-9.38-1.69-9-5.09.37-3,7,.14,8.65-2.36.77-1.18.09-3-.6-4.18-2-3.51-7.55-4.12-9.24-7.77-.67-1.44.52-3.25,0-4.75-.79-2.27-2.07-5.46-4.47-5.66-2.94-.24-3.69,6.73-6.54,5.94-1-.28-.92-2-.91-3,0-1.35,1.73-2.63,1.19-3.87-1.22-2.86-5.25-4.58-8.33-4.15-1.6.22-2,3.17-3.58,3.27-2.92.18-5.83-2.47-7.17-5.06-.59-1.15.76-2.85,0-3.9-3-4.15-9.68-3.29-14.59-4.75-4.44-1.31-8.92-4.65-13.43-3.58-1.16.28-1.8,1.57-2.67,2.39-1.53,1.45-6.25,4.47-4.47,4.47s-7.67,4.75-9.53,2.08c-1.15-1.65,4-3.18,3.27-5.06-.91-2.41-6.1.12-7.45-2.08-.53-.86.33-2,.6-3,.39-1.42,1.8-2.74,1.48-4.18-.28-1.23-2.06-1.57-2.67-2.67s.26-3.08-.85-3.65A4,4,0,0,0,175.29,359Zm-72.76,46.1A13.24,13.24,0,0,0,97.27,407c-1.36.77-1.43,3.28-3,3.65-1.79.43-3.23-1.88-5-2.26-2.09-.45-4.68-1.21-6.45,0-2.25,1.54-.37,6.77-3,7.64-3.15,1.07-5.59-6.85-8.49-5.22-1.77,1-.65,4.18,0,6.1.76,2.27,3.66,3.42,4.34,5.72.43,1.45-1.14,3.25-.35,4.53,4,6.46,16.92,14.79,21.19,8.49,1.75-2.57-7.25-3.75-6.45-6.76.47-1.75,4.64.15,5.22-1.57.5-1.49-3-2.25-2.77-3.8.31-1.89,2.77-3.26,4.69-3.3,1.72,0,2.63,2.62,4.34,2.77s3.25-1.72,5-2.08c2.5-.5,5.36,1.14,7.64,0s5-3.67,4.69-6.26a4.49,4.49,0,0,0-4.15-3.49c-1.56,0-2,2.59-3.49,3.14a.34.34,0,0,1-.16,0c-2.34-.17-6.19,1.18-6.95-1-.49-1.43,2.84-1.81,3.11-3.3a4.24,4.24,0,0,0-1.73-4.18A5.37,5.37,0,0,0,102.52,405.14Zm71.26,8.93a6.4,6.4,0,0,0-4.87,1.45c-1.65,1.6,1.08,5.29-.6,6.86-3.26,3.06-9.14-1.05-13.4.31-2.52.81-3.93,4.31-6.57,4.47s-4.32-3.12-6.86-3.58a12.36,12.36,0,0,0-7.45.91c-3.29,1.6-4.09,8-7.74,7.74-1.84-.14-1.49-4.11-3.3-4.47-1.49-.29-2.93,1.2-3.87,2.39-.78,1-.06,3-1.19,3.58-2.09,1-4.25-2-6.54-2.39a7.75,7.75,0,0,0-3.58,0c-1.84.57-4.45,1.37-4.78,3.27-.44,2.53,2.11,5.24,4.47,6.26,2,.87,4.54-1.75,6.57-.88s1.9,4.34,3.87,5.35c2.12,1.09,4.89-.69,7.17,0,2.74.83,4.28,4.94,7.14,4.78,4.93-.28,6.41-9.06,11.32-9.53,2.83-.27,4.7,3.43,7.45,4.15s7.75-2.72,9,0c1.14,2.57-6.43,3.55-5.66,6.26.68,2.39,4.67,1.8,7.14,2.11,2.76.34,5.59-.78,8.33-.31,3.78.64,6.94,3.81,10.75,4.18,5.12.5,10.06-3.05,15.19-2.67,2.51.18,4.67,2.11,7.17,2.39,3.07.35,6.91,1.12,9.24-.91,1.62-1.41-.21-4.93,1.48-6.26,4.21-3.33,11.39,2.57,16.1,0,1.45-.79,1.36-3.18,2.67-4.18,2.65-2,6.21-2.68,9.53-3,3.7-.31,7.38,2.09,11,1.48,1.53-.25,2.65-1.78,4.18-2.08,4.51-.86,9.5,3,13.71,1.16,1.62-.7,1.68-3.38,3.27-4.15,3.13-1.52,7.2,1.26,10.44,0,1.51-.59,4.24-1.79,3.58-3.27-1.78-4-8.73,1.42-13.11,1.16-3.85-.23-7.49-2.43-11.35-2.36-2.46,0-4.92,2.83-7.14,1.76-1.08-.52-.5-2.62-1.51-3.27-2.34-1.51-5.81,1.16-8.33,0-3.33-1.53-3.71-7-7.14-8.33-1.31-.5-2.94,1.25-4.18.6-2.16-1.13-.88-7.09-3.27-6.57-2.72.59-1.06,5.68-.31,8.36,1.17,4.22,8.81,6.94,7.17,11-1,2.46-5.26,2.65-7.77,1.79-5.48-1.86-5.74-11.07-11-13.4-3.28-1.44-7.25-.27-10.72.6-2.76.69-4.91,3.92-7.74,3.55-2.17-.28-3.93-2.28-5.06-4.15-1.52-2.52.49-6.79-1.79-8.65-2.62-2.13-6.87.78-10.16,0-1.95-.46-3.39-2.3-5.35-2.7A34.5,34.5,0,0,0,173.78,414.07Z" style="fill:#896c5a"/><path d="M251.5,373.85c4.26-18.56,6.63-40.26,2.6-49.6-1.87,8.08-2.81,26.36-5.9,39.91Z" style="fill:#1c5136;stroke:#000;stroke-width:0.9937831163406372px"/><path d="M248.62,364.74c3-18.81,3.87-40.61-.79-49.66-1.32,8.19-1,26.49-3.17,40.22Z" style="fill:#1c5136;stroke:#000;stroke-width:0.9937831163406372px"/><path d="M244.53,356c2.42-18.89,2.65-40.71-2.28-49.61-1.07,8.22-.21,26.51-2,40.3Z" style="fill:#1c5136;stroke:#000;stroke-width:0.9937831163406372px"/><path d="M240.22,348.58c1.86-19,1.45-40.77-3.74-49.53-.83,8.25.56,26.51-.77,40.34Z" style="fill:#1c5136;stroke:#000;stroke-width:0.9937831163406372px"/><path d="M235.35,339c1.29-19,.22-40.8-5.24-49.39-.58,8.27,1.37,26.48.45,40.35Z" style="fill:#1c5136;stroke:#000;stroke-width:0.9937831163406372px"/><path d="M231,332.39c.4-19-1.68-40.76-7.52-49.09-.19,8.29,2.59,26.39,2.32,40.28Z" style="fill:#1c5136;stroke:#000;stroke-width:0.9937831163406372px"/><path d="M226.33,327c-.53-19-3.68-40.63-9.93-48.66.21,8.29,3.89,26.23,4.3,40.12Z" style="fill:#1c5136;stroke:#000;stroke-width:0.9937831163406372px"/><path d="M220.46,319.45c-.77-19-4.19-40.58-10.53-48.54.32,8.28,4.22,26.18,4.8,40.06Z" style="fill:#1c5136;stroke:#000;stroke-width:0.9937831163406372px"/><path d="M134.59,260.47c-7.64-11.54-13.1-20.43-19.72-23.48,1.3,4.49,5.48,11.4,11.11,19.59Z" style="fill:#1c5136;stroke:#000;stroke-width:0.9937831163406372px"/><path d="M142.41,264.57c-6.55-12.19-12.19-22.62-18.51-26.26.89,4.59,5.44,12.93,10.29,21.6Z" style="fill:#1c5136;stroke:#000;stroke-width:0.9937831163406372px"/><path d="M148,267.43c-4.13-13.21-9-22.88-14.54-27.65,0,4.67,4.64,14.34,7.78,23.76Z" style="fill:#1c5136;stroke:#000;stroke-width:0.9937831163406372px"/><path d="M153.46,270.54c-2.55-13.6-6.27-23.78-11.19-29.16-.54,4.64,2.93,14.78,4.93,24.51Z" style="fill:#1c5136;stroke:#000;stroke-width:0.9937831163406372px"/><path d="M160.21,274.18c-2.55-13.6-6.92-27.1-11.84-32.48-.54,4.64,3.79,18.85,5.79,28.58Z" style="fill:#1c5136;stroke:#000;stroke-width:0.9937831163406372px"/><path d="M166.11,277.32c-1.94-13.7-5.69-27.38-10.36-33-.75,4.61,2.93,19,4.49,28.81Z" style="fill:#1c5136;stroke:#000;stroke-width:0.9937831163406372px"/><path d="M172,281.16c-1.94-13.7-5.69-27.38-10.36-33-.75,4.61,2.93,19,4.49,28.81Z" style="fill:#1c5136;stroke:#000;stroke-width:0.9937831163406372px"/><path d="M177.81,283.78c-1.94-13.7-5.69-27.38-10.36-33-.75,4.61,2.93,19,4.49,28.81Z" style="fill:#1c5136;stroke:#000;stroke-width:0.9937831163406372px"/><path d="M184.07,288.42c-1.94-13.7-5.49-30.21-10.16-35.81-.75,4.61,3.54,23.65,4.29,31.64Z" style="fill:#1c5136;stroke:#000;stroke-width:0.9937831163406372px"/><path d="M190.33,292.66c-1.94-13.7-5.49-30.21-10.16-35.81-.75,4.61,3.54,23.65,4.29,31.64Z" style="fill:#1c5136;stroke:#000;stroke-width:0.9937831163406372px"/><path d="M196.38,296.9c-1.94-13.7-5.22-31.56-9.89-37.16-.75,4.61,3.27,25,4,33Z" style="fill:#1c5136;stroke:#000;stroke-width:0.9937831163406372px"/><path d="M202.64,300.94c-1.94-13.7-5.76-34.12-10.43-39.72-.75,4.61,3.81,27.55,4.56,35.55Z" style="fill:#1c5136;stroke:#000;stroke-width:0.9937831163406372px"/><path d="M214.2,315c-.77-19-4.19-39.77-10.53-47.73.32,8.28,4.22,25.37,4.8,39.25Z" style="fill:#1c5136;stroke:#000;stroke-width:0.9937831163406372px"/><path d="M209.16,309.15c-.77-19-4.39-35.74-10.74-43.69.32,8.28,3.61,23.75,4.19,37.64Z" style="fill:#1c5136;stroke:#000;stroke-width:0.9937831163406372px"/><path d="M126.22,256.7c-7.64-11.54-13.91-17.46-20.53-20.51,1.3,4.49,6.29,8.43,11.92,16.62Z" style="fill:#1c5136;stroke:#000;stroke-width:0.9937831163406372px"/><path d="M120.28,254c-9.8-11.54-16.6-13.41-23.23-16.46,1.34,3.42,7.78,8.7,14.62,13.38Z" style="fill:#1c5136;stroke:#000;stroke-width:0.9937831163406372px"/><path d="M249.41,367.12c-17.92-6.45-37-14.16-42.68-22.61,7.81,2.79,23.25,9.86,36.32,14.59Z" style="fill:#1c5136;stroke:#000;stroke-width:0.9937831163406372px"/><path d="M125.72,257c-14.88,0-22-3.62-27.35-7.27,4.45-1.44,11.45,1.52,20.23,3.78Z" style="fill:#1c5136;stroke:#000;stroke-width:0.9937831163406372px"/><path d="M246.49,358.91c-18.31-5.23-37.1-12.95-43.34-21,8,2.26,24.45,9.36,37.81,13.19Z" style="fill:#1c5136;stroke:#000;stroke-width:0.9937831163406372px"/><path d="M242,350.7c-18.37-5-38.6-12.1-44.91-20.07,8,2.18,24.55,8.88,38,12.57Z" style="fill:#1c5136;stroke:#000;stroke-width:0.9937831163406372px"/><path d="M237,342.7c-18.49-4.58-36.89-10.46-43.4-18.27,8.05,2,22.77,7.59,36.25,11Z" style="fill:#1c5136;stroke:#000;stroke-width:0.9937831163406372px"/><path d="M232.47,335c-18.67-3.74-37.32-8.79-44.18-16.3,8.13,1.61,22.86,5.88,36.48,8.63Z" style="fill:#1c5136;stroke:#000;stroke-width:0.9937831163406372px"/><path d="M227.19,326.43c-18.91-2.26-37-5.37-44.42-12.32,8.23,1,22.63,4.27,36.43,5.94Z" style="fill:#1c5136;stroke:#000;stroke-width:0.9937831163406372px"/><path d="M220.65,319.9c-18.91-2.26-37.89-4.7-45.32-11.65,8.23,1,23.3,3.59,37.1,3.91Z" style="fill:#1c5136;stroke:#000;stroke-width:0.9937831163406372px"/><path d="M214.14,311.36c-19,.13-38.47-2.13-46.71-8.1,8.29-.08,24.08,2.84,38,2.77Z" style="fill:#1c5136;stroke:#000;stroke-width:0.9937831163406372px"/><path d="M199.59,299.93c-13.83.32-34.6-.12-40.89-3.82,4.43-1.49,27.81-.73,35.82-1.29Z" style="fill:#1c5136;stroke:#000;stroke-width:0.9937831163406372px"/><path d="M207.77,304.82c-19,1.05-38.53-.26-47-5.82,8.28-.48,24.19,1.67,38.07.92Z" style="fill:#1c5136;stroke:#000;stroke-width:0.9937831163406372px"/><path d="M192.29,294.37c-13.76,1.48-31.56,1.66-38.13-1.49,4.29-1.86,24.72-1.94,32.65-3.17Z" style="fill:#1c5136;stroke:#000;stroke-width:0.9937831163406372px"/><path d="M185.75,290.31C172,291.8,154.2,292,147.62,288.82c4.29-1.86,24.72-1.94,32.65-3.17Z" style="fill:#1c5136;stroke:#000;stroke-width:0.9937831163406372px"/><path d="M178.32,285.81c-13.76,1.48-31.56,1.66-38.13-1.49,4.29-1.86,24.72-1.94,32.65-3.17Z" style="fill:#1c5136;stroke:#000;stroke-width:0.9937831163406372px"/><path d="M171.56,281.08c-13.76,1.48-31.56,1.66-38.13-1.49,4.29-1.86,24.72-1.94,32.65-3.17Z" style="fill:#1c5136;stroke:#000;stroke-width:0.9937831163406372px"/><path d="M162.32,276.34c-13.76,1.48-31.56,1.66-38.13-1.49,4.29-1.86,24.72-1.94,32.65-3.17Z" style="fill:#1c5136;stroke:#000;stroke-width:0.9937831163406372px"/><path d="M153.31,272.06c-13.76,1.48-28.85,1.44-35.43-1.72,4.29-1.86,22-1.72,29.95-2.95Z" style="fill:#1c5136;stroke:#000;stroke-width:0.9937831163406372px"/><path d="M146.28,266.75c-13.82.71-26.79,2.19-33.18-1.33,4.38-1.62,15-2.95,24.93-3.28Z" style="fill:#1c5136;stroke:#000;stroke-width:0.9937831163406372px"/><path d="M135.46,261.79c-13.82.71-24.76,1.28-31.15-2.23,4.38-1.62,13-2,22.91-2.38Z" style="fill:#1c5136;stroke:#000;stroke-width:0.9937831163406372px"/><path d="M111.43,250.5l-.15-.23c39.56,20.24,137.39,58.17,142.3,157.78-.15,7.25,6.83,4.42,5.65.07C254.17,305.27,146.94,263.25,111.43,250.5Z" style="fill:#215f2f;stroke:#000;stroke-width:0.9937831163406372px"/><path d="M143.36,265c17,8.77,36.07,19.62,53.87,34.31,29.73,24.53,55.1,59,57.55,108.71t0,.09a4.22,4.22,0,0,0,.69,2.86,1,1,0,0,0,1.07.31,2.25,2.25,0,0,0,1.54-2.83,1.2,1.2,0,0,1,0-.25c-2.49-50.52-29.72-86.17-61-110.94C179,283,160,272.69,143.36,265Z" style="fill:#24682c"/><path d="M123,365.8c-4.26-18.56-6.63-40.26-2.6-49.6,1.87,8.08,2.81,26.36,5.9,39.91Z" style="fill:#1c5136;stroke:#000;stroke-width:0.9937831163406372px"/><path d="M125.91,356.69c-3-18.81-3.87-40.61.79-49.66,1.32,8.19,1,26.49,3.17,40.22Z" style="fill:#1c5136;stroke:#000;stroke-width:0.9937831163406372px"/><path d="M130,347.94c-2.42-18.89-2.65-40.71,2.28-49.61,1.07,8.22.21,26.51,2,40.3Z" style="fill:#1c5136;stroke:#000;stroke-width:0.9937831163406372px"/><path d="M134.32,340.53c-1.86-19-1.45-40.77,3.74-49.53.83,8.25-.56,26.51.77,40.34Z" style="fill:#1c5136;stroke:#000;stroke-width:0.9937831163406372px"/><path d="M139.19,331c-1.29-19-.22-40.8,5.24-49.39.58,8.27-1.37,26.48-.45,40.35Z" style="fill:#1c5136;stroke:#000;stroke-width:0.9937831163406372px"/><path d="M143.57,324.34c-.4-19,1.68-40.76,7.52-49.09.19,8.29-2.59,26.39-2.32,40.28Z" style="fill:#1c5136;stroke:#000;stroke-width:0.9937831163406372px"/><path d="M148.21,318.93c.53-19,3.68-40.63,9.93-48.66-.21,8.29-3.89,26.23-4.3,40.12Z" style="fill:#1c5136;stroke:#000;stroke-width:0.9937831163406372px"/><path d="M154.08,311.4c.77-19,4.19-40.58,10.53-48.54-.32,8.28-4.22,26.18-4.8,40.06Z" style="fill:#1c5136;stroke:#000;stroke-width:0.9937831163406372px"/><path d="M239.95,252.42c7.64-11.54,13.1-20.43,19.72-23.48-1.3,4.49-5.48,11.4-11.11,19.59Z" style="fill:#1c5136;stroke:#000;stroke-width:0.9937831163406372px"/><path d="M232.13,256.52c6.55-12.19,12.19-22.62,18.51-26.26-.89,4.59-5.44,12.93-10.29,21.6Z" style="fill:#1c5136;stroke:#000;stroke-width:0.9937831163406372px"/><path d="M226.57,259.38c4.13-13.21,9-22.88,14.54-27.65,0,4.67-4.64,14.34-7.78,23.76Z" style="fill:#1c5136;stroke:#000;stroke-width:0.9937831163406372px"/><path d="M221.07,262.49c2.55-13.6,6.27-23.78,11.19-29.16.54,4.64-2.93,14.78-4.93,24.51Z" style="fill:#1c5136;stroke:#000;stroke-width:0.9937831163406372px"/><path d="M214.33,266.13c2.55-13.6,6.92-27.1,11.84-32.48.54,4.64-3.79,18.85-5.79,28.58Z" style="fill:#1c5136;stroke:#000;stroke-width:0.9937831163406372px"/><path d="M208.43,269.27c1.94-13.7,5.69-27.38,10.36-33,.75,4.61-2.93,19-4.49,28.81Z" style="fill:#1c5136;stroke:#000;stroke-width:0.9937831163406372px"/><path d="M202.58,273.11c1.94-13.7,5.69-27.38,10.36-33,.75,4.61-2.93,19-4.49,28.81Z" style="fill:#1c5136;stroke:#000;stroke-width:0.9937831163406372px"/><path d="M196.72,275.73c1.94-13.7,5.69-27.38,10.36-33,.75,4.61-2.93,19-4.49,28.81Z" style="fill:#1c5136;stroke:#000;stroke-width:0.9937831163406372px"/><path d="M190.46,280.37c1.94-13.7,5.49-30.21,10.16-35.81.75,4.61-3.54,23.65-4.29,31.64Z" style="fill:#1c5136;stroke:#000;stroke-width:0.9937831163406372px"/><path d="M184.21,284.61c1.94-13.7,5.49-30.21,10.16-35.81.75,4.61-3.54,23.65-4.29,31.64Z" style="fill:#1c5136;stroke:#000;stroke-width:0.9937831163406372px"/><path d="M178.15,288.85c1.94-13.7,5.22-31.56,9.89-37.16.75,4.61-3.27,25-4,33Z" style="fill:#1c5136;stroke:#000;stroke-width:0.9937831163406372px"/><path d="M171.9,292.89c1.94-13.7,5.76-34.12,10.43-39.72.75,4.61-3.81,27.55-4.56,35.55Z" style="fill:#1c5136;stroke:#000;stroke-width:0.9937831163406372px"/><path d="M160.33,307c.77-19,4.19-39.77,10.53-47.73-.32,8.28-4.22,25.37-4.8,39.25Z" style="fill:#1c5136;stroke:#000;stroke-width:0.9937831163406372px"/><path d="M165.38,301.1c.77-19,4.39-35.74,10.74-43.69-.32,8.28-3.61,23.75-4.19,37.64Z" style="fill:#1c5136;stroke:#000;stroke-width:0.9937831163406372px"/><path d="M248.31,248.65c7.64-11.54,13.91-17.46,20.53-20.51-1.3,4.49-6.29,8.43-11.92,16.62Z" style="fill:#1c5136;stroke:#000;stroke-width:0.9937831163406372px"/><path d="M254.25,245.95c9.8-11.54,16.6-13.41,23.23-16.46-1.34,3.42-7.78,8.7-14.62,13.38Z" style="fill:#1c5136;stroke:#000;stroke-width:0.9937831163406372px"/><path d="M125.13,359.07c17.92-6.45,37-14.16,42.68-22.61-7.81,2.79-23.25,9.86-36.32,14.59Z" style="fill:#1c5136;stroke:#000;stroke-width:0.9937831163406372px"/><path d="M248.82,249c14.88,0,22-3.62,27.35-7.27-4.45-1.44-11.45,1.52-20.23,3.78Z" style="fill:#1c5136;stroke:#000;stroke-width:0.9937831163406372px"/><path d="M128,350.86c18.31-5.23,37.1-12.95,43.34-21-8,2.26-24.45,9.36-37.81,13.19Z" style="fill:#1c5136;stroke:#000;stroke-width:0.9937831163406372px"/><path d="M132.57,342.65c18.37-5,38.6-12.1,44.91-20.07-8,2.18-24.55,8.88-38,12.57Z" style="fill:#1c5136;stroke:#000;stroke-width:0.9937831163406372px"/><path d="M137.5,334.65c18.49-4.58,36.89-10.46,43.4-18.27-8.05,2-22.77,7.59-36.25,11Z" style="fill:#1c5136;stroke:#000;stroke-width:0.9937831163406372px"/><path d="M142.06,326.91c18.67-3.74,37.32-8.79,44.18-16.3-8.13,1.61-22.86,5.88-36.48,8.63Z" style="fill:#1c5136;stroke:#000;stroke-width:0.9937831163406372px"/><path d="M147.35,318.38c18.91-2.26,37-5.37,44.42-12.32-8.23,1-22.63,4.27-36.43,5.94Z" style="fill:#1c5136;stroke:#000;stroke-width:0.9937831163406372px"/><path d="M153.88,311.85c18.91-2.26,37.89-4.7,45.32-11.65-8.23,1-23.3,3.59-37.1,3.91Z" style="fill:#1c5136;stroke:#000;stroke-width:0.9937831163406372px"/><path d="M160.4,303.31c19,.13,38.47-2.13,46.71-8.1-8.29-.08-24.08,2.84-38,2.77Z" style="fill:#1c5136;stroke:#000;stroke-width:0.9937831163406372px"/><path d="M175,291.88c13.83.32,34.6-.12,40.89-3.82-4.43-1.49-27.81-.73-35.82-1.29Z" style="fill:#1c5136;stroke:#000;stroke-width:0.9937831163406372px"/><path d="M166.76,296.77c19,1.05,38.53-.26,47-5.82-8.28-.48-24.19,1.67-38.07.92Z" style="fill:#1c5136;stroke:#000;stroke-width:0.9937831163406372px"/><path d="M182.25,286.32c13.76,1.48,31.56,1.66,38.13-1.49-4.29-1.86-24.72-1.94-32.65-3.17Z" style="fill:#1c5136;stroke:#000;stroke-width:0.9937831163406372px"/><path d="M188.78,282.26c13.76,1.48,31.56,1.66,38.13-1.49-4.29-1.86-24.72-1.94-32.65-3.17Z" style="fill:#1c5136;stroke:#000;stroke-width:0.9937831163406372px"/><path d="M196.22,277.76c13.76,1.48,31.56,1.66,38.13-1.49-4.29-1.86-24.72-1.94-32.65-3.17Z" style="fill:#1c5136;stroke:#000;stroke-width:0.9937831163406372px"/><path d="M203,273c13.76,1.48,31.56,1.66,38.13-1.49-4.29-1.86-24.72-1.94-32.65-3.17Z" style="fill:#1c5136;stroke:#000;stroke-width:0.9937831163406372px"/><path d="M212.21,268.29c13.76,1.48,31.56,1.66,38.13-1.49-4.29-1.86-24.72-1.94-32.65-3.17Z" style="fill:#1c5136;stroke:#000;stroke-width:0.9937831163406372px"/><path d="M221.23,264c13.76,1.48,28.85,1.44,35.43-1.72-4.29-1.86-22-1.72-29.95-2.95Z" style="fill:#1c5136;stroke:#000;stroke-width:0.9937831163406372px"/><path d="M228.26,258.7c13.82.71,26.79,2.19,33.18-1.33-4.38-1.62-15-2.95-24.93-3.28Z" style="fill:#1c5136;stroke:#000;stroke-width:0.9937831163406372px"/><path d="M239.07,253.74c13.82.71,24.76,1.28,31.15-2.23-4.38-1.62-13-2-22.91-2.38Z" style="fill:#1c5136;stroke:#000;stroke-width:0.9937831163406372px"/><path d="M263.1,242.45l.15-.23C223.69,262.46,125.86,300.39,120.95,400c.15,7.25-6.83,4.42-5.65.07C120.37,297.22,227.6,255.2,263.1,242.45Z" style="fill:#215f2f;stroke:#000;stroke-width:0.9937831163406372px"/><path d="M231.18,256.94c-17,8.77-36.07,19.62-53.87,34.31-29.73,24.53-55.1,59-57.55,108.71t0,.09a4.22,4.22,0,0,1-.69,2.86,1,1,0,0,1-1.07.31,2.25,2.25,0,0,1-1.54-2.83,1.2,1.2,0,0,0,0-.25c2.49-50.52,29.72-86.17,61-110.94,18-14.29,37.05-24.56,53.71-32.26Z" style="fill:#24682c"/><path d="M398.19,395c-7.36,8.47-21.07,23.59-43.7,35.42l-23.69-10.58c18.41-8.86,35.87-22.73,52.44-41.4Z" style="fill:#e7b93c;stroke:#000;stroke-width:0.9937831163406372px"/><path d="M364.93,407.82c-9.2,3.57-13.1,6.52-34.82,11.79l13.8,19.32,26-20.93Z" style="fill:#e7b93c;stroke:#000;stroke-width:0.9937831163406372px"/><path d="M382,430c-16.61,12.83-36.32,27.66-71.59,41.28l-15.3-26C330,436.44,353.67,416,365,407.73Z" style="fill:#e7b93c;stroke:#000;stroke-width:0.9937831163406372px"/><path d="M335.07,435.7c-7.54,2.42-16.74,5.54-40.24,9.27l9.24,19.92L335,448.73Z" style="fill:#e7b93c;stroke:#000;stroke-width:0.9937831163406372px"/><path d="M348.24,447.53l-9.45-15.18c15.27-7.79,19.38-12.38,25.87-17.66l10.7,14.43A162.17,162.17,0,0,1,348.24,447.53Z" style="fill:#f8ce5c"/><path d="M373.37,412l-8.21-9.2c8.56-5.72,14-11.44,17.91-17.17l8.46,8.71C386.34,401.33,380.55,407.56,373.37,412Z" style="fill:#f8ce5c"/><path d="M.5,395c7.36,8.47,21.07,23.59,43.7,35.42l23.69-10.58C49.49,411,32,397.12,15.45,378.44Z" style="fill:#e7b93c;stroke:#000;stroke-width:0.9937831163406372px"/><path d="M33.76,407.82c9.2,3.57,13.1,6.52,34.82,11.79l-13.8,19.32L28.79,418Z" style="fill:#e7b93c;stroke:#000;stroke-width:0.9937831163406372px"/><path d="M16.68,430C33.28,442.79,53,457.63,88.27,471.25l15.3-26C68.7,436.44,45,416,33.71,407.73Z" style="fill:#e7b93c;stroke:#000;stroke-width:0.9937831163406372px"/><path d="M63.62,435.7c7.54,2.42,16.74,5.54,40.24,9.27l-9.24,19.92L63.73,448.73Z" style="fill:#e7b93c;stroke:#000;stroke-width:0.9937831163406372px"/><path d="M50.44,447.53l9.45-15.18C44.63,424.57,40.52,420,34,414.69l-10.7,14.43A162.17,162.17,0,0,0,50.44,447.53Z" style="fill:#f8ce5c"/><path d="M25.32,412l8.21-9.2c-8.56-5.72-14-11.44-17.91-17.17l-8.46,8.71C12.35,401.33,18.14,407.56,25.32,412Z" style="fill:#f8ce5c"/><path d="M49.77,459.61l13.38-24c51.33,26.24,96,36.31,136.19,36.31s84.86-10.07,136.19-36.31l13.38,24C296.1,489,246.62,499.53,199.34,499.53S102.59,489,49.77,459.61Z" style="fill:#e7b93c;stroke:#000;stroke-width:0.9937831163406372px"/><path d="M65.2,442.12l-8.65,15.44c50.44,27.2,97.56,37,142.79,37s92.35-9.85,142.79-37l-8.65-15.44C283.38,467,239.23,476.9,199.34,476.9S115.3,467,65.2,442.12Z" style="fill:#f8ce5c"/><path d="M78.49,452.53l-.13.28-.13.28.44.28a5.23,5.23,0,0,1,.69.57c.48.5.61.07-1.57,5.13s-2,4.66-2.52,4.69a2.58,2.58,0,0,1-.88-.19l-.6-.19-.13.28-.09.28,5.25,2.26,5.28,2.3,0-.13c0-.06.44-.78.88-1.6s.79-1.51.79-1.54a.91.91,0,0,0-.31-.19c-.28-.12-.3-.13-.41,0a12.4,12.4,0,0,1-2.3,1.45,1.58,1.58,0,0,1-1.23.06,8.85,8.85,0,0,1-1.73-.63,10.26,10.26,0,0,1-1.45-.69,1,1,0,0,1-.38-.79c0-.13.66-1.71,1.89-4.56,1.79-4.15,1.9-4.35,2.08-4.5s.56-.21,1.35,0l.6.16.13-.25.13-.28-2.86-1.23-2.83-1.23Zm243.11.19a6.69,6.69,0,0,0-.75.09c-.48.09-.58.14-4.06,1.7l-3.55,1.57.13.28.13.28.57-.16c.72-.22,1.15-.23,1.38-.06s.3.4,2.17,4.53c2,4.35,2,4.45,2,4.69s-.26.54-.91.91l-.57.31.13.28.13.28,2.92-1.32,2.86-1.29-.13-.28-.13-.28-.66.22c-.77.27-1.16.31-1.42.13s-.27-.28-1-2L320,460.7l1.29-.57a7.82,7.82,0,0,0,1.76-1c1.78-1.34,2.47-3,1.89-4.62-.46-1.29-1.64-1.93-3.3-1.79ZM320.24,454a2.41,2.41,0,0,1,1.86.85,4.2,4.2,0,0,1,.75,1.57A2.71,2.71,0,0,1,321.6,459a7.64,7.64,0,0,1-1.13.6l-.82.38-1.13-2.52L317.38,455l.91-.41a10.34,10.34,0,0,1,1.23-.47,2.91,2.91,0,0,1,.72-.09Zm-13.9,4.62a.91.91,0,0,0-.31.09l-.35.16,0,.25c0,.14-.08,1.75-.16,3.55-.22,5.09-.37,7.85-.44,8.24a2.46,2.46,0,0,1-1.26,1.64l-.35.22.13.28.09.28,2.58-1,2.55-1-.13-.28-.13-.28-.5.16a3,3,0,0,1-1.48.13c-.21-.07-.24-.08-.31-.38a10.55,10.55,0,0,1-.13-2.2l0-.66,2.39-1,2.39-1,.25.22c1.24,1.19,2.09,2,2.14,2.14s-.2.52-1.07,1l-.47.28.13.25.09.31,2.86-1.16,2.83-1.16-.13-.28-.13-.28-.28.09a2.24,2.24,0,0,1-1.92-.28c-.16-.12-8.22-7.65-8.74-8.18-.05-.05-.09-.09-.16-.09ZM94,458.91a6.85,6.85,0,0,0-3.33.82,7.65,7.65,0,0,0-1.82,1.54,7.49,7.49,0,0,0-1.32,3.14,6.5,6.5,0,0,0,3.84,6.86,8.51,8.51,0,0,0,4.21.85,6.87,6.87,0,0,0,3.68-1.48,6.65,6.65,0,0,0,1.95-6.95,7.36,7.36,0,0,0-5.16-4.5A7.72,7.72,0,0,0,94,458.91Zm.85.88a3.83,3.83,0,0,1,.53.06,5.62,5.62,0,0,1,1,.28,5.14,5.14,0,0,1,.94.44A3.92,3.92,0,0,1,98.65,462a3,3,0,0,1,.47,1.19,6.71,6.71,0,0,1-.22,3.21c-.92,3.21-2.77,5-5.13,4.81a5.81,5.81,0,0,1-2.11-.63A4.16,4.16,0,0,1,89.59,467a7.62,7.62,0,0,1,.69-3.21,7.18,7.18,0,0,1,1.16-2.2A4.33,4.33,0,0,1,94.81,459.79Zm205.65,1.42-2.83.91-2.83.88.09.28.09.28.66-.06c.91-.09,1.39,0,1.64.16.49.41.49.4,1.7,4.15l1.1,3.46-.85-.53-5.35-3.27-4.5-2.74-2,.63-2,.63.09.28.09.28.35,0a5.27,5.27,0,0,1,1.54.06,1.6,1.6,0,0,1,.91.57c.17.21.27.51,1.38,4,1.31,4.13,1.32,4.18,1.13,4.72-.12.34-.41.6-1.16,1l-.53.28.09.28.09.28,2.86-.91,2.86-.91-.06-.28-.09-.28-.41.06a5,5,0,0,1-1.57,0,1.6,1.6,0,0,1-.91-.85,30.07,30.07,0,0,1-1.32-3.9l-1.1-3.52,5.75,3.52,5.75,3.49.41-.16.41-.13-1.54-5c-1.62-5.25-1.63-5.29-1.51-5.82.08-.34.4-.63,1.16-1l.57-.28-.09-.28-.09-.28Zm6,.41s3.64,3.36,3.77,3.52l.06.09-2,.82c-1.1.45-2,.79-2,.79s.14-5.2.19-5.22ZM104,462.75l-.09.31c-.09.26-.11.28,0,.31a6.17,6.17,0,0,1,1.42,1,1.63,1.63,0,0,1,.44,1.26,28.51,28.51,0,0,1-1.29,4c-1.13,3.34-1.27,3.73-1.45,4-.42.55-.77.65-1.89.5l-.6-.09-.09.28-.09.28,2.86,1,2.86.94.06-.28.09-.28-.6-.35c-1-.56-1.21-.82-1.29-1.35s0-.83,1.19-4.53c.63-1.95,1.17-3.53,1.19-3.52s1.21,2.81,2.64,6.23l2.58,6.23.44.13.41.13,1.7-5c1.55-4.56,1.71-5,1.89-5.22.42-.54.72-.63,1.86-.47l.6.09.09-.28.09-.28-2.8-.94-2.83-.94-.09.28-.09.28.57.35c.83.48,1.13.71,1.23,1,.18.61.16.65-1.07,4.4a21.58,21.58,0,0,1-1.16,3.33c0-.06-1.12-2.66-2.42-5.79L108,464.1l-2-.66-2-.69Zm174.21,5.13a1,1,0,0,0-.35.06l-.38.13,0,.25c0,.13-.24,1.73-.47,3.52-.7,5.3-1,7.72-1.13,8.14a2.34,2.34,0,0,1-1.38,1.54l-.38.19.09.28.09.31,2.61-.82,2.64-.82-.09-.31-.09-.28-.16,0a5.82,5.82,0,0,1-1.45.19,1.32,1.32,0,0,1-.5-.13c-.13-.09-.15-.15-.19-.5a18,18,0,0,1,.16-2.55l0-.22,2.45-.75,2.48-.75.19.25a26.86,26.86,0,0,1,1.92,2.33c.08.27-.19.48-1.1.88l-.47.22.06.28.06.31,3-.91,2.92-.88-.09-.31-.09-.28-.28.06a2.32,2.32,0,0,1-1.92-.44c-.15-.13-7.45-8.33-8-8.93a.22.22,0,0,0-.16-.09Zm-153.83,1.19c-.25,0-.52,0-.79,0a6.53,6.53,0,0,0-5.31,3.46,8.22,8.22,0,0,0-.72,2.52,6,6,0,0,0,1.1,3.84,7.48,7.48,0,0,0,3.46,2.67,14.74,14.74,0,0,0,2.55.63,18,18,0,0,0,3.46.06l.31,0,.41-1.51c.45-1.72.54-1.88.91-2a2.08,2.08,0,0,1,1.16,0l.44.06.06-.31.09-.31-3.08-.85-3.05-.85-.09.31-.09.28.69.28c.88.36,1.21.62,1.32,1s.08.26-.28,1.57c-.44,1.58-.39,1.48-1.23,1.57a5.49,5.49,0,0,1-3.55-.82,5,5,0,0,1-2.14-4.91,11.18,11.18,0,0,1,.66-2.55,6.15,6.15,0,0,1,1.82-2.39,5.13,5.13,0,0,1,1.7-.79,5.53,5.53,0,0,1,2.92.38,4,4,0,0,1,2.08,2.33,8.89,8.89,0,0,1,.35,2l0,.31.41.09.41.13.28-1.23c.16-.67.43-1.59.57-2.08l.22-.91-.41-.09-.41-.13-.22.19-.28.22a1.34,1.34,0,0,1-.47-.28,7.68,7.68,0,0,0-3-1.48,8.46,8.46,0,0,0-2.33-.35ZM271,470.26l-6.23,1.45-6.19,1.48.38,1.6.38,1.64.35-.06.35-.09.09-.47a4.7,4.7,0,0,1,1.26-2.42,3.89,3.89,0,0,1,1.35-.47l1.13-.28,1.16,5c1.11,4.76,1.19,5,1.13,5.25-.12.43-.37.61-1.38.94l-.66.22.06.28.06.28,3.36-.79L271,483l-.06-.28-.06-.28-.35,0c-.19,0-.61.05-.91.06a1.36,1.36,0,0,1-.82-.13,1,1,0,0,1-.35-.31c-.08-.13-.49-1.66-1.29-5.09L266,472.12l1.13-.25c1.29-.26,1.38-.25,1.92,0a6.22,6.22,0,0,1,1.95,1.7c.07.12.08.14.41.06l.35-.09-.38-1.64-.38-1.64Zm7,.53s3.43,3.82,3.46,3.9a10.68,10.68,0,0,1-2,.69c-1.13.35-2.09.61-2.11.6S278,470.81,278,470.8Zm-20.79,2.67-.38.06-.41.06-.13.31a1.35,1.35,0,0,1-.19.31,3.45,3.45,0,0,1-.5-.09,6.24,6.24,0,0,0-2.33-.22c-2.25.2-4.12,1.66-4.34,3.4a3.43,3.43,0,0,0,.06.82,2.79,2.79,0,0,0,1.42,2.08c.76.44,1.4.62,3.71.94.66.09,1.39.2,1.6.25a2.72,2.72,0,0,1,1.73,1.35,2.55,2.55,0,0,1,.19,1.32,2,2,0,0,1-1.19,1.51,6.93,6.93,0,0,1-2.33.41,4.81,4.81,0,0,1-3.62-2.55l-.22-.41-.41.06-.44.09.25,1.13c.13.63.36,1.57.47,2.08l.19.91.41-.06.41-.06.16-.35.16-.35.5.13a9.74,9.74,0,0,0,2.14.22,7.74,7.74,0,0,0,3.14-.82,3.52,3.52,0,0,0,1.95-4.78,3,3,0,0,0-1.57-1.42,12.66,12.66,0,0,0-2.55-.6,25.07,25.07,0,0,1-2.67-.47,2.36,2.36,0,0,1-1.42-1,1.82,1.82,0,0,1,.72-2.61,3.7,3.7,0,0,1,2.39-.41,4,4,0,0,1,2.7,2.2l.41.69.41-.06.38,0-.19-1.13c-.11-.61-.3-1.51-.41-2l-.22-.91Zm-114.34.19a8,8,0,0,0-1.67.31,6.29,6.29,0,0,0-4.53,4.81,6,6,0,0,0,1.6,5.63,7.64,7.64,0,0,0,3.8,2,14.61,14.61,0,0,0,2.58.19,16.79,16.79,0,0,0,3.27-.41l.47-.13.19-1.7.19-1.7.19-.19c.23-.24.51-.31,1.23-.35l.57,0,0-.31,0-.28-3.18-.38-3.21-.38,0,.31,0,.35.6.13a2.89,2.89,0,0,1,1.48.6c.22.28.24.6.06,1.95s-.14,1.36-.85,1.57a4.78,4.78,0,0,1-2.14.16,4.5,4.5,0,0,1-2-.63,5,5,0,0,1-2.42-3.9,5.92,5.92,0,0,1,.06-1.76,6.4,6.4,0,0,1,.31-1.76,4.65,4.65,0,0,1,3.77-3.4,4.15,4.15,0,0,1,1.29,0,3.63,3.63,0,0,1,1.19.25,4.37,4.37,0,0,1,2.52,3.4l.16.66.44,0,.41.06.13-1.54c.07-.85.15-1.84.19-2.17l.09-.6-.44-.06-.41,0-.22.25a3.25,3.25,0,0,1-.25.25,3.79,3.79,0,0,1-.5-.25,7.66,7.66,0,0,0-3.14-1,9.45,9.45,0,0,0-1.79-.06Zm16,2.11a7.06,7.06,0,0,0-6,2.92,5.74,5.74,0,0,0-1,3.3,6.06,6.06,0,0,0,2,5,7.13,7.13,0,0,0,3.93,1.76,9,9,0,0,0,3-.16,6.86,6.86,0,0,0,2.86-1.42,5.86,5.86,0,0,0,2.2-4.59,6,6,0,0,0-.31-2.39,6.66,6.66,0,0,0-5.63-4.34,8.38,8.38,0,0,0-1.07-.09Zm84.27.47-3.3.38-3.27.38,0,.28.06.28.57.06c1.26.09,1.6.22,1.73.72,0,.15.29,2.33.57,4.87.5,4.6.49,4.62.38,4.78s-.52.44-1.29.6l-.69.16V489l0,.31,3.27-.38,3.3-.38,0-.28,0-.31H244c-1,0-1.45-.13-1.67-.47a40.61,40.61,0,0,1-.63-4.84c-.33-2.92-.5-4.76-.47-4.87.08-.4.42-.62,1.45-.85l.57-.13,0-.28,0-.31Zm-84,.31a3.55,3.55,0,0,1,1.19.19,3.61,3.61,0,0,1,1.54.94,2.93,2.93,0,0,1,.79,1,7.77,7.77,0,0,1,.66,4.47,5.39,5.39,0,0,1-2,4.09,3.68,3.68,0,0,1-1.48.66,5.72,5.72,0,0,1-2.17,0c-1.76-.39-2.92-1.77-3.3-3.93a13.36,13.36,0,0,1,.06-3.3,6.89,6.89,0,0,1,.72-2,4.13,4.13,0,0,1,2.89-2.08A6.16,6.16,0,0,1,159.21,476.55Zm75.85.72-2.39.19-2.39.19,0,.13a39.1,39.1,0,0,1-1.76,5.22c-.83,2.27-1.52,4.16-1.54,4.18s-1.14-2-2.48-4.43L222,478.28l-2.48.22-2.52.19,0,.28,0,.31h.44a2,2,0,0,1,1.7.75l.22.35.31,4c.4,4.8.41,5-.09,5.47a2.32,2.32,0,0,1-1.35.57l-.44.09,0,.28,0,.31,2.92-.22,3-.25,0-.28,0-.31h-.25a5.86,5.86,0,0,1-1.6-.38,1.65,1.65,0,0,1-.6-.75,33.35,33.35,0,0,1-.47-4.65c-.22-2.69-.35-4.4-.31-4.4s1.32,2.32,2.86,5.19l2.8,5.22.28,0,.25,0,1-2.74c2.48-6.55,3.13-8.17,3.21-8.18s.14.7.44,4.56c.26,3.34.32,4.66.28,4.81a1,1,0,0,1-.28.41c-.27.25-.51.32-1.35.44l-.53.09,0,.31,0,.28,3.24-.25,3.24-.25,0-.28,0-.31-.6,0c-.71,0-1.12-.2-1.32-.47s-.15-.37-.5-4.94l-.38-4.78.13-.25c.15-.31.37-.42,1.16-.6l.66-.13,0-.31,0-.28Zm-66.54.13,0,.28,0,.35.44.06a3.6,3.6,0,0,1,.75.35c.28.16.39.22.47.41s.08.28-.47,5.09l-.53,4.84-.19.16a1.88,1.88,0,0,1-1.35.25l-.5,0,0,.28,0,.31,3.68.38a24.63,24.63,0,0,0,4.31.35,8.73,8.73,0,0,0,4.31-1.26,5.42,5.42,0,0,0,2.23-3.05,8.83,8.83,0,0,0,.16-2.61c-.38-2.42-2.11-4.15-5.13-5.09a25.08,25.08,0,0,0-4.31-.63l-3.74-.44Zm4,1.19,1.42.16a5.56,5.56,0,0,1,2.64.72,5.12,5.12,0,0,1,2.61,4.15,9.74,9.74,0,0,1-.31,2.8,4.38,4.38,0,0,1-4.25,3.36,8.82,8.82,0,0,1-2.14-.22,1.45,1.45,0,0,1-1-.72l-.09-.28.57-5,.53-5Zm29.12.16v.6l.5.09a1.75,1.75,0,0,1,1.26.6l.13.25v3.93c0,4.37,0,4.4.38,5.09a5,5,0,0,0,3.87,2.11,8.08,8.08,0,0,0,3.87-.41,4.24,4.24,0,0,0,2.23-1.79,4.74,4.74,0,0,0,.35-.72c.05-.18.09-1.3.13-3.93.05-3.81.07-4.06.31-4.47s.69-.55,1.57-.66l.47-.06v-.6h-6v.6l.28,0a5.82,5.82,0,0,1,1.51.41.84.84,0,0,1,.44.38c.32.57.33.68.35,4.18a23.28,23.28,0,0,1-.06,3.71,3.14,3.14,0,0,1-2.52,2.33,7.8,7.8,0,0,1-2.3,0,3,3,0,0,1-2.23-1.38c-.4-.7-.4-.72-.38-5.13,0-3.88,0-3.94.13-4.09s.49-.31,1.19-.41l.6-.09v-.57l-3,0h-3.05Zm-14.28,0v.6l.28,0a2.73,2.73,0,0,1,1.82,1.07c.44.55,3,4.5,3.43,5.38l.22.44v1.76c0,1.65,0,1.76-.13,1.95-.21.35-.58.49-1.67.57l-.5,0v.6h6.86v-.6l-.35,0a5.89,5.89,0,0,1-1.51-.35,1,1,0,0,1-.35-.31c-.12-.2-.11-.3-.09-2l0-1.79.16-.28c.09-.17.59-1,1.13-1.79a20.63,20.63,0,0,1,3.18-4.09,3.8,3.8,0,0,1,1.23-.5l.28-.06v-.6h-5.09v.6l.6.06c.91.09,1.35.28,1.35.6s-.6,1.17-2.45,3.74a7.49,7.49,0,0,1-.91,1.13c-.15-.13-2.79-4.22-3.08-4.78-.12-.23-.11-.32-.06-.41s.54-.27,1.29-.31l.6,0v-.6h-6.26Z" style="fill:#34201f"/><path d="M163.4,54.24l-5,.09,1.13,52.26c.48-.46,1-.93,1.51-1.42a2.74,2.74,0,0,1,1.57-.72,2,2,0,0,1,1.79.75,1.41,1.41,0,0,1,.16.22L163.4,54.24Z" style="fill:#d6b14d;stroke:#000"/><path d="M154.78,96.46c-.81-6.35,1.12-11.54,1.77-15.28,1.94-.25,3,.91,2.53,4.43Z" style="fill:#492728;stroke:#000"/><path d="M221.28,424.76c-.86-26,16.16-53.4,5.71-77.27,0,0,2.37-6.24,2.66-9.52a41.48,41.48,0,0,0-.73-8c.94-4.09,2.09-7.08,3.53-13.34,2.15-9.39,5.74-21.45,6.34-33.91.76-16-2.32-31.16-5-47.5l-56.24-3.32c-9.22,7.44-15.26,35.35-19.35,55.41-3.37,16.51-3.09,34.28-3.53,49.72-2.61,3.57-4.36,6.39-4.47,11.66a55.74,55.74,0,0,0-5,15.84c-1.67,12.3-.14,27.09.74,40.43.69,10.37,1.34,18.75,1.34,18.75a47.75,47.75,0,0,0-5.93,4.29c-4.11,3.87-6.53,10.42-11.16,13.63-2.27,1.58-5.7,1.95-8.22,3.1a5,5,0,0,0-3,3.22c-.6,2.88,4.28,4.79,10.21,5.8,4.72.8,4.76-1.6,6.76-1.76s4.48.21,6.28-.71c7.12-3.66,5.8-6.85,9.67-8.81,2-1,4.15-.26,5.93-1.61A7.83,7.83,0,0,0,161,435a47.7,47.7,0,0,0-.51-7.92,26.49,26.49,0,0,0,1.88-4.17c.73-2.54-.29-5.28-.12-7.92.94-14.79,7-29,7.92-43.76.36-5.55-.83-16.67-.83-16.67,5.9-4.91,7.13-9.8,6.67-17.5,10.29-17.23,17.74-38.19,17.5-50.85L197,269.55l3,1.34s-1,39.75,2.68,58.94a118.51,118.51,0,0,0,3,12.05,19.08,19.08,0,0,1,1,7.15c-.79,12.6-7.21,17.55-5.32,33.7.46,3.91,2,8.11,2.93,13.27,1.87,9.87,3.77,23.57,3.77,23.57-3.57,4.57-.11,8.25.68,9.39a7,7,0,0,1,0,2.28c-.73,2.24-2.81,2.38-3.23,5-.84,5.28,4.92,5,6.81,7.67,1.66,2.35,1,3.45,2,5,1.14,1.75,1.84,2.56,4.81,3.16,1.24.79,2.45,2.3,3.81,2.45a15.08,15.08,0,0,0,13.6-5.73c1.61-5.47-1.68-5.22-4.75-8.33a28.14,28.14,0,0,1-6.68-9c-.7-1.34-3.22-5.35-3.79-6.69Z" style="fill:#492728;stroke:#000;stroke-width:0.9937831163406372px"/><path d="M172.88,247.65c-14.19,33.37-15.39,51.17-10,80.95-1.86.92-3.71-5.64-5.57-10.47-.57,4.66-.25,18.46,1.38,20.66,0,0-3.52,2.55-3.9,4.31a8.53,8.53,0,0,0,1.19,6.32c1.41,2.08,3.75,2.35,6.23,2.77a9.66,9.66,0,0,0,7.2-1.95c2.09-1.62,3.17-4.36,3.93-6.89,1-3.31-.23-7,.69-10.35,1.08-3.94,5.53-8.21,5.53-16.07V299.11c3.56,5.46,3.36,11.65,3,18,2-6.69,3.74-9,5.71-20.42l-4.59-.31-.31-1.64h-3.62l-5.32-2.61s-.12-15.53-.25-22.54c-.13-7.65.45-20.7.45-20.7ZM222.66,276l.35,3.55-2.14,1-.35,12.07s0,2-.72,2.48c-.85.64-5.61,1-5.61,1a9.26,9.26,0,0,1-2.78,1.6c-2.33.72-7.33-.16-7.33-.16C204.35,307,204,322.05,211,333c2.37,3.68,1.52,8.88,5,11.57a4,4,0,0,0,4.06.19,6.4,6.4,0,0,0,3.18-3.52,9.59,9.59,0,0,0,0-5.66c-.43-1.69-2-2.94-2.48-4.62a27.62,27.62,0,0,1-.35-6.38l2.48,2.45c5.8,5.71,7.52-13.11,10.25-20.85-2.36,3.91-4.48,8.1-8.84,10.63,7.38-13.91,10.55-25.64,11-40.75a33.62,33.62,0,0,1-6.42.82,49.9,49.9,0,0,1-6.16-.82Zm-17.95,49.59A46.63,46.63,0,0,0,206.2,334c1.14,4.67,4.19,10.2,4.59,15a27.33,27.33,0,0,1-1,7.89c-1.18,5.52-4.16,9.37-4.62,15a47.61,47.61,0,0,0,.69,10.53c1.3,9.17,3.23,17.69,4.53,26.85a39.59,39.59,0,0,1-.38,10.82c-.16,1.15-1.68,1.9-.91,4.56.21.73,1.13,1.05,1.54,1.7a5.79,5.79,0,0,1,1.26,2.92,6.82,6.82,0,0,1-1.54,3.55c-.7,1-2.61,1.71-2.86,2.92s.2,2.76,1.26,3.08c1.56.47,2.63-2.71,4.21-2.36s2,1.9,2.45,3.46c.45,1.74-.57,3.63-.16,5.38a7.54,7.54,0,0,0,2,3.71c.62.58,1.62.6,2.33,1.07,1.15.76,1.79,2.27,3.08,2.77.72.28,1.76.56,2.3,0,.71-.75.27-2.15-.16-3.08-.77-1.69-4-3.84-4-3.84s4.17,1.3,5.41,2.92c.83,1.09.91,4,.91,4,1.08.07,1.48.37,2.56-1.23a6.91,6.91,0,0,0-.55-3.08,19.76,19.76,0,0,0-3.24-3.08,12,12,0,0,1,3.9,1.88c1,.92,1.58,3.55,1.58,3.55,1.19,0,1.57-.36,1.6-1.56a14,14,0,0,0-1.7-3.08c-.88-1-2.15-2.17-2.15-2.17a36,36,0,0,1,3.21,1.77c1.11.73,2.54,3.61,2.54,3.61s.44-2.47,0-3.4c-1.39-2.94-4.57-4.61-6.69-7.07-2.82-3.26-4.1-7.59-6.6-11.1-.78-1.09-2.61-3.05-2.61-3.05s.38-8.21,1-12.26c1.28-8.66,3.83-17.07,5.53-25.66,1.36-6.83,2.94-14,3.18-20.94a35.23,35.23,0,0,0-1-8.71c-.81-3.66-3-10.25-3-10.25s2.94-6.42,3.18-9.87c.15-2.27-1.19-6.73-1.19-6.73l-1.19-.41a24.67,24.67,0,0,0-.57,4c0,1.54.89,3,.79,4.56-.18,2.62-3.18,8.49-3.18,8.49s1.62,14.27,1.57,21.92c0,5.67.27,11.72-1.16,17.2a25,25,0,0,1-1.79,4.12c.39-23-.91-29.36-2-41.67,0,0-4.39-1.05-5.91-2.58-1.06-1.07-1.39-2.7-1.79-4.15-.5-1.79-.1-2.41-.75-4.15a16,16,0,0,0-2-3.74A66.32,66.32,0,0,1,204.72,325.61ZM153,348.35c-8.36,9.59-5.64,50.41-3.08,75.94a61.75,61.75,0,0,0-7.64,5.19c-3.43,3.11-5.67,8-8.87,11.38a15.16,15.16,0,0,1-4,3c-2.44,1.34-6,.89-8.18,2.67a5.62,5.62,0,0,0-1.26,2.39,8.74,8.74,0,0,1,2.45-1.82,21.58,21.58,0,0,1,3.55-.53,16.16,16.16,0,0,0-3.46,1.57c-.53.41-1.21,1.08-1,1.73a1.43,1.43,0,0,0,1.6.91c.6-.19.35-1.3.82-1.73,1-1,4.12-1.79,4.12-1.79a13.17,13.17,0,0,0-3.33,2.48c-.29.42-.6,1.06-.35,1.51a2,2,0,0,0,2.42.79c.66-.36.12-1.56.57-2.17.83-1.15,3.36-1.79,3.36-1.79a7.8,7.8,0,0,0-2.2,2.23,2,2,0,0,0,.13,1.86c.56.86,1.51.87,2.52.69,1.89-.33,3-2.38,4.84-2.77,1.6-.33,3.37.27,4.87-.31,4.15-1.61,4.1-7.68,7.64-9.87,2-1.25,5.15-.19,6.95-1.42a7.16,7.16,0,0,0,2.77-4.5c.52-2.76-.72-7.26-.72-7.26,3.28-4.59,1.83-9,2.36-14.06.52-4.42,1.33-10.94,2.14-15.31,2-10.86,4.82-19.47,5.41-30.5.22-4.1-.35-12.33-.35-12.33l-3.43,1.38s-.29,3.41-1.16,4.87-2.38,1.59-3.3,2.64c-2.11,2.39-4.15,15.61-3.8,23.65.27,6.33,1.16,12.76,1.76,19.28-3.52-6.27-4.79-14.26-4.72-22.07.11-13,3.89-25.4,7.11-28.71,0,0-3.56-1.63-4.78-3.08A14.07,14.07,0,0,1,153,348.35Z" style="fill:#5b3132"/><path d="M160.82,352.94a14.5,14.5,0,0,1,.31,2.33c.15,1.82.2,4,.25,5.6.15,4.5-.86,9.18-.82,14.09,0,1.15.25,3.05.25,3.05,0,1.75,2.7,2.17,2.48-.28,0,0-.21-2-.22-2.8,0-4.52,1-9.23.82-14.15-.05-1.6-.09-3.78-.25-5.72a20.69,20.69,0,0,0-.35-2.64C162.75,353,160.56,352.13,160.82,352.94Z" style="fill:#e4be58;stroke:#000;stroke-width:0.9937831163406372px"/><path d="M149.85,347.53c-1,.35-1.55,1.13-1.26,2.77,5.8,2.66,13.56,7,24.94,3a1.59,1.59,0,0,0-1-2.86C162.19,354.1,155.86,350.29,149.85,347.53Z" style="fill:#e4be58;stroke:#000;stroke-width:0.9937831163406372px"/><path d="M219.87,350.77a14.5,14.5,0,0,0-.31,2.33c-.15,1.82-.2,4-.25,5.6-.15,4.5.86,9.18.82,14.09,0,1.15-.25,3.05-.25,3.05-.44,1.83-2.86,1.22-2.48-.28,0,0,.21-2,.22-2.8,0-4.52-1-9.23-.82-14.15.05-1.6.09-3.78.25-5.72a20.69,20.69,0,0,1,.35-2.64C217.92,350.89,220.12,350,219.87,350.77Z" style="fill:#e4be58;stroke:#000;stroke-width:0.9937831163406372px"/><path d="M227.52,346.71c-4.89,2.77-9.72,4.09-20.72.25a1.87,1.87,0,0,0-1,2.86c11.51,4,17.86,2.53,23.21-.5C229.35,348,229.08,347,227.52,346.71Z" style="fill:#e4be58;stroke:#000;stroke-width:0.9937831163406372px"/><path d="M163.15,351.93a2.26,2.26,0,0,0-.85-1.63,2.72,2.72,0,0,0-2.36-.79h0a2.9,2.9,0,0,0-1.73,1.23,8,8,0,0,0-1.19,2.89c-1.59,6.85.62,13.74,0,20.44a15.55,15.55,0,0,1-.57,2.36c-.25.82-.5,1.45-.5,1.45-.33,2.09,2,1.63,2.36.88,0,0,.26-.72.53-1.6a15,15,0,0,0,.66-2.83c.72-7.37-1.41-14.19,0-20.13.11-.47.84-2.34,1.43-2.33Z" style="fill:#e4be58;stroke:#000;stroke-width:0.9937831163406372px"/><path d="M217.69,349.13a2.77,2.77,0,0,1,.7-1,2.72,2.72,0,0,1,2.36-.79h0a2.9,2.9,0,0,1,1.73,1.23,8,8,0,0,1,1.19,2.89c1.59,6.85-.62,13.74,0,20.44a15.55,15.55,0,0,0,.57,2.36c.25.82.5,1.45.5,1.45.49,1.57-1.2,2.27-2.36.88,0,0-.26-.72-.53-1.6a15,15,0,0,1-.66-2.83c-.72-7.37,1.41-14.19,0-20.13-.48-2.06-1.6-2.51-3.56-2.89Z" style="fill:#e4be58;stroke:#000;stroke-width:0.9937831163406372px"/><path d="M231.48,443.66c3.18,1.54,4,4.88,2.74,7l.72.06C236.59,448.55,235.71,443.68,231.48,443.66Zm-2.23,1.64c3.18,1.54,4,4.88,2.74,7h.91C234.54,450.12,233.48,445.31,229.25,445.3Zm-106.22,1a3.46,3.46,0,0,0-2.92,1.6,3.3,3.3,0,0,0-.44,2.58c.14.47.76.6,1.29,1l.35-.44a2.13,2.13,0,0,1-.41-2.64,4.21,4.21,0,0,1,2.83-2A4.43,4.43,0,0,0,123,446.27Zm103.3.19c3.18,1.54,4,4.88,2.74,7l.85.13C231.56,451.41,230.56,446.47,226.32,446.46Zm-4.09.6c3.18,1.54,4,4.88,2.74,7l.85.53C227.47,452.41,226.47,447.07,222.23,447.06Zm-97.07,0a3.46,3.46,0,0,0-2.92,1.6,3.3,3.3,0,0,0-.44,2.58c.14.47.76.6,1.29,1l.35-.44a2.13,2.13,0,0,1-.41-2.64,4.21,4.21,0,0,1,2.83-2A4.43,4.43,0,0,0,125.16,447.09Zm2.58.82a3.51,3.51,0,0,0-3.36,2,3.7,3.7,0,0,0-.31,1.89c.09.72.6.8,1.48,1.26l.44-.22a2.11,2.11,0,0,1-.75-2.55A4.19,4.19,0,0,1,127.74,447.91Zm3.21.41a3.51,3.51,0,0,0-3.36,2,2.76,2.76,0,0,0,1,3.77l.57-.85a2.11,2.11,0,0,1-.75-2.55A4.19,4.19,0,0,1,130.95,448.31Z"/><path d="M179.34,239.78s-.86,4.07-1,6.14c-1.1,13.68.2,41.16.2,41.16.37,1.67-.39,3.31,6.14,1.84v2a1.35,1.35,0,0,0,1.43.61,39.74,39.74,0,0,1,6.35,0,14,14,0,0,0,3.48,1,15.39,15.39,0,0,0,3.89-.82s2.63,1.59,4.1,1.64a10.77,10.77,0,0,0,3.69-1.23s4.23,1.07,6.35.82a3,3,0,0,0,2.66-1.84l.2-13.72c1.67-.58,1.53-1.53,1.75-2.4l1.11-19.31,5.53-1.64-.2-12.7Z" style="fill:#961f06;stroke:#000;stroke-width:0.9937831163406372px"/><path d="M180.16,240.4l-.63,5.72.22,38.9s0,1.74.6,2.26a1.87,1.87,0,0,0,1.26.22c1,0,2-.79,3.05-.63a5.88,5.88,0,0,1,1.86,1V247.57l.82-4.72-2.45-1-1,5.13v37.67c.06.86-1.69.45-1.64-.19l-.41-36.26.82-6.95Zm9.21,2.86-.63,4.5.19,38.93c-.33,2-.05,2,.16,2.58,1.17,0,1.88-.43,3.55.69l-.19-42.2.19-3.68Zm5.25.38v5.53l.16,40.56,2.33,1.23,2.3-1.07-.13-45.19,2,.31.31,45.19,2.33.6,3.08-.91,1.76.79.38-15.91c.24-1.59.36-3.47,1.38-3.08l.31,19.43,2.33-.47.16-10.16,1.7-1.23-.16-8,2.14-2.48V252.41l2.48-6.32-2.92.16-1.26.31v7.86l-2,3.87-.16,18.8c.22,1.37-.12,2.31-1.54,2.45l-.16-21.89,2-5.09-.31-7.7-3.87-.16v18.68l-1.86,2,.16,3.87-.28,16.19s-.34,2-1.1,2c-1.17-.05-.6-2.77-.6-2.77l.13-20.66,1.1-3.68.31-16.67Z" style="fill:#ad2407"/><path d="M180.76,241.34l-.53,4.78h0l.22,38.9a5.39,5.39,0,0,0,.06.82,4,4,0,0,0,.28.91s.32,0,.79,0a4.48,4.48,0,0,0,1.29-.31,3.71,3.71,0,0,1,1.86-.28,2.83,2.83,0,0,1,1,.47V247.57a.71.71,0,0,1,0-.13l.72-4.15-1.16-.47-.82,4.12v37.67h0a1.26,1.26,0,0,1-.63,1.07,1.6,1.6,0,0,1-1,.09,2,2,0,0,1-.88-.35,1.25,1.25,0,0,1-.5-1h0l-.41-36.26,0-.09.75-6.38-1.1-.35Zm9.37,3.08-.44,3.33.19,38.93a.93.93,0,0,1,0,.16,5.52,5.52,0,0,0-.13,1.48,5,5,0,0,1,1-.06,5.69,5.69,0,0,1,.94.35l-.19-40.85,0-.06.16-2.89Zm5.57.28v4.47l.16,39.9,1.29.69,1.19-.57-.13-44.5Zm6.6,0a1.08,1.08,0,0,1,0,.31l.31,44.34,1.23.31,2.8-.82a1.08,1.08,0,0,1,.75.06l.28.13,0-1.67a2.3,2.3,0,0,1-.19.38,1.72,1.72,0,0,1-1.42.72,1.86,1.86,0,0,1-1.51-1.1,3.34,3.34,0,0,1-.25-1.35,8.66,8.66,0,0,1,.16-1.6l.13-20.44a1.08,1.08,0,0,1,0-.31l1.07-3.58L206,244.7H202.3Zm8.05,1.1v17.58a1.08,1.08,0,0,1-.28.72l-1.54,1.67.13,3.43s0,0,0,.06l-.06,2.74a2.12,2.12,0,0,1,.57-1,1.79,1.79,0,0,1,1.32-.25l-.09-13.08a1.08,1.08,0,0,1,.06-.41l1.95-4.91-.28-6.45-1.76-.09Zm7.48,1.45-1.13.06h-.09l-.25.06V251l1.48-3.77Zm-1.92,8.33-1.54,3-.09,11.67,1.64-1.92V255.58Zm-3.68,24.87a3.3,3.3,0,0,1-.5.16l.13,9.18.22-.06Z" style="fill:#c32807"/><path d="M177.33,200.46c-1.43,1-4.15,15.05.3,18.06a22.18,22.18,0,0,0-4.86,17.61,5.37,5.37,0,0,0,2.54,3.69c9.15,6.6,34.32,8.58,50.58,6.78,7.53-5.58,12.75-14,7.59-22.46,3.18-3.09,3.14-15.42-.46-15.78Z" style="fill:#961f06;stroke:#000"/><path d="M221.64,250.09c-4.51,4.55-6.14,9.84-7.89,13.2,1.38,1.38,2.92,1.09,4.7-2Z" style="fill:#492728;stroke:#000;stroke-width:0.9937831163406372px"/><path d="M233.8,213.7c.12-3.71,1.93-6.42,3.53-9.12,1.92-3.23,3-7.86,3.63-11.92,2,4,4.14,10.59,10.53,18.67,0,0-3.43,3.51-4.21,4.63-6.83,9.71-21.2,26.25-21.2,26.25-6.79,6.42-10,14.45-8.85,25.41.24,2.75,2,4.49,4.21,2.81.71,3,3.62,3.45,5.19,1.26,1.71,1.82,4.16,1.65,5-1,2.91,2.31,7-.74,5.76-4.46,0,0-1.86.91-2.56.6-1.62-.71-1.28-3.42-1.24-4.78.09-3.14,3.15-6.12,3.43-9.25a12.75,12.75,0,0,0-.77-4.24s13.78-7.84,20.14-12.92c5.79-4.62,15-10.36,15.39-19.38a15.08,15.08,0,0,0-.93-4.2c-2.23-5.47-12.6-33.34-11.94-40.06.89-9.14-2.7-16.32-11.92-20.09-6.82-1.44-17.24.28-23.49-8.15-2-2.72.2-13.7.83-18.2l-30.68,5.26c-4.06.7-.54,8.94-2.3,11.64-.83,1.28-3.31,1.54-4.83,1.42-4.18-.33-8.55-1.48-13.6-.81a13.72,13.72,0,0,0-8.86,4.79,12.45,12.45,0,0,0-13.58.26s.92-3.77,1.17-5.61c.71-5.21-1-11.87-2-18.39a52.26,52.26,0,0,1-.3-12.45c5.3.77,7.43-2.69,11.68-6.54a2.27,2.27,0,0,1,3.39,0c.73.85.35,3,.35,3,0,.39,3.73-.21,3.84-4.28a4.17,4.17,0,0,0-1.25-2.63c2.46-1.27,3-3.27.06-5.79,2.21-1.38,2.39-3.94-.32-5.56,2.4-2.48-.34-5-4-4.62-2,.22-8.57,2.58-9.4,3.47l-9.62,10.31c-1.67,1.79-5.84,7.94-6.24,10.37-1.79,10.95-4.65,21.9-5.44,32.85a64.34,64.34,0,0,0,.58,15.37c1.42,2.86,4.32,5.33,8.08,7.25,7.63,3.88,22.12,5.47,28.54,3.23,1,5.67,2.53,9.57,6.53,13.35-1.9,9.4.95,17.65,2,22.71,9.06,6.66,29.91,13.13,55.73,9.41Z" style="fill:#492728;stroke:#000;stroke-width:0.9937831163406372px"/><path d="M163.49,86.31c-2.35.15-8.23,2.61-9,3.46L145,100.43c-1.63,1.82-4.95,7.92-5.35,10.35-1.79,10.95-3.55,20.43-4.34,31.38-.37,5.12.43,7,1.29,12.17,3.65,7.24,22.23,13.61,29.84,6.51,1-1.23,1.78-2.71,3.43-2a6.52,6.52,0,0,1,2.48,2.48c-.15,5.22,2.32,16.45,13.84,21.29-1.5,2.4-6.55,2.28-6.89,2.83-.91,6.91.92,12,1.76,16.25,8.91,5.32,21.27,10.92,47.33,10.16,0-3.82,2-5,3.93-9.15,1.25-2.69,2.19-4.3,2.58-6.67-2.93-.12-3.47,4.3-7.89,3.62a9.5,9.5,0,0,0,1.73-5.38c-7.07-2.15-11.21-6.15-8.11-6.16,13.16-.05,16.77-6,18.14-18.11.1-.9,1.87-2.24,2.8-2.42,1.66-.32,2.94,1.43,2.8,4.28-.78,15.21-2.74,16.1,9.56,40.06,0,0-4.56,3.5-5.35,4.62-6.83,9.71-21.6,27-21.6,27-6.79,6.42-9.37,11-8.18,21.92.24,2.75,1.12,4.3,2.86.22,1.21,4.35,2.58,4.82,4.15.75,1.37,4.56,4,3.54,4-.28,2,5.37,8,4.36,7.09,1a5.61,5.61,0,0,1-2.55.26c-1.62-.71-2.95-4.08-2.91-5.45.09-3.14,3.15-6.11,3.43-9.24.15-1.7-2.48-6.13-2.48-6.13s14.11-8,20.38-13.14c6.91-5.71,15.2-10.92,15.6-19.94a13.63,13.63,0,0,0-.25-3c-2.23-5.47-11.35-31.89-10.69-38.62.89-9.14-3.52-15.89-13.27-18-3.34-.71-12.29,4.47-14.91,3.71,0-2.68,6.92-5.85,6.29-5.85-1.77,0-11.3,1.88-14.28-7.58a23.68,23.68,0,0,0-5.57,4.72c-2.11,2.76-4.85,8.58-8.05,9-2.68.37-3.75-.74-6.22-2.22s-6.61-2.57-8.87-4.41c-1.79-1.45-3.18-5.39-3.18-5.39-.88.47-2.08-.72-2.8-.78-4.18-.33-8.53-1.49-13.58-.82-3.14.42-7.28,3.57-8.08,7.23-2.3-3.5-9.11-5-13.27-2.2-2.15,1.44-3,4.86-4.06,6.82-.59,1.15-1.83,1.26-2.52,1.76a12.81,12.81,0,0,1,.57-5c1.21-4,3.69-9.12,3.84-10.19.71-5.21-1.43-13.69-2.42-20.22s-1.29-13.68-1.29-13.68c5.3.77,10.65-2.71,14.91-6.57.84-.76,2.68-.41,4.21.28,1.14.52,2.14,3.87,2.14,3.87s1.31-1.37.06-3.86c-1-1.94-4.6-3.14-4.6-3.14,4.72.75,5.6-.62,5.8-1.51s-2.74-2.14-5.85-2.82c3.28-.13,5.69-1.14,5.49-2.16-.38-1.93-2.81-2-5.64-2.8,3.59-1.16,4-1.94,3.92-2.6s-.75-1.1-2.22-1.24a2.55,2.55,0,0,0-.41,0Zm56.26,59.75a22.91,22.91,0,0,0,1.95,6c.78,1.33,2.94,1.76,3.74,3.24,0,0-1.19,1.28-1.82,1.35-1.11.13-3.33.19-4.28-.41a4.38,4.38,0,0,1-2-2.48,9.86,9.86,0,0,1-.13-4.15C217.48,148.5,219.75,146.06,219.75,146.06Zm-31.79.57s1.11,0,1.07.82c-.11,2.56,4.49,6.46,5.82,6.38s2.81,1.17,3.05,1.32a20.65,20.65,0,0,1-2.39,1.19c-1.08.31-3.74-.37-4.75-.88a5.2,5.2,0,0,1-2.17-2.48c-.39-.82-1.48-4.59-1.26-5.47A2.76,2.76,0,0,1,188,146.63Z" style="fill:#5b3132"/><path d="M219.34,146.22a11.37,11.37,0,0,0,.22,5.84,5.39,5.39,0,0,0,2,2.7,5.51,5.51,0,0,0,4,.66c.36-.34.52-.67-.16-1a4.42,4.42,0,0,1-3.27-.5,4.37,4.37,0,0,1-1.67-2.2,12.19,12.19,0,0,1-.44-5.57c-.46-.89-.52-.15-.72.07Zm-67.1.37c-1.71.63-6.77,5.15-5.06,8.8.57-3.91,2.44-6.49,5.47-7.89Zm37.89,6.79a7,7,0,0,0,4.12,1.57c1.38.11,2-.72.69-1.1-.24,0-.53.1-.6.09a6.58,6.58,0,0,1-3.55-1.32A11.36,11.36,0,0,1,189,150C188.4,150.79,189.09,152.46,190.13,153.39Zm53.39-2.33a16.18,16.18,0,0,0-2.08.13,14.46,14.46,0,0,0-6.67,2.39l.6.82a13.8,13.8,0,0,1,6.19-2.2,12.23,12.23,0,0,1,7.64,1.35l.5-.88A12.31,12.31,0,0,0,243.52,151.06ZM168.4,160.3l.69,8v0c1,5.72,2.62,9.77,6.7,13.62v0l0,0a5.68,5.68,0,0,0,4.12,1.35c-.89-1.1-2.58-1.46-3.49-2.14l0,0c-3.88-3.68-5.33-7.4-6.32-13v0C169.32,166.26,170.1,159.74,168.4,160.3Zm73.71,10.22c-1.48-.42-.55,6.86-2,11.57h-.13c0,.15,0,.27,0,.41a14,14,0,0,1-1.26,2.74c-4.3,6.31-11.1,4.11-11.26,5.82,5.82.55,9.81-1.52,12.11-5.28.11-.18.21-.38.31-.57a62.19,62.19,0,0,0,1.19,8.65l1-.16c-1.62-9-1.12-8.92-1.1-11a32.5,32.5,0,0,0,1.16-12.14Z"/><path d="M203.66,165.86c-.39.35-.49.67-.57,1.51a2,2,0,0,0,.85,2c.59.25,1.19.13.85-.59-.18-.37-.73-.61-.67-1.26a2.54,2.54,0,0,1,.37-1.18c.45-.91-.64-.59-.82-.42Z" style="fill:#34201f"/><path d="M207.85,172.29c-.39.35-.49.67-.57,1.51a2,2,0,0,0,.85,2c.59.25,1.19.13.85-.59-.18-.37-.73-.61-.67-1.26a2.54,2.54,0,0,1,.37-1.18c.45-.91-.64-.59-.82-.42Z" style="fill:#34201f"/><path d="M201.84,174.25c-.39.35-.49.67-.57,1.51a2,2,0,0,0,.85,2c.59.25,1.19.13.85-.59-.18-.37-.73-.61-.67-1.26a2.54,2.54,0,0,1,.37-1.18c.45-.91-.64-.59-.82-.42Z" style="fill:#34201f"/><path d="M197.93,169.92c-.39.35-.49.67-.57,1.51a2,2,0,0,0,.85,2c.59.25,1.19.13.85-.59-.18-.37-.73-.61-.67-1.26a2.54,2.54,0,0,1,.37-1.18c.45-.91-.64-.59-.82-.42Z" style="fill:#34201f"/><path d="M211.06,165.31c-.39.35-.49.67-.57,1.51a2,2,0,0,0,.85,2c.59.25,1.19.13.85-.59-.18-.37-.73-.61-.67-1.26a2.54,2.54,0,0,1,.37-1.18c.45-.91-.64-.59-.82-.42Z" style="fill:#34201f"/><path d="M210.09,177.74c-.39.35-.49.67-.57,1.51a2,2,0,0,0,.85,2c.59.25,1.19.13.85-.59-.18-.37-.73-.61-.67-1.26a2.54,2.54,0,0,1,.37-1.18c.45-.91-.64-.59-.82-.42Z" style="fill:#34201f"/><path d="M203.8,181.37c-.39.35-.49.67-.57,1.51a2,2,0,0,0,.85,2c.59.25,1.19.13.85-.59-.18-.37-.73-.61-.67-1.26a2.54,2.54,0,0,1,.37-1.18c.45-.91-.64-.59-.82-.42Z" style="fill:#34201f"/><path d="M197.65,180.12c-.39.35-.49.67-.57,1.51a2,2,0,0,0,.85,2c.59.25,1.19.13.85-.59-.18-.37-.73-.61-.67-1.26a2.54,2.54,0,0,1,.37-1.18c.45-.91-.64-.59-.82-.42Z" style="fill:#34201f"/><path d="M191.64,180.68c-.39.35-.49.67-.57,1.51a2,2,0,0,0,.85,2c.59.25,1.19.13.85-.59-.18-.37-.73-.61-.67-1.26a2.54,2.54,0,0,1,.37-1.18c.45-.91-.64-.59-.82-.42Z" style="fill:#34201f"/><path d="M215.4,182.21c-.39.35-.49.67-.57,1.51a2,2,0,0,0,.85,2c.59.25,1.19.13.85-.59-.18-.37-.73-.61-.67-1.26a2.54,2.54,0,0,1,.37-1.18c.45-.91-.64-.59-.82-.42Z" style="fill:#34201f"/><path d="M202.12,186.82c-.39.35-.49.67-.57,1.51a2,2,0,0,0,.85,2c.59.25,1.19.13.85-.59-.18-.37-.73-.61-.67-1.26a2.54,2.54,0,0,1,.37-1.18c.45-.91-.64-.59-.82-.42Z" style="fill:#34201f"/><path d="M202,207.73a3.32,3.32,0,0,1,.83,2,2.68,2.68,0,0,1-.77,2.36c-.59.25-1.19.13-.85-.59a3.34,3.34,0,0,0,.6-1.67,5,5,0,0,0-.63-1.67C200.7,207.24,201.79,207.56,202,207.73Z"/><path d="M228.71,184.58a2.42,2.42,0,0,1-2,1.35,3.27,3.27,0,0,1-2.33-1.29c-.25-.59-.13-1.19.59-.85.37.18.66,1.15,1.64,1.11,1.27,0,1.31-1,1.7-1.15.91-.45.5.59.42.82Z"/><path d="M181.82,179.17a2.42,2.42,0,0,1-2.38.51,3.27,3.27,0,0,1-1.69-2.05c0-.64.31-1.15.86-.57.28.3.2,1.31,1.12,1.64,1.19.43,1.57-.41,2-.45,1-.08.25.73.09.92Z"/><path d="M243.72,199.62c6.17-.26,17.49-3.89,19.36-9.88,7.22,2.51,8.47,10.63,4.83,14.12a26.3,26.3,0,0,1-16.67,7.59C244.85,212.13,240,204.08,243.72,199.62Z" style="fill:#d6b14d;stroke:#000;stroke-width:0.9937831163406372px"/><path d="M263.62,191.62c-1.63,2.87-4.7,4.95-8.11,6.45a35.21,35.21,0,0,1-10.94,2.8,5.13,5.13,0,0,0,.31,5.53c1.28,2.05,3.3,2.61,5.78,2.35a24.51,24.51,0,0,0,15.75-7.17C268.84,199.26,268.68,194.22,263.62,191.62Z" style="fill:#e4be58"/><path d="M264,193.34a20,20,0,0,1-8,5.63,36.45,36.45,0,0,1-10.44,2.77,3.77,3.77,0,0,0,.47,3.43c1,1.65,2.35,1.72,4.18,1.53,6.15-.65,10.33-2.41,14.87-6.76C266.49,198.62,267,195.75,264,193.34Z" style="fill:#f6cd5e"/><path d="M162.58,104.46a2.74,2.74,0,0,0-1.57.72c-.53.48-1,1-1.51,1.42l7.3,332c.83,1.19,3.93,1.68,5-.09l-7.3-333a1.41,1.41,0,0,0-.16-.22A2,2,0,0,0,162.58,104.46Z" style="fill:#d6b14d;stroke:#000"/><path d="M214,223.17c-3.95.85-26.84,1.22-35.73-7.48-3.28-4-1.26-9.27-1.16-9.52,11.21,7.29,32.1,11.66,55.56,10.4,1.25,3.47-.25,4.65-1.41,6.11-2.48,1.83-8.13,1.23-12.56.81-1.25.23-2.35.51.63,2.35a33.66,33.66,0,0,1,6.58,0c1.86.41,4,.49,5,1.73s1.25,1.82,0,6.08-13.09,7.61-24.44,3.93c-.26.51-.33,1.47,2,2.66,5.4,1.44,10.72,1.42,16.44.78l-4.29,3.76c-8.33.27-18.86.55-28.5-1-6.85-1.1-13-3.31-16.88-7.86-1.37-4.51-.16-4.62.19-5.7,7.07,6.1,14.54,7.49,23.64,7.83,1.42,0,2.84-.4,2.66-1.41-9.48-.8-18.06-2.19-25.37-8-1-1.48-.87-2.47,0-3.13,16,8.37,31.29,8.48,49.48,8.3,2.63-.68,2.66-2.44,2-2.82-19.66,2.08-34.91-.25-50.73-6.73-.29-1.71.05-2.39,1.57-3.29,7.16,3.08,36.13,7.23,35.23,2.19Z" style="fill:#ad2407"/><path d="M178.52,208.42a7.55,7.55,0,0,0-.09,1.26,8.1,8.1,0,0,0,1.79,4.94c5.21,3.57,12.84,5.61,19.56,6.6a86.64,86.64,0,0,0,9.06.85,37,37,0,0,0,5-.06,1.22,1.22,0,0,1,1.32.94,2.39,2.39,0,0,1-.35,1.7,3.18,3.18,0,0,1-1.26,1,10.14,10.14,0,0,1-3.55.88,58.28,58.28,0,0,1-10.72-.28c-7.77-.77-16.06-2.41-20.22-4a3.44,3.44,0,0,0-.69.57,3.72,3.72,0,0,0,0,.57c15.45,6.08,31.47,7.24,49.5,6.45a1.18,1.18,0,0,1,.66.16,2.11,2.11,0,0,1,.69,2.77,4.27,4.27,0,0,1-3,2.2,1.18,1.18,0,0,1-.28,0c-17.78.18-33,0-48.9-7.89a2.18,2.18,0,0,0,.31.75c7,5.45,15.22,6.82,24.56,7.61a1.21,1.21,0,0,1,1.07.94,5.27,5.27,0,0,1-.38,2.51,2.47,2.47,0,0,1-1.07.79,6.41,6.41,0,0,1-2.36.44h-.06c-8.66-.32-18.2-2.71-23.08-8.14a9.75,9.75,0,0,0,.57,3c3.66,4.09,9.38,6.24,16,7.3a151,151,0,0,0,27.67,1.35l1.45-1.26a41.16,41.16,0,0,1-13.46-1l-.22-.09a5.43,5.43,0,0,1-2.52-2.08,2.46,2.46,0,0,1,0-2.17,1.21,1.21,0,0,1,1.29-.63,41.52,41.52,0,0,0,15.53.28,21.25,21.25,0,0,0,5.38-1.64,4.5,4.5,0,0,0,2.17-1.79,11.14,11.14,0,0,0,.79-3.49,2,2,0,0,0-.6-1.45,3,3,0,0,0-1.57-.79c-.78-.2-1.76-.34-2.77-.57a20.39,20.39,0,0,0-3.68-.13c-1.38,0-2.55.16-2.55.16a1.18,1.18,0,0,1-.72-.16,9.82,9.82,0,0,1-1.73-1.29,1.82,1.82,0,0,1-.69-1.7,1.58,1.58,0,0,1,.53-.91,2.05,2.05,0,0,1,.63-.35,5.61,5.61,0,0,1,1-.28h.22a65.86,65.86,0,0,0,10.79-.6,7.3,7.3,0,0,0,1.16-1.6,3.65,3.65,0,0,0,0-2.11c-21.54,2.47-43.55-3.32-52.07-9.59Z" style="fill:#c32807"/><path d="M195.49,138.07l-3,.22c.42,6.37,1.14,10.72,2.89,14.43,1.65,3.49,4.3,6.3,8.08,9.53a11.93,11.93,0,0,0-2.48,2.83,6.09,6.09,0,0,0-.47,5.28,5.3,5.3,0,0,0,4.59,3.49,5.61,5.61,0,0,0,4.91-2.61,6.22,6.22,0,0,0,.06-6.07,11.21,11.21,0,0,0-1.92-2.8c3.54-2.61,6.79-5,9.43-8.05,2.51-2.91,5.11-5.8,6.28-10.61.38-2.61.18-4.53-1-5.53-1,5.93-4.83,11.07-7.5,14.16-2.47,2.86-5.74,5.21-9.5,8-3.92-3.29-6.27-5.8-7.74-8.9S195.89,144.31,195.49,138.07Zm10.35,26.29a8.41,8.41,0,0,1,1.48,2.11,3.23,3.23,0,0,1,.16,3.11,2.63,2.63,0,0,1-2.26,1.26,2.06,2.06,0,0,1-1.92-1.57,2.75,2.75,0,0,1,.31-2.67A11.76,11.76,0,0,1,205.83,164.36Z" style="fill:#e4be58;stroke:#000;stroke-width:0.9937831163406372px"/><path d="M206.13,160l-.66.75c.83.71,1.6,1.39,2.33,2l.66-.75C207.73,161.34,207,160.67,206.13,160Zm-2.33,1.95-.75.69a9.11,9.11,0,0,0,1.1.85,7.86,7.86,0,0,1,1.29,1.23l.79-.63a8.61,8.61,0,0,0-1.48-1.38Z"/><path d="M157.51,62.83,156,60.76,157.36,58c-2.65-3.92-4.09-11.2-4.49-16.18C151.64,26.56,159,.5,159,.5s9,25.55,8.71,40.85c-.09,5-1.08,12.35-3.49,16.42l1.51,2.69-1.36,2.16-3.45.11Z" style="fill:#d3c6b0;stroke:#000;stroke-width:0.9937831163406372px"/><path d="M159,5c-3.26,15.64-9.41,43.07.62,50.4Z" style="fill:#ece6dc"/><path d="M219.26,85.82c.54-5.49,8.75-24.23,15.57-28.4a8.43,8.43,0,0,0-6,1.22C224.06,61.9,217.63,82.35,219.26,85.82Z" style="fill:#f6cd5e;stroke:#000"/><path d="M213.72,81.11c3.07-8.6,1.78-32.52-2.6-38.52a9.89,9.89,0,0,1,7.09,4.77C222.19,54.64,218.25,76.63,213.72,81.11Z" style="fill:#f6cd5e;stroke:#000"/><path d="M213.91,79.33c-.14-1.27-.84-1.72-.83-2.84.14-13-5-15.23-11.5-17.12,0,0,5.4-2.41,9.17.67C217.59,65.64,214.65,73.36,213.91,79.33Z" style="fill:#f6cd5e;stroke:#000"/><path d="M215,80.4c3.24-5.07,4.54-25.7,1.76-32.58A8.67,8.67,0,0,1,222.18,53c2.61,7-3,23.94-7.21,27.41Z" style="fill:#f6cd5e;stroke:#000"/><path d="M215.35,81.84c4.22-6,8.53-24.26,6.41-32,0,0,2.77,1.35,3.69,5.66C227,62.85,220.06,79,215.35,81.84Z" style="fill:#f6cd5e;stroke:#000"/><path d="M222.37,82.91c-.5-5.75,7.07-14.15,11.8-16.59a8.43,8.43,0,0,0-6,1.22C223.4,70.8,220.74,79.44,222.37,82.91Z" style="fill:#f6cd5e;stroke:#000"/><path d="M202.22,88.75s-2.69-1.77-2.66-3.87a8.64,8.64,0,0,1,3.87-6.77,19.91,19.91,0,0,1,10.64-3.63c5.49,0,11.21.49,15.72,3.63s7.88,6.26,9.19,11.61c.44,1.82-.09,6.24-1.21,7.74-1.53,2.06-6.29,2.9-6.29,2.9Z" style="fill:#1a1a1a;stroke:#000"/><path d="M214.68,92a19,19,0,0,0-21.43,8.39,24,24,0,0,0-3.16,12.3c0,2.94,1.71,3,1.74,4.55s-1.39,3.25-1.88,4.88a6.32,6.32,0,0,0,.67,6.16c.28,1.91.12,5,.59,6.69,1.11,4.06,1.52,7.75,5,10.06,2.4,1.58,5.83,1.43,8.6.65,6.35-1.78,10.36-5.06,14.45-10.23,1.41-1.79,2.08-7.31,2.08-7.31,1.39,1.79,2.06,2.28,3.2,1.77,1.63-.72,5.12-6.76,6.26-11.64.49-2.68-.05-4.75-1.08-5.17-1.4-.58-1.69-.46-3.44.83C230.54,102.36,223,94.25,214.68,92Z" style="fill:#492728;stroke:#000"/><path d="M205.2,118.21c.55,5.64,10.83,3.46,7-1.9Z" style="fill:#613335"/><path d="M194.36,114.21a2.5,2.5,0,0,0-2.22,2.44l5.91,1.56C198,115.53,196.05,114,194.36,114.21Z" style="fill:none"/><path d="M208.69,114.49a3.5,3.5,0,0,0-3.69,3.76l7.91-1.16c-.49-1.79-2.78-2.53-4.22-2.6Z" style="fill:none"/><path d="M199.63,131l-3.5,1.69s.66,1.49,1.34,1.78,1.27-.28,1.91-.25c1,0,2,1,2.91.63s1.53-2.34,1.53-2.34Z" style="fill:#713b3d"/><path d="M197.76,118.31c-2,3.11-5.77,2.89-5.17-.83Z" style="fill:#613335"/><path d="M192.52,116.69c0-2.32,4.39-2.2,5.35,1.51C195,119.61,192.49,118.94,192.52,116.69Z" style="fill:#ece6dc;stroke:#34201f;stroke-width:0.800000011920929px"/><path d="M212.41,117.25c-2.56-3-6.76-1.5-7,.81C205.17,119.47,210.47,121,212.41,117.25Z" style="fill:#ece6dc;stroke:#34201f;stroke-width:0.800000011920929px"/><path d="M207.38,86.28a33.54,33.54,0,0,0-3.56.22c-10.08,1.13-15.74,9.82-13.28,21.06a3.49,3.49,0,0,1,1.69-2.06c2.95-1.8,3.83.66,7.81.91,6.11.38,8.4-1.83,11.41-1.69,2.65.13,3.77,1.06,4.2,2.36.34,1-.29,2.84.55,4.21a23.78,23.78,0,0,1,3,6.78c.77,2.21.91,3.68-.12,5.78-.5,1-5.41,4.57-6.16,6.06-1.14,2.27-.67,4.84-3.22,5.13-2.29.25-2.23-4.44-3.06-3-1.65,2.91-.6,2.78-1.69,3.63a3.24,3.24,0,0,1-1.84.56c-1.15,0-2.57-.61-3.87-.75s-2.34.11-3.06,0c-1.47-.16-2.65-3.14-4-4.5a19.31,19.31,0,0,1-2.09-3.91c-.32,2,.72,5.4.78,7.44-.23,1.45-1.34,3.83-1.22,5,.33,3.1.66,3.22,2,5.34.75,1.16,3.31,2.79,4.84,4a24.31,24.31,0,0,0,4.63,2.53,24,24,0,0,0,5.22-1.06c1.46-.55,2.83-1.87,4.25-2.53,3.28-1.52,5.52-1.39,7.72-4.44a29.18,29.18,0,0,0,4.13-7.5,11.61,11.61,0,0,0,.84-5.22,7.43,7.43,0,0,1-.81-4.75,8,8,0,0,1,3.47-5.06c1.36,1.21,4,.53,4,.53a16.43,16.43,0,0,0,6.56-10.28c1.27-7-2.2-14.22-5.56-16.47-8-5.37-15.35-8.46-23.56-8.41Z" style="fill:#1a1a1a;stroke:#000"/><path d="M195.55,129.09c-3.36.28-5.48,3-5.37,4.23.2,2.26,1.87,1.63,3.11.33.49-.51,3.2.21,5-.68l1.41-.1c2.53,1.43,3.5,1.09,5.06,1.4,1.25.25,1.43.89,3.19,1.32,2.42.58,2.47-2.37.41-4.6-1.37-1.48-4.48-1.83-4.63-2.73-.61,1.16.13.69-1,.83-1.32,0-4.76.92-6.08.89-.57,0-1.12-.89-1.12-.89Z" style="fill:#1a1a1a;stroke:#000"/><path d="M192.07,108.2c-.89,1-.44,2.8-.44,2.8,3.41-1.59,5.61.35,8,3.13l-.56,1.59-.53,2.84-.28,3.84-3.12,4.44c.23,2,3.62,1.45,4.19.63.33-1.27,2.74-1.3,3.75-.69a2.35,2.35,0,0,0-1.25-2.12,6,6,0,0,0-2.59-.06c1.7-2.67,1.8-8.35,2.06-10.66h0c5.2-4.76,9.13-3.31,14.09-.84a13.22,13.22,0,0,0-.72-1.62,8.71,8.71,0,0,0-3.18-3.47c-1.21-.82-.85-.75-2.3-1s-7.77,1.89-9.39,1.76c-2.24-.18-4.3-2.6-6.21-1.87-.92.35-.84.54-1.51,1.27Z" style="fill:none"/><path d="M214.67,118.73a5,5,0,0,1-4.55,3.62,6.87,6.87,0,0,1-6.07-2.19c-1.88,4.18,2.64,6.46,6.28,6.62,5.34.24,7.92-7,4.35-8.05Z" style="fill:none"/><path d="M192.1,120.38c-1.45,2.1-2.14,4.44,0,6.15.67.21,1.25.36,1.44-.31.66-1.94,2.9-3.71,3.19-5.34C194.73,121.11,193.81,121.67,192.1,120.38Z" style="fill:#613335"/><path d="M195.89,116.91a1.35,1.35,0,1,1-1.35-1.35A1.35,1.35,0,0,1,195.89,116.91Z"/><path d="M210,117.46a1.55,1.55,0,1,1-1.55-1.55A1.55,1.55,0,0,1,210,117.46Z"/><path d="M199.19,115.37l-1,0c.12,2.6-.21,5.72-1.31,7.47a12.94,12.94,0,0,1-1.06,1.31,7.77,7.77,0,0,0-1.12,1.5,3.26,3.26,0,0,0,0,2.91,3.36,3.36,0,0,0,2.75,1.53c1.95.26,3.49-.95,5-1.37a4.11,4.11,0,0,1,.69-.06c.3,0,.79,0,1-.37.62-1.16-.38-3.6-1.36-3.4,0,0,.41,1.31.51,1.49a2.19,2.19,0,0,1,.19.44,1.38,1.38,0,0,1-.06.78s-.12.05-.34.06a3.58,3.58,0,0,0-.91.09c-1.77.5-3.16,1.53-4.59,1.34a2.38,2.38,0,0,1-2-1,2.42,2.42,0,0,1,0-2,7.6,7.6,0,0,1,1-1.28,12.37,12.37,0,0,0,1.16-1.44c1.32-2.11,1.6-5.32,1.47-8Z" style="fill:#2d1919"/><path d="M191.64,112.35a2.32,2.32,0,0,0-1.55.78l.62,1.13a7.16,7.16,0,0,1,3.68-.66c2.16.23,4.52,3.21,4.76,2.15l.15-.65a7.45,7.45,0,0,0-4.59-2.94A11.32,11.32,0,0,0,191.64,112.35Z"/><path d="M208.91,112.31a8.66,8.66,0,0,0-6.66,2.59l.26.58c.57,1.29,2.73-1.27,6.4-1.58,3.35-.28,5.87.91,6.38.09a12.2,12.2,0,0,0-6.37-1.69Z"/></svg>