<svg xmlns="http://www.w3.org/2000/svg" xmlns:xlink="http://www.w3.org/1999/xlink" viewBox="0 0 1164.95 1295.25"><defs><linearGradient id="a" x1="599.81" y1="1077.05" x2="599.81" y2="1047.36" gradientTransform="matrix(8.78, 0, 0, -8.78, -4619.24, 10094.81)" gradientUnits="userSpaceOnUse"><stop offset="0"/><stop offset="1" stop-opacity="0"/></linearGradient><linearGradient id="b" x1="284.25" y1="683.9" x2="380.17" y2="805.89" gradientTransform="matrix(1, 0, 0, -1, 174.96, 1263.2)" gradientUnits="userSpaceOnUse"><stop offset="0"/><stop offset="0.5" stop-opacity="0"/><stop offset="1"/></linearGradient><linearGradient id="c" x1="448.24" y1="683.9" x2="544.17" y2="805.89" gradientTransform="translate(1152.96 1263.2) rotate(180)" xlink:href="#b"/><linearGradient id="d" x1="216.5" y1="548.64" x2="198.8" y2="567.66" gradientTransform="translate(509.66 994.72) rotate(180) scale(1.23)" gradientUnits="userSpaceOnUse"><stop offset="0" stop-opacity="0.78"/><stop offset="1" stop-opacity="0"/></linearGradient><linearGradient id="e" x1="880.5" y1="940.6" x2="868.65" y2="953.89" gradientTransform="translate(1141.73 1270.43) rotate(180)" xlink:href="#d"/><linearGradient id="f" x1="618.5" y1="1077.05" x2="618.5" y2="1047.36" gradientTransform="translate(5949.54 10094.81) rotate(180) scale(8.78)" xlink:href="#a"/><linearGradient id="g" x1="740.61" y1="764.59" x2="708.54" y2="796.65" gradientTransform="translate(1141.73 1270.43) rotate(180)" xlink:href="#d"/><linearGradient id="h" x1="86.98" y1="544.6" x2="74.16" y2="564.05" gradientTransform="matrix(1.36, 0, 0, -1.36, 787.24, 1507.34)" gradientUnits="userSpaceOnUse"><stop offset="0" stop-color="#6d0000"/><stop offset="1" stop-color="#8a0000" stop-opacity="0"/></linearGradient><linearGradient id="i" x1="86.98" y1="544.6" x2="74.16" y2="564.05" gradientTransform="matrix(1.36, 0, 0, -1.36, 782.37, 1724.95)" xlink:href="#h"/><linearGradient id="j" x1="569.48" y1="567.89" x2="522.78" y2="616.07" gradientTransform="translate(1141.73 1270.43) rotate(180)" xlink:href="#d"/><linearGradient id="k" x1="486.73" y1="594.58" x2="510.47" y2="569.07" gradientTransform="translate(1141.73 1270.43) rotate(180)" xlink:href="#d"/><linearGradient id="l" x1="86.98" y1="544.6" x2="74.16" y2="564.05" gradientTransform="matrix(1.36, 0, 0, -1.36, 573.71, 1724.95)" xlink:href="#h"/><linearGradient id="m" x1="693.4" y1="738.85" x2="670.04" y2="764" gradientTransform="translate(1141.73 1270.43) rotate(180)" xlink:href="#d"/><linearGradient id="n" x1="875.43" y1="934.14" x2="854.48" y2="954.51" gradientTransform="translate(1159.01 1288.71) rotate(180)" xlink:href="#d"/><linearGradient id="o" x1="83.52" y1="548.64" x2="65.82" y2="567.66" gradientTransform="matrix(1.23, 0, 0, -1.23, 819.26, 995.72)" xlink:href="#d"/><linearGradient id="p" x1="306.48" y1="936.87" x2="322.97" y2="953.69" gradientTransform="translate(1215.03 1271.43) rotate(180)" xlink:href="#d"/><linearGradient id="q" x1="454.73" y1="765.14" x2="483.59" y2="797.21" gradientTransform="translate(1215.03 1271.43) rotate(180)" xlink:href="#d"/><linearGradient id="r" x1="322.73" y1="594.57" x2="346.47" y2="569.07" gradientTransform="matrix(1, 0, 0, -1, 187.2, 1271.43)" xlink:href="#d"/><linearGradient id="s" x1="86.98" y1="544.6" x2="74.16" y2="564.05" gradientTransform="matrix(1.36, 0, 0, -1.36, 161.66, 1508.34)" xlink:href="#h"/><linearGradient id="t" x1="86.98" y1="544.6" x2="74.16" y2="564.05" gradientTransform="matrix(1.36, 0, 0, -1.36, 166.53, 1725.95)" xlink:href="#h"/><linearGradient id="u" x1="306.33" y1="925.14" x2="345.39" y2="961.1" gradientTransform="translate(1215.03 1271.43) rotate(180)" xlink:href="#d"/><linearGradient id="v" x1="343.35" y1="926.27" x2="378.79" y2="962.24" gradientTransform="translate(1232.31 1289.71) rotate(180)" xlink:href="#d"/><linearGradient id="w" x1="627.43" y1="574.99" x2="665.72" y2="612.9" gradientTransform="translate(1215.03 1271.43) rotate(180)" xlink:href="#d"/><linearGradient id="x" x1="86.98" y1="544.6" x2="74.16" y2="564.05" gradientTransform="matrix(1.36, 0, 0, -1.36, 375.2, 1725.95)" xlink:href="#h"/><linearGradient id="y" x1="497.27" y1="735.28" x2="527.48" y2="771.21" gradientTransform="translate(1215.03 1271.43) rotate(180)" xlink:href="#d"/><radialGradient id="z" cx="427.82" cy="1031.72" r="8.59" gradientTransform="matrix(0.6, 0, 0, -0.61, 419.77, 842.25)" gradientUnits="userSpaceOnUse"><stop offset="0" stop-color="#fff"/><stop offset="1" stop-color="#c9c9c9"/></radialGradient><radialGradient id="aa" cx="445.12" cy="1021.75" r="8.45" gradientTransform="matrix(0.68, 0, 0, -0.69, 309.4, 914.29)" xlink:href="#z"/><radialGradient id="ab" cx="445.12" cy="1021.75" r="8.45" gradientTransform="matrix(0.68, 0, 0, -0.69, 244.19, 914.94)" xlink:href="#z"/><radialGradient id="ac" cx="431.22" cy="1029.77" r="8.56" gradientTransform="matrix(0.61, 0, 0, -0.62, 222.32, 856.38)" xlink:href="#z"/><radialGradient id="ad" cx="428.52" cy="1031.32" r="8.45" gradientTransform="matrix(0.6, 0, 0, -0.61, 353.18, 1052.4)" xlink:href="#z"/><radialGradient id="ae" cx="428.52" cy="1031.32" r="8.45" gradientTransform="matrix(0.6, 0, 0, -0.61, 295.91, 1052.97)" xlink:href="#z"/><radialGradient id="af" cx="434.38" cy="1027.94" r="8.59" gradientTransform="matrix(0.63, 0, 0, -0.64, 408.31, 984.62)" xlink:href="#z"/><radialGradient id="ag" cx="450.85" cy="1018.44" r="8.45" gradientTransform="matrix(0.72, 0, 0, -0.73, 292.39, 1060.26)" xlink:href="#z"/><radialGradient id="ah" cx="450.85" cy="1018.44" r="8.45" gradientTransform="matrix(0.72, 0, 0, -0.73, 223.91, 1060.94)" xlink:href="#z"/><radialGradient id="ai" cx="437.62" cy="1026.07" r="8.56" gradientTransform="matrix(0.64, 0, 0, -0.65, 200.94, 999.58)" xlink:href="#z"/><radialGradient id="aj" cx="412.7" cy="1040.43" r="8.56" gradientTransform="matrix(0.54, 0, 0, -0.55, 276.68, 1001.75)" xlink:href="#z"/><radialGradient id="ak" cx="408.83" cy="1042.67" r="8.59" gradientTransform="matrix(0.53, 0, 0, -0.53, 450.13, 989.19)" xlink:href="#z"/><linearGradient id="al" x1="875.43" y1="934.15" x2="854.48" y2="954.52" gradientTransform="translate(1141.73 1270.43) rotate(180)" xlink:href="#d"/><linearGradient id="am" x1="215.2" y1="711.59" x2="284.95" y2="961.31" xlink:href="#b"/><linearGradient id="an" x1="379.19" y1="711.59" x2="448.94" y2="961.31" gradientTransform="translate(1152.96 1263.2) rotate(180)" xlink:href="#b"/></defs><title>Vatican_City</title><path d="M13.15,4.38c37.57,29.36,85.5,76,85.5,156.41v880c0,67.46,49.09,137.63,131.38,137.63h196c84.89,0,137.76,55.53,156.41,104.28C601.11,1234,654,1178.45,738.87,1178.45h196c82.28,0,131.38-70.16,131.38-137.63v-880c0-80.39,47.93-127,85.5-156.41Z" style="fill:#d40000;stroke:#000;stroke-width:8.5px"/><path d="M585.91,632.26A10.46,10.46,0,0,1,595,642.41c0,79.48,18,152.85,42.79,205.73,12.41,26.44,26.59,47.79,40.6,62S705.82,931,716.75,931v20.3c-18.7,0-36.68-10.39-52.94-26.88s-31.3-39.49-44.44-67.48c-26.28-56-44.71-132-44.71-214.5C574.59,636.7,580.23,631.61,585.91,632.26Z" style="fill:#bb0d0d;stroke:#000;stroke-width:0.75px"/><path d="M573.33,470.7l-38.92-37.83C512.68,514,453.94,574.82,425.8,551.8l38.92,37.83C492.86,612.65,551.6,551.81,573.33,470.7Z" style="fill:#fff;stroke:#000;stroke-linecap:round;stroke-linejoin:round;stroke-width:0.75px"/><path d="M585.91,632.26A10.46,10.46,0,0,1,595,642.41c0,79.48,18,152.85,42.79,205.73,12.41,26.44,26.59,47.79,40.6,62S705.82,931,716.75,931v20.3c-18.7,0-36.68-10.39-52.94-26.88s-31.3-39.49-44.44-67.48c-26.28-56-44.71-132-44.71-214.5C574.59,636.7,580.23,631.61,585.91,632.26Z" style="opacity:0.5;isolation:isolate;fill:url(#a)"/><path d="M580.42,632.26a10.46,10.46,0,0,0-9.05,10.15c0,79.48-18,152.85-42.79,205.73-12.41,26.44-26.59,47.79-40.6,62S460.51,931,449.58,931v20.3c18.7,0,36.68-10.39,52.94-26.88s31.3-39.49,44.44-67.48c26.28-56,44.71-132,44.71-214.5C591.74,636.7,586.1,631.61,580.42,632.26Z" style="fill:#bb0d0d;stroke:#000;stroke-width:0.75px"/><path d="M541,475.5c-2.38,6-4.64,12-7.48,17.95l-9.48-7.86a134.12,134.12,0,0,1-8.84,16.34l11.2,3.79c-5.38,8.6-11,17.2-18.77,25.8l12.79,9.54a217.82,217.82,0,0,0,14.78-30.58l9.12,7.3c3.27-5.12,5.86-10.74,8.65-16.34l-10.83-3.79,10.36-15.93L541,475.5Z" style="fill:#ffbd03;stroke:#000;stroke-width:0.75px"/><path d="M568.42,465.94C546.69,547,488,607.87,459.83,584.85l4.91,4.78c28.14,23,86.86-37.83,108.59-118.94Zm-34-33.06C512.69,514,453.94,574.8,425.8,551.79l5.06,4.91c28.3,22.07,86.56-38.55,108.19-119.25v-.09l-4.63-4.47Z" style="fill:#ffbd03;stroke:#000;stroke-linecap:round;stroke-linejoin:round;stroke-width:0.75px"/><path d="M573.33,470.7l-38.92-37.83C512.68,514,453.94,574.82,425.8,551.8l38.92,37.83C492.86,612.65,551.6,551.81,573.33,470.7Z" style="opacity:0.6390243768692017;isolation:isolate;fill:url(#b)"/><path d="M590.58,470.7l38.92-37.83C651.23,514,710,574.82,738.11,551.8L699.2,589.63C671.06,612.65,612.32,551.81,590.58,470.7Z" style="fill:#fff;stroke:#000;stroke-linecap:round;stroke-linejoin:round;stroke-width:0.75px"/><path d="M595.5,465.94C617.23,547,675.95,607.87,704.09,584.85l-4.91,4.78c-28.14,23-86.86-37.83-108.59-118.94Z" style="fill:#ffbd03;stroke:#000;stroke-linecap:round;stroke-linejoin:round;stroke-width:0.75px"/><path d="M622.88,475.5c2.38,6,4.64,12,7.48,17.95l9.48-7.86a134.12,134.12,0,0,0,8.84,16.34l-11.2,3.79c5.38,8.6,11,17.2,18.77,25.8l-12.79,9.54a217.82,217.82,0,0,1-14.78-30.58l-9.12,7.3c-3.27-5.12-5.86-10.74-8.65-16.34l10.83-3.79-10.36-15.93,11.5-6.22Z" style="fill:#ffbd03;stroke:#000;stroke-width:0.75px"/><path d="M629.5,432.88C651.23,514,710,574.8,738.12,551.79l-5.06,4.91c-28.3,22.07-86.56-38.55-108.19-119.25v-.09l4.63-4.47Z" style="fill:#ffbd03;stroke:#000;stroke-linecap:round;stroke-linejoin:round;stroke-width:0.75px"/><path d="M590.58,470.7l38.92-37.83C651.23,514,710,574.82,738.11,551.8L699.2,589.63C671.06,612.65,612.32,551.81,590.58,470.7Z" style="opacity:0.6390243768692017;isolation:isolate;fill:url(#c)"/><path d="M678.92,480.56c0,8.15-42.89,14.75-95.8,14.75s-95.8-6.6-95.8-14.75,42.89-14.75,95.8-14.75S678.92,472.42,678.92,480.56Z" style="fill:#c80035;stroke:#000;stroke-width:0.75px"/><path d="M238.94,304.1a16.75,16.75,0,1,0,16.75-16.75,16.75,16.75,0,0,0-16.75,16.75Z" style="fill:#ffbd03;stroke:#000;stroke-miterlimit:2;stroke-width:0.75px"/><path d="M238.94,304.1a16.75,16.75,0,1,0,16.75-16.75,16.75,16.75,0,0,0-16.75,16.75Z" style="fill:url(#d)"/><path d="M269.27,306.88l17.73,18-11.82,12-17.73-18c-5.91-6,5.91-18,11.82-12Z" style="fill:silver;stroke:#000;stroke-width:0.75px"/><path d="M269.27,306.88l17.73,18-11.82,12-17.73-18c-5.91-6,5.91-18,11.82-12Z" style="fill:url(#e)"/><path d="M292.91,318.85l17.72,18,161.72,164-23.66,24L287,360.82l-17.75-18c2.37-9.58,14.21-21.6,23.66-24ZM482,510.63,588.38,618.51l-23.63,24L458.38,534.6c2.37-9.58,14.18-21.56,23.62-24Z" style="fill:silver;stroke:#000;stroke-width:0.75px"/><path d="M580.42,632.26a10.46,10.46,0,0,0-9.05,10.15c0,79.48-18,152.85-42.79,205.73-12.41,26.44-26.59,47.79-40.6,62S460.51,931,449.58,931v20.3c18.7,0,36.68-10.39,52.94-26.88s31.3-39.49,44.44-67.48c26.28-56,44.71-132,44.71-214.5C591.74,636.7,586.1,631.61,580.42,632.26Z" style="opacity:0.5;isolation:isolate;fill:url(#f)"/><path d="M310.63,336.84l17.73,18c11.82,12,53.19,65.92,53.19,65.92s55.33,44.13,67.15,56.12l17.73,18c-11.82-12-84.88-62.11-84.88-62.11s43.51,68.1,61.24,86.08l-17.73-18c-11.82-12-55.34-68.1-55.33-68.1s-47.28-36-59.1-47.94l-23.64-24c11.82,12,82.73,59.93,82.73,59.93s-47.27-71.92-59.09-83.9Z" style="fill:#ffbd03;stroke:#000;stroke-width:0.75px"/><path d="M292.91,318.85l17.72,18,161.72,164-23.66,24L287,360.82l-17.75-18c2.37-9.58,14.21-21.6,23.66-24ZM482,510.63,588.38,618.51l-23.63,24L458.38,534.6c2.37-9.58,14.18-21.56,23.62-24Z" style="fill:url(#g)"/><path d="M341.49,532.37v-19l-12.22,9.51Z" style="fill:#a5a5a5;stroke:#000;stroke-miterlimit:2;stroke-width:0.75px"/><path d="M785.75,740.63a127.5,127.5,0,1,1-127.5,127.5A127.55,127.55,0,0,1,785.75,740.63Zm15.5,34.25a7,7,0,0,0-7,7,8.47,8.47,0,1,1-16.94,0A7,7,0,0,0,769,775a94.74,94.74,0,0,0-76.44,77c0,.21-.07.44-.09.66s0,.43,0,.66l15.47-1.79v17.26a8.46,8.46,0,0,1-8.47,8.47,7,7,0,0,0-7,7,5.32,5.32,0,0,0,0,.66,6.12,6.12,0,0,0,.09.66,94.74,94.74,0,0,0,76.44,77,7.18,7.18,0,0,0,1.31.13,7,7,0,0,0,7-7,8.47,8.47,0,1,1,16.94,0,7,7,0,0,0,8.31,6.87,94.74,94.74,0,0,0,76.44-77c0-.21.07-.44.09-.66s0-.43,0-.66a7,7,0,0,0-7-7,8.46,8.46,0,0,1-8.47-8.47V851.21l15.47,2.14a5.32,5.32,0,0,0,0-.66A6.12,6.12,0,0,0,879,852a94.74,94.74,0,0,0-76.44-77,7.17,7.17,0,0,0-1.31-.12Z" style="fill:#919191;stroke:#000;stroke-width:0.75px"/><path d="M877.24,749.33a18,18,0,1,0,18-18,18,18,0,0,0-18,18Z" style="fill:#d72b2b;stroke:#000;stroke-miterlimit:2;stroke-width:0.75px"/><path d="M913.76,749.3a18.51,18.51,0,1,1-18.51-18.51,18.51,18.51,0,0,1,18.51,18.51Z" style="fill:url(#h)"/><path d="M889.61,748.78a3,3,0,1,1-6,0h0a3,3,0,1,1,6,0Z" style="fill:#fff"/><path d="M905.26,748.74a1.13,1.13,0,1,1-2.26,0h0a1.13,1.13,0,1,1,2.26,0Z" style="fill:#fff"/><path d="M547,564.57l-35.46,36a11.93,11.93,0,0,1-11.82-12s0-12,11.82-24,23.64-12,23.64-12C540.69,553.33,545.3,558.57,547,564.57Z" style="fill:#bfbfbf;stroke:#000;stroke-width:0.75px"/><path d="M547,564.57l23.64,36L547,624.5l-35.46-24c-1.33-1.17,0-12,11.82-24S546.49,564.85,547,564.57Z" style="fill:#bfbfbf;stroke:#000;stroke-width:0.75px"/><path d="M564.75,606.52c-9.67-9.8-23.64-24-41.37-30,5.91,18,19.88,32.15,29.55,41.95l11.82-12Z" style="fill:#bfbfbf;stroke:#000;stroke-miterlimit:2;stroke-width:0.75px"/><path d="M547,624.5l5.91-6-11.82-12c-11.82-12-29.55-6-29.55-6Zm23.64-24-5.91,6-11.82-12c-11.82-12-5.91-30-5.91-30l23.64,36Z" style="fill:#bfbfbf;stroke:#000;stroke-width:0.75px"/><path d="M570.66,600.52c41.37,41.95,88.64,65.92,118.19,95.88,23.64,24,7.27,42.32.68,48.13s-24.51,24.05-48-.18C612,714.39,588.39,666.44,547,624.5c0-12,11.82-24,23.64-24Z" style="fill:#bfbfbf;stroke:#000;stroke-width:0.75px"/><path d="M716.15,728l-13.51-15.59-46.84,46,13.51,15.59Z" style="fill:#bfbfbf;stroke:#000;stroke-width:0.75px"/><path d="M730.4,739.94l-14.87-17.11L664,773.33l14.87,17.11Z" style="fill:#ffbd03;stroke:#000;stroke-width:0.75px"/><path d="M859,746.94a128.62,128.62,0,0,1,34.83,37.75l6.68-4.22A135.1,135.1,0,0,0,864,740.83Z" style="fill:#ffbd03;stroke:#000;stroke-width:0.75px"/><path d="M303,361.22l-19.18,19,19.18,19-9.59,9.51-19.18-19-38.35,38,19.18,19-9.59,9.51-19.18-19-19.18,19,57.53,57,38.35-38-19.18-19-9.59,9.51-9.59-9.51,38.35-38,9.59,9.51L303,437.29l19.18,19,19.18-19-9.59-9.51,9.59-9.51,38.35,38-9.59,9.51-9.59-9.51-19.18,19,19.18,19,9.59-9.51,9.59,9.51-38.35,38-9.59-9.51,9.59-9.51-19.18-19-38.35,38,57.53,57,19.18-19-19.18-19,9.59-9.51,19.18,19,38.35-38-19.18-19,9.59-9.51,19.18,19,19.18-19L303,361.22Z" style="fill:#bfbfbf;stroke:#000;stroke-miterlimit:2;stroke-width:0.75px"/><path d="M360.54,570.4v19L312.6,637v-38l9.59-9.51h19.18Z" style="fill:#a5a5a5;stroke:#000;stroke-width:0.75px"/><path d="M408.48,523.25,370.39,561l-.45,18.89,38.55-38.22V523.25Z" style="fill:#a5a5a5;stroke:#000;stroke-miterlimit:2;stroke-width:0.75px"/><path d="M370.13,579.91l-19.18-19v-19l19.18,19Zm47.94-47.54-19.18-19v-19l19.18,19Z" style="fill:#7a7a7a;stroke:#000;stroke-miterlimit:2;stroke-width:0.75px"/><path d="M398.89,494.34v19l-9.59-9.51Zm-47.94,47.54v19l-9.59-9.51Zm86.49-47.54-19.37,19v19l19.37-19.6V494.34Z" style="fill:#a5a5a5;stroke:#000;stroke-miterlimit:2;stroke-width:0.75px"/><path d="M322.18,475.32l-19.18-19v-19l19.18,19Zm38.35,38-19.18-19v-19l19.18,19Zm9.59-47.54-28.77-28.52v-19l38.35,38-9.59,9.51Z" style="fill:#7a7a7a;stroke:#000;stroke-miterlimit:2;stroke-width:0.75px"/><path d="M341.36,418.27v19l-9.59-9.51Zm-19.18,57,19.18-19v-19l-19.18,19Zm-47.94-9.51L303,437.29v-19l-38.35,38ZM303,475.32l-38.35,38H245.48l-9.59,9.51v38L303,494.15V475.32Z" style="fill:#a5a5a5;stroke:#000;stroke-miterlimit:2;stroke-width:0.75px"/><path d="M341.36,589.42l-57.53-57H264.65l57.53,57Z" style="fill:#cdcdcd;stroke:#000;stroke-miterlimit:2;stroke-width:0.75px"/><path d="M312.6,598.93l-57.53-57,9.59-9.51,57.53,57Z" style="fill:#bfbfbf;stroke:#000;stroke-miterlimit:2;stroke-width:0.75px"/><path d="M312.59,598.93v38l-57.53-57v-38Z" style="fill:#7a7a7a;stroke:#000;stroke-miterlimit:2;stroke-width:0.75px"/><path d="M264.65,513.36l-57.53-57H187.94l57.53,57Z" style="fill:#cdcdcd;stroke:#000;stroke-miterlimit:2;stroke-width:0.75px"/><path d="M235.89,522.86l-57.53-57,9.59-9.51,57.53,57Z" style="fill:#bfbfbf;stroke:#000;stroke-miterlimit:2;stroke-width:0.75px"/><path d="M235.89,522.86v38l-57.53-57v-38Zm9.59-66.56-9.59-9.51v-19l19.18,19-9.59,9.51Zm47.94-47.54-9.59-9.51v-19l19.18,19Zm67.12,104.59,19.18-19-9.59-9.51-9.59,9.51ZM303,437.29l9.59-9.51L303,418.27Z" style="fill:#7a7a7a;stroke:#000;stroke-miterlimit:2;stroke-width:0.75px"/><path d="M889.44,924.32l7.16,3.38v17.63a134.44,134.44,0,0,1-39.37,36.84l-4.78-5.22-.22-18a128.33,128.33,0,0,0,37.22-34.62Z" style="fill:#ffbd03;stroke:#000;stroke-width:0.75px"/><path d="M857.21,964.14a113,113,0,0,0,19.43-14.57c6.42-6,14.73-14.67,19.63-21.58" style="fill:#ffbd03;stroke:#000;stroke-width:0.75px"/><path d="M852.49,959.31l4.78,4.69v17.54" style="fill:#ffbd03;stroke:#000;stroke-width:0.75px"/><path d="M896.6,928.41v16.91a134.43,134.43,0,0,1-39.38,36.84l-4.78-5.22-.22-17.19,4.56,4.47v17.31h1V964.38A113.14,113.14,0,0,0,877,949.95C883.4,944,891.65,935.36,896.6,928.41Z" style="fill-opacity:0.43820226192474365"/><path d="M872.37,966.94a18,18,0,1,0,18-18,18,18,0,0,0-18,18Z" style="fill:#d72b2b;stroke:#000;stroke-miterlimit:2;stroke-width:0.75px"/><path d="M908.89,966.91a18.51,18.51,0,1,1-18.51-18.51,18.51,18.51,0,0,1,18.51,18.51Z" style="fill:url(#i)"/><path d="M884.74,966.38a3,3,0,1,1-6,0h0a3,3,0,1,1,6,0Z" style="fill:#fff"/><path d="M900.39,966.34a1.13,1.13,0,1,1-2.26,0h0a1.13,1.13,0,1,1,2.26,0Z" style="fill:#fff"/><path d="M370.13,484.82v19.06l-9.59,9.47v-19l9.59-9.53Z" style="fill:#a5a5a5;stroke:#000;stroke-miterlimit:2;stroke-width:0.75px;opacity:0.800000011920929;isolation:isolate"/><path d="M535.19,552.57c5.49.75,10.1,6,11.81,12l23.66,36c41.37,41.95,88.64,65.91,118.19,95.88,6.49,6.58,9.95,12.72,11.44,18.31l2.34-2.28,10.75,12.44,2.13-2.09,14.87,17.09-51.56,50.5L664,773.29l2.53-2.47-10.72-12.34,2.94-2.88c-5.27-1.51-11-4.91-17.16-11.25-29.55-30-53.2-77.89-94.56-119.84l-35.44-24a11.93,11.93,0,0,1-11.81-12s0-12,11.81-24,23.62-12,23.62-12Z" style="fill:url(#j)"/><path d="M785.75,722.63a127.5,127.5,0,1,1-127.5,127.5A127.55,127.55,0,0,1,785.75,722.63Zm15.5,34.25a7,7,0,0,0-7,7,8.47,8.47,0,1,1-16.94,0A7,7,0,0,0,769,757a94.74,94.74,0,0,0-76.44,77c0,.21-.07.44-.09.66s0,.43,0,.66a7,7,0,0,0,7,7,8.47,8.47,0,0,1,0,16.94,7,7,0,0,0-7,7,5.32,5.32,0,0,0,0,.66,6.12,6.12,0,0,0,.09.66,94.74,94.74,0,0,0,76.44,77,7.18,7.18,0,0,0,1.31.13,7,7,0,0,0,7-7,8.47,8.47,0,1,1,16.94,0,7,7,0,0,0,8.31,6.87,94.74,94.74,0,0,0,76.44-77c0-.21.07-.44.09-.66s0-.43,0-.66a7,7,0,0,0-7-7,8.47,8.47,0,0,1,0-16.94,7,7,0,0,0,7-7,5.32,5.32,0,0,0,0-.66A6.12,6.12,0,0,0,879,834a94.74,94.74,0,0,0-76.44-77A7.17,7.17,0,0,0,801.25,756.88Z" style="fill:#bfbfbf;stroke:#000;stroke-width:0.75px"/><path d="M789.72,736.66c58.62.75,110.94,53.84,109.66,112.78.45,48-32.15,95-78.72,108.78-41.56,13.47-90.73,1.24-119.33-32.17C671.41,893.18,663,841.94,683,801.82c18.19-39,59.75-66.27,103-65.18q1.86,0,3.72,0Zm-18.84,6.13c-48.25,5.42-90.5,48.16-92.06,97.16.47,4.31,3.76,8,6.41,10.88-9.42,9.26-7.65,24.24-2.47,35.2,13.08,39.25,50.45,71.35,92.76,72.36,4.39-.1,7.49-5.25,10.56-6.13,9.41,9.25,24.23,7.16,35.13,2,39.17-13.41,71.14-51.24,71.4-93.62-.5-4.07-4.4-7.12-6.13-9.94,9.39-9.32,7.39-24.32,2.28-35.29-13.14-39.08-50.25-70.92-92.31-72.17-4.42.38-8,4.57-10.88,6.34a21.5,21.5,0,0,0-14.69-6.78Z" style="fill-opacity:0.2415730208158493;stroke:#000;stroke-width:0.75px"/><path d="M600.21,654.46a433.44,433.44,0,0,0,53.19,65.92c11.22,11.39,23.64,12,23.64,12s0-12-11.82-24A430.17,430.17,0,0,0,600.21,654.46Z" style="stroke:#000;stroke-linecap:round;stroke-linejoin:round;stroke-width:0.75px;fill:url(#k)"/><path d="M682,924.32l-7.16,3.38v17.63a134.42,134.42,0,0,0,39.37,36.84l4.78-5.22.22-18A128.33,128.33,0,0,1,682,924.32Z" style="fill:#ffbd03;stroke:#000;stroke-width:0.75px"/><path d="M714.25,964.14a113,113,0,0,1-19.43-14.57c-6.42-6-14.73-14.67-19.63-21.58" style="fill:#ffbd03;stroke:#000;stroke-width:0.75px"/><path d="M719,959.31,714.19,964v17.54" style="fill:#ffbd03;stroke:#000;stroke-width:0.75px"/><path d="M674.92,928.41v16.91a134.43,134.43,0,0,0,39.38,36.84l4.78-5.22.22-17.19-4.56,4.47v17.31h-1V964.38a113.14,113.14,0,0,1-19.22-14.44C688.12,944,679.88,935.36,674.92,928.41Z" style="fill-opacity:0.43820226192474365"/><path d="M663.71,966.94a18,18,0,1,0,18-18,18,18,0,0,0-18,18Z" style="fill:#d72b2b;stroke:#000;stroke-miterlimit:2;stroke-width:0.75px"/><path d="M700.22,966.91a18.51,18.51,0,1,1-18.51-18.51,18.51,18.51,0,0,1,18.51,18.51Z" style="fill:url(#l)"/><path d="M677.74,966.38a3,3,0,1,1-6,0h0a3,3,0,1,1,6,0Z" style="fill:#fff"/><path d="M693.4,966.34a1.13,1.13,0,1,1-2.26,0h0a1.13,1.13,0,1,1,2.26,0Z" style="fill:#fff"/><path d="M470.19,498.66a12.76,12.76,0,0,1,11.81,12c-9.45,2.4-21.25,14.39-23.62,24a11.91,11.91,0,0,1-11.81-12C451.7,510.25,458.36,504.25,470.19,498.66Z" style="fill:#ffbd03;stroke:#000;stroke-width:0.75px"/><path d="M470.19,498.66a12.76,12.76,0,0,1,11.81,12c-9.45,2.4-21.25,14.39-23.62,24a11.91,11.91,0,0,1-11.81-12C451.7,510.25,458.36,504.25,470.19,498.66Z" style="opacity:0.800000011920929;isolation:isolate;fill:url(#m)"/><path d="M301.32,327.41a12.79,12.79,0,0,1,11.84,12l0,0-2.5-2.56c-9.45,2.4-21.25,14.39-23.62,24l2.5,2.53a11.91,11.91,0,0,1-11.81-12c5.13-12.38,11.79-18.38,23.62-24Z" style="fill:#ffbd03;stroke:#000;stroke-width:0.75px"/><path d="M300.88,327.7a12.8,12.8,0,0,1,11.81,12l-2.5-2.53c-9.45,2.4-21.28,14.42-23.66,24l2.5,2.53a11.91,11.91,0,0,1-11.78-12C282.39,339.32,289,333.29,300.88,327.7Z" style="opacity:0.6000000238418579;isolation:isolate;fill:url(#n)"/><path d="M926,305.1a16.75,16.75,0,1,1-16.75-16.75A16.75,16.75,0,0,1,926,305.1Z" style="fill:silver;stroke:#000;stroke-miterlimit:2;stroke-width:0.75px"/><path d="M926,305.1a16.75,16.75,0,1,1-16.75-16.75A16.75,16.75,0,0,1,926,305.1Z" style="fill:url(#o)"/><path d="M895.66,307.88l-17.73,18,11.82,12,17.73-18c5.91-6-5.91-18-11.82-12Z" style="fill:#ffbd03;stroke:#000;stroke-width:0.75px"/><path d="M895.66,307.88l-17.73,18,11.82,12,17.73-18c5.91-6-5.91-18-11.82-12Z" style="fill:url(#p)"/><path d="M872,319.85l-17.72,18-161.72,164,23.66,24,161.69-164,17.75-18c-2.37-9.58-14.21-21.6-23.66-24ZM682.92,511.63,576.54,619.51l23.63,24L706.54,535.6C704.17,526,692.37,514,682.92,511.63Z" style="fill:#ffbd03;stroke:#000;stroke-width:0.75px"/><path d="M854.29,337.84l-17.73,18c-11.82,12-53.19,65.92-53.19,65.92S728,465.87,716.22,477.86l-17.73,18c11.82-12,84.88-62.11,84.88-62.11s-43.51,68.1-61.24,86.08l17.73-18c11.82-12,55.34-68.1,55.33-68.1s47.28-36,59.1-47.94l23.64-24c-11.82,12-82.73,59.93-82.73,59.93s47.28-71.92,59.09-83.9Z" style="fill:silver;stroke:#000;stroke-width:0.75px"/><path d="M872,319.85l-17.72,18-161.72,164,23.66,24,161.69-164,17.75-18c-2.37-9.58-14.21-21.6-23.66-24ZM682.92,511.63,576.54,619.51l23.63,24L706.54,535.6C704.17,526,692.37,514,682.92,511.63Z" style="fill:url(#q)"/><path d="M617.9,565.57l35.46,36a11.93,11.93,0,0,0,11.82-12s0-12-11.82-24-23.64-12-23.64-12c-5.49.75-10.1,6-11.82,12Z" style="fill:#ffbd03;stroke:#000;stroke-width:0.75px"/><path d="M617.9,565.57l-23.64,36,23.64,24,35.46-24c1.33-1.17,0-12-11.82-24S618.44,565.85,617.9,565.57Z" style="fill:#ffbd03;stroke:#000;stroke-width:0.75px"/><path d="M600.17,607.52c9.67-9.8,23.64-24,41.37-30-5.91,18-19.88,32.15-29.55,41.95Z" style="fill:#ffbd03;stroke:#000;stroke-miterlimit:2;stroke-width:0.75px"/><path d="M617.9,625.5l-5.91-6,11.82-12c11.82-12,29.55-6,29.55-6l-35.46,24Zm-23.64-24,5.91,6,11.82-12c11.82-12,5.91-30,5.91-30l-23.64,36Z" style="fill:#ffbd03;stroke:#000;stroke-width:0.75px"/><path d="M594.26,601.52c-41.37,41.95-88.64,65.92-118.19,95.88-23.64,24-7.27,42.32-.68,48.13s24.51,24.05,48-.18c29.55-30,53.19-77.91,94.55-119.86,0-12-11.82-24-23.64-24Z" style="fill:#ffbd03;stroke:#000;stroke-width:0.75px"/><path d="M448.78,729l13.51-15.59,46.84,46-13.51,15.59Z" style="fill:#ffbd03;stroke:#000;stroke-width:0.75px"/><path d="M434.57,740.86l14.87-17.11L501,774.25l-14.87,17.11Z" style="fill:silver;stroke:#000;stroke-width:0.75px"/><path d="M564.72,655.46a433.42,433.42,0,0,1-53.19,65.92c-11.22,11.39-23.64,12-23.64,12s0-12,11.82-24a430.18,430.18,0,0,1,65-53.93Z" style="stroke:#000;stroke-linecap:round;stroke-linejoin:round;stroke-width:0.75px;fill:url(#r)"/><path d="M823.44,533.37v-19l12.22,9.51Z" style="fill:#d8a002;stroke:#000;stroke-miterlimit:2;stroke-width:0.75px"/><path d="M379.17,741.63a127.5,127.5,0,1,0,127.5,127.5A127.55,127.55,0,0,0,379.17,741.63Zm-15.5,34.25a7,7,0,0,1,7,7,8.47,8.47,0,0,0,16.94,0,7,7,0,0,1,8.31-6.88,94.74,94.74,0,0,1,76.44,77c0,.21.07.44.09.66s0,.43,0,.66L457,852.56v17.26a8.46,8.46,0,0,0,8.47,8.47,7,7,0,0,1,7,7,5.42,5.42,0,0,1,0,.66,6.12,6.12,0,0,1-.09.66,94.74,94.74,0,0,1-76.44,77,7.18,7.18,0,0,1-1.31.12,7,7,0,0,1-7-7,8.47,8.47,0,1,0-16.94,0,7,7,0,0,1-8.31,6.88,94.74,94.74,0,0,1-76.44-77c0-.21-.07-.44-.09-.66s0-.43,0-.66a7,7,0,0,1,7-7,8.46,8.46,0,0,0,8.47-8.47V852.21l-15.47,2.14a5.42,5.42,0,0,1,0-.66,6.12,6.12,0,0,1,.09-.66,94.74,94.74,0,0,1,76.44-77A7.18,7.18,0,0,1,363.67,775.88Z" style="fill:#bb8a02;stroke:#000;stroke-width:0.75px"/><path d="M287.68,750.33a18,18,0,1,1-18-18,18,18,0,0,1,18,18Z" style="fill:#d72b2b;stroke:#000;stroke-miterlimit:2;stroke-width:0.75px"/><path d="M288.18,750.3a18.51,18.51,0,1,1-18.51-18.51,18.51,18.51,0,0,1,18.51,18.51Z" style="fill:url(#s)"/><path d="M264,749.78a3,3,0,1,1-6,0h0a3,3,0,1,1,6,0Z" style="fill:#fff"/><path d="M279.68,749.74a1.13,1.13,0,1,1-2.26,0h0a1.13,1.13,0,1,1,2.26,0Z" style="fill:#fff"/><path d="M881.32,310.41a12.8,12.8,0,0,0-11.81,12l2.5-2.53c9.45,2.4,21.28,14.42,23.66,24l-2.5,2.53a11.91,11.91,0,0,0,11.78-12c-5.13-12.38-11.79-18.41-23.63-24Z" style="fill:silver;stroke:#000;stroke-width:0.75px"/><path d="M863.61,328.41a12.79,12.79,0,0,0-11.84,12l0,0,2.5-2.56c9.45,2.4,21.25,14.39,23.63,24l-2.5,2.53a11.91,11.91,0,0,0,11.81-12c-5.13-12.38-11.79-18.38-23.63-24Z" style="fill:silver;stroke:#000;stroke-width:0.75px"/><path d="M305.9,747.94a128.62,128.62,0,0,0-34.83,37.75l-6.68-4.22A135.09,135.09,0,0,1,301,741.83l4.94,6.11Z" style="fill:silver;stroke:#000;stroke-width:0.75px"/><path d="M861.92,476.32l38.35,38h19.18l9.59,9.51v38l-67.12-66.75V476.32Z" style="fill:#d8a002;stroke:#000;stroke-miterlimit:2;stroke-width:0.75px"/><path d="M852.33,599.93l57.53-57-9.59-9.51-57.53,57Z" style="fill:#ffbd03;stroke:#000;stroke-miterlimit:2;stroke-width:0.75px"/><path d="M852.33,599.93v38l57.53-57v-38Z" style="fill:#bb8a02;stroke:#000;stroke-miterlimit:2;stroke-width:0.75px"/><path d="M900.27,514.36l57.53-57H977l-57.53,57Z" style="fill:#ffcc3c;stroke:#000;stroke-miterlimit:2;stroke-width:0.75px"/><path d="M919.45,457.31,929,447.8v-19l-19.18,19ZM871.5,409.77l9.59-9.51v-19l-19.18,19Z" style="fill:#bb8a02;stroke:#000;stroke-miterlimit:2;stroke-width:0.75px"/><path d="M275.48,925.32l-7.16,3.38v17.63a134.44,134.44,0,0,0,39.37,36.84l4.78-5.22.22-18a128.33,128.33,0,0,1-37.22-34.62Z" style="fill:silver;stroke:#000;stroke-width:0.75px"/><path d="M307.71,965.14a113,113,0,0,1-19.43-14.57c-6.42-6-14.73-14.67-19.63-21.58" style="fill:none;stroke:#000;stroke-width:0.75px"/><path d="M312.43,960.31,307.65,965v17.54" style="fill:none;stroke:#000;stroke-width:0.75px"/><path d="M268.32,929.41v16.91a134.44,134.44,0,0,0,39.37,36.84l4.78-5.22.22-17.19-4.56,4.47v17.31h-1V965.38a113.12,113.12,0,0,1-19.22-14.44c-6.4-6-14.64-14.58-19.59-21.53Z" style="fill-opacity:0.43820226192474365"/><path d="M292.55,967.94a18,18,0,1,1-18-18,18,18,0,0,1,18,18Z" style="fill:#d72b2b;stroke:#000;stroke-miterlimit:2;stroke-width:0.75px"/><path d="M293,967.91a18.51,18.51,0,1,1-18.51-18.51A18.51,18.51,0,0,1,293,967.91Z" style="fill:url(#t)"/><path d="M268.9,967.38a3,3,0,1,1-6,0h0a3,3,0,1,1,6,0Z" style="fill:#fff"/><path d="M284.55,967.34a1.13,1.13,0,1,1-2.26,0h0a1.13,1.13,0,1,1,2.26,0Z" style="fill:#fff"/><path d="M881.32,310.41a12.8,12.8,0,0,0-11.81,12l2.5-2.53c9.45,2.4,21.28,14.42,23.66,24l-2.5,2.53a11.91,11.91,0,0,0,11.78-12c-5.13-12.38-11.79-18.41-23.63-24Z" style="opacity:0.6000000238418579;isolation:isolate;fill:url(#u)"/><path d="M864,328.7a12.8,12.8,0,0,0-11.81,12l2.5-2.53c9.45,2.4,21.28,14.42,23.66,24l-2.5,2.53a11.91,11.91,0,0,0,11.78-12c-5.13-12.38-11.79-18.41-23.63-24Z" style="opacity:0.6000000238418579;isolation:isolate;fill:url(#v)"/><path d="M629.73,553.57c-5.49.75-10.1,6-11.81,12l-23.66,36c-41.37,41.95-88.64,65.91-118.19,95.88-6.49,6.58-9.95,12.72-11.44,18.31l-2.34-2.28-10.75,12.44-2.13-2.09-14.87,17.09,51.56,50.5,14.84-17.09-2.53-2.47,10.72-12.34-2.94-2.88c5.27-1.51,11-4.91,17.16-11.25,29.55-30,53.2-77.89,94.56-119.84l35.44-24a11.93,11.93,0,0,0,11.81-12s0-12-11.81-24-23.63-12-23.63-12Z" style="fill:url(#w)"/><path d="M379.17,723.63a127.5,127.5,0,1,0,127.5,127.5A127.55,127.55,0,0,0,379.17,723.63Zm-15.5,34.25a7,7,0,0,1,7,7,8.47,8.47,0,0,0,16.94,0,7,7,0,0,1,8.31-6.88,94.74,94.74,0,0,1,76.44,77c0,.21.07.44.09.66s0,.43,0,.66a7,7,0,0,1-7,7,8.47,8.47,0,1,0,0,16.94,7,7,0,0,1,7,7,5.42,5.42,0,0,1,0,.66,6.12,6.12,0,0,1-.09.66,94.74,94.74,0,0,1-76.44,77,7.18,7.18,0,0,1-1.31.12,7,7,0,0,1-7-7,8.47,8.47,0,0,0-16.94,0,7,7,0,0,1-8.31,6.88,94.74,94.74,0,0,1-76.44-77c0-.21-.07-.44-.09-.66s0-.43,0-.66a7,7,0,0,1,7-7,8.47,8.47,0,1,0,0-16.94,7,7,0,0,1-7-7,5.42,5.42,0,0,1,0-.66,6.12,6.12,0,0,1,.09-.66,94.74,94.74,0,0,1,76.44-77A7.18,7.18,0,0,1,363.67,757.88Z" style="fill:#ffbd03;stroke:#000;stroke-width:0.75px"/><path d="M375.2,737.66c-58.62.75-110.94,53.84-109.66,112.78-.45,48,32.15,95,78.72,108.78,41.56,13.47,90.73,1.24,119.33-32.17,29.91-32.87,38.36-84.11,18.32-124.24-18.19-39-59.75-66.27-103-65.18q-1.86,0-3.72,0ZM394,743.79c48.25,5.42,90.5,48.16,92.06,97.16-.47,4.31-3.76,8-6.41,10.87,9.42,9.26,7.65,24.24,2.47,35.2-13.08,39.25-50.45,71.35-92.76,72.36-4.39-.1-7.49-5.25-10.56-6.12-9.41,9.25-24.23,7.16-35.13,2-39.17-13.41-71.14-51.24-71.4-93.62.5-4.07,4.4-7.12,6.13-9.94-9.39-9.32-7.39-24.32-2.28-35.29,13.14-39.08,50.25-70.92,92.31-72.17,4.42.38,8,4.57,10.88,6.34A21.51,21.51,0,0,1,394,743.79Z" style="fill-opacity:0.2415730208158493;stroke:#000;stroke-width:0.75px"/><path d="M482.9,925.32l7.16,3.38v17.63a134.44,134.44,0,0,1-39.37,36.84l-4.78-5.22-.22-18A128.33,128.33,0,0,0,482.9,925.32Z" style="fill:silver;stroke:#000;stroke-width:0.75px"/><path d="M450.67,965.14a113,113,0,0,0,19.43-14.57c6.42-6,14.73-14.67,19.64-21.58" style="fill:none;stroke:#000;stroke-width:0.75px"/><path d="M445.95,960.31l4.78,4.69v17.54" style="fill:none;stroke:#000;stroke-width:0.75px"/><path d="M490,929.41v16.91a134.44,134.44,0,0,1-39.37,36.84l-4.78-5.22-.22-17.19,4.56,4.47v17.31h1V965.38a113.12,113.12,0,0,0,19.22-14.44c6.4-6,14.64-14.58,19.59-21.53Z" style="fill-opacity:0.43820226192474365"/><path d="M501.21,967.94a18,18,0,1,1-18-18,18,18,0,0,1,18,18Z" style="fill:#d72b2b;stroke:#000;stroke-miterlimit:2;stroke-width:0.75px"/><path d="M501.71,967.91A18.51,18.51,0,1,1,483.2,949.4a18.51,18.51,0,0,1,18.51,18.51Z" style="fill:url(#x)"/><path d="M477.56,967.38a3,3,0,1,1-6,0h0a3,3,0,1,1,6,0Z" style="fill:#fff"/><path d="M493.22,967.34a1.13,1.13,0,1,1-2.26,0h0a1.13,1.13,0,1,1,2.26,0Z" style="fill:#fff"/><path d="M842.74,476.32l19.18-19v-19l-19.18,19Z" style="fill:#bb8a02;stroke:#000;stroke-miterlimit:2;stroke-width:0.75px"/><path d="M823.56,419.27v19l9.59-9.51Zm19.18,57-19.18-19v-19l19.18,19Zm47.94-9.51-28.77-28.52v-19l38.35,38Z" style="fill:#d8a002;stroke:#000;stroke-miterlimit:2;stroke-width:0.75px"/><path d="M823.56,590.42l57.53-57h19.18l-57.53,57Z" style="fill:#ffcc3c;stroke:#000;stroke-miterlimit:2;stroke-width:0.75px"/><path d="M861.92,438.29l-9.59-9.51,9.59-9.51Z" style="fill:#bb8a02;stroke:#000;stroke-miterlimit:2;stroke-width:0.75px"/><path d="M861.92,362.22l19.18,19-19.18,19,9.59,9.51,19.18-19,38.35,38-19.18,19,9.59,9.51,19.18-19,19.18,19-57.53,57-38.35-38,19.18-19,9.59,9.51,9.59-9.51-38.35-38-9.59,9.51,9.59,9.51-19.18,19-19.18-19,9.59-9.51-9.59-9.51-38.35,38,9.59,9.51,9.59-9.51,19.18,19-19.18,19-9.59-9.51-9.59,9.51,38.35,38,9.59-9.51-9.59-9.51,19.18-19,38.35,38-57.53,57-19.18-19,19.18-19L814,542.88l-19.18,19-38.35-38,19.18-19L766,495.34l-19.18,19-19.18-19L861.92,362.22Z" style="fill:#ffbd03;stroke:#000;stroke-miterlimit:2;stroke-width:0.75px"/><path d="M694.73,499.66a12.76,12.76,0,0,0-11.81,12c9.45,2.4,21.25,14.39,23.63,24a11.91,11.91,0,0,0,11.81-12C713.22,511.25,706.56,505.25,694.73,499.66Z" style="fill:silver;stroke:#000;stroke-width:0.75px"/><path d="M694.73,499.66a12.76,12.76,0,0,0-11.81,12c9.45,2.4,21.25,14.39,23.63,24a11.91,11.91,0,0,0,11.81-12C713.22,511.25,706.56,505.25,694.73,499.66Z" style="opacity:0.800000011920929;isolation:isolate;fill:url(#y)"/><path d="M929,523.86l57.53-57L977,457.31l-57.53,57Z" style="fill:#ffbd03;stroke:#000;stroke-miterlimit:2;stroke-width:0.75px"/><path d="M929,523.86v38l57.53-57v-38Z" style="fill:#bb8a02;stroke:#000;stroke-miterlimit:2;stroke-width:0.75px"/><path d="M804.38,571.4v19L852.33,638v-38l-9.59-9.51H823.56Z" style="fill:#d8a002;stroke:#000;stroke-width:0.75px"/><path d="M756.44,524.25,794.53,562l.45,18.89-38.55-38.22V524.25Z" style="fill:#d8a002;stroke:#000;stroke-miterlimit:2;stroke-width:0.75px"/><path d="M794.8,580.91l19.18-19v-19l-19.18,19Zm-47.94-47.54,19.18-19v-19l-19.18,19Z" style="fill:#bb8a02;stroke:#000;stroke-miterlimit:2;stroke-width:0.75px"/><path d="M766,495.34v19l9.59-9.51L766,495.34ZM814,542.88v19l9.59-9.51Zm-86.49-47.54,19.37,19v19l-19.37-19.6V495.34Z" style="fill:#d8a002;stroke:#000;stroke-miterlimit:2;stroke-width:0.75px"/><path d="M804.38,514.36l19.18-19v-19l-19.18,19Zm-9.59-47.54,28.77-28.52v-19l-38.35,38Zm9.59,47.54-19.18-19,9.59-9.51,9.59,9.51Z" style="fill:#bb8a02;stroke:#000;stroke-miterlimit:2;stroke-width:0.75px"/><path d="M794.79,485.82v19.06l9.59,9.47v-19Z" style="fill:#d8a002;stroke:#000;stroke-miterlimit:2;stroke-width:0.75px;opacity:0.800000011920929;isolation:isolate"/><path d="M572.56,617.53c-11.87.35-23.44,1.85-33.09,5.78A10,10,0,1,0,547,641.84c7.52-3.06,22.62-4.66,37-4.31s28.69,2.47,34.34,4.22a10,10,0,1,0,5.91-19.09c-9.46-2.93-24-4.74-39.75-5.13-3.95-.09-8-.12-11.91,0Z" style="fill:#bb0d0d;stroke:#000;stroke-linecap:round;stroke-linejoin:round;stroke-width:0.75px"/><path d="M582.84,587a10,10,0,0,0-9,13.34c1.65,4.83,3.75,21.68,4,37.91s-1.35,33.46-3.31,39.62a10,10,0,0,0,19.06,6.06c3.74-11.71,4.49-28.62,4.25-45.94s-1.39-33.41-5-44.09a10,10,0,0,0-9.94-6.91h0Z" style="fill:#bb0d0d;stroke:#000;stroke-linecap:round;stroke-linejoin:round;stroke-width:0.75px"/><path d="M582.46,120.08c-73,53.63-113.09,102.32-113.09,241.09,0,43.2,14.07,77.43,19.31,107.5,27.58-6.7,52.4-13.41,93.78-13.41s66.2,6.7,93.78,13.41c5.24-30.07,19.31-64.3,19.31-107.5,0-138.78-40.12-187.46-113.09-241.09Z" style="fill:#fff;stroke:#000;stroke-width:0.75px"/><path d="M573.93,56.08l2,18.95-15.2-2V91.6l15.2-2-2,33.52H591L589,89.6l15.2,2V73L589,75l2-18.95Z" style="fill:#ffbd03;stroke:#000;stroke-width:0.75px"/><path d="M470.33,245.87c28.54-9.34,63.83-14.65,108-14.77,44.15.12,89,5.33,117.49,14.66l-4.06,21.44c-25.78-8.81-67.71-15.45-108.56-15.5S493.46,258.62,473,267c-.23,1.83-2.67-21.08-2.67-21.08Z" style="fill:#ffbd03;stroke:#000;stroke-linejoin:round;stroke-width:0.75px"/><path d="M691.73,265.55,678.61,252l16-4.62" style="fill:none;stroke:#000;stroke-linejoin:round;stroke-width:0.75px"/><path d="M681.59,233.73,674,220.92s-7.16,8.11-16.18,6.74-11.43-16.46-11.43-16.46-11.87,14-20.12,13.37a17.19,17.19,0,0,1-12.3-7s-6.72,6.46-14.64,5.83-18.61-16.6-18.61-16.6-7,16.24-14.94,17-17.56-11.5-17.56-11.5-3.58,10.32-13.65,12-16.41-12-16.41-12-4.87,15.23-11.7,17.65-15.84-6.66-15.84-6.66L481,234.42l5.39,6.15c24.67-7.2,58.07-11.67,95.86-11.71s72.15,4.51,96.87,11.76l2.52-6.89h-.09Z" style="fill:#ffbd03;stroke:#000;stroke-width:0.75px"/><path d="M455.26,220c5.19,10.39,12.66,20.24,24.3,17.83s12.1-12.38,12.1-12.38,7.17,9.45,15.23,7.5S517.57,217,517.57,217s8.83,12,18.32,11,13-11.38,13-11.38,4.71,9.88,15.6,9.46c11.33-.45,17.15-14.89,17.15-14.89s8,14.81,18,14.8a15.77,15.77,0,0,0,14-8.5s3.09,9.61,13.1,10.23,19-12.07,19-12.07,4.17,14.72,12.41,16.35c8.68,1.72,15.73-7,15.73-7s3.15,11.36,11.76,12.69c8.31,1.29,17-8,22.82-19.41-9,5-15.09,15.14-21.58,13.08-6.08-1.93-12-14.93-12-14.93s-8.87,10.16-16,7.72-10.73-27.51-10.73-27.51S637.6,223,627.81,220.28s-14.4-15.17-14.4-15.17-3.81,13.74-14.14,14.24c-10.78.52-17.74-30.07-17.74-30.07s-8.87,30.41-17.29,30.22-16.39-14.08-16.39-14.08-2.66,14.79-12.21,14.37-22.83-22.46-22.83-22.46.84,26.12-6.69,28.42c-7.13,2.18-19.85-11-19.85-11s3.61,14.72-5.49,17.17-14.42-7.35-25.51-11.94Z" style="fill:#ffbd03;stroke:#000;stroke-width:0.75px"/><path d="M582.84,233.49c-43,0-81.68,5.39-109.39,14-1.88.63-4.18-.86-4.77-2.6a4.12,4.12,0,0,1,2.57-4.76c27.87-8.91,67.5-14.52,111.59-14.57s83.82,5.66,111.69,14.57a4.12,4.12,0,0,1,2.57,4.76c-.53,1.74-2.89,3.23-4.71,2.6C664.63,238.88,625.79,233.53,582.84,233.49Z" style="fill:#ffbd03;stroke:#000;stroke-linejoin:round;stroke-width:0.75px"/><path d="M472,260.09l-4.85-4.32,3.28-4.44,9,1.91L472,260.09Z" style="fill:#ce1126;stroke:#000;stroke-linejoin:round;stroke-width:0.75px"/><path d="M692.37,260.11l5.52-3.33-3.55-5.1-8.71,1.82Z" style="fill:#ce1126;stroke:#000;stroke-linejoin:round;stroke-width:0.75px"/><path d="M607.82,190.39S592,190.26,590,188a5.91,5.91,0,0,1,.5-8.51c1.93-1.74,6.5-3.66,9.48-3.12s6.76,1.3,7,4.51c.23,2.72-9,4.66-9,4.66s11.78-2.17,13.6.11c2,2.54,3.29,6.31.64,9.64-2,2.47-14.67-.79-14.67-.79s11,2,9.46,7.14c-.85,2.83-6.59,4-10.71,3.34s-7.8-3.07-8.62-7,1.16-7.2,4.31-7.54c4-.44,15.78,0,15.78,0Zm-52.44.42s15.79.48,17.85-1.69a5.91,5.91,0,0,0-.17-8.53c-1.87-1.81-6.36-3.92-9.35-3.49s-6.8,1-7.19,4.24c-.33,2.71,8.83,5,8.83,5s-11.69-2.63-13.59-.42c-2.11,2.46-3.53,6.17-1,9.61,1.87,2.54,14.69-.22,14.69-.22s-11.07,1.61-9.73,6.76c.75,2.86,6.43,4.27,10.57,3.76s7.91-2.76,8.89-6.71-.89-7.24-4-7.7c-4-.59-15.77-.62-15.77-.62Z" style="fill:#ffbd03;stroke:#000;stroke-width:0.75px"/><path d="M581.65,159.76s-.48,16,1.67,18.13a5.7,5.7,0,0,0,8.4-.17c1.79-1.9,3.86-6.46,3.44-9.5s-1-6.91-4.17-7.3c-2.67-.34-4.94,9-4.94,9s2.59-11.87.41-13.8c-2.42-2.14-6.08-3.59-9.46-1-2.5,1.9.21,14.92.21,14.92s-1.59-11.24-6.66-9.88c-2.81.76-4.21,6.53-3.7,10.74s2.72,8,6.6,9,7.13-.9,7.58-4.09c.59-4.09.62-16,.62-16Z" style="fill:#ffbd03;stroke:#000;stroke-width:0.75px"/><path d="M588.52,190.35c-.13,6.81-3.26,12.27-7,12.2s-6.64-5.65-6.51-12.46,3.26-12.27,7-12.2S588.65,183.54,588.52,190.35Z" style="fill:#ce1126;stroke:#000;stroke-linecap:round;stroke-width:0.75px"/><path d="M674.21,200.64s-15.45-3.34-16.95-5.95a5.9,5.9,0,0,1,2.16-8.24c2.24-1.31,7.09-2.27,9.9-1.14s6.37,2.65,6,5.85c-.31,2.71-9.75,2.74-9.75,2.74s12,.26,13.3,2.87c1.48,2.9,2,6.85-1.27,9.58-2.41,2-14.22-3.75-14.22-3.75s10.38,4.24,7.87,8.92c-1.39,2.6-7.25,2.6-11.15,1.1s-7-4.59-7.06-8.66,2.56-6.82,5.71-6.51c4.05.39,15.46,3.19,15.46,3.19Zm-51.46-10.22s15.37,3.68,17.83,2a5.91,5.91,0,0,0,1.51-8.39c-1.47-2.16-5.46-5.13-8.48-5.32s-6.87-.36-7.88,2.69c-.86,2.58,7.66,6.7,7.66,6.7s-10.94-5-13.23-3.17c-2.55,2-4.68,5.33-2.88,9.21,1.33,2.87,14.44,2.77,14.44,2.77s-11.17-.67-10.86,4.65c.17,3,5.46,5.49,9.62,5.82s8.29-1.1,10-4.77.55-7.27-2.43-8.36c-3.83-1.4-15.33-3.81-15.33-3.81Z" style="fill:#ffbd03;stroke:#000;stroke-width:0.75px"/><path d="M654.59,165.32s-3.62,15.61-1.93,18.1a5.71,5.71,0,0,0,8.26,1.53c2.12-1.49,5-5.54,5.24-8.61s.36-7-2.65-8c-2.55-.87-6.6,7.78-6.6,7.78s4.88-11.1,3.12-13.44c-2-2.59-5.25-4.75-9.07-2.92-2.82,1.35-2.73,14.66-2.73,14.66s.66-11.34-4.58-11c-2.91.17-5.41,5.55-5.74,9.77s1.09,8.42,4.7,10.18,7.16.56,8.23-2.47c1.38-3.89,3.75-15.56,3.75-15.56Z" style="fill:#ffbd03;stroke:#000;stroke-width:0.75px"/><path d="M655.33,196.64c-1.47,6.65-5.6,11.36-9.24,10.54s-5.4-6.89-3.93-13.53,5.6-11.36,9.24-10.54S656.8,190,655.33,196.64Z" style="fill:#058e6e;stroke:#000;stroke-linecap:round;stroke-width:0.75px"/><path d="M488.49,200.22s15.52-3,17.08-5.55a5.9,5.9,0,0,0-2-8.29c-2.21-1.36-7-2.44-9.87-1.37s-6.42,2.49-6.13,5.7c.25,2.72,9.68,3,9.68,3s-12,0-13.36,2.55c-1.54,2.86-2.15,6.8,1,9.61,2.36,2.08,14.3-3.41,14.3-3.41s-10.47,4-8.07,8.73c1.33,2.63,7.19,2.77,11.12,1.36s7.14-4.42,7.26-8.49-2.4-6.87-5.56-6.64c-4.06.3-15.53,2.83-15.53,2.83Zm51.68-9s-15.46,3.31-17.87,1.54a5.91,5.91,0,0,1-1.31-8.42c1.52-2.12,5.58-5,8.6-5.12s6.88-.2,7.82,2.88c.8,2.6-7.82,6.52-7.82,6.52s11-4.69,13.3-2.85c2.51,2,4.55,5.44,2.66,9.28-1.4,2.84-14.5,2.42-14.5,2.42s11.18-.4,10.75,4.91c-.24,2.95-5.59,5.36-9.75,5.59s-8.26-1.3-9.91-5-.38-7.28,2.62-8.3c3.86-1.31,15.41-3.44,15.41-3.44Z" style="fill:#ffbd03;stroke:#000;stroke-width:0.75px"/><path d="M508.92,165.37s3.26,15.69,1.51,18.14a5.71,5.71,0,0,1-8.3,1.34c-2.09-1.54-4.92-5.66-5-8.73s-.2-7,2.83-7.94c2.56-.81,6.42,7.94,6.42,7.94s-4.62-11.22-2.81-13.51c2-2.55,5.36-4.62,9.14-2.71,2.79,1.42,2.39,14.72,2.39,14.72s-.39-11.35,4.84-10.92c2.9.24,5.28,5.68,5.51,9.9s-1.28,8.39-4.93,10.07-7.17.39-8.17-2.66c-1.29-3.92-3.39-15.65-3.39-15.65Z" style="fill:#ffbd03;stroke:#000;stroke-width:0.75px"/><path d="M507.46,196.68c1.31,6.68,5.34,11.49,9,10.75S522,200.67,520.7,194s-5.34-11.49-9-10.75S506.15,190,507.46,196.68Z" style="fill:#058e6e;stroke:#000;stroke-linecap:round;stroke-width:0.75px"/><path d="M687.18,206s13.26,8.71,16.14,7.93a5.86,5.86,0,0,0,4.2-7.39c-.67-2.53-3.44-6.69-6.22-7.9s-6.35-2.69-8.31-.15c-1.66,2.14,5,8.93,5,8.93s-8.66-8.4-11.42-7.5c-3.06,1-6.17,3.43-5.76,7.7.3,3.16,12.68,7.53,12.68,7.53s-10.3-4.44-11.77.68c-.82,2.84,3.33,7,7.14,8.77s8.17,1.79,11-1.07,2.93-6.66.48-8.7c-3.14-2.62-13.17-8.82-13.17-8.82Z" style="fill:#ffbd03;stroke:#000;stroke-width:0.75px"/><path d="M728.61,190.69c.34-4.86-1.25-7.73-5-5.2-3.22,2.15-7.1,14.17-7.1,14.17s4.37-10.46-.67-12c-2.79-.83-6.93,3.38-8.64,7.24s-1.76,8.3,1.05,11.19,7.55,2,10.16.16c8.31-5.78,10-11.84,10.22-15.61Z" style="fill:#ffbd03;stroke:#000;stroke-width:0.75px"/><path d="M715.8,223c-3.58,5.76-9,8.79-12.19,6.77s-2.8-8.33.78-14.09,9-8.79,12.19-6.77S719.38,217.27,715.8,223Z" style="fill:#ce1126;stroke:#000;stroke-linecap:round;stroke-width:0.75px"/><path d="M475.23,205.81s-13.26,8.71-16.14,7.93a5.86,5.86,0,0,1-4.2-7.39c.67-2.53,3.44-6.69,6.22-7.9s6.35-2.69,8.31-.15c1.66,2.14-5,8.93-5,8.93s8.66-8.4,11.42-7.5c3.06,1,6.17,3.43,5.76,7.7-.3,3.16-12.68,7.53-12.68,7.53s10.3-4.44,11.77.68c.82,2.84-3.33,7-7.13,8.77s-8.17,1.79-11-1.07-2.93-6.66-.48-8.7c3.14-2.62,13.17-8.82,13.17-8.82Z" style="fill:#ffbd03;stroke:#000;stroke-width:0.75px"/><path d="M433.8,190.47c-.34-4.86,1.25-7.73,5-5.2,3.22,2.15,7.1,14.17,7.1,14.17s-4.37-10.46.67-12c2.79-.83,6.93,3.38,8.64,7.24s1.76,8.3-1.05,11.19-7.55,2-10.16.16c-8.31-5.78-10-11.84-10.22-15.61Z" style="fill:#ffbd03;stroke:#000;stroke-width:0.75px"/><path d="M446.62,222.81c3.58,5.76,9,8.79,12.19,6.77s2.8-8.33-.78-14.09-9-8.79-12.19-6.77S443,217.05,446.62,222.81Z" style="fill:#ce1126;stroke:#000;stroke-linecap:round;stroke-width:0.75px"/><path d="M680,216a4.48,4.48,0,1,1-4.48-4.55A4.52,4.52,0,0,1,680,216Z" style="stroke:#000;stroke-linecap:round;stroke-width:0.75px;fill:url(#z)"/><path d="M619,204.61a5.13,5.13,0,1,1-5.13-5.21A5.17,5.17,0,0,1,619,204.61Z" style="stroke:#000;stroke-linecap:round;stroke-width:0.75px;fill:url(#aa)"/><path d="M553.81,205.26a5.13,5.13,0,1,1-5.13-5.21A5.17,5.17,0,0,1,553.81,205.26Z" style="stroke:#000;stroke-linecap:round;stroke-width:0.75px;fill:url(#ab)"/><path d="M491.23,215.53a4.6,4.6,0,1,1-4.6-4.67A4.63,4.63,0,0,1,491.23,215.53Z" style="stroke:#000;stroke-linecap:round;stroke-width:0.75px;fill:url(#ac)"/><path d="M582,257.7c-41.46,0-78.74,5.39-105.45,14-1.81.63-4-.86-4.6-2.6a4.15,4.15,0,0,1,2.48-4.76c26.86-8.91,65.07-14.52,107.57-14.57s80.8,5.66,107.67,14.57a4.15,4.15,0,0,1,2.48,4.76c-.51,1.74-2.78,3.23-4.54,2.6C660.8,263.09,623.36,257.75,582,257.7Z" style="fill:#ffbd03;stroke:#000;stroke-linejoin:round;stroke-width:0.75px"/><path d="M581.86,245.34l7.87-3.35-7.23-4.37-8.41,3.86,7.77,3.86Z" style="fill:#ce1126;stroke:#000;stroke-linejoin:round;stroke-width:0.75px"/><path d="M514,243.61l14.76-1.82a2.72,2.72,0,0,1,3,2.34l.07.52a2.67,2.67,0,0,1-2.33,3l-14.76,1.82a2.72,2.72,0,0,1-3-2.34l-.07-.52A2.67,2.67,0,0,1,514,243.61Z" style="fill:#058e6e;stroke:#000;stroke-linejoin:round;stroke-width:0.75px"/><path d="M511.81,241.29l18.44-2.37c2.6-.33,4.92,1.16,5.19,3.33l.43,3.44c.27,2.17-1.62,4.2-4.21,4.53l-18.44,2.37c-2.6.33-4.92-1.16-5.19-3.33l-.43-3.44C507.32,243.65,509.21,241.62,511.81,241.29Z" style="fill:none;stroke:#000;stroke-linecap:round;stroke-linejoin:round;stroke-width:0.75px"/><path d="M647.63,243.35,633,241.47a2.68,2.68,0,0,0-3,2.33l-.09.75a2.71,2.71,0,0,0,2.34,3l14.67,1.89a2.68,2.68,0,0,0,3-2.33l.09-.75A2.71,2.71,0,0,0,647.63,243.35Z" style="fill:#058e6e;stroke:#000;stroke-linejoin:round;stroke-width:0.75px"/><path d="M650.21,241l-18.75-2.41c-2.51-.32-4.77,1.18-5,3.35l-.43,3.44c-.27,2.17,1.55,4.19,4.06,4.51l18.75,2.41c2.51.32,4.77-1.18,5-3.35l.43-3.44C654.54,243.31,652.72,241.29,650.21,241Z" style="fill:none;stroke:#000;stroke-linejoin:round;stroke-width:0.75px"/><path d="M581.88,249.6l16-7.53L583,233.7l-16.88,7.44,15.79,8.45Zm-109,15.34L487,251.59l-16.39-4.33" style="fill:none;stroke:#000;stroke-linecap:round;stroke-linejoin:round;stroke-width:0.75px"/><path d="M610.22,241.54a2.26,2.26,0,0,1,0-4.52h0a2.26,2.26,0,0,1,0,4.52Z" style="fill:none;stroke:#000;stroke-linejoin:round;stroke-width:0.75px"/><path d="M610.22,248a2.26,2.26,0,0,1,0-4.52h0a2.26,2.26,0,0,1,0,4.52Z" style="fill:none;stroke:#000;stroke-linejoin:round;stroke-width:0.75px"/><path d="M551.28,241.86a2.26,2.26,0,0,1,0-4.52h0a2.26,2.26,0,0,1,0,4.52Z" style="fill:none;stroke:#000;stroke-linejoin:round;stroke-width:0.75px"/><path d="M551.28,248.31a2.26,2.26,0,0,1,0-4.52h0a2.26,2.26,0,0,1,0,4.52Z" style="fill:none;stroke:#000;stroke-linejoin:round;stroke-width:0.75px"/><path d="M667.5,249.17a2.26,2.26,0,0,1-1.84-2.59,2.23,2.23,0,0,1,2.55-1.87h0a2.26,2.26,0,0,1,1.84,2.59,2.23,2.23,0,0,1-2.55,1.87Z" style="fill:none;stroke:#000;stroke-linejoin:round;stroke-width:0.75px"/><path d="M666.47,255.54a2.26,2.26,0,0,1-1.84-2.59,2.23,2.23,0,0,1,2.55-1.87h0a2.26,2.26,0,0,1,1.84,2.59,2.23,2.23,0,0,1-2.55,1.87Z" style="fill:none;stroke:#000;stroke-linejoin:round;stroke-width:0.75px"/><path d="M497.44,249.18a2.26,2.26,0,0,0,1.84-2.59,2.23,2.23,0,0,0-2.55-1.87h0a2.26,2.26,0,0,0-1.84,2.59,2.23,2.23,0,0,0,2.55,1.87Z" style="fill:none;stroke:#000;stroke-linejoin:round;stroke-width:0.75px"/><path d="M498.45,255.56A2.26,2.26,0,0,0,500.3,253a2.23,2.23,0,0,0-2.55-1.87h0a2.26,2.26,0,0,0-1.84,2.59,2.23,2.23,0,0,0,2.55,1.87Z" style="fill:none;stroke:#000;stroke-linejoin:round;stroke-width:0.75px"/><path d="M484.57,459.51c25.07-8.2,56.07-12.87,94.9-13,38.78.1,78.18,4.68,103.2,12.88l-3.56,18.83c-22.64-7.74-59.47-13.57-95.36-13.62s-78.87,6.07-96.83,13.39c-.2,1.6-2.35-18.52-2.35-18.52Z" style="fill:#ffbd03;stroke:#000;stroke-linejoin:round;stroke-width:0.75px"/><path d="M670.14,448.85l-6.66-11.26s-6.29,7.13-14.22,5.92-10-14.46-10-14.46-10.43,12.3-17.68,11.74a15.1,15.1,0,0,1-10.8-6.12s-5.9,5.68-12.86,5.12-16.35-14.58-16.35-14.58-6.17,14.27-13.12,14.9S553,430,553,430s-3.14,9.06-12,10.54S526.58,430,526.58,430s-4.27,13.38-10.27,15.5-13.91-5.85-13.91-5.85L494,449.45l4.74,5.41c21.67-6.32,51-10.25,84.2-10.29s63.38,4,85.09,10.33l2.22-6.05h-.08Z" style="fill:#ffbd03;stroke:#000;stroke-width:0.75px"/><path d="M471.32,436.76c4.56,9.13,11.12,17.78,21.35,15.66s10.63-10.88,10.63-10.88,6.3,8.3,13.38,6.59,9.39-14,9.39-14,7.76,10.55,16.09,9.66,11.38-10,11.38-10,4.14,8.68,13.7,8.31c10-.39,15.06-13.08,15.06-13.08s7,13,15.85,13a13.86,13.86,0,0,0,12.3-7.46s2.71,8.45,11.51,9S638.6,433,638.6,433s3.66,12.93,10.91,14.36c7.62,1.51,13.82-6.15,13.82-6.15s2.76,10,10.33,11.15c7.3,1.13,14.93-7,20-17.05-7.93,4.43-13.26,13.3-19,11.49-5.34-1.7-10.55-13.12-10.55-13.12s-7.79,8.92-14.06,6.79-9.43-24.16-9.43-24.16S631.5,439.39,622.89,437s-12.65-13.33-12.65-13.33-3.35,12.07-12.42,12.5c-9.47.45-15.58-26.41-15.58-26.41s-7.79,26.71-15.19,26.55S552.65,424,552.65,424s-2.34,13-10.72,12.62-20.05-19.73-20.05-19.73.74,22.94-5.88,25c-6.26,1.91-17.44-9.65-17.44-9.65s3.17,12.93-4.82,15.08-12.67-6.46-22.41-10.49Z" style="fill:#ffbd03;stroke:#000;stroke-width:0.75px"/><path d="M583.39,448.64c-37.78,0-71.75,4.74-96.09,12.28a3.37,3.37,0,0,1-1.93-6.46c24.48-7.82,59.29-12.76,98-12.8s73.63,5,98.11,12.8a3.37,3.37,0,0,1-1.88,6.46c-24.38-7.55-58.5-12.24-96.23-12.28Z" style="fill:#ffbd03;stroke:#000;stroke-linejoin:round;stroke-width:0.75px"/><path d="M605.33,410.78s-13.87-.12-15.62-2.1a5.19,5.19,0,0,1,.44-7.48c1.7-1.53,5.71-3.22,8.32-2.74s5.94,1.14,6.17,4c.2,2.39-7.92,4.09-7.92,4.09s10.35-1.91,11.94.1c1.77,2.23,2.89,5.54.56,8.47-1.72,2.17-12.89-.7-12.89-.7s9.67,1.8,8.31,6.27c-.75,2.48-5.79,3.53-9.41,2.93s-6.85-2.7-7.57-6.19,1-6.32,3.79-6.62c3.55-.38,13.86,0,13.86,0Zm-46.06.37s13.87.43,15.68-1.49a5.19,5.19,0,0,0-.15-7.49c-1.64-1.59-5.58-3.44-8.21-3.07s-6,.91-6.32,3.72c-.29,2.38,7.75,4.4,7.75,4.4s-10.27-2.31-11.94-.37c-1.86,2.16-3.1,5.42-.89,8.44,1.64,2.23,12.9-.19,12.9-.19s-9.73,1.42-8.55,5.94c.65,2.51,5.65,3.75,9.29,3.3s6.95-2.43,7.8-5.89-.78-6.36-3.53-6.76c-3.54-.52-13.85-.55-13.85-.55Z" style="fill:#ffbd03;stroke:#000;stroke-width:0.75px"/><path d="M582.35,383.87s-.42,14.08,1.46,15.93a5,5,0,0,0,7.38-.15c1.57-1.66,3.39-5.67,3-8.34s-.9-6.07-3.66-6.42c-2.34-.29-4.34,7.87-4.34,7.87s2.28-10.43.36-12.12c-2.13-1.88-5.34-3.15-8.31-.9-2.2,1.66.19,13.1.19,13.1s-1.39-9.88-5.85-8.68c-2.47.67-3.69,5.74-3.25,9.43s2.39,7.05,5.8,7.92,6.26-.79,6.66-3.59c.51-3.59.54-14.06.54-14.06Z" style="fill:#ffbd03;stroke:#000;stroke-width:0.75px"/><path d="M588.37,410.72c-.11,6-2.86,10.78-6.13,10.71s-5.83-5-5.72-10.95,2.86-10.78,6.13-10.71S588.48,404.74,588.37,410.72Z" style="fill:#ce1126;stroke:#000;stroke-linecap:round;stroke-width:0.75px"/><path d="M663.65,419.78s-13.57-2.93-14.89-5.23a5.18,5.18,0,0,1,1.9-7.24c2-1.15,6.23-2,8.7-1s5.59,2.32,5.27,5.14c-.27,2.38-8.56,2.41-8.56,2.41s10.52.23,11.68,2.52c1.3,2.55,1.75,6-1.11,8.41-2.11,1.77-12.49-3.29-12.49-3.29s9.12,3.72,6.91,7.83c-1.22,2.28-6.37,2.28-9.79,1s-6.18-4-6.2-7.6,2.24-6,5-5.72c3.56.35,13.58,2.81,13.58,2.81Zm-45.2-9S632,414,634.11,412.53a5.19,5.19,0,0,0,1.33-7.37c-1.29-1.89-4.8-4.5-7.44-4.67s-6-.32-6.92,2.36c-.75,2.27,6.73,5.89,6.73,5.89s-9.61-4.35-11.62-2.78c-2.24,1.74-4.11,4.68-2.53,8.09,1.17,2.52,12.68,2.43,12.68,2.43s-9.81-.58-9.54,4.09c.15,2.59,4.8,4.82,8.45,5.12s7.28-1,8.81-4.19.49-6.39-2.13-7.34c-3.36-1.23-13.46-3.35-13.46-3.35Z" style="fill:#ffbd03;stroke:#000;stroke-width:0.75px"/><path d="M646.42,388.76s-3.18,13.71-1.7,15.9A5,5,0,0,0,652,406c1.86-1.31,4.44-4.87,4.6-7.56s.32-6.13-2.33-7c-2.24-.76-5.8,6.84-5.8,6.84s4.28-9.75,2.74-11.8c-1.72-2.28-4.61-4.17-8-2.57-2.48,1.19-2.4,12.88-2.4,12.88s.58-10-4-9.69c-2.55.15-4.75,4.87-5,8.58s1,7.4,4.12,8.94,6.29.49,7.23-2.17C644.34,399,646.42,388.76,646.42,388.76Z" style="fill:#ffbd03;stroke:#000;stroke-width:0.75px"/><path d="M647.12,416.25c-1.29,5.84-4.92,10-8.12,9.26s-4.74-6-3.45-11.89,4.92-10,8.12-9.26S648.41,410.42,647.12,416.25Z" style="fill:#058e6e;stroke:#000;stroke-linecap:round;stroke-width:0.75px"/><path d="M500.52,419.41s13.63-2.61,15-4.87a5.18,5.18,0,0,0-1.73-7.28c-1.94-1.2-6.18-2.14-8.67-1.21s-5.64,2.19-5.39,5c.22,2.38,8.5,2.61,8.5,2.61s-10.52,0-11.74,2.24c-1.35,2.52-1.88,6,.92,8.44,2.07,1.82,12.56-3,12.56-3s-9.2,3.5-7.09,7.67c1.17,2.31,6.31,2.43,9.77,1.2s6.27-3.88,6.38-7.45-2.11-6-4.88-5.84c-3.56.26-13.64,2.48-13.64,2.48Zm45.4-7.9s-13.58,2.91-15.7,1.35a5.19,5.19,0,0,1-1.16-7.4c1.34-1.86,4.9-4.39,7.55-4.49s6-.18,6.87,2.53c.7,2.29-6.87,5.72-6.87,5.72s9.7-4.12,11.69-2.51c2.2,1.79,4,4.78,2.34,8.15-1.23,2.49-12.73,2.13-12.73,2.13s9.82-.35,9.44,4.31c-.21,2.59-4.91,4.71-8.57,4.91s-7.26-1.14-8.71-4.4-.34-6.4,2.3-7.29c3.39-1.15,13.54-3,13.54-3Z" style="fill:#ffbd03;stroke:#000;stroke-width:0.75px"/><path d="M518.46,388.8s2.86,13.78,1.33,15.94a5,5,0,0,1-7.29,1.17c-1.83-1.36-4.32-5-4.43-7.67s-.17-6.13,2.49-7c2.25-.71,5.64,7,5.64,7s-4.06-9.85-2.47-11.87c1.77-2.24,4.71-4.06,8-2.38,2.45,1.24,2.1,12.93,2.1,12.93s-.35-10,4.25-9.59c2.55.21,4.63,5,4.84,8.7s-1.12,7.37-4.33,8.84-6.3.34-7.18-2.34c-1.13-3.44-3-13.74-3-13.74Z" style="fill:#ffbd03;stroke:#000;stroke-width:0.75px"/><path d="M517.18,416.29c1.15,5.87,4.69,10.1,7.9,9.45s4.88-5.93,3.72-11.8-4.69-10.1-7.9-9.45S516,410.42,517.18,416.29Z" style="fill:#058e6e;stroke:#000;stroke-linecap:round;stroke-width:0.75px"/><path d="M615.15,423.25a4.51,4.51,0,1,1-4.51-4.58A4.54,4.54,0,0,1,615.15,423.25Z" style="stroke:#000;stroke-linecap:round;stroke-width:0.75px;fill:url(#ad)"/><path d="M557.88,423.81a4.51,4.51,0,1,1-4.51-4.58A4.54,4.54,0,0,1,557.88,423.81Z" style="stroke:#000;stroke-linecap:round;stroke-width:0.75px;fill:url(#ae)"/><path d="M582.61,469.9c-36.42,0-69.16,4.74-92.63,12.28-1.59.55-3.54-.75-4-2.28a3.65,3.65,0,0,1,2.18-4.18c23.6-7.82,57.16-12.76,94.49-12.8s71,5,94.57,12.8a3.64,3.64,0,0,1,2.18,4.18c-.45,1.53-2.45,2.84-4,2.28C651.87,474.64,619,469.94,582.61,469.9Z" style="fill:#ffbd03;stroke:#000;stroke-linejoin:round;stroke-width:0.75px"/><path d="M582.54,459l6.91-2.94-6.35-3.84-7.39,3.39Z" style="fill:#ce1126;stroke:#000;stroke-linejoin:round;stroke-width:0.75px"/><path d="M522.92,457.53l13-1.6a2.39,2.39,0,0,1,2.66,2.06l.06.46a2.35,2.35,0,0,1-2,2.64l-13,1.6a2.39,2.39,0,0,1-2.66-2.06l-.06-.46A2.35,2.35,0,0,1,522.92,457.53Z" style="fill:#058e6e;stroke:#000;stroke-linejoin:round;stroke-width:0.75px"/><path d="M521,455.49l16.19-2.08c2.28-.29,4.33,1,4.56,2.92l.38,3c.24,1.91-1.42,3.69-3.7,4l-16.19,2.08c-2.28.29-4.33-1-4.56-2.92l-.38-3C517.06,457.57,518.72,455.79,521,455.49Z" style="fill:none;stroke:#000;stroke-linecap:round;stroke-linejoin:round;stroke-width:0.75px"/><path d="M640.3,457.29l-12.89-1.66a2.36,2.36,0,0,0-2.64,2l-.08.66a2.38,2.38,0,0,0,2.06,2.65l12.89,1.66a2.36,2.36,0,0,0,2.64-2l.08-.66A2.38,2.38,0,0,0,640.3,457.29Z" style="fill:#058e6e;stroke:#000;stroke-linejoin:round;stroke-width:0.75px"/><path d="M642.57,455.2l-16.47-2.12a3.77,3.77,0,0,0-4.43,2.94l-.38,3a3.8,3.8,0,0,0,3.57,4l16.47,2.12a3.77,3.77,0,0,0,4.43-2.94l.38-3A3.8,3.8,0,0,0,642.57,455.2Z" style="fill:none;stroke:#000;stroke-linejoin:round;stroke-width:0.75px"/><path d="M582.55,462.78l14.08-6.62-13.12-7.34-14.83,6.53,13.87,7.43Z" style="fill:none;stroke:#000;stroke-linecap:round;stroke-linejoin:round;stroke-width:0.75px"/><path d="M607.45,455.73a2,2,0,0,1,0-4h0a2,2,0,0,1,0,4Z" style="fill:none;stroke:#000;stroke-linejoin:round;stroke-width:0.75px"/><path d="M607.45,461.4a2,2,0,0,1,0-4h0a2,2,0,0,1,0,4Z" style="fill:none;stroke:#000;stroke-linejoin:round;stroke-width:0.75px"/><path d="M555.68,456a2,2,0,0,1,0-4h0a2,2,0,0,1,0,4Z" style="fill:none;stroke:#000;stroke-linejoin:round;stroke-width:0.75px"/><path d="M555.68,461.67a2,2,0,0,1,0-4h0a2,2,0,0,1,0,4Z" style="fill:none;stroke:#000;stroke-linejoin:round;stroke-width:0.75px"/><path d="M508.36,462.4a2,2,0,0,0,1.62-2.28,2,2,0,0,0-2.24-1.65h0a2,2,0,0,0-1.62,2.28,2,2,0,0,0,2.24,1.65Z" style="fill:none;stroke:#000;stroke-linejoin:round;stroke-width:0.75px"/><path d="M509.25,468a2,2,0,0,0,1.62-2.28,2,2,0,0,0-2.24-1.65h0a2,2,0,0,0-1.62,2.28,2,2,0,0,0,2.24,1.65Z" style="fill:none;stroke:#000;stroke-linejoin:round;stroke-width:0.75px"/><path d="M465.52,360.72c30-9.81,67-15.39,113.46-15.51,46.36.12,93.47,5.59,123.38,15.4l-4.26,22.52c-27.07-9.25-71.1-16.23-114-16.28s-94.29,7.26-115.77,16c-.24,1.92-2.81-22.14-2.81-22.14Z" style="fill:#ffbd03;stroke:#000;stroke-linejoin:round;stroke-width:0.75px"/><path d="M687.38,348l-8-13.46s-7.52,8.52-17,7.08-12-17.28-12-17.28-12.47,14.7-21.13,14A18.06,18.06,0,0,1,616.37,331s-7.06,6.79-15.37,6.12-19.55-17.44-19.55-17.44-7.37,17.06-15.69,17.82-18.45-12.07-18.45-12.07-3.75,10.83-14.33,12.6-17.23-12.6-17.23-12.6-5.11,16-12.28,18.54-16.63-7-16.63-7L476.76,348.7l5.66,6.46c25.9-7.56,61-12.26,100.67-12.3s75.78,4.74,101.73,12.35l2.65-7.24h-.09Z" style="fill:#ffbd03;stroke:#000;stroke-width:0.75px"/><path d="M449.69,333.52c5.45,10.92,13.3,21.25,25.52,18.72s12.7-13,12.7-13,7.53,9.93,16,7.88,11.22-16.72,11.22-16.72,9.27,12.62,19.24,11.55S548,330,548,330s4.95,10.38,16.38,9.93c11.9-.47,18-15.64,18-15.64s8.36,15.55,19,15.54a16.57,16.57,0,0,0,14.7-8.92s3.24,10.1,13.76,10.75S649.68,329,649.68,329s4.38,15.46,13,17.17c9.11,1.81,16.52-7.35,16.52-7.35s3.31,11.93,12.35,13.33c8.72,1.35,17.85-8.41,24-20.39-9.48,5.29-15.85,15.9-22.66,13.73-6.38-2-12.61-15.68-12.61-15.68s-9.32,10.67-16.81,8.11S652.19,309,652.19,309s-11,27.64-21.29,24.83-15.13-15.93-15.13-15.93-4,14.43-14.85,15c-11.32.54-18.63-31.58-18.63-31.58S573,333.22,564.13,333s-17.21-14.79-17.21-14.79-2.79,15.53-12.82,15.09-24-23.59-24-23.59.89,27.43-7,29.84c-7.48,2.28-20.85-11.54-20.85-11.54s3.79,15.46-5.77,18c-9.4,2.53-15.15-7.72-26.79-12.54Z" style="fill:#ffbd03;stroke:#000;stroke-width:0.75px"/><path d="M583.67,347.72c-45.17,0-85.78,5.66-114.88,14.68-2,.66-4.39-.9-5-2.73a4.32,4.32,0,0,1,2.7-5c29.27-9.35,70.89-15.25,117.19-15.3s88,5.95,117.3,15.3a4.33,4.33,0,0,1,2.7,5c-.56,1.83-3,3.39-4.95,2.73-29.15-9-69.94-14.64-115-14.68Z" style="fill:#ffbd03;stroke:#000;stroke-linejoin:round;stroke-width:0.75px"/><path d="M609.9,302.46s-16.59-.14-18.67-2.51a6.21,6.21,0,0,1,.52-8.94c2-1.83,6.83-3.85,10-3.28s7.1,1.37,7.38,4.74c.24,2.85-9.46,4.89-9.46,4.89s12.37-2.28,14.28.12c2.12,2.67,3.46,6.62.67,10.13-2.06,2.59-15.41-.83-15.41-.83s11.56,2.15,9.94,7.5c-.9,3-6.92,4.22-11.25,3.51s-8.19-3.22-9.06-7.4,1.22-7.56,4.53-7.91c4.25-.46,16.57,0,16.57,0Zm-55.07.44s16.58.51,18.75-1.78a6.21,6.21,0,0,0-.18-9c-2-1.9-6.68-4.11-9.82-3.67s-7.14,1.09-7.56,4.45c-.35,2.84,9.27,5.26,9.27,5.26S553,295.45,551,297.77c-2.22,2.58-3.71,6.48-1.06,10.09,2,2.67,15.43-.23,15.43-.23s-11.63,1.69-10.22,7.1c.78,3,6.76,4.48,11.1,3.94s8.3-2.9,9.33-7-.93-7.6-4.23-8.09c-4.23-.62-16.56-.66-16.56-.66Z" style="fill:#ffbd03;stroke:#000;stroke-width:0.75px"/><path d="M582.42,270.29s-.5,16.84,1.75,19a6,6,0,0,0,8.82-.18c1.88-2,4.05-6.78,3.61-10s-1.07-7.25-4.38-7.67c-2.8-.35-5.18,9.41-5.18,9.41s2.72-12.47.43-14.49c-2.54-2.25-6.38-3.77-9.94-1.07-2.63,2,.22,15.67.22,15.67s-1.67-11.81-7-10.37c-3,.8-4.42,6.86-3.88,11.28s2.86,8.43,6.93,9.48,7.48-.95,8-4.29c.61-4.29.65-16.81.65-16.81Z" style="fill:#ffbd03;stroke:#000;stroke-width:0.75px"/><path d="M589.67,302.34c-.14,7.15-3.42,12.89-7.33,12.81s-7-5.94-6.84-13.09,3.42-12.89,7.33-12.81S589.81,295.19,589.67,302.34Z" style="fill:#ce1126;stroke:#000;stroke-linecap:round;stroke-width:0.75px"/><path d="M679.63,313.23s-16.22-3.5-17.8-6.25a6.2,6.2,0,0,1,2.27-8.66c2.35-1.38,7.45-2.39,10.4-1.2s6.69,2.78,6.3,6.14c-.33,2.84-10.24,2.88-10.24,2.88s12.57.27,14,3c1.55,3,2.09,7.19-1.33,10.06-2.53,2.12-14.93-3.94-14.93-3.94s10.9,4.45,8.26,9.36c-1.46,2.73-7.61,2.73-11.71,1.15s-7.39-4.82-7.42-9.09,2.68-7.16,6-6.84c4.25.41,16.24,3.36,16.24,3.36Zm-54-10.74s16.15,3.86,18.72,2.06a6.2,6.2,0,0,0,1.58-8.81c-1.55-2.26-5.73-5.39-8.9-5.59s-7.21-.38-8.28,2.83c-.9,2.71,8,7,8,7s-11.49-5.2-13.9-3.33c-2.68,2.08-4.91,5.6-3,9.67,1.4,3,15.16,2.91,15.16,2.91s-11.73-.7-11.41,4.89c.18,3.1,5.74,5.77,10.1,6.12s8.71-1.16,10.53-5,.58-7.64-2.55-8.78c-4-1.47-16.1-4-16.1-4Z" style="fill:#ffbd03;stroke:#000;stroke-width:0.75px"/><path d="M659,276.13s-3.8,16.4-2,19a6,6,0,0,0,8.68,1.61c2.23-1.57,5.3-5.82,5.5-9s.38-7.32-2.78-8.41c-2.67-.91-6.93,8.17-6.93,8.17s5.12-11.66,3.28-14.11c-2.05-2.72-5.51-5-9.53-3.07-3,1.42-2.86,15.4-2.86,15.4s.69-11.91-4.81-11.58c-3.05.18-5.68,5.83-6,10.26s1.14,8.84,4.93,10.69,7.52.59,8.65-2.59c1.45-4.08,3.94-16.34,3.94-16.34Z" style="fill:#ffbd03;stroke:#000;stroke-width:0.75px"/><path d="M659.8,309c-1.54,7-5.88,11.93-9.7,11.06s-5.67-7.23-4.13-14.21,5.88-11.93,9.7-11.06S661.34,302,659.8,309Z" style="fill:#058e6e;stroke:#000;stroke-linecap:round;stroke-width:0.75px"/><path d="M484.59,312.78s16.3-3.12,17.94-5.82a6.2,6.2,0,0,0-2.07-8.71c-2.32-1.43-7.39-2.56-10.37-1.44s-6.75,2.62-6.44,6c.26,2.85,10.17,3.12,10.17,3.12s-12.58,0-14,2.68c-1.62,3-2.25,7.14,1.1,10.09,2.48,2.18,15-3.58,15-3.58s-11,4.19-8.48,9.16c1.4,2.76,7.55,2.91,11.68,1.43s7.5-4.64,7.63-8.91-2.52-7.22-5.84-7c-4.26.31-16.31,3-16.31,3Zm54.28-9.45s-16.23,3.48-18.77,1.61a6.21,6.21,0,0,1-1.38-8.85c1.6-2.23,5.86-5.25,9-5.37s7.22-.21,8.21,3c.84,2.73-8.21,6.84-8.21,6.84s11.6-4.93,14-3c2.63,2.15,4.78,5.72,2.8,9.74-1.46,3-15.23,2.55-15.23,2.55s11.74-.42,11.29,5.16c-.25,3.09-5.87,5.63-10.24,5.87s-8.68-1.37-10.41-5.26-.4-7.65,2.75-8.72C526.73,305.57,538.86,303.33,538.86,303.33Z" style="fill:#ffbd03;stroke:#000;stroke-width:0.75px"/><path d="M506,276.18s3.42,16.48,1.59,19.05a6,6,0,0,1-8.71,1.4c-2.19-1.62-5.17-5.95-5.29-9.17s-.21-7.33,3-8.34c2.69-.85,6.74,8.34,6.74,8.34s-4.85-11.78-3-14.19c2.11-2.67,5.63-4.85,9.6-2.84,2.93,1.49,2.51,15.46,2.51,15.46s-.41-11.92,5.08-11.47c3,.25,5.54,6,5.79,10.4s-1.34,8.81-5.18,10.57-7.53.41-8.59-2.79c-1.35-4.12-3.56-16.43-3.56-16.43Z" style="fill:#ffbd03;stroke:#000;stroke-width:0.75px"/><path d="M504.52,309c1.38,7,5.61,12.07,9.45,11.29s5.83-7.09,4.45-14.11-5.61-12.07-9.45-11.29S503.14,302,504.52,309Z" style="fill:#058e6e;stroke:#000;stroke-linecap:round;stroke-width:0.75px"/><path d="M693.25,318.88s13.93,9.15,17,8.33a6.16,6.16,0,0,0,4.41-7.76c-.71-2.66-3.62-7-6.54-8.3s-6.67-2.82-8.73-.16c-1.75,2.25,5.25,9.37,5.25,9.37s-9.1-8.82-12-7.88c-3.21,1-6.48,3.6-6,8.08.32,3.31,13.32,7.91,13.32,7.91s-10.81-4.66-12.36.71c-.86,3,3.5,7.39,7.49,9.21s8.58,1.88,11.57-1.12,3.07-7,.5-9.14c-3.3-2.76-13.84-9.26-13.84-9.26Z" style="fill:#ffbd03;stroke:#000;stroke-width:0.75px"/><path d="M736.76,302.77c.35-5.11-1.31-8.11-5.29-5.46-3.38,2.25-7.46,14.88-7.46,14.88s4.59-11-.7-12.55c-2.93-.87-7.28,3.55-9.07,7.61S712.4,316,715.35,319s7.93,2.08,10.67.17c8.73-6.07,10.46-12.43,10.74-16.4Z" style="fill:#ffbd03;stroke:#000;stroke-width:0.75px"/><path d="M723.33,336.73c-3.76,6-9.49,9.23-12.8,7.11s-2.94-8.74.82-14.79,9.49-9.23,12.8-7.11S727.09,330.68,723.33,336.73Z" style="fill:#ce1126;stroke:#000;stroke-linecap:round;stroke-width:0.75px"/><path d="M470.66,318.65s-13.93,9.15-17,8.33a6.16,6.16,0,0,1-4.41-7.76c.71-2.66,3.62-7,6.54-8.3s6.67-2.82,8.73-.16c1.75,2.25-5.25,9.37-5.25,9.37s9.1-8.82,12-7.88c3.21,1,6.48,3.6,6,8.08-.32,3.31-13.32,7.91-13.32,7.91s10.81-4.66,12.36.71c.86,3-3.5,7.39-7.49,9.21s-8.58,1.88-11.57-1.12-3.07-7-.5-9.14c3.3-2.76,13.84-9.26,13.84-9.26Z" style="fill:#ffbd03;stroke:#000;stroke-width:0.75px"/><path d="M427.15,302.54c-.35-5.1,1.31-8.11,5.29-5.46,3.38,2.25,7.46,14.88,7.46,14.88s-4.59-11,.7-12.55c2.93-.87,7.28,3.55,9.07,7.61s1.85,8.72-1.11,11.75-7.93,2.08-10.67.17c-8.73-6.07-10.46-12.43-10.74-16.4Z" style="fill:#ffbd03;stroke:#000;stroke-width:0.75px"/><path d="M440.58,336.5c3.76,6,9.49,9.23,12.8,7.11s2.94-8.74-.82-14.79-9.49-9.23-12.8-7.11S436.82,330.45,440.58,336.5Z" style="fill:#ce1126;stroke:#000;stroke-linecap:round;stroke-width:0.75px"/><path d="M685.71,329.38A4.71,4.71,0,1,1,681,324.6,4.74,4.74,0,0,1,685.71,329.38Z" style="stroke:#000;stroke-linecap:round;stroke-width:0.75px;fill:url(#af)"/><path d="M621.66,317.38a5.39,5.39,0,1,1-5.39-5.47A5.43,5.43,0,0,1,621.66,317.38Z" style="stroke:#000;stroke-linecap:round;stroke-width:0.75px;fill:url(#ag)"/><path d="M553.17,318.07a5.39,5.39,0,1,1-5.39-5.47A5.43,5.43,0,0,1,553.17,318.07Z" style="stroke:#000;stroke-linecap:round;stroke-width:0.75px;fill:url(#ah)"/><path d="M487.49,328.87a4.83,4.83,0,1,1-4.83-4.9A4.87,4.87,0,0,1,487.49,328.87Z" style="stroke:#000;stroke-linecap:round;stroke-width:0.75px;fill:url(#ai)"/><path d="M582.74,373.15c-43.54,0-82.69,5.66-110.75,14.68-1.91.66-4.23-.9-4.83-2.73a4.36,4.36,0,0,1,2.6-5c28.21-9.35,68.34-15.25,113-15.3s84.86,5.95,113.07,15.3a4.36,4.36,0,0,1,2.6,5c-.54,1.83-2.92,3.39-4.77,2.73-28.1-9-67.42-14.64-110.91-14.68Z" style="fill:#ffbd03;stroke:#000;stroke-linejoin:round;stroke-width:0.75px"/><path d="M582.65,360.17l8.26-3.52-7.59-4.59-8.83,4.05Z" style="fill:#ce1126;stroke:#000;stroke-linejoin:round;stroke-width:0.75px"/><path d="M511.37,358.35l15.5-1.91A2.85,2.85,0,0,1,530,358.9l.07.55a2.81,2.81,0,0,1-2.44,3.15l-15.5,1.91A2.85,2.85,0,0,1,509,362l-.07-.55A2.81,2.81,0,0,1,511.37,358.35Z" style="fill:#058e6e;stroke:#000;stroke-linejoin:round;stroke-width:0.75px"/><path d="M509.08,355.91l19.36-2.49c2.73-.35,5.17,1.21,5.46,3.49l.45,3.61c.28,2.28-1.7,4.41-4.43,4.76l-19.36,2.49c-2.73.35-5.17-1.21-5.46-3.49l-.45-3.61C504.37,358.4,506.35,356.26,509.08,355.91Z" style="fill:none;stroke:#000;stroke-linecap:round;stroke-linejoin:round;stroke-width:0.75px"/><path d="M651.71,358.08l-15.41-2a2.82,2.82,0,0,0-3.16,2.45l-.1.79a2.84,2.84,0,0,0,2.46,3.17l15.41,2a2.82,2.82,0,0,0,3.16-2.45l.1-.79A2.84,2.84,0,0,0,651.71,358.08Z" style="fill:#058e6e;stroke:#000;stroke-linejoin:round;stroke-width:0.75px"/><path d="M654.43,355.57,634.74,353c-2.64-.34-5,1.23-5.29,3.51l-.45,3.61c-.28,2.28,1.62,4.4,4.26,4.74l19.69,2.53c2.64.34,5-1.23,5.29-3.51l.45-3.61C659,358,657.07,355.91,654.43,355.57Z" style="fill:none;stroke:#000;stroke-linejoin:round;stroke-width:0.75px"/><path d="M582.67,364.64l16.83-7.91-15.68-8.78-17.73,7.81,16.58,8.88Z" style="fill:none;stroke:#000;stroke-linecap:round;stroke-linejoin:round;stroke-width:0.75px"/><path d="M612.42,356.18a2.37,2.37,0,0,1,0-4.75h0a2.37,2.37,0,0,1,0,4.75Z" style="fill:none;stroke:#000;stroke-linejoin:round;stroke-width:0.75px"/><path d="M612.42,363a2.37,2.37,0,0,1,0-4.75h0a2.37,2.37,0,0,1,0,4.75Z" style="fill:none;stroke:#000;stroke-linejoin:round;stroke-width:0.75px"/><path d="M550.53,356.51a2.37,2.37,0,0,1,0-4.75h0a2.37,2.37,0,0,1,0,4.75Z" style="fill:none;stroke:#000;stroke-linejoin:round;stroke-width:0.75px"/><path d="M550.53,363.28a2.37,2.37,0,0,1,0-4.75h0a2.37,2.37,0,0,1,0,4.75Z" style="fill:none;stroke:#000;stroke-linejoin:round;stroke-width:0.75px"/><path d="M657.77,462.39a2,2,0,0,1-1.62-2.28,2,2,0,0,1,2.24-1.65h0a2,2,0,0,1,1.62,2.28,2,2,0,0,1-2.24,1.65Z" style="fill:none;stroke:#000;stroke-linejoin:round;stroke-width:0.75px"/><path d="M656.89,468a2,2,0,0,1-1.62-2.28,2,2,0,0,1,2.24-1.65h0a2,2,0,0,1,1.62,2.28,2,2,0,0,1-2.24,1.65Z" style="fill:none;stroke:#000;stroke-linejoin:round;stroke-width:0.75px"/><path d="M486.07,472l-4.26-3.79,2.89-3.9,7.89,1.68Z" style="fill:#ce1126;stroke:#000;stroke-linejoin:round;stroke-width:0.75px"/><path d="M488.87,424.32s-11.65,7.65-14.18,7A5.15,5.15,0,0,1,471,424.8c.59-2.22,3-5.88,5.47-6.94s5.58-2.36,7.3-.14c1.46,1.88-4.39,7.84-4.39,7.84s7.61-7.37,10-6.59c2.69.88,5.42,3,5.06,6.76-.27,2.77-11.14,6.62-11.14,6.62s9-3.9,10.34.6c.72,2.49-2.93,6.18-6.27,7.7s-7.18,1.57-9.68-.94-2.57-5.85-.42-7.64c2.76-2.3,11.57-7.74,11.57-7.74Z" style="fill:#ffbd03;stroke:#000;stroke-width:0.75px"/><path d="M452.48,410.85c-.29-4.27,1.1-6.79,4.42-4.57,2.83,1.89,6.24,12.45,6.24,12.45s-3.84-9.18.59-10.5c2.45-.73,6.09,3,7.59,6.36s1.55,7.29-.93,9.83-6.63,1.74-8.93.14c-7.3-5.07-8.75-10.4-9-13.71Z" style="fill:#ffbd03;stroke:#000;stroke-width:0.75px"/><path d="M463.68,439.29c3.14,5.06,7.94,7.72,10.71,5.95s2.46-7.31-.68-12.37-7.94-7.72-10.71-5.95S460.53,434.23,463.68,439.29Z" style="fill:#ce1126;stroke:#000;stroke-linecap:round;stroke-width:0.75px"/><path d="M502.93,432.88a4,4,0,1,1-4-4.1A4.07,4.07,0,0,1,502.93,432.88Z" style="stroke:#000;stroke-linecap:round;stroke-width:0.75px;fill:url(#aj)"/><path d="M486.81,476.26l12.4-11.72-14.4-3.8" style="fill:none;stroke:#000;stroke-linecap:round;stroke-linejoin:round;stroke-width:0.75px"/><path d="M467.31,375.66l-5.09-4.53,3.45-4.66,9.43,2Z" style="fill:#ce1126;stroke:#000;stroke-linejoin:round;stroke-width:0.75px"/><path d="M468.2,380.74l14.83-14-17.21-4.54" style="fill:none;stroke:#000;stroke-linecap:round;stroke-linejoin:round;stroke-width:0.75px"/><path d="M494,364.21a2.37,2.37,0,0,0,1.94-2.72,2.34,2.34,0,0,0-2.68-2h0a2.37,2.37,0,0,0-1.94,2.72,2.34,2.34,0,0,0,2.68,2Z" style="fill:none;stroke:#000;stroke-linejoin:round;stroke-width:0.75px"/><path d="M495.09,370.9a2.37,2.37,0,0,0,1.94-2.72,2.34,2.34,0,0,0-2.68-2h0a2.37,2.37,0,0,0-1.94,2.72,2.34,2.34,0,0,0,2.68,2Z" style="fill:none;stroke:#000;stroke-linejoin:round;stroke-width:0.75px"/><path d="M675,424.51s11.65,7.65,14.18,7a5.15,5.15,0,0,0,3.69-6.49c-.59-2.22-3-5.88-5.47-6.94s-5.58-2.36-7.3-.14c-1.46,1.88,4.39,7.84,4.39,7.84s-7.61-7.37-10-6.59c-2.69.88-5.42,3-5.06,6.76.27,2.77,11.14,6.62,11.14,6.62s-9-3.9-10.34.6c-.72,2.49,2.93,6.18,6.27,7.7s7.18,1.57,9.68-.94,2.57-5.85.42-7.64c-2.76-2.3-11.57-7.74-11.57-7.74Z" style="fill:#ffbd03;stroke:#000;stroke-width:0.75px"/><path d="M711.44,411c.3-4.27-1.1-6.79-4.42-4.57-2.83,1.89-6.24,12.45-6.24,12.45s3.84-9.18-.59-10.5c-2.45-.73-6.09,3-7.59,6.36s-1.55,7.29.93,9.83,6.63,1.74,8.93.14c7.3-5.07,8.75-10.4,9-13.71Z" style="fill:#ffbd03;stroke:#000;stroke-width:0.75px"/><path d="M698,381.39l-13.77-14.22,16.8-4.85" style="fill:none;stroke:#000;stroke-linejoin:round;stroke-width:0.75px"/><path d="M698.7,375.68l5.79-3.5-3.73-5.35-9.15,1.91,7.09,6.94Z" style="fill:#ce1126;stroke:#000;stroke-linejoin:round;stroke-width:0.75px"/><path d="M672.54,364.19a2.37,2.37,0,0,1-1.94-2.72,2.34,2.34,0,0,1,2.68-2h0a2.37,2.37,0,0,1,1.94,2.72,2.34,2.34,0,0,1-2.68,2Z" style="fill:none;stroke:#000;stroke-linejoin:round;stroke-width:0.75px"/><path d="M671.47,370.87a2.37,2.37,0,0,1-1.94-2.72,2.34,2.34,0,0,1,2.68-2h0a2.37,2.37,0,0,1,1.94,2.72,2.34,2.34,0,0,1-2.68,2Z" style="fill:none;stroke:#000;stroke-linejoin:round;stroke-width:0.75px"/><path d="M679,476.8l-11.52-11.89,14.05-4.06" style="fill:none;stroke:#000;stroke-linejoin:round;stroke-width:0.75px"/><path d="M679.61,472l4.84-2.92-3.12-4.48-7.66,1.6Z" style="fill:#ce1126;stroke:#000;stroke-linejoin:round;stroke-width:0.75px"/><path d="M700.24,439.48c-3.14,5.06-7.94,7.72-10.71,5.95s-2.46-7.31.68-12.37,7.94-7.72,10.71-5.95S703.38,434.42,700.24,439.48Z" style="fill:#ce1126;stroke:#000;stroke-linecap:round;stroke-width:0.75px"/><path d="M668.73,433.29a3.94,3.94,0,1,1-3.94-4A4,4,0,0,1,668.73,433.29Z" style="stroke:#000;stroke-linecap:round;stroke-width:0.75px;fill:url(#ak)"/><path d="M582.46,114.68a39.47,39.47,0,0,0-14,2.09c-1.24,4-1,9.22,0,13.84,3.56-1.74,10.38-2.19,14-2.19s10.48.45,14,2.19c1-4.62,1.24-9.86,0-13.84A39.46,39.46,0,0,0,582.46,114.68Z" style="fill:#ffbd03;stroke:#000;stroke-linecap:round;stroke-linejoin:round;stroke-width:0.75px"/><path d="M283.6,309.41a12.8,12.8,0,0,1,11.81,12l-2.5-2.53c-9.45,2.4-21.28,14.42-23.66,24l2.5,2.53a11.91,11.91,0,0,1-11.78-12c5.13-12.38,11.79-18.41,23.62-24Z" style="fill:#ffbd03;stroke:#000;stroke-width:0.75px"/><path d="M283.6,309.41a12.8,12.8,0,0,1,11.81,12l-2.5-2.53c-9.45,2.4-21.28,14.42-23.66,24l2.5,2.53a11.91,11.91,0,0,1-11.78-12c5.13-12.38,11.79-18.41,23.62-24Z" style="opacity:0.6000000238418579;isolation:isolate;fill:url(#al)"/><path d="M323.3,302.52a1.5,1.5,0,0,1,.88,2.06c-2.69,6.13-6.23,11.91-13,13.69a1.5,1.5,0,1,1-.75-2.89c5.43-1.44,8.38-6.14,11-12a1.5,1.5,0,0,1,1.88-.82Z" style="fill:#ffbd03;stroke:#000;stroke-linecap:round;stroke-linejoin:round;stroke-width:0.75px"/><path d="M325.36,304.16a1.5,1.5,0,0,1,1,2.09c-2.71,6.17-6.53,11.82-12.07,15.94a1.5,1.5,0,1,1-1.8-2.39c5-3.73,8.57-8.91,11.13-14.75a1.5,1.5,0,0,1,1.74-.89Z" style="fill:#ffbd03;stroke:#000;stroke-linecap:round;stroke-linejoin:round;stroke-width:0.75px"/><path d="M327.33,306.34a1.5,1.5,0,0,1,1,2.09c-2.67,6.08-6.07,12.62-11.58,16.73a1.5,1.5,0,1,1-1.8-2.39c4.74-3.54,8-9.6,10.63-15.53a1.5,1.5,0,0,1,1.74-.89h0Zm4.27,4.59a1.5,1.5,0,0,1,.89,2c-2.68,6.11-6.36,12.64-11.3,17.08a1.5,1.5,0,1,1-2-2.22c4.4-4,8-10.16,10.59-16.05A1.5,1.5,0,0,1,331.6,310.93Z" style="fill:#ffbd03;stroke:#000;stroke-linecap:round;stroke-linejoin:round;stroke-width:0.75px"/><path d="M329.48,308.69a1.5,1.5,0,0,1,1,2.09,30.57,30.57,0,0,1-5.48,8.79c-2.33,2.43-5.4,4.09-8.86,3.34a1.5,1.5,0,1,1,.63-2.93c2.25.49,4.16-.5,6.08-2.5a28.2,28.2,0,0,0,4.9-7.89,1.5,1.5,0,0,1,1.71-.89h0Zm4.07,4.5a1.5,1.5,0,0,1,1,2.09c-2.7,6.15-6.31,11.61-13.05,15.46a1.5,1.5,0,1,1-1.49-2.61c6.09-3.48,9.2-8.19,11.77-14.06a1.5,1.5,0,0,1,1.74-.89Z" style="fill:#ffbd03;stroke:#000;stroke-linecap:round;stroke-linejoin:round;stroke-width:0.75px"/><path d="M335.54,315.38a1.5,1.5,0,0,1,.88,2.06c-2.7,6.15-6.31,11.61-13.05,15.46a1.5,1.5,0,1,1-1.49-2.61c6.09-3.48,9.2-8.19,11.77-14.06a1.5,1.5,0,0,1,1.89-.85Z" style="fill:#ffbd03;stroke:#000;stroke-linecap:round;stroke-linejoin:round;stroke-width:0.75px"/><path d="M337.76,317.49a1.5,1.5,0,0,1,.88,2.06,30.7,30.7,0,0,1-13.57,14.93,1.5,1.5,0,1,1-1.49-2.61,27.29,27.29,0,0,0,12.32-13.52,1.5,1.5,0,0,1,1.86-.86Z" style="fill:#ffbd03;stroke:#000;stroke-linecap:round;stroke-linejoin:round;stroke-width:0.75px"/><path d="M340.17,320a1.5,1.5,0,0,1,.88,2.06c-2.75,6.26-6.63,10.08-13.2,13.83a1.5,1.5,0,1,1-1.49-2.61c6.27-3.58,9.43-6.69,12-12.45a1.5,1.5,0,0,1,1.85-.83Z" style="fill:#ffbd03;stroke:#000;stroke-linecap:round;stroke-linejoin:round;stroke-width:0.75px"/><path d="M342.27,321.59a1.5,1.5,0,0,1,.89,2c-2.68,6.1-5.92,11.75-12.65,13.67a1.51,1.51,0,0,1-.81-2.91c5.5-1.56,8.13-6,10.72-12A1.5,1.5,0,0,1,342.27,321.59Z" style="fill:#ffbd03;stroke:#000;stroke-linecap:round;stroke-linejoin:round;stroke-width:0.75px"/><path d="M344.49,323.82a1.5,1.5,0,0,1,.89,2c-2.62,6-5.12,12.2-12,16.12a1.5,1.5,0,1,1-1.49-2.61c6-3.41,8.09-8.67,10.73-14.71a1.5,1.5,0,0,1,1.85-.83Z" style="fill:#ffbd03;stroke:#000;stroke-linecap:round;stroke-linejoin:round;stroke-width:0.75px"/><path d="M346.74,325.93a1.5,1.5,0,0,1,.89,2c-2.69,6.14-6.28,11.8-12.39,15.94a1.5,1.5,0,1,1-1.68-2.46c5.52-3.74,8.76-8.8,11.33-14.67a1.5,1.5,0,0,1,1.85-.83Z" style="fill:#ffbd03;stroke:#000;stroke-linecap:round;stroke-linejoin:round;stroke-width:0.75px"/><path d="M349,328.16a1.5,1.5,0,0,1,.89,2c-2.7,6.15-6.31,11.61-13.05,15.46A1.5,1.5,0,1,1,335.3,343c6.09-3.48,9.2-8.19,11.77-14.06a1.5,1.5,0,0,1,1.88-.82Z" style="fill:#ffbd03;stroke:#000;stroke-linecap:round;stroke-linejoin:round;stroke-width:0.75px"/><path d="M351.14,330.52a1.5,1.5,0,0,1,.88,2.06c-2.69,6.13-6.23,11.91-13,13.69a1.5,1.5,0,1,1-.75-2.89c5.43-1.44,8.38-6.14,11-12a1.5,1.5,0,0,1,1.88-.82Z" style="fill:#ffbd03;stroke:#000;stroke-linecap:round;stroke-linejoin:round;stroke-width:0.75px"/><path d="M353.2,332.16a1.5,1.5,0,0,1,1,2.09c-2.71,6.17-6.53,11.82-12.07,15.94a1.5,1.5,0,1,1-1.8-2.39c5-3.73,8.57-8.91,11.13-14.75a1.5,1.5,0,0,1,1.74-.89Z" style="fill:#ffbd03;stroke:#000;stroke-linecap:round;stroke-linejoin:round;stroke-width:0.75px"/><path d="M355.16,334.34a1.5,1.5,0,0,1,1,2.09c-2.67,6.08-6.07,12.62-11.58,16.73a1.5,1.5,0,1,1-1.8-2.39c4.74-3.54,8-9.6,10.63-15.53a1.5,1.5,0,0,1,1.74-.89h0Zm4.27,4.59a1.5,1.5,0,0,1,.89,2C357.64,347.07,354,353.59,349,358a1.5,1.5,0,0,1-2-2.22c4.4-4,8-10.16,10.59-16.05A1.5,1.5,0,0,1,359.43,338.93Z" style="fill:#ffbd03;stroke:#000;stroke-linecap:round;stroke-linejoin:round;stroke-width:0.75px"/><path d="M357.56,336.21a1.5,1.5,0,0,1,1,2.09,30.57,30.57,0,0,1-5.48,8.79c-2.33,2.43-5.4,4.09-8.86,3.34a1.5,1.5,0,1,1,.63-2.93c2.25.49,4.16-.5,6.08-2.5a28.2,28.2,0,0,0,4.9-7.89,1.5,1.5,0,0,1,1.71-.89h0Z" style="fill:#ffbd03;stroke:#000;stroke-linecap:round;stroke-linejoin:round;stroke-width:0.75px"/><path d="M422.55,308.58l-39.1-38a35.5,35.5,0,0,1,7.09,9.67C421.31,339.85,374,509.41,425.8,551.8l38.92,37.83c-51.83-42.39-4.49-212-35.26-271.55a35.68,35.68,0,0,0-6.91-9.5Z" style="fill:#fff;stroke:#000;stroke-linecap:round;stroke-linejoin:round;stroke-width:0.75px"/><path d="M386.23,273.57a38.69,38.69,0,0,1,4.31,6.69c30.64,59.37-16.2,227.82,34.66,271-43.28-49.41-.38-209-30-266.47a35.68,35.68,0,0,0-6.91-9.5C387.61,274.69,386.92,274.11,386.23,273.57Z" style="fill:#ffbd03;stroke:#000;stroke-linecap:round;stroke-linejoin:round;stroke-width:0.75px"/><path d="M416.25,394c0,6.33,0,12.65-.05,19.46l-7.76-7.27-.38,18.35,7.7,3.46c-.26,10.74-1.8,21.67-1.54,32.89l9.19,6.33c-.45-11.4-1.14-23-.61-34.37l8.68,7.82q.28-9.64.56-18.54l-8.8-3.83a106.24,106.24,0,0,1,2.21-18L416.25,394Z" style="fill:#ffbd03;stroke:#000;stroke-width:0.75px"/><path d="M424.58,313.32c29.66,57.47-13.29,217.15,30.06,266.5l4.66,4.53c-43-49.65-.23-208.91-29.84-266.28a35.68,35.68,0,0,0-6.91-9.5c-7.94-8.57.09,1.21,2,4.75Zm34.72,271,.22.25c.07.06.15.1.22.16l-.44-.41Z" style="fill:#ffbd03;stroke:#000;stroke-linecap:round;stroke-linejoin:round;stroke-width:0.75px"/><path d="M422.55,308.58l-39.1-38a35.5,35.5,0,0,1,7.09,9.67C421.31,339.85,374,509.41,425.8,551.8l38.92,37.83c-51.83-42.39-4.49-212-35.26-271.55a35.68,35.68,0,0,0-6.91-9.5Z" style="opacity:0.502439022064209;isolation:isolate;fill:url(#am)"/><path d="M422.55,308.58l-39.1-38c-18.2-17.13-48.36-.42-62,32.48l38.92,37.83C374.06,307.89,404.38,291.17,422.55,308.58Z" style="fill:#fff;stroke:#000;stroke-linecap:round;stroke-linejoin:round;stroke-width:0.75px"/><path d="M400.08,296.82c-16.34.27-34.76,15.59-44.59,39.31l4.91,4.75c13.11-31.62,41.47-48.25,59.81-34.28-.52-.64-1-1.27-1.59-1.84l-.53-.53-.41-.41-.12-.09a24.26,24.26,0,0,0-17.47-6.91Zm-34.19-33.06c-16.3.37-34.64,15.67-44.44,39.31l4.66,4.5c13.69-33,44-49.65,62.16-32.25l-4.81-4.75a24.22,24.22,0,0,0-17.56-6.81Z" style="fill:#ffbd03;stroke:#000;stroke-linecap:round;stroke-linejoin:round;stroke-width:0.75px"/><path d="M840.61,302.52a1.5,1.5,0,0,0-.88,2.06c2.69,6.13,6.23,11.91,13,13.69a1.5,1.5,0,1,0,.75-2.89c-5.43-1.44-8.38-6.14-11-12a1.5,1.5,0,0,0-1.88-.82Z" style="fill:#ffbd03;stroke:#000;stroke-linecap:round;stroke-linejoin:round;stroke-width:0.75px"/><path d="M838.55,304.16a1.5,1.5,0,0,0-1,2.09c2.71,6.17,6.53,11.82,12.07,15.94a1.5,1.5,0,1,0,1.8-2.39c-5-3.73-8.57-8.91-11.13-14.75a1.5,1.5,0,0,0-1.74-.89Z" style="fill:#ffbd03;stroke:#000;stroke-linecap:round;stroke-linejoin:round;stroke-width:0.75px"/><path d="M836.59,306.34a1.5,1.5,0,0,0-1,2.09c2.67,6.08,6.07,12.62,11.58,16.73a1.5,1.5,0,1,0,1.8-2.39c-4.74-3.54-8-9.6-10.63-15.53a1.5,1.5,0,0,0-1.74-.89h0Zm-4.27,4.59a1.5,1.5,0,0,0-.89,2c2.68,6.11,6.36,12.64,11.3,17.08a1.5,1.5,0,0,0,2-2.22c-4.4-4-8-10.16-10.59-16.05A1.5,1.5,0,0,0,832.32,310.93Z" style="fill:#ffbd03;stroke:#000;stroke-linecap:round;stroke-linejoin:round;stroke-width:0.75px"/><path d="M834.43,308.69a1.5,1.5,0,0,0-1,2.09,30.57,30.57,0,0,0,5.48,8.79c2.33,2.43,5.4,4.09,8.86,3.34a1.5,1.5,0,1,0-.63-2.93c-2.25.49-4.16-.5-6.08-2.5a28.2,28.2,0,0,1-4.9-7.89,1.5,1.5,0,0,0-1.71-.89h0Zm-4.07,4.5a1.5,1.5,0,0,0-1,2.09c2.7,6.15,6.31,11.61,13.05,15.46a1.5,1.5,0,1,0,1.49-2.61c-6.09-3.48-9.2-8.19-11.77-14.06a1.5,1.5,0,0,0-1.74-.89Z" style="fill:#ffbd03;stroke:#000;stroke-linecap:round;stroke-linejoin:round;stroke-width:0.75px"/><path d="M828.38,315.38a1.5,1.5,0,0,0-.88,2.06c2.7,6.15,6.31,11.61,13.05,15.46a1.5,1.5,0,1,0,1.49-2.61c-6.09-3.48-9.2-8.19-11.77-14.06a1.5,1.5,0,0,0-1.89-.85Z" style="fill:#ffbd03;stroke:#000;stroke-linecap:round;stroke-linejoin:round;stroke-width:0.75px"/><path d="M826.16,317.49a1.5,1.5,0,0,0-.88,2.06,30.7,30.7,0,0,0,13.57,14.93,1.5,1.5,0,1,0,1.49-2.61A27.29,27.29,0,0,1,828,318.35a1.5,1.5,0,0,0-1.86-.86Z" style="fill:#ffbd03;stroke:#000;stroke-linecap:round;stroke-linejoin:round;stroke-width:0.75px"/><path d="M823.75,320a1.5,1.5,0,0,0-.88,2.06c2.75,6.26,6.63,10.08,13.2,13.83a1.5,1.5,0,1,0,1.49-2.61c-6.27-3.58-9.43-6.69-12-12.45a1.5,1.5,0,0,0-1.85-.83Z" style="fill:#ffbd03;stroke:#000;stroke-linecap:round;stroke-linejoin:round;stroke-width:0.75px"/><path d="M821.64,321.59a1.5,1.5,0,0,0-.89,2c2.68,6.1,5.92,11.75,12.65,13.67a1.51,1.51,0,1,0,.81-2.91c-5.5-1.56-8.13-6-10.72-12A1.5,1.5,0,0,0,821.64,321.59Z" style="fill:#ffbd03;stroke:#000;stroke-linecap:round;stroke-linejoin:round;stroke-width:0.75px"/><path d="M819.43,323.82a1.5,1.5,0,0,0-.89,2c2.62,6,5.12,12.2,12,16.12a1.5,1.5,0,1,0,1.49-2.61c-6-3.41-8.09-8.67-10.73-14.71a1.5,1.5,0,0,0-1.85-.83Z" style="fill:#ffbd03;stroke:#000;stroke-linecap:round;stroke-linejoin:round;stroke-width:0.75px"/><path d="M817.18,325.93a1.5,1.5,0,0,0-.89,2c2.69,6.14,6.28,11.8,12.39,15.94a1.5,1.5,0,1,0,1.68-2.46c-5.52-3.74-8.76-8.8-11.33-14.67a1.5,1.5,0,0,0-1.85-.83Z" style="fill:#ffbd03;stroke:#000;stroke-linecap:round;stroke-linejoin:round;stroke-width:0.75px"/><path d="M815,328.16a1.5,1.5,0,0,0-.89,2c2.7,6.15,6.31,11.61,13.05,15.46a1.5,1.5,0,1,0,1.49-2.61c-6.09-3.48-9.2-8.19-11.77-14.06a1.5,1.5,0,0,0-1.88-.82Z" style="fill:#ffbd03;stroke:#000;stroke-linecap:round;stroke-linejoin:round;stroke-width:0.75px"/><path d="M812.77,330.52a1.5,1.5,0,0,0-.88,2.06c2.69,6.13,6.23,11.91,13,13.69a1.5,1.5,0,1,0,.75-2.89c-5.43-1.44-8.38-6.14-11-12a1.5,1.5,0,0,0-1.88-.82Z" style="fill:#ffbd03;stroke:#000;stroke-linecap:round;stroke-linejoin:round;stroke-width:0.75px"/><path d="M810.72,332.16a1.5,1.5,0,0,0-1,2.09c2.71,6.17,6.53,11.82,12.07,15.94a1.5,1.5,0,1,0,1.8-2.39c-5-3.73-8.57-8.91-11.13-14.75a1.5,1.5,0,0,0-1.74-.89Z" style="fill:#ffbd03;stroke:#000;stroke-linecap:round;stroke-linejoin:round;stroke-width:0.75px"/><path d="M808.75,334.34a1.5,1.5,0,0,0-1,2.09c2.67,6.08,6.07,12.62,11.58,16.73a1.5,1.5,0,1,0,1.8-2.39c-4.74-3.54-8-9.6-10.63-15.53a1.5,1.5,0,0,0-1.74-.89h0Zm-4.27,4.59a1.5,1.5,0,0,0-.89,2c2.68,6.11,6.36,12.64,11.3,17.08a1.5,1.5,0,1,0,2-2.22c-4.4-4-8-10.16-10.59-16.05A1.5,1.5,0,0,0,804.48,338.93Z" style="fill:#ffbd03;stroke:#000;stroke-linecap:round;stroke-linejoin:round;stroke-width:0.75px"/><path d="M806.35,336.21a1.5,1.5,0,0,0-1,2.09,30.57,30.57,0,0,0,5.48,8.79c2.33,2.43,5.4,4.09,8.86,3.34a1.5,1.5,0,1,0-.63-2.93c-2.25.49-4.16-.5-6.08-2.5a28.2,28.2,0,0,1-4.9-7.89,1.5,1.5,0,0,0-1.71-.89h0Z" style="fill:#ffbd03;stroke:#000;stroke-linecap:round;stroke-linejoin:round;stroke-width:0.75px"/><path d="M741.36,308.58l39.1-38a35.5,35.5,0,0,0-7.09,9.67c-30.76,59.6,16.57,229.16-35.26,271.55L699.2,589.63c51.83-42.39,4.49-212,35.26-271.55a35.68,35.68,0,0,1,6.91-9.5Z" style="fill:#fff;stroke:#000;stroke-linecap:round;stroke-linejoin:round;stroke-width:0.75px"/><path d="M747.66,394c0,6.33,0,12.65.05,19.46l7.76-7.27.38,18.35-7.7,3.46c.26,10.74,1.8,21.67,1.54,32.89l-9.19,6.33c.45-11.4,1.14-23,.61-34.37l-8.68,7.82q-.28-9.64-.56-18.54l8.8-3.83a106.24,106.24,0,0,0-2.21-18l9.19-6.33Z" style="fill:#ffbd03;stroke:#000;stroke-width:0.75px"/><path d="M777.68,273.57a38.71,38.71,0,0,0-4.31,6.69c-30.64,59.37,16.2,227.82-34.66,271,43.28-49.41.38-209,30-266.47a35.67,35.67,0,0,1,6.91-9.5C776.31,274.69,777,274.11,777.68,273.57Zm-38.34,39.75c-29.66,57.47,13.29,217.15-30.06,266.5l-4.66,4.53c43-49.65.23-208.91,29.84-266.28a35.67,35.67,0,0,1,6.91-9.5C749.31,300,741.28,309.78,739.34,313.32Zm-34.72,271-.22.25c-.07.06-.15.1-.22.16l.44-.41Z" style="fill:#ffbd03;stroke:#000;stroke-linecap:round;stroke-linejoin:round;stroke-width:0.75px"/><path d="M741.36,308.58l39.1-38a35.5,35.5,0,0,0-7.09,9.67c-30.76,59.6,16.57,229.16-35.26,271.55L699.2,589.63c51.83-42.39,4.49-212,35.26-271.55a35.68,35.68,0,0,1,6.91-9.5Z" style="opacity:0.502439022064209;isolation:isolate;fill:url(#an)"/><path d="M741.36,308.58l39.1-38c18.2-17.13,48.36-.42,62,32.48l-38.92,37.83c-13.68-33-44-49.72-62.18-32.31Z" style="fill:#fff;stroke:#000;stroke-linecap:round;stroke-linejoin:round;stroke-width:0.75px"/><path d="M763.84,296.82c16.34.27,34.76,15.59,44.59,39.31l-4.91,4.75c-13.11-31.62-41.47-48.25-59.81-34.28.52-.64,1-1.27,1.59-1.84l.53-.53.41-.41.12-.09a24.26,24.26,0,0,1,17.47-6.91ZM798,263.76c16.3.37,34.64,15.67,44.44,39.31l-4.66,4.5c-13.69-33-44-49.65-62.16-32.25l4.81-4.75A24.22,24.22,0,0,1,798,263.76Z" style="fill:#ffbd03;stroke:#000;stroke-linecap:round;stroke-linejoin:round;stroke-width:0.75px"/><path d="M386.88,276.31c-5.93-.73-9.12,1-13.84,2.72l-4.55-8c-5.34.44-13.72,4.72-17.1,8.4,3.93,1.77,7.89,3.33,11.41,6.06-9.68,6.83-19.94,14.8-25.43,22.24L349.92,320c4.71-10.52,11.13-20.85,20.07-27.82,3,2.59,4.64,5.84,6.74,8.87A31,31,0,0,1,394,293.83a83.66,83.66,0,0,0-13.42-8.12c4.33-1.43,9.48-2.42,17.38,1l-11.09-10.43Zm390.15,0c5.93-.73,9.12,1,13.84,2.72l4.55-8c5.34.44,13.72,4.72,17.1,8.4-3.93,1.77-7.89,3.33-11.41,6.06,9.68,6.83,19.94,14.8,25.43,22.24L814,320c-4.71-10.52-11.13-20.85-20.07-27.82-3,2.59-4.64,5.84-6.74,8.87a31,31,0,0,0-17.29-7.26,83.65,83.65,0,0,1,13.43-8.12c-4.33-1.43-9.48-2.42-17.38,1L777,276.31Z" style="fill:#ffbd03;stroke:#000;stroke-width:0.75px"/><path d="M792.45,1088.37v-40m-3.77,39.54c-.21-13.84-2-26.58-.64-40.42m-3.12,39.78c-.21-13.87-3.11-27.4-.92-41m-2.85,39.32c-.12-13.84-4.39-27.68-1.19-41.52m-2.57,39.62c0-13.84-5.27-28.6-1.19-42.44m20,46.62c.21-13.84,2-26.58.64-40.42" style="fill:none;stroke:#000;stroke-linecap:round;stroke-linejoin:round;stroke-width:0.75px"/><path d="M779.29,1030.32c-3.3,0-15.7.13-19.5,14.94s2.53,45.56,2.53,45.56,5.82,6.31,17,6.31,17-6.31,17-6.31,6.33-30.75,2.53-45.56S782.59,1030.32,779.29,1030.32Z" style="fill:#bb0d0d;stroke:#000;stroke-width:0.75px"/><path d="M779.29,1097.15v-40m-3.77,39.54c-.21-13.84-2-26.58-.64-40.42M771.76,1096c-.21-13.87-3.11-27.4-.92-41M768,1094.36c-.12-13.84-4.39-27.68-1.19-41.52m-2.57,39.62c0-13.84-5.27-28.6-1.19-42.44m20,46.62c.21-13.84,2-26.58.64-40.42m3.12,39.78c.21-13.87,3.11-27.4.92-41m2.85,39.32c.12-13.84,4.39-27.68,1.19-41.52m2.57,39.62c0-13.84,5.27-28.6,1.19-42.44" style="fill:none;stroke:#000;stroke-linecap:round;stroke-linejoin:round;stroke-width:0.75px"/><path d="M796.13,1030.23a16.84,16.84,0,1,1-16.84-16.84A16.84,16.84,0,0,1,796.13,1030.23Z" style="fill:#bb0d0d;stroke:#000;stroke-linecap:round;stroke-linejoin:round;stroke-width:0.75px"/><path d="M758.44,920.83c-10.58,0-18.07,3.56-23.86,6-1.51.64-2.47,1-3.84,1.51a93.46,93.46,0,0,0,25.13,12.93c.9-.07,1.53-.17,2.57-.17,4.19,0,5.41,1.13,7.41,4.66s3.29,9.54,3.29,14.54v59.52a10.15,10.15,0,0,0,20.3,0V960.33c0-7.73-1.28-16.48-5.76-24.41s-13.88-15.09-25.24-15.09h0Z" style="fill:#bb0d0d;stroke:#000;stroke-linecap:round;stroke-linejoin:round;stroke-width:0.75px"/><path d="M373.88,1088.37v-40m3.77,39.54c.21-13.84,2-26.58.64-40.42m3.12,39.78c.21-13.87,3.11-27.4.92-41m2.85,39.32c.12-13.84,4.39-27.68,1.19-41.52m2.57,39.62c0-13.84,5.27-28.6,1.19-42.44m-20,46.62c-.21-13.84-2-26.58-.64-40.42" style="fill:none;stroke:#000;stroke-linecap:round;stroke-linejoin:round;stroke-width:0.75px"/><path d="M387,1030.32c3.3,0,15.7.13,19.5,14.94s-2.53,45.56-2.53,45.56-5.82,6.31-17,6.31-17-6.31-17-6.31-6.33-30.75-2.53-45.56S383.74,1030.32,387,1030.32Z" style="fill:#bb0d0d;stroke:#000;stroke-width:0.75px"/><path d="M387,1097.15v-40m3.77,39.54c.21-13.84,2-26.58.64-40.42m3.12,39.78c.21-13.87,3.11-27.4.92-41m2.85,39.32c.12-13.84,4.39-27.68,1.19-41.52m2.57,39.62c0-13.84,5.27-28.6,1.19-42.44m-20,46.62c-.21-13.84-2-26.58-.64-40.42M379.5,1096c-.21-13.87-3.11-27.4-.92-41m-2.85,39.32c-.12-13.84-4.39-27.68-1.19-41.52M372,1092.46c0-13.84-5.27-28.6-1.19-42.44" style="fill:none;stroke:#000;stroke-linecap:round;stroke-linejoin:round;stroke-width:0.75px"/><path d="M370.2,1030.23A16.84,16.84,0,1,0,387,1013.39,16.84,16.84,0,0,0,370.2,1030.23Z" style="fill:#bb0d0d;stroke:#000;stroke-linecap:round;stroke-linejoin:round;stroke-width:0.75px"/><path d="M407.89,920.83c10.58,0,18.07,3.56,23.86,6,1.51.64,2.47,1,3.84,1.51a93.46,93.46,0,0,1-25.13,12.93c-.9-.07-1.53-.17-2.57-.17-4.19,0-5.41,1.13-7.41,4.66s-3.29,9.54-3.29,14.54v59.52a10.15,10.15,0,0,1-20.3,0V960.33c0-7.73,1.28-16.48,5.76-24.41s13.88-15.09,25.24-15.09h0Z" style="fill:#bb0d0d;stroke:#000;stroke-linecap:round;stroke-linejoin:round;stroke-width:0.75px"/></svg>