<svg xmlns="http://www.w3.org/2000/svg" viewBox="0 0 768 768"><title>Virgin_Islands</title><path d="M384.22,758.05c-206.5.12-374-167.11-374.27-373.61S176.84,10.31,383.34,9.95,757.81,176.62,758.05,383.56,590.72,757.93,384.22,758.05Z" style="fill:#f9f743;stroke:#000;stroke-linecap:square;stroke-width:20px"/><path d="M416.69,748.67c7.38,0,11.87,2.22,17.29,4.79-15.11,4.87-17.51,12.73-46.22,12.73-4.35,0-8.84-.21-12.18-1.28,16.88-4.87,15.24-16.24,41.11-16.24Z" style="fill:#f49713;stroke:#000;stroke-linecap:round;stroke-linejoin:round;stroke-width:3px"/><path d="M447.37,744.64c7.35-.62,12,1.22,17.63,3.33-14.65,6.12-16.38,14.15-45,16.55-4.34.36-8.83.53-12.24-.26,16.41-6.27,13.83-17.46,39.6-19.62h0Z" style="fill:#f49713;stroke:#000;stroke-linecap:round;stroke-linejoin:round;stroke-width:3px"/><path d="M478.5,738c7.27-1.23,12.07.21,17.85,1.84-14.09,7.32-15.14,15.47-43.45,20.26-4.29.73-8.75,1.27-12.22.76C456.51,753.22,453,742.28,478.5,738h0Z" style="fill:#f49713;stroke:#000;stroke-linecap:round;stroke-linejoin:round;stroke-width:3px"/><path d="M507.72,728.66c7.14-1.83,12-.8,17.94.34-13.42,8.47-13.79,16.68-41.61,23.82-4.21,1.08-8.61,2-12.11,1.78,15.14-8.91,10.73-19.52,35.78-25.95h0Z" style="fill:#f49713;stroke:#000;stroke-linecap:round;stroke-linejoin:round;stroke-width:3px"/><path d="M535.81,717.29c7-2.43,11.94-1.8,17.91-1.16-12.67,9.57-12.35,17.78-39.47,27.22-4.11,1.43-8.42,2.71-11.92,2.79,14.34-10.15,9.06-20.35,33.48-28.85h0Z" style="fill:#f49713;stroke:#000;stroke-linecap:round;stroke-linejoin:round;stroke-width:3px"/><path d="M563.26,703.51c6.74-3,11.74-2.8,17.75-2.65-11.82,10.59-10.82,18.75-37,30.43-4,1.77-8.16,3.4-11.65,3.78,13.44-11.31,7.32-21,30.95-31.55h0Z" style="fill:#f49713;stroke:#000;stroke-linecap:round;stroke-linejoin:round;stroke-width:3px"/><path d="M589.61,687.23c6.46-3.55,11.47-3.77,17.46-4.13-10.9,11.55-9.21,19.59-34.37,33.42-3.81,2.1-7.85,4.07-11.29,4.74,12.45-12.4,5.54-21.57,28.2-34h0Z" style="fill:#f49713;stroke:#000;stroke-linecap:round;stroke-linejoin:round;stroke-width:3px"/><path d="M614.35,669c6.14-4.08,11.11-4.72,17.05-5.58-9.89,12.42-7.54,20.29-31.46,36.18-3.62,2.41-7.48,4.72-10.85,5.67,11.36-13.4,3.71-22,25.25-36.27h0Z" style="fill:#f49713;stroke:#000;stroke-linecap:round;stroke-linejoin:round;stroke-width:3px"/><path d="M636.89,649c5.78-4.58,10.68-5.63,16.53-7-8.82,13.2-5.82,20.85-28.32,38.69-3.41,2.7-7.06,5.33-10.34,6.56C625,672.93,616.62,665,636.89,649h0Z" style="fill:#f49713;stroke:#000;stroke-linecap:round;stroke-linejoin:round;stroke-width:3px"/><path d="M658.21,626.8c5.38-5,10.17-6.5,15.89-8.34-7.68,13.89-4.05,21.27-25,40.92-3.17,3-6.59,5.9-9.75,7.4,9-15.1,0-22.27,18.85-40h0Z" style="fill:#f49713;stroke:#000;stroke-linecap:round;stroke-linejoin:round;stroke-width:3px"/><path d="M677.27,603.62c4.94-5.48,9.59-7.33,15.13-9.64-6.49,14.49-2.26,21.53-21.47,42.87-2.91,3.23-6.07,6.43-9.1,8.19,7.68-15.8-1.87-22.19,15.44-41.41h0Z" style="fill:#f49713;stroke:#000;stroke-linecap:round;stroke-linejoin:round;stroke-width:3px"/><path d="M694.4,578.14c4.46-5.87,8.94-8.11,14.27-10.88-5.26,15-.45,21.64-17.81,44.51-2.63,3.47-5.51,6.91-8.38,8.92,6.33-16.39-3.72-22,11.92-42.56h0Z" style="fill:#f49713;stroke:#000;stroke-linecap:round;stroke-linejoin:round;stroke-width:3px"/><path d="M710.22,550.36c4-6.23,8.23-8.83,13.31-12-4,15.37,1.36,21.6-14,45.85-2.33,3.67-4.91,7.35-7.61,9.59,4.93-16.86-5.54-21.57,8.32-43.41h0Z" style="fill:#f49713;stroke:#000;stroke-linecap:round;stroke-linejoin:round;stroke-width:3px"/><path d="M723,523c3.42-6.54,7.47-9.49,12.26-13.1-2.68,15.65,3.17,21.41-10.13,46.86-2,3.86-4.28,7.74-6.78,10.19,3.5-17.21-7.33-21,4.66-44h0Z" style="fill:#f49713;stroke:#000;stroke-linecap:round;stroke-linejoin:round;stroke-width:3px"/><path d="M733.48,493.63c2.86-6.8,6.65-10.08,11.12-14.08-1.37,15.82,4.95,21.07-6.18,47.54-1.69,4-3.62,8.07-5.9,10.73,2.05-17.45-9.06-20.35,1-44.19h0Z" style="fill:#f49713;stroke:#000;stroke-linecap:round;stroke-linejoin:round;stroke-width:3px"/><path d="M741.22,464.94c2.28-7,5.78-10.6,9.9-15,0,15.88,6.69,20.59-2.18,47.89-1.34,4.14-2.93,8.34-5,11.18.58-17.56-10.73-19.52-2.74-44.11h0Z" style="fill:#f49713;stroke:#000;stroke-linecap:round;stroke-linejoin:round;stroke-width:3px"/><path d="M747.08,433.76c1.68-7.18,4.87-11,8.61-15.74,1.29,15.82,8.39,20,1.84,47.91-1,4.24-2.22,8.56-4,11.56-.89-17.55-12.33-18.55-6.42-43.73h0Z" style="fill:#f49713;stroke:#000;stroke-linecap:round;stroke-linejoin:round;stroke-width:3px"/><path d="M749.62,403.15c1.08-7.3,3.93-11.41,7.27-16.41,2.61,15.66,10,19.18,5.84,47.59-.64,4.3-1.5,8.71-3,11.86-2.35-17.41-13.84-17.45-10.06-43h0Z" style="fill:#f49713;stroke:#000;stroke-linecap:round;stroke-linejoin:round;stroke-width:3px"/><path d="M750.3,372.78c.46-7.36,3-11.7,5.87-17,3.91,15.39,11.6,18.28,9.8,46.93-.27,4.34-.77,8.81-2,12.07-3.8-17.15-15.25-16.23-13.62-42h0Z" style="fill:#f49713;stroke:#000;stroke-linecap:round;stroke-linejoin:round;stroke-width:3px"/><path d="M747.83,342.51c-.15-7.37,2-11.91,4.43-17.39,5.19,15,13.09,17.24,13.69,45.95.09,4.35,0,8.84-1,12.2-5.22-16.77-16.55-14.9-17.09-40.76h0Z" style="fill:#f49713;stroke:#000;stroke-linecap:round;stroke-linejoin:round;stroke-width:3px"/><path d="M743.19,312.48c-.77-7.34,1-12,3-17.7,6.42,14.52,14.49,16.08,17.49,44.64.46,4.33.71,8.81,0,12.24C757,335.39,745.9,338.2,743.2,312.48h0Z" style="fill:#f49713;stroke:#000;stroke-linecap:round;stroke-linejoin:round;stroke-width:3px"/><path d="M736.07,282.72c-1.38-7.25,0-12.07,1.47-17.88,7.62,13.93,15.78,14.82,21.16,43,.82,4.27,1.45,8.72,1,12.2-7.95-15.67-18.81-11.93-23.65-37.34h0Z" style="fill:#f49713;stroke:#000;stroke-linecap:round;stroke-linejoin:round;stroke-width:3px"/><path d="M726.15,252.91c-2-7.1-1.05-12,0-17.94,8.75,13.24,17,13.44,24.69,41.1,1.17,4.19,2.17,8.57,2,12.07-9.23-14.95-19.74-10.32-26.69-35.23h0Z" style="fill:#f49713;stroke:#000;stroke-linecap:round;stroke-linejoin:round;stroke-width:3px"/><path d="M713.59,224c-2.57-6.91-2.05-11.9-1.54-17.88,9.83,12.47,18,12,28,38.89,1.52,4.08,2.88,8.36,3,11.86-10.45-14.12-20.53-8.63-29.55-32.87h0Z" style="fill:#f49713;stroke:#000;stroke-linecap:round;stroke-linejoin:round;stroke-width:3px"/><path d="M699.81,198.55c-3.14-6.67-3-11.68-3-17.69,10.84,11.6,19,10.42,31.2,36.4,1.85,3.94,3.57,8.09,4,11.56-11.59-13.2-21.18-6.88-32.19-30.28h0Z" style="fill:#f49713;stroke:#000;stroke-linecap:round;stroke-linejoin:round;stroke-width:3px"/><path d="M682.91,172.18c-3.69-6.39-4-11.39-4.5-17.37,11.77,10.65,19.78,8.8,34.13,33.67,2.18,3.77,4.24,7.76,5,11.19-12.66-12.18-21.68-5.08-34.62-27.48h0Z" style="fill:#f49713;stroke:#000;stroke-linecap:round;stroke-linejoin:round;stroke-width:3px"/><path d="M663.93,147.6c-4.21-6.06-4.95-11-5.93-16.93,12.62,9.63,20.45,7.11,36.83,30.69,2.48,3.57,4.87,7.38,5.89,10.73-13.63-11.08-22-3.25-36.79-24.49h0Z" style="fill:#f49713;stroke:#000;stroke-linecap:round;stroke-linejoin:round;stroke-width:3px"/><path d="M643.3,125.45c-4.7-5.68-5.85-10.56-7.33-16.38,13.38,8.54,21,5.38,39.27,27.5,2.77,3.35,5.47,6.95,6.77,10.2-14.51-9.9-22.23-1.4-38.71-21.32h0Z" style="fill:#f49713;stroke:#000;stroke-linecap:round;stroke-linejoin:round;stroke-width:3px"/><path d="M621.26,104.85c-5.16-5.27-6.71-10-8.67-15.71,14.05,7.39,21.35,3.6,41.43,24.12,3,3.11,6,6.46,7.6,9.6-15.29-8.65-22.27.47-40.36-18h0Z" style="fill:#f49713;stroke:#000;stroke-linecap:round;stroke-linejoin:round;stroke-width:3px"/><path d="M596.55,85.86C591,81,589,76.43,586.59,70.94c14.62,6.19,21.57,1.81,43.31,20.57,3.29,2.84,6.55,5.94,8.38,8.93-16-7.34-22.15,2.33-41.73-14.57h0Z" style="fill:#f49713;stroke:#000;stroke-linecap:round;stroke-linejoin:round;stroke-width:3px"/><path d="M571,69.15c-6-4.34-8.29-8.77-11.17-14,15.09,4.94,21.65,0,44.88,16.87,3.52,2.56,7,5.37,9.1,8.19-16.52-6-21.88,4.18-42.8-11h0Z" style="fill:#f49713;stroke:#000;stroke-linecap:round;stroke-linejoin:round;stroke-width:3px"/><path d="M543.39,54c-6.31-3.82-9-8-12.31-13.06,15.45,3.66,21.57-1.82,46.13,13.06,3.72,2.25,7.45,4.76,9.75,7.41-17-4.58-21.45,6-43.57-7.41h0Z" style="fill:#f49713;stroke:#000;stroke-linecap:round;stroke-linejoin:round;stroke-width:3px"/><path d="M515.86,42.35c-6.61-3.28-9.64-7.27-13.36-12,15.7,2.36,21.34-3.62,47.06,9.15,3.9,1.93,7.82,4.12,10.34,6.56-17.28-3.14-20.87,7.77-44-3.73h0Z" style="fill:#f49713;stroke:#000;stroke-linecap:round;stroke-linejoin:round;stroke-width:3px"/><path d="M485.66,32c-6.86-2.72-10.21-6.43-14.31-10.82,15.84,1,21-5.39,47.66,5.18,4,1.6,8.14,3.45,10.85,5.68-17.49-1.69-20.15,9.48-44.2,0h0Z" style="fill:#f49713;stroke:#000;stroke-linecap:round;stroke-linejoin:round;stroke-width:3px"/><path d="M456.11,24.69c-7.06-2.13-10.72-5.56-15.17-9.59,15.87-.29,20.44-7.12,47.93,1.17C493,17.54,497.27,19,500.15,21c-17.57-.22-19.29,11.14-44,3.66h0Z" style="fill:#f1952b;stroke:#000;stroke-linecap:round;stroke-linejoin:round;stroke-width:3px"/><path d="M426.34,20.15c-7.21-1.53-11.14-4.64-15.92-8.28,15.79-1.62,19.77-8.81,47.86-2.84,4.26.9,8.6,2,11.64,3.79-17.52,1.25-18.29,12.71-43.58,7.34h0Z" style="fill:#f49713;stroke:#000;stroke-linecap:round;stroke-linejoin:round;stroke-width:3px"/><path d="M395.48,17.86c-7.32-.92-11.49-3.69-16.55-6.92,15.6-2.94,19-10.43,47.45-6.83,4.32.54,8.74,1.32,11.92,2.8-17.36,2.72-17.16,14.2-42.82,11h0Z" style="fill:#f49713;stroke:#000;stroke-linecap:round;stroke-linejoin:round;stroke-width:3px"/><path d="M364.78,18.17c-7.37-.31-11.76-2.72-17.08-5.51,15.3-4.23,18-12,46.72-10.78,4.35.18,8.82.58,12.11,1.79-17.07,4.16-15.91,15.58-41.75,14.5h0Z" style="fill:#f49713;stroke:#000;stroke-linecap:round;stroke-linejoin:round;stroke-width:3px"/><path d="M335.27,21.1c-7.37.31-11.95-1.72-17.48-4.06,14.89-5.5,17-13.45,45.65-14.65,4.35-.18,8.84-.56,12.22.37C359,8.33,361.11,20,335.27,21.1Z" style="fill:#f49713;stroke:#000;stroke-linecap:round;stroke-linejoin:round;stroke-width:3px"/><path d="M304.77,26.45c-7.32.92-12.05-.72-17.76-2.59C301.4,17.14,302.79,9,331.28,5.44c4.32-.55,8.76-1.3,12.21-.65-16.14,6.95-13.06,18.42-38.71,21.66Z" style="fill:#f49713;stroke:#000;stroke-linecap:round;stroke-linejoin:round;stroke-width:3px"/><path d="M274.84,34.67c-7.21,1.53-12.07.29-17.91-1.09,13.77-7.91,14.48-16.09,42.57-22.06,4.26-.9,8.62-1.83,12.11-1.47-15.5,8.27-11.47,19.25-36.77,24.62Z" style="fill:#f49713;stroke:#000;stroke-linecap:round;stroke-linejoin:round;stroke-width:3px"/><path d="M246.18,44.73c-7.06,2.13-12,1.3-17.94.41,13.06-9,13.08-17.25,40.57-25.55,4.17-1.26,8.44-2.54,11.94-2.48-14.75,9.54-9.82,20.14-34.58,27.61Z" style="fill:#f49713;stroke:#000;stroke-linecap:round;stroke-linejoin:round;stroke-width:3px"/><path d="M218.89,56.94C212,59.65,207,59.24,201,58.85,213.3,48.76,212.64,40.57,239.34,30c4-1.6,8.2-3.24,11.69-3.47-13.9,10.74-8.1,20.89-32.14,30.41Z" style="fill:#f49713;stroke:#000;stroke-linecap:round;stroke-linejoin:round;stroke-width:3px"/><path d="M191.68,72.42c-6.61,3.28-11.62,3.29-17.62,3.4,11.37-11.08,10-19.19,35.74-32,3.9-1.93,7.9-3.91,11.36-4.43-13,11.87-6.32,21.49-29.49,33Z" style="fill:#f49713;stroke:#000;stroke-linecap:round;stroke-linejoin:round;stroke-width:3px"/><path d="M165.81,89.88c-6.31,3.82-11.3,4.25-17.27,4.86,10.4-12,8.38-20,32.94-34.83,3.72-2.25,7.54-4.56,11-5.37-11.92,12.91-4.5,21.95-26.62,35.34Z" style="fill:#f49713;stroke:#000;stroke-linecap:round;stroke-linejoin:round;stroke-width:3px"/><path d="M141.74,109.16c-6,4.34-10.91,5.18-16.81,6.29,9.36-12.82,6.68-20.59,29.91-37.47,3.52-2.56,7.14-5.18,10.46-6.27-10.79,13.86-2.65,22.25-23.57,37.45Z" style="fill:#f49713;stroke:#000;stroke-linecap:round;stroke-linejoin:round;stroke-width:3px"/><path d="M120.1,129.94c-5.58,4.82-10.43,6.07-16.22,7.67,8.26-13.56,4.94-21.08,26.67-39.84,3.29-2.84,6.68-5.75,9.9-7.12-9.6,14.72-.78,22.39-20.36,39.29Z" style="fill:#f49713;stroke:#000;stroke-linecap:round;stroke-linejoin:round;stroke-width:3px"/><path d="M100.4,152.37c-5.16,5.27-9.89,6.92-15.52,9C92,147.16,88,140,108.12,119.44c3-3.11,6.17-6.29,9.27-7.93-8.33,15.47,1.1,22.38-17,40.86Z" style="fill:#e38c12;fill-opacity:0.9686274528503418;stroke:#000;stroke-linecap:round;stroke-linejoin:round;stroke-width:3px"/><path d="M81.66,177.26c-4.7,5.68-9.28,7.73-14.71,10.27,5.88-14.75,1.35-21.61,19.66-43.73,2.77-3.35,5.62-6.79,8.58-8.67-7,16.11,3,22.21-13.52,42.13h0Z" style="fill:#e38c12;fill-opacity:0.9686274528503418;stroke:#000;stroke-linecap:round;stroke-linejoin:round;stroke-width:3px"/><path d="M65.5,203.32c-4.21,6.06-8.6,8.48-13.8,11.46,4.62-15.19-.46-21.64,15.93-45.22,2.48-3.57,5-7.23,7.82-9.36-5.63,16.64,4.81,21.88-9.95,43.12Z" style="fill:#e38c12;fill-opacity:0.9686274528503418;stroke:#000;stroke-linecap:round;stroke-linejoin:round;stroke-width:3px"/><path d="M51.24,231.35c-3.69,6.39-7.86,9.16-12.8,12.58,3.34-15.52-2.27-21.53,12.09-46.39,2.18-3.77,4.41-7.63,7-10-4.22,17.05,6.63,21.4-6.3,43.8h0Z" style="fill:#e38c12;fill-opacity:0.9686274528503418;stroke:#000;stroke-linecap:round;stroke-linejoin:round;stroke-width:3px"/><path d="M39.37,259.45c-3.14,6.67-7.06,9.79-11.7,13.6,2-15.75-4.06-21.26,8.16-47.24,1.85-3.94,3.76-8,6.15-10.53-2.78,17.35,8.4,20.77-2.62,44.17Z" style="fill:#e38c12;fill-opacity:0.9686274528503418;stroke:#000;stroke-linecap:round;stroke-linejoin:round;stroke-width:3px"/><path d="M30.21,289c-2.57,6.91-6.22,10.35-10.52,14.54.7-15.86-5.83-20.85,4.18-47.76,1.52-4.08,3.08-8.26,5.25-11-1.32,17.52,10.1,20,1.09,44.24h0Z" style="fill:#e38c12;fill-opacity:0.9686274528503418;stroke:#000;stroke-linecap:round;stroke-linejoin:round;stroke-width:3px"/><path d="M23.73,318.11c-2,7.1-5.33,10.83-9.27,15.37-.63-15.86-7.55-20.29.17-47.94,1.17-4.19,2.38-8.49,4.31-11.41.15,17.57,11.74,19.08,4.79,44h0Z" style="fill:#e38c12;fill-opacity:0.9686274528503418;stroke:#000;stroke-linecap:round;stroke-linejoin:round;stroke-width:3px"/><path d="M19.29,349.57c-1.38,7.25-4.41,11.24-7.95,16.09-2-15.76-9.22-19.59-3.84-47.79.82-4.27,1.66-8.66,3.34-11.73,1.62,17.49,13.3,18,8.45,43.44Z" style="fill:#e38c12;fill-opacity:0.9686274528503418;stroke:#000;stroke-linecap:round;stroke-linejoin:round;stroke-width:3px"/><path d="M17.86,379.65c-.77,7.34-3.45,11.57-6.57,16.7C8,380.81.46,377.6,3.46,349c.45-4.33.93-8.77,2.34-12,3.08,17.3,14.76,16.85,12.06,42.58Z" style="fill:#e38c12;fill-opacity:0.9686274528503418;stroke:#000;stroke-linecap:round;stroke-linejoin:round;stroke-width:3px"/><path d="M18.76,409.17c-.15,7.37-2.47,11.82-5.15,17.19C9.05,411.15,1.25,408.59,1.85,379.88c.09-4.35.19-8.81,1.33-12.13,4.52,17,16.12,15.56,15.58,41.42Z" style="fill:#e38c12;fill-opacity:0.9686274528503418;stroke:#000;stroke-linecap:round;stroke-linejoin:round;stroke-width:3px"/><path d="M22.21,440.37c.46,7.36-1.47,12-3.7,17.56-5.81-14.78-13.8-16.68-15.61-45.33-.27-4.34-.55-8.8.32-12.19,5.92,16.54,17.36,14.16,19,40Z" style="fill:#e38c12;fill-opacity:0.9686274528503418;stroke:#000;stroke-linecap:round;stroke-linejoin:round;stroke-width:3px"/><path d="M28.11,470.5c1.08,7.3-.47,12.06-2.22,17.81-7-14.24-15.15-15.46-19.34-43.87-.64-4.3-1.28-8.72-.71-12.18,7.28,16,18.49,12.65,22.27,38.24Z" style="fill:#e38c12;fill-opacity:0.9686274528503418;stroke:#000;stroke-linecap:round;stroke-linejoin:round;stroke-width:3px"/><path d="M36.47,499.39c1.68,7.18.55,12.06-.72,17.93-8.19-13.6-16.39-14.14-22.95-42.1-1-4.24-2-8.58-1.72-12.08,8.6,15.32,19.48,11.06,25.39,36.24Z" style="fill:#e38c12;fill-opacity:0.9686274528503418;stroke:#000;stroke-linecap:round;stroke-linejoin:round;stroke-width:3px"/><path d="M48,528.83c2.28,7,1.55,12,.78,17.93-9.3-12.87-17.52-12.72-26.39-40-1.34-4.14-2.72-8.39-2.73-11.89,9.85,14.55,20.34,9.39,28.33,34h0Z" style="fill:#e38c12;fill-opacity:0.9686274528503418;stroke:#000;stroke-linecap:round;stroke-linejoin:round;stroke-width:3px"/><path d="M60.62,555.62c2.86,6.8,2.55,11.8,2.28,17.8-10.34-12-18.52-11.21-29.65-37.68-1.69-4-3.41-8.13-3.71-11.62,11,13.67,21.05,7.66,31.08,31.5Z" style="fill:#e38c12;fill-opacity:0.9686274528503418;stroke:#000;stroke-linecap:round;stroke-linejoin:round;stroke-width:3px"/><path d="M76.39,582.49C79.81,589,79.92,594,80.16,600,68.84,588.9,60.76,590.41,47.46,565c-2-3.86-4.08-7.81-4.67-11.27,12.14,12.7,21.62,5.87,33.6,28.79h0Z" style="fill:#e38c12;fill-opacity:0.9686274528503418;stroke:#000;stroke-linecap:round;stroke-linejoin:round;stroke-width:3px"/><path d="M94,607.53c4,6.23,4.48,11.21,5.22,17.17-12.21-10.15-20.13-8-35.51-32.21-2.33-3.67-4.72-7.45-5.6-10.84,13.16,11.64,22,4,35.89,25.88h0Z" style="fill:#e38c12;fill-opacity:0.9686274528503418;stroke:#000;stroke-linecap:round;stroke-linejoin:round;stroke-width:3px"/><path d="M114.37,631.91c4.46,5.87,5.4,10.79,6.64,16.67-13-9.09-20.73-6.25-38.08-29.12-2.63-3.47-5.32-7-6.49-10.33,14.08,10.5,22.3,2.18,37.93,22.78Z" style="fill:#e38c12;fill-opacity:0.9686274528503418;stroke:#000;stroke-linecap:round;stroke-linejoin:round;stroke-width:3px"/><path d="M135.49,652.75c4.94,5.48,6.29,10.3,8,16.06-13.73-8-21.18-4.5-40.39-25.83-2.91-3.23-5.89-6.56-7.33-9.75,14.91,9.29,22.4.31,39.71,19.53Z" style="fill:#e38c12;fill-opacity:0.9686274528503418;stroke:#000;stroke-linecap:round;stroke-linejoin:round;stroke-width:3px"/><path d="M158.7,672.61c5.38,5,7.13,9.74,9.32,15.33-14.35-6.79-21.48-2.71-42.41-22.36-3.17-3-6.42-6-8.12-9.11,15.64,8,22.35-1.57,41.2,16.14Z" style="fill:#e38c12;fill-opacity:0.9686274528503418;stroke:#000;stroke-linecap:round;stroke-linejoin:round;stroke-width:3px"/><path d="M183.88,690.57c5.78,4.58,7.92,9.11,10.57,14.5-14.87-5.57-21.63-.9-44.13-18.74-3.41-2.7-6.9-5.48-8.85-8.39,16.25,6.67,22.14-3.43,42.41,12.63Z" style="fill:#e38c12;fill-opacity:0.9686274528503418;stroke:#000;stroke-linecap:round;stroke-linejoin:round;stroke-width:3px"/><path d="M210.4,706.26c6.14,4.08,8.65,8.42,11.75,13.56-15.28-4.31-21.63.91-45.54-15-3.62-2.41-7.34-4.88-9.52-7.62,16.75,5.28,21.77-5.27,43.32,9Z" style="fill:#e38c12;fill-opacity:0.9686274528503418;stroke:#000;stroke-linecap:round;stroke-linejoin:round;stroke-width:3px"/><path d="M237.6,719.88c6.46,3.55,9.33,7.66,12.84,12.53-15.59-3-21.48,2.72-46.64-11.11-3.81-2.1-7.72-4.25-10.13-6.8,17.14,3.86,21.26-7.08,43.92,5.38Z" style="fill:#e38c12;fill-opacity:0.9686274528503418;stroke:#000;stroke-linecap:round;stroke-linejoin:round;stroke-width:3px"/><path d="M266.18,730.79c6.74,3,9.94,6.86,13.85,11.41-15.79-1.7-21.17,4.51-47.4-7.17-4-1.77-8.05-3.59-10.66-5.93,17.4,2.42,20.59-8.83,44.22,1.69h0Z" style="fill:#e38c12;fill-opacity:0.9686274528503418;stroke:#000;stroke-linecap:round;stroke-linejoin:round;stroke-width:3px"/><path d="M296.33,739.63c7,2.43,10.47,6,14.75,10.21-15.87-.37-20.72,6.26-47.84-3.18-4.11-1.43-8.32-2.91-11.12-5,17.54,1,19.78-10.52,44.2-2Z" style="fill:#e38c12;fill-opacity:0.9686274528503418;stroke:#000;stroke-linecap:round;stroke-linejoin:round;stroke-width:3px"/><path d="M325.91,745.65c7.14,1.83,10.94,5.1,15.56,8.94-15.85,1-20.13,8-47.94.83-4.21-1.08-8.54-2.2-11.5-4.07,17.56-.52,18.83-12.14,43.88-5.71Z" style="fill:#e38c12;fill-opacity:0.9686274528503418;stroke:#000;stroke-linecap:round;stroke-linejoin:round;stroke-width:3px"/><path d="M356.38,749.14c7.27,1.23,11.33,4.17,16.25,7.61-15.71,2.28-19.39,9.63-47.7,4.84-4.29-.73-8.69-1.48-11.8-3.09,17.46-2,17.75-13.67,43.25-9.36Z" style="fill:#e38c12;fill-opacity:0.9686274528503418;stroke:#000;stroke-linecap:round;stroke-linejoin:round;stroke-width:3px"/><path d="M389.66,750.12c4.23.62,5,1.13,8.27,2-7.21,1.49-15.47,17.29-38.57,13-4.28-.8-8.78-.74-12-2.09,17.23-3.44,16.54-15.11,42.31-12.95h0Z" style="fill:#e38c12;fill-opacity:0.9686274528503418;stroke:#000;stroke-linecap:round;stroke-linejoin:round;stroke-width:3px"/><path d="M146.16,178.83l-7.32-5.89L134,179l-3-2.44,7.79-9.68,11.7,9.42a20.92,20.92,0,0,1-1.49,6.56,24.59,24.59,0,0,1-3.66,6.11q-5.14,6.39-11.78,7t-13.3-4.78q-6.68-5.38-7.51-12t4.31-13a24.4,24.4,0,0,1,4.73-4.53,20.93,20.93,0,0,1,5.51-2.88l3.92,3.16a19.15,19.15,0,0,0-6.11,2.24,17.3,17.3,0,0,0-4.77,4.13q-4,5-3.26,9.77t6.31,9.2q5.51,4.44,10.32,4.19t8.85-5.27a21.47,21.47,0,0,0,2.48-3.75,12.44,12.44,0,0,0,1.16-3.61Z" style="stroke:#000;stroke-width:1.058333396911621px"/><path d="M149.26,136.93a9.92,9.92,0,0,0-3.28,8.45q.47,4.87,5.05,9.66t9.41,5.47a9.92,9.92,0,0,0,8.59-2.89,9.79,9.79,0,0,0,3.24-8.41q-.47-4.87-5-9.65t-9.42-5.49a9.79,9.79,0,0,0-8.55,2.85Zm-2.66-2.78a15,15,0,0,1,11.92-4.55q6.59.52,12.32,6.51t5.95,12.6a16.58,16.58,0,0,1-17,16.29q-6.59-.52-12.32-6.51t-5.95-12.6a15.08,15.08,0,0,1,5.13-11.74Z" style="stroke:#000;stroke-width:1.058333396911621px"/><path d="M197.68,137.34l-31.61-20.09,4-3,26.48,17L187.84,101l3.95-2.94,10.2,36Z" style="stroke:#000;stroke-width:1.058333396911621px"/><path d="M202,91.69l19.11-11.15,2,3.44-15,8.76,5.22,8.95,14.39-8.4,2,3.44-14.39,8.4,6.39,11,15.39-9,2,3.44-19.47,11.36Z" style="stroke:#000;stroke-width:1.058333396911621px"/><path d="M257.38,83.93a6.9,6.9,0,0,1,3.59.83,22.19,22.19,0,0,1,4.53,3.08l8.25,6.82-4.66,2-7.71-6.41a12.44,12.44,0,0,0-5-2.91,7.53,7.53,0,0,0-4.52.73l-4.72,2.08,6,13.54-4.33,1.91-14.09-32,9.78-4.3Q250,66.88,253.69,68t5.75,5.74a9.24,9.24,0,0,1,.79,5.64,7.87,7.87,0,0,1-2.86,4.56Zm-16.77-8.68,5,11.37,5.45-2.4a7.46,7.46,0,0,0,4.09-3.51,6,6,0,0,0-.27-5,5.83,5.83,0,0,0-3.47-3.52,7.46,7.46,0,0,0-5.35.64Z" style="stroke:#000;stroke-width:1.058333396911621px"/><path d="M272.33,58.09l6.11-1.83L301.7,79.85l-8.4-28,4.4-1.32,10,33.52-6.11,1.83L278.37,62.25l8.4,28-4.4,1.32Z" style="stroke:#000;stroke-width:1.058333396911621px"/><path d="M314.45,46.5l7-1.09,12.5,22.15,5.19-24.91,7-1.09,5.4,34.57-4.56.71-4.74-30.36L337,71.59l-4.7.73L319.65,50l4.74,30.36-4.54.71Z" style="stroke:#000;stroke-width:1.058333396911621px"/><path d="M362.89,40.37,385,39.72l.12,4-17.38.51.3,10.35,16.66-.49.12,4-16.66.49.37,12.67,17.8-.52.12,4-22.54.66Z" style="stroke:#000;stroke-width:1.058333396911621px"/><path d="M400.33,40.06l6.35.55L419.6,71.13,422.14,42l4.58.4-3,34.86-6.35-.55L404.41,46.16l-2.54,29.16-4.58-.4Z" style="stroke:#000;stroke-width:1.058333396911621px"/><path d="M438.26,43.94l29,6-.8,3.9-12.17-2.5L448,81.68l-4.66-1,6.24-30.37-12.17-2.5Z" style="stroke:#000;stroke-width:1.058333396911621px"/><path d="M510,67.51a9.92,9.92,0,0,0-9,.51q-4.24,2.44-6.71,8.59t-1.09,10.83a9.92,9.92,0,0,0,6.18,6.63,9.79,9.79,0,0,0,9-.53q4.24-2.44,6.7-8.57t1.1-10.85A9.79,9.79,0,0,0,510,67.51Zm1.43-3.57a15,15,0,0,1,9.07,9q2.25,6.21-.84,13.91t-9,10.62a16.58,16.58,0,0,1-21.88-8.79q-2.25-6.21.84-13.91t9-10.62a15.08,15.08,0,0,1,12.8-.18Z" style="stroke:#000;stroke-width:1.058333396911621px"/><path d="M539.19,77.12l17.66,9.62-1.91,3.5-13.5-7.35-4.93,9.06,12.18,6.64-1.91,3.5-12.18-6.64-8,14.68-4.16-2.26Z" style="stroke:#000;stroke-width:1.058333396911621px"/><path d="M581.83,102.72l23.38,18.16L602.77,124,593,116.41l-19,24.49L570.18,138l19-24.49-9.81-7.62Z" style="stroke:#000;stroke-width:1.058333396911621px"/><path d="M613.94,128.62l3.38,3.32-10,10.24,12.28,12,10-10.24L633,147.3l-24.51,25L605.09,169l11.67-11.89-12.28-12-11.67,11.89-3.38-3.32Z" style="stroke:#000;stroke-width:1.058333396911621px"/><path d="M644,159.67l13.87,17.24-3.1,2.5-10.9-13.55-8.07,6.5,10.45,13-3.1,2.5-10.45-13-9.88,8,11.17,13.88-3.1,2.5L616.7,181.61Z" style="stroke:#000;stroke-width:1.058333396911621px"/><path d="M383.72,663c-154.55.09-279.94-125.07-280.12-279.63s124.91-280,279.46-280.29S663.32,227.8,663.51,382.68,538.27,662.88,383.72,663Z" style="fill:#261ecf;stroke:#000;stroke-linecap:square;stroke-width:16px"/><path d="M81.61,445l1.18,4.61-20.42,5.33q-5.4,1.41-7.28,4t-.72,7q1.13,4.4,4,5.76t8.3-.06l20.42-5.33,1.18,4.61-21,5.48q-6.57,1.72-10.77-.7t-5.84-8.79q-1.65-6.42.86-10.59t9.09-5.86Z" style="stroke:#000;stroke-width:1.058333396911621px"/><path d="M91.56,481.07,93.87,487,72.46,512.15l27-10.7,1.67,4.28L68.84,518.52l-2.31-5.93,21.41-25.14-27,10.7-1.67-4.28Z" style="stroke:#000;stroke-width:1.058333396911621px"/><path d="M106.57,516.74l2.1,4.23L77.62,536.64l-2.1-4.23Z" style="stroke:#000;stroke-width:1.058333396911621px"/><path d="M112,528l15.21,25.32-3.38,2.06-6.38-10.63L91.09,560.84l-2.45-4.07L115,540.71l-6.38-10.63Z" style="stroke:#000;stroke-width:1.058333396911621px"/><path d="M131.26,559l13.25,17.64-3.15,2.4-10.41-13.87-8.2,6.25,10,13.29-3.15,2.4-10-13.29-10,7.65,10.67,14.21-3.15,2.4-13.5-18Z" style="stroke:#000;stroke-width:1.058333396911621px"/><path d="M151.48,590.68l-19.54,18.78,3.92,4.14q5,5.24,9.61,5.4t9.75-4.71q5.05-4.85,5.08-9.54t-4.9-9.93Zm-.45-6.11,6.66,7q7,7.36,7.18,13.73t-6.24,12.57q-6.5,6.24-12.82,5.71t-13.25-7.86l-6.66-7Z" style="stroke:#000;stroke-width:1.058333396911621px"/><path d="M208.95,637.85l-2.71,3.72a29.23,29.23,0,0,0-2.94-4.56,18,18,0,0,0-3.32-3.25,10.08,10.08,0,0,0-5.66-2.33,4.9,4.9,0,0,0-4.18,2.2,4.42,4.42,0,0,0-1,3.65q.44,1.78,3.12,4.67l1.94,2.17q3.64,4,4.14,7.49a9.24,9.24,0,0,1-2,7q-3,4.1-7.27,4.18t-9.53-3.8a26.94,26.94,0,0,1-3.9-3.59,39.44,39.44,0,0,1-3.65-4.77l2.87-3.93A27.72,27.72,0,0,0,178,652a19,19,0,0,0,3.86,3.88,10.43,10.43,0,0,0,5.94,2.42,5.83,5.83,0,0,0,5.53-6.55,10.8,10.8,0,0,0-2.86-4.83l-2-2.16q-3.61-4-4.18-7.2a8.27,8.27,0,0,1,1.79-6.44,8.87,8.87,0,0,1,6.9-4q4.19-.21,8.78,3.19a29,29,0,0,1,3.75,3.33,36.13,36.13,0,0,1,3.39,4.17Z" style="stroke:#000;stroke-width:1.058333396911621px"/><path d="M215.43,641l25.29,15.05-2,3.43-10.61-6.32-15.65,26.7-4.07-2.42L224,650.75l-10.61-6.32Z" style="stroke:#000;stroke-width:1.058333396911621px"/><path d="M252.38,666.61l-13.05,13.09,11.58,5.42Zm-.46-5.36,4.83,2.26-2.61,37.36-4.43-2.07.88-9.48-14.2-6.64-6.62,6.8-4.49-2.1Z" style="stroke:#000;stroke-width:1.058333396911621px"/><path d="M267.87,668.75l27.74,9.73-1.3,3.76-11.64-4.08-10.11,29.29-4.46-1.56,10.11-29.29-11.64-4.08Z" style="stroke:#000;stroke-width:1.058333396911621px"/><path d="M302.39,680.29l21.36,5.12-.91,3.88-16.79-4-2.38,10.08,16.09,3.85-.91,3.88-16.09-3.85-2.91,12.34,17.2,4.12-.91,3.88-21.77-5.22Z" style="stroke:#000;stroke-width:1.058333396911621px"/><path d="M354.59,691.07l-.58,4.58a28.9,28.9,0,0,0-4.76-2.56,17.78,17.78,0,0,0-4.46-1.22,10.06,10.06,0,0,0-6.07.72,4.94,4.94,0,0,0-2.59,4,4.42,4.42,0,0,0,.92,3.66q1.24,1.34,5,2.56l2.74.95q5.09,1.68,7.23,4.53a9.24,9.24,0,0,1,1.63,7.06q-.64,5-4.34,7.21t-10.16,1.33a26.68,26.68,0,0,1-5.14-1.23,39,39,0,0,1-5.49-2.39l.62-4.84a27.41,27.41,0,0,0,5.25,3.14,18.8,18.8,0,0,0,5.25,1.51,10.4,10.4,0,0,0,6.36-.78,5.28,5.28,0,0,0,2.74-4.23,5.21,5.21,0,0,0-1.06-4.2,10.68,10.68,0,0,0-4.82-2.82L340,707.1q-5.08-1.72-7.12-4.26a8.27,8.27,0,0,1-1.54-6.51,9,9,0,0,1,4.13-6.84q3.57-2.23,9.22-1.5a28.74,28.74,0,0,1,4.88,1.08,35.75,35.75,0,0,1,5,2Z" style="stroke:#000;stroke-width:1.058333396911621px"/><path d="M395.71,726l-14.64-34.43,4.9-.2,12.16,29L408,690.47l4.88-.2L401,725.77Z" style="stroke:#000;stroke-width:1.058333396911621px"/><path d="M420.87,689l4.66-.59,4.31,34.72-4.66.59Z" style="stroke:#000;stroke-width:1.058333396911621px"/><path d="M457.71,701.48A6.82,6.82,0,0,1,461,703a22.11,22.11,0,0,1,3.78,3.93l6.65,8.35-4.94,1.06-6.21-7.84a12.37,12.37,0,0,0-4.24-3.86,7.42,7.42,0,0,0-4.54-.2l-5,1.08L449.6,720,445,721l-7.26-34.22,10.37-2.23q5.82-1.25,9.21.58t4.44,6.79a9.31,9.31,0,0,1-.36,5.69,7.84,7.84,0,0,1-3.69,3.89Zm-14.56-11.89,2.58,12.15,5.78-1.24a7.39,7.39,0,0,0,4.68-2.61,6,6,0,0,0,.74-4.93,5.83,5.83,0,0,0-2.66-4.15,7.35,7.35,0,0,0-5.33-.46Z" style="stroke:#000;stroke-width:1.058333396911621px"/><path d="M503.84,699.5l-3-8.89-7.26,2.51-1.25-3.68,11.66-4,4.84,14.21a20.84,20.84,0,0,1-4.72,4.76,24.34,24.34,0,0,1-6.3,3.22q-7.7,2.66-13.6-.35t-8.64-11.14q-2.76-8.11,0-14.14t10.51-8.71a24,24,0,0,1,6.37-1.31,20.62,20.62,0,0,1,6.15.5l1.62,4.77a18.88,18.88,0,0,0-6.32-1.36,17,17,0,0,0-6.19,1q-6,2.09-7.91,6.53t.43,11.15q2.28,6.7,6.45,9t10.22.26a21.23,21.23,0,0,0,4.07-1.85,12.38,12.38,0,0,0,2.88-2.43Z" style="stroke:#000;stroke-width:1.058333396911621px"/><path d="M508.94,664.86l4.28-1.94,14.24,31.91-4.28,1.94Z" style="stroke:#000;stroke-width:1.058333396911621px"/><path d="M524.33,657.82l5.51-3.13,27.66,17.9-14.25-25.51,4-2.25,17,30.5-5.51,3.13-27.66-17.9,14.25,25.51-4,2.25Z" style="stroke:#000;stroke-width:1.058333396911621px"/><path d="M572.74,626.72l3.7-2.91,21.38,27.58-3.7,2.91Z" style="stroke:#000;stroke-width:1.058333396911621px"/><path d="M602.25,602.54l3.1,3.4a28.85,28.85,0,0,0-5,2,17.88,17.88,0,0,0-3.8,2.66,10.21,10.21,0,0,0-3.35,5.15,5,5,0,0,0,1.35,4.55,4.35,4.35,0,0,0,3.37,1.65q1.81-.09,5.14-2.19l2.48-1.51q4.54-2.85,8.09-2.67a9.09,9.09,0,0,1,6.42,3.28q3.42,3.74,2.69,8t-5.52,8.7a26.88,26.88,0,0,1-4.24,3.18,39.05,39.05,0,0,1-5.34,2.7l-3.28-3.59a27.32,27.32,0,0,0,5.76-2,18.91,18.91,0,0,0,4.52-3.08,10.56,10.56,0,0,0,3.5-5.41,5.3,5.3,0,0,0-1.45-4.84,5.13,5.13,0,0,0-3.87-1.89,10.66,10.66,0,0,0-5.25,1.91l-2.48,1.54q-4.58,2.81-7.82,2.76a8.14,8.14,0,0,1-5.94-3,9,9,0,0,1-2.54-7.59q.6-4.19,4.79-8.08a29,29,0,0,1,4-3.07,35.83,35.83,0,0,1,4.71-2.56Z" style="stroke:#000;stroke-width:1.058333396911621px"/><path d="M609.77,593.08l3.12-3.54,23,20.59,11.23-12.74,3,2.65-14.35,16.28Z" style="stroke:#000;stroke-width:1.058333396911621px"/><path d="M639.82,563.38l10.33,15.37,7.44-10.46Zm-5.31-.55,3.1-4.36L673.55,568l-2.85,4-9.08-2.64L652.5,582.2l5.4,7.82L655,594.08Z" style="stroke:#000;stroke-width:1.058333396911621px"/><path d="M648.9,541.6,652,536l32.87.58-25.43-14.16,2.21-4L692,535.35l-3.06,5.58-32.87-.58,25.43,14.16-2.21,4Z" style="stroke:#000;stroke-width:1.058333396911621px"/><path d="M671.72,505.42l25.06,10.14,2.12-5.31q2.68-6.72.9-11.05t-8.29-7q-6.47-2.62-10.72-.7t-6.94,8.61Zm-5.33,2.94,3.6-9q3.76-9.44,9.43-12.27t13.93.51q8.33,3.37,10.47,9.39t-1.61,15.41l-3.6,9Z" style="stroke:#000;stroke-width:1.058333396911621px"/><path d="M686.58,452l4.42,1.22a29.18,29.18,0,0,0-3.17,4.4,18.1,18.1,0,0,0-1.81,4.29,10.28,10.28,0,0,0-.13,6.16,4.92,4.92,0,0,0,3.54,3.14,4.33,4.33,0,0,0,3.73-.41q1.49-1,3.2-4.61l1.31-2.6q2.35-4.84,5.45-6.59a9.05,9.05,0,0,1,7.17-.65q4.87,1.34,6.49,5.33t-.1,10.32a27.2,27.2,0,0,1-1.92,5,39.54,39.54,0,0,1-3.11,5.15L707,480.85a27.64,27.64,0,0,0,3.81-4.81,19.13,19.13,0,0,0,2.21-5,10.63,10.63,0,0,0,.11-6.46,5.25,5.25,0,0,0-3.78-3.32,5.11,5.11,0,0,0-4.28.48,10.77,10.77,0,0,0-3.44,4.42l-1.29,2.63q-2.39,4.83-5.17,6.52a8.1,8.1,0,0,1-6.61.64,8.9,8.9,0,0,1-6.15-5.07q-1.7-3.87-.2-9.41a29.32,29.32,0,0,1,1.74-4.72,36.26,36.26,0,0,1,2.65-4.69Z" style="stroke:#000;stroke-width:1.058333396911621px"/><path d="M246.62,578.47c.22,3.86,43.7,28.37,66.1,33.71a29.77,29.77,0,0,0-.64,13.65c21.86,6.43,41.17,8.19,60.52,10l-16.05-9.13,16.37-5.44c-15.54-1.84-32.21-2.29-45.82-6.83,1.31.05,3.2-10.43,2-10.83-17.65-5.78-35.43-11.08-44.14-17.21" style="fill:#ff0;stroke:#000;stroke-linecap:round;stroke-linejoin:round;stroke-width:2.5px"/><path d="M312.08,625.84c-.67-7.81,11.39-2.45,14.74-10.38-4.41-1-7.31-1.69-14.1-3.27" style="fill:none;stroke:#000;stroke-linecap:round;stroke-linejoin:round;stroke-width:2.5px"/><path d="M521.38,578.47c-.22,3.86-43.7,28.37-66.1,33.71a29.77,29.77,0,0,1,.64,13.65c-21.86,6.43-41.17,8.19-60.52,10l16.05-9.13-16.37-5.44c15.54-1.84,32.21-2.29,45.82-6.83-1.31.05-3.2-10.43-2-10.83,17.65-5.78,35.43-11.08,44.14-17.21" style="fill:#ff0;stroke:#000;stroke-linecap:round;stroke-linejoin:round;stroke-width:2.5px"/><path d="M455.92,625.84c.67-7.81-11.39-2.45-14.74-10.38,4.41-1,7.31-1.69,14.1-3.27" style="fill:none;stroke:#000;stroke-linecap:round;stroke-linejoin:round;stroke-width:2.5px"/><path d="M521.38,578.25c3.7,0,1.94-22.68-1.25-21.83-40,7.44-82,10.6-136.13,10.6s-96.08-3.16-136.13-10.6c-3.18-.85-4.95,21.8-1.25,21.83,35.61,11.36,84.17,12,137.38,12S485.77,589.6,521.38,578.25Z" style="fill:#ff0;stroke:#000;stroke-linecap:round;stroke-linejoin:round;stroke-width:2.5px"/><path d="M258.36,564.48l1.29.3-1.34,5.75a3.56,3.56,0,0,0,0,2.32,2.8,2.8,0,0,0,3.57.83,3.56,3.56,0,0,0,1.06-2.06l1.34-5.75,1.29.3-1.38,5.91a4,4,0,0,1-1.57,2.58,4.47,4.47,0,0,1-5.41-1.26,4,4,0,0,1-.26-3Z" style="stroke:#000;stroke-width:0.846666693687439px"/><path d="M269,566.87l1.74.31,2.8,8.77,1.45-8,1.26.23-1.73,9.57-1.74-.31-2.8-8.77-1.45,8-1.26-.23Z" style="stroke:#000;stroke-width:0.846666693687439px"/><path d="M280,568.74l1.3.19-1.42,9.62-1.3-.19Z" style="stroke:#000;stroke-width:0.846666693687439px"/><path d="M283.82,569.31l8.16,1-.13,1.1-3.42-.42-1.05,8.55-1.31-.16,1.05-8.55-3.42-.42Z" style="stroke:#000;stroke-width:0.846666693687439px"/><path d="M294.48,570.56l6.12.58-.1,1.1-4.81-.46-.27,2.86,4.61.44-.1,1.1-4.61-.44-.33,3.51,4.93.47-.1,1.1-6.23-.59Z" style="stroke:#000;stroke-width:0.846666693687439px"/><path d="M305.37,572.61l-.53,7.54,1.58.11a4.08,4.08,0,0,0,3-.7,3.86,3.86,0,0,0,1.14-2.81,3.82,3.82,0,0,0-.74-2.92,4.08,4.08,0,0,0-2.87-1.11Zm-1.24-1.17,2.7.19a6.11,6.11,0,0,1,4.06,1.46,5.78,5.78,0,0,1-.52,7.35,6.12,6.12,0,0,1-4.21.89l-2.7-.19Z" style="stroke:#000;stroke-width:0.846666693687439px"/><path d="M330.22,572.79l1.31,0-.29,9.72-1.31,0Z" style="stroke:#000;stroke-width:0.846666693687439px"/><path d="M335.55,572.94l1.77,0,4.15,8.22.16-8.13,1.28,0-.2,9.72-1.77,0-4.15-8.22-.16,8.13-1.28,0Z" style="stroke:#000;stroke-width:0.846666693687439px"/><path d="M362.91,574.33V578h1.65a2,2,0,0,0,1.42-.47,2.07,2.07,0,0,0,0-2.7,2,2,0,0,0-1.42-.48Zm-1.31-1.08h3A3.61,3.61,0,0,1,367,574a3.22,3.22,0,0,1,0,4.34,3.63,3.63,0,0,1-2.47.73H362.9V583h-1.32Z" style="stroke:#000;stroke-width:0.846666693687439px"/><path d="M375.75,578.42a1.92,1.92,0,0,1,.82.61,6.17,6.17,0,0,1,.81,1.29l1.34,2.66H377.3l-1.24-2.49a3.45,3.45,0,0,0-.94-1.3,2.09,2.09,0,0,0-1.23-.32h-1.43V583h-1.32v-9.72h3a3.77,3.77,0,0,1,2.49.7,2.61,2.61,0,0,1,.82,2.1,2.57,2.57,0,0,1-.43,1.52,2.19,2.19,0,0,1-1.24.84Zm-3.3-4.08v3.45h1.65a2.07,2.07,0,0,0,1.43-.44,1.66,1.66,0,0,0,.49-1.3,1.62,1.62,0,0,0-.49-1.28,2.07,2.07,0,0,0-1.43-.44Z" style="stroke:#000;stroke-width:0.846666693687439px"/><path d="M381.9,573.26h1.32V583H381.9Z" style="stroke:#000;stroke-width:0.846666693687439px"/><path d="M388.58,574.34v7.56h1.59a4.08,4.08,0,0,0,2.94-.91,3.86,3.86,0,0,0,.94-2.88,3.82,3.82,0,0,0-.94-2.86,4.08,4.08,0,0,0-2.94-.91Zm-1.31-1.08H390a6.11,6.11,0,0,1,4.15,1.18,5.78,5.78,0,0,1,0,7.36A6.12,6.12,0,0,1,390,583h-2.7Z" style="stroke:#000;stroke-width:0.846666693687439px"/><path d="M399.07,573.26h6.15v1.11h-4.83v2.88H405v1.11h-4.63v3.52h4.95V583h-6.26Z" style="stroke:#000;stroke-width:0.846666693687439px"/><path d="M426.86,574.36l-1.7,4.87,3.57-.06Zm-.77-1.28,1.49,0,3.88,9.65-1.37,0-.93-2.48-4.38.08-.84,2.51-1.39,0Z" style="stroke:#000;stroke-width:0.846666693687439px"/><path d="M434.08,572.92l1.77-.05,4.56,8-.25-8.13,1.28,0,.3,9.72-1.77.05-4.56-8,.25,8.13-1.28,0Z" style="stroke:#000;stroke-width:0.846666693687439px"/><path d="M446.75,573.56l.36,7.55,1.59-.08a4.08,4.08,0,0,0,2.9-1.05,3.86,3.86,0,0,0,.8-2.92,3.82,3.82,0,0,0-1.07-2.81,4.08,4.08,0,0,0-3-.77Zm-1.37-1,2.7-.13a6.12,6.12,0,0,1,4.2,1,5.78,5.78,0,0,1,.35,7.36,6.12,6.12,0,0,1-4.08,1.38l-2.7.13Z" style="stroke:#000;stroke-width:0.846666693687439px"/><path d="M471.27,570.83l1.31-.14.42,4,4.75-.5-.42-4,1.31-.14,1,9.67-1.31.14-.49-4.6-4.75.5.49,4.6-1.31.14Z" style="stroke:#000;stroke-width:0.846666693687439px"/><path d="M486.41,569.93a2.76,2.76,0,0,0-2.11,1.38,5.45,5.45,0,0,0,.82,5.76,2.76,2.76,0,0,0,2.41.74,2.72,2.72,0,0,0,2.09-1.38,5.45,5.45,0,0,0-.82-5.76A2.72,2.72,0,0,0,486.41,569.93Zm-.15-1.06a4.16,4.16,0,0,1,3.43.9,6.12,6.12,0,0,1,1,7.27,4.61,4.61,0,0,1-6.48.92,6.12,6.12,0,0,1-1-7.27,4.19,4.19,0,0,1,3.05-1.82Z" style="stroke:#000;stroke-width:0.846666693687439px"/><path d="M495.34,568.7l.66,3.59,1.63-.3a2,2,0,0,0,1.31-.72,2.07,2.07,0,0,0-.49-2.66,2,2,0,0,0-1.48-.21Zm-1.49-.83,2.92-.54a3.61,3.61,0,0,1,2.56.28,3.22,3.22,0,0,1,.78,4.26,3.63,3.63,0,0,1-2.29,1.17l-1.63.3.7,3.84-1.29.24Z" style="stroke:#000;stroke-width:0.846666693687439px"/><path d="M502.82,566.16l6-1.37.25,1.08-4.71,1.08.64,2.81,4.51-1,.25,1.08-4.51,1,.79,3.43,4.82-1.1.25,1.08-6.11,1.4Z" style="stroke:#000;stroke-width:0.846666693687439px"/><path d="M270.17,543.92c-5-9.27,11.37-12.2,12.26-19.3,2.36-18.86-8-24.67-7.95-31.1,0-4.46,21.07-20.43,25.88-20.43,9.48,0,12.82,9.12,30,9,22.54-.15,28.25-12,38.34-12,5.14,0,9.1,2.56,13,3.35,4.14.83,8.1-1.07,12.61-1.07,3.14,0,5.25,2.14,8.51,2.08,2.67,0,4.28-2.08,8.08-2.08,9.61,0,22.83,22.25,33.35,22.25,6.46,0,2.58-9.16,9.54-9.54,5.28-.28,4.26,3.88,9,5.88,2.06.87,5.73.34,9.41.59,4.69.31,11,4,15.2,4.39,5.14.45,8.19-2.36,13.4-.87,2.69.77,4,3.8,7.23,4,8.2.62,18-.52,18.2,4.58.18,4.48-1.58,6.15-9.54,6.13-5.08,0-4.55,5.81-9.54,7.49-5.66,1.91-12.95-.45-19.05,1.64-4.31,1.48-7.28,5.66-12.73,6.53-6.66,1.07-12.18-3.14-25,4.31-3.49,2-14.26,5.47-21.34,5.36-7.69-.13-9.38-4.57-17-3.31-6.89,1.13-13.25,7.71-22.25,7-4.58-.34-10.48-1.11-15.06-.31-4.74.84-8.2,2.65-13.55,3.26-6.06.68-14.43-2-18-1.33-7.72,1.39-7.23,5.86-11.72,4.51-4.21-1.27-8.57-5-12.41-5.82-6.12-1.28-11,1.89-15.06,2-5,.09-9.23-4.41-12.46-4.83-4.56-.59-5.73,2.89-8.2,6-5.76,7.2-10.86,4.19-13.17,1.59Z" style="fill:#2a981a;stroke:#000;stroke-width:3px"/><path d="M350.31,528.73l4.09-31.8,19.06-.18,4.36,32.19h-37.5Z" style="fill:red;stroke:#000;stroke-linecap:round;stroke-linejoin:round;stroke-width:2.5px"/><path d="M363.58,503.2l3.73-3.73-.23-.29,12.31-12.4,2.22,2.22-12.32,12.32-1.53-1.38L364,503.66Z" style="stroke:#000;stroke-linecap:round;stroke-linejoin:round;stroke-width:1.5px"/><path d="M363.58,503.2l-3.73-3.73-.29.23-12.4-12.31,2.22-2.22,12.32,12.32L360.32,499l3.72,3.72Z" style="stroke:#000;stroke-linecap:round;stroke-linejoin:round;stroke-width:1.5px"/><path d="M364,503.66l-3.73,3.73.23.29-12.31,12.4L346,517.86l12.32-12.32,1.53,1.38,3.72-3.72Z" style="stroke:#000;stroke-linecap:round;stroke-linejoin:round;stroke-width:1.5px"/><path d="M364.5,503.2l3.73,3.73.29-.23L380.92,519l-2.22,2.22-12.32-12.32,1.38-1.53L364,503.66Z" style="stroke:#000;stroke-linecap:round;stroke-linejoin:round;stroke-width:1.5px"/><path d="M362.29,528.24v-6.1h3.05v6.42Z" style="stroke:#000;stroke-width:0.5291666984558105px"/><path d="M357.15,516h1.32v2.13h-1.32Z" style="stroke:#000;stroke-linecap:round;stroke-width:1.0095210075378418px"/><path d="M369.15,516h1.32v2.13h-1.32Z" style="stroke:#000;stroke-linecap:round;stroke-width:1.0095210075378418px"/><path d="M300.84,441.79c8-9.4,16.27-16.5,24.4-34,1.74-3.76-.43-8-5-12.2,9.63-37.12,19-70.33,51.69-93.59,5.23-3.73,19.16-1.88,21.19-4.66,13-17.8,24.77-27.77,39.33-27.77,15,0,27.39,4.4,33.39,18.14,10.42,1,16.31,5.81,22.64,10.27-16.21-1.42-30.29.18-38.37,13.81-8.48,14.32-3.25,14.83-1.77,24.56,4.65,30.46-23.84,42-24.88,47-.75,3.61,6.77.1,8.83-.48,3.24-.91,3.32,1.95,5.67,2.26,2.57.34,4.8-1.17,7.14-.58,1.91.49,3.89,1.63,4.2,3.34l-26.17-2c.3,4.35,3.13,9.33.25,10.22-7.45,2.3-10.74,8.57-13.25,9.53-6.79,2.58-8.57-3.88-11.24-2.25-5.75,3.52-9.87,3.52-14.43,5.46-3.23,1.37-5.68,3.46-8.33,4.43-6.77,2.48-11.81,1.51-14.65,4.56-5.5,5.91-12.77,25.45-19.91,34.68-1.94,2.51-2.43,5.85-2.25,9.47-2.78.34-5.09-.2-6.47-2.55-4.34-.06-6.79-2-7.41-3.55-3.35.44-4.87.3-7.79-3.53-4.87.48-7-.8-9.31-5.46-5.44,1-7.22-1.42-7.55-5.14Z" style="stroke:#000;stroke-linecap:round;stroke-linejoin:round;stroke-width:0.10583333671092987px"/><path d="M330.38,395.56c8.1-17.86,17.51-37.48,32.43-57.79,2.23-3,5.65-4.71,8.52-7.08s2.54-6.19,6.11-9.93c2.92-3.06,6.06-2.35,10.33-6.36,6.24-5.87,1.28-7.16,5-9.54,1.24-.79,1.5-1.15,7.61-1.48,2-.11,3.87-1.93,7.15-1.82a17.58,17.58,0,0,1,9,3.06c2.52,1.55,4.29,4.43,7.61,8.51,3.62,4.47,16.76,4,18.5,10,3.32,11.48-6.32,35.49-15.78,51.65-3.9,6.67-15.59,17.28-29.15,25-11.27,6.45-24,10.41-33.29,13.32-24.48,7.65-36.78-11.47-34-17.59Z" style="fill:#f9f743;stroke:#f9f743;stroke-linecap:round;stroke-linejoin:round;stroke-width:0.1587499976158142px"/><path d="M367.45,327.33c2.13-6.78,6.28-12.69,15.32-15.44,1.8-.55,2.81,2.1,1.07,2.59-6.75,1.92-10.69,7.16-14,13-.8,1.42-3,1.62-2.38-.2Z" style="fill:#fff;stroke:#fff;stroke-linecap:round;stroke-linejoin:round;stroke-width:0.1587499976158142px"/><path d="M435.49,365.42c5.07-9.72,8.74-19.09,9.27-25.24.13-1.54,2.69-2.08,2.59.16-.28,6.43-3.27,18.39-9.41,26.17-1.29,1.64-3.47.88-2.45-1.08Z" style="fill:#fff;stroke:#fff;stroke-width:0.10583333671092987px"/><path d="M418.3,276.36c12.4-5,25-8,38.25,3,1.07.88-.65,3.1-2.19,1.87-11.18-9-23-6.6-34.85-1.46C418.78,280.05,417.58,276.66,418.3,276.36Z" style="fill:#fff;stroke:#fff;stroke-width:0.10583333671092987px"/><path d="M449.88,284.11a4.4,4.4,0,1,1-4.41-4.4,4.4,4.4,0,0,1,4.41,4.4" style="fill:#fff;stroke:#fff;stroke-linecap:round;stroke-linejoin:round;stroke-width:0.10668156296014786px"/><path d="M458.32,288.11c2.31-.77,4.07-1,5.27-.29.63.37.63,2.18.14,2.3a21.2,21.2,0,0,1-5.19.26c-.61-.06-.61-2.14-.23-2.27Z" style="fill:#fff;stroke:#fff;stroke-width:0.05291666090488434px"/><path d="M418.13,298c.1-.86-1.15-2.12.21-4.18.86-1.3,4-1.73,8.6-3.28,2.75-.93,5.75-3,6.79-3,.54,0,1.16.3,1.7.34s1-.45,1.82-.45,4.56,3.45,7.06,3.7c3.08.31,5.16-1.28,6.1-1.26a8.71,8.71,0,0,1,4.49,1.77c1.39,1,4.26.61,6,1.81.93.66,1,1.95-.28,4.41-1,1.92-11.38,6.57-15.78,18.63-.61,1.66-2.31,1.49-4.52.54-1.51-.65-3.11-1.43-4.62-2.25-1.87-1-5.06-1.21-7.72-2.72-3.12-1.77-3.87-5.15-5.68-6.72-1.37-1.19-3.93-2.74-4.11-4.22a10.93,10.93,0,0,1,0-3.08Z" style="fill:#fff;stroke:#fff;stroke-width:0.10583333671092987px"/><path d="M329.08,386.7l-2.72,7.83c7.1,8.81,15.54-4.19,26.45-6.7l15.32-6.47c.47-5.14-18.52-7.54-20.89-1.82Z" style="stroke:#000;stroke-width:0.10583333671092987px"/><path d="M216.4,518.53c-4.49,1.5-25.23-70.54,15.09-146.09,16-20.57,23.85-3.41,28.18-2.66,20.5,3.52,28.62,4.11,30.81,2.18-8.07-7.51-22.68-16.08-39.9-26.49-10.92-6.6-23.65-8.63-33.94-14.13-3.43-1.83-6.7-8-11-9.68-20.8-8.12-24.28-16.5-22.91-18.45s15,3.89,18.37,5.5c9.58,4.5,13.83,13.88,18.28,16.69,10.67,6.74,21.46,6.62,29.29,11s16,7.56,23.27,14.3c15.84,8.81,19.7,15.36,27.24,22.36,5.26,4.88,8.86.54,7.53-1.76-8.48-14.71-14.53-27.48-18.48-38.36-2.5-6.89,3.44-7.83,6.19-1.26,3.87,9.22,7.93,17.78,19.72,37.1.63,5.2,3.07,8.39,4.9,8.49,0,0,26.37,2.07,39.62,3.18,20.2,1.7,49.15,4,60.39,5.9,12.07,2,32,3.32,34.05,2.72a183.16,183.16,0,0,1,27.58-4.33c3.71-.38,6.09,7.79,1.25,8.74a141.4,141.4,0,0,1-24.85,4.79c-2.55.26-14.59-1-21.91-.68-3.38.14-4.65.9-3.75,3.29-7.4-4.75-15.27-8-24-8.74-26.23-2.13-52.37-4.46-79-5.79-5-.25-10-2.62-15-3-4.68-.31-9.36.2-15.84.12-4.58-.06-10.62-2.86-20.6-3.64-10.23-.8-13.13,1.15-16.35,7.72-7.85,16-13.32,38.76-9.35,59,6.69,34.14,16.31,53,11.56,53.62S248.7,479.75,243.33,446c-3.64-22.9-.44-48.85,13.85-65.82,1.73-2.06-13.38-6-14.48-4.12-42,71.29-18.74,140-26.29,142.5Z" style="fill:#a15804;stroke:#000;stroke-linecap:round;stroke-linejoin:round;stroke-width:3px"/><path d="M289.77,382.23c-5.14,6.55-9.92,9.69-14.29,10-7.3.44-14.18,1.47-20.07,4-6.59,2.85-14.37,11-18.46,11.72-4.32.77-5.67-14.38-8.67-14.93-6.87-1.25-12.34-.95-9.63,8.43-8.31.29-12.51,5.89-9.63,16.94-3.67,2.88-3.37,5.79-1.8,8.47,1.79,3,5.12,4.61,7.25,9.83,1.54,3.78,5.71,6.26,8.75,7.06,2.41.64,3.1,3.68,6,4.82,2.23.87,4,.2,5.3.64,2.59.87,7.06,6.29,10.27,5.46,1-.26,1.57-1,3.21-2.09,2-1.29,3.49.08,4.82-.48a2.55,2.55,0,0,0,.8-3.85c-.94-1.37,1.2-1.06,2.65-2.41s.93-4.26.72-7.06a5.44,5.44,0,0,0-2.25-4.17c-1.59-1.18.74-10.07,5-13.4,9.45-7.43,17.84-11.59,27.45-20,6.38-5.58,4.32-10.62,13.81-17.5Z" style="stroke:#000;stroke-width:0.10583333671092987px"/><path d="M211,415.82c-1.89-6.69,1.42-11.93,4.95-12.41,1.65-.22,2.61,1.13,4.18.72s1.15-2.69.91-3.69c-.38-1.61,2.43-1.79,2.51-.15.29,5.57,1.84,8.93,1.23,11.14,0,2.09-1.27,3-2.91,3.63-1.73.43-3.42,0-4.92.42-1.33.36-2.46,1.46-4,1.59a1.48,1.48,0,0,1-2-1.25Z" style="fill:#f9f743;stroke:#ff0;stroke-linecap:round;stroke-linejoin:round;stroke-width:0.10583333671092987px"/><path d="M209.89,424.28c-.2-1.72-.46-3.79,2.38-4.54,1.16-.31,2.5,0,4.37-.28,1-.16,2.06-1.3,3.63-1.19a2.43,2.43,0,0,1,2.19,1.5c.73,1.13.8,2.43,1.36,3.52.77,1.51,3,.6,3.83,1.62.58.68,1,1.53-.77,3.63-2.13,2.5.3,5.42,3.09,3.75,2.56-1.53,3.65-1.09,3.75-.34s.86,1.88-.45,3c-1.6,1.31-2.58,2.59-2,4.48,1.27,4.52,1.12,5.82.11,6s-1.84.3-3.58-1.36-3.94-2.3-5.68-3.46c-2.24-1.5-2.84-4.53-4.48-6.56-1.11-1.37-3.75-2.68-5.08-4.48s-2.43-3.47-2.64-5.25Z" style="fill:#f9f743;stroke:#ff0;stroke-linecap:round;stroke-linejoin:round;stroke-width:0.10583333671092987px"/><path d="M234.72,438.3a2.27,2.27,0,0,1,.74-1.93c.43-.53,1.51-.87,1.69-1.57a12.32,12.32,0,0,1,2.57-4.94c1.09-1,1.8,0,4-.22,1.51-.14,3.91-.57,5.26,1.14,4.13,5.2.12,6.21-.88,7.26a3.65,3.65,0,0,1-3.79,1c-2.14-.51-3.61.27-3.45,2,.18,2,2.78,2.43,4.64,1.63a24.43,24.43,0,0,1,5.74-1.93c2.18-.17,3.3,3.15,1.73,3.89s-2.88.78-3.45,1.81a6.19,6.19,0,0,1-3.37,3c-1.81.68-3.65.4-5.94-.84-1.39-.75-2.75-2.88-3.77-4.54a16.23,16.23,0,0,1-1.75-5.74Z" style="fill:#f9f743;stroke:#ff0;stroke-linejoin:round;stroke-width:0.10583333671092987px"/><path d="M224,396c-.33-.93,1.21-2.27,2.09-1.69s1.9.94,3.21,4.66c2.71,7.7,4.63,10.18,6.74,10.6,1.62.32,6.06-1.87,12.28-6.82,7.24-5.77,14-7.86,19.75-7.46a6.42,6.42,0,0,1,4.25,1.53,3.84,3.84,0,0,0,5.62-.32c1.63-1.59,2.61-2.86,4-3.61,2.32-1.28,3,.28,2.91,1.08-.77,6.33-1.85,7-3.91,9-3.4,3.31-7.83,5.23-13.32,8.67a64.17,64.17,0,0,0-10.92,8,27.62,27.62,0,0,1-10.19,6.74c-5.52,1.93-9.89-4.46-6.26-8.19,2.49-2.56,3.23-3.37,2-4.09-.87-.51-2-.77-4.66,1.2-5,3.68-7,2.22-8.67-1.85-1.07-2.58-.83-5.2-1.85-9.23-.83-3.29-2-5.45-3.05-8.27Z" style="fill:#f9f743;stroke:#ff0;stroke-width:0.10583333671092987px"/><path d="M241,378.7c-5.07-.57-11.73,4-15.34,4.15-3.8.19-5.18,1.76-8.14,2.43-1.8.41-5.15-.32-6.35-2.1-.11,3.05-1.65,4.64-4.65,5.11-1.84.29-3.5-.32-5.11-.34-2,0-3.88.58-5.64-.18-4.71-2-5.46-4.29-7.53-8.56-1.66-3.43-.15-4.56.68-6.24-4.7-.34-5.35-3.14-6.36-5.79a24.66,24.66,0,0,1-1.14-9c.11-3-1.22-5.23-1.36-8.17-.26-5.45,6.59-8.59,13.28-8.63-.06-6,.15-11.29,4.2-13.17,4.54-2.11,7.77-.69,10.44.45,2.95,1.27,5.64,1.68,7.95,2.72,4.1,1.85,4.22,5.89,3.86,9.19,2.17-.19,5.74.48,7.15,1.82a32,32,0,0,0,6.13,4.2c3.76,2.34,4.67,6.66,3.52,13.05-.32,1.79,4.72,5.2,7.38,6.36,4,1.75,8.13,1,12,1.93,3.07.71,4.86,2.81,6.36,3.52-14.22,1.9-11.17,3-13.74,4.31-4.89-1.55-7-.08-7.64,2.9Z" style="stroke:#000;stroke-linecap:round;stroke-linejoin:round;stroke-width:0.10583333671092987px"/><path d="M183.1,350.26c.28-2.15.2-3.75,6.7-5.9,2.91-1,5.41,2.7,7.61,1,.79-.6,1.47-1.1-.57-4.54-1.68-2.83,0-9.95,2.61-10.1,5.28-.31,7.52,1.48,9.54,2s3.75.4,5.52,1.44c2,1.16,3.34,2.82,3,4.92-.46,2.78-3.6,3.92-4.2,6.81-.55,2.66,1.19,4,2.72,2.38,1.21-1.31,1.27-2.84,3.52-4.31,1.84-1.21,3.35-1.29,4.77-.34,1.15.77,2,2.37,3,3.06,1.72,1.29,4.14,1.49,5.22,3.18,1.77,2.75.7,4.46.91,5.79.35,2.24.3,4-1.36,5.22-1.87,1.32-5.13.8-7.26.79-3.51,0-4.12,2.79-.79,3.86s4.45,2.19,4.43,3.75c-.13,8.83-4.43,12.25-10.22,13.51-1.54.34-3.4,1.15-5.45-2-1.44-2.24-2-3.35-3.06-3.06-.75.2-1.31.39-1,3.75.75,5.64-3.7,3.84-6.53,3.8-1.58,0-3.13.36-5.05-.62a8.94,8.94,0,0,1-3.63-3.63c-1.91-2.78-2.29-2.58-2.5-4s.32-2.5,2.16-4.43c2-2.08.71-3.6-2-3-2,.44-3.37,0-4.94-2-1.79-2.23-.88-5.7-1.25-8.63-.42-3.31-2.28-5.14-1.82-8.74Z" style="fill:#f9f743;stroke:#ff0;stroke-width:0.10583333671092987px"/><path d="M197.23,359.74c-.13-1.86-2.13-3-1.31-4.43s2.75-.47,3.64-1.3c1.32-1.22.2-3.34,2.59-3.27,1.23,0,2.24.61,3.95.51,2-.11,2.95-.62,5-.11a7.62,7.62,0,0,1,5.34,4.4c1.63,3,.48,4.53.49,5.7s0,2.26-.06,3-.87,1.1-1,1.52c-.29.7-.33,1.72-.91,2.18-.8.64-2.45.34-3.74.87-1.55.63-1.72,1.62-2.64,2.08-2.77,1.39-4.26.8-5,.41-1.39-.77-1.66-3.29-2.5-4.48-1.11-1.58-4.24-2-4.67-2.94s.93-2.28.81-4.1Z" style="stroke:#000;stroke-width:0.10583333671092987px"/><path d="M205,361.9c2.23-.11,2.27-4.74-.26-4.64S202.81,362,205,361.9Z" style="fill:#fff;stroke:#fff;stroke-linejoin:round;stroke-width:0.10583333671092987px"/><path d="M231.91,373.87c-.89-1.31.65-2.9.4-4.71-.28-2-1.66-4,.4-5.62a2.2,2.2,0,0,1,2.78,0c1.66,1.09,2.14,2.15,3.18,2.84a35.53,35.53,0,0,1,3.58,2.21c2.14,1.78,1.4,5.81-.06,6.36a4.52,4.52,0,0,1-2.5.34c-.93-.12-1-.7-2.62-.66-1.18,0-1.38.7-2.74.34-1.11-.29-1.88-.32-2.41-1.09Z" style="fill:#f9f743;stroke:#ff0;stroke-width:0.10583333671092987px"/><path d="M266.65,370.81c-.56-3.59-2.88-5.49-5.16-8.4-1.67-2.12-2.71-5.28-5.23-9.21-1.85-2.9-7.48-6.47-8.79-9.86-3.67-5.64-3.24-16.11-5.16-16.91s-5.37,1.36-9.12,1.23c-2.78-.1-3.59-1-4.49-1.93-4,1-8.59.8-11.8-2.25-4.59-4.36-1.4-8.49.72-12.36a8.83,8.83,0,0,1-3.69-6.18c-.32-1.91-2.1-2.68-2.17-4.74s.66-4,3.13-5.62c2.06-1.38,4.26-.84,6.18-1.69,1.75-.77,1.8-1.74,3.33-2.45a11.51,11.51,0,0,1,4.78-1c0-5.44,3.26-8.93,4.9-9.71,3.87-1.84,5.54-.86,8.19-1.53s3-1.84,5.54-2a7.2,7.2,0,0,1,5.06,1.61c.75.52,1,1.57,1.85,2.49.59.61,2.23,1.19,3.05,2.65a21.79,21.79,0,0,1,1.57,6.58c9.16-.86,14.69,2.46,17.54,4.74,1.85,1.48,4,3.51,2.89,5.86-3,6.25-5.2,4.63-7.95,5.06-5.18.8-7.11,3.71-7.1,6.34,0,5.46,4.74,11.37,7.42,17.66,4.74,11.12,1.88,18.41,2.73,28.25.35,4.12-2.15,8.06-.56,14.61Z" style="stroke:#000;stroke-width:0.10583333671092987px"/><path d="M215,299.42c-.06-1,.43-2.52,3.72-3.51,1.38-.42,1.86-.11,3.17-.56s2.55-2,4.74-2.25c.85-.09,1.42.39,2.26.63.55.15,1.28-.19,2,.22,2.3,1.29,2.91,3.24,3.53,5.14.8,2.44-1.23,1.82-2.77,1.61-2-.27-3.21,1.21-.84,2.37s1.92,2.56,0,2.49c-.74,0-1.79-.46-2.13.56-1,3-2.78,3.18-4,3.27-2.54.19-1.35-.32-5.26-1-.84-.15-1.62-.7-2.29-2.25-.43-1,0-1.66-.36-3.21-.83-2.13-1.7-1.84-1.8-3.47Z" style="fill:#f9f743;stroke:#ff0;stroke-width:0.10583333671092987px"/><path d="M232.13,287.72c-.13-2.66,2.29-5.6,5.14-6.22a14.51,14.51,0,0,1,5.82-.2c1.36.15,2.24.08,5-1.48a2.71,2.71,0,0,1,3,.32c1,.56.76,1.57,1.2,2.25.82,1.25,2.14,1.84,2.61,2.89.93,2.05,1.44,4.2.68,5.94-.84,1.91-1.89,1.77-2.58,2.63a13.43,13.43,0,0,0-2.08,3.51c-.66,1.7-2,2.39-2.37,0-.27-1.65-2.37-2.5-2.73.48l-.36,3c-.19,1.6-3.07,2.11-3.17,0l-.2-4.41c-.09-1.93-2.72-2-2.57.08L240,303c.1,1.32-2.71,1.63-3.21,0s.49-2,.08-4.29a11.34,11.34,0,0,0-3.29-6.1c-1.26-1.44-1.4-3.19-1.48-4.9Z" style="fill:#f9f743;stroke:#ff0;stroke-width:0.10583333671092987px"/><path d="M218.06,317.8c1.07-3.08,2.5-6.51,8.12-6.53,2.14,0,8.24,3.21,10.27,3.06,2.56-.19,3.07-1.38,5-1.48,1.25-.06,2.45.51,3.63-.28,1.81-1.21,2.35-.36,7.61-12.32,2.69-6.11,6.71-8.07,10.27-8.46s10.81,2.56,13.11,6.13c.69,1.07-.55,3.59-4.1,3.85-2,.15-3.75.84-6.29,2.64-2.35,1.66-2.2,3.77-3.63,4.22-3.38,1.05-4.16-.17-6.36.25s-2.73,2.86.34,3.35a8,8,0,0,0,3.06-.11c2.69-.28,3,1.24,3.52,3.24s.36,3.54,1,5.51c1.83,5.42,3.89,6.47,5.9,12.32,2.12,6.15.56,11.47,3.29,21,.45,1.55-1.82,3.28-3.24.79-.81-1.42-1.69-1.66-2.44-.17-.42.84,0,2.11-2.5.91-13.26-6.46-19.74-29-19-30.2.49-.73,2-1.26,5.56-1.14,2.66.1,4.8-.5,7.38-4.43.81-1.23-1-5-3.58-1.08a7.16,7.16,0,0,1-4.43,3.06c-3.19,1-5.08.64-7.66.79s-3.57,1.59-6.41,2.5c-1.48.47-3.05.86-3.58.23-1.22-1.48-1.82-2.57-1-4,.6-1,1.39-1.08,2.21-2.67,1-2-1.55-3.54-3.06-1.25-.93,1.4-1.22,2.3-2.1,3.58-1.33,1.93-2.16,2.22-3.8,1.25-1.29-.76-1.73-1.93-3.24-1.76a4.39,4.39,0,0,1-3-.57,1.83,1.83,0,0,1-1-2.27Z" style="fill:#f9f743;stroke:#ff0;stroke-width:0.10583333671092987px"/><path d="M428.41,387.61c-1.14,4.61.6,7.94,4.43,10,2.86-1.19,2.76-.39,5.62-.11.33-1.95,2.36-4.34,1.93-8.4l-4.14-.4c.5,3.73,1.13,7.72-1.19,8.17-3.22,0-4.12-3.6-3.41-8.85Z" style="stroke:#000;stroke-width:0.10583333671092987px"/><path d="M445.38,389.2c2.31,3.84,1.14,5.94.57,8.34l2.33.28c1.6-2.27,2-5.2,1.31-8.68Z" style="stroke:#000;stroke-width:0.10583333671092987px"/><path d="M348,379.1c-1.14,4.61.6,7.94,4.43,10,2.86-1.19,2.76-.39,5.62-.11.33-1.95,2.36-4.34,1.93-8.4l-4.14-.4c.5,3.73,1.13,7.72-1.19,8.17-3.22,0-4.12-3.6-3.41-8.85Z" style="stroke:#000;stroke-width:0.10583333671092987px"/><path d="M365,380.69c2.31,3.84,1.14,5.94.57,8.34l2.33.28c1.6-2.27,2-5.2,1.31-8.68Z" style="stroke:#000;stroke-width:0.10583333671092987px"/><path d="M435,398.39c-1.14,3.68,10.5,8.9,16.12,13.39a28.22,28.22,0,0,1,5.08-3.8c1.44-.79,3.9-1.21,5.57-1.93,2.47-1.07,5.1-3,8.2-3.58,7.7-1.44,16.51,2.57,25.43,1.82-3.79,2-26.1,22.73-41,13l6.07,4.94c3.58,4.38,10.38-.77,21.79,2.38a16.18,16.18,0,0,1,9.31,4.88c4.33,3.29,13,4.46,15.67,7.83,3,5.26,2.91,9.61,6.81,14.42a23,23,0,0,0,10.67,13.17c3.3,3,4,7.27,8.4,10.44-4.09-2.08-6.13-.78-9.19-4-3.41-3.56-7.23-6.45-12.15-7.61-5.37-1.85-10.68-.54-15.67-2.61-4.8-2.6-8.25-3.48-11.69-5.56-4.14-2.57-7.59-3.07-11.92-6-8.34-6.52-17.77-16.24-17.25-29.29l2.72.79c-6.32-7.87-16.23-15.88-25.43-21.57,5.4,6.41,21.92,16.23,21,23.61a75.84,75.84,0,0,1-4.2,16c-3,6.69-8.13,8.55-13.51,9.88-6.91,3.08-5.68,5.3-7.38,7.83-.25-5.61-2.76-9.27-1.36-17a10.73,10.73,0,0,1,4.09-5.11c1.81-2.69,0-5.37,3.18-8.06,2.15-2,2.4-3.52,10.22-7.27q7.26-3.41-.45-8.63c-8.43-4.19-10.62-7.08-13.51-10.1,1.83-2.37,3.19-2.61,4.43-2.27Z" style="fill:#249b04;stroke:#000;stroke-linecap:round;stroke-linejoin:round;stroke-width:3px"/><path d="M458.49,423.25c4.1,3.05,7.53,6.78,12.71,8.74,3-1.28,5.82-3.34,9.42-3-3.7,0-6.5,1.41-9.31,2.84-.57,2.84-1.8,5.68-.68,8.51-1.12-2.76.11-5.52.68-8.29,4.21,1.73,10.34,4.68,14.17,7.83a23.86,23.86,0,0,1,11.12-1.7c-3.91-.07-7.7.16-11,1.59.31,3.39,0,6.88,2.27,10-2.57-3.06-1.66-6.55-2-9.88a56.91,56.91,0,0,1,12.83,9.74,11.77,11.77,0,0,1,6.58-1.36c-4-.22-4.75.75-6.47,1.36-.16,2.16-1.78,4.31.23,6.47-1-2.08-.42-4.16-.34-6.24,3.72,2.18,7.55,4.34,10.1,6.81" style="fill:none;stroke:#000;stroke-linecap:round;stroke-linejoin:round;stroke-width:3px"/><path d="M451.28,413.43c3.42-.2,8.84.13,12-.91.14-1.49-.33-2.54,1.08-4-1.68,1.68-1.18,2.91-1.65,4.6a7,7,0,0,0,4.37,2.72c-2.2-.21-3-1.23-4.14-2.78a57.83,57.83,0,0,0,8.46-3.18c.17-1.15,0-2.31.85-3.46-1.22,1.38-.87,2.37-1,3.46a11.73,11.73,0,0,0,3.92,2.44c-1.7-.21-2.68-1.48-3.8-2.55a35.37,35.37,0,0,1,6.53-1.48" style="fill:none;stroke:#000;stroke-linecap:round;stroke-linejoin:round;stroke-width:3px"/><path d="M449.76,417.9c-1.55,3.67-3.28,9.73-5.64,12.77-1.69-.42-2.65-1.34-4.83-.38,2.5-1.19,3.65-.16,5.68,0a8.19,8.19,0,0,1,1.29,5.84c.63-2.5-.18-3.75-1.44-5.62a67.21,67.21,0,0,1-6.76,8c-1.33-.26-2.53-.9-4.12-.41,2-.8,2.93,0,4.17.29a13.63,13.63,0,0,1,1.16,5.24c.43-1.94-.58-3.51-1.32-5.16a41.11,41.11,0,0,0-4.15,6.58" style="fill:none;stroke:#000;stroke-linecap:round;stroke-linejoin:round;stroke-width:3px"/><path d="M300.7,297.71l11.64-8.28c3.48-2.46,5.1-2,7.24-2.35a52.58,52.58,0,0,1,.76-13.1c2.7-9.16,6.1-18.59,10-28.2a1.28,1.28,0,0,1,2.49.56c-.23,4.74-2.09,8.76,5.18,16.82,1.26,1.13,2.33.38,3.17-.6a18.32,18.32,0,0,1,4-3.65c1.45-.68,2.51.23,2,1.65-5.85,12.53-11.93,24.79-22.39,31.87.36,2.28.57,4.43-.12,5.82l-6.07,12.86c-.49,1.2-3,.29-2.36-1l6.26-11.4a3.43,3.43,0,0,0-.76-4l-5.62-3.53a2.9,2.9,0,0,0-3.43.49l-10.41,7.82c-1.31,1-2.58-1-1.55-1.81Z" style="stroke:#000;stroke-width:0.10583333671092987px"/><path d="M305.58,303.29l7.55-7.38" style="fill:none;stroke:#000;stroke-linecap:round;stroke-linejoin:round;stroke-width:1.1112500429153442px"/><path d="M310.83,307.13l6.59-8.25" style="fill:none;stroke:#000;stroke-linecap:round;stroke-linejoin:round;stroke-width:1.1112500429153442px"/><path d="M321.16,291.09c-.85-.6.52-2.46,1.5-3.35s3.12-2.1,3.77-1.7c1.21.74-.41,2.68-.94,3.24-1,1-3.49,2.42-4.34,1.82Z" style="fill:#fff;stroke:#fff;stroke-width:0.10583333671092987px"/><path d="M340.27,270c-.75-.26-.56-1.37-.16-2s1-1.75,1.59-1.59.41,1.36.26,1.93c-.19.72-1,2-1.69,1.71Z" style="fill:#fff;stroke:#fff;stroke-linecap:round;stroke-linejoin:round;stroke-width:0.05291666090488434px"/><path d="M322.92,280.86A33.85,33.85,0,0,1,326,266.57c.67-1.54,1.27-1.87,1.85-.56.93,2.11,1.47,6,1.93,8.79.29,1.76.72,3.36-1,5.3a6.21,6.21,0,0,1-3.21,2.21c-2.33.58-2.64-.47-2.65-1.44Z" style="fill:#fff;stroke:#fff;stroke-width:0.10583333671092987px"/><path d="M331.59,273a47.9,47.9,0,0,1-1.69-12.8c0-1.62.85-3.19,2.13-1.85a21.22,21.22,0,0,1,4.74,7.1,6.39,6.39,0,0,1,.16,4.54c-1,2.46-1.71,3-2.77,3.73-1.71,1.1-2.35.13-2.57-.72Z" style="fill:#fff;stroke:#fff;stroke-width:0.10583333671092987px"/><path d="M240.88,209.77c-.54-2.28.53-5.62,11.16-8.4,2.69-.7,7.45-.87,10.43-3.29,1.7-1.38.41-8.81,3.73-11.21,3.11-2.24,9.59,2.59,14.9,1.12,5-1.39,5.8-4.06,8.33-5,2.91-1,5.29,2.41,8.5.7,1.42-.76,1.87-4.16,4.8-5.19,2.53-.89,15.08-1.64,21.48-4.65,3.67-1.73,3.23-4,6.42-7.06,2.38-2.31,5.22.44,8.11-.08,2.71-.48,6.24-2.29,8.23-1.68,3.74,1.16,4,1.72,7.37,10.74,3,7.87,7.48,7.44,11.38,5.93,3.48-1.34,6.2-1.24,9.14,1.76,6.06,6.19,8.88,5.44,10.42,2.08,2.18-4.75-.95-7.86-15.23-14.26-7.26-3.26-2-12.63,4.81-9.14,14.66,7.54,29.43,14.94,43.91,18.59,3.83,1,6.92,4.33,10.17,7.66,2.78,2.86,5.37,2.17,8.37,3.87,4.78,2.72,4.4,6.17,8.17,10.14,2.1,2.2,5.24.63,6.78,2,1.24,1.14,1.2,3.09,2.4,3.21a7.58,7.58,0,0,1,3.53,1.6c1.42,1.17,2.42,4.12,5.13,6.25s5.28,1.59,7.05,2.88,2.22,4.25,3.68,5.73c2.09,2.12,4.81,3.34,9.82,5.64,6.49,3,2.46,10.63-2.6,9.79-10.31-1.71-12.4,4.83-15.07,5.77-5.37,1.91-13.41-4.86-19.39-4.17-2.37.27-2.65,2.94-4.17,5.45-3.49,5.78-12.37,6.7-19.07,6.57-7.81-.15-16.74-6.19-24.68-9.62a14.55,14.55,0,0,0-8-1.44c-3.77.5-3.22-3.83-7.05-4.17-3-.26-5.58.05-7.85-.8-3.22-1.21-4.47-8.77-10.35-10.16-4.07-1-8.19,1.56-14.74,10.74-3.64,5.1-8.1,6.31-13.21.23-11.41-13.58-18.34-13.72-22-16.51s-6.38-10.63-12.18-9.78c-9.89,1.45-11.65,6.66-19.51,8.22-4.27.85-5.11-1.36-12.71-4.54-5.72-2.39-12.73-2.5-22.12-1.28C243.74,214.82,241.49,212.33,240.88,209.77Z" style="fill:#2a981a;stroke:#000;stroke-linecap:round;stroke-linejoin:round;stroke-width:3px"/><path d="M390.42,209.18v14.29l45,10v.08l10.73-9.75,0-12.2-3.06-3.21" style="fill:#83ea2a;stroke:#000;stroke-linecap:round;stroke-linejoin:round;stroke-width:2.5px"/><path d="M406.26,201.13l-7.78-1.59,44.66,8.87-5.34,8c-2.85,3.71-8,1.49-5.91-1.2-2.85,3.71-8,1.49-5.91-1.2-2.85,3.71-8,1.49-5.91-1.2-2.85,3.71-8,1.49-5.91-1.2-2.85,3.71-8,1.49-5.91-1.2-2.85,3.71-8,1.49-5.91-1.2-2.85,3.71-8,1.49-5.91-1.2-2.85,3.71-8.28,1.26-5.91-1.2l8.07-7.18" style="fill:red;stroke:#000;stroke-linecap:round;stroke-linejoin:round;stroke-width:2.5px"/><path d="M410.61,227.22V217.9l3.37.81v9.37Z" style="stroke:#000;stroke-linecap:round;stroke-linejoin:round;stroke-width:0.10975691676139832px"/><path d="M398.1,218.7v-2.63l4.87,1.18v2.7Z" style="stroke:#000;stroke-linecap:round;stroke-linejoin:round;stroke-width:0.15853339433670044px"/><path d="M421.62,224v-2.63l4.87,1.18v2.7Z" style="stroke:#000;stroke-linecap:round;stroke-linejoin:round;stroke-width:0.15853339433670044px"/><path d="M387.49,137.84h17.16v4.51l15.8.06v19.83l-20.07-.13v-4.55l-12.89.12Z" style="fill:none;stroke:#000;stroke-linecap:round;stroke-linejoin:round;stroke-width:3px"/><rect x="385.24" y="136.08" width="19.43" height="25.45" style="fill:none"/><rect x="387.49" y="137.83" width="17.16" height="19.83" style="fill:#b22234"/><path d="M387.49,140.12h17.16m0,3.05H387.49m0,3.05h17.16m0,3.05H387.49m0,3.05h17.16m0,3.05H387.49" style="stroke:#fff;stroke-width:1.5px"/><rect x="387.49" y="137.84" width="15.07" height="10.68" style="fill:#3c3b6e"/><path d="M388.75,138.29l.36,1.1-.94-.68h1.16l-.94.68Z" style="fill:#fff"/><path d="M388.75,140.43l.36,1.1-.94-.68h1.16l-.94.68Z" style="fill:#fff"/><path d="M388.75,142.56l.36,1.1-.94-.68h1.16l-.94.68Z" style="fill:#fff"/><path d="M388.75,144.7l.36,1.1-.94-.68h1.16l-.94.68Z" style="fill:#fff"/><path d="M388.75,146.83l.36,1.1-.94-.68h1.16l-.94.68Z" style="fill:#fff"/><path d="M390,139.36l.36,1.1-.94-.68h1.16l-.94.68Z" style="fill:#fff"/><path d="M390,141.5l.36,1.1-.94-.68h1.16l-.94.68Z" style="fill:#fff"/><path d="M390,143.63l.36,1.1-.94-.68h1.16l-.94.68Z" style="fill:#fff"/><path d="M390,145.77l.36,1.1-.94-.68h1.16l-.94.68Z" style="fill:#fff"/><path d="M391.26,138.29l.36,1.1-.94-.68h1.16l-.94.68Z" style="fill:#fff"/><path d="M391.26,140.43l.36,1.1-.94-.68h1.16l-.94.68Z" style="fill:#fff"/><path d="M391.26,142.56l.36,1.1-.94-.68h1.16l-.94.68Z" style="fill:#fff"/><path d="M391.26,144.7l.36,1.1-.94-.68h1.16l-.94.68Z" style="fill:#fff"/><path d="M391.26,146.83l.36,1.1-.94-.68h1.16l-.94.68Z" style="fill:#fff"/><path d="M392.52,139.36l.36,1.1-.94-.68h1.16l-.94.68Z" style="fill:#fff"/><path d="M392.52,141.5l.36,1.1-.94-.68h1.16l-.94.68Z" style="fill:#fff"/><path d="M392.52,143.63l.36,1.1-.94-.68h1.16l-.94.68Z" style="fill:#fff"/><path d="M392.52,145.77l.36,1.1-.94-.68h1.16l-.94.68Z" style="fill:#fff"/><path d="M393.77,138.29l.36,1.1-.94-.68h1.16l-.94.68Z" style="fill:#fff"/><path d="M393.77,140.43l.36,1.1-.94-.68h1.16l-.94.68Z" style="fill:#fff"/><path d="M393.77,142.56l.36,1.1-.94-.68h1.16l-.94.68Z" style="fill:#fff"/><path d="M393.77,144.7l.36,1.1-.94-.68h1.16l-.94.68Z" style="fill:#fff"/><path d="M393.77,146.83l.36,1.1-.94-.68h1.16l-.94.68Z" style="fill:#fff"/><path d="M395,139.36l.36,1.1-.94-.68h1.16l-.94.68Z" style="fill:#fff"/><path d="M395,141.5l.36,1.1-.94-.68h1.16l-.94.68Z" style="fill:#fff"/><path d="M395,143.63l.36,1.1-.94-.68h1.16l-.94.68Z" style="fill:#fff"/><path d="M395,145.77l.36,1.1-.94-.68h1.16l-.94.68Z" style="fill:#fff"/><path d="M396.28,138.29l.36,1.1-.94-.68h1.16l-.94.68Z" style="fill:#fff"/><path d="M396.28,140.43l.36,1.1-.94-.68h1.16l-.94.68Z" style="fill:#fff"/><path d="M396.28,142.56l.36,1.1-.94-.68h1.16l-.94.68Z" style="fill:#fff"/><path d="M396.28,144.7l.36,1.1-.94-.68h1.16l-.94.68Z" style="fill:#fff"/><path d="M396.28,146.83l.36,1.1-.94-.68h1.16l-.94.68Z" style="fill:#fff"/><path d="M397.54,139.36l.36,1.1-.94-.68h1.16l-.94.68Z" style="fill:#fff"/><path d="M397.54,141.5l.36,1.1-.94-.68h1.16l-.94.68Z" style="fill:#fff"/><path d="M397.54,143.63l.36,1.1-.94-.68h1.16l-.94.68Z" style="fill:#fff"/><path d="M397.54,145.77l.36,1.1-.94-.68h1.16l-.94.68Z" style="fill:#fff"/><path d="M398.79,138.29l.36,1.1-.94-.68h1.16l-.94.68Z" style="fill:#fff"/><path d="M398.79,140.43l.36,1.1-.94-.68h1.16l-.94.68Z" style="fill:#fff"/><path d="M398.79,142.56l.36,1.1-.94-.68h1.16l-.94.68Z" style="fill:#fff"/><path d="M398.79,144.7l.36,1.1-.94-.68h1.16l-.94.68Z" style="fill:#fff"/><path d="M398.79,146.83l.36,1.1-.94-.68h1.16l-.94.68Z" style="fill:#fff"/><path d="M400,139.36l.36,1.1-.94-.68h1.16l-.94.68Z" style="fill:#fff"/><path d="M400,141.5l.36,1.1-.94-.68h1.16l-.94.68Z" style="fill:#fff"/><path d="M400,143.63l.36,1.1-.94-.68h1.16l-.94.68Z" style="fill:#fff"/><path d="M400,145.77l.36,1.1-.94-.68h1.16l-.94.68Z" style="fill:#fff"/><path d="M401.3,138.29l.36,1.1-.94-.68h1.16l-.94.68Z" style="fill:#fff"/><path d="M401.3,140.43l.36,1.1-.94-.68h1.16l-.94.68Z" style="fill:#fff"/><path d="M401.3,142.56l.36,1.1-.94-.68h1.16l-.94.68Z" style="fill:#fff"/><path d="M401.3,144.7l.36,1.1-.94-.68h1.16l-.94.68Z" style="fill:#fff"/><path d="M401.3,146.83l.36,1.1-.94-.68h1.16l-.94.68Z" style="fill:#fff"/><path d="M400.41,145.39c0-2.35,4.26-2.33,4.26-4.58v-1.53c0,2.26-4.26,2.23-4.26,4.58Z" style="fill:#fff;stroke:#fff;stroke-linecap:round;stroke-linejoin:round;stroke-width:0.009129240177571774px"/><path d="M400.4,143.94c0-2.35,4.26-2.33,4.26-4.58v-1.53c0,2.26-4.26,2.23-4.26,4.58Z" style="fill:#b22234"/><path d="M384.15,135.27v82.38" style="stroke:#000;stroke-linecap:round;stroke-linejoin:round;stroke-width:2.5px"/><path d="M384.15,134.87a3,3,0,1,1,3-3A3,3,0,0,1,384.15,134.87Z"/><path d="M455.34,167.24H472.5v4.51h1.62l14.18.05-8,10.1,8,9.73-20.07-.13V187l-12.89.12Z" style="fill:none;stroke:#000;stroke-linecap:round;stroke-linejoin:round;stroke-width:3px"/><path d="M455.34,167.24H472.5l-.7,4.51,16.5.06-9,9.92,9,9.9-20.07-.13V187l-12.89.12Z" style="fill:red"/><path d="M469.6,175.86v-9.06l3.9,0c0,1.93-2,4.08-2,5.07,0,2.34.07,5.09.07,7.47l10.63,0-2,2.18,2,2.3H471.65v8.2h-3.41V180H455.31l-.09-4.21Z" style="fill:#fff;stroke:#000;stroke-linecap:round;stroke-linejoin:round"/><path d="M451.79,165.72V231" style="stroke:#000;stroke-linecap:round;stroke-linejoin:round;stroke-width:2.5px"/><path d="M451.79,165.32a3,3,0,1,1,3-3A3,3,0,0,1,451.79,165.32Z"/><path d="M442.36,220.57v-2.63l-3.09,2.77v2.7Z" style="stroke:#000;stroke-linecap:round;stroke-linejoin:round;stroke-width:0.15853339433670044px"/><path d="M476.48,347.33c.06-4,3.91-10,9-12.13,3.09-1.3,6.17-1,8.73-1.59,2-.47,3.69-2.55,6.23-2.83,4.65-.52,9.68,4.1,12,2.25,5-4-1.38-10-1.17-13,.16-2.22,3.16-5.09,6.24-5.11a43.51,43.51,0,0,0,7.48,1.33c3.23.21,6.93-1.26,9-.58,3.71,1.23-.43,10.75,2.75,13.19,6.22,4.76,12.49,3.5,18.59,5,13.15,3.2,9,9,10.54,11.11,1.87,2.67,4.06,2.63,5.67,4.08a20.7,20.7,0,0,1,5,5.78c.48.85,1.7,1.94,7.48,2.83,1.38.21,1.64,2.77,3.4,11.33,2.15,10.48,8.8,19.15,14.62,28.22,2.8,4.36-1.15,9-4.42,9.52-2.45.42-8.11-4.36-11.16-8.51-2.13-2.89-3-5.58-5.39-9.74-1.65-2.87-3.34-3.44-4.19-5.89-1.82-5.2-.31-8.8-3.51-9.52-4.74-1.07-4.82,3-7.93,3.24s-4.43-3.84-7.25-2.9c-1.76.58-1.12,7.25.91,15.87,1.42,6,.11,8.48-2,10.88-4.44,5-11.43,14.34-13,14.62-2.71.47-4.15-6.67-8.5-11.45-2.14-2.35-5.76-3.55-7.59-7-1.63-3.09-4.34-12.55-9.41-15.3-2.53-1.37-6.22,0-8.45-.29-2.39-.35-4.34-4.81-7.21-5.35s-3.49,1.56-7.23,1c-2.57-.39-3.2-2.13-5.21-3.51s-3.08-.93-4.08-2.27c-2.26-3-.89-5.73-3-10-2-4.08-6.91-6.23-6.8-13.26Z" style="fill:#2a981a;stroke:#000;stroke-width:3px"/><path d="M528.08,351.92c.63,0-2.46-.53-2.61-1.1L530,352l-.42-1.84-.4-1.53h-1.25l-1.36-1.42-1.43,0L523.52,345l-24.93,2.15" style="fill:none;stroke:#000;stroke-linecap:round;stroke-linejoin:round"/><path d="M515.51,349.35l-1.43-10.78c0-.66-1.87-1.14-3-1.14s-3,.49-3,1.14l-1.43,10.78c0,1,2.92,1.61,4.39,1.61S515.51,350.37,515.51,349.35Z" style="fill:red;stroke:#000;stroke-width:2px"/><path d="M510.12,348.14l0-1.67a1,1,0,0,1,2,0l0,1.67c0,.14-.56.3-1,.3S510.12,348.28,510.12,348.14Z" style="stroke:#000;stroke-width:0.05291666090488434px"/><path d="M508.15,338.56a7.09,7.09,0,0,0,5.93,0" style="fill:#b0b0b0;stroke:#000;stroke-linejoin:round;stroke-width:2px"/><path d="M522.79,359.71l-20.46.4L502,358c0-2.66,6.75-4.76,10.47-4.8s10.38,1.58,10.38,4.8Z" style="fill:red;stroke:#000;stroke-width:2px"/><path d="M502.13,360.86c0-2.72,6.75-4.76,10.47-4.8s10.38,1.58,10.38,4.8l0,1.84c-6.89,2.68-13.79,1.85-20.68-.28Z" style="fill:#2a981a;stroke:#000"/><path d="M523.16,362.18l-.34-4.14c.24,1.63-2.73,4.62-10.43,4.62s-10.67-3-10.43-4.62l-.34,4.14c-.19,1.63,3.27,4.5,10.77,4.5s11-2.86,10.77-4.5Z" style="fill:red;stroke:#000;stroke-linecap:round;stroke-linejoin:round;stroke-width:2px"/><path d="M531.12,361.75l7.59-.32.13-1.08.37,0,.27,1,5.46-.23,5,7.88,7.25-1v-7.42l-8.73-11.39H547.3l-.3,1.4h-1.42l-.35-1.4h-1.15l-.29,1.4h-1.12l-.41-1.4h-.4l.06,1-5.16.43,0,1-6.06.6v8Z" style="fill:red;stroke:#000;stroke-linecap:round;stroke-width:1.5px"/><path d="M548.74,366.57l.4-4.31-7.51-13" style="fill:red;stroke:#000;stroke-linejoin:round;stroke-width:1.5px"/><path d="M544.94,361.13v-4.42l-3.28.22c-.08.5-.17.82-.26,1.22l-1.32.06c-.12-.5-.27-.85-.36-1.21l-1.63.09a6.4,6.4,0,0,0-.21,1.33l-1.42.07c-.16-.7-.25-.68-.39-1.29l-5.12.29" style="fill:none;stroke:#000;stroke-linecap:round;stroke-width:1.5px"/><path d="M544.09,354.1l-13.32.85" style="fill:none;stroke:#000;stroke-linecap:round;stroke-linejoin:round;stroke-width:1.5px"/><path d="M549.14,362.26l2-.06,1.42,2.27,2.23-.31,1.12-2.94" style="fill:none;stroke:#000;stroke-linecap:round"/><path d="M545.21,355.52l1.58,0,1,2.24,2.73-.11.76-2h1.1l0-1.13" style="fill:none;stroke:#000;stroke-linecap:round"/><path d="M544.09,354.5l4.08-.09v0l2.37,3.23" style="fill:none;stroke:#000;stroke-width:0.5px"/><path d="M547.95,360.68l3.91-.37v0l2.37,3.23" style="fill:none;stroke:#000;stroke-width:0.5px"/><path d="M525.54,351.1l-10.11-3.91.09,2.15Z" style="fill:red;stroke:#000;stroke-linecap:round;stroke-linejoin:round"/><path d="M525.08,354v-1.9l1.44-1,1.27,1.22v1.93Z" style="fill:red;stroke:#000;stroke-linecap:round;stroke-linejoin:round"/><path d="M527.76,354.22l.79-.67-.08-1.25" style="fill:none;stroke:#000;stroke-linecap:round;stroke-linejoin:round"/><rect x="400.49" y="142.34" width="19.67" height="19.83" style="fill:#b22234"/><path d="M400.49,144.62h19.67m0,3.05H400.49m0,3.05h19.67m0,3.05H400.49m0,3.05h19.67m0,3.05H400.49" style="stroke:#fff;stroke-width:1.5px"/></svg>