<svg xmlns="http://www.w3.org/2000/svg" xmlns:xlink="http://www.w3.org/1999/xlink" viewBox="0 0 608.18 663.76"><defs><radialGradient id="a" cx="772.8" cy="253.15" r="30.34" gradientTransform="matrix(1, 0, 0, -1, -256.75, 426.16)" gradientUnits="userSpaceOnUse"><stop offset="0" stop-color="#a49528"/><stop offset="1" stop-color="#a49528" stop-opacity="0"/></radialGradient><radialGradient id="b" cx="788.3" cy="219.29" r="36.09" xlink:href="#a"/><radialGradient id="c" cx="806.96" cy="181.37" r="34.34" xlink:href="#a"/><radialGradient id="d" cx="823.24" cy="126.18" r="24.94" xlink:href="#a"/><radialGradient id="e" cx="834.84" cy="64.03" r="25.97" xlink:href="#a"/><radialGradient id="f" cx="832.05" cy="19.14" r="32.39" xlink:href="#a"/><radialGradient id="g" cx="817.7" cy="-31.84" r="43.91" xlink:href="#a"/><radialGradient id="h" cx="794.01" cy="-71.08" r="45.84" xlink:href="#a"/><radialGradient id="i" cx="162.8" cy="253.15" r="30.34" gradientTransform="translate(254.93 426.16) rotate(180)" xlink:href="#a"/><radialGradient id="j" cx="178.3" cy="219.29" r="36.09" gradientTransform="translate(254.93 426.16) rotate(180)" xlink:href="#a"/><radialGradient id="k" cx="196.96" cy="181.37" r="34.34" gradientTransform="translate(254.93 426.16) rotate(180)" xlink:href="#a"/><radialGradient id="l" cx="213.24" cy="126.18" r="24.94" gradientTransform="translate(254.93 426.16) rotate(180)" xlink:href="#a"/><radialGradient id="m" cx="224.84" cy="64.03" r="25.97" gradientTransform="translate(254.93 426.16) rotate(180)" xlink:href="#a"/><radialGradient id="n" cx="222.05" cy="19.14" r="32.39" gradientTransform="translate(254.93 426.16) rotate(180)" xlink:href="#a"/><radialGradient id="o" cx="207.7" cy="-31.84" r="43.91" gradientTransform="translate(254.93 426.16) rotate(180)" xlink:href="#a"/><radialGradient id="p" cx="184.01" cy="-71.08" r="45.84" gradientTransform="translate(254.93 426.16) rotate(180)" xlink:href="#a"/></defs><title>Western_Sahara</title><path d="M394.25,277s26.42,32,22,65c-6.62,49.35-29.5,58-37.5,116-5.81,42.13-1,72-1,72l56.5-41.54s47-198.83-4.5-256.46c-24.5,32.88-35.5,45-35.5,45Z" style="fill:green"/><path d="M172.5,234c-51.12,74.75-1,257.5-1,257.5L122,456s.5-40.5-10-66.5-21.5-34.5-21.5-91c0-48.07,51.5-110,51.5-110S150.12,199.27,172.5,234Z"/><path d="M207,277s-26.42,32-22,65c6.62,49.35,29.5,58,37.5,116,5.81,42.13,1,72,1,72L167,488.48S120,289.65,171.5,232C196,264.9,207,277,207,277Z" style="fill:green"/><path d="M175,267s-27.68,25.76-23.71,63.64C155.21,368,182.67,409.73,188,450.52c5.38,41.23.27,53.47.27,53.47l-36.4-26.59S161,431.52,135,381.52c-21.27-40.9-20-75.5-11.5-100.5S149,238,149,238Z" style="fill:#fff"/><path d="M205,282.52c-46.87-7.62-63.5,1-63.5,1s-6.5-34.87-1-97.5c5.5,5.38,20,25,20,25S210.37,264.65,205,282.52Z" style="fill:#c00"/><path d="M276,375.13c-1.59,5.22-5.89,9.31-10.54,6.16-3.46-2.34,5.41,5.13,9.94-6.3C278.76,366.4,277.28,372.14,276,375.13Z" style="fill:#fff;stroke:#000;stroke-linejoin:round"/><path d="M137.41,178.85,324.75,406.94l-17,20.38-31.84-36.87s-8-1.89-10.72-4.31a144.91,144.91,0,0,1-7.61-13.49c.58-2.76.37-14.23.94-16-13.69-17.57-37.82-48.09-100-128.06-2.8-4.18-.81-15.78-.81-15.78L133.25,183ZM260.11,358.59c-.81,1.74-.8,11.76-.78,14,1.08,3.11,4.33,7.93,7.35,12.31a16.26,16.26,0,0,0,9.16,3.34l-.19-9.16S270.69,372.15,260.11,358.59Z" style="fill:#fff;stroke:#000;stroke-linejoin:round"/><path d="M324.75,406.92l-16.9,20.36a104.8,104.8,0,0,1,7.91,45c1.87,4.23,2.07,4.2,4.25,8.63,15.69,3.7,31.61,43.7,63.5,101.62,30-29.74,32.66-31.52,31.5-41.5-.9-7.74-9-17.57-46.25-69.75-13.74-7.89-17-8.18-27.33-18.66-7.1-7.21-9.29-10.84-12.42-22.61A166.19,166.19,0,0,1,324.75,406.92Z" style="fill:#76601d;stroke:#000;stroke-linejoin:round"/><path d="M140.94,321l-4.15-3,1.74-4.78-4.19,3-4.08-3.1,1.56,4.84-4.26,2.86,5.15,0,1.44,4.87,1.63-4.81Z" style="fill:#c00"/><path d="M121.18,312.43a13.24,13.24,0,1,1,24.94,6.38,11.86,11.86,0,1,0-23.39,0,13.18,13.18,0,0,1-1.55-6.22C121.18,312.54,121.18,312.49,121.18,312.43Z" style="fill:#c00"/><path d="M365.77,164.14l-25-34.45-39.68,14.46,24.52-34.84-25.8-33.87L340,88.35,363.7,53,364,95.79l40.47,12-40,13.55Z" style="fill:#c00"/><path d="M294.34,0a110,110,0,1,0,53,207.19A98.49,98.49,0,1,1,331.25,11.53a99.09,99.09,0,0,1,16.16,1.34A109.47,109.47,0,0,0,295.75,0Z" style="fill:#c00"/><path d="M428.75,234c51.13,74.75,1,257.5,1,257.5l49.5-35.5s-.5-40.5,10-66.5,21.5-34.5,21.5-91c0-48.07-51.5-110-51.5-110s-8.12,10.75-30.5,45.5Z"/><path d="M426.25,267s27.68,25.76,23.71,63.64C446,368,418.58,409.73,413.25,450.52,407.86,491.75,413,504,413,504l36.4-26.59s-9.13-45.89,16.87-95.89c21.27-40.9,20-75.5,11.5-100.5s-25.5-43-25.5-43Z" style="fill:#fff"/><path d="M396.25,282.52c46.88-7.62,63.5,1,63.5,1s6.5-34.87,1-97.5c-5.5,5.38-20,25-20,25S390.87,264.65,396.25,282.52Z" style="fill:#c00"/><path d="M325.29,375.13c1.59,5.22,5.89,9.31,10.54,6.16,3.46-2.34-5.41,5.13-9.94-6.3-3.4-8.59-1.92-2.85-.61.14Z" style="fill:#fff;stroke:#000;stroke-linejoin:round"/><path d="M463.84,178.85,276.5,406.94l17,20.38,31.84-36.87s8-1.89,10.72-4.31a144.89,144.89,0,0,0,7.61-13.49c-.58-2.76-.37-14.23-.94-16,13.69-17.57,37.82-48.09,100-128.06,2.8-4.18.81-15.78.81-15.78L468,183l-4.16-4.16ZM341.14,358.59c.81,1.74.8,11.76.78,14-1.08,3.11-4.33,7.93-7.35,12.31a16.26,16.26,0,0,1-9.16,3.34l.19-9.16S330.56,372.15,341.14,358.59Z" style="fill:#fff;stroke:#000;stroke-linejoin:round"/><path d="M276.5,406.92l16.9,20.36a104.8,104.8,0,0,0-7.91,45c-1.87,4.23-2.07,4.2-4.25,8.63-15.69,3.7-31.61,43.7-63.5,101.62-30-29.74-32.66-31.52-31.5-41.5.9-7.74,9-17.57,46.25-69.75,13.74-7.89,17-8.18,27.33-18.66,7.1-7.21,9.29-10.84,12.42-22.61a166.19,166.19,0,0,0,4.25-23.08Z" style="fill:#76601d;stroke:#000;stroke-linejoin:round"/><path d="M460.31,321l4.15-3-1.74-4.78,4.19,3,4.08-3.1-1.56,4.84,4.26,2.86-5.15,0-1.44,4.87-1.63-4.81Z" style="fill:#c00"/><path d="M480.07,312.43a13.24,13.24,0,1,0-24.94,6.38,11.86,11.86,0,1,1,23.39,0,13.18,13.18,0,0,0,1.55-6.22C480.07,312.54,480.07,312.49,480.07,312.43Z" style="fill:#c00"/><path d="M484.38,589.07s35.15-27.54,51.94-22.84c.67,32,13.1,39.52,30,55.53-32.13-5.49-66.31,26.84-88.66,28.44-17,1.21-18.92-4.65-31.57-17.24,1.68-15.28,38.29-43.88,38.29-43.88Z" style="fill:#c00;stroke:#000;stroke-linejoin:round"/><path d="M503.85,609.22s4.45,12.65-24.06,27.1c-11.22,5.68-27.15,6.24-18,11.49-6.43-2.22-14.36-14.64-14.36-14.64l56.42-24Z" style="fill:#c00;stroke:#000;stroke-linejoin:round"/><path d="M122.2,589.07S87,561.53,70.25,566.23c-.67,32-13.1,39.52-30,55.53,32.13-5.49,66.31,26.84,88.66,28.44,17,1.21,18.92-4.65,31.57-17.24C158.8,617.67,122.2,589.07,122.2,589.07Z" style="fill:#c00;stroke:#000;stroke-linejoin:round"/><path d="M102.72,609.22s-4.45,12.65,24.06,27.1c11.22,5.68,27.15,6.24,18,11.49,6.43-2.22,14.36-14.64,14.36-14.64l-56.42-24Z" style="fill:#c00;stroke:#000;stroke-linejoin:round"/><path d="M127.84,563.5c-1.83.19-3.34,2.26-5.56,8.06-4,10.57-19.09,36.28-19.09,36.28s-1.57,2.88.09,7.56a3.08,3.08,0,0,1-.09-.66s0,0,0,0,0-.09,0-.12,0,0,0,0,0-.07,0-.09,0,0,0,0,0,0,0,0l0-.06,0-.06,0,0,.06-.06,0,0,.06,0,.06,0,.09,0h.09a6,6,0,0,1,2.94,1.31S197.54,664,295.41,663.25c2.62,0,5.25-.07,7.88-.16,2.62.09,5.25.14,7.88.16,97.87.7,188.72-47.87,188.72-47.87a7.14,7.14,0,0,1,2.78-1.31h.25l.09,0,.06,0,.06,0,0,0,.06.06,0,0,0,.06,0,.06s0,0,0,0,0,.09,0,.13,0,0,0,0,0,.09,0,.13,0,0,0,0a3.12,3.12,0,0,1-.09.66c1.68-4.69.09-7.56.09-7.56s-15.05-25.71-19.09-36.28c-2.39-6.24-3.95-8.15-6-8.06-1.52.07-3.32,1.28-5.91,2.59-35.72,18.14-78,35.51-141.09,41.56q-8.74.84-18,1.38c-2.33.13-4.67.24-7,.28h-.59l-1.78,0h-1.19l-1.75,0h-.59c-2.36,0-4.73-.15-7.06-.28-6.2-.36-12.2-.82-18-1.37-63.06-6.05-105.38-23.43-141.09-41.56-2.59-1.31-4.38-2.53-5.91-2.59a2.72,2.72,0,0,0-.41,0Z" style="fill:#c00;stroke:#000;stroke-linejoin:round"/><path d="M445.41,602.19a6.92,6.92,0,0,0-2.66.44,5.55,5.55,0,0,0-3.16,2.91,7.66,7.66,0,0,0-.62,3.25,17.9,17.9,0,0,1,2.16-1.06,11.68,11.68,0,0,1,3.81-.81,18.52,18.52,0,0,1,4.16.38q1.91.35,4.81,1.19l-15.66,6.22-.53-1.59a9.73,9.73,0,0,0-2.41-3.94,13.12,13.12,0,0,0-3.81-2.47l-.09,3.91a16.77,16.77,0,0,1,3.38,2.44,9.19,9.19,0,0,1,1.81,2.31l-.44.19,1.16,2.81a11.41,11.41,0,0,1-.72,3.28,18,18,0,0,1-3.34,5.81,12.4,12.4,0,0,1-5.34,3.81,15.84,15.84,0,0,1-3,.66l-3.25.44-.09,1,3.59.13a31.36,31.36,0,0,0,3.59,0,14.5,14.5,0,0,0,3.47-.69,9,9,0,0,0,3.69-3,18.13,18.13,0,0,0,3.22-5.5,8.78,8.78,0,0,0,.41-5.72l23.28-9.25-1.53-3.78-1.28.53q-1,.18-4.59-1.16c-3.07-1.13-5.27-1.86-6.56-2.19a15.53,15.53,0,0,0-3.47-.53Zm-56.16.5-.84,3.69,4.19,1,.91-3.75Zm-4.66,3.44-.78,3.72,4.16.94.84-3.75Zm9,4.63a10.07,10.07,0,0,0-.72,1.88,3.72,3.72,0,0,0-.06,1.84,9.6,9.6,0,0,0,.41.94c.24.49.41.76.47.88a24.84,24.84,0,0,0-5.25,5.84c-1.27,2-1.72,3.7-1.37,5,.1.36.76.5,2,.44a24,24,0,0,0,4.44-.81,4,4,0,0,0,2-1.31,5.46,5.46,0,0,0,1.19-2.41,23.81,23.81,0,0,0,2.94,5c1.33,1.64,2.54,2.29,3.63,2l1.47-.41v0l.91-.28.84-.22v0l11-3.28-1.62-5.5a19.78,19.78,0,0,0-2.31-5.53,13.24,13.24,0,0,0-3-2.59l-.66,4.19a12.56,12.56,0,0,1,2.94,2.16,10.54,10.54,0,0,1,1.84,3.84l-11.19,3.34-1.34.34c-.5.13-1.21-.52-2.09-2a49.13,49.13,0,0,1-2.28-4.47l-1.72-3.72c-.46-.88-.88-1.73-1.28-2.56S394,611.65,393.59,610.75Zm-69.25,6.09-1.72,3.28,3.09,1.63,1.69-3.31Zm-5.09,1.94-1.62,3.31,3,1.63,1.56-3.34Zm75.5,0,1.09,2.34a3.61,3.61,0,0,1-2.22,2.13,10.43,10.43,0,0,1-1.75.34,5.45,5.45,0,0,1-1.22,0,6.56,6.56,0,0,1,1.38-2.5,14.51,14.51,0,0,1,2.72-2.28Zm-29.12.13.56,4.53a7.54,7.54,0,0,1,5.59,3.19,16.32,16.32,0,0,1,2.47,6.38l-8.87,1.81a3,3,0,0,1-1.59,0,2.24,2.24,0,0,1-1.19-1.19l-.53.13a10.18,10.18,0,0,0,0,1.63,12.44,12.44,0,0,0,.22,1.59,2.27,2.27,0,0,0,1.41,1.59,4.08,4.08,0,0,0,2.53.28l10.28-2.09-.81-4A25.8,25.8,0,0,0,372.5,624a11.37,11.37,0,0,0-6.87-5.09Zm-10.06,6.63-1.16,4.06a12.52,12.52,0,0,1,2.66,2.5,10.55,10.55,0,0,1,1.34,4l-9.53,1.63a10.77,10.77,0,0,0-1.81-4,41.11,41.11,0,0,0-3.16-4.06,10.08,10.08,0,0,0-3.19,2.19,15,15,0,0,0-3,4,8.64,8.64,0,0,1-2,2.66,6.87,6.87,0,0,1-3.62,1.59l-1.53.22-.41-4.06a15,15,0,0,0-1.53-5.56q-1.53-2.91-3.91-2.69c-1.38.13-2.47,1.06-3.28,2.78a9,9,0,0,0-.84,4.75,4.07,4.07,0,0,0,3.06,3.72,25.87,25.87,0,0,0,5.31.59,12.87,12.87,0,0,1-2.16.66c-.66.13-1.5.25-2.47.34l-5.81.56-.06-1.47a9.71,9.71,0,0,0-1.25-4.44,13.11,13.11,0,0,0-3-3.41l-1.16,3.72a16.78,16.78,0,0,1,2.59,3.25,9.42,9.42,0,0,1,1.06,2.53l-.37,0,.31,3.16a11.13,11.13,0,0,1-1.59,3.06,18.08,18.08,0,0,1-4.81,4.69,12.33,12.33,0,0,1-6.16,2.22,16.2,16.2,0,0,1-3.06-.19c-1.12-.15-2.21-.28-3.25-.44l-.34.94c1.13.37,2.26.76,3.41,1.13a30.15,30.15,0,0,0,3.47.91,14.67,14.67,0,0,0,3.53.31,9.14,9.14,0,0,0,4.38-1.91,18,18,0,0,0,4.56-4.41,8.79,8.79,0,0,0,2-5.47v-.12l10.34-1v.09l3.63-.47a10.42,10.42,0,0,0,4-1.19,8.17,8.17,0,0,0,2.47-2.69,13.24,13.24,0,0,0,4.25,1.69,10.88,10.88,0,0,0,3.63.25l2.41-.34v-.06l11.31-1.94-.94-5.66a19.77,19.77,0,0,0-1.66-5.78,13.12,13.12,0,0,0-2.62-2.91Zm58.88,4-.72,3.69,4.19.88.81-3.78Zm-90.16,2.66a2.74,2.74,0,0,1,2.47,1.53,15.27,15.27,0,0,1,1.28,2.69,18.16,18.16,0,0,1-3.09-.12,2.4,2.4,0,0,1-2.09-2.22,1.73,1.73,0,0,1,.34-1.25A1.52,1.52,0,0,1,324.28,632.19Zm18.88.91a13.84,13.84,0,0,1,1.72,2.06,12.33,12.33,0,0,1,1.31,2.5L346,638a9.62,9.62,0,0,1-3-.5,7.67,7.67,0,0,1-2.56-1.31,8.23,8.23,0,0,1,1-1.81A3.9,3.9,0,0,1,343.16,633.09Zm66.75,0-.69,3.75,4.19.81.75-3.78Zm-52.59,10.09-1.16,3.59,4.09,1.34,1.22-3.62Zm-4.91,3-1.16,3.66,4.09,1.31,1.16-3.66Z"/><path d="M546.39,207.29c-.72-1.34-4.49,3.95-6.1,2.6-9.74-15.9-12-21.19-25.19-32-5-4.11-18.43-7.31-29.4-24.94,14.6,2.54,30.72,17.22,30.72,17.22s-16.64-19.49-22.69-34.28c26.84,15.61,28.2,31.08,32.9,39.44,6.42,11.42,8.44,15,19.75,31.94Z" style="fill:#dada12;stroke:#000;stroke-linejoin:round"/><path d="M567.64,247.78c-.72-1.34-4.49,4.95-6.1,3.6-7.24-16.4-10.31-21.84-21.69-34.48-13-14.39-33.25-8-44.4-40.94,30,12.14,46.62,30.7,46.62,30.7s-13.94-23.46-3.76-44.49c13.49,31,8.95,24.19,12.95,50,2.39,15.43,8.07,18.15,16.38,35.6Z" style="fill:#dada12;stroke:#000;stroke-linejoin:round"/><path d="M584.55,295.69c-.72-1.34-6.49,4.45-8.1,3.1-5.24-15.4-3.13-25.6-13.69-38.48-13.89-16.95-43.25-23.46-46.9-49.94,31,8.14,48.12,36.7,48.12,36.7s-12.94-30,3.24-56.49c13.49,31-.55,41.69,5.45,68.5,3.41,15.24,6.57,21.15,11.88,36.6Z" style="fill:#dada12;stroke:#000;stroke-linejoin:round"/><path d="M583.73,363.79c-.72-1.34-7,1.45-8.6.1.26-14.9,6.1-35,1.31-51C569.55,290,545.2,284.45,541.55,258c31,8.14,38.12,36.7,38.12,36.7s-8.44-32.46,7.74-59c7,30,3.7,49.94-1.05,77-2.59,14.74-2.93,36.65-2.62,51.1Z" style="fill:#dada12;stroke:#000;stroke-linejoin:round"/><path d="M570.52,427c-.72-1.34-6-.05-7.6-1.4,1.26-13.4,6.77-30.94,8.81-44.48,3.67-24.34-22.25-55.46-19.4-83.94,30.5,18.64,27.12,64.2,27.12,64.2s-2.44-31,24.24-62.49c3,34-12.86,55-23.05,80.5-5.09,12.74-8.93,34.15-10.12,47.6Z" style="fill:#dada12;stroke:#000;stroke-linejoin:round"/><path d="M548,473.18c-.72-1.34-3.49.45-5.1-.9,7.76-10.4,9.27-19.44,13.81-32.48,8.1-23.25-11.75-71.46-1.4-98.94,23.5,22.64,11.62,82.2,11.62,82.2s6.56-39,40.74-77.49c-.51,46.52-26.57,72.15-41.05,95.5-7.59,12.24-9.93,23.15-18.62,32.1Z" style="fill:#dada12;stroke:#000;stroke-linejoin:round"/><path d="M521,520.4c-.72-1.34-2.31-1.62-3.92-3a122.18,122.18,0,0,0,18.25-34c8.1-23.25-5.27-31.41,13.13-87.86,7.38,35.65-2.62,75.56-2.62,75.56s15.43-24.18,59.07-60.93c-16.77,48.59-44.41,56.61-62.63,77.17-10.84,12.24-12.59,24-21.28,33Z" style="fill:#dada12;stroke:#000;stroke-linejoin:round"/><path d="M495.34,553.42c-.72-1.34-2.31-1.92-3.92-3.27,7.76-10.4,7.43-10.27,16.18-20.95,13.72-16.75,2.94-30.68,25.34-88.14,5.63,44.31-13.65,77.31-13.65,77.31s11.29-19.75,63.79-51.77c-27.12,46.81-50.33,45.08-68.54,65.64C503.71,544.49,504,544.46,495.34,553.42Z" style="fill:#dada12;stroke:#000;stroke-linejoin:round"/><path d="M546.39,207.29c-.72-1.34-4.49,3.95-6.1,2.6-9.74-15.9-12-21.19-25.19-32-5-4.11-18.43-7.31-29.4-24.94,14.6,2.54,30.72,17.22,30.72,17.22s-16.64-19.49-22.69-34.28c26.84,15.61,28.2,31.08,32.9,39.44,6.42,11.42,8.44,15,19.75,31.94Z" style="fill:url(#a)"/><path d="M567.64,247.78c-.72-1.34-4.49,4.95-6.1,3.6-7.24-16.4-10.31-21.84-21.69-34.48-13-14.39-33.25-8-44.4-40.94,30,12.14,46.62,30.7,46.62,30.7s-13.94-23.46-3.76-44.49c13.49,31,8.95,24.19,12.95,50,2.39,15.43,8.07,18.15,16.38,35.6Z" style="fill:url(#b)"/><path d="M584.55,295.69c-.72-1.34-6.49,4.45-8.1,3.1-5.24-15.4-3.13-25.6-13.69-38.48-13.89-16.95-43.25-23.46-46.9-49.94,31,8.14,48.12,36.7,48.12,36.7s-12.94-30,3.24-56.49c13.49,31-.55,41.69,5.45,68.5,3.41,15.24,6.57,21.15,11.88,36.6Z" style="fill:url(#c)"/><path d="M583.73,363.79c-.72-1.34-7,1.45-8.6.1.26-14.9,6.1-35,1.31-51C569.55,290,545.2,284.45,541.55,258c31,8.14,38.12,36.7,38.12,36.7s-8.44-32.46,7.74-59c7,30,3.7,49.94-1.05,77-2.59,14.74-2.93,36.65-2.62,51.1Z" style="fill:url(#d)"/><path d="M570.52,427c-.72-1.34-6-.05-7.6-1.4,1.26-13.4,6.77-30.94,8.81-44.48,3.67-24.34-22.25-55.46-19.4-83.94,30.5,18.64,27.12,64.2,27.12,64.2s-2.44-31,24.24-62.49c3,34-12.86,55-23.05,80.5-5.09,12.74-8.93,34.15-10.12,47.6Z" style="fill:url(#e)"/><path d="M548,473.18c-.72-1.34-3.49.45-5.1-.9,7.76-10.4,9.27-19.44,13.81-32.48,8.1-23.25-11.75-71.46-1.4-98.94,23.5,22.64,11.62,82.2,11.62,82.2s6.56-39,40.74-77.49c-.51,46.52-26.57,72.15-41.05,95.5-7.59,12.24-9.93,23.15-18.62,32.1Z" style="fill:url(#f)"/><path d="M521,520.4c-.72-1.34-2.31-1.62-3.92-3a122.18,122.18,0,0,0,18.25-34c8.1-23.25-5.27-31.41,13.13-87.86,7.38,35.65-2.62,75.56-2.62,75.56s15.43-24.18,59.07-60.93c-16.77,48.59-44.41,56.61-62.63,77.17-10.84,12.24-12.59,24-21.28,33Z" style="fill:url(#g)"/><path d="M495.34,553.42c-.72-1.34-2.31-1.92-3.92-3.27,7.76-10.4,7.43-10.27,16.18-20.95,13.72-16.75,2.94-30.68,25.34-88.14,5.63,44.31-13.65,77.31-13.65,77.31s11.29-19.75,63.79-51.77c-27.12,46.81-50.33,45.08-68.54,65.64C503.71,544.49,504,544.46,495.34,553.42Z" style="fill:url(#h)"/><path d="M61.79,207.29c.72-1.34,4.49,3.95,6.1,2.6,9.74-15.9,12-21.19,25.19-32,5-4.11,18.43-7.31,29.4-24.94-14.6,2.54-30.72,17.22-30.72,17.22s16.64-19.49,22.69-34.28C87.6,151.52,86.24,167,81.54,175.35c-6.42,11.42-8.44,15-19.75,31.94Z" style="fill:#dada12;stroke:#000;stroke-linejoin:round"/><path d="M40.54,247.78c.72-1.34,4.49,4.95,6.1,3.6,7.24-16.4,10.31-21.84,21.69-34.48,13-14.39,33.25-8,44.4-40.94-30,12.14-46.62,30.7-46.62,30.7S80,183.2,69.87,162.18c-13.49,31-8.95,24.19-12.95,50-2.39,15.43-8.07,18.15-16.38,35.6Z" style="fill:#dada12;stroke:#000;stroke-linejoin:round"/><path d="M23.64,295.69c.72-1.34,6.49,4.45,8.1,3.1,5.24-15.4,3.13-25.6,13.69-38.48,13.89-16.95,43.25-23.46,46.9-49.94-31,8.14-48.12,36.7-48.12,36.7s12.94-30-3.24-56.49c-13.49,31,.55,41.69-5.45,68.5-3.41,15.24-6.57,21.15-11.88,36.6Z" style="fill:#dada12;stroke:#000;stroke-linejoin:round"/><path d="M24.45,363.79c.72-1.34,7,1.45,8.6.1-.26-14.9-6.1-35-1.31-51C38.63,290,63,284.45,66.63,258c-31,8.14-38.12,36.7-38.12,36.7s8.44-32.46-7.74-59c-7,30-3.7,49.94,1.05,77,2.59,14.74,2.93,36.65,2.62,51.1Z" style="fill:#dada12;stroke:#000;stroke-linejoin:round"/><path d="M37.67,427c.72-1.34,6-.05,7.6-1.4-1.26-13.4-6.77-30.94-8.81-44.48-3.67-24.34,22.25-55.46,19.4-83.94-30.5,18.64-27.12,64.2-27.12,64.2s2.44-31-24.24-62.49c-3,34,12.86,55,23.05,80.5,5.09,12.74,8.93,34.15,10.12,47.6Z" style="fill:#dada12;stroke:#000;stroke-linejoin:round"/><path d="M60.17,473.18c.72-1.34,3.49.45,5.1-.9-7.76-10.4-9.27-19.44-13.81-32.48-8.1-23.25,11.75-71.46,1.4-98.94-23.5,22.64-11.62,82.2-11.62,82.2s-6.56-39-40.74-77.49c.51,46.52,26.57,72.15,41.05,95.5,7.59,12.24,9.93,23.15,18.62,32.1Z" style="fill:#dada12;stroke:#000;stroke-linejoin:round"/><path d="M87.23,520.4c.72-1.34,2.31-1.62,3.92-3a122.18,122.18,0,0,1-18.25-34c-8.1-23.25,5.27-31.41-13.13-87.86-7.38,35.65,2.62,75.56,2.62,75.56S47,447,3.32,410.24C20.09,458.83,47.73,466.84,66,487.41c10.84,12.24,12.59,24,21.28,33Z" style="fill:#dada12;stroke:#000;stroke-linejoin:round"/><path d="M112.84,553.42c.72-1.34,2.31-1.92,3.92-3.27-7.76-10.4-7.43-10.27-16.18-20.95-13.72-16.75-2.94-30.68-25.34-88.14-5.63,44.31,13.65,77.31,13.65,77.31S77.6,498.63,25.09,466.61c27.12,46.81,50.33,45.08,68.54,65.64C104.48,544.49,104.16,544.46,112.84,553.42Z" style="fill:#dada12;stroke:#000;stroke-linejoin:round"/><path d="M61.79,207.29c.72-1.34,4.49,3.95,6.1,2.6,9.74-15.9,12-21.19,25.19-32,5-4.11,18.43-7.31,29.4-24.94-14.6,2.54-30.72,17.22-30.72,17.22s16.64-19.49,22.69-34.28C87.6,151.52,86.24,167,81.54,175.35c-6.42,11.42-8.44,15-19.75,31.94Z" style="fill:url(#i)"/><path d="M40.54,247.78c.72-1.34,4.49,4.95,6.1,3.6,7.24-16.4,10.31-21.84,21.69-34.48,13-14.39,33.25-8,44.4-40.94-30,12.14-46.62,30.7-46.62,30.7S80,183.2,69.87,162.18c-13.49,31-8.95,24.19-12.95,50-2.39,15.43-8.07,18.15-16.38,35.6Z" style="fill:url(#j)"/><path d="M23.64,295.69c.72-1.34,6.49,4.45,8.1,3.1,5.24-15.4,3.13-25.6,13.69-38.48,13.89-16.95,43.25-23.46,46.9-49.94-31,8.14-48.12,36.7-48.12,36.7s12.94-30-3.24-56.49c-13.49,31,.55,41.69-5.45,68.5-3.41,15.24-6.57,21.15-11.88,36.6Z" style="fill:url(#k)"/><path d="M24.45,363.79c.72-1.34,7,1.45,8.6.1-.26-14.9-6.1-35-1.31-51C38.63,290,63,284.45,66.63,258c-31,8.14-38.12,36.7-38.12,36.7s8.44-32.46-7.74-59c-7,30-3.7,49.94,1.05,77,2.59,14.74,2.93,36.65,2.62,51.1Z" style="fill:url(#l)"/><path d="M37.67,427c.72-1.34,6-.05,7.6-1.4-1.26-13.4-6.77-30.94-8.81-44.48-3.67-24.34,22.25-55.46,19.4-83.94-30.5,18.64-27.12,64.2-27.12,64.2s2.44-31-24.24-62.49c-3,34,12.86,55,23.05,80.5,5.09,12.74,8.93,34.15,10.12,47.6Z" style="fill:url(#m)"/><path d="M60.17,473.18c.72-1.34,3.49.45,5.1-.9-7.76-10.4-9.27-19.44-13.81-32.48-8.1-23.25,11.75-71.46,1.4-98.94-23.5,22.64-11.62,82.2-11.62,82.2s-6.56-39-40.74-77.49c.51,46.52,26.57,72.15,41.05,95.5,7.59,12.24,9.93,23.15,18.62,32.1Z" style="fill:url(#n)"/><path d="M87.23,520.4c.72-1.34,2.31-1.62,3.92-3a122.18,122.18,0,0,1-18.25-34c-8.1-23.25,5.27-31.41-13.13-87.86-7.38,35.65,2.62,75.56,2.62,75.56S47,447,3.32,410.24C20.09,458.83,47.73,466.84,66,487.41c10.84,12.24,12.59,24,21.28,33Z" style="fill:url(#o)"/><path d="M112.84,553.42c.72-1.34,2.31-1.92,3.92-3.27-7.76-10.4-7.43-10.27-16.18-20.95-13.72-16.75-2.94-30.68-25.34-88.14-5.63,44.31,13.65,77.31,13.65,77.31S77.6,498.63,25.09,466.61c27.12,46.81,50.33,45.08,68.54,65.64C104.48,544.49,104.16,544.46,112.84,553.42Z" style="fill:url(#p)"/><path d="M163.31,596.31l-2.91,2.53,2.81,3.22,2.91-2.47Zm5.75,0-2.87,2.47,2.78,3.28,2.94-2.47ZM163.5,605l-2.81,3.13.31.22c-.94,1-1.86,1.93-2.78,2.88a11,11,0,0,0-2.19,3.22,2.39,2.39,0,0,0,.38,2.5,5.39,5.39,0,0,0,2.38,1.69c2.74,1.1,5,1.06,6.63-.12a9.15,9.15,0,0,0,2.84-4.19q.78-1.94-1.09-4.81Q166.61,608.65,163.5,605Zm17.66.47-1.87,4.19a7.53,7.53,0,0,1,3.13,5.63,16.29,16.29,0,0,1-1.16,6.75L172.69,619a2.84,2.84,0,0,1-1.31-.87,2.24,2.24,0,0,1-.44-1.62l-.5-.16a10.27,10.27,0,0,0-.87,1.38,12.36,12.36,0,0,0-.62,1.47,2.27,2.27,0,0,0,.38,2.09,4,4,0,0,0,2,1.53l8.06,2.91-.06.19,25.88,7.91,1.19-3.91-1.34-.41c-.6-.33-1.56-1.6-2.87-3.78-1.69-2.8-2.92-4.72-3.72-5.78-1.62-2.13-3.19-3.44-4.72-3.91a5.63,5.63,0,0,0-4.31.28,7.73,7.73,0,0,0-2.53,2.16,18.38,18.38,0,0,1,2.38.56,11.61,11.61,0,0,1,3.47,1.75,18.44,18.44,0,0,1,3,2.88c.85,1,1.84,2.29,3,3.94l-16.19-5,0-.09a25.77,25.77,0,0,0,1.81-9.09,11.42,11.42,0,0,0-3.25-7.94Zm-18.72,4.59c.63.69,1.19,1.37,1.72,2,1.23,1.55,1.75,2.61,1.53,3.16-.15.38-.79.61-1.94.69a6.83,6.83,0,0,1-2.94-.41,2.5,2.5,0,0,1-1.44-1.28,2.55,2.55,0,0,1,.09-2,3,3,0,0,1,1.25-1.37c.2-.12.78-.4,1.72-.84Zm87.78,2.63-2.25,3,3.44,2.59,2.34-3.06ZM244.59,614,242.34,617l3.47,2.56,2.28-3.09Zm30.25.59a14.22,14.22,0,0,0-1,2.47,24.65,24.65,0,0,0-.62,2.69l1.41.81c.32,1.51.56,2.77.75,3.81.35,2,.6,3.74.75,5.22a36.58,36.58,0,0,1,.16,5.56,10.87,10.87,0,0,1-.37,2.28,13.39,13.39,0,0,1-.81,2.16,16.34,16.34,0,0,1-3.72,1.53,10,10,0,0,1-3,.25l-1.34-.06.22-1.84a20.08,20.08,0,0,0,.06-6,13,13,0,0,0-1.69-3.53l-2.28,3.56a12.91,12.91,0,0,1,1.88,3.16,10.56,10.56,0,0,1,.16,4.25l-11.56-1.34-1.25-.19c-.51-.08-.9-1-1.12-2.66-.14-1.1-.21-2.78-.25-5l-.06-4.09c-.06-1-.13-2-.16-2.87s0-1.86,0-2.84a10,10,0,0,0-1.41,1.44,3.82,3.82,0,0,0-.81,1.69c0,.12,0,.46,0,1s0,.87,0,1a24.56,24.56,0,0,0-7.12,3.22c-2,1.33-3.1,2.64-3.31,4-.06.37.49.79,1.63,1.22a24.46,24.46,0,0,0,4.41,1,3.94,3.94,0,0,0,2.34-.34,5.57,5.57,0,0,0,2.06-1.75,23.58,23.58,0,0,0,.69,5.72c.55,2,1.36,3.14,2.47,3.31l1.44.22v0l.44.06,1.44.22v-.06l9.34,1.06,0,.38,29.53,1.72.34-5.94a7.22,7.22,0,0,0-1.16-4.87,5.88,5.88,0,0,0-4.62-2.12,14.46,14.46,0,0,0-6,1.31q-1.18.47-5.41,2.59c.26-1,.43-1.74.53-2.22a23.83,23.83,0,0,0,.56-3.69,27.49,27.49,0,0,0-.28-4.87,50.48,50.48,0,0,0-1-5.72l.31.13a8.8,8.8,0,0,0,.84.28,11.27,11.27,0,0,0,.53-1.59c.1-.43.28-1.46.53-3.06a9.17,9.17,0,0,1-2.78-.81,2.9,2.9,0,0,1-1.59-1.78ZM299.31,618l-1.16,2.25c-.39.8-.75,1.53-1.06,2.22.27,2,.53,4,.75,5.88.36,3.17.65,6.23.91,9.16s.4,5.16.41,6.78c0,.2,0,.59-.06,1.19s-.08,1.14-.12,1.59l.44.22a24,24,0,0,0,1.53-3,9.92,9.92,0,0,0,.66-3.62c0-1.58-.12-3.94-.41-7-.22-2.48-.54-5.25-.94-8.34S299.56,619.78,299.31,618Zm-76.06,8.34a4.42,4.42,0,0,0-2.84,1.63,9.13,9.13,0,0,0-2.16,4.06,4.15,4.15,0,0,0,.81,4.09,9,9,0,0,0,4.38,2.09c-1.59,1.31-2.8,2.26-3.62,2.81a17.17,17.17,0,0,1-4.69,2.28,10.74,10.74,0,0,1-5.59.13,11.21,11.21,0,0,1-2.44-1l-2.5-1.25-.59.69c.9.58,1.82,1.16,2.72,1.75,1.14.72,2.08,1.27,2.81,1.63a15.06,15.06,0,0,0,3,1.09c2.7.66,5.41-.15,8.16-2.41a12.8,12.8,0,0,0,4.63-6.78l.63-2.59a15,15,0,0,0,.56-5.16q-.3-2.51-2.28-3a3.09,3.09,0,0,0-1-.09Zm25.5,3.28,0,2.59a3.6,3.6,0,0,1-2.87,1.06,10.45,10.45,0,0,1-1.75-.41,5.38,5.38,0,0,1-1.09-.5,6.67,6.67,0,0,1,2.28-1.75,14.39,14.39,0,0,1,3.41-1Zm-26.69.28a1.69,1.69,0,0,1,.63,0A2,2,0,0,1,224,631a8,8,0,0,1,.44,3.34,7.13,7.13,0,0,1-3.12-1.37,2,2,0,0,1-.59-2,1.4,1.4,0,0,1,.72-.94,1.68,1.68,0,0,1,.59-.19Zm63.13,8.22c.31,0,.62,0,.91,0a7.77,7.77,0,0,1,3.47.84,1.93,1.93,0,0,1,1.13,1.88c-.07,1.2-1.94,1.68-5.62,1.47l-10.19-.56c1.11-.61,2.21-1.15,3.25-1.62a27,27,0,0,1,4-1.47A14,14,0,0,1,285.19,638.13Zm-22.84,9.19-2.16,3.13,3.53,2.44,2.22-3.12Zm-5.59,1.5L254.62,652l3.56,2.41,2.16-3.19Z"/></svg>